0, 0, Header, 1, 18, 96
1, 0, Start_track
1, 0, Title_t, "And Your Bird "
1, 0, Instrument_name_t, "    by The Beatles"
1, 0, SMPTE_offset, 96, 0, 3, 0, 0
1, 0, MIDI_port, 0
1, 0, Tempo, 500000
1, 0, Time_signature, 4, 2, 24, 8
1, 0, End_track
2, 0, Start_track
2, 0, Title_t, "  Can Sing"
2, 0, Instrument_name_t, "      ""Revolver"""
2, 0, MIDI_port, 0
2, 0, End_track
3, 0, Start_track
3, 0, Title_t, "Std Drums"
3, 0, Instrument_name_t, "  (UK) August 1966"
3, 0, MIDI_port, 0
3, 96, Control_c, 9, 121, 0
3, 97, Control_c, 9, 7, 100
3, 98, Control_c, 9, 10, 64
3, 99, Control_c, 9, 91, 64
3, 100, Control_c, 9, 93, 11
3, 101, Control_c, 9, 32, 0
3, 101, Control_c, 9, 0, 0
3, 101, Program_c, 9, 0
3, 384, Note_on_c, 9, 42, 105
3, 384, Note_on_c, 9, 35, 115
3, 393, Note_on_c, 9, 42, 0
3, 393, Note_on_c, 9, 35, 0
3, 480, Note_on_c, 9, 42, 105
3, 480, Note_on_c, 9, 38, 100
3, 489, Note_on_c, 9, 42, 0
3, 489, Note_on_c, 9, 38, 0
3, 576, Note_on_c, 9, 42, 105
3, 576, Note_on_c, 9, 35, 115
3, 585, Note_on_c, 9, 42, 0
3, 585, Note_on_c, 9, 35, 0
3, 624, Note_on_c, 9, 35, 115
3, 633, Note_on_c, 9, 35, 0
3, 672, Note_on_c, 9, 42, 105
3, 672, Note_on_c, 9, 38, 100
3, 681, Note_on_c, 9, 42, 0
3, 681, Note_on_c, 9, 38, 0
3, 720, Note_on_c, 9, 35, 115
3, 729, Note_on_c, 9, 35, 0
3, 768, Note_on_c, 9, 42, 105
3, 768, Note_on_c, 9, 35, 115
3, 777, Note_on_c, 9, 42, 0
3, 777, Note_on_c, 9, 35, 0
3, 864, Note_on_c, 9, 42, 105
3, 864, Note_on_c, 9, 38, 100
3, 873, Note_on_c, 9, 42, 0
3, 873, Note_on_c, 9, 38, 0
3, 960, Note_on_c, 9, 42, 105
3, 960, Note_on_c, 9, 35, 115
3, 969, Note_on_c, 9, 42, 0
3, 969, Note_on_c, 9, 35, 0
3, 1008, Note_on_c, 9, 35, 115
3, 1017, Note_on_c, 9, 35, 0
3, 1056, Note_on_c, 9, 42, 105
3, 1056, Note_on_c, 9, 38, 100
3, 1065, Note_on_c, 9, 42, 0
3, 1065, Note_on_c, 9, 38, 0
3, 1104, Note_on_c, 9, 35, 115
3, 1113, Note_on_c, 9, 35, 0
3, 1152, Note_on_c, 9, 42, 105
3, 1152, Note_on_c, 9, 35, 115
3, 1161, Note_on_c, 9, 42, 0
3, 1161, Note_on_c, 9, 35, 0
3, 1248, Note_on_c, 9, 42, 105
3, 1248, Note_on_c, 9, 38, 100
3, 1257, Note_on_c, 9, 42, 0
3, 1257, Note_on_c, 9, 38, 0
3, 1344, Note_on_c, 9, 42, 105
3, 1344, Note_on_c, 9, 35, 115
3, 1353, Note_on_c, 9, 42, 0
3, 1353, Note_on_c, 9, 35, 0
3, 1392, Note_on_c, 9, 35, 115
3, 1401, Note_on_c, 9, 35, 0
3, 1440, Note_on_c, 9, 42, 105
3, 1440, Note_on_c, 9, 38, 100
3, 1449, Note_on_c, 9, 42, 0
3, 1449, Note_on_c, 9, 38, 0
3, 1488, Note_on_c, 9, 35, 115
3, 1497, Note_on_c, 9, 35, 0
3, 1536, Note_on_c, 9, 42, 105
3, 1536, Note_on_c, 9, 35, 115
3, 1545, Note_on_c, 9, 42, 0
3, 1545, Note_on_c, 9, 35, 0
3, 1632, Note_on_c, 9, 42, 105
3, 1632, Note_on_c, 9, 38, 100
3, 1641, Note_on_c, 9, 42, 0
3, 1641, Note_on_c, 9, 38, 0
3, 1728, Note_on_c, 9, 42, 105
3, 1728, Note_on_c, 9, 35, 115
3, 1737, Note_on_c, 9, 42, 0
3, 1737, Note_on_c, 9, 35, 0
3, 1776, Note_on_c, 9, 54, 80
3, 1776, Note_on_c, 9, 35, 115
3, 1785, Note_on_c, 9, 54, 0
3, 1785, Note_on_c, 9, 35, 0
3, 1824, Note_on_c, 9, 42, 105
3, 1824, Note_on_c, 9, 54, 115
3, 1824, Note_on_c, 9, 38, 100
3, 1833, Note_on_c, 9, 42, 0
3, 1833, Note_on_c, 9, 54, 0
3, 1833, Note_on_c, 9, 38, 0
3, 1872, Note_on_c, 9, 54, 80
3, 1872, Note_on_c, 9, 35, 115
3, 1881, Note_on_c, 9, 54, 0
3, 1881, Note_on_c, 9, 35, 0
3, 1920, Note_on_c, 9, 42, 105
3, 1920, Note_on_c, 9, 35, 115
3, 1929, Note_on_c, 9, 42, 0
3, 1929, Note_on_c, 9, 35, 0
3, 2016, Note_on_c, 9, 42, 105
3, 2016, Note_on_c, 9, 38, 100
3, 2025, Note_on_c, 9, 42, 0
3, 2025, Note_on_c, 9, 38, 0
3, 2112, Note_on_c, 9, 42, 105
3, 2112, Note_on_c, 9, 35, 115
3, 2121, Note_on_c, 9, 42, 0
3, 2121, Note_on_c, 9, 35, 0
3, 2160, Note_on_c, 9, 35, 115
3, 2169, Note_on_c, 9, 35, 0
3, 2208, Note_on_c, 9, 42, 105
3, 2208, Note_on_c, 9, 38, 100
3, 2217, Note_on_c, 9, 42, 0
3, 2217, Note_on_c, 9, 38, 0
3, 2256, Note_on_c, 9, 35, 115
3, 2265, Note_on_c, 9, 35, 0
3, 2304, Note_on_c, 9, 42, 105
3, 2304, Note_on_c, 9, 35, 115
3, 2313, Note_on_c, 9, 42, 0
3, 2313, Note_on_c, 9, 35, 0
3, 2400, Note_on_c, 9, 42, 105
3, 2400, Note_on_c, 9, 38, 100
3, 2409, Note_on_c, 9, 42, 0
3, 2409, Note_on_c, 9, 38, 0
3, 2496, Note_on_c, 9, 42, 105
3, 2496, Note_on_c, 9, 35, 115
3, 2505, Note_on_c, 9, 42, 0
3, 2505, Note_on_c, 9, 35, 0
3, 2544, Note_on_c, 9, 35, 115
3, 2553, Note_on_c, 9, 35, 0
3, 2592, Note_on_c, 9, 42, 105
3, 2592, Note_on_c, 9, 38, 100
3, 2601, Note_on_c, 9, 42, 0
3, 2601, Note_on_c, 9, 38, 0
3, 2640, Note_on_c, 9, 35, 115
3, 2649, Note_on_c, 9, 35, 0
3, 2688, Note_on_c, 9, 42, 105
3, 2688, Note_on_c, 9, 35, 115
3, 2697, Note_on_c, 9, 42, 0
3, 2697, Note_on_c, 9, 35, 0
3, 2784, Note_on_c, 9, 42, 105
3, 2784, Note_on_c, 9, 38, 100
3, 2793, Note_on_c, 9, 42, 0
3, 2793, Note_on_c, 9, 38, 0
3, 2880, Note_on_c, 9, 42, 105
3, 2880, Note_on_c, 9, 35, 115
3, 2889, Note_on_c, 9, 42, 0
3, 2889, Note_on_c, 9, 35, 0
3, 2928, Note_on_c, 9, 35, 115
3, 2937, Note_on_c, 9, 35, 0
3, 2976, Note_on_c, 9, 42, 105
3, 2976, Note_on_c, 9, 38, 100
3, 2985, Note_on_c, 9, 42, 0
3, 2985, Note_on_c, 9, 38, 0
3, 3024, Note_on_c, 9, 35, 115
3, 3033, Note_on_c, 9, 35, 0
3, 3072, Note_on_c, 9, 42, 105
3, 3072, Note_on_c, 9, 35, 115
3, 3081, Note_on_c, 9, 42, 0
3, 3081, Note_on_c, 9, 35, 0
3, 3168, Note_on_c, 9, 42, 105
3, 3168, Note_on_c, 9, 38, 100
3, 3177, Note_on_c, 9, 42, 0
3, 3177, Note_on_c, 9, 38, 0
3, 3264, Note_on_c, 9, 42, 105
3, 3264, Note_on_c, 9, 35, 115
3, 3273, Note_on_c, 9, 42, 0
3, 3273, Note_on_c, 9, 35, 0
3, 3312, Note_on_c, 9, 35, 115
3, 3321, Note_on_c, 9, 35, 0
3, 3360, Note_on_c, 9, 42, 105
3, 3360, Note_on_c, 9, 38, 100
3, 3369, Note_on_c, 9, 42, 0
3, 3369, Note_on_c, 9, 38, 0
3, 3408, Note_on_c, 9, 35, 115
3, 3417, Note_on_c, 9, 35, 0
3, 3456, Note_on_c, 9, 42, 105
3, 3456, Note_on_c, 9, 35, 115
3, 3465, Note_on_c, 9, 42, 0
3, 3465, Note_on_c, 9, 35, 0
3, 3552, Note_on_c, 9, 42, 105
3, 3552, Note_on_c, 9, 38, 100
3, 3561, Note_on_c, 9, 42, 0
3, 3561, Note_on_c, 9, 38, 0
3, 3648, Note_on_c, 9, 42, 105
3, 3648, Note_on_c, 9, 35, 115
3, 3657, Note_on_c, 9, 42, 0
3, 3657, Note_on_c, 9, 35, 0
3, 3696, Note_on_c, 9, 35, 115
3, 3705, Note_on_c, 9, 35, 0
3, 3744, Note_on_c, 9, 42, 105
3, 3744, Note_on_c, 9, 38, 100
3, 3753, Note_on_c, 9, 42, 0
3, 3753, Note_on_c, 9, 38, 0
3, 3792, Note_on_c, 9, 35, 115
3, 3801, Note_on_c, 9, 35, 0
3, 3840, Note_on_c, 9, 42, 105
3, 3840, Note_on_c, 9, 35, 115
3, 3849, Note_on_c, 9, 42, 0
3, 3849, Note_on_c, 9, 35, 0
3, 3936, Note_on_c, 9, 42, 105
3, 3936, Note_on_c, 9, 38, 100
3, 3945, Note_on_c, 9, 42, 0
3, 3945, Note_on_c, 9, 38, 0
3, 4032, Note_on_c, 9, 42, 105
3, 4032, Note_on_c, 9, 35, 115
3, 4041, Note_on_c, 9, 42, 0
3, 4041, Note_on_c, 9, 35, 0
3, 4080, Note_on_c, 9, 35, 115
3, 4089, Note_on_c, 9, 35, 0
3, 4128, Note_on_c, 9, 42, 105
3, 4128, Note_on_c, 9, 38, 100
3, 4137, Note_on_c, 9, 42, 0
3, 4137, Note_on_c, 9, 38, 0
3, 4176, Note_on_c, 9, 35, 115
3, 4185, Note_on_c, 9, 35, 0
3, 4224, Note_on_c, 9, 42, 105
3, 4224, Note_on_c, 9, 35, 115
3, 4233, Note_on_c, 9, 42, 0
3, 4233, Note_on_c, 9, 35, 0
3, 4320, Note_on_c, 9, 42, 105
3, 4320, Note_on_c, 9, 38, 100
3, 4329, Note_on_c, 9, 42, 0
3, 4329, Note_on_c, 9, 38, 0
3, 4416, Note_on_c, 9, 42, 105
3, 4416, Note_on_c, 9, 35, 115
3, 4425, Note_on_c, 9, 42, 0
3, 4425, Note_on_c, 9, 35, 0
3, 4464, Note_on_c, 9, 35, 115
3, 4473, Note_on_c, 9, 35, 0
3, 4512, Note_on_c, 9, 42, 105
3, 4512, Note_on_c, 9, 38, 100
3, 4521, Note_on_c, 9, 42, 0
3, 4521, Note_on_c, 9, 38, 0
3, 4560, Note_on_c, 9, 35, 115
3, 4569, Note_on_c, 9, 35, 0
3, 4608, Note_on_c, 9, 42, 105
3, 4608, Note_on_c, 9, 54, 115
3, 4608, Note_on_c, 9, 35, 115
3, 4617, Note_on_c, 9, 42, 0
3, 4617, Note_on_c, 9, 54, 0
3, 4617, Note_on_c, 9, 35, 0
3, 4704, Note_on_c, 9, 42, 105
3, 4704, Note_on_c, 9, 54, 115
3, 4704, Note_on_c, 9, 38, 100
3, 4713, Note_on_c, 9, 42, 0
3, 4713, Note_on_c, 9, 54, 0
3, 4713, Note_on_c, 9, 38, 0
3, 4776, Note_on_c, 9, 54, 60
3, 4785, Note_on_c, 9, 54, 0
3, 4800, Note_on_c, 9, 42, 105
3, 4800, Note_on_c, 9, 54, 115
3, 4800, Note_on_c, 9, 35, 115
3, 4809, Note_on_c, 9, 42, 0
3, 4809, Note_on_c, 9, 54, 0
3, 4809, Note_on_c, 9, 35, 0
3, 4848, Note_on_c, 9, 54, 80
3, 4848, Note_on_c, 9, 35, 115
3, 4857, Note_on_c, 9, 54, 0
3, 4857, Note_on_c, 9, 35, 0
3, 4896, Note_on_c, 9, 42, 105
3, 4896, Note_on_c, 9, 54, 115
3, 4896, Note_on_c, 9, 38, 100
3, 4905, Note_on_c, 9, 42, 0
3, 4905, Note_on_c, 9, 54, 0
3, 4905, Note_on_c, 9, 38, 0
3, 4944, Note_on_c, 9, 54, 80
3, 4953, Note_on_c, 9, 54, 0
3, 4992, Note_on_c, 9, 42, 105
3, 4992, Note_on_c, 9, 54, 115
3, 4992, Note_on_c, 9, 35, 115
3, 5001, Note_on_c, 9, 42, 0
3, 5001, Note_on_c, 9, 54, 0
3, 5001, Note_on_c, 9, 35, 0
3, 5016, Note_on_c, 9, 54, 60
3, 5025, Note_on_c, 9, 54, 0
3, 5040, Note_on_c, 9, 54, 80
3, 5049, Note_on_c, 9, 54, 0
3, 5064, Note_on_c, 9, 54, 60
3, 5073, Note_on_c, 9, 54, 0
3, 5088, Note_on_c, 9, 42, 105
3, 5088, Note_on_c, 9, 54, 115
3, 5088, Note_on_c, 9, 38, 100
3, 5097, Note_on_c, 9, 42, 0
3, 5097, Note_on_c, 9, 54, 0
3, 5097, Note_on_c, 9, 38, 0
3, 5112, Note_on_c, 9, 54, 60
3, 5121, Note_on_c, 9, 54, 0
3, 5136, Note_on_c, 9, 54, 80
3, 5145, Note_on_c, 9, 54, 0
3, 5160, Note_on_c, 9, 54, 60
3, 5169, Note_on_c, 9, 54, 0
3, 5184, Note_on_c, 9, 42, 105
3, 5184, Note_on_c, 9, 54, 115
3, 5184, Note_on_c, 9, 35, 115
3, 5193, Note_on_c, 9, 42, 0
3, 5193, Note_on_c, 9, 54, 0
3, 5193, Note_on_c, 9, 35, 0
3, 5208, Note_on_c, 9, 54, 60
3, 5217, Note_on_c, 9, 54, 0
3, 5232, Note_on_c, 9, 54, 80
3, 5232, Note_on_c, 9, 35, 115
3, 5241, Note_on_c, 9, 54, 0
3, 5241, Note_on_c, 9, 35, 0
3, 5256, Note_on_c, 9, 54, 60
3, 5265, Note_on_c, 9, 54, 0
3, 5280, Note_on_c, 9, 42, 105
3, 5280, Note_on_c, 9, 54, 115
3, 5280, Note_on_c, 9, 38, 100
3, 5289, Note_on_c, 9, 42, 0
3, 5289, Note_on_c, 9, 54, 0
3, 5289, Note_on_c, 9, 38, 0
3, 5304, Note_on_c, 9, 54, 60
3, 5313, Note_on_c, 9, 54, 0
3, 5328, Note_on_c, 9, 54, 80
3, 5328, Note_on_c, 9, 35, 115
3, 5337, Note_on_c, 9, 54, 0
3, 5337, Note_on_c, 9, 35, 0
3, 5352, Note_on_c, 9, 54, 60
3, 5361, Note_on_c, 9, 54, 0
3, 5376, Note_on_c, 9, 42, 105
3, 5376, Note_on_c, 9, 35, 115
3, 5385, Note_on_c, 9, 42, 0
3, 5385, Note_on_c, 9, 35, 0
3, 5472, Note_on_c, 9, 42, 105
3, 5472, Note_on_c, 9, 38, 100
3, 5481, Note_on_c, 9, 42, 0
3, 5481, Note_on_c, 9, 38, 0
3, 5568, Note_on_c, 9, 42, 105
3, 5568, Note_on_c, 9, 54, 115
3, 5568, Note_on_c, 9, 35, 115
3, 5577, Note_on_c, 9, 42, 0
3, 5577, Note_on_c, 9, 54, 0
3, 5577, Note_on_c, 9, 35, 0
3, 5616, Note_on_c, 9, 54, 80
3, 5616, Note_on_c, 9, 35, 115
3, 5625, Note_on_c, 9, 54, 0
3, 5625, Note_on_c, 9, 35, 0
3, 5664, Note_on_c, 9, 42, 105
3, 5664, Note_on_c, 9, 54, 115
3, 5664, Note_on_c, 9, 38, 100
3, 5673, Note_on_c, 9, 42, 0
3, 5673, Note_on_c, 9, 54, 0
3, 5673, Note_on_c, 9, 38, 0
3, 5712, Note_on_c, 9, 54, 80
3, 5712, Note_on_c, 9, 35, 115
3, 5721, Note_on_c, 9, 54, 0
3, 5721, Note_on_c, 9, 35, 0
3, 5760, Note_on_c, 9, 42, 105
3, 5760, Note_on_c, 9, 54, 115
3, 5760, Note_on_c, 9, 35, 115
3, 5769, Note_on_c, 9, 42, 0
3, 5769, Note_on_c, 9, 54, 0
3, 5769, Note_on_c, 9, 35, 0
3, 5784, Note_on_c, 9, 54, 60
3, 5793, Note_on_c, 9, 54, 0
3, 5808, Note_on_c, 9, 54, 80
3, 5817, Note_on_c, 9, 54, 0
3, 5832, Note_on_c, 9, 54, 60
3, 5841, Note_on_c, 9, 54, 0
3, 5856, Note_on_c, 9, 42, 105
3, 5856, Note_on_c, 9, 54, 115
3, 5856, Note_on_c, 9, 38, 100
3, 5865, Note_on_c, 9, 42, 0
3, 5865, Note_on_c, 9, 54, 0
3, 5865, Note_on_c, 9, 38, 0
3, 5880, Note_on_c, 9, 54, 60
3, 5889, Note_on_c, 9, 54, 0
3, 5904, Note_on_c, 9, 54, 80
3, 5913, Note_on_c, 9, 54, 0
3, 5928, Note_on_c, 9, 54, 60
3, 5937, Note_on_c, 9, 54, 0
3, 5952, Note_on_c, 9, 42, 105
3, 5952, Note_on_c, 9, 54, 115
3, 5952, Note_on_c, 9, 35, 115
3, 5961, Note_on_c, 9, 42, 0
3, 5961, Note_on_c, 9, 54, 0
3, 5961, Note_on_c, 9, 35, 0
3, 5976, Note_on_c, 9, 54, 60
3, 5985, Note_on_c, 9, 54, 0
3, 6000, Note_on_c, 9, 54, 80
3, 6000, Note_on_c, 9, 35, 115
3, 6009, Note_on_c, 9, 54, 0
3, 6009, Note_on_c, 9, 35, 0
3, 6024, Note_on_c, 9, 54, 60
3, 6033, Note_on_c, 9, 54, 0
3, 6048, Note_on_c, 9, 42, 105
3, 6048, Note_on_c, 9, 54, 115
3, 6048, Note_on_c, 9, 38, 100
3, 6057, Note_on_c, 9, 42, 0
3, 6057, Note_on_c, 9, 54, 0
3, 6057, Note_on_c, 9, 38, 0
3, 6072, Note_on_c, 9, 54, 60
3, 6081, Note_on_c, 9, 54, 0
3, 6096, Note_on_c, 9, 54, 80
3, 6096, Note_on_c, 9, 35, 115
3, 6105, Note_on_c, 9, 54, 0
3, 6105, Note_on_c, 9, 35, 0
3, 6120, Note_on_c, 9, 54, 60
3, 6129, Note_on_c, 9, 54, 0
3, 6144, Note_on_c, 9, 42, 105
3, 6144, Note_on_c, 9, 54, 115
3, 6144, Note_on_c, 9, 35, 115
3, 6153, Note_on_c, 9, 42, 0
3, 6153, Note_on_c, 9, 54, 0
3, 6153, Note_on_c, 9, 35, 0
3, 6168, Note_on_c, 9, 54, 60
3, 6177, Note_on_c, 9, 54, 0
3, 6192, Note_on_c, 9, 54, 80
3, 6201, Note_on_c, 9, 54, 0
3, 6216, Note_on_c, 9, 54, 60
3, 6225, Note_on_c, 9, 54, 0
3, 6240, Note_on_c, 9, 42, 105
3, 6240, Note_on_c, 9, 54, 115
3, 6240, Note_on_c, 9, 38, 100
3, 6249, Note_on_c, 9, 42, 0
3, 6249, Note_on_c, 9, 54, 0
3, 6249, Note_on_c, 9, 38, 0
3, 6264, Note_on_c, 9, 54, 60
3, 6273, Note_on_c, 9, 54, 0
3, 6288, Note_on_c, 9, 54, 80
3, 6297, Note_on_c, 9, 54, 0
3, 6312, Note_on_c, 9, 54, 60
3, 6321, Note_on_c, 9, 54, 0
3, 6336, Note_on_c, 9, 42, 105
3, 6336, Note_on_c, 9, 54, 115
3, 6336, Note_on_c, 9, 35, 115
3, 6345, Note_on_c, 9, 42, 0
3, 6345, Note_on_c, 9, 54, 0
3, 6345, Note_on_c, 9, 35, 0
3, 6360, Note_on_c, 9, 54, 60
3, 6369, Note_on_c, 9, 54, 0
3, 6384, Note_on_c, 9, 54, 80
3, 6384, Note_on_c, 9, 35, 115
3, 6393, Note_on_c, 9, 54, 0
3, 6393, Note_on_c, 9, 35, 0
3, 6408, Note_on_c, 9, 54, 60
3, 6417, Note_on_c, 9, 54, 0
3, 6432, Note_on_c, 9, 42, 105
3, 6432, Note_on_c, 9, 54, 115
3, 6432, Note_on_c, 9, 38, 100
3, 6441, Note_on_c, 9, 42, 0
3, 6441, Note_on_c, 9, 54, 0
3, 6441, Note_on_c, 9, 38, 0
3, 6456, Note_on_c, 9, 54, 60
3, 6465, Note_on_c, 9, 54, 0
3, 6480, Note_on_c, 9, 54, 80
3, 6480, Note_on_c, 9, 35, 115
3, 6489, Note_on_c, 9, 54, 0
3, 6489, Note_on_c, 9, 35, 0
3, 6504, Note_on_c, 9, 54, 60
3, 6513, Note_on_c, 9, 54, 0
3, 6528, Note_on_c, 9, 42, 105
3, 6528, Note_on_c, 9, 54, 115
3, 6528, Note_on_c, 9, 35, 115
3, 6537, Note_on_c, 9, 42, 0
3, 6537, Note_on_c, 9, 54, 0
3, 6537, Note_on_c, 9, 35, 0
3, 6552, Note_on_c, 9, 54, 60
3, 6561, Note_on_c, 9, 54, 0
3, 6576, Note_on_c, 9, 54, 80
3, 6585, Note_on_c, 9, 54, 0
3, 6600, Note_on_c, 9, 54, 60
3, 6609, Note_on_c, 9, 54, 0
3, 6624, Note_on_c, 9, 42, 105
3, 6624, Note_on_c, 9, 54, 115
3, 6624, Note_on_c, 9, 38, 100
3, 6633, Note_on_c, 9, 42, 0
3, 6633, Note_on_c, 9, 54, 0
3, 6633, Note_on_c, 9, 38, 0
3, 6648, Note_on_c, 9, 54, 60
3, 6657, Note_on_c, 9, 54, 0
3, 6672, Note_on_c, 9, 54, 80
3, 6681, Note_on_c, 9, 54, 0
3, 6696, Note_on_c, 9, 54, 60
3, 6705, Note_on_c, 9, 54, 0
3, 6720, Note_on_c, 9, 42, 105
3, 6720, Note_on_c, 9, 54, 115
3, 6720, Note_on_c, 9, 35, 115
3, 6729, Note_on_c, 9, 42, 0
3, 6729, Note_on_c, 9, 54, 0
3, 6729, Note_on_c, 9, 35, 0
3, 6744, Note_on_c, 9, 54, 60
3, 6753, Note_on_c, 9, 54, 0
3, 6768, Note_on_c, 9, 54, 80
3, 6768, Note_on_c, 9, 35, 115
3, 6777, Note_on_c, 9, 54, 0
3, 6777, Note_on_c, 9, 35, 0
3, 6792, Note_on_c, 9, 54, 60
3, 6801, Note_on_c, 9, 54, 0
3, 6816, Note_on_c, 9, 42, 105
3, 6816, Note_on_c, 9, 54, 115
3, 6816, Note_on_c, 9, 38, 100
3, 6825, Note_on_c, 9, 42, 0
3, 6825, Note_on_c, 9, 54, 0
3, 6825, Note_on_c, 9, 38, 0
3, 6840, Note_on_c, 9, 54, 60
3, 6849, Note_on_c, 9, 54, 0
3, 6864, Note_on_c, 9, 54, 80
3, 6864, Note_on_c, 9, 35, 115
3, 6873, Note_on_c, 9, 54, 0
3, 6873, Note_on_c, 9, 35, 0
3, 6888, Note_on_c, 9, 54, 60
3, 6897, Note_on_c, 9, 54, 0
3, 6912, Note_on_c, 9, 42, 105
3, 6912, Note_on_c, 9, 54, 115
3, 6912, Note_on_c, 9, 35, 115
3, 6921, Note_on_c, 9, 42, 0
3, 6921, Note_on_c, 9, 54, 0
3, 6921, Note_on_c, 9, 35, 0
3, 6936, Note_on_c, 9, 54, 60
3, 6945, Note_on_c, 9, 54, 0
3, 6960, Note_on_c, 9, 54, 80
3, 6969, Note_on_c, 9, 54, 0
3, 6984, Note_on_c, 9, 54, 60
3, 6993, Note_on_c, 9, 54, 0
3, 7008, Note_on_c, 9, 42, 105
3, 7008, Note_on_c, 9, 54, 115
3, 7008, Note_on_c, 9, 38, 100
3, 7017, Note_on_c, 9, 42, 0
3, 7017, Note_on_c, 9, 54, 0
3, 7017, Note_on_c, 9, 38, 0
3, 7032, Note_on_c, 9, 54, 60
3, 7041, Note_on_c, 9, 54, 0
3, 7056, Note_on_c, 9, 54, 80
3, 7065, Note_on_c, 9, 54, 0
3, 7080, Note_on_c, 9, 54, 60
3, 7089, Note_on_c, 9, 54, 0
3, 7104, Note_on_c, 9, 42, 105
3, 7104, Note_on_c, 9, 54, 115
3, 7104, Note_on_c, 9, 35, 115
3, 7113, Note_on_c, 9, 42, 0
3, 7113, Note_on_c, 9, 54, 0
3, 7113, Note_on_c, 9, 35, 0
3, 7128, Note_on_c, 9, 54, 60
3, 7137, Note_on_c, 9, 54, 0
3, 7152, Note_on_c, 9, 54, 80
3, 7152, Note_on_c, 9, 35, 115
3, 7161, Note_on_c, 9, 54, 0
3, 7161, Note_on_c, 9, 35, 0
3, 7176, Note_on_c, 9, 54, 60
3, 7185, Note_on_c, 9, 54, 0
3, 7200, Note_on_c, 9, 42, 105
3, 7200, Note_on_c, 9, 54, 115
3, 7200, Note_on_c, 9, 38, 100
3, 7209, Note_on_c, 9, 42, 0
3, 7209, Note_on_c, 9, 54, 0
3, 7209, Note_on_c, 9, 38, 0
3, 7224, Note_on_c, 9, 54, 60
3, 7233, Note_on_c, 9, 54, 0
3, 7248, Note_on_c, 9, 54, 80
3, 7248, Note_on_c, 9, 35, 115
3, 7257, Note_on_c, 9, 54, 0
3, 7257, Note_on_c, 9, 35, 0
3, 7272, Note_on_c, 9, 54, 60
3, 7281, Note_on_c, 9, 54, 0
3, 7296, Note_on_c, 9, 54, 115
3, 7296, Note_on_c, 9, 35, 115
3, 7296, Note_on_c, 9, 49, 100
3, 7305, Note_on_c, 9, 54, 0
3, 7305, Note_on_c, 9, 35, 0
3, 7305, Note_on_c, 9, 49, 0
3, 7320, Note_on_c, 9, 54, 60
3, 7329, Note_on_c, 9, 54, 0
3, 7344, Note_on_c, 9, 54, 80
3, 7353, Note_on_c, 9, 54, 0
3, 7368, Note_on_c, 9, 54, 60
3, 7377, Note_on_c, 9, 54, 0
3, 7392, Note_on_c, 9, 42, 105
3, 7392, Note_on_c, 9, 54, 115
3, 7392, Note_on_c, 9, 38, 100
3, 7401, Note_on_c, 9, 42, 0
3, 7401, Note_on_c, 9, 54, 0
3, 7401, Note_on_c, 9, 38, 0
3, 7416, Note_on_c, 9, 54, 60
3, 7425, Note_on_c, 9, 54, 0
3, 7440, Note_on_c, 9, 54, 80
3, 7449, Note_on_c, 9, 54, 0
3, 7464, Note_on_c, 9, 54, 60
3, 7473, Note_on_c, 9, 54, 0
3, 7488, Note_on_c, 9, 42, 105
3, 7488, Note_on_c, 9, 54, 115
3, 7488, Note_on_c, 9, 35, 115
3, 7497, Note_on_c, 9, 42, 0
3, 7497, Note_on_c, 9, 54, 0
3, 7497, Note_on_c, 9, 35, 0
3, 7512, Note_on_c, 9, 54, 60
3, 7521, Note_on_c, 9, 54, 0
3, 7536, Note_on_c, 9, 54, 80
3, 7536, Note_on_c, 9, 35, 115
3, 7545, Note_on_c, 9, 54, 0
3, 7545, Note_on_c, 9, 35, 0
3, 7560, Note_on_c, 9, 54, 60
3, 7569, Note_on_c, 9, 54, 0
3, 7584, Note_on_c, 9, 42, 105
3, 7584, Note_on_c, 9, 54, 115
3, 7584, Note_on_c, 9, 38, 100
3, 7593, Note_on_c, 9, 42, 0
3, 7593, Note_on_c, 9, 54, 0
3, 7593, Note_on_c, 9, 38, 0
3, 7608, Note_on_c, 9, 54, 60
3, 7617, Note_on_c, 9, 54, 0
3, 7632, Note_on_c, 9, 54, 80
3, 7632, Note_on_c, 9, 35, 115
3, 7641, Note_on_c, 9, 54, 0
3, 7641, Note_on_c, 9, 35, 0
3, 7656, Note_on_c, 9, 54, 60
3, 7665, Note_on_c, 9, 54, 0
3, 7680, Note_on_c, 9, 42, 105
3, 7680, Note_on_c, 9, 54, 115
3, 7680, Note_on_c, 9, 35, 115
3, 7689, Note_on_c, 9, 42, 0
3, 7689, Note_on_c, 9, 54, 0
3, 7689, Note_on_c, 9, 35, 0
3, 7704, Note_on_c, 9, 54, 60
3, 7713, Note_on_c, 9, 54, 0
3, 7728, Note_on_c, 9, 54, 80
3, 7737, Note_on_c, 9, 54, 0
3, 7752, Note_on_c, 9, 54, 60
3, 7761, Note_on_c, 9, 54, 0
3, 7776, Note_on_c, 9, 42, 105
3, 7776, Note_on_c, 9, 54, 115
3, 7776, Note_on_c, 9, 38, 100
3, 7785, Note_on_c, 9, 42, 0
3, 7785, Note_on_c, 9, 54, 0
3, 7785, Note_on_c, 9, 38, 0
3, 7800, Note_on_c, 9, 54, 60
3, 7809, Note_on_c, 9, 54, 0
3, 7824, Note_on_c, 9, 54, 80
3, 7833, Note_on_c, 9, 54, 0
3, 7848, Note_on_c, 9, 54, 60
3, 7857, Note_on_c, 9, 54, 0
3, 7872, Note_on_c, 9, 42, 105
3, 7872, Note_on_c, 9, 54, 115
3, 7872, Note_on_c, 9, 35, 115
3, 7881, Note_on_c, 9, 42, 0
3, 7881, Note_on_c, 9, 54, 0
3, 7881, Note_on_c, 9, 35, 0
3, 7896, Note_on_c, 9, 54, 60
3, 7905, Note_on_c, 9, 54, 0
3, 7920, Note_on_c, 9, 54, 80
3, 7920, Note_on_c, 9, 35, 115
3, 7929, Note_on_c, 9, 54, 0
3, 7929, Note_on_c, 9, 35, 0
3, 7944, Note_on_c, 9, 54, 60
3, 7953, Note_on_c, 9, 54, 0
3, 7968, Note_on_c, 9, 42, 105
3, 7968, Note_on_c, 9, 54, 115
3, 7968, Note_on_c, 9, 38, 100
3, 7977, Note_on_c, 9, 42, 0
3, 7977, Note_on_c, 9, 54, 0
3, 7977, Note_on_c, 9, 38, 0
3, 7992, Note_on_c, 9, 54, 60
3, 8001, Note_on_c, 9, 54, 0
3, 8016, Note_on_c, 9, 54, 80
3, 8016, Note_on_c, 9, 35, 115
3, 8016, Note_on_c, 9, 46, 90
3, 8025, Note_on_c, 9, 54, 0
3, 8025, Note_on_c, 9, 35, 0
3, 8025, Note_on_c, 9, 46, 0
3, 8040, Note_on_c, 9, 54, 60
3, 8049, Note_on_c, 9, 54, 0
3, 8064, Note_on_c, 9, 42, 105
3, 8064, Note_on_c, 9, 54, 115
3, 8064, Note_on_c, 9, 35, 115
3, 8073, Note_on_c, 9, 42, 0
3, 8073, Note_on_c, 9, 54, 0
3, 8073, Note_on_c, 9, 35, 0
3, 8088, Note_on_c, 9, 54, 60
3, 8097, Note_on_c, 9, 54, 0
3, 8112, Note_on_c, 9, 42, 90
3, 8112, Note_on_c, 9, 54, 80
3, 8121, Note_on_c, 9, 42, 0
3, 8121, Note_on_c, 9, 54, 0
3, 8136, Note_on_c, 9, 54, 60
3, 8145, Note_on_c, 9, 54, 0
3, 8160, Note_on_c, 9, 42, 105
3, 8160, Note_on_c, 9, 54, 115
3, 8160, Note_on_c, 9, 38, 100
3, 8169, Note_on_c, 9, 42, 0
3, 8169, Note_on_c, 9, 54, 0
3, 8169, Note_on_c, 9, 38, 0
3, 8184, Note_on_c, 9, 54, 60
3, 8193, Note_on_c, 9, 54, 0
3, 8208, Note_on_c, 9, 54, 80
3, 8208, Note_on_c, 9, 46, 90
3, 8217, Note_on_c, 9, 54, 0
3, 8217, Note_on_c, 9, 46, 0
3, 8232, Note_on_c, 9, 54, 60
3, 8241, Note_on_c, 9, 54, 0
3, 8256, Note_on_c, 9, 42, 105
3, 8256, Note_on_c, 9, 54, 115
3, 8256, Note_on_c, 9, 35, 115
3, 8265, Note_on_c, 9, 42, 0
3, 8265, Note_on_c, 9, 54, 0
3, 8265, Note_on_c, 9, 35, 0
3, 8280, Note_on_c, 9, 54, 60
3, 8289, Note_on_c, 9, 54, 0
3, 8304, Note_on_c, 9, 42, 90
3, 8304, Note_on_c, 9, 54, 80
3, 8304, Note_on_c, 9, 35, 115
3, 8313, Note_on_c, 9, 42, 0
3, 8313, Note_on_c, 9, 54, 0
3, 8313, Note_on_c, 9, 35, 0
3, 8328, Note_on_c, 9, 54, 60
3, 8337, Note_on_c, 9, 54, 0
3, 8352, Note_on_c, 9, 42, 105
3, 8352, Note_on_c, 9, 54, 115
3, 8352, Note_on_c, 9, 38, 100
3, 8361, Note_on_c, 9, 42, 0
3, 8361, Note_on_c, 9, 54, 0
3, 8361, Note_on_c, 9, 38, 0
3, 8376, Note_on_c, 9, 54, 60
3, 8385, Note_on_c, 9, 54, 0
3, 8400, Note_on_c, 9, 54, 80
3, 8400, Note_on_c, 9, 46, 90
3, 8409, Note_on_c, 9, 54, 0
3, 8409, Note_on_c, 9, 46, 0
3, 8424, Note_on_c, 9, 54, 60
3, 8433, Note_on_c, 9, 54, 0
3, 8448, Note_on_c, 9, 42, 105
3, 8448, Note_on_c, 9, 54, 115
3, 8448, Note_on_c, 9, 35, 115
3, 8457, Note_on_c, 9, 42, 0
3, 8457, Note_on_c, 9, 54, 0
3, 8457, Note_on_c, 9, 35, 0
3, 8472, Note_on_c, 9, 54, 60
3, 8481, Note_on_c, 9, 54, 0
3, 8496, Note_on_c, 9, 42, 90
3, 8496, Note_on_c, 9, 54, 80
3, 8505, Note_on_c, 9, 42, 0
3, 8505, Note_on_c, 9, 54, 0
3, 8520, Note_on_c, 9, 54, 60
3, 8529, Note_on_c, 9, 54, 0
3, 8544, Note_on_c, 9, 42, 105
3, 8544, Note_on_c, 9, 54, 115
3, 8544, Note_on_c, 9, 38, 100
3, 8553, Note_on_c, 9, 42, 0
3, 8553, Note_on_c, 9, 54, 0
3, 8553, Note_on_c, 9, 38, 0
3, 8568, Note_on_c, 9, 54, 60
3, 8577, Note_on_c, 9, 54, 0
3, 8592, Note_on_c, 9, 54, 80
3, 8592, Note_on_c, 9, 46, 90
3, 8601, Note_on_c, 9, 54, 0
3, 8601, Note_on_c, 9, 46, 0
3, 8616, Note_on_c, 9, 54, 60
3, 8625, Note_on_c, 9, 54, 0
3, 8640, Note_on_c, 9, 42, 105
3, 8640, Note_on_c, 9, 54, 115
3, 8640, Note_on_c, 9, 35, 115
3, 8649, Note_on_c, 9, 42, 0
3, 8649, Note_on_c, 9, 54, 0
3, 8649, Note_on_c, 9, 35, 0
3, 8664, Note_on_c, 9, 54, 60
3, 8673, Note_on_c, 9, 54, 0
3, 8688, Note_on_c, 9, 42, 90
3, 8688, Note_on_c, 9, 54, 80
3, 8688, Note_on_c, 9, 35, 115
3, 8697, Note_on_c, 9, 42, 0
3, 8697, Note_on_c, 9, 54, 0
3, 8697, Note_on_c, 9, 35, 0
3, 8712, Note_on_c, 9, 54, 60
3, 8721, Note_on_c, 9, 54, 0
3, 8736, Note_on_c, 9, 42, 105
3, 8736, Note_on_c, 9, 54, 115
3, 8736, Note_on_c, 9, 38, 100
3, 8745, Note_on_c, 9, 42, 0
3, 8745, Note_on_c, 9, 54, 0
3, 8745, Note_on_c, 9, 38, 0
3, 8760, Note_on_c, 9, 54, 60
3, 8769, Note_on_c, 9, 54, 0
3, 8784, Note_on_c, 9, 54, 80
3, 8784, Note_on_c, 9, 46, 90
3, 8793, Note_on_c, 9, 54, 0
3, 8793, Note_on_c, 9, 46, 0
3, 8808, Note_on_c, 9, 54, 60
3, 8817, Note_on_c, 9, 54, 0
3, 8832, Note_on_c, 9, 42, 105
3, 8832, Note_on_c, 9, 54, 115
3, 8832, Note_on_c, 9, 35, 115
3, 8841, Note_on_c, 9, 42, 0
3, 8841, Note_on_c, 9, 54, 0
3, 8841, Note_on_c, 9, 35, 0
3, 8856, Note_on_c, 9, 54, 60
3, 8865, Note_on_c, 9, 54, 0
3, 8880, Note_on_c, 9, 42, 90
3, 8880, Note_on_c, 9, 54, 80
3, 8889, Note_on_c, 9, 42, 0
3, 8889, Note_on_c, 9, 54, 0
3, 8904, Note_on_c, 9, 54, 60
3, 8913, Note_on_c, 9, 54, 0
3, 8928, Note_on_c, 9, 42, 105
3, 8928, Note_on_c, 9, 54, 115
3, 8928, Note_on_c, 9, 38, 100
3, 8937, Note_on_c, 9, 42, 0
3, 8937, Note_on_c, 9, 54, 0
3, 8937, Note_on_c, 9, 38, 0
3, 8952, Note_on_c, 9, 54, 60
3, 8961, Note_on_c, 9, 54, 0
3, 8976, Note_on_c, 9, 54, 80
3, 8976, Note_on_c, 9, 46, 90
3, 8985, Note_on_c, 9, 54, 0
3, 8985, Note_on_c, 9, 46, 0
3, 9000, Note_on_c, 9, 54, 60
3, 9009, Note_on_c, 9, 54, 0
3, 9024, Note_on_c, 9, 42, 105
3, 9024, Note_on_c, 9, 54, 115
3, 9024, Note_on_c, 9, 35, 115
3, 9033, Note_on_c, 9, 42, 0
3, 9033, Note_on_c, 9, 54, 0
3, 9033, Note_on_c, 9, 35, 0
3, 9048, Note_on_c, 9, 54, 60
3, 9057, Note_on_c, 9, 54, 0
3, 9072, Note_on_c, 9, 42, 90
3, 9072, Note_on_c, 9, 54, 80
3, 9072, Note_on_c, 9, 35, 115
3, 9081, Note_on_c, 9, 42, 0
3, 9081, Note_on_c, 9, 54, 0
3, 9081, Note_on_c, 9, 35, 0
3, 9096, Note_on_c, 9, 54, 60
3, 9105, Note_on_c, 9, 54, 0
3, 9120, Note_on_c, 9, 42, 105
3, 9120, Note_on_c, 9, 54, 115
3, 9120, Note_on_c, 9, 38, 100
3, 9129, Note_on_c, 9, 42, 0
3, 9129, Note_on_c, 9, 54, 0
3, 9129, Note_on_c, 9, 38, 0
3, 9144, Note_on_c, 9, 54, 60
3, 9153, Note_on_c, 9, 54, 0
3, 9168, Note_on_c, 9, 54, 80
3, 9168, Note_on_c, 9, 46, 90
3, 9177, Note_on_c, 9, 54, 0
3, 9177, Note_on_c, 9, 46, 0
3, 9192, Note_on_c, 9, 54, 60
3, 9201, Note_on_c, 9, 54, 0
3, 9216, Note_on_c, 9, 42, 105
3, 9216, Note_on_c, 9, 54, 115
3, 9216, Note_on_c, 9, 35, 115
3, 9225, Note_on_c, 9, 42, 0
3, 9225, Note_on_c, 9, 54, 0
3, 9225, Note_on_c, 9, 35, 0
3, 9240, Note_on_c, 9, 54, 60
3, 9249, Note_on_c, 9, 54, 0
3, 9264, Note_on_c, 9, 42, 90
3, 9264, Note_on_c, 9, 54, 80
3, 9273, Note_on_c, 9, 42, 0
3, 9273, Note_on_c, 9, 54, 0
3, 9288, Note_on_c, 9, 54, 60
3, 9297, Note_on_c, 9, 54, 0
3, 9312, Note_on_c, 9, 42, 105
3, 9312, Note_on_c, 9, 54, 115
3, 9312, Note_on_c, 9, 38, 100
3, 9321, Note_on_c, 9, 42, 0
3, 9321, Note_on_c, 9, 54, 0
3, 9321, Note_on_c, 9, 38, 0
3, 9336, Note_on_c, 9, 54, 60
3, 9345, Note_on_c, 9, 54, 0
3, 9360, Note_on_c, 9, 54, 80
3, 9360, Note_on_c, 9, 46, 90
3, 9369, Note_on_c, 9, 54, 0
3, 9369, Note_on_c, 9, 46, 0
3, 9384, Note_on_c, 9, 54, 60
3, 9393, Note_on_c, 9, 54, 0
3, 9408, Note_on_c, 9, 42, 105
3, 9408, Note_on_c, 9, 54, 115
3, 9408, Note_on_c, 9, 35, 115
3, 9417, Note_on_c, 9, 42, 0
3, 9417, Note_on_c, 9, 54, 0
3, 9417, Note_on_c, 9, 35, 0
3, 9432, Note_on_c, 9, 54, 60
3, 9441, Note_on_c, 9, 54, 0
3, 9456, Note_on_c, 9, 42, 90
3, 9456, Note_on_c, 9, 54, 80
3, 9456, Note_on_c, 9, 35, 115
3, 9465, Note_on_c, 9, 42, 0
3, 9465, Note_on_c, 9, 54, 0
3, 9465, Note_on_c, 9, 35, 0
3, 9480, Note_on_c, 9, 54, 60
3, 9489, Note_on_c, 9, 54, 0
3, 9504, Note_on_c, 9, 42, 105
3, 9504, Note_on_c, 9, 54, 115
3, 9504, Note_on_c, 9, 38, 100
3, 9513, Note_on_c, 9, 42, 0
3, 9513, Note_on_c, 9, 54, 0
3, 9513, Note_on_c, 9, 38, 0
3, 9528, Note_on_c, 9, 54, 60
3, 9537, Note_on_c, 9, 54, 0
3, 9552, Note_on_c, 9, 54, 80
3, 9552, Note_on_c, 9, 46, 90
3, 9561, Note_on_c, 9, 54, 0
3, 9561, Note_on_c, 9, 46, 0
3, 9576, Note_on_c, 9, 54, 60
3, 9585, Note_on_c, 9, 54, 0
3, 9600, Note_on_c, 9, 42, 105
3, 9600, Note_on_c, 9, 54, 115
3, 9600, Note_on_c, 9, 35, 115
3, 9609, Note_on_c, 9, 42, 0
3, 9609, Note_on_c, 9, 54, 0
3, 9609, Note_on_c, 9, 35, 0
3, 9624, Note_on_c, 9, 54, 60
3, 9633, Note_on_c, 9, 54, 0
3, 9648, Note_on_c, 9, 42, 90
3, 9648, Note_on_c, 9, 54, 80
3, 9657, Note_on_c, 9, 42, 0
3, 9657, Note_on_c, 9, 54, 0
3, 9672, Note_on_c, 9, 54, 60
3, 9681, Note_on_c, 9, 54, 0
3, 9696, Note_on_c, 9, 42, 105
3, 9696, Note_on_c, 9, 54, 115
3, 9696, Note_on_c, 9, 38, 100
3, 9705, Note_on_c, 9, 42, 0
3, 9705, Note_on_c, 9, 54, 0
3, 9705, Note_on_c, 9, 38, 0
3, 9720, Note_on_c, 9, 54, 60
3, 9729, Note_on_c, 9, 54, 0
3, 9744, Note_on_c, 9, 54, 80
3, 9744, Note_on_c, 9, 46, 90
3, 9753, Note_on_c, 9, 54, 0
3, 9753, Note_on_c, 9, 46, 0
3, 9768, Note_on_c, 9, 54, 60
3, 9777, Note_on_c, 9, 54, 0
3, 9792, Note_on_c, 9, 42, 105
3, 9792, Note_on_c, 9, 54, 115
3, 9792, Note_on_c, 9, 35, 115
3, 9801, Note_on_c, 9, 42, 0
3, 9801, Note_on_c, 9, 54, 0
3, 9801, Note_on_c, 9, 35, 0
3, 9816, Note_on_c, 9, 54, 60
3, 9825, Note_on_c, 9, 54, 0
3, 9840, Note_on_c, 9, 42, 90
3, 9840, Note_on_c, 9, 54, 80
3, 9840, Note_on_c, 9, 35, 115
3, 9849, Note_on_c, 9, 42, 0
3, 9849, Note_on_c, 9, 54, 0
3, 9849, Note_on_c, 9, 35, 0
3, 9864, Note_on_c, 9, 54, 60
3, 9873, Note_on_c, 9, 54, 0
3, 9888, Note_on_c, 9, 42, 105
3, 9888, Note_on_c, 9, 54, 115
3, 9888, Note_on_c, 9, 38, 100
3, 9897, Note_on_c, 9, 42, 0
3, 9897, Note_on_c, 9, 54, 0
3, 9897, Note_on_c, 9, 38, 0
3, 9912, Note_on_c, 9, 54, 60
3, 9921, Note_on_c, 9, 54, 0
3, 9936, Note_on_c, 9, 54, 80
3, 9936, Note_on_c, 9, 46, 90
3, 9945, Note_on_c, 9, 54, 0
3, 9945, Note_on_c, 9, 46, 0
3, 9960, Note_on_c, 9, 54, 60
3, 9969, Note_on_c, 9, 54, 0
3, 9984, Note_on_c, 9, 42, 105
3, 9984, Note_on_c, 9, 54, 115
3, 9984, Note_on_c, 9, 35, 115
3, 9993, Note_on_c, 9, 42, 0
3, 9993, Note_on_c, 9, 54, 0
3, 9993, Note_on_c, 9, 35, 0
3, 10008, Note_on_c, 9, 54, 60
3, 10017, Note_on_c, 9, 54, 0
3, 10032, Note_on_c, 9, 42, 90
3, 10032, Note_on_c, 9, 54, 80
3, 10041, Note_on_c, 9, 42, 0
3, 10041, Note_on_c, 9, 54, 0
3, 10056, Note_on_c, 9, 54, 60
3, 10065, Note_on_c, 9, 54, 0
3, 10080, Note_on_c, 9, 42, 105
3, 10080, Note_on_c, 9, 54, 115
3, 10080, Note_on_c, 9, 38, 100
3, 10089, Note_on_c, 9, 42, 0
3, 10089, Note_on_c, 9, 54, 0
3, 10089, Note_on_c, 9, 38, 0
3, 10104, Note_on_c, 9, 54, 60
3, 10113, Note_on_c, 9, 54, 0
3, 10128, Note_on_c, 9, 54, 80
3, 10128, Note_on_c, 9, 46, 90
3, 10137, Note_on_c, 9, 54, 0
3, 10137, Note_on_c, 9, 46, 0
3, 10152, Note_on_c, 9, 54, 60
3, 10161, Note_on_c, 9, 54, 0
3, 10176, Note_on_c, 9, 42, 105
3, 10176, Note_on_c, 9, 54, 115
3, 10176, Note_on_c, 9, 35, 115
3, 10185, Note_on_c, 9, 42, 0
3, 10185, Note_on_c, 9, 54, 0
3, 10185, Note_on_c, 9, 35, 0
3, 10200, Note_on_c, 9, 54, 60
3, 10209, Note_on_c, 9, 54, 0
3, 10224, Note_on_c, 9, 42, 90
3, 10224, Note_on_c, 9, 54, 80
3, 10224, Note_on_c, 9, 35, 115
3, 10233, Note_on_c, 9, 42, 0
3, 10233, Note_on_c, 9, 54, 0
3, 10233, Note_on_c, 9, 35, 0
3, 10248, Note_on_c, 9, 54, 60
3, 10257, Note_on_c, 9, 54, 0
3, 10272, Note_on_c, 9, 42, 105
3, 10272, Note_on_c, 9, 54, 115
3, 10272, Note_on_c, 9, 38, 100
3, 10281, Note_on_c, 9, 42, 0
3, 10281, Note_on_c, 9, 54, 0
3, 10281, Note_on_c, 9, 38, 0
3, 10296, Note_on_c, 9, 54, 60
3, 10305, Note_on_c, 9, 54, 0
3, 10320, Note_on_c, 9, 54, 80
3, 10320, Note_on_c, 9, 46, 90
3, 10329, Note_on_c, 9, 54, 0
3, 10329, Note_on_c, 9, 46, 0
3, 10344, Note_on_c, 9, 54, 60
3, 10353, Note_on_c, 9, 54, 0
3, 10368, Note_on_c, 9, 42, 105
3, 10368, Note_on_c, 9, 54, 115
3, 10368, Note_on_c, 9, 35, 115
3, 10377, Note_on_c, 9, 42, 0
3, 10377, Note_on_c, 9, 54, 0
3, 10377, Note_on_c, 9, 35, 0
3, 10392, Note_on_c, 9, 54, 60
3, 10401, Note_on_c, 9, 54, 0
3, 10416, Note_on_c, 9, 42, 90
3, 10416, Note_on_c, 9, 54, 80
3, 10425, Note_on_c, 9, 42, 0
3, 10425, Note_on_c, 9, 54, 0
3, 10440, Note_on_c, 9, 54, 60
3, 10449, Note_on_c, 9, 54, 0
3, 10464, Note_on_c, 9, 42, 105
3, 10464, Note_on_c, 9, 54, 115
3, 10464, Note_on_c, 9, 38, 100
3, 10473, Note_on_c, 9, 42, 0
3, 10473, Note_on_c, 9, 54, 0
3, 10473, Note_on_c, 9, 38, 0
3, 10488, Note_on_c, 9, 54, 60
3, 10497, Note_on_c, 9, 54, 0
3, 10512, Note_on_c, 9, 54, 80
3, 10512, Note_on_c, 9, 46, 90
3, 10521, Note_on_c, 9, 54, 0
3, 10521, Note_on_c, 9, 46, 0
3, 10536, Note_on_c, 9, 54, 60
3, 10545, Note_on_c, 9, 54, 0
3, 10560, Note_on_c, 9, 42, 105
3, 10560, Note_on_c, 9, 54, 115
3, 10560, Note_on_c, 9, 35, 115
3, 10569, Note_on_c, 9, 42, 0
3, 10569, Note_on_c, 9, 54, 0
3, 10569, Note_on_c, 9, 35, 0
3, 10584, Note_on_c, 9, 54, 60
3, 10593, Note_on_c, 9, 54, 0
3, 10608, Note_on_c, 9, 42, 90
3, 10608, Note_on_c, 9, 54, 80
3, 10608, Note_on_c, 9, 35, 115
3, 10617, Note_on_c, 9, 42, 0
3, 10617, Note_on_c, 9, 54, 0
3, 10617, Note_on_c, 9, 35, 0
3, 10632, Note_on_c, 9, 54, 60
3, 10641, Note_on_c, 9, 54, 0
3, 10656, Note_on_c, 9, 42, 105
3, 10656, Note_on_c, 9, 54, 115
3, 10656, Note_on_c, 9, 38, 100
3, 10665, Note_on_c, 9, 42, 0
3, 10665, Note_on_c, 9, 54, 0
3, 10665, Note_on_c, 9, 38, 0
3, 10680, Note_on_c, 9, 54, 60
3, 10689, Note_on_c, 9, 54, 0
3, 10704, Note_on_c, 9, 54, 80
3, 10704, Note_on_c, 9, 46, 90
3, 10713, Note_on_c, 9, 54, 0
3, 10713, Note_on_c, 9, 46, 0
3, 10728, Note_on_c, 9, 54, 60
3, 10737, Note_on_c, 9, 54, 0
3, 10752, Note_on_c, 9, 42, 105
3, 10752, Note_on_c, 9, 54, 115
3, 10752, Note_on_c, 9, 35, 115
3, 10761, Note_on_c, 9, 42, 0
3, 10761, Note_on_c, 9, 54, 0
3, 10761, Note_on_c, 9, 35, 0
3, 10776, Note_on_c, 9, 54, 60
3, 10785, Note_on_c, 9, 54, 0
3, 10800, Note_on_c, 9, 42, 90
3, 10800, Note_on_c, 9, 54, 80
3, 10809, Note_on_c, 9, 42, 0
3, 10809, Note_on_c, 9, 54, 0
3, 10824, Note_on_c, 9, 54, 60
3, 10833, Note_on_c, 9, 54, 0
3, 10848, Note_on_c, 9, 42, 105
3, 10848, Note_on_c, 9, 54, 115
3, 10848, Note_on_c, 9, 38, 100
3, 10857, Note_on_c, 9, 42, 0
3, 10857, Note_on_c, 9, 54, 0
3, 10857, Note_on_c, 9, 38, 0
3, 10872, Note_on_c, 9, 54, 60
3, 10881, Note_on_c, 9, 54, 0
3, 10896, Note_on_c, 9, 54, 80
3, 10896, Note_on_c, 9, 46, 90
3, 10905, Note_on_c, 9, 54, 0
3, 10905, Note_on_c, 9, 46, 0
3, 10920, Note_on_c, 9, 54, 60
3, 10929, Note_on_c, 9, 54, 0
3, 10944, Note_on_c, 9, 42, 105
3, 10944, Note_on_c, 9, 54, 115
3, 10944, Note_on_c, 9, 35, 115
3, 10953, Note_on_c, 9, 42, 0
3, 10953, Note_on_c, 9, 54, 0
3, 10953, Note_on_c, 9, 35, 0
3, 10968, Note_on_c, 9, 54, 60
3, 10977, Note_on_c, 9, 54, 0
3, 10992, Note_on_c, 9, 42, 90
3, 10992, Note_on_c, 9, 54, 80
3, 10992, Note_on_c, 9, 35, 115
3, 11001, Note_on_c, 9, 42, 0
3, 11001, Note_on_c, 9, 54, 0
3, 11001, Note_on_c, 9, 35, 0
3, 11016, Note_on_c, 9, 54, 60
3, 11025, Note_on_c, 9, 54, 0
3, 11040, Note_on_c, 9, 42, 105
3, 11040, Note_on_c, 9, 54, 115
3, 11040, Note_on_c, 9, 38, 100
3, 11049, Note_on_c, 9, 42, 0
3, 11049, Note_on_c, 9, 54, 0
3, 11049, Note_on_c, 9, 38, 0
3, 11064, Note_on_c, 9, 54, 60
3, 11073, Note_on_c, 9, 54, 0
3, 11088, Note_on_c, 9, 54, 80
3, 11088, Note_on_c, 9, 46, 90
3, 11097, Note_on_c, 9, 54, 0
3, 11097, Note_on_c, 9, 46, 0
3, 11112, Note_on_c, 9, 54, 60
3, 11121, Note_on_c, 9, 54, 0
3, 11136, Note_on_c, 9, 42, 105
3, 11136, Note_on_c, 9, 54, 115
3, 11136, Note_on_c, 9, 35, 115
3, 11145, Note_on_c, 9, 42, 0
3, 11145, Note_on_c, 9, 54, 0
3, 11145, Note_on_c, 9, 35, 0
3, 11160, Note_on_c, 9, 54, 60
3, 11169, Note_on_c, 9, 54, 0
3, 11184, Note_on_c, 9, 54, 80
3, 11193, Note_on_c, 9, 54, 0
3, 11208, Note_on_c, 9, 54, 60
3, 11217, Note_on_c, 9, 54, 0
3, 11232, Note_on_c, 9, 54, 115
3, 11232, Note_on_c, 9, 38, 100
3, 11232, Note_on_c, 9, 49, 100
3, 11241, Note_on_c, 9, 54, 0
3, 11241, Note_on_c, 9, 38, 0
3, 11241, Note_on_c, 9, 49, 0
3, 11256, Note_on_c, 9, 54, 60
3, 11265, Note_on_c, 9, 54, 0
3, 11280, Note_on_c, 9, 54, 80
3, 11289, Note_on_c, 9, 54, 0
3, 11304, Note_on_c, 9, 54, 60
3, 11313, Note_on_c, 9, 54, 0
3, 11328, Note_on_c, 9, 42, 105
3, 11328, Note_on_c, 9, 54, 115
3, 11328, Note_on_c, 9, 35, 115
3, 11337, Note_on_c, 9, 42, 0
3, 11337, Note_on_c, 9, 54, 0
3, 11337, Note_on_c, 9, 35, 0
3, 11352, Note_on_c, 9, 54, 60
3, 11361, Note_on_c, 9, 54, 0
3, 11376, Note_on_c, 9, 54, 80
3, 11376, Note_on_c, 9, 35, 115
3, 11385, Note_on_c, 9, 54, 0
3, 11385, Note_on_c, 9, 35, 0
3, 11400, Note_on_c, 9, 54, 60
3, 11409, Note_on_c, 9, 54, 0
3, 11424, Note_on_c, 9, 42, 105
3, 11424, Note_on_c, 9, 54, 115
3, 11424, Note_on_c, 9, 38, 100
3, 11433, Note_on_c, 9, 42, 0
3, 11433, Note_on_c, 9, 54, 0
3, 11433, Note_on_c, 9, 38, 0
3, 11448, Note_on_c, 9, 54, 60
3, 11457, Note_on_c, 9, 54, 0
3, 11472, Note_on_c, 9, 54, 80
3, 11481, Note_on_c, 9, 54, 0
3, 11496, Note_on_c, 9, 54, 60
3, 11505, Note_on_c, 9, 54, 0
3, 11520, Note_on_c, 9, 42, 105
3, 11520, Note_on_c, 9, 54, 115
3, 11520, Note_on_c, 9, 35, 115
3, 11529, Note_on_c, 9, 42, 0
3, 11529, Note_on_c, 9, 54, 0
3, 11529, Note_on_c, 9, 35, 0
3, 11544, Note_on_c, 9, 54, 60
3, 11553, Note_on_c, 9, 54, 0
3, 11568, Note_on_c, 9, 54, 80
3, 11577, Note_on_c, 9, 54, 0
3, 11592, Note_on_c, 9, 54, 60
3, 11601, Note_on_c, 9, 54, 0
3, 11616, Note_on_c, 9, 42, 105
3, 11616, Note_on_c, 9, 54, 115
3, 11616, Note_on_c, 9, 38, 100
3, 11625, Note_on_c, 9, 42, 0
3, 11625, Note_on_c, 9, 54, 0
3, 11625, Note_on_c, 9, 38, 0
3, 11640, Note_on_c, 9, 54, 60
3, 11649, Note_on_c, 9, 54, 0
3, 11664, Note_on_c, 9, 54, 80
3, 11673, Note_on_c, 9, 54, 0
3, 11688, Note_on_c, 9, 54, 60
3, 11697, Note_on_c, 9, 54, 0
3, 11712, Note_on_c, 9, 42, 105
3, 11712, Note_on_c, 9, 54, 115
3, 11712, Note_on_c, 9, 35, 115
3, 11721, Note_on_c, 9, 42, 0
3, 11721, Note_on_c, 9, 54, 0
3, 11721, Note_on_c, 9, 35, 0
3, 11736, Note_on_c, 9, 54, 60
3, 11745, Note_on_c, 9, 54, 0
3, 11760, Note_on_c, 9, 54, 80
3, 11760, Note_on_c, 9, 35, 115
3, 11769, Note_on_c, 9, 54, 0
3, 11769, Note_on_c, 9, 35, 0
3, 11784, Note_on_c, 9, 54, 60
3, 11793, Note_on_c, 9, 54, 0
3, 11808, Note_on_c, 9, 42, 105
3, 11808, Note_on_c, 9, 54, 115
3, 11808, Note_on_c, 9, 38, 100
3, 11817, Note_on_c, 9, 42, 0
3, 11817, Note_on_c, 9, 54, 0
3, 11817, Note_on_c, 9, 38, 0
3, 11832, Note_on_c, 9, 54, 60
3, 11841, Note_on_c, 9, 54, 0
3, 11856, Note_on_c, 9, 54, 80
3, 11865, Note_on_c, 9, 54, 0
3, 11880, Note_on_c, 9, 54, 60
3, 11889, Note_on_c, 9, 54, 0
3, 11904, Note_on_c, 9, 42, 105
3, 11904, Note_on_c, 9, 54, 115
3, 11904, Note_on_c, 9, 35, 115
3, 11913, Note_on_c, 9, 42, 0
3, 11913, Note_on_c, 9, 54, 0
3, 11913, Note_on_c, 9, 35, 0
3, 11928, Note_on_c, 9, 54, 60
3, 11937, Note_on_c, 9, 54, 0
3, 11952, Note_on_c, 9, 54, 80
3, 11961, Note_on_c, 9, 54, 0
3, 11976, Note_on_c, 9, 54, 60
3, 11985, Note_on_c, 9, 54, 0
3, 12000, Note_on_c, 9, 42, 105
3, 12000, Note_on_c, 9, 54, 115
3, 12000, Note_on_c, 9, 38, 100
3, 12009, Note_on_c, 9, 42, 0
3, 12009, Note_on_c, 9, 54, 0
3, 12009, Note_on_c, 9, 38, 0
3, 12024, Note_on_c, 9, 54, 60
3, 12033, Note_on_c, 9, 54, 0
3, 12048, Note_on_c, 9, 54, 80
3, 12057, Note_on_c, 9, 54, 0
3, 12072, Note_on_c, 9, 54, 60
3, 12081, Note_on_c, 9, 54, 0
3, 12096, Note_on_c, 9, 42, 105
3, 12096, Note_on_c, 9, 54, 115
3, 12096, Note_on_c, 9, 35, 115
3, 12105, Note_on_c, 9, 42, 0
3, 12105, Note_on_c, 9, 54, 0
3, 12105, Note_on_c, 9, 35, 0
3, 12120, Note_on_c, 9, 54, 60
3, 12129, Note_on_c, 9, 54, 0
3, 12144, Note_on_c, 9, 54, 80
3, 12144, Note_on_c, 9, 35, 115
3, 12153, Note_on_c, 9, 54, 0
3, 12153, Note_on_c, 9, 35, 0
3, 12168, Note_on_c, 9, 54, 60
3, 12177, Note_on_c, 9, 54, 0
3, 12192, Note_on_c, 9, 42, 105
3, 12192, Note_on_c, 9, 54, 115
3, 12192, Note_on_c, 9, 38, 100
3, 12201, Note_on_c, 9, 42, 0
3, 12201, Note_on_c, 9, 54, 0
3, 12201, Note_on_c, 9, 38, 0
3, 12216, Note_on_c, 9, 54, 60
3, 12225, Note_on_c, 9, 54, 0
3, 12240, Note_on_c, 9, 54, 80
3, 12249, Note_on_c, 9, 54, 0
3, 12264, Note_on_c, 9, 54, 60
3, 12273, Note_on_c, 9, 54, 0
3, 12288, Note_on_c, 9, 42, 105
3, 12288, Note_on_c, 9, 54, 115
3, 12288, Note_on_c, 9, 35, 115
3, 12297, Note_on_c, 9, 42, 0
3, 12297, Note_on_c, 9, 54, 0
3, 12297, Note_on_c, 9, 35, 0
3, 12312, Note_on_c, 9, 54, 60
3, 12321, Note_on_c, 9, 54, 0
3, 12336, Note_on_c, 9, 54, 80
3, 12345, Note_on_c, 9, 54, 0
3, 12360, Note_on_c, 9, 54, 60
3, 12369, Note_on_c, 9, 54, 0
3, 12384, Note_on_c, 9, 42, 105
3, 12384, Note_on_c, 9, 54, 115
3, 12384, Note_on_c, 9, 38, 100
3, 12393, Note_on_c, 9, 42, 0
3, 12393, Note_on_c, 9, 54, 0
3, 12393, Note_on_c, 9, 38, 0
3, 12408, Note_on_c, 9, 54, 60
3, 12417, Note_on_c, 9, 54, 0
3, 12432, Note_on_c, 9, 54, 80
3, 12441, Note_on_c, 9, 54, 0
3, 12456, Note_on_c, 9, 54, 60
3, 12465, Note_on_c, 9, 54, 0
3, 12480, Note_on_c, 9, 42, 105
3, 12480, Note_on_c, 9, 54, 115
3, 12480, Note_on_c, 9, 35, 115
3, 12489, Note_on_c, 9, 42, 0
3, 12489, Note_on_c, 9, 54, 0
3, 12489, Note_on_c, 9, 35, 0
3, 12504, Note_on_c, 9, 54, 60
3, 12513, Note_on_c, 9, 54, 0
3, 12528, Note_on_c, 9, 54, 80
3, 12528, Note_on_c, 9, 35, 115
3, 12537, Note_on_c, 9, 54, 0
3, 12537, Note_on_c, 9, 35, 0
3, 12552, Note_on_c, 9, 54, 60
3, 12561, Note_on_c, 9, 54, 0
3, 12576, Note_on_c, 9, 42, 105
3, 12576, Note_on_c, 9, 54, 115
3, 12576, Note_on_c, 9, 38, 100
3, 12585, Note_on_c, 9, 42, 0
3, 12585, Note_on_c, 9, 54, 0
3, 12585, Note_on_c, 9, 38, 0
3, 12600, Note_on_c, 9, 54, 60
3, 12609, Note_on_c, 9, 54, 0
3, 12624, Note_on_c, 9, 54, 80
3, 12633, Note_on_c, 9, 54, 0
3, 12648, Note_on_c, 9, 54, 60
3, 12657, Note_on_c, 9, 54, 0
3, 12672, Note_on_c, 9, 42, 105
3, 12672, Note_on_c, 9, 54, 115
3, 12672, Note_on_c, 9, 35, 115
3, 12681, Note_on_c, 9, 42, 0
3, 12681, Note_on_c, 9, 54, 0
3, 12681, Note_on_c, 9, 35, 0
3, 12696, Note_on_c, 9, 54, 60
3, 12705, Note_on_c, 9, 54, 0
3, 12720, Note_on_c, 9, 54, 80
3, 12729, Note_on_c, 9, 54, 0
3, 12744, Note_on_c, 9, 54, 60
3, 12753, Note_on_c, 9, 54, 0
3, 12768, Note_on_c, 9, 42, 105
3, 12768, Note_on_c, 9, 54, 115
3, 12768, Note_on_c, 9, 38, 100
3, 12777, Note_on_c, 9, 42, 0
3, 12777, Note_on_c, 9, 54, 0
3, 12777, Note_on_c, 9, 38, 0
3, 12792, Note_on_c, 9, 54, 60
3, 12801, Note_on_c, 9, 54, 0
3, 12816, Note_on_c, 9, 54, 80
3, 12825, Note_on_c, 9, 54, 0
3, 12840, Note_on_c, 9, 54, 60
3, 12849, Note_on_c, 9, 54, 0
3, 12864, Note_on_c, 9, 42, 105
3, 12864, Note_on_c, 9, 54, 115
3, 12864, Note_on_c, 9, 35, 115
3, 12873, Note_on_c, 9, 42, 0
3, 12873, Note_on_c, 9, 54, 0
3, 12873, Note_on_c, 9, 35, 0
3, 12888, Note_on_c, 9, 54, 60
3, 12897, Note_on_c, 9, 54, 0
3, 12912, Note_on_c, 9, 54, 80
3, 12912, Note_on_c, 9, 35, 115
3, 12921, Note_on_c, 9, 54, 0
3, 12921, Note_on_c, 9, 35, 0
3, 12936, Note_on_c, 9, 54, 60
3, 12945, Note_on_c, 9, 54, 0
3, 12960, Note_on_c, 9, 42, 105
3, 12960, Note_on_c, 9, 54, 115
3, 12960, Note_on_c, 9, 38, 100
3, 12969, Note_on_c, 9, 42, 0
3, 12969, Note_on_c, 9, 54, 0
3, 12969, Note_on_c, 9, 38, 0
3, 12984, Note_on_c, 9, 54, 60
3, 12993, Note_on_c, 9, 54, 0
3, 13008, Note_on_c, 9, 54, 80
3, 13017, Note_on_c, 9, 54, 0
3, 13032, Note_on_c, 9, 54, 60
3, 13041, Note_on_c, 9, 54, 0
3, 13056, Note_on_c, 9, 42, 105
3, 13056, Note_on_c, 9, 54, 115
3, 13056, Note_on_c, 9, 35, 115
3, 13065, Note_on_c, 9, 42, 0
3, 13065, Note_on_c, 9, 54, 0
3, 13065, Note_on_c, 9, 35, 0
3, 13080, Note_on_c, 9, 54, 60
3, 13089, Note_on_c, 9, 54, 0
3, 13104, Note_on_c, 9, 54, 80
3, 13113, Note_on_c, 9, 54, 0
3, 13128, Note_on_c, 9, 54, 60
3, 13137, Note_on_c, 9, 54, 0
3, 13152, Note_on_c, 9, 42, 105
3, 13152, Note_on_c, 9, 54, 115
3, 13152, Note_on_c, 9, 38, 100
3, 13161, Note_on_c, 9, 42, 0
3, 13161, Note_on_c, 9, 54, 0
3, 13161, Note_on_c, 9, 38, 0
3, 13176, Note_on_c, 9, 54, 60
3, 13185, Note_on_c, 9, 54, 0
3, 13200, Note_on_c, 9, 54, 80
3, 13209, Note_on_c, 9, 54, 0
3, 13224, Note_on_c, 9, 54, 60
3, 13233, Note_on_c, 9, 54, 0
3, 13248, Note_on_c, 9, 42, 105
3, 13248, Note_on_c, 9, 54, 115
3, 13248, Note_on_c, 9, 35, 115
3, 13257, Note_on_c, 9, 42, 0
3, 13257, Note_on_c, 9, 54, 0
3, 13257, Note_on_c, 9, 35, 0
3, 13272, Note_on_c, 9, 54, 60
3, 13281, Note_on_c, 9, 54, 0
3, 13296, Note_on_c, 9, 54, 80
3, 13296, Note_on_c, 9, 35, 115
3, 13305, Note_on_c, 9, 54, 0
3, 13305, Note_on_c, 9, 35, 0
3, 13320, Note_on_c, 9, 54, 60
3, 13329, Note_on_c, 9, 54, 0
3, 13344, Note_on_c, 9, 42, 105
3, 13344, Note_on_c, 9, 54, 115
3, 13344, Note_on_c, 9, 38, 100
3, 13353, Note_on_c, 9, 42, 0
3, 13353, Note_on_c, 9, 54, 0
3, 13353, Note_on_c, 9, 38, 0
3, 13368, Note_on_c, 9, 54, 60
3, 13377, Note_on_c, 9, 54, 0
3, 13392, Note_on_c, 9, 54, 80
3, 13401, Note_on_c, 9, 54, 0
3, 13416, Note_on_c, 9, 54, 60
3, 13425, Note_on_c, 9, 54, 0
3, 13440, Note_on_c, 9, 42, 105
3, 13440, Note_on_c, 9, 54, 115
3, 13440, Note_on_c, 9, 35, 115
3, 13449, Note_on_c, 9, 42, 0
3, 13449, Note_on_c, 9, 54, 0
3, 13449, Note_on_c, 9, 35, 0
3, 13464, Note_on_c, 9, 54, 60
3, 13473, Note_on_c, 9, 54, 0
3, 13488, Note_on_c, 9, 54, 80
3, 13497, Note_on_c, 9, 54, 0
3, 13512, Note_on_c, 9, 54, 60
3, 13521, Note_on_c, 9, 54, 0
3, 13536, Note_on_c, 9, 42, 105
3, 13536, Note_on_c, 9, 54, 115
3, 13536, Note_on_c, 9, 38, 100
3, 13545, Note_on_c, 9, 42, 0
3, 13545, Note_on_c, 9, 54, 0
3, 13545, Note_on_c, 9, 38, 0
3, 13560, Note_on_c, 9, 54, 60
3, 13569, Note_on_c, 9, 54, 0
3, 13584, Note_on_c, 9, 54, 80
3, 13593, Note_on_c, 9, 54, 0
3, 13608, Note_on_c, 9, 54, 60
3, 13617, Note_on_c, 9, 54, 0
3, 13632, Note_on_c, 9, 42, 105
3, 13632, Note_on_c, 9, 54, 115
3, 13632, Note_on_c, 9, 35, 115
3, 13641, Note_on_c, 9, 42, 0
3, 13641, Note_on_c, 9, 54, 0
3, 13641, Note_on_c, 9, 35, 0
3, 13656, Note_on_c, 9, 54, 60
3, 13665, Note_on_c, 9, 54, 0
3, 13680, Note_on_c, 9, 54, 80
3, 13680, Note_on_c, 9, 35, 115
3, 13689, Note_on_c, 9, 54, 0
3, 13689, Note_on_c, 9, 35, 0
3, 13704, Note_on_c, 9, 54, 60
3, 13713, Note_on_c, 9, 54, 0
3, 13728, Note_on_c, 9, 42, 105
3, 13728, Note_on_c, 9, 54, 115
3, 13728, Note_on_c, 9, 38, 100
3, 13737, Note_on_c, 9, 42, 0
3, 13737, Note_on_c, 9, 54, 0
3, 13737, Note_on_c, 9, 38, 0
3, 13752, Note_on_c, 9, 54, 60
3, 13761, Note_on_c, 9, 54, 0
3, 13776, Note_on_c, 9, 54, 80
3, 13785, Note_on_c, 9, 54, 0
3, 13800, Note_on_c, 9, 54, 60
3, 13809, Note_on_c, 9, 54, 0
3, 13824, Note_on_c, 9, 42, 105
3, 13824, Note_on_c, 9, 54, 115
3, 13824, Note_on_c, 9, 35, 115
3, 13833, Note_on_c, 9, 42, 0
3, 13833, Note_on_c, 9, 54, 0
3, 13833, Note_on_c, 9, 35, 0
3, 13848, Note_on_c, 9, 54, 60
3, 13857, Note_on_c, 9, 54, 0
3, 13872, Note_on_c, 9, 54, 80
3, 13881, Note_on_c, 9, 54, 0
3, 13896, Note_on_c, 9, 54, 60
3, 13905, Note_on_c, 9, 54, 0
3, 13920, Note_on_c, 9, 42, 105
3, 13920, Note_on_c, 9, 54, 115
3, 13920, Note_on_c, 9, 38, 100
3, 13929, Note_on_c, 9, 42, 0
3, 13929, Note_on_c, 9, 54, 0
3, 13929, Note_on_c, 9, 38, 0
3, 13944, Note_on_c, 9, 54, 60
3, 13953, Note_on_c, 9, 54, 0
3, 13968, Note_on_c, 9, 54, 80
3, 13977, Note_on_c, 9, 54, 0
3, 13992, Note_on_c, 9, 54, 60
3, 14001, Note_on_c, 9, 54, 0
3, 14016, Note_on_c, 9, 42, 105
3, 14016, Note_on_c, 9, 54, 115
3, 14016, Note_on_c, 9, 35, 115
3, 14025, Note_on_c, 9, 42, 0
3, 14025, Note_on_c, 9, 54, 0
3, 14025, Note_on_c, 9, 35, 0
3, 14040, Note_on_c, 9, 54, 60
3, 14049, Note_on_c, 9, 54, 0
3, 14064, Note_on_c, 9, 54, 80
3, 14064, Note_on_c, 9, 35, 115
3, 14073, Note_on_c, 9, 54, 0
3, 14073, Note_on_c, 9, 35, 0
3, 14088, Note_on_c, 9, 54, 60
3, 14097, Note_on_c, 9, 54, 0
3, 14112, Note_on_c, 9, 42, 105
3, 14112, Note_on_c, 9, 54, 115
3, 14112, Note_on_c, 9, 38, 100
3, 14121, Note_on_c, 9, 42, 0
3, 14121, Note_on_c, 9, 54, 0
3, 14121, Note_on_c, 9, 38, 0
3, 14136, Note_on_c, 9, 54, 60
3, 14145, Note_on_c, 9, 54, 0
3, 14160, Note_on_c, 9, 54, 80
3, 14169, Note_on_c, 9, 54, 0
3, 14184, Note_on_c, 9, 54, 60
3, 14193, Note_on_c, 9, 54, 0
3, 14208, Note_on_c, 9, 42, 105
3, 14208, Note_on_c, 9, 54, 115
3, 14208, Note_on_c, 9, 35, 115
3, 14217, Note_on_c, 9, 42, 0
3, 14217, Note_on_c, 9, 54, 0
3, 14217, Note_on_c, 9, 35, 0
3, 14232, Note_on_c, 9, 54, 60
3, 14241, Note_on_c, 9, 54, 0
3, 14256, Note_on_c, 9, 42, 90
3, 14256, Note_on_c, 9, 54, 80
3, 14265, Note_on_c, 9, 42, 0
3, 14265, Note_on_c, 9, 54, 0
3, 14280, Note_on_c, 9, 54, 60
3, 14289, Note_on_c, 9, 54, 0
3, 14304, Note_on_c, 9, 42, 105
3, 14304, Note_on_c, 9, 54, 115
3, 14304, Note_on_c, 9, 38, 100
3, 14313, Note_on_c, 9, 42, 0
3, 14313, Note_on_c, 9, 54, 0
3, 14313, Note_on_c, 9, 38, 0
3, 14328, Note_on_c, 9, 54, 60
3, 14337, Note_on_c, 9, 54, 0
3, 14352, Note_on_c, 9, 54, 80
3, 14352, Note_on_c, 9, 46, 90
3, 14361, Note_on_c, 9, 54, 0
3, 14361, Note_on_c, 9, 46, 0
3, 14376, Note_on_c, 9, 54, 60
3, 14385, Note_on_c, 9, 54, 0
3, 14400, Note_on_c, 9, 42, 105
3, 14400, Note_on_c, 9, 54, 115
3, 14400, Note_on_c, 9, 35, 115
3, 14409, Note_on_c, 9, 42, 0
3, 14409, Note_on_c, 9, 54, 0
3, 14409, Note_on_c, 9, 35, 0
3, 14424, Note_on_c, 9, 54, 60
3, 14433, Note_on_c, 9, 54, 0
3, 14448, Note_on_c, 9, 42, 90
3, 14448, Note_on_c, 9, 54, 80
3, 14448, Note_on_c, 9, 35, 115
3, 14457, Note_on_c, 9, 42, 0
3, 14457, Note_on_c, 9, 54, 0
3, 14457, Note_on_c, 9, 35, 0
3, 14472, Note_on_c, 9, 54, 60
3, 14481, Note_on_c, 9, 54, 0
3, 14496, Note_on_c, 9, 42, 105
3, 14496, Note_on_c, 9, 54, 115
3, 14496, Note_on_c, 9, 38, 100
3, 14505, Note_on_c, 9, 42, 0
3, 14505, Note_on_c, 9, 54, 0
3, 14505, Note_on_c, 9, 38, 0
3, 14520, Note_on_c, 9, 54, 60
3, 14529, Note_on_c, 9, 54, 0
3, 14544, Note_on_c, 9, 54, 80
3, 14544, Note_on_c, 9, 46, 90
3, 14553, Note_on_c, 9, 54, 0
3, 14553, Note_on_c, 9, 46, 0
3, 14568, Note_on_c, 9, 54, 60
3, 14577, Note_on_c, 9, 54, 0
3, 14592, Note_on_c, 9, 42, 105
3, 14592, Note_on_c, 9, 54, 115
3, 14592, Note_on_c, 9, 35, 115
3, 14601, Note_on_c, 9, 42, 0
3, 14601, Note_on_c, 9, 54, 0
3, 14601, Note_on_c, 9, 35, 0
3, 14616, Note_on_c, 9, 54, 60
3, 14625, Note_on_c, 9, 54, 0
3, 14640, Note_on_c, 9, 42, 90
3, 14640, Note_on_c, 9, 54, 80
3, 14649, Note_on_c, 9, 42, 0
3, 14649, Note_on_c, 9, 54, 0
3, 14664, Note_on_c, 9, 54, 60
3, 14673, Note_on_c, 9, 54, 0
3, 14688, Note_on_c, 9, 42, 105
3, 14688, Note_on_c, 9, 54, 115
3, 14688, Note_on_c, 9, 38, 100
3, 14697, Note_on_c, 9, 42, 0
3, 14697, Note_on_c, 9, 54, 0
3, 14697, Note_on_c, 9, 38, 0
3, 14712, Note_on_c, 9, 54, 60
3, 14721, Note_on_c, 9, 54, 0
3, 14736, Note_on_c, 9, 54, 80
3, 14736, Note_on_c, 9, 46, 90
3, 14745, Note_on_c, 9, 54, 0
3, 14745, Note_on_c, 9, 46, 0
3, 14760, Note_on_c, 9, 54, 60
3, 14769, Note_on_c, 9, 54, 0
3, 14784, Note_on_c, 9, 42, 105
3, 14784, Note_on_c, 9, 54, 115
3, 14784, Note_on_c, 9, 35, 115
3, 14793, Note_on_c, 9, 42, 0
3, 14793, Note_on_c, 9, 54, 0
3, 14793, Note_on_c, 9, 35, 0
3, 14808, Note_on_c, 9, 54, 60
3, 14817, Note_on_c, 9, 54, 0
3, 14832, Note_on_c, 9, 42, 90
3, 14832, Note_on_c, 9, 54, 80
3, 14832, Note_on_c, 9, 35, 115
3, 14841, Note_on_c, 9, 42, 0
3, 14841, Note_on_c, 9, 54, 0
3, 14841, Note_on_c, 9, 35, 0
3, 14856, Note_on_c, 9, 54, 60
3, 14865, Note_on_c, 9, 54, 0
3, 14880, Note_on_c, 9, 42, 105
3, 14880, Note_on_c, 9, 54, 115
3, 14880, Note_on_c, 9, 38, 100
3, 14889, Note_on_c, 9, 42, 0
3, 14889, Note_on_c, 9, 54, 0
3, 14889, Note_on_c, 9, 38, 0
3, 14904, Note_on_c, 9, 54, 60
3, 14913, Note_on_c, 9, 54, 0
3, 14928, Note_on_c, 9, 54, 80
3, 14928, Note_on_c, 9, 46, 90
3, 14937, Note_on_c, 9, 54, 0
3, 14937, Note_on_c, 9, 46, 0
3, 14952, Note_on_c, 9, 54, 60
3, 14961, Note_on_c, 9, 54, 0
3, 14976, Note_on_c, 9, 42, 105
3, 14976, Note_on_c, 9, 54, 115
3, 14976, Note_on_c, 9, 35, 115
3, 14985, Note_on_c, 9, 42, 0
3, 14985, Note_on_c, 9, 54, 0
3, 14985, Note_on_c, 9, 35, 0
3, 15000, Note_on_c, 9, 54, 60
3, 15009, Note_on_c, 9, 54, 0
3, 15024, Note_on_c, 9, 42, 90
3, 15024, Note_on_c, 9, 54, 80
3, 15033, Note_on_c, 9, 42, 0
3, 15033, Note_on_c, 9, 54, 0
3, 15048, Note_on_c, 9, 54, 60
3, 15057, Note_on_c, 9, 54, 0
3, 15072, Note_on_c, 9, 42, 105
3, 15072, Note_on_c, 9, 54, 115
3, 15072, Note_on_c, 9, 38, 100
3, 15081, Note_on_c, 9, 42, 0
3, 15081, Note_on_c, 9, 54, 0
3, 15081, Note_on_c, 9, 38, 0
3, 15096, Note_on_c, 9, 54, 60
3, 15105, Note_on_c, 9, 54, 0
3, 15120, Note_on_c, 9, 54, 80
3, 15120, Note_on_c, 9, 46, 90
3, 15129, Note_on_c, 9, 54, 0
3, 15129, Note_on_c, 9, 46, 0
3, 15144, Note_on_c, 9, 54, 60
3, 15153, Note_on_c, 9, 54, 0
3, 15168, Note_on_c, 9, 42, 105
3, 15168, Note_on_c, 9, 54, 115
3, 15168, Note_on_c, 9, 35, 115
3, 15177, Note_on_c, 9, 42, 0
3, 15177, Note_on_c, 9, 54, 0
3, 15177, Note_on_c, 9, 35, 0
3, 15192, Note_on_c, 9, 54, 60
3, 15201, Note_on_c, 9, 54, 0
3, 15216, Note_on_c, 9, 42, 90
3, 15216, Note_on_c, 9, 54, 80
3, 15216, Note_on_c, 9, 35, 115
3, 15225, Note_on_c, 9, 42, 0
3, 15225, Note_on_c, 9, 54, 0
3, 15225, Note_on_c, 9, 35, 0
3, 15240, Note_on_c, 9, 54, 60
3, 15249, Note_on_c, 9, 54, 0
3, 15264, Note_on_c, 9, 42, 105
3, 15264, Note_on_c, 9, 54, 115
3, 15264, Note_on_c, 9, 38, 100
3, 15273, Note_on_c, 9, 42, 0
3, 15273, Note_on_c, 9, 54, 0
3, 15273, Note_on_c, 9, 38, 0
3, 15288, Note_on_c, 9, 54, 60
3, 15297, Note_on_c, 9, 54, 0
3, 15312, Note_on_c, 9, 54, 80
3, 15312, Note_on_c, 9, 46, 90
3, 15321, Note_on_c, 9, 54, 0
3, 15321, Note_on_c, 9, 46, 0
3, 15336, Note_on_c, 9, 54, 60
3, 15345, Note_on_c, 9, 54, 0
3, 15360, Note_on_c, 9, 42, 105
3, 15360, Note_on_c, 9, 54, 115
3, 15360, Note_on_c, 9, 35, 115
3, 15369, Note_on_c, 9, 42, 0
3, 15369, Note_on_c, 9, 54, 0
3, 15369, Note_on_c, 9, 35, 0
3, 15384, Note_on_c, 9, 54, 60
3, 15393, Note_on_c, 9, 54, 0
3, 15408, Note_on_c, 9, 42, 90
3, 15408, Note_on_c, 9, 54, 80
3, 15417, Note_on_c, 9, 42, 0
3, 15417, Note_on_c, 9, 54, 0
3, 15432, Note_on_c, 9, 54, 60
3, 15441, Note_on_c, 9, 54, 0
3, 15456, Note_on_c, 9, 42, 105
3, 15456, Note_on_c, 9, 54, 115
3, 15456, Note_on_c, 9, 38, 100
3, 15465, Note_on_c, 9, 42, 0
3, 15465, Note_on_c, 9, 54, 0
3, 15465, Note_on_c, 9, 38, 0
3, 15480, Note_on_c, 9, 54, 60
3, 15489, Note_on_c, 9, 54, 0
3, 15504, Note_on_c, 9, 54, 80
3, 15504, Note_on_c, 9, 46, 90
3, 15513, Note_on_c, 9, 54, 0
3, 15513, Note_on_c, 9, 46, 0
3, 15528, Note_on_c, 9, 54, 60
3, 15537, Note_on_c, 9, 54, 0
3, 15552, Note_on_c, 9, 42, 105
3, 15552, Note_on_c, 9, 54, 115
3, 15552, Note_on_c, 9, 35, 115
3, 15561, Note_on_c, 9, 42, 0
3, 15561, Note_on_c, 9, 54, 0
3, 15561, Note_on_c, 9, 35, 0
3, 15576, Note_on_c, 9, 54, 60
3, 15585, Note_on_c, 9, 54, 0
3, 15600, Note_on_c, 9, 42, 90
3, 15600, Note_on_c, 9, 54, 80
3, 15600, Note_on_c, 9, 35, 115
3, 15609, Note_on_c, 9, 42, 0
3, 15609, Note_on_c, 9, 54, 0
3, 15609, Note_on_c, 9, 35, 0
3, 15624, Note_on_c, 9, 54, 60
3, 15633, Note_on_c, 9, 54, 0
3, 15648, Note_on_c, 9, 42, 105
3, 15648, Note_on_c, 9, 54, 115
3, 15648, Note_on_c, 9, 38, 100
3, 15657, Note_on_c, 9, 42, 0
3, 15657, Note_on_c, 9, 54, 0
3, 15657, Note_on_c, 9, 38, 0
3, 15672, Note_on_c, 9, 54, 60
3, 15681, Note_on_c, 9, 54, 0
3, 15696, Note_on_c, 9, 54, 80
3, 15696, Note_on_c, 9, 46, 90
3, 15705, Note_on_c, 9, 54, 0
3, 15705, Note_on_c, 9, 46, 0
3, 15720, Note_on_c, 9, 54, 60
3, 15729, Note_on_c, 9, 54, 0
3, 15744, Note_on_c, 9, 42, 105
3, 15744, Note_on_c, 9, 54, 115
3, 15744, Note_on_c, 9, 35, 115
3, 15753, Note_on_c, 9, 42, 0
3, 15753, Note_on_c, 9, 54, 0
3, 15753, Note_on_c, 9, 35, 0
3, 15768, Note_on_c, 9, 54, 60
3, 15777, Note_on_c, 9, 54, 0
3, 15792, Note_on_c, 9, 42, 90
3, 15792, Note_on_c, 9, 54, 80
3, 15801, Note_on_c, 9, 42, 0
3, 15801, Note_on_c, 9, 54, 0
3, 15816, Note_on_c, 9, 54, 60
3, 15825, Note_on_c, 9, 54, 0
3, 15840, Note_on_c, 9, 42, 105
3, 15840, Note_on_c, 9, 54, 115
3, 15840, Note_on_c, 9, 38, 100
3, 15849, Note_on_c, 9, 42, 0
3, 15849, Note_on_c, 9, 54, 0
3, 15849, Note_on_c, 9, 38, 0
3, 15864, Note_on_c, 9, 54, 60
3, 15873, Note_on_c, 9, 54, 0
3, 15888, Note_on_c, 9, 54, 80
3, 15888, Note_on_c, 9, 46, 90
3, 15897, Note_on_c, 9, 54, 0
3, 15897, Note_on_c, 9, 46, 0
3, 15912, Note_on_c, 9, 54, 60
3, 15921, Note_on_c, 9, 54, 0
3, 15936, Note_on_c, 9, 42, 105
3, 15936, Note_on_c, 9, 54, 115
3, 15936, Note_on_c, 9, 35, 115
3, 15945, Note_on_c, 9, 42, 0
3, 15945, Note_on_c, 9, 54, 0
3, 15945, Note_on_c, 9, 35, 0
3, 15960, Note_on_c, 9, 54, 60
3, 15969, Note_on_c, 9, 54, 0
3, 15984, Note_on_c, 9, 42, 90
3, 15984, Note_on_c, 9, 54, 80
3, 15984, Note_on_c, 9, 35, 115
3, 15993, Note_on_c, 9, 42, 0
3, 15993, Note_on_c, 9, 54, 0
3, 15993, Note_on_c, 9, 35, 0
3, 16008, Note_on_c, 9, 54, 60
3, 16017, Note_on_c, 9, 54, 0
3, 16032, Note_on_c, 9, 42, 105
3, 16032, Note_on_c, 9, 54, 115
3, 16032, Note_on_c, 9, 38, 100
3, 16041, Note_on_c, 9, 42, 0
3, 16041, Note_on_c, 9, 54, 0
3, 16041, Note_on_c, 9, 38, 0
3, 16056, Note_on_c, 9, 54, 60
3, 16065, Note_on_c, 9, 54, 0
3, 16080, Note_on_c, 9, 54, 80
3, 16080, Note_on_c, 9, 46, 90
3, 16089, Note_on_c, 9, 54, 0
3, 16089, Note_on_c, 9, 46, 0
3, 16104, Note_on_c, 9, 54, 60
3, 16113, Note_on_c, 9, 54, 0
3, 16128, Note_on_c, 9, 42, 105
3, 16128, Note_on_c, 9, 54, 115
3, 16128, Note_on_c, 9, 35, 115
3, 16137, Note_on_c, 9, 42, 0
3, 16137, Note_on_c, 9, 54, 0
3, 16137, Note_on_c, 9, 35, 0
3, 16152, Note_on_c, 9, 54, 60
3, 16161, Note_on_c, 9, 54, 0
3, 16176, Note_on_c, 9, 42, 90
3, 16176, Note_on_c, 9, 54, 80
3, 16185, Note_on_c, 9, 42, 0
3, 16185, Note_on_c, 9, 54, 0
3, 16200, Note_on_c, 9, 54, 60
3, 16209, Note_on_c, 9, 54, 0
3, 16224, Note_on_c, 9, 42, 105
3, 16224, Note_on_c, 9, 54, 115
3, 16224, Note_on_c, 9, 38, 100
3, 16233, Note_on_c, 9, 42, 0
3, 16233, Note_on_c, 9, 54, 0
3, 16233, Note_on_c, 9, 38, 0
3, 16248, Note_on_c, 9, 54, 60
3, 16257, Note_on_c, 9, 54, 0
3, 16272, Note_on_c, 9, 54, 80
3, 16272, Note_on_c, 9, 46, 90
3, 16281, Note_on_c, 9, 54, 0
3, 16281, Note_on_c, 9, 46, 0
3, 16296, Note_on_c, 9, 54, 60
3, 16305, Note_on_c, 9, 54, 0
3, 16320, Note_on_c, 9, 42, 105
3, 16320, Note_on_c, 9, 54, 115
3, 16320, Note_on_c, 9, 35, 115
3, 16329, Note_on_c, 9, 42, 0
3, 16329, Note_on_c, 9, 54, 0
3, 16329, Note_on_c, 9, 35, 0
3, 16344, Note_on_c, 9, 54, 60
3, 16353, Note_on_c, 9, 54, 0
3, 16368, Note_on_c, 9, 42, 90
3, 16368, Note_on_c, 9, 54, 80
3, 16368, Note_on_c, 9, 35, 115
3, 16377, Note_on_c, 9, 42, 0
3, 16377, Note_on_c, 9, 54, 0
3, 16377, Note_on_c, 9, 35, 0
3, 16392, Note_on_c, 9, 54, 60
3, 16401, Note_on_c, 9, 54, 0
3, 16416, Note_on_c, 9, 42, 105
3, 16416, Note_on_c, 9, 54, 115
3, 16416, Note_on_c, 9, 38, 100
3, 16425, Note_on_c, 9, 42, 0
3, 16425, Note_on_c, 9, 54, 0
3, 16425, Note_on_c, 9, 38, 0
3, 16440, Note_on_c, 9, 54, 60
3, 16449, Note_on_c, 9, 54, 0
3, 16464, Note_on_c, 9, 54, 80
3, 16464, Note_on_c, 9, 46, 90
3, 16473, Note_on_c, 9, 54, 0
3, 16473, Note_on_c, 9, 46, 0
3, 16488, Note_on_c, 9, 54, 60
3, 16497, Note_on_c, 9, 54, 0
3, 16512, Note_on_c, 9, 42, 105
3, 16512, Note_on_c, 9, 54, 115
3, 16512, Note_on_c, 9, 35, 115
3, 16521, Note_on_c, 9, 42, 0
3, 16521, Note_on_c, 9, 54, 0
3, 16521, Note_on_c, 9, 35, 0
3, 16536, Note_on_c, 9, 54, 60
3, 16545, Note_on_c, 9, 54, 0
3, 16560, Note_on_c, 9, 42, 90
3, 16560, Note_on_c, 9, 54, 80
3, 16569, Note_on_c, 9, 42, 0
3, 16569, Note_on_c, 9, 54, 0
3, 16584, Note_on_c, 9, 54, 60
3, 16593, Note_on_c, 9, 54, 0
3, 16608, Note_on_c, 9, 42, 105
3, 16608, Note_on_c, 9, 54, 115
3, 16608, Note_on_c, 9, 38, 100
3, 16617, Note_on_c, 9, 42, 0
3, 16617, Note_on_c, 9, 54, 0
3, 16617, Note_on_c, 9, 38, 0
3, 16632, Note_on_c, 9, 54, 60
3, 16641, Note_on_c, 9, 54, 0
3, 16656, Note_on_c, 9, 54, 80
3, 16656, Note_on_c, 9, 46, 90
3, 16665, Note_on_c, 9, 54, 0
3, 16665, Note_on_c, 9, 46, 0
3, 16680, Note_on_c, 9, 54, 60
3, 16689, Note_on_c, 9, 54, 0
3, 16704, Note_on_c, 9, 42, 105
3, 16704, Note_on_c, 9, 54, 115
3, 16704, Note_on_c, 9, 35, 115
3, 16713, Note_on_c, 9, 42, 0
3, 16713, Note_on_c, 9, 54, 0
3, 16713, Note_on_c, 9, 35, 0
3, 16728, Note_on_c, 9, 54, 60
3, 16737, Note_on_c, 9, 54, 0
3, 16752, Note_on_c, 9, 42, 90
3, 16752, Note_on_c, 9, 54, 80
3, 16752, Note_on_c, 9, 35, 115
3, 16761, Note_on_c, 9, 42, 0
3, 16761, Note_on_c, 9, 54, 0
3, 16761, Note_on_c, 9, 35, 0
3, 16776, Note_on_c, 9, 54, 60
3, 16785, Note_on_c, 9, 54, 0
3, 16800, Note_on_c, 9, 42, 105
3, 16800, Note_on_c, 9, 54, 115
3, 16800, Note_on_c, 9, 38, 100
3, 16809, Note_on_c, 9, 42, 0
3, 16809, Note_on_c, 9, 54, 0
3, 16809, Note_on_c, 9, 38, 0
3, 16824, Note_on_c, 9, 54, 60
3, 16833, Note_on_c, 9, 54, 0
3, 16848, Note_on_c, 9, 54, 80
3, 16848, Note_on_c, 9, 46, 90
3, 16857, Note_on_c, 9, 54, 0
3, 16857, Note_on_c, 9, 46, 0
3, 16872, Note_on_c, 9, 54, 60
3, 16881, Note_on_c, 9, 54, 0
3, 16896, Note_on_c, 9, 42, 105
3, 16896, Note_on_c, 9, 54, 115
3, 16896, Note_on_c, 9, 35, 115
3, 16905, Note_on_c, 9, 42, 0
3, 16905, Note_on_c, 9, 54, 0
3, 16905, Note_on_c, 9, 35, 0
3, 16920, Note_on_c, 9, 54, 60
3, 16929, Note_on_c, 9, 54, 0
3, 16944, Note_on_c, 9, 54, 80
3, 16953, Note_on_c, 9, 54, 0
3, 16968, Note_on_c, 9, 54, 60
3, 16977, Note_on_c, 9, 54, 0
3, 16992, Note_on_c, 9, 42, 105
3, 16992, Note_on_c, 9, 54, 115
3, 16992, Note_on_c, 9, 38, 100
3, 17001, Note_on_c, 9, 42, 0
3, 17001, Note_on_c, 9, 54, 0
3, 17001, Note_on_c, 9, 38, 0
3, 17016, Note_on_c, 9, 54, 60
3, 17025, Note_on_c, 9, 54, 0
3, 17040, Note_on_c, 9, 54, 80
3, 17049, Note_on_c, 9, 54, 0
3, 17064, Note_on_c, 9, 54, 60
3, 17073, Note_on_c, 9, 54, 0
3, 17088, Note_on_c, 9, 42, 105
3, 17088, Note_on_c, 9, 54, 115
3, 17088, Note_on_c, 9, 35, 115
3, 17097, Note_on_c, 9, 42, 0
3, 17097, Note_on_c, 9, 54, 0
3, 17097, Note_on_c, 9, 35, 0
3, 17112, Note_on_c, 9, 54, 60
3, 17121, Note_on_c, 9, 54, 0
3, 17136, Note_on_c, 9, 54, 80
3, 17136, Note_on_c, 9, 35, 115
3, 17145, Note_on_c, 9, 54, 0
3, 17145, Note_on_c, 9, 35, 0
3, 17160, Note_on_c, 9, 54, 60
3, 17169, Note_on_c, 9, 54, 0
3, 17184, Note_on_c, 9, 42, 105
3, 17184, Note_on_c, 9, 54, 115
3, 17184, Note_on_c, 9, 38, 100
3, 17193, Note_on_c, 9, 42, 0
3, 17193, Note_on_c, 9, 54, 0
3, 17193, Note_on_c, 9, 38, 0
3, 17208, Note_on_c, 9, 54, 60
3, 17217, Note_on_c, 9, 54, 0
3, 17232, Note_on_c, 9, 54, 80
3, 17241, Note_on_c, 9, 54, 0
3, 17256, Note_on_c, 9, 54, 60
3, 17265, Note_on_c, 9, 54, 0
3, 17280, Note_on_c, 9, 54, 115
3, 17280, Note_on_c, 9, 49, 100
3, 17280, Note_on_c, 9, 35, 115
3, 17289, Note_on_c, 9, 54, 0
3, 17289, Note_on_c, 9, 49, 0
3, 17289, Note_on_c, 9, 35, 0
3, 17304, Note_on_c, 9, 54, 60
3, 17313, Note_on_c, 9, 54, 0
3, 17328, Note_on_c, 9, 54, 80
3, 17337, Note_on_c, 9, 54, 0
3, 17352, Note_on_c, 9, 54, 60
3, 17361, Note_on_c, 9, 54, 0
3, 17376, Note_on_c, 9, 42, 105
3, 17376, Note_on_c, 9, 54, 115
3, 17376, Note_on_c, 9, 38, 100
3, 17385, Note_on_c, 9, 42, 0
3, 17385, Note_on_c, 9, 54, 0
3, 17385, Note_on_c, 9, 38, 0
3, 17400, Note_on_c, 9, 54, 60
3, 17409, Note_on_c, 9, 54, 0
3, 17424, Note_on_c, 9, 54, 80
3, 17433, Note_on_c, 9, 54, 0
3, 17448, Note_on_c, 9, 54, 60
3, 17457, Note_on_c, 9, 54, 0
3, 17472, Note_on_c, 9, 42, 105
3, 17472, Note_on_c, 9, 54, 115
3, 17472, Note_on_c, 9, 35, 115
3, 17481, Note_on_c, 9, 42, 0
3, 17481, Note_on_c, 9, 54, 0
3, 17481, Note_on_c, 9, 35, 0
3, 17496, Note_on_c, 9, 54, 60
3, 17505, Note_on_c, 9, 54, 0
3, 17520, Note_on_c, 9, 54, 80
3, 17520, Note_on_c, 9, 35, 115
3, 17529, Note_on_c, 9, 54, 0
3, 17529, Note_on_c, 9, 35, 0
3, 17544, Note_on_c, 9, 54, 60
3, 17553, Note_on_c, 9, 54, 0
3, 17568, Note_on_c, 9, 42, 105
3, 17568, Note_on_c, 9, 54, 115
3, 17568, Note_on_c, 9, 38, 100
3, 17577, Note_on_c, 9, 42, 0
3, 17577, Note_on_c, 9, 54, 0
3, 17577, Note_on_c, 9, 38, 0
3, 17592, Note_on_c, 9, 54, 60
3, 17601, Note_on_c, 9, 54, 0
3, 17616, Note_on_c, 9, 54, 80
3, 17625, Note_on_c, 9, 54, 0
3, 17640, Note_on_c, 9, 54, 60
3, 17649, Note_on_c, 9, 54, 0
3, 17664, Note_on_c, 9, 42, 105
3, 17664, Note_on_c, 9, 54, 115
3, 17664, Note_on_c, 9, 35, 115
3, 17673, Note_on_c, 9, 42, 0
3, 17673, Note_on_c, 9, 54, 0
3, 17673, Note_on_c, 9, 35, 0
3, 17688, Note_on_c, 9, 54, 60
3, 17697, Note_on_c, 9, 54, 0
3, 17712, Note_on_c, 9, 54, 80
3, 17721, Note_on_c, 9, 54, 0
3, 17736, Note_on_c, 9, 54, 60
3, 17745, Note_on_c, 9, 54, 0
3, 17760, Note_on_c, 9, 42, 105
3, 17760, Note_on_c, 9, 54, 115
3, 17760, Note_on_c, 9, 38, 100
3, 17769, Note_on_c, 9, 42, 0
3, 17769, Note_on_c, 9, 54, 0
3, 17769, Note_on_c, 9, 38, 0
3, 17784, Note_on_c, 9, 54, 60
3, 17793, Note_on_c, 9, 54, 0
3, 17808, Note_on_c, 9, 54, 80
3, 17817, Note_on_c, 9, 54, 0
3, 17832, Note_on_c, 9, 54, 60
3, 17841, Note_on_c, 9, 54, 0
3, 17856, Note_on_c, 9, 42, 105
3, 17856, Note_on_c, 9, 54, 115
3, 17856, Note_on_c, 9, 35, 115
3, 17865, Note_on_c, 9, 42, 0
3, 17865, Note_on_c, 9, 54, 0
3, 17865, Note_on_c, 9, 35, 0
3, 17880, Note_on_c, 9, 54, 60
3, 17889, Note_on_c, 9, 54, 0
3, 17904, Note_on_c, 9, 54, 80
3, 17904, Note_on_c, 9, 35, 115
3, 17913, Note_on_c, 9, 54, 0
3, 17913, Note_on_c, 9, 35, 0
3, 17928, Note_on_c, 9, 54, 60
3, 17937, Note_on_c, 9, 54, 0
3, 17952, Note_on_c, 9, 42, 105
3, 17952, Note_on_c, 9, 54, 115
3, 17952, Note_on_c, 9, 38, 100
3, 17961, Note_on_c, 9, 42, 0
3, 17961, Note_on_c, 9, 54, 0
3, 17961, Note_on_c, 9, 38, 0
3, 17976, Note_on_c, 9, 54, 60
3, 17985, Note_on_c, 9, 54, 0
3, 18000, Note_on_c, 9, 54, 80
3, 18000, Note_on_c, 9, 35, 115
3, 18009, Note_on_c, 9, 54, 0
3, 18009, Note_on_c, 9, 35, 0
3, 18024, Note_on_c, 9, 54, 60
3, 18033, Note_on_c, 9, 54, 0
3, 18048, Note_on_c, 9, 42, 105
3, 18048, Note_on_c, 9, 54, 115
3, 18048, Note_on_c, 9, 35, 115
3, 18057, Note_on_c, 9, 42, 0
3, 18057, Note_on_c, 9, 54, 0
3, 18057, Note_on_c, 9, 35, 0
3, 18072, Note_on_c, 9, 54, 60
3, 18081, Note_on_c, 9, 54, 0
3, 18096, Note_on_c, 9, 54, 80
3, 18105, Note_on_c, 9, 54, 0
3, 18120, Note_on_c, 9, 54, 60
3, 18129, Note_on_c, 9, 54, 0
3, 18144, Note_on_c, 9, 42, 105
3, 18144, Note_on_c, 9, 54, 115
3, 18144, Note_on_c, 9, 38, 100
3, 18153, Note_on_c, 9, 42, 0
3, 18153, Note_on_c, 9, 54, 0
3, 18153, Note_on_c, 9, 38, 0
3, 18168, Note_on_c, 9, 54, 60
3, 18177, Note_on_c, 9, 54, 0
3, 18192, Note_on_c, 9, 54, 80
3, 18201, Note_on_c, 9, 54, 0
3, 18216, Note_on_c, 9, 54, 60
3, 18225, Note_on_c, 9, 54, 0
3, 18240, Note_on_c, 9, 42, 105
3, 18240, Note_on_c, 9, 54, 115
3, 18240, Note_on_c, 9, 35, 115
3, 18249, Note_on_c, 9, 42, 0
3, 18249, Note_on_c, 9, 54, 0
3, 18249, Note_on_c, 9, 35, 0
3, 18264, Note_on_c, 9, 54, 60
3, 18273, Note_on_c, 9, 54, 0
3, 18288, Note_on_c, 9, 54, 80
3, 18288, Note_on_c, 9, 35, 115
3, 18297, Note_on_c, 9, 54, 0
3, 18297, Note_on_c, 9, 35, 0
3, 18312, Note_on_c, 9, 54, 60
3, 18321, Note_on_c, 9, 54, 0
3, 18336, Note_on_c, 9, 42, 105
3, 18336, Note_on_c, 9, 54, 115
3, 18336, Note_on_c, 9, 38, 100
3, 18345, Note_on_c, 9, 42, 0
3, 18345, Note_on_c, 9, 54, 0
3, 18345, Note_on_c, 9, 38, 0
3, 18360, Note_on_c, 9, 54, 60
3, 18369, Note_on_c, 9, 54, 0
3, 18384, Note_on_c, 9, 54, 80
3, 18384, Note_on_c, 9, 35, 115
3, 18393, Note_on_c, 9, 54, 0
3, 18393, Note_on_c, 9, 35, 0
3, 18408, Note_on_c, 9, 54, 60
3, 18417, Note_on_c, 9, 54, 0
3, 18432, Note_on_c, 9, 42, 105
3, 18432, Note_on_c, 9, 54, 115
3, 18432, Note_on_c, 9, 35, 115
3, 18441, Note_on_c, 9, 42, 0
3, 18441, Note_on_c, 9, 54, 0
3, 18441, Note_on_c, 9, 35, 0
3, 18456, Note_on_c, 9, 54, 60
3, 18465, Note_on_c, 9, 54, 0
3, 18480, Note_on_c, 9, 54, 80
3, 18489, Note_on_c, 9, 54, 0
3, 18504, Note_on_c, 9, 54, 60
3, 18513, Note_on_c, 9, 54, 0
3, 18528, Note_on_c, 9, 42, 105
3, 18528, Note_on_c, 9, 54, 115
3, 18528, Note_on_c, 9, 38, 100
3, 18537, Note_on_c, 9, 42, 0
3, 18537, Note_on_c, 9, 54, 0
3, 18537, Note_on_c, 9, 38, 0
3, 18552, Note_on_c, 9, 54, 60
3, 18561, Note_on_c, 9, 54, 0
3, 18576, Note_on_c, 9, 54, 80
3, 18585, Note_on_c, 9, 54, 0
3, 18600, Note_on_c, 9, 54, 60
3, 18609, Note_on_c, 9, 54, 0
3, 18624, Note_on_c, 9, 42, 105
3, 18624, Note_on_c, 9, 54, 115
3, 18624, Note_on_c, 9, 35, 115
3, 18633, Note_on_c, 9, 42, 0
3, 18633, Note_on_c, 9, 54, 0
3, 18633, Note_on_c, 9, 35, 0
3, 18648, Note_on_c, 9, 54, 60
3, 18657, Note_on_c, 9, 54, 0
3, 18672, Note_on_c, 9, 54, 80
3, 18672, Note_on_c, 9, 35, 115
3, 18681, Note_on_c, 9, 54, 0
3, 18681, Note_on_c, 9, 35, 0
3, 18696, Note_on_c, 9, 54, 60
3, 18705, Note_on_c, 9, 54, 0
3, 18720, Note_on_c, 9, 42, 105
3, 18720, Note_on_c, 9, 54, 115
3, 18720, Note_on_c, 9, 38, 100
3, 18729, Note_on_c, 9, 42, 0
3, 18729, Note_on_c, 9, 54, 0
3, 18729, Note_on_c, 9, 38, 0
3, 18744, Note_on_c, 9, 54, 60
3, 18753, Note_on_c, 9, 54, 0
3, 18768, Note_on_c, 9, 54, 80
3, 18768, Note_on_c, 9, 35, 115
3, 18777, Note_on_c, 9, 54, 0
3, 18777, Note_on_c, 9, 35, 0
3, 18792, Note_on_c, 9, 54, 60
3, 18801, Note_on_c, 9, 54, 0
3, 18816, Note_on_c, 9, 42, 105
3, 18816, Note_on_c, 9, 54, 115
3, 18816, Note_on_c, 9, 35, 115
3, 18825, Note_on_c, 9, 42, 0
3, 18825, Note_on_c, 9, 54, 0
3, 18825, Note_on_c, 9, 35, 0
3, 18840, Note_on_c, 9, 54, 60
3, 18849, Note_on_c, 9, 54, 0
3, 18864, Note_on_c, 9, 54, 80
3, 18873, Note_on_c, 9, 54, 0
3, 18888, Note_on_c, 9, 54, 60
3, 18897, Note_on_c, 9, 54, 0
3, 18912, Note_on_c, 9, 42, 105
3, 18912, Note_on_c, 9, 54, 115
3, 18912, Note_on_c, 9, 38, 100
3, 18921, Note_on_c, 9, 42, 0
3, 18921, Note_on_c, 9, 54, 0
3, 18921, Note_on_c, 9, 38, 0
3, 18936, Note_on_c, 9, 54, 60
3, 18945, Note_on_c, 9, 54, 0
3, 18960, Note_on_c, 9, 54, 80
3, 18969, Note_on_c, 9, 54, 0
3, 18984, Note_on_c, 9, 54, 60
3, 18993, Note_on_c, 9, 54, 0
3, 19008, Note_on_c, 9, 42, 105
3, 19008, Note_on_c, 9, 54, 115
3, 19008, Note_on_c, 9, 35, 115
3, 19017, Note_on_c, 9, 42, 0
3, 19017, Note_on_c, 9, 54, 0
3, 19017, Note_on_c, 9, 35, 0
3, 19032, Note_on_c, 9, 54, 60
3, 19041, Note_on_c, 9, 54, 0
3, 19056, Note_on_c, 9, 54, 80
3, 19056, Note_on_c, 9, 35, 115
3, 19065, Note_on_c, 9, 54, 0
3, 19065, Note_on_c, 9, 35, 0
3, 19080, Note_on_c, 9, 54, 60
3, 19089, Note_on_c, 9, 54, 0
3, 19104, Note_on_c, 9, 42, 105
3, 19104, Note_on_c, 9, 54, 115
3, 19104, Note_on_c, 9, 38, 100
3, 19113, Note_on_c, 9, 42, 0
3, 19113, Note_on_c, 9, 54, 0
3, 19113, Note_on_c, 9, 38, 0
3, 19128, Note_on_c, 9, 54, 60
3, 19137, Note_on_c, 9, 54, 0
3, 19152, Note_on_c, 9, 54, 80
3, 19152, Note_on_c, 9, 35, 115
3, 19161, Note_on_c, 9, 54, 0
3, 19161, Note_on_c, 9, 35, 0
3, 19176, Note_on_c, 9, 54, 60
3, 19185, Note_on_c, 9, 54, 0
3, 19200, Note_on_c, 9, 42, 105
3, 19200, Note_on_c, 9, 54, 115
3, 19200, Note_on_c, 9, 35, 115
3, 19209, Note_on_c, 9, 42, 0
3, 19209, Note_on_c, 9, 54, 0
3, 19209, Note_on_c, 9, 35, 0
3, 19224, Note_on_c, 9, 54, 60
3, 19233, Note_on_c, 9, 54, 0
3, 19248, Note_on_c, 9, 54, 80
3, 19257, Note_on_c, 9, 54, 0
3, 19272, Note_on_c, 9, 54, 60
3, 19281, Note_on_c, 9, 54, 0
3, 19296, Note_on_c, 9, 42, 105
3, 19296, Note_on_c, 9, 54, 115
3, 19296, Note_on_c, 9, 38, 100
3, 19305, Note_on_c, 9, 42, 0
3, 19305, Note_on_c, 9, 54, 0
3, 19305, Note_on_c, 9, 38, 0
3, 19320, Note_on_c, 9, 54, 60
3, 19329, Note_on_c, 9, 54, 0
3, 19344, Note_on_c, 9, 54, 80
3, 19353, Note_on_c, 9, 54, 0
3, 19368, Note_on_c, 9, 54, 60
3, 19377, Note_on_c, 9, 54, 0
3, 19392, Note_on_c, 9, 42, 105
3, 19392, Note_on_c, 9, 54, 115
3, 19392, Note_on_c, 9, 35, 115
3, 19401, Note_on_c, 9, 42, 0
3, 19401, Note_on_c, 9, 54, 0
3, 19401, Note_on_c, 9, 35, 0
3, 19416, Note_on_c, 9, 54, 60
3, 19425, Note_on_c, 9, 54, 0
3, 19440, Note_on_c, 9, 54, 80
3, 19440, Note_on_c, 9, 35, 115
3, 19449, Note_on_c, 9, 54, 0
3, 19449, Note_on_c, 9, 35, 0
3, 19464, Note_on_c, 9, 54, 60
3, 19473, Note_on_c, 9, 54, 0
3, 19488, Note_on_c, 9, 42, 105
3, 19488, Note_on_c, 9, 54, 115
3, 19488, Note_on_c, 9, 38, 100
3, 19497, Note_on_c, 9, 42, 0
3, 19497, Note_on_c, 9, 54, 0
3, 19497, Note_on_c, 9, 38, 0
3, 19512, Note_on_c, 9, 54, 60
3, 19521, Note_on_c, 9, 54, 0
3, 19536, Note_on_c, 9, 54, 80
3, 19536, Note_on_c, 9, 35, 115
3, 19545, Note_on_c, 9, 54, 0
3, 19545, Note_on_c, 9, 35, 0
3, 19560, Note_on_c, 9, 54, 60
3, 19569, Note_on_c, 9, 54, 0
3, 19584, Note_on_c, 9, 42, 105
3, 19584, Note_on_c, 9, 54, 115
3, 19584, Note_on_c, 9, 35, 115
3, 19593, Note_on_c, 9, 42, 0
3, 19593, Note_on_c, 9, 54, 0
3, 19593, Note_on_c, 9, 35, 0
3, 19608, Note_on_c, 9, 54, 60
3, 19617, Note_on_c, 9, 54, 0
3, 19632, Note_on_c, 9, 54, 80
3, 19641, Note_on_c, 9, 54, 0
3, 19656, Note_on_c, 9, 54, 60
3, 19665, Note_on_c, 9, 54, 0
3, 19680, Note_on_c, 9, 42, 105
3, 19680, Note_on_c, 9, 54, 115
3, 19680, Note_on_c, 9, 38, 100
3, 19689, Note_on_c, 9, 42, 0
3, 19689, Note_on_c, 9, 54, 0
3, 19689, Note_on_c, 9, 38, 0
3, 19704, Note_on_c, 9, 54, 60
3, 19713, Note_on_c, 9, 54, 0
3, 19728, Note_on_c, 9, 54, 80
3, 19737, Note_on_c, 9, 54, 0
3, 19752, Note_on_c, 9, 54, 60
3, 19761, Note_on_c, 9, 54, 0
3, 19776, Note_on_c, 9, 42, 105
3, 19776, Note_on_c, 9, 54, 115
3, 19776, Note_on_c, 9, 35, 115
3, 19785, Note_on_c, 9, 42, 0
3, 19785, Note_on_c, 9, 54, 0
3, 19785, Note_on_c, 9, 35, 0
3, 19800, Note_on_c, 9, 54, 60
3, 19809, Note_on_c, 9, 54, 0
3, 19824, Note_on_c, 9, 54, 80
3, 19824, Note_on_c, 9, 35, 115
3, 19833, Note_on_c, 9, 54, 0
3, 19833, Note_on_c, 9, 35, 0
3, 19848, Note_on_c, 9, 54, 60
3, 19857, Note_on_c, 9, 54, 0
3, 19872, Note_on_c, 9, 42, 105
3, 19872, Note_on_c, 9, 54, 115
3, 19872, Note_on_c, 9, 38, 100
3, 19881, Note_on_c, 9, 42, 0
3, 19881, Note_on_c, 9, 54, 0
3, 19881, Note_on_c, 9, 38, 0
3, 19896, Note_on_c, 9, 54, 60
3, 19905, Note_on_c, 9, 54, 0
3, 19920, Note_on_c, 9, 54, 80
3, 19920, Note_on_c, 9, 35, 115
3, 19929, Note_on_c, 9, 54, 0
3, 19929, Note_on_c, 9, 35, 0
3, 19944, Note_on_c, 9, 54, 60
3, 19953, Note_on_c, 9, 54, 0
3, 19968, Note_on_c, 9, 42, 105
3, 19968, Note_on_c, 9, 54, 115
3, 19968, Note_on_c, 9, 35, 115
3, 19977, Note_on_c, 9, 42, 0
3, 19977, Note_on_c, 9, 54, 0
3, 19977, Note_on_c, 9, 35, 0
3, 19992, Note_on_c, 9, 54, 60
3, 20001, Note_on_c, 9, 54, 0
3, 20016, Note_on_c, 9, 54, 80
3, 20025, Note_on_c, 9, 54, 0
3, 20040, Note_on_c, 9, 54, 60
3, 20049, Note_on_c, 9, 54, 0
3, 20064, Note_on_c, 9, 42, 105
3, 20064, Note_on_c, 9, 54, 115
3, 20064, Note_on_c, 9, 38, 100
3, 20073, Note_on_c, 9, 42, 0
3, 20073, Note_on_c, 9, 54, 0
3, 20073, Note_on_c, 9, 38, 0
3, 20088, Note_on_c, 9, 54, 60
3, 20097, Note_on_c, 9, 54, 0
3, 20112, Note_on_c, 9, 54, 80
3, 20121, Note_on_c, 9, 54, 0
3, 20136, Note_on_c, 9, 54, 60
3, 20145, Note_on_c, 9, 54, 0
3, 20160, Note_on_c, 9, 42, 105
3, 20160, Note_on_c, 9, 54, 115
3, 20160, Note_on_c, 9, 35, 115
3, 20169, Note_on_c, 9, 42, 0
3, 20169, Note_on_c, 9, 54, 0
3, 20169, Note_on_c, 9, 35, 0
3, 20184, Note_on_c, 9, 54, 60
3, 20193, Note_on_c, 9, 54, 0
3, 20208, Note_on_c, 9, 54, 80
3, 20208, Note_on_c, 9, 35, 115
3, 20217, Note_on_c, 9, 54, 0
3, 20217, Note_on_c, 9, 35, 0
3, 20232, Note_on_c, 9, 54, 60
3, 20241, Note_on_c, 9, 54, 0
3, 20256, Note_on_c, 9, 42, 105
3, 20256, Note_on_c, 9, 54, 115
3, 20256, Note_on_c, 9, 38, 100
3, 20265, Note_on_c, 9, 42, 0
3, 20265, Note_on_c, 9, 54, 0
3, 20265, Note_on_c, 9, 38, 0
3, 20280, Note_on_c, 9, 54, 60
3, 20289, Note_on_c, 9, 54, 0
3, 20304, Note_on_c, 9, 54, 80
3, 20304, Note_on_c, 9, 35, 115
3, 20313, Note_on_c, 9, 54, 0
3, 20313, Note_on_c, 9, 35, 0
3, 20328, Note_on_c, 9, 54, 60
3, 20337, Note_on_c, 9, 54, 0
3, 20352, Note_on_c, 9, 42, 105
3, 20352, Note_on_c, 9, 54, 115
3, 20352, Note_on_c, 9, 35, 115
3, 20361, Note_on_c, 9, 42, 0
3, 20361, Note_on_c, 9, 54, 0
3, 20361, Note_on_c, 9, 35, 0
3, 20376, Note_on_c, 9, 54, 60
3, 20385, Note_on_c, 9, 54, 0
3, 20400, Note_on_c, 9, 54, 80
3, 20409, Note_on_c, 9, 54, 0
3, 20424, Note_on_c, 9, 54, 60
3, 20433, Note_on_c, 9, 54, 0
3, 20448, Note_on_c, 9, 42, 105
3, 20448, Note_on_c, 9, 54, 115
3, 20448, Note_on_c, 9, 38, 100
3, 20457, Note_on_c, 9, 42, 0
3, 20457, Note_on_c, 9, 54, 0
3, 20457, Note_on_c, 9, 38, 0
3, 20472, Note_on_c, 9, 54, 60
3, 20481, Note_on_c, 9, 54, 0
3, 20496, Note_on_c, 9, 54, 80
3, 20505, Note_on_c, 9, 54, 0
3, 20520, Note_on_c, 9, 54, 60
3, 20529, Note_on_c, 9, 54, 0
3, 20544, Note_on_c, 9, 42, 105
3, 20544, Note_on_c, 9, 54, 115
3, 20544, Note_on_c, 9, 35, 115
3, 20553, Note_on_c, 9, 42, 0
3, 20553, Note_on_c, 9, 54, 0
3, 20553, Note_on_c, 9, 35, 0
3, 20568, Note_on_c, 9, 54, 60
3, 20577, Note_on_c, 9, 54, 0
3, 20592, Note_on_c, 9, 54, 80
3, 20592, Note_on_c, 9, 35, 115
3, 20601, Note_on_c, 9, 54, 0
3, 20601, Note_on_c, 9, 35, 0
3, 20616, Note_on_c, 9, 54, 60
3, 20625, Note_on_c, 9, 54, 0
3, 20640, Note_on_c, 9, 42, 105
3, 20640, Note_on_c, 9, 54, 115
3, 20640, Note_on_c, 9, 38, 100
3, 20649, Note_on_c, 9, 42, 0
3, 20649, Note_on_c, 9, 54, 0
3, 20649, Note_on_c, 9, 38, 0
3, 20664, Note_on_c, 9, 54, 60
3, 20673, Note_on_c, 9, 54, 0
3, 20688, Note_on_c, 9, 54, 80
3, 20688, Note_on_c, 9, 35, 115
3, 20697, Note_on_c, 9, 54, 0
3, 20697, Note_on_c, 9, 35, 0
3, 20712, Note_on_c, 9, 54, 60
3, 20721, Note_on_c, 9, 54, 0
3, 20736, Note_on_c, 9, 42, 105
3, 20736, Note_on_c, 9, 54, 115
3, 20736, Note_on_c, 9, 35, 115
3, 20745, Note_on_c, 9, 42, 0
3, 20745, Note_on_c, 9, 54, 0
3, 20745, Note_on_c, 9, 35, 0
3, 20760, Note_on_c, 9, 54, 60
3, 20769, Note_on_c, 9, 54, 0
3, 20784, Note_on_c, 9, 54, 80
3, 20793, Note_on_c, 9, 54, 0
3, 20808, Note_on_c, 9, 54, 60
3, 20817, Note_on_c, 9, 54, 0
3, 20832, Note_on_c, 9, 42, 105
3, 20832, Note_on_c, 9, 54, 115
3, 20832, Note_on_c, 9, 38, 100
3, 20841, Note_on_c, 9, 42, 0
3, 20841, Note_on_c, 9, 54, 0
3, 20841, Note_on_c, 9, 38, 0
3, 20856, Note_on_c, 9, 54, 60
3, 20865, Note_on_c, 9, 54, 0
3, 20880, Note_on_c, 9, 54, 80
3, 20889, Note_on_c, 9, 54, 0
3, 20904, Note_on_c, 9, 54, 60
3, 20913, Note_on_c, 9, 54, 0
3, 20928, Note_on_c, 9, 42, 105
3, 20928, Note_on_c, 9, 54, 115
3, 20928, Note_on_c, 9, 35, 115
3, 20937, Note_on_c, 9, 42, 0
3, 20937, Note_on_c, 9, 54, 0
3, 20937, Note_on_c, 9, 35, 0
3, 20952, Note_on_c, 9, 54, 60
3, 20961, Note_on_c, 9, 54, 0
3, 20976, Note_on_c, 9, 54, 80
3, 20976, Note_on_c, 9, 35, 115
3, 20985, Note_on_c, 9, 54, 0
3, 20985, Note_on_c, 9, 35, 0
3, 21000, Note_on_c, 9, 54, 60
3, 21009, Note_on_c, 9, 54, 0
3, 21024, Note_on_c, 9, 42, 105
3, 21024, Note_on_c, 9, 54, 115
3, 21024, Note_on_c, 9, 38, 100
3, 21033, Note_on_c, 9, 42, 0
3, 21033, Note_on_c, 9, 54, 0
3, 21033, Note_on_c, 9, 38, 0
3, 21048, Note_on_c, 9, 54, 60
3, 21057, Note_on_c, 9, 54, 0
3, 21072, Note_on_c, 9, 54, 80
3, 21072, Note_on_c, 9, 35, 115
3, 21081, Note_on_c, 9, 54, 0
3, 21081, Note_on_c, 9, 35, 0
3, 21096, Note_on_c, 9, 54, 60
3, 21105, Note_on_c, 9, 54, 0
3, 21120, Note_on_c, 9, 42, 105
3, 21120, Note_on_c, 9, 54, 115
3, 21120, Note_on_c, 9, 35, 115
3, 21129, Note_on_c, 9, 42, 0
3, 21129, Note_on_c, 9, 54, 0
3, 21129, Note_on_c, 9, 35, 0
3, 21144, Note_on_c, 9, 54, 60
3, 21153, Note_on_c, 9, 54, 0
3, 21168, Note_on_c, 9, 54, 80
3, 21177, Note_on_c, 9, 54, 0
3, 21192, Note_on_c, 9, 54, 60
3, 21201, Note_on_c, 9, 54, 0
3, 21216, Note_on_c, 9, 42, 105
3, 21216, Note_on_c, 9, 54, 115
3, 21216, Note_on_c, 9, 38, 100
3, 21225, Note_on_c, 9, 42, 0
3, 21225, Note_on_c, 9, 54, 0
3, 21225, Note_on_c, 9, 38, 0
3, 21240, Note_on_c, 9, 54, 60
3, 21249, Note_on_c, 9, 54, 0
3, 21264, Note_on_c, 9, 54, 80
3, 21273, Note_on_c, 9, 54, 0
3, 21288, Note_on_c, 9, 54, 60
3, 21297, Note_on_c, 9, 54, 0
3, 21312, Note_on_c, 9, 42, 105
3, 21312, Note_on_c, 9, 54, 115
3, 21312, Note_on_c, 9, 35, 115
3, 21321, Note_on_c, 9, 42, 0
3, 21321, Note_on_c, 9, 54, 0
3, 21321, Note_on_c, 9, 35, 0
3, 21336, Note_on_c, 9, 54, 60
3, 21345, Note_on_c, 9, 54, 0
3, 21360, Note_on_c, 9, 54, 80
3, 21360, Note_on_c, 9, 35, 115
3, 21369, Note_on_c, 9, 54, 0
3, 21369, Note_on_c, 9, 35, 0
3, 21384, Note_on_c, 9, 54, 60
3, 21393, Note_on_c, 9, 54, 0
3, 21408, Note_on_c, 9, 42, 105
3, 21408, Note_on_c, 9, 54, 115
3, 21408, Note_on_c, 9, 38, 100
3, 21417, Note_on_c, 9, 42, 0
3, 21417, Note_on_c, 9, 54, 0
3, 21417, Note_on_c, 9, 38, 0
3, 21432, Note_on_c, 9, 54, 60
3, 21441, Note_on_c, 9, 54, 0
3, 21456, Note_on_c, 9, 54, 80
3, 21456, Note_on_c, 9, 35, 115
3, 21465, Note_on_c, 9, 54, 0
3, 21465, Note_on_c, 9, 35, 0
3, 21480, Note_on_c, 9, 54, 60
3, 21489, Note_on_c, 9, 54, 0
3, 21504, Note_on_c, 9, 42, 105
3, 21504, Note_on_c, 9, 54, 115
3, 21504, Note_on_c, 9, 35, 115
3, 21513, Note_on_c, 9, 42, 0
3, 21513, Note_on_c, 9, 54, 0
3, 21513, Note_on_c, 9, 35, 0
3, 21528, Note_on_c, 9, 54, 60
3, 21537, Note_on_c, 9, 54, 0
3, 21552, Note_on_c, 9, 54, 80
3, 21561, Note_on_c, 9, 54, 0
3, 21576, Note_on_c, 9, 54, 60
3, 21585, Note_on_c, 9, 54, 0
3, 21600, Note_on_c, 9, 42, 105
3, 21600, Note_on_c, 9, 54, 115
3, 21600, Note_on_c, 9, 38, 100
3, 21609, Note_on_c, 9, 42, 0
3, 21609, Note_on_c, 9, 54, 0
3, 21609, Note_on_c, 9, 38, 0
3, 21624, Note_on_c, 9, 54, 60
3, 21633, Note_on_c, 9, 54, 0
3, 21648, Note_on_c, 9, 54, 80
3, 21657, Note_on_c, 9, 54, 0
3, 21672, Note_on_c, 9, 54, 60
3, 21681, Note_on_c, 9, 54, 0
3, 21696, Note_on_c, 9, 42, 105
3, 21696, Note_on_c, 9, 54, 115
3, 21696, Note_on_c, 9, 35, 115
3, 21705, Note_on_c, 9, 42, 0
3, 21705, Note_on_c, 9, 54, 0
3, 21705, Note_on_c, 9, 35, 0
3, 21720, Note_on_c, 9, 54, 60
3, 21729, Note_on_c, 9, 54, 0
3, 21744, Note_on_c, 9, 54, 80
3, 21744, Note_on_c, 9, 35, 115
3, 21753, Note_on_c, 9, 54, 0
3, 21753, Note_on_c, 9, 35, 0
3, 21768, Note_on_c, 9, 54, 60
3, 21777, Note_on_c, 9, 54, 0
3, 21792, Note_on_c, 9, 42, 105
3, 21792, Note_on_c, 9, 54, 115
3, 21792, Note_on_c, 9, 38, 100
3, 21801, Note_on_c, 9, 42, 0
3, 21801, Note_on_c, 9, 54, 0
3, 21801, Note_on_c, 9, 38, 0
3, 21816, Note_on_c, 9, 54, 60
3, 21825, Note_on_c, 9, 54, 0
3, 21840, Note_on_c, 9, 54, 80
3, 21840, Note_on_c, 9, 35, 115
3, 21849, Note_on_c, 9, 54, 0
3, 21849, Note_on_c, 9, 35, 0
3, 21864, Note_on_c, 9, 54, 60
3, 21873, Note_on_c, 9, 54, 0
3, 21888, Note_on_c, 9, 42, 105
3, 21888, Note_on_c, 9, 54, 115
3, 21888, Note_on_c, 9, 35, 115
3, 21897, Note_on_c, 9, 42, 0
3, 21897, Note_on_c, 9, 54, 0
3, 21897, Note_on_c, 9, 35, 0
3, 21912, Note_on_c, 9, 54, 60
3, 21921, Note_on_c, 9, 54, 0
3, 21936, Note_on_c, 9, 54, 80
3, 21945, Note_on_c, 9, 54, 0
3, 21960, Note_on_c, 9, 54, 60
3, 21969, Note_on_c, 9, 54, 0
3, 21984, Note_on_c, 9, 42, 105
3, 21984, Note_on_c, 9, 54, 115
3, 21984, Note_on_c, 9, 38, 100
3, 21993, Note_on_c, 9, 42, 0
3, 21993, Note_on_c, 9, 54, 0
3, 21993, Note_on_c, 9, 38, 0
3, 22008, Note_on_c, 9, 54, 60
3, 22017, Note_on_c, 9, 54, 0
3, 22032, Note_on_c, 9, 54, 80
3, 22041, Note_on_c, 9, 54, 0
3, 22056, Note_on_c, 9, 54, 60
3, 22065, Note_on_c, 9, 54, 0
3, 22080, Note_on_c, 9, 42, 105
3, 22080, Note_on_c, 9, 54, 115
3, 22080, Note_on_c, 9, 35, 115
3, 22089, Note_on_c, 9, 42, 0
3, 22089, Note_on_c, 9, 54, 0
3, 22089, Note_on_c, 9, 35, 0
3, 22104, Note_on_c, 9, 54, 60
3, 22113, Note_on_c, 9, 54, 0
3, 22128, Note_on_c, 9, 54, 80
3, 22128, Note_on_c, 9, 35, 115
3, 22137, Note_on_c, 9, 54, 0
3, 22137, Note_on_c, 9, 35, 0
3, 22152, Note_on_c, 9, 54, 60
3, 22161, Note_on_c, 9, 54, 0
3, 22176, Note_on_c, 9, 42, 105
3, 22176, Note_on_c, 9, 54, 115
3, 22176, Note_on_c, 9, 38, 100
3, 22185, Note_on_c, 9, 42, 0
3, 22185, Note_on_c, 9, 54, 0
3, 22185, Note_on_c, 9, 38, 0
3, 22200, Note_on_c, 9, 54, 60
3, 22209, Note_on_c, 9, 54, 0
3, 22224, Note_on_c, 9, 54, 80
3, 22224, Note_on_c, 9, 35, 115
3, 22233, Note_on_c, 9, 54, 0
3, 22233, Note_on_c, 9, 35, 0
3, 22248, Note_on_c, 9, 54, 60
3, 22257, Note_on_c, 9, 54, 0
3, 22272, Note_on_c, 9, 42, 105
3, 22272, Note_on_c, 9, 54, 115
3, 22272, Note_on_c, 9, 35, 115
3, 22281, Note_on_c, 9, 42, 0
3, 22281, Note_on_c, 9, 54, 0
3, 22281, Note_on_c, 9, 35, 0
3, 22296, Note_on_c, 9, 54, 60
3, 22305, Note_on_c, 9, 54, 0
3, 22320, Note_on_c, 9, 54, 80
3, 22329, Note_on_c, 9, 54, 0
3, 22344, Note_on_c, 9, 54, 60
3, 22353, Note_on_c, 9, 54, 0
3, 22368, Note_on_c, 9, 42, 105
3, 22368, Note_on_c, 9, 54, 115
3, 22368, Note_on_c, 9, 38, 100
3, 22377, Note_on_c, 9, 42, 0
3, 22377, Note_on_c, 9, 54, 0
3, 22377, Note_on_c, 9, 38, 0
3, 22392, Note_on_c, 9, 54, 60
3, 22401, Note_on_c, 9, 54, 0
3, 22416, Note_on_c, 9, 54, 80
3, 22425, Note_on_c, 9, 54, 0
3, 22440, Note_on_c, 9, 54, 60
3, 22449, Note_on_c, 9, 54, 0
3, 22464, Note_on_c, 9, 42, 105
3, 22464, Note_on_c, 9, 54, 115
3, 22464, Note_on_c, 9, 35, 115
3, 22473, Note_on_c, 9, 42, 0
3, 22473, Note_on_c, 9, 54, 0
3, 22473, Note_on_c, 9, 35, 0
3, 22488, Note_on_c, 9, 54, 60
3, 22497, Note_on_c, 9, 54, 0
3, 22512, Note_on_c, 9, 54, 80
3, 22512, Note_on_c, 9, 35, 115
3, 22521, Note_on_c, 9, 54, 0
3, 22521, Note_on_c, 9, 35, 0
3, 22536, Note_on_c, 9, 54, 60
3, 22545, Note_on_c, 9, 54, 0
3, 22560, Note_on_c, 9, 42, 105
3, 22560, Note_on_c, 9, 54, 115
3, 22560, Note_on_c, 9, 38, 100
3, 22569, Note_on_c, 9, 42, 0
3, 22569, Note_on_c, 9, 54, 0
3, 22569, Note_on_c, 9, 38, 0
3, 22584, Note_on_c, 9, 54, 60
3, 22593, Note_on_c, 9, 54, 0
3, 22608, Note_on_c, 9, 54, 80
3, 22608, Note_on_c, 9, 35, 115
3, 22617, Note_on_c, 9, 54, 0
3, 22617, Note_on_c, 9, 35, 0
3, 22632, Note_on_c, 9, 54, 60
3, 22641, Note_on_c, 9, 54, 0
3, 22656, Note_on_c, 9, 42, 105
3, 22656, Note_on_c, 9, 54, 115
3, 22656, Note_on_c, 9, 35, 115
3, 22665, Note_on_c, 9, 42, 0
3, 22665, Note_on_c, 9, 54, 0
3, 22665, Note_on_c, 9, 35, 0
3, 22680, Note_on_c, 9, 54, 60
3, 22689, Note_on_c, 9, 54, 0
3, 22704, Note_on_c, 9, 54, 80
3, 22713, Note_on_c, 9, 54, 0
3, 22728, Note_on_c, 9, 54, 60
3, 22737, Note_on_c, 9, 54, 0
3, 22752, Note_on_c, 9, 42, 105
3, 22752, Note_on_c, 9, 54, 115
3, 22752, Note_on_c, 9, 38, 100
3, 22761, Note_on_c, 9, 42, 0
3, 22761, Note_on_c, 9, 54, 0
3, 22761, Note_on_c, 9, 38, 0
3, 22776, Note_on_c, 9, 54, 60
3, 22785, Note_on_c, 9, 54, 0
3, 22800, Note_on_c, 9, 54, 80
3, 22809, Note_on_c, 9, 54, 0
3, 22824, Note_on_c, 9, 54, 60
3, 22833, Note_on_c, 9, 54, 0
3, 22848, Note_on_c, 9, 42, 105
3, 22848, Note_on_c, 9, 54, 115
3, 22848, Note_on_c, 9, 35, 115
3, 22857, Note_on_c, 9, 42, 0
3, 22857, Note_on_c, 9, 54, 0
3, 22857, Note_on_c, 9, 35, 0
3, 22872, Note_on_c, 9, 54, 60
3, 22881, Note_on_c, 9, 54, 0
3, 22896, Note_on_c, 9, 54, 80
3, 22896, Note_on_c, 9, 35, 115
3, 22905, Note_on_c, 9, 54, 0
3, 22905, Note_on_c, 9, 35, 0
3, 22920, Note_on_c, 9, 54, 60
3, 22929, Note_on_c, 9, 54, 0
3, 22944, Note_on_c, 9, 42, 105
3, 22944, Note_on_c, 9, 54, 115
3, 22944, Note_on_c, 9, 38, 100
3, 22953, Note_on_c, 9, 42, 0
3, 22953, Note_on_c, 9, 54, 0
3, 22953, Note_on_c, 9, 38, 0
3, 22968, Note_on_c, 9, 54, 60
3, 22977, Note_on_c, 9, 54, 0
3, 22992, Note_on_c, 9, 54, 80
3, 22992, Note_on_c, 9, 35, 115
3, 23001, Note_on_c, 9, 54, 0
3, 23001, Note_on_c, 9, 35, 0
3, 23016, Note_on_c, 9, 54, 60
3, 23025, Note_on_c, 9, 54, 0
3, 23040, Note_on_c, 9, 42, 105
3, 23040, Note_on_c, 9, 54, 115
3, 23040, Note_on_c, 9, 35, 115
3, 23049, Note_on_c, 9, 42, 0
3, 23049, Note_on_c, 9, 54, 0
3, 23049, Note_on_c, 9, 35, 0
3, 23064, Note_on_c, 9, 54, 60
3, 23073, Note_on_c, 9, 54, 0
3, 23088, Note_on_c, 9, 54, 80
3, 23097, Note_on_c, 9, 54, 0
3, 23112, Note_on_c, 9, 54, 60
3, 23121, Note_on_c, 9, 54, 0
3, 23136, Note_on_c, 9, 42, 105
3, 23136, Note_on_c, 9, 54, 115
3, 23136, Note_on_c, 9, 38, 100
3, 23145, Note_on_c, 9, 42, 0
3, 23145, Note_on_c, 9, 54, 0
3, 23145, Note_on_c, 9, 38, 0
3, 23160, Note_on_c, 9, 54, 60
3, 23169, Note_on_c, 9, 54, 0
3, 23184, Note_on_c, 9, 54, 80
3, 23193, Note_on_c, 9, 54, 0
3, 23208, Note_on_c, 9, 54, 60
3, 23217, Note_on_c, 9, 54, 0
3, 23232, Note_on_c, 9, 42, 105
3, 23232, Note_on_c, 9, 54, 115
3, 23232, Note_on_c, 9, 35, 115
3, 23241, Note_on_c, 9, 42, 0
3, 23241, Note_on_c, 9, 54, 0
3, 23241, Note_on_c, 9, 35, 0
3, 23256, Note_on_c, 9, 54, 60
3, 23265, Note_on_c, 9, 54, 0
3, 23280, Note_on_c, 9, 54, 80
3, 23280, Note_on_c, 9, 35, 115
3, 23289, Note_on_c, 9, 54, 0
3, 23289, Note_on_c, 9, 35, 0
3, 23304, Note_on_c, 9, 54, 60
3, 23313, Note_on_c, 9, 54, 0
3, 23328, Note_on_c, 9, 42, 105
3, 23328, Note_on_c, 9, 54, 115
3, 23328, Note_on_c, 9, 38, 100
3, 23337, Note_on_c, 9, 42, 0
3, 23337, Note_on_c, 9, 54, 0
3, 23337, Note_on_c, 9, 38, 0
3, 23352, Note_on_c, 9, 54, 60
3, 23361, Note_on_c, 9, 54, 0
3, 23376, Note_on_c, 9, 54, 80
3, 23376, Note_on_c, 9, 35, 115
3, 23385, Note_on_c, 9, 54, 0
3, 23385, Note_on_c, 9, 35, 0
3, 23400, Note_on_c, 9, 54, 60
3, 23409, Note_on_c, 9, 54, 0
3, 23424, Note_on_c, 9, 42, 105
3, 23424, Note_on_c, 9, 54, 115
3, 23424, Note_on_c, 9, 35, 115
3, 23433, Note_on_c, 9, 42, 0
3, 23433, Note_on_c, 9, 54, 0
3, 23433, Note_on_c, 9, 35, 0
3, 23448, Note_on_c, 9, 54, 60
3, 23457, Note_on_c, 9, 54, 0
3, 23472, Note_on_c, 9, 54, 80
3, 23481, Note_on_c, 9, 54, 0
3, 23496, Note_on_c, 9, 54, 60
3, 23505, Note_on_c, 9, 54, 0
3, 23520, Note_on_c, 9, 42, 105
3, 23520, Note_on_c, 9, 35, 115
3, 23520, Note_on_c, 9, 38, 100
3, 23520, Note_on_c, 9, 54, 115
3, 23529, Note_on_c, 9, 42, 0
3, 23529, Note_on_c, 9, 35, 0
3, 23529, Note_on_c, 9, 38, 0
3, 23529, Note_on_c, 9, 54, 0
3, 23544, Note_on_c, 9, 54, 60
3, 23553, Note_on_c, 9, 54, 0
3, 23568, Note_on_c, 9, 54, 80
3, 23577, Note_on_c, 9, 54, 0
3, 23592, Note_on_c, 9, 54, 60
3, 23601, Note_on_c, 9, 54, 0
3, 23616, Note_on_c, 9, 42, 105
3, 23616, Note_on_c, 9, 54, 115
3, 23616, Note_on_c, 9, 35, 115
3, 23625, Note_on_c, 9, 42, 0
3, 23625, Note_on_c, 9, 54, 0
3, 23625, Note_on_c, 9, 35, 0
3, 23640, Note_on_c, 9, 54, 60
3, 23649, Note_on_c, 9, 54, 0
3, 23664, Note_on_c, 9, 54, 80
3, 23664, Note_on_c, 9, 35, 115
3, 23673, Note_on_c, 9, 54, 0
3, 23673, Note_on_c, 9, 35, 0
3, 23688, Note_on_c, 9, 54, 60
3, 23697, Note_on_c, 9, 54, 0
3, 23712, Note_on_c, 9, 42, 105
3, 23712, Note_on_c, 9, 54, 115
3, 23712, Note_on_c, 9, 38, 100
3, 23721, Note_on_c, 9, 42, 0
3, 23721, Note_on_c, 9, 54, 0
3, 23721, Note_on_c, 9, 38, 0
3, 23736, Note_on_c, 9, 54, 60
3, 23745, Note_on_c, 9, 54, 0
3, 23760, Note_on_c, 9, 54, 80
3, 23760, Note_on_c, 9, 35, 115
3, 23769, Note_on_c, 9, 54, 0
3, 23769, Note_on_c, 9, 35, 0
3, 23784, Note_on_c, 9, 54, 60
3, 23793, Note_on_c, 9, 54, 0
3, 23808, Note_on_c, 9, 42, 105
3, 23808, Note_on_c, 9, 54, 115
3, 23808, Note_on_c, 9, 35, 115
3, 23817, Note_on_c, 9, 42, 0
3, 23817, Note_on_c, 9, 54, 0
3, 23817, Note_on_c, 9, 35, 0
3, 23832, Note_on_c, 9, 54, 60
3, 23841, Note_on_c, 9, 54, 0
3, 23856, Note_on_c, 9, 54, 80
3, 23865, Note_on_c, 9, 54, 0
3, 23880, Note_on_c, 9, 54, 60
3, 23889, Note_on_c, 9, 54, 0
3, 23904, Note_on_c, 9, 42, 105
3, 23904, Note_on_c, 9, 54, 115
3, 23904, Note_on_c, 9, 38, 100
3, 23904, Note_on_c, 9, 35, 115
3, 23913, Note_on_c, 9, 42, 0
3, 23913, Note_on_c, 9, 54, 0
3, 23913, Note_on_c, 9, 38, 0
3, 23913, Note_on_c, 9, 35, 0
3, 23928, Note_on_c, 9, 54, 60
3, 23937, Note_on_c, 9, 54, 0
3, 23952, Note_on_c, 9, 54, 80
3, 23961, Note_on_c, 9, 54, 0
3, 23976, Note_on_c, 9, 54, 60
3, 23985, Note_on_c, 9, 54, 0
3, 24000, Note_on_c, 9, 42, 105
3, 24000, Note_on_c, 9, 54, 115
3, 24000, Note_on_c, 9, 35, 115
3, 24009, Note_on_c, 9, 42, 0
3, 24009, Note_on_c, 9, 54, 0
3, 24009, Note_on_c, 9, 35, 0
3, 24024, Note_on_c, 9, 54, 60
3, 24033, Note_on_c, 9, 54, 0
3, 24048, Note_on_c, 9, 54, 80
3, 24048, Note_on_c, 9, 35, 115
3, 24057, Note_on_c, 9, 54, 0
3, 24057, Note_on_c, 9, 35, 0
3, 24072, Note_on_c, 9, 54, 60
3, 24081, Note_on_c, 9, 54, 0
3, 24096, Note_on_c, 9, 42, 105
3, 24096, Note_on_c, 9, 54, 115
3, 24096, Note_on_c, 9, 38, 100
3, 24105, Note_on_c, 9, 42, 0
3, 24105, Note_on_c, 9, 54, 0
3, 24105, Note_on_c, 9, 38, 0
3, 24120, Note_on_c, 9, 54, 60
3, 24129, Note_on_c, 9, 54, 0
3, 24144, Note_on_c, 9, 54, 80
3, 24144, Note_on_c, 9, 35, 115
3, 24153, Note_on_c, 9, 54, 0
3, 24153, Note_on_c, 9, 35, 0
3, 24168, Note_on_c, 9, 54, 60
3, 24177, Note_on_c, 9, 54, 0
3, 24192, Note_on_c, 9, 42, 105
3, 24192, Note_on_c, 9, 54, 115
3, 24192, Note_on_c, 9, 35, 115
3, 24201, Note_on_c, 9, 42, 0
3, 24201, Note_on_c, 9, 54, 0
3, 24201, Note_on_c, 9, 35, 0
3, 24216, Note_on_c, 9, 54, 60
3, 24225, Note_on_c, 9, 54, 0
3, 24240, Note_on_c, 9, 54, 80
3, 24249, Note_on_c, 9, 54, 0
3, 24264, Note_on_c, 9, 54, 60
3, 24273, Note_on_c, 9, 54, 0
3, 24288, Note_on_c, 9, 42, 105
3, 24288, Note_on_c, 9, 54, 115
3, 24288, Note_on_c, 9, 38, 100
3, 24288, Note_on_c, 9, 35, 115
3, 24297, Note_on_c, 9, 42, 0
3, 24297, Note_on_c, 9, 54, 0
3, 24297, Note_on_c, 9, 38, 0
3, 24297, Note_on_c, 9, 35, 0
3, 24312, Note_on_c, 9, 54, 60
3, 24321, Note_on_c, 9, 54, 0
3, 24336, Note_on_c, 9, 54, 80
3, 24345, Note_on_c, 9, 54, 0
3, 24360, Note_on_c, 9, 54, 60
3, 24369, Note_on_c, 9, 54, 0
3, 24384, Note_on_c, 9, 42, 105
3, 24384, Note_on_c, 9, 54, 115
3, 24384, Note_on_c, 9, 35, 115
3, 24393, Note_on_c, 9, 42, 0
3, 24393, Note_on_c, 9, 54, 0
3, 24393, Note_on_c, 9, 35, 0
3, 24408, Note_on_c, 9, 54, 60
3, 24417, Note_on_c, 9, 54, 0
3, 24432, Note_on_c, 9, 54, 80
3, 24432, Note_on_c, 9, 35, 115
3, 24441, Note_on_c, 9, 54, 0
3, 24441, Note_on_c, 9, 35, 0
3, 24456, Note_on_c, 9, 54, 60
3, 24465, Note_on_c, 9, 54, 0
3, 24480, Note_on_c, 9, 42, 105
3, 24480, Note_on_c, 9, 54, 115
3, 24480, Note_on_c, 9, 38, 100
3, 24489, Note_on_c, 9, 42, 0
3, 24489, Note_on_c, 9, 54, 0
3, 24489, Note_on_c, 9, 38, 0
3, 24504, Note_on_c, 9, 54, 60
3, 24513, Note_on_c, 9, 54, 0
3, 24528, Note_on_c, 9, 54, 80
3, 24528, Note_on_c, 9, 35, 115
3, 24537, Note_on_c, 9, 54, 0
3, 24537, Note_on_c, 9, 35, 0
3, 24552, Note_on_c, 9, 54, 60
3, 24561, Note_on_c, 9, 54, 0
3, 24576, Note_on_c, 9, 54, 41
3, 24576, Note_on_c, 9, 49, 100
3, 24576, Note_on_c, 9, 35, 115
3, 24585, Note_on_c, 9, 54, 0
3, 24585, Note_on_c, 9, 49, 0
3, 24585, Note_on_c, 9, 35, 0
3, 24588, Note_on_c, 9, 54, 52
3, 24597, Note_on_c, 9, 54, 0
3, 24600, Note_on_c, 9, 54, 44
3, 24609, Note_on_c, 9, 54, 0
3, 24612, Note_on_c, 9, 54, 57
3, 24621, Note_on_c, 9, 54, 0
3, 24624, Note_on_c, 9, 54, 52
3, 24633, Note_on_c, 9, 54, 0
3, 24636, Note_on_c, 9, 54, 50
3, 24645, Note_on_c, 9, 54, 0
3, 24648, Note_on_c, 9, 54, 48
3, 24657, Note_on_c, 9, 54, 0
3, 24660, Note_on_c, 9, 54, 58
3, 24669, Note_on_c, 9, 54, 0
3, 24672, Note_on_c, 9, 54, 57
3, 24681, Note_on_c, 9, 54, 0
3, 24684, Note_on_c, 9, 54, 55
3, 24693, Note_on_c, 9, 54, 0
3, 24696, Note_on_c, 9, 54, 44
3, 24705, Note_on_c, 9, 54, 0
3, 24708, Note_on_c, 9, 54, 58
3, 24717, Note_on_c, 9, 54, 0
3, 24720, Note_on_c, 9, 54, 55
3, 24729, Note_on_c, 9, 54, 0
3, 24732, Note_on_c, 9, 54, 51
3, 24741, Note_on_c, 9, 54, 0
3, 24744, Note_on_c, 9, 54, 47
3, 24753, Note_on_c, 9, 54, 0
3, 24756, Note_on_c, 9, 54, 41
3, 24765, Note_on_c, 9, 54, 0
3, 24768, Note_on_c, 9, 54, 42
3, 24777, Note_on_c, 9, 54, 0
3, 24780, Note_on_c, 9, 54, 48
3, 24789, Note_on_c, 9, 54, 0
3, 24792, Note_on_c, 9, 54, 43
3, 24801, Note_on_c, 9, 54, 0
3, 24804, Note_on_c, 9, 54, 44
3, 24813, Note_on_c, 9, 54, 0
3, 24816, Note_on_c, 9, 54, 60
3, 24825, Note_on_c, 9, 54, 0
3, 24828, Note_on_c, 9, 54, 49
3, 24837, Note_on_c, 9, 54, 0
3, 24840, Note_on_c, 9, 54, 43
3, 24849, Note_on_c, 9, 54, 0
3, 24852, Note_on_c, 9, 54, 41
3, 24861, Note_on_c, 9, 54, 0
3, 24864, Note_on_c, 9, 54, 41
3, 24873, Note_on_c, 9, 54, 0
3, 24876, Note_on_c, 9, 54, 48
3, 24885, Note_on_c, 9, 54, 0
3, 24888, Note_on_c, 9, 54, 51
3, 24897, Note_on_c, 9, 54, 0
3, 24900, Note_on_c, 9, 54, 52
3, 24909, Note_on_c, 9, 54, 0
3, 24912, Note_on_c, 9, 54, 53
3, 24921, Note_on_c, 9, 54, 0
3, 24924, Note_on_c, 9, 54, 53
3, 24933, Note_on_c, 9, 54, 0
3, 24936, Note_on_c, 9, 54, 44
3, 24945, Note_on_c, 9, 54, 0
3, 24948, Note_on_c, 9, 54, 54
3, 24957, Note_on_c, 9, 54, 0
3, 24960, Note_on_c, 9, 54, 50
3, 24960, Control_c, 9, 11, 127
3, 24969, Note_on_c, 9, 54, 0
3, 24970, Control_c, 9, 11, 126
3, 24972, Note_on_c, 9, 54, 48
3, 24980, Control_c, 9, 11, 125
3, 24981, Note_on_c, 9, 54, 0
3, 24984, Note_on_c, 9, 54, 42
3, 24990, Control_c, 9, 11, 124
3, 24993, Note_on_c, 9, 54, 0
3, 24996, Note_on_c, 9, 54, 53
3, 25000, Control_c, 9, 11, 123
3, 25005, Note_on_c, 9, 54, 0
3, 25008, Note_on_c, 9, 54, 56
3, 25010, Control_c, 9, 11, 122
3, 25017, Note_on_c, 9, 54, 0
3, 25020, Note_on_c, 9, 54, 57
3, 25020, Control_c, 9, 11, 121
3, 25029, Note_on_c, 9, 54, 0
3, 25030, Control_c, 9, 11, 120
3, 25032, Note_on_c, 9, 54, 51
3, 25040, Control_c, 9, 11, 119
3, 25041, Note_on_c, 9, 54, 0
3, 25044, Note_on_c, 9, 54, 47
3, 25050, Control_c, 9, 11, 118
3, 25053, Note_on_c, 9, 54, 0
3, 25056, Note_on_c, 9, 54, 58
3, 25060, Control_c, 9, 11, 117
3, 25065, Note_on_c, 9, 54, 0
3, 25068, Note_on_c, 9, 54, 55
3, 25070, Control_c, 9, 11, 116
3, 25077, Note_on_c, 9, 54, 0
3, 25080, Note_on_c, 9, 54, 60
3, 25080, Control_c, 9, 11, 115
3, 25089, Note_on_c, 9, 54, 0
3, 25089, Control_c, 9, 11, 114
3, 25092, Note_on_c, 9, 54, 59
3, 25099, Control_c, 9, 11, 113
3, 25101, Note_on_c, 9, 54, 0
3, 25104, Note_on_c, 9, 54, 51
3, 25109, Control_c, 9, 11, 112
3, 25113, Note_on_c, 9, 54, 0
3, 25116, Note_on_c, 9, 54, 43
3, 25119, Control_c, 9, 11, 111
3, 25125, Note_on_c, 9, 54, 0
3, 25128, Note_on_c, 9, 54, 50
3, 25129, Control_c, 9, 11, 110
3, 25137, Note_on_c, 9, 54, 0
3, 25139, Control_c, 9, 11, 109
3, 25140, Note_on_c, 9, 54, 45
3, 25149, Note_on_c, 9, 54, 0
3, 25149, Control_c, 9, 11, 108
3, 25152, Note_on_c, 9, 54, 58
3, 25159, Control_c, 9, 11, 107
3, 25161, Note_on_c, 9, 54, 0
3, 25164, Note_on_c, 9, 54, 45
3, 25169, Control_c, 9, 11, 106
3, 25173, Note_on_c, 9, 54, 0
3, 25176, Note_on_c, 9, 54, 56
3, 25179, Control_c, 9, 11, 105
3, 25185, Note_on_c, 9, 54, 0
3, 25188, Note_on_c, 9, 54, 57
3, 25189, Control_c, 9, 11, 104
3, 25197, Note_on_c, 9, 54, 0
3, 25199, Control_c, 9, 11, 103
3, 25200, Note_on_c, 9, 54, 60
3, 25209, Note_on_c, 9, 54, 0
3, 25209, Control_c, 9, 11, 102
3, 25212, Note_on_c, 9, 54, 60
3, 25219, Control_c, 9, 11, 101
3, 25221, Note_on_c, 9, 54, 0
3, 25224, Note_on_c, 9, 54, 53
3, 25229, Control_c, 9, 11, 100
3, 25233, Note_on_c, 9, 54, 0
3, 25236, Note_on_c, 9, 54, 48
3, 25239, Control_c, 9, 11, 99
3, 25245, Note_on_c, 9, 54, 0
3, 25248, Note_on_c, 9, 54, 46
3, 25249, Control_c, 9, 11, 98
3, 25257, Note_on_c, 9, 54, 0
3, 25259, Control_c, 9, 11, 97
3, 25260, Note_on_c, 9, 54, 46
3, 25269, Note_on_c, 9, 54, 0
3, 25269, Control_c, 9, 11, 96
3, 25272, Note_on_c, 9, 54, 57
3, 25279, Control_c, 9, 11, 95
3, 25281, Note_on_c, 9, 54, 0
3, 25284, Note_on_c, 9, 54, 41
3, 25289, Control_c, 9, 11, 94
3, 25293, Note_on_c, 9, 54, 0
3, 25296, Note_on_c, 9, 54, 48
3, 25299, Control_c, 9, 11, 93
3, 25305, Note_on_c, 9, 54, 0
3, 25308, Note_on_c, 9, 54, 42
3, 25309, Control_c, 9, 11, 92
3, 25317, Note_on_c, 9, 54, 0
3, 25319, Control_c, 9, 11, 91
3, 25320, Note_on_c, 9, 54, 54
3, 25329, Note_on_c, 9, 54, 0
3, 25329, Control_c, 9, 11, 90
3, 25332, Note_on_c, 9, 54, 42
3, 25339, Control_c, 9, 11, 89
3, 25341, Note_on_c, 9, 54, 0
3, 25344, Note_on_c, 9, 54, 41
3, 25348, Control_c, 9, 11, 88
3, 25353, Note_on_c, 9, 54, 0
3, 25356, Note_on_c, 9, 54, 59
3, 25358, Control_c, 9, 11, 87
3, 25365, Note_on_c, 9, 54, 0
3, 25368, Note_on_c, 9, 54, 46
3, 25368, Control_c, 9, 11, 86
3, 25377, Note_on_c, 9, 54, 0
3, 25378, Control_c, 9, 11, 85
3, 25380, Note_on_c, 9, 54, 46
3, 25388, Control_c, 9, 11, 84
3, 25389, Note_on_c, 9, 54, 0
3, 25392, Note_on_c, 9, 54, 52
3, 25398, Control_c, 9, 11, 83
3, 25401, Note_on_c, 9, 54, 0
3, 25404, Note_on_c, 9, 54, 54
3, 25408, Control_c, 9, 11, 82
3, 25413, Note_on_c, 9, 54, 0
3, 25416, Note_on_c, 9, 54, 57
3, 25418, Control_c, 9, 11, 81
3, 25425, Note_on_c, 9, 54, 0
3, 25428, Note_on_c, 9, 54, 55
3, 25428, Control_c, 9, 11, 80
3, 25437, Note_on_c, 9, 54, 0
3, 25438, Control_c, 9, 11, 79
3, 25440, Note_on_c, 9, 54, 50
3, 25448, Control_c, 9, 11, 78
3, 25449, Note_on_c, 9, 54, 0
3, 25452, Note_on_c, 9, 54, 45
3, 25458, Control_c, 9, 11, 77
3, 25461, Note_on_c, 9, 54, 0
3, 25464, Note_on_c, 9, 54, 55
3, 25468, Control_c, 9, 11, 76
3, 25473, Note_on_c, 9, 54, 0
3, 25476, Note_on_c, 9, 54, 50
3, 25478, Control_c, 9, 11, 75
3, 25485, Note_on_c, 9, 54, 0
3, 25488, Note_on_c, 9, 54, 50
3, 25488, Control_c, 9, 11, 74
3, 25497, Note_on_c, 9, 54, 0
3, 25498, Control_c, 9, 11, 73
3, 25500, Note_on_c, 9, 54, 59
3, 25508, Control_c, 9, 11, 72
3, 25509, Note_on_c, 9, 54, 0
3, 25512, Note_on_c, 9, 54, 55
3, 25518, Control_c, 9, 11, 71
3, 25521, Note_on_c, 9, 54, 0
3, 25524, Note_on_c, 9, 54, 43
3, 25528, Control_c, 9, 11, 70
3, 25533, Note_on_c, 9, 54, 0
3, 25536, Note_on_c, 9, 54, 52
3, 25538, Control_c, 9, 11, 69
3, 25545, Note_on_c, 9, 54, 0
3, 25548, Note_on_c, 9, 54, 48
3, 25548, Control_c, 9, 11, 68
3, 25557, Note_on_c, 9, 54, 0
3, 25558, Control_c, 9, 11, 67
3, 25560, Note_on_c, 9, 54, 55
3, 25568, Control_c, 9, 11, 66
3, 25569, Note_on_c, 9, 54, 0
3, 25572, Note_on_c, 9, 54, 53
3, 25578, Control_c, 9, 11, 65
3, 25581, Note_on_c, 9, 54, 0
3, 25584, Note_on_c, 9, 54, 52
3, 25588, Control_c, 9, 11, 64
3, 25593, Note_on_c, 9, 54, 0
3, 25596, Note_on_c, 9, 54, 48
3, 25598, Control_c, 9, 11, 63
3, 25605, Note_on_c, 9, 54, 0
3, 25607, Control_c, 9, 11, 62
3, 25608, Note_on_c, 9, 54, 44
3, 25617, Note_on_c, 9, 54, 0
3, 25617, Control_c, 9, 11, 61
3, 25620, Note_on_c, 9, 54, 45
3, 25627, Control_c, 9, 11, 60
3, 25629, Note_on_c, 9, 54, 0
3, 25632, Note_on_c, 9, 54, 49
3, 25637, Control_c, 9, 11, 59
3, 25641, Note_on_c, 9, 54, 0
3, 25644, Note_on_c, 9, 54, 57
3, 25647, Control_c, 9, 11, 58
3, 25653, Note_on_c, 9, 54, 0
3, 25656, Note_on_c, 9, 54, 51
3, 25657, Control_c, 9, 11, 57
3, 25665, Note_on_c, 9, 54, 0
3, 25667, Control_c, 9, 11, 56
3, 25668, Note_on_c, 9, 54, 60
3, 25677, Note_on_c, 9, 54, 0
3, 25677, Control_c, 9, 11, 55
3, 25680, Note_on_c, 9, 54, 56
3, 25687, Control_c, 9, 11, 54
3, 25689, Note_on_c, 9, 54, 0
3, 25692, Note_on_c, 9, 54, 47
3, 25697, Control_c, 9, 11, 53
3, 25701, Note_on_c, 9, 54, 0
3, 25704, Note_on_c, 9, 54, 44
3, 25707, Control_c, 9, 11, 52
3, 25713, Note_on_c, 9, 54, 0
3, 25716, Note_on_c, 9, 54, 54
3, 25717, Control_c, 9, 11, 51
3, 25725, Note_on_c, 9, 54, 0
3, 25727, Control_c, 9, 11, 50
3, 25727, End_track
4, 0, Start_track
4, 0, Title_t, "Fretless Bass"
4, 0, MIDI_port, 0
4, 96, Control_c, 0, 121, 0
4, 97, Control_c, 0, 7, 107
4, 98, Control_c, 0, 10, 74
4, 99, Control_c, 0, 91, 20
4, 100, Control_c, 0, 93, 30
4, 101, Control_c, 0, 32, 0
4, 101, Control_c, 0, 0, 0
4, 101, Program_c, 0, 35
4, 384, Note_on_c, 0, 40, 110
4, 443, Note_on_c, 0, 40, 0
4, 480, Note_on_c, 0, 40, 110
4, 569, Note_on_c, 0, 40, 0
4, 576, Note_on_c, 0, 35, 110
4, 620, Note_on_c, 0, 35, 0
4, 624, Note_on_c, 0, 35, 110
4, 668, Note_on_c, 0, 35, 0
4, 672, Note_on_c, 0, 37, 110
4, 716, Note_on_c, 0, 37, 0
4, 720, Note_on_c, 0, 40, 110
4, 764, Note_on_c, 0, 40, 0
4, 768, Note_on_c, 0, 40, 110
4, 827, Note_on_c, 0, 40, 0
4, 864, Note_on_c, 0, 40, 110
4, 953, Note_on_c, 0, 40, 0
4, 960, Note_on_c, 0, 35, 110
4, 1004, Note_on_c, 0, 35, 0
4, 1008, Note_on_c, 0, 34, 110
4, 1052, Note_on_c, 0, 34, 0
4, 1056, Note_on_c, 0, 37, 110
4, 1100, Note_on_c, 0, 37, 0
4, 1104, Note_on_c, 0, 39, 110
4, 1148, Note_on_c, 0, 39, 0
4, 1152, Note_on_c, 0, 40, 110
4, 1211, Note_on_c, 0, 40, 0
4, 1248, Note_on_c, 0, 40, 110
4, 1337, Note_on_c, 0, 40, 0
4, 1344, Note_on_c, 0, 35, 110
4, 1388, Note_on_c, 0, 35, 0
4, 1392, Note_on_c, 0, 34, 110
4, 1436, Note_on_c, 0, 34, 0
4, 1440, Note_on_c, 0, 37, 110
4, 1484, Note_on_c, 0, 37, 0
4, 1488, Note_on_c, 0, 39, 110
4, 1532, Note_on_c, 0, 39, 0
4, 1536, Note_on_c, 0, 40, 110
4, 1595, Note_on_c, 0, 40, 0
4, 1632, Note_on_c, 0, 40, 110
4, 1721, Note_on_c, 0, 40, 0
4, 1728, Note_on_c, 0, 35, 110
4, 1772, Note_on_c, 0, 35, 0
4, 1776, Note_on_c, 0, 35, 110
4, 1820, Note_on_c, 0, 35, 0
4, 1824, Note_on_c, 0, 37, 110
4, 1868, Note_on_c, 0, 37, 0
4, 1872, Note_on_c, 0, 39, 110
4, 1916, Note_on_c, 0, 39, 0
4, 1920, Note_on_c, 0, 40, 110
4, 1979, Note_on_c, 0, 40, 0
4, 2016, Note_on_c, 0, 40, 110
4, 2105, Note_on_c, 0, 40, 0
4, 2112, Note_on_c, 0, 35, 110
4, 2156, Note_on_c, 0, 35, 0
4, 2160, Note_on_c, 0, 35, 110
4, 2204, Note_on_c, 0, 35, 0
4, 2208, Note_on_c, 0, 37, 110
4, 2252, Note_on_c, 0, 37, 0
4, 2256, Note_on_c, 0, 39, 110
4, 2300, Note_on_c, 0, 39, 0
4, 2304, Note_on_c, 0, 40, 110
4, 2363, Note_on_c, 0, 40, 0
4, 2400, Note_on_c, 0, 40, 110
4, 2489, Note_on_c, 0, 40, 0
4, 2496, Note_on_c, 0, 35, 110
4, 2540, Note_on_c, 0, 35, 0
4, 2544, Note_on_c, 0, 35, 110
4, 2588, Note_on_c, 0, 35, 0
4, 2592, Note_on_c, 0, 37, 110
4, 2636, Note_on_c, 0, 37, 0
4, 2640, Note_on_c, 0, 39, 110
4, 2684, Note_on_c, 0, 39, 0
4, 2688, Note_on_c, 0, 40, 110
4, 2747, Note_on_c, 0, 40, 0
4, 2784, Note_on_c, 0, 40, 110
4, 2873, Note_on_c, 0, 40, 0
4, 2880, Note_on_c, 0, 35, 110
4, 2924, Note_on_c, 0, 35, 0
4, 2928, Note_on_c, 0, 35, 110
4, 2972, Note_on_c, 0, 35, 0
4, 2976, Note_on_c, 0, 37, 110
4, 3020, Note_on_c, 0, 37, 0
4, 3024, Note_on_c, 0, 40, 110
4, 3128, Note_on_c, 0, 40, 0
4, 3168, Note_on_c, 0, 40, 110
4, 3257, Note_on_c, 0, 40, 0
4, 3264, Note_on_c, 0, 35, 110
4, 3308, Note_on_c, 0, 35, 0
4, 3312, Note_on_c, 0, 39, 110
4, 3356, Note_on_c, 0, 39, 0
4, 3360, Note_on_c, 0, 40, 110
4, 3404, Note_on_c, 0, 40, 0
4, 3408, Note_on_c, 0, 35, 110
4, 3452, Note_on_c, 0, 35, 0
4, 3456, Note_on_c, 0, 42, 110
4, 3515, Note_on_c, 0, 42, 0
4, 3552, Note_on_c, 0, 42, 110
4, 3641, Note_on_c, 0, 42, 0
4, 3648, Note_on_c, 0, 37, 110
4, 3692, Note_on_c, 0, 37, 0
4, 3696, Note_on_c, 0, 37, 110
4, 3740, Note_on_c, 0, 37, 0
4, 3744, Note_on_c, 0, 40, 110
4, 3788, Note_on_c, 0, 40, 0
4, 3792, Note_on_c, 0, 42, 110
4, 3836, Note_on_c, 0, 42, 0
4, 3840, Note_on_c, 0, 45, 110
4, 3929, Note_on_c, 0, 45, 0
4, 3936, Note_on_c, 0, 44, 110
4, 4025, Note_on_c, 0, 44, 0
4, 4032, Note_on_c, 0, 42, 110
4, 4121, Note_on_c, 0, 42, 0
4, 4128, Note_on_c, 0, 42, 110
4, 4217, Note_on_c, 0, 42, 0
4, 4224, Note_on_c, 0, 40, 110
4, 4283, Note_on_c, 0, 40, 0
4, 4320, Note_on_c, 0, 40, 110
4, 4409, Note_on_c, 0, 40, 0
4, 4416, Note_on_c, 0, 44, 110
4, 4460, Note_on_c, 0, 44, 0
4, 4464, Note_on_c, 0, 45, 110
4, 4508, Note_on_c, 0, 45, 0
4, 4512, Note_on_c, 0, 46, 110
4, 4556, Note_on_c, 0, 46, 0
4, 4560, Note_on_c, 0, 47, 110
4, 4604, Note_on_c, 0, 47, 0
4, 4608, Note_on_c, 0, 40, 110
4, 4667, Note_on_c, 0, 40, 0
4, 4704, Note_on_c, 0, 52, 110
4, 4770, Note_on_c, 0, 52, 0
4, 4776, Note_on_c, 0, 44, 110
4, 4797, Note_on_c, 0, 44, 0
4, 4800, Note_on_c, 0, 44, 110
4, 4844, Note_on_c, 0, 44, 0
4, 4848, Note_on_c, 0, 45, 110
4, 4892, Note_on_c, 0, 45, 0
4, 4896, Note_on_c, 0, 46, 110
4, 4940, Note_on_c, 0, 46, 0
4, 4944, Note_on_c, 0, 47, 110
4, 4988, Note_on_c, 0, 47, 0
4, 4992, Note_on_c, 0, 40, 110
4, 5051, Note_on_c, 0, 40, 0
4, 5088, Note_on_c, 0, 40, 110
4, 5177, Note_on_c, 0, 40, 0
4, 5184, Note_on_c, 0, 35, 110
4, 5228, Note_on_c, 0, 35, 0
4, 5232, Note_on_c, 0, 35, 110
4, 5276, Note_on_c, 0, 35, 0
4, 5280, Note_on_c, 0, 37, 110
4, 5324, Note_on_c, 0, 37, 0
4, 5328, Note_on_c, 0, 39, 110
4, 5372, Note_on_c, 0, 39, 0
4, 5376, Note_on_c, 0, 40, 110
4, 5435, Note_on_c, 0, 40, 0
4, 5472, Note_on_c, 0, 40, 110
4, 5561, Note_on_c, 0, 40, 0
4, 5568, Note_on_c, 0, 35, 110
4, 5612, Note_on_c, 0, 35, 0
4, 5616, Note_on_c, 0, 35, 110
4, 5660, Note_on_c, 0, 35, 0
4, 5664, Note_on_c, 0, 37, 110
4, 5708, Note_on_c, 0, 37, 0
4, 5712, Note_on_c, 0, 39, 110
4, 5756, Note_on_c, 0, 39, 0
4, 5760, Note_on_c, 0, 40, 110
4, 5819, Note_on_c, 0, 40, 0
4, 5856, Note_on_c, 0, 40, 110
4, 5945, Note_on_c, 0, 40, 0
4, 5952, Note_on_c, 0, 35, 110
4, 5996, Note_on_c, 0, 35, 0
4, 6000, Note_on_c, 0, 35, 110
4, 6044, Note_on_c, 0, 35, 0
4, 6048, Note_on_c, 0, 37, 110
4, 6092, Note_on_c, 0, 37, 0
4, 6096, Note_on_c, 0, 40, 110
4, 6200, Note_on_c, 0, 40, 0
4, 6240, Note_on_c, 0, 40, 110
4, 6329, Note_on_c, 0, 40, 0
4, 6336, Note_on_c, 0, 35, 110
4, 6380, Note_on_c, 0, 35, 0
4, 6384, Note_on_c, 0, 39, 110
4, 6428, Note_on_c, 0, 39, 0
4, 6432, Note_on_c, 0, 40, 110
4, 6476, Note_on_c, 0, 40, 0
4, 6480, Note_on_c, 0, 35, 110
4, 6524, Note_on_c, 0, 35, 0
4, 6528, Note_on_c, 0, 42, 110
4, 6587, Note_on_c, 0, 42, 0
4, 6624, Note_on_c, 0, 42, 110
4, 6713, Note_on_c, 0, 42, 0
4, 6720, Note_on_c, 0, 37, 110
4, 6764, Note_on_c, 0, 37, 0
4, 6768, Note_on_c, 0, 37, 110
4, 6812, Note_on_c, 0, 37, 0
4, 6816, Note_on_c, 0, 40, 110
4, 6860, Note_on_c, 0, 40, 0
4, 6864, Note_on_c, 0, 42, 110
4, 6908, Note_on_c, 0, 42, 0
4, 6912, Note_on_c, 0, 45, 110
4, 7001, Note_on_c, 0, 45, 0
4, 7008, Note_on_c, 0, 44, 110
4, 7097, Note_on_c, 0, 44, 0
4, 7104, Note_on_c, 0, 42, 110
4, 7193, Note_on_c, 0, 42, 0
4, 7200, Note_on_c, 0, 42, 110
4, 7289, Note_on_c, 0, 42, 0
4, 7296, Note_on_c, 0, 40, 110
4, 7355, Note_on_c, 0, 40, 0
4, 7392, Note_on_c, 0, 40, 110
4, 7481, Note_on_c, 0, 40, 0
4, 7488, Note_on_c, 0, 44, 110
4, 7532, Note_on_c, 0, 44, 0
4, 7536, Note_on_c, 0, 45, 110
4, 7580, Note_on_c, 0, 45, 0
4, 7584, Note_on_c, 0, 46, 110
4, 7628, Note_on_c, 0, 46, 0
4, 7632, Note_on_c, 0, 47, 110
4, 7676, Note_on_c, 0, 47, 0
4, 7680, Note_on_c, 0, 40, 110
4, 7739, Note_on_c, 0, 40, 0
4, 7776, Note_on_c, 0, 52, 110
4, 7842, Note_on_c, 0, 52, 0
4, 7848, Note_on_c, 0, 44, 110
4, 7869, Note_on_c, 0, 44, 0
4, 7872, Note_on_c, 0, 44, 110
4, 7916, Note_on_c, 0, 44, 0
4, 7920, Note_on_c, 0, 45, 110
4, 7964, Note_on_c, 0, 45, 0
4, 7968, Note_on_c, 0, 46, 110
4, 8012, Note_on_c, 0, 46, 0
4, 8016, Note_on_c, 0, 47, 110
4, 8060, Note_on_c, 0, 47, 0
4, 8064, Note_on_c, 0, 44, 110
4, 8153, Note_on_c, 0, 44, 0
4, 8160, Note_on_c, 0, 44, 110
4, 8249, Note_on_c, 0, 44, 0
4, 8256, Note_on_c, 0, 32, 110
4, 8300, Note_on_c, 0, 32, 0
4, 8304, Note_on_c, 0, 37, 110
4, 8348, Note_on_c, 0, 37, 0
4, 8352, Note_on_c, 0, 39, 110
4, 8396, Note_on_c, 0, 39, 0
4, 8400, Note_on_c, 0, 43, 110
4, 8534, Note_on_c, 0, 43, 0
4, 8544, Note_on_c, 0, 43, 110
4, 8633, Note_on_c, 0, 43, 0
4, 8640, Note_on_c, 0, 32, 110
4, 8684, Note_on_c, 0, 32, 0
4, 8688, Note_on_c, 0, 37, 110
4, 8732, Note_on_c, 0, 37, 0
4, 8736, Note_on_c, 0, 39, 110
4, 8780, Note_on_c, 0, 39, 0
4, 8784, Note_on_c, 0, 42, 110
4, 8918, Note_on_c, 0, 42, 0
4, 8928, Note_on_c, 0, 42, 110
4, 9017, Note_on_c, 0, 42, 0
4, 9024, Note_on_c, 0, 32, 110
4, 9068, Note_on_c, 0, 32, 0
4, 9072, Note_on_c, 0, 37, 110
4, 9116, Note_on_c, 0, 37, 0
4, 9120, Note_on_c, 0, 39, 110
4, 9164, Note_on_c, 0, 39, 0
4, 9168, Note_on_c, 0, 41, 110
4, 9302, Note_on_c, 0, 41, 0
4, 9312, Note_on_c, 0, 41, 110
4, 9401, Note_on_c, 0, 41, 0
4, 9408, Note_on_c, 0, 32, 110
4, 9452, Note_on_c, 0, 32, 0
4, 9456, Note_on_c, 0, 37, 110
4, 9500, Note_on_c, 0, 37, 0
4, 9504, Note_on_c, 0, 39, 110
4, 9548, Note_on_c, 0, 39, 0
4, 9552, Note_on_c, 0, 40, 110
4, 9596, Note_on_c, 0, 40, 0
4, 9600, Note_on_c, 0, 40, 110
4, 9689, Note_on_c, 0, 40, 0
4, 9696, Note_on_c, 0, 40, 110
4, 9785, Note_on_c, 0, 40, 0
4, 9792, Note_on_c, 0, 37, 110
4, 9836, Note_on_c, 0, 37, 0
4, 9840, Note_on_c, 0, 32, 110
4, 9884, Note_on_c, 0, 32, 0
4, 9888, Note_on_c, 0, 30, 110
4, 9932, Note_on_c, 0, 30, 0
4, 9936, Note_on_c, 0, 28, 110
4, 9980, Note_on_c, 0, 28, 0
4, 9984, Note_on_c, 0, 42, 110
4, 10073, Note_on_c, 0, 42, 0
4, 10080, Note_on_c, 0, 42, 110
4, 10169, Note_on_c, 0, 42, 0
4, 10176, Note_on_c, 0, 37, 110
4, 10220, Note_on_c, 0, 37, 0
4, 10224, Note_on_c, 0, 37, 110
4, 10268, Note_on_c, 0, 37, 0
4, 10272, Note_on_c, 0, 40, 110
4, 10316, Note_on_c, 0, 40, 0
4, 10320, Note_on_c, 0, 42, 110
4, 10364, Note_on_c, 0, 42, 0
4, 10368, Note_on_c, 0, 42, 110
4, 10457, Note_on_c, 0, 42, 0
4, 10464, Note_on_c, 0, 37, 110
4, 10508, Note_on_c, 0, 37, 0
4, 10512, Note_on_c, 0, 40, 110
4, 10601, Note_on_c, 0, 40, 0
4, 10608, Note_on_c, 0, 42, 110
4, 10697, Note_on_c, 0, 42, 0
4, 10704, Note_on_c, 0, 37, 110
4, 10748, Note_on_c, 0, 37, 0
4, 10752, Note_on_c, 0, 35, 110
4, 10811, Note_on_c, 0, 35, 0
4, 10848, Note_on_c, 0, 47, 110
4, 10914, Note_on_c, 0, 47, 0
4, 10920, Note_on_c, 0, 42, 110
4, 10941, Note_on_c, 0, 42, 0
4, 10944, Note_on_c, 0, 35, 110
4, 10988, Note_on_c, 0, 35, 0
4, 10992, Note_on_c, 0, 35, 110
4, 11036, Note_on_c, 0, 35, 0
4, 11040, Note_on_c, 0, 35, 110
4, 11129, Note_on_c, 0, 35, 0
4, 11136, Note_on_c, 0, 40, 110
4, 11225, Note_on_c, 0, 40, 0
4, 11232, Note_on_c, 0, 40, 110
4, 11321, Note_on_c, 0, 40, 0
4, 11328, Note_on_c, 0, 45, 100
4, 11333, Note_on_c, 0, 45, 0
4, 11334, Note_on_c, 0, 47, 110
4, 11417, Note_on_c, 0, 47, 0
4, 11424, Note_on_c, 0, 52, 110
4, 11513, Note_on_c, 0, 52, 0
4, 11520, Note_on_c, 0, 40, 110
4, 11609, Note_on_c, 0, 40, 0
4, 11616, Note_on_c, 0, 40, 110
4, 11705, Note_on_c, 0, 40, 0
4, 11712, Note_on_c, 0, 45, 100
4, 11717, Note_on_c, 0, 45, 0
4, 11718, Note_on_c, 0, 47, 110
4, 11801, Note_on_c, 0, 47, 0
4, 11808, Note_on_c, 0, 52, 110
4, 11897, Note_on_c, 0, 52, 0
4, 11904, Note_on_c, 0, 40, 110
4, 11993, Note_on_c, 0, 40, 0
4, 12000, Note_on_c, 0, 40, 110
4, 12089, Note_on_c, 0, 40, 0
4, 12096, Note_on_c, 0, 45, 100
4, 12101, Note_on_c, 0, 45, 0
4, 12102, Note_on_c, 0, 47, 110
4, 12185, Note_on_c, 0, 47, 0
4, 12192, Note_on_c, 0, 52, 110
4, 12281, Note_on_c, 0, 52, 0
4, 12288, Note_on_c, 0, 40, 110
4, 12377, Note_on_c, 0, 40, 0
4, 12384, Note_on_c, 0, 40, 110
4, 12473, Note_on_c, 0, 40, 0
4, 12480, Note_on_c, 0, 45, 100
4, 12485, Note_on_c, 0, 45, 0
4, 12486, Note_on_c, 0, 47, 110
4, 12569, Note_on_c, 0, 47, 0
4, 12576, Note_on_c, 0, 52, 110
4, 12665, Note_on_c, 0, 52, 0
4, 12672, Note_on_c, 0, 42, 110
4, 12761, Note_on_c, 0, 42, 0
4, 12768, Note_on_c, 0, 42, 110
4, 12857, Note_on_c, 0, 42, 0
4, 12864, Note_on_c, 0, 47, 100
4, 12869, Note_on_c, 0, 47, 0
4, 12870, Note_on_c, 0, 49, 110
4, 12953, Note_on_c, 0, 49, 0
4, 12960, Note_on_c, 0, 54, 110
4, 13049, Note_on_c, 0, 54, 0
4, 13056, Note_on_c, 0, 47, 110
4, 13077, Note_on_c, 0, 47, 0
4, 13080, Note_on_c, 0, 45, 110
4, 13146, Note_on_c, 0, 45, 0
4, 13152, Note_on_c, 0, 44, 110
4, 13241, Note_on_c, 0, 44, 0
4, 13248, Note_on_c, 0, 42, 110
4, 13292, Note_on_c, 0, 42, 0
4, 13296, Note_on_c, 0, 40, 110
4, 13340, Note_on_c, 0, 40, 0
4, 13344, Note_on_c, 0, 39, 110
4, 13433, Note_on_c, 0, 39, 0
4, 13440, Note_on_c, 0, 40, 110
4, 13499, Note_on_c, 0, 40, 0
4, 13536, Note_on_c, 0, 52, 110
4, 13602, Note_on_c, 0, 52, 0
4, 13608, Note_on_c, 0, 44, 110
4, 13629, Note_on_c, 0, 44, 0
4, 13632, Note_on_c, 0, 44, 110
4, 13676, Note_on_c, 0, 44, 0
4, 13680, Note_on_c, 0, 45, 110
4, 13724, Note_on_c, 0, 45, 0
4, 13728, Note_on_c, 0, 46, 110
4, 13772, Note_on_c, 0, 46, 0
4, 13776, Note_on_c, 0, 47, 110
4, 13820, Note_on_c, 0, 47, 0
4, 13824, Note_on_c, 0, 40, 110
4, 13883, Note_on_c, 0, 40, 0
4, 13920, Note_on_c, 0, 52, 110
4, 13986, Note_on_c, 0, 52, 0
4, 13992, Note_on_c, 0, 44, 110
4, 14013, Note_on_c, 0, 44, 0
4, 14016, Note_on_c, 0, 44, 110
4, 14060, Note_on_c, 0, 44, 0
4, 14064, Note_on_c, 0, 45, 110
4, 14108, Note_on_c, 0, 45, 0
4, 14112, Note_on_c, 0, 46, 110
4, 14156, Note_on_c, 0, 46, 0
4, 14160, Note_on_c, 0, 47, 110
4, 14204, Note_on_c, 0, 47, 0
4, 14208, Note_on_c, 0, 44, 110
4, 14297, Note_on_c, 0, 44, 0
4, 14304, Note_on_c, 0, 44, 110
4, 14393, Note_on_c, 0, 44, 0
4, 14400, Note_on_c, 0, 32, 110
4, 14444, Note_on_c, 0, 32, 0
4, 14448, Note_on_c, 0, 37, 110
4, 14492, Note_on_c, 0, 37, 0
4, 14496, Note_on_c, 0, 39, 110
4, 14540, Note_on_c, 0, 39, 0
4, 14544, Note_on_c, 0, 43, 110
4, 14678, Note_on_c, 0, 43, 0
4, 14688, Note_on_c, 0, 43, 110
4, 14777, Note_on_c, 0, 43, 0
4, 14784, Note_on_c, 0, 32, 110
4, 14828, Note_on_c, 0, 32, 0
4, 14832, Note_on_c, 0, 37, 110
4, 14876, Note_on_c, 0, 37, 0
4, 14880, Note_on_c, 0, 39, 110
4, 14924, Note_on_c, 0, 39, 0
4, 14928, Note_on_c, 0, 42, 110
4, 15062, Note_on_c, 0, 42, 0
4, 15072, Note_on_c, 0, 42, 110
4, 15161, Note_on_c, 0, 42, 0
4, 15168, Note_on_c, 0, 32, 110
4, 15212, Note_on_c, 0, 32, 0
4, 15216, Note_on_c, 0, 37, 110
4, 15260, Note_on_c, 0, 37, 0
4, 15264, Note_on_c, 0, 39, 110
4, 15308, Note_on_c, 0, 39, 0
4, 15312, Note_on_c, 0, 41, 110
4, 15446, Note_on_c, 0, 41, 0
4, 15456, Note_on_c, 0, 41, 110
4, 15545, Note_on_c, 0, 41, 0
4, 15552, Note_on_c, 0, 32, 110
4, 15596, Note_on_c, 0, 32, 0
4, 15600, Note_on_c, 0, 37, 110
4, 15644, Note_on_c, 0, 37, 0
4, 15648, Note_on_c, 0, 39, 110
4, 15692, Note_on_c, 0, 39, 0
4, 15696, Note_on_c, 0, 40, 110
4, 15740, Note_on_c, 0, 40, 0
4, 15744, Note_on_c, 0, 40, 110
4, 15833, Note_on_c, 0, 40, 0
4, 15840, Note_on_c, 0, 40, 110
4, 15929, Note_on_c, 0, 40, 0
4, 15936, Note_on_c, 0, 37, 110
4, 15980, Note_on_c, 0, 37, 0
4, 15984, Note_on_c, 0, 32, 110
4, 16028, Note_on_c, 0, 32, 0
4, 16032, Note_on_c, 0, 30, 110
4, 16076, Note_on_c, 0, 30, 0
4, 16080, Note_on_c, 0, 28, 110
4, 16124, Note_on_c, 0, 28, 0
4, 16128, Note_on_c, 0, 42, 110
4, 16217, Note_on_c, 0, 42, 0
4, 16224, Note_on_c, 0, 42, 110
4, 16313, Note_on_c, 0, 42, 0
4, 16320, Note_on_c, 0, 37, 110
4, 16364, Note_on_c, 0, 37, 0
4, 16368, Note_on_c, 0, 37, 110
4, 16412, Note_on_c, 0, 37, 0
4, 16416, Note_on_c, 0, 40, 110
4, 16460, Note_on_c, 0, 40, 0
4, 16464, Note_on_c, 0, 42, 110
4, 16508, Note_on_c, 0, 42, 0
4, 16512, Note_on_c, 0, 42, 110
4, 16601, Note_on_c, 0, 42, 0
4, 16608, Note_on_c, 0, 37, 110
4, 16652, Note_on_c, 0, 37, 0
4, 16656, Note_on_c, 0, 40, 110
4, 16745, Note_on_c, 0, 40, 0
4, 16752, Note_on_c, 0, 42, 110
4, 16841, Note_on_c, 0, 42, 0
4, 16848, Note_on_c, 0, 37, 110
4, 16892, Note_on_c, 0, 37, 0
4, 16896, Note_on_c, 0, 35, 110
4, 16955, Note_on_c, 0, 35, 0
4, 16992, Note_on_c, 0, 47, 110
4, 17058, Note_on_c, 0, 47, 0
4, 17064, Note_on_c, 0, 47, 110
4, 17085, Note_on_c, 0, 47, 0
4, 17088, Note_on_c, 0, 35, 110
4, 17132, Note_on_c, 0, 35, 0
4, 17136, Note_on_c, 0, 35, 110
4, 17180, Note_on_c, 0, 35, 0
4, 17184, Note_on_c, 0, 35, 110
4, 17273, Note_on_c, 0, 35, 0
4, 17280, Note_on_c, 0, 40, 110
4, 17369, Note_on_c, 0, 40, 0
4, 17376, Note_on_c, 0, 40, 110
4, 17465, Note_on_c, 0, 40, 0
4, 17472, Note_on_c, 0, 39, 110
4, 17561, Note_on_c, 0, 39, 0
4, 17568, Note_on_c, 0, 39, 110
4, 17657, Note_on_c, 0, 39, 0
4, 17664, Note_on_c, 0, 37, 110
4, 17753, Note_on_c, 0, 37, 0
4, 17760, Note_on_c, 0, 37, 110
4, 17849, Note_on_c, 0, 37, 0
4, 17856, Note_on_c, 0, 35, 110
4, 17945, Note_on_c, 0, 35, 0
4, 17952, Note_on_c, 0, 35, 110
4, 18018, Note_on_c, 0, 35, 0
4, 18024, Note_on_c, 0, 36, 100
4, 18029, Note_on_c, 0, 36, 0
4, 18030, Note_on_c, 0, 37, 100
4, 18035, Note_on_c, 0, 37, 0
4, 18036, Note_on_c, 0, 38, 100
4, 18041, Note_on_c, 0, 38, 0
4, 18042, Note_on_c, 0, 39, 100
4, 18047, Note_on_c, 0, 39, 0
4, 18048, Note_on_c, 0, 40, 110
4, 18107, Note_on_c, 0, 40, 0
4, 18144, Note_on_c, 0, 40, 110
4, 18233, Note_on_c, 0, 40, 0
4, 18240, Note_on_c, 0, 45, 110
4, 18261, Note_on_c, 0, 45, 0
4, 18264, Note_on_c, 0, 47, 110
4, 18285, Note_on_c, 0, 47, 0
4, 18288, Note_on_c, 0, 50, 110
4, 18309, Note_on_c, 0, 50, 0
4, 18312, Note_on_c, 0, 52, 110
4, 18333, Note_on_c, 0, 52, 0
4, 18336, Note_on_c, 0, 52, 110
4, 18380, Note_on_c, 0, 52, 0
4, 18384, Note_on_c, 0, 40, 110
4, 18518, Note_on_c, 0, 40, 0
4, 18528, Note_on_c, 0, 40, 110
4, 18617, Note_on_c, 0, 40, 0
4, 18624, Note_on_c, 0, 35, 110
4, 18668, Note_on_c, 0, 35, 0
4, 18672, Note_on_c, 0, 37, 110
4, 18716, Note_on_c, 0, 37, 0
4, 18720, Note_on_c, 0, 40, 110
4, 18764, Note_on_c, 0, 40, 0
4, 18768, Note_on_c, 0, 37, 110
4, 18812, Note_on_c, 0, 37, 0
4, 18816, Note_on_c, 0, 42, 110
4, 18875, Note_on_c, 0, 42, 0
4, 18912, Note_on_c, 0, 42, 110
4, 19001, Note_on_c, 0, 42, 0
4, 19008, Note_on_c, 0, 37, 110
4, 19052, Note_on_c, 0, 37, 0
4, 19056, Note_on_c, 0, 40, 110
4, 19100, Note_on_c, 0, 40, 0
4, 19104, Note_on_c, 0, 42, 110
4, 19148, Note_on_c, 0, 42, 0
4, 19152, Note_on_c, 0, 40, 110
4, 19196, Note_on_c, 0, 40, 0
4, 19200, Note_on_c, 0, 45, 110
4, 19289, Note_on_c, 0, 45, 0
4, 19296, Note_on_c, 0, 44, 110
4, 19385, Note_on_c, 0, 44, 0
4, 19392, Note_on_c, 0, 42, 110
4, 19436, Note_on_c, 0, 42, 0
4, 19440, Note_on_c, 0, 40, 110
4, 19529, Note_on_c, 0, 40, 0
4, 19536, Note_on_c, 0, 37, 110
4, 19580, Note_on_c, 0, 37, 0
4, 19584, Note_on_c, 0, 40, 110
4, 19643, Note_on_c, 0, 40, 0
4, 19680, Note_on_c, 0, 40, 110
4, 19769, Note_on_c, 0, 40, 0
4, 19776, Note_on_c, 0, 44, 110
4, 19820, Note_on_c, 0, 44, 0
4, 19824, Note_on_c, 0, 45, 110
4, 19868, Note_on_c, 0, 45, 0
4, 19872, Note_on_c, 0, 46, 110
4, 19916, Note_on_c, 0, 46, 0
4, 19920, Note_on_c, 0, 47, 110
4, 19964, Note_on_c, 0, 47, 0
4, 19968, Note_on_c, 0, 40, 110
4, 20027, Note_on_c, 0, 40, 0
4, 20064, Note_on_c, 0, 52, 110
4, 20130, Note_on_c, 0, 52, 0
4, 20136, Note_on_c, 0, 44, 110
4, 20157, Note_on_c, 0, 44, 0
4, 20160, Note_on_c, 0, 44, 110
4, 20204, Note_on_c, 0, 44, 0
4, 20208, Note_on_c, 0, 45, 110
4, 20252, Note_on_c, 0, 45, 0
4, 20256, Note_on_c, 0, 46, 110
4, 20300, Note_on_c, 0, 46, 0
4, 20304, Note_on_c, 0, 47, 110
4, 20348, Note_on_c, 0, 47, 0
4, 20352, Note_on_c, 0, 40, 110
4, 20411, Note_on_c, 0, 40, 0
4, 20448, Note_on_c, 0, 52, 110
4, 20514, Note_on_c, 0, 52, 0
4, 20520, Note_on_c, 0, 44, 110
4, 20541, Note_on_c, 0, 44, 0
4, 20544, Note_on_c, 0, 44, 110
4, 20588, Note_on_c, 0, 44, 0
4, 20592, Note_on_c, 0, 45, 110
4, 20636, Note_on_c, 0, 45, 0
4, 20640, Note_on_c, 0, 46, 110
4, 20684, Note_on_c, 0, 46, 0
4, 20688, Note_on_c, 0, 47, 110
4, 20732, Note_on_c, 0, 47, 0
4, 20736, Note_on_c, 0, 40, 110
4, 20795, Note_on_c, 0, 40, 0
4, 20832, Note_on_c, 0, 52, 110
4, 20898, Note_on_c, 0, 52, 0
4, 20904, Note_on_c, 0, 44, 110
4, 20925, Note_on_c, 0, 44, 0
4, 20928, Note_on_c, 0, 44, 110
4, 20972, Note_on_c, 0, 44, 0
4, 20976, Note_on_c, 0, 45, 110
4, 21020, Note_on_c, 0, 45, 0
4, 21024, Note_on_c, 0, 46, 110
4, 21068, Note_on_c, 0, 46, 0
4, 21072, Note_on_c, 0, 47, 110
4, 21116, Note_on_c, 0, 47, 0
4, 21120, Note_on_c, 0, 40, 110
4, 21179, Note_on_c, 0, 40, 0
4, 21216, Note_on_c, 0, 52, 110
4, 21282, Note_on_c, 0, 52, 0
4, 21288, Note_on_c, 0, 44, 110
4, 21309, Note_on_c, 0, 44, 0
4, 21312, Note_on_c, 0, 44, 110
4, 21356, Note_on_c, 0, 44, 0
4, 21360, Note_on_c, 0, 45, 110
4, 21404, Note_on_c, 0, 45, 0
4, 21408, Note_on_c, 0, 46, 110
4, 21452, Note_on_c, 0, 46, 0
4, 21456, Note_on_c, 0, 47, 110
4, 21500, Note_on_c, 0, 47, 0
4, 21504, Note_on_c, 0, 40, 110
4, 21563, Note_on_c, 0, 40, 0
4, 21600, Note_on_c, 0, 52, 110
4, 21666, Note_on_c, 0, 52, 0
4, 21672, Note_on_c, 0, 44, 110
4, 21693, Note_on_c, 0, 44, 0
4, 21696, Note_on_c, 0, 44, 110
4, 21740, Note_on_c, 0, 44, 0
4, 21744, Note_on_c, 0, 45, 110
4, 21788, Note_on_c, 0, 45, 0
4, 21792, Note_on_c, 0, 46, 110
4, 21836, Note_on_c, 0, 46, 0
4, 21840, Note_on_c, 0, 47, 110
4, 21884, Note_on_c, 0, 47, 0
4, 21888, Note_on_c, 0, 42, 110
4, 21947, Note_on_c, 0, 42, 0
4, 21984, Note_on_c, 0, 42, 110
4, 22073, Note_on_c, 0, 42, 0
4, 22080, Note_on_c, 0, 37, 110
4, 22124, Note_on_c, 0, 37, 0
4, 22128, Note_on_c, 0, 40, 110
4, 22172, Note_on_c, 0, 40, 0
4, 22176, Note_on_c, 0, 42, 110
4, 22265, Note_on_c, 0, 42, 0
4, 22272, Note_on_c, 0, 45, 110
4, 22361, Note_on_c, 0, 45, 0
4, 22368, Note_on_c, 0, 44, 110
4, 22457, Note_on_c, 0, 44, 0
4, 22464, Note_on_c, 0, 42, 110
4, 22508, Note_on_c, 0, 42, 0
4, 22512, Note_on_c, 0, 42, 110
4, 22601, Note_on_c, 0, 42, 0
4, 22608, Note_on_c, 0, 39, 110
4, 22652, Note_on_c, 0, 39, 0
4, 22656, Note_on_c, 0, 40, 110
4, 22715, Note_on_c, 0, 40, 0
4, 22752, Note_on_c, 0, 52, 110
4, 22818, Note_on_c, 0, 52, 0
4, 22824, Note_on_c, 0, 44, 110
4, 22845, Note_on_c, 0, 44, 0
4, 22848, Note_on_c, 0, 44, 110
4, 22892, Note_on_c, 0, 44, 0
4, 22896, Note_on_c, 0, 45, 110
4, 22940, Note_on_c, 0, 45, 0
4, 22944, Note_on_c, 0, 46, 110
4, 22988, Note_on_c, 0, 46, 0
4, 22992, Note_on_c, 0, 47, 110
4, 23036, Note_on_c, 0, 47, 0
4, 23040, Note_on_c, 0, 40, 110
4, 23099, Note_on_c, 0, 40, 0
4, 23136, Note_on_c, 0, 52, 110
4, 23202, Note_on_c, 0, 52, 0
4, 23208, Note_on_c, 0, 44, 110
4, 23229, Note_on_c, 0, 44, 0
4, 23232, Note_on_c, 0, 44, 110
4, 23276, Note_on_c, 0, 44, 0
4, 23280, Note_on_c, 0, 45, 110
4, 23324, Note_on_c, 0, 45, 0
4, 23328, Note_on_c, 0, 46, 110
4, 23372, Note_on_c, 0, 46, 0
4, 23376, Note_on_c, 0, 47, 110
4, 23420, Note_on_c, 0, 47, 0
4, 23424, Note_on_c, 0, 40, 110
4, 23483, Note_on_c, 0, 40, 0
4, 23520, Note_on_c, 0, 40, 110
4, 23609, Note_on_c, 0, 40, 0
4, 23616, Note_on_c, 0, 35, 110
4, 23660, Note_on_c, 0, 35, 0
4, 23664, Note_on_c, 0, 35, 110
4, 23708, Note_on_c, 0, 35, 0
4, 23712, Note_on_c, 0, 37, 110
4, 23756, Note_on_c, 0, 37, 0
4, 23760, Note_on_c, 0, 40, 110
4, 23804, Note_on_c, 0, 40, 0
4, 23808, Note_on_c, 0, 40, 110
4, 23867, Note_on_c, 0, 40, 0
4, 23904, Note_on_c, 0, 40, 110
4, 23993, Note_on_c, 0, 40, 0
4, 24000, Note_on_c, 0, 35, 110
4, 24044, Note_on_c, 0, 35, 0
4, 24048, Note_on_c, 0, 35, 110
4, 24092, Note_on_c, 0, 35, 0
4, 24096, Note_on_c, 0, 37, 110
4, 24140, Note_on_c, 0, 37, 0
4, 24144, Note_on_c, 0, 40, 110
4, 24188, Note_on_c, 0, 40, 0
4, 24192, Note_on_c, 0, 40, 110
4, 24251, Note_on_c, 0, 40, 0
4, 24288, Note_on_c, 0, 40, 110
4, 24377, Note_on_c, 0, 40, 0
4, 24384, Note_on_c, 0, 35, 110
4, 24428, Note_on_c, 0, 35, 0
4, 24432, Note_on_c, 0, 35, 110
4, 24476, Note_on_c, 0, 35, 0
4, 24480, Note_on_c, 0, 37, 110
4, 24524, Note_on_c, 0, 37, 0
4, 24528, Note_on_c, 0, 40, 110
4, 24572, Note_on_c, 0, 40, 0
4, 24576, Note_on_c, 0, 40, 110
4, 24576, Note_on_c, 0, 28, 110
4, 24665, Note_on_c, 0, 40, 0
4, 24665, Note_on_c, 0, 28, 0
4, 24672, Note_on_c, 0, 52, 110
4, 24693, Note_on_c, 0, 52, 0
4, 24696, Note_on_c, 0, 52, 110
4, 24717, Note_on_c, 0, 52, 0
4, 24720, Note_on_c, 0, 52, 110
4, 24764, Note_on_c, 0, 52, 0
4, 24768, Note_on_c, 0, 52, 110
4, 24789, Note_on_c, 0, 52, 0
4, 24792, Note_on_c, 0, 52, 110
4, 24836, Note_on_c, 0, 52, 0
4, 24840, Note_on_c, 0, 52, 110
4, 24861, Note_on_c, 0, 52, 0
4, 24864, Note_on_c, 0, 52, 110
4, 24908, Note_on_c, 0, 52, 0
4, 24912, Note_on_c, 0, 52, 110
4, 24933, Note_on_c, 0, 52, 0
4, 24936, Note_on_c, 0, 52, 110
4, 24980, Note_on_c, 0, 52, 0
4, 24984, Note_on_c, 0, 52, 110
4, 25005, Note_on_c, 0, 52, 0
4, 25008, Note_on_c, 0, 52, 110
4, 25052, Note_on_c, 0, 52, 0
4, 25056, Note_on_c, 0, 52, 100
4, 26495, Note_on_c, 0, 52, 0
4, 26495, End_track
5, 0, Start_track
5, 0, Title_t, "Lead Flute"
5, 0, MIDI_port, 0
5, 96, Control_c, 1, 121, 0
5, 97, Control_c, 1, 7, 122
5, 98, Control_c, 1, 10, 53
5, 99, Control_c, 1, 91, 60
5, 100, Control_c, 1, 93, 11
5, 101, Control_c, 1, 32, 0
5, 101, Control_c, 1, 0, 0
5, 101, Program_c, 1, 73
5, 102, Text_t, "VIBR DEPTH"
5, 103, Control_c, 1, 99, 1
5, 104, Control_c, 1, 98, 9
5, 105, Control_c, 1, 6, 66
5, 106, Text_t, "VIBR SPEED"
5, 107, Control_c, 1, 99, 1
5, 108, Control_c, 1, 98, 8
5, 109, Control_c, 1, 6, 51
5, 110, Text_t, "VIBR DELAY"
5, 111, Control_c, 1, 99, 1
5, 112, Control_c, 1, 98, 10
5, 113, Control_c, 1, 6, 61
5, 1872, Note_on_c, 1, 68, 115
5, 1918, Note_on_c, 1, 68, 0
5, 1920, Note_on_c, 1, 71, 115
5, 1966, Note_on_c, 1, 71, 0
5, 1968, Note_on_c, 1, 71, 115
5, 2014, Note_on_c, 1, 71, 0
5, 2016, Note_on_c, 1, 71, 115
5, 2062, Note_on_c, 1, 71, 0
5, 2064, Note_on_c, 1, 71, 115
5, 2110, Note_on_c, 1, 71, 0
5, 2112, Note_on_c, 1, 71, 115
5, 2206, Note_on_c, 1, 71, 0
5, 2208, Note_on_c, 1, 71, 115
5, 2254, Note_on_c, 1, 71, 0
5, 2256, Note_on_c, 1, 71, 115
5, 2302, Note_on_c, 1, 71, 0
5, 2304, Note_on_c, 1, 73, 115
5, 2398, Note_on_c, 1, 73, 0
5, 2400, Note_on_c, 1, 71, 115
5, 2494, Note_on_c, 1, 71, 0
5, 2496, Note_on_c, 1, 71, 115
5, 2590, Note_on_c, 1, 71, 0
5, 2688, Note_on_c, 1, 71, 115
5, 2782, Note_on_c, 1, 71, 0
5, 2784, Note_on_c, 1, 71, 115
5, 2878, Note_on_c, 1, 71, 0
5, 2880, Note_on_c, 1, 76, 115
5, 2974, Note_on_c, 1, 76, 0
5, 2976, Note_on_c, 1, 76, 115
5, 2991, Note_on_c, 1, 76, 0
5, 2992, Note_on_c, 1, 78, 115
5, 3070, Note_on_c, 1, 78, 0
5, 3072, Note_on_c, 1, 76, 115
5, 3166, Note_on_c, 1, 76, 0
5, 3168, Note_on_c, 1, 71, 115
5, 3214, Note_on_c, 1, 71, 0
5, 3216, Note_on_c, 1, 71, 115
5, 3262, Note_on_c, 1, 71, 0
5, 3264, Note_on_c, 1, 73, 115
5, 3310, Note_on_c, 1, 73, 0
5, 3312, Note_on_c, 1, 76, 115
5, 3358, Note_on_c, 1, 76, 0
5, 3408, Note_on_c, 1, 78, 115
5, 3550, Note_on_c, 1, 78, 0
5, 3984, Note_on_c, 1, 71, 115
5, 4030, Note_on_c, 1, 71, 0
5, 4032, Note_on_c, 1, 76, 115
5, 4078, Note_on_c, 1, 76, 0
5, 4080, Note_on_c, 1, 76, 115
5, 4126, Note_on_c, 1, 76, 0
5, 4320, Note_on_c, 1, 76, 115
5, 4654, Note_on_c, 1, 76, 0
5, 4992, Note_on_c, 1, 71, 115
5, 5038, Note_on_c, 1, 71, 0
5, 5040, Note_on_c, 1, 71, 115
5, 5086, Note_on_c, 1, 71, 0
5, 5088, Note_on_c, 1, 71, 115
5, 5134, Note_on_c, 1, 71, 0
5, 5136, Note_on_c, 1, 71, 115
5, 5182, Note_on_c, 1, 71, 0
5, 5184, Note_on_c, 1, 71, 115
5, 5278, Note_on_c, 1, 71, 0
5, 5280, Note_on_c, 1, 71, 115
5, 5326, Note_on_c, 1, 71, 0
5, 5328, Note_on_c, 1, 71, 115
5, 5374, Note_on_c, 1, 71, 0
5, 5376, Note_on_c, 1, 73, 115
5, 5470, Note_on_c, 1, 73, 0
5, 5472, Note_on_c, 1, 71, 115
5, 5566, Note_on_c, 1, 71, 0
5, 5568, Note_on_c, 1, 71, 115
5, 5662, Note_on_c, 1, 71, 0
5, 5664, Note_on_c, 1, 68, 115
5, 5758, Note_on_c, 1, 68, 0
5, 5760, Note_on_c, 1, 71, 115
5, 5854, Note_on_c, 1, 71, 0
5, 5856, Note_on_c, 1, 71, 115
5, 5950, Note_on_c, 1, 71, 0
5, 5952, Note_on_c, 1, 76, 115
5, 6046, Note_on_c, 1, 76, 0
5, 6048, Note_on_c, 1, 76, 115
5, 6063, Note_on_c, 1, 76, 0
5, 6064, Note_on_c, 1, 78, 115
5, 6142, Note_on_c, 1, 78, 0
5, 6144, Note_on_c, 1, 76, 115
5, 6238, Note_on_c, 1, 76, 0
5, 6240, Note_on_c, 1, 71, 115
5, 6286, Note_on_c, 1, 71, 0
5, 6288, Note_on_c, 1, 71, 115
5, 6334, Note_on_c, 1, 71, 0
5, 6336, Note_on_c, 1, 73, 115
5, 6382, Note_on_c, 1, 73, 0
5, 6384, Note_on_c, 1, 76, 115
5, 6430, Note_on_c, 1, 76, 0
5, 6480, Note_on_c, 1, 78, 115
5, 6622, Note_on_c, 1, 78, 0
5, 7056, Note_on_c, 1, 71, 115
5, 7102, Note_on_c, 1, 71, 0
5, 7104, Note_on_c, 1, 76, 115
5, 7150, Note_on_c, 1, 76, 0
5, 7152, Note_on_c, 1, 76, 115
5, 7198, Note_on_c, 1, 76, 0
5, 7392, Note_on_c, 1, 76, 115
5, 7726, Note_on_c, 1, 76, 0
5, 8064, Note_on_c, 1, 71, 115
5, 8110, Note_on_c, 1, 71, 0
5, 8112, Note_on_c, 1, 71, 115
5, 8206, Note_on_c, 1, 71, 0
5, 8208, Note_on_c, 1, 71, 115
5, 8302, Note_on_c, 1, 71, 0
5, 8304, Note_on_c, 1, 71, 115
5, 8398, Note_on_c, 1, 71, 0
5, 8400, Note_on_c, 1, 73, 115
5, 8494, Note_on_c, 1, 73, 0
5, 8496, Note_on_c, 1, 71, 115
5, 8542, Note_on_c, 1, 71, 0
5, 8832, Note_on_c, 1, 71, 115
5, 8926, Note_on_c, 1, 71, 0
5, 8928, Note_on_c, 1, 71, 115
5, 8974, Note_on_c, 1, 71, 0
5, 8976, Note_on_c, 1, 71, 115
5, 9070, Note_on_c, 1, 71, 0
5, 9072, Note_on_c, 1, 71, 115
5, 9166, Note_on_c, 1, 71, 0
5, 9168, Note_on_c, 1, 71, 115
5, 9179, Note_on_c, 1, 71, 0
5, 9180, Note_on_c, 1, 73, 115
5, 9214, Note_on_c, 1, 73, 0
5, 9216, Note_on_c, 1, 71, 115
5, 9262, Note_on_c, 1, 71, 0
5, 9264, Note_on_c, 1, 65, 115
5, 9310, Note_on_c, 1, 65, 0
5, 9600, Note_on_c, 1, 71, 115
5, 9646, Note_on_c, 1, 71, 0
5, 9648, Note_on_c, 1, 71, 115
5, 9742, Note_on_c, 1, 71, 0
5, 9744, Note_on_c, 1, 71, 115
5, 9838, Note_on_c, 1, 71, 0
5, 9840, Note_on_c, 1, 71, 115
5, 9934, Note_on_c, 1, 71, 0
5, 9936, Note_on_c, 1, 73, 115
5, 10030, Note_on_c, 1, 73, 0
5, 10032, Note_on_c, 1, 71, 115
5, 10078, Note_on_c, 1, 71, 0
5, 10224, Note_on_c, 1, 71, 115
5, 10270, Note_on_c, 1, 71, 0
5, 10272, Note_on_c, 1, 76, 115
5, 10318, Note_on_c, 1, 76, 0
5, 10320, Note_on_c, 1, 73, 115
5, 10366, Note_on_c, 1, 73, 0
5, 10368, Note_on_c, 1, 71, 115
5, 10462, Note_on_c, 1, 71, 0
5, 10608, Note_on_c, 1, 71, 115
5, 10654, Note_on_c, 1, 71, 0
5, 10656, Note_on_c, 1, 76, 115
5, 10702, Note_on_c, 1, 76, 0
5, 10704, Note_on_c, 1, 73, 115
5, 10750, Note_on_c, 1, 73, 0
5, 10752, Note_on_c, 1, 71, 115
5, 10846, Note_on_c, 1, 71, 0
5, 14208, Note_on_c, 1, 71, 115
5, 14254, Note_on_c, 1, 71, 0
5, 14256, Note_on_c, 1, 71, 115
5, 14350, Note_on_c, 1, 71, 0
5, 14352, Note_on_c, 1, 71, 115
5, 14446, Note_on_c, 1, 71, 0
5, 14448, Note_on_c, 1, 71, 115
5, 14542, Note_on_c, 1, 71, 0
5, 14544, Note_on_c, 1, 73, 115
5, 14638, Note_on_c, 1, 73, 0
5, 14640, Note_on_c, 1, 71, 115
5, 14686, Note_on_c, 1, 71, 0
5, 14976, Note_on_c, 1, 71, 115
5, 15070, Note_on_c, 1, 71, 0
5, 15072, Note_on_c, 1, 71, 115
5, 15118, Note_on_c, 1, 71, 0
5, 15120, Note_on_c, 1, 71, 115
5, 15214, Note_on_c, 1, 71, 0
5, 15216, Note_on_c, 1, 71, 115
5, 15310, Note_on_c, 1, 71, 0
5, 15312, Note_on_c, 1, 71, 115
5, 15323, Note_on_c, 1, 71, 0
5, 15324, Note_on_c, 1, 73, 115
5, 15358, Note_on_c, 1, 73, 0
5, 15360, Note_on_c, 1, 71, 115
5, 15406, Note_on_c, 1, 71, 0
5, 15408, Note_on_c, 1, 65, 115
5, 15454, Note_on_c, 1, 65, 0
5, 15744, Note_on_c, 1, 71, 115
5, 15790, Note_on_c, 1, 71, 0
5, 15792, Note_on_c, 1, 71, 115
5, 15886, Note_on_c, 1, 71, 0
5, 15888, Note_on_c, 1, 71, 115
5, 15982, Note_on_c, 1, 71, 0
5, 15984, Note_on_c, 1, 71, 115
5, 16078, Note_on_c, 1, 71, 0
5, 16080, Note_on_c, 1, 73, 115
5, 16174, Note_on_c, 1, 73, 0
5, 16176, Note_on_c, 1, 71, 115
5, 16222, Note_on_c, 1, 71, 0
5, 16368, Note_on_c, 1, 71, 115
5, 16414, Note_on_c, 1, 71, 0
5, 16416, Note_on_c, 1, 76, 115
5, 16462, Note_on_c, 1, 76, 0
5, 16464, Note_on_c, 1, 73, 115
5, 16510, Note_on_c, 1, 73, 0
5, 16512, Note_on_c, 1, 71, 115
5, 16606, Note_on_c, 1, 71, 0
5, 16752, Note_on_c, 1, 71, 115
5, 16798, Note_on_c, 1, 71, 0
5, 16800, Note_on_c, 1, 76, 115
5, 16846, Note_on_c, 1, 76, 0
5, 16848, Note_on_c, 1, 73, 115
5, 16894, Note_on_c, 1, 73, 0
5, 16896, Note_on_c, 1, 71, 115
5, 17086, Note_on_c, 1, 71, 0
5, 17232, Note_on_c, 1, 71, 115
5, 17278, Note_on_c, 1, 71, 0
5, 17280, Note_on_c, 1, 71, 115
5, 17326, Note_on_c, 1, 71, 0
5, 17328, Note_on_c, 1, 71, 115
5, 17374, Note_on_c, 1, 71, 0
5, 17376, Note_on_c, 1, 71, 115
5, 17422, Note_on_c, 1, 71, 0
5, 17424, Note_on_c, 1, 71, 115
5, 17470, Note_on_c, 1, 71, 0
5, 17472, Note_on_c, 1, 71, 115
5, 17566, Note_on_c, 1, 71, 0
5, 17568, Note_on_c, 1, 71, 115
5, 17614, Note_on_c, 1, 71, 0
5, 17616, Note_on_c, 1, 71, 115
5, 17662, Note_on_c, 1, 71, 0
5, 17664, Note_on_c, 1, 73, 115
5, 17758, Note_on_c, 1, 73, 0
5, 17760, Note_on_c, 1, 73, 115
5, 17854, Note_on_c, 1, 73, 0
5, 17856, Note_on_c, 1, 71, 115
5, 17950, Note_on_c, 1, 71, 0
5, 18048, Note_on_c, 1, 71, 115
5, 18142, Note_on_c, 1, 71, 0
5, 18144, Note_on_c, 1, 71, 115
5, 18238, Note_on_c, 1, 71, 0
5, 18240, Note_on_c, 1, 76, 115
5, 18334, Note_on_c, 1, 76, 0
5, 18336, Note_on_c, 1, 76, 115
5, 18351, Note_on_c, 1, 76, 0
5, 18352, Note_on_c, 1, 78, 115
5, 18430, Note_on_c, 1, 78, 0
5, 18432, Note_on_c, 1, 76, 115
5, 18526, Note_on_c, 1, 76, 0
5, 18528, Note_on_c, 1, 71, 115
5, 18574, Note_on_c, 1, 71, 0
5, 18576, Note_on_c, 1, 71, 115
5, 18622, Note_on_c, 1, 71, 0
5, 18624, Note_on_c, 1, 73, 115
5, 18670, Note_on_c, 1, 73, 0
5, 18672, Note_on_c, 1, 76, 115
5, 18718, Note_on_c, 1, 76, 0
5, 18768, Note_on_c, 1, 80, 115
5, 18814, Note_on_c, 1, 80, 0
5, 18816, Note_on_c, 1, 78, 115
5, 18862, Note_on_c, 1, 78, 0
5, 19344, Note_on_c, 1, 71, 115
5, 19390, Note_on_c, 1, 71, 0
5, 19392, Note_on_c, 1, 76, 115
5, 19438, Note_on_c, 1, 76, 0
5, 19440, Note_on_c, 1, 76, 115
5, 19582, Note_on_c, 1, 76, 0
5, 19680, Note_on_c, 1, 76, 115
5, 20014, Note_on_c, 1, 76, 0
5, 20014, End_track
6, 0, Start_track
6, 0, Title_t, "Harmony 1 Piccolo"
6, 0, MIDI_port, 0
6, 96, Control_c, 2, 121, 0
6, 97, Control_c, 2, 7, 104
6, 98, Control_c, 2, 10, 32
6, 99, Control_c, 2, 91, 60
6, 100, Control_c, 2, 93, 11
6, 101, Control_c, 2, 32, 0
6, 101, Control_c, 2, 0, 0
6, 101, Program_c, 2, 72
6, 102, Text_t, "VIBR DEPTH"
6, 103, Control_c, 2, 99, 1
6, 104, Control_c, 2, 98, 9
6, 105, Control_c, 2, 6, 67
6, 106, Text_t, "VIBR SPEED"
6, 107, Control_c, 2, 99, 1
6, 108, Control_c, 2, 98, 8
6, 109, Control_c, 2, 6, 56
6, 110, Text_t, "VIBR DELAY"
6, 111, Control_c, 2, 99, 1
6, 112, Control_c, 2, 98, 10
6, 113, Control_c, 2, 6, 59
6, 2688, Note_on_c, 2, 76, 100
6, 2783, Note_on_c, 2, 76, 0
6, 2784, Note_on_c, 2, 76, 100
6, 2879, Note_on_c, 2, 76, 0
6, 2880, Note_on_c, 2, 80, 100
6, 2975, Note_on_c, 2, 80, 0
6, 2976, Note_on_c, 2, 81, 100
6, 3071, Note_on_c, 2, 81, 0
6, 3072, Note_on_c, 2, 80, 100
6, 3167, Note_on_c, 2, 80, 0
6, 4320, Note_on_c, 2, 80, 100
6, 4655, Note_on_c, 2, 80, 0
6, 5760, Note_on_c, 2, 76, 100
6, 5855, Note_on_c, 2, 76, 0
6, 5856, Note_on_c, 2, 76, 100
6, 5951, Note_on_c, 2, 76, 0
6, 5952, Note_on_c, 2, 80, 100
6, 6047, Note_on_c, 2, 80, 0
6, 6048, Note_on_c, 2, 81, 100
6, 6143, Note_on_c, 2, 81, 0
6, 6144, Note_on_c, 2, 80, 100
6, 6239, Note_on_c, 2, 80, 0
6, 7392, Note_on_c, 2, 80, 100
6, 7727, Note_on_c, 2, 80, 0
6, 17280, Note_on_c, 2, 80, 100
6, 17327, Note_on_c, 2, 80, 0
6, 17328, Note_on_c, 2, 80, 100
6, 17375, Note_on_c, 2, 80, 0
6, 17376, Note_on_c, 2, 80, 100
6, 17423, Note_on_c, 2, 80, 0
6, 17424, Note_on_c, 2, 80, 100
6, 17471, Note_on_c, 2, 80, 0
6, 17472, Note_on_c, 2, 80, 100
6, 17567, Note_on_c, 2, 80, 0
6, 17568, Note_on_c, 2, 78, 100
6, 17615, Note_on_c, 2, 78, 0
6, 17616, Note_on_c, 2, 78, 100
6, 17663, Note_on_c, 2, 78, 0
6, 17664, Note_on_c, 2, 76, 100
6, 17759, Note_on_c, 2, 76, 0
6, 17760, Note_on_c, 2, 76, 100
6, 17855, Note_on_c, 2, 76, 0
6, 17856, Note_on_c, 2, 75, 100
6, 17951, Note_on_c, 2, 75, 0
6, 18048, Note_on_c, 2, 80, 100
6, 18143, Note_on_c, 2, 80, 0
6, 18144, Note_on_c, 2, 80, 100
6, 18239, Note_on_c, 2, 80, 0
6, 18240, Note_on_c, 2, 80, 100
6, 18335, Note_on_c, 2, 80, 0
6, 18336, Note_on_c, 2, 80, 100
6, 18351, Note_on_c, 2, 80, 0
6, 18352, Note_on_c, 2, 81, 100
6, 18431, Note_on_c, 2, 81, 0
6, 18432, Note_on_c, 2, 80, 100
6, 18527, Note_on_c, 2, 80, 0
6, 19680, Note_on_c, 2, 80, 100
6, 20015, Note_on_c, 2, 80, 0
6, 20015, End_track
7, 0, Start_track
7, 0, Title_t, "Harmony 2 Piccolo"
7, 0, MIDI_port, 0
7, 96, Control_c, 3, 121, 0
7, 97, Control_c, 3, 7, 100
7, 98, Control_c, 3, 10, 96
7, 99, Control_c, 3, 91, 60
7, 100, Control_c, 3, 93, 11
7, 101, Control_c, 3, 32, 0
7, 101, Control_c, 3, 0, 0
7, 101, Program_c, 3, 72
7, 102, Text_t, "VIBR DEPTH"
7, 103, Control_c, 3, 99, 1
7, 104, Control_c, 3, 98, 9
7, 105, Control_c, 3, 6, 67
7, 106, Text_t, "VIBR SPEED"
7, 107, Control_c, 3, 99, 1
7, 108, Control_c, 3, 98, 8
7, 109, Control_c, 3, 6, 56
7, 110, Text_t, "VIBR DELAY"
7, 111, Control_c, 3, 99, 1
7, 112, Control_c, 3, 98, 10
7, 113, Control_c, 3, 6, 63
7, 17280, Note_on_c, 3, 83, 100
7, 17327, Note_on_c, 3, 83, 0
7, 17328, Note_on_c, 3, 83, 100
7, 17375, Note_on_c, 3, 83, 0
7, 17376, Note_on_c, 3, 83, 100
7, 17423, Note_on_c, 3, 83, 0
7, 17424, Note_on_c, 3, 83, 100
7, 17471, Note_on_c, 3, 83, 0
7, 17472, Note_on_c, 3, 83, 100
7, 17567, Note_on_c, 3, 83, 0
7, 17568, Note_on_c, 3, 81, 100
7, 17615, Note_on_c, 3, 81, 0
7, 17616, Note_on_c, 3, 81, 100
7, 17663, Note_on_c, 3, 81, 0
7, 17664, Note_on_c, 3, 80, 100
7, 17759, Note_on_c, 3, 80, 0
7, 17760, Note_on_c, 3, 80, 100
7, 17855, Note_on_c, 3, 80, 0
7, 17856, Note_on_c, 3, 78, 100
7, 17951, Note_on_c, 3, 78, 0
7, 18336, Note_on_c, 3, 85, 100
7, 18431, Note_on_c, 3, 85, 0
7, 18432, Note_on_c, 3, 83, 100
7, 18527, Note_on_c, 3, 83, 0
7, 19680, Note_on_c, 3, 83, 100
7, 20015, Note_on_c, 3, 83, 0
7, 20015, End_track
8, 0, Start_track
8, 0, Title_t, "Gtr 1 Jazz"
8, 0, MIDI_port, 0
8, 96, Control_c, 4, 121, 0
8, 97, Control_c, 4, 7, 103
8, 98, Control_c, 4, 10, 100
8, 99, Control_c, 4, 91, 50
8, 100, Control_c, 4, 93, 11
8, 101, Control_c, 4, 32, 0
8, 101, Control_c, 4, 0, 0
8, 101, Program_c, 4, 26
8, 102, Text_t, "VIBR DEPTH"
8, 103, Control_c, 4, 99, 1
8, 104, Control_c, 4, 98, 9
8, 105, Control_c, 4, 6, 73
8, 106, Text_t, "VIBR SPEED"
8, 107, Control_c, 4, 99, 1
8, 108, Control_c, 4, 98, 8
8, 109, Control_c, 4, 6, 59
8, 110, Text_t, "VIBR DELAY"
8, 111, Control_c, 4, 99, 1
8, 112, Control_c, 4, 98, 10
8, 113, Control_c, 4, 6, 66
8, 384, Note_on_c, 4, 40, 105
8, 431, Note_on_c, 4, 40, 0
8, 432, Note_on_c, 4, 68, 105
8, 479, Note_on_c, 4, 68, 0
8, 480, Note_on_c, 4, 66, 105
8, 527, Note_on_c, 4, 66, 0
8, 528, Note_on_c, 4, 64, 105
8, 575, Note_on_c, 4, 64, 0
8, 576, Note_on_c, 4, 66, 105
8, 623, Note_on_c, 4, 66, 0
8, 624, Note_on_c, 4, 64, 105
8, 671, Note_on_c, 4, 64, 0
8, 672, Note_on_c, 4, 63, 105
8, 719, Note_on_c, 4, 63, 0
8, 720, Note_on_c, 4, 64, 105
8, 767, Note_on_c, 4, 64, 0
8, 768, Note_on_c, 4, 63, 105
8, 816, Note_on_c, 4, 61, 105
8, 863, Note_on_c, 4, 61, 0
8, 864, Note_on_c, 4, 59, 105
8, 911, Note_on_c, 4, 63, 0
8, 912, Note_on_c, 4, 57, 105
8, 959, Note_on_c, 4, 57, 0
8, 960, Note_on_c, 4, 56, 105
8, 1007, Note_on_c, 4, 59, 0
8, 1008, Note_on_c, 4, 59, 105
8, 1055, Note_on_c, 4, 56, 0
8, 1056, Note_on_c, 4, 64, 105
8, 1103, Note_on_c, 4, 64, 0
8, 1104, Note_on_c, 4, 66, 105
8, 1151, Note_on_c, 4, 59, 0
8, 1151, Note_on_c, 4, 66, 0
8, 1152, Note_on_c, 4, 68, 105
8, 1199, Note_on_c, 4, 68, 0
8, 1248, Note_on_c, 4, 68, 105
8, 1391, Note_on_c, 4, 68, 0
8, 1392, Note_on_c, 4, 68, 105
8, 1407, Note_on_c, 4, 68, 0
8, 1408, Note_on_c, 4, 69, 105
8, 1439, Note_on_c, 4, 69, 0
8, 1440, Note_on_c, 4, 68, 105
8, 1535, Note_on_c, 4, 68, 0
8, 1536, Note_on_c, 4, 64, 105
8, 1583, Note_on_c, 4, 64, 0
8, 1584, Note_on_c, 4, 59, 105
8, 1631, Note_on_c, 4, 59, 0
8, 1632, Note_on_c, 4, 61, 105
8, 1679, Note_on_c, 4, 61, 0
8, 1680, Note_on_c, 4, 64, 105
8, 1727, Note_on_c, 4, 64, 0
8, 1728, Note_on_c, 4, 66, 105
8, 1733, Note_on_c, 4, 66, 0
8, 1734, Note_on_c, 4, 68, 105
8, 1823, Note_on_c, 4, 68, 0
8, 1824, Note_on_c, 4, 66, 105
8, 1847, Note_on_c, 4, 66, 0
8, 1848, Note_on_c, 4, 64, 105
8, 1871, Note_on_c, 4, 64, 0
8, 1872, Note_on_c, 4, 61, 105
8, 1919, Note_on_c, 4, 61, 0
8, 4656, Note_on_c, 4, 59, 105
8, 4703, Note_on_c, 4, 59, 0
8, 4704, Note_on_c, 4, 61, 105
8, 4751, Note_on_c, 4, 61, 0
8, 4752, Note_on_c, 4, 64, 105
8, 4799, Note_on_c, 4, 64, 0
8, 4800, Note_on_c, 4, 66, 105
8, 4805, Note_on_c, 4, 66, 0
8, 4806, Note_on_c, 4, 68, 105
8, 4895, Note_on_c, 4, 68, 0
8, 4896, Note_on_c, 4, 66, 105
8, 4919, Note_on_c, 4, 66, 0
8, 4920, Note_on_c, 4, 64, 105
8, 4943, Note_on_c, 4, 64, 0
8, 4944, Note_on_c, 4, 61, 105
8, 4991, Note_on_c, 4, 61, 0
8, 8064, Note_on_c, 4, 59, 95
8, 8112, Note_on_c, 4, 61, 95
8, 8159, Note_on_c, 4, 61, 0
8, 8160, Note_on_c, 4, 63, 95
8, 8207, Note_on_c, 4, 59, 0
8, 8208, Note_on_c, 4, 68, 95
8, 8303, Note_on_c, 4, 63, 0
8, 8304, Note_on_c, 4, 63, 95
8, 8351, Note_on_c, 4, 63, 0
8, 8352, Note_on_c, 4, 61, 95
8, 8399, Note_on_c, 4, 68, 0
8, 8400, Note_on_c, 4, 59, 95
8, 8447, Note_on_c, 4, 61, 0
8, 8447, Note_on_c, 4, 59, 0
8, 8448, Note_on_c, 4, 59, 95
8, 8496, Note_on_c, 4, 61, 95
8, 8543, Note_on_c, 4, 61, 0
8, 8544, Note_on_c, 4, 63, 95
8, 8591, Note_on_c, 4, 59, 0
8, 8592, Note_on_c, 4, 67, 95
8, 8687, Note_on_c, 4, 63, 0
8, 8688, Note_on_c, 4, 63, 95
8, 8735, Note_on_c, 4, 63, 0
8, 8736, Note_on_c, 4, 61, 95
8, 8783, Note_on_c, 4, 67, 0
8, 8784, Note_on_c, 4, 59, 95
8, 8831, Note_on_c, 4, 61, 0
8, 8831, Note_on_c, 4, 59, 0
8, 8832, Note_on_c, 4, 59, 95
8, 8880, Note_on_c, 4, 61, 95
8, 8927, Note_on_c, 4, 61, 0
8, 8928, Note_on_c, 4, 63, 95
8, 8975, Note_on_c, 4, 59, 0
8, 8976, Note_on_c, 4, 66, 95
8, 9071, Note_on_c, 4, 63, 0
8, 9072, Note_on_c, 4, 63, 95
8, 9119, Note_on_c, 4, 63, 0
8, 9120, Note_on_c, 4, 61, 95
8, 9167, Note_on_c, 4, 66, 0
8, 9168, Note_on_c, 4, 59, 95
8, 9215, Note_on_c, 4, 61, 0
8, 9215, Note_on_c, 4, 59, 0
8, 9216, Note_on_c, 4, 59, 95
8, 9264, Note_on_c, 4, 61, 95
8, 9311, Note_on_c, 4, 61, 0
8, 9312, Note_on_c, 4, 63, 95
8, 9359, Note_on_c, 4, 59, 0
8, 9360, Note_on_c, 4, 65, 95
8, 9455, Note_on_c, 4, 63, 0
8, 9456, Note_on_c, 4, 61, 95
8, 9503, Note_on_c, 4, 61, 0
8, 9504, Note_on_c, 4, 56, 95
8, 9551, Note_on_c, 4, 65, 0
8, 9552, Note_on_c, 4, 53, 95
8, 9599, Note_on_c, 4, 56, 0
8, 9599, Note_on_c, 4, 53, 0
8, 9600, Note_on_c, 4, 52, 95
8, 9648, Note_on_c, 4, 56, 95
8, 9695, Note_on_c, 4, 52, 0
8, 9696, Note_on_c, 4, 59, 95
8, 9743, Note_on_c, 4, 56, 0
8, 9744, Note_on_c, 4, 64, 95
8, 9839, Note_on_c, 4, 59, 0
8, 9840, Note_on_c, 4, 59, 95
8, 9887, Note_on_c, 4, 64, 0
8, 9888, Note_on_c, 4, 56, 95
8, 9935, Note_on_c, 4, 59, 0
8, 9936, Note_on_c, 4, 52, 95
8, 9983, Note_on_c, 4, 56, 0
8, 9983, Note_on_c, 4, 52, 0
8, 9984, Note_on_c, 4, 54, 95
8, 10032, Note_on_c, 4, 57, 95
8, 10079, Note_on_c, 4, 54, 0
8, 10080, Note_on_c, 4, 61, 95
8, 10127, Note_on_c, 4, 57, 0
8, 10128, Note_on_c, 4, 66, 95
8, 10223, Note_on_c, 4, 61, 0
8, 10224, Note_on_c, 4, 61, 95
8, 10271, Note_on_c, 4, 66, 0
8, 10272, Note_on_c, 4, 57, 95
8, 10319, Note_on_c, 4, 61, 0
8, 10320, Note_on_c, 4, 54, 95
8, 10367, Note_on_c, 4, 57, 0
8, 10367, Note_on_c, 4, 54, 0
8, 10368, Note_on_c, 4, 54, 95
8, 10416, Note_on_c, 4, 57, 95
8, 10463, Note_on_c, 4, 54, 0
8, 10464, Note_on_c, 4, 61, 95
8, 10511, Note_on_c, 4, 57, 0
8, 10512, Note_on_c, 4, 66, 95
8, 10607, Note_on_c, 4, 61, 0
8, 10608, Note_on_c, 4, 61, 95
8, 10655, Note_on_c, 4, 66, 0
8, 10656, Note_on_c, 4, 57, 95
8, 10703, Note_on_c, 4, 61, 0
8, 10704, Note_on_c, 4, 54, 95
8, 10751, Note_on_c, 4, 57, 0
8, 10751, Note_on_c, 4, 54, 0
8, 10752, Note_on_c, 4, 54, 95
8, 10800, Note_on_c, 4, 59, 95
8, 10847, Note_on_c, 4, 54, 0
8, 10848, Note_on_c, 4, 63, 95
8, 10895, Note_on_c, 4, 59, 0
8, 10896, Note_on_c, 4, 66, 95
8, 10991, Note_on_c, 4, 63, 0
8, 10992, Note_on_c, 4, 63, 95
8, 11039, Note_on_c, 4, 66, 0
8, 11040, Note_on_c, 4, 59, 95
8, 11087, Note_on_c, 4, 63, 0
8, 11088, Note_on_c, 4, 54, 95
8, 11135, Note_on_c, 4, 59, 0
8, 11135, Note_on_c, 4, 54, 0
8, 11136, Note_on_c, 4, 40, 105
8, 11183, Note_on_c, 4, 40, 0
8, 11184, Note_on_c, 4, 68, 105
8, 11231, Note_on_c, 4, 68, 0
8, 11232, Note_on_c, 4, 66, 105
8, 11279, Note_on_c, 4, 66, 0
8, 11280, Note_on_c, 4, 64, 105
8, 11327, Note_on_c, 4, 64, 0
8, 11328, Note_on_c, 4, 66, 105
8, 11375, Note_on_c, 4, 66, 0
8, 11376, Note_on_c, 4, 64, 105
8, 11423, Note_on_c, 4, 64, 0
8, 11424, Note_on_c, 4, 63, 105
8, 11471, Note_on_c, 4, 63, 0
8, 11472, Note_on_c, 4, 64, 105
8, 11519, Note_on_c, 4, 64, 0
8, 11520, Note_on_c, 4, 63, 105
8, 11568, Note_on_c, 4, 61, 105
8, 11615, Note_on_c, 4, 61, 0
8, 11616, Note_on_c, 4, 59, 105
8, 11663, Note_on_c, 4, 63, 0
8, 11664, Note_on_c, 4, 57, 105
8, 11711, Note_on_c, 4, 57, 0
8, 11712, Note_on_c, 4, 56, 105
8, 11759, Note_on_c, 4, 59, 0
8, 11760, Note_on_c, 4, 59, 105
8, 11807, Note_on_c, 4, 56, 0
8, 11808, Note_on_c, 4, 64, 105
8, 11855, Note_on_c, 4, 64, 0
8, 11856, Note_on_c, 4, 66, 105
8, 11903, Note_on_c, 4, 59, 0
8, 11903, Note_on_c, 4, 66, 0
8, 11904, Note_on_c, 4, 68, 105
8, 11951, Note_on_c, 4, 68, 0
8, 12000, Note_on_c, 4, 68, 105
8, 12167, Note_on_c, 4, 68, 0
8, 12168, Note_on_c, 4, 68, 105
8, 12175, Note_on_c, 4, 68, 0
8, 12176, Note_on_c, 4, 69, 105
8, 12191, Note_on_c, 4, 69, 0
8, 12192, Note_on_c, 4, 68, 105
8, 12287, Note_on_c, 4, 68, 0
8, 12288, Note_on_c, 4, 64, 105
8, 12335, Note_on_c, 4, 64, 0
8, 12336, Note_on_c, 4, 59, 105
8, 12383, Note_on_c, 4, 59, 0
8, 12384, Note_on_c, 4, 61, 105
8, 12431, Note_on_c, 4, 61, 0
8, 12432, Note_on_c, 4, 64, 105
8, 12479, Note_on_c, 4, 64, 0
8, 12480, Note_on_c, 4, 66, 105
8, 12485, Note_on_c, 4, 66, 0
8, 12486, Note_on_c, 4, 68, 105
8, 12575, Note_on_c, 4, 68, 0
8, 12576, Note_on_c, 4, 66, 105
8, 12599, Note_on_c, 4, 66, 0
8, 12600, Note_on_c, 4, 64, 105
8, 12623, Note_on_c, 4, 64, 0
8, 12624, Note_on_c, 4, 61, 105
8, 12671, Note_on_c, 4, 61, 0
8, 12672, Note_on_c, 4, 66, 105
8, 12719, Note_on_c, 4, 66, 0
8, 12720, Note_on_c, 4, 68, 105
8, 12767, Note_on_c, 4, 68, 0
8, 12768, Note_on_c, 4, 69, 105
8, 12816, Note_on_c, 4, 71, 105
8, 12863, Note_on_c, 4, 69, 0
8, 12864, Note_on_c, 4, 69, 105
8, 12911, Note_on_c, 4, 69, 0
8, 12912, Note_on_c, 4, 68, 105
8, 12959, Note_on_c, 4, 68, 0
8, 12960, Note_on_c, 4, 66, 105
8, 13007, Note_on_c, 4, 71, 0
8, 13008, Note_on_c, 4, 64, 105
8, 13055, Note_on_c, 4, 66, 0
8, 13055, Note_on_c, 4, 64, 0
8, 13056, Note_on_c, 4, 63, 105
8, 13103, Note_on_c, 4, 63, 0
8, 13104, Note_on_c, 4, 64, 105
8, 13152, Note_on_c, 4, 66, 105
8, 13199, Note_on_c, 4, 66, 0
8, 13200, Note_on_c, 4, 68, 105
8, 13247, Note_on_c, 4, 68, 0
8, 13248, Note_on_c, 4, 69, 105
8, 13295, Note_on_c, 4, 64, 0
8, 13296, Note_on_c, 4, 71, 105
8, 13343, Note_on_c, 4, 71, 0
8, 13344, Note_on_c, 4, 73, 105
8, 13391, Note_on_c, 4, 73, 0
8, 13392, Note_on_c, 4, 75, 105
8, 13439, Note_on_c, 4, 69, 0
8, 13439, Note_on_c, 4, 75, 0
8, 13440, Note_on_c, 4, 75, 105
8, 13445, Note_on_c, 4, 75, 0
8, 13446, Note_on_c, 4, 76, 105
8, 13487, Note_on_c, 4, 76, 0
8, 13536, Note_on_c, 4, 76, 105
8, 13703, Note_on_c, 4, 76, 0
8, 13704, Note_on_c, 4, 76, 105
8, 13711, Note_on_c, 4, 76, 0
8, 13712, Note_on_c, 4, 78, 105
8, 13727, Note_on_c, 4, 78, 0
8, 13728, Note_on_c, 4, 76, 105
8, 13823, Note_on_c, 4, 76, 0
8, 13824, Note_on_c, 4, 71, 105
8, 13871, Note_on_c, 4, 71, 0
8, 13872, Note_on_c, 4, 68, 105
8, 13920, Note_on_c, 4, 64, 105
8, 14207, Note_on_c, 4, 68, 0
8, 14207, Note_on_c, 4, 64, 0
8, 14208, Note_on_c, 4, 59, 95
8, 14256, Note_on_c, 4, 61, 95
8, 14303, Note_on_c, 4, 61, 0
8, 14304, Note_on_c, 4, 63, 95
8, 14351, Note_on_c, 4, 59, 0
8, 14352, Note_on_c, 4, 68, 95
8, 14447, Note_on_c, 4, 63, 0
8, 14448, Note_on_c, 4, 63, 95
8, 14495, Note_on_c, 4, 63, 0
8, 14496, Note_on_c, 4, 61, 95
8, 14543, Note_on_c, 4, 68, 0
8, 14544, Note_on_c, 4, 59, 95
8, 14591, Note_on_c, 4, 61, 0
8, 14591, Note_on_c, 4, 59, 0
8, 14592, Note_on_c, 4, 59, 95
8, 14640, Note_on_c, 4, 61, 95
8, 14687, Note_on_c, 4, 61, 0
8, 14688, Note_on_c, 4, 63, 95
8, 14735, Note_on_c, 4, 59, 0
8, 14736, Note_on_c, 4, 67, 95
8, 14831, Note_on_c, 4, 63, 0
8, 14832, Note_on_c, 4, 63, 95
8, 14879, Note_on_c, 4, 63, 0
8, 14880, Note_on_c, 4, 61, 95
8, 14927, Note_on_c, 4, 67, 0
8, 14928, Note_on_c, 4, 59, 95
8, 14975, Note_on_c, 4, 61, 0
8, 14975, Note_on_c, 4, 59, 0
8, 14976, Note_on_c, 4, 59, 95
8, 15024, Note_on_c, 4, 61, 95
8, 15071, Note_on_c, 4, 61, 0
8, 15072, Note_on_c, 4, 63, 95
8, 15119, Note_on_c, 4, 59, 0
8, 15120, Note_on_c, 4, 66, 95
8, 15215, Note_on_c, 4, 63, 0
8, 15216, Note_on_c, 4, 63, 95
8, 15263, Note_on_c, 4, 63, 0
8, 15264, Note_on_c, 4, 61, 95
8, 15311, Note_on_c, 4, 66, 0
8, 15312, Note_on_c, 4, 59, 95
8, 15359, Note_on_c, 4, 61, 0
8, 15359, Note_on_c, 4, 59, 0
8, 15360, Note_on_c, 4, 59, 95
8, 15408, Note_on_c, 4, 61, 95
8, 15455, Note_on_c, 4, 61, 0
8, 15456, Note_on_c, 4, 63, 95
8, 15503, Note_on_c, 4, 59, 0
8, 15504, Note_on_c, 4, 65, 95
8, 15599, Note_on_c, 4, 63, 0
8, 15600, Note_on_c, 4, 61, 95
8, 15647, Note_on_c, 4, 61, 0
8, 15648, Note_on_c, 4, 56, 95
8, 15695, Note_on_c, 4, 65, 0
8, 15696, Note_on_c, 4, 53, 95
8, 15743, Note_on_c, 4, 56, 0
8, 15743, Note_on_c, 4, 53, 0
8, 15744, Note_on_c, 4, 52, 95
8, 15792, Note_on_c, 4, 56, 95
8, 15839, Note_on_c, 4, 52, 0
8, 15840, Note_on_c, 4, 59, 95
8, 15887, Note_on_c, 4, 56, 0
8, 15888, Note_on_c, 4, 64, 95
8, 15983, Note_on_c, 4, 59, 0
8, 15984, Note_on_c, 4, 59, 95
8, 16031, Note_on_c, 4, 64, 0
8, 16032, Note_on_c, 4, 56, 95
8, 16079, Note_on_c, 4, 59, 0
8, 16080, Note_on_c, 4, 52, 95
8, 16127, Note_on_c, 4, 56, 0
8, 16127, Note_on_c, 4, 52, 0
8, 16128, Note_on_c, 4, 54, 95
8, 16176, Note_on_c, 4, 57, 95
8, 16223, Note_on_c, 4, 54, 0
8, 16224, Note_on_c, 4, 61, 95
8, 16271, Note_on_c, 4, 57, 0
8, 16272, Note_on_c, 4, 66, 95
8, 16367, Note_on_c, 4, 61, 0
8, 16368, Note_on_c, 4, 61, 95
8, 16415, Note_on_c, 4, 66, 0
8, 16416, Note_on_c, 4, 57, 95
8, 16463, Note_on_c, 4, 61, 0
8, 16464, Note_on_c, 4, 54, 95
8, 16511, Note_on_c, 4, 57, 0
8, 16511, Note_on_c, 4, 54, 0
8, 16512, Note_on_c, 4, 54, 95
8, 16560, Note_on_c, 4, 57, 95
8, 16607, Note_on_c, 4, 54, 0
8, 16608, Note_on_c, 4, 61, 95
8, 16655, Note_on_c, 4, 57, 0
8, 16656, Note_on_c, 4, 66, 95
8, 16751, Note_on_c, 4, 61, 0
8, 16752, Note_on_c, 4, 61, 95
8, 16799, Note_on_c, 4, 66, 0
8, 16800, Note_on_c, 4, 57, 95
8, 16847, Note_on_c, 4, 61, 0
8, 16848, Note_on_c, 4, 54, 95
8, 16895, Note_on_c, 4, 57, 0
8, 16895, Note_on_c, 4, 54, 0
8, 16896, Note_on_c, 4, 54, 95
8, 16944, Note_on_c, 4, 59, 95
8, 16991, Note_on_c, 4, 54, 0
8, 16992, Note_on_c, 4, 63, 95
8, 17039, Note_on_c, 4, 59, 0
8, 17040, Note_on_c, 4, 66, 95
8, 17135, Note_on_c, 4, 63, 0
8, 17136, Note_on_c, 4, 63, 95
8, 17183, Note_on_c, 4, 66, 0
8, 17184, Note_on_c, 4, 59, 95
8, 17231, Note_on_c, 4, 63, 0
8, 17232, Note_on_c, 4, 54, 95
8, 17279, Note_on_c, 4, 59, 0
8, 17279, Note_on_c, 4, 54, 0
8, 20352, Note_on_c, 4, 40, 105
8, 20399, Note_on_c, 4, 40, 0
8, 20400, Note_on_c, 4, 68, 105
8, 20447, Note_on_c, 4, 68, 0
8, 20448, Note_on_c, 4, 66, 105
8, 20495, Note_on_c, 4, 66, 0
8, 20496, Note_on_c, 4, 64, 105
8, 20543, Note_on_c, 4, 64, 0
8, 20544, Note_on_c, 4, 66, 105
8, 20591, Note_on_c, 4, 66, 0
8, 20592, Note_on_c, 4, 64, 105
8, 20639, Note_on_c, 4, 64, 0
8, 20640, Note_on_c, 4, 63, 105
8, 20687, Note_on_c, 4, 63, 0
8, 20688, Note_on_c, 4, 64, 105
8, 20735, Note_on_c, 4, 64, 0
8, 20736, Note_on_c, 4, 63, 105
8, 20784, Note_on_c, 4, 61, 105
8, 20831, Note_on_c, 4, 61, 0
8, 20832, Note_on_c, 4, 59, 105
8, 20879, Note_on_c, 4, 63, 0
8, 20880, Note_on_c, 4, 57, 105
8, 20927, Note_on_c, 4, 57, 0
8, 20928, Note_on_c, 4, 56, 105
8, 20975, Note_on_c, 4, 59, 0
8, 20976, Note_on_c, 4, 59, 105
8, 21023, Note_on_c, 4, 56, 0
8, 21024, Note_on_c, 4, 64, 105
8, 21071, Note_on_c, 4, 64, 0
8, 21072, Note_on_c, 4, 66, 105
8, 21119, Note_on_c, 4, 59, 0
8, 21119, Note_on_c, 4, 66, 0
8, 21120, Note_on_c, 4, 68, 105
8, 21167, Note_on_c, 4, 68, 0
8, 21216, Note_on_c, 4, 68, 105
8, 21383, Note_on_c, 4, 68, 0
8, 21384, Note_on_c, 4, 68, 105
8, 21391, Note_on_c, 4, 68, 0
8, 21392, Note_on_c, 4, 69, 105
8, 21407, Note_on_c, 4, 69, 0
8, 21408, Note_on_c, 4, 68, 105
8, 21503, Note_on_c, 4, 68, 0
8, 21504, Note_on_c, 4, 64, 105
8, 21551, Note_on_c, 4, 64, 0
8, 21552, Note_on_c, 4, 59, 105
8, 21599, Note_on_c, 4, 59, 0
8, 21600, Note_on_c, 4, 61, 105
8, 21647, Note_on_c, 4, 61, 0
8, 21648, Note_on_c, 4, 64, 105
8, 21695, Note_on_c, 4, 64, 0
8, 21696, Note_on_c, 4, 66, 105
8, 21701, Note_on_c, 4, 66, 0
8, 21702, Note_on_c, 4, 68, 105
8, 21791, Note_on_c, 4, 68, 0
8, 21792, Note_on_c, 4, 66, 105
8, 21815, Note_on_c, 4, 66, 0
8, 21816, Note_on_c, 4, 64, 105
8, 21839, Note_on_c, 4, 64, 0
8, 21840, Note_on_c, 4, 61, 105
8, 21887, Note_on_c, 4, 61, 0
8, 21888, Note_on_c, 4, 66, 105
8, 21935, Note_on_c, 4, 66, 0
8, 21936, Note_on_c, 4, 68, 105
8, 21983, Note_on_c, 4, 68, 0
8, 21984, Note_on_c, 4, 69, 105
8, 22032, Note_on_c, 4, 71, 105
8, 22079, Note_on_c, 4, 69, 0
8, 22080, Note_on_c, 4, 69, 105
8, 22127, Note_on_c, 4, 69, 0
8, 22128, Note_on_c, 4, 68, 105
8, 22175, Note_on_c, 4, 68, 0
8, 22176, Note_on_c, 4, 66, 105
8, 22223, Note_on_c, 4, 71, 0
8, 22224, Note_on_c, 4, 64, 105
8, 22271, Note_on_c, 4, 66, 0
8, 22271, Note_on_c, 4, 64, 0
8, 22272, Note_on_c, 4, 63, 105
8, 22319, Note_on_c, 4, 63, 0
8, 22320, Note_on_c, 4, 64, 105
8, 22368, Note_on_c, 4, 66, 105
8, 22415, Note_on_c, 4, 66, 0
8, 22416, Note_on_c, 4, 68, 105
8, 22463, Note_on_c, 4, 68, 0
8, 22464, Note_on_c, 4, 69, 105
8, 22511, Note_on_c, 4, 64, 0
8, 22512, Note_on_c, 4, 71, 105
8, 22559, Note_on_c, 4, 71, 0
8, 22560, Note_on_c, 4, 73, 105
8, 22607, Note_on_c, 4, 73, 0
8, 22608, Note_on_c, 4, 75, 105
8, 22655, Note_on_c, 4, 69, 0
8, 22655, Note_on_c, 4, 75, 0
8, 22656, Note_on_c, 4, 75, 105
8, 22661, Note_on_c, 4, 75, 0
8, 22662, Note_on_c, 4, 76, 105
8, 22703, Note_on_c, 4, 76, 0
8, 22752, Note_on_c, 4, 76, 105
8, 22919, Note_on_c, 4, 76, 0
8, 22920, Note_on_c, 4, 76, 105
8, 22927, Note_on_c, 4, 76, 0
8, 22928, Note_on_c, 4, 78, 105
8, 22943, Note_on_c, 4, 78, 0
8, 22944, Note_on_c, 4, 76, 105
8, 23039, Note_on_c, 4, 76, 0
8, 23040, Note_on_c, 4, 71, 105
8, 23087, Note_on_c, 4, 71, 0
8, 23088, Note_on_c, 4, 68, 105
8, 23136, Note_on_c, 4, 64, 105
8, 23423, Note_on_c, 4, 68, 0
8, 23423, Note_on_c, 4, 64, 0
8, 23424, Note_on_c, 4, 40, 105
8, 23471, Note_on_c, 4, 40, 0
8, 23472, Note_on_c, 4, 68, 105
8, 23519, Note_on_c, 4, 68, 0
8, 23520, Note_on_c, 4, 66, 105
8, 23567, Note_on_c, 4, 66, 0
8, 23568, Note_on_c, 4, 64, 105
8, 23615, Note_on_c, 4, 64, 0
8, 23616, Note_on_c, 4, 66, 105
8, 23663, Note_on_c, 4, 66, 0
8, 23664, Note_on_c, 4, 64, 105
8, 23711, Note_on_c, 4, 64, 0
8, 23712, Note_on_c, 4, 63, 105
8, 23759, Note_on_c, 4, 63, 0
8, 23760, Note_on_c, 4, 64, 105
8, 23807, Note_on_c, 4, 64, 0
8, 23808, Note_on_c, 4, 40, 105
8, 23855, Note_on_c, 4, 40, 0
8, 23856, Note_on_c, 4, 68, 105
8, 23903, Note_on_c, 4, 68, 0
8, 23904, Note_on_c, 4, 66, 105
8, 23951, Note_on_c, 4, 66, 0
8, 23952, Note_on_c, 4, 64, 105
8, 23999, Note_on_c, 4, 64, 0
8, 24000, Note_on_c, 4, 66, 105
8, 24047, Note_on_c, 4, 66, 0
8, 24048, Note_on_c, 4, 64, 105
8, 24095, Note_on_c, 4, 64, 0
8, 24096, Note_on_c, 4, 63, 105
8, 24143, Note_on_c, 4, 63, 0
8, 24144, Note_on_c, 4, 64, 105
8, 24191, Note_on_c, 4, 64, 0
8, 24192, Note_on_c, 4, 40, 105
8, 24239, Note_on_c, 4, 40, 0
8, 24240, Note_on_c, 4, 68, 105
8, 24287, Note_on_c, 4, 68, 0
8, 24288, Note_on_c, 4, 66, 105
8, 24335, Note_on_c, 4, 66, 0
8, 24336, Note_on_c, 4, 64, 105
8, 24383, Note_on_c, 4, 64, 0
8, 24384, Note_on_c, 4, 66, 105
8, 24431, Note_on_c, 4, 66, 0
8, 24432, Note_on_c, 4, 64, 105
8, 24479, Note_on_c, 4, 64, 0
8, 24480, Note_on_c, 4, 63, 105
8, 24527, Note_on_c, 4, 63, 0
8, 24528, Note_on_c, 4, 64, 105
8, 24575, Note_on_c, 4, 64, 0
8, 24575, End_track
9, 0, Start_track
9, 0, Title_t, "Gtr 2 Jazz"
9, 0, MIDI_port, 0
9, 96, Control_c, 5, 121, 0
9, 97, Control_c, 5, 7, 100
9, 98, Control_c, 5, 10, 10
9, 99, Control_c, 5, 91, 50
9, 100, Control_c, 5, 93, 11
9, 101, Control_c, 5, 32, 0
9, 101, Control_c, 5, 0, 0
9, 101, Program_c, 5, 26
9, 102, Text_t, "VIBR DEPTH"
9, 103, Control_c, 5, 99, 1
9, 104, Control_c, 5, 98, 9
9, 105, Control_c, 5, 6, 73
9, 106, Text_t, "VIBR SPEED"
9, 107, Control_c, 5, 99, 1
9, 108, Control_c, 5, 98, 8
9, 109, Control_c, 5, 6, 51
9, 110, Text_t, "VIBR DELAY"
9, 111, Control_c, 5, 99, 1
9, 112, Control_c, 5, 98, 10
9, 113, Control_c, 5, 6, 70
9, 384, Note_on_c, 5, 40, 105
9, 431, Note_on_c, 5, 40, 0
9, 432, Note_on_c, 5, 64, 105
9, 479, Note_on_c, 5, 64, 0
9, 480, Note_on_c, 5, 63, 105
9, 527, Note_on_c, 5, 63, 0
9, 528, Note_on_c, 5, 61, 105
9, 575, Note_on_c, 5, 61, 0
9, 576, Note_on_c, 5, 63, 105
9, 623, Note_on_c, 5, 63, 0
9, 624, Note_on_c, 5, 61, 105
9, 671, Note_on_c, 5, 61, 0
9, 672, Note_on_c, 5, 59, 105
9, 719, Note_on_c, 5, 59, 0
9, 720, Note_on_c, 5, 61, 105
9, 767, Note_on_c, 5, 61, 0
9, 768, Note_on_c, 5, 59, 105
9, 815, Note_on_c, 5, 59, 0
9, 816, Note_on_c, 5, 57, 105
9, 863, Note_on_c, 5, 57, 0
9, 864, Note_on_c, 5, 56, 105
9, 912, Note_on_c, 5, 54, 105
9, 959, Note_on_c, 5, 54, 0
9, 960, Note_on_c, 5, 52, 105
9, 1007, Note_on_c, 5, 52, 0
9, 1008, Note_on_c, 5, 54, 105
9, 1055, Note_on_c, 5, 56, 0
9, 1056, Note_on_c, 5, 56, 105
9, 1103, Note_on_c, 5, 56, 0
9, 1104, Note_on_c, 5, 59, 105
9, 1151, Note_on_c, 5, 54, 0
9, 1151, Note_on_c, 5, 59, 0
9, 1152, Note_on_c, 5, 64, 105
9, 1199, Note_on_c, 5, 64, 0
9, 1248, Note_on_c, 5, 64, 105
9, 1391, Note_on_c, 5, 64, 0
9, 1392, Note_on_c, 5, 64, 105
9, 1407, Note_on_c, 5, 64, 0
9, 1408, Note_on_c, 5, 66, 105
9, 1439, Note_on_c, 5, 66, 0
9, 1440, Note_on_c, 5, 64, 105
9, 1535, Note_on_c, 5, 64, 0
9, 1536, Note_on_c, 5, 59, 105
9, 1583, Note_on_c, 5, 59, 0
9, 1584, Note_on_c, 5, 56, 105
9, 1631, Note_on_c, 5, 56, 0
9, 1632, Note_on_c, 5, 57, 105
9, 1679, Note_on_c, 5, 57, 0
9, 1680, Note_on_c, 5, 59, 105
9, 1727, Note_on_c, 5, 59, 0
9, 1728, Note_on_c, 5, 63, 105
9, 1733, Note_on_c, 5, 63, 0
9, 1734, Note_on_c, 5, 64, 105
9, 1823, Note_on_c, 5, 64, 0
9, 1824, Note_on_c, 5, 61, 105
9, 1847, Note_on_c, 5, 61, 0
9, 1848, Note_on_c, 5, 59, 105
9, 1871, Note_on_c, 5, 59, 0
9, 1872, Note_on_c, 5, 56, 105
9, 1919, Note_on_c, 5, 56, 0
9, 1920, Note_on_c, 5, 52, 105
9, 2303, Note_on_c, 5, 52, 0
9, 4656, Note_on_c, 5, 56, 105
9, 4703, Note_on_c, 5, 56, 0
9, 4704, Note_on_c, 5, 57, 105
9, 4751, Note_on_c, 5, 57, 0
9, 4752, Note_on_c, 5, 59, 105
9, 4799, Note_on_c, 5, 59, 0
9, 4800, Note_on_c, 5, 63, 105
9, 4805, Note_on_c, 5, 63, 0
9, 4806, Note_on_c, 5, 64, 105
9, 4895, Note_on_c, 5, 64, 0
9, 4896, Note_on_c, 5, 61, 105
9, 4919, Note_on_c, 5, 61, 0
9, 4920, Note_on_c, 5, 59, 105
9, 4943, Note_on_c, 5, 59, 0
9, 4944, Note_on_c, 5, 56, 105
9, 4991, Note_on_c, 5, 56, 0
9, 4992, Note_on_c, 5, 52, 105
9, 5375, Note_on_c, 5, 52, 0
9, 8064, Note_on_c, 5, 56, 95
9, 8111, Note_on_c, 5, 56, 0
9, 8112, Note_on_c, 5, 58, 95
9, 8159, Note_on_c, 5, 58, 0
9, 8160, Note_on_c, 5, 59, 95
9, 8208, Note_on_c, 5, 63, 95
9, 8303, Note_on_c, 5, 59, 0
9, 8304, Note_on_c, 5, 59, 95
9, 8351, Note_on_c, 5, 59, 0
9, 8352, Note_on_c, 5, 58, 95
9, 8399, Note_on_c, 5, 63, 0
9, 8399, Note_on_c, 5, 58, 0
9, 8400, Note_on_c, 5, 56, 95
9, 8447, Note_on_c, 5, 56, 0
9, 8448, Note_on_c, 5, 56, 95
9, 8495, Note_on_c, 5, 56, 0
9, 8496, Note_on_c, 5, 58, 95
9, 8543, Note_on_c, 5, 58, 0
9, 8544, Note_on_c, 5, 59, 95
9, 8592, Note_on_c, 5, 63, 95
9, 8687, Note_on_c, 5, 59, 0
9, 8688, Note_on_c, 5, 59, 95
9, 8735, Note_on_c, 5, 59, 0
9, 8736, Note_on_c, 5, 58, 95
9, 8783, Note_on_c, 5, 63, 0
9, 8783, Note_on_c, 5, 58, 0
9, 8784, Note_on_c, 5, 56, 95
9, 8831, Note_on_c, 5, 56, 0
9, 8832, Note_on_c, 5, 56, 95
9, 8879, Note_on_c, 5, 56, 0
9, 8880, Note_on_c, 5, 58, 95
9, 8927, Note_on_c, 5, 58, 0
9, 8928, Note_on_c, 5, 59, 95
9, 8976, Note_on_c, 5, 63, 95
9, 9071, Note_on_c, 5, 59, 0
9, 9072, Note_on_c, 5, 59, 95
9, 9119, Note_on_c, 5, 59, 0
9, 9120, Note_on_c, 5, 58, 95
9, 9167, Note_on_c, 5, 63, 0
9, 9167, Note_on_c, 5, 58, 0
9, 9168, Note_on_c, 5, 56, 95
9, 9215, Note_on_c, 5, 56, 0
9, 9216, Note_on_c, 5, 56, 95
9, 9263, Note_on_c, 5, 56, 0
9, 9264, Note_on_c, 5, 58, 95
9, 9311, Note_on_c, 5, 58, 0
9, 9312, Note_on_c, 5, 59, 95
9, 9360, Note_on_c, 5, 61, 95
9, 9455, Note_on_c, 5, 59, 0
9, 9456, Note_on_c, 5, 56, 95
9, 9503, Note_on_c, 5, 61, 0
9, 9504, Note_on_c, 5, 53, 95
9, 9551, Note_on_c, 5, 56, 0
9, 9552, Note_on_c, 5, 49, 95
9, 9599, Note_on_c, 5, 53, 0
9, 9599, Note_on_c, 5, 49, 0
9, 9600, Note_on_c, 5, 47, 95
9, 9648, Note_on_c, 5, 52, 95
9, 9695, Note_on_c, 5, 47, 0
9, 9696, Note_on_c, 5, 56, 95
9, 9743, Note_on_c, 5, 52, 0
9, 9744, Note_on_c, 5, 59, 95
9, 9839, Note_on_c, 5, 56, 0
9, 9840, Note_on_c, 5, 56, 95
9, 9887, Note_on_c, 5, 59, 0
9, 9888, Note_on_c, 5, 52, 95
9, 9935, Note_on_c, 5, 56, 0
9, 9936, Note_on_c, 5, 47, 95
9, 9983, Note_on_c, 5, 52, 0
9, 9983, Note_on_c, 5, 47, 0
9, 9984, Note_on_c, 5, 49, 95
9, 10032, Note_on_c, 5, 54, 95
9, 10079, Note_on_c, 5, 49, 0
9, 10080, Note_on_c, 5, 57, 95
9, 10127, Note_on_c, 5, 54, 0
9, 10128, Note_on_c, 5, 61, 95
9, 10223, Note_on_c, 5, 57, 0
9, 10224, Note_on_c, 5, 57, 95
9, 10271, Note_on_c, 5, 61, 0
9, 10272, Note_on_c, 5, 54, 95
9, 10319, Note_on_c, 5, 57, 0
9, 10320, Note_on_c, 5, 49, 95
9, 10367, Note_on_c, 5, 54, 0
9, 10367, Note_on_c, 5, 49, 0
9, 10368, Note_on_c, 5, 49, 95
9, 10416, Note_on_c, 5, 54, 95
9, 10463, Note_on_c, 5, 49, 0
9, 10464, Note_on_c, 5, 57, 95
9, 10511, Note_on_c, 5, 54, 0
9, 10512, Note_on_c, 5, 61, 95
9, 10607, Note_on_c, 5, 57, 0
9, 10608, Note_on_c, 5, 57, 95
9, 10655, Note_on_c, 5, 61, 0
9, 10656, Note_on_c, 5, 54, 95
9, 10703, Note_on_c, 5, 57, 0
9, 10704, Note_on_c, 5, 49, 95
9, 10751, Note_on_c, 5, 54, 0
9, 10751, Note_on_c, 5, 49, 0
9, 10752, Note_on_c, 5, 47, 95
9, 10800, Note_on_c, 5, 54, 95
9, 10847, Note_on_c, 5, 47, 0
9, 10848, Note_on_c, 5, 59, 95
9, 10895, Note_on_c, 5, 54, 0
9, 10896, Note_on_c, 5, 63, 95
9, 10991, Note_on_c, 5, 59, 0
9, 10992, Note_on_c, 5, 59, 95
9, 11039, Note_on_c, 5, 63, 0
9, 11040, Note_on_c, 5, 54, 95
9, 11087, Note_on_c, 5, 59, 0
9, 11088, Note_on_c, 5, 47, 95
9, 11135, Note_on_c, 5, 54, 0
9, 11135, Note_on_c, 5, 47, 0
9, 11136, Note_on_c, 5, 40, 105
9, 11183, Note_on_c, 5, 40, 0
9, 11184, Note_on_c, 5, 64, 105
9, 11231, Note_on_c, 5, 64, 0
9, 11232, Note_on_c, 5, 63, 105
9, 11279, Note_on_c, 5, 63, 0
9, 11280, Note_on_c, 5, 61, 105
9, 11327, Note_on_c, 5, 61, 0
9, 11328, Note_on_c, 5, 63, 105
9, 11375, Note_on_c, 5, 63, 0
9, 11376, Note_on_c, 5, 61, 105
9, 11423, Note_on_c, 5, 61, 0
9, 11424, Note_on_c, 5, 59, 105
9, 11471, Note_on_c, 5, 59, 0
9, 11472, Note_on_c, 5, 61, 105
9, 11519, Note_on_c, 5, 61, 0
9, 11520, Note_on_c, 5, 59, 105
9, 11567, Note_on_c, 5, 59, 0
9, 11568, Note_on_c, 5, 57, 105
9, 11615, Note_on_c, 5, 57, 0
9, 11616, Note_on_c, 5, 56, 105
9, 11664, Note_on_c, 5, 54, 105
9, 11711, Note_on_c, 5, 54, 0
9, 11712, Note_on_c, 5, 52, 105
9, 11759, Note_on_c, 5, 52, 0
9, 11760, Note_on_c, 5, 54, 105
9, 11807, Note_on_c, 5, 56, 0
9, 11808, Note_on_c, 5, 56, 105
9, 11855, Note_on_c, 5, 56, 0
9, 11856, Note_on_c, 5, 59, 105
9, 11903, Note_on_c, 5, 54, 0
9, 11903, Note_on_c, 5, 59, 0
9, 11904, Note_on_c, 5, 64, 105
9, 11951, Note_on_c, 5, 64, 0
9, 12000, Note_on_c, 5, 64, 105
9, 12167, Note_on_c, 5, 64, 0
9, 12168, Note_on_c, 5, 64, 105
9, 12175, Note_on_c, 5, 64, 0
9, 12176, Note_on_c, 5, 66, 105
9, 12191, Note_on_c, 5, 66, 0
9, 12192, Note_on_c, 5, 64, 105
9, 12287, Note_on_c, 5, 64, 0
9, 12288, Note_on_c, 5, 59, 105
9, 12335, Note_on_c, 5, 59, 0
9, 12336, Note_on_c, 5, 56, 105
9, 12383, Note_on_c, 5, 56, 0
9, 12384, Note_on_c, 5, 57, 105
9, 12431, Note_on_c, 5, 57, 0
9, 12432, Note_on_c, 5, 59, 105
9, 12479, Note_on_c, 5, 59, 0
9, 12480, Note_on_c, 5, 63, 105
9, 12485, Note_on_c, 5, 63, 0
9, 12486, Note_on_c, 5, 64, 105
9, 12575, Note_on_c, 5, 64, 0
9, 12576, Note_on_c, 5, 61, 105
9, 12599, Note_on_c, 5, 61, 0
9, 12600, Note_on_c, 5, 59, 105
9, 12623, Note_on_c, 5, 59, 0
9, 12624, Note_on_c, 5, 56, 105
9, 12671, Note_on_c, 5, 56, 0
9, 12672, Note_on_c, 5, 57, 105
9, 12719, Note_on_c, 5, 57, 0
9, 12720, Note_on_c, 5, 59, 105
9, 12768, Note_on_c, 5, 61, 105
9, 12815, Note_on_c, 5, 61, 0
9, 12816, Note_on_c, 5, 63, 105
9, 12863, Note_on_c, 5, 63, 0
9, 12864, Note_on_c, 5, 61, 105
9, 12911, Note_on_c, 5, 59, 0
9, 12912, Note_on_c, 5, 59, 105
9, 12959, Note_on_c, 5, 59, 0
9, 12960, Note_on_c, 5, 57, 105
9, 13007, Note_on_c, 5, 57, 0
9, 13008, Note_on_c, 5, 56, 105
9, 13055, Note_on_c, 5, 61, 0
9, 13055, Note_on_c, 5, 56, 0
9, 13056, Note_on_c, 5, 54, 105
9, 13104, Note_on_c, 5, 56, 105
9, 13151, Note_on_c, 5, 56, 0
9, 13152, Note_on_c, 5, 57, 105
9, 13199, Note_on_c, 5, 57, 0
9, 13200, Note_on_c, 5, 59, 105
9, 13247, Note_on_c, 5, 54, 0
9, 13248, Note_on_c, 5, 61, 105
9, 13295, Note_on_c, 5, 61, 0
9, 13296, Note_on_c, 5, 63, 105
9, 13343, Note_on_c, 5, 63, 0
9, 13344, Note_on_c, 5, 64, 105
9, 13391, Note_on_c, 5, 59, 0
9, 13392, Note_on_c, 5, 66, 105
9, 13439, Note_on_c, 5, 64, 0
9, 13439, Note_on_c, 5, 66, 0
9, 13440, Note_on_c, 5, 66, 105
9, 13445, Note_on_c, 5, 66, 0
9, 13446, Note_on_c, 5, 68, 105
9, 13487, Note_on_c, 5, 68, 0
9, 13536, Note_on_c, 5, 68, 105
9, 13703, Note_on_c, 5, 68, 0
9, 13704, Note_on_c, 5, 68, 105
9, 13711, Note_on_c, 5, 68, 0
9, 13712, Note_on_c, 5, 69, 105
9, 13727, Note_on_c, 5, 69, 0
9, 13728, Note_on_c, 5, 68, 105
9, 13823, Note_on_c, 5, 68, 0
9, 13824, Note_on_c, 5, 64, 105
9, 13872, Note_on_c, 5, 59, 105
9, 13919, Note_on_c, 5, 59, 0
9, 13920, Note_on_c, 5, 56, 105
9, 14207, Note_on_c, 5, 64, 0
9, 14207, Note_on_c, 5, 56, 0
9, 14208, Note_on_c, 5, 56, 95
9, 14255, Note_on_c, 5, 56, 0
9, 14256, Note_on_c, 5, 58, 95
9, 14303, Note_on_c, 5, 58, 0
9, 14304, Note_on_c, 5, 59, 95
9, 14352, Note_on_c, 5, 63, 95
9, 14447, Note_on_c, 5, 59, 0
9, 14448, Note_on_c, 5, 59, 95
9, 14495, Note_on_c, 5, 59, 0
9, 14496, Note_on_c, 5, 58, 95
9, 14543, Note_on_c, 5, 63, 0
9, 14543, Note_on_c, 5, 58, 0
9, 14544, Note_on_c, 5, 56, 95
9, 14591, Note_on_c, 5, 56, 0
9, 14592, Note_on_c, 5, 56, 95
9, 14639, Note_on_c, 5, 56, 0
9, 14640, Note_on_c, 5, 58, 95
9, 14687, Note_on_c, 5, 58, 0
9, 14688, Note_on_c, 5, 59, 95
9, 14736, Note_on_c, 5, 63, 95
9, 14831, Note_on_c, 5, 59, 0
9, 14832, Note_on_c, 5, 59, 95
9, 14879, Note_on_c, 5, 59, 0
9, 14880, Note_on_c, 5, 58, 95
9, 14927, Note_on_c, 5, 63, 0
9, 14927, Note_on_c, 5, 58, 0
9, 14928, Note_on_c, 5, 56, 95
9, 14975, Note_on_c, 5, 56, 0
9, 14976, Note_on_c, 5, 56, 95
9, 15023, Note_on_c, 5, 56, 0
9, 15024, Note_on_c, 5, 58, 95
9, 15071, Note_on_c, 5, 58, 0
9, 15072, Note_on_c, 5, 59, 95
9, 15120, Note_on_c, 5, 63, 95
9, 15215, Note_on_c, 5, 59, 0
9, 15216, Note_on_c, 5, 59, 95
9, 15263, Note_on_c, 5, 59, 0
9, 15264, Note_on_c, 5, 58, 95
9, 15311, Note_on_c, 5, 63, 0
9, 15311, Note_on_c, 5, 58, 0
9, 15312, Note_on_c, 5, 56, 95
9, 15359, Note_on_c, 5, 56, 0
9, 15360, Note_on_c, 5, 56, 95
9, 15407, Note_on_c, 5, 56, 0
9, 15408, Note_on_c, 5, 58, 95
9, 15455, Note_on_c, 5, 58, 0
9, 15456, Note_on_c, 5, 59, 95
9, 15504, Note_on_c, 5, 61, 95
9, 15599, Note_on_c, 5, 59, 0
9, 15600, Note_on_c, 5, 56, 95
9, 15647, Note_on_c, 5, 61, 0
9, 15648, Note_on_c, 5, 53, 95
9, 15695, Note_on_c, 5, 56, 0
9, 15696, Note_on_c, 5, 49, 95
9, 15743, Note_on_c, 5, 53, 0
9, 15743, Note_on_c, 5, 49, 0
9, 15744, Note_on_c, 5, 47, 95
9, 15792, Note_on_c, 5, 52, 95
9, 15839, Note_on_c, 5, 47, 0
9, 15840, Note_on_c, 5, 56, 95
9, 15887, Note_on_c, 5, 52, 0
9, 15888, Note_on_c, 5, 59, 95
9, 15983, Note_on_c, 5, 56, 0
9, 15984, Note_on_c, 5, 56, 95
9, 16031, Note_on_c, 5, 59, 0
9, 16032, Note_on_c, 5, 52, 95
9, 16079, Note_on_c, 5, 56, 0
9, 16080, Note_on_c, 5, 47, 95
9, 16127, Note_on_c, 5, 52, 0
9, 16127, Note_on_c, 5, 47, 0
9, 16128, Note_on_c, 5, 49, 95
9, 16176, Note_on_c, 5, 54, 95
9, 16223, Note_on_c, 5, 49, 0
9, 16224, Note_on_c, 5, 57, 95
9, 16271, Note_on_c, 5, 54, 0
9, 16272, Note_on_c, 5, 61, 95
9, 16367, Note_on_c, 5, 57, 0
9, 16368, Note_on_c, 5, 57, 95
9, 16415, Note_on_c, 5, 61, 0
9, 16416, Note_on_c, 5, 54, 95
9, 16463, Note_on_c, 5, 57, 0
9, 16464, Note_on_c, 5, 49, 95
9, 16511, Note_on_c, 5, 54, 0
9, 16511, Note_on_c, 5, 49, 0
9, 16512, Note_on_c, 5, 49, 95
9, 16560, Note_on_c, 5, 54, 95
9, 16607, Note_on_c, 5, 49, 0
9, 16608, Note_on_c, 5, 57, 95
9, 16655, Note_on_c, 5, 54, 0
9, 16656, Note_on_c, 5, 61, 95
9, 16751, Note_on_c, 5, 57, 0
9, 16752, Note_on_c, 5, 57, 95
9, 16799, Note_on_c, 5, 61, 0
9, 16800, Note_on_c, 5, 54, 95
9, 16847, Note_on_c, 5, 57, 0
9, 16848, Note_on_c, 5, 49, 95
9, 16895, Note_on_c, 5, 54, 0
9, 16895, Note_on_c, 5, 49, 0
9, 16896, Note_on_c, 5, 47, 95
9, 16944, Note_on_c, 5, 54, 95
9, 16991, Note_on_c, 5, 47, 0
9, 16992, Note_on_c, 5, 59, 95
9, 17039, Note_on_c, 5, 54, 0
9, 17040, Note_on_c, 5, 63, 95
9, 17135, Note_on_c, 5, 59, 0
9, 17136, Note_on_c, 5, 59, 95
9, 17183, Note_on_c, 5, 63, 0
9, 17184, Note_on_c, 5, 54, 95
9, 17231, Note_on_c, 5, 59, 0
9, 17232, Note_on_c, 5, 47, 95
9, 17279, Note_on_c, 5, 54, 0
9, 17279, Note_on_c, 5, 47, 0
9, 17280, Note_on_c, 5, 52, 105
9, 17663, Note_on_c, 5, 52, 0
9, 20352, Note_on_c, 5, 40, 105
9, 20399, Note_on_c, 5, 40, 0
9, 20400, Note_on_c, 5, 64, 105
9, 20447, Note_on_c, 5, 64, 0
9, 20448, Note_on_c, 5, 63, 105
9, 20495, Note_on_c, 5, 63, 0
9, 20496, Note_on_c, 5, 61, 105
9, 20543, Note_on_c, 5, 61, 0
9, 20544, Note_on_c, 5, 63, 105
9, 20591, Note_on_c, 5, 63, 0
9, 20592, Note_on_c, 5, 61, 105
9, 20639, Note_on_c, 5, 61, 0
9, 20640, Note_on_c, 5, 59, 105
9, 20687, Note_on_c, 5, 59, 0
9, 20688, Note_on_c, 5, 61, 105
9, 20735, Note_on_c, 5, 61, 0
9, 20736, Note_on_c, 5, 59, 105
9, 20783, Note_on_c, 5, 59, 0
9, 20784, Note_on_c, 5, 57, 105
9, 20831, Note_on_c, 5, 57, 0
9, 20832, Note_on_c, 5, 56, 105
9, 20880, Note_on_c, 5, 54, 105
9, 20927, Note_on_c, 5, 54, 0
9, 20928, Note_on_c, 5, 52, 105
9, 20975, Note_on_c, 5, 52, 0
9, 20976, Note_on_c, 5, 54, 105
9, 21023, Note_on_c, 5, 56, 0
9, 21024, Note_on_c, 5, 56, 105
9, 21071, Note_on_c, 5, 56, 0
9, 21072, Note_on_c, 5, 59, 105
9, 21119, Note_on_c, 5, 54, 0
9, 21119, Note_on_c, 5, 59, 0
9, 21120, Note_on_c, 5, 64, 105
9, 21167, Note_on_c, 5, 64, 0
9, 21216, Note_on_c, 5, 64, 105
9, 21383, Note_on_c, 5, 64, 0
9, 21384, Note_on_c, 5, 64, 105
9, 21391, Note_on_c, 5, 64, 0
9, 21392, Note_on_c, 5, 66, 105
9, 21407, Note_on_c, 5, 66, 0
9, 21408, Note_on_c, 5, 64, 105
9, 21503, Note_on_c, 5, 64, 0
9, 21504, Note_on_c, 5, 59, 105
9, 21551, Note_on_c, 5, 59, 0
9, 21552, Note_on_c, 5, 56, 105
9, 21599, Note_on_c, 5, 56, 0
9, 21600, Note_on_c, 5, 57, 105
9, 21647, Note_on_c, 5, 57, 0
9, 21648, Note_on_c, 5, 59, 105
9, 21695, Note_on_c, 5, 59, 0
9, 21696, Note_on_c, 5, 63, 105
9, 21701, Note_on_c, 5, 63, 0
9, 21702, Note_on_c, 5, 64, 105
9, 21791, Note_on_c, 5, 64, 0
9, 21792, Note_on_c, 5, 61, 105
9, 21815, Note_on_c, 5, 61, 0
9, 21816, Note_on_c, 5, 59, 105
9, 21839, Note_on_c, 5, 59, 0
9, 21840, Note_on_c, 5, 56, 105
9, 21887, Note_on_c, 5, 56, 0
9, 21888, Note_on_c, 5, 57, 105
9, 21935, Note_on_c, 5, 57, 0
9, 21936, Note_on_c, 5, 59, 105
9, 21984, Note_on_c, 5, 61, 105
9, 22031, Note_on_c, 5, 61, 0
9, 22032, Note_on_c, 5, 63, 105
9, 22079, Note_on_c, 5, 63, 0
9, 22080, Note_on_c, 5, 61, 105
9, 22127, Note_on_c, 5, 59, 0
9, 22128, Note_on_c, 5, 59, 105
9, 22175, Note_on_c, 5, 59, 0
9, 22176, Note_on_c, 5, 57, 105
9, 22223, Note_on_c, 5, 57, 0
9, 22224, Note_on_c, 5, 56, 105
9, 22271, Note_on_c, 5, 61, 0
9, 22271, Note_on_c, 5, 56, 0
9, 22272, Note_on_c, 5, 54, 105
9, 22320, Note_on_c, 5, 56, 105
9, 22367, Note_on_c, 5, 56, 0
9, 22368, Note_on_c, 5, 57, 105
9, 22415, Note_on_c, 5, 57, 0
9, 22416, Note_on_c, 5, 59, 105
9, 22463, Note_on_c, 5, 54, 0
9, 22464, Note_on_c, 5, 61, 105
9, 22511, Note_on_c, 5, 61, 0
9, 22512, Note_on_c, 5, 63, 105
9, 22559, Note_on_c, 5, 63, 0
9, 22560, Note_on_c, 5, 64, 105
9, 22607, Note_on_c, 5, 59, 0
9, 22608, Note_on_c, 5, 66, 105
9, 22655, Note_on_c, 5, 64, 0
9, 22655, Note_on_c, 5, 66, 0
9, 22656, Note_on_c, 5, 66, 105
9, 22661, Note_on_c, 5, 66, 0
9, 22662, Note_on_c, 5, 68, 105
9, 22703, Note_on_c, 5, 68, 0
9, 22752, Note_on_c, 5, 68, 105
9, 22919, Note_on_c, 5, 68, 0
9, 22920, Note_on_c, 5, 68, 105
9, 22927, Note_on_c, 5, 68, 0
9, 22928, Note_on_c, 5, 69, 105
9, 22943, Note_on_c, 5, 69, 0
9, 22944, Note_on_c, 5, 68, 105
9, 23039, Note_on_c, 5, 68, 0
9, 23040, Note_on_c, 5, 64, 105
9, 23088, Note_on_c, 5, 59, 105
9, 23135, Note_on_c, 5, 59, 0
9, 23136, Note_on_c, 5, 56, 105
9, 23423, Note_on_c, 5, 64, 0
9, 23423, Note_on_c, 5, 56, 0
9, 23424, Note_on_c, 5, 40, 105
9, 23471, Note_on_c, 5, 40, 0
9, 23472, Note_on_c, 5, 64, 105
9, 23519, Note_on_c, 5, 64, 0
9, 23520, Note_on_c, 5, 63, 105
9, 23567, Note_on_c, 5, 63, 0
9, 23568, Note_on_c, 5, 61, 105
9, 23615, Note_on_c, 5, 61, 0
9, 23616, Note_on_c, 5, 63, 105
9, 23663, Note_on_c, 5, 63, 0
9, 23664, Note_on_c, 5, 61, 105
9, 23711, Note_on_c, 5, 61, 0
9, 23712, Note_on_c, 5, 59, 105
9, 23759, Note_on_c, 5, 59, 0
9, 23760, Note_on_c, 5, 61, 105
9, 23807, Note_on_c, 5, 61, 0
9, 23808, Note_on_c, 5, 40, 105
9, 23855, Note_on_c, 5, 40, 0
9, 23856, Note_on_c, 5, 64, 105
9, 23903, Note_on_c, 5, 64, 0
9, 23904, Note_on_c, 5, 63, 105
9, 23951, Note_on_c, 5, 63, 0
9, 23952, Note_on_c, 5, 61, 105
9, 23999, Note_on_c, 5, 61, 0
9, 24000, Note_on_c, 5, 63, 105
9, 24047, Note_on_c, 5, 63, 0
9, 24048, Note_on_c, 5, 61, 105
9, 24095, Note_on_c, 5, 61, 0
9, 24096, Note_on_c, 5, 59, 105
9, 24143, Note_on_c, 5, 59, 0
9, 24144, Note_on_c, 5, 61, 105
9, 24191, Note_on_c, 5, 61, 0
9, 24192, Note_on_c, 5, 40, 105
9, 24239, Note_on_c, 5, 40, 0
9, 24240, Note_on_c, 5, 64, 105
9, 24287, Note_on_c, 5, 64, 0
9, 24288, Note_on_c, 5, 63, 105
9, 24335, Note_on_c, 5, 63, 0
9, 24336, Note_on_c, 5, 61, 105
9, 24383, Note_on_c, 5, 61, 0
9, 24384, Note_on_c, 5, 63, 105
9, 24431, Note_on_c, 5, 63, 0
9, 24432, Note_on_c, 5, 61, 105
9, 24479, Note_on_c, 5, 61, 0
9, 24480, Note_on_c, 5, 59, 105
9, 24527, Note_on_c, 5, 59, 0
9, 24528, Note_on_c, 5, 61, 105
9, 24575, Note_on_c, 5, 61, 0
9, 24576, Note_on_c, 5, 52, 105
9, 24576, Note_on_c, 5, 57, 105
9, 26495, Note_on_c, 5, 52, 0
9, 26495, Note_on_c, 5, 57, 0
9, 26495, End_track
10, 0, Start_track
10, 0, Title_t, "Rythm Gtr Muted"
10, 0, MIDI_port, 0
10, 96, Control_c, 6, 121, 0
10, 97, Control_c, 6, 7, 100
10, 98, Control_c, 6, 10, 127
10, 99, Control_c, 6, 91, 60
10, 100, Control_c, 6, 93, 24
10, 101, Control_c, 6, 32, 0
10, 101, Control_c, 6, 0, 0
10, 101, Program_c, 6, 28
10, 1920, Note_on_c, 6, 68, 85
10, 1920, Note_on_c, 6, 64, 85
10, 1920, Note_on_c, 6, 52, 85
10, 1920, Note_on_c, 6, 59, 85
10, 2015, Note_on_c, 6, 68, 0
10, 2015, Note_on_c, 6, 64, 0
10, 2015, Note_on_c, 6, 52, 0
10, 2015, Note_on_c, 6, 59, 0
10, 2016, Note_on_c, 6, 68, 85
10, 2016, Note_on_c, 6, 64, 85
10, 2016, Note_on_c, 6, 59, 85
10, 2016, Note_on_c, 6, 52, 85
10, 2111, Note_on_c, 6, 68, 0
10, 2111, Note_on_c, 6, 64, 0
10, 2111, Note_on_c, 6, 59, 0
10, 2111, Note_on_c, 6, 52, 0
10, 2112, Note_on_c, 6, 59, 85
10, 2112, Note_on_c, 6, 64, 85
10, 2112, Note_on_c, 6, 68, 85
10, 2112, Note_on_c, 6, 52, 85
10, 2207, Note_on_c, 6, 59, 0
10, 2207, Note_on_c, 6, 64, 0
10, 2207, Note_on_c, 6, 68, 0
10, 2207, Note_on_c, 6, 52, 0
10, 2208, Note_on_c, 6, 52, 85
10, 2208, Note_on_c, 6, 59, 85
10, 2208, Note_on_c, 6, 64, 85
10, 2208, Note_on_c, 6, 68, 85
10, 2303, Note_on_c, 6, 52, 0
10, 2303, Note_on_c, 6, 59, 0
10, 2303, Note_on_c, 6, 64, 0
10, 2303, Note_on_c, 6, 68, 0
10, 2304, Note_on_c, 6, 52, 85
10, 2304, Note_on_c, 6, 59, 85
10, 2304, Note_on_c, 6, 68, 85
10, 2304, Note_on_c, 6, 64, 85
10, 2399, Note_on_c, 6, 52, 0
10, 2399, Note_on_c, 6, 59, 0
10, 2399, Note_on_c, 6, 68, 0
10, 2399, Note_on_c, 6, 64, 0
10, 2400, Note_on_c, 6, 59, 85
10, 2400, Note_on_c, 6, 68, 85
10, 2400, Note_on_c, 6, 64, 85
10, 2400, Note_on_c, 6, 52, 85
10, 2495, Note_on_c, 6, 59, 0
10, 2495, Note_on_c, 6, 68, 0
10, 2495, Note_on_c, 6, 64, 0
10, 2495, Note_on_c, 6, 52, 0
10, 2496, Note_on_c, 6, 52, 85
10, 2496, Note_on_c, 6, 64, 85
10, 2496, Note_on_c, 6, 68, 85
10, 2496, Note_on_c, 6, 59, 85
10, 2591, Note_on_c, 6, 52, 0
10, 2591, Note_on_c, 6, 64, 0
10, 2591, Note_on_c, 6, 68, 0
10, 2591, Note_on_c, 6, 59, 0
10, 2592, Note_on_c, 6, 52, 85
10, 2592, Note_on_c, 6, 64, 85
10, 2592, Note_on_c, 6, 68, 85
10, 2592, Note_on_c, 6, 59, 85
10, 2687, Note_on_c, 6, 52, 0
10, 2687, Note_on_c, 6, 64, 0
10, 2687, Note_on_c, 6, 68, 0
10, 2687, Note_on_c, 6, 59, 0
10, 2688, Note_on_c, 6, 52, 85
10, 2688, Note_on_c, 6, 68, 85
10, 2688, Note_on_c, 6, 59, 85
10, 2688, Note_on_c, 6, 64, 85
10, 2783, Note_on_c, 6, 52, 0
10, 2783, Note_on_c, 6, 68, 0
10, 2783, Note_on_c, 6, 59, 0
10, 2783, Note_on_c, 6, 64, 0
10, 2784, Note_on_c, 6, 52, 85
10, 2784, Note_on_c, 6, 59, 85
10, 2784, Note_on_c, 6, 64, 85
10, 2784, Note_on_c, 6, 68, 85
10, 2879, Note_on_c, 6, 52, 0
10, 2879, Note_on_c, 6, 59, 0
10, 2879, Note_on_c, 6, 64, 0
10, 2879, Note_on_c, 6, 68, 0
10, 2880, Note_on_c, 6, 59, 85
10, 2880, Note_on_c, 6, 52, 85
10, 2880, Note_on_c, 6, 64, 85
10, 2880, Note_on_c, 6, 68, 85
10, 2975, Note_on_c, 6, 59, 0
10, 2975, Note_on_c, 6, 52, 0
10, 2975, Note_on_c, 6, 64, 0
10, 2975, Note_on_c, 6, 68, 0
10, 2976, Note_on_c, 6, 52, 85
10, 2976, Note_on_c, 6, 59, 85
10, 2976, Note_on_c, 6, 68, 85
10, 2976, Note_on_c, 6, 64, 85
10, 3071, Note_on_c, 6, 52, 0
10, 3071, Note_on_c, 6, 59, 0
10, 3071, Note_on_c, 6, 68, 0
10, 3071, Note_on_c, 6, 64, 0
10, 3072, Note_on_c, 6, 64, 85
10, 3072, Note_on_c, 6, 52, 85
10, 3072, Note_on_c, 6, 59, 85
10, 3072, Note_on_c, 6, 68, 85
10, 3167, Note_on_c, 6, 64, 0
10, 3167, Note_on_c, 6, 52, 0
10, 3167, Note_on_c, 6, 59, 0
10, 3167, Note_on_c, 6, 68, 0
10, 3168, Note_on_c, 6, 59, 85
10, 3168, Note_on_c, 6, 68, 85
10, 3168, Note_on_c, 6, 64, 85
10, 3168, Note_on_c, 6, 52, 85
10, 3263, Note_on_c, 6, 59, 0
10, 3263, Note_on_c, 6, 68, 0
10, 3263, Note_on_c, 6, 64, 0
10, 3263, Note_on_c, 6, 52, 0
10, 3264, Note_on_c, 6, 52, 85
10, 3264, Note_on_c, 6, 64, 85
10, 3264, Note_on_c, 6, 59, 85
10, 3264, Note_on_c, 6, 68, 85
10, 3359, Note_on_c, 6, 52, 0
10, 3359, Note_on_c, 6, 64, 0
10, 3359, Note_on_c, 6, 59, 0
10, 3359, Note_on_c, 6, 68, 0
10, 3360, Note_on_c, 6, 68, 85
10, 3360, Note_on_c, 6, 59, 85
10, 3360, Note_on_c, 6, 64, 85
10, 3360, Note_on_c, 6, 52, 85
10, 3455, Note_on_c, 6, 68, 0
10, 3455, Note_on_c, 6, 59, 0
10, 3455, Note_on_c, 6, 64, 0
10, 3455, Note_on_c, 6, 52, 0
10, 3456, Note_on_c, 6, 57, 85
10, 3456, Note_on_c, 6, 54, 85
10, 3456, Note_on_c, 6, 66, 85
10, 3456, Note_on_c, 6, 61, 85
10, 3456, Note_on_c, 6, 49, 85
10, 3456, Note_on_c, 6, 42, 85
10, 3551, Note_on_c, 6, 57, 0
10, 3551, Note_on_c, 6, 54, 0
10, 3551, Note_on_c, 6, 66, 0
10, 3551, Note_on_c, 6, 61, 0
10, 3551, Note_on_c, 6, 49, 0
10, 3551, Note_on_c, 6, 42, 0
10, 3552, Note_on_c, 6, 54, 85
10, 3552, Note_on_c, 6, 57, 85
10, 3552, Note_on_c, 6, 42, 85
10, 3552, Note_on_c, 6, 66, 85
10, 3552, Note_on_c, 6, 61, 85
10, 3552, Note_on_c, 6, 49, 85
10, 3647, Note_on_c, 6, 54, 0
10, 3647, Note_on_c, 6, 57, 0
10, 3647, Note_on_c, 6, 42, 0
10, 3647, Note_on_c, 6, 66, 0
10, 3647, Note_on_c, 6, 61, 0
10, 3647, Note_on_c, 6, 49, 0
10, 3648, Note_on_c, 6, 49, 85
10, 3648, Note_on_c, 6, 42, 85
10, 3648, Note_on_c, 6, 61, 85
10, 3648, Note_on_c, 6, 54, 85
10, 3648, Note_on_c, 6, 57, 85
10, 3648, Note_on_c, 6, 66, 85
10, 3743, Note_on_c, 6, 49, 0
10, 3743, Note_on_c, 6, 42, 0
10, 3743, Note_on_c, 6, 61, 0
10, 3743, Note_on_c, 6, 54, 0
10, 3743, Note_on_c, 6, 57, 0
10, 3743, Note_on_c, 6, 66, 0
10, 3744, Note_on_c, 6, 57, 85
10, 3744, Note_on_c, 6, 49, 85
10, 3744, Note_on_c, 6, 66, 85
10, 3744, Note_on_c, 6, 54, 85
10, 3744, Note_on_c, 6, 61, 85
10, 3744, Note_on_c, 6, 42, 85
10, 3839, Note_on_c, 6, 57, 0
10, 3839, Note_on_c, 6, 49, 0
10, 3839, Note_on_c, 6, 66, 0
10, 3839, Note_on_c, 6, 54, 0
10, 3839, Note_on_c, 6, 61, 0
10, 3839, Note_on_c, 6, 42, 0
10, 3840, Note_on_c, 6, 69, 85
10, 3840, Note_on_c, 6, 57, 85
10, 3840, Note_on_c, 6, 45, 85
10, 3840, Note_on_c, 6, 52, 85
10, 3840, Note_on_c, 6, 61, 85
10, 3840, Note_on_c, 6, 64, 85
10, 3935, Note_on_c, 6, 69, 0
10, 3935, Note_on_c, 6, 57, 0
10, 3935, Note_on_c, 6, 45, 0
10, 3935, Note_on_c, 6, 52, 0
10, 3935, Note_on_c, 6, 61, 0
10, 3935, Note_on_c, 6, 64, 0
10, 3936, Note_on_c, 6, 69, 85
10, 3936, Note_on_c, 6, 57, 85
10, 3936, Note_on_c, 6, 52, 85
10, 3936, Note_on_c, 6, 45, 85
10, 3936, Note_on_c, 6, 64, 85
10, 3936, Note_on_c, 6, 61, 85
10, 4031, Note_on_c, 6, 69, 0
10, 4031, Note_on_c, 6, 57, 0
10, 4031, Note_on_c, 6, 52, 0
10, 4031, Note_on_c, 6, 45, 0
10, 4031, Note_on_c, 6, 64, 0
10, 4031, Note_on_c, 6, 61, 0
10, 4032, Note_on_c, 6, 64, 85
10, 4032, Note_on_c, 6, 69, 85
10, 4032, Note_on_c, 6, 52, 85
10, 4032, Note_on_c, 6, 57, 85
10, 4032, Note_on_c, 6, 61, 85
10, 4032, Note_on_c, 6, 45, 85
10, 4127, Note_on_c, 6, 64, 0
10, 4127, Note_on_c, 6, 69, 0
10, 4127, Note_on_c, 6, 52, 0
10, 4127, Note_on_c, 6, 57, 0
10, 4127, Note_on_c, 6, 61, 0
10, 4127, Note_on_c, 6, 45, 0
10, 4128, Note_on_c, 6, 45, 85
10, 4128, Note_on_c, 6, 64, 85
10, 4128, Note_on_c, 6, 69, 85
10, 4128, Note_on_c, 6, 61, 85
10, 4128, Note_on_c, 6, 52, 85
10, 4128, Note_on_c, 6, 57, 85
10, 4223, Note_on_c, 6, 45, 0
10, 4223, Note_on_c, 6, 64, 0
10, 4223, Note_on_c, 6, 69, 0
10, 4223, Note_on_c, 6, 61, 0
10, 4223, Note_on_c, 6, 52, 0
10, 4223, Note_on_c, 6, 57, 0
10, 4224, Note_on_c, 6, 64, 85
10, 4224, Note_on_c, 6, 52, 85
10, 4224, Note_on_c, 6, 59, 85
10, 4224, Note_on_c, 6, 68, 85
10, 4319, Note_on_c, 6, 64, 0
10, 4319, Note_on_c, 6, 52, 0
10, 4319, Note_on_c, 6, 59, 0
10, 4319, Note_on_c, 6, 68, 0
10, 4320, Note_on_c, 6, 52, 85
10, 4320, Note_on_c, 6, 68, 85
10, 4320, Note_on_c, 6, 59, 85
10, 4320, Note_on_c, 6, 64, 85
10, 4415, Note_on_c, 6, 52, 0
10, 4415, Note_on_c, 6, 68, 0
10, 4415, Note_on_c, 6, 59, 0
10, 4415, Note_on_c, 6, 64, 0
10, 4416, Note_on_c, 6, 59, 85
10, 4416, Note_on_c, 6, 68, 85
10, 4416, Note_on_c, 6, 64, 85
10, 4416, Note_on_c, 6, 52, 85
10, 4511, Note_on_c, 6, 59, 0
10, 4511, Note_on_c, 6, 68, 0
10, 4511, Note_on_c, 6, 64, 0
10, 4511, Note_on_c, 6, 52, 0
10, 4512, Note_on_c, 6, 52, 85
10, 4512, Note_on_c, 6, 64, 85
10, 4512, Note_on_c, 6, 68, 85
10, 4512, Note_on_c, 6, 59, 85
10, 4607, Note_on_c, 6, 52, 0
10, 4607, Note_on_c, 6, 64, 0
10, 4607, Note_on_c, 6, 68, 0
10, 4607, Note_on_c, 6, 59, 0
10, 4992, Note_on_c, 6, 64, 85
10, 4992, Note_on_c, 6, 52, 85
10, 4992, Note_on_c, 6, 68, 85
10, 4992, Note_on_c, 6, 59, 85
10, 5087, Note_on_c, 6, 64, 0
10, 5087, Note_on_c, 6, 52, 0
10, 5087, Note_on_c, 6, 68, 0
10, 5087, Note_on_c, 6, 59, 0
10, 5088, Note_on_c, 6, 68, 85
10, 5088, Note_on_c, 6, 59, 85
10, 5088, Note_on_c, 6, 64, 85
10, 5088, Note_on_c, 6, 52, 85
10, 5183, Note_on_c, 6, 68, 0
10, 5183, Note_on_c, 6, 59, 0
10, 5183, Note_on_c, 6, 64, 0
10, 5183, Note_on_c, 6, 52, 0
10, 5184, Note_on_c, 6, 59, 85
10, 5184, Note_on_c, 6, 68, 85
10, 5184, Note_on_c, 6, 64, 85
10, 5184, Note_on_c, 6, 52, 85
10, 5279, Note_on_c, 6, 59, 0
10, 5279, Note_on_c, 6, 68, 0
10, 5279, Note_on_c, 6, 64, 0
10, 5279, Note_on_c, 6, 52, 0
10, 5280, Note_on_c, 6, 52, 85
10, 5280, Note_on_c, 6, 68, 85
10, 5280, Note_on_c, 6, 59, 85
10, 5280, Note_on_c, 6, 64, 85
10, 5375, Note_on_c, 6, 52, 0
10, 5375, Note_on_c, 6, 68, 0
10, 5375, Note_on_c, 6, 59, 0
10, 5375, Note_on_c, 6, 64, 0
10, 5376, Note_on_c, 6, 52, 85
10, 5376, Note_on_c, 6, 64, 85
10, 5376, Note_on_c, 6, 68, 85
10, 5376, Note_on_c, 6, 59, 85
10, 5471, Note_on_c, 6, 52, 0
10, 5471, Note_on_c, 6, 64, 0
10, 5471, Note_on_c, 6, 68, 0
10, 5471, Note_on_c, 6, 59, 0
10, 5472, Note_on_c, 6, 52, 85
10, 5472, Note_on_c, 6, 59, 85
10, 5472, Note_on_c, 6, 68, 85
10, 5472, Note_on_c, 6, 64, 85
10, 5567, Note_on_c, 6, 52, 0
10, 5567, Note_on_c, 6, 59, 0
10, 5567, Note_on_c, 6, 68, 0
10, 5567, Note_on_c, 6, 64, 0
10, 5568, Note_on_c, 6, 59, 85
10, 5568, Note_on_c, 6, 52, 85
10, 5568, Note_on_c, 6, 68, 85
10, 5568, Note_on_c, 6, 64, 85
10, 5663, Note_on_c, 6, 59, 0
10, 5663, Note_on_c, 6, 52, 0
10, 5663, Note_on_c, 6, 68, 0
10, 5663, Note_on_c, 6, 64, 0
10, 5664, Note_on_c, 6, 64, 85
10, 5664, Note_on_c, 6, 52, 85
10, 5664, Note_on_c, 6, 68, 85
10, 5664, Note_on_c, 6, 59, 85
10, 5759, Note_on_c, 6, 64, 0
10, 5759, Note_on_c, 6, 52, 0
10, 5759, Note_on_c, 6, 68, 0
10, 5759, Note_on_c, 6, 59, 0
10, 5760, Note_on_c, 6, 59, 85
10, 5760, Note_on_c, 6, 68, 85
10, 5760, Note_on_c, 6, 64, 85
10, 5760, Note_on_c, 6, 52, 85
10, 5855, Note_on_c, 6, 59, 0
10, 5855, Note_on_c, 6, 68, 0
10, 5855, Note_on_c, 6, 64, 0
10, 5855, Note_on_c, 6, 52, 0
10, 5856, Note_on_c, 6, 52, 85
10, 5856, Note_on_c, 6, 68, 85
10, 5856, Note_on_c, 6, 59, 85
10, 5856, Note_on_c, 6, 64, 85
10, 5951, Note_on_c, 6, 52, 0
10, 5951, Note_on_c, 6, 68, 0
10, 5951, Note_on_c, 6, 59, 0
10, 5951, Note_on_c, 6, 64, 0
10, 5952, Note_on_c, 6, 64, 85
10, 5952, Note_on_c, 6, 68, 85
10, 5952, Note_on_c, 6, 59, 85
10, 5952, Note_on_c, 6, 52, 85
10, 6047, Note_on_c, 6, 64, 0
10, 6047, Note_on_c, 6, 68, 0
10, 6047, Note_on_c, 6, 59, 0
10, 6047, Note_on_c, 6, 52, 0
10, 6048, Note_on_c, 6, 64, 85
10, 6048, Note_on_c, 6, 59, 85
10, 6048, Note_on_c, 6, 52, 85
10, 6048, Note_on_c, 6, 68, 85
10, 6143, Note_on_c, 6, 64, 0
10, 6143, Note_on_c, 6, 59, 0
10, 6143, Note_on_c, 6, 52, 0
10, 6143, Note_on_c, 6, 68, 0
10, 6144, Note_on_c, 6, 64, 85
10, 6144, Note_on_c, 6, 59, 85
10, 6144, Note_on_c, 6, 68, 85
10, 6144, Note_on_c, 6, 52, 85
10, 6239, Note_on_c, 6, 64, 0
10, 6239, Note_on_c, 6, 59, 0
10, 6239, Note_on_c, 6, 68, 0
10, 6239, Note_on_c, 6, 52, 0
10, 6240, Note_on_c, 6, 64, 85
10, 6240, Note_on_c, 6, 68, 85
10, 6240, Note_on_c, 6, 59, 85
10, 6240, Note_on_c, 6, 52, 85
10, 6335, Note_on_c, 6, 64, 0
10, 6335, Note_on_c, 6, 68, 0
10, 6335, Note_on_c, 6, 59, 0
10, 6335, Note_on_c, 6, 52, 0
10, 6336, Note_on_c, 6, 64, 85
10, 6336, Note_on_c, 6, 59, 85
10, 6336, Note_on_c, 6, 68, 85
10, 6336, Note_on_c, 6, 52, 85
10, 6431, Note_on_c, 6, 64, 0
10, 6431, Note_on_c, 6, 59, 0
10, 6431, Note_on_c, 6, 68, 0
10, 6431, Note_on_c, 6, 52, 0
10, 6432, Note_on_c, 6, 59, 85
10, 6432, Note_on_c, 6, 68, 85
10, 6432, Note_on_c, 6, 64, 85
10, 6432, Note_on_c, 6, 52, 85
10, 6527, Note_on_c, 6, 59, 0
10, 6527, Note_on_c, 6, 68, 0
10, 6527, Note_on_c, 6, 64, 0
10, 6527, Note_on_c, 6, 52, 0
10, 6528, Note_on_c, 6, 57, 85
10, 6528, Note_on_c, 6, 54, 85
10, 6528, Note_on_c, 6, 49, 85
10, 6528, Note_on_c, 6, 66, 85
10, 6528, Note_on_c, 6, 61, 85
10, 6528, Note_on_c, 6, 42, 85
10, 6623, Note_on_c, 6, 57, 0
10, 6623, Note_on_c, 6, 54, 0
10, 6623, Note_on_c, 6, 49, 0
10, 6623, Note_on_c, 6, 66, 0
10, 6623, Note_on_c, 6, 61, 0
10, 6623, Note_on_c, 6, 42, 0
10, 6624, Note_on_c, 6, 66, 85
10, 6624, Note_on_c, 6, 49, 85
10, 6624, Note_on_c, 6, 54, 85
10, 6624, Note_on_c, 6, 61, 85
10, 6624, Note_on_c, 6, 42, 85
10, 6624, Note_on_c, 6, 57, 85
10, 6719, Note_on_c, 6, 66, 0
10, 6719, Note_on_c, 6, 49, 0
10, 6719, Note_on_c, 6, 54, 0
10, 6719, Note_on_c, 6, 61, 0
10, 6719, Note_on_c, 6, 42, 0
10, 6719, Note_on_c, 6, 57, 0
10, 6720, Note_on_c, 6, 49, 85
10, 6720, Note_on_c, 6, 54, 85
10, 6720, Note_on_c, 6, 57, 85
10, 6720, Note_on_c, 6, 66, 85
10, 6720, Note_on_c, 6, 42, 85
10, 6720, Note_on_c, 6, 61, 85
10, 6815, Note_on_c, 6, 49, 0
10, 6815, Note_on_c, 6, 54, 0
10, 6815, Note_on_c, 6, 57, 0
10, 6815, Note_on_c, 6, 66, 0
10, 6815, Note_on_c, 6, 42, 0
10, 6815, Note_on_c, 6, 61, 0
10, 6816, Note_on_c, 6, 42, 85
10, 6816, Note_on_c, 6, 49, 85
10, 6816, Note_on_c, 6, 57, 85
10, 6816, Note_on_c, 6, 61, 85
10, 6816, Note_on_c, 6, 54, 85
10, 6816, Note_on_c, 6, 66, 85
10, 6911, Note_on_c, 6, 42, 0
10, 6911, Note_on_c, 6, 49, 0
10, 6911, Note_on_c, 6, 57, 0
10, 6911, Note_on_c, 6, 61, 0
10, 6911, Note_on_c, 6, 54, 0
10, 6911, Note_on_c, 6, 66, 0
10, 6912, Note_on_c, 6, 61, 85
10, 6912, Note_on_c, 6, 52, 85
10, 6912, Note_on_c, 6, 45, 85
10, 6912, Note_on_c, 6, 64, 85
10, 6912, Note_on_c, 6, 57, 85
10, 6912, Note_on_c, 6, 69, 85
10, 7007, Note_on_c, 6, 61, 0
10, 7007, Note_on_c, 6, 52, 0
10, 7007, Note_on_c, 6, 45, 0
10, 7007, Note_on_c, 6, 64, 0
10, 7007, Note_on_c, 6, 57, 0
10, 7007, Note_on_c, 6, 69, 0
10, 7008, Note_on_c, 6, 45, 85
10, 7008, Note_on_c, 6, 64, 85
10, 7008, Note_on_c, 6, 57, 85
10, 7008, Note_on_c, 6, 69, 85
10, 7008, Note_on_c, 6, 61, 85
10, 7008, Note_on_c, 6, 52, 85
10, 7103, Note_on_c, 6, 45, 0
10, 7103, Note_on_c, 6, 64, 0
10, 7103, Note_on_c, 6, 57, 0
10, 7103, Note_on_c, 6, 69, 0
10, 7103, Note_on_c, 6, 61, 0
10, 7103, Note_on_c, 6, 52, 0
10, 7104, Note_on_c, 6, 52, 85
10, 7104, Note_on_c, 6, 45, 85
10, 7104, Note_on_c, 6, 69, 85
10, 7104, Note_on_c, 6, 61, 85
10, 7104, Note_on_c, 6, 64, 85
10, 7104, Note_on_c, 6, 57, 85
10, 7199, Note_on_c, 6, 52, 0
10, 7199, Note_on_c, 6, 45, 0
10, 7199, Note_on_c, 6, 69, 0
10, 7199, Note_on_c, 6, 61, 0
10, 7199, Note_on_c, 6, 64, 0
10, 7199, Note_on_c, 6, 57, 0
10, 7200, Note_on_c, 6, 61, 85
10, 7200, Note_on_c, 6, 52, 85
10, 7200, Note_on_c, 6, 69, 85
10, 7200, Note_on_c, 6, 57, 85
10, 7200, Note_on_c, 6, 64, 85
10, 7200, Note_on_c, 6, 45, 85
10, 7295, Note_on_c, 6, 61, 0
10, 7295, Note_on_c, 6, 52, 0
10, 7295, Note_on_c, 6, 69, 0
10, 7295, Note_on_c, 6, 57, 0
10, 7295, Note_on_c, 6, 64, 0
10, 7295, Note_on_c, 6, 45, 0
10, 7296, Note_on_c, 6, 52, 85
10, 7296, Note_on_c, 6, 59, 85
10, 7296, Note_on_c, 6, 64, 85
10, 7296, Note_on_c, 6, 68, 85
10, 7391, Note_on_c, 6, 52, 0
10, 7391, Note_on_c, 6, 59, 0
10, 7391, Note_on_c, 6, 64, 0
10, 7391, Note_on_c, 6, 68, 0
10, 7392, Note_on_c, 6, 52, 85
10, 7392, Note_on_c, 6, 68, 85
10, 7392, Note_on_c, 6, 64, 85
10, 7392, Note_on_c, 6, 59, 85
10, 7487, Note_on_c, 6, 52, 0
10, 7487, Note_on_c, 6, 68, 0
10, 7487, Note_on_c, 6, 64, 0
10, 7487, Note_on_c, 6, 59, 0
10, 7488, Note_on_c, 6, 52, 85
10, 7488, Note_on_c, 6, 59, 85
10, 7488, Note_on_c, 6, 64, 85
10, 7488, Note_on_c, 6, 68, 85
10, 7583, Note_on_c, 6, 52, 0
10, 7583, Note_on_c, 6, 59, 0
10, 7583, Note_on_c, 6, 64, 0
10, 7583, Note_on_c, 6, 68, 0
10, 7584, Note_on_c, 6, 52, 85
10, 7584, Note_on_c, 6, 59, 85
10, 7584, Note_on_c, 6, 64, 85
10, 7584, Note_on_c, 6, 68, 85
10, 7679, Note_on_c, 6, 52, 0
10, 7679, Note_on_c, 6, 59, 0
10, 7679, Note_on_c, 6, 64, 0
10, 7679, Note_on_c, 6, 68, 0
10, 7680, Note_on_c, 6, 68, 85
10, 7680, Note_on_c, 6, 64, 85
10, 7680, Note_on_c, 6, 59, 85
10, 7680, Note_on_c, 6, 52, 85
10, 7775, Note_on_c, 6, 68, 0
10, 7775, Note_on_c, 6, 64, 0
10, 7775, Note_on_c, 6, 59, 0
10, 7775, Note_on_c, 6, 52, 0
10, 7776, Note_on_c, 6, 64, 85
10, 7776, Note_on_c, 6, 52, 85
10, 7776, Note_on_c, 6, 68, 85
10, 7776, Note_on_c, 6, 59, 85
10, 7871, Note_on_c, 6, 64, 0
10, 7871, Note_on_c, 6, 52, 0
10, 7871, Note_on_c, 6, 68, 0
10, 7871, Note_on_c, 6, 59, 0
10, 7872, Note_on_c, 6, 68, 85
10, 7872, Note_on_c, 6, 59, 85
10, 7872, Note_on_c, 6, 52, 85
10, 7872, Note_on_c, 6, 64, 85
10, 7919, Note_on_c, 6, 68, 0
10, 7919, Note_on_c, 6, 59, 0
10, 7919, Note_on_c, 6, 52, 0
10, 7919, Note_on_c, 6, 64, 0
10, 7920, Note_on_c, 6, 68, 85
10, 7920, Note_on_c, 6, 52, 85
10, 7920, Note_on_c, 6, 64, 85
10, 7920, Note_on_c, 6, 59, 85
10, 7967, Note_on_c, 6, 68, 0
10, 7967, Note_on_c, 6, 52, 0
10, 7967, Note_on_c, 6, 64, 0
10, 7967, Note_on_c, 6, 59, 0
10, 7968, Note_on_c, 6, 52, 85
10, 7968, Note_on_c, 6, 64, 85
10, 7968, Note_on_c, 6, 68, 85
10, 7968, Note_on_c, 6, 59, 85
10, 8015, Note_on_c, 6, 52, 0
10, 8015, Note_on_c, 6, 64, 0
10, 8015, Note_on_c, 6, 68, 0
10, 8015, Note_on_c, 6, 59, 0
10, 8016, Note_on_c, 6, 64, 85
10, 8016, Note_on_c, 6, 59, 85
10, 8016, Note_on_c, 6, 68, 85
10, 8016, Note_on_c, 6, 52, 85
10, 8063, Note_on_c, 6, 64, 0
10, 8063, Note_on_c, 6, 59, 0
10, 8063, Note_on_c, 6, 68, 0
10, 8063, Note_on_c, 6, 52, 0
10, 17280, Note_on_c, 6, 68, 85
10, 17280, Note_on_c, 6, 64, 85
10, 17280, Note_on_c, 6, 52, 85
10, 17280, Note_on_c, 6, 59, 85
10, 17375, Note_on_c, 6, 68, 0
10, 17375, Note_on_c, 6, 64, 0
10, 17375, Note_on_c, 6, 52, 0
10, 17375, Note_on_c, 6, 59, 0
10, 17376, Note_on_c, 6, 68, 85
10, 17376, Note_on_c, 6, 52, 85
10, 17376, Note_on_c, 6, 59, 85
10, 17376, Note_on_c, 6, 64, 85
10, 17471, Note_on_c, 6, 68, 0
10, 17471, Note_on_c, 6, 52, 0
10, 17471, Note_on_c, 6, 59, 0
10, 17471, Note_on_c, 6, 64, 0
10, 17472, Note_on_c, 6, 64, 85
10, 17472, Note_on_c, 6, 68, 85
10, 17472, Note_on_c, 6, 59, 85
10, 17472, Note_on_c, 6, 52, 85
10, 17567, Note_on_c, 6, 64, 0
10, 17567, Note_on_c, 6, 68, 0
10, 17567, Note_on_c, 6, 59, 0
10, 17567, Note_on_c, 6, 52, 0
10, 17568, Note_on_c, 6, 52, 85
10, 17568, Note_on_c, 6, 68, 85
10, 17568, Note_on_c, 6, 64, 85
10, 17568, Note_on_c, 6, 59, 85
10, 17663, Note_on_c, 6, 52, 0
10, 17663, Note_on_c, 6, 68, 0
10, 17663, Note_on_c, 6, 64, 0
10, 17663, Note_on_c, 6, 59, 0
10, 17664, Note_on_c, 6, 68, 85
10, 17664, Note_on_c, 6, 59, 85
10, 17664, Note_on_c, 6, 52, 85
10, 17664, Note_on_c, 6, 64, 85
10, 17759, Note_on_c, 6, 68, 0
10, 17759, Note_on_c, 6, 59, 0
10, 17759, Note_on_c, 6, 52, 0
10, 17759, Note_on_c, 6, 64, 0
10, 17760, Note_on_c, 6, 59, 85
10, 17760, Note_on_c, 6, 68, 85
10, 17760, Note_on_c, 6, 64, 85
10, 17760, Note_on_c, 6, 52, 85
10, 17855, Note_on_c, 6, 59, 0
10, 17855, Note_on_c, 6, 68, 0
10, 17855, Note_on_c, 6, 64, 0
10, 17855, Note_on_c, 6, 52, 0
10, 17856, Note_on_c, 6, 64, 85
10, 17856, Note_on_c, 6, 68, 85
10, 17856, Note_on_c, 6, 59, 85
10, 17856, Note_on_c, 6, 52, 85
10, 17951, Note_on_c, 6, 64, 0
10, 17951, Note_on_c, 6, 68, 0
10, 17951, Note_on_c, 6, 59, 0
10, 17951, Note_on_c, 6, 52, 0
10, 17952, Note_on_c, 6, 68, 85
10, 17952, Note_on_c, 6, 52, 85
10, 17952, Note_on_c, 6, 59, 85
10, 17952, Note_on_c, 6, 64, 85
10, 18047, Note_on_c, 6, 68, 0
10, 18047, Note_on_c, 6, 52, 0
10, 18047, Note_on_c, 6, 59, 0
10, 18047, Note_on_c, 6, 64, 0
10, 18048, Note_on_c, 6, 59, 85
10, 18048, Note_on_c, 6, 64, 85
10, 18048, Note_on_c, 6, 52, 85
10, 18048, Note_on_c, 6, 68, 85
10, 18143, Note_on_c, 6, 59, 0
10, 18143, Note_on_c, 6, 64, 0
10, 18143, Note_on_c, 6, 52, 0
10, 18143, Note_on_c, 6, 68, 0
10, 18144, Note_on_c, 6, 64, 85
10, 18144, Note_on_c, 6, 52, 85
10, 18144, Note_on_c, 6, 68, 85
10, 18144, Note_on_c, 6, 59, 85
10, 18239, Note_on_c, 6, 64, 0
10, 18239, Note_on_c, 6, 52, 0
10, 18239, Note_on_c, 6, 68, 0
10, 18239, Note_on_c, 6, 59, 0
10, 18240, Note_on_c, 6, 59, 85
10, 18240, Note_on_c, 6, 64, 85
10, 18240, Note_on_c, 6, 52, 85
10, 18240, Note_on_c, 6, 68, 85
10, 18335, Note_on_c, 6, 59, 0
10, 18335, Note_on_c, 6, 64, 0
10, 18335, Note_on_c, 6, 52, 0
10, 18335, Note_on_c, 6, 68, 0
10, 18336, Note_on_c, 6, 52, 85
10, 18336, Note_on_c, 6, 64, 85
10, 18336, Note_on_c, 6, 68, 85
10, 18336, Note_on_c, 6, 59, 85
10, 18431, Note_on_c, 6, 52, 0
10, 18431, Note_on_c, 6, 64, 0
10, 18431, Note_on_c, 6, 68, 0
10, 18431, Note_on_c, 6, 59, 0
10, 18432, Note_on_c, 6, 64, 85
10, 18432, Note_on_c, 6, 52, 85
10, 18432, Note_on_c, 6, 68, 85
10, 18432, Note_on_c, 6, 59, 85
10, 18527, Note_on_c, 6, 64, 0
10, 18527, Note_on_c, 6, 52, 0
10, 18527, Note_on_c, 6, 68, 0
10, 18527, Note_on_c, 6, 59, 0
10, 18528, Note_on_c, 6, 59, 85
10, 18528, Note_on_c, 6, 52, 85
10, 18528, Note_on_c, 6, 64, 85
10, 18528, Note_on_c, 6, 68, 85
10, 18623, Note_on_c, 6, 59, 0
10, 18623, Note_on_c, 6, 52, 0
10, 18623, Note_on_c, 6, 64, 0
10, 18623, Note_on_c, 6, 68, 0
10, 18624, Note_on_c, 6, 52, 85
10, 18624, Note_on_c, 6, 64, 85
10, 18624, Note_on_c, 6, 59, 85
10, 18624, Note_on_c, 6, 68, 85
10, 18719, Note_on_c, 6, 52, 0
10, 18719, Note_on_c, 6, 64, 0
10, 18719, Note_on_c, 6, 59, 0
10, 18719, Note_on_c, 6, 68, 0
10, 18720, Note_on_c, 6, 68, 85
10, 18720, Note_on_c, 6, 59, 85
10, 18720, Note_on_c, 6, 52, 85
10, 18720, Note_on_c, 6, 64, 85
10, 18815, Note_on_c, 6, 68, 0
10, 18815, Note_on_c, 6, 59, 0
10, 18815, Note_on_c, 6, 52, 0
10, 18815, Note_on_c, 6, 64, 0
10, 18816, Note_on_c, 6, 49, 85
10, 18816, Note_on_c, 6, 61, 85
10, 18816, Note_on_c, 6, 54, 85
10, 18816, Note_on_c, 6, 66, 85
10, 18816, Note_on_c, 6, 42, 85
10, 18816, Note_on_c, 6, 57, 85
10, 18911, Note_on_c, 6, 49, 0
10, 18911, Note_on_c, 6, 61, 0
10, 18911, Note_on_c, 6, 54, 0
10, 18911, Note_on_c, 6, 66, 0
10, 18911, Note_on_c, 6, 42, 0
10, 18911, Note_on_c, 6, 57, 0
10, 18912, Note_on_c, 6, 57, 85
10, 18912, Note_on_c, 6, 42, 85
10, 18912, Note_on_c, 6, 49, 85
10, 18912, Note_on_c, 6, 61, 85
10, 18912, Note_on_c, 6, 66, 85
10, 18912, Note_on_c, 6, 54, 85
10, 19007, Note_on_c, 6, 57, 0
10, 19007, Note_on_c, 6, 42, 0
10, 19007, Note_on_c, 6, 49, 0
10, 19007, Note_on_c, 6, 61, 0
10, 19007, Note_on_c, 6, 66, 0
10, 19007, Note_on_c, 6, 54, 0
10, 19008, Note_on_c, 6, 42, 85
10, 19008, Note_on_c, 6, 54, 85
10, 19008, Note_on_c, 6, 57, 85
10, 19008, Note_on_c, 6, 49, 85
10, 19008, Note_on_c, 6, 66, 85
10, 19008, Note_on_c, 6, 61, 85
10, 19103, Note_on_c, 6, 42, 0
10, 19103, Note_on_c, 6, 54, 0
10, 19103, Note_on_c, 6, 57, 0
10, 19103, Note_on_c, 6, 49, 0
10, 19103, Note_on_c, 6, 66, 0
10, 19103, Note_on_c, 6, 61, 0
10, 19104, Note_on_c, 6, 49, 85
10, 19104, Note_on_c, 6, 66, 85
10, 19104, Note_on_c, 6, 54, 85
10, 19104, Note_on_c, 6, 57, 85
10, 19104, Note_on_c, 6, 61, 85
10, 19104, Note_on_c, 6, 42, 85
10, 19199, Note_on_c, 6, 49, 0
10, 19199, Note_on_c, 6, 66, 0
10, 19199, Note_on_c, 6, 54, 0
10, 19199, Note_on_c, 6, 57, 0
10, 19199, Note_on_c, 6, 61, 0
10, 19199, Note_on_c, 6, 42, 0
10, 19200, Note_on_c, 6, 64, 85
10, 19200, Note_on_c, 6, 52, 85
10, 19200, Note_on_c, 6, 69, 85
10, 19200, Note_on_c, 6, 61, 85
10, 19200, Note_on_c, 6, 57, 85
10, 19200, Note_on_c, 6, 45, 85
10, 19295, Note_on_c, 6, 64, 0
10, 19295, Note_on_c, 6, 52, 0
10, 19295, Note_on_c, 6, 69, 0
10, 19295, Note_on_c, 6, 61, 0
10, 19295, Note_on_c, 6, 57, 0
10, 19295, Note_on_c, 6, 45, 0
10, 19296, Note_on_c, 6, 52, 85
10, 19296, Note_on_c, 6, 69, 85
10, 19296, Note_on_c, 6, 57, 85
10, 19296, Note_on_c, 6, 61, 85
10, 19296, Note_on_c, 6, 45, 85
10, 19296, Note_on_c, 6, 64, 85
10, 19391, Note_on_c, 6, 52, 0
10, 19391, Note_on_c, 6, 69, 0
10, 19391, Note_on_c, 6, 57, 0
10, 19391, Note_on_c, 6, 61, 0
10, 19391, Note_on_c, 6, 45, 0
10, 19391, Note_on_c, 6, 64, 0
10, 19392, Note_on_c, 6, 61, 85
10, 19392, Note_on_c, 6, 52, 85
10, 19392, Note_on_c, 6, 45, 85
10, 19392, Note_on_c, 6, 57, 85
10, 19392, Note_on_c, 6, 64, 85
10, 19392, Note_on_c, 6, 69, 85
10, 19487, Note_on_c, 6, 61, 0
10, 19487, Note_on_c, 6, 52, 0
10, 19487, Note_on_c, 6, 45, 0
10, 19487, Note_on_c, 6, 57, 0
10, 19487, Note_on_c, 6, 64, 0
10, 19487, Note_on_c, 6, 69, 0
10, 19488, Note_on_c, 6, 45, 85
10, 19488, Note_on_c, 6, 61, 85
10, 19488, Note_on_c, 6, 57, 85
10, 19488, Note_on_c, 6, 69, 85
10, 19488, Note_on_c, 6, 64, 85
10, 19488, Note_on_c, 6, 52, 85
10, 19583, Note_on_c, 6, 45, 0
10, 19583, Note_on_c, 6, 61, 0
10, 19583, Note_on_c, 6, 57, 0
10, 19583, Note_on_c, 6, 69, 0
10, 19583, Note_on_c, 6, 64, 0
10, 19583, Note_on_c, 6, 52, 0
10, 19632, Note_on_c, 6, 64, 85
10, 19632, Note_on_c, 6, 52, 85
10, 19632, Note_on_c, 6, 68, 85
10, 19632, Note_on_c, 6, 59, 85
10, 19679, Note_on_c, 6, 64, 0
10, 19679, Note_on_c, 6, 52, 0
10, 19679, Note_on_c, 6, 68, 0
10, 19679, Note_on_c, 6, 59, 0
10, 19680, Note_on_c, 6, 59, 85
10, 19680, Note_on_c, 6, 52, 85
10, 19680, Note_on_c, 6, 64, 85
10, 19680, Note_on_c, 6, 68, 85
10, 19727, Note_on_c, 6, 59, 0
10, 19727, Note_on_c, 6, 52, 0
10, 19727, Note_on_c, 6, 64, 0
10, 19727, Note_on_c, 6, 68, 0
10, 19728, Note_on_c, 6, 64, 85
10, 19728, Note_on_c, 6, 68, 85
10, 19728, Note_on_c, 6, 59, 85
10, 19728, Note_on_c, 6, 52, 85
10, 19775, Note_on_c, 6, 64, 0
10, 19775, Note_on_c, 6, 68, 0
10, 19775, Note_on_c, 6, 59, 0
10, 19775, Note_on_c, 6, 52, 0
10, 19776, Note_on_c, 6, 59, 85
10, 19776, Note_on_c, 6, 68, 85
10, 19776, Note_on_c, 6, 64, 85
10, 19776, Note_on_c, 6, 52, 85
10, 19823, Note_on_c, 6, 59, 0
10, 19823, Note_on_c, 6, 68, 0
10, 19823, Note_on_c, 6, 64, 0
10, 19823, Note_on_c, 6, 52, 0
10, 19824, Note_on_c, 6, 68, 85
10, 19824, Note_on_c, 6, 52, 85
10, 19824, Note_on_c, 6, 64, 85
10, 19824, Note_on_c, 6, 59, 85
10, 19871, Note_on_c, 6, 68, 0
10, 19871, Note_on_c, 6, 52, 0
10, 19871, Note_on_c, 6, 64, 0
10, 19871, Note_on_c, 6, 59, 0
10, 19872, Note_on_c, 6, 59, 85
10, 19872, Note_on_c, 6, 68, 85
10, 19872, Note_on_c, 6, 52, 85
10, 19872, Note_on_c, 6, 64, 85
10, 19919, Note_on_c, 6, 59, 0
10, 19919, Note_on_c, 6, 68, 0
10, 19919, Note_on_c, 6, 52, 0
10, 19919, Note_on_c, 6, 64, 0
10, 19920, Note_on_c, 6, 52, 85
10, 19920, Note_on_c, 6, 59, 85
10, 19920, Note_on_c, 6, 64, 85
10, 19920, Note_on_c, 6, 68, 85
10, 19967, Note_on_c, 6, 52, 0
10, 19967, Note_on_c, 6, 59, 0
10, 19967, Note_on_c, 6, 64, 0
10, 19967, Note_on_c, 6, 68, 0
10, 20016, Note_on_c, 6, 68, 85
10, 20016, Note_on_c, 6, 59, 85
10, 20016, Note_on_c, 6, 52, 85
10, 20016, Note_on_c, 6, 64, 85
10, 20063, Note_on_c, 6, 68, 0
10, 20063, Note_on_c, 6, 59, 0
10, 20063, Note_on_c, 6, 52, 0
10, 20063, Note_on_c, 6, 64, 0
10, 20064, Note_on_c, 6, 68, 85
10, 20064, Note_on_c, 6, 64, 85
10, 20064, Note_on_c, 6, 52, 85
10, 20064, Note_on_c, 6, 59, 85
10, 20111, Note_on_c, 6, 68, 0
10, 20111, Note_on_c, 6, 64, 0
10, 20111, Note_on_c, 6, 52, 0
10, 20111, Note_on_c, 6, 59, 0
10, 20112, Note_on_c, 6, 59, 85
10, 20112, Note_on_c, 6, 64, 85
10, 20112, Note_on_c, 6, 52, 85
10, 20112, Note_on_c, 6, 68, 85
10, 20159, Note_on_c, 6, 59, 0
10, 20159, Note_on_c, 6, 64, 0
10, 20159, Note_on_c, 6, 52, 0
10, 20159, Note_on_c, 6, 68, 0
10, 20160, Note_on_c, 6, 59, 85
10, 20160, Note_on_c, 6, 52, 85
10, 20160, Note_on_c, 6, 64, 85
10, 20160, Note_on_c, 6, 68, 85
10, 20207, Note_on_c, 6, 59, 0
10, 20207, Note_on_c, 6, 52, 0
10, 20207, Note_on_c, 6, 64, 0
10, 20207, Note_on_c, 6, 68, 0
10, 20208, Note_on_c, 6, 52, 85
10, 20208, Note_on_c, 6, 64, 85
10, 20208, Note_on_c, 6, 68, 85
10, 20208, Note_on_c, 6, 59, 85
10, 20255, Note_on_c, 6, 52, 0
10, 20255, Note_on_c, 6, 64, 0
10, 20255, Note_on_c, 6, 68, 0
10, 20255, Note_on_c, 6, 59, 0
10, 20256, Note_on_c, 6, 68, 85
10, 20256, Note_on_c, 6, 59, 85
10, 20256, Note_on_c, 6, 52, 85
10, 20256, Note_on_c, 6, 64, 85
10, 20303, Note_on_c, 6, 68, 0
10, 20303, Note_on_c, 6, 59, 0
10, 20303, Note_on_c, 6, 52, 0
10, 20303, Note_on_c, 6, 64, 0
10, 20304, Note_on_c, 6, 52, 85
10, 20304, Note_on_c, 6, 59, 85
10, 20304, Note_on_c, 6, 64, 85
10, 20304, Note_on_c, 6, 68, 85
10, 20351, Note_on_c, 6, 52, 0
10, 20351, Note_on_c, 6, 59, 0
10, 20351, Note_on_c, 6, 64, 0
10, 20351, Note_on_c, 6, 68, 0
10, 20351, End_track
11, 0, Start_track
11, 0, Title_t, "GS Reset SYX DWB"
11, 0, MIDI_port, 0
11, 0, System_exclusive, 10, 65, 16, 66, 18, 64, 0, 127, 0, 65, 247
11, 440, System_exclusive, 32, 65, 16, 69, 18, 16, 0, 0, 83, 101, 113, 117, 101, 110, 99, 101, 100, 32, 98, 121, 32, 68, 46, 87, 46, 66, 97, 114, 110, 101, 115, 102, 247
11, 3512, System_exclusive, 34, 65, 16, 69, 18, 16, 0, 0, 69, 109, 97, 105, 108, 58, 32, 68, 97, 118, 105, 100, 66, 55, 49, 55, 48, 64, 97, 111, 108, 46, 99, 111, 109, 76, 247
11, 26496, System_exclusive, 10, 65, 16, 66, 18, 64, 0, 127, 0, 65, 247
11, 26496, End_track
12, 0, Start_track
12, 0, Title_t, "================="
12, 0, MIDI_port, 0
12, 0, End_track
13, 0, Start_track
13, 0, Title_t, "MUSIC & WORDS by:"
13, 0, MIDI_port, 0
13, 0, End_track
14, 0, Start_track
14, 0, Title_t, "John Lennon"
14, 0, MIDI_port, 0
14, 0, End_track
15, 0, Start_track
15, 0, Title_t, "Paul McCartney"
15, 0, MIDI_port, 0
15, 0, End_track
16, 0, Start_track
16, 0, Title_t, "SEQUENCED by:"
16, 0, MIDI_port, 0
16, 0, End_track
17, 0, Start_track
17, 0, Title_t, "DWBarnes 12/04/95"
17, 0, MIDI_port, 0
17, 0, Copyright_t, "MIDI File Copyright 1995, DWBarnes"
17, 0, Text_t, "For Personal Use Only"
17, 1, Text_t, "Modification without MIDI File"
17, 2, Text_t, "author's permission is prohibited."
17, 4, Text_t, "Comments?"
17, 4, Text_t, "Email: DavidB7170@aol.com"
17, 4, End_track
18, 0, Start_track
18, 0, Title_t, "================="
18, 0, MIDI_port, 0
18, 0, End_track
0, 0, End_of_file
