0, 0, Header, 1, 16, 120
1, 0, Start_track
1, 0, Time_signature, 4, 2, 24, 8
1, 0, Key_signature, 0, "major"
1, 0, Tempo, 500000
1, 0, Marker_t, "Ashes To Ashes by David Bowie"
1, 0, End_track
2, 0, Start_track
2, 0, MIDI_port, 0
2, 0, Title_t, "Bass"
2, 9, Program_c, 0, 35
2, 14, Note_on_c, 0, 34, 88
2, 43, Note_on_c, 0, 34, 0
2, 69, Note_on_c, 0, 34, 88
2, 127, Note_on_c, 0, 34, 0
2, 189, Note_on_c, 0, 46, 88
2, 240, Note_on_c, 0, 46, 0
2, 429, Note_on_c, 0, 30, 88
2, 487, Note_on_c, 0, 30, 0
2, 489, Note_on_c, 0, 32, 88
2, 520, Note_on_c, 0, 32, 0
2, 549, Note_on_c, 0, 32, 88
2, 609, Note_on_c, 0, 32, 0
2, 669, Note_on_c, 0, 44, 88
2, 712, Note_on_c, 0, 44, 0
2, 909, Note_on_c, 0, 37, 88
2, 955, Note_on_c, 0, 37, 0
2, 969, Note_on_c, 0, 39, 88
2, 1012, Note_on_c, 0, 39, 0
2, 1029, Note_on_c, 0, 39, 88
2, 1070, Note_on_c, 0, 39, 0
2, 1149, Note_on_c, 0, 51, 88
2, 1188, Note_on_c, 0, 51, 0
2, 1269, Note_on_c, 0, 30, 88
2, 1317, Note_on_c, 0, 30, 0
2, 1389, Note_on_c, 0, 32, 88
2, 1437, Note_on_c, 0, 32, 0
2, 1449, Note_on_c, 0, 34, 88
2, 1483, Note_on_c, 0, 34, 0
2, 1509, Note_on_c, 0, 34, 88
2, 1567, Note_on_c, 0, 34, 0
2, 1629, Note_on_c, 0, 46, 88
2, 1680, Note_on_c, 0, 46, 0
2, 1929, Note_on_c, 0, 32, 88
2, 1968, Note_on_c, 0, 32, 0
2, 1989, Note_on_c, 0, 32, 88
2, 2037, Note_on_c, 0, 32, 0
2, 2109, Note_on_c, 0, 44, 88
2, 2155, Note_on_c, 0, 44, 0
2, 2409, Note_on_c, 0, 39, 88
2, 2452, Note_on_c, 0, 39, 0
2, 2469, Note_on_c, 0, 39, 88
2, 2510, Note_on_c, 0, 39, 0
2, 2589, Note_on_c, 0, 51, 88
2, 2628, Note_on_c, 0, 51, 0
2, 2709, Note_on_c, 0, 30, 88
2, 2757, Note_on_c, 0, 30, 0
2, 2829, Note_on_c, 0, 32, 88
2, 2877, Note_on_c, 0, 32, 0
2, 2889, Note_on_c, 0, 34, 88
2, 2930, Note_on_c, 0, 34, 0
2, 2949, Note_on_c, 0, 34, 88
2, 2995, Note_on_c, 0, 34, 0
2, 3069, Note_on_c, 0, 46, 88
2, 3103, Note_on_c, 0, 46, 0
2, 3367, Note_on_c, 0, 32, 88
2, 3400, Note_on_c, 0, 32, 0
2, 3429, Note_on_c, 0, 32, 88
2, 3484, Note_on_c, 0, 32, 0
2, 3549, Note_on_c, 0, 44, 88
2, 3585, Note_on_c, 0, 44, 0
2, 3849, Note_on_c, 0, 39, 88
2, 3892, Note_on_c, 0, 39, 0
2, 3909, Note_on_c, 0, 39, 88
2, 3950, Note_on_c, 0, 39, 0
2, 4029, Note_on_c, 0, 51, 88
2, 4068, Note_on_c, 0, 51, 0
2, 4149, Note_on_c, 0, 30, 88
2, 4197, Note_on_c, 0, 30, 0
2, 4269, Note_on_c, 0, 32, 88
2, 4317, Note_on_c, 0, 32, 0
2, 4329, Note_on_c, 0, 34, 88
2, 4370, Note_on_c, 0, 34, 0
2, 4389, Note_on_c, 0, 34, 88
2, 4435, Note_on_c, 0, 34, 0
2, 4509, Note_on_c, 0, 46, 88
2, 4543, Note_on_c, 0, 46, 0
2, 4807, Note_on_c, 0, 32, 88
2, 4840, Note_on_c, 0, 32, 0
2, 4869, Note_on_c, 0, 32, 88
2, 4924, Note_on_c, 0, 32, 0
2, 4989, Note_on_c, 0, 44, 88
2, 5025, Note_on_c, 0, 44, 0
2, 5289, Note_on_c, 0, 39, 88
2, 5332, Note_on_c, 0, 39, 0
2, 5349, Note_on_c, 0, 39, 88
2, 5390, Note_on_c, 0, 39, 0
2, 5469, Note_on_c, 0, 51, 88
2, 5508, Note_on_c, 0, 51, 0
2, 5589, Note_on_c, 0, 30, 88
2, 5637, Note_on_c, 0, 30, 0
2, 5709, Note_on_c, 0, 32, 88
2, 5757, Note_on_c, 0, 32, 0
2, 5769, Note_on_c, 0, 34, 88
2, 5803, Note_on_c, 0, 34, 0
2, 5829, Note_on_c, 0, 34, 88
2, 5887, Note_on_c, 0, 34, 0
2, 5949, Note_on_c, 0, 46, 88
2, 6002, Note_on_c, 0, 46, 0
2, 6189, Note_on_c, 0, 30, 88
2, 6247, Note_on_c, 0, 30, 0
2, 6247, Note_on_c, 0, 32, 88
2, 6280, Note_on_c, 0, 32, 0
2, 6309, Note_on_c, 0, 32, 88
2, 6369, Note_on_c, 0, 32, 0
2, 6429, Note_on_c, 0, 44, 88
2, 6472, Note_on_c, 0, 44, 0
2, 6669, Note_on_c, 0, 37, 88
2, 6715, Note_on_c, 0, 37, 0
2, 6732, Note_on_c, 0, 39, 88
2, 6772, Note_on_c, 0, 39, 0
2, 6789, Note_on_c, 0, 39, 88
2, 6832, Note_on_c, 0, 39, 0
2, 6909, Note_on_c, 0, 51, 88
2, 6948, Note_on_c, 0, 51, 0
2, 7029, Note_on_c, 0, 30, 88
2, 7077, Note_on_c, 0, 30, 0
2, 7149, Note_on_c, 0, 32, 88
2, 7197, Note_on_c, 0, 32, 0
2, 7209, Note_on_c, 0, 34, 88
2, 7243, Note_on_c, 0, 34, 0
2, 7269, Note_on_c, 0, 34, 88
2, 7327, Note_on_c, 0, 34, 0
2, 7389, Note_on_c, 0, 46, 88
2, 7440, Note_on_c, 0, 46, 0
2, 7689, Note_on_c, 0, 32, 88
2, 7723, Note_on_c, 0, 32, 0
2, 7749, Note_on_c, 0, 32, 88
2, 7795, Note_on_c, 0, 32, 0
2, 7869, Note_on_c, 0, 44, 88
2, 7898, Note_on_c, 0, 44, 0
2, 7989, Note_on_c, 0, 32, 88
2, 8035, Note_on_c, 0, 32, 0
2, 8167, Note_on_c, 0, 32, 88
2, 8203, Note_on_c, 0, 32, 0
2, 8229, Note_on_c, 0, 32, 88
2, 8270, Note_on_c, 0, 32, 0
2, 8349, Note_on_c, 0, 44, 88
2, 8380, Note_on_c, 0, 44, 0
2, 8649, Note_on_c, 0, 29, 88
2, 8692, Note_on_c, 0, 29, 0
2, 8709, Note_on_c, 0, 29, 88
2, 8743, Note_on_c, 0, 29, 0
2, 8829, Note_on_c, 0, 41, 88
2, 8870, Note_on_c, 0, 41, 0
2, 8949, Note_on_c, 0, 29, 88
2, 8995, Note_on_c, 0, 29, 0
2, 9129, Note_on_c, 0, 29, 88
2, 9168, Note_on_c, 0, 29, 0
2, 9189, Note_on_c, 0, 29, 88
2, 9235, Note_on_c, 0, 29, 0
2, 9309, Note_on_c, 0, 41, 88
2, 9355, Note_on_c, 0, 41, 0
2, 9549, Note_on_c, 0, 36, 88
2, 9607, Note_on_c, 0, 36, 0
2, 9609, Note_on_c, 0, 37, 88
2, 9657, Note_on_c, 0, 37, 0
2, 9669, Note_on_c, 0, 37, 88
2, 9712, Note_on_c, 0, 37, 0
2, 9789, Note_on_c, 0, 49, 88
2, 9828, Note_on_c, 0, 49, 0
2, 9909, Note_on_c, 0, 37, 88
2, 9964, Note_on_c, 0, 37, 0
2, 10029, Note_on_c, 0, 32, 88
2, 10072, Note_on_c, 0, 32, 0
2, 10089, Note_on_c, 0, 37, 88
2, 10130, Note_on_c, 0, 37, 0
2, 10149, Note_on_c, 0, 37, 88
2, 10200, Note_on_c, 0, 37, 0
2, 10269, Note_on_c, 0, 49, 88
2, 10308, Note_on_c, 0, 49, 0
2, 10569, Note_on_c, 0, 39, 88
2, 10620, Note_on_c, 0, 39, 0
2, 10629, Note_on_c, 0, 39, 88
2, 10670, Note_on_c, 0, 39, 0
2, 10749, Note_on_c, 0, 51, 88
2, 10788, Note_on_c, 0, 51, 0
2, 10869, Note_on_c, 0, 39, 88
2, 10922, Note_on_c, 0, 39, 0
2, 10989, Note_on_c, 0, 34, 88
2, 11037, Note_on_c, 0, 34, 0
2, 11049, Note_on_c, 0, 39, 88
2, 11092, Note_on_c, 0, 39, 0
2, 11109, Note_on_c, 0, 39, 88
2, 11143, Note_on_c, 0, 39, 0
2, 11229, Note_on_c, 0, 39, 88
2, 11275, Note_on_c, 0, 39, 0
2, 11529, Note_on_c, 0, 30, 88
2, 11563, Note_on_c, 0, 30, 0
2, 11589, Note_on_c, 0, 30, 88
2, 11637, Note_on_c, 0, 30, 0
2, 11709, Note_on_c, 0, 42, 88
2, 11750, Note_on_c, 0, 42, 0
2, 11829, Note_on_c, 0, 41, 88
2, 11868, Note_on_c, 0, 41, 0
2, 11949, Note_on_c, 0, 37, 88
2, 12009, Note_on_c, 0, 37, 0
2, 12009, Note_on_c, 0, 42, 88
2, 12069, Note_on_c, 0, 41, 88
2, 12074, Note_on_c, 0, 42, 0
2, 12129, Note_on_c, 0, 41, 0
2, 12129, Note_on_c, 0, 37, 88
2, 12184, Note_on_c, 0, 37, 0
2, 12189, Note_on_c, 0, 30, 88
2, 12316, Note_on_c, 0, 30, 0
2, 12429, Note_on_c, 0, 36, 88
2, 12477, Note_on_c, 0, 36, 0
2, 12489, Note_on_c, 0, 37, 88
2, 12525, Note_on_c, 0, 37, 0
2, 12549, Note_on_c, 0, 37, 88
2, 12595, Note_on_c, 0, 37, 0
2, 12669, Note_on_c, 0, 49, 88
2, 12705, Note_on_c, 0, 49, 0
2, 12789, Note_on_c, 0, 48, 88
2, 12825, Note_on_c, 0, 48, 0
2, 12909, Note_on_c, 0, 44, 88
2, 12957, Note_on_c, 0, 44, 0
2, 12969, Note_on_c, 0, 41, 88
2, 13017, Note_on_c, 0, 41, 0
2, 13089, Note_on_c, 0, 39, 88
2, 13135, Note_on_c, 0, 39, 0
2, 13209, Note_on_c, 0, 36, 88
2, 13269, Note_on_c, 0, 36, 0
2, 13269, Note_on_c, 0, 29, 88
2, 13404, Note_on_c, 0, 29, 0
2, 13449, Note_on_c, 0, 30, 88
2, 13485, Note_on_c, 0, 30, 0
2, 13509, Note_on_c, 0, 30, 88
2, 13567, Note_on_c, 0, 30, 0
2, 13629, Note_on_c, 0, 42, 88
2, 13670, Note_on_c, 0, 42, 0
2, 13749, Note_on_c, 0, 41, 88
2, 13780, Note_on_c, 0, 41, 0
2, 13869, Note_on_c, 0, 37, 88
2, 13929, Note_on_c, 0, 30, 88
2, 13934, Note_on_c, 0, 37, 0
2, 13960, Note_on_c, 0, 30, 0
2, 13989, Note_on_c, 0, 30, 88
2, 14042, Note_on_c, 0, 30, 0
2, 14109, Note_on_c, 0, 42, 88
2, 14294, Note_on_c, 0, 42, 0
2, 14409, Note_on_c, 0, 32, 88
2, 14445, Note_on_c, 0, 32, 0
2, 14469, Note_on_c, 0, 32, 88
2, 14524, Note_on_c, 0, 32, 0
2, 14589, Note_on_c, 0, 44, 88
2, 14632, Note_on_c, 0, 44, 0
2, 14709, Note_on_c, 0, 32, 88
2, 14757, Note_on_c, 0, 32, 0
2, 14889, Note_on_c, 0, 33, 88
2, 14928, Note_on_c, 0, 33, 0
2, 14949, Note_on_c, 0, 33, 88
2, 14995, Note_on_c, 0, 33, 0
2, 15069, Note_on_c, 0, 45, 88
2, 15120, Note_on_c, 0, 45, 0
2, 15189, Note_on_c, 0, 33, 88
2, 15242, Note_on_c, 0, 33, 0
2, 15369, Note_on_c, 0, 34, 88
2, 15403, Note_on_c, 0, 34, 0
2, 15429, Note_on_c, 0, 34, 88
2, 15482, Note_on_c, 0, 34, 0
2, 15549, Note_on_c, 0, 46, 88
2, 15588, Note_on_c, 0, 46, 0
2, 15669, Note_on_c, 0, 34, 88
2, 15712, Note_on_c, 0, 34, 0
2, 15849, Note_on_c, 0, 34, 88
2, 15885, Note_on_c, 0, 34, 0
2, 15909, Note_on_c, 0, 34, 88
2, 15945, Note_on_c, 0, 34, 0
2, 16029, Note_on_c, 0, 46, 88
2, 16068, Note_on_c, 0, 46, 0
2, 16329, Note_on_c, 0, 29, 88
2, 16368, Note_on_c, 0, 29, 0
2, 16389, Note_on_c, 0, 29, 88
2, 16440, Note_on_c, 0, 29, 0
2, 16509, Note_on_c, 0, 41, 88
2, 16545, Note_on_c, 0, 41, 0
2, 16629, Note_on_c, 0, 29, 88
2, 16675, Note_on_c, 0, 29, 0
2, 16809, Note_on_c, 0, 29, 88
2, 16840, Note_on_c, 0, 29, 0
2, 16869, Note_on_c, 0, 29, 88
2, 16920, Note_on_c, 0, 29, 0
2, 16989, Note_on_c, 0, 41, 88
2, 17032, Note_on_c, 0, 41, 0
2, 17289, Note_on_c, 0, 32, 88
2, 17325, Note_on_c, 0, 32, 0
2, 17349, Note_on_c, 0, 32, 88
2, 17392, Note_on_c, 0, 32, 0
2, 17469, Note_on_c, 0, 44, 88
2, 17508, Note_on_c, 0, 44, 0
2, 17589, Note_on_c, 0, 32, 88
2, 17640, Note_on_c, 0, 32, 0
2, 17769, Note_on_c, 0, 32, 88
2, 17803, Note_on_c, 0, 32, 0
2, 17829, Note_on_c, 0, 32, 88
2, 17872, Note_on_c, 0, 32, 0
2, 17949, Note_on_c, 0, 44, 88
2, 18004, Note_on_c, 0, 44, 0
2, 18189, Note_on_c, 0, 37, 88
2, 18249, Note_on_c, 0, 39, 88
2, 18254, Note_on_c, 0, 37, 0
2, 18290, Note_on_c, 0, 39, 0
2, 18309, Note_on_c, 0, 39, 88
2, 18345, Note_on_c, 0, 39, 0
2, 18429, Note_on_c, 0, 51, 88
2, 18465, Note_on_c, 0, 51, 0
2, 18549, Note_on_c, 0, 39, 88
2, 18585, Note_on_c, 0, 39, 0
2, 18729, Note_on_c, 0, 39, 88
2, 18765, Note_on_c, 0, 39, 0
2, 18789, Note_on_c, 0, 39, 88
2, 18823, Note_on_c, 0, 39, 0
2, 18909, Note_on_c, 0, 51, 88
2, 18945, Note_on_c, 0, 51, 0
2, 19209, Note_on_c, 0, 30, 88
2, 19255, Note_on_c, 0, 30, 0
2, 19269, Note_on_c, 0, 30, 88
2, 19324, Note_on_c, 0, 30, 0
2, 19389, Note_on_c, 0, 42, 88
2, 19449, Note_on_c, 0, 42, 0
2, 19509, Note_on_c, 0, 41, 88
2, 19579, Note_on_c, 0, 41, 0
2, 19629, Note_on_c, 0, 37, 88
2, 19682, Note_on_c, 0, 37, 0
2, 19689, Note_on_c, 0, 30, 88
2, 19725, Note_on_c, 0, 30, 0
2, 19749, Note_on_c, 0, 30, 88
2, 19807, Note_on_c, 0, 30, 0
2, 19869, Note_on_c, 0, 42, 88
2, 20071, Note_on_c, 0, 42, 0
2, 20169, Note_on_c, 0, 37, 88
2, 20208, Note_on_c, 0, 37, 0
2, 20229, Note_on_c, 0, 37, 88
2, 20280, Note_on_c, 0, 37, 0
2, 20352, Note_on_c, 0, 49, 88
2, 20383, Note_on_c, 0, 49, 0
2, 20469, Note_on_c, 0, 37, 88
2, 20522, Note_on_c, 0, 37, 0
2, 20649, Note_on_c, 0, 41, 88
2, 20685, Note_on_c, 0, 41, 0
2, 20709, Note_on_c, 0, 41, 88
2, 20764, Note_on_c, 0, 41, 0
2, 20832, Note_on_c, 0, 29, 88
2, 21026, Note_on_c, 0, 29, 0
2, 21129, Note_on_c, 0, 30, 88
2, 21168, Note_on_c, 0, 30, 0
2, 21192, Note_on_c, 0, 30, 88
2, 21249, Note_on_c, 0, 30, 0
2, 21312, Note_on_c, 0, 42, 88
2, 21362, Note_on_c, 0, 42, 0
2, 21432, Note_on_c, 0, 30, 88
2, 21494, Note_on_c, 0, 30, 0
2, 21547, Note_on_c, 0, 30, 88
2, 21588, Note_on_c, 0, 30, 0
2, 21609, Note_on_c, 0, 32, 88
2, 21650, Note_on_c, 0, 32, 0
2, 21672, Note_on_c, 0, 32, 88
2, 21722, Note_on_c, 0, 32, 0
2, 21792, Note_on_c, 0, 44, 88
2, 21849, Note_on_c, 0, 44, 0
2, 21912, Note_on_c, 0, 32, 88
2, 21969, Note_on_c, 0, 32, 0
2, 22027, Note_on_c, 0, 32, 88
2, 22089, Note_on_c, 0, 37, 88
2, 22096, Note_on_c, 0, 32, 0
2, 22120, Note_on_c, 0, 37, 0
2, 22152, Note_on_c, 0, 37, 88
2, 22202, Note_on_c, 0, 37, 0
2, 22272, Note_on_c, 0, 49, 88
2, 22334, Note_on_c, 0, 49, 0
2, 22392, Note_on_c, 0, 37, 88
2, 22447, Note_on_c, 0, 37, 0
2, 22507, Note_on_c, 0, 37, 88
2, 22548, Note_on_c, 0, 37, 0
2, 22569, Note_on_c, 0, 34, 88
2, 22605, Note_on_c, 0, 34, 0
2, 22632, Note_on_c, 0, 34, 88
2, 22684, Note_on_c, 0, 34, 0
2, 22752, Note_on_c, 0, 46, 88
2, 22814, Note_on_c, 0, 46, 0
2, 22872, Note_on_c, 0, 34, 88
2, 22939, Note_on_c, 0, 34, 0
2, 22987, Note_on_c, 0, 34, 88
2, 23028, Note_on_c, 0, 34, 0
2, 23049, Note_on_c, 0, 30, 88
2, 23116, Note_on_c, 0, 30, 0
2, 23172, Note_on_c, 0, 30, 88
2, 23248, Note_on_c, 0, 30, 0
2, 23292, Note_on_c, 0, 30, 88
2, 23359, Note_on_c, 0, 30, 0
2, 23412, Note_on_c, 0, 30, 88
2, 23496, Note_on_c, 0, 30, 0
2, 23529, Note_on_c, 0, 32, 88
2, 23608, Note_on_c, 0, 32, 0
2, 23652, Note_on_c, 0, 32, 88
2, 23728, Note_on_c, 0, 32, 0
2, 23772, Note_on_c, 0, 32, 88
2, 23848, Note_on_c, 0, 32, 0
2, 23892, Note_on_c, 0, 32, 88
2, 23964, Note_on_c, 0, 32, 0
2, 24009, Note_on_c, 0, 34, 88
2, 24043, Note_on_c, 0, 34, 0
2, 24072, Note_on_c, 0, 34, 88
2, 24124, Note_on_c, 0, 34, 0
2, 24187, Note_on_c, 0, 46, 88
2, 24240, Note_on_c, 0, 46, 0
2, 24427, Note_on_c, 0, 30, 88
2, 24484, Note_on_c, 0, 30, 0
2, 24489, Note_on_c, 0, 32, 88
2, 24518, Note_on_c, 0, 32, 0
2, 24552, Note_on_c, 0, 32, 88
2, 24612, Note_on_c, 0, 32, 0
2, 24672, Note_on_c, 0, 44, 88
2, 24712, Note_on_c, 0, 44, 0
2, 24907, Note_on_c, 0, 37, 88
2, 24955, Note_on_c, 0, 37, 0
2, 24969, Note_on_c, 0, 39, 88
2, 25012, Note_on_c, 0, 39, 0
2, 25032, Note_on_c, 0, 39, 88
2, 25070, Note_on_c, 0, 39, 0
2, 25152, Note_on_c, 0, 51, 88
2, 25188, Note_on_c, 0, 51, 0
2, 25272, Note_on_c, 0, 30, 88
2, 25317, Note_on_c, 0, 30, 0
2, 25392, Note_on_c, 0, 32, 88
2, 25437, Note_on_c, 0, 32, 0
2, 25449, Note_on_c, 0, 34, 88
2, 25483, Note_on_c, 0, 34, 0
2, 25512, Note_on_c, 0, 34, 88
2, 25567, Note_on_c, 0, 34, 0
2, 25627, Note_on_c, 0, 46, 88
2, 25680, Note_on_c, 0, 46, 0
2, 25929, Note_on_c, 0, 32, 88
2, 25968, Note_on_c, 0, 32, 0
2, 25992, Note_on_c, 0, 32, 88
2, 26037, Note_on_c, 0, 32, 0
2, 26107, Note_on_c, 0, 44, 88
2, 26155, Note_on_c, 0, 44, 0
2, 26409, Note_on_c, 0, 39, 88
2, 26450, Note_on_c, 0, 39, 0
2, 26472, Note_on_c, 0, 39, 88
2, 26510, Note_on_c, 0, 39, 0
2, 26592, Note_on_c, 0, 51, 88
2, 26628, Note_on_c, 0, 51, 0
2, 26712, Note_on_c, 0, 30, 88
2, 26757, Note_on_c, 0, 30, 0
2, 26832, Note_on_c, 0, 32, 88
2, 26877, Note_on_c, 0, 32, 0
2, 26889, Note_on_c, 0, 34, 88
2, 26930, Note_on_c, 0, 34, 0
2, 26952, Note_on_c, 0, 34, 88
2, 26995, Note_on_c, 0, 34, 0
2, 27067, Note_on_c, 0, 46, 88
2, 27103, Note_on_c, 0, 46, 0
2, 27369, Note_on_c, 0, 32, 88
2, 27400, Note_on_c, 0, 32, 0
2, 27432, Note_on_c, 0, 32, 88
2, 27482, Note_on_c, 0, 32, 0
2, 27552, Note_on_c, 0, 44, 88
2, 27585, Note_on_c, 0, 44, 0
2, 27849, Note_on_c, 0, 39, 88
2, 27890, Note_on_c, 0, 39, 0
2, 27912, Note_on_c, 0, 39, 88
2, 27950, Note_on_c, 0, 39, 0
2, 28032, Note_on_c, 0, 51, 88
2, 28068, Note_on_c, 0, 51, 0
2, 28152, Note_on_c, 0, 30, 88
2, 28197, Note_on_c, 0, 30, 0
2, 28272, Note_on_c, 0, 32, 88
2, 28317, Note_on_c, 0, 32, 0
2, 28329, Note_on_c, 0, 34, 88
2, 28370, Note_on_c, 0, 34, 0
2, 28392, Note_on_c, 0, 34, 88
2, 28435, Note_on_c, 0, 34, 0
2, 28507, Note_on_c, 0, 46, 88
2, 28543, Note_on_c, 0, 46, 0
2, 28809, Note_on_c, 0, 32, 88
2, 28840, Note_on_c, 0, 32, 0
2, 28867, Note_on_c, 0, 32, 88
2, 28922, Note_on_c, 0, 32, 0
2, 28992, Note_on_c, 0, 44, 88
2, 29025, Note_on_c, 0, 44, 0
2, 29289, Note_on_c, 0, 39, 88
2, 29330, Note_on_c, 0, 39, 0
2, 29352, Note_on_c, 0, 39, 88
2, 29390, Note_on_c, 0, 39, 0
2, 29472, Note_on_c, 0, 51, 88
2, 29508, Note_on_c, 0, 51, 0
2, 29592, Note_on_c, 0, 30, 88
2, 29637, Note_on_c, 0, 30, 0
2, 29712, Note_on_c, 0, 32, 88
2, 29757, Note_on_c, 0, 32, 0
2, 29769, Note_on_c, 0, 34, 88
2, 29803, Note_on_c, 0, 34, 0
2, 29827, Note_on_c, 0, 34, 88
2, 29884, Note_on_c, 0, 34, 0
2, 29952, Note_on_c, 0, 46, 88
2, 30000, Note_on_c, 0, 46, 0
2, 30187, Note_on_c, 0, 30, 88
2, 30249, Note_on_c, 0, 30, 0
2, 30249, Note_on_c, 0, 32, 88
2, 30278, Note_on_c, 0, 32, 0
2, 30307, Note_on_c, 0, 32, 88
2, 30367, Note_on_c, 0, 32, 0
2, 30432, Note_on_c, 0, 44, 88
2, 30470, Note_on_c, 0, 44, 0
2, 30667, Note_on_c, 0, 37, 88
2, 30715, Note_on_c, 0, 37, 0
2, 30729, Note_on_c, 0, 39, 88
2, 30770, Note_on_c, 0, 39, 0
2, 30792, Note_on_c, 0, 39, 88
2, 30830, Note_on_c, 0, 39, 0
2, 30909, Note_on_c, 0, 51, 88
2, 30948, Note_on_c, 0, 51, 0
2, 31032, Note_on_c, 0, 30, 88
2, 31077, Note_on_c, 0, 30, 0
2, 31152, Note_on_c, 0, 32, 88
2, 31197, Note_on_c, 0, 32, 0
2, 31209, Note_on_c, 0, 34, 88
2, 31243, Note_on_c, 0, 34, 0
2, 31267, Note_on_c, 0, 34, 88
2, 31324, Note_on_c, 0, 34, 0
2, 31392, Note_on_c, 0, 46, 88
2, 31440, Note_on_c, 0, 46, 0
2, 31689, Note_on_c, 0, 32, 88
2, 31720, Note_on_c, 0, 32, 0
2, 31747, Note_on_c, 0, 32, 88
2, 31795, Note_on_c, 0, 32, 0
2, 31867, Note_on_c, 0, 44, 88
2, 31898, Note_on_c, 0, 44, 0
2, 31987, Note_on_c, 0, 32, 88
2, 32035, Note_on_c, 0, 32, 0
2, 32169, Note_on_c, 0, 32, 88
2, 32200, Note_on_c, 0, 32, 0
2, 32227, Note_on_c, 0, 32, 88
2, 32270, Note_on_c, 0, 32, 0
2, 32347, Note_on_c, 0, 44, 88
2, 32383, Note_on_c, 0, 44, 0
2, 32649, Note_on_c, 0, 29, 88
2, 32690, Note_on_c, 0, 29, 0
2, 32707, Note_on_c, 0, 29, 88
2, 32745, Note_on_c, 0, 29, 0
2, 32827, Note_on_c, 0, 41, 88
2, 32870, Note_on_c, 0, 41, 0
2, 32947, Note_on_c, 0, 29, 88
2, 32995, Note_on_c, 0, 29, 0
2, 33127, Note_on_c, 0, 29, 88
2, 33168, Note_on_c, 0, 29, 0
2, 33187, Note_on_c, 0, 29, 88
2, 33232, Note_on_c, 0, 29, 0
2, 33307, Note_on_c, 0, 41, 88
2, 33355, Note_on_c, 0, 41, 0
2, 33547, Note_on_c, 0, 36, 88
2, 33604, Note_on_c, 0, 36, 0
2, 33609, Note_on_c, 0, 37, 88
2, 33657, Note_on_c, 0, 37, 0
2, 33667, Note_on_c, 0, 37, 88
2, 33712, Note_on_c, 0, 37, 0
2, 33787, Note_on_c, 0, 49, 88
2, 33828, Note_on_c, 0, 49, 0
2, 33907, Note_on_c, 0, 37, 88
2, 33964, Note_on_c, 0, 37, 0
2, 34027, Note_on_c, 0, 32, 88
2, 34072, Note_on_c, 0, 32, 0
2, 34087, Note_on_c, 0, 37, 88
2, 34130, Note_on_c, 0, 37, 0
2, 34147, Note_on_c, 0, 37, 88
2, 34202, Note_on_c, 0, 37, 0
2, 34267, Note_on_c, 0, 49, 88
2, 34308, Note_on_c, 0, 49, 0
2, 34567, Note_on_c, 0, 39, 88
2, 34620, Note_on_c, 0, 39, 0
2, 34627, Note_on_c, 0, 39, 88
2, 34670, Note_on_c, 0, 39, 0
2, 34752, Note_on_c, 0, 51, 88
2, 34785, Note_on_c, 0, 51, 0
2, 34867, Note_on_c, 0, 39, 88
2, 34922, Note_on_c, 0, 39, 0
2, 34987, Note_on_c, 0, 34, 88
2, 35037, Note_on_c, 0, 34, 0
2, 35047, Note_on_c, 0, 39, 88
2, 35092, Note_on_c, 0, 39, 0
2, 35107, Note_on_c, 0, 39, 88
2, 35140, Note_on_c, 0, 39, 0
2, 35227, Note_on_c, 0, 39, 88
2, 35272, Note_on_c, 0, 39, 0
2, 35527, Note_on_c, 0, 30, 88
2, 35563, Note_on_c, 0, 30, 0
2, 35587, Note_on_c, 0, 30, 88
2, 35635, Note_on_c, 0, 30, 0
2, 35707, Note_on_c, 0, 42, 88
2, 35750, Note_on_c, 0, 42, 0
2, 35827, Note_on_c, 0, 41, 88
2, 35868, Note_on_c, 0, 41, 0
2, 35947, Note_on_c, 0, 37, 88
2, 36007, Note_on_c, 0, 42, 88
2, 36009, Note_on_c, 0, 37, 0
2, 36067, Note_on_c, 0, 41, 88
2, 36076, Note_on_c, 0, 42, 0
2, 36127, Note_on_c, 0, 37, 88
2, 36129, Note_on_c, 0, 41, 0
2, 36184, Note_on_c, 0, 37, 0
2, 36187, Note_on_c, 0, 30, 88
2, 36319, Note_on_c, 0, 30, 0
2, 36427, Note_on_c, 0, 36, 88
2, 36477, Note_on_c, 0, 36, 0
2, 36487, Note_on_c, 0, 37, 88
2, 36523, Note_on_c, 0, 37, 0
2, 36547, Note_on_c, 0, 37, 88
2, 36595, Note_on_c, 0, 37, 0
2, 36667, Note_on_c, 0, 49, 88
2, 36708, Note_on_c, 0, 49, 0
2, 36787, Note_on_c, 0, 48, 88
2, 36825, Note_on_c, 0, 48, 0
2, 36907, Note_on_c, 0, 44, 88
2, 36957, Note_on_c, 0, 44, 0
2, 36967, Note_on_c, 0, 41, 88
2, 37017, Note_on_c, 0, 41, 0
2, 37087, Note_on_c, 0, 39, 88
2, 37135, Note_on_c, 0, 39, 0
2, 37207, Note_on_c, 0, 36, 88
2, 37267, Note_on_c, 0, 29, 88
2, 37272, Note_on_c, 0, 36, 0
2, 37404, Note_on_c, 0, 29, 0
2, 37447, Note_on_c, 0, 30, 88
2, 37483, Note_on_c, 0, 30, 0
2, 37507, Note_on_c, 0, 30, 88
2, 37567, Note_on_c, 0, 30, 0
2, 37627, Note_on_c, 0, 42, 88
2, 37670, Note_on_c, 0, 42, 0
2, 37747, Note_on_c, 0, 41, 88
2, 37778, Note_on_c, 0, 41, 0
2, 37867, Note_on_c, 0, 37, 88
2, 37927, Note_on_c, 0, 30, 88
2, 37934, Note_on_c, 0, 37, 0
2, 37958, Note_on_c, 0, 30, 0
2, 37987, Note_on_c, 0, 30, 88
2, 38042, Note_on_c, 0, 30, 0
2, 38107, Note_on_c, 0, 42, 88
2, 38292, Note_on_c, 0, 42, 0
2, 38407, Note_on_c, 0, 32, 88
2, 38448, Note_on_c, 0, 32, 0
2, 38467, Note_on_c, 0, 32, 88
2, 38527, Note_on_c, 0, 32, 0
2, 38587, Note_on_c, 0, 44, 88
2, 38632, Note_on_c, 0, 44, 0
2, 38707, Note_on_c, 0, 32, 88
2, 38757, Note_on_c, 0, 32, 0
2, 38887, Note_on_c, 0, 33, 88
2, 38928, Note_on_c, 0, 33, 0
2, 38947, Note_on_c, 0, 33, 88
2, 38997, Note_on_c, 0, 33, 0
2, 39067, Note_on_c, 0, 45, 88
2, 39120, Note_on_c, 0, 45, 0
2, 39187, Note_on_c, 0, 33, 88
2, 39242, Note_on_c, 0, 33, 0
2, 39367, Note_on_c, 0, 34, 88
2, 39403, Note_on_c, 0, 34, 0
2, 39427, Note_on_c, 0, 34, 88
2, 39482, Note_on_c, 0, 34, 0
2, 39547, Note_on_c, 0, 46, 88
2, 39588, Note_on_c, 0, 46, 0
2, 39667, Note_on_c, 0, 34, 88
2, 39712, Note_on_c, 0, 34, 0
2, 39847, Note_on_c, 0, 34, 88
2, 39885, Note_on_c, 0, 34, 0
2, 39907, Note_on_c, 0, 34, 88
2, 39945, Note_on_c, 0, 34, 0
2, 40027, Note_on_c, 0, 46, 88
2, 40068, Note_on_c, 0, 46, 0
2, 40327, Note_on_c, 0, 29, 88
2, 40368, Note_on_c, 0, 29, 0
2, 40387, Note_on_c, 0, 29, 88
2, 40440, Note_on_c, 0, 29, 0
2, 40507, Note_on_c, 0, 41, 88
2, 40543, Note_on_c, 0, 41, 0
2, 40627, Note_on_c, 0, 29, 88
2, 40675, Note_on_c, 0, 29, 0
2, 40807, Note_on_c, 0, 29, 88
2, 40838, Note_on_c, 0, 29, 0
2, 40867, Note_on_c, 0, 29, 88
2, 40920, Note_on_c, 0, 29, 0
2, 40987, Note_on_c, 0, 41, 88
2, 41032, Note_on_c, 0, 41, 0
2, 41287, Note_on_c, 0, 32, 88
2, 41328, Note_on_c, 0, 32, 0
2, 41347, Note_on_c, 0, 32, 88
2, 41392, Note_on_c, 0, 32, 0
2, 41467, Note_on_c, 0, 44, 88
2, 41508, Note_on_c, 0, 44, 0
2, 41587, Note_on_c, 0, 32, 88
2, 41640, Note_on_c, 0, 32, 0
2, 41767, Note_on_c, 0, 32, 88
2, 41803, Note_on_c, 0, 32, 0
2, 41827, Note_on_c, 0, 32, 88
2, 41872, Note_on_c, 0, 32, 0
2, 41947, Note_on_c, 0, 44, 88
2, 42007, Note_on_c, 0, 44, 0
2, 42187, Note_on_c, 0, 37, 88
2, 42247, Note_on_c, 0, 39, 88
2, 42256, Note_on_c, 0, 37, 0
2, 42290, Note_on_c, 0, 39, 0
2, 42307, Note_on_c, 0, 39, 88
2, 42343, Note_on_c, 0, 39, 0
2, 42432, Note_on_c, 0, 51, 88
2, 42465, Note_on_c, 0, 51, 0
2, 42547, Note_on_c, 0, 39, 88
2, 42583, Note_on_c, 0, 39, 0
2, 42727, Note_on_c, 0, 39, 88
2, 42763, Note_on_c, 0, 39, 0
2, 42787, Note_on_c, 0, 39, 88
2, 42823, Note_on_c, 0, 39, 0
2, 42912, Note_on_c, 0, 51, 88
2, 42945, Note_on_c, 0, 51, 0
2, 43207, Note_on_c, 0, 30, 88
2, 43255, Note_on_c, 0, 30, 0
2, 43267, Note_on_c, 0, 30, 88
2, 43324, Note_on_c, 0, 30, 0
2, 43387, Note_on_c, 0, 42, 88
2, 43452, Note_on_c, 0, 42, 0
2, 43507, Note_on_c, 0, 41, 88
2, 43576, Note_on_c, 0, 41, 0
2, 43627, Note_on_c, 0, 37, 88
2, 43682, Note_on_c, 0, 37, 0
2, 43687, Note_on_c, 0, 30, 88
2, 43725, Note_on_c, 0, 30, 0
2, 43747, Note_on_c, 0, 30, 88
2, 43807, Note_on_c, 0, 30, 0
2, 43867, Note_on_c, 0, 42, 88
2, 44071, Note_on_c, 0, 42, 0
2, 44167, Note_on_c, 0, 37, 88
2, 44210, Note_on_c, 0, 37, 0
2, 44227, Note_on_c, 0, 37, 88
2, 44280, Note_on_c, 0, 37, 0
2, 44347, Note_on_c, 0, 49, 88
2, 44380, Note_on_c, 0, 49, 0
2, 44467, Note_on_c, 0, 37, 88
2, 44522, Note_on_c, 0, 37, 0
2, 44649, Note_on_c, 0, 41, 88
2, 44683, Note_on_c, 0, 41, 0
2, 44707, Note_on_c, 0, 41, 88
2, 44764, Note_on_c, 0, 41, 0
2, 44827, Note_on_c, 0, 29, 88
2, 45026, Note_on_c, 0, 29, 0
2, 45129, Note_on_c, 0, 30, 88
2, 45170, Note_on_c, 0, 30, 0
2, 45187, Note_on_c, 0, 30, 88
2, 45252, Note_on_c, 0, 30, 0
2, 45307, Note_on_c, 0, 42, 88
2, 45362, Note_on_c, 0, 42, 0
2, 45427, Note_on_c, 0, 30, 88
2, 45492, Note_on_c, 0, 30, 0
2, 45547, Note_on_c, 0, 30, 88
2, 45590, Note_on_c, 0, 30, 0
2, 45607, Note_on_c, 0, 32, 88
2, 45650, Note_on_c, 0, 32, 0
2, 45667, Note_on_c, 0, 32, 88
2, 45722, Note_on_c, 0, 32, 0
2, 45787, Note_on_c, 0, 44, 88
2, 45847, Note_on_c, 0, 44, 0
2, 45907, Note_on_c, 0, 32, 88
2, 45972, Note_on_c, 0, 32, 0
2, 46027, Note_on_c, 0, 32, 88
2, 46089, Note_on_c, 0, 37, 88
2, 46096, Note_on_c, 0, 32, 0
2, 46120, Note_on_c, 0, 37, 0
2, 46147, Note_on_c, 0, 37, 88
2, 46202, Note_on_c, 0, 37, 0
2, 46267, Note_on_c, 0, 49, 88
2, 46332, Note_on_c, 0, 49, 0
2, 46387, Note_on_c, 0, 37, 88
2, 46447, Note_on_c, 0, 37, 0
2, 46507, Note_on_c, 0, 37, 88
2, 46548, Note_on_c, 0, 37, 0
2, 46569, Note_on_c, 0, 34, 88
2, 46603, Note_on_c, 0, 34, 0
2, 46627, Note_on_c, 0, 34, 88
2, 46684, Note_on_c, 0, 34, 0
2, 46747, Note_on_c, 0, 46, 88
2, 46812, Note_on_c, 0, 46, 0
2, 46867, Note_on_c, 0, 34, 88
2, 46939, Note_on_c, 0, 34, 0
2, 46987, Note_on_c, 0, 34, 88
2, 47025, Note_on_c, 0, 34, 0
2, 47049, Note_on_c, 0, 30, 88
2, 47116, Note_on_c, 0, 30, 0
2, 47167, Note_on_c, 0, 30, 88
2, 47248, Note_on_c, 0, 30, 0
2, 47287, Note_on_c, 0, 30, 88
2, 47361, Note_on_c, 0, 30, 0
2, 47407, Note_on_c, 0, 30, 88
2, 47496, Note_on_c, 0, 30, 0
2, 47529, Note_on_c, 0, 32, 88
2, 47608, Note_on_c, 0, 32, 0
2, 47647, Note_on_c, 0, 32, 88
2, 47728, Note_on_c, 0, 32, 0
2, 47767, Note_on_c, 0, 32, 88
2, 47848, Note_on_c, 0, 32, 0
2, 47887, Note_on_c, 0, 32, 88
2, 47964, Note_on_c, 0, 32, 0
2, 48009, Note_on_c, 0, 34, 88
2, 48043, Note_on_c, 0, 34, 0
2, 48067, Note_on_c, 0, 34, 88
2, 48124, Note_on_c, 0, 34, 0
2, 48187, Note_on_c, 0, 46, 88
2, 48237, Note_on_c, 0, 46, 0
2, 48427, Note_on_c, 0, 30, 88
2, 48484, Note_on_c, 0, 30, 0
2, 48487, Note_on_c, 0, 32, 88
2, 48520, Note_on_c, 0, 32, 0
2, 48547, Note_on_c, 0, 32, 88
2, 48607, Note_on_c, 0, 32, 0
2, 48667, Note_on_c, 0, 44, 88
2, 48712, Note_on_c, 0, 44, 0
2, 48907, Note_on_c, 0, 37, 88
2, 48955, Note_on_c, 0, 37, 0
2, 48969, Note_on_c, 0, 39, 88
2, 49012, Note_on_c, 0, 39, 0
2, 49027, Note_on_c, 0, 39, 88
2, 49070, Note_on_c, 0, 39, 0
2, 49147, Note_on_c, 0, 51, 88
2, 49188, Note_on_c, 0, 51, 0
2, 49267, Note_on_c, 0, 30, 88
2, 49317, Note_on_c, 0, 30, 0
2, 49387, Note_on_c, 0, 32, 88
2, 49437, Note_on_c, 0, 32, 0
2, 49449, Note_on_c, 0, 34, 88
2, 49483, Note_on_c, 0, 34, 0
2, 49507, Note_on_c, 0, 34, 88
2, 49564, Note_on_c, 0, 34, 0
2, 49627, Note_on_c, 0, 46, 88
2, 49680, Note_on_c, 0, 46, 0
2, 49927, Note_on_c, 0, 32, 88
2, 49968, Note_on_c, 0, 32, 0
2, 49987, Note_on_c, 0, 32, 88
2, 50037, Note_on_c, 0, 32, 0
2, 50107, Note_on_c, 0, 44, 88
2, 50155, Note_on_c, 0, 44, 0
2, 50409, Note_on_c, 0, 39, 88
2, 50452, Note_on_c, 0, 39, 0
2, 50467, Note_on_c, 0, 39, 88
2, 50510, Note_on_c, 0, 39, 0
2, 50592, Note_on_c, 0, 51, 88
2, 50628, Note_on_c, 0, 51, 0
2, 50707, Note_on_c, 0, 30, 88
2, 50757, Note_on_c, 0, 30, 0
2, 50827, Note_on_c, 0, 32, 88
2, 50877, Note_on_c, 0, 32, 0
2, 50889, Note_on_c, 0, 34, 88
2, 50928, Note_on_c, 0, 34, 0
2, 50947, Note_on_c, 0, 34, 88
2, 50995, Note_on_c, 0, 34, 0
2, 51067, Note_on_c, 0, 46, 88
2, 51103, Note_on_c, 0, 46, 0
2, 51367, Note_on_c, 0, 32, 88
2, 51400, Note_on_c, 0, 32, 0
2, 51427, Note_on_c, 0, 32, 88
2, 51482, Note_on_c, 0, 32, 0
2, 51547, Note_on_c, 0, 44, 88
2, 51583, Note_on_c, 0, 44, 0
2, 51849, Note_on_c, 0, 39, 88
2, 51892, Note_on_c, 0, 39, 0
2, 51907, Note_on_c, 0, 39, 88
2, 51950, Note_on_c, 0, 39, 0
2, 52027, Note_on_c, 0, 51, 88
2, 52068, Note_on_c, 0, 51, 0
2, 52147, Note_on_c, 0, 30, 88
2, 52197, Note_on_c, 0, 30, 0
2, 52267, Note_on_c, 0, 32, 88
2, 52317, Note_on_c, 0, 32, 0
2, 52329, Note_on_c, 0, 34, 88
2, 52368, Note_on_c, 0, 34, 0
2, 52387, Note_on_c, 0, 34, 88
2, 52435, Note_on_c, 0, 34, 0
2, 52507, Note_on_c, 0, 46, 88
2, 52543, Note_on_c, 0, 46, 0
2, 52809, Note_on_c, 0, 32, 88
2, 52840, Note_on_c, 0, 32, 0
2, 52867, Note_on_c, 0, 32, 88
2, 52922, Note_on_c, 0, 32, 0
2, 52987, Note_on_c, 0, 44, 88
2, 53023, Note_on_c, 0, 44, 0
2, 53289, Note_on_c, 0, 39, 88
2, 53332, Note_on_c, 0, 39, 0
2, 53347, Note_on_c, 0, 39, 88
2, 53390, Note_on_c, 0, 39, 0
2, 53467, Note_on_c, 0, 51, 88
2, 53508, Note_on_c, 0, 51, 0
2, 53587, Note_on_c, 0, 30, 88
2, 53637, Note_on_c, 0, 30, 0
2, 53707, Note_on_c, 0, 32, 88
2, 53757, Note_on_c, 0, 32, 0
2, 53769, Note_on_c, 0, 34, 88
2, 53803, Note_on_c, 0, 34, 0
2, 53827, Note_on_c, 0, 34, 88
2, 53887, Note_on_c, 0, 34, 0
2, 53947, Note_on_c, 0, 46, 88
2, 54000, Note_on_c, 0, 46, 0
2, 54187, Note_on_c, 0, 30, 88
2, 54249, Note_on_c, 0, 30, 0
2, 54249, Note_on_c, 0, 32, 88
2, 54280, Note_on_c, 0, 32, 0
2, 54307, Note_on_c, 0, 32, 88
2, 54367, Note_on_c, 0, 32, 0
2, 54427, Note_on_c, 0, 44, 88
2, 54470, Note_on_c, 0, 44, 0
2, 54667, Note_on_c, 0, 37, 88
2, 54717, Note_on_c, 0, 37, 0
2, 54729, Note_on_c, 0, 39, 88
2, 54772, Note_on_c, 0, 39, 0
2, 54787, Note_on_c, 0, 39, 88
2, 54830, Note_on_c, 0, 39, 0
2, 54907, Note_on_c, 0, 51, 88
2, 54948, Note_on_c, 0, 51, 0
2, 55027, Note_on_c, 0, 30, 88
2, 55077, Note_on_c, 0, 30, 0
2, 55147, Note_on_c, 0, 32, 88
2, 55197, Note_on_c, 0, 32, 0
2, 55209, Note_on_c, 0, 34, 88
2, 55243, Note_on_c, 0, 34, 0
2, 55267, Note_on_c, 0, 34, 88
2, 55324, Note_on_c, 0, 34, 0
2, 55387, Note_on_c, 0, 46, 88
2, 55440, Note_on_c, 0, 46, 0
2, 55689, Note_on_c, 0, 32, 88
2, 55728, Note_on_c, 0, 32, 0
2, 55747, Note_on_c, 0, 32, 88
2, 55797, Note_on_c, 0, 32, 0
2, 55867, Note_on_c, 0, 44, 88
2, 55915, Note_on_c, 0, 44, 0
2, 56167, Note_on_c, 0, 39, 88
2, 56210, Note_on_c, 0, 39, 0
2, 56227, Note_on_c, 0, 39, 88
2, 56272, Note_on_c, 0, 39, 0
2, 56347, Note_on_c, 0, 51, 88
2, 56388, Note_on_c, 0, 51, 0
2, 56467, Note_on_c, 0, 30, 88
2, 56517, Note_on_c, 0, 30, 0
2, 56587, Note_on_c, 0, 32, 88
2, 56637, Note_on_c, 0, 32, 0
2, 56652, Note_on_c, 0, 34, 88
2, 56688, Note_on_c, 0, 34, 0
2, 56707, Note_on_c, 0, 34, 88
2, 56755, Note_on_c, 0, 34, 0
2, 56827, Note_on_c, 0, 46, 88
2, 56863, Note_on_c, 0, 46, 0
2, 57129, Note_on_c, 0, 32, 88
2, 57160, Note_on_c, 0, 32, 0
2, 57187, Note_on_c, 0, 32, 88
2, 57242, Note_on_c, 0, 32, 0
2, 57307, Note_on_c, 0, 44, 88
2, 57343, Note_on_c, 0, 44, 0
2, 57609, Note_on_c, 0, 39, 88
2, 57650, Note_on_c, 0, 39, 0
2, 57667, Note_on_c, 0, 39, 88
2, 57710, Note_on_c, 0, 39, 0
2, 57787, Note_on_c, 0, 51, 88
2, 57828, Note_on_c, 0, 51, 0
2, 57907, Note_on_c, 0, 30, 88
2, 57957, Note_on_c, 0, 30, 0
2, 58027, Note_on_c, 0, 32, 88
2, 58077, Note_on_c, 0, 32, 0
2, 58092, Note_on_c, 0, 34, 88
2, 58128, Note_on_c, 0, 34, 0
2, 58147, Note_on_c, 0, 34, 88
2, 58195, Note_on_c, 0, 34, 0
2, 58267, Note_on_c, 0, 46, 88
2, 58303, Note_on_c, 0, 46, 0
2, 58569, Note_on_c, 0, 32, 88
2, 58608, Note_on_c, 0, 32, 0
2, 58627, Note_on_c, 0, 32, 88
2, 58677, Note_on_c, 0, 32, 0
2, 58747, Note_on_c, 0, 44, 88
2, 58795, Note_on_c, 0, 44, 0
2, 59047, Note_on_c, 0, 39, 88
2, 59090, Note_on_c, 0, 39, 0
2, 59107, Note_on_c, 0, 39, 88
2, 59150, Note_on_c, 0, 39, 0
2, 59227, Note_on_c, 0, 51, 88
2, 59268, Note_on_c, 0, 51, 0
2, 59347, Note_on_c, 0, 30, 88
2, 59397, Note_on_c, 0, 30, 0
2, 59467, Note_on_c, 0, 32, 88
2, 59517, Note_on_c, 0, 32, 0
2, 59532, Note_on_c, 0, 34, 88
2, 59568, Note_on_c, 0, 34, 0
2, 59587, Note_on_c, 0, 34, 88
2, 59635, Note_on_c, 0, 34, 0
2, 59707, Note_on_c, 0, 46, 88
2, 59743, Note_on_c, 0, 46, 0
2, 60012, Note_on_c, 0, 32, 88
2, 60040, Note_on_c, 0, 32, 0
2, 60069, Note_on_c, 0, 32, 88
2, 60122, Note_on_c, 0, 32, 0
2, 60187, Note_on_c, 0, 44, 88
2, 60223, Note_on_c, 0, 44, 0
2, 60487, Note_on_c, 0, 39, 88
2, 60530, Note_on_c, 0, 39, 0
2, 60547, Note_on_c, 0, 39, 88
2, 60590, Note_on_c, 0, 39, 0
2, 60667, Note_on_c, 0, 51, 88
2, 60708, Note_on_c, 0, 51, 0
2, 60787, Note_on_c, 0, 30, 88
2, 60837, Note_on_c, 0, 30, 0
2, 60907, Note_on_c, 0, 32, 88
2, 60957, Note_on_c, 0, 32, 0
2, 60972, Note_on_c, 0, 34, 88
2, 61008, Note_on_c, 0, 34, 0
2, 61027, Note_on_c, 0, 34, 88
2, 61075, Note_on_c, 0, 34, 0
2, 61147, Note_on_c, 0, 46, 88
2, 61183, Note_on_c, 0, 46, 0
2, 61449, Note_on_c, 0, 32, 88
2, 61488, Note_on_c, 0, 32, 0
2, 61507, Note_on_c, 0, 32, 88
2, 61560, Note_on_c, 0, 32, 0
2, 61627, Note_on_c, 0, 44, 88
2, 61675, Note_on_c, 0, 44, 0
2, 61929, Note_on_c, 0, 39, 88
2, 61970, Note_on_c, 0, 39, 0
2, 61987, Note_on_c, 0, 39, 88
2, 62030, Note_on_c, 0, 39, 0
2, 62107, Note_on_c, 0, 51, 88
2, 62148, Note_on_c, 0, 51, 0
2, 62227, Note_on_c, 0, 30, 88
2, 62277, Note_on_c, 0, 30, 0
2, 62347, Note_on_c, 0, 32, 88
2, 62397, Note_on_c, 0, 32, 0
2, 62412, Note_on_c, 0, 34, 88
2, 62448, Note_on_c, 0, 34, 0
2, 62467, Note_on_c, 0, 34, 88
2, 62512, Note_on_c, 0, 34, 0
2, 62587, Note_on_c, 0, 46, 88
2, 62623, Note_on_c, 0, 46, 0
2, 62889, Note_on_c, 0, 32, 88
2, 62920, Note_on_c, 0, 32, 0
2, 62947, Note_on_c, 0, 32, 88
2, 63002, Note_on_c, 0, 32, 0
2, 63067, Note_on_c, 0, 44, 88
2, 63103, Note_on_c, 0, 44, 0
2, 63369, Note_on_c, 0, 39, 88
2, 63410, Note_on_c, 0, 39, 0
2, 63427, Note_on_c, 0, 39, 88
2, 63470, Note_on_c, 0, 39, 0
2, 63547, Note_on_c, 0, 51, 88
2, 63588, Note_on_c, 0, 51, 0
2, 63667, Note_on_c, 0, 30, 88
2, 63717, Note_on_c, 0, 30, 0
2, 63787, Note_on_c, 0, 32, 88
2, 63837, Note_on_c, 0, 32, 0
2, 63852, Note_on_c, 0, 34, 88
2, 63888, Note_on_c, 0, 34, 0
2, 63907, Note_on_c, 0, 34, 88
2, 63952, Note_on_c, 0, 34, 0
2, 64027, Note_on_c, 0, 46, 88
2, 64063, Note_on_c, 0, 46, 0
2, 64324, Control_c, 0, 64, 0
2, 64324, End_track
3, 0, Start_track
3, 0, MIDI_port, 0
3, 0, Title_t, "Synth"
3, 9, Program_c, 1, 100
3, 9, Note_on_c, 1, 65, 64
3, 28, Note_on_c, 1, 65, 0
3, 69, Note_on_c, 1, 70, 64
3, 84, Note_on_c, 1, 70, 0
3, 129, Note_on_c, 1, 72, 64
3, 148, Note_on_c, 1, 72, 0
3, 489, Note_on_c, 1, 72, 64
3, 516, Note_on_c, 1, 72, 0
3, 669, Note_on_c, 1, 65, 64
3, 688, Note_on_c, 1, 65, 0
3, 969, Note_on_c, 1, 70, 64
3, 993, Note_on_c, 1, 70, 0
3, 1149, Note_on_c, 1, 63, 64
3, 1168, Note_on_c, 1, 63, 0
3, 1449, Note_on_c, 1, 65, 64
3, 1473, Note_on_c, 1, 65, 0
3, 1509, Note_on_c, 1, 70, 64
3, 1524, Note_on_c, 1, 70, 0
3, 1569, Note_on_c, 1, 72, 64
3, 1588, Note_on_c, 1, 72, 0
3, 2409, Note_on_c, 1, 70, 64
3, 2433, Note_on_c, 1, 70, 0
3, 2589, Note_on_c, 1, 63, 64
3, 2608, Note_on_c, 1, 63, 0
3, 2889, Note_on_c, 1, 65, 64
3, 2913, Note_on_c, 1, 65, 0
3, 2949, Note_on_c, 1, 70, 64
3, 2964, Note_on_c, 1, 70, 0
3, 3009, Note_on_c, 1, 72, 64
3, 3028, Note_on_c, 1, 72, 0
3, 3367, Note_on_c, 1, 72, 64
3, 3396, Note_on_c, 1, 72, 0
3, 3549, Note_on_c, 1, 65, 64
3, 3568, Note_on_c, 1, 65, 0
3, 3849, Note_on_c, 1, 70, 64
3, 3873, Note_on_c, 1, 70, 0
3, 4029, Note_on_c, 1, 63, 64
3, 4048, Note_on_c, 1, 63, 0
3, 4329, Note_on_c, 1, 65, 64
3, 4353, Note_on_c, 1, 65, 0
3, 4389, Note_on_c, 1, 70, 64
3, 4404, Note_on_c, 1, 70, 0
3, 4449, Note_on_c, 1, 72, 64
3, 4468, Note_on_c, 1, 72, 0
3, 5289, Note_on_c, 1, 70, 64
3, 5316, Note_on_c, 1, 70, 0
3, 5469, Note_on_c, 1, 63, 64
3, 5488, Note_on_c, 1, 63, 0
3, 5769, Note_on_c, 1, 65, 64
3, 5791, Note_on_c, 1, 65, 0
3, 5829, Note_on_c, 1, 70, 64
3, 5844, Note_on_c, 1, 70, 0
3, 5889, Note_on_c, 1, 72, 64
3, 5908, Note_on_c, 1, 72, 0
3, 6247, Note_on_c, 1, 72, 64
3, 6278, Note_on_c, 1, 72, 0
3, 6429, Note_on_c, 1, 65, 64
3, 6448, Note_on_c, 1, 65, 0
3, 6732, Note_on_c, 1, 70, 64
3, 6753, Note_on_c, 1, 70, 0
3, 6909, Note_on_c, 1, 63, 64
3, 6928, Note_on_c, 1, 63, 0
3, 7209, Note_on_c, 1, 65, 64
3, 7231, Note_on_c, 1, 65, 0
3, 7269, Note_on_c, 1, 70, 64
3, 7284, Note_on_c, 1, 70, 0
3, 7329, Note_on_c, 1, 72, 64
3, 7348, Note_on_c, 1, 72, 0
3, 24009, Note_on_c, 1, 65, 64
3, 24028, Note_on_c, 1, 65, 0
3, 24072, Note_on_c, 1, 70, 64
3, 24081, Note_on_c, 1, 70, 0
3, 24129, Note_on_c, 1, 72, 64
3, 24148, Note_on_c, 1, 72, 0
3, 24489, Note_on_c, 1, 72, 64
3, 24516, Note_on_c, 1, 72, 0
3, 24667, Note_on_c, 1, 65, 64
3, 24688, Note_on_c, 1, 65, 0
3, 24969, Note_on_c, 1, 70, 64
3, 24993, Note_on_c, 1, 70, 0
3, 25147, Note_on_c, 1, 63, 64
3, 25168, Note_on_c, 1, 63, 0
3, 25449, Note_on_c, 1, 65, 64
3, 25471, Note_on_c, 1, 65, 0
3, 25512, Note_on_c, 1, 70, 64
3, 25521, Note_on_c, 1, 70, 0
3, 25572, Note_on_c, 1, 72, 64
3, 25588, Note_on_c, 1, 72, 0
3, 26409, Note_on_c, 1, 70, 64
3, 26433, Note_on_c, 1, 70, 0
3, 26587, Note_on_c, 1, 63, 64
3, 26608, Note_on_c, 1, 63, 0
3, 26889, Note_on_c, 1, 65, 64
3, 26911, Note_on_c, 1, 65, 0
3, 26952, Note_on_c, 1, 70, 64
3, 26966, Note_on_c, 1, 70, 0
3, 27012, Note_on_c, 1, 72, 64
3, 27028, Note_on_c, 1, 72, 0
3, 27369, Note_on_c, 1, 72, 64
3, 27396, Note_on_c, 1, 72, 0
3, 27547, Note_on_c, 1, 65, 64
3, 27571, Note_on_c, 1, 65, 0
3, 27849, Note_on_c, 1, 70, 64
3, 27873, Note_on_c, 1, 70, 0
3, 28027, Note_on_c, 1, 63, 64
3, 28048, Note_on_c, 1, 63, 0
3, 28329, Note_on_c, 1, 65, 64
3, 28351, Note_on_c, 1, 65, 0
3, 28392, Note_on_c, 1, 70, 64
3, 28404, Note_on_c, 1, 70, 0
3, 28452, Note_on_c, 1, 72, 64
3, 28468, Note_on_c, 1, 72, 0
3, 29289, Note_on_c, 1, 70, 64
3, 29313, Note_on_c, 1, 70, 0
3, 29472, Note_on_c, 1, 63, 64
3, 29488, Note_on_c, 1, 63, 0
3, 29769, Note_on_c, 1, 65, 64
3, 29791, Note_on_c, 1, 65, 0
3, 29829, Note_on_c, 1, 70, 64
3, 29844, Note_on_c, 1, 70, 0
3, 29887, Note_on_c, 1, 72, 64
3, 29908, Note_on_c, 1, 72, 0
3, 30249, Note_on_c, 1, 72, 64
3, 30276, Note_on_c, 1, 72, 0
3, 30432, Note_on_c, 1, 65, 64
3, 30448, Note_on_c, 1, 65, 0
3, 30729, Note_on_c, 1, 70, 64
3, 30753, Note_on_c, 1, 70, 0
3, 30909, Note_on_c, 1, 63, 64
3, 30928, Note_on_c, 1, 63, 0
3, 31209, Note_on_c, 1, 65, 64
3, 31231, Note_on_c, 1, 65, 0
3, 31269, Note_on_c, 1, 70, 64
3, 31284, Note_on_c, 1, 70, 0
3, 31327, Note_on_c, 1, 72, 64
3, 31348, Note_on_c, 1, 72, 0
3, 33609, Note_on_c, 1, 68, 88
3, 33609, Note_on_c, 1, 73, 88
3, 33609, Note_on_c, 1, 65, 88
3, 33638, Note_on_c, 1, 65, 0
3, 33638, Note_on_c, 1, 73, 0
3, 33638, Note_on_c, 1, 68, 0
3, 48009, Note_on_c, 1, 65, 64
3, 48028, Note_on_c, 1, 65, 0
3, 48072, Note_on_c, 1, 70, 64
3, 48084, Note_on_c, 1, 70, 0
3, 48127, Note_on_c, 1, 72, 64
3, 48148, Note_on_c, 1, 72, 0
3, 48492, Note_on_c, 1, 72, 64
3, 48516, Note_on_c, 1, 72, 0
3, 48672, Note_on_c, 1, 65, 64
3, 48688, Note_on_c, 1, 65, 0
3, 48969, Note_on_c, 1, 70, 64
3, 48993, Note_on_c, 1, 70, 0
3, 49152, Note_on_c, 1, 63, 64
3, 49168, Note_on_c, 1, 63, 0
3, 49449, Note_on_c, 1, 65, 64
3, 49473, Note_on_c, 1, 65, 0
3, 49512, Note_on_c, 1, 70, 64
3, 49524, Note_on_c, 1, 70, 0
3, 49567, Note_on_c, 1, 72, 64
3, 49588, Note_on_c, 1, 72, 0
3, 50409, Note_on_c, 1, 70, 64
3, 50433, Note_on_c, 1, 70, 0
3, 50592, Note_on_c, 1, 63, 64
3, 50608, Note_on_c, 1, 63, 0
3, 50889, Note_on_c, 1, 65, 64
3, 50911, Note_on_c, 1, 65, 0
3, 50952, Note_on_c, 1, 70, 64
3, 50964, Note_on_c, 1, 70, 0
3, 51007, Note_on_c, 1, 72, 64
3, 51028, Note_on_c, 1, 72, 0
3, 51372, Note_on_c, 1, 72, 64
3, 51396, Note_on_c, 1, 72, 0
3, 51552, Note_on_c, 1, 65, 64
3, 51568, Note_on_c, 1, 65, 0
3, 51849, Note_on_c, 1, 70, 64
3, 51871, Note_on_c, 1, 70, 0
3, 52032, Note_on_c, 1, 63, 64
3, 52048, Note_on_c, 1, 63, 0
3, 52329, Note_on_c, 1, 65, 64
3, 52353, Note_on_c, 1, 65, 0
3, 52392, Note_on_c, 1, 70, 64
3, 52404, Note_on_c, 1, 70, 0
3, 52447, Note_on_c, 1, 72, 64
3, 52468, Note_on_c, 1, 72, 0
3, 53289, Note_on_c, 1, 70, 64
3, 53311, Note_on_c, 1, 70, 0
3, 53472, Note_on_c, 1, 63, 64
3, 53488, Note_on_c, 1, 63, 0
3, 53769, Note_on_c, 1, 65, 64
3, 53791, Note_on_c, 1, 65, 0
3, 53832, Note_on_c, 1, 70, 64
3, 53844, Note_on_c, 1, 70, 0
3, 53887, Note_on_c, 1, 72, 64
3, 53908, Note_on_c, 1, 72, 0
3, 54249, Note_on_c, 1, 72, 64
3, 54276, Note_on_c, 1, 72, 0
3, 54432, Note_on_c, 1, 65, 64
3, 54448, Note_on_c, 1, 65, 0
3, 54729, Note_on_c, 1, 70, 64
3, 54753, Note_on_c, 1, 70, 0
3, 54912, Note_on_c, 1, 63, 64
3, 54928, Note_on_c, 1, 63, 0
3, 55209, Note_on_c, 1, 65, 64
3, 55233, Note_on_c, 1, 65, 0
3, 55272, Note_on_c, 1, 70, 64
3, 55284, Note_on_c, 1, 70, 0
3, 55327, Note_on_c, 1, 72, 64
3, 55348, Note_on_c, 1, 72, 0
3, 56172, Note_on_c, 1, 70, 64
3, 56193, Note_on_c, 1, 70, 0
3, 56352, Note_on_c, 1, 63, 64
3, 56368, Note_on_c, 1, 63, 0
3, 56652, Note_on_c, 1, 65, 64
3, 56671, Note_on_c, 1, 65, 0
3, 56712, Note_on_c, 1, 70, 64
3, 56724, Note_on_c, 1, 70, 0
3, 56767, Note_on_c, 1, 72, 64
3, 56788, Note_on_c, 1, 72, 0
3, 57129, Note_on_c, 1, 72, 64
3, 57156, Note_on_c, 1, 72, 0
3, 57312, Note_on_c, 1, 65, 64
3, 57328, Note_on_c, 1, 65, 0
3, 57609, Note_on_c, 1, 70, 64
3, 57633, Note_on_c, 1, 70, 0
3, 57792, Note_on_c, 1, 63, 64
3, 57808, Note_on_c, 1, 63, 0
3, 58092, Note_on_c, 1, 65, 64
3, 58111, Note_on_c, 1, 65, 0
3, 58152, Note_on_c, 1, 70, 64
3, 58164, Note_on_c, 1, 70, 0
3, 58207, Note_on_c, 1, 72, 64
3, 58228, Note_on_c, 1, 72, 0
3, 59052, Note_on_c, 1, 70, 64
3, 59073, Note_on_c, 1, 70, 0
3, 59232, Note_on_c, 1, 63, 64
3, 59248, Note_on_c, 1, 63, 0
3, 59532, Note_on_c, 1, 65, 64
3, 59551, Note_on_c, 1, 65, 0
3, 59592, Note_on_c, 1, 70, 64
3, 59604, Note_on_c, 1, 70, 0
3, 59647, Note_on_c, 1, 72, 64
3, 59668, Note_on_c, 1, 72, 0
3, 60012, Note_on_c, 1, 72, 64
3, 60036, Note_on_c, 1, 72, 0
3, 60192, Note_on_c, 1, 65, 64
3, 60208, Note_on_c, 1, 65, 0
3, 60492, Note_on_c, 1, 70, 64
3, 60513, Note_on_c, 1, 70, 0
3, 60672, Note_on_c, 1, 63, 64
3, 60688, Note_on_c, 1, 63, 0
3, 60972, Note_on_c, 1, 65, 64
3, 60991, Note_on_c, 1, 65, 0
3, 61032, Note_on_c, 1, 70, 64
3, 61041, Note_on_c, 1, 70, 0
3, 61087, Note_on_c, 1, 72, 64
3, 61108, Note_on_c, 1, 72, 0
3, 61929, Note_on_c, 1, 70, 64
3, 61953, Note_on_c, 1, 70, 0
3, 62112, Note_on_c, 1, 63, 64
3, 62128, Note_on_c, 1, 63, 0
3, 62412, Note_on_c, 1, 65, 64
3, 62431, Note_on_c, 1, 65, 0
3, 62472, Note_on_c, 1, 70, 64
3, 62481, Note_on_c, 1, 70, 0
3, 62527, Note_on_c, 1, 72, 64
3, 62548, Note_on_c, 1, 72, 0
3, 62889, Note_on_c, 1, 72, 64
3, 62913, Note_on_c, 1, 72, 0
3, 63072, Note_on_c, 1, 65, 64
3, 63088, Note_on_c, 1, 65, 0
3, 63369, Note_on_c, 1, 70, 64
3, 63393, Note_on_c, 1, 70, 0
3, 63552, Note_on_c, 1, 63, 64
3, 63568, Note_on_c, 1, 63, 0
3, 63852, Note_on_c, 1, 65, 64
3, 63871, Note_on_c, 1, 65, 0
3, 63912, Note_on_c, 1, 70, 64
3, 63921, Note_on_c, 1, 70, 0
3, 63967, Note_on_c, 1, 72, 64
3, 63988, Note_on_c, 1, 72, 0
3, 64324, Control_c, 1, 64, 0
3, 64324, End_track
4, 0, Start_track
4, 0, MIDI_port, 0
4, 0, Title_t, "E Piano"
4, 9, Program_c, 2, 5
4, 7689, Note_on_c, 2, 56, 90
4, 7689, Note_on_c, 2, 51, 86
4, 7689, Note_on_c, 2, 60, 82
4, 7704, Note_on_c, 2, 56, 0
4, 7706, Note_on_c, 2, 60, 0
4, 7706, Note_on_c, 2, 51, 0
4, 7749, Note_on_c, 2, 56, 75
4, 7749, Note_on_c, 2, 51, 69
4, 7749, Note_on_c, 2, 60, 67
4, 7761, Note_on_c, 2, 60, 0
4, 7761, Note_on_c, 2, 51, 0
4, 7761, Note_on_c, 2, 56, 0
4, 7809, Note_on_c, 2, 56, 100
4, 7809, Note_on_c, 2, 61, 106
4, 7809, Note_on_c, 2, 51, 90
4, 7826, Note_on_c, 2, 56, 0
4, 7828, Note_on_c, 2, 51, 0
4, 7828, Note_on_c, 2, 61, 0
4, 7929, Note_on_c, 2, 56, 100
4, 7929, Note_on_c, 2, 60, 84
4, 7929, Note_on_c, 2, 51, 90
4, 7946, Note_on_c, 2, 51, 0
4, 7948, Note_on_c, 2, 60, 0
4, 7948, Note_on_c, 2, 56, 0
4, 8049, Note_on_c, 2, 61, 90
4, 8049, Note_on_c, 2, 56, 100
4, 8049, Note_on_c, 2, 51, 86
4, 8066, Note_on_c, 2, 51, 0
4, 8066, Note_on_c, 2, 56, 0
4, 8071, Note_on_c, 2, 61, 0
4, 8109, Note_on_c, 2, 56, 86
4, 8109, Note_on_c, 2, 51, 73
4, 8109, Note_on_c, 2, 60, 86
4, 8124, Note_on_c, 2, 56, 0
4, 8128, Note_on_c, 2, 60, 0
4, 8128, Note_on_c, 2, 51, 0
4, 8229, Note_on_c, 2, 56, 90
4, 8229, Note_on_c, 2, 51, 90
4, 8229, Note_on_c, 2, 60, 76
4, 8241, Note_on_c, 2, 56, 0
4, 8244, Note_on_c, 2, 60, 0
4, 8248, Note_on_c, 2, 51, 0
4, 8289, Note_on_c, 2, 56, 95
4, 8289, Note_on_c, 2, 51, 77
4, 8289, Note_on_c, 2, 61, 90
4, 8301, Note_on_c, 2, 61, 0
4, 8301, Note_on_c, 2, 51, 0
4, 8306, Note_on_c, 2, 56, 0
4, 8409, Note_on_c, 2, 56, 95
4, 8409, Note_on_c, 2, 51, 83
4, 8409, Note_on_c, 2, 60, 80
4, 8424, Note_on_c, 2, 60, 0
4, 8424, Note_on_c, 2, 51, 0
4, 8428, Note_on_c, 2, 56, 0
4, 8469, Note_on_c, 2, 56, 90
4, 8469, Note_on_c, 2, 60, 73
4, 8469, Note_on_c, 2, 51, 77
4, 8484, Note_on_c, 2, 51, 0
4, 8484, Note_on_c, 2, 60, 0
4, 8484, Note_on_c, 2, 56, 0
4, 8529, Note_on_c, 2, 56, 100
4, 8529, Note_on_c, 2, 51, 80
4, 8529, Note_on_c, 2, 61, 100
4, 8546, Note_on_c, 2, 51, 0
4, 8548, Note_on_c, 2, 61, 0
4, 8548, Note_on_c, 2, 56, 0
4, 8649, Note_on_c, 2, 56, 83
4, 8649, Note_on_c, 2, 60, 77
4, 8649, Note_on_c, 2, 53, 76
4, 8664, Note_on_c, 2, 53, 0
4, 8664, Note_on_c, 2, 56, 0
4, 8668, Note_on_c, 2, 60, 0
4, 8709, Note_on_c, 2, 60, 79
4, 8709, Note_on_c, 2, 56, 77
4, 8709, Note_on_c, 2, 53, 73
4, 8721, Note_on_c, 2, 53, 0
4, 8721, Note_on_c, 2, 56, 0
4, 8726, Note_on_c, 2, 60, 0
4, 8769, Note_on_c, 2, 53, 90
4, 8769, Note_on_c, 2, 56, 80
4, 8769, Note_on_c, 2, 63, 106
4, 8779, Note_on_c, 2, 56, 0
4, 8786, Note_on_c, 2, 63, 0
4, 8788, Note_on_c, 2, 53, 0
4, 8889, Note_on_c, 2, 60, 88
4, 8889, Note_on_c, 2, 56, 100
4, 8889, Note_on_c, 2, 53, 84
4, 8904, Note_on_c, 2, 53, 0
4, 8908, Note_on_c, 2, 56, 0
4, 8911, Note_on_c, 2, 60, 0
4, 9009, Note_on_c, 2, 56, 100
4, 9009, Note_on_c, 2, 63, 90
4, 9009, Note_on_c, 2, 53, 79
4, 9016, Note_on_c, 2, 53, 0
4, 9026, Note_on_c, 2, 56, 0
4, 9028, Note_on_c, 2, 63, 0
4, 9069, Note_on_c, 2, 60, 90
4, 9069, Note_on_c, 2, 56, 83
4, 9069, Note_on_c, 2, 53, 77
4, 9086, Note_on_c, 2, 56, 0
4, 9091, Note_on_c, 2, 53, 0
4, 9091, Note_on_c, 2, 60, 0
4, 9189, Note_on_c, 2, 56, 77
4, 9189, Note_on_c, 2, 60, 80
4, 9189, Note_on_c, 2, 53, 80
4, 9206, Note_on_c, 2, 53, 0
4, 9206, Note_on_c, 2, 56, 0
4, 9211, Note_on_c, 2, 60, 0
4, 9249, Note_on_c, 2, 56, 83
4, 9249, Note_on_c, 2, 53, 80
4, 9249, Note_on_c, 2, 63, 95
4, 9264, Note_on_c, 2, 63, 0
4, 9268, Note_on_c, 2, 53, 0
4, 9268, Note_on_c, 2, 56, 0
4, 9369, Note_on_c, 2, 60, 79
4, 9369, Note_on_c, 2, 56, 90
4, 9369, Note_on_c, 2, 53, 82
4, 9384, Note_on_c, 2, 53, 0
4, 9384, Note_on_c, 2, 56, 0
4, 9391, Note_on_c, 2, 60, 0
4, 9429, Note_on_c, 2, 60, 66
4, 9429, Note_on_c, 2, 56, 73
4, 9429, Note_on_c, 2, 53, 55
4, 9439, Note_on_c, 2, 53, 0
4, 9444, Note_on_c, 2, 56, 0
4, 9448, Note_on_c, 2, 60, 0
4, 9489, Note_on_c, 2, 56, 86
4, 9489, Note_on_c, 2, 53, 76
4, 9489, Note_on_c, 2, 63, 86
4, 9508, Note_on_c, 2, 63, 0
4, 9508, Note_on_c, 2, 53, 0
4, 9513, Note_on_c, 2, 56, 0
4, 9609, Note_on_c, 2, 61, 95
4, 9609, Note_on_c, 2, 56, 106
4, 9609, Note_on_c, 2, 53, 80
4, 9624, Note_on_c, 2, 53, 0
4, 9628, Note_on_c, 2, 56, 0
4, 9628, Note_on_c, 2, 61, 0
4, 9669, Note_on_c, 2, 61, 69
4, 9669, Note_on_c, 2, 56, 83
4, 9669, Note_on_c, 2, 53, 57
4, 9676, Note_on_c, 2, 53, 0
4, 9684, Note_on_c, 2, 56, 0
4, 9684, Note_on_c, 2, 61, 0
4, 9729, Note_on_c, 2, 56, 86
4, 9729, Note_on_c, 2, 53, 80
4, 9729, Note_on_c, 2, 63, 95
4, 9744, Note_on_c, 2, 56, 0
4, 9746, Note_on_c, 2, 63, 0
4, 9748, Note_on_c, 2, 53, 0
4, 9849, Note_on_c, 2, 56, 90
4, 9849, Note_on_c, 2, 61, 90
4, 9849, Note_on_c, 2, 53, 73
4, 9864, Note_on_c, 2, 53, 0
4, 9868, Note_on_c, 2, 61, 0
4, 9868, Note_on_c, 2, 56, 0
4, 9969, Note_on_c, 2, 56, 86
4, 9969, Note_on_c, 2, 63, 77
4, 9969, Note_on_c, 2, 53, 65
4, 9981, Note_on_c, 2, 53, 0
4, 9986, Note_on_c, 2, 63, 0
4, 9988, Note_on_c, 2, 56, 0
4, 10029, Note_on_c, 2, 56, 80
4, 10029, Note_on_c, 2, 53, 76
4, 10029, Note_on_c, 2, 61, 67
4, 10046, Note_on_c, 2, 61, 0
4, 10046, Note_on_c, 2, 53, 0
4, 10046, Note_on_c, 2, 56, 0
4, 10149, Note_on_c, 2, 56, 100
4, 10149, Note_on_c, 2, 61, 80
4, 10149, Note_on_c, 2, 53, 73
4, 10161, Note_on_c, 2, 53, 0
4, 10168, Note_on_c, 2, 61, 0
4, 10168, Note_on_c, 2, 56, 0
4, 10209, Note_on_c, 2, 56, 83
4, 10209, Note_on_c, 2, 53, 73
4, 10209, Note_on_c, 2, 63, 86
4, 10224, Note_on_c, 2, 63, 0
4, 10226, Note_on_c, 2, 53, 0
4, 10226, Note_on_c, 2, 56, 0
4, 10329, Note_on_c, 2, 61, 80
4, 10329, Note_on_c, 2, 56, 95
4, 10329, Note_on_c, 2, 53, 76
4, 10344, Note_on_c, 2, 53, 0
4, 10346, Note_on_c, 2, 56, 0
4, 10348, Note_on_c, 2, 61, 0
4, 10389, Note_on_c, 2, 61, 73
4, 10389, Note_on_c, 2, 56, 73
4, 10389, Note_on_c, 2, 53, 54
4, 10399, Note_on_c, 2, 53, 0
4, 10404, Note_on_c, 2, 56, 0
4, 10408, Note_on_c, 2, 61, 0
4, 10449, Note_on_c, 2, 56, 83
4, 10449, Note_on_c, 2, 53, 72
4, 10449, Note_on_c, 2, 63, 83
4, 10466, Note_on_c, 2, 63, 0
4, 10466, Note_on_c, 2, 53, 0
4, 10471, Note_on_c, 2, 56, 0
4, 10569, Note_on_c, 2, 58, 95
4, 10569, Note_on_c, 2, 63, 73
4, 10569, Note_on_c, 2, 55, 84
4, 10586, Note_on_c, 2, 55, 0
4, 10588, Note_on_c, 2, 58, 0
4, 10591, Note_on_c, 2, 63, 0
4, 10629, Note_on_c, 2, 58, 83
4, 10629, Note_on_c, 2, 63, 57
4, 10629, Note_on_c, 2, 55, 70
4, 10646, Note_on_c, 2, 55, 0
4, 10648, Note_on_c, 2, 63, 0
4, 10651, Note_on_c, 2, 58, 0
4, 10689, Note_on_c, 2, 58, 90
4, 10689, Note_on_c, 2, 56, 90
4, 10689, Note_on_c, 2, 63, 95
4, 10711, Note_on_c, 2, 63, 0
4, 10711, Note_on_c, 2, 56, 0
4, 10711, Note_on_c, 2, 58, 0
4, 10809, Note_on_c, 2, 58, 112
4, 10809, Note_on_c, 2, 63, 80
4, 10809, Note_on_c, 2, 55, 88
4, 10828, Note_on_c, 2, 55, 0
4, 10831, Note_on_c, 2, 58, 0
4, 10833, Note_on_c, 2, 63, 0
4, 10929, Note_on_c, 2, 58, 83
4, 10929, Note_on_c, 2, 56, 86
4, 10929, Note_on_c, 2, 63, 86
4, 10941, Note_on_c, 2, 58, 0
4, 10946, Note_on_c, 2, 63, 0
4, 10948, Note_on_c, 2, 56, 0
4, 10989, Note_on_c, 2, 58, 90
4, 10989, Note_on_c, 2, 63, 61
4, 10989, Note_on_c, 2, 55, 86
4, 11008, Note_on_c, 2, 63, 0
4, 11011, Note_on_c, 2, 55, 0
4, 11011, Note_on_c, 2, 58, 0
4, 11109, Note_on_c, 2, 58, 100
4, 11109, Note_on_c, 2, 63, 73
4, 11109, Note_on_c, 2, 55, 86
4, 11126, Note_on_c, 2, 55, 0
4, 11128, Note_on_c, 2, 63, 0
4, 11128, Note_on_c, 2, 58, 0
4, 11169, Note_on_c, 2, 56, 86
4, 11169, Note_on_c, 2, 58, 83
4, 11169, Note_on_c, 2, 63, 90
4, 11186, Note_on_c, 2, 58, 0
4, 11188, Note_on_c, 2, 63, 0
4, 11191, Note_on_c, 2, 56, 0
4, 11289, Note_on_c, 2, 58, 112
4, 11289, Note_on_c, 2, 63, 73
4, 11289, Note_on_c, 2, 55, 95
4, 11308, Note_on_c, 2, 63, 0
4, 11308, Note_on_c, 2, 58, 0
4, 11311, Note_on_c, 2, 55, 0
4, 11349, Note_on_c, 2, 58, 100
4, 11349, Note_on_c, 2, 63, 69
4, 11349, Note_on_c, 2, 55, 65
4, 11361, Note_on_c, 2, 55, 0
4, 11371, Note_on_c, 2, 63, 0
4, 11371, Note_on_c, 2, 58, 0
4, 11409, Note_on_c, 2, 58, 95
4, 11409, Note_on_c, 2, 56, 90
4, 11409, Note_on_c, 2, 63, 86
4, 11426, Note_on_c, 2, 63, 0
4, 11433, Note_on_c, 2, 56, 0
4, 11433, Note_on_c, 2, 58, 0
4, 11529, Note_on_c, 2, 54, 86
4, 11529, Note_on_c, 2, 49, 90
4, 11529, Note_on_c, 2, 58, 112
4, 11546, Note_on_c, 2, 58, 0
4, 11548, Note_on_c, 2, 49, 0
4, 11548, Note_on_c, 2, 54, 0
4, 11589, Note_on_c, 2, 49, 80
4, 11589, Note_on_c, 2, 54, 80
4, 11589, Note_on_c, 2, 58, 112
4, 11604, Note_on_c, 2, 58, 0
4, 11608, Note_on_c, 2, 54, 0
4, 11611, Note_on_c, 2, 49, 0
4, 11649, Note_on_c, 2, 49, 75
4, 11649, Note_on_c, 2, 60, 88
4, 11649, Note_on_c, 2, 54, 83
4, 11664, Note_on_c, 2, 54, 0
4, 11666, Note_on_c, 2, 49, 0
4, 11671, Note_on_c, 2, 60, 0
4, 11769, Note_on_c, 2, 58, 80
4, 11769, Note_on_c, 2, 54, 90
4, 11769, Note_on_c, 2, 49, 86
4, 11784, Note_on_c, 2, 49, 0
4, 11788, Note_on_c, 2, 54, 0
4, 11788, Note_on_c, 2, 58, 0
4, 11889, Note_on_c, 2, 54, 90
4, 11889, Note_on_c, 2, 49, 83
4, 11889, Note_on_c, 2, 60, 84
4, 11904, Note_on_c, 2, 49, 0
4, 11908, Note_on_c, 2, 60, 0
4, 11908, Note_on_c, 2, 54, 0
4, 11949, Note_on_c, 2, 49, 75
4, 11949, Note_on_c, 2, 54, 86
4, 11949, Note_on_c, 2, 58, 90
4, 11961, Note_on_c, 2, 49, 0
4, 11964, Note_on_c, 2, 58, 0
4, 11964, Note_on_c, 2, 54, 0
4, 12069, Note_on_c, 2, 58, 106
4, 12069, Note_on_c, 2, 54, 90
4, 12069, Note_on_c, 2, 49, 86
4, 12086, Note_on_c, 2, 49, 0
4, 12086, Note_on_c, 2, 54, 0
4, 12091, Note_on_c, 2, 58, 0
4, 12129, Note_on_c, 2, 54, 86
4, 12129, Note_on_c, 2, 49, 80
4, 12129, Note_on_c, 2, 60, 86
4, 12144, Note_on_c, 2, 49, 0
4, 12146, Note_on_c, 2, 60, 0
4, 12146, Note_on_c, 2, 54, 0
4, 12249, Note_on_c, 2, 58, 100
4, 12249, Note_on_c, 2, 54, 86
4, 12249, Note_on_c, 2, 49, 86
4, 12264, Note_on_c, 2, 54, 0
4, 12266, Note_on_c, 2, 49, 0
4, 12271, Note_on_c, 2, 58, 0
4, 12309, Note_on_c, 2, 58, 83
4, 12309, Note_on_c, 2, 54, 80
4, 12309, Note_on_c, 2, 49, 73
4, 12324, Note_on_c, 2, 49, 0
4, 12324, Note_on_c, 2, 54, 0
4, 12328, Note_on_c, 2, 58, 0
4, 12369, Note_on_c, 2, 54, 83
4, 12369, Note_on_c, 2, 49, 77
4, 12369, Note_on_c, 2, 60, 92
4, 12384, Note_on_c, 2, 54, 0
4, 12386, Note_on_c, 2, 49, 0
4, 12388, Note_on_c, 2, 60, 0
4, 12489, Note_on_c, 2, 61, 83
4, 12489, Note_on_c, 2, 53, 80
4, 12489, Note_on_c, 2, 56, 90
4, 12506, Note_on_c, 2, 56, 0
4, 12508, Note_on_c, 2, 53, 0
4, 12508, Note_on_c, 2, 61, 0
4, 12549, Note_on_c, 2, 61, 73
4, 12549, Note_on_c, 2, 56, 83
4, 12549, Note_on_c, 2, 53, 70
4, 12568, Note_on_c, 2, 53, 0
4, 12571, Note_on_c, 2, 56, 0
4, 12571, Note_on_c, 2, 61, 0
4, 12609, Note_on_c, 2, 56, 77
4, 12609, Note_on_c, 2, 53, 64
4, 12609, Note_on_c, 2, 63, 90
4, 12624, Note_on_c, 2, 63, 0
4, 12628, Note_on_c, 2, 53, 0
4, 12628, Note_on_c, 2, 56, 0
4, 12729, Note_on_c, 2, 56, 90
4, 12729, Note_on_c, 2, 61, 86
4, 12729, Note_on_c, 2, 53, 79
4, 12746, Note_on_c, 2, 53, 0
4, 12746, Note_on_c, 2, 61, 0
4, 12751, Note_on_c, 2, 56, 0
4, 12849, Note_on_c, 2, 56, 73
4, 12849, Note_on_c, 2, 53, 60
4, 12849, Note_on_c, 2, 63, 71
4, 12866, Note_on_c, 2, 63, 0
4, 12871, Note_on_c, 2, 53, 0
4, 12871, Note_on_c, 2, 56, 0
4, 12909, Note_on_c, 2, 56, 73
4, 12909, Note_on_c, 2, 60, 86
4, 12909, Note_on_c, 2, 53, 64
4, 12928, Note_on_c, 2, 53, 0
4, 12928, Note_on_c, 2, 56, 0
4, 12933, Note_on_c, 2, 60, 0
4, 13029, Note_on_c, 2, 53, 71
4, 13029, Note_on_c, 2, 56, 83
4, 13029, Note_on_c, 2, 60, 79
4, 13046, Note_on_c, 2, 60, 0
4, 13046, Note_on_c, 2, 56, 0
4, 13046, Note_on_c, 2, 53, 0
4, 13089, Note_on_c, 2, 56, 77
4, 13089, Note_on_c, 2, 53, 52
4, 13089, Note_on_c, 2, 63, 83
4, 13108, Note_on_c, 2, 53, 0
4, 13111, Note_on_c, 2, 63, 0
4, 13113, Note_on_c, 2, 56, 0
4, 13209, Note_on_c, 2, 60, 74
4, 13209, Note_on_c, 2, 56, 77
4, 13209, Note_on_c, 2, 53, 60
4, 13224, Note_on_c, 2, 53, 0
4, 13224, Note_on_c, 2, 56, 0
4, 13233, Note_on_c, 2, 60, 0
4, 13269, Note_on_c, 2, 60, 68
4, 13269, Note_on_c, 2, 56, 69
4, 13269, Note_on_c, 2, 53, 52
4, 13281, Note_on_c, 2, 53, 0
4, 13286, Note_on_c, 2, 56, 0
4, 13286, Note_on_c, 2, 60, 0
4, 13329, Note_on_c, 2, 53, 65
4, 13329, Note_on_c, 2, 56, 80
4, 13329, Note_on_c, 2, 63, 90
4, 13348, Note_on_c, 2, 63, 0
4, 13348, Note_on_c, 2, 56, 0
4, 13348, Note_on_c, 2, 53, 0
4, 13449, Note_on_c, 2, 54, 86
4, 13449, Note_on_c, 2, 49, 90
4, 13449, Note_on_c, 2, 58, 112
4, 13466, Note_on_c, 2, 58, 0
4, 13468, Note_on_c, 2, 49, 0
4, 13468, Note_on_c, 2, 54, 0
4, 13509, Note_on_c, 2, 49, 80
4, 13509, Note_on_c, 2, 54, 80
4, 13509, Note_on_c, 2, 58, 112
4, 13524, Note_on_c, 2, 58, 0
4, 13528, Note_on_c, 2, 54, 0
4, 13531, Note_on_c, 2, 49, 0
4, 13569, Note_on_c, 2, 49, 75
4, 13569, Note_on_c, 2, 60, 88
4, 13569, Note_on_c, 2, 54, 83
4, 13584, Note_on_c, 2, 54, 0
4, 13586, Note_on_c, 2, 49, 0
4, 13588, Note_on_c, 2, 60, 0
4, 13689, Note_on_c, 2, 58, 80
4, 13689, Note_on_c, 2, 54, 90
4, 13689, Note_on_c, 2, 49, 86
4, 13704, Note_on_c, 2, 49, 0
4, 13708, Note_on_c, 2, 54, 0
4, 13708, Note_on_c, 2, 58, 0
4, 13809, Note_on_c, 2, 54, 90
4, 13809, Note_on_c, 2, 49, 83
4, 13809, Note_on_c, 2, 60, 84
4, 13824, Note_on_c, 2, 49, 0
4, 13826, Note_on_c, 2, 60, 0
4, 13826, Note_on_c, 2, 54, 0
4, 13869, Note_on_c, 2, 49, 75
4, 13869, Note_on_c, 2, 54, 86
4, 13869, Note_on_c, 2, 58, 90
4, 13881, Note_on_c, 2, 58, 0
4, 13881, Note_on_c, 2, 54, 0
4, 13881, Note_on_c, 2, 49, 0
4, 13989, Note_on_c, 2, 58, 106
4, 13989, Note_on_c, 2, 54, 90
4, 13989, Note_on_c, 2, 49, 86
4, 14006, Note_on_c, 2, 49, 0
4, 14006, Note_on_c, 2, 54, 0
4, 14011, Note_on_c, 2, 58, 0
4, 14049, Note_on_c, 2, 54, 86
4, 14049, Note_on_c, 2, 49, 80
4, 14049, Note_on_c, 2, 60, 86
4, 14064, Note_on_c, 2, 49, 0
4, 14068, Note_on_c, 2, 60, 0
4, 14068, Note_on_c, 2, 54, 0
4, 14169, Note_on_c, 2, 58, 100
4, 14169, Note_on_c, 2, 54, 86
4, 14169, Note_on_c, 2, 49, 86
4, 14184, Note_on_c, 2, 54, 0
4, 14188, Note_on_c, 2, 49, 0
4, 14191, Note_on_c, 2, 58, 0
4, 14229, Note_on_c, 2, 58, 83
4, 14229, Note_on_c, 2, 54, 80
4, 14229, Note_on_c, 2, 49, 73
4, 14244, Note_on_c, 2, 49, 0
4, 14244, Note_on_c, 2, 54, 0
4, 14248, Note_on_c, 2, 58, 0
4, 14289, Note_on_c, 2, 54, 83
4, 14289, Note_on_c, 2, 49, 77
4, 14289, Note_on_c, 2, 60, 92
4, 14304, Note_on_c, 2, 54, 0
4, 14308, Note_on_c, 2, 60, 0
4, 14308, Note_on_c, 2, 49, 0
4, 14409, Note_on_c, 2, 60, 92
4, 14409, Note_on_c, 2, 56, 95
4, 14409, Note_on_c, 2, 53, 84
4, 14426, Note_on_c, 2, 56, 0
4, 14428, Note_on_c, 2, 53, 0
4, 14431, Note_on_c, 2, 60, 0
4, 14529, Note_on_c, 2, 56, 86
4, 14529, Note_on_c, 2, 63, 71
4, 14529, Note_on_c, 2, 53, 77
4, 14551, Note_on_c, 2, 53, 0
4, 14551, Note_on_c, 2, 63, 0
4, 14551, Note_on_c, 2, 56, 0
4, 14649, Note_on_c, 2, 60, 80
4, 14649, Note_on_c, 2, 56, 90
4, 14649, Note_on_c, 2, 53, 80
4, 14668, Note_on_c, 2, 56, 0
4, 14671, Note_on_c, 2, 53, 0
4, 14673, Note_on_c, 2, 60, 0
4, 14769, Note_on_c, 2, 56, 83
4, 14769, Note_on_c, 2, 63, 86
4, 14769, Note_on_c, 2, 53, 72
4, 14784, Note_on_c, 2, 53, 0
4, 14786, Note_on_c, 2, 56, 0
4, 14791, Note_on_c, 2, 63, 0
4, 14829, Note_on_c, 2, 57, 80
4, 14829, Note_on_c, 2, 60, 84
4, 14829, Note_on_c, 2, 63, 65
4, 14846, Note_on_c, 2, 63, 0
4, 14851, Note_on_c, 2, 60, 0
4, 14851, Note_on_c, 2, 57, 0
4, 14949, Note_on_c, 2, 63, 80
4, 14949, Note_on_c, 2, 60, 80
4, 14949, Note_on_c, 2, 57, 73
4, 14968, Note_on_c, 2, 57, 0
4, 14968, Note_on_c, 2, 60, 0
4, 14968, Note_on_c, 2, 63, 0
4, 15009, Note_on_c, 2, 60, 86
4, 15009, Note_on_c, 2, 65, 88
4, 15009, Note_on_c, 2, 57, 73
4, 15033, Note_on_c, 2, 57, 0
4, 15033, Note_on_c, 2, 65, 0
4, 15033, Note_on_c, 2, 60, 0
4, 15129, Note_on_c, 2, 63, 83
4, 15129, Note_on_c, 2, 60, 97
4, 15129, Note_on_c, 2, 57, 84
4, 15146, Note_on_c, 2, 57, 0
4, 15151, Note_on_c, 2, 60, 0
4, 15151, Note_on_c, 2, 63, 0
4, 15189, Note_on_c, 2, 63, 71
4, 15189, Note_on_c, 2, 60, 82
4, 15189, Note_on_c, 2, 57, 74
4, 15208, Note_on_c, 2, 57, 0
4, 15208, Note_on_c, 2, 60, 0
4, 15208, Note_on_c, 2, 63, 0
4, 15249, Note_on_c, 2, 60, 95
4, 15249, Note_on_c, 2, 57, 86
4, 15249, Note_on_c, 2, 65, 90
4, 15271, Note_on_c, 2, 57, 0
4, 15276, Note_on_c, 2, 65, 0
4, 15276, Note_on_c, 2, 60, 0
4, 31689, Note_on_c, 2, 56, 90
4, 31689, Note_on_c, 2, 51, 86
4, 31689, Note_on_c, 2, 60, 82
4, 31704, Note_on_c, 2, 60, 0
4, 31704, Note_on_c, 2, 51, 0
4, 31704, Note_on_c, 2, 56, 0
4, 31749, Note_on_c, 2, 56, 75
4, 31749, Note_on_c, 2, 51, 69
4, 31749, Note_on_c, 2, 60, 67
4, 31761, Note_on_c, 2, 60, 0
4, 31761, Note_on_c, 2, 51, 0
4, 31761, Note_on_c, 2, 56, 0
4, 31807, Note_on_c, 2, 56, 100
4, 31809, Note_on_c, 2, 61, 106
4, 31809, Note_on_c, 2, 51, 90
4, 31826, Note_on_c, 2, 51, 0
4, 31826, Note_on_c, 2, 61, 0
4, 31826, Note_on_c, 2, 56, 0
4, 31927, Note_on_c, 2, 56, 100
4, 31929, Note_on_c, 2, 60, 84
4, 31929, Note_on_c, 2, 51, 90
4, 31948, Note_on_c, 2, 51, 0
4, 31948, Note_on_c, 2, 60, 0
4, 31948, Note_on_c, 2, 56, 0
4, 32047, Note_on_c, 2, 61, 90
4, 32049, Note_on_c, 2, 56, 100
4, 32049, Note_on_c, 2, 51, 86
4, 32066, Note_on_c, 2, 51, 0
4, 32066, Note_on_c, 2, 56, 0
4, 32066, Note_on_c, 2, 61, 0
4, 32107, Note_on_c, 2, 56, 86
4, 32109, Note_on_c, 2, 51, 73
4, 32109, Note_on_c, 2, 60, 86
4, 32124, Note_on_c, 2, 51, 0
4, 32124, Note_on_c, 2, 56, 0
4, 32128, Note_on_c, 2, 60, 0
4, 32229, Note_on_c, 2, 56, 90
4, 32229, Note_on_c, 2, 51, 90
4, 32229, Note_on_c, 2, 60, 76
4, 32241, Note_on_c, 2, 56, 0
4, 32244, Note_on_c, 2, 60, 0
4, 32246, Note_on_c, 2, 51, 0
4, 32287, Note_on_c, 2, 56, 95
4, 32289, Note_on_c, 2, 51, 77
4, 32289, Note_on_c, 2, 61, 90
4, 32301, Note_on_c, 2, 61, 0
4, 32301, Note_on_c, 2, 51, 0
4, 32306, Note_on_c, 2, 56, 0
4, 32412, Note_on_c, 2, 56, 95
4, 32412, Note_on_c, 2, 51, 83
4, 32412, Note_on_c, 2, 60, 80
4, 32424, Note_on_c, 2, 60, 0
4, 32424, Note_on_c, 2, 51, 0
4, 32428, Note_on_c, 2, 56, 0
4, 32467, Note_on_c, 2, 56, 90
4, 32469, Note_on_c, 2, 60, 73
4, 32469, Note_on_c, 2, 51, 77
4, 32484, Note_on_c, 2, 51, 0
4, 32484, Note_on_c, 2, 60, 0
4, 32484, Note_on_c, 2, 56, 0
4, 32527, Note_on_c, 2, 56, 100
4, 32529, Note_on_c, 2, 51, 80
4, 32529, Note_on_c, 2, 61, 100
4, 32546, Note_on_c, 2, 61, 0
4, 32546, Note_on_c, 2, 51, 0
4, 32546, Note_on_c, 2, 56, 0
4, 32649, Note_on_c, 2, 56, 83
4, 32649, Note_on_c, 2, 60, 77
4, 32649, Note_on_c, 2, 53, 76
4, 32664, Note_on_c, 2, 53, 0
4, 32664, Note_on_c, 2, 56, 0
4, 32668, Note_on_c, 2, 60, 0
4, 32709, Note_on_c, 2, 60, 79
4, 32709, Note_on_c, 2, 56, 77
4, 32709, Note_on_c, 2, 53, 73
4, 32721, Note_on_c, 2, 53, 0
4, 32721, Note_on_c, 2, 56, 0
4, 32726, Note_on_c, 2, 60, 0
4, 32767, Note_on_c, 2, 53, 90
4, 32769, Note_on_c, 2, 56, 80
4, 32769, Note_on_c, 2, 63, 106
4, 32781, Note_on_c, 2, 56, 0
4, 32786, Note_on_c, 2, 63, 0
4, 32791, Note_on_c, 2, 53, 0
4, 32887, Note_on_c, 2, 60, 88
4, 32889, Note_on_c, 2, 56, 100
4, 32889, Note_on_c, 2, 53, 84
4, 32904, Note_on_c, 2, 53, 0
4, 32911, Note_on_c, 2, 56, 0
4, 32911, Note_on_c, 2, 60, 0
4, 33007, Note_on_c, 2, 56, 100
4, 33009, Note_on_c, 2, 63, 90
4, 33009, Note_on_c, 2, 53, 79
4, 33019, Note_on_c, 2, 53, 0
4, 33024, Note_on_c, 2, 56, 0
4, 33028, Note_on_c, 2, 63, 0
4, 33067, Note_on_c, 2, 60, 90
4, 33069, Note_on_c, 2, 56, 83
4, 33069, Note_on_c, 2, 53, 77
4, 33086, Note_on_c, 2, 53, 0
4, 33086, Note_on_c, 2, 56, 0
4, 33091, Note_on_c, 2, 60, 0
4, 33189, Note_on_c, 2, 56, 77
4, 33189, Note_on_c, 2, 60, 80
4, 33189, Note_on_c, 2, 53, 80
4, 33206, Note_on_c, 2, 53, 0
4, 33206, Note_on_c, 2, 56, 0
4, 33211, Note_on_c, 2, 60, 0
4, 33247, Note_on_c, 2, 56, 83
4, 33249, Note_on_c, 2, 53, 80
4, 33249, Note_on_c, 2, 63, 95
4, 33264, Note_on_c, 2, 63, 0
4, 33264, Note_on_c, 2, 56, 0
4, 33268, Note_on_c, 2, 53, 0
4, 33372, Note_on_c, 2, 60, 79
4, 33372, Note_on_c, 2, 56, 90
4, 33372, Note_on_c, 2, 53, 82
4, 33384, Note_on_c, 2, 53, 0
4, 33384, Note_on_c, 2, 56, 0
4, 33391, Note_on_c, 2, 60, 0
4, 33427, Note_on_c, 2, 60, 66
4, 33429, Note_on_c, 2, 56, 73
4, 33429, Note_on_c, 2, 53, 55
4, 33439, Note_on_c, 2, 53, 0
4, 33444, Note_on_c, 2, 56, 0
4, 33444, Note_on_c, 2, 60, 0
4, 33487, Note_on_c, 2, 56, 86
4, 33489, Note_on_c, 2, 53, 76
4, 33489, Note_on_c, 2, 63, 86
4, 33506, Note_on_c, 2, 63, 0
4, 33506, Note_on_c, 2, 53, 0
4, 33511, Note_on_c, 2, 56, 0
4, 33609, Note_on_c, 2, 61, 95
4, 33609, Note_on_c, 2, 56, 106
4, 33609, Note_on_c, 2, 53, 80
4, 33624, Note_on_c, 2, 53, 0
4, 33628, Note_on_c, 2, 56, 0
4, 33628, Note_on_c, 2, 61, 0
4, 33669, Note_on_c, 2, 61, 69
4, 33669, Note_on_c, 2, 56, 83
4, 33669, Note_on_c, 2, 53, 57
4, 33676, Note_on_c, 2, 53, 0
4, 33684, Note_on_c, 2, 56, 0
4, 33684, Note_on_c, 2, 61, 0
4, 33727, Note_on_c, 2, 56, 86
4, 33729, Note_on_c, 2, 53, 80
4, 33729, Note_on_c, 2, 63, 95
4, 33744, Note_on_c, 2, 63, 0
4, 33744, Note_on_c, 2, 56, 0
4, 33748, Note_on_c, 2, 53, 0
4, 33847, Note_on_c, 2, 56, 90
4, 33849, Note_on_c, 2, 61, 90
4, 33849, Note_on_c, 2, 53, 73
4, 33864, Note_on_c, 2, 53, 0
4, 33868, Note_on_c, 2, 61, 0
4, 33868, Note_on_c, 2, 56, 0
4, 33967, Note_on_c, 2, 56, 86
4, 33969, Note_on_c, 2, 63, 77
4, 33969, Note_on_c, 2, 53, 65
4, 33981, Note_on_c, 2, 53, 0
4, 33986, Note_on_c, 2, 63, 0
4, 33986, Note_on_c, 2, 56, 0
4, 34029, Note_on_c, 2, 56, 80
4, 34029, Note_on_c, 2, 53, 76
4, 34029, Note_on_c, 2, 61, 67
4, 34046, Note_on_c, 2, 61, 0
4, 34046, Note_on_c, 2, 53, 0
4, 34046, Note_on_c, 2, 56, 0
4, 34149, Note_on_c, 2, 56, 100
4, 34149, Note_on_c, 2, 61, 80
4, 34149, Note_on_c, 2, 53, 73
4, 34161, Note_on_c, 2, 53, 0
4, 34166, Note_on_c, 2, 61, 0
4, 34166, Note_on_c, 2, 56, 0
4, 34207, Note_on_c, 2, 56, 83
4, 34209, Note_on_c, 2, 53, 73
4, 34209, Note_on_c, 2, 63, 86
4, 34224, Note_on_c, 2, 63, 0
4, 34224, Note_on_c, 2, 53, 0
4, 34228, Note_on_c, 2, 56, 0
4, 34332, Note_on_c, 2, 61, 80
4, 34332, Note_on_c, 2, 56, 95
4, 34332, Note_on_c, 2, 53, 76
4, 34344, Note_on_c, 2, 53, 0
4, 34346, Note_on_c, 2, 56, 0
4, 34351, Note_on_c, 2, 61, 0
4, 34387, Note_on_c, 2, 61, 73
4, 34389, Note_on_c, 2, 56, 73
4, 34389, Note_on_c, 2, 53, 54
4, 34396, Note_on_c, 2, 53, 0
4, 34404, Note_on_c, 2, 56, 0
4, 34408, Note_on_c, 2, 61, 0
4, 34447, Note_on_c, 2, 56, 83
4, 34449, Note_on_c, 2, 53, 72
4, 34449, Note_on_c, 2, 63, 83
4, 34466, Note_on_c, 2, 63, 0
4, 34466, Note_on_c, 2, 53, 0
4, 34471, Note_on_c, 2, 56, 0
4, 34572, Note_on_c, 2, 58, 95
4, 34572, Note_on_c, 2, 63, 73
4, 34572, Note_on_c, 2, 55, 84
4, 34586, Note_on_c, 2, 55, 0
4, 34591, Note_on_c, 2, 63, 0
4, 34591, Note_on_c, 2, 58, 0
4, 34629, Note_on_c, 2, 58, 83
4, 34629, Note_on_c, 2, 63, 57
4, 34629, Note_on_c, 2, 55, 70
4, 34646, Note_on_c, 2, 55, 0
4, 34646, Note_on_c, 2, 63, 0
4, 34651, Note_on_c, 2, 58, 0
4, 34687, Note_on_c, 2, 58, 90
4, 34689, Note_on_c, 2, 56, 90
4, 34689, Note_on_c, 2, 63, 95
4, 34711, Note_on_c, 2, 63, 0
4, 34711, Note_on_c, 2, 56, 0
4, 34711, Note_on_c, 2, 58, 0
4, 34807, Note_on_c, 2, 58, 112
4, 34809, Note_on_c, 2, 63, 80
4, 34809, Note_on_c, 2, 55, 88
4, 34828, Note_on_c, 2, 55, 0
4, 34831, Note_on_c, 2, 58, 0
4, 34836, Note_on_c, 2, 63, 0
4, 34927, Note_on_c, 2, 58, 83
4, 34929, Note_on_c, 2, 56, 86
4, 34929, Note_on_c, 2, 63, 86
4, 34941, Note_on_c, 2, 58, 0
4, 34946, Note_on_c, 2, 63, 0
4, 34946, Note_on_c, 2, 56, 0
4, 34989, Note_on_c, 2, 58, 90
4, 34989, Note_on_c, 2, 63, 61
4, 34989, Note_on_c, 2, 55, 86
4, 35008, Note_on_c, 2, 63, 0
4, 35011, Note_on_c, 2, 55, 0
4, 35011, Note_on_c, 2, 58, 0
4, 35112, Note_on_c, 2, 58, 100
4, 35112, Note_on_c, 2, 63, 73
4, 35112, Note_on_c, 2, 55, 86
4, 35126, Note_on_c, 2, 55, 0
4, 35131, Note_on_c, 2, 63, 0
4, 35131, Note_on_c, 2, 58, 0
4, 35167, Note_on_c, 2, 56, 86
4, 35169, Note_on_c, 2, 58, 83
4, 35169, Note_on_c, 2, 63, 90
4, 35186, Note_on_c, 2, 58, 0
4, 35188, Note_on_c, 2, 63, 0
4, 35191, Note_on_c, 2, 56, 0
4, 35287, Note_on_c, 2, 58, 112
4, 35289, Note_on_c, 2, 63, 73
4, 35289, Note_on_c, 2, 55, 95
4, 35308, Note_on_c, 2, 55, 0
4, 35308, Note_on_c, 2, 63, 0
4, 35308, Note_on_c, 2, 58, 0
4, 35347, Note_on_c, 2, 58, 100
4, 35349, Note_on_c, 2, 63, 69
4, 35349, Note_on_c, 2, 55, 65
4, 35361, Note_on_c, 2, 55, 0
4, 35371, Note_on_c, 2, 63, 0
4, 35371, Note_on_c, 2, 58, 0
4, 35407, Note_on_c, 2, 58, 95
4, 35409, Note_on_c, 2, 56, 90
4, 35409, Note_on_c, 2, 63, 86
4, 35428, Note_on_c, 2, 63, 0
4, 35431, Note_on_c, 2, 56, 0
4, 35431, Note_on_c, 2, 58, 0
4, 35532, Note_on_c, 2, 54, 86
4, 35532, Note_on_c, 2, 49, 90
4, 35532, Note_on_c, 2, 58, 112
4, 35544, Note_on_c, 2, 58, 0
4, 35548, Note_on_c, 2, 49, 0
4, 35548, Note_on_c, 2, 54, 0
4, 35589, Note_on_c, 2, 49, 80
4, 35589, Note_on_c, 2, 54, 80
4, 35589, Note_on_c, 2, 58, 112
4, 35604, Note_on_c, 2, 58, 0
4, 35608, Note_on_c, 2, 54, 0
4, 35611, Note_on_c, 2, 49, 0
4, 35647, Note_on_c, 2, 49, 75
4, 35649, Note_on_c, 2, 60, 88
4, 35649, Note_on_c, 2, 54, 83
4, 35664, Note_on_c, 2, 54, 0
4, 35666, Note_on_c, 2, 60, 0
4, 35666, Note_on_c, 2, 49, 0
4, 35767, Note_on_c, 2, 58, 80
4, 35772, Note_on_c, 2, 54, 90
4, 35772, Note_on_c, 2, 49, 86
4, 35784, Note_on_c, 2, 49, 0
4, 35788, Note_on_c, 2, 54, 0
4, 35788, Note_on_c, 2, 58, 0
4, 35887, Note_on_c, 2, 54, 90
4, 35889, Note_on_c, 2, 49, 83
4, 35889, Note_on_c, 2, 60, 84
4, 35904, Note_on_c, 2, 60, 0
4, 35904, Note_on_c, 2, 49, 0
4, 35904, Note_on_c, 2, 54, 0
4, 35949, Note_on_c, 2, 49, 75
4, 35949, Note_on_c, 2, 54, 86
4, 35949, Note_on_c, 2, 58, 90
4, 35961, Note_on_c, 2, 49, 0
4, 35964, Note_on_c, 2, 58, 0
4, 35964, Note_on_c, 2, 54, 0
4, 36069, Note_on_c, 2, 58, 106
4, 36069, Note_on_c, 2, 54, 90
4, 36069, Note_on_c, 2, 49, 86
4, 36084, Note_on_c, 2, 49, 0
4, 36084, Note_on_c, 2, 54, 0
4, 36088, Note_on_c, 2, 58, 0
4, 36129, Note_on_c, 2, 54, 86
4, 36129, Note_on_c, 2, 49, 80
4, 36129, Note_on_c, 2, 60, 86
4, 36144, Note_on_c, 2, 60, 0
4, 36144, Note_on_c, 2, 49, 0
4, 36144, Note_on_c, 2, 54, 0
4, 36247, Note_on_c, 2, 58, 100
4, 36249, Note_on_c, 2, 54, 86
4, 36249, Note_on_c, 2, 49, 86
4, 36264, Note_on_c, 2, 49, 0
4, 36264, Note_on_c, 2, 54, 0
4, 36271, Note_on_c, 2, 58, 0
4, 36307, Note_on_c, 2, 58, 83
4, 36312, Note_on_c, 2, 54, 80
4, 36312, Note_on_c, 2, 49, 73
4, 36324, Note_on_c, 2, 49, 0
4, 36324, Note_on_c, 2, 54, 0
4, 36324, Note_on_c, 2, 58, 0
4, 36367, Note_on_c, 2, 54, 83
4, 36369, Note_on_c, 2, 49, 77
4, 36369, Note_on_c, 2, 60, 92
4, 36384, Note_on_c, 2, 54, 0
4, 36386, Note_on_c, 2, 49, 0
4, 36391, Note_on_c, 2, 60, 0
4, 36489, Note_on_c, 2, 61, 83
4, 36489, Note_on_c, 2, 53, 80
4, 36489, Note_on_c, 2, 56, 90
4, 36504, Note_on_c, 2, 56, 0
4, 36508, Note_on_c, 2, 53, 0
4, 36508, Note_on_c, 2, 61, 0
4, 36552, Note_on_c, 2, 61, 73
4, 36552, Note_on_c, 2, 56, 83
4, 36552, Note_on_c, 2, 53, 70
4, 36568, Note_on_c, 2, 53, 0
4, 36571, Note_on_c, 2, 56, 0
4, 36571, Note_on_c, 2, 61, 0
4, 36607, Note_on_c, 2, 56, 77
4, 36609, Note_on_c, 2, 53, 64
4, 36609, Note_on_c, 2, 63, 90
4, 36624, Note_on_c, 2, 63, 0
4, 36628, Note_on_c, 2, 53, 0
4, 36628, Note_on_c, 2, 56, 0
4, 36727, Note_on_c, 2, 56, 90
4, 36729, Note_on_c, 2, 61, 86
4, 36729, Note_on_c, 2, 53, 79
4, 36744, Note_on_c, 2, 53, 0
4, 36744, Note_on_c, 2, 61, 0
4, 36748, Note_on_c, 2, 56, 0
4, 36847, Note_on_c, 2, 56, 73
4, 36849, Note_on_c, 2, 53, 60
4, 36849, Note_on_c, 2, 63, 71
4, 36866, Note_on_c, 2, 63, 0
4, 36866, Note_on_c, 2, 53, 0
4, 36871, Note_on_c, 2, 56, 0
4, 36912, Note_on_c, 2, 56, 73
4, 36912, Note_on_c, 2, 60, 86
4, 36912, Note_on_c, 2, 53, 64
4, 36928, Note_on_c, 2, 53, 0
4, 36928, Note_on_c, 2, 56, 0
4, 36933, Note_on_c, 2, 60, 0
4, 37027, Note_on_c, 2, 53, 71
4, 37032, Note_on_c, 2, 56, 83
4, 37032, Note_on_c, 2, 60, 79
4, 37044, Note_on_c, 2, 56, 0
4, 37044, Note_on_c, 2, 53, 0
4, 37048, Note_on_c, 2, 60, 0
4, 37089, Note_on_c, 2, 56, 77
4, 37089, Note_on_c, 2, 53, 52
4, 37089, Note_on_c, 2, 63, 83
4, 37108, Note_on_c, 2, 53, 0
4, 37111, Note_on_c, 2, 63, 0
4, 37111, Note_on_c, 2, 56, 0
4, 37212, Note_on_c, 2, 60, 74
4, 37212, Note_on_c, 2, 56, 77
4, 37212, Note_on_c, 2, 53, 60
4, 37224, Note_on_c, 2, 53, 0
4, 37224, Note_on_c, 2, 56, 0
4, 37233, Note_on_c, 2, 60, 0
4, 37272, Note_on_c, 2, 60, 68
4, 37272, Note_on_c, 2, 56, 69
4, 37272, Note_on_c, 2, 53, 52
4, 37281, Note_on_c, 2, 53, 0
4, 37284, Note_on_c, 2, 56, 0
4, 37288, Note_on_c, 2, 60, 0
4, 37327, Note_on_c, 2, 53, 65
4, 37329, Note_on_c, 2, 56, 80
4, 37329, Note_on_c, 2, 63, 90
4, 37348, Note_on_c, 2, 63, 0
4, 37348, Note_on_c, 2, 56, 0
4, 37348, Note_on_c, 2, 53, 0
4, 37449, Note_on_c, 2, 54, 86
4, 37449, Note_on_c, 2, 49, 90
4, 37449, Note_on_c, 2, 58, 112
4, 37464, Note_on_c, 2, 58, 0
4, 37468, Note_on_c, 2, 49, 0
4, 37468, Note_on_c, 2, 54, 0
4, 37512, Note_on_c, 2, 49, 80
4, 37512, Note_on_c, 2, 54, 80
4, 37512, Note_on_c, 2, 58, 112
4, 37524, Note_on_c, 2, 58, 0
4, 37528, Note_on_c, 2, 54, 0
4, 37531, Note_on_c, 2, 49, 0
4, 37567, Note_on_c, 2, 49, 75
4, 37572, Note_on_c, 2, 60, 88
4, 37572, Note_on_c, 2, 54, 83
4, 37584, Note_on_c, 2, 54, 0
4, 37586, Note_on_c, 2, 60, 0
4, 37586, Note_on_c, 2, 49, 0
4, 37687, Note_on_c, 2, 58, 80
4, 37692, Note_on_c, 2, 54, 90
4, 37692, Note_on_c, 2, 49, 86
4, 37704, Note_on_c, 2, 49, 0
4, 37708, Note_on_c, 2, 54, 0
4, 37708, Note_on_c, 2, 58, 0
4, 37807, Note_on_c, 2, 54, 90
4, 37812, Note_on_c, 2, 49, 83
4, 37812, Note_on_c, 2, 60, 84
4, 37824, Note_on_c, 2, 60, 0
4, 37824, Note_on_c, 2, 49, 0
4, 37824, Note_on_c, 2, 54, 0
4, 37872, Note_on_c, 2, 49, 75
4, 37872, Note_on_c, 2, 54, 86
4, 37872, Note_on_c, 2, 58, 90
4, 37881, Note_on_c, 2, 49, 0
4, 37884, Note_on_c, 2, 58, 0
4, 37884, Note_on_c, 2, 54, 0
4, 37992, Note_on_c, 2, 58, 106
4, 37992, Note_on_c, 2, 54, 90
4, 37992, Note_on_c, 2, 49, 86
4, 38004, Note_on_c, 2, 49, 0
4, 38004, Note_on_c, 2, 54, 0
4, 38008, Note_on_c, 2, 58, 0
4, 38047, Note_on_c, 2, 54, 86
4, 38052, Note_on_c, 2, 49, 80
4, 38052, Note_on_c, 2, 60, 86
4, 38064, Note_on_c, 2, 60, 0
4, 38064, Note_on_c, 2, 49, 0
4, 38064, Note_on_c, 2, 54, 0
4, 38167, Note_on_c, 2, 58, 100
4, 38172, Note_on_c, 2, 54, 86
4, 38172, Note_on_c, 2, 49, 86
4, 38184, Note_on_c, 2, 49, 0
4, 38184, Note_on_c, 2, 54, 0
4, 38191, Note_on_c, 2, 58, 0
4, 38227, Note_on_c, 2, 58, 83
4, 38232, Note_on_c, 2, 54, 80
4, 38232, Note_on_c, 2, 49, 73
4, 38244, Note_on_c, 2, 49, 0
4, 38244, Note_on_c, 2, 54, 0
4, 38244, Note_on_c, 2, 58, 0
4, 38287, Note_on_c, 2, 54, 83
4, 38292, Note_on_c, 2, 49, 77
4, 38292, Note_on_c, 2, 60, 92
4, 38304, Note_on_c, 2, 54, 0
4, 38306, Note_on_c, 2, 49, 0
4, 38311, Note_on_c, 2, 60, 0
4, 38409, Note_on_c, 2, 60, 92
4, 38409, Note_on_c, 2, 56, 95
4, 38409, Note_on_c, 2, 53, 84
4, 38424, Note_on_c, 2, 56, 0
4, 38428, Note_on_c, 2, 53, 0
4, 38431, Note_on_c, 2, 60, 0
4, 38527, Note_on_c, 2, 56, 86
4, 38532, Note_on_c, 2, 63, 71
4, 38532, Note_on_c, 2, 53, 77
4, 38551, Note_on_c, 2, 53, 0
4, 38551, Note_on_c, 2, 63, 0
4, 38551, Note_on_c, 2, 56, 0
4, 38647, Note_on_c, 2, 60, 80
4, 38652, Note_on_c, 2, 56, 90
4, 38652, Note_on_c, 2, 53, 80
4, 38668, Note_on_c, 2, 56, 0
4, 38671, Note_on_c, 2, 53, 0
4, 38673, Note_on_c, 2, 60, 0
4, 38767, Note_on_c, 2, 56, 83
4, 38772, Note_on_c, 2, 63, 86
4, 38772, Note_on_c, 2, 53, 72
4, 38784, Note_on_c, 2, 53, 0
4, 38784, Note_on_c, 2, 56, 0
4, 38791, Note_on_c, 2, 63, 0
4, 38827, Note_on_c, 2, 57, 80
4, 38832, Note_on_c, 2, 60, 84
4, 38832, Note_on_c, 2, 63, 65
4, 38844, Note_on_c, 2, 63, 0
4, 38851, Note_on_c, 2, 60, 0
4, 38851, Note_on_c, 2, 57, 0
4, 38952, Note_on_c, 2, 63, 80
4, 38952, Note_on_c, 2, 60, 80
4, 38952, Note_on_c, 2, 57, 73
4, 38966, Note_on_c, 2, 57, 0
4, 38966, Note_on_c, 2, 60, 0
4, 38971, Note_on_c, 2, 63, 0
4, 39007, Note_on_c, 2, 60, 86
4, 39012, Note_on_c, 2, 65, 88
4, 39012, Note_on_c, 2, 57, 73
4, 39031, Note_on_c, 2, 57, 0
4, 39031, Note_on_c, 2, 65, 0
4, 39031, Note_on_c, 2, 60, 0
4, 39127, Note_on_c, 2, 63, 83
4, 39132, Note_on_c, 2, 60, 97
4, 39132, Note_on_c, 2, 57, 84
4, 39146, Note_on_c, 2, 57, 0
4, 39151, Note_on_c, 2, 60, 0
4, 39151, Note_on_c, 2, 63, 0
4, 39192, Note_on_c, 2, 63, 71
4, 39192, Note_on_c, 2, 60, 82
4, 39192, Note_on_c, 2, 57, 74
4, 39206, Note_on_c, 2, 57, 0
4, 39206, Note_on_c, 2, 63, 0
4, 39211, Note_on_c, 2, 60, 0
4, 39247, Note_on_c, 2, 60, 95
4, 39252, Note_on_c, 2, 57, 86
4, 39252, Note_on_c, 2, 65, 90
4, 39271, Note_on_c, 2, 57, 0
4, 39278, Note_on_c, 2, 65, 0
4, 39278, Note_on_c, 2, 60, 0
4, 64324, Control_c, 2, 64, 0
4, 64324, End_track
5, 0, Start_track
5, 0, MIDI_port, 0
5, 0, Title_t, "Strings 1"
5, 9, Program_c, 3, 95
5, 15369, Note_on_c, 3, 65, 56
5, 15369, Note_on_c, 3, 70, 56
5, 15369, Note_on_c, 3, 74, 56
5, 16320, Note_on_c, 3, 74, 0
5, 16320, Note_on_c, 3, 70, 0
5, 16320, Note_on_c, 3, 65, 0
5, 16329, Note_on_c, 3, 65, 56
5, 16329, Note_on_c, 3, 69, 56
5, 16329, Note_on_c, 3, 72, 56
5, 17280, Note_on_c, 3, 72, 0
5, 17280, Note_on_c, 3, 69, 0
5, 17280, Note_on_c, 3, 65, 0
5, 17289, Note_on_c, 3, 63, 56
5, 17289, Note_on_c, 3, 68, 56
5, 17289, Note_on_c, 3, 72, 56
5, 18240, Note_on_c, 3, 72, 0
5, 18240, Note_on_c, 3, 68, 0
5, 18240, Note_on_c, 3, 63, 0
5, 18249, Note_on_c, 3, 63, 56
5, 18249, Note_on_c, 3, 67, 56
5, 18249, Note_on_c, 3, 70, 56
5, 19200, Note_on_c, 3, 70, 0
5, 19200, Note_on_c, 3, 67, 0
5, 19200, Note_on_c, 3, 63, 0
5, 19209, Note_on_c, 3, 61, 56
5, 19209, Note_on_c, 3, 66, 56
5, 19209, Note_on_c, 3, 70, 56
5, 20160, Note_on_c, 3, 70, 0
5, 20160, Note_on_c, 3, 66, 0
5, 20160, Note_on_c, 3, 61, 0
5, 20169, Note_on_c, 3, 61, 56
5, 20169, Note_on_c, 3, 65, 56
5, 20169, Note_on_c, 3, 68, 56
5, 20644, Note_on_c, 3, 68, 0
5, 20644, Note_on_c, 3, 65, 0
5, 20644, Note_on_c, 3, 61, 0
5, 20649, Note_on_c, 3, 60, 56
5, 20649, Note_on_c, 3, 65, 56
5, 20649, Note_on_c, 3, 68, 56
5, 21124, Note_on_c, 3, 68, 0
5, 21124, Note_on_c, 3, 65, 0
5, 21124, Note_on_c, 3, 60, 0
5, 21129, Note_on_c, 3, 61, 56
5, 21129, Note_on_c, 3, 66, 56
5, 21129, Note_on_c, 3, 70, 56
5, 21604, Note_on_c, 3, 70, 0
5, 21604, Note_on_c, 3, 66, 0
5, 21604, Note_on_c, 3, 61, 0
5, 21609, Note_on_c, 3, 63, 56
5, 21609, Note_on_c, 3, 68, 56
5, 21609, Note_on_c, 3, 72, 56
5, 22084, Note_on_c, 3, 72, 0
5, 22084, Note_on_c, 3, 68, 0
5, 22084, Note_on_c, 3, 63, 0
5, 22089, Note_on_c, 3, 65, 56
5, 22089, Note_on_c, 3, 68, 56
5, 22089, Note_on_c, 3, 73, 56
5, 22564, Note_on_c, 3, 73, 0
5, 22564, Note_on_c, 3, 68, 0
5, 22564, Note_on_c, 3, 65, 0
5, 22569, Note_on_c, 3, 61, 56
5, 22569, Note_on_c, 3, 65, 56
5, 22569, Note_on_c, 3, 70, 56
5, 23044, Note_on_c, 3, 70, 0
5, 23044, Note_on_c, 3, 65, 0
5, 23044, Note_on_c, 3, 61, 0
5, 23049, Note_on_c, 3, 61, 56
5, 23049, Note_on_c, 3, 66, 56
5, 23049, Note_on_c, 3, 70, 56
5, 23524, Note_on_c, 3, 70, 0
5, 23524, Note_on_c, 3, 66, 0
5, 23524, Note_on_c, 3, 61, 0
5, 23529, Note_on_c, 3, 63, 56
5, 23529, Note_on_c, 3, 68, 56
5, 23529, Note_on_c, 3, 72, 56
5, 24004, Note_on_c, 3, 72, 0
5, 24004, Note_on_c, 3, 68, 0
5, 24004, Note_on_c, 3, 63, 0
5, 39369, Note_on_c, 3, 65, 56
5, 39369, Note_on_c, 3, 70, 56
5, 39369, Note_on_c, 3, 74, 56
5, 40317, Note_on_c, 3, 70, 0
5, 40317, Note_on_c, 3, 65, 0
5, 40320, Note_on_c, 3, 74, 0
5, 40329, Note_on_c, 3, 65, 56
5, 40329, Note_on_c, 3, 69, 56
5, 40329, Note_on_c, 3, 72, 56
5, 41277, Note_on_c, 3, 69, 0
5, 41277, Note_on_c, 3, 65, 0
5, 41282, Note_on_c, 3, 72, 0
5, 41289, Note_on_c, 3, 63, 56
5, 41289, Note_on_c, 3, 68, 56
5, 41289, Note_on_c, 3, 72, 56
5, 42237, Note_on_c, 3, 68, 0
5, 42237, Note_on_c, 3, 63, 0
5, 42242, Note_on_c, 3, 72, 0
5, 42249, Note_on_c, 3, 63, 56
5, 42249, Note_on_c, 3, 67, 56
5, 42249, Note_on_c, 3, 70, 56
5, 43197, Note_on_c, 3, 67, 0
5, 43197, Note_on_c, 3, 63, 0
5, 43202, Note_on_c, 3, 70, 0
5, 43209, Note_on_c, 3, 61, 56
5, 43209, Note_on_c, 3, 66, 56
5, 43209, Note_on_c, 3, 70, 56
5, 44157, Note_on_c, 3, 66, 0
5, 44157, Note_on_c, 3, 61, 0
5, 44162, Note_on_c, 3, 70, 0
5, 44169, Note_on_c, 3, 61, 56
5, 44169, Note_on_c, 3, 65, 56
5, 44169, Note_on_c, 3, 68, 56
5, 44642, Note_on_c, 3, 65, 0
5, 44642, Note_on_c, 3, 61, 0
5, 44644, Note_on_c, 3, 68, 0
5, 44649, Note_on_c, 3, 60, 56
5, 44649, Note_on_c, 3, 65, 56
5, 44649, Note_on_c, 3, 68, 56
5, 45122, Note_on_c, 3, 65, 0
5, 45122, Note_on_c, 3, 60, 0
5, 45124, Note_on_c, 3, 68, 0
5, 45129, Note_on_c, 3, 61, 56
5, 45129, Note_on_c, 3, 66, 56
5, 45129, Note_on_c, 3, 70, 56
5, 45602, Note_on_c, 3, 66, 0
5, 45602, Note_on_c, 3, 61, 0
5, 45607, Note_on_c, 3, 70, 0
5, 45612, Note_on_c, 3, 63, 56
5, 45612, Note_on_c, 3, 68, 56
5, 45612, Note_on_c, 3, 72, 56
5, 46082, Note_on_c, 3, 68, 0
5, 46082, Note_on_c, 3, 63, 0
5, 46084, Note_on_c, 3, 72, 0
5, 46089, Note_on_c, 3, 65, 56
5, 46089, Note_on_c, 3, 68, 56
5, 46089, Note_on_c, 3, 73, 56
5, 46562, Note_on_c, 3, 68, 0
5, 46562, Note_on_c, 3, 65, 0
5, 46564, Note_on_c, 3, 73, 0
5, 46569, Note_on_c, 3, 61, 56
5, 46569, Note_on_c, 3, 65, 56
5, 46569, Note_on_c, 3, 70, 56
5, 47042, Note_on_c, 3, 65, 0
5, 47042, Note_on_c, 3, 61, 0
5, 47044, Note_on_c, 3, 70, 0
5, 47049, Note_on_c, 3, 61, 56
5, 47049, Note_on_c, 3, 66, 56
5, 47049, Note_on_c, 3, 70, 56
5, 47522, Note_on_c, 3, 66, 0
5, 47522, Note_on_c, 3, 61, 0
5, 47524, Note_on_c, 3, 70, 0
5, 47529, Note_on_c, 3, 63, 56
5, 47529, Note_on_c, 3, 68, 56
5, 47529, Note_on_c, 3, 72, 56
5, 48002, Note_on_c, 3, 68, 0
5, 48002, Note_on_c, 3, 63, 0
5, 48004, Note_on_c, 3, 72, 0
5, 64324, Control_c, 3, 64, 0
5, 64324, End_track
6, 0, Start_track
6, 0, MIDI_port, 0
6, 0, Title_t, "Piano"
6, 9, Program_c, 4, 1
6, 9, Note_on_c, 4, 77, 104
6, 57, Note_on_c, 4, 77, 0
6, 69, Note_on_c, 4, 82, 104
6, 117, Note_on_c, 4, 82, 0
6, 129, Note_on_c, 4, 84, 104
6, 352, Note_on_c, 4, 84, 0
6, 489, Note_on_c, 4, 84, 104
6, 638, Note_on_c, 4, 84, 0
6, 669, Note_on_c, 4, 77, 104
6, 892, Note_on_c, 4, 77, 0
6, 969, Note_on_c, 4, 82, 104
6, 1120, Note_on_c, 4, 82, 0
6, 1149, Note_on_c, 4, 75, 104
6, 1372, Note_on_c, 4, 75, 0
6, 1449, Note_on_c, 4, 77, 104
6, 1497, Note_on_c, 4, 77, 0
6, 1509, Note_on_c, 4, 82, 104
6, 1557, Note_on_c, 4, 82, 0
6, 1569, Note_on_c, 4, 84, 104
6, 1792, Note_on_c, 4, 84, 0
6, 2409, Note_on_c, 4, 82, 104
6, 2560, Note_on_c, 4, 82, 0
6, 2589, Note_on_c, 4, 75, 104
6, 2812, Note_on_c, 4, 75, 0
6, 2889, Note_on_c, 4, 77, 104
6, 2937, Note_on_c, 4, 77, 0
6, 2949, Note_on_c, 4, 82, 104
6, 2997, Note_on_c, 4, 82, 0
6, 3009, Note_on_c, 4, 84, 104
6, 3232, Note_on_c, 4, 84, 0
6, 3367, Note_on_c, 4, 84, 104
6, 3518, Note_on_c, 4, 84, 0
6, 3549, Note_on_c, 4, 77, 104
6, 3772, Note_on_c, 4, 77, 0
6, 3849, Note_on_c, 4, 82, 104
6, 4000, Note_on_c, 4, 82, 0
6, 4029, Note_on_c, 4, 75, 104
6, 4252, Note_on_c, 4, 75, 0
6, 4329, Note_on_c, 4, 77, 104
6, 4377, Note_on_c, 4, 77, 0
6, 4389, Note_on_c, 4, 82, 104
6, 4437, Note_on_c, 4, 82, 0
6, 4449, Note_on_c, 4, 84, 104
6, 4672, Note_on_c, 4, 84, 0
6, 5289, Note_on_c, 4, 82, 104
6, 5438, Note_on_c, 4, 82, 0
6, 5469, Note_on_c, 4, 75, 104
6, 5692, Note_on_c, 4, 75, 0
6, 5769, Note_on_c, 4, 77, 104
6, 5817, Note_on_c, 4, 77, 0
6, 5829, Note_on_c, 4, 82, 104
6, 5877, Note_on_c, 4, 82, 0
6, 5889, Note_on_c, 4, 84, 104
6, 6112, Note_on_c, 4, 84, 0
6, 6247, Note_on_c, 4, 84, 104
6, 6398, Note_on_c, 4, 84, 0
6, 6429, Note_on_c, 4, 77, 104
6, 6652, Note_on_c, 4, 77, 0
6, 6732, Note_on_c, 4, 82, 104
6, 6880, Note_on_c, 4, 82, 0
6, 6909, Note_on_c, 4, 75, 104
6, 7132, Note_on_c, 4, 75, 0
6, 7209, Note_on_c, 4, 77, 104
6, 7257, Note_on_c, 4, 77, 0
6, 7269, Note_on_c, 4, 82, 104
6, 7317, Note_on_c, 4, 82, 0
6, 7329, Note_on_c, 4, 84, 104
6, 7552, Note_on_c, 4, 84, 0
6, 8649, Note_on_c, 4, 96, 88
6, 8668, Note_on_c, 4, 96, 0
6, 8668, Note_on_c, 4, 89, 88
6, 8688, Note_on_c, 4, 89, 0
6, 8688, Note_on_c, 4, 84, 88
6, 9091, Note_on_c, 4, 84, 0
6, 24009, Program_c, 4, 1
6, 24009, Note_on_c, 4, 77, 104
6, 24057, Note_on_c, 4, 77, 0
6, 24072, Note_on_c, 4, 82, 104
6, 24117, Note_on_c, 4, 82, 0
6, 24129, Note_on_c, 4, 84, 104
6, 24352, Note_on_c, 4, 84, 0
6, 24489, Note_on_c, 4, 84, 104
6, 24638, Note_on_c, 4, 84, 0
6, 24672, Note_on_c, 4, 77, 104
6, 24892, Note_on_c, 4, 77, 0
6, 24969, Note_on_c, 4, 82, 104
6, 25118, Note_on_c, 4, 82, 0
6, 25152, Note_on_c, 4, 75, 104
6, 25372, Note_on_c, 4, 75, 0
6, 25449, Note_on_c, 4, 77, 104
6, 25497, Note_on_c, 4, 77, 0
6, 25512, Note_on_c, 4, 82, 104
6, 25557, Note_on_c, 4, 82, 0
6, 25572, Note_on_c, 4, 84, 104
6, 25792, Note_on_c, 4, 84, 0
6, 26409, Note_on_c, 4, 82, 104
6, 26558, Note_on_c, 4, 82, 0
6, 26592, Note_on_c, 4, 75, 104
6, 26812, Note_on_c, 4, 75, 0
6, 26889, Note_on_c, 4, 77, 104
6, 26937, Note_on_c, 4, 77, 0
6, 26952, Note_on_c, 4, 82, 104
6, 26997, Note_on_c, 4, 82, 0
6, 27012, Note_on_c, 4, 84, 104
6, 27232, Note_on_c, 4, 84, 0
6, 27369, Note_on_c, 4, 84, 104
6, 27518, Note_on_c, 4, 84, 0
6, 27552, Note_on_c, 4, 77, 104
6, 27772, Note_on_c, 4, 77, 0
6, 27849, Note_on_c, 4, 82, 104
6, 27998, Note_on_c, 4, 82, 0
6, 28032, Note_on_c, 4, 75, 104
6, 28252, Note_on_c, 4, 75, 0
6, 28329, Note_on_c, 4, 77, 104
6, 28377, Note_on_c, 4, 77, 0
6, 28392, Note_on_c, 4, 82, 104
6, 28437, Note_on_c, 4, 82, 0
6, 28452, Note_on_c, 4, 84, 104
6, 28672, Note_on_c, 4, 84, 0
6, 29289, Note_on_c, 4, 82, 104
6, 29438, Note_on_c, 4, 82, 0
6, 29467, Note_on_c, 4, 75, 104
6, 29692, Note_on_c, 4, 75, 0
6, 29769, Note_on_c, 4, 77, 104
6, 29817, Note_on_c, 4, 77, 0
6, 29829, Note_on_c, 4, 82, 104
6, 29877, Note_on_c, 4, 82, 0
6, 29892, Note_on_c, 4, 84, 104
6, 30112, Note_on_c, 4, 84, 0
6, 30249, Note_on_c, 4, 84, 104
6, 30398, Note_on_c, 4, 84, 0
6, 30427, Note_on_c, 4, 77, 104
6, 30652, Note_on_c, 4, 77, 0
6, 30729, Note_on_c, 4, 82, 104
6, 30878, Note_on_c, 4, 82, 0
6, 30907, Note_on_c, 4, 75, 104
6, 31132, Note_on_c, 4, 75, 0
6, 31209, Note_on_c, 4, 77, 104
6, 31257, Note_on_c, 4, 77, 0
6, 31269, Note_on_c, 4, 82, 104
6, 31317, Note_on_c, 4, 82, 0
6, 31332, Note_on_c, 4, 84, 104
6, 31552, Note_on_c, 4, 84, 0
6, 33609, Note_on_c, 4, 68, 88
6, 33609, Note_on_c, 4, 73, 88
6, 33609, Note_on_c, 4, 65, 88
6, 34209, Note_on_c, 4, 65, 0
6, 34209, Note_on_c, 4, 73, 0
6, 34209, Note_on_c, 4, 68, 0
6, 48009, Program_c, 4, 1
6, 48009, Note_on_c, 4, 77, 104
6, 48057, Note_on_c, 4, 77, 0
6, 48072, Note_on_c, 4, 82, 104
6, 48117, Note_on_c, 4, 82, 0
6, 48132, Note_on_c, 4, 84, 104
6, 48352, Note_on_c, 4, 84, 0
6, 48492, Note_on_c, 4, 84, 104
6, 48638, Note_on_c, 4, 84, 0
6, 48672, Note_on_c, 4, 77, 104
6, 48892, Note_on_c, 4, 77, 0
6, 48969, Note_on_c, 4, 82, 104
6, 49118, Note_on_c, 4, 82, 0
6, 49152, Note_on_c, 4, 75, 104
6, 49372, Note_on_c, 4, 75, 0
6, 49449, Note_on_c, 4, 77, 104
6, 49497, Note_on_c, 4, 77, 0
6, 49512, Note_on_c, 4, 82, 104
6, 49557, Note_on_c, 4, 82, 0
6, 49572, Note_on_c, 4, 84, 104
6, 49792, Note_on_c, 4, 84, 0
6, 50409, Note_on_c, 4, 82, 104
6, 50558, Note_on_c, 4, 82, 0
6, 50592, Note_on_c, 4, 75, 104
6, 50812, Note_on_c, 4, 75, 0
6, 50889, Note_on_c, 4, 77, 104
6, 50937, Note_on_c, 4, 77, 0
6, 50947, Note_on_c, 4, 82, 104
6, 50997, Note_on_c, 4, 82, 0
6, 51012, Note_on_c, 4, 84, 104
6, 51232, Note_on_c, 4, 84, 0
6, 51372, Note_on_c, 4, 84, 104
6, 51518, Note_on_c, 4, 84, 0
6, 51552, Note_on_c, 4, 77, 104
6, 51772, Note_on_c, 4, 77, 0
6, 51849, Note_on_c, 4, 82, 104
6, 51998, Note_on_c, 4, 82, 0
6, 52032, Note_on_c, 4, 75, 104
6, 52252, Note_on_c, 4, 75, 0
6, 52329, Note_on_c, 4, 77, 104
6, 52377, Note_on_c, 4, 77, 0
6, 52387, Note_on_c, 4, 82, 104
6, 52437, Note_on_c, 4, 82, 0
6, 52452, Note_on_c, 4, 84, 104
6, 52672, Note_on_c, 4, 84, 0
6, 53289, Note_on_c, 4, 82, 104
6, 53438, Note_on_c, 4, 82, 0
6, 53472, Note_on_c, 4, 75, 104
6, 53692, Note_on_c, 4, 75, 0
6, 53769, Note_on_c, 4, 77, 104
6, 53817, Note_on_c, 4, 77, 0
6, 53827, Note_on_c, 4, 82, 104
6, 53877, Note_on_c, 4, 82, 0
6, 53892, Note_on_c, 4, 84, 104
6, 54112, Note_on_c, 4, 84, 0
6, 54249, Note_on_c, 4, 84, 104
6, 54396, Note_on_c, 4, 84, 0
6, 54432, Note_on_c, 4, 77, 104
6, 54652, Note_on_c, 4, 77, 0
6, 54729, Note_on_c, 4, 82, 104
6, 54878, Note_on_c, 4, 82, 0
6, 54912, Note_on_c, 4, 75, 104
6, 55132, Note_on_c, 4, 75, 0
6, 55209, Note_on_c, 4, 77, 104
6, 55257, Note_on_c, 4, 77, 0
6, 55267, Note_on_c, 4, 82, 104
6, 55317, Note_on_c, 4, 82, 0
6, 55332, Note_on_c, 4, 84, 104
6, 55552, Note_on_c, 4, 84, 0
6, 56172, Note_on_c, 4, 82, 104
6, 56318, Note_on_c, 4, 82, 0
6, 56352, Note_on_c, 4, 75, 104
6, 56572, Note_on_c, 4, 75, 0
6, 56652, Note_on_c, 4, 77, 104
6, 56697, Note_on_c, 4, 77, 0
6, 56707, Note_on_c, 4, 82, 104
6, 56757, Note_on_c, 4, 82, 0
6, 56772, Note_on_c, 4, 84, 104
6, 56992, Note_on_c, 4, 84, 0
6, 57129, Note_on_c, 4, 84, 104
6, 57276, Note_on_c, 4, 84, 0
6, 57312, Note_on_c, 4, 77, 104
6, 57532, Note_on_c, 4, 77, 0
6, 57609, Note_on_c, 4, 82, 104
6, 57758, Note_on_c, 4, 82, 0
6, 57792, Note_on_c, 4, 75, 104
6, 58012, Note_on_c, 4, 75, 0
6, 58092, Note_on_c, 4, 77, 104
6, 58137, Note_on_c, 4, 77, 0
6, 58147, Note_on_c, 4, 82, 104
6, 58197, Note_on_c, 4, 82, 0
6, 58212, Note_on_c, 4, 84, 104
6, 58432, Note_on_c, 4, 84, 0
6, 59052, Note_on_c, 4, 82, 104
6, 59198, Note_on_c, 4, 82, 0
6, 59232, Note_on_c, 4, 75, 104
6, 59452, Note_on_c, 4, 75, 0
6, 59532, Note_on_c, 4, 77, 104
6, 59577, Note_on_c, 4, 77, 0
6, 59587, Note_on_c, 4, 82, 104
6, 59637, Note_on_c, 4, 82, 0
6, 59652, Note_on_c, 4, 84, 104
6, 59872, Note_on_c, 4, 84, 0
6, 60012, Note_on_c, 4, 84, 104
6, 60156, Note_on_c, 4, 84, 0
6, 60192, Note_on_c, 4, 77, 104
6, 60412, Note_on_c, 4, 77, 0
6, 60492, Note_on_c, 4, 82, 104
6, 60638, Note_on_c, 4, 82, 0
6, 60672, Note_on_c, 4, 75, 104
6, 60892, Note_on_c, 4, 75, 0
6, 60972, Note_on_c, 4, 77, 104
6, 61017, Note_on_c, 4, 77, 0
6, 61032, Note_on_c, 4, 82, 104
6, 61077, Note_on_c, 4, 82, 0
6, 61092, Note_on_c, 4, 84, 104
6, 61312, Note_on_c, 4, 84, 0
6, 61929, Note_on_c, 4, 82, 104
6, 62078, Note_on_c, 4, 82, 0
6, 62112, Note_on_c, 4, 75, 104
6, 62332, Note_on_c, 4, 75, 0
6, 62412, Note_on_c, 4, 77, 104
6, 62457, Note_on_c, 4, 77, 0
6, 62467, Note_on_c, 4, 82, 104
6, 62517, Note_on_c, 4, 82, 0
6, 62532, Note_on_c, 4, 84, 104
6, 62752, Note_on_c, 4, 84, 0
6, 62889, Note_on_c, 4, 84, 104
6, 63036, Note_on_c, 4, 84, 0
6, 63072, Note_on_c, 4, 77, 104
6, 63292, Note_on_c, 4, 77, 0
6, 63369, Note_on_c, 4, 82, 104
6, 63518, Note_on_c, 4, 82, 0
6, 63552, Note_on_c, 4, 75, 104
6, 63772, Note_on_c, 4, 75, 0
6, 63852, Note_on_c, 4, 77, 104
6, 63897, Note_on_c, 4, 77, 0
6, 63907, Note_on_c, 4, 82, 104
6, 63957, Note_on_c, 4, 82, 0
6, 63972, Note_on_c, 4, 84, 104
6, 64192, Note_on_c, 4, 84, 0
6, 64324, Control_c, 4, 64, 0
6, 64324, End_track
7, 0, Start_track
7, 0, MIDI_port, 0
7, 0, Title_t, "Flutey"
7, 9, Program_c, 5, 79
7, 52329, Note_on_c, 5, 77, 72
7, 52809, Note_on_c, 5, 77, 0
7, 52809, Note_on_c, 5, 75, 72
7, 53289, Note_on_c, 5, 75, 0
7, 53289, Note_on_c, 5, 70, 72
7, 53769, Note_on_c, 5, 70, 0
7, 53769, Note_on_c, 5, 77, 72
7, 54249, Note_on_c, 5, 77, 0
7, 54249, Note_on_c, 5, 75, 72
7, 54729, Note_on_c, 5, 75, 0
7, 54729, Note_on_c, 5, 70, 72
7, 55209, Note_on_c, 5, 70, 0
7, 55209, Note_on_c, 5, 77, 72
7, 55689, Note_on_c, 5, 77, 0
7, 55689, Note_on_c, 5, 75, 72
7, 56167, Note_on_c, 5, 75, 0
7, 56172, Note_on_c, 5, 70, 72
7, 56647, Note_on_c, 5, 70, 0
7, 56652, Note_on_c, 5, 77, 72
7, 57129, Note_on_c, 5, 77, 0
7, 57129, Note_on_c, 5, 75, 72
7, 57609, Note_on_c, 5, 75, 0
7, 57609, Note_on_c, 5, 70, 72
7, 58087, Note_on_c, 5, 70, 0
7, 58092, Note_on_c, 5, 77, 72
7, 58567, Note_on_c, 5, 77, 0
7, 58569, Note_on_c, 5, 75, 72
7, 59047, Note_on_c, 5, 75, 0
7, 59052, Note_on_c, 5, 70, 72
7, 59527, Note_on_c, 5, 70, 0
7, 59532, Note_on_c, 5, 77, 72
7, 60007, Note_on_c, 5, 77, 0
7, 60012, Note_on_c, 5, 75, 72
7, 60487, Note_on_c, 5, 75, 0
7, 60492, Note_on_c, 5, 70, 72
7, 60967, Note_on_c, 5, 70, 0
7, 60972, Note_on_c, 5, 77, 72
7, 61447, Note_on_c, 5, 77, 0
7, 61449, Note_on_c, 5, 75, 72
7, 61929, Note_on_c, 5, 75, 0
7, 61929, Note_on_c, 5, 70, 72
7, 62407, Note_on_c, 5, 70, 0
7, 62412, Note_on_c, 5, 77, 72
7, 62887, Note_on_c, 5, 77, 0
7, 62889, Note_on_c, 5, 75, 72
7, 63369, Note_on_c, 5, 75, 0
7, 63369, Note_on_c, 5, 70, 72
7, 63847, Note_on_c, 5, 70, 0
7, 64324, Control_c, 5, 64, 0
7, 64324, End_track
8, 0, Start_track
8, 0, MIDI_port, 0
8, 0, Title_t, "Synth Bass"
8, 9, Program_c, 6, 81
8, 49444, Note_on_c, 6, 46, 96
8, 49922, Note_on_c, 6, 46, 0
8, 49922, Note_on_c, 6, 44, 96
8, 50400, Note_on_c, 6, 44, 0
8, 50404, Note_on_c, 6, 39, 96
8, 50877, Note_on_c, 6, 39, 0
8, 50884, Note_on_c, 6, 46, 96
8, 51357, Note_on_c, 6, 46, 0
8, 51362, Note_on_c, 6, 44, 96
8, 51840, Note_on_c, 6, 44, 0
8, 51844, Note_on_c, 6, 39, 96
8, 52320, Note_on_c, 6, 39, 0
8, 52324, Note_on_c, 6, 46, 96
8, 52800, Note_on_c, 6, 46, 0
8, 52804, Note_on_c, 6, 44, 96
8, 53280, Note_on_c, 6, 44, 0
8, 53284, Note_on_c, 6, 39, 96
8, 53760, Note_on_c, 6, 39, 0
8, 53764, Note_on_c, 6, 46, 96
8, 54240, Note_on_c, 6, 46, 0
8, 54244, Note_on_c, 6, 44, 96
8, 54720, Note_on_c, 6, 44, 0
8, 54724, Note_on_c, 6, 39, 96
8, 55200, Note_on_c, 6, 39, 0
8, 55204, Note_on_c, 6, 46, 96
8, 55680, Note_on_c, 6, 46, 0
8, 55684, Note_on_c, 6, 44, 96
8, 56160, Note_on_c, 6, 44, 0
8, 56162, Note_on_c, 6, 39, 96
8, 56642, Note_on_c, 6, 39, 0
8, 56642, Note_on_c, 6, 46, 96
8, 57120, Note_on_c, 6, 46, 0
8, 57124, Note_on_c, 6, 44, 96
8, 57600, Note_on_c, 6, 44, 0
8, 57604, Note_on_c, 6, 39, 96
8, 58080, Note_on_c, 6, 39, 0
8, 58082, Note_on_c, 6, 46, 96
8, 58560, Note_on_c, 6, 46, 0
8, 58564, Note_on_c, 6, 44, 96
8, 59040, Note_on_c, 6, 44, 0
8, 59042, Note_on_c, 6, 39, 96
8, 59520, Note_on_c, 6, 39, 0
8, 59522, Note_on_c, 6, 46, 96
8, 60000, Note_on_c, 6, 46, 0
8, 60004, Note_on_c, 6, 44, 96
8, 60480, Note_on_c, 6, 44, 0
8, 60482, Note_on_c, 6, 39, 96
8, 60960, Note_on_c, 6, 39, 0
8, 60962, Note_on_c, 6, 46, 96
8, 61440, Note_on_c, 6, 46, 0
8, 61444, Note_on_c, 6, 44, 96
8, 61920, Note_on_c, 6, 44, 0
8, 61924, Note_on_c, 6, 39, 96
8, 62400, Note_on_c, 6, 39, 0
8, 64324, Control_c, 6, 64, 0
8, 64324, End_track
9, 0, Start_track
9, 0, MIDI_port, 0
9, 0, Title_t, "Strings 2"
9, 9, Program_c, 7, 89
9, 15369, Note_on_c, 7, 53, 56
9, 15369, Note_on_c, 7, 58, 56
9, 15369, Note_on_c, 7, 62, 56
9, 16317, Note_on_c, 7, 62, 0
9, 16317, Note_on_c, 7, 58, 0
9, 16317, Note_on_c, 7, 53, 0
9, 16329, Note_on_c, 7, 53, 56
9, 16329, Note_on_c, 7, 57, 56
9, 16329, Note_on_c, 7, 60, 56
9, 17277, Note_on_c, 7, 60, 0
9, 17277, Note_on_c, 7, 57, 0
9, 17277, Note_on_c, 7, 53, 0
9, 17289, Note_on_c, 7, 51, 56
9, 17289, Note_on_c, 7, 56, 56
9, 17289, Note_on_c, 7, 60, 56
9, 18237, Note_on_c, 7, 60, 0
9, 18237, Note_on_c, 7, 56, 0
9, 18237, Note_on_c, 7, 51, 0
9, 18249, Note_on_c, 7, 51, 56
9, 18249, Note_on_c, 7, 55, 56
9, 18249, Note_on_c, 7, 58, 56
9, 19197, Note_on_c, 7, 58, 0
9, 19197, Note_on_c, 7, 55, 0
9, 19197, Note_on_c, 7, 51, 0
9, 19209, Note_on_c, 7, 49, 56
9, 19209, Note_on_c, 7, 54, 56
9, 19209, Note_on_c, 7, 58, 56
9, 20157, Note_on_c, 7, 58, 0
9, 20157, Note_on_c, 7, 54, 0
9, 20157, Note_on_c, 7, 49, 0
9, 20169, Note_on_c, 7, 49, 56
9, 20169, Note_on_c, 7, 53, 56
9, 20169, Note_on_c, 7, 56, 56
9, 20642, Note_on_c, 7, 53, 0
9, 20642, Note_on_c, 7, 49, 0
9, 20644, Note_on_c, 7, 56, 0
9, 20649, Note_on_c, 7, 48, 56
9, 20649, Note_on_c, 7, 53, 56
9, 20649, Note_on_c, 7, 56, 56
9, 21122, Note_on_c, 7, 53, 0
9, 21122, Note_on_c, 7, 48, 0
9, 21124, Note_on_c, 7, 56, 0
9, 21129, Note_on_c, 7, 49, 56
9, 21129, Note_on_c, 7, 54, 56
9, 21129, Note_on_c, 7, 58, 56
9, 21602, Note_on_c, 7, 54, 0
9, 21602, Note_on_c, 7, 49, 0
9, 21604, Note_on_c, 7, 58, 0
9, 21609, Note_on_c, 7, 51, 56
9, 21609, Note_on_c, 7, 56, 56
9, 21609, Note_on_c, 7, 60, 56
9, 22082, Note_on_c, 7, 56, 0
9, 22082, Note_on_c, 7, 51, 0
9, 22084, Note_on_c, 7, 60, 0
9, 22089, Note_on_c, 7, 53, 56
9, 22089, Note_on_c, 7, 56, 56
9, 22089, Note_on_c, 7, 61, 56
9, 22562, Note_on_c, 7, 56, 0
9, 22562, Note_on_c, 7, 53, 0
9, 22564, Note_on_c, 7, 61, 0
9, 22569, Note_on_c, 7, 49, 56
9, 22569, Note_on_c, 7, 53, 56
9, 22569, Note_on_c, 7, 58, 56
9, 23042, Note_on_c, 7, 53, 0
9, 23042, Note_on_c, 7, 49, 0
9, 23044, Note_on_c, 7, 58, 0
9, 23049, Note_on_c, 7, 49, 56
9, 23049, Note_on_c, 7, 54, 56
9, 23049, Note_on_c, 7, 58, 56
9, 23522, Note_on_c, 7, 54, 0
9, 23522, Note_on_c, 7, 49, 0
9, 23524, Note_on_c, 7, 58, 0
9, 23529, Note_on_c, 7, 51, 56
9, 23529, Note_on_c, 7, 56, 56
9, 23529, Note_on_c, 7, 60, 56
9, 24002, Note_on_c, 7, 56, 0
9, 24002, Note_on_c, 7, 51, 0
9, 24004, Note_on_c, 7, 60, 0
9, 39369, Note_on_c, 7, 53, 56
9, 39369, Note_on_c, 7, 58, 56
9, 39369, Note_on_c, 7, 62, 56
9, 40317, Note_on_c, 7, 53, 0
9, 40320, Note_on_c, 7, 62, 0
9, 40320, Note_on_c, 7, 58, 0
9, 40329, Note_on_c, 7, 53, 56
9, 40329, Note_on_c, 7, 57, 56
9, 40329, Note_on_c, 7, 60, 56
9, 41277, Note_on_c, 7, 57, 0
9, 41277, Note_on_c, 7, 53, 0
9, 41282, Note_on_c, 7, 60, 0
9, 41289, Note_on_c, 7, 51, 56
9, 41289, Note_on_c, 7, 56, 56
9, 41289, Note_on_c, 7, 60, 56
9, 42237, Note_on_c, 7, 56, 0
9, 42237, Note_on_c, 7, 51, 0
9, 42242, Note_on_c, 7, 60, 0
9, 42249, Note_on_c, 7, 51, 56
9, 42249, Note_on_c, 7, 55, 56
9, 42249, Note_on_c, 7, 58, 56
9, 43197, Note_on_c, 7, 55, 0
9, 43197, Note_on_c, 7, 51, 0
9, 43202, Note_on_c, 7, 58, 0
9, 43209, Note_on_c, 7, 49, 56
9, 43209, Note_on_c, 7, 54, 56
9, 43209, Note_on_c, 7, 58, 56
9, 44157, Note_on_c, 7, 54, 0
9, 44157, Note_on_c, 7, 49, 0
9, 44162, Note_on_c, 7, 58, 0
9, 44169, Note_on_c, 7, 49, 56
9, 44169, Note_on_c, 7, 53, 56
9, 44169, Note_on_c, 7, 56, 56
9, 44642, Note_on_c, 7, 49, 0
9, 44644, Note_on_c, 7, 56, 0
9, 44644, Note_on_c, 7, 53, 0
9, 44649, Note_on_c, 7, 48, 56
9, 44649, Note_on_c, 7, 53, 56
9, 44649, Note_on_c, 7, 56, 56
9, 45122, Note_on_c, 7, 48, 0
9, 45124, Note_on_c, 7, 56, 0
9, 45124, Note_on_c, 7, 53, 0
9, 45129, Note_on_c, 7, 49, 56
9, 45129, Note_on_c, 7, 54, 56
9, 45129, Note_on_c, 7, 58, 56
9, 45602, Note_on_c, 7, 49, 0
9, 45607, Note_on_c, 7, 58, 0
9, 45607, Note_on_c, 7, 54, 0
9, 45612, Note_on_c, 7, 51, 56
9, 45612, Note_on_c, 7, 56, 56
9, 45612, Note_on_c, 7, 60, 56
9, 46082, Note_on_c, 7, 51, 0
9, 46084, Note_on_c, 7, 60, 0
9, 46084, Note_on_c, 7, 56, 0
9, 46089, Note_on_c, 7, 53, 56
9, 46089, Note_on_c, 7, 56, 56
9, 46089, Note_on_c, 7, 61, 56
9, 46562, Note_on_c, 7, 53, 0
9, 46564, Note_on_c, 7, 61, 0
9, 46564, Note_on_c, 7, 56, 0
9, 46569, Note_on_c, 7, 49, 56
9, 46569, Note_on_c, 7, 53, 56
9, 46569, Note_on_c, 7, 58, 56
9, 47042, Note_on_c, 7, 49, 0
9, 47044, Note_on_c, 7, 58, 0
9, 47044, Note_on_c, 7, 53, 0
9, 47049, Note_on_c, 7, 49, 56
9, 47049, Note_on_c, 7, 54, 56
9, 47049, Note_on_c, 7, 58, 56
9, 47522, Note_on_c, 7, 49, 0
9, 47524, Note_on_c, 7, 58, 0
9, 47524, Note_on_c, 7, 54, 0
9, 47529, Note_on_c, 7, 51, 56
9, 47529, Note_on_c, 7, 56, 56
9, 47529, Note_on_c, 7, 60, 56
9, 48002, Note_on_c, 7, 51, 0
9, 48004, Note_on_c, 7, 60, 0
9, 48004, Note_on_c, 7, 56, 0
9, 64324, Control_c, 7, 64, 0
9, 64324, End_track
10, 0, Start_track
10, 0, MIDI_port, 0
10, 0, Title_t, "Brass"
10, 14, Program_c, 8, 62
10, 54432, Note_on_c, 8, 68, 80
10, 54432, Note_on_c, 8, 72, 80
10, 54753, Note_on_c, 8, 72, 0
10, 54753, Note_on_c, 8, 68, 0
10, 54907, Note_on_c, 8, 66, 80
10, 54912, Note_on_c, 8, 70, 80
10, 55233, Note_on_c, 8, 70, 0
10, 55233, Note_on_c, 8, 66, 0
10, 55387, Note_on_c, 8, 70, 80
10, 55392, Note_on_c, 8, 73, 80
10, 55689, Note_on_c, 8, 73, 0
10, 55689, Note_on_c, 8, 70, 0
10, 55872, Note_on_c, 8, 68, 80
10, 55872, Note_on_c, 8, 72, 80
10, 56193, Note_on_c, 8, 72, 0
10, 56193, Note_on_c, 8, 68, 0
10, 56352, Note_on_c, 8, 66, 80
10, 56352, Note_on_c, 8, 70, 80
10, 56673, Note_on_c, 8, 70, 0
10, 56673, Note_on_c, 8, 66, 0
10, 56827, Note_on_c, 8, 70, 80
10, 56832, Note_on_c, 8, 73, 80
10, 57129, Note_on_c, 8, 73, 0
10, 57129, Note_on_c, 8, 70, 0
10, 57307, Note_on_c, 8, 68, 80
10, 57312, Note_on_c, 8, 72, 80
10, 57633, Note_on_c, 8, 72, 0
10, 57633, Note_on_c, 8, 68, 0
10, 57792, Note_on_c, 8, 66, 80
10, 57792, Note_on_c, 8, 70, 80
10, 58116, Note_on_c, 8, 70, 0
10, 58116, Note_on_c, 8, 66, 0
10, 58272, Note_on_c, 8, 70, 80
10, 58272, Note_on_c, 8, 73, 80
10, 58567, Note_on_c, 8, 73, 0
10, 58567, Note_on_c, 8, 70, 0
10, 58747, Note_on_c, 8, 68, 80
10, 58752, Note_on_c, 8, 72, 80
10, 59073, Note_on_c, 8, 72, 0
10, 59073, Note_on_c, 8, 68, 0
10, 59227, Note_on_c, 8, 66, 80
10, 59232, Note_on_c, 8, 70, 80
10, 59556, Note_on_c, 8, 70, 0
10, 59556, Note_on_c, 8, 66, 0
10, 59712, Note_on_c, 8, 70, 80
10, 59712, Note_on_c, 8, 73, 80
10, 60007, Note_on_c, 8, 73, 0
10, 60007, Note_on_c, 8, 70, 0
10, 60192, Note_on_c, 8, 68, 80
10, 60192, Note_on_c, 8, 72, 80
10, 60513, Note_on_c, 8, 72, 0
10, 60513, Note_on_c, 8, 68, 0
10, 60667, Note_on_c, 8, 66, 80
10, 60672, Note_on_c, 8, 70, 80
10, 60993, Note_on_c, 8, 70, 0
10, 60993, Note_on_c, 8, 66, 0
10, 61147, Note_on_c, 8, 70, 80
10, 61152, Note_on_c, 8, 73, 80
10, 61447, Note_on_c, 8, 73, 0
10, 61447, Note_on_c, 8, 70, 0
10, 61632, Note_on_c, 8, 68, 80
10, 61632, Note_on_c, 8, 72, 80
10, 61953, Note_on_c, 8, 72, 0
10, 61953, Note_on_c, 8, 68, 0
10, 62112, Note_on_c, 8, 66, 80
10, 62112, Note_on_c, 8, 70, 80
10, 62433, Note_on_c, 8, 70, 0
10, 62433, Note_on_c, 8, 66, 0
10, 62587, Note_on_c, 8, 70, 80
10, 62592, Note_on_c, 8, 73, 80
10, 62887, Note_on_c, 8, 73, 0
10, 62887, Note_on_c, 8, 70, 0
10, 63067, Note_on_c, 8, 68, 80
10, 63072, Note_on_c, 8, 72, 80
10, 63393, Note_on_c, 8, 72, 0
10, 63393, Note_on_c, 8, 68, 0
10, 63552, Note_on_c, 8, 66, 80
10, 63552, Note_on_c, 8, 70, 80
10, 63873, Note_on_c, 8, 70, 0
10, 63873, Note_on_c, 8, 66, 0
10, 64027, Note_on_c, 8, 70, 80
10, 64032, Note_on_c, 8, 73, 80
10, 64324, Note_on_c, 8, 73, 0
10, 64324, Note_on_c, 8, 70, 0
10, 64324, Control_c, 8, 64, 0
10, 64324, End_track
11, 0, Start_track
11, 0, MIDI_port, 0
11, 0, Title_t, "Drums"
11, 9, Note_on_c, 9, 36, 56
11, 9, Note_on_c, 9, 42, 56
11, 14, Note_on_c, 9, 69, 44
11, 16, Note_on_c, 9, 42, 0
11, 21, Note_on_c, 9, 36, 0
11, 28, Note_on_c, 9, 69, 0
11, 69, Note_on_c, 9, 36, 56
11, 69, Note_on_c, 9, 42, 40
11, 69, Note_on_c, 9, 69, 28
11, 74, Note_on_c, 9, 42, 0
11, 81, Note_on_c, 9, 36, 0
11, 84, Note_on_c, 9, 69, 0
11, 129, Note_on_c, 9, 38, 72
11, 129, Note_on_c, 9, 42, 56
11, 134, Note_on_c, 9, 42, 0
11, 139, Note_on_c, 9, 38, 0
11, 139, Note_on_c, 9, 69, 44
11, 156, Note_on_c, 9, 69, 0
11, 189, Note_on_c, 9, 69, 28
11, 189, Note_on_c, 9, 42, 40
11, 196, Note_on_c, 9, 42, 0
11, 204, Note_on_c, 9, 69, 0
11, 249, Note_on_c, 9, 36, 56
11, 249, Note_on_c, 9, 42, 56
11, 254, Note_on_c, 9, 42, 0
11, 254, Note_on_c, 9, 69, 44
11, 261, Note_on_c, 9, 36, 0
11, 273, Note_on_c, 9, 69, 0
11, 309, Note_on_c, 9, 38, 72
11, 309, Note_on_c, 9, 42, 40
11, 309, Note_on_c, 9, 69, 28
11, 319, Note_on_c, 9, 42, 0
11, 321, Note_on_c, 9, 38, 0
11, 328, Note_on_c, 9, 69, 0
11, 369, Note_on_c, 9, 42, 56
11, 374, Note_on_c, 9, 69, 44
11, 379, Note_on_c, 9, 42, 0
11, 393, Note_on_c, 9, 69, 0
11, 429, Note_on_c, 9, 46, 40
11, 434, Note_on_c, 9, 69, 28
11, 439, Note_on_c, 9, 46, 0
11, 444, Note_on_c, 9, 69, 0
11, 489, Note_on_c, 9, 42, 56
11, 489, Note_on_c, 9, 36, 56
11, 494, Note_on_c, 9, 42, 0
11, 494, Note_on_c, 9, 69, 44
11, 504, Note_on_c, 9, 36, 0
11, 511, Note_on_c, 9, 69, 0
11, 549, Note_on_c, 9, 36, 56
11, 549, Note_on_c, 9, 42, 40
11, 554, Note_on_c, 9, 42, 0
11, 554, Note_on_c, 9, 69, 28
11, 559, Note_on_c, 9, 36, 0
11, 564, Note_on_c, 9, 69, 0
11, 609, Note_on_c, 9, 42, 56
11, 609, Note_on_c, 9, 38, 72
11, 614, Note_on_c, 9, 42, 0
11, 614, Note_on_c, 9, 69, 44
11, 619, Note_on_c, 9, 38, 0
11, 631, Note_on_c, 9, 69, 0
11, 669, Note_on_c, 9, 69, 28
11, 669, Note_on_c, 9, 42, 40
11, 676, Note_on_c, 9, 42, 0
11, 681, Note_on_c, 9, 69, 0
11, 729, Note_on_c, 9, 69, 44
11, 729, Note_on_c, 9, 42, 56
11, 729, Note_on_c, 9, 36, 56
11, 734, Note_on_c, 9, 42, 0
11, 741, Note_on_c, 9, 36, 0
11, 744, Note_on_c, 9, 69, 0
11, 789, Note_on_c, 9, 38, 72
11, 789, Note_on_c, 9, 42, 40
11, 789, Note_on_c, 9, 69, 28
11, 796, Note_on_c, 9, 42, 0
11, 804, Note_on_c, 9, 69, 0
11, 804, Note_on_c, 9, 38, 0
11, 849, Note_on_c, 9, 42, 56
11, 854, Note_on_c, 9, 69, 44
11, 859, Note_on_c, 9, 42, 0
11, 866, Note_on_c, 9, 69, 0
11, 909, Note_on_c, 9, 46, 40
11, 914, Note_on_c, 9, 69, 28
11, 916, Note_on_c, 9, 46, 0
11, 926, Note_on_c, 9, 69, 0
11, 969, Note_on_c, 9, 42, 56
11, 969, Note_on_c, 9, 36, 56
11, 974, Note_on_c, 9, 42, 0
11, 974, Note_on_c, 9, 69, 44
11, 981, Note_on_c, 9, 36, 0
11, 988, Note_on_c, 9, 69, 0
11, 1029, Note_on_c, 9, 36, 56
11, 1029, Note_on_c, 9, 42, 40
11, 1034, Note_on_c, 9, 42, 0
11, 1034, Note_on_c, 9, 69, 28
11, 1041, Note_on_c, 9, 36, 0
11, 1044, Note_on_c, 9, 69, 0
11, 1089, Note_on_c, 9, 38, 72
11, 1089, Note_on_c, 9, 42, 56
11, 1096, Note_on_c, 9, 42, 0
11, 1096, Note_on_c, 9, 38, 0
11, 1096, Note_on_c, 9, 69, 44
11, 1116, Note_on_c, 9, 69, 0
11, 1149, Note_on_c, 9, 69, 28
11, 1149, Note_on_c, 9, 42, 40
11, 1156, Note_on_c, 9, 42, 0
11, 1164, Note_on_c, 9, 69, 0
11, 1209, Note_on_c, 9, 36, 56
11, 1209, Note_on_c, 9, 42, 56
11, 1214, Note_on_c, 9, 42, 0
11, 1214, Note_on_c, 9, 69, 44
11, 1221, Note_on_c, 9, 36, 0
11, 1233, Note_on_c, 9, 69, 0
11, 1269, Note_on_c, 9, 38, 72
11, 1269, Note_on_c, 9, 42, 40
11, 1274, Note_on_c, 9, 69, 28
11, 1279, Note_on_c, 9, 42, 0
11, 1281, Note_on_c, 9, 38, 0
11, 1288, Note_on_c, 9, 69, 0
11, 1329, Note_on_c, 9, 42, 56
11, 1334, Note_on_c, 9, 69, 44
11, 1336, Note_on_c, 9, 42, 0
11, 1353, Note_on_c, 9, 69, 0
11, 1389, Note_on_c, 9, 46, 40
11, 1394, Note_on_c, 9, 69, 28
11, 1396, Note_on_c, 9, 46, 0
11, 1404, Note_on_c, 9, 69, 0
11, 1449, Note_on_c, 9, 42, 56
11, 1449, Note_on_c, 9, 36, 56
11, 1454, Note_on_c, 9, 42, 0
11, 1454, Note_on_c, 9, 69, 44
11, 1461, Note_on_c, 9, 36, 0
11, 1471, Note_on_c, 9, 69, 0
11, 1509, Note_on_c, 9, 42, 40
11, 1509, Note_on_c, 9, 36, 56
11, 1509, Note_on_c, 9, 69, 28
11, 1514, Note_on_c, 9, 42, 0
11, 1519, Note_on_c, 9, 36, 0
11, 1524, Note_on_c, 9, 69, 0
11, 1569, Note_on_c, 9, 42, 56
11, 1569, Note_on_c, 9, 38, 72
11, 1574, Note_on_c, 9, 42, 0
11, 1574, Note_on_c, 9, 69, 44
11, 1579, Note_on_c, 9, 38, 0
11, 1593, Note_on_c, 9, 69, 0
11, 1629, Note_on_c, 9, 69, 28
11, 1629, Note_on_c, 9, 42, 40
11, 1636, Note_on_c, 9, 42, 0
11, 1641, Note_on_c, 9, 69, 0
11, 1689, Note_on_c, 9, 69, 44
11, 1689, Note_on_c, 9, 42, 56
11, 1689, Note_on_c, 9, 36, 56
11, 1694, Note_on_c, 9, 42, 0
11, 1704, Note_on_c, 9, 36, 0
11, 1704, Note_on_c, 9, 69, 0
11, 1749, Note_on_c, 9, 38, 72
11, 1749, Note_on_c, 9, 42, 40
11, 1749, Note_on_c, 9, 69, 28
11, 1759, Note_on_c, 9, 42, 0
11, 1764, Note_on_c, 9, 69, 0
11, 1764, Note_on_c, 9, 38, 0
11, 1809, Note_on_c, 9, 42, 56
11, 1814, Note_on_c, 9, 69, 44
11, 1819, Note_on_c, 9, 42, 0
11, 1826, Note_on_c, 9, 69, 0
11, 1869, Note_on_c, 9, 46, 40
11, 1874, Note_on_c, 9, 69, 28
11, 1879, Note_on_c, 9, 46, 0
11, 1888, Note_on_c, 9, 69, 0
11, 1929, Note_on_c, 9, 42, 56
11, 1929, Note_on_c, 9, 36, 56
11, 1929, Note_on_c, 9, 69, 44
11, 1936, Note_on_c, 9, 42, 0
11, 1941, Note_on_c, 9, 36, 0
11, 1948, Note_on_c, 9, 69, 0
11, 1989, Note_on_c, 9, 42, 40
11, 1989, Note_on_c, 9, 36, 56
11, 1994, Note_on_c, 9, 42, 0
11, 1994, Note_on_c, 9, 69, 28
11, 2001, Note_on_c, 9, 36, 0
11, 2004, Note_on_c, 9, 69, 0
11, 2049, Note_on_c, 9, 42, 56
11, 2049, Note_on_c, 9, 38, 72
11, 2054, Note_on_c, 9, 42, 0
11, 2059, Note_on_c, 9, 38, 0
11, 2059, Note_on_c, 9, 69, 44
11, 2076, Note_on_c, 9, 69, 0
11, 2109, Note_on_c, 9, 42, 40
11, 2109, Note_on_c, 9, 69, 28
11, 2116, Note_on_c, 9, 42, 0
11, 2124, Note_on_c, 9, 69, 0
11, 2169, Note_on_c, 9, 42, 56
11, 2169, Note_on_c, 9, 36, 56
11, 2174, Note_on_c, 9, 42, 0
11, 2174, Note_on_c, 9, 69, 44
11, 2181, Note_on_c, 9, 36, 0
11, 2193, Note_on_c, 9, 69, 0
11, 2229, Note_on_c, 9, 42, 40
11, 2229, Note_on_c, 9, 38, 72
11, 2234, Note_on_c, 9, 69, 28
11, 2239, Note_on_c, 9, 42, 0
11, 2244, Note_on_c, 9, 38, 0
11, 2248, Note_on_c, 9, 69, 0
11, 2289, Note_on_c, 9, 42, 56
11, 2294, Note_on_c, 9, 69, 44
11, 2299, Note_on_c, 9, 42, 0
11, 2313, Note_on_c, 9, 69, 0
11, 2349, Note_on_c, 9, 42, 40
11, 2354, Note_on_c, 9, 69, 28
11, 2359, Note_on_c, 9, 42, 0
11, 2364, Note_on_c, 9, 69, 0
11, 2409, Note_on_c, 9, 42, 56
11, 2409, Note_on_c, 9, 36, 56
11, 2414, Note_on_c, 9, 42, 0
11, 2414, Note_on_c, 9, 69, 44
11, 2421, Note_on_c, 9, 36, 0
11, 2431, Note_on_c, 9, 69, 0
11, 2469, Note_on_c, 9, 36, 56
11, 2469, Note_on_c, 9, 42, 40
11, 2474, Note_on_c, 9, 42, 0
11, 2474, Note_on_c, 9, 69, 28
11, 2481, Note_on_c, 9, 36, 0
11, 2484, Note_on_c, 9, 69, 0
11, 2529, Note_on_c, 9, 38, 72
11, 2529, Note_on_c, 9, 42, 56
11, 2534, Note_on_c, 9, 42, 0
11, 2534, Note_on_c, 9, 69, 44
11, 2539, Note_on_c, 9, 38, 0
11, 2551, Note_on_c, 9, 69, 0
11, 2589, Note_on_c, 9, 69, 28
11, 2589, Note_on_c, 9, 42, 40
11, 2596, Note_on_c, 9, 42, 0
11, 2601, Note_on_c, 9, 69, 0
11, 2649, Note_on_c, 9, 69, 44
11, 2649, Note_on_c, 9, 42, 56
11, 2649, Note_on_c, 9, 36, 56
11, 2654, Note_on_c, 9, 42, 0
11, 2661, Note_on_c, 9, 36, 0
11, 2666, Note_on_c, 9, 69, 0
11, 2709, Note_on_c, 9, 38, 72
11, 2709, Note_on_c, 9, 42, 40
11, 2709, Note_on_c, 9, 69, 28
11, 2719, Note_on_c, 9, 42, 0
11, 2724, Note_on_c, 9, 69, 0
11, 2724, Note_on_c, 9, 38, 0
11, 2769, Note_on_c, 9, 42, 56
11, 2769, Note_on_c, 9, 69, 44
11, 2776, Note_on_c, 9, 42, 0
11, 2786, Note_on_c, 9, 69, 0
11, 2829, Note_on_c, 9, 46, 40
11, 2834, Note_on_c, 9, 69, 28
11, 2839, Note_on_c, 9, 46, 0
11, 2846, Note_on_c, 9, 69, 0
11, 2889, Note_on_c, 9, 42, 56
11, 2889, Note_on_c, 9, 36, 56
11, 2894, Note_on_c, 9, 42, 0
11, 2894, Note_on_c, 9, 69, 44
11, 2904, Note_on_c, 9, 36, 0
11, 2908, Note_on_c, 9, 69, 0
11, 2949, Note_on_c, 9, 42, 40
11, 2949, Note_on_c, 9, 36, 56
11, 2949, Note_on_c, 9, 69, 28
11, 2954, Note_on_c, 9, 42, 0
11, 2961, Note_on_c, 9, 36, 0
11, 2964, Note_on_c, 9, 69, 0
11, 3009, Note_on_c, 9, 42, 56
11, 3009, Note_on_c, 9, 38, 72
11, 3014, Note_on_c, 9, 42, 0
11, 3019, Note_on_c, 9, 38, 0
11, 3019, Note_on_c, 9, 69, 44
11, 3036, Note_on_c, 9, 69, 0
11, 3069, Note_on_c, 9, 69, 28
11, 3069, Note_on_c, 9, 42, 40
11, 3076, Note_on_c, 9, 42, 0
11, 3084, Note_on_c, 9, 69, 0
11, 3129, Note_on_c, 9, 36, 56
11, 3129, Note_on_c, 9, 42, 56
11, 3134, Note_on_c, 9, 42, 0
11, 3134, Note_on_c, 9, 69, 44
11, 3141, Note_on_c, 9, 36, 0
11, 3153, Note_on_c, 9, 69, 0
11, 3189, Note_on_c, 9, 38, 72
11, 3189, Note_on_c, 9, 42, 40
11, 3194, Note_on_c, 9, 69, 28
11, 3199, Note_on_c, 9, 42, 0
11, 3201, Note_on_c, 9, 38, 0
11, 3208, Note_on_c, 9, 69, 0
11, 3249, Note_on_c, 9, 42, 56
11, 3254, Note_on_c, 9, 69, 44
11, 3259, Note_on_c, 9, 42, 0
11, 3273, Note_on_c, 9, 69, 0
11, 3309, Note_on_c, 9, 46, 40
11, 3314, Note_on_c, 9, 69, 28
11, 3319, Note_on_c, 9, 46, 0
11, 3324, Note_on_c, 9, 69, 0
11, 3367, Note_on_c, 9, 42, 56
11, 3367, Note_on_c, 9, 36, 56
11, 3374, Note_on_c, 9, 42, 0
11, 3374, Note_on_c, 9, 69, 44
11, 3381, Note_on_c, 9, 36, 0
11, 3391, Note_on_c, 9, 69, 0
11, 3429, Note_on_c, 9, 36, 56
11, 3429, Note_on_c, 9, 42, 40
11, 3434, Note_on_c, 9, 42, 0
11, 3434, Note_on_c, 9, 69, 28
11, 3439, Note_on_c, 9, 36, 0
11, 3444, Note_on_c, 9, 69, 0
11, 3489, Note_on_c, 9, 38, 72
11, 3489, Note_on_c, 9, 42, 56
11, 3494, Note_on_c, 9, 42, 0
11, 3494, Note_on_c, 9, 69, 44
11, 3499, Note_on_c, 9, 38, 0
11, 3511, Note_on_c, 9, 69, 0
11, 3549, Note_on_c, 9, 69, 28
11, 3549, Note_on_c, 9, 42, 40
11, 3556, Note_on_c, 9, 42, 0
11, 3561, Note_on_c, 9, 69, 0
11, 3609, Note_on_c, 9, 69, 44
11, 3609, Note_on_c, 9, 42, 56
11, 3609, Note_on_c, 9, 36, 56
11, 3614, Note_on_c, 9, 42, 0
11, 3621, Note_on_c, 9, 36, 0
11, 3624, Note_on_c, 9, 69, 0
11, 3669, Note_on_c, 9, 38, 72
11, 3669, Note_on_c, 9, 42, 40
11, 3669, Note_on_c, 9, 69, 28
11, 3679, Note_on_c, 9, 42, 0
11, 3684, Note_on_c, 9, 69, 0
11, 3684, Note_on_c, 9, 38, 0
11, 3729, Note_on_c, 9, 42, 56
11, 3734, Note_on_c, 9, 69, 44
11, 3739, Note_on_c, 9, 42, 0
11, 3746, Note_on_c, 9, 69, 0
11, 3789, Note_on_c, 9, 46, 40
11, 3794, Note_on_c, 9, 69, 28
11, 3799, Note_on_c, 9, 46, 0
11, 3806, Note_on_c, 9, 69, 0
11, 3849, Note_on_c, 9, 42, 56
11, 3849, Note_on_c, 9, 36, 56
11, 3854, Note_on_c, 9, 42, 0
11, 3854, Note_on_c, 9, 69, 44
11, 3861, Note_on_c, 9, 36, 0
11, 3868, Note_on_c, 9, 69, 0
11, 3909, Note_on_c, 9, 36, 56
11, 3909, Note_on_c, 9, 42, 40
11, 3914, Note_on_c, 9, 42, 0
11, 3914, Note_on_c, 9, 69, 28
11, 3921, Note_on_c, 9, 36, 0
11, 3924, Note_on_c, 9, 69, 0
11, 3969, Note_on_c, 9, 38, 72
11, 3969, Note_on_c, 9, 42, 56
11, 3974, Note_on_c, 9, 42, 0
11, 3979, Note_on_c, 9, 38, 0
11, 3979, Note_on_c, 9, 69, 44
11, 3996, Note_on_c, 9, 69, 0
11, 4029, Note_on_c, 9, 69, 28
11, 4029, Note_on_c, 9, 42, 40
11, 4036, Note_on_c, 9, 42, 0
11, 4044, Note_on_c, 9, 69, 0
11, 4089, Note_on_c, 9, 36, 56
11, 4089, Note_on_c, 9, 42, 56
11, 4094, Note_on_c, 9, 42, 0
11, 4094, Note_on_c, 9, 69, 44
11, 4101, Note_on_c, 9, 36, 0
11, 4113, Note_on_c, 9, 69, 0
11, 4149, Note_on_c, 9, 38, 72
11, 4149, Note_on_c, 9, 42, 40
11, 4154, Note_on_c, 9, 69, 28
11, 4159, Note_on_c, 9, 42, 0
11, 4161, Note_on_c, 9, 38, 0
11, 4168, Note_on_c, 9, 69, 0
11, 4209, Note_on_c, 9, 42, 56
11, 4214, Note_on_c, 9, 69, 44
11, 4219, Note_on_c, 9, 42, 0
11, 4233, Note_on_c, 9, 69, 0
11, 4269, Note_on_c, 9, 46, 40
11, 4274, Note_on_c, 9, 69, 28
11, 4279, Note_on_c, 9, 46, 0
11, 4284, Note_on_c, 9, 69, 0
11, 4329, Note_on_c, 9, 42, 56
11, 4329, Note_on_c, 9, 36, 56
11, 4334, Note_on_c, 9, 69, 44
11, 4339, Note_on_c, 9, 42, 0
11, 4341, Note_on_c, 9, 36, 0
11, 4353, Note_on_c, 9, 69, 0
11, 4389, Note_on_c, 9, 42, 40
11, 4389, Note_on_c, 9, 36, 56
11, 4389, Note_on_c, 9, 69, 28
11, 4394, Note_on_c, 9, 42, 0
11, 4399, Note_on_c, 9, 36, 0
11, 4404, Note_on_c, 9, 69, 0
11, 4449, Note_on_c, 9, 42, 56
11, 4449, Note_on_c, 9, 38, 72
11, 4454, Note_on_c, 9, 42, 0
11, 4454, Note_on_c, 9, 69, 44
11, 4459, Note_on_c, 9, 38, 0
11, 4473, Note_on_c, 9, 69, 0
11, 4509, Note_on_c, 9, 69, 28
11, 4509, Note_on_c, 9, 42, 40
11, 4516, Note_on_c, 9, 42, 0
11, 4521, Note_on_c, 9, 69, 0
11, 4569, Note_on_c, 9, 69, 44
11, 4569, Note_on_c, 9, 42, 56
11, 4569, Note_on_c, 9, 36, 56
11, 4574, Note_on_c, 9, 42, 0
11, 4581, Note_on_c, 9, 36, 0
11, 4584, Note_on_c, 9, 69, 0
11, 4629, Note_on_c, 9, 38, 72
11, 4629, Note_on_c, 9, 42, 40
11, 4629, Note_on_c, 9, 69, 28
11, 4639, Note_on_c, 9, 42, 0
11, 4644, Note_on_c, 9, 69, 0
11, 4644, Note_on_c, 9, 38, 0
11, 4689, Note_on_c, 9, 42, 56
11, 4694, Note_on_c, 9, 69, 44
11, 4699, Note_on_c, 9, 42, 0
11, 4706, Note_on_c, 9, 69, 0
11, 4749, Note_on_c, 9, 46, 40
11, 4754, Note_on_c, 9, 69, 28
11, 4759, Note_on_c, 9, 46, 0
11, 4766, Note_on_c, 9, 69, 0
11, 4807, Note_on_c, 9, 36, 56
11, 4807, Note_on_c, 9, 42, 56
11, 4812, Note_on_c, 9, 69, 44
11, 4816, Note_on_c, 9, 42, 0
11, 4821, Note_on_c, 9, 36, 0
11, 4828, Note_on_c, 9, 69, 0
11, 4869, Note_on_c, 9, 36, 56
11, 4869, Note_on_c, 9, 42, 40
11, 4874, Note_on_c, 9, 42, 0
11, 4874, Note_on_c, 9, 69, 28
11, 4881, Note_on_c, 9, 36, 0
11, 4884, Note_on_c, 9, 69, 0
11, 4929, Note_on_c, 9, 38, 72
11, 4929, Note_on_c, 9, 42, 56
11, 4934, Note_on_c, 9, 42, 0
11, 4939, Note_on_c, 9, 38, 0
11, 4939, Note_on_c, 9, 69, 44
11, 4956, Note_on_c, 9, 69, 0
11, 4989, Note_on_c, 9, 69, 28
11, 4989, Note_on_c, 9, 42, 40
11, 4996, Note_on_c, 9, 42, 0
11, 5004, Note_on_c, 9, 69, 0
11, 5049, Note_on_c, 9, 36, 56
11, 5049, Note_on_c, 9, 42, 56
11, 5054, Note_on_c, 9, 42, 0
11, 5054, Note_on_c, 9, 69, 44
11, 5061, Note_on_c, 9, 36, 0
11, 5073, Note_on_c, 9, 69, 0
11, 5109, Note_on_c, 9, 38, 72
11, 5109, Note_on_c, 9, 42, 40
11, 5114, Note_on_c, 9, 69, 28
11, 5119, Note_on_c, 9, 42, 0
11, 5121, Note_on_c, 9, 38, 0
11, 5128, Note_on_c, 9, 69, 0
11, 5169, Note_on_c, 9, 42, 56
11, 5174, Note_on_c, 9, 69, 44
11, 5179, Note_on_c, 9, 42, 0
11, 5193, Note_on_c, 9, 69, 0
11, 5229, Note_on_c, 9, 46, 40
11, 5234, Note_on_c, 9, 69, 28
11, 5239, Note_on_c, 9, 46, 0
11, 5244, Note_on_c, 9, 69, 0
11, 5289, Note_on_c, 9, 42, 56
11, 5289, Note_on_c, 9, 36, 56
11, 5294, Note_on_c, 9, 69, 44
11, 5299, Note_on_c, 9, 42, 0
11, 5301, Note_on_c, 9, 36, 0
11, 5311, Note_on_c, 9, 69, 0
11, 5349, Note_on_c, 9, 36, 56
11, 5349, Note_on_c, 9, 42, 40
11, 5354, Note_on_c, 9, 42, 0
11, 5354, Note_on_c, 9, 69, 28
11, 5359, Note_on_c, 9, 36, 0
11, 5364, Note_on_c, 9, 69, 0
11, 5409, Note_on_c, 9, 38, 72
11, 5409, Note_on_c, 9, 42, 56
11, 5414, Note_on_c, 9, 42, 0
11, 5414, Note_on_c, 9, 69, 44
11, 5419, Note_on_c, 9, 38, 0
11, 5431, Note_on_c, 9, 69, 0
11, 5469, Note_on_c, 9, 69, 28
11, 5469, Note_on_c, 9, 42, 40
11, 5476, Note_on_c, 9, 42, 0
11, 5481, Note_on_c, 9, 69, 0
11, 5529, Note_on_c, 9, 69, 44
11, 5529, Note_on_c, 9, 42, 56
11, 5529, Note_on_c, 9, 36, 56
11, 5534, Note_on_c, 9, 42, 0
11, 5541, Note_on_c, 9, 36, 0
11, 5544, Note_on_c, 9, 69, 0
11, 5589, Note_on_c, 9, 38, 72
11, 5589, Note_on_c, 9, 42, 40
11, 5589, Note_on_c, 9, 69, 28
11, 5599, Note_on_c, 9, 42, 0
11, 5604, Note_on_c, 9, 69, 0
11, 5604, Note_on_c, 9, 38, 0
11, 5649, Note_on_c, 9, 42, 56
11, 5654, Note_on_c, 9, 69, 44
11, 5659, Note_on_c, 9, 42, 0
11, 5666, Note_on_c, 9, 69, 0
11, 5709, Note_on_c, 9, 46, 40
11, 5714, Note_on_c, 9, 69, 28
11, 5719, Note_on_c, 9, 46, 0
11, 5726, Note_on_c, 9, 69, 0
11, 5769, Note_on_c, 9, 42, 56
11, 5769, Note_on_c, 9, 36, 56
11, 5774, Note_on_c, 9, 69, 44
11, 5779, Note_on_c, 9, 42, 0
11, 5781, Note_on_c, 9, 36, 0
11, 5788, Note_on_c, 9, 69, 0
11, 5829, Note_on_c, 9, 42, 40
11, 5829, Note_on_c, 9, 36, 56
11, 5829, Note_on_c, 9, 69, 28
11, 5834, Note_on_c, 9, 42, 0
11, 5844, Note_on_c, 9, 69, 0
11, 5844, Note_on_c, 9, 36, 0
11, 5889, Note_on_c, 9, 42, 56
11, 5889, Note_on_c, 9, 38, 72
11, 5894, Note_on_c, 9, 42, 0
11, 5899, Note_on_c, 9, 38, 0
11, 5899, Note_on_c, 9, 69, 44
11, 5916, Note_on_c, 9, 69, 0
11, 5949, Note_on_c, 9, 69, 28
11, 5949, Note_on_c, 9, 42, 40
11, 5956, Note_on_c, 9, 42, 0
11, 5964, Note_on_c, 9, 69, 0
11, 6009, Note_on_c, 9, 36, 56
11, 6009, Note_on_c, 9, 42, 56
11, 6014, Note_on_c, 9, 42, 0
11, 6014, Note_on_c, 9, 69, 44
11, 6021, Note_on_c, 9, 36, 0
11, 6033, Note_on_c, 9, 69, 0
11, 6069, Note_on_c, 9, 38, 72
11, 6069, Note_on_c, 9, 42, 40
11, 6074, Note_on_c, 9, 69, 28
11, 6079, Note_on_c, 9, 42, 0
11, 6081, Note_on_c, 9, 38, 0
11, 6088, Note_on_c, 9, 69, 0
11, 6129, Note_on_c, 9, 42, 56
11, 6134, Note_on_c, 9, 69, 44
11, 6139, Note_on_c, 9, 42, 0
11, 6153, Note_on_c, 9, 69, 0
11, 6189, Note_on_c, 9, 46, 40
11, 6194, Note_on_c, 9, 69, 28
11, 6199, Note_on_c, 9, 46, 0
11, 6204, Note_on_c, 9, 69, 0
11, 6247, Note_on_c, 9, 42, 56
11, 6247, Note_on_c, 9, 36, 56
11, 6254, Note_on_c, 9, 69, 44
11, 6259, Note_on_c, 9, 42, 0
11, 6261, Note_on_c, 9, 36, 0
11, 6271, Note_on_c, 9, 69, 0
11, 6309, Note_on_c, 9, 36, 56
11, 6309, Note_on_c, 9, 42, 40
11, 6314, Note_on_c, 9, 42, 0
11, 6314, Note_on_c, 9, 69, 28
11, 6319, Note_on_c, 9, 36, 0
11, 6324, Note_on_c, 9, 69, 0
11, 6369, Note_on_c, 9, 42, 56
11, 6369, Note_on_c, 9, 38, 72
11, 6374, Note_on_c, 9, 42, 0
11, 6374, Note_on_c, 9, 69, 44
11, 6379, Note_on_c, 9, 38, 0
11, 6391, Note_on_c, 9, 69, 0
11, 6429, Note_on_c, 9, 69, 28
11, 6429, Note_on_c, 9, 42, 40
11, 6436, Note_on_c, 9, 42, 0
11, 6441, Note_on_c, 9, 69, 0
11, 6489, Note_on_c, 9, 69, 44
11, 6489, Note_on_c, 9, 42, 56
11, 6489, Note_on_c, 9, 36, 56
11, 6494, Note_on_c, 9, 42, 0
11, 6501, Note_on_c, 9, 36, 0
11, 6504, Note_on_c, 9, 69, 0
11, 6549, Note_on_c, 9, 38, 72
11, 6549, Note_on_c, 9, 42, 40
11, 6549, Note_on_c, 9, 69, 28
11, 6559, Note_on_c, 9, 42, 0
11, 6564, Note_on_c, 9, 69, 0
11, 6564, Note_on_c, 9, 38, 0
11, 6609, Note_on_c, 9, 42, 56
11, 6614, Note_on_c, 9, 69, 44
11, 6619, Note_on_c, 9, 42, 0
11, 6626, Note_on_c, 9, 69, 0
11, 6669, Note_on_c, 9, 46, 40
11, 6674, Note_on_c, 9, 69, 28
11, 6679, Note_on_c, 9, 46, 0
11, 6686, Note_on_c, 9, 69, 0
11, 6732, Note_on_c, 9, 42, 56
11, 6732, Note_on_c, 9, 36, 56
11, 6732, Note_on_c, 9, 69, 44
11, 6736, Note_on_c, 9, 42, 0
11, 6741, Note_on_c, 9, 36, 0
11, 6748, Note_on_c, 9, 69, 0
11, 6789, Note_on_c, 9, 36, 56
11, 6789, Note_on_c, 9, 42, 40
11, 6794, Note_on_c, 9, 42, 0
11, 6794, Note_on_c, 9, 69, 28
11, 6801, Note_on_c, 9, 36, 0
11, 6806, Note_on_c, 9, 69, 0
11, 6849, Note_on_c, 9, 38, 72
11, 6849, Note_on_c, 9, 42, 56
11, 6854, Note_on_c, 9, 42, 0
11, 6859, Note_on_c, 9, 38, 0
11, 6859, Note_on_c, 9, 69, 44
11, 6876, Note_on_c, 9, 69, 0
11, 6909, Note_on_c, 9, 69, 28
11, 6909, Note_on_c, 9, 42, 40
11, 6916, Note_on_c, 9, 42, 0
11, 6924, Note_on_c, 9, 69, 0
11, 6969, Note_on_c, 9, 36, 56
11, 6969, Note_on_c, 9, 42, 56
11, 6974, Note_on_c, 9, 42, 0
11, 6974, Note_on_c, 9, 69, 44
11, 6981, Note_on_c, 9, 36, 0
11, 6993, Note_on_c, 9, 69, 0
11, 7029, Note_on_c, 9, 38, 72
11, 7029, Note_on_c, 9, 42, 40
11, 7034, Note_on_c, 9, 69, 28
11, 7039, Note_on_c, 9, 42, 0
11, 7044, Note_on_c, 9, 38, 0
11, 7048, Note_on_c, 9, 69, 0
11, 7089, Note_on_c, 9, 42, 56
11, 7094, Note_on_c, 9, 69, 44
11, 7099, Note_on_c, 9, 42, 0
11, 7113, Note_on_c, 9, 69, 0
11, 7149, Note_on_c, 9, 46, 40
11, 7154, Note_on_c, 9, 69, 28
11, 7159, Note_on_c, 9, 46, 0
11, 7164, Note_on_c, 9, 69, 0
11, 7209, Note_on_c, 9, 42, 56
11, 7209, Note_on_c, 9, 36, 56
11, 7214, Note_on_c, 9, 69, 44
11, 7219, Note_on_c, 9, 42, 0
11, 7221, Note_on_c, 9, 36, 0
11, 7231, Note_on_c, 9, 69, 0
11, 7269, Note_on_c, 9, 42, 40
11, 7269, Note_on_c, 9, 36, 56
11, 7269, Note_on_c, 9, 69, 28
11, 7274, Note_on_c, 9, 42, 0
11, 7279, Note_on_c, 9, 36, 0
11, 7284, Note_on_c, 9, 69, 0
11, 7329, Note_on_c, 9, 42, 56
11, 7329, Note_on_c, 9, 38, 72
11, 7334, Note_on_c, 9, 42, 0
11, 7334, Note_on_c, 9, 69, 44
11, 7339, Note_on_c, 9, 38, 0
11, 7353, Note_on_c, 9, 69, 0
11, 7389, Note_on_c, 9, 42, 40
11, 7389, Note_on_c, 9, 69, 28
11, 7396, Note_on_c, 9, 42, 0
11, 7401, Note_on_c, 9, 69, 0
11, 7449, Note_on_c, 9, 42, 56
11, 7449, Note_on_c, 9, 69, 44
11, 7449, Note_on_c, 9, 36, 56
11, 7454, Note_on_c, 9, 42, 0
11, 7461, Note_on_c, 9, 36, 0
11, 7464, Note_on_c, 9, 69, 0
11, 7509, Note_on_c, 9, 42, 40
11, 7509, Note_on_c, 9, 38, 72
11, 7509, Note_on_c, 9, 69, 28
11, 7519, Note_on_c, 9, 42, 0
11, 7524, Note_on_c, 9, 69, 0
11, 7524, Note_on_c, 9, 38, 0
11, 7572, Note_on_c, 9, 69, 44
11, 7586, Note_on_c, 9, 69, 0
11, 7629, Note_on_c, 9, 42, 40
11, 7634, Note_on_c, 9, 69, 28
11, 7639, Note_on_c, 9, 42, 0
11, 7646, Note_on_c, 9, 69, 0
11, 7648, Note_on_c, 9, 42, 40
11, 7658, Note_on_c, 9, 42, 0
11, 7668, Note_on_c, 9, 42, 40
11, 7677, Note_on_c, 9, 42, 0
11, 7689, Note_on_c, 9, 42, 56
11, 7689, Note_on_c, 9, 36, 56
11, 7696, Note_on_c, 9, 42, 0
11, 7701, Note_on_c, 9, 36, 0
11, 7749, Note_on_c, 9, 42, 40
11, 7749, Note_on_c, 9, 36, 56
11, 7754, Note_on_c, 9, 42, 0
11, 7761, Note_on_c, 9, 36, 0
11, 7809, Note_on_c, 9, 42, 56
11, 7809, Note_on_c, 9, 38, 72
11, 7814, Note_on_c, 9, 42, 0
11, 7819, Note_on_c, 9, 38, 0
11, 7869, Note_on_c, 9, 42, 40
11, 7876, Note_on_c, 9, 42, 0
11, 7929, Note_on_c, 9, 42, 56
11, 7929, Note_on_c, 9, 36, 56
11, 7934, Note_on_c, 9, 42, 0
11, 7941, Note_on_c, 9, 36, 0
11, 7989, Note_on_c, 9, 38, 72
11, 7989, Note_on_c, 9, 42, 40
11, 7999, Note_on_c, 9, 42, 0
11, 8001, Note_on_c, 9, 38, 0
11, 8049, Note_on_c, 9, 42, 56
11, 8059, Note_on_c, 9, 42, 0
11, 8109, Note_on_c, 9, 42, 40
11, 8116, Note_on_c, 9, 42, 0
11, 8167, Note_on_c, 9, 36, 56
11, 8167, Note_on_c, 9, 42, 56
11, 8176, Note_on_c, 9, 42, 0
11, 8181, Note_on_c, 9, 36, 0
11, 8229, Note_on_c, 9, 42, 40
11, 8229, Note_on_c, 9, 36, 56
11, 8234, Note_on_c, 9, 42, 0
11, 8239, Note_on_c, 9, 36, 0
11, 8289, Note_on_c, 9, 42, 56
11, 8289, Note_on_c, 9, 38, 72
11, 8294, Note_on_c, 9, 42, 0
11, 8299, Note_on_c, 9, 38, 0
11, 8349, Note_on_c, 9, 42, 40
11, 8356, Note_on_c, 9, 42, 0
11, 8409, Note_on_c, 9, 42, 56
11, 8409, Note_on_c, 9, 36, 56
11, 8414, Note_on_c, 9, 42, 0
11, 8421, Note_on_c, 9, 36, 0
11, 8469, Note_on_c, 9, 42, 40
11, 8469, Note_on_c, 9, 38, 72
11, 8479, Note_on_c, 9, 42, 0
11, 8484, Note_on_c, 9, 38, 0
11, 8529, Note_on_c, 9, 42, 56
11, 8536, Note_on_c, 9, 42, 0
11, 8589, Note_on_c, 9, 42, 40
11, 8596, Note_on_c, 9, 42, 0
11, 8649, Note_on_c, 9, 42, 56
11, 8649, Note_on_c, 9, 36, 56
11, 8656, Note_on_c, 9, 42, 0
11, 8661, Note_on_c, 9, 36, 0
11, 8709, Note_on_c, 9, 42, 40
11, 8709, Note_on_c, 9, 36, 56
11, 8714, Note_on_c, 9, 42, 0
11, 8721, Note_on_c, 9, 36, 0
11, 8769, Note_on_c, 9, 42, 56
11, 8769, Note_on_c, 9, 38, 72
11, 8774, Note_on_c, 9, 42, 0
11, 8779, Note_on_c, 9, 38, 0
11, 8829, Note_on_c, 9, 42, 40
11, 8836, Note_on_c, 9, 42, 0
11, 8889, Note_on_c, 9, 42, 56
11, 8889, Note_on_c, 9, 36, 56
11, 8894, Note_on_c, 9, 42, 0
11, 8901, Note_on_c, 9, 36, 0
11, 8949, Note_on_c, 9, 38, 72
11, 8949, Note_on_c, 9, 42, 40
11, 8959, Note_on_c, 9, 42, 0
11, 8961, Note_on_c, 9, 38, 0
11, 9009, Note_on_c, 9, 42, 56
11, 9016, Note_on_c, 9, 42, 0
11, 9069, Note_on_c, 9, 42, 40
11, 9076, Note_on_c, 9, 42, 0
11, 9129, Note_on_c, 9, 36, 56
11, 9129, Note_on_c, 9, 42, 56
11, 9134, Note_on_c, 9, 42, 0
11, 9141, Note_on_c, 9, 36, 0
11, 9189, Note_on_c, 9, 42, 40
11, 9189, Note_on_c, 9, 36, 56
11, 9194, Note_on_c, 9, 42, 0
11, 9199, Note_on_c, 9, 36, 0
11, 9249, Note_on_c, 9, 42, 56
11, 9249, Note_on_c, 9, 38, 72
11, 9254, Note_on_c, 9, 42, 0
11, 9259, Note_on_c, 9, 38, 0
11, 9309, Note_on_c, 9, 42, 40
11, 9316, Note_on_c, 9, 42, 0
11, 9369, Note_on_c, 9, 42, 56
11, 9369, Note_on_c, 9, 36, 56
11, 9374, Note_on_c, 9, 42, 0
11, 9381, Note_on_c, 9, 36, 0
11, 9429, Note_on_c, 9, 42, 40
11, 9429, Note_on_c, 9, 38, 72
11, 9439, Note_on_c, 9, 42, 0
11, 9444, Note_on_c, 9, 38, 0
11, 9489, Note_on_c, 9, 42, 56
11, 9496, Note_on_c, 9, 42, 0
11, 9549, Note_on_c, 9, 42, 40
11, 9556, Note_on_c, 9, 42, 0
11, 9609, Note_on_c, 9, 42, 56
11, 9609, Note_on_c, 9, 36, 56
11, 9614, Note_on_c, 9, 42, 0
11, 9621, Note_on_c, 9, 36, 0
11, 9669, Note_on_c, 9, 42, 40
11, 9669, Note_on_c, 9, 36, 56
11, 9674, Note_on_c, 9, 42, 0
11, 9681, Note_on_c, 9, 36, 0
11, 9729, Note_on_c, 9, 42, 56
11, 9729, Note_on_c, 9, 38, 72
11, 9734, Note_on_c, 9, 42, 0
11, 9739, Note_on_c, 9, 38, 0
11, 9789, Note_on_c, 9, 42, 40
11, 9796, Note_on_c, 9, 42, 0
11, 9849, Note_on_c, 9, 42, 56
11, 9849, Note_on_c, 9, 36, 56
11, 9854, Note_on_c, 9, 42, 0
11, 9861, Note_on_c, 9, 36, 0
11, 9909, Note_on_c, 9, 38, 72
11, 9909, Note_on_c, 9, 42, 40
11, 9919, Note_on_c, 9, 42, 0
11, 9921, Note_on_c, 9, 38, 0
11, 9969, Note_on_c, 9, 42, 56
11, 9976, Note_on_c, 9, 42, 0
11, 10029, Note_on_c, 9, 46, 40
11, 10036, Note_on_c, 9, 46, 0
11, 10089, Note_on_c, 9, 36, 56
11, 10089, Note_on_c, 9, 42, 56
11, 10094, Note_on_c, 9, 42, 0
11, 10101, Note_on_c, 9, 36, 0
11, 10149, Note_on_c, 9, 42, 40
11, 10149, Note_on_c, 9, 36, 56
11, 10154, Note_on_c, 9, 42, 0
11, 10159, Note_on_c, 9, 36, 0
11, 10209, Note_on_c, 9, 42, 56
11, 10209, Note_on_c, 9, 38, 72
11, 10214, Note_on_c, 9, 42, 0
11, 10219, Note_on_c, 9, 38, 0
11, 10269, Note_on_c, 9, 42, 40
11, 10276, Note_on_c, 9, 42, 0
11, 10329, Note_on_c, 9, 42, 56
11, 10329, Note_on_c, 9, 36, 56
11, 10334, Note_on_c, 9, 42, 0
11, 10341, Note_on_c, 9, 36, 0
11, 10389, Note_on_c, 9, 42, 40
11, 10389, Note_on_c, 9, 38, 72
11, 10399, Note_on_c, 9, 42, 0
11, 10404, Note_on_c, 9, 38, 0
11, 10449, Note_on_c, 9, 42, 56
11, 10456, Note_on_c, 9, 42, 0
11, 10509, Note_on_c, 9, 46, 40
11, 10516, Note_on_c, 9, 46, 0
11, 10569, Note_on_c, 9, 42, 56
11, 10569, Note_on_c, 9, 36, 56
11, 10574, Note_on_c, 9, 42, 0
11, 10581, Note_on_c, 9, 36, 0
11, 10629, Note_on_c, 9, 42, 40
11, 10629, Note_on_c, 9, 36, 56
11, 10634, Note_on_c, 9, 42, 0
11, 10641, Note_on_c, 9, 36, 0
11, 10689, Note_on_c, 9, 42, 56
11, 10689, Note_on_c, 9, 38, 72
11, 10694, Note_on_c, 9, 42, 0
11, 10699, Note_on_c, 9, 38, 0
11, 10749, Note_on_c, 9, 42, 40
11, 10756, Note_on_c, 9, 42, 0
11, 10809, Note_on_c, 9, 42, 56
11, 10809, Note_on_c, 9, 36, 56
11, 10814, Note_on_c, 9, 42, 0
11, 10821, Note_on_c, 9, 36, 0
11, 10869, Note_on_c, 9, 38, 72
11, 10869, Note_on_c, 9, 42, 40
11, 10879, Note_on_c, 9, 42, 0
11, 10881, Note_on_c, 9, 38, 0
11, 10929, Note_on_c, 9, 42, 56
11, 10936, Note_on_c, 9, 42, 0
11, 10989, Note_on_c, 9, 46, 40
11, 10999, Note_on_c, 9, 46, 0
11, 11049, Note_on_c, 9, 36, 56
11, 11049, Note_on_c, 9, 42, 56
11, 11054, Note_on_c, 9, 42, 0
11, 11061, Note_on_c, 9, 36, 0
11, 11109, Note_on_c, 9, 42, 40
11, 11109, Note_on_c, 9, 36, 56
11, 11114, Note_on_c, 9, 42, 0
11, 11119, Note_on_c, 9, 36, 0
11, 11169, Note_on_c, 9, 42, 56
11, 11169, Note_on_c, 9, 38, 72
11, 11174, Note_on_c, 9, 42, 0
11, 11179, Note_on_c, 9, 38, 0
11, 11229, Note_on_c, 9, 42, 40
11, 11236, Note_on_c, 9, 42, 0
11, 11289, Note_on_c, 9, 42, 56
11, 11289, Note_on_c, 9, 36, 56
11, 11294, Note_on_c, 9, 42, 0
11, 11301, Note_on_c, 9, 36, 0
11, 11349, Note_on_c, 9, 42, 40
11, 11349, Note_on_c, 9, 38, 72
11, 11359, Note_on_c, 9, 42, 0
11, 11364, Note_on_c, 9, 38, 0
11, 11409, Note_on_c, 9, 42, 56
11, 11416, Note_on_c, 9, 42, 0
11, 11469, Note_on_c, 9, 42, 40
11, 11476, Note_on_c, 9, 42, 0
11, 11529, Note_on_c, 9, 36, 56
11, 11529, Note_on_c, 9, 42, 56
11, 11534, Note_on_c, 9, 42, 0
11, 11544, Note_on_c, 9, 36, 0
11, 11589, Note_on_c, 9, 36, 56
11, 11589, Note_on_c, 9, 42, 40
11, 11594, Note_on_c, 9, 42, 0
11, 11604, Note_on_c, 9, 36, 0
11, 11649, Note_on_c, 9, 38, 72
11, 11649, Note_on_c, 9, 42, 56
11, 11654, Note_on_c, 9, 42, 0
11, 11656, Note_on_c, 9, 38, 0
11, 11709, Note_on_c, 9, 42, 40
11, 11716, Note_on_c, 9, 42, 0
11, 11769, Note_on_c, 9, 36, 56
11, 11769, Note_on_c, 9, 42, 56
11, 11774, Note_on_c, 9, 42, 0
11, 11784, Note_on_c, 9, 36, 0
11, 11829, Note_on_c, 9, 36, 56
11, 11829, Note_on_c, 9, 42, 40
11, 11836, Note_on_c, 9, 42, 0
11, 11841, Note_on_c, 9, 36, 0
11, 11889, Note_on_c, 9, 38, 72
11, 11889, Note_on_c, 9, 42, 56
11, 11896, Note_on_c, 9, 42, 0
11, 11901, Note_on_c, 9, 38, 0
11, 11949, Note_on_c, 9, 42, 40
11, 11956, Note_on_c, 9, 42, 0
11, 12009, Note_on_c, 9, 36, 56
11, 12009, Note_on_c, 9, 42, 56
11, 12014, Note_on_c, 9, 42, 0
11, 12026, Note_on_c, 9, 36, 0
11, 12069, Note_on_c, 9, 36, 56
11, 12069, Note_on_c, 9, 42, 40
11, 12074, Note_on_c, 9, 42, 0
11, 12084, Note_on_c, 9, 36, 0
11, 12129, Note_on_c, 9, 38, 72
11, 12129, Note_on_c, 9, 42, 56
11, 12134, Note_on_c, 9, 42, 0
11, 12136, Note_on_c, 9, 38, 0
11, 12189, Note_on_c, 9, 36, 56
11, 12189, Note_on_c, 9, 42, 40
11, 12196, Note_on_c, 9, 42, 0
11, 12201, Note_on_c, 9, 36, 0
11, 12249, Note_on_c, 9, 42, 56
11, 12254, Note_on_c, 9, 42, 0
11, 12309, Note_on_c, 9, 36, 56
11, 12309, Note_on_c, 9, 42, 40
11, 12316, Note_on_c, 9, 42, 0
11, 12324, Note_on_c, 9, 36, 0
11, 12369, Note_on_c, 9, 38, 72
11, 12369, Note_on_c, 9, 42, 56
11, 12376, Note_on_c, 9, 42, 0
11, 12381, Note_on_c, 9, 38, 0
11, 12429, Note_on_c, 9, 42, 40
11, 12436, Note_on_c, 9, 42, 0
11, 12489, Note_on_c, 9, 36, 56
11, 12489, Note_on_c, 9, 42, 56
11, 12494, Note_on_c, 9, 42, 0
11, 12504, Note_on_c, 9, 36, 0
11, 12549, Note_on_c, 9, 36, 56
11, 12549, Note_on_c, 9, 42, 40
11, 12554, Note_on_c, 9, 42, 0
11, 12564, Note_on_c, 9, 36, 0
11, 12609, Note_on_c, 9, 38, 72
11, 12609, Note_on_c, 9, 42, 56
11, 12614, Note_on_c, 9, 42, 0
11, 12616, Note_on_c, 9, 38, 0
11, 12669, Note_on_c, 9, 42, 40
11, 12676, Note_on_c, 9, 42, 0
11, 12729, Note_on_c, 9, 36, 56
11, 12729, Note_on_c, 9, 42, 56
11, 12734, Note_on_c, 9, 42, 0
11, 12744, Note_on_c, 9, 36, 0
11, 12789, Note_on_c, 9, 36, 56
11, 12789, Note_on_c, 9, 42, 40
11, 12796, Note_on_c, 9, 42, 0
11, 12801, Note_on_c, 9, 36, 0
11, 12849, Note_on_c, 9, 38, 72
11, 12849, Note_on_c, 9, 42, 56
11, 12856, Note_on_c, 9, 42, 0
11, 12861, Note_on_c, 9, 38, 0
11, 12909, Note_on_c, 9, 42, 40
11, 12916, Note_on_c, 9, 42, 0
11, 12969, Note_on_c, 9, 36, 56
11, 12969, Note_on_c, 9, 42, 56
11, 12974, Note_on_c, 9, 42, 0
11, 12986, Note_on_c, 9, 36, 0
11, 13029, Note_on_c, 9, 36, 56
11, 13029, Note_on_c, 9, 42, 40
11, 13034, Note_on_c, 9, 42, 0
11, 13044, Note_on_c, 9, 36, 0
11, 13089, Note_on_c, 9, 38, 72
11, 13089, Note_on_c, 9, 42, 56
11, 13094, Note_on_c, 9, 42, 0
11, 13096, Note_on_c, 9, 38, 0
11, 13149, Note_on_c, 9, 36, 56
11, 13149, Note_on_c, 9, 42, 40
11, 13156, Note_on_c, 9, 42, 0
11, 13161, Note_on_c, 9, 36, 0
11, 13209, Note_on_c, 9, 42, 56
11, 13214, Note_on_c, 9, 42, 0
11, 13269, Note_on_c, 9, 36, 56
11, 13269, Note_on_c, 9, 42, 40
11, 13276, Note_on_c, 9, 42, 0
11, 13284, Note_on_c, 9, 36, 0
11, 13329, Note_on_c, 9, 38, 72
11, 13329, Note_on_c, 9, 42, 56
11, 13336, Note_on_c, 9, 42, 0
11, 13341, Note_on_c, 9, 38, 0
11, 13389, Note_on_c, 9, 42, 40
11, 13396, Note_on_c, 9, 42, 0
11, 13449, Note_on_c, 9, 42, 56
11, 13449, Note_on_c, 9, 36, 56
11, 13459, Note_on_c, 9, 42, 0
11, 13464, Note_on_c, 9, 36, 0
11, 13509, Note_on_c, 9, 36, 56
11, 13509, Note_on_c, 9, 42, 40
11, 13514, Note_on_c, 9, 42, 0
11, 13524, Note_on_c, 9, 36, 0
11, 13569, Note_on_c, 9, 38, 72
11, 13569, Note_on_c, 9, 42, 56
11, 13574, Note_on_c, 9, 42, 0
11, 13576, Note_on_c, 9, 38, 0
11, 13629, Note_on_c, 9, 42, 40
11, 13636, Note_on_c, 9, 42, 0
11, 13689, Note_on_c, 9, 36, 56
11, 13689, Note_on_c, 9, 42, 56
11, 13694, Note_on_c, 9, 42, 0
11, 13704, Note_on_c, 9, 36, 0
11, 13749, Note_on_c, 9, 36, 56
11, 13749, Note_on_c, 9, 42, 40
11, 13756, Note_on_c, 9, 42, 0
11, 13761, Note_on_c, 9, 36, 0
11, 13809, Note_on_c, 9, 38, 72
11, 13809, Note_on_c, 9, 42, 56
11, 13816, Note_on_c, 9, 42, 0
11, 13821, Note_on_c, 9, 38, 0
11, 13869, Note_on_c, 9, 42, 40
11, 13876, Note_on_c, 9, 42, 0
11, 13929, Note_on_c, 9, 36, 56
11, 13929, Note_on_c, 9, 42, 56
11, 13934, Note_on_c, 9, 42, 0
11, 13946, Note_on_c, 9, 36, 0
11, 13989, Note_on_c, 9, 42, 40
11, 13989, Note_on_c, 9, 36, 56
11, 13994, Note_on_c, 9, 42, 0
11, 14004, Note_on_c, 9, 36, 0
11, 14049, Note_on_c, 9, 38, 72
11, 14049, Note_on_c, 9, 42, 56
11, 14054, Note_on_c, 9, 42, 0
11, 14056, Note_on_c, 9, 38, 0
11, 14109, Note_on_c, 9, 36, 56
11, 14109, Note_on_c, 9, 42, 40
11, 14116, Note_on_c, 9, 42, 0
11, 14121, Note_on_c, 9, 36, 0
11, 14169, Note_on_c, 9, 42, 56
11, 14174, Note_on_c, 9, 42, 0
11, 14229, Note_on_c, 9, 36, 56
11, 14229, Note_on_c, 9, 42, 40
11, 14236, Note_on_c, 9, 42, 0
11, 14244, Note_on_c, 9, 36, 0
11, 14289, Note_on_c, 9, 38, 72
11, 14289, Note_on_c, 9, 42, 56
11, 14296, Note_on_c, 9, 42, 0
11, 14301, Note_on_c, 9, 38, 0
11, 14349, Note_on_c, 9, 42, 40
11, 14356, Note_on_c, 9, 42, 0
11, 14409, Note_on_c, 9, 42, 56
11, 14409, Note_on_c, 9, 36, 56
11, 14419, Note_on_c, 9, 42, 0
11, 14424, Note_on_c, 9, 36, 0
11, 14469, Note_on_c, 9, 36, 56
11, 14469, Note_on_c, 9, 42, 40
11, 14474, Note_on_c, 9, 42, 0
11, 14484, Note_on_c, 9, 36, 0
11, 14529, Note_on_c, 9, 38, 72
11, 14529, Note_on_c, 9, 42, 56
11, 14534, Note_on_c, 9, 42, 0
11, 14536, Note_on_c, 9, 38, 0
11, 14589, Note_on_c, 9, 42, 40
11, 14596, Note_on_c, 9, 42, 0
11, 14649, Note_on_c, 9, 36, 56
11, 14649, Note_on_c, 9, 42, 56
11, 14654, Note_on_c, 9, 42, 0
11, 14664, Note_on_c, 9, 36, 0
11, 14709, Note_on_c, 9, 36, 56
11, 14709, Note_on_c, 9, 42, 40
11, 14716, Note_on_c, 9, 42, 0
11, 14721, Note_on_c, 9, 36, 0
11, 14769, Note_on_c, 9, 38, 72
11, 14769, Note_on_c, 9, 42, 56
11, 14776, Note_on_c, 9, 42, 0
11, 14781, Note_on_c, 9, 38, 0
11, 14829, Note_on_c, 9, 42, 40
11, 14836, Note_on_c, 9, 42, 0
11, 14889, Note_on_c, 9, 36, 56
11, 14889, Note_on_c, 9, 42, 56
11, 14894, Note_on_c, 9, 42, 0
11, 14906, Note_on_c, 9, 36, 0
11, 14949, Note_on_c, 9, 36, 56
11, 14949, Note_on_c, 9, 42, 40
11, 14954, Note_on_c, 9, 42, 0
11, 14964, Note_on_c, 9, 36, 0
11, 15009, Note_on_c, 9, 38, 72
11, 15009, Note_on_c, 9, 42, 56
11, 15014, Note_on_c, 9, 42, 0
11, 15016, Note_on_c, 9, 38, 0
11, 15069, Note_on_c, 9, 36, 56
11, 15069, Note_on_c, 9, 42, 40
11, 15076, Note_on_c, 9, 42, 0
11, 15081, Note_on_c, 9, 36, 0
11, 15129, Note_on_c, 9, 42, 56
11, 15134, Note_on_c, 9, 42, 0
11, 15189, Note_on_c, 9, 36, 56
11, 15189, Note_on_c, 9, 42, 40
11, 15196, Note_on_c, 9, 42, 0
11, 15204, Note_on_c, 9, 36, 0
11, 15249, Note_on_c, 9, 38, 72
11, 15261, Note_on_c, 9, 38, 0
11, 15309, Note_on_c, 9, 42, 40
11, 15316, Note_on_c, 9, 42, 0
11, 15328, Note_on_c, 9, 42, 40
11, 15338, Note_on_c, 9, 42, 0
11, 15348, Note_on_c, 9, 42, 40
11, 15357, Note_on_c, 9, 42, 0
11, 15369, Note_on_c, 9, 42, 56
11, 15369, Note_on_c, 9, 36, 56
11, 15374, Note_on_c, 9, 42, 0
11, 15374, Note_on_c, 9, 69, 44
11, 15381, Note_on_c, 9, 36, 0
11, 15388, Note_on_c, 9, 69, 0
11, 15429, Note_on_c, 9, 36, 56
11, 15429, Note_on_c, 9, 42, 40
11, 15434, Note_on_c, 9, 42, 0
11, 15434, Note_on_c, 9, 69, 28
11, 15441, Note_on_c, 9, 36, 0
11, 15446, Note_on_c, 9, 69, 0
11, 15489, Note_on_c, 9, 38, 72
11, 15489, Note_on_c, 9, 42, 56
11, 15494, Note_on_c, 9, 42, 0
11, 15496, Note_on_c, 9, 38, 0
11, 15496, Note_on_c, 9, 69, 44
11, 15513, Note_on_c, 9, 69, 0
11, 15549, Note_on_c, 9, 69, 28
11, 15549, Note_on_c, 9, 42, 40
11, 15556, Note_on_c, 9, 42, 0
11, 15564, Note_on_c, 9, 69, 0
11, 15609, Note_on_c, 9, 36, 56
11, 15609, Note_on_c, 9, 42, 56
11, 15614, Note_on_c, 9, 42, 0
11, 15614, Note_on_c, 9, 69, 44
11, 15621, Note_on_c, 9, 36, 0
11, 15633, Note_on_c, 9, 69, 0
11, 15669, Note_on_c, 9, 38, 72
11, 15669, Note_on_c, 9, 42, 40
11, 15674, Note_on_c, 9, 69, 28
11, 15679, Note_on_c, 9, 42, 0
11, 15681, Note_on_c, 9, 38, 0
11, 15688, Note_on_c, 9, 69, 0
11, 15729, Note_on_c, 9, 42, 56
11, 15734, Note_on_c, 9, 69, 44
11, 15739, Note_on_c, 9, 42, 0
11, 15753, Note_on_c, 9, 69, 0
11, 15789, Note_on_c, 9, 42, 40
11, 15794, Note_on_c, 9, 69, 28
11, 15799, Note_on_c, 9, 42, 0
11, 15804, Note_on_c, 9, 69, 0
11, 15849, Note_on_c, 9, 36, 56
11, 15849, Note_on_c, 9, 42, 56
11, 15854, Note_on_c, 9, 69, 44
11, 15859, Note_on_c, 9, 42, 0
11, 15864, Note_on_c, 9, 36, 0
11, 15871, Note_on_c, 9, 69, 0
11, 15909, Note_on_c, 9, 36, 56
11, 15909, Note_on_c, 9, 42, 40
11, 15912, Note_on_c, 9, 69, 28
11, 15914, Note_on_c, 9, 42, 0
11, 15919, Note_on_c, 9, 36, 0
11, 15924, Note_on_c, 9, 69, 0
11, 15969, Note_on_c, 9, 38, 72
11, 15969, Note_on_c, 9, 42, 56
11, 15974, Note_on_c, 9, 42, 0
11, 15974, Note_on_c, 9, 69, 44
11, 15979, Note_on_c, 9, 38, 0
11, 15991, Note_on_c, 9, 69, 0
11, 16029, Note_on_c, 9, 69, 28
11, 16029, Note_on_c, 9, 42, 40
11, 16036, Note_on_c, 9, 42, 0
11, 16041, Note_on_c, 9, 69, 0
11, 16089, Note_on_c, 9, 69, 44
11, 16089, Note_on_c, 9, 42, 56
11, 16089, Note_on_c, 9, 36, 56
11, 16094, Note_on_c, 9, 42, 0
11, 16101, Note_on_c, 9, 36, 0
11, 16106, Note_on_c, 9, 69, 0
11, 16149, Note_on_c, 9, 38, 72
11, 16149, Note_on_c, 9, 42, 40
11, 16149, Note_on_c, 9, 69, 28
11, 16156, Note_on_c, 9, 42, 0
11, 16161, Note_on_c, 9, 38, 0
11, 16166, Note_on_c, 9, 69, 0
11, 16209, Note_on_c, 9, 42, 56
11, 16214, Note_on_c, 9, 69, 44
11, 16219, Note_on_c, 9, 42, 0
11, 16226, Note_on_c, 9, 69, 0
11, 16269, Note_on_c, 9, 42, 40
11, 16274, Note_on_c, 9, 69, 28
11, 16279, Note_on_c, 9, 42, 0
11, 16286, Note_on_c, 9, 69, 0
11, 16329, Note_on_c, 9, 42, 56
11, 16329, Note_on_c, 9, 36, 56
11, 16334, Note_on_c, 9, 69, 44
11, 16339, Note_on_c, 9, 42, 0
11, 16341, Note_on_c, 9, 36, 0
11, 16348, Note_on_c, 9, 69, 0
11, 16389, Note_on_c, 9, 36, 56
11, 16389, Note_on_c, 9, 42, 40
11, 16389, Note_on_c, 9, 69, 28
11, 16394, Note_on_c, 9, 42, 0
11, 16404, Note_on_c, 9, 69, 0
11, 16404, Note_on_c, 9, 36, 0
11, 16449, Note_on_c, 9, 38, 72
11, 16449, Note_on_c, 9, 42, 56
11, 16454, Note_on_c, 9, 42, 0
11, 16456, Note_on_c, 9, 38, 0
11, 16456, Note_on_c, 9, 69, 44
11, 16473, Note_on_c, 9, 69, 0
11, 16509, Note_on_c, 9, 69, 28
11, 16509, Note_on_c, 9, 42, 40
11, 16516, Note_on_c, 9, 42, 0
11, 16524, Note_on_c, 9, 69, 0
11, 16569, Note_on_c, 9, 36, 56
11, 16569, Note_on_c, 9, 42, 56
11, 16574, Note_on_c, 9, 42, 0
11, 16574, Note_on_c, 9, 69, 44
11, 16581, Note_on_c, 9, 36, 0
11, 16593, Note_on_c, 9, 69, 0
11, 16629, Note_on_c, 9, 38, 72
11, 16629, Note_on_c, 9, 42, 40
11, 16634, Note_on_c, 9, 69, 28
11, 16639, Note_on_c, 9, 42, 0
11, 16641, Note_on_c, 9, 38, 0
11, 16648, Note_on_c, 9, 69, 0
11, 16689, Note_on_c, 9, 42, 56
11, 16694, Note_on_c, 9, 69, 44
11, 16699, Note_on_c, 9, 42, 0
11, 16713, Note_on_c, 9, 69, 0
11, 16749, Note_on_c, 9, 42, 40
11, 16754, Note_on_c, 9, 69, 28
11, 16759, Note_on_c, 9, 42, 0
11, 16764, Note_on_c, 9, 69, 0
11, 16809, Note_on_c, 9, 36, 56
11, 16809, Note_on_c, 9, 42, 56
11, 16814, Note_on_c, 9, 69, 44
11, 16819, Note_on_c, 9, 42, 0
11, 16821, Note_on_c, 9, 36, 0
11, 16831, Note_on_c, 9, 69, 0
11, 16869, Note_on_c, 9, 36, 56
11, 16869, Note_on_c, 9, 42, 40
11, 16874, Note_on_c, 9, 42, 0
11, 16874, Note_on_c, 9, 69, 28
11, 16879, Note_on_c, 9, 36, 0
11, 16884, Note_on_c, 9, 69, 0
11, 16929, Note_on_c, 9, 38, 72
11, 16929, Note_on_c, 9, 42, 56
11, 16934, Note_on_c, 9, 42, 0
11, 16934, Note_on_c, 9, 69, 44
11, 16939, Note_on_c, 9, 38, 0
11, 16951, Note_on_c, 9, 69, 0
11, 16989, Note_on_c, 9, 69, 28
11, 16989, Note_on_c, 9, 42, 40
11, 16996, Note_on_c, 9, 42, 0
11, 17001, Note_on_c, 9, 69, 0
11, 17049, Note_on_c, 9, 69, 44
11, 17049, Note_on_c, 9, 42, 56
11, 17049, Note_on_c, 9, 36, 56
11, 17054, Note_on_c, 9, 42, 0
11, 17064, Note_on_c, 9, 36, 0
11, 17064, Note_on_c, 9, 69, 0
11, 17109, Note_on_c, 9, 38, 72
11, 17109, Note_on_c, 9, 42, 40
11, 17109, Note_on_c, 9, 69, 28
11, 17116, Note_on_c, 9, 42, 0
11, 17124, Note_on_c, 9, 69, 0
11, 17124, Note_on_c, 9, 38, 0
11, 17169, Note_on_c, 9, 42, 56
11, 17174, Note_on_c, 9, 69, 44
11, 17179, Note_on_c, 9, 42, 0
11, 17186, Note_on_c, 9, 69, 0
11, 17229, Note_on_c, 9, 42, 40
11, 17234, Note_on_c, 9, 69, 28
11, 17239, Note_on_c, 9, 42, 0
11, 17246, Note_on_c, 9, 69, 0
11, 17289, Note_on_c, 9, 36, 56
11, 17289, Note_on_c, 9, 42, 56
11, 17294, Note_on_c, 9, 69, 44
11, 17299, Note_on_c, 9, 42, 0
11, 17301, Note_on_c, 9, 36, 0
11, 17308, Note_on_c, 9, 69, 0
11, 17349, Note_on_c, 9, 36, 56
11, 17349, Note_on_c, 9, 42, 40
11, 17352, Note_on_c, 9, 69, 28
11, 17354, Note_on_c, 9, 42, 0
11, 17361, Note_on_c, 9, 36, 0
11, 17366, Note_on_c, 9, 69, 0
11, 17409, Note_on_c, 9, 38, 72
11, 17409, Note_on_c, 9, 42, 56
11, 17414, Note_on_c, 9, 42, 0
11, 17419, Note_on_c, 9, 38, 0
11, 17419, Note_on_c, 9, 69, 44
11, 17433, Note_on_c, 9, 69, 0
11, 17469, Note_on_c, 9, 69, 28
11, 17469, Note_on_c, 9, 42, 40
11, 17476, Note_on_c, 9, 42, 0
11, 17484, Note_on_c, 9, 69, 0
11, 17529, Note_on_c, 9, 36, 56
11, 17529, Note_on_c, 9, 42, 56
11, 17534, Note_on_c, 9, 42, 0
11, 17534, Note_on_c, 9, 69, 44
11, 17541, Note_on_c, 9, 36, 0
11, 17553, Note_on_c, 9, 69, 0
11, 17589, Note_on_c, 9, 38, 72
11, 17589, Note_on_c, 9, 42, 40
11, 17589, Note_on_c, 9, 69, 28
11, 17596, Note_on_c, 9, 42, 0
11, 17599, Note_on_c, 9, 38, 0
11, 17608, Note_on_c, 9, 69, 0
11, 17649, Note_on_c, 9, 42, 56
11, 17654, Note_on_c, 9, 69, 44
11, 17659, Note_on_c, 9, 42, 0
11, 17673, Note_on_c, 9, 69, 0
11, 17709, Note_on_c, 9, 42, 40
11, 17714, Note_on_c, 9, 69, 28
11, 17719, Note_on_c, 9, 42, 0
11, 17724, Note_on_c, 9, 69, 0
11, 17769, Note_on_c, 9, 36, 56
11, 17769, Note_on_c, 9, 42, 56
11, 17774, Note_on_c, 9, 69, 44
11, 17779, Note_on_c, 9, 42, 0
11, 17781, Note_on_c, 9, 36, 0
11, 17791, Note_on_c, 9, 69, 0
11, 17829, Note_on_c, 9, 36, 56
11, 17829, Note_on_c, 9, 42, 40
11, 17834, Note_on_c, 9, 42, 0
11, 17834, Note_on_c, 9, 69, 28
11, 17839, Note_on_c, 9, 36, 0
11, 17844, Note_on_c, 9, 69, 0
11, 17889, Note_on_c, 9, 38, 72
11, 17889, Note_on_c, 9, 42, 56
11, 17894, Note_on_c, 9, 42, 0
11, 17894, Note_on_c, 9, 69, 44
11, 17899, Note_on_c, 9, 38, 0
11, 17911, Note_on_c, 9, 69, 0
11, 17949, Note_on_c, 9, 69, 28
11, 17949, Note_on_c, 9, 42, 40
11, 17956, Note_on_c, 9, 42, 0
11, 17961, Note_on_c, 9, 69, 0
11, 18009, Note_on_c, 9, 69, 44
11, 18009, Note_on_c, 9, 42, 56
11, 18009, Note_on_c, 9, 36, 56
11, 18014, Note_on_c, 9, 42, 0
11, 18021, Note_on_c, 9, 36, 0
11, 18026, Note_on_c, 9, 69, 0
11, 18069, Note_on_c, 9, 38, 72
11, 18069, Note_on_c, 9, 42, 40
11, 18069, Note_on_c, 9, 69, 28
11, 18079, Note_on_c, 9, 42, 0
11, 18084, Note_on_c, 9, 69, 0
11, 18084, Note_on_c, 9, 38, 0
11, 18129, Note_on_c, 9, 42, 56
11, 18134, Note_on_c, 9, 69, 44
11, 18139, Note_on_c, 9, 42, 0
11, 18146, Note_on_c, 9, 69, 0
11, 18189, Note_on_c, 9, 42, 40
11, 18194, Note_on_c, 9, 69, 28
11, 18199, Note_on_c, 9, 42, 0
11, 18206, Note_on_c, 9, 69, 0
11, 18249, Note_on_c, 9, 42, 56
11, 18249, Note_on_c, 9, 36, 56
11, 18254, Note_on_c, 9, 69, 44
11, 18259, Note_on_c, 9, 42, 0
11, 18261, Note_on_c, 9, 36, 0
11, 18268, Note_on_c, 9, 69, 0
11, 18309, Note_on_c, 9, 36, 56
11, 18309, Note_on_c, 9, 42, 40
11, 18309, Note_on_c, 9, 69, 28
11, 18314, Note_on_c, 9, 42, 0
11, 18321, Note_on_c, 9, 36, 0
11, 18326, Note_on_c, 9, 69, 0
11, 18369, Note_on_c, 9, 38, 72
11, 18369, Note_on_c, 9, 42, 56
11, 18374, Note_on_c, 9, 42, 0
11, 18376, Note_on_c, 9, 38, 0
11, 18376, Note_on_c, 9, 69, 44
11, 18393, Note_on_c, 9, 69, 0
11, 18429, Note_on_c, 9, 69, 28
11, 18429, Note_on_c, 9, 42, 40
11, 18436, Note_on_c, 9, 42, 0
11, 18444, Note_on_c, 9, 69, 0
11, 18489, Note_on_c, 9, 36, 56
11, 18489, Note_on_c, 9, 42, 56
11, 18494, Note_on_c, 9, 42, 0
11, 18494, Note_on_c, 9, 69, 44
11, 18501, Note_on_c, 9, 36, 0
11, 18513, Note_on_c, 9, 69, 0
11, 18549, Note_on_c, 9, 38, 72
11, 18549, Note_on_c, 9, 42, 40
11, 18554, Note_on_c, 9, 69, 28
11, 18559, Note_on_c, 9, 42, 0
11, 18559, Note_on_c, 9, 38, 0
11, 18568, Note_on_c, 9, 69, 0
11, 18609, Note_on_c, 9, 42, 56
11, 18614, Note_on_c, 9, 69, 44
11, 18619, Note_on_c, 9, 42, 0
11, 18633, Note_on_c, 9, 69, 0
11, 18669, Note_on_c, 9, 42, 40
11, 18674, Note_on_c, 9, 69, 28
11, 18679, Note_on_c, 9, 42, 0
11, 18684, Note_on_c, 9, 69, 0
11, 18729, Note_on_c, 9, 36, 56
11, 18729, Note_on_c, 9, 42, 56
11, 18734, Note_on_c, 9, 69, 44
11, 18739, Note_on_c, 9, 42, 0
11, 18741, Note_on_c, 9, 36, 0
11, 18751, Note_on_c, 9, 69, 0
11, 18789, Note_on_c, 9, 36, 56
11, 18789, Note_on_c, 9, 42, 40
11, 18794, Note_on_c, 9, 42, 0
11, 18794, Note_on_c, 9, 69, 28
11, 18799, Note_on_c, 9, 36, 0
11, 18804, Note_on_c, 9, 69, 0
11, 18849, Note_on_c, 9, 38, 72
11, 18849, Note_on_c, 9, 42, 56
11, 18854, Note_on_c, 9, 42, 0
11, 18854, Note_on_c, 9, 69, 44
11, 18859, Note_on_c, 9, 38, 0
11, 18871, Note_on_c, 9, 69, 0
11, 18909, Note_on_c, 9, 69, 28
11, 18909, Note_on_c, 9, 42, 40
11, 18916, Note_on_c, 9, 42, 0
11, 18921, Note_on_c, 9, 69, 0
11, 18969, Note_on_c, 9, 69, 44
11, 18969, Note_on_c, 9, 42, 56
11, 18969, Note_on_c, 9, 36, 56
11, 18974, Note_on_c, 9, 42, 0
11, 18981, Note_on_c, 9, 36, 0
11, 18986, Note_on_c, 9, 69, 0
11, 19029, Note_on_c, 9, 38, 72
11, 19029, Note_on_c, 9, 42, 40
11, 19029, Note_on_c, 9, 69, 28
11, 19036, Note_on_c, 9, 42, 0
11, 19044, Note_on_c, 9, 69, 0
11, 19044, Note_on_c, 9, 38, 0
11, 19089, Note_on_c, 9, 42, 56
11, 19094, Note_on_c, 9, 69, 44
11, 19099, Note_on_c, 9, 42, 0
11, 19106, Note_on_c, 9, 69, 0
11, 19149, Note_on_c, 9, 46, 40
11, 19154, Note_on_c, 9, 69, 28
11, 19159, Note_on_c, 9, 46, 0
11, 19166, Note_on_c, 9, 69, 0
11, 19209, Note_on_c, 9, 42, 56
11, 19209, Note_on_c, 9, 36, 56
11, 19214, Note_on_c, 9, 69, 44
11, 19219, Note_on_c, 9, 42, 0
11, 19224, Note_on_c, 9, 36, 0
11, 19228, Note_on_c, 9, 69, 0
11, 19269, Note_on_c, 9, 36, 56
11, 19269, Note_on_c, 9, 42, 40
11, 19272, Note_on_c, 9, 69, 28
11, 19274, Note_on_c, 9, 42, 0
11, 19284, Note_on_c, 9, 69, 0
11, 19284, Note_on_c, 9, 36, 0
11, 19329, Note_on_c, 9, 38, 72
11, 19329, Note_on_c, 9, 42, 56
11, 19334, Note_on_c, 9, 42, 0
11, 19336, Note_on_c, 9, 38, 0
11, 19336, Note_on_c, 9, 69, 44
11, 19353, Note_on_c, 9, 69, 0
11, 19389, Note_on_c, 9, 69, 28
11, 19389, Note_on_c, 9, 42, 40
11, 19396, Note_on_c, 9, 42, 0
11, 19404, Note_on_c, 9, 69, 0
11, 19449, Note_on_c, 9, 36, 56
11, 19449, Note_on_c, 9, 42, 56
11, 19454, Note_on_c, 9, 42, 0
11, 19454, Note_on_c, 9, 69, 44
11, 19464, Note_on_c, 9, 36, 0
11, 19473, Note_on_c, 9, 69, 0
11, 19509, Note_on_c, 9, 36, 56
11, 19509, Note_on_c, 9, 42, 40
11, 19512, Note_on_c, 9, 69, 28
11, 19516, Note_on_c, 9, 42, 0
11, 19521, Note_on_c, 9, 36, 0
11, 19528, Note_on_c, 9, 69, 0
11, 19569, Note_on_c, 9, 38, 72
11, 19569, Note_on_c, 9, 42, 56
11, 19574, Note_on_c, 9, 69, 44
11, 19579, Note_on_c, 9, 42, 0
11, 19579, Note_on_c, 9, 38, 0
11, 19593, Note_on_c, 9, 69, 0
11, 19629, Note_on_c, 9, 42, 40
11, 19634, Note_on_c, 9, 69, 28
11, 19639, Note_on_c, 9, 42, 0
11, 19644, Note_on_c, 9, 69, 0
11, 19689, Note_on_c, 9, 42, 56
11, 19689, Note_on_c, 9, 36, 56
11, 19694, Note_on_c, 9, 69, 44
11, 19699, Note_on_c, 9, 42, 0
11, 19706, Note_on_c, 9, 36, 0
11, 19713, Note_on_c, 9, 69, 0
11, 19749, Note_on_c, 9, 36, 56
11, 19749, Note_on_c, 9, 42, 40
11, 19752, Note_on_c, 9, 69, 28
11, 19754, Note_on_c, 9, 42, 0
11, 19761, Note_on_c, 9, 69, 0
11, 19766, Note_on_c, 9, 36, 0
11, 19809, Note_on_c, 9, 38, 72
11, 19809, Note_on_c, 9, 42, 56
11, 19814, Note_on_c, 9, 42, 0
11, 19814, Note_on_c, 9, 69, 44
11, 19819, Note_on_c, 9, 38, 0
11, 19831, Note_on_c, 9, 69, 0
11, 19869, Note_on_c, 9, 69, 28
11, 19869, Note_on_c, 9, 42, 40
11, 19869, Note_on_c, 9, 36, 56
11, 19876, Note_on_c, 9, 42, 0
11, 19881, Note_on_c, 9, 36, 0
11, 19881, Note_on_c, 9, 69, 0
11, 19929, Note_on_c, 9, 69, 44
11, 19929, Note_on_c, 9, 42, 56
11, 19934, Note_on_c, 9, 42, 0
11, 19944, Note_on_c, 9, 69, 0
11, 19989, Note_on_c, 9, 36, 56
11, 19989, Note_on_c, 9, 42, 40
11, 19989, Note_on_c, 9, 69, 28
11, 19996, Note_on_c, 9, 42, 0
11, 20004, Note_on_c, 9, 69, 0
11, 20004, Note_on_c, 9, 36, 0
11, 20049, Note_on_c, 9, 38, 72
11, 20049, Note_on_c, 9, 42, 56
11, 20049, Note_on_c, 9, 69, 44
11, 20056, Note_on_c, 9, 42, 0
11, 20061, Note_on_c, 9, 38, 0
11, 20066, Note_on_c, 9, 69, 0
11, 20109, Note_on_c, 9, 42, 40
11, 20114, Note_on_c, 9, 69, 28
11, 20119, Note_on_c, 9, 42, 0
11, 20126, Note_on_c, 9, 69, 0
11, 20169, Note_on_c, 9, 42, 56
11, 20169, Note_on_c, 9, 36, 56
11, 20176, Note_on_c, 9, 42, 0
11, 20176, Note_on_c, 9, 69, 44
11, 20184, Note_on_c, 9, 36, 0
11, 20188, Note_on_c, 9, 69, 0
11, 20229, Note_on_c, 9, 36, 56
11, 20229, Note_on_c, 9, 42, 40
11, 20229, Note_on_c, 9, 69, 28
11, 20234, Note_on_c, 9, 42, 0
11, 20244, Note_on_c, 9, 69, 0
11, 20244, Note_on_c, 9, 36, 0
11, 20289, Note_on_c, 9, 38, 72
11, 20289, Note_on_c, 9, 42, 56
11, 20294, Note_on_c, 9, 42, 0
11, 20296, Note_on_c, 9, 38, 0
11, 20296, Note_on_c, 9, 69, 44
11, 20313, Note_on_c, 9, 69, 0
11, 20347, Note_on_c, 9, 69, 28
11, 20352, Note_on_c, 9, 42, 40
11, 20356, Note_on_c, 9, 42, 0
11, 20364, Note_on_c, 9, 69, 0
11, 20409, Note_on_c, 9, 36, 56
11, 20409, Note_on_c, 9, 42, 56
11, 20414, Note_on_c, 9, 42, 0
11, 20414, Note_on_c, 9, 69, 44
11, 20424, Note_on_c, 9, 36, 0
11, 20433, Note_on_c, 9, 69, 0
11, 20469, Note_on_c, 9, 36, 56
11, 20469, Note_on_c, 9, 42, 40
11, 20469, Note_on_c, 9, 69, 28
11, 20476, Note_on_c, 9, 42, 0
11, 20481, Note_on_c, 9, 36, 0
11, 20491, Note_on_c, 9, 69, 0
11, 20529, Note_on_c, 9, 38, 72
11, 20529, Note_on_c, 9, 42, 56
11, 20534, Note_on_c, 9, 69, 44
11, 20539, Note_on_c, 9, 42, 0
11, 20539, Note_on_c, 9, 38, 0
11, 20553, Note_on_c, 9, 69, 0
11, 20587, Note_on_c, 9, 42, 40
11, 20594, Note_on_c, 9, 69, 28
11, 20599, Note_on_c, 9, 42, 0
11, 20604, Note_on_c, 9, 69, 0
11, 20649, Note_on_c, 9, 42, 56
11, 20649, Note_on_c, 9, 36, 56
11, 20649, Note_on_c, 9, 69, 44
11, 20656, Note_on_c, 9, 42, 0
11, 20666, Note_on_c, 9, 36, 0
11, 20671, Note_on_c, 9, 69, 0
11, 20709, Note_on_c, 9, 36, 56
11, 20709, Note_on_c, 9, 42, 40
11, 20709, Note_on_c, 9, 69, 28
11, 20714, Note_on_c, 9, 42, 0
11, 20724, Note_on_c, 9, 69, 0
11, 20724, Note_on_c, 9, 36, 0
11, 20769, Note_on_c, 9, 38, 72
11, 20769, Note_on_c, 9, 42, 56
11, 20774, Note_on_c, 9, 42, 0
11, 20774, Note_on_c, 9, 69, 44
11, 20779, Note_on_c, 9, 38, 0
11, 20791, Note_on_c, 9, 69, 0
11, 20827, Note_on_c, 9, 69, 28
11, 20832, Note_on_c, 9, 42, 40
11, 20832, Note_on_c, 9, 36, 56
11, 20836, Note_on_c, 9, 42, 0
11, 20841, Note_on_c, 9, 36, 0
11, 20841, Note_on_c, 9, 69, 0
11, 20889, Note_on_c, 9, 69, 44
11, 20889, Note_on_c, 9, 42, 56
11, 20894, Note_on_c, 9, 42, 0
11, 20904, Note_on_c, 9, 69, 0
11, 20949, Note_on_c, 9, 36, 56
11, 20949, Note_on_c, 9, 42, 40
11, 20949, Note_on_c, 9, 69, 28
11, 20956, Note_on_c, 9, 42, 0
11, 20966, Note_on_c, 9, 69, 0
11, 20966, Note_on_c, 9, 36, 0
11, 21009, Note_on_c, 9, 38, 72
11, 21009, Note_on_c, 9, 42, 56
11, 21014, Note_on_c, 9, 69, 44
11, 21019, Note_on_c, 9, 42, 0
11, 21019, Note_on_c, 9, 38, 0
11, 21026, Note_on_c, 9, 69, 0
11, 21069, Note_on_c, 9, 42, 40
11, 21074, Note_on_c, 9, 69, 28
11, 21079, Note_on_c, 9, 42, 0
11, 21086, Note_on_c, 9, 69, 0
11, 21129, Note_on_c, 9, 36, 56
11, 21129, Note_on_c, 9, 42, 56
11, 21136, Note_on_c, 9, 42, 0
11, 21136, Note_on_c, 9, 69, 44
11, 21144, Note_on_c, 9, 36, 0
11, 21148, Note_on_c, 9, 69, 0
11, 21187, Note_on_c, 9, 36, 56
11, 21192, Note_on_c, 9, 42, 40
11, 21192, Note_on_c, 9, 69, 28
11, 21196, Note_on_c, 9, 42, 0
11, 21204, Note_on_c, 9, 69, 0
11, 21204, Note_on_c, 9, 36, 0
11, 21249, Note_on_c, 9, 38, 72
11, 21249, Note_on_c, 9, 42, 56
11, 21254, Note_on_c, 9, 42, 0
11, 21256, Note_on_c, 9, 38, 0
11, 21256, Note_on_c, 9, 69, 44
11, 21273, Note_on_c, 9, 69, 0
11, 21307, Note_on_c, 9, 69, 28
11, 21312, Note_on_c, 9, 42, 40
11, 21316, Note_on_c, 9, 42, 0
11, 21324, Note_on_c, 9, 69, 0
11, 21369, Note_on_c, 9, 36, 56
11, 21369, Note_on_c, 9, 42, 56
11, 21374, Note_on_c, 9, 42, 0
11, 21374, Note_on_c, 9, 69, 44
11, 21384, Note_on_c, 9, 36, 0
11, 21393, Note_on_c, 9, 69, 0
11, 21427, Note_on_c, 9, 36, 56
11, 21432, Note_on_c, 9, 42, 40
11, 21432, Note_on_c, 9, 69, 28
11, 21436, Note_on_c, 9, 42, 0
11, 21441, Note_on_c, 9, 36, 0
11, 21448, Note_on_c, 9, 69, 0
11, 21489, Note_on_c, 9, 38, 72
11, 21489, Note_on_c, 9, 42, 56
11, 21494, Note_on_c, 9, 69, 44
11, 21499, Note_on_c, 9, 42, 0
11, 21499, Note_on_c, 9, 38, 0
11, 21513, Note_on_c, 9, 69, 0
11, 21552, Note_on_c, 9, 42, 40
11, 21556, Note_on_c, 9, 42, 0
11, 21556, Note_on_c, 9, 69, 28
11, 21564, Note_on_c, 9, 69, 0
11, 21609, Note_on_c, 9, 36, 56
11, 21609, Note_on_c, 9, 42, 56
11, 21609, Note_on_c, 9, 69, 44
11, 21616, Note_on_c, 9, 42, 0
11, 21626, Note_on_c, 9, 36, 0
11, 21631, Note_on_c, 9, 69, 0
11, 21667, Note_on_c, 9, 36, 56
11, 21672, Note_on_c, 9, 42, 40
11, 21672, Note_on_c, 9, 69, 28
11, 21676, Note_on_c, 9, 42, 0
11, 21684, Note_on_c, 9, 69, 0
11, 21684, Note_on_c, 9, 36, 0
11, 21729, Note_on_c, 9, 38, 72
11, 21729, Note_on_c, 9, 42, 56
11, 21734, Note_on_c, 9, 42, 0
11, 21734, Note_on_c, 9, 69, 44
11, 21739, Note_on_c, 9, 38, 0
11, 21751, Note_on_c, 9, 69, 0
11, 21787, Note_on_c, 9, 69, 28
11, 21792, Note_on_c, 9, 42, 40
11, 21792, Note_on_c, 9, 36, 56
11, 21796, Note_on_c, 9, 42, 0
11, 21801, Note_on_c, 9, 36, 0
11, 21801, Note_on_c, 9, 69, 0
11, 21849, Note_on_c, 9, 42, 56
11, 21849, Note_on_c, 9, 69, 44
11, 21854, Note_on_c, 9, 42, 0
11, 21864, Note_on_c, 9, 69, 0
11, 21907, Note_on_c, 9, 36, 56
11, 21912, Note_on_c, 9, 42, 40
11, 21912, Note_on_c, 9, 69, 28
11, 21916, Note_on_c, 9, 42, 0
11, 21924, Note_on_c, 9, 69, 0
11, 21924, Note_on_c, 9, 36, 0
11, 21969, Note_on_c, 9, 38, 72
11, 21969, Note_on_c, 9, 42, 56
11, 21969, Note_on_c, 9, 69, 44
11, 21976, Note_on_c, 9, 42, 0
11, 21981, Note_on_c, 9, 38, 0
11, 21986, Note_on_c, 9, 69, 0
11, 22029, Note_on_c, 9, 42, 40
11, 22034, Note_on_c, 9, 69, 28
11, 22039, Note_on_c, 9, 42, 0
11, 22046, Note_on_c, 9, 69, 0
11, 22089, Note_on_c, 9, 36, 56
11, 22089, Note_on_c, 9, 42, 56
11, 22096, Note_on_c, 9, 42, 0
11, 22096, Note_on_c, 9, 69, 44
11, 22104, Note_on_c, 9, 36, 0
11, 22108, Note_on_c, 9, 69, 0
11, 22147, Note_on_c, 9, 36, 56
11, 22152, Note_on_c, 9, 42, 40
11, 22152, Note_on_c, 9, 69, 28
11, 22156, Note_on_c, 9, 42, 0
11, 22164, Note_on_c, 9, 69, 0
11, 22164, Note_on_c, 9, 36, 0
11, 22207, Note_on_c, 9, 38, 72
11, 22212, Note_on_c, 9, 42, 56
11, 22216, Note_on_c, 9, 42, 0
11, 22216, Note_on_c, 9, 38, 0
11, 22216, Note_on_c, 9, 69, 44
11, 22233, Note_on_c, 9, 69, 0
11, 22267, Note_on_c, 9, 69, 28
11, 22272, Note_on_c, 9, 42, 40
11, 22276, Note_on_c, 9, 42, 0
11, 22284, Note_on_c, 9, 69, 0
11, 22329, Note_on_c, 9, 36, 56
11, 22329, Note_on_c, 9, 42, 56
11, 22334, Note_on_c, 9, 42, 0
11, 22334, Note_on_c, 9, 69, 44
11, 22344, Note_on_c, 9, 36, 0
11, 22353, Note_on_c, 9, 69, 0
11, 22387, Note_on_c, 9, 36, 56
11, 22392, Note_on_c, 9, 42, 40
11, 22392, Note_on_c, 9, 69, 28
11, 22396, Note_on_c, 9, 42, 0
11, 22401, Note_on_c, 9, 36, 0
11, 22408, Note_on_c, 9, 69, 0
11, 22447, Note_on_c, 9, 38, 72
11, 22452, Note_on_c, 9, 42, 56
11, 22456, Note_on_c, 9, 42, 0
11, 22456, Note_on_c, 9, 69, 44
11, 22461, Note_on_c, 9, 38, 0
11, 22473, Note_on_c, 9, 69, 0
11, 22512, Note_on_c, 9, 42, 40
11, 22516, Note_on_c, 9, 42, 0
11, 22516, Note_on_c, 9, 69, 28
11, 22524, Note_on_c, 9, 69, 0
11, 22569, Note_on_c, 9, 42, 56
11, 22569, Note_on_c, 9, 36, 56
11, 22569, Note_on_c, 9, 69, 44
11, 22576, Note_on_c, 9, 42, 0
11, 22586, Note_on_c, 9, 36, 0
11, 22591, Note_on_c, 9, 69, 0
11, 22627, Note_on_c, 9, 36, 56
11, 22632, Note_on_c, 9, 42, 40
11, 22632, Note_on_c, 9, 69, 28
11, 22636, Note_on_c, 9, 42, 0
11, 22644, Note_on_c, 9, 69, 0
11, 22644, Note_on_c, 9, 36, 0
11, 22687, Note_on_c, 9, 38, 72
11, 22692, Note_on_c, 9, 42, 56
11, 22696, Note_on_c, 9, 42, 0
11, 22696, Note_on_c, 9, 38, 0
11, 22696, Note_on_c, 9, 69, 44
11, 22711, Note_on_c, 9, 69, 0
11, 22747, Note_on_c, 9, 69, 28
11, 22752, Note_on_c, 9, 42, 40
11, 22752, Note_on_c, 9, 36, 56
11, 22756, Note_on_c, 9, 42, 0
11, 22761, Note_on_c, 9, 69, 0
11, 22764, Note_on_c, 9, 36, 0
11, 22809, Note_on_c, 9, 69, 44
11, 22809, Note_on_c, 9, 42, 56
11, 22814, Note_on_c, 9, 42, 0
11, 22824, Note_on_c, 9, 69, 0
11, 22867, Note_on_c, 9, 36, 56
11, 22872, Note_on_c, 9, 42, 40
11, 22872, Note_on_c, 9, 69, 28
11, 22876, Note_on_c, 9, 42, 0
11, 22884, Note_on_c, 9, 69, 0
11, 22884, Note_on_c, 9, 36, 0
11, 22927, Note_on_c, 9, 38, 72
11, 22932, Note_on_c, 9, 42, 56
11, 22932, Note_on_c, 9, 69, 44
11, 22936, Note_on_c, 9, 42, 0
11, 22939, Note_on_c, 9, 38, 0
11, 22946, Note_on_c, 9, 69, 0
11, 22989, Note_on_c, 9, 42, 40
11, 22994, Note_on_c, 9, 69, 28
11, 22999, Note_on_c, 9, 42, 0
11, 23006, Note_on_c, 9, 69, 0
11, 23049, Note_on_c, 9, 36, 56
11, 23049, Note_on_c, 9, 42, 72
11, 23049, Note_on_c, 9, 38, 72
11, 23056, Note_on_c, 9, 38, 0
11, 23056, Note_on_c, 9, 42, 0
11, 23056, Note_on_c, 9, 69, 44
11, 23061, Note_on_c, 9, 36, 0
11, 23068, Note_on_c, 9, 69, 0
11, 23107, Note_on_c, 9, 42, 56
11, 23112, Note_on_c, 9, 69, 28
11, 23116, Note_on_c, 9, 42, 0
11, 23124, Note_on_c, 9, 69, 0
11, 23167, Note_on_c, 9, 38, 72
11, 23172, Note_on_c, 9, 42, 72
11, 23172, Note_on_c, 9, 36, 56
11, 23173, Note_on_c, 9, 42, 0
11, 23176, Note_on_c, 9, 38, 0
11, 23176, Note_on_c, 9, 69, 44
11, 23181, Note_on_c, 9, 36, 0
11, 23193, Note_on_c, 9, 69, 0
11, 23227, Note_on_c, 9, 69, 28
11, 23232, Note_on_c, 9, 42, 56
11, 23236, Note_on_c, 9, 42, 0
11, 23241, Note_on_c, 9, 69, 0
11, 23287, Note_on_c, 9, 36, 56
11, 23292, Note_on_c, 9, 42, 72
11, 23292, Note_on_c, 9, 38, 72
11, 23292, Note_on_c, 9, 69, 44
11, 23293, Note_on_c, 9, 42, 0
11, 23299, Note_on_c, 9, 38, 0
11, 23301, Note_on_c, 9, 36, 0
11, 23313, Note_on_c, 9, 69, 0
11, 23347, Note_on_c, 9, 42, 56
11, 23352, Note_on_c, 9, 69, 28
11, 23356, Note_on_c, 9, 42, 0
11, 23368, Note_on_c, 9, 69, 0
11, 23407, Note_on_c, 9, 36, 56
11, 23412, Note_on_c, 9, 42, 72
11, 23412, Note_on_c, 9, 38, 72
11, 23416, Note_on_c, 9, 42, 0
11, 23416, Note_on_c, 9, 69, 44
11, 23421, Note_on_c, 9, 38, 0
11, 23421, Note_on_c, 9, 36, 0
11, 23433, Note_on_c, 9, 69, 0
11, 23467, Note_on_c, 9, 42, 56
11, 23474, Note_on_c, 9, 69, 28
11, 23479, Note_on_c, 9, 42, 0
11, 23484, Note_on_c, 9, 69, 0
11, 23529, Note_on_c, 9, 42, 72
11, 23529, Note_on_c, 9, 36, 56
11, 23529, Note_on_c, 9, 38, 72
11, 23529, Note_on_c, 9, 69, 44
11, 23530, Note_on_c, 9, 42, 0
11, 23539, Note_on_c, 9, 38, 0
11, 23541, Note_on_c, 9, 36, 0
11, 23551, Note_on_c, 9, 69, 0
11, 23587, Note_on_c, 9, 42, 56
11, 23592, Note_on_c, 9, 69, 28
11, 23596, Note_on_c, 9, 42, 0
11, 23604, Note_on_c, 9, 69, 0
11, 23647, Note_on_c, 9, 36, 56
11, 23652, Note_on_c, 9, 42, 72
11, 23652, Note_on_c, 9, 38, 72
11, 23656, Note_on_c, 9, 38, 0
11, 23656, Note_on_c, 9, 42, 0
11, 23656, Note_on_c, 9, 69, 44
11, 23661, Note_on_c, 9, 36, 0
11, 23671, Note_on_c, 9, 69, 0
11, 23707, Note_on_c, 9, 69, 28
11, 23712, Note_on_c, 9, 42, 56
11, 23716, Note_on_c, 9, 42, 0
11, 23719, Note_on_c, 9, 69, 0
11, 23767, Note_on_c, 9, 69, 44
11, 23772, Note_on_c, 9, 42, 72
11, 23772, Note_on_c, 9, 36, 56
11, 23772, Note_on_c, 9, 38, 72
11, 23773, Note_on_c, 9, 42, 0
11, 23779, Note_on_c, 9, 38, 0
11, 23781, Note_on_c, 9, 36, 0
11, 23786, Note_on_c, 9, 69, 0
11, 23827, Note_on_c, 9, 42, 56
11, 23832, Note_on_c, 9, 69, 28
11, 23836, Note_on_c, 9, 42, 0
11, 23844, Note_on_c, 9, 69, 0
11, 23887, Note_on_c, 9, 36, 56
11, 23892, Note_on_c, 9, 38, 72
11, 23892, Note_on_c, 9, 69, 44
11, 23899, Note_on_c, 9, 38, 0
11, 23904, Note_on_c, 9, 36, 0
11, 23906, Note_on_c, 9, 69, 0
11, 23947, Note_on_c, 9, 42, 56
11, 23954, Note_on_c, 9, 69, 28
11, 23959, Note_on_c, 9, 42, 0
11, 23966, Note_on_c, 9, 69, 0
11, 23968, Note_on_c, 9, 42, 40
11, 23976, Note_on_c, 9, 42, 0
11, 23988, Note_on_c, 9, 42, 40
11, 23997, Note_on_c, 9, 42, 0
11, 24009, Note_on_c, 9, 36, 56
11, 24009, Note_on_c, 9, 42, 56
11, 24016, Note_on_c, 9, 42, 0
11, 24016, Note_on_c, 9, 69, 44
11, 24021, Note_on_c, 9, 36, 0
11, 24028, Note_on_c, 9, 69, 0
11, 24067, Note_on_c, 9, 36, 56
11, 24072, Note_on_c, 9, 42, 40
11, 24072, Note_on_c, 9, 69, 28
11, 24076, Note_on_c, 9, 42, 0
11, 24081, Note_on_c, 9, 36, 0
11, 24086, Note_on_c, 9, 69, 0
11, 24129, Note_on_c, 9, 38, 72
11, 24129, Note_on_c, 9, 42, 56
11, 24136, Note_on_c, 9, 42, 0
11, 24136, Note_on_c, 9, 38, 0
11, 24136, Note_on_c, 9, 69, 44
11, 24153, Note_on_c, 9, 69, 0
11, 24192, Note_on_c, 9, 42, 40
11, 24192, Note_on_c, 9, 69, 28
11, 24196, Note_on_c, 9, 42, 0
11, 24204, Note_on_c, 9, 69, 0
11, 24247, Note_on_c, 9, 36, 56
11, 24252, Note_on_c, 9, 42, 56
11, 24252, Note_on_c, 9, 69, 44
11, 24253, Note_on_c, 9, 42, 0
11, 24261, Note_on_c, 9, 36, 0
11, 24273, Note_on_c, 9, 69, 0
11, 24307, Note_on_c, 9, 38, 72
11, 24312, Note_on_c, 9, 42, 40
11, 24312, Note_on_c, 9, 69, 28
11, 24316, Note_on_c, 9, 42, 0
11, 24321, Note_on_c, 9, 38, 0
11, 24328, Note_on_c, 9, 69, 0
11, 24367, Note_on_c, 9, 42, 56
11, 24374, Note_on_c, 9, 69, 44
11, 24379, Note_on_c, 9, 42, 0
11, 24393, Note_on_c, 9, 69, 0
11, 24429, Note_on_c, 9, 42, 40
11, 24434, Note_on_c, 9, 69, 28
11, 24439, Note_on_c, 9, 42, 0
11, 24441, Note_on_c, 9, 69, 0
11, 24489, Note_on_c, 9, 36, 56
11, 24489, Note_on_c, 9, 42, 56
11, 24489, Note_on_c, 9, 69, 44
11, 24496, Note_on_c, 9, 42, 0
11, 24501, Note_on_c, 9, 36, 0
11, 24511, Note_on_c, 9, 69, 0
11, 24547, Note_on_c, 9, 36, 56
11, 24552, Note_on_c, 9, 42, 40
11, 24552, Note_on_c, 9, 69, 28
11, 24556, Note_on_c, 9, 42, 0
11, 24559, Note_on_c, 9, 36, 0
11, 24564, Note_on_c, 9, 69, 0
11, 24607, Note_on_c, 9, 38, 72
11, 24612, Note_on_c, 9, 42, 56
11, 24616, Note_on_c, 9, 42, 0
11, 24616, Note_on_c, 9, 38, 0
11, 24616, Note_on_c, 9, 69, 44
11, 24631, Note_on_c, 9, 69, 0
11, 24672, Note_on_c, 9, 42, 40
11, 24672, Note_on_c, 9, 69, 28
11, 24676, Note_on_c, 9, 42, 0
11, 24679, Note_on_c, 9, 69, 0
11, 24727, Note_on_c, 9, 36, 56
11, 24732, Note_on_c, 9, 42, 56
11, 24732, Note_on_c, 9, 69, 44
11, 24736, Note_on_c, 9, 42, 0
11, 24741, Note_on_c, 9, 36, 0
11, 24746, Note_on_c, 9, 69, 0
11, 24787, Note_on_c, 9, 38, 72
11, 24792, Note_on_c, 9, 42, 40
11, 24792, Note_on_c, 9, 69, 28
11, 24796, Note_on_c, 9, 42, 0
11, 24801, Note_on_c, 9, 38, 0
11, 24806, Note_on_c, 9, 69, 0
11, 24847, Note_on_c, 9, 42, 56
11, 24852, Note_on_c, 9, 69, 44
11, 24856, Note_on_c, 9, 42, 0
11, 24866, Note_on_c, 9, 69, 0
11, 24909, Note_on_c, 9, 46, 40
11, 24914, Note_on_c, 9, 69, 28
11, 24919, Note_on_c, 9, 46, 0
11, 24926, Note_on_c, 9, 69, 0
11, 24969, Note_on_c, 9, 36, 56
11, 24969, Note_on_c, 9, 42, 56
11, 24974, Note_on_c, 9, 69, 44
11, 24979, Note_on_c, 9, 42, 0
11, 24981, Note_on_c, 9, 36, 0
11, 24988, Note_on_c, 9, 69, 0
11, 25027, Note_on_c, 9, 36, 56
11, 25032, Note_on_c, 9, 42, 40
11, 25032, Note_on_c, 9, 69, 28
11, 25036, Note_on_c, 9, 42, 0
11, 25041, Note_on_c, 9, 36, 0
11, 25046, Note_on_c, 9, 69, 0
11, 25087, Note_on_c, 9, 38, 72
11, 25092, Note_on_c, 9, 42, 56
11, 25096, Note_on_c, 9, 42, 0
11, 25096, Note_on_c, 9, 38, 0
11, 25096, Note_on_c, 9, 69, 44
11, 25113, Note_on_c, 9, 69, 0
11, 25152, Note_on_c, 9, 42, 40
11, 25152, Note_on_c, 9, 69, 28
11, 25156, Note_on_c, 9, 42, 0
11, 25164, Note_on_c, 9, 69, 0
11, 25207, Note_on_c, 9, 36, 56
11, 25212, Note_on_c, 9, 42, 56
11, 25216, Note_on_c, 9, 42, 0
11, 25216, Note_on_c, 9, 69, 44
11, 25221, Note_on_c, 9, 36, 0
11, 25233, Note_on_c, 9, 69, 0
11, 25267, Note_on_c, 9, 38, 72
11, 25272, Note_on_c, 9, 42, 40
11, 25272, Note_on_c, 9, 69, 28
11, 25276, Note_on_c, 9, 42, 0
11, 25281, Note_on_c, 9, 38, 0
11, 25288, Note_on_c, 9, 69, 0
11, 25327, Note_on_c, 9, 42, 56
11, 25334, Note_on_c, 9, 69, 44
11, 25339, Note_on_c, 9, 42, 0
11, 25353, Note_on_c, 9, 69, 0
11, 25387, Note_on_c, 9, 46, 40
11, 25394, Note_on_c, 9, 69, 28
11, 25399, Note_on_c, 9, 46, 0
11, 25404, Note_on_c, 9, 69, 0
11, 25449, Note_on_c, 9, 36, 56
11, 25449, Note_on_c, 9, 42, 56
11, 25454, Note_on_c, 9, 69, 44
11, 25459, Note_on_c, 9, 42, 0
11, 25461, Note_on_c, 9, 36, 0
11, 25471, Note_on_c, 9, 69, 0
11, 25507, Note_on_c, 9, 36, 56
11, 25512, Note_on_c, 9, 42, 40
11, 25512, Note_on_c, 9, 69, 28
11, 25516, Note_on_c, 9, 42, 0
11, 25519, Note_on_c, 9, 36, 0
11, 25521, Note_on_c, 9, 69, 0
11, 25567, Note_on_c, 9, 38, 72
11, 25572, Note_on_c, 9, 42, 56
11, 25576, Note_on_c, 9, 42, 0
11, 25576, Note_on_c, 9, 38, 0
11, 25576, Note_on_c, 9, 69, 44
11, 25593, Note_on_c, 9, 69, 0
11, 25629, Note_on_c, 9, 42, 40
11, 25629, Note_on_c, 9, 69, 28
11, 25636, Note_on_c, 9, 42, 0
11, 25639, Note_on_c, 9, 69, 0
11, 25687, Note_on_c, 9, 36, 56
11, 25692, Note_on_c, 9, 42, 56
11, 25692, Note_on_c, 9, 69, 44
11, 25696, Note_on_c, 9, 42, 0
11, 25701, Note_on_c, 9, 36, 0
11, 25706, Note_on_c, 9, 69, 0
11, 25747, Note_on_c, 9, 38, 72
11, 25752, Note_on_c, 9, 42, 40
11, 25752, Note_on_c, 9, 69, 28
11, 25756, Note_on_c, 9, 42, 0
11, 25761, Note_on_c, 9, 38, 0
11, 25766, Note_on_c, 9, 69, 0
11, 25807, Note_on_c, 9, 42, 56
11, 25812, Note_on_c, 9, 69, 44
11, 25816, Note_on_c, 9, 42, 0
11, 25826, Note_on_c, 9, 69, 0
11, 25867, Note_on_c, 9, 46, 40
11, 25874, Note_on_c, 9, 69, 28
11, 25879, Note_on_c, 9, 46, 0
11, 25886, Note_on_c, 9, 69, 0
11, 25929, Note_on_c, 9, 36, 56
11, 25929, Note_on_c, 9, 42, 56
11, 25929, Note_on_c, 9, 69, 44
11, 25936, Note_on_c, 9, 42, 0
11, 25941, Note_on_c, 9, 36, 0
11, 25948, Note_on_c, 9, 69, 0
11, 25987, Note_on_c, 9, 36, 56
11, 25992, Note_on_c, 9, 42, 40
11, 25992, Note_on_c, 9, 69, 28
11, 25996, Note_on_c, 9, 42, 0
11, 26001, Note_on_c, 9, 36, 0
11, 26006, Note_on_c, 9, 69, 0
11, 26047, Note_on_c, 9, 38, 72
11, 26052, Note_on_c, 9, 42, 56
11, 26056, Note_on_c, 9, 42, 0
11, 26056, Note_on_c, 9, 38, 0
11, 26056, Note_on_c, 9, 69, 44
11, 26073, Note_on_c, 9, 69, 0
11, 26109, Note_on_c, 9, 42, 40
11, 26109, Note_on_c, 9, 69, 28
11, 26116, Note_on_c, 9, 42, 0
11, 26121, Note_on_c, 9, 69, 0
11, 26167, Note_on_c, 9, 36, 56
11, 26172, Note_on_c, 9, 42, 56
11, 26176, Note_on_c, 9, 42, 0
11, 26176, Note_on_c, 9, 69, 44
11, 26181, Note_on_c, 9, 36, 0
11, 26193, Note_on_c, 9, 69, 0
11, 26227, Note_on_c, 9, 38, 72
11, 26232, Note_on_c, 9, 42, 40
11, 26232, Note_on_c, 9, 69, 28
11, 26236, Note_on_c, 9, 42, 0
11, 26241, Note_on_c, 9, 38, 0
11, 26248, Note_on_c, 9, 69, 0
11, 26287, Note_on_c, 9, 42, 56
11, 26294, Note_on_c, 9, 69, 44
11, 26299, Note_on_c, 9, 42, 0
11, 26313, Note_on_c, 9, 69, 0
11, 26347, Note_on_c, 9, 46, 40
11, 26354, Note_on_c, 9, 69, 28
11, 26359, Note_on_c, 9, 46, 0
11, 26364, Note_on_c, 9, 69, 0
11, 26409, Note_on_c, 9, 36, 56
11, 26409, Note_on_c, 9, 42, 56
11, 26414, Note_on_c, 9, 69, 44
11, 26419, Note_on_c, 9, 42, 0
11, 26424, Note_on_c, 9, 36, 0
11, 26431, Note_on_c, 9, 69, 0
11, 26467, Note_on_c, 9, 36, 56
11, 26472, Note_on_c, 9, 42, 40
11, 26472, Note_on_c, 9, 69, 28
11, 26476, Note_on_c, 9, 42, 0
11, 26479, Note_on_c, 9, 36, 0
11, 26484, Note_on_c, 9, 69, 0
11, 26527, Note_on_c, 9, 38, 72
11, 26532, Note_on_c, 9, 42, 56
11, 26536, Note_on_c, 9, 42, 0
11, 26536, Note_on_c, 9, 38, 0
11, 26536, Note_on_c, 9, 69, 44
11, 26551, Note_on_c, 9, 69, 0
11, 26592, Note_on_c, 9, 42, 40
11, 26592, Note_on_c, 9, 69, 28
11, 26596, Note_on_c, 9, 42, 0
11, 26599, Note_on_c, 9, 69, 0
11, 26647, Note_on_c, 9, 36, 56
11, 26652, Note_on_c, 9, 42, 56
11, 26652, Note_on_c, 9, 69, 44
11, 26656, Note_on_c, 9, 42, 0
11, 26661, Note_on_c, 9, 36, 0
11, 26666, Note_on_c, 9, 69, 0
11, 26707, Note_on_c, 9, 38, 72
11, 26712, Note_on_c, 9, 42, 40
11, 26712, Note_on_c, 9, 69, 28
11, 26716, Note_on_c, 9, 42, 0
11, 26724, Note_on_c, 9, 69, 0
11, 26724, Note_on_c, 9, 38, 0
11, 26767, Note_on_c, 9, 42, 56
11, 26772, Note_on_c, 9, 69, 44
11, 26776, Note_on_c, 9, 42, 0
11, 26786, Note_on_c, 9, 69, 0
11, 26827, Note_on_c, 9, 46, 40
11, 26834, Note_on_c, 9, 69, 28
11, 26839, Note_on_c, 9, 46, 0
11, 26846, Note_on_c, 9, 69, 0
11, 26889, Note_on_c, 9, 36, 56
11, 26889, Note_on_c, 9, 42, 56
11, 26894, Note_on_c, 9, 69, 44
11, 26899, Note_on_c, 9, 42, 0
11, 26901, Note_on_c, 9, 36, 0
11, 26908, Note_on_c, 9, 69, 0
11, 26947, Note_on_c, 9, 36, 56
11, 26952, Note_on_c, 9, 42, 40
11, 26952, Note_on_c, 9, 69, 28
11, 26956, Note_on_c, 9, 42, 0
11, 26961, Note_on_c, 9, 36, 0
11, 26966, Note_on_c, 9, 69, 0
11, 27007, Note_on_c, 9, 38, 72
11, 27012, Note_on_c, 9, 42, 56
11, 27016, Note_on_c, 9, 42, 0
11, 27016, Note_on_c, 9, 38, 0
11, 27016, Note_on_c, 9, 69, 44
11, 27033, Note_on_c, 9, 69, 0
11, 27069, Note_on_c, 9, 42, 40
11, 27069, Note_on_c, 9, 69, 28
11, 27076, Note_on_c, 9, 42, 0
11, 27081, Note_on_c, 9, 69, 0
11, 27127, Note_on_c, 9, 36, 56
11, 27132, Note_on_c, 9, 42, 56
11, 27136, Note_on_c, 9, 42, 0
11, 27136, Note_on_c, 9, 69, 44
11, 27141, Note_on_c, 9, 36, 0
11, 27153, Note_on_c, 9, 69, 0
11, 27187, Note_on_c, 9, 38, 72
11, 27192, Note_on_c, 9, 42, 40
11, 27192, Note_on_c, 9, 69, 28
11, 27196, Note_on_c, 9, 42, 0
11, 27201, Note_on_c, 9, 38, 0
11, 27208, Note_on_c, 9, 69, 0
11, 27247, Note_on_c, 9, 42, 56
11, 27254, Note_on_c, 9, 69, 44
11, 27259, Note_on_c, 9, 42, 0
11, 27273, Note_on_c, 9, 69, 0
11, 27307, Note_on_c, 9, 46, 40
11, 27314, Note_on_c, 9, 69, 28
11, 27319, Note_on_c, 9, 46, 0
11, 27321, Note_on_c, 9, 69, 0
11, 27369, Note_on_c, 9, 36, 56
11, 27369, Note_on_c, 9, 42, 56
11, 27374, Note_on_c, 9, 69, 44
11, 27379, Note_on_c, 9, 42, 0
11, 27381, Note_on_c, 9, 36, 0
11, 27391, Note_on_c, 9, 69, 0
11, 27427, Note_on_c, 9, 36, 56
11, 27432, Note_on_c, 9, 42, 40
11, 27432, Note_on_c, 9, 69, 28
11, 27436, Note_on_c, 9, 42, 0
11, 27439, Note_on_c, 9, 36, 0
11, 27441, Note_on_c, 9, 69, 0
11, 27487, Note_on_c, 9, 38, 72
11, 27492, Note_on_c, 9, 42, 56
11, 27496, Note_on_c, 9, 42, 0
11, 27496, Note_on_c, 9, 38, 0
11, 27496, Note_on_c, 9, 69, 44
11, 27511, Note_on_c, 9, 69, 0
11, 27552, Note_on_c, 9, 42, 40
11, 27552, Note_on_c, 9, 69, 28
11, 27556, Note_on_c, 9, 42, 0
11, 27561, Note_on_c, 9, 69, 0
11, 27607, Note_on_c, 9, 36, 56
11, 27612, Note_on_c, 9, 42, 56
11, 27612, Note_on_c, 9, 69, 44
11, 27616, Note_on_c, 9, 42, 0
11, 27624, Note_on_c, 9, 69, 0
11, 27624, Note_on_c, 9, 36, 0
11, 27667, Note_on_c, 9, 38, 72
11, 27672, Note_on_c, 9, 42, 40
11, 27672, Note_on_c, 9, 69, 28
11, 27676, Note_on_c, 9, 42, 0
11, 27684, Note_on_c, 9, 69, 0
11, 27684, Note_on_c, 9, 38, 0
11, 27729, Note_on_c, 9, 69, 44
11, 27746, Note_on_c, 9, 69, 0
11, 27787, Note_on_c, 9, 42, 40
11, 27794, Note_on_c, 9, 69, 28
11, 27799, Note_on_c, 9, 42, 0
11, 27806, Note_on_c, 9, 69, 0
11, 27808, Note_on_c, 9, 42, 40
11, 27816, Note_on_c, 9, 42, 0
11, 27828, Note_on_c, 9, 42, 40
11, 27837, Note_on_c, 9, 42, 0
11, 27849, Note_on_c, 9, 36, 56
11, 27849, Note_on_c, 9, 42, 56
11, 27849, Note_on_c, 9, 69, 44
11, 27856, Note_on_c, 9, 42, 0
11, 27861, Note_on_c, 9, 36, 0
11, 27868, Note_on_c, 9, 69, 0
11, 27907, Note_on_c, 9, 36, 56
11, 27912, Note_on_c, 9, 42, 40
11, 27912, Note_on_c, 9, 69, 28
11, 27916, Note_on_c, 9, 42, 0
11, 27921, Note_on_c, 9, 36, 0
11, 27926, Note_on_c, 9, 69, 0
11, 27967, Note_on_c, 9, 38, 72
11, 27972, Note_on_c, 9, 42, 56
11, 27976, Note_on_c, 9, 42, 0
11, 27976, Note_on_c, 9, 38, 0
11, 27976, Note_on_c, 9, 69, 44
11, 27993, Note_on_c, 9, 69, 0
11, 28032, Note_on_c, 9, 42, 40
11, 28032, Note_on_c, 9, 69, 28
11, 28036, Note_on_c, 9, 42, 0
11, 28044, Note_on_c, 9, 69, 0
11, 28087, Note_on_c, 9, 36, 56
11, 28092, Note_on_c, 9, 42, 56
11, 28096, Note_on_c, 9, 42, 0
11, 28096, Note_on_c, 9, 69, 44
11, 28101, Note_on_c, 9, 36, 0
11, 28113, Note_on_c, 9, 69, 0
11, 28147, Note_on_c, 9, 38, 72
11, 28152, Note_on_c, 9, 42, 40
11, 28152, Note_on_c, 9, 69, 28
11, 28156, Note_on_c, 9, 42, 0
11, 28161, Note_on_c, 9, 38, 0
11, 28168, Note_on_c, 9, 69, 0
11, 28207, Note_on_c, 9, 42, 56
11, 28214, Note_on_c, 9, 69, 44
11, 28219, Note_on_c, 9, 42, 0
11, 28233, Note_on_c, 9, 69, 0
11, 28267, Note_on_c, 9, 42, 40
11, 28274, Note_on_c, 9, 69, 28
11, 28279, Note_on_c, 9, 42, 0
11, 28284, Note_on_c, 9, 69, 0
11, 28329, Note_on_c, 9, 36, 56
11, 28329, Note_on_c, 9, 42, 56
11, 28334, Note_on_c, 9, 69, 44
11, 28339, Note_on_c, 9, 42, 0
11, 28341, Note_on_c, 9, 36, 0
11, 28351, Note_on_c, 9, 69, 0
11, 28387, Note_on_c, 9, 36, 56
11, 28392, Note_on_c, 9, 42, 40
11, 28392, Note_on_c, 9, 69, 28
11, 28396, Note_on_c, 9, 42, 0
11, 28399, Note_on_c, 9, 36, 0
11, 28404, Note_on_c, 9, 69, 0
11, 28447, Note_on_c, 9, 38, 72
11, 28452, Note_on_c, 9, 42, 56
11, 28456, Note_on_c, 9, 42, 0
11, 28456, Note_on_c, 9, 38, 0
11, 28456, Note_on_c, 9, 69, 44
11, 28473, Note_on_c, 9, 69, 0
11, 28509, Note_on_c, 9, 42, 40
11, 28509, Note_on_c, 9, 69, 28
11, 28516, Note_on_c, 9, 42, 0
11, 28521, Note_on_c, 9, 69, 0
11, 28567, Note_on_c, 9, 36, 56
11, 28572, Note_on_c, 9, 42, 56
11, 28572, Note_on_c, 9, 69, 44
11, 28576, Note_on_c, 9, 42, 0
11, 28581, Note_on_c, 9, 36, 0
11, 28586, Note_on_c, 9, 69, 0
11, 28627, Note_on_c, 9, 38, 72
11, 28632, Note_on_c, 9, 42, 40
11, 28632, Note_on_c, 9, 69, 28
11, 28636, Note_on_c, 9, 42, 0
11, 28644, Note_on_c, 9, 69, 0
11, 28644, Note_on_c, 9, 38, 0
11, 28687, Note_on_c, 9, 42, 56
11, 28692, Note_on_c, 9, 69, 44
11, 28696, Note_on_c, 9, 42, 0
11, 28706, Note_on_c, 9, 69, 0
11, 28747, Note_on_c, 9, 46, 40
11, 28754, Note_on_c, 9, 69, 28
11, 28759, Note_on_c, 9, 46, 0
11, 28766, Note_on_c, 9, 69, 0
11, 28809, Note_on_c, 9, 36, 56
11, 28809, Note_on_c, 9, 42, 56
11, 28809, Note_on_c, 9, 69, 44
11, 28816, Note_on_c, 9, 42, 0
11, 28821, Note_on_c, 9, 36, 0
11, 28828, Note_on_c, 9, 69, 0
11, 28869, Note_on_c, 9, 42, 40
11, 28869, Note_on_c, 9, 36, 56
11, 28874, Note_on_c, 9, 42, 0
11, 28874, Note_on_c, 9, 69, 28
11, 28881, Note_on_c, 9, 36, 0
11, 28884, Note_on_c, 9, 69, 0
11, 28927, Note_on_c, 9, 38, 72
11, 28932, Note_on_c, 9, 42, 56
11, 28936, Note_on_c, 9, 42, 0
11, 28936, Note_on_c, 9, 38, 0
11, 28936, Note_on_c, 9, 69, 44
11, 28956, Note_on_c, 9, 69, 0
11, 28987, Note_on_c, 9, 69, 28
11, 28992, Note_on_c, 9, 42, 40
11, 28996, Note_on_c, 9, 42, 0
11, 29004, Note_on_c, 9, 69, 0
11, 29047, Note_on_c, 9, 36, 56
11, 29052, Note_on_c, 9, 42, 56
11, 29056, Note_on_c, 9, 42, 0
11, 29056, Note_on_c, 9, 69, 44
11, 29061, Note_on_c, 9, 36, 0
11, 29073, Note_on_c, 9, 69, 0
11, 29107, Note_on_c, 9, 38, 72
11, 29112, Note_on_c, 9, 42, 40
11, 29112, Note_on_c, 9, 69, 28
11, 29116, Note_on_c, 9, 42, 0
11, 29121, Note_on_c, 9, 38, 0
11, 29128, Note_on_c, 9, 69, 0
11, 29167, Note_on_c, 9, 42, 56
11, 29174, Note_on_c, 9, 69, 44
11, 29179, Note_on_c, 9, 42, 0
11, 29193, Note_on_c, 9, 69, 0
11, 29227, Note_on_c, 9, 46, 40
11, 29234, Note_on_c, 9, 69, 28
11, 29239, Note_on_c, 9, 46, 0
11, 29244, Note_on_c, 9, 69, 0
11, 29289, Note_on_c, 9, 42, 56
11, 29289, Note_on_c, 9, 36, 56
11, 29294, Note_on_c, 9, 69, 44
11, 29299, Note_on_c, 9, 42, 0
11, 29301, Note_on_c, 9, 36, 0
11, 29311, Note_on_c, 9, 69, 0
11, 29347, Note_on_c, 9, 42, 40
11, 29352, Note_on_c, 9, 36, 56
11, 29352, Note_on_c, 9, 69, 28
11, 29356, Note_on_c, 9, 42, 0
11, 29359, Note_on_c, 9, 36, 0
11, 29364, Note_on_c, 9, 69, 0
11, 29407, Note_on_c, 9, 38, 72
11, 29412, Note_on_c, 9, 42, 56
11, 29416, Note_on_c, 9, 42, 0
11, 29416, Note_on_c, 9, 38, 0
11, 29416, Note_on_c, 9, 69, 44
11, 29431, Note_on_c, 9, 69, 0
11, 29472, Note_on_c, 9, 42, 40
11, 29472, Note_on_c, 9, 69, 28
11, 29476, Note_on_c, 9, 42, 0
11, 29479, Note_on_c, 9, 69, 0
11, 29527, Note_on_c, 9, 69, 44
11, 29532, Note_on_c, 9, 42, 56
11, 29532, Note_on_c, 9, 36, 56
11, 29536, Note_on_c, 9, 42, 0
11, 29541, Note_on_c, 9, 36, 0
11, 29544, Note_on_c, 9, 69, 0
11, 29587, Note_on_c, 9, 38, 72
11, 29592, Note_on_c, 9, 42, 40
11, 29592, Note_on_c, 9, 69, 28
11, 29596, Note_on_c, 9, 42, 0
11, 29604, Note_on_c, 9, 69, 0
11, 29604, Note_on_c, 9, 38, 0
11, 29647, Note_on_c, 9, 42, 56
11, 29652, Note_on_c, 9, 69, 44
11, 29656, Note_on_c, 9, 42, 0
11, 29666, Note_on_c, 9, 69, 0
11, 29707, Note_on_c, 9, 46, 40
11, 29714, Note_on_c, 9, 69, 28
11, 29719, Note_on_c, 9, 46, 0
11, 29726, Note_on_c, 9, 69, 0
11, 29769, Note_on_c, 9, 42, 56
11, 29769, Note_on_c, 9, 36, 56
11, 29774, Note_on_c, 9, 69, 44
11, 29779, Note_on_c, 9, 42, 0
11, 29781, Note_on_c, 9, 36, 0
11, 29788, Note_on_c, 9, 69, 0
11, 29829, Note_on_c, 9, 42, 40
11, 29829, Note_on_c, 9, 36, 56
11, 29829, Note_on_c, 9, 69, 28
11, 29832, Note_on_c, 9, 42, 0
11, 29841, Note_on_c, 9, 36, 0
11, 29844, Note_on_c, 9, 69, 0
11, 29892, Note_on_c, 9, 42, 56
11, 29892, Note_on_c, 9, 38, 72
11, 29896, Note_on_c, 9, 38, 0
11, 29896, Note_on_c, 9, 42, 0
11, 29896, Note_on_c, 9, 69, 44
11, 29913, Note_on_c, 9, 69, 0
11, 29947, Note_on_c, 9, 69, 28
11, 29952, Note_on_c, 9, 42, 40
11, 29956, Note_on_c, 9, 42, 0
11, 29964, Note_on_c, 9, 69, 0
11, 30007, Note_on_c, 9, 36, 56
11, 30007, Note_on_c, 9, 42, 56
11, 30014, Note_on_c, 9, 42, 0
11, 30014, Note_on_c, 9, 69, 44
11, 30021, Note_on_c, 9, 36, 0
11, 30033, Note_on_c, 9, 69, 0
11, 30067, Note_on_c, 9, 38, 72
11, 30072, Note_on_c, 9, 42, 40
11, 30072, Note_on_c, 9, 69, 28
11, 30076, Note_on_c, 9, 42, 0
11, 30081, Note_on_c, 9, 38, 0
11, 30088, Note_on_c, 9, 69, 0
11, 30127, Note_on_c, 9, 42, 56
11, 30134, Note_on_c, 9, 69, 44
11, 30139, Note_on_c, 9, 42, 0
11, 30153, Note_on_c, 9, 69, 0
11, 30189, Note_on_c, 9, 46, 40
11, 30194, Note_on_c, 9, 69, 28
11, 30199, Note_on_c, 9, 46, 0
11, 30204, Note_on_c, 9, 69, 0
11, 30249, Note_on_c, 9, 42, 56
11, 30249, Note_on_c, 9, 36, 56
11, 30254, Note_on_c, 9, 69, 44
11, 30259, Note_on_c, 9, 42, 0
11, 30261, Note_on_c, 9, 36, 0
11, 30273, Note_on_c, 9, 69, 0
11, 30309, Note_on_c, 9, 42, 40
11, 30309, Note_on_c, 9, 36, 56
11, 30314, Note_on_c, 9, 42, 0
11, 30314, Note_on_c, 9, 69, 28
11, 30319, Note_on_c, 9, 36, 0
11, 30324, Note_on_c, 9, 69, 0
11, 30369, Note_on_c, 9, 42, 56
11, 30369, Note_on_c, 9, 38, 72
11, 30374, Note_on_c, 9, 42, 0
11, 30374, Note_on_c, 9, 69, 44
11, 30379, Note_on_c, 9, 38, 0
11, 30391, Note_on_c, 9, 69, 0
11, 30432, Note_on_c, 9, 42, 40
11, 30432, Note_on_c, 9, 69, 28
11, 30436, Note_on_c, 9, 42, 0
11, 30441, Note_on_c, 9, 69, 0
11, 30487, Note_on_c, 9, 69, 44
11, 30487, Note_on_c, 9, 42, 56
11, 30492, Note_on_c, 9, 36, 56
11, 30496, Note_on_c, 9, 42, 0
11, 30501, Note_on_c, 9, 36, 0
11, 30504, Note_on_c, 9, 69, 0
11, 30547, Note_on_c, 9, 38, 72
11, 30552, Note_on_c, 9, 42, 40
11, 30552, Note_on_c, 9, 69, 28
11, 30556, Note_on_c, 9, 42, 0
11, 30564, Note_on_c, 9, 69, 0
11, 30564, Note_on_c, 9, 38, 0
11, 30607, Note_on_c, 9, 42, 56
11, 30612, Note_on_c, 9, 69, 44
11, 30616, Note_on_c, 9, 42, 0
11, 30626, Note_on_c, 9, 69, 0
11, 30669, Note_on_c, 9, 46, 40
11, 30674, Note_on_c, 9, 69, 28
11, 30679, Note_on_c, 9, 46, 0
11, 30686, Note_on_c, 9, 69, 0
11, 30729, Note_on_c, 9, 42, 56
11, 30729, Note_on_c, 9, 36, 56
11, 30729, Note_on_c, 9, 69, 44
11, 30736, Note_on_c, 9, 42, 0
11, 30741, Note_on_c, 9, 36, 0
11, 30748, Note_on_c, 9, 69, 0
11, 30787, Note_on_c, 9, 42, 40
11, 30792, Note_on_c, 9, 36, 56
11, 30792, Note_on_c, 9, 69, 28
11, 30796, Note_on_c, 9, 42, 0
11, 30801, Note_on_c, 9, 36, 0
11, 30804, Note_on_c, 9, 69, 0
11, 30847, Note_on_c, 9, 38, 72
11, 30852, Note_on_c, 9, 42, 56
11, 30853, Note_on_c, 9, 42, 0
11, 30856, Note_on_c, 9, 38, 0
11, 30856, Note_on_c, 9, 69, 44
11, 30873, Note_on_c, 9, 69, 0
11, 30909, Note_on_c, 9, 42, 40
11, 30909, Note_on_c, 9, 69, 28
11, 30916, Note_on_c, 9, 42, 0
11, 30924, Note_on_c, 9, 69, 0
11, 30967, Note_on_c, 9, 36, 56
11, 30972, Note_on_c, 9, 42, 56
11, 30976, Note_on_c, 9, 42, 0
11, 30976, Note_on_c, 9, 69, 44
11, 30981, Note_on_c, 9, 36, 0
11, 30993, Note_on_c, 9, 69, 0
11, 31027, Note_on_c, 9, 42, 40
11, 31032, Note_on_c, 9, 38, 72
11, 31032, Note_on_c, 9, 69, 28
11, 31036, Note_on_c, 9, 42, 0
11, 31041, Note_on_c, 9, 38, 0
11, 31048, Note_on_c, 9, 69, 0
11, 31087, Note_on_c, 9, 42, 56
11, 31092, Note_on_c, 9, 69, 44
11, 31096, Note_on_c, 9, 42, 0
11, 31113, Note_on_c, 9, 69, 0
11, 31147, Note_on_c, 9, 46, 40
11, 31156, Note_on_c, 9, 46, 0
11, 31156, Note_on_c, 9, 69, 28
11, 31164, Note_on_c, 9, 69, 0
11, 31209, Note_on_c, 9, 42, 56
11, 31209, Note_on_c, 9, 36, 56
11, 31214, Note_on_c, 9, 69, 44
11, 31219, Note_on_c, 9, 42, 0
11, 31221, Note_on_c, 9, 36, 0
11, 31231, Note_on_c, 9, 69, 0
11, 31269, Note_on_c, 9, 42, 40
11, 31269, Note_on_c, 9, 36, 56
11, 31269, Note_on_c, 9, 69, 28
11, 31270, Note_on_c, 9, 42, 0
11, 31279, Note_on_c, 9, 36, 0
11, 31284, Note_on_c, 9, 69, 0
11, 31332, Note_on_c, 9, 42, 56
11, 31332, Note_on_c, 9, 38, 72
11, 31336, Note_on_c, 9, 38, 0
11, 31336, Note_on_c, 9, 42, 0
11, 31336, Note_on_c, 9, 69, 44
11, 31353, Note_on_c, 9, 69, 0
11, 31387, Note_on_c, 9, 69, 28
11, 31387, Note_on_c, 9, 42, 40
11, 31396, Note_on_c, 9, 42, 0
11, 31401, Note_on_c, 9, 69, 0
11, 31447, Note_on_c, 9, 69, 44
11, 31452, Note_on_c, 9, 42, 56
11, 31452, Note_on_c, 9, 36, 56
11, 31456, Note_on_c, 9, 42, 0
11, 31461, Note_on_c, 9, 36, 0
11, 31464, Note_on_c, 9, 69, 0
11, 31507, Note_on_c, 9, 38, 72
11, 31512, Note_on_c, 9, 42, 40
11, 31512, Note_on_c, 9, 69, 28
11, 31516, Note_on_c, 9, 42, 0
11, 31524, Note_on_c, 9, 69, 0
11, 31524, Note_on_c, 9, 38, 0
11, 31569, Note_on_c, 9, 69, 44
11, 31586, Note_on_c, 9, 69, 0
11, 31627, Note_on_c, 9, 42, 40
11, 31632, Note_on_c, 9, 69, 28
11, 31636, Note_on_c, 9, 42, 0
11, 31646, Note_on_c, 9, 69, 0
11, 31646, Note_on_c, 9, 42, 40
11, 31658, Note_on_c, 9, 42, 0
11, 31668, Note_on_c, 9, 42, 40
11, 31677, Note_on_c, 9, 42, 0
11, 31689, Note_on_c, 9, 42, 56
11, 31689, Note_on_c, 9, 36, 56
11, 31696, Note_on_c, 9, 42, 0
11, 31701, Note_on_c, 9, 36, 0
11, 31749, Note_on_c, 9, 42, 40
11, 31749, Note_on_c, 9, 36, 56
11, 31754, Note_on_c, 9, 42, 0
11, 31761, Note_on_c, 9, 36, 0
11, 31809, Note_on_c, 9, 42, 56
11, 31809, Note_on_c, 9, 38, 72
11, 31816, Note_on_c, 9, 38, 0
11, 31816, Note_on_c, 9, 42, 0
11, 31869, Note_on_c, 9, 42, 40
11, 31876, Note_on_c, 9, 42, 0
11, 31929, Note_on_c, 9, 42, 56
11, 31929, Note_on_c, 9, 36, 56
11, 31934, Note_on_c, 9, 42, 0
11, 31941, Note_on_c, 9, 36, 0
11, 31989, Note_on_c, 9, 42, 40
11, 31989, Note_on_c, 9, 38, 72
11, 31999, Note_on_c, 9, 42, 0
11, 32001, Note_on_c, 9, 38, 0
11, 32049, Note_on_c, 9, 42, 56
11, 32056, Note_on_c, 9, 42, 0
11, 32109, Note_on_c, 9, 46, 40
11, 32119, Note_on_c, 9, 46, 0
11, 32169, Note_on_c, 9, 42, 56
11, 32169, Note_on_c, 9, 36, 56
11, 32176, Note_on_c, 9, 42, 0
11, 32181, Note_on_c, 9, 36, 0
11, 32229, Note_on_c, 9, 42, 40
11, 32229, Note_on_c, 9, 36, 56
11, 32234, Note_on_c, 9, 42, 0
11, 32239, Note_on_c, 9, 36, 0
11, 32289, Note_on_c, 9, 42, 56
11, 32289, Note_on_c, 9, 38, 72
11, 32296, Note_on_c, 9, 38, 0
11, 32296, Note_on_c, 9, 42, 0
11, 32349, Note_on_c, 9, 42, 40
11, 32356, Note_on_c, 9, 42, 0
11, 32407, Note_on_c, 9, 36, 56
11, 32407, Note_on_c, 9, 42, 56
11, 32416, Note_on_c, 9, 42, 0
11, 32421, Note_on_c, 9, 36, 0
11, 32469, Note_on_c, 9, 42, 40
11, 32469, Note_on_c, 9, 38, 72
11, 32479, Note_on_c, 9, 42, 0
11, 32484, Note_on_c, 9, 38, 0
11, 32529, Note_on_c, 9, 42, 56
11, 32536, Note_on_c, 9, 42, 0
11, 32587, Note_on_c, 9, 46, 40
11, 32596, Note_on_c, 9, 46, 0
11, 32649, Note_on_c, 9, 42, 56
11, 32649, Note_on_c, 9, 36, 56
11, 32656, Note_on_c, 9, 42, 0
11, 32661, Note_on_c, 9, 36, 0
11, 32709, Note_on_c, 9, 42, 40
11, 32709, Note_on_c, 9, 36, 56
11, 32714, Note_on_c, 9, 42, 0
11, 32721, Note_on_c, 9, 36, 0
11, 32769, Note_on_c, 9, 42, 56
11, 32769, Note_on_c, 9, 38, 72
11, 32776, Note_on_c, 9, 38, 0
11, 32776, Note_on_c, 9, 42, 0
11, 32832, Note_on_c, 9, 42, 40
11, 32836, Note_on_c, 9, 42, 0
11, 32889, Note_on_c, 9, 42, 56
11, 32889, Note_on_c, 9, 36, 56
11, 32894, Note_on_c, 9, 42, 0
11, 32901, Note_on_c, 9, 36, 0
11, 32949, Note_on_c, 9, 42, 40
11, 32949, Note_on_c, 9, 38, 72
11, 32959, Note_on_c, 9, 42, 0
11, 32964, Note_on_c, 9, 38, 0
11, 33009, Note_on_c, 9, 42, 56
11, 33016, Note_on_c, 9, 42, 0
11, 33069, Note_on_c, 9, 46, 40
11, 33076, Note_on_c, 9, 46, 0
11, 33129, Note_on_c, 9, 42, 56
11, 33129, Note_on_c, 9, 36, 56
11, 33136, Note_on_c, 9, 42, 0
11, 33141, Note_on_c, 9, 36, 0
11, 33189, Note_on_c, 9, 42, 40
11, 33189, Note_on_c, 9, 36, 56
11, 33194, Note_on_c, 9, 42, 0
11, 33199, Note_on_c, 9, 36, 0
11, 33249, Note_on_c, 9, 42, 56
11, 33249, Note_on_c, 9, 38, 72
11, 33254, Note_on_c, 9, 42, 0
11, 33259, Note_on_c, 9, 38, 0
11, 33309, Note_on_c, 9, 42, 40
11, 33316, Note_on_c, 9, 42, 0
11, 33367, Note_on_c, 9, 36, 56
11, 33367, Note_on_c, 9, 42, 56
11, 33376, Note_on_c, 9, 42, 0
11, 33381, Note_on_c, 9, 36, 0
11, 33429, Note_on_c, 9, 42, 40
11, 33429, Note_on_c, 9, 38, 72
11, 33439, Note_on_c, 9, 42, 0
11, 33444, Note_on_c, 9, 38, 0
11, 33489, Note_on_c, 9, 42, 56
11, 33496, Note_on_c, 9, 42, 0
11, 33549, Note_on_c, 9, 46, 40
11, 33556, Note_on_c, 9, 46, 0
11, 33609, Note_on_c, 9, 42, 56
11, 33609, Note_on_c, 9, 36, 56
11, 33616, Note_on_c, 9, 42, 0
11, 33621, Note_on_c, 9, 36, 0
11, 33669, Note_on_c, 9, 42, 40
11, 33669, Note_on_c, 9, 36, 56
11, 33674, Note_on_c, 9, 42, 0
11, 33681, Note_on_c, 9, 36, 0
11, 33729, Note_on_c, 9, 42, 56
11, 33729, Note_on_c, 9, 38, 72
11, 33736, Note_on_c, 9, 38, 0
11, 33736, Note_on_c, 9, 42, 0
11, 33789, Note_on_c, 9, 42, 40
11, 33796, Note_on_c, 9, 42, 0
11, 33849, Note_on_c, 9, 42, 56
11, 33849, Note_on_c, 9, 36, 56
11, 33854, Note_on_c, 9, 42, 0
11, 33861, Note_on_c, 9, 36, 0
11, 33909, Note_on_c, 9, 42, 40
11, 33909, Note_on_c, 9, 38, 72
11, 33919, Note_on_c, 9, 42, 0
11, 33921, Note_on_c, 9, 38, 0
11, 33969, Note_on_c, 9, 42, 56
11, 33979, Note_on_c, 9, 42, 0
11, 34029, Note_on_c, 9, 46, 40
11, 34036, Note_on_c, 9, 46, 0
11, 34089, Note_on_c, 9, 42, 56
11, 34089, Note_on_c, 9, 36, 56
11, 34096, Note_on_c, 9, 42, 0
11, 34101, Note_on_c, 9, 36, 0
11, 34149, Note_on_c, 9, 42, 40
11, 34149, Note_on_c, 9, 36, 56
11, 34154, Note_on_c, 9, 42, 0
11, 34159, Note_on_c, 9, 36, 0
11, 34209, Note_on_c, 9, 42, 56
11, 34209, Note_on_c, 9, 38, 72
11, 34216, Note_on_c, 9, 38, 0
11, 34216, Note_on_c, 9, 42, 0
11, 34269, Note_on_c, 9, 42, 40
11, 34276, Note_on_c, 9, 42, 0
11, 34327, Note_on_c, 9, 36, 56
11, 34327, Note_on_c, 9, 42, 56
11, 34336, Note_on_c, 9, 42, 0
11, 34341, Note_on_c, 9, 36, 0
11, 34389, Note_on_c, 9, 42, 40
11, 34389, Note_on_c, 9, 38, 72
11, 34396, Note_on_c, 9, 42, 0
11, 34404, Note_on_c, 9, 38, 0
11, 34449, Note_on_c, 9, 42, 56
11, 34456, Note_on_c, 9, 42, 0
11, 34507, Note_on_c, 9, 46, 40
11, 34516, Note_on_c, 9, 46, 0
11, 34572, Note_on_c, 9, 42, 56
11, 34572, Note_on_c, 9, 36, 56
11, 34576, Note_on_c, 9, 42, 0
11, 34581, Note_on_c, 9, 36, 0
11, 34629, Note_on_c, 9, 42, 40
11, 34629, Note_on_c, 9, 36, 56
11, 34630, Note_on_c, 9, 42, 0
11, 34641, Note_on_c, 9, 36, 0
11, 34689, Note_on_c, 9, 42, 56
11, 34689, Note_on_c, 9, 38, 72
11, 34694, Note_on_c, 9, 42, 0
11, 34699, Note_on_c, 9, 38, 0
11, 34747, Note_on_c, 9, 42, 40
11, 34756, Note_on_c, 9, 42, 0
11, 34809, Note_on_c, 9, 42, 56
11, 34809, Note_on_c, 9, 36, 56
11, 34814, Note_on_c, 9, 42, 0
11, 34821, Note_on_c, 9, 36, 0
11, 34869, Note_on_c, 9, 42, 40
11, 34869, Note_on_c, 9, 38, 72
11, 34879, Note_on_c, 9, 42, 0
11, 34881, Note_on_c, 9, 38, 0
11, 34929, Note_on_c, 9, 42, 56
11, 34936, Note_on_c, 9, 42, 0
11, 34989, Note_on_c, 9, 46, 40
11, 34996, Note_on_c, 9, 46, 0
11, 35052, Note_on_c, 9, 42, 56
11, 35052, Note_on_c, 9, 36, 56
11, 35056, Note_on_c, 9, 42, 0
11, 35061, Note_on_c, 9, 36, 0
11, 35112, Note_on_c, 9, 42, 40
11, 35112, Note_on_c, 9, 36, 56
11, 35113, Note_on_c, 9, 42, 0
11, 35119, Note_on_c, 9, 36, 0
11, 35169, Note_on_c, 9, 42, 56
11, 35169, Note_on_c, 9, 38, 72
11, 35174, Note_on_c, 9, 42, 0
11, 35176, Note_on_c, 9, 38, 0
11, 35232, Note_on_c, 9, 42, 40
11, 35236, Note_on_c, 9, 42, 0
11, 35289, Note_on_c, 9, 42, 56
11, 35289, Note_on_c, 9, 36, 56
11, 35294, Note_on_c, 9, 42, 0
11, 35301, Note_on_c, 9, 36, 0
11, 35349, Note_on_c, 9, 42, 40
11, 35349, Note_on_c, 9, 38, 72
11, 35359, Note_on_c, 9, 42, 0
11, 35364, Note_on_c, 9, 38, 0
11, 35409, Note_on_c, 9, 42, 56
11, 35416, Note_on_c, 9, 42, 0
11, 35467, Note_on_c, 9, 46, 40
11, 35476, Note_on_c, 9, 46, 0
11, 35532, Note_on_c, 9, 42, 56
11, 35532, Note_on_c, 9, 36, 56
11, 35536, Note_on_c, 9, 42, 0
11, 35544, Note_on_c, 9, 36, 0
11, 35589, Note_on_c, 9, 42, 40
11, 35589, Note_on_c, 9, 36, 56
11, 35594, Note_on_c, 9, 42, 0
11, 35604, Note_on_c, 9, 36, 0
11, 35649, Note_on_c, 9, 42, 56
11, 35649, Note_on_c, 9, 38, 72
11, 35654, Note_on_c, 9, 42, 0
11, 35656, Note_on_c, 9, 38, 0
11, 35709, Note_on_c, 9, 42, 40
11, 35716, Note_on_c, 9, 42, 0
11, 35772, Note_on_c, 9, 42, 56
11, 35772, Note_on_c, 9, 36, 56
11, 35773, Note_on_c, 9, 42, 0
11, 35784, Note_on_c, 9, 36, 0
11, 35829, Note_on_c, 9, 42, 40
11, 35829, Note_on_c, 9, 36, 56
11, 35836, Note_on_c, 9, 42, 0
11, 35841, Note_on_c, 9, 36, 0
11, 35889, Note_on_c, 9, 42, 56
11, 35889, Note_on_c, 9, 38, 72
11, 35896, Note_on_c, 9, 42, 0
11, 35901, Note_on_c, 9, 38, 0
11, 35949, Note_on_c, 9, 42, 40
11, 35956, Note_on_c, 9, 42, 0
11, 36009, Note_on_c, 9, 42, 56
11, 36009, Note_on_c, 9, 36, 56
11, 36016, Note_on_c, 9, 42, 0
11, 36024, Note_on_c, 9, 36, 0
11, 36069, Note_on_c, 9, 42, 40
11, 36069, Note_on_c, 9, 36, 56
11, 36070, Note_on_c, 9, 42, 0
11, 36084, Note_on_c, 9, 36, 0
11, 36129, Note_on_c, 9, 42, 56
11, 36129, Note_on_c, 9, 38, 72
11, 36134, Note_on_c, 9, 42, 0
11, 36136, Note_on_c, 9, 38, 0
11, 36187, Note_on_c, 9, 42, 40
11, 36192, Note_on_c, 9, 36, 56
11, 36196, Note_on_c, 9, 42, 0
11, 36201, Note_on_c, 9, 36, 0
11, 36249, Note_on_c, 9, 42, 56
11, 36254, Note_on_c, 9, 42, 0
11, 36307, Note_on_c, 9, 42, 40
11, 36312, Note_on_c, 9, 36, 56
11, 36316, Note_on_c, 9, 42, 0
11, 36324, Note_on_c, 9, 36, 0
11, 36369, Note_on_c, 9, 42, 56
11, 36369, Note_on_c, 9, 38, 72
11, 36376, Note_on_c, 9, 42, 0
11, 36381, Note_on_c, 9, 38, 0
11, 36427, Note_on_c, 9, 42, 40
11, 36436, Note_on_c, 9, 42, 0
11, 36489, Note_on_c, 9, 42, 56
11, 36489, Note_on_c, 9, 36, 56
11, 36496, Note_on_c, 9, 42, 0
11, 36504, Note_on_c, 9, 36, 0
11, 36547, Note_on_c, 9, 42, 40
11, 36552, Note_on_c, 9, 42, 0
11, 36552, Note_on_c, 9, 36, 56
11, 36564, Note_on_c, 9, 36, 0
11, 36609, Note_on_c, 9, 42, 56
11, 36609, Note_on_c, 9, 38, 72
11, 36614, Note_on_c, 9, 42, 0
11, 36616, Note_on_c, 9, 38, 0
11, 36669, Note_on_c, 9, 42, 40
11, 36676, Note_on_c, 9, 42, 0
11, 36729, Note_on_c, 9, 42, 56
11, 36729, Note_on_c, 9, 36, 56
11, 36734, Note_on_c, 9, 42, 0
11, 36744, Note_on_c, 9, 36, 0
11, 36787, Note_on_c, 9, 42, 40
11, 36792, Note_on_c, 9, 36, 56
11, 36796, Note_on_c, 9, 42, 0
11, 36801, Note_on_c, 9, 36, 0
11, 36849, Note_on_c, 9, 42, 56
11, 36849, Note_on_c, 9, 38, 72
11, 36856, Note_on_c, 9, 42, 0
11, 36861, Note_on_c, 9, 38, 0
11, 36907, Note_on_c, 9, 42, 40
11, 36916, Note_on_c, 9, 42, 0
11, 36972, Note_on_c, 9, 42, 56
11, 36972, Note_on_c, 9, 36, 56
11, 36976, Note_on_c, 9, 42, 0
11, 36984, Note_on_c, 9, 36, 0
11, 37027, Note_on_c, 9, 42, 40
11, 37032, Note_on_c, 9, 42, 0
11, 37032, Note_on_c, 9, 36, 56
11, 37044, Note_on_c, 9, 36, 0
11, 37089, Note_on_c, 9, 42, 56
11, 37089, Note_on_c, 9, 38, 72
11, 37094, Note_on_c, 9, 42, 0
11, 37096, Note_on_c, 9, 38, 0
11, 37147, Note_on_c, 9, 36, 56
11, 37147, Note_on_c, 9, 42, 40
11, 37156, Note_on_c, 9, 42, 0
11, 37161, Note_on_c, 9, 36, 0
11, 37207, Note_on_c, 9, 42, 56
11, 37212, Note_on_c, 9, 42, 0
11, 37267, Note_on_c, 9, 42, 40
11, 37272, Note_on_c, 9, 36, 56
11, 37276, Note_on_c, 9, 42, 0
11, 37284, Note_on_c, 9, 36, 0
11, 37329, Note_on_c, 9, 42, 56
11, 37329, Note_on_c, 9, 38, 72
11, 37336, Note_on_c, 9, 42, 0
11, 37341, Note_on_c, 9, 38, 0
11, 37387, Note_on_c, 9, 42, 40
11, 37396, Note_on_c, 9, 42, 0
11, 37449, Note_on_c, 9, 42, 56
11, 37449, Note_on_c, 9, 36, 56
11, 37459, Note_on_c, 9, 42, 0
11, 37464, Note_on_c, 9, 36, 0
11, 37507, Note_on_c, 9, 42, 40
11, 37512, Note_on_c, 9, 42, 0
11, 37512, Note_on_c, 9, 36, 56
11, 37524, Note_on_c, 9, 36, 0
11, 37567, Note_on_c, 9, 42, 56
11, 37572, Note_on_c, 9, 42, 0
11, 37572, Note_on_c, 9, 38, 72
11, 37576, Note_on_c, 9, 38, 0
11, 37627, Note_on_c, 9, 42, 40
11, 37636, Note_on_c, 9, 42, 0
11, 37687, Note_on_c, 9, 42, 56
11, 37692, Note_on_c, 9, 42, 0
11, 37692, Note_on_c, 9, 36, 56
11, 37704, Note_on_c, 9, 36, 0
11, 37747, Note_on_c, 9, 42, 40
11, 37752, Note_on_c, 9, 36, 56
11, 37756, Note_on_c, 9, 42, 0
11, 37761, Note_on_c, 9, 36, 0
11, 37807, Note_on_c, 9, 42, 56
11, 37812, Note_on_c, 9, 38, 72
11, 37816, Note_on_c, 9, 42, 0
11, 37821, Note_on_c, 9, 38, 0
11, 37867, Note_on_c, 9, 42, 40
11, 37876, Note_on_c, 9, 42, 0
11, 37929, Note_on_c, 9, 42, 56
11, 37929, Note_on_c, 9, 36, 56
11, 37936, Note_on_c, 9, 42, 0
11, 37944, Note_on_c, 9, 36, 0
11, 37987, Note_on_c, 9, 42, 40
11, 37992, Note_on_c, 9, 42, 0
11, 37992, Note_on_c, 9, 36, 56
11, 38004, Note_on_c, 9, 36, 0
11, 38047, Note_on_c, 9, 42, 56
11, 38052, Note_on_c, 9, 42, 0
11, 38052, Note_on_c, 9, 38, 72
11, 38056, Note_on_c, 9, 38, 0
11, 38107, Note_on_c, 9, 42, 40
11, 38112, Note_on_c, 9, 36, 56
11, 38116, Note_on_c, 9, 42, 0
11, 38121, Note_on_c, 9, 36, 0
11, 38167, Note_on_c, 9, 42, 56
11, 38172, Note_on_c, 9, 42, 0
11, 38227, Note_on_c, 9, 42, 40
11, 38232, Note_on_c, 9, 36, 56
11, 38236, Note_on_c, 9, 42, 0
11, 38244, Note_on_c, 9, 36, 0
11, 38287, Note_on_c, 9, 42, 56
11, 38292, Note_on_c, 9, 38, 72
11, 38296, Note_on_c, 9, 42, 0
11, 38301, Note_on_c, 9, 38, 0
11, 38347, Note_on_c, 9, 42, 40
11, 38356, Note_on_c, 9, 42, 0
11, 38409, Note_on_c, 9, 42, 56
11, 38409, Note_on_c, 9, 36, 56
11, 38416, Note_on_c, 9, 42, 0
11, 38424, Note_on_c, 9, 36, 0
11, 38467, Note_on_c, 9, 42, 40
11, 38472, Note_on_c, 9, 42, 0
11, 38472, Note_on_c, 9, 36, 56
11, 38484, Note_on_c, 9, 36, 0
11, 38527, Note_on_c, 9, 42, 56
11, 38532, Note_on_c, 9, 42, 0
11, 38532, Note_on_c, 9, 38, 72
11, 38536, Note_on_c, 9, 38, 0
11, 38587, Note_on_c, 9, 42, 40
11, 38596, Note_on_c, 9, 42, 0
11, 38647, Note_on_c, 9, 42, 56
11, 38652, Note_on_c, 9, 42, 0
11, 38652, Note_on_c, 9, 36, 56
11, 38664, Note_on_c, 9, 36, 0
11, 38707, Note_on_c, 9, 42, 40
11, 38712, Note_on_c, 9, 36, 56
11, 38716, Note_on_c, 9, 42, 0
11, 38721, Note_on_c, 9, 36, 0
11, 38767, Note_on_c, 9, 42, 56
11, 38772, Note_on_c, 9, 38, 72
11, 38776, Note_on_c, 9, 42, 0
11, 38781, Note_on_c, 9, 38, 0
11, 38827, Note_on_c, 9, 42, 40
11, 38836, Note_on_c, 9, 42, 0
11, 38889, Note_on_c, 9, 42, 56
11, 38889, Note_on_c, 9, 36, 56
11, 38894, Note_on_c, 9, 42, 0
11, 38904, Note_on_c, 9, 36, 0
11, 38947, Note_on_c, 9, 42, 40
11, 38952, Note_on_c, 9, 42, 0
11, 38952, Note_on_c, 9, 36, 56
11, 38964, Note_on_c, 9, 36, 0
11, 39007, Note_on_c, 9, 42, 56
11, 39012, Note_on_c, 9, 42, 0
11, 39012, Note_on_c, 9, 38, 72
11, 39016, Note_on_c, 9, 38, 0
11, 39067, Note_on_c, 9, 42, 40
11, 39072, Note_on_c, 9, 36, 56
11, 39076, Note_on_c, 9, 42, 0
11, 39081, Note_on_c, 9, 36, 0
11, 39127, Note_on_c, 9, 42, 56
11, 39136, Note_on_c, 9, 42, 0
11, 39187, Note_on_c, 9, 42, 40
11, 39192, Note_on_c, 9, 36, 56
11, 39196, Note_on_c, 9, 42, 0
11, 39204, Note_on_c, 9, 36, 0
11, 39247, Note_on_c, 9, 38, 72
11, 39261, Note_on_c, 9, 38, 0
11, 39307, Note_on_c, 9, 42, 40
11, 39316, Note_on_c, 9, 42, 0
11, 39326, Note_on_c, 9, 42, 40
11, 39338, Note_on_c, 9, 42, 0
11, 39348, Note_on_c, 9, 42, 40
11, 39357, Note_on_c, 9, 42, 0
11, 39369, Note_on_c, 9, 42, 56
11, 39369, Note_on_c, 9, 36, 56
11, 39369, Note_on_c, 9, 69, 44
11, 39374, Note_on_c, 9, 42, 0
11, 39381, Note_on_c, 9, 36, 0
11, 39388, Note_on_c, 9, 69, 0
11, 39427, Note_on_c, 9, 42, 40
11, 39432, Note_on_c, 9, 42, 0
11, 39432, Note_on_c, 9, 36, 56
11, 39432, Note_on_c, 9, 69, 28
11, 39441, Note_on_c, 9, 36, 0
11, 39444, Note_on_c, 9, 69, 0
11, 39487, Note_on_c, 9, 38, 72
11, 39487, Note_on_c, 9, 42, 56
11, 39494, Note_on_c, 9, 42, 0
11, 39496, Note_on_c, 9, 38, 0
11, 39496, Note_on_c, 9, 69, 44
11, 39513, Note_on_c, 9, 69, 0
11, 39547, Note_on_c, 9, 42, 40
11, 39552, Note_on_c, 9, 69, 28
11, 39556, Note_on_c, 9, 42, 0
11, 39564, Note_on_c, 9, 69, 0
11, 39607, Note_on_c, 9, 36, 56
11, 39607, Note_on_c, 9, 42, 56
11, 39616, Note_on_c, 9, 42, 0
11, 39616, Note_on_c, 9, 69, 44
11, 39621, Note_on_c, 9, 36, 0
11, 39633, Note_on_c, 9, 69, 0
11, 39667, Note_on_c, 9, 42, 40
11, 39672, Note_on_c, 9, 38, 72
11, 39672, Note_on_c, 9, 69, 28
11, 39676, Note_on_c, 9, 42, 0
11, 39681, Note_on_c, 9, 38, 0
11, 39688, Note_on_c, 9, 69, 0
11, 39727, Note_on_c, 9, 42, 56
11, 39732, Note_on_c, 9, 69, 44
11, 39736, Note_on_c, 9, 42, 0
11, 39753, Note_on_c, 9, 69, 0
11, 39787, Note_on_c, 9, 42, 40
11, 39792, Note_on_c, 9, 69, 28
11, 39796, Note_on_c, 9, 42, 0
11, 39804, Note_on_c, 9, 69, 0
11, 39849, Note_on_c, 9, 42, 56
11, 39849, Note_on_c, 9, 36, 56
11, 39854, Note_on_c, 9, 42, 0
11, 39854, Note_on_c, 9, 69, 44
11, 39861, Note_on_c, 9, 36, 0
11, 39871, Note_on_c, 9, 69, 0
11, 39907, Note_on_c, 9, 42, 40
11, 39912, Note_on_c, 9, 42, 0
11, 39912, Note_on_c, 9, 36, 56
11, 39912, Note_on_c, 9, 69, 28
11, 39919, Note_on_c, 9, 36, 0
11, 39924, Note_on_c, 9, 69, 0
11, 39967, Note_on_c, 9, 38, 72
11, 39967, Note_on_c, 9, 42, 56
11, 39972, Note_on_c, 9, 42, 0
11, 39972, Note_on_c, 9, 69, 44
11, 39976, Note_on_c, 9, 38, 0
11, 39991, Note_on_c, 9, 69, 0
11, 40027, Note_on_c, 9, 42, 40
11, 40032, Note_on_c, 9, 69, 28
11, 40036, Note_on_c, 9, 42, 0
11, 40041, Note_on_c, 9, 69, 0
11, 40087, Note_on_c, 9, 36, 56
11, 40087, Note_on_c, 9, 42, 56
11, 40087, Note_on_c, 9, 69, 44
11, 40094, Note_on_c, 9, 42, 0
11, 40101, Note_on_c, 9, 36, 0
11, 40104, Note_on_c, 9, 69, 0
11, 40147, Note_on_c, 9, 38, 72
11, 40147, Note_on_c, 9, 42, 40
11, 40147, Note_on_c, 9, 69, 28
11, 40156, Note_on_c, 9, 42, 0
11, 40164, Note_on_c, 9, 69, 0
11, 40164, Note_on_c, 9, 38, 0
11, 40207, Note_on_c, 9, 42, 56
11, 40212, Note_on_c, 9, 69, 44
11, 40216, Note_on_c, 9, 42, 0
11, 40226, Note_on_c, 9, 69, 0
11, 40267, Note_on_c, 9, 46, 40
11, 40272, Note_on_c, 9, 69, 28
11, 40276, Note_on_c, 9, 46, 0
11, 40286, Note_on_c, 9, 69, 0
11, 40329, Note_on_c, 9, 42, 56
11, 40329, Note_on_c, 9, 36, 56
11, 40329, Note_on_c, 9, 69, 44
11, 40336, Note_on_c, 9, 42, 0
11, 40341, Note_on_c, 9, 36, 0
11, 40348, Note_on_c, 9, 69, 0
11, 40387, Note_on_c, 9, 42, 40
11, 40392, Note_on_c, 9, 42, 0
11, 40392, Note_on_c, 9, 36, 56
11, 40392, Note_on_c, 9, 69, 28
11, 40401, Note_on_c, 9, 36, 0
11, 40404, Note_on_c, 9, 69, 0
11, 40447, Note_on_c, 9, 38, 72
11, 40447, Note_on_c, 9, 42, 56
11, 40454, Note_on_c, 9, 42, 0
11, 40456, Note_on_c, 9, 38, 0
11, 40456, Note_on_c, 9, 69, 44
11, 40473, Note_on_c, 9, 69, 0
11, 40507, Note_on_c, 9, 42, 40
11, 40512, Note_on_c, 9, 69, 28
11, 40516, Note_on_c, 9, 42, 0
11, 40524, Note_on_c, 9, 69, 0
11, 40567, Note_on_c, 9, 36, 56
11, 40567, Note_on_c, 9, 42, 56
11, 40576, Note_on_c, 9, 42, 0
11, 40576, Note_on_c, 9, 69, 44
11, 40581, Note_on_c, 9, 36, 0
11, 40593, Note_on_c, 9, 69, 0
11, 40627, Note_on_c, 9, 42, 40
11, 40632, Note_on_c, 9, 38, 72
11, 40632, Note_on_c, 9, 69, 28
11, 40636, Note_on_c, 9, 42, 0
11, 40641, Note_on_c, 9, 38, 0
11, 40646, Note_on_c, 9, 69, 0
11, 40687, Note_on_c, 9, 42, 56
11, 40692, Note_on_c, 9, 69, 44
11, 40696, Note_on_c, 9, 42, 0
11, 40711, Note_on_c, 9, 69, 0
11, 40747, Note_on_c, 9, 42, 40
11, 40752, Note_on_c, 9, 69, 28
11, 40756, Note_on_c, 9, 42, 0
11, 40764, Note_on_c, 9, 69, 0
11, 40809, Note_on_c, 9, 42, 56
11, 40809, Note_on_c, 9, 36, 56
11, 40814, Note_on_c, 9, 42, 0
11, 40814, Note_on_c, 9, 69, 44
11, 40821, Note_on_c, 9, 36, 0
11, 40831, Note_on_c, 9, 69, 0
11, 40867, Note_on_c, 9, 42, 40
11, 40872, Note_on_c, 9, 42, 0
11, 40872, Note_on_c, 9, 36, 56
11, 40872, Note_on_c, 9, 69, 28
11, 40879, Note_on_c, 9, 36, 0
11, 40884, Note_on_c, 9, 69, 0
11, 40927, Note_on_c, 9, 38, 72
11, 40927, Note_on_c, 9, 42, 56
11, 40932, Note_on_c, 9, 42, 0
11, 40932, Note_on_c, 9, 69, 44
11, 40936, Note_on_c, 9, 38, 0
11, 40951, Note_on_c, 9, 69, 0
11, 40987, Note_on_c, 9, 42, 40
11, 40992, Note_on_c, 9, 69, 28
11, 40996, Note_on_c, 9, 42, 0
11, 41001, Note_on_c, 9, 69, 0
11, 41047, Note_on_c, 9, 36, 56
11, 41047, Note_on_c, 9, 42, 56
11, 41052, Note_on_c, 9, 69, 44
11, 41056, Note_on_c, 9, 42, 0
11, 41061, Note_on_c, 9, 36, 0
11, 41064, Note_on_c, 9, 69, 0
11, 41107, Note_on_c, 9, 38, 72
11, 41107, Note_on_c, 9, 42, 40
11, 41107, Note_on_c, 9, 69, 28
11, 41116, Note_on_c, 9, 42, 0
11, 41124, Note_on_c, 9, 69, 0
11, 41124, Note_on_c, 9, 38, 0
11, 41167, Note_on_c, 9, 42, 56
11, 41172, Note_on_c, 9, 69, 44
11, 41176, Note_on_c, 9, 42, 0
11, 41186, Note_on_c, 9, 69, 0
11, 41227, Note_on_c, 9, 46, 40
11, 41232, Note_on_c, 9, 69, 28
11, 41236, Note_on_c, 9, 46, 0
11, 41246, Note_on_c, 9, 69, 0
11, 41289, Note_on_c, 9, 42, 56
11, 41289, Note_on_c, 9, 36, 56
11, 41289, Note_on_c, 9, 69, 44
11, 41296, Note_on_c, 9, 42, 0
11, 41301, Note_on_c, 9, 36, 0
11, 41308, Note_on_c, 9, 69, 0
11, 41347, Note_on_c, 9, 42, 40
11, 41352, Note_on_c, 9, 42, 0
11, 41352, Note_on_c, 9, 36, 56
11, 41352, Note_on_c, 9, 69, 28
11, 41361, Note_on_c, 9, 36, 0
11, 41364, Note_on_c, 9, 69, 0
11, 41407, Note_on_c, 9, 38, 72
11, 41407, Note_on_c, 9, 42, 56
11, 41416, Note_on_c, 9, 42, 0
11, 41416, Note_on_c, 9, 38, 0
11, 41416, Note_on_c, 9, 69, 44
11, 41433, Note_on_c, 9, 69, 0
11, 41467, Note_on_c, 9, 42, 40
11, 41472, Note_on_c, 9, 69, 28
11, 41476, Note_on_c, 9, 42, 0
11, 41484, Note_on_c, 9, 69, 0
11, 41527, Note_on_c, 9, 36, 56
11, 41527, Note_on_c, 9, 42, 56
11, 41536, Note_on_c, 9, 42, 0
11, 41536, Note_on_c, 9, 69, 44
11, 41541, Note_on_c, 9, 36, 0
11, 41553, Note_on_c, 9, 69, 0
11, 41587, Note_on_c, 9, 42, 40
11, 41592, Note_on_c, 9, 38, 72
11, 41592, Note_on_c, 9, 69, 28
11, 41596, Note_on_c, 9, 42, 0
11, 41601, Note_on_c, 9, 38, 0
11, 41608, Note_on_c, 9, 69, 0
11, 41647, Note_on_c, 9, 42, 56
11, 41652, Note_on_c, 9, 69, 44
11, 41656, Note_on_c, 9, 42, 0
11, 41673, Note_on_c, 9, 69, 0
11, 41707, Note_on_c, 9, 42, 40
11, 41712, Note_on_c, 9, 69, 28
11, 41716, Note_on_c, 9, 42, 0
11, 41724, Note_on_c, 9, 69, 0
11, 41769, Note_on_c, 9, 42, 56
11, 41769, Note_on_c, 9, 36, 56
11, 41774, Note_on_c, 9, 42, 0
11, 41774, Note_on_c, 9, 69, 44
11, 41781, Note_on_c, 9, 36, 0
11, 41791, Note_on_c, 9, 69, 0
11, 41827, Note_on_c, 9, 42, 40
11, 41832, Note_on_c, 9, 42, 0
11, 41832, Note_on_c, 9, 36, 56
11, 41832, Note_on_c, 9, 69, 28
11, 41839, Note_on_c, 9, 36, 0
11, 41844, Note_on_c, 9, 69, 0
11, 41887, Note_on_c, 9, 38, 72
11, 41887, Note_on_c, 9, 42, 56
11, 41892, Note_on_c, 9, 42, 0
11, 41892, Note_on_c, 9, 69, 44
11, 41896, Note_on_c, 9, 38, 0
11, 41911, Note_on_c, 9, 69, 0
11, 41947, Note_on_c, 9, 42, 40
11, 41952, Note_on_c, 9, 69, 28
11, 41956, Note_on_c, 9, 42, 0
11, 41961, Note_on_c, 9, 69, 0
11, 42007, Note_on_c, 9, 36, 56
11, 42007, Note_on_c, 9, 42, 56
11, 42012, Note_on_c, 9, 42, 0
11, 42012, Note_on_c, 9, 69, 44
11, 42021, Note_on_c, 9, 36, 0
11, 42024, Note_on_c, 9, 69, 0
11, 42067, Note_on_c, 9, 38, 72
11, 42067, Note_on_c, 9, 42, 40
11, 42072, Note_on_c, 9, 69, 28
11, 42076, Note_on_c, 9, 42, 0
11, 42084, Note_on_c, 9, 69, 0
11, 42084, Note_on_c, 9, 38, 0
11, 42127, Note_on_c, 9, 42, 56
11, 42132, Note_on_c, 9, 69, 44
11, 42136, Note_on_c, 9, 42, 0
11, 42144, Note_on_c, 9, 69, 0
11, 42187, Note_on_c, 9, 46, 40
11, 42192, Note_on_c, 9, 69, 28
11, 42196, Note_on_c, 9, 46, 0
11, 42204, Note_on_c, 9, 69, 0
11, 42249, Note_on_c, 9, 42, 56
11, 42249, Note_on_c, 9, 36, 56
11, 42249, Note_on_c, 9, 69, 44
11, 42256, Note_on_c, 9, 42, 0
11, 42261, Note_on_c, 9, 36, 0
11, 42268, Note_on_c, 9, 69, 0
11, 42307, Note_on_c, 9, 42, 40
11, 42312, Note_on_c, 9, 42, 0
11, 42312, Note_on_c, 9, 36, 56
11, 42312, Note_on_c, 9, 69, 28
11, 42321, Note_on_c, 9, 36, 0
11, 42324, Note_on_c, 9, 69, 0
11, 42367, Note_on_c, 9, 38, 72
11, 42367, Note_on_c, 9, 42, 56
11, 42374, Note_on_c, 9, 42, 0
11, 42376, Note_on_c, 9, 38, 0
11, 42376, Note_on_c, 9, 69, 44
11, 42393, Note_on_c, 9, 69, 0
11, 42427, Note_on_c, 9, 42, 40
11, 42427, Note_on_c, 9, 69, 28
11, 42436, Note_on_c, 9, 42, 0
11, 42444, Note_on_c, 9, 69, 0
11, 42487, Note_on_c, 9, 36, 56
11, 42487, Note_on_c, 9, 42, 56
11, 42494, Note_on_c, 9, 42, 0
11, 42494, Note_on_c, 9, 69, 44
11, 42501, Note_on_c, 9, 36, 0
11, 42513, Note_on_c, 9, 69, 0
11, 42547, Note_on_c, 9, 42, 40
11, 42552, Note_on_c, 9, 38, 72
11, 42552, Note_on_c, 9, 69, 28
11, 42556, Note_on_c, 9, 42, 0
11, 42561, Note_on_c, 9, 38, 0
11, 42568, Note_on_c, 9, 69, 0
11, 42607, Note_on_c, 9, 42, 56
11, 42612, Note_on_c, 9, 69, 44
11, 42616, Note_on_c, 9, 42, 0
11, 42633, Note_on_c, 9, 69, 0
11, 42667, Note_on_c, 9, 46, 40
11, 42672, Note_on_c, 9, 69, 28
11, 42676, Note_on_c, 9, 46, 0
11, 42684, Note_on_c, 9, 69, 0
11, 42729, Note_on_c, 9, 42, 56
11, 42729, Note_on_c, 9, 36, 56
11, 42734, Note_on_c, 9, 42, 0
11, 42734, Note_on_c, 9, 69, 44
11, 42741, Note_on_c, 9, 36, 0
11, 42751, Note_on_c, 9, 69, 0
11, 42787, Note_on_c, 9, 42, 40
11, 42792, Note_on_c, 9, 42, 0
11, 42792, Note_on_c, 9, 36, 56
11, 42792, Note_on_c, 9, 69, 28
11, 42799, Note_on_c, 9, 36, 0
11, 42804, Note_on_c, 9, 69, 0
11, 42847, Note_on_c, 9, 38, 72
11, 42847, Note_on_c, 9, 42, 56
11, 42852, Note_on_c, 9, 69, 44
11, 42856, Note_on_c, 9, 42, 0
11, 42856, Note_on_c, 9, 38, 0
11, 42871, Note_on_c, 9, 69, 0
11, 42907, Note_on_c, 9, 42, 40
11, 42907, Note_on_c, 9, 69, 28
11, 42916, Note_on_c, 9, 42, 0
11, 42921, Note_on_c, 9, 69, 0
11, 42967, Note_on_c, 9, 36, 56
11, 42967, Note_on_c, 9, 42, 56
11, 42967, Note_on_c, 9, 69, 44
11, 42974, Note_on_c, 9, 42, 0
11, 42981, Note_on_c, 9, 36, 0
11, 42984, Note_on_c, 9, 69, 0
11, 43027, Note_on_c, 9, 38, 72
11, 43027, Note_on_c, 9, 42, 40
11, 43027, Note_on_c, 9, 69, 28
11, 43036, Note_on_c, 9, 42, 0
11, 43044, Note_on_c, 9, 69, 0
11, 43044, Note_on_c, 9, 38, 0
11, 43087, Note_on_c, 9, 42, 56
11, 43092, Note_on_c, 9, 69, 44
11, 43096, Note_on_c, 9, 42, 0
11, 43106, Note_on_c, 9, 69, 0
11, 43147, Note_on_c, 9, 42, 40
11, 43152, Note_on_c, 9, 69, 28
11, 43156, Note_on_c, 9, 42, 0
11, 43166, Note_on_c, 9, 69, 0
11, 43209, Note_on_c, 9, 42, 56
11, 43209, Note_on_c, 9, 36, 56
11, 43209, Note_on_c, 9, 69, 44
11, 43214, Note_on_c, 9, 42, 0
11, 43224, Note_on_c, 9, 36, 0
11, 43228, Note_on_c, 9, 69, 0
11, 43267, Note_on_c, 9, 42, 40
11, 43272, Note_on_c, 9, 42, 0
11, 43272, Note_on_c, 9, 36, 56
11, 43272, Note_on_c, 9, 69, 28
11, 43284, Note_on_c, 9, 69, 0
11, 43284, Note_on_c, 9, 36, 0
11, 43327, Note_on_c, 9, 38, 72
11, 43327, Note_on_c, 9, 42, 56
11, 43336, Note_on_c, 9, 42, 0
11, 43336, Note_on_c, 9, 38, 0
11, 43336, Note_on_c, 9, 69, 44
11, 43353, Note_on_c, 9, 69, 0
11, 43387, Note_on_c, 9, 42, 40
11, 43392, Note_on_c, 9, 69, 28
11, 43396, Note_on_c, 9, 42, 0
11, 43404, Note_on_c, 9, 69, 0
11, 43447, Note_on_c, 9, 36, 56
11, 43447, Note_on_c, 9, 42, 56
11, 43456, Note_on_c, 9, 42, 0
11, 43456, Note_on_c, 9, 69, 44
11, 43464, Note_on_c, 9, 36, 0
11, 43473, Note_on_c, 9, 69, 0
11, 43507, Note_on_c, 9, 42, 40
11, 43512, Note_on_c, 9, 36, 56
11, 43512, Note_on_c, 9, 69, 28
11, 43516, Note_on_c, 9, 42, 0
11, 43521, Note_on_c, 9, 36, 0
11, 43528, Note_on_c, 9, 69, 0
11, 43567, Note_on_c, 9, 38, 72
11, 43567, Note_on_c, 9, 42, 56
11, 43572, Note_on_c, 9, 69, 44
11, 43576, Note_on_c, 9, 42, 0
11, 43581, Note_on_c, 9, 38, 0
11, 43593, Note_on_c, 9, 69, 0
11, 43627, Note_on_c, 9, 42, 40
11, 43632, Note_on_c, 9, 69, 28
11, 43636, Note_on_c, 9, 42, 0
11, 43644, Note_on_c, 9, 69, 0
11, 43689, Note_on_c, 9, 42, 56
11, 43689, Note_on_c, 9, 36, 56
11, 43694, Note_on_c, 9, 42, 0
11, 43694, Note_on_c, 9, 69, 44
11, 43706, Note_on_c, 9, 36, 0
11, 43711, Note_on_c, 9, 69, 0
11, 43747, Note_on_c, 9, 42, 40
11, 43752, Note_on_c, 9, 42, 0
11, 43752, Note_on_c, 9, 36, 56
11, 43752, Note_on_c, 9, 69, 28
11, 43764, Note_on_c, 9, 69, 0
11, 43764, Note_on_c, 9, 36, 0
11, 43807, Note_on_c, 9, 38, 72
11, 43807, Note_on_c, 9, 42, 56
11, 43812, Note_on_c, 9, 42, 0
11, 43812, Note_on_c, 9, 69, 44
11, 43816, Note_on_c, 9, 38, 0
11, 43831, Note_on_c, 9, 69, 0
11, 43867, Note_on_c, 9, 42, 40
11, 43872, Note_on_c, 9, 69, 28
11, 43872, Note_on_c, 9, 36, 56
11, 43876, Note_on_c, 9, 42, 0
11, 43881, Note_on_c, 9, 36, 0
11, 43881, Note_on_c, 9, 69, 0
11, 43927, Note_on_c, 9, 69, 44
11, 43927, Note_on_c, 9, 42, 56
11, 43934, Note_on_c, 9, 42, 0
11, 43944, Note_on_c, 9, 69, 0
11, 43987, Note_on_c, 9, 36, 56
11, 43987, Note_on_c, 9, 42, 40
11, 43987, Note_on_c, 9, 69, 28
11, 43996, Note_on_c, 9, 42, 0
11, 44004, Note_on_c, 9, 69, 0
11, 44004, Note_on_c, 9, 36, 0
11, 44047, Note_on_c, 9, 38, 72
11, 44047, Note_on_c, 9, 42, 56
11, 44052, Note_on_c, 9, 69, 44
11, 44056, Note_on_c, 9, 42, 0
11, 44061, Note_on_c, 9, 38, 0
11, 44066, Note_on_c, 9, 69, 0
11, 44107, Note_on_c, 9, 42, 40
11, 44112, Note_on_c, 9, 69, 28
11, 44116, Note_on_c, 9, 42, 0
11, 44126, Note_on_c, 9, 69, 0
11, 44169, Note_on_c, 9, 42, 56
11, 44169, Note_on_c, 9, 36, 56
11, 44169, Note_on_c, 9, 69, 44
11, 44176, Note_on_c, 9, 42, 0
11, 44184, Note_on_c, 9, 36, 0
11, 44188, Note_on_c, 9, 69, 0
11, 44227, Note_on_c, 9, 42, 40
11, 44232, Note_on_c, 9, 42, 0
11, 44232, Note_on_c, 9, 36, 56
11, 44232, Note_on_c, 9, 69, 28
11, 44244, Note_on_c, 9, 69, 0
11, 44244, Note_on_c, 9, 36, 0
11, 44287, Note_on_c, 9, 38, 72
11, 44287, Note_on_c, 9, 42, 56
11, 44296, Note_on_c, 9, 42, 0
11, 44296, Note_on_c, 9, 38, 0
11, 44296, Note_on_c, 9, 69, 44
11, 44313, Note_on_c, 9, 69, 0
11, 44347, Note_on_c, 9, 42, 40
11, 44352, Note_on_c, 9, 69, 28
11, 44356, Note_on_c, 9, 42, 0
11, 44364, Note_on_c, 9, 69, 0
11, 44407, Note_on_c, 9, 36, 56
11, 44407, Note_on_c, 9, 42, 56
11, 44414, Note_on_c, 9, 42, 0
11, 44414, Note_on_c, 9, 69, 44
11, 44424, Note_on_c, 9, 36, 0
11, 44433, Note_on_c, 9, 69, 0
11, 44467, Note_on_c, 9, 42, 40
11, 44472, Note_on_c, 9, 36, 56
11, 44472, Note_on_c, 9, 69, 28
11, 44476, Note_on_c, 9, 42, 0
11, 44481, Note_on_c, 9, 36, 0
11, 44488, Note_on_c, 9, 69, 0
11, 44527, Note_on_c, 9, 38, 72
11, 44527, Note_on_c, 9, 42, 56
11, 44532, Note_on_c, 9, 69, 44
11, 44536, Note_on_c, 9, 42, 0
11, 44541, Note_on_c, 9, 38, 0
11, 44553, Note_on_c, 9, 69, 0
11, 44587, Note_on_c, 9, 42, 40
11, 44592, Note_on_c, 9, 69, 28
11, 44596, Note_on_c, 9, 42, 0
11, 44604, Note_on_c, 9, 69, 0
11, 44649, Note_on_c, 9, 42, 56
11, 44649, Note_on_c, 9, 36, 56
11, 44649, Note_on_c, 9, 69, 44
11, 44656, Note_on_c, 9, 42, 0
11, 44666, Note_on_c, 9, 36, 0
11, 44671, Note_on_c, 9, 69, 0
11, 44707, Note_on_c, 9, 42, 40
11, 44712, Note_on_c, 9, 42, 0
11, 44712, Note_on_c, 9, 36, 56
11, 44712, Note_on_c, 9, 69, 28
11, 44724, Note_on_c, 9, 69, 0
11, 44724, Note_on_c, 9, 36, 0
11, 44767, Note_on_c, 9, 38, 72
11, 44767, Note_on_c, 9, 42, 56
11, 44772, Note_on_c, 9, 69, 44
11, 44776, Note_on_c, 9, 42, 0
11, 44776, Note_on_c, 9, 38, 0
11, 44791, Note_on_c, 9, 69, 0
11, 44827, Note_on_c, 9, 42, 40
11, 44827, Note_on_c, 9, 69, 28
11, 44832, Note_on_c, 9, 36, 56
11, 44836, Note_on_c, 9, 42, 0
11, 44841, Note_on_c, 9, 36, 0
11, 44841, Note_on_c, 9, 69, 0
11, 44887, Note_on_c, 9, 69, 44
11, 44887, Note_on_c, 9, 42, 56
11, 44894, Note_on_c, 9, 42, 0
11, 44904, Note_on_c, 9, 69, 0
11, 44947, Note_on_c, 9, 36, 56
11, 44947, Note_on_c, 9, 42, 40
11, 44947, Note_on_c, 9, 69, 28
11, 44956, Note_on_c, 9, 42, 0
11, 44964, Note_on_c, 9, 69, 0
11, 44964, Note_on_c, 9, 36, 0
11, 45007, Note_on_c, 9, 38, 72
11, 45007, Note_on_c, 9, 42, 56
11, 45012, Note_on_c, 9, 69, 44
11, 45016, Note_on_c, 9, 42, 0
11, 45021, Note_on_c, 9, 38, 0
11, 45026, Note_on_c, 9, 69, 0
11, 45067, Note_on_c, 9, 42, 40
11, 45072, Note_on_c, 9, 69, 28
11, 45076, Note_on_c, 9, 42, 0
11, 45086, Note_on_c, 9, 69, 0
11, 45129, Note_on_c, 9, 42, 56
11, 45129, Note_on_c, 9, 36, 56
11, 45129, Note_on_c, 9, 69, 44
11, 45136, Note_on_c, 9, 42, 0
11, 45144, Note_on_c, 9, 36, 0
11, 45148, Note_on_c, 9, 69, 0
11, 45187, Note_on_c, 9, 42, 40
11, 45192, Note_on_c, 9, 42, 0
11, 45192, Note_on_c, 9, 36, 56
11, 45192, Note_on_c, 9, 69, 28
11, 45204, Note_on_c, 9, 69, 0
11, 45204, Note_on_c, 9, 36, 0
11, 45247, Note_on_c, 9, 38, 72
11, 45247, Note_on_c, 9, 42, 56
11, 45252, Note_on_c, 9, 42, 0
11, 45256, Note_on_c, 9, 38, 0
11, 45256, Note_on_c, 9, 69, 44
11, 45273, Note_on_c, 9, 69, 0
11, 45307, Note_on_c, 9, 42, 40
11, 45312, Note_on_c, 9, 69, 28
11, 45316, Note_on_c, 9, 42, 0
11, 45324, Note_on_c, 9, 69, 0
11, 45367, Note_on_c, 9, 36, 56
11, 45367, Note_on_c, 9, 42, 56
11, 45374, Note_on_c, 9, 42, 0
11, 45374, Note_on_c, 9, 69, 44
11, 45384, Note_on_c, 9, 36, 0
11, 45391, Note_on_c, 9, 69, 0
11, 45427, Note_on_c, 9, 42, 40
11, 45432, Note_on_c, 9, 36, 56
11, 45432, Note_on_c, 9, 69, 28
11, 45436, Note_on_c, 9, 42, 0
11, 45441, Note_on_c, 9, 36, 0
11, 45448, Note_on_c, 9, 69, 0
11, 45487, Note_on_c, 9, 38, 72
11, 45487, Note_on_c, 9, 42, 56
11, 45494, Note_on_c, 9, 69, 44
11, 45499, Note_on_c, 9, 42, 0
11, 45501, Note_on_c, 9, 38, 0
11, 45513, Note_on_c, 9, 69, 0
11, 45547, Note_on_c, 9, 42, 40
11, 45552, Note_on_c, 9, 69, 28
11, 45556, Note_on_c, 9, 42, 0
11, 45564, Note_on_c, 9, 69, 0
11, 45612, Note_on_c, 9, 42, 56
11, 45612, Note_on_c, 9, 36, 56
11, 45612, Note_on_c, 9, 69, 44
11, 45613, Note_on_c, 9, 42, 0
11, 45626, Note_on_c, 9, 36, 0
11, 45628, Note_on_c, 9, 69, 0
11, 45667, Note_on_c, 9, 42, 40
11, 45672, Note_on_c, 9, 42, 0
11, 45672, Note_on_c, 9, 36, 56
11, 45672, Note_on_c, 9, 69, 28
11, 45684, Note_on_c, 9, 69, 0
11, 45684, Note_on_c, 9, 36, 0
11, 45727, Note_on_c, 9, 38, 72
11, 45727, Note_on_c, 9, 42, 56
11, 45732, Note_on_c, 9, 42, 0
11, 45732, Note_on_c, 9, 69, 44
11, 45736, Note_on_c, 9, 38, 0
11, 45751, Note_on_c, 9, 69, 0
11, 45787, Note_on_c, 9, 42, 40
11, 45792, Note_on_c, 9, 69, 28
11, 45792, Note_on_c, 9, 36, 56
11, 45796, Note_on_c, 9, 42, 0
11, 45801, Note_on_c, 9, 36, 0
11, 45801, Note_on_c, 9, 69, 0
11, 45847, Note_on_c, 9, 42, 56
11, 45852, Note_on_c, 9, 69, 44
11, 45854, Note_on_c, 9, 42, 0
11, 45864, Note_on_c, 9, 69, 0
11, 45907, Note_on_c, 9, 42, 40
11, 45912, Note_on_c, 9, 36, 56
11, 45912, Note_on_c, 9, 69, 28
11, 45916, Note_on_c, 9, 42, 0
11, 45924, Note_on_c, 9, 69, 0
11, 45924, Note_on_c, 9, 36, 0
11, 45967, Note_on_c, 9, 38, 72
11, 45967, Note_on_c, 9, 42, 56
11, 45972, Note_on_c, 9, 69, 44
11, 45976, Note_on_c, 9, 42, 0
11, 45981, Note_on_c, 9, 38, 0
11, 45986, Note_on_c, 9, 69, 0
11, 46027, Note_on_c, 9, 42, 40
11, 46032, Note_on_c, 9, 69, 28
11, 46036, Note_on_c, 9, 42, 0
11, 46046, Note_on_c, 9, 69, 0
11, 46089, Note_on_c, 9, 42, 56
11, 46089, Note_on_c, 9, 36, 56
11, 46089, Note_on_c, 9, 69, 44
11, 46096, Note_on_c, 9, 42, 0
11, 46104, Note_on_c, 9, 36, 0
11, 46108, Note_on_c, 9, 69, 0
11, 46147, Note_on_c, 9, 42, 40
11, 46147, Note_on_c, 9, 36, 56
11, 46152, Note_on_c, 9, 42, 0
11, 46152, Note_on_c, 9, 69, 28
11, 46164, Note_on_c, 9, 69, 0
11, 46164, Note_on_c, 9, 36, 0
11, 46207, Note_on_c, 9, 38, 72
11, 46207, Note_on_c, 9, 42, 56
11, 46214, Note_on_c, 9, 42, 0
11, 46216, Note_on_c, 9, 38, 0
11, 46216, Note_on_c, 9, 69, 44
11, 46233, Note_on_c, 9, 69, 0
11, 46267, Note_on_c, 9, 42, 40
11, 46267, Note_on_c, 9, 69, 28
11, 46276, Note_on_c, 9, 42, 0
11, 46284, Note_on_c, 9, 69, 0
11, 46327, Note_on_c, 9, 36, 56
11, 46327, Note_on_c, 9, 42, 56
11, 46332, Note_on_c, 9, 42, 0
11, 46332, Note_on_c, 9, 69, 44
11, 46344, Note_on_c, 9, 36, 0
11, 46353, Note_on_c, 9, 69, 0
11, 46387, Note_on_c, 9, 42, 40
11, 46387, Note_on_c, 9, 36, 56
11, 46392, Note_on_c, 9, 69, 28
11, 46396, Note_on_c, 9, 42, 0
11, 46401, Note_on_c, 9, 36, 0
11, 46408, Note_on_c, 9, 69, 0
11, 46447, Note_on_c, 9, 38, 72
11, 46447, Note_on_c, 9, 42, 56
11, 46452, Note_on_c, 9, 69, 44
11, 46456, Note_on_c, 9, 42, 0
11, 46461, Note_on_c, 9, 38, 0
11, 46473, Note_on_c, 9, 69, 0
11, 46507, Note_on_c, 9, 42, 40
11, 46512, Note_on_c, 9, 69, 28
11, 46516, Note_on_c, 9, 42, 0
11, 46524, Note_on_c, 9, 69, 0
11, 46569, Note_on_c, 9, 42, 56
11, 46569, Note_on_c, 9, 36, 56
11, 46569, Note_on_c, 9, 69, 44
11, 46576, Note_on_c, 9, 42, 0
11, 46586, Note_on_c, 9, 36, 0
11, 46591, Note_on_c, 9, 69, 0
11, 46627, Note_on_c, 9, 42, 40
11, 46627, Note_on_c, 9, 36, 56
11, 46632, Note_on_c, 9, 42, 0
11, 46632, Note_on_c, 9, 69, 28
11, 46644, Note_on_c, 9, 69, 0
11, 46644, Note_on_c, 9, 36, 0
11, 46687, Note_on_c, 9, 38, 72
11, 46687, Note_on_c, 9, 42, 56
11, 46692, Note_on_c, 9, 42, 0
11, 46692, Note_on_c, 9, 69, 44
11, 46696, Note_on_c, 9, 38, 0
11, 46711, Note_on_c, 9, 69, 0
11, 46747, Note_on_c, 9, 42, 40
11, 46747, Note_on_c, 9, 69, 28
11, 46752, Note_on_c, 9, 36, 56
11, 46756, Note_on_c, 9, 42, 0
11, 46759, Note_on_c, 9, 69, 0
11, 46761, Note_on_c, 9, 36, 0
11, 46807, Note_on_c, 9, 69, 44
11, 46807, Note_on_c, 9, 42, 56
11, 46816, Note_on_c, 9, 42, 0
11, 46824, Note_on_c, 9, 69, 0
11, 46867, Note_on_c, 9, 42, 40
11, 46867, Note_on_c, 9, 36, 56
11, 46872, Note_on_c, 9, 69, 28
11, 46876, Note_on_c, 9, 42, 0
11, 46884, Note_on_c, 9, 69, 0
11, 46884, Note_on_c, 9, 36, 0
11, 46927, Note_on_c, 9, 38, 72
11, 46927, Note_on_c, 9, 42, 56
11, 46932, Note_on_c, 9, 69, 44
11, 46936, Note_on_c, 9, 42, 0
11, 46941, Note_on_c, 9, 38, 0
11, 46946, Note_on_c, 9, 69, 0
11, 46987, Note_on_c, 9, 42, 40
11, 46992, Note_on_c, 9, 69, 28
11, 46996, Note_on_c, 9, 42, 0
11, 47006, Note_on_c, 9, 69, 0
11, 47049, Note_on_c, 9, 42, 72
11, 47049, Note_on_c, 9, 38, 72
11, 47049, Note_on_c, 9, 36, 56
11, 47049, Note_on_c, 9, 69, 44
11, 47050, Note_on_c, 9, 42, 0
11, 47056, Note_on_c, 9, 38, 0
11, 47061, Note_on_c, 9, 36, 0
11, 47068, Note_on_c, 9, 69, 0
11, 47107, Note_on_c, 9, 42, 56
11, 47112, Note_on_c, 9, 42, 0
11, 47112, Note_on_c, 9, 69, 28
11, 47124, Note_on_c, 9, 69, 0
11, 47167, Note_on_c, 9, 42, 72
11, 47167, Note_on_c, 9, 38, 72
11, 47172, Note_on_c, 9, 36, 56
11, 47176, Note_on_c, 9, 38, 0
11, 47176, Note_on_c, 9, 42, 0
11, 47176, Note_on_c, 9, 69, 44
11, 47181, Note_on_c, 9, 36, 0
11, 47193, Note_on_c, 9, 69, 0
11, 47227, Note_on_c, 9, 69, 28
11, 47227, Note_on_c, 9, 42, 56
11, 47236, Note_on_c, 9, 42, 0
11, 47244, Note_on_c, 9, 69, 0
11, 47287, Note_on_c, 9, 42, 72
11, 47287, Note_on_c, 9, 38, 72
11, 47292, Note_on_c, 9, 42, 0
11, 47292, Note_on_c, 9, 36, 56
11, 47292, Note_on_c, 9, 69, 44
11, 47296, Note_on_c, 9, 38, 0
11, 47301, Note_on_c, 9, 36, 0
11, 47313, Note_on_c, 9, 69, 0
11, 47347, Note_on_c, 9, 42, 56
11, 47352, Note_on_c, 9, 69, 28
11, 47356, Note_on_c, 9, 42, 0
11, 47368, Note_on_c, 9, 69, 0
11, 47407, Note_on_c, 9, 42, 72
11, 47412, Note_on_c, 9, 38, 72
11, 47412, Note_on_c, 9, 36, 56
11, 47412, Note_on_c, 9, 69, 44
11, 47416, Note_on_c, 9, 42, 0
11, 47419, Note_on_c, 9, 38, 0
11, 47421, Note_on_c, 9, 36, 0
11, 47433, Note_on_c, 9, 69, 0
11, 47467, Note_on_c, 9, 42, 56
11, 47472, Note_on_c, 9, 69, 28
11, 47476, Note_on_c, 9, 42, 0
11, 47484, Note_on_c, 9, 69, 0
11, 47529, Note_on_c, 9, 38, 72
11, 47529, Note_on_c, 9, 36, 56
11, 47529, Note_on_c, 9, 42, 72
11, 47529, Note_on_c, 9, 69, 44
11, 47536, Note_on_c, 9, 38, 0
11, 47541, Note_on_c, 9, 36, 0
11, 47544, Note_on_c, 9, 42, 0
11, 47551, Note_on_c, 9, 69, 0
11, 47587, Note_on_c, 9, 42, 56
11, 47592, Note_on_c, 9, 69, 28
11, 47596, Note_on_c, 9, 42, 0
11, 47604, Note_on_c, 9, 69, 0
11, 47647, Note_on_c, 9, 38, 72
11, 47647, Note_on_c, 9, 36, 56
11, 47652, Note_on_c, 9, 42, 72
11, 47652, Note_on_c, 9, 69, 44
11, 47656, Note_on_c, 9, 38, 0
11, 47659, Note_on_c, 9, 42, 0
11, 47664, Note_on_c, 9, 36, 0
11, 47671, Note_on_c, 9, 69, 0
11, 47707, Note_on_c, 9, 69, 28
11, 47707, Note_on_c, 9, 42, 56
11, 47714, Note_on_c, 9, 42, 0
11, 47719, Note_on_c, 9, 69, 0
11, 47767, Note_on_c, 9, 69, 44
11, 47767, Note_on_c, 9, 38, 72
11, 47772, Note_on_c, 9, 36, 56
11, 47772, Note_on_c, 9, 42, 72
11, 47776, Note_on_c, 9, 38, 0
11, 47781, Note_on_c, 9, 42, 0
11, 47781, Note_on_c, 9, 36, 0
11, 47786, Note_on_c, 9, 69, 0
11, 47827, Note_on_c, 9, 42, 56
11, 47827, Note_on_c, 9, 69, 28
11, 47839, Note_on_c, 9, 42, 0
11, 47844, Note_on_c, 9, 69, 0
11, 47858, Note_on_c, 9, 42, 56
11, 47868, Note_on_c, 9, 42, 0
11, 47887, Note_on_c, 9, 38, 72
11, 47887, Note_on_c, 9, 36, 56
11, 47892, Note_on_c, 9, 42, 72
11, 47892, Note_on_c, 9, 69, 44
11, 47901, Note_on_c, 9, 42, 0
11, 47901, Note_on_c, 9, 38, 0
11, 47901, Note_on_c, 9, 36, 0
11, 47906, Note_on_c, 9, 69, 0
11, 47918, Note_on_c, 9, 42, 56
11, 47932, Note_on_c, 9, 42, 0
11, 47947, Note_on_c, 9, 42, 56
11, 47952, Note_on_c, 9, 69, 28
11, 47961, Note_on_c, 9, 42, 0
11, 47966, Note_on_c, 9, 69, 0
11, 47978, Note_on_c, 9, 42, 56
11, 47992, Note_on_c, 9, 42, 0
11, 48009, Note_on_c, 9, 36, 56
11, 48009, Note_on_c, 9, 42, 56
11, 48009, Note_on_c, 9, 69, 44
11, 48019, Note_on_c, 9, 42, 0
11, 48021, Note_on_c, 9, 36, 0
11, 48028, Note_on_c, 9, 69, 0
11, 48038, Note_on_c, 9, 42, 56
11, 48050, Note_on_c, 9, 42, 0
11, 48067, Note_on_c, 9, 36, 56
11, 48072, Note_on_c, 9, 42, 56
11, 48072, Note_on_c, 9, 69, 28
11, 48081, Note_on_c, 9, 42, 0
11, 48081, Note_on_c, 9, 36, 0
11, 48084, Note_on_c, 9, 69, 0
11, 48098, Note_on_c, 9, 42, 56
11, 48112, Note_on_c, 9, 42, 0
11, 48132, Note_on_c, 9, 38, 72
11, 48132, Note_on_c, 9, 42, 40
11, 48136, Note_on_c, 9, 38, 0
11, 48136, Note_on_c, 9, 69, 44
11, 48141, Note_on_c, 9, 42, 0
11, 48153, Note_on_c, 9, 69, 0
11, 48187, Note_on_c, 9, 69, 28
11, 48187, Note_on_c, 9, 42, 40
11, 48199, Note_on_c, 9, 42, 0
11, 48204, Note_on_c, 9, 69, 0
11, 48247, Note_on_c, 9, 36, 56
11, 48247, Note_on_c, 9, 42, 40
11, 48252, Note_on_c, 9, 69, 44
11, 48261, Note_on_c, 9, 42, 0
11, 48261, Note_on_c, 9, 36, 0
11, 48273, Note_on_c, 9, 69, 0
11, 48307, Note_on_c, 9, 38, 72
11, 48307, Note_on_c, 9, 42, 40
11, 48312, Note_on_c, 9, 69, 28
11, 48316, Note_on_c, 9, 42, 0
11, 48319, Note_on_c, 9, 38, 0
11, 48328, Note_on_c, 9, 69, 0
11, 48367, Note_on_c, 9, 42, 40
11, 48372, Note_on_c, 9, 69, 44
11, 48376, Note_on_c, 9, 42, 0
11, 48393, Note_on_c, 9, 69, 0
11, 48427, Note_on_c, 9, 42, 40
11, 48432, Note_on_c, 9, 69, 28
11, 48436, Note_on_c, 9, 42, 0
11, 48444, Note_on_c, 9, 69, 0
11, 48448, Note_on_c, 9, 42, 40
11, 48456, Note_on_c, 9, 42, 0
11, 48468, Note_on_c, 9, 42, 40
11, 48477, Note_on_c, 9, 42, 0
11, 48487, Note_on_c, 9, 42, 56
11, 48492, Note_on_c, 9, 42, 0
11, 48492, Note_on_c, 9, 36, 56
11, 48492, Note_on_c, 9, 69, 44
11, 48501, Note_on_c, 9, 36, 0
11, 48511, Note_on_c, 9, 69, 0
11, 48547, Note_on_c, 9, 42, 40
11, 48547, Note_on_c, 9, 36, 56
11, 48552, Note_on_c, 9, 42, 0
11, 48552, Note_on_c, 9, 69, 28
11, 48556, Note_on_c, 9, 36, 0
11, 48564, Note_on_c, 9, 69, 0
11, 48607, Note_on_c, 9, 42, 56
11, 48612, Note_on_c, 9, 38, 72
11, 48612, Note_on_c, 9, 69, 44
11, 48616, Note_on_c, 9, 38, 0
11, 48616, Note_on_c, 9, 42, 0
11, 48628, Note_on_c, 9, 69, 0
11, 48667, Note_on_c, 9, 42, 40
11, 48667, Note_on_c, 9, 69, 28
11, 48676, Note_on_c, 9, 42, 0
11, 48679, Note_on_c, 9, 69, 0
11, 48727, Note_on_c, 9, 36, 56
11, 48727, Note_on_c, 9, 42, 56
11, 48727, Note_on_c, 9, 69, 44
11, 48734, Note_on_c, 9, 42, 0
11, 48741, Note_on_c, 9, 36, 0
11, 48744, Note_on_c, 9, 69, 0
11, 48787, Note_on_c, 9, 38, 72
11, 48787, Note_on_c, 9, 42, 40
11, 48787, Note_on_c, 9, 69, 28
11, 48796, Note_on_c, 9, 42, 0
11, 48804, Note_on_c, 9, 69, 0
11, 48804, Note_on_c, 9, 38, 0
11, 48847, Note_on_c, 9, 42, 40
11, 48852, Note_on_c, 9, 69, 44
11, 48856, Note_on_c, 9, 42, 0
11, 48866, Note_on_c, 9, 69, 0
11, 48907, Note_on_c, 9, 42, 40
11, 48912, Note_on_c, 9, 69, 28
11, 48916, Note_on_c, 9, 42, 0
11, 48926, Note_on_c, 9, 69, 0
11, 48928, Note_on_c, 9, 42, 40
11, 48936, Note_on_c, 9, 42, 0
11, 48948, Note_on_c, 9, 42, 40
11, 48957, Note_on_c, 9, 42, 0
11, 48969, Note_on_c, 9, 42, 56
11, 48969, Note_on_c, 9, 36, 56
11, 48969, Note_on_c, 9, 69, 44
11, 48974, Note_on_c, 9, 42, 0
11, 48981, Note_on_c, 9, 36, 0
11, 48988, Note_on_c, 9, 69, 0
11, 49027, Note_on_c, 9, 42, 40
11, 49032, Note_on_c, 9, 42, 0
11, 49032, Note_on_c, 9, 36, 56
11, 49032, Note_on_c, 9, 69, 28
11, 49041, Note_on_c, 9, 36, 0
11, 49044, Note_on_c, 9, 69, 0
11, 49087, Note_on_c, 9, 38, 72
11, 49087, Note_on_c, 9, 42, 56
11, 49096, Note_on_c, 9, 42, 0
11, 49096, Note_on_c, 9, 38, 0
11, 49096, Note_on_c, 9, 69, 44
11, 49113, Note_on_c, 9, 69, 0
11, 49147, Note_on_c, 9, 42, 40
11, 49147, Note_on_c, 9, 69, 28
11, 49156, Note_on_c, 9, 42, 0
11, 49164, Note_on_c, 9, 69, 0
11, 49207, Note_on_c, 9, 36, 56
11, 49207, Note_on_c, 9, 42, 56
11, 49214, Note_on_c, 9, 42, 0
11, 49214, Note_on_c, 9, 69, 44
11, 49221, Note_on_c, 9, 36, 0
11, 49233, Note_on_c, 9, 69, 0
11, 49267, Note_on_c, 9, 42, 40
11, 49272, Note_on_c, 9, 38, 72
11, 49272, Note_on_c, 9, 69, 28
11, 49276, Note_on_c, 9, 42, 0
11, 49279, Note_on_c, 9, 38, 0
11, 49288, Note_on_c, 9, 69, 0
11, 49327, Note_on_c, 9, 42, 40
11, 49332, Note_on_c, 9, 69, 44
11, 49336, Note_on_c, 9, 42, 0
11, 49353, Note_on_c, 9, 69, 0
11, 49387, Note_on_c, 9, 42, 40
11, 49392, Note_on_c, 9, 69, 28
11, 49396, Note_on_c, 9, 42, 0
11, 49404, Note_on_c, 9, 69, 0
11, 49408, Note_on_c, 9, 42, 40
11, 49416, Note_on_c, 9, 42, 0
11, 49428, Note_on_c, 9, 42, 40
11, 49437, Note_on_c, 9, 42, 0
11, 49449, Note_on_c, 9, 42, 56
11, 49449, Note_on_c, 9, 36, 56
11, 49449, Note_on_c, 9, 69, 44
11, 49456, Note_on_c, 9, 42, 0
11, 49461, Note_on_c, 9, 36, 0
11, 49468, Note_on_c, 9, 69, 0
11, 49507, Note_on_c, 9, 42, 40
11, 49512, Note_on_c, 9, 42, 0
11, 49512, Note_on_c, 9, 36, 56
11, 49512, Note_on_c, 9, 69, 28
11, 49516, Note_on_c, 9, 36, 0
11, 49524, Note_on_c, 9, 69, 0
11, 49567, Note_on_c, 9, 42, 56
11, 49572, Note_on_c, 9, 42, 0
11, 49572, Note_on_c, 9, 38, 72
11, 49572, Note_on_c, 9, 69, 44
11, 49576, Note_on_c, 9, 38, 0
11, 49588, Note_on_c, 9, 69, 0
11, 49627, Note_on_c, 9, 42, 40
11, 49627, Note_on_c, 9, 69, 28
11, 49636, Note_on_c, 9, 42, 0
11, 49641, Note_on_c, 9, 69, 0
11, 49687, Note_on_c, 9, 36, 56
11, 49687, Note_on_c, 9, 42, 56
11, 49687, Note_on_c, 9, 69, 44
11, 49694, Note_on_c, 9, 42, 0
11, 49701, Note_on_c, 9, 36, 0
11, 49704, Note_on_c, 9, 69, 0
11, 49747, Note_on_c, 9, 38, 72
11, 49747, Note_on_c, 9, 42, 40
11, 49747, Note_on_c, 9, 69, 28
11, 49756, Note_on_c, 9, 42, 0
11, 49764, Note_on_c, 9, 69, 0
11, 49764, Note_on_c, 9, 38, 0
11, 49807, Note_on_c, 9, 42, 40
11, 49812, Note_on_c, 9, 69, 44
11, 49816, Note_on_c, 9, 42, 0
11, 49826, Note_on_c, 9, 69, 0
11, 49867, Note_on_c, 9, 42, 40
11, 49872, Note_on_c, 9, 69, 28
11, 49876, Note_on_c, 9, 42, 0
11, 49886, Note_on_c, 9, 69, 0
11, 49888, Note_on_c, 9, 42, 40
11, 49896, Note_on_c, 9, 42, 0
11, 49908, Note_on_c, 9, 42, 40
11, 49917, Note_on_c, 9, 42, 0
11, 49927, Note_on_c, 9, 42, 56
11, 49932, Note_on_c, 9, 36, 56
11, 49932, Note_on_c, 9, 69, 44
11, 49936, Note_on_c, 9, 42, 0
11, 49941, Note_on_c, 9, 36, 0
11, 49948, Note_on_c, 9, 69, 0
11, 49987, Note_on_c, 9, 42, 40
11, 49987, Note_on_c, 9, 36, 56
11, 49992, Note_on_c, 9, 42, 0
11, 49992, Note_on_c, 9, 69, 28
11, 50001, Note_on_c, 9, 36, 0
11, 50004, Note_on_c, 9, 69, 0
11, 50047, Note_on_c, 9, 38, 72
11, 50047, Note_on_c, 9, 42, 56
11, 50056, Note_on_c, 9, 42, 0
11, 50056, Note_on_c, 9, 38, 0
11, 50056, Note_on_c, 9, 69, 44
11, 50076, Note_on_c, 9, 69, 0
11, 50107, Note_on_c, 9, 42, 40
11, 50107, Note_on_c, 9, 69, 28
11, 50116, Note_on_c, 9, 42, 0
11, 50124, Note_on_c, 9, 69, 0
11, 50167, Note_on_c, 9, 36, 56
11, 50167, Note_on_c, 9, 42, 56
11, 50174, Note_on_c, 9, 42, 0
11, 50174, Note_on_c, 9, 69, 44
11, 50181, Note_on_c, 9, 36, 0
11, 50193, Note_on_c, 9, 69, 0
11, 50227, Note_on_c, 9, 38, 72
11, 50227, Note_on_c, 9, 42, 40
11, 50232, Note_on_c, 9, 69, 28
11, 50236, Note_on_c, 9, 42, 0
11, 50239, Note_on_c, 9, 38, 0
11, 50248, Note_on_c, 9, 69, 0
11, 50287, Note_on_c, 9, 42, 56
11, 50292, Note_on_c, 9, 69, 44
11, 50296, Note_on_c, 9, 42, 0
11, 50313, Note_on_c, 9, 69, 0
11, 50347, Note_on_c, 9, 46, 40
11, 50352, Note_on_c, 9, 69, 28
11, 50356, Note_on_c, 9, 46, 0
11, 50364, Note_on_c, 9, 69, 0
11, 50409, Note_on_c, 9, 42, 56
11, 50409, Note_on_c, 9, 36, 56
11, 50409, Note_on_c, 9, 69, 44
11, 50416, Note_on_c, 9, 42, 0
11, 50421, Note_on_c, 9, 36, 0
11, 50428, Note_on_c, 9, 69, 0
11, 50467, Note_on_c, 9, 42, 40
11, 50472, Note_on_c, 9, 42, 0
11, 50472, Note_on_c, 9, 36, 56
11, 50472, Note_on_c, 9, 69, 28
11, 50476, Note_on_c, 9, 36, 0
11, 50484, Note_on_c, 9, 69, 0
11, 50527, Note_on_c, 9, 38, 72
11, 50532, Note_on_c, 9, 42, 56
11, 50532, Note_on_c, 9, 69, 44
11, 50533, Note_on_c, 9, 42, 0
11, 50536, Note_on_c, 9, 38, 0
11, 50548, Note_on_c, 9, 69, 0
11, 50587, Note_on_c, 9, 42, 40
11, 50592, Note_on_c, 9, 69, 28
11, 50596, Note_on_c, 9, 42, 0
11, 50599, Note_on_c, 9, 69, 0
11, 50647, Note_on_c, 9, 36, 56
11, 50652, Note_on_c, 9, 42, 56
11, 50652, Note_on_c, 9, 69, 44
11, 50653, Note_on_c, 9, 42, 0
11, 50661, Note_on_c, 9, 36, 0
11, 50664, Note_on_c, 9, 69, 0
11, 50707, Note_on_c, 9, 38, 72
11, 50712, Note_on_c, 9, 42, 40
11, 50712, Note_on_c, 9, 69, 28
11, 50716, Note_on_c, 9, 42, 0
11, 50724, Note_on_c, 9, 69, 0
11, 50724, Note_on_c, 9, 38, 0
11, 50767, Note_on_c, 9, 42, 56
11, 50772, Note_on_c, 9, 69, 44
11, 50776, Note_on_c, 9, 42, 0
11, 50786, Note_on_c, 9, 69, 0
11, 50827, Note_on_c, 9, 46, 40
11, 50832, Note_on_c, 9, 69, 28
11, 50836, Note_on_c, 9, 46, 0
11, 50846, Note_on_c, 9, 69, 0
11, 50889, Note_on_c, 9, 42, 56
11, 50889, Note_on_c, 9, 36, 56
11, 50889, Note_on_c, 9, 69, 44
11, 50896, Note_on_c, 9, 42, 0
11, 50901, Note_on_c, 9, 36, 0
11, 50908, Note_on_c, 9, 69, 0
11, 50947, Note_on_c, 9, 42, 40
11, 50952, Note_on_c, 9, 42, 0
11, 50952, Note_on_c, 9, 36, 56
11, 50952, Note_on_c, 9, 69, 28
11, 50961, Note_on_c, 9, 36, 0
11, 50964, Note_on_c, 9, 69, 0
11, 51012, Note_on_c, 9, 42, 56
11, 51012, Note_on_c, 9, 38, 72
11, 51013, Note_on_c, 9, 42, 0
11, 51016, Note_on_c, 9, 38, 0
11, 51016, Note_on_c, 9, 69, 44
11, 51033, Note_on_c, 9, 69, 0
11, 51067, Note_on_c, 9, 42, 40
11, 51067, Note_on_c, 9, 69, 28
11, 51076, Note_on_c, 9, 42, 0
11, 51084, Note_on_c, 9, 69, 0
11, 51127, Note_on_c, 9, 36, 56
11, 51132, Note_on_c, 9, 42, 56
11, 51136, Note_on_c, 9, 42, 0
11, 51136, Note_on_c, 9, 69, 44
11, 51141, Note_on_c, 9, 36, 0
11, 51153, Note_on_c, 9, 69, 0
11, 51187, Note_on_c, 9, 38, 72
11, 51187, Note_on_c, 9, 42, 40
11, 51192, Note_on_c, 9, 69, 28
11, 51196, Note_on_c, 9, 42, 0
11, 51199, Note_on_c, 9, 38, 0
11, 51208, Note_on_c, 9, 69, 0
11, 51247, Note_on_c, 9, 42, 56
11, 51252, Note_on_c, 9, 69, 44
11, 51256, Note_on_c, 9, 42, 0
11, 51271, Note_on_c, 9, 69, 0
11, 51307, Note_on_c, 9, 46, 40
11, 51312, Note_on_c, 9, 69, 28
11, 51316, Note_on_c, 9, 46, 0
11, 51324, Note_on_c, 9, 69, 0
11, 51372, Note_on_c, 9, 42, 56
11, 51372, Note_on_c, 9, 36, 56
11, 51372, Note_on_c, 9, 69, 44
11, 51373, Note_on_c, 9, 42, 0
11, 51381, Note_on_c, 9, 36, 0
11, 51388, Note_on_c, 9, 69, 0
11, 51427, Note_on_c, 9, 42, 40
11, 51432, Note_on_c, 9, 42, 0
11, 51432, Note_on_c, 9, 36, 56
11, 51432, Note_on_c, 9, 69, 28
11, 51436, Note_on_c, 9, 36, 0
11, 51444, Note_on_c, 9, 69, 0
11, 51487, Note_on_c, 9, 38, 72
11, 51492, Note_on_c, 9, 42, 56
11, 51492, Note_on_c, 9, 69, 44
11, 51493, Note_on_c, 9, 42, 0
11, 51496, Note_on_c, 9, 38, 0
11, 51508, Note_on_c, 9, 69, 0
11, 51547, Note_on_c, 9, 42, 40
11, 51547, Note_on_c, 9, 69, 28
11, 51556, Note_on_c, 9, 42, 0
11, 51559, Note_on_c, 9, 69, 0
11, 51607, Note_on_c, 9, 36, 56
11, 51612, Note_on_c, 9, 42, 56
11, 51612, Note_on_c, 9, 69, 44
11, 51613, Note_on_c, 9, 42, 0
11, 51621, Note_on_c, 9, 36, 0
11, 51624, Note_on_c, 9, 69, 0
11, 51667, Note_on_c, 9, 38, 72
11, 51667, Note_on_c, 9, 42, 40
11, 51667, Note_on_c, 9, 69, 28
11, 51676, Note_on_c, 9, 42, 0
11, 51684, Note_on_c, 9, 69, 0
11, 51684, Note_on_c, 9, 38, 0
11, 51727, Note_on_c, 9, 42, 56
11, 51732, Note_on_c, 9, 69, 44
11, 51736, Note_on_c, 9, 42, 0
11, 51746, Note_on_c, 9, 69, 0
11, 51787, Note_on_c, 9, 46, 40
11, 51792, Note_on_c, 9, 69, 28
11, 51796, Note_on_c, 9, 46, 0
11, 51806, Note_on_c, 9, 69, 0
11, 51849, Note_on_c, 9, 42, 56
11, 51849, Note_on_c, 9, 36, 56
11, 51849, Note_on_c, 9, 69, 44
11, 51856, Note_on_c, 9, 42, 0
11, 51861, Note_on_c, 9, 36, 0
11, 51868, Note_on_c, 9, 69, 0
11, 51907, Note_on_c, 9, 42, 40
11, 51907, Note_on_c, 9, 36, 56
11, 51912, Note_on_c, 9, 42, 0
11, 51912, Note_on_c, 9, 69, 28
11, 51921, Note_on_c, 9, 36, 0
11, 51924, Note_on_c, 9, 69, 0
11, 51967, Note_on_c, 9, 38, 72
11, 51967, Note_on_c, 9, 42, 56
11, 51972, Note_on_c, 9, 42, 0
11, 51976, Note_on_c, 9, 38, 0
11, 51976, Note_on_c, 9, 69, 44
11, 51993, Note_on_c, 9, 69, 0
11, 52027, Note_on_c, 9, 42, 40
11, 52032, Note_on_c, 9, 69, 28
11, 52036, Note_on_c, 9, 42, 0
11, 52044, Note_on_c, 9, 69, 0
11, 52087, Note_on_c, 9, 36, 56
11, 52087, Note_on_c, 9, 42, 56
11, 52094, Note_on_c, 9, 42, 0
11, 52094, Note_on_c, 9, 69, 44
11, 52101, Note_on_c, 9, 36, 0
11, 52111, Note_on_c, 9, 69, 0
11, 52147, Note_on_c, 9, 38, 72
11, 52147, Note_on_c, 9, 42, 40
11, 52152, Note_on_c, 9, 69, 28
11, 52156, Note_on_c, 9, 42, 0
11, 52159, Note_on_c, 9, 38, 0
11, 52168, Note_on_c, 9, 69, 0
11, 52207, Note_on_c, 9, 42, 56
11, 52212, Note_on_c, 9, 69, 44
11, 52216, Note_on_c, 9, 42, 0
11, 52231, Note_on_c, 9, 69, 0
11, 52267, Note_on_c, 9, 46, 40
11, 52272, Note_on_c, 9, 69, 28
11, 52276, Note_on_c, 9, 46, 0
11, 52284, Note_on_c, 9, 69, 0
11, 52329, Note_on_c, 9, 42, 56
11, 52329, Note_on_c, 9, 36, 56
11, 52329, Note_on_c, 9, 69, 44
11, 52336, Note_on_c, 9, 42, 0
11, 52341, Note_on_c, 9, 36, 0
11, 52348, Note_on_c, 9, 69, 0
11, 52387, Note_on_c, 9, 42, 40
11, 52392, Note_on_c, 9, 42, 0
11, 52392, Note_on_c, 9, 36, 56
11, 52392, Note_on_c, 9, 69, 28
11, 52396, Note_on_c, 9, 36, 0
11, 52404, Note_on_c, 9, 69, 0
11, 52447, Note_on_c, 9, 42, 56
11, 52452, Note_on_c, 9, 42, 0
11, 52452, Note_on_c, 9, 38, 72
11, 52452, Note_on_c, 9, 69, 44
11, 52456, Note_on_c, 9, 38, 0
11, 52473, Note_on_c, 9, 69, 0
11, 52507, Note_on_c, 9, 42, 40
11, 52512, Note_on_c, 9, 69, 28
11, 52516, Note_on_c, 9, 42, 0
11, 52519, Note_on_c, 9, 69, 0
11, 52567, Note_on_c, 9, 36, 56
11, 52567, Note_on_c, 9, 42, 56
11, 52572, Note_on_c, 9, 69, 44
11, 52576, Note_on_c, 9, 42, 0
11, 52581, Note_on_c, 9, 36, 0
11, 52584, Note_on_c, 9, 69, 0
11, 52627, Note_on_c, 9, 38, 72
11, 52627, Note_on_c, 9, 42, 40
11, 52627, Note_on_c, 9, 69, 28
11, 52636, Note_on_c, 9, 42, 0
11, 52644, Note_on_c, 9, 69, 0
11, 52644, Note_on_c, 9, 38, 0
11, 52687, Note_on_c, 9, 42, 56
11, 52692, Note_on_c, 9, 69, 44
11, 52696, Note_on_c, 9, 42, 0
11, 52706, Note_on_c, 9, 69, 0
11, 52747, Note_on_c, 9, 46, 40
11, 52752, Note_on_c, 9, 69, 28
11, 52756, Note_on_c, 9, 46, 0
11, 52766, Note_on_c, 9, 69, 0
11, 52809, Note_on_c, 9, 42, 56
11, 52809, Note_on_c, 9, 36, 56
11, 52809, Note_on_c, 9, 69, 44
11, 52814, Note_on_c, 9, 42, 0
11, 52821, Note_on_c, 9, 36, 0
11, 52828, Note_on_c, 9, 69, 0
11, 52867, Note_on_c, 9, 42, 40
11, 52867, Note_on_c, 9, 36, 56
11, 52872, Note_on_c, 9, 42, 0
11, 52872, Note_on_c, 9, 69, 28
11, 52881, Note_on_c, 9, 36, 0
11, 52884, Note_on_c, 9, 69, 0
11, 52927, Note_on_c, 9, 38, 72
11, 52927, Note_on_c, 9, 42, 56
11, 52932, Note_on_c, 9, 42, 0
11, 52936, Note_on_c, 9, 38, 0
11, 52936, Note_on_c, 9, 69, 44
11, 52953, Note_on_c, 9, 69, 0
11, 52987, Note_on_c, 9, 42, 40
11, 52987, Note_on_c, 9, 69, 28
11, 52996, Note_on_c, 9, 42, 0
11, 53004, Note_on_c, 9, 69, 0
11, 53047, Note_on_c, 9, 36, 56
11, 53047, Note_on_c, 9, 42, 56
11, 53054, Note_on_c, 9, 42, 0
11, 53054, Note_on_c, 9, 69, 44
11, 53061, Note_on_c, 9, 36, 0
11, 53073, Note_on_c, 9, 69, 0
11, 53107, Note_on_c, 9, 38, 72
11, 53107, Note_on_c, 9, 42, 40
11, 53112, Note_on_c, 9, 69, 28
11, 53116, Note_on_c, 9, 42, 0
11, 53121, Note_on_c, 9, 38, 0
11, 53128, Note_on_c, 9, 69, 0
11, 53167, Note_on_c, 9, 42, 56
11, 53172, Note_on_c, 9, 69, 44
11, 53176, Note_on_c, 9, 42, 0
11, 53191, Note_on_c, 9, 69, 0
11, 53227, Note_on_c, 9, 46, 40
11, 53232, Note_on_c, 9, 69, 28
11, 53236, Note_on_c, 9, 46, 0
11, 53244, Note_on_c, 9, 69, 0
11, 53289, Note_on_c, 9, 42, 56
11, 53289, Note_on_c, 9, 36, 56
11, 53289, Note_on_c, 9, 69, 44
11, 53296, Note_on_c, 9, 42, 0
11, 53301, Note_on_c, 9, 36, 0
11, 53311, Note_on_c, 9, 69, 0
11, 53347, Note_on_c, 9, 42, 40
11, 53352, Note_on_c, 9, 42, 0
11, 53352, Note_on_c, 9, 36, 56
11, 53352, Note_on_c, 9, 69, 28
11, 53356, Note_on_c, 9, 36, 0
11, 53364, Note_on_c, 9, 69, 0
11, 53407, Note_on_c, 9, 38, 72
11, 53407, Note_on_c, 9, 42, 56
11, 53412, Note_on_c, 9, 42, 0
11, 53412, Note_on_c, 9, 69, 44
11, 53416, Note_on_c, 9, 38, 0
11, 53431, Note_on_c, 9, 69, 0
11, 53467, Note_on_c, 9, 42, 40
11, 53467, Note_on_c, 9, 69, 28
11, 53476, Note_on_c, 9, 42, 0
11, 53479, Note_on_c, 9, 69, 0
11, 53527, Note_on_c, 9, 36, 56
11, 53527, Note_on_c, 9, 42, 56
11, 53532, Note_on_c, 9, 69, 44
11, 53536, Note_on_c, 9, 42, 0
11, 53541, Note_on_c, 9, 36, 0
11, 53544, Note_on_c, 9, 69, 0
11, 53587, Note_on_c, 9, 38, 72
11, 53587, Note_on_c, 9, 42, 40
11, 53592, Note_on_c, 9, 69, 28
11, 53596, Note_on_c, 9, 42, 0
11, 53604, Note_on_c, 9, 69, 0
11, 53604, Note_on_c, 9, 38, 0
11, 53647, Note_on_c, 9, 42, 56
11, 53652, Note_on_c, 9, 69, 44
11, 53656, Note_on_c, 9, 42, 0
11, 53666, Note_on_c, 9, 69, 0
11, 53707, Note_on_c, 9, 46, 40
11, 53712, Note_on_c, 9, 69, 28
11, 53716, Note_on_c, 9, 46, 0
11, 53726, Note_on_c, 9, 69, 0
11, 53769, Note_on_c, 9, 42, 56
11, 53769, Note_on_c, 9, 36, 56
11, 53769, Note_on_c, 9, 69, 44
11, 53776, Note_on_c, 9, 42, 0
11, 53781, Note_on_c, 9, 36, 0
11, 53788, Note_on_c, 9, 69, 0
11, 53827, Note_on_c, 9, 42, 40
11, 53832, Note_on_c, 9, 42, 0
11, 53832, Note_on_c, 9, 36, 56
11, 53832, Note_on_c, 9, 69, 28
11, 53841, Note_on_c, 9, 36, 0
11, 53844, Note_on_c, 9, 69, 0
11, 53887, Note_on_c, 9, 42, 56
11, 53892, Note_on_c, 9, 42, 0
11, 53892, Note_on_c, 9, 38, 72
11, 53896, Note_on_c, 9, 38, 0
11, 53896, Note_on_c, 9, 69, 44
11, 53913, Note_on_c, 9, 69, 0
11, 53947, Note_on_c, 9, 42, 40
11, 53952, Note_on_c, 9, 69, 28
11, 53956, Note_on_c, 9, 42, 0
11, 53964, Note_on_c, 9, 69, 0
11, 54007, Note_on_c, 9, 36, 56
11, 54007, Note_on_c, 9, 42, 56
11, 54014, Note_on_c, 9, 42, 0
11, 54014, Note_on_c, 9, 69, 44
11, 54021, Note_on_c, 9, 36, 0
11, 54033, Note_on_c, 9, 69, 0
11, 54067, Note_on_c, 9, 38, 72
11, 54067, Note_on_c, 9, 42, 40
11, 54072, Note_on_c, 9, 69, 28
11, 54076, Note_on_c, 9, 42, 0
11, 54079, Note_on_c, 9, 38, 0
11, 54088, Note_on_c, 9, 69, 0
11, 54127, Note_on_c, 9, 42, 56
11, 54132, Note_on_c, 9, 69, 44
11, 54136, Note_on_c, 9, 42, 0
11, 54153, Note_on_c, 9, 69, 0
11, 54187, Note_on_c, 9, 46, 40
11, 54192, Note_on_c, 9, 69, 28
11, 54196, Note_on_c, 9, 46, 0
11, 54204, Note_on_c, 9, 69, 0
11, 54249, Note_on_c, 9, 42, 56
11, 54249, Note_on_c, 9, 36, 56
11, 54249, Note_on_c, 9, 69, 44
11, 54256, Note_on_c, 9, 42, 0
11, 54261, Note_on_c, 9, 36, 0
11, 54271, Note_on_c, 9, 69, 0
11, 54307, Note_on_c, 9, 42, 40
11, 54307, Note_on_c, 9, 36, 56
11, 54312, Note_on_c, 9, 42, 0
11, 54312, Note_on_c, 9, 69, 28
11, 54316, Note_on_c, 9, 36, 0
11, 54324, Note_on_c, 9, 69, 0
11, 54367, Note_on_c, 9, 42, 56
11, 54372, Note_on_c, 9, 42, 0
11, 54372, Note_on_c, 9, 38, 72
11, 54372, Note_on_c, 9, 69, 44
11, 54376, Note_on_c, 9, 38, 0
11, 54388, Note_on_c, 9, 69, 0
11, 54427, Note_on_c, 9, 42, 40
11, 54432, Note_on_c, 9, 69, 28
11, 54436, Note_on_c, 9, 42, 0
11, 54439, Note_on_c, 9, 69, 0
11, 54487, Note_on_c, 9, 36, 56
11, 54487, Note_on_c, 9, 42, 56
11, 54492, Note_on_c, 9, 69, 44
11, 54496, Note_on_c, 9, 42, 0
11, 54501, Note_on_c, 9, 36, 0
11, 54506, Note_on_c, 9, 69, 0
11, 54547, Note_on_c, 9, 38, 72
11, 54547, Note_on_c, 9, 42, 40
11, 54547, Note_on_c, 9, 69, 28
11, 54556, Note_on_c, 9, 42, 0
11, 54564, Note_on_c, 9, 69, 0
11, 54564, Note_on_c, 9, 38, 0
11, 54607, Note_on_c, 9, 42, 56
11, 54612, Note_on_c, 9, 69, 44
11, 54616, Note_on_c, 9, 42, 0
11, 54626, Note_on_c, 9, 69, 0
11, 54667, Note_on_c, 9, 46, 40
11, 54672, Note_on_c, 9, 69, 28
11, 54676, Note_on_c, 9, 46, 0
11, 54686, Note_on_c, 9, 69, 0
11, 54729, Note_on_c, 9, 42, 56
11, 54729, Note_on_c, 9, 36, 56
11, 54729, Note_on_c, 9, 69, 44
11, 54736, Note_on_c, 9, 42, 0
11, 54741, Note_on_c, 9, 36, 0
11, 54748, Note_on_c, 9, 69, 0
11, 54787, Note_on_c, 9, 42, 40
11, 54787, Note_on_c, 9, 36, 56
11, 54792, Note_on_c, 9, 42, 0
11, 54792, Note_on_c, 9, 69, 28
11, 54801, Note_on_c, 9, 36, 0
11, 54804, Note_on_c, 9, 69, 0
11, 54847, Note_on_c, 9, 38, 72
11, 54847, Note_on_c, 9, 42, 56
11, 54852, Note_on_c, 9, 42, 0
11, 54856, Note_on_c, 9, 38, 0
11, 54856, Note_on_c, 9, 69, 44
11, 54873, Note_on_c, 9, 69, 0
11, 54907, Note_on_c, 9, 42, 40
11, 54912, Note_on_c, 9, 69, 28
11, 54916, Note_on_c, 9, 42, 0
11, 54924, Note_on_c, 9, 69, 0
11, 54967, Note_on_c, 9, 36, 56
11, 54967, Note_on_c, 9, 42, 56
11, 54974, Note_on_c, 9, 42, 0
11, 54974, Note_on_c, 9, 69, 44
11, 54981, Note_on_c, 9, 36, 0
11, 54993, Note_on_c, 9, 69, 0
11, 55027, Note_on_c, 9, 42, 40
11, 55032, Note_on_c, 9, 38, 72
11, 55032, Note_on_c, 9, 69, 28
11, 55036, Note_on_c, 9, 42, 0
11, 55039, Note_on_c, 9, 38, 0
11, 55048, Note_on_c, 9, 69, 0
11, 55087, Note_on_c, 9, 42, 56
11, 55092, Note_on_c, 9, 69, 44
11, 55096, Note_on_c, 9, 42, 0
11, 55113, Note_on_c, 9, 69, 0
11, 55147, Note_on_c, 9, 46, 40
11, 55152, Note_on_c, 9, 69, 28
11, 55156, Note_on_c, 9, 46, 0
11, 55164, Note_on_c, 9, 69, 0
11, 55209, Note_on_c, 9, 42, 56
11, 55209, Note_on_c, 9, 36, 56
11, 55209, Note_on_c, 9, 69, 44
11, 55216, Note_on_c, 9, 42, 0
11, 55221, Note_on_c, 9, 36, 0
11, 55228, Note_on_c, 9, 69, 0
11, 55267, Note_on_c, 9, 42, 40
11, 55272, Note_on_c, 9, 42, 0
11, 55272, Note_on_c, 9, 36, 56
11, 55272, Note_on_c, 9, 69, 28
11, 55276, Note_on_c, 9, 36, 0
11, 55284, Note_on_c, 9, 69, 0
11, 55327, Note_on_c, 9, 42, 56
11, 55332, Note_on_c, 9, 42, 0
11, 55332, Note_on_c, 9, 38, 72
11, 55332, Note_on_c, 9, 69, 44
11, 55336, Note_on_c, 9, 38, 0
11, 55353, Note_on_c, 9, 69, 0
11, 55387, Note_on_c, 9, 42, 40
11, 55392, Note_on_c, 9, 69, 28
11, 55396, Note_on_c, 9, 42, 0
11, 55401, Note_on_c, 9, 69, 0
11, 55447, Note_on_c, 9, 36, 56
11, 55447, Note_on_c, 9, 42, 56
11, 55447, Note_on_c, 9, 69, 44
11, 55452, Note_on_c, 9, 42, 0
11, 55461, Note_on_c, 9, 36, 0
11, 55464, Note_on_c, 9, 69, 0
11, 55507, Note_on_c, 9, 38, 72
11, 55507, Note_on_c, 9, 42, 40
11, 55507, Note_on_c, 9, 69, 28
11, 55516, Note_on_c, 9, 42, 0
11, 55524, Note_on_c, 9, 69, 0
11, 55524, Note_on_c, 9, 38, 0
11, 55567, Note_on_c, 9, 42, 56
11, 55572, Note_on_c, 9, 69, 44
11, 55576, Note_on_c, 9, 42, 0
11, 55586, Note_on_c, 9, 69, 0
11, 55627, Note_on_c, 9, 46, 40
11, 55632, Note_on_c, 9, 69, 28
11, 55636, Note_on_c, 9, 46, 0
11, 55646, Note_on_c, 9, 69, 0
11, 55689, Note_on_c, 9, 42, 56
11, 55689, Note_on_c, 9, 36, 56
11, 55689, Note_on_c, 9, 69, 44
11, 55696, Note_on_c, 9, 42, 0
11, 55701, Note_on_c, 9, 36, 0
11, 55708, Note_on_c, 9, 69, 0
11, 55747, Note_on_c, 9, 42, 40
11, 55747, Note_on_c, 9, 36, 56
11, 55752, Note_on_c, 9, 42, 0
11, 55752, Note_on_c, 9, 69, 28
11, 55761, Note_on_c, 9, 36, 0
11, 55764, Note_on_c, 9, 69, 0
11, 55807, Note_on_c, 9, 38, 72
11, 55807, Note_on_c, 9, 42, 56
11, 55812, Note_on_c, 9, 42, 0
11, 55816, Note_on_c, 9, 38, 0
11, 55816, Note_on_c, 9, 69, 44
11, 55833, Note_on_c, 9, 69, 0
11, 55867, Note_on_c, 9, 42, 40
11, 55872, Note_on_c, 9, 69, 28
11, 55876, Note_on_c, 9, 42, 0
11, 55884, Note_on_c, 9, 69, 0
11, 55927, Note_on_c, 9, 36, 56
11, 55927, Note_on_c, 9, 42, 56
11, 55934, Note_on_c, 9, 42, 0
11, 55934, Note_on_c, 9, 69, 44
11, 55941, Note_on_c, 9, 36, 0
11, 55953, Note_on_c, 9, 69, 0
11, 55987, Note_on_c, 9, 38, 72
11, 55987, Note_on_c, 9, 42, 40
11, 55992, Note_on_c, 9, 69, 28
11, 55996, Note_on_c, 9, 42, 0
11, 55999, Note_on_c, 9, 38, 0
11, 56008, Note_on_c, 9, 69, 0
11, 56047, Note_on_c, 9, 42, 56
11, 56052, Note_on_c, 9, 69, 44
11, 56056, Note_on_c, 9, 42, 0
11, 56073, Note_on_c, 9, 69, 0
11, 56107, Note_on_c, 9, 46, 40
11, 56112, Note_on_c, 9, 69, 28
11, 56116, Note_on_c, 9, 46, 0
11, 56124, Note_on_c, 9, 69, 0
11, 56172, Note_on_c, 9, 42, 56
11, 56172, Note_on_c, 9, 36, 56
11, 56172, Note_on_c, 9, 69, 44
11, 56173, Note_on_c, 9, 42, 0
11, 56181, Note_on_c, 9, 36, 0
11, 56191, Note_on_c, 9, 69, 0
11, 56227, Note_on_c, 9, 42, 40
11, 56227, Note_on_c, 9, 36, 56
11, 56232, Note_on_c, 9, 42, 0
11, 56232, Note_on_c, 9, 69, 28
11, 56236, Note_on_c, 9, 36, 0
11, 56244, Note_on_c, 9, 69, 0
11, 56287, Note_on_c, 9, 38, 72
11, 56287, Note_on_c, 9, 42, 56
11, 56292, Note_on_c, 9, 42, 0
11, 56292, Note_on_c, 9, 69, 44
11, 56296, Note_on_c, 9, 38, 0
11, 56311, Note_on_c, 9, 69, 0
11, 56347, Note_on_c, 9, 42, 40
11, 56352, Note_on_c, 9, 69, 28
11, 56356, Note_on_c, 9, 42, 0
11, 56359, Note_on_c, 9, 69, 0
11, 56407, Note_on_c, 9, 36, 56
11, 56407, Note_on_c, 9, 42, 56
11, 56412, Note_on_c, 9, 69, 44
11, 56416, Note_on_c, 9, 42, 0
11, 56421, Note_on_c, 9, 36, 0
11, 56424, Note_on_c, 9, 69, 0
11, 56467, Note_on_c, 9, 38, 72
11, 56467, Note_on_c, 9, 42, 40
11, 56472, Note_on_c, 9, 69, 28
11, 56476, Note_on_c, 9, 42, 0
11, 56484, Note_on_c, 9, 69, 0
11, 56484, Note_on_c, 9, 38, 0
11, 56527, Note_on_c, 9, 42, 56
11, 56532, Note_on_c, 9, 69, 44
11, 56536, Note_on_c, 9, 42, 0
11, 56546, Note_on_c, 9, 69, 0
11, 56587, Note_on_c, 9, 46, 40
11, 56592, Note_on_c, 9, 69, 28
11, 56596, Note_on_c, 9, 46, 0
11, 56606, Note_on_c, 9, 69, 0
11, 56652, Note_on_c, 9, 42, 56
11, 56652, Note_on_c, 9, 36, 56
11, 56652, Note_on_c, 9, 69, 44
11, 56653, Note_on_c, 9, 42, 0
11, 56661, Note_on_c, 9, 36, 0
11, 56668, Note_on_c, 9, 69, 0
11, 56707, Note_on_c, 9, 42, 40
11, 56712, Note_on_c, 9, 42, 0
11, 56712, Note_on_c, 9, 36, 56
11, 56712, Note_on_c, 9, 69, 28
11, 56721, Note_on_c, 9, 36, 0
11, 56724, Note_on_c, 9, 69, 0
11, 56767, Note_on_c, 9, 42, 56
11, 56772, Note_on_c, 9, 42, 0
11, 56772, Note_on_c, 9, 38, 72
11, 56776, Note_on_c, 9, 38, 0
11, 56776, Note_on_c, 9, 69, 44
11, 56793, Note_on_c, 9, 69, 0
11, 56827, Note_on_c, 9, 42, 40
11, 56832, Note_on_c, 9, 69, 28
11, 56836, Note_on_c, 9, 42, 0
11, 56841, Note_on_c, 9, 69, 0
11, 56887, Note_on_c, 9, 36, 56
11, 56887, Note_on_c, 9, 42, 56
11, 56894, Note_on_c, 9, 42, 0
11, 56894, Note_on_c, 9, 69, 44
11, 56901, Note_on_c, 9, 36, 0
11, 56913, Note_on_c, 9, 69, 0
11, 56947, Note_on_c, 9, 38, 72
11, 56947, Note_on_c, 9, 42, 40
11, 56952, Note_on_c, 9, 69, 28
11, 56956, Note_on_c, 9, 42, 0
11, 56959, Note_on_c, 9, 38, 0
11, 56968, Note_on_c, 9, 69, 0
11, 57007, Note_on_c, 9, 42, 56
11, 57012, Note_on_c, 9, 69, 44
11, 57016, Note_on_c, 9, 42, 0
11, 57033, Note_on_c, 9, 69, 0
11, 57067, Note_on_c, 9, 46, 40
11, 57072, Note_on_c, 9, 69, 28
11, 57076, Note_on_c, 9, 46, 0
11, 57081, Note_on_c, 9, 69, 0
11, 57129, Note_on_c, 9, 42, 56
11, 57129, Note_on_c, 9, 36, 56
11, 57129, Note_on_c, 9, 69, 44
11, 57136, Note_on_c, 9, 42, 0
11, 57141, Note_on_c, 9, 36, 0
11, 57151, Note_on_c, 9, 69, 0
11, 57187, Note_on_c, 9, 42, 40
11, 57192, Note_on_c, 9, 42, 0
11, 57192, Note_on_c, 9, 36, 56
11, 57192, Note_on_c, 9, 69, 28
11, 57196, Note_on_c, 9, 36, 0
11, 57201, Note_on_c, 9, 69, 0
11, 57247, Note_on_c, 9, 38, 72
11, 57247, Note_on_c, 9, 42, 56
11, 57252, Note_on_c, 9, 42, 0
11, 57252, Note_on_c, 9, 69, 44
11, 57256, Note_on_c, 9, 38, 0
11, 57271, Note_on_c, 9, 69, 0
11, 57307, Note_on_c, 9, 42, 40
11, 57312, Note_on_c, 9, 69, 28
11, 57316, Note_on_c, 9, 42, 0
11, 57319, Note_on_c, 9, 69, 0
11, 57367, Note_on_c, 9, 36, 56
11, 57367, Note_on_c, 9, 42, 56
11, 57372, Note_on_c, 9, 69, 44
11, 57376, Note_on_c, 9, 42, 0
11, 57381, Note_on_c, 9, 36, 0
11, 57384, Note_on_c, 9, 69, 0
11, 57427, Note_on_c, 9, 38, 72
11, 57427, Note_on_c, 9, 42, 40
11, 57427, Note_on_c, 9, 69, 28
11, 57436, Note_on_c, 9, 42, 0
11, 57441, Note_on_c, 9, 38, 0
11, 57446, Note_on_c, 9, 69, 0
11, 57487, Note_on_c, 9, 42, 56
11, 57492, Note_on_c, 9, 69, 44
11, 57496, Note_on_c, 9, 42, 0
11, 57506, Note_on_c, 9, 69, 0
11, 57547, Note_on_c, 9, 46, 40
11, 57552, Note_on_c, 9, 69, 28
11, 57556, Note_on_c, 9, 46, 0
11, 57566, Note_on_c, 9, 69, 0
11, 57609, Note_on_c, 9, 42, 56
11, 57609, Note_on_c, 9, 36, 56
11, 57609, Note_on_c, 9, 69, 44
11, 57616, Note_on_c, 9, 42, 0
11, 57621, Note_on_c, 9, 36, 0
11, 57628, Note_on_c, 9, 69, 0
11, 57667, Note_on_c, 9, 42, 40
11, 57667, Note_on_c, 9, 36, 56
11, 57672, Note_on_c, 9, 42, 0
11, 57672, Note_on_c, 9, 69, 28
11, 57681, Note_on_c, 9, 36, 0
11, 57684, Note_on_c, 9, 69, 0
11, 57727, Note_on_c, 9, 38, 72
11, 57727, Note_on_c, 9, 42, 56
11, 57732, Note_on_c, 9, 42, 0
11, 57736, Note_on_c, 9, 38, 0
11, 57736, Note_on_c, 9, 69, 44
11, 57753, Note_on_c, 9, 69, 0
11, 57787, Note_on_c, 9, 42, 40
11, 57792, Note_on_c, 9, 69, 28
11, 57796, Note_on_c, 9, 42, 0
11, 57801, Note_on_c, 9, 69, 0
11, 57847, Note_on_c, 9, 36, 56
11, 57847, Note_on_c, 9, 42, 56
11, 57854, Note_on_c, 9, 42, 0
11, 57854, Note_on_c, 9, 69, 44
11, 57861, Note_on_c, 9, 36, 0
11, 57873, Note_on_c, 9, 69, 0
11, 57907, Note_on_c, 9, 38, 72
11, 57907, Note_on_c, 9, 42, 40
11, 57912, Note_on_c, 9, 69, 28
11, 57916, Note_on_c, 9, 42, 0
11, 57919, Note_on_c, 9, 38, 0
11, 57928, Note_on_c, 9, 69, 0
11, 57967, Note_on_c, 9, 42, 56
11, 57972, Note_on_c, 9, 69, 44
11, 57976, Note_on_c, 9, 42, 0
11, 57993, Note_on_c, 9, 69, 0
11, 58027, Note_on_c, 9, 46, 40
11, 58032, Note_on_c, 9, 69, 28
11, 58036, Note_on_c, 9, 46, 0
11, 58041, Note_on_c, 9, 69, 0
11, 58092, Note_on_c, 9, 42, 56
11, 58092, Note_on_c, 9, 36, 56
11, 58092, Note_on_c, 9, 69, 44
11, 58093, Note_on_c, 9, 42, 0
11, 58101, Note_on_c, 9, 36, 0
11, 58111, Note_on_c, 9, 69, 0
11, 58147, Note_on_c, 9, 42, 40
11, 58152, Note_on_c, 9, 42, 0
11, 58152, Note_on_c, 9, 36, 56
11, 58152, Note_on_c, 9, 69, 28
11, 58156, Note_on_c, 9, 36, 0
11, 58164, Note_on_c, 9, 69, 0
11, 58207, Note_on_c, 9, 42, 56
11, 58212, Note_on_c, 9, 42, 0
11, 58212, Note_on_c, 9, 38, 72
11, 58212, Note_on_c, 9, 69, 44
11, 58216, Note_on_c, 9, 38, 0
11, 58233, Note_on_c, 9, 69, 0
11, 58267, Note_on_c, 9, 42, 40
11, 58272, Note_on_c, 9, 69, 28
11, 58276, Note_on_c, 9, 42, 0
11, 58279, Note_on_c, 9, 69, 0
11, 58327, Note_on_c, 9, 36, 56
11, 58327, Note_on_c, 9, 42, 56
11, 58332, Note_on_c, 9, 69, 44
11, 58336, Note_on_c, 9, 42, 0
11, 58341, Note_on_c, 9, 36, 0
11, 58344, Note_on_c, 9, 69, 0
11, 58387, Note_on_c, 9, 38, 72
11, 58387, Note_on_c, 9, 42, 40
11, 58387, Note_on_c, 9, 69, 28
11, 58396, Note_on_c, 9, 42, 0
11, 58401, Note_on_c, 9, 38, 0
11, 58404, Note_on_c, 9, 69, 0
11, 58447, Note_on_c, 9, 42, 56
11, 58452, Note_on_c, 9, 69, 44
11, 58456, Note_on_c, 9, 42, 0
11, 58466, Note_on_c, 9, 69, 0
11, 58507, Note_on_c, 9, 46, 40
11, 58512, Note_on_c, 9, 69, 28
11, 58516, Note_on_c, 9, 46, 0
11, 58526, Note_on_c, 9, 69, 0
11, 58569, Note_on_c, 9, 42, 56
11, 58569, Note_on_c, 9, 36, 56
11, 58569, Note_on_c, 9, 69, 44
11, 58574, Note_on_c, 9, 42, 0
11, 58581, Note_on_c, 9, 36, 0
11, 58588, Note_on_c, 9, 69, 0
11, 58627, Note_on_c, 9, 42, 40
11, 58627, Note_on_c, 9, 36, 56
11, 58632, Note_on_c, 9, 42, 0
11, 58632, Note_on_c, 9, 69, 28
11, 58641, Note_on_c, 9, 36, 0
11, 58646, Note_on_c, 9, 69, 0
11, 58687, Note_on_c, 9, 38, 72
11, 58687, Note_on_c, 9, 42, 56
11, 58692, Note_on_c, 9, 42, 0
11, 58696, Note_on_c, 9, 38, 0
11, 58696, Note_on_c, 9, 69, 44
11, 58713, Note_on_c, 9, 69, 0
11, 58747, Note_on_c, 9, 42, 40
11, 58752, Note_on_c, 9, 69, 28
11, 58756, Note_on_c, 9, 42, 0
11, 58761, Note_on_c, 9, 69, 0
11, 58807, Note_on_c, 9, 36, 56
11, 58807, Note_on_c, 9, 42, 56
11, 58814, Note_on_c, 9, 42, 0
11, 58814, Note_on_c, 9, 69, 44
11, 58821, Note_on_c, 9, 36, 0
11, 58833, Note_on_c, 9, 69, 0
11, 58867, Note_on_c, 9, 38, 72
11, 58867, Note_on_c, 9, 42, 40
11, 58872, Note_on_c, 9, 69, 28
11, 58876, Note_on_c, 9, 42, 0
11, 58879, Note_on_c, 9, 38, 0
11, 58888, Note_on_c, 9, 69, 0
11, 58927, Note_on_c, 9, 42, 56
11, 58932, Note_on_c, 9, 69, 44
11, 58936, Note_on_c, 9, 42, 0
11, 58953, Note_on_c, 9, 69, 0
11, 58987, Note_on_c, 9, 46, 40
11, 58992, Note_on_c, 9, 69, 28
11, 58996, Note_on_c, 9, 46, 0
11, 59001, Note_on_c, 9, 69, 0
11, 59052, Note_on_c, 9, 42, 56
11, 59052, Note_on_c, 9, 36, 56
11, 59052, Note_on_c, 9, 69, 44
11, 59053, Note_on_c, 9, 42, 0
11, 59061, Note_on_c, 9, 36, 0
11, 59071, Note_on_c, 9, 69, 0
11, 59107, Note_on_c, 9, 42, 40
11, 59112, Note_on_c, 9, 42, 0
11, 59112, Note_on_c, 9, 36, 56
11, 59112, Note_on_c, 9, 69, 28
11, 59116, Note_on_c, 9, 36, 0
11, 59121, Note_on_c, 9, 69, 0
11, 59167, Note_on_c, 9, 38, 72
11, 59167, Note_on_c, 9, 42, 56
11, 59172, Note_on_c, 9, 42, 0
11, 59172, Note_on_c, 9, 69, 44
11, 59176, Note_on_c, 9, 38, 0
11, 59191, Note_on_c, 9, 69, 0
11, 59227, Note_on_c, 9, 42, 40
11, 59232, Note_on_c, 9, 69, 28
11, 59236, Note_on_c, 9, 42, 0
11, 59239, Note_on_c, 9, 69, 0
11, 59287, Note_on_c, 9, 36, 56
11, 59287, Note_on_c, 9, 42, 56
11, 59292, Note_on_c, 9, 69, 44
11, 59294, Note_on_c, 9, 42, 0
11, 59301, Note_on_c, 9, 36, 0
11, 59304, Note_on_c, 9, 69, 0
11, 59347, Note_on_c, 9, 38, 72
11, 59347, Note_on_c, 9, 42, 40
11, 59352, Note_on_c, 9, 69, 28
11, 59356, Note_on_c, 9, 42, 0
11, 59361, Note_on_c, 9, 38, 0
11, 59364, Note_on_c, 9, 69, 0
11, 59407, Note_on_c, 9, 42, 56
11, 59412, Note_on_c, 9, 69, 44
11, 59416, Note_on_c, 9, 42, 0
11, 59426, Note_on_c, 9, 69, 0
11, 59467, Note_on_c, 9, 46, 40
11, 59472, Note_on_c, 9, 69, 28
11, 59476, Note_on_c, 9, 46, 0
11, 59486, Note_on_c, 9, 69, 0
11, 59532, Note_on_c, 9, 42, 56
11, 59532, Note_on_c, 9, 36, 56
11, 59532, Note_on_c, 9, 69, 44
11, 59533, Note_on_c, 9, 42, 0
11, 59541, Note_on_c, 9, 36, 0
11, 59548, Note_on_c, 9, 69, 0
11, 59587, Note_on_c, 9, 42, 40
11, 59592, Note_on_c, 9, 42, 0
11, 59592, Note_on_c, 9, 36, 56
11, 59592, Note_on_c, 9, 69, 28
11, 59601, Note_on_c, 9, 36, 0
11, 59604, Note_on_c, 9, 69, 0
11, 59647, Note_on_c, 9, 42, 56
11, 59652, Note_on_c, 9, 42, 0
11, 59652, Note_on_c, 9, 38, 72
11, 59656, Note_on_c, 9, 38, 0
11, 59656, Note_on_c, 9, 69, 44
11, 59673, Note_on_c, 9, 69, 0
11, 59707, Note_on_c, 9, 42, 40
11, 59712, Note_on_c, 9, 69, 28
11, 59716, Note_on_c, 9, 42, 0
11, 59721, Note_on_c, 9, 69, 0
11, 59767, Note_on_c, 9, 36, 56
11, 59767, Note_on_c, 9, 42, 56
11, 59774, Note_on_c, 9, 42, 0
11, 59774, Note_on_c, 9, 69, 44
11, 59781, Note_on_c, 9, 36, 0
11, 59793, Note_on_c, 9, 69, 0
11, 59827, Note_on_c, 9, 38, 72
11, 59827, Note_on_c, 9, 42, 40
11, 59832, Note_on_c, 9, 69, 28
11, 59836, Note_on_c, 9, 42, 0
11, 59839, Note_on_c, 9, 38, 0
11, 59848, Note_on_c, 9, 69, 0
11, 59887, Note_on_c, 9, 42, 56
11, 59892, Note_on_c, 9, 69, 44
11, 59896, Note_on_c, 9, 42, 0
11, 59913, Note_on_c, 9, 69, 0
11, 59947, Note_on_c, 9, 46, 40
11, 59952, Note_on_c, 9, 69, 28
11, 59956, Note_on_c, 9, 46, 0
11, 59961, Note_on_c, 9, 69, 0
11, 60012, Note_on_c, 9, 42, 56
11, 60012, Note_on_c, 9, 36, 56
11, 60012, Note_on_c, 9, 69, 44
11, 60013, Note_on_c, 9, 42, 0
11, 60021, Note_on_c, 9, 36, 0
11, 60031, Note_on_c, 9, 69, 0
11, 60069, Note_on_c, 9, 42, 40
11, 60069, Note_on_c, 9, 36, 56
11, 60069, Note_on_c, 9, 69, 28
11, 60074, Note_on_c, 9, 42, 0
11, 60076, Note_on_c, 9, 36, 0
11, 60081, Note_on_c, 9, 69, 0
11, 60127, Note_on_c, 9, 38, 72
11, 60127, Note_on_c, 9, 42, 56
11, 60132, Note_on_c, 9, 42, 0
11, 60132, Note_on_c, 9, 69, 44
11, 60136, Note_on_c, 9, 38, 0
11, 60151, Note_on_c, 9, 69, 0
11, 60187, Note_on_c, 9, 42, 40
11, 60192, Note_on_c, 9, 69, 28
11, 60196, Note_on_c, 9, 42, 0
11, 60201, Note_on_c, 9, 69, 0
11, 60247, Note_on_c, 9, 36, 56
11, 60247, Note_on_c, 9, 42, 56
11, 60247, Note_on_c, 9, 69, 44
11, 60254, Note_on_c, 9, 42, 0
11, 60261, Note_on_c, 9, 36, 0
11, 60264, Note_on_c, 9, 69, 0
11, 60307, Note_on_c, 9, 38, 72
11, 60307, Note_on_c, 9, 42, 40
11, 60307, Note_on_c, 9, 69, 28
11, 60316, Note_on_c, 9, 42, 0
11, 60321, Note_on_c, 9, 38, 0
11, 60324, Note_on_c, 9, 69, 0
11, 60367, Note_on_c, 9, 42, 56
11, 60372, Note_on_c, 9, 69, 44
11, 60376, Note_on_c, 9, 42, 0
11, 60384, Note_on_c, 9, 69, 0
11, 60427, Note_on_c, 9, 46, 40
11, 60432, Note_on_c, 9, 69, 28
11, 60436, Note_on_c, 9, 46, 0
11, 60444, Note_on_c, 9, 69, 0
11, 60492, Note_on_c, 9, 42, 56
11, 60492, Note_on_c, 9, 36, 56
11, 60492, Note_on_c, 9, 69, 44
11, 60493, Note_on_c, 9, 42, 0
11, 60501, Note_on_c, 9, 36, 0
11, 60508, Note_on_c, 9, 69, 0
11, 60547, Note_on_c, 9, 42, 40
11, 60547, Note_on_c, 9, 36, 56
11, 60552, Note_on_c, 9, 42, 0
11, 60552, Note_on_c, 9, 69, 28
11, 60561, Note_on_c, 9, 36, 0
11, 60564, Note_on_c, 9, 69, 0
11, 60607, Note_on_c, 9, 38, 72
11, 60607, Note_on_c, 9, 42, 56
11, 60612, Note_on_c, 9, 42, 0
11, 60616, Note_on_c, 9, 38, 0
11, 60616, Note_on_c, 9, 69, 44
11, 60633, Note_on_c, 9, 69, 0
11, 60667, Note_on_c, 9, 42, 40
11, 60672, Note_on_c, 9, 69, 28
11, 60676, Note_on_c, 9, 42, 0
11, 60681, Note_on_c, 9, 69, 0
11, 60727, Note_on_c, 9, 36, 56
11, 60727, Note_on_c, 9, 42, 56
11, 60734, Note_on_c, 9, 42, 0
11, 60734, Note_on_c, 9, 69, 44
11, 60741, Note_on_c, 9, 36, 0
11, 60753, Note_on_c, 9, 69, 0
11, 60787, Note_on_c, 9, 38, 72
11, 60787, Note_on_c, 9, 42, 40
11, 60792, Note_on_c, 9, 69, 28
11, 60796, Note_on_c, 9, 42, 0
11, 60799, Note_on_c, 9, 38, 0
11, 60808, Note_on_c, 9, 69, 0
11, 60847, Note_on_c, 9, 42, 56
11, 60852, Note_on_c, 9, 69, 44
11, 60856, Note_on_c, 9, 42, 0
11, 60873, Note_on_c, 9, 69, 0
11, 60907, Note_on_c, 9, 46, 40
11, 60912, Note_on_c, 9, 69, 28
11, 60916, Note_on_c, 9, 46, 0
11, 60921, Note_on_c, 9, 69, 0
11, 60972, Note_on_c, 9, 42, 56
11, 60972, Note_on_c, 9, 36, 56
11, 60972, Note_on_c, 9, 69, 44
11, 60973, Note_on_c, 9, 42, 0
11, 60981, Note_on_c, 9, 36, 0
11, 60991, Note_on_c, 9, 69, 0
11, 61027, Note_on_c, 9, 42, 40
11, 61032, Note_on_c, 9, 42, 0
11, 61032, Note_on_c, 9, 36, 56
11, 61032, Note_on_c, 9, 69, 28
11, 61036, Note_on_c, 9, 36, 0
11, 61044, Note_on_c, 9, 69, 0
11, 61087, Note_on_c, 9, 42, 56
11, 61092, Note_on_c, 9, 42, 0
11, 61092, Note_on_c, 9, 38, 72
11, 61092, Note_on_c, 9, 69, 44
11, 61096, Note_on_c, 9, 38, 0
11, 61113, Note_on_c, 9, 69, 0
11, 61147, Note_on_c, 9, 42, 40
11, 61152, Note_on_c, 9, 69, 28
11, 61156, Note_on_c, 9, 42, 0
11, 61161, Note_on_c, 9, 69, 0
11, 61207, Note_on_c, 9, 36, 56
11, 61207, Note_on_c, 9, 42, 56
11, 61212, Note_on_c, 9, 42, 0
11, 61212, Note_on_c, 9, 69, 44
11, 61221, Note_on_c, 9, 36, 0
11, 61224, Note_on_c, 9, 69, 0
11, 61269, Note_on_c, 9, 38, 72
11, 61269, Note_on_c, 9, 42, 40
11, 61269, Note_on_c, 9, 69, 28
11, 61276, Note_on_c, 9, 42, 0
11, 61281, Note_on_c, 9, 38, 0
11, 61284, Note_on_c, 9, 69, 0
11, 61327, Note_on_c, 9, 42, 56
11, 61332, Note_on_c, 9, 69, 44
11, 61336, Note_on_c, 9, 42, 0
11, 61344, Note_on_c, 9, 69, 0
11, 61387, Note_on_c, 9, 46, 40
11, 61392, Note_on_c, 9, 69, 28
11, 61396, Note_on_c, 9, 46, 0
11, 61404, Note_on_c, 9, 69, 0
11, 61449, Note_on_c, 9, 42, 56
11, 61449, Note_on_c, 9, 36, 56
11, 61449, Note_on_c, 9, 69, 44
11, 61454, Note_on_c, 9, 42, 0
11, 61461, Note_on_c, 9, 36, 0
11, 61468, Note_on_c, 9, 69, 0
11, 61507, Note_on_c, 9, 42, 40
11, 61507, Note_on_c, 9, 36, 56
11, 61512, Note_on_c, 9, 42, 0
11, 61512, Note_on_c, 9, 69, 28
11, 61521, Note_on_c, 9, 36, 0
11, 61524, Note_on_c, 9, 69, 0
11, 61567, Note_on_c, 9, 38, 72
11, 61567, Note_on_c, 9, 42, 56
11, 61572, Note_on_c, 9, 42, 0
11, 61576, Note_on_c, 9, 38, 0
11, 61576, Note_on_c, 9, 69, 44
11, 61593, Note_on_c, 9, 69, 0
11, 61627, Note_on_c, 9, 42, 40
11, 61632, Note_on_c, 9, 69, 28
11, 61636, Note_on_c, 9, 42, 0
11, 61641, Note_on_c, 9, 69, 0
11, 61687, Note_on_c, 9, 36, 56
11, 61687, Note_on_c, 9, 42, 56
11, 61694, Note_on_c, 9, 42, 0
11, 61694, Note_on_c, 9, 69, 44
11, 61701, Note_on_c, 9, 36, 0
11, 61713, Note_on_c, 9, 69, 0
11, 61747, Note_on_c, 9, 38, 72
11, 61747, Note_on_c, 9, 42, 40
11, 61752, Note_on_c, 9, 69, 28
11, 61756, Note_on_c, 9, 42, 0
11, 61759, Note_on_c, 9, 38, 0
11, 61768, Note_on_c, 9, 69, 0
11, 61807, Note_on_c, 9, 42, 56
11, 61812, Note_on_c, 9, 69, 44
11, 61816, Note_on_c, 9, 42, 0
11, 61833, Note_on_c, 9, 69, 0
11, 61867, Note_on_c, 9, 46, 40
11, 61872, Note_on_c, 9, 69, 28
11, 61876, Note_on_c, 9, 46, 0
11, 61881, Note_on_c, 9, 69, 0
11, 61929, Note_on_c, 9, 42, 56
11, 61929, Note_on_c, 9, 36, 56
11, 61929, Note_on_c, 9, 69, 44
11, 61936, Note_on_c, 9, 42, 0
11, 61941, Note_on_c, 9, 36, 0
11, 61951, Note_on_c, 9, 69, 0
11, 61987, Note_on_c, 9, 42, 40
11, 61987, Note_on_c, 9, 36, 56
11, 61992, Note_on_c, 9, 42, 0
11, 61992, Note_on_c, 9, 69, 28
11, 61996, Note_on_c, 9, 36, 0
11, 62001, Note_on_c, 9, 69, 0
11, 62047, Note_on_c, 9, 38, 72
11, 62047, Note_on_c, 9, 42, 56
11, 62052, Note_on_c, 9, 42, 0
11, 62052, Note_on_c, 9, 69, 44
11, 62056, Note_on_c, 9, 38, 0
11, 62071, Note_on_c, 9, 69, 0
11, 62107, Note_on_c, 9, 42, 40
11, 62112, Note_on_c, 9, 69, 28
11, 62116, Note_on_c, 9, 42, 0
11, 62119, Note_on_c, 9, 69, 0
11, 62167, Note_on_c, 9, 36, 56
11, 62167, Note_on_c, 9, 42, 56
11, 62172, Note_on_c, 9, 42, 0
11, 62172, Note_on_c, 9, 69, 44
11, 62181, Note_on_c, 9, 36, 0
11, 62184, Note_on_c, 9, 69, 0
11, 62227, Note_on_c, 9, 38, 72
11, 62227, Note_on_c, 9, 42, 40
11, 62232, Note_on_c, 9, 69, 28
11, 62236, Note_on_c, 9, 42, 0
11, 62241, Note_on_c, 9, 38, 0
11, 62244, Note_on_c, 9, 69, 0
11, 62287, Note_on_c, 9, 42, 56
11, 62292, Note_on_c, 9, 69, 44
11, 62296, Note_on_c, 9, 42, 0
11, 62304, Note_on_c, 9, 69, 0
11, 62347, Note_on_c, 9, 46, 40
11, 62352, Note_on_c, 9, 69, 28
11, 62356, Note_on_c, 9, 46, 0
11, 62364, Note_on_c, 9, 69, 0
11, 62412, Note_on_c, 9, 42, 56
11, 62412, Note_on_c, 9, 36, 56
11, 62412, Note_on_c, 9, 69, 44
11, 62413, Note_on_c, 9, 42, 0
11, 62421, Note_on_c, 9, 36, 0
11, 62428, Note_on_c, 9, 69, 0
11, 62467, Note_on_c, 9, 42, 40
11, 62472, Note_on_c, 9, 42, 0
11, 62472, Note_on_c, 9, 36, 56
11, 62472, Note_on_c, 9, 69, 28
11, 62481, Note_on_c, 9, 36, 0
11, 62486, Note_on_c, 9, 69, 0
11, 62527, Note_on_c, 9, 42, 56
11, 62532, Note_on_c, 9, 42, 0
11, 62532, Note_on_c, 9, 38, 72
11, 62536, Note_on_c, 9, 38, 0
11, 62536, Note_on_c, 9, 69, 44
11, 62553, Note_on_c, 9, 69, 0
11, 62587, Note_on_c, 9, 42, 40
11, 62592, Note_on_c, 9, 69, 28
11, 62596, Note_on_c, 9, 42, 0
11, 62601, Note_on_c, 9, 69, 0
11, 62647, Note_on_c, 9, 36, 56
11, 62647, Note_on_c, 9, 42, 56
11, 62654, Note_on_c, 9, 42, 0
11, 62654, Note_on_c, 9, 69, 44
11, 62661, Note_on_c, 9, 36, 0
11, 62673, Note_on_c, 9, 69, 0
11, 62707, Note_on_c, 9, 38, 72
11, 62707, Note_on_c, 9, 42, 40
11, 62712, Note_on_c, 9, 69, 28
11, 62716, Note_on_c, 9, 42, 0
11, 62719, Note_on_c, 9, 38, 0
11, 62728, Note_on_c, 9, 69, 0
11, 62767, Note_on_c, 9, 42, 56
11, 62772, Note_on_c, 9, 69, 44
11, 62776, Note_on_c, 9, 42, 0
11, 62793, Note_on_c, 9, 69, 0
11, 62827, Note_on_c, 9, 46, 40
11, 62832, Note_on_c, 9, 69, 28
11, 62836, Note_on_c, 9, 46, 0
11, 62841, Note_on_c, 9, 69, 0
11, 62889, Note_on_c, 9, 42, 56
11, 62889, Note_on_c, 9, 36, 56
11, 62889, Note_on_c, 9, 69, 44
11, 62896, Note_on_c, 9, 42, 0
11, 62901, Note_on_c, 9, 36, 0
11, 62911, Note_on_c, 9, 69, 0
11, 62947, Note_on_c, 9, 42, 40
11, 62947, Note_on_c, 9, 36, 56
11, 62952, Note_on_c, 9, 42, 0
11, 62952, Note_on_c, 9, 69, 28
11, 62956, Note_on_c, 9, 36, 0
11, 62961, Note_on_c, 9, 69, 0
11, 63007, Note_on_c, 9, 38, 72
11, 63007, Note_on_c, 9, 42, 56
11, 63012, Note_on_c, 9, 42, 0
11, 63012, Note_on_c, 9, 69, 44
11, 63016, Note_on_c, 9, 38, 0
11, 63031, Note_on_c, 9, 69, 0
11, 63067, Note_on_c, 9, 42, 40
11, 63072, Note_on_c, 9, 69, 28
11, 63076, Note_on_c, 9, 42, 0
11, 63079, Note_on_c, 9, 69, 0
11, 63127, Note_on_c, 9, 36, 56
11, 63127, Note_on_c, 9, 42, 56
11, 63127, Note_on_c, 9, 69, 44
11, 63134, Note_on_c, 9, 42, 0
11, 63141, Note_on_c, 9, 36, 0
11, 63144, Note_on_c, 9, 69, 0
11, 63187, Note_on_c, 9, 38, 72
11, 63187, Note_on_c, 9, 42, 40
11, 63187, Note_on_c, 9, 69, 28
11, 63196, Note_on_c, 9, 42, 0
11, 63201, Note_on_c, 9, 38, 0
11, 63204, Note_on_c, 9, 69, 0
11, 63247, Note_on_c, 9, 42, 56
11, 63252, Note_on_c, 9, 69, 44
11, 63256, Note_on_c, 9, 42, 0
11, 63264, Note_on_c, 9, 69, 0
11, 63307, Note_on_c, 9, 46, 40
11, 63312, Note_on_c, 9, 69, 28
11, 63316, Note_on_c, 9, 46, 0
11, 63324, Note_on_c, 9, 69, 0
11, 63369, Note_on_c, 9, 42, 56
11, 63369, Note_on_c, 9, 36, 56
11, 63369, Note_on_c, 9, 69, 44
11, 63376, Note_on_c, 9, 42, 0
11, 63381, Note_on_c, 9, 36, 0
11, 63388, Note_on_c, 9, 69, 0
11, 63427, Note_on_c, 9, 42, 40
11, 63427, Note_on_c, 9, 36, 56
11, 63432, Note_on_c, 9, 42, 0
11, 63432, Note_on_c, 9, 69, 28
11, 63441, Note_on_c, 9, 36, 0
11, 63444, Note_on_c, 9, 69, 0
11, 63487, Note_on_c, 9, 38, 72
11, 63487, Note_on_c, 9, 42, 56
11, 63492, Note_on_c, 9, 42, 0
11, 63496, Note_on_c, 9, 38, 0
11, 63496, Note_on_c, 9, 69, 44
11, 63513, Note_on_c, 9, 69, 0
11, 63547, Note_on_c, 9, 42, 40
11, 63552, Note_on_c, 9, 69, 28
11, 63556, Note_on_c, 9, 42, 0
11, 63561, Note_on_c, 9, 69, 0
11, 63607, Note_on_c, 9, 36, 56
11, 63607, Note_on_c, 9, 42, 56
11, 63614, Note_on_c, 9, 42, 0
11, 63614, Note_on_c, 9, 69, 44
11, 63621, Note_on_c, 9, 36, 0
11, 63633, Note_on_c, 9, 69, 0
11, 63667, Note_on_c, 9, 38, 72
11, 63667, Note_on_c, 9, 42, 40
11, 63672, Note_on_c, 9, 69, 28
11, 63676, Note_on_c, 9, 42, 0
11, 63679, Note_on_c, 9, 38, 0
11, 63688, Note_on_c, 9, 69, 0
11, 63727, Note_on_c, 9, 42, 56
11, 63732, Note_on_c, 9, 69, 44
11, 63736, Note_on_c, 9, 42, 0
11, 63753, Note_on_c, 9, 69, 0
11, 63787, Note_on_c, 9, 46, 40
11, 63792, Note_on_c, 9, 69, 28
11, 63796, Note_on_c, 9, 46, 0
11, 63801, Note_on_c, 9, 69, 0
11, 63852, Note_on_c, 9, 42, 56
11, 63852, Note_on_c, 9, 36, 56
11, 63852, Note_on_c, 9, 69, 44
11, 63853, Note_on_c, 9, 42, 0
11, 63861, Note_on_c, 9, 36, 0
11, 63871, Note_on_c, 9, 69, 0
11, 63907, Note_on_c, 9, 42, 40
11, 63912, Note_on_c, 9, 42, 0
11, 63912, Note_on_c, 9, 36, 56
11, 63912, Note_on_c, 9, 69, 28
11, 63916, Note_on_c, 9, 36, 0
11, 63924, Note_on_c, 9, 69, 0
11, 63967, Note_on_c, 9, 42, 56
11, 63972, Note_on_c, 9, 42, 0
11, 63972, Note_on_c, 9, 38, 72
11, 63972, Note_on_c, 9, 69, 44
11, 63976, Note_on_c, 9, 38, 0
11, 63991, Note_on_c, 9, 69, 0
11, 64027, Note_on_c, 9, 42, 40
11, 64032, Note_on_c, 9, 69, 28
11, 64036, Note_on_c, 9, 42, 0
11, 64039, Note_on_c, 9, 69, 0
11, 64087, Note_on_c, 9, 36, 56
11, 64087, Note_on_c, 9, 42, 56
11, 64087, Note_on_c, 9, 69, 44
11, 64094, Note_on_c, 9, 42, 0
11, 64104, Note_on_c, 9, 69, 0
11, 64104, Note_on_c, 9, 36, 0
11, 64147, Note_on_c, 9, 38, 72
11, 64147, Note_on_c, 9, 42, 40
11, 64147, Note_on_c, 9, 69, 28
11, 64156, Note_on_c, 9, 42, 0
11, 64161, Note_on_c, 9, 38, 0
11, 64164, Note_on_c, 9, 69, 0
11, 64207, Note_on_c, 9, 42, 56
11, 64212, Note_on_c, 9, 69, 44
11, 64216, Note_on_c, 9, 42, 0
11, 64224, Note_on_c, 9, 69, 0
11, 64267, Note_on_c, 9, 46, 40
11, 64272, Note_on_c, 9, 69, 28
11, 64276, Note_on_c, 9, 46, 0
11, 64284, Note_on_c, 9, 69, 0
11, 64324, Control_c, 9, 64, 0
11, 64324, End_track
12, 0, Start_track
12, 0, MIDI_port, 0
12, 0, Title_t, "Guitar"
12, 14, Program_c, 10, 25
12, 129, Note_on_c, 10, 61, 88
12, 129, Note_on_c, 10, 65, 91
12, 134, Note_on_c, 10, 70, 94
12, 148, Note_on_c, 10, 61, 0
12, 153, Note_on_c, 10, 70, 0
12, 153, Note_on_c, 10, 65, 0
12, 309, Note_on_c, 10, 61, 83
12, 309, Note_on_c, 10, 65, 91
12, 314, Note_on_c, 10, 70, 94
12, 482, Note_on_c, 10, 61, 0
12, 484, Note_on_c, 10, 70, 0
12, 489, Note_on_c, 10, 65, 0
12, 609, Note_on_c, 10, 60, 88
12, 614, Note_on_c, 10, 63, 115
12, 614, Note_on_c, 10, 68, 88
12, 624, Note_on_c, 10, 60, 0
12, 631, Note_on_c, 10, 68, 0
12, 636, Note_on_c, 10, 63, 0
12, 789, Note_on_c, 10, 60, 91
12, 789, Note_on_c, 10, 63, 106
12, 794, Note_on_c, 10, 68, 88
12, 964, Note_on_c, 10, 68, 0
12, 964, Note_on_c, 10, 60, 0
12, 974, Note_on_c, 10, 63, 0
12, 1089, Note_on_c, 10, 58, 94
12, 1094, Note_on_c, 10, 63, 100
12, 1094, Note_on_c, 10, 66, 100
12, 1116, Note_on_c, 10, 58, 0
12, 1120, Note_on_c, 10, 66, 0
12, 1120, Note_on_c, 10, 63, 0
12, 1269, Note_on_c, 10, 58, 100
12, 1274, Note_on_c, 10, 63, 100
12, 1274, Note_on_c, 10, 66, 115
12, 1449, Note_on_c, 10, 58, 0
12, 1454, Note_on_c, 10, 66, 0
12, 1454, Note_on_c, 10, 63, 0
12, 1569, Note_on_c, 10, 61, 88
12, 1574, Note_on_c, 10, 65, 91
12, 1574, Note_on_c, 10, 70, 94
12, 1588, Note_on_c, 10, 61, 0
12, 1593, Note_on_c, 10, 70, 0
12, 1593, Note_on_c, 10, 65, 0
12, 1749, Note_on_c, 10, 61, 83
12, 1749, Note_on_c, 10, 65, 91
12, 1754, Note_on_c, 10, 70, 94
12, 1920, Note_on_c, 10, 61, 0
12, 1924, Note_on_c, 10, 70, 0
12, 1929, Note_on_c, 10, 65, 0
12, 2049, Note_on_c, 10, 60, 88
12, 2054, Note_on_c, 10, 63, 115
12, 2054, Note_on_c, 10, 68, 88
12, 2064, Note_on_c, 10, 60, 0
12, 2073, Note_on_c, 10, 68, 0
12, 2076, Note_on_c, 10, 63, 0
12, 2229, Note_on_c, 10, 60, 91
12, 2229, Note_on_c, 10, 63, 106
12, 2234, Note_on_c, 10, 68, 88
12, 2404, Note_on_c, 10, 68, 0
12, 2404, Note_on_c, 10, 60, 0
12, 2414, Note_on_c, 10, 63, 0
12, 2529, Note_on_c, 10, 58, 94
12, 2529, Note_on_c, 10, 63, 100
12, 2534, Note_on_c, 10, 66, 100
12, 2556, Note_on_c, 10, 58, 0
12, 2560, Note_on_c, 10, 66, 0
12, 2560, Note_on_c, 10, 63, 0
12, 2709, Note_on_c, 10, 58, 100
12, 2714, Note_on_c, 10, 63, 100
12, 2714, Note_on_c, 10, 66, 115
12, 2889, Note_on_c, 10, 58, 0
12, 2894, Note_on_c, 10, 66, 0
12, 2894, Note_on_c, 10, 63, 0
12, 3009, Note_on_c, 10, 61, 88
12, 3009, Note_on_c, 10, 65, 91
12, 3014, Note_on_c, 10, 70, 94
12, 3028, Note_on_c, 10, 61, 0
12, 3033, Note_on_c, 10, 70, 0
12, 3033, Note_on_c, 10, 65, 0
12, 3189, Note_on_c, 10, 61, 83
12, 3194, Note_on_c, 10, 65, 91
12, 3194, Note_on_c, 10, 70, 94
12, 3360, Note_on_c, 10, 61, 0
12, 3364, Note_on_c, 10, 70, 0
12, 3367, Note_on_c, 10, 65, 0
12, 3489, Note_on_c, 10, 60, 88
12, 3494, Note_on_c, 10, 63, 115
12, 3494, Note_on_c, 10, 68, 88
12, 3504, Note_on_c, 10, 60, 0
12, 3511, Note_on_c, 10, 68, 0
12, 3516, Note_on_c, 10, 63, 0
12, 3669, Note_on_c, 10, 60, 91
12, 3674, Note_on_c, 10, 63, 106
12, 3674, Note_on_c, 10, 68, 88
12, 3844, Note_on_c, 10, 68, 0
12, 3844, Note_on_c, 10, 60, 0
12, 3854, Note_on_c, 10, 63, 0
12, 3969, Note_on_c, 10, 58, 94
12, 3974, Note_on_c, 10, 63, 100
12, 3974, Note_on_c, 10, 66, 100
12, 3996, Note_on_c, 10, 58, 0
12, 4000, Note_on_c, 10, 66, 0
12, 4000, Note_on_c, 10, 63, 0
12, 4149, Note_on_c, 10, 58, 100
12, 4154, Note_on_c, 10, 63, 100
12, 4154, Note_on_c, 10, 66, 115
12, 4329, Note_on_c, 10, 58, 0
12, 4334, Note_on_c, 10, 66, 0
12, 4334, Note_on_c, 10, 63, 0
12, 4449, Note_on_c, 10, 61, 88
12, 4454, Note_on_c, 10, 65, 91
12, 4454, Note_on_c, 10, 70, 94
12, 4468, Note_on_c, 10, 61, 0
12, 4473, Note_on_c, 10, 70, 0
12, 4473, Note_on_c, 10, 65, 0
12, 4629, Note_on_c, 10, 61, 83
12, 4634, Note_on_c, 10, 65, 91
12, 4634, Note_on_c, 10, 70, 94
12, 4802, Note_on_c, 10, 61, 0
12, 4804, Note_on_c, 10, 70, 0
12, 4807, Note_on_c, 10, 65, 0
12, 4929, Note_on_c, 10, 60, 88
12, 4934, Note_on_c, 10, 63, 115
12, 4934, Note_on_c, 10, 68, 88
12, 4944, Note_on_c, 10, 60, 0
12, 4951, Note_on_c, 10, 68, 0
12, 4956, Note_on_c, 10, 63, 0
12, 5109, Note_on_c, 10, 60, 91
12, 5114, Note_on_c, 10, 63, 106
12, 5114, Note_on_c, 10, 68, 88
12, 5284, Note_on_c, 10, 68, 0
12, 5284, Note_on_c, 10, 60, 0
12, 5294, Note_on_c, 10, 63, 0
12, 5409, Note_on_c, 10, 58, 94
12, 5414, Note_on_c, 10, 63, 100
12, 5414, Note_on_c, 10, 66, 100
12, 5436, Note_on_c, 10, 58, 0
12, 5440, Note_on_c, 10, 66, 0
12, 5440, Note_on_c, 10, 63, 0
12, 5589, Note_on_c, 10, 58, 100
12, 5594, Note_on_c, 10, 63, 100
12, 5594, Note_on_c, 10, 66, 115
12, 5769, Note_on_c, 10, 58, 0
12, 5774, Note_on_c, 10, 66, 0
12, 5774, Note_on_c, 10, 63, 0
12, 5889, Note_on_c, 10, 61, 88
12, 5894, Note_on_c, 10, 65, 91
12, 5894, Note_on_c, 10, 70, 94
12, 5908, Note_on_c, 10, 61, 0
12, 5913, Note_on_c, 10, 70, 0
12, 5913, Note_on_c, 10, 65, 0
12, 6069, Note_on_c, 10, 61, 83
12, 6074, Note_on_c, 10, 65, 91
12, 6074, Note_on_c, 10, 70, 94
12, 6240, Note_on_c, 10, 61, 0
12, 6242, Note_on_c, 10, 70, 0
12, 6247, Note_on_c, 10, 65, 0
12, 6369, Note_on_c, 10, 60, 88
12, 6374, Note_on_c, 10, 63, 115
12, 6374, Note_on_c, 10, 68, 88
12, 6384, Note_on_c, 10, 60, 0
12, 6391, Note_on_c, 10, 68, 0
12, 6396, Note_on_c, 10, 63, 0
12, 6549, Note_on_c, 10, 60, 91
12, 6554, Note_on_c, 10, 63, 106
12, 6554, Note_on_c, 10, 68, 88
12, 6727, Note_on_c, 10, 68, 0
12, 6727, Note_on_c, 10, 60, 0
12, 6736, Note_on_c, 10, 63, 0
12, 6849, Note_on_c, 10, 58, 94
12, 6854, Note_on_c, 10, 63, 100
12, 6854, Note_on_c, 10, 66, 100
12, 6876, Note_on_c, 10, 58, 0
12, 6880, Note_on_c, 10, 66, 0
12, 6880, Note_on_c, 10, 63, 0
12, 7029, Note_on_c, 10, 58, 100
12, 7034, Note_on_c, 10, 63, 100
12, 7034, Note_on_c, 10, 66, 115
12, 7209, Note_on_c, 10, 58, 0
12, 7214, Note_on_c, 10, 66, 0
12, 7214, Note_on_c, 10, 63, 0
12, 7329, Note_on_c, 10, 61, 88
12, 7334, Note_on_c, 10, 65, 91
12, 7334, Note_on_c, 10, 70, 94
12, 7348, Note_on_c, 10, 61, 0
12, 7353, Note_on_c, 10, 70, 0
12, 7353, Note_on_c, 10, 65, 0
12, 7509, Note_on_c, 10, 61, 83
12, 7514, Note_on_c, 10, 65, 91
12, 7514, Note_on_c, 10, 70, 94
12, 7680, Note_on_c, 10, 61, 0
12, 7682, Note_on_c, 10, 70, 0
12, 7689, Note_on_c, 10, 65, 0
12, 7809, Note_on_c, 10, 60, 88
12, 7814, Note_on_c, 10, 63, 106
12, 7814, Note_on_c, 10, 68, 100
12, 7828, Note_on_c, 10, 60, 0
12, 7833, Note_on_c, 10, 63, 0
12, 7840, Note_on_c, 10, 68, 0
12, 7989, Note_on_c, 10, 60, 85
12, 7994, Note_on_c, 10, 63, 100
12, 7994, Note_on_c, 10, 68, 94
12, 8193, Note_on_c, 10, 63, 0
12, 8193, Note_on_c, 10, 60, 0
12, 8198, Note_on_c, 10, 68, 0
12, 8289, Note_on_c, 10, 60, 91
12, 8294, Note_on_c, 10, 63, 114
12, 8294, Note_on_c, 10, 68, 88
12, 8311, Note_on_c, 10, 60, 0
12, 8313, Note_on_c, 10, 63, 0
12, 8318, Note_on_c, 10, 68, 0
12, 8469, Note_on_c, 10, 60, 88
12, 8474, Note_on_c, 10, 63, 100
12, 8474, Note_on_c, 10, 68, 100
12, 8668, Note_on_c, 10, 63, 0
12, 8668, Note_on_c, 10, 60, 0
12, 8676, Note_on_c, 10, 68, 0
12, 8769, Note_on_c, 10, 63, 83
12, 8774, Note_on_c, 10, 68, 94
12, 8774, Note_on_c, 10, 72, 83
12, 8791, Note_on_c, 10, 63, 0
12, 8800, Note_on_c, 10, 68, 0
12, 8803, Note_on_c, 10, 72, 0
12, 8949, Note_on_c, 10, 63, 78
12, 8954, Note_on_c, 10, 68, 94
12, 8954, Note_on_c, 10, 72, 74
12, 9175, Note_on_c, 10, 68, 0
12, 9175, Note_on_c, 10, 63, 0
12, 9182, Note_on_c, 10, 72, 0
12, 9249, Note_on_c, 10, 63, 94
12, 9254, Note_on_c, 10, 68, 100
12, 9254, Note_on_c, 10, 72, 80
12, 9268, Note_on_c, 10, 63, 0
12, 9273, Note_on_c, 10, 68, 0
12, 9278, Note_on_c, 10, 72, 0
12, 9429, Note_on_c, 10, 63, 88
12, 9434, Note_on_c, 10, 68, 100
12, 9434, Note_on_c, 10, 72, 76
12, 9628, Note_on_c, 10, 63, 0
12, 9633, Note_on_c, 10, 72, 0
12, 9633, Note_on_c, 10, 68, 0
12, 9729, Note_on_c, 10, 61, 83
12, 9734, Note_on_c, 10, 65, 91
12, 9734, Note_on_c, 10, 68, 88
12, 9768, Note_on_c, 10, 68, 0
12, 9768, Note_on_c, 10, 61, 0
12, 9775, Note_on_c, 10, 65, 0
12, 9909, Note_on_c, 10, 61, 83
12, 9914, Note_on_c, 10, 65, 91
12, 9914, Note_on_c, 10, 68, 100
12, 10099, Note_on_c, 10, 61, 0
12, 10101, Note_on_c, 10, 65, 0
12, 10106, Note_on_c, 10, 68, 0
12, 10209, Note_on_c, 10, 61, 94
12, 10214, Note_on_c, 10, 65, 97
12, 10214, Note_on_c, 10, 68, 106
12, 10243, Note_on_c, 10, 61, 0
12, 10248, Note_on_c, 10, 68, 0
12, 10250, Note_on_c, 10, 65, 0
12, 10389, Note_on_c, 10, 61, 88
12, 10394, Note_on_c, 10, 65, 97
12, 10394, Note_on_c, 10, 68, 100
12, 10596, Note_on_c, 10, 61, 0
12, 10600, Note_on_c, 10, 65, 0
12, 10603, Note_on_c, 10, 68, 0
12, 10689, Note_on_c, 10, 63, 100
12, 10694, Note_on_c, 10, 67, 91
12, 10694, Note_on_c, 10, 70, 106
12, 10718, Note_on_c, 10, 63, 0
12, 10723, Note_on_c, 10, 70, 0
12, 10728, Note_on_c, 10, 67, 0
12, 10869, Note_on_c, 10, 63, 94
12, 10874, Note_on_c, 10, 67, 91
12, 10874, Note_on_c, 10, 70, 74
12, 11090, Note_on_c, 10, 67, 0
12, 11104, Note_on_c, 10, 63, 0
12, 11114, Note_on_c, 10, 70, 0
12, 11169, Note_on_c, 10, 63, 106
12, 11174, Note_on_c, 10, 67, 97
12, 11174, Note_on_c, 10, 70, 114
12, 11196, Note_on_c, 10, 63, 0
12, 11203, Note_on_c, 10, 70, 0
12, 11205, Note_on_c, 10, 67, 0
12, 11349, Note_on_c, 10, 63, 94
12, 11354, Note_on_c, 10, 67, 91
12, 11354, Note_on_c, 10, 70, 114
12, 11484, Note_on_c, 10, 63, 0
12, 11493, Note_on_c, 10, 70, 0
12, 11498, Note_on_c, 10, 67, 0
12, 11529, Note_on_c, 10, 61, 94
12, 11534, Note_on_c, 10, 66, 100
12, 11534, Note_on_c, 10, 70, 106
12, 11971, Note_on_c, 10, 61, 0
12, 11980, Note_on_c, 10, 66, 0
12, 11983, Note_on_c, 10, 70, 0
12, 12009, Note_on_c, 10, 61, 78
12, 12014, Note_on_c, 10, 66, 100
12, 12014, Note_on_c, 10, 70, 115
12, 12405, Note_on_c, 10, 66, 0
12, 12412, Note_on_c, 10, 70, 0
12, 12422, Note_on_c, 10, 61, 0
12, 12489, Note_on_c, 10, 61, 94
12, 12494, Note_on_c, 10, 65, 91
12, 12494, Note_on_c, 10, 68, 106
12, 12861, Note_on_c, 10, 61, 0
12, 12871, Note_on_c, 10, 65, 0
12, 12876, Note_on_c, 10, 68, 0
12, 12969, Note_on_c, 10, 63, 94
12, 12974, Note_on_c, 10, 68, 100
12, 12974, Note_on_c, 10, 72, 80
12, 13394, Note_on_c, 10, 72, 0
12, 13401, Note_on_c, 10, 63, 0
12, 13406, Note_on_c, 10, 68, 0
12, 13449, Note_on_c, 10, 61, 88
12, 13454, Note_on_c, 10, 66, 94
12, 13454, Note_on_c, 10, 70, 88
12, 13908, Note_on_c, 10, 61, 0
12, 13915, Note_on_c, 10, 70, 0
12, 13915, Note_on_c, 10, 66, 0
12, 13929, Note_on_c, 10, 61, 78
12, 13934, Note_on_c, 10, 66, 94
12, 13934, Note_on_c, 10, 70, 94
12, 14354, Note_on_c, 10, 70, 0
12, 14361, Note_on_c, 10, 61, 0
12, 14364, Note_on_c, 10, 66, 0
12, 14409, Note_on_c, 10, 63, 83
12, 14414, Note_on_c, 10, 68, 74
12, 14414, Note_on_c, 10, 72, 80
12, 14846, Note_on_c, 10, 63, 0
12, 14863, Note_on_c, 10, 72, 0
12, 14863, Note_on_c, 10, 68, 0
12, 14889, Note_on_c, 10, 65, 88
12, 14894, Note_on_c, 10, 69, 78
12, 14894, Note_on_c, 10, 72, 76
12, 15333, Note_on_c, 10, 72, 0
12, 15333, Note_on_c, 10, 65, 0
12, 15338, Note_on_c, 10, 69, 0
12, 24129, Note_on_c, 10, 61, 88
12, 24129, Note_on_c, 10, 65, 91
12, 24129, Note_on_c, 10, 70, 94
12, 24148, Note_on_c, 10, 61, 0
12, 24153, Note_on_c, 10, 70, 0
12, 24153, Note_on_c, 10, 65, 0
12, 24312, Note_on_c, 10, 61, 83
12, 24312, Note_on_c, 10, 65, 91
12, 24316, Note_on_c, 10, 70, 94
12, 24480, Note_on_c, 10, 61, 0
12, 24482, Note_on_c, 10, 70, 0
12, 24489, Note_on_c, 10, 65, 0
12, 24612, Note_on_c, 10, 60, 88
12, 24612, Note_on_c, 10, 63, 115
12, 24616, Note_on_c, 10, 68, 88
12, 24621, Note_on_c, 10, 60, 0
12, 24631, Note_on_c, 10, 68, 0
12, 24636, Note_on_c, 10, 63, 0
12, 24792, Note_on_c, 10, 60, 91
12, 24792, Note_on_c, 10, 63, 106
12, 24796, Note_on_c, 10, 68, 88
12, 24964, Note_on_c, 10, 68, 0
12, 24964, Note_on_c, 10, 60, 0
12, 24974, Note_on_c, 10, 63, 0
12, 25092, Note_on_c, 10, 58, 94
12, 25092, Note_on_c, 10, 63, 100
12, 25096, Note_on_c, 10, 66, 100
12, 25113, Note_on_c, 10, 58, 0
12, 25118, Note_on_c, 10, 63, 0
12, 25123, Note_on_c, 10, 66, 0
12, 25272, Note_on_c, 10, 58, 100
12, 25272, Note_on_c, 10, 63, 100
12, 25276, Note_on_c, 10, 66, 115
12, 25447, Note_on_c, 10, 58, 0
12, 25454, Note_on_c, 10, 66, 0
12, 25454, Note_on_c, 10, 63, 0
12, 25572, Note_on_c, 10, 61, 88
12, 25572, Note_on_c, 10, 65, 91
12, 25576, Note_on_c, 10, 70, 94
12, 25588, Note_on_c, 10, 61, 0
12, 25593, Note_on_c, 10, 70, 0
12, 25593, Note_on_c, 10, 65, 0
12, 25752, Note_on_c, 10, 61, 83
12, 25752, Note_on_c, 10, 65, 91
12, 25756, Note_on_c, 10, 70, 94
12, 25920, Note_on_c, 10, 61, 0
12, 25922, Note_on_c, 10, 70, 0
12, 25929, Note_on_c, 10, 65, 0
12, 26052, Note_on_c, 10, 60, 88
12, 26052, Note_on_c, 10, 63, 115
12, 26056, Note_on_c, 10, 68, 88
12, 26061, Note_on_c, 10, 60, 0
12, 26071, Note_on_c, 10, 68, 0
12, 26076, Note_on_c, 10, 63, 0
12, 26232, Note_on_c, 10, 60, 91
12, 26232, Note_on_c, 10, 63, 106
12, 26236, Note_on_c, 10, 68, 88
12, 26404, Note_on_c, 10, 68, 0
12, 26404, Note_on_c, 10, 60, 0
12, 26414, Note_on_c, 10, 63, 0
12, 26532, Note_on_c, 10, 58, 94
12, 26532, Note_on_c, 10, 63, 100
12, 26536, Note_on_c, 10, 66, 100
12, 26556, Note_on_c, 10, 58, 0
12, 26558, Note_on_c, 10, 63, 0
12, 26563, Note_on_c, 10, 66, 0
12, 26712, Note_on_c, 10, 58, 100
12, 26712, Note_on_c, 10, 63, 100
12, 26716, Note_on_c, 10, 66, 115
12, 26887, Note_on_c, 10, 58, 0
12, 26889, Note_on_c, 10, 63, 0
12, 26894, Note_on_c, 10, 66, 0
12, 27012, Note_on_c, 10, 61, 88
12, 27012, Note_on_c, 10, 65, 91
12, 27016, Note_on_c, 10, 70, 94
12, 27028, Note_on_c, 10, 61, 0
12, 27033, Note_on_c, 10, 70, 0
12, 27033, Note_on_c, 10, 65, 0
12, 27192, Note_on_c, 10, 61, 83
12, 27192, Note_on_c, 10, 65, 91
12, 27196, Note_on_c, 10, 70, 94
12, 27360, Note_on_c, 10, 61, 0
12, 27362, Note_on_c, 10, 70, 0
12, 27369, Note_on_c, 10, 65, 0
12, 27492, Note_on_c, 10, 60, 88
12, 27492, Note_on_c, 10, 63, 115
12, 27496, Note_on_c, 10, 68, 88
12, 27501, Note_on_c, 10, 60, 0
12, 27511, Note_on_c, 10, 68, 0
12, 27516, Note_on_c, 10, 63, 0
12, 27672, Note_on_c, 10, 60, 91
12, 27672, Note_on_c, 10, 63, 106
12, 27676, Note_on_c, 10, 68, 88
12, 27844, Note_on_c, 10, 68, 0
12, 27844, Note_on_c, 10, 60, 0
12, 27854, Note_on_c, 10, 63, 0
12, 27972, Note_on_c, 10, 58, 94
12, 27972, Note_on_c, 10, 63, 100
12, 27976, Note_on_c, 10, 66, 100
12, 27993, Note_on_c, 10, 58, 0
12, 27998, Note_on_c, 10, 63, 0
12, 28003, Note_on_c, 10, 66, 0
12, 28152, Note_on_c, 10, 58, 100
12, 28152, Note_on_c, 10, 63, 100
12, 28156, Note_on_c, 10, 66, 115
12, 28327, Note_on_c, 10, 58, 0
12, 28329, Note_on_c, 10, 63, 0
12, 28334, Note_on_c, 10, 66, 0
12, 28452, Note_on_c, 10, 61, 88
12, 28452, Note_on_c, 10, 65, 91
12, 28456, Note_on_c, 10, 70, 94
12, 28468, Note_on_c, 10, 61, 0
12, 28473, Note_on_c, 10, 70, 0
12, 28473, Note_on_c, 10, 65, 0
12, 28632, Note_on_c, 10, 61, 83
12, 28632, Note_on_c, 10, 65, 91
12, 28636, Note_on_c, 10, 70, 94
12, 28800, Note_on_c, 10, 61, 0
12, 28802, Note_on_c, 10, 70, 0
12, 28809, Note_on_c, 10, 65, 0
12, 28932, Note_on_c, 10, 60, 88
12, 28932, Note_on_c, 10, 63, 115
12, 28936, Note_on_c, 10, 68, 88
12, 28944, Note_on_c, 10, 60, 0
12, 28951, Note_on_c, 10, 68, 0
12, 28956, Note_on_c, 10, 63, 0
12, 29112, Note_on_c, 10, 60, 91
12, 29112, Note_on_c, 10, 63, 106
12, 29116, Note_on_c, 10, 68, 88
12, 29284, Note_on_c, 10, 68, 0
12, 29284, Note_on_c, 10, 60, 0
12, 29294, Note_on_c, 10, 63, 0
12, 29412, Note_on_c, 10, 58, 94
12, 29412, Note_on_c, 10, 63, 100
12, 29416, Note_on_c, 10, 66, 100
12, 29433, Note_on_c, 10, 58, 0
12, 29438, Note_on_c, 10, 63, 0
12, 29443, Note_on_c, 10, 66, 0
12, 29592, Note_on_c, 10, 58, 100
12, 29592, Note_on_c, 10, 63, 100
12, 29596, Note_on_c, 10, 66, 115
12, 29767, Note_on_c, 10, 58, 0
12, 29769, Note_on_c, 10, 63, 0
12, 29774, Note_on_c, 10, 66, 0
12, 29892, Note_on_c, 10, 61, 88
12, 29892, Note_on_c, 10, 65, 91
12, 29896, Note_on_c, 10, 70, 94
12, 29908, Note_on_c, 10, 61, 0
12, 29913, Note_on_c, 10, 70, 0
12, 29913, Note_on_c, 10, 65, 0
12, 30072, Note_on_c, 10, 61, 83
12, 30072, Note_on_c, 10, 65, 91
12, 30076, Note_on_c, 10, 70, 94
12, 30240, Note_on_c, 10, 61, 0
12, 30242, Note_on_c, 10, 70, 0
12, 30249, Note_on_c, 10, 65, 0
12, 30369, Note_on_c, 10, 60, 88
12, 30369, Note_on_c, 10, 63, 115
12, 30374, Note_on_c, 10, 68, 88
12, 30384, Note_on_c, 10, 60, 0
12, 30391, Note_on_c, 10, 68, 0
12, 30396, Note_on_c, 10, 63, 0
12, 30552, Note_on_c, 10, 60, 91
12, 30552, Note_on_c, 10, 63, 106
12, 30552, Note_on_c, 10, 68, 88
12, 30724, Note_on_c, 10, 68, 0
12, 30724, Note_on_c, 10, 60, 0
12, 30734, Note_on_c, 10, 63, 0
12, 30852, Note_on_c, 10, 58, 94
12, 30852, Note_on_c, 10, 63, 100
12, 30852, Note_on_c, 10, 66, 100
12, 30873, Note_on_c, 10, 58, 0
12, 30878, Note_on_c, 10, 63, 0
12, 30883, Note_on_c, 10, 66, 0
12, 31032, Note_on_c, 10, 58, 100
12, 31032, Note_on_c, 10, 63, 100
12, 31036, Note_on_c, 10, 66, 115
12, 31207, Note_on_c, 10, 58, 0
12, 31209, Note_on_c, 10, 63, 0
12, 31214, Note_on_c, 10, 66, 0
12, 31332, Note_on_c, 10, 61, 88
12, 31332, Note_on_c, 10, 65, 91
12, 31336, Note_on_c, 10, 70, 94
12, 31348, Note_on_c, 10, 61, 0
12, 31353, Note_on_c, 10, 70, 0
12, 31353, Note_on_c, 10, 65, 0
12, 31512, Note_on_c, 10, 61, 83
12, 31512, Note_on_c, 10, 65, 91
12, 31512, Note_on_c, 10, 70, 94
12, 31680, Note_on_c, 10, 61, 0
12, 31684, Note_on_c, 10, 70, 0
12, 31689, Note_on_c, 10, 65, 0
12, 31809, Note_on_c, 10, 60, 88
12, 31809, Note_on_c, 10, 63, 106
12, 31809, Note_on_c, 10, 68, 100
12, 31831, Note_on_c, 10, 63, 0
12, 31831, Note_on_c, 10, 60, 0
12, 31843, Note_on_c, 10, 68, 0
12, 31989, Note_on_c, 10, 60, 85
12, 31989, Note_on_c, 10, 63, 100
12, 31994, Note_on_c, 10, 68, 94
12, 32193, Note_on_c, 10, 63, 0
12, 32193, Note_on_c, 10, 60, 0
12, 32198, Note_on_c, 10, 68, 0
12, 32289, Note_on_c, 10, 60, 91
12, 32289, Note_on_c, 10, 63, 114
12, 32289, Note_on_c, 10, 68, 88
12, 32311, Note_on_c, 10, 60, 0
12, 32313, Note_on_c, 10, 63, 0
12, 32316, Note_on_c, 10, 68, 0
12, 32469, Note_on_c, 10, 60, 88
12, 32469, Note_on_c, 10, 63, 100
12, 32474, Note_on_c, 10, 68, 100
12, 32668, Note_on_c, 10, 63, 0
12, 32668, Note_on_c, 10, 60, 0
12, 32676, Note_on_c, 10, 68, 0
12, 32769, Note_on_c, 10, 63, 83
12, 32769, Note_on_c, 10, 68, 94
12, 32769, Note_on_c, 10, 72, 83
12, 32791, Note_on_c, 10, 63, 0
12, 32798, Note_on_c, 10, 68, 0
12, 32803, Note_on_c, 10, 72, 0
12, 32949, Note_on_c, 10, 63, 78
12, 32949, Note_on_c, 10, 68, 94
12, 32954, Note_on_c, 10, 72, 74
12, 33175, Note_on_c, 10, 68, 0
12, 33175, Note_on_c, 10, 63, 0
12, 33182, Note_on_c, 10, 72, 0
12, 33249, Note_on_c, 10, 63, 94
12, 33249, Note_on_c, 10, 68, 100
12, 33254, Note_on_c, 10, 72, 80
12, 33268, Note_on_c, 10, 63, 0
12, 33273, Note_on_c, 10, 68, 0
12, 33276, Note_on_c, 10, 72, 0
12, 33429, Note_on_c, 10, 63, 88
12, 33429, Note_on_c, 10, 68, 100
12, 33434, Note_on_c, 10, 72, 76
12, 33628, Note_on_c, 10, 63, 0
12, 33633, Note_on_c, 10, 72, 0
12, 33633, Note_on_c, 10, 68, 0
12, 33729, Note_on_c, 10, 61, 83
12, 33729, Note_on_c, 10, 65, 91
12, 33729, Note_on_c, 10, 68, 88
12, 33768, Note_on_c, 10, 61, 0
12, 33770, Note_on_c, 10, 68, 0
12, 33775, Note_on_c, 10, 65, 0
12, 33909, Note_on_c, 10, 61, 83
12, 33909, Note_on_c, 10, 65, 91
12, 33914, Note_on_c, 10, 68, 100
12, 34096, Note_on_c, 10, 61, 0
12, 34101, Note_on_c, 10, 65, 0
12, 34106, Note_on_c, 10, 68, 0
12, 34209, Note_on_c, 10, 61, 94
12, 34209, Note_on_c, 10, 65, 97
12, 34209, Note_on_c, 10, 68, 106
12, 34243, Note_on_c, 10, 61, 0
12, 34248, Note_on_c, 10, 68, 0
12, 34250, Note_on_c, 10, 65, 0
12, 34389, Note_on_c, 10, 61, 88
12, 34389, Note_on_c, 10, 65, 97
12, 34389, Note_on_c, 10, 68, 100
12, 34596, Note_on_c, 10, 61, 0
12, 34598, Note_on_c, 10, 65, 0
12, 34600, Note_on_c, 10, 68, 0
12, 34689, Note_on_c, 10, 63, 100
12, 34689, Note_on_c, 10, 67, 91
12, 34694, Note_on_c, 10, 70, 106
12, 34716, Note_on_c, 10, 63, 0
12, 34720, Note_on_c, 10, 70, 0
12, 34725, Note_on_c, 10, 67, 0
12, 34869, Note_on_c, 10, 63, 94
12, 34869, Note_on_c, 10, 67, 91
12, 34874, Note_on_c, 10, 70, 74
12, 35090, Note_on_c, 10, 67, 0
12, 35104, Note_on_c, 10, 63, 0
12, 35112, Note_on_c, 10, 70, 0
12, 35169, Note_on_c, 10, 63, 106
12, 35169, Note_on_c, 10, 67, 97
12, 35169, Note_on_c, 10, 70, 114
12, 35193, Note_on_c, 10, 63, 0
12, 35200, Note_on_c, 10, 70, 0
12, 35205, Note_on_c, 10, 67, 0
12, 35349, Note_on_c, 10, 63, 94
12, 35349, Note_on_c, 10, 67, 91
12, 35354, Note_on_c, 10, 70, 114
12, 35484, Note_on_c, 10, 63, 0
12, 35493, Note_on_c, 10, 70, 0
12, 35496, Note_on_c, 10, 67, 0
12, 35532, Note_on_c, 10, 61, 94
12, 35532, Note_on_c, 10, 66, 100
12, 35532, Note_on_c, 10, 70, 106
12, 35971, Note_on_c, 10, 61, 0
12, 35983, Note_on_c, 10, 70, 0
12, 35983, Note_on_c, 10, 66, 0
12, 36009, Note_on_c, 10, 61, 78
12, 36009, Note_on_c, 10, 66, 100
12, 36014, Note_on_c, 10, 70, 115
12, 36403, Note_on_c, 10, 66, 0
12, 36412, Note_on_c, 10, 70, 0
12, 36420, Note_on_c, 10, 61, 0
12, 36489, Note_on_c, 10, 61, 94
12, 36489, Note_on_c, 10, 65, 91
12, 36489, Note_on_c, 10, 68, 106
12, 36861, Note_on_c, 10, 61, 0
12, 36871, Note_on_c, 10, 65, 0
12, 36876, Note_on_c, 10, 68, 0
12, 36972, Note_on_c, 10, 63, 94
12, 36972, Note_on_c, 10, 68, 100
12, 36972, Note_on_c, 10, 72, 80
12, 37394, Note_on_c, 10, 72, 0
12, 37399, Note_on_c, 10, 63, 0
12, 37404, Note_on_c, 10, 68, 0
12, 37449, Note_on_c, 10, 61, 88
12, 37449, Note_on_c, 10, 66, 94
12, 37454, Note_on_c, 10, 70, 88
12, 37908, Note_on_c, 10, 61, 0
12, 37915, Note_on_c, 10, 70, 0
12, 37915, Note_on_c, 10, 66, 0
12, 37929, Note_on_c, 10, 61, 78
12, 37929, Note_on_c, 10, 66, 94
12, 37934, Note_on_c, 10, 70, 94
12, 38352, Note_on_c, 10, 70, 0
12, 38361, Note_on_c, 10, 61, 0
12, 38364, Note_on_c, 10, 66, 0
12, 38409, Note_on_c, 10, 63, 83
12, 38409, Note_on_c, 10, 68, 74
12, 38409, Note_on_c, 10, 72, 80
12, 38848, Note_on_c, 10, 63, 0
12, 38860, Note_on_c, 10, 68, 0
12, 38863, Note_on_c, 10, 72, 0
12, 38889, Note_on_c, 10, 65, 88
12, 38889, Note_on_c, 10, 69, 78
12, 38894, Note_on_c, 10, 72, 76
12, 39333, Note_on_c, 10, 72, 0
12, 39333, Note_on_c, 10, 65, 0
12, 39338, Note_on_c, 10, 69, 0
12, 48127, Note_on_c, 10, 61, 88
12, 48132, Note_on_c, 10, 65, 91
12, 48132, Note_on_c, 10, 70, 94
12, 48148, Note_on_c, 10, 65, 0
12, 48148, Note_on_c, 10, 61, 0
12, 48153, Note_on_c, 10, 70, 0
12, 48307, Note_on_c, 10, 61, 83
12, 48312, Note_on_c, 10, 65, 91
12, 48312, Note_on_c, 10, 70, 94
12, 48480, Note_on_c, 10, 61, 0
12, 48482, Note_on_c, 10, 70, 0
12, 48492, Note_on_c, 10, 65, 0
12, 48612, Note_on_c, 10, 60, 88
12, 48612, Note_on_c, 10, 63, 115
12, 48616, Note_on_c, 10, 68, 88
12, 48624, Note_on_c, 10, 60, 0
12, 48628, Note_on_c, 10, 68, 0
12, 48636, Note_on_c, 10, 63, 0
12, 48787, Note_on_c, 10, 60, 91
12, 48792, Note_on_c, 10, 63, 106
12, 48792, Note_on_c, 10, 68, 88
12, 48964, Note_on_c, 10, 68, 0
12, 48964, Note_on_c, 10, 60, 0
12, 48974, Note_on_c, 10, 63, 0
12, 49087, Note_on_c, 10, 58, 94
12, 49092, Note_on_c, 10, 63, 100
12, 49092, Note_on_c, 10, 66, 100
12, 49113, Note_on_c, 10, 58, 0
12, 49118, Note_on_c, 10, 63, 0
12, 49123, Note_on_c, 10, 66, 0
12, 49272, Note_on_c, 10, 58, 100
12, 49272, Note_on_c, 10, 63, 100
12, 49272, Note_on_c, 10, 66, 115
12, 49449, Note_on_c, 10, 66, 0
12, 49449, Note_on_c, 10, 63, 0
12, 49449, Note_on_c, 10, 58, 0
12, 49572, Note_on_c, 10, 61, 88
12, 49572, Note_on_c, 10, 65, 91
12, 49572, Note_on_c, 10, 70, 94
12, 49588, Note_on_c, 10, 65, 0
12, 49588, Note_on_c, 10, 61, 0
12, 49593, Note_on_c, 10, 70, 0
12, 49747, Note_on_c, 10, 61, 83
12, 49752, Note_on_c, 10, 65, 91
12, 49752, Note_on_c, 10, 70, 94
12, 49922, Note_on_c, 10, 70, 0
12, 49922, Note_on_c, 10, 61, 0
12, 49932, Note_on_c, 10, 65, 0
12, 50047, Note_on_c, 10, 60, 88
12, 50052, Note_on_c, 10, 63, 115
12, 50052, Note_on_c, 10, 68, 88
12, 50064, Note_on_c, 10, 60, 0
12, 50068, Note_on_c, 10, 68, 0
12, 50076, Note_on_c, 10, 63, 0
12, 50227, Note_on_c, 10, 60, 91
12, 50232, Note_on_c, 10, 63, 106
12, 50232, Note_on_c, 10, 68, 88
12, 50404, Note_on_c, 10, 68, 0
12, 50404, Note_on_c, 10, 60, 0
12, 50416, Note_on_c, 10, 63, 0
12, 50532, Note_on_c, 10, 58, 94
12, 50532, Note_on_c, 10, 63, 100
12, 50532, Note_on_c, 10, 66, 100
12, 50553, Note_on_c, 10, 58, 0
12, 50558, Note_on_c, 10, 63, 0
12, 50563, Note_on_c, 10, 66, 0
12, 50712, Note_on_c, 10, 58, 100
12, 50712, Note_on_c, 10, 63, 100
12, 50712, Note_on_c, 10, 66, 115
12, 50889, Note_on_c, 10, 66, 0
12, 50889, Note_on_c, 10, 63, 0
12, 50889, Note_on_c, 10, 58, 0
12, 51012, Note_on_c, 10, 61, 88
12, 51012, Note_on_c, 10, 65, 91
12, 51012, Note_on_c, 10, 70, 94
12, 51028, Note_on_c, 10, 65, 0
12, 51028, Note_on_c, 10, 61, 0
12, 51033, Note_on_c, 10, 70, 0
12, 51187, Note_on_c, 10, 61, 83
12, 51192, Note_on_c, 10, 65, 91
12, 51192, Note_on_c, 10, 70, 94
12, 51362, Note_on_c, 10, 70, 0
12, 51362, Note_on_c, 10, 61, 0
12, 51372, Note_on_c, 10, 65, 0
12, 51492, Note_on_c, 10, 60, 88
12, 51492, Note_on_c, 10, 63, 115
12, 51492, Note_on_c, 10, 68, 88
12, 51504, Note_on_c, 10, 60, 0
12, 51508, Note_on_c, 10, 68, 0
12, 51516, Note_on_c, 10, 63, 0
12, 51667, Note_on_c, 10, 60, 91
12, 51672, Note_on_c, 10, 63, 106
12, 51672, Note_on_c, 10, 68, 88
12, 51844, Note_on_c, 10, 68, 0
12, 51844, Note_on_c, 10, 60, 0
12, 51856, Note_on_c, 10, 63, 0
12, 51972, Note_on_c, 10, 58, 94
12, 51972, Note_on_c, 10, 63, 100
12, 51972, Note_on_c, 10, 66, 100
12, 51993, Note_on_c, 10, 58, 0
12, 51998, Note_on_c, 10, 63, 0
12, 52003, Note_on_c, 10, 66, 0
12, 52152, Note_on_c, 10, 58, 100
12, 52152, Note_on_c, 10, 63, 100
12, 52152, Note_on_c, 10, 66, 115
12, 52329, Note_on_c, 10, 66, 0
12, 52329, Note_on_c, 10, 63, 0
12, 52329, Note_on_c, 10, 58, 0
12, 52452, Note_on_c, 10, 61, 88
12, 52452, Note_on_c, 10, 65, 91
12, 52452, Note_on_c, 10, 70, 94
12, 52468, Note_on_c, 10, 61, 0
12, 52473, Note_on_c, 10, 70, 0
12, 52473, Note_on_c, 10, 65, 0
12, 52627, Note_on_c, 10, 61, 83
12, 52632, Note_on_c, 10, 65, 91
12, 52632, Note_on_c, 10, 70, 94
12, 52800, Note_on_c, 10, 61, 0
12, 52804, Note_on_c, 10, 70, 0
12, 52809, Note_on_c, 10, 65, 0
12, 52932, Note_on_c, 10, 60, 88
12, 52932, Note_on_c, 10, 63, 115
12, 52932, Note_on_c, 10, 68, 88
12, 52944, Note_on_c, 10, 60, 0
12, 52948, Note_on_c, 10, 68, 0
12, 52956, Note_on_c, 10, 63, 0
12, 53107, Note_on_c, 10, 60, 91
12, 53112, Note_on_c, 10, 63, 106
12, 53112, Note_on_c, 10, 68, 88
12, 53284, Note_on_c, 10, 68, 0
12, 53284, Note_on_c, 10, 60, 0
12, 53289, Note_on_c, 10, 63, 0
12, 53412, Note_on_c, 10, 58, 94
12, 53412, Note_on_c, 10, 63, 100
12, 53412, Note_on_c, 10, 66, 100
12, 53436, Note_on_c, 10, 58, 0
12, 53438, Note_on_c, 10, 63, 0
12, 53443, Note_on_c, 10, 66, 0
12, 53592, Note_on_c, 10, 58, 100
12, 53592, Note_on_c, 10, 63, 100
12, 53592, Note_on_c, 10, 66, 115
12, 53769, Note_on_c, 10, 66, 0
12, 53769, Note_on_c, 10, 63, 0
12, 53769, Note_on_c, 10, 58, 0
12, 53892, Note_on_c, 10, 61, 88
12, 53892, Note_on_c, 10, 65, 91
12, 53892, Note_on_c, 10, 70, 94
12, 53908, Note_on_c, 10, 65, 0
12, 53908, Note_on_c, 10, 61, 0
12, 53913, Note_on_c, 10, 70, 0
12, 54067, Note_on_c, 10, 61, 83
12, 54072, Note_on_c, 10, 65, 91
12, 54072, Note_on_c, 10, 70, 94
12, 54240, Note_on_c, 10, 61, 0
12, 54244, Note_on_c, 10, 70, 0
12, 54249, Note_on_c, 10, 65, 0
12, 54372, Note_on_c, 10, 60, 88
12, 54372, Note_on_c, 10, 63, 115
12, 54372, Note_on_c, 10, 68, 88
12, 54384, Note_on_c, 10, 60, 0
12, 54388, Note_on_c, 10, 68, 0
12, 54396, Note_on_c, 10, 63, 0
12, 54547, Note_on_c, 10, 60, 91
12, 54552, Note_on_c, 10, 63, 106
12, 54552, Note_on_c, 10, 68, 88
12, 54724, Note_on_c, 10, 68, 0
12, 54724, Note_on_c, 10, 60, 0
12, 54729, Note_on_c, 10, 63, 0
12, 54852, Note_on_c, 10, 58, 94
12, 54852, Note_on_c, 10, 63, 100
12, 54852, Note_on_c, 10, 66, 100
12, 54873, Note_on_c, 10, 58, 0
12, 54878, Note_on_c, 10, 63, 0
12, 54883, Note_on_c, 10, 66, 0
12, 55027, Note_on_c, 10, 58, 100
12, 55032, Note_on_c, 10, 63, 100
12, 55032, Note_on_c, 10, 66, 115
12, 55209, Note_on_c, 10, 66, 0
12, 55209, Note_on_c, 10, 63, 0
12, 55209, Note_on_c, 10, 58, 0
12, 55332, Note_on_c, 10, 61, 88
12, 55332, Note_on_c, 10, 65, 91
12, 55332, Note_on_c, 10, 70, 94
12, 55348, Note_on_c, 10, 61, 0
12, 55353, Note_on_c, 10, 70, 0
12, 55353, Note_on_c, 10, 65, 0
12, 55507, Note_on_c, 10, 61, 83
12, 55507, Note_on_c, 10, 65, 91
12, 55512, Note_on_c, 10, 70, 94
12, 55680, Note_on_c, 10, 61, 0
12, 55684, Note_on_c, 10, 70, 0
12, 55689, Note_on_c, 10, 65, 0
12, 55812, Note_on_c, 10, 60, 88
12, 55812, Note_on_c, 10, 63, 115
12, 55812, Note_on_c, 10, 68, 88
12, 55824, Note_on_c, 10, 60, 0
12, 55828, Note_on_c, 10, 68, 0
12, 55833, Note_on_c, 10, 63, 0
12, 55987, Note_on_c, 10, 60, 91
12, 55992, Note_on_c, 10, 63, 106
12, 55992, Note_on_c, 10, 68, 88
12, 56162, Note_on_c, 10, 68, 0
12, 56162, Note_on_c, 10, 60, 0
12, 56172, Note_on_c, 10, 63, 0
12, 56292, Note_on_c, 10, 58, 94
12, 56292, Note_on_c, 10, 63, 100
12, 56292, Note_on_c, 10, 66, 100
12, 56313, Note_on_c, 10, 58, 0
12, 56318, Note_on_c, 10, 63, 0
12, 56323, Note_on_c, 10, 66, 0
12, 56472, Note_on_c, 10, 58, 100
12, 56472, Note_on_c, 10, 63, 100
12, 56472, Note_on_c, 10, 66, 115
12, 56647, Note_on_c, 10, 66, 0
12, 56647, Note_on_c, 10, 63, 0
12, 56647, Note_on_c, 10, 58, 0
12, 56772, Note_on_c, 10, 61, 88
12, 56772, Note_on_c, 10, 65, 91
12, 56772, Note_on_c, 10, 70, 94
12, 56788, Note_on_c, 10, 61, 0
12, 56793, Note_on_c, 10, 70, 0
12, 56793, Note_on_c, 10, 65, 0
12, 56947, Note_on_c, 10, 61, 83
12, 56952, Note_on_c, 10, 65, 91
12, 56952, Note_on_c, 10, 70, 94
12, 57120, Note_on_c, 10, 61, 0
12, 57124, Note_on_c, 10, 70, 0
12, 57129, Note_on_c, 10, 65, 0
12, 57252, Note_on_c, 10, 60, 88
12, 57252, Note_on_c, 10, 63, 115
12, 57252, Note_on_c, 10, 68, 88
12, 57264, Note_on_c, 10, 60, 0
12, 57271, Note_on_c, 10, 68, 0
12, 57276, Note_on_c, 10, 63, 0
12, 57427, Note_on_c, 10, 60, 91
12, 57427, Note_on_c, 10, 63, 106
12, 57432, Note_on_c, 10, 68, 88
12, 57604, Note_on_c, 10, 68, 0
12, 57604, Note_on_c, 10, 60, 0
12, 57609, Note_on_c, 10, 63, 0
12, 57732, Note_on_c, 10, 58, 94
12, 57732, Note_on_c, 10, 63, 100
12, 57732, Note_on_c, 10, 66, 100
12, 57753, Note_on_c, 10, 58, 0
12, 57758, Note_on_c, 10, 63, 0
12, 57760, Note_on_c, 10, 66, 0
12, 57912, Note_on_c, 10, 58, 100
12, 57912, Note_on_c, 10, 63, 100
12, 57912, Note_on_c, 10, 66, 115
12, 58087, Note_on_c, 10, 66, 0
12, 58087, Note_on_c, 10, 63, 0
12, 58087, Note_on_c, 10, 58, 0
12, 58212, Note_on_c, 10, 61, 88
12, 58212, Note_on_c, 10, 65, 91
12, 58212, Note_on_c, 10, 70, 94
12, 58228, Note_on_c, 10, 61, 0
12, 58233, Note_on_c, 10, 70, 0
12, 58233, Note_on_c, 10, 65, 0
12, 58387, Note_on_c, 10, 61, 83
12, 58392, Note_on_c, 10, 65, 91
12, 58392, Note_on_c, 10, 70, 94
12, 58560, Note_on_c, 10, 61, 0
12, 58564, Note_on_c, 10, 70, 0
12, 58569, Note_on_c, 10, 65, 0
12, 58692, Note_on_c, 10, 60, 88
12, 58692, Note_on_c, 10, 63, 115
12, 58692, Note_on_c, 10, 68, 88
12, 58704, Note_on_c, 10, 60, 0
12, 58711, Note_on_c, 10, 68, 0
12, 58713, Note_on_c, 10, 63, 0
12, 58867, Note_on_c, 10, 60, 91
12, 58872, Note_on_c, 10, 63, 106
12, 58872, Note_on_c, 10, 68, 88
12, 59042, Note_on_c, 10, 68, 0
12, 59042, Note_on_c, 10, 60, 0
12, 59052, Note_on_c, 10, 63, 0
12, 59172, Note_on_c, 10, 58, 94
12, 59172, Note_on_c, 10, 63, 100
12, 59172, Note_on_c, 10, 66, 100
12, 59193, Note_on_c, 10, 58, 0
12, 59198, Note_on_c, 10, 63, 0
12, 59203, Note_on_c, 10, 66, 0
12, 59352, Note_on_c, 10, 58, 100
12, 59352, Note_on_c, 10, 63, 100
12, 59352, Note_on_c, 10, 66, 115
12, 59527, Note_on_c, 10, 66, 0
12, 59527, Note_on_c, 10, 63, 0
12, 59527, Note_on_c, 10, 58, 0
12, 59652, Note_on_c, 10, 61, 88
12, 59652, Note_on_c, 10, 65, 91
12, 59652, Note_on_c, 10, 70, 94
12, 59668, Note_on_c, 10, 61, 0
12, 59673, Note_on_c, 10, 70, 0
12, 59673, Note_on_c, 10, 65, 0
12, 59827, Note_on_c, 10, 61, 83
12, 59829, Note_on_c, 10, 65, 91
12, 59832, Note_on_c, 10, 70, 94
12, 60000, Note_on_c, 10, 61, 0
12, 60004, Note_on_c, 10, 70, 0
12, 60012, Note_on_c, 10, 65, 0
12, 60132, Note_on_c, 10, 60, 88
12, 60132, Note_on_c, 10, 63, 115
12, 60132, Note_on_c, 10, 68, 88
12, 60144, Note_on_c, 10, 60, 0
12, 60151, Note_on_c, 10, 68, 0
12, 60156, Note_on_c, 10, 63, 0
12, 60307, Note_on_c, 10, 60, 91
12, 60312, Note_on_c, 10, 63, 106
12, 60312, Note_on_c, 10, 68, 88
12, 60482, Note_on_c, 10, 68, 0
12, 60482, Note_on_c, 10, 60, 0
12, 60492, Note_on_c, 10, 63, 0
12, 60612, Note_on_c, 10, 58, 94
12, 60612, Note_on_c, 10, 63, 100
12, 60612, Note_on_c, 10, 66, 100
12, 60633, Note_on_c, 10, 58, 0
12, 60638, Note_on_c, 10, 63, 0
12, 60643, Note_on_c, 10, 66, 0
12, 60792, Note_on_c, 10, 58, 100
12, 60792, Note_on_c, 10, 63, 100
12, 60792, Note_on_c, 10, 66, 115
12, 60967, Note_on_c, 10, 66, 0
12, 60967, Note_on_c, 10, 63, 0
12, 60967, Note_on_c, 10, 58, 0
12, 61092, Note_on_c, 10, 61, 88
12, 61092, Note_on_c, 10, 65, 91
12, 61092, Note_on_c, 10, 70, 94
12, 61108, Note_on_c, 10, 61, 0
12, 61113, Note_on_c, 10, 70, 0
12, 61113, Note_on_c, 10, 65, 0
12, 61269, Note_on_c, 10, 61, 83
12, 61269, Note_on_c, 10, 65, 91
12, 61269, Note_on_c, 10, 70, 94
12, 61440, Note_on_c, 10, 61, 0
12, 61444, Note_on_c, 10, 70, 0
12, 61449, Note_on_c, 10, 65, 0
12, 61572, Note_on_c, 10, 60, 88
12, 61572, Note_on_c, 10, 63, 115
12, 61572, Note_on_c, 10, 68, 88
12, 61581, Note_on_c, 10, 60, 0
12, 61591, Note_on_c, 10, 68, 0
12, 61593, Note_on_c, 10, 63, 0
12, 61747, Note_on_c, 10, 60, 91
12, 61752, Note_on_c, 10, 63, 106
12, 61752, Note_on_c, 10, 68, 88
12, 61924, Note_on_c, 10, 68, 0
12, 61924, Note_on_c, 10, 60, 0
12, 61929, Note_on_c, 10, 63, 0
12, 62052, Note_on_c, 10, 58, 94
12, 62052, Note_on_c, 10, 63, 100
12, 62052, Note_on_c, 10, 66, 100
12, 62073, Note_on_c, 10, 58, 0
12, 62080, Note_on_c, 10, 66, 0
12, 62080, Note_on_c, 10, 63, 0
12, 62232, Note_on_c, 10, 58, 100
12, 62232, Note_on_c, 10, 63, 100
12, 62232, Note_on_c, 10, 66, 115
12, 62407, Note_on_c, 10, 66, 0
12, 62407, Note_on_c, 10, 63, 0
12, 62407, Note_on_c, 10, 58, 0
12, 62532, Note_on_c, 10, 61, 88
12, 62532, Note_on_c, 10, 65, 91
12, 62532, Note_on_c, 10, 70, 94
12, 62548, Note_on_c, 10, 61, 0
12, 62551, Note_on_c, 10, 70, 0
12, 62551, Note_on_c, 10, 65, 0
12, 62707, Note_on_c, 10, 61, 83
12, 62712, Note_on_c, 10, 65, 91
12, 62712, Note_on_c, 10, 70, 94
12, 62880, Note_on_c, 10, 61, 0
12, 62882, Note_on_c, 10, 70, 0
12, 62889, Note_on_c, 10, 65, 0
12, 63012, Note_on_c, 10, 60, 88
12, 63012, Note_on_c, 10, 63, 115
12, 63012, Note_on_c, 10, 68, 88
12, 63021, Note_on_c, 10, 60, 0
12, 63031, Note_on_c, 10, 68, 0
12, 63036, Note_on_c, 10, 63, 0
12, 63187, Note_on_c, 10, 60, 91
12, 63187, Note_on_c, 10, 63, 106
12, 63192, Note_on_c, 10, 68, 88
12, 63364, Note_on_c, 10, 68, 0
12, 63364, Note_on_c, 10, 60, 0
12, 63372, Note_on_c, 10, 63, 0
12, 63492, Note_on_c, 10, 58, 94
12, 63492, Note_on_c, 10, 63, 100
12, 63492, Note_on_c, 10, 66, 100
12, 63513, Note_on_c, 10, 58, 0
12, 63520, Note_on_c, 10, 66, 0
12, 63520, Note_on_c, 10, 63, 0
12, 63672, Note_on_c, 10, 58, 100
12, 63672, Note_on_c, 10, 63, 100
12, 63672, Note_on_c, 10, 66, 115
12, 63847, Note_on_c, 10, 66, 0
12, 63847, Note_on_c, 10, 63, 0
12, 63847, Note_on_c, 10, 58, 0
12, 63967, Note_on_c, 10, 61, 88
12, 63972, Note_on_c, 10, 65, 91
12, 63972, Note_on_c, 10, 70, 94
12, 63988, Note_on_c, 10, 61, 0
12, 63991, Note_on_c, 10, 70, 0
12, 63991, Note_on_c, 10, 65, 0
12, 64147, Note_on_c, 10, 61, 83
12, 64147, Note_on_c, 10, 65, 91
12, 64152, Note_on_c, 10, 70, 94
12, 64320, Note_on_c, 10, 61, 0
12, 64322, Note_on_c, 10, 70, 0
12, 64324, Note_on_c, 10, 65, 0
12, 64324, Control_c, 10, 64, 0
12, 64324, End_track
13, 0, Start_track
13, 0, MIDI_port, 0
13, 0, Title_t, "Vocals"
13, 14, Program_c, 11, 102
13, 7989, Note_on_c, 11, 80, 88
13, 8011, Note_on_c, 11, 80, 0
13, 8049, Note_on_c, 11, 80, 88
13, 8066, Note_on_c, 11, 80, 0
13, 8109, Note_on_c, 11, 80, 88
13, 8124, Note_on_c, 11, 80, 0
13, 8167, Note_on_c, 11, 80, 88
13, 8186, Note_on_c, 11, 80, 0
13, 8229, Note_on_c, 11, 80, 88
13, 8244, Note_on_c, 11, 80, 0
13, 8289, Note_on_c, 11, 75, 88
13, 8308, Note_on_c, 11, 75, 0
13, 8349, Note_on_c, 11, 73, 88
13, 8428, Note_on_c, 11, 73, 0
13, 8469, Note_on_c, 11, 72, 88
13, 8491, Note_on_c, 11, 72, 0
13, 8529, Note_on_c, 11, 70, 88
13, 8596, Note_on_c, 11, 70, 0
13, 8949, Note_on_c, 11, 80, 88
13, 8971, Note_on_c, 11, 80, 0
13, 9009, Note_on_c, 11, 80, 88
13, 9024, Note_on_c, 11, 80, 0
13, 9069, Note_on_c, 11, 80, 88
13, 9081, Note_on_c, 11, 80, 0
13, 9129, Note_on_c, 11, 80, 88
13, 9220, Note_on_c, 11, 80, 0
13, 9249, Note_on_c, 11, 75, 88
13, 9264, Note_on_c, 11, 75, 0
13, 9309, Note_on_c, 11, 73, 88
13, 9412, Note_on_c, 11, 73, 0
13, 9429, Note_on_c, 11, 72, 88
13, 9470, Note_on_c, 11, 72, 0
13, 9489, Note_on_c, 11, 70, 88
13, 9549, Note_on_c, 11, 70, 0
13, 9909, Note_on_c, 11, 80, 88
13, 9931, Note_on_c, 11, 80, 0
13, 9969, Note_on_c, 11, 80, 88
13, 9988, Note_on_c, 11, 80, 0
13, 10029, Note_on_c, 11, 80, 88
13, 10041, Note_on_c, 11, 80, 0
13, 10089, Note_on_c, 11, 80, 88
13, 10120, Note_on_c, 11, 80, 0
13, 10149, Note_on_c, 11, 80, 88
13, 10168, Note_on_c, 11, 80, 0
13, 10209, Note_on_c, 11, 75, 88
13, 10231, Note_on_c, 11, 75, 0
13, 10269, Note_on_c, 11, 73, 88
13, 10356, Note_on_c, 11, 73, 0
13, 10389, Note_on_c, 11, 72, 88
13, 10425, Note_on_c, 11, 72, 0
13, 10449, Note_on_c, 11, 70, 88
13, 10500, Note_on_c, 11, 70, 0
13, 10689, Note_on_c, 11, 68, 88
13, 10723, Note_on_c, 11, 68, 0
13, 10749, Note_on_c, 11, 67, 88
13, 10809, Note_on_c, 11, 67, 0
13, 10958, Note_on_c, 11, 67, 88
13, 10999, Note_on_c, 11, 67, 0
13, 11078, Note_on_c, 11, 68, 88
13, 11109, Note_on_c, 11, 67, 88
13, 11119, Note_on_c, 11, 68, 0
13, 11155, Note_on_c, 11, 67, 0
13, 11198, Note_on_c, 11, 65, 88
13, 11224, Note_on_c, 11, 65, 0
13, 11229, Note_on_c, 11, 67, 88
13, 11268, Note_on_c, 11, 67, 0
13, 11589, Note_on_c, 11, 73, 88
13, 11611, Note_on_c, 11, 73, 0
13, 11649, Note_on_c, 11, 73, 88
13, 11671, Note_on_c, 11, 73, 0
13, 11709, Note_on_c, 11, 73, 88
13, 11731, Note_on_c, 11, 73, 0
13, 11769, Note_on_c, 11, 73, 88
13, 11793, Note_on_c, 11, 73, 0
13, 11829, Note_on_c, 11, 73, 88
13, 11851, Note_on_c, 11, 73, 0
13, 11889, Note_on_c, 11, 73, 88
13, 11908, Note_on_c, 11, 73, 0
13, 11949, Note_on_c, 11, 73, 88
13, 11978, Note_on_c, 11, 73, 0
13, 12009, Note_on_c, 11, 75, 88
13, 12028, Note_on_c, 11, 75, 0
13, 12069, Note_on_c, 11, 73, 88
13, 12091, Note_on_c, 11, 73, 0
13, 12129, Note_on_c, 11, 73, 88
13, 12158, Note_on_c, 11, 73, 0
13, 12489, Note_on_c, 11, 73, 88
13, 12676, Note_on_c, 11, 73, 0
13, 12729, Note_on_c, 11, 75, 88
13, 12756, Note_on_c, 11, 75, 0
13, 12789, Note_on_c, 11, 77, 88
13, 12883, Note_on_c, 11, 77, 0
13, 12969, Note_on_c, 11, 72, 88
13, 13039, Note_on_c, 11, 72, 0
13, 13089, Note_on_c, 11, 72, 88
13, 13173, Note_on_c, 11, 72, 0
13, 13209, Note_on_c, 11, 73, 88
13, 13233, Note_on_c, 11, 73, 0
13, 13269, Note_on_c, 11, 75, 88
13, 13353, Note_on_c, 11, 75, 0
13, 13389, Note_on_c, 11, 70, 88
13, 13490, Note_on_c, 11, 70, 0
13, 13509, Note_on_c, 11, 68, 88
13, 13538, Note_on_c, 11, 68, 0
13, 13569, Note_on_c, 11, 66, 88
13, 13723, Note_on_c, 11, 66, 0
13, 13869, Note_on_c, 11, 78, 88
13, 13891, Note_on_c, 11, 78, 0
13, 13929, Note_on_c, 11, 78, 88
13, 13982, Note_on_c, 11, 78, 0
13, 14018, Note_on_c, 11, 77, 88
13, 14064, Note_on_c, 11, 77, 0
13, 14109, Note_on_c, 11, 75, 88
13, 14155, Note_on_c, 11, 75, 0
13, 14169, Note_on_c, 11, 73, 88
13, 14210, Note_on_c, 11, 73, 0
13, 14258, Note_on_c, 11, 72, 88
13, 14304, Note_on_c, 11, 72, 0
13, 14349, Note_on_c, 11, 70, 88
13, 14409, Note_on_c, 11, 70, 0
13, 14409, Note_on_c, 11, 68, 88
13, 14486, Note_on_c, 11, 68, 0
13, 14649, Note_on_c, 11, 65, 88
13, 14690, Note_on_c, 11, 65, 0
13, 14709, Note_on_c, 11, 63, 88
13, 14774, Note_on_c, 11, 63, 0
13, 14798, Note_on_c, 11, 65, 88
13, 14841, Note_on_c, 11, 65, 0
13, 14889, Note_on_c, 11, 65, 88
13, 14964, Note_on_c, 11, 65, 0
13, 15069, Note_on_c, 11, 65, 88
13, 15098, Note_on_c, 11, 66, 88
13, 15105, Note_on_c, 11, 65, 0
13, 15129, Note_on_c, 11, 63, 88
13, 15139, Note_on_c, 11, 66, 0
13, 15189, Note_on_c, 11, 63, 0
13, 15549, Note_on_c, 11, 65, 88
13, 15578, Note_on_c, 11, 65, 0
13, 15609, Note_on_c, 11, 65, 88
13, 15660, Note_on_c, 11, 65, 0
13, 15698, Note_on_c, 11, 70, 88
13, 15753, Note_on_c, 11, 70, 0
13, 15789, Note_on_c, 11, 72, 88
13, 15823, Note_on_c, 11, 72, 0
13, 15849, Note_on_c, 11, 74, 88
13, 15895, Note_on_c, 11, 74, 0
13, 15938, Note_on_c, 11, 74, 88
13, 15984, Note_on_c, 11, 74, 0
13, 16015, Note_on_c, 11, 74, 88
13, 16048, Note_on_c, 11, 74, 0
13, 16089, Note_on_c, 11, 74, 88
13, 16149, Note_on_c, 11, 74, 0
13, 16161, Note_on_c, 11, 72, 88
13, 16219, Note_on_c, 11, 72, 0
13, 16240, Note_on_c, 11, 70, 88
13, 16284, Note_on_c, 11, 70, 0
13, 16389, Note_on_c, 11, 65, 88
13, 16416, Note_on_c, 11, 65, 0
13, 16449, Note_on_c, 11, 65, 88
13, 16478, Note_on_c, 11, 65, 0
13, 16495, Note_on_c, 11, 65, 88
13, 16528, Note_on_c, 11, 65, 0
13, 16569, Note_on_c, 11, 65, 88
13, 16622, Note_on_c, 11, 65, 0
13, 16658, Note_on_c, 11, 69, 88
13, 16706, Note_on_c, 11, 69, 0
13, 16749, Note_on_c, 11, 70, 88
13, 16785, Note_on_c, 11, 70, 0
13, 16809, Note_on_c, 11, 72, 88
13, 16848, Note_on_c, 11, 72, 0
13, 16898, Note_on_c, 11, 72, 88
13, 16934, Note_on_c, 11, 72, 0
13, 16989, Note_on_c, 11, 72, 88
13, 17011, Note_on_c, 11, 72, 0
13, 17049, Note_on_c, 11, 72, 88
13, 17114, Note_on_c, 11, 72, 0
13, 17155, Note_on_c, 11, 70, 88
13, 17193, Note_on_c, 11, 70, 0
13, 17229, Note_on_c, 11, 69, 88
13, 17284, Note_on_c, 11, 69, 0
13, 17409, Note_on_c, 11, 68, 88
13, 17445, Note_on_c, 11, 68, 0
13, 17469, Note_on_c, 11, 68, 88
13, 17539, Note_on_c, 11, 68, 0
13, 17589, Note_on_c, 11, 70, 88
13, 17635, Note_on_c, 11, 70, 0
13, 17649, Note_on_c, 11, 72, 88
13, 17697, Note_on_c, 11, 72, 0
13, 17709, Note_on_c, 11, 72, 88
13, 17800, Note_on_c, 11, 72, 0
13, 17889, Note_on_c, 11, 72, 88
13, 17923, Note_on_c, 11, 72, 0
13, 17949, Note_on_c, 11, 72, 88
13, 18031, Note_on_c, 11, 72, 0
13, 18069, Note_on_c, 11, 70, 88
13, 18124, Note_on_c, 11, 70, 0
13, 18129, Note_on_c, 11, 68, 88
13, 18180, Note_on_c, 11, 68, 0
13, 18189, Note_on_c, 11, 67, 88
13, 18283, Note_on_c, 11, 67, 0
13, 19329, Note_on_c, 11, 66, 88
13, 19351, Note_on_c, 11, 66, 0
13, 19389, Note_on_c, 11, 66, 88
13, 19411, Note_on_c, 11, 66, 0
13, 19449, Note_on_c, 11, 66, 88
13, 19509, Note_on_c, 11, 66, 0
13, 19538, Note_on_c, 11, 68, 88
13, 19579, Note_on_c, 11, 68, 0
13, 19629, Note_on_c, 11, 70, 88
13, 19660, Note_on_c, 11, 70, 0
13, 19689, Note_on_c, 11, 70, 88
13, 19732, Note_on_c, 11, 70, 0
13, 19778, Note_on_c, 11, 70, 88
13, 19809, Note_on_c, 11, 70, 0
13, 19848, Note_on_c, 11, 70, 88
13, 19876, Note_on_c, 11, 70, 0
13, 19929, Note_on_c, 11, 70, 88
13, 19994, Note_on_c, 11, 70, 0
13, 20018, Note_on_c, 11, 68, 88
13, 20071, Note_on_c, 11, 68, 0
13, 20109, Note_on_c, 11, 66, 88
13, 20143, Note_on_c, 11, 66, 0
13, 20169, Note_on_c, 11, 65, 88
13, 20256, Note_on_c, 11, 65, 0
13, 20258, Note_on_c, 11, 66, 88
13, 20280, Note_on_c, 11, 66, 0
13, 20289, Note_on_c, 11, 65, 88
13, 20366, Note_on_c, 11, 65, 0
13, 20378, Note_on_c, 11, 66, 88
13, 20402, Note_on_c, 11, 66, 0
13, 20409, Note_on_c, 11, 65, 88
13, 20486, Note_on_c, 11, 65, 0
13, 20498, Note_on_c, 11, 66, 88
13, 20517, Note_on_c, 11, 66, 0
13, 20529, Note_on_c, 11, 65, 88
13, 20616, Note_on_c, 11, 65, 0
13, 20618, Note_on_c, 11, 66, 88
13, 20640, Note_on_c, 11, 66, 0
13, 20649, Note_on_c, 11, 65, 88
13, 20724, Note_on_c, 11, 65, 0
13, 20738, Note_on_c, 11, 66, 88
13, 20760, Note_on_c, 11, 66, 0
13, 20769, Note_on_c, 11, 65, 88
13, 20846, Note_on_c, 11, 65, 0
13, 20858, Note_on_c, 11, 66, 88
13, 20887, Note_on_c, 11, 66, 0
13, 20889, Note_on_c, 11, 65, 88
13, 20966, Note_on_c, 11, 65, 0
13, 20978, Note_on_c, 11, 66, 88
13, 21009, Note_on_c, 11, 66, 0
13, 21009, Note_on_c, 11, 65, 88
13, 21079, Note_on_c, 11, 65, 0
13, 21129, Note_on_c, 11, 66, 104
13, 21129, Note_on_c, 11, 70, 88
13, 21158, Note_on_c, 11, 70, 0
13, 21158, Note_on_c, 11, 66, 0
13, 21192, Note_on_c, 11, 66, 104
13, 21192, Note_on_c, 11, 70, 88
13, 21218, Note_on_c, 11, 70, 0
13, 21218, Note_on_c, 11, 66, 0
13, 21249, Note_on_c, 11, 66, 104
13, 21249, Note_on_c, 11, 70, 88
13, 21278, Note_on_c, 11, 70, 0
13, 21278, Note_on_c, 11, 66, 0
13, 21312, Note_on_c, 11, 65, 104
13, 21312, Note_on_c, 11, 68, 88
13, 21398, Note_on_c, 11, 68, 0
13, 21398, Note_on_c, 11, 65, 0
13, 21432, Note_on_c, 11, 63, 104
13, 21432, Note_on_c, 11, 66, 88
13, 21566, Note_on_c, 11, 66, 0
13, 21566, Note_on_c, 11, 63, 0
13, 21609, Note_on_c, 11, 66, 104
13, 21609, Note_on_c, 11, 70, 88
13, 21672, Note_on_c, 11, 70, 0
13, 21672, Note_on_c, 11, 66, 0
13, 21729, Note_on_c, 11, 66, 104
13, 21729, Note_on_c, 11, 70, 88
13, 21792, Note_on_c, 11, 70, 0
13, 21792, Note_on_c, 11, 66, 0
13, 21792, Note_on_c, 11, 65, 104
13, 21792, Note_on_c, 11, 68, 88
13, 21849, Note_on_c, 11, 68, 0
13, 21849, Note_on_c, 11, 65, 0
13, 21912, Note_on_c, 11, 63, 104
13, 21912, Note_on_c, 11, 66, 88
13, 21998, Note_on_c, 11, 66, 0
13, 21998, Note_on_c, 11, 63, 0
13, 22089, Note_on_c, 11, 68, 88
13, 22089, Note_on_c, 11, 65, 104
13, 22116, Note_on_c, 11, 65, 0
13, 22116, Note_on_c, 11, 68, 0
13, 22152, Note_on_c, 11, 68, 88
13, 22152, Note_on_c, 11, 65, 104
13, 22286, Note_on_c, 11, 65, 0
13, 22286, Note_on_c, 11, 68, 0
13, 22329, Note_on_c, 11, 66, 88
13, 22329, Note_on_c, 11, 63, 104
13, 22418, Note_on_c, 11, 63, 0
13, 22418, Note_on_c, 11, 66, 0
13, 22452, Note_on_c, 11, 65, 88
13, 22452, Note_on_c, 11, 61, 104
13, 22478, Note_on_c, 11, 61, 0
13, 22478, Note_on_c, 11, 65, 0
13, 22512, Note_on_c, 11, 68, 88
13, 22512, Note_on_c, 11, 65, 104
13, 22646, Note_on_c, 11, 65, 0
13, 22646, Note_on_c, 11, 68, 0
13, 22692, Note_on_c, 11, 68, 88
13, 22692, Note_on_c, 11, 65, 104
13, 22718, Note_on_c, 11, 65, 0
13, 22718, Note_on_c, 11, 68, 0
13, 22752, Note_on_c, 11, 66, 88
13, 22752, Note_on_c, 11, 63, 104
13, 22809, Note_on_c, 11, 63, 0
13, 22809, Note_on_c, 11, 66, 0
13, 22872, Note_on_c, 11, 65, 88
13, 22872, Note_on_c, 11, 61, 104
13, 22958, Note_on_c, 11, 61, 0
13, 22958, Note_on_c, 11, 65, 0
13, 23049, Note_on_c, 11, 66, 104
13, 23049, Note_on_c, 11, 70, 88
13, 23078, Note_on_c, 11, 70, 0
13, 23078, Note_on_c, 11, 66, 0
13, 23112, Note_on_c, 11, 66, 104
13, 23112, Note_on_c, 11, 70, 88
13, 23198, Note_on_c, 11, 70, 0
13, 23198, Note_on_c, 11, 66, 0
13, 23232, Note_on_c, 11, 66, 104
13, 23232, Note_on_c, 11, 70, 88
13, 23258, Note_on_c, 11, 70, 0
13, 23258, Note_on_c, 11, 66, 0
13, 23292, Note_on_c, 11, 65, 104
13, 23292, Note_on_c, 11, 70, 88
13, 23318, Note_on_c, 11, 70, 0
13, 23352, Note_on_c, 11, 65, 0
13, 23352, Note_on_c, 11, 63, 104
13, 23352, Note_on_c, 11, 70, 88
13, 23438, Note_on_c, 11, 70, 0
13, 23438, Note_on_c, 11, 63, 0
13, 23529, Note_on_c, 11, 66, 104
13, 23529, Note_on_c, 11, 72, 88
13, 23652, Note_on_c, 11, 66, 0
13, 23666, Note_on_c, 11, 72, 0
13, 23772, Note_on_c, 11, 66, 104
13, 23772, Note_on_c, 11, 72, 88
13, 23812, Note_on_c, 11, 72, 0
13, 23812, Note_on_c, 11, 66, 0
13, 23832, Note_on_c, 11, 65, 104
13, 23832, Note_on_c, 11, 73, 88
13, 23872, Note_on_c, 11, 73, 0
13, 23872, Note_on_c, 11, 65, 0
13, 23892, Note_on_c, 11, 63, 104
13, 23892, Note_on_c, 11, 75, 88
13, 23978, Note_on_c, 11, 75, 0
13, 23978, Note_on_c, 11, 63, 0
13, 24009, Note_on_c, 11, 63, 104
13, 24009, Note_on_c, 11, 75, 88
13, 24158, Note_on_c, 11, 75, 0
13, 24199, Note_on_c, 11, 63, 0
13, 24252, Note_on_c, 11, 61, 104
13, 24252, Note_on_c, 11, 73, 88
13, 24396, Note_on_c, 11, 73, 0
13, 24468, Note_on_c, 11, 61, 0
13, 24489, Note_on_c, 11, 60, 104
13, 24489, Note_on_c, 11, 72, 88
13, 24626, Note_on_c, 11, 72, 0
13, 24626, Note_on_c, 11, 60, 0
13, 31689, Note_on_c, 11, 80, 88
13, 31756, Note_on_c, 11, 80, 0
13, 31809, Note_on_c, 11, 80, 88
13, 31826, Note_on_c, 11, 80, 0
13, 31869, Note_on_c, 11, 80, 88
13, 31884, Note_on_c, 11, 80, 0
13, 31929, Note_on_c, 11, 80, 88
13, 32013, Note_on_c, 11, 80, 0
13, 32049, Note_on_c, 11, 75, 88
13, 32073, Note_on_c, 11, 75, 0
13, 32109, Note_on_c, 11, 73, 88
13, 32191, Note_on_c, 11, 73, 0
13, 32229, Note_on_c, 11, 72, 88
13, 32260, Note_on_c, 11, 72, 0
13, 32289, Note_on_c, 11, 70, 88
13, 32340, Note_on_c, 11, 70, 0
13, 32349, Note_on_c, 11, 68, 88
13, 32433, Note_on_c, 11, 68, 0
13, 32709, Note_on_c, 11, 80, 88
13, 32726, Note_on_c, 11, 80, 0
13, 32769, Note_on_c, 11, 80, 88
13, 32832, Note_on_c, 11, 80, 0
13, 32889, Note_on_c, 11, 80, 88
13, 32968, Note_on_c, 11, 80, 0
13, 33009, Note_on_c, 11, 75, 88
13, 33038, Note_on_c, 11, 75, 0
13, 33069, Note_on_c, 11, 73, 88
13, 33175, Note_on_c, 11, 73, 0
13, 33189, Note_on_c, 11, 72, 88
13, 33285, Note_on_c, 11, 72, 0
13, 33729, Note_on_c, 11, 80, 88
13, 33748, Note_on_c, 11, 80, 0
13, 33789, Note_on_c, 11, 80, 88
13, 33804, Note_on_c, 11, 80, 0
13, 33849, Note_on_c, 11, 80, 88
13, 33873, Note_on_c, 11, 80, 0
13, 33909, Note_on_c, 11, 80, 88
13, 33933, Note_on_c, 11, 80, 0
13, 33969, Note_on_c, 11, 75, 88
13, 33996, Note_on_c, 11, 75, 0
13, 34029, Note_on_c, 11, 73, 88
13, 34166, Note_on_c, 11, 73, 0
13, 34209, Note_on_c, 11, 72, 88
13, 34238, Note_on_c, 11, 72, 0
13, 34269, Note_on_c, 11, 70, 88
13, 34360, Note_on_c, 11, 70, 0
13, 34389, Note_on_c, 11, 68, 88
13, 34423, Note_on_c, 11, 68, 0
13, 34449, Note_on_c, 11, 68, 88
13, 34476, Note_on_c, 11, 68, 0
13, 34512, Note_on_c, 11, 72, 88
13, 34629, Note_on_c, 11, 72, 0
13, 34629, Note_on_c, 11, 70, 88
13, 34680, Note_on_c, 11, 70, 0
13, 34929, Note_on_c, 11, 68, 88
13, 34977, Note_on_c, 11, 68, 0
13, 34989, Note_on_c, 11, 67, 88
13, 35061, Note_on_c, 11, 67, 0
13, 35112, Note_on_c, 11, 67, 88
13, 35164, Note_on_c, 11, 67, 0
13, 35169, Note_on_c, 11, 68, 88
13, 35227, Note_on_c, 11, 68, 0
13, 35232, Note_on_c, 11, 67, 88
13, 35313, Note_on_c, 11, 67, 0
13, 35649, Note_on_c, 11, 73, 88
13, 35685, Note_on_c, 11, 73, 0
13, 35772, Note_on_c, 11, 73, 88
13, 35803, Note_on_c, 11, 73, 0
13, 35889, Note_on_c, 11, 73, 88
13, 35913, Note_on_c, 11, 73, 0
13, 35949, Note_on_c, 11, 73, 88
13, 35978, Note_on_c, 11, 73, 0
13, 36009, Note_on_c, 11, 75, 88
13, 36048, Note_on_c, 11, 75, 0
13, 36069, Note_on_c, 11, 73, 88
13, 36103, Note_on_c, 11, 73, 0
13, 36129, Note_on_c, 11, 72, 88
13, 36165, Note_on_c, 11, 72, 0
13, 36192, Note_on_c, 11, 73, 88
13, 36290, Note_on_c, 11, 73, 0
13, 36489, Note_on_c, 11, 73, 88
13, 36691, Note_on_c, 11, 73, 0
13, 36729, Note_on_c, 11, 75, 88
13, 36751, Note_on_c, 11, 75, 0
13, 36792, Note_on_c, 11, 77, 88
13, 36907, Note_on_c, 11, 77, 0
13, 36972, Note_on_c, 11, 72, 88
13, 37039, Note_on_c, 11, 72, 0
13, 37089, Note_on_c, 11, 72, 88
13, 37168, Note_on_c, 11, 72, 0
13, 37212, Note_on_c, 11, 73, 88
13, 37231, Note_on_c, 11, 73, 0
13, 37272, Note_on_c, 11, 75, 88
13, 37360, Note_on_c, 11, 75, 0
13, 37387, Note_on_c, 11, 70, 88
13, 37483, Note_on_c, 11, 70, 0
13, 37512, Note_on_c, 11, 68, 88
13, 37538, Note_on_c, 11, 68, 0
13, 37572, Note_on_c, 11, 66, 88
13, 37752, Note_on_c, 11, 66, 0
13, 37929, Note_on_c, 11, 78, 88
13, 37982, Note_on_c, 11, 78, 0
13, 38018, Note_on_c, 11, 77, 88
13, 38061, Note_on_c, 11, 77, 0
13, 38112, Note_on_c, 11, 75, 88
13, 38157, Note_on_c, 11, 75, 0
13, 38172, Note_on_c, 11, 73, 88
13, 38232, Note_on_c, 11, 73, 0
13, 38409, Note_on_c, 11, 70, 88
13, 38450, Note_on_c, 11, 70, 0
13, 38532, Note_on_c, 11, 68, 88
13, 38592, Note_on_c, 11, 68, 0
13, 38652, Note_on_c, 11, 66, 88
13, 38702, Note_on_c, 11, 66, 0
13, 38738, Note_on_c, 11, 66, 88
13, 38772, Note_on_c, 11, 66, 0
13, 38832, Note_on_c, 11, 65, 88
13, 38868, Note_on_c, 11, 65, 0
13, 38889, Note_on_c, 11, 63, 88
13, 38992, Note_on_c, 11, 63, 0
13, 39552, Note_on_c, 11, 77, 88
13, 39568, Note_on_c, 11, 77, 0
13, 39612, Note_on_c, 11, 77, 88
13, 39657, Note_on_c, 11, 77, 0
13, 39672, Note_on_c, 11, 75, 88
13, 39700, Note_on_c, 11, 75, 0
13, 39727, Note_on_c, 11, 74, 88
13, 39753, Note_on_c, 11, 74, 0
13, 39787, Note_on_c, 11, 72, 88
13, 39912, Note_on_c, 11, 74, 88
13, 39916, Note_on_c, 11, 72, 0
13, 39931, Note_on_c, 11, 74, 0
13, 39972, Note_on_c, 11, 74, 88
13, 40077, Note_on_c, 11, 74, 0
13, 40512, Note_on_c, 11, 77, 88
13, 40526, Note_on_c, 11, 77, 0
13, 40572, Note_on_c, 11, 77, 88
13, 40603, Note_on_c, 11, 77, 0
13, 40632, Note_on_c, 11, 75, 88
13, 40665, Note_on_c, 11, 75, 0
13, 40687, Note_on_c, 11, 74, 88
13, 40711, Note_on_c, 11, 74, 0
13, 40747, Note_on_c, 11, 72, 88
13, 40872, Note_on_c, 11, 72, 0
13, 40872, Note_on_c, 11, 74, 88
13, 40891, Note_on_c, 11, 74, 0
13, 40932, Note_on_c, 11, 74, 88
13, 41064, Note_on_c, 11, 74, 0
13, 41412, Note_on_c, 11, 77, 88
13, 41467, Note_on_c, 11, 77, 0
13, 41532, Note_on_c, 11, 77, 88
13, 41575, Note_on_c, 11, 77, 0
13, 41592, Note_on_c, 11, 75, 88
13, 41623, Note_on_c, 11, 75, 0
13, 41647, Note_on_c, 11, 74, 88
13, 41673, Note_on_c, 11, 74, 0
13, 41707, Note_on_c, 11, 74, 88
13, 41810, Note_on_c, 11, 74, 0
13, 41832, Note_on_c, 11, 72, 88
13, 41853, Note_on_c, 11, 72, 0
13, 41892, Note_on_c, 11, 72, 88
13, 41983, Note_on_c, 11, 72, 0
13, 42012, Note_on_c, 11, 75, 88
13, 42067, Note_on_c, 11, 75, 0
13, 42072, Note_on_c, 11, 74, 88
13, 42096, Note_on_c, 11, 74, 0
13, 42127, Note_on_c, 11, 70, 88
13, 42156, Note_on_c, 11, 70, 0
13, 42192, Note_on_c, 11, 72, 88
13, 42312, Note_on_c, 11, 72, 0
13, 42312, Note_on_c, 11, 70, 88
13, 42362, Note_on_c, 11, 70, 0
13, 42667, Note_on_c, 11, 67, 88
13, 42693, Note_on_c, 11, 67, 0
13, 42698, Note_on_c, 11, 65, 88
13, 42729, Note_on_c, 11, 67, 88
13, 42739, Note_on_c, 11, 65, 0
13, 42775, Note_on_c, 11, 67, 0
13, 42792, Note_on_c, 11, 70, 88
13, 42856, Note_on_c, 11, 70, 0
13, 43332, Note_on_c, 11, 78, 88
13, 43348, Note_on_c, 11, 78, 0
13, 43392, Note_on_c, 11, 78, 88
13, 43406, Note_on_c, 11, 78, 0
13, 43452, Note_on_c, 11, 78, 88
13, 43500, Note_on_c, 11, 78, 0
13, 43572, Note_on_c, 11, 77, 88
13, 43598, Note_on_c, 11, 77, 0
13, 43632, Note_on_c, 11, 77, 88
13, 43706, Note_on_c, 11, 77, 0
13, 43752, Note_on_c, 11, 75, 88
13, 43771, Note_on_c, 11, 75, 0
13, 43812, Note_on_c, 11, 75, 88
13, 43896, Note_on_c, 11, 75, 0
13, 44169, Note_on_c, 11, 77, 88
13, 44188, Note_on_c, 11, 77, 0
13, 44232, Note_on_c, 11, 77, 88
13, 44251, Note_on_c, 11, 77, 0
13, 44292, Note_on_c, 11, 77, 88
13, 44318, Note_on_c, 11, 77, 0
13, 44352, Note_on_c, 11, 75, 88
13, 44419, Note_on_c, 11, 75, 0
13, 44472, Note_on_c, 11, 73, 88
13, 44541, Note_on_c, 11, 73, 0
13, 44587, Note_on_c, 11, 72, 88
13, 44685, Note_on_c, 11, 72, 0
13, 45129, Note_on_c, 11, 66, 104
13, 45129, Note_on_c, 11, 70, 88
13, 45158, Note_on_c, 11, 70, 0
13, 45158, Note_on_c, 11, 66, 0
13, 45192, Note_on_c, 11, 66, 104
13, 45192, Note_on_c, 11, 70, 88
13, 45218, Note_on_c, 11, 70, 0
13, 45218, Note_on_c, 11, 66, 0
13, 45252, Note_on_c, 11, 66, 104
13, 45252, Note_on_c, 11, 70, 88
13, 45278, Note_on_c, 11, 70, 0
13, 45278, Note_on_c, 11, 66, 0
13, 45312, Note_on_c, 11, 65, 104
13, 45312, Note_on_c, 11, 68, 88
13, 45398, Note_on_c, 11, 68, 0
13, 45398, Note_on_c, 11, 65, 0
13, 45432, Note_on_c, 11, 63, 104
13, 45432, Note_on_c, 11, 66, 88
13, 45566, Note_on_c, 11, 66, 0
13, 45566, Note_on_c, 11, 63, 0
13, 45612, Note_on_c, 11, 66, 104
13, 45612, Note_on_c, 11, 70, 88
13, 45672, Note_on_c, 11, 70, 0
13, 45672, Note_on_c, 11, 66, 0
13, 45732, Note_on_c, 11, 66, 104
13, 45732, Note_on_c, 11, 70, 88
13, 45792, Note_on_c, 11, 70, 0
13, 45792, Note_on_c, 11, 66, 0
13, 45792, Note_on_c, 11, 65, 104
13, 45792, Note_on_c, 11, 68, 88
13, 45852, Note_on_c, 11, 68, 0
13, 45852, Note_on_c, 11, 65, 0
13, 45912, Note_on_c, 11, 63, 104
13, 45912, Note_on_c, 11, 66, 88
13, 45998, Note_on_c, 11, 66, 0
13, 45998, Note_on_c, 11, 63, 0
13, 46089, Note_on_c, 11, 68, 88
13, 46089, Note_on_c, 11, 65, 104
13, 46116, Note_on_c, 11, 65, 0
13, 46116, Note_on_c, 11, 68, 0
13, 46152, Note_on_c, 11, 68, 88
13, 46152, Note_on_c, 11, 65, 104
13, 46286, Note_on_c, 11, 65, 0
13, 46286, Note_on_c, 11, 68, 0
13, 46332, Note_on_c, 11, 66, 88
13, 46332, Note_on_c, 11, 63, 104
13, 46418, Note_on_c, 11, 63, 0
13, 46418, Note_on_c, 11, 66, 0
13, 46452, Note_on_c, 11, 65, 88
13, 46452, Note_on_c, 11, 61, 104
13, 46478, Note_on_c, 11, 61, 0
13, 46478, Note_on_c, 11, 65, 0
13, 46512, Note_on_c, 11, 68, 88
13, 46512, Note_on_c, 11, 65, 104
13, 46648, Note_on_c, 11, 65, 0
13, 46648, Note_on_c, 11, 68, 0
13, 46692, Note_on_c, 11, 68, 88
13, 46692, Note_on_c, 11, 65, 104
13, 46718, Note_on_c, 11, 65, 0
13, 46718, Note_on_c, 11, 68, 0
13, 46752, Note_on_c, 11, 66, 88
13, 46752, Note_on_c, 11, 63, 104
13, 46812, Note_on_c, 11, 63, 0
13, 46812, Note_on_c, 11, 66, 0
13, 46872, Note_on_c, 11, 65, 88
13, 46872, Note_on_c, 11, 61, 104
13, 46958, Note_on_c, 11, 61, 0
13, 46958, Note_on_c, 11, 65, 0
13, 47049, Note_on_c, 11, 66, 104
13, 47049, Note_on_c, 11, 70, 88
13, 47078, Note_on_c, 11, 70, 0
13, 47078, Note_on_c, 11, 66, 0
13, 47107, Note_on_c, 11, 66, 104
13, 47107, Note_on_c, 11, 70, 88
13, 47198, Note_on_c, 11, 70, 0
13, 47198, Note_on_c, 11, 66, 0
13, 47227, Note_on_c, 11, 66, 104
13, 47232, Note_on_c, 11, 70, 88
13, 47258, Note_on_c, 11, 70, 0
13, 47258, Note_on_c, 11, 66, 0
13, 47292, Note_on_c, 11, 65, 104
13, 47292, Note_on_c, 11, 70, 88
13, 47318, Note_on_c, 11, 70, 0
13, 47347, Note_on_c, 11, 63, 104
13, 47347, Note_on_c, 11, 70, 88
13, 47352, Note_on_c, 11, 65, 0
13, 47438, Note_on_c, 11, 70, 0
13, 47438, Note_on_c, 11, 63, 0
13, 47529, Note_on_c, 11, 66, 104
13, 47529, Note_on_c, 11, 72, 88
13, 47652, Note_on_c, 11, 66, 0
13, 47666, Note_on_c, 11, 72, 0
13, 47772, Note_on_c, 11, 66, 104
13, 47772, Note_on_c, 11, 72, 88
13, 47812, Note_on_c, 11, 72, 0
13, 47812, Note_on_c, 11, 66, 0
13, 47827, Note_on_c, 11, 65, 104
13, 47827, Note_on_c, 11, 73, 88
13, 47872, Note_on_c, 11, 73, 0
13, 47872, Note_on_c, 11, 65, 0
13, 47892, Note_on_c, 11, 63, 104
13, 47892, Note_on_c, 11, 75, 88
13, 47978, Note_on_c, 11, 75, 0
13, 47978, Note_on_c, 11, 63, 0
13, 48009, Note_on_c, 11, 63, 104
13, 48009, Note_on_c, 11, 75, 88
13, 48158, Note_on_c, 11, 75, 0
13, 48201, Note_on_c, 11, 63, 0
13, 48247, Note_on_c, 11, 61, 104
13, 48252, Note_on_c, 11, 73, 88
13, 48396, Note_on_c, 11, 73, 0
13, 48468, Note_on_c, 11, 61, 0
13, 48492, Note_on_c, 11, 60, 104
13, 48492, Note_on_c, 11, 72, 88
13, 48626, Note_on_c, 11, 72, 0
13, 48626, Note_on_c, 11, 60, 0
13, 50409, Note_on_c, 11, 66, 88
13, 50486, Note_on_c, 11, 66, 0
13, 50527, Note_on_c, 11, 65, 88
13, 50558, Note_on_c, 11, 65, 0
13, 50587, Note_on_c, 11, 65, 88
13, 50620, Note_on_c, 11, 65, 0
13, 50647, Note_on_c, 11, 63, 88
13, 50726, Note_on_c, 11, 63, 0
13, 50832, Note_on_c, 11, 63, 88
13, 50856, Note_on_c, 11, 63, 0
13, 50889, Note_on_c, 11, 68, 88
13, 50952, Note_on_c, 11, 68, 0
13, 51007, Note_on_c, 11, 66, 88
13, 51072, Note_on_c, 11, 66, 0
13, 51127, Note_on_c, 11, 65, 88
13, 51216, Note_on_c, 11, 65, 0
13, 51307, Note_on_c, 11, 65, 88
13, 51355, Note_on_c, 11, 65, 0
13, 51367, Note_on_c, 11, 66, 88
13, 51403, Note_on_c, 11, 66, 0
13, 51427, Note_on_c, 11, 66, 88
13, 51468, Note_on_c, 11, 66, 0
13, 51487, Note_on_c, 11, 65, 88
13, 51564, Note_on_c, 11, 65, 0
13, 51607, Note_on_c, 11, 63, 88
13, 51672, Note_on_c, 11, 63, 0
13, 51727, Note_on_c, 11, 63, 88
13, 51806, Note_on_c, 11, 63, 0
13, 51849, Note_on_c, 11, 66, 88
13, 51950, Note_on_c, 11, 66, 0
13, 51967, Note_on_c, 11, 65, 88
13, 52005, Note_on_c, 11, 65, 0
13, 52027, Note_on_c, 11, 63, 88
13, 52152, Note_on_c, 11, 63, 0
13, 52329, Note_on_c, 11, 68, 88
13, 52408, Note_on_c, 11, 68, 0
13, 52447, Note_on_c, 11, 66, 88
13, 52478, Note_on_c, 11, 66, 0
13, 52507, Note_on_c, 11, 66, 88
13, 52540, Note_on_c, 11, 66, 0
13, 52567, Note_on_c, 11, 65, 88
13, 52646, Note_on_c, 11, 65, 0
13, 52747, Note_on_c, 11, 65, 88
13, 52776, Note_on_c, 11, 65, 0
13, 52809, Note_on_c, 11, 66, 88
13, 52872, Note_on_c, 11, 66, 0
13, 52927, Note_on_c, 11, 65, 88
13, 52992, Note_on_c, 11, 65, 0
13, 53047, Note_on_c, 11, 63, 88
13, 53136, Note_on_c, 11, 63, 0
13, 53227, Note_on_c, 11, 63, 88
13, 53275, Note_on_c, 11, 63, 0
13, 53289, Note_on_c, 11, 66, 88
13, 53323, Note_on_c, 11, 66, 0
13, 53347, Note_on_c, 11, 66, 88
13, 53388, Note_on_c, 11, 66, 0
13, 53407, Note_on_c, 11, 65, 88
13, 53484, Note_on_c, 11, 65, 0
13, 53527, Note_on_c, 11, 63, 88
13, 53592, Note_on_c, 11, 63, 0
13, 53647, Note_on_c, 11, 63, 88
13, 53726, Note_on_c, 11, 63, 0
13, 53769, Note_on_c, 11, 68, 88
13, 53870, Note_on_c, 11, 68, 0
13, 53887, Note_on_c, 11, 66, 88
13, 53947, Note_on_c, 11, 65, 88
13, 53956, Note_on_c, 11, 66, 0
13, 54067, Note_on_c, 11, 65, 0
13, 54249, Note_on_c, 11, 66, 88
13, 54326, Note_on_c, 11, 66, 0
13, 54367, Note_on_c, 11, 65, 88
13, 54396, Note_on_c, 11, 65, 0
13, 54427, Note_on_c, 11, 65, 88
13, 54460, Note_on_c, 11, 65, 0
13, 54487, Note_on_c, 11, 63, 88
13, 54566, Note_on_c, 11, 63, 0
13, 54667, Note_on_c, 11, 63, 88
13, 54696, Note_on_c, 11, 63, 0
13, 54729, Note_on_c, 11, 66, 88
13, 54792, Note_on_c, 11, 66, 0
13, 54847, Note_on_c, 11, 65, 88
13, 54912, Note_on_c, 11, 65, 0
13, 54967, Note_on_c, 11, 63, 88
13, 55056, Note_on_c, 11, 63, 0
13, 55147, Note_on_c, 11, 63, 88
13, 55195, Note_on_c, 11, 63, 0
13, 55209, Note_on_c, 11, 68, 88
13, 55257, Note_on_c, 11, 68, 0
13, 55272, Note_on_c, 11, 68, 88
13, 55310, Note_on_c, 11, 68, 0
13, 55327, Note_on_c, 11, 66, 88
13, 55396, Note_on_c, 11, 66, 0
13, 55452, Note_on_c, 11, 65, 88
13, 55567, Note_on_c, 11, 65, 0
13, 55567, Note_on_c, 11, 65, 88
13, 55568, Note_on_c, 11, 65, 0
13, 55689, Note_on_c, 11, 66, 88
13, 55790, Note_on_c, 11, 66, 0
13, 55807, Note_on_c, 11, 65, 88
13, 55845, Note_on_c, 11, 65, 0
13, 55867, Note_on_c, 11, 63, 88
13, 55987, Note_on_c, 11, 63, 0
13, 56172, Note_on_c, 11, 66, 88
13, 56246, Note_on_c, 11, 66, 0
13, 56287, Note_on_c, 11, 65, 88
13, 56318, Note_on_c, 11, 65, 0
13, 56347, Note_on_c, 11, 65, 88
13, 56380, Note_on_c, 11, 65, 0
13, 56407, Note_on_c, 11, 63, 88
13, 56486, Note_on_c, 11, 63, 0
13, 56587, Note_on_c, 11, 63, 88
13, 56616, Note_on_c, 11, 63, 0
13, 56652, Note_on_c, 11, 68, 88
13, 56712, Note_on_c, 11, 68, 0
13, 56767, Note_on_c, 11, 66, 88
13, 56832, Note_on_c, 11, 66, 0
13, 56887, Note_on_c, 11, 65, 88
13, 56976, Note_on_c, 11, 65, 0
13, 57067, Note_on_c, 11, 65, 88
13, 57115, Note_on_c, 11, 65, 0
13, 57129, Note_on_c, 11, 66, 88
13, 57163, Note_on_c, 11, 66, 0
13, 57187, Note_on_c, 11, 66, 88
13, 57228, Note_on_c, 11, 66, 0
13, 57247, Note_on_c, 11, 65, 88
13, 57324, Note_on_c, 11, 65, 0
13, 57367, Note_on_c, 11, 63, 88
13, 57432, Note_on_c, 11, 63, 0
13, 57487, Note_on_c, 11, 63, 88
13, 57566, Note_on_c, 11, 63, 0
13, 57609, Note_on_c, 11, 66, 88
13, 57710, Note_on_c, 11, 66, 0
13, 57727, Note_on_c, 11, 65, 88
13, 57765, Note_on_c, 11, 65, 0
13, 57787, Note_on_c, 11, 63, 88
13, 57912, Note_on_c, 11, 63, 0
13, 58092, Note_on_c, 11, 68, 88
13, 58168, Note_on_c, 11, 68, 0
13, 58207, Note_on_c, 11, 66, 88
13, 58238, Note_on_c, 11, 66, 0
13, 58267, Note_on_c, 11, 66, 88
13, 58303, Note_on_c, 11, 66, 0
13, 58327, Note_on_c, 11, 65, 88
13, 58406, Note_on_c, 11, 65, 0
13, 58507, Note_on_c, 11, 65, 88
13, 58536, Note_on_c, 11, 65, 0
13, 58569, Note_on_c, 11, 66, 88
13, 58632, Note_on_c, 11, 66, 0
13, 58687, Note_on_c, 11, 65, 88
13, 58752, Note_on_c, 11, 65, 0
13, 58807, Note_on_c, 11, 63, 88
13, 58896, Note_on_c, 11, 63, 0
13, 58987, Note_on_c, 11, 63, 88
13, 59035, Note_on_c, 11, 63, 0
13, 59052, Note_on_c, 11, 66, 88
13, 59083, Note_on_c, 11, 66, 0
13, 59107, Note_on_c, 11, 66, 88
13, 59148, Note_on_c, 11, 66, 0
13, 59167, Note_on_c, 11, 65, 88
13, 59244, Note_on_c, 11, 65, 0
13, 59287, Note_on_c, 11, 63, 88
13, 59352, Note_on_c, 11, 63, 0
13, 59407, Note_on_c, 11, 63, 88
13, 59486, Note_on_c, 11, 63, 0
13, 59532, Note_on_c, 11, 68, 88
13, 59630, Note_on_c, 11, 68, 0
13, 59647, Note_on_c, 11, 66, 88
13, 59707, Note_on_c, 11, 65, 88
13, 59716, Note_on_c, 11, 66, 0
13, 59827, Note_on_c, 11, 65, 0
13, 60012, Note_on_c, 11, 66, 88
13, 60086, Note_on_c, 11, 66, 0
13, 60127, Note_on_c, 11, 65, 88
13, 60156, Note_on_c, 11, 65, 0
13, 60187, Note_on_c, 11, 65, 88
13, 60220, Note_on_c, 11, 65, 0
13, 60247, Note_on_c, 11, 63, 88
13, 60326, Note_on_c, 11, 63, 0
13, 60427, Note_on_c, 11, 63, 88
13, 60456, Note_on_c, 11, 63, 0
13, 60487, Note_on_c, 11, 66, 88
13, 60552, Note_on_c, 11, 66, 0
13, 60607, Note_on_c, 11, 65, 88
13, 60672, Note_on_c, 11, 65, 0
13, 60727, Note_on_c, 11, 63, 88
13, 60816, Note_on_c, 11, 63, 0
13, 60907, Note_on_c, 11, 63, 88
13, 60955, Note_on_c, 11, 63, 0
13, 60972, Note_on_c, 11, 68, 88
13, 61017, Note_on_c, 11, 68, 0
13, 61027, Note_on_c, 11, 68, 88
13, 61070, Note_on_c, 11, 68, 0
13, 61087, Note_on_c, 11, 66, 88
13, 61156, Note_on_c, 11, 66, 0
13, 61207, Note_on_c, 11, 65, 88
13, 61327, Note_on_c, 11, 65, 0
13, 61327, Note_on_c, 11, 65, 88
13, 61328, Note_on_c, 11, 65, 0
13, 61449, Note_on_c, 11, 66, 88
13, 61550, Note_on_c, 11, 66, 0
13, 61567, Note_on_c, 11, 65, 88
13, 61605, Note_on_c, 11, 65, 0
13, 61627, Note_on_c, 11, 63, 88
13, 61747, Note_on_c, 11, 63, 0
13, 61929, Note_on_c, 11, 66, 88
13, 62006, Note_on_c, 11, 66, 0
13, 62047, Note_on_c, 11, 65, 88
13, 62078, Note_on_c, 11, 65, 0
13, 62107, Note_on_c, 11, 65, 88
13, 62140, Note_on_c, 11, 65, 0
13, 62167, Note_on_c, 11, 63, 88
13, 62246, Note_on_c, 11, 63, 0
13, 62347, Note_on_c, 11, 63, 88
13, 62373, Note_on_c, 11, 63, 0
13, 62412, Note_on_c, 11, 68, 88
13, 62472, Note_on_c, 11, 68, 0
13, 62527, Note_on_c, 11, 66, 88
13, 62592, Note_on_c, 11, 66, 0
13, 62647, Note_on_c, 11, 65, 88
13, 62733, Note_on_c, 11, 65, 0
13, 62827, Note_on_c, 11, 65, 88
13, 62877, Note_on_c, 11, 65, 0
13, 62889, Note_on_c, 11, 66, 88
13, 62923, Note_on_c, 11, 66, 0
13, 62947, Note_on_c, 11, 66, 88
13, 62988, Note_on_c, 11, 66, 0
13, 63007, Note_on_c, 11, 65, 88
13, 63081, Note_on_c, 11, 65, 0
13, 63127, Note_on_c, 11, 63, 88
13, 63192, Note_on_c, 11, 63, 0
13, 63247, Note_on_c, 11, 63, 88
13, 63326, Note_on_c, 11, 63, 0
13, 63369, Note_on_c, 11, 66, 88
13, 63470, Note_on_c, 11, 66, 0
13, 63487, Note_on_c, 11, 65, 88
13, 63525, Note_on_c, 11, 65, 0
13, 63547, Note_on_c, 11, 63, 88
13, 63672, Note_on_c, 11, 63, 0
13, 64322, Control_c, 11, 64, 0
13, 64324, Control_c, 11, 64, 0
13, 64324, Control_c, 11, 64, 0
13, 64324, Control_c, 11, 64, 0
13, 64324, Control_c, 11, 64, 0
13, 64324, End_track
14, 0, Start_track
14, 0, MIDI_port, 0
14, 0, Title_t, "-----------------------------------------"
14, 0, End_track
15, 0, Start_track
15, 0, MIDI_port, 0
15, 0, Title_t, "Sequenced by Laurence Fenn"
15, 0, End_track
16, 0, Start_track
16, 0, MIDI_port, 0
16, 0, Title_t, "       lfenn@easynet.co.uk    "
16, 0, End_track
0, 0, End_of_file
