0, 0, Header, 1, 16, 384
1, 0, Start_track
1, 0, Time_signature, 4, 2, 96, 8
1, 0, Sequencer_specific, 3, 0, 0, 65
1, 0, Tempo, 618556
1, 0, End_track
2, 0, Start_track
2, 0, Title_t, "Piano"
2, 0, Control_c, 0, 0, 0
2, 0, Program_c, 0, 0
2, 0, Key_signature, 0, "major"
2, 0, Note_on_c, 0, 67, 100
2, 0, Note_on_c, 0, 55, 100
2, 0, Note_on_c, 0, 59, 100
2, 0, Note_on_c, 0, 62, 100
2, 0, Note_on_c, 0, 55, 100
2, 88, Note_off_c, 0, 55, 100
2, 192, Note_on_c, 0, 55, 100
2, 280, Note_off_c, 0, 55, 100
2, 364, Note_off_c, 0, 67, 100
2, 364, Note_off_c, 0, 59, 100
2, 364, Note_off_c, 0, 62, 100
2, 364, Note_off_c, 0, 55, 100
2, 384, Note_on_c, 0, 55, 100
2, 472, Note_off_c, 0, 55, 100
2, 576, Note_on_c, 0, 55, 100
2, 664, Note_off_c, 0, 55, 100
2, 768, Note_on_c, 0, 55, 100
2, 856, Note_off_c, 0, 55, 100
2, 960, Note_on_c, 0, 55, 100
2, 1048, Note_off_c, 0, 55, 100
2, 1152, Note_on_c, 0, 55, 100
2, 1240, Note_off_c, 0, 55, 100
2, 1344, Note_on_c, 0, 55, 100
2, 1432, Note_off_c, 0, 55, 100
2, 1536, Note_on_c, 0, 67, 100
2, 1536, Note_on_c, 0, 64, 100
2, 1536, Note_on_c, 0, 60, 100
2, 1536, Note_on_c, 0, 55, 100
2, 1536, Note_on_c, 0, 55, 100
2, 1624, Note_off_c, 0, 55, 100
2, 1728, Note_on_c, 0, 55, 100
2, 1816, Note_off_c, 0, 55, 100
2, 1900, Note_off_c, 0, 67, 100
2, 1900, Note_off_c, 0, 64, 100
2, 1900, Note_off_c, 0, 60, 100
2, 1900, Note_off_c, 0, 55, 100
2, 1920, Note_on_c, 0, 55, 100
2, 2008, Note_off_c, 0, 55, 100
2, 2112, Note_on_c, 0, 55, 100
2, 2200, Note_off_c, 0, 55, 100
2, 2304, Note_on_c, 0, 55, 100
2, 2392, Note_off_c, 0, 55, 100
2, 2496, Note_on_c, 0, 55, 100
2, 2584, Note_off_c, 0, 55, 100
2, 2688, Note_on_c, 0, 55, 100
2, 2776, Note_off_c, 0, 55, 100
2, 2880, Note_on_c, 0, 55, 100
2, 2968, Note_off_c, 0, 55, 100
2, 3072, Note_on_c, 0, 67, 100
2, 3072, Note_on_c, 0, 55, 100
2, 3072, Note_on_c, 0, 59, 100
2, 3072, Note_on_c, 0, 62, 100
2, 3072, Note_on_c, 0, 55, 100
2, 3160, Note_off_c, 0, 55, 100
2, 3264, Note_on_c, 0, 55, 100
2, 3352, Note_off_c, 0, 55, 100
2, 3436, Note_off_c, 0, 67, 100
2, 3436, Note_off_c, 0, 59, 100
2, 3436, Note_off_c, 0, 62, 100
2, 3436, Note_off_c, 0, 55, 100
2, 3456, Note_on_c, 0, 67, 100
2, 3456, Note_on_c, 0, 55, 100
2, 3456, Note_on_c, 0, 59, 100
2, 3456, Note_on_c, 0, 62, 100
2, 3456, Note_on_c, 0, 55, 100
2, 3544, Note_off_c, 0, 55, 100
2, 3648, Note_on_c, 0, 55, 100
2, 3736, Note_off_c, 0, 55, 100
2, 3820, Note_off_c, 0, 67, 100
2, 3820, Note_off_c, 0, 59, 100
2, 3820, Note_off_c, 0, 62, 100
2, 3820, Note_off_c, 0, 55, 100
2, 3840, Note_on_c, 0, 55, 100
2, 3928, Note_off_c, 0, 55, 100
2, 4032, Note_on_c, 0, 55, 100
2, 4120, Note_off_c, 0, 55, 100
2, 4224, Note_on_c, 0, 55, 100
2, 4312, Note_off_c, 0, 55, 100
2, 4416, Note_on_c, 0, 55, 100
2, 4504, Note_off_c, 0, 55, 100
2, 4608, Note_on_c, 0, 67, 100
2, 4608, Note_on_c, 0, 64, 100
2, 4608, Note_on_c, 0, 60, 100
2, 4608, Note_on_c, 0, 55, 100
2, 4608, Note_on_c, 0, 55, 100
2, 4696, Note_off_c, 0, 55, 100
2, 4800, Note_on_c, 0, 55, 100
2, 4888, Note_off_c, 0, 55, 100
2, 4972, Note_off_c, 0, 67, 100
2, 4972, Note_off_c, 0, 64, 100
2, 4972, Note_off_c, 0, 60, 100
2, 4972, Note_off_c, 0, 55, 100
2, 4992, Note_on_c, 0, 67, 100
2, 4992, Note_on_c, 0, 64, 100
2, 4992, Note_on_c, 0, 60, 100
2, 4992, Note_on_c, 0, 55, 100
2, 4992, Note_on_c, 0, 55, 100
2, 5080, Note_off_c, 0, 55, 100
2, 5184, Note_on_c, 0, 55, 100
2, 5272, Note_off_c, 0, 55, 100
2, 5356, Note_off_c, 0, 67, 100
2, 5356, Note_off_c, 0, 64, 100
2, 5356, Note_off_c, 0, 60, 100
2, 5356, Note_off_c, 0, 55, 100
2, 5376, Note_on_c, 0, 55, 100
2, 5464, Note_off_c, 0, 55, 100
2, 5568, Note_on_c, 0, 55, 100
2, 5656, Note_off_c, 0, 55, 100
2, 5760, Note_on_c, 0, 55, 100
2, 5848, Note_off_c, 0, 55, 100
2, 5952, Note_on_c, 0, 55, 100
2, 6040, Note_off_c, 0, 55, 100
2, 6144, Note_on_c, 0, 67, 100
2, 6144, Note_on_c, 0, 55, 100
2, 6144, Note_on_c, 0, 59, 100
2, 6144, Note_on_c, 0, 62, 100
2, 6144, Note_on_c, 0, 55, 100
2, 6232, Note_off_c, 0, 55, 100
2, 6336, Note_on_c, 0, 55, 100
2, 6424, Note_off_c, 0, 55, 100
2, 6508, Note_off_c, 0, 67, 100
2, 6508, Note_off_c, 0, 59, 100
2, 6508, Note_off_c, 0, 62, 100
2, 6508, Note_off_c, 0, 55, 100
2, 6528, Note_on_c, 0, 67, 100
2, 6528, Note_on_c, 0, 55, 100
2, 6528, Note_on_c, 0, 59, 100
2, 6528, Note_on_c, 0, 62, 100
2, 6528, Note_on_c, 0, 55, 100
2, 6616, Note_off_c, 0, 55, 100
2, 6720, Note_on_c, 0, 55, 100
2, 6808, Note_off_c, 0, 55, 100
2, 6892, Note_off_c, 0, 67, 100
2, 6892, Note_off_c, 0, 59, 100
2, 6892, Note_off_c, 0, 62, 100
2, 6892, Note_off_c, 0, 55, 100
2, 6912, Note_on_c, 0, 67, 100
2, 6912, Note_on_c, 0, 55, 100
2, 6912, Note_on_c, 0, 59, 100
2, 6912, Note_on_c, 0, 62, 100
2, 6912, Note_on_c, 0, 55, 100
2, 7000, Note_off_c, 0, 55, 100
2, 7104, Note_on_c, 0, 55, 100
2, 7192, Note_off_c, 0, 55, 100
2, 7276, Note_off_c, 0, 67, 100
2, 7276, Note_off_c, 0, 59, 100
2, 7276, Note_off_c, 0, 62, 100
2, 7276, Note_off_c, 0, 55, 100
2, 7296, Note_on_c, 0, 55, 100
2, 7384, Note_off_c, 0, 55, 100
2, 7488, Note_on_c, 0, 67, 100
2, 7488, Note_on_c, 0, 64, 100
2, 7488, Note_on_c, 0, 60, 100
2, 7488, Note_on_c, 0, 55, 100
2, 7488, Note_on_c, 0, 55, 100
2, 7576, Note_off_c, 0, 55, 100
2, 7680, Note_on_c, 0, 55, 100
2, 7768, Note_off_c, 0, 55, 100
2, 7852, Note_off_c, 0, 60, 100
2, 7852, Note_off_c, 0, 64, 100
2, 7852, Note_off_c, 0, 67, 100
2, 7852, Note_off_c, 0, 55, 100
2, 7872, Note_on_c, 0, 67, 100
2, 7872, Note_on_c, 0, 64, 100
2, 7872, Note_on_c, 0, 60, 100
2, 7872, Note_on_c, 0, 55, 100
2, 7872, Note_on_c, 0, 55, 100
2, 7960, Note_off_c, 0, 55, 100
2, 8064, Note_on_c, 0, 55, 100
2, 8152, Note_off_c, 0, 55, 100
2, 8236, Note_off_c, 0, 67, 100
2, 8236, Note_off_c, 0, 64, 100
2, 8236, Note_off_c, 0, 60, 100
2, 8236, Note_off_c, 0, 55, 100
2, 8256, Note_on_c, 0, 67, 100
2, 8256, Note_on_c, 0, 64, 100
2, 8256, Note_on_c, 0, 60, 100
2, 8256, Note_on_c, 0, 55, 100
2, 8256, Note_on_c, 0, 55, 100
2, 8344, Note_off_c, 0, 55, 100
2, 8448, Note_on_c, 0, 55, 100
2, 8536, Note_off_c, 0, 55, 100
2, 8620, Note_off_c, 0, 67, 100
2, 8620, Note_off_c, 0, 64, 100
2, 8620, Note_off_c, 0, 60, 100
2, 8620, Note_off_c, 0, 55, 100
2, 8640, Note_on_c, 0, 55, 100
2, 8728, Note_off_c, 0, 55, 100
2, 8832, Note_on_c, 0, 67, 100
2, 8832, Note_on_c, 0, 64, 100
2, 8832, Note_on_c, 0, 60, 100
2, 8832, Note_on_c, 0, 55, 100
2, 8832, Note_on_c, 0, 55, 100
2, 8920, Note_off_c, 0, 55, 100
2, 9024, Note_on_c, 0, 55, 100
2, 9112, Note_off_c, 0, 55, 100
2, 9196, Note_off_c, 0, 67, 100
2, 9196, Note_off_c, 0, 64, 100
2, 9196, Note_off_c, 0, 60, 100
2, 9196, Note_off_c, 0, 55, 100
2, 9216, Note_on_c, 0, 67, 100
2, 9216, Note_on_c, 0, 55, 100
2, 9216, Note_on_c, 0, 59, 100
2, 9216, Note_on_c, 0, 62, 100
2, 9216, Note_on_c, 0, 55, 100
2, 9304, Note_off_c, 0, 55, 100
2, 9408, Note_on_c, 0, 55, 100
2, 9496, Note_off_c, 0, 55, 100
2, 9580, Note_off_c, 0, 67, 100
2, 9580, Note_off_c, 0, 59, 100
2, 9580, Note_off_c, 0, 62, 100
2, 9580, Note_off_c, 0, 55, 100
2, 9600, Note_on_c, 0, 55, 100
2, 9688, Note_off_c, 0, 55, 100
2, 9792, Note_on_c, 0, 67, 100
2, 9792, Note_on_c, 0, 55, 100
2, 9792, Note_on_c, 0, 59, 100
2, 9792, Note_on_c, 0, 62, 100
2, 9792, Note_on_c, 0, 55, 100
2, 9880, Note_off_c, 0, 55, 100
2, 9984, Note_on_c, 0, 55, 100
2, 10072, Note_off_c, 0, 55, 100
2, 10156, Note_off_c, 0, 67, 100
2, 10156, Note_off_c, 0, 59, 100
2, 10156, Note_off_c, 0, 62, 100
2, 10156, Note_off_c, 0, 55, 100
2, 10176, Note_on_c, 0, 55, 100
2, 10264, Note_off_c, 0, 55, 100
2, 10368, Note_on_c, 0, 55, 100
2, 10456, Note_off_c, 0, 55, 100
2, 10560, Note_on_c, 0, 55, 100
2, 10648, Note_off_c, 0, 55, 100
2, 10752, Note_on_c, 0, 67, 100
2, 10752, Note_on_c, 0, 64, 100
2, 10752, Note_on_c, 0, 60, 100
2, 10752, Note_on_c, 0, 55, 100
2, 10752, Note_on_c, 0, 55, 100
2, 10840, Note_off_c, 0, 55, 100
2, 10944, Note_on_c, 0, 55, 100
2, 11032, Note_off_c, 0, 55, 100
2, 11116, Note_off_c, 0, 67, 100
2, 11116, Note_off_c, 0, 64, 100
2, 11116, Note_off_c, 0, 60, 100
2, 11116, Note_off_c, 0, 55, 100
2, 11136, Note_on_c, 0, 67, 100
2, 11136, Note_on_c, 0, 64, 100
2, 11136, Note_on_c, 0, 60, 100
2, 11136, Note_on_c, 0, 55, 100
2, 11136, Note_on_c, 0, 55, 100
2, 11224, Note_off_c, 0, 55, 100
2, 11328, Note_on_c, 0, 55, 100
2, 11416, Note_off_c, 0, 55, 100
2, 11500, Note_off_c, 0, 67, 100
2, 11500, Note_off_c, 0, 64, 100
2, 11500, Note_off_c, 0, 60, 100
2, 11500, Note_off_c, 0, 55, 100
2, 11520, Note_on_c, 0, 55, 100
2, 11608, Note_off_c, 0, 55, 100
2, 11712, Note_on_c, 0, 67, 100
2, 11712, Note_on_c, 0, 64, 100
2, 11712, Note_on_c, 0, 60, 100
2, 11712, Note_on_c, 0, 55, 100
2, 11712, Note_on_c, 0, 55, 100
2, 11800, Note_off_c, 0, 55, 100
2, 11904, Note_on_c, 0, 55, 100
2, 11992, Note_off_c, 0, 55, 100
2, 12076, Note_off_c, 0, 67, 100
2, 12076, Note_off_c, 0, 64, 100
2, 12076, Note_off_c, 0, 60, 100
2, 12076, Note_off_c, 0, 55, 100
2, 12096, Note_on_c, 0, 55, 100
2, 12184, Note_off_c, 0, 55, 100
2, 12288, Note_on_c, 0, 55, 100
2, 12376, Note_off_c, 0, 55, 100
2, 12480, Note_on_c, 0, 55, 100
2, 12568, Note_off_c, 0, 55, 100
2, 12672, Note_on_c, 0, 55, 100
2, 12760, Note_off_c, 0, 55, 100
2, 12864, Note_on_c, 0, 55, 100
2, 12952, Note_off_c, 0, 55, 100
2, 13056, Note_on_c, 0, 55, 100
2, 13144, Note_off_c, 0, 55, 100
2, 13248, Note_on_c, 0, 55, 100
2, 13336, Note_off_c, 0, 55, 100
2, 13440, Note_on_c, 0, 55, 100
2, 13528, Note_off_c, 0, 55, 100
2, 13632, Note_on_c, 0, 55, 100
2, 13720, Note_off_c, 0, 55, 100
2, 13824, Note_on_c, 0, 55, 100
2, 13912, Note_off_c, 0, 55, 100
2, 14016, Note_on_c, 0, 55, 100
2, 14104, Note_off_c, 0, 55, 100
2, 14208, Note_on_c, 0, 55, 100
2, 14296, Note_off_c, 0, 55, 100
2, 14400, Note_on_c, 0, 55, 100
2, 14488, Note_off_c, 0, 55, 100
2, 14592, Note_on_c, 0, 55, 100
2, 14680, Note_off_c, 0, 55, 100
2, 14784, Note_on_c, 0, 55, 100
2, 14872, Note_off_c, 0, 55, 100
2, 14976, Note_on_c, 0, 55, 100
2, 15064, Note_off_c, 0, 55, 100
2, 15168, Note_on_c, 0, 55, 100
2, 15256, Note_off_c, 0, 55, 100
2, 15360, Note_on_c, 0, 55, 100
2, 15360, Note_on_c, 0, 59, 100
2, 15360, Note_on_c, 0, 62, 100
2, 15360, Note_on_c, 0, 55, 100
2, 15448, Note_off_c, 0, 55, 100
2, 15552, Note_on_c, 0, 55, 100
2, 15640, Note_off_c, 0, 55, 100
2, 15724, Note_off_c, 0, 59, 100
2, 15724, Note_off_c, 0, 62, 100
2, 15724, Note_off_c, 0, 55, 100
2, 15744, Note_on_c, 0, 55, 100
2, 15744, Note_on_c, 0, 59, 100
2, 15744, Note_on_c, 0, 62, 100
2, 15744, Note_on_c, 0, 55, 100
2, 15832, Note_off_c, 0, 55, 100
2, 15936, Note_on_c, 0, 55, 100
2, 16024, Note_off_c, 0, 55, 100
2, 16108, Note_off_c, 0, 59, 100
2, 16108, Note_off_c, 0, 62, 100
2, 16108, Note_off_c, 0, 55, 100
2, 16128, Note_on_c, 0, 55, 100
2, 16128, Note_on_c, 0, 59, 100
2, 16128, Note_on_c, 0, 62, 100
2, 16128, Note_on_c, 0, 55, 100
2, 16216, Note_off_c, 0, 55, 100
2, 16320, Note_on_c, 0, 55, 100
2, 16408, Note_off_c, 0, 55, 100
2, 16492, Note_off_c, 0, 59, 100
2, 16492, Note_off_c, 0, 62, 100
2, 16492, Note_off_c, 0, 55, 100
2, 16512, Note_on_c, 0, 55, 100
2, 16512, Note_on_c, 0, 59, 100
2, 16512, Note_on_c, 0, 62, 100
2, 16512, Note_on_c, 0, 55, 100
2, 16600, Note_off_c, 0, 55, 100
2, 16704, Note_on_c, 0, 55, 100
2, 16792, Note_off_c, 0, 55, 100
2, 16876, Note_off_c, 0, 59, 100
2, 16876, Note_off_c, 0, 62, 100
2, 16876, Note_off_c, 0, 55, 100
2, 16896, Note_on_c, 0, 55, 100
2, 16896, Note_on_c, 0, 59, 100
2, 16896, Note_on_c, 0, 62, 100
2, 16896, Note_on_c, 0, 55, 100
2, 16984, Note_off_c, 0, 55, 100
2, 17088, Note_on_c, 0, 55, 100
2, 17176, Note_off_c, 0, 55, 100
2, 17260, Note_off_c, 0, 59, 100
2, 17260, Note_off_c, 0, 62, 100
2, 17260, Note_off_c, 0, 55, 100
2, 17280, Note_on_c, 0, 55, 100
2, 17368, Note_off_c, 0, 55, 100
2, 17472, Note_on_c, 0, 55, 100
2, 17560, Note_off_c, 0, 55, 100
2, 17664, Note_on_c, 0, 55, 100
2, 17752, Note_off_c, 0, 55, 100
2, 17856, Note_on_c, 0, 55, 100
2, 17944, Note_off_c, 0, 55, 100
2, 18048, Note_on_c, 0, 55, 100
2, 18136, Note_off_c, 0, 55, 100
2, 18240, Note_on_c, 0, 55, 100
2, 18328, Note_off_c, 0, 55, 100
2, 18432, Note_on_c, 0, 65, 100
2, 18432, Note_on_c, 0, 60, 100
2, 18432, Note_on_c, 0, 57, 100
2, 18432, Note_on_c, 0, 55, 100
2, 18520, Note_off_c, 0, 55, 100
2, 18612, Note_off_c, 0, 65, 100
2, 18612, Note_off_c, 0, 60, 100
2, 18612, Note_off_c, 0, 57, 100
2, 18624, Note_on_c, 0, 65, 100
2, 18624, Note_on_c, 0, 60, 100
2, 18624, Note_on_c, 0, 57, 100
2, 18624, Note_on_c, 0, 55, 100
2, 18712, Note_off_c, 0, 55, 100
2, 18804, Note_off_c, 0, 65, 100
2, 18804, Note_off_c, 0, 60, 100
2, 18804, Note_off_c, 0, 57, 100
2, 18816, Note_on_c, 0, 65, 100
2, 18816, Note_on_c, 0, 60, 100
2, 18816, Note_on_c, 0, 57, 100
2, 18816, Note_on_c, 0, 55, 100
2, 18904, Note_off_c, 0, 55, 100
2, 18996, Note_off_c, 0, 65, 100
2, 18996, Note_off_c, 0, 60, 100
2, 18996, Note_off_c, 0, 57, 100
2, 19008, Note_on_c, 0, 65, 100
2, 19008, Note_on_c, 0, 57, 100
2, 19008, Note_on_c, 0, 60, 100
2, 19008, Note_on_c, 0, 55, 100
2, 19096, Note_off_c, 0, 55, 100
2, 19200, Note_on_c, 0, 55, 100
2, 19288, Note_off_c, 0, 55, 100
2, 19372, Note_off_c, 0, 65, 100
2, 19372, Note_off_c, 0, 57, 100
2, 19372, Note_off_c, 0, 60, 100
2, 19392, Note_on_c, 0, 55, 100
2, 19480, Note_off_c, 0, 55, 100
2, 19584, Note_on_c, 0, 55, 100
2, 19672, Note_off_c, 0, 55, 100
2, 19776, Note_on_c, 0, 55, 100
2, 19864, Note_off_c, 0, 55, 100
2, 19968, Note_on_c, 0, 53, 100
2, 20148, Note_off_c, 0, 53, 100
2, 20160, Note_on_c, 0, 53, 100
2, 20340, Note_off_c, 0, 53, 100
2, 20352, Note_on_c, 0, 53, 100
2, 20532, Note_off_c, 0, 53, 100
2, 20544, Note_on_c, 0, 53, 100
2, 20724, Note_off_c, 0, 53, 100
2, 20736, Note_on_c, 0, 55, 100
2, 20916, Note_off_c, 0, 55, 100
2, 20928, Note_on_c, 0, 55, 100
2, 21108, Note_off_c, 0, 55, 100
2, 21120, Note_on_c, 0, 55, 100
2, 21300, Note_off_c, 0, 55, 100
2, 21312, Note_on_c, 0, 55, 100
2, 21492, Note_off_c, 0, 55, 100
2, 21504, Note_on_c, 0, 55, 100
2, 21504, Note_on_c, 0, 64, 100
2, 21504, Note_on_c, 0, 60, 100
2, 21504, Note_on_c, 0, 60, 100
2, 21592, Note_off_c, 0, 60, 100
2, 21696, Note_on_c, 0, 60, 100
2, 21784, Note_off_c, 0, 60, 100
2, 21868, Note_off_c, 0, 55, 100
2, 21868, Note_off_c, 0, 64, 100
2, 21868, Note_off_c, 0, 60, 100
2, 21888, Note_on_c, 0, 60, 100
2, 21976, Note_off_c, 0, 60, 100
2, 22080, Note_on_c, 0, 60, 100
2, 22168, Note_off_c, 0, 60, 100
2, 22272, Note_on_c, 0, 60, 100
2, 22360, Note_off_c, 0, 60, 100
2, 22464, Note_on_c, 0, 60, 100
2, 22552, Note_off_c, 0, 60, 100
2, 22656, Note_on_c, 0, 60, 100
2, 22744, Note_off_c, 0, 60, 100
2, 22848, Note_on_c, 0, 60, 100
2, 22936, Note_off_c, 0, 60, 100
2, 23040, Note_on_c, 0, 55, 100
2, 23040, Note_on_c, 0, 59, 100
2, 23040, Note_on_c, 0, 62, 100
2, 23040, Note_on_c, 0, 55, 100
2, 23128, Note_off_c, 0, 55, 100
2, 23232, Note_on_c, 0, 55, 100
2, 23320, Note_off_c, 0, 55, 100
2, 23404, Note_off_c, 0, 59, 100
2, 23404, Note_off_c, 0, 62, 100
2, 23404, Note_off_c, 0, 55, 100
2, 23424, Note_on_c, 0, 55, 100
2, 23512, Note_off_c, 0, 55, 100
2, 23616, Note_on_c, 0, 55, 100
2, 23704, Note_off_c, 0, 55, 100
2, 23808, Note_on_c, 0, 55, 100
2, 23896, Note_off_c, 0, 55, 100
2, 24000, Note_on_c, 0, 55, 100
2, 24088, Note_off_c, 0, 55, 100
2, 24192, Note_on_c, 0, 55, 100
2, 24280, Note_off_c, 0, 55, 100
2, 24384, Note_on_c, 0, 55, 100
2, 24472, Note_off_c, 0, 55, 100
2, 24576, Note_on_c, 0, 55, 100
2, 24664, Note_off_c, 0, 55, 100
2, 24768, Note_on_c, 0, 55, 100
2, 24856, Note_off_c, 0, 55, 100
2, 24960, Note_on_c, 0, 55, 100
2, 25048, Note_off_c, 0, 55, 100
2, 25152, Note_on_c, 0, 55, 100
2, 25240, Note_off_c, 0, 55, 100
2, 25344, Note_on_c, 0, 55, 100
2, 25432, Note_off_c, 0, 55, 100
2, 25536, Note_on_c, 0, 55, 100
2, 25624, Note_off_c, 0, 55, 100
2, 25728, Note_on_c, 0, 55, 100
2, 25816, Note_off_c, 0, 55, 100
2, 25920, Note_on_c, 0, 55, 100
2, 26008, Note_off_c, 0, 55, 100
2, 26112, Note_on_c, 0, 53, 100
2, 26112, Note_on_c, 0, 60, 100
2, 26112, Note_on_c, 0, 57, 100
2, 26112, Note_on_c, 0, 53, 100
2, 26200, Note_off_c, 0, 53, 100
2, 26304, Note_on_c, 0, 53, 100
2, 26392, Note_off_c, 0, 53, 100
2, 26476, Note_off_c, 0, 60, 100
2, 26476, Note_off_c, 0, 57, 100
2, 26476, Note_off_c, 0, 53, 100
2, 26496, Note_on_c, 0, 53, 100
2, 26496, Note_on_c, 0, 60, 100
2, 26496, Note_on_c, 0, 57, 100
2, 26688, Note_on_c, 0, 53, 100
2, 26776, Note_off_c, 0, 53, 100
2, 26860, Note_off_c, 0, 60, 100
2, 26860, Note_off_c, 0, 57, 100
2, 26860, Note_off_c, 0, 53, 100
2, 26880, Note_on_c, 0, 55, 100
2, 26880, Note_on_c, 0, 59, 100
2, 26880, Note_on_c, 0, 62, 100
2, 27244, Note_off_c, 0, 55, 100
2, 27244, Note_off_c, 0, 59, 100
2, 27244, Note_off_c, 0, 62, 100
2, 27264, Note_on_c, 0, 55, 100
2, 27264, Note_on_c, 0, 59, 100
2, 27264, Note_on_c, 0, 62, 100
2, 27628, Note_off_c, 0, 55, 100
2, 27628, Note_off_c, 0, 59, 100
2, 27628, Note_off_c, 0, 62, 100
2, 27648, Note_on_c, 0, 55, 100
2, 27648, Note_on_c, 0, 60, 100
2, 27648, Note_on_c, 0, 64, 100
2, 27648, Note_on_c, 0, 60, 100
2, 27736, Note_off_c, 0, 60, 100
2, 27928, Note_off_c, 0, 60, 100
2, 28012, Note_off_c, 0, 55, 100
2, 28012, Note_off_c, 0, 64, 100
2, 28608, Note_on_c, 0, 60, 100
2, 28608, Note_on_c, 0, 55, 100
2, 28608, Note_on_c, 0, 60, 100
2, 28608, Note_on_c, 0, 64, 100
2, 28608, Note_on_c, 0, 60, 100
2, 28696, Note_off_c, 0, 60, 100
2, 28696, Note_off_c, 0, 60, 100
2, 28800, Note_on_c, 0, 60, 100
2, 28800, Note_on_c, 0, 55, 100
2, 28800, Note_on_c, 0, 60, 100
2, 28800, Note_on_c, 0, 64, 100
2, 28800, Note_on_c, 0, 60, 100
2, 28888, Note_off_c, 0, 60, 100
2, 28888, Note_off_c, 0, 60, 100
2, 28972, Note_off_c, 0, 55, 100
2, 28972, Note_off_c, 0, 64, 100
2, 28972, Note_off_c, 0, 60, 100
2, 28992, Note_on_c, 0, 60, 100
2, 28992, Note_on_c, 0, 55, 100
2, 28992, Note_on_c, 0, 64, 100
2, 29080, Note_off_c, 0, 60, 100
2, 29164, Note_off_c, 0, 55, 100
2, 29164, Note_off_c, 0, 64, 100
2, 29164, Note_off_c, 0, 60, 100
2, 29172, Note_off_c, 0, 55, 100
2, 29172, Note_off_c, 0, 64, 100
2, 29184, Note_on_c, 0, 55, 100
2, 29184, Note_on_c, 0, 59, 100
2, 29184, Note_on_c, 0, 62, 100
2, 29184, Note_on_c, 0, 55, 100
2, 29272, Note_off_c, 0, 55, 100
2, 29376, Note_on_c, 0, 55, 100
2, 29464, Note_off_c, 0, 55, 100
2, 29548, Note_off_c, 0, 59, 100
2, 29548, Note_off_c, 0, 62, 100
2, 29548, Note_off_c, 0, 55, 100
2, 29568, Note_on_c, 0, 55, 100
2, 29656, Note_off_c, 0, 55, 100
2, 29760, Note_on_c, 0, 55, 100
2, 29848, Note_off_c, 0, 55, 100
2, 29952, Note_on_c, 0, 55, 100
2, 30040, Note_off_c, 0, 55, 100
2, 30144, Note_on_c, 0, 55, 100
2, 30232, Note_off_c, 0, 55, 100
2, 30336, Note_on_c, 0, 55, 100
2, 30424, Note_off_c, 0, 55, 100
2, 30528, Note_on_c, 0, 55, 100
2, 30616, Note_off_c, 0, 55, 100
2, 30720, Note_on_c, 0, 55, 100
2, 30720, Note_on_c, 0, 60, 100
2, 30720, Note_on_c, 0, 64, 100
2, 30720, Note_on_c, 0, 55, 100
2, 30808, Note_off_c, 0, 55, 100
2, 30912, Note_on_c, 0, 55, 100
2, 31000, Note_off_c, 0, 55, 100
2, 31080, Note_off_c, 0, 60, 100
2, 31080, Note_off_c, 0, 64, 100
2, 31080, Note_off_c, 0, 55, 100
2, 31104, Note_on_c, 0, 55, 100
2, 31192, Note_off_c, 0, 55, 100
2, 31296, Note_on_c, 0, 55, 100
2, 31384, Note_off_c, 0, 55, 100
2, 31488, Note_on_c, 0, 55, 100
2, 31576, Note_off_c, 0, 55, 100
2, 31680, Note_on_c, 0, 55, 100
2, 31768, Note_off_c, 0, 55, 100
2, 31872, Note_on_c, 0, 55, 100
2, 31960, Note_off_c, 0, 55, 100
2, 32064, Note_on_c, 0, 55, 100
2, 32152, Note_off_c, 0, 55, 100
2, 32256, Note_on_c, 0, 55, 100
2, 32256, Note_on_c, 0, 59, 100
2, 32256, Note_on_c, 0, 62, 100
2, 32256, Note_on_c, 0, 55, 100
2, 32344, Note_off_c, 0, 55, 100
2, 32448, Note_on_c, 0, 55, 100
2, 32536, Note_off_c, 0, 55, 100
2, 32616, Note_off_c, 0, 59, 100
2, 32616, Note_off_c, 0, 62, 100
2, 32616, Note_off_c, 0, 55, 100
2, 32640, Note_on_c, 0, 55, 100
2, 32640, Note_on_c, 0, 59, 100
2, 32640, Note_on_c, 0, 62, 100
2, 32640, Note_on_c, 0, 55, 100
2, 32728, Note_off_c, 0, 55, 100
2, 32832, Note_on_c, 0, 55, 100
2, 32920, Note_off_c, 0, 55, 100
2, 33000, Note_off_c, 0, 59, 100
2, 33000, Note_off_c, 0, 62, 100
2, 33000, Note_off_c, 0, 55, 100
2, 33024, Note_on_c, 0, 55, 100
2, 33024, Note_on_c, 0, 59, 100
2, 33024, Note_on_c, 0, 62, 100
2, 33024, Note_on_c, 0, 55, 100
2, 33112, Note_off_c, 0, 55, 100
2, 33216, Note_on_c, 0, 55, 100
2, 33304, Note_off_c, 0, 55, 100
2, 33384, Note_off_c, 0, 59, 100
2, 33384, Note_off_c, 0, 62, 100
2, 33384, Note_off_c, 0, 55, 100
2, 33408, Note_on_c, 0, 55, 100
2, 33408, Note_on_c, 0, 59, 100
2, 33408, Note_on_c, 0, 62, 100
2, 33408, Note_on_c, 0, 55, 100
2, 33496, Note_off_c, 0, 55, 100
2, 33768, Note_off_c, 0, 59, 100
2, 33768, Note_off_c, 0, 62, 100
2, 33768, Note_off_c, 0, 55, 100
2, 33792, Note_on_c, 0, 55, 100
2, 33792, Note_on_c, 0, 59, 100
2, 33792, Note_on_c, 0, 62, 100
2, 33792, Note_on_c, 0, 55, 100
2, 33880, Note_off_c, 0, 55, 100
2, 33984, Note_on_c, 0, 55, 100
2, 34072, Note_off_c, 0, 55, 100
2, 34152, Note_off_c, 0, 59, 100
2, 34152, Note_off_c, 0, 62, 100
2, 34152, Note_off_c, 0, 55, 100
2, 34176, Note_on_c, 0, 55, 100
2, 34264, Note_off_c, 0, 55, 100
2, 34368, Note_on_c, 0, 55, 100
2, 34456, Note_off_c, 0, 55, 100
2, 34560, Note_on_c, 0, 55, 100
2, 34648, Note_off_c, 0, 55, 100
2, 34752, Note_on_c, 0, 55, 100
2, 34840, Note_off_c, 0, 55, 100
2, 34944, Note_on_c, 0, 55, 100
2, 35032, Note_off_c, 0, 55, 100
2, 35136, Note_on_c, 0, 55, 100
2, 35224, Note_off_c, 0, 55, 100
2, 35328, Note_on_c, 0, 60, 100
2, 35328, Note_on_c, 0, 55, 100
2, 35328, Note_on_c, 0, 64, 100
2, 35328, Note_on_c, 0, 55, 100
2, 35416, Note_off_c, 0, 55, 100
2, 35520, Note_on_c, 0, 55, 100
2, 35608, Note_off_c, 0, 55, 100
2, 35688, Note_off_c, 0, 60, 100
2, 35688, Note_off_c, 0, 64, 100
2, 35688, Note_off_c, 0, 55, 100
2, 35712, Note_on_c, 0, 55, 100
2, 35800, Note_off_c, 0, 55, 100
2, 35904, Note_on_c, 0, 60, 100
2, 35904, Note_on_c, 0, 55, 100
2, 35904, Note_on_c, 0, 64, 100
2, 35904, Note_on_c, 0, 55, 100
2, 35992, Note_off_c, 0, 55, 100
2, 36096, Note_on_c, 0, 55, 100
2, 36184, Note_off_c, 0, 55, 100
2, 36264, Note_off_c, 0, 60, 100
2, 36264, Note_off_c, 0, 64, 100
2, 36264, Note_off_c, 0, 55, 100
2, 36288, Note_on_c, 0, 55, 100
2, 36376, Note_off_c, 0, 55, 100
2, 36480, Note_on_c, 0, 55, 100
2, 36568, Note_off_c, 0, 55, 100
2, 36672, Note_on_c, 0, 55, 100
2, 36760, Note_off_c, 0, 55, 100
2, 36864, Note_on_c, 0, 53, 100
2, 36864, Note_on_c, 0, 60, 100
2, 36864, Note_on_c, 0, 57, 100
2, 37224, Note_off_c, 0, 53, 100
2, 37224, Note_off_c, 0, 60, 100
2, 37224, Note_off_c, 0, 57, 100
2, 37248, Note_on_c, 0, 53, 100
2, 37248, Note_on_c, 0, 60, 100
2, 37248, Note_on_c, 0, 57, 100
2, 37608, Note_off_c, 0, 53, 100
2, 37608, Note_off_c, 0, 60, 100
2, 37608, Note_off_c, 0, 57, 100
2, 37632, Note_on_c, 0, 55, 100
2, 37632, Note_on_c, 0, 59, 100
2, 37632, Note_on_c, 0, 62, 100
2, 37992, Note_off_c, 0, 55, 100
2, 37992, Note_off_c, 0, 59, 100
2, 37992, Note_off_c, 0, 62, 100
2, 38016, Note_on_c, 0, 55, 100
2, 38016, Note_on_c, 0, 59, 100
2, 38016, Note_on_c, 0, 62, 100
2, 38376, Note_off_c, 0, 55, 100
2, 38376, Note_off_c, 0, 59, 100
2, 38376, Note_off_c, 0, 62, 100
2, 38400, Note_on_c, 0, 55, 100
2, 38400, Note_on_c, 0, 60, 100
2, 38400, Note_on_c, 0, 64, 100
2, 38592, Note_on_c, 0, 60, 100
2, 38680, Note_off_c, 0, 60, 100
2, 38760, Note_off_c, 0, 55, 100
2, 38760, Note_off_c, 0, 64, 100
2, 38760, Note_off_c, 0, 60, 100
2, 38784, Note_on_c, 0, 60, 100
2, 38872, Note_off_c, 0, 60, 100
2, 38976, Note_on_c, 0, 60, 100
2, 39064, Note_off_c, 0, 60, 100
2, 39168, Note_on_c, 0, 60, 100
2, 39256, Note_off_c, 0, 60, 100
2, 39360, Note_on_c, 0, 60, 100
2, 39448, Note_off_c, 0, 60, 100
2, 39456, Note_on_c, 0, 53, 100
2, 39544, Note_off_c, 0, 53, 100
2, 39552, Note_on_c, 0, 55, 100
2, 39640, Note_off_c, 0, 55, 100
2, 39648, Note_on_c, 0, 60, 100
2, 39648, Note_on_c, 0, 64, 100
2, 39736, Note_off_c, 0, 60, 100
2, 39736, Note_off_c, 0, 64, 100
2, 39744, Note_on_c, 0, 60, 100
2, 39744, Note_on_c, 0, 64, 100
2, 39920, Note_off_c, 0, 64, 100
2, 39936, Note_on_c, 0, 55, 100
2, 40024, Note_off_c, 0, 55, 100
2, 40104, Note_off_c, 0, 60, 100
2, 40128, Note_on_c, 0, 55, 100
2, 40216, Note_off_c, 0, 55, 100
2, 40320, Note_on_c, 0, 55, 100
2, 40320, Note_on_c, 0, 59, 100
2, 40320, Note_on_c, 0, 62, 100
2, 40320, Note_on_c, 0, 55, 100
2, 40408, Note_off_c, 0, 55, 100
2, 40512, Note_on_c, 0, 55, 100
2, 40600, Note_off_c, 0, 55, 100
2, 40680, Note_off_c, 0, 59, 100
2, 40680, Note_off_c, 0, 62, 100
2, 40680, Note_off_c, 0, 55, 100
2, 40704, Note_on_c, 0, 55, 100
2, 40792, Note_off_c, 0, 55, 100
2, 40896, Note_on_c, 0, 55, 100
2, 40984, Note_off_c, 0, 55, 100
2, 41088, Note_on_c, 0, 55, 100
2, 41088, Note_on_c, 0, 59, 100
2, 41088, Note_on_c, 0, 62, 100
2, 41088, Note_on_c, 0, 55, 100
2, 41176, Note_off_c, 0, 55, 100
2, 41280, Note_on_c, 0, 55, 100
2, 41368, Note_off_c, 0, 55, 100
2, 41448, Note_off_c, 0, 59, 100
2, 41448, Note_off_c, 0, 62, 100
2, 41448, Note_off_c, 0, 55, 100
2, 41472, Note_on_c, 0, 60, 100
2, 41472, Note_on_c, 0, 64, 100
2, 41472, Note_on_c, 0, 55, 100
2, 41472, Note_on_c, 0, 55, 100
2, 41560, Note_off_c, 0, 55, 100
2, 41664, Note_on_c, 0, 55, 100
2, 41752, Note_off_c, 0, 55, 100
2, 41832, Note_off_c, 0, 60, 100
2, 41832, Note_off_c, 0, 64, 100
2, 41832, Note_off_c, 0, 55, 100
2, 41856, Note_on_c, 0, 55, 100
2, 41944, Note_off_c, 0, 55, 100
2, 42048, Note_on_c, 0, 60, 100
2, 42048, Note_on_c, 0, 64, 100
2, 42048, Note_on_c, 0, 55, 100
2, 42048, Note_on_c, 0, 55, 100
2, 42136, Note_off_c, 0, 55, 100
2, 42240, Note_on_c, 0, 55, 100
2, 42328, Note_off_c, 0, 55, 100
2, 42408, Note_off_c, 0, 60, 100
2, 42408, Note_off_c, 0, 64, 100
2, 42408, Note_off_c, 0, 55, 100
2, 42432, Note_on_c, 0, 60, 100
2, 42432, Note_on_c, 0, 64, 100
2, 42432, Note_on_c, 0, 55, 100
2, 42432, Note_on_c, 0, 55, 100
2, 42520, Note_off_c, 0, 55, 100
2, 42624, Note_on_c, 0, 55, 100
2, 42712, Note_off_c, 0, 55, 100
2, 42792, Note_off_c, 0, 60, 100
2, 42792, Note_off_c, 0, 64, 100
2, 42792, Note_off_c, 0, 55, 100
2, 42816, Note_on_c, 0, 60, 100
2, 42816, Note_on_c, 0, 64, 100
2, 42816, Note_on_c, 0, 55, 100
2, 43008, Note_on_c, 0, 53, 100
2, 43008, Note_on_c, 0, 60, 100
2, 43008, Note_on_c, 0, 57, 100
2, 43176, Note_off_c, 0, 55, 100
2, 43176, Note_off_c, 0, 60, 100
2, 43176, Note_off_c, 0, 64, 100
2, 43200, Note_on_c, 0, 53, 100
2, 43288, Note_off_c, 0, 53, 100
2, 43368, Note_off_c, 0, 60, 100
2, 43368, Note_off_c, 0, 57, 100
2, 43368, Note_off_c, 0, 53, 100
2, 43392, Note_on_c, 0, 53, 100
2, 43392, Note_on_c, 0, 60, 100
2, 43392, Note_on_c, 0, 57, 100
2, 43584, Note_on_c, 0, 53, 100
2, 43672, Note_off_c, 0, 53, 100
2, 43752, Note_off_c, 0, 60, 100
2, 43752, Note_off_c, 0, 57, 100
2, 43752, Note_off_c, 0, 53, 100
2, 43776, Note_on_c, 0, 55, 100
2, 43776, Note_on_c, 0, 59, 100
2, 43776, Note_on_c, 0, 62, 100
2, 44136, Note_off_c, 0, 55, 100
2, 44136, Note_off_c, 0, 59, 100
2, 44136, Note_off_c, 0, 62, 100
2, 44160, Note_on_c, 0, 55, 100
2, 44160, Note_on_c, 0, 59, 100
2, 44160, Note_on_c, 0, 62, 100
2, 44520, Note_off_c, 0, 55, 100
2, 44520, Note_off_c, 0, 59, 100
2, 44520, Note_off_c, 0, 62, 100
2, 44544, Note_on_c, 0, 55, 100
2, 44544, Note_on_c, 0, 60, 100
2, 44544, Note_on_c, 0, 64, 100
2, 44904, Note_off_c, 0, 55, 100
2, 44904, Note_off_c, 0, 60, 100
2, 44904, Note_off_c, 0, 64, 100
2, 45120, Note_on_c, 0, 55, 100
2, 45296, Note_off_c, 0, 55, 100
2, 45312, Note_on_c, 0, 67, 100
2, 45488, Note_off_c, 0, 67, 100
2, 45504, Note_on_c, 0, 64, 100
2, 45680, Note_off_c, 0, 64, 100
2, 45696, Note_on_c, 0, 60, 100
2, 46056, Note_off_c, 0, 60, 100
2, 46464, Note_on_c, 0, 59, 100
2, 46464, Note_on_c, 0, 62, 100
2, 46464, Note_on_c, 0, 55, 100
2, 46828, Note_off_c, 0, 59, 100
2, 46828, Note_off_c, 0, 62, 100
2, 46828, Note_off_c, 0, 55, 100
2, 47232, Note_on_c, 0, 59, 100
2, 47232, Note_on_c, 0, 62, 100
2, 47232, Note_on_c, 0, 55, 100
2, 47596, Note_off_c, 0, 59, 100
2, 47596, Note_off_c, 0, 62, 100
2, 47596, Note_off_c, 0, 55, 100
2, 48000, Note_on_c, 0, 55, 100
2, 48000, Note_on_c, 0, 60, 100
2, 48000, Note_on_c, 0, 64, 100
2, 48364, Note_off_c, 0, 55, 100
2, 48364, Note_off_c, 0, 60, 100
2, 48364, Note_off_c, 0, 64, 100
2, 48768, Note_on_c, 0, 55, 100
2, 48768, Note_on_c, 0, 60, 100
2, 48768, Note_on_c, 0, 64, 100
2, 49132, Note_off_c, 0, 55, 100
2, 49132, Note_off_c, 0, 60, 100
2, 49132, Note_off_c, 0, 64, 100
2, 49536, Note_on_c, 0, 59, 100
2, 49536, Note_on_c, 0, 62, 100
2, 49536, Note_on_c, 0, 55, 100
2, 49900, Note_off_c, 0, 59, 100
2, 49900, Note_off_c, 0, 62, 100
2, 49900, Note_off_c, 0, 55, 100
2, 50304, Note_on_c, 0, 59, 100
2, 50304, Note_on_c, 0, 62, 100
2, 50304, Note_on_c, 0, 55, 100
2, 50668, Note_off_c, 0, 59, 100
2, 50668, Note_off_c, 0, 62, 100
2, 50668, Note_off_c, 0, 55, 100
2, 50688, Note_on_c, 0, 55, 100
2, 50688, Note_on_c, 0, 60, 100
2, 50688, Note_on_c, 0, 64, 100
2, 51052, Note_off_c, 0, 55, 100
2, 51052, Note_off_c, 0, 60, 100
2, 51052, Note_off_c, 0, 64, 100
2, 51072, Note_on_c, 0, 55, 100
2, 51072, Note_on_c, 0, 60, 100
2, 51072, Note_on_c, 0, 64, 100
2, 51436, Note_off_c, 0, 55, 100
2, 51436, Note_off_c, 0, 60, 100
2, 51436, Note_off_c, 0, 64, 100
2, 51456, Note_on_c, 0, 55, 100
2, 51456, Note_on_c, 0, 60, 100
2, 51456, Note_on_c, 0, 64, 100
2, 51820, Note_off_c, 0, 55, 100
2, 51820, Note_off_c, 0, 60, 100
2, 51820, Note_off_c, 0, 64, 100
2, 51840, Note_on_c, 0, 55, 100
2, 51840, Note_on_c, 0, 60, 100
2, 51840, Note_on_c, 0, 64, 100
2, 52204, Note_off_c, 0, 55, 100
2, 52204, Note_off_c, 0, 60, 100
2, 52204, Note_off_c, 0, 64, 100
2, 52224, Note_on_c, 0, 55, 100
2, 52224, Note_on_c, 0, 59, 100
2, 52224, Note_on_c, 0, 62, 100
2, 52588, Note_off_c, 0, 55, 100
2, 52588, Note_off_c, 0, 59, 100
2, 52588, Note_off_c, 0, 62, 100
2, 52608, Note_on_c, 0, 55, 100
2, 52608, Note_on_c, 0, 59, 100
2, 52608, Note_on_c, 0, 62, 100
2, 52972, Note_off_c, 0, 55, 100
2, 52972, Note_off_c, 0, 59, 100
2, 52972, Note_off_c, 0, 62, 100
2, 52992, Note_on_c, 0, 55, 100
2, 52992, Note_on_c, 0, 59, 100
2, 52992, Note_on_c, 0, 62, 100
2, 53356, Note_off_c, 0, 55, 100
2, 53356, Note_off_c, 0, 59, 100
2, 53356, Note_off_c, 0, 62, 100
2, 53376, Note_on_c, 0, 55, 100
2, 53376, Note_on_c, 0, 59, 100
2, 53376, Note_on_c, 0, 62, 100
2, 53740, Note_off_c, 0, 55, 100
2, 53740, Note_off_c, 0, 59, 100
2, 53740, Note_off_c, 0, 62, 100
2, 53760, Note_on_c, 0, 64, 100
2, 53760, Note_on_c, 0, 60, 100
2, 53760, Note_on_c, 0, 55, 100
2, 53940, Note_off_c, 0, 64, 100
2, 53940, Note_off_c, 0, 60, 100
2, 53940, Note_off_c, 0, 55, 100
2, 53952, Note_on_c, 0, 60, 100
2, 53952, Note_on_c, 0, 64, 100
2, 53952, Note_on_c, 0, 55, 100
2, 54316, Note_off_c, 0, 60, 100
2, 54316, Note_off_c, 0, 64, 100
2, 54316, Note_off_c, 0, 55, 100
2, 54336, Note_on_c, 0, 60, 100
2, 54336, Note_on_c, 0, 64, 100
2, 54336, Note_on_c, 0, 55, 100
2, 54700, Note_off_c, 0, 60, 100
2, 54700, Note_off_c, 0, 64, 100
2, 54700, Note_off_c, 0, 55, 100
2, 54720, Note_on_c, 0, 64, 100
2, 54720, Note_on_c, 0, 60, 100
2, 54720, Note_on_c, 0, 55, 100
2, 54900, Note_off_c, 0, 64, 100
2, 54900, Note_off_c, 0, 60, 100
2, 54900, Note_off_c, 0, 55, 100
2, 54912, Note_on_c, 0, 60, 100
2, 54912, Note_on_c, 0, 64, 100
2, 54912, Note_on_c, 0, 55, 100
2, 55276, Note_off_c, 0, 60, 100
2, 55276, Note_off_c, 0, 64, 100
2, 55276, Note_off_c, 0, 55, 100
2, 55296, Note_on_c, 0, 55, 100
2, 55296, Note_on_c, 0, 59, 100
2, 55296, Note_on_c, 0, 62, 100
2, 55660, Note_off_c, 0, 55, 100
2, 55660, Note_off_c, 0, 59, 100
2, 55660, Note_off_c, 0, 62, 100
2, 55680, Note_on_c, 0, 55, 100
2, 55680, Note_on_c, 0, 59, 100
2, 55680, Note_on_c, 0, 62, 100
2, 56044, Note_off_c, 0, 55, 100
2, 56044, Note_off_c, 0, 59, 100
2, 56044, Note_off_c, 0, 62, 100
2, 56256, Note_on_c, 0, 55, 100
2, 56256, Note_on_c, 0, 59, 100
2, 56256, Note_on_c, 0, 62, 100
2, 56620, Note_off_c, 0, 55, 100
2, 56620, Note_off_c, 0, 59, 100
2, 56620, Note_off_c, 0, 62, 100
2, 56640, Note_on_c, 0, 62, 100
2, 56640, Note_on_c, 0, 59, 100
2, 56640, Note_on_c, 0, 55, 100
2, 56820, Note_off_c, 0, 62, 100
2, 56820, Note_off_c, 0, 59, 100
2, 56820, Note_off_c, 0, 55, 100
2, 56832, Note_on_c, 0, 64, 100
2, 56832, Note_on_c, 0, 60, 100
2, 56832, Note_on_c, 0, 55, 100
2, 57012, Note_off_c, 0, 64, 100
2, 57012, Note_off_c, 0, 60, 100
2, 57012, Note_off_c, 0, 55, 100
2, 57024, Note_on_c, 0, 64, 100
2, 57024, Note_on_c, 0, 60, 100
2, 57024, Note_on_c, 0, 55, 100
2, 57204, Note_off_c, 0, 64, 100
2, 57204, Note_off_c, 0, 60, 100
2, 57204, Note_off_c, 0, 55, 100
2, 57216, Note_on_c, 0, 64, 100
2, 57216, Note_on_c, 0, 60, 100
2, 57216, Note_on_c, 0, 55, 100
2, 57396, Note_off_c, 0, 64, 100
2, 57396, Note_off_c, 0, 60, 100
2, 57396, Note_off_c, 0, 55, 100
2, 57408, Note_on_c, 0, 64, 100
2, 57408, Note_on_c, 0, 60, 100
2, 57408, Note_on_c, 0, 55, 100
2, 57588, Note_off_c, 0, 64, 100
2, 57588, Note_off_c, 0, 60, 100
2, 57588, Note_off_c, 0, 55, 100
2, 57600, Note_on_c, 0, 64, 100
2, 57600, Note_on_c, 0, 60, 100
2, 57600, Note_on_c, 0, 55, 100
2, 57780, Note_off_c, 0, 64, 100
2, 57780, Note_off_c, 0, 60, 100
2, 57780, Note_off_c, 0, 55, 100
2, 57792, Note_on_c, 0, 64, 100
2, 57792, Note_on_c, 0, 60, 100
2, 57792, Note_on_c, 0, 55, 100
2, 57972, Note_off_c, 0, 64, 100
2, 57972, Note_off_c, 0, 60, 100
2, 57972, Note_off_c, 0, 55, 100
2, 57984, Note_on_c, 0, 64, 100
2, 57984, Note_on_c, 0, 60, 100
2, 57984, Note_on_c, 0, 55, 100
2, 58164, Note_off_c, 0, 64, 100
2, 58164, Note_off_c, 0, 60, 100
2, 58164, Note_off_c, 0, 55, 100
2, 58176, Note_on_c, 0, 64, 100
2, 58176, Note_on_c, 0, 60, 100
2, 58176, Note_on_c, 0, 55, 100
2, 58356, Note_off_c, 0, 64, 100
2, 58356, Note_off_c, 0, 60, 100
2, 58356, Note_off_c, 0, 55, 100
2, 58752, Note_on_c, 0, 55, 100
2, 58752, Note_on_c, 0, 59, 100
2, 58752, Note_on_c, 0, 62, 100
2, 59116, Note_off_c, 0, 55, 100
2, 59116, Note_off_c, 0, 59, 100
2, 59116, Note_off_c, 0, 62, 100
2, 59328, Note_on_c, 0, 55, 100
2, 59328, Note_on_c, 0, 59, 100
2, 59328, Note_on_c, 0, 62, 100
2, 59692, Note_off_c, 0, 55, 100
2, 59692, Note_off_c, 0, 59, 100
2, 59692, Note_off_c, 0, 62, 100
2, 59712, Note_on_c, 0, 62, 100
2, 59712, Note_on_c, 0, 59, 100
2, 59712, Note_on_c, 0, 55, 100
2, 59892, Note_off_c, 0, 62, 100
2, 59892, Note_off_c, 0, 59, 100
2, 59892, Note_off_c, 0, 55, 100
2, 60288, Note_on_c, 0, 64, 100
2, 60288, Note_on_c, 0, 60, 100
2, 60288, Note_on_c, 0, 55, 100
2, 60652, Note_off_c, 0, 64, 100
2, 60652, Note_off_c, 0, 60, 100
2, 60652, Note_off_c, 0, 55, 100
2, 60864, Note_on_c, 0, 64, 100
2, 60864, Note_on_c, 0, 60, 100
2, 60864, Note_on_c, 0, 55, 100
2, 61228, Note_off_c, 0, 64, 100
2, 61228, Note_off_c, 0, 60, 100
2, 61228, Note_off_c, 0, 55, 100
2, 61248, Note_on_c, 0, 64, 100
2, 61248, Note_on_c, 0, 60, 100
2, 61248, Note_on_c, 0, 55, 100
2, 61428, Note_off_c, 0, 64, 100
2, 61428, Note_off_c, 0, 60, 100
2, 61428, Note_off_c, 0, 55, 100
2, 61824, Note_on_c, 0, 55, 100
2, 61824, Note_on_c, 0, 59, 100
2, 61824, Note_on_c, 0, 62, 100
2, 62188, Note_off_c, 0, 55, 100
2, 62188, Note_off_c, 0, 59, 100
2, 62188, Note_off_c, 0, 62, 100
2, 62208, Note_on_c, 0, 55, 100
2, 62208, Note_on_c, 0, 59, 100
2, 62208, Note_on_c, 0, 62, 100
2, 62572, Note_off_c, 0, 55, 100
2, 62572, Note_off_c, 0, 59, 100
2, 62572, Note_off_c, 0, 62, 100
2, 62592, Note_on_c, 0, 55, 100
2, 62592, Note_on_c, 0, 59, 100
2, 62592, Note_on_c, 0, 62, 100
2, 62956, Note_off_c, 0, 55, 100
2, 62956, Note_off_c, 0, 59, 100
2, 62956, Note_off_c, 0, 62, 100
2, 62976, Note_on_c, 0, 64, 100
2, 62976, Note_on_c, 0, 60, 100
2, 62976, Note_on_c, 0, 55, 100
2, 63704, Note_off_c, 0, 64, 100
2, 63704, Note_off_c, 0, 60, 100
2, 63704, Note_off_c, 0, 55, 100
2, 63744, Note_on_c, 0, 67, 100
2, 63744, Note_on_c, 0, 64, 100
2, 63744, Note_on_c, 0, 60, 100
2, 63924, Note_off_c, 0, 67, 100
2, 63924, Note_off_c, 0, 64, 100
2, 63924, Note_off_c, 0, 60, 100
2, 63936, Note_on_c, 0, 60, 100
2, 63936, Note_on_c, 0, 64, 100
2, 63936, Note_on_c, 0, 67, 100
2, 64116, Note_off_c, 0, 60, 100
2, 64116, Note_off_c, 0, 64, 100
2, 64116, Note_off_c, 0, 67, 100
2, 64128, Note_on_c, 0, 67, 100
2, 64128, Note_on_c, 0, 64, 100
2, 64128, Note_on_c, 0, 60, 100
2, 64308, Note_off_c, 0, 67, 100
2, 64308, Note_off_c, 0, 64, 100
2, 64308, Note_off_c, 0, 60, 100
2, 64320, Note_on_c, 0, 60, 100
2, 64320, Note_on_c, 0, 64, 100
2, 64320, Note_on_c, 0, 67, 100
2, 64500, Note_off_c, 0, 60, 100
2, 64500, Note_off_c, 0, 64, 100
2, 64500, Note_off_c, 0, 67, 100
2, 64512, Note_on_c, 0, 55, 100
2, 64512, Note_on_c, 0, 59, 100
2, 64512, Note_on_c, 0, 62, 100
2, 65968, Note_off_c, 0, 55, 100
2, 65968, Note_off_c, 0, 59, 100
2, 65968, Note_off_c, 0, 62, 100
2, 66048, Note_on_c, 0, 55, 100
2, 66048, Note_on_c, 0, 60, 100
2, 66048, Note_on_c, 0, 64, 100
2, 67504, Note_off_c, 0, 55, 100
2, 67504, Note_off_c, 0, 60, 100
2, 67504, Note_off_c, 0, 64, 100
2, 67584, Note_on_c, 0, 55, 100
2, 67584, Note_on_c, 0, 59, 100
2, 67584, Note_on_c, 0, 62, 100
2, 69040, Note_off_c, 0, 55, 100
2, 69040, Note_off_c, 0, 59, 100
2, 69040, Note_off_c, 0, 62, 100
2, 69120, Note_on_c, 0, 55, 100
2, 69120, Note_on_c, 0, 59, 100
2, 69120, Note_on_c, 0, 62, 100
2, 70576, Note_off_c, 0, 55, 100
2, 70576, Note_off_c, 0, 59, 100
2, 70576, Note_off_c, 0, 62, 100
2, 70656, Note_on_c, 0, 62, 100
2, 70656, Note_on_c, 0, 59, 100
2, 70656, Note_on_c, 0, 55, 100
2, 71232, Note_on_c, 0, 62, 100
2, 71232, Note_on_c, 0, 59, 100
2, 71232, Note_on_c, 0, 55, 100
2, 71232, Note_on_c, 0, 67, 100
2, 71384, Note_off_c, 0, 62, 100
2, 71384, Note_off_c, 0, 59, 100
2, 71384, Note_off_c, 0, 55, 100
2, 71596, Note_off_c, 0, 62, 100
2, 71596, Note_off_c, 0, 59, 100
2, 71596, Note_off_c, 0, 55, 100
2, 71596, Note_off_c, 0, 67, 100
2, 71808, Note_on_c, 0, 62, 100
2, 71808, Note_on_c, 0, 59, 100
2, 71808, Note_on_c, 0, 55, 100
2, 71808, Note_on_c, 0, 67, 100
2, 72172, Note_off_c, 0, 62, 100
2, 72172, Note_off_c, 0, 59, 100
2, 72172, Note_off_c, 0, 55, 100
2, 72172, Note_off_c, 0, 67, 100
2, 72192, Note_on_c, 0, 57, 100
2, 72192, Note_on_c, 0, 53, 100
2, 72192, Note_on_c, 0, 60, 100
2, 72384, Note_on_c, 0, 53, 100
2, 72564, Note_off_c, 0, 53, 100
2, 72576, Note_on_c, 0, 53, 100
2, 72756, Note_off_c, 0, 53, 100
2, 72920, Note_off_c, 0, 57, 100
2, 72920, Note_off_c, 0, 60, 100
2, 72920, Note_off_c, 0, 53, 100
2, 72960, Note_on_c, 0, 62, 100
2, 72960, Note_on_c, 0, 59, 100
2, 72960, Note_on_c, 0, 55, 100
2, 73152, Note_on_c, 0, 55, 100
2, 73332, Note_off_c, 0, 55, 100
2, 73344, Note_on_c, 0, 55, 100
2, 73524, Note_off_c, 0, 55, 100
2, 73688, Note_off_c, 0, 62, 100
2, 73688, Note_off_c, 0, 59, 100
2, 73688, Note_off_c, 0, 55, 100
2, 73728, Note_on_c, 0, 55, 100
2, 73728, Note_on_c, 0, 60, 100
2, 73728, Note_on_c, 0, 64, 100
2, 74304, Note_on_c, 0, 55, 100
2, 74304, Note_on_c, 0, 60, 100
2, 74304, Note_on_c, 0, 64, 100
2, 74304, Note_on_c, 0, 67, 100
2, 74456, Note_off_c, 0, 55, 100
2, 74456, Note_off_c, 0, 60, 100
2, 74456, Note_off_c, 0, 64, 100
2, 74484, Note_off_c, 0, 55, 100
2, 74484, Note_off_c, 0, 60, 100
2, 74484, Note_off_c, 0, 64, 100
2, 74484, Note_off_c, 0, 67, 100
2, 74496, Note_on_c, 0, 55, 100
2, 74496, Note_on_c, 0, 60, 100
2, 74496, Note_on_c, 0, 64, 100
2, 74496, Note_on_c, 0, 67, 100
2, 74676, Note_off_c, 0, 55, 100
2, 74676, Note_off_c, 0, 60, 100
2, 74676, Note_off_c, 0, 64, 100
2, 74676, Note_off_c, 0, 67, 100
2, 74688, Note_on_c, 0, 55, 100
2, 74688, Note_on_c, 0, 60, 100
2, 74688, Note_on_c, 0, 64, 100
2, 74688, Note_on_c, 0, 67, 100
2, 74868, Note_off_c, 0, 55, 100
2, 74868, Note_off_c, 0, 60, 100
2, 74868, Note_off_c, 0, 64, 100
2, 74868, Note_off_c, 0, 67, 100
2, 74880, Note_on_c, 0, 55, 100
2, 74880, Note_on_c, 0, 60, 100
2, 74880, Note_on_c, 0, 64, 100
2, 74880, Note_on_c, 0, 67, 100
2, 75060, Note_off_c, 0, 55, 100
2, 75060, Note_off_c, 0, 60, 100
2, 75060, Note_off_c, 0, 64, 100
2, 75060, Note_off_c, 0, 67, 100
2, 75072, Note_on_c, 0, 55, 100
2, 75072, Note_on_c, 0, 60, 100
2, 75072, Note_on_c, 0, 64, 100
2, 75072, Note_on_c, 0, 67, 100
2, 75252, Note_off_c, 0, 55, 100
2, 75252, Note_off_c, 0, 60, 100
2, 75252, Note_off_c, 0, 64, 100
2, 75252, Note_off_c, 0, 67, 100
2, 75264, Note_on_c, 0, 62, 100
2, 75264, Note_on_c, 0, 59, 100
2, 75264, Note_on_c, 0, 55, 100
2, 75648, Note_on_c, 0, 62, 100
2, 75648, Note_on_c, 0, 59, 100
2, 75648, Note_on_c, 0, 55, 100
2, 75828, Note_off_c, 0, 62, 100
2, 75828, Note_off_c, 0, 59, 100
2, 75828, Note_off_c, 0, 55, 100
2, 75840, Note_on_c, 0, 67, 100
2, 75840, Note_on_c, 0, 62, 100
2, 75840, Note_on_c, 0, 59, 100
2, 75840, Note_on_c, 0, 55, 100
2, 75992, Note_off_c, 0, 62, 100
2, 75992, Note_off_c, 0, 59, 100
2, 75992, Note_off_c, 0, 55, 100
2, 76204, Note_off_c, 0, 67, 100
2, 76204, Note_off_c, 0, 62, 100
2, 76204, Note_off_c, 0, 59, 100
2, 76204, Note_off_c, 0, 55, 100
2, 76224, Note_on_c, 0, 67, 100
2, 76224, Note_on_c, 0, 62, 100
2, 76224, Note_on_c, 0, 59, 100
2, 76224, Note_on_c, 0, 55, 100
2, 76588, Note_off_c, 0, 67, 100
2, 76588, Note_off_c, 0, 62, 100
2, 76588, Note_off_c, 0, 59, 100
2, 76588, Note_off_c, 0, 55, 100
2, 76608, Note_on_c, 0, 67, 100
2, 76608, Note_on_c, 0, 62, 100
2, 76608, Note_on_c, 0, 59, 100
2, 76608, Note_on_c, 0, 55, 100
2, 76788, Note_off_c, 0, 67, 100
2, 76788, Note_off_c, 0, 62, 100
2, 76788, Note_off_c, 0, 59, 100
2, 76788, Note_off_c, 0, 55, 100
2, 76800, Note_on_c, 0, 62, 100
2, 76800, Note_on_c, 0, 59, 100
2, 76800, Note_on_c, 0, 55, 100
2, 77344, Note_off_c, 0, 62, 100
2, 77344, Note_off_c, 0, 59, 100
2, 77344, Note_off_c, 0, 55, 100
2, 77376, Note_on_c, 0, 62, 100
2, 77376, Note_on_c, 0, 59, 100
2, 77376, Note_on_c, 0, 55, 100
2, 77740, Note_off_c, 0, 62, 100
2, 77740, Note_off_c, 0, 59, 100
2, 77740, Note_off_c, 0, 55, 100
2, 77760, Note_on_c, 0, 62, 100
2, 77760, Note_on_c, 0, 59, 100
2, 77760, Note_on_c, 0, 55, 100
2, 78124, Note_off_c, 0, 62, 100
2, 78124, Note_off_c, 0, 59, 100
2, 78124, Note_off_c, 0, 55, 100
2, 78144, Note_on_c, 0, 62, 100
2, 78144, Note_on_c, 0, 59, 100
2, 78144, Note_on_c, 0, 55, 100
2, 78324, Note_off_c, 0, 62, 100
2, 78324, Note_off_c, 0, 59, 100
2, 78324, Note_off_c, 0, 55, 100
2, 78528, Note_on_c, 0, 53, 100
2, 78528, Note_on_c, 0, 57, 100
2, 78528, Note_on_c, 0, 60, 100
2, 78892, Note_off_c, 0, 53, 100
2, 78892, Note_off_c, 0, 57, 100
2, 78892, Note_off_c, 0, 60, 100
2, 78912, Note_on_c, 0, 53, 100
2, 78912, Note_on_c, 0, 57, 100
2, 78912, Note_on_c, 0, 60, 100
2, 79276, Note_off_c, 0, 53, 100
2, 79276, Note_off_c, 0, 57, 100
2, 79276, Note_off_c, 0, 60, 100
2, 79296, Note_on_c, 0, 55, 100
2, 79296, Note_on_c, 0, 59, 100
2, 79296, Note_on_c, 0, 62, 100
2, 79660, Note_off_c, 0, 55, 100
2, 79660, Note_off_c, 0, 59, 100
2, 79660, Note_off_c, 0, 62, 100
2, 79680, Note_on_c, 0, 62, 100
2, 79680, Note_on_c, 0, 59, 100
2, 79680, Note_on_c, 0, 55, 100
2, 79860, Note_off_c, 0, 62, 100
2, 79860, Note_off_c, 0, 59, 100
2, 79860, Note_off_c, 0, 55, 100
2, 79872, Note_on_c, 0, 64, 100
2, 79872, Note_on_c, 0, 60, 100
2, 79872, Note_on_c, 0, 55, 100
2, 80256, Note_on_c, 0, 64, 100
2, 80256, Note_on_c, 0, 60, 100
2, 80256, Note_on_c, 0, 55, 100
2, 80448, Note_on_c, 0, 55, 100
2, 80620, Note_off_c, 0, 64, 100
2, 80620, Note_off_c, 0, 60, 100
2, 80620, Note_off_c, 0, 55, 100
2, 80624, Note_off_c, 0, 55, 100
2, 80640, Note_on_c, 0, 67, 100
2, 80816, Note_off_c, 0, 67, 100
2, 80832, Note_on_c, 0, 64, 100
2, 80832, Note_on_c, 0, 60, 100
2, 80832, Note_on_c, 0, 55, 100
2, 81008, Note_off_c, 0, 64, 100
2, 81024, Note_on_c, 0, 60, 100
2, 81196, Note_off_c, 0, 60, 100
2, 81196, Note_off_c, 0, 55, 100
2, 81216, Note_on_c, 0, 64, 100
2, 81216, Note_on_c, 0, 60, 100
2, 81216, Note_on_c, 0, 55, 100
2, 81328, Note_off_c, 0, 64, 100
2, 81328, Note_off_c, 0, 60, 100
2, 81328, Note_off_c, 0, 55, 100
2, 81384, Note_off_c, 0, 60, 100
2, 81396, Note_off_c, 0, 64, 100
2, 81396, Note_off_c, 0, 60, 100
2, 81396, Note_off_c, 0, 55, 100
2, 81792, Note_on_c, 0, 59, 100
2, 81792, Note_on_c, 0, 62, 100
2, 81792, Note_on_c, 0, 55, 100
2, 82156, Note_off_c, 0, 59, 100
2, 82156, Note_off_c, 0, 62, 100
2, 82156, Note_off_c, 0, 55, 100
2, 82560, Note_on_c, 0, 59, 100
2, 82560, Note_on_c, 0, 62, 100
2, 82560, Note_on_c, 0, 55, 100
2, 82924, Note_off_c, 0, 59, 100
2, 82924, Note_off_c, 0, 62, 100
2, 82924, Note_off_c, 0, 55, 100
2, 83328, Note_on_c, 0, 55, 100
2, 83328, Note_on_c, 0, 60, 100
2, 83328, Note_on_c, 0, 64, 100
2, 83692, Note_off_c, 0, 55, 100
2, 83692, Note_off_c, 0, 60, 100
2, 83692, Note_off_c, 0, 64, 100
2, 84096, Note_on_c, 0, 55, 100
2, 84096, Note_on_c, 0, 60, 100
2, 84096, Note_on_c, 0, 64, 100
2, 84460, Note_off_c, 0, 55, 100
2, 84460, Note_off_c, 0, 60, 100
2, 84460, Note_off_c, 0, 64, 100
2, 84864, Note_on_c, 0, 59, 100
2, 84864, Note_on_c, 0, 62, 100
2, 84864, Note_on_c, 0, 55, 100
2, 85228, Note_off_c, 0, 59, 100
2, 85228, Note_off_c, 0, 62, 100
2, 85228, Note_off_c, 0, 55, 100
2, 85632, Note_on_c, 0, 59, 100
2, 85632, Note_on_c, 0, 62, 100
2, 85632, Note_on_c, 0, 55, 100
2, 85996, Note_off_c, 0, 59, 100
2, 85996, Note_off_c, 0, 62, 100
2, 85996, Note_off_c, 0, 55, 100
2, 86016, Note_on_c, 0, 55, 100
2, 86016, Note_on_c, 0, 60, 100
2, 86016, Note_on_c, 0, 64, 100
2, 86380, Note_off_c, 0, 55, 100
2, 86380, Note_off_c, 0, 60, 100
2, 86380, Note_off_c, 0, 64, 100
2, 86400, Note_on_c, 0, 55, 100
2, 86400, Note_on_c, 0, 60, 100
2, 86400, Note_on_c, 0, 64, 100
2, 86764, Note_off_c, 0, 55, 100
2, 86764, Note_off_c, 0, 60, 100
2, 86764, Note_off_c, 0, 64, 100
2, 86784, Note_on_c, 0, 55, 100
2, 86784, Note_on_c, 0, 60, 100
2, 86784, Note_on_c, 0, 64, 100
2, 87148, Note_off_c, 0, 55, 100
2, 87148, Note_off_c, 0, 60, 100
2, 87148, Note_off_c, 0, 64, 100
2, 87168, Note_on_c, 0, 55, 100
2, 87168, Note_on_c, 0, 60, 100
2, 87168, Note_on_c, 0, 64, 100
2, 87532, Note_off_c, 0, 55, 100
2, 87532, Note_off_c, 0, 60, 100
2, 87532, Note_off_c, 0, 64, 100
2, 87552, Note_on_c, 0, 55, 100
2, 87552, Note_on_c, 0, 59, 100
2, 87552, Note_on_c, 0, 62, 100
2, 87916, Note_off_c, 0, 55, 100
2, 87916, Note_off_c, 0, 59, 100
2, 87916, Note_off_c, 0, 62, 100
2, 87936, Note_on_c, 0, 55, 100
2, 87936, Note_on_c, 0, 59, 100
2, 87936, Note_on_c, 0, 62, 100
2, 88300, Note_off_c, 0, 55, 100
2, 88300, Note_off_c, 0, 59, 100
2, 88300, Note_off_c, 0, 62, 100
2, 88320, Note_on_c, 0, 55, 100
2, 88320, Note_on_c, 0, 59, 100
2, 88320, Note_on_c, 0, 62, 100
2, 88684, Note_off_c, 0, 55, 100
2, 88684, Note_off_c, 0, 59, 100
2, 88684, Note_off_c, 0, 62, 100
2, 88704, Note_on_c, 0, 55, 100
2, 88704, Note_on_c, 0, 59, 100
2, 88704, Note_on_c, 0, 62, 100
2, 89068, Note_off_c, 0, 55, 100
2, 89068, Note_off_c, 0, 59, 100
2, 89068, Note_off_c, 0, 62, 100
2, 89088, Note_on_c, 0, 64, 100
2, 89088, Note_on_c, 0, 60, 100
2, 89088, Note_on_c, 0, 55, 100
2, 89268, Note_off_c, 0, 64, 100
2, 89268, Note_off_c, 0, 60, 100
2, 89268, Note_off_c, 0, 55, 100
2, 89280, Note_on_c, 0, 60, 100
2, 89280, Note_on_c, 0, 64, 100
2, 89280, Note_on_c, 0, 55, 100
2, 89644, Note_off_c, 0, 60, 100
2, 89644, Note_off_c, 0, 64, 100
2, 89644, Note_off_c, 0, 55, 100
2, 89664, Note_on_c, 0, 60, 100
2, 89664, Note_on_c, 0, 64, 100
2, 89664, Note_on_c, 0, 55, 100
2, 90028, Note_off_c, 0, 60, 100
2, 90028, Note_off_c, 0, 64, 100
2, 90028, Note_off_c, 0, 55, 100
2, 90048, Note_on_c, 0, 64, 100
2, 90048, Note_on_c, 0, 60, 100
2, 90048, Note_on_c, 0, 55, 100
2, 90228, Note_off_c, 0, 64, 100
2, 90228, Note_off_c, 0, 60, 100
2, 90228, Note_off_c, 0, 55, 100
2, 90240, Note_on_c, 0, 60, 100
2, 90240, Note_on_c, 0, 64, 100
2, 90240, Note_on_c, 0, 55, 100
2, 90604, Note_off_c, 0, 60, 100
2, 90604, Note_off_c, 0, 64, 100
2, 90604, Note_off_c, 0, 55, 100
2, 90624, Note_on_c, 0, 55, 100
2, 90624, Note_on_c, 0, 59, 100
2, 90624, Note_on_c, 0, 62, 100
2, 90988, Note_off_c, 0, 55, 100
2, 90988, Note_off_c, 0, 59, 100
2, 90988, Note_off_c, 0, 62, 100
2, 91008, Note_on_c, 0, 62, 100
2, 91008, Note_on_c, 0, 59, 100
2, 91008, Note_on_c, 0, 55, 100
2, 91188, Note_off_c, 0, 62, 100
2, 91188, Note_off_c, 0, 59, 100
2, 91188, Note_off_c, 0, 55, 100
2, 91200, Note_on_c, 0, 62, 100
2, 91200, Note_on_c, 0, 59, 100
2, 91200, Note_on_c, 0, 55, 100
2, 91380, Note_off_c, 0, 62, 100
2, 91380, Note_off_c, 0, 59, 100
2, 91380, Note_off_c, 0, 55, 100
2, 91392, Note_on_c, 0, 62, 100
2, 91392, Note_on_c, 0, 59, 100
2, 91392, Note_on_c, 0, 55, 100
2, 91572, Note_off_c, 0, 62, 100
2, 91572, Note_off_c, 0, 59, 100
2, 91572, Note_off_c, 0, 55, 100
2, 91584, Note_on_c, 0, 62, 100
2, 91584, Note_on_c, 0, 59, 100
2, 91584, Note_on_c, 0, 55, 100
2, 91764, Note_off_c, 0, 62, 100
2, 91764, Note_off_c, 0, 59, 100
2, 91764, Note_off_c, 0, 55, 100
2, 91776, Note_on_c, 0, 62, 100
2, 91776, Note_on_c, 0, 59, 100
2, 91776, Note_on_c, 0, 55, 100
2, 91956, Note_off_c, 0, 62, 100
2, 91956, Note_off_c, 0, 59, 100
2, 91956, Note_off_c, 0, 55, 100
2, 91968, Note_on_c, 0, 62, 100
2, 91968, Note_on_c, 0, 59, 100
2, 91968, Note_on_c, 0, 55, 100
2, 92148, Note_off_c, 0, 62, 100
2, 92148, Note_off_c, 0, 59, 100
2, 92148, Note_off_c, 0, 55, 100
2, 92160, Note_on_c, 0, 60, 100
2, 92160, Note_on_c, 0, 64, 100
2, 92160, Note_on_c, 0, 55, 100
2, 92640, Note_on_c, 0, 67, 100
2, 92640, Note_on_c, 0, 64, 100
2, 92640, Note_on_c, 0, 60, 100
2, 92728, Note_off_c, 0, 60, 100
2, 92728, Note_off_c, 0, 64, 100
2, 92728, Note_off_c, 0, 67, 100
2, 92736, Note_on_c, 0, 67, 100
2, 92736, Note_on_c, 0, 64, 100
2, 92736, Note_on_c, 0, 60, 100
2, 92824, Note_off_c, 0, 64, 100
2, 92824, Note_off_c, 0, 60, 100
2, 92824, Note_off_c, 0, 67, 100
2, 92832, Note_on_c, 0, 67, 100
2, 92832, Note_on_c, 0, 64, 100
2, 92832, Note_on_c, 0, 60, 100
2, 92888, Note_off_c, 0, 55, 100
2, 92888, Note_off_c, 0, 64, 100
2, 92888, Note_off_c, 0, 60, 100
2, 92920, Note_off_c, 0, 67, 100
2, 92920, Note_off_c, 0, 64, 100
2, 92920, Note_off_c, 0, 60, 100
2, 92928, Note_on_c, 0, 60, 100
2, 92928, Note_on_c, 0, 64, 100
2, 92928, Note_on_c, 0, 55, 100
2, 92928, Note_on_c, 0, 67, 100
2, 93216, Note_on_c, 0, 60, 100
2, 93216, Note_on_c, 0, 64, 100
2, 93216, Note_on_c, 0, 67, 100
2, 93216, Note_on_c, 0, 55, 100
2, 93396, Note_off_c, 0, 60, 100
2, 93396, Note_off_c, 0, 64, 100
2, 93396, Note_off_c, 0, 55, 100
2, 93396, Note_off_c, 0, 67, 100
2, 93408, Note_on_c, 0, 67, 100
2, 93408, Note_on_c, 0, 64, 100
2, 93408, Note_on_c, 0, 55, 100
2, 93408, Note_on_c, 0, 60, 100
2, 93496, Note_off_c, 0, 60, 100
2, 93496, Note_off_c, 0, 64, 100
2, 93496, Note_off_c, 0, 67, 100
2, 93496, Note_off_c, 0, 55, 100
2, 93504, Note_on_c, 0, 67, 100
2, 93504, Note_on_c, 0, 64, 100
2, 93504, Note_on_c, 0, 60, 100
2, 93504, Note_on_c, 0, 55, 100
2, 93656, Note_off_c, 0, 67, 100
2, 93656, Note_off_c, 0, 64, 100
2, 93656, Note_off_c, 0, 55, 100
2, 93656, Note_off_c, 0, 60, 100
2, 93684, Note_off_c, 0, 67, 100
2, 93684, Note_off_c, 0, 64, 100
2, 93684, Note_off_c, 0, 60, 100
2, 93684, Note_off_c, 0, 55, 100
2, 93696, Note_on_c, 0, 55, 100
2, 93696, Note_on_c, 0, 59, 100
2, 93696, Note_on_c, 0, 62, 100
2, 93876, Note_off_c, 0, 55, 100
2, 93876, Note_off_c, 0, 59, 100
2, 93876, Note_off_c, 0, 62, 100
2, 93888, Note_on_c, 0, 55, 100
2, 93888, Note_on_c, 0, 59, 100
2, 93888, Note_on_c, 0, 62, 100
2, 94068, Note_off_c, 0, 55, 100
2, 94068, Note_off_c, 0, 59, 100
2, 94068, Note_off_c, 0, 62, 100
2, 94080, Note_on_c, 0, 62, 100
2, 94080, Note_on_c, 0, 59, 100
2, 94080, Note_on_c, 0, 55, 100
2, 94260, Note_off_c, 0, 62, 100
2, 94260, Note_off_c, 0, 59, 100
2, 94260, Note_off_c, 0, 55, 100
2, 94272, Note_on_c, 0, 62, 100
2, 94272, Note_on_c, 0, 59, 100
2, 94272, Note_on_c, 0, 55, 100
2, 94452, Note_off_c, 0, 62, 100
2, 94452, Note_off_c, 0, 59, 100
2, 94452, Note_off_c, 0, 55, 100
2, 94464, Note_on_c, 0, 62, 100
2, 94464, Note_on_c, 0, 59, 100
2, 94464, Note_on_c, 0, 55, 100
2, 94828, Note_off_c, 0, 62, 100
2, 94828, Note_off_c, 0, 59, 100
2, 94828, Note_off_c, 0, 55, 100
2, 94848, Note_on_c, 0, 62, 100
2, 94848, Note_on_c, 0, 59, 100
2, 94848, Note_on_c, 0, 55, 100
2, 95212, Note_off_c, 0, 62, 100
2, 95212, Note_off_c, 0, 59, 100
2, 95212, Note_off_c, 0, 55, 100
2, 95232, Note_on_c, 0, 64, 100
2, 95232, Note_on_c, 0, 60, 100
2, 95232, Note_on_c, 0, 55, 100
2, 95412, Note_off_c, 0, 64, 100
2, 95412, Note_off_c, 0, 60, 100
2, 95412, Note_off_c, 0, 55, 100
2, 95424, Note_on_c, 0, 64, 100
2, 95424, Note_on_c, 0, 60, 100
2, 95424, Note_on_c, 0, 55, 100
2, 95604, Note_off_c, 0, 64, 100
2, 95604, Note_off_c, 0, 60, 100
2, 95604, Note_off_c, 0, 55, 100
2, 95616, Note_on_c, 0, 64, 100
2, 95616, Note_on_c, 0, 60, 100
2, 95616, Note_on_c, 0, 55, 100
2, 95796, Note_off_c, 0, 64, 100
2, 95796, Note_off_c, 0, 60, 100
2, 95796, Note_off_c, 0, 55, 100
2, 95808, Note_on_c, 0, 64, 100
2, 95808, Note_on_c, 0, 60, 100
2, 95808, Note_on_c, 0, 55, 100
2, 95988, Note_off_c, 0, 64, 100
2, 95988, Note_off_c, 0, 60, 100
2, 95988, Note_off_c, 0, 55, 100
2, 96000, Note_on_c, 0, 64, 100
2, 96000, Note_on_c, 0, 60, 100
2, 96000, Note_on_c, 0, 55, 100
2, 96364, Note_off_c, 0, 64, 100
2, 96364, Note_off_c, 0, 60, 100
2, 96364, Note_off_c, 0, 55, 100
2, 96384, Note_on_c, 0, 55, 100
2, 96384, Note_on_c, 0, 64, 100
2, 96384, Note_on_c, 0, 60, 100
2, 96748, Note_off_c, 0, 55, 100
2, 96748, Note_off_c, 0, 64, 100
2, 96748, Note_off_c, 0, 60, 100
2, 96768, Note_on_c, 0, 55, 100
2, 96768, Note_on_c, 0, 59, 100
2, 96768, Note_on_c, 0, 62, 100
2, 96948, Note_off_c, 0, 55, 100
2, 96948, Note_off_c, 0, 59, 100
2, 96948, Note_off_c, 0, 62, 100
2, 96960, Note_on_c, 0, 55, 100
2, 96960, Note_on_c, 0, 59, 100
2, 96960, Note_on_c, 0, 62, 100
2, 97140, Note_off_c, 0, 55, 100
2, 97140, Note_off_c, 0, 59, 100
2, 97140, Note_off_c, 0, 62, 100
2, 97152, Note_on_c, 0, 62, 100
2, 97152, Note_on_c, 0, 59, 100
2, 97152, Note_on_c, 0, 55, 100
2, 97332, Note_off_c, 0, 62, 100
2, 97332, Note_off_c, 0, 59, 100
2, 97332, Note_off_c, 0, 55, 100
2, 97344, Note_on_c, 0, 62, 100
2, 97344, Note_on_c, 0, 59, 100
2, 97344, Note_on_c, 0, 55, 100
2, 97524, Note_off_c, 0, 62, 100
2, 97524, Note_off_c, 0, 59, 100
2, 97524, Note_off_c, 0, 55, 100
2, 97536, Note_on_c, 0, 62, 100
2, 97536, Note_on_c, 0, 59, 100
2, 97536, Note_on_c, 0, 55, 100
2, 97900, Note_off_c, 0, 62, 100
2, 97900, Note_off_c, 0, 59, 100
2, 97900, Note_off_c, 0, 55, 100
2, 97920, Note_on_c, 0, 62, 100
2, 97920, Note_on_c, 0, 59, 100
2, 97920, Note_on_c, 0, 55, 100
2, 98284, Note_off_c, 0, 62, 100
2, 98284, Note_off_c, 0, 59, 100
2, 98284, Note_off_c, 0, 55, 100
2, 98304, Note_on_c, 0, 64, 100
2, 98304, Note_on_c, 0, 60, 100
2, 98304, Note_on_c, 0, 55, 100
2, 99032, Note_off_c, 0, 64, 100
2, 99032, Note_off_c, 0, 60, 100
2, 99032, Note_off_c, 0, 55, 100
2, 99264, Note_on_c, 0, 67, 100
2, 99264, Note_on_c, 0, 64, 100
2, 99264, Note_on_c, 0, 60, 100
2, 99444, Note_off_c, 0, 67, 100
2, 99444, Note_off_c, 0, 64, 100
2, 99444, Note_off_c, 0, 60, 100
2, 99456, Note_on_c, 0, 67, 100
2, 99456, Note_on_c, 0, 64, 100
2, 99456, Note_on_c, 0, 60, 100
2, 99636, Note_off_c, 0, 67, 100
2, 99636, Note_off_c, 0, 64, 100
2, 99636, Note_off_c, 0, 60, 100
2, 99648, Note_on_c, 0, 64, 100
2, 99648, Note_on_c, 0, 60, 100
2, 99648, Note_on_c, 0, 67, 100
2, 99828, Note_off_c, 0, 64, 100
2, 99828, Note_off_c, 0, 60, 100
2, 99828, Note_off_c, 0, 67, 100
2, 99840, Note_on_c, 0, 55, 100
2, 99840, Note_on_c, 0, 59, 100
2, 99840, Note_on_c, 0, 62, 100
2, 100020, Note_off_c, 0, 55, 100
2, 100020, Note_off_c, 0, 59, 100
2, 100020, Note_off_c, 0, 62, 100
2, 100032, Note_on_c, 0, 55, 100
2, 100032, Note_on_c, 0, 59, 100
2, 100032, Note_on_c, 0, 62, 100
2, 100212, Note_off_c, 0, 55, 100
2, 100212, Note_off_c, 0, 59, 100
2, 100212, Note_off_c, 0, 62, 100
2, 100224, Note_on_c, 0, 62, 100
2, 100224, Note_on_c, 0, 59, 100
2, 100224, Note_on_c, 0, 55, 100
2, 100404, Note_off_c, 0, 62, 100
2, 100404, Note_off_c, 0, 59, 100
2, 100404, Note_off_c, 0, 55, 100
2, 100416, Note_on_c, 0, 62, 100
2, 100416, Note_on_c, 0, 59, 100
2, 100416, Note_on_c, 0, 55, 100
2, 100596, Note_off_c, 0, 62, 100
2, 100596, Note_off_c, 0, 59, 100
2, 100596, Note_off_c, 0, 55, 100
2, 100608, Note_on_c, 0, 62, 100
2, 100608, Note_on_c, 0, 59, 100
2, 100608, Note_on_c, 0, 55, 100
2, 100972, Note_off_c, 0, 62, 100
2, 100972, Note_off_c, 0, 59, 100
2, 100972, Note_off_c, 0, 55, 100
2, 100992, Note_on_c, 0, 62, 100
2, 100992, Note_on_c, 0, 59, 100
2, 100992, Note_on_c, 0, 55, 100
2, 101356, Note_off_c, 0, 62, 100
2, 101356, Note_off_c, 0, 59, 100
2, 101356, Note_off_c, 0, 55, 100
2, 101376, Note_on_c, 0, 64, 100
2, 101376, Note_on_c, 0, 60, 100
2, 101376, Note_on_c, 0, 55, 100
2, 101556, Note_off_c, 0, 64, 100
2, 101556, Note_off_c, 0, 60, 100
2, 101556, Note_off_c, 0, 55, 100
2, 101568, Note_on_c, 0, 64, 100
2, 101568, Note_on_c, 0, 60, 100
2, 101568, Note_on_c, 0, 55, 100
2, 101748, Note_off_c, 0, 64, 100
2, 101748, Note_off_c, 0, 60, 100
2, 101748, Note_off_c, 0, 55, 100
2, 101760, Note_on_c, 0, 64, 100
2, 101760, Note_on_c, 0, 60, 100
2, 101760, Note_on_c, 0, 55, 100
2, 101940, Note_off_c, 0, 64, 100
2, 101940, Note_off_c, 0, 60, 100
2, 101940, Note_off_c, 0, 55, 100
2, 101952, Note_on_c, 0, 64, 100
2, 101952, Note_on_c, 0, 60, 100
2, 101952, Note_on_c, 0, 55, 100
2, 102132, Note_off_c, 0, 64, 100
2, 102132, Note_off_c, 0, 60, 100
2, 102132, Note_off_c, 0, 55, 100
2, 102144, Note_on_c, 0, 64, 100
2, 102144, Note_on_c, 0, 60, 100
2, 102144, Note_on_c, 0, 55, 100
2, 102508, Note_off_c, 0, 64, 100
2, 102508, Note_off_c, 0, 60, 100
2, 102508, Note_off_c, 0, 55, 100
2, 102528, Note_on_c, 0, 55, 100
2, 102528, Note_on_c, 0, 64, 100
2, 102528, Note_on_c, 0, 60, 100
2, 102892, Note_off_c, 0, 55, 100
2, 102892, Note_off_c, 0, 64, 100
2, 102892, Note_off_c, 0, 60, 100
2, 102912, Note_on_c, 0, 55, 100
2, 102912, Note_on_c, 0, 59, 100
2, 102912, Note_on_c, 0, 62, 100
2, 103092, Note_off_c, 0, 55, 100
2, 103092, Note_off_c, 0, 59, 100
2, 103092, Note_off_c, 0, 62, 100
2, 103104, Note_on_c, 0, 55, 100
2, 103104, Note_on_c, 0, 59, 100
2, 103104, Note_on_c, 0, 62, 100
2, 103284, Note_off_c, 0, 55, 100
2, 103284, Note_off_c, 0, 59, 100
2, 103284, Note_off_c, 0, 62, 100
2, 103296, Note_on_c, 0, 62, 100
2, 103296, Note_on_c, 0, 59, 100
2, 103296, Note_on_c, 0, 55, 100
2, 103476, Note_off_c, 0, 62, 100
2, 103476, Note_off_c, 0, 59, 100
2, 103476, Note_off_c, 0, 55, 100
2, 103488, Note_on_c, 0, 62, 100
2, 103488, Note_on_c, 0, 59, 100
2, 103488, Note_on_c, 0, 55, 100
2, 103668, Note_off_c, 0, 62, 100
2, 103668, Note_off_c, 0, 59, 100
2, 103668, Note_off_c, 0, 55, 100
2, 103680, Note_on_c, 0, 62, 100
2, 103680, Note_on_c, 0, 59, 100
2, 103680, Note_on_c, 0, 55, 100
2, 104044, Note_off_c, 0, 62, 100
2, 104044, Note_off_c, 0, 59, 100
2, 104044, Note_off_c, 0, 55, 100
2, 104064, Note_on_c, 0, 62, 100
2, 104064, Note_on_c, 0, 59, 100
2, 104064, Note_on_c, 0, 55, 100
2, 104428, Note_off_c, 0, 62, 100
2, 104428, Note_off_c, 0, 59, 100
2, 104428, Note_off_c, 0, 55, 100
2, 104448, Note_on_c, 0, 64, 100
2, 104448, Note_on_c, 0, 60, 100
2, 104448, Note_on_c, 0, 55, 100
2, 105176, Note_off_c, 0, 64, 100
2, 105176, Note_off_c, 0, 60, 100
2, 105176, Note_off_c, 0, 55, 100
2, 105408, Note_on_c, 0, 67, 100
2, 105408, Note_on_c, 0, 64, 100
2, 105408, Note_on_c, 0, 60, 100
2, 105588, Note_off_c, 0, 67, 100
2, 105588, Note_off_c, 0, 64, 100
2, 105588, Note_off_c, 0, 60, 100
2, 105600, Note_on_c, 0, 67, 100
2, 105600, Note_on_c, 0, 64, 100
2, 105600, Note_on_c, 0, 60, 100
2, 105780, Note_off_c, 0, 67, 100
2, 105780, Note_off_c, 0, 64, 100
2, 105780, Note_off_c, 0, 60, 100
2, 105792, Note_on_c, 0, 64, 100
2, 105792, Note_on_c, 0, 60, 100
2, 105792, Note_on_c, 0, 67, 100
2, 105972, Note_off_c, 0, 64, 100
2, 105972, Note_off_c, 0, 60, 100
2, 105972, Note_off_c, 0, 67, 100
2, 105984, Note_on_c, 0, 55, 100
2, 105984, Note_on_c, 0, 59, 100
2, 105984, Note_on_c, 0, 62, 100
2, 106164, Note_off_c, 0, 55, 100
2, 106164, Note_off_c, 0, 59, 100
2, 106164, Note_off_c, 0, 62, 100
2, 106176, Note_on_c, 0, 55, 100
2, 106176, Note_on_c, 0, 59, 100
2, 106176, Note_on_c, 0, 62, 100
2, 106356, Note_off_c, 0, 55, 100
2, 106356, Note_off_c, 0, 59, 100
2, 106356, Note_off_c, 0, 62, 100
2, 106368, Note_on_c, 0, 62, 100
2, 106368, Note_on_c, 0, 59, 100
2, 106368, Note_on_c, 0, 55, 100
2, 106548, Note_off_c, 0, 62, 100
2, 106548, Note_off_c, 0, 59, 100
2, 106548, Note_off_c, 0, 55, 100
2, 106560, Note_on_c, 0, 62, 100
2, 106560, Note_on_c, 0, 59, 100
2, 106560, Note_on_c, 0, 55, 100
2, 106740, Note_off_c, 0, 62, 100
2, 106740, Note_off_c, 0, 59, 100
2, 106740, Note_off_c, 0, 55, 100
2, 106752, Note_on_c, 0, 62, 100
2, 106752, Note_on_c, 0, 59, 100
2, 106752, Note_on_c, 0, 55, 100
2, 107116, Note_off_c, 0, 62, 100
2, 107116, Note_off_c, 0, 59, 100
2, 107116, Note_off_c, 0, 55, 100
2, 107136, Note_on_c, 0, 62, 100
2, 107136, Note_on_c, 0, 59, 100
2, 107136, Note_on_c, 0, 55, 100
2, 107500, Note_off_c, 0, 62, 100
2, 107500, Note_off_c, 0, 59, 100
2, 107500, Note_off_c, 0, 55, 100
2, 107520, Note_on_c, 0, 64, 100
2, 107520, Note_on_c, 0, 60, 100
2, 107520, Note_on_c, 0, 55, 100
2, 107700, Note_off_c, 0, 64, 100
2, 107700, Note_off_c, 0, 60, 100
2, 107700, Note_off_c, 0, 55, 100
2, 107712, Note_on_c, 0, 64, 100
2, 107712, Note_on_c, 0, 60, 100
2, 107712, Note_on_c, 0, 55, 100
2, 107892, Note_off_c, 0, 64, 100
2, 107892, Note_off_c, 0, 60, 100
2, 107892, Note_off_c, 0, 55, 100
2, 107904, Note_on_c, 0, 64, 100
2, 107904, Note_on_c, 0, 60, 100
2, 107904, Note_on_c, 0, 55, 100
2, 108084, Note_off_c, 0, 64, 100
2, 108084, Note_off_c, 0, 60, 100
2, 108084, Note_off_c, 0, 55, 100
2, 108096, Note_on_c, 0, 64, 100
2, 108096, Note_on_c, 0, 60, 100
2, 108096, Note_on_c, 0, 55, 100
2, 108276, Note_off_c, 0, 64, 100
2, 108276, Note_off_c, 0, 60, 100
2, 108276, Note_off_c, 0, 55, 100
2, 108288, Note_on_c, 0, 64, 100
2, 108288, Note_on_c, 0, 60, 100
2, 108288, Note_on_c, 0, 55, 100
2, 108652, Note_off_c, 0, 64, 100
2, 108652, Note_off_c, 0, 60, 100
2, 108652, Note_off_c, 0, 55, 100
2, 108672, Note_on_c, 0, 55, 100
2, 108672, Note_on_c, 0, 64, 100
2, 108672, Note_on_c, 0, 60, 100
2, 109036, Note_off_c, 0, 55, 100
2, 109036, Note_off_c, 0, 64, 100
2, 109036, Note_off_c, 0, 60, 100
2, 109056, Note_on_c, 0, 55, 100
2, 109056, Note_on_c, 0, 59, 100
2, 109056, Note_on_c, 0, 62, 100
2, 109236, Note_off_c, 0, 55, 100
2, 109236, Note_off_c, 0, 59, 100
2, 109236, Note_off_c, 0, 62, 100
2, 109248, Note_on_c, 0, 55, 100
2, 109248, Note_on_c, 0, 59, 100
2, 109248, Note_on_c, 0, 62, 100
2, 109428, Note_off_c, 0, 55, 100
2, 109428, Note_off_c, 0, 59, 100
2, 109428, Note_off_c, 0, 62, 100
2, 109440, Note_on_c, 0, 62, 100
2, 109440, Note_on_c, 0, 59, 100
2, 109440, Note_on_c, 0, 55, 100
2, 109620, Note_off_c, 0, 62, 100
2, 109620, Note_off_c, 0, 59, 100
2, 109620, Note_off_c, 0, 55, 100
2, 109632, Note_on_c, 0, 62, 100
2, 109632, Note_on_c, 0, 59, 100
2, 109632, Note_on_c, 0, 55, 100
2, 109812, Note_off_c, 0, 62, 100
2, 109812, Note_off_c, 0, 59, 100
2, 109812, Note_off_c, 0, 55, 100
2, 109824, Note_on_c, 0, 62, 100
2, 109824, Note_on_c, 0, 59, 100
2, 109824, Note_on_c, 0, 55, 100
2, 110188, Note_off_c, 0, 62, 100
2, 110188, Note_off_c, 0, 59, 100
2, 110188, Note_off_c, 0, 55, 100
2, 110208, Note_on_c, 0, 62, 100
2, 110208, Note_on_c, 0, 59, 100
2, 110208, Note_on_c, 0, 55, 100
2, 110572, Note_off_c, 0, 62, 100
2, 110572, Note_off_c, 0, 59, 100
2, 110572, Note_off_c, 0, 55, 100
2, 110592, Note_on_c, 0, 64, 100
2, 110592, Note_on_c, 0, 60, 100
2, 110592, Note_on_c, 0, 55, 100
2, 112048, Note_off_c, 0, 64, 100
2, 112048, Note_off_c, 0, 60, 100
2, 112048, Note_off_c, 0, 55, 100
2, 112048, End_track
3, 0, Start_track
3, 0, Title_t, "Bass"
3, 0, Control_c, 1, 0, 0
3, 0, Program_c, 1, 34
3, 0, Control_c, 1, 10, 63
3, 0, Key_signature, 0, "major"
3, 0, Note_on_c, 1, 67, 127
3, 8, Note_off_c, 1, 67, 127
3, 192, Note_on_c, 1, 55, 127
3, 200, Note_off_c, 1, 55, 127
3, 288, Note_on_c, 1, 55, 127
3, 296, Note_off_c, 1, 55, 127
3, 384, Note_on_c, 1, 55, 127
3, 392, Note_off_c, 1, 55, 127
3, 576, Note_on_c, 1, 55, 127
3, 584, Note_off_c, 1, 55, 127
3, 672, Note_on_c, 1, 55, 127
3, 680, Note_off_c, 1, 55, 127
3, 768, Note_on_c, 1, 55, 127
3, 776, Note_off_c, 1, 55, 127
3, 960, Note_on_c, 1, 55, 127
3, 968, Note_off_c, 1, 55, 127
3, 1056, Note_on_c, 1, 55, 127
3, 1064, Note_off_c, 1, 55, 127
3, 1152, Note_on_c, 1, 55, 127
3, 1160, Note_off_c, 1, 55, 127
3, 1344, Note_on_c, 1, 55, 127
3, 1352, Note_off_c, 1, 55, 127
3, 1440, Note_on_c, 1, 55, 127
3, 1448, Note_off_c, 1, 55, 127
3, 1536, Note_on_c, 1, 55, 127
3, 1544, Note_off_c, 1, 55, 127
3, 1728, Note_on_c, 1, 55, 127
3, 1736, Note_off_c, 1, 55, 127
3, 1824, Note_on_c, 1, 55, 127
3, 1832, Note_off_c, 1, 55, 127
3, 1920, Note_on_c, 1, 55, 127
3, 1928, Note_off_c, 1, 55, 127
3, 2112, Note_on_c, 1, 55, 127
3, 2120, Note_off_c, 1, 55, 127
3, 2208, Note_on_c, 1, 55, 127
3, 2216, Note_off_c, 1, 55, 127
3, 2304, Note_on_c, 1, 55, 127
3, 2312, Note_off_c, 1, 55, 127
3, 2496, Note_on_c, 1, 55, 127
3, 2504, Note_off_c, 1, 55, 127
3, 2592, Note_on_c, 1, 55, 127
3, 2600, Note_off_c, 1, 55, 127
3, 2688, Note_on_c, 1, 55, 127
3, 2696, Note_off_c, 1, 55, 127
3, 2880, Note_on_c, 1, 55, 127
3, 2888, Note_off_c, 1, 55, 127
3, 2976, Note_on_c, 1, 55, 127
3, 2984, Note_off_c, 1, 55, 127
3, 3072, Note_on_c, 1, 55, 127
3, 3080, Note_off_c, 1, 55, 127
3, 3264, Note_on_c, 1, 55, 127
3, 3272, Note_off_c, 1, 55, 127
3, 3360, Note_on_c, 1, 55, 127
3, 3368, Note_off_c, 1, 55, 127
3, 3456, Note_on_c, 1, 55, 127
3, 3464, Note_off_c, 1, 55, 127
3, 3648, Note_on_c, 1, 55, 127
3, 3656, Note_off_c, 1, 55, 127
3, 3744, Note_on_c, 1, 55, 127
3, 3752, Note_off_c, 1, 55, 127
3, 3840, Note_on_c, 1, 67, 127
3, 3848, Note_off_c, 1, 67, 127
3, 3936, Note_on_c, 1, 67, 127
3, 3944, Note_off_c, 1, 67, 127
3, 4032, Note_on_c, 1, 67, 127
3, 4040, Note_off_c, 1, 67, 127
3, 4128, Note_on_c, 1, 67, 127
3, 4136, Note_off_c, 1, 67, 127
3, 4224, Note_on_c, 1, 67, 127
3, 4232, Note_off_c, 1, 67, 127
3, 4320, Note_on_c, 1, 55, 127
3, 4328, Note_off_c, 1, 55, 127
3, 4608, Note_on_c, 1, 55, 127
3, 4616, Note_off_c, 1, 55, 127
3, 4800, Note_on_c, 1, 55, 127
3, 4808, Note_off_c, 1, 55, 127
3, 4896, Note_on_c, 1, 55, 127
3, 4904, Note_off_c, 1, 55, 127
3, 4992, Note_on_c, 1, 55, 127
3, 5000, Note_off_c, 1, 55, 127
3, 5184, Note_on_c, 1, 55, 127
3, 5192, Note_off_c, 1, 55, 127
3, 5280, Note_on_c, 1, 55, 127
3, 5288, Note_off_c, 1, 55, 127
3, 5376, Note_on_c, 1, 67, 127
3, 5384, Note_off_c, 1, 67, 127
3, 5568, Note_on_c, 1, 62, 127
3, 5576, Note_off_c, 1, 62, 127
3, 5664, Note_on_c, 1, 62, 127
3, 5672, Note_off_c, 1, 62, 127
3, 5760, Note_on_c, 1, 67, 127
3, 5768, Note_off_c, 1, 67, 127
3, 5952, Note_on_c, 1, 67, 127
3, 5960, Note_off_c, 1, 67, 127
3, 6144, Note_on_c, 1, 67, 127
3, 6152, Note_off_c, 1, 67, 127
3, 6336, Note_on_c, 1, 62, 127
3, 6344, Note_off_c, 1, 62, 127
3, 6432, Note_on_c, 1, 62, 127
3, 6440, Note_off_c, 1, 62, 127
3, 6528, Note_on_c, 1, 67, 127
3, 6536, Note_off_c, 1, 67, 127
3, 6720, Note_on_c, 1, 62, 127
3, 6728, Note_off_c, 1, 62, 127
3, 6816, Note_on_c, 1, 62, 127
3, 6824, Note_off_c, 1, 62, 127
3, 6912, Note_on_c, 1, 67, 127
3, 6920, Note_off_c, 1, 67, 127
3, 7008, Note_on_c, 1, 67, 127
3, 7016, Note_off_c, 1, 67, 127
3, 7104, Note_on_c, 1, 67, 127
3, 7112, Note_off_c, 1, 67, 127
3, 7200, Note_on_c, 1, 67, 127
3, 7208, Note_off_c, 1, 67, 127
3, 7296, Note_on_c, 1, 67, 127
3, 7304, Note_off_c, 1, 67, 127
3, 7392, Note_on_c, 1, 55, 127
3, 7400, Note_off_c, 1, 55, 127
3, 7632, Note_on_c, 1, 71, 127
3, 7676, Note_off_c, 1, 71, 127
3, 7680, Note_on_c, 1, 55, 127
3, 7688, Note_off_c, 1, 55, 127
3, 7872, Note_on_c, 1, 55, 127
3, 7880, Note_off_c, 1, 55, 127
3, 7968, Note_on_c, 1, 55, 127
3, 7976, Note_off_c, 1, 55, 127
3, 8064, Note_on_c, 1, 55, 127
3, 8072, Note_off_c, 1, 55, 127
3, 8256, Note_on_c, 1, 55, 127
3, 8264, Note_off_c, 1, 55, 127
3, 8352, Note_on_c, 1, 55, 127
3, 8360, Note_off_c, 1, 55, 127
3, 8448, Note_on_c, 1, 55, 127
3, 8456, Note_off_c, 1, 55, 127
3, 8640, Note_on_c, 1, 55, 127
3, 8648, Note_off_c, 1, 55, 127
3, 8832, Note_on_c, 1, 55, 127
3, 8840, Note_off_c, 1, 55, 127
3, 9024, Note_on_c, 1, 55, 127
3, 9032, Note_off_c, 1, 55, 127
3, 9216, Note_on_c, 1, 55, 127
3, 9224, Note_off_c, 1, 55, 127
3, 9408, Note_on_c, 1, 55, 127
3, 9416, Note_off_c, 1, 55, 127
3, 9504, Note_on_c, 1, 55, 127
3, 9512, Note_off_c, 1, 55, 127
3, 9600, Note_on_c, 1, 55, 127
3, 9608, Note_off_c, 1, 55, 127
3, 9792, Note_on_c, 1, 55, 127
3, 9800, Note_off_c, 1, 55, 127
3, 9888, Note_on_c, 1, 55, 127
3, 9896, Note_off_c, 1, 55, 127
3, 9984, Note_on_c, 1, 55, 127
3, 9992, Note_off_c, 1, 55, 127
3, 10176, Note_on_c, 1, 55, 127
3, 10184, Note_off_c, 1, 55, 127
3, 10272, Note_on_c, 1, 55, 127
3, 10280, Note_off_c, 1, 55, 127
3, 10368, Note_on_c, 1, 55, 127
3, 10376, Note_off_c, 1, 55, 127
3, 10560, Note_on_c, 1, 55, 127
3, 10568, Note_off_c, 1, 55, 127
3, 10752, Note_on_c, 1, 55, 127
3, 10760, Note_off_c, 1, 55, 127
3, 10944, Note_on_c, 1, 55, 127
3, 10952, Note_off_c, 1, 55, 127
3, 11040, Note_on_c, 1, 55, 127
3, 11048, Note_off_c, 1, 55, 127
3, 11136, Note_on_c, 1, 55, 127
3, 11144, Note_off_c, 1, 55, 127
3, 11328, Note_on_c, 1, 55, 127
3, 11336, Note_off_c, 1, 55, 127
3, 11424, Note_on_c, 1, 55, 127
3, 11432, Note_off_c, 1, 55, 127
3, 11520, Note_on_c, 1, 55, 127
3, 11528, Note_off_c, 1, 55, 127
3, 11712, Note_on_c, 1, 55, 127
3, 11720, Note_off_c, 1, 55, 127
3, 11808, Note_on_c, 1, 55, 127
3, 11816, Note_off_c, 1, 55, 127
3, 11904, Note_on_c, 1, 55, 127
3, 11912, Note_off_c, 1, 55, 127
3, 12096, Note_on_c, 1, 55, 127
3, 12104, Note_off_c, 1, 55, 127
3, 12288, Note_on_c, 1, 55, 127
3, 12296, Note_off_c, 1, 55, 127
3, 12480, Note_on_c, 1, 55, 127
3, 12488, Note_off_c, 1, 55, 127
3, 12576, Note_on_c, 1, 55, 127
3, 12584, Note_off_c, 1, 55, 127
3, 12672, Note_on_c, 1, 55, 127
3, 12680, Note_off_c, 1, 55, 127
3, 12864, Note_on_c, 1, 55, 127
3, 12872, Note_off_c, 1, 55, 127
3, 12960, Note_on_c, 1, 55, 127
3, 12968, Note_off_c, 1, 55, 127
3, 13056, Note_on_c, 1, 55, 127
3, 13064, Note_off_c, 1, 55, 127
3, 13248, Note_on_c, 1, 55, 127
3, 13256, Note_off_c, 1, 55, 127
3, 13344, Note_on_c, 1, 55, 127
3, 13352, Note_off_c, 1, 55, 127
3, 13440, Note_on_c, 1, 55, 127
3, 13448, Note_off_c, 1, 55, 127
3, 13632, Note_on_c, 1, 55, 127
3, 13640, Note_off_c, 1, 55, 127
3, 13824, Note_on_c, 1, 55, 127
3, 13832, Note_off_c, 1, 55, 127
3, 14016, Note_on_c, 1, 55, 127
3, 14024, Note_off_c, 1, 55, 127
3, 14112, Note_on_c, 1, 55, 127
3, 14120, Note_off_c, 1, 55, 127
3, 14208, Note_on_c, 1, 55, 127
3, 14216, Note_off_c, 1, 55, 127
3, 14400, Note_on_c, 1, 55, 127
3, 14408, Note_off_c, 1, 55, 127
3, 14496, Note_on_c, 1, 55, 127
3, 14504, Note_off_c, 1, 55, 127
3, 14592, Note_on_c, 1, 55, 127
3, 14600, Note_off_c, 1, 55, 127
3, 14784, Note_on_c, 1, 55, 127
3, 14792, Note_off_c, 1, 55, 127
3, 14880, Note_on_c, 1, 55, 127
3, 14888, Note_off_c, 1, 55, 127
3, 14976, Note_on_c, 1, 55, 127
3, 14984, Note_off_c, 1, 55, 127
3, 15168, Note_on_c, 1, 55, 127
3, 15176, Note_off_c, 1, 55, 127
3, 15360, Note_on_c, 1, 55, 127
3, 15368, Note_off_c, 1, 55, 127
3, 15552, Note_on_c, 1, 55, 127
3, 15560, Note_off_c, 1, 55, 127
3, 15648, Note_on_c, 1, 55, 127
3, 15656, Note_off_c, 1, 55, 127
3, 15744, Note_on_c, 1, 55, 127
3, 15752, Note_off_c, 1, 55, 127
3, 15936, Note_on_c, 1, 55, 127
3, 15944, Note_off_c, 1, 55, 127
3, 16032, Note_on_c, 1, 55, 127
3, 16040, Note_off_c, 1, 55, 127
3, 16128, Note_on_c, 1, 55, 127
3, 16136, Note_off_c, 1, 55, 127
3, 16320, Note_on_c, 1, 55, 127
3, 16328, Note_off_c, 1, 55, 127
3, 16416, Note_on_c, 1, 55, 127
3, 16424, Note_off_c, 1, 55, 127
3, 16512, Note_on_c, 1, 55, 127
3, 16520, Note_off_c, 1, 55, 127
3, 16704, Note_on_c, 1, 55, 127
3, 16712, Note_off_c, 1, 55, 127
3, 16896, Note_on_c, 1, 55, 127
3, 16904, Note_off_c, 1, 55, 127
3, 17088, Note_on_c, 1, 55, 127
3, 17096, Note_off_c, 1, 55, 127
3, 17184, Note_on_c, 1, 55, 127
3, 17192, Note_off_c, 1, 55, 127
3, 17280, Note_on_c, 1, 55, 127
3, 17288, Note_off_c, 1, 55, 127
3, 17472, Note_on_c, 1, 55, 127
3, 17480, Note_off_c, 1, 55, 127
3, 17568, Note_on_c, 1, 55, 127
3, 17576, Note_off_c, 1, 55, 127
3, 17664, Note_on_c, 1, 55, 127
3, 17672, Note_off_c, 1, 55, 127
3, 17856, Note_on_c, 1, 55, 127
3, 17864, Note_off_c, 1, 55, 127
3, 17952, Note_on_c, 1, 55, 127
3, 17960, Note_off_c, 1, 55, 127
3, 18048, Note_on_c, 1, 55, 127
3, 18056, Note_off_c, 1, 55, 127
3, 18240, Note_on_c, 1, 55, 127
3, 18248, Note_off_c, 1, 55, 127
3, 18336, Note_on_c, 1, 55, 127
3, 18344, Note_off_c, 1, 55, 127
3, 18432, Note_on_c, 1, 55, 127
3, 18440, Note_off_c, 1, 55, 127
3, 18624, Note_on_c, 1, 55, 127
3, 18632, Note_off_c, 1, 55, 127
3, 18720, Note_on_c, 1, 55, 127
3, 18728, Note_off_c, 1, 55, 127
3, 18816, Note_on_c, 1, 55, 127
3, 18824, Note_off_c, 1, 55, 127
3, 19008, Note_on_c, 1, 55, 127
3, 19016, Note_off_c, 1, 55, 127
3, 19104, Note_on_c, 1, 55, 127
3, 19112, Note_off_c, 1, 55, 127
3, 19200, Note_on_c, 1, 55, 127
3, 19208, Note_off_c, 1, 55, 127
3, 19392, Note_on_c, 1, 55, 127
3, 19400, Note_off_c, 1, 55, 127
3, 19584, Note_on_c, 1, 55, 127
3, 19592, Note_off_c, 1, 55, 127
3, 19776, Note_on_c, 1, 55, 127
3, 19784, Note_off_c, 1, 55, 127
3, 19968, Note_on_c, 1, 53, 127
3, 19976, Note_off_c, 1, 53, 127
3, 20160, Note_on_c, 1, 53, 127
3, 20168, Note_off_c, 1, 53, 127
3, 20352, Note_on_c, 1, 53, 127
3, 20360, Note_off_c, 1, 53, 127
3, 20544, Note_on_c, 1, 53, 127
3, 20552, Note_off_c, 1, 53, 127
3, 20736, Note_on_c, 1, 55, 127
3, 20744, Note_off_c, 1, 55, 127
3, 20928, Note_on_c, 1, 55, 127
3, 20936, Note_off_c, 1, 55, 127
3, 21120, Note_on_c, 1, 55, 127
3, 21128, Note_off_c, 1, 55, 127
3, 21312, Note_on_c, 1, 55, 127
3, 21320, Note_off_c, 1, 55, 127
3, 21504, Note_on_c, 1, 60, 127
3, 21540, Note_off_c, 1, 60, 127
3, 23040, Note_on_c, 1, 55, 127
3, 23048, Note_off_c, 1, 55, 127
3, 23232, Note_on_c, 1, 55, 127
3, 23240, Note_off_c, 1, 55, 127
3, 23328, Note_on_c, 1, 55, 127
3, 23336, Note_off_c, 1, 55, 127
3, 23424, Note_on_c, 1, 55, 127
3, 23432, Note_off_c, 1, 55, 127
3, 23616, Note_on_c, 1, 55, 127
3, 23624, Note_off_c, 1, 55, 127
3, 23712, Note_on_c, 1, 55, 127
3, 23720, Note_off_c, 1, 55, 127
3, 23808, Note_on_c, 1, 55, 127
3, 23816, Note_off_c, 1, 55, 127
3, 24000, Note_on_c, 1, 55, 127
3, 24008, Note_off_c, 1, 55, 127
3, 24096, Note_on_c, 1, 55, 127
3, 24104, Note_off_c, 1, 55, 127
3, 24192, Note_on_c, 1, 55, 127
3, 24200, Note_off_c, 1, 55, 127
3, 24384, Note_on_c, 1, 55, 127
3, 24392, Note_off_c, 1, 55, 127
3, 24480, Note_on_c, 1, 55, 127
3, 24488, Note_off_c, 1, 55, 127
3, 24576, Note_on_c, 1, 55, 127
3, 24584, Note_off_c, 1, 55, 127
3, 24768, Note_on_c, 1, 55, 127
3, 24776, Note_off_c, 1, 55, 127
3, 24864, Note_on_c, 1, 55, 127
3, 24872, Note_off_c, 1, 55, 127
3, 24960, Note_on_c, 1, 55, 127
3, 24968, Note_off_c, 1, 55, 127
3, 25152, Note_on_c, 1, 55, 127
3, 25160, Note_off_c, 1, 55, 127
3, 25344, Note_on_c, 1, 55, 127
3, 25352, Note_off_c, 1, 55, 127
3, 25536, Note_on_c, 1, 55, 127
3, 25544, Note_off_c, 1, 55, 127
3, 25728, Note_on_c, 1, 55, 127
3, 25736, Note_off_c, 1, 55, 127
3, 25920, Note_on_c, 1, 55, 127
3, 25928, Note_off_c, 1, 55, 127
3, 26112, Note_on_c, 1, 53, 127
3, 26120, Note_off_c, 1, 53, 127
3, 26304, Note_on_c, 1, 53, 127
3, 26312, Note_off_c, 1, 53, 127
3, 26496, Note_on_c, 1, 53, 127
3, 26504, Note_off_c, 1, 53, 127
3, 26688, Note_on_c, 1, 53, 127
3, 26696, Note_off_c, 1, 53, 127
3, 26784, Note_on_c, 1, 53, 127
3, 26792, Note_off_c, 1, 53, 127
3, 26880, Note_on_c, 1, 55, 127
3, 26888, Note_off_c, 1, 55, 127
3, 27072, Note_on_c, 1, 55, 127
3, 27080, Note_off_c, 1, 55, 127
3, 27168, Note_on_c, 1, 55, 127
3, 27176, Note_off_c, 1, 55, 127
3, 27264, Note_on_c, 1, 55, 127
3, 27272, Note_off_c, 1, 55, 127
3, 27456, Note_on_c, 1, 55, 127
3, 27464, Note_off_c, 1, 55, 127
3, 27552, Note_on_c, 1, 55, 127
3, 27560, Note_off_c, 1, 55, 127
3, 27648, Note_on_c, 1, 60, 127
3, 27684, Note_off_c, 1, 60, 127
3, 29184, Note_on_c, 1, 55, 127
3, 29260, Note_off_c, 1, 55, 127
3, 30720, Note_on_c, 1, 60, 127
3, 30796, Note_off_c, 1, 60, 127
3, 32256, Note_on_c, 1, 55, 127
3, 32264, Note_off_c, 1, 55, 127
3, 32448, Note_on_c, 1, 55, 127
3, 32456, Note_off_c, 1, 55, 127
3, 32640, Note_on_c, 1, 55, 127
3, 32648, Note_off_c, 1, 55, 127
3, 32832, Note_on_c, 1, 55, 127
3, 32840, Note_off_c, 1, 55, 127
3, 32928, Note_on_c, 1, 55, 127
3, 32936, Note_off_c, 1, 55, 127
3, 33024, Note_on_c, 1, 55, 127
3, 33032, Note_off_c, 1, 55, 127
3, 33120, Note_on_c, 1, 55, 127
3, 33128, Note_off_c, 1, 55, 127
3, 33216, Note_on_c, 1, 55, 127
3, 33224, Note_off_c, 1, 55, 127
3, 33312, Note_on_c, 1, 55, 127
3, 33320, Note_off_c, 1, 55, 127
3, 33408, Note_on_c, 1, 55, 127
3, 33416, Note_off_c, 1, 55, 127
3, 33504, Note_on_c, 1, 55, 127
3, 33512, Note_off_c, 1, 55, 127
3, 33600, Note_on_c, 1, 55, 127
3, 33608, Note_off_c, 1, 55, 127
3, 33696, Note_on_c, 1, 55, 127
3, 33704, Note_off_c, 1, 55, 127
3, 33792, Note_on_c, 1, 55, 127
3, 33800, Note_off_c, 1, 55, 127
3, 33984, Note_on_c, 1, 55, 127
3, 33992, Note_off_c, 1, 55, 127
3, 34080, Note_on_c, 1, 55, 127
3, 34088, Note_off_c, 1, 55, 127
3, 34176, Note_on_c, 1, 55, 127
3, 34184, Note_off_c, 1, 55, 127
3, 34368, Note_on_c, 1, 55, 127
3, 34376, Note_off_c, 1, 55, 127
3, 34464, Note_on_c, 1, 55, 127
3, 34472, Note_off_c, 1, 55, 127
3, 34560, Note_on_c, 1, 55, 127
3, 34568, Note_off_c, 1, 55, 127
3, 34752, Note_on_c, 1, 55, 127
3, 34760, Note_off_c, 1, 55, 127
3, 34848, Note_on_c, 1, 55, 127
3, 34856, Note_off_c, 1, 55, 127
3, 34944, Note_on_c, 1, 55, 127
3, 34952, Note_off_c, 1, 55, 127
3, 35136, Note_on_c, 1, 55, 127
3, 35144, Note_off_c, 1, 55, 127
3, 35328, Note_on_c, 1, 55, 127
3, 35336, Note_off_c, 1, 55, 127
3, 35520, Note_on_c, 1, 55, 127
3, 35528, Note_off_c, 1, 55, 127
3, 35616, Note_on_c, 1, 55, 127
3, 35624, Note_off_c, 1, 55, 127
3, 35712, Note_on_c, 1, 55, 127
3, 35720, Note_off_c, 1, 55, 127
3, 35904, Note_on_c, 1, 55, 127
3, 35912, Note_off_c, 1, 55, 127
3, 36000, Note_on_c, 1, 55, 127
3, 36008, Note_off_c, 1, 55, 127
3, 36096, Note_on_c, 1, 55, 127
3, 36104, Note_off_c, 1, 55, 127
3, 36288, Note_on_c, 1, 55, 127
3, 36296, Note_off_c, 1, 55, 127
3, 36384, Note_on_c, 1, 55, 127
3, 36392, Note_off_c, 1, 55, 127
3, 36480, Note_on_c, 1, 55, 127
3, 36488, Note_off_c, 1, 55, 127
3, 36672, Note_on_c, 1, 55, 127
3, 36680, Note_off_c, 1, 55, 127
3, 36864, Note_on_c, 1, 53, 127
3, 36872, Note_off_c, 1, 53, 127
3, 37056, Note_on_c, 1, 53, 127
3, 37064, Note_off_c, 1, 53, 127
3, 37248, Note_on_c, 1, 53, 127
3, 37256, Note_off_c, 1, 53, 127
3, 37440, Note_on_c, 1, 53, 127
3, 37448, Note_off_c, 1, 53, 127
3, 37536, Note_on_c, 1, 53, 127
3, 37544, Note_off_c, 1, 53, 127
3, 37632, Note_on_c, 1, 55, 127
3, 37640, Note_off_c, 1, 55, 127
3, 37824, Note_on_c, 1, 55, 127
3, 37832, Note_off_c, 1, 55, 127
3, 37920, Note_on_c, 1, 55, 127
3, 37928, Note_off_c, 1, 55, 127
3, 38016, Note_on_c, 1, 55, 127
3, 38024, Note_off_c, 1, 55, 127
3, 38208, Note_on_c, 1, 55, 127
3, 38216, Note_off_c, 1, 55, 127
3, 38304, Note_on_c, 1, 55, 127
3, 38312, Note_off_c, 1, 55, 127
3, 38400, Note_on_c, 1, 60, 127
3, 38436, Note_off_c, 1, 60, 127
3, 39936, Note_on_c, 1, 55, 127
3, 39944, Note_off_c, 1, 55, 127
3, 40128, Note_on_c, 1, 55, 127
3, 40136, Note_off_c, 1, 55, 127
3, 40224, Note_on_c, 1, 55, 127
3, 40232, Note_off_c, 1, 55, 127
3, 40320, Note_on_c, 1, 55, 127
3, 40328, Note_off_c, 1, 55, 127
3, 40512, Note_on_c, 1, 55, 127
3, 40520, Note_off_c, 1, 55, 127
3, 40704, Note_on_c, 1, 55, 127
3, 40712, Note_off_c, 1, 55, 127
3, 40896, Note_on_c, 1, 55, 127
3, 40904, Note_off_c, 1, 55, 127
3, 40992, Note_on_c, 1, 55, 127
3, 41000, Note_off_c, 1, 55, 127
3, 41088, Note_on_c, 1, 55, 127
3, 41096, Note_off_c, 1, 55, 127
3, 41280, Note_on_c, 1, 55, 127
3, 41288, Note_off_c, 1, 55, 127
3, 41472, Note_on_c, 1, 55, 127
3, 41480, Note_off_c, 1, 55, 127
3, 41664, Note_on_c, 1, 55, 127
3, 41672, Note_off_c, 1, 55, 127
3, 41856, Note_on_c, 1, 55, 127
3, 41864, Note_off_c, 1, 55, 127
3, 42048, Note_on_c, 1, 55, 127
3, 42056, Note_off_c, 1, 55, 127
3, 42144, Note_on_c, 1, 55, 127
3, 42152, Note_off_c, 1, 55, 127
3, 42240, Note_on_c, 1, 55, 127
3, 42248, Note_off_c, 1, 55, 127
3, 42432, Note_on_c, 1, 55, 127
3, 42440, Note_off_c, 1, 55, 127
3, 42528, Note_on_c, 1, 55, 127
3, 42536, Note_off_c, 1, 55, 127
3, 42624, Note_on_c, 1, 55, 127
3, 42632, Note_off_c, 1, 55, 127
3, 42816, Note_on_c, 1, 55, 127
3, 42824, Note_off_c, 1, 55, 127
3, 42912, Note_on_c, 1, 55, 127
3, 42920, Note_off_c, 1, 55, 127
3, 43008, Note_on_c, 1, 53, 127
3, 43016, Note_off_c, 1, 53, 127
3, 43392, Note_on_c, 1, 53, 127
3, 43400, Note_off_c, 1, 53, 127
3, 43584, Note_on_c, 1, 53, 127
3, 43592, Note_off_c, 1, 53, 127
3, 43680, Note_on_c, 1, 53, 127
3, 43688, Note_off_c, 1, 53, 127
3, 43776, Note_on_c, 1, 55, 127
3, 43784, Note_off_c, 1, 55, 127
3, 43968, Note_on_c, 1, 55, 127
3, 43976, Note_off_c, 1, 55, 127
3, 44064, Note_on_c, 1, 55, 127
3, 44072, Note_off_c, 1, 55, 127
3, 44160, Note_on_c, 1, 55, 127
3, 44168, Note_off_c, 1, 55, 127
3, 44352, Note_on_c, 1, 55, 127
3, 44360, Note_off_c, 1, 55, 127
3, 44448, Note_on_c, 1, 55, 127
3, 44456, Note_off_c, 1, 55, 127
3, 44544, Note_on_c, 1, 60, 127
3, 44580, Note_off_c, 1, 60, 127
3, 46080, Note_on_c, 1, 55, 127
3, 46088, Note_off_c, 1, 55, 127
3, 46272, Note_on_c, 1, 59, 127
3, 46280, Note_off_c, 1, 59, 127
3, 46464, Note_on_c, 1, 62, 127
3, 46472, Note_off_c, 1, 62, 127
3, 46656, Note_on_c, 1, 59, 127
3, 46664, Note_off_c, 1, 59, 127
3, 46848, Note_on_c, 1, 55, 127
3, 46856, Note_off_c, 1, 55, 127
3, 47040, Note_on_c, 1, 59, 127
3, 47048, Note_off_c, 1, 59, 127
3, 47232, Note_on_c, 1, 62, 127
3, 47240, Note_off_c, 1, 62, 127
3, 47424, Note_on_c, 1, 59, 127
3, 47432, Note_off_c, 1, 59, 127
3, 47616, Note_on_c, 1, 60, 127
3, 47624, Note_off_c, 1, 60, 127
3, 47808, Note_on_c, 1, 64, 127
3, 47816, Note_off_c, 1, 64, 127
3, 48000, Note_on_c, 1, 67, 127
3, 48008, Note_off_c, 1, 67, 127
3, 48192, Note_on_c, 1, 64, 127
3, 48200, Note_off_c, 1, 64, 127
3, 48384, Note_on_c, 1, 60, 127
3, 48392, Note_off_c, 1, 60, 127
3, 48576, Note_on_c, 1, 64, 127
3, 48584, Note_off_c, 1, 64, 127
3, 48768, Note_on_c, 1, 67, 127
3, 48776, Note_off_c, 1, 67, 127
3, 48960, Note_on_c, 1, 64, 127
3, 48968, Note_off_c, 1, 64, 127
3, 49152, Note_on_c, 1, 55, 127
3, 49160, Note_off_c, 1, 55, 127
3, 49344, Note_on_c, 1, 59, 127
3, 49352, Note_off_c, 1, 59, 127
3, 49536, Note_on_c, 1, 62, 127
3, 49544, Note_off_c, 1, 62, 127
3, 49728, Note_on_c, 1, 59, 127
3, 49736, Note_off_c, 1, 59, 127
3, 49920, Note_on_c, 1, 55, 127
3, 49928, Note_off_c, 1, 55, 127
3, 50112, Note_on_c, 1, 59, 127
3, 50120, Note_off_c, 1, 59, 127
3, 50304, Note_on_c, 1, 62, 127
3, 50312, Note_off_c, 1, 62, 127
3, 50496, Note_on_c, 1, 59, 127
3, 50504, Note_off_c, 1, 59, 127
3, 50688, Note_on_c, 1, 60, 127
3, 50696, Note_off_c, 1, 60, 127
3, 50880, Note_on_c, 1, 64, 127
3, 50888, Note_off_c, 1, 64, 127
3, 51072, Note_on_c, 1, 67, 127
3, 51080, Note_off_c, 1, 67, 127
3, 51264, Note_on_c, 1, 64, 127
3, 51272, Note_off_c, 1, 64, 127
3, 51456, Note_on_c, 1, 72, 127
3, 51464, Note_off_c, 1, 72, 127
3, 51648, Note_on_c, 1, 72, 127
3, 51656, Note_off_c, 1, 72, 127
3, 51840, Note_on_c, 1, 69, 127
3, 51848, Note_off_c, 1, 69, 127
3, 52032, Note_on_c, 1, 67, 127
3, 52040, Note_off_c, 1, 67, 127
3, 52224, Note_on_c, 1, 59, 127
3, 52232, Note_off_c, 1, 59, 127
3, 52608, Note_on_c, 1, 59, 127
3, 52616, Note_off_c, 1, 59, 127
3, 52800, Note_on_c, 1, 59, 127
3, 52808, Note_off_c, 1, 59, 127
3, 52896, Note_on_c, 1, 59, 127
3, 52904, Note_off_c, 1, 59, 127
3, 52992, Note_on_c, 1, 59, 127
3, 53000, Note_off_c, 1, 59, 127
3, 53184, Note_on_c, 1, 59, 127
3, 53192, Note_off_c, 1, 59, 127
3, 53376, Note_on_c, 1, 59, 127
3, 53384, Note_off_c, 1, 59, 127
3, 53568, Note_on_c, 1, 59, 127
3, 53576, Note_off_c, 1, 59, 127
3, 53760, Note_on_c, 1, 60, 127
3, 53768, Note_off_c, 1, 60, 127
3, 53952, Note_on_c, 1, 60, 127
3, 53960, Note_off_c, 1, 60, 127
3, 54144, Note_on_c, 1, 60, 127
3, 54152, Note_off_c, 1, 60, 127
3, 54336, Note_on_c, 1, 60, 127
3, 54344, Note_off_c, 1, 60, 127
3, 54432, Note_on_c, 1, 60, 127
3, 54440, Note_off_c, 1, 60, 127
3, 54528, Note_on_c, 1, 60, 127
3, 54536, Note_off_c, 1, 60, 127
3, 54720, Note_on_c, 1, 60, 127
3, 54728, Note_off_c, 1, 60, 127
3, 54816, Note_on_c, 1, 60, 127
3, 54824, Note_off_c, 1, 60, 127
3, 54912, Note_on_c, 1, 60, 127
3, 54920, Note_off_c, 1, 60, 127
3, 55104, Note_on_c, 1, 60, 127
3, 55112, Note_off_c, 1, 60, 127
3, 55296, Note_on_c, 1, 55, 127
3, 55304, Note_off_c, 1, 55, 127
3, 55680, Note_on_c, 1, 55, 127
3, 55688, Note_off_c, 1, 55, 127
3, 56064, Note_on_c, 1, 55, 127
3, 56072, Note_off_c, 1, 55, 127
3, 56448, Note_on_c, 1, 55, 127
3, 56456, Note_off_c, 1, 55, 127
3, 56640, Note_on_c, 1, 55, 127
3, 56648, Note_off_c, 1, 55, 127
3, 56832, Note_on_c, 1, 60, 127
3, 56840, Note_off_c, 1, 60, 127
3, 57216, Note_on_c, 1, 60, 127
3, 57224, Note_off_c, 1, 60, 127
3, 57408, Note_on_c, 1, 60, 127
3, 57416, Note_off_c, 1, 60, 127
3, 57504, Note_on_c, 1, 60, 127
3, 57512, Note_off_c, 1, 60, 127
3, 57600, Note_on_c, 1, 60, 127
3, 57608, Note_off_c, 1, 60, 127
3, 57792, Note_on_c, 1, 60, 127
3, 57800, Note_off_c, 1, 60, 127
3, 57984, Note_on_c, 1, 59, 127
3, 57992, Note_off_c, 1, 59, 127
3, 58176, Note_on_c, 1, 57, 127
3, 58184, Note_off_c, 1, 57, 127
3, 58368, Note_on_c, 1, 55, 127
3, 58376, Note_off_c, 1, 55, 127
3, 58560, Note_on_c, 1, 59, 127
3, 58568, Note_off_c, 1, 59, 127
3, 58752, Note_on_c, 1, 62, 127
3, 58760, Note_off_c, 1, 62, 127
3, 58944, Note_on_c, 1, 59, 127
3, 58952, Note_off_c, 1, 59, 127
3, 59136, Note_on_c, 1, 55, 127
3, 59144, Note_off_c, 1, 55, 127
3, 59328, Note_on_c, 1, 59, 127
3, 59336, Note_off_c, 1, 59, 127
3, 59520, Note_on_c, 1, 62, 127
3, 59528, Note_off_c, 1, 62, 127
3, 59712, Note_on_c, 1, 59, 127
3, 59720, Note_off_c, 1, 59, 127
3, 59904, Note_on_c, 1, 60, 127
3, 59912, Note_off_c, 1, 60, 127
3, 60096, Note_on_c, 1, 64, 127
3, 60104, Note_off_c, 1, 64, 127
3, 60288, Note_on_c, 1, 67, 127
3, 60296, Note_off_c, 1, 67, 127
3, 60480, Note_on_c, 1, 64, 127
3, 60488, Note_off_c, 1, 64, 127
3, 60672, Note_on_c, 1, 60, 127
3, 60680, Note_off_c, 1, 60, 127
3, 60864, Note_on_c, 1, 60, 127
3, 60872, Note_off_c, 1, 60, 127
3, 61056, Note_on_c, 1, 59, 127
3, 61064, Note_off_c, 1, 59, 127
3, 61248, Note_on_c, 1, 57, 127
3, 61256, Note_off_c, 1, 57, 127
3, 61440, Note_on_c, 1, 55, 127
3, 61448, Note_off_c, 1, 55, 127
3, 61632, Note_on_c, 1, 59, 127
3, 61640, Note_off_c, 1, 59, 127
3, 61824, Note_on_c, 1, 62, 127
3, 61832, Note_off_c, 1, 62, 127
3, 62016, Note_on_c, 1, 59, 127
3, 62024, Note_off_c, 1, 59, 127
3, 62208, Note_on_c, 1, 55, 127
3, 62216, Note_off_c, 1, 55, 127
3, 62400, Note_on_c, 1, 59, 127
3, 62408, Note_off_c, 1, 59, 127
3, 62592, Note_on_c, 1, 62, 127
3, 62600, Note_off_c, 1, 62, 127
3, 62784, Note_on_c, 1, 59, 127
3, 62792, Note_off_c, 1, 59, 127
3, 62976, Note_on_c, 1, 60, 127
3, 63128, Note_off_c, 1, 60, 127
3, 64512, Note_on_c, 1, 55, 127
3, 64520, Note_off_c, 1, 55, 127
3, 64704, Note_on_c, 1, 55, 127
3, 64712, Note_off_c, 1, 55, 127
3, 64800, Note_on_c, 1, 55, 127
3, 64808, Note_off_c, 1, 55, 127
3, 64896, Note_on_c, 1, 55, 127
3, 64904, Note_off_c, 1, 55, 127
3, 65088, Note_on_c, 1, 55, 127
3, 65096, Note_off_c, 1, 55, 127
3, 65184, Note_on_c, 1, 55, 127
3, 65192, Note_off_c, 1, 55, 127
3, 65280, Note_on_c, 1, 55, 127
3, 65288, Note_off_c, 1, 55, 127
3, 65472, Note_on_c, 1, 55, 127
3, 65480, Note_off_c, 1, 55, 127
3, 65568, Note_on_c, 1, 55, 127
3, 65576, Note_off_c, 1, 55, 127
3, 65664, Note_on_c, 1, 55, 127
3, 65672, Note_off_c, 1, 55, 127
3, 65856, Note_on_c, 1, 55, 127
3, 65864, Note_off_c, 1, 55, 127
3, 65952, Note_on_c, 1, 55, 127
3, 65960, Note_off_c, 1, 55, 127
3, 66048, Note_on_c, 1, 55, 127
3, 66056, Note_off_c, 1, 55, 127
3, 66240, Note_on_c, 1, 55, 127
3, 66248, Note_off_c, 1, 55, 127
3, 66336, Note_on_c, 1, 55, 127
3, 66344, Note_off_c, 1, 55, 127
3, 66432, Note_on_c, 1, 55, 127
3, 66440, Note_off_c, 1, 55, 127
3, 66624, Note_on_c, 1, 55, 127
3, 66632, Note_off_c, 1, 55, 127
3, 66720, Note_on_c, 1, 55, 127
3, 66728, Note_off_c, 1, 55, 127
3, 66816, Note_on_c, 1, 55, 127
3, 66824, Note_off_c, 1, 55, 127
3, 67008, Note_on_c, 1, 55, 127
3, 67016, Note_off_c, 1, 55, 127
3, 67104, Note_on_c, 1, 55, 127
3, 67112, Note_off_c, 1, 55, 127
3, 67200, Note_on_c, 1, 55, 127
3, 67208, Note_off_c, 1, 55, 127
3, 67296, Note_on_c, 1, 55, 127
3, 67308, Note_off_c, 1, 55, 127
3, 67392, Note_on_c, 1, 55, 127
3, 67400, Note_off_c, 1, 55, 127
3, 67488, Note_on_c, 1, 55, 127
3, 67496, Note_off_c, 1, 55, 127
3, 67584, Note_on_c, 1, 55, 127
3, 67592, Note_off_c, 1, 55, 127
3, 67776, Note_on_c, 1, 55, 127
3, 67784, Note_off_c, 1, 55, 127
3, 67872, Note_on_c, 1, 55, 127
3, 67880, Note_off_c, 1, 55, 127
3, 67968, Note_on_c, 1, 55, 127
3, 67976, Note_off_c, 1, 55, 127
3, 68160, Note_on_c, 1, 55, 127
3, 68168, Note_off_c, 1, 55, 127
3, 68256, Note_on_c, 1, 55, 127
3, 68264, Note_off_c, 1, 55, 127
3, 68352, Note_on_c, 1, 55, 127
3, 68360, Note_off_c, 1, 55, 127
3, 68544, Note_on_c, 1, 55, 127
3, 68552, Note_off_c, 1, 55, 127
3, 68640, Note_on_c, 1, 55, 127
3, 68648, Note_off_c, 1, 55, 127
3, 68736, Note_on_c, 1, 55, 127
3, 68744, Note_off_c, 1, 55, 127
3, 68832, Note_on_c, 1, 55, 127
3, 68844, Note_off_c, 1, 55, 127
3, 68928, Note_on_c, 1, 55, 127
3, 68936, Note_off_c, 1, 55, 127
3, 69024, Note_on_c, 1, 55, 127
3, 69032, Note_off_c, 1, 55, 127
3, 69120, Note_on_c, 1, 55, 127
3, 69128, Note_off_c, 1, 55, 127
3, 69312, Note_on_c, 1, 55, 127
3, 69320, Note_off_c, 1, 55, 127
3, 69408, Note_on_c, 1, 55, 127
3, 69416, Note_off_c, 1, 55, 127
3, 69504, Note_on_c, 1, 55, 127
3, 69512, Note_off_c, 1, 55, 127
3, 69696, Note_on_c, 1, 55, 127
3, 69704, Note_off_c, 1, 55, 127
3, 69792, Note_on_c, 1, 55, 127
3, 69800, Note_off_c, 1, 55, 127
3, 69888, Note_on_c, 1, 55, 127
3, 69896, Note_off_c, 1, 55, 127
3, 70080, Note_on_c, 1, 55, 127
3, 70088, Note_off_c, 1, 55, 127
3, 70176, Note_on_c, 1, 55, 127
3, 70184, Note_off_c, 1, 55, 127
3, 70272, Note_on_c, 1, 55, 127
3, 70280, Note_off_c, 1, 55, 127
3, 70464, Note_on_c, 1, 55, 127
3, 70472, Note_off_c, 1, 55, 127
3, 70560, Note_on_c, 1, 55, 127
3, 70568, Note_off_c, 1, 55, 127
3, 70656, Note_on_c, 1, 55, 127
3, 70664, Note_off_c, 1, 55, 127
3, 70848, Note_on_c, 1, 55, 127
3, 70856, Note_off_c, 1, 55, 127
3, 70944, Note_on_c, 1, 55, 127
3, 70952, Note_off_c, 1, 55, 127
3, 71040, Note_on_c, 1, 55, 127
3, 71048, Note_off_c, 1, 55, 127
3, 71232, Note_on_c, 1, 55, 127
3, 71240, Note_off_c, 1, 55, 127
3, 71328, Note_on_c, 1, 55, 127
3, 71336, Note_off_c, 1, 55, 127
3, 71424, Note_on_c, 1, 55, 127
3, 71432, Note_off_c, 1, 55, 127
3, 71616, Note_on_c, 1, 55, 127
3, 71624, Note_off_c, 1, 55, 127
3, 71712, Note_on_c, 1, 55, 127
3, 71720, Note_off_c, 1, 55, 127
3, 71808, Note_on_c, 1, 55, 127
3, 71816, Note_off_c, 1, 55, 127
3, 72000, Note_on_c, 1, 55, 127
3, 72008, Note_off_c, 1, 55, 127
3, 72096, Note_on_c, 1, 55, 127
3, 72104, Note_off_c, 1, 55, 127
3, 72192, Note_on_c, 1, 53, 127
3, 72204, Note_off_c, 1, 53, 127
3, 72384, Note_on_c, 1, 53, 127
3, 72396, Note_off_c, 1, 53, 127
3, 72480, Note_on_c, 1, 53, 127
3, 72492, Note_off_c, 1, 53, 127
3, 72576, Note_on_c, 1, 53, 127
3, 72588, Note_off_c, 1, 53, 127
3, 72768, Note_on_c, 1, 53, 127
3, 72780, Note_off_c, 1, 53, 127
3, 72864, Note_on_c, 1, 53, 127
3, 72876, Note_off_c, 1, 53, 127
3, 72960, Note_on_c, 1, 55, 127
3, 72972, Note_off_c, 1, 55, 127
3, 73152, Note_on_c, 1, 55, 127
3, 73164, Note_off_c, 1, 55, 127
3, 73248, Note_on_c, 1, 55, 127
3, 73260, Note_off_c, 1, 55, 127
3, 73344, Note_on_c, 1, 55, 127
3, 73356, Note_off_c, 1, 55, 127
3, 73536, Note_on_c, 1, 55, 127
3, 73548, Note_off_c, 1, 55, 127
3, 73632, Note_on_c, 1, 55, 127
3, 73644, Note_off_c, 1, 55, 127
3, 73728, Note_on_c, 1, 60, 127
3, 73956, Note_off_c, 1, 60, 127
3, 75264, Note_on_c, 1, 55, 127
3, 75272, Note_off_c, 1, 55, 127
3, 75456, Note_on_c, 1, 55, 127
3, 75464, Note_off_c, 1, 55, 127
3, 75552, Note_on_c, 1, 55, 127
3, 75560, Note_off_c, 1, 55, 127
3, 75648, Note_on_c, 1, 55, 127
3, 75656, Note_off_c, 1, 55, 127
3, 75840, Note_on_c, 1, 55, 127
3, 75848, Note_off_c, 1, 55, 127
3, 75936, Note_on_c, 1, 55, 127
3, 75944, Note_off_c, 1, 55, 127
3, 76032, Note_on_c, 1, 55, 127
3, 76040, Note_off_c, 1, 55, 127
3, 76224, Note_on_c, 1, 55, 127
3, 76232, Note_off_c, 1, 55, 127
3, 76320, Note_on_c, 1, 55, 127
3, 76328, Note_off_c, 1, 55, 127
3, 76416, Note_on_c, 1, 55, 127
3, 76424, Note_off_c, 1, 55, 127
3, 76608, Note_on_c, 1, 55, 127
3, 76616, Note_off_c, 1, 55, 127
3, 76704, Note_on_c, 1, 55, 127
3, 76712, Note_off_c, 1, 55, 127
3, 76800, Note_on_c, 1, 55, 127
3, 76808, Note_off_c, 1, 55, 127
3, 76992, Note_on_c, 1, 55, 127
3, 77000, Note_off_c, 1, 55, 127
3, 77088, Note_on_c, 1, 55, 127
3, 77096, Note_off_c, 1, 55, 127
3, 77184, Note_on_c, 1, 55, 127
3, 77192, Note_off_c, 1, 55, 127
3, 77376, Note_on_c, 1, 55, 127
3, 77384, Note_off_c, 1, 55, 127
3, 77472, Note_on_c, 1, 55, 127
3, 77480, Note_off_c, 1, 55, 127
3, 77568, Note_on_c, 1, 55, 127
3, 77576, Note_off_c, 1, 55, 127
3, 77664, Note_on_c, 1, 55, 127
3, 77676, Note_off_c, 1, 55, 127
3, 77856, Note_on_c, 1, 55, 127
3, 77864, Note_off_c, 1, 55, 127
3, 77952, Note_on_c, 1, 55, 127
3, 77960, Note_off_c, 1, 55, 127
3, 78048, Note_on_c, 1, 55, 127
3, 78060, Note_off_c, 1, 55, 127
3, 78144, Note_on_c, 1, 55, 127
3, 78152, Note_off_c, 1, 55, 127
3, 78240, Note_on_c, 1, 55, 127
3, 78248, Note_off_c, 1, 55, 127
3, 78336, Note_on_c, 1, 53, 127
3, 78348, Note_off_c, 1, 53, 127
3, 78528, Note_on_c, 1, 53, 127
3, 78540, Note_off_c, 1, 53, 127
3, 78624, Note_on_c, 1, 53, 127
3, 78636, Note_off_c, 1, 53, 127
3, 78720, Note_on_c, 1, 53, 127
3, 78732, Note_off_c, 1, 53, 127
3, 78912, Note_on_c, 1, 53, 127
3, 78924, Note_off_c, 1, 53, 127
3, 79008, Note_on_c, 1, 53, 127
3, 79020, Note_off_c, 1, 53, 127
3, 79104, Note_on_c, 1, 55, 127
3, 79116, Note_off_c, 1, 55, 127
3, 79296, Note_on_c, 1, 55, 127
3, 79308, Note_off_c, 1, 55, 127
3, 79392, Note_on_c, 1, 55, 127
3, 79404, Note_off_c, 1, 55, 127
3, 79488, Note_on_c, 1, 55, 127
3, 79500, Note_off_c, 1, 55, 127
3, 79680, Note_on_c, 1, 55, 127
3, 79692, Note_off_c, 1, 55, 127
3, 79776, Note_on_c, 1, 55, 127
3, 79788, Note_off_c, 1, 55, 127
3, 79872, Note_on_c, 1, 60, 127
3, 80100, Note_off_c, 1, 60, 127
3, 81408, Note_on_c, 1, 55, 127
3, 81416, Note_off_c, 1, 55, 127
3, 81600, Note_on_c, 1, 59, 127
3, 81608, Note_off_c, 1, 59, 127
3, 81792, Note_on_c, 1, 62, 127
3, 81800, Note_off_c, 1, 62, 127
3, 81984, Note_on_c, 1, 59, 127
3, 81992, Note_off_c, 1, 59, 127
3, 82176, Note_on_c, 1, 55, 127
3, 82184, Note_off_c, 1, 55, 127
3, 82368, Note_on_c, 1, 59, 127
3, 82376, Note_off_c, 1, 59, 127
3, 82560, Note_on_c, 1, 62, 127
3, 82568, Note_off_c, 1, 62, 127
3, 82752, Note_on_c, 1, 59, 127
3, 82760, Note_off_c, 1, 59, 127
3, 82944, Note_on_c, 1, 60, 127
3, 82952, Note_off_c, 1, 60, 127
3, 83136, Note_on_c, 1, 64, 127
3, 83144, Note_off_c, 1, 64, 127
3, 83328, Note_on_c, 1, 67, 127
3, 83336, Note_off_c, 1, 67, 127
3, 83520, Note_on_c, 1, 64, 127
3, 83528, Note_off_c, 1, 64, 127
3, 83712, Note_on_c, 1, 60, 127
3, 83720, Note_off_c, 1, 60, 127
3, 83904, Note_on_c, 1, 64, 127
3, 83912, Note_off_c, 1, 64, 127
3, 84096, Note_on_c, 1, 67, 127
3, 84104, Note_off_c, 1, 67, 127
3, 84288, Note_on_c, 1, 64, 127
3, 84296, Note_off_c, 1, 64, 127
3, 84480, Note_on_c, 1, 55, 127
3, 84488, Note_off_c, 1, 55, 127
3, 84672, Note_on_c, 1, 59, 127
3, 84680, Note_off_c, 1, 59, 127
3, 84864, Note_on_c, 1, 62, 127
3, 84872, Note_off_c, 1, 62, 127
3, 85056, Note_on_c, 1, 59, 127
3, 85064, Note_off_c, 1, 59, 127
3, 85248, Note_on_c, 1, 55, 127
3, 85256, Note_off_c, 1, 55, 127
3, 85440, Note_on_c, 1, 59, 127
3, 85448, Note_off_c, 1, 59, 127
3, 85632, Note_on_c, 1, 62, 127
3, 85640, Note_off_c, 1, 62, 127
3, 85824, Note_on_c, 1, 59, 127
3, 85832, Note_off_c, 1, 59, 127
3, 86016, Note_on_c, 1, 60, 127
3, 86024, Note_off_c, 1, 60, 127
3, 86208, Note_on_c, 1, 64, 127
3, 86216, Note_off_c, 1, 64, 127
3, 86400, Note_on_c, 1, 67, 127
3, 86408, Note_off_c, 1, 67, 127
3, 86592, Note_on_c, 1, 64, 127
3, 86600, Note_off_c, 1, 64, 127
3, 86784, Note_on_c, 1, 72, 127
3, 86792, Note_off_c, 1, 72, 127
3, 86976, Note_on_c, 1, 69, 127
3, 86988, Note_off_c, 1, 69, 127
3, 87168, Note_on_c, 1, 67, 127
3, 87180, Note_off_c, 1, 67, 127
3, 87360, Note_on_c, 1, 64, 127
3, 87372, Note_off_c, 1, 64, 127
3, 87552, Note_on_c, 1, 58, 127
3, 87564, Note_off_c, 1, 58, 127
3, 87936, Note_on_c, 1, 58, 127
3, 87948, Note_off_c, 1, 58, 127
3, 88320, Note_on_c, 1, 59, 127
3, 88332, Note_off_c, 1, 59, 127
3, 88704, Note_on_c, 1, 59, 127
3, 88716, Note_off_c, 1, 59, 127
3, 89088, Note_on_c, 1, 60, 127
3, 89096, Note_off_c, 1, 60, 127
3, 89280, Note_on_c, 1, 64, 127
3, 89288, Note_off_c, 1, 64, 127
3, 89472, Note_on_c, 1, 67, 127
3, 89480, Note_off_c, 1, 67, 127
3, 89664, Note_on_c, 1, 64, 127
3, 89672, Note_off_c, 1, 64, 127
3, 89856, Note_on_c, 1, 60, 127
3, 89868, Note_off_c, 1, 60, 127
3, 90048, Note_on_c, 1, 60, 127
3, 90060, Note_off_c, 1, 60, 127
3, 90240, Note_on_c, 1, 60, 127
3, 90252, Note_off_c, 1, 60, 127
3, 90432, Note_on_c, 1, 60, 127
3, 90444, Note_off_c, 1, 60, 127
3, 90624, Note_on_c, 1, 55, 127
3, 90636, Note_off_c, 1, 55, 127
3, 91008, Note_on_c, 1, 55, 127
3, 91020, Note_off_c, 1, 55, 127
3, 91392, Note_on_c, 1, 55, 127
3, 91404, Note_off_c, 1, 55, 127
3, 91776, Note_on_c, 1, 55, 127
3, 91788, Note_off_c, 1, 55, 127
3, 92160, Note_on_c, 1, 60, 127
3, 92172, Note_off_c, 1, 60, 127
3, 92544, Note_on_c, 1, 60, 127
3, 92556, Note_off_c, 1, 60, 127
3, 92928, Note_on_c, 1, 60, 127
3, 92940, Note_off_c, 1, 60, 127
3, 93312, Note_on_c, 1, 60, 127
3, 93324, Note_off_c, 1, 60, 127
3, 93696, Note_on_c, 1, 55, 127
3, 93704, Note_off_c, 1, 55, 127
3, 93888, Note_on_c, 1, 59, 127
3, 93896, Note_off_c, 1, 59, 127
3, 94080, Note_on_c, 1, 62, 127
3, 94088, Note_off_c, 1, 62, 127
3, 94272, Note_on_c, 1, 59, 127
3, 94280, Note_off_c, 1, 59, 127
3, 94464, Note_on_c, 1, 55, 127
3, 94472, Note_off_c, 1, 55, 127
3, 94656, Note_on_c, 1, 59, 127
3, 94664, Note_off_c, 1, 59, 127
3, 94848, Note_on_c, 1, 62, 127
3, 94856, Note_off_c, 1, 62, 127
3, 95040, Note_on_c, 1, 59, 127
3, 95048, Note_off_c, 1, 59, 127
3, 95232, Note_on_c, 1, 60, 127
3, 95240, Note_off_c, 1, 60, 127
3, 95424, Note_on_c, 1, 64, 127
3, 95432, Note_off_c, 1, 64, 127
3, 95616, Note_on_c, 1, 67, 127
3, 95624, Note_off_c, 1, 67, 127
3, 95808, Note_on_c, 1, 64, 127
3, 95816, Note_off_c, 1, 64, 127
3, 96000, Note_on_c, 1, 72, 127
3, 96008, Note_off_c, 1, 72, 127
3, 96192, Note_on_c, 1, 69, 127
3, 96204, Note_off_c, 1, 69, 127
3, 96384, Note_on_c, 1, 67, 127
3, 96396, Note_off_c, 1, 67, 127
3, 96576, Note_on_c, 1, 64, 127
3, 96588, Note_off_c, 1, 64, 127
3, 96768, Note_on_c, 1, 55, 127
3, 96776, Note_off_c, 1, 55, 127
3, 96960, Note_on_c, 1, 59, 127
3, 96968, Note_off_c, 1, 59, 127
3, 97152, Note_on_c, 1, 62, 127
3, 97160, Note_off_c, 1, 62, 127
3, 97344, Note_on_c, 1, 59, 127
3, 97352, Note_off_c, 1, 59, 127
3, 97536, Note_on_c, 1, 55, 127
3, 97544, Note_off_c, 1, 55, 127
3, 97728, Note_on_c, 1, 59, 127
3, 97736, Note_off_c, 1, 59, 127
3, 97920, Note_on_c, 1, 62, 127
3, 97928, Note_off_c, 1, 62, 127
3, 98112, Note_on_c, 1, 59, 127
3, 98120, Note_off_c, 1, 59, 127
3, 98304, Note_on_c, 1, 60, 127
3, 98312, Note_off_c, 1, 60, 127
3, 98496, Note_on_c, 1, 60, 127
3, 98508, Note_off_c, 1, 60, 127
3, 98688, Note_on_c, 1, 60, 127
3, 98700, Note_off_c, 1, 60, 127
3, 98880, Note_on_c, 1, 60, 127
3, 98892, Note_off_c, 1, 60, 127
3, 99072, Note_on_c, 1, 60, 127
3, 99084, Note_off_c, 1, 60, 127
3, 99264, Note_on_c, 1, 60, 127
3, 99276, Note_off_c, 1, 60, 127
3, 99456, Note_on_c, 1, 60, 127
3, 99468, Note_off_c, 1, 60, 127
3, 99648, Note_on_c, 1, 60, 127
3, 99660, Note_off_c, 1, 60, 127
3, 99840, Note_on_c, 1, 55, 127
3, 99848, Note_off_c, 1, 55, 127
3, 100032, Note_on_c, 1, 59, 127
3, 100040, Note_off_c, 1, 59, 127
3, 100224, Note_on_c, 1, 62, 127
3, 100232, Note_off_c, 1, 62, 127
3, 100416, Note_on_c, 1, 59, 127
3, 100424, Note_off_c, 1, 59, 127
3, 100608, Note_on_c, 1, 55, 127
3, 100616, Note_off_c, 1, 55, 127
3, 100800, Note_on_c, 1, 59, 127
3, 100808, Note_off_c, 1, 59, 127
3, 100992, Note_on_c, 1, 62, 127
3, 101000, Note_off_c, 1, 62, 127
3, 101184, Note_on_c, 1, 59, 127
3, 101192, Note_off_c, 1, 59, 127
3, 101376, Note_on_c, 1, 60, 127
3, 101384, Note_off_c, 1, 60, 127
3, 101568, Note_on_c, 1, 64, 127
3, 101576, Note_off_c, 1, 64, 127
3, 101760, Note_on_c, 1, 67, 127
3, 101768, Note_off_c, 1, 67, 127
3, 101952, Note_on_c, 1, 64, 127
3, 101960, Note_off_c, 1, 64, 127
3, 102144, Note_on_c, 1, 72, 127
3, 102152, Note_off_c, 1, 72, 127
3, 102336, Note_on_c, 1, 72, 127
3, 102348, Note_off_c, 1, 72, 127
3, 102528, Note_on_c, 1, 69, 127
3, 102540, Note_off_c, 1, 69, 127
3, 102720, Note_on_c, 1, 67, 127
3, 102732, Note_off_c, 1, 67, 127
3, 102912, Note_on_c, 1, 55, 127
3, 102920, Note_off_c, 1, 55, 127
3, 103104, Note_on_c, 1, 59, 127
3, 103112, Note_off_c, 1, 59, 127
3, 103296, Note_on_c, 1, 62, 127
3, 103304, Note_off_c, 1, 62, 127
3, 103488, Note_on_c, 1, 59, 127
3, 103496, Note_off_c, 1, 59, 127
3, 103680, Note_on_c, 1, 55, 127
3, 103688, Note_off_c, 1, 55, 127
3, 103872, Note_on_c, 1, 59, 127
3, 103880, Note_off_c, 1, 59, 127
3, 104064, Note_on_c, 1, 62, 127
3, 104072, Note_off_c, 1, 62, 127
3, 104256, Note_on_c, 1, 59, 127
3, 104264, Note_off_c, 1, 59, 127
3, 104448, Note_on_c, 1, 60, 127
3, 104456, Note_off_c, 1, 60, 127
3, 104640, Note_on_c, 1, 60, 127
3, 104652, Note_off_c, 1, 60, 127
3, 104832, Note_on_c, 1, 60, 127
3, 104844, Note_off_c, 1, 60, 127
3, 105024, Note_on_c, 1, 60, 127
3, 105036, Note_off_c, 1, 60, 127
3, 105312, Note_on_c, 1, 67, 127
3, 105324, Note_off_c, 1, 67, 127
3, 105408, Note_on_c, 1, 67, 127
3, 105420, Note_off_c, 1, 67, 127
3, 105504, Note_on_c, 1, 67, 127
3, 105516, Note_off_c, 1, 67, 127
3, 105600, Note_on_c, 1, 67, 127
3, 105612, Note_off_c, 1, 67, 127
3, 105648, Note_on_c, 1, 67, 127
3, 105652, Note_off_c, 1, 67, 127
3, 105696, Note_on_c, 1, 67, 127
3, 105708, Note_off_c, 1, 67, 127
3, 105744, Note_on_c, 1, 67, 127
3, 105748, Note_off_c, 1, 67, 127
3, 105792, Note_on_c, 1, 67, 127
3, 105804, Note_off_c, 1, 67, 127
3, 105840, Note_on_c, 1, 67, 127
3, 105844, Note_off_c, 1, 67, 127
3, 105888, Note_on_c, 1, 67, 127
3, 105900, Note_off_c, 1, 67, 127
3, 105936, Note_on_c, 1, 67, 127
3, 105940, Note_off_c, 1, 67, 127
3, 105984, Note_on_c, 1, 55, 127
3, 105992, Note_off_c, 1, 55, 127
3, 106176, Note_on_c, 1, 55, 127
3, 106188, Note_off_c, 1, 55, 127
3, 106368, Note_on_c, 1, 55, 127
3, 106380, Note_off_c, 1, 55, 127
3, 106560, Note_on_c, 1, 55, 127
3, 106572, Note_off_c, 1, 55, 127
3, 106656, Note_on_c, 1, 55, 127
3, 106668, Note_off_c, 1, 55, 127
3, 106752, Note_on_c, 1, 67, 127
3, 106764, Note_off_c, 1, 67, 127
3, 106848, Note_on_c, 1, 67, 127
3, 106860, Note_off_c, 1, 67, 127
3, 106944, Note_on_c, 1, 67, 127
3, 106956, Note_off_c, 1, 67, 127
3, 107040, Note_on_c, 1, 67, 127
3, 107052, Note_off_c, 1, 67, 127
3, 107136, Note_on_c, 1, 67, 127
3, 107148, Note_off_c, 1, 67, 127
3, 107232, Note_on_c, 1, 62, 127
3, 107244, Note_off_c, 1, 62, 127
3, 107520, Note_on_c, 1, 60, 127
3, 107532, Note_off_c, 1, 60, 127
3, 107712, Note_on_c, 1, 60, 127
3, 107724, Note_off_c, 1, 60, 127
3, 107904, Note_on_c, 1, 60, 127
3, 107916, Note_off_c, 1, 60, 127
3, 108096, Note_on_c, 1, 60, 127
3, 108108, Note_off_c, 1, 60, 127
3, 108192, Note_on_c, 1, 60, 127
3, 108204, Note_off_c, 1, 60, 127
3, 108288, Note_on_c, 1, 67, 127
3, 108300, Note_off_c, 1, 67, 127
3, 108384, Note_on_c, 1, 67, 127
3, 108396, Note_off_c, 1, 67, 127
3, 108480, Note_on_c, 1, 67, 127
3, 108492, Note_off_c, 1, 67, 127
3, 108576, Note_on_c, 1, 67, 127
3, 108588, Note_off_c, 1, 67, 127
3, 108672, Note_on_c, 1, 67, 127
3, 108684, Note_off_c, 1, 67, 127
3, 108768, Note_on_c, 1, 62, 127
3, 108780, Note_off_c, 1, 62, 127
3, 109056, Note_on_c, 1, 55, 127
3, 109064, Note_off_c, 1, 55, 127
3, 109248, Note_on_c, 1, 55, 127
3, 109260, Note_off_c, 1, 55, 127
3, 109440, Note_on_c, 1, 55, 127
3, 109452, Note_off_c, 1, 55, 127
3, 109632, Note_on_c, 1, 55, 127
3, 109644, Note_off_c, 1, 55, 127
3, 109728, Note_on_c, 1, 55, 127
3, 109740, Note_off_c, 1, 55, 127
3, 109824, Note_on_c, 1, 67, 127
3, 109836, Note_off_c, 1, 67, 127
3, 109920, Note_on_c, 1, 67, 127
3, 109932, Note_off_c, 1, 67, 127
3, 110016, Note_on_c, 1, 67, 127
3, 110028, Note_off_c, 1, 67, 127
3, 110112, Note_on_c, 1, 67, 127
3, 110124, Note_off_c, 1, 67, 127
3, 110208, Note_on_c, 1, 67, 127
3, 110220, Note_off_c, 1, 67, 127
3, 110304, Note_on_c, 1, 62, 127
3, 110316, Note_off_c, 1, 62, 127
3, 110592, Note_on_c, 1, 60, 127
3, 110604, Note_off_c, 1, 60, 127
3, 110784, Note_on_c, 1, 60, 127
3, 110796, Note_off_c, 1, 60, 127
3, 110796, End_track
4, 0, Start_track
4, 0, Title_t, "paul\\john"
4, 0, Control_c, 2, 0, 0
4, 0, Program_c, 2, 70
4, 0, Key_signature, 0, "major"
4, 12288, Note_on_c, 2, 59, 100
4, 12468, Note_off_c, 2, 59, 100
4, 12480, Note_on_c, 2, 60, 100
4, 12660, Note_off_c, 2, 60, 100
4, 12672, Note_on_c, 2, 62, 100
4, 12852, Note_off_c, 2, 62, 100
4, 12864, Note_on_c, 2, 67, 100
4, 13228, Note_off_c, 2, 67, 100
4, 13248, Note_on_c, 2, 69, 100
4, 13428, Note_off_c, 2, 69, 100
4, 13440, Note_on_c, 2, 67, 100
4, 13804, Note_off_c, 2, 67, 100
4, 13824, Note_on_c, 2, 60, 100
4, 14004, Note_off_c, 2, 60, 100
4, 14016, Note_on_c, 2, 62, 100
4, 14196, Note_off_c, 2, 62, 100
4, 14208, Note_on_c, 2, 64, 100
4, 14388, Note_off_c, 2, 64, 100
4, 14400, Note_on_c, 2, 67, 100
4, 14764, Note_off_c, 2, 67, 100
4, 14784, Note_on_c, 2, 69, 100
4, 14964, Note_off_c, 2, 69, 100
4, 14976, Note_on_c, 2, 67, 100
4, 15340, Note_off_c, 2, 67, 100
4, 15360, Note_on_c, 2, 67, 100
4, 15540, Note_off_c, 2, 67, 100
4, 15552, Note_on_c, 2, 67, 100
4, 15916, Note_off_c, 2, 67, 100
4, 16896, Note_on_c, 2, 59, 100
4, 17076, Note_off_c, 2, 59, 100
4, 17088, Note_on_c, 2, 60, 100
4, 17268, Note_off_c, 2, 60, 100
4, 17280, Note_on_c, 2, 62, 100
4, 17460, Note_off_c, 2, 62, 100
4, 17472, Note_on_c, 2, 67, 100
4, 17836, Note_off_c, 2, 67, 100
4, 17856, Note_on_c, 2, 69, 100
4, 18036, Note_off_c, 2, 69, 100
4, 18048, Note_on_c, 2, 67, 100
4, 18136, Note_off_c, 2, 67, 100
4, 18144, Note_on_c, 2, 69, 100
4, 18232, Note_off_c, 2, 69, 100
4, 18240, Note_on_c, 2, 67, 100
4, 18604, Note_off_c, 2, 67, 100
4, 19968, Note_on_c, 2, 64, 100
4, 20148, Note_off_c, 2, 64, 100
4, 20160, Note_on_c, 2, 65, 100
4, 20340, Note_off_c, 2, 65, 100
4, 20352, Note_on_c, 2, 64, 100
4, 20532, Note_off_c, 2, 64, 100
4, 20544, Note_on_c, 2, 62, 100
4, 20908, Note_off_c, 2, 62, 100
4, 20928, Note_on_c, 2, 64, 100
4, 21292, Note_off_c, 2, 64, 100
4, 21312, Note_on_c, 2, 55, 100
4, 21676, Note_off_c, 2, 55, 100
4, 23040, Note_on_c, 2, 59, 100
4, 23220, Note_off_c, 2, 59, 100
4, 23232, Note_on_c, 2, 60, 100
4, 23412, Note_off_c, 2, 60, 100
4, 23424, Note_on_c, 2, 62, 100
4, 23604, Note_off_c, 2, 62, 100
4, 23616, Note_on_c, 2, 67, 100
4, 23980, Note_off_c, 2, 67, 100
4, 24000, Note_on_c, 2, 69, 100
4, 24180, Note_off_c, 2, 69, 100
4, 24192, Note_on_c, 2, 67, 100
4, 24280, Note_off_c, 2, 67, 100
4, 24288, Note_on_c, 2, 69, 100
4, 24376, Note_off_c, 2, 69, 100
4, 24384, Note_on_c, 2, 67, 100
4, 24748, Note_off_c, 2, 67, 100
4, 26112, Note_on_c, 2, 64, 100
4, 26292, Note_off_c, 2, 64, 100
4, 26304, Note_on_c, 2, 65, 100
4, 26484, Note_off_c, 2, 65, 100
4, 26496, Note_on_c, 2, 64, 100
4, 26676, Note_off_c, 2, 64, 100
4, 26688, Note_on_c, 2, 62, 100
4, 27052, Note_off_c, 2, 62, 100
4, 27072, Note_on_c, 2, 64, 100
4, 27436, Note_off_c, 2, 64, 100
4, 27456, Note_on_c, 2, 55, 100
4, 27820, Note_off_c, 2, 55, 100
4, 29184, Note_on_c, 2, 59, 100
4, 29364, Note_off_c, 2, 59, 100
4, 29376, Note_on_c, 2, 60, 100
4, 29556, Note_off_c, 2, 60, 100
4, 29568, Note_on_c, 2, 62, 100
4, 29748, Note_off_c, 2, 62, 100
4, 29760, Note_on_c, 2, 67, 100
4, 30124, Note_off_c, 2, 67, 100
4, 30144, Note_on_c, 2, 69, 100
4, 30324, Note_off_c, 2, 69, 100
4, 30336, Note_on_c, 2, 67, 100
4, 30700, Note_off_c, 2, 67, 100
4, 30720, Note_on_c, 2, 60, 100
4, 30896, Note_off_c, 2, 60, 100
4, 30912, Note_on_c, 2, 62, 100
4, 31088, Note_off_c, 2, 62, 100
4, 31104, Note_on_c, 2, 64, 100
4, 31280, Note_off_c, 2, 64, 100
4, 31296, Note_on_c, 2, 67, 100
4, 31656, Note_off_c, 2, 67, 100
4, 31680, Note_on_c, 2, 69, 100
4, 31856, Note_off_c, 2, 69, 100
4, 31872, Note_on_c, 2, 67, 100
4, 32232, Note_off_c, 2, 67, 100
4, 32256, Note_on_c, 2, 67, 100
4, 32256, Note_on_c, 2, 71, 100
4, 32432, Note_off_c, 2, 67, 100
4, 32432, Note_off_c, 2, 71, 100
4, 32448, Note_on_c, 2, 67, 100
4, 32448, Note_on_c, 2, 71, 100
4, 32808, Note_off_c, 2, 67, 100
4, 32808, Note_off_c, 2, 71, 100
4, 33792, Note_on_c, 2, 59, 100
4, 33968, Note_off_c, 2, 59, 100
4, 33984, Note_on_c, 2, 60, 100
4, 34160, Note_off_c, 2, 60, 100
4, 34176, Note_on_c, 2, 62, 100
4, 34352, Note_off_c, 2, 62, 100
4, 34368, Note_on_c, 2, 67, 100
4, 34728, Note_off_c, 2, 67, 100
4, 34752, Note_on_c, 2, 69, 100
4, 34928, Note_off_c, 2, 69, 100
4, 34944, Note_on_c, 2, 67, 100
4, 35120, Note_off_c, 2, 67, 100
4, 35136, Note_on_c, 2, 67, 100
4, 35496, Note_off_c, 2, 67, 100
4, 36864, Note_on_c, 2, 64, 100
4, 37040, Note_off_c, 2, 64, 100
4, 37056, Note_on_c, 2, 65, 100
4, 37232, Note_off_c, 2, 65, 100
4, 37248, Note_on_c, 2, 64, 100
4, 37424, Note_off_c, 2, 64, 100
4, 37440, Note_on_c, 2, 62, 100
4, 37800, Note_off_c, 2, 62, 100
4, 37824, Note_on_c, 2, 64, 100
4, 38184, Note_off_c, 2, 64, 100
4, 38208, Note_on_c, 2, 55, 100
4, 38568, Note_off_c, 2, 55, 100
4, 39936, Note_on_c, 2, 59, 100
4, 40112, Note_off_c, 2, 59, 100
4, 40128, Note_on_c, 2, 60, 100
4, 40304, Note_off_c, 2, 60, 100
4, 40320, Note_on_c, 2, 62, 100
4, 40496, Note_off_c, 2, 62, 100
4, 40512, Note_on_c, 2, 67, 100
4, 40872, Note_off_c, 2, 67, 100
4, 40896, Note_on_c, 2, 69, 100
4, 41072, Note_off_c, 2, 69, 100
4, 41088, Note_on_c, 2, 67, 100
4, 41176, Note_off_c, 2, 67, 100
4, 41184, Note_on_c, 2, 69, 100
4, 41272, Note_off_c, 2, 69, 100
4, 41280, Note_on_c, 2, 67, 100
4, 41640, Note_off_c, 2, 67, 100
4, 43008, Note_on_c, 2, 64, 100
4, 43184, Note_off_c, 2, 64, 100
4, 43200, Note_on_c, 2, 65, 100
4, 43376, Note_off_c, 2, 65, 100
4, 43392, Note_on_c, 2, 64, 100
4, 43568, Note_off_c, 2, 64, 100
4, 43584, Note_on_c, 2, 62, 100
4, 43944, Note_off_c, 2, 62, 100
4, 43968, Note_on_c, 2, 64, 100
4, 44328, Note_off_c, 2, 64, 100
4, 44352, Note_on_c, 2, 55, 100
4, 44712, Note_off_c, 2, 55, 100
4, 46080, Note_on_c, 2, 67, 100
4, 46260, Note_off_c, 2, 67, 100
4, 46272, Note_on_c, 2, 67, 100
4, 46452, Note_off_c, 2, 67, 100
4, 46464, Note_on_c, 2, 67, 100
4, 46644, Note_off_c, 2, 67, 100
4, 46656, Note_on_c, 2, 67, 100
4, 46836, Note_off_c, 2, 67, 100
4, 46848, Note_on_c, 2, 67, 100
4, 47028, Note_off_c, 2, 67, 100
4, 47232, Note_on_c, 2, 67, 100
4, 47412, Note_off_c, 2, 67, 100
4, 47616, Note_on_c, 2, 67, 100
4, 47796, Note_off_c, 2, 67, 100
4, 47808, Note_on_c, 2, 67, 100
4, 47988, Note_off_c, 2, 67, 100
4, 48000, Note_on_c, 2, 67, 100
4, 48180, Note_off_c, 2, 67, 100
4, 48192, Note_on_c, 2, 67, 100
4, 48372, Note_off_c, 2, 67, 100
4, 48384, Note_on_c, 2, 67, 100
4, 48564, Note_off_c, 2, 67, 100
4, 48768, Note_on_c, 2, 67, 100
4, 48948, Note_off_c, 2, 67, 100
4, 49152, Note_on_c, 2, 67, 100
4, 49332, Note_off_c, 2, 67, 100
4, 49344, Note_on_c, 2, 67, 100
4, 49524, Note_off_c, 2, 67, 100
4, 49536, Note_on_c, 2, 67, 100
4, 49716, Note_off_c, 2, 67, 100
4, 49728, Note_on_c, 2, 67, 100
4, 49908, Note_off_c, 2, 67, 100
4, 49920, Note_on_c, 2, 67, 100
4, 50100, Note_off_c, 2, 67, 100
4, 50304, Note_on_c, 2, 65, 100
4, 50484, Note_off_c, 2, 65, 100
4, 50688, Note_on_c, 2, 65, 100
4, 50688, Note_on_c, 2, 69, 100
4, 50868, Note_off_c, 2, 65, 100
4, 50868, Note_off_c, 2, 69, 100
4, 50880, Note_on_c, 2, 64, 100
4, 50880, Note_on_c, 2, 67, 100
4, 51060, Note_off_c, 2, 64, 100
4, 51060, Note_off_c, 2, 67, 100
4, 52032, Note_on_c, 2, 64, 100
4, 52212, Note_off_c, 2, 64, 100
4, 52224, Note_on_c, 2, 67, 100
4, 52404, Note_off_c, 2, 67, 100
4, 52416, Note_on_c, 2, 67, 100
4, 52780, Note_off_c, 2, 67, 100
4, 52800, Note_on_c, 2, 64, 100
4, 52980, Note_off_c, 2, 64, 100
4, 52992, Note_on_c, 2, 65, 100
4, 53172, Note_off_c, 2, 65, 100
4, 53184, Note_on_c, 2, 64, 100
4, 53364, Note_off_c, 2, 64, 100
4, 53376, Note_on_c, 2, 62, 100
4, 53556, Note_off_c, 2, 62, 100
4, 53568, Note_on_c, 2, 64, 100
4, 53748, Note_off_c, 2, 64, 100
4, 53760, Note_on_c, 2, 55, 100
4, 53940, Note_off_c, 2, 55, 100
4, 53952, Note_on_c, 2, 55, 100
4, 54316, Note_off_c, 2, 55, 100
4, 54336, Note_on_c, 2, 55, 100
4, 54516, Note_off_c, 2, 55, 100
4, 54720, Note_on_c, 2, 55, 100
4, 54900, Note_off_c, 2, 55, 100
4, 54912, Note_on_c, 2, 60, 100
4, 55092, Note_off_c, 2, 60, 100
4, 55104, Note_on_c, 2, 69, 100
4, 55192, Note_off_c, 2, 69, 100
4, 55200, Note_on_c, 2, 67, 100
4, 55564, Note_off_c, 2, 67, 100
4, 56256, Note_on_c, 2, 55, 100
4, 56344, Note_off_c, 2, 55, 100
4, 56352, Note_on_c, 2, 55, 100
4, 56440, Note_off_c, 2, 55, 100
4, 56448, Note_on_c, 2, 57, 100
4, 56628, Note_off_c, 2, 57, 100
4, 56640, Note_on_c, 2, 55, 100
4, 56728, Note_off_c, 2, 55, 100
4, 56736, Note_on_c, 2, 69, 100
4, 57008, Note_off_c, 2, 69, 100
4, 57024, Note_on_c, 2, 67, 100
4, 57204, Note_off_c, 2, 67, 100
4, 58368, Note_on_c, 2, 67, 100
4, 58548, Note_off_c, 2, 67, 100
4, 58560, Note_on_c, 2, 67, 100
4, 58740, Note_off_c, 2, 67, 100
4, 58752, Note_on_c, 2, 67, 100
4, 58932, Note_off_c, 2, 67, 100
4, 58944, Note_on_c, 2, 67, 100
4, 59124, Note_off_c, 2, 67, 100
4, 59136, Note_on_c, 2, 67, 100
4, 59316, Note_off_c, 2, 67, 100
4, 59520, Note_on_c, 2, 67, 100
4, 59700, Note_off_c, 2, 67, 100
4, 59904, Note_on_c, 2, 67, 100
4, 60084, Note_off_c, 2, 67, 100
4, 60096, Note_on_c, 2, 67, 100
4, 60276, Note_off_c, 2, 67, 100
4, 60288, Note_on_c, 2, 67, 100
4, 60468, Note_off_c, 2, 67, 100
4, 60480, Note_on_c, 2, 67, 100
4, 60660, Note_off_c, 2, 67, 100
4, 60672, Note_on_c, 2, 67, 100
4, 60852, Note_off_c, 2, 67, 100
4, 61056, Note_on_c, 2, 67, 100
4, 61236, Note_off_c, 2, 67, 100
4, 61440, Note_on_c, 2, 67, 100
4, 61620, Note_off_c, 2, 67, 100
4, 61632, Note_on_c, 2, 67, 100
4, 61812, Note_off_c, 2, 67, 100
4, 61824, Note_on_c, 2, 67, 100
4, 62004, Note_off_c, 2, 67, 100
4, 62016, Note_on_c, 2, 67, 100
4, 62196, Note_off_c, 2, 67, 100
4, 62208, Note_on_c, 2, 67, 100
4, 62388, Note_off_c, 2, 67, 100
4, 62592, Note_on_c, 2, 65, 100
4, 62592, Note_on_c, 2, 69, 100
4, 62772, Note_off_c, 2, 65, 100
4, 62772, Note_off_c, 2, 69, 100
4, 62976, Note_on_c, 2, 65, 100
4, 62976, Note_on_c, 2, 69, 100
4, 63156, Note_off_c, 2, 65, 100
4, 63156, Note_off_c, 2, 69, 100
4, 63168, Note_on_c, 2, 64, 100
4, 63168, Note_on_c, 2, 67, 100
4, 63348, Note_off_c, 2, 64, 100
4, 63348, Note_off_c, 2, 67, 100
4, 64512, Note_on_c, 2, 59, 100
4, 64692, Note_off_c, 2, 59, 100
4, 64704, Note_on_c, 2, 60, 100
4, 64884, Note_off_c, 2, 60, 100
4, 64896, Note_on_c, 2, 62, 100
4, 65076, Note_off_c, 2, 62, 100
4, 65088, Note_on_c, 2, 67, 100
4, 65452, Note_off_c, 2, 67, 100
4, 65472, Note_on_c, 2, 69, 100
4, 65652, Note_off_c, 2, 69, 100
4, 65664, Note_on_c, 2, 67, 100
4, 66028, Note_off_c, 2, 67, 100
4, 66048, Note_on_c, 2, 60, 100
4, 66224, Note_off_c, 2, 60, 100
4, 66240, Note_on_c, 2, 62, 100
4, 66416, Note_off_c, 2, 62, 100
4, 66432, Note_on_c, 2, 64, 100
4, 66608, Note_off_c, 2, 64, 100
4, 66624, Note_on_c, 2, 67, 100
4, 66984, Note_off_c, 2, 67, 100
4, 67008, Note_on_c, 2, 69, 100
4, 67184, Note_off_c, 2, 69, 100
4, 67200, Note_on_c, 2, 67, 100
4, 67560, Note_off_c, 2, 67, 100
4, 67584, Note_on_c, 2, 67, 100
4, 67584, Note_on_c, 2, 71, 100
4, 67760, Note_off_c, 2, 67, 100
4, 67760, Note_off_c, 2, 71, 100
4, 67776, Note_on_c, 2, 67, 100
4, 67776, Note_on_c, 2, 71, 100
4, 68136, Note_off_c, 2, 67, 100
4, 68136, Note_off_c, 2, 71, 100
4, 69120, Note_on_c, 2, 59, 100
4, 69296, Note_off_c, 2, 59, 100
4, 69312, Note_on_c, 2, 60, 100
4, 69488, Note_off_c, 2, 60, 100
4, 69504, Note_on_c, 2, 62, 100
4, 69680, Note_off_c, 2, 62, 100
4, 69696, Note_on_c, 2, 67, 100
4, 70056, Note_off_c, 2, 67, 100
4, 70080, Note_on_c, 2, 69, 100
4, 70256, Note_off_c, 2, 69, 100
4, 70272, Note_on_c, 2, 67, 100
4, 70448, Note_off_c, 2, 67, 100
4, 70464, Note_on_c, 2, 67, 100
4, 70656, Note_on_c, 2, 72, 100
4, 71192, Note_off_c, 2, 67, 100
4, 71200, Note_off_c, 2, 72, 100
4, 72192, Note_on_c, 2, 64, 100
4, 72368, Note_off_c, 2, 64, 100
4, 72384, Note_on_c, 2, 65, 100
4, 72560, Note_off_c, 2, 65, 100
4, 72576, Note_on_c, 2, 64, 100
4, 72752, Note_off_c, 2, 64, 100
4, 72768, Note_on_c, 2, 62, 100
4, 73128, Note_off_c, 2, 62, 100
4, 73152, Note_on_c, 2, 64, 100
4, 73512, Note_off_c, 2, 64, 100
4, 73536, Note_on_c, 2, 55, 100
4, 73896, Note_off_c, 2, 55, 64
4, 75264, Note_on_c, 2, 59, 100
4, 75440, Note_off_c, 2, 59, 100
4, 75456, Note_on_c, 2, 60, 100
4, 75632, Note_off_c, 2, 60, 100
4, 75648, Note_on_c, 2, 62, 100
4, 75824, Note_off_c, 2, 62, 100
4, 75840, Note_on_c, 2, 67, 100
4, 76200, Note_off_c, 2, 67, 100
4, 76224, Note_on_c, 2, 69, 100
4, 76400, Note_off_c, 2, 69, 100
4, 76416, Note_on_c, 2, 67, 100
4, 76504, Note_off_c, 2, 67, 100
4, 76512, Note_on_c, 2, 69, 100
4, 76600, Note_off_c, 2, 69, 100
4, 76608, Note_on_c, 2, 67, 100
4, 76608, Note_on_c, 2, 72, 100
4, 76968, Note_off_c, 2, 67, 64
4, 76972, Note_off_c, 2, 72, 100
4, 78336, Note_on_c, 2, 64, 100
4, 78512, Note_off_c, 2, 64, 100
4, 78528, Note_on_c, 2, 65, 100
4, 78704, Note_off_c, 2, 65, 100
4, 78720, Note_on_c, 2, 64, 100
4, 78896, Note_off_c, 2, 64, 100
4, 78912, Note_on_c, 2, 62, 100
4, 79272, Note_off_c, 2, 62, 100
4, 79296, Note_on_c, 2, 64, 100
4, 79656, Note_off_c, 2, 64, 100
4, 79680, Note_on_c, 2, 55, 100
4, 80040, Note_off_c, 2, 55, 64
4, 81408, Note_on_c, 2, 67, 100
4, 81588, Note_off_c, 2, 67, 100
4, 81600, Note_on_c, 2, 67, 100
4, 81780, Note_off_c, 2, 67, 100
4, 81792, Note_on_c, 2, 67, 100
4, 81972, Note_off_c, 2, 67, 100
4, 81984, Note_on_c, 2, 67, 100
4, 82164, Note_off_c, 2, 67, 100
4, 82176, Note_on_c, 2, 67, 100
4, 82356, Note_off_c, 2, 67, 100
4, 82560, Note_on_c, 2, 67, 100
4, 82740, Note_off_c, 2, 67, 100
4, 82944, Note_on_c, 2, 67, 100
4, 83124, Note_off_c, 2, 67, 100
4, 83136, Note_on_c, 2, 67, 100
4, 83316, Note_off_c, 2, 67, 100
4, 83328, Note_on_c, 2, 67, 100
4, 83508, Note_off_c, 2, 67, 100
4, 83520, Note_on_c, 2, 67, 100
4, 83700, Note_off_c, 2, 67, 100
4, 83712, Note_on_c, 2, 67, 100
4, 83892, Note_off_c, 2, 67, 100
4, 84096, Note_on_c, 2, 67, 100
4, 84276, Note_off_c, 2, 67, 100
4, 84480, Note_on_c, 2, 67, 100
4, 84660, Note_off_c, 2, 67, 100
4, 84672, Note_on_c, 2, 67, 100
4, 84852, Note_off_c, 2, 67, 100
4, 84864, Note_on_c, 2, 67, 100
4, 85044, Note_off_c, 2, 67, 100
4, 85056, Note_on_c, 2, 67, 100
4, 85236, Note_off_c, 2, 67, 100
4, 85248, Note_on_c, 2, 67, 100
4, 85428, Note_off_c, 2, 67, 100
4, 85632, Note_on_c, 2, 65, 100
4, 85632, Note_on_c, 2, 69, 100
4, 85812, Note_off_c, 2, 65, 100
4, 85812, Note_off_c, 2, 69, 100
4, 86016, Note_on_c, 2, 65, 100
4, 86016, Note_on_c, 2, 69, 100
4, 86196, Note_off_c, 2, 65, 100
4, 86196, Note_off_c, 2, 69, 100
4, 86208, Note_on_c, 2, 64, 100
4, 86208, Note_on_c, 2, 67, 100
4, 86388, Note_off_c, 2, 64, 100
4, 86388, Note_off_c, 2, 67, 100
4, 87360, Note_on_c, 2, 64, 100
4, 87540, Note_off_c, 2, 64, 100
4, 87552, Note_on_c, 2, 67, 100
4, 87552, Note_on_c, 2, 64, 100
4, 87732, Note_off_c, 2, 67, 100
4, 87732, Note_off_c, 2, 64, 100
4, 87936, Note_on_c, 2, 65, 100
4, 88116, Note_off_c, 2, 65, 100
4, 88128, Note_on_c, 2, 64, 100
4, 88308, Note_off_c, 2, 64, 100
4, 88320, Note_on_c, 2, 65, 100
4, 88500, Note_off_c, 2, 65, 100
4, 88512, Note_on_c, 2, 64, 100
4, 88692, Note_off_c, 2, 64, 100
4, 88704, Note_on_c, 2, 62, 100
4, 88884, Note_off_c, 2, 62, 100
4, 88896, Note_on_c, 2, 64, 100
4, 89076, Note_off_c, 2, 64, 100
4, 89088, Note_on_c, 2, 55, 100
4, 89268, Note_off_c, 2, 55, 100
4, 89280, Note_on_c, 2, 55, 100
4, 89644, Note_off_c, 2, 55, 100
4, 89664, Note_on_c, 2, 55, 100
4, 89844, Note_off_c, 2, 55, 100
4, 90048, Note_on_c, 2, 55, 100
4, 90228, Note_off_c, 2, 55, 100
4, 90240, Note_on_c, 2, 60, 100
4, 90420, Note_off_c, 2, 60, 100
4, 90432, Note_on_c, 2, 69, 100
4, 90520, Note_off_c, 2, 69, 100
4, 90528, Note_on_c, 2, 67, 100
4, 90892, Note_off_c, 2, 67, 64
4, 91584, Note_on_c, 2, 55, 100
4, 91672, Note_off_c, 2, 55, 100
4, 91680, Note_on_c, 2, 55, 100
4, 91768, Note_off_c, 2, 55, 100
4, 91776, Note_on_c, 2, 57, 100
4, 91956, Note_off_c, 2, 57, 100
4, 91968, Note_on_c, 2, 55, 100
4, 92056, Note_off_c, 2, 55, 100
4, 92064, Note_on_c, 2, 69, 100
4, 92336, Note_off_c, 2, 69, 64
4, 92352, Note_on_c, 2, 67, 100
4, 92532, Note_off_c, 2, 67, 100
4, 93120, Note_on_c, 2, 69, 100
4, 93484, Note_off_c, 2, 69, 100
4, 93504, Note_on_c, 2, 72, 100
4, 93684, Note_off_c, 2, 72, 100
4, 93696, Note_on_c, 2, 67, 100
4, 93876, Note_off_c, 2, 67, 100
4, 93888, Note_on_c, 2, 67, 100
4, 94068, Note_off_c, 2, 67, 100
4, 94080, Note_on_c, 2, 67, 100
4, 94260, Note_off_c, 2, 67, 100
4, 94272, Note_on_c, 2, 67, 100
4, 94452, Note_off_c, 2, 67, 100
4, 94464, Note_on_c, 2, 67, 100
4, 94644, Note_off_c, 2, 67, 100
4, 94848, Note_on_c, 2, 67, 100
4, 95028, Note_off_c, 2, 67, 100
4, 95232, Note_on_c, 2, 67, 100
4, 95412, Note_off_c, 2, 67, 100
4, 95424, Note_on_c, 2, 67, 100
4, 95604, Note_off_c, 2, 67, 100
4, 95616, Note_on_c, 2, 67, 100
4, 95796, Note_off_c, 2, 67, 100
4, 95808, Note_on_c, 2, 67, 100
4, 95988, Note_off_c, 2, 67, 100
4, 96000, Note_on_c, 2, 67, 100
4, 96180, Note_off_c, 2, 67, 100
4, 96384, Note_on_c, 2, 67, 100
4, 96564, Note_off_c, 2, 67, 100
4, 96768, Note_on_c, 2, 67, 100
4, 96948, Note_off_c, 2, 67, 100
4, 96960, Note_on_c, 2, 67, 100
4, 97140, Note_off_c, 2, 67, 100
4, 97152, Note_on_c, 2, 67, 100
4, 97332, Note_off_c, 2, 67, 100
4, 97344, Note_on_c, 2, 67, 100
4, 97524, Note_off_c, 2, 67, 100
4, 97536, Note_on_c, 2, 67, 100
4, 97716, Note_off_c, 2, 67, 100
4, 97920, Note_on_c, 2, 65, 100
4, 97920, Note_on_c, 2, 69, 100
4, 98100, Note_off_c, 2, 65, 100
4, 98100, Note_off_c, 2, 69, 100
4, 98304, Note_on_c, 2, 65, 100
4, 98304, Note_on_c, 2, 69, 100
4, 98484, Note_off_c, 2, 65, 100
4, 98484, Note_off_c, 2, 69, 100
4, 98496, Note_on_c, 2, 64, 100
4, 98496, Note_on_c, 2, 67, 100
4, 98676, Note_off_c, 2, 64, 100
4, 98676, Note_off_c, 2, 67, 100
4, 98880, Note_on_c, 2, 72, 100
4, 99060, Note_off_c, 2, 72, 100
4, 99072, Note_on_c, 2, 67, 100
4, 99344, Note_off_c, 2, 67, 100
4, 99360, Note_on_c, 2, 64, 100
4, 99448, Note_off_c, 2, 64, 100
4, 99456, Note_on_c, 2, 67, 100
4, 99636, Note_off_c, 2, 67, 100
4, 99840, Note_on_c, 2, 67, 100
4, 100020, Note_off_c, 2, 67, 100
4, 100032, Note_on_c, 2, 67, 100
4, 100212, Note_off_c, 2, 67, 100
4, 100224, Note_on_c, 2, 67, 100
4, 100404, Note_off_c, 2, 67, 100
4, 100416, Note_on_c, 2, 67, 100
4, 100596, Note_off_c, 2, 67, 100
4, 100608, Note_on_c, 2, 67, 100
4, 100788, Note_off_c, 2, 67, 100
4, 100992, Note_on_c, 2, 67, 100
4, 101172, Note_off_c, 2, 67, 100
4, 101376, Note_on_c, 2, 67, 100
4, 101556, Note_off_c, 2, 67, 100
4, 101568, Note_on_c, 2, 67, 100
4, 101748, Note_off_c, 2, 67, 100
4, 101760, Note_on_c, 2, 67, 100
4, 101940, Note_off_c, 2, 67, 100
4, 101952, Note_on_c, 2, 67, 100
4, 102132, Note_off_c, 2, 67, 100
4, 102144, Note_on_c, 2, 67, 100
4, 102324, Note_off_c, 2, 67, 100
4, 102336, Note_on_c, 2, 72, 100
4, 102528, Note_on_c, 2, 67, 100
4, 102608, Note_off_c, 2, 72, 100
4, 102624, Note_on_c, 2, 69, 100
4, 102708, Note_off_c, 2, 67, 100
4, 102896, Note_off_c, 2, 69, 100
4, 102912, Note_on_c, 2, 67, 100
4, 102912, Note_on_c, 2, 67, 100
4, 103092, Note_off_c, 2, 67, 100
4, 103092, Note_off_c, 2, 67, 100
4, 103104, Note_on_c, 2, 67, 100
4, 103284, Note_off_c, 2, 67, 100
4, 103296, Note_on_c, 2, 67, 100
4, 103476, Note_off_c, 2, 67, 100
4, 103488, Note_on_c, 2, 67, 100
4, 103668, Note_off_c, 2, 67, 100
4, 103680, Note_on_c, 2, 67, 100
4, 103680, Note_on_c, 2, 64, 100
4, 103860, Note_off_c, 2, 67, 100
4, 103860, Note_off_c, 2, 64, 100
4, 104064, Note_on_c, 2, 65, 100
4, 104064, Note_on_c, 2, 62, 100
4, 104244, Note_off_c, 2, 65, 100
4, 104244, Note_off_c, 2, 62, 100
4, 104448, Note_on_c, 2, 65, 100
4, 104448, Note_on_c, 2, 69, 100
4, 104628, Note_off_c, 2, 65, 100
4, 104628, Note_off_c, 2, 69, 100
4, 104640, Note_on_c, 2, 64, 100
4, 104640, Note_on_c, 2, 67, 100
4, 104820, Note_off_c, 2, 64, 100
4, 104820, Note_off_c, 2, 67, 100
4, 105984, Note_on_c, 2, 67, 100
4, 106164, Note_off_c, 2, 67, 100
4, 106176, Note_on_c, 2, 67, 100
4, 106356, Note_off_c, 2, 67, 100
4, 106368, Note_on_c, 2, 67, 100
4, 106548, Note_off_c, 2, 67, 100
4, 106560, Note_on_c, 2, 67, 100
4, 106740, Note_off_c, 2, 67, 100
4, 106752, Note_on_c, 2, 67, 100
4, 106932, Note_off_c, 2, 67, 100
4, 107136, Note_on_c, 2, 67, 100
4, 107316, Note_off_c, 2, 67, 100
4, 107520, Note_on_c, 2, 67, 100
4, 107700, Note_off_c, 2, 67, 100
4, 107712, Note_on_c, 2, 67, 100
4, 107892, Note_off_c, 2, 67, 100
4, 107904, Note_on_c, 2, 67, 100
4, 108084, Note_off_c, 2, 67, 100
4, 108096, Note_on_c, 2, 67, 100
4, 108276, Note_off_c, 2, 67, 100
4, 108288, Note_on_c, 2, 67, 100
4, 108468, Note_off_c, 2, 67, 100
4, 108672, Note_on_c, 2, 67, 100
4, 108852, Note_off_c, 2, 67, 100
4, 109056, Note_on_c, 2, 67, 100
4, 109236, Note_off_c, 2, 67, 100
4, 109248, Note_on_c, 2, 67, 100
4, 109428, Note_off_c, 2, 67, 100
4, 109440, Note_on_c, 2, 67, 100
4, 109620, Note_off_c, 2, 67, 100
4, 109632, Note_on_c, 2, 67, 100
4, 109812, Note_off_c, 2, 67, 100
4, 109824, Note_on_c, 2, 67, 100
4, 110004, Note_off_c, 2, 67, 100
4, 110208, Note_on_c, 2, 65, 100
4, 110208, Note_on_c, 2, 69, 100
4, 110388, Note_off_c, 2, 65, 100
4, 110388, Note_off_c, 2, 69, 100
4, 110592, Note_on_c, 2, 65, 100
4, 110592, Note_on_c, 2, 69, 100
4, 110772, Note_off_c, 2, 65, 100
4, 110772, Note_off_c, 2, 69, 100
4, 110784, Note_on_c, 2, 64, 100
4, 110784, Note_on_c, 2, 67, 100
4, 110964, Note_off_c, 2, 64, 100
4, 110964, Note_off_c, 2, 67, 100
4, 110964, End_track
5, 0, Start_track
5, 0, Title_t, "Guitar"
5, 0, Control_c, 3, 0, 0
5, 0, Program_c, 3, 30
5, 0, Key_signature, 0, "major"
5, 9984, Note_on_c, 3, 55, 127
5, 9992, Note_off_c, 3, 55, 127
5, 10176, Note_on_c, 3, 55, 127
5, 10184, Note_off_c, 3, 55, 127
5, 10272, Note_on_c, 3, 55, 127
5, 10280, Note_off_c, 3, 55, 127
5, 10368, Note_on_c, 3, 55, 127
5, 10376, Note_off_c, 3, 55, 127
5, 10464, Note_on_c, 3, 55, 100
5, 10552, Note_off_c, 3, 55, 100
5, 10560, Note_on_c, 3, 55, 127
5, 10568, Note_off_c, 3, 55, 127
5, 10752, Note_on_c, 3, 55, 127
5, 10760, Note_off_c, 3, 55, 127
5, 10944, Note_on_c, 3, 55, 127
5, 10952, Note_off_c, 3, 55, 127
5, 11040, Note_on_c, 3, 55, 127
5, 11048, Note_off_c, 3, 55, 127
5, 11136, Note_on_c, 3, 55, 127
5, 11144, Note_off_c, 3, 55, 127
5, 11328, Note_on_c, 3, 55, 127
5, 11336, Note_off_c, 3, 55, 127
5, 11424, Note_on_c, 3, 55, 127
5, 11432, Note_off_c, 3, 55, 127
5, 11520, Note_on_c, 3, 55, 127
5, 11528, Note_off_c, 3, 55, 127
5, 11712, Note_on_c, 3, 55, 127
5, 11720, Note_off_c, 3, 55, 127
5, 11808, Note_on_c, 3, 55, 127
5, 11816, Note_off_c, 3, 55, 127
5, 11904, Note_on_c, 3, 55, 127
5, 11912, Note_off_c, 3, 55, 127
5, 12000, Note_on_c, 3, 55, 100
5, 12088, Note_off_c, 3, 55, 100
5, 15648, Note_on_c, 3, 67, 100
5, 15736, Note_off_c, 3, 67, 100
5, 15744, Note_on_c, 3, 67, 100
5, 15924, Note_off_c, 3, 67, 100
5, 46080, Note_on_c, 3, 62, 100
5, 46140, Note_off_c, 3, 62, 100
5, 46272, Note_on_c, 3, 62, 100
5, 46332, Note_off_c, 3, 62, 100
5, 46368, Note_on_c, 3, 62, 100
5, 46368, Note_on_c, 3, 59, 100
5, 46368, Note_on_c, 3, 55, 100
5, 46396, Note_off_c, 3, 62, 100
5, 46396, Note_off_c, 3, 59, 100
5, 46396, Note_off_c, 3, 55, 100
5, 46464, Note_on_c, 3, 64, 100
5, 46464, Note_on_c, 3, 60, 100
5, 46464, Note_on_c, 3, 55, 100
5, 46588, Note_off_c, 3, 64, 100
5, 46588, Note_off_c, 3, 60, 100
5, 46588, Note_off_c, 3, 55, 100
5, 46656, Note_on_c, 3, 62, 100
5, 46656, Note_on_c, 3, 59, 100
5, 46656, Note_on_c, 3, 55, 100
5, 46716, Note_off_c, 3, 62, 100
5, 46716, Note_off_c, 3, 59, 100
5, 46716, Note_off_c, 3, 55, 100
5, 46848, Note_on_c, 3, 62, 100
5, 46908, Note_off_c, 3, 62, 100
5, 47040, Note_on_c, 3, 62, 100
5, 47100, Note_off_c, 3, 62, 100
5, 47136, Note_on_c, 3, 62, 100
5, 47136, Note_on_c, 3, 59, 100
5, 47136, Note_on_c, 3, 55, 100
5, 47164, Note_off_c, 3, 62, 100
5, 47164, Note_off_c, 3, 59, 100
5, 47164, Note_off_c, 3, 55, 100
5, 47232, Note_on_c, 3, 64, 100
5, 47232, Note_on_c, 3, 60, 100
5, 47232, Note_on_c, 3, 55, 100
5, 47356, Note_off_c, 3, 64, 100
5, 47356, Note_off_c, 3, 60, 100
5, 47356, Note_off_c, 3, 55, 100
5, 47424, Note_on_c, 3, 62, 100
5, 47424, Note_on_c, 3, 59, 100
5, 47424, Note_on_c, 3, 55, 100
5, 47484, Note_off_c, 3, 62, 100
5, 47484, Note_off_c, 3, 59, 100
5, 47484, Note_off_c, 3, 55, 100
5, 47616, Note_on_c, 3, 64, 100
5, 47676, Note_off_c, 3, 64, 100
5, 47808, Note_on_c, 3, 64, 100
5, 47868, Note_off_c, 3, 64, 100
5, 47904, Note_on_c, 3, 55, 100
5, 47904, Note_on_c, 3, 60, 100
5, 47904, Note_on_c, 3, 64, 100
5, 47904, Note_on_c, 3, 67, 100
5, 47932, Note_off_c, 3, 67, 100
5, 47964, Note_off_c, 3, 55, 100
5, 47964, Note_off_c, 3, 60, 100
5, 47964, Note_off_c, 3, 64, 100
5, 48000, Note_on_c, 3, 57, 100
5, 48000, Note_on_c, 3, 60, 100
5, 48000, Note_on_c, 3, 65, 100
5, 48000, Note_on_c, 3, 69, 100
5, 48124, Note_off_c, 3, 57, 100
5, 48124, Note_off_c, 3, 60, 100
5, 48124, Note_off_c, 3, 65, 100
5, 48124, Note_off_c, 3, 69, 100
5, 48192, Note_on_c, 3, 64, 100
5, 48192, Note_on_c, 3, 60, 100
5, 48192, Note_on_c, 3, 55, 100
5, 48192, Note_on_c, 3, 67, 100
5, 48252, Note_off_c, 3, 64, 100
5, 48252, Note_off_c, 3, 60, 100
5, 48252, Note_off_c, 3, 55, 100
5, 48316, Note_off_c, 3, 67, 100
5, 48384, Note_on_c, 3, 64, 100
5, 48444, Note_off_c, 3, 64, 100
5, 48576, Note_on_c, 3, 64, 100
5, 48636, Note_off_c, 3, 64, 100
5, 48672, Note_on_c, 3, 55, 100
5, 48672, Note_on_c, 3, 60, 100
5, 48672, Note_on_c, 3, 64, 100
5, 48672, Note_on_c, 3, 67, 100
5, 48700, Note_off_c, 3, 67, 100
5, 48732, Note_off_c, 3, 55, 100
5, 48732, Note_off_c, 3, 60, 100
5, 48732, Note_off_c, 3, 64, 100
5, 48768, Note_on_c, 3, 57, 100
5, 48768, Note_on_c, 3, 60, 100
5, 48768, Note_on_c, 3, 65, 100
5, 48768, Note_on_c, 3, 69, 100
5, 48892, Note_off_c, 3, 57, 100
5, 48892, Note_off_c, 3, 60, 100
5, 48892, Note_off_c, 3, 65, 100
5, 48892, Note_off_c, 3, 69, 100
5, 48960, Note_on_c, 3, 64, 100
5, 48960, Note_on_c, 3, 60, 100
5, 48960, Note_on_c, 3, 55, 100
5, 48960, Note_on_c, 3, 67, 100
5, 49020, Note_off_c, 3, 64, 100
5, 49020, Note_off_c, 3, 60, 100
5, 49020, Note_off_c, 3, 55, 100
5, 49084, Note_off_c, 3, 67, 100
5, 49152, Note_on_c, 3, 62, 100
5, 49212, Note_off_c, 3, 62, 100
5, 49344, Note_on_c, 3, 62, 100
5, 49404, Note_off_c, 3, 62, 100
5, 49440, Note_on_c, 3, 62, 100
5, 49440, Note_on_c, 3, 59, 100
5, 49440, Note_on_c, 3, 55, 100
5, 49468, Note_off_c, 3, 62, 100
5, 49468, Note_off_c, 3, 59, 100
5, 49468, Note_off_c, 3, 55, 100
5, 49536, Note_on_c, 3, 64, 100
5, 49536, Note_on_c, 3, 60, 100
5, 49536, Note_on_c, 3, 55, 100
5, 49660, Note_off_c, 3, 64, 100
5, 49660, Note_off_c, 3, 60, 100
5, 49660, Note_off_c, 3, 55, 100
5, 49728, Note_on_c, 3, 62, 100
5, 49728, Note_on_c, 3, 59, 100
5, 49728, Note_on_c, 3, 55, 100
5, 49788, Note_off_c, 3, 62, 100
5, 49788, Note_off_c, 3, 59, 100
5, 49788, Note_off_c, 3, 55, 100
5, 49920, Note_on_c, 3, 62, 100
5, 49980, Note_off_c, 3, 62, 100
5, 50112, Note_on_c, 3, 62, 100
5, 50172, Note_off_c, 3, 62, 100
5, 50208, Note_on_c, 3, 62, 100
5, 50208, Note_on_c, 3, 59, 100
5, 50208, Note_on_c, 3, 55, 100
5, 50236, Note_off_c, 3, 62, 100
5, 50236, Note_off_c, 3, 59, 100
5, 50236, Note_off_c, 3, 55, 100
5, 50304, Note_on_c, 3, 64, 100
5, 50304, Note_on_c, 3, 60, 100
5, 50304, Note_on_c, 3, 55, 100
5, 50428, Note_off_c, 3, 64, 100
5, 50428, Note_off_c, 3, 60, 100
5, 50428, Note_off_c, 3, 55, 100
5, 50496, Note_on_c, 3, 62, 100
5, 50496, Note_on_c, 3, 59, 100
5, 50496, Note_on_c, 3, 55, 100
5, 50556, Note_off_c, 3, 62, 100
5, 50556, Note_off_c, 3, 59, 100
5, 50556, Note_off_c, 3, 55, 100
5, 50688, Note_on_c, 3, 55, 100
5, 50688, Note_on_c, 3, 60, 100
5, 50688, Note_on_c, 3, 67, 100
5, 50688, Note_on_c, 3, 64, 100
5, 50716, Note_off_c, 3, 67, 100
5, 50716, Note_off_c, 3, 64, 100
5, 50748, Note_off_c, 3, 55, 100
5, 50748, Note_off_c, 3, 60, 100
5, 50880, Note_on_c, 3, 64, 100
5, 50940, Note_off_c, 3, 64, 100
5, 50976, Note_on_c, 3, 55, 100
5, 50976, Note_on_c, 3, 60, 100
5, 50976, Note_on_c, 3, 64, 100
5, 50976, Note_on_c, 3, 67, 100
5, 51004, Note_off_c, 3, 67, 100
5, 51036, Note_off_c, 3, 55, 100
5, 51036, Note_off_c, 3, 60, 100
5, 51036, Note_off_c, 3, 64, 100
5, 51072, Note_on_c, 3, 57, 100
5, 51072, Note_on_c, 3, 60, 100
5, 51072, Note_on_c, 3, 65, 100
5, 51072, Note_on_c, 3, 69, 100
5, 51196, Note_off_c, 3, 57, 100
5, 51196, Note_off_c, 3, 60, 100
5, 51196, Note_off_c, 3, 65, 100
5, 51196, Note_off_c, 3, 69, 100
5, 51360, Note_on_c, 3, 55, 100
5, 51360, Note_on_c, 3, 60, 100
5, 51360, Note_on_c, 3, 64, 100
5, 51360, Note_on_c, 3, 67, 100
5, 51388, Note_off_c, 3, 67, 100
5, 51420, Note_off_c, 3, 55, 100
5, 51420, Note_off_c, 3, 60, 100
5, 51420, Note_off_c, 3, 64, 100
5, 51456, Note_on_c, 3, 70, 100
5, 51456, Note_on_c, 3, 58, 100
5, 51456, Note_on_c, 3, 62, 100
5, 51456, Note_on_c, 3, 67, 100
5, 51580, Note_off_c, 3, 70, 100
5, 51580, Note_off_c, 3, 58, 100
5, 51580, Note_off_c, 3, 62, 100
5, 51580, Note_off_c, 3, 67, 100
5, 51648, Note_on_c, 3, 64, 100
5, 51708, Note_off_c, 3, 64, 100
5, 51744, Note_on_c, 3, 55, 100
5, 51744, Note_on_c, 3, 60, 100
5, 51744, Note_on_c, 3, 64, 100
5, 51744, Note_on_c, 3, 67, 100
5, 51772, Note_off_c, 3, 67, 100
5, 51804, Note_off_c, 3, 55, 100
5, 51804, Note_off_c, 3, 60, 100
5, 51804, Note_off_c, 3, 64, 100
5, 51840, Note_on_c, 3, 57, 100
5, 51840, Note_on_c, 3, 60, 100
5, 51840, Note_on_c, 3, 65, 100
5, 51840, Note_on_c, 3, 69, 100
5, 51964, Note_off_c, 3, 57, 100
5, 51964, Note_off_c, 3, 60, 100
5, 51964, Note_off_c, 3, 65, 100
5, 51964, Note_off_c, 3, 69, 100
5, 52032, Note_on_c, 3, 55, 100
5, 52032, Note_on_c, 3, 60, 100
5, 52032, Note_on_c, 3, 64, 100
5, 52032, Note_on_c, 3, 67, 100
5, 52092, Note_off_c, 3, 55, 100
5, 52092, Note_off_c, 3, 60, 100
5, 52092, Note_off_c, 3, 64, 100
5, 52092, Note_off_c, 3, 67, 100
5, 52512, Note_on_c, 3, 62, 100
5, 52572, Note_off_c, 3, 62, 100
5, 52992, Note_on_c, 3, 55, 100
5, 53052, Note_off_c, 3, 55, 100
5, 53184, Note_on_c, 3, 55, 100
5, 53244, Note_off_c, 3, 55, 100
5, 53376, Note_on_c, 3, 55, 100
5, 53436, Note_off_c, 3, 55, 100
5, 53568, Note_on_c, 3, 55, 100
5, 53628, Note_off_c, 3, 55, 100
5, 53760, Note_on_c, 3, 55, 100
5, 53820, Note_off_c, 3, 55, 100
5, 54048, Note_on_c, 3, 55, 100
5, 54108, Note_off_c, 3, 55, 100
5, 54144, Note_on_c, 3, 67, 100
5, 54240, Note_on_c, 3, 69, 100
5, 54268, Note_off_c, 3, 67, 100
5, 54364, Note_off_c, 3, 69, 100
5, 54528, Note_on_c, 3, 67, 100
5, 54588, Note_off_c, 3, 67, 100
5, 54816, Note_on_c, 3, 67, 100
5, 54876, Note_off_c, 3, 67, 100
5, 54912, Note_on_c, 3, 67, 100
5, 55008, Note_on_c, 3, 69, 100
5, 55036, Note_off_c, 3, 67, 100
5, 55132, Note_off_c, 3, 69, 100
5, 55296, Note_on_c, 3, 55, 100
5, 55296, Note_on_c, 3, 59, 100
5, 55324, Note_off_c, 3, 55, 100
5, 55324, Note_off_c, 3, 59, 100
5, 55584, Note_on_c, 3, 55, 100
5, 55584, Note_on_c, 3, 59, 100
5, 55612, Note_off_c, 3, 55, 100
5, 55612, Note_off_c, 3, 59, 100
5, 55680, Note_on_c, 3, 55, 100
5, 55680, Note_on_c, 3, 64, 100
5, 55680, Note_on_c, 3, 60, 100
5, 55708, Note_off_c, 3, 55, 100
5, 55804, Note_off_c, 3, 64, 100
5, 55804, Note_off_c, 3, 60, 100
5, 55872, Note_on_c, 3, 55, 100
5, 55900, Note_off_c, 3, 55, 100
5, 55968, Note_on_c, 3, 55, 100
5, 55996, Note_off_c, 3, 55, 100
5, 56064, Note_on_c, 3, 55, 100
5, 56092, Note_off_c, 3, 55, 100
5, 56256, Note_on_c, 3, 55, 100
5, 56284, Note_off_c, 3, 55, 100
5, 56352, Note_on_c, 3, 55, 100
5, 56380, Note_off_c, 3, 55, 100
5, 56448, Note_on_c, 3, 55, 100
5, 56448, Note_on_c, 3, 64, 100
5, 56448, Note_on_c, 3, 60, 100
5, 56476, Note_off_c, 3, 55, 100
5, 56572, Note_off_c, 3, 64, 100
5, 56572, Note_off_c, 3, 60, 100
5, 56640, Note_on_c, 3, 55, 100
5, 56668, Note_off_c, 3, 55, 100
5, 56832, Note_on_c, 3, 55, 100
5, 56892, Note_off_c, 3, 55, 100
5, 57216, Note_on_c, 3, 67, 100
5, 57312, Note_on_c, 3, 69, 100
5, 57340, Note_off_c, 3, 67, 100
5, 57408, Note_on_c, 3, 62, 100
5, 57436, Note_off_c, 3, 69, 100
5, 57436, Note_off_c, 3, 62, 100
5, 57504, Note_on_c, 3, 62, 100
5, 57532, Note_off_c, 3, 62, 100
5, 57600, Note_on_c, 3, 60, 100
5, 57600, Note_on_c, 3, 64, 100
5, 57600, Note_on_c, 3, 67, 100
5, 57660, Note_off_c, 3, 60, 100
5, 57660, Note_off_c, 3, 64, 100
5, 57660, Note_off_c, 3, 67, 100
5, 57792, Note_on_c, 3, 60, 100
5, 57792, Note_on_c, 3, 64, 100
5, 57792, Note_on_c, 3, 67, 100
5, 57852, Note_off_c, 3, 60, 100
5, 57852, Note_off_c, 3, 64, 100
5, 57852, Note_off_c, 3, 67, 100
5, 57984, Note_on_c, 3, 60, 100
5, 57984, Note_on_c, 3, 64, 100
5, 57984, Note_on_c, 3, 67, 100
5, 58044, Note_off_c, 3, 60, 100
5, 58044, Note_off_c, 3, 64, 100
5, 58044, Note_off_c, 3, 67, 100
5, 58176, Note_on_c, 3, 60, 100
5, 58176, Note_on_c, 3, 64, 100
5, 58176, Note_on_c, 3, 67, 100
5, 58236, Note_off_c, 3, 60, 100
5, 58236, Note_off_c, 3, 64, 100
5, 58236, Note_off_c, 3, 67, 100
5, 58368, Note_on_c, 3, 55, 100
5, 58396, Note_off_c, 3, 55, 100
5, 58560, Note_on_c, 3, 55, 100
5, 58588, Note_off_c, 3, 55, 100
5, 58656, Note_on_c, 3, 55, 100
5, 58684, Note_off_c, 3, 55, 100
5, 58752, Note_on_c, 3, 55, 100
5, 58752, Note_on_c, 3, 64, 100
5, 58752, Note_on_c, 3, 60, 100
5, 58780, Note_off_c, 3, 55, 100
5, 58812, Note_off_c, 3, 64, 100
5, 58812, Note_off_c, 3, 60, 100
5, 58944, Note_on_c, 3, 55, 100
5, 58972, Note_off_c, 3, 55, 100
5, 59040, Note_on_c, 3, 55, 100
5, 59068, Note_off_c, 3, 55, 100
5, 59136, Note_on_c, 3, 55, 100
5, 59164, Note_off_c, 3, 55, 100
5, 59328, Note_on_c, 3, 55, 100
5, 59356, Note_off_c, 3, 55, 100
5, 59424, Note_on_c, 3, 55, 100
5, 59452, Note_off_c, 3, 55, 100
5, 59520, Note_on_c, 3, 55, 100
5, 59520, Note_on_c, 3, 64, 100
5, 59520, Note_on_c, 3, 60, 100
5, 59548, Note_off_c, 3, 55, 100
5, 59644, Note_off_c, 3, 64, 100
5, 59644, Note_off_c, 3, 60, 100
5, 59712, Note_on_c, 3, 62, 100
5, 59712, Note_on_c, 3, 59, 100
5, 59712, Note_on_c, 3, 55, 100
5, 59836, Note_off_c, 3, 62, 100
5, 59836, Note_off_c, 3, 59, 100
5, 59836, Note_off_c, 3, 55, 100
5, 59904, Note_on_c, 3, 55, 100
5, 59932, Note_off_c, 3, 55, 100
5, 60096, Note_on_c, 3, 55, 100
5, 60124, Note_off_c, 3, 55, 100
5, 60192, Note_on_c, 3, 55, 100
5, 60220, Note_off_c, 3, 55, 100
5, 60288, Note_on_c, 3, 55, 100
5, 60288, Note_on_c, 3, 64, 100
5, 60288, Note_on_c, 3, 60, 100
5, 60316, Note_off_c, 3, 55, 100
5, 60348, Note_off_c, 3, 64, 100
5, 60348, Note_off_c, 3, 60, 100
5, 60480, Note_on_c, 3, 55, 100
5, 60508, Note_off_c, 3, 55, 100
5, 60576, Note_on_c, 3, 55, 100
5, 60604, Note_off_c, 3, 55, 100
5, 60672, Note_on_c, 3, 55, 100
5, 60700, Note_off_c, 3, 55, 100
5, 60864, Note_on_c, 3, 55, 100
5, 60892, Note_off_c, 3, 55, 100
5, 60960, Note_on_c, 3, 55, 100
5, 60988, Note_off_c, 3, 55, 100
5, 61056, Note_on_c, 3, 60, 100
5, 61056, Note_on_c, 3, 64, 100
5, 61056, Note_on_c, 3, 67, 100
5, 61056, Note_on_c, 3, 55, 100
5, 61056, Note_on_c, 3, 72, 100
5, 61084, Note_off_c, 3, 55, 100
5, 61116, Note_off_c, 3, 60, 100
5, 61116, Note_off_c, 3, 64, 100
5, 61116, Note_off_c, 3, 67, 100
5, 61116, Note_off_c, 3, 72, 100
5, 61152, Note_on_c, 3, 67, 100
5, 61152, Note_on_c, 3, 64, 100
5, 61152, Note_on_c, 3, 60, 100
5, 61152, Note_on_c, 3, 72, 100
5, 61212, Note_off_c, 3, 67, 100
5, 61212, Note_off_c, 3, 64, 100
5, 61212, Note_off_c, 3, 60, 100
5, 61212, Note_off_c, 3, 72, 100
5, 61248, Note_on_c, 3, 67, 100
5, 61248, Note_on_c, 3, 64, 100
5, 61248, Note_on_c, 3, 60, 100
5, 61248, Note_on_c, 3, 72, 100
5, 61372, Note_off_c, 3, 67, 100
5, 61372, Note_off_c, 3, 64, 100
5, 61372, Note_off_c, 3, 60, 100
5, 61372, Note_off_c, 3, 72, 100
5, 61440, Note_on_c, 3, 55, 100
5, 61468, Note_off_c, 3, 55, 100
5, 61632, Note_on_c, 3, 55, 100
5, 61660, Note_off_c, 3, 55, 100
5, 61728, Note_on_c, 3, 55, 100
5, 61756, Note_off_c, 3, 55, 100
5, 61824, Note_on_c, 3, 55, 100
5, 61824, Note_on_c, 3, 64, 100
5, 61824, Note_on_c, 3, 60, 100
5, 61852, Note_off_c, 3, 55, 100
5, 61884, Note_off_c, 3, 64, 100
5, 61884, Note_off_c, 3, 60, 100
5, 62016, Note_on_c, 3, 55, 100
5, 62044, Note_off_c, 3, 55, 100
5, 62112, Note_on_c, 3, 55, 100
5, 62140, Note_off_c, 3, 55, 100
5, 62208, Note_on_c, 3, 55, 100
5, 62236, Note_off_c, 3, 55, 100
5, 62400, Note_on_c, 3, 55, 100
5, 62428, Note_off_c, 3, 55, 100
5, 62496, Note_on_c, 3, 55, 100
5, 62524, Note_off_c, 3, 55, 100
5, 62592, Note_on_c, 3, 55, 100
5, 62592, Note_on_c, 3, 59, 100
5, 62592, Note_on_c, 3, 62, 100
5, 62652, Note_off_c, 3, 55, 100
5, 62652, Note_off_c, 3, 59, 100
5, 62652, Note_off_c, 3, 62, 100
5, 62688, Note_on_c, 3, 60, 100
5, 62748, Note_off_c, 3, 60, 100
5, 62976, Note_on_c, 3, 64, 100
5, 62976, Note_on_c, 3, 60, 100
5, 62976, Note_on_c, 3, 55, 100
5, 63004, Note_off_c, 3, 64, 100
5, 63004, Note_off_c, 3, 60, 100
5, 63004, Note_off_c, 3, 55, 100
5, 64512, Note_on_c, 3, 55, 127
5, 64520, Note_off_c, 3, 55, 127
5, 64704, Note_on_c, 3, 55, 127
5, 64712, Note_off_c, 3, 55, 127
5, 64800, Note_on_c, 3, 55, 127
5, 64808, Note_off_c, 3, 55, 127
5, 64896, Note_on_c, 3, 55, 127
5, 64904, Note_off_c, 3, 55, 127
5, 65088, Note_on_c, 3, 55, 127
5, 65096, Note_off_c, 3, 55, 127
5, 65184, Note_on_c, 3, 55, 127
5, 65192, Note_off_c, 3, 55, 127
5, 65280, Note_on_c, 3, 55, 127
5, 65288, Note_off_c, 3, 55, 127
5, 65472, Note_on_c, 3, 55, 127
5, 65480, Note_off_c, 3, 55, 127
5, 65568, Note_on_c, 3, 55, 127
5, 65576, Note_off_c, 3, 55, 127
5, 65664, Note_on_c, 3, 55, 127
5, 65672, Note_off_c, 3, 55, 127
5, 65856, Note_on_c, 3, 55, 127
5, 65864, Note_off_c, 3, 55, 127
5, 65952, Note_on_c, 3, 55, 127
5, 65960, Note_off_c, 3, 55, 127
5, 66048, Note_on_c, 3, 55, 127
5, 66056, Note_off_c, 3, 55, 127
5, 66240, Note_on_c, 3, 55, 127
5, 66248, Note_off_c, 3, 55, 127
5, 66336, Note_on_c, 3, 55, 127
5, 66344, Note_off_c, 3, 55, 127
5, 66432, Note_on_c, 3, 55, 127
5, 66440, Note_off_c, 3, 55, 127
5, 66624, Note_on_c, 3, 55, 127
5, 66632, Note_off_c, 3, 55, 127
5, 66720, Note_on_c, 3, 55, 127
5, 66728, Note_off_c, 3, 55, 127
5, 66816, Note_on_c, 3, 55, 127
5, 66824, Note_off_c, 3, 55, 127
5, 67008, Note_on_c, 3, 55, 127
5, 67016, Note_off_c, 3, 55, 127
5, 67104, Note_on_c, 3, 55, 127
5, 67112, Note_off_c, 3, 55, 127
5, 67200, Note_on_c, 3, 55, 127
5, 67208, Note_off_c, 3, 55, 127
5, 67296, Note_on_c, 3, 55, 100
5, 67308, Note_off_c, 3, 55, 100
5, 67392, Note_on_c, 3, 55, 127
5, 67400, Note_off_c, 3, 55, 127
5, 67488, Note_on_c, 3, 55, 127
5, 67496, Note_off_c, 3, 55, 127
5, 67584, Note_on_c, 3, 55, 127
5, 67592, Note_off_c, 3, 55, 127
5, 67776, Note_on_c, 3, 55, 127
5, 67784, Note_off_c, 3, 55, 127
5, 67872, Note_on_c, 3, 55, 127
5, 67880, Note_off_c, 3, 55, 127
5, 67968, Note_on_c, 3, 55, 127
5, 67976, Note_off_c, 3, 55, 127
5, 68160, Note_on_c, 3, 55, 127
5, 68168, Note_off_c, 3, 55, 127
5, 68256, Note_on_c, 3, 55, 127
5, 68264, Note_off_c, 3, 55, 127
5, 68352, Note_on_c, 3, 55, 127
5, 68360, Note_off_c, 3, 55, 127
5, 68544, Note_on_c, 3, 55, 127
5, 68552, Note_off_c, 3, 55, 127
5, 68640, Note_on_c, 3, 55, 127
5, 68648, Note_off_c, 3, 55, 127
5, 68736, Note_on_c, 3, 55, 127
5, 68744, Note_off_c, 3, 55, 127
5, 68832, Note_on_c, 3, 55, 100
5, 68844, Note_off_c, 3, 55, 100
5, 68928, Note_on_c, 3, 55, 127
5, 68936, Note_off_c, 3, 55, 127
5, 69024, Note_on_c, 3, 55, 127
5, 69032, Note_off_c, 3, 55, 127
5, 69120, Note_on_c, 3, 55, 127
5, 69128, Note_off_c, 3, 55, 127
5, 69312, Note_on_c, 3, 55, 127
5, 69320, Note_off_c, 3, 55, 127
5, 69408, Note_on_c, 3, 55, 127
5, 69416, Note_off_c, 3, 55, 127
5, 69504, Note_on_c, 3, 55, 127
5, 69512, Note_off_c, 3, 55, 127
5, 69696, Note_on_c, 3, 55, 127
5, 69704, Note_off_c, 3, 55, 127
5, 69792, Note_on_c, 3, 55, 127
5, 69800, Note_off_c, 3, 55, 127
5, 69888, Note_on_c, 3, 55, 127
5, 69896, Note_off_c, 3, 55, 127
5, 70080, Note_on_c, 3, 55, 127
5, 70088, Note_off_c, 3, 55, 127
5, 70176, Note_on_c, 3, 55, 127
5, 70184, Note_off_c, 3, 55, 127
5, 70272, Note_on_c, 3, 55, 127
5, 70280, Note_off_c, 3, 55, 127
5, 70464, Note_on_c, 3, 55, 127
5, 70472, Note_off_c, 3, 55, 127
5, 70560, Note_on_c, 3, 55, 127
5, 70568, Note_off_c, 3, 55, 127
5, 70656, Note_on_c, 3, 55, 127
5, 70664, Note_off_c, 3, 55, 127
5, 71616, Note_on_c, 3, 55, 100
5, 71796, Note_off_c, 3, 55, 100
5, 71808, Note_on_c, 3, 50, 100
5, 71896, Note_off_c, 3, 50, 100
5, 71904, Note_on_c, 3, 55, 100
5, 71992, Note_off_c, 3, 55, 100
5, 72000, Note_on_c, 3, 55, 100
5, 72180, Note_off_c, 3, 55, 100
5, 72192, Note_on_c, 3, 53, 100
5, 72204, Note_off_c, 3, 53, 100
5, 72384, Note_on_c, 3, 53, 100
5, 72396, Note_off_c, 3, 53, 100
5, 72480, Note_on_c, 3, 53, 100
5, 72492, Note_off_c, 3, 53, 100
5, 72576, Note_on_c, 3, 53, 100
5, 72576, Note_on_c, 3, 57, 100
5, 72576, Note_on_c, 3, 60, 100
5, 72756, Note_off_c, 3, 53, 100
5, 72756, Note_off_c, 3, 57, 100
5, 72756, Note_off_c, 3, 60, 100
5, 72768, Note_on_c, 3, 53, 100
5, 72780, Note_off_c, 3, 53, 100
5, 72864, Note_on_c, 3, 53, 100
5, 72876, Note_off_c, 3, 53, 100
5, 72960, Note_on_c, 3, 55, 100
5, 72972, Note_off_c, 3, 55, 100
5, 73152, Note_on_c, 3, 55, 100
5, 73164, Note_off_c, 3, 55, 100
5, 73248, Note_on_c, 3, 55, 100
5, 73260, Note_off_c, 3, 55, 100
5, 73344, Note_on_c, 3, 55, 100
5, 73344, Note_on_c, 3, 59, 100
5, 73344, Note_on_c, 3, 62, 100
5, 73524, Note_off_c, 3, 55, 100
5, 73524, Note_off_c, 3, 59, 100
5, 73524, Note_off_c, 3, 62, 100
5, 73536, Note_on_c, 3, 55, 100
5, 73548, Note_off_c, 3, 55, 100
5, 73632, Note_on_c, 3, 55, 100
5, 73644, Note_off_c, 3, 55, 100
5, 73728, Note_on_c, 3, 60, 100
5, 74092, Note_off_c, 3, 60, 100
5, 75264, Note_on_c, 3, 55, 127
5, 75272, Note_off_c, 3, 55, 127
5, 75456, Note_on_c, 3, 55, 127
5, 75464, Note_off_c, 3, 55, 127
5, 75552, Note_on_c, 3, 55, 127
5, 75560, Note_off_c, 3, 55, 127
5, 75648, Note_on_c, 3, 55, 127
5, 75656, Note_off_c, 3, 55, 127
5, 75840, Note_on_c, 3, 55, 127
5, 75848, Note_off_c, 3, 55, 127
5, 75936, Note_on_c, 3, 55, 127
5, 75944, Note_off_c, 3, 55, 127
5, 76032, Note_on_c, 3, 55, 127
5, 76040, Note_off_c, 3, 55, 127
5, 76224, Note_on_c, 3, 55, 127
5, 76232, Note_off_c, 3, 55, 127
5, 76320, Note_on_c, 3, 55, 127
5, 76328, Note_off_c, 3, 55, 127
5, 76416, Note_on_c, 3, 55, 127
5, 76424, Note_off_c, 3, 55, 127
5, 76608, Note_on_c, 3, 55, 127
5, 76616, Note_off_c, 3, 55, 127
5, 76704, Note_on_c, 3, 55, 127
5, 76712, Note_off_c, 3, 55, 127
5, 76800, Note_on_c, 3, 55, 127
5, 76808, Note_off_c, 3, 55, 127
5, 76992, Note_on_c, 3, 55, 127
5, 77000, Note_off_c, 3, 55, 127
5, 77088, Note_on_c, 3, 55, 127
5, 77096, Note_off_c, 3, 55, 127
5, 77184, Note_on_c, 3, 55, 127
5, 77192, Note_off_c, 3, 55, 127
5, 77376, Note_on_c, 3, 55, 127
5, 77384, Note_off_c, 3, 55, 127
5, 77472, Note_on_c, 3, 55, 127
5, 77480, Note_off_c, 3, 55, 127
5, 77568, Note_on_c, 3, 55, 127
5, 77576, Note_off_c, 3, 55, 127
5, 77664, Note_on_c, 3, 55, 100
5, 77676, Note_off_c, 3, 55, 100
5, 77856, Note_on_c, 3, 55, 127
5, 77864, Note_off_c, 3, 55, 127
5, 77952, Note_on_c, 3, 55, 127
5, 77960, Note_off_c, 3, 55, 127
5, 78048, Note_on_c, 3, 55, 100
5, 78060, Note_off_c, 3, 55, 100
5, 78144, Note_on_c, 3, 55, 127
5, 78152, Note_off_c, 3, 55, 127
5, 78240, Note_on_c, 3, 55, 127
5, 78248, Note_off_c, 3, 55, 127
5, 78336, Note_on_c, 3, 53, 100
5, 78348, Note_off_c, 3, 53, 100
5, 78528, Note_on_c, 3, 53, 100
5, 78540, Note_off_c, 3, 53, 100
5, 78624, Note_on_c, 3, 53, 100
5, 78636, Note_off_c, 3, 53, 100
5, 78720, Note_on_c, 3, 53, 100
5, 78720, Note_on_c, 3, 57, 100
5, 78720, Note_on_c, 3, 60, 100
5, 78900, Note_off_c, 3, 53, 100
5, 78900, Note_off_c, 3, 57, 100
5, 78900, Note_off_c, 3, 60, 100
5, 78912, Note_on_c, 3, 53, 100
5, 78924, Note_off_c, 3, 53, 100
5, 79008, Note_on_c, 3, 53, 100
5, 79020, Note_off_c, 3, 53, 100
5, 79104, Note_on_c, 3, 55, 100
5, 79116, Note_off_c, 3, 55, 100
5, 79296, Note_on_c, 3, 55, 100
5, 79308, Note_off_c, 3, 55, 100
5, 79392, Note_on_c, 3, 55, 100
5, 79404, Note_off_c, 3, 55, 100
5, 79488, Note_on_c, 3, 62, 100
5, 79668, Note_off_c, 3, 62, 100
5, 79680, Note_on_c, 3, 55, 100
5, 79692, Note_off_c, 3, 55, 100
5, 79776, Note_on_c, 3, 55, 100
5, 79788, Note_off_c, 3, 55, 100
5, 79872, Note_on_c, 3, 60, 100
5, 80236, Note_off_c, 3, 60, 100
5, 81408, Note_on_c, 3, 62, 100
5, 81468, Note_off_c, 3, 62, 100
5, 81600, Note_on_c, 3, 62, 100
5, 81660, Note_off_c, 3, 62, 100
5, 81696, Note_on_c, 3, 62, 100
5, 81696, Note_on_c, 3, 59, 100
5, 81696, Note_on_c, 3, 55, 100
5, 81724, Note_off_c, 3, 62, 100
5, 81724, Note_off_c, 3, 59, 100
5, 81724, Note_off_c, 3, 55, 100
5, 81792, Note_on_c, 3, 64, 100
5, 81792, Note_on_c, 3, 60, 100
5, 81792, Note_on_c, 3, 55, 100
5, 81916, Note_off_c, 3, 64, 100
5, 81916, Note_off_c, 3, 60, 100
5, 81916, Note_off_c, 3, 55, 100
5, 81984, Note_on_c, 3, 62, 100
5, 81984, Note_on_c, 3, 59, 100
5, 81984, Note_on_c, 3, 55, 100
5, 82044, Note_off_c, 3, 62, 100
5, 82044, Note_off_c, 3, 59, 100
5, 82044, Note_off_c, 3, 55, 100
5, 82176, Note_on_c, 3, 62, 100
5, 82236, Note_off_c, 3, 62, 100
5, 82368, Note_on_c, 3, 62, 100
5, 82428, Note_off_c, 3, 62, 100
5, 82464, Note_on_c, 3, 62, 100
5, 82464, Note_on_c, 3, 59, 100
5, 82464, Note_on_c, 3, 55, 100
5, 82492, Note_off_c, 3, 62, 100
5, 82492, Note_off_c, 3, 59, 100
5, 82492, Note_off_c, 3, 55, 100
5, 82560, Note_on_c, 3, 64, 100
5, 82560, Note_on_c, 3, 60, 100
5, 82560, Note_on_c, 3, 55, 100
5, 82684, Note_off_c, 3, 64, 100
5, 82684, Note_off_c, 3, 60, 100
5, 82684, Note_off_c, 3, 55, 100
5, 82752, Note_on_c, 3, 62, 100
5, 82752, Note_on_c, 3, 59, 100
5, 82752, Note_on_c, 3, 55, 100
5, 82812, Note_off_c, 3, 62, 100
5, 82812, Note_off_c, 3, 59, 100
5, 82812, Note_off_c, 3, 55, 100
5, 82944, Note_on_c, 3, 64, 100
5, 83004, Note_off_c, 3, 64, 100
5, 83136, Note_on_c, 3, 64, 100
5, 83196, Note_off_c, 3, 64, 100
5, 83232, Note_on_c, 3, 55, 100
5, 83232, Note_on_c, 3, 60, 100
5, 83232, Note_on_c, 3, 64, 100
5, 83232, Note_on_c, 3, 67, 100
5, 83260, Note_off_c, 3, 67, 100
5, 83292, Note_off_c, 3, 55, 100
5, 83292, Note_off_c, 3, 60, 100
5, 83292, Note_off_c, 3, 64, 100
5, 83328, Note_on_c, 3, 57, 100
5, 83328, Note_on_c, 3, 60, 100
5, 83328, Note_on_c, 3, 65, 100
5, 83328, Note_on_c, 3, 69, 100
5, 83452, Note_off_c, 3, 57, 100
5, 83452, Note_off_c, 3, 60, 100
5, 83452, Note_off_c, 3, 65, 100
5, 83452, Note_off_c, 3, 69, 100
5, 83520, Note_on_c, 3, 64, 100
5, 83520, Note_on_c, 3, 60, 100
5, 83520, Note_on_c, 3, 55, 100
5, 83520, Note_on_c, 3, 67, 100
5, 83580, Note_off_c, 3, 64, 100
5, 83580, Note_off_c, 3, 60, 100
5, 83580, Note_off_c, 3, 55, 100
5, 83644, Note_off_c, 3, 67, 100
5, 83712, Note_on_c, 3, 64, 100
5, 83772, Note_off_c, 3, 64, 100
5, 83904, Note_on_c, 3, 64, 100
5, 83964, Note_off_c, 3, 64, 100
5, 84000, Note_on_c, 3, 55, 100
5, 84000, Note_on_c, 3, 60, 100
5, 84000, Note_on_c, 3, 64, 100
5, 84000, Note_on_c, 3, 67, 100
5, 84028, Note_off_c, 3, 67, 100
5, 84060, Note_off_c, 3, 55, 100
5, 84060, Note_off_c, 3, 60, 100
5, 84060, Note_off_c, 3, 64, 100
5, 84096, Note_on_c, 3, 57, 100
5, 84096, Note_on_c, 3, 60, 100
5, 84096, Note_on_c, 3, 65, 100
5, 84096, Note_on_c, 3, 69, 100
5, 84220, Note_off_c, 3, 57, 100
5, 84220, Note_off_c, 3, 60, 100
5, 84220, Note_off_c, 3, 65, 100
5, 84220, Note_off_c, 3, 69, 100
5, 84288, Note_on_c, 3, 64, 100
5, 84288, Note_on_c, 3, 60, 100
5, 84288, Note_on_c, 3, 55, 100
5, 84288, Note_on_c, 3, 67, 100
5, 84348, Note_off_c, 3, 64, 100
5, 84348, Note_off_c, 3, 60, 100
5, 84348, Note_off_c, 3, 55, 100
5, 84412, Note_off_c, 3, 67, 100
5, 84480, Note_on_c, 3, 62, 100
5, 84540, Note_off_c, 3, 62, 100
5, 84672, Note_on_c, 3, 62, 100
5, 84732, Note_off_c, 3, 62, 100
5, 84768, Note_on_c, 3, 62, 100
5, 84768, Note_on_c, 3, 59, 100
5, 84768, Note_on_c, 3, 55, 100
5, 84796, Note_off_c, 3, 62, 100
5, 84796, Note_off_c, 3, 59, 100
5, 84796, Note_off_c, 3, 55, 100
5, 84864, Note_on_c, 3, 64, 100
5, 84864, Note_on_c, 3, 60, 100
5, 84864, Note_on_c, 3, 55, 100
5, 84988, Note_off_c, 3, 64, 100
5, 84988, Note_off_c, 3, 60, 100
5, 84988, Note_off_c, 3, 55, 100
5, 85056, Note_on_c, 3, 62, 100
5, 85056, Note_on_c, 3, 59, 100
5, 85056, Note_on_c, 3, 55, 100
5, 85116, Note_off_c, 3, 62, 100
5, 85116, Note_off_c, 3, 59, 100
5, 85116, Note_off_c, 3, 55, 100
5, 85248, Note_on_c, 3, 62, 100
5, 85308, Note_off_c, 3, 62, 100
5, 85440, Note_on_c, 3, 62, 100
5, 85500, Note_off_c, 3, 62, 100
5, 85536, Note_on_c, 3, 62, 100
5, 85536, Note_on_c, 3, 59, 100
5, 85536, Note_on_c, 3, 55, 100
5, 85564, Note_off_c, 3, 62, 100
5, 85564, Note_off_c, 3, 59, 100
5, 85564, Note_off_c, 3, 55, 100
5, 85632, Note_on_c, 3, 64, 100
5, 85632, Note_on_c, 3, 60, 100
5, 85632, Note_on_c, 3, 55, 100
5, 85756, Note_off_c, 3, 64, 100
5, 85756, Note_off_c, 3, 60, 100
5, 85756, Note_off_c, 3, 55, 100
5, 85824, Note_on_c, 3, 62, 100
5, 85824, Note_on_c, 3, 59, 100
5, 85824, Note_on_c, 3, 55, 100
5, 85884, Note_off_c, 3, 62, 100
5, 85884, Note_off_c, 3, 59, 100
5, 85884, Note_off_c, 3, 55, 100
5, 86016, Note_on_c, 3, 55, 100
5, 86016, Note_on_c, 3, 60, 100
5, 86016, Note_on_c, 3, 67, 100
5, 86016, Note_on_c, 3, 64, 100
5, 86044, Note_off_c, 3, 67, 100
5, 86044, Note_off_c, 3, 64, 100
5, 86076, Note_off_c, 3, 55, 100
5, 86076, Note_off_c, 3, 60, 100
5, 86208, Note_on_c, 3, 64, 100
5, 86268, Note_off_c, 3, 64, 100
5, 86304, Note_on_c, 3, 55, 100
5, 86304, Note_on_c, 3, 60, 100
5, 86304, Note_on_c, 3, 64, 100
5, 86304, Note_on_c, 3, 67, 100
5, 86332, Note_off_c, 3, 67, 100
5, 86364, Note_off_c, 3, 55, 100
5, 86364, Note_off_c, 3, 60, 100
5, 86364, Note_off_c, 3, 64, 100
5, 86400, Note_on_c, 3, 57, 100
5, 86400, Note_on_c, 3, 60, 100
5, 86400, Note_on_c, 3, 65, 100
5, 86400, Note_on_c, 3, 69, 100
5, 86524, Note_off_c, 3, 57, 100
5, 86524, Note_off_c, 3, 60, 100
5, 86524, Note_off_c, 3, 65, 100
5, 86524, Note_off_c, 3, 69, 100
5, 86688, Note_on_c, 3, 55, 100
5, 86688, Note_on_c, 3, 60, 100
5, 86688, Note_on_c, 3, 64, 100
5, 86688, Note_on_c, 3, 67, 100
5, 86716, Note_off_c, 3, 67, 100
5, 86748, Note_off_c, 3, 55, 100
5, 86748, Note_off_c, 3, 60, 100
5, 86748, Note_off_c, 3, 64, 100
5, 86784, Note_on_c, 3, 70, 100
5, 86784, Note_on_c, 3, 58, 100
5, 86784, Note_on_c, 3, 62, 100
5, 86784, Note_on_c, 3, 67, 100
5, 86908, Note_off_c, 3, 70, 100
5, 86908, Note_off_c, 3, 58, 100
5, 86908, Note_off_c, 3, 62, 100
5, 86908, Note_off_c, 3, 67, 100
5, 86976, Note_on_c, 3, 64, 100
5, 87036, Note_off_c, 3, 64, 100
5, 87072, Note_on_c, 3, 55, 100
5, 87072, Note_on_c, 3, 60, 100
5, 87072, Note_on_c, 3, 64, 100
5, 87072, Note_on_c, 3, 67, 100
5, 87100, Note_off_c, 3, 67, 100
5, 87132, Note_off_c, 3, 55, 100
5, 87132, Note_off_c, 3, 60, 100
5, 87132, Note_off_c, 3, 64, 100
5, 87168, Note_on_c, 3, 57, 100
5, 87168, Note_on_c, 3, 60, 100
5, 87168, Note_on_c, 3, 65, 100
5, 87168, Note_on_c, 3, 69, 100
5, 87292, Note_off_c, 3, 57, 100
5, 87292, Note_off_c, 3, 60, 100
5, 87292, Note_off_c, 3, 65, 100
5, 87292, Note_off_c, 3, 69, 100
5, 87360, Note_on_c, 3, 55, 100
5, 87360, Note_on_c, 3, 60, 100
5, 87360, Note_on_c, 3, 64, 100
5, 87360, Note_on_c, 3, 67, 100
5, 87420, Note_off_c, 3, 55, 100
5, 87420, Note_off_c, 3, 60, 100
5, 87420, Note_off_c, 3, 64, 100
5, 87420, Note_off_c, 3, 67, 100
5, 87552, Note_on_c, 3, 62, 100
5, 87640, Note_off_c, 3, 62, 100
5, 87936, Note_on_c, 3, 62, 100
5, 88024, Note_off_c, 3, 62, 100
5, 88320, Note_on_c, 3, 55, 100
5, 88380, Note_off_c, 3, 55, 100
5, 88512, Note_on_c, 3, 55, 100
5, 88572, Note_off_c, 3, 55, 100
5, 88704, Note_on_c, 3, 55, 100
5, 88764, Note_off_c, 3, 55, 100
5, 88896, Note_on_c, 3, 55, 100
5, 88956, Note_off_c, 3, 55, 100
5, 89088, Note_on_c, 3, 55, 100
5, 89148, Note_off_c, 3, 55, 100
5, 89376, Note_on_c, 3, 55, 100
5, 89436, Note_off_c, 3, 55, 100
5, 89472, Note_on_c, 3, 67, 100
5, 89568, Note_on_c, 3, 69, 100
5, 89596, Note_off_c, 3, 67, 100
5, 89692, Note_off_c, 3, 69, 100
5, 89856, Note_on_c, 3, 67, 100
5, 89916, Note_off_c, 3, 67, 100
5, 90144, Note_on_c, 3, 67, 100
5, 90204, Note_off_c, 3, 67, 100
5, 90240, Note_on_c, 3, 67, 100
5, 90336, Note_on_c, 3, 69, 100
5, 90364, Note_off_c, 3, 67, 100
5, 90460, Note_off_c, 3, 69, 100
5, 90624, Note_on_c, 3, 55, 100
5, 90624, Note_on_c, 3, 59, 100
5, 90652, Note_off_c, 3, 55, 100
5, 90652, Note_off_c, 3, 59, 100
5, 90912, Note_on_c, 3, 55, 100
5, 90912, Note_on_c, 3, 59, 100
5, 90940, Note_off_c, 3, 55, 100
5, 90940, Note_off_c, 3, 59, 100
5, 91008, Note_on_c, 3, 55, 100
5, 91008, Note_on_c, 3, 64, 100
5, 91008, Note_on_c, 3, 60, 100
5, 91036, Note_off_c, 3, 55, 100
5, 91132, Note_off_c, 3, 64, 100
5, 91132, Note_off_c, 3, 60, 100
5, 91200, Note_on_c, 3, 55, 100
5, 91228, Note_off_c, 3, 55, 100
5, 91296, Note_on_c, 3, 55, 100
5, 91324, Note_off_c, 3, 55, 100
5, 91392, Note_on_c, 3, 55, 100
5, 91420, Note_off_c, 3, 55, 100
5, 91584, Note_on_c, 3, 55, 100
5, 91612, Note_off_c, 3, 55, 100
5, 91680, Note_on_c, 3, 55, 100
5, 91708, Note_off_c, 3, 55, 100
5, 91776, Note_on_c, 3, 55, 100
5, 91776, Note_on_c, 3, 64, 100
5, 91776, Note_on_c, 3, 60, 100
5, 91804, Note_off_c, 3, 55, 100
5, 91900, Note_off_c, 3, 64, 100
5, 91900, Note_off_c, 3, 60, 100
5, 91968, Note_on_c, 3, 55, 100
5, 91996, Note_off_c, 3, 55, 100
5, 92160, Note_on_c, 3, 55, 100
5, 92220, Note_off_c, 3, 55, 100
5, 92544, Note_on_c, 3, 67, 100
5, 92640, Note_on_c, 3, 69, 100
5, 92668, Note_off_c, 3, 67, 100
5, 92736, Note_on_c, 3, 62, 100
5, 92764, Note_off_c, 3, 69, 100
5, 92764, Note_off_c, 3, 62, 100
5, 92832, Note_on_c, 3, 62, 100
5, 92860, Note_off_c, 3, 62, 100
5, 92928, Note_on_c, 3, 60, 100
5, 92928, Note_on_c, 3, 64, 100
5, 92928, Note_on_c, 3, 67, 100
5, 92988, Note_off_c, 3, 60, 100
5, 92988, Note_off_c, 3, 64, 100
5, 92988, Note_off_c, 3, 67, 100
5, 93120, Note_on_c, 3, 60, 100
5, 93120, Note_on_c, 3, 64, 100
5, 93120, Note_on_c, 3, 67, 100
5, 93180, Note_off_c, 3, 60, 100
5, 93180, Note_off_c, 3, 64, 100
5, 93180, Note_off_c, 3, 67, 100
5, 93312, Note_on_c, 3, 60, 100
5, 93312, Note_on_c, 3, 64, 100
5, 93312, Note_on_c, 3, 67, 100
5, 93372, Note_off_c, 3, 60, 100
5, 93372, Note_off_c, 3, 64, 100
5, 93372, Note_off_c, 3, 67, 100
5, 93504, Note_on_c, 3, 60, 100
5, 93504, Note_on_c, 3, 64, 100
5, 93504, Note_on_c, 3, 67, 100
5, 93564, Note_off_c, 3, 60, 100
5, 93564, Note_off_c, 3, 64, 100
5, 93564, Note_off_c, 3, 67, 100
5, 93696, Note_on_c, 3, 55, 100
5, 93724, Note_off_c, 3, 55, 100
5, 93888, Note_on_c, 3, 55, 100
5, 93916, Note_off_c, 3, 55, 100
5, 93984, Note_on_c, 3, 55, 100
5, 94012, Note_off_c, 3, 55, 100
5, 94080, Note_on_c, 3, 55, 100
5, 94080, Note_on_c, 3, 64, 100
5, 94080, Note_on_c, 3, 60, 100
5, 94108, Note_off_c, 3, 55, 100
5, 94140, Note_off_c, 3, 64, 100
5, 94140, Note_off_c, 3, 60, 100
5, 94272, Note_on_c, 3, 55, 100
5, 94300, Note_off_c, 3, 55, 100
5, 94368, Note_on_c, 3, 55, 100
5, 94396, Note_off_c, 3, 55, 100
5, 94464, Note_on_c, 3, 55, 100
5, 94492, Note_off_c, 3, 55, 100
5, 94656, Note_on_c, 3, 55, 100
5, 94684, Note_off_c, 3, 55, 100
5, 94752, Note_on_c, 3, 55, 100
5, 94780, Note_off_c, 3, 55, 100
5, 94848, Note_on_c, 3, 55, 100
5, 94848, Note_on_c, 3, 64, 100
5, 94848, Note_on_c, 3, 60, 100
5, 94876, Note_off_c, 3, 55, 100
5, 94972, Note_off_c, 3, 64, 100
5, 94972, Note_off_c, 3, 60, 100
5, 95040, Note_on_c, 3, 62, 100
5, 95040, Note_on_c, 3, 59, 100
5, 95040, Note_on_c, 3, 55, 100
5, 95164, Note_off_c, 3, 62, 100
5, 95164, Note_off_c, 3, 59, 100
5, 95164, Note_off_c, 3, 55, 100
5, 95232, Note_on_c, 3, 55, 100
5, 95260, Note_off_c, 3, 55, 100
5, 95424, Note_on_c, 3, 55, 100
5, 95452, Note_off_c, 3, 55, 100
5, 95520, Note_on_c, 3, 55, 100
5, 95548, Note_off_c, 3, 55, 100
5, 95616, Note_on_c, 3, 55, 100
5, 95616, Note_on_c, 3, 64, 100
5, 95616, Note_on_c, 3, 60, 100
5, 95644, Note_off_c, 3, 55, 100
5, 95676, Note_off_c, 3, 64, 100
5, 95676, Note_off_c, 3, 60, 100
5, 95808, Note_on_c, 3, 55, 100
5, 95836, Note_off_c, 3, 55, 100
5, 95904, Note_on_c, 3, 55, 100
5, 95932, Note_off_c, 3, 55, 100
5, 96000, Note_on_c, 3, 55, 100
5, 96028, Note_off_c, 3, 55, 100
5, 96192, Note_on_c, 3, 55, 100
5, 96220, Note_off_c, 3, 55, 100
5, 96288, Note_on_c, 3, 55, 100
5, 96316, Note_off_c, 3, 55, 100
5, 96384, Note_on_c, 3, 60, 100
5, 96384, Note_on_c, 3, 64, 100
5, 96384, Note_on_c, 3, 67, 100
5, 96384, Note_on_c, 3, 55, 100
5, 96384, Note_on_c, 3, 72, 100
5, 96412, Note_off_c, 3, 55, 100
5, 96444, Note_off_c, 3, 60, 100
5, 96444, Note_off_c, 3, 64, 100
5, 96444, Note_off_c, 3, 67, 100
5, 96444, Note_off_c, 3, 72, 100
5, 96480, Note_on_c, 3, 67, 100
5, 96480, Note_on_c, 3, 64, 100
5, 96480, Note_on_c, 3, 60, 100
5, 96480, Note_on_c, 3, 72, 100
5, 96540, Note_off_c, 3, 67, 100
5, 96540, Note_off_c, 3, 64, 100
5, 96540, Note_off_c, 3, 60, 100
5, 96540, Note_off_c, 3, 72, 100
5, 96576, Note_on_c, 3, 67, 100
5, 96576, Note_on_c, 3, 64, 100
5, 96576, Note_on_c, 3, 60, 100
5, 96576, Note_on_c, 3, 72, 100
5, 96700, Note_off_c, 3, 67, 100
5, 96700, Note_off_c, 3, 64, 100
5, 96700, Note_off_c, 3, 60, 100
5, 96700, Note_off_c, 3, 72, 100
5, 96768, Note_on_c, 3, 55, 100
5, 96796, Note_off_c, 3, 55, 100
5, 96960, Note_on_c, 3, 55, 100
5, 96988, Note_off_c, 3, 55, 100
5, 97056, Note_on_c, 3, 55, 100
5, 97084, Note_off_c, 3, 55, 100
5, 97152, Note_on_c, 3, 55, 100
5, 97152, Note_on_c, 3, 64, 100
5, 97152, Note_on_c, 3, 60, 100
5, 97180, Note_off_c, 3, 55, 100
5, 97212, Note_off_c, 3, 64, 100
5, 97212, Note_off_c, 3, 60, 100
5, 97344, Note_on_c, 3, 55, 100
5, 97372, Note_off_c, 3, 55, 100
5, 97440, Note_on_c, 3, 55, 100
5, 97468, Note_off_c, 3, 55, 100
5, 97536, Note_on_c, 3, 55, 100
5, 97564, Note_off_c, 3, 55, 100
5, 97728, Note_on_c, 3, 55, 100
5, 97756, Note_off_c, 3, 55, 100
5, 97824, Note_on_c, 3, 55, 100
5, 97852, Note_off_c, 3, 55, 100
5, 97920, Note_on_c, 3, 55, 100
5, 97920, Note_on_c, 3, 59, 100
5, 97920, Note_on_c, 3, 62, 100
5, 97980, Note_off_c, 3, 55, 100
5, 97980, Note_off_c, 3, 59, 100
5, 97980, Note_off_c, 3, 62, 100
5, 98016, Note_on_c, 3, 60, 100
5, 98076, Note_off_c, 3, 60, 100
5, 98304, Note_on_c, 3, 64, 100
5, 98304, Note_on_c, 3, 60, 100
5, 98304, Note_on_c, 3, 55, 100
5, 98332, Note_off_c, 3, 64, 100
5, 98332, Note_off_c, 3, 60, 100
5, 98332, Note_off_c, 3, 55, 100
5, 98496, Note_on_c, 3, 64, 100
5, 98496, Note_on_c, 3, 60, 100
5, 98496, Note_on_c, 3, 55, 100
5, 98524, Note_off_c, 3, 64, 100
5, 98524, Note_off_c, 3, 60, 100
5, 98524, Note_off_c, 3, 55, 100
5, 98688, Note_on_c, 3, 64, 100
5, 98688, Note_on_c, 3, 60, 100
5, 98688, Note_on_c, 3, 55, 100
5, 98716, Note_off_c, 3, 64, 100
5, 98716, Note_off_c, 3, 60, 100
5, 98716, Note_off_c, 3, 55, 100
5, 98880, Note_on_c, 3, 64, 100
5, 98880, Note_on_c, 3, 60, 100
5, 98880, Note_on_c, 3, 55, 100
5, 98908, Note_off_c, 3, 64, 100
5, 98908, Note_off_c, 3, 60, 100
5, 98908, Note_off_c, 3, 55, 100
5, 99264, Note_on_c, 3, 64, 100
5, 99264, Note_on_c, 3, 60, 100
5, 99264, Note_on_c, 3, 55, 100
5, 99292, Note_off_c, 3, 64, 100
5, 99292, Note_off_c, 3, 60, 100
5, 99292, Note_off_c, 3, 55, 100
5, 99456, Note_on_c, 3, 64, 100
5, 99456, Note_on_c, 3, 60, 100
5, 99456, Note_on_c, 3, 55, 100
5, 99484, Note_off_c, 3, 64, 100
5, 99484, Note_off_c, 3, 60, 100
5, 99484, Note_off_c, 3, 55, 100
5, 99648, Note_on_c, 3, 64, 100
5, 99648, Note_on_c, 3, 60, 100
5, 99648, Note_on_c, 3, 55, 100
5, 99676, Note_off_c, 3, 64, 100
5, 99676, Note_off_c, 3, 60, 100
5, 99676, Note_off_c, 3, 55, 100
5, 99840, Note_on_c, 3, 55, 100
5, 99868, Note_off_c, 3, 55, 100
5, 100032, Note_on_c, 3, 55, 100
5, 100060, Note_off_c, 3, 55, 100
5, 100128, Note_on_c, 3, 55, 100
5, 100156, Note_off_c, 3, 55, 100
5, 100224, Note_on_c, 3, 55, 100
5, 100224, Note_on_c, 3, 64, 100
5, 100224, Note_on_c, 3, 60, 100
5, 100252, Note_off_c, 3, 55, 100
5, 100284, Note_off_c, 3, 64, 100
5, 100284, Note_off_c, 3, 60, 100
5, 100416, Note_on_c, 3, 55, 100
5, 100444, Note_off_c, 3, 55, 100
5, 100512, Note_on_c, 3, 55, 100
5, 100540, Note_off_c, 3, 55, 100
5, 100608, Note_on_c, 3, 55, 100
5, 100636, Note_off_c, 3, 55, 100
5, 100800, Note_on_c, 3, 55, 100
5, 100828, Note_off_c, 3, 55, 100
5, 100896, Note_on_c, 3, 55, 100
5, 100924, Note_off_c, 3, 55, 100
5, 100992, Note_on_c, 3, 55, 100
5, 100992, Note_on_c, 3, 64, 100
5, 100992, Note_on_c, 3, 60, 100
5, 101020, Note_off_c, 3, 55, 100
5, 101116, Note_off_c, 3, 64, 100
5, 101116, Note_off_c, 3, 60, 100
5, 101184, Note_on_c, 3, 62, 100
5, 101184, Note_on_c, 3, 59, 100
5, 101184, Note_on_c, 3, 55, 100
5, 101308, Note_off_c, 3, 62, 100
5, 101308, Note_off_c, 3, 59, 100
5, 101308, Note_off_c, 3, 55, 100
5, 101376, Note_on_c, 3, 55, 100
5, 101404, Note_off_c, 3, 55, 100
5, 101568, Note_on_c, 3, 55, 100
5, 101596, Note_off_c, 3, 55, 100
5, 101664, Note_on_c, 3, 55, 100
5, 101692, Note_off_c, 3, 55, 100
5, 101760, Note_on_c, 3, 55, 100
5, 101760, Note_on_c, 3, 64, 100
5, 101760, Note_on_c, 3, 60, 100
5, 101788, Note_off_c, 3, 55, 100
5, 101820, Note_off_c, 3, 64, 100
5, 101820, Note_off_c, 3, 60, 100
5, 101952, Note_on_c, 3, 55, 100
5, 101980, Note_off_c, 3, 55, 100
5, 102048, Note_on_c, 3, 55, 100
5, 102076, Note_off_c, 3, 55, 100
5, 102144, Note_on_c, 3, 55, 100
5, 102172, Note_off_c, 3, 55, 100
5, 102336, Note_on_c, 3, 55, 100
5, 102364, Note_off_c, 3, 55, 100
5, 102432, Note_on_c, 3, 55, 100
5, 102460, Note_off_c, 3, 55, 100
5, 102528, Note_on_c, 3, 60, 100
5, 102528, Note_on_c, 3, 64, 100
5, 102528, Note_on_c, 3, 67, 100
5, 102528, Note_on_c, 3, 55, 100
5, 102528, Note_on_c, 3, 72, 100
5, 102556, Note_off_c, 3, 55, 100
5, 102588, Note_off_c, 3, 60, 100
5, 102588, Note_off_c, 3, 64, 100
5, 102588, Note_off_c, 3, 67, 100
5, 102588, Note_off_c, 3, 72, 100
5, 102624, Note_on_c, 3, 67, 100
5, 102624, Note_on_c, 3, 64, 100
5, 102624, Note_on_c, 3, 60, 100
5, 102624, Note_on_c, 3, 72, 100
5, 102684, Note_off_c, 3, 67, 100
5, 102684, Note_off_c, 3, 64, 100
5, 102684, Note_off_c, 3, 60, 100
5, 102684, Note_off_c, 3, 72, 100
5, 102720, Note_on_c, 3, 67, 100
5, 102720, Note_on_c, 3, 64, 100
5, 102720, Note_on_c, 3, 60, 100
5, 102720, Note_on_c, 3, 72, 100
5, 102844, Note_off_c, 3, 67, 100
5, 102844, Note_off_c, 3, 64, 100
5, 102844, Note_off_c, 3, 60, 100
5, 102844, Note_off_c, 3, 72, 100
5, 102912, Note_on_c, 3, 55, 100
5, 102940, Note_off_c, 3, 55, 100
5, 103104, Note_on_c, 3, 55, 100
5, 103132, Note_off_c, 3, 55, 100
5, 103200, Note_on_c, 3, 55, 100
5, 103228, Note_off_c, 3, 55, 100
5, 103296, Note_on_c, 3, 55, 100
5, 103296, Note_on_c, 3, 64, 100
5, 103296, Note_on_c, 3, 60, 100
5, 103324, Note_off_c, 3, 55, 100
5, 103356, Note_off_c, 3, 64, 100
5, 103356, Note_off_c, 3, 60, 100
5, 103488, Note_on_c, 3, 55, 100
5, 103516, Note_off_c, 3, 55, 100
5, 103584, Note_on_c, 3, 55, 100
5, 103612, Note_off_c, 3, 55, 100
5, 103680, Note_on_c, 3, 55, 100
5, 103708, Note_off_c, 3, 55, 100
5, 103872, Note_on_c, 3, 55, 100
5, 103900, Note_off_c, 3, 55, 100
5, 103968, Note_on_c, 3, 55, 100
5, 103996, Note_off_c, 3, 55, 100
5, 104064, Note_on_c, 3, 55, 100
5, 104064, Note_on_c, 3, 59, 100
5, 104064, Note_on_c, 3, 62, 100
5, 104124, Note_off_c, 3, 55, 100
5, 104124, Note_off_c, 3, 59, 100
5, 104124, Note_off_c, 3, 62, 100
5, 104160, Note_on_c, 3, 60, 100
5, 104220, Note_off_c, 3, 60, 100
5, 104448, Note_on_c, 3, 64, 100
5, 104448, Note_on_c, 3, 60, 100
5, 104448, Note_on_c, 3, 55, 100
5, 104476, Note_off_c, 3, 64, 100
5, 104476, Note_off_c, 3, 60, 100
5, 104476, Note_off_c, 3, 55, 100
5, 104640, Note_on_c, 3, 64, 100
5, 104640, Note_on_c, 3, 60, 100
5, 104640, Note_on_c, 3, 55, 100
5, 104668, Note_off_c, 3, 64, 100
5, 104668, Note_off_c, 3, 60, 100
5, 104668, Note_off_c, 3, 55, 100
5, 104832, Note_on_c, 3, 64, 100
5, 104832, Note_on_c, 3, 60, 100
5, 104832, Note_on_c, 3, 55, 100
5, 104860, Note_off_c, 3, 64, 100
5, 104860, Note_off_c, 3, 60, 100
5, 104860, Note_off_c, 3, 55, 100
5, 105024, Note_on_c, 3, 64, 100
5, 105024, Note_on_c, 3, 60, 100
5, 105024, Note_on_c, 3, 55, 100
5, 105052, Note_off_c, 3, 64, 100
5, 105052, Note_off_c, 3, 60, 100
5, 105052, Note_off_c, 3, 55, 100
5, 105408, Note_on_c, 3, 64, 100
5, 105408, Note_on_c, 3, 60, 100
5, 105408, Note_on_c, 3, 55, 100
5, 105436, Note_off_c, 3, 64, 100
5, 105436, Note_off_c, 3, 60, 100
5, 105436, Note_off_c, 3, 55, 100
5, 105600, Note_on_c, 3, 64, 100
5, 105600, Note_on_c, 3, 60, 100
5, 105600, Note_on_c, 3, 55, 100
5, 105628, Note_off_c, 3, 64, 100
5, 105628, Note_off_c, 3, 60, 100
5, 105628, Note_off_c, 3, 55, 100
5, 105792, Note_on_c, 3, 64, 100
5, 105792, Note_on_c, 3, 60, 100
5, 105792, Note_on_c, 3, 55, 100
5, 105820, Note_off_c, 3, 64, 100
5, 105820, Note_off_c, 3, 60, 100
5, 105820, Note_off_c, 3, 55, 100
5, 105984, Note_on_c, 3, 55, 100
5, 106012, Note_off_c, 3, 55, 100
5, 106176, Note_on_c, 3, 55, 100
5, 106204, Note_off_c, 3, 55, 100
5, 106272, Note_on_c, 3, 55, 100
5, 106300, Note_off_c, 3, 55, 100
5, 106368, Note_on_c, 3, 55, 100
5, 106368, Note_on_c, 3, 64, 100
5, 106368, Note_on_c, 3, 60, 100
5, 106396, Note_off_c, 3, 55, 100
5, 106428, Note_off_c, 3, 64, 100
5, 106428, Note_off_c, 3, 60, 100
5, 106560, Note_on_c, 3, 55, 100
5, 106588, Note_off_c, 3, 55, 100
5, 106656, Note_on_c, 3, 55, 100
5, 106684, Note_off_c, 3, 55, 100
5, 106752, Note_on_c, 3, 55, 100
5, 106780, Note_off_c, 3, 55, 100
5, 106944, Note_on_c, 3, 55, 100
5, 106972, Note_off_c, 3, 55, 100
5, 107040, Note_on_c, 3, 55, 100
5, 107068, Note_off_c, 3, 55, 100
5, 107136, Note_on_c, 3, 55, 100
5, 107136, Note_on_c, 3, 64, 100
5, 107136, Note_on_c, 3, 60, 100
5, 107164, Note_off_c, 3, 55, 100
5, 107260, Note_off_c, 3, 64, 100
5, 107260, Note_off_c, 3, 60, 100
5, 107328, Note_on_c, 3, 62, 100
5, 107328, Note_on_c, 3, 59, 100
5, 107328, Note_on_c, 3, 55, 100
5, 107452, Note_off_c, 3, 62, 100
5, 107452, Note_off_c, 3, 59, 100
5, 107452, Note_off_c, 3, 55, 100
5, 107520, Note_on_c, 3, 55, 100
5, 107548, Note_off_c, 3, 55, 100
5, 107712, Note_on_c, 3, 55, 100
5, 107740, Note_off_c, 3, 55, 100
5, 107808, Note_on_c, 3, 55, 100
5, 107836, Note_off_c, 3, 55, 100
5, 107904, Note_on_c, 3, 55, 100
5, 107904, Note_on_c, 3, 64, 100
5, 107904, Note_on_c, 3, 60, 100
5, 107932, Note_off_c, 3, 55, 100
5, 107964, Note_off_c, 3, 64, 100
5, 107964, Note_off_c, 3, 60, 100
5, 108096, Note_on_c, 3, 55, 100
5, 108124, Note_off_c, 3, 55, 100
5, 108192, Note_on_c, 3, 55, 100
5, 108220, Note_off_c, 3, 55, 100
5, 108288, Note_on_c, 3, 55, 100
5, 108316, Note_off_c, 3, 55, 100
5, 108480, Note_on_c, 3, 55, 100
5, 108508, Note_off_c, 3, 55, 100
5, 108576, Note_on_c, 3, 55, 100
5, 108604, Note_off_c, 3, 55, 100
5, 108672, Note_on_c, 3, 60, 100
5, 108672, Note_on_c, 3, 64, 100
5, 108672, Note_on_c, 3, 67, 100
5, 108672, Note_on_c, 3, 55, 100
5, 108672, Note_on_c, 3, 72, 100
5, 108700, Note_off_c, 3, 55, 100
5, 108732, Note_off_c, 3, 60, 100
5, 108732, Note_off_c, 3, 64, 100
5, 108732, Note_off_c, 3, 67, 100
5, 108732, Note_off_c, 3, 72, 100
5, 108768, Note_on_c, 3, 67, 100
5, 108768, Note_on_c, 3, 64, 100
5, 108768, Note_on_c, 3, 60, 100
5, 108768, Note_on_c, 3, 72, 100
5, 108828, Note_off_c, 3, 67, 100
5, 108828, Note_off_c, 3, 64, 100
5, 108828, Note_off_c, 3, 60, 100
5, 108828, Note_off_c, 3, 72, 100
5, 108864, Note_on_c, 3, 67, 100
5, 108864, Note_on_c, 3, 64, 100
5, 108864, Note_on_c, 3, 60, 100
5, 108864, Note_on_c, 3, 72, 100
5, 108988, Note_off_c, 3, 67, 100
5, 108988, Note_off_c, 3, 64, 100
5, 108988, Note_off_c, 3, 60, 100
5, 108988, Note_off_c, 3, 72, 100
5, 109056, Note_on_c, 3, 55, 100
5, 109084, Note_off_c, 3, 55, 100
5, 109248, Note_on_c, 3, 55, 100
5, 109276, Note_off_c, 3, 55, 100
5, 109344, Note_on_c, 3, 55, 100
5, 109372, Note_off_c, 3, 55, 100
5, 109440, Note_on_c, 3, 55, 100
5, 109440, Note_on_c, 3, 64, 100
5, 109440, Note_on_c, 3, 60, 100
5, 109468, Note_off_c, 3, 55, 100
5, 109500, Note_off_c, 3, 64, 100
5, 109500, Note_off_c, 3, 60, 100
5, 109632, Note_on_c, 3, 55, 100
5, 109660, Note_off_c, 3, 55, 100
5, 109728, Note_on_c, 3, 55, 100
5, 109756, Note_off_c, 3, 55, 100
5, 109824, Note_on_c, 3, 55, 100
5, 109852, Note_off_c, 3, 55, 100
5, 110016, Note_on_c, 3, 55, 100
5, 110044, Note_off_c, 3, 55, 100
5, 110112, Note_on_c, 3, 55, 100
5, 110140, Note_off_c, 3, 55, 100
5, 110208, Note_on_c, 3, 55, 100
5, 110208, Note_on_c, 3, 59, 100
5, 110208, Note_on_c, 3, 62, 100
5, 110268, Note_off_c, 3, 55, 100
5, 110268, Note_off_c, 3, 59, 100
5, 110268, Note_off_c, 3, 62, 100
5, 110304, Note_on_c, 3, 60, 100
5, 110364, Note_off_c, 3, 60, 100
5, 110592, Note_on_c, 3, 64, 100
5, 110592, Note_on_c, 3, 60, 100
5, 110592, Note_on_c, 3, 55, 100
5, 110620, Note_off_c, 3, 64, 100
5, 110620, Note_off_c, 3, 60, 100
5, 110620, Note_off_c, 3, 55, 100
5, 110784, Note_on_c, 3, 64, 100
5, 110784, Note_on_c, 3, 60, 100
5, 110784, Note_on_c, 3, 55, 100
5, 110812, Note_off_c, 3, 64, 100
5, 110812, Note_off_c, 3, 60, 100
5, 110812, Note_off_c, 3, 55, 100
5, 110812, End_track
6, 0, Start_track
6, 0, Title_t, "indian instrument"
6, 0, Control_c, 4, 0, 0
6, 0, Program_c, 4, 111
6, 0, Key_signature, 0, "major"
6, 4344, Note_on_c, 4, 67, 127
6, 4364, Note_off_c, 4, 67, 127
6, 4368, Note_on_c, 4, 69, 127
6, 4388, Note_off_c, 4, 69, 127
6, 4392, Note_on_c, 4, 71, 127
6, 4412, Note_off_c, 4, 71, 127
6, 4416, Note_on_c, 4, 69, 127
6, 4436, Note_off_c, 4, 69, 127
6, 4440, Note_on_c, 4, 71, 127
6, 4724, Note_off_c, 4, 71, 127
6, 4728, Note_on_c, 4, 69, 127
6, 4772, Note_off_c, 4, 69, 127
6, 4776, Note_on_c, 4, 71, 127
6, 4820, Note_off_c, 4, 71, 127
6, 4824, Note_on_c, 4, 69, 127
6, 4868, Note_off_c, 4, 69, 127
6, 4872, Note_on_c, 4, 67, 127
6, 4964, Note_off_c, 4, 67, 127
6, 4968, Note_on_c, 4, 69, 127
6, 5060, Note_off_c, 4, 69, 127
6, 5064, Note_on_c, 4, 71, 127
6, 5252, Note_off_c, 4, 71, 127
6, 5256, Note_on_c, 4, 69, 127
6, 5300, Note_off_c, 4, 69, 127
6, 5304, Note_on_c, 4, 71, 127
6, 5348, Note_off_c, 4, 71, 127
6, 5352, Note_on_c, 4, 69, 127
6, 5444, Note_off_c, 4, 69, 127
6, 5448, Note_on_c, 4, 67, 127
6, 5540, Note_off_c, 4, 67, 127
6, 5544, Note_on_c, 4, 65, 127
6, 5588, Note_off_c, 4, 65, 127
6, 5592, Note_on_c, 4, 67, 127
6, 5636, Note_off_c, 4, 67, 127
6, 5640, Note_on_c, 4, 69, 127
6, 5684, Note_off_c, 4, 69, 127
6, 5688, Note_on_c, 4, 67, 127
6, 6068, Note_off_c, 4, 67, 127
6, 6072, Note_on_c, 4, 69, 127
6, 6116, Note_off_c, 4, 69, 127
6, 6120, Note_on_c, 4, 67, 127
6, 6140, Note_off_c, 4, 67, 127
6, 6144, Note_on_c, 4, 65, 127
6, 6212, Note_off_c, 4, 65, 127
6, 6216, Note_on_c, 4, 64, 127
6, 6236, Note_off_c, 4, 64, 127
6, 6240, Note_on_c, 4, 67, 127
6, 6284, Note_off_c, 4, 67, 127
6, 6288, Note_on_c, 4, 69, 127
6, 6380, Note_off_c, 4, 69, 127
6, 6384, Note_on_c, 4, 71, 127
6, 6428, Note_off_c, 4, 71, 127
6, 6432, Note_on_c, 4, 69, 127
6, 6524, Note_off_c, 4, 69, 127
6, 6528, Note_on_c, 4, 71, 127
6, 6620, Note_off_c, 4, 71, 127
6, 6624, Note_on_c, 4, 69, 127
6, 6716, Note_off_c, 4, 69, 127
6, 6720, Note_on_c, 4, 69, 127
6, 6764, Note_off_c, 4, 69, 127
6, 6768, Note_on_c, 4, 69, 127
6, 6812, Note_off_c, 4, 69, 127
6, 6816, Note_on_c, 4, 71, 127
6, 6860, Note_off_c, 4, 71, 127
6, 6864, Note_on_c, 4, 69, 127
6, 6956, Note_off_c, 4, 69, 127
6, 6960, Note_on_c, 4, 67, 127
6, 7004, Note_off_c, 4, 67, 127
6, 7008, Note_on_c, 4, 69, 127
6, 7052, Note_off_c, 4, 69, 127
6, 7056, Note_on_c, 4, 71, 127
6, 7340, Note_off_c, 4, 71, 127
6, 7344, Note_on_c, 4, 69, 127
6, 7388, Note_off_c, 4, 69, 127
6, 7392, Note_on_c, 4, 71, 127
6, 7436, Note_off_c, 4, 71, 127
6, 7440, Note_on_c, 4, 72, 127
6, 7484, Note_off_c, 4, 72, 127
6, 7488, Note_on_c, 4, 69, 127
6, 7532, Note_off_c, 4, 69, 127
6, 7536, Note_on_c, 4, 67, 127
6, 7580, Note_off_c, 4, 67, 127
6, 7584, Note_on_c, 4, 65, 127
6, 7676, Note_off_c, 4, 65, 127
6, 7680, Note_on_c, 4, 67, 127
6, 7772, Note_off_c, 4, 67, 127
6, 7776, Note_on_c, 4, 69, 127
6, 7820, Note_off_c, 4, 69, 127
6, 7824, Note_on_c, 4, 67, 127
6, 7868, Note_off_c, 4, 67, 127
6, 7872, Note_on_c, 4, 69, 127
6, 7916, Note_off_c, 4, 69, 127
6, 7920, Note_on_c, 4, 67, 127
6, 8012, Note_off_c, 4, 67, 127
6, 8016, Note_on_c, 4, 69, 127
6, 8108, Note_off_c, 4, 69, 127
6, 8112, Note_on_c, 4, 67, 127
6, 8156, Note_off_c, 4, 67, 127
6, 8160, Note_on_c, 4, 69, 127
6, 8204, Note_off_c, 4, 69, 127
6, 8208, Note_on_c, 4, 67, 127
6, 8396, Note_off_c, 4, 67, 127
6, 8400, Note_on_c, 4, 69, 127
6, 8444, Note_off_c, 4, 69, 127
6, 8448, Note_on_c, 4, 71, 127
6, 8492, Note_off_c, 4, 71, 127
6, 8496, Note_on_c, 4, 72, 127
6, 8540, Note_off_c, 4, 72, 127
6, 8544, Note_on_c, 4, 74, 127
6, 8588, Note_off_c, 4, 74, 127
6, 8592, Note_on_c, 4, 76, 127
6, 8684, Note_off_c, 4, 76, 127
6, 8688, Note_on_c, 4, 74, 127
6, 8732, Note_off_c, 4, 74, 127
6, 8736, Note_on_c, 4, 72, 127
6, 8828, Note_off_c, 4, 72, 127
6, 8832, Note_on_c, 4, 74, 127
6, 9020, Note_off_c, 4, 74, 127
6, 9024, Note_on_c, 4, 72, 127
6, 9068, Note_off_c, 4, 72, 127
6, 9072, Note_on_c, 4, 71, 127
6, 9116, Note_off_c, 4, 71, 127
6, 9120, Note_on_c, 4, 72, 127
6, 9212, Note_off_c, 4, 72, 127
6, 9216, Note_on_c, 4, 71, 127
6, 9260, Note_off_c, 4, 71, 127
6, 9264, Note_on_c, 4, 69, 127
6, 9356, Note_off_c, 4, 69, 127
6, 9360, Note_on_c, 4, 67, 127
6, 9548, Note_off_c, 4, 67, 127
6, 9552, Note_on_c, 4, 65, 127
6, 9596, Note_off_c, 4, 65, 127
6, 9600, Note_on_c, 4, 67, 127
6, 9644, Note_off_c, 4, 67, 127
6, 9648, Note_on_c, 4, 65, 127
6, 9740, Note_off_c, 4, 65, 127
6, 9744, Note_on_c, 4, 65, 127
6, 9788, Note_off_c, 4, 65, 127
6, 9792, Note_on_c, 4, 67, 127
6, 9836, Note_off_c, 4, 67, 127
6, 9840, Note_on_c, 4, 67, 127
6, 9884, Note_off_c, 4, 67, 127
6, 9888, Note_on_c, 4, 65, 127
6, 9932, Note_off_c, 4, 65, 127
6, 9936, Note_on_c, 4, 64, 127
6, 9980, Note_off_c, 4, 64, 127
6, 9984, Note_on_c, 4, 62, 127
6, 10028, Note_off_c, 4, 62, 127
6, 10032, Note_on_c, 4, 60, 127
6, 10124, Note_off_c, 4, 60, 127
6, 10128, Note_on_c, 4, 62, 127
6, 10172, Note_off_c, 4, 62, 127
6, 10176, Note_on_c, 4, 60, 127
6, 10220, Note_off_c, 4, 60, 127
6, 10224, Note_on_c, 4, 62, 127
6, 10268, Note_off_c, 4, 62, 127
6, 10272, Note_on_c, 4, 64, 127
6, 10316, Note_off_c, 4, 64, 127
6, 10320, Note_on_c, 4, 65, 127
6, 10364, Note_off_c, 4, 65, 127
6, 10368, Note_on_c, 4, 67, 127
6, 10412, Note_off_c, 4, 67, 127
6, 10416, Note_on_c, 4, 71, 127
6, 10508, Note_off_c, 4, 71, 127
6, 10512, Note_on_c, 4, 69, 127
6, 10556, Note_off_c, 4, 69, 127
6, 10560, Note_on_c, 4, 67, 127
6, 10604, Note_off_c, 4, 67, 127
6, 10608, Note_on_c, 4, 69, 127
6, 10700, Note_off_c, 4, 69, 127
6, 10704, Note_on_c, 4, 67, 127
6, 10748, Note_off_c, 4, 67, 127
6, 10752, Note_on_c, 4, 62, 127
6, 10796, Note_off_c, 4, 62, 127
6, 10800, Note_on_c, 4, 71, 127
6, 10844, Note_off_c, 4, 71, 127
6, 10848, Note_on_c, 4, 69, 127
6, 10892, Note_off_c, 4, 69, 127
6, 10896, Note_on_c, 4, 67, 127
6, 10940, Note_off_c, 4, 67, 127
6, 10944, Note_on_c, 4, 64, 127
6, 11036, Note_off_c, 4, 64, 127
6, 11040, Note_on_c, 4, 71, 127
6, 11084, Note_off_c, 4, 71, 127
6, 11088, Note_on_c, 4, 69, 127
6, 11132, Note_off_c, 4, 69, 127
6, 11136, Note_on_c, 4, 71, 127
6, 11180, Note_off_c, 4, 71, 127
6, 11184, Note_on_c, 4, 69, 127
6, 11276, Note_off_c, 4, 69, 127
6, 11280, Note_on_c, 4, 67, 127
6, 11372, Note_off_c, 4, 67, 127
6, 11376, Note_on_c, 4, 69, 127
6, 11396, Note_off_c, 4, 69, 127
6, 11400, Note_on_c, 4, 65, 127
6, 11420, Note_off_c, 4, 65, 127
6, 11424, Note_on_c, 4, 67, 127
6, 11444, Note_off_c, 4, 67, 127
6, 11448, Note_on_c, 4, 71, 127
6, 11492, Note_off_c, 4, 71, 127
6, 11496, Note_on_c, 4, 69, 127
6, 11540, Note_off_c, 4, 69, 127
6, 11544, Note_on_c, 4, 71, 127
6, 11588, Note_off_c, 4, 71, 127
6, 11592, Note_on_c, 4, 69, 127
6, 11684, Note_off_c, 4, 69, 127
6, 11688, Note_on_c, 4, 64, 127
6, 11708, Note_off_c, 4, 64, 127
6, 11712, Note_on_c, 4, 65, 127
6, 11804, Note_off_c, 4, 65, 127
6, 11808, Note_on_c, 4, 72, 127
6, 11828, Note_off_c, 4, 72, 127
6, 11832, Note_on_c, 4, 71, 127
6, 11876, Note_off_c, 4, 71, 127
6, 11880, Note_on_c, 4, 69, 127
6, 11924, Note_off_c, 4, 69, 127
6, 11928, Note_on_c, 4, 71, 127
6, 11972, Note_off_c, 4, 71, 127
6, 11976, Note_on_c, 4, 69, 127
6, 12068, Note_off_c, 4, 69, 127
6, 12072, Note_on_c, 4, 71, 127
6, 12164, Note_off_c, 4, 71, 127
6, 12168, Note_on_c, 4, 67, 127
6, 12188, Note_off_c, 4, 67, 127
6, 12192, Note_on_c, 4, 67, 127
6, 12236, Note_off_c, 4, 67, 127
6, 12240, Note_on_c, 4, 69, 127
6, 12284, Note_off_c, 4, 69, 127
6, 12288, Note_on_c, 4, 67, 127
6, 12332, Note_off_c, 4, 67, 127
6, 12336, Note_on_c, 4, 65, 127
6, 12380, Note_off_c, 4, 65, 127
6, 12384, Note_on_c, 4, 69, 127
6, 12476, Note_off_c, 4, 69, 127
6, 12480, Note_on_c, 4, 67, 127
6, 13052, Note_off_c, 4, 67, 127
6, 18768, Note_on_c, 4, 67, 127
6, 18812, Note_off_c, 4, 67, 127
6, 18816, Note_on_c, 4, 71, 127
6, 18860, Note_off_c, 4, 71, 127
6, 18864, Note_on_c, 4, 72, 127
6, 18908, Note_off_c, 4, 72, 127
6, 18912, Note_on_c, 4, 74, 127
6, 18956, Note_off_c, 4, 74, 127
6, 18960, Note_on_c, 4, 72, 127
6, 19004, Note_off_c, 4, 72, 127
6, 19008, Note_on_c, 4, 71, 127
6, 19052, Note_off_c, 4, 71, 127
6, 19056, Note_on_c, 4, 69, 127
6, 19100, Note_off_c, 4, 69, 127
6, 19104, Note_on_c, 4, 67, 127
6, 19148, Note_off_c, 4, 67, 127
6, 19152, Note_on_c, 4, 69, 127
6, 19196, Note_off_c, 4, 69, 127
6, 19200, Note_on_c, 4, 67, 127
6, 19244, Note_off_c, 4, 67, 127
6, 19248, Note_on_c, 4, 65, 127
6, 19292, Note_off_c, 4, 65, 127
6, 19296, Note_on_c, 4, 64, 127
6, 19388, Note_off_c, 4, 64, 127
6, 19392, Note_on_c, 4, 67, 127
6, 19436, Note_off_c, 4, 67, 127
6, 19440, Note_on_c, 4, 65, 127
6, 19484, Note_off_c, 4, 65, 127
6, 19488, Note_on_c, 4, 67, 127
6, 19532, Note_off_c, 4, 67, 127
6, 19536, Note_on_c, 4, 64, 127
6, 19580, Note_off_c, 4, 64, 127
6, 19584, Note_on_c, 4, 65, 127
6, 19676, Note_off_c, 4, 65, 127
6, 19680, Note_on_c, 4, 65, 127
6, 19700, Note_off_c, 4, 65, 127
6, 19704, Note_on_c, 4, 67, 127
6, 19724, Note_off_c, 4, 67, 127
6, 19728, Note_on_c, 4, 65, 127
6, 19748, Note_off_c, 4, 65, 127
6, 19752, Note_on_c, 4, 67, 127
6, 19772, Note_off_c, 4, 67, 127
6, 19776, Note_on_c, 4, 65, 127
6, 19868, Note_off_c, 4, 65, 127
6, 24768, Note_on_c, 4, 69, 127
6, 24860, Note_off_c, 4, 69, 127
6, 24864, Note_on_c, 4, 72, 127
6, 24956, Note_off_c, 4, 72, 127
6, 24960, Note_on_c, 4, 71, 127
6, 25004, Note_off_c, 4, 71, 127
6, 25008, Note_on_c, 4, 71, 127
6, 25028, Note_off_c, 4, 71, 127
6, 25032, Note_on_c, 4, 72, 127
6, 25052, Note_off_c, 4, 72, 127
6, 25056, Note_on_c, 4, 71, 127
6, 25076, Note_off_c, 4, 71, 127
6, 25080, Note_on_c, 4, 72, 127
6, 25100, Note_off_c, 4, 72, 127
6, 25104, Note_on_c, 4, 71, 127
6, 25148, Note_off_c, 4, 71, 127
6, 25152, Note_on_c, 4, 72, 127
6, 25172, Note_off_c, 4, 72, 127
6, 25176, Note_on_c, 4, 71, 127
6, 25196, Note_off_c, 4, 71, 127
6, 25200, Note_on_c, 4, 72, 127
6, 25220, Note_off_c, 4, 72, 127
6, 25224, Note_on_c, 4, 71, 127
6, 25244, Note_off_c, 4, 71, 127
6, 25248, Note_on_c, 4, 72, 127
6, 25268, Note_off_c, 4, 72, 127
6, 25272, Note_on_c, 4, 71, 127
6, 25316, Note_off_c, 4, 71, 127
6, 25320, Note_on_c, 4, 69, 127
6, 25364, Note_off_c, 4, 69, 127
6, 25368, Note_on_c, 4, 71, 127
6, 25412, Note_off_c, 4, 71, 127
6, 25416, Note_on_c, 4, 69, 127
6, 25460, Note_off_c, 4, 69, 127
6, 25464, Note_on_c, 4, 67, 127
6, 25508, Note_off_c, 4, 67, 127
6, 25512, Note_on_c, 4, 65, 127
6, 25556, Note_off_c, 4, 65, 127
6, 25560, Note_on_c, 4, 67, 127
6, 25604, Note_off_c, 4, 67, 127
6, 25608, Note_on_c, 4, 65, 127
6, 25652, Note_off_c, 4, 65, 127
6, 25656, Note_on_c, 4, 67, 127
6, 25700, Note_off_c, 4, 67, 127
6, 25704, Note_on_c, 4, 69, 127
6, 25748, Note_off_c, 4, 69, 127
6, 25752, Note_on_c, 4, 65, 127
6, 25772, Note_off_c, 4, 65, 127
6, 25776, Note_on_c, 4, 67, 127
6, 25796, Note_off_c, 4, 67, 127
6, 25800, Note_on_c, 4, 67, 127
6, 25820, Note_off_c, 4, 67, 127
6, 25824, Note_on_c, 4, 65, 127
6, 25844, Note_off_c, 4, 65, 127
6, 25848, Note_on_c, 4, 67, 127
6, 25892, Note_off_c, 4, 67, 127
6, 25896, Note_on_c, 4, 65, 127
6, 25940, Note_off_c, 4, 65, 127
6, 25944, Note_on_c, 4, 67, 127
6, 25988, Note_off_c, 4, 67, 127
6, 25992, Note_on_c, 4, 65, 127
6, 26036, Note_off_c, 4, 65, 127
6, 35616, Note_on_c, 4, 71, 127
6, 35660, Note_off_c, 4, 71, 127
6, 35664, Note_on_c, 4, 72, 127
6, 35708, Note_off_c, 4, 72, 127
6, 35712, Note_on_c, 4, 74, 127
6, 35804, Note_off_c, 4, 74, 127
6, 35808, Note_on_c, 4, 76, 127
6, 35828, Note_off_c, 4, 76, 127
6, 35832, Note_on_c, 4, 74, 127
6, 35852, Note_off_c, 4, 74, 127
6, 35856, Note_on_c, 4, 72, 127
6, 35900, Note_off_c, 4, 72, 127
6, 35904, Note_on_c, 4, 74, 127
6, 35996, Note_off_c, 4, 74, 127
6, 36000, Note_on_c, 4, 72, 127
6, 36044, Note_off_c, 4, 72, 127
6, 36048, Note_on_c, 4, 71, 127
6, 36092, Note_off_c, 4, 71, 127
6, 36096, Note_on_c, 4, 72, 127
6, 36140, Note_off_c, 4, 72, 127
6, 36144, Note_on_c, 4, 71, 127
6, 36188, Note_off_c, 4, 71, 127
6, 36192, Note_on_c, 4, 69, 127
6, 36236, Note_off_c, 4, 69, 127
6, 36240, Note_on_c, 4, 71, 127
6, 36284, Note_off_c, 4, 71, 127
6, 36288, Note_on_c, 4, 69, 127
6, 36332, Note_off_c, 4, 69, 127
6, 36336, Note_on_c, 4, 71, 127
6, 36380, Note_off_c, 4, 71, 127
6, 36384, Note_on_c, 4, 67, 127
6, 36404, Note_off_c, 4, 67, 127
6, 36408, Note_on_c, 4, 69, 127
6, 36428, Note_off_c, 4, 69, 127
6, 36432, Note_on_c, 4, 67, 127
6, 36452, Note_off_c, 4, 67, 127
6, 36456, Note_on_c, 4, 69, 127
6, 36476, Note_off_c, 4, 69, 127
6, 36480, Note_on_c, 4, 67, 127
6, 36500, Note_off_c, 4, 67, 127
6, 36504, Note_on_c, 4, 69, 127
6, 36524, Note_off_c, 4, 69, 127
6, 36528, Note_on_c, 4, 67, 127
6, 36548, Note_off_c, 4, 67, 127
6, 36552, Note_on_c, 4, 69, 127
6, 36572, Note_off_c, 4, 69, 127
6, 36576, Note_on_c, 4, 71, 127
6, 36668, Note_off_c, 4, 71, 127
6, 36672, Note_on_c, 4, 69, 127
6, 36716, Note_off_c, 4, 69, 127
6, 36720, Note_on_c, 4, 71, 127
6, 36764, Note_off_c, 4, 71, 127
6, 36768, Note_on_c, 4, 69, 127
6, 36812, Note_off_c, 4, 69, 127
6, 36816, Note_on_c, 4, 69, 127
6, 36860, Note_off_c, 4, 69, 127
6, 41664, Note_on_c, 4, 72, 100
6, 41708, Note_off_c, 4, 72, 100
6, 41712, Note_on_c, 4, 71, 100
6, 41756, Note_off_c, 4, 71, 100
6, 41760, Note_on_c, 4, 72, 100
6, 41804, Note_off_c, 4, 72, 100
6, 41808, Note_on_c, 4, 71, 100
6, 41852, Note_off_c, 4, 71, 100
6, 41856, Note_on_c, 4, 72, 100
6, 41900, Note_off_c, 4, 72, 100
6, 41904, Note_on_c, 4, 71, 100
6, 41948, Note_off_c, 4, 71, 100
6, 41952, Note_on_c, 4, 71, 100
6, 41996, Note_off_c, 4, 71, 100
6, 42000, Note_on_c, 4, 69, 100
6, 42044, Note_off_c, 4, 69, 100
6, 42048, Note_on_c, 4, 71, 100
6, 42068, Note_off_c, 4, 71, 100
6, 42072, Note_on_c, 4, 72, 100
6, 42092, Note_off_c, 4, 72, 100
6, 42096, Note_on_c, 4, 71, 100
6, 42116, Note_off_c, 4, 71, 100
6, 42120, Note_on_c, 4, 69, 100
6, 42140, Note_off_c, 4, 69, 100
6, 42144, Note_on_c, 4, 67, 100
6, 42164, Note_off_c, 4, 67, 100
6, 42168, Note_on_c, 4, 69, 100
6, 42212, Note_off_c, 4, 69, 100
6, 42216, Note_on_c, 4, 67, 100
6, 42260, Note_off_c, 4, 67, 100
6, 42264, Note_on_c, 4, 65, 100
6, 42308, Note_off_c, 4, 65, 100
6, 42312, Note_on_c, 4, 67, 100
6, 42332, Note_off_c, 4, 67, 100
6, 42336, Note_on_c, 4, 67, 100
6, 42356, Note_off_c, 4, 67, 100
6, 42360, Note_on_c, 4, 65, 100
6, 42380, Note_off_c, 4, 65, 100
6, 42384, Note_on_c, 4, 64, 100
6, 42404, Note_off_c, 4, 64, 100
6, 42408, Note_on_c, 4, 65, 100
6, 42428, Note_off_c, 4, 65, 100
6, 42432, Note_on_c, 4, 67, 100
6, 42456, Note_on_c, 4, 64, 100
6, 42476, Note_off_c, 4, 67, 100
6, 42500, Note_off_c, 4, 64, 100
6, 42504, Note_on_c, 4, 65, 100
6, 42548, Note_off_c, 4, 65, 100
6, 42552, Note_on_c, 4, 64, 100
6, 42596, Note_off_c, 4, 64, 100
6, 42600, Note_on_c, 4, 62, 100
6, 42644, Note_off_c, 4, 62, 100
6, 42648, Note_on_c, 4, 64, 100
6, 42692, Note_off_c, 4, 64, 100
6, 42696, Note_on_c, 4, 65, 100
6, 42716, Note_off_c, 4, 65, 100
6, 42720, Note_on_c, 4, 64, 100
6, 42740, Note_off_c, 4, 64, 100
6, 42744, Note_on_c, 4, 65, 100
6, 42764, Note_off_c, 4, 65, 100
6, 42768, Note_on_c, 4, 64, 100
6, 42788, Note_off_c, 4, 64, 100
6, 42792, Note_on_c, 4, 62, 100
6, 42816, Note_on_c, 4, 65, 100
6, 42836, Note_off_c, 4, 62, 100
6, 42908, Note_off_c, 4, 65, 100
6, 42912, Note_on_c, 4, 65, 100
6, 43004, Note_off_c, 4, 65, 100
6, 43008, Note_on_c, 4, 64, 100
6, 43388, Note_off_c, 4, 64, 100
6, 46464, Note_on_c, 4, 67, 100
6, 47500, Note_off_c, 4, 67, 100
6, 47520, Note_on_c, 4, 66, 100
6, 47612, Note_off_c, 4, 66, 100
6, 47616, Note_on_c, 4, 67, 100
6, 49148, Note_off_c, 4, 67, 100
6, 49152, Note_on_c, 4, 67, 100
6, 50684, Note_off_c, 4, 67, 100
6, 51072, Note_on_c, 4, 72, 100
6, 51356, Note_off_c, 4, 72, 100
6, 51360, Note_on_c, 4, 71, 100
6, 51452, Note_off_c, 4, 71, 100
6, 51456, Note_on_c, 4, 69, 100
6, 51500, Note_off_c, 4, 69, 100
6, 51504, Note_on_c, 4, 71, 100
6, 51548, Note_off_c, 4, 71, 100
6, 51552, Note_on_c, 4, 69, 100
6, 51596, Note_off_c, 4, 69, 100
6, 51600, Note_on_c, 4, 67, 100
6, 51644, Note_off_c, 4, 67, 100
6, 51648, Note_on_c, 4, 69, 100
6, 51692, Note_off_c, 4, 69, 100
6, 51696, Note_on_c, 4, 67, 100
6, 51740, Note_off_c, 4, 67, 100
6, 51744, Note_on_c, 4, 69, 100
6, 51788, Note_off_c, 4, 69, 100
6, 51792, Note_on_c, 4, 71, 100
6, 51836, Note_off_c, 4, 71, 100
6, 51840, Note_on_c, 4, 69, 100
6, 51884, Note_off_c, 4, 69, 100
6, 51888, Note_on_c, 4, 69, 100
6, 51932, Note_off_c, 4, 69, 100
6, 51936, Note_on_c, 4, 71, 100
6, 51980, Note_off_c, 4, 71, 100
6, 51984, Note_on_c, 4, 69, 100
6, 52028, Note_off_c, 4, 69, 100
6, 52032, Note_on_c, 4, 67, 100
6, 52316, Note_off_c, 4, 67, 100
6, 55488, Note_on_c, 4, 67, 100
6, 55580, Note_off_c, 4, 67, 100
6, 55584, Note_on_c, 4, 74, 100
6, 55676, Note_off_c, 4, 74, 100
6, 55680, Note_on_c, 4, 72, 100
6, 55868, Note_off_c, 4, 72, 100
6, 55872, Note_on_c, 4, 71, 100
6, 55916, Note_off_c, 4, 71, 100
6, 55920, Note_on_c, 4, 72, 100
6, 55964, Note_off_c, 4, 72, 100
6, 55968, Note_on_c, 4, 71, 100
6, 56012, Note_off_c, 4, 71, 100
6, 56016, Note_on_c, 4, 69, 100
6, 56060, Note_off_c, 4, 69, 100
6, 56064, Note_on_c, 4, 71, 100
6, 56108, Note_off_c, 4, 71, 100
6, 56112, Note_on_c, 4, 65, 100
6, 56156, Note_off_c, 4, 65, 100
6, 56160, Note_on_c, 4, 67, 100
6, 56204, Note_off_c, 4, 67, 100
6, 56208, Note_on_c, 4, 69, 100
6, 56300, Note_off_c, 4, 69, 100
6, 56304, Note_on_c, 4, 67, 100
6, 56396, Note_off_c, 4, 67, 100
6, 56400, Note_on_c, 4, 71, 100
6, 56420, Note_off_c, 4, 71, 100
6, 56424, Note_on_c, 4, 69, 100
6, 56448, Note_on_c, 4, 67, 100
6, 56468, Note_off_c, 4, 69, 100
6, 56492, Note_off_c, 4, 67, 100
6, 56496, Note_on_c, 4, 69, 100
6, 56540, Note_off_c, 4, 69, 100
6, 56544, Note_on_c, 4, 67, 100
6, 56636, Note_off_c, 4, 67, 100
6, 56640, Note_on_c, 4, 69, 100
6, 56684, Note_off_c, 4, 69, 100
6, 56688, Note_on_c, 4, 67, 100
6, 56732, Note_off_c, 4, 67, 100
6, 56736, Note_on_c, 4, 69, 100
6, 56780, Note_off_c, 4, 69, 100
6, 56784, Note_on_c, 4, 67, 100
6, 56828, Note_off_c, 4, 67, 100
6, 57216, Note_on_c, 4, 72, 100
6, 57500, Note_off_c, 4, 72, 100
6, 57504, Note_on_c, 4, 71, 100
6, 57596, Note_off_c, 4, 71, 100
6, 57600, Note_on_c, 4, 69, 100
6, 57644, Note_off_c, 4, 69, 100
6, 57648, Note_on_c, 4, 71, 100
6, 57692, Note_off_c, 4, 71, 100
6, 57696, Note_on_c, 4, 69, 100
6, 57740, Note_off_c, 4, 69, 100
6, 57744, Note_on_c, 4, 67, 100
6, 57788, Note_off_c, 4, 67, 100
6, 57792, Note_on_c, 4, 69, 100
6, 57836, Note_off_c, 4, 69, 100
6, 57840, Note_on_c, 4, 67, 100
6, 57884, Note_off_c, 4, 67, 100
6, 57888, Note_on_c, 4, 69, 100
6, 57932, Note_off_c, 4, 69, 100
6, 57936, Note_on_c, 4, 71, 100
6, 57980, Note_off_c, 4, 71, 100
6, 57984, Note_on_c, 4, 69, 100
6, 58028, Note_off_c, 4, 69, 100
6, 58032, Note_on_c, 4, 69, 100
6, 58076, Note_off_c, 4, 69, 100
6, 58080, Note_on_c, 4, 71, 100
6, 58124, Note_off_c, 4, 71, 100
6, 58128, Note_on_c, 4, 69, 100
6, 58172, Note_off_c, 4, 69, 100
6, 58176, Note_on_c, 4, 67, 100
6, 58368, Note_on_c, 4, 67, 100
6, 58460, Note_off_c, 4, 67, 100
6, 59900, Note_off_c, 4, 67, 100
6, 70800, Note_on_c, 4, 67, 127
6, 70844, Note_off_c, 4, 67, 127
6, 70848, Note_on_c, 4, 71, 127
6, 70892, Note_off_c, 4, 71, 127
6, 70896, Note_on_c, 4, 72, 127
6, 70940, Note_off_c, 4, 72, 127
6, 70944, Note_on_c, 4, 74, 127
6, 70988, Note_off_c, 4, 74, 127
6, 70992, Note_on_c, 4, 72, 127
6, 71036, Note_off_c, 4, 72, 127
6, 71040, Note_on_c, 4, 71, 127
6, 71084, Note_off_c, 4, 71, 127
6, 71088, Note_on_c, 4, 69, 127
6, 71132, Note_off_c, 4, 69, 127
6, 71136, Note_on_c, 4, 67, 127
6, 71180, Note_off_c, 4, 67, 127
6, 71184, Note_on_c, 4, 69, 127
6, 71228, Note_off_c, 4, 69, 127
6, 71232, Note_on_c, 4, 67, 127
6, 71276, Note_off_c, 4, 67, 127
6, 71280, Note_on_c, 4, 65, 127
6, 71324, Note_off_c, 4, 65, 127
6, 71328, Note_on_c, 4, 64, 127
6, 71420, Note_off_c, 4, 64, 127
6, 71424, Note_on_c, 4, 67, 127
6, 71468, Note_off_c, 4, 67, 127
6, 71472, Note_on_c, 4, 65, 127
6, 71516, Note_off_c, 4, 65, 127
6, 71520, Note_on_c, 4, 67, 127
6, 71564, Note_off_c, 4, 67, 127
6, 71568, Note_on_c, 4, 64, 127
6, 71612, Note_off_c, 4, 64, 127
6, 71616, Note_on_c, 4, 65, 127
6, 71708, Note_off_c, 4, 65, 127
6, 71712, Note_on_c, 4, 65, 127
6, 71732, Note_off_c, 4, 65, 127
6, 71736, Note_on_c, 4, 67, 127
6, 71756, Note_off_c, 4, 67, 127
6, 71760, Note_on_c, 4, 65, 127
6, 71780, Note_off_c, 4, 65, 127
6, 71784, Note_on_c, 4, 67, 127
6, 71804, Note_off_c, 4, 67, 127
6, 71808, Note_on_c, 4, 65, 127
6, 71900, Note_off_c, 4, 65, 127
6, 71904, Note_on_c, 4, 67, 100
6, 72284, Note_off_c, 4, 67, 100
6, 73872, Note_on_c, 4, 71, 127
6, 73916, Note_off_c, 4, 71, 127
6, 73920, Note_on_c, 4, 67, 127
6, 73940, Note_off_c, 4, 67, 127
6, 73944, Note_on_c, 4, 69, 127
6, 73964, Note_off_c, 4, 69, 127
6, 73968, Note_on_c, 4, 67, 127
6, 73988, Note_off_c, 4, 67, 127
6, 73992, Note_on_c, 4, 69, 127
6, 74012, Note_off_c, 4, 69, 127
6, 74016, Note_on_c, 4, 67, 127
6, 74036, Note_off_c, 4, 67, 127
6, 74040, Note_on_c, 4, 69, 127
6, 74060, Note_off_c, 4, 69, 127
6, 74064, Note_on_c, 4, 67, 127
6, 74084, Note_off_c, 4, 67, 127
6, 74088, Note_on_c, 4, 69, 127
6, 74108, Note_off_c, 4, 69, 127
6, 74112, Note_on_c, 4, 71, 127
6, 74204, Note_off_c, 4, 71, 127
6, 74208, Note_on_c, 4, 69, 127
6, 74252, Note_off_c, 4, 69, 127
6, 74256, Note_on_c, 4, 71, 127
6, 74300, Note_off_c, 4, 71, 127
6, 74304, Note_on_c, 4, 69, 127
6, 74348, Note_off_c, 4, 69, 127
6, 74352, Note_on_c, 4, 69, 127
6, 74396, Note_off_c, 4, 69, 127
6, 74400, Note_on_c, 4, 71, 100
6, 74492, Note_off_c, 4, 71, 100
6, 74496, Note_on_c, 4, 71, 127
6, 74540, Note_off_c, 4, 71, 127
6, 74544, Note_on_c, 4, 72, 127
6, 74588, Note_off_c, 4, 72, 127
6, 74592, Note_on_c, 4, 74, 127
6, 74684, Note_off_c, 4, 74, 127
6, 74688, Note_on_c, 4, 76, 127
6, 74708, Note_off_c, 4, 76, 127
6, 74712, Note_on_c, 4, 74, 127
6, 74732, Note_off_c, 4, 74, 127
6, 74736, Note_on_c, 4, 72, 127
6, 74780, Note_off_c, 4, 72, 127
6, 74784, Note_on_c, 4, 74, 127
6, 74876, Note_off_c, 4, 74, 127
6, 74880, Note_on_c, 4, 72, 127
6, 74924, Note_off_c, 4, 72, 127
6, 74928, Note_on_c, 4, 71, 127
6, 74972, Note_off_c, 4, 71, 127
6, 74976, Note_on_c, 4, 72, 127
6, 75020, Note_off_c, 4, 72, 127
6, 75024, Note_on_c, 4, 71, 127
6, 75068, Note_off_c, 4, 71, 127
6, 75072, Note_on_c, 4, 69, 127
6, 75116, Note_off_c, 4, 69, 127
6, 75120, Note_on_c, 4, 71, 127
6, 75164, Note_off_c, 4, 71, 127
6, 75168, Note_on_c, 4, 69, 127
6, 75212, Note_off_c, 4, 69, 127
6, 75216, Note_on_c, 4, 71, 127
6, 75260, Note_off_c, 4, 71, 127
6, 75264, Note_on_c, 4, 67, 127
6, 75284, Note_off_c, 4, 67, 127
6, 75288, Note_on_c, 4, 69, 127
6, 75308, Note_off_c, 4, 69, 127
6, 75312, Note_on_c, 4, 67, 127
6, 75332, Note_off_c, 4, 67, 127
6, 75336, Note_on_c, 4, 69, 127
6, 75356, Note_off_c, 4, 69, 127
6, 75360, Note_on_c, 4, 67, 127
6, 75380, Note_off_c, 4, 67, 127
6, 75384, Note_on_c, 4, 69, 127
6, 75404, Note_off_c, 4, 69, 127
6, 76944, Note_on_c, 4, 74, 127
6, 76988, Note_off_c, 4, 74, 127
6, 76992, Note_on_c, 4, 76, 127
6, 77036, Note_off_c, 4, 76, 127
6, 77040, Note_on_c, 4, 77, 127
6, 77084, Note_off_c, 4, 77, 127
6, 77088, Note_on_c, 4, 79, 127
6, 77132, Note_off_c, 4, 79, 127
6, 77136, Note_on_c, 4, 81, 127
6, 77228, Note_off_c, 4, 81, 127
6, 77232, Note_on_c, 4, 79, 127
6, 77276, Note_off_c, 4, 79, 127
6, 77280, Note_on_c, 4, 77, 127
6, 77372, Note_off_c, 4, 77, 127
6, 77376, Note_on_c, 4, 79, 127
6, 77564, Note_off_c, 4, 79, 127
6, 77568, Note_on_c, 4, 77, 127
6, 77612, Note_off_c, 4, 77, 127
6, 77616, Note_on_c, 4, 76, 127
6, 77660, Note_off_c, 4, 76, 127
6, 77664, Note_on_c, 4, 77, 127
6, 77756, Note_off_c, 4, 77, 127
6, 77760, Note_on_c, 4, 76, 127
6, 77804, Note_off_c, 4, 76, 127
6, 77808, Note_on_c, 4, 74, 127
6, 77900, Note_off_c, 4, 74, 127
6, 77904, Note_on_c, 4, 72, 127
6, 78092, Note_off_c, 4, 72, 127
6, 81408, Note_on_c, 4, 67, 100
6, 82940, Note_off_c, 4, 67, 100
6, 82944, Note_on_c, 4, 67, 100
6, 84476, Note_off_c, 4, 67, 100
6, 84480, Note_on_c, 4, 67, 100
6, 86012, Note_off_c, 4, 67, 100
6, 86304, Note_on_c, 4, 62, 127
6, 86348, Note_off_c, 4, 62, 127
6, 86352, Note_on_c, 4, 71, 127
6, 86396, Note_off_c, 4, 71, 127
6, 86400, Note_on_c, 4, 69, 127
6, 86444, Note_off_c, 4, 69, 127
6, 86448, Note_on_c, 4, 67, 127
6, 86492, Note_off_c, 4, 67, 127
6, 86496, Note_on_c, 4, 64, 127
6, 86588, Note_off_c, 4, 64, 127
6, 86592, Note_on_c, 4, 71, 127
6, 86636, Note_off_c, 4, 71, 127
6, 86640, Note_on_c, 4, 69, 127
6, 86684, Note_off_c, 4, 69, 127
6, 86688, Note_on_c, 4, 71, 127
6, 86732, Note_off_c, 4, 71, 127
6, 86736, Note_on_c, 4, 69, 127
6, 86828, Note_off_c, 4, 69, 127
6, 86832, Note_on_c, 4, 67, 127
6, 86924, Note_off_c, 4, 67, 127
6, 86928, Note_on_c, 4, 69, 127
6, 86948, Note_off_c, 4, 69, 127
6, 86952, Note_on_c, 4, 65, 127
6, 86972, Note_off_c, 4, 65, 127
6, 86976, Note_on_c, 4, 67, 127
6, 86996, Note_off_c, 4, 67, 127
6, 87000, Note_on_c, 4, 71, 127
6, 87044, Note_off_c, 4, 71, 127
6, 87048, Note_on_c, 4, 69, 127
6, 87092, Note_off_c, 4, 69, 127
6, 87096, Note_on_c, 4, 71, 127
6, 87140, Note_off_c, 4, 71, 127
6, 87144, Note_on_c, 4, 69, 127
6, 87236, Note_off_c, 4, 69, 127
6, 87240, Note_on_c, 4, 64, 127
6, 87260, Note_off_c, 4, 64, 127
6, 87264, Note_on_c, 4, 65, 127
6, 87356, Note_off_c, 4, 65, 127
6, 87360, Note_on_c, 4, 72, 127
6, 87380, Note_off_c, 4, 72, 127
6, 87384, Note_on_c, 4, 71, 127
6, 87428, Note_off_c, 4, 71, 127
6, 87552, Note_on_c, 4, 67, 100
6, 89084, Note_off_c, 4, 67, 100
6, 90864, Note_on_c, 4, 74, 127
6, 90908, Note_off_c, 4, 74, 127
6, 90912, Note_on_c, 4, 76, 127
6, 90956, Note_off_c, 4, 76, 127
6, 90960, Note_on_c, 4, 77, 127
6, 91004, Note_off_c, 4, 77, 127
6, 91008, Note_on_c, 4, 79, 127
6, 91052, Note_off_c, 4, 79, 127
6, 91056, Note_on_c, 4, 81, 127
6, 91148, Note_off_c, 4, 81, 127
6, 91152, Note_on_c, 4, 79, 127
6, 91196, Note_off_c, 4, 79, 127
6, 91200, Note_on_c, 4, 77, 127
6, 91292, Note_off_c, 4, 77, 127
6, 91296, Note_on_c, 4, 79, 127
6, 91484, Note_off_c, 4, 79, 127
6, 91488, Note_on_c, 4, 77, 127
6, 91532, Note_off_c, 4, 77, 127
6, 91536, Note_on_c, 4, 76, 127
6, 91580, Note_off_c, 4, 76, 127
6, 91584, Note_on_c, 4, 77, 127
6, 91676, Note_off_c, 4, 77, 127
6, 91680, Note_on_c, 4, 76, 127
6, 91724, Note_off_c, 4, 76, 127
6, 91728, Note_on_c, 4, 74, 127
6, 91820, Note_off_c, 4, 74, 127
6, 91824, Note_on_c, 4, 72, 127
6, 92012, Note_off_c, 4, 72, 127
6, 92400, Note_on_c, 4, 71, 127
6, 92444, Note_off_c, 4, 71, 127
6, 92448, Note_on_c, 4, 72, 127
6, 92492, Note_off_c, 4, 72, 127
6, 92496, Note_on_c, 4, 74, 127
6, 92540, Note_off_c, 4, 74, 127
6, 92544, Note_on_c, 4, 76, 127
6, 92588, Note_off_c, 4, 76, 127
6, 92592, Note_on_c, 4, 77, 127
6, 92684, Note_off_c, 4, 77, 127
6, 92688, Note_on_c, 4, 76, 127
6, 92732, Note_off_c, 4, 76, 127
6, 92736, Note_on_c, 4, 74, 127
6, 92828, Note_off_c, 4, 74, 127
6, 92832, Note_on_c, 4, 76, 127
6, 93020, Note_off_c, 4, 76, 127
6, 93024, Note_on_c, 4, 74, 127
6, 93068, Note_off_c, 4, 74, 127
6, 93072, Note_on_c, 4, 72, 127
6, 93116, Note_off_c, 4, 72, 127
6, 93120, Note_on_c, 4, 74, 127
6, 93212, Note_off_c, 4, 74, 127
6, 93216, Note_on_c, 4, 72, 127
6, 93260, Note_off_c, 4, 72, 127
6, 93264, Note_on_c, 4, 71, 127
6, 93356, Note_off_c, 4, 71, 127
6, 93360, Note_on_c, 4, 69, 127
6, 93548, Note_off_c, 4, 69, 127
6, 94968, Note_on_c, 4, 77, 100
6, 94988, Note_off_c, 4, 77, 100
6, 94992, Note_on_c, 4, 77, 100
6, 95012, Note_off_c, 4, 77, 100
6, 95016, Note_on_c, 4, 79, 100
6, 95036, Note_off_c, 4, 79, 100
6, 95040, Note_on_c, 4, 81, 100
6, 95060, Note_off_c, 4, 81, 100
6, 95064, Note_on_c, 4, 83, 100
6, 95084, Note_off_c, 4, 83, 100
6, 95088, Note_on_c, 4, 84, 100
6, 95108, Note_off_c, 4, 84, 100
6, 95112, Note_on_c, 4, 86, 100
6, 95132, Note_off_c, 4, 86, 100
6, 95136, Note_on_c, 4, 84, 100
6, 95156, Note_off_c, 4, 84, 100
6, 95160, Note_on_c, 4, 83, 100
6, 95180, Note_off_c, 4, 83, 100
6, 95184, Note_on_c, 4, 77, 100
6, 95204, Note_off_c, 4, 77, 100
6, 95208, Note_on_c, 4, 79, 100
6, 95228, Note_off_c, 4, 79, 100
6, 96528, Note_on_c, 4, 65, 127
6, 96572, Note_off_c, 4, 65, 127
6, 96576, Note_on_c, 4, 67, 127
6, 96620, Note_off_c, 4, 67, 127
6, 96624, Note_on_c, 4, 65, 127
6, 96716, Note_off_c, 4, 65, 127
6, 96720, Note_on_c, 4, 65, 127
6, 96764, Note_off_c, 4, 65, 127
6, 96768, Note_on_c, 4, 67, 127
6, 96812, Note_off_c, 4, 67, 127
6, 96816, Note_on_c, 4, 67, 127
6, 96860, Note_off_c, 4, 67, 127
6, 96864, Note_on_c, 4, 65, 127
6, 96908, Note_off_c, 4, 65, 127
6, 96912, Note_on_c, 4, 64, 127
6, 96956, Note_off_c, 4, 64, 127
6, 96960, Note_on_c, 4, 62, 127
6, 97004, Note_off_c, 4, 62, 127
6, 97008, Note_on_c, 4, 60, 127
6, 97100, Note_off_c, 4, 60, 127
6, 97104, Note_on_c, 4, 62, 127
6, 97148, Note_off_c, 4, 62, 127
6, 97152, Note_on_c, 4, 60, 127
6, 97196, Note_off_c, 4, 60, 127
6, 97200, Note_on_c, 4, 62, 127
6, 97244, Note_off_c, 4, 62, 127
6, 97248, Note_on_c, 4, 64, 127
6, 97292, Note_off_c, 4, 64, 127
6, 98640, Note_on_c, 4, 65, 127
6, 98684, Note_off_c, 4, 65, 127
6, 98688, Note_on_c, 4, 67, 127
6, 98732, Note_off_c, 4, 67, 127
6, 98736, Note_on_c, 4, 71, 127
6, 98828, Note_off_c, 4, 71, 127
6, 98832, Note_on_c, 4, 69, 127
6, 98876, Note_off_c, 4, 69, 127
6, 98880, Note_on_c, 4, 67, 127
6, 98924, Note_off_c, 4, 67, 127
6, 98928, Note_on_c, 4, 69, 127
6, 99020, Note_off_c, 4, 69, 127
6, 99024, Note_on_c, 4, 67, 127
6, 99068, Note_off_c, 4, 67, 127
6, 99072, Note_on_c, 4, 62, 127
6, 99116, Note_off_c, 4, 62, 127
6, 99120, Note_on_c, 4, 71, 127
6, 99164, Note_off_c, 4, 71, 127
6, 99168, Note_on_c, 4, 69, 127
6, 99212, Note_off_c, 4, 69, 127
6, 99216, Note_on_c, 4, 67, 127
6, 99260, Note_off_c, 4, 67, 127
6, 99264, Note_on_c, 4, 64, 127
6, 99356, Note_off_c, 4, 64, 127
6, 99360, Note_on_c, 4, 71, 127
6, 99404, Note_off_c, 4, 71, 127
6, 99408, Note_on_c, 4, 69, 127
6, 99452, Note_off_c, 4, 69, 127
6, 99456, Note_on_c, 4, 71, 127
6, 99500, Note_off_c, 4, 71, 127
6, 99504, Note_on_c, 4, 69, 127
6, 99596, Note_off_c, 4, 69, 127
6, 99600, Note_on_c, 4, 67, 127
6, 99692, Note_off_c, 4, 67, 127
6, 99696, Note_on_c, 4, 69, 127
6, 99716, Note_off_c, 4, 69, 127
6, 99720, Note_on_c, 4, 65, 127
6, 99740, Note_off_c, 4, 65, 127
6, 99744, Note_on_c, 4, 67, 127
6, 99764, Note_off_c, 4, 67, 127
6, 99768, Note_on_c, 4, 71, 127
6, 99812, Note_off_c, 4, 71, 127
6, 100104, Note_on_c, 4, 69, 127
6, 100148, Note_off_c, 4, 69, 127
6, 100152, Note_on_c, 4, 71, 127
6, 100196, Note_off_c, 4, 71, 127
6, 100200, Note_on_c, 4, 69, 127
6, 100292, Note_off_c, 4, 69, 127
6, 100296, Note_on_c, 4, 64, 127
6, 100316, Note_off_c, 4, 64, 127
6, 100320, Note_on_c, 4, 65, 127
6, 100412, Note_off_c, 4, 65, 127
6, 100416, Note_on_c, 4, 72, 127
6, 100436, Note_off_c, 4, 72, 127
6, 100440, Note_on_c, 4, 71, 127
6, 100484, Note_off_c, 4, 71, 127
6, 100488, Note_on_c, 4, 69, 127
6, 100532, Note_off_c, 4, 69, 127
6, 100536, Note_on_c, 4, 71, 127
6, 100560, Note_on_c, 4, 69, 127
6, 100580, Note_off_c, 4, 71, 127
6, 100584, Note_on_c, 4, 69, 127
6, 100604, Note_off_c, 4, 69, 127
6, 100676, Note_off_c, 4, 69, 127
6, 100680, Note_on_c, 4, 71, 127
6, 100772, Note_off_c, 4, 71, 127
6, 100776, Note_on_c, 4, 67, 127
6, 100796, Note_off_c, 4, 67, 127
6, 100800, Note_on_c, 4, 67, 127
6, 100844, Note_off_c, 4, 67, 127
6, 101616, Note_on_c, 4, 67, 127
6, 101660, Note_off_c, 4, 67, 127
6, 101664, Note_on_c, 4, 71, 127
6, 101708, Note_off_c, 4, 71, 127
6, 101712, Note_on_c, 4, 72, 127
6, 101756, Note_off_c, 4, 72, 127
6, 101760, Note_on_c, 4, 74, 127
6, 101804, Note_off_c, 4, 74, 127
6, 101808, Note_on_c, 4, 72, 127
6, 101852, Note_off_c, 4, 72, 127
6, 101856, Note_on_c, 4, 71, 127
6, 101900, Note_off_c, 4, 71, 127
6, 101904, Note_on_c, 4, 69, 127
6, 101948, Note_off_c, 4, 69, 127
6, 101952, Note_on_c, 4, 67, 127
6, 101996, Note_off_c, 4, 67, 127
6, 102000, Note_on_c, 4, 69, 127
6, 102044, Note_off_c, 4, 69, 127
6, 102048, Note_on_c, 4, 67, 127
6, 102092, Note_off_c, 4, 67, 127
6, 102096, Note_on_c, 4, 65, 127
6, 102140, Note_off_c, 4, 65, 127
6, 102144, Note_on_c, 4, 64, 127
6, 102236, Note_off_c, 4, 64, 127
6, 102240, Note_on_c, 4, 67, 127
6, 102284, Note_off_c, 4, 67, 127
6, 102288, Note_on_c, 4, 65, 127
6, 102332, Note_off_c, 4, 65, 127
6, 102336, Note_on_c, 4, 67, 127
6, 102380, Note_off_c, 4, 67, 127
6, 102384, Note_on_c, 4, 64, 127
6, 102428, Note_off_c, 4, 64, 127
6, 102432, Note_on_c, 4, 65, 127
6, 102524, Note_off_c, 4, 65, 127
6, 102528, Note_on_c, 4, 65, 127
6, 102548, Note_off_c, 4, 65, 127
6, 102552, Note_on_c, 4, 67, 127
6, 102572, Note_off_c, 4, 67, 127
6, 102576, Note_on_c, 4, 65, 127
6, 102620, Note_off_c, 4, 65, 127
6, 102624, Note_on_c, 4, 64, 127
6, 102716, Note_off_c, 4, 64, 127
6, 102720, Note_on_c, 4, 67, 127
6, 102764, Note_off_c, 4, 67, 127
6, 102768, Note_on_c, 4, 65, 127
6, 102812, Note_off_c, 4, 65, 127
6, 102816, Note_on_c, 4, 67, 127
6, 102860, Note_off_c, 4, 67, 127
6, 102864, Note_on_c, 4, 64, 127
6, 102908, Note_off_c, 4, 64, 127
6, 102912, Note_on_c, 4, 65, 127
6, 103004, Note_off_c, 4, 65, 127
6, 103008, Note_on_c, 4, 65, 127
6, 103028, Note_off_c, 4, 65, 127
6, 103296, Note_on_c, 4, 71, 100
6, 103340, Note_off_c, 4, 71, 100
6, 103344, Note_on_c, 4, 72, 100
6, 103388, Note_off_c, 4, 72, 100
6, 103392, Note_on_c, 4, 71, 100
6, 103436, Note_off_c, 4, 71, 100
6, 103440, Note_on_c, 4, 69, 100
6, 103484, Note_off_c, 4, 69, 100
6, 103488, Note_on_c, 4, 71, 100
6, 103532, Note_off_c, 4, 71, 100
6, 103536, Note_on_c, 4, 65, 100
6, 103580, Note_off_c, 4, 65, 100
6, 103584, Note_on_c, 4, 67, 100
6, 103628, Note_off_c, 4, 67, 100
6, 103632, Note_on_c, 4, 69, 100
6, 103724, Note_off_c, 4, 69, 100
6, 103728, Note_on_c, 4, 67, 100
6, 103820, Note_off_c, 4, 67, 100
6, 103824, Note_on_c, 4, 71, 100
6, 103844, Note_off_c, 4, 71, 100
6, 103848, Note_on_c, 4, 69, 100
6, 103872, Note_on_c, 4, 67, 100
6, 103892, Note_off_c, 4, 69, 100
6, 103916, Note_off_c, 4, 67, 100
6, 103920, Note_on_c, 4, 69, 100
6, 103964, Note_off_c, 4, 69, 100
6, 103968, Note_on_c, 4, 67, 100
6, 104060, Note_off_c, 4, 67, 100
6, 104064, Note_on_c, 4, 69, 100
6, 104108, Note_off_c, 4, 69, 100
6, 104112, Note_on_c, 4, 67, 100
6, 104156, Note_off_c, 4, 67, 100
6, 104160, Note_on_c, 4, 69, 100
6, 104204, Note_off_c, 4, 69, 100
6, 104208, Note_on_c, 4, 67, 100
6, 104252, Note_off_c, 4, 67, 100
6, 104640, Note_on_c, 4, 72, 100
6, 104924, Note_off_c, 4, 72, 100
6, 104928, Note_on_c, 4, 71, 100
6, 105020, Note_off_c, 4, 71, 100
6, 105024, Note_on_c, 4, 69, 100
6, 105068, Note_off_c, 4, 69, 100
6, 105072, Note_on_c, 4, 71, 100
6, 105116, Note_off_c, 4, 71, 100
6, 105120, Note_on_c, 4, 69, 100
6, 105164, Note_off_c, 4, 69, 100
6, 105168, Note_on_c, 4, 67, 100
6, 105212, Note_off_c, 4, 67, 100
6, 105216, Note_on_c, 4, 69, 100
6, 105260, Note_off_c, 4, 69, 100
6, 105264, Note_on_c, 4, 67, 100
6, 105308, Note_off_c, 4, 67, 100
6, 105312, Note_on_c, 4, 69, 100
6, 105356, Note_off_c, 4, 69, 100
6, 106008, Note_on_c, 4, 69, 127
6, 106052, Note_off_c, 4, 69, 127
6, 106056, Note_on_c, 4, 71, 127
6, 106100, Note_off_c, 4, 71, 127
6, 106104, Note_on_c, 4, 69, 127
6, 106148, Note_off_c, 4, 69, 127
6, 106152, Note_on_c, 4, 67, 127
6, 106244, Note_off_c, 4, 67, 127
6, 106248, Note_on_c, 4, 69, 127
6, 106340, Note_off_c, 4, 69, 127
6, 106344, Note_on_c, 4, 71, 127
6, 106532, Note_off_c, 4, 71, 127
6, 106536, Note_on_c, 4, 69, 127
6, 106580, Note_off_c, 4, 69, 127
6, 106584, Note_on_c, 4, 71, 127
6, 106628, Note_off_c, 4, 71, 127
6, 106632, Note_on_c, 4, 69, 127
6, 106724, Note_off_c, 4, 69, 127
6, 106728, Note_on_c, 4, 67, 127
6, 106820, Note_off_c, 4, 67, 127
6, 106824, Note_on_c, 4, 65, 127
6, 106868, Note_off_c, 4, 65, 127
6, 106872, Note_on_c, 4, 67, 127
6, 106916, Note_off_c, 4, 67, 127
6, 106920, Note_on_c, 4, 69, 127
6, 106964, Note_off_c, 4, 69, 127
6, 106968, Note_on_c, 4, 67, 127
6, 107348, Note_off_c, 4, 67, 127
6, 107352, Note_on_c, 4, 69, 127
6, 107396, Note_off_c, 4, 69, 127
6, 107400, Note_on_c, 4, 67, 127
6, 107420, Note_off_c, 4, 67, 127
6, 107424, Note_on_c, 4, 65, 127
6, 107492, Note_off_c, 4, 65, 127
6, 107496, Note_on_c, 4, 64, 127
6, 107516, Note_off_c, 4, 64, 127
6, 107520, Note_on_c, 4, 67, 127
6, 107564, Note_off_c, 4, 67, 127
6, 107568, Note_on_c, 4, 69, 127
6, 107660, Note_off_c, 4, 69, 127
6, 107664, Note_on_c, 4, 71, 127
6, 107708, Note_off_c, 4, 71, 127
6, 107712, Note_on_c, 4, 69, 127
6, 107804, Note_off_c, 4, 69, 127
6, 107904, Note_on_c, 4, 67, 100
6, 107948, Note_off_c, 4, 67, 100
6, 107952, Note_on_c, 4, 69, 100
6, 108044, Note_off_c, 4, 69, 100
6, 108048, Note_on_c, 4, 67, 100
6, 108140, Note_off_c, 4, 67, 100
6, 108144, Note_on_c, 4, 71, 100
6, 108164, Note_off_c, 4, 71, 100
6, 108168, Note_on_c, 4, 69, 100
6, 108192, Note_on_c, 4, 67, 100
6, 108212, Note_off_c, 4, 69, 100
6, 108236, Note_off_c, 4, 67, 100
6, 108240, Note_on_c, 4, 69, 100
6, 108284, Note_off_c, 4, 69, 100
6, 108288, Note_on_c, 4, 67, 100
6, 108380, Note_off_c, 4, 67, 100
6, 108384, Note_on_c, 4, 69, 100
6, 108428, Note_off_c, 4, 69, 100
6, 108432, Note_on_c, 4, 67, 100
6, 108476, Note_off_c, 4, 67, 100
6, 108624, Note_on_c, 4, 67, 127
6, 108668, Note_off_c, 4, 67, 127
6, 108672, Note_on_c, 4, 71, 127
6, 108716, Note_off_c, 4, 71, 127
6, 108720, Note_on_c, 4, 72, 127
6, 108764, Note_off_c, 4, 72, 127
6, 108768, Note_on_c, 4, 74, 127
6, 108812, Note_off_c, 4, 74, 127
6, 108816, Note_on_c, 4, 72, 127
6, 108860, Note_off_c, 4, 72, 127
6, 108864, Note_on_c, 4, 71, 127
6, 108908, Note_off_c, 4, 71, 127
6, 108912, Note_on_c, 4, 69, 127
6, 108956, Note_off_c, 4, 69, 127
6, 108960, Note_on_c, 4, 67, 127
6, 109004, Note_off_c, 4, 67, 127
6, 109008, Note_on_c, 4, 69, 127
6, 109052, Note_off_c, 4, 69, 127
6, 109056, Note_on_c, 4, 67, 127
6, 109100, Note_off_c, 4, 67, 127
6, 109104, Note_on_c, 4, 65, 127
6, 109148, Note_off_c, 4, 65, 127
6, 109152, Note_on_c, 4, 64, 127
6, 109244, Note_off_c, 4, 64, 127
6, 109248, Note_on_c, 4, 67, 127
6, 109292, Note_off_c, 4, 67, 127
6, 109296, Note_on_c, 4, 65, 127
6, 109340, Note_off_c, 4, 65, 127
6, 109344, Note_on_c, 4, 67, 127
6, 109388, Note_off_c, 4, 67, 127
6, 109392, Note_on_c, 4, 64, 127
6, 109436, Note_off_c, 4, 64, 127
6, 109440, Note_on_c, 4, 65, 127
6, 109532, Note_off_c, 4, 65, 127
6, 109536, Note_on_c, 4, 65, 127
6, 109556, Note_off_c, 4, 65, 127
6, 109560, Note_on_c, 4, 67, 127
6, 109580, Note_off_c, 4, 67, 127
6, 109584, Note_on_c, 4, 65, 127
6, 109604, Note_off_c, 4, 65, 127
6, 109608, Note_on_c, 4, 67, 127
6, 109628, Note_off_c, 4, 67, 127
6, 109632, Note_on_c, 4, 65, 127
6, 109724, Note_off_c, 4, 65, 127
6, 109824, Note_on_c, 4, 62, 127
6, 109868, Note_off_c, 4, 62, 127
6, 109872, Note_on_c, 4, 71, 127
6, 109916, Note_off_c, 4, 71, 127
6, 109920, Note_on_c, 4, 69, 127
6, 109964, Note_off_c, 4, 69, 127
6, 109968, Note_on_c, 4, 67, 127
6, 110012, Note_off_c, 4, 67, 127
6, 110016, Note_on_c, 4, 64, 127
6, 110108, Note_off_c, 4, 64, 127
6, 110112, Note_on_c, 4, 71, 127
6, 110156, Note_off_c, 4, 71, 127
6, 110160, Note_on_c, 4, 69, 127
6, 110204, Note_off_c, 4, 69, 127
6, 110208, Note_on_c, 4, 71, 127
6, 110252, Note_off_c, 4, 71, 127
6, 110256, Note_on_c, 4, 69, 127
6, 110348, Note_off_c, 4, 69, 127
6, 110352, Note_on_c, 4, 67, 127
6, 110444, Note_off_c, 4, 67, 127
6, 110496, Note_on_c, 4, 69, 100
6, 110876, Note_off_c, 4, 69, 100
6, 110876, End_track
7, 0, Start_track
7, 0, Title_t, "Drums"
7, 0, Key_signature, 0, "major"
7, 0, Note_on_c, 9, 46, 127
7, 0, Note_on_c, 9, 54, 127
7, 88, Note_off_c, 9, 46, 127
7, 88, Note_off_c, 9, 54, 127
7, 192, Note_on_c, 9, 46, 127
7, 192, Note_on_c, 9, 54, 127
7, 280, Note_off_c, 9, 46, 127
7, 280, Note_off_c, 9, 54, 127
7, 288, Note_on_c, 9, 46, 127
7, 288, Note_on_c, 9, 54, 127
7, 376, Note_off_c, 9, 46, 127
7, 376, Note_off_c, 9, 54, 127
7, 384, Note_on_c, 9, 46, 127
7, 384, Note_on_c, 9, 35, 127
7, 384, Note_on_c, 9, 41, 127
7, 384, Note_on_c, 9, 40, 127
7, 384, Note_on_c, 9, 54, 127
7, 472, Note_off_c, 9, 46, 127
7, 472, Note_off_c, 9, 54, 127
7, 576, Note_on_c, 9, 46, 127
7, 576, Note_on_c, 9, 54, 127
7, 664, Note_off_c, 9, 46, 127
7, 664, Note_off_c, 9, 54, 127
7, 672, Note_on_c, 9, 46, 127
7, 672, Note_on_c, 9, 54, 127
7, 748, Note_off_c, 9, 35, 127
7, 748, Note_off_c, 9, 41, 127
7, 748, Note_off_c, 9, 40, 127
7, 760, Note_off_c, 9, 46, 127
7, 760, Note_off_c, 9, 54, 127
7, 768, Note_on_c, 9, 46, 127
7, 768, Note_on_c, 9, 54, 127
7, 856, Note_off_c, 9, 46, 127
7, 856, Note_off_c, 9, 54, 127
7, 960, Note_on_c, 9, 46, 127
7, 960, Note_on_c, 9, 54, 127
7, 1048, Note_off_c, 9, 46, 127
7, 1048, Note_off_c, 9, 54, 127
7, 1056, Note_on_c, 9, 46, 127
7, 1056, Note_on_c, 9, 54, 127
7, 1144, Note_off_c, 9, 46, 127
7, 1144, Note_off_c, 9, 54, 127
7, 1152, Note_on_c, 9, 46, 127
7, 1152, Note_on_c, 9, 35, 127
7, 1152, Note_on_c, 9, 41, 127
7, 1152, Note_on_c, 9, 40, 127
7, 1152, Note_on_c, 9, 54, 127
7, 1240, Note_off_c, 9, 46, 127
7, 1240, Note_off_c, 9, 54, 127
7, 1344, Note_on_c, 9, 46, 127
7, 1344, Note_on_c, 9, 54, 127
7, 1432, Note_off_c, 9, 46, 127
7, 1432, Note_off_c, 9, 54, 127
7, 1440, Note_on_c, 9, 46, 127
7, 1440, Note_on_c, 9, 54, 127
7, 1516, Note_off_c, 9, 35, 127
7, 1516, Note_off_c, 9, 41, 127
7, 1516, Note_off_c, 9, 40, 127
7, 1528, Note_off_c, 9, 46, 127
7, 1528, Note_off_c, 9, 54, 127
7, 1536, Note_on_c, 9, 46, 127
7, 1536, Note_on_c, 9, 54, 127
7, 1624, Note_off_c, 9, 46, 127
7, 1624, Note_off_c, 9, 54, 127
7, 1632, Note_on_c, 9, 54, 127
7, 1720, Note_off_c, 9, 54, 127
7, 1728, Note_on_c, 9, 46, 127
7, 1728, Note_on_c, 9, 54, 127
7, 1816, Note_off_c, 9, 46, 127
7, 1816, Note_off_c, 9, 54, 127
7, 1824, Note_on_c, 9, 46, 127
7, 1824, Note_on_c, 9, 54, 127
7, 1912, Note_off_c, 9, 46, 127
7, 1912, Note_off_c, 9, 54, 127
7, 1920, Note_on_c, 9, 46, 127
7, 1920, Note_on_c, 9, 35, 127
7, 1920, Note_on_c, 9, 41, 127
7, 1920, Note_on_c, 9, 40, 127
7, 1920, Note_on_c, 9, 54, 127
7, 2008, Note_off_c, 9, 46, 127
7, 2008, Note_off_c, 9, 54, 127
7, 2016, Note_on_c, 9, 54, 127
7, 2104, Note_off_c, 9, 54, 127
7, 2112, Note_on_c, 9, 46, 127
7, 2112, Note_on_c, 9, 54, 127
7, 2200, Note_off_c, 9, 46, 127
7, 2200, Note_off_c, 9, 54, 127
7, 2208, Note_on_c, 9, 46, 127
7, 2208, Note_on_c, 9, 54, 127
7, 2284, Note_off_c, 9, 35, 127
7, 2284, Note_off_c, 9, 41, 127
7, 2284, Note_off_c, 9, 40, 127
7, 2296, Note_off_c, 9, 46, 127
7, 2296, Note_off_c, 9, 54, 127
7, 2304, Note_on_c, 9, 46, 127
7, 2304, Note_on_c, 9, 54, 127
7, 2392, Note_off_c, 9, 46, 127
7, 2392, Note_off_c, 9, 54, 127
7, 2400, Note_on_c, 9, 54, 127
7, 2488, Note_off_c, 9, 54, 127
7, 2496, Note_on_c, 9, 46, 127
7, 2496, Note_on_c, 9, 54, 127
7, 2584, Note_off_c, 9, 46, 127
7, 2584, Note_off_c, 9, 54, 127
7, 2592, Note_on_c, 9, 46, 127
7, 2592, Note_on_c, 9, 54, 127
7, 2680, Note_off_c, 9, 46, 127
7, 2680, Note_off_c, 9, 54, 127
7, 2688, Note_on_c, 9, 46, 127
7, 2688, Note_on_c, 9, 35, 127
7, 2688, Note_on_c, 9, 41, 127
7, 2688, Note_on_c, 9, 40, 127
7, 2688, Note_on_c, 9, 54, 127
7, 2776, Note_off_c, 9, 46, 127
7, 2776, Note_off_c, 9, 54, 127
7, 2784, Note_on_c, 9, 54, 127
7, 2872, Note_off_c, 9, 54, 127
7, 2880, Note_on_c, 9, 46, 127
7, 2880, Note_on_c, 9, 54, 127
7, 2968, Note_off_c, 9, 46, 127
7, 2968, Note_off_c, 9, 54, 127
7, 2976, Note_on_c, 9, 46, 127
7, 2976, Note_on_c, 9, 54, 127
7, 3052, Note_off_c, 9, 35, 127
7, 3052, Note_off_c, 9, 41, 127
7, 3052, Note_off_c, 9, 40, 127
7, 3064, Note_off_c, 9, 46, 127
7, 3064, Note_off_c, 9, 54, 127
7, 3072, Note_on_c, 9, 46, 127
7, 3072, Note_on_c, 9, 54, 127
7, 3160, Note_off_c, 9, 46, 127
7, 3160, Note_off_c, 9, 54, 127
7, 3168, Note_on_c, 9, 54, 127
7, 3256, Note_off_c, 9, 54, 127
7, 3264, Note_on_c, 9, 46, 127
7, 3264, Note_on_c, 9, 54, 127
7, 3352, Note_off_c, 9, 46, 127
7, 3352, Note_off_c, 9, 54, 127
7, 3360, Note_on_c, 9, 46, 127
7, 3360, Note_on_c, 9, 54, 127
7, 3448, Note_off_c, 9, 46, 127
7, 3448, Note_off_c, 9, 54, 127
7, 3456, Note_on_c, 9, 46, 127
7, 3456, Note_on_c, 9, 35, 127
7, 3456, Note_on_c, 9, 41, 127
7, 3456, Note_on_c, 9, 40, 127
7, 3456, Note_on_c, 9, 54, 127
7, 3544, Note_off_c, 9, 46, 127
7, 3544, Note_off_c, 9, 54, 127
7, 3552, Note_on_c, 9, 54, 127
7, 3640, Note_off_c, 9, 54, 127
7, 3648, Note_on_c, 9, 46, 127
7, 3648, Note_on_c, 9, 54, 127
7, 3736, Note_off_c, 9, 46, 127
7, 3736, Note_off_c, 9, 54, 127
7, 3744, Note_on_c, 9, 46, 127
7, 3744, Note_on_c, 9, 54, 127
7, 3820, Note_off_c, 9, 35, 127
7, 3820, Note_off_c, 9, 41, 127
7, 3820, Note_off_c, 9, 40, 127
7, 3832, Note_off_c, 9, 46, 127
7, 3832, Note_off_c, 9, 54, 127
7, 3840, Note_on_c, 9, 46, 127
7, 3840, Note_on_c, 9, 54, 127
7, 3928, Note_off_c, 9, 46, 127
7, 3928, Note_off_c, 9, 54, 127
7, 3936, Note_on_c, 9, 54, 127
7, 4024, Note_off_c, 9, 54, 127
7, 4032, Note_on_c, 9, 46, 127
7, 4032, Note_on_c, 9, 54, 127
7, 4120, Note_off_c, 9, 46, 127
7, 4120, Note_off_c, 9, 54, 127
7, 4128, Note_on_c, 9, 46, 127
7, 4128, Note_on_c, 9, 54, 127
7, 4216, Note_off_c, 9, 46, 127
7, 4216, Note_off_c, 9, 54, 127
7, 4224, Note_on_c, 9, 46, 127
7, 4224, Note_on_c, 9, 35, 127
7, 4224, Note_on_c, 9, 41, 127
7, 4224, Note_on_c, 9, 40, 127
7, 4224, Note_on_c, 9, 54, 127
7, 4312, Note_off_c, 9, 46, 127
7, 4312, Note_off_c, 9, 54, 127
7, 4320, Note_on_c, 9, 54, 127
7, 4408, Note_off_c, 9, 54, 127
7, 4416, Note_on_c, 9, 46, 127
7, 4416, Note_on_c, 9, 54, 127
7, 4504, Note_off_c, 9, 46, 127
7, 4504, Note_off_c, 9, 54, 127
7, 4512, Note_on_c, 9, 46, 127
7, 4512, Note_on_c, 9, 54, 127
7, 4588, Note_off_c, 9, 35, 127
7, 4588, Note_off_c, 9, 41, 127
7, 4588, Note_off_c, 9, 40, 127
7, 4600, Note_off_c, 9, 46, 127
7, 4600, Note_off_c, 9, 54, 127
7, 4608, Note_on_c, 9, 46, 127
7, 4608, Note_on_c, 9, 54, 127
7, 4696, Note_off_c, 9, 46, 127
7, 4696, Note_off_c, 9, 54, 127
7, 4704, Note_on_c, 9, 46, 127
7, 4704, Note_on_c, 9, 54, 127
7, 4792, Note_off_c, 9, 46, 127
7, 4792, Note_off_c, 9, 54, 127
7, 4800, Note_on_c, 9, 46, 127
7, 4800, Note_on_c, 9, 54, 127
7, 4888, Note_off_c, 9, 46, 127
7, 4888, Note_off_c, 9, 54, 127
7, 4896, Note_on_c, 9, 46, 127
7, 4896, Note_on_c, 9, 54, 127
7, 4984, Note_off_c, 9, 46, 127
7, 4984, Note_off_c, 9, 54, 127
7, 4992, Note_on_c, 9, 46, 127
7, 4992, Note_on_c, 9, 35, 127
7, 4992, Note_on_c, 9, 41, 127
7, 4992, Note_on_c, 9, 40, 127
7, 4992, Note_on_c, 9, 54, 127
7, 5080, Note_off_c, 9, 46, 127
7, 5080, Note_off_c, 9, 54, 127
7, 5088, Note_on_c, 9, 46, 127
7, 5088, Note_on_c, 9, 54, 127
7, 5176, Note_off_c, 9, 46, 127
7, 5176, Note_off_c, 9, 54, 127
7, 5184, Note_on_c, 9, 46, 127
7, 5184, Note_on_c, 9, 54, 127
7, 5272, Note_off_c, 9, 46, 127
7, 5272, Note_off_c, 9, 54, 127
7, 5280, Note_on_c, 9, 46, 127
7, 5280, Note_on_c, 9, 54, 127
7, 5356, Note_off_c, 9, 35, 127
7, 5356, Note_off_c, 9, 41, 127
7, 5356, Note_off_c, 9, 40, 127
7, 5368, Note_off_c, 9, 46, 127
7, 5368, Note_off_c, 9, 54, 127
7, 5376, Note_on_c, 9, 46, 127
7, 5376, Note_on_c, 9, 49, 127
7, 5376, Note_on_c, 9, 54, 127
7, 5464, Note_off_c, 9, 46, 127
7, 5464, Note_off_c, 9, 54, 127
7, 5472, Note_on_c, 9, 46, 127
7, 5472, Note_on_c, 9, 54, 127
7, 5560, Note_off_c, 9, 46, 127
7, 5560, Note_off_c, 9, 54, 127
7, 5568, Note_on_c, 9, 46, 127
7, 5568, Note_on_c, 9, 50, 127
7, 5568, Note_on_c, 9, 40, 127
7, 5568, Note_on_c, 9, 54, 127
7, 5656, Note_off_c, 9, 46, 127
7, 5656, Note_off_c, 9, 54, 127
7, 5664, Note_on_c, 9, 46, 127
7, 5664, Note_on_c, 9, 50, 127
7, 5664, Note_on_c, 9, 40, 127
7, 5664, Note_on_c, 9, 54, 127
7, 5740, Note_off_c, 9, 49, 127
7, 5748, Note_off_c, 9, 50, 127
7, 5748, Note_off_c, 9, 40, 127
7, 5752, Note_off_c, 9, 46, 127
7, 5752, Note_off_c, 9, 54, 127
7, 5760, Note_on_c, 9, 46, 127
7, 5760, Note_on_c, 9, 35, 127
7, 5760, Note_on_c, 9, 41, 127
7, 5760, Note_on_c, 9, 40, 127
7, 5760, Note_on_c, 9, 48, 127
7, 5760, Note_on_c, 9, 38, 127
7, 5760, Note_on_c, 9, 54, 127
7, 5844, Note_off_c, 9, 50, 127
7, 5844, Note_off_c, 9, 40, 127
7, 5848, Note_off_c, 9, 46, 127
7, 5848, Note_off_c, 9, 54, 127
7, 5856, Note_on_c, 9, 50, 127
7, 5856, Note_on_c, 9, 38, 127
7, 5856, Note_on_c, 9, 54, 127
7, 5940, Note_off_c, 9, 48, 127
7, 5940, Note_off_c, 9, 38, 127
7, 5944, Note_off_c, 9, 54, 127
7, 5952, Note_on_c, 9, 46, 127
7, 5952, Note_on_c, 9, 50, 127
7, 5952, Note_on_c, 9, 40, 127
7, 5952, Note_on_c, 9, 54, 127
7, 6036, Note_off_c, 9, 50, 127
7, 6036, Note_off_c, 9, 38, 127
7, 6040, Note_off_c, 9, 46, 127
7, 6040, Note_off_c, 9, 54, 127
7, 6048, Note_on_c, 9, 54, 127
7, 6124, Note_off_c, 9, 35, 127
7, 6124, Note_off_c, 9, 41, 127
7, 6124, Note_off_c, 9, 40, 127
7, 6132, Note_off_c, 9, 40, 127
7, 6136, Note_off_c, 9, 54, 127
7, 6144, Note_on_c, 9, 46, 127
7, 6144, Note_on_c, 9, 54, 127
7, 6232, Note_off_c, 9, 46, 127
7, 6232, Note_off_c, 9, 54, 127
7, 6240, Note_on_c, 9, 54, 127
7, 6316, Note_off_c, 9, 50, 127
7, 6328, Note_off_c, 9, 54, 127
7, 6336, Note_on_c, 9, 46, 127
7, 6336, Note_on_c, 9, 54, 127
7, 6424, Note_off_c, 9, 46, 127
7, 6424, Note_off_c, 9, 54, 127
7, 6432, Note_on_c, 9, 46, 127
7, 6432, Note_on_c, 9, 54, 127
7, 6520, Note_off_c, 9, 46, 127
7, 6520, Note_off_c, 9, 54, 127
7, 6528, Note_on_c, 9, 46, 127
7, 6528, Note_on_c, 9, 35, 127
7, 6528, Note_on_c, 9, 41, 127
7, 6528, Note_on_c, 9, 40, 127
7, 6528, Note_on_c, 9, 39, 127
7, 6528, Note_on_c, 9, 54, 127
7, 6616, Note_off_c, 9, 46, 127
7, 6616, Note_off_c, 9, 54, 127
7, 6624, Note_on_c, 9, 54, 127
7, 6708, Note_off_c, 9, 39, 127
7, 6712, Note_off_c, 9, 54, 127
7, 6720, Note_on_c, 9, 46, 127
7, 6720, Note_on_c, 9, 54, 127
7, 6808, Note_off_c, 9, 46, 127
7, 6808, Note_off_c, 9, 54, 127
7, 6816, Note_on_c, 9, 46, 127
7, 6816, Note_on_c, 9, 54, 127
7, 6892, Note_off_c, 9, 35, 127
7, 6892, Note_off_c, 9, 41, 127
7, 6892, Note_off_c, 9, 40, 127
7, 6904, Note_off_c, 9, 46, 127
7, 6904, Note_off_c, 9, 54, 127
7, 6912, Note_on_c, 9, 46, 127
7, 6912, Note_on_c, 9, 54, 127
7, 7000, Note_off_c, 9, 46, 127
7, 7000, Note_off_c, 9, 54, 127
7, 7008, Note_on_c, 9, 54, 127
7, 7096, Note_off_c, 9, 54, 127
7, 7104, Note_on_c, 9, 46, 127
7, 7104, Note_on_c, 9, 54, 127
7, 7192, Note_off_c, 9, 46, 127
7, 7192, Note_off_c, 9, 54, 127
7, 7200, Note_on_c, 9, 46, 127
7, 7200, Note_on_c, 9, 54, 127
7, 7288, Note_off_c, 9, 46, 127
7, 7288, Note_off_c, 9, 54, 127
7, 7296, Note_on_c, 9, 46, 127
7, 7296, Note_on_c, 9, 35, 127
7, 7296, Note_on_c, 9, 41, 127
7, 7296, Note_on_c, 9, 40, 127
7, 7296, Note_on_c, 9, 39, 127
7, 7296, Note_on_c, 9, 54, 127
7, 7384, Note_off_c, 9, 46, 127
7, 7384, Note_off_c, 9, 54, 127
7, 7392, Note_on_c, 9, 54, 127
7, 7476, Note_off_c, 9, 39, 127
7, 7480, Note_off_c, 9, 54, 127
7, 7488, Note_on_c, 9, 46, 127
7, 7488, Note_on_c, 9, 54, 127
7, 7576, Note_off_c, 9, 46, 127
7, 7576, Note_off_c, 9, 54, 127
7, 7584, Note_on_c, 9, 46, 127
7, 7584, Note_on_c, 9, 54, 127
7, 7660, Note_off_c, 9, 35, 127
7, 7660, Note_off_c, 9, 41, 127
7, 7660, Note_off_c, 9, 40, 127
7, 7672, Note_off_c, 9, 46, 127
7, 7672, Note_off_c, 9, 54, 127
7, 7680, Note_on_c, 9, 46, 127
7, 7680, Note_on_c, 9, 54, 127
7, 7768, Note_off_c, 9, 46, 127
7, 7768, Note_off_c, 9, 54, 127
7, 7776, Note_on_c, 9, 54, 127
7, 7864, Note_off_c, 9, 54, 127
7, 7872, Note_on_c, 9, 46, 127
7, 7872, Note_on_c, 9, 54, 127
7, 7960, Note_off_c, 9, 46, 127
7, 7960, Note_off_c, 9, 54, 127
7, 7968, Note_on_c, 9, 46, 127
7, 7968, Note_on_c, 9, 54, 127
7, 8056, Note_off_c, 9, 46, 127
7, 8056, Note_off_c, 9, 54, 127
7, 8064, Note_on_c, 9, 46, 127
7, 8064, Note_on_c, 9, 35, 127
7, 8064, Note_on_c, 9, 41, 127
7, 8064, Note_on_c, 9, 40, 127
7, 8064, Note_on_c, 9, 39, 127
7, 8064, Note_on_c, 9, 54, 127
7, 8152, Note_off_c, 9, 46, 127
7, 8152, Note_off_c, 9, 54, 127
7, 8160, Note_on_c, 9, 54, 127
7, 8244, Note_off_c, 9, 39, 127
7, 8248, Note_off_c, 9, 54, 127
7, 8256, Note_on_c, 9, 46, 127
7, 8256, Note_on_c, 9, 54, 127
7, 8344, Note_off_c, 9, 46, 127
7, 8344, Note_off_c, 9, 54, 127
7, 8352, Note_on_c, 9, 46, 127
7, 8352, Note_on_c, 9, 54, 127
7, 8428, Note_off_c, 9, 35, 127
7, 8428, Note_off_c, 9, 41, 127
7, 8428, Note_off_c, 9, 40, 127
7, 8440, Note_off_c, 9, 46, 127
7, 8440, Note_off_c, 9, 54, 127
7, 8448, Note_on_c, 9, 46, 127
7, 8448, Note_on_c, 9, 54, 127
7, 8536, Note_off_c, 9, 46, 127
7, 8536, Note_off_c, 9, 54, 127
7, 8544, Note_on_c, 9, 54, 127
7, 8632, Note_off_c, 9, 54, 127
7, 8640, Note_on_c, 9, 46, 127
7, 8640, Note_on_c, 9, 54, 127
7, 8728, Note_off_c, 9, 46, 127
7, 8728, Note_off_c, 9, 54, 127
7, 8736, Note_on_c, 9, 46, 127
7, 8736, Note_on_c, 9, 54, 127
7, 8824, Note_off_c, 9, 46, 127
7, 8824, Note_off_c, 9, 54, 127
7, 8832, Note_on_c, 9, 46, 127
7, 8832, Note_on_c, 9, 35, 127
7, 8832, Note_on_c, 9, 41, 127
7, 8832, Note_on_c, 9, 40, 127
7, 8832, Note_on_c, 9, 39, 127
7, 8832, Note_on_c, 9, 54, 127
7, 8920, Note_off_c, 9, 46, 127
7, 8920, Note_off_c, 9, 54, 127
7, 8928, Note_on_c, 9, 54, 127
7, 9012, Note_off_c, 9, 39, 127
7, 9016, Note_off_c, 9, 54, 127
7, 9024, Note_on_c, 9, 46, 127
7, 9024, Note_on_c, 9, 54, 127
7, 9112, Note_off_c, 9, 46, 127
7, 9112, Note_off_c, 9, 54, 127
7, 9120, Note_on_c, 9, 46, 127
7, 9120, Note_on_c, 9, 54, 127
7, 9196, Note_off_c, 9, 35, 127
7, 9196, Note_off_c, 9, 41, 127
7, 9196, Note_off_c, 9, 40, 127
7, 9208, Note_off_c, 9, 46, 127
7, 9208, Note_off_c, 9, 54, 127
7, 9216, Note_on_c, 9, 46, 127
7, 9216, Note_on_c, 9, 54, 127
7, 9304, Note_off_c, 9, 46, 127
7, 9304, Note_off_c, 9, 54, 127
7, 9312, Note_on_c, 9, 54, 127
7, 9400, Note_off_c, 9, 54, 127
7, 9408, Note_on_c, 9, 46, 127
7, 9408, Note_on_c, 9, 54, 127
7, 9496, Note_off_c, 9, 46, 127
7, 9496, Note_off_c, 9, 54, 127
7, 9504, Note_on_c, 9, 46, 127
7, 9504, Note_on_c, 9, 54, 127
7, 9592, Note_off_c, 9, 46, 127
7, 9592, Note_off_c, 9, 54, 127
7, 9600, Note_on_c, 9, 46, 127
7, 9600, Note_on_c, 9, 35, 127
7, 9600, Note_on_c, 9, 41, 127
7, 9600, Note_on_c, 9, 40, 127
7, 9600, Note_on_c, 9, 39, 127
7, 9600, Note_on_c, 9, 54, 127
7, 9688, Note_off_c, 9, 46, 127
7, 9688, Note_off_c, 9, 54, 127
7, 9696, Note_on_c, 9, 54, 127
7, 9780, Note_off_c, 9, 39, 127
7, 9784, Note_off_c, 9, 54, 127
7, 9792, Note_on_c, 9, 46, 127
7, 9792, Note_on_c, 9, 54, 127
7, 9880, Note_off_c, 9, 46, 127
7, 9880, Note_off_c, 9, 54, 127
7, 9888, Note_on_c, 9, 46, 127
7, 9888, Note_on_c, 9, 54, 127
7, 9964, Note_off_c, 9, 35, 127
7, 9964, Note_off_c, 9, 41, 127
7, 9964, Note_off_c, 9, 40, 127
7, 9976, Note_off_c, 9, 46, 127
7, 9976, Note_off_c, 9, 54, 127
7, 9984, Note_on_c, 9, 46, 127
7, 9984, Note_on_c, 9, 54, 127
7, 10072, Note_off_c, 9, 46, 127
7, 10072, Note_off_c, 9, 54, 127
7, 10080, Note_on_c, 9, 54, 127
7, 10168, Note_off_c, 9, 54, 127
7, 10176, Note_on_c, 9, 46, 127
7, 10176, Note_on_c, 9, 54, 127
7, 10264, Note_off_c, 9, 46, 127
7, 10264, Note_off_c, 9, 54, 127
7, 10272, Note_on_c, 9, 46, 127
7, 10272, Note_on_c, 9, 54, 127
7, 10360, Note_off_c, 9, 46, 127
7, 10360, Note_off_c, 9, 54, 127
7, 10368, Note_on_c, 9, 46, 127
7, 10368, Note_on_c, 9, 35, 127
7, 10368, Note_on_c, 9, 41, 127
7, 10368, Note_on_c, 9, 40, 127
7, 10368, Note_on_c, 9, 39, 127
7, 10368, Note_on_c, 9, 54, 127
7, 10456, Note_off_c, 9, 46, 127
7, 10456, Note_off_c, 9, 54, 127
7, 10464, Note_on_c, 9, 54, 127
7, 10548, Note_off_c, 9, 39, 127
7, 10552, Note_off_c, 9, 54, 127
7, 10560, Note_on_c, 9, 46, 127
7, 10560, Note_on_c, 9, 54, 127
7, 10648, Note_off_c, 9, 46, 127
7, 10648, Note_off_c, 9, 54, 127
7, 10656, Note_on_c, 9, 46, 127
7, 10656, Note_on_c, 9, 54, 127
7, 10732, Note_off_c, 9, 35, 127
7, 10732, Note_off_c, 9, 41, 127
7, 10732, Note_off_c, 9, 40, 127
7, 10744, Note_off_c, 9, 46, 127
7, 10744, Note_off_c, 9, 54, 127
7, 10752, Note_on_c, 9, 46, 127
7, 10752, Note_on_c, 9, 54, 127
7, 10840, Note_off_c, 9, 46, 127
7, 10840, Note_off_c, 9, 54, 127
7, 10848, Note_on_c, 9, 54, 127
7, 10936, Note_off_c, 9, 54, 127
7, 10944, Note_on_c, 9, 46, 127
7, 10944, Note_on_c, 9, 54, 127
7, 11032, Note_off_c, 9, 46, 127
7, 11032, Note_off_c, 9, 54, 127
7, 11040, Note_on_c, 9, 46, 127
7, 11040, Note_on_c, 9, 54, 127
7, 11128, Note_off_c, 9, 46, 127
7, 11128, Note_off_c, 9, 54, 127
7, 11136, Note_on_c, 9, 46, 127
7, 11136, Note_on_c, 9, 35, 127
7, 11136, Note_on_c, 9, 41, 127
7, 11136, Note_on_c, 9, 40, 127
7, 11136, Note_on_c, 9, 39, 127
7, 11136, Note_on_c, 9, 54, 127
7, 11224, Note_off_c, 9, 46, 127
7, 11224, Note_off_c, 9, 54, 127
7, 11232, Note_on_c, 9, 54, 127
7, 11316, Note_off_c, 9, 39, 127
7, 11320, Note_off_c, 9, 54, 127
7, 11328, Note_on_c, 9, 46, 127
7, 11328, Note_on_c, 9, 54, 127
7, 11416, Note_off_c, 9, 46, 127
7, 11416, Note_off_c, 9, 54, 127
7, 11424, Note_on_c, 9, 46, 127
7, 11424, Note_on_c, 9, 54, 127
7, 11500, Note_off_c, 9, 35, 127
7, 11500, Note_off_c, 9, 41, 127
7, 11500, Note_off_c, 9, 40, 127
7, 11512, Note_off_c, 9, 46, 127
7, 11512, Note_off_c, 9, 54, 127
7, 11520, Note_on_c, 9, 46, 127
7, 11520, Note_on_c, 9, 54, 127
7, 11608, Note_off_c, 9, 46, 127
7, 11608, Note_off_c, 9, 54, 127
7, 11616, Note_on_c, 9, 54, 127
7, 11704, Note_off_c, 9, 54, 127
7, 11712, Note_on_c, 9, 46, 127
7, 11712, Note_on_c, 9, 54, 127
7, 11800, Note_off_c, 9, 46, 127
7, 11800, Note_off_c, 9, 54, 127
7, 11808, Note_on_c, 9, 46, 127
7, 11808, Note_on_c, 9, 54, 127
7, 11896, Note_off_c, 9, 46, 127
7, 11896, Note_off_c, 9, 54, 127
7, 11904, Note_on_c, 9, 46, 127
7, 11904, Note_on_c, 9, 35, 127
7, 11904, Note_on_c, 9, 41, 127
7, 11904, Note_on_c, 9, 40, 127
7, 11904, Note_on_c, 9, 39, 127
7, 11904, Note_on_c, 9, 54, 127
7, 11992, Note_off_c, 9, 46, 127
7, 11992, Note_off_c, 9, 54, 127
7, 12000, Note_on_c, 9, 54, 127
7, 12084, Note_off_c, 9, 39, 127
7, 12088, Note_off_c, 9, 54, 127
7, 12096, Note_on_c, 9, 46, 127
7, 12096, Note_on_c, 9, 54, 127
7, 12184, Note_off_c, 9, 46, 127
7, 12184, Note_off_c, 9, 54, 127
7, 12192, Note_on_c, 9, 46, 127
7, 12192, Note_on_c, 9, 54, 127
7, 12268, Note_off_c, 9, 35, 127
7, 12268, Note_off_c, 9, 41, 127
7, 12268, Note_off_c, 9, 40, 127
7, 12280, Note_off_c, 9, 46, 127
7, 12280, Note_off_c, 9, 54, 127
7, 12288, Note_on_c, 9, 50, 127
7, 12288, Note_on_c, 9, 46, 127
7, 12288, Note_on_c, 9, 54, 127
7, 12376, Note_off_c, 9, 46, 127
7, 12376, Note_off_c, 9, 54, 127
7, 12384, Note_on_c, 9, 54, 127
7, 12460, Note_off_c, 9, 50, 127
7, 12472, Note_off_c, 9, 54, 127
7, 12480, Note_on_c, 9, 46, 127
7, 12480, Note_on_c, 9, 54, 127
7, 12568, Note_off_c, 9, 46, 127
7, 12568, Note_off_c, 9, 54, 127
7, 12576, Note_on_c, 9, 46, 127
7, 12576, Note_on_c, 9, 54, 127
7, 12664, Note_off_c, 9, 46, 127
7, 12664, Note_off_c, 9, 54, 127
7, 12672, Note_on_c, 9, 46, 127
7, 12672, Note_on_c, 9, 35, 127
7, 12672, Note_on_c, 9, 41, 127
7, 12672, Note_on_c, 9, 40, 127
7, 12672, Note_on_c, 9, 39, 127
7, 12672, Note_on_c, 9, 54, 127
7, 12760, Note_off_c, 9, 46, 127
7, 12760, Note_off_c, 9, 54, 127
7, 12768, Note_on_c, 9, 54, 127
7, 12852, Note_off_c, 9, 39, 127
7, 12856, Note_off_c, 9, 54, 127
7, 12864, Note_on_c, 9, 46, 127
7, 12864, Note_on_c, 9, 54, 127
7, 12952, Note_off_c, 9, 46, 127
7, 12952, Note_off_c, 9, 54, 127
7, 12960, Note_on_c, 9, 46, 127
7, 12960, Note_on_c, 9, 54, 127
7, 13036, Note_off_c, 9, 35, 127
7, 13036, Note_off_c, 9, 41, 127
7, 13036, Note_off_c, 9, 40, 127
7, 13048, Note_off_c, 9, 46, 127
7, 13048, Note_off_c, 9, 54, 127
7, 13056, Note_on_c, 9, 46, 127
7, 13056, Note_on_c, 9, 54, 127
7, 13144, Note_off_c, 9, 46, 127
7, 13144, Note_off_c, 9, 54, 127
7, 13152, Note_on_c, 9, 54, 127
7, 13240, Note_off_c, 9, 54, 127
7, 13248, Note_on_c, 9, 46, 127
7, 13248, Note_on_c, 9, 54, 127
7, 13336, Note_off_c, 9, 46, 127
7, 13336, Note_off_c, 9, 54, 127
7, 13344, Note_on_c, 9, 46, 127
7, 13344, Note_on_c, 9, 54, 127
7, 13432, Note_off_c, 9, 46, 127
7, 13432, Note_off_c, 9, 54, 127
7, 13440, Note_on_c, 9, 46, 127
7, 13440, Note_on_c, 9, 35, 127
7, 13440, Note_on_c, 9, 41, 127
7, 13440, Note_on_c, 9, 40, 127
7, 13440, Note_on_c, 9, 39, 127
7, 13440, Note_on_c, 9, 54, 127
7, 13528, Note_off_c, 9, 46, 127
7, 13528, Note_off_c, 9, 54, 127
7, 13536, Note_on_c, 9, 54, 127
7, 13620, Note_off_c, 9, 39, 127
7, 13624, Note_off_c, 9, 54, 127
7, 13632, Note_on_c, 9, 46, 127
7, 13632, Note_on_c, 9, 54, 127
7, 13720, Note_off_c, 9, 46, 127
7, 13720, Note_off_c, 9, 54, 127
7, 13728, Note_on_c, 9, 46, 127
7, 13728, Note_on_c, 9, 54, 127
7, 13804, Note_off_c, 9, 35, 127
7, 13804, Note_off_c, 9, 41, 127
7, 13804, Note_off_c, 9, 40, 127
7, 13816, Note_off_c, 9, 46, 127
7, 13816, Note_off_c, 9, 54, 127
7, 13824, Note_on_c, 9, 50, 127
7, 13824, Note_on_c, 9, 46, 127
7, 13824, Note_on_c, 9, 54, 127
7, 13912, Note_off_c, 9, 46, 127
7, 13912, Note_off_c, 9, 54, 127
7, 13920, Note_on_c, 9, 54, 127
7, 13996, Note_off_c, 9, 50, 127
7, 14008, Note_off_c, 9, 54, 127
7, 14016, Note_on_c, 9, 46, 127
7, 14016, Note_on_c, 9, 54, 127
7, 14104, Note_off_c, 9, 46, 127
7, 14104, Note_off_c, 9, 54, 127
7, 14112, Note_on_c, 9, 46, 127
7, 14112, Note_on_c, 9, 54, 127
7, 14200, Note_off_c, 9, 46, 127
7, 14200, Note_off_c, 9, 54, 127
7, 14208, Note_on_c, 9, 46, 127
7, 14208, Note_on_c, 9, 35, 127
7, 14208, Note_on_c, 9, 41, 127
7, 14208, Note_on_c, 9, 40, 127
7, 14208, Note_on_c, 9, 39, 127
7, 14208, Note_on_c, 9, 54, 127
7, 14296, Note_off_c, 9, 46, 127
7, 14296, Note_off_c, 9, 54, 127
7, 14304, Note_on_c, 9, 54, 127
7, 14388, Note_off_c, 9, 39, 127
7, 14392, Note_off_c, 9, 54, 127
7, 14400, Note_on_c, 9, 46, 127
7, 14400, Note_on_c, 9, 54, 127
7, 14488, Note_off_c, 9, 46, 127
7, 14488, Note_off_c, 9, 54, 127
7, 14496, Note_on_c, 9, 46, 127
7, 14496, Note_on_c, 9, 54, 127
7, 14572, Note_off_c, 9, 35, 127
7, 14572, Note_off_c, 9, 41, 127
7, 14572, Note_off_c, 9, 40, 127
7, 14584, Note_off_c, 9, 46, 127
7, 14584, Note_off_c, 9, 54, 127
7, 14592, Note_on_c, 9, 46, 127
7, 14592, Note_on_c, 9, 54, 127
7, 14680, Note_off_c, 9, 46, 127
7, 14680, Note_off_c, 9, 54, 127
7, 14688, Note_on_c, 9, 54, 127
7, 14776, Note_off_c, 9, 54, 127
7, 14784, Note_on_c, 9, 46, 127
7, 14784, Note_on_c, 9, 54, 127
7, 14872, Note_off_c, 9, 46, 127
7, 14872, Note_off_c, 9, 54, 127
7, 14880, Note_on_c, 9, 46, 127
7, 14880, Note_on_c, 9, 54, 127
7, 14968, Note_off_c, 9, 46, 127
7, 14968, Note_off_c, 9, 54, 127
7, 14976, Note_on_c, 9, 46, 127
7, 14976, Note_on_c, 9, 35, 127
7, 14976, Note_on_c, 9, 41, 127
7, 14976, Note_on_c, 9, 40, 127
7, 14976, Note_on_c, 9, 39, 127
7, 14976, Note_on_c, 9, 54, 127
7, 15064, Note_off_c, 9, 46, 127
7, 15064, Note_off_c, 9, 54, 127
7, 15072, Note_on_c, 9, 54, 127
7, 15156, Note_off_c, 9, 39, 127
7, 15160, Note_off_c, 9, 54, 127
7, 15168, Note_on_c, 9, 46, 127
7, 15168, Note_on_c, 9, 54, 127
7, 15256, Note_off_c, 9, 46, 127
7, 15256, Note_off_c, 9, 54, 127
7, 15264, Note_on_c, 9, 46, 127
7, 15264, Note_on_c, 9, 54, 127
7, 15340, Note_off_c, 9, 35, 127
7, 15340, Note_off_c, 9, 41, 127
7, 15340, Note_off_c, 9, 40, 127
7, 15352, Note_off_c, 9, 46, 127
7, 15352, Note_off_c, 9, 54, 127
7, 15360, Note_on_c, 9, 50, 127
7, 15360, Note_on_c, 9, 46, 127
7, 15360, Note_on_c, 9, 54, 127
7, 15448, Note_off_c, 9, 46, 127
7, 15448, Note_off_c, 9, 54, 127
7, 15456, Note_on_c, 9, 54, 127
7, 15532, Note_off_c, 9, 50, 127
7, 15544, Note_off_c, 9, 54, 127
7, 15552, Note_on_c, 9, 46, 127
7, 15552, Note_on_c, 9, 54, 127
7, 15640, Note_off_c, 9, 46, 127
7, 15640, Note_off_c, 9, 54, 127
7, 15648, Note_on_c, 9, 46, 127
7, 15648, Note_on_c, 9, 54, 127
7, 15736, Note_off_c, 9, 46, 127
7, 15736, Note_off_c, 9, 54, 127
7, 15744, Note_on_c, 9, 46, 127
7, 15744, Note_on_c, 9, 35, 127
7, 15744, Note_on_c, 9, 41, 127
7, 15744, Note_on_c, 9, 40, 127
7, 15744, Note_on_c, 9, 39, 127
7, 15744, Note_on_c, 9, 54, 127
7, 15832, Note_off_c, 9, 46, 127
7, 15832, Note_off_c, 9, 54, 127
7, 15840, Note_on_c, 9, 54, 127
7, 15924, Note_off_c, 9, 39, 127
7, 15928, Note_off_c, 9, 54, 127
7, 15936, Note_on_c, 9, 46, 127
7, 15936, Note_on_c, 9, 54, 127
7, 16024, Note_off_c, 9, 46, 127
7, 16024, Note_off_c, 9, 54, 127
7, 16032, Note_on_c, 9, 46, 127
7, 16032, Note_on_c, 9, 54, 127
7, 16108, Note_off_c, 9, 35, 127
7, 16108, Note_off_c, 9, 41, 127
7, 16108, Note_off_c, 9, 40, 127
7, 16120, Note_off_c, 9, 46, 127
7, 16120, Note_off_c, 9, 54, 127
7, 16128, Note_on_c, 9, 46, 127
7, 16128, Note_on_c, 9, 54, 127
7, 16216, Note_off_c, 9, 46, 127
7, 16216, Note_off_c, 9, 54, 127
7, 16224, Note_on_c, 9, 54, 127
7, 16312, Note_off_c, 9, 54, 127
7, 16320, Note_on_c, 9, 46, 127
7, 16320, Note_on_c, 9, 54, 127
7, 16408, Note_off_c, 9, 46, 127
7, 16408, Note_off_c, 9, 54, 127
7, 16416, Note_on_c, 9, 46, 127
7, 16416, Note_on_c, 9, 54, 127
7, 16504, Note_off_c, 9, 46, 127
7, 16504, Note_off_c, 9, 54, 127
7, 16512, Note_on_c, 9, 46, 127
7, 16512, Note_on_c, 9, 35, 127
7, 16512, Note_on_c, 9, 41, 127
7, 16512, Note_on_c, 9, 40, 127
7, 16512, Note_on_c, 9, 39, 127
7, 16512, Note_on_c, 9, 54, 127
7, 16600, Note_off_c, 9, 46, 127
7, 16600, Note_off_c, 9, 54, 127
7, 16608, Note_on_c, 9, 54, 127
7, 16692, Note_off_c, 9, 39, 127
7, 16696, Note_off_c, 9, 54, 127
7, 16704, Note_on_c, 9, 46, 127
7, 16704, Note_on_c, 9, 54, 127
7, 16792, Note_off_c, 9, 46, 127
7, 16792, Note_off_c, 9, 54, 127
7, 16800, Note_on_c, 9, 46, 127
7, 16800, Note_on_c, 9, 54, 127
7, 16876, Note_off_c, 9, 35, 127
7, 16876, Note_off_c, 9, 41, 127
7, 16876, Note_off_c, 9, 40, 127
7, 16888, Note_off_c, 9, 46, 127
7, 16888, Note_off_c, 9, 54, 127
7, 16896, Note_on_c, 9, 50, 127
7, 16896, Note_on_c, 9, 46, 127
7, 16896, Note_on_c, 9, 54, 127
7, 16984, Note_off_c, 9, 46, 127
7, 16984, Note_off_c, 9, 54, 127
7, 16992, Note_on_c, 9, 54, 127
7, 17068, Note_off_c, 9, 50, 127
7, 17080, Note_off_c, 9, 54, 127
7, 17088, Note_on_c, 9, 46, 127
7, 17088, Note_on_c, 9, 54, 127
7, 17176, Note_off_c, 9, 46, 127
7, 17176, Note_off_c, 9, 54, 127
7, 17184, Note_on_c, 9, 46, 127
7, 17184, Note_on_c, 9, 54, 127
7, 17272, Note_off_c, 9, 46, 127
7, 17272, Note_off_c, 9, 54, 127
7, 17280, Note_on_c, 9, 46, 127
7, 17280, Note_on_c, 9, 35, 127
7, 17280, Note_on_c, 9, 41, 127
7, 17280, Note_on_c, 9, 40, 127
7, 17280, Note_on_c, 9, 39, 127
7, 17280, Note_on_c, 9, 54, 127
7, 17368, Note_off_c, 9, 46, 127
7, 17368, Note_off_c, 9, 54, 127
7, 17376, Note_on_c, 9, 54, 127
7, 17460, Note_off_c, 9, 39, 127
7, 17464, Note_off_c, 9, 54, 127
7, 17472, Note_on_c, 9, 46, 127
7, 17472, Note_on_c, 9, 54, 127
7, 17560, Note_off_c, 9, 46, 127
7, 17560, Note_off_c, 9, 54, 127
7, 17568, Note_on_c, 9, 46, 127
7, 17568, Note_on_c, 9, 54, 127
7, 17644, Note_off_c, 9, 35, 127
7, 17644, Note_off_c, 9, 41, 127
7, 17644, Note_off_c, 9, 40, 127
7, 17656, Note_off_c, 9, 46, 127
7, 17656, Note_off_c, 9, 54, 127
7, 17664, Note_on_c, 9, 46, 127
7, 17664, Note_on_c, 9, 54, 127
7, 17752, Note_off_c, 9, 46, 127
7, 17752, Note_off_c, 9, 54, 127
7, 17760, Note_on_c, 9, 54, 127
7, 17848, Note_off_c, 9, 54, 127
7, 17856, Note_on_c, 9, 46, 127
7, 17856, Note_on_c, 9, 54, 127
7, 17944, Note_off_c, 9, 46, 127
7, 17944, Note_off_c, 9, 54, 127
7, 17952, Note_on_c, 9, 46, 127
7, 17952, Note_on_c, 9, 54, 127
7, 18040, Note_off_c, 9, 46, 127
7, 18040, Note_off_c, 9, 54, 127
7, 18048, Note_on_c, 9, 46, 127
7, 18048, Note_on_c, 9, 35, 127
7, 18048, Note_on_c, 9, 41, 127
7, 18048, Note_on_c, 9, 40, 127
7, 18048, Note_on_c, 9, 39, 127
7, 18048, Note_on_c, 9, 54, 127
7, 18136, Note_off_c, 9, 46, 127
7, 18136, Note_off_c, 9, 54, 127
7, 18144, Note_on_c, 9, 54, 127
7, 18228, Note_off_c, 9, 39, 127
7, 18232, Note_off_c, 9, 54, 127
7, 18240, Note_on_c, 9, 46, 127
7, 18240, Note_on_c, 9, 54, 127
7, 18328, Note_off_c, 9, 46, 127
7, 18328, Note_off_c, 9, 54, 127
7, 18336, Note_on_c, 9, 46, 127
7, 18336, Note_on_c, 9, 54, 127
7, 18412, Note_off_c, 9, 35, 127
7, 18412, Note_off_c, 9, 41, 127
7, 18412, Note_off_c, 9, 40, 127
7, 18424, Note_off_c, 9, 46, 127
7, 18424, Note_off_c, 9, 54, 127
7, 18432, Note_on_c, 9, 50, 127
7, 18432, Note_on_c, 9, 46, 127
7, 18432, Note_on_c, 9, 54, 127
7, 18520, Note_off_c, 9, 46, 127
7, 18520, Note_off_c, 9, 54, 127
7, 18528, Note_on_c, 9, 54, 127
7, 18604, Note_off_c, 9, 50, 127
7, 18616, Note_off_c, 9, 54, 127
7, 18624, Note_on_c, 9, 46, 127
7, 18624, Note_on_c, 9, 54, 127
7, 18712, Note_off_c, 9, 46, 127
7, 18712, Note_off_c, 9, 54, 127
7, 18720, Note_on_c, 9, 46, 127
7, 18720, Note_on_c, 9, 54, 127
7, 18808, Note_off_c, 9, 46, 127
7, 18808, Note_off_c, 9, 54, 127
7, 18816, Note_on_c, 9, 46, 127
7, 18816, Note_on_c, 9, 35, 127
7, 18816, Note_on_c, 9, 41, 127
7, 18816, Note_on_c, 9, 40, 127
7, 18816, Note_on_c, 9, 39, 127
7, 18816, Note_on_c, 9, 54, 127
7, 18904, Note_off_c, 9, 46, 127
7, 18904, Note_off_c, 9, 54, 127
7, 18912, Note_on_c, 9, 54, 127
7, 18996, Note_off_c, 9, 39, 127
7, 19000, Note_off_c, 9, 54, 127
7, 19008, Note_on_c, 9, 46, 127
7, 19008, Note_on_c, 9, 54, 127
7, 19096, Note_off_c, 9, 46, 127
7, 19096, Note_off_c, 9, 54, 127
7, 19104, Note_on_c, 9, 46, 127
7, 19104, Note_on_c, 9, 54, 127
7, 19180, Note_off_c, 9, 35, 127
7, 19180, Note_off_c, 9, 41, 127
7, 19180, Note_off_c, 9, 40, 127
7, 19192, Note_off_c, 9, 46, 127
7, 19192, Note_off_c, 9, 54, 127
7, 19200, Note_on_c, 9, 46, 127
7, 19200, Note_on_c, 9, 54, 127
7, 19288, Note_off_c, 9, 46, 127
7, 19288, Note_off_c, 9, 54, 127
7, 19296, Note_on_c, 9, 54, 127
7, 19384, Note_off_c, 9, 54, 127
7, 19392, Note_on_c, 9, 46, 127
7, 19392, Note_on_c, 9, 54, 127
7, 19480, Note_off_c, 9, 46, 127
7, 19480, Note_off_c, 9, 54, 127
7, 19488, Note_on_c, 9, 46, 127
7, 19488, Note_on_c, 9, 54, 127
7, 19576, Note_off_c, 9, 46, 127
7, 19576, Note_off_c, 9, 54, 127
7, 19584, Note_on_c, 9, 46, 127
7, 19584, Note_on_c, 9, 35, 127
7, 19584, Note_on_c, 9, 41, 127
7, 19584, Note_on_c, 9, 40, 127
7, 19584, Note_on_c, 9, 39, 127
7, 19584, Note_on_c, 9, 54, 127
7, 19672, Note_off_c, 9, 46, 127
7, 19672, Note_off_c, 9, 54, 127
7, 19680, Note_on_c, 9, 54, 127
7, 19764, Note_off_c, 9, 39, 127
7, 19768, Note_off_c, 9, 54, 127
7, 19776, Note_on_c, 9, 46, 127
7, 19776, Note_on_c, 9, 54, 127
7, 19864, Note_off_c, 9, 46, 127
7, 19864, Note_off_c, 9, 54, 127
7, 19872, Note_on_c, 9, 46, 127
7, 19872, Note_on_c, 9, 54, 127
7, 19948, Note_off_c, 9, 35, 127
7, 19948, Note_off_c, 9, 41, 127
7, 19948, Note_off_c, 9, 40, 127
7, 19960, Note_off_c, 9, 46, 127
7, 19960, Note_off_c, 9, 54, 127
7, 19968, Note_on_c, 9, 50, 127
7, 19968, Note_on_c, 9, 46, 127
7, 19968, Note_on_c, 9, 54, 127
7, 20056, Note_off_c, 9, 46, 127
7, 20056, Note_off_c, 9, 54, 127
7, 20064, Note_on_c, 9, 54, 127
7, 20140, Note_off_c, 9, 50, 127
7, 20152, Note_off_c, 9, 54, 127
7, 20160, Note_on_c, 9, 46, 127
7, 20160, Note_on_c, 9, 54, 127
7, 20248, Note_off_c, 9, 46, 127
7, 20248, Note_off_c, 9, 54, 127
7, 20256, Note_on_c, 9, 46, 127
7, 20256, Note_on_c, 9, 54, 127
7, 20344, Note_off_c, 9, 46, 127
7, 20344, Note_off_c, 9, 54, 127
7, 20352, Note_on_c, 9, 46, 127
7, 20352, Note_on_c, 9, 35, 127
7, 20352, Note_on_c, 9, 41, 127
7, 20352, Note_on_c, 9, 40, 127
7, 20352, Note_on_c, 9, 39, 127
7, 20352, Note_on_c, 9, 54, 127
7, 20440, Note_off_c, 9, 46, 127
7, 20440, Note_off_c, 9, 54, 127
7, 20448, Note_on_c, 9, 54, 127
7, 20532, Note_off_c, 9, 39, 127
7, 20536, Note_off_c, 9, 54, 127
7, 20544, Note_on_c, 9, 46, 127
7, 20544, Note_on_c, 9, 54, 127
7, 20632, Note_off_c, 9, 46, 127
7, 20632, Note_off_c, 9, 54, 127
7, 20640, Note_on_c, 9, 46, 127
7, 20640, Note_on_c, 9, 54, 127
7, 20716, Note_off_c, 9, 35, 127
7, 20716, Note_off_c, 9, 41, 127
7, 20716, Note_off_c, 9, 40, 127
7, 20728, Note_off_c, 9, 46, 127
7, 20728, Note_off_c, 9, 54, 127
7, 20736, Note_on_c, 9, 46, 127
7, 20736, Note_on_c, 9, 54, 127
7, 20824, Note_off_c, 9, 46, 127
7, 20824, Note_off_c, 9, 54, 127
7, 20832, Note_on_c, 9, 54, 127
7, 20920, Note_off_c, 9, 54, 127
7, 20928, Note_on_c, 9, 46, 127
7, 20928, Note_on_c, 9, 54, 127
7, 21016, Note_off_c, 9, 46, 127
7, 21016, Note_off_c, 9, 54, 127
7, 21024, Note_on_c, 9, 46, 127
7, 21024, Note_on_c, 9, 54, 127
7, 21112, Note_off_c, 9, 46, 127
7, 21112, Note_off_c, 9, 54, 127
7, 21120, Note_on_c, 9, 46, 127
7, 21120, Note_on_c, 9, 35, 127
7, 21120, Note_on_c, 9, 41, 127
7, 21120, Note_on_c, 9, 40, 127
7, 21120, Note_on_c, 9, 39, 127
7, 21120, Note_on_c, 9, 54, 127
7, 21208, Note_off_c, 9, 46, 127
7, 21208, Note_off_c, 9, 54, 127
7, 21216, Note_on_c, 9, 54, 127
7, 21300, Note_off_c, 9, 39, 127
7, 21304, Note_off_c, 9, 54, 127
7, 21312, Note_on_c, 9, 46, 127
7, 21312, Note_on_c, 9, 54, 127
7, 21400, Note_off_c, 9, 46, 127
7, 21400, Note_off_c, 9, 54, 127
7, 21408, Note_on_c, 9, 46, 127
7, 21408, Note_on_c, 9, 54, 127
7, 21484, Note_off_c, 9, 35, 127
7, 21484, Note_off_c, 9, 41, 127
7, 21484, Note_off_c, 9, 40, 127
7, 21496, Note_off_c, 9, 46, 127
7, 21496, Note_off_c, 9, 54, 127
7, 21504, Note_on_c, 9, 49, 127
7, 21504, Note_on_c, 9, 35, 127
7, 21504, Note_on_c, 9, 46, 127
7, 21504, Note_on_c, 9, 39, 127
7, 21504, Note_on_c, 9, 54, 127
7, 21592, Note_off_c, 9, 46, 127
7, 21592, Note_off_c, 9, 54, 127
7, 21600, Note_on_c, 9, 46, 127
7, 21600, Note_on_c, 9, 54, 127
7, 21684, Note_off_c, 9, 35, 127
7, 21684, Note_off_c, 9, 39, 127
7, 21688, Note_off_c, 9, 46, 127
7, 21688, Note_off_c, 9, 54, 127
7, 21696, Note_on_c, 9, 46, 127
7, 21696, Note_on_c, 9, 50, 127
7, 21696, Note_on_c, 9, 54, 127
7, 21784, Note_off_c, 9, 46, 127
7, 21784, Note_off_c, 9, 54, 127
7, 21792, Note_on_c, 9, 46, 127
7, 21792, Note_on_c, 9, 54, 127
7, 21868, Note_off_c, 9, 49, 127
7, 21876, Note_off_c, 9, 50, 127
7, 21880, Note_off_c, 9, 46, 127
7, 21880, Note_off_c, 9, 54, 127
7, 21888, Note_on_c, 9, 46, 127
7, 21888, Note_on_c, 9, 54, 127
7, 21976, Note_off_c, 9, 46, 127
7, 21976, Note_off_c, 9, 54, 127
7, 21984, Note_on_c, 9, 46, 127
7, 21984, Note_on_c, 9, 54, 127
7, 22072, Note_off_c, 9, 46, 127
7, 22072, Note_off_c, 9, 54, 127
7, 22080, Note_on_c, 9, 46, 127
7, 22080, Note_on_c, 9, 50, 127
7, 22080, Note_on_c, 9, 54, 127
7, 22168, Note_off_c, 9, 46, 127
7, 22168, Note_off_c, 9, 54, 127
7, 22176, Note_on_c, 9, 46, 127
7, 22176, Note_on_c, 9, 54, 127
7, 22260, Note_off_c, 9, 50, 127
7, 22264, Note_off_c, 9, 46, 127
7, 22264, Note_off_c, 9, 54, 127
7, 22272, Note_on_c, 9, 46, 127
7, 22272, Note_on_c, 9, 54, 127
7, 22360, Note_off_c, 9, 46, 127
7, 22360, Note_off_c, 9, 54, 127
7, 22368, Note_on_c, 9, 46, 127
7, 22368, Note_on_c, 9, 54, 127
7, 22456, Note_off_c, 9, 46, 127
7, 22456, Note_off_c, 9, 54, 127
7, 22464, Note_on_c, 9, 46, 127
7, 22464, Note_on_c, 9, 50, 127
7, 22464, Note_on_c, 9, 54, 127
7, 22552, Note_off_c, 9, 46, 127
7, 22552, Note_off_c, 9, 54, 127
7, 22560, Note_on_c, 9, 46, 127
7, 22560, Note_on_c, 9, 54, 127
7, 22644, Note_off_c, 9, 50, 127
7, 22648, Note_off_c, 9, 46, 127
7, 22648, Note_off_c, 9, 54, 127
7, 22656, Note_on_c, 9, 46, 127
7, 22656, Note_on_c, 9, 50, 127
7, 22656, Note_on_c, 9, 54, 127
7, 22744, Note_off_c, 9, 46, 127
7, 22744, Note_off_c, 9, 54, 127
7, 22752, Note_on_c, 9, 46, 127
7, 22752, Note_on_c, 9, 54, 127
7, 22836, Note_off_c, 9, 50, 127
7, 22840, Note_off_c, 9, 46, 127
7, 22840, Note_off_c, 9, 54, 127
7, 22848, Note_on_c, 9, 46, 127
7, 22848, Note_on_c, 9, 54, 127
7, 22936, Note_off_c, 9, 46, 127
7, 22936, Note_off_c, 9, 54, 127
7, 22944, Note_on_c, 9, 46, 127
7, 22944, Note_on_c, 9, 54, 127
7, 23032, Note_off_c, 9, 46, 127
7, 23032, Note_off_c, 9, 54, 127
7, 23040, Note_on_c, 9, 50, 127
7, 23040, Note_on_c, 9, 46, 127
7, 23040, Note_on_c, 9, 54, 127
7, 23128, Note_off_c, 9, 46, 127
7, 23128, Note_off_c, 9, 54, 127
7, 23136, Note_on_c, 9, 54, 127
7, 23212, Note_off_c, 9, 50, 127
7, 23224, Note_off_c, 9, 54, 127
7, 23232, Note_on_c, 9, 46, 127
7, 23232, Note_on_c, 9, 54, 127
7, 23320, Note_off_c, 9, 46, 127
7, 23320, Note_off_c, 9, 54, 127
7, 23328, Note_on_c, 9, 46, 127
7, 23328, Note_on_c, 9, 54, 127
7, 23416, Note_off_c, 9, 46, 127
7, 23416, Note_off_c, 9, 54, 127
7, 23424, Note_on_c, 9, 46, 127
7, 23424, Note_on_c, 9, 35, 127
7, 23424, Note_on_c, 9, 41, 127
7, 23424, Note_on_c, 9, 40, 127
7, 23424, Note_on_c, 9, 39, 127
7, 23424, Note_on_c, 9, 54, 127
7, 23512, Note_off_c, 9, 46, 127
7, 23512, Note_off_c, 9, 54, 127
7, 23520, Note_on_c, 9, 54, 127
7, 23604, Note_off_c, 9, 39, 127
7, 23608, Note_off_c, 9, 54, 127
7, 23616, Note_on_c, 9, 46, 127
7, 23616, Note_on_c, 9, 54, 127
7, 23704, Note_off_c, 9, 46, 127
7, 23704, Note_off_c, 9, 54, 127
7, 23712, Note_on_c, 9, 46, 127
7, 23712, Note_on_c, 9, 54, 127
7, 23788, Note_off_c, 9, 35, 127
7, 23788, Note_off_c, 9, 41, 127
7, 23788, Note_off_c, 9, 40, 127
7, 23800, Note_off_c, 9, 46, 127
7, 23800, Note_off_c, 9, 54, 127
7, 23808, Note_on_c, 9, 46, 127
7, 23808, Note_on_c, 9, 54, 127
7, 23896, Note_off_c, 9, 46, 127
7, 23896, Note_off_c, 9, 54, 127
7, 23904, Note_on_c, 9, 54, 127
7, 23992, Note_off_c, 9, 54, 127
7, 24000, Note_on_c, 9, 46, 127
7, 24000, Note_on_c, 9, 54, 127
7, 24088, Note_off_c, 9, 46, 127
7, 24088, Note_off_c, 9, 54, 127
7, 24096, Note_on_c, 9, 46, 127
7, 24096, Note_on_c, 9, 54, 127
7, 24184, Note_off_c, 9, 46, 127
7, 24184, Note_off_c, 9, 54, 127
7, 24192, Note_on_c, 9, 46, 127
7, 24192, Note_on_c, 9, 35, 127
7, 24192, Note_on_c, 9, 41, 127
7, 24192, Note_on_c, 9, 40, 127
7, 24192, Note_on_c, 9, 39, 127
7, 24192, Note_on_c, 9, 54, 127
7, 24280, Note_off_c, 9, 46, 127
7, 24280, Note_off_c, 9, 54, 127
7, 24288, Note_on_c, 9, 54, 127
7, 24372, Note_off_c, 9, 39, 127
7, 24376, Note_off_c, 9, 54, 127
7, 24384, Note_on_c, 9, 46, 127
7, 24384, Note_on_c, 9, 54, 127
7, 24472, Note_off_c, 9, 46, 127
7, 24472, Note_off_c, 9, 54, 127
7, 24480, Note_on_c, 9, 46, 127
7, 24480, Note_on_c, 9, 54, 127
7, 24556, Note_off_c, 9, 35, 127
7, 24556, Note_off_c, 9, 41, 127
7, 24556, Note_off_c, 9, 40, 127
7, 24568, Note_off_c, 9, 46, 127
7, 24568, Note_off_c, 9, 54, 127
7, 24576, Note_on_c, 9, 50, 127
7, 24576, Note_on_c, 9, 46, 127
7, 24576, Note_on_c, 9, 54, 127
7, 24664, Note_off_c, 9, 46, 127
7, 24664, Note_off_c, 9, 54, 127
7, 24672, Note_on_c, 9, 54, 127
7, 24748, Note_off_c, 9, 50, 127
7, 24760, Note_off_c, 9, 54, 127
7, 24768, Note_on_c, 9, 46, 127
7, 24768, Note_on_c, 9, 54, 127
7, 24856, Note_off_c, 9, 46, 127
7, 24856, Note_off_c, 9, 54, 127
7, 24864, Note_on_c, 9, 46, 127
7, 24864, Note_on_c, 9, 54, 127
7, 24952, Note_off_c, 9, 46, 127
7, 24952, Note_off_c, 9, 54, 127
7, 24960, Note_on_c, 9, 46, 127
7, 24960, Note_on_c, 9, 35, 127
7, 24960, Note_on_c, 9, 41, 127
7, 24960, Note_on_c, 9, 40, 127
7, 24960, Note_on_c, 9, 39, 127
7, 24960, Note_on_c, 9, 54, 127
7, 25048, Note_off_c, 9, 46, 127
7, 25048, Note_off_c, 9, 54, 127
7, 25056, Note_on_c, 9, 54, 127
7, 25140, Note_off_c, 9, 39, 127
7, 25144, Note_off_c, 9, 54, 127
7, 25152, Note_on_c, 9, 46, 127
7, 25152, Note_on_c, 9, 54, 127
7, 25240, Note_off_c, 9, 46, 127
7, 25240, Note_off_c, 9, 54, 127
7, 25248, Note_on_c, 9, 46, 127
7, 25248, Note_on_c, 9, 54, 127
7, 25324, Note_off_c, 9, 35, 127
7, 25324, Note_off_c, 9, 41, 127
7, 25324, Note_off_c, 9, 40, 127
7, 25336, Note_off_c, 9, 46, 127
7, 25336, Note_off_c, 9, 54, 127
7, 25344, Note_on_c, 9, 46, 127
7, 25344, Note_on_c, 9, 54, 127
7, 25432, Note_off_c, 9, 46, 127
7, 25432, Note_off_c, 9, 54, 127
7, 25440, Note_on_c, 9, 54, 127
7, 25528, Note_off_c, 9, 54, 127
7, 25536, Note_on_c, 9, 46, 127
7, 25536, Note_on_c, 9, 54, 127
7, 25624, Note_off_c, 9, 46, 127
7, 25624, Note_off_c, 9, 54, 127
7, 25632, Note_on_c, 9, 46, 127
7, 25632, Note_on_c, 9, 54, 127
7, 25720, Note_off_c, 9, 46, 127
7, 25720, Note_off_c, 9, 54, 127
7, 25728, Note_on_c, 9, 46, 127
7, 25728, Note_on_c, 9, 35, 127
7, 25728, Note_on_c, 9, 41, 127
7, 25728, Note_on_c, 9, 40, 127
7, 25728, Note_on_c, 9, 39, 127
7, 25728, Note_on_c, 9, 54, 127
7, 25816, Note_off_c, 9, 46, 127
7, 25816, Note_off_c, 9, 54, 127
7, 25824, Note_on_c, 9, 54, 127
7, 25908, Note_off_c, 9, 39, 127
7, 25912, Note_off_c, 9, 54, 127
7, 25920, Note_on_c, 9, 46, 127
7, 25920, Note_on_c, 9, 54, 127
7, 26008, Note_off_c, 9, 46, 127
7, 26008, Note_off_c, 9, 54, 127
7, 26016, Note_on_c, 9, 46, 127
7, 26016, Note_on_c, 9, 54, 127
7, 26092, Note_off_c, 9, 35, 127
7, 26092, Note_off_c, 9, 41, 127
7, 26092, Note_off_c, 9, 40, 127
7, 26104, Note_off_c, 9, 46, 127
7, 26104, Note_off_c, 9, 54, 127
7, 26112, Note_on_c, 9, 50, 127
7, 26112, Note_on_c, 9, 46, 127
7, 26112, Note_on_c, 9, 54, 127
7, 26200, Note_off_c, 9, 46, 127
7, 26200, Note_off_c, 9, 54, 127
7, 26208, Note_on_c, 9, 54, 127
7, 26284, Note_off_c, 9, 50, 127
7, 26296, Note_off_c, 9, 54, 127
7, 26304, Note_on_c, 9, 46, 127
7, 26304, Note_on_c, 9, 54, 127
7, 26392, Note_off_c, 9, 46, 127
7, 26392, Note_off_c, 9, 54, 127
7, 26400, Note_on_c, 9, 46, 127
7, 26400, Note_on_c, 9, 54, 127
7, 26488, Note_off_c, 9, 46, 127
7, 26488, Note_off_c, 9, 54, 127
7, 26496, Note_on_c, 9, 46, 127
7, 26496, Note_on_c, 9, 35, 127
7, 26496, Note_on_c, 9, 41, 127
7, 26496, Note_on_c, 9, 40, 127
7, 26496, Note_on_c, 9, 39, 127
7, 26496, Note_on_c, 9, 54, 127
7, 26584, Note_off_c, 9, 46, 127
7, 26584, Note_off_c, 9, 54, 127
7, 26592, Note_on_c, 9, 54, 127
7, 26676, Note_off_c, 9, 39, 127
7, 26680, Note_off_c, 9, 54, 127
7, 26688, Note_on_c, 9, 46, 127
7, 26688, Note_on_c, 9, 54, 127
7, 26776, Note_off_c, 9, 46, 127
7, 26776, Note_off_c, 9, 54, 127
7, 26784, Note_on_c, 9, 46, 127
7, 26784, Note_on_c, 9, 54, 127
7, 26860, Note_off_c, 9, 35, 127
7, 26860, Note_off_c, 9, 41, 127
7, 26860, Note_off_c, 9, 40, 127
7, 26872, Note_off_c, 9, 46, 127
7, 26872, Note_off_c, 9, 54, 127
7, 26880, Note_on_c, 9, 46, 127
7, 26880, Note_on_c, 9, 54, 127
7, 26968, Note_off_c, 9, 46, 127
7, 26968, Note_off_c, 9, 54, 127
7, 26976, Note_on_c, 9, 54, 127
7, 27064, Note_off_c, 9, 54, 127
7, 27072, Note_on_c, 9, 46, 127
7, 27072, Note_on_c, 9, 54, 127
7, 27160, Note_off_c, 9, 46, 127
7, 27160, Note_off_c, 9, 54, 127
7, 27168, Note_on_c, 9, 46, 127
7, 27168, Note_on_c, 9, 54, 127
7, 27256, Note_off_c, 9, 46, 127
7, 27256, Note_off_c, 9, 54, 127
7, 27264, Note_on_c, 9, 46, 127
7, 27264, Note_on_c, 9, 35, 127
7, 27264, Note_on_c, 9, 41, 127
7, 27264, Note_on_c, 9, 40, 127
7, 27264, Note_on_c, 9, 39, 127
7, 27264, Note_on_c, 9, 54, 127
7, 27352, Note_off_c, 9, 46, 127
7, 27352, Note_off_c, 9, 54, 127
7, 27360, Note_on_c, 9, 54, 127
7, 27444, Note_off_c, 9, 39, 127
7, 27448, Note_off_c, 9, 54, 127
7, 27456, Note_on_c, 9, 46, 127
7, 27456, Note_on_c, 9, 54, 127
7, 27544, Note_off_c, 9, 46, 127
7, 27544, Note_off_c, 9, 54, 127
7, 27552, Note_on_c, 9, 46, 127
7, 27552, Note_on_c, 9, 54, 127
7, 27628, Note_off_c, 9, 35, 127
7, 27628, Note_off_c, 9, 41, 127
7, 27628, Note_off_c, 9, 40, 127
7, 27640, Note_off_c, 9, 46, 127
7, 27640, Note_off_c, 9, 54, 127
7, 27648, Note_on_c, 9, 47, 127
7, 27648, Note_on_c, 9, 35, 127
7, 27648, Note_on_c, 9, 49, 127
7, 27648, Note_on_c, 9, 55, 127
7, 27648, Note_on_c, 9, 54, 127
7, 28012, Note_off_c, 9, 47, 127
7, 28012, Note_off_c, 9, 35, 127
7, 28012, Note_off_c, 9, 49, 127
7, 28012, Note_off_c, 9, 55, 127
7, 28376, Note_off_c, 9, 54, 127
7, 29184, Note_on_c, 9, 50, 127
7, 29184, Note_on_c, 9, 46, 127
7, 29184, Note_on_c, 9, 54, 127
7, 29272, Note_off_c, 9, 46, 127
7, 29272, Note_off_c, 9, 54, 127
7, 29280, Note_on_c, 9, 54, 127
7, 29356, Note_off_c, 9, 50, 127
7, 29368, Note_off_c, 9, 54, 127
7, 29376, Note_on_c, 9, 46, 127
7, 29376, Note_on_c, 9, 54, 127
7, 29464, Note_off_c, 9, 46, 127
7, 29464, Note_off_c, 9, 54, 127
7, 29472, Note_on_c, 9, 46, 127
7, 29472, Note_on_c, 9, 54, 127
7, 29560, Note_off_c, 9, 46, 127
7, 29560, Note_off_c, 9, 54, 127
7, 29568, Note_on_c, 9, 46, 127
7, 29568, Note_on_c, 9, 35, 127
7, 29568, Note_on_c, 9, 41, 127
7, 29568, Note_on_c, 9, 40, 127
7, 29568, Note_on_c, 9, 39, 127
7, 29568, Note_on_c, 9, 54, 127
7, 29656, Note_off_c, 9, 46, 127
7, 29656, Note_off_c, 9, 54, 127
7, 29664, Note_on_c, 9, 54, 127
7, 29748, Note_off_c, 9, 39, 127
7, 29752, Note_off_c, 9, 54, 127
7, 29760, Note_on_c, 9, 54, 127
7, 29848, Note_off_c, 9, 54, 127
7, 29856, Note_on_c, 9, 54, 127
7, 29932, Note_off_c, 9, 35, 127
7, 29932, Note_off_c, 9, 41, 127
7, 29932, Note_off_c, 9, 40, 127
7, 29944, Note_off_c, 9, 54, 127
7, 29952, Note_on_c, 9, 54, 127
7, 30040, Note_off_c, 9, 54, 127
7, 30048, Note_on_c, 9, 48, 127
7, 30048, Note_on_c, 9, 54, 127
7, 30136, Note_off_c, 9, 54, 127
7, 30144, Note_on_c, 9, 48, 127
7, 30144, Note_on_c, 9, 54, 127
7, 30224, Note_off_c, 9, 48, 127
7, 30232, Note_off_c, 9, 54, 127
7, 30240, Note_on_c, 9, 48, 127
7, 30240, Note_on_c, 9, 54, 127
7, 30320, Note_off_c, 9, 48, 127
7, 30328, Note_off_c, 9, 54, 127
7, 30336, Note_on_c, 9, 39, 127
7, 30336, Note_on_c, 9, 54, 127
7, 30416, Note_off_c, 9, 48, 127
7, 30424, Note_off_c, 9, 54, 127
7, 30432, Note_on_c, 9, 50, 127
7, 30432, Note_on_c, 9, 54, 127
7, 30516, Note_off_c, 9, 39, 127
7, 30520, Note_off_c, 9, 54, 127
7, 30528, Note_on_c, 9, 50, 127
7, 30528, Note_on_c, 9, 54, 127
7, 30608, Note_off_c, 9, 50, 127
7, 30616, Note_off_c, 9, 54, 127
7, 30624, Note_on_c, 9, 54, 127
7, 30704, Note_off_c, 9, 50, 127
7, 30712, Note_off_c, 9, 54, 127
7, 30720, Note_on_c, 9, 54, 127
7, 30808, Note_off_c, 9, 54, 127
7, 30816, Note_on_c, 9, 54, 127
7, 30904, Note_off_c, 9, 54, 127
7, 30912, Note_on_c, 9, 50, 127
7, 30912, Note_on_c, 9, 54, 127
7, 31000, Note_off_c, 9, 54, 127
7, 31008, Note_on_c, 9, 54, 127
7, 31088, Note_off_c, 9, 50, 127
7, 31096, Note_off_c, 9, 54, 127
7, 31104, Note_on_c, 9, 50, 127
7, 31104, Note_on_c, 9, 39, 127
7, 31104, Note_on_c, 9, 54, 127
7, 31192, Note_off_c, 9, 54, 127
7, 31200, Note_on_c, 9, 54, 127
7, 31280, Note_off_c, 9, 50, 127
7, 31288, Note_off_c, 9, 54, 127
7, 31296, Note_on_c, 9, 45, 127
7, 31296, Note_on_c, 9, 54, 127
7, 31384, Note_off_c, 9, 54, 127
7, 31392, Note_on_c, 9, 54, 127
7, 31424, Note_on_c, 9, 50, 127
7, 31456, Note_on_c, 9, 50, 127
7, 31468, Note_off_c, 9, 39, 127
7, 31476, Note_off_c, 9, 45, 127
7, 31480, Note_off_c, 9, 54, 127
7, 31484, Note_off_c, 9, 50, 127
7, 31488, Note_on_c, 9, 50, 127
7, 31488, Note_on_c, 9, 54, 127
7, 31516, Note_off_c, 9, 50, 127
7, 31576, Note_off_c, 9, 54, 127
7, 31584, Note_on_c, 9, 54, 127
7, 31664, Note_off_c, 9, 50, 127
7, 31672, Note_off_c, 9, 54, 127
7, 31680, Note_on_c, 9, 45, 127
7, 31680, Note_on_c, 9, 54, 127
7, 31768, Note_off_c, 9, 54, 127
7, 31776, Note_on_c, 9, 54, 127
7, 31808, Note_on_c, 9, 50, 127
7, 31840, Note_on_c, 9, 50, 127
7, 31856, Note_off_c, 9, 45, 127
7, 31864, Note_off_c, 9, 54, 127
7, 31868, Note_off_c, 9, 50, 127
7, 31872, Note_on_c, 9, 50, 127
7, 31872, Note_on_c, 9, 39, 127
7, 31872, Note_on_c, 9, 54, 127
7, 31900, Note_off_c, 9, 50, 127
7, 31960, Note_off_c, 9, 54, 127
7, 31968, Note_on_c, 9, 54, 127
7, 32048, Note_off_c, 9, 50, 127
7, 32052, Note_off_c, 9, 39, 127
7, 32056, Note_off_c, 9, 54, 127
7, 32064, Note_on_c, 9, 50, 127
7, 32064, Note_on_c, 9, 54, 127
7, 32152, Note_off_c, 9, 54, 127
7, 32160, Note_on_c, 9, 54, 127
7, 32240, Note_off_c, 9, 50, 127
7, 32248, Note_off_c, 9, 54, 127
7, 32256, Note_on_c, 9, 50, 127
7, 32256, Note_on_c, 9, 46, 127
7, 32256, Note_on_c, 9, 54, 127
7, 32344, Note_off_c, 9, 46, 127
7, 32344, Note_off_c, 9, 54, 127
7, 32352, Note_on_c, 9, 54, 127
7, 32428, Note_off_c, 9, 50, 127
7, 32440, Note_off_c, 9, 54, 127
7, 32448, Note_on_c, 9, 46, 127
7, 32448, Note_on_c, 9, 54, 127
7, 32536, Note_off_c, 9, 46, 127
7, 32536, Note_off_c, 9, 54, 127
7, 32544, Note_on_c, 9, 46, 127
7, 32544, Note_on_c, 9, 54, 127
7, 32632, Note_off_c, 9, 46, 127
7, 32632, Note_off_c, 9, 54, 127
7, 32640, Note_on_c, 9, 46, 127
7, 32640, Note_on_c, 9, 35, 127
7, 32640, Note_on_c, 9, 41, 127
7, 32640, Note_on_c, 9, 40, 127
7, 32640, Note_on_c, 9, 39, 127
7, 32640, Note_on_c, 9, 39, 127
7, 32640, Note_on_c, 9, 54, 127
7, 32728, Note_off_c, 9, 46, 127
7, 32728, Note_off_c, 9, 54, 127
7, 32736, Note_on_c, 9, 54, 127
7, 32820, Note_off_c, 9, 39, 127
7, 32824, Note_off_c, 9, 54, 127
7, 32832, Note_on_c, 9, 46, 127
7, 32832, Note_on_c, 9, 54, 127
7, 32920, Note_off_c, 9, 46, 127
7, 32920, Note_off_c, 9, 54, 127
7, 32928, Note_on_c, 9, 46, 127
7, 32928, Note_on_c, 9, 54, 127
7, 33004, Note_off_c, 9, 35, 127
7, 33004, Note_off_c, 9, 41, 127
7, 33004, Note_off_c, 9, 40, 127
7, 33004, Note_off_c, 9, 39, 127
7, 33016, Note_off_c, 9, 46, 127
7, 33016, Note_off_c, 9, 54, 127
7, 33024, Note_on_c, 9, 46, 127
7, 33024, Note_on_c, 9, 54, 127
7, 33112, Note_off_c, 9, 46, 127
7, 33112, Note_off_c, 9, 54, 127
7, 33120, Note_on_c, 9, 54, 127
7, 33208, Note_off_c, 9, 54, 127
7, 33216, Note_on_c, 9, 46, 127
7, 33216, Note_on_c, 9, 54, 127
7, 33304, Note_off_c, 9, 46, 127
7, 33304, Note_off_c, 9, 54, 127
7, 33312, Note_on_c, 9, 46, 127
7, 33312, Note_on_c, 9, 54, 127
7, 33400, Note_off_c, 9, 46, 127
7, 33400, Note_off_c, 9, 54, 127
7, 33408, Note_on_c, 9, 46, 127
7, 33408, Note_on_c, 9, 35, 127
7, 33408, Note_on_c, 9, 41, 127
7, 33408, Note_on_c, 9, 40, 127
7, 33408, Note_on_c, 9, 39, 127
7, 33408, Note_on_c, 9, 54, 127
7, 33496, Note_off_c, 9, 46, 127
7, 33496, Note_off_c, 9, 54, 127
7, 33504, Note_on_c, 9, 54, 127
7, 33588, Note_off_c, 9, 39, 127
7, 33592, Note_off_c, 9, 54, 127
7, 33600, Note_on_c, 9, 46, 127
7, 33600, Note_on_c, 9, 54, 127
7, 33688, Note_off_c, 9, 46, 127
7, 33688, Note_off_c, 9, 54, 127
7, 33696, Note_on_c, 9, 46, 127
7, 33696, Note_on_c, 9, 54, 127
7, 33772, Note_off_c, 9, 35, 127
7, 33772, Note_off_c, 9, 41, 127
7, 33772, Note_off_c, 9, 40, 127
7, 33784, Note_off_c, 9, 46, 127
7, 33784, Note_off_c, 9, 54, 127
7, 33792, Note_on_c, 9, 50, 127
7, 33792, Note_on_c, 9, 46, 127
7, 33792, Note_on_c, 9, 54, 127
7, 33880, Note_off_c, 9, 46, 127
7, 33880, Note_off_c, 9, 54, 127
7, 33888, Note_on_c, 9, 54, 127
7, 33964, Note_off_c, 9, 50, 127
7, 33976, Note_off_c, 9, 54, 127
7, 33984, Note_on_c, 9, 46, 127
7, 33984, Note_on_c, 9, 54, 127
7, 34072, Note_off_c, 9, 46, 127
7, 34072, Note_off_c, 9, 54, 127
7, 34080, Note_on_c, 9, 46, 127
7, 34080, Note_on_c, 9, 54, 127
7, 34168, Note_off_c, 9, 46, 127
7, 34168, Note_off_c, 9, 54, 127
7, 34176, Note_on_c, 9, 46, 127
7, 34176, Note_on_c, 9, 35, 127
7, 34176, Note_on_c, 9, 41, 127
7, 34176, Note_on_c, 9, 40, 127
7, 34176, Note_on_c, 9, 39, 127
7, 34176, Note_on_c, 9, 54, 127
7, 34264, Note_off_c, 9, 46, 127
7, 34264, Note_off_c, 9, 54, 127
7, 34272, Note_on_c, 9, 54, 127
7, 34356, Note_off_c, 9, 39, 127
7, 34360, Note_off_c, 9, 54, 127
7, 34368, Note_on_c, 9, 46, 127
7, 34368, Note_on_c, 9, 54, 127
7, 34456, Note_off_c, 9, 46, 127
7, 34456, Note_off_c, 9, 54, 127
7, 34464, Note_on_c, 9, 46, 127
7, 34464, Note_on_c, 9, 54, 127
7, 34540, Note_off_c, 9, 35, 127
7, 34540, Note_off_c, 9, 41, 127
7, 34540, Note_off_c, 9, 40, 127
7, 34552, Note_off_c, 9, 46, 127
7, 34552, Note_off_c, 9, 54, 127
7, 34560, Note_on_c, 9, 46, 127
7, 34560, Note_on_c, 9, 54, 127
7, 34648, Note_off_c, 9, 46, 127
7, 34648, Note_off_c, 9, 54, 127
7, 34656, Note_on_c, 9, 54, 127
7, 34744, Note_off_c, 9, 54, 127
7, 34752, Note_on_c, 9, 46, 127
7, 34752, Note_on_c, 9, 54, 127
7, 34840, Note_off_c, 9, 46, 127
7, 34840, Note_off_c, 9, 54, 127
7, 34848, Note_on_c, 9, 46, 127
7, 34848, Note_on_c, 9, 54, 127
7, 34936, Note_off_c, 9, 46, 127
7, 34936, Note_off_c, 9, 54, 127
7, 34944, Note_on_c, 9, 46, 127
7, 34944, Note_on_c, 9, 35, 127
7, 34944, Note_on_c, 9, 41, 127
7, 34944, Note_on_c, 9, 40, 127
7, 34944, Note_on_c, 9, 39, 127
7, 34944, Note_on_c, 9, 54, 127
7, 35032, Note_off_c, 9, 46, 127
7, 35032, Note_off_c, 9, 54, 127
7, 35040, Note_on_c, 9, 54, 127
7, 35124, Note_off_c, 9, 39, 127
7, 35128, Note_off_c, 9, 54, 127
7, 35136, Note_on_c, 9, 46, 127
7, 35136, Note_on_c, 9, 54, 127
7, 35224, Note_off_c, 9, 46, 127
7, 35224, Note_off_c, 9, 54, 127
7, 35232, Note_on_c, 9, 46, 127
7, 35232, Note_on_c, 9, 54, 127
7, 35308, Note_off_c, 9, 35, 127
7, 35308, Note_off_c, 9, 41, 127
7, 35308, Note_off_c, 9, 40, 127
7, 35320, Note_off_c, 9, 46, 127
7, 35320, Note_off_c, 9, 54, 127
7, 35328, Note_on_c, 9, 50, 127
7, 35328, Note_on_c, 9, 46, 127
7, 35328, Note_on_c, 9, 54, 127
7, 35416, Note_off_c, 9, 46, 127
7, 35416, Note_off_c, 9, 54, 127
7, 35424, Note_on_c, 9, 54, 127
7, 35500, Note_off_c, 9, 50, 127
7, 35512, Note_off_c, 9, 54, 127
7, 35520, Note_on_c, 9, 46, 127
7, 35520, Note_on_c, 9, 54, 127
7, 35608, Note_off_c, 9, 46, 127
7, 35608, Note_off_c, 9, 54, 127
7, 35616, Note_on_c, 9, 46, 127
7, 35616, Note_on_c, 9, 54, 127
7, 35704, Note_off_c, 9, 46, 127
7, 35704, Note_off_c, 9, 54, 127
7, 35712, Note_on_c, 9, 46, 127
7, 35712, Note_on_c, 9, 35, 127
7, 35712, Note_on_c, 9, 41, 127
7, 35712, Note_on_c, 9, 40, 127
7, 35712, Note_on_c, 9, 39, 127
7, 35712, Note_on_c, 9, 54, 127
7, 35800, Note_off_c, 9, 46, 127
7, 35800, Note_off_c, 9, 54, 127
7, 35808, Note_on_c, 9, 54, 127
7, 35892, Note_off_c, 9, 39, 127
7, 35896, Note_off_c, 9, 54, 127
7, 35904, Note_on_c, 9, 46, 127
7, 35904, Note_on_c, 9, 54, 127
7, 35992, Note_off_c, 9, 46, 127
7, 35992, Note_off_c, 9, 54, 127
7, 36000, Note_on_c, 9, 46, 127
7, 36000, Note_on_c, 9, 54, 127
7, 36076, Note_off_c, 9, 35, 127
7, 36076, Note_off_c, 9, 41, 127
7, 36076, Note_off_c, 9, 40, 127
7, 36088, Note_off_c, 9, 46, 127
7, 36088, Note_off_c, 9, 54, 127
7, 36096, Note_on_c, 9, 46, 127
7, 36096, Note_on_c, 9, 54, 127
7, 36184, Note_off_c, 9, 46, 127
7, 36184, Note_off_c, 9, 54, 127
7, 36192, Note_on_c, 9, 54, 127
7, 36280, Note_off_c, 9, 54, 127
7, 36288, Note_on_c, 9, 46, 127
7, 36288, Note_on_c, 9, 54, 127
7, 36376, Note_off_c, 9, 46, 127
7, 36376, Note_off_c, 9, 54, 127
7, 36384, Note_on_c, 9, 46, 127
7, 36384, Note_on_c, 9, 54, 127
7, 36472, Note_off_c, 9, 46, 127
7, 36472, Note_off_c, 9, 54, 127
7, 36480, Note_on_c, 9, 46, 127
7, 36480, Note_on_c, 9, 35, 127
7, 36480, Note_on_c, 9, 41, 127
7, 36480, Note_on_c, 9, 40, 127
7, 36480, Note_on_c, 9, 39, 127
7, 36480, Note_on_c, 9, 54, 127
7, 36568, Note_off_c, 9, 46, 127
7, 36568, Note_off_c, 9, 54, 127
7, 36576, Note_on_c, 9, 54, 127
7, 36660, Note_off_c, 9, 39, 127
7, 36664, Note_off_c, 9, 54, 127
7, 36672, Note_on_c, 9, 46, 127
7, 36672, Note_on_c, 9, 54, 127
7, 36760, Note_off_c, 9, 46, 127
7, 36760, Note_off_c, 9, 54, 127
7, 36768, Note_on_c, 9, 46, 127
7, 36768, Note_on_c, 9, 54, 127
7, 36844, Note_off_c, 9, 35, 127
7, 36844, Note_off_c, 9, 41, 127
7, 36844, Note_off_c, 9, 40, 127
7, 36856, Note_off_c, 9, 46, 127
7, 36856, Note_off_c, 9, 54, 127
7, 36864, Note_on_c, 9, 50, 127
7, 36864, Note_on_c, 9, 46, 127
7, 36864, Note_on_c, 9, 54, 127
7, 36952, Note_off_c, 9, 46, 127
7, 36952, Note_off_c, 9, 54, 127
7, 36960, Note_on_c, 9, 54, 127
7, 37036, Note_off_c, 9, 50, 127
7, 37048, Note_off_c, 9, 54, 127
7, 37056, Note_on_c, 9, 46, 127
7, 37056, Note_on_c, 9, 54, 127
7, 37144, Note_off_c, 9, 46, 127
7, 37144, Note_off_c, 9, 54, 127
7, 37152, Note_on_c, 9, 46, 127
7, 37152, Note_on_c, 9, 54, 127
7, 37240, Note_off_c, 9, 46, 127
7, 37240, Note_off_c, 9, 54, 127
7, 37248, Note_on_c, 9, 46, 127
7, 37248, Note_on_c, 9, 35, 127
7, 37248, Note_on_c, 9, 41, 127
7, 37248, Note_on_c, 9, 40, 127
7, 37248, Note_on_c, 9, 39, 127
7, 37248, Note_on_c, 9, 54, 127
7, 37336, Note_off_c, 9, 46, 127
7, 37336, Note_off_c, 9, 54, 127
7, 37344, Note_on_c, 9, 54, 127
7, 37428, Note_off_c, 9, 39, 127
7, 37432, Note_off_c, 9, 54, 127
7, 37440, Note_on_c, 9, 46, 127
7, 37440, Note_on_c, 9, 54, 127
7, 37528, Note_off_c, 9, 46, 127
7, 37528, Note_off_c, 9, 54, 127
7, 37536, Note_on_c, 9, 46, 127
7, 37536, Note_on_c, 9, 54, 127
7, 37612, Note_off_c, 9, 35, 127
7, 37612, Note_off_c, 9, 41, 127
7, 37612, Note_off_c, 9, 40, 127
7, 37624, Note_off_c, 9, 46, 127
7, 37624, Note_off_c, 9, 54, 127
7, 37632, Note_on_c, 9, 46, 127
7, 37632, Note_on_c, 9, 54, 127
7, 37720, Note_off_c, 9, 46, 127
7, 37720, Note_off_c, 9, 54, 127
7, 37728, Note_on_c, 9, 54, 127
7, 37816, Note_off_c, 9, 54, 127
7, 37824, Note_on_c, 9, 46, 127
7, 37824, Note_on_c, 9, 54, 127
7, 37912, Note_off_c, 9, 46, 127
7, 37912, Note_off_c, 9, 54, 127
7, 37920, Note_on_c, 9, 46, 127
7, 37920, Note_on_c, 9, 54, 127
7, 38008, Note_off_c, 9, 46, 127
7, 38008, Note_off_c, 9, 54, 127
7, 38016, Note_on_c, 9, 46, 127
7, 38016, Note_on_c, 9, 35, 127
7, 38016, Note_on_c, 9, 41, 127
7, 38016, Note_on_c, 9, 40, 127
7, 38016, Note_on_c, 9, 39, 127
7, 38016, Note_on_c, 9, 54, 127
7, 38104, Note_off_c, 9, 46, 127
7, 38104, Note_off_c, 9, 54, 127
7, 38112, Note_on_c, 9, 54, 127
7, 38196, Note_off_c, 9, 39, 127
7, 38200, Note_off_c, 9, 54, 127
7, 38208, Note_on_c, 9, 46, 127
7, 38208, Note_on_c, 9, 54, 127
7, 38296, Note_off_c, 9, 46, 127
7, 38296, Note_off_c, 9, 54, 127
7, 38304, Note_on_c, 9, 46, 127
7, 38304, Note_on_c, 9, 54, 127
7, 38380, Note_off_c, 9, 35, 127
7, 38380, Note_off_c, 9, 41, 127
7, 38380, Note_off_c, 9, 40, 127
7, 38392, Note_off_c, 9, 46, 127
7, 38392, Note_off_c, 9, 54, 127
7, 38400, Note_on_c, 9, 47, 127
7, 38400, Note_on_c, 9, 35, 127
7, 38400, Note_on_c, 9, 49, 127
7, 38400, Note_on_c, 9, 55, 127
7, 38400, Note_on_c, 9, 54, 127
7, 38488, Note_off_c, 9, 54, 127
7, 38496, Note_on_c, 9, 54, 127
7, 38584, Note_off_c, 9, 54, 127
7, 38592, Note_on_c, 9, 54, 127
7, 38680, Note_off_c, 9, 54, 127
7, 38688, Note_on_c, 9, 54, 127
7, 38764, Note_off_c, 9, 47, 127
7, 38764, Note_off_c, 9, 35, 127
7, 38764, Note_off_c, 9, 49, 127
7, 38764, Note_off_c, 9, 55, 127
7, 38776, Note_off_c, 9, 54, 127
7, 38784, Note_on_c, 9, 46, 127
7, 38784, Note_on_c, 9, 35, 127
7, 38784, Note_on_c, 9, 41, 127
7, 38784, Note_on_c, 9, 39, 127
7, 38784, Note_on_c, 9, 54, 127
7, 38872, Note_off_c, 9, 46, 127
7, 38872, Note_off_c, 9, 54, 127
7, 38880, Note_on_c, 9, 54, 127
7, 38964, Note_off_c, 9, 39, 127
7, 38968, Note_off_c, 9, 54, 127
7, 38976, Note_on_c, 9, 54, 127
7, 39064, Note_off_c, 9, 54, 127
7, 39072, Note_on_c, 9, 54, 127
7, 39148, Note_off_c, 9, 35, 127
7, 39148, Note_off_c, 9, 41, 127
7, 39160, Note_off_c, 9, 54, 127
7, 39168, Note_on_c, 9, 54, 127
7, 39256, Note_off_c, 9, 54, 127
7, 39264, Note_on_c, 9, 54, 127
7, 39352, Note_off_c, 9, 54, 127
7, 39360, Note_on_c, 9, 54, 127
7, 39448, Note_off_c, 9, 54, 127
7, 39456, Note_on_c, 9, 54, 127
7, 39544, Note_off_c, 9, 54, 127
7, 39552, Note_on_c, 9, 46, 127
7, 39552, Note_on_c, 9, 35, 127
7, 39552, Note_on_c, 9, 41, 127
7, 39552, Note_on_c, 9, 54, 127
7, 39640, Note_off_c, 9, 46, 127
7, 39640, Note_off_c, 9, 54, 127
7, 39648, Note_on_c, 9, 54, 127
7, 39736, Note_off_c, 9, 54, 127
7, 39744, Note_on_c, 9, 54, 127
7, 39832, Note_off_c, 9, 54, 127
7, 39840, Note_on_c, 9, 54, 127
7, 39916, Note_off_c, 9, 35, 127
7, 39916, Note_off_c, 9, 41, 127
7, 39928, Note_off_c, 9, 54, 127
7, 39936, Note_on_c, 9, 50, 127
7, 39936, Note_on_c, 9, 46, 127
7, 39936, Note_on_c, 9, 54, 127
7, 40024, Note_off_c, 9, 46, 127
7, 40024, Note_off_c, 9, 54, 127
7, 40032, Note_on_c, 9, 54, 127
7, 40108, Note_off_c, 9, 50, 127
7, 40120, Note_off_c, 9, 54, 127
7, 40128, Note_on_c, 9, 46, 127
7, 40128, Note_on_c, 9, 54, 127
7, 40216, Note_off_c, 9, 46, 127
7, 40216, Note_off_c, 9, 54, 127
7, 40224, Note_on_c, 9, 46, 127
7, 40224, Note_on_c, 9, 54, 127
7, 40312, Note_off_c, 9, 46, 127
7, 40312, Note_off_c, 9, 54, 127
7, 40320, Note_on_c, 9, 46, 127
7, 40320, Note_on_c, 9, 35, 127
7, 40320, Note_on_c, 9, 41, 127
7, 40320, Note_on_c, 9, 40, 127
7, 40320, Note_on_c, 9, 39, 127
7, 40320, Note_on_c, 9, 54, 127
7, 40408, Note_off_c, 9, 46, 127
7, 40408, Note_off_c, 9, 54, 127
7, 40416, Note_on_c, 9, 54, 127
7, 40500, Note_off_c, 9, 39, 127
7, 40504, Note_off_c, 9, 54, 127
7, 40512, Note_on_c, 9, 46, 127
7, 40512, Note_on_c, 9, 54, 127
7, 40600, Note_off_c, 9, 46, 127
7, 40600, Note_off_c, 9, 54, 127
7, 40608, Note_on_c, 9, 46, 127
7, 40608, Note_on_c, 9, 54, 127
7, 40684, Note_off_c, 9, 35, 127
7, 40684, Note_off_c, 9, 41, 127
7, 40684, Note_off_c, 9, 40, 127
7, 40696, Note_off_c, 9, 46, 127
7, 40696, Note_off_c, 9, 54, 127
7, 40704, Note_on_c, 9, 46, 127
7, 40704, Note_on_c, 9, 54, 127
7, 40792, Note_off_c, 9, 46, 127
7, 40792, Note_off_c, 9, 54, 127
7, 40800, Note_on_c, 9, 54, 127
7, 40888, Note_off_c, 9, 54, 127
7, 40896, Note_on_c, 9, 46, 127
7, 40896, Note_on_c, 9, 54, 127
7, 40984, Note_off_c, 9, 46, 127
7, 40984, Note_off_c, 9, 54, 127
7, 40992, Note_on_c, 9, 46, 127
7, 40992, Note_on_c, 9, 54, 127
7, 41080, Note_off_c, 9, 46, 127
7, 41080, Note_off_c, 9, 54, 127
7, 41088, Note_on_c, 9, 46, 127
7, 41088, Note_on_c, 9, 35, 127
7, 41088, Note_on_c, 9, 41, 127
7, 41088, Note_on_c, 9, 40, 127
7, 41088, Note_on_c, 9, 39, 127
7, 41088, Note_on_c, 9, 54, 127
7, 41176, Note_off_c, 9, 46, 127
7, 41176, Note_off_c, 9, 54, 127
7, 41184, Note_on_c, 9, 54, 127
7, 41268, Note_off_c, 9, 39, 127
7, 41272, Note_off_c, 9, 54, 127
7, 41280, Note_on_c, 9, 46, 127
7, 41280, Note_on_c, 9, 54, 127
7, 41368, Note_off_c, 9, 46, 127
7, 41368, Note_off_c, 9, 54, 127
7, 41376, Note_on_c, 9, 46, 127
7, 41376, Note_on_c, 9, 54, 127
7, 41452, Note_off_c, 9, 35, 127
7, 41452, Note_off_c, 9, 41, 127
7, 41452, Note_off_c, 9, 40, 127
7, 41464, Note_off_c, 9, 46, 127
7, 41464, Note_off_c, 9, 54, 127
7, 41472, Note_on_c, 9, 50, 127
7, 41472, Note_on_c, 9, 46, 127
7, 41472, Note_on_c, 9, 54, 127
7, 41560, Note_off_c, 9, 46, 127
7, 41560, Note_off_c, 9, 54, 127
7, 41568, Note_on_c, 9, 54, 127
7, 41644, Note_off_c, 9, 50, 127
7, 41656, Note_off_c, 9, 54, 127
7, 41664, Note_on_c, 9, 46, 127
7, 41664, Note_on_c, 9, 54, 127
7, 41752, Note_off_c, 9, 46, 127
7, 41752, Note_off_c, 9, 54, 127
7, 41760, Note_on_c, 9, 46, 127
7, 41760, Note_on_c, 9, 54, 127
7, 41848, Note_off_c, 9, 46, 127
7, 41848, Note_off_c, 9, 54, 127
7, 41856, Note_on_c, 9, 46, 127
7, 41856, Note_on_c, 9, 35, 127
7, 41856, Note_on_c, 9, 41, 127
7, 41856, Note_on_c, 9, 40, 127
7, 41856, Note_on_c, 9, 39, 127
7, 41856, Note_on_c, 9, 54, 127
7, 41944, Note_off_c, 9, 46, 127
7, 41944, Note_off_c, 9, 54, 127
7, 41952, Note_on_c, 9, 54, 127
7, 42036, Note_off_c, 9, 39, 127
7, 42040, Note_off_c, 9, 54, 127
7, 42048, Note_on_c, 9, 46, 127
7, 42048, Note_on_c, 9, 54, 127
7, 42136, Note_off_c, 9, 46, 127
7, 42136, Note_off_c, 9, 54, 127
7, 42144, Note_on_c, 9, 46, 127
7, 42144, Note_on_c, 9, 54, 127
7, 42220, Note_off_c, 9, 35, 127
7, 42220, Note_off_c, 9, 41, 127
7, 42220, Note_off_c, 9, 40, 127
7, 42232, Note_off_c, 9, 46, 127
7, 42232, Note_off_c, 9, 54, 127
7, 42240, Note_on_c, 9, 46, 127
7, 42240, Note_on_c, 9, 54, 127
7, 42328, Note_off_c, 9, 46, 127
7, 42328, Note_off_c, 9, 54, 127
7, 42336, Note_on_c, 9, 54, 127
7, 42424, Note_off_c, 9, 54, 127
7, 42432, Note_on_c, 9, 46, 127
7, 42432, Note_on_c, 9, 54, 127
7, 42520, Note_off_c, 9, 46, 127
7, 42520, Note_off_c, 9, 54, 127
7, 42528, Note_on_c, 9, 46, 127
7, 42528, Note_on_c, 9, 54, 127
7, 42616, Note_off_c, 9, 46, 127
7, 42616, Note_off_c, 9, 54, 127
7, 42624, Note_on_c, 9, 46, 127
7, 42624, Note_on_c, 9, 35, 127
7, 42624, Note_on_c, 9, 41, 127
7, 42624, Note_on_c, 9, 40, 127
7, 42624, Note_on_c, 9, 39, 127
7, 42624, Note_on_c, 9, 54, 127
7, 42712, Note_off_c, 9, 46, 127
7, 42712, Note_off_c, 9, 54, 127
7, 42720, Note_on_c, 9, 54, 127
7, 42804, Note_off_c, 9, 39, 127
7, 42808, Note_off_c, 9, 54, 127
7, 42816, Note_on_c, 9, 46, 127
7, 42816, Note_on_c, 9, 54, 127
7, 42904, Note_off_c, 9, 46, 127
7, 42904, Note_off_c, 9, 54, 127
7, 42912, Note_on_c, 9, 46, 127
7, 42912, Note_on_c, 9, 54, 127
7, 42988, Note_off_c, 9, 35, 127
7, 42988, Note_off_c, 9, 41, 127
7, 42988, Note_off_c, 9, 40, 127
7, 43000, Note_off_c, 9, 46, 127
7, 43000, Note_off_c, 9, 54, 127
7, 43008, Note_on_c, 9, 50, 127
7, 43008, Note_on_c, 9, 46, 127
7, 43008, Note_on_c, 9, 54, 127
7, 43096, Note_off_c, 9, 46, 127
7, 43096, Note_off_c, 9, 54, 127
7, 43104, Note_on_c, 9, 54, 127
7, 43180, Note_off_c, 9, 50, 127
7, 43192, Note_off_c, 9, 54, 127
7, 43200, Note_on_c, 9, 46, 127
7, 43200, Note_on_c, 9, 54, 127
7, 43288, Note_off_c, 9, 46, 127
7, 43288, Note_off_c, 9, 54, 127
7, 43296, Note_on_c, 9, 46, 127
7, 43296, Note_on_c, 9, 54, 127
7, 43384, Note_off_c, 9, 46, 127
7, 43384, Note_off_c, 9, 54, 127
7, 43392, Note_on_c, 9, 46, 127
7, 43392, Note_on_c, 9, 35, 127
7, 43392, Note_on_c, 9, 41, 127
7, 43392, Note_on_c, 9, 40, 127
7, 43392, Note_on_c, 9, 39, 127
7, 43392, Note_on_c, 9, 54, 127
7, 43480, Note_off_c, 9, 46, 127
7, 43480, Note_off_c, 9, 54, 127
7, 43488, Note_on_c, 9, 54, 127
7, 43572, Note_off_c, 9, 39, 127
7, 43576, Note_off_c, 9, 54, 127
7, 43584, Note_on_c, 9, 46, 127
7, 43584, Note_on_c, 9, 54, 127
7, 43672, Note_off_c, 9, 46, 127
7, 43672, Note_off_c, 9, 54, 127
7, 43680, Note_on_c, 9, 46, 127
7, 43680, Note_on_c, 9, 54, 127
7, 43756, Note_off_c, 9, 35, 127
7, 43756, Note_off_c, 9, 41, 127
7, 43756, Note_off_c, 9, 40, 127
7, 43768, Note_off_c, 9, 46, 127
7, 43768, Note_off_c, 9, 54, 127
7, 43776, Note_on_c, 9, 46, 127
7, 43776, Note_on_c, 9, 54, 127
7, 43864, Note_off_c, 9, 46, 127
7, 43864, Note_off_c, 9, 54, 127
7, 43872, Note_on_c, 9, 54, 127
7, 43960, Note_off_c, 9, 54, 127
7, 43968, Note_on_c, 9, 46, 127
7, 43968, Note_on_c, 9, 54, 127
7, 44056, Note_off_c, 9, 46, 127
7, 44056, Note_off_c, 9, 54, 127
7, 44064, Note_on_c, 9, 46, 127
7, 44064, Note_on_c, 9, 54, 127
7, 44152, Note_off_c, 9, 46, 127
7, 44152, Note_off_c, 9, 54, 127
7, 44160, Note_on_c, 9, 46, 127
7, 44160, Note_on_c, 9, 35, 127
7, 44160, Note_on_c, 9, 41, 127
7, 44160, Note_on_c, 9, 40, 127
7, 44160, Note_on_c, 9, 39, 127
7, 44160, Note_on_c, 9, 54, 127
7, 44248, Note_off_c, 9, 46, 127
7, 44248, Note_off_c, 9, 54, 127
7, 44256, Note_on_c, 9, 54, 127
7, 44340, Note_off_c, 9, 39, 127
7, 44344, Note_off_c, 9, 54, 127
7, 44352, Note_on_c, 9, 46, 127
7, 44352, Note_on_c, 9, 54, 127
7, 44440, Note_off_c, 9, 46, 127
7, 44440, Note_off_c, 9, 54, 127
7, 44448, Note_on_c, 9, 46, 127
7, 44448, Note_on_c, 9, 54, 127
7, 44524, Note_off_c, 9, 35, 127
7, 44524, Note_off_c, 9, 41, 127
7, 44524, Note_off_c, 9, 40, 127
7, 44536, Note_off_c, 9, 46, 127
7, 44536, Note_off_c, 9, 54, 127
7, 44544, Note_on_c, 9, 47, 127
7, 44544, Note_on_c, 9, 35, 127
7, 44544, Note_on_c, 9, 49, 127
7, 44544, Note_on_c, 9, 55, 127
7, 44544, Note_on_c, 9, 54, 127
7, 44908, Note_off_c, 9, 47, 127
7, 44908, Note_off_c, 9, 35, 127
7, 44908, Note_off_c, 9, 49, 127
7, 44908, Note_off_c, 9, 55, 127
7, 45312, Note_on_c, 9, 48, 127
7, 45492, Note_off_c, 9, 48, 127
7, 45504, Note_on_c, 9, 48, 127
7, 45684, Note_off_c, 9, 48, 127
7, 45696, Note_on_c, 9, 45, 127
7, 45824, Note_on_c, 9, 48, 127
7, 45856, Note_on_c, 9, 48, 127
7, 45876, Note_off_c, 9, 45, 127
7, 45884, Note_off_c, 9, 48, 127
7, 45888, Note_on_c, 9, 48, 127
7, 45916, Note_off_c, 9, 48, 127
7, 46000, Note_off_c, 9, 54, 127
7, 46068, Note_off_c, 9, 48, 127
7, 46080, Note_on_c, 9, 50, 127
7, 46080, Note_on_c, 9, 46, 127
7, 46080, Note_on_c, 9, 54, 127
7, 46168, Note_off_c, 9, 46, 127
7, 46168, Note_off_c, 9, 54, 127
7, 46176, Note_on_c, 9, 54, 127
7, 46252, Note_off_c, 9, 50, 127
7, 46264, Note_off_c, 9, 54, 127
7, 46272, Note_on_c, 9, 46, 127
7, 46272, Note_on_c, 9, 55, 127
7, 46272, Note_on_c, 9, 54, 127
7, 46360, Note_off_c, 9, 46, 127
7, 46360, Note_off_c, 9, 54, 127
7, 46368, Note_on_c, 9, 46, 127
7, 46368, Note_on_c, 9, 54, 127
7, 46456, Note_off_c, 9, 46, 127
7, 46456, Note_off_c, 9, 54, 127
7, 46464, Note_on_c, 9, 46, 127
7, 46464, Note_on_c, 9, 35, 127
7, 46464, Note_on_c, 9, 41, 127
7, 46464, Note_on_c, 9, 40, 127
7, 46464, Note_on_c, 9, 39, 127
7, 46464, Note_on_c, 9, 55, 127
7, 46464, Note_on_c, 9, 54, 127
7, 46552, Note_off_c, 9, 46, 127
7, 46552, Note_off_c, 9, 54, 127
7, 46560, Note_on_c, 9, 54, 127
7, 46636, Note_off_c, 9, 55, 127
7, 46644, Note_off_c, 9, 39, 127
7, 46648, Note_off_c, 9, 54, 127
7, 46656, Note_on_c, 9, 46, 127
7, 46656, Note_on_c, 9, 54, 127
7, 46744, Note_off_c, 9, 46, 127
7, 46744, Note_off_c, 9, 54, 127
7, 46752, Note_on_c, 9, 46, 127
7, 46752, Note_on_c, 9, 54, 127
7, 46828, Note_off_c, 9, 35, 127
7, 46828, Note_off_c, 9, 41, 127
7, 46828, Note_off_c, 9, 40, 127
7, 46828, Note_off_c, 9, 55, 127
7, 46840, Note_off_c, 9, 46, 127
7, 46840, Note_off_c, 9, 54, 127
7, 46848, Note_on_c, 9, 46, 127
7, 46848, Note_on_c, 9, 54, 127
7, 46936, Note_off_c, 9, 46, 127
7, 46936, Note_off_c, 9, 54, 127
7, 46944, Note_on_c, 9, 54, 127
7, 47032, Note_off_c, 9, 54, 127
7, 47040, Note_on_c, 9, 46, 127
7, 47040, Note_on_c, 9, 54, 127
7, 47128, Note_off_c, 9, 46, 127
7, 47128, Note_off_c, 9, 54, 127
7, 47136, Note_on_c, 9, 46, 127
7, 47136, Note_on_c, 9, 54, 127
7, 47224, Note_off_c, 9, 46, 127
7, 47224, Note_off_c, 9, 54, 127
7, 47232, Note_on_c, 9, 46, 127
7, 47232, Note_on_c, 9, 35, 127
7, 47232, Note_on_c, 9, 41, 127
7, 47232, Note_on_c, 9, 40, 127
7, 47232, Note_on_c, 9, 39, 127
7, 47232, Note_on_c, 9, 54, 127
7, 47320, Note_off_c, 9, 46, 127
7, 47320, Note_off_c, 9, 54, 127
7, 47328, Note_on_c, 9, 54, 127
7, 47412, Note_off_c, 9, 39, 127
7, 47416, Note_off_c, 9, 54, 127
7, 47424, Note_on_c, 9, 46, 127
7, 47424, Note_on_c, 9, 54, 127
7, 47512, Note_off_c, 9, 46, 127
7, 47512, Note_off_c, 9, 54, 127
7, 47520, Note_on_c, 9, 46, 127
7, 47520, Note_on_c, 9, 54, 127
7, 47596, Note_off_c, 9, 35, 127
7, 47596, Note_off_c, 9, 41, 127
7, 47596, Note_off_c, 9, 40, 127
7, 47608, Note_off_c, 9, 46, 127
7, 47608, Note_off_c, 9, 54, 127
7, 47616, Note_on_c, 9, 50, 127
7, 47616, Note_on_c, 9, 46, 127
7, 47616, Note_on_c, 9, 54, 127
7, 47704, Note_off_c, 9, 46, 127
7, 47704, Note_off_c, 9, 54, 127
7, 47712, Note_on_c, 9, 54, 127
7, 47788, Note_off_c, 9, 50, 127
7, 47800, Note_off_c, 9, 54, 127
7, 47808, Note_on_c, 9, 46, 127
7, 47808, Note_on_c, 9, 54, 127
7, 47896, Note_off_c, 9, 46, 127
7, 47896, Note_off_c, 9, 54, 127
7, 47904, Note_on_c, 9, 46, 127
7, 47904, Note_on_c, 9, 54, 127
7, 47992, Note_off_c, 9, 46, 127
7, 47992, Note_off_c, 9, 54, 127
7, 48000, Note_on_c, 9, 46, 127
7, 48000, Note_on_c, 9, 35, 127
7, 48000, Note_on_c, 9, 41, 127
7, 48000, Note_on_c, 9, 40, 127
7, 48000, Note_on_c, 9, 39, 127
7, 48000, Note_on_c, 9, 54, 127
7, 48088, Note_off_c, 9, 46, 127
7, 48088, Note_off_c, 9, 54, 127
7, 48096, Note_on_c, 9, 54, 127
7, 48180, Note_off_c, 9, 39, 127
7, 48184, Note_off_c, 9, 54, 127
7, 48192, Note_on_c, 9, 46, 127
7, 48192, Note_on_c, 9, 54, 127
7, 48280, Note_off_c, 9, 46, 127
7, 48280, Note_off_c, 9, 54, 127
7, 48288, Note_on_c, 9, 46, 127
7, 48288, Note_on_c, 9, 54, 127
7, 48364, Note_off_c, 9, 35, 127
7, 48364, Note_off_c, 9, 41, 127
7, 48364, Note_off_c, 9, 40, 127
7, 48376, Note_off_c, 9, 46, 127
7, 48376, Note_off_c, 9, 54, 127
7, 48384, Note_on_c, 9, 46, 127
7, 48384, Note_on_c, 9, 54, 127
7, 48472, Note_off_c, 9, 46, 127
7, 48472, Note_off_c, 9, 54, 127
7, 48480, Note_on_c, 9, 54, 127
7, 48568, Note_off_c, 9, 54, 127
7, 48576, Note_on_c, 9, 46, 127
7, 48576, Note_on_c, 9, 54, 127
7, 48664, Note_off_c, 9, 46, 127
7, 48664, Note_off_c, 9, 54, 127
7, 48672, Note_on_c, 9, 46, 127
7, 48672, Note_on_c, 9, 54, 127
7, 48760, Note_off_c, 9, 46, 127
7, 48760, Note_off_c, 9, 54, 127
7, 48768, Note_on_c, 9, 46, 127
7, 48768, Note_on_c, 9, 35, 127
7, 48768, Note_on_c, 9, 41, 127
7, 48768, Note_on_c, 9, 40, 127
7, 48768, Note_on_c, 9, 39, 127
7, 48768, Note_on_c, 9, 54, 127
7, 48856, Note_off_c, 9, 46, 127
7, 48856, Note_off_c, 9, 54, 127
7, 48864, Note_on_c, 9, 54, 127
7, 48948, Note_off_c, 9, 39, 127
7, 48952, Note_off_c, 9, 54, 127
7, 48960, Note_on_c, 9, 46, 127
7, 48960, Note_on_c, 9, 54, 127
7, 49048, Note_off_c, 9, 46, 127
7, 49048, Note_off_c, 9, 54, 127
7, 49056, Note_on_c, 9, 46, 127
7, 49056, Note_on_c, 9, 54, 127
7, 49132, Note_off_c, 9, 35, 127
7, 49132, Note_off_c, 9, 41, 127
7, 49132, Note_off_c, 9, 40, 127
7, 49144, Note_off_c, 9, 46, 127
7, 49144, Note_off_c, 9, 54, 127
7, 49152, Note_on_c, 9, 50, 127
7, 49152, Note_on_c, 9, 46, 127
7, 49152, Note_on_c, 9, 54, 127
7, 49240, Note_off_c, 9, 46, 127
7, 49240, Note_off_c, 9, 54, 127
7, 49248, Note_on_c, 9, 54, 127
7, 49324, Note_off_c, 9, 50, 127
7, 49336, Note_off_c, 9, 54, 127
7, 49344, Note_on_c, 9, 46, 127
7, 49344, Note_on_c, 9, 54, 127
7, 49432, Note_off_c, 9, 46, 127
7, 49432, Note_off_c, 9, 54, 127
7, 49440, Note_on_c, 9, 46, 127
7, 49440, Note_on_c, 9, 54, 127
7, 49528, Note_off_c, 9, 46, 127
7, 49528, Note_off_c, 9, 54, 127
7, 49536, Note_on_c, 9, 46, 127
7, 49536, Note_on_c, 9, 35, 127
7, 49536, Note_on_c, 9, 41, 127
7, 49536, Note_on_c, 9, 40, 127
7, 49536, Note_on_c, 9, 39, 127
7, 49536, Note_on_c, 9, 54, 127
7, 49624, Note_off_c, 9, 46, 127
7, 49624, Note_off_c, 9, 54, 127
7, 49632, Note_on_c, 9, 54, 127
7, 49716, Note_off_c, 9, 39, 127
7, 49720, Note_off_c, 9, 54, 127
7, 49728, Note_on_c, 9, 46, 127
7, 49728, Note_on_c, 9, 54, 127
7, 49816, Note_off_c, 9, 46, 127
7, 49816, Note_off_c, 9, 54, 127
7, 49824, Note_on_c, 9, 46, 127
7, 49824, Note_on_c, 9, 54, 127
7, 49900, Note_off_c, 9, 35, 127
7, 49900, Note_off_c, 9, 41, 127
7, 49900, Note_off_c, 9, 40, 127
7, 49912, Note_off_c, 9, 46, 127
7, 49912, Note_off_c, 9, 54, 127
7, 49920, Note_on_c, 9, 46, 127
7, 49920, Note_on_c, 9, 54, 127
7, 50008, Note_off_c, 9, 46, 127
7, 50008, Note_off_c, 9, 54, 127
7, 50016, Note_on_c, 9, 54, 127
7, 50104, Note_off_c, 9, 54, 127
7, 50112, Note_on_c, 9, 46, 127
7, 50112, Note_on_c, 9, 54, 127
7, 50200, Note_off_c, 9, 46, 127
7, 50200, Note_off_c, 9, 54, 127
7, 50208, Note_on_c, 9, 46, 127
7, 50208, Note_on_c, 9, 54, 127
7, 50296, Note_off_c, 9, 46, 127
7, 50296, Note_off_c, 9, 54, 127
7, 50304, Note_on_c, 9, 46, 127
7, 50304, Note_on_c, 9, 35, 127
7, 50304, Note_on_c, 9, 41, 127
7, 50304, Note_on_c, 9, 40, 127
7, 50304, Note_on_c, 9, 39, 127
7, 50304, Note_on_c, 9, 54, 127
7, 50392, Note_off_c, 9, 46, 127
7, 50392, Note_off_c, 9, 54, 127
7, 50400, Note_on_c, 9, 54, 127
7, 50484, Note_off_c, 9, 39, 127
7, 50488, Note_off_c, 9, 54, 127
7, 50496, Note_on_c, 9, 46, 127
7, 50496, Note_on_c, 9, 54, 127
7, 50584, Note_off_c, 9, 46, 127
7, 50584, Note_off_c, 9, 54, 127
7, 50592, Note_on_c, 9, 46, 127
7, 50592, Note_on_c, 9, 54, 127
7, 50668, Note_off_c, 9, 35, 127
7, 50668, Note_off_c, 9, 41, 127
7, 50668, Note_off_c, 9, 40, 127
7, 50680, Note_off_c, 9, 46, 127
7, 50680, Note_off_c, 9, 54, 127
7, 50688, Note_on_c, 9, 50, 127
7, 50688, Note_on_c, 9, 46, 127
7, 50688, Note_on_c, 9, 54, 127
7, 50776, Note_off_c, 9, 46, 127
7, 50776, Note_off_c, 9, 54, 127
7, 50784, Note_on_c, 9, 54, 127
7, 50860, Note_off_c, 9, 50, 127
7, 50872, Note_off_c, 9, 54, 127
7, 50880, Note_on_c, 9, 46, 127
7, 50880, Note_on_c, 9, 54, 127
7, 50968, Note_off_c, 9, 46, 127
7, 50968, Note_off_c, 9, 54, 127
7, 50976, Note_on_c, 9, 46, 127
7, 50976, Note_on_c, 9, 54, 127
7, 51064, Note_off_c, 9, 46, 127
7, 51064, Note_off_c, 9, 54, 127
7, 51072, Note_on_c, 9, 35, 127
7, 51072, Note_on_c, 9, 41, 127
7, 51072, Note_on_c, 9, 48, 127
7, 51072, Note_on_c, 9, 35, 127
7, 51072, Note_on_c, 9, 41, 127
7, 51072, Note_on_c, 9, 40, 127
7, 51072, Note_on_c, 9, 39, 127
7, 51072, Note_on_c, 9, 55, 127
7, 51072, Note_on_c, 9, 46, 127
7, 51072, Note_on_c, 9, 54, 127
7, 51160, Note_off_c, 9, 46, 127
7, 51160, Note_off_c, 9, 54, 127
7, 51168, Note_on_c, 9, 54, 127
7, 51252, Note_off_c, 9, 48, 127
7, 51252, Note_off_c, 9, 39, 127
7, 51256, Note_off_c, 9, 54, 127
7, 51264, Note_on_c, 9, 46, 127
7, 51264, Note_on_c, 9, 54, 127
7, 51352, Note_off_c, 9, 46, 127
7, 51352, Note_off_c, 9, 54, 127
7, 51360, Note_on_c, 9, 46, 127
7, 51360, Note_on_c, 9, 54, 127
7, 51436, Note_off_c, 9, 35, 127
7, 51436, Note_off_c, 9, 41, 127
7, 51436, Note_off_c, 9, 35, 127
7, 51436, Note_off_c, 9, 41, 127
7, 51436, Note_off_c, 9, 40, 127
7, 51436, Note_off_c, 9, 55, 127
7, 51448, Note_off_c, 9, 46, 127
7, 51448, Note_off_c, 9, 54, 127
7, 51456, Note_on_c, 9, 35, 127
7, 51456, Note_on_c, 9, 41, 127
7, 51456, Note_on_c, 9, 48, 127
7, 51456, Note_on_c, 9, 55, 127
7, 51456, Note_on_c, 9, 46, 127
7, 51456, Note_on_c, 9, 54, 127
7, 51544, Note_off_c, 9, 46, 127
7, 51544, Note_off_c, 9, 54, 127
7, 51552, Note_on_c, 9, 54, 127
7, 51636, Note_off_c, 9, 48, 127
7, 51640, Note_off_c, 9, 54, 127
7, 51648, Note_on_c, 9, 35, 127
7, 51648, Note_on_c, 9, 41, 127
7, 51648, Note_on_c, 9, 48, 127
7, 51648, Note_on_c, 9, 55, 127
7, 51648, Note_on_c, 9, 46, 127
7, 51648, Note_on_c, 9, 54, 127
7, 51736, Note_off_c, 9, 46, 127
7, 51736, Note_off_c, 9, 54, 127
7, 51744, Note_on_c, 9, 46, 127
7, 51744, Note_on_c, 9, 54, 127
7, 51820, Note_off_c, 9, 35, 127
7, 51820, Note_off_c, 9, 41, 127
7, 51820, Note_off_c, 9, 55, 127
7, 51828, Note_off_c, 9, 48, 127
7, 51832, Note_off_c, 9, 46, 127
7, 51832, Note_off_c, 9, 54, 127
7, 51840, Note_on_c, 9, 35, 127
7, 51840, Note_on_c, 9, 41, 127
7, 51840, Note_on_c, 9, 48, 127
7, 51840, Note_on_c, 9, 35, 127
7, 51840, Note_on_c, 9, 41, 127
7, 51840, Note_on_c, 9, 40, 127
7, 51840, Note_on_c, 9, 39, 127
7, 51840, Note_on_c, 9, 55, 127
7, 51840, Note_on_c, 9, 46, 127
7, 51840, Note_on_c, 9, 54, 127
7, 51928, Note_off_c, 9, 46, 127
7, 51928, Note_off_c, 9, 54, 127
7, 51936, Note_on_c, 9, 54, 127
7, 52012, Note_off_c, 9, 35, 127
7, 52012, Note_off_c, 9, 41, 127
7, 52012, Note_off_c, 9, 55, 127
7, 52020, Note_off_c, 9, 48, 127
7, 52020, Note_off_c, 9, 39, 127
7, 52024, Note_off_c, 9, 54, 127
7, 52032, Note_on_c, 9, 35, 127
7, 52032, Note_on_c, 9, 48, 127
7, 52032, Note_on_c, 9, 41, 127
7, 52032, Note_on_c, 9, 55, 127
7, 52032, Note_on_c, 9, 46, 127
7, 52032, Note_on_c, 9, 54, 127
7, 52120, Note_off_c, 9, 46, 127
7, 52120, Note_off_c, 9, 54, 127
7, 52128, Note_on_c, 9, 46, 127
7, 52128, Note_on_c, 9, 54, 127
7, 52204, Note_off_c, 9, 35, 127
7, 52204, Note_off_c, 9, 41, 127
7, 52204, Note_off_c, 9, 35, 127
7, 52204, Note_off_c, 9, 41, 127
7, 52204, Note_off_c, 9, 40, 127
7, 52204, Note_off_c, 9, 55, 127
7, 52212, Note_off_c, 9, 35, 127
7, 52212, Note_off_c, 9, 48, 127
7, 52212, Note_off_c, 9, 41, 127
7, 52216, Note_off_c, 9, 46, 127
7, 52216, Note_off_c, 9, 54, 127
7, 52224, Note_on_c, 9, 50, 127
7, 52224, Note_on_c, 9, 46, 127
7, 52224, Note_on_c, 9, 54, 127
7, 52312, Note_off_c, 9, 46, 127
7, 52312, Note_off_c, 9, 54, 127
7, 52320, Note_on_c, 9, 54, 127
7, 52396, Note_off_c, 9, 55, 127
7, 52396, Note_off_c, 9, 50, 127
7, 52408, Note_off_c, 9, 54, 127
7, 52416, Note_on_c, 9, 46, 127
7, 52416, Note_on_c, 9, 54, 127
7, 52504, Note_off_c, 9, 46, 127
7, 52504, Note_off_c, 9, 54, 127
7, 52512, Note_on_c, 9, 46, 127
7, 52512, Note_on_c, 9, 54, 127
7, 52600, Note_off_c, 9, 46, 127
7, 52600, Note_off_c, 9, 54, 127
7, 52608, Note_on_c, 9, 46, 127
7, 52608, Note_on_c, 9, 35, 127
7, 52608, Note_on_c, 9, 41, 127
7, 52608, Note_on_c, 9, 40, 127
7, 52608, Note_on_c, 9, 39, 127
7, 52608, Note_on_c, 9, 54, 127
7, 52696, Note_off_c, 9, 46, 127
7, 52696, Note_off_c, 9, 54, 127
7, 52704, Note_on_c, 9, 54, 127
7, 52788, Note_off_c, 9, 39, 127
7, 52792, Note_off_c, 9, 54, 127
7, 52800, Note_on_c, 9, 46, 127
7, 52800, Note_on_c, 9, 54, 127
7, 52888, Note_off_c, 9, 46, 127
7, 52888, Note_off_c, 9, 54, 127
7, 52896, Note_on_c, 9, 46, 127
7, 52896, Note_on_c, 9, 54, 127
7, 52972, Note_off_c, 9, 35, 127
7, 52972, Note_off_c, 9, 41, 127
7, 52972, Note_off_c, 9, 40, 127
7, 52984, Note_off_c, 9, 46, 127
7, 52984, Note_off_c, 9, 54, 127
7, 52992, Note_on_c, 9, 46, 127
7, 52992, Note_on_c, 9, 54, 127
7, 53080, Note_off_c, 9, 46, 127
7, 53080, Note_off_c, 9, 54, 127
7, 53088, Note_on_c, 9, 54, 127
7, 53176, Note_off_c, 9, 54, 127
7, 53184, Note_on_c, 9, 46, 127
7, 53184, Note_on_c, 9, 54, 127
7, 53272, Note_off_c, 9, 46, 127
7, 53272, Note_off_c, 9, 54, 127
7, 53280, Note_on_c, 9, 46, 127
7, 53280, Note_on_c, 9, 54, 127
7, 53368, Note_off_c, 9, 46, 127
7, 53368, Note_off_c, 9, 54, 127
7, 53376, Note_on_c, 9, 46, 127
7, 53376, Note_on_c, 9, 35, 127
7, 53376, Note_on_c, 9, 41, 127
7, 53376, Note_on_c, 9, 40, 127
7, 53376, Note_on_c, 9, 39, 127
7, 53376, Note_on_c, 9, 54, 127
7, 53464, Note_off_c, 9, 46, 127
7, 53464, Note_off_c, 9, 54, 127
7, 53472, Note_on_c, 9, 54, 127
7, 53556, Note_off_c, 9, 39, 127
7, 53560, Note_off_c, 9, 54, 127
7, 53568, Note_on_c, 9, 46, 127
7, 53568, Note_on_c, 9, 54, 127
7, 53656, Note_off_c, 9, 46, 127
7, 53656, Note_off_c, 9, 54, 127
7, 53664, Note_on_c, 9, 46, 127
7, 53664, Note_on_c, 9, 54, 127
7, 53740, Note_off_c, 9, 35, 127
7, 53740, Note_off_c, 9, 41, 127
7, 53740, Note_off_c, 9, 40, 127
7, 53752, Note_off_c, 9, 46, 127
7, 53752, Note_off_c, 9, 54, 127
7, 53760, Note_on_c, 9, 50, 127
7, 53760, Note_on_c, 9, 46, 127
7, 53760, Note_on_c, 9, 54, 127
7, 53848, Note_off_c, 9, 46, 127
7, 53848, Note_off_c, 9, 54, 127
7, 53856, Note_on_c, 9, 54, 127
7, 53932, Note_off_c, 9, 50, 127
7, 53944, Note_off_c, 9, 54, 127
7, 53952, Note_on_c, 9, 46, 127
7, 53952, Note_on_c, 9, 54, 127
7, 54040, Note_off_c, 9, 46, 127
7, 54040, Note_off_c, 9, 54, 127
7, 54048, Note_on_c, 9, 46, 127
7, 54048, Note_on_c, 9, 54, 127
7, 54136, Note_off_c, 9, 46, 127
7, 54136, Note_off_c, 9, 54, 127
7, 54144, Note_on_c, 9, 46, 127
7, 54144, Note_on_c, 9, 35, 127
7, 54144, Note_on_c, 9, 41, 127
7, 54144, Note_on_c, 9, 40, 127
7, 54144, Note_on_c, 9, 39, 127
7, 54144, Note_on_c, 9, 54, 127
7, 54232, Note_off_c, 9, 46, 127
7, 54232, Note_off_c, 9, 54, 127
7, 54240, Note_on_c, 9, 54, 127
7, 54324, Note_off_c, 9, 39, 127
7, 54328, Note_off_c, 9, 54, 127
7, 54336, Note_on_c, 9, 46, 127
7, 54336, Note_on_c, 9, 54, 127
7, 54424, Note_off_c, 9, 46, 127
7, 54424, Note_off_c, 9, 54, 127
7, 54432, Note_on_c, 9, 46, 127
7, 54432, Note_on_c, 9, 54, 127
7, 54508, Note_off_c, 9, 35, 127
7, 54508, Note_off_c, 9, 41, 127
7, 54508, Note_off_c, 9, 40, 127
7, 54520, Note_off_c, 9, 46, 127
7, 54520, Note_off_c, 9, 54, 127
7, 54528, Note_on_c, 9, 46, 127
7, 54528, Note_on_c, 9, 54, 127
7, 54616, Note_off_c, 9, 46, 127
7, 54616, Note_off_c, 9, 54, 127
7, 54624, Note_on_c, 9, 54, 127
7, 54712, Note_off_c, 9, 54, 127
7, 54720, Note_on_c, 9, 46, 127
7, 54720, Note_on_c, 9, 54, 127
7, 54808, Note_off_c, 9, 46, 127
7, 54808, Note_off_c, 9, 54, 127
7, 54816, Note_on_c, 9, 46, 127
7, 54816, Note_on_c, 9, 54, 127
7, 54904, Note_off_c, 9, 46, 127
7, 54904, Note_off_c, 9, 54, 127
7, 54912, Note_on_c, 9, 46, 127
7, 54912, Note_on_c, 9, 35, 127
7, 54912, Note_on_c, 9, 41, 127
7, 54912, Note_on_c, 9, 40, 127
7, 54912, Note_on_c, 9, 39, 127
7, 54912, Note_on_c, 9, 54, 127
7, 55000, Note_off_c, 9, 46, 127
7, 55000, Note_off_c, 9, 54, 127
7, 55008, Note_on_c, 9, 54, 127
7, 55092, Note_off_c, 9, 39, 127
7, 55096, Note_off_c, 9, 54, 127
7, 55104, Note_on_c, 9, 46, 127
7, 55104, Note_on_c, 9, 54, 127
7, 55192, Note_off_c, 9, 46, 127
7, 55192, Note_off_c, 9, 54, 127
7, 55200, Note_on_c, 9, 46, 127
7, 55200, Note_on_c, 9, 54, 127
7, 55276, Note_off_c, 9, 35, 127
7, 55276, Note_off_c, 9, 41, 127
7, 55276, Note_off_c, 9, 40, 127
7, 55288, Note_off_c, 9, 46, 127
7, 55288, Note_off_c, 9, 54, 127
7, 55296, Note_on_c, 9, 50, 127
7, 55296, Note_on_c, 9, 46, 127
7, 55296, Note_on_c, 9, 54, 127
7, 55384, Note_off_c, 9, 46, 127
7, 55384, Note_off_c, 9, 54, 127
7, 55392, Note_on_c, 9, 54, 127
7, 55468, Note_off_c, 9, 50, 127
7, 55480, Note_off_c, 9, 54, 127
7, 55488, Note_on_c, 9, 46, 127
7, 55488, Note_on_c, 9, 54, 127
7, 55576, Note_off_c, 9, 46, 127
7, 55576, Note_off_c, 9, 54, 127
7, 55584, Note_on_c, 9, 46, 127
7, 55584, Note_on_c, 9, 54, 127
7, 55672, Note_off_c, 9, 46, 127
7, 55672, Note_off_c, 9, 54, 127
7, 55680, Note_on_c, 9, 46, 127
7, 55680, Note_on_c, 9, 35, 127
7, 55680, Note_on_c, 9, 41, 127
7, 55680, Note_on_c, 9, 40, 127
7, 55680, Note_on_c, 9, 39, 127
7, 55680, Note_on_c, 9, 54, 127
7, 55768, Note_off_c, 9, 46, 127
7, 55768, Note_off_c, 9, 54, 127
7, 55776, Note_on_c, 9, 54, 127
7, 55860, Note_off_c, 9, 39, 127
7, 55864, Note_off_c, 9, 54, 127
7, 55872, Note_on_c, 9, 46, 127
7, 55872, Note_on_c, 9, 54, 127
7, 55960, Note_off_c, 9, 46, 127
7, 55960, Note_off_c, 9, 54, 127
7, 55968, Note_on_c, 9, 46, 127
7, 55968, Note_on_c, 9, 54, 127
7, 56044, Note_off_c, 9, 35, 127
7, 56044, Note_off_c, 9, 41, 127
7, 56044, Note_off_c, 9, 40, 127
7, 56056, Note_off_c, 9, 46, 127
7, 56056, Note_off_c, 9, 54, 127
7, 56064, Note_on_c, 9, 46, 127
7, 56064, Note_on_c, 9, 54, 127
7, 56152, Note_off_c, 9, 46, 127
7, 56152, Note_off_c, 9, 54, 127
7, 56160, Note_on_c, 9, 54, 127
7, 56248, Note_off_c, 9, 54, 127
7, 56256, Note_on_c, 9, 46, 127
7, 56256, Note_on_c, 9, 54, 127
7, 56344, Note_off_c, 9, 46, 127
7, 56344, Note_off_c, 9, 54, 127
7, 56352, Note_on_c, 9, 46, 127
7, 56352, Note_on_c, 9, 54, 127
7, 56440, Note_off_c, 9, 46, 127
7, 56440, Note_off_c, 9, 54, 127
7, 56448, Note_on_c, 9, 46, 127
7, 56448, Note_on_c, 9, 35, 127
7, 56448, Note_on_c, 9, 41, 127
7, 56448, Note_on_c, 9, 40, 127
7, 56448, Note_on_c, 9, 39, 127
7, 56448, Note_on_c, 9, 54, 127
7, 56536, Note_off_c, 9, 46, 127
7, 56536, Note_off_c, 9, 54, 127
7, 56544, Note_on_c, 9, 54, 127
7, 56628, Note_off_c, 9, 39, 127
7, 56632, Note_off_c, 9, 54, 127
7, 56640, Note_on_c, 9, 46, 127
7, 56640, Note_on_c, 9, 54, 127
7, 56728, Note_off_c, 9, 46, 127
7, 56728, Note_off_c, 9, 54, 127
7, 56736, Note_on_c, 9, 46, 127
7, 56736, Note_on_c, 9, 54, 127
7, 56812, Note_off_c, 9, 35, 127
7, 56812, Note_off_c, 9, 41, 127
7, 56812, Note_off_c, 9, 40, 127
7, 56824, Note_off_c, 9, 46, 127
7, 56824, Note_off_c, 9, 54, 127
7, 56832, Note_on_c, 9, 50, 127
7, 56832, Note_on_c, 9, 46, 127
7, 56832, Note_on_c, 9, 54, 127
7, 56920, Note_off_c, 9, 46, 127
7, 56920, Note_off_c, 9, 54, 127
7, 56928, Note_on_c, 9, 54, 127
7, 57004, Note_off_c, 9, 50, 127
7, 57016, Note_off_c, 9, 54, 127
7, 57024, Note_on_c, 9, 46, 127
7, 57024, Note_on_c, 9, 54, 127
7, 57112, Note_off_c, 9, 46, 127
7, 57112, Note_off_c, 9, 54, 127
7, 57120, Note_on_c, 9, 46, 127
7, 57120, Note_on_c, 9, 54, 127
7, 57208, Note_off_c, 9, 46, 127
7, 57208, Note_off_c, 9, 54, 127
7, 57216, Note_on_c, 9, 46, 127
7, 57216, Note_on_c, 9, 35, 127
7, 57216, Note_on_c, 9, 41, 127
7, 57216, Note_on_c, 9, 40, 127
7, 57216, Note_on_c, 9, 39, 127
7, 57216, Note_on_c, 9, 54, 127
7, 57304, Note_off_c, 9, 46, 127
7, 57304, Note_off_c, 9, 54, 127
7, 57312, Note_on_c, 9, 54, 127
7, 57396, Note_off_c, 9, 39, 127
7, 57400, Note_off_c, 9, 54, 127
7, 57408, Note_on_c, 9, 46, 127
7, 57408, Note_on_c, 9, 54, 127
7, 57496, Note_off_c, 9, 46, 127
7, 57496, Note_off_c, 9, 54, 127
7, 57504, Note_on_c, 9, 46, 127
7, 57504, Note_on_c, 9, 54, 127
7, 57580, Note_off_c, 9, 35, 127
7, 57580, Note_off_c, 9, 41, 127
7, 57580, Note_off_c, 9, 40, 127
7, 57592, Note_off_c, 9, 46, 127
7, 57592, Note_off_c, 9, 54, 127
7, 57600, Note_on_c, 9, 46, 127
7, 57600, Note_on_c, 9, 54, 127
7, 57688, Note_off_c, 9, 46, 127
7, 57688, Note_off_c, 9, 54, 127
7, 57696, Note_on_c, 9, 54, 127
7, 57784, Note_off_c, 9, 54, 127
7, 57792, Note_on_c, 9, 46, 127
7, 57792, Note_on_c, 9, 54, 127
7, 57880, Note_off_c, 9, 46, 127
7, 57880, Note_off_c, 9, 54, 127
7, 57888, Note_on_c, 9, 46, 127
7, 57888, Note_on_c, 9, 54, 127
7, 57976, Note_off_c, 9, 46, 127
7, 57976, Note_off_c, 9, 54, 127
7, 57984, Note_on_c, 9, 46, 127
7, 57984, Note_on_c, 9, 35, 127
7, 57984, Note_on_c, 9, 41, 127
7, 57984, Note_on_c, 9, 40, 127
7, 57984, Note_on_c, 9, 39, 127
7, 57984, Note_on_c, 9, 54, 127
7, 58072, Note_off_c, 9, 46, 127
7, 58072, Note_off_c, 9, 54, 127
7, 58080, Note_on_c, 9, 54, 127
7, 58164, Note_off_c, 9, 39, 127
7, 58168, Note_off_c, 9, 54, 127
7, 58176, Note_on_c, 9, 46, 127
7, 58176, Note_on_c, 9, 54, 127
7, 58264, Note_off_c, 9, 46, 127
7, 58264, Note_off_c, 9, 54, 127
7, 58272, Note_on_c, 9, 46, 127
7, 58272, Note_on_c, 9, 54, 127
7, 58348, Note_off_c, 9, 35, 127
7, 58348, Note_off_c, 9, 41, 127
7, 58348, Note_off_c, 9, 40, 127
7, 58360, Note_off_c, 9, 46, 127
7, 58360, Note_off_c, 9, 54, 127
7, 58368, Note_on_c, 9, 50, 127
7, 58368, Note_on_c, 9, 46, 127
7, 58368, Note_on_c, 9, 54, 127
7, 58456, Note_off_c, 9, 46, 127
7, 58456, Note_off_c, 9, 54, 127
7, 58464, Note_on_c, 9, 54, 127
7, 58540, Note_off_c, 9, 50, 127
7, 58552, Note_off_c, 9, 54, 127
7, 58560, Note_on_c, 9, 46, 127
7, 58560, Note_on_c, 9, 54, 127
7, 58648, Note_off_c, 9, 46, 127
7, 58648, Note_off_c, 9, 54, 127
7, 58656, Note_on_c, 9, 46, 127
7, 58656, Note_on_c, 9, 54, 127
7, 58744, Note_off_c, 9, 46, 127
7, 58744, Note_off_c, 9, 54, 127
7, 58752, Note_on_c, 9, 46, 127
7, 58752, Note_on_c, 9, 35, 127
7, 58752, Note_on_c, 9, 41, 127
7, 58752, Note_on_c, 9, 40, 127
7, 58752, Note_on_c, 9, 39, 127
7, 58752, Note_on_c, 9, 54, 127
7, 58840, Note_off_c, 9, 46, 127
7, 58840, Note_off_c, 9, 54, 127
7, 58848, Note_on_c, 9, 54, 127
7, 58932, Note_off_c, 9, 39, 127
7, 58936, Note_off_c, 9, 54, 127
7, 58944, Note_on_c, 9, 46, 127
7, 58944, Note_on_c, 9, 54, 127
7, 59032, Note_off_c, 9, 46, 127
7, 59032, Note_off_c, 9, 54, 127
7, 59040, Note_on_c, 9, 46, 127
7, 59040, Note_on_c, 9, 54, 127
7, 59116, Note_off_c, 9, 35, 127
7, 59116, Note_off_c, 9, 41, 127
7, 59116, Note_off_c, 9, 40, 127
7, 59128, Note_off_c, 9, 46, 127
7, 59128, Note_off_c, 9, 54, 127
7, 59136, Note_on_c, 9, 46, 127
7, 59136, Note_on_c, 9, 54, 127
7, 59224, Note_off_c, 9, 46, 127
7, 59224, Note_off_c, 9, 54, 127
7, 59232, Note_on_c, 9, 54, 127
7, 59320, Note_off_c, 9, 54, 127
7, 59328, Note_on_c, 9, 46, 127
7, 59328, Note_on_c, 9, 54, 127
7, 59416, Note_off_c, 9, 46, 127
7, 59416, Note_off_c, 9, 54, 127
7, 59424, Note_on_c, 9, 46, 127
7, 59424, Note_on_c, 9, 54, 127
7, 59512, Note_off_c, 9, 46, 127
7, 59512, Note_off_c, 9, 54, 127
7, 59520, Note_on_c, 9, 46, 127
7, 59520, Note_on_c, 9, 35, 127
7, 59520, Note_on_c, 9, 41, 127
7, 59520, Note_on_c, 9, 40, 127
7, 59520, Note_on_c, 9, 39, 127
7, 59520, Note_on_c, 9, 54, 127
7, 59608, Note_off_c, 9, 46, 127
7, 59608, Note_off_c, 9, 54, 127
7, 59616, Note_on_c, 9, 54, 127
7, 59700, Note_off_c, 9, 39, 127
7, 59704, Note_off_c, 9, 54, 127
7, 59712, Note_on_c, 9, 46, 127
7, 59712, Note_on_c, 9, 54, 127
7, 59800, Note_off_c, 9, 46, 127
7, 59800, Note_off_c, 9, 54, 127
7, 59808, Note_on_c, 9, 46, 127
7, 59808, Note_on_c, 9, 54, 127
7, 59884, Note_off_c, 9, 35, 127
7, 59884, Note_off_c, 9, 41, 127
7, 59884, Note_off_c, 9, 40, 127
7, 59896, Note_off_c, 9, 46, 127
7, 59896, Note_off_c, 9, 54, 127
7, 59904, Note_on_c, 9, 50, 127
7, 59904, Note_on_c, 9, 46, 127
7, 59904, Note_on_c, 9, 54, 127
7, 59992, Note_off_c, 9, 46, 127
7, 59992, Note_off_c, 9, 54, 127
7, 60000, Note_on_c, 9, 54, 127
7, 60076, Note_off_c, 9, 50, 127
7, 60088, Note_off_c, 9, 54, 127
7, 60096, Note_on_c, 9, 46, 127
7, 60096, Note_on_c, 9, 54, 127
7, 60184, Note_off_c, 9, 46, 127
7, 60184, Note_off_c, 9, 54, 127
7, 60192, Note_on_c, 9, 46, 127
7, 60192, Note_on_c, 9, 54, 127
7, 60280, Note_off_c, 9, 46, 127
7, 60280, Note_off_c, 9, 54, 127
7, 60288, Note_on_c, 9, 46, 127
7, 60288, Note_on_c, 9, 35, 127
7, 60288, Note_on_c, 9, 41, 127
7, 60288, Note_on_c, 9, 40, 127
7, 60288, Note_on_c, 9, 39, 127
7, 60288, Note_on_c, 9, 54, 127
7, 60376, Note_off_c, 9, 46, 127
7, 60376, Note_off_c, 9, 54, 127
7, 60384, Note_on_c, 9, 54, 127
7, 60468, Note_off_c, 9, 39, 127
7, 60472, Note_off_c, 9, 54, 127
7, 60480, Note_on_c, 9, 46, 127
7, 60480, Note_on_c, 9, 54, 127
7, 60568, Note_off_c, 9, 46, 127
7, 60568, Note_off_c, 9, 54, 127
7, 60576, Note_on_c, 9, 46, 127
7, 60576, Note_on_c, 9, 54, 127
7, 60652, Note_off_c, 9, 35, 127
7, 60652, Note_off_c, 9, 41, 127
7, 60652, Note_off_c, 9, 40, 127
7, 60664, Note_off_c, 9, 46, 127
7, 60664, Note_off_c, 9, 54, 127
7, 60672, Note_on_c, 9, 46, 127
7, 60672, Note_on_c, 9, 54, 127
7, 60760, Note_off_c, 9, 46, 127
7, 60760, Note_off_c, 9, 54, 127
7, 60768, Note_on_c, 9, 54, 127
7, 60856, Note_off_c, 9, 54, 127
7, 60864, Note_on_c, 9, 46, 127
7, 60864, Note_on_c, 9, 54, 127
7, 60952, Note_off_c, 9, 46, 127
7, 60952, Note_off_c, 9, 54, 127
7, 60960, Note_on_c, 9, 46, 127
7, 60960, Note_on_c, 9, 54, 127
7, 61048, Note_off_c, 9, 46, 127
7, 61048, Note_off_c, 9, 54, 127
7, 61056, Note_on_c, 9, 46, 127
7, 61056, Note_on_c, 9, 35, 127
7, 61056, Note_on_c, 9, 41, 127
7, 61056, Note_on_c, 9, 40, 127
7, 61056, Note_on_c, 9, 39, 127
7, 61056, Note_on_c, 9, 54, 127
7, 61144, Note_off_c, 9, 46, 127
7, 61144, Note_off_c, 9, 54, 127
7, 61152, Note_on_c, 9, 54, 127
7, 61236, Note_off_c, 9, 39, 127
7, 61240, Note_off_c, 9, 54, 127
7, 61248, Note_on_c, 9, 46, 127
7, 61248, Note_on_c, 9, 54, 127
7, 61336, Note_off_c, 9, 46, 127
7, 61336, Note_off_c, 9, 54, 127
7, 61344, Note_on_c, 9, 46, 127
7, 61344, Note_on_c, 9, 54, 127
7, 61420, Note_off_c, 9, 35, 127
7, 61420, Note_off_c, 9, 41, 127
7, 61420, Note_off_c, 9, 40, 127
7, 61432, Note_off_c, 9, 46, 127
7, 61432, Note_off_c, 9, 54, 127
7, 61440, Note_on_c, 9, 50, 127
7, 61440, Note_on_c, 9, 46, 127
7, 61440, Note_on_c, 9, 54, 127
7, 61528, Note_off_c, 9, 46, 127
7, 61528, Note_off_c, 9, 54, 127
7, 61536, Note_on_c, 9, 54, 127
7, 61612, Note_off_c, 9, 50, 127
7, 61624, Note_off_c, 9, 54, 127
7, 61632, Note_on_c, 9, 46, 127
7, 61632, Note_on_c, 9, 54, 127
7, 61720, Note_off_c, 9, 46, 127
7, 61720, Note_off_c, 9, 54, 127
7, 61728, Note_on_c, 9, 46, 127
7, 61728, Note_on_c, 9, 54, 127
7, 61816, Note_off_c, 9, 46, 127
7, 61816, Note_off_c, 9, 54, 127
7, 61824, Note_on_c, 9, 46, 127
7, 61824, Note_on_c, 9, 35, 127
7, 61824, Note_on_c, 9, 41, 127
7, 61824, Note_on_c, 9, 40, 127
7, 61824, Note_on_c, 9, 39, 127
7, 61824, Note_on_c, 9, 54, 127
7, 61912, Note_off_c, 9, 46, 127
7, 61912, Note_off_c, 9, 54, 127
7, 61920, Note_on_c, 9, 54, 127
7, 62004, Note_off_c, 9, 39, 127
7, 62008, Note_off_c, 9, 54, 127
7, 62016, Note_on_c, 9, 46, 127
7, 62016, Note_on_c, 9, 54, 127
7, 62104, Note_off_c, 9, 46, 127
7, 62104, Note_off_c, 9, 54, 127
7, 62112, Note_on_c, 9, 46, 127
7, 62112, Note_on_c, 9, 54, 127
7, 62188, Note_off_c, 9, 35, 127
7, 62188, Note_off_c, 9, 41, 127
7, 62188, Note_off_c, 9, 40, 127
7, 62200, Note_off_c, 9, 46, 127
7, 62200, Note_off_c, 9, 54, 127
7, 62208, Note_on_c, 9, 46, 127
7, 62208, Note_on_c, 9, 54, 127
7, 62296, Note_off_c, 9, 46, 127
7, 62296, Note_off_c, 9, 54, 127
7, 62304, Note_on_c, 9, 54, 127
7, 62392, Note_off_c, 9, 54, 127
7, 62400, Note_on_c, 9, 46, 127
7, 62400, Note_on_c, 9, 54, 127
7, 62488, Note_off_c, 9, 46, 127
7, 62488, Note_off_c, 9, 54, 127
7, 62496, Note_on_c, 9, 46, 127
7, 62496, Note_on_c, 9, 54, 127
7, 62584, Note_off_c, 9, 46, 127
7, 62584, Note_off_c, 9, 54, 127
7, 62592, Note_on_c, 9, 46, 127
7, 62592, Note_on_c, 9, 35, 127
7, 62592, Note_on_c, 9, 41, 127
7, 62592, Note_on_c, 9, 40, 127
7, 62592, Note_on_c, 9, 39, 127
7, 62592, Note_on_c, 9, 54, 127
7, 62680, Note_off_c, 9, 46, 127
7, 62680, Note_off_c, 9, 54, 127
7, 62688, Note_on_c, 9, 54, 127
7, 62772, Note_off_c, 9, 39, 127
7, 62776, Note_off_c, 9, 54, 127
7, 62784, Note_on_c, 9, 46, 127
7, 62784, Note_on_c, 9, 54, 127
7, 62872, Note_off_c, 9, 46, 127
7, 62872, Note_off_c, 9, 54, 127
7, 62880, Note_on_c, 9, 46, 127
7, 62880, Note_on_c, 9, 54, 127
7, 62956, Note_off_c, 9, 35, 127
7, 62956, Note_off_c, 9, 41, 127
7, 62956, Note_off_c, 9, 40, 127
7, 62968, Note_off_c, 9, 46, 127
7, 62968, Note_off_c, 9, 54, 127
7, 62976, Note_on_c, 9, 54, 127
7, 62976, Note_on_c, 9, 55, 127
7, 62976, Note_on_c, 9, 35, 127
7, 62976, Note_on_c, 9, 41, 127
7, 62976, Note_on_c, 9, 40, 127
7, 62976, Note_on_c, 9, 47, 127
7, 62976, Note_on_c, 9, 48, 127
7, 62976, Note_on_c, 9, 54, 127
7, 63064, Note_off_c, 9, 54, 127
7, 63340, Note_off_c, 9, 55, 127
7, 63340, Note_off_c, 9, 35, 127
7, 63340, Note_off_c, 9, 41, 127
7, 63340, Note_off_c, 9, 40, 127
7, 63340, Note_off_c, 9, 47, 127
7, 63340, Note_off_c, 9, 48, 127
7, 63340, Note_off_c, 9, 54, 127
7, 63360, Note_on_c, 9, 39, 127
7, 63552, Note_on_c, 9, 48, 127
7, 63552, Note_on_c, 9, 47, 127
7, 63648, Note_on_c, 9, 54, 127
7, 63724, Note_off_c, 9, 39, 127
7, 63736, Note_off_c, 9, 54, 127
7, 63744, Note_on_c, 9, 54, 127
7, 63832, Note_off_c, 9, 54, 127
7, 63840, Note_on_c, 9, 54, 127
7, 63916, Note_off_c, 9, 48, 127
7, 63916, Note_off_c, 9, 47, 127
7, 63928, Note_off_c, 9, 54, 127
7, 63936, Note_on_c, 9, 54, 127
7, 64024, Note_off_c, 9, 54, 127
7, 64032, Note_on_c, 9, 54, 127
7, 64120, Note_off_c, 9, 54, 127
7, 64128, Note_on_c, 9, 54, 127
7, 64216, Note_off_c, 9, 54, 127
7, 64224, Note_on_c, 9, 54, 127
7, 64312, Note_off_c, 9, 54, 127
7, 64320, Note_on_c, 9, 48, 127
7, 64320, Note_on_c, 9, 47, 127
7, 64320, Note_on_c, 9, 54, 127
7, 64408, Note_off_c, 9, 54, 127
7, 64416, Note_on_c, 9, 54, 127
7, 64504, Note_off_c, 9, 54, 127
7, 64512, Note_on_c, 9, 47, 64
7, 64512, Note_on_c, 9, 48, 64
7, 64512, Note_on_c, 9, 35, 100
7, 64512, Note_on_c, 9, 36, 100
7, 64684, Note_off_c, 9, 47, 127
7, 64684, Note_off_c, 9, 48, 127
7, 64684, Note_off_c, 9, 47, 64
7, 64684, Note_off_c, 9, 48, 64
7, 64692, Note_off_c, 9, 35, 100
7, 64692, Note_off_c, 9, 36, 100
7, 64896, Note_on_c, 9, 50, 100
7, 64896, Note_on_c, 9, 40, 100
7, 65076, Note_off_c, 9, 50, 100
7, 65076, Note_off_c, 9, 40, 100
7, 65088, Note_on_c, 9, 40, 100
7, 65088, Note_on_c, 9, 48, 100
7, 65268, Note_off_c, 9, 40, 100
7, 65268, Note_off_c, 9, 48, 100
7, 65472, Note_on_c, 9, 50, 100
7, 65472, Note_on_c, 9, 40, 100
7, 65568, Note_on_c, 9, 40, 100
7, 65568, Note_on_c, 9, 48, 100
7, 65652, Note_off_c, 9, 50, 100
7, 65652, Note_off_c, 9, 40, 100
7, 65664, Note_on_c, 9, 46, 127
7, 65748, Note_off_c, 9, 40, 100
7, 65748, Note_off_c, 9, 48, 100
7, 65752, Note_off_c, 9, 46, 127
7, 65760, Note_on_c, 9, 46, 127
7, 65848, Note_off_c, 9, 46, 127
7, 65856, Note_on_c, 9, 46, 127
7, 65944, Note_off_c, 9, 46, 127
7, 65952, Note_on_c, 9, 46, 127
7, 66040, Note_off_c, 9, 46, 127
7, 66048, Note_on_c, 9, 50, 100
7, 66048, Note_on_c, 9, 40, 100
7, 66048, Note_on_c, 9, 46, 127
7, 66136, Note_off_c, 9, 46, 127
7, 66144, Note_on_c, 9, 50, 100
7, 66144, Note_on_c, 9, 40, 100
7, 66144, Note_on_c, 9, 46, 127
7, 66228, Note_off_c, 9, 50, 100
7, 66228, Note_off_c, 9, 40, 100
7, 66232, Note_off_c, 9, 46, 127
7, 66240, Note_on_c, 9, 50, 100
7, 66240, Note_on_c, 9, 40, 100
7, 66240, Note_on_c, 9, 46, 127
7, 66324, Note_off_c, 9, 50, 100
7, 66324, Note_off_c, 9, 40, 100
7, 66328, Note_off_c, 9, 46, 127
7, 66336, Note_on_c, 9, 46, 127
7, 66420, Note_off_c, 9, 50, 100
7, 66420, Note_off_c, 9, 40, 100
7, 66424, Note_off_c, 9, 46, 127
7, 66432, Note_on_c, 9, 46, 127
7, 66520, Note_off_c, 9, 46, 127
7, 66528, Note_on_c, 9, 46, 127
7, 66616, Note_off_c, 9, 46, 127
7, 66624, Note_on_c, 9, 40, 100
7, 66624, Note_on_c, 9, 47, 100
7, 66624, Note_on_c, 9, 35, 100
7, 66624, Note_on_c, 9, 48, 100
7, 66624, Note_on_c, 9, 46, 127
7, 66712, Note_off_c, 9, 46, 127
7, 66720, Note_on_c, 9, 50, 100
7, 66720, Note_on_c, 9, 40, 100
7, 66720, Note_on_c, 9, 46, 127
7, 66804, Note_off_c, 9, 40, 100
7, 66804, Note_off_c, 9, 47, 100
7, 66804, Note_off_c, 9, 35, 100
7, 66804, Note_off_c, 9, 48, 100
7, 66808, Note_off_c, 9, 46, 127
7, 66816, Note_on_c, 9, 50, 100
7, 66816, Note_on_c, 9, 40, 100
7, 66816, Note_on_c, 9, 46, 127
7, 66900, Note_off_c, 9, 50, 100
7, 66900, Note_off_c, 9, 40, 100
7, 66904, Note_off_c, 9, 46, 127
7, 66912, Note_on_c, 9, 46, 127
7, 66996, Note_off_c, 9, 50, 100
7, 66996, Note_off_c, 9, 40, 100
7, 67000, Note_off_c, 9, 46, 127
7, 67008, Note_on_c, 9, 40, 100
7, 67008, Note_on_c, 9, 47, 100
7, 67008, Note_on_c, 9, 35, 100
7, 67008, Note_on_c, 9, 48, 100
7, 67008, Note_on_c, 9, 46, 127
7, 67096, Note_off_c, 9, 46, 127
7, 67104, Note_on_c, 9, 50, 100
7, 67104, Note_on_c, 9, 40, 100
7, 67104, Note_on_c, 9, 46, 127
7, 67188, Note_off_c, 9, 40, 100
7, 67188, Note_off_c, 9, 47, 100
7, 67188, Note_off_c, 9, 35, 100
7, 67188, Note_off_c, 9, 48, 100
7, 67192, Note_off_c, 9, 46, 127
7, 67200, Note_on_c, 9, 50, 100
7, 67200, Note_on_c, 9, 40, 100
7, 67200, Note_on_c, 9, 46, 127
7, 67284, Note_off_c, 9, 50, 100
7, 67284, Note_off_c, 9, 40, 100
7, 67288, Note_off_c, 9, 46, 127
7, 67296, Note_on_c, 9, 50, 100
7, 67296, Note_on_c, 9, 40, 100
7, 67296, Note_on_c, 9, 46, 127
7, 67380, Note_off_c, 9, 50, 100
7, 67380, Note_off_c, 9, 40, 100
7, 67384, Note_off_c, 9, 46, 127
7, 67392, Note_on_c, 9, 50, 100
7, 67392, Note_on_c, 9, 40, 100
7, 67392, Note_on_c, 9, 46, 127
7, 67476, Note_off_c, 9, 50, 100
7, 67476, Note_off_c, 9, 40, 100
7, 67480, Note_off_c, 9, 46, 127
7, 67488, Note_on_c, 9, 46, 127
7, 67572, Note_off_c, 9, 50, 100
7, 67572, Note_off_c, 9, 40, 100
7, 67576, Note_off_c, 9, 46, 127
7, 67584, Note_on_c, 9, 50, 127
7, 67584, Note_on_c, 9, 46, 127
7, 67584, Note_on_c, 9, 54, 127
7, 67672, Note_off_c, 9, 46, 127
7, 67672, Note_off_c, 9, 54, 127
7, 67680, Note_on_c, 9, 54, 127
7, 67756, Note_off_c, 9, 50, 127
7, 67768, Note_off_c, 9, 54, 127
7, 67776, Note_on_c, 9, 46, 127
7, 67776, Note_on_c, 9, 54, 127
7, 67864, Note_off_c, 9, 46, 127
7, 67864, Note_off_c, 9, 54, 127
7, 67872, Note_on_c, 9, 46, 127
7, 67872, Note_on_c, 9, 54, 127
7, 67960, Note_off_c, 9, 46, 127
7, 67960, Note_off_c, 9, 54, 127
7, 67968, Note_on_c, 9, 46, 127
7, 67968, Note_on_c, 9, 35, 127
7, 67968, Note_on_c, 9, 41, 127
7, 67968, Note_on_c, 9, 40, 127
7, 67968, Note_on_c, 9, 39, 127
7, 67968, Note_on_c, 9, 54, 127
7, 68056, Note_off_c, 9, 46, 127
7, 68056, Note_off_c, 9, 54, 127
7, 68064, Note_on_c, 9, 54, 127
7, 68148, Note_off_c, 9, 39, 127
7, 68152, Note_off_c, 9, 54, 127
7, 68160, Note_on_c, 9, 46, 127
7, 68160, Note_on_c, 9, 54, 127
7, 68248, Note_off_c, 9, 46, 127
7, 68248, Note_off_c, 9, 54, 127
7, 68256, Note_on_c, 9, 46, 127
7, 68256, Note_on_c, 9, 54, 127
7, 68332, Note_off_c, 9, 35, 127
7, 68332, Note_off_c, 9, 41, 127
7, 68332, Note_off_c, 9, 40, 127
7, 68344, Note_off_c, 9, 46, 127
7, 68344, Note_off_c, 9, 54, 127
7, 68352, Note_on_c, 9, 46, 127
7, 68352, Note_on_c, 9, 54, 127
7, 68440, Note_off_c, 9, 46, 127
7, 68440, Note_off_c, 9, 54, 127
7, 68448, Note_on_c, 9, 54, 127
7, 68536, Note_off_c, 9, 54, 127
7, 68544, Note_on_c, 9, 46, 127
7, 68544, Note_on_c, 9, 54, 127
7, 68632, Note_off_c, 9, 46, 127
7, 68632, Note_off_c, 9, 54, 127
7, 68640, Note_on_c, 9, 46, 127
7, 68640, Note_on_c, 9, 54, 127
7, 68728, Note_off_c, 9, 46, 127
7, 68728, Note_off_c, 9, 54, 127
7, 68736, Note_on_c, 9, 46, 127
7, 68736, Note_on_c, 9, 35, 127
7, 68736, Note_on_c, 9, 41, 127
7, 68736, Note_on_c, 9, 40, 127
7, 68736, Note_on_c, 9, 39, 127
7, 68736, Note_on_c, 9, 54, 127
7, 68824, Note_off_c, 9, 46, 127
7, 68824, Note_off_c, 9, 54, 127
7, 68832, Note_on_c, 9, 54, 127
7, 68916, Note_off_c, 9, 39, 127
7, 68920, Note_off_c, 9, 54, 127
7, 68928, Note_on_c, 9, 46, 127
7, 68928, Note_on_c, 9, 54, 127
7, 69016, Note_off_c, 9, 46, 127
7, 69016, Note_off_c, 9, 54, 127
7, 69024, Note_on_c, 9, 46, 127
7, 69024, Note_on_c, 9, 54, 127
7, 69100, Note_off_c, 9, 35, 127
7, 69100, Note_off_c, 9, 41, 127
7, 69100, Note_off_c, 9, 40, 127
7, 69112, Note_off_c, 9, 46, 127
7, 69112, Note_off_c, 9, 54, 127
7, 69120, Note_on_c, 9, 50, 127
7, 69120, Note_on_c, 9, 46, 127
7, 69120, Note_on_c, 9, 54, 127
7, 69208, Note_off_c, 9, 46, 127
7, 69208, Note_off_c, 9, 54, 127
7, 69216, Note_on_c, 9, 54, 127
7, 69292, Note_off_c, 9, 50, 127
7, 69304, Note_off_c, 9, 54, 127
7, 69312, Note_on_c, 9, 46, 127
7, 69312, Note_on_c, 9, 54, 127
7, 69400, Note_off_c, 9, 46, 127
7, 69400, Note_off_c, 9, 54, 127
7, 69408, Note_on_c, 9, 46, 127
7, 69408, Note_on_c, 9, 54, 127
7, 69496, Note_off_c, 9, 46, 127
7, 69496, Note_off_c, 9, 54, 127
7, 69504, Note_on_c, 9, 46, 127
7, 69504, Note_on_c, 9, 35, 127
7, 69504, Note_on_c, 9, 41, 127
7, 69504, Note_on_c, 9, 40, 127
7, 69504, Note_on_c, 9, 39, 127
7, 69504, Note_on_c, 9, 54, 127
7, 69592, Note_off_c, 9, 46, 127
7, 69592, Note_off_c, 9, 54, 127
7, 69600, Note_on_c, 9, 54, 127
7, 69684, Note_off_c, 9, 39, 127
7, 69688, Note_off_c, 9, 54, 127
7, 69696, Note_on_c, 9, 46, 127
7, 69696, Note_on_c, 9, 54, 127
7, 69784, Note_off_c, 9, 46, 127
7, 69784, Note_off_c, 9, 54, 127
7, 69792, Note_on_c, 9, 46, 127
7, 69792, Note_on_c, 9, 54, 127
7, 69868, Note_off_c, 9, 35, 127
7, 69868, Note_off_c, 9, 41, 127
7, 69868, Note_off_c, 9, 40, 127
7, 69880, Note_off_c, 9, 46, 127
7, 69880, Note_off_c, 9, 54, 127
7, 69888, Note_on_c, 9, 46, 127
7, 69888, Note_on_c, 9, 54, 127
7, 69976, Note_off_c, 9, 46, 127
7, 69976, Note_off_c, 9, 54, 127
7, 69984, Note_on_c, 9, 54, 127
7, 70072, Note_off_c, 9, 54, 127
7, 70080, Note_on_c, 9, 46, 127
7, 70080, Note_on_c, 9, 54, 127
7, 70168, Note_off_c, 9, 46, 127
7, 70168, Note_off_c, 9, 54, 127
7, 70176, Note_on_c, 9, 46, 127
7, 70176, Note_on_c, 9, 54, 127
7, 70264, Note_off_c, 9, 46, 127
7, 70264, Note_off_c, 9, 54, 127
7, 70272, Note_on_c, 9, 46, 127
7, 70272, Note_on_c, 9, 35, 127
7, 70272, Note_on_c, 9, 41, 127
7, 70272, Note_on_c, 9, 40, 127
7, 70272, Note_on_c, 9, 39, 127
7, 70272, Note_on_c, 9, 54, 127
7, 70360, Note_off_c, 9, 46, 127
7, 70360, Note_off_c, 9, 54, 127
7, 70368, Note_on_c, 9, 54, 127
7, 70452, Note_off_c, 9, 39, 127
7, 70456, Note_off_c, 9, 54, 127
7, 70464, Note_on_c, 9, 46, 127
7, 70464, Note_on_c, 9, 54, 127
7, 70552, Note_off_c, 9, 46, 127
7, 70552, Note_off_c, 9, 54, 127
7, 70560, Note_on_c, 9, 46, 127
7, 70560, Note_on_c, 9, 54, 127
7, 70636, Note_off_c, 9, 35, 127
7, 70636, Note_off_c, 9, 41, 127
7, 70636, Note_off_c, 9, 40, 127
7, 70648, Note_off_c, 9, 46, 127
7, 70648, Note_off_c, 9, 54, 127
7, 70656, Note_on_c, 9, 50, 127
7, 70656, Note_on_c, 9, 46, 127
7, 70656, Note_on_c, 9, 54, 127
7, 70744, Note_off_c, 9, 46, 127
7, 70744, Note_off_c, 9, 54, 127
7, 70752, Note_on_c, 9, 54, 127
7, 70828, Note_off_c, 9, 50, 127
7, 70840, Note_off_c, 9, 54, 127
7, 70848, Note_on_c, 9, 46, 127
7, 70848, Note_on_c, 9, 54, 127
7, 70936, Note_off_c, 9, 46, 127
7, 70936, Note_off_c, 9, 54, 127
7, 70944, Note_on_c, 9, 46, 127
7, 70944, Note_on_c, 9, 54, 127
7, 71032, Note_off_c, 9, 46, 127
7, 71032, Note_off_c, 9, 54, 127
7, 71040, Note_on_c, 9, 46, 127
7, 71040, Note_on_c, 9, 35, 127
7, 71040, Note_on_c, 9, 41, 127
7, 71040, Note_on_c, 9, 40, 127
7, 71040, Note_on_c, 9, 39, 127
7, 71040, Note_on_c, 9, 54, 127
7, 71128, Note_off_c, 9, 46, 127
7, 71128, Note_off_c, 9, 54, 127
7, 71136, Note_on_c, 9, 54, 127
7, 71220, Note_off_c, 9, 39, 127
7, 71224, Note_off_c, 9, 54, 127
7, 71232, Note_on_c, 9, 46, 127
7, 71232, Note_on_c, 9, 54, 127
7, 71320, Note_off_c, 9, 46, 127
7, 71320, Note_off_c, 9, 54, 127
7, 71328, Note_on_c, 9, 46, 127
7, 71328, Note_on_c, 9, 54, 127
7, 71404, Note_off_c, 9, 35, 127
7, 71404, Note_off_c, 9, 41, 127
7, 71404, Note_off_c, 9, 40, 127
7, 71416, Note_off_c, 9, 46, 127
7, 71416, Note_off_c, 9, 54, 127
7, 71424, Note_on_c, 9, 46, 127
7, 71424, Note_on_c, 9, 54, 127
7, 71512, Note_off_c, 9, 46, 127
7, 71512, Note_off_c, 9, 54, 127
7, 71520, Note_on_c, 9, 54, 127
7, 71608, Note_off_c, 9, 54, 127
7, 71616, Note_on_c, 9, 46, 127
7, 71616, Note_on_c, 9, 54, 127
7, 71704, Note_off_c, 9, 46, 127
7, 71704, Note_off_c, 9, 54, 127
7, 71712, Note_on_c, 9, 46, 127
7, 71712, Note_on_c, 9, 54, 127
7, 71800, Note_off_c, 9, 46, 127
7, 71800, Note_off_c, 9, 54, 127
7, 71808, Note_on_c, 9, 50, 100
7, 71808, Note_on_c, 9, 40, 100
7, 71808, Note_on_c, 9, 46, 127
7, 71808, Note_on_c, 9, 35, 127
7, 71808, Note_on_c, 9, 41, 127
7, 71808, Note_on_c, 9, 40, 127
7, 71808, Note_on_c, 9, 39, 127
7, 71808, Note_on_c, 9, 54, 127
7, 71872, Note_on_c, 9, 50, 100
7, 71872, Note_on_c, 9, 40, 100
7, 71896, Note_off_c, 9, 46, 127
7, 71896, Note_off_c, 9, 54, 127
7, 71904, Note_on_c, 9, 54, 127
7, 71932, Note_off_c, 9, 50, 100
7, 71932, Note_off_c, 9, 40, 100
7, 71936, Note_on_c, 9, 50, 100
7, 71936, Note_on_c, 9, 40, 100
7, 71988, Note_off_c, 9, 40, 100
7, 71988, Note_off_c, 9, 39, 127
7, 71988, Note_off_c, 9, 50, 100
7, 71992, Note_off_c, 9, 54, 127
7, 71996, Note_off_c, 9, 40, 100
7, 71996, Note_off_c, 9, 50, 100
7, 72000, Note_on_c, 9, 50, 100
7, 72000, Note_on_c, 9, 40, 100
7, 72000, Note_on_c, 9, 46, 127
7, 72000, Note_on_c, 9, 54, 127
7, 72088, Note_off_c, 9, 46, 127
7, 72088, Note_off_c, 9, 54, 127
7, 72096, Note_on_c, 9, 46, 127
7, 72096, Note_on_c, 9, 54, 127
7, 72172, Note_off_c, 9, 35, 127
7, 72172, Note_off_c, 9, 41, 127
7, 72172, Note_off_c, 9, 40, 127
7, 72180, Note_off_c, 9, 50, 100
7, 72180, Note_off_c, 9, 40, 100
7, 72184, Note_off_c, 9, 46, 127
7, 72184, Note_off_c, 9, 54, 127
7, 72192, Note_on_c, 9, 50, 127
7, 72192, Note_on_c, 9, 46, 127
7, 72192, Note_on_c, 9, 54, 127
7, 72192, Note_on_c, 9, 55, 100
7, 72192, Note_on_c, 9, 49, 100
7, 72192, Note_on_c, 9, 35, 100
7, 72192, Note_on_c, 9, 36, 100
7, 72280, Note_off_c, 9, 46, 127
7, 72280, Note_off_c, 9, 54, 127
7, 72288, Note_on_c, 9, 54, 127
7, 72364, Note_off_c, 9, 50, 127
7, 72376, Note_off_c, 9, 54, 127
7, 72384, Note_on_c, 9, 46, 127
7, 72384, Note_on_c, 9, 54, 127
7, 72472, Note_off_c, 9, 46, 127
7, 72472, Note_off_c, 9, 54, 127
7, 72480, Note_on_c, 9, 46, 127
7, 72480, Note_on_c, 9, 54, 127
7, 72568, Note_off_c, 9, 46, 127
7, 72568, Note_off_c, 9, 54, 127
7, 72576, Note_on_c, 9, 46, 127
7, 72576, Note_on_c, 9, 35, 127
7, 72576, Note_on_c, 9, 41, 127
7, 72576, Note_on_c, 9, 40, 127
7, 72576, Note_on_c, 9, 39, 127
7, 72576, Note_on_c, 9, 54, 127
7, 72664, Note_off_c, 9, 46, 127
7, 72664, Note_off_c, 9, 54, 127
7, 72672, Note_on_c, 9, 54, 127
7, 72756, Note_off_c, 9, 39, 127
7, 72760, Note_off_c, 9, 54, 127
7, 72768, Note_on_c, 9, 46, 127
7, 72768, Note_on_c, 9, 54, 127
7, 72856, Note_off_c, 9, 46, 127
7, 72856, Note_off_c, 9, 54, 127
7, 72864, Note_on_c, 9, 46, 127
7, 72864, Note_on_c, 9, 54, 127
7, 72940, Note_off_c, 9, 35, 127
7, 72940, Note_off_c, 9, 41, 127
7, 72940, Note_off_c, 9, 40, 127
7, 72952, Note_off_c, 9, 46, 127
7, 72952, Note_off_c, 9, 54, 127
7, 72960, Note_on_c, 9, 46, 127
7, 72960, Note_on_c, 9, 54, 127
7, 73048, Note_off_c, 9, 46, 127
7, 73048, Note_off_c, 9, 54, 127
7, 73056, Note_on_c, 9, 54, 127
7, 73144, Note_off_c, 9, 54, 127
7, 73152, Note_on_c, 9, 46, 127
7, 73152, Note_on_c, 9, 54, 127
7, 73240, Note_off_c, 9, 46, 127
7, 73240, Note_off_c, 9, 54, 127
7, 73248, Note_on_c, 9, 46, 127
7, 73248, Note_on_c, 9, 54, 127
7, 73336, Note_off_c, 9, 46, 127
7, 73336, Note_off_c, 9, 54, 127
7, 73344, Note_on_c, 9, 46, 127
7, 73344, Note_on_c, 9, 35, 127
7, 73344, Note_on_c, 9, 41, 127
7, 73344, Note_on_c, 9, 40, 127
7, 73344, Note_on_c, 9, 39, 127
7, 73344, Note_on_c, 9, 54, 127
7, 73432, Note_off_c, 9, 46, 127
7, 73432, Note_off_c, 9, 54, 127
7, 73440, Note_on_c, 9, 54, 127
7, 73524, Note_off_c, 9, 39, 127
7, 73528, Note_off_c, 9, 54, 127
7, 73536, Note_on_c, 9, 46, 127
7, 73536, Note_on_c, 9, 54, 127
7, 73624, Note_off_c, 9, 46, 127
7, 73624, Note_off_c, 9, 54, 127
7, 73632, Note_on_c, 9, 46, 127
7, 73632, Note_on_c, 9, 54, 127
7, 73648, Note_off_c, 9, 55, 100
7, 73648, Note_off_c, 9, 49, 100
7, 73648, Note_off_c, 9, 36, 100
7, 73648, Note_off_c, 9, 35, 100
7, 73708, Note_off_c, 9, 35, 127
7, 73708, Note_off_c, 9, 41, 127
7, 73708, Note_off_c, 9, 40, 127
7, 73720, Note_off_c, 9, 46, 127
7, 73720, Note_off_c, 9, 54, 127
7, 73728, Note_on_c, 9, 54, 127
7, 73728, Note_on_c, 9, 55, 127
7, 73728, Note_on_c, 9, 35, 127
7, 73728, Note_on_c, 9, 41, 127
7, 73728, Note_on_c, 9, 40, 127
7, 73728, Note_on_c, 9, 47, 127
7, 73728, Note_on_c, 9, 48, 127
7, 73728, Note_on_c, 9, 54, 127
7, 73816, Note_off_c, 9, 54, 127
7, 74092, Note_off_c, 9, 55, 127
7, 74092, Note_off_c, 9, 35, 127
7, 74092, Note_off_c, 9, 41, 127
7, 74092, Note_off_c, 9, 40, 127
7, 74092, Note_off_c, 9, 47, 127
7, 74092, Note_off_c, 9, 48, 127
7, 74092, Note_off_c, 9, 54, 127
7, 74112, Note_on_c, 9, 39, 127
7, 74304, Note_on_c, 9, 48, 127
7, 74304, Note_on_c, 9, 47, 127
7, 74400, Note_on_c, 9, 54, 127
7, 74476, Note_off_c, 9, 39, 127
7, 74488, Note_off_c, 9, 54, 127
7, 74496, Note_on_c, 9, 54, 127
7, 74584, Note_off_c, 9, 54, 127
7, 74592, Note_on_c, 9, 54, 127
7, 74668, Note_off_c, 9, 48, 127
7, 74668, Note_off_c, 9, 47, 127
7, 74680, Note_off_c, 9, 54, 127
7, 74688, Note_on_c, 9, 54, 127
7, 74776, Note_off_c, 9, 54, 127
7, 74784, Note_on_c, 9, 54, 127
7, 74872, Note_off_c, 9, 54, 127
7, 74880, Note_on_c, 9, 54, 127
7, 74968, Note_off_c, 9, 54, 127
7, 74976, Note_on_c, 9, 54, 127
7, 75064, Note_off_c, 9, 54, 127
7, 75072, Note_on_c, 9, 48, 127
7, 75072, Note_on_c, 9, 47, 127
7, 75072, Note_on_c, 9, 54, 127
7, 75160, Note_off_c, 9, 54, 127
7, 75168, Note_on_c, 9, 54, 127
7, 75256, Note_off_c, 9, 54, 127
7, 75264, Note_on_c, 9, 50, 127
7, 75264, Note_on_c, 9, 46, 127
7, 75264, Note_on_c, 9, 54, 127
7, 75264, Note_on_c, 9, 55, 100
7, 75264, Note_on_c, 9, 49, 100
7, 75264, Note_on_c, 9, 35, 100
7, 75264, Note_on_c, 9, 36, 100
7, 75352, Note_off_c, 9, 46, 127
7, 75352, Note_off_c, 9, 54, 127
7, 75360, Note_on_c, 9, 54, 127
7, 75436, Note_off_c, 9, 47, 64
7, 75436, Note_off_c, 9, 48, 64
7, 75436, Note_off_c, 9, 50, 127
7, 75448, Note_off_c, 9, 54, 127
7, 75456, Note_on_c, 9, 46, 127
7, 75456, Note_on_c, 9, 54, 127
7, 75544, Note_off_c, 9, 46, 127
7, 75544, Note_off_c, 9, 54, 127
7, 75552, Note_on_c, 9, 46, 127
7, 75552, Note_on_c, 9, 54, 127
7, 75640, Note_off_c, 9, 46, 127
7, 75640, Note_off_c, 9, 54, 127
7, 75648, Note_on_c, 9, 46, 127
7, 75648, Note_on_c, 9, 35, 127
7, 75648, Note_on_c, 9, 41, 127
7, 75648, Note_on_c, 9, 40, 127
7, 75648, Note_on_c, 9, 39, 127
7, 75648, Note_on_c, 9, 54, 127
7, 75736, Note_off_c, 9, 46, 127
7, 75736, Note_off_c, 9, 54, 127
7, 75744, Note_on_c, 9, 54, 127
7, 75828, Note_off_c, 9, 39, 127
7, 75832, Note_off_c, 9, 54, 127
7, 75840, Note_on_c, 9, 46, 127
7, 75840, Note_on_c, 9, 54, 127
7, 75928, Note_off_c, 9, 46, 127
7, 75928, Note_off_c, 9, 54, 127
7, 75936, Note_on_c, 9, 46, 127
7, 75936, Note_on_c, 9, 54, 127
7, 76012, Note_off_c, 9, 35, 127
7, 76012, Note_off_c, 9, 41, 127
7, 76012, Note_off_c, 9, 40, 127
7, 76024, Note_off_c, 9, 46, 127
7, 76024, Note_off_c, 9, 54, 127
7, 76032, Note_on_c, 9, 46, 127
7, 76032, Note_on_c, 9, 54, 127
7, 76120, Note_off_c, 9, 46, 127
7, 76120, Note_off_c, 9, 54, 127
7, 76128, Note_on_c, 9, 54, 127
7, 76216, Note_off_c, 9, 54, 127
7, 76224, Note_on_c, 9, 46, 127
7, 76224, Note_on_c, 9, 54, 127
7, 76312, Note_off_c, 9, 46, 127
7, 76312, Note_off_c, 9, 54, 127
7, 76320, Note_on_c, 9, 46, 127
7, 76320, Note_on_c, 9, 54, 127
7, 76408, Note_off_c, 9, 46, 127
7, 76408, Note_off_c, 9, 54, 127
7, 76416, Note_on_c, 9, 46, 127
7, 76416, Note_on_c, 9, 35, 127
7, 76416, Note_on_c, 9, 41, 127
7, 76416, Note_on_c, 9, 40, 127
7, 76416, Note_on_c, 9, 39, 127
7, 76416, Note_on_c, 9, 54, 127
7, 76504, Note_off_c, 9, 46, 127
7, 76504, Note_off_c, 9, 54, 127
7, 76512, Note_on_c, 9, 54, 127
7, 76596, Note_off_c, 9, 39, 127
7, 76600, Note_off_c, 9, 54, 127
7, 76608, Note_on_c, 9, 46, 127
7, 76608, Note_on_c, 9, 54, 127
7, 76696, Note_off_c, 9, 46, 127
7, 76696, Note_off_c, 9, 54, 127
7, 76704, Note_on_c, 9, 46, 127
7, 76704, Note_on_c, 9, 54, 127
7, 76720, Note_off_c, 9, 55, 100
7, 76720, Note_off_c, 9, 49, 100
7, 76720, Note_off_c, 9, 36, 100
7, 76720, Note_off_c, 9, 35, 100
7, 76780, Note_off_c, 9, 35, 127
7, 76780, Note_off_c, 9, 41, 127
7, 76780, Note_off_c, 9, 40, 127
7, 76792, Note_off_c, 9, 46, 127
7, 76792, Note_off_c, 9, 54, 127
7, 76800, Note_on_c, 9, 50, 127
7, 76800, Note_on_c, 9, 46, 127
7, 76800, Note_on_c, 9, 54, 127
7, 76800, Note_on_c, 9, 55, 100
7, 76800, Note_on_c, 9, 49, 100
7, 76800, Note_on_c, 9, 35, 100
7, 76800, Note_on_c, 9, 36, 100
7, 76888, Note_off_c, 9, 46, 127
7, 76888, Note_off_c, 9, 54, 127
7, 76896, Note_on_c, 9, 54, 127
7, 76972, Note_off_c, 9, 50, 127
7, 76984, Note_off_c, 9, 54, 127
7, 76992, Note_on_c, 9, 46, 127
7, 76992, Note_on_c, 9, 54, 127
7, 77080, Note_off_c, 9, 46, 127
7, 77080, Note_off_c, 9, 54, 127
7, 77088, Note_on_c, 9, 46, 127
7, 77088, Note_on_c, 9, 54, 127
7, 77176, Note_off_c, 9, 46, 127
7, 77176, Note_off_c, 9, 54, 127
7, 77184, Note_on_c, 9, 46, 127
7, 77184, Note_on_c, 9, 35, 127
7, 77184, Note_on_c, 9, 41, 127
7, 77184, Note_on_c, 9, 40, 127
7, 77184, Note_on_c, 9, 39, 127
7, 77184, Note_on_c, 9, 54, 127
7, 77272, Note_off_c, 9, 46, 127
7, 77272, Note_off_c, 9, 54, 127
7, 77280, Note_on_c, 9, 54, 127
7, 77364, Note_off_c, 9, 39, 127
7, 77368, Note_off_c, 9, 54, 127
7, 77376, Note_on_c, 9, 46, 127
7, 77376, Note_on_c, 9, 54, 127
7, 77464, Note_off_c, 9, 46, 127
7, 77464, Note_off_c, 9, 54, 127
7, 77472, Note_on_c, 9, 46, 127
7, 77472, Note_on_c, 9, 54, 127
7, 77548, Note_off_c, 9, 35, 127
7, 77548, Note_off_c, 9, 41, 127
7, 77548, Note_off_c, 9, 40, 127
7, 77560, Note_off_c, 9, 46, 127
7, 77560, Note_off_c, 9, 54, 127
7, 77568, Note_on_c, 9, 46, 127
7, 77568, Note_on_c, 9, 54, 127
7, 77656, Note_off_c, 9, 46, 127
7, 77656, Note_off_c, 9, 54, 127
7, 77664, Note_on_c, 9, 54, 127
7, 77752, Note_off_c, 9, 54, 127
7, 77760, Note_on_c, 9, 46, 127
7, 77760, Note_on_c, 9, 54, 127
7, 77848, Note_off_c, 9, 46, 127
7, 77848, Note_off_c, 9, 54, 127
7, 77856, Note_on_c, 9, 46, 127
7, 77856, Note_on_c, 9, 54, 127
7, 77944, Note_off_c, 9, 46, 127
7, 77944, Note_off_c, 9, 54, 127
7, 77952, Note_on_c, 9, 46, 127
7, 77952, Note_on_c, 9, 35, 127
7, 77952, Note_on_c, 9, 41, 127
7, 77952, Note_on_c, 9, 40, 127
7, 77952, Note_on_c, 9, 39, 127
7, 77952, Note_on_c, 9, 54, 127
7, 78040, Note_off_c, 9, 46, 127
7, 78040, Note_off_c, 9, 54, 127
7, 78048, Note_on_c, 9, 54, 127
7, 78132, Note_off_c, 9, 39, 127
7, 78136, Note_off_c, 9, 54, 127
7, 78144, Note_on_c, 9, 46, 127
7, 78144, Note_on_c, 9, 54, 127
7, 78232, Note_off_c, 9, 46, 127
7, 78232, Note_off_c, 9, 54, 127
7, 78240, Note_on_c, 9, 46, 127
7, 78240, Note_on_c, 9, 54, 127
7, 78256, Note_off_c, 9, 55, 100
7, 78256, Note_off_c, 9, 49, 100
7, 78256, Note_off_c, 9, 36, 100
7, 78256, Note_off_c, 9, 35, 100
7, 78316, Note_off_c, 9, 35, 127
7, 78316, Note_off_c, 9, 41, 127
7, 78316, Note_off_c, 9, 40, 127
7, 78328, Note_off_c, 9, 46, 127
7, 78328, Note_off_c, 9, 54, 127
7, 78336, Note_on_c, 9, 50, 127
7, 78336, Note_on_c, 9, 46, 127
7, 78336, Note_on_c, 9, 54, 127
7, 78336, Note_on_c, 9, 55, 100
7, 78336, Note_on_c, 9, 49, 100
7, 78336, Note_on_c, 9, 35, 100
7, 78336, Note_on_c, 9, 36, 100
7, 78424, Note_off_c, 9, 46, 127
7, 78424, Note_off_c, 9, 54, 127
7, 78432, Note_on_c, 9, 54, 127
7, 78508, Note_off_c, 9, 50, 127
7, 78520, Note_off_c, 9, 54, 127
7, 78528, Note_on_c, 9, 46, 127
7, 78528, Note_on_c, 9, 54, 127
7, 78616, Note_off_c, 9, 46, 127
7, 78616, Note_off_c, 9, 54, 127
7, 78624, Note_on_c, 9, 46, 127
7, 78624, Note_on_c, 9, 54, 127
7, 78712, Note_off_c, 9, 46, 127
7, 78712, Note_off_c, 9, 54, 127
7, 78720, Note_on_c, 9, 46, 127
7, 78720, Note_on_c, 9, 35, 127
7, 78720, Note_on_c, 9, 41, 127
7, 78720, Note_on_c, 9, 40, 127
7, 78720, Note_on_c, 9, 39, 127
7, 78720, Note_on_c, 9, 54, 127
7, 78808, Note_off_c, 9, 46, 127
7, 78808, Note_off_c, 9, 54, 127
7, 78816, Note_on_c, 9, 54, 127
7, 78900, Note_off_c, 9, 39, 127
7, 78904, Note_off_c, 9, 54, 127
7, 78912, Note_on_c, 9, 46, 127
7, 78912, Note_on_c, 9, 54, 127
7, 79000, Note_off_c, 9, 46, 127
7, 79000, Note_off_c, 9, 54, 127
7, 79008, Note_on_c, 9, 46, 127
7, 79008, Note_on_c, 9, 54, 127
7, 79084, Note_off_c, 9, 35, 127
7, 79084, Note_off_c, 9, 41, 127
7, 79084, Note_off_c, 9, 40, 127
7, 79096, Note_off_c, 9, 46, 127
7, 79096, Note_off_c, 9, 54, 127
7, 79104, Note_on_c, 9, 46, 127
7, 79104, Note_on_c, 9, 54, 127
7, 79104, Note_on_c, 9, 48, 100
7, 79104, Note_on_c, 9, 50, 100
7, 79192, Note_off_c, 9, 46, 127
7, 79192, Note_off_c, 9, 54, 127
7, 79200, Note_on_c, 9, 54, 127
7, 79288, Note_off_c, 9, 54, 127
7, 79296, Note_on_c, 9, 46, 127
7, 79296, Note_on_c, 9, 54, 127
7, 79384, Note_off_c, 9, 46, 127
7, 79384, Note_off_c, 9, 54, 127
7, 79392, Note_on_c, 9, 46, 127
7, 79392, Note_on_c, 9, 54, 127
7, 79468, Note_off_c, 9, 48, 100
7, 79468, Note_off_c, 9, 50, 100
7, 79480, Note_off_c, 9, 46, 127
7, 79480, Note_off_c, 9, 54, 127
7, 79488, Note_on_c, 9, 46, 127
7, 79488, Note_on_c, 9, 35, 127
7, 79488, Note_on_c, 9, 41, 127
7, 79488, Note_on_c, 9, 40, 127
7, 79488, Note_on_c, 9, 39, 127
7, 79488, Note_on_c, 9, 54, 127
7, 79488, Note_on_c, 9, 48, 100
7, 79488, Note_on_c, 9, 50, 100
7, 79576, Note_off_c, 9, 46, 127
7, 79576, Note_off_c, 9, 54, 127
7, 79584, Note_on_c, 9, 54, 127
7, 79668, Note_off_c, 9, 39, 127
7, 79672, Note_off_c, 9, 54, 127
7, 79680, Note_on_c, 9, 46, 127
7, 79680, Note_on_c, 9, 54, 127
7, 79768, Note_off_c, 9, 46, 127
7, 79768, Note_off_c, 9, 54, 127
7, 79776, Note_on_c, 9, 46, 127
7, 79776, Note_on_c, 9, 54, 127
7, 79792, Note_off_c, 9, 55, 100
7, 79792, Note_off_c, 9, 49, 100
7, 79792, Note_off_c, 9, 36, 100
7, 79792, Note_off_c, 9, 35, 100
7, 79852, Note_off_c, 9, 35, 127
7, 79852, Note_off_c, 9, 41, 127
7, 79852, Note_off_c, 9, 40, 127
7, 79852, Note_off_c, 9, 48, 100
7, 79852, Note_off_c, 9, 50, 100
7, 79864, Note_off_c, 9, 46, 127
7, 79864, Note_off_c, 9, 54, 127
7, 79872, Note_on_c, 9, 35, 100
7, 79872, Note_on_c, 9, 48, 100
7, 79872, Note_on_c, 9, 40, 100
7, 79872, Note_on_c, 9, 55, 100
7, 79872, Note_on_c, 9, 49, 100
7, 79872, Note_on_c, 9, 43, 100
7, 80236, Note_off_c, 9, 35, 100
7, 80236, Note_off_c, 9, 48, 100
7, 80236, Note_off_c, 9, 40, 100
7, 80236, Note_off_c, 9, 55, 100
7, 80236, Note_off_c, 9, 49, 100
7, 80236, Note_off_c, 9, 43, 100
7, 80832, Note_on_c, 9, 50, 100
7, 80832, Note_on_c, 9, 40, 100
7, 80892, Note_off_c, 9, 50, 100
7, 80892, Note_off_c, 9, 40, 100
7, 80896, Note_on_c, 9, 50, 100
7, 80896, Note_on_c, 9, 40, 100
7, 80956, Note_off_c, 9, 50, 100
7, 80956, Note_off_c, 9, 40, 100
7, 80960, Note_on_c, 9, 50, 100
7, 80960, Note_on_c, 9, 40, 100
7, 81020, Note_off_c, 9, 50, 100
7, 81020, Note_off_c, 9, 40, 100
7, 81024, Note_on_c, 9, 48, 100
7, 81024, Note_on_c, 9, 40, 100
7, 81024, Note_on_c, 9, 35, 100
7, 81024, Note_on_c, 9, 36, 100
7, 81216, Note_on_c, 9, 50, 100
7, 81216, Note_on_c, 9, 40, 100
7, 81276, Note_off_c, 9, 40, 100
7, 81276, Note_off_c, 9, 50, 100
7, 81280, Note_on_c, 9, 50, 100
7, 81280, Note_on_c, 9, 40, 100
7, 81340, Note_off_c, 9, 40, 100
7, 81340, Note_off_c, 9, 50, 100
7, 81344, Note_on_c, 9, 50, 100
7, 81344, Note_on_c, 9, 40, 100
7, 81388, Note_off_c, 9, 48, 100
7, 81388, Note_off_c, 9, 35, 100
7, 81388, Note_off_c, 9, 36, 100
7, 81388, Note_off_c, 9, 40, 100
7, 81404, Note_off_c, 9, 50, 100
7, 81404, Note_off_c, 9, 40, 100
7, 81408, Note_on_c, 9, 50, 127
7, 81408, Note_on_c, 9, 46, 127
7, 81408, Note_on_c, 9, 54, 127
7, 81496, Note_off_c, 9, 46, 127
7, 81496, Note_off_c, 9, 54, 127
7, 81504, Note_on_c, 9, 54, 127
7, 81580, Note_off_c, 9, 50, 127
7, 81592, Note_off_c, 9, 54, 127
7, 81600, Note_on_c, 9, 46, 127
7, 81600, Note_on_c, 9, 54, 127
7, 81600, Note_on_c, 9, 49, 100
7, 81600, Note_on_c, 9, 55, 100
7, 81688, Note_off_c, 9, 46, 127
7, 81688, Note_off_c, 9, 54, 127
7, 81696, Note_on_c, 9, 46, 127
7, 81696, Note_on_c, 9, 54, 127
7, 81784, Note_off_c, 9, 46, 127
7, 81784, Note_off_c, 9, 54, 127
7, 81792, Note_on_c, 9, 46, 127
7, 81792, Note_on_c, 9, 35, 127
7, 81792, Note_on_c, 9, 41, 127
7, 81792, Note_on_c, 9, 40, 127
7, 81792, Note_on_c, 9, 39, 127
7, 81792, Note_on_c, 9, 54, 127
7, 81792, Note_on_c, 9, 49, 100
7, 81792, Note_on_c, 9, 55, 100
7, 81880, Note_off_c, 9, 46, 127
7, 81880, Note_off_c, 9, 54, 127
7, 81888, Note_on_c, 9, 54, 127
7, 81964, Note_off_c, 9, 49, 100
7, 81964, Note_off_c, 9, 55, 100
7, 81972, Note_off_c, 9, 39, 127
7, 81976, Note_off_c, 9, 54, 127
7, 81984, Note_on_c, 9, 46, 127
7, 81984, Note_on_c, 9, 54, 127
7, 81984, Note_on_c, 9, 49, 100
7, 81984, Note_on_c, 9, 55, 100
7, 82072, Note_off_c, 9, 46, 127
7, 82072, Note_off_c, 9, 54, 127
7, 82080, Note_on_c, 9, 46, 127
7, 82080, Note_on_c, 9, 54, 127
7, 82156, Note_off_c, 9, 35, 127
7, 82156, Note_off_c, 9, 41, 127
7, 82156, Note_off_c, 9, 40, 127
7, 82156, Note_off_c, 9, 49, 100
7, 82156, Note_off_c, 9, 55, 100
7, 82168, Note_off_c, 9, 46, 127
7, 82168, Note_off_c, 9, 54, 127
7, 82176, Note_on_c, 9, 46, 127
7, 82176, Note_on_c, 9, 54, 127
7, 82264, Note_off_c, 9, 46, 127
7, 82264, Note_off_c, 9, 54, 127
7, 82272, Note_on_c, 9, 54, 127
7, 82348, Note_off_c, 9, 49, 100
7, 82348, Note_off_c, 9, 55, 100
7, 82360, Note_off_c, 9, 54, 127
7, 82368, Note_on_c, 9, 46, 127
7, 82368, Note_on_c, 9, 54, 127
7, 82456, Note_off_c, 9, 46, 127
7, 82456, Note_off_c, 9, 54, 127
7, 82464, Note_on_c, 9, 46, 127
7, 82464, Note_on_c, 9, 54, 127
7, 82552, Note_off_c, 9, 46, 127
7, 82552, Note_off_c, 9, 54, 127
7, 82560, Note_on_c, 9, 46, 127
7, 82560, Note_on_c, 9, 35, 127
7, 82560, Note_on_c, 9, 41, 127
7, 82560, Note_on_c, 9, 40, 127
7, 82560, Note_on_c, 9, 39, 127
7, 82560, Note_on_c, 9, 54, 127
7, 82648, Note_off_c, 9, 46, 127
7, 82648, Note_off_c, 9, 54, 127
7, 82656, Note_on_c, 9, 54, 127
7, 82740, Note_off_c, 9, 39, 127
7, 82744, Note_off_c, 9, 54, 127
7, 82752, Note_on_c, 9, 46, 127
7, 82752, Note_on_c, 9, 54, 127
7, 82840, Note_off_c, 9, 46, 127
7, 82840, Note_off_c, 9, 54, 127
7, 82848, Note_on_c, 9, 46, 127
7, 82848, Note_on_c, 9, 54, 127
7, 82924, Note_off_c, 9, 35, 127
7, 82924, Note_off_c, 9, 41, 127
7, 82924, Note_off_c, 9, 40, 127
7, 82936, Note_off_c, 9, 46, 127
7, 82936, Note_off_c, 9, 54, 127
7, 82944, Note_on_c, 9, 50, 127
7, 82944, Note_on_c, 9, 46, 127
7, 82944, Note_on_c, 9, 54, 127
7, 83032, Note_off_c, 9, 46, 127
7, 83032, Note_off_c, 9, 54, 127
7, 83040, Note_on_c, 9, 54, 127
7, 83116, Note_off_c, 9, 50, 127
7, 83128, Note_off_c, 9, 54, 127
7, 83136, Note_on_c, 9, 46, 127
7, 83136, Note_on_c, 9, 54, 127
7, 83224, Note_off_c, 9, 46, 127
7, 83224, Note_off_c, 9, 54, 127
7, 83232, Note_on_c, 9, 46, 127
7, 83232, Note_on_c, 9, 54, 127
7, 83320, Note_off_c, 9, 46, 127
7, 83320, Note_off_c, 9, 54, 127
7, 83328, Note_on_c, 9, 46, 127
7, 83328, Note_on_c, 9, 35, 127
7, 83328, Note_on_c, 9, 41, 127
7, 83328, Note_on_c, 9, 40, 127
7, 83328, Note_on_c, 9, 39, 127
7, 83328, Note_on_c, 9, 54, 127
7, 83416, Note_off_c, 9, 46, 127
7, 83416, Note_off_c, 9, 54, 127
7, 83424, Note_on_c, 9, 54, 127
7, 83508, Note_off_c, 9, 39, 127
7, 83512, Note_off_c, 9, 54, 127
7, 83520, Note_on_c, 9, 46, 127
7, 83520, Note_on_c, 9, 54, 127
7, 83608, Note_off_c, 9, 46, 127
7, 83608, Note_off_c, 9, 54, 127
7, 83616, Note_on_c, 9, 46, 127
7, 83616, Note_on_c, 9, 54, 127
7, 83692, Note_off_c, 9, 35, 127
7, 83692, Note_off_c, 9, 41, 127
7, 83692, Note_off_c, 9, 40, 127
7, 83704, Note_off_c, 9, 46, 127
7, 83704, Note_off_c, 9, 54, 127
7, 83712, Note_on_c, 9, 46, 127
7, 83712, Note_on_c, 9, 54, 127
7, 83800, Note_off_c, 9, 46, 127
7, 83800, Note_off_c, 9, 54, 127
7, 83808, Note_on_c, 9, 54, 127
7, 83896, Note_off_c, 9, 54, 127
7, 83904, Note_on_c, 9, 46, 127
7, 83904, Note_on_c, 9, 54, 127
7, 83992, Note_off_c, 9, 46, 127
7, 83992, Note_off_c, 9, 54, 127
7, 84000, Note_on_c, 9, 46, 127
7, 84000, Note_on_c, 9, 54, 127
7, 84088, Note_off_c, 9, 46, 127
7, 84088, Note_off_c, 9, 54, 127
7, 84096, Note_on_c, 9, 46, 127
7, 84096, Note_on_c, 9, 35, 127
7, 84096, Note_on_c, 9, 41, 127
7, 84096, Note_on_c, 9, 40, 127
7, 84096, Note_on_c, 9, 39, 127
7, 84096, Note_on_c, 9, 54, 127
7, 84184, Note_off_c, 9, 46, 127
7, 84184, Note_off_c, 9, 54, 127
7, 84192, Note_on_c, 9, 54, 127
7, 84276, Note_off_c, 9, 39, 127
7, 84280, Note_off_c, 9, 54, 127
7, 84288, Note_on_c, 9, 46, 127
7, 84288, Note_on_c, 9, 54, 127
7, 84376, Note_off_c, 9, 46, 127
7, 84376, Note_off_c, 9, 54, 127
7, 84384, Note_on_c, 9, 46, 127
7, 84384, Note_on_c, 9, 54, 127
7, 84460, Note_off_c, 9, 35, 127
7, 84460, Note_off_c, 9, 41, 127
7, 84460, Note_off_c, 9, 40, 127
7, 84472, Note_off_c, 9, 46, 127
7, 84472, Note_off_c, 9, 54, 127
7, 84480, Note_on_c, 9, 50, 127
7, 84480, Note_on_c, 9, 46, 127
7, 84480, Note_on_c, 9, 54, 127
7, 84568, Note_off_c, 9, 46, 127
7, 84568, Note_off_c, 9, 54, 127
7, 84576, Note_on_c, 9, 54, 127
7, 84652, Note_off_c, 9, 50, 127
7, 84664, Note_off_c, 9, 54, 127
7, 84672, Note_on_c, 9, 46, 127
7, 84672, Note_on_c, 9, 54, 127
7, 84760, Note_off_c, 9, 46, 127
7, 84760, Note_off_c, 9, 54, 127
7, 84768, Note_on_c, 9, 46, 127
7, 84768, Note_on_c, 9, 54, 127
7, 84856, Note_off_c, 9, 46, 127
7, 84856, Note_off_c, 9, 54, 127
7, 84864, Note_on_c, 9, 46, 127
7, 84864, Note_on_c, 9, 35, 127
7, 84864, Note_on_c, 9, 41, 127
7, 84864, Note_on_c, 9, 40, 127
7, 84864, Note_on_c, 9, 39, 127
7, 84864, Note_on_c, 9, 54, 127
7, 84952, Note_off_c, 9, 46, 127
7, 84952, Note_off_c, 9, 54, 127
7, 84960, Note_on_c, 9, 54, 127
7, 85044, Note_off_c, 9, 39, 127
7, 85048, Note_off_c, 9, 54, 127
7, 85056, Note_on_c, 9, 46, 127
7, 85056, Note_on_c, 9, 54, 127
7, 85144, Note_off_c, 9, 46, 127
7, 85144, Note_off_c, 9, 54, 127
7, 85152, Note_on_c, 9, 46, 127
7, 85152, Note_on_c, 9, 54, 127
7, 85228, Note_off_c, 9, 35, 127
7, 85228, Note_off_c, 9, 41, 127
7, 85228, Note_off_c, 9, 40, 127
7, 85240, Note_off_c, 9, 46, 127
7, 85240, Note_off_c, 9, 54, 127
7, 85248, Note_on_c, 9, 46, 127
7, 85248, Note_on_c, 9, 54, 127
7, 85336, Note_off_c, 9, 46, 127
7, 85336, Note_off_c, 9, 54, 127
7, 85344, Note_on_c, 9, 54, 127
7, 85432, Note_off_c, 9, 54, 127
7, 85440, Note_on_c, 9, 46, 127
7, 85440, Note_on_c, 9, 54, 127
7, 85528, Note_off_c, 9, 46, 127
7, 85528, Note_off_c, 9, 54, 127
7, 85536, Note_on_c, 9, 46, 127
7, 85536, Note_on_c, 9, 54, 127
7, 85624, Note_off_c, 9, 46, 127
7, 85624, Note_off_c, 9, 54, 127
7, 85632, Note_on_c, 9, 46, 127
7, 85632, Note_on_c, 9, 35, 127
7, 85632, Note_on_c, 9, 41, 127
7, 85632, Note_on_c, 9, 40, 127
7, 85632, Note_on_c, 9, 39, 127
7, 85632, Note_on_c, 9, 54, 127
7, 85720, Note_off_c, 9, 46, 127
7, 85720, Note_off_c, 9, 54, 127
7, 85728, Note_on_c, 9, 54, 127
7, 85812, Note_off_c, 9, 39, 127
7, 85816, Note_off_c, 9, 54, 127
7, 85824, Note_on_c, 9, 46, 127
7, 85824, Note_on_c, 9, 54, 127
7, 85912, Note_off_c, 9, 46, 127
7, 85912, Note_off_c, 9, 54, 127
7, 85920, Note_on_c, 9, 46, 127
7, 85920, Note_on_c, 9, 54, 127
7, 85996, Note_off_c, 9, 35, 127
7, 85996, Note_off_c, 9, 41, 127
7, 85996, Note_off_c, 9, 40, 127
7, 86008, Note_off_c, 9, 46, 127
7, 86008, Note_off_c, 9, 54, 127
7, 86016, Note_on_c, 9, 50, 127
7, 86016, Note_on_c, 9, 46, 127
7, 86016, Note_on_c, 9, 54, 127
7, 86104, Note_off_c, 9, 46, 127
7, 86104, Note_off_c, 9, 54, 127
7, 86112, Note_on_c, 9, 54, 127
7, 86188, Note_off_c, 9, 50, 127
7, 86200, Note_off_c, 9, 54, 127
7, 86208, Note_on_c, 9, 46, 127
7, 86208, Note_on_c, 9, 54, 127
7, 86296, Note_off_c, 9, 46, 127
7, 86296, Note_off_c, 9, 54, 127
7, 86304, Note_on_c, 9, 46, 127
7, 86304, Note_on_c, 9, 54, 127
7, 86392, Note_off_c, 9, 46, 127
7, 86392, Note_off_c, 9, 54, 127
7, 86400, Note_on_c, 9, 46, 127
7, 86400, Note_on_c, 9, 35, 127
7, 86400, Note_on_c, 9, 41, 127
7, 86400, Note_on_c, 9, 40, 127
7, 86400, Note_on_c, 9, 39, 127
7, 86400, Note_on_c, 9, 54, 127
7, 86400, Note_on_c, 9, 49, 100
7, 86400, Note_on_c, 9, 55, 100
7, 86488, Note_off_c, 9, 46, 127
7, 86488, Note_off_c, 9, 54, 127
7, 86496, Note_on_c, 9, 54, 127
7, 86580, Note_off_c, 9, 39, 127
7, 86584, Note_off_c, 9, 54, 127
7, 86592, Note_on_c, 9, 46, 127
7, 86592, Note_on_c, 9, 54, 127
7, 86680, Note_off_c, 9, 46, 127
7, 86680, Note_off_c, 9, 54, 127
7, 86688, Note_on_c, 9, 46, 127
7, 86688, Note_on_c, 9, 54, 127
7, 86764, Note_off_c, 9, 35, 127
7, 86764, Note_off_c, 9, 41, 127
7, 86764, Note_off_c, 9, 40, 127
7, 86764, Note_off_c, 9, 49, 100
7, 86764, Note_off_c, 9, 55, 100
7, 86776, Note_off_c, 9, 46, 127
7, 86776, Note_off_c, 9, 54, 127
7, 86784, Note_on_c, 9, 46, 127
7, 86784, Note_on_c, 9, 54, 127
7, 86784, Note_on_c, 9, 49, 100
7, 86784, Note_on_c, 9, 55, 100
7, 86872, Note_off_c, 9, 46, 127
7, 86872, Note_off_c, 9, 54, 127
7, 86880, Note_on_c, 9, 54, 127
7, 86968, Note_off_c, 9, 54, 127
7, 86976, Note_on_c, 9, 46, 127
7, 86976, Note_on_c, 9, 54, 127
7, 86976, Note_on_c, 9, 49, 100
7, 86976, Note_on_c, 9, 55, 100
7, 87064, Note_off_c, 9, 46, 127
7, 87064, Note_off_c, 9, 54, 127
7, 87072, Note_on_c, 9, 46, 127
7, 87072, Note_on_c, 9, 54, 127
7, 87148, Note_off_c, 9, 49, 100
7, 87148, Note_off_c, 9, 55, 100
7, 87160, Note_off_c, 9, 46, 127
7, 87160, Note_off_c, 9, 54, 127
7, 87168, Note_on_c, 9, 46, 127
7, 87168, Note_on_c, 9, 35, 127
7, 87168, Note_on_c, 9, 41, 127
7, 87168, Note_on_c, 9, 40, 127
7, 87168, Note_on_c, 9, 39, 127
7, 87168, Note_on_c, 9, 54, 127
7, 87168, Note_on_c, 9, 49, 100
7, 87168, Note_on_c, 9, 55, 100
7, 87256, Note_off_c, 9, 46, 127
7, 87256, Note_off_c, 9, 54, 127
7, 87264, Note_on_c, 9, 54, 127
7, 87340, Note_off_c, 9, 49, 100
7, 87340, Note_off_c, 9, 55, 100
7, 87348, Note_off_c, 9, 39, 127
7, 87352, Note_off_c, 9, 54, 127
7, 87360, Note_on_c, 9, 46, 127
7, 87360, Note_on_c, 9, 54, 127
7, 87448, Note_off_c, 9, 46, 127
7, 87448, Note_off_c, 9, 54, 127
7, 87456, Note_on_c, 9, 46, 127
7, 87456, Note_on_c, 9, 54, 127
7, 87532, Note_off_c, 9, 35, 127
7, 87532, Note_off_c, 9, 41, 127
7, 87532, Note_off_c, 9, 40, 127
7, 87532, Note_off_c, 9, 49, 100
7, 87532, Note_off_c, 9, 55, 100
7, 87544, Note_off_c, 9, 46, 127
7, 87544, Note_off_c, 9, 54, 127
7, 87552, Note_on_c, 9, 50, 127
7, 87552, Note_on_c, 9, 46, 127
7, 87552, Note_on_c, 9, 54, 127
7, 87552, Note_on_c, 9, 49, 100
7, 87552, Note_on_c, 9, 55, 100
7, 87640, Note_off_c, 9, 46, 127
7, 87640, Note_off_c, 9, 54, 127
7, 87648, Note_on_c, 9, 54, 127
7, 87724, Note_off_c, 9, 50, 127
7, 87736, Note_off_c, 9, 54, 127
7, 87744, Note_on_c, 9, 46, 127
7, 87744, Note_on_c, 9, 54, 127
7, 87744, Note_on_c, 9, 49, 100
7, 87744, Note_on_c, 9, 55, 100
7, 87832, Note_off_c, 9, 46, 127
7, 87832, Note_off_c, 9, 54, 127
7, 87840, Note_on_c, 9, 46, 127
7, 87840, Note_on_c, 9, 54, 127
7, 87916, Note_off_c, 9, 49, 100
7, 87916, Note_off_c, 9, 55, 100
7, 87928, Note_off_c, 9, 46, 127
7, 87928, Note_off_c, 9, 54, 127
7, 87936, Note_on_c, 9, 46, 127
7, 87936, Note_on_c, 9, 35, 127
7, 87936, Note_on_c, 9, 41, 127
7, 87936, Note_on_c, 9, 40, 127
7, 87936, Note_on_c, 9, 39, 127
7, 87936, Note_on_c, 9, 54, 127
7, 87936, Note_on_c, 9, 49, 100
7, 87936, Note_on_c, 9, 55, 100
7, 88024, Note_off_c, 9, 46, 127
7, 88024, Note_off_c, 9, 54, 127
7, 88032, Note_on_c, 9, 54, 127
7, 88108, Note_off_c, 9, 49, 100
7, 88108, Note_off_c, 9, 55, 100
7, 88116, Note_off_c, 9, 39, 127
7, 88120, Note_off_c, 9, 54, 127
7, 88128, Note_on_c, 9, 46, 127
7, 88128, Note_on_c, 9, 54, 127
7, 88216, Note_off_c, 9, 46, 127
7, 88216, Note_off_c, 9, 54, 127
7, 88224, Note_on_c, 9, 46, 127
7, 88224, Note_on_c, 9, 54, 127
7, 88300, Note_off_c, 9, 35, 127
7, 88300, Note_off_c, 9, 41, 127
7, 88300, Note_off_c, 9, 40, 127
7, 88300, Note_off_c, 9, 49, 100
7, 88300, Note_off_c, 9, 55, 100
7, 88312, Note_off_c, 9, 46, 127
7, 88312, Note_off_c, 9, 54, 127
7, 88320, Note_on_c, 9, 46, 127
7, 88320, Note_on_c, 9, 54, 127
7, 88408, Note_off_c, 9, 46, 127
7, 88408, Note_off_c, 9, 54, 127
7, 88416, Note_on_c, 9, 54, 127
7, 88504, Note_off_c, 9, 54, 127
7, 88512, Note_on_c, 9, 46, 127
7, 88512, Note_on_c, 9, 54, 127
7, 88600, Note_off_c, 9, 46, 127
7, 88600, Note_off_c, 9, 54, 127
7, 88608, Note_on_c, 9, 46, 127
7, 88608, Note_on_c, 9, 54, 127
7, 88696, Note_off_c, 9, 46, 127
7, 88696, Note_off_c, 9, 54, 127
7, 88704, Note_on_c, 9, 46, 127
7, 88704, Note_on_c, 9, 35, 127
7, 88704, Note_on_c, 9, 41, 127
7, 88704, Note_on_c, 9, 40, 127
7, 88704, Note_on_c, 9, 39, 127
7, 88704, Note_on_c, 9, 54, 127
7, 88792, Note_off_c, 9, 46, 127
7, 88792, Note_off_c, 9, 54, 127
7, 88800, Note_on_c, 9, 54, 127
7, 88884, Note_off_c, 9, 39, 127
7, 88888, Note_off_c, 9, 54, 127
7, 88896, Note_on_c, 9, 46, 127
7, 88896, Note_on_c, 9, 54, 127
7, 88984, Note_off_c, 9, 46, 127
7, 88984, Note_off_c, 9, 54, 127
7, 88992, Note_on_c, 9, 46, 127
7, 88992, Note_on_c, 9, 54, 127
7, 89068, Note_off_c, 9, 35, 127
7, 89068, Note_off_c, 9, 41, 127
7, 89068, Note_off_c, 9, 40, 127
7, 89080, Note_off_c, 9, 46, 127
7, 89080, Note_off_c, 9, 54, 127
7, 89088, Note_on_c, 9, 50, 127
7, 89088, Note_on_c, 9, 46, 127
7, 89088, Note_on_c, 9, 54, 127
7, 89176, Note_off_c, 9, 46, 127
7, 89176, Note_off_c, 9, 54, 127
7, 89184, Note_on_c, 9, 54, 127
7, 89260, Note_off_c, 9, 50, 127
7, 89272, Note_off_c, 9, 54, 127
7, 89280, Note_on_c, 9, 46, 127
7, 89280, Note_on_c, 9, 54, 127
7, 89368, Note_off_c, 9, 46, 127
7, 89368, Note_off_c, 9, 54, 127
7, 89376, Note_on_c, 9, 46, 127
7, 89376, Note_on_c, 9, 54, 127
7, 89464, Note_off_c, 9, 46, 127
7, 89464, Note_off_c, 9, 54, 127
7, 89472, Note_on_c, 9, 46, 127
7, 89472, Note_on_c, 9, 35, 127
7, 89472, Note_on_c, 9, 41, 127
7, 89472, Note_on_c, 9, 40, 127
7, 89472, Note_on_c, 9, 39, 127
7, 89472, Note_on_c, 9, 54, 127
7, 89560, Note_off_c, 9, 46, 127
7, 89560, Note_off_c, 9, 54, 127
7, 89568, Note_on_c, 9, 54, 127
7, 89652, Note_off_c, 9, 39, 127
7, 89656, Note_off_c, 9, 54, 127
7, 89664, Note_on_c, 9, 46, 127
7, 89664, Note_on_c, 9, 54, 127
7, 89752, Note_off_c, 9, 46, 127
7, 89752, Note_off_c, 9, 54, 127
7, 89760, Note_on_c, 9, 46, 127
7, 89760, Note_on_c, 9, 54, 127
7, 89836, Note_off_c, 9, 35, 127
7, 89836, Note_off_c, 9, 41, 127
7, 89836, Note_off_c, 9, 40, 127
7, 89848, Note_off_c, 9, 46, 127
7, 89848, Note_off_c, 9, 54, 127
7, 89856, Note_on_c, 9, 46, 127
7, 89856, Note_on_c, 9, 54, 127
7, 89944, Note_off_c, 9, 46, 127
7, 89944, Note_off_c, 9, 54, 127
7, 89952, Note_on_c, 9, 54, 127
7, 90040, Note_off_c, 9, 54, 127
7, 90048, Note_on_c, 9, 46, 127
7, 90048, Note_on_c, 9, 54, 127
7, 90136, Note_off_c, 9, 46, 127
7, 90136, Note_off_c, 9, 54, 127
7, 90144, Note_on_c, 9, 46, 127
7, 90144, Note_on_c, 9, 54, 127
7, 90232, Note_off_c, 9, 46, 127
7, 90232, Note_off_c, 9, 54, 127
7, 90240, Note_on_c, 9, 46, 127
7, 90240, Note_on_c, 9, 35, 127
7, 90240, Note_on_c, 9, 41, 127
7, 90240, Note_on_c, 9, 40, 127
7, 90240, Note_on_c, 9, 39, 127
7, 90240, Note_on_c, 9, 54, 127
7, 90328, Note_off_c, 9, 46, 127
7, 90328, Note_off_c, 9, 54, 127
7, 90336, Note_on_c, 9, 54, 127
7, 90420, Note_off_c, 9, 39, 127
7, 90424, Note_off_c, 9, 54, 127
7, 90432, Note_on_c, 9, 46, 127
7, 90432, Note_on_c, 9, 54, 127
7, 90520, Note_off_c, 9, 46, 127
7, 90520, Note_off_c, 9, 54, 127
7, 90528, Note_on_c, 9, 46, 127
7, 90528, Note_on_c, 9, 54, 127
7, 90604, Note_off_c, 9, 35, 127
7, 90604, Note_off_c, 9, 41, 127
7, 90604, Note_off_c, 9, 40, 127
7, 90616, Note_off_c, 9, 46, 127
7, 90616, Note_off_c, 9, 54, 127
7, 90624, Note_on_c, 9, 50, 127
7, 90624, Note_on_c, 9, 46, 127
7, 90624, Note_on_c, 9, 54, 127
7, 90712, Note_off_c, 9, 46, 127
7, 90712, Note_off_c, 9, 54, 127
7, 90720, Note_on_c, 9, 54, 127
7, 90796, Note_off_c, 9, 50, 127
7, 90808, Note_off_c, 9, 54, 127
7, 90816, Note_on_c, 9, 46, 127
7, 90816, Note_on_c, 9, 54, 127
7, 90904, Note_off_c, 9, 46, 127
7, 90904, Note_off_c, 9, 54, 127
7, 90912, Note_on_c, 9, 46, 127
7, 90912, Note_on_c, 9, 54, 127
7, 91000, Note_off_c, 9, 46, 127
7, 91000, Note_off_c, 9, 54, 127
7, 91008, Note_on_c, 9, 46, 127
7, 91008, Note_on_c, 9, 35, 127
7, 91008, Note_on_c, 9, 41, 127
7, 91008, Note_on_c, 9, 40, 127
7, 91008, Note_on_c, 9, 39, 127
7, 91008, Note_on_c, 9, 54, 127
7, 91096, Note_off_c, 9, 46, 127
7, 91096, Note_off_c, 9, 54, 127
7, 91104, Note_on_c, 9, 54, 127
7, 91188, Note_off_c, 9, 39, 127
7, 91192, Note_off_c, 9, 54, 127
7, 91200, Note_on_c, 9, 46, 127
7, 91200, Note_on_c, 9, 54, 127
7, 91288, Note_off_c, 9, 46, 127
7, 91288, Note_off_c, 9, 54, 127
7, 91296, Note_on_c, 9, 46, 127
7, 91296, Note_on_c, 9, 54, 127
7, 91372, Note_off_c, 9, 35, 127
7, 91372, Note_off_c, 9, 41, 127
7, 91372, Note_off_c, 9, 40, 127
7, 91384, Note_off_c, 9, 46, 127
7, 91384, Note_off_c, 9, 54, 127
7, 91392, Note_on_c, 9, 46, 127
7, 91392, Note_on_c, 9, 54, 127
7, 91480, Note_off_c, 9, 46, 127
7, 91480, Note_off_c, 9, 54, 127
7, 91488, Note_on_c, 9, 54, 127
7, 91576, Note_off_c, 9, 54, 127
7, 91584, Note_on_c, 9, 46, 127
7, 91584, Note_on_c, 9, 54, 127
7, 91672, Note_off_c, 9, 46, 127
7, 91672, Note_off_c, 9, 54, 127
7, 91680, Note_on_c, 9, 46, 127
7, 91680, Note_on_c, 9, 54, 127
7, 91768, Note_off_c, 9, 46, 127
7, 91768, Note_off_c, 9, 54, 127
7, 91776, Note_on_c, 9, 46, 127
7, 91776, Note_on_c, 9, 35, 127
7, 91776, Note_on_c, 9, 41, 127
7, 91776, Note_on_c, 9, 40, 127
7, 91776, Note_on_c, 9, 39, 127
7, 91776, Note_on_c, 9, 54, 127
7, 91864, Note_off_c, 9, 46, 127
7, 91864, Note_off_c, 9, 54, 127
7, 91872, Note_on_c, 9, 54, 127
7, 91956, Note_off_c, 9, 39, 127
7, 91960, Note_off_c, 9, 54, 127
7, 91968, Note_on_c, 9, 46, 127
7, 91968, Note_on_c, 9, 54, 127
7, 92056, Note_off_c, 9, 46, 127
7, 92056, Note_off_c, 9, 54, 127
7, 92064, Note_on_c, 9, 46, 127
7, 92064, Note_on_c, 9, 54, 127
7, 92140, Note_off_c, 9, 35, 127
7, 92140, Note_off_c, 9, 41, 127
7, 92140, Note_off_c, 9, 40, 127
7, 92152, Note_off_c, 9, 46, 127
7, 92152, Note_off_c, 9, 54, 127
7, 92160, Note_on_c, 9, 50, 127
7, 92160, Note_on_c, 9, 46, 127
7, 92160, Note_on_c, 9, 54, 127
7, 92248, Note_off_c, 9, 46, 127
7, 92248, Note_off_c, 9, 54, 127
7, 92256, Note_on_c, 9, 54, 127
7, 92332, Note_off_c, 9, 50, 127
7, 92344, Note_off_c, 9, 54, 127
7, 92352, Note_on_c, 9, 46, 127
7, 92352, Note_on_c, 9, 54, 127
7, 92440, Note_off_c, 9, 46, 127
7, 92440, Note_off_c, 9, 54, 127
7, 92448, Note_on_c, 9, 46, 127
7, 92448, Note_on_c, 9, 54, 127
7, 92536, Note_off_c, 9, 46, 127
7, 92536, Note_off_c, 9, 54, 127
7, 92544, Note_on_c, 9, 46, 127
7, 92544, Note_on_c, 9, 35, 127
7, 92544, Note_on_c, 9, 41, 127
7, 92544, Note_on_c, 9, 40, 127
7, 92544, Note_on_c, 9, 39, 127
7, 92544, Note_on_c, 9, 54, 127
7, 92632, Note_off_c, 9, 46, 127
7, 92632, Note_off_c, 9, 54, 127
7, 92640, Note_on_c, 9, 54, 127
7, 92724, Note_off_c, 9, 39, 127
7, 92728, Note_off_c, 9, 54, 127
7, 92736, Note_on_c, 9, 46, 127
7, 92736, Note_on_c, 9, 54, 127
7, 92824, Note_off_c, 9, 46, 127
7, 92824, Note_off_c, 9, 54, 127
7, 92832, Note_on_c, 9, 46, 127
7, 92832, Note_on_c, 9, 54, 127
7, 92908, Note_off_c, 9, 35, 127
7, 92908, Note_off_c, 9, 41, 127
7, 92908, Note_off_c, 9, 40, 127
7, 92920, Note_off_c, 9, 46, 127
7, 92920, Note_off_c, 9, 54, 127
7, 92928, Note_on_c, 9, 46, 127
7, 92928, Note_on_c, 9, 54, 127
7, 93016, Note_off_c, 9, 46, 127
7, 93016, Note_off_c, 9, 54, 127
7, 93024, Note_on_c, 9, 54, 127
7, 93112, Note_off_c, 9, 54, 127
7, 93120, Note_on_c, 9, 46, 127
7, 93120, Note_on_c, 9, 54, 127
7, 93208, Note_off_c, 9, 46, 127
7, 93208, Note_off_c, 9, 54, 127
7, 93216, Note_on_c, 9, 46, 127
7, 93216, Note_on_c, 9, 54, 127
7, 93304, Note_off_c, 9, 46, 127
7, 93304, Note_off_c, 9, 54, 127
7, 93312, Note_on_c, 9, 46, 127
7, 93312, Note_on_c, 9, 35, 127
7, 93312, Note_on_c, 9, 41, 127
7, 93312, Note_on_c, 9, 40, 127
7, 93312, Note_on_c, 9, 39, 127
7, 93312, Note_on_c, 9, 54, 127
7, 93312, Note_on_c, 9, 50, 100
7, 93312, Note_on_c, 9, 40, 100
7, 93372, Note_off_c, 9, 40, 100
7, 93372, Note_off_c, 9, 50, 100
7, 93376, Note_on_c, 9, 50, 100
7, 93376, Note_on_c, 9, 40, 100
7, 93400, Note_off_c, 9, 46, 127
7, 93400, Note_off_c, 9, 54, 127
7, 93408, Note_on_c, 9, 54, 127
7, 93436, Note_off_c, 9, 40, 100
7, 93436, Note_off_c, 9, 50, 100
7, 93440, Note_on_c, 9, 50, 100
7, 93440, Note_on_c, 9, 40, 100
7, 93492, Note_off_c, 9, 39, 127
7, 93496, Note_off_c, 9, 54, 127
7, 93500, Note_off_c, 9, 40, 100
7, 93500, Note_off_c, 9, 50, 100
7, 93504, Note_on_c, 9, 46, 127
7, 93504, Note_on_c, 9, 54, 127
7, 93592, Note_off_c, 9, 46, 127
7, 93592, Note_off_c, 9, 54, 127
7, 93600, Note_on_c, 9, 46, 127
7, 93600, Note_on_c, 9, 54, 127
7, 93676, Note_off_c, 9, 35, 127
7, 93676, Note_off_c, 9, 41, 127
7, 93676, Note_off_c, 9, 40, 127
7, 93688, Note_off_c, 9, 46, 127
7, 93688, Note_off_c, 9, 54, 127
7, 93696, Note_on_c, 9, 50, 127
7, 93696, Note_on_c, 9, 46, 127
7, 93696, Note_on_c, 9, 54, 127
7, 93696, Note_on_c, 9, 49, 100
7, 93696, Note_on_c, 9, 55, 100
7, 93784, Note_off_c, 9, 46, 127
7, 93784, Note_off_c, 9, 54, 127
7, 93792, Note_on_c, 9, 54, 127
7, 93868, Note_off_c, 9, 50, 127
7, 93880, Note_off_c, 9, 54, 127
7, 93888, Note_on_c, 9, 46, 127
7, 93888, Note_on_c, 9, 54, 127
7, 93976, Note_off_c, 9, 46, 127
7, 93976, Note_off_c, 9, 54, 127
7, 93984, Note_on_c, 9, 46, 127
7, 93984, Note_on_c, 9, 54, 127
7, 94060, Note_off_c, 9, 49, 100
7, 94060, Note_off_c, 9, 55, 100
7, 94072, Note_off_c, 9, 46, 127
7, 94072, Note_off_c, 9, 54, 127
7, 94080, Note_on_c, 9, 46, 127
7, 94080, Note_on_c, 9, 35, 127
7, 94080, Note_on_c, 9, 41, 127
7, 94080, Note_on_c, 9, 40, 127
7, 94080, Note_on_c, 9, 39, 127
7, 94080, Note_on_c, 9, 54, 127
7, 94168, Note_off_c, 9, 46, 127
7, 94168, Note_off_c, 9, 54, 127
7, 94176, Note_on_c, 9, 54, 127
7, 94260, Note_off_c, 9, 39, 127
7, 94264, Note_off_c, 9, 54, 127
7, 94272, Note_on_c, 9, 46, 127
7, 94272, Note_on_c, 9, 54, 127
7, 94360, Note_off_c, 9, 46, 127
7, 94360, Note_off_c, 9, 54, 127
7, 94368, Note_on_c, 9, 46, 127
7, 94368, Note_on_c, 9, 54, 127
7, 94444, Note_off_c, 9, 35, 127
7, 94444, Note_off_c, 9, 41, 127
7, 94444, Note_off_c, 9, 40, 127
7, 94456, Note_off_c, 9, 46, 127
7, 94456, Note_off_c, 9, 54, 127
7, 94464, Note_on_c, 9, 46, 127
7, 94464, Note_on_c, 9, 54, 127
7, 94552, Note_off_c, 9, 46, 127
7, 94552, Note_off_c, 9, 54, 127
7, 94560, Note_on_c, 9, 54, 127
7, 94648, Note_off_c, 9, 54, 127
7, 94656, Note_on_c, 9, 46, 127
7, 94656, Note_on_c, 9, 54, 127
7, 94744, Note_off_c, 9, 46, 127
7, 94744, Note_off_c, 9, 54, 127
7, 94752, Note_on_c, 9, 46, 127
7, 94752, Note_on_c, 9, 54, 127
7, 94840, Note_off_c, 9, 46, 127
7, 94840, Note_off_c, 9, 54, 127
7, 94848, Note_on_c, 9, 46, 127
7, 94848, Note_on_c, 9, 35, 127
7, 94848, Note_on_c, 9, 41, 127
7, 94848, Note_on_c, 9, 40, 127
7, 94848, Note_on_c, 9, 39, 127
7, 94848, Note_on_c, 9, 54, 127
7, 94936, Note_off_c, 9, 46, 127
7, 94936, Note_off_c, 9, 54, 127
7, 94944, Note_on_c, 9, 54, 127
7, 95028, Note_off_c, 9, 39, 127
7, 95032, Note_off_c, 9, 54, 127
7, 95040, Note_on_c, 9, 46, 127
7, 95040, Note_on_c, 9, 54, 127
7, 95128, Note_off_c, 9, 46, 127
7, 95128, Note_off_c, 9, 54, 127
7, 95136, Note_on_c, 9, 46, 127
7, 95136, Note_on_c, 9, 54, 127
7, 95212, Note_off_c, 9, 35, 127
7, 95212, Note_off_c, 9, 41, 127
7, 95212, Note_off_c, 9, 40, 127
7, 95224, Note_off_c, 9, 46, 127
7, 95224, Note_off_c, 9, 54, 127
7, 95232, Note_on_c, 9, 50, 127
7, 95232, Note_on_c, 9, 46, 127
7, 95232, Note_on_c, 9, 54, 127
7, 95320, Note_off_c, 9, 46, 127
7, 95320, Note_off_c, 9, 54, 127
7, 95328, Note_on_c, 9, 54, 127
7, 95404, Note_off_c, 9, 50, 127
7, 95416, Note_off_c, 9, 54, 127
7, 95424, Note_on_c, 9, 46, 127
7, 95424, Note_on_c, 9, 54, 127
7, 95512, Note_off_c, 9, 46, 127
7, 95512, Note_off_c, 9, 54, 127
7, 95520, Note_on_c, 9, 46, 127
7, 95520, Note_on_c, 9, 54, 127
7, 95608, Note_off_c, 9, 46, 127
7, 95608, Note_off_c, 9, 54, 127
7, 95616, Note_on_c, 9, 46, 127
7, 95616, Note_on_c, 9, 35, 127
7, 95616, Note_on_c, 9, 41, 127
7, 95616, Note_on_c, 9, 40, 127
7, 95616, Note_on_c, 9, 39, 127
7, 95616, Note_on_c, 9, 54, 127
7, 95704, Note_off_c, 9, 46, 127
7, 95704, Note_off_c, 9, 54, 127
7, 95712, Note_on_c, 9, 54, 127
7, 95796, Note_off_c, 9, 39, 127
7, 95800, Note_off_c, 9, 54, 127
7, 95808, Note_on_c, 9, 46, 127
7, 95808, Note_on_c, 9, 54, 127
7, 95896, Note_off_c, 9, 46, 127
7, 95896, Note_off_c, 9, 54, 127
7, 95904, Note_on_c, 9, 46, 127
7, 95904, Note_on_c, 9, 54, 127
7, 95980, Note_off_c, 9, 35, 127
7, 95980, Note_off_c, 9, 41, 127
7, 95980, Note_off_c, 9, 40, 127
7, 95992, Note_off_c, 9, 46, 127
7, 95992, Note_off_c, 9, 54, 127
7, 96000, Note_on_c, 9, 46, 127
7, 96000, Note_on_c, 9, 54, 127
7, 96088, Note_off_c, 9, 46, 127
7, 96088, Note_off_c, 9, 54, 127
7, 96096, Note_on_c, 9, 54, 127
7, 96184, Note_off_c, 9, 54, 127
7, 96192, Note_on_c, 9, 46, 127
7, 96192, Note_on_c, 9, 54, 127
7, 96280, Note_off_c, 9, 46, 127
7, 96280, Note_off_c, 9, 54, 127
7, 96288, Note_on_c, 9, 46, 127
7, 96288, Note_on_c, 9, 54, 127
7, 96376, Note_off_c, 9, 46, 127
7, 96376, Note_off_c, 9, 54, 127
7, 96384, Note_on_c, 9, 46, 127
7, 96384, Note_on_c, 9, 35, 127
7, 96384, Note_on_c, 9, 41, 127
7, 96384, Note_on_c, 9, 40, 127
7, 96384, Note_on_c, 9, 39, 127
7, 96384, Note_on_c, 9, 54, 127
7, 96472, Note_off_c, 9, 46, 127
7, 96472, Note_off_c, 9, 54, 127
7, 96480, Note_on_c, 9, 54, 127
7, 96564, Note_off_c, 9, 39, 127
7, 96568, Note_off_c, 9, 54, 127
7, 96576, Note_on_c, 9, 46, 127
7, 96576, Note_on_c, 9, 54, 127
7, 96664, Note_off_c, 9, 46, 127
7, 96664, Note_off_c, 9, 54, 127
7, 96672, Note_on_c, 9, 46, 127
7, 96672, Note_on_c, 9, 54, 127
7, 96748, Note_off_c, 9, 35, 127
7, 96748, Note_off_c, 9, 41, 127
7, 96748, Note_off_c, 9, 40, 127
7, 96760, Note_off_c, 9, 46, 127
7, 96760, Note_off_c, 9, 54, 127
7, 96768, Note_on_c, 9, 50, 127
7, 96768, Note_on_c, 9, 46, 127
7, 96768, Note_on_c, 9, 54, 127
7, 96856, Note_off_c, 9, 46, 127
7, 96856, Note_off_c, 9, 54, 127
7, 96864, Note_on_c, 9, 54, 127
7, 96940, Note_off_c, 9, 50, 127
7, 96952, Note_off_c, 9, 54, 127
7, 96960, Note_on_c, 9, 46, 127
7, 96960, Note_on_c, 9, 54, 127
7, 97048, Note_off_c, 9, 46, 127
7, 97048, Note_off_c, 9, 54, 127
7, 97056, Note_on_c, 9, 46, 127
7, 97056, Note_on_c, 9, 54, 127
7, 97144, Note_off_c, 9, 46, 127
7, 97144, Note_off_c, 9, 54, 127
7, 97152, Note_on_c, 9, 46, 127
7, 97152, Note_on_c, 9, 35, 127
7, 97152, Note_on_c, 9, 41, 127
7, 97152, Note_on_c, 9, 40, 127
7, 97152, Note_on_c, 9, 39, 127
7, 97152, Note_on_c, 9, 54, 127
7, 97240, Note_off_c, 9, 46, 127
7, 97240, Note_off_c, 9, 54, 127
7, 97248, Note_on_c, 9, 54, 127
7, 97332, Note_off_c, 9, 39, 127
7, 97336, Note_off_c, 9, 54, 127
7, 97344, Note_on_c, 9, 46, 127
7, 97344, Note_on_c, 9, 54, 127
7, 97432, Note_off_c, 9, 46, 127
7, 97432, Note_off_c, 9, 54, 127
7, 97440, Note_on_c, 9, 46, 127
7, 97440, Note_on_c, 9, 54, 127
7, 97516, Note_off_c, 9, 35, 127
7, 97516, Note_off_c, 9, 41, 127
7, 97516, Note_off_c, 9, 40, 127
7, 97528, Note_off_c, 9, 46, 127
7, 97528, Note_off_c, 9, 54, 127
7, 97536, Note_on_c, 9, 46, 127
7, 97536, Note_on_c, 9, 54, 127
7, 97624, Note_off_c, 9, 46, 127
7, 97624, Note_off_c, 9, 54, 127
7, 97632, Note_on_c, 9, 54, 127
7, 97720, Note_off_c, 9, 54, 127
7, 97728, Note_on_c, 9, 46, 127
7, 97728, Note_on_c, 9, 54, 127
7, 97816, Note_off_c, 9, 46, 127
7, 97816, Note_off_c, 9, 54, 127
7, 97824, Note_on_c, 9, 46, 127
7, 97824, Note_on_c, 9, 54, 127
7, 97912, Note_off_c, 9, 46, 127
7, 97912, Note_off_c, 9, 54, 127
7, 97920, Note_on_c, 9, 46, 127
7, 97920, Note_on_c, 9, 35, 127
7, 97920, Note_on_c, 9, 41, 127
7, 97920, Note_on_c, 9, 40, 127
7, 97920, Note_on_c, 9, 39, 127
7, 97920, Note_on_c, 9, 54, 127
7, 98008, Note_off_c, 9, 46, 127
7, 98008, Note_off_c, 9, 54, 127
7, 98016, Note_on_c, 9, 54, 127
7, 98100, Note_off_c, 9, 39, 127
7, 98104, Note_off_c, 9, 54, 127
7, 98112, Note_on_c, 9, 46, 127
7, 98112, Note_on_c, 9, 54, 127
7, 98200, Note_off_c, 9, 46, 127
7, 98200, Note_off_c, 9, 54, 127
7, 98208, Note_on_c, 9, 46, 127
7, 98208, Note_on_c, 9, 54, 127
7, 98284, Note_off_c, 9, 35, 127
7, 98284, Note_off_c, 9, 41, 127
7, 98284, Note_off_c, 9, 40, 127
7, 98296, Note_off_c, 9, 46, 127
7, 98296, Note_off_c, 9, 54, 127
7, 98304, Note_on_c, 9, 50, 127
7, 98304, Note_on_c, 9, 46, 127
7, 98304, Note_on_c, 9, 54, 127
7, 98392, Note_off_c, 9, 46, 127
7, 98392, Note_off_c, 9, 54, 127
7, 98400, Note_on_c, 9, 54, 127
7, 98476, Note_off_c, 9, 50, 127
7, 98488, Note_off_c, 9, 54, 127
7, 98496, Note_on_c, 9, 46, 127
7, 98496, Note_on_c, 9, 54, 127
7, 98584, Note_off_c, 9, 46, 127
7, 98584, Note_off_c, 9, 54, 127
7, 98592, Note_on_c, 9, 46, 127
7, 98592, Note_on_c, 9, 54, 127
7, 98680, Note_off_c, 9, 46, 127
7, 98680, Note_off_c, 9, 54, 127
7, 98688, Note_on_c, 9, 46, 127
7, 98688, Note_on_c, 9, 35, 127
7, 98688, Note_on_c, 9, 41, 127
7, 98688, Note_on_c, 9, 40, 127
7, 98688, Note_on_c, 9, 39, 127
7, 98688, Note_on_c, 9, 54, 127
7, 98776, Note_off_c, 9, 46, 127
7, 98776, Note_off_c, 9, 54, 127
7, 98784, Note_on_c, 9, 54, 127
7, 98868, Note_off_c, 9, 39, 127
7, 98872, Note_off_c, 9, 54, 127
7, 98880, Note_on_c, 9, 46, 127
7, 98880, Note_on_c, 9, 54, 127
7, 98968, Note_off_c, 9, 46, 127
7, 98968, Note_off_c, 9, 54, 127
7, 98976, Note_on_c, 9, 46, 127
7, 98976, Note_on_c, 9, 54, 127
7, 99052, Note_off_c, 9, 35, 127
7, 99052, Note_off_c, 9, 41, 127
7, 99052, Note_off_c, 9, 40, 127
7, 99064, Note_off_c, 9, 46, 127
7, 99064, Note_off_c, 9, 54, 127
7, 99072, Note_on_c, 9, 46, 127
7, 99072, Note_on_c, 9, 54, 127
7, 99160, Note_off_c, 9, 46, 127
7, 99160, Note_off_c, 9, 54, 127
7, 99168, Note_on_c, 9, 54, 127
7, 99256, Note_off_c, 9, 54, 127
7, 99264, Note_on_c, 9, 46, 127
7, 99264, Note_on_c, 9, 54, 127
7, 99352, Note_off_c, 9, 46, 127
7, 99352, Note_off_c, 9, 54, 127
7, 99360, Note_on_c, 9, 46, 127
7, 99360, Note_on_c, 9, 54, 127
7, 99448, Note_off_c, 9, 46, 127
7, 99448, Note_off_c, 9, 54, 127
7, 99456, Note_on_c, 9, 46, 127
7, 99456, Note_on_c, 9, 35, 127
7, 99456, Note_on_c, 9, 41, 127
7, 99456, Note_on_c, 9, 40, 127
7, 99456, Note_on_c, 9, 39, 127
7, 99456, Note_on_c, 9, 54, 127
7, 99456, Note_on_c, 9, 50, 100
7, 99456, Note_on_c, 9, 40, 100
7, 99516, Note_off_c, 9, 40, 100
7, 99516, Note_off_c, 9, 50, 100
7, 99520, Note_on_c, 9, 50, 100
7, 99520, Note_on_c, 9, 40, 100
7, 99544, Note_off_c, 9, 46, 127
7, 99544, Note_off_c, 9, 54, 127
7, 99552, Note_on_c, 9, 54, 127
7, 99580, Note_off_c, 9, 40, 100
7, 99580, Note_off_c, 9, 50, 100
7, 99584, Note_on_c, 9, 50, 100
7, 99584, Note_on_c, 9, 40, 100
7, 99636, Note_off_c, 9, 39, 127
7, 99640, Note_off_c, 9, 54, 127
7, 99644, Note_off_c, 9, 40, 100
7, 99644, Note_off_c, 9, 50, 100
7, 99648, Note_on_c, 9, 46, 127
7, 99648, Note_on_c, 9, 54, 127
7, 99736, Note_off_c, 9, 46, 127
7, 99736, Note_off_c, 9, 54, 127
7, 99744, Note_on_c, 9, 46, 127
7, 99744, Note_on_c, 9, 54, 127
7, 99820, Note_off_c, 9, 35, 127
7, 99820, Note_off_c, 9, 41, 127
7, 99820, Note_off_c, 9, 40, 127
7, 99832, Note_off_c, 9, 46, 127
7, 99832, Note_off_c, 9, 54, 127
7, 99840, Note_on_c, 9, 50, 127
7, 99840, Note_on_c, 9, 46, 127
7, 99840, Note_on_c, 9, 54, 127
7, 99840, Note_on_c, 9, 49, 100
7, 99840, Note_on_c, 9, 55, 100
7, 99928, Note_off_c, 9, 46, 127
7, 99928, Note_off_c, 9, 54, 127
7, 99936, Note_on_c, 9, 54, 127
7, 100012, Note_off_c, 9, 50, 127
7, 100024, Note_off_c, 9, 54, 127
7, 100032, Note_on_c, 9, 46, 127
7, 100032, Note_on_c, 9, 54, 127
7, 100120, Note_off_c, 9, 46, 127
7, 100120, Note_off_c, 9, 54, 127
7, 100128, Note_on_c, 9, 46, 127
7, 100128, Note_on_c, 9, 54, 127
7, 100204, Note_off_c, 9, 49, 100
7, 100204, Note_off_c, 9, 55, 100
7, 100216, Note_off_c, 9, 46, 127
7, 100216, Note_off_c, 9, 54, 127
7, 100224, Note_on_c, 9, 46, 127
7, 100224, Note_on_c, 9, 35, 127
7, 100224, Note_on_c, 9, 41, 127
7, 100224, Note_on_c, 9, 40, 127
7, 100224, Note_on_c, 9, 39, 127
7, 100224, Note_on_c, 9, 54, 127
7, 100312, Note_off_c, 9, 46, 127
7, 100312, Note_off_c, 9, 54, 127
7, 100320, Note_on_c, 9, 54, 127
7, 100404, Note_off_c, 9, 39, 127
7, 100408, Note_off_c, 9, 54, 127
7, 100416, Note_on_c, 9, 46, 127
7, 100416, Note_on_c, 9, 54, 127
7, 100504, Note_off_c, 9, 46, 127
7, 100504, Note_off_c, 9, 54, 127
7, 100512, Note_on_c, 9, 46, 127
7, 100512, Note_on_c, 9, 54, 127
7, 100588, Note_off_c, 9, 35, 127
7, 100588, Note_off_c, 9, 41, 127
7, 100588, Note_off_c, 9, 40, 127
7, 100600, Note_off_c, 9, 46, 127
7, 100600, Note_off_c, 9, 54, 127
7, 100608, Note_on_c, 9, 46, 127
7, 100608, Note_on_c, 9, 54, 127
7, 100696, Note_off_c, 9, 46, 127
7, 100696, Note_off_c, 9, 54, 127
7, 100704, Note_on_c, 9, 54, 127
7, 100792, Note_off_c, 9, 54, 127
7, 100800, Note_on_c, 9, 46, 127
7, 100800, Note_on_c, 9, 54, 127
7, 100888, Note_off_c, 9, 46, 127
7, 100888, Note_off_c, 9, 54, 127
7, 100896, Note_on_c, 9, 46, 127
7, 100896, Note_on_c, 9, 54, 127
7, 100984, Note_off_c, 9, 46, 127
7, 100984, Note_off_c, 9, 54, 127
7, 100992, Note_on_c, 9, 46, 127
7, 100992, Note_on_c, 9, 35, 127
7, 100992, Note_on_c, 9, 41, 127
7, 100992, Note_on_c, 9, 40, 127
7, 100992, Note_on_c, 9, 39, 127
7, 100992, Note_on_c, 9, 54, 127
7, 101080, Note_off_c, 9, 46, 127
7, 101080, Note_off_c, 9, 54, 127
7, 101088, Note_on_c, 9, 54, 127
7, 101172, Note_off_c, 9, 39, 127
7, 101176, Note_off_c, 9, 54, 127
7, 101184, Note_on_c, 9, 46, 127
7, 101184, Note_on_c, 9, 54, 127
7, 101272, Note_off_c, 9, 46, 127
7, 101272, Note_off_c, 9, 54, 127
7, 101280, Note_on_c, 9, 46, 127
7, 101280, Note_on_c, 9, 54, 127
7, 101356, Note_off_c, 9, 35, 127
7, 101356, Note_off_c, 9, 41, 127
7, 101356, Note_off_c, 9, 40, 127
7, 101368, Note_off_c, 9, 46, 127
7, 101368, Note_off_c, 9, 54, 127
7, 101376, Note_on_c, 9, 50, 127
7, 101376, Note_on_c, 9, 46, 127
7, 101376, Note_on_c, 9, 54, 127
7, 101464, Note_off_c, 9, 46, 127
7, 101464, Note_off_c, 9, 54, 127
7, 101472, Note_on_c, 9, 54, 127
7, 101548, Note_off_c, 9, 50, 127
7, 101560, Note_off_c, 9, 54, 127
7, 101568, Note_on_c, 9, 46, 127
7, 101568, Note_on_c, 9, 54, 127
7, 101656, Note_off_c, 9, 46, 127
7, 101656, Note_off_c, 9, 54, 127
7, 101664, Note_on_c, 9, 46, 127
7, 101664, Note_on_c, 9, 54, 127
7, 101752, Note_off_c, 9, 46, 127
7, 101752, Note_off_c, 9, 54, 127
7, 101760, Note_on_c, 9, 46, 127
7, 101760, Note_on_c, 9, 35, 127
7, 101760, Note_on_c, 9, 41, 127
7, 101760, Note_on_c, 9, 40, 127
7, 101760, Note_on_c, 9, 39, 127
7, 101760, Note_on_c, 9, 54, 127
7, 101848, Note_off_c, 9, 46, 127
7, 101848, Note_off_c, 9, 54, 127
7, 101856, Note_on_c, 9, 54, 127
7, 101940, Note_off_c, 9, 39, 127
7, 101944, Note_off_c, 9, 54, 127
7, 101952, Note_on_c, 9, 46, 127
7, 101952, Note_on_c, 9, 54, 127
7, 102040, Note_off_c, 9, 46, 127
7, 102040, Note_off_c, 9, 54, 127
7, 102048, Note_on_c, 9, 46, 127
7, 102048, Note_on_c, 9, 54, 127
7, 102124, Note_off_c, 9, 35, 127
7, 102124, Note_off_c, 9, 41, 127
7, 102124, Note_off_c, 9, 40, 127
7, 102136, Note_off_c, 9, 46, 127
7, 102136, Note_off_c, 9, 54, 127
7, 102144, Note_on_c, 9, 46, 127
7, 102144, Note_on_c, 9, 54, 127
7, 102232, Note_off_c, 9, 46, 127
7, 102232, Note_off_c, 9, 54, 127
7, 102240, Note_on_c, 9, 54, 127
7, 102328, Note_off_c, 9, 54, 127
7, 102336, Note_on_c, 9, 46, 127
7, 102336, Note_on_c, 9, 54, 127
7, 102424, Note_off_c, 9, 46, 127
7, 102424, Note_off_c, 9, 54, 127
7, 102432, Note_on_c, 9, 46, 127
7, 102432, Note_on_c, 9, 54, 127
7, 102520, Note_off_c, 9, 46, 127
7, 102520, Note_off_c, 9, 54, 127
7, 102528, Note_on_c, 9, 46, 127
7, 102528, Note_on_c, 9, 35, 127
7, 102528, Note_on_c, 9, 41, 127
7, 102528, Note_on_c, 9, 40, 127
7, 102528, Note_on_c, 9, 39, 127
7, 102528, Note_on_c, 9, 54, 127
7, 102616, Note_off_c, 9, 46, 127
7, 102616, Note_off_c, 9, 54, 127
7, 102624, Note_on_c, 9, 54, 127
7, 102708, Note_off_c, 9, 39, 127
7, 102712, Note_off_c, 9, 54, 127
7, 102720, Note_on_c, 9, 46, 127
7, 102720, Note_on_c, 9, 54, 127
7, 102808, Note_off_c, 9, 46, 127
7, 102808, Note_off_c, 9, 54, 127
7, 102816, Note_on_c, 9, 46, 127
7, 102816, Note_on_c, 9, 54, 127
7, 102892, Note_off_c, 9, 35, 127
7, 102892, Note_off_c, 9, 41, 127
7, 102892, Note_off_c, 9, 40, 127
7, 102904, Note_off_c, 9, 46, 127
7, 102904, Note_off_c, 9, 54, 127
7, 102912, Note_on_c, 9, 50, 127
7, 102912, Note_on_c, 9, 46, 127
7, 102912, Note_on_c, 9, 54, 127
7, 103000, Note_off_c, 9, 46, 127
7, 103000, Note_off_c, 9, 54, 127
7, 103008, Note_on_c, 9, 54, 127
7, 103084, Note_off_c, 9, 50, 127
7, 103096, Note_off_c, 9, 54, 127
7, 103104, Note_on_c, 9, 46, 127
7, 103104, Note_on_c, 9, 54, 127
7, 103192, Note_off_c, 9, 46, 127
7, 103192, Note_off_c, 9, 54, 127
7, 103200, Note_on_c, 9, 46, 127
7, 103200, Note_on_c, 9, 54, 127
7, 103288, Note_off_c, 9, 46, 127
7, 103288, Note_off_c, 9, 54, 127
7, 103296, Note_on_c, 9, 46, 127
7, 103296, Note_on_c, 9, 35, 127
7, 103296, Note_on_c, 9, 41, 127
7, 103296, Note_on_c, 9, 40, 127
7, 103296, Note_on_c, 9, 39, 127
7, 103296, Note_on_c, 9, 54, 127
7, 103384, Note_off_c, 9, 46, 127
7, 103384, Note_off_c, 9, 54, 127
7, 103392, Note_on_c, 9, 54, 127
7, 103476, Note_off_c, 9, 39, 127
7, 103480, Note_off_c, 9, 54, 127
7, 103488, Note_on_c, 9, 46, 127
7, 103488, Note_on_c, 9, 54, 127
7, 103576, Note_off_c, 9, 46, 127
7, 103576, Note_off_c, 9, 54, 127
7, 103584, Note_on_c, 9, 46, 127
7, 103584, Note_on_c, 9, 54, 127
7, 103660, Note_off_c, 9, 35, 127
7, 103660, Note_off_c, 9, 41, 127
7, 103660, Note_off_c, 9, 40, 127
7, 103672, Note_off_c, 9, 46, 127
7, 103672, Note_off_c, 9, 54, 127
7, 103680, Note_on_c, 9, 46, 127
7, 103680, Note_on_c, 9, 54, 127
7, 103768, Note_off_c, 9, 46, 127
7, 103768, Note_off_c, 9, 54, 127
7, 103776, Note_on_c, 9, 54, 127
7, 103864, Note_off_c, 9, 54, 127
7, 103872, Note_on_c, 9, 46, 127
7, 103872, Note_on_c, 9, 54, 127
7, 103960, Note_off_c, 9, 46, 127
7, 103960, Note_off_c, 9, 54, 127
7, 103968, Note_on_c, 9, 46, 127
7, 103968, Note_on_c, 9, 54, 127
7, 104056, Note_off_c, 9, 46, 127
7, 104056, Note_off_c, 9, 54, 127
7, 104064, Note_on_c, 9, 46, 127
7, 104064, Note_on_c, 9, 35, 127
7, 104064, Note_on_c, 9, 41, 127
7, 104064, Note_on_c, 9, 40, 127
7, 104064, Note_on_c, 9, 39, 127
7, 104064, Note_on_c, 9, 54, 127
7, 104152, Note_off_c, 9, 46, 127
7, 104152, Note_off_c, 9, 54, 127
7, 104160, Note_on_c, 9, 54, 127
7, 104244, Note_off_c, 9, 39, 127
7, 104248, Note_off_c, 9, 54, 127
7, 104256, Note_on_c, 9, 46, 127
7, 104256, Note_on_c, 9, 54, 127
7, 104344, Note_off_c, 9, 46, 127
7, 104344, Note_off_c, 9, 54, 127
7, 104352, Note_on_c, 9, 46, 127
7, 104352, Note_on_c, 9, 54, 127
7, 104428, Note_off_c, 9, 35, 127
7, 104428, Note_off_c, 9, 41, 127
7, 104428, Note_off_c, 9, 40, 127
7, 104440, Note_off_c, 9, 46, 127
7, 104440, Note_off_c, 9, 54, 127
7, 104448, Note_on_c, 9, 50, 127
7, 104448, Note_on_c, 9, 46, 127
7, 104448, Note_on_c, 9, 54, 127
7, 104536, Note_off_c, 9, 46, 127
7, 104536, Note_off_c, 9, 54, 127
7, 104544, Note_on_c, 9, 54, 127
7, 104620, Note_off_c, 9, 50, 127
7, 104632, Note_off_c, 9, 54, 127
7, 104640, Note_on_c, 9, 46, 127
7, 104640, Note_on_c, 9, 54, 127
7, 104728, Note_off_c, 9, 46, 127
7, 104728, Note_off_c, 9, 54, 127
7, 104736, Note_on_c, 9, 46, 127
7, 104736, Note_on_c, 9, 54, 127
7, 104824, Note_off_c, 9, 46, 127
7, 104824, Note_off_c, 9, 54, 127
7, 104832, Note_on_c, 9, 46, 127
7, 104832, Note_on_c, 9, 35, 127
7, 104832, Note_on_c, 9, 41, 127
7, 104832, Note_on_c, 9, 40, 127
7, 104832, Note_on_c, 9, 39, 127
7, 104832, Note_on_c, 9, 54, 127
7, 104920, Note_off_c, 9, 46, 127
7, 104920, Note_off_c, 9, 54, 127
7, 104928, Note_on_c, 9, 54, 127
7, 105012, Note_off_c, 9, 39, 127
7, 105016, Note_off_c, 9, 54, 127
7, 105024, Note_on_c, 9, 46, 127
7, 105024, Note_on_c, 9, 54, 127
7, 105112, Note_off_c, 9, 46, 127
7, 105112, Note_off_c, 9, 54, 127
7, 105120, Note_on_c, 9, 46, 127
7, 105120, Note_on_c, 9, 54, 127
7, 105196, Note_off_c, 9, 35, 127
7, 105196, Note_off_c, 9, 41, 127
7, 105196, Note_off_c, 9, 40, 127
7, 105208, Note_off_c, 9, 46, 127
7, 105208, Note_off_c, 9, 54, 127
7, 105216, Note_on_c, 9, 46, 127
7, 105216, Note_on_c, 9, 54, 127
7, 105216, Note_on_c, 9, 50, 100
7, 105216, Note_on_c, 9, 40, 100
7, 105276, Note_off_c, 9, 50, 100
7, 105276, Note_off_c, 9, 40, 100
7, 105280, Note_on_c, 9, 50, 100
7, 105280, Note_on_c, 9, 40, 100
7, 105304, Note_off_c, 9, 46, 127
7, 105304, Note_off_c, 9, 54, 127
7, 105312, Note_on_c, 9, 54, 127
7, 105340, Note_off_c, 9, 50, 100
7, 105340, Note_off_c, 9, 40, 100
7, 105344, Note_on_c, 9, 50, 100
7, 105344, Note_on_c, 9, 40, 100
7, 105400, Note_off_c, 9, 54, 127
7, 105404, Note_off_c, 9, 50, 100
7, 105404, Note_off_c, 9, 40, 100
7, 105408, Note_on_c, 9, 46, 127
7, 105408, Note_on_c, 9, 54, 127
7, 105408, Note_on_c, 9, 50, 100
7, 105408, Note_on_c, 9, 40, 100
7, 105468, Note_off_c, 9, 50, 100
7, 105468, Note_off_c, 9, 40, 100
7, 105472, Note_on_c, 9, 50, 100
7, 105472, Note_on_c, 9, 40, 100
7, 105496, Note_off_c, 9, 46, 127
7, 105496, Note_off_c, 9, 54, 127
7, 105504, Note_on_c, 9, 46, 127
7, 105504, Note_on_c, 9, 54, 127
7, 105532, Note_off_c, 9, 50, 100
7, 105532, Note_off_c, 9, 40, 100
7, 105536, Note_on_c, 9, 50, 100
7, 105536, Note_on_c, 9, 40, 100
7, 105592, Note_off_c, 9, 46, 127
7, 105592, Note_off_c, 9, 54, 127
7, 105596, Note_off_c, 9, 50, 100
7, 105596, Note_off_c, 9, 40, 100
7, 105600, Note_on_c, 9, 46, 127
7, 105600, Note_on_c, 9, 35, 127
7, 105600, Note_on_c, 9, 41, 127
7, 105600, Note_on_c, 9, 40, 127
7, 105600, Note_on_c, 9, 39, 127
7, 105600, Note_on_c, 9, 54, 127
7, 105600, Note_on_c, 9, 50, 100
7, 105600, Note_on_c, 9, 40, 100
7, 105660, Note_off_c, 9, 40, 100
7, 105660, Note_off_c, 9, 50, 100
7, 105664, Note_on_c, 9, 50, 100
7, 105664, Note_on_c, 9, 40, 100
7, 105688, Note_off_c, 9, 46, 127
7, 105688, Note_off_c, 9, 54, 127
7, 105696, Note_on_c, 9, 54, 127
7, 105724, Note_off_c, 9, 40, 100
7, 105724, Note_off_c, 9, 50, 100
7, 105728, Note_on_c, 9, 50, 100
7, 105728, Note_on_c, 9, 40, 100
7, 105780, Note_off_c, 9, 39, 127
7, 105784, Note_off_c, 9, 54, 127
7, 105788, Note_off_c, 9, 40, 100
7, 105788, Note_off_c, 9, 50, 100
7, 105792, Note_on_c, 9, 46, 127
7, 105792, Note_on_c, 9, 54, 127
7, 105792, Note_on_c, 9, 50, 100
7, 105792, Note_on_c, 9, 40, 100
7, 105852, Note_off_c, 9, 40, 100
7, 105852, Note_off_c, 9, 50, 100
7, 105856, Note_on_c, 9, 50, 100
7, 105856, Note_on_c, 9, 40, 100
7, 105880, Note_off_c, 9, 46, 127
7, 105880, Note_off_c, 9, 54, 127
7, 105888, Note_on_c, 9, 46, 127
7, 105888, Note_on_c, 9, 54, 127
7, 105916, Note_off_c, 9, 40, 100
7, 105916, Note_off_c, 9, 50, 100
7, 105920, Note_on_c, 9, 50, 100
7, 105920, Note_on_c, 9, 40, 100
7, 105964, Note_off_c, 9, 35, 127
7, 105964, Note_off_c, 9, 41, 127
7, 105964, Note_off_c, 9, 40, 127
7, 105976, Note_off_c, 9, 46, 127
7, 105976, Note_off_c, 9, 54, 127
7, 105980, Note_off_c, 9, 50, 100
7, 105980, Note_off_c, 9, 40, 100
7, 105984, Note_on_c, 9, 50, 127
7, 105984, Note_on_c, 9, 46, 127
7, 105984, Note_on_c, 9, 54, 127
7, 106072, Note_off_c, 9, 46, 127
7, 106072, Note_off_c, 9, 54, 127
7, 106080, Note_on_c, 9, 54, 127
7, 106156, Note_off_c, 9, 50, 127
7, 106168, Note_off_c, 9, 54, 127
7, 106176, Note_on_c, 9, 46, 127
7, 106176, Note_on_c, 9, 54, 127
7, 106176, Note_on_c, 9, 49, 100
7, 106176, Note_on_c, 9, 55, 100
7, 106264, Note_off_c, 9, 46, 127
7, 106264, Note_off_c, 9, 54, 127
7, 106272, Note_on_c, 9, 46, 127
7, 106272, Note_on_c, 9, 54, 127
7, 106360, Note_off_c, 9, 46, 127
7, 106360, Note_off_c, 9, 54, 127
7, 106368, Note_on_c, 9, 46, 127
7, 106368, Note_on_c, 9, 35, 127
7, 106368, Note_on_c, 9, 41, 127
7, 106368, Note_on_c, 9, 40, 127
7, 106368, Note_on_c, 9, 39, 127
7, 106368, Note_on_c, 9, 54, 127
7, 106368, Note_on_c, 9, 49, 100
7, 106368, Note_on_c, 9, 55, 100
7, 106456, Note_off_c, 9, 46, 127
7, 106456, Note_off_c, 9, 54, 127
7, 106464, Note_on_c, 9, 54, 127
7, 106540, Note_off_c, 9, 49, 100
7, 106540, Note_off_c, 9, 55, 100
7, 106548, Note_off_c, 9, 39, 127
7, 106552, Note_off_c, 9, 54, 127
7, 106560, Note_on_c, 9, 46, 127
7, 106560, Note_on_c, 9, 54, 127
7, 106648, Note_off_c, 9, 46, 127
7, 106648, Note_off_c, 9, 54, 127
7, 106656, Note_on_c, 9, 46, 127
7, 106656, Note_on_c, 9, 54, 127
7, 106732, Note_off_c, 9, 35, 127
7, 106732, Note_off_c, 9, 41, 127
7, 106732, Note_off_c, 9, 40, 127
7, 106732, Note_off_c, 9, 49, 100
7, 106732, Note_off_c, 9, 55, 100
7, 106744, Note_off_c, 9, 46, 127
7, 106744, Note_off_c, 9, 54, 127
7, 106752, Note_on_c, 9, 46, 127
7, 106752, Note_on_c, 9, 54, 127
7, 106840, Note_off_c, 9, 46, 127
7, 106840, Note_off_c, 9, 54, 127
7, 106848, Note_on_c, 9, 54, 127
7, 106936, Note_off_c, 9, 54, 127
7, 106944, Note_on_c, 9, 46, 127
7, 106944, Note_on_c, 9, 54, 127
7, 107032, Note_off_c, 9, 46, 127
7, 107032, Note_off_c, 9, 54, 127
7, 107040, Note_on_c, 9, 46, 127
7, 107040, Note_on_c, 9, 54, 127
7, 107128, Note_off_c, 9, 46, 127
7, 107128, Note_off_c, 9, 54, 127
7, 107136, Note_on_c, 9, 46, 127
7, 107136, Note_on_c, 9, 35, 127
7, 107136, Note_on_c, 9, 41, 127
7, 107136, Note_on_c, 9, 40, 127
7, 107136, Note_on_c, 9, 39, 127
7, 107136, Note_on_c, 9, 54, 127
7, 107224, Note_off_c, 9, 46, 127
7, 107224, Note_off_c, 9, 54, 127
7, 107232, Note_on_c, 9, 54, 127
7, 107316, Note_off_c, 9, 39, 127
7, 107320, Note_off_c, 9, 54, 127
7, 107328, Note_on_c, 9, 46, 127
7, 107328, Note_on_c, 9, 54, 127
7, 107416, Note_off_c, 9, 46, 127
7, 107416, Note_off_c, 9, 54, 127
7, 107424, Note_on_c, 9, 46, 127
7, 107424, Note_on_c, 9, 54, 127
7, 107500, Note_off_c, 9, 35, 127
7, 107500, Note_off_c, 9, 41, 127
7, 107500, Note_off_c, 9, 40, 127
7, 107512, Note_off_c, 9, 46, 127
7, 107512, Note_off_c, 9, 54, 127
7, 107520, Note_on_c, 9, 50, 127
7, 107520, Note_on_c, 9, 46, 127
7, 107520, Note_on_c, 9, 54, 127
7, 107608, Note_off_c, 9, 46, 127
7, 107608, Note_off_c, 9, 54, 127
7, 107616, Note_on_c, 9, 54, 127
7, 107692, Note_off_c, 9, 50, 127
7, 107704, Note_off_c, 9, 54, 127
7, 107712, Note_on_c, 9, 46, 127
7, 107712, Note_on_c, 9, 54, 127
7, 107800, Note_off_c, 9, 46, 127
7, 107800, Note_off_c, 9, 54, 127
7, 107808, Note_on_c, 9, 46, 127
7, 107808, Note_on_c, 9, 54, 127
7, 107896, Note_off_c, 9, 46, 127
7, 107896, Note_off_c, 9, 54, 127
7, 107904, Note_on_c, 9, 46, 127
7, 107904, Note_on_c, 9, 35, 127
7, 107904, Note_on_c, 9, 41, 127
7, 107904, Note_on_c, 9, 40, 127
7, 107904, Note_on_c, 9, 39, 127
7, 107904, Note_on_c, 9, 54, 127
7, 107992, Note_off_c, 9, 46, 127
7, 107992, Note_off_c, 9, 54, 127
7, 108000, Note_on_c, 9, 54, 127
7, 108084, Note_off_c, 9, 39, 127
7, 108088, Note_off_c, 9, 54, 127
7, 108096, Note_on_c, 9, 46, 127
7, 108096, Note_on_c, 9, 54, 127
7, 108184, Note_off_c, 9, 46, 127
7, 108184, Note_off_c, 9, 54, 127
7, 108192, Note_on_c, 9, 46, 127
7, 108192, Note_on_c, 9, 54, 127
7, 108268, Note_off_c, 9, 35, 127
7, 108268, Note_off_c, 9, 41, 127
7, 108268, Note_off_c, 9, 40, 127
7, 108280, Note_off_c, 9, 46, 127
7, 108280, Note_off_c, 9, 54, 127
7, 108288, Note_on_c, 9, 46, 127
7, 108288, Note_on_c, 9, 54, 127
7, 108376, Note_off_c, 9, 46, 127
7, 108376, Note_off_c, 9, 54, 127
7, 108384, Note_on_c, 9, 54, 127
7, 108472, Note_off_c, 9, 54, 127
7, 108480, Note_on_c, 9, 46, 127
7, 108480, Note_on_c, 9, 54, 127
7, 108568, Note_off_c, 9, 46, 127
7, 108568, Note_off_c, 9, 54, 127
7, 108576, Note_on_c, 9, 46, 127
7, 108576, Note_on_c, 9, 54, 127
7, 108664, Note_off_c, 9, 46, 127
7, 108664, Note_off_c, 9, 54, 127
7, 108672, Note_on_c, 9, 46, 127
7, 108672, Note_on_c, 9, 35, 127
7, 108672, Note_on_c, 9, 41, 127
7, 108672, Note_on_c, 9, 40, 127
7, 108672, Note_on_c, 9, 39, 127
7, 108672, Note_on_c, 9, 54, 127
7, 108760, Note_off_c, 9, 46, 127
7, 108760, Note_off_c, 9, 54, 127
7, 108768, Note_on_c, 9, 54, 127
7, 108852, Note_off_c, 9, 39, 127
7, 108856, Note_off_c, 9, 54, 127
7, 108864, Note_on_c, 9, 46, 127
7, 108864, Note_on_c, 9, 54, 127
7, 108952, Note_off_c, 9, 46, 127
7, 108952, Note_off_c, 9, 54, 127
7, 108960, Note_on_c, 9, 46, 127
7, 108960, Note_on_c, 9, 54, 127
7, 109036, Note_off_c, 9, 35, 127
7, 109036, Note_off_c, 9, 41, 127
7, 109036, Note_off_c, 9, 40, 127
7, 109048, Note_off_c, 9, 46, 127
7, 109048, Note_off_c, 9, 54, 127
7, 109056, Note_on_c, 9, 50, 127
7, 109056, Note_on_c, 9, 46, 127
7, 109056, Note_on_c, 9, 54, 127
7, 109144, Note_off_c, 9, 46, 127
7, 109144, Note_off_c, 9, 54, 127
7, 109152, Note_on_c, 9, 54, 127
7, 109228, Note_off_c, 9, 50, 127
7, 109240, Note_off_c, 9, 54, 127
7, 109248, Note_on_c, 9, 46, 127
7, 109248, Note_on_c, 9, 54, 127
7, 109336, Note_off_c, 9, 46, 127
7, 109336, Note_off_c, 9, 54, 127
7, 109344, Note_on_c, 9, 46, 127
7, 109344, Note_on_c, 9, 54, 127
7, 109432, Note_off_c, 9, 46, 127
7, 109432, Note_off_c, 9, 54, 127
7, 109440, Note_on_c, 9, 46, 127
7, 109440, Note_on_c, 9, 35, 127
7, 109440, Note_on_c, 9, 41, 127
7, 109440, Note_on_c, 9, 40, 127
7, 109440, Note_on_c, 9, 39, 127
7, 109440, Note_on_c, 9, 54, 127
7, 109528, Note_off_c, 9, 46, 127
7, 109528, Note_off_c, 9, 54, 127
7, 109536, Note_on_c, 9, 54, 127
7, 109620, Note_off_c, 9, 39, 127
7, 109624, Note_off_c, 9, 54, 127
7, 109632, Note_on_c, 9, 46, 127
7, 109632, Note_on_c, 9, 54, 127
7, 109720, Note_off_c, 9, 46, 127
7, 109720, Note_off_c, 9, 54, 127
7, 109728, Note_on_c, 9, 46, 127
7, 109728, Note_on_c, 9, 54, 127
7, 109804, Note_off_c, 9, 35, 127
7, 109804, Note_off_c, 9, 41, 127
7, 109804, Note_off_c, 9, 40, 127
7, 109816, Note_off_c, 9, 46, 127
7, 109816, Note_off_c, 9, 54, 127
7, 109824, Note_on_c, 9, 46, 127
7, 109824, Note_on_c, 9, 54, 127
7, 109912, Note_off_c, 9, 46, 127
7, 109912, Note_off_c, 9, 54, 127
7, 109920, Note_on_c, 9, 54, 127
7, 110008, Note_off_c, 9, 54, 127
7, 110016, Note_on_c, 9, 46, 127
7, 110016, Note_on_c, 9, 54, 127
7, 110104, Note_off_c, 9, 46, 127
7, 110104, Note_off_c, 9, 54, 127
7, 110112, Note_on_c, 9, 46, 127
7, 110112, Note_on_c, 9, 54, 127
7, 110200, Note_off_c, 9, 46, 127
7, 110200, Note_off_c, 9, 54, 127
7, 110208, Note_on_c, 9, 46, 127
7, 110208, Note_on_c, 9, 35, 127
7, 110208, Note_on_c, 9, 41, 127
7, 110208, Note_on_c, 9, 40, 127
7, 110208, Note_on_c, 9, 39, 127
7, 110208, Note_on_c, 9, 54, 127
7, 110296, Note_off_c, 9, 46, 127
7, 110296, Note_off_c, 9, 54, 127
7, 110304, Note_on_c, 9, 54, 127
7, 110388, Note_off_c, 9, 39, 127
7, 110392, Note_off_c, 9, 54, 127
7, 110400, Note_on_c, 9, 46, 127
7, 110400, Note_on_c, 9, 54, 127
7, 110488, Note_off_c, 9, 46, 127
7, 110488, Note_off_c, 9, 54, 127
7, 110496, Note_on_c, 9, 46, 127
7, 110496, Note_on_c, 9, 54, 127
7, 110572, Note_off_c, 9, 35, 127
7, 110572, Note_off_c, 9, 41, 127
7, 110572, Note_off_c, 9, 40, 127
7, 110584, Note_off_c, 9, 46, 127
7, 110584, Note_off_c, 9, 54, 127
7, 110592, Note_on_c, 9, 49, 100
7, 110592, Note_on_c, 9, 55, 100
7, 110592, Note_on_c, 9, 39, 100
7, 110592, Note_on_c, 9, 50, 100
7, 110592, Note_on_c, 9, 41, 100
7, 110592, Note_on_c, 9, 41, 100
7, 110592, Note_on_c, 9, 33, 100
7, 110592, Note_on_c, 9, 35, 100
7, 110956, Note_off_c, 9, 49, 100
7, 110956, Note_off_c, 9, 55, 100
7, 110956, Note_off_c, 9, 39, 100
7, 110956, Note_off_c, 9, 50, 100
7, 110956, Note_off_c, 9, 41, 100
7, 110956, Note_off_c, 9, 41, 100
7, 110956, Note_off_c, 9, 33, 100
7, 110956, Note_off_c, 9, 35, 100
7, 110956, End_track
8, 0, Start_track
8, 0, Title_t, """baby you're a rich man"""
8, 0, Key_signature, 0, "major"
8, 0, End_track
9, 0, Start_track
9, 0, Title_t, "by the beatles "
9, 0, Key_signature, 0, "major"
9, 0, End_track
10, 0, Start_track
10, 0, Title_t, "Written by Paul McCartney"
10, 0, Key_signature, 0, "major"
10, 0, Note_on_c, 9, 50, 127
10, 0, Note_on_c, 9, 46, 127
10, 0, Note_on_c, 9, 54, 127
10, 88, Note_off_c, 9, 46, 127
10, 88, Note_off_c, 9, 54, 127
10, 96, Note_on_c, 9, 54, 127
10, 172, Note_off_c, 9, 50, 127
10, 184, Note_off_c, 9, 54, 127
10, 192, Note_on_c, 9, 46, 127
10, 192, Note_on_c, 9, 54, 127
10, 280, Note_off_c, 9, 46, 127
10, 280, Note_off_c, 9, 54, 127
10, 288, Note_on_c, 9, 46, 127
10, 288, Note_on_c, 9, 54, 127
10, 376, Note_off_c, 9, 46, 127
10, 376, Note_off_c, 9, 54, 127
10, 384, Note_on_c, 9, 46, 127
10, 384, Note_on_c, 9, 35, 127
10, 384, Note_on_c, 9, 41, 127
10, 384, Note_on_c, 9, 40, 127
10, 384, Note_on_c, 9, 39, 127
10, 384, Note_on_c, 9, 54, 127
10, 472, Note_off_c, 9, 46, 127
10, 472, Note_off_c, 9, 54, 127
10, 480, Note_on_c, 9, 54, 127
10, 564, Note_off_c, 9, 39, 127
10, 568, Note_off_c, 9, 54, 127
10, 576, Note_on_c, 9, 46, 127
10, 576, Note_on_c, 9, 54, 127
10, 664, Note_off_c, 9, 46, 127
10, 664, Note_off_c, 9, 54, 127
10, 672, Note_on_c, 9, 46, 127
10, 672, Note_on_c, 9, 54, 127
10, 748, Note_off_c, 9, 35, 127
10, 748, Note_off_c, 9, 41, 127
10, 748, Note_off_c, 9, 40, 127
10, 760, Note_off_c, 9, 46, 127
10, 760, Note_off_c, 9, 54, 127
10, 768, Note_on_c, 9, 46, 127
10, 768, Note_on_c, 9, 54, 127
10, 856, Note_off_c, 9, 46, 127
10, 856, Note_off_c, 9, 54, 127
10, 864, Note_on_c, 9, 54, 127
10, 952, Note_off_c, 9, 54, 127
10, 960, Note_on_c, 9, 46, 127
10, 960, Note_on_c, 9, 54, 127
10, 1048, Note_off_c, 9, 46, 127
10, 1048, Note_off_c, 9, 54, 127
10, 1056, Note_on_c, 9, 46, 127
10, 1056, Note_on_c, 9, 54, 127
10, 1144, Note_off_c, 9, 46, 127
10, 1144, Note_off_c, 9, 54, 127
10, 1152, Note_on_c, 9, 46, 127
10, 1152, Note_on_c, 9, 35, 127
10, 1152, Note_on_c, 9, 41, 127
10, 1152, Note_on_c, 9, 40, 127
10, 1152, Note_on_c, 9, 39, 127
10, 1152, Note_on_c, 9, 54, 127
10, 1240, Note_off_c, 9, 46, 127
10, 1240, Note_off_c, 9, 54, 127
10, 1248, Note_on_c, 9, 54, 127
10, 1332, Note_off_c, 9, 39, 127
10, 1336, Note_off_c, 9, 54, 127
10, 1344, Note_on_c, 9, 46, 127
10, 1344, Note_on_c, 9, 54, 127
10, 1432, Note_off_c, 9, 46, 127
10, 1432, Note_off_c, 9, 54, 127
10, 1440, Note_on_c, 9, 46, 127
10, 1440, Note_on_c, 9, 54, 127
10, 1516, Note_off_c, 9, 35, 127
10, 1516, Note_off_c, 9, 41, 127
10, 1516, Note_off_c, 9, 40, 127
10, 1528, Note_off_c, 9, 46, 127
10, 1528, Note_off_c, 9, 54, 127
10, 1528, End_track
11, 0, Start_track
11, 0, Title_t, "and John Lennon"
11, 0, Key_signature, 0, "major"
11, 0, End_track
12, 0, Start_track
12, 0, Title_t, "from ""Magical Mystery Tour"""
12, 0, Key_signature, 0, "major"
12, 0, End_track
13, 0, Start_track
13, 0, Title_t, "Midi version by Yoav Brill,"
13, 0, Key_signature, 0, "major"
13, 0, End_track
14, 0, Start_track
14, 0, Title_t, "Israel - brill@trendline.co.il"
14, 0, Key_signature, 0, "major"
14, 0, End_track
15, 0, Start_track
15, 0, Title_t, "complited - July 2nd 1996"
15, 0, Key_signature, 0, "major"
15, 0, End_track
16, 0, Start_track
16, 0, Key_signature, 0, "major"
16, 0, End_track
0, 0, End_of_file
