0, 0, Header, 1, 5, 960
1, 0, Start_track
1, 0, Control_c, 0, 101, 0
1, 0, Control_c, 0, 100, 0
1, 0, Control_c, 0, 6, 12
1, 0, Control_c, 0, 38, 0
1, 0, Control_c, 1, 101, 0
1, 0, Control_c, 1, 100, 0
1, 0, Control_c, 1, 6, 12
1, 0, Control_c, 1, 38, 0
1, 0, Control_c, 2, 101, 0
1, 0, Control_c, 2, 100, 0
1, 0, Control_c, 2, 6, 12
1, 0, Control_c, 2, 38, 0
1, 0, Control_c, 3, 101, 0
1, 0, Control_c, 3, 100, 0
1, 0, Control_c, 3, 6, 12
1, 0, Control_c, 3, 38, 0
1, 0, Control_c, 4, 101, 0
1, 0, Control_c, 4, 100, 0
1, 0, Control_c, 4, 6, 12
1, 0, Control_c, 4, 38, 0
1, 0, Control_c, 5, 101, 0
1, 0, Control_c, 5, 100, 0
1, 0, Control_c, 5, 6, 12
1, 0, Control_c, 5, 38, 0
1, 0, Control_c, 6, 101, 0
1, 0, Control_c, 6, 100, 0
1, 0, Control_c, 6, 6, 12
1, 0, Control_c, 6, 38, 0
1, 0, Control_c, 7, 101, 0
1, 0, Control_c, 7, 100, 0
1, 0, Control_c, 7, 6, 12
1, 0, Control_c, 7, 38, 0
1, 0, Control_c, 8, 101, 0
1, 0, Control_c, 8, 100, 0
1, 0, Control_c, 8, 6, 12
1, 0, Control_c, 8, 38, 0
1, 0, Control_c, 9, 101, 0
1, 0, Control_c, 9, 100, 0
1, 0, Control_c, 9, 6, 12
1, 0, Control_c, 9, 38, 0
1, 0, Control_c, 10, 101, 0
1, 0, Control_c, 10, 100, 0
1, 0, Control_c, 10, 6, 12
1, 0, Control_c, 10, 38, 0
1, 0, Control_c, 11, 101, 0
1, 0, Control_c, 11, 100, 0
1, 0, Control_c, 11, 6, 12
1, 0, Control_c, 11, 38, 0
1, 0, Control_c, 12, 101, 0
1, 0, Control_c, 12, 100, 0
1, 0, Control_c, 12, 6, 12
1, 0, Control_c, 12, 38, 0
1, 0, Control_c, 13, 101, 0
1, 0, Control_c, 13, 100, 0
1, 0, Control_c, 13, 6, 12
1, 0, Control_c, 13, 38, 0
1, 0, Control_c, 14, 101, 0
1, 0, Control_c, 14, 100, 0
1, 0, Control_c, 14, 6, 12
1, 0, Control_c, 14, 38, 0
1, 0, Control_c, 15, 101, 0
1, 0, Control_c, 15, 100, 0
1, 0, Control_c, 15, 6, 12
1, 0, Control_c, 15, 38, 0
1, 0, Time_signature, 4, 2, 24, 8
1, 0, Tempo, 400000
1, 0, End_track
2, 0, Start_track
2, 0, Pitch_bend_c, 0, 8192
2, 0, Control_c, 0, 7, 103
2, 0, Control_c, 0, 10, 63
2, 0, Control_c, 0, 93, 0
2, 0, Control_c, 0, 91, 0
2, 0, Control_c, 0, 95, 0
2, 0, Control_c, 0, 92, 0
2, 0, Control_c, 0, 11, 127
2, 0, Program_c, 0, 28
2, 0, Control_c, 1, 7, 103
2, 0, Control_c, 1, 10, 63
2, 0, Control_c, 1, 93, 0
2, 0, Control_c, 1, 91, 0
2, 0, Control_c, 1, 95, 0
2, 0, Control_c, 1, 92, 0
2, 0, Control_c, 1, 11, 127
2, 0, Program_c, 1, 28
2, 0, Note_on_c, 0, 40, 95
2, 480, Note_off_c, 0, 40, 95
2, 480, Note_on_c, 0, 40, 95
2, 960, Note_off_c, 0, 40, 95
2, 960, Note_on_c, 0, 43, 95
2, 1440, Note_off_c, 0, 43, 95
2, 1440, Note_on_c, 0, 43, 95
2, 1920, Note_off_c, 0, 43, 95
2, 1920, Note_on_c, 0, 45, 95
2, 2400, Note_off_c, 0, 45, 95
2, 2400, Note_on_c, 0, 45, 95
2, 2880, Note_off_c, 0, 45, 95
2, 2880, Note_on_c, 0, 46, 95
2, 3360, Note_off_c, 0, 46, 95
2, 3360, Note_on_c, 0, 45, 95
2, 3840, Note_off_c, 0, 45, 95
2, 3840, Note_on_c, 0, 40, 95
2, 4320, Note_off_c, 0, 40, 95
2, 4320, Note_on_c, 0, 40, 95
2, 4800, Note_off_c, 0, 40, 95
2, 4800, Note_on_c, 0, 43, 95
2, 5280, Note_off_c, 0, 43, 95
2, 5280, Note_on_c, 0, 43, 95
2, 5760, Note_off_c, 0, 43, 95
2, 5760, Note_on_c, 0, 45, 95
2, 6240, Note_off_c, 0, 45, 95
2, 6240, Note_on_c, 0, 45, 95
2, 6720, Note_off_c, 0, 45, 95
2, 6720, Note_on_c, 0, 46, 95
2, 7200, Note_off_c, 0, 46, 95
2, 7200, Note_on_c, 0, 45, 95
2, 7680, Note_off_c, 0, 45, 95
2, 7680, Note_on_c, 0, 40, 95
2, 8160, Note_off_c, 0, 40, 95
2, 8160, Note_on_c, 0, 40, 95
2, 8640, Note_off_c, 0, 40, 95
2, 8640, Note_on_c, 0, 43, 95
2, 9120, Note_off_c, 0, 43, 95
2, 9120, Note_on_c, 0, 43, 95
2, 9600, Note_off_c, 0, 43, 95
2, 9600, Note_on_c, 0, 45, 95
2, 10080, Note_off_c, 0, 45, 95
2, 10080, Note_on_c, 0, 45, 95
2, 10560, Note_off_c, 0, 45, 95
2, 10560, Note_on_c, 0, 46, 95
2, 11040, Note_off_c, 0, 46, 95
2, 11040, Note_on_c, 0, 45, 95
2, 11520, Note_off_c, 0, 45, 95
2, 11520, Note_on_c, 0, 40, 95
2, 12000, Note_off_c, 0, 40, 95
2, 12000, Note_on_c, 0, 40, 95
2, 12480, Note_off_c, 0, 40, 95
2, 12480, Note_on_c, 0, 43, 95
2, 12960, Note_off_c, 0, 43, 95
2, 12960, Note_on_c, 0, 43, 95
2, 13440, Note_off_c, 0, 43, 95
2, 13440, Note_on_c, 0, 45, 95
2, 13920, Note_off_c, 0, 45, 95
2, 13920, Note_on_c, 0, 45, 95
2, 14400, Note_off_c, 0, 45, 95
2, 14400, Note_on_c, 0, 46, 95
2, 14880, Note_off_c, 0, 46, 95
2, 14880, Note_on_c, 0, 45, 95
2, 15360, Note_off_c, 0, 45, 95
2, 15360, Note_on_c, 0, 40, 95
2, 15840, Note_off_c, 0, 40, 95
2, 15840, Note_on_c, 0, 40, 95
2, 16320, Note_off_c, 0, 40, 95
2, 16320, Note_on_c, 0, 43, 95
2, 16800, Note_off_c, 0, 43, 95
2, 16800, Note_on_c, 0, 43, 95
2, 17280, Note_off_c, 0, 43, 95
2, 17280, Note_on_c, 0, 45, 95
2, 17760, Note_off_c, 0, 45, 95
2, 17760, Note_on_c, 0, 45, 95
2, 18240, Note_off_c, 0, 45, 95
2, 18240, Note_on_c, 0, 46, 95
2, 18720, Note_off_c, 0, 46, 95
2, 18720, Note_on_c, 0, 45, 95
2, 19200, Note_off_c, 0, 45, 95
2, 19200, Note_on_c, 0, 40, 95
2, 19680, Note_off_c, 0, 40, 95
2, 19680, Note_on_c, 0, 40, 95
2, 20160, Note_off_c, 0, 40, 95
2, 20160, Note_on_c, 0, 43, 95
2, 20640, Note_off_c, 0, 43, 95
2, 20640, Note_on_c, 0, 43, 95
2, 21120, Note_off_c, 0, 43, 95
2, 21120, Note_on_c, 0, 45, 95
2, 21600, Note_off_c, 0, 45, 95
2, 21600, Note_on_c, 0, 45, 95
2, 22080, Note_off_c, 0, 45, 95
2, 22080, Note_on_c, 0, 46, 95
2, 22560, Note_off_c, 0, 46, 95
2, 22560, Note_on_c, 0, 45, 95
2, 23040, Note_off_c, 0, 45, 95
2, 23040, Note_on_c, 0, 40, 95
2, 23520, Note_off_c, 0, 40, 95
2, 23520, Note_on_c, 0, 40, 95
2, 24000, Note_off_c, 0, 40, 95
2, 24000, Note_on_c, 0, 43, 95
2, 24480, Note_off_c, 0, 43, 95
2, 24480, Note_on_c, 0, 43, 95
2, 24960, Note_off_c, 0, 43, 95
2, 24960, Note_on_c, 0, 45, 95
2, 25440, Note_off_c, 0, 45, 95
2, 25440, Note_on_c, 0, 45, 95
2, 25920, Note_off_c, 0, 45, 95
2, 25920, Note_on_c, 0, 46, 95
2, 26400, Note_off_c, 0, 46, 95
2, 26400, Note_on_c, 0, 45, 95
2, 26880, Note_off_c, 0, 45, 95
2, 26880, Note_on_c, 0, 40, 95
2, 27360, Note_off_c, 0, 40, 95
2, 27360, Note_on_c, 0, 40, 95
2, 27840, Note_off_c, 0, 40, 95
2, 27840, Note_on_c, 0, 43, 95
2, 28320, Note_off_c, 0, 43, 95
2, 28320, Note_on_c, 0, 43, 95
2, 28800, Note_off_c, 0, 43, 95
2, 28800, Note_on_c, 0, 45, 95
2, 29280, Note_off_c, 0, 45, 95
2, 29280, Note_on_c, 0, 45, 95
2, 29760, Note_off_c, 0, 45, 95
2, 29760, Note_on_c, 0, 46, 95
2, 30240, Note_off_c, 0, 46, 95
2, 30240, Note_on_c, 0, 45, 95
2, 30720, Note_off_c, 0, 45, 95
2, 30720, Note_on_c, 0, 40, 95
2, 31200, Note_off_c, 0, 40, 95
2, 31200, Note_on_c, 0, 40, 95
2, 31680, Note_off_c, 0, 40, 95
2, 31680, Note_on_c, 0, 43, 95
2, 32160, Note_off_c, 0, 43, 95
2, 32160, Note_on_c, 0, 43, 95
2, 32640, Note_off_c, 0, 43, 95
2, 32640, Note_on_c, 0, 45, 95
2, 33120, Note_off_c, 0, 45, 95
2, 33120, Note_on_c, 0, 45, 95
2, 33600, Note_off_c, 0, 45, 95
2, 33600, Note_on_c, 0, 46, 95
2, 34080, Note_off_c, 0, 46, 95
2, 34080, Note_on_c, 0, 45, 95
2, 34560, Note_off_c, 0, 45, 95
2, 34560, Note_on_c, 0, 40, 95
2, 35040, Note_off_c, 0, 40, 95
2, 35040, Note_on_c, 0, 40, 95
2, 35520, Note_off_c, 0, 40, 95
2, 35520, Note_on_c, 0, 43, 95
2, 36000, Note_off_c, 0, 43, 95
2, 36000, Note_on_c, 0, 43, 95
2, 36480, Note_off_c, 0, 43, 95
2, 36480, Note_on_c, 0, 45, 95
2, 36960, Note_off_c, 0, 45, 95
2, 36960, Note_on_c, 0, 45, 95
2, 37440, Note_off_c, 0, 45, 95
2, 37440, Note_on_c, 0, 46, 95
2, 37920, Note_off_c, 0, 46, 95
2, 37920, Note_on_c, 0, 45, 95
2, 38400, Note_off_c, 0, 45, 95
2, 38400, Note_on_c, 0, 40, 95
2, 38880, Note_off_c, 0, 40, 95
2, 38880, Note_on_c, 0, 40, 95
2, 39360, Note_off_c, 0, 40, 95
2, 39360, Note_on_c, 0, 43, 95
2, 39840, Note_off_c, 0, 43, 95
2, 39840, Note_on_c, 0, 43, 95
2, 40320, Note_off_c, 0, 43, 95
2, 40320, Note_on_c, 0, 45, 95
2, 40800, Note_off_c, 0, 45, 95
2, 40800, Note_on_c, 0, 45, 95
2, 41280, Note_off_c, 0, 45, 95
2, 41280, Note_on_c, 0, 46, 95
2, 41760, Note_off_c, 0, 46, 95
2, 41760, Note_on_c, 0, 45, 95
2, 42240, Note_off_c, 0, 45, 95
2, 42240, Note_on_c, 0, 40, 95
2, 42720, Note_off_c, 0, 40, 95
2, 42720, Note_on_c, 0, 40, 95
2, 43200, Note_off_c, 0, 40, 95
2, 43200, Note_on_c, 0, 43, 95
2, 43680, Note_off_c, 0, 43, 95
2, 43680, Note_on_c, 0, 43, 95
2, 44160, Note_off_c, 0, 43, 95
2, 44160, Note_on_c, 0, 45, 95
2, 44640, Note_off_c, 0, 45, 95
2, 44640, Note_on_c, 0, 45, 95
2, 45120, Note_off_c, 0, 45, 95
2, 45120, Note_on_c, 0, 46, 95
2, 45600, Note_off_c, 0, 46, 95
2, 45600, Note_on_c, 0, 45, 95
2, 46080, Note_off_c, 0, 45, 95
2, 46080, Note_on_c, 0, 45, 95
2, 46560, Note_off_c, 0, 45, 95
2, 46560, Note_on_c, 0, 45, 95
2, 47040, Note_off_c, 0, 45, 95
2, 47040, Note_on_c, 0, 48, 95
2, 47520, Note_off_c, 0, 48, 95
2, 47520, Note_on_c, 0, 48, 95
2, 48000, Note_off_c, 0, 48, 95
2, 48000, Note_on_c, 0, 50, 95
2, 48480, Note_off_c, 0, 50, 95
2, 48480, Note_on_c, 0, 50, 95
2, 48960, Note_off_c, 0, 50, 95
2, 48960, Note_on_c, 0, 51, 95
2, 49440, Note_off_c, 0, 51, 95
2, 49440, Note_on_c, 0, 50, 95
2, 49920, Note_off_c, 0, 50, 95
2, 49920, Note_on_c, 0, 45, 95
2, 50400, Note_off_c, 0, 45, 95
2, 50400, Note_on_c, 0, 45, 95
2, 50880, Note_off_c, 0, 45, 95
2, 50880, Note_on_c, 0, 48, 95
2, 51360, Note_off_c, 0, 48, 95
2, 51360, Note_on_c, 0, 48, 95
2, 51840, Note_off_c, 0, 48, 95
2, 51840, Note_on_c, 0, 50, 95
2, 52320, Note_off_c, 0, 50, 95
2, 52320, Note_on_c, 0, 50, 95
2, 52800, Note_off_c, 0, 50, 95
2, 52800, Note_on_c, 0, 51, 95
2, 53280, Note_off_c, 0, 51, 95
2, 53280, Note_on_c, 0, 50, 95
2, 53760, Note_off_c, 0, 50, 95
2, 53760, Note_on_c, 0, 40, 95
2, 54240, Note_off_c, 0, 40, 95
2, 54240, Note_on_c, 0, 40, 95
2, 54720, Note_off_c, 0, 40, 95
2, 54720, Note_on_c, 0, 43, 95
2, 55200, Note_off_c, 0, 43, 95
2, 55200, Note_on_c, 0, 43, 95
2, 55680, Note_off_c, 0, 43, 95
2, 55680, Note_on_c, 0, 45, 95
2, 56160, Note_off_c, 0, 45, 95
2, 56160, Note_on_c, 0, 45, 95
2, 56640, Note_off_c, 0, 45, 95
2, 56640, Note_on_c, 0, 46, 95
2, 57120, Note_off_c, 0, 46, 95
2, 57120, Note_on_c, 0, 45, 95
2, 57600, Note_off_c, 0, 45, 95
2, 57600, Note_on_c, 0, 40, 95
2, 58080, Note_off_c, 0, 40, 95
2, 58080, Note_on_c, 0, 40, 95
2, 58560, Note_off_c, 0, 40, 95
2, 58560, Note_on_c, 0, 43, 95
2, 59040, Note_off_c, 0, 43, 95
2, 59040, Note_on_c, 0, 43, 95
2, 59520, Note_off_c, 0, 43, 95
2, 59520, Note_on_c, 0, 45, 95
2, 60000, Note_off_c, 0, 45, 95
2, 60000, Note_on_c, 0, 45, 95
2, 60480, Note_off_c, 0, 45, 95
2, 60480, Note_on_c, 0, 46, 95
2, 60960, Note_off_c, 0, 46, 95
2, 60960, Note_on_c, 0, 45, 95
2, 61440, Note_off_c, 0, 45, 95
2, 61440, Note_on_c, 0, 54, 95
2, 61440, Note_on_c, 0, 47, 95
2, 61920, Note_off_c, 0, 54, 95
2, 61920, Note_off_c, 0, 47, 95
2, 61920, Note_on_c, 0, 54, 95
2, 61920, Note_on_c, 0, 47, 95
2, 62400, Note_off_c, 0, 54, 95
2, 62400, Note_off_c, 0, 47, 95
2, 62400, Note_on_c, 0, 54, 95
2, 62400, Note_on_c, 0, 47, 95
2, 62880, Note_off_c, 0, 54, 95
2, 62880, Note_off_c, 0, 47, 95
2, 62880, Note_on_c, 0, 54, 95
2, 62880, Note_on_c, 0, 47, 95
2, 63360, Note_off_c, 0, 54, 95
2, 63360, Note_off_c, 0, 47, 95
2, 63360, Note_on_c, 0, 54, 95
2, 63360, Note_on_c, 0, 47, 95
2, 63840, Note_off_c, 0, 54, 95
2, 63840, Note_off_c, 0, 47, 95
2, 63840, Note_on_c, 0, 54, 95
2, 63840, Note_on_c, 0, 47, 95
2, 64320, Note_off_c, 0, 54, 95
2, 64320, Note_off_c, 0, 47, 95
2, 64320, Note_on_c, 0, 54, 95
2, 64320, Note_on_c, 0, 47, 95
2, 64800, Note_off_c, 0, 54, 95
2, 64800, Note_off_c, 0, 47, 95
2, 64800, Note_on_c, 0, 52, 95
2, 64800, Note_on_c, 0, 45, 95
2, 65280, Note_off_c, 0, 52, 95
2, 65280, Note_off_c, 0, 45, 95
2, 65280, Note_on_c, 0, 52, 95
2, 65280, Note_on_c, 0, 45, 95
2, 65760, Note_off_c, 0, 52, 95
2, 65760, Note_off_c, 0, 45, 95
2, 69120, Note_on_c, 0, 45, 95
2, 69600, Note_off_c, 0, 45, 95
2, 69600, Note_on_c, 0, 45, 95
2, 70080, Note_off_c, 0, 45, 95
2, 70080, Note_on_c, 0, 45, 95
2, 70560, Note_off_c, 0, 45, 95
2, 70560, Note_on_c, 0, 45, 95
2, 71040, Note_off_c, 0, 45, 95
2, 71040, Note_on_c, 0, 45, 95
2, 71520, Note_off_c, 0, 45, 95
2, 71520, Note_on_c, 0, 45, 95
2, 72000, Note_off_c, 0, 45, 95
2, 72000, Note_on_c, 0, 45, 95
2, 72480, Note_off_c, 0, 45, 95
2, 72480, Note_on_c, 0, 45, 95
2, 72960, Note_off_c, 0, 45, 95
2, 72960, Note_on_c, 0, 47, 95
2, 73440, Note_off_c, 0, 47, 95
2, 73440, Note_on_c, 0, 47, 95
2, 73920, Note_off_c, 0, 47, 95
2, 73920, Note_on_c, 0, 47, 95
2, 74400, Note_off_c, 0, 47, 95
2, 74400, Note_on_c, 0, 47, 95
2, 74880, Note_off_c, 0, 47, 95
2, 74880, Note_on_c, 0, 47, 95
2, 75360, Note_off_c, 0, 47, 95
2, 75360, Note_on_c, 0, 47, 95
2, 75840, Note_off_c, 0, 47, 95
2, 75840, Note_on_c, 0, 47, 95
2, 76320, Note_off_c, 0, 47, 95
2, 76320, Note_on_c, 0, 47, 95
2, 76800, Note_off_c, 0, 47, 95
2, 76800, Note_on_c, 0, 40, 95
2, 77280, Note_off_c, 0, 40, 95
2, 77280, Note_on_c, 0, 40, 95
2, 77760, Note_off_c, 0, 40, 95
2, 77760, Note_on_c, 0, 43, 95
2, 78240, Note_off_c, 0, 43, 95
2, 78240, Note_on_c, 0, 43, 95
2, 78720, Note_off_c, 0, 43, 95
2, 78720, Note_on_c, 0, 45, 95
2, 79200, Note_off_c, 0, 45, 95
2, 79200, Note_on_c, 0, 45, 95
2, 79680, Note_off_c, 0, 45, 95
2, 79680, Note_on_c, 0, 46, 95
2, 80160, Note_off_c, 0, 46, 95
2, 80160, Note_on_c, 0, 45, 95
2, 80640, Note_off_c, 0, 45, 95
2, 80640, Note_on_c, 0, 40, 95
2, 81120, Note_off_c, 0, 40, 95
2, 81120, Note_on_c, 0, 40, 95
2, 81600, Note_off_c, 0, 40, 95
2, 81600, Note_on_c, 0, 43, 95
2, 82080, Note_off_c, 0, 43, 95
2, 82080, Note_on_c, 0, 43, 95
2, 82560, Note_off_c, 0, 43, 95
2, 82560, Note_on_c, 0, 45, 95
2, 83040, Note_off_c, 0, 45, 95
2, 83040, Note_on_c, 0, 45, 95
2, 83520, Note_off_c, 0, 45, 95
2, 83520, Note_on_c, 0, 46, 95
2, 84000, Note_off_c, 0, 46, 95
2, 84000, Note_on_c, 0, 45, 95
2, 84480, Note_off_c, 0, 45, 95
2, 84480, Note_on_c, 0, 40, 95
2, 84960, Note_off_c, 0, 40, 95
2, 84960, Note_on_c, 0, 40, 95
2, 85440, Note_off_c, 0, 40, 95
2, 85440, Note_on_c, 0, 43, 95
2, 85920, Note_off_c, 0, 43, 95
2, 85920, Note_on_c, 0, 43, 95
2, 86400, Note_off_c, 0, 43, 95
2, 86400, Note_on_c, 0, 45, 95
2, 86880, Note_off_c, 0, 45, 95
2, 86880, Note_on_c, 0, 45, 95
2, 87360, Note_off_c, 0, 45, 95
2, 87360, Note_on_c, 0, 46, 95
2, 87840, Note_off_c, 0, 46, 95
2, 87840, Note_on_c, 0, 45, 95
2, 88320, Note_off_c, 0, 45, 95
2, 88320, Note_on_c, 0, 40, 95
2, 88800, Note_off_c, 0, 40, 95
2, 88800, Note_on_c, 0, 40, 95
2, 89280, Note_off_c, 0, 40, 95
2, 89280, Note_on_c, 0, 43, 95
2, 89760, Note_off_c, 0, 43, 95
2, 89760, Note_on_c, 0, 43, 95
2, 90240, Note_off_c, 0, 43, 95
2, 90240, Note_on_c, 0, 45, 95
2, 90720, Note_off_c, 0, 45, 95
2, 90720, Note_on_c, 0, 45, 95
2, 91200, Note_off_c, 0, 45, 95
2, 91200, Note_on_c, 0, 46, 95
2, 91680, Note_off_c, 0, 46, 95
2, 91680, Note_on_c, 0, 45, 95
2, 92160, Note_off_c, 0, 45, 95
2, 92160, Note_on_c, 0, 45, 95
2, 92640, Note_off_c, 0, 45, 95
2, 92640, Note_on_c, 0, 45, 95
2, 93120, Note_off_c, 0, 45, 95
2, 93120, Note_on_c, 0, 48, 95
2, 93600, Note_off_c, 0, 48, 95
2, 93600, Note_on_c, 0, 48, 95
2, 94080, Note_off_c, 0, 48, 95
2, 94080, Note_on_c, 0, 50, 95
2, 94560, Note_off_c, 0, 50, 95
2, 94560, Note_on_c, 0, 50, 95
2, 95040, Note_off_c, 0, 50, 95
2, 95040, Note_on_c, 0, 51, 95
2, 95520, Note_off_c, 0, 51, 95
2, 95520, Note_on_c, 0, 50, 95
2, 96000, Note_off_c, 0, 50, 95
2, 96000, Note_on_c, 0, 45, 95
2, 96480, Note_off_c, 0, 45, 95
2, 96480, Note_on_c, 0, 45, 95
2, 96960, Note_off_c, 0, 45, 95
2, 96960, Note_on_c, 0, 48, 95
2, 97440, Note_off_c, 0, 48, 95
2, 97440, Note_on_c, 0, 48, 95
2, 97920, Note_off_c, 0, 48, 95
2, 97920, Note_on_c, 0, 50, 95
2, 98400, Note_off_c, 0, 50, 95
2, 98400, Note_on_c, 0, 50, 95
2, 98880, Note_off_c, 0, 50, 95
2, 98880, Note_on_c, 0, 51, 95
2, 99360, Note_off_c, 0, 51, 95
2, 99360, Note_on_c, 0, 50, 95
2, 99840, Note_off_c, 0, 50, 95
2, 99840, Note_on_c, 0, 40, 95
2, 100320, Note_off_c, 0, 40, 95
2, 100320, Note_on_c, 0, 40, 95
2, 100800, Note_off_c, 0, 40, 95
2, 100800, Note_on_c, 0, 43, 95
2, 101280, Note_off_c, 0, 43, 95
2, 101280, Note_on_c, 0, 43, 95
2, 101760, Note_off_c, 0, 43, 95
2, 101760, Note_on_c, 0, 45, 95
2, 102240, Note_off_c, 0, 45, 95
2, 102240, Note_on_c, 0, 45, 95
2, 102720, Note_off_c, 0, 45, 95
2, 102720, Note_on_c, 0, 46, 95
2, 103200, Note_off_c, 0, 46, 95
2, 103200, Note_on_c, 0, 45, 95
2, 103680, Note_off_c, 0, 45, 95
2, 103680, Note_on_c, 0, 40, 95
2, 104160, Note_off_c, 0, 40, 95
2, 104160, Note_on_c, 0, 40, 95
2, 104640, Note_off_c, 0, 40, 95
2, 104640, Note_on_c, 0, 43, 95
2, 105120, Note_off_c, 0, 43, 95
2, 105120, Note_on_c, 0, 43, 95
2, 105600, Note_off_c, 0, 43, 95
2, 105600, Note_on_c, 0, 45, 95
2, 106080, Note_off_c, 0, 45, 95
2, 106080, Note_on_c, 0, 45, 95
2, 106560, Note_off_c, 0, 45, 95
2, 106560, Note_on_c, 0, 46, 95
2, 107040, Note_off_c, 0, 46, 95
2, 107040, Note_on_c, 0, 45, 95
2, 107520, Note_off_c, 0, 45, 95
2, 107520, Note_on_c, 0, 54, 95
2, 107520, Note_on_c, 0, 47, 95
2, 108000, Note_off_c, 0, 54, 95
2, 108000, Note_off_c, 0, 47, 95
2, 108000, Note_on_c, 0, 54, 95
2, 108000, Note_on_c, 0, 47, 95
2, 108480, Note_off_c, 0, 54, 95
2, 108480, Note_off_c, 0, 47, 95
2, 108480, Note_on_c, 0, 54, 95
2, 108480, Note_on_c, 0, 47, 95
2, 108960, Note_off_c, 0, 54, 95
2, 108960, Note_off_c, 0, 47, 95
2, 108960, Note_on_c, 0, 54, 95
2, 108960, Note_on_c, 0, 47, 95
2, 109440, Note_off_c, 0, 54, 95
2, 109440, Note_off_c, 0, 47, 95
2, 109440, Note_on_c, 0, 54, 95
2, 109440, Note_on_c, 0, 47, 95
2, 109920, Note_off_c, 0, 54, 95
2, 109920, Note_off_c, 0, 47, 95
2, 109920, Note_on_c, 0, 54, 95
2, 109920, Note_on_c, 0, 47, 95
2, 110400, Note_off_c, 0, 54, 95
2, 110400, Note_off_c, 0, 47, 95
2, 110400, Note_on_c, 0, 54, 95
2, 110400, Note_on_c, 0, 47, 95
2, 110880, Note_off_c, 0, 54, 95
2, 110880, Note_off_c, 0, 47, 95
2, 110880, Note_on_c, 0, 52, 95
2, 110880, Note_on_c, 0, 45, 95
2, 111360, Note_off_c, 0, 52, 95
2, 111360, Note_off_c, 0, 45, 95
2, 111360, Note_on_c, 0, 52, 95
2, 111360, Note_on_c, 0, 45, 95
2, 111840, Note_off_c, 0, 52, 95
2, 111840, Note_off_c, 0, 45, 95
2, 115200, Note_on_c, 0, 45, 95
2, 115680, Note_off_c, 0, 45, 95
2, 115680, Note_on_c, 0, 45, 95
2, 116160, Note_off_c, 0, 45, 95
2, 116160, Note_on_c, 0, 45, 95
2, 116640, Note_off_c, 0, 45, 95
2, 116640, Note_on_c, 0, 45, 95
2, 117120, Note_off_c, 0, 45, 95
2, 117120, Note_on_c, 0, 45, 95
2, 117600, Note_off_c, 0, 45, 95
2, 117600, Note_on_c, 0, 45, 95
2, 118080, Note_off_c, 0, 45, 95
2, 118080, Note_on_c, 0, 45, 95
2, 118560, Note_off_c, 0, 45, 95
2, 118560, Note_on_c, 0, 45, 95
2, 119040, Note_off_c, 0, 45, 95
2, 119040, Note_on_c, 0, 47, 95
2, 119520, Note_off_c, 0, 47, 95
2, 119520, Note_on_c, 0, 47, 95
2, 120000, Note_off_c, 0, 47, 95
2, 120000, Note_on_c, 0, 47, 95
2, 120480, Note_off_c, 0, 47, 95
2, 120480, Note_on_c, 0, 47, 95
2, 120960, Note_off_c, 0, 47, 95
2, 120960, Note_on_c, 0, 47, 95
2, 121440, Note_off_c, 0, 47, 95
2, 121440, Note_on_c, 0, 47, 95
2, 121920, Note_off_c, 0, 47, 95
2, 121920, Note_on_c, 0, 47, 95
2, 122400, Note_off_c, 0, 47, 95
2, 122400, Note_on_c, 0, 47, 95
2, 122880, Note_off_c, 0, 47, 95
2, 122880, Note_on_c, 0, 40, 95
2, 123360, Note_off_c, 0, 40, 95
2, 123360, Note_on_c, 0, 40, 95
2, 123840, Note_off_c, 0, 40, 95
2, 123840, Note_on_c, 0, 43, 95
2, 124320, Note_off_c, 0, 43, 95
2, 124320, Note_on_c, 0, 43, 95
2, 124800, Note_off_c, 0, 43, 95
2, 124800, Note_on_c, 0, 45, 95
2, 125280, Note_off_c, 0, 45, 95
2, 125280, Note_on_c, 0, 45, 95
2, 125760, Note_off_c, 0, 45, 95
2, 125760, Note_on_c, 0, 46, 95
2, 126240, Note_off_c, 0, 46, 95
2, 126240, Note_on_c, 0, 45, 95
2, 126720, Note_off_c, 0, 45, 95
2, 126720, Note_on_c, 0, 40, 95
2, 127200, Note_off_c, 0, 40, 95
2, 127200, Note_on_c, 0, 40, 95
2, 127680, Note_off_c, 0, 40, 95
2, 127680, Note_on_c, 0, 43, 95
2, 128160, Note_off_c, 0, 43, 95
2, 128160, Note_on_c, 0, 43, 95
2, 128640, Note_off_c, 0, 43, 95
2, 128640, Note_on_c, 0, 45, 95
2, 129120, Note_off_c, 0, 45, 95
2, 129120, Note_on_c, 0, 45, 95
2, 129600, Note_off_c, 0, 45, 95
2, 129600, Note_on_c, 0, 46, 95
2, 130080, Note_off_c, 0, 46, 95
2, 130080, Note_on_c, 0, 45, 95
2, 130560, Note_off_c, 0, 45, 95
2, 130560, Note_on_c, 0, 40, 95
2, 131040, Note_off_c, 0, 40, 95
2, 131040, Note_on_c, 0, 40, 95
2, 131520, Note_off_c, 0, 40, 95
2, 131520, Note_on_c, 0, 43, 95
2, 132000, Note_off_c, 0, 43, 95
2, 132000, Note_on_c, 0, 43, 95
2, 132480, Note_off_c, 0, 43, 95
2, 132480, Note_on_c, 0, 45, 95
2, 132960, Note_off_c, 0, 45, 95
2, 132960, Note_on_c, 0, 45, 95
2, 133440, Note_off_c, 0, 45, 95
2, 133440, Note_on_c, 0, 46, 95
2, 133920, Note_off_c, 0, 46, 95
2, 133920, Note_on_c, 0, 45, 95
2, 134400, Note_off_c, 0, 45, 95
2, 134400, Note_on_c, 0, 40, 95
2, 134880, Note_off_c, 0, 40, 95
2, 134880, Note_on_c, 0, 40, 95
2, 135360, Note_off_c, 0, 40, 95
2, 135360, Note_on_c, 0, 43, 95
2, 135840, Note_off_c, 0, 43, 95
2, 135840, Note_on_c, 0, 43, 95
2, 136320, Note_off_c, 0, 43, 95
2, 136320, Note_on_c, 0, 45, 95
2, 136800, Note_off_c, 0, 45, 95
2, 136800, Note_on_c, 0, 45, 95
2, 137280, Note_off_c, 0, 45, 95
2, 137280, Note_on_c, 0, 46, 95
2, 137760, Note_off_c, 0, 46, 95
2, 137760, Note_on_c, 0, 45, 95
2, 138240, Note_off_c, 0, 45, 95
2, 138240, Note_on_c, 0, 45, 95
2, 138720, Note_off_c, 0, 45, 95
2, 138720, Note_on_c, 0, 45, 95
2, 139200, Note_off_c, 0, 45, 95
2, 139200, Note_on_c, 0, 48, 95
2, 139680, Note_off_c, 0, 48, 95
2, 139680, Note_on_c, 0, 48, 95
2, 140160, Note_off_c, 0, 48, 95
2, 140160, Note_on_c, 0, 50, 95
2, 140640, Note_off_c, 0, 50, 95
2, 140640, Note_on_c, 0, 50, 95
2, 141120, Note_off_c, 0, 50, 95
2, 141120, Note_on_c, 0, 51, 95
2, 141600, Note_off_c, 0, 51, 95
2, 141600, Note_on_c, 0, 50, 95
2, 142080, Note_off_c, 0, 50, 95
2, 142080, Note_on_c, 0, 45, 95
2, 142560, Note_off_c, 0, 45, 95
2, 142560, Note_on_c, 0, 45, 95
2, 143040, Note_off_c, 0, 45, 95
2, 143040, Note_on_c, 0, 48, 95
2, 143520, Note_off_c, 0, 48, 95
2, 143520, Note_on_c, 0, 48, 95
2, 144000, Note_off_c, 0, 48, 95
2, 144000, Note_on_c, 0, 50, 95
2, 144480, Note_off_c, 0, 50, 95
2, 144480, Note_on_c, 0, 50, 95
2, 144960, Note_off_c, 0, 50, 95
2, 144960, Note_on_c, 0, 51, 95
2, 145440, Note_off_c, 0, 51, 95
2, 145440, Note_on_c, 0, 50, 95
2, 145920, Note_off_c, 0, 50, 95
2, 145920, Note_on_c, 0, 40, 95
2, 146400, Note_off_c, 0, 40, 95
2, 146400, Note_on_c, 0, 40, 95
2, 146880, Note_off_c, 0, 40, 95
2, 146880, Note_on_c, 0, 43, 95
2, 147360, Note_off_c, 0, 43, 95
2, 147360, Note_on_c, 0, 43, 95
2, 147840, Note_off_c, 0, 43, 95
2, 147840, Note_on_c, 0, 45, 95
2, 148320, Note_off_c, 0, 45, 95
2, 148320, Note_on_c, 0, 45, 95
2, 148800, Note_off_c, 0, 45, 95
2, 148800, Note_on_c, 0, 46, 95
2, 149280, Note_off_c, 0, 46, 95
2, 149280, Note_on_c, 0, 45, 95
2, 149760, Note_off_c, 0, 45, 95
2, 149760, Note_on_c, 0, 40, 95
2, 150240, Note_off_c, 0, 40, 95
2, 150240, Note_on_c, 0, 40, 95
2, 150720, Note_off_c, 0, 40, 95
2, 150720, Note_on_c, 0, 43, 95
2, 151200, Note_off_c, 0, 43, 95
2, 151200, Note_on_c, 0, 43, 95
2, 151680, Note_off_c, 0, 43, 95
2, 151680, Note_on_c, 0, 45, 95
2, 152160, Note_off_c, 0, 45, 95
2, 152160, Note_on_c, 0, 45, 95
2, 152640, Note_off_c, 0, 45, 95
2, 152640, Note_on_c, 0, 46, 95
2, 153120, Note_off_c, 0, 46, 95
2, 153120, Note_on_c, 0, 45, 95
2, 153600, Note_off_c, 0, 45, 95
2, 153600, Note_on_c, 0, 54, 95
2, 153600, Note_on_c, 0, 47, 95
2, 154080, Note_off_c, 0, 54, 95
2, 154080, Note_off_c, 0, 47, 95
2, 154080, Note_on_c, 0, 54, 95
2, 154080, Note_on_c, 0, 47, 95
2, 154560, Note_off_c, 0, 54, 95
2, 154560, Note_off_c, 0, 47, 95
2, 154560, Note_on_c, 0, 54, 95
2, 154560, Note_on_c, 0, 47, 95
2, 155040, Note_off_c, 0, 54, 95
2, 155040, Note_off_c, 0, 47, 95
2, 155040, Note_on_c, 0, 54, 95
2, 155040, Note_on_c, 0, 47, 95
2, 155520, Note_off_c, 0, 54, 95
2, 155520, Note_off_c, 0, 47, 95
2, 155520, Note_on_c, 0, 54, 95
2, 155520, Note_on_c, 0, 47, 95
2, 156000, Note_off_c, 0, 54, 95
2, 156000, Note_off_c, 0, 47, 95
2, 156000, Note_on_c, 0, 54, 95
2, 156000, Note_on_c, 0, 47, 95
2, 156480, Note_off_c, 0, 54, 95
2, 156480, Note_off_c, 0, 47, 95
2, 156480, Note_on_c, 0, 54, 95
2, 156480, Note_on_c, 0, 47, 95
2, 156960, Note_off_c, 0, 54, 95
2, 156960, Note_off_c, 0, 47, 95
2, 156960, Note_on_c, 0, 52, 95
2, 156960, Note_on_c, 0, 45, 95
2, 157440, Note_off_c, 0, 52, 95
2, 157440, Note_off_c, 0, 45, 95
2, 157440, Note_on_c, 0, 52, 95
2, 157440, Note_on_c, 0, 45, 95
2, 157920, Note_off_c, 0, 52, 95
2, 157920, Note_off_c, 0, 45, 95
2, 161280, Note_on_c, 0, 45, 95
2, 161760, Note_off_c, 0, 45, 95
2, 161760, Note_on_c, 0, 45, 95
2, 162240, Note_off_c, 0, 45, 95
2, 162240, Note_on_c, 0, 45, 95
2, 162720, Note_off_c, 0, 45, 95
2, 162720, Note_on_c, 0, 45, 95
2, 163200, Note_off_c, 0, 45, 95
2, 163200, Note_on_c, 0, 45, 95
2, 163680, Note_off_c, 0, 45, 95
2, 163680, Note_on_c, 0, 45, 95
2, 164160, Note_off_c, 0, 45, 95
2, 164160, Note_on_c, 0, 45, 95
2, 164640, Note_off_c, 0, 45, 95
2, 164640, Note_on_c, 0, 45, 95
2, 165120, Note_off_c, 0, 45, 95
2, 165120, Note_on_c, 0, 47, 95
2, 165600, Note_off_c, 0, 47, 95
2, 165600, Note_on_c, 0, 47, 95
2, 166080, Note_off_c, 0, 47, 95
2, 166080, Note_on_c, 0, 47, 95
2, 166560, Note_off_c, 0, 47, 95
2, 166560, Note_on_c, 0, 47, 95
2, 167040, Note_off_c, 0, 47, 95
2, 167040, Note_on_c, 0, 47, 95
2, 167520, Note_off_c, 0, 47, 95
2, 167520, Note_on_c, 0, 47, 95
2, 168000, Note_off_c, 0, 47, 95
2, 168000, Note_on_c, 0, 47, 95
2, 168480, Note_off_c, 0, 47, 95
2, 168480, Note_on_c, 0, 47, 95
2, 168960, Note_off_c, 0, 47, 95
2, 168960, Note_on_c, 0, 40, 95
2, 169440, Note_off_c, 0, 40, 95
2, 169440, Note_on_c, 0, 40, 95
2, 169920, Note_off_c, 0, 40, 95
2, 169920, Note_on_c, 0, 43, 95
2, 170400, Note_off_c, 0, 43, 95
2, 170400, Note_on_c, 0, 43, 95
2, 170880, Note_off_c, 0, 43, 95
2, 170880, Note_on_c, 0, 45, 95
2, 171360, Note_off_c, 0, 45, 95
2, 171360, Note_on_c, 0, 45, 95
2, 171840, Note_off_c, 0, 45, 95
2, 171840, Note_on_c, 0, 46, 95
2, 172320, Note_off_c, 0, 46, 95
2, 172320, Note_on_c, 0, 45, 95
2, 172800, Note_off_c, 0, 45, 95
2, 172800, Note_on_c, 0, 40, 95
2, 173280, Note_off_c, 0, 40, 95
2, 173280, Note_on_c, 0, 40, 95
2, 173760, Note_off_c, 0, 40, 95
2, 173760, Note_on_c, 0, 43, 95
2, 174240, Note_off_c, 0, 43, 95
2, 174240, Note_on_c, 0, 43, 95
2, 174720, Note_off_c, 0, 43, 95
2, 174720, Note_on_c, 0, 45, 95
2, 175200, Note_off_c, 0, 45, 95
2, 175200, Note_on_c, 0, 45, 95
2, 175680, Note_off_c, 0, 45, 95
2, 175680, Note_on_c, 0, 46, 95
2, 176160, Note_off_c, 0, 46, 95
2, 176160, Note_on_c, 0, 45, 95
2, 176640, Note_off_c, 0, 45, 95
2, 176640, Note_on_c, 0, 40, 95
2, 177120, Note_off_c, 0, 40, 95
2, 177120, Note_on_c, 0, 40, 95
2, 177600, Note_off_c, 0, 40, 95
2, 177600, Note_on_c, 0, 43, 95
2, 178080, Note_off_c, 0, 43, 95
2, 178080, Note_on_c, 0, 43, 95
2, 178560, Note_off_c, 0, 43, 95
2, 178560, Note_on_c, 0, 45, 95
2, 179040, Note_off_c, 0, 45, 95
2, 179040, Note_on_c, 0, 45, 95
2, 179520, Note_off_c, 0, 45, 95
2, 179520, Note_on_c, 0, 46, 95
2, 180000, Note_off_c, 0, 46, 95
2, 180000, Note_on_c, 0, 45, 95
2, 180480, Note_off_c, 0, 45, 95
2, 180480, Note_on_c, 0, 40, 95
2, 180960, Note_off_c, 0, 40, 95
2, 180960, Note_on_c, 0, 40, 95
2, 181440, Note_off_c, 0, 40, 95
2, 181440, Note_on_c, 0, 43, 95
2, 181920, Note_off_c, 0, 43, 95
2, 181920, Note_on_c, 0, 43, 95
2, 182400, Note_off_c, 0, 43, 95
2, 182400, Note_on_c, 0, 45, 95
2, 182880, Note_off_c, 0, 45, 95
2, 182880, Note_on_c, 0, 45, 95
2, 183360, Note_off_c, 0, 45, 95
2, 183360, Note_on_c, 0, 46, 95
2, 183840, Note_off_c, 0, 46, 95
2, 183840, Note_on_c, 0, 45, 95
2, 184320, Note_off_c, 0, 45, 95
2, 184320, Note_on_c, 0, 45, 95
2, 184800, Note_off_c, 0, 45, 95
2, 184800, Note_on_c, 0, 45, 95
2, 185280, Note_off_c, 0, 45, 95
2, 185280, Note_on_c, 0, 48, 95
2, 185760, Note_off_c, 0, 48, 95
2, 185760, Note_on_c, 0, 48, 95
2, 186240, Note_off_c, 0, 48, 95
2, 186240, Note_on_c, 0, 50, 95
2, 186720, Note_off_c, 0, 50, 95
2, 186720, Note_on_c, 0, 50, 95
2, 187200, Note_off_c, 0, 50, 95
2, 187200, Note_on_c, 0, 51, 95
2, 187680, Note_off_c, 0, 51, 95
2, 187680, Note_on_c, 0, 50, 95
2, 188160, Note_off_c, 0, 50, 95
2, 188160, Note_on_c, 0, 45, 95
2, 188640, Note_off_c, 0, 45, 95
2, 188640, Note_on_c, 0, 45, 95
2, 189120, Note_off_c, 0, 45, 95
2, 189120, Note_on_c, 0, 48, 95
2, 189600, Note_off_c, 0, 48, 95
2, 189600, Note_on_c, 0, 48, 95
2, 190080, Note_off_c, 0, 48, 95
2, 190080, Note_on_c, 0, 50, 95
2, 190560, Note_off_c, 0, 50, 95
2, 190560, Note_on_c, 0, 50, 95
2, 191040, Note_off_c, 0, 50, 95
2, 191040, Note_on_c, 0, 51, 95
2, 191520, Note_off_c, 0, 51, 95
2, 191520, Note_on_c, 0, 50, 95
2, 192000, Note_off_c, 0, 50, 95
2, 192000, Note_on_c, 0, 40, 95
2, 192480, Note_off_c, 0, 40, 95
2, 192480, Note_on_c, 0, 40, 95
2, 192960, Note_off_c, 0, 40, 95
2, 192960, Note_on_c, 0, 43, 95
2, 193440, Note_off_c, 0, 43, 95
2, 193440, Note_on_c, 0, 43, 95
2, 193920, Note_off_c, 0, 43, 95
2, 193920, Note_on_c, 0, 45, 95
2, 194400, Note_off_c, 0, 45, 95
2, 194400, Note_on_c, 0, 45, 95
2, 194880, Note_off_c, 0, 45, 95
2, 194880, Note_on_c, 0, 46, 95
2, 195360, Note_off_c, 0, 46, 95
2, 195360, Note_on_c, 0, 45, 95
2, 195840, Note_off_c, 0, 45, 95
2, 195840, Note_on_c, 0, 40, 95
2, 196320, Note_off_c, 0, 40, 95
2, 196320, Note_on_c, 0, 40, 95
2, 196800, Note_off_c, 0, 40, 95
2, 196800, Note_on_c, 0, 43, 95
2, 197280, Note_off_c, 0, 43, 95
2, 197280, Note_on_c, 0, 43, 95
2, 197760, Note_off_c, 0, 43, 95
2, 197760, Note_on_c, 0, 45, 95
2, 198240, Note_off_c, 0, 45, 95
2, 198240, Note_on_c, 0, 45, 95
2, 198720, Note_off_c, 0, 45, 95
2, 198720, Note_on_c, 0, 46, 95
2, 199200, Note_off_c, 0, 46, 95
2, 199200, Note_on_c, 0, 45, 95
2, 199680, Note_off_c, 0, 45, 95
2, 199680, Note_on_c, 0, 54, 95
2, 199680, Note_on_c, 0, 47, 95
2, 200160, Note_off_c, 0, 54, 95
2, 200160, Note_off_c, 0, 47, 95
2, 200160, Note_on_c, 0, 54, 95
2, 200160, Note_on_c, 0, 47, 95
2, 200640, Note_off_c, 0, 54, 95
2, 200640, Note_off_c, 0, 47, 95
2, 200640, Note_on_c, 0, 54, 95
2, 200640, Note_on_c, 0, 47, 95
2, 201120, Note_off_c, 0, 54, 95
2, 201120, Note_off_c, 0, 47, 95
2, 201120, Note_on_c, 0, 54, 95
2, 201120, Note_on_c, 0, 47, 95
2, 201600, Note_off_c, 0, 54, 95
2, 201600, Note_off_c, 0, 47, 95
2, 201600, Note_on_c, 0, 54, 95
2, 201600, Note_on_c, 0, 47, 95
2, 202080, Note_off_c, 0, 54, 95
2, 202080, Note_off_c, 0, 47, 95
2, 202080, Note_on_c, 0, 54, 95
2, 202080, Note_on_c, 0, 47, 95
2, 202560, Note_off_c, 0, 54, 95
2, 202560, Note_off_c, 0, 47, 95
2, 202560, Note_on_c, 0, 54, 95
2, 202560, Note_on_c, 0, 47, 95
2, 203040, Note_off_c, 0, 54, 95
2, 203040, Note_off_c, 0, 47, 95
2, 203040, Note_on_c, 0, 52, 95
2, 203040, Note_on_c, 0, 45, 95
2, 203520, Note_off_c, 0, 52, 95
2, 203520, Note_off_c, 0, 45, 95
2, 203520, Note_on_c, 0, 52, 95
2, 203520, Note_on_c, 0, 45, 95
2, 204000, Note_off_c, 0, 52, 95
2, 204000, Note_off_c, 0, 45, 95
2, 207360, Note_on_c, 0, 45, 95
2, 207840, Note_off_c, 0, 45, 95
2, 207840, Note_on_c, 0, 45, 95
2, 208320, Note_off_c, 0, 45, 95
2, 208320, Note_on_c, 0, 45, 95
2, 208800, Note_off_c, 0, 45, 95
2, 208800, Note_on_c, 0, 45, 95
2, 209280, Note_off_c, 0, 45, 95
2, 209280, Note_on_c, 0, 45, 95
2, 209760, Note_off_c, 0, 45, 95
2, 209760, Note_on_c, 0, 45, 95
2, 210240, Note_off_c, 0, 45, 95
2, 210240, Note_on_c, 0, 45, 95
2, 210720, Note_off_c, 0, 45, 95
2, 210720, Note_on_c, 0, 45, 95
2, 211200, Note_off_c, 0, 45, 95
2, 211200, Note_on_c, 0, 47, 95
2, 211680, Note_off_c, 0, 47, 95
2, 211680, Note_on_c, 0, 47, 95
2, 212160, Note_off_c, 0, 47, 95
2, 212160, Note_on_c, 0, 47, 95
2, 212640, Note_off_c, 0, 47, 95
2, 212640, Note_on_c, 0, 47, 95
2, 213120, Note_off_c, 0, 47, 95
2, 213120, Note_on_c, 0, 47, 95
2, 213600, Note_off_c, 0, 47, 95
2, 213600, Note_on_c, 0, 47, 95
2, 214080, Note_off_c, 0, 47, 95
2, 214080, Note_on_c, 0, 47, 95
2, 214560, Note_off_c, 0, 47, 95
2, 214560, Note_on_c, 0, 47, 95
2, 215040, Note_off_c, 0, 47, 95
2, 215040, Note_on_c, 0, 40, 95
2, 215520, Note_off_c, 0, 40, 95
2, 215520, Note_on_c, 0, 40, 95
2, 216000, Note_off_c, 0, 40, 95
2, 216000, Note_on_c, 0, 43, 95
2, 216480, Note_off_c, 0, 43, 95
2, 216480, Note_on_c, 0, 43, 95
2, 216960, Note_off_c, 0, 43, 95
2, 216960, Note_on_c, 0, 45, 95
2, 217440, Note_off_c, 0, 45, 95
2, 217440, Note_on_c, 0, 45, 95
2, 217920, Note_off_c, 0, 45, 95
2, 217920, Note_on_c, 0, 46, 95
2, 218400, Note_off_c, 0, 46, 95
2, 218400, Note_on_c, 0, 45, 95
2, 218880, Note_off_c, 0, 45, 95
2, 218880, Note_on_c, 0, 40, 95
2, 219360, Note_off_c, 0, 40, 95
2, 219360, Note_on_c, 0, 40, 95
2, 219840, Note_off_c, 0, 40, 95
2, 219840, Note_on_c, 0, 43, 95
2, 220320, Note_off_c, 0, 43, 95
2, 220320, Note_on_c, 0, 43, 95
2, 220800, Note_off_c, 0, 43, 95
2, 220800, Note_on_c, 0, 45, 95
2, 221280, Note_off_c, 0, 45, 95
2, 221280, Note_on_c, 0, 45, 95
2, 221760, Note_off_c, 0, 45, 95
2, 221760, Note_on_c, 0, 46, 95
2, 222240, Note_off_c, 0, 46, 95
2, 222240, Note_on_c, 0, 45, 95
2, 222720, Note_off_c, 0, 45, 95
2, 222720, Note_on_c, 0, 40, 95
2, 223200, Note_off_c, 0, 40, 95
2, 223200, Note_on_c, 0, 40, 95
2, 223680, Note_off_c, 0, 40, 95
2, 223680, Note_on_c, 0, 43, 95
2, 224160, Note_off_c, 0, 43, 95
2, 224160, Note_on_c, 0, 43, 95
2, 224640, Note_off_c, 0, 43, 95
2, 224640, Note_on_c, 0, 45, 95
2, 225120, Note_off_c, 0, 45, 95
2, 225120, Note_on_c, 0, 45, 95
2, 225600, Note_off_c, 0, 45, 95
2, 225600, Note_on_c, 0, 46, 95
2, 226080, Note_off_c, 0, 46, 95
2, 226080, Note_on_c, 0, 45, 95
2, 226560, Note_off_c, 0, 45, 95
2, 226560, Note_on_c, 0, 40, 95
2, 227040, Note_off_c, 0, 40, 95
2, 227040, Note_on_c, 0, 40, 95
2, 227520, Note_off_c, 0, 40, 95
2, 227520, Note_on_c, 0, 43, 95
2, 228000, Note_off_c, 0, 43, 95
2, 228000, Note_on_c, 0, 43, 95
2, 228480, Note_off_c, 0, 43, 95
2, 228480, Note_on_c, 0, 45, 95
2, 228960, Note_off_c, 0, 45, 95
2, 228960, Note_on_c, 0, 45, 95
2, 229440, Note_off_c, 0, 45, 95
2, 229440, Note_on_c, 0, 46, 95
2, 229920, Note_off_c, 0, 46, 95
2, 229920, Note_on_c, 0, 45, 95
2, 230400, Note_off_c, 0, 45, 95
2, 230400, Note_on_c, 0, 45, 95
2, 230880, Note_off_c, 0, 45, 95
2, 230880, Note_on_c, 0, 45, 95
2, 231360, Note_off_c, 0, 45, 95
2, 231360, Note_on_c, 0, 48, 95
2, 231840, Note_off_c, 0, 48, 95
2, 231840, Note_on_c, 0, 48, 95
2, 232320, Note_off_c, 0, 48, 95
2, 232320, Note_on_c, 0, 50, 95
2, 232800, Note_off_c, 0, 50, 95
2, 232800, Note_on_c, 0, 50, 95
2, 233280, Note_off_c, 0, 50, 95
2, 233280, Note_on_c, 0, 51, 95
2, 233760, Note_off_c, 0, 51, 95
2, 233760, Note_on_c, 0, 50, 95
2, 234240, Note_off_c, 0, 50, 95
2, 234240, Note_on_c, 0, 45, 95
2, 234720, Note_off_c, 0, 45, 95
2, 234720, Note_on_c, 0, 45, 95
2, 235200, Note_off_c, 0, 45, 95
2, 235200, Note_on_c, 0, 48, 95
2, 235680, Note_off_c, 0, 48, 95
2, 235680, Note_on_c, 0, 48, 95
2, 236160, Note_off_c, 0, 48, 95
2, 236160, Note_on_c, 0, 50, 95
2, 236640, Note_off_c, 0, 50, 95
2, 236640, Note_on_c, 0, 50, 95
2, 237120, Note_off_c, 0, 50, 95
2, 237120, Note_on_c, 0, 51, 95
2, 237600, Note_off_c, 0, 51, 95
2, 237600, Note_on_c, 0, 50, 95
2, 238080, Note_off_c, 0, 50, 95
2, 238080, Note_on_c, 0, 40, 95
2, 238560, Note_off_c, 0, 40, 95
2, 238560, Note_on_c, 0, 40, 95
2, 239040, Note_off_c, 0, 40, 95
2, 239040, Note_on_c, 0, 43, 95
2, 239520, Note_off_c, 0, 43, 95
2, 239520, Note_on_c, 0, 43, 95
2, 240000, Note_off_c, 0, 43, 95
2, 240000, Note_on_c, 0, 45, 95
2, 240480, Note_off_c, 0, 45, 95
2, 240480, Note_on_c, 0, 45, 95
2, 240960, Note_off_c, 0, 45, 95
2, 240960, Note_on_c, 0, 46, 95
2, 241440, Note_off_c, 0, 46, 95
2, 241440, Note_on_c, 0, 45, 95
2, 241920, Note_off_c, 0, 45, 95
2, 241920, Note_on_c, 0, 40, 95
2, 242400, Note_off_c, 0, 40, 95
2, 242400, Note_on_c, 0, 40, 95
2, 242880, Note_off_c, 0, 40, 95
2, 242880, Note_on_c, 0, 43, 95
2, 243360, Note_off_c, 0, 43, 95
2, 243360, Note_on_c, 0, 43, 95
2, 243840, Note_off_c, 0, 43, 95
2, 243840, Note_on_c, 0, 45, 95
2, 244320, Note_off_c, 0, 45, 95
2, 244320, Note_on_c, 0, 45, 95
2, 244800, Note_off_c, 0, 45, 95
2, 244800, Note_on_c, 0, 46, 95
2, 245280, Note_off_c, 0, 46, 95
2, 245280, Note_on_c, 0, 45, 95
2, 245760, Note_off_c, 0, 45, 95
2, 245760, Note_on_c, 0, 54, 95
2, 245760, Note_on_c, 0, 47, 95
2, 246240, Note_off_c, 0, 54, 95
2, 246240, Note_off_c, 0, 47, 95
2, 246240, Note_on_c, 0, 54, 95
2, 246240, Note_on_c, 0, 47, 95
2, 246720, Note_off_c, 0, 54, 95
2, 246720, Note_off_c, 0, 47, 95
2, 246720, Note_on_c, 0, 54, 95
2, 246720, Note_on_c, 0, 47, 95
2, 247200, Note_off_c, 0, 54, 95
2, 247200, Note_off_c, 0, 47, 95
2, 247200, Note_on_c, 0, 54, 95
2, 247200, Note_on_c, 0, 47, 95
2, 247680, Note_off_c, 0, 54, 95
2, 247680, Note_off_c, 0, 47, 95
2, 247680, Note_on_c, 0, 54, 95
2, 247680, Note_on_c, 0, 47, 95
2, 248160, Note_off_c, 0, 54, 95
2, 248160, Note_off_c, 0, 47, 95
2, 248160, Note_on_c, 0, 54, 95
2, 248160, Note_on_c, 0, 47, 95
2, 248640, Note_off_c, 0, 54, 95
2, 248640, Note_off_c, 0, 47, 95
2, 248640, Note_on_c, 0, 54, 95
2, 248640, Note_on_c, 0, 47, 95
2, 249120, Note_off_c, 0, 54, 95
2, 249120, Note_off_c, 0, 47, 95
2, 249120, Note_on_c, 0, 52, 95
2, 249120, Note_on_c, 0, 45, 95
2, 249600, Note_off_c, 0, 52, 95
2, 249600, Note_off_c, 0, 45, 95
2, 249600, Note_on_c, 0, 52, 95
2, 249600, Note_on_c, 0, 45, 95
2, 250080, Note_off_c, 0, 52, 95
2, 250080, Note_off_c, 0, 45, 95
2, 253440, Note_on_c, 0, 45, 95
2, 253920, Note_off_c, 0, 45, 95
2, 253920, Note_on_c, 0, 45, 95
2, 254400, Note_off_c, 0, 45, 95
2, 254400, Note_on_c, 0, 45, 95
2, 254880, Note_off_c, 0, 45, 95
2, 254880, Note_on_c, 0, 45, 95
2, 255360, Note_off_c, 0, 45, 95
2, 255360, Note_on_c, 0, 45, 95
2, 255840, Note_off_c, 0, 45, 95
2, 255840, Note_on_c, 0, 45, 95
2, 256320, Note_off_c, 0, 45, 95
2, 256320, Note_on_c, 0, 45, 95
2, 256800, Note_off_c, 0, 45, 95
2, 256800, Note_on_c, 0, 45, 95
2, 257280, Note_off_c, 0, 45, 95
2, 257280, Note_on_c, 0, 47, 95
2, 257760, Note_off_c, 0, 47, 95
2, 257760, Note_on_c, 0, 47, 95
2, 258240, Note_off_c, 0, 47, 95
2, 258240, Note_on_c, 0, 47, 95
2, 258720, Note_off_c, 0, 47, 95
2, 258720, Note_on_c, 0, 47, 95
2, 259200, Note_off_c, 0, 47, 95
2, 259200, Note_on_c, 0, 47, 95
2, 259680, Note_off_c, 0, 47, 95
2, 259680, Note_on_c, 0, 47, 95
2, 260160, Note_off_c, 0, 47, 95
2, 260160, Note_on_c, 0, 47, 95
2, 260640, Note_off_c, 0, 47, 95
2, 260640, Note_on_c, 0, 47, 95
2, 261120, Note_off_c, 0, 47, 95
2, 261120, Note_on_c, 0, 40, 95
2, 261600, Note_off_c, 0, 40, 95
2, 261600, Note_on_c, 0, 40, 95
2, 262080, Note_off_c, 0, 40, 95
2, 262080, Note_on_c, 0, 43, 95
2, 262560, Note_off_c, 0, 43, 95
2, 262560, Note_on_c, 0, 43, 95
2, 263040, Note_off_c, 0, 43, 95
2, 263040, Note_on_c, 0, 45, 95
2, 263520, Note_off_c, 0, 45, 95
2, 263520, Note_on_c, 0, 45, 95
2, 264000, Note_off_c, 0, 45, 95
2, 264000, Note_on_c, 0, 46, 95
2, 264480, Note_off_c, 0, 46, 95
2, 264480, Note_on_c, 0, 45, 95
2, 264960, Note_off_c, 0, 45, 95
2, 264960, Note_on_c, 0, 45, 95
2, 265440, Note_off_c, 0, 45, 95
2, 265440, Note_on_c, 0, 45, 95
2, 265920, Note_off_c, 0, 45, 95
2, 265920, Note_on_c, 0, 48, 95
2, 266400, Note_off_c, 0, 48, 95
2, 266400, Note_on_c, 0, 48, 95
2, 266880, Note_off_c, 0, 48, 95
2, 266880, Note_on_c, 0, 50, 95
2, 267360, Note_off_c, 0, 50, 95
2, 267360, Note_on_c, 0, 50, 95
2, 267840, Note_off_c, 0, 50, 95
2, 267840, Note_on_c, 0, 51, 95
2, 268320, Note_off_c, 0, 51, 95
2, 268320, Note_on_c, 0, 50, 95
2, 268800, Note_off_c, 0, 50, 95
2, 268800, Note_on_c, 0, 40, 95
2, 269280, Note_off_c, 0, 40, 95
2, 269280, Note_on_c, 0, 40, 95
2, 269760, Note_off_c, 0, 40, 95
2, 269760, Note_on_c, 0, 43, 95
2, 270240, Note_off_c, 0, 43, 95
2, 270240, Note_on_c, 0, 43, 95
2, 270720, Note_off_c, 0, 43, 95
2, 270720, Note_on_c, 0, 45, 95
2, 271200, Note_off_c, 0, 45, 95
2, 271200, Note_on_c, 0, 45, 95
2, 271680, Note_off_c, 0, 45, 95
2, 271680, Note_on_c, 0, 46, 95
2, 272160, Note_off_c, 0, 46, 95
2, 272160, Note_on_c, 0, 45, 95
2, 272640, Note_off_c, 0, 45, 95
2, 272640, Note_on_c, 0, 45, 95
2, 273120, Note_off_c, 0, 45, 95
2, 273120, Note_on_c, 0, 45, 95
2, 273600, Note_off_c, 0, 45, 95
2, 273600, Note_on_c, 0, 48, 95
2, 274080, Note_off_c, 0, 48, 95
2, 274080, Note_on_c, 0, 48, 95
2, 274560, Note_off_c, 0, 48, 95
2, 274560, Note_on_c, 0, 50, 95
2, 275040, Note_off_c, 0, 50, 95
2, 275040, Note_on_c, 0, 50, 95
2, 275520, Note_off_c, 0, 50, 95
2, 275520, Note_on_c, 0, 51, 95
2, 276000, Note_off_c, 0, 51, 95
2, 276000, Note_on_c, 0, 50, 95
2, 276480, Note_off_c, 0, 50, 95
2, 276480, Note_on_c, 0, 40, 95
2, 276960, Note_off_c, 0, 40, 95
2, 276960, Note_on_c, 0, 40, 95
2, 277440, Note_off_c, 0, 40, 95
2, 277440, Note_on_c, 0, 43, 95
2, 277920, Note_off_c, 0, 43, 95
2, 277920, Note_on_c, 0, 43, 95
2, 278400, Note_off_c, 0, 43, 95
2, 278400, Note_on_c, 0, 45, 95
2, 278880, Note_off_c, 0, 45, 95
2, 278880, Note_on_c, 0, 45, 95
2, 279360, Note_off_c, 0, 45, 95
2, 279360, Note_on_c, 0, 46, 95
2, 279840, Note_off_c, 0, 46, 95
2, 279840, Note_on_c, 0, 45, 95
2, 280320, Note_off_c, 0, 45, 95
2, 280320, Note_on_c, 0, 45, 95
2, 280800, Note_off_c, 0, 45, 95
2, 280800, Note_on_c, 0, 45, 95
2, 281280, Note_off_c, 0, 45, 95
2, 281280, Note_on_c, 0, 48, 95
2, 281760, Note_off_c, 0, 48, 95
2, 281760, Note_on_c, 0, 48, 95
2, 282240, Note_off_c, 0, 48, 95
2, 282240, Note_on_c, 0, 50, 95
2, 282720, Note_off_c, 0, 50, 95
2, 282720, Note_on_c, 0, 50, 95
2, 283200, Note_off_c, 0, 50, 95
2, 283200, Note_on_c, 0, 51, 95
2, 283680, Note_off_c, 0, 51, 95
2, 283680, Note_on_c, 0, 50, 95
2, 284160, Note_off_c, 0, 50, 95
2, 284160, Note_on_c, 0, 40, 95
2, 284640, Note_off_c, 0, 40, 95
2, 284640, Note_on_c, 0, 40, 95
2, 285120, Note_off_c, 0, 40, 95
2, 285120, Note_on_c, 0, 43, 95
2, 285600, Note_off_c, 0, 43, 95
2, 285600, Note_on_c, 0, 43, 95
2, 286080, Note_off_c, 0, 43, 95
2, 286080, Note_on_c, 0, 45, 95
2, 286560, Note_off_c, 0, 45, 95
2, 286560, Note_on_c, 0, 45, 95
2, 287040, Note_off_c, 0, 45, 95
2, 287040, Note_on_c, 0, 46, 95
2, 287520, Note_off_c, 0, 46, 95
2, 287520, Note_on_c, 0, 45, 95
2, 288000, Note_off_c, 0, 45, 95
2, 288000, Note_on_c, 0, 40, 95
2, 288480, Note_off_c, 0, 40, 95
2, 288480, Note_on_c, 0, 40, 95
2, 288960, Note_off_c, 0, 40, 95
2, 288960, Note_on_c, 0, 43, 95
2, 289440, Note_off_c, 0, 43, 95
2, 289440, Note_on_c, 0, 43, 95
2, 289920, Note_off_c, 0, 43, 95
2, 289920, Note_on_c, 0, 45, 95
2, 290400, Note_off_c, 0, 45, 95
2, 290400, Note_on_c, 0, 45, 95
2, 290880, Note_off_c, 0, 45, 95
2, 290880, Note_on_c, 0, 46, 95
2, 291360, Note_off_c, 0, 46, 95
2, 291360, Note_on_c, 0, 45, 95
2, 291840, Note_off_c, 0, 45, 95
2, 291840, Note_on_c, 0, 40, 95
2, 292320, Note_off_c, 0, 40, 95
2, 292320, Note_on_c, 0, 40, 95
2, 292800, Note_off_c, 0, 40, 95
2, 292800, Note_on_c, 0, 43, 95
2, 293280, Note_off_c, 0, 43, 95
2, 293280, Note_on_c, 0, 43, 95
2, 293760, Note_off_c, 0, 43, 95
2, 293760, Note_on_c, 0, 45, 95
2, 294240, Note_off_c, 0, 45, 95
2, 294240, Note_on_c, 0, 45, 95
2, 294720, Note_off_c, 0, 45, 95
2, 294720, Note_on_c, 0, 46, 95
2, 295200, Note_off_c, 0, 46, 95
2, 295200, Note_on_c, 0, 45, 95
2, 295680, Note_off_c, 0, 45, 95
2, 295680, Note_on_c, 0, 40, 95
2, 296160, Note_off_c, 0, 40, 95
2, 296160, Note_on_c, 0, 40, 95
2, 296640, Note_off_c, 0, 40, 95
2, 296640, Note_on_c, 0, 40, 95
2, 299520, Note_off_c, 0, 40, 95
2, 299520, End_track
3, 0, Start_track
3, 0, Pitch_bend_c, 2, 8192
3, 0, Control_c, 2, 7, 103
3, 0, Control_c, 2, 10, 63
3, 0, Control_c, 2, 93, 0
3, 0, Control_c, 2, 91, 0
3, 0, Control_c, 2, 95, 0
3, 0, Control_c, 2, 92, 0
3, 0, Control_c, 2, 11, 127
3, 0, Program_c, 2, 29
3, 0, Control_c, 3, 7, 103
3, 0, Control_c, 3, 10, 63
3, 0, Control_c, 3, 93, 0
3, 0, Control_c, 3, 91, 0
3, 0, Control_c, 3, 95, 0
3, 0, Control_c, 3, 92, 0
3, 0, Control_c, 3, 11, 127
3, 0, Program_c, 3, 29
3, 15360, Note_on_c, 2, 64, 95
3, 15360, Note_on_c, 2, 59, 95
3, 15360, Note_on_c, 2, 52, 95
3, 15840, Note_off_c, 2, 64, 95
3, 15840, Note_off_c, 2, 59, 95
3, 15840, Note_off_c, 2, 52, 95
3, 19200, Note_on_c, 2, 64, 95
3, 19200, Note_on_c, 2, 59, 95
3, 19200, Note_on_c, 2, 52, 95
3, 19680, Note_off_c, 2, 64, 95
3, 19680, Note_off_c, 2, 59, 95
3, 19680, Note_off_c, 2, 52, 95
3, 19680, Note_on_c, 2, 64, 95
3, 19680, Note_on_c, 2, 59, 95
3, 19680, Note_on_c, 2, 52, 95
3, 20160, Note_off_c, 2, 64, 95
3, 20160, Note_off_c, 2, 59, 95
3, 20160, Note_off_c, 2, 52, 95
3, 23040, Note_on_c, 2, 64, 95
3, 23040, Note_on_c, 2, 59, 95
3, 23040, Note_on_c, 2, 52, 95
3, 23520, Note_off_c, 2, 64, 95
3, 23520, Note_off_c, 2, 59, 95
3, 23520, Note_off_c, 2, 52, 95
3, 26880, Note_on_c, 2, 64, 95
3, 26880, Note_on_c, 2, 59, 95
3, 26880, Note_on_c, 2, 52, 95
3, 27360, Note_off_c, 2, 64, 95
3, 27360, Note_off_c, 2, 59, 95
3, 27360, Note_off_c, 2, 52, 95
3, 27360, Note_on_c, 2, 64, 95
3, 27360, Note_on_c, 2, 59, 95
3, 27360, Note_on_c, 2, 52, 95
3, 27840, Note_off_c, 2, 64, 95
3, 27840, Note_off_c, 2, 59, 95
3, 27840, Note_off_c, 2, 52, 95
3, 31200, Note_on_c, 2, 76, 95
3, 31200, Note_on_c, 2, 71, 95
3, 31680, Note_off_c, 2, 76, 95
3, 31680, Note_off_c, 2, 71, 95
3, 32640, Note_on_c, 2, 76, 95
3, 32640, Note_on_c, 2, 71, 95
3, 33120, Note_off_c, 2, 76, 95
3, 33120, Note_off_c, 2, 71, 95
3, 35040, Note_on_c, 2, 76, 95
3, 35040, Note_on_c, 2, 71, 95
3, 35520, Note_off_c, 2, 76, 95
3, 35520, Note_off_c, 2, 71, 95
3, 36480, Note_on_c, 2, 76, 95
3, 36480, Note_on_c, 2, 71, 95
3, 36960, Note_off_c, 2, 76, 95
3, 36960, Note_off_c, 2, 71, 95
3, 38400, Note_on_c, 2, 71, 95
3, 38880, Note_off_c, 2, 71, 95
3, 38880, Note_on_c, 2, 67, 95
3, 40800, Note_off_c, 2, 67, 95
3, 42240, Note_on_c, 2, 71, 95
3, 42720, Note_off_c, 2, 71, 95
3, 42720, Note_on_c, 2, 67, 95
3, 44640, Note_off_c, 2, 67, 95
3, 46560, Note_on_c, 2, 81, 95
3, 46560, Note_on_c, 2, 76, 95
3, 47040, Note_off_c, 2, 81, 95
3, 47040, Note_off_c, 2, 76, 95
3, 48000, Note_on_c, 2, 81, 95
3, 48000, Note_on_c, 2, 76, 95
3, 48480, Note_off_c, 2, 81, 95
3, 48480, Note_off_c, 2, 76, 95
3, 50400, Note_on_c, 2, 81, 95
3, 50400, Note_on_c, 2, 76, 95
3, 50880, Note_off_c, 2, 81, 95
3, 50880, Note_off_c, 2, 76, 95
3, 51840, Note_on_c, 2, 81, 95
3, 51840, Note_on_c, 2, 76, 95
3, 52320, Note_off_c, 2, 81, 95
3, 52320, Note_off_c, 2, 76, 95
3, 53760, Note_on_c, 2, 71, 95
3, 54240, Note_off_c, 2, 71, 95
3, 54240, Note_on_c, 2, 67, 95
3, 56160, Note_off_c, 2, 67, 95
3, 57600, Note_on_c, 2, 71, 95
3, 58080, Note_off_c, 2, 71, 95
3, 58080, Note_on_c, 2, 67, 95
3, 60000, Note_off_c, 2, 67, 95
3, 61440, Note_on_c, 2, 71, 95
3, 61920, Note_off_c, 2, 71, 95
3, 61920, Note_on_c, 2, 69, 95
3, 62400, Note_off_c, 2, 69, 95
3, 62400, Note_on_c, 2, 67, 95
3, 62880, Note_off_c, 2, 67, 95
3, 62880, Note_on_c, 2, 64, 95
3, 63360, Note_off_c, 2, 64, 95
3, 63360, Note_on_c, 2, 67, 95
3, 63840, Note_off_c, 2, 67, 95
3, 63840, Note_on_c, 2, 64, 95
3, 64320, Note_off_c, 2, 64, 95
3, 64320, Note_on_c, 3, 59, 95
3, 64320, Note_on_c, 3, 54, 95
3, 64320, Note_on_c, 3, 47, 95
3, 64440, Pitch_bend_c, 3, 7936
3, 64440, Pitch_bend_c, 3, 7936
3, 64440, Pitch_bend_c, 3, 7936
3, 64560, Pitch_bend_c, 3, 7552
3, 64560, Pitch_bend_c, 3, 7552
3, 64560, Pitch_bend_c, 3, 7552
3, 64680, Pitch_bend_c, 3, 7168
3, 64680, Pitch_bend_c, 3, 7168
3, 64680, Pitch_bend_c, 3, 7168
3, 64800, Pitch_bend_c, 3, 6784
3, 64800, Pitch_bend_c, 3, 8192
3, 64800, Note_off_c, 3, 59, 95
3, 64800, Pitch_bend_c, 3, 6784
3, 64800, Pitch_bend_c, 3, 8192
3, 64800, Note_off_c, 3, 54, 95
3, 64800, Pitch_bend_c, 3, 6784
3, 64800, Pitch_bend_c, 3, 8192
3, 64800, Note_off_c, 3, 47, 95
3, 64800, Note_on_c, 2, 57, 95
3, 64800, Note_on_c, 2, 52, 95
3, 64800, Note_on_c, 2, 45, 95
3, 65280, Note_off_c, 2, 57, 95
3, 65280, Note_off_c, 2, 52, 95
3, 65280, Note_off_c, 2, 45, 95
3, 65280, Note_on_c, 2, 57, 95
3, 65280, Note_on_c, 2, 52, 95
3, 65280, Note_on_c, 2, 45, 95
3, 65760, Note_off_c, 2, 57, 95
3, 65760, Note_off_c, 2, 52, 95
3, 65760, Note_off_c, 2, 45, 95
3, 69120, Note_on_c, 2, 71, 95
3, 69600, Note_off_c, 2, 71, 95
3, 69600, Note_on_c, 2, 67, 95
3, 70560, Note_off_c, 2, 67, 95
3, 70560, Note_on_c, 2, 71, 95
3, 71040, Note_off_c, 2, 71, 95
3, 71040, Note_on_c, 2, 67, 95
3, 72000, Note_off_c, 2, 67, 95
3, 72000, Note_on_c, 2, 71, 95
3, 72480, Note_off_c, 2, 71, 95
3, 72480, Note_on_c, 2, 67, 95
3, 73440, Note_off_c, 2, 67, 95
3, 73440, Note_on_c, 2, 71, 95
3, 73920, Note_off_c, 2, 71, 95
3, 73920, Note_on_c, 2, 67, 95
3, 74880, Note_off_c, 2, 67, 95
3, 74880, Note_on_c, 2, 71, 95
3, 75360, Note_off_c, 2, 71, 95
3, 75360, Note_on_c, 2, 67, 95
3, 76320, Note_off_c, 2, 67, 95
3, 76320, Note_on_c, 2, 71, 95
3, 76800, Note_off_c, 2, 71, 95
3, 77280, Note_on_c, 2, 76, 95
3, 77280, Note_on_c, 2, 71, 95
3, 77760, Note_off_c, 2, 76, 95
3, 77760, Note_off_c, 2, 71, 95
3, 78720, Note_on_c, 2, 76, 95
3, 78720, Note_on_c, 2, 71, 95
3, 79200, Note_off_c, 2, 76, 95
3, 79200, Note_off_c, 2, 71, 95
3, 80640, Note_on_c, 2, 76, 95
3, 80640, Note_on_c, 2, 71, 95
3, 81120, Note_off_c, 2, 76, 95
3, 81120, Note_off_c, 2, 71, 95
3, 81120, Note_on_c, 2, 76, 95
3, 81120, Note_on_c, 2, 71, 95
3, 81600, Note_off_c, 2, 76, 95
3, 81600, Note_off_c, 2, 71, 95
3, 81600, Note_on_c, 2, 76, 95
3, 81600, Note_on_c, 2, 71, 95
3, 82080, Note_off_c, 2, 76, 95
3, 82080, Note_off_c, 2, 71, 95
3, 82080, Note_on_c, 2, 76, 95
3, 82080, Note_on_c, 2, 71, 95
3, 82560, Note_off_c, 2, 76, 95
3, 82560, Note_off_c, 2, 71, 95
3, 84960, Note_on_c, 2, 76, 95
3, 84960, Note_on_c, 2, 71, 95
3, 85440, Note_off_c, 2, 76, 95
3, 85440, Note_off_c, 2, 71, 95
3, 86400, Note_on_c, 2, 76, 95
3, 86400, Note_on_c, 2, 71, 95
3, 86880, Note_off_c, 2, 76, 95
3, 86880, Note_off_c, 2, 71, 95
3, 88320, Note_on_c, 2, 76, 95
3, 88320, Note_on_c, 2, 71, 95
3, 88800, Note_off_c, 2, 76, 95
3, 88800, Note_off_c, 2, 71, 95
3, 88800, Note_on_c, 2, 76, 95
3, 88800, Note_on_c, 2, 71, 95
3, 89280, Note_off_c, 2, 76, 95
3, 89280, Note_off_c, 2, 71, 95
3, 89280, Note_on_c, 2, 76, 95
3, 89280, Note_on_c, 2, 71, 95
3, 89760, Note_off_c, 2, 76, 95
3, 89760, Note_off_c, 2, 71, 95
3, 89760, Note_on_c, 2, 76, 95
3, 89760, Note_on_c, 2, 71, 95
3, 90240, Note_off_c, 2, 76, 95
3, 90240, Note_off_c, 2, 71, 95
3, 92640, Note_on_c, 2, 69, 95
3, 92640, Note_on_c, 2, 64, 95
3, 93120, Note_off_c, 2, 69, 95
3, 93120, Note_off_c, 2, 64, 95
3, 94080, Note_on_c, 2, 69, 95
3, 94080, Note_on_c, 2, 64, 95
3, 94560, Note_off_c, 2, 69, 95
3, 94560, Note_off_c, 2, 64, 95
3, 96480, Note_on_c, 2, 69, 95
3, 96480, Note_on_c, 2, 64, 95
3, 96960, Note_off_c, 2, 69, 95
3, 96960, Note_off_c, 2, 64, 95
3, 97920, Note_on_c, 2, 69, 95
3, 97920, Note_on_c, 2, 64, 95
3, 98400, Note_off_c, 2, 69, 95
3, 98400, Note_off_c, 2, 64, 95
3, 99840, Note_on_c, 2, 71, 95
3, 100320, Note_off_c, 2, 71, 95
3, 100320, Note_on_c, 2, 67, 95
3, 102240, Note_off_c, 2, 67, 95
3, 103680, Note_on_c, 2, 71, 95
3, 104160, Note_off_c, 2, 71, 95
3, 104160, Note_on_c, 2, 67, 95
3, 106080, Note_off_c, 2, 67, 95
3, 107520, Note_on_c, 2, 71, 95
3, 108000, Note_off_c, 2, 71, 95
3, 108000, Note_on_c, 2, 69, 95
3, 108480, Note_off_c, 2, 69, 95
3, 108480, Note_on_c, 2, 67, 95
3, 108960, Note_off_c, 2, 67, 95
3, 108960, Note_on_c, 2, 64, 95
3, 109440, Note_off_c, 2, 64, 95
3, 109440, Note_on_c, 2, 67, 95
3, 109920, Note_off_c, 2, 67, 95
3, 109920, Note_on_c, 2, 64, 95
3, 110400, Note_off_c, 2, 64, 95
3, 110400, Note_on_c, 3, 59, 95
3, 110400, Note_on_c, 3, 54, 95
3, 110400, Note_on_c, 3, 47, 95
3, 110520, Pitch_bend_c, 3, 7936
3, 110520, Pitch_bend_c, 3, 7936
3, 110520, Pitch_bend_c, 3, 7936
3, 110640, Pitch_bend_c, 3, 7552
3, 110640, Pitch_bend_c, 3, 7552
3, 110640, Pitch_bend_c, 3, 7552
3, 110760, Pitch_bend_c, 3, 7168
3, 110760, Pitch_bend_c, 3, 7168
3, 110760, Pitch_bend_c, 3, 7168
3, 110880, Pitch_bend_c, 3, 6784
3, 110880, Pitch_bend_c, 3, 8192
3, 110880, Note_off_c, 3, 59, 95
3, 110880, Pitch_bend_c, 3, 6784
3, 110880, Pitch_bend_c, 3, 8192
3, 110880, Note_off_c, 3, 54, 95
3, 110880, Pitch_bend_c, 3, 6784
3, 110880, Pitch_bend_c, 3, 8192
3, 110880, Note_off_c, 3, 47, 95
3, 110880, Note_on_c, 2, 57, 95
3, 110880, Note_on_c, 2, 52, 95
3, 110880, Note_on_c, 2, 45, 95
3, 111360, Note_off_c, 2, 57, 95
3, 111360, Note_off_c, 2, 52, 95
3, 111360, Note_off_c, 2, 45, 95
3, 111360, Note_on_c, 2, 57, 95
3, 111360, Note_on_c, 2, 52, 95
3, 111360, Note_on_c, 2, 45, 95
3, 111840, Note_off_c, 2, 57, 95
3, 111840, Note_off_c, 2, 52, 95
3, 111840, Note_off_c, 2, 45, 95
3, 115200, Note_on_c, 2, 71, 95
3, 115680, Note_off_c, 2, 71, 95
3, 115680, Note_on_c, 2, 67, 95
3, 116640, Note_off_c, 2, 67, 95
3, 116640, Note_on_c, 2, 71, 95
3, 117120, Note_off_c, 2, 71, 95
3, 117120, Note_on_c, 2, 67, 95
3, 118080, Note_off_c, 2, 67, 95
3, 118080, Note_on_c, 2, 71, 95
3, 118560, Note_off_c, 2, 71, 95
3, 118560, Note_on_c, 2, 67, 95
3, 119520, Note_off_c, 2, 67, 95
3, 119520, Note_on_c, 2, 71, 95
3, 120000, Note_off_c, 2, 71, 95
3, 120000, Note_on_c, 2, 67, 95
3, 120960, Note_off_c, 2, 67, 95
3, 120960, Note_on_c, 2, 71, 95
3, 121440, Note_off_c, 2, 71, 95
3, 121440, Note_on_c, 2, 67, 95
3, 122400, Note_off_c, 2, 67, 95
3, 122400, Note_on_c, 2, 71, 95
3, 122880, Note_off_c, 2, 71, 95
3, 122880, Pitch_bend_c, 3, 8192
3, 122880, Note_on_c, 3, 69, 95
3, 122901, Pitch_bend_c, 3, 8320
3, 122922, Pitch_bend_c, 3, 8448
3, 122943, Pitch_bend_c, 3, 8576
3, 122964, Pitch_bend_c, 3, 8704
3, 122985, Pitch_bend_c, 3, 8832
3, 123006, Pitch_bend_c, 3, 8960
3, 123027, Pitch_bend_c, 3, 9088
3, 123048, Pitch_bend_c, 3, 9216
3, 123069, Pitch_bend_c, 3, 9344
3, 123090, Pitch_bend_c, 3, 9472
3, 123111, Pitch_bend_c, 3, 9600
3, 123120, Pitch_bend_c, 3, 9600
3, 123360, Pitch_bend_c, 3, 9600
3, 123360, Pitch_bend_c, 3, 8192
3, 123360, Note_off_c, 3, 69, 95
3, 123360, Note_on_c, 2, 71, 95
3, 123840, Note_off_c, 2, 71, 95
3, 123840, Pitch_bend_c, 3, 8192
3, 123840, Note_on_c, 3, 69, 95
3, 123861, Pitch_bend_c, 3, 8320
3, 123882, Pitch_bend_c, 3, 8448
3, 123903, Pitch_bend_c, 3, 8576
3, 123924, Pitch_bend_c, 3, 8704
3, 123945, Pitch_bend_c, 3, 8832
3, 123966, Pitch_bend_c, 3, 8960
3, 123987, Pitch_bend_c, 3, 9088
3, 124008, Pitch_bend_c, 3, 9216
3, 124029, Pitch_bend_c, 3, 9344
3, 124050, Pitch_bend_c, 3, 9472
3, 124071, Pitch_bend_c, 3, 9600
3, 124080, Pitch_bend_c, 3, 9600
3, 124320, Pitch_bend_c, 3, 9600
3, 124320, Pitch_bend_c, 3, 8192
3, 124320, Note_off_c, 3, 69, 95
3, 124320, Note_on_c, 2, 71, 95
3, 124800, Note_off_c, 2, 71, 95
3, 124800, Note_on_c, 2, 71, 95
3, 125280, Note_off_c, 2, 71, 95
3, 125280, Pitch_bend_c, 3, 8192
3, 125280, Note_on_c, 3, 69, 95
3, 125301, Pitch_bend_c, 3, 8320
3, 125322, Pitch_bend_c, 3, 8448
3, 125343, Pitch_bend_c, 3, 8576
3, 125364, Pitch_bend_c, 3, 8704
3, 125385, Pitch_bend_c, 3, 8832
3, 125406, Pitch_bend_c, 3, 8960
3, 125427, Pitch_bend_c, 3, 9088
3, 125448, Pitch_bend_c, 3, 9216
3, 125469, Pitch_bend_c, 3, 9344
3, 125490, Pitch_bend_c, 3, 9472
3, 125511, Pitch_bend_c, 3, 9600
3, 125520, Pitch_bend_c, 3, 9600
3, 125760, Pitch_bend_c, 3, 9600
3, 125760, Pitch_bend_c, 3, 8192
3, 125760, Note_off_c, 3, 69, 95
3, 125760, Note_on_c, 2, 71, 95
3, 126240, Note_off_c, 2, 71, 95
3, 126240, Note_on_c, 2, 71, 95
3, 126720, Note_off_c, 2, 71, 95
3, 126720, Pitch_bend_c, 3, 8192
3, 126720, Note_on_c, 3, 69, 95
3, 126741, Pitch_bend_c, 3, 8320
3, 126762, Pitch_bend_c, 3, 8448
3, 126783, Pitch_bend_c, 3, 8576
3, 126804, Pitch_bend_c, 3, 8704
3, 126825, Pitch_bend_c, 3, 8832
3, 126846, Pitch_bend_c, 3, 8960
3, 126867, Pitch_bend_c, 3, 9088
3, 126888, Pitch_bend_c, 3, 9216
3, 126909, Pitch_bend_c, 3, 9344
3, 126930, Pitch_bend_c, 3, 9472
3, 126951, Pitch_bend_c, 3, 9600
3, 126960, Pitch_bend_c, 3, 9600
3, 127200, Pitch_bend_c, 3, 9600
3, 127200, Pitch_bend_c, 3, 8192
3, 127200, Note_off_c, 3, 69, 95
3, 127200, Note_on_c, 2, 71, 95
3, 127680, Note_off_c, 2, 71, 95
3, 127680, Note_on_c, 2, 71, 95
3, 128160, Note_off_c, 2, 71, 95
3, 128160, Pitch_bend_c, 3, 8192
3, 128160, Note_on_c, 3, 69, 95
3, 128181, Pitch_bend_c, 3, 8320
3, 128202, Pitch_bend_c, 3, 8448
3, 128223, Pitch_bend_c, 3, 8576
3, 128244, Pitch_bend_c, 3, 8704
3, 128265, Pitch_bend_c, 3, 8832
3, 128286, Pitch_bend_c, 3, 8960
3, 128307, Pitch_bend_c, 3, 9088
3, 128328, Pitch_bend_c, 3, 9216
3, 128349, Pitch_bend_c, 3, 9344
3, 128370, Pitch_bend_c, 3, 9472
3, 128391, Pitch_bend_c, 3, 9600
3, 128400, Pitch_bend_c, 3, 9600
3, 128640, Pitch_bend_c, 3, 9600
3, 128640, Pitch_bend_c, 3, 8192
3, 128640, Note_off_c, 3, 69, 95
3, 128640, Note_on_c, 2, 71, 95
3, 129120, Note_off_c, 2, 71, 95
3, 129120, Note_on_c, 2, 71, 95
3, 129600, Note_off_c, 2, 71, 95
3, 129600, Note_on_c, 2, 74, 95
3, 130080, Note_off_c, 2, 74, 95
3, 130080, Note_on_c, 2, 73, 95
3, 130560, Note_off_c, 2, 73, 95
3, 130560, Note_on_c, 2, 71, 95
3, 131040, Note_off_c, 2, 71, 95
3, 131040, Note_on_c, 2, 69, 95
3, 131520, Note_off_c, 2, 69, 95
3, 131520, Note_on_c, 2, 67, 95
3, 132000, Note_off_c, 2, 67, 95
3, 132000, Note_on_c, 2, 69, 95
3, 132480, Note_off_c, 2, 69, 95
3, 132480, Note_on_c, 2, 67, 95
3, 132960, Note_off_c, 2, 67, 95
3, 132960, Note_on_c, 2, 64, 95
3, 133440, Note_off_c, 2, 64, 95
3, 133440, Note_on_c, 2, 64, 95
3, 133920, Note_off_c, 2, 64, 95
3, 133920, Pitch_bend_c, 3, 8192
3, 133920, Note_on_c, 3, 63, 95
3, 133941, Pitch_bend_c, 3, 8320
3, 133962, Pitch_bend_c, 3, 8448
3, 133983, Pitch_bend_c, 3, 8576
3, 134004, Pitch_bend_c, 3, 8704
3, 134025, Pitch_bend_c, 3, 8832
3, 134046, Pitch_bend_c, 3, 8960
3, 134067, Pitch_bend_c, 3, 9088
3, 134088, Pitch_bend_c, 3, 9216
3, 134109, Pitch_bend_c, 3, 9344
3, 134130, Pitch_bend_c, 3, 9472
3, 134151, Pitch_bend_c, 3, 9600
3, 134160, Pitch_bend_c, 3, 9600
3, 134400, Pitch_bend_c, 3, 9600
3, 134400, Pitch_bend_c, 3, 8192
3, 134400, Note_off_c, 3, 63, 95
3, 134400, Note_on_c, 2, 64, 95
3, 134880, Note_off_c, 2, 64, 95
3, 134880, Note_on_c, 2, 67, 95
3, 135360, Note_off_c, 2, 67, 95
3, 135360, Note_on_c, 2, 69, 95
3, 135840, Note_off_c, 2, 69, 95
3, 135840, Note_on_c, 2, 69, 95
3, 136320, Note_off_c, 2, 69, 95
3, 136320, Pitch_bend_c, 3, 8192
3, 136320, Note_on_c, 3, 69, 95
3, 136363, Pitch_bend_c, 3, 8320
3, 136406, Pitch_bend_c, 3, 8448
3, 136449, Pitch_bend_c, 3, 8576
3, 136492, Pitch_bend_c, 3, 8704
3, 136535, Pitch_bend_c, 3, 8832
3, 136578, Pitch_bend_c, 3, 8960
3, 136621, Pitch_bend_c, 3, 9088
3, 136664, Pitch_bend_c, 3, 9216
3, 136707, Pitch_bend_c, 3, 9344
3, 136750, Pitch_bend_c, 3, 9472
3, 136793, Pitch_bend_c, 3, 9600
3, 136800, Pitch_bend_c, 3, 9600
3, 137280, Pitch_bend_c, 3, 9600
3, 137280, Pitch_bend_c, 3, 8192
3, 137280, Note_off_c, 3, 69, 95
3, 137280, Note_on_c, 2, 76, 95
3, 137280, Note_on_c, 2, 71, 95
3, 138240, Note_off_c, 2, 76, 95
3, 138240, Note_off_c, 2, 71, 95
3, 138240, Pitch_bend_c, 3, 8192
3, 138240, Note_on_c, 3, 69, 95
3, 138283, Pitch_bend_c, 3, 8320
3, 138326, Pitch_bend_c, 3, 8448
3, 138369, Pitch_bend_c, 3, 8576
3, 138412, Pitch_bend_c, 3, 8704
3, 138455, Pitch_bend_c, 3, 8832
3, 138498, Pitch_bend_c, 3, 8960
3, 138541, Pitch_bend_c, 3, 9088
3, 138584, Pitch_bend_c, 3, 9216
3, 138627, Pitch_bend_c, 3, 9344
3, 138670, Pitch_bend_c, 3, 9472
3, 138713, Pitch_bend_c, 3, 9600
3, 138720, Pitch_bend_c, 3, 9600
3, 139200, Pitch_bend_c, 3, 9600
3, 139200, Pitch_bend_c, 3, 8192
3, 139200, Note_off_c, 3, 69, 95
3, 139200, Note_on_c, 2, 76, 95
3, 139200, Note_on_c, 2, 71, 95
3, 140160, Note_off_c, 2, 76, 95
3, 140160, Note_off_c, 2, 71, 95
3, 140160, Pitch_bend_c, 3, 8192
3, 140160, Note_on_c, 3, 69, 95
3, 140203, Pitch_bend_c, 3, 8320
3, 140246, Pitch_bend_c, 3, 8448
3, 140289, Pitch_bend_c, 3, 8576
3, 140332, Pitch_bend_c, 3, 8704
3, 140375, Pitch_bend_c, 3, 8832
3, 140418, Pitch_bend_c, 3, 8960
3, 140461, Pitch_bend_c, 3, 9088
3, 140504, Pitch_bend_c, 3, 9216
3, 140547, Pitch_bend_c, 3, 9344
3, 140590, Pitch_bend_c, 3, 9472
3, 140633, Pitch_bend_c, 3, 9600
3, 140640, Pitch_bend_c, 3, 9600
3, 141120, Pitch_bend_c, 3, 9600
3, 141120, Pitch_bend_c, 3, 8192
3, 141120, Note_off_c, 3, 69, 95
3, 141120, Note_on_c, 2, 76, 95
3, 141120, Note_on_c, 2, 71, 95
3, 142080, Note_off_c, 2, 76, 95
3, 142080, Note_off_c, 2, 71, 95
3, 142080, Pitch_bend_c, 3, 8192
3, 142080, Note_on_c, 3, 69, 95
3, 142123, Pitch_bend_c, 3, 8320
3, 142166, Pitch_bend_c, 3, 8448
3, 142209, Pitch_bend_c, 3, 8576
3, 142252, Pitch_bend_c, 3, 8704
3, 142295, Pitch_bend_c, 3, 8832
3, 142338, Pitch_bend_c, 3, 8960
3, 142381, Pitch_bend_c, 3, 9088
3, 142424, Pitch_bend_c, 3, 9216
3, 142467, Pitch_bend_c, 3, 9344
3, 142510, Pitch_bend_c, 3, 9472
3, 142553, Pitch_bend_c, 3, 9600
3, 142560, Pitch_bend_c, 3, 9600
3, 143040, Pitch_bend_c, 3, 9600
3, 143040, Pitch_bend_c, 3, 8192
3, 143040, Note_off_c, 3, 69, 95
3, 143040, Note_on_c, 2, 76, 95
3, 143040, Note_on_c, 2, 71, 95
3, 144000, Note_off_c, 2, 76, 95
3, 144000, Note_off_c, 2, 71, 95
3, 144000, Pitch_bend_c, 3, 8192
3, 144000, Note_on_c, 3, 69, 95
3, 144043, Pitch_bend_c, 3, 8320
3, 144086, Pitch_bend_c, 3, 8448
3, 144129, Pitch_bend_c, 3, 8576
3, 144172, Pitch_bend_c, 3, 8704
3, 144215, Pitch_bend_c, 3, 8832
3, 144258, Pitch_bend_c, 3, 8960
3, 144301, Pitch_bend_c, 3, 9088
3, 144344, Pitch_bend_c, 3, 9216
3, 144387, Pitch_bend_c, 3, 9344
3, 144430, Pitch_bend_c, 3, 9472
3, 144473, Pitch_bend_c, 3, 9600
3, 144480, Pitch_bend_c, 3, 9600
3, 144960, Pitch_bend_c, 3, 9600
3, 144960, Pitch_bend_c, 3, 8192
3, 144960, Note_off_c, 3, 69, 95
3, 144960, Note_on_c, 2, 76, 95
3, 144960, Note_on_c, 2, 71, 95
3, 145920, Note_off_c, 2, 76, 95
3, 145920, Note_off_c, 2, 71, 95
3, 145920, Pitch_bend_c, 3, 8192
3, 145920, Note_on_c, 3, 69, 95
3, 145941, Pitch_bend_c, 3, 8320
3, 145962, Pitch_bend_c, 3, 8448
3, 145983, Pitch_bend_c, 3, 8576
3, 146004, Pitch_bend_c, 3, 8704
3, 146025, Pitch_bend_c, 3, 8832
3, 146046, Pitch_bend_c, 3, 8960
3, 146067, Pitch_bend_c, 3, 9088
3, 146088, Pitch_bend_c, 3, 9216
3, 146109, Pitch_bend_c, 3, 9344
3, 146130, Pitch_bend_c, 3, 9472
3, 146151, Pitch_bend_c, 3, 9600
3, 146160, Pitch_bend_c, 3, 9600
3, 146400, Pitch_bend_c, 3, 9600
3, 146421, Pitch_bend_c, 3, 9472
3, 146442, Pitch_bend_c, 3, 9344
3, 146463, Pitch_bend_c, 3, 9216
3, 146484, Pitch_bend_c, 3, 9088
3, 146505, Pitch_bend_c, 3, 8960
3, 146526, Pitch_bend_c, 3, 8832
3, 146547, Pitch_bend_c, 3, 8704
3, 146568, Pitch_bend_c, 3, 8576
3, 146589, Pitch_bend_c, 3, 8448
3, 146610, Pitch_bend_c, 3, 8320
3, 146631, Pitch_bend_c, 3, 8192
3, 146640, Pitch_bend_c, 3, 8192
3, 146880, Pitch_bend_c, 3, 8192
3, 146880, Pitch_bend_c, 3, 8192
3, 146880, Note_off_c, 3, 69, 95
3, 146880, Note_on_c, 2, 76, 95
3, 146880, Note_on_c, 2, 71, 95
3, 147840, Note_off_c, 2, 76, 95
3, 147840, Note_off_c, 2, 71, 95
3, 147840, Note_on_c, 2, 71, 95
3, 148320, Note_off_c, 2, 71, 95
3, 148320, Note_on_c, 2, 71, 95
3, 148800, Note_off_c, 2, 71, 95
3, 148800, Note_on_c, 2, 71, 95
3, 149280, Note_off_c, 2, 71, 95
3, 149280, Note_on_c, 2, 71, 95
3, 149760, Note_off_c, 2, 71, 95
3, 149760, Note_on_c, 2, 69, 95
3, 150240, Note_off_c, 2, 69, 95
3, 150240, Note_on_c, 2, 71, 95
3, 150720, Note_off_c, 2, 71, 95
3, 150720, Note_on_c, 2, 71, 95
3, 151680, Note_off_c, 2, 71, 95
3, 151680, Note_on_c, 2, 71, 95
3, 152160, Note_off_c, 2, 71, 95
3, 152160, Note_on_c, 2, 67, 95
3, 153600, Note_off_c, 2, 67, 95
3, 153600, Note_on_c, 2, 71, 95
3, 154080, Note_off_c, 2, 71, 95
3, 154080, Note_on_c, 2, 69, 95
3, 154560, Note_off_c, 2, 69, 95
3, 154560, Note_on_c, 2, 67, 95
3, 155040, Note_off_c, 2, 67, 95
3, 155040, Note_on_c, 2, 64, 95
3, 155520, Note_off_c, 2, 64, 95
3, 155520, Note_on_c, 2, 67, 95
3, 156000, Note_off_c, 2, 67, 95
3, 156000, Note_on_c, 2, 64, 95
3, 156480, Note_off_c, 2, 64, 95
3, 156480, Note_on_c, 3, 59, 95
3, 156480, Note_on_c, 3, 54, 95
3, 156480, Note_on_c, 3, 47, 95
3, 156600, Pitch_bend_c, 3, 7936
3, 156600, Pitch_bend_c, 3, 7936
3, 156600, Pitch_bend_c, 3, 7936
3, 156720, Pitch_bend_c, 3, 7552
3, 156720, Pitch_bend_c, 3, 7552
3, 156720, Pitch_bend_c, 3, 7552
3, 156840, Pitch_bend_c, 3, 7168
3, 156840, Pitch_bend_c, 3, 7168
3, 156840, Pitch_bend_c, 3, 7168
3, 156960, Pitch_bend_c, 3, 6784
3, 156960, Pitch_bend_c, 3, 8192
3, 156960, Note_off_c, 3, 59, 95
3, 156960, Pitch_bend_c, 3, 6784
3, 156960, Pitch_bend_c, 3, 8192
3, 156960, Note_off_c, 3, 54, 95
3, 156960, Pitch_bend_c, 3, 6784
3, 156960, Pitch_bend_c, 3, 8192
3, 156960, Note_off_c, 3, 47, 95
3, 156960, Note_on_c, 2, 57, 95
3, 156960, Note_on_c, 2, 52, 95
3, 156960, Note_on_c, 2, 45, 95
3, 157440, Note_off_c, 2, 57, 95
3, 157440, Note_off_c, 2, 52, 95
3, 157440, Note_off_c, 2, 45, 95
3, 157440, Note_on_c, 2, 57, 95
3, 157440, Note_on_c, 2, 52, 95
3, 157440, Note_on_c, 2, 45, 95
3, 157920, Note_off_c, 2, 57, 95
3, 157920, Note_off_c, 2, 52, 95
3, 157920, Note_off_c, 2, 45, 95
3, 161280, Note_on_c, 2, 71, 95
3, 161760, Note_off_c, 2, 71, 95
3, 161760, Note_on_c, 2, 67, 95
3, 162720, Note_off_c, 2, 67, 95
3, 162720, Note_on_c, 2, 71, 95
3, 163200, Note_off_c, 2, 71, 95
3, 163200, Note_on_c, 2, 67, 95
3, 164160, Note_off_c, 2, 67, 95
3, 164160, Note_on_c, 2, 71, 95
3, 164640, Note_off_c, 2, 71, 95
3, 164640, Note_on_c, 2, 67, 95
3, 165600, Note_off_c, 2, 67, 95
3, 165600, Note_on_c, 2, 71, 95
3, 166080, Note_off_c, 2, 71, 95
3, 166080, Note_on_c, 2, 67, 95
3, 167040, Note_off_c, 2, 67, 95
3, 167040, Note_on_c, 2, 71, 95
3, 167520, Note_off_c, 2, 71, 95
3, 167520, Note_on_c, 2, 67, 95
3, 168480, Note_off_c, 2, 67, 95
3, 168480, Note_on_c, 2, 71, 95
3, 168960, Note_off_c, 2, 71, 95
3, 177120, Note_on_c, 2, 76, 95
3, 177120, Note_on_c, 2, 71, 95
3, 177600, Note_off_c, 2, 76, 95
3, 177600, Note_off_c, 2, 71, 95
3, 177600, Note_on_c, 2, 76, 95
3, 177600, Note_on_c, 2, 71, 95
3, 178080, Note_off_c, 2, 76, 95
3, 178080, Note_off_c, 2, 71, 95
3, 178080, Note_on_c, 2, 76, 95
3, 178080, Note_on_c, 2, 71, 95
3, 178560, Note_off_c, 2, 76, 95
3, 178560, Note_off_c, 2, 71, 95
3, 178560, Note_on_c, 3, 76, 95
3, 178560, Note_on_c, 3, 71, 95
3, 178680, Pitch_bend_c, 3, 6144
3, 178680, Pitch_bend_c, 3, 6144
3, 178800, Pitch_bend_c, 3, 3968
3, 178800, Pitch_bend_c, 3, 3968
3, 178920, Pitch_bend_c, 3, 1920
3, 178920, Pitch_bend_c, 3, 1920
3, 179040, Pitch_bend_c, 3, 0
3, 179040, Pitch_bend_c, 3, 8192
3, 179040, Note_off_c, 3, 76, 95
3, 179040, Pitch_bend_c, 3, 0
3, 179040, Pitch_bend_c, 3, 8192
3, 179040, Note_off_c, 3, 71, 95
3, 179040, Note_on_c, 2, 64, 15
3, 179040, Note_on_c, 2, 59, 15
3, 179520, Note_off_c, 2, 64, 15
3, 179520, Note_off_c, 2, 59, 15
3, 180960, Note_on_c, 2, 76, 95
3, 180960, Note_on_c, 2, 71, 95
3, 181440, Note_off_c, 2, 76, 95
3, 181440, Note_off_c, 2, 71, 95
3, 181440, Note_on_c, 2, 76, 95
3, 181440, Note_on_c, 2, 71, 95
3, 181920, Note_off_c, 2, 76, 95
3, 181920, Note_off_c, 2, 71, 95
3, 181920, Note_on_c, 2, 76, 95
3, 181920, Note_on_c, 2, 71, 95
3, 182400, Note_off_c, 2, 76, 95
3, 182400, Note_off_c, 2, 71, 95
3, 182400, Note_on_c, 3, 76, 95
3, 182400, Note_on_c, 3, 71, 95
3, 182520, Pitch_bend_c, 3, 6144
3, 182520, Pitch_bend_c, 3, 6144
3, 182640, Pitch_bend_c, 3, 3968
3, 182640, Pitch_bend_c, 3, 3968
3, 182760, Pitch_bend_c, 3, 1920
3, 182760, Pitch_bend_c, 3, 1920
3, 182880, Pitch_bend_c, 3, 0
3, 182880, Pitch_bend_c, 3, 8192
3, 182880, Note_off_c, 3, 76, 95
3, 182880, Pitch_bend_c, 3, 0
3, 182880, Pitch_bend_c, 3, 8192
3, 182880, Note_off_c, 3, 71, 95
3, 182880, Note_on_c, 2, 64, 15
3, 182880, Note_on_c, 2, 59, 15
3, 183360, Note_off_c, 2, 64, 15
3, 183360, Note_off_c, 2, 59, 15
3, 184800, Note_on_c, 2, 69, 95
3, 184800, Note_on_c, 2, 64, 95
3, 185280, Note_off_c, 2, 69, 95
3, 185280, Note_off_c, 2, 64, 95
3, 186240, Note_on_c, 2, 69, 95
3, 186240, Note_on_c, 2, 64, 95
3, 186720, Note_off_c, 2, 69, 95
3, 186720, Note_off_c, 2, 64, 95
3, 188640, Note_on_c, 2, 69, 95
3, 188640, Note_on_c, 2, 64, 95
3, 189120, Note_off_c, 2, 69, 95
3, 189120, Note_off_c, 2, 64, 95
3, 190080, Note_on_c, 2, 69, 95
3, 190080, Note_on_c, 2, 64, 95
3, 190560, Note_off_c, 2, 69, 95
3, 190560, Note_off_c, 2, 64, 95
3, 192000, Note_on_c, 2, 71, 95
3, 192480, Note_off_c, 2, 71, 95
3, 192480, Note_on_c, 2, 71, 95
3, 192960, Note_off_c, 2, 71, 95
3, 192960, Note_on_c, 2, 69, 95
3, 193440, Note_off_c, 2, 69, 95
3, 193440, Note_on_c, 3, 70, 95
3, 193560, Pitch_bend_c, 3, 8320
3, 193680, Pitch_bend_c, 3, 8448
3, 193800, Pitch_bend_c, 3, 8704
3, 193920, Pitch_bend_c, 3, 8832
3, 193920, Pitch_bend_c, 3, 8192
3, 193920, Note_off_c, 3, 70, 95
3, 193920, Note_on_c, 2, 71, 95
3, 194880, Note_off_c, 2, 71, 95
3, 195840, Note_on_c, 2, 71, 95
3, 196320, Note_off_c, 2, 71, 95
3, 196320, Note_on_c, 2, 67, 95
3, 198240, Note_off_c, 2, 67, 95
3, 199680, Note_on_c, 2, 71, 95
3, 200160, Note_off_c, 2, 71, 95
3, 200160, Note_on_c, 2, 69, 95
3, 200640, Note_off_c, 2, 69, 95
3, 200640, Note_on_c, 2, 67, 95
3, 201120, Note_off_c, 2, 67, 95
3, 201120, Note_on_c, 2, 64, 95
3, 201600, Note_off_c, 2, 64, 95
3, 201600, Note_on_c, 2, 67, 95
3, 202080, Note_off_c, 2, 67, 95
3, 202080, Note_on_c, 2, 64, 95
3, 202560, Note_off_c, 2, 64, 95
3, 202560, Note_on_c, 3, 59, 95
3, 202560, Note_on_c, 3, 54, 95
3, 202560, Note_on_c, 3, 47, 95
3, 202680, Pitch_bend_c, 3, 7936
3, 202680, Pitch_bend_c, 3, 7936
3, 202680, Pitch_bend_c, 3, 7936
3, 202800, Pitch_bend_c, 3, 7552
3, 202800, Pitch_bend_c, 3, 7552
3, 202800, Pitch_bend_c, 3, 7552
3, 202920, Pitch_bend_c, 3, 7168
3, 202920, Pitch_bend_c, 3, 7168
3, 202920, Pitch_bend_c, 3, 7168
3, 203040, Pitch_bend_c, 3, 6784
3, 203040, Pitch_bend_c, 3, 8192
3, 203040, Note_off_c, 3, 59, 95
3, 203040, Pitch_bend_c, 3, 6784
3, 203040, Pitch_bend_c, 3, 8192
3, 203040, Note_off_c, 3, 54, 95
3, 203040, Pitch_bend_c, 3, 6784
3, 203040, Pitch_bend_c, 3, 8192
3, 203040, Note_off_c, 3, 47, 95
3, 203040, Note_on_c, 2, 57, 95
3, 203040, Note_on_c, 2, 52, 95
3, 203040, Note_on_c, 2, 45, 95
3, 203520, Note_off_c, 2, 57, 95
3, 203520, Note_off_c, 2, 52, 95
3, 203520, Note_off_c, 2, 45, 95
3, 203520, Note_on_c, 2, 57, 95
3, 203520, Note_on_c, 2, 52, 95
3, 203520, Note_on_c, 2, 45, 95
3, 204000, Note_off_c, 2, 57, 95
3, 204000, Note_off_c, 2, 52, 95
3, 204000, Note_off_c, 2, 45, 95
3, 207360, Note_on_c, 2, 71, 95
3, 207840, Note_off_c, 2, 71, 95
3, 207840, Note_on_c, 2, 67, 95
3, 208800, Note_off_c, 2, 67, 95
3, 208800, Note_on_c, 2, 71, 95
3, 209280, Note_off_c, 2, 71, 95
3, 209280, Note_on_c, 2, 67, 95
3, 210240, Note_off_c, 2, 67, 95
3, 210240, Note_on_c, 2, 71, 95
3, 210720, Note_off_c, 2, 71, 95
3, 210720, Note_on_c, 2, 67, 95
3, 211680, Note_off_c, 2, 67, 95
3, 211680, Note_on_c, 2, 71, 95
3, 212160, Note_off_c, 2, 71, 95
3, 212160, Note_on_c, 2, 67, 95
3, 213120, Note_off_c, 2, 67, 95
3, 213120, Note_on_c, 2, 71, 95
3, 213600, Note_off_c, 2, 71, 95
3, 213600, Note_on_c, 2, 67, 95
3, 214560, Note_off_c, 2, 67, 95
3, 214560, Note_on_c, 2, 71, 95
3, 215040, Note_off_c, 2, 71, 95
3, 215520, Note_on_c, 2, 76, 95
3, 215520, Note_on_c, 2, 71, 95
3, 216000, Note_off_c, 2, 76, 95
3, 216000, Note_off_c, 2, 71, 95
3, 216960, Note_on_c, 2, 76, 95
3, 216960, Note_on_c, 2, 71, 95
3, 217440, Note_off_c, 2, 76, 95
3, 217440, Note_off_c, 2, 71, 95
3, 219360, Note_on_c, 2, 76, 95
3, 219360, Note_on_c, 2, 71, 95
3, 219840, Note_off_c, 2, 76, 95
3, 219840, Note_off_c, 2, 71, 95
3, 220800, Note_on_c, 2, 76, 95
3, 220800, Note_on_c, 2, 71, 95
3, 221280, Note_off_c, 2, 76, 95
3, 221280, Note_off_c, 2, 71, 95
3, 223200, Note_on_c, 2, 76, 95
3, 223200, Note_on_c, 2, 71, 95
3, 223680, Note_off_c, 2, 76, 95
3, 223680, Note_off_c, 2, 71, 95
3, 224640, Note_on_c, 2, 76, 95
3, 224640, Note_on_c, 2, 71, 95
3, 225120, Note_off_c, 2, 76, 95
3, 225120, Note_off_c, 2, 71, 95
3, 227040, Note_on_c, 2, 76, 95
3, 227040, Note_on_c, 2, 71, 95
3, 227520, Note_off_c, 2, 76, 95
3, 227520, Note_off_c, 2, 71, 95
3, 228480, Note_on_c, 2, 76, 95
3, 228480, Note_on_c, 2, 71, 95
3, 228960, Note_off_c, 2, 76, 95
3, 228960, Note_off_c, 2, 71, 95
3, 230880, Note_on_c, 2, 76, 95
3, 230880, Note_on_c, 2, 71, 95
3, 231360, Note_off_c, 2, 76, 95
3, 231360, Note_off_c, 2, 71, 95
3, 232320, Note_on_c, 2, 76, 95
3, 232320, Note_on_c, 2, 71, 95
3, 232800, Note_off_c, 2, 76, 95
3, 232800, Note_off_c, 2, 71, 95
3, 234720, Note_on_c, 2, 76, 95
3, 234720, Note_on_c, 2, 71, 95
3, 235200, Note_off_c, 2, 76, 95
3, 235200, Note_off_c, 2, 71, 95
3, 236160, Note_on_c, 2, 76, 95
3, 236160, Note_on_c, 2, 71, 95
3, 236640, Note_off_c, 2, 76, 95
3, 236640, Note_off_c, 2, 71, 95
3, 238560, Note_on_c, 2, 76, 95
3, 238560, Note_on_c, 2, 71, 95
3, 239040, Note_off_c, 2, 76, 95
3, 239040, Note_off_c, 2, 71, 95
3, 240000, Note_on_c, 2, 76, 95
3, 240000, Note_on_c, 2, 71, 95
3, 240480, Note_off_c, 2, 76, 95
3, 240480, Note_off_c, 2, 71, 95
3, 242400, Note_on_c, 2, 76, 95
3, 242400, Note_on_c, 2, 71, 95
3, 242880, Note_off_c, 2, 76, 95
3, 242880, Note_off_c, 2, 71, 95
3, 243840, Note_on_c, 2, 76, 95
3, 243840, Note_on_c, 2, 71, 95
3, 244320, Note_off_c, 2, 76, 95
3, 244320, Note_off_c, 2, 71, 95
3, 245760, Note_on_c, 2, 71, 95
3, 246240, Note_off_c, 2, 71, 95
3, 246240, Note_on_c, 2, 69, 95
3, 246720, Note_off_c, 2, 69, 95
3, 246720, Note_on_c, 2, 67, 95
3, 247200, Note_off_c, 2, 67, 95
3, 247200, Note_on_c, 2, 64, 95
3, 247680, Note_off_c, 2, 64, 95
3, 247680, Note_on_c, 2, 67, 95
3, 248160, Note_off_c, 2, 67, 95
3, 248160, Note_on_c, 2, 64, 95
3, 248640, Note_off_c, 2, 64, 95
3, 248640, Note_on_c, 3, 59, 95
3, 248640, Note_on_c, 3, 54, 95
3, 248640, Note_on_c, 3, 47, 95
3, 248760, Pitch_bend_c, 3, 7936
3, 248760, Pitch_bend_c, 3, 7936
3, 248760, Pitch_bend_c, 3, 7936
3, 248880, Pitch_bend_c, 3, 7552
3, 248880, Pitch_bend_c, 3, 7552
3, 248880, Pitch_bend_c, 3, 7552
3, 249000, Pitch_bend_c, 3, 7168
3, 249000, Pitch_bend_c, 3, 7168
3, 249000, Pitch_bend_c, 3, 7168
3, 249120, Pitch_bend_c, 3, 6784
3, 249120, Pitch_bend_c, 3, 8192
3, 249120, Note_off_c, 3, 59, 95
3, 249120, Pitch_bend_c, 3, 6784
3, 249120, Pitch_bend_c, 3, 8192
3, 249120, Note_off_c, 3, 54, 95
3, 249120, Pitch_bend_c, 3, 6784
3, 249120, Pitch_bend_c, 3, 8192
3, 249120, Note_off_c, 3, 47, 95
3, 249120, Note_on_c, 2, 57, 95
3, 249120, Note_on_c, 2, 52, 95
3, 249120, Note_on_c, 2, 45, 95
3, 249600, Note_off_c, 2, 57, 95
3, 249600, Note_off_c, 2, 52, 95
3, 249600, Note_off_c, 2, 45, 95
3, 249600, Note_on_c, 2, 57, 95
3, 249600, Note_on_c, 2, 52, 95
3, 249600, Note_on_c, 2, 45, 95
3, 250080, Note_off_c, 2, 57, 95
3, 250080, Note_off_c, 2, 52, 95
3, 250080, Note_off_c, 2, 45, 95
3, 253440, Note_on_c, 2, 71, 95
3, 253920, Note_off_c, 2, 71, 95
3, 253920, Note_on_c, 2, 67, 95
3, 254880, Note_off_c, 2, 67, 95
3, 254880, Note_on_c, 2, 71, 95
3, 255360, Note_off_c, 2, 71, 95
3, 255360, Note_on_c, 2, 67, 95
3, 256320, Note_off_c, 2, 67, 95
3, 256320, Note_on_c, 2, 71, 95
3, 256800, Note_off_c, 2, 71, 95
3, 256800, Note_on_c, 2, 67, 95
3, 257760, Note_off_c, 2, 67, 95
3, 257760, Note_on_c, 2, 71, 95
3, 258240, Note_off_c, 2, 71, 95
3, 258240, Note_on_c, 2, 67, 95
3, 259200, Note_off_c, 2, 67, 95
3, 259200, Note_on_c, 2, 71, 95
3, 259680, Note_off_c, 2, 71, 95
3, 259680, Note_on_c, 2, 67, 95
3, 260640, Note_off_c, 2, 67, 95
3, 260640, Note_on_c, 2, 71, 95
3, 261120, Note_off_c, 2, 71, 95
3, 284160, Note_on_c, 2, 64, 95
3, 284160, Note_on_c, 2, 59, 95
3, 284160, Note_on_c, 2, 52, 95
3, 284640, Note_off_c, 2, 64, 95
3, 284640, Note_off_c, 2, 59, 95
3, 284640, Note_off_c, 2, 52, 95
3, 288000, Note_on_c, 2, 64, 95
3, 288000, Note_on_c, 2, 59, 95
3, 288000, Note_on_c, 2, 52, 95
3, 288480, Note_off_c, 2, 64, 95
3, 288480, Note_off_c, 2, 59, 95
3, 288480, Note_off_c, 2, 52, 95
3, 288480, Note_on_c, 2, 64, 95
3, 288480, Note_on_c, 2, 59, 95
3, 288480, Note_on_c, 2, 52, 95
3, 288960, Note_off_c, 2, 64, 95
3, 288960, Note_off_c, 2, 59, 95
3, 288960, Note_off_c, 2, 52, 95
3, 291840, Note_on_c, 2, 64, 95
3, 291840, Note_on_c, 2, 59, 95
3, 291840, Note_on_c, 2, 52, 95
3, 292320, Note_off_c, 2, 64, 95
3, 292320, Note_off_c, 2, 59, 95
3, 292320, Note_off_c, 2, 52, 95
3, 295680, Note_on_c, 2, 64, 95
3, 295680, Note_on_c, 2, 59, 95
3, 295680, Note_on_c, 2, 52, 95
3, 296160, Note_off_c, 2, 64, 95
3, 296160, Note_off_c, 2, 59, 95
3, 296160, Note_off_c, 2, 52, 95
3, 296640, Note_on_c, 2, 64, 95
3, 296640, Note_on_c, 2, 59, 95
3, 296640, Note_on_c, 2, 56, 95
3, 296640, Note_on_c, 2, 52, 95
3, 296640, Note_on_c, 2, 47, 95
3, 296640, Note_on_c, 2, 40, 95
3, 299520, Note_off_c, 2, 64, 95
3, 299520, Note_off_c, 2, 59, 95
3, 299520, Note_off_c, 2, 56, 95
3, 299520, Note_off_c, 2, 52, 95
3, 299520, Note_off_c, 2, 47, 95
3, 299520, Note_off_c, 2, 40, 95
3, 299520, End_track
4, 0, Start_track
4, 0, Pitch_bend_c, 4, 8192
4, 0, Control_c, 4, 7, 103
4, 0, Control_c, 4, 10, 63
4, 0, Control_c, 4, 93, 0
4, 0, Control_c, 4, 91, 0
4, 0, Control_c, 4, 95, 0
4, 0, Control_c, 4, 92, 0
4, 0, Control_c, 4, 11, 127
4, 0, Program_c, 4, 33
4, 0, Control_c, 5, 7, 103
4, 0, Control_c, 5, 10, 63
4, 0, Control_c, 5, 93, 0
4, 0, Control_c, 5, 91, 0
4, 0, Control_c, 5, 95, 0
4, 0, Control_c, 5, 92, 0
4, 0, Control_c, 5, 11, 127
4, 0, Program_c, 5, 33
4, 30720, Note_on_c, 4, 28, 95
4, 31200, Note_off_c, 4, 28, 95
4, 31200, Note_on_c, 4, 28, 95
4, 31680, Note_off_c, 4, 28, 95
4, 31680, Note_on_c, 4, 31, 95
4, 32160, Note_off_c, 4, 31, 95
4, 32160, Note_on_c, 4, 31, 95
4, 32640, Note_off_c, 4, 31, 95
4, 32640, Note_on_c, 4, 33, 95
4, 33120, Note_off_c, 4, 33, 95
4, 33120, Note_on_c, 4, 33, 95
4, 33600, Note_off_c, 4, 33, 95
4, 33600, Note_on_c, 4, 34, 95
4, 34080, Note_off_c, 4, 34, 95
4, 34080, Note_on_c, 4, 33, 95
4, 34560, Note_off_c, 4, 33, 95
4, 34560, Note_on_c, 4, 28, 95
4, 35040, Note_off_c, 4, 28, 95
4, 35040, Note_on_c, 4, 28, 95
4, 35520, Note_off_c, 4, 28, 95
4, 35520, Note_on_c, 4, 31, 95
4, 36000, Note_off_c, 4, 31, 95
4, 36000, Note_on_c, 4, 31, 95
4, 36480, Note_off_c, 4, 31, 95
4, 36480, Note_on_c, 4, 33, 95
4, 36960, Note_off_c, 4, 33, 95
4, 36960, Note_on_c, 4, 33, 95
4, 37440, Note_off_c, 4, 33, 95
4, 37440, Note_on_c, 4, 34, 95
4, 37920, Note_off_c, 4, 34, 95
4, 37920, Note_on_c, 4, 33, 95
4, 38400, Note_off_c, 4, 33, 95
4, 38400, Note_on_c, 4, 28, 95
4, 38880, Note_off_c, 4, 28, 95
4, 38880, Note_on_c, 4, 28, 95
4, 39360, Note_off_c, 4, 28, 95
4, 39360, Note_on_c, 4, 31, 95
4, 39840, Note_off_c, 4, 31, 95
4, 39840, Note_on_c, 4, 31, 95
4, 40320, Note_off_c, 4, 31, 95
4, 40320, Note_on_c, 4, 33, 95
4, 40800, Note_off_c, 4, 33, 95
4, 40800, Note_on_c, 4, 33, 95
4, 41280, Note_off_c, 4, 33, 95
4, 41280, Note_on_c, 4, 34, 95
4, 41760, Note_off_c, 4, 34, 95
4, 41760, Note_on_c, 4, 33, 95
4, 42240, Note_off_c, 4, 33, 95
4, 42240, Note_on_c, 4, 28, 95
4, 42720, Note_off_c, 4, 28, 95
4, 42720, Note_on_c, 4, 28, 95
4, 43200, Note_off_c, 4, 28, 95
4, 43200, Note_on_c, 4, 31, 95
4, 43680, Note_off_c, 4, 31, 95
4, 43680, Note_on_c, 4, 31, 95
4, 44160, Note_off_c, 4, 31, 95
4, 44160, Note_on_c, 4, 33, 95
4, 44640, Note_off_c, 4, 33, 95
4, 44640, Note_on_c, 4, 33, 95
4, 45120, Note_off_c, 4, 33, 95
4, 45120, Note_on_c, 4, 34, 95
4, 45600, Note_off_c, 4, 34, 95
4, 45600, Note_on_c, 4, 33, 95
4, 46080, Note_off_c, 4, 33, 95
4, 46080, Note_on_c, 4, 33, 95
4, 46560, Note_off_c, 4, 33, 95
4, 46560, Note_on_c, 4, 33, 95
4, 47040, Note_off_c, 4, 33, 95
4, 47040, Note_on_c, 4, 36, 95
4, 47520, Note_off_c, 4, 36, 95
4, 47520, Note_on_c, 4, 36, 95
4, 48000, Note_off_c, 4, 36, 95
4, 48000, Note_on_c, 4, 38, 95
4, 48480, Note_off_c, 4, 38, 95
4, 48480, Note_on_c, 4, 38, 95
4, 48960, Note_off_c, 4, 38, 95
4, 48960, Note_on_c, 4, 39, 95
4, 49440, Note_off_c, 4, 39, 95
4, 49440, Note_on_c, 4, 38, 95
4, 49920, Note_off_c, 4, 38, 95
4, 49920, Note_on_c, 4, 33, 95
4, 50400, Note_off_c, 4, 33, 95
4, 50400, Note_on_c, 4, 33, 95
4, 50880, Note_off_c, 4, 33, 95
4, 50880, Note_on_c, 4, 36, 95
4, 51360, Note_off_c, 4, 36, 95
4, 51360, Note_on_c, 4, 36, 95
4, 51840, Note_off_c, 4, 36, 95
4, 51840, Note_on_c, 4, 38, 95
4, 52320, Note_off_c, 4, 38, 95
4, 52320, Note_on_c, 4, 38, 95
4, 52800, Note_off_c, 4, 38, 95
4, 52800, Note_on_c, 4, 39, 95
4, 53280, Note_off_c, 4, 39, 95
4, 53280, Note_on_c, 4, 38, 95
4, 53760, Note_off_c, 4, 38, 95
4, 53760, Note_on_c, 4, 28, 95
4, 54240, Note_off_c, 4, 28, 95
4, 54240, Note_on_c, 4, 28, 95
4, 54720, Note_off_c, 4, 28, 95
4, 54720, Note_on_c, 4, 31, 95
4, 55200, Note_off_c, 4, 31, 95
4, 55200, Note_on_c, 4, 31, 95
4, 55680, Note_off_c, 4, 31, 95
4, 55680, Note_on_c, 4, 33, 95
4, 56160, Note_off_c, 4, 33, 95
4, 56160, Note_on_c, 4, 33, 95
4, 56640, Note_off_c, 4, 33, 95
4, 56640, Note_on_c, 4, 34, 95
4, 57120, Note_off_c, 4, 34, 95
4, 57120, Note_on_c, 4, 33, 95
4, 57600, Note_off_c, 4, 33, 95
4, 57600, Note_on_c, 4, 28, 95
4, 58080, Note_off_c, 4, 28, 95
4, 58080, Note_on_c, 4, 28, 95
4, 58560, Note_off_c, 4, 28, 95
4, 58560, Note_on_c, 4, 31, 95
4, 59040, Note_off_c, 4, 31, 95
4, 59040, Note_on_c, 4, 31, 95
4, 59520, Note_off_c, 4, 31, 95
4, 59520, Note_on_c, 4, 33, 95
4, 60000, Note_off_c, 4, 33, 95
4, 60000, Note_on_c, 4, 33, 95
4, 60480, Note_off_c, 4, 33, 95
4, 60480, Note_on_c, 4, 34, 95
4, 60960, Note_off_c, 4, 34, 95
4, 60960, Note_on_c, 4, 33, 95
4, 61440, Note_off_c, 4, 33, 95
4, 61440, Note_on_c, 4, 35, 95
4, 61920, Note_off_c, 4, 35, 95
4, 61920, Note_on_c, 4, 35, 95
4, 62400, Note_off_c, 4, 35, 95
4, 62400, Note_on_c, 4, 35, 95
4, 62880, Note_off_c, 4, 35, 95
4, 62880, Note_on_c, 4, 35, 95
4, 63360, Note_off_c, 4, 35, 95
4, 63360, Note_on_c, 4, 35, 95
4, 63840, Note_off_c, 4, 35, 95
4, 63840, Note_on_c, 4, 35, 95
4, 64320, Note_off_c, 4, 35, 95
4, 64320, Note_on_c, 4, 35, 95
4, 64800, Note_off_c, 4, 35, 95
4, 64800, Note_on_c, 4, 35, 95
4, 65280, Note_off_c, 4, 35, 95
4, 65280, Note_on_c, 4, 33, 95
4, 65760, Note_off_c, 4, 33, 95
4, 69120, Note_on_c, 4, 28, 95
4, 69600, Note_off_c, 4, 28, 95
4, 69600, Note_on_c, 4, 28, 95
4, 70080, Note_off_c, 4, 28, 95
4, 70080, Note_on_c, 4, 31, 95
4, 70560, Note_off_c, 4, 31, 95
4, 70560, Note_on_c, 4, 31, 95
4, 71040, Note_off_c, 4, 31, 95
4, 71040, Note_on_c, 4, 33, 95
4, 71520, Note_off_c, 4, 33, 95
4, 71520, Note_on_c, 4, 33, 95
4, 72000, Note_off_c, 4, 33, 95
4, 72000, Note_on_c, 4, 34, 95
4, 72480, Note_off_c, 4, 34, 95
4, 72480, Note_on_c, 4, 33, 95
4, 72960, Note_off_c, 4, 33, 95
4, 72960, Note_on_c, 4, 35, 95
4, 73440, Note_off_c, 4, 35, 95
4, 73440, Note_on_c, 4, 35, 95
4, 73920, Note_off_c, 4, 35, 95
4, 73920, Note_on_c, 4, 35, 95
4, 74400, Note_off_c, 4, 35, 95
4, 74400, Note_on_c, 4, 35, 95
4, 74880, Note_off_c, 4, 35, 95
4, 74880, Note_on_c, 4, 35, 95
4, 75360, Note_off_c, 4, 35, 95
4, 75360, Note_on_c, 4, 35, 95
4, 75840, Note_off_c, 4, 35, 95
4, 75840, Note_on_c, 4, 35, 95
4, 76320, Note_off_c, 4, 35, 95
4, 76320, Note_on_c, 4, 35, 95
4, 76800, Note_off_c, 4, 35, 95
4, 76800, Note_on_c, 4, 28, 95
4, 77280, Note_off_c, 4, 28, 95
4, 77280, Note_on_c, 4, 28, 95
4, 77760, Note_off_c, 4, 28, 95
4, 77760, Note_on_c, 4, 31, 95
4, 78240, Note_off_c, 4, 31, 95
4, 78240, Note_on_c, 4, 31, 95
4, 78720, Note_off_c, 4, 31, 95
4, 78720, Note_on_c, 4, 33, 95
4, 79200, Note_off_c, 4, 33, 95
4, 79200, Note_on_c, 4, 33, 95
4, 79680, Note_off_c, 4, 33, 95
4, 79680, Note_on_c, 4, 34, 95
4, 80160, Note_off_c, 4, 34, 95
4, 80160, Note_on_c, 4, 33, 95
4, 80640, Note_off_c, 4, 33, 95
4, 80640, Note_on_c, 4, 28, 95
4, 81120, Note_off_c, 4, 28, 95
4, 81120, Note_on_c, 4, 28, 95
4, 81600, Note_off_c, 4, 28, 95
4, 81600, Note_on_c, 4, 31, 95
4, 82080, Note_off_c, 4, 31, 95
4, 82080, Note_on_c, 4, 31, 95
4, 82560, Note_off_c, 4, 31, 95
4, 82560, Note_on_c, 4, 33, 95
4, 83040, Note_off_c, 4, 33, 95
4, 83040, Note_on_c, 4, 33, 95
4, 83520, Note_off_c, 4, 33, 95
4, 83520, Note_on_c, 4, 34, 95
4, 84000, Note_off_c, 4, 34, 95
4, 84000, Note_on_c, 4, 33, 95
4, 84480, Note_off_c, 4, 33, 95
4, 84480, Note_on_c, 4, 28, 95
4, 84960, Note_off_c, 4, 28, 95
4, 84960, Note_on_c, 4, 28, 95
4, 85440, Note_off_c, 4, 28, 95
4, 85440, Note_on_c, 4, 31, 95
4, 85920, Note_off_c, 4, 31, 95
4, 85920, Note_on_c, 4, 31, 95
4, 86400, Note_off_c, 4, 31, 95
4, 86400, Note_on_c, 4, 33, 95
4, 86880, Note_off_c, 4, 33, 95
4, 86880, Note_on_c, 4, 33, 95
4, 87360, Note_off_c, 4, 33, 95
4, 87360, Note_on_c, 4, 34, 95
4, 87840, Note_off_c, 4, 34, 95
4, 87840, Note_on_c, 4, 33, 95
4, 88320, Note_off_c, 4, 33, 95
4, 88320, Note_on_c, 4, 28, 95
4, 88800, Note_off_c, 4, 28, 95
4, 88800, Note_on_c, 4, 28, 95
4, 89280, Note_off_c, 4, 28, 95
4, 89280, Note_on_c, 4, 31, 95
4, 89760, Note_off_c, 4, 31, 95
4, 89760, Note_on_c, 4, 31, 95
4, 90240, Note_off_c, 4, 31, 95
4, 90240, Note_on_c, 4, 33, 95
4, 90720, Note_off_c, 4, 33, 95
4, 90720, Note_on_c, 4, 33, 95
4, 91200, Note_off_c, 4, 33, 95
4, 91200, Note_on_c, 4, 34, 95
4, 91680, Note_off_c, 4, 34, 95
4, 91680, Note_on_c, 4, 33, 95
4, 92160, Note_off_c, 4, 33, 95
4, 92160, Note_on_c, 4, 33, 95
4, 92640, Note_off_c, 4, 33, 95
4, 92640, Note_on_c, 4, 33, 95
4, 93120, Note_off_c, 4, 33, 95
4, 93120, Note_on_c, 4, 36, 95
4, 93600, Note_off_c, 4, 36, 95
4, 93600, Note_on_c, 4, 36, 95
4, 94080, Note_off_c, 4, 36, 95
4, 94080, Note_on_c, 4, 38, 95
4, 94560, Note_off_c, 4, 38, 95
4, 94560, Note_on_c, 4, 38, 95
4, 95040, Note_off_c, 4, 38, 95
4, 95040, Note_on_c, 4, 39, 95
4, 95520, Note_off_c, 4, 39, 95
4, 95520, Note_on_c, 4, 38, 95
4, 96000, Note_off_c, 4, 38, 95
4, 96000, Note_on_c, 4, 33, 95
4, 96480, Note_off_c, 4, 33, 95
4, 96480, Note_on_c, 4, 33, 95
4, 96960, Note_off_c, 4, 33, 95
4, 96960, Note_on_c, 4, 36, 95
4, 97440, Note_off_c, 4, 36, 95
4, 97440, Note_on_c, 4, 36, 95
4, 97920, Note_off_c, 4, 36, 95
4, 97920, Note_on_c, 4, 38, 95
4, 98400, Note_off_c, 4, 38, 95
4, 98400, Note_on_c, 4, 38, 95
4, 98880, Note_off_c, 4, 38, 95
4, 98880, Note_on_c, 4, 39, 95
4, 99360, Note_off_c, 4, 39, 95
4, 99360, Note_on_c, 4, 38, 95
4, 99840, Note_off_c, 4, 38, 95
4, 99840, Note_on_c, 4, 28, 95
4, 100320, Note_off_c, 4, 28, 95
4, 100320, Note_on_c, 4, 28, 95
4, 100800, Note_off_c, 4, 28, 95
4, 100800, Note_on_c, 4, 31, 95
4, 101280, Note_off_c, 4, 31, 95
4, 101280, Note_on_c, 4, 31, 95
4, 101760, Note_off_c, 4, 31, 95
4, 101760, Note_on_c, 4, 33, 95
4, 102240, Note_off_c, 4, 33, 95
4, 102240, Note_on_c, 4, 33, 95
4, 102720, Note_off_c, 4, 33, 95
4, 102720, Note_on_c, 4, 34, 95
4, 103200, Note_off_c, 4, 34, 95
4, 103200, Note_on_c, 4, 33, 95
4, 103680, Note_off_c, 4, 33, 95
4, 103680, Note_on_c, 4, 28, 95
4, 104160, Note_off_c, 4, 28, 95
4, 104160, Note_on_c, 4, 28, 95
4, 104640, Note_off_c, 4, 28, 95
4, 104640, Note_on_c, 4, 31, 95
4, 105120, Note_off_c, 4, 31, 95
4, 105120, Note_on_c, 4, 31, 95
4, 105600, Note_off_c, 4, 31, 95
4, 105600, Note_on_c, 4, 33, 95
4, 106080, Note_off_c, 4, 33, 95
4, 106080, Note_on_c, 4, 33, 95
4, 106560, Note_off_c, 4, 33, 95
4, 106560, Note_on_c, 4, 34, 95
4, 107040, Note_off_c, 4, 34, 95
4, 107040, Note_on_c, 4, 33, 95
4, 107520, Note_off_c, 4, 33, 95
4, 107520, Note_on_c, 4, 35, 95
4, 108000, Note_off_c, 4, 35, 95
4, 108000, Note_on_c, 4, 35, 95
4, 108480, Note_off_c, 4, 35, 95
4, 108480, Note_on_c, 4, 35, 95
4, 108960, Note_off_c, 4, 35, 95
4, 108960, Note_on_c, 4, 35, 95
4, 109440, Note_off_c, 4, 35, 95
4, 109440, Note_on_c, 4, 35, 95
4, 109920, Note_off_c, 4, 35, 95
4, 109920, Note_on_c, 4, 35, 95
4, 110400, Note_off_c, 4, 35, 95
4, 110400, Note_on_c, 4, 35, 95
4, 110880, Note_off_c, 4, 35, 95
4, 110880, Note_on_c, 4, 35, 95
4, 111360, Note_off_c, 4, 35, 95
4, 111360, Note_on_c, 4, 33, 95
4, 111840, Note_off_c, 4, 33, 95
4, 115200, Note_on_c, 4, 28, 95
4, 115680, Note_off_c, 4, 28, 95
4, 115680, Note_on_c, 4, 28, 95
4, 116160, Note_off_c, 4, 28, 95
4, 116160, Note_on_c, 4, 31, 95
4, 116640, Note_off_c, 4, 31, 95
4, 116640, Note_on_c, 4, 31, 95
4, 117120, Note_off_c, 4, 31, 95
4, 117120, Note_on_c, 4, 33, 95
4, 117600, Note_off_c, 4, 33, 95
4, 117600, Note_on_c, 4, 33, 95
4, 118080, Note_off_c, 4, 33, 95
4, 118080, Note_on_c, 4, 34, 95
4, 118560, Note_off_c, 4, 34, 95
4, 118560, Note_on_c, 4, 33, 95
4, 119040, Note_off_c, 4, 33, 95
4, 119040, Note_on_c, 4, 35, 95
4, 119520, Note_off_c, 4, 35, 95
4, 119520, Note_on_c, 4, 35, 95
4, 120000, Note_off_c, 4, 35, 95
4, 120000, Note_on_c, 4, 35, 95
4, 120480, Note_off_c, 4, 35, 95
4, 120480, Note_on_c, 4, 35, 95
4, 120960, Note_off_c, 4, 35, 95
4, 120960, Note_on_c, 4, 35, 95
4, 121440, Note_off_c, 4, 35, 95
4, 121440, Note_on_c, 4, 35, 95
4, 121920, Note_off_c, 4, 35, 95
4, 121920, Note_on_c, 4, 35, 95
4, 122400, Note_off_c, 4, 35, 95
4, 122400, Note_on_c, 4, 35, 95
4, 122880, Note_off_c, 4, 35, 95
4, 122880, Note_on_c, 4, 28, 95
4, 123360, Note_off_c, 4, 28, 95
4, 123360, Note_on_c, 4, 28, 95
4, 123840, Note_off_c, 4, 28, 95
4, 123840, Note_on_c, 4, 31, 95
4, 124320, Note_off_c, 4, 31, 95
4, 124320, Note_on_c, 4, 31, 95
4, 124800, Note_off_c, 4, 31, 95
4, 124800, Note_on_c, 4, 33, 95
4, 125280, Note_off_c, 4, 33, 95
4, 125280, Note_on_c, 4, 33, 95
4, 125760, Note_off_c, 4, 33, 95
4, 125760, Note_on_c, 4, 34, 95
4, 126240, Note_off_c, 4, 34, 95
4, 126240, Note_on_c, 4, 33, 95
4, 126720, Note_off_c, 4, 33, 95
4, 126720, Note_on_c, 4, 28, 95
4, 127200, Note_off_c, 4, 28, 95
4, 127200, Note_on_c, 4, 28, 95
4, 127680, Note_off_c, 4, 28, 95
4, 127680, Note_on_c, 4, 31, 95
4, 128160, Note_off_c, 4, 31, 95
4, 128160, Note_on_c, 4, 31, 95
4, 128640, Note_off_c, 4, 31, 95
4, 128640, Note_on_c, 4, 33, 95
4, 129120, Note_off_c, 4, 33, 95
4, 129120, Note_on_c, 4, 33, 95
4, 129600, Note_off_c, 4, 33, 95
4, 129600, Note_on_c, 4, 34, 95
4, 130080, Note_off_c, 4, 34, 95
4, 130080, Note_on_c, 4, 33, 95
4, 130560, Note_off_c, 4, 33, 95
4, 130560, Note_on_c, 4, 28, 95
4, 131040, Note_off_c, 4, 28, 95
4, 131040, Note_on_c, 4, 28, 95
4, 131520, Note_off_c, 4, 28, 95
4, 131520, Note_on_c, 4, 31, 95
4, 132000, Note_off_c, 4, 31, 95
4, 132000, Note_on_c, 4, 31, 95
4, 132480, Note_off_c, 4, 31, 95
4, 132480, Note_on_c, 4, 33, 95
4, 132960, Note_off_c, 4, 33, 95
4, 132960, Note_on_c, 4, 33, 95
4, 133440, Note_off_c, 4, 33, 95
4, 133440, Note_on_c, 4, 34, 95
4, 133920, Note_off_c, 4, 34, 95
4, 133920, Note_on_c, 4, 33, 95
4, 134400, Note_off_c, 4, 33, 95
4, 134400, Note_on_c, 4, 28, 95
4, 134880, Note_off_c, 4, 28, 95
4, 134880, Note_on_c, 4, 28, 95
4, 135360, Note_off_c, 4, 28, 95
4, 135360, Note_on_c, 4, 31, 95
4, 135840, Note_off_c, 4, 31, 95
4, 135840, Note_on_c, 4, 31, 95
4, 136320, Note_off_c, 4, 31, 95
4, 136320, Note_on_c, 4, 33, 95
4, 136800, Note_off_c, 4, 33, 95
4, 136800, Note_on_c, 4, 33, 95
4, 137280, Note_off_c, 4, 33, 95
4, 137280, Note_on_c, 4, 34, 95
4, 137760, Note_off_c, 4, 34, 95
4, 137760, Note_on_c, 4, 33, 95
4, 138240, Note_off_c, 4, 33, 95
4, 138240, Note_on_c, 4, 33, 95
4, 138720, Note_off_c, 4, 33, 95
4, 138720, Note_on_c, 4, 33, 95
4, 139200, Note_off_c, 4, 33, 95
4, 139200, Note_on_c, 4, 36, 95
4, 139680, Note_off_c, 4, 36, 95
4, 139680, Note_on_c, 4, 36, 95
4, 140160, Note_off_c, 4, 36, 95
4, 140160, Note_on_c, 4, 38, 95
4, 140640, Note_off_c, 4, 38, 95
4, 140640, Note_on_c, 4, 38, 95
4, 141120, Note_off_c, 4, 38, 95
4, 141120, Note_on_c, 4, 39, 95
4, 141600, Note_off_c, 4, 39, 95
4, 141600, Note_on_c, 4, 38, 95
4, 142080, Note_off_c, 4, 38, 95
4, 142080, Note_on_c, 4, 33, 95
4, 142560, Note_off_c, 4, 33, 95
4, 142560, Note_on_c, 4, 33, 95
4, 143040, Note_off_c, 4, 33, 95
4, 143040, Note_on_c, 4, 36, 95
4, 143520, Note_off_c, 4, 36, 95
4, 143520, Note_on_c, 4, 36, 95
4, 144000, Note_off_c, 4, 36, 95
4, 144000, Note_on_c, 4, 38, 95
4, 144480, Note_off_c, 4, 38, 95
4, 144480, Note_on_c, 4, 38, 95
4, 144960, Note_off_c, 4, 38, 95
4, 144960, Note_on_c, 4, 39, 95
4, 145440, Note_off_c, 4, 39, 95
4, 145440, Note_on_c, 4, 38, 95
4, 145920, Note_off_c, 4, 38, 95
4, 145920, Note_on_c, 4, 28, 95
4, 146400, Note_off_c, 4, 28, 95
4, 146400, Note_on_c, 4, 28, 95
4, 146880, Note_off_c, 4, 28, 95
4, 146880, Note_on_c, 4, 31, 95
4, 147360, Note_off_c, 4, 31, 95
4, 147360, Note_on_c, 4, 31, 95
4, 147840, Note_off_c, 4, 31, 95
4, 147840, Note_on_c, 4, 33, 95
4, 148320, Note_off_c, 4, 33, 95
4, 148320, Note_on_c, 4, 33, 95
4, 148800, Note_off_c, 4, 33, 95
4, 148800, Note_on_c, 4, 34, 95
4, 149280, Note_off_c, 4, 34, 95
4, 149280, Note_on_c, 4, 33, 95
4, 149760, Note_off_c, 4, 33, 95
4, 149760, Note_on_c, 4, 28, 95
4, 150240, Note_off_c, 4, 28, 95
4, 150240, Note_on_c, 4, 28, 95
4, 150720, Note_off_c, 4, 28, 95
4, 150720, Note_on_c, 4, 31, 95
4, 151200, Note_off_c, 4, 31, 95
4, 151200, Note_on_c, 4, 31, 95
4, 151680, Note_off_c, 4, 31, 95
4, 151680, Note_on_c, 4, 33, 95
4, 152160, Note_off_c, 4, 33, 95
4, 152160, Note_on_c, 4, 33, 95
4, 152640, Note_off_c, 4, 33, 95
4, 152640, Note_on_c, 4, 34, 95
4, 153120, Note_off_c, 4, 34, 95
4, 153120, Note_on_c, 4, 33, 95
4, 153600, Note_off_c, 4, 33, 95
4, 153600, Note_on_c, 4, 35, 95
4, 154080, Note_off_c, 4, 35, 95
4, 154080, Note_on_c, 4, 35, 95
4, 154560, Note_off_c, 4, 35, 95
4, 154560, Note_on_c, 4, 35, 95
4, 155040, Note_off_c, 4, 35, 95
4, 155040, Note_on_c, 4, 35, 95
4, 155520, Note_off_c, 4, 35, 95
4, 155520, Note_on_c, 4, 35, 95
4, 156000, Note_off_c, 4, 35, 95
4, 156000, Note_on_c, 4, 35, 95
4, 156480, Note_off_c, 4, 35, 95
4, 156480, Note_on_c, 4, 35, 95
4, 156960, Note_off_c, 4, 35, 95
4, 156960, Note_on_c, 4, 35, 95
4, 157440, Note_off_c, 4, 35, 95
4, 157440, Note_on_c, 4, 33, 95
4, 157920, Note_off_c, 4, 33, 95
4, 161280, Note_on_c, 4, 28, 95
4, 161760, Note_off_c, 4, 28, 95
4, 161760, Note_on_c, 4, 28, 95
4, 162240, Note_off_c, 4, 28, 95
4, 162240, Note_on_c, 4, 31, 95
4, 162720, Note_off_c, 4, 31, 95
4, 162720, Note_on_c, 4, 31, 95
4, 163200, Note_off_c, 4, 31, 95
4, 163200, Note_on_c, 4, 33, 95
4, 163680, Note_off_c, 4, 33, 95
4, 163680, Note_on_c, 4, 33, 95
4, 164160, Note_off_c, 4, 33, 95
4, 164160, Note_on_c, 4, 34, 95
4, 164640, Note_off_c, 4, 34, 95
4, 164640, Note_on_c, 4, 33, 95
4, 165120, Note_off_c, 4, 33, 95
4, 165120, Note_on_c, 4, 35, 95
4, 165600, Note_off_c, 4, 35, 95
4, 165600, Note_on_c, 4, 35, 95
4, 166080, Note_off_c, 4, 35, 95
4, 166080, Note_on_c, 4, 35, 95
4, 166560, Note_off_c, 4, 35, 95
4, 166560, Note_on_c, 4, 35, 95
4, 167040, Note_off_c, 4, 35, 95
4, 167040, Note_on_c, 4, 35, 95
4, 167520, Note_off_c, 4, 35, 95
4, 167520, Note_on_c, 4, 35, 95
4, 168000, Note_off_c, 4, 35, 95
4, 168000, Note_on_c, 4, 35, 95
4, 168480, Note_off_c, 4, 35, 95
4, 168480, Note_on_c, 4, 35, 95
4, 168960, Note_off_c, 4, 35, 95
4, 168960, Note_on_c, 4, 28, 95
4, 169440, Note_off_c, 4, 28, 95
4, 169440, Note_on_c, 4, 28, 95
4, 169920, Note_off_c, 4, 28, 95
4, 169920, Note_on_c, 4, 31, 95
4, 170400, Note_off_c, 4, 31, 95
4, 170400, Note_on_c, 4, 31, 95
4, 170880, Note_off_c, 4, 31, 95
4, 170880, Note_on_c, 4, 33, 95
4, 171360, Note_off_c, 4, 33, 95
4, 171360, Note_on_c, 4, 33, 95
4, 171840, Note_off_c, 4, 33, 95
4, 171840, Note_on_c, 4, 34, 95
4, 172320, Note_off_c, 4, 34, 95
4, 172320, Note_on_c, 4, 33, 95
4, 172800, Note_off_c, 4, 33, 95
4, 172800, Note_on_c, 4, 28, 95
4, 173280, Note_off_c, 4, 28, 95
4, 173280, Note_on_c, 4, 28, 95
4, 173760, Note_off_c, 4, 28, 95
4, 173760, Note_on_c, 4, 31, 95
4, 174240, Note_off_c, 4, 31, 95
4, 174240, Note_on_c, 4, 31, 95
4, 174720, Note_off_c, 4, 31, 95
4, 174720, Note_on_c, 4, 33, 95
4, 175200, Note_off_c, 4, 33, 95
4, 175200, Note_on_c, 4, 33, 95
4, 175680, Note_off_c, 4, 33, 95
4, 175680, Note_on_c, 4, 34, 95
4, 176160, Note_off_c, 4, 34, 95
4, 176160, Note_on_c, 4, 33, 95
4, 176640, Note_off_c, 4, 33, 95
4, 176640, Note_on_c, 4, 28, 95
4, 177120, Note_off_c, 4, 28, 95
4, 177120, Note_on_c, 4, 28, 95
4, 177600, Note_off_c, 4, 28, 95
4, 177600, Note_on_c, 4, 31, 95
4, 178080, Note_off_c, 4, 31, 95
4, 178080, Note_on_c, 4, 31, 95
4, 178560, Note_off_c, 4, 31, 95
4, 178560, Note_on_c, 4, 33, 95
4, 179040, Note_off_c, 4, 33, 95
4, 179040, Note_on_c, 4, 33, 95
4, 179520, Note_off_c, 4, 33, 95
4, 179520, Note_on_c, 4, 34, 95
4, 180000, Note_off_c, 4, 34, 95
4, 180000, Note_on_c, 4, 33, 95
4, 180480, Note_off_c, 4, 33, 95
4, 180480, Note_on_c, 4, 28, 95
4, 180960, Note_off_c, 4, 28, 95
4, 180960, Note_on_c, 4, 28, 95
4, 181440, Note_off_c, 4, 28, 95
4, 181440, Note_on_c, 4, 31, 95
4, 181920, Note_off_c, 4, 31, 95
4, 181920, Note_on_c, 4, 31, 95
4, 182400, Note_off_c, 4, 31, 95
4, 182400, Note_on_c, 4, 33, 95
4, 182880, Note_off_c, 4, 33, 95
4, 182880, Note_on_c, 4, 33, 95
4, 183360, Note_off_c, 4, 33, 95
4, 183360, Note_on_c, 4, 34, 95
4, 183840, Note_off_c, 4, 34, 95
4, 183840, Note_on_c, 4, 33, 95
4, 184320, Note_off_c, 4, 33, 95
4, 184320, Note_on_c, 4, 33, 95
4, 184800, Note_off_c, 4, 33, 95
4, 184800, Note_on_c, 4, 33, 95
4, 185280, Note_off_c, 4, 33, 95
4, 185280, Note_on_c, 4, 36, 95
4, 185760, Note_off_c, 4, 36, 95
4, 185760, Note_on_c, 4, 36, 95
4, 186240, Note_off_c, 4, 36, 95
4, 186240, Note_on_c, 4, 38, 95
4, 186720, Note_off_c, 4, 38, 95
4, 186720, Note_on_c, 4, 38, 95
4, 187200, Note_off_c, 4, 38, 95
4, 187200, Note_on_c, 4, 39, 95
4, 187680, Note_off_c, 4, 39, 95
4, 187680, Note_on_c, 4, 38, 95
4, 188160, Note_off_c, 4, 38, 95
4, 188160, Note_on_c, 4, 33, 95
4, 188640, Note_off_c, 4, 33, 95
4, 188640, Note_on_c, 4, 33, 95
4, 189120, Note_off_c, 4, 33, 95
4, 189120, Note_on_c, 4, 36, 95
4, 189600, Note_off_c, 4, 36, 95
4, 189600, Note_on_c, 4, 36, 95
4, 190080, Note_off_c, 4, 36, 95
4, 190080, Note_on_c, 4, 38, 95
4, 190560, Note_off_c, 4, 38, 95
4, 190560, Note_on_c, 4, 38, 95
4, 191040, Note_off_c, 4, 38, 95
4, 191040, Note_on_c, 4, 39, 95
4, 191520, Note_off_c, 4, 39, 95
4, 191520, Note_on_c, 4, 38, 95
4, 192000, Note_off_c, 4, 38, 95
4, 192000, Note_on_c, 4, 28, 95
4, 192480, Note_off_c, 4, 28, 95
4, 192480, Note_on_c, 4, 28, 95
4, 192960, Note_off_c, 4, 28, 95
4, 192960, Note_on_c, 4, 31, 95
4, 193440, Note_off_c, 4, 31, 95
4, 193440, Note_on_c, 4, 31, 95
4, 193920, Note_off_c, 4, 31, 95
4, 193920, Note_on_c, 4, 33, 95
4, 194400, Note_off_c, 4, 33, 95
4, 194400, Note_on_c, 4, 33, 95
4, 194880, Note_off_c, 4, 33, 95
4, 194880, Note_on_c, 4, 34, 95
4, 195360, Note_off_c, 4, 34, 95
4, 195360, Note_on_c, 4, 33, 95
4, 195840, Note_off_c, 4, 33, 95
4, 195840, Note_on_c, 4, 28, 95
4, 196320, Note_off_c, 4, 28, 95
4, 196320, Note_on_c, 4, 28, 95
4, 196800, Note_off_c, 4, 28, 95
4, 196800, Note_on_c, 4, 31, 95
4, 197280, Note_off_c, 4, 31, 95
4, 197280, Note_on_c, 4, 31, 95
4, 197760, Note_off_c, 4, 31, 95
4, 197760, Note_on_c, 4, 33, 95
4, 198240, Note_off_c, 4, 33, 95
4, 198240, Note_on_c, 4, 33, 95
4, 198720, Note_off_c, 4, 33, 95
4, 198720, Note_on_c, 4, 34, 95
4, 199200, Note_off_c, 4, 34, 95
4, 199200, Note_on_c, 4, 33, 95
4, 199680, Note_off_c, 4, 33, 95
4, 199680, Note_on_c, 4, 35, 95
4, 200160, Note_off_c, 4, 35, 95
4, 200160, Note_on_c, 4, 35, 95
4, 200640, Note_off_c, 4, 35, 95
4, 200640, Note_on_c, 4, 35, 95
4, 201120, Note_off_c, 4, 35, 95
4, 201120, Note_on_c, 4, 35, 95
4, 201600, Note_off_c, 4, 35, 95
4, 201600, Note_on_c, 4, 35, 95
4, 202080, Note_off_c, 4, 35, 95
4, 202080, Note_on_c, 4, 35, 95
4, 202560, Note_off_c, 4, 35, 95
4, 202560, Note_on_c, 4, 35, 95
4, 203040, Note_off_c, 4, 35, 95
4, 203040, Note_on_c, 4, 35, 95
4, 203520, Note_off_c, 4, 35, 95
4, 203520, Note_on_c, 4, 33, 95
4, 204000, Note_off_c, 4, 33, 95
4, 207360, Note_on_c, 4, 28, 95
4, 207840, Note_off_c, 4, 28, 95
4, 207840, Note_on_c, 4, 28, 95
4, 208320, Note_off_c, 4, 28, 95
4, 208320, Note_on_c, 4, 31, 95
4, 208800, Note_off_c, 4, 31, 95
4, 208800, Note_on_c, 4, 31, 95
4, 209280, Note_off_c, 4, 31, 95
4, 209280, Note_on_c, 4, 33, 95
4, 209760, Note_off_c, 4, 33, 95
4, 209760, Note_on_c, 4, 33, 95
4, 210240, Note_off_c, 4, 33, 95
4, 210240, Note_on_c, 4, 34, 95
4, 210720, Note_off_c, 4, 34, 95
4, 210720, Note_on_c, 4, 33, 95
4, 211200, Note_off_c, 4, 33, 95
4, 211200, Note_on_c, 4, 35, 95
4, 211680, Note_off_c, 4, 35, 95
4, 211680, Note_on_c, 4, 35, 95
4, 212160, Note_off_c, 4, 35, 95
4, 212160, Note_on_c, 4, 35, 95
4, 212640, Note_off_c, 4, 35, 95
4, 212640, Note_on_c, 4, 35, 95
4, 213120, Note_off_c, 4, 35, 95
4, 213120, Note_on_c, 4, 35, 95
4, 213600, Note_off_c, 4, 35, 95
4, 213600, Note_on_c, 4, 35, 95
4, 214080, Note_off_c, 4, 35, 95
4, 214080, Note_on_c, 4, 35, 95
4, 214560, Note_off_c, 4, 35, 95
4, 214560, Note_on_c, 4, 35, 95
4, 215040, Note_off_c, 4, 35, 95
4, 215040, Note_on_c, 4, 28, 95
4, 215520, Note_off_c, 4, 28, 95
4, 215520, Note_on_c, 4, 28, 95
4, 216000, Note_off_c, 4, 28, 95
4, 216000, Note_on_c, 4, 31, 95
4, 216480, Note_off_c, 4, 31, 95
4, 216480, Note_on_c, 4, 31, 95
4, 216960, Note_off_c, 4, 31, 95
4, 216960, Note_on_c, 4, 33, 95
4, 217440, Note_off_c, 4, 33, 95
4, 217440, Note_on_c, 4, 33, 95
4, 217920, Note_off_c, 4, 33, 95
4, 217920, Note_on_c, 4, 34, 95
4, 218400, Note_off_c, 4, 34, 95
4, 218400, Note_on_c, 4, 33, 95
4, 218880, Note_off_c, 4, 33, 95
4, 218880, Note_on_c, 4, 28, 95
4, 219360, Note_off_c, 4, 28, 95
4, 219360, Note_on_c, 4, 28, 95
4, 219840, Note_off_c, 4, 28, 95
4, 219840, Note_on_c, 4, 31, 95
4, 220320, Note_off_c, 4, 31, 95
4, 220320, Note_on_c, 4, 31, 95
4, 220800, Note_off_c, 4, 31, 95
4, 220800, Note_on_c, 4, 33, 95
4, 221280, Note_off_c, 4, 33, 95
4, 221280, Note_on_c, 4, 33, 95
4, 221760, Note_off_c, 4, 33, 95
4, 221760, Note_on_c, 4, 34, 95
4, 222240, Note_off_c, 4, 34, 95
4, 222240, Note_on_c, 4, 33, 95
4, 222720, Note_off_c, 4, 33, 95
4, 222720, Note_on_c, 4, 28, 95
4, 223200, Note_off_c, 4, 28, 95
4, 223200, Note_on_c, 4, 28, 95
4, 223680, Note_off_c, 4, 28, 95
4, 223680, Note_on_c, 4, 31, 95
4, 224160, Note_off_c, 4, 31, 95
4, 224160, Note_on_c, 4, 31, 95
4, 224640, Note_off_c, 4, 31, 95
4, 224640, Note_on_c, 4, 33, 95
4, 225120, Note_off_c, 4, 33, 95
4, 225120, Note_on_c, 4, 33, 95
4, 225600, Note_off_c, 4, 33, 95
4, 225600, Note_on_c, 4, 34, 95
4, 226080, Note_off_c, 4, 34, 95
4, 226080, Note_on_c, 4, 33, 95
4, 226560, Note_off_c, 4, 33, 95
4, 226560, Note_on_c, 4, 28, 95
4, 227040, Note_off_c, 4, 28, 95
4, 227040, Note_on_c, 4, 28, 95
4, 227520, Note_off_c, 4, 28, 95
4, 227520, Note_on_c, 4, 31, 95
4, 228000, Note_off_c, 4, 31, 95
4, 228000, Note_on_c, 4, 31, 95
4, 228480, Note_off_c, 4, 31, 95
4, 228480, Note_on_c, 4, 33, 95
4, 228960, Note_off_c, 4, 33, 95
4, 228960, Note_on_c, 4, 33, 95
4, 229440, Note_off_c, 4, 33, 95
4, 229440, Note_on_c, 4, 34, 95
4, 229920, Note_off_c, 4, 34, 95
4, 229920, Note_on_c, 4, 33, 95
4, 230400, Note_off_c, 4, 33, 95
4, 230400, Note_on_c, 4, 33, 95
4, 230880, Note_off_c, 4, 33, 95
4, 230880, Note_on_c, 4, 33, 95
4, 231360, Note_off_c, 4, 33, 95
4, 231360, Note_on_c, 4, 36, 95
4, 231840, Note_off_c, 4, 36, 95
4, 231840, Note_on_c, 4, 36, 95
4, 232320, Note_off_c, 4, 36, 95
4, 232320, Note_on_c, 4, 38, 95
4, 232800, Note_off_c, 4, 38, 95
4, 232800, Note_on_c, 4, 38, 95
4, 233280, Note_off_c, 4, 38, 95
4, 233280, Note_on_c, 4, 39, 95
4, 233760, Note_off_c, 4, 39, 95
4, 233760, Note_on_c, 4, 38, 95
4, 234240, Note_off_c, 4, 38, 95
4, 234240, Note_on_c, 4, 33, 95
4, 234720, Note_off_c, 4, 33, 95
4, 234720, Note_on_c, 4, 33, 95
4, 235200, Note_off_c, 4, 33, 95
4, 235200, Note_on_c, 4, 36, 95
4, 235680, Note_off_c, 4, 36, 95
4, 235680, Note_on_c, 4, 36, 95
4, 236160, Note_off_c, 4, 36, 95
4, 236160, Note_on_c, 4, 38, 95
4, 236640, Note_off_c, 4, 38, 95
4, 236640, Note_on_c, 4, 38, 95
4, 237120, Note_off_c, 4, 38, 95
4, 237120, Note_on_c, 4, 39, 95
4, 237600, Note_off_c, 4, 39, 95
4, 237600, Note_on_c, 4, 38, 95
4, 238080, Note_off_c, 4, 38, 95
4, 238080, Note_on_c, 4, 28, 95
4, 238560, Note_off_c, 4, 28, 95
4, 238560, Note_on_c, 4, 28, 95
4, 239040, Note_off_c, 4, 28, 95
4, 239040, Note_on_c, 4, 31, 95
4, 239520, Note_off_c, 4, 31, 95
4, 239520, Note_on_c, 4, 31, 95
4, 240000, Note_off_c, 4, 31, 95
4, 240000, Note_on_c, 4, 33, 95
4, 240480, Note_off_c, 4, 33, 95
4, 240480, Note_on_c, 4, 33, 95
4, 240960, Note_off_c, 4, 33, 95
4, 240960, Note_on_c, 4, 34, 95
4, 241440, Note_off_c, 4, 34, 95
4, 241440, Note_on_c, 4, 33, 95
4, 241920, Note_off_c, 4, 33, 95
4, 241920, Note_on_c, 4, 28, 95
4, 242400, Note_off_c, 4, 28, 95
4, 242400, Note_on_c, 4, 28, 95
4, 242880, Note_off_c, 4, 28, 95
4, 242880, Note_on_c, 4, 31, 95
4, 243360, Note_off_c, 4, 31, 95
4, 243360, Note_on_c, 4, 31, 95
4, 243840, Note_off_c, 4, 31, 95
4, 243840, Note_on_c, 4, 33, 95
4, 244320, Note_off_c, 4, 33, 95
4, 244320, Note_on_c, 4, 33, 95
4, 244800, Note_off_c, 4, 33, 95
4, 244800, Note_on_c, 4, 34, 95
4, 245280, Note_off_c, 4, 34, 95
4, 245280, Note_on_c, 4, 33, 95
4, 245760, Note_off_c, 4, 33, 95
4, 245760, Note_on_c, 4, 35, 95
4, 246240, Note_off_c, 4, 35, 95
4, 246240, Note_on_c, 4, 35, 95
4, 246720, Note_off_c, 4, 35, 95
4, 246720, Note_on_c, 4, 35, 95
4, 247200, Note_off_c, 4, 35, 95
4, 247200, Note_on_c, 4, 35, 95
4, 247680, Note_off_c, 4, 35, 95
4, 247680, Note_on_c, 4, 35, 95
4, 248160, Note_off_c, 4, 35, 95
4, 248160, Note_on_c, 4, 35, 95
4, 248640, Note_off_c, 4, 35, 95
4, 248640, Note_on_c, 4, 35, 95
4, 249120, Note_off_c, 4, 35, 95
4, 249120, Note_on_c, 4, 35, 95
4, 249600, Note_off_c, 4, 35, 95
4, 249600, Note_on_c, 4, 33, 95
4, 250080, Note_off_c, 4, 33, 95
4, 253440, Note_on_c, 4, 28, 95
4, 253920, Note_off_c, 4, 28, 95
4, 253920, Note_on_c, 4, 28, 95
4, 254400, Note_off_c, 4, 28, 95
4, 254400, Note_on_c, 4, 31, 95
4, 254880, Note_off_c, 4, 31, 95
4, 254880, Note_on_c, 4, 31, 95
4, 255360, Note_off_c, 4, 31, 95
4, 255360, Note_on_c, 4, 33, 95
4, 255840, Note_off_c, 4, 33, 95
4, 255840, Note_on_c, 4, 33, 95
4, 256320, Note_off_c, 4, 33, 95
4, 256320, Note_on_c, 4, 34, 95
4, 256800, Note_off_c, 4, 34, 95
4, 256800, Note_on_c, 4, 33, 95
4, 257280, Note_off_c, 4, 33, 95
4, 257280, Note_on_c, 4, 35, 95
4, 257760, Note_off_c, 4, 35, 95
4, 257760, Note_on_c, 4, 35, 95
4, 258240, Note_off_c, 4, 35, 95
4, 258240, Note_on_c, 4, 35, 95
4, 258720, Note_off_c, 4, 35, 95
4, 258720, Note_on_c, 4, 35, 95
4, 259200, Note_off_c, 4, 35, 95
4, 259200, Note_on_c, 4, 35, 95
4, 259680, Note_off_c, 4, 35, 95
4, 259680, Note_on_c, 4, 35, 95
4, 260160, Note_off_c, 4, 35, 95
4, 260160, Note_on_c, 4, 35, 95
4, 260640, Note_off_c, 4, 35, 95
4, 260640, Note_on_c, 4, 35, 95
4, 261120, Note_off_c, 4, 35, 95
4, 261120, Note_on_c, 4, 28, 95
4, 261600, Note_off_c, 4, 28, 95
4, 261600, Note_on_c, 4, 28, 95
4, 262080, Note_off_c, 4, 28, 95
4, 262080, Note_on_c, 4, 31, 95
4, 262560, Note_off_c, 4, 31, 95
4, 262560, Note_on_c, 4, 31, 95
4, 263040, Note_off_c, 4, 31, 95
4, 263040, Note_on_c, 4, 33, 95
4, 263520, Note_off_c, 4, 33, 95
4, 263520, Note_on_c, 4, 33, 95
4, 264000, Note_off_c, 4, 33, 95
4, 264000, Note_on_c, 4, 34, 95
4, 264480, Note_off_c, 4, 34, 95
4, 264480, Note_on_c, 4, 33, 95
4, 264960, Note_off_c, 4, 33, 95
4, 264960, Note_on_c, 4, 33, 95
4, 265440, Note_off_c, 4, 33, 95
4, 265440, Note_on_c, 4, 33, 95
4, 265920, Note_off_c, 4, 33, 95
4, 265920, Note_on_c, 4, 36, 95
4, 266400, Note_off_c, 4, 36, 95
4, 266400, Note_on_c, 4, 36, 95
4, 266880, Note_off_c, 4, 36, 95
4, 266880, Note_on_c, 4, 38, 95
4, 267360, Note_off_c, 4, 38, 95
4, 267360, Note_on_c, 4, 38, 95
4, 267840, Note_off_c, 4, 38, 95
4, 267840, Note_on_c, 4, 39, 95
4, 268320, Note_off_c, 4, 39, 95
4, 268320, Note_on_c, 4, 38, 95
4, 268800, Note_off_c, 4, 38, 95
4, 268800, Note_on_c, 4, 28, 95
4, 269280, Note_off_c, 4, 28, 95
4, 269280, Note_on_c, 4, 28, 95
4, 269760, Note_off_c, 4, 28, 95
4, 269760, Note_on_c, 4, 31, 95
4, 270240, Note_off_c, 4, 31, 95
4, 270240, Note_on_c, 4, 31, 95
4, 270720, Note_off_c, 4, 31, 95
4, 270720, Note_on_c, 4, 33, 95
4, 271200, Note_off_c, 4, 33, 95
4, 271200, Note_on_c, 4, 33, 95
4, 271680, Note_off_c, 4, 33, 95
4, 271680, Note_on_c, 4, 34, 95
4, 272160, Note_off_c, 4, 34, 95
4, 272160, Note_on_c, 4, 33, 95
4, 272640, Note_off_c, 4, 33, 95
4, 272640, Note_on_c, 4, 33, 95
4, 273120, Note_off_c, 4, 33, 95
4, 273120, Note_on_c, 4, 33, 95
4, 273600, Note_off_c, 4, 33, 95
4, 273600, Note_on_c, 4, 36, 95
4, 274080, Note_off_c, 4, 36, 95
4, 274080, Note_on_c, 4, 36, 95
4, 274560, Note_off_c, 4, 36, 95
4, 274560, Note_on_c, 4, 38, 95
4, 275040, Note_off_c, 4, 38, 95
4, 275040, Note_on_c, 4, 38, 95
4, 275520, Note_off_c, 4, 38, 95
4, 275520, Note_on_c, 4, 39, 95
4, 276000, Note_off_c, 4, 39, 95
4, 276000, Note_on_c, 4, 38, 95
4, 276480, Note_off_c, 4, 38, 95
4, 276480, Note_on_c, 4, 28, 95
4, 276960, Note_off_c, 4, 28, 95
4, 276960, Note_on_c, 4, 28, 95
4, 277440, Note_off_c, 4, 28, 95
4, 277440, Note_on_c, 4, 31, 95
4, 277920, Note_off_c, 4, 31, 95
4, 277920, Note_on_c, 4, 31, 95
4, 278400, Note_off_c, 4, 31, 95
4, 278400, Note_on_c, 4, 33, 95
4, 278880, Note_off_c, 4, 33, 95
4, 278880, Note_on_c, 4, 33, 95
4, 279360, Note_off_c, 4, 33, 95
4, 279360, Note_on_c, 4, 34, 95
4, 279840, Note_off_c, 4, 34, 95
4, 279840, Note_on_c, 4, 33, 95
4, 280320, Note_off_c, 4, 33, 95
4, 280320, Note_on_c, 4, 33, 95
4, 280800, Note_off_c, 4, 33, 95
4, 280800, Note_on_c, 4, 33, 95
4, 281280, Note_off_c, 4, 33, 95
4, 281280, Note_on_c, 4, 36, 95
4, 281760, Note_off_c, 4, 36, 95
4, 281760, Note_on_c, 4, 36, 95
4, 282240, Note_off_c, 4, 36, 95
4, 282240, Note_on_c, 4, 38, 95
4, 282720, Note_off_c, 4, 38, 95
4, 282720, Note_on_c, 4, 38, 95
4, 283200, Note_off_c, 4, 38, 95
4, 283200, Note_on_c, 4, 39, 95
4, 283680, Note_off_c, 4, 39, 95
4, 283680, Note_on_c, 4, 38, 95
4, 284160, Note_off_c, 4, 38, 95
4, 284160, Note_on_c, 4, 28, 95
4, 284640, Note_off_c, 4, 28, 95
4, 284640, Note_on_c, 4, 28, 95
4, 285120, Note_off_c, 4, 28, 95
4, 285120, Note_on_c, 4, 31, 95
4, 285600, Note_off_c, 4, 31, 95
4, 285600, Note_on_c, 4, 31, 95
4, 286080, Note_off_c, 4, 31, 95
4, 286080, Note_on_c, 4, 33, 95
4, 286560, Note_off_c, 4, 33, 95
4, 286560, Note_on_c, 4, 33, 95
4, 287040, Note_off_c, 4, 33, 95
4, 287040, Note_on_c, 4, 34, 95
4, 287520, Note_off_c, 4, 34, 95
4, 287520, Note_on_c, 4, 33, 95
4, 288000, Note_off_c, 4, 33, 95
4, 288000, Note_on_c, 4, 28, 95
4, 288480, Note_off_c, 4, 28, 95
4, 288480, Note_on_c, 4, 28, 95
4, 288960, Note_off_c, 4, 28, 95
4, 288960, Note_on_c, 4, 31, 95
4, 289440, Note_off_c, 4, 31, 95
4, 289440, Note_on_c, 4, 31, 95
4, 289920, Note_off_c, 4, 31, 95
4, 289920, Note_on_c, 4, 33, 95
4, 290400, Note_off_c, 4, 33, 95
4, 290400, Note_on_c, 4, 33, 95
4, 290880, Note_off_c, 4, 33, 95
4, 290880, Note_on_c, 4, 34, 95
4, 291360, Note_off_c, 4, 34, 95
4, 291360, Note_on_c, 4, 33, 95
4, 291840, Note_off_c, 4, 33, 95
4, 291840, Note_on_c, 4, 28, 95
4, 292320, Note_off_c, 4, 28, 95
4, 292320, Note_on_c, 4, 28, 95
4, 292800, Note_off_c, 4, 28, 95
4, 292800, Note_on_c, 4, 31, 95
4, 293280, Note_off_c, 4, 31, 95
4, 293280, Note_on_c, 4, 31, 95
4, 293760, Note_off_c, 4, 31, 95
4, 293760, Note_on_c, 4, 33, 95
4, 294240, Note_off_c, 4, 33, 95
4, 294240, Note_on_c, 4, 33, 95
4, 294720, Note_off_c, 4, 33, 95
4, 294720, Note_on_c, 4, 34, 95
4, 295200, Note_off_c, 4, 34, 95
4, 295200, Note_on_c, 4, 33, 95
4, 295680, Note_off_c, 4, 33, 95
4, 295680, Note_on_c, 4, 28, 95
4, 296160, Note_off_c, 4, 28, 95
4, 296160, Note_on_c, 4, 28, 95
4, 296640, Note_off_c, 4, 28, 95
4, 296640, Note_on_c, 4, 28, 95
4, 299520, Note_off_c, 4, 28, 95
4, 299520, End_track
5, 0, Start_track
5, 0, Pitch_bend_c, 9, 8192
5, 0, Control_c, 9, 7, 103
5, 0, Control_c, 9, 10, 63
5, 0, Control_c, 9, 93, 0
5, 0, Control_c, 9, 91, 0
5, 0, Control_c, 9, 95, 0
5, 0, Control_c, 9, 92, 0
5, 0, Control_c, 9, 11, 127
5, 0, Program_c, 9, 0
5, 15360, Note_on_c, 9, 49, 95
5, 15360, Note_on_c, 9, 36, 95
5, 15840, Note_off_c, 9, 49, 95
5, 15840, Note_off_c, 9, 36, 95
5, 19200, Note_on_c, 9, 49, 95
5, 19200, Note_on_c, 9, 36, 95
5, 19680, Note_off_c, 9, 49, 95
5, 19680, Note_off_c, 9, 36, 95
5, 19680, Note_on_c, 9, 49, 95
5, 19680, Note_on_c, 9, 36, 95
5, 20160, Note_off_c, 9, 49, 95
5, 20160, Note_off_c, 9, 36, 95
5, 23040, Note_on_c, 9, 49, 95
5, 23040, Note_on_c, 9, 36, 95
5, 23520, Note_off_c, 9, 49, 95
5, 23520, Note_off_c, 9, 36, 95
5, 26880, Note_on_c, 9, 49, 95
5, 26880, Note_on_c, 9, 36, 95
5, 27360, Note_off_c, 9, 49, 95
5, 27360, Note_off_c, 9, 36, 95
5, 27360, Note_on_c, 9, 49, 95
5, 27360, Note_on_c, 9, 36, 95
5, 27840, Note_off_c, 9, 49, 95
5, 27840, Note_off_c, 9, 36, 95
5, 29280, Note_on_c, 9, 40, 95
5, 29760, Note_off_c, 9, 40, 95
5, 29760, Note_on_c, 9, 40, 95
5, 30240, Note_off_c, 9, 40, 95
5, 30240, Note_on_c, 9, 40, 95
5, 30720, Note_off_c, 9, 40, 95
5, 30720, Note_on_c, 9, 49, 95
5, 30720, Note_on_c, 9, 36, 95
5, 31200, Note_off_c, 9, 49, 95
5, 31200, Note_off_c, 9, 36, 95
5, 31200, Note_on_c, 9, 42, 95
5, 31680, Note_off_c, 9, 42, 95
5, 31680, Note_on_c, 9, 42, 95
5, 31680, Note_on_c, 9, 40, 95
5, 32160, Note_off_c, 9, 42, 95
5, 32160, Note_off_c, 9, 40, 95
5, 32160, Note_on_c, 9, 42, 95
5, 32160, Note_on_c, 9, 40, 95
5, 32640, Note_off_c, 9, 42, 95
5, 32640, Note_off_c, 9, 40, 95
5, 32640, Note_on_c, 9, 42, 95
5, 32640, Note_on_c, 9, 36, 95
5, 33120, Note_off_c, 9, 42, 95
5, 33120, Note_off_c, 9, 36, 95
5, 33120, Note_on_c, 9, 42, 95
5, 33600, Note_off_c, 9, 42, 95
5, 33600, Note_on_c, 9, 42, 95
5, 33600, Note_on_c, 9, 40, 95
5, 34080, Note_off_c, 9, 42, 95
5, 34080, Note_off_c, 9, 40, 95
5, 34080, Note_on_c, 9, 46, 95
5, 34560, Note_off_c, 9, 46, 95
5, 34560, Note_on_c, 9, 42, 95
5, 34560, Note_on_c, 9, 36, 95
5, 35040, Note_off_c, 9, 42, 95
5, 35040, Note_off_c, 9, 36, 95
5, 35040, Note_on_c, 9, 42, 95
5, 35520, Note_off_c, 9, 42, 95
5, 35520, Note_on_c, 9, 42, 95
5, 35520, Note_on_c, 9, 40, 95
5, 36000, Note_off_c, 9, 42, 95
5, 36000, Note_off_c, 9, 40, 95
5, 36000, Note_on_c, 9, 42, 95
5, 36000, Note_on_c, 9, 40, 95
5, 36480, Note_off_c, 9, 42, 95
5, 36480, Note_off_c, 9, 40, 95
5, 36480, Note_on_c, 9, 42, 95
5, 36480, Note_on_c, 9, 36, 95
5, 36960, Note_off_c, 9, 42, 95
5, 36960, Note_off_c, 9, 36, 95
5, 36960, Note_on_c, 9, 42, 95
5, 37440, Note_off_c, 9, 42, 95
5, 37440, Note_on_c, 9, 42, 95
5, 37440, Note_on_c, 9, 40, 95
5, 37920, Note_off_c, 9, 42, 95
5, 37920, Note_off_c, 9, 40, 95
5, 37920, Note_on_c, 9, 46, 95
5, 38400, Note_off_c, 9, 46, 95
5, 38400, Note_on_c, 9, 42, 95
5, 38400, Note_on_c, 9, 36, 95
5, 38880, Note_off_c, 9, 42, 95
5, 38880, Note_off_c, 9, 36, 95
5, 38880, Note_on_c, 9, 42, 95
5, 39360, Note_off_c, 9, 42, 95
5, 39360, Note_on_c, 9, 42, 95
5, 39360, Note_on_c, 9, 40, 95
5, 39840, Note_off_c, 9, 42, 95
5, 39840, Note_off_c, 9, 40, 95
5, 39840, Note_on_c, 9, 42, 95
5, 39840, Note_on_c, 9, 40, 95
5, 40320, Note_off_c, 9, 42, 95
5, 40320, Note_off_c, 9, 40, 95
5, 40320, Note_on_c, 9, 42, 95
5, 40320, Note_on_c, 9, 36, 95
5, 40800, Note_off_c, 9, 42, 95
5, 40800, Note_off_c, 9, 36, 95
5, 40800, Note_on_c, 9, 42, 95
5, 41280, Note_off_c, 9, 42, 95
5, 41280, Note_on_c, 9, 42, 95
5, 41280, Note_on_c, 9, 40, 95
5, 41760, Note_off_c, 9, 42, 95
5, 41760, Note_off_c, 9, 40, 95
5, 41760, Note_on_c, 9, 46, 95
5, 42240, Note_off_c, 9, 46, 95
5, 42240, Note_on_c, 9, 42, 95
5, 42240, Note_on_c, 9, 36, 95
5, 42720, Note_off_c, 9, 42, 95
5, 42720, Note_off_c, 9, 36, 95
5, 42720, Note_on_c, 9, 42, 95
5, 43200, Note_off_c, 9, 42, 95
5, 43200, Note_on_c, 9, 42, 95
5, 43200, Note_on_c, 9, 40, 95
5, 43680, Note_off_c, 9, 42, 95
5, 43680, Note_off_c, 9, 40, 95
5, 43680, Note_on_c, 9, 42, 95
5, 43680, Note_on_c, 9, 40, 95
5, 44160, Note_off_c, 9, 42, 95
5, 44160, Note_off_c, 9, 40, 95
5, 44160, Note_on_c, 9, 42, 95
5, 44160, Note_on_c, 9, 36, 95
5, 44640, Note_off_c, 9, 42, 95
5, 44640, Note_off_c, 9, 36, 95
5, 44640, Note_on_c, 9, 42, 95
5, 45120, Note_off_c, 9, 42, 95
5, 45120, Note_on_c, 9, 42, 95
5, 45120, Note_on_c, 9, 40, 95
5, 45600, Note_off_c, 9, 42, 95
5, 45600, Note_off_c, 9, 40, 95
5, 45600, Note_on_c, 9, 46, 95
5, 46080, Note_off_c, 9, 46, 95
5, 46080, Note_on_c, 9, 42, 95
5, 46080, Note_on_c, 9, 36, 95
5, 46560, Note_off_c, 9, 42, 95
5, 46560, Note_off_c, 9, 36, 95
5, 46560, Note_on_c, 9, 42, 95
5, 47040, Note_off_c, 9, 42, 95
5, 47040, Note_on_c, 9, 42, 95
5, 47040, Note_on_c, 9, 40, 95
5, 47520, Note_off_c, 9, 42, 95
5, 47520, Note_off_c, 9, 40, 95
5, 47520, Note_on_c, 9, 42, 95
5, 47520, Note_on_c, 9, 40, 95
5, 48000, Note_off_c, 9, 42, 95
5, 48000, Note_off_c, 9, 40, 95
5, 48000, Note_on_c, 9, 42, 95
5, 48000, Note_on_c, 9, 36, 95
5, 48480, Note_off_c, 9, 42, 95
5, 48480, Note_off_c, 9, 36, 95
5, 48480, Note_on_c, 9, 42, 95
5, 48960, Note_off_c, 9, 42, 95
5, 48960, Note_on_c, 9, 42, 95
5, 48960, Note_on_c, 9, 40, 95
5, 49440, Note_off_c, 9, 42, 95
5, 49440, Note_off_c, 9, 40, 95
5, 49440, Note_on_c, 9, 46, 95
5, 49920, Note_off_c, 9, 46, 95
5, 49920, Note_on_c, 9, 42, 95
5, 49920, Note_on_c, 9, 36, 95
5, 50400, Note_off_c, 9, 42, 95
5, 50400, Note_off_c, 9, 36, 95
5, 50400, Note_on_c, 9, 42, 95
5, 50880, Note_off_c, 9, 42, 95
5, 50880, Note_on_c, 9, 42, 95
5, 50880, Note_on_c, 9, 40, 95
5, 51360, Note_off_c, 9, 42, 95
5, 51360, Note_off_c, 9, 40, 95
5, 51360, Note_on_c, 9, 42, 95
5, 51360, Note_on_c, 9, 40, 95
5, 51840, Note_off_c, 9, 42, 95
5, 51840, Note_off_c, 9, 40, 95
5, 51840, Note_on_c, 9, 42, 95
5, 51840, Note_on_c, 9, 36, 95
5, 52320, Note_off_c, 9, 42, 95
5, 52320, Note_off_c, 9, 36, 95
5, 52320, Note_on_c, 9, 42, 95
5, 52800, Note_off_c, 9, 42, 95
5, 52800, Note_on_c, 9, 42, 95
5, 52800, Note_on_c, 9, 40, 95
5, 53280, Note_off_c, 9, 42, 95
5, 53280, Note_off_c, 9, 40, 95
5, 53280, Note_on_c, 9, 46, 95
5, 53760, Note_off_c, 9, 46, 95
5, 53760, Note_on_c, 9, 42, 95
5, 53760, Note_on_c, 9, 36, 95
5, 54240, Note_off_c, 9, 42, 95
5, 54240, Note_off_c, 9, 36, 95
5, 54240, Note_on_c, 9, 42, 95
5, 54720, Note_off_c, 9, 42, 95
5, 54720, Note_on_c, 9, 42, 95
5, 54720, Note_on_c, 9, 40, 95
5, 55200, Note_off_c, 9, 42, 95
5, 55200, Note_off_c, 9, 40, 95
5, 55200, Note_on_c, 9, 42, 95
5, 55200, Note_on_c, 9, 40, 95
5, 55680, Note_off_c, 9, 42, 95
5, 55680, Note_off_c, 9, 40, 95
5, 55680, Note_on_c, 9, 42, 95
5, 55680, Note_on_c, 9, 36, 95
5, 56160, Note_off_c, 9, 42, 95
5, 56160, Note_off_c, 9, 36, 95
5, 56160, Note_on_c, 9, 42, 95
5, 56640, Note_off_c, 9, 42, 95
5, 56640, Note_on_c, 9, 42, 95
5, 56640, Note_on_c, 9, 40, 95
5, 57120, Note_off_c, 9, 42, 95
5, 57120, Note_off_c, 9, 40, 95
5, 57120, Note_on_c, 9, 46, 95
5, 57600, Note_off_c, 9, 46, 95
5, 57600, Note_on_c, 9, 42, 95
5, 57600, Note_on_c, 9, 36, 95
5, 58080, Note_off_c, 9, 42, 95
5, 58080, Note_off_c, 9, 36, 95
5, 58080, Note_on_c, 9, 42, 95
5, 58560, Note_off_c, 9, 42, 95
5, 58560, Note_on_c, 9, 42, 95
5, 58560, Note_on_c, 9, 40, 95
5, 59040, Note_off_c, 9, 42, 95
5, 59040, Note_off_c, 9, 40, 95
5, 59040, Note_on_c, 9, 42, 95
5, 59040, Note_on_c, 9, 40, 95
5, 59520, Note_off_c, 9, 42, 95
5, 59520, Note_off_c, 9, 40, 95
5, 59520, Note_on_c, 9, 42, 95
5, 59520, Note_on_c, 9, 36, 95
5, 60000, Note_off_c, 9, 42, 95
5, 60000, Note_off_c, 9, 36, 95
5, 60000, Note_on_c, 9, 42, 95
5, 60480, Note_off_c, 9, 42, 95
5, 60480, Note_on_c, 9, 42, 95
5, 60480, Note_on_c, 9, 40, 95
5, 60960, Note_off_c, 9, 42, 95
5, 60960, Note_off_c, 9, 40, 95
5, 60960, Note_on_c, 9, 42, 95
5, 61440, Note_off_c, 9, 42, 95
5, 61440, Note_on_c, 9, 49, 95
5, 61440, Note_on_c, 9, 40, 95
5, 61920, Note_off_c, 9, 49, 95
5, 61920, Note_off_c, 9, 40, 95
5, 61920, Note_on_c, 9, 42, 95
5, 61920, Note_on_c, 9, 36, 95
5, 62400, Note_off_c, 9, 42, 95
5, 62400, Note_off_c, 9, 36, 95
5, 62400, Note_on_c, 9, 42, 95
5, 62400, Note_on_c, 9, 40, 95
5, 62880, Note_off_c, 9, 42, 95
5, 62880, Note_off_c, 9, 40, 95
5, 62880, Note_on_c, 9, 42, 95
5, 62880, Note_on_c, 9, 36, 95
5, 63360, Note_off_c, 9, 42, 95
5, 63360, Note_off_c, 9, 36, 95
5, 63360, Note_on_c, 9, 42, 95
5, 63360, Note_on_c, 9, 40, 95
5, 63840, Note_off_c, 9, 42, 95
5, 63840, Note_off_c, 9, 40, 95
5, 63840, Note_on_c, 9, 42, 95
5, 63840, Note_on_c, 9, 36, 95
5, 64320, Note_off_c, 9, 42, 95
5, 64320, Note_off_c, 9, 36, 95
5, 64320, Note_on_c, 9, 42, 95
5, 64320, Note_on_c, 9, 40, 95
5, 64800, Note_off_c, 9, 42, 95
5, 64800, Note_off_c, 9, 40, 95
5, 64800, Note_on_c, 9, 42, 95
5, 64800, Note_on_c, 9, 36, 95
5, 65280, Note_off_c, 9, 42, 95
5, 65280, Note_off_c, 9, 36, 95
5, 65280, Note_on_c, 9, 40, 95
5, 65760, Note_off_c, 9, 40, 95
5, 67680, Note_on_c, 9, 40, 95
5, 68160, Note_off_c, 9, 40, 95
5, 68160, Note_on_c, 9, 40, 95
5, 68640, Note_off_c, 9, 40, 95
5, 68640, Note_on_c, 9, 40, 95
5, 69120, Note_off_c, 9, 40, 95
5, 69120, Note_on_c, 9, 49, 95
5, 69120, Note_on_c, 9, 36, 95
5, 69600, Note_off_c, 9, 49, 95
5, 69600, Note_off_c, 9, 36, 95
5, 69600, Note_on_c, 9, 42, 95
5, 70080, Note_off_c, 9, 42, 95
5, 70080, Note_on_c, 9, 42, 95
5, 70080, Note_on_c, 9, 40, 95
5, 70560, Note_off_c, 9, 42, 95
5, 70560, Note_off_c, 9, 40, 95
5, 70560, Note_on_c, 9, 42, 95
5, 71040, Note_off_c, 9, 42, 95
5, 71040, Note_on_c, 9, 42, 95
5, 71040, Note_on_c, 9, 36, 95
5, 71520, Note_off_c, 9, 42, 95
5, 71520, Note_off_c, 9, 36, 95
5, 71520, Note_on_c, 9, 42, 95
5, 71520, Note_on_c, 9, 36, 95
5, 72000, Note_off_c, 9, 42, 95
5, 72000, Note_off_c, 9, 36, 95
5, 72000, Note_on_c, 9, 42, 95
5, 72000, Note_on_c, 9, 40, 95
5, 72480, Note_off_c, 9, 42, 95
5, 72480, Note_off_c, 9, 40, 95
5, 72480, Note_on_c, 9, 42, 95
5, 72480, Note_on_c, 9, 36, 95
5, 72960, Note_off_c, 9, 42, 95
5, 72960, Note_off_c, 9, 36, 95
5, 72960, Note_on_c, 9, 42, 95
5, 72960, Note_on_c, 9, 40, 95
5, 73440, Note_off_c, 9, 42, 95
5, 73440, Note_off_c, 9, 40, 95
5, 73440, Note_on_c, 9, 40, 95
5, 73680, Note_off_c, 9, 40, 95
5, 73680, Note_on_c, 9, 40, 95
5, 73920, Note_off_c, 9, 40, 95
5, 73920, Note_on_c, 9, 40, 95
5, 74400, Note_off_c, 9, 40, 95
5, 74400, Note_on_c, 9, 40, 95
5, 74880, Note_off_c, 9, 40, 95
5, 74880, Note_on_c, 9, 40, 95
5, 75360, Note_off_c, 9, 40, 95
5, 75360, Note_on_c, 9, 40, 95
5, 75600, Note_off_c, 9, 40, 95
5, 75600, Note_on_c, 9, 40, 95
5, 75840, Note_off_c, 9, 40, 95
5, 75840, Note_on_c, 9, 40, 95
5, 76320, Note_off_c, 9, 40, 95
5, 76320, Note_on_c, 9, 40, 95
5, 76800, Note_off_c, 9, 40, 95
5, 76800, Note_on_c, 9, 49, 95
5, 76800, Note_on_c, 9, 36, 95
5, 77280, Note_off_c, 9, 49, 95
5, 77280, Note_off_c, 9, 36, 95
5, 77280, Note_on_c, 9, 42, 95
5, 77760, Note_off_c, 9, 42, 95
5, 77760, Note_on_c, 9, 42, 95
5, 77760, Note_on_c, 9, 40, 95
5, 78240, Note_off_c, 9, 42, 95
5, 78240, Note_off_c, 9, 40, 95
5, 78240, Note_on_c, 9, 42, 95
5, 78240, Note_on_c, 9, 40, 95
5, 78720, Note_off_c, 9, 42, 95
5, 78720, Note_off_c, 9, 40, 95
5, 78720, Note_on_c, 9, 42, 95
5, 78720, Note_on_c, 9, 36, 95
5, 79200, Note_off_c, 9, 42, 95
5, 79200, Note_off_c, 9, 36, 95
5, 79200, Note_on_c, 9, 42, 95
5, 79680, Note_off_c, 9, 42, 95
5, 79680, Note_on_c, 9, 42, 95
5, 79680, Note_on_c, 9, 40, 95
5, 80160, Note_off_c, 9, 42, 95
5, 80160, Note_off_c, 9, 40, 95
5, 80160, Note_on_c, 9, 46, 95
5, 80640, Note_off_c, 9, 46, 95
5, 80640, Note_on_c, 9, 42, 95
5, 80640, Note_on_c, 9, 36, 95
5, 81120, Note_off_c, 9, 42, 95
5, 81120, Note_off_c, 9, 36, 95
5, 81120, Note_on_c, 9, 42, 95
5, 81600, Note_off_c, 9, 42, 95
5, 81600, Note_on_c, 9, 42, 95
5, 81600, Note_on_c, 9, 40, 95
5, 82080, Note_off_c, 9, 42, 95
5, 82080, Note_off_c, 9, 40, 95
5, 82080, Note_on_c, 9, 42, 95
5, 82080, Note_on_c, 9, 40, 95
5, 82560, Note_off_c, 9, 42, 95
5, 82560, Note_off_c, 9, 40, 95
5, 82560, Note_on_c, 9, 42, 95
5, 82560, Note_on_c, 9, 36, 95
5, 83040, Note_off_c, 9, 42, 95
5, 83040, Note_off_c, 9, 36, 95
5, 83040, Note_on_c, 9, 42, 95
5, 83520, Note_off_c, 9, 42, 95
5, 83520, Note_on_c, 9, 42, 95
5, 83520, Note_on_c, 9, 40, 95
5, 84000, Note_off_c, 9, 42, 95
5, 84000, Note_off_c, 9, 40, 95
5, 84000, Note_on_c, 9, 46, 95
5, 84480, Note_off_c, 9, 46, 95
5, 84480, Note_on_c, 9, 42, 95
5, 84480, Note_on_c, 9, 36, 95
5, 84960, Note_off_c, 9, 42, 95
5, 84960, Note_off_c, 9, 36, 95
5, 84960, Note_on_c, 9, 42, 95
5, 85440, Note_off_c, 9, 42, 95
5, 85440, Note_on_c, 9, 42, 95
5, 85440, Note_on_c, 9, 40, 95
5, 85920, Note_off_c, 9, 42, 95
5, 85920, Note_off_c, 9, 40, 95
5, 85920, Note_on_c, 9, 42, 95
5, 85920, Note_on_c, 9, 40, 95
5, 86400, Note_off_c, 9, 42, 95
5, 86400, Note_off_c, 9, 40, 95
5, 86400, Note_on_c, 9, 42, 95
5, 86400, Note_on_c, 9, 36, 95
5, 86880, Note_off_c, 9, 42, 95
5, 86880, Note_off_c, 9, 36, 95
5, 86880, Note_on_c, 9, 42, 95
5, 87360, Note_off_c, 9, 42, 95
5, 87360, Note_on_c, 9, 42, 95
5, 87360, Note_on_c, 9, 40, 95
5, 87840, Note_off_c, 9, 42, 95
5, 87840, Note_off_c, 9, 40, 95
5, 87840, Note_on_c, 9, 46, 95
5, 88320, Note_off_c, 9, 46, 95
5, 88320, Note_on_c, 9, 42, 95
5, 88320, Note_on_c, 9, 36, 95
5, 88800, Note_off_c, 9, 42, 95
5, 88800, Note_off_c, 9, 36, 95
5, 88800, Note_on_c, 9, 42, 95
5, 89280, Note_off_c, 9, 42, 95
5, 89280, Note_on_c, 9, 42, 95
5, 89280, Note_on_c, 9, 40, 95
5, 89760, Note_off_c, 9, 42, 95
5, 89760, Note_off_c, 9, 40, 95
5, 89760, Note_on_c, 9, 42, 95
5, 89760, Note_on_c, 9, 40, 95
5, 90240, Note_off_c, 9, 42, 95
5, 90240, Note_off_c, 9, 40, 95
5, 90240, Note_on_c, 9, 42, 95
5, 90240, Note_on_c, 9, 36, 95
5, 90720, Note_off_c, 9, 42, 95
5, 90720, Note_off_c, 9, 36, 95
5, 90720, Note_on_c, 9, 42, 95
5, 91200, Note_off_c, 9, 42, 95
5, 91200, Note_on_c, 9, 42, 95
5, 91200, Note_on_c, 9, 40, 95
5, 91680, Note_off_c, 9, 42, 95
5, 91680, Note_off_c, 9, 40, 95
5, 91680, Note_on_c, 9, 46, 95
5, 92160, Note_off_c, 9, 46, 95
5, 92160, Note_on_c, 9, 42, 95
5, 92160, Note_on_c, 9, 36, 95
5, 92640, Note_off_c, 9, 42, 95
5, 92640, Note_off_c, 9, 36, 95
5, 92640, Note_on_c, 9, 42, 95
5, 93120, Note_off_c, 9, 42, 95
5, 93120, Note_on_c, 9, 42, 95
5, 93120, Note_on_c, 9, 40, 95
5, 93600, Note_off_c, 9, 42, 95
5, 93600, Note_off_c, 9, 40, 95
5, 93600, Note_on_c, 9, 42, 95
5, 93600, Note_on_c, 9, 40, 95
5, 94080, Note_off_c, 9, 42, 95
5, 94080, Note_off_c, 9, 40, 95
5, 94080, Note_on_c, 9, 42, 95
5, 94080, Note_on_c, 9, 36, 95
5, 94560, Note_off_c, 9, 42, 95
5, 94560, Note_off_c, 9, 36, 95
5, 94560, Note_on_c, 9, 42, 95
5, 95040, Note_off_c, 9, 42, 95
5, 95040, Note_on_c, 9, 42, 95
5, 95040, Note_on_c, 9, 40, 95
5, 95520, Note_off_c, 9, 42, 95
5, 95520, Note_off_c, 9, 40, 95
5, 95520, Note_on_c, 9, 46, 95
5, 96000, Note_off_c, 9, 46, 95
5, 96000, Note_on_c, 9, 42, 95
5, 96000, Note_on_c, 9, 36, 95
5, 96480, Note_off_c, 9, 42, 95
5, 96480, Note_off_c, 9, 36, 95
5, 96480, Note_on_c, 9, 42, 95
5, 96960, Note_off_c, 9, 42, 95
5, 96960, Note_on_c, 9, 42, 95
5, 96960, Note_on_c, 9, 40, 95
5, 97440, Note_off_c, 9, 42, 95
5, 97440, Note_off_c, 9, 40, 95
5, 97440, Note_on_c, 9, 42, 95
5, 97440, Note_on_c, 9, 40, 95
5, 97920, Note_off_c, 9, 42, 95
5, 97920, Note_off_c, 9, 40, 95
5, 97920, Note_on_c, 9, 42, 95
5, 97920, Note_on_c, 9, 36, 95
5, 98400, Note_off_c, 9, 42, 95
5, 98400, Note_off_c, 9, 36, 95
5, 98400, Note_on_c, 9, 42, 95
5, 98880, Note_off_c, 9, 42, 95
5, 98880, Note_on_c, 9, 42, 95
5, 98880, Note_on_c, 9, 40, 95
5, 99360, Note_off_c, 9, 42, 95
5, 99360, Note_off_c, 9, 40, 95
5, 99360, Note_on_c, 9, 46, 95
5, 99840, Note_off_c, 9, 46, 95
5, 99840, Note_on_c, 9, 42, 95
5, 99840, Note_on_c, 9, 36, 95
5, 100320, Note_off_c, 9, 42, 95
5, 100320, Note_off_c, 9, 36, 95
5, 100320, Note_on_c, 9, 42, 95
5, 100800, Note_off_c, 9, 42, 95
5, 100800, Note_on_c, 9, 42, 95
5, 100800, Note_on_c, 9, 40, 95
5, 101280, Note_off_c, 9, 42, 95
5, 101280, Note_off_c, 9, 40, 95
5, 101280, Note_on_c, 9, 42, 95
5, 101280, Note_on_c, 9, 40, 95
5, 101760, Note_off_c, 9, 42, 95
5, 101760, Note_off_c, 9, 40, 95
5, 101760, Note_on_c, 9, 42, 95
5, 101760, Note_on_c, 9, 36, 95
5, 102240, Note_off_c, 9, 42, 95
5, 102240, Note_off_c, 9, 36, 95
5, 102240, Note_on_c, 9, 42, 95
5, 102720, Note_off_c, 9, 42, 95
5, 102720, Note_on_c, 9, 42, 95
5, 102720, Note_on_c, 9, 40, 95
5, 103200, Note_off_c, 9, 42, 95
5, 103200, Note_off_c, 9, 40, 95
5, 103200, Note_on_c, 9, 46, 95
5, 103680, Note_off_c, 9, 46, 95
5, 103680, Note_on_c, 9, 42, 95
5, 103680, Note_on_c, 9, 36, 95
5, 104160, Note_off_c, 9, 42, 95
5, 104160, Note_off_c, 9, 36, 95
5, 104160, Note_on_c, 9, 42, 95
5, 104640, Note_off_c, 9, 42, 95
5, 104640, Note_on_c, 9, 42, 95
5, 104640, Note_on_c, 9, 40, 95
5, 105120, Note_off_c, 9, 42, 95
5, 105120, Note_off_c, 9, 40, 95
5, 105120, Note_on_c, 9, 42, 95
5, 105120, Note_on_c, 9, 40, 95
5, 105600, Note_off_c, 9, 42, 95
5, 105600, Note_off_c, 9, 40, 95
5, 105600, Note_on_c, 9, 42, 95
5, 105600, Note_on_c, 9, 36, 95
5, 106080, Note_off_c, 9, 42, 95
5, 106080, Note_off_c, 9, 36, 95
5, 106080, Note_on_c, 9, 42, 95
5, 106560, Note_off_c, 9, 42, 95
5, 106560, Note_on_c, 9, 42, 95
5, 106560, Note_on_c, 9, 40, 95
5, 107040, Note_off_c, 9, 42, 95
5, 107040, Note_off_c, 9, 40, 95
5, 107040, Note_on_c, 9, 42, 95
5, 107520, Note_off_c, 9, 42, 95
5, 107520, Note_on_c, 9, 49, 95
5, 107520, Note_on_c, 9, 40, 95
5, 108000, Note_off_c, 9, 49, 95
5, 108000, Note_off_c, 9, 40, 95
5, 108000, Note_on_c, 9, 42, 95
5, 108000, Note_on_c, 9, 36, 95
5, 108480, Note_off_c, 9, 42, 95
5, 108480, Note_off_c, 9, 36, 95
5, 108480, Note_on_c, 9, 42, 95
5, 108480, Note_on_c, 9, 40, 95
5, 108960, Note_off_c, 9, 42, 95
5, 108960, Note_off_c, 9, 40, 95
5, 108960, Note_on_c, 9, 42, 95
5, 108960, Note_on_c, 9, 36, 95
5, 109440, Note_off_c, 9, 42, 95
5, 109440, Note_off_c, 9, 36, 95
5, 109440, Note_on_c, 9, 42, 95
5, 109440, Note_on_c, 9, 40, 95
5, 109920, Note_off_c, 9, 42, 95
5, 109920, Note_off_c, 9, 40, 95
5, 109920, Note_on_c, 9, 42, 95
5, 109920, Note_on_c, 9, 36, 95
5, 110400, Note_off_c, 9, 42, 95
5, 110400, Note_off_c, 9, 36, 95
5, 110400, Note_on_c, 9, 42, 95
5, 110400, Note_on_c, 9, 40, 95
5, 110880, Note_off_c, 9, 42, 95
5, 110880, Note_off_c, 9, 40, 95
5, 110880, Note_on_c, 9, 42, 95
5, 110880, Note_on_c, 9, 36, 95
5, 111360, Note_off_c, 9, 42, 95
5, 111360, Note_off_c, 9, 36, 95
5, 111360, Note_on_c, 9, 40, 95
5, 111840, Note_off_c, 9, 40, 95
5, 113760, Note_on_c, 9, 40, 95
5, 114240, Note_off_c, 9, 40, 95
5, 114240, Note_on_c, 9, 40, 95
5, 114720, Note_off_c, 9, 40, 95
5, 114720, Note_on_c, 9, 40, 95
5, 115200, Note_off_c, 9, 40, 95
5, 115200, Note_on_c, 9, 49, 95
5, 115200, Note_on_c, 9, 36, 95
5, 115680, Note_off_c, 9, 49, 95
5, 115680, Note_off_c, 9, 36, 95
5, 115680, Note_on_c, 9, 42, 95
5, 116160, Note_off_c, 9, 42, 95
5, 116160, Note_on_c, 9, 42, 95
5, 116160, Note_on_c, 9, 40, 95
5, 116640, Note_off_c, 9, 42, 95
5, 116640, Note_off_c, 9, 40, 95
5, 116640, Note_on_c, 9, 42, 95
5, 117120, Note_off_c, 9, 42, 95
5, 117120, Note_on_c, 9, 42, 95
5, 117120, Note_on_c, 9, 36, 95
5, 117600, Note_off_c, 9, 42, 95
5, 117600, Note_off_c, 9, 36, 95
5, 117600, Note_on_c, 9, 42, 95
5, 117600, Note_on_c, 9, 36, 95
5, 118080, Note_off_c, 9, 42, 95
5, 118080, Note_off_c, 9, 36, 95
5, 118080, Note_on_c, 9, 42, 95
5, 118080, Note_on_c, 9, 40, 95
5, 118560, Note_off_c, 9, 42, 95
5, 118560, Note_off_c, 9, 40, 95
5, 118560, Note_on_c, 9, 42, 95
5, 118560, Note_on_c, 9, 36, 95
5, 119040, Note_off_c, 9, 42, 95
5, 119040, Note_off_c, 9, 36, 95
5, 119040, Note_on_c, 9, 42, 95
5, 119040, Note_on_c, 9, 40, 95
5, 119520, Note_off_c, 9, 42, 95
5, 119520, Note_off_c, 9, 40, 95
5, 119520, Note_on_c, 9, 40, 95
5, 119760, Note_off_c, 9, 40, 95
5, 119760, Note_on_c, 9, 40, 95
5, 120000, Note_off_c, 9, 40, 95
5, 120000, Note_on_c, 9, 40, 95
5, 120480, Note_off_c, 9, 40, 95
5, 120480, Note_on_c, 9, 40, 95
5, 120960, Note_off_c, 9, 40, 95
5, 120960, Note_on_c, 9, 40, 95
5, 121440, Note_off_c, 9, 40, 95
5, 121440, Note_on_c, 9, 40, 95
5, 121680, Note_off_c, 9, 40, 95
5, 121680, Note_on_c, 9, 40, 95
5, 121920, Note_off_c, 9, 40, 95
5, 121920, Note_on_c, 9, 40, 95
5, 122400, Note_off_c, 9, 40, 95
5, 122400, Note_on_c, 9, 40, 95
5, 122880, Note_off_c, 9, 40, 95
5, 122880, Note_on_c, 9, 49, 95
5, 122880, Note_on_c, 9, 36, 95
5, 123360, Note_off_c, 9, 49, 95
5, 123360, Note_off_c, 9, 36, 95
5, 123360, Note_on_c, 9, 36, 95
5, 123840, Note_off_c, 9, 36, 95
5, 123840, Note_on_c, 9, 51, 95
5, 123840, Note_on_c, 9, 40, 95
5, 124800, Note_off_c, 9, 51, 95
5, 124800, Note_off_c, 9, 40, 95
5, 124800, Note_on_c, 9, 51, 95
5, 124800, Note_on_c, 9, 36, 95
5, 125280, Note_off_c, 9, 51, 95
5, 125280, Note_off_c, 9, 36, 95
5, 125280, Note_on_c, 9, 36, 95
5, 125760, Note_off_c, 9, 36, 95
5, 125760, Note_on_c, 9, 51, 95
5, 125760, Note_on_c, 9, 40, 95
5, 126720, Note_off_c, 9, 51, 95
5, 126720, Note_off_c, 9, 40, 95
5, 126720, Note_on_c, 9, 51, 95
5, 126720, Note_on_c, 9, 36, 95
5, 127200, Note_off_c, 9, 51, 95
5, 127200, Note_off_c, 9, 36, 95
5, 127200, Note_on_c, 9, 36, 95
5, 127680, Note_off_c, 9, 36, 95
5, 127680, Note_on_c, 9, 51, 95
5, 127680, Note_on_c, 9, 40, 95
5, 128640, Note_off_c, 9, 51, 95
5, 128640, Note_off_c, 9, 40, 95
5, 128640, Note_on_c, 9, 51, 95
5, 128640, Note_on_c, 9, 36, 95
5, 129120, Note_off_c, 9, 51, 95
5, 129120, Note_off_c, 9, 36, 95
5, 129120, Note_on_c, 9, 36, 95
5, 129600, Note_off_c, 9, 36, 95
5, 129600, Note_on_c, 9, 51, 95
5, 129600, Note_on_c, 9, 40, 95
5, 130560, Note_off_c, 9, 51, 95
5, 130560, Note_off_c, 9, 40, 95
5, 130560, Note_on_c, 9, 51, 95
5, 130560, Note_on_c, 9, 36, 95
5, 131040, Note_off_c, 9, 51, 95
5, 131040, Note_off_c, 9, 36, 95
5, 131040, Note_on_c, 9, 36, 95
5, 131520, Note_off_c, 9, 36, 95
5, 131520, Note_on_c, 9, 51, 95
5, 131520, Note_on_c, 9, 40, 95
5, 132480, Note_off_c, 9, 51, 95
5, 132480, Note_off_c, 9, 40, 95
5, 132480, Note_on_c, 9, 51, 95
5, 132480, Note_on_c, 9, 36, 95
5, 132960, Note_off_c, 9, 51, 95
5, 132960, Note_off_c, 9, 36, 95
5, 132960, Note_on_c, 9, 36, 95
5, 133440, Note_off_c, 9, 36, 95
5, 133440, Note_on_c, 9, 51, 95
5, 133440, Note_on_c, 9, 40, 95
5, 134400, Note_off_c, 9, 51, 95
5, 134400, Note_off_c, 9, 40, 95
5, 134400, Note_on_c, 9, 51, 95
5, 134400, Note_on_c, 9, 36, 95
5, 134880, Note_off_c, 9, 51, 95
5, 134880, Note_off_c, 9, 36, 95
5, 134880, Note_on_c, 9, 36, 95
5, 135360, Note_off_c, 9, 36, 95
5, 135360, Note_on_c, 9, 51, 95
5, 135360, Note_on_c, 9, 40, 95
5, 136320, Note_off_c, 9, 51, 95
5, 136320, Note_off_c, 9, 40, 95
5, 136320, Note_on_c, 9, 51, 95
5, 136320, Note_on_c, 9, 36, 95
5, 136800, Note_off_c, 9, 51, 95
5, 136800, Note_off_c, 9, 36, 95
5, 136800, Note_on_c, 9, 36, 95
5, 137280, Note_off_c, 9, 36, 95
5, 137280, Note_on_c, 9, 51, 95
5, 137280, Note_on_c, 9, 40, 95
5, 138240, Note_off_c, 9, 51, 95
5, 138240, Note_off_c, 9, 40, 95
5, 138240, Note_on_c, 9, 51, 95
5, 138240, Note_on_c, 9, 36, 95
5, 138720, Note_off_c, 9, 51, 95
5, 138720, Note_off_c, 9, 36, 95
5, 138720, Note_on_c, 9, 36, 95
5, 139200, Note_off_c, 9, 36, 95
5, 139200, Note_on_c, 9, 49, 95
5, 139200, Note_on_c, 9, 40, 95
5, 140160, Note_off_c, 9, 49, 95
5, 140160, Note_off_c, 9, 40, 95
5, 140160, Note_on_c, 9, 51, 95
5, 140160, Note_on_c, 9, 36, 95
5, 140640, Note_off_c, 9, 51, 95
5, 140640, Note_off_c, 9, 36, 95
5, 140640, Note_on_c, 9, 36, 95
5, 141120, Note_off_c, 9, 36, 95
5, 141120, Note_on_c, 9, 49, 95
5, 141120, Note_on_c, 9, 40, 95
5, 142080, Note_off_c, 9, 49, 95
5, 142080, Note_off_c, 9, 40, 95
5, 142080, Note_on_c, 9, 51, 95
5, 142080, Note_on_c, 9, 36, 95
5, 142560, Note_off_c, 9, 51, 95
5, 142560, Note_off_c, 9, 36, 95
5, 142560, Note_on_c, 9, 36, 95
5, 143040, Note_off_c, 9, 36, 95
5, 143040, Note_on_c, 9, 49, 95
5, 143040, Note_on_c, 9, 40, 95
5, 144000, Note_off_c, 9, 49, 95
5, 144000, Note_off_c, 9, 40, 95
5, 144000, Note_on_c, 9, 51, 95
5, 144000, Note_on_c, 9, 36, 95
5, 144480, Note_off_c, 9, 51, 95
5, 144480, Note_off_c, 9, 36, 95
5, 144480, Note_on_c, 9, 36, 95
5, 144960, Note_off_c, 9, 36, 95
5, 144960, Note_on_c, 9, 49, 95
5, 144960, Note_on_c, 9, 40, 95
5, 145920, Note_off_c, 9, 49, 95
5, 145920, Note_off_c, 9, 40, 95
5, 145920, Note_on_c, 9, 51, 95
5, 145920, Note_on_c, 9, 36, 95
5, 146400, Note_off_c, 9, 51, 95
5, 146400, Note_off_c, 9, 36, 95
5, 146400, Note_on_c, 9, 36, 95
5, 146880, Note_off_c, 9, 36, 95
5, 146880, Note_on_c, 9, 49, 95
5, 146880, Note_on_c, 9, 40, 95
5, 147840, Note_off_c, 9, 49, 95
5, 147840, Note_off_c, 9, 40, 95
5, 147840, Note_on_c, 9, 51, 95
5, 147840, Note_on_c, 9, 36, 95
5, 148320, Note_off_c, 9, 51, 95
5, 148320, Note_off_c, 9, 36, 95
5, 148320, Note_on_c, 9, 36, 95
5, 148800, Note_off_c, 9, 36, 95
5, 148800, Note_on_c, 9, 49, 95
5, 148800, Note_on_c, 9, 40, 95
5, 149760, Note_off_c, 9, 49, 95
5, 149760, Note_off_c, 9, 40, 95
5, 149760, Note_on_c, 9, 51, 95
5, 149760, Note_on_c, 9, 36, 95
5, 150240, Note_off_c, 9, 51, 95
5, 150240, Note_off_c, 9, 36, 95
5, 150240, Note_on_c, 9, 36, 95
5, 150720, Note_off_c, 9, 36, 95
5, 150720, Note_on_c, 9, 51, 95
5, 150720, Note_on_c, 9, 40, 95
5, 151680, Note_off_c, 9, 51, 95
5, 151680, Note_off_c, 9, 40, 95
5, 151680, Note_on_c, 9, 51, 95
5, 151680, Note_on_c, 9, 36, 95
5, 152160, Note_off_c, 9, 51, 95
5, 152160, Note_off_c, 9, 36, 95
5, 152160, Note_on_c, 9, 36, 95
5, 152640, Note_off_c, 9, 36, 95
5, 152640, Note_on_c, 9, 51, 95
5, 152640, Note_on_c, 9, 40, 95
5, 153600, Note_off_c, 9, 51, 95
5, 153600, Note_off_c, 9, 40, 95
5, 153600, Note_on_c, 9, 49, 95
5, 153600, Note_on_c, 9, 40, 95
5, 154080, Note_off_c, 9, 49, 95
5, 154080, Note_off_c, 9, 40, 95
5, 154080, Note_on_c, 9, 42, 95
5, 154080, Note_on_c, 9, 36, 95
5, 154560, Note_off_c, 9, 42, 95
5, 154560, Note_off_c, 9, 36, 95
5, 154560, Note_on_c, 9, 42, 95
5, 154560, Note_on_c, 9, 40, 95
5, 155040, Note_off_c, 9, 42, 95
5, 155040, Note_off_c, 9, 40, 95
5, 155040, Note_on_c, 9, 42, 95
5, 155040, Note_on_c, 9, 36, 95
5, 155520, Note_off_c, 9, 42, 95
5, 155520, Note_off_c, 9, 36, 95
5, 155520, Note_on_c, 9, 42, 95
5, 155520, Note_on_c, 9, 40, 95
5, 156000, Note_off_c, 9, 42, 95
5, 156000, Note_off_c, 9, 40, 95
5, 156000, Note_on_c, 9, 42, 95
5, 156000, Note_on_c, 9, 36, 95
5, 156480, Note_off_c, 9, 42, 95
5, 156480, Note_off_c, 9, 36, 95
5, 156480, Note_on_c, 9, 42, 95
5, 156480, Note_on_c, 9, 40, 95
5, 156960, Note_off_c, 9, 42, 95
5, 156960, Note_off_c, 9, 40, 95
5, 156960, Note_on_c, 9, 42, 95
5, 156960, Note_on_c, 9, 36, 95
5, 157440, Note_off_c, 9, 42, 95
5, 157440, Note_off_c, 9, 36, 95
5, 157440, Note_on_c, 9, 40, 95
5, 157920, Note_off_c, 9, 40, 95
5, 159840, Note_on_c, 9, 40, 95
5, 160320, Note_off_c, 9, 40, 95
5, 160320, Note_on_c, 9, 40, 95
5, 160800, Note_off_c, 9, 40, 95
5, 160800, Note_on_c, 9, 40, 95
5, 161280, Note_off_c, 9, 40, 95
5, 161280, Note_on_c, 9, 49, 95
5, 161280, Note_on_c, 9, 36, 95
5, 161760, Note_off_c, 9, 49, 95
5, 161760, Note_off_c, 9, 36, 95
5, 161760, Note_on_c, 9, 42, 95
5, 162240, Note_off_c, 9, 42, 95
5, 162240, Note_on_c, 9, 42, 95
5, 162240, Note_on_c, 9, 40, 95
5, 162720, Note_off_c, 9, 42, 95
5, 162720, Note_off_c, 9, 40, 95
5, 162720, Note_on_c, 9, 42, 95
5, 163200, Note_off_c, 9, 42, 95
5, 163200, Note_on_c, 9, 42, 95
5, 163200, Note_on_c, 9, 36, 95
5, 163680, Note_off_c, 9, 42, 95
5, 163680, Note_off_c, 9, 36, 95
5, 163680, Note_on_c, 9, 42, 95
5, 163680, Note_on_c, 9, 36, 95
5, 164160, Note_off_c, 9, 42, 95
5, 164160, Note_off_c, 9, 36, 95
5, 164160, Note_on_c, 9, 42, 95
5, 164160, Note_on_c, 9, 40, 95
5, 164640, Note_off_c, 9, 42, 95
5, 164640, Note_off_c, 9, 40, 95
5, 164640, Note_on_c, 9, 42, 95
5, 164640, Note_on_c, 9, 36, 95
5, 165120, Note_off_c, 9, 42, 95
5, 165120, Note_off_c, 9, 36, 95
5, 165120, Note_on_c, 9, 42, 95
5, 165120, Note_on_c, 9, 40, 95
5, 165600, Note_off_c, 9, 42, 95
5, 165600, Note_off_c, 9, 40, 95
5, 165600, Note_on_c, 9, 40, 95
5, 165840, Note_off_c, 9, 40, 95
5, 165840, Note_on_c, 9, 40, 95
5, 166080, Note_off_c, 9, 40, 95
5, 166080, Note_on_c, 9, 40, 95
5, 166560, Note_off_c, 9, 40, 95
5, 166560, Note_on_c, 9, 40, 95
5, 167040, Note_off_c, 9, 40, 95
5, 167040, Note_on_c, 9, 40, 95
5, 167520, Note_off_c, 9, 40, 95
5, 167520, Note_on_c, 9, 40, 95
5, 167760, Note_off_c, 9, 40, 95
5, 167760, Note_on_c, 9, 40, 95
5, 168000, Note_off_c, 9, 40, 95
5, 168000, Note_on_c, 9, 40, 95
5, 168480, Note_off_c, 9, 40, 95
5, 168480, Note_on_c, 9, 40, 95
5, 168960, Note_off_c, 9, 40, 95
5, 168960, Note_on_c, 9, 49, 95
5, 168960, Note_on_c, 9, 36, 95
5, 169440, Note_off_c, 9, 49, 95
5, 169440, Note_off_c, 9, 36, 95
5, 169440, Note_on_c, 9, 42, 95
5, 169920, Note_off_c, 9, 42, 95
5, 169920, Note_on_c, 9, 42, 95
5, 169920, Note_on_c, 9, 40, 95
5, 170400, Note_off_c, 9, 42, 95
5, 170400, Note_off_c, 9, 40, 95
5, 170400, Note_on_c, 9, 42, 95
5, 170400, Note_on_c, 9, 40, 95
5, 170880, Note_off_c, 9, 42, 95
5, 170880, Note_off_c, 9, 40, 95
5, 170880, Note_on_c, 9, 42, 95
5, 170880, Note_on_c, 9, 36, 95
5, 171360, Note_off_c, 9, 42, 95
5, 171360, Note_off_c, 9, 36, 95
5, 171360, Note_on_c, 9, 42, 95
5, 171840, Note_off_c, 9, 42, 95
5, 171840, Note_on_c, 9, 42, 95
5, 171840, Note_on_c, 9, 40, 95
5, 172320, Note_off_c, 9, 42, 95
5, 172320, Note_off_c, 9, 40, 95
5, 172320, Note_on_c, 9, 46, 95
5, 172800, Note_off_c, 9, 46, 95
5, 172800, Note_on_c, 9, 42, 95
5, 172800, Note_on_c, 9, 36, 95
5, 173280, Note_off_c, 9, 42, 95
5, 173280, Note_off_c, 9, 36, 95
5, 173280, Note_on_c, 9, 42, 95
5, 173760, Note_off_c, 9, 42, 95
5, 173760, Note_on_c, 9, 42, 95
5, 173760, Note_on_c, 9, 40, 95
5, 174240, Note_off_c, 9, 42, 95
5, 174240, Note_off_c, 9, 40, 95
5, 174240, Note_on_c, 9, 42, 95
5, 174240, Note_on_c, 9, 40, 95
5, 174720, Note_off_c, 9, 42, 95
5, 174720, Note_off_c, 9, 40, 95
5, 174720, Note_on_c, 9, 42, 95
5, 174720, Note_on_c, 9, 36, 95
5, 175200, Note_off_c, 9, 42, 95
5, 175200, Note_off_c, 9, 36, 95
5, 175200, Note_on_c, 9, 42, 95
5, 175680, Note_off_c, 9, 42, 95
5, 175680, Note_on_c, 9, 42, 95
5, 175680, Note_on_c, 9, 40, 95
5, 176160, Note_off_c, 9, 42, 95
5, 176160, Note_off_c, 9, 40, 95
5, 176160, Note_on_c, 9, 46, 95
5, 176640, Note_off_c, 9, 46, 95
5, 176640, Note_on_c, 9, 42, 95
5, 176640, Note_on_c, 9, 36, 95
5, 177120, Note_off_c, 9, 42, 95
5, 177120, Note_off_c, 9, 36, 95
5, 177120, Note_on_c, 9, 42, 95
5, 177600, Note_off_c, 9, 42, 95
5, 177600, Note_on_c, 9, 42, 95
5, 177600, Note_on_c, 9, 40, 95
5, 178080, Note_off_c, 9, 42, 95
5, 178080, Note_off_c, 9, 40, 95
5, 178080, Note_on_c, 9, 42, 95
5, 178080, Note_on_c, 9, 40, 95
5, 178560, Note_off_c, 9, 42, 95
5, 178560, Note_off_c, 9, 40, 95
5, 178560, Note_on_c, 9, 42, 95
5, 178560, Note_on_c, 9, 36, 95
5, 179040, Note_off_c, 9, 42, 95
5, 179040, Note_off_c, 9, 36, 95
5, 179040, Note_on_c, 9, 42, 95
5, 179520, Note_off_c, 9, 42, 95
5, 179520, Note_on_c, 9, 42, 95
5, 179520, Note_on_c, 9, 40, 95
5, 180000, Note_off_c, 9, 42, 95
5, 180000, Note_off_c, 9, 40, 95
5, 180000, Note_on_c, 9, 46, 95
5, 180480, Note_off_c, 9, 46, 95
5, 180480, Note_on_c, 9, 42, 95
5, 180480, Note_on_c, 9, 36, 95
5, 180960, Note_off_c, 9, 42, 95
5, 180960, Note_off_c, 9, 36, 95
5, 180960, Note_on_c, 9, 42, 95
5, 181440, Note_off_c, 9, 42, 95
5, 181440, Note_on_c, 9, 42, 95
5, 181440, Note_on_c, 9, 40, 95
5, 181920, Note_off_c, 9, 42, 95
5, 181920, Note_off_c, 9, 40, 95
5, 181920, Note_on_c, 9, 42, 95
5, 181920, Note_on_c, 9, 40, 95
5, 182400, Note_off_c, 9, 42, 95
5, 182400, Note_off_c, 9, 40, 95
5, 182400, Note_on_c, 9, 42, 95
5, 182400, Note_on_c, 9, 36, 95
5, 182880, Note_off_c, 9, 42, 95
5, 182880, Note_off_c, 9, 36, 95
5, 182880, Note_on_c, 9, 42, 95
5, 183360, Note_off_c, 9, 42, 95
5, 183360, Note_on_c, 9, 42, 95
5, 183360, Note_on_c, 9, 40, 95
5, 183840, Note_off_c, 9, 42, 95
5, 183840, Note_off_c, 9, 40, 95
5, 183840, Note_on_c, 9, 46, 95
5, 184320, Note_off_c, 9, 46, 95
5, 184320, Note_on_c, 9, 42, 95
5, 184320, Note_on_c, 9, 36, 95
5, 184800, Note_off_c, 9, 42, 95
5, 184800, Note_off_c, 9, 36, 95
5, 184800, Note_on_c, 9, 42, 95
5, 185280, Note_off_c, 9, 42, 95
5, 185280, Note_on_c, 9, 42, 95
5, 185280, Note_on_c, 9, 40, 95
5, 185760, Note_off_c, 9, 42, 95
5, 185760, Note_off_c, 9, 40, 95
5, 185760, Note_on_c, 9, 42, 95
5, 185760, Note_on_c, 9, 40, 95
5, 186240, Note_off_c, 9, 42, 95
5, 186240, Note_off_c, 9, 40, 95
5, 186240, Note_on_c, 9, 42, 95
5, 186240, Note_on_c, 9, 36, 95
5, 186720, Note_off_c, 9, 42, 95
5, 186720, Note_off_c, 9, 36, 95
5, 186720, Note_on_c, 9, 42, 95
5, 187200, Note_off_c, 9, 42, 95
5, 187200, Note_on_c, 9, 42, 95
5, 187200, Note_on_c, 9, 40, 95
5, 187680, Note_off_c, 9, 42, 95
5, 187680, Note_off_c, 9, 40, 95
5, 187680, Note_on_c, 9, 46, 95
5, 188160, Note_off_c, 9, 46, 95
5, 188160, Note_on_c, 9, 42, 95
5, 188160, Note_on_c, 9, 36, 95
5, 188640, Note_off_c, 9, 42, 95
5, 188640, Note_off_c, 9, 36, 95
5, 188640, Note_on_c, 9, 42, 95
5, 189120, Note_off_c, 9, 42, 95
5, 189120, Note_on_c, 9, 42, 95
5, 189120, Note_on_c, 9, 40, 95
5, 189600, Note_off_c, 9, 42, 95
5, 189600, Note_off_c, 9, 40, 95
5, 189600, Note_on_c, 9, 42, 95
5, 189600, Note_on_c, 9, 40, 95
5, 190080, Note_off_c, 9, 42, 95
5, 190080, Note_off_c, 9, 40, 95
5, 190080, Note_on_c, 9, 42, 95
5, 190080, Note_on_c, 9, 36, 95
5, 190560, Note_off_c, 9, 42, 95
5, 190560, Note_off_c, 9, 36, 95
5, 190560, Note_on_c, 9, 42, 95
5, 191040, Note_off_c, 9, 42, 95
5, 191040, Note_on_c, 9, 42, 95
5, 191040, Note_on_c, 9, 40, 95
5, 191520, Note_off_c, 9, 42, 95
5, 191520, Note_off_c, 9, 40, 95
5, 191520, Note_on_c, 9, 46, 95
5, 192000, Note_off_c, 9, 46, 95
5, 192000, Note_on_c, 9, 42, 95
5, 192000, Note_on_c, 9, 36, 95
5, 192480, Note_off_c, 9, 42, 95
5, 192480, Note_off_c, 9, 36, 95
5, 192480, Note_on_c, 9, 42, 95
5, 192960, Note_off_c, 9, 42, 95
5, 192960, Note_on_c, 9, 42, 95
5, 192960, Note_on_c, 9, 40, 95
5, 193440, Note_off_c, 9, 42, 95
5, 193440, Note_off_c, 9, 40, 95
5, 193440, Note_on_c, 9, 42, 95
5, 193440, Note_on_c, 9, 40, 95
5, 193920, Note_off_c, 9, 42, 95
5, 193920, Note_off_c, 9, 40, 95
5, 193920, Note_on_c, 9, 42, 95
5, 193920, Note_on_c, 9, 36, 95
5, 194400, Note_off_c, 9, 42, 95
5, 194400, Note_off_c, 9, 36, 95
5, 194400, Note_on_c, 9, 42, 95
5, 194880, Note_off_c, 9, 42, 95
5, 194880, Note_on_c, 9, 42, 95
5, 194880, Note_on_c, 9, 40, 95
5, 195360, Note_off_c, 9, 42, 95
5, 195360, Note_off_c, 9, 40, 95
5, 195360, Note_on_c, 9, 46, 95
5, 195840, Note_off_c, 9, 46, 95
5, 195840, Note_on_c, 9, 42, 95
5, 195840, Note_on_c, 9, 36, 95
5, 196320, Note_off_c, 9, 42, 95
5, 196320, Note_off_c, 9, 36, 95
5, 196320, Note_on_c, 9, 42, 95
5, 196800, Note_off_c, 9, 42, 95
5, 196800, Note_on_c, 9, 42, 95
5, 196800, Note_on_c, 9, 40, 95
5, 197280, Note_off_c, 9, 42, 95
5, 197280, Note_off_c, 9, 40, 95
5, 197280, Note_on_c, 9, 42, 95
5, 197280, Note_on_c, 9, 40, 95
5, 197760, Note_off_c, 9, 42, 95
5, 197760, Note_off_c, 9, 40, 95
5, 197760, Note_on_c, 9, 42, 95
5, 197760, Note_on_c, 9, 36, 95
5, 198240, Note_off_c, 9, 42, 95
5, 198240, Note_off_c, 9, 36, 95
5, 198240, Note_on_c, 9, 42, 95
5, 198720, Note_off_c, 9, 42, 95
5, 198720, Note_on_c, 9, 42, 95
5, 198720, Note_on_c, 9, 40, 95
5, 199200, Note_off_c, 9, 42, 95
5, 199200, Note_off_c, 9, 40, 95
5, 199200, Note_on_c, 9, 42, 95
5, 199680, Note_off_c, 9, 42, 95
5, 199680, Note_on_c, 9, 49, 95
5, 199680, Note_on_c, 9, 40, 95
5, 200160, Note_off_c, 9, 49, 95
5, 200160, Note_off_c, 9, 40, 95
5, 200160, Note_on_c, 9, 42, 95
5, 200160, Note_on_c, 9, 36, 95
5, 200640, Note_off_c, 9, 42, 95
5, 200640, Note_off_c, 9, 36, 95
5, 200640, Note_on_c, 9, 42, 95
5, 200640, Note_on_c, 9, 40, 95
5, 201120, Note_off_c, 9, 42, 95
5, 201120, Note_off_c, 9, 40, 95
5, 201120, Note_on_c, 9, 42, 95
5, 201120, Note_on_c, 9, 36, 95
5, 201600, Note_off_c, 9, 42, 95
5, 201600, Note_off_c, 9, 36, 95
5, 201600, Note_on_c, 9, 42, 95
5, 201600, Note_on_c, 9, 40, 95
5, 202080, Note_off_c, 9, 42, 95
5, 202080, Note_off_c, 9, 40, 95
5, 202080, Note_on_c, 9, 42, 95
5, 202080, Note_on_c, 9, 36, 95
5, 202560, Note_off_c, 9, 42, 95
5, 202560, Note_off_c, 9, 36, 95
5, 202560, Note_on_c, 9, 42, 95
5, 202560, Note_on_c, 9, 40, 95
5, 203040, Note_off_c, 9, 42, 95
5, 203040, Note_off_c, 9, 40, 95
5, 203040, Note_on_c, 9, 42, 95
5, 203040, Note_on_c, 9, 36, 95
5, 203520, Note_off_c, 9, 42, 95
5, 203520, Note_off_c, 9, 36, 95
5, 203520, Note_on_c, 9, 40, 95
5, 204000, Note_off_c, 9, 40, 95
5, 204000, Note_on_c, 9, 36, 95
5, 204480, Note_off_c, 9, 36, 95
5, 204480, Note_on_c, 9, 36, 95
5, 204960, Note_off_c, 9, 36, 95
5, 204960, Note_on_c, 9, 36, 95
5, 205440, Note_off_c, 9, 36, 95
5, 205440, Note_on_c, 9, 36, 95
5, 205920, Note_off_c, 9, 36, 95
5, 205920, Note_on_c, 9, 40, 95
5, 206400, Note_off_c, 9, 40, 95
5, 206400, Note_on_c, 9, 40, 95
5, 206880, Note_off_c, 9, 40, 95
5, 206880, Note_on_c, 9, 40, 95
5, 207360, Note_off_c, 9, 40, 95
5, 207360, Note_on_c, 9, 49, 95
5, 207360, Note_on_c, 9, 36, 95
5, 207840, Note_off_c, 9, 49, 95
5, 207840, Note_off_c, 9, 36, 95
5, 207840, Note_on_c, 9, 42, 95
5, 208320, Note_off_c, 9, 42, 95
5, 208320, Note_on_c, 9, 42, 95
5, 208320, Note_on_c, 9, 40, 95
5, 208800, Note_off_c, 9, 42, 95
5, 208800, Note_off_c, 9, 40, 95
5, 208800, Note_on_c, 9, 42, 95
5, 209280, Note_off_c, 9, 42, 95
5, 209280, Note_on_c, 9, 42, 95
5, 209280, Note_on_c, 9, 36, 95
5, 209760, Note_off_c, 9, 42, 95
5, 209760, Note_off_c, 9, 36, 95
5, 209760, Note_on_c, 9, 42, 95
5, 209760, Note_on_c, 9, 36, 95
5, 210240, Note_off_c, 9, 42, 95
5, 210240, Note_off_c, 9, 36, 95
5, 210240, Note_on_c, 9, 42, 95
5, 210240, Note_on_c, 9, 40, 95
5, 210720, Note_off_c, 9, 42, 95
5, 210720, Note_off_c, 9, 40, 95
5, 210720, Note_on_c, 9, 42, 95
5, 210720, Note_on_c, 9, 36, 95
5, 211200, Note_off_c, 9, 42, 95
5, 211200, Note_off_c, 9, 36, 95
5, 211200, Note_on_c, 9, 42, 95
5, 211200, Note_on_c, 9, 40, 95
5, 211680, Note_off_c, 9, 42, 95
5, 211680, Note_off_c, 9, 40, 95
5, 211680, Note_on_c, 9, 40, 95
5, 211920, Note_off_c, 9, 40, 95
5, 211920, Note_on_c, 9, 40, 95
5, 212160, Note_off_c, 9, 40, 95
5, 212160, Note_on_c, 9, 40, 95
5, 212640, Note_off_c, 9, 40, 95
5, 212640, Note_on_c, 9, 40, 95
5, 213120, Note_off_c, 9, 40, 95
5, 213120, Note_on_c, 9, 40, 95
5, 213600, Note_off_c, 9, 40, 95
5, 213600, Note_on_c, 9, 40, 95
5, 213840, Note_off_c, 9, 40, 95
5, 213840, Note_on_c, 9, 40, 95
5, 214080, Note_off_c, 9, 40, 95
5, 214080, Note_on_c, 9, 40, 95
5, 214560, Note_off_c, 9, 40, 95
5, 214560, Note_on_c, 9, 40, 95
5, 215040, Note_off_c, 9, 40, 95
5, 215040, Note_on_c, 9, 51, 95
5, 215040, Note_on_c, 9, 36, 95
5, 215520, Note_off_c, 9, 51, 95
5, 215520, Note_off_c, 9, 36, 95
5, 215520, Note_on_c, 9, 36, 95
5, 216000, Note_off_c, 9, 36, 95
5, 216000, Note_on_c, 9, 51, 95
5, 216000, Note_on_c, 9, 40, 95
5, 216480, Note_off_c, 9, 51, 95
5, 216480, Note_off_c, 9, 40, 95
5, 216480, Note_on_c, 9, 36, 95
5, 216960, Note_off_c, 9, 36, 95
5, 216960, Note_on_c, 9, 51, 95
5, 216960, Note_on_c, 9, 36, 95
5, 217440, Note_off_c, 9, 51, 95
5, 217440, Note_off_c, 9, 36, 95
5, 217440, Note_on_c, 9, 36, 95
5, 217920, Note_off_c, 9, 36, 95
5, 217920, Note_on_c, 9, 49, 95
5, 217920, Note_on_c, 9, 40, 95
5, 218400, Note_off_c, 9, 49, 95
5, 218400, Note_off_c, 9, 40, 95
5, 218400, Note_on_c, 9, 36, 95
5, 218880, Note_off_c, 9, 36, 95
5, 218880, Note_on_c, 9, 51, 95
5, 218880, Note_on_c, 9, 36, 95
5, 219360, Note_off_c, 9, 51, 95
5, 219360, Note_off_c, 9, 36, 95
5, 219360, Note_on_c, 9, 36, 95
5, 219840, Note_off_c, 9, 36, 95
5, 219840, Note_on_c, 9, 51, 95
5, 219840, Note_on_c, 9, 40, 95
5, 220320, Note_off_c, 9, 51, 95
5, 220320, Note_off_c, 9, 40, 95
5, 220320, Note_on_c, 9, 36, 95
5, 220800, Note_off_c, 9, 36, 95
5, 220800, Note_on_c, 9, 51, 95
5, 220800, Note_on_c, 9, 36, 95
5, 221280, Note_off_c, 9, 51, 95
5, 221280, Note_off_c, 9, 36, 95
5, 221280, Note_on_c, 9, 36, 95
5, 221760, Note_off_c, 9, 36, 95
5, 221760, Note_on_c, 9, 49, 95
5, 221760, Note_on_c, 9, 40, 95
5, 222240, Note_off_c, 9, 49, 95
5, 222240, Note_off_c, 9, 40, 95
5, 222240, Note_on_c, 9, 36, 95
5, 222720, Note_off_c, 9, 36, 95
5, 222720, Note_on_c, 9, 51, 95
5, 222720, Note_on_c, 9, 36, 95
5, 223200, Note_off_c, 9, 51, 95
5, 223200, Note_off_c, 9, 36, 95
5, 223200, Note_on_c, 9, 36, 95
5, 223680, Note_off_c, 9, 36, 95
5, 223680, Note_on_c, 9, 51, 95
5, 223680, Note_on_c, 9, 40, 95
5, 224160, Note_off_c, 9, 51, 95
5, 224160, Note_off_c, 9, 40, 95
5, 224160, Note_on_c, 9, 36, 95
5, 224640, Note_off_c, 9, 36, 95
5, 224640, Note_on_c, 9, 51, 95
5, 224640, Note_on_c, 9, 36, 95
5, 225120, Note_off_c, 9, 51, 95
5, 225120, Note_off_c, 9, 36, 95
5, 225120, Note_on_c, 9, 36, 95
5, 225600, Note_off_c, 9, 36, 95
5, 225600, Note_on_c, 9, 49, 95
5, 225600, Note_on_c, 9, 40, 95
5, 226080, Note_off_c, 9, 49, 95
5, 226080, Note_off_c, 9, 40, 95
5, 226080, Note_on_c, 9, 36, 95
5, 226560, Note_off_c, 9, 36, 95
5, 226560, Note_on_c, 9, 51, 95
5, 226560, Note_on_c, 9, 36, 95
5, 227040, Note_off_c, 9, 51, 95
5, 227040, Note_off_c, 9, 36, 95
5, 227040, Note_on_c, 9, 36, 95
5, 227520, Note_off_c, 9, 36, 95
5, 227520, Note_on_c, 9, 51, 95
5, 227520, Note_on_c, 9, 40, 95
5, 228000, Note_off_c, 9, 51, 95
5, 228000, Note_off_c, 9, 40, 95
5, 228000, Note_on_c, 9, 36, 95
5, 228480, Note_off_c, 9, 36, 95
5, 228480, Note_on_c, 9, 51, 95
5, 228480, Note_on_c, 9, 36, 95
5, 228960, Note_off_c, 9, 51, 95
5, 228960, Note_off_c, 9, 36, 95
5, 228960, Note_on_c, 9, 36, 95
5, 229440, Note_off_c, 9, 36, 95
5, 229440, Note_on_c, 9, 49, 95
5, 229440, Note_on_c, 9, 40, 95
5, 229920, Note_off_c, 9, 49, 95
5, 229920, Note_off_c, 9, 40, 95
5, 229920, Note_on_c, 9, 36, 95
5, 230400, Note_off_c, 9, 36, 95
5, 230400, Note_on_c, 9, 51, 95
5, 230400, Note_on_c, 9, 36, 95
5, 230880, Note_off_c, 9, 51, 95
5, 230880, Note_off_c, 9, 36, 95
5, 230880, Note_on_c, 9, 36, 95
5, 231360, Note_off_c, 9, 36, 95
5, 231360, Note_on_c, 9, 51, 95
5, 231360, Note_on_c, 9, 40, 95
5, 231840, Note_off_c, 9, 51, 95
5, 231840, Note_off_c, 9, 40, 95
5, 231840, Note_on_c, 9, 36, 95
5, 232320, Note_off_c, 9, 36, 95
5, 232320, Note_on_c, 9, 51, 95
5, 232320, Note_on_c, 9, 36, 95
5, 232800, Note_off_c, 9, 51, 95
5, 232800, Note_off_c, 9, 36, 95
5, 232800, Note_on_c, 9, 36, 95
5, 233280, Note_off_c, 9, 36, 95
5, 233280, Note_on_c, 9, 49, 95
5, 233280, Note_on_c, 9, 40, 95
5, 233760, Note_off_c, 9, 49, 95
5, 233760, Note_off_c, 9, 40, 95
5, 233760, Note_on_c, 9, 36, 95
5, 234240, Note_off_c, 9, 36, 95
5, 234240, Note_on_c, 9, 51, 95
5, 234240, Note_on_c, 9, 36, 95
5, 234720, Note_off_c, 9, 51, 95
5, 234720, Note_off_c, 9, 36, 95
5, 234720, Note_on_c, 9, 36, 95
5, 235200, Note_off_c, 9, 36, 95
5, 235200, Note_on_c, 9, 51, 95
5, 235200, Note_on_c, 9, 40, 95
5, 235680, Note_off_c, 9, 51, 95
5, 235680, Note_off_c, 9, 40, 95
5, 235680, Note_on_c, 9, 36, 95
5, 236160, Note_off_c, 9, 36, 95
5, 236160, Note_on_c, 9, 51, 95
5, 236160, Note_on_c, 9, 36, 95
5, 236640, Note_off_c, 9, 51, 95
5, 236640, Note_off_c, 9, 36, 95
5, 236640, Note_on_c, 9, 36, 95
5, 237120, Note_off_c, 9, 36, 95
5, 237120, Note_on_c, 9, 49, 95
5, 237120, Note_on_c, 9, 40, 95
5, 237600, Note_off_c, 9, 49, 95
5, 237600, Note_off_c, 9, 40, 95
5, 237600, Note_on_c, 9, 36, 95
5, 238080, Note_off_c, 9, 36, 95
5, 238080, Note_on_c, 9, 51, 95
5, 238080, Note_on_c, 9, 36, 95
5, 238560, Note_off_c, 9, 51, 95
5, 238560, Note_off_c, 9, 36, 95
5, 238560, Note_on_c, 9, 36, 95
5, 239040, Note_off_c, 9, 36, 95
5, 239040, Note_on_c, 9, 51, 95
5, 239040, Note_on_c, 9, 40, 95
5, 239520, Note_off_c, 9, 51, 95
5, 239520, Note_off_c, 9, 40, 95
5, 239520, Note_on_c, 9, 36, 95
5, 240000, Note_off_c, 9, 36, 95
5, 240000, Note_on_c, 9, 51, 95
5, 240000, Note_on_c, 9, 36, 95
5, 240480, Note_off_c, 9, 51, 95
5, 240480, Note_off_c, 9, 36, 95
5, 240480, Note_on_c, 9, 36, 95
5, 240960, Note_off_c, 9, 36, 95
5, 240960, Note_on_c, 9, 49, 95
5, 240960, Note_on_c, 9, 40, 95
5, 241440, Note_off_c, 9, 49, 95
5, 241440, Note_off_c, 9, 40, 95
5, 241440, Note_on_c, 9, 36, 95
5, 241920, Note_off_c, 9, 36, 95
5, 241920, Note_on_c, 9, 51, 95
5, 241920, Note_on_c, 9, 36, 95
5, 242400, Note_off_c, 9, 51, 95
5, 242400, Note_off_c, 9, 36, 95
5, 242400, Note_on_c, 9, 36, 95
5, 242880, Note_off_c, 9, 36, 95
5, 242880, Note_on_c, 9, 51, 95
5, 242880, Note_on_c, 9, 40, 95
5, 243360, Note_off_c, 9, 51, 95
5, 243360, Note_off_c, 9, 40, 95
5, 243360, Note_on_c, 9, 36, 95
5, 243840, Note_off_c, 9, 36, 95
5, 243840, Note_on_c, 9, 51, 95
5, 243840, Note_on_c, 9, 36, 95
5, 244320, Note_off_c, 9, 51, 95
5, 244320, Note_off_c, 9, 36, 95
5, 244320, Note_on_c, 9, 36, 95
5, 244800, Note_off_c, 9, 36, 95
5, 244800, Note_on_c, 9, 49, 95
5, 244800, Note_on_c, 9, 40, 95
5, 245280, Note_off_c, 9, 49, 95
5, 245280, Note_off_c, 9, 40, 95
5, 245280, Note_on_c, 9, 36, 95
5, 245760, Note_off_c, 9, 36, 95
5, 245760, Note_on_c, 9, 49, 95
5, 245760, Note_on_c, 9, 40, 95
5, 246240, Note_off_c, 9, 49, 95
5, 246240, Note_off_c, 9, 40, 95
5, 246240, Note_on_c, 9, 42, 95
5, 246240, Note_on_c, 9, 36, 95
5, 246720, Note_off_c, 9, 42, 95
5, 246720, Note_off_c, 9, 36, 95
5, 246720, Note_on_c, 9, 42, 95
5, 246720, Note_on_c, 9, 40, 95
5, 247200, Note_off_c, 9, 42, 95
5, 247200, Note_off_c, 9, 40, 95
5, 247200, Note_on_c, 9, 42, 95
5, 247200, Note_on_c, 9, 36, 95
5, 247680, Note_off_c, 9, 42, 95
5, 247680, Note_off_c, 9, 36, 95
5, 247680, Note_on_c, 9, 42, 95
5, 247680, Note_on_c, 9, 40, 95
5, 248160, Note_off_c, 9, 42, 95
5, 248160, Note_off_c, 9, 40, 95
5, 248160, Note_on_c, 9, 42, 95
5, 248160, Note_on_c, 9, 36, 95
5, 248640, Note_off_c, 9, 42, 95
5, 248640, Note_off_c, 9, 36, 95
5, 248640, Note_on_c, 9, 42, 95
5, 248640, Note_on_c, 9, 40, 95
5, 249120, Note_off_c, 9, 42, 95
5, 249120, Note_off_c, 9, 40, 95
5, 249120, Note_on_c, 9, 42, 95
5, 249120, Note_on_c, 9, 36, 95
5, 249600, Note_off_c, 9, 42, 95
5, 249600, Note_off_c, 9, 36, 95
5, 249600, Note_on_c, 9, 44, 95
5, 249600, Note_on_c, 9, 40, 95
5, 250080, Note_off_c, 9, 44, 95
5, 250080, Note_off_c, 9, 40, 95
5, 250560, Note_on_c, 9, 44, 95
5, 251040, Note_off_c, 9, 44, 95
5, 251520, Note_on_c, 9, 44, 95
5, 252000, Note_off_c, 9, 44, 95
5, 252000, Note_on_c, 9, 40, 95
5, 252480, Note_off_c, 9, 40, 95
5, 252480, Note_on_c, 9, 44, 95
5, 252480, Note_on_c, 9, 40, 95
5, 252960, Note_off_c, 9, 44, 95
5, 252960, Note_off_c, 9, 40, 95
5, 252960, Note_on_c, 9, 40, 95
5, 253440, Note_off_c, 9, 40, 95
5, 253440, Note_on_c, 9, 49, 95
5, 253440, Note_on_c, 9, 36, 95
5, 253920, Note_off_c, 9, 49, 95
5, 253920, Note_off_c, 9, 36, 95
5, 253920, Note_on_c, 9, 42, 95
5, 254400, Note_off_c, 9, 42, 95
5, 254400, Note_on_c, 9, 42, 95
5, 254400, Note_on_c, 9, 40, 95
5, 254880, Note_off_c, 9, 42, 95
5, 254880, Note_off_c, 9, 40, 95
5, 254880, Note_on_c, 9, 42, 95
5, 255360, Note_off_c, 9, 42, 95
5, 255360, Note_on_c, 9, 42, 95
5, 255360, Note_on_c, 9, 36, 95
5, 255840, Note_off_c, 9, 42, 95
5, 255840, Note_off_c, 9, 36, 95
5, 255840, Note_on_c, 9, 42, 95
5, 255840, Note_on_c, 9, 36, 95
5, 256320, Note_off_c, 9, 42, 95
5, 256320, Note_off_c, 9, 36, 95
5, 256320, Note_on_c, 9, 42, 95
5, 256320, Note_on_c, 9, 40, 95
5, 256800, Note_off_c, 9, 42, 95
5, 256800, Note_off_c, 9, 40, 95
5, 256800, Note_on_c, 9, 42, 95
5, 257280, Note_off_c, 9, 42, 95
5, 257280, Note_on_c, 9, 42, 95
5, 257280, Note_on_c, 9, 36, 95
5, 257760, Note_off_c, 9, 42, 95
5, 257760, Note_off_c, 9, 36, 95
5, 257760, Note_on_c, 9, 42, 95
5, 257760, Note_on_c, 9, 36, 95
5, 258240, Note_off_c, 9, 42, 95
5, 258240, Note_off_c, 9, 36, 95
5, 258240, Note_on_c, 9, 42, 95
5, 258240, Note_on_c, 9, 40, 95
5, 258720, Note_off_c, 9, 42, 95
5, 258720, Note_off_c, 9, 40, 95
5, 258720, Note_on_c, 9, 42, 95
5, 259200, Note_off_c, 9, 42, 95
5, 259200, Note_on_c, 9, 42, 95
5, 259200, Note_on_c, 9, 36, 95
5, 259680, Note_off_c, 9, 42, 95
5, 259680, Note_off_c, 9, 36, 95
5, 259680, Note_on_c, 9, 42, 95
5, 259680, Note_on_c, 9, 36, 95
5, 260160, Note_off_c, 9, 42, 95
5, 260160, Note_off_c, 9, 36, 95
5, 260160, Note_on_c, 9, 42, 95
5, 260160, Note_on_c, 9, 40, 95
5, 260640, Note_off_c, 9, 42, 95
5, 260640, Note_off_c, 9, 40, 95
5, 260640, Note_on_c, 9, 42, 95
5, 260880, Note_off_c, 9, 42, 95
5, 260880, Note_on_c, 9, 40, 95
5, 261120, Note_off_c, 9, 40, 95
5, 261120, Note_on_c, 9, 42, 95
5, 261120, Note_on_c, 9, 36, 95
5, 261600, Note_off_c, 9, 42, 95
5, 261600, Note_off_c, 9, 36, 95
5, 261600, Note_on_c, 9, 42, 95
5, 262080, Note_off_c, 9, 42, 95
5, 262080, Note_on_c, 9, 42, 95
5, 262080, Note_on_c, 9, 40, 95
5, 262560, Note_off_c, 9, 42, 95
5, 262560, Note_off_c, 9, 40, 95
5, 262560, Note_on_c, 9, 42, 95
5, 263040, Note_off_c, 9, 42, 95
5, 263040, Note_on_c, 9, 42, 95
5, 263040, Note_on_c, 9, 36, 95
5, 263520, Note_off_c, 9, 42, 95
5, 263520, Note_off_c, 9, 36, 95
5, 263520, Note_on_c, 9, 42, 95
5, 264000, Note_off_c, 9, 42, 95
5, 264000, Note_on_c, 9, 42, 95
5, 264000, Note_on_c, 9, 40, 95
5, 264480, Note_off_c, 9, 42, 95
5, 264480, Note_off_c, 9, 40, 95
5, 264480, Note_on_c, 9, 42, 95
5, 264960, Note_off_c, 9, 42, 95
5, 264960, Note_on_c, 9, 42, 95
5, 264960, Note_on_c, 9, 36, 95
5, 265440, Note_off_c, 9, 42, 95
5, 265440, Note_off_c, 9, 36, 95
5, 265440, Note_on_c, 9, 42, 95
5, 265920, Note_off_c, 9, 42, 95
5, 265920, Note_on_c, 9, 42, 95
5, 265920, Note_on_c, 9, 40, 95
5, 266400, Note_off_c, 9, 42, 95
5, 266400, Note_off_c, 9, 40, 95
5, 266400, Note_on_c, 9, 42, 95
5, 266880, Note_off_c, 9, 42, 95
5, 266880, Note_on_c, 9, 42, 95
5, 266880, Note_on_c, 9, 36, 95
5, 267360, Note_off_c, 9, 42, 95
5, 267360, Note_off_c, 9, 36, 95
5, 267360, Note_on_c, 9, 42, 95
5, 267840, Note_off_c, 9, 42, 95
5, 267840, Note_on_c, 9, 42, 95
5, 267840, Note_on_c, 9, 40, 95
5, 268320, Note_off_c, 9, 42, 95
5, 268320, Note_off_c, 9, 40, 95
5, 268320, Note_on_c, 9, 42, 95
5, 268800, Note_off_c, 9, 42, 95
5, 268800, Note_on_c, 9, 42, 95
5, 268800, Note_on_c, 9, 36, 95
5, 269280, Note_off_c, 9, 42, 95
5, 269280, Note_off_c, 9, 36, 95
5, 269280, Note_on_c, 9, 42, 95
5, 269760, Note_off_c, 9, 42, 95
5, 269760, Note_on_c, 9, 42, 95
5, 269760, Note_on_c, 9, 40, 95
5, 270240, Note_off_c, 9, 42, 95
5, 270240, Note_off_c, 9, 40, 95
5, 270240, Note_on_c, 9, 42, 95
5, 270720, Note_off_c, 9, 42, 95
5, 270720, Note_on_c, 9, 42, 95
5, 270720, Note_on_c, 9, 36, 95
5, 271200, Note_off_c, 9, 42, 95
5, 271200, Note_off_c, 9, 36, 95
5, 271200, Note_on_c, 9, 42, 95
5, 271680, Note_off_c, 9, 42, 95
5, 271680, Note_on_c, 9, 42, 95
5, 271680, Note_on_c, 9, 40, 95
5, 272160, Note_off_c, 9, 42, 95
5, 272160, Note_off_c, 9, 40, 95
5, 272160, Note_on_c, 9, 46, 95
5, 272640, Note_off_c, 9, 46, 95
5, 272640, Note_on_c, 9, 42, 95
5, 272640, Note_on_c, 9, 36, 95
5, 273120, Note_off_c, 9, 42, 95
5, 273120, Note_off_c, 9, 36, 95
5, 273120, Note_on_c, 9, 42, 95
5, 273600, Note_off_c, 9, 42, 95
5, 273600, Note_on_c, 9, 42, 95
5, 273600, Note_on_c, 9, 40, 95
5, 274080, Note_off_c, 9, 42, 95
5, 274080, Note_off_c, 9, 40, 95
5, 274080, Note_on_c, 9, 42, 95
5, 274560, Note_off_c, 9, 42, 95
5, 274560, Note_on_c, 9, 42, 95
5, 274560, Note_on_c, 9, 36, 95
5, 275040, Note_off_c, 9, 42, 95
5, 275040, Note_off_c, 9, 36, 95
5, 275040, Note_on_c, 9, 42, 95
5, 275520, Note_off_c, 9, 42, 95
5, 275520, Note_on_c, 9, 42, 95
5, 275520, Note_on_c, 9, 40, 95
5, 276000, Note_off_c, 9, 42, 95
5, 276000, Note_off_c, 9, 40, 95
5, 276000, Note_on_c, 9, 46, 95
5, 276480, Note_off_c, 9, 46, 95
5, 276480, Note_on_c, 9, 42, 95
5, 276480, Note_on_c, 9, 36, 95
5, 276960, Note_off_c, 9, 42, 95
5, 276960, Note_off_c, 9, 36, 95
5, 276960, Note_on_c, 9, 42, 95
5, 277440, Note_off_c, 9, 42, 95
5, 277440, Note_on_c, 9, 42, 95
5, 277440, Note_on_c, 9, 40, 95
5, 277920, Note_off_c, 9, 42, 95
5, 277920, Note_off_c, 9, 40, 95
5, 277920, Note_on_c, 9, 42, 95
5, 278400, Note_off_c, 9, 42, 95
5, 278400, Note_on_c, 9, 42, 95
5, 278400, Note_on_c, 9, 36, 95
5, 278880, Note_off_c, 9, 42, 95
5, 278880, Note_off_c, 9, 36, 95
5, 278880, Note_on_c, 9, 42, 95
5, 279360, Note_off_c, 9, 42, 95
5, 279360, Note_on_c, 9, 42, 95
5, 279360, Note_on_c, 9, 40, 95
5, 279840, Note_off_c, 9, 42, 95
5, 279840, Note_off_c, 9, 40, 95
5, 279840, Note_on_c, 9, 46, 95
5, 280320, Note_off_c, 9, 46, 95
5, 280320, Note_on_c, 9, 42, 95
5, 280320, Note_on_c, 9, 36, 95
5, 280800, Note_off_c, 9, 42, 95
5, 280800, Note_off_c, 9, 36, 95
5, 280800, Note_on_c, 9, 42, 95
5, 281280, Note_off_c, 9, 42, 95
5, 281280, Note_on_c, 9, 42, 95
5, 281280, Note_on_c, 9, 40, 95
5, 281760, Note_off_c, 9, 42, 95
5, 281760, Note_off_c, 9, 40, 95
5, 281760, Note_on_c, 9, 42, 95
5, 282240, Note_off_c, 9, 42, 95
5, 282240, Note_on_c, 9, 42, 95
5, 282240, Note_on_c, 9, 36, 95
5, 282720, Note_off_c, 9, 42, 95
5, 282720, Note_off_c, 9, 36, 95
5, 282720, Note_on_c, 9, 42, 95
5, 283200, Note_off_c, 9, 42, 95
5, 283200, Note_on_c, 9, 42, 95
5, 283200, Note_on_c, 9, 40, 95
5, 283680, Note_off_c, 9, 42, 95
5, 283680, Note_off_c, 9, 40, 95
5, 283680, Note_on_c, 9, 40, 95
5, 283920, Note_off_c, 9, 40, 95
5, 283920, Note_on_c, 9, 40, 95
5, 284160, Note_off_c, 9, 40, 95
5, 284160, Note_on_c, 9, 44, 95
5, 284160, Note_on_c, 9, 40, 95
5, 285120, Note_off_c, 9, 44, 95
5, 285120, Note_off_c, 9, 40, 95
5, 285120, Note_on_c, 9, 44, 95
5, 286080, Note_off_c, 9, 44, 95
5, 286080, Note_on_c, 9, 44, 95
5, 287040, Note_off_c, 9, 44, 95
5, 287040, Note_on_c, 9, 44, 95
5, 287520, Note_off_c, 9, 44, 95
5, 287520, Note_on_c, 9, 40, 95
5, 287760, Note_off_c, 9, 40, 95
5, 287760, Note_on_c, 9, 40, 95
5, 288000, Note_off_c, 9, 40, 95
5, 288000, Note_on_c, 9, 44, 95
5, 288000, Note_on_c, 9, 40, 95
5, 288480, Note_off_c, 9, 44, 95
5, 288480, Note_off_c, 9, 40, 95
5, 288480, Note_on_c, 9, 40, 95
5, 288960, Note_off_c, 9, 40, 95
5, 288960, Note_on_c, 9, 44, 95
5, 289920, Note_off_c, 9, 44, 95
5, 289920, Note_on_c, 9, 44, 95
5, 290880, Note_off_c, 9, 44, 95
5, 290880, Note_on_c, 9, 44, 95
5, 291360, Note_off_c, 9, 44, 95
5, 291360, Note_on_c, 9, 40, 95
5, 291600, Note_off_c, 9, 40, 95
5, 291600, Note_on_c, 9, 40, 95
5, 291840, Note_off_c, 9, 40, 95
5, 291840, Note_on_c, 9, 44, 95
5, 291840, Note_on_c, 9, 40, 95
5, 292800, Note_off_c, 9, 44, 95
5, 292800, Note_off_c, 9, 40, 95
5, 292800, Note_on_c, 9, 44, 95
5, 293760, Note_off_c, 9, 44, 95
5, 293760, Note_on_c, 9, 44, 95
5, 294720, Note_off_c, 9, 44, 95
5, 294720, Note_on_c, 9, 44, 95
5, 295680, Note_off_c, 9, 44, 95
5, 295680, Note_on_c, 9, 49, 95
5, 295680, Note_on_c, 9, 40, 95
5, 296160, Note_off_c, 9, 49, 95
5, 296160, Note_off_c, 9, 40, 95
5, 296160, Note_on_c, 9, 40, 95
5, 296400, Note_off_c, 9, 40, 95
5, 296400, Note_on_c, 9, 40, 95
5, 296640, Note_off_c, 9, 40, 95
5, 296640, Note_on_c, 9, 49, 95
5, 296640, Note_on_c, 9, 40, 95
5, 297120, Note_off_c, 9, 49, 95
5, 297120, Note_off_c, 9, 40, 95
5, 297120, End_track
0, 0, End_of_file
