0, 0, Header, 1, 5, 480
1, 0, Start_track
1, 0, Tempo, 461538
1, 0, Title_t, "Break my body"
1, 0, Time_signature, 4, 2, 7, 10
1, 9600, Time_signature, 2, 2, 7, 10
1, 10560, Time_signature, 4, 2, 7, 10
1, 14400, Marker_t, "Verse"
1, 22080, Time_signature, 2, 2, 7, 10
1, 23040, Time_signature, 4, 2, 7, 10
1, 34560, Time_signature, 2, 2, 7, 10
1, 35520, Time_signature, 4, 2, 7, 10
1, 39360, Marker_t, "Chorus"
1, 58560, Time_signature, 2, 2, 7, 10
1, 59520, Time_signature, 4, 2, 7, 10
1, 59520, Marker_t, "Verse"
1, 67200, Time_signature, 2, 2, 7, 10
1, 68160, Time_signature, 4, 2, 7, 10
1, 79680, Time_signature, 2, 2, 7, 10
1, 80640, Time_signature, 4, 2, 7, 10
1, 84480, Marker_t, "Chorus"
1, 99840, Time_signature, 8, 2, 7, 10
1, 103680, Time_signature, 6, 2, 7, 10
1, 103680, Marker_t, "Extro"
1, 109440, Time_signature, 4, 2, 7, 10
1, 109440, End_track
2, 0, Start_track
2, 0, Title_t, "Franck Black"
2, 0, Control_c, 1, 100, 0
2, 0, Control_c, 1, 101, 0
2, 0, Control_c, 1, 6, 12
2, 0, Pitch_bend_c, 1, 8192
2, 0, Control_c, 1, 101, 0
2, 0, Control_c, 1, 100, 1
2, 0, Control_c, 1, 6, 64
2, 0, Control_c, 1, 38, 0
2, 0, Control_c, 1, 101, 127
2, 0, Control_c, 1, 100, 127
2, 0, Control_c, 0, 100, 0
2, 0, Control_c, 0, 101, 0
2, 0, Control_c, 0, 6, 12
2, 0, Pitch_bend_c, 0, 8192
2, 0, Control_c, 0, 101, 0
2, 0, Control_c, 0, 100, 1
2, 0, Control_c, 0, 6, 64
2, 0, Control_c, 0, 38, 0
2, 0, Control_c, 0, 101, 127
2, 0, Control_c, 0, 100, 127
2, 0, Control_c, 1, 101, 0
2, 0, Control_c, 1, 100, 2
2, 0, Control_c, 1, 6, 64
2, 0, Control_c, 1, 101, 127
2, 0, Control_c, 1, 100, 127
2, 0, Control_c, 0, 101, 0
2, 0, Control_c, 0, 100, 2
2, 0, Control_c, 0, 6, 64
2, 0, Control_c, 0, 101, 127
2, 0, Control_c, 0, 100, 127
2, 0, Program_c, 1, 30
2, 0, Program_c, 0, 30
2, 0, Control_c, 1, 0, 0
2, 0, Control_c, 0, 0, 0
2, 0, Control_c, 1, 7, 88
2, 0, Control_c, 0, 7, 88
2, 0, Control_c, 1, 10, 64
2, 0, Control_c, 0, 10, 64
2, 0, Control_c, 1, 93, 0
2, 0, Control_c, 0, 93, 0
2, 0, Control_c, 1, 91, 0
2, 0, Control_c, 0, 91, 0
2, 0, Control_c, 1, 92, 0
2, 0, Control_c, 0, 92, 0
2, 0, Control_c, 1, 95, 0
2, 0, Control_c, 0, 95, 0
2, 9360, Note_on_c, 0, 55, 95
2, 9360, Note_on_c, 0, 50, 95
2, 9360, Note_on_c, 0, 43, 95
2, 9600, Note_off_c, 0, 55, 80
2, 9600, Note_off_c, 0, 50, 80
2, 9600, Note_off_c, 0, 43, 80
2, 9600, Note_on_c, 0, 58, 95
2, 9600, Note_on_c, 0, 53, 95
2, 9600, Note_on_c, 0, 46, 95
2, 10320, Note_off_c, 0, 58, 80
2, 10320, Note_off_c, 0, 53, 80
2, 10320, Note_off_c, 0, 46, 80
2, 10320, Note_on_c, 0, 58, 95
2, 10320, Note_on_c, 0, 53, 95
2, 10320, Note_on_c, 0, 46, 95
2, 10560, Note_off_c, 0, 58, 80
2, 10560, Note_off_c, 0, 53, 80
2, 10560, Note_off_c, 0, 46, 80
2, 10560, Note_on_c, 0, 55, 95
2, 10560, Note_on_c, 0, 50, 95
2, 10560, Note_on_c, 0, 43, 95
2, 14160, Note_off_c, 0, 55, 80
2, 14160, Note_off_c, 0, 50, 80
2, 14160, Note_off_c, 0, 43, 80
2, 14160, Note_on_c, 0, 55, 95
2, 14160, Note_on_c, 0, 50, 95
2, 14160, Note_on_c, 0, 43, 95
2, 14280, Note_off_c, 0, 55, 80
2, 14280, Note_off_c, 0, 50, 80
2, 14280, Note_off_c, 0, 43, 80
2, 14280, Note_on_c, 0, 55, 95
2, 14280, Note_on_c, 0, 50, 95
2, 14280, Note_on_c, 0, 43, 95
2, 14400, Note_off_c, 0, 55, 80
2, 14400, Note_off_c, 0, 50, 80
2, 14400, Note_off_c, 0, 43, 80
2, 14400, Note_on_c, 0, 55, 95
2, 14400, Note_on_c, 0, 50, 95
2, 14400, Note_on_c, 0, 43, 95
2, 14640, Note_off_c, 0, 55, 80
2, 14640, Note_off_c, 0, 50, 80
2, 14640, Note_off_c, 0, 43, 80
2, 14640, Note_on_c, 0, 55, 95
2, 14640, Note_on_c, 0, 50, 95
2, 14640, Note_on_c, 0, 43, 95
2, 14880, Note_off_c, 0, 55, 80
2, 14880, Note_off_c, 0, 50, 80
2, 14880, Note_off_c, 0, 43, 80
2, 14880, Note_on_c, 0, 55, 95
2, 14880, Note_on_c, 0, 50, 95
2, 14880, Note_on_c, 0, 43, 95
2, 15840, Note_off_c, 0, 55, 80
2, 15840, Note_off_c, 0, 50, 80
2, 15840, Note_off_c, 0, 43, 80
2, 21840, Note_on_c, 0, 55, 95
2, 21840, Note_on_c, 0, 50, 95
2, 21840, Note_on_c, 0, 43, 95
2, 22080, Note_off_c, 0, 55, 80
2, 22080, Note_off_c, 0, 50, 80
2, 22080, Note_off_c, 0, 43, 80
2, 22080, Note_on_c, 0, 58, 95
2, 22080, Note_on_c, 0, 53, 95
2, 22080, Note_on_c, 0, 46, 95
2, 22800, Note_off_c, 0, 58, 80
2, 22800, Note_off_c, 0, 53, 80
2, 22800, Note_off_c, 0, 46, 80
2, 22800, Note_on_c, 0, 58, 95
2, 22800, Note_on_c, 0, 53, 95
2, 22800, Note_on_c, 0, 46, 95
2, 23040, Note_off_c, 0, 58, 80
2, 23040, Note_off_c, 0, 53, 80
2, 23040, Note_off_c, 0, 46, 80
2, 23040, Note_on_c, 0, 55, 95
2, 23040, Note_on_c, 0, 50, 95
2, 23040, Note_on_c, 0, 43, 95
2, 26640, Note_off_c, 0, 55, 80
2, 26640, Note_off_c, 0, 50, 80
2, 26640, Note_off_c, 0, 43, 80
2, 26640, Note_on_c, 0, 55, 95
2, 26640, Note_on_c, 0, 50, 95
2, 26640, Note_on_c, 0, 43, 95
2, 26760, Note_off_c, 0, 55, 80
2, 26760, Note_off_c, 0, 50, 80
2, 26760, Note_off_c, 0, 43, 80
2, 26760, Note_on_c, 0, 55, 95
2, 26760, Note_on_c, 0, 50, 95
2, 26760, Note_on_c, 0, 43, 95
2, 26880, Note_off_c, 0, 55, 80
2, 26880, Note_off_c, 0, 50, 80
2, 26880, Note_off_c, 0, 43, 80
2, 26880, Note_on_c, 0, 55, 95
2, 26880, Note_on_c, 0, 50, 95
2, 26880, Note_on_c, 0, 43, 95
2, 27120, Note_off_c, 0, 55, 80
2, 27120, Note_off_c, 0, 50, 80
2, 27120, Note_off_c, 0, 43, 80
2, 27120, Note_on_c, 0, 55, 95
2, 27120, Note_on_c, 0, 50, 95
2, 27120, Note_on_c, 0, 43, 95
2, 27360, Note_off_c, 0, 55, 80
2, 27360, Note_off_c, 0, 50, 80
2, 27360, Note_off_c, 0, 43, 80
2, 27360, Note_on_c, 0, 55, 95
2, 27360, Note_on_c, 0, 50, 95
2, 27360, Note_on_c, 0, 43, 95
2, 28320, Note_off_c, 0, 55, 80
2, 28320, Note_off_c, 0, 50, 80
2, 28320, Note_off_c, 0, 43, 80
2, 34320, Note_on_c, 0, 55, 95
2, 34320, Note_on_c, 0, 50, 95
2, 34320, Note_on_c, 0, 43, 95
2, 34560, Note_off_c, 0, 55, 80
2, 34560, Note_off_c, 0, 50, 80
2, 34560, Note_off_c, 0, 43, 80
2, 34560, Note_on_c, 0, 58, 95
2, 34560, Note_on_c, 0, 53, 95
2, 34560, Note_on_c, 0, 46, 95
2, 35280, Note_off_c, 0, 58, 80
2, 35280, Note_off_c, 0, 53, 80
2, 35280, Note_off_c, 0, 46, 80
2, 35280, Note_on_c, 0, 58, 95
2, 35280, Note_on_c, 0, 53, 95
2, 35280, Note_on_c, 0, 46, 95
2, 35520, Note_off_c, 0, 58, 80
2, 35520, Note_off_c, 0, 53, 80
2, 35520, Note_off_c, 0, 46, 80
2, 35520, Note_on_c, 0, 55, 95
2, 35520, Note_on_c, 0, 50, 95
2, 35520, Note_on_c, 0, 43, 95
2, 39120, Note_off_c, 0, 55, 80
2, 39120, Note_off_c, 0, 50, 80
2, 39120, Note_off_c, 0, 43, 80
2, 39120, Note_on_c, 0, 55, 95
2, 39120, Note_on_c, 0, 50, 95
2, 39120, Note_on_c, 0, 43, 95
2, 39240, Note_off_c, 0, 55, 80
2, 39240, Note_off_c, 0, 50, 80
2, 39240, Note_off_c, 0, 43, 80
2, 39240, Note_on_c, 0, 55, 95
2, 39240, Note_on_c, 0, 50, 95
2, 39240, Note_on_c, 0, 43, 95
2, 39360, Note_off_c, 0, 55, 80
2, 39360, Note_off_c, 0, 50, 80
2, 39360, Note_off_c, 0, 43, 80
2, 39360, Note_on_c, 0, 62, 95
2, 39360, Note_on_c, 0, 57, 95
2, 39360, Note_on_c, 0, 50, 95
2, 39600, Note_off_c, 0, 62, 80
2, 39600, Note_off_c, 0, 57, 80
2, 39600, Note_off_c, 0, 50, 80
2, 39600, Note_on_c, 0, 62, 95
2, 39600, Note_on_c, 0, 57, 95
2, 39600, Note_on_c, 0, 50, 95
2, 39840, Note_off_c, 0, 62, 80
2, 39840, Note_off_c, 0, 57, 80
2, 39840, Note_off_c, 0, 50, 80
2, 39840, Note_on_c, 0, 62, 95
2, 39840, Note_on_c, 0, 57, 95
2, 39840, Note_on_c, 0, 50, 95
2, 40080, Note_off_c, 0, 62, 80
2, 40080, Note_off_c, 0, 57, 80
2, 40080, Note_off_c, 0, 50, 80
2, 40080, Note_on_c, 0, 62, 95
2, 40080, Note_on_c, 0, 57, 95
2, 40080, Note_on_c, 0, 50, 95
2, 40200, Note_off_c, 0, 62, 80
2, 40200, Note_off_c, 0, 57, 80
2, 40200, Note_off_c, 0, 50, 80
2, 40200, Note_on_c, 0, 62, 95
2, 40200, Note_on_c, 0, 57, 95
2, 40200, Note_on_c, 0, 50, 95
2, 40320, Note_off_c, 0, 62, 80
2, 40320, Note_off_c, 0, 57, 80
2, 40320, Note_off_c, 0, 50, 80
2, 40320, Note_on_c, 0, 55, 95
2, 40320, Note_on_c, 0, 50, 95
2, 40320, Note_on_c, 0, 43, 95
2, 40560, Note_off_c, 0, 55, 80
2, 40560, Note_off_c, 0, 50, 80
2, 40560, Note_off_c, 0, 43, 80
2, 40560, Note_on_c, 0, 55, 95
2, 40560, Note_on_c, 0, 50, 95
2, 40560, Note_on_c, 0, 43, 95
2, 40800, Note_off_c, 0, 55, 80
2, 40800, Note_off_c, 0, 50, 80
2, 40800, Note_off_c, 0, 43, 80
2, 40800, Note_on_c, 0, 55, 95
2, 40800, Note_on_c, 0, 50, 95
2, 40800, Note_on_c, 0, 43, 95
2, 41040, Note_off_c, 0, 55, 80
2, 41040, Note_off_c, 0, 50, 80
2, 41040, Note_off_c, 0, 43, 80
2, 41040, Note_on_c, 0, 55, 95
2, 41040, Note_on_c, 0, 50, 95
2, 41040, Note_on_c, 0, 43, 95
2, 41280, Note_off_c, 0, 55, 80
2, 41280, Note_off_c, 0, 50, 80
2, 41280, Note_off_c, 0, 43, 80
2, 41280, Note_on_c, 0, 53, 95
2, 41280, Note_on_c, 0, 48, 95
2, 41280, Note_on_c, 0, 41, 95
2, 41520, Note_off_c, 0, 53, 80
2, 41520, Note_off_c, 0, 48, 80
2, 41520, Note_off_c, 0, 41, 80
2, 41520, Note_on_c, 0, 53, 95
2, 41520, Note_on_c, 0, 48, 95
2, 41520, Note_on_c, 0, 41, 95
2, 41760, Note_off_c, 0, 53, 80
2, 41760, Note_off_c, 0, 48, 80
2, 41760, Note_off_c, 0, 41, 80
2, 41760, Note_on_c, 0, 53, 95
2, 41760, Note_on_c, 0, 48, 95
2, 41760, Note_on_c, 0, 41, 95
2, 42000, Note_off_c, 0, 53, 80
2, 42000, Note_off_c, 0, 48, 80
2, 42000, Note_off_c, 0, 41, 80
2, 42000, Note_on_c, 0, 53, 95
2, 42000, Note_on_c, 0, 48, 95
2, 42000, Note_on_c, 0, 41, 95
2, 42120, Note_off_c, 0, 53, 80
2, 42120, Note_off_c, 0, 48, 80
2, 42120, Note_off_c, 0, 41, 80
2, 42120, Note_on_c, 0, 53, 95
2, 42120, Note_on_c, 0, 48, 95
2, 42120, Note_on_c, 0, 41, 95
2, 42240, Note_off_c, 0, 53, 80
2, 42240, Note_off_c, 0, 48, 80
2, 42240, Note_off_c, 0, 41, 80
2, 42240, Note_on_c, 0, 58, 95
2, 42240, Note_on_c, 0, 53, 95
2, 42240, Note_on_c, 0, 46, 95
2, 42480, Note_off_c, 0, 58, 80
2, 42480, Note_off_c, 0, 53, 80
2, 42480, Note_off_c, 0, 46, 80
2, 42480, Note_on_c, 0, 58, 95
2, 42480, Note_on_c, 0, 53, 95
2, 42480, Note_on_c, 0, 46, 95
2, 42720, Note_off_c, 0, 58, 80
2, 42720, Note_off_c, 0, 53, 80
2, 42720, Note_off_c, 0, 46, 80
2, 42720, Note_on_c, 0, 58, 95
2, 42720, Note_on_c, 0, 53, 95
2, 42720, Note_on_c, 0, 46, 95
2, 42960, Note_off_c, 0, 58, 80
2, 42960, Note_off_c, 0, 53, 80
2, 42960, Note_off_c, 0, 46, 80
2, 42960, Note_on_c, 0, 58, 95
2, 42960, Note_on_c, 0, 53, 95
2, 42960, Note_on_c, 0, 46, 95
2, 43200, Note_off_c, 0, 58, 80
2, 43200, Note_off_c, 0, 53, 80
2, 43200, Note_off_c, 0, 46, 80
2, 43200, Note_on_c, 0, 60, 95
2, 43200, Note_on_c, 0, 55, 95
2, 43200, Note_on_c, 0, 48, 95
2, 43440, Note_off_c, 0, 60, 80
2, 43440, Note_off_c, 0, 55, 80
2, 43440, Note_off_c, 0, 48, 80
2, 43440, Note_on_c, 0, 60, 95
2, 43440, Note_on_c, 0, 55, 95
2, 43440, Note_on_c, 0, 48, 95
2, 43680, Note_off_c, 0, 60, 80
2, 43680, Note_off_c, 0, 55, 80
2, 43680, Note_off_c, 0, 48, 80
2, 43680, Note_on_c, 0, 60, 95
2, 43680, Note_on_c, 0, 55, 95
2, 43680, Note_on_c, 0, 48, 95
2, 43920, Note_off_c, 0, 60, 80
2, 43920, Note_off_c, 0, 55, 80
2, 43920, Note_off_c, 0, 48, 80
2, 43920, Note_on_c, 0, 60, 95
2, 43920, Note_on_c, 0, 55, 95
2, 43920, Note_on_c, 0, 48, 95
2, 44040, Note_off_c, 0, 60, 80
2, 44040, Note_off_c, 0, 55, 80
2, 44040, Note_off_c, 0, 48, 80
2, 44040, Note_on_c, 0, 60, 95
2, 44040, Note_on_c, 0, 55, 95
2, 44040, Note_on_c, 0, 48, 95
2, 44160, Note_off_c, 0, 60, 80
2, 44160, Note_off_c, 0, 55, 80
2, 44160, Note_off_c, 0, 48, 80
2, 44160, Note_on_c, 0, 55, 95
2, 44160, Note_on_c, 0, 50, 95
2, 44160, Note_on_c, 0, 43, 95
2, 44400, Note_off_c, 0, 55, 80
2, 44400, Note_off_c, 0, 50, 80
2, 44400, Note_off_c, 0, 43, 80
2, 44400, Note_on_c, 0, 55, 95
2, 44400, Note_on_c, 0, 50, 95
2, 44400, Note_on_c, 0, 43, 95
2, 44640, Note_off_c, 0, 55, 80
2, 44640, Note_off_c, 0, 50, 80
2, 44640, Note_off_c, 0, 43, 80
2, 44640, Note_on_c, 0, 55, 95
2, 44640, Note_on_c, 0, 50, 95
2, 44640, Note_on_c, 0, 43, 95
2, 44880, Note_off_c, 0, 55, 80
2, 44880, Note_off_c, 0, 50, 80
2, 44880, Note_off_c, 0, 43, 80
2, 44880, Note_on_c, 0, 55, 95
2, 44880, Note_on_c, 0, 50, 95
2, 44880, Note_on_c, 0, 43, 95
2, 45120, Note_off_c, 0, 55, 80
2, 45120, Note_off_c, 0, 50, 80
2, 45120, Note_off_c, 0, 43, 80
2, 45120, Note_on_c, 0, 62, 95
2, 45120, Note_on_c, 0, 57, 95
2, 45120, Note_on_c, 0, 50, 95
2, 45360, Note_off_c, 0, 62, 80
2, 45360, Note_off_c, 0, 57, 80
2, 45360, Note_off_c, 0, 50, 80
2, 45360, Note_on_c, 0, 62, 95
2, 45360, Note_on_c, 0, 57, 95
2, 45360, Note_on_c, 0, 50, 95
2, 45600, Note_off_c, 0, 62, 80
2, 45600, Note_off_c, 0, 57, 80
2, 45600, Note_off_c, 0, 50, 80
2, 45600, Note_on_c, 0, 62, 95
2, 45600, Note_on_c, 0, 57, 95
2, 45600, Note_on_c, 0, 50, 95
2, 45840, Note_off_c, 0, 62, 80
2, 45840, Note_off_c, 0, 57, 80
2, 45840, Note_off_c, 0, 50, 80
2, 45840, Note_on_c, 0, 62, 95
2, 45840, Note_on_c, 0, 57, 95
2, 45840, Note_on_c, 0, 50, 95
2, 45960, Note_off_c, 0, 62, 80
2, 45960, Note_off_c, 0, 57, 80
2, 45960, Note_off_c, 0, 50, 80
2, 45960, Note_on_c, 0, 62, 95
2, 45960, Note_on_c, 0, 57, 95
2, 45960, Note_on_c, 0, 50, 95
2, 46080, Note_off_c, 0, 62, 80
2, 46080, Note_off_c, 0, 57, 80
2, 46080, Note_off_c, 0, 50, 80
2, 46080, Note_on_c, 0, 55, 95
2, 46080, Note_on_c, 0, 50, 95
2, 46080, Note_on_c, 0, 43, 95
2, 46320, Note_off_c, 0, 55, 80
2, 46320, Note_off_c, 0, 50, 80
2, 46320, Note_off_c, 0, 43, 80
2, 46320, Note_on_c, 0, 55, 95
2, 46320, Note_on_c, 0, 50, 95
2, 46320, Note_on_c, 0, 43, 95
2, 46560, Note_off_c, 0, 55, 80
2, 46560, Note_off_c, 0, 50, 80
2, 46560, Note_off_c, 0, 43, 80
2, 46560, Note_on_c, 0, 55, 95
2, 46560, Note_on_c, 0, 50, 95
2, 46560, Note_on_c, 0, 43, 95
2, 46800, Note_off_c, 0, 55, 80
2, 46800, Note_off_c, 0, 50, 80
2, 46800, Note_off_c, 0, 43, 80
2, 46800, Note_on_c, 0, 55, 95
2, 46800, Note_on_c, 0, 50, 95
2, 46800, Note_on_c, 0, 43, 95
2, 47040, Note_off_c, 0, 55, 80
2, 47040, Note_off_c, 0, 50, 80
2, 47040, Note_off_c, 0, 43, 80
2, 47040, Note_on_c, 0, 53, 95
2, 47040, Note_on_c, 0, 48, 95
2, 47040, Note_on_c, 0, 41, 95
2, 47280, Note_off_c, 0, 53, 80
2, 47280, Note_off_c, 0, 48, 80
2, 47280, Note_off_c, 0, 41, 80
2, 47280, Note_on_c, 0, 53, 95
2, 47280, Note_on_c, 0, 48, 95
2, 47280, Note_on_c, 0, 41, 95
2, 47520, Note_off_c, 0, 53, 80
2, 47520, Note_off_c, 0, 48, 80
2, 47520, Note_off_c, 0, 41, 80
2, 47520, Note_on_c, 0, 53, 95
2, 47520, Note_on_c, 0, 48, 95
2, 47520, Note_on_c, 0, 41, 95
2, 47760, Note_off_c, 0, 53, 80
2, 47760, Note_off_c, 0, 48, 80
2, 47760, Note_off_c, 0, 41, 80
2, 47760, Note_on_c, 0, 53, 95
2, 47760, Note_on_c, 0, 48, 95
2, 47760, Note_on_c, 0, 41, 95
2, 47880, Note_off_c, 0, 53, 80
2, 47880, Note_off_c, 0, 48, 80
2, 47880, Note_off_c, 0, 41, 80
2, 47880, Note_on_c, 0, 53, 95
2, 47880, Note_on_c, 0, 48, 95
2, 47880, Note_on_c, 0, 41, 95
2, 48000, Note_off_c, 0, 53, 80
2, 48000, Note_off_c, 0, 48, 80
2, 48000, Note_off_c, 0, 41, 80
2, 48000, Note_on_c, 0, 58, 95
2, 48000, Note_on_c, 0, 53, 95
2, 48000, Note_on_c, 0, 46, 95
2, 48240, Note_off_c, 0, 58, 80
2, 48240, Note_off_c, 0, 53, 80
2, 48240, Note_off_c, 0, 46, 80
2, 48240, Note_on_c, 0, 58, 95
2, 48240, Note_on_c, 0, 53, 95
2, 48240, Note_on_c, 0, 46, 95
2, 48480, Note_off_c, 0, 58, 80
2, 48480, Note_off_c, 0, 53, 80
2, 48480, Note_off_c, 0, 46, 80
2, 48480, Note_on_c, 0, 58, 95
2, 48480, Note_on_c, 0, 53, 95
2, 48480, Note_on_c, 0, 46, 95
2, 48720, Note_off_c, 0, 58, 80
2, 48720, Note_off_c, 0, 53, 80
2, 48720, Note_off_c, 0, 46, 80
2, 48720, Note_on_c, 0, 58, 95
2, 48720, Note_on_c, 0, 53, 95
2, 48720, Note_on_c, 0, 46, 95
2, 48960, Note_off_c, 0, 58, 80
2, 48960, Note_off_c, 0, 53, 80
2, 48960, Note_off_c, 0, 46, 80
2, 48960, Note_on_c, 0, 60, 95
2, 48960, Note_on_c, 0, 55, 95
2, 48960, Note_on_c, 0, 48, 95
2, 49200, Note_off_c, 0, 60, 80
2, 49200, Note_off_c, 0, 55, 80
2, 49200, Note_off_c, 0, 48, 80
2, 49200, Note_on_c, 0, 60, 95
2, 49200, Note_on_c, 0, 55, 95
2, 49200, Note_on_c, 0, 48, 95
2, 49440, Note_off_c, 0, 60, 80
2, 49440, Note_off_c, 0, 55, 80
2, 49440, Note_off_c, 0, 48, 80
2, 49440, Note_on_c, 0, 60, 95
2, 49440, Note_on_c, 0, 55, 95
2, 49440, Note_on_c, 0, 48, 95
2, 49680, Note_off_c, 0, 60, 80
2, 49680, Note_off_c, 0, 55, 80
2, 49680, Note_off_c, 0, 48, 80
2, 49680, Note_on_c, 0, 60, 95
2, 49680, Note_on_c, 0, 55, 95
2, 49680, Note_on_c, 0, 48, 95
2, 49800, Note_off_c, 0, 60, 80
2, 49800, Note_off_c, 0, 55, 80
2, 49800, Note_off_c, 0, 48, 80
2, 49800, Note_on_c, 0, 60, 95
2, 49800, Note_on_c, 0, 55, 95
2, 49800, Note_on_c, 0, 48, 95
2, 49920, Note_off_c, 0, 60, 80
2, 49920, Note_off_c, 0, 55, 80
2, 49920, Note_off_c, 0, 48, 80
2, 49920, Note_on_c, 0, 55, 95
2, 49920, Note_on_c, 0, 50, 95
2, 49920, Note_on_c, 0, 43, 95
2, 50160, Note_off_c, 0, 55, 80
2, 50160, Note_off_c, 0, 50, 80
2, 50160, Note_off_c, 0, 43, 80
2, 50160, Note_on_c, 0, 55, 95
2, 50160, Note_on_c, 0, 50, 95
2, 50160, Note_on_c, 0, 43, 95
2, 50400, Note_off_c, 0, 55, 80
2, 50400, Note_off_c, 0, 50, 80
2, 50400, Note_off_c, 0, 43, 80
2, 50400, Note_on_c, 0, 55, 95
2, 50400, Note_on_c, 0, 50, 95
2, 50400, Note_on_c, 0, 43, 95
2, 50640, Note_off_c, 0, 55, 80
2, 50640, Note_off_c, 0, 50, 80
2, 50640, Note_off_c, 0, 43, 80
2, 50640, Note_on_c, 0, 55, 95
2, 50640, Note_on_c, 0, 50, 95
2, 50640, Note_on_c, 0, 43, 95
2, 50880, Note_off_c, 0, 55, 80
2, 50880, Note_off_c, 0, 50, 80
2, 50880, Note_off_c, 0, 43, 80
2, 50880, Note_on_c, 0, 62, 95
2, 50880, Note_on_c, 0, 57, 95
2, 50880, Note_on_c, 0, 50, 95
2, 51120, Note_off_c, 0, 62, 80
2, 51120, Note_off_c, 0, 57, 80
2, 51120, Note_off_c, 0, 50, 80
2, 51120, Note_on_c, 0, 62, 95
2, 51120, Note_on_c, 0, 57, 95
2, 51120, Note_on_c, 0, 50, 95
2, 51360, Note_off_c, 0, 62, 80
2, 51360, Note_off_c, 0, 57, 80
2, 51360, Note_off_c, 0, 50, 80
2, 51360, Note_on_c, 0, 62, 95
2, 51360, Note_on_c, 0, 57, 95
2, 51360, Note_on_c, 0, 50, 95
2, 51600, Note_off_c, 0, 62, 80
2, 51600, Note_off_c, 0, 57, 80
2, 51600, Note_off_c, 0, 50, 80
2, 51600, Note_on_c, 0, 62, 95
2, 51600, Note_on_c, 0, 57, 95
2, 51600, Note_on_c, 0, 50, 95
2, 51720, Note_off_c, 0, 62, 80
2, 51720, Note_off_c, 0, 57, 80
2, 51720, Note_off_c, 0, 50, 80
2, 51720, Note_on_c, 0, 62, 95
2, 51720, Note_on_c, 0, 57, 95
2, 51720, Note_on_c, 0, 50, 95
2, 51840, Note_off_c, 0, 62, 80
2, 51840, Note_off_c, 0, 57, 80
2, 51840, Note_off_c, 0, 50, 80
2, 51840, Note_on_c, 0, 55, 95
2, 51840, Note_on_c, 0, 50, 95
2, 51840, Note_on_c, 0, 43, 95
2, 52080, Note_off_c, 0, 55, 80
2, 52080, Note_off_c, 0, 50, 80
2, 52080, Note_off_c, 0, 43, 80
2, 52080, Note_on_c, 0, 55, 95
2, 52080, Note_on_c, 0, 50, 95
2, 52080, Note_on_c, 0, 43, 95
2, 52320, Note_off_c, 0, 55, 80
2, 52320, Note_off_c, 0, 50, 80
2, 52320, Note_off_c, 0, 43, 80
2, 52320, Note_on_c, 0, 55, 95
2, 52320, Note_on_c, 0, 50, 95
2, 52320, Note_on_c, 0, 43, 95
2, 52560, Note_off_c, 0, 55, 80
2, 52560, Note_off_c, 0, 50, 80
2, 52560, Note_off_c, 0, 43, 80
2, 52560, Note_on_c, 0, 55, 95
2, 52560, Note_on_c, 0, 50, 95
2, 52560, Note_on_c, 0, 43, 95
2, 52800, Note_off_c, 0, 55, 80
2, 52800, Note_off_c, 0, 50, 80
2, 52800, Note_off_c, 0, 43, 80
2, 52800, Note_on_c, 0, 53, 95
2, 52800, Note_on_c, 0, 48, 95
2, 52800, Note_on_c, 0, 41, 95
2, 53040, Note_off_c, 0, 53, 80
2, 53040, Note_off_c, 0, 48, 80
2, 53040, Note_off_c, 0, 41, 80
2, 53040, Note_on_c, 0, 53, 95
2, 53040, Note_on_c, 0, 48, 95
2, 53040, Note_on_c, 0, 41, 95
2, 53280, Note_off_c, 0, 53, 80
2, 53280, Note_off_c, 0, 48, 80
2, 53280, Note_off_c, 0, 41, 80
2, 53280, Note_on_c, 0, 53, 95
2, 53280, Note_on_c, 0, 48, 95
2, 53280, Note_on_c, 0, 41, 95
2, 53520, Note_off_c, 0, 53, 80
2, 53520, Note_off_c, 0, 48, 80
2, 53520, Note_off_c, 0, 41, 80
2, 53520, Note_on_c, 0, 53, 95
2, 53520, Note_on_c, 0, 48, 95
2, 53520, Note_on_c, 0, 41, 95
2, 53640, Note_off_c, 0, 53, 80
2, 53640, Note_off_c, 0, 48, 80
2, 53640, Note_off_c, 0, 41, 80
2, 53640, Note_on_c, 0, 53, 95
2, 53640, Note_on_c, 0, 48, 95
2, 53640, Note_on_c, 0, 41, 95
2, 53760, Note_off_c, 0, 53, 80
2, 53760, Note_off_c, 0, 48, 80
2, 53760, Note_off_c, 0, 41, 80
2, 53760, Note_on_c, 0, 58, 95
2, 53760, Note_on_c, 0, 53, 95
2, 53760, Note_on_c, 0, 46, 95
2, 54000, Note_off_c, 0, 58, 80
2, 54000, Note_off_c, 0, 53, 80
2, 54000, Note_off_c, 0, 46, 80
2, 54000, Note_on_c, 0, 58, 95
2, 54000, Note_on_c, 0, 53, 95
2, 54000, Note_on_c, 0, 46, 95
2, 54240, Note_off_c, 0, 58, 80
2, 54240, Note_off_c, 0, 53, 80
2, 54240, Note_off_c, 0, 46, 80
2, 54240, Note_on_c, 0, 58, 95
2, 54240, Note_on_c, 0, 53, 95
2, 54240, Note_on_c, 0, 46, 95
2, 54480, Note_off_c, 0, 58, 80
2, 54480, Note_off_c, 0, 53, 80
2, 54480, Note_off_c, 0, 46, 80
2, 54480, Note_on_c, 0, 58, 95
2, 54480, Note_on_c, 0, 53, 95
2, 54480, Note_on_c, 0, 46, 95
2, 54720, Note_off_c, 0, 58, 80
2, 54720, Note_off_c, 0, 53, 80
2, 54720, Note_off_c, 0, 46, 80
2, 54720, Note_on_c, 0, 60, 95
2, 54720, Note_on_c, 0, 55, 95
2, 54720, Note_on_c, 0, 48, 95
2, 54960, Note_off_c, 0, 60, 80
2, 54960, Note_off_c, 0, 55, 80
2, 54960, Note_off_c, 0, 48, 80
2, 54960, Note_on_c, 0, 60, 95
2, 54960, Note_on_c, 0, 55, 95
2, 54960, Note_on_c, 0, 48, 95
2, 55200, Note_off_c, 0, 60, 80
2, 55200, Note_off_c, 0, 55, 80
2, 55200, Note_off_c, 0, 48, 80
2, 55200, Note_on_c, 0, 60, 95
2, 55200, Note_on_c, 0, 55, 95
2, 55200, Note_on_c, 0, 48, 95
2, 55440, Note_off_c, 0, 60, 80
2, 55440, Note_off_c, 0, 55, 80
2, 55440, Note_off_c, 0, 48, 80
2, 55440, Note_on_c, 0, 60, 95
2, 55440, Note_on_c, 0, 55, 95
2, 55440, Note_on_c, 0, 48, 95
2, 55560, Note_off_c, 0, 60, 80
2, 55560, Note_off_c, 0, 55, 80
2, 55560, Note_off_c, 0, 48, 80
2, 55560, Note_on_c, 0, 60, 95
2, 55560, Note_on_c, 0, 55, 95
2, 55560, Note_on_c, 0, 48, 95
2, 55680, Note_off_c, 0, 60, 80
2, 55680, Note_off_c, 0, 55, 80
2, 55680, Note_off_c, 0, 48, 80
2, 55680, Note_on_c, 0, 55, 95
2, 55680, Note_on_c, 0, 50, 95
2, 55680, Note_on_c, 0, 43, 95
2, 55920, Note_off_c, 0, 55, 80
2, 55920, Note_off_c, 0, 50, 80
2, 55920, Note_off_c, 0, 43, 80
2, 55920, Note_on_c, 0, 55, 95
2, 55920, Note_on_c, 0, 50, 95
2, 55920, Note_on_c, 0, 43, 95
2, 56160, Note_off_c, 0, 55, 80
2, 56160, Note_off_c, 0, 50, 80
2, 56160, Note_off_c, 0, 43, 80
2, 56160, Note_on_c, 0, 55, 95
2, 56160, Note_on_c, 0, 50, 95
2, 56160, Note_on_c, 0, 43, 95
2, 56400, Note_off_c, 0, 55, 80
2, 56400, Note_off_c, 0, 50, 80
2, 56400, Note_off_c, 0, 43, 80
2, 56400, Note_on_c, 0, 55, 95
2, 56400, Note_on_c, 0, 50, 95
2, 56400, Note_on_c, 0, 43, 95
2, 56640, Note_off_c, 0, 55, 80
2, 56640, Note_off_c, 0, 50, 80
2, 56640, Note_off_c, 0, 43, 80
2, 56640, Note_on_c, 0, 55, 95
2, 56640, Note_on_c, 0, 50, 95
2, 56640, Note_on_c, 0, 43, 95
2, 56880, Note_off_c, 0, 55, 80
2, 56880, Note_off_c, 0, 50, 80
2, 56880, Note_off_c, 0, 43, 80
2, 56880, Note_on_c, 0, 55, 95
2, 56880, Note_on_c, 0, 50, 95
2, 56880, Note_on_c, 0, 43, 95
2, 57120, Note_off_c, 0, 55, 80
2, 57120, Note_off_c, 0, 50, 80
2, 57120, Note_off_c, 0, 43, 80
2, 57120, Note_on_c, 0, 55, 95
2, 57120, Note_on_c, 0, 50, 95
2, 57120, Note_on_c, 0, 43, 95
2, 57360, Note_off_c, 0, 55, 80
2, 57360, Note_off_c, 0, 50, 80
2, 57360, Note_off_c, 0, 43, 80
2, 57360, Note_on_c, 0, 55, 95
2, 57360, Note_on_c, 0, 50, 95
2, 57360, Note_on_c, 0, 43, 95
2, 57600, Note_off_c, 0, 55, 80
2, 57600, Note_off_c, 0, 50, 80
2, 57600, Note_off_c, 0, 43, 80
2, 57600, Note_on_c, 0, 55, 95
2, 57600, Note_on_c, 0, 50, 95
2, 57600, Note_on_c, 0, 43, 95
2, 57840, Note_off_c, 0, 55, 80
2, 57840, Note_off_c, 0, 50, 80
2, 57840, Note_off_c, 0, 43, 80
2, 57840, Note_on_c, 0, 55, 95
2, 57840, Note_on_c, 0, 50, 95
2, 57840, Note_on_c, 0, 43, 95
2, 58080, Note_off_c, 0, 55, 80
2, 58080, Note_off_c, 0, 50, 80
2, 58080, Note_off_c, 0, 43, 80
2, 58080, Note_on_c, 0, 55, 95
2, 58080, Note_on_c, 0, 50, 95
2, 58080, Note_on_c, 0, 43, 95
2, 58320, Note_off_c, 0, 55, 80
2, 58320, Note_off_c, 0, 50, 80
2, 58320, Note_off_c, 0, 43, 80
2, 58320, Note_on_c, 0, 55, 95
2, 58320, Note_on_c, 0, 50, 95
2, 58320, Note_on_c, 0, 43, 95
2, 58560, Note_off_c, 0, 55, 80
2, 58560, Note_off_c, 0, 50, 80
2, 58560, Note_off_c, 0, 43, 80
2, 58560, Note_on_c, 0, 55, 95
2, 58560, Note_on_c, 0, 50, 95
2, 58560, Note_on_c, 0, 43, 95
2, 58800, Note_off_c, 0, 55, 80
2, 58800, Note_off_c, 0, 50, 80
2, 58800, Note_off_c, 0, 43, 80
2, 58800, Note_on_c, 0, 55, 95
2, 58800, Note_on_c, 0, 50, 95
2, 58800, Note_on_c, 0, 43, 95
2, 59040, Note_off_c, 0, 55, 80
2, 59040, Note_off_c, 0, 50, 80
2, 59040, Note_off_c, 0, 43, 80
2, 59040, Note_on_c, 0, 55, 95
2, 59040, Note_on_c, 0, 50, 95
2, 59040, Note_on_c, 0, 43, 95
2, 59280, Note_off_c, 0, 55, 80
2, 59280, Note_off_c, 0, 50, 80
2, 59280, Note_off_c, 0, 43, 80
2, 59280, Note_on_c, 0, 55, 95
2, 59280, Note_on_c, 0, 50, 95
2, 59280, Note_on_c, 0, 43, 95
2, 59400, Note_off_c, 0, 55, 80
2, 59400, Note_off_c, 0, 50, 80
2, 59400, Note_off_c, 0, 43, 80
2, 59400, Note_on_c, 0, 55, 95
2, 59400, Note_on_c, 0, 50, 95
2, 59400, Note_on_c, 0, 43, 95
2, 59520, Note_off_c, 0, 55, 80
2, 59520, Note_off_c, 0, 50, 80
2, 59520, Note_off_c, 0, 43, 80
2, 59520, Note_on_c, 0, 55, 95
2, 59520, Note_on_c, 0, 50, 95
2, 59520, Note_on_c, 0, 43, 95
2, 59760, Note_off_c, 0, 55, 80
2, 59760, Note_off_c, 0, 50, 80
2, 59760, Note_off_c, 0, 43, 80
2, 59760, Note_on_c, 0, 55, 95
2, 59760, Note_on_c, 0, 50, 95
2, 59760, Note_on_c, 0, 43, 95
2, 60000, Note_off_c, 0, 55, 80
2, 60000, Note_off_c, 0, 50, 80
2, 60000, Note_off_c, 0, 43, 80
2, 60000, Note_on_c, 0, 55, 95
2, 60000, Note_on_c, 0, 50, 95
2, 60000, Note_on_c, 0, 43, 95
2, 60960, Note_off_c, 0, 55, 80
2, 60960, Note_off_c, 0, 50, 80
2, 60960, Note_off_c, 0, 43, 80
2, 66960, Note_on_c, 0, 55, 95
2, 66960, Note_on_c, 0, 50, 95
2, 66960, Note_on_c, 0, 43, 95
2, 67200, Note_off_c, 0, 55, 80
2, 67200, Note_off_c, 0, 50, 80
2, 67200, Note_off_c, 0, 43, 80
2, 67200, Note_on_c, 0, 58, 95
2, 67200, Note_on_c, 0, 53, 95
2, 67200, Note_on_c, 0, 46, 95
2, 67920, Note_off_c, 0, 58, 80
2, 67920, Note_off_c, 0, 53, 80
2, 67920, Note_off_c, 0, 46, 80
2, 67920, Note_on_c, 0, 58, 95
2, 67920, Note_on_c, 0, 53, 95
2, 67920, Note_on_c, 0, 46, 95
2, 68160, Note_off_c, 0, 58, 80
2, 68160, Note_off_c, 0, 53, 80
2, 68160, Note_off_c, 0, 46, 80
2, 68160, Note_on_c, 0, 55, 95
2, 68160, Note_on_c, 0, 50, 95
2, 68160, Note_on_c, 0, 43, 95
2, 71760, Note_off_c, 0, 55, 80
2, 71760, Note_off_c, 0, 50, 80
2, 71760, Note_off_c, 0, 43, 80
2, 71760, Note_on_c, 0, 55, 95
2, 71760, Note_on_c, 0, 50, 95
2, 71760, Note_on_c, 0, 43, 95
2, 71880, Note_off_c, 0, 55, 80
2, 71880, Note_off_c, 0, 50, 80
2, 71880, Note_off_c, 0, 43, 80
2, 71880, Note_on_c, 0, 55, 95
2, 71880, Note_on_c, 0, 50, 95
2, 71880, Note_on_c, 0, 43, 95
2, 72000, Note_off_c, 0, 55, 80
2, 72000, Note_off_c, 0, 50, 80
2, 72000, Note_off_c, 0, 43, 80
2, 72000, Note_on_c, 0, 55, 95
2, 72000, Note_on_c, 0, 50, 95
2, 72000, Note_on_c, 0, 43, 95
2, 72240, Note_off_c, 0, 55, 80
2, 72240, Note_off_c, 0, 50, 80
2, 72240, Note_off_c, 0, 43, 80
2, 72240, Note_on_c, 0, 55, 95
2, 72240, Note_on_c, 0, 50, 95
2, 72240, Note_on_c, 0, 43, 95
2, 72480, Note_off_c, 0, 55, 80
2, 72480, Note_off_c, 0, 50, 80
2, 72480, Note_off_c, 0, 43, 80
2, 72480, Note_on_c, 0, 55, 95
2, 72480, Note_on_c, 0, 50, 95
2, 72480, Note_on_c, 0, 43, 95
2, 73440, Note_off_c, 0, 55, 80
2, 73440, Note_off_c, 0, 50, 80
2, 73440, Note_off_c, 0, 43, 80
2, 79440, Note_on_c, 0, 55, 95
2, 79440, Note_on_c, 0, 50, 95
2, 79440, Note_on_c, 0, 43, 95
2, 79680, Note_off_c, 0, 55, 80
2, 79680, Note_off_c, 0, 50, 80
2, 79680, Note_off_c, 0, 43, 80
2, 79680, Note_on_c, 0, 58, 95
2, 79680, Note_on_c, 0, 53, 95
2, 79680, Note_on_c, 0, 46, 95
2, 80400, Note_off_c, 0, 58, 80
2, 80400, Note_off_c, 0, 53, 80
2, 80400, Note_off_c, 0, 46, 80
2, 80400, Note_on_c, 0, 58, 95
2, 80400, Note_on_c, 0, 53, 95
2, 80400, Note_on_c, 0, 46, 95
2, 80640, Note_off_c, 0, 58, 80
2, 80640, Note_off_c, 0, 53, 80
2, 80640, Note_off_c, 0, 46, 80
2, 80640, Note_on_c, 0, 55, 95
2, 80640, Note_on_c, 0, 50, 95
2, 80640, Note_on_c, 0, 43, 95
2, 84240, Note_off_c, 0, 55, 80
2, 84240, Note_off_c, 0, 50, 80
2, 84240, Note_off_c, 0, 43, 80
2, 84240, Note_on_c, 0, 55, 95
2, 84240, Note_on_c, 0, 50, 95
2, 84240, Note_on_c, 0, 43, 95
2, 84360, Note_off_c, 0, 55, 80
2, 84360, Note_off_c, 0, 50, 80
2, 84360, Note_off_c, 0, 43, 80
2, 84360, Note_on_c, 0, 55, 95
2, 84360, Note_on_c, 0, 50, 95
2, 84360, Note_on_c, 0, 43, 95
2, 84480, Note_off_c, 0, 55, 80
2, 84480, Note_off_c, 0, 50, 80
2, 84480, Note_off_c, 0, 43, 80
2, 84480, Note_on_c, 0, 62, 95
2, 84480, Note_on_c, 0, 57, 95
2, 84480, Note_on_c, 0, 50, 95
2, 84720, Note_off_c, 0, 62, 80
2, 84720, Note_off_c, 0, 57, 80
2, 84720, Note_off_c, 0, 50, 80
2, 84720, Note_on_c, 0, 62, 95
2, 84720, Note_on_c, 0, 57, 95
2, 84720, Note_on_c, 0, 50, 95
2, 84960, Note_off_c, 0, 62, 80
2, 84960, Note_off_c, 0, 57, 80
2, 84960, Note_off_c, 0, 50, 80
2, 84960, Note_on_c, 0, 62, 95
2, 84960, Note_on_c, 0, 57, 95
2, 84960, Note_on_c, 0, 50, 95
2, 85200, Note_off_c, 0, 62, 80
2, 85200, Note_off_c, 0, 57, 80
2, 85200, Note_off_c, 0, 50, 80
2, 85200, Note_on_c, 0, 62, 95
2, 85200, Note_on_c, 0, 57, 95
2, 85200, Note_on_c, 0, 50, 95
2, 85320, Note_off_c, 0, 62, 80
2, 85320, Note_off_c, 0, 57, 80
2, 85320, Note_off_c, 0, 50, 80
2, 85320, Note_on_c, 0, 62, 95
2, 85320, Note_on_c, 0, 57, 95
2, 85320, Note_on_c, 0, 50, 95
2, 85440, Note_off_c, 0, 62, 80
2, 85440, Note_off_c, 0, 57, 80
2, 85440, Note_off_c, 0, 50, 80
2, 85440, Note_on_c, 0, 55, 95
2, 85440, Note_on_c, 0, 50, 95
2, 85440, Note_on_c, 0, 43, 95
2, 85680, Note_off_c, 0, 55, 80
2, 85680, Note_off_c, 0, 50, 80
2, 85680, Note_off_c, 0, 43, 80
2, 85680, Note_on_c, 0, 55, 95
2, 85680, Note_on_c, 0, 50, 95
2, 85680, Note_on_c, 0, 43, 95
2, 85920, Note_off_c, 0, 55, 80
2, 85920, Note_off_c, 0, 50, 80
2, 85920, Note_off_c, 0, 43, 80
2, 85920, Note_on_c, 0, 55, 95
2, 85920, Note_on_c, 0, 50, 95
2, 85920, Note_on_c, 0, 43, 95
2, 86160, Note_off_c, 0, 55, 80
2, 86160, Note_off_c, 0, 50, 80
2, 86160, Note_off_c, 0, 43, 80
2, 86160, Note_on_c, 0, 55, 95
2, 86160, Note_on_c, 0, 50, 95
2, 86160, Note_on_c, 0, 43, 95
2, 86400, Note_off_c, 0, 55, 80
2, 86400, Note_off_c, 0, 50, 80
2, 86400, Note_off_c, 0, 43, 80
2, 86400, Note_on_c, 0, 53, 95
2, 86400, Note_on_c, 0, 48, 95
2, 86400, Note_on_c, 0, 41, 95
2, 86640, Note_off_c, 0, 53, 80
2, 86640, Note_off_c, 0, 48, 80
2, 86640, Note_off_c, 0, 41, 80
2, 86640, Note_on_c, 0, 53, 95
2, 86640, Note_on_c, 0, 48, 95
2, 86640, Note_on_c, 0, 41, 95
2, 86880, Note_off_c, 0, 53, 80
2, 86880, Note_off_c, 0, 48, 80
2, 86880, Note_off_c, 0, 41, 80
2, 86880, Note_on_c, 0, 53, 95
2, 86880, Note_on_c, 0, 48, 95
2, 86880, Note_on_c, 0, 41, 95
2, 87120, Note_off_c, 0, 53, 80
2, 87120, Note_off_c, 0, 48, 80
2, 87120, Note_off_c, 0, 41, 80
2, 87120, Note_on_c, 0, 53, 95
2, 87120, Note_on_c, 0, 48, 95
2, 87120, Note_on_c, 0, 41, 95
2, 87240, Note_off_c, 0, 53, 80
2, 87240, Note_off_c, 0, 48, 80
2, 87240, Note_off_c, 0, 41, 80
2, 87240, Note_on_c, 0, 53, 95
2, 87240, Note_on_c, 0, 48, 95
2, 87240, Note_on_c, 0, 41, 95
2, 87360, Note_off_c, 0, 53, 80
2, 87360, Note_off_c, 0, 48, 80
2, 87360, Note_off_c, 0, 41, 80
2, 87360, Note_on_c, 0, 58, 95
2, 87360, Note_on_c, 0, 53, 95
2, 87360, Note_on_c, 0, 46, 95
2, 87600, Note_off_c, 0, 58, 80
2, 87600, Note_off_c, 0, 53, 80
2, 87600, Note_off_c, 0, 46, 80
2, 87600, Note_on_c, 0, 58, 95
2, 87600, Note_on_c, 0, 53, 95
2, 87600, Note_on_c, 0, 46, 95
2, 87840, Note_off_c, 0, 58, 80
2, 87840, Note_off_c, 0, 53, 80
2, 87840, Note_off_c, 0, 46, 80
2, 87840, Note_on_c, 0, 58, 95
2, 87840, Note_on_c, 0, 53, 95
2, 87840, Note_on_c, 0, 46, 95
2, 88080, Note_off_c, 0, 58, 80
2, 88080, Note_off_c, 0, 53, 80
2, 88080, Note_off_c, 0, 46, 80
2, 88080, Note_on_c, 0, 58, 95
2, 88080, Note_on_c, 0, 53, 95
2, 88080, Note_on_c, 0, 46, 95
2, 88320, Note_off_c, 0, 58, 80
2, 88320, Note_off_c, 0, 53, 80
2, 88320, Note_off_c, 0, 46, 80
2, 88320, Note_on_c, 0, 60, 95
2, 88320, Note_on_c, 0, 55, 95
2, 88320, Note_on_c, 0, 48, 95
2, 88560, Note_off_c, 0, 60, 80
2, 88560, Note_off_c, 0, 55, 80
2, 88560, Note_off_c, 0, 48, 80
2, 88560, Note_on_c, 0, 60, 95
2, 88560, Note_on_c, 0, 55, 95
2, 88560, Note_on_c, 0, 48, 95
2, 88800, Note_off_c, 0, 60, 80
2, 88800, Note_off_c, 0, 55, 80
2, 88800, Note_off_c, 0, 48, 80
2, 88800, Note_on_c, 0, 60, 95
2, 88800, Note_on_c, 0, 55, 95
2, 88800, Note_on_c, 0, 48, 95
2, 89040, Note_off_c, 0, 60, 80
2, 89040, Note_off_c, 0, 55, 80
2, 89040, Note_off_c, 0, 48, 80
2, 89040, Note_on_c, 0, 60, 95
2, 89040, Note_on_c, 0, 55, 95
2, 89040, Note_on_c, 0, 48, 95
2, 89160, Note_off_c, 0, 60, 80
2, 89160, Note_off_c, 0, 55, 80
2, 89160, Note_off_c, 0, 48, 80
2, 89160, Note_on_c, 0, 60, 95
2, 89160, Note_on_c, 0, 55, 95
2, 89160, Note_on_c, 0, 48, 95
2, 89280, Note_off_c, 0, 60, 80
2, 89280, Note_off_c, 0, 55, 80
2, 89280, Note_off_c, 0, 48, 80
2, 89280, Note_on_c, 0, 55, 95
2, 89280, Note_on_c, 0, 50, 95
2, 89280, Note_on_c, 0, 43, 95
2, 89520, Note_off_c, 0, 55, 80
2, 89520, Note_off_c, 0, 50, 80
2, 89520, Note_off_c, 0, 43, 80
2, 89520, Note_on_c, 0, 55, 95
2, 89520, Note_on_c, 0, 50, 95
2, 89520, Note_on_c, 0, 43, 95
2, 89760, Note_off_c, 0, 55, 80
2, 89760, Note_off_c, 0, 50, 80
2, 89760, Note_off_c, 0, 43, 80
2, 89760, Note_on_c, 0, 55, 95
2, 89760, Note_on_c, 0, 50, 95
2, 89760, Note_on_c, 0, 43, 95
2, 90000, Note_off_c, 0, 55, 80
2, 90000, Note_off_c, 0, 50, 80
2, 90000, Note_off_c, 0, 43, 80
2, 90000, Note_on_c, 0, 55, 95
2, 90000, Note_on_c, 0, 50, 95
2, 90000, Note_on_c, 0, 43, 95
2, 90240, Note_off_c, 0, 55, 80
2, 90240, Note_off_c, 0, 50, 80
2, 90240, Note_off_c, 0, 43, 80
2, 90240, Note_on_c, 0, 62, 95
2, 90240, Note_on_c, 0, 57, 95
2, 90240, Note_on_c, 0, 50, 95
2, 90480, Note_off_c, 0, 62, 80
2, 90480, Note_off_c, 0, 57, 80
2, 90480, Note_off_c, 0, 50, 80
2, 90480, Note_on_c, 0, 62, 95
2, 90480, Note_on_c, 0, 57, 95
2, 90480, Note_on_c, 0, 50, 95
2, 90720, Note_off_c, 0, 62, 80
2, 90720, Note_off_c, 0, 57, 80
2, 90720, Note_off_c, 0, 50, 80
2, 90720, Note_on_c, 0, 62, 95
2, 90720, Note_on_c, 0, 57, 95
2, 90720, Note_on_c, 0, 50, 95
2, 90960, Note_off_c, 0, 62, 80
2, 90960, Note_off_c, 0, 57, 80
2, 90960, Note_off_c, 0, 50, 80
2, 90960, Note_on_c, 0, 62, 95
2, 90960, Note_on_c, 0, 57, 95
2, 90960, Note_on_c, 0, 50, 95
2, 91080, Note_off_c, 0, 62, 80
2, 91080, Note_off_c, 0, 57, 80
2, 91080, Note_off_c, 0, 50, 80
2, 91080, Note_on_c, 0, 62, 95
2, 91080, Note_on_c, 0, 57, 95
2, 91080, Note_on_c, 0, 50, 95
2, 91200, Note_off_c, 0, 62, 80
2, 91200, Note_off_c, 0, 57, 80
2, 91200, Note_off_c, 0, 50, 80
2, 91200, Note_on_c, 0, 55, 95
2, 91200, Note_on_c, 0, 50, 95
2, 91200, Note_on_c, 0, 43, 95
2, 91440, Note_off_c, 0, 55, 80
2, 91440, Note_off_c, 0, 50, 80
2, 91440, Note_off_c, 0, 43, 80
2, 91440, Note_on_c, 0, 55, 95
2, 91440, Note_on_c, 0, 50, 95
2, 91440, Note_on_c, 0, 43, 95
2, 91680, Note_off_c, 0, 55, 80
2, 91680, Note_off_c, 0, 50, 80
2, 91680, Note_off_c, 0, 43, 80
2, 91680, Note_on_c, 0, 55, 95
2, 91680, Note_on_c, 0, 50, 95
2, 91680, Note_on_c, 0, 43, 95
2, 91920, Note_off_c, 0, 55, 80
2, 91920, Note_off_c, 0, 50, 80
2, 91920, Note_off_c, 0, 43, 80
2, 91920, Note_on_c, 0, 55, 95
2, 91920, Note_on_c, 0, 50, 95
2, 91920, Note_on_c, 0, 43, 95
2, 92160, Note_off_c, 0, 55, 80
2, 92160, Note_off_c, 0, 50, 80
2, 92160, Note_off_c, 0, 43, 80
2, 92160, Note_on_c, 0, 53, 95
2, 92160, Note_on_c, 0, 48, 95
2, 92160, Note_on_c, 0, 41, 95
2, 92400, Note_off_c, 0, 53, 80
2, 92400, Note_off_c, 0, 48, 80
2, 92400, Note_off_c, 0, 41, 80
2, 92400, Note_on_c, 0, 53, 95
2, 92400, Note_on_c, 0, 48, 95
2, 92400, Note_on_c, 0, 41, 95
2, 92640, Note_off_c, 0, 53, 80
2, 92640, Note_off_c, 0, 48, 80
2, 92640, Note_off_c, 0, 41, 80
2, 92640, Note_on_c, 0, 53, 95
2, 92640, Note_on_c, 0, 48, 95
2, 92640, Note_on_c, 0, 41, 95
2, 92880, Note_off_c, 0, 53, 80
2, 92880, Note_off_c, 0, 48, 80
2, 92880, Note_off_c, 0, 41, 80
2, 92880, Note_on_c, 0, 53, 95
2, 92880, Note_on_c, 0, 48, 95
2, 92880, Note_on_c, 0, 41, 95
2, 93000, Note_off_c, 0, 53, 80
2, 93000, Note_off_c, 0, 48, 80
2, 93000, Note_off_c, 0, 41, 80
2, 93000, Note_on_c, 0, 53, 95
2, 93000, Note_on_c, 0, 48, 95
2, 93000, Note_on_c, 0, 41, 95
2, 93120, Note_off_c, 0, 53, 80
2, 93120, Note_off_c, 0, 48, 80
2, 93120, Note_off_c, 0, 41, 80
2, 93120, Note_on_c, 0, 58, 95
2, 93120, Note_on_c, 0, 53, 95
2, 93120, Note_on_c, 0, 46, 95
2, 93360, Note_off_c, 0, 58, 80
2, 93360, Note_off_c, 0, 53, 80
2, 93360, Note_off_c, 0, 46, 80
2, 93360, Note_on_c, 0, 58, 95
2, 93360, Note_on_c, 0, 53, 95
2, 93360, Note_on_c, 0, 46, 95
2, 93600, Note_off_c, 0, 58, 80
2, 93600, Note_off_c, 0, 53, 80
2, 93600, Note_off_c, 0, 46, 80
2, 93600, Note_on_c, 0, 58, 95
2, 93600, Note_on_c, 0, 53, 95
2, 93600, Note_on_c, 0, 46, 95
2, 93840, Note_off_c, 0, 58, 80
2, 93840, Note_off_c, 0, 53, 80
2, 93840, Note_off_c, 0, 46, 80
2, 93840, Note_on_c, 0, 58, 95
2, 93840, Note_on_c, 0, 53, 95
2, 93840, Note_on_c, 0, 46, 95
2, 94080, Note_off_c, 0, 58, 80
2, 94080, Note_off_c, 0, 53, 80
2, 94080, Note_off_c, 0, 46, 80
2, 94080, Note_on_c, 0, 60, 95
2, 94080, Note_on_c, 0, 55, 95
2, 94080, Note_on_c, 0, 48, 95
2, 94320, Note_off_c, 0, 60, 80
2, 94320, Note_off_c, 0, 55, 80
2, 94320, Note_off_c, 0, 48, 80
2, 94320, Note_on_c, 0, 60, 95
2, 94320, Note_on_c, 0, 55, 95
2, 94320, Note_on_c, 0, 48, 95
2, 94560, Note_off_c, 0, 60, 80
2, 94560, Note_off_c, 0, 55, 80
2, 94560, Note_off_c, 0, 48, 80
2, 94560, Note_on_c, 0, 60, 95
2, 94560, Note_on_c, 0, 55, 95
2, 94560, Note_on_c, 0, 48, 95
2, 94800, Note_off_c, 0, 60, 80
2, 94800, Note_off_c, 0, 55, 80
2, 94800, Note_off_c, 0, 48, 80
2, 94800, Note_on_c, 0, 60, 95
2, 94800, Note_on_c, 0, 55, 95
2, 94800, Note_on_c, 0, 48, 95
2, 94920, Note_off_c, 0, 60, 80
2, 94920, Note_off_c, 0, 55, 80
2, 94920, Note_off_c, 0, 48, 80
2, 94920, Note_on_c, 0, 60, 95
2, 94920, Note_on_c, 0, 55, 95
2, 94920, Note_on_c, 0, 48, 95
2, 95040, Note_off_c, 0, 60, 80
2, 95040, Note_off_c, 0, 55, 80
2, 95040, Note_off_c, 0, 48, 80
2, 95040, Note_on_c, 0, 55, 95
2, 95040, Note_on_c, 0, 50, 95
2, 95040, Note_on_c, 0, 43, 95
2, 95280, Note_off_c, 0, 55, 80
2, 95280, Note_off_c, 0, 50, 80
2, 95280, Note_off_c, 0, 43, 80
2, 95280, Note_on_c, 0, 55, 95
2, 95280, Note_on_c, 0, 50, 95
2, 95280, Note_on_c, 0, 43, 95
2, 95520, Note_off_c, 0, 55, 80
2, 95520, Note_off_c, 0, 50, 80
2, 95520, Note_off_c, 0, 43, 80
2, 95520, Note_on_c, 0, 55, 95
2, 95520, Note_on_c, 0, 50, 95
2, 95520, Note_on_c, 0, 43, 95
2, 95760, Note_off_c, 0, 55, 80
2, 95760, Note_off_c, 0, 50, 80
2, 95760, Note_off_c, 0, 43, 80
2, 95760, Note_on_c, 0, 55, 95
2, 95760, Note_on_c, 0, 50, 95
2, 95760, Note_on_c, 0, 43, 95
2, 96000, Note_off_c, 0, 55, 80
2, 96000, Note_off_c, 0, 50, 80
2, 96000, Note_off_c, 0, 43, 80
2, 96000, Note_on_c, 0, 62, 95
2, 96000, Note_on_c, 0, 57, 95
2, 96000, Note_on_c, 0, 50, 95
2, 96240, Note_off_c, 0, 62, 80
2, 96240, Note_off_c, 0, 57, 80
2, 96240, Note_off_c, 0, 50, 80
2, 96240, Note_on_c, 0, 62, 95
2, 96240, Note_on_c, 0, 57, 95
2, 96240, Note_on_c, 0, 50, 95
2, 96480, Note_off_c, 0, 62, 80
2, 96480, Note_off_c, 0, 57, 80
2, 96480, Note_off_c, 0, 50, 80
2, 96480, Note_on_c, 0, 62, 95
2, 96480, Note_on_c, 0, 57, 95
2, 96480, Note_on_c, 0, 50, 95
2, 96720, Note_off_c, 0, 62, 80
2, 96720, Note_off_c, 0, 57, 80
2, 96720, Note_off_c, 0, 50, 80
2, 96720, Note_on_c, 0, 62, 95
2, 96720, Note_on_c, 0, 57, 95
2, 96720, Note_on_c, 0, 50, 95
2, 96840, Note_off_c, 0, 62, 80
2, 96840, Note_off_c, 0, 57, 80
2, 96840, Note_off_c, 0, 50, 80
2, 96840, Note_on_c, 0, 62, 95
2, 96840, Note_on_c, 0, 57, 95
2, 96840, Note_on_c, 0, 50, 95
2, 96960, Note_off_c, 0, 62, 80
2, 96960, Note_off_c, 0, 57, 80
2, 96960, Note_off_c, 0, 50, 80
2, 96960, Note_on_c, 0, 55, 95
2, 96960, Note_on_c, 0, 50, 95
2, 96960, Note_on_c, 0, 43, 95
2, 97200, Note_off_c, 0, 55, 80
2, 97200, Note_off_c, 0, 50, 80
2, 97200, Note_off_c, 0, 43, 80
2, 97200, Note_on_c, 0, 55, 95
2, 97200, Note_on_c, 0, 50, 95
2, 97200, Note_on_c, 0, 43, 95
2, 97440, Note_off_c, 0, 55, 80
2, 97440, Note_off_c, 0, 50, 80
2, 97440, Note_off_c, 0, 43, 80
2, 97440, Note_on_c, 0, 55, 95
2, 97440, Note_on_c, 0, 50, 95
2, 97440, Note_on_c, 0, 43, 95
2, 97680, Note_off_c, 0, 55, 80
2, 97680, Note_off_c, 0, 50, 80
2, 97680, Note_off_c, 0, 43, 80
2, 97680, Note_on_c, 0, 55, 95
2, 97680, Note_on_c, 0, 50, 95
2, 97680, Note_on_c, 0, 43, 95
2, 97920, Note_off_c, 0, 55, 80
2, 97920, Note_off_c, 0, 50, 80
2, 97920, Note_off_c, 0, 43, 80
2, 97920, Note_on_c, 0, 53, 95
2, 97920, Note_on_c, 0, 48, 95
2, 97920, Note_on_c, 0, 41, 95
2, 98160, Note_off_c, 0, 53, 80
2, 98160, Note_off_c, 0, 48, 80
2, 98160, Note_off_c, 0, 41, 80
2, 98160, Note_on_c, 0, 53, 95
2, 98160, Note_on_c, 0, 48, 95
2, 98160, Note_on_c, 0, 41, 95
2, 98400, Note_off_c, 0, 53, 80
2, 98400, Note_off_c, 0, 48, 80
2, 98400, Note_off_c, 0, 41, 80
2, 98400, Note_on_c, 0, 53, 95
2, 98400, Note_on_c, 0, 48, 95
2, 98400, Note_on_c, 0, 41, 95
2, 98640, Note_off_c, 0, 53, 80
2, 98640, Note_off_c, 0, 48, 80
2, 98640, Note_off_c, 0, 41, 80
2, 98640, Note_on_c, 0, 53, 95
2, 98640, Note_on_c, 0, 48, 95
2, 98640, Note_on_c, 0, 41, 95
2, 98760, Note_off_c, 0, 53, 80
2, 98760, Note_off_c, 0, 48, 80
2, 98760, Note_off_c, 0, 41, 80
2, 98760, Note_on_c, 0, 53, 95
2, 98760, Note_on_c, 0, 48, 95
2, 98760, Note_on_c, 0, 41, 95
2, 98880, Note_off_c, 0, 53, 80
2, 98880, Note_off_c, 0, 48, 80
2, 98880, Note_off_c, 0, 41, 80
2, 98880, Note_on_c, 0, 58, 95
2, 98880, Note_on_c, 0, 53, 95
2, 98880, Note_on_c, 0, 46, 95
2, 99120, Note_off_c, 0, 58, 80
2, 99120, Note_off_c, 0, 53, 80
2, 99120, Note_off_c, 0, 46, 80
2, 99120, Note_on_c, 0, 58, 95
2, 99120, Note_on_c, 0, 53, 95
2, 99120, Note_on_c, 0, 46, 95
2, 99360, Note_off_c, 0, 58, 80
2, 99360, Note_off_c, 0, 53, 80
2, 99360, Note_off_c, 0, 46, 80
2, 99360, Note_on_c, 0, 58, 95
2, 99360, Note_on_c, 0, 53, 95
2, 99360, Note_on_c, 0, 46, 95
2, 99600, Note_off_c, 0, 58, 80
2, 99600, Note_off_c, 0, 53, 80
2, 99600, Note_off_c, 0, 46, 80
2, 99600, Note_on_c, 0, 58, 95
2, 99600, Note_on_c, 0, 53, 95
2, 99600, Note_on_c, 0, 46, 95
2, 99840, Note_off_c, 0, 58, 80
2, 99840, Note_off_c, 0, 53, 80
2, 99840, Note_off_c, 0, 46, 80
2, 99840, Note_on_c, 0, 62, 95
2, 99840, Note_on_c, 0, 57, 95
2, 99840, Note_on_c, 0, 50, 95
2, 100080, Note_off_c, 0, 62, 80
2, 100080, Note_off_c, 0, 57, 80
2, 100080, Note_off_c, 0, 50, 80
2, 100080, Note_on_c, 0, 62, 95
2, 100080, Note_on_c, 0, 57, 95
2, 100080, Note_on_c, 0, 50, 95
2, 100320, Note_off_c, 0, 62, 80
2, 100320, Note_off_c, 0, 57, 80
2, 100320, Note_off_c, 0, 50, 80
2, 100320, Note_on_c, 0, 62, 95
2, 100320, Note_on_c, 0, 57, 95
2, 100320, Note_on_c, 0, 50, 95
2, 100560, Note_off_c, 0, 62, 80
2, 100560, Note_off_c, 0, 57, 80
2, 100560, Note_off_c, 0, 50, 80
2, 100560, Note_on_c, 0, 62, 95
2, 100560, Note_on_c, 0, 57, 95
2, 100560, Note_on_c, 0, 50, 95
2, 100680, Note_off_c, 0, 62, 80
2, 100680, Note_off_c, 0, 57, 80
2, 100680, Note_off_c, 0, 50, 80
2, 100680, Note_on_c, 0, 62, 95
2, 100680, Note_on_c, 0, 57, 95
2, 100680, Note_on_c, 0, 50, 95
2, 100800, Note_off_c, 0, 62, 80
2, 100800, Note_off_c, 0, 57, 80
2, 100800, Note_off_c, 0, 50, 80
2, 100800, Note_on_c, 0, 55, 95
2, 100800, Note_on_c, 0, 50, 95
2, 100800, Note_on_c, 0, 43, 95
2, 101040, Note_off_c, 0, 55, 80
2, 101040, Note_off_c, 0, 50, 80
2, 101040, Note_off_c, 0, 43, 80
2, 101040, Note_on_c, 0, 55, 95
2, 101040, Note_on_c, 0, 50, 95
2, 101040, Note_on_c, 0, 43, 95
2, 101280, Note_off_c, 0, 55, 80
2, 101280, Note_off_c, 0, 50, 80
2, 101280, Note_off_c, 0, 43, 80
2, 101280, Note_on_c, 0, 55, 95
2, 101280, Note_on_c, 0, 50, 95
2, 101280, Note_on_c, 0, 43, 95
2, 101520, Note_off_c, 0, 55, 80
2, 101520, Note_off_c, 0, 50, 80
2, 101520, Note_off_c, 0, 43, 80
2, 101520, Note_on_c, 0, 55, 95
2, 101520, Note_on_c, 0, 50, 95
2, 101520, Note_on_c, 0, 43, 95
2, 101760, Note_off_c, 0, 55, 80
2, 101760, Note_off_c, 0, 50, 80
2, 101760, Note_off_c, 0, 43, 80
2, 101760, Note_on_c, 0, 55, 95
2, 101760, Note_on_c, 0, 50, 95
2, 101760, Note_on_c, 0, 43, 95
2, 102000, Note_off_c, 0, 55, 80
2, 102000, Note_off_c, 0, 50, 80
2, 102000, Note_off_c, 0, 43, 80
2, 102000, Note_on_c, 0, 55, 95
2, 102000, Note_on_c, 0, 50, 95
2, 102000, Note_on_c, 0, 43, 95
2, 102240, Note_off_c, 0, 55, 80
2, 102240, Note_off_c, 0, 50, 80
2, 102240, Note_off_c, 0, 43, 80
2, 102240, Note_on_c, 0, 55, 95
2, 102240, Note_on_c, 0, 50, 95
2, 102240, Note_on_c, 0, 43, 95
2, 102480, Note_off_c, 0, 55, 80
2, 102480, Note_off_c, 0, 50, 80
2, 102480, Note_off_c, 0, 43, 80
2, 102480, Note_on_c, 0, 55, 95
2, 102480, Note_on_c, 0, 50, 95
2, 102480, Note_on_c, 0, 43, 95
2, 102720, Note_off_c, 0, 55, 80
2, 102720, Note_off_c, 0, 50, 80
2, 102720, Note_off_c, 0, 43, 80
2, 102720, Note_on_c, 0, 55, 95
2, 102720, Note_on_c, 0, 50, 95
2, 102720, Note_on_c, 0, 43, 95
2, 102960, Note_off_c, 0, 55, 80
2, 102960, Note_off_c, 0, 50, 80
2, 102960, Note_off_c, 0, 43, 80
2, 102960, Note_on_c, 0, 55, 95
2, 102960, Note_on_c, 0, 50, 95
2, 102960, Note_on_c, 0, 43, 95
2, 103200, Note_off_c, 0, 55, 80
2, 103200, Note_off_c, 0, 50, 80
2, 103200, Note_off_c, 0, 43, 80
2, 103680, Note_on_c, 0, 62, 95
2, 103680, Note_on_c, 0, 58, 95
2, 103680, Note_on_c, 0, 53, 95
2, 103680, Note_on_c, 0, 46, 95
2, 105600, Note_off_c, 0, 62, 80
2, 105600, Note_off_c, 0, 58, 80
2, 105600, Note_off_c, 0, 53, 80
2, 105600, Note_off_c, 0, 46, 80
2, 105600, Note_on_c, 0, 66, 95
2, 105600, Note_on_c, 0, 62, 95
2, 105600, Note_on_c, 0, 57, 95
2, 105600, Note_on_c, 0, 50, 95
2, 106080, Note_off_c, 0, 66, 80
2, 106080, Note_off_c, 0, 62, 80
2, 106080, Note_off_c, 0, 57, 80
2, 106080, Note_off_c, 0, 50, 80
2, 106080, Note_on_c, 0, 66, 95
2, 106080, Note_on_c, 0, 62, 95
2, 106080, Note_on_c, 0, 57, 95
2, 106080, Note_on_c, 0, 50, 95
2, 106560, Note_off_c, 0, 66, 80
2, 106560, Note_off_c, 0, 62, 80
2, 106560, Note_off_c, 0, 57, 80
2, 106560, Note_off_c, 0, 50, 80
2, 106560, Note_on_c, 0, 62, 95
2, 106560, Note_on_c, 0, 58, 95
2, 106560, Note_on_c, 0, 53, 95
2, 106560, Note_on_c, 0, 46, 95
2, 108480, Note_off_c, 0, 62, 80
2, 108480, Note_off_c, 0, 58, 80
2, 108480, Note_off_c, 0, 53, 80
2, 108480, Note_off_c, 0, 46, 80
2, 108480, Note_on_c, 0, 66, 95
2, 108480, Note_on_c, 0, 62, 95
2, 108480, Note_on_c, 0, 57, 95
2, 108480, Note_on_c, 0, 50, 95
2, 108960, Note_off_c, 0, 66, 80
2, 108960, Note_off_c, 0, 62, 80
2, 108960, Note_off_c, 0, 57, 80
2, 108960, Note_off_c, 0, 50, 80
2, 108960, Note_on_c, 0, 66, 95
2, 108960, Note_on_c, 0, 62, 95
2, 108960, Note_on_c, 0, 57, 95
2, 108960, Note_on_c, 0, 50, 95
2, 109440, Note_off_c, 0, 66, 80
2, 109440, Note_off_c, 0, 62, 80
2, 109440, Note_off_c, 0, 57, 80
2, 109440, Note_off_c, 0, 50, 80
2, 109440, Note_on_c, 0, 62, 95
2, 109440, Note_on_c, 0, 58, 95
2, 109440, Note_on_c, 0, 53, 95
2, 109440, Note_on_c, 0, 46, 95
2, 111360, Note_off_c, 0, 62, 80
2, 111360, Note_off_c, 0, 58, 80
2, 111360, Note_off_c, 0, 53, 80
2, 111360, Note_off_c, 0, 46, 80
2, 111360, Note_on_c, 0, 57, 95
2, 111360, Note_on_c, 0, 53, 95
2, 111360, Note_on_c, 0, 48, 95
2, 111360, Note_on_c, 0, 41, 95
2, 111600, Note_off_c, 0, 57, 80
2, 111600, Note_off_c, 0, 53, 80
2, 111600, Note_off_c, 0, 48, 80
2, 111600, Note_off_c, 0, 41, 80
2, 111600, Note_on_c, 0, 57, 95
2, 111600, Note_on_c, 0, 53, 95
2, 111600, Note_on_c, 0, 48, 95
2, 111600, Note_on_c, 0, 41, 95
2, 111840, Note_off_c, 0, 57, 80
2, 111840, Note_off_c, 0, 53, 80
2, 111840, Note_off_c, 0, 48, 80
2, 111840, Note_off_c, 0, 41, 80
2, 111840, Note_on_c, 0, 57, 95
2, 111840, Note_on_c, 0, 53, 95
2, 111840, Note_on_c, 0, 48, 95
2, 111840, Note_on_c, 0, 41, 95
2, 112080, Note_off_c, 0, 57, 80
2, 112080, Note_off_c, 0, 53, 80
2, 112080, Note_off_c, 0, 48, 80
2, 112080, Note_off_c, 0, 41, 80
2, 112080, Note_on_c, 0, 57, 95
2, 112080, Note_on_c, 0, 53, 95
2, 112080, Note_on_c, 0, 48, 95
2, 112080, Note_on_c, 0, 41, 95
2, 112320, Note_off_c, 0, 57, 80
2, 112320, Note_off_c, 0, 53, 80
2, 112320, Note_off_c, 0, 48, 80
2, 112320, Note_off_c, 0, 41, 80
2, 112320, Note_on_c, 0, 62, 95
2, 112320, Note_on_c, 0, 58, 95
2, 112320, Note_on_c, 0, 53, 95
2, 112320, Note_on_c, 0, 46, 95
2, 112560, Note_off_c, 0, 62, 80
2, 112560, Note_off_c, 0, 58, 80
2, 112560, Note_off_c, 0, 53, 80
2, 112560, Note_off_c, 0, 46, 80
2, 112560, Note_on_c, 0, 62, 95
2, 112560, Note_on_c, 0, 58, 95
2, 112560, Note_on_c, 0, 53, 95
2, 112560, Note_on_c, 0, 46, 95
2, 112800, Note_off_c, 0, 62, 80
2, 112800, Note_off_c, 0, 58, 80
2, 112800, Note_off_c, 0, 53, 80
2, 112800, Note_off_c, 0, 46, 80
2, 112800, Note_on_c, 0, 62, 95
2, 112800, Note_on_c, 0, 58, 95
2, 112800, Note_on_c, 0, 53, 95
2, 112800, Note_on_c, 0, 46, 95
2, 113040, Note_off_c, 0, 62, 80
2, 113040, Note_off_c, 0, 58, 80
2, 113040, Note_off_c, 0, 53, 80
2, 113040, Note_off_c, 0, 46, 80
2, 113040, Note_on_c, 0, 62, 95
2, 113040, Note_on_c, 0, 58, 95
2, 113040, Note_on_c, 0, 53, 95
2, 113040, Note_on_c, 0, 46, 95
2, 113280, Note_off_c, 0, 62, 80
2, 113280, Note_off_c, 0, 58, 80
2, 113280, Note_off_c, 0, 53, 80
2, 113280, Note_off_c, 0, 46, 80
2, 113280, Note_on_c, 0, 65, 95
2, 113280, Note_on_c, 0, 60, 95
2, 113280, Note_on_c, 0, 57, 95
2, 113280, Note_on_c, 0, 53, 95
2, 113280, Note_on_c, 0, 48, 95
2, 113280, Note_on_c, 0, 41, 95
2, 113760, Note_off_c, 0, 65, 80
2, 113760, Note_off_c, 0, 60, 80
2, 113760, Note_off_c, 0, 57, 80
2, 113760, Note_off_c, 0, 53, 80
2, 113760, Note_off_c, 0, 48, 80
2, 113760, Note_off_c, 0, 41, 80
2, 113760, End_track
3, 0, Start_track
3, 0, Title_t, "David Lovering"
3, 0, Control_c, 9, 100, 0
3, 0, Control_c, 9, 101, 0
3, 0, Control_c, 9, 6, 12
3, 0, Pitch_bend_c, 9, 8192
3, 0, Control_c, 9, 101, 0
3, 0, Control_c, 9, 100, 1
3, 0, Control_c, 9, 6, 64
3, 0, Control_c, 9, 38, 0
3, 0, Control_c, 9, 101, 127
3, 0, Control_c, 9, 100, 127
3, 0, Program_c, 9, 0
3, 0, Control_c, 9, 0, 0
3, 0, Control_c, 9, 7, 104
3, 0, Control_c, 9, 10, 64
3, 0, Control_c, 9, 93, 0
3, 0, Control_c, 9, 91, 0
3, 0, Control_c, 9, 92, 0
3, 0, Control_c, 9, 95, 0
3, 1200, Note_on_c, 9, 35, 95
3, 1440, Note_off_c, 9, 35, 80
3, 1440, Note_on_c, 9, 38, 127
3, 1920, Note_off_c, 9, 38, 80
3, 1920, Note_on_c, 9, 42, 95
3, 1920, Note_on_c, 9, 49, 95
3, 1920, Note_on_c, 9, 35, 95
3, 2160, Note_off_c, 9, 42, 80
3, 2160, Note_off_c, 9, 49, 80
3, 2160, Note_off_c, 9, 35, 80
3, 2160, Note_on_c, 9, 42, 95
3, 2400, Note_off_c, 9, 42, 80
3, 2400, Note_on_c, 9, 42, 95
3, 2400, Note_on_c, 9, 38, 95
3, 2640, Note_off_c, 9, 42, 80
3, 2640, Note_off_c, 9, 38, 80
3, 2640, Note_on_c, 9, 42, 95
3, 2880, Note_off_c, 9, 42, 80
3, 2880, Note_on_c, 9, 42, 95
3, 2880, Note_on_c, 9, 35, 95
3, 3120, Note_off_c, 9, 42, 80
3, 3120, Note_off_c, 9, 35, 80
3, 3120, Note_on_c, 9, 42, 95
3, 3360, Note_off_c, 9, 42, 80
3, 3360, Note_on_c, 9, 42, 95
3, 3360, Note_on_c, 9, 38, 95
3, 3600, Note_off_c, 9, 42, 80
3, 3600, Note_off_c, 9, 38, 80
3, 3600, Note_on_c, 9, 42, 95
3, 3600, Note_on_c, 9, 35, 95
3, 3840, Note_off_c, 9, 42, 80
3, 3840, Note_off_c, 9, 35, 80
3, 3840, Note_on_c, 9, 42, 95
3, 3840, Note_on_c, 9, 35, 95
3, 4080, Note_off_c, 9, 42, 80
3, 4080, Note_off_c, 9, 35, 80
3, 4080, Note_on_c, 9, 42, 95
3, 4320, Note_off_c, 9, 42, 80
3, 4320, Note_on_c, 9, 42, 95
3, 4320, Note_on_c, 9, 38, 95
3, 4560, Note_off_c, 9, 42, 80
3, 4560, Note_off_c, 9, 38, 80
3, 4560, Note_on_c, 9, 42, 95
3, 4800, Note_off_c, 9, 42, 80
3, 4800, Note_on_c, 9, 42, 95
3, 4800, Note_on_c, 9, 35, 95
3, 5040, Note_off_c, 9, 42, 80
3, 5040, Note_off_c, 9, 35, 80
3, 5040, Note_on_c, 9, 42, 95
3, 5280, Note_off_c, 9, 42, 80
3, 5280, Note_on_c, 9, 42, 95
3, 5280, Note_on_c, 9, 38, 95
3, 5520, Note_off_c, 9, 42, 80
3, 5520, Note_off_c, 9, 38, 80
3, 5520, Note_on_c, 9, 42, 95
3, 5520, Note_on_c, 9, 35, 95
3, 5760, Note_off_c, 9, 42, 80
3, 5760, Note_off_c, 9, 35, 80
3, 5760, Note_on_c, 9, 42, 95
3, 5760, Note_on_c, 9, 35, 95
3, 6000, Note_off_c, 9, 42, 80
3, 6000, Note_off_c, 9, 35, 80
3, 6000, Note_on_c, 9, 42, 95
3, 6240, Note_off_c, 9, 42, 80
3, 6240, Note_on_c, 9, 42, 95
3, 6240, Note_on_c, 9, 38, 95
3, 6480, Note_off_c, 9, 42, 80
3, 6480, Note_off_c, 9, 38, 80
3, 6480, Note_on_c, 9, 42, 95
3, 6720, Note_off_c, 9, 42, 80
3, 6720, Note_on_c, 9, 42, 95
3, 6720, Note_on_c, 9, 35, 95
3, 6960, Note_off_c, 9, 42, 80
3, 6960, Note_off_c, 9, 35, 80
3, 6960, Note_on_c, 9, 42, 95
3, 7200, Note_off_c, 9, 42, 80
3, 7200, Note_on_c, 9, 42, 95
3, 7200, Note_on_c, 9, 38, 95
3, 7440, Note_off_c, 9, 42, 80
3, 7440, Note_off_c, 9, 38, 80
3, 7440, Note_on_c, 9, 42, 95
3, 7440, Note_on_c, 9, 35, 95
3, 7680, Note_off_c, 9, 42, 80
3, 7680, Note_off_c, 9, 35, 80
3, 7680, Note_on_c, 9, 42, 95
3, 7680, Note_on_c, 9, 35, 95
3, 7920, Note_off_c, 9, 42, 80
3, 7920, Note_off_c, 9, 35, 80
3, 7920, Note_on_c, 9, 42, 95
3, 8160, Note_off_c, 9, 42, 80
3, 8160, Note_on_c, 9, 42, 95
3, 8160, Note_on_c, 9, 38, 95
3, 8400, Note_off_c, 9, 42, 80
3, 8400, Note_off_c, 9, 38, 80
3, 8400, Note_on_c, 9, 42, 95
3, 8640, Note_off_c, 9, 42, 80
3, 8640, Note_on_c, 9, 42, 95
3, 8640, Note_on_c, 9, 35, 95
3, 8880, Note_off_c, 9, 42, 80
3, 8880, Note_off_c, 9, 35, 80
3, 8880, Note_on_c, 9, 42, 95
3, 9120, Note_off_c, 9, 42, 80
3, 9120, Note_on_c, 9, 42, 95
3, 9120, Note_on_c, 9, 38, 95
3, 9360, Note_off_c, 9, 42, 80
3, 9360, Note_off_c, 9, 38, 80
3, 9360, Note_on_c, 9, 42, 95
3, 9360, Note_on_c, 9, 35, 95
3, 9600, Note_off_c, 9, 42, 80
3, 9600, Note_off_c, 9, 35, 80
3, 9600, Note_on_c, 9, 42, 95
3, 9600, Note_on_c, 9, 35, 95
3, 9840, Note_off_c, 9, 42, 80
3, 9840, Note_off_c, 9, 35, 80
3, 9840, Note_on_c, 9, 42, 95
3, 10080, Note_off_c, 9, 42, 80
3, 10080, Note_on_c, 9, 42, 95
3, 10080, Note_on_c, 9, 38, 95
3, 10320, Note_off_c, 9, 42, 80
3, 10320, Note_off_c, 9, 38, 80
3, 10320, Note_on_c, 9, 42, 95
3, 10320, Note_on_c, 9, 35, 95
3, 10560, Note_off_c, 9, 42, 80
3, 10560, Note_off_c, 9, 35, 80
3, 10560, Note_on_c, 9, 42, 95
3, 10560, Note_on_c, 9, 35, 95
3, 10800, Note_off_c, 9, 42, 80
3, 10800, Note_off_c, 9, 35, 80
3, 10800, Note_on_c, 9, 42, 95
3, 11040, Note_off_c, 9, 42, 80
3, 11040, Note_on_c, 9, 42, 95
3, 11040, Note_on_c, 9, 38, 95
3, 11280, Note_off_c, 9, 42, 80
3, 11280, Note_off_c, 9, 38, 80
3, 11280, Note_on_c, 9, 42, 95
3, 11520, Note_off_c, 9, 42, 80
3, 11520, Note_on_c, 9, 42, 95
3, 11520, Note_on_c, 9, 35, 95
3, 11760, Note_off_c, 9, 42, 80
3, 11760, Note_off_c, 9, 35, 80
3, 11760, Note_on_c, 9, 42, 95
3, 12000, Note_off_c, 9, 42, 80
3, 12000, Note_on_c, 9, 42, 95
3, 12000, Note_on_c, 9, 38, 95
3, 12240, Note_off_c, 9, 42, 80
3, 12240, Note_off_c, 9, 38, 80
3, 12240, Note_on_c, 9, 42, 95
3, 12240, Note_on_c, 9, 35, 95
3, 12480, Note_off_c, 9, 42, 80
3, 12480, Note_off_c, 9, 35, 80
3, 12480, Note_on_c, 9, 42, 95
3, 12480, Note_on_c, 9, 35, 95
3, 12720, Note_off_c, 9, 42, 80
3, 12720, Note_off_c, 9, 35, 80
3, 12720, Note_on_c, 9, 42, 95
3, 12960, Note_off_c, 9, 42, 80
3, 12960, Note_on_c, 9, 42, 95
3, 12960, Note_on_c, 9, 38, 95
3, 13200, Note_off_c, 9, 42, 80
3, 13200, Note_off_c, 9, 38, 80
3, 13200, Note_on_c, 9, 42, 95
3, 13440, Note_off_c, 9, 42, 80
3, 13440, Note_on_c, 9, 42, 95
3, 13440, Note_on_c, 9, 35, 95
3, 13680, Note_off_c, 9, 42, 80
3, 13680, Note_off_c, 9, 35, 80
3, 13680, Note_on_c, 9, 42, 95
3, 13920, Note_off_c, 9, 42, 80
3, 13920, Note_on_c, 9, 42, 95
3, 13920, Note_on_c, 9, 38, 95
3, 14160, Note_off_c, 9, 42, 80
3, 14160, Note_off_c, 9, 38, 80
3, 14160, Note_on_c, 9, 42, 95
3, 14160, Note_on_c, 9, 38, 95
3, 14160, Note_on_c, 9, 35, 95
3, 14280, Note_off_c, 9, 38, 80
3, 14280, Note_on_c, 9, 38, 95
3, 14400, Note_off_c, 9, 42, 80
3, 14400, Note_off_c, 9, 35, 80
3, 14400, Note_off_c, 9, 38, 80
3, 14400, Note_on_c, 9, 42, 95
3, 14400, Note_on_c, 9, 49, 95
3, 14400, Note_on_c, 9, 35, 95
3, 14640, Note_off_c, 9, 42, 80
3, 14640, Note_off_c, 9, 49, 80
3, 14640, Note_off_c, 9, 35, 80
3, 14640, Note_on_c, 9, 42, 95
3, 14880, Note_off_c, 9, 42, 80
3, 14880, Note_on_c, 9, 42, 95
3, 14880, Note_on_c, 9, 38, 95
3, 15120, Note_off_c, 9, 42, 80
3, 15120, Note_off_c, 9, 38, 80
3, 15120, Note_on_c, 9, 42, 95
3, 15360, Note_off_c, 9, 42, 80
3, 15360, Note_on_c, 9, 42, 95
3, 15360, Note_on_c, 9, 35, 95
3, 15600, Note_off_c, 9, 42, 80
3, 15600, Note_off_c, 9, 35, 80
3, 15600, Note_on_c, 9, 42, 95
3, 15840, Note_off_c, 9, 42, 80
3, 15840, Note_on_c, 9, 42, 95
3, 15840, Note_on_c, 9, 38, 95
3, 16080, Note_off_c, 9, 42, 80
3, 16080, Note_off_c, 9, 38, 80
3, 16080, Note_on_c, 9, 42, 95
3, 16080, Note_on_c, 9, 35, 95
3, 16320, Note_off_c, 9, 42, 80
3, 16320, Note_off_c, 9, 35, 80
3, 16320, Note_on_c, 9, 42, 95
3, 16320, Note_on_c, 9, 35, 95
3, 16560, Note_off_c, 9, 42, 80
3, 16560, Note_off_c, 9, 35, 80
3, 16560, Note_on_c, 9, 42, 95
3, 16800, Note_off_c, 9, 42, 80
3, 16800, Note_on_c, 9, 42, 95
3, 16800, Note_on_c, 9, 38, 95
3, 17040, Note_off_c, 9, 42, 80
3, 17040, Note_off_c, 9, 38, 80
3, 17040, Note_on_c, 9, 42, 95
3, 17280, Note_off_c, 9, 42, 80
3, 17280, Note_on_c, 9, 42, 95
3, 17280, Note_on_c, 9, 35, 95
3, 17520, Note_off_c, 9, 42, 80
3, 17520, Note_off_c, 9, 35, 80
3, 17520, Note_on_c, 9, 42, 95
3, 17760, Note_off_c, 9, 42, 80
3, 17760, Note_on_c, 9, 42, 95
3, 17760, Note_on_c, 9, 38, 95
3, 18000, Note_off_c, 9, 42, 80
3, 18000, Note_off_c, 9, 38, 80
3, 18000, Note_on_c, 9, 42, 95
3, 18000, Note_on_c, 9, 35, 95
3, 18240, Note_off_c, 9, 42, 80
3, 18240, Note_off_c, 9, 35, 80
3, 18240, Note_on_c, 9, 42, 95
3, 18240, Note_on_c, 9, 35, 95
3, 18480, Note_off_c, 9, 42, 80
3, 18480, Note_off_c, 9, 35, 80
3, 18480, Note_on_c, 9, 42, 95
3, 18720, Note_off_c, 9, 42, 80
3, 18720, Note_on_c, 9, 42, 95
3, 18720, Note_on_c, 9, 38, 95
3, 18960, Note_off_c, 9, 42, 80
3, 18960, Note_off_c, 9, 38, 80
3, 18960, Note_on_c, 9, 42, 95
3, 19200, Note_off_c, 9, 42, 80
3, 19200, Note_on_c, 9, 42, 95
3, 19200, Note_on_c, 9, 35, 95
3, 19440, Note_off_c, 9, 42, 80
3, 19440, Note_off_c, 9, 35, 80
3, 19440, Note_on_c, 9, 42, 95
3, 19680, Note_off_c, 9, 42, 80
3, 19680, Note_on_c, 9, 42, 95
3, 19680, Note_on_c, 9, 38, 95
3, 19920, Note_off_c, 9, 42, 80
3, 19920, Note_off_c, 9, 38, 80
3, 19920, Note_on_c, 9, 42, 95
3, 19920, Note_on_c, 9, 35, 95
3, 20160, Note_off_c, 9, 42, 80
3, 20160, Note_off_c, 9, 35, 80
3, 20160, Note_on_c, 9, 42, 95
3, 20160, Note_on_c, 9, 35, 95
3, 20400, Note_off_c, 9, 42, 80
3, 20400, Note_off_c, 9, 35, 80
3, 20400, Note_on_c, 9, 42, 95
3, 20640, Note_off_c, 9, 42, 80
3, 20640, Note_on_c, 9, 42, 95
3, 20640, Note_on_c, 9, 38, 95
3, 20880, Note_off_c, 9, 42, 80
3, 20880, Note_off_c, 9, 38, 80
3, 20880, Note_on_c, 9, 42, 95
3, 21120, Note_off_c, 9, 42, 80
3, 21120, Note_on_c, 9, 42, 95
3, 21120, Note_on_c, 9, 35, 95
3, 21360, Note_off_c, 9, 42, 80
3, 21360, Note_off_c, 9, 35, 80
3, 21360, Note_on_c, 9, 42, 95
3, 21600, Note_off_c, 9, 42, 80
3, 21600, Note_on_c, 9, 42, 95
3, 21600, Note_on_c, 9, 38, 95
3, 21840, Note_off_c, 9, 42, 80
3, 21840, Note_off_c, 9, 38, 80
3, 21840, Note_on_c, 9, 42, 95
3, 21840, Note_on_c, 9, 35, 95
3, 22080, Note_off_c, 9, 42, 80
3, 22080, Note_off_c, 9, 35, 80
3, 22080, Note_on_c, 9, 42, 95
3, 22080, Note_on_c, 9, 35, 95
3, 22320, Note_off_c, 9, 42, 80
3, 22320, Note_off_c, 9, 35, 80
3, 22320, Note_on_c, 9, 42, 95
3, 22560, Note_off_c, 9, 42, 80
3, 22560, Note_on_c, 9, 42, 95
3, 22560, Note_on_c, 9, 38, 95
3, 22800, Note_off_c, 9, 42, 80
3, 22800, Note_off_c, 9, 38, 80
3, 22800, Note_on_c, 9, 42, 95
3, 22800, Note_on_c, 9, 35, 95
3, 23040, Note_off_c, 9, 42, 80
3, 23040, Note_off_c, 9, 35, 80
3, 23040, Note_on_c, 9, 42, 95
3, 23040, Note_on_c, 9, 35, 95
3, 23280, Note_off_c, 9, 42, 80
3, 23280, Note_off_c, 9, 35, 80
3, 23280, Note_on_c, 9, 42, 95
3, 23520, Note_off_c, 9, 42, 80
3, 23520, Note_on_c, 9, 42, 95
3, 23520, Note_on_c, 9, 38, 95
3, 23760, Note_off_c, 9, 42, 80
3, 23760, Note_off_c, 9, 38, 80
3, 23760, Note_on_c, 9, 42, 95
3, 24000, Note_off_c, 9, 42, 80
3, 24000, Note_on_c, 9, 42, 95
3, 24000, Note_on_c, 9, 35, 95
3, 24240, Note_off_c, 9, 42, 80
3, 24240, Note_off_c, 9, 35, 80
3, 24240, Note_on_c, 9, 42, 95
3, 24480, Note_off_c, 9, 42, 80
3, 24480, Note_on_c, 9, 42, 95
3, 24480, Note_on_c, 9, 38, 95
3, 24720, Note_off_c, 9, 42, 80
3, 24720, Note_off_c, 9, 38, 80
3, 24720, Note_on_c, 9, 42, 95
3, 24720, Note_on_c, 9, 35, 95
3, 24960, Note_off_c, 9, 42, 80
3, 24960, Note_off_c, 9, 35, 80
3, 24960, Note_on_c, 9, 42, 95
3, 24960, Note_on_c, 9, 35, 95
3, 25200, Note_off_c, 9, 42, 80
3, 25200, Note_off_c, 9, 35, 80
3, 25200, Note_on_c, 9, 42, 95
3, 25440, Note_off_c, 9, 42, 80
3, 25440, Note_on_c, 9, 42, 95
3, 25440, Note_on_c, 9, 38, 95
3, 25680, Note_off_c, 9, 42, 80
3, 25680, Note_off_c, 9, 38, 80
3, 25680, Note_on_c, 9, 42, 95
3, 25920, Note_off_c, 9, 42, 80
3, 25920, Note_on_c, 9, 42, 95
3, 25920, Note_on_c, 9, 35, 95
3, 26160, Note_off_c, 9, 42, 80
3, 26160, Note_off_c, 9, 35, 80
3, 26160, Note_on_c, 9, 42, 95
3, 26400, Note_off_c, 9, 42, 80
3, 26400, Note_on_c, 9, 42, 95
3, 26400, Note_on_c, 9, 38, 95
3, 26640, Note_off_c, 9, 42, 80
3, 26640, Note_off_c, 9, 38, 80
3, 26640, Note_on_c, 9, 42, 95
3, 26640, Note_on_c, 9, 35, 95
3, 26880, Note_off_c, 9, 42, 80
3, 26880, Note_off_c, 9, 35, 80
3, 26880, Note_on_c, 9, 42, 95
3, 26880, Note_on_c, 9, 49, 95
3, 26880, Note_on_c, 9, 35, 95
3, 27120, Note_off_c, 9, 42, 80
3, 27120, Note_off_c, 9, 49, 80
3, 27120, Note_off_c, 9, 35, 80
3, 27120, Note_on_c, 9, 42, 95
3, 27360, Note_off_c, 9, 42, 80
3, 27360, Note_on_c, 9, 42, 95
3, 27360, Note_on_c, 9, 38, 95
3, 27600, Note_off_c, 9, 42, 80
3, 27600, Note_off_c, 9, 38, 80
3, 27600, Note_on_c, 9, 42, 95
3, 27840, Note_off_c, 9, 42, 80
3, 27840, Note_on_c, 9, 42, 95
3, 27840, Note_on_c, 9, 35, 95
3, 28080, Note_off_c, 9, 42, 80
3, 28080, Note_off_c, 9, 35, 80
3, 28080, Note_on_c, 9, 42, 95
3, 28320, Note_off_c, 9, 42, 80
3, 28320, Note_on_c, 9, 42, 95
3, 28320, Note_on_c, 9, 38, 95
3, 28560, Note_off_c, 9, 42, 80
3, 28560, Note_off_c, 9, 38, 80
3, 28560, Note_on_c, 9, 42, 95
3, 28560, Note_on_c, 9, 35, 95
3, 28800, Note_off_c, 9, 42, 80
3, 28800, Note_off_c, 9, 35, 80
3, 28800, Note_on_c, 9, 42, 95
3, 28800, Note_on_c, 9, 35, 95
3, 29040, Note_off_c, 9, 42, 80
3, 29040, Note_off_c, 9, 35, 80
3, 29040, Note_on_c, 9, 42, 95
3, 29280, Note_off_c, 9, 42, 80
3, 29280, Note_on_c, 9, 42, 95
3, 29280, Note_on_c, 9, 38, 95
3, 29520, Note_off_c, 9, 42, 80
3, 29520, Note_off_c, 9, 38, 80
3, 29520, Note_on_c, 9, 42, 95
3, 29760, Note_off_c, 9, 42, 80
3, 29760, Note_on_c, 9, 42, 95
3, 29760, Note_on_c, 9, 35, 95
3, 30000, Note_off_c, 9, 42, 80
3, 30000, Note_off_c, 9, 35, 80
3, 30000, Note_on_c, 9, 42, 95
3, 30240, Note_off_c, 9, 42, 80
3, 30240, Note_on_c, 9, 42, 95
3, 30240, Note_on_c, 9, 38, 95
3, 30480, Note_off_c, 9, 42, 80
3, 30480, Note_off_c, 9, 38, 80
3, 30480, Note_on_c, 9, 42, 95
3, 30480, Note_on_c, 9, 35, 95
3, 30720, Note_off_c, 9, 42, 80
3, 30720, Note_off_c, 9, 35, 80
3, 30720, Note_on_c, 9, 42, 95
3, 30720, Note_on_c, 9, 35, 95
3, 30960, Note_off_c, 9, 42, 80
3, 30960, Note_off_c, 9, 35, 80
3, 30960, Note_on_c, 9, 42, 95
3, 31200, Note_off_c, 9, 42, 80
3, 31200, Note_on_c, 9, 42, 95
3, 31200, Note_on_c, 9, 38, 95
3, 31440, Note_off_c, 9, 42, 80
3, 31440, Note_off_c, 9, 38, 80
3, 31440, Note_on_c, 9, 42, 95
3, 31680, Note_off_c, 9, 42, 80
3, 31680, Note_on_c, 9, 42, 95
3, 31680, Note_on_c, 9, 35, 95
3, 31920, Note_off_c, 9, 42, 80
3, 31920, Note_off_c, 9, 35, 80
3, 31920, Note_on_c, 9, 42, 95
3, 32160, Note_off_c, 9, 42, 80
3, 32160, Note_on_c, 9, 42, 95
3, 32160, Note_on_c, 9, 38, 95
3, 32400, Note_off_c, 9, 42, 80
3, 32400, Note_off_c, 9, 38, 80
3, 32400, Note_on_c, 9, 42, 95
3, 32400, Note_on_c, 9, 35, 95
3, 32640, Note_off_c, 9, 42, 80
3, 32640, Note_off_c, 9, 35, 80
3, 32640, Note_on_c, 9, 42, 95
3, 32640, Note_on_c, 9, 35, 95
3, 32880, Note_off_c, 9, 42, 80
3, 32880, Note_off_c, 9, 35, 80
3, 32880, Note_on_c, 9, 42, 95
3, 33120, Note_off_c, 9, 42, 80
3, 33120, Note_on_c, 9, 42, 95
3, 33120, Note_on_c, 9, 38, 95
3, 33360, Note_off_c, 9, 42, 80
3, 33360, Note_off_c, 9, 38, 80
3, 33360, Note_on_c, 9, 42, 95
3, 33600, Note_off_c, 9, 42, 80
3, 33600, Note_on_c, 9, 42, 95
3, 33600, Note_on_c, 9, 35, 95
3, 33840, Note_off_c, 9, 42, 80
3, 33840, Note_off_c, 9, 35, 80
3, 33840, Note_on_c, 9, 42, 95
3, 34080, Note_off_c, 9, 42, 80
3, 34080, Note_on_c, 9, 42, 95
3, 34080, Note_on_c, 9, 38, 95
3, 34320, Note_off_c, 9, 42, 80
3, 34320, Note_off_c, 9, 38, 80
3, 34320, Note_on_c, 9, 42, 95
3, 34320, Note_on_c, 9, 35, 95
3, 34560, Note_off_c, 9, 42, 80
3, 34560, Note_off_c, 9, 35, 80
3, 34560, Note_on_c, 9, 42, 95
3, 34560, Note_on_c, 9, 35, 95
3, 34800, Note_off_c, 9, 42, 80
3, 34800, Note_off_c, 9, 35, 80
3, 34800, Note_on_c, 9, 42, 95
3, 35040, Note_off_c, 9, 42, 80
3, 35040, Note_on_c, 9, 42, 95
3, 35040, Note_on_c, 9, 38, 95
3, 35280, Note_off_c, 9, 42, 80
3, 35280, Note_off_c, 9, 38, 80
3, 35280, Note_on_c, 9, 42, 95
3, 35280, Note_on_c, 9, 35, 95
3, 35520, Note_off_c, 9, 42, 80
3, 35520, Note_off_c, 9, 35, 80
3, 35520, Note_on_c, 9, 42, 95
3, 35520, Note_on_c, 9, 35, 95
3, 35760, Note_off_c, 9, 42, 80
3, 35760, Note_off_c, 9, 35, 80
3, 35760, Note_on_c, 9, 42, 95
3, 36000, Note_off_c, 9, 42, 80
3, 36000, Note_on_c, 9, 42, 95
3, 36000, Note_on_c, 9, 38, 95
3, 36240, Note_off_c, 9, 42, 80
3, 36240, Note_off_c, 9, 38, 80
3, 36240, Note_on_c, 9, 42, 95
3, 36480, Note_off_c, 9, 42, 80
3, 36480, Note_on_c, 9, 42, 95
3, 36480, Note_on_c, 9, 35, 95
3, 36720, Note_off_c, 9, 42, 80
3, 36720, Note_off_c, 9, 35, 80
3, 36720, Note_on_c, 9, 42, 95
3, 36960, Note_off_c, 9, 42, 80
3, 36960, Note_on_c, 9, 42, 95
3, 36960, Note_on_c, 9, 38, 95
3, 37200, Note_off_c, 9, 42, 80
3, 37200, Note_off_c, 9, 38, 80
3, 37200, Note_on_c, 9, 42, 95
3, 37200, Note_on_c, 9, 35, 95
3, 37440, Note_off_c, 9, 42, 80
3, 37440, Note_off_c, 9, 35, 80
3, 37440, Note_on_c, 9, 42, 95
3, 37440, Note_on_c, 9, 35, 95
3, 37680, Note_off_c, 9, 42, 80
3, 37680, Note_off_c, 9, 35, 80
3, 37680, Note_on_c, 9, 42, 95
3, 37920, Note_off_c, 9, 42, 80
3, 37920, Note_on_c, 9, 42, 95
3, 37920, Note_on_c, 9, 38, 95
3, 38160, Note_off_c, 9, 42, 80
3, 38160, Note_off_c, 9, 38, 80
3, 38160, Note_on_c, 9, 42, 95
3, 38400, Note_off_c, 9, 42, 80
3, 38400, Note_on_c, 9, 42, 95
3, 38400, Note_on_c, 9, 35, 95
3, 38640, Note_off_c, 9, 42, 80
3, 38640, Note_off_c, 9, 35, 80
3, 38640, Note_on_c, 9, 42, 95
3, 38880, Note_off_c, 9, 42, 80
3, 38880, Note_on_c, 9, 42, 95
3, 38880, Note_on_c, 9, 57, 95
3, 38880, Note_on_c, 9, 38, 95
3, 39120, Note_off_c, 9, 42, 80
3, 39120, Note_off_c, 9, 57, 80
3, 39120, Note_off_c, 9, 38, 80
3, 39120, Note_on_c, 9, 42, 95
3, 39120, Note_on_c, 9, 35, 95
3, 39360, Note_off_c, 9, 42, 80
3, 39360, Note_off_c, 9, 35, 80
3, 39360, Note_on_c, 9, 42, 95
3, 39360, Note_on_c, 9, 49, 95
3, 39360, Note_on_c, 9, 35, 95
3, 39600, Note_off_c, 9, 42, 80
3, 39600, Note_off_c, 9, 49, 80
3, 39600, Note_off_c, 9, 35, 80
3, 39600, Note_on_c, 9, 42, 95
3, 39840, Note_off_c, 9, 42, 80
3, 39840, Note_on_c, 9, 42, 95
3, 39840, Note_on_c, 9, 38, 95
3, 40080, Note_off_c, 9, 42, 80
3, 40080, Note_off_c, 9, 38, 80
3, 40080, Note_on_c, 9, 42, 95
3, 40320, Note_off_c, 9, 42, 80
3, 40320, Note_on_c, 9, 42, 95
3, 40320, Note_on_c, 9, 35, 95
3, 40560, Note_off_c, 9, 42, 80
3, 40560, Note_off_c, 9, 35, 80
3, 40560, Note_on_c, 9, 42, 95
3, 40800, Note_off_c, 9, 42, 80
3, 40800, Note_on_c, 9, 42, 95
3, 40800, Note_on_c, 9, 38, 95
3, 41040, Note_off_c, 9, 42, 80
3, 41040, Note_off_c, 9, 38, 80
3, 41040, Note_on_c, 9, 42, 95
3, 41040, Note_on_c, 9, 35, 95
3, 41280, Note_off_c, 9, 42, 80
3, 41280, Note_off_c, 9, 35, 80
3, 41280, Note_on_c, 9, 42, 95
3, 41280, Note_on_c, 9, 35, 95
3, 41520, Note_off_c, 9, 42, 80
3, 41520, Note_off_c, 9, 35, 80
3, 41520, Note_on_c, 9, 42, 95
3, 41760, Note_off_c, 9, 42, 80
3, 41760, Note_on_c, 9, 42, 95
3, 41760, Note_on_c, 9, 38, 95
3, 42000, Note_off_c, 9, 42, 80
3, 42000, Note_off_c, 9, 38, 80
3, 42000, Note_on_c, 9, 42, 95
3, 42240, Note_off_c, 9, 42, 80
3, 42240, Note_on_c, 9, 42, 95
3, 42240, Note_on_c, 9, 35, 95
3, 42480, Note_off_c, 9, 42, 80
3, 42480, Note_off_c, 9, 35, 80
3, 42480, Note_on_c, 9, 42, 95
3, 42720, Note_off_c, 9, 42, 80
3, 42720, Note_on_c, 9, 42, 95
3, 42720, Note_on_c, 9, 38, 95
3, 42960, Note_off_c, 9, 42, 80
3, 42960, Note_off_c, 9, 38, 80
3, 42960, Note_on_c, 9, 42, 95
3, 42960, Note_on_c, 9, 35, 95
3, 43200, Note_off_c, 9, 42, 80
3, 43200, Note_off_c, 9, 35, 80
3, 43200, Note_on_c, 9, 42, 95
3, 43200, Note_on_c, 9, 35, 95
3, 43440, Note_off_c, 9, 42, 80
3, 43440, Note_off_c, 9, 35, 80
3, 43440, Note_on_c, 9, 42, 95
3, 43680, Note_off_c, 9, 42, 80
3, 43680, Note_on_c, 9, 42, 95
3, 43680, Note_on_c, 9, 38, 95
3, 43920, Note_off_c, 9, 42, 80
3, 43920, Note_off_c, 9, 38, 80
3, 43920, Note_on_c, 9, 42, 95
3, 44160, Note_off_c, 9, 42, 80
3, 44160, Note_on_c, 9, 42, 95
3, 44160, Note_on_c, 9, 35, 95
3, 44400, Note_off_c, 9, 42, 80
3, 44400, Note_off_c, 9, 35, 80
3, 44400, Note_on_c, 9, 42, 95
3, 44640, Note_off_c, 9, 42, 80
3, 44640, Note_on_c, 9, 42, 95
3, 44640, Note_on_c, 9, 38, 95
3, 44880, Note_off_c, 9, 42, 80
3, 44880, Note_off_c, 9, 38, 80
3, 44880, Note_on_c, 9, 42, 95
3, 44880, Note_on_c, 9, 35, 95
3, 45120, Note_off_c, 9, 42, 80
3, 45120, Note_off_c, 9, 35, 80
3, 45120, Note_on_c, 9, 42, 95
3, 45120, Note_on_c, 9, 35, 95
3, 45360, Note_off_c, 9, 42, 80
3, 45360, Note_off_c, 9, 35, 80
3, 45360, Note_on_c, 9, 42, 95
3, 45600, Note_off_c, 9, 42, 80
3, 45600, Note_on_c, 9, 42, 95
3, 45600, Note_on_c, 9, 38, 95
3, 45840, Note_off_c, 9, 42, 80
3, 45840, Note_off_c, 9, 38, 80
3, 45840, Note_on_c, 9, 42, 95
3, 46080, Note_off_c, 9, 42, 80
3, 46080, Note_on_c, 9, 42, 95
3, 46080, Note_on_c, 9, 35, 95
3, 46320, Note_off_c, 9, 42, 80
3, 46320, Note_off_c, 9, 35, 80
3, 46320, Note_on_c, 9, 42, 95
3, 46560, Note_off_c, 9, 42, 80
3, 46560, Note_on_c, 9, 42, 95
3, 46560, Note_on_c, 9, 38, 95
3, 46800, Note_off_c, 9, 42, 80
3, 46800, Note_off_c, 9, 38, 80
3, 46800, Note_on_c, 9, 42, 95
3, 46800, Note_on_c, 9, 35, 95
3, 47040, Note_off_c, 9, 42, 80
3, 47040, Note_off_c, 9, 35, 80
3, 47040, Note_on_c, 9, 42, 95
3, 47040, Note_on_c, 9, 35, 95
3, 47280, Note_off_c, 9, 42, 80
3, 47280, Note_off_c, 9, 35, 80
3, 47280, Note_on_c, 9, 42, 95
3, 47520, Note_off_c, 9, 42, 80
3, 47520, Note_on_c, 9, 42, 95
3, 47520, Note_on_c, 9, 38, 95
3, 47760, Note_off_c, 9, 42, 80
3, 47760, Note_off_c, 9, 38, 80
3, 47760, Note_on_c, 9, 42, 95
3, 48000, Note_off_c, 9, 42, 80
3, 48000, Note_on_c, 9, 42, 95
3, 48000, Note_on_c, 9, 35, 95
3, 48240, Note_off_c, 9, 42, 80
3, 48240, Note_off_c, 9, 35, 80
3, 48240, Note_on_c, 9, 42, 95
3, 48480, Note_off_c, 9, 42, 80
3, 48480, Note_on_c, 9, 42, 95
3, 48480, Note_on_c, 9, 38, 95
3, 48720, Note_off_c, 9, 42, 80
3, 48720, Note_off_c, 9, 38, 80
3, 48720, Note_on_c, 9, 42, 95
3, 48720, Note_on_c, 9, 35, 95
3, 48960, Note_off_c, 9, 42, 80
3, 48960, Note_off_c, 9, 35, 80
3, 48960, Note_on_c, 9, 42, 95
3, 48960, Note_on_c, 9, 35, 95
3, 49200, Note_off_c, 9, 42, 80
3, 49200, Note_off_c, 9, 35, 80
3, 49200, Note_on_c, 9, 42, 95
3, 49440, Note_off_c, 9, 42, 80
3, 49440, Note_on_c, 9, 42, 95
3, 49440, Note_on_c, 9, 38, 95
3, 49680, Note_off_c, 9, 42, 80
3, 49680, Note_off_c, 9, 38, 80
3, 49680, Note_on_c, 9, 42, 95
3, 49920, Note_off_c, 9, 42, 80
3, 49920, Note_on_c, 9, 42, 95
3, 49920, Note_on_c, 9, 35, 95
3, 50160, Note_off_c, 9, 42, 80
3, 50160, Note_off_c, 9, 35, 80
3, 50160, Note_on_c, 9, 42, 95
3, 50160, Note_on_c, 9, 49, 95
3, 50400, Note_off_c, 9, 42, 80
3, 50400, Note_off_c, 9, 49, 80
3, 50400, Note_on_c, 9, 42, 95
3, 50400, Note_on_c, 9, 57, 95
3, 50400, Note_on_c, 9, 38, 95
3, 50640, Note_off_c, 9, 42, 80
3, 50640, Note_off_c, 9, 38, 80
3, 50640, Note_on_c, 9, 42, 95
3, 50640, Note_on_c, 9, 35, 95
3, 50880, Note_off_c, 9, 57, 80
3, 50880, Note_off_c, 9, 42, 80
3, 50880, Note_off_c, 9, 35, 80
3, 50880, Note_on_c, 9, 42, 95
3, 50880, Note_on_c, 9, 49, 95
3, 50880, Note_on_c, 9, 35, 95
3, 51120, Note_off_c, 9, 42, 80
3, 51120, Note_off_c, 9, 49, 80
3, 51120, Note_off_c, 9, 35, 80
3, 51120, Note_on_c, 9, 42, 95
3, 51360, Note_off_c, 9, 42, 80
3, 51360, Note_on_c, 9, 42, 95
3, 51360, Note_on_c, 9, 38, 95
3, 51600, Note_off_c, 9, 42, 80
3, 51600, Note_off_c, 9, 38, 80
3, 51600, Note_on_c, 9, 42, 95
3, 51840, Note_off_c, 9, 42, 80
3, 51840, Note_on_c, 9, 42, 95
3, 51840, Note_on_c, 9, 35, 95
3, 52080, Note_off_c, 9, 42, 80
3, 52080, Note_off_c, 9, 35, 80
3, 52080, Note_on_c, 9, 42, 95
3, 52320, Note_off_c, 9, 42, 80
3, 52320, Note_on_c, 9, 42, 95
3, 52320, Note_on_c, 9, 38, 95
3, 52560, Note_off_c, 9, 42, 80
3, 52560, Note_off_c, 9, 38, 80
3, 52560, Note_on_c, 9, 42, 95
3, 52560, Note_on_c, 9, 35, 95
3, 52800, Note_off_c, 9, 42, 80
3, 52800, Note_off_c, 9, 35, 80
3, 52800, Note_on_c, 9, 42, 95
3, 52800, Note_on_c, 9, 35, 95
3, 53040, Note_off_c, 9, 42, 80
3, 53040, Note_off_c, 9, 35, 80
3, 53040, Note_on_c, 9, 42, 95
3, 53280, Note_off_c, 9, 42, 80
3, 53280, Note_on_c, 9, 42, 95
3, 53280, Note_on_c, 9, 38, 95
3, 53520, Note_off_c, 9, 42, 80
3, 53520, Note_off_c, 9, 38, 80
3, 53520, Note_on_c, 9, 42, 95
3, 53760, Note_off_c, 9, 42, 80
3, 53760, Note_on_c, 9, 42, 95
3, 53760, Note_on_c, 9, 35, 95
3, 54000, Note_off_c, 9, 42, 80
3, 54000, Note_off_c, 9, 35, 80
3, 54000, Note_on_c, 9, 42, 95
3, 54240, Note_off_c, 9, 42, 80
3, 54240, Note_on_c, 9, 42, 95
3, 54240, Note_on_c, 9, 38, 95
3, 54480, Note_off_c, 9, 42, 80
3, 54480, Note_off_c, 9, 38, 80
3, 54480, Note_on_c, 9, 42, 95
3, 54480, Note_on_c, 9, 35, 95
3, 54720, Note_off_c, 9, 42, 80
3, 54720, Note_off_c, 9, 35, 80
3, 54720, Note_on_c, 9, 42, 95
3, 54720, Note_on_c, 9, 35, 95
3, 54960, Note_off_c, 9, 42, 80
3, 54960, Note_off_c, 9, 35, 80
3, 54960, Note_on_c, 9, 42, 95
3, 55200, Note_off_c, 9, 42, 80
3, 55200, Note_on_c, 9, 42, 95
3, 55200, Note_on_c, 9, 38, 95
3, 55440, Note_off_c, 9, 42, 80
3, 55440, Note_off_c, 9, 38, 80
3, 55440, Note_on_c, 9, 42, 95
3, 55680, Note_off_c, 9, 42, 80
3, 55680, Note_on_c, 9, 42, 95
3, 55680, Note_on_c, 9, 35, 95
3, 55920, Note_off_c, 9, 42, 80
3, 55920, Note_off_c, 9, 35, 80
3, 55920, Note_on_c, 9, 42, 95
3, 56160, Note_off_c, 9, 42, 80
3, 56160, Note_on_c, 9, 42, 95
3, 56160, Note_on_c, 9, 38, 95
3, 56400, Note_off_c, 9, 42, 80
3, 56400, Note_off_c, 9, 38, 80
3, 56400, Note_on_c, 9, 42, 95
3, 56400, Note_on_c, 9, 35, 95
3, 56640, Note_off_c, 9, 42, 80
3, 56640, Note_off_c, 9, 35, 80
3, 56640, Note_on_c, 9, 42, 95
3, 56640, Note_on_c, 9, 35, 95
3, 56880, Note_off_c, 9, 42, 80
3, 56880, Note_off_c, 9, 35, 80
3, 56880, Note_on_c, 9, 42, 95
3, 57120, Note_off_c, 9, 42, 80
3, 57120, Note_on_c, 9, 42, 95
3, 57120, Note_on_c, 9, 38, 95
3, 57360, Note_off_c, 9, 42, 80
3, 57360, Note_off_c, 9, 38, 80
3, 57360, Note_on_c, 9, 42, 95
3, 57600, Note_off_c, 9, 42, 80
3, 57600, Note_on_c, 9, 42, 95
3, 57600, Note_on_c, 9, 35, 95
3, 57840, Note_off_c, 9, 42, 80
3, 57840, Note_off_c, 9, 35, 80
3, 57840, Note_on_c, 9, 42, 95
3, 58080, Note_off_c, 9, 42, 80
3, 58080, Note_on_c, 9, 42, 95
3, 58080, Note_on_c, 9, 38, 95
3, 58320, Note_off_c, 9, 42, 80
3, 58320, Note_off_c, 9, 38, 80
3, 58320, Note_on_c, 9, 42, 95
3, 58320, Note_on_c, 9, 35, 95
3, 58560, Note_off_c, 9, 42, 80
3, 58560, Note_off_c, 9, 35, 80
3, 58560, Note_on_c, 9, 42, 95
3, 58560, Note_on_c, 9, 35, 95
3, 58800, Note_off_c, 9, 42, 80
3, 58800, Note_off_c, 9, 35, 80
3, 58800, Note_on_c, 9, 42, 95
3, 59040, Note_off_c, 9, 42, 80
3, 59040, Note_on_c, 9, 42, 95
3, 59040, Note_on_c, 9, 49, 95
3, 59040, Note_on_c, 9, 38, 95
3, 59280, Note_off_c, 9, 42, 80
3, 59280, Note_off_c, 9, 49, 80
3, 59280, Note_off_c, 9, 38, 80
3, 59280, Note_on_c, 9, 42, 95
3, 59280, Note_on_c, 9, 35, 95
3, 59520, Note_off_c, 9, 42, 80
3, 59520, Note_off_c, 9, 35, 80
3, 59520, Note_on_c, 9, 42, 95
3, 59520, Note_on_c, 9, 49, 95
3, 59520, Note_on_c, 9, 35, 95
3, 59760, Note_off_c, 9, 42, 80
3, 59760, Note_off_c, 9, 49, 80
3, 59760, Note_off_c, 9, 35, 80
3, 59760, Note_on_c, 9, 42, 95
3, 60000, Note_off_c, 9, 42, 80
3, 60000, Note_on_c, 9, 42, 95
3, 60000, Note_on_c, 9, 38, 95
3, 60240, Note_off_c, 9, 42, 80
3, 60240, Note_off_c, 9, 38, 80
3, 60240, Note_on_c, 9, 42, 95
3, 60480, Note_off_c, 9, 42, 80
3, 60480, Note_on_c, 9, 42, 95
3, 60480, Note_on_c, 9, 35, 95
3, 60720, Note_off_c, 9, 42, 80
3, 60720, Note_off_c, 9, 35, 80
3, 60720, Note_on_c, 9, 42, 95
3, 60960, Note_off_c, 9, 42, 80
3, 60960, Note_on_c, 9, 42, 95
3, 60960, Note_on_c, 9, 38, 95
3, 61200, Note_off_c, 9, 42, 80
3, 61200, Note_off_c, 9, 38, 80
3, 61200, Note_on_c, 9, 42, 95
3, 61200, Note_on_c, 9, 35, 95
3, 61440, Note_off_c, 9, 42, 80
3, 61440, Note_off_c, 9, 35, 80
3, 61440, Note_on_c, 9, 42, 95
3, 61440, Note_on_c, 9, 35, 95
3, 61680, Note_off_c, 9, 42, 80
3, 61680, Note_off_c, 9, 35, 80
3, 61680, Note_on_c, 9, 42, 95
3, 61920, Note_off_c, 9, 42, 80
3, 61920, Note_on_c, 9, 42, 95
3, 61920, Note_on_c, 9, 38, 95
3, 62160, Note_off_c, 9, 42, 80
3, 62160, Note_off_c, 9, 38, 80
3, 62160, Note_on_c, 9, 42, 95
3, 62400, Note_off_c, 9, 42, 80
3, 62400, Note_on_c, 9, 42, 95
3, 62400, Note_on_c, 9, 35, 95
3, 62640, Note_off_c, 9, 42, 80
3, 62640, Note_off_c, 9, 35, 80
3, 62640, Note_on_c, 9, 42, 95
3, 62880, Note_off_c, 9, 42, 80
3, 62880, Note_on_c, 9, 42, 95
3, 62880, Note_on_c, 9, 38, 95
3, 63120, Note_off_c, 9, 42, 80
3, 63120, Note_off_c, 9, 38, 80
3, 63120, Note_on_c, 9, 42, 95
3, 63120, Note_on_c, 9, 35, 95
3, 63360, Note_off_c, 9, 42, 80
3, 63360, Note_off_c, 9, 35, 80
3, 63360, Note_on_c, 9, 42, 95
3, 63360, Note_on_c, 9, 35, 95
3, 63600, Note_off_c, 9, 42, 80
3, 63600, Note_off_c, 9, 35, 80
3, 63600, Note_on_c, 9, 42, 95
3, 63840, Note_off_c, 9, 42, 80
3, 63840, Note_on_c, 9, 42, 95
3, 63840, Note_on_c, 9, 38, 95
3, 64080, Note_off_c, 9, 42, 80
3, 64080, Note_off_c, 9, 38, 80
3, 64080, Note_on_c, 9, 42, 95
3, 64320, Note_off_c, 9, 42, 80
3, 64320, Note_on_c, 9, 42, 95
3, 64320, Note_on_c, 9, 35, 95
3, 64560, Note_off_c, 9, 42, 80
3, 64560, Note_off_c, 9, 35, 80
3, 64560, Note_on_c, 9, 42, 95
3, 64800, Note_off_c, 9, 42, 80
3, 64800, Note_on_c, 9, 42, 95
3, 64800, Note_on_c, 9, 38, 95
3, 65040, Note_off_c, 9, 42, 80
3, 65040, Note_off_c, 9, 38, 80
3, 65040, Note_on_c, 9, 42, 95
3, 65040, Note_on_c, 9, 35, 95
3, 65280, Note_off_c, 9, 42, 80
3, 65280, Note_off_c, 9, 35, 80
3, 65280, Note_on_c, 9, 42, 95
3, 65280, Note_on_c, 9, 35, 95
3, 65520, Note_off_c, 9, 42, 80
3, 65520, Note_off_c, 9, 35, 80
3, 65520, Note_on_c, 9, 42, 95
3, 65760, Note_off_c, 9, 42, 80
3, 65760, Note_on_c, 9, 42, 95
3, 65760, Note_on_c, 9, 38, 95
3, 66000, Note_off_c, 9, 42, 80
3, 66000, Note_off_c, 9, 38, 80
3, 66000, Note_on_c, 9, 42, 95
3, 66240, Note_off_c, 9, 42, 80
3, 66240, Note_on_c, 9, 42, 95
3, 66240, Note_on_c, 9, 35, 95
3, 66480, Note_off_c, 9, 42, 80
3, 66480, Note_off_c, 9, 35, 80
3, 66480, Note_on_c, 9, 42, 95
3, 66720, Note_off_c, 9, 42, 80
3, 66720, Note_on_c, 9, 42, 95
3, 66720, Note_on_c, 9, 38, 95
3, 66960, Note_off_c, 9, 42, 80
3, 66960, Note_off_c, 9, 38, 80
3, 66960, Note_on_c, 9, 42, 95
3, 66960, Note_on_c, 9, 35, 95
3, 67200, Note_off_c, 9, 42, 80
3, 67200, Note_off_c, 9, 35, 80
3, 67200, Note_on_c, 9, 42, 95
3, 67200, Note_on_c, 9, 35, 95
3, 67440, Note_off_c, 9, 42, 80
3, 67440, Note_off_c, 9, 35, 80
3, 67440, Note_on_c, 9, 42, 95
3, 67680, Note_off_c, 9, 42, 80
3, 67680, Note_on_c, 9, 42, 95
3, 67680, Note_on_c, 9, 38, 95
3, 67920, Note_off_c, 9, 42, 80
3, 67920, Note_off_c, 9, 38, 80
3, 67920, Note_on_c, 9, 42, 95
3, 67920, Note_on_c, 9, 35, 95
3, 68160, Note_off_c, 9, 42, 80
3, 68160, Note_off_c, 9, 35, 80
3, 68160, Note_on_c, 9, 42, 95
3, 68160, Note_on_c, 9, 35, 95
3, 68400, Note_off_c, 9, 42, 80
3, 68400, Note_off_c, 9, 35, 80
3, 68400, Note_on_c, 9, 42, 95
3, 68640, Note_off_c, 9, 42, 80
3, 68640, Note_on_c, 9, 42, 95
3, 68640, Note_on_c, 9, 38, 95
3, 68880, Note_off_c, 9, 42, 80
3, 68880, Note_off_c, 9, 38, 80
3, 68880, Note_on_c, 9, 42, 95
3, 69120, Note_off_c, 9, 42, 80
3, 69120, Note_on_c, 9, 42, 95
3, 69120, Note_on_c, 9, 35, 95
3, 69360, Note_off_c, 9, 42, 80
3, 69360, Note_off_c, 9, 35, 80
3, 69360, Note_on_c, 9, 42, 95
3, 69600, Note_off_c, 9, 42, 80
3, 69600, Note_on_c, 9, 42, 95
3, 69600, Note_on_c, 9, 38, 95
3, 69840, Note_off_c, 9, 42, 80
3, 69840, Note_off_c, 9, 38, 80
3, 69840, Note_on_c, 9, 42, 95
3, 69840, Note_on_c, 9, 35, 95
3, 70080, Note_off_c, 9, 42, 80
3, 70080, Note_off_c, 9, 35, 80
3, 70080, Note_on_c, 9, 42, 95
3, 70080, Note_on_c, 9, 35, 95
3, 70320, Note_off_c, 9, 42, 80
3, 70320, Note_off_c, 9, 35, 80
3, 70320, Note_on_c, 9, 42, 95
3, 70560, Note_off_c, 9, 42, 80
3, 70560, Note_on_c, 9, 42, 95
3, 70560, Note_on_c, 9, 38, 95
3, 70800, Note_off_c, 9, 42, 80
3, 70800, Note_off_c, 9, 38, 80
3, 70800, Note_on_c, 9, 42, 95
3, 71040, Note_off_c, 9, 42, 80
3, 71040, Note_on_c, 9, 42, 95
3, 71040, Note_on_c, 9, 35, 95
3, 71280, Note_off_c, 9, 42, 80
3, 71280, Note_off_c, 9, 35, 80
3, 71280, Note_on_c, 9, 42, 95
3, 71520, Note_off_c, 9, 42, 80
3, 71520, Note_on_c, 9, 42, 95
3, 71520, Note_on_c, 9, 38, 95
3, 71760, Note_off_c, 9, 42, 80
3, 71760, Note_off_c, 9, 38, 80
3, 71760, Note_on_c, 9, 42, 95
3, 71760, Note_on_c, 9, 35, 95
3, 72000, Note_off_c, 9, 42, 80
3, 72000, Note_off_c, 9, 35, 80
3, 72000, Note_on_c, 9, 42, 95
3, 72000, Note_on_c, 9, 49, 95
3, 72000, Note_on_c, 9, 35, 95
3, 72240, Note_off_c, 9, 42, 80
3, 72240, Note_off_c, 9, 49, 80
3, 72240, Note_off_c, 9, 35, 80
3, 72240, Note_on_c, 9, 42, 95
3, 72480, Note_off_c, 9, 42, 80
3, 72480, Note_on_c, 9, 42, 95
3, 72480, Note_on_c, 9, 38, 95
3, 72720, Note_off_c, 9, 42, 80
3, 72720, Note_off_c, 9, 38, 80
3, 72720, Note_on_c, 9, 42, 95
3, 72960, Note_off_c, 9, 42, 80
3, 72960, Note_on_c, 9, 42, 95
3, 72960, Note_on_c, 9, 35, 95
3, 73200, Note_off_c, 9, 42, 80
3, 73200, Note_off_c, 9, 35, 80
3, 73200, Note_on_c, 9, 42, 95
3, 73440, Note_off_c, 9, 42, 80
3, 73440, Note_on_c, 9, 42, 95
3, 73440, Note_on_c, 9, 38, 95
3, 73680, Note_off_c, 9, 42, 80
3, 73680, Note_off_c, 9, 38, 80
3, 73680, Note_on_c, 9, 42, 95
3, 73680, Note_on_c, 9, 35, 95
3, 73920, Note_off_c, 9, 42, 80
3, 73920, Note_off_c, 9, 35, 80
3, 73920, Note_on_c, 9, 42, 95
3, 73920, Note_on_c, 9, 35, 95
3, 74160, Note_off_c, 9, 42, 80
3, 74160, Note_off_c, 9, 35, 80
3, 74160, Note_on_c, 9, 42, 95
3, 74400, Note_off_c, 9, 42, 80
3, 74400, Note_on_c, 9, 42, 95
3, 74400, Note_on_c, 9, 38, 95
3, 74640, Note_off_c, 9, 42, 80
3, 74640, Note_off_c, 9, 38, 80
3, 74640, Note_on_c, 9, 42, 95
3, 74880, Note_off_c, 9, 42, 80
3, 74880, Note_on_c, 9, 42, 95
3, 74880, Note_on_c, 9, 35, 95
3, 75120, Note_off_c, 9, 42, 80
3, 75120, Note_off_c, 9, 35, 80
3, 75120, Note_on_c, 9, 42, 95
3, 75360, Note_off_c, 9, 42, 80
3, 75360, Note_on_c, 9, 42, 95
3, 75360, Note_on_c, 9, 38, 95
3, 75600, Note_off_c, 9, 42, 80
3, 75600, Note_off_c, 9, 38, 80
3, 75600, Note_on_c, 9, 42, 95
3, 75600, Note_on_c, 9, 35, 95
3, 75840, Note_off_c, 9, 42, 80
3, 75840, Note_off_c, 9, 35, 80
3, 75840, Note_on_c, 9, 42, 95
3, 75840, Note_on_c, 9, 35, 95
3, 76080, Note_off_c, 9, 42, 80
3, 76080, Note_off_c, 9, 35, 80
3, 76080, Note_on_c, 9, 42, 95
3, 76320, Note_off_c, 9, 42, 80
3, 76320, Note_on_c, 9, 42, 95
3, 76320, Note_on_c, 9, 38, 95
3, 76560, Note_off_c, 9, 42, 80
3, 76560, Note_off_c, 9, 38, 80
3, 76560, Note_on_c, 9, 42, 95
3, 76800, Note_off_c, 9, 42, 80
3, 76800, Note_on_c, 9, 42, 95
3, 76800, Note_on_c, 9, 35, 95
3, 77040, Note_off_c, 9, 42, 80
3, 77040, Note_off_c, 9, 35, 80
3, 77040, Note_on_c, 9, 42, 95
3, 77280, Note_off_c, 9, 42, 80
3, 77280, Note_on_c, 9, 42, 95
3, 77280, Note_on_c, 9, 38, 95
3, 77520, Note_off_c, 9, 42, 80
3, 77520, Note_off_c, 9, 38, 80
3, 77520, Note_on_c, 9, 42, 95
3, 77520, Note_on_c, 9, 35, 95
3, 77760, Note_off_c, 9, 42, 80
3, 77760, Note_off_c, 9, 35, 80
3, 77760, Note_on_c, 9, 42, 95
3, 77760, Note_on_c, 9, 35, 95
3, 78000, Note_off_c, 9, 42, 80
3, 78000, Note_off_c, 9, 35, 80
3, 78000, Note_on_c, 9, 42, 95
3, 78240, Note_off_c, 9, 42, 80
3, 78240, Note_on_c, 9, 42, 95
3, 78240, Note_on_c, 9, 38, 95
3, 78480, Note_off_c, 9, 42, 80
3, 78480, Note_off_c, 9, 38, 80
3, 78480, Note_on_c, 9, 42, 95
3, 78720, Note_off_c, 9, 42, 80
3, 78720, Note_on_c, 9, 42, 95
3, 78720, Note_on_c, 9, 35, 95
3, 78960, Note_off_c, 9, 42, 80
3, 78960, Note_off_c, 9, 35, 80
3, 78960, Note_on_c, 9, 42, 95
3, 79200, Note_off_c, 9, 42, 80
3, 79200, Note_on_c, 9, 42, 95
3, 79200, Note_on_c, 9, 38, 95
3, 79440, Note_off_c, 9, 42, 80
3, 79440, Note_off_c, 9, 38, 80
3, 79440, Note_on_c, 9, 42, 95
3, 79440, Note_on_c, 9, 35, 95
3, 79680, Note_off_c, 9, 42, 80
3, 79680, Note_off_c, 9, 35, 80
3, 79680, Note_on_c, 9, 42, 95
3, 79680, Note_on_c, 9, 35, 95
3, 79920, Note_off_c, 9, 42, 80
3, 79920, Note_off_c, 9, 35, 80
3, 79920, Note_on_c, 9, 42, 95
3, 80160, Note_off_c, 9, 42, 80
3, 80160, Note_on_c, 9, 42, 95
3, 80160, Note_on_c, 9, 38, 95
3, 80400, Note_off_c, 9, 42, 80
3, 80400, Note_off_c, 9, 38, 80
3, 80400, Note_on_c, 9, 42, 95
3, 80400, Note_on_c, 9, 35, 95
3, 80640, Note_off_c, 9, 42, 80
3, 80640, Note_off_c, 9, 35, 80
3, 80640, Note_on_c, 9, 42, 95
3, 80640, Note_on_c, 9, 35, 95
3, 80880, Note_off_c, 9, 42, 80
3, 80880, Note_off_c, 9, 35, 80
3, 80880, Note_on_c, 9, 42, 95
3, 81120, Note_off_c, 9, 42, 80
3, 81120, Note_on_c, 9, 42, 95
3, 81120, Note_on_c, 9, 38, 95
3, 81360, Note_off_c, 9, 42, 80
3, 81360, Note_off_c, 9, 38, 80
3, 81360, Note_on_c, 9, 42, 95
3, 81600, Note_off_c, 9, 42, 80
3, 81600, Note_on_c, 9, 42, 95
3, 81600, Note_on_c, 9, 35, 95
3, 81840, Note_off_c, 9, 42, 80
3, 81840, Note_off_c, 9, 35, 80
3, 81840, Note_on_c, 9, 42, 95
3, 82080, Note_off_c, 9, 42, 80
3, 82080, Note_on_c, 9, 42, 95
3, 82080, Note_on_c, 9, 38, 95
3, 82320, Note_off_c, 9, 42, 80
3, 82320, Note_off_c, 9, 38, 80
3, 82320, Note_on_c, 9, 42, 95
3, 82320, Note_on_c, 9, 35, 95
3, 82560, Note_off_c, 9, 42, 80
3, 82560, Note_off_c, 9, 35, 80
3, 82560, Note_on_c, 9, 42, 95
3, 82560, Note_on_c, 9, 35, 95
3, 82800, Note_off_c, 9, 42, 80
3, 82800, Note_off_c, 9, 35, 80
3, 82800, Note_on_c, 9, 42, 95
3, 83040, Note_off_c, 9, 42, 80
3, 83040, Note_on_c, 9, 42, 95
3, 83040, Note_on_c, 9, 38, 95
3, 83280, Note_off_c, 9, 42, 80
3, 83280, Note_off_c, 9, 38, 80
3, 83280, Note_on_c, 9, 42, 95
3, 83520, Note_off_c, 9, 42, 80
3, 83520, Note_on_c, 9, 42, 95
3, 83520, Note_on_c, 9, 35, 95
3, 83760, Note_off_c, 9, 42, 80
3, 83760, Note_off_c, 9, 35, 80
3, 83760, Note_on_c, 9, 42, 95
3, 84000, Note_off_c, 9, 42, 80
3, 84000, Note_on_c, 9, 42, 95
3, 84000, Note_on_c, 9, 57, 95
3, 84000, Note_on_c, 9, 38, 95
3, 84240, Note_off_c, 9, 42, 80
3, 84240, Note_off_c, 9, 57, 80
3, 84240, Note_off_c, 9, 38, 80
3, 84240, Note_on_c, 9, 42, 95
3, 84240, Note_on_c, 9, 35, 95
3, 84480, Note_off_c, 9, 42, 80
3, 84480, Note_off_c, 9, 35, 80
3, 84480, Note_on_c, 9, 42, 95
3, 84480, Note_on_c, 9, 49, 95
3, 84480, Note_on_c, 9, 35, 95
3, 84720, Note_off_c, 9, 42, 80
3, 84720, Note_off_c, 9, 49, 80
3, 84720, Note_off_c, 9, 35, 80
3, 84720, Note_on_c, 9, 42, 95
3, 84960, Note_off_c, 9, 42, 80
3, 84960, Note_on_c, 9, 42, 95
3, 84960, Note_on_c, 9, 38, 95
3, 85200, Note_off_c, 9, 42, 80
3, 85200, Note_off_c, 9, 38, 80
3, 85200, Note_on_c, 9, 42, 95
3, 85440, Note_off_c, 9, 42, 80
3, 85440, Note_on_c, 9, 42, 95
3, 85440, Note_on_c, 9, 35, 95
3, 85680, Note_off_c, 9, 42, 80
3, 85680, Note_off_c, 9, 35, 80
3, 85680, Note_on_c, 9, 42, 95
3, 85920, Note_off_c, 9, 42, 80
3, 85920, Note_on_c, 9, 42, 95
3, 85920, Note_on_c, 9, 38, 95
3, 86160, Note_off_c, 9, 42, 80
3, 86160, Note_off_c, 9, 38, 80
3, 86160, Note_on_c, 9, 42, 95
3, 86160, Note_on_c, 9, 35, 95
3, 86400, Note_off_c, 9, 42, 80
3, 86400, Note_off_c, 9, 35, 80
3, 86400, Note_on_c, 9, 42, 95
3, 86400, Note_on_c, 9, 35, 95
3, 86640, Note_off_c, 9, 42, 80
3, 86640, Note_off_c, 9, 35, 80
3, 86640, Note_on_c, 9, 42, 95
3, 86880, Note_off_c, 9, 42, 80
3, 86880, Note_on_c, 9, 42, 95
3, 86880, Note_on_c, 9, 38, 95
3, 87120, Note_off_c, 9, 42, 80
3, 87120, Note_off_c, 9, 38, 80
3, 87120, Note_on_c, 9, 42, 95
3, 87360, Note_off_c, 9, 42, 80
3, 87360, Note_on_c, 9, 42, 95
3, 87360, Note_on_c, 9, 35, 95
3, 87600, Note_off_c, 9, 42, 80
3, 87600, Note_off_c, 9, 35, 80
3, 87600, Note_on_c, 9, 42, 95
3, 87840, Note_off_c, 9, 42, 80
3, 87840, Note_on_c, 9, 42, 95
3, 87840, Note_on_c, 9, 38, 95
3, 88080, Note_off_c, 9, 42, 80
3, 88080, Note_off_c, 9, 38, 80
3, 88080, Note_on_c, 9, 42, 95
3, 88080, Note_on_c, 9, 35, 95
3, 88320, Note_off_c, 9, 42, 80
3, 88320, Note_off_c, 9, 35, 80
3, 88320, Note_on_c, 9, 42, 95
3, 88320, Note_on_c, 9, 35, 95
3, 88560, Note_off_c, 9, 42, 80
3, 88560, Note_off_c, 9, 35, 80
3, 88560, Note_on_c, 9, 42, 95
3, 88800, Note_off_c, 9, 42, 80
3, 88800, Note_on_c, 9, 42, 95
3, 88800, Note_on_c, 9, 38, 95
3, 89040, Note_off_c, 9, 42, 80
3, 89040, Note_off_c, 9, 38, 80
3, 89040, Note_on_c, 9, 42, 95
3, 89280, Note_off_c, 9, 42, 80
3, 89280, Note_on_c, 9, 42, 95
3, 89280, Note_on_c, 9, 35, 95
3, 89520, Note_off_c, 9, 42, 80
3, 89520, Note_off_c, 9, 35, 80
3, 89520, Note_on_c, 9, 42, 95
3, 89760, Note_off_c, 9, 42, 80
3, 89760, Note_on_c, 9, 42, 95
3, 89760, Note_on_c, 9, 38, 95
3, 90000, Note_off_c, 9, 42, 80
3, 90000, Note_off_c, 9, 38, 80
3, 90000, Note_on_c, 9, 42, 95
3, 90000, Note_on_c, 9, 35, 95
3, 90240, Note_off_c, 9, 42, 80
3, 90240, Note_off_c, 9, 35, 80
3, 90240, Note_on_c, 9, 42, 95
3, 90240, Note_on_c, 9, 35, 95
3, 90480, Note_off_c, 9, 42, 80
3, 90480, Note_off_c, 9, 35, 80
3, 90480, Note_on_c, 9, 42, 95
3, 90720, Note_off_c, 9, 42, 80
3, 90720, Note_on_c, 9, 42, 95
3, 90720, Note_on_c, 9, 38, 95
3, 90960, Note_off_c, 9, 42, 80
3, 90960, Note_off_c, 9, 38, 80
3, 90960, Note_on_c, 9, 42, 95
3, 91200, Note_off_c, 9, 42, 80
3, 91200, Note_on_c, 9, 42, 95
3, 91200, Note_on_c, 9, 35, 95
3, 91440, Note_off_c, 9, 42, 80
3, 91440, Note_off_c, 9, 35, 80
3, 91440, Note_on_c, 9, 42, 95
3, 91680, Note_off_c, 9, 42, 80
3, 91680, Note_on_c, 9, 42, 95
3, 91680, Note_on_c, 9, 38, 95
3, 91920, Note_off_c, 9, 42, 80
3, 91920, Note_off_c, 9, 38, 80
3, 91920, Note_on_c, 9, 42, 95
3, 91920, Note_on_c, 9, 35, 95
3, 92160, Note_off_c, 9, 42, 80
3, 92160, Note_off_c, 9, 35, 80
3, 92160, Note_on_c, 9, 42, 95
3, 92160, Note_on_c, 9, 35, 95
3, 92400, Note_off_c, 9, 42, 80
3, 92400, Note_off_c, 9, 35, 80
3, 92400, Note_on_c, 9, 42, 95
3, 92640, Note_off_c, 9, 42, 80
3, 92640, Note_on_c, 9, 42, 95
3, 92640, Note_on_c, 9, 38, 95
3, 92880, Note_off_c, 9, 42, 80
3, 92880, Note_off_c, 9, 38, 80
3, 92880, Note_on_c, 9, 42, 95
3, 93120, Note_off_c, 9, 42, 80
3, 93120, Note_on_c, 9, 42, 95
3, 93120, Note_on_c, 9, 35, 95
3, 93360, Note_off_c, 9, 42, 80
3, 93360, Note_off_c, 9, 35, 80
3, 93360, Note_on_c, 9, 42, 95
3, 93600, Note_off_c, 9, 42, 80
3, 93600, Note_on_c, 9, 42, 95
3, 93600, Note_on_c, 9, 38, 95
3, 93840, Note_off_c, 9, 42, 80
3, 93840, Note_off_c, 9, 38, 80
3, 93840, Note_on_c, 9, 42, 95
3, 93840, Note_on_c, 9, 35, 95
3, 94080, Note_off_c, 9, 42, 80
3, 94080, Note_off_c, 9, 35, 80
3, 94080, Note_on_c, 9, 42, 95
3, 94080, Note_on_c, 9, 35, 95
3, 94320, Note_off_c, 9, 42, 80
3, 94320, Note_off_c, 9, 35, 80
3, 94320, Note_on_c, 9, 42, 95
3, 94560, Note_off_c, 9, 42, 80
3, 94560, Note_on_c, 9, 42, 95
3, 94560, Note_on_c, 9, 38, 95
3, 94800, Note_off_c, 9, 42, 80
3, 94800, Note_off_c, 9, 38, 80
3, 94800, Note_on_c, 9, 42, 95
3, 95040, Note_off_c, 9, 42, 80
3, 95040, Note_on_c, 9, 42, 95
3, 95040, Note_on_c, 9, 35, 95
3, 95280, Note_off_c, 9, 42, 80
3, 95280, Note_off_c, 9, 35, 80
3, 95280, Note_on_c, 9, 42, 95
3, 95280, Note_on_c, 9, 49, 95
3, 95520, Note_off_c, 9, 42, 80
3, 95520, Note_off_c, 9, 49, 80
3, 95520, Note_on_c, 9, 42, 95
3, 95520, Note_on_c, 9, 57, 95
3, 95520, Note_on_c, 9, 38, 95
3, 95760, Note_off_c, 9, 42, 80
3, 95760, Note_off_c, 9, 38, 80
3, 95760, Note_on_c, 9, 42, 95
3, 95760, Note_on_c, 9, 35, 95
3, 96000, Note_off_c, 9, 57, 80
3, 96000, Note_off_c, 9, 42, 80
3, 96000, Note_off_c, 9, 35, 80
3, 96000, Note_on_c, 9, 42, 95
3, 96000, Note_on_c, 9, 49, 95
3, 96000, Note_on_c, 9, 35, 95
3, 96240, Note_off_c, 9, 42, 80
3, 96240, Note_off_c, 9, 49, 80
3, 96240, Note_off_c, 9, 35, 80
3, 96240, Note_on_c, 9, 42, 95
3, 96480, Note_off_c, 9, 42, 80
3, 96480, Note_on_c, 9, 42, 95
3, 96480, Note_on_c, 9, 38, 95
3, 96720, Note_off_c, 9, 42, 80
3, 96720, Note_off_c, 9, 38, 80
3, 96720, Note_on_c, 9, 42, 95
3, 96960, Note_off_c, 9, 42, 80
3, 96960, Note_on_c, 9, 42, 95
3, 96960, Note_on_c, 9, 35, 95
3, 97200, Note_off_c, 9, 42, 80
3, 97200, Note_off_c, 9, 35, 80
3, 97200, Note_on_c, 9, 42, 95
3, 97440, Note_off_c, 9, 42, 80
3, 97440, Note_on_c, 9, 42, 95
3, 97440, Note_on_c, 9, 38, 95
3, 97680, Note_off_c, 9, 42, 80
3, 97680, Note_off_c, 9, 38, 80
3, 97680, Note_on_c, 9, 42, 95
3, 97680, Note_on_c, 9, 35, 95
3, 97920, Note_off_c, 9, 42, 80
3, 97920, Note_off_c, 9, 35, 80
3, 97920, Note_on_c, 9, 42, 95
3, 97920, Note_on_c, 9, 35, 95
3, 98160, Note_off_c, 9, 42, 80
3, 98160, Note_off_c, 9, 35, 80
3, 98160, Note_on_c, 9, 42, 95
3, 98400, Note_off_c, 9, 42, 80
3, 98400, Note_on_c, 9, 42, 95
3, 98400, Note_on_c, 9, 38, 95
3, 98640, Note_off_c, 9, 42, 80
3, 98640, Note_off_c, 9, 38, 80
3, 98640, Note_on_c, 9, 42, 95
3, 98880, Note_off_c, 9, 42, 80
3, 98880, Note_on_c, 9, 42, 95
3, 98880, Note_on_c, 9, 35, 95
3, 99120, Note_off_c, 9, 42, 80
3, 99120, Note_off_c, 9, 35, 80
3, 99120, Note_on_c, 9, 42, 95
3, 99360, Note_off_c, 9, 42, 80
3, 99360, Note_on_c, 9, 42, 95
3, 99360, Note_on_c, 9, 38, 95
3, 99600, Note_off_c, 9, 42, 80
3, 99600, Note_off_c, 9, 38, 80
3, 99600, Note_on_c, 9, 42, 95
3, 99600, Note_on_c, 9, 35, 95
3, 99840, Note_off_c, 9, 42, 80
3, 99840, Note_off_c, 9, 35, 80
3, 99840, Note_on_c, 9, 42, 95
3, 99840, Note_on_c, 9, 35, 95
3, 100080, Note_off_c, 9, 42, 80
3, 100080, Note_off_c, 9, 35, 80
3, 100080, Note_on_c, 9, 42, 95
3, 100320, Note_off_c, 9, 42, 80
3, 100320, Note_on_c, 9, 42, 95
3, 100320, Note_on_c, 9, 38, 95
3, 100560, Note_off_c, 9, 42, 80
3, 100560, Note_off_c, 9, 38, 80
3, 100560, Note_on_c, 9, 42, 95
3, 100800, Note_off_c, 9, 42, 80
3, 100800, Note_on_c, 9, 42, 95
3, 100800, Note_on_c, 9, 35, 95
3, 101040, Note_off_c, 9, 42, 80
3, 101040, Note_off_c, 9, 35, 80
3, 101040, Note_on_c, 9, 42, 95
3, 101280, Note_off_c, 9, 42, 80
3, 101280, Note_on_c, 9, 42, 95
3, 101280, Note_on_c, 9, 38, 95
3, 101520, Note_off_c, 9, 42, 80
3, 101520, Note_off_c, 9, 38, 80
3, 101520, Note_on_c, 9, 42, 95
3, 101520, Note_on_c, 9, 35, 95
3, 101760, Note_off_c, 9, 42, 80
3, 101760, Note_off_c, 9, 35, 80
3, 101760, Note_on_c, 9, 42, 95
3, 101760, Note_on_c, 9, 35, 95
3, 102000, Note_off_c, 9, 42, 80
3, 102000, Note_off_c, 9, 35, 80
3, 102000, Note_on_c, 9, 42, 95
3, 102240, Note_off_c, 9, 42, 80
3, 102240, Note_on_c, 9, 42, 95
3, 102240, Note_on_c, 9, 38, 95
3, 102480, Note_off_c, 9, 42, 80
3, 102480, Note_off_c, 9, 38, 80
3, 102480, Note_on_c, 9, 42, 95
3, 102720, Note_off_c, 9, 42, 80
3, 102720, Note_on_c, 9, 42, 95
3, 102720, Note_on_c, 9, 35, 95
3, 102960, Note_off_c, 9, 42, 80
3, 102960, Note_off_c, 9, 35, 80
3, 102960, Note_on_c, 9, 42, 95
3, 103200, Note_off_c, 9, 42, 80
3, 103200, Note_on_c, 9, 38, 95
3, 103680, Note_off_c, 9, 38, 80
3, 103680, Note_on_c, 9, 42, 95
3, 103680, Note_on_c, 9, 38, 95
3, 103920, Note_off_c, 9, 42, 80
3, 103920, Note_off_c, 9, 38, 80
3, 103920, Note_on_c, 9, 42, 95
3, 104160, Note_off_c, 9, 42, 80
3, 104160, Note_on_c, 9, 42, 95
3, 104160, Note_on_c, 9, 38, 95
3, 104400, Note_off_c, 9, 42, 80
3, 104400, Note_off_c, 9, 38, 80
3, 104400, Note_on_c, 9, 42, 95
3, 104640, Note_off_c, 9, 42, 80
3, 104640, Note_on_c, 9, 42, 95
3, 104640, Note_on_c, 9, 38, 95
3, 104880, Note_off_c, 9, 42, 80
3, 104880, Note_off_c, 9, 38, 80
3, 104880, Note_on_c, 9, 42, 95
3, 105120, Note_off_c, 9, 42, 80
3, 105120, Note_on_c, 9, 42, 95
3, 105120, Note_on_c, 9, 38, 95
3, 105360, Note_off_c, 9, 42, 80
3, 105360, Note_off_c, 9, 38, 80
3, 105360, Note_on_c, 9, 42, 95
3, 105600, Note_off_c, 9, 42, 80
3, 105600, Note_on_c, 9, 42, 95
3, 105600, Note_on_c, 9, 38, 95
3, 105840, Note_off_c, 9, 42, 80
3, 105840, Note_off_c, 9, 38, 80
3, 105840, Note_on_c, 9, 42, 95
3, 106080, Note_off_c, 9, 42, 80
3, 106080, Note_on_c, 9, 42, 95
3, 106080, Note_on_c, 9, 38, 95
3, 106320, Note_off_c, 9, 42, 80
3, 106320, Note_off_c, 9, 38, 80
3, 106320, Note_on_c, 9, 42, 95
3, 106560, Note_off_c, 9, 42, 80
3, 106560, Note_on_c, 9, 42, 95
3, 106560, Note_on_c, 9, 38, 95
3, 106800, Note_off_c, 9, 42, 80
3, 106800, Note_off_c, 9, 38, 80
3, 106800, Note_on_c, 9, 42, 95
3, 107040, Note_off_c, 9, 42, 80
3, 107040, Note_on_c, 9, 42, 95
3, 107040, Note_on_c, 9, 38, 95
3, 107280, Note_off_c, 9, 42, 80
3, 107280, Note_off_c, 9, 38, 80
3, 107280, Note_on_c, 9, 42, 95
3, 107520, Note_off_c, 9, 42, 80
3, 107520, Note_on_c, 9, 42, 95
3, 107520, Note_on_c, 9, 38, 95
3, 107760, Note_off_c, 9, 42, 80
3, 107760, Note_off_c, 9, 38, 80
3, 107760, Note_on_c, 9, 42, 95
3, 108000, Note_off_c, 9, 42, 80
3, 108000, Note_on_c, 9, 42, 95
3, 108000, Note_on_c, 9, 38, 95
3, 108240, Note_off_c, 9, 42, 80
3, 108240, Note_off_c, 9, 38, 80
3, 108240, Note_on_c, 9, 42, 95
3, 108480, Note_off_c, 9, 42, 80
3, 108480, Note_on_c, 9, 42, 95
3, 108480, Note_on_c, 9, 38, 95
3, 108720, Note_off_c, 9, 42, 80
3, 108720, Note_off_c, 9, 38, 80
3, 108720, Note_on_c, 9, 42, 95
3, 108960, Note_off_c, 9, 42, 80
3, 108960, Note_on_c, 9, 42, 95
3, 108960, Note_on_c, 9, 38, 95
3, 109200, Note_off_c, 9, 42, 80
3, 109200, Note_off_c, 9, 38, 80
3, 109200, Note_on_c, 9, 42, 95
3, 109440, Note_off_c, 9, 42, 80
3, 109440, Note_on_c, 9, 42, 95
3, 109440, Note_on_c, 9, 38, 95
3, 109680, Note_off_c, 9, 42, 80
3, 109680, Note_off_c, 9, 38, 80
3, 109680, Note_on_c, 9, 42, 95
3, 109920, Note_off_c, 9, 42, 80
3, 109920, Note_on_c, 9, 42, 95
3, 109920, Note_on_c, 9, 38, 95
3, 110160, Note_off_c, 9, 42, 80
3, 110160, Note_off_c, 9, 38, 80
3, 110160, Note_on_c, 9, 42, 95
3, 110400, Note_off_c, 9, 42, 80
3, 110400, Note_on_c, 9, 42, 95
3, 110400, Note_on_c, 9, 38, 95
3, 110640, Note_off_c, 9, 42, 80
3, 110640, Note_off_c, 9, 38, 80
3, 110640, Note_on_c, 9, 42, 95
3, 110880, Note_off_c, 9, 42, 80
3, 110880, Note_on_c, 9, 42, 95
3, 110880, Note_on_c, 9, 38, 95
3, 111120, Note_off_c, 9, 42, 80
3, 111120, Note_off_c, 9, 38, 80
3, 111120, Note_on_c, 9, 42, 95
3, 111360, Note_off_c, 9, 42, 80
3, 111360, Note_on_c, 9, 42, 95
3, 111360, Note_on_c, 9, 49, 95
3, 111360, Note_on_c, 9, 38, 95
3, 111600, Note_off_c, 9, 42, 80
3, 111600, Note_off_c, 9, 49, 80
3, 111600, Note_off_c, 9, 38, 80
3, 111600, Note_on_c, 9, 42, 95
3, 111840, Note_off_c, 9, 42, 80
3, 111840, Note_on_c, 9, 42, 95
3, 111840, Note_on_c, 9, 49, 95
3, 111840, Note_on_c, 9, 38, 95
3, 112080, Note_off_c, 9, 42, 80
3, 112080, Note_off_c, 9, 49, 80
3, 112080, Note_off_c, 9, 38, 80
3, 112080, Note_on_c, 9, 42, 95
3, 112320, Note_off_c, 9, 42, 80
3, 112320, Note_on_c, 9, 42, 95
3, 112320, Note_on_c, 9, 49, 95
3, 112320, Note_on_c, 9, 38, 95
3, 112560, Note_off_c, 9, 42, 80
3, 112560, Note_off_c, 9, 49, 80
3, 112560, Note_off_c, 9, 38, 80
3, 112560, Note_on_c, 9, 42, 95
3, 112800, Note_off_c, 9, 42, 80
3, 112800, Note_on_c, 9, 42, 95
3, 112800, Note_on_c, 9, 49, 95
3, 112800, Note_on_c, 9, 38, 95
3, 113040, Note_off_c, 9, 42, 80
3, 113040, Note_off_c, 9, 49, 80
3, 113040, Note_off_c, 9, 38, 80
3, 113040, Note_on_c, 9, 42, 95
3, 113280, Note_off_c, 9, 42, 80
3, 113280, Note_on_c, 9, 49, 95
3, 113280, Note_on_c, 9, 38, 95
3, 113760, Note_off_c, 9, 49, 80
3, 113760, Note_off_c, 9, 38, 80
3, 113760, End_track
4, 0, Start_track
4, 0, Title_t, "Kim Deal"
4, 0, Control_c, 3, 100, 0
4, 0, Control_c, 3, 101, 0
4, 0, Control_c, 3, 6, 12
4, 0, Pitch_bend_c, 3, 8192
4, 0, Control_c, 3, 101, 0
4, 0, Control_c, 3, 100, 1
4, 0, Control_c, 3, 6, 64
4, 0, Control_c, 3, 38, 0
4, 0, Control_c, 3, 101, 127
4, 0, Control_c, 3, 100, 127
4, 0, Control_c, 2, 100, 0
4, 0, Control_c, 2, 101, 0
4, 0, Control_c, 2, 6, 12
4, 0, Pitch_bend_c, 2, 8192
4, 0, Control_c, 2, 101, 0
4, 0, Control_c, 2, 100, 1
4, 0, Control_c, 2, 6, 64
4, 0, Control_c, 2, 38, 0
4, 0, Control_c, 2, 101, 127
4, 0, Control_c, 2, 100, 127
4, 0, Control_c, 3, 101, 0
4, 0, Control_c, 3, 100, 2
4, 0, Control_c, 3, 6, 64
4, 0, Control_c, 3, 101, 127
4, 0, Control_c, 3, 100, 127
4, 0, Control_c, 2, 101, 0
4, 0, Control_c, 2, 100, 2
4, 0, Control_c, 2, 6, 64
4, 0, Control_c, 2, 101, 127
4, 0, Control_c, 2, 100, 127
4, 0, Program_c, 3, 34
4, 0, Program_c, 2, 34
4, 0, Control_c, 3, 0, 0
4, 0, Control_c, 2, 0, 0
4, 0, Control_c, 3, 7, 104
4, 0, Control_c, 2, 7, 104
4, 0, Control_c, 3, 10, 64
4, 0, Control_c, 2, 10, 64
4, 0, Control_c, 3, 93, 0
4, 0, Control_c, 2, 93, 0
4, 0, Control_c, 3, 91, 0
4, 0, Control_c, 2, 91, 0
4, 0, Control_c, 3, 92, 0
4, 0, Control_c, 2, 92, 0
4, 0, Control_c, 3, 95, 0
4, 0, Control_c, 2, 95, 0
4, 1920, Note_on_c, 2, 43, 95
4, 2160, Note_off_c, 2, 43, 80
4, 2160, Note_on_c, 2, 43, 95
4, 2400, Note_off_c, 2, 43, 80
4, 2400, Note_on_c, 2, 43, 95
4, 2640, Note_off_c, 2, 43, 80
4, 2640, Note_on_c, 2, 43, 95
4, 2880, Note_off_c, 2, 43, 80
4, 2880, Note_on_c, 2, 43, 95
4, 3120, Note_off_c, 2, 43, 80
4, 3120, Note_on_c, 2, 43, 95
4, 3360, Note_off_c, 2, 43, 80
4, 3360, Note_on_c, 2, 43, 95
4, 3600, Note_off_c, 2, 43, 80
4, 3600, Note_on_c, 2, 43, 95
4, 3840, Note_off_c, 2, 43, 80
4, 3840, Note_on_c, 2, 46, 95
4, 4080, Note_off_c, 2, 46, 80
4, 4080, Note_on_c, 2, 46, 95
4, 4320, Note_off_c, 2, 46, 80
4, 4320, Note_on_c, 2, 46, 95
4, 4560, Note_off_c, 2, 46, 80
4, 4560, Note_on_c, 2, 46, 95
4, 4800, Note_off_c, 2, 46, 80
4, 4800, Note_on_c, 2, 46, 95
4, 5040, Note_off_c, 2, 46, 80
4, 5040, Note_on_c, 2, 46, 95
4, 5280, Note_off_c, 2, 46, 80
4, 5280, Note_on_c, 2, 46, 95
4, 5520, Note_off_c, 2, 46, 80
4, 5520, Note_on_c, 2, 46, 95
4, 5760, Note_off_c, 2, 46, 80
4, 5760, Note_on_c, 2, 50, 95
4, 6240, Note_off_c, 2, 50, 80
4, 6240, Note_on_c, 2, 57, 95
4, 6480, Note_off_c, 2, 57, 80
4, 6480, Note_on_c, 2, 55, 95
4, 6960, Note_off_c, 2, 55, 80
4, 6960, Note_on_c, 2, 53, 95
4, 7440, Note_off_c, 2, 53, 80
4, 7440, Note_on_c, 2, 43, 95
4, 7680, Note_off_c, 2, 43, 80
4, 7680, Note_on_c, 2, 43, 95
4, 7920, Note_off_c, 2, 43, 80
4, 7920, Note_on_c, 2, 43, 95
4, 8160, Note_off_c, 2, 43, 80
4, 8160, Note_on_c, 2, 43, 95
4, 8400, Note_off_c, 2, 43, 80
4, 8400, Note_on_c, 2, 43, 95
4, 8640, Note_off_c, 2, 43, 80
4, 8640, Note_on_c, 2, 43, 95
4, 8880, Note_off_c, 2, 43, 80
4, 8880, Note_on_c, 2, 43, 95
4, 9120, Note_off_c, 2, 43, 80
4, 9120, Note_on_c, 2, 43, 95
4, 9360, Note_off_c, 2, 43, 80
4, 9360, Note_on_c, 2, 43, 95
4, 9600, Note_off_c, 2, 43, 80
4, 9600, Note_on_c, 2, 46, 95
4, 9840, Note_off_c, 2, 46, 80
4, 9840, Note_on_c, 2, 46, 95
4, 10080, Note_off_c, 2, 46, 80
4, 10080, Note_on_c, 2, 46, 95
4, 10320, Note_off_c, 2, 46, 80
4, 10320, Note_on_c, 2, 46, 95
4, 10560, Note_off_c, 2, 46, 80
4, 10560, Note_on_c, 2, 43, 95
4, 10800, Note_off_c, 2, 43, 80
4, 10800, Note_on_c, 2, 43, 95
4, 11040, Note_off_c, 2, 43, 80
4, 11040, Note_on_c, 2, 43, 95
4, 11280, Note_off_c, 2, 43, 80
4, 11280, Note_on_c, 2, 43, 95
4, 11520, Note_off_c, 2, 43, 80
4, 11520, Note_on_c, 2, 43, 95
4, 11760, Note_off_c, 2, 43, 80
4, 11760, Note_on_c, 2, 43, 95
4, 12000, Note_off_c, 2, 43, 80
4, 12000, Note_on_c, 2, 43, 95
4, 12240, Note_off_c, 2, 43, 80
4, 12240, Note_on_c, 2, 43, 95
4, 12480, Note_off_c, 2, 43, 80
4, 12480, Note_on_c, 2, 43, 95
4, 12720, Note_off_c, 2, 43, 80
4, 12720, Note_on_c, 2, 43, 95
4, 12960, Note_off_c, 2, 43, 80
4, 12960, Note_on_c, 2, 43, 95
4, 13200, Note_off_c, 2, 43, 80
4, 13200, Note_on_c, 2, 43, 95
4, 13440, Note_off_c, 2, 43, 80
4, 13440, Note_on_c, 2, 43, 95
4, 13680, Note_off_c, 2, 43, 80
4, 13680, Note_on_c, 2, 43, 95
4, 13920, Note_off_c, 2, 43, 80
4, 13920, Note_on_c, 2, 43, 95
4, 14160, Note_off_c, 2, 43, 80
4, 14160, Note_on_c, 2, 43, 95
4, 14400, Note_off_c, 2, 43, 80
4, 14400, Note_on_c, 2, 43, 95
4, 14640, Note_off_c, 2, 43, 80
4, 14640, Note_on_c, 2, 43, 95
4, 14880, Note_off_c, 2, 43, 80
4, 14880, Note_on_c, 2, 43, 95
4, 15120, Note_off_c, 2, 43, 80
4, 15120, Note_on_c, 2, 43, 95
4, 15360, Note_off_c, 2, 43, 80
4, 15360, Note_on_c, 2, 43, 95
4, 15600, Note_off_c, 2, 43, 80
4, 15600, Note_on_c, 2, 43, 95
4, 15840, Note_off_c, 2, 43, 80
4, 15840, Note_on_c, 2, 43, 95
4, 16080, Note_off_c, 2, 43, 80
4, 16080, Note_on_c, 2, 43, 95
4, 16320, Note_off_c, 2, 43, 80
4, 16320, Note_on_c, 2, 46, 95
4, 16560, Note_off_c, 2, 46, 80
4, 16560, Note_on_c, 2, 46, 95
4, 16800, Note_off_c, 2, 46, 80
4, 16800, Note_on_c, 2, 46, 95
4, 17040, Note_off_c, 2, 46, 80
4, 17040, Note_on_c, 2, 46, 95
4, 17280, Note_off_c, 2, 46, 80
4, 17280, Note_on_c, 2, 46, 95
4, 17520, Note_off_c, 2, 46, 80
4, 17520, Note_on_c, 2, 46, 95
4, 17760, Note_off_c, 2, 46, 80
4, 17760, Note_on_c, 2, 46, 95
4, 18000, Note_off_c, 2, 46, 80
4, 18000, Note_on_c, 2, 46, 95
4, 18240, Note_off_c, 2, 46, 80
4, 18240, Note_on_c, 2, 50, 95
4, 18720, Note_off_c, 2, 50, 80
4, 18720, Note_on_c, 2, 57, 95
4, 18960, Note_off_c, 2, 57, 80
4, 18960, Note_on_c, 2, 55, 95
4, 19440, Note_off_c, 2, 55, 80
4, 19440, Note_on_c, 2, 53, 95
4, 19920, Note_off_c, 2, 53, 80
4, 19920, Note_on_c, 2, 43, 95
4, 20160, Note_off_c, 2, 43, 80
4, 20160, Note_on_c, 2, 43, 95
4, 20400, Note_off_c, 2, 43, 80
4, 20400, Note_on_c, 2, 43, 95
4, 20640, Note_off_c, 2, 43, 80
4, 20640, Note_on_c, 2, 43, 95
4, 20880, Note_off_c, 2, 43, 80
4, 20880, Note_on_c, 2, 43, 95
4, 21120, Note_off_c, 2, 43, 80
4, 21120, Note_on_c, 2, 43, 95
4, 21360, Note_off_c, 2, 43, 80
4, 21360, Note_on_c, 2, 43, 95
4, 21600, Note_off_c, 2, 43, 80
4, 21600, Note_on_c, 2, 43, 95
4, 21840, Note_off_c, 2, 43, 80
4, 21840, Note_on_c, 2, 43, 95
4, 22080, Note_off_c, 2, 43, 80
4, 22080, Note_on_c, 2, 46, 95
4, 22320, Note_off_c, 2, 46, 80
4, 22320, Note_on_c, 2, 46, 95
4, 22560, Note_off_c, 2, 46, 80
4, 22560, Note_on_c, 2, 46, 95
4, 22800, Note_off_c, 2, 46, 80
4, 22800, Note_on_c, 2, 46, 95
4, 23040, Note_off_c, 2, 46, 80
4, 23040, Note_on_c, 2, 43, 95
4, 23280, Note_off_c, 2, 43, 80
4, 23280, Note_on_c, 2, 43, 95
4, 23520, Note_off_c, 2, 43, 80
4, 23520, Note_on_c, 2, 43, 95
4, 23760, Note_off_c, 2, 43, 80
4, 23760, Note_on_c, 2, 43, 95
4, 24000, Note_off_c, 2, 43, 80
4, 24000, Note_on_c, 2, 43, 95
4, 24240, Note_off_c, 2, 43, 80
4, 24240, Note_on_c, 2, 43, 95
4, 24480, Note_off_c, 2, 43, 80
4, 24480, Note_on_c, 2, 43, 95
4, 24720, Note_off_c, 2, 43, 80
4, 24720, Note_on_c, 2, 43, 95
4, 24960, Note_off_c, 2, 43, 80
4, 24960, Note_on_c, 2, 43, 95
4, 25200, Note_off_c, 2, 43, 80
4, 25200, Note_on_c, 2, 43, 95
4, 25440, Note_off_c, 2, 43, 80
4, 25440, Note_on_c, 2, 43, 95
4, 25680, Note_off_c, 2, 43, 80
4, 25680, Note_on_c, 2, 43, 95
4, 25920, Note_off_c, 2, 43, 80
4, 25920, Note_on_c, 2, 43, 95
4, 26160, Note_off_c, 2, 43, 80
4, 26160, Note_on_c, 2, 43, 95
4, 26400, Note_off_c, 2, 43, 80
4, 26400, Note_on_c, 2, 43, 95
4, 26640, Note_off_c, 2, 43, 80
4, 26640, Note_on_c, 2, 43, 95
4, 26880, Note_off_c, 2, 43, 80
4, 26880, Note_on_c, 2, 43, 95
4, 27120, Note_off_c, 2, 43, 80
4, 27120, Note_on_c, 2, 43, 95
4, 27360, Note_off_c, 2, 43, 80
4, 27360, Note_on_c, 2, 43, 95
4, 27600, Note_off_c, 2, 43, 80
4, 27600, Note_on_c, 2, 43, 95
4, 27840, Note_off_c, 2, 43, 80
4, 27840, Note_on_c, 2, 43, 95
4, 28080, Note_off_c, 2, 43, 80
4, 28080, Note_on_c, 2, 43, 95
4, 28320, Note_off_c, 2, 43, 80
4, 28320, Note_on_c, 2, 43, 95
4, 28560, Note_off_c, 2, 43, 80
4, 28560, Note_on_c, 2, 43, 95
4, 28800, Note_off_c, 2, 43, 80
4, 28800, Note_on_c, 2, 46, 95
4, 29040, Note_off_c, 2, 46, 80
4, 29040, Note_on_c, 2, 46, 95
4, 29280, Note_off_c, 2, 46, 80
4, 29280, Note_on_c, 2, 46, 95
4, 29520, Note_off_c, 2, 46, 80
4, 29520, Note_on_c, 2, 46, 95
4, 29760, Note_off_c, 2, 46, 80
4, 29760, Note_on_c, 2, 46, 95
4, 30000, Note_off_c, 2, 46, 80
4, 30000, Note_on_c, 2, 46, 95
4, 30240, Note_off_c, 2, 46, 80
4, 30240, Note_on_c, 2, 46, 95
4, 30480, Note_off_c, 2, 46, 80
4, 30480, Note_on_c, 2, 46, 95
4, 30720, Note_off_c, 2, 46, 80
4, 30720, Note_on_c, 2, 50, 95
4, 31200, Note_off_c, 2, 50, 80
4, 31200, Note_on_c, 2, 57, 95
4, 31440, Note_off_c, 2, 57, 80
4, 31440, Note_on_c, 2, 55, 95
4, 31920, Note_off_c, 2, 55, 80
4, 31920, Note_on_c, 2, 53, 95
4, 32400, Note_off_c, 2, 53, 80
4, 32400, Note_on_c, 2, 43, 95
4, 32640, Note_off_c, 2, 43, 80
4, 32640, Note_on_c, 2, 43, 95
4, 32880, Note_off_c, 2, 43, 80
4, 32880, Note_on_c, 2, 43, 95
4, 33120, Note_off_c, 2, 43, 80
4, 33120, Note_on_c, 2, 43, 95
4, 33360, Note_off_c, 2, 43, 80
4, 33360, Note_on_c, 2, 43, 95
4, 33600, Note_off_c, 2, 43, 80
4, 33600, Note_on_c, 2, 43, 95
4, 33840, Note_off_c, 2, 43, 80
4, 33840, Note_on_c, 2, 43, 95
4, 34080, Note_off_c, 2, 43, 80
4, 34080, Note_on_c, 2, 43, 95
4, 34320, Note_off_c, 2, 43, 80
4, 34320, Note_on_c, 2, 43, 95
4, 34560, Note_off_c, 2, 43, 80
4, 34560, Note_on_c, 2, 46, 95
4, 34800, Note_off_c, 2, 46, 80
4, 34800, Note_on_c, 2, 46, 95
4, 35040, Note_off_c, 2, 46, 80
4, 35040, Note_on_c, 2, 46, 95
4, 35280, Note_off_c, 2, 46, 80
4, 35280, Note_on_c, 2, 46, 95
4, 35520, Note_off_c, 2, 46, 80
4, 35520, Note_on_c, 2, 43, 95
4, 35760, Note_off_c, 2, 43, 80
4, 35760, Note_on_c, 2, 43, 95
4, 36000, Note_off_c, 2, 43, 80
4, 36000, Note_on_c, 2, 46, 95
4, 36240, Note_off_c, 2, 46, 80
4, 36240, Note_on_c, 2, 43, 95
4, 36480, Note_off_c, 2, 43, 80
4, 36480, Note_on_c, 2, 43, 95
4, 36720, Note_off_c, 2, 43, 80
4, 36720, Note_on_c, 2, 47, 95
4, 36960, Note_off_c, 2, 47, 80
4, 36960, Note_on_c, 2, 43, 95
4, 37200, Note_off_c, 2, 43, 80
4, 37200, Note_on_c, 2, 43, 95
4, 37440, Note_off_c, 2, 43, 80
4, 37440, Note_on_c, 2, 48, 95
4, 37680, Note_off_c, 2, 48, 80
4, 37680, Note_on_c, 2, 43, 95
4, 37920, Note_off_c, 2, 43, 80
4, 37920, Note_on_c, 2, 43, 95
4, 38160, Note_off_c, 2, 43, 80
4, 38160, Note_on_c, 2, 49, 95
4, 38400, Note_off_c, 2, 49, 80
4, 38400, Note_on_c, 2, 43, 95
4, 38640, Note_off_c, 2, 43, 80
4, 38640, Note_on_c, 2, 43, 95
4, 38880, Note_off_c, 2, 43, 80
4, 38880, Note_on_c, 2, 50, 95
4, 39120, Note_off_c, 2, 50, 80
4, 39120, Note_on_c, 2, 43, 95
4, 39360, Note_off_c, 2, 43, 80
4, 39360, Note_on_c, 2, 50, 95
4, 39600, Note_off_c, 2, 50, 80
4, 39600, Note_on_c, 2, 50, 95
4, 39840, Note_off_c, 2, 50, 80
4, 39840, Note_on_c, 2, 50, 95
4, 40080, Note_off_c, 2, 50, 80
4, 40080, Note_on_c, 2, 50, 95
4, 40320, Note_off_c, 2, 50, 80
4, 40320, Note_on_c, 2, 43, 95
4, 40560, Note_off_c, 2, 43, 80
4, 40560, Note_on_c, 2, 43, 95
4, 40800, Note_off_c, 2, 43, 80
4, 40800, Note_on_c, 2, 43, 95
4, 41040, Note_off_c, 2, 43, 80
4, 41040, Note_on_c, 2, 43, 95
4, 41280, Note_off_c, 2, 43, 80
4, 41280, Note_on_c, 2, 41, 95
4, 41520, Note_off_c, 2, 41, 80
4, 41520, Note_on_c, 2, 41, 95
4, 41760, Note_off_c, 2, 41, 80
4, 41760, Note_on_c, 2, 41, 95
4, 42000, Note_off_c, 2, 41, 80
4, 42000, Note_on_c, 2, 41, 95
4, 42240, Note_off_c, 2, 41, 80
4, 42240, Note_on_c, 2, 46, 95
4, 42480, Note_off_c, 2, 46, 80
4, 42480, Note_on_c, 2, 46, 95
4, 42720, Note_off_c, 2, 46, 80
4, 42720, Note_on_c, 2, 46, 95
4, 42960, Note_off_c, 2, 46, 80
4, 42960, Note_on_c, 2, 46, 95
4, 43200, Note_off_c, 2, 46, 80
4, 43200, Note_on_c, 2, 48, 95
4, 43440, Note_off_c, 2, 48, 80
4, 43440, Note_on_c, 2, 48, 95
4, 43680, Note_off_c, 2, 48, 80
4, 43680, Note_on_c, 2, 48, 95
4, 43920, Note_off_c, 2, 48, 80
4, 43920, Note_on_c, 2, 48, 95
4, 44160, Note_off_c, 2, 48, 80
4, 44160, Note_on_c, 2, 43, 95
4, 44400, Note_off_c, 2, 43, 80
4, 44400, Note_on_c, 2, 43, 95
4, 44640, Note_off_c, 2, 43, 80
4, 44640, Note_on_c, 2, 43, 95
4, 44880, Note_off_c, 2, 43, 80
4, 44880, Note_on_c, 2, 43, 95
4, 45120, Note_off_c, 2, 43, 80
4, 45120, Note_on_c, 2, 50, 95
4, 45360, Note_off_c, 2, 50, 80
4, 45360, Note_on_c, 2, 50, 95
4, 45600, Note_off_c, 2, 50, 80
4, 45600, Note_on_c, 2, 50, 95
4, 45840, Note_off_c, 2, 50, 80
4, 45840, Note_on_c, 2, 50, 95
4, 46080, Note_off_c, 2, 50, 80
4, 46080, Note_on_c, 2, 43, 95
4, 46320, Note_off_c, 2, 43, 80
4, 46320, Note_on_c, 2, 43, 95
4, 46560, Note_off_c, 2, 43, 80
4, 46560, Note_on_c, 2, 43, 95
4, 46800, Note_off_c, 2, 43, 80
4, 46800, Note_on_c, 2, 43, 95
4, 47040, Note_off_c, 2, 43, 80
4, 47040, Note_on_c, 2, 41, 95
4, 47280, Note_off_c, 2, 41, 80
4, 47280, Note_on_c, 2, 41, 95
4, 47520, Note_off_c, 2, 41, 80
4, 47520, Note_on_c, 2, 41, 95
4, 47760, Note_off_c, 2, 41, 80
4, 47760, Note_on_c, 2, 41, 95
4, 48000, Note_off_c, 2, 41, 80
4, 48000, Note_on_c, 2, 46, 95
4, 48240, Note_off_c, 2, 46, 80
4, 48240, Note_on_c, 2, 46, 95
4, 48480, Note_off_c, 2, 46, 80
4, 48480, Note_on_c, 2, 46, 95
4, 48720, Note_off_c, 2, 46, 80
4, 48720, Note_on_c, 2, 46, 95
4, 48960, Note_off_c, 2, 46, 80
4, 48960, Note_on_c, 2, 48, 95
4, 49200, Note_off_c, 2, 48, 80
4, 49200, Note_on_c, 2, 48, 95
4, 49440, Note_off_c, 2, 48, 80
4, 49440, Note_on_c, 2, 48, 95
4, 49680, Note_off_c, 2, 48, 80
4, 49680, Note_on_c, 2, 48, 95
4, 49920, Note_off_c, 2, 48, 80
4, 49920, Note_on_c, 2, 43, 95
4, 50160, Note_off_c, 2, 43, 80
4, 50160, Note_on_c, 2, 43, 95
4, 50400, Note_off_c, 2, 43, 80
4, 50400, Note_on_c, 2, 43, 95
4, 50640, Note_off_c, 2, 43, 80
4, 50640, Note_on_c, 2, 43, 95
4, 50880, Note_off_c, 2, 43, 80
4, 50880, Note_on_c, 2, 50, 95
4, 51120, Note_off_c, 2, 50, 80
4, 51120, Note_on_c, 2, 50, 95
4, 51360, Note_off_c, 2, 50, 80
4, 51360, Note_on_c, 2, 50, 95
4, 51600, Note_off_c, 2, 50, 80
4, 51600, Note_on_c, 2, 50, 95
4, 51840, Note_off_c, 2, 50, 80
4, 51840, Note_on_c, 2, 43, 95
4, 52080, Note_off_c, 2, 43, 80
4, 52080, Note_on_c, 2, 43, 95
4, 52320, Note_off_c, 2, 43, 80
4, 52320, Note_on_c, 2, 43, 95
4, 52560, Note_off_c, 2, 43, 80
4, 52560, Note_on_c, 2, 43, 95
4, 52800, Note_off_c, 2, 43, 80
4, 52800, Note_on_c, 2, 41, 95
4, 53040, Note_off_c, 2, 41, 80
4, 53040, Note_on_c, 2, 41, 95
4, 53280, Note_off_c, 2, 41, 80
4, 53280, Note_on_c, 2, 41, 95
4, 53520, Note_off_c, 2, 41, 80
4, 53520, Note_on_c, 2, 41, 95
4, 53760, Note_off_c, 2, 41, 80
4, 53760, Note_on_c, 2, 46, 95
4, 54000, Note_off_c, 2, 46, 80
4, 54000, Note_on_c, 2, 46, 95
4, 54240, Note_off_c, 2, 46, 80
4, 54240, Note_on_c, 2, 46, 95
4, 54480, Note_off_c, 2, 46, 80
4, 54480, Note_on_c, 2, 46, 95
4, 54720, Note_off_c, 2, 46, 80
4, 54720, Note_on_c, 2, 48, 95
4, 54960, Note_off_c, 2, 48, 80
4, 54960, Note_on_c, 2, 48, 95
4, 55200, Note_off_c, 2, 48, 80
4, 55200, Note_on_c, 2, 48, 95
4, 55440, Note_off_c, 2, 48, 80
4, 55440, Note_on_c, 2, 48, 95
4, 55680, Note_off_c, 2, 48, 80
4, 55680, Note_on_c, 2, 43, 95
4, 55920, Note_off_c, 2, 43, 80
4, 55920, Note_on_c, 2, 43, 95
4, 56160, Note_off_c, 2, 43, 80
4, 56160, Note_on_c, 2, 43, 95
4, 56400, Note_off_c, 2, 43, 80
4, 56400, Note_on_c, 2, 43, 95
4, 56640, Note_off_c, 2, 43, 80
4, 56640, Note_on_c, 2, 43, 95
4, 56880, Note_off_c, 2, 43, 80
4, 56880, Note_on_c, 2, 43, 95
4, 57120, Note_off_c, 2, 43, 80
4, 57120, Note_on_c, 2, 43, 95
4, 57360, Note_off_c, 2, 43, 80
4, 57360, Note_on_c, 2, 43, 95
4, 57600, Note_off_c, 2, 43, 80
4, 57600, Note_on_c, 2, 43, 95
4, 57840, Note_off_c, 2, 43, 80
4, 57840, Note_on_c, 2, 43, 95
4, 58080, Note_off_c, 2, 43, 80
4, 58080, Note_on_c, 2, 43, 95
4, 58320, Note_off_c, 2, 43, 80
4, 58320, Note_on_c, 2, 43, 95
4, 58560, Note_off_c, 2, 43, 80
4, 58560, Note_on_c, 2, 43, 95
4, 58800, Note_off_c, 2, 43, 80
4, 58800, Note_on_c, 2, 43, 95
4, 59040, Note_off_c, 2, 43, 80
4, 59040, Note_on_c, 2, 43, 95
4, 59280, Note_off_c, 2, 43, 80
4, 59280, Note_on_c, 2, 43, 95
4, 59520, Note_off_c, 2, 43, 80
4, 59520, Note_on_c, 2, 43, 95
4, 59760, Note_off_c, 2, 43, 80
4, 59760, Note_on_c, 2, 43, 95
4, 60000, Note_off_c, 2, 43, 80
4, 60000, Note_on_c, 2, 43, 95
4, 60240, Note_off_c, 2, 43, 80
4, 60240, Note_on_c, 2, 43, 95
4, 60480, Note_off_c, 2, 43, 80
4, 60480, Note_on_c, 2, 43, 95
4, 60720, Note_off_c, 2, 43, 80
4, 60720, Note_on_c, 2, 43, 95
4, 60960, Note_off_c, 2, 43, 80
4, 60960, Note_on_c, 2, 43, 95
4, 61200, Note_off_c, 2, 43, 80
4, 61200, Note_on_c, 2, 43, 95
4, 61440, Note_off_c, 2, 43, 80
4, 61440, Note_on_c, 2, 46, 95
4, 61680, Note_off_c, 2, 46, 80
4, 61680, Note_on_c, 2, 46, 95
4, 61920, Note_off_c, 2, 46, 80
4, 61920, Note_on_c, 2, 46, 95
4, 62160, Note_off_c, 2, 46, 80
4, 62160, Note_on_c, 2, 46, 95
4, 62400, Note_off_c, 2, 46, 80
4, 62400, Note_on_c, 2, 46, 95
4, 62640, Note_off_c, 2, 46, 80
4, 62640, Note_on_c, 2, 46, 95
4, 62880, Note_off_c, 2, 46, 80
4, 62880, Note_on_c, 2, 46, 95
4, 63120, Note_off_c, 2, 46, 80
4, 63120, Note_on_c, 2, 46, 95
4, 63360, Note_off_c, 2, 46, 80
4, 63360, Note_on_c, 2, 50, 95
4, 63840, Note_off_c, 2, 50, 80
4, 63840, Note_on_c, 2, 57, 95
4, 64080, Note_off_c, 2, 57, 80
4, 64080, Note_on_c, 2, 55, 95
4, 64560, Note_off_c, 2, 55, 80
4, 64560, Note_on_c, 2, 53, 95
4, 65040, Note_off_c, 2, 53, 80
4, 65040, Note_on_c, 2, 43, 95
4, 65280, Note_off_c, 2, 43, 80
4, 65280, Note_on_c, 2, 43, 95
4, 65520, Note_off_c, 2, 43, 80
4, 65520, Note_on_c, 2, 43, 95
4, 65760, Note_off_c, 2, 43, 80
4, 65760, Note_on_c, 2, 43, 95
4, 66000, Note_off_c, 2, 43, 80
4, 66000, Note_on_c, 2, 43, 95
4, 66240, Note_off_c, 2, 43, 80
4, 66240, Note_on_c, 2, 43, 95
4, 66480, Note_off_c, 2, 43, 80
4, 66480, Note_on_c, 2, 43, 95
4, 66720, Note_off_c, 2, 43, 80
4, 66720, Note_on_c, 2, 43, 95
4, 66960, Note_off_c, 2, 43, 80
4, 66960, Note_on_c, 2, 43, 95
4, 67200, Note_off_c, 2, 43, 80
4, 67200, Note_on_c, 2, 46, 95
4, 67440, Note_off_c, 2, 46, 80
4, 67440, Note_on_c, 2, 46, 95
4, 67680, Note_off_c, 2, 46, 80
4, 67680, Note_on_c, 2, 46, 95
4, 67920, Note_off_c, 2, 46, 80
4, 67920, Note_on_c, 2, 46, 95
4, 68160, Note_off_c, 2, 46, 80
4, 68160, Note_on_c, 2, 43, 95
4, 68400, Note_off_c, 2, 43, 80
4, 68400, Note_on_c, 2, 43, 95
4, 68640, Note_off_c, 2, 43, 80
4, 68640, Note_on_c, 2, 43, 95
4, 68880, Note_off_c, 2, 43, 80
4, 68880, Note_on_c, 2, 43, 95
4, 69120, Note_off_c, 2, 43, 80
4, 69120, Note_on_c, 2, 43, 95
4, 69360, Note_off_c, 2, 43, 80
4, 69360, Note_on_c, 2, 43, 95
4, 69600, Note_off_c, 2, 43, 80
4, 69600, Note_on_c, 2, 43, 95
4, 69840, Note_off_c, 2, 43, 80
4, 69840, Note_on_c, 2, 43, 95
4, 70080, Note_off_c, 2, 43, 80
4, 70080, Note_on_c, 2, 43, 95
4, 70320, Note_off_c, 2, 43, 80
4, 70320, Note_on_c, 2, 43, 95
4, 70560, Note_off_c, 2, 43, 80
4, 70560, Note_on_c, 2, 43, 95
4, 70800, Note_off_c, 2, 43, 80
4, 70800, Note_on_c, 2, 43, 95
4, 71040, Note_off_c, 2, 43, 80
4, 71040, Note_on_c, 2, 43, 95
4, 71280, Note_off_c, 2, 43, 80
4, 71280, Note_on_c, 2, 43, 95
4, 71520, Note_off_c, 2, 43, 80
4, 71520, Note_on_c, 2, 43, 95
4, 71760, Note_off_c, 2, 43, 80
4, 71760, Note_on_c, 2, 43, 95
4, 72000, Note_off_c, 2, 43, 80
4, 72000, Note_on_c, 2, 43, 95
4, 72240, Note_off_c, 2, 43, 80
4, 72240, Note_on_c, 2, 43, 95
4, 72480, Note_off_c, 2, 43, 80
4, 72480, Note_on_c, 2, 43, 95
4, 72720, Note_off_c, 2, 43, 80
4, 72720, Note_on_c, 2, 43, 95
4, 72960, Note_off_c, 2, 43, 80
4, 72960, Note_on_c, 2, 43, 95
4, 73200, Note_off_c, 2, 43, 80
4, 73200, Note_on_c, 2, 43, 95
4, 73440, Note_off_c, 2, 43, 80
4, 73440, Note_on_c, 2, 43, 95
4, 73680, Note_off_c, 2, 43, 80
4, 73680, Note_on_c, 2, 43, 95
4, 73920, Note_off_c, 2, 43, 80
4, 73920, Note_on_c, 2, 46, 95
4, 74160, Note_off_c, 2, 46, 80
4, 74160, Note_on_c, 2, 46, 95
4, 74400, Note_off_c, 2, 46, 80
4, 74400, Note_on_c, 2, 46, 95
4, 74640, Note_off_c, 2, 46, 80
4, 74640, Note_on_c, 2, 46, 95
4, 74880, Note_off_c, 2, 46, 80
4, 74880, Note_on_c, 2, 46, 95
4, 75120, Note_off_c, 2, 46, 80
4, 75120, Note_on_c, 2, 46, 95
4, 75360, Note_off_c, 2, 46, 80
4, 75360, Note_on_c, 2, 46, 95
4, 75600, Note_off_c, 2, 46, 80
4, 75600, Note_on_c, 2, 46, 95
4, 75840, Note_off_c, 2, 46, 80
4, 75840, Note_on_c, 2, 50, 95
4, 76320, Note_off_c, 2, 50, 80
4, 76320, Note_on_c, 2, 57, 95
4, 76560, Note_off_c, 2, 57, 80
4, 76560, Note_on_c, 2, 55, 95
4, 77040, Note_off_c, 2, 55, 80
4, 77040, Note_on_c, 2, 53, 95
4, 77520, Note_off_c, 2, 53, 80
4, 77520, Note_on_c, 2, 43, 95
4, 77760, Note_off_c, 2, 43, 80
4, 77760, Note_on_c, 2, 43, 95
4, 78000, Note_off_c, 2, 43, 80
4, 78000, Note_on_c, 2, 43, 95
4, 78240, Note_off_c, 2, 43, 80
4, 78240, Note_on_c, 2, 43, 95
4, 78480, Note_off_c, 2, 43, 80
4, 78480, Note_on_c, 2, 43, 95
4, 78720, Note_off_c, 2, 43, 80
4, 78720, Note_on_c, 2, 43, 95
4, 78960, Note_off_c, 2, 43, 80
4, 78960, Note_on_c, 2, 43, 95
4, 79200, Note_off_c, 2, 43, 80
4, 79200, Note_on_c, 2, 43, 95
4, 79440, Note_off_c, 2, 43, 80
4, 79440, Note_on_c, 2, 43, 95
4, 79680, Note_off_c, 2, 43, 80
4, 79680, Note_on_c, 2, 46, 95
4, 79920, Note_off_c, 2, 46, 80
4, 79920, Note_on_c, 2, 46, 95
4, 80160, Note_off_c, 2, 46, 80
4, 80160, Note_on_c, 2, 46, 95
4, 80400, Note_off_c, 2, 46, 80
4, 80400, Note_on_c, 2, 46, 95
4, 80640, Note_off_c, 2, 46, 80
4, 80640, Note_on_c, 2, 43, 95
4, 80880, Note_off_c, 2, 43, 80
4, 80880, Note_on_c, 2, 43, 95
4, 81120, Note_off_c, 2, 43, 80
4, 81120, Note_on_c, 2, 46, 95
4, 81360, Note_off_c, 2, 46, 80
4, 81360, Note_on_c, 2, 43, 95
4, 81600, Note_off_c, 2, 43, 80
4, 81600, Note_on_c, 2, 43, 95
4, 81840, Note_off_c, 2, 43, 80
4, 81840, Note_on_c, 2, 47, 95
4, 82080, Note_off_c, 2, 47, 80
4, 82080, Note_on_c, 2, 43, 95
4, 82320, Note_off_c, 2, 43, 80
4, 82320, Note_on_c, 2, 43, 95
4, 82560, Note_off_c, 2, 43, 80
4, 82560, Note_on_c, 2, 48, 95
4, 82800, Note_off_c, 2, 48, 80
4, 82800, Note_on_c, 2, 43, 95
4, 83040, Note_off_c, 2, 43, 80
4, 83040, Note_on_c, 2, 43, 95
4, 83280, Note_off_c, 2, 43, 80
4, 83280, Note_on_c, 2, 49, 95
4, 83520, Note_off_c, 2, 49, 80
4, 83520, Note_on_c, 2, 43, 95
4, 83760, Note_off_c, 2, 43, 80
4, 83760, Note_on_c, 2, 43, 95
4, 84000, Note_off_c, 2, 43, 80
4, 84000, Note_on_c, 2, 50, 95
4, 84240, Note_off_c, 2, 50, 80
4, 84240, Note_on_c, 2, 43, 95
4, 84480, Note_off_c, 2, 43, 80
4, 84480, Note_on_c, 2, 50, 95
4, 84720, Note_off_c, 2, 50, 80
4, 84720, Note_on_c, 2, 50, 95
4, 84960, Note_off_c, 2, 50, 80
4, 84960, Note_on_c, 2, 50, 95
4, 85200, Note_off_c, 2, 50, 80
4, 85200, Note_on_c, 2, 50, 95
4, 85440, Note_off_c, 2, 50, 80
4, 85440, Note_on_c, 2, 43, 95
4, 85680, Note_off_c, 2, 43, 80
4, 85680, Note_on_c, 2, 43, 95
4, 85920, Note_off_c, 2, 43, 80
4, 85920, Note_on_c, 2, 43, 95
4, 86160, Note_off_c, 2, 43, 80
4, 86160, Note_on_c, 2, 43, 95
4, 86400, Note_off_c, 2, 43, 80
4, 86400, Note_on_c, 2, 41, 95
4, 86640, Note_off_c, 2, 41, 80
4, 86640, Note_on_c, 2, 41, 95
4, 86880, Note_off_c, 2, 41, 80
4, 86880, Note_on_c, 2, 41, 95
4, 87120, Note_off_c, 2, 41, 80
4, 87120, Note_on_c, 2, 41, 95
4, 87360, Note_off_c, 2, 41, 80
4, 87360, Note_on_c, 2, 46, 95
4, 87600, Note_off_c, 2, 46, 80
4, 87600, Note_on_c, 2, 46, 95
4, 87840, Note_off_c, 2, 46, 80
4, 87840, Note_on_c, 2, 46, 95
4, 88080, Note_off_c, 2, 46, 80
4, 88080, Note_on_c, 2, 46, 95
4, 88320, Note_off_c, 2, 46, 80
4, 88320, Note_on_c, 2, 48, 95
4, 88560, Note_off_c, 2, 48, 80
4, 88560, Note_on_c, 2, 48, 95
4, 88800, Note_off_c, 2, 48, 80
4, 88800, Note_on_c, 2, 48, 95
4, 89040, Note_off_c, 2, 48, 80
4, 89040, Note_on_c, 2, 48, 95
4, 89280, Note_off_c, 2, 48, 80
4, 89280, Note_on_c, 2, 43, 95
4, 89520, Note_off_c, 2, 43, 80
4, 89520, Note_on_c, 2, 43, 95
4, 89760, Note_off_c, 2, 43, 80
4, 89760, Note_on_c, 2, 43, 95
4, 90000, Note_off_c, 2, 43, 80
4, 90000, Note_on_c, 2, 43, 95
4, 90240, Note_off_c, 2, 43, 80
4, 90240, Note_on_c, 2, 50, 95
4, 90480, Note_off_c, 2, 50, 80
4, 90480, Note_on_c, 2, 50, 95
4, 90720, Note_off_c, 2, 50, 80
4, 90720, Note_on_c, 2, 50, 95
4, 90960, Note_off_c, 2, 50, 80
4, 90960, Note_on_c, 2, 50, 95
4, 91200, Note_off_c, 2, 50, 80
4, 91200, Note_on_c, 2, 43, 95
4, 91440, Note_off_c, 2, 43, 80
4, 91440, Note_on_c, 2, 43, 95
4, 91680, Note_off_c, 2, 43, 80
4, 91680, Note_on_c, 2, 43, 95
4, 91920, Note_off_c, 2, 43, 80
4, 91920, Note_on_c, 2, 43, 95
4, 92160, Note_off_c, 2, 43, 80
4, 92160, Note_on_c, 2, 41, 95
4, 92400, Note_off_c, 2, 41, 80
4, 92400, Note_on_c, 2, 41, 95
4, 92640, Note_off_c, 2, 41, 80
4, 92640, Note_on_c, 2, 41, 95
4, 92880, Note_off_c, 2, 41, 80
4, 92880, Note_on_c, 2, 41, 95
4, 93120, Note_off_c, 2, 41, 80
4, 93120, Note_on_c, 2, 46, 95
4, 93360, Note_off_c, 2, 46, 80
4, 93360, Note_on_c, 2, 46, 95
4, 93600, Note_off_c, 2, 46, 80
4, 93600, Note_on_c, 2, 46, 95
4, 93840, Note_off_c, 2, 46, 80
4, 93840, Note_on_c, 2, 46, 95
4, 94080, Note_off_c, 2, 46, 80
4, 94080, Note_on_c, 2, 48, 95
4, 94320, Note_off_c, 2, 48, 80
4, 94320, Note_on_c, 2, 48, 95
4, 94560, Note_off_c, 2, 48, 80
4, 94560, Note_on_c, 2, 48, 95
4, 94800, Note_off_c, 2, 48, 80
4, 94800, Note_on_c, 2, 48, 95
4, 95040, Note_off_c, 2, 48, 80
4, 95040, Note_on_c, 2, 43, 95
4, 95280, Note_off_c, 2, 43, 80
4, 95280, Note_on_c, 2, 43, 95
4, 95520, Note_off_c, 2, 43, 80
4, 95520, Note_on_c, 2, 43, 95
4, 95760, Note_off_c, 2, 43, 80
4, 95760, Note_on_c, 2, 43, 95
4, 96000, Note_off_c, 2, 43, 80
4, 96000, Note_on_c, 2, 50, 95
4, 96240, Note_off_c, 2, 50, 80
4, 96240, Note_on_c, 2, 50, 95
4, 96480, Note_off_c, 2, 50, 80
4, 96480, Note_on_c, 2, 50, 95
4, 96720, Note_off_c, 2, 50, 80
4, 96720, Note_on_c, 2, 50, 95
4, 96960, Note_off_c, 2, 50, 80
4, 96960, Note_on_c, 2, 43, 95
4, 97200, Note_off_c, 2, 43, 80
4, 97200, Note_on_c, 2, 43, 95
4, 97440, Note_off_c, 2, 43, 80
4, 97440, Note_on_c, 2, 43, 95
4, 97680, Note_off_c, 2, 43, 80
4, 97680, Note_on_c, 2, 43, 95
4, 97920, Note_off_c, 2, 43, 80
4, 97920, Note_on_c, 2, 41, 95
4, 98160, Note_off_c, 2, 41, 80
4, 98160, Note_on_c, 2, 41, 95
4, 98400, Note_off_c, 2, 41, 80
4, 98400, Note_on_c, 2, 41, 95
4, 98640, Note_off_c, 2, 41, 80
4, 98640, Note_on_c, 2, 41, 95
4, 98880, Note_off_c, 2, 41, 80
4, 98880, Note_on_c, 2, 46, 95
4, 99120, Note_off_c, 2, 46, 80
4, 99120, Note_on_c, 2, 46, 95
4, 99360, Note_off_c, 2, 46, 80
4, 99360, Note_on_c, 2, 46, 95
4, 99600, Note_off_c, 2, 46, 80
4, 99600, Note_on_c, 2, 46, 95
4, 99840, Note_off_c, 2, 46, 80
4, 99840, Note_on_c, 2, 48, 95
4, 100080, Note_off_c, 2, 48, 80
4, 100080, Note_on_c, 2, 48, 95
4, 100320, Note_off_c, 2, 48, 80
4, 100320, Note_on_c, 2, 48, 95
4, 100560, Note_off_c, 2, 48, 80
4, 100560, Note_on_c, 2, 48, 95
4, 100800, Note_off_c, 2, 48, 80
4, 100800, Note_on_c, 2, 43, 95
4, 101040, Note_off_c, 2, 43, 80
4, 101040, Note_on_c, 2, 43, 95
4, 101280, Note_off_c, 2, 43, 80
4, 101280, Note_on_c, 2, 43, 95
4, 101520, Note_off_c, 2, 43, 80
4, 101520, Note_on_c, 2, 43, 95
4, 101760, Note_off_c, 2, 43, 80
4, 101760, Note_on_c, 2, 43, 95
4, 102000, Note_off_c, 2, 43, 80
4, 102000, Note_on_c, 2, 43, 95
4, 102240, Note_off_c, 2, 43, 80
4, 102240, Note_on_c, 2, 43, 95
4, 102480, Note_off_c, 2, 43, 80
4, 102480, Note_on_c, 2, 43, 95
4, 102720, Note_off_c, 2, 43, 80
4, 102720, Note_on_c, 2, 43, 95
4, 102960, Note_off_c, 2, 43, 80
4, 102960, Note_on_c, 2, 43, 95
4, 103200, Note_off_c, 2, 43, 80
4, 103680, Note_on_c, 2, 46, 95
4, 104160, Note_off_c, 2, 46, 80
4, 104160, Note_on_c, 2, 46, 95
4, 104400, Note_off_c, 2, 46, 80
4, 104400, Note_on_c, 2, 46, 95
4, 104640, Note_off_c, 2, 46, 80
4, 104640, Note_on_c, 2, 46, 95
4, 104880, Note_off_c, 2, 46, 80
4, 104880, Note_on_c, 2, 46, 95
4, 105120, Note_off_c, 2, 46, 80
4, 105120, Note_on_c, 2, 46, 95
4, 105360, Note_off_c, 2, 46, 80
4, 105360, Note_on_c, 2, 46, 95
4, 105600, Note_off_c, 2, 46, 80
4, 105600, Note_on_c, 2, 50, 95
4, 106080, Note_off_c, 2, 50, 80
4, 106080, Note_on_c, 2, 50, 95
4, 106560, Note_off_c, 2, 50, 80
4, 106560, Note_on_c, 2, 46, 95
4, 107040, Note_off_c, 2, 46, 80
4, 107040, Note_on_c, 2, 46, 95
4, 107280, Note_off_c, 2, 46, 80
4, 107280, Note_on_c, 2, 46, 95
4, 107520, Note_off_c, 2, 46, 80
4, 107520, Note_on_c, 2, 46, 95
4, 107760, Note_off_c, 2, 46, 80
4, 107760, Note_on_c, 2, 46, 95
4, 108000, Note_off_c, 2, 46, 80
4, 108000, Note_on_c, 2, 46, 95
4, 108240, Note_off_c, 2, 46, 80
4, 108240, Note_on_c, 2, 46, 95
4, 108480, Note_off_c, 2, 46, 80
4, 108480, Note_on_c, 2, 50, 95
4, 108960, Note_off_c, 2, 50, 80
4, 108960, Note_on_c, 2, 50, 95
4, 109440, Note_off_c, 2, 50, 80
4, 109440, Note_on_c, 2, 46, 95
4, 109920, Note_off_c, 2, 46, 80
4, 109920, Note_on_c, 2, 46, 95
4, 110160, Note_off_c, 2, 46, 80
4, 110160, Note_on_c, 2, 46, 95
4, 110400, Note_off_c, 2, 46, 80
4, 110400, Note_on_c, 2, 46, 95
4, 110640, Note_off_c, 2, 46, 80
4, 110640, Note_on_c, 2, 46, 95
4, 110880, Note_off_c, 2, 46, 80
4, 110880, Note_on_c, 2, 46, 95
4, 111120, Note_off_c, 2, 46, 80
4, 111120, Note_on_c, 2, 46, 95
4, 111360, Note_off_c, 2, 46, 80
4, 111360, Note_on_c, 2, 41, 95
4, 111600, Note_off_c, 2, 41, 80
4, 111600, Note_on_c, 2, 41, 95
4, 111840, Note_off_c, 2, 41, 80
4, 111840, Note_on_c, 2, 41, 95
4, 112080, Note_off_c, 2, 41, 80
4, 112080, Note_on_c, 2, 41, 95
4, 112320, Note_off_c, 2, 41, 80
4, 112320, Note_on_c, 2, 46, 95
4, 112560, Note_off_c, 2, 46, 80
4, 112560, Note_on_c, 2, 46, 95
4, 112800, Note_off_c, 2, 46, 80
4, 112800, Note_on_c, 2, 46, 95
4, 113040, Note_off_c, 2, 46, 80
4, 113040, Note_on_c, 2, 46, 95
4, 113280, Note_off_c, 2, 46, 80
4, 113280, Note_on_c, 2, 41, 95
4, 113760, Note_off_c, 2, 41, 80
4, 113760, End_track
5, 0, Start_track
5, 0, Title_t, "Joey Santiago"
5, 0, Control_c, 5, 100, 0
5, 0, Control_c, 5, 101, 0
5, 0, Control_c, 5, 6, 12
5, 0, Pitch_bend_c, 5, 8192
5, 0, Control_c, 5, 101, 0
5, 0, Control_c, 5, 100, 1
5, 0, Control_c, 5, 6, 64
5, 0, Control_c, 5, 38, 0
5, 0, Control_c, 5, 101, 127
5, 0, Control_c, 5, 100, 127
5, 0, Control_c, 4, 100, 0
5, 0, Control_c, 4, 101, 0
5, 0, Control_c, 4, 6, 12
5, 0, Pitch_bend_c, 4, 8192
5, 0, Control_c, 4, 101, 0
5, 0, Control_c, 4, 100, 1
5, 0, Control_c, 4, 6, 64
5, 0, Control_c, 4, 38, 0
5, 0, Control_c, 4, 101, 127
5, 0, Control_c, 4, 100, 127
5, 0, Control_c, 5, 101, 0
5, 0, Control_c, 5, 100, 2
5, 0, Control_c, 5, 6, 64
5, 0, Control_c, 5, 101, 127
5, 0, Control_c, 5, 100, 127
5, 0, Control_c, 4, 101, 0
5, 0, Control_c, 4, 100, 2
5, 0, Control_c, 4, 6, 64
5, 0, Control_c, 4, 101, 127
5, 0, Control_c, 4, 100, 127
5, 0, Program_c, 5, 29
5, 0, Program_c, 4, 29
5, 0, Control_c, 5, 0, 0
5, 0, Control_c, 4, 0, 0
5, 0, Control_c, 5, 7, 120
5, 0, Control_c, 4, 7, 120
5, 0, Control_c, 5, 10, 64
5, 0, Control_c, 4, 10, 64
5, 0, Control_c, 5, 93, 0
5, 0, Control_c, 4, 93, 0
5, 0, Control_c, 5, 91, 0
5, 0, Control_c, 4, 91, 0
5, 0, Control_c, 5, 92, 0
5, 0, Control_c, 4, 92, 0
5, 0, Control_c, 5, 95, 0
5, 0, Control_c, 4, 95, 0
5, 1920, Note_on_c, 4, 64, 95
5, 1920, Note_on_c, 4, 52, 95
5, 2160, Note_off_c, 4, 64, 80
5, 2160, Note_off_c, 4, 52, 80
5, 2160, Note_on_c, 4, 64, 95
5, 2160, Note_on_c, 4, 52, 95
5, 2400, Note_off_c, 4, 64, 80
5, 2400, Note_off_c, 4, 52, 80
5, 2400, Note_on_c, 4, 64, 95
5, 2400, Note_on_c, 4, 52, 95
5, 2640, Note_off_c, 4, 64, 80
5, 2640, Note_off_c, 4, 52, 80
5, 2640, Note_on_c, 4, 64, 95
5, 2640, Note_on_c, 4, 52, 95
5, 2880, Note_off_c, 4, 64, 80
5, 2880, Note_off_c, 4, 52, 80
5, 2880, Note_on_c, 4, 64, 95
5, 2880, Note_on_c, 4, 52, 95
5, 3120, Note_off_c, 4, 64, 80
5, 3120, Note_off_c, 4, 52, 80
5, 3120, Note_on_c, 4, 64, 95
5, 3120, Note_on_c, 4, 52, 95
5, 3360, Note_off_c, 4, 64, 80
5, 3360, Note_off_c, 4, 52, 80
5, 3360, Note_on_c, 4, 64, 95
5, 3360, Note_on_c, 4, 52, 95
5, 3600, Note_off_c, 4, 64, 80
5, 3600, Note_off_c, 4, 52, 80
5, 3600, Note_on_c, 4, 64, 95
5, 3600, Note_on_c, 4, 52, 95
5, 3840, Note_off_c, 4, 64, 80
5, 3840, Note_off_c, 4, 52, 80
5, 3840, Note_on_c, 4, 64, 95
5, 3840, Note_on_c, 4, 52, 95
5, 4080, Note_off_c, 4, 64, 80
5, 4080, Note_off_c, 4, 52, 80
5, 4080, Note_on_c, 4, 64, 95
5, 4080, Note_on_c, 4, 52, 95
5, 4320, Note_off_c, 4, 64, 80
5, 4320, Note_off_c, 4, 52, 80
5, 4320, Note_on_c, 4, 64, 95
5, 4320, Note_on_c, 4, 52, 95
5, 4560, Note_off_c, 4, 64, 80
5, 4560, Note_off_c, 4, 52, 80
5, 4560, Note_on_c, 4, 64, 95
5, 4560, Note_on_c, 4, 52, 95
5, 4800, Note_off_c, 4, 64, 80
5, 4800, Note_off_c, 4, 52, 80
5, 4800, Note_on_c, 4, 64, 95
5, 4800, Note_on_c, 4, 52, 95
5, 5040, Note_off_c, 4, 64, 80
5, 5040, Note_off_c, 4, 52, 80
5, 5040, Note_on_c, 4, 64, 95
5, 5040, Note_on_c, 4, 52, 95
5, 5280, Note_off_c, 4, 64, 80
5, 5280, Note_off_c, 4, 52, 80
5, 5280, Note_on_c, 4, 65, 95
5, 5280, Note_on_c, 4, 53, 95
5, 5520, Note_off_c, 4, 65, 80
5, 5520, Note_off_c, 4, 53, 80
5, 5520, Note_on_c, 4, 65, 95
5, 5520, Note_on_c, 4, 53, 95
5, 5760, Note_off_c, 4, 65, 80
5, 5760, Note_off_c, 4, 53, 80
5, 5760, Note_on_c, 4, 64, 95
5, 5760, Note_on_c, 4, 52, 95
5, 6000, Note_off_c, 4, 64, 80
5, 6000, Note_off_c, 4, 52, 80
5, 6000, Note_on_c, 4, 64, 95
5, 6000, Note_on_c, 4, 52, 95
5, 6240, Note_off_c, 4, 64, 80
5, 6240, Note_off_c, 4, 52, 80
5, 6240, Note_on_c, 4, 64, 95
5, 6240, Note_on_c, 4, 52, 95
5, 6480, Note_off_c, 4, 64, 80
5, 6480, Note_off_c, 4, 52, 80
5, 6480, Note_on_c, 4, 64, 95
5, 6480, Note_on_c, 4, 52, 95
5, 6720, Note_off_c, 4, 64, 80
5, 6720, Note_off_c, 4, 52, 80
5, 6720, Note_on_c, 4, 64, 95
5, 6720, Note_on_c, 4, 52, 95
5, 6960, Note_off_c, 4, 64, 80
5, 6960, Note_off_c, 4, 52, 80
5, 6960, Note_on_c, 4, 64, 95
5, 6960, Note_on_c, 4, 52, 95
5, 7200, Note_off_c, 4, 64, 80
5, 7200, Note_off_c, 4, 52, 80
5, 7200, Note_on_c, 4, 64, 95
5, 7200, Note_on_c, 4, 52, 95
5, 7440, Note_off_c, 4, 64, 80
5, 7440, Note_off_c, 4, 52, 80
5, 7440, Note_on_c, 4, 64, 95
5, 7440, Note_on_c, 4, 52, 95
5, 7680, Note_off_c, 4, 64, 80
5, 7680, Note_off_c, 4, 52, 80
5, 7680, Note_on_c, 4, 64, 95
5, 7680, Note_on_c, 4, 52, 95
5, 7920, Note_off_c, 4, 64, 80
5, 7920, Note_off_c, 4, 52, 80
5, 7920, Note_on_c, 4, 64, 95
5, 7920, Note_on_c, 4, 52, 95
5, 8160, Note_off_c, 4, 64, 80
5, 8160, Note_off_c, 4, 52, 80
5, 8160, Note_on_c, 4, 64, 95
5, 8160, Note_on_c, 4, 52, 95
5, 8400, Note_off_c, 4, 64, 80
5, 8400, Note_off_c, 4, 52, 80
5, 8400, Note_on_c, 4, 64, 95
5, 8400, Note_on_c, 4, 52, 95
5, 8640, Note_off_c, 4, 64, 80
5, 8640, Note_off_c, 4, 52, 80
5, 8640, Note_on_c, 4, 64, 95
5, 8640, Note_on_c, 4, 52, 95
5, 8880, Note_off_c, 4, 64, 80
5, 8880, Note_off_c, 4, 52, 80
5, 8880, Note_on_c, 4, 64, 95
5, 8880, Note_on_c, 4, 52, 95
5, 9120, Note_off_c, 4, 64, 80
5, 9120, Note_off_c, 4, 52, 80
5, 9120, Note_on_c, 4, 65, 95
5, 9120, Note_on_c, 4, 53, 95
5, 9360, Note_off_c, 4, 65, 80
5, 9360, Note_off_c, 4, 53, 80
5, 9360, Note_on_c, 4, 65, 95
5, 9360, Note_on_c, 4, 53, 95
5, 9600, Note_off_c, 4, 65, 80
5, 9600, Note_off_c, 4, 53, 80
5, 9600, Note_on_c, 4, 64, 95
5, 9600, Note_on_c, 4, 52, 95
5, 9840, Note_off_c, 4, 64, 80
5, 9840, Note_off_c, 4, 52, 80
5, 9840, Note_on_c, 4, 64, 95
5, 9840, Note_on_c, 4, 52, 95
5, 10080, Note_off_c, 4, 64, 80
5, 10080, Note_off_c, 4, 52, 80
5, 10080, Note_on_c, 4, 64, 95
5, 10080, Note_on_c, 4, 52, 95
5, 10320, Note_off_c, 4, 64, 80
5, 10320, Note_off_c, 4, 52, 80
5, 10320, Note_on_c, 4, 64, 95
5, 10320, Note_on_c, 4, 52, 95
5, 10560, Note_off_c, 4, 64, 80
5, 10560, Note_off_c, 4, 52, 80
5, 10560, Note_on_c, 4, 64, 95
5, 10560, Note_on_c, 4, 52, 95
5, 10800, Note_off_c, 4, 64, 80
5, 10800, Note_off_c, 4, 52, 80
5, 10800, Note_on_c, 4, 64, 95
5, 10800, Note_on_c, 4, 52, 95
5, 11040, Note_off_c, 4, 64, 80
5, 11040, Note_off_c, 4, 52, 80
5, 11040, Note_on_c, 4, 64, 95
5, 11040, Note_on_c, 4, 52, 95
5, 11280, Note_off_c, 4, 64, 80
5, 11280, Note_off_c, 4, 52, 80
5, 11280, Note_on_c, 4, 64, 95
5, 11280, Note_on_c, 4, 52, 95
5, 11520, Note_off_c, 4, 64, 80
5, 11520, Note_off_c, 4, 52, 80
5, 11520, Note_on_c, 4, 64, 95
5, 11520, Note_on_c, 4, 52, 95
5, 11760, Note_off_c, 4, 64, 80
5, 11760, Note_off_c, 4, 52, 80
5, 11760, Note_on_c, 4, 64, 95
5, 11760, Note_on_c, 4, 52, 95
5, 12000, Note_off_c, 4, 64, 80
5, 12000, Note_off_c, 4, 52, 80
5, 12000, Note_on_c, 4, 64, 95
5, 12000, Note_on_c, 4, 52, 95
5, 12240, Note_off_c, 4, 64, 80
5, 12240, Note_off_c, 4, 52, 80
5, 12240, Note_on_c, 4, 64, 95
5, 12240, Note_on_c, 4, 52, 95
5, 12480, Note_off_c, 4, 64, 80
5, 12480, Note_off_c, 4, 52, 80
5, 12480, Note_on_c, 4, 64, 95
5, 12480, Note_on_c, 4, 52, 95
5, 12720, Note_off_c, 4, 64, 80
5, 12720, Note_off_c, 4, 52, 80
5, 12720, Note_on_c, 4, 64, 95
5, 12720, Note_on_c, 4, 52, 95
5, 12960, Note_off_c, 4, 64, 80
5, 12960, Note_off_c, 4, 52, 80
5, 12960, Note_on_c, 4, 64, 95
5, 12960, Note_on_c, 4, 52, 95
5, 13200, Note_off_c, 4, 64, 80
5, 13200, Note_off_c, 4, 52, 80
5, 13200, Note_on_c, 4, 64, 95
5, 13200, Note_on_c, 4, 52, 95
5, 13440, Note_off_c, 4, 64, 80
5, 13440, Note_off_c, 4, 52, 80
5, 13440, Note_on_c, 4, 64, 95
5, 13440, Note_on_c, 4, 52, 95
5, 13680, Note_off_c, 4, 64, 80
5, 13680, Note_off_c, 4, 52, 80
5, 13680, Note_on_c, 4, 64, 95
5, 13680, Note_on_c, 4, 52, 95
5, 13920, Note_off_c, 4, 64, 80
5, 13920, Note_off_c, 4, 52, 80
5, 13920, Note_on_c, 4, 64, 95
5, 13920, Note_on_c, 4, 52, 95
5, 14160, Note_off_c, 4, 64, 80
5, 14160, Note_off_c, 4, 52, 80
5, 14160, Note_on_c, 4, 64, 95
5, 14160, Note_on_c, 4, 52, 95
5, 14400, Note_off_c, 4, 64, 80
5, 14400, Note_off_c, 4, 52, 80
5, 14400, Note_on_c, 4, 64, 95
5, 14400, Note_on_c, 4, 52, 95
5, 14640, Note_off_c, 4, 64, 80
5, 14640, Note_off_c, 4, 52, 80
5, 14640, Note_on_c, 4, 64, 95
5, 14640, Note_on_c, 4, 52, 95
5, 14880, Note_off_c, 4, 64, 80
5, 14880, Note_off_c, 4, 52, 80
5, 14880, Note_on_c, 4, 64, 95
5, 14880, Note_on_c, 4, 52, 95
5, 15120, Note_off_c, 4, 64, 80
5, 15120, Note_off_c, 4, 52, 80
5, 15120, Note_on_c, 4, 64, 95
5, 15120, Note_on_c, 4, 52, 95
5, 15360, Note_off_c, 4, 64, 80
5, 15360, Note_off_c, 4, 52, 80
5, 15360, Note_on_c, 4, 64, 95
5, 15360, Note_on_c, 4, 52, 95
5, 15600, Note_off_c, 4, 64, 80
5, 15600, Note_off_c, 4, 52, 80
5, 15600, Note_on_c, 4, 64, 95
5, 15600, Note_on_c, 4, 52, 95
5, 15840, Note_off_c, 4, 64, 80
5, 15840, Note_off_c, 4, 52, 80
5, 15840, Note_on_c, 4, 64, 95
5, 15840, Note_on_c, 4, 52, 95
5, 16080, Note_off_c, 4, 64, 80
5, 16080, Note_off_c, 4, 52, 80
5, 16080, Note_on_c, 4, 64, 95
5, 16080, Note_on_c, 4, 52, 95
5, 16320, Note_off_c, 4, 64, 80
5, 16320, Note_off_c, 4, 52, 80
5, 16320, Note_on_c, 4, 64, 95
5, 16320, Note_on_c, 4, 52, 95
5, 16560, Note_off_c, 4, 64, 80
5, 16560, Note_off_c, 4, 52, 80
5, 16560, Note_on_c, 4, 64, 95
5, 16560, Note_on_c, 4, 52, 95
5, 16800, Note_off_c, 4, 64, 80
5, 16800, Note_off_c, 4, 52, 80
5, 16800, Note_on_c, 4, 64, 95
5, 16800, Note_on_c, 4, 52, 95
5, 17040, Note_off_c, 4, 64, 80
5, 17040, Note_off_c, 4, 52, 80
5, 17040, Note_on_c, 4, 64, 95
5, 17040, Note_on_c, 4, 52, 95
5, 17280, Note_off_c, 4, 64, 80
5, 17280, Note_off_c, 4, 52, 80
5, 17280, Note_on_c, 4, 64, 95
5, 17280, Note_on_c, 4, 52, 95
5, 17520, Note_off_c, 4, 64, 80
5, 17520, Note_off_c, 4, 52, 80
5, 17520, Note_on_c, 4, 64, 95
5, 17520, Note_on_c, 4, 52, 95
5, 17760, Note_off_c, 4, 64, 80
5, 17760, Note_off_c, 4, 52, 80
5, 17760, Note_on_c, 4, 65, 95
5, 17760, Note_on_c, 4, 53, 95
5, 18000, Note_off_c, 4, 65, 80
5, 18000, Note_off_c, 4, 53, 80
5, 18000, Note_on_c, 4, 65, 95
5, 18000, Note_on_c, 4, 53, 95
5, 18240, Note_off_c, 4, 65, 80
5, 18240, Note_off_c, 4, 53, 80
5, 18240, Note_on_c, 4, 64, 95
5, 18240, Note_on_c, 4, 52, 95
5, 18480, Note_off_c, 4, 64, 80
5, 18480, Note_off_c, 4, 52, 80
5, 18480, Note_on_c, 4, 64, 95
5, 18480, Note_on_c, 4, 52, 95
5, 18720, Note_off_c, 4, 64, 80
5, 18720, Note_off_c, 4, 52, 80
5, 18720, Note_on_c, 4, 64, 95
5, 18720, Note_on_c, 4, 52, 95
5, 18960, Note_off_c, 4, 64, 80
5, 18960, Note_off_c, 4, 52, 80
5, 18960, Note_on_c, 4, 64, 95
5, 18960, Note_on_c, 4, 52, 95
5, 19200, Note_off_c, 4, 64, 80
5, 19200, Note_off_c, 4, 52, 80
5, 19200, Note_on_c, 4, 64, 95
5, 19200, Note_on_c, 4, 52, 95
5, 19440, Note_off_c, 4, 64, 80
5, 19440, Note_off_c, 4, 52, 80
5, 19440, Note_on_c, 4, 64, 95
5, 19440, Note_on_c, 4, 52, 95
5, 19680, Note_off_c, 4, 64, 80
5, 19680, Note_off_c, 4, 52, 80
5, 19680, Note_on_c, 4, 64, 95
5, 19680, Note_on_c, 4, 52, 95
5, 19920, Note_off_c, 4, 64, 80
5, 19920, Note_off_c, 4, 52, 80
5, 19920, Note_on_c, 4, 64, 95
5, 19920, Note_on_c, 4, 52, 95
5, 20160, Note_off_c, 4, 64, 80
5, 20160, Note_off_c, 4, 52, 80
5, 20160, Note_on_c, 4, 64, 95
5, 20160, Note_on_c, 4, 52, 95
5, 20400, Note_off_c, 4, 64, 80
5, 20400, Note_off_c, 4, 52, 80
5, 20400, Note_on_c, 4, 64, 95
5, 20400, Note_on_c, 4, 52, 95
5, 20640, Note_off_c, 4, 64, 80
5, 20640, Note_off_c, 4, 52, 80
5, 20640, Note_on_c, 4, 64, 95
5, 20640, Note_on_c, 4, 52, 95
5, 20880, Note_off_c, 4, 64, 80
5, 20880, Note_off_c, 4, 52, 80
5, 20880, Note_on_c, 4, 64, 95
5, 20880, Note_on_c, 4, 52, 95
5, 21120, Note_off_c, 4, 64, 80
5, 21120, Note_off_c, 4, 52, 80
5, 21120, Note_on_c, 4, 64, 95
5, 21120, Note_on_c, 4, 52, 95
5, 21360, Note_off_c, 4, 64, 80
5, 21360, Note_off_c, 4, 52, 80
5, 21360, Note_on_c, 4, 64, 95
5, 21360, Note_on_c, 4, 52, 95
5, 21600, Note_off_c, 4, 64, 80
5, 21600, Note_off_c, 4, 52, 80
5, 21600, Note_on_c, 4, 65, 95
5, 21600, Note_on_c, 4, 53, 95
5, 21840, Note_off_c, 4, 65, 80
5, 21840, Note_off_c, 4, 53, 80
5, 21840, Note_on_c, 4, 65, 95
5, 21840, Note_on_c, 4, 53, 95
5, 22080, Note_off_c, 4, 65, 80
5, 22080, Note_off_c, 4, 53, 80
5, 22080, Note_on_c, 4, 64, 95
5, 22080, Note_on_c, 4, 52, 95
5, 22320, Note_off_c, 4, 64, 80
5, 22320, Note_off_c, 4, 52, 80
5, 22320, Note_on_c, 4, 64, 95
5, 22320, Note_on_c, 4, 52, 95
5, 22560, Note_off_c, 4, 64, 80
5, 22560, Note_off_c, 4, 52, 80
5, 22560, Note_on_c, 4, 64, 95
5, 22560, Note_on_c, 4, 52, 95
5, 22800, Note_off_c, 4, 64, 80
5, 22800, Note_off_c, 4, 52, 80
5, 22800, Note_on_c, 4, 64, 95
5, 22800, Note_on_c, 4, 52, 95
5, 23040, Note_off_c, 4, 64, 80
5, 23040, Note_off_c, 4, 52, 80
5, 23040, Note_on_c, 4, 64, 95
5, 23040, Note_on_c, 4, 52, 95
5, 23280, Note_off_c, 4, 64, 80
5, 23280, Note_off_c, 4, 52, 80
5, 23280, Note_on_c, 4, 64, 95
5, 23280, Note_on_c, 4, 52, 95
5, 23520, Note_off_c, 4, 64, 80
5, 23520, Note_off_c, 4, 52, 80
5, 23520, Note_on_c, 4, 64, 95
5, 23520, Note_on_c, 4, 52, 95
5, 23760, Note_off_c, 4, 64, 80
5, 23760, Note_off_c, 4, 52, 80
5, 23760, Note_on_c, 4, 64, 95
5, 23760, Note_on_c, 4, 52, 95
5, 24000, Note_off_c, 4, 64, 80
5, 24000, Note_off_c, 4, 52, 80
5, 24000, Note_on_c, 4, 64, 95
5, 24000, Note_on_c, 4, 52, 95
5, 24240, Note_off_c, 4, 64, 80
5, 24240, Note_off_c, 4, 52, 80
5, 24240, Note_on_c, 4, 64, 95
5, 24240, Note_on_c, 4, 52, 95
5, 24480, Note_off_c, 4, 64, 80
5, 24480, Note_off_c, 4, 52, 80
5, 24480, Note_on_c, 4, 64, 95
5, 24480, Note_on_c, 4, 52, 95
5, 24720, Note_off_c, 4, 64, 80
5, 24720, Note_off_c, 4, 52, 80
5, 24720, Note_on_c, 4, 64, 95
5, 24720, Note_on_c, 4, 52, 95
5, 24960, Note_off_c, 4, 64, 80
5, 24960, Note_off_c, 4, 52, 80
5, 24960, Note_on_c, 4, 64, 95
5, 24960, Note_on_c, 4, 52, 95
5, 25200, Note_off_c, 4, 64, 80
5, 25200, Note_off_c, 4, 52, 80
5, 25200, Note_on_c, 4, 64, 95
5, 25200, Note_on_c, 4, 52, 95
5, 25440, Note_off_c, 4, 64, 80
5, 25440, Note_off_c, 4, 52, 80
5, 25440, Note_on_c, 4, 64, 95
5, 25440, Note_on_c, 4, 52, 95
5, 25680, Note_off_c, 4, 64, 80
5, 25680, Note_off_c, 4, 52, 80
5, 25680, Note_on_c, 4, 64, 95
5, 25680, Note_on_c, 4, 52, 95
5, 25920, Note_off_c, 4, 64, 80
5, 25920, Note_off_c, 4, 52, 80
5, 25920, Note_on_c, 4, 64, 95
5, 25920, Note_on_c, 4, 52, 95
5, 26160, Note_off_c, 4, 64, 80
5, 26160, Note_off_c, 4, 52, 80
5, 26160, Note_on_c, 4, 64, 95
5, 26160, Note_on_c, 4, 52, 95
5, 26400, Note_off_c, 4, 64, 80
5, 26400, Note_off_c, 4, 52, 80
5, 26400, Note_on_c, 4, 64, 95
5, 26400, Note_on_c, 4, 52, 95
5, 26640, Note_off_c, 4, 64, 80
5, 26640, Note_off_c, 4, 52, 80
5, 26640, Note_on_c, 4, 64, 95
5, 26640, Note_on_c, 4, 52, 95
5, 26880, Note_off_c, 4, 64, 80
5, 26880, Note_off_c, 4, 52, 80
5, 26880, Note_on_c, 4, 64, 95
5, 26880, Note_on_c, 4, 52, 95
5, 27120, Note_off_c, 4, 64, 80
5, 27120, Note_off_c, 4, 52, 80
5, 27120, Note_on_c, 4, 64, 95
5, 27120, Note_on_c, 4, 52, 95
5, 27360, Note_off_c, 4, 64, 80
5, 27360, Note_off_c, 4, 52, 80
5, 27360, Note_on_c, 4, 64, 95
5, 27360, Note_on_c, 4, 52, 95
5, 27600, Note_off_c, 4, 64, 80
5, 27600, Note_off_c, 4, 52, 80
5, 27600, Note_on_c, 4, 64, 95
5, 27600, Note_on_c, 4, 52, 95
5, 27840, Note_off_c, 4, 64, 80
5, 27840, Note_off_c, 4, 52, 80
5, 27840, Note_on_c, 4, 64, 95
5, 27840, Note_on_c, 4, 52, 95
5, 28080, Note_off_c, 4, 64, 80
5, 28080, Note_off_c, 4, 52, 80
5, 28080, Note_on_c, 4, 64, 95
5, 28080, Note_on_c, 4, 52, 95
5, 28320, Note_off_c, 4, 64, 80
5, 28320, Note_off_c, 4, 52, 80
5, 28320, Note_on_c, 4, 64, 95
5, 28320, Note_on_c, 4, 52, 95
5, 28560, Note_off_c, 4, 64, 80
5, 28560, Note_off_c, 4, 52, 80
5, 28560, Note_on_c, 4, 64, 95
5, 28560, Note_on_c, 4, 52, 95
5, 28800, Note_off_c, 4, 64, 80
5, 28800, Note_off_c, 4, 52, 80
5, 28800, Note_on_c, 4, 64, 95
5, 28800, Note_on_c, 4, 52, 95
5, 29040, Note_off_c, 4, 64, 80
5, 29040, Note_off_c, 4, 52, 80
5, 29040, Note_on_c, 4, 64, 95
5, 29040, Note_on_c, 4, 52, 95
5, 29280, Note_off_c, 4, 64, 80
5, 29280, Note_off_c, 4, 52, 80
5, 29280, Note_on_c, 4, 64, 95
5, 29280, Note_on_c, 4, 52, 95
5, 29520, Note_off_c, 4, 64, 80
5, 29520, Note_off_c, 4, 52, 80
5, 29520, Note_on_c, 4, 64, 95
5, 29520, Note_on_c, 4, 52, 95
5, 29760, Note_off_c, 4, 64, 80
5, 29760, Note_off_c, 4, 52, 80
5, 29760, Note_on_c, 4, 64, 95
5, 29760, Note_on_c, 4, 52, 95
5, 30000, Note_off_c, 4, 64, 80
5, 30000, Note_off_c, 4, 52, 80
5, 30000, Note_on_c, 4, 64, 95
5, 30000, Note_on_c, 4, 52, 95
5, 30240, Note_off_c, 4, 64, 80
5, 30240, Note_off_c, 4, 52, 80
5, 30240, Note_on_c, 4, 65, 95
5, 30240, Note_on_c, 4, 53, 95
5, 30480, Note_off_c, 4, 65, 80
5, 30480, Note_off_c, 4, 53, 80
5, 30480, Note_on_c, 4, 65, 95
5, 30480, Note_on_c, 4, 53, 95
5, 30720, Note_off_c, 4, 65, 80
5, 30720, Note_off_c, 4, 53, 80
5, 30720, Note_on_c, 4, 64, 95
5, 30720, Note_on_c, 4, 52, 95
5, 30960, Note_off_c, 4, 64, 80
5, 30960, Note_off_c, 4, 52, 80
5, 30960, Note_on_c, 4, 64, 95
5, 30960, Note_on_c, 4, 52, 95
5, 31200, Note_off_c, 4, 64, 80
5, 31200, Note_off_c, 4, 52, 80
5, 31200, Note_on_c, 4, 64, 95
5, 31200, Note_on_c, 4, 52, 95
5, 31440, Note_off_c, 4, 64, 80
5, 31440, Note_off_c, 4, 52, 80
5, 31440, Note_on_c, 4, 64, 95
5, 31440, Note_on_c, 4, 52, 95
5, 31680, Note_off_c, 4, 64, 80
5, 31680, Note_off_c, 4, 52, 80
5, 31680, Note_on_c, 4, 64, 95
5, 31680, Note_on_c, 4, 52, 95
5, 31920, Note_off_c, 4, 64, 80
5, 31920, Note_off_c, 4, 52, 80
5, 31920, Note_on_c, 4, 64, 95
5, 31920, Note_on_c, 4, 52, 95
5, 32160, Note_off_c, 4, 64, 80
5, 32160, Note_off_c, 4, 52, 80
5, 32160, Note_on_c, 4, 64, 95
5, 32160, Note_on_c, 4, 52, 95
5, 32400, Note_off_c, 4, 64, 80
5, 32400, Note_off_c, 4, 52, 80
5, 32400, Note_on_c, 4, 64, 95
5, 32400, Note_on_c, 4, 52, 95
5, 32640, Note_off_c, 4, 64, 80
5, 32640, Note_off_c, 4, 52, 80
5, 32640, Note_on_c, 4, 64, 95
5, 32640, Note_on_c, 4, 52, 95
5, 32880, Note_off_c, 4, 64, 80
5, 32880, Note_off_c, 4, 52, 80
5, 32880, Note_on_c, 4, 64, 95
5, 32880, Note_on_c, 4, 52, 95
5, 33120, Note_off_c, 4, 64, 80
5, 33120, Note_off_c, 4, 52, 80
5, 33120, Note_on_c, 4, 64, 95
5, 33120, Note_on_c, 4, 52, 95
5, 33360, Note_off_c, 4, 64, 80
5, 33360, Note_off_c, 4, 52, 80
5, 33360, Note_on_c, 4, 64, 95
5, 33360, Note_on_c, 4, 52, 95
5, 33600, Note_off_c, 4, 64, 80
5, 33600, Note_off_c, 4, 52, 80
5, 33600, Note_on_c, 4, 64, 95
5, 33600, Note_on_c, 4, 52, 95
5, 33840, Note_off_c, 4, 64, 80
5, 33840, Note_off_c, 4, 52, 80
5, 33840, Note_on_c, 4, 64, 95
5, 33840, Note_on_c, 4, 52, 95
5, 34080, Note_off_c, 4, 64, 80
5, 34080, Note_off_c, 4, 52, 80
5, 34080, Note_on_c, 4, 65, 95
5, 34080, Note_on_c, 4, 53, 95
5, 34320, Note_off_c, 4, 65, 80
5, 34320, Note_off_c, 4, 53, 80
5, 34320, Note_on_c, 4, 65, 95
5, 34320, Note_on_c, 4, 53, 95
5, 34560, Note_off_c, 4, 65, 80
5, 34560, Note_off_c, 4, 53, 80
5, 34560, Note_on_c, 4, 64, 95
5, 34560, Note_on_c, 4, 52, 95
5, 34800, Note_off_c, 4, 64, 80
5, 34800, Note_off_c, 4, 52, 80
5, 34800, Note_on_c, 4, 64, 95
5, 34800, Note_on_c, 4, 52, 95
5, 35040, Note_off_c, 4, 64, 80
5, 35040, Note_off_c, 4, 52, 80
5, 35040, Note_on_c, 4, 64, 95
5, 35040, Note_on_c, 4, 52, 95
5, 35280, Note_off_c, 4, 64, 80
5, 35280, Note_off_c, 4, 52, 80
5, 35280, Note_on_c, 4, 64, 95
5, 35280, Note_on_c, 4, 52, 95
5, 35520, Note_off_c, 4, 64, 80
5, 35520, Note_off_c, 4, 52, 80
5, 35520, Note_on_c, 4, 64, 95
5, 35520, Note_on_c, 4, 52, 95
5, 35760, Note_off_c, 4, 64, 80
5, 35760, Note_off_c, 4, 52, 80
5, 35760, Note_on_c, 4, 64, 95
5, 35760, Note_on_c, 4, 52, 95
5, 36000, Note_off_c, 4, 64, 80
5, 36000, Note_off_c, 4, 52, 80
5, 36000, Note_on_c, 4, 64, 95
5, 36000, Note_on_c, 4, 52, 95
5, 36240, Note_off_c, 4, 64, 80
5, 36240, Note_off_c, 4, 52, 80
5, 36240, Note_on_c, 4, 64, 95
5, 36240, Note_on_c, 4, 52, 95
5, 36480, Note_off_c, 4, 64, 80
5, 36480, Note_off_c, 4, 52, 80
5, 36480, Note_on_c, 4, 64, 95
5, 36480, Note_on_c, 4, 52, 95
5, 36720, Note_off_c, 4, 64, 80
5, 36720, Note_off_c, 4, 52, 80
5, 36720, Note_on_c, 4, 64, 95
5, 36720, Note_on_c, 4, 52, 95
5, 36960, Note_off_c, 4, 64, 80
5, 36960, Note_off_c, 4, 52, 80
5, 36960, Note_on_c, 4, 64, 95
5, 36960, Note_on_c, 4, 52, 95
5, 37200, Note_off_c, 4, 64, 80
5, 37200, Note_off_c, 4, 52, 80
5, 37200, Note_on_c, 4, 64, 95
5, 37200, Note_on_c, 4, 52, 95
5, 37440, Note_off_c, 4, 64, 80
5, 37440, Note_off_c, 4, 52, 80
5, 37440, Note_on_c, 4, 64, 95
5, 37440, Note_on_c, 4, 52, 95
5, 37680, Note_off_c, 4, 64, 80
5, 37680, Note_off_c, 4, 52, 80
5, 37680, Note_on_c, 4, 64, 95
5, 37680, Note_on_c, 4, 52, 95
5, 37920, Note_off_c, 4, 64, 80
5, 37920, Note_off_c, 4, 52, 80
5, 37920, Note_on_c, 4, 64, 95
5, 37920, Note_on_c, 4, 52, 95
5, 38160, Note_off_c, 4, 64, 80
5, 38160, Note_off_c, 4, 52, 80
5, 38160, Note_on_c, 4, 64, 95
5, 38160, Note_on_c, 4, 52, 95
5, 38400, Note_off_c, 4, 64, 80
5, 38400, Note_off_c, 4, 52, 80
5, 38400, Note_on_c, 4, 64, 95
5, 38400, Note_on_c, 4, 52, 95
5, 38640, Note_off_c, 4, 64, 80
5, 38640, Note_off_c, 4, 52, 80
5, 38640, Note_on_c, 4, 64, 95
5, 38640, Note_on_c, 4, 52, 95
5, 38880, Note_off_c, 4, 64, 80
5, 38880, Note_off_c, 4, 52, 80
5, 38880, Note_on_c, 4, 64, 95
5, 38880, Note_on_c, 4, 52, 95
5, 39120, Note_off_c, 4, 64, 80
5, 39120, Note_off_c, 4, 52, 80
5, 39120, Note_on_c, 4, 64, 95
5, 39120, Note_on_c, 4, 52, 95
5, 39360, Note_off_c, 4, 64, 80
5, 39360, Note_off_c, 4, 52, 80
5, 39360, Note_on_c, 4, 64, 95
5, 39360, Note_on_c, 4, 76, 95
5, 40080, Note_off_c, 4, 64, 80
5, 40080, Note_off_c, 4, 76, 80
5, 40080, Note_on_c, 4, 64, 95
5, 40080, Note_on_c, 4, 62, 95
5, 43200, Note_off_c, 4, 64, 80
5, 43200, Note_off_c, 4, 62, 80
5, 43200, Note_on_c, 4, 64, 95
5, 43200, Note_on_c, 4, 76, 95
5, 43920, Note_off_c, 4, 64, 80
5, 43920, Note_off_c, 4, 76, 80
5, 43920, Note_on_c, 4, 64, 95
5, 43920, Note_on_c, 4, 62, 95
5, 45120, Note_off_c, 4, 64, 80
5, 45120, Note_off_c, 4, 62, 80
5, 45120, Note_on_c, 4, 64, 95
5, 45120, Note_on_c, 4, 76, 95
5, 45840, Note_off_c, 4, 64, 80
5, 45840, Note_off_c, 4, 76, 80
5, 45840, Note_on_c, 4, 64, 95
5, 45840, Note_on_c, 4, 62, 95
5, 48960, Note_off_c, 4, 64, 80
5, 48960, Note_off_c, 4, 62, 80
5, 48960, Note_on_c, 4, 64, 95
5, 48960, Note_on_c, 4, 76, 95
5, 49680, Note_off_c, 4, 64, 80
5, 49680, Note_off_c, 4, 76, 80
5, 49680, Note_on_c, 4, 64, 95
5, 49680, Note_on_c, 4, 62, 95
5, 50880, Note_off_c, 4, 64, 80
5, 50880, Note_off_c, 4, 62, 80
5, 50880, Note_on_c, 4, 77, 95
5, 51120, Note_off_c, 4, 77, 80
5, 51120, Note_on_c, 4, 76, 95
5, 51360, Note_off_c, 4, 76, 80
5, 51360, Note_on_c, 4, 74, 95
5, 51600, Note_off_c, 4, 74, 80
5, 51600, Note_on_c, 4, 72, 95
5, 52080, Note_off_c, 4, 72, 80
5, 52080, Note_on_c, 4, 71, 95
5, 52320, Note_off_c, 4, 71, 80
5, 52320, Note_on_c, 4, 69, 95
5, 52800, Note_off_c, 4, 69, 80
5, 52800, Note_on_c, 4, 77, 95
5, 53040, Note_off_c, 4, 77, 80
5, 53040, Note_on_c, 4, 76, 95
5, 53280, Note_off_c, 4, 76, 80
5, 53280, Note_on_c, 4, 74, 95
5, 53520, Note_off_c, 4, 74, 80
5, 53520, Note_on_c, 4, 72, 95
5, 54000, Note_off_c, 4, 72, 80
5, 54000, Note_on_c, 4, 71, 95
5, 54240, Note_off_c, 4, 71, 80
5, 54240, Note_on_c, 4, 69, 95
5, 54720, Note_off_c, 4, 69, 80
5, 54720, Note_on_c, 4, 77, 95
5, 54960, Note_off_c, 4, 77, 80
5, 54960, Note_on_c, 4, 76, 95
5, 55200, Note_off_c, 4, 76, 80
5, 55200, Note_on_c, 4, 74, 95
5, 55440, Note_off_c, 4, 74, 80
5, 55440, Note_on_c, 4, 72, 95
5, 55920, Note_off_c, 4, 72, 80
5, 55920, Note_on_c, 4, 71, 95
5, 56160, Note_off_c, 4, 71, 80
5, 56160, Note_on_c, 5, 69, 95
5, 56352, Pitch_bend_c, 5, 7552
5, 56400, Note_off_c, 5, 69, 80
5, 56400, Pitch_bend_c, 5, 8192
5, 56400, Note_on_c, 4, 68, 76
5, 56640, Note_off_c, 4, 68, 80
5, 56640, Note_on_c, 5, 68, 95
5, 56832, Pitch_bend_c, 5, 7552
5, 56880, Note_off_c, 5, 68, 80
5, 56880, Pitch_bend_c, 5, 8192
5, 56880, Note_on_c, 4, 67, 76
5, 57120, Note_off_c, 4, 67, 80
5, 57120, Note_on_c, 5, 67, 95
5, 57312, Pitch_bend_c, 5, 7552
5, 57360, Note_off_c, 5, 67, 80
5, 57360, Pitch_bend_c, 5, 8192
5, 57360, Note_on_c, 4, 66, 76
5, 57600, Note_off_c, 4, 66, 80
5, 57600, Note_on_c, 5, 66, 95
5, 57792, Pitch_bend_c, 5, 7552
5, 57840, Note_off_c, 5, 66, 80
5, 57840, Pitch_bend_c, 5, 8192
5, 57840, Note_on_c, 4, 65, 76
5, 58080, Note_off_c, 4, 65, 80
5, 58080, Note_on_c, 5, 65, 95
5, 58272, Pitch_bend_c, 5, 7552
5, 58320, Note_off_c, 5, 65, 80
5, 58320, Pitch_bend_c, 5, 8192
5, 58320, Note_on_c, 4, 64, 76
5, 58560, Note_off_c, 4, 64, 80
5, 58560, Note_on_c, 4, 64, 95
5, 58800, Note_off_c, 4, 64, 80
5, 58800, Note_on_c, 4, 64, 95
5, 59040, Note_off_c, 4, 64, 80
5, 59040, Note_on_c, 4, 64, 95
5, 59280, Note_off_c, 4, 64, 80
5, 59280, Note_on_c, 4, 64, 95
5, 59520, Note_off_c, 4, 64, 80
5, 59520, Note_on_c, 4, 64, 95
5, 59520, Note_on_c, 4, 52, 95
5, 59760, Note_off_c, 4, 64, 80
5, 59760, Note_off_c, 4, 52, 80
5, 59760, Note_on_c, 4, 64, 95
5, 59760, Note_on_c, 4, 52, 95
5, 60000, Note_off_c, 4, 64, 80
5, 60000, Note_off_c, 4, 52, 80
5, 60000, Note_on_c, 4, 64, 95
5, 60000, Note_on_c, 4, 52, 95
5, 60240, Note_off_c, 4, 64, 80
5, 60240, Note_off_c, 4, 52, 80
5, 60240, Note_on_c, 4, 64, 95
5, 60240, Note_on_c, 4, 52, 95
5, 60480, Note_off_c, 4, 64, 80
5, 60480, Note_off_c, 4, 52, 80
5, 60480, Note_on_c, 4, 64, 95
5, 60480, Note_on_c, 4, 52, 95
5, 60720, Note_off_c, 4, 64, 80
5, 60720, Note_off_c, 4, 52, 80
5, 60720, Note_on_c, 4, 64, 95
5, 60720, Note_on_c, 4, 52, 95
5, 60960, Note_off_c, 4, 64, 80
5, 60960, Note_off_c, 4, 52, 80
5, 60960, Note_on_c, 4, 64, 95
5, 60960, Note_on_c, 4, 52, 95
5, 61200, Note_off_c, 4, 64, 80
5, 61200, Note_off_c, 4, 52, 80
5, 61200, Note_on_c, 4, 64, 95
5, 61200, Note_on_c, 4, 52, 95
5, 61440, Note_off_c, 4, 64, 80
5, 61440, Note_off_c, 4, 52, 80
5, 61440, Note_on_c, 4, 64, 95
5, 61440, Note_on_c, 4, 52, 95
5, 61680, Note_off_c, 4, 64, 80
5, 61680, Note_off_c, 4, 52, 80
5, 61680, Note_on_c, 4, 64, 95
5, 61680, Note_on_c, 4, 52, 95
5, 61920, Note_off_c, 4, 64, 80
5, 61920, Note_off_c, 4, 52, 80
5, 61920, Note_on_c, 4, 64, 95
5, 61920, Note_on_c, 4, 52, 95
5, 62160, Note_off_c, 4, 64, 80
5, 62160, Note_off_c, 4, 52, 80
5, 62160, Note_on_c, 4, 64, 95
5, 62160, Note_on_c, 4, 52, 95
5, 62400, Note_off_c, 4, 64, 80
5, 62400, Note_off_c, 4, 52, 80
5, 62400, Note_on_c, 4, 64, 95
5, 62400, Note_on_c, 4, 52, 95
5, 62640, Note_off_c, 4, 64, 80
5, 62640, Note_off_c, 4, 52, 80
5, 62640, Note_on_c, 4, 64, 95
5, 62640, Note_on_c, 4, 52, 95
5, 62880, Note_off_c, 4, 64, 80
5, 62880, Note_off_c, 4, 52, 80
5, 62880, Note_on_c, 4, 65, 95
5, 62880, Note_on_c, 4, 53, 95
5, 63120, Note_off_c, 4, 65, 80
5, 63120, Note_off_c, 4, 53, 80
5, 63120, Note_on_c, 4, 65, 95
5, 63120, Note_on_c, 4, 53, 95
5, 63360, Note_off_c, 4, 65, 80
5, 63360, Note_off_c, 4, 53, 80
5, 63360, Note_on_c, 4, 64, 95
5, 63360, Note_on_c, 4, 52, 95
5, 63600, Note_off_c, 4, 64, 80
5, 63600, Note_off_c, 4, 52, 80
5, 63600, Note_on_c, 4, 64, 95
5, 63600, Note_on_c, 4, 52, 95
5, 63840, Note_off_c, 4, 64, 80
5, 63840, Note_off_c, 4, 52, 80
5, 63840, Note_on_c, 4, 64, 95
5, 63840, Note_on_c, 4, 52, 95
5, 64080, Note_off_c, 4, 64, 80
5, 64080, Note_off_c, 4, 52, 80
5, 64080, Note_on_c, 4, 64, 95
5, 64080, Note_on_c, 4, 52, 95
5, 64320, Note_off_c, 4, 64, 80
5, 64320, Note_off_c, 4, 52, 80
5, 64320, Note_on_c, 4, 64, 95
5, 64320, Note_on_c, 4, 52, 95
5, 64560, Note_off_c, 4, 64, 80
5, 64560, Note_off_c, 4, 52, 80
5, 64560, Note_on_c, 4, 64, 95
5, 64560, Note_on_c, 4, 52, 95
5, 64800, Note_off_c, 4, 64, 80
5, 64800, Note_off_c, 4, 52, 80
5, 64800, Note_on_c, 4, 64, 95
5, 64800, Note_on_c, 4, 52, 95
5, 65040, Note_off_c, 4, 64, 80
5, 65040, Note_off_c, 4, 52, 80
5, 65040, Note_on_c, 4, 64, 95
5, 65040, Note_on_c, 4, 52, 95
5, 65280, Note_off_c, 4, 64, 80
5, 65280, Note_off_c, 4, 52, 80
5, 65280, Note_on_c, 4, 64, 95
5, 65280, Note_on_c, 4, 52, 95
5, 65520, Note_off_c, 4, 64, 80
5, 65520, Note_off_c, 4, 52, 80
5, 65520, Note_on_c, 4, 64, 95
5, 65520, Note_on_c, 4, 52, 95
5, 65760, Note_off_c, 4, 64, 80
5, 65760, Note_off_c, 4, 52, 80
5, 65760, Note_on_c, 4, 64, 95
5, 65760, Note_on_c, 4, 52, 95
5, 66000, Note_off_c, 4, 64, 80
5, 66000, Note_off_c, 4, 52, 80
5, 66000, Note_on_c, 4, 64, 95
5, 66000, Note_on_c, 4, 52, 95
5, 66240, Note_off_c, 4, 64, 80
5, 66240, Note_off_c, 4, 52, 80
5, 66240, Note_on_c, 4, 64, 95
5, 66240, Note_on_c, 4, 52, 95
5, 66480, Note_off_c, 4, 64, 80
5, 66480, Note_off_c, 4, 52, 80
5, 66480, Note_on_c, 4, 64, 95
5, 66480, Note_on_c, 4, 52, 95
5, 66720, Note_off_c, 4, 64, 80
5, 66720, Note_off_c, 4, 52, 80
5, 66720, Note_on_c, 4, 65, 95
5, 66720, Note_on_c, 4, 53, 95
5, 66960, Note_off_c, 4, 65, 80
5, 66960, Note_off_c, 4, 53, 80
5, 66960, Note_on_c, 4, 65, 95
5, 66960, Note_on_c, 4, 53, 95
5, 67200, Note_off_c, 4, 65, 80
5, 67200, Note_off_c, 4, 53, 80
5, 67200, Note_on_c, 4, 64, 95
5, 67200, Note_on_c, 4, 52, 95
5, 67440, Note_off_c, 4, 64, 80
5, 67440, Note_off_c, 4, 52, 80
5, 67440, Note_on_c, 4, 64, 95
5, 67440, Note_on_c, 4, 52, 95
5, 67680, Note_off_c, 4, 64, 80
5, 67680, Note_off_c, 4, 52, 80
5, 67680, Note_on_c, 4, 64, 95
5, 67680, Note_on_c, 4, 52, 95
5, 67920, Note_off_c, 4, 64, 80
5, 67920, Note_off_c, 4, 52, 80
5, 67920, Note_on_c, 4, 64, 95
5, 67920, Note_on_c, 4, 52, 95
5, 68160, Note_off_c, 4, 64, 80
5, 68160, Note_off_c, 4, 52, 80
5, 68160, Note_on_c, 4, 64, 95
5, 68160, Note_on_c, 4, 52, 95
5, 68400, Note_off_c, 4, 64, 80
5, 68400, Note_off_c, 4, 52, 80
5, 68400, Note_on_c, 4, 64, 95
5, 68400, Note_on_c, 4, 52, 95
5, 68640, Note_off_c, 4, 64, 80
5, 68640, Note_off_c, 4, 52, 80
5, 68640, Note_on_c, 4, 64, 95
5, 68640, Note_on_c, 4, 52, 95
5, 68880, Note_off_c, 4, 64, 80
5, 68880, Note_off_c, 4, 52, 80
5, 68880, Note_on_c, 4, 64, 95
5, 68880, Note_on_c, 4, 52, 95
5, 69120, Note_off_c, 4, 64, 80
5, 69120, Note_off_c, 4, 52, 80
5, 69120, Note_on_c, 4, 64, 95
5, 69120, Note_on_c, 4, 52, 95
5, 69360, Note_off_c, 4, 64, 80
5, 69360, Note_off_c, 4, 52, 80
5, 69360, Note_on_c, 4, 64, 95
5, 69360, Note_on_c, 4, 52, 95
5, 69600, Note_off_c, 4, 64, 80
5, 69600, Note_off_c, 4, 52, 80
5, 69600, Note_on_c, 4, 64, 95
5, 69600, Note_on_c, 4, 52, 95
5, 69840, Note_off_c, 4, 64, 80
5, 69840, Note_off_c, 4, 52, 80
5, 69840, Note_on_c, 4, 64, 95
5, 69840, Note_on_c, 4, 52, 95
5, 70080, Note_off_c, 4, 64, 80
5, 70080, Note_off_c, 4, 52, 80
5, 70080, Note_on_c, 4, 64, 95
5, 70080, Note_on_c, 4, 52, 95
5, 70320, Note_off_c, 4, 64, 80
5, 70320, Note_off_c, 4, 52, 80
5, 70320, Note_on_c, 4, 64, 95
5, 70320, Note_on_c, 4, 52, 95
5, 70560, Note_off_c, 4, 64, 80
5, 70560, Note_off_c, 4, 52, 80
5, 70560, Note_on_c, 4, 64, 95
5, 70560, Note_on_c, 4, 52, 95
5, 70800, Note_off_c, 4, 64, 80
5, 70800, Note_off_c, 4, 52, 80
5, 70800, Note_on_c, 4, 64, 95
5, 70800, Note_on_c, 4, 52, 95
5, 71040, Note_off_c, 4, 64, 80
5, 71040, Note_off_c, 4, 52, 80
5, 71040, Note_on_c, 4, 64, 95
5, 71040, Note_on_c, 4, 52, 95
5, 71280, Note_off_c, 4, 64, 80
5, 71280, Note_off_c, 4, 52, 80
5, 71280, Note_on_c, 4, 64, 95
5, 71280, Note_on_c, 4, 52, 95
5, 71520, Note_off_c, 4, 64, 80
5, 71520, Note_off_c, 4, 52, 80
5, 71520, Note_on_c, 4, 64, 95
5, 71520, Note_on_c, 4, 52, 95
5, 71760, Note_off_c, 4, 64, 80
5, 71760, Note_off_c, 4, 52, 80
5, 71760, Note_on_c, 4, 64, 95
5, 71760, Note_on_c, 4, 52, 95
5, 72000, Note_off_c, 4, 64, 80
5, 72000, Note_off_c, 4, 52, 80
5, 72000, Note_on_c, 4, 64, 95
5, 72000, Note_on_c, 4, 52, 95
5, 72240, Note_off_c, 4, 64, 80
5, 72240, Note_off_c, 4, 52, 80
5, 72240, Note_on_c, 4, 64, 95
5, 72240, Note_on_c, 4, 52, 95
5, 72480, Note_off_c, 4, 64, 80
5, 72480, Note_off_c, 4, 52, 80
5, 72480, Note_on_c, 4, 64, 95
5, 72480, Note_on_c, 4, 52, 95
5, 72720, Note_off_c, 4, 64, 80
5, 72720, Note_off_c, 4, 52, 80
5, 72720, Note_on_c, 4, 64, 95
5, 72720, Note_on_c, 4, 52, 95
5, 72960, Note_off_c, 4, 64, 80
5, 72960, Note_off_c, 4, 52, 80
5, 72960, Note_on_c, 4, 64, 95
5, 72960, Note_on_c, 4, 52, 95
5, 73200, Note_off_c, 4, 64, 80
5, 73200, Note_off_c, 4, 52, 80
5, 73200, Note_on_c, 4, 64, 95
5, 73200, Note_on_c, 4, 52, 95
5, 73440, Note_off_c, 4, 64, 80
5, 73440, Note_off_c, 4, 52, 80
5, 73440, Note_on_c, 4, 64, 95
5, 73440, Note_on_c, 4, 52, 95
5, 73680, Note_off_c, 4, 64, 80
5, 73680, Note_off_c, 4, 52, 80
5, 73680, Note_on_c, 4, 64, 95
5, 73680, Note_on_c, 4, 52, 95
5, 73920, Note_off_c, 4, 64, 80
5, 73920, Note_off_c, 4, 52, 80
5, 73920, Note_on_c, 4, 64, 95
5, 73920, Note_on_c, 4, 52, 95
5, 74160, Note_off_c, 4, 64, 80
5, 74160, Note_off_c, 4, 52, 80
5, 74160, Note_on_c, 4, 64, 95
5, 74160, Note_on_c, 4, 52, 95
5, 74400, Note_off_c, 4, 64, 80
5, 74400, Note_off_c, 4, 52, 80
5, 74400, Note_on_c, 4, 64, 95
5, 74400, Note_on_c, 4, 52, 95
5, 74640, Note_off_c, 4, 64, 80
5, 74640, Note_off_c, 4, 52, 80
5, 74640, Note_on_c, 4, 64, 95
5, 74640, Note_on_c, 4, 52, 95
5, 74880, Note_off_c, 4, 64, 80
5, 74880, Note_off_c, 4, 52, 80
5, 74880, Note_on_c, 4, 64, 95
5, 74880, Note_on_c, 4, 52, 95
5, 75120, Note_off_c, 4, 64, 80
5, 75120, Note_off_c, 4, 52, 80
5, 75120, Note_on_c, 4, 64, 95
5, 75120, Note_on_c, 4, 52, 95
5, 75360, Note_off_c, 4, 64, 80
5, 75360, Note_off_c, 4, 52, 80
5, 75360, Note_on_c, 4, 65, 95
5, 75360, Note_on_c, 4, 53, 95
5, 75600, Note_off_c, 4, 65, 80
5, 75600, Note_off_c, 4, 53, 80
5, 75600, Note_on_c, 4, 65, 95
5, 75600, Note_on_c, 4, 53, 95
5, 75840, Note_off_c, 4, 65, 80
5, 75840, Note_off_c, 4, 53, 80
5, 75840, Note_on_c, 4, 64, 95
5, 75840, Note_on_c, 4, 52, 95
5, 76080, Note_off_c, 4, 64, 80
5, 76080, Note_off_c, 4, 52, 80
5, 76080, Note_on_c, 4, 64, 95
5, 76080, Note_on_c, 4, 52, 95
5, 76320, Note_off_c, 4, 64, 80
5, 76320, Note_off_c, 4, 52, 80
5, 76320, Note_on_c, 4, 64, 95
5, 76320, Note_on_c, 4, 52, 95
5, 76560, Note_off_c, 4, 64, 80
5, 76560, Note_off_c, 4, 52, 80
5, 76560, Note_on_c, 4, 64, 95
5, 76560, Note_on_c, 4, 52, 95
5, 76800, Note_off_c, 4, 64, 80
5, 76800, Note_off_c, 4, 52, 80
5, 76800, Note_on_c, 4, 64, 95
5, 76800, Note_on_c, 4, 52, 95
5, 77040, Note_off_c, 4, 64, 80
5, 77040, Note_off_c, 4, 52, 80
5, 77040, Note_on_c, 4, 64, 95
5, 77040, Note_on_c, 4, 52, 95
5, 77280, Note_off_c, 4, 64, 80
5, 77280, Note_off_c, 4, 52, 80
5, 77280, Note_on_c, 4, 64, 95
5, 77280, Note_on_c, 4, 52, 95
5, 77520, Note_off_c, 4, 64, 80
5, 77520, Note_off_c, 4, 52, 80
5, 77520, Note_on_c, 4, 64, 95
5, 77520, Note_on_c, 4, 52, 95
5, 77760, Note_off_c, 4, 64, 80
5, 77760, Note_off_c, 4, 52, 80
5, 77760, Note_on_c, 4, 64, 95
5, 77760, Note_on_c, 4, 52, 95
5, 78000, Note_off_c, 4, 64, 80
5, 78000, Note_off_c, 4, 52, 80
5, 78000, Note_on_c, 4, 64, 95
5, 78000, Note_on_c, 4, 52, 95
5, 78240, Note_off_c, 4, 64, 80
5, 78240, Note_off_c, 4, 52, 80
5, 78240, Note_on_c, 4, 64, 95
5, 78240, Note_on_c, 4, 52, 95
5, 78480, Note_off_c, 4, 64, 80
5, 78480, Note_off_c, 4, 52, 80
5, 78480, Note_on_c, 4, 64, 95
5, 78480, Note_on_c, 4, 52, 95
5, 78720, Note_off_c, 4, 64, 80
5, 78720, Note_off_c, 4, 52, 80
5, 78720, Note_on_c, 4, 64, 95
5, 78720, Note_on_c, 4, 52, 95
5, 78960, Note_off_c, 4, 64, 80
5, 78960, Note_off_c, 4, 52, 80
5, 78960, Note_on_c, 4, 64, 95
5, 78960, Note_on_c, 4, 52, 95
5, 79200, Note_off_c, 4, 64, 80
5, 79200, Note_off_c, 4, 52, 80
5, 79200, Note_on_c, 4, 65, 95
5, 79200, Note_on_c, 4, 53, 95
5, 79440, Note_off_c, 4, 65, 80
5, 79440, Note_off_c, 4, 53, 80
5, 79440, Note_on_c, 4, 65, 95
5, 79440, Note_on_c, 4, 53, 95
5, 79680, Note_off_c, 4, 65, 80
5, 79680, Note_off_c, 4, 53, 80
5, 79680, Note_on_c, 4, 64, 95
5, 79680, Note_on_c, 4, 52, 95
5, 79920, Note_off_c, 4, 64, 80
5, 79920, Note_off_c, 4, 52, 80
5, 79920, Note_on_c, 4, 64, 95
5, 79920, Note_on_c, 4, 52, 95
5, 80160, Note_off_c, 4, 64, 80
5, 80160, Note_off_c, 4, 52, 80
5, 80160, Note_on_c, 4, 64, 95
5, 80160, Note_on_c, 4, 52, 95
5, 80400, Note_off_c, 4, 64, 80
5, 80400, Note_off_c, 4, 52, 80
5, 80400, Note_on_c, 4, 64, 95
5, 80400, Note_on_c, 4, 52, 95
5, 80640, Note_off_c, 4, 64, 80
5, 80640, Note_off_c, 4, 52, 80
5, 80640, Note_on_c, 4, 64, 95
5, 80640, Note_on_c, 4, 52, 95
5, 80880, Note_off_c, 4, 64, 80
5, 80880, Note_off_c, 4, 52, 80
5, 80880, Note_on_c, 4, 64, 95
5, 80880, Note_on_c, 4, 52, 95
5, 81120, Note_off_c, 4, 64, 80
5, 81120, Note_off_c, 4, 52, 80
5, 81120, Note_on_c, 4, 64, 95
5, 81120, Note_on_c, 4, 52, 95
5, 81360, Note_off_c, 4, 64, 80
5, 81360, Note_off_c, 4, 52, 80
5, 81360, Note_on_c, 4, 64, 95
5, 81360, Note_on_c, 4, 52, 95
5, 81600, Note_off_c, 4, 64, 80
5, 81600, Note_off_c, 4, 52, 80
5, 81600, Note_on_c, 4, 64, 95
5, 81600, Note_on_c, 4, 52, 95
5, 81840, Note_off_c, 4, 64, 80
5, 81840, Note_off_c, 4, 52, 80
5, 81840, Note_on_c, 4, 64, 95
5, 81840, Note_on_c, 4, 52, 95
5, 82080, Note_off_c, 4, 64, 80
5, 82080, Note_off_c, 4, 52, 80
5, 82080, Note_on_c, 4, 64, 95
5, 82080, Note_on_c, 4, 52, 95
5, 82320, Note_off_c, 4, 64, 80
5, 82320, Note_off_c, 4, 52, 80
5, 82320, Note_on_c, 4, 64, 95
5, 82320, Note_on_c, 4, 52, 95
5, 82560, Note_off_c, 4, 64, 80
5, 82560, Note_off_c, 4, 52, 80
5, 82560, Note_on_c, 4, 64, 95
5, 82560, Note_on_c, 4, 52, 95
5, 82800, Note_off_c, 4, 64, 80
5, 82800, Note_off_c, 4, 52, 80
5, 82800, Note_on_c, 4, 64, 95
5, 82800, Note_on_c, 4, 52, 95
5, 83040, Note_off_c, 4, 64, 80
5, 83040, Note_off_c, 4, 52, 80
5, 83040, Note_on_c, 4, 64, 95
5, 83040, Note_on_c, 4, 52, 95
5, 83280, Note_off_c, 4, 64, 80
5, 83280, Note_off_c, 4, 52, 80
5, 83280, Note_on_c, 4, 64, 95
5, 83280, Note_on_c, 4, 52, 95
5, 83520, Note_off_c, 4, 64, 80
5, 83520, Note_off_c, 4, 52, 80
5, 83520, Note_on_c, 4, 64, 95
5, 83520, Note_on_c, 4, 52, 95
5, 83760, Note_off_c, 4, 64, 80
5, 83760, Note_off_c, 4, 52, 80
5, 83760, Note_on_c, 4, 64, 95
5, 83760, Note_on_c, 4, 52, 95
5, 84000, Note_off_c, 4, 64, 80
5, 84000, Note_off_c, 4, 52, 80
5, 84000, Note_on_c, 4, 64, 95
5, 84000, Note_on_c, 4, 52, 95
5, 84240, Note_off_c, 4, 64, 80
5, 84240, Note_off_c, 4, 52, 80
5, 84240, Note_on_c, 4, 64, 95
5, 84240, Note_on_c, 4, 52, 95
5, 84480, Note_off_c, 4, 64, 80
5, 84480, Note_off_c, 4, 52, 80
5, 84480, Note_on_c, 4, 64, 95
5, 84480, Note_on_c, 4, 76, 95
5, 85200, Note_off_c, 4, 64, 80
5, 85200, Note_off_c, 4, 76, 80
5, 85200, Note_on_c, 4, 64, 95
5, 85200, Note_on_c, 4, 62, 95
5, 88320, Note_off_c, 4, 64, 80
5, 88320, Note_off_c, 4, 62, 80
5, 88320, Note_on_c, 4, 64, 95
5, 88320, Note_on_c, 4, 76, 95
5, 89040, Note_off_c, 4, 64, 80
5, 89040, Note_off_c, 4, 76, 80
5, 89040, Note_on_c, 4, 64, 95
5, 89040, Note_on_c, 4, 62, 95
5, 90240, Note_off_c, 4, 64, 80
5, 90240, Note_off_c, 4, 62, 80
5, 90240, Note_on_c, 4, 64, 95
5, 90240, Note_on_c, 4, 76, 95
5, 90960, Note_off_c, 4, 64, 80
5, 90960, Note_off_c, 4, 76, 80
5, 90960, Note_on_c, 4, 64, 95
5, 90960, Note_on_c, 4, 62, 95
5, 94080, Note_off_c, 4, 64, 80
5, 94080, Note_off_c, 4, 62, 80
5, 94080, Note_on_c, 4, 64, 95
5, 94080, Note_on_c, 4, 76, 95
5, 94800, Note_off_c, 4, 64, 80
5, 94800, Note_off_c, 4, 76, 80
5, 94800, Note_on_c, 4, 64, 95
5, 94800, Note_on_c, 4, 62, 95
5, 96000, Note_off_c, 4, 64, 80
5, 96000, Note_off_c, 4, 62, 80
5, 96000, Note_on_c, 4, 77, 95
5, 96240, Note_off_c, 4, 77, 80
5, 96240, Note_on_c, 4, 76, 95
5, 96480, Note_off_c, 4, 76, 80
5, 96480, Note_on_c, 4, 74, 95
5, 96720, Note_off_c, 4, 74, 80
5, 96720, Note_on_c, 4, 72, 95
5, 97200, Note_off_c, 4, 72, 80
5, 97200, Note_on_c, 4, 71, 95
5, 97440, Note_off_c, 4, 71, 80
5, 97440, Note_on_c, 4, 69, 95
5, 97920, Note_off_c, 4, 69, 80
5, 97920, Note_on_c, 4, 77, 95
5, 98160, Note_off_c, 4, 77, 80
5, 98160, Note_on_c, 4, 76, 95
5, 98400, Note_off_c, 4, 76, 80
5, 98400, Note_on_c, 4, 74, 95
5, 98640, Note_off_c, 4, 74, 80
5, 98640, Note_on_c, 4, 72, 95
5, 99120, Note_off_c, 4, 72, 80
5, 99120, Note_on_c, 4, 71, 95
5, 99360, Note_off_c, 4, 71, 80
5, 99360, Note_on_c, 4, 69, 95
5, 99840, Note_off_c, 4, 69, 80
5, 99840, Note_on_c, 4, 77, 95
5, 100080, Note_off_c, 4, 77, 80
5, 100080, Note_on_c, 4, 76, 95
5, 100320, Note_off_c, 4, 76, 80
5, 100320, Note_on_c, 4, 74, 95
5, 100560, Note_off_c, 4, 74, 80
5, 100560, Note_on_c, 4, 72, 95
5, 101040, Note_off_c, 4, 72, 80
5, 101040, Note_on_c, 5, 71, 95
5, 101040, Pitch_bend_c, 5, 8192
5, 102256, Pitch_bend_c, 5, 8320
5, 102432, Pitch_bend_c, 5, 8448
5, 102608, Pitch_bend_c, 5, 8576
5, 102896, Pitch_bend_c, 5, 8704
5, 102928, Pitch_bend_c, 5, 8832
5, 102944, Pitch_bend_c, 5, 8960
5, 102960, Pitch_bend_c, 5, 9088
5, 102976, Pitch_bend_c, 5, 9216
5, 102992, Pitch_bend_c, 5, 9472
5, 103024, Pitch_bend_c, 5, 9600
5, 103040, Pitch_bend_c, 5, 9472
5, 103056, Pitch_bend_c, 5, 9344
5, 103072, Pitch_bend_c, 5, 9088
5, 103088, Pitch_bend_c, 5, 8832
5, 103104, Pitch_bend_c, 5, 8704
5, 103120, Pitch_bend_c, 5, 8576
5, 103136, Pitch_bend_c, 5, 8320
5, 103184, Pitch_bend_c, 5, 8192
5, 103200, Note_off_c, 5, 71, 80
5, 103200, Pitch_bend_c, 5, 8192
5, 103680, Note_on_c, 4, 58, 95
5, 103680, Note_on_c, 4, 46, 95
5, 105480, Note_off_c, 4, 58, 80
5, 105480, Note_off_c, 4, 46, 80
5, 105480, Note_on_c, 5, 60, 95
5, 105480, Pitch_bend_c, 5, 6144
5, 105480, Note_on_c, 5, 48, 95
5, 105480, Pitch_bend_c, 5, 6144
5, 105520, Pitch_bend_c, 5, 6784
5, 105520, Pitch_bend_c, 5, 6784
5, 105560, Pitch_bend_c, 5, 7552
5, 105560, Pitch_bend_c, 5, 7552
5, 105600, Pitch_bend_c, 5, 8192
5, 105600, Pitch_bend_c, 5, 8192
5, 105960, Note_off_c, 5, 60, 80
5, 105960, Note_off_c, 5, 48, 80
5, 105960, Note_on_c, 5, 62, 95
5, 105960, Pitch_bend_c, 5, 6144
5, 105960, Note_on_c, 5, 50, 95
5, 105960, Pitch_bend_c, 5, 6144
5, 106000, Pitch_bend_c, 5, 6784
5, 106000, Pitch_bend_c, 5, 6784
5, 106040, Pitch_bend_c, 5, 7552
5, 106040, Pitch_bend_c, 5, 7552
5, 106080, Pitch_bend_c, 5, 8192
5, 106080, Pitch_bend_c, 5, 8192
5, 106560, Note_off_c, 5, 62, 80
5, 106560, Note_off_c, 5, 50, 80
5, 106560, Note_on_c, 4, 58, 95
5, 106560, Note_on_c, 4, 46, 95
5, 108360, Note_off_c, 4, 58, 80
5, 108360, Note_off_c, 4, 46, 80
5, 108360, Note_on_c, 5, 60, 95
5, 108360, Pitch_bend_c, 5, 6144
5, 108360, Note_on_c, 5, 48, 95
5, 108360, Pitch_bend_c, 5, 6144
5, 108400, Pitch_bend_c, 5, 6784
5, 108400, Pitch_bend_c, 5, 6784
5, 108440, Pitch_bend_c, 5, 7552
5, 108440, Pitch_bend_c, 5, 7552
5, 108480, Pitch_bend_c, 5, 8192
5, 108480, Pitch_bend_c, 5, 8192
5, 108840, Note_off_c, 5, 60, 80
5, 108840, Note_off_c, 5, 48, 80
5, 108840, Note_on_c, 5, 62, 95
5, 108840, Pitch_bend_c, 5, 6144
5, 108840, Note_on_c, 5, 50, 95
5, 108840, Pitch_bend_c, 5, 6144
5, 108880, Pitch_bend_c, 5, 6784
5, 108880, Pitch_bend_c, 5, 6784
5, 108920, Pitch_bend_c, 5, 7552
5, 108920, Pitch_bend_c, 5, 7552
5, 108960, Pitch_bend_c, 5, 8192
5, 108960, Pitch_bend_c, 5, 8192
5, 109440, Note_off_c, 5, 62, 80
5, 109440, Note_off_c, 5, 50, 80
5, 109440, Note_on_c, 4, 58, 95
5, 109440, Note_on_c, 4, 46, 95
5, 111360, Note_off_c, 4, 58, 80
5, 111360, Note_off_c, 4, 46, 80
5, 111360, Note_on_c, 4, 57, 95
5, 111360, Note_on_c, 4, 53, 95
5, 111360, Note_on_c, 4, 48, 95
5, 111360, Note_on_c, 4, 41, 95
5, 111600, Note_off_c, 4, 57, 80
5, 111600, Note_off_c, 4, 53, 80
5, 111600, Note_off_c, 4, 48, 80
5, 111600, Note_off_c, 4, 41, 80
5, 111600, Note_on_c, 4, 57, 95
5, 111600, Note_on_c, 4, 53, 95
5, 111600, Note_on_c, 4, 48, 95
5, 111600, Note_on_c, 4, 41, 95
5, 111840, Note_off_c, 4, 57, 80
5, 111840, Note_off_c, 4, 53, 80
5, 111840, Note_off_c, 4, 48, 80
5, 111840, Note_off_c, 4, 41, 80
5, 111840, Note_on_c, 4, 57, 95
5, 111840, Note_on_c, 4, 53, 95
5, 111840, Note_on_c, 4, 48, 95
5, 111840, Note_on_c, 4, 41, 95
5, 112080, Note_off_c, 4, 57, 80
5, 112080, Note_off_c, 4, 53, 80
5, 112080, Note_off_c, 4, 48, 80
5, 112080, Note_off_c, 4, 41, 80
5, 112080, Note_on_c, 4, 57, 95
5, 112080, Note_on_c, 4, 53, 95
5, 112080, Note_on_c, 4, 48, 95
5, 112080, Note_on_c, 4, 41, 95
5, 112320, Note_off_c, 4, 57, 80
5, 112320, Note_off_c, 4, 53, 80
5, 112320, Note_off_c, 4, 48, 80
5, 112320, Note_off_c, 4, 41, 80
5, 112320, Note_on_c, 4, 62, 95
5, 112320, Note_on_c, 4, 58, 95
5, 112320, Note_on_c, 4, 53, 95
5, 112320, Note_on_c, 4, 46, 95
5, 112560, Note_off_c, 4, 62, 80
5, 112560, Note_off_c, 4, 58, 80
5, 112560, Note_off_c, 4, 53, 80
5, 112560, Note_off_c, 4, 46, 80
5, 112560, Note_on_c, 4, 62, 95
5, 112560, Note_on_c, 4, 58, 95
5, 112560, Note_on_c, 4, 53, 95
5, 112560, Note_on_c, 4, 46, 95
5, 112800, Note_off_c, 4, 62, 80
5, 112800, Note_off_c, 4, 58, 80
5, 112800, Note_off_c, 4, 53, 80
5, 112800, Note_off_c, 4, 46, 80
5, 112800, Note_on_c, 4, 62, 95
5, 112800, Note_on_c, 4, 58, 95
5, 112800, Note_on_c, 4, 53, 95
5, 112800, Note_on_c, 4, 46, 95
5, 113040, Note_off_c, 4, 62, 80
5, 113040, Note_off_c, 4, 58, 80
5, 113040, Note_off_c, 4, 53, 80
5, 113040, Note_off_c, 4, 46, 80
5, 113040, Note_on_c, 4, 62, 95
5, 113040, Note_on_c, 4, 58, 95
5, 113040, Note_on_c, 4, 53, 95
5, 113040, Note_on_c, 4, 46, 95
5, 113280, Note_off_c, 4, 62, 80
5, 113280, Note_off_c, 4, 58, 80
5, 113280, Note_off_c, 4, 53, 80
5, 113280, Note_off_c, 4, 46, 80
5, 113280, Note_on_c, 4, 65, 95
5, 113280, Note_on_c, 4, 60, 95
5, 113280, Note_on_c, 4, 57, 95
5, 113280, Note_on_c, 4, 53, 95
5, 113280, Note_on_c, 4, 48, 95
5, 113280, Note_on_c, 4, 41, 95
5, 113760, Note_off_c, 4, 65, 80
5, 113760, Note_off_c, 4, 60, 80
5, 113760, Note_off_c, 4, 57, 80
5, 113760, Note_off_c, 4, 53, 80
5, 113760, Note_off_c, 4, 48, 80
5, 113760, Note_off_c, 4, 41, 80
5, 113760, End_track
0, 0, End_of_file
