0, 0, Header, 1, 12, 480
1, 0, Start_track
1, 0, Tempo, 428571
1, 0, Time_signature, 4, 2, 24, 8
1, 0, Key_signature, 0, "major"
1, 0, End_track
2, 0, Start_track
2, 0, Title_t, "Day Tripper"
2, 0, MIDI_port, 0
2, 0, End_track
3, 0, Start_track
3, 0, Title_t, "Rock Organ"
3, 0, MIDI_port, 0
3, 0, Channel_prefix, 0
3, 0, Control_c, 0, 7, 88
3, 0, Control_c, 0, 10, 1
3, 0, Program_c, 0, 18
3, 0, Control_c, 0, 121, 0
3, 0, Control_c, 0, 64, 0
3, 17280, Note_on_c, 0, 68, 74
3, 17280, Note_on_c, 0, 76, 86
3, 17280, Note_on_c, 0, 71, 86
3, 17280, Note_on_c, 0, 74, 74
3, 20280, Note_off_c, 0, 74, 64
3, 20290, Note_off_c, 0, 76, 64
3, 20315, Note_off_c, 0, 71, 64
3, 20340, Note_off_c, 0, 68, 64
3, 20400, Note_on_c, 0, 40, 127
3, 20470, Note_off_c, 0, 40, 64
3, 20520, Note_on_c, 0, 40, 127
3, 20610, Note_off_c, 0, 40, 64
3, 20640, Note_on_c, 0, 74, 124
3, 20640, Note_on_c, 0, 71, 127
3, 20640, Note_on_c, 0, 76, 118
3, 20640, Note_on_c, 0, 68, 106
3, 20880, Note_on_c, 0, 40, 127
3, 20900, Note_off_c, 0, 76, 64
3, 20920, Note_off_c, 0, 74, 64
3, 20920, Note_off_c, 0, 68, 64
3, 20930, Note_off_c, 0, 71, 64
3, 20960, Note_off_c, 0, 40, 64
3, 21120, Note_on_c, 0, 71, 112
3, 21120, Note_on_c, 0, 68, 74
3, 21120, Note_on_c, 0, 74, 104
3, 21120, Note_on_c, 0, 76, 84
3, 24200, Note_off_c, 0, 74, 64
3, 24205, Note_off_c, 0, 76, 64
3, 24210, Note_off_c, 0, 71, 64
3, 24240, Note_off_c, 0, 68, 64
3, 24240, Note_on_c, 0, 40, 84
3, 24295, Note_off_c, 0, 40, 64
3, 24360, Note_on_c, 0, 40, 122
3, 24480, Note_off_c, 0, 40, 64
3, 24480, Note_on_c, 0, 71, 127
3, 24480, Note_on_c, 0, 74, 116
3, 24480, Note_on_c, 0, 68, 96
3, 24720, Note_on_c, 0, 40, 127
3, 24760, Note_off_c, 0, 74, 64
3, 24765, Note_off_c, 0, 68, 64
3, 24780, Note_off_c, 0, 71, 64
3, 24920, Note_off_c, 0, 40, 64
3, 24960, Note_on_c, 0, 80, 127
3, 24960, Note_on_c, 0, 76, 118
3, 24960, Note_on_c, 0, 71, 110
3, 26415, Note_off_c, 0, 76, 64
3, 26465, Note_off_c, 0, 71, 64
3, 26485, Note_off_c, 0, 80, 64
3, 26640, Note_on_c, 0, 76, 114
3, 26640, Note_on_c, 0, 71, 90
3, 26640, Note_on_c, 0, 78, 127
3, 27335, Note_off_c, 0, 78, 64
3, 27335, Note_off_c, 0, 71, 64
3, 27340, Note_off_c, 0, 76, 64
3, 27360, Note_on_c, 0, 76, 122
3, 27360, Note_on_c, 0, 80, 122
3, 27360, Note_on_c, 0, 71, 82
3, 27360, Note_on_c, 0, 78, 68
3, 27395, Note_off_c, 0, 78, 64
3, 27420, Note_off_c, 0, 71, 64
3, 27460, Note_off_c, 0, 76, 64
3, 27485, Note_off_c, 0, 80, 64
3, 27600, Note_on_c, 0, 71, 106
3, 27670, Note_off_c, 0, 71, 64
3, 27840, Note_on_c, 0, 78, 122
3, 27840, Note_on_c, 0, 76, 118
3, 27840, Note_on_c, 0, 71, 98
3, 28300, Note_off_c, 0, 78, 64
3, 28320, Note_on_c, 0, 80, 127
3, 28415, Note_off_c, 0, 76, 64
3, 28470, Note_off_c, 0, 80, 64
3, 28500, Note_off_c, 0, 71, 64
3, 28800, Note_on_c, 0, 73, 104
3, 28800, Note_on_c, 0, 69, 116
3, 28800, Note_on_c, 0, 64, 92
3, 30360, Note_off_c, 0, 64, 64
3, 30365, Note_off_c, 0, 69, 64
3, 30380, Note_off_c, 0, 73, 64
3, 30480, Note_on_c, 0, 71, 126
3, 30480, Note_on_c, 0, 69, 116
3, 30480, Note_on_c, 0, 64, 92
3, 30960, Note_on_c, 0, 52, 92
3, 31105, Note_off_c, 0, 52, 64
3, 31115, Note_off_c, 0, 69, 64
3, 31150, Note_off_c, 0, 64, 64
3, 31155, Note_off_c, 0, 71, 64
3, 31200, Note_on_c, 0, 69, 126
3, 31200, Note_on_c, 0, 73, 127
3, 31200, Note_on_c, 0, 64, 88
3, 31265, Note_off_c, 0, 64, 64
3, 31275, Note_off_c, 0, 69, 64
3, 31295, Note_off_c, 0, 73, 64
3, 31440, Note_on_c, 0, 52, 88
3, 31550, Note_off_c, 0, 52, 64
3, 31680, Note_on_c, 0, 71, 126
3, 31680, Note_on_c, 0, 69, 127
3, 31680, Note_on_c, 0, 64, 112
3, 32125, Note_off_c, 0, 69, 64
3, 32130, Note_off_c, 0, 64, 64
3, 32155, Note_off_c, 0, 71, 64
3, 32160, Note_on_c, 0, 69, 120
3, 32160, Note_on_c, 0, 73, 127
3, 32160, Note_on_c, 0, 64, 127
3, 32160, Note_on_c, 0, 71, 72
3, 32205, Note_off_c, 0, 71, 64
3, 32290, Note_off_c, 0, 73, 64
3, 32295, Note_off_c, 0, 69, 64
3, 32315, Note_off_c, 0, 64, 64
3, 32640, Note_on_c, 0, 76, 96
3, 32640, Note_on_c, 0, 68, 74
3, 32640, Note_on_c, 0, 74, 100
3, 32640, Note_on_c, 0, 71, 108
3, 34620, Note_off_c, 0, 68, 64
3, 34640, Note_off_c, 0, 76, 64
3, 34650, Note_off_c, 0, 74, 64
3, 34655, Note_off_c, 0, 71, 64
3, 34800, Note_on_c, 0, 74, 118
3, 34800, Note_on_c, 0, 64, 88
3, 34800, Note_on_c, 0, 71, 118
3, 34875, Note_off_c, 0, 71, 64
3, 34890, Note_off_c, 0, 64, 64
3, 34890, Note_off_c, 0, 74, 64
3, 35520, Note_on_c, 0, 64, 92
3, 35520, Note_on_c, 0, 74, 126
3, 35520, Note_on_c, 0, 71, 122
3, 35620, Note_off_c, 0, 64, 64
3, 35640, Note_off_c, 0, 71, 64
3, 35655, Note_off_c, 0, 74, 64
3, 36000, Note_on_c, 0, 74, 127
3, 36000, Note_on_c, 0, 71, 127
3, 36000, Note_on_c, 0, 64, 122
3, 36145, Note_off_c, 0, 71, 64
3, 36160, Note_off_c, 0, 74, 64
3, 36165, Note_off_c, 0, 64, 64
3, 36480, Note_on_c, 0, 70, 74
3, 36480, Note_on_c, 0, 78, 86
3, 36480, Note_on_c, 0, 73, 86
3, 36480, Note_on_c, 0, 76, 74
3, 39480, Note_off_c, 0, 76, 64
3, 39490, Note_off_c, 0, 78, 64
3, 39515, Note_off_c, 0, 73, 64
3, 39540, Note_off_c, 0, 70, 64
3, 39600, Note_on_c, 0, 42, 127
3, 39670, Note_off_c, 0, 42, 64
3, 39720, Note_on_c, 0, 42, 127
3, 39810, Note_off_c, 0, 42, 64
3, 39840, Note_on_c, 0, 76, 124
3, 39840, Note_on_c, 0, 73, 127
3, 39840, Note_on_c, 0, 78, 118
3, 39840, Note_on_c, 0, 70, 106
3, 40080, Note_on_c, 0, 42, 127
3, 40100, Note_off_c, 0, 78, 64
3, 40120, Note_off_c, 0, 76, 64
3, 40120, Note_off_c, 0, 70, 64
3, 40130, Note_off_c, 0, 73, 64
3, 40160, Note_off_c, 0, 42, 64
3, 40320, Note_on_c, 0, 78, 96
3, 40320, Note_on_c, 0, 70, 74
3, 40320, Note_on_c, 0, 76, 100
3, 40320, Note_on_c, 0, 73, 108
3, 42300, Note_off_c, 0, 70, 64
3, 42320, Note_off_c, 0, 78, 64
3, 42330, Note_off_c, 0, 76, 64
3, 42335, Note_off_c, 0, 73, 64
3, 42480, Note_on_c, 0, 76, 118
3, 42480, Note_on_c, 0, 66, 88
3, 42480, Note_on_c, 0, 73, 118
3, 42555, Note_off_c, 0, 73, 64
3, 42570, Note_off_c, 0, 66, 64
3, 42570, Note_off_c, 0, 76, 64
3, 43200, Note_on_c, 0, 66, 92
3, 43200, Note_on_c, 0, 76, 126
3, 43200, Note_on_c, 0, 73, 122
3, 43300, Note_off_c, 0, 66, 64
3, 43320, Note_off_c, 0, 73, 64
3, 43335, Note_off_c, 0, 76, 64
3, 43680, Note_on_c, 0, 76, 127
3, 43680, Note_on_c, 0, 73, 127
3, 43680, Note_on_c, 0, 66, 122
3, 43825, Note_off_c, 0, 73, 64
3, 43840, Note_off_c, 0, 76, 64
3, 43845, Note_off_c, 0, 66, 64
3, 44400, Note_on_c, 0, 67, 118
3, 44640, Note_on_c, 0, 69, 127
3, 44760, Note_on_c, 0, 73, 58
3, 44880, Note_on_c, 0, 76, 127
3, 45895, Note_off_c, 0, 76, 64
3, 45895, Note_off_c, 0, 73, 64
3, 45895, Note_off_c, 0, 69, 64
3, 45895, Note_off_c, 0, 67, 64
3, 46080, Note_on_c, 0, 80, 114
3, 46080, Note_on_c, 0, 78, 120
3, 46080, Note_on_c, 0, 75, 116
3, 46080, Note_on_c, 0, 72, 94
3, 47855, Note_off_c, 0, 72, 64
3, 47855, Note_off_c, 0, 78, 64
3, 47860, Note_off_c, 0, 75, 64
3, 47875, Note_off_c, 0, 80, 64
3, 48000, Note_on_c, 0, 77, 106
3, 48000, Note_on_c, 0, 85, 110
3, 48000, Note_on_c, 0, 80, 114
3, 48000, Note_on_c, 0, 73, 70
3, 48180, Note_off_c, 0, 80, 64
3, 48190, Note_off_c, 0, 77, 64
3, 48190, Note_off_c, 0, 73, 64
3, 48210, Note_off_c, 0, 85, 64
3, 48720, Note_on_c, 0, 80, 124
3, 48720, Note_on_c, 0, 77, 124
3, 48720, Note_on_c, 0, 73, 120
3, 48720, Note_on_c, 0, 85, 120
3, 49675, Note_off_c, 0, 77, 64
3, 49675, Note_off_c, 0, 80, 64
3, 49680, Note_off_c, 0, 85, 64
3, 49685, Note_off_c, 0, 73, 64
3, 49920, Note_on_c, 0, 75, 106
3, 49920, Note_on_c, 0, 83, 110
3, 49920, Note_on_c, 0, 78, 114
3, 49920, Note_on_c, 0, 71, 70
3, 50100, Note_off_c, 0, 78, 64
3, 50110, Note_off_c, 0, 75, 64
3, 50110, Note_off_c, 0, 71, 64
3, 50130, Note_off_c, 0, 83, 64
3, 50640, Note_on_c, 0, 78, 124
3, 50640, Note_on_c, 0, 75, 124
3, 50640, Note_on_c, 0, 71, 120
3, 50640, Note_on_c, 0, 83, 120
3, 51595, Note_off_c, 0, 75, 64
3, 51595, Note_off_c, 0, 78, 64
3, 51600, Note_off_c, 0, 83, 64
3, 51605, Note_off_c, 0, 71, 64
3, 51840, Note_on_c, 0, 71, 112
3, 51840, Note_on_c, 0, 68, 74
3, 51840, Note_on_c, 0, 74, 104
3, 51840, Note_on_c, 0, 76, 84
3, 54920, Note_off_c, 0, 74, 64
3, 54925, Note_off_c, 0, 76, 64
3, 54930, Note_off_c, 0, 71, 64
3, 54960, Note_off_c, 0, 68, 64
3, 55680, Note_on_c, 0, 80, 104
3, 55680, Note_on_c, 0, 76, 116
3, 55680, Note_on_c, 0, 71, 92
3, 57240, Note_off_c, 0, 71, 64
3, 57245, Note_off_c, 0, 76, 64
3, 57260, Note_off_c, 0, 80, 64
3, 57360, Note_on_c, 0, 78, 126
3, 57360, Note_on_c, 0, 76, 116
3, 57360, Note_on_c, 0, 71, 92
3, 57840, Note_on_c, 0, 59, 92
3, 57985, Note_off_c, 0, 59, 64
3, 57995, Note_off_c, 0, 76, 64
3, 58030, Note_off_c, 0, 71, 64
3, 58035, Note_off_c, 0, 78, 64
3, 58080, Note_on_c, 0, 76, 126
3, 58080, Note_on_c, 0, 80, 127
3, 58080, Note_on_c, 0, 71, 88
3, 58145, Note_off_c, 0, 71, 64
3, 58155, Note_off_c, 0, 76, 64
3, 58175, Note_off_c, 0, 80, 64
3, 58320, Note_on_c, 0, 59, 88
3, 58430, Note_off_c, 0, 59, 64
3, 58560, Note_on_c, 0, 78, 126
3, 58560, Note_on_c, 0, 76, 127
3, 58560, Note_on_c, 0, 71, 112
3, 59005, Note_off_c, 0, 76, 64
3, 59010, Note_off_c, 0, 71, 64
3, 59035, Note_off_c, 0, 78, 64
3, 59040, Note_on_c, 0, 76, 120
3, 59040, Note_on_c, 0, 80, 127
3, 59040, Note_on_c, 0, 71, 127
3, 59040, Note_on_c, 0, 78, 72
3, 59085, Note_off_c, 0, 78, 64
3, 59170, Note_off_c, 0, 80, 64
3, 59175, Note_off_c, 0, 76, 64
3, 59195, Note_off_c, 0, 71, 64
3, 59520, Note_on_c, 0, 80, 127
3, 59520, Note_on_c, 0, 76, 118
3, 59520, Note_on_c, 0, 71, 110
3, 60975, Note_off_c, 0, 76, 64
3, 61025, Note_off_c, 0, 71, 64
3, 61045, Note_off_c, 0, 80, 64
3, 61200, Note_on_c, 0, 76, 114
3, 61200, Note_on_c, 0, 71, 90
3, 61200, Note_on_c, 0, 78, 127
3, 61895, Note_off_c, 0, 78, 64
3, 61895, Note_off_c, 0, 71, 64
3, 61900, Note_off_c, 0, 76, 64
3, 61920, Note_on_c, 0, 76, 122
3, 61920, Note_on_c, 0, 80, 122
3, 61920, Note_on_c, 0, 71, 82
3, 61920, Note_on_c, 0, 78, 68
3, 61955, Note_off_c, 0, 78, 64
3, 61980, Note_off_c, 0, 71, 64
3, 62020, Note_off_c, 0, 76, 64
3, 62045, Note_off_c, 0, 80, 64
3, 62160, Note_on_c, 0, 71, 106
3, 62230, Note_off_c, 0, 71, 64
3, 62400, Note_on_c, 0, 78, 122
3, 62400, Note_on_c, 0, 76, 118
3, 62400, Note_on_c, 0, 71, 98
3, 62860, Note_off_c, 0, 78, 64
3, 62880, Note_on_c, 0, 80, 127
3, 62975, Note_off_c, 0, 76, 64
3, 63030, Note_off_c, 0, 80, 64
3, 63060, Note_off_c, 0, 71, 64
3, 63600, Note_on_c, 0, 68, 96
3, 63840, Note_on_c, 0, 71, 100
3, 64080, Note_on_c, 0, 74, 92
3, 64080, Note_on_c, 0, 76, 100
3, 65040, Note_on_c, 0, 83, 104
3, 66385, Note_off_c, 0, 68, 64
3, 66515, Note_off_c, 0, 83, 64
3, 66515, Note_on_c, 0, 68, 100
3, 66520, Note_off_c, 0, 76, 64
3, 66560, Note_off_c, 0, 74, 64
3, 66720, Note_on_c, 0, 74, 96
3, 66720, Note_on_c, 0, 76, 127
3, 66720, Note_on_c, 0, 83, 127
3, 66950, Note_off_c, 0, 76, 64
3, 66960, Note_off_c, 0, 71, 64
3, 66960, Note_off_c, 0, 74, 64
3, 66960, Note_off_c, 0, 83, 64
3, 66990, Note_off_c, 0, 68, 64
3, 67200, Note_on_c, 0, 76, 96
3, 67200, Note_on_c, 0, 67, 74
3, 67200, Note_on_c, 0, 73, 100
3, 67200, Note_on_c, 0, 69, 108
3, 69180, Note_off_c, 0, 67, 64
3, 69200, Note_off_c, 0, 76, 64
3, 69210, Note_off_c, 0, 73, 64
3, 69215, Note_off_c, 0, 69, 64
3, 69360, Note_on_c, 0, 73, 118
3, 69360, Note_on_c, 0, 64, 88
3, 69360, Note_on_c, 0, 69, 118
3, 69435, Note_off_c, 0, 69, 64
3, 69450, Note_off_c, 0, 64, 64
3, 69450, Note_off_c, 0, 73, 64
3, 70080, Note_on_c, 0, 64, 92
3, 70080, Note_on_c, 0, 73, 126
3, 70080, Note_on_c, 0, 69, 122
3, 70180, Note_off_c, 0, 64, 64
3, 70200, Note_off_c, 0, 69, 64
3, 70215, Note_off_c, 0, 73, 64
3, 70560, Note_on_c, 0, 73, 127
3, 70560, Note_on_c, 0, 69, 127
3, 70560, Note_on_c, 0, 64, 122
3, 70705, Note_off_c, 0, 69, 64
3, 70720, Note_off_c, 0, 73, 64
3, 70725, Note_off_c, 0, 64, 64
3, 71040, Note_on_c, 0, 80, 127
3, 71040, Note_on_c, 0, 76, 118
3, 71040, Note_on_c, 0, 71, 110
3, 72495, Note_off_c, 0, 76, 64
3, 72545, Note_off_c, 0, 71, 64
3, 72565, Note_off_c, 0, 80, 64
3, 72720, Note_on_c, 0, 76, 114
3, 72720, Note_on_c, 0, 71, 90
3, 72720, Note_on_c, 0, 78, 127
3, 73415, Note_off_c, 0, 78, 64
3, 73415, Note_off_c, 0, 71, 64
3, 73420, Note_off_c, 0, 76, 64
3, 73440, Note_on_c, 0, 76, 122
3, 73440, Note_on_c, 0, 80, 122
3, 73440, Note_on_c, 0, 71, 82
3, 73440, Note_on_c, 0, 78, 68
3, 73475, Note_off_c, 0, 78, 64
3, 73500, Note_off_c, 0, 71, 64
3, 73540, Note_off_c, 0, 76, 64
3, 73565, Note_off_c, 0, 80, 64
3, 73680, Note_on_c, 0, 71, 106
3, 73750, Note_off_c, 0, 71, 64
3, 73920, Note_on_c, 0, 78, 122
3, 73920, Note_on_c, 0, 76, 118
3, 73920, Note_on_c, 0, 71, 98
3, 74380, Note_off_c, 0, 78, 64
3, 74400, Note_on_c, 0, 80, 127
3, 74495, Note_off_c, 0, 76, 64
3, 74550, Note_off_c, 0, 80, 64
3, 74580, Note_off_c, 0, 71, 64
3, 74880, Note_on_c, 0, 78, 88
3, 74880, Note_on_c, 0, 76, 92
3, 74880, Note_on_c, 0, 70, 58
3, 74880, Note_on_c, 0, 73, 72
3, 77840, Note_off_c, 0, 76, 64
3, 77855, Note_off_c, 0, 78, 64
3, 77860, Note_off_c, 0, 73, 64
3, 77900, Note_off_c, 0, 70, 64
3, 78000, Note_on_c, 0, 42, 104
3, 78070, Note_off_c, 0, 42, 64
3, 78120, Note_on_c, 0, 42, 122
3, 78240, Note_off_c, 0, 42, 64
3, 78240, Note_on_c, 0, 78, 127
3, 78240, Note_on_c, 0, 76, 126
3, 78240, Note_on_c, 0, 73, 127
3, 78240, Note_on_c, 0, 70, 122
3, 78480, Note_on_c, 0, 42, 127
3, 78560, Note_off_c, 0, 70, 64
3, 78560, Note_off_c, 0, 76, 64
3, 78560, Note_off_c, 0, 78, 64
3, 78565, Note_off_c, 0, 73, 64
3, 78680, Note_off_c, 0, 42, 64
3, 78720, Note_on_c, 0, 73, 112
3, 78720, Note_on_c, 0, 70, 74
3, 78720, Note_on_c, 0, 76, 104
3, 78720, Note_on_c, 0, 78, 84
3, 81800, Note_off_c, 0, 76, 64
3, 81805, Note_off_c, 0, 78, 64
3, 81810, Note_off_c, 0, 73, 64
3, 81840, Note_off_c, 0, 70, 64
3, 81840, Note_on_c, 0, 42, 84
3, 81895, Note_off_c, 0, 42, 64
3, 81960, Note_on_c, 0, 42, 122
3, 82080, Note_off_c, 0, 42, 64
3, 82080, Note_on_c, 0, 73, 127
3, 82080, Note_on_c, 0, 76, 116
3, 82080, Note_on_c, 0, 70, 96
3, 82320, Note_on_c, 0, 42, 127
3, 82360, Note_off_c, 0, 76, 64
3, 82365, Note_off_c, 0, 70, 64
3, 82380, Note_off_c, 0, 73, 64
3, 82520, Note_off_c, 0, 42, 64
3, 82560, Note_on_c, 0, 76, 86
3, 82560, Note_on_c, 0, 69, 90
3, 82560, Note_on_c, 0, 73, 82
3, 82560, Note_on_c, 0, 67, 86
3, 83680, Note_off_c, 0, 76, 64
3, 83760, Note_off_c, 0, 73, 64
3, 83760, Note_on_c, 0, 76, 127
3, 83905, Note_off_c, 0, 69, 64
3, 83905, Note_on_c, 0, 73, 127
3, 83995, Note_off_c, 0, 76, 64
3, 84000, Note_on_c, 0, 69, 114
3, 84090, Note_off_c, 0, 73, 64
3, 84120, Note_on_c, 0, 76, 127
3, 84200, Note_off_c, 0, 69, 64
3, 84240, Note_on_c, 0, 73, 118
3, 84360, Note_off_c, 0, 76, 64
3, 84360, Note_on_c, 0, 69, 127
3, 84395, Note_off_c, 0, 73, 64
3, 84455, Note_off_c, 0, 69, 64
3, 84470, Note_off_c, 0, 67, 64
3, 84480, Note_on_c, 0, 78, 106
3, 84480, Note_on_c, 0, 87, 110
3, 84480, Note_on_c, 0, 80, 114
3, 84480, Note_on_c, 0, 75, 70
3, 84660, Note_off_c, 0, 80, 64
3, 84670, Note_off_c, 0, 78, 64
3, 84670, Note_off_c, 0, 75, 64
3, 84690, Note_off_c, 0, 87, 64
3, 85200, Note_on_c, 0, 80, 124
3, 85200, Note_on_c, 0, 78, 124
3, 85200, Note_on_c, 0, 75, 120
3, 85200, Note_on_c, 0, 87, 120
3, 86155, Note_off_c, 0, 78, 64
3, 86155, Note_off_c, 0, 80, 64
3, 86160, Note_off_c, 0, 87, 64
3, 86165, Note_off_c, 0, 75, 64
3, 86640, Note_on_c, 0, 71, 118
3, 86880, Note_on_c, 0, 73, 127
3, 87000, Note_on_c, 0, 77, 58
3, 87120, Note_on_c, 0, 80, 127
3, 88135, Note_off_c, 0, 80, 64
3, 88135, Note_off_c, 0, 77, 64
3, 88135, Note_off_c, 0, 73, 64
3, 88135, Note_off_c, 0, 71, 64
3, 88560, Note_on_c, 0, 69, 118
3, 88800, Note_on_c, 0, 71, 127
3, 88920, Note_on_c, 0, 75, 58
3, 89040, Note_on_c, 0, 78, 127
3, 90055, Note_off_c, 0, 78, 64
3, 90055, Note_off_c, 0, 75, 64
3, 90055, Note_off_c, 0, 71, 64
3, 90055, Note_off_c, 0, 69, 64
3, 90240, Note_on_c, 0, 78, 118
3, 90240, Note_on_c, 0, 71, 94
3, 90240, Note_on_c, 0, 75, 114
3, 90240, Note_on_c, 0, 69, 74
3, 91840, Note_off_c, 0, 69, 64
3, 91840, Note_off_c, 0, 78, 64
3, 91850, Note_off_c, 0, 71, 64
3, 91850, Note_off_c, 0, 75, 64
3, 91920, Note_on_c, 0, 69, 127
3, 91920, Note_on_c, 0, 78, 127
3, 91920, Note_on_c, 0, 71, 127
3, 91920, Note_on_c, 0, 75, 127
3, 91985, Note_off_c, 0, 71, 64
3, 92005, Note_off_c, 0, 69, 64
3, 92010, Note_off_c, 0, 75, 64
3, 92020, Note_off_c, 0, 78, 64
3, 92400, Note_on_c, 0, 47, 124
3, 92475, Note_off_c, 0, 47, 64
3, 92520, Note_on_c, 0, 47, 114
3, 92640, Note_off_c, 0, 47, 64
3, 92640, Note_on_c, 0, 69, 106
3, 92640, Note_on_c, 0, 71, 127
3, 92640, Note_on_c, 0, 75, 127
3, 92640, Note_on_c, 0, 78, 118
3, 92880, Note_off_c, 0, 78, 64
3, 92895, Note_off_c, 0, 75, 64
3, 92910, Note_off_c, 0, 71, 64
3, 92910, Note_off_c, 0, 69, 64
3, 92910, Note_on_c, 0, 54, 38
3, 93015, Note_off_c, 0, 54, 64
3, 93120, Note_on_c, 0, 69, 86
3, 93120, Note_on_c, 0, 71, 124
3, 93120, Note_on_c, 0, 75, 114
3, 93210, Note_off_c, 0, 71, 64
3, 93220, Note_off_c, 0, 69, 64
3, 93220, Note_off_c, 0, 75, 64
3, 93240, Note_on_c, 0, 54, 66
3, 93300, Note_off_c, 0, 54, 64
3, 93360, Note_on_c, 0, 71, 127
3, 93360, Note_on_c, 0, 78, 118
3, 93360, Note_on_c, 0, 69, 114
3, 93360, Note_on_c, 0, 75, 124
3, 93710, Note_off_c, 0, 78, 64
3, 93735, Note_off_c, 0, 69, 64
3, 93745, Note_off_c, 0, 71, 64
3, 93745, Note_off_c, 0, 75, 64
3, 94080, Note_on_c, 0, 78, 118
3, 94080, Note_on_c, 0, 71, 94
3, 94080, Note_on_c, 0, 75, 114
3, 94080, Note_on_c, 0, 69, 74
3, 95680, Note_off_c, 0, 69, 64
3, 95680, Note_off_c, 0, 78, 64
3, 95690, Note_off_c, 0, 71, 64
3, 95690, Note_off_c, 0, 75, 64
3, 95760, Note_on_c, 0, 69, 127
3, 95760, Note_on_c, 0, 78, 127
3, 95760, Note_on_c, 0, 71, 127
3, 95760, Note_on_c, 0, 75, 127
3, 95825, Note_off_c, 0, 71, 64
3, 95845, Note_off_c, 0, 69, 64
3, 95850, Note_off_c, 0, 75, 64
3, 95860, Note_off_c, 0, 78, 64
3, 96240, Note_on_c, 0, 47, 124
3, 96315, Note_off_c, 0, 47, 64
3, 96360, Note_on_c, 0, 47, 114
3, 96480, Note_off_c, 0, 47, 64
3, 96480, Note_on_c, 0, 69, 106
3, 96480, Note_on_c, 0, 71, 127
3, 96480, Note_on_c, 0, 75, 127
3, 96480, Note_on_c, 0, 78, 118
3, 96720, Note_off_c, 0, 78, 64
3, 96735, Note_off_c, 0, 75, 64
3, 96750, Note_off_c, 0, 71, 64
3, 96750, Note_off_c, 0, 69, 64
3, 96750, Note_on_c, 0, 54, 38
3, 96855, Note_off_c, 0, 54, 64
3, 96960, Note_on_c, 0, 69, 86
3, 96960, Note_on_c, 0, 71, 124
3, 96960, Note_on_c, 0, 75, 114
3, 97050, Note_off_c, 0, 71, 64
3, 97060, Note_off_c, 0, 69, 64
3, 97060, Note_off_c, 0, 75, 64
3, 97080, Note_on_c, 0, 54, 66
3, 97140, Note_off_c, 0, 54, 64
3, 97200, Note_on_c, 0, 71, 127
3, 97200, Note_on_c, 0, 78, 118
3, 97200, Note_on_c, 0, 69, 114
3, 97200, Note_on_c, 0, 75, 124
3, 97550, Note_off_c, 0, 78, 64
3, 97575, Note_off_c, 0, 69, 64
3, 97585, Note_off_c, 0, 71, 64
3, 97585, Note_off_c, 0, 75, 64
3, 97920, Note_on_c, 0, 78, 118
3, 97920, Note_on_c, 0, 71, 94
3, 97920, Note_on_c, 0, 75, 114
3, 97920, Note_on_c, 0, 69, 74
3, 99520, Note_off_c, 0, 69, 64
3, 99520, Note_off_c, 0, 78, 64
3, 99530, Note_off_c, 0, 71, 64
3, 99530, Note_off_c, 0, 75, 64
3, 99600, Note_on_c, 0, 69, 127
3, 99600, Note_on_c, 0, 78, 127
3, 99600, Note_on_c, 0, 71, 127
3, 99600, Note_on_c, 0, 75, 127
3, 99665, Note_off_c, 0, 71, 64
3, 99685, Note_off_c, 0, 69, 64
3, 99690, Note_off_c, 0, 75, 64
3, 99700, Note_off_c, 0, 78, 64
3, 100080, Note_on_c, 0, 47, 124
3, 100155, Note_off_c, 0, 47, 64
3, 100200, Note_on_c, 0, 47, 114
3, 100320, Note_off_c, 0, 47, 64
3, 100320, Note_on_c, 0, 69, 106
3, 100320, Note_on_c, 0, 71, 127
3, 100320, Note_on_c, 0, 75, 127
3, 100320, Note_on_c, 0, 78, 118
3, 100560, Note_off_c, 0, 78, 64
3, 100575, Note_off_c, 0, 75, 64
3, 100590, Note_off_c, 0, 71, 64
3, 100590, Note_off_c, 0, 69, 64
3, 100590, Note_on_c, 0, 54, 38
3, 100695, Note_off_c, 0, 54, 64
3, 100800, Note_on_c, 0, 69, 86
3, 100800, Note_on_c, 0, 71, 124
3, 100800, Note_on_c, 0, 75, 114
3, 100890, Note_off_c, 0, 71, 64
3, 100900, Note_off_c, 0, 69, 64
3, 100900, Note_off_c, 0, 75, 64
3, 100920, Note_on_c, 0, 54, 66
3, 100980, Note_off_c, 0, 54, 64
3, 101040, Note_on_c, 0, 71, 127
3, 101040, Note_on_c, 0, 78, 118
3, 101040, Note_on_c, 0, 69, 114
3, 101040, Note_on_c, 0, 75, 124
3, 101390, Note_off_c, 0, 78, 64
3, 101415, Note_off_c, 0, 69, 64
3, 101425, Note_off_c, 0, 71, 64
3, 101425, Note_off_c, 0, 75, 64
3, 101760, Note_on_c, 0, 83, 94
3, 101760, Note_on_c, 0, 78, 118
3, 101760, Note_on_c, 0, 75, 110
3, 104505, Note_off_c, 0, 78, 64
3, 104520, Note_off_c, 0, 75, 64
3, 104520, Note_on_c, 0, 47, 72
3, 104555, Note_off_c, 0, 83, 64
3, 104630, Note_off_c, 0, 47, 64
3, 104640, Note_on_c, 0, 75, 114
3, 104640, Note_on_c, 0, 78, 122
3, 104640, Note_on_c, 0, 71, 72
3, 104720, Note_off_c, 0, 75, 64
3, 104760, Note_on_c, 0, 75, 127
3, 104880, Note_off_c, 0, 78, 64
3, 104880, Note_off_c, 0, 71, 64
3, 104880, Note_off_c, 0, 75, 64
3, 105000, Note_on_c, 0, 47, 90
3, 105120, Note_on_c, 0, 75, 127
3, 105120, Note_on_c, 0, 78, 122
3, 105120, Note_on_c, 0, 71, 118
3, 105130, Note_off_c, 0, 47, 64
3, 105195, Note_off_c, 0, 71, 64
3, 105205, Note_off_c, 0, 75, 64
3, 105210, Note_off_c, 0, 78, 64
3, 105240, Note_on_c, 0, 75, 127
3, 105240, Note_on_c, 0, 78, 127
3, 105240, Note_on_c, 0, 71, 98
3, 105310, Note_off_c, 0, 71, 64
3, 105330, Note_off_c, 0, 78, 64
3, 105330, Note_off_c, 0, 75, 64
3, 105600, Note_on_c, 0, 78, 110
3, 105600, Note_on_c, 0, 75, 120
3, 105600, Note_on_c, 0, 71, 106
3, 105600, Note_on_c, 0, 69, 86
3, 106680, Note_off_c, 0, 69, 64
3, 106680, Note_off_c, 0, 78, 64
3, 106710, Note_off_c, 0, 75, 64
3, 106710, Note_off_c, 0, 71, 64
3, 106800, Note_on_c, 0, 71, 127
3, 106800, Note_on_c, 0, 75, 120
3, 106800, Note_on_c, 0, 78, 120
3, 106800, Note_on_c, 0, 69, 94
3, 106880, Note_off_c, 0, 69, 64
3, 106880, Note_off_c, 0, 71, 64
3, 106900, Note_off_c, 0, 75, 64
3, 106920, Note_off_c, 0, 78, 64
3, 107040, Note_on_c, 0, 47, 110
3, 107130, Note_off_c, 0, 47, 64
3, 107160, Note_on_c, 0, 78, 120
3, 107160, Note_on_c, 0, 69, 94
3, 107160, Note_on_c, 0, 71, 120
3, 107160, Note_on_c, 0, 75, 110
3, 107225, Note_off_c, 0, 71, 64
3, 107225, Note_off_c, 0, 69, 64
3, 107235, Note_off_c, 0, 75, 64
3, 107260, Note_off_c, 0, 78, 64
3, 107520, Note_on_c, 0, 75, 127
3, 107520, Note_on_c, 0, 71, 118
3, 107520, Note_on_c, 0, 66, 110
3, 108975, Note_off_c, 0, 71, 64
3, 109025, Note_off_c, 0, 66, 64
3, 109045, Note_off_c, 0, 75, 64
3, 109200, Note_on_c, 0, 71, 114
3, 109200, Note_on_c, 0, 66, 90
3, 109200, Note_on_c, 0, 73, 127
3, 109895, Note_off_c, 0, 73, 64
3, 109895, Note_off_c, 0, 66, 64
3, 109900, Note_off_c, 0, 71, 64
3, 109920, Note_on_c, 0, 71, 122
3, 109920, Note_on_c, 0, 75, 122
3, 109920, Note_on_c, 0, 66, 82
3, 109920, Note_on_c, 0, 73, 68
3, 109955, Note_off_c, 0, 73, 64
3, 109980, Note_off_c, 0, 66, 64
3, 110020, Note_off_c, 0, 71, 64
3, 110045, Note_off_c, 0, 75, 64
3, 110160, Note_on_c, 0, 66, 106
3, 110230, Note_off_c, 0, 66, 64
3, 110400, Note_on_c, 0, 73, 122
3, 110400, Note_on_c, 0, 71, 118
3, 110400, Note_on_c, 0, 66, 98
3, 110860, Note_off_c, 0, 73, 64
3, 110880, Note_on_c, 0, 75, 127
3, 110975, Note_off_c, 0, 71, 64
3, 111030, Note_off_c, 0, 75, 64
3, 111060, Note_off_c, 0, 66, 64
3, 111360, Note_on_c, 0, 69, 84
3, 111360, Note_on_c, 0, 71, 92
3, 111360, Note_on_c, 0, 78, 78
3, 111360, Note_on_c, 0, 75, 94
3, 112490, Note_off_c, 0, 75, 64
3, 112500, Note_off_c, 0, 78, 64
3, 112530, Note_off_c, 0, 71, 64
3, 112575, Note_off_c, 0, 69, 64
3, 112575, Note_on_c, 0, 47, 118
3, 112800, Note_on_c, 0, 69, 102
3, 112800, Note_on_c, 0, 78, 127
3, 112800, Note_on_c, 0, 71, 127
3, 112800, Note_on_c, 0, 75, 127
3, 112830, Note_off_c, 0, 47, 64
3, 112980, Note_off_c, 0, 75, 64
3, 113000, Note_off_c, 0, 78, 64
3, 113000, Note_off_c, 0, 71, 64
3, 113015, Note_off_c, 0, 69, 64
3, 117120, Note_on_c, 0, 68, 74
3, 117120, Note_on_c, 0, 76, 86
3, 117120, Note_on_c, 0, 71, 86
3, 117120, Note_on_c, 0, 74, 74
3, 120120, Note_off_c, 0, 74, 64
3, 120130, Note_off_c, 0, 76, 64
3, 120155, Note_off_c, 0, 71, 64
3, 120180, Note_off_c, 0, 68, 64
3, 120240, Note_on_c, 0, 40, 127
3, 120310, Note_off_c, 0, 40, 64
3, 120360, Note_on_c, 0, 40, 127
3, 120450, Note_off_c, 0, 40, 64
3, 120480, Note_on_c, 0, 74, 124
3, 120480, Note_on_c, 0, 71, 127
3, 120480, Note_on_c, 0, 76, 118
3, 120480, Note_on_c, 0, 68, 106
3, 120720, Note_on_c, 0, 40, 127
3, 120740, Note_off_c, 0, 76, 64
3, 120760, Note_off_c, 0, 74, 64
3, 120760, Note_off_c, 0, 68, 64
3, 120770, Note_off_c, 0, 71, 64
3, 120800, Note_off_c, 0, 40, 64
3, 120960, Note_on_c, 0, 76, 88
3, 120960, Note_on_c, 0, 74, 92
3, 120960, Note_on_c, 0, 68, 58
3, 120960, Note_on_c, 0, 71, 72
3, 123920, Note_off_c, 0, 74, 64
3, 123935, Note_off_c, 0, 76, 64
3, 123940, Note_off_c, 0, 71, 64
3, 123980, Note_off_c, 0, 68, 64
3, 124080, Note_on_c, 0, 40, 104
3, 124150, Note_off_c, 0, 40, 64
3, 124200, Note_on_c, 0, 40, 122
3, 124320, Note_off_c, 0, 40, 64
3, 124320, Note_on_c, 0, 76, 127
3, 124320, Note_on_c, 0, 74, 126
3, 124320, Note_on_c, 0, 71, 127
3, 124320, Note_on_c, 0, 68, 122
3, 124560, Note_on_c, 0, 40, 127
3, 124640, Note_off_c, 0, 68, 64
3, 124640, Note_off_c, 0, 74, 64
3, 124640, Note_off_c, 0, 76, 64
3, 124645, Note_off_c, 0, 71, 64
3, 124760, Note_off_c, 0, 40, 64
3, 124800, Note_on_c, 0, 76, 88
3, 124800, Note_on_c, 0, 74, 92
3, 124800, Note_on_c, 0, 68, 58
3, 124800, Note_on_c, 0, 71, 72
3, 127760, Note_off_c, 0, 74, 64
3, 127775, Note_off_c, 0, 76, 64
3, 127780, Note_off_c, 0, 71, 64
3, 127820, Note_off_c, 0, 68, 64
3, 127920, Note_on_c, 0, 40, 104
3, 127990, Note_off_c, 0, 40, 64
3, 128040, Note_on_c, 0, 40, 122
3, 128160, Note_off_c, 0, 40, 64
3, 128160, Note_on_c, 0, 76, 127
3, 128160, Note_on_c, 0, 74, 126
3, 128160, Note_on_c, 0, 71, 127
3, 128160, Note_on_c, 0, 68, 122
3, 128400, Note_on_c, 0, 40, 127
3, 128480, Note_off_c, 0, 68, 64
3, 128480, Note_off_c, 0, 74, 64
3, 128480, Note_off_c, 0, 76, 64
3, 128485, Note_off_c, 0, 71, 64
3, 128600, Note_off_c, 0, 40, 64
3, 128640, Note_on_c, 0, 73, 104
3, 128640, Note_on_c, 0, 69, 116
3, 128640, Note_on_c, 0, 64, 92
3, 130200, Note_off_c, 0, 64, 64
3, 130205, Note_off_c, 0, 69, 64
3, 130220, Note_off_c, 0, 73, 64
3, 130320, Note_on_c, 0, 71, 126
3, 130320, Note_on_c, 0, 69, 116
3, 130320, Note_on_c, 0, 64, 92
3, 130800, Note_on_c, 0, 52, 92
3, 130945, Note_off_c, 0, 52, 64
3, 130955, Note_off_c, 0, 69, 64
3, 130990, Note_off_c, 0, 64, 64
3, 130995, Note_off_c, 0, 71, 64
3, 131040, Note_on_c, 0, 69, 126
3, 131040, Note_on_c, 0, 73, 127
3, 131040, Note_on_c, 0, 64, 88
3, 131105, Note_off_c, 0, 64, 64
3, 131115, Note_off_c, 0, 69, 64
3, 131135, Note_off_c, 0, 73, 64
3, 131280, Note_on_c, 0, 52, 88
3, 131390, Note_off_c, 0, 52, 64
3, 131520, Note_on_c, 0, 71, 126
3, 131520, Note_on_c, 0, 69, 127
3, 131520, Note_on_c, 0, 64, 112
3, 131965, Note_off_c, 0, 69, 64
3, 131970, Note_off_c, 0, 64, 64
3, 131995, Note_off_c, 0, 71, 64
3, 132000, Note_on_c, 0, 69, 120
3, 132000, Note_on_c, 0, 73, 127
3, 132000, Note_on_c, 0, 64, 127
3, 132000, Note_on_c, 0, 71, 72
3, 132045, Note_off_c, 0, 71, 64
3, 132130, Note_off_c, 0, 73, 64
3, 132135, Note_off_c, 0, 69, 64
3, 132155, Note_off_c, 0, 64, 64
3, 132480, Note_on_c, 0, 68, 74
3, 132480, Note_on_c, 0, 76, 86
3, 132480, Note_on_c, 0, 71, 86
3, 132480, Note_on_c, 0, 74, 74
3, 135480, Note_off_c, 0, 74, 64
3, 135490, Note_off_c, 0, 76, 64
3, 135515, Note_off_c, 0, 71, 64
3, 135540, Note_off_c, 0, 68, 64
3, 135600, Note_on_c, 0, 40, 127
3, 135670, Note_off_c, 0, 40, 64
3, 135720, Note_on_c, 0, 40, 127
3, 135810, Note_off_c, 0, 40, 64
3, 135840, Note_on_c, 0, 74, 124
3, 135840, Note_on_c, 0, 71, 127
3, 135840, Note_on_c, 0, 76, 118
3, 135840, Note_on_c, 0, 68, 106
3, 136080, Note_on_c, 0, 40, 127
3, 136100, Note_off_c, 0, 76, 64
3, 136120, Note_off_c, 0, 74, 64
3, 136120, Note_off_c, 0, 68, 64
3, 136130, Note_off_c, 0, 71, 64
3, 136160, Note_off_c, 0, 40, 64
3, 136320, Note_on_c, 0, 78, 96
3, 136320, Note_on_c, 0, 70, 74
3, 136320, Note_on_c, 0, 76, 100
3, 136320, Note_on_c, 0, 73, 108
3, 138300, Note_off_c, 0, 70, 64
3, 138320, Note_off_c, 0, 78, 64
3, 138330, Note_off_c, 0, 76, 64
3, 138335, Note_off_c, 0, 73, 64
3, 138480, Note_on_c, 0, 76, 118
3, 138480, Note_on_c, 0, 66, 88
3, 138480, Note_on_c, 0, 73, 118
3, 138555, Note_off_c, 0, 73, 64
3, 138570, Note_off_c, 0, 66, 64
3, 138570, Note_off_c, 0, 76, 64
3, 139200, Note_on_c, 0, 66, 92
3, 139200, Note_on_c, 0, 76, 126
3, 139200, Note_on_c, 0, 73, 122
3, 139300, Note_off_c, 0, 66, 64
3, 139320, Note_off_c, 0, 73, 64
3, 139335, Note_off_c, 0, 76, 64
3, 139680, Note_on_c, 0, 76, 127
3, 139680, Note_on_c, 0, 73, 127
3, 139680, Note_on_c, 0, 66, 122
3, 139825, Note_off_c, 0, 73, 64
3, 139840, Note_off_c, 0, 76, 64
3, 139845, Note_off_c, 0, 66, 64
3, 140160, Note_on_c, 0, 70, 104
3, 140160, Note_on_c, 0, 66, 116
3, 140160, Note_on_c, 0, 61, 92
3, 141720, Note_off_c, 0, 61, 64
3, 141725, Note_off_c, 0, 66, 64
3, 141740, Note_off_c, 0, 70, 64
3, 141840, Note_on_c, 0, 68, 126
3, 141840, Note_on_c, 0, 66, 116
3, 141840, Note_on_c, 0, 61, 92
3, 142320, Note_on_c, 0, 49, 92
3, 142465, Note_off_c, 0, 49, 64
3, 142475, Note_off_c, 0, 66, 64
3, 142510, Note_off_c, 0, 61, 64
3, 142515, Note_off_c, 0, 68, 64
3, 142560, Note_on_c, 0, 66, 126
3, 142560, Note_on_c, 0, 70, 127
3, 142560, Note_on_c, 0, 61, 88
3, 142625, Note_off_c, 0, 61, 64
3, 142635, Note_off_c, 0, 66, 64
3, 142655, Note_off_c, 0, 70, 64
3, 142800, Note_on_c, 0, 49, 88
3, 142910, Note_off_c, 0, 49, 64
3, 143040, Note_on_c, 0, 68, 126
3, 143040, Note_on_c, 0, 66, 127
3, 143040, Note_on_c, 0, 61, 112
3, 143485, Note_off_c, 0, 66, 64
3, 143490, Note_off_c, 0, 61, 64
3, 143515, Note_off_c, 0, 68, 64
3, 143520, Note_on_c, 0, 66, 120
3, 143520, Note_on_c, 0, 70, 127
3, 143520, Note_on_c, 0, 61, 127
3, 143520, Note_on_c, 0, 68, 72
3, 143565, Note_off_c, 0, 68, 64
3, 143650, Note_off_c, 0, 70, 64
3, 143655, Note_off_c, 0, 66, 64
3, 143675, Note_off_c, 0, 61, 64
3, 144240, Note_on_c, 0, 67, 118
3, 144480, Note_on_c, 0, 69, 127
3, 144600, Note_on_c, 0, 73, 58
3, 144720, Note_on_c, 0, 76, 127
3, 145735, Note_off_c, 0, 76, 64
3, 145735, Note_off_c, 0, 73, 64
3, 145735, Note_off_c, 0, 69, 64
3, 145735, Note_off_c, 0, 67, 64
3, 145920, Note_on_c, 0, 72, 84
3, 145920, Note_on_c, 0, 75, 92
3, 145920, Note_on_c, 0, 80, 78
3, 145920, Note_on_c, 0, 78, 94
3, 147050, Note_off_c, 0, 78, 64
3, 147060, Note_off_c, 0, 80, 64
3, 147090, Note_off_c, 0, 75, 64
3, 147135, Note_off_c, 0, 72, 64
3, 147135, Note_on_c, 0, 44, 118
3, 147360, Note_on_c, 0, 72, 102
3, 147360, Note_on_c, 0, 80, 127
3, 147360, Note_on_c, 0, 75, 127
3, 147360, Note_on_c, 0, 78, 127
3, 147390, Note_off_c, 0, 44, 64
3, 147540, Note_off_c, 0, 78, 64
3, 147560, Note_off_c, 0, 80, 64
3, 147560, Note_off_c, 0, 75, 64
3, 147575, Note_off_c, 0, 72, 64
3, 147840, Note_on_c, 0, 80, 86
3, 147840, Note_on_c, 0, 73, 90
3, 147840, Note_on_c, 0, 77, 82
3, 147840, Note_on_c, 0, 71, 86
3, 148960, Note_off_c, 0, 80, 64
3, 149040, Note_off_c, 0, 77, 64
3, 149040, Note_on_c, 0, 80, 127
3, 149185, Note_off_c, 0, 73, 64
3, 149185, Note_on_c, 0, 77, 127
3, 149275, Note_off_c, 0, 80, 64
3, 149280, Note_on_c, 0, 73, 114
3, 149370, Note_off_c, 0, 77, 64
3, 149400, Note_on_c, 0, 80, 127
3, 149480, Note_off_c, 0, 73, 64
3, 149520, Note_on_c, 0, 77, 118
3, 149640, Note_off_c, 0, 80, 64
3, 149640, Note_on_c, 0, 73, 127
3, 149675, Note_off_c, 0, 77, 64
3, 149735, Note_off_c, 0, 73, 64
3, 149750, Note_off_c, 0, 71, 64
3, 149760, Note_on_c, 0, 78, 86
3, 149760, Note_on_c, 0, 71, 90
3, 149760, Note_on_c, 0, 75, 82
3, 149760, Note_on_c, 0, 69, 86
3, 150880, Note_off_c, 0, 78, 64
3, 150960, Note_off_c, 0, 75, 64
3, 150960, Note_on_c, 0, 78, 127
3, 151105, Note_off_c, 0, 71, 64
3, 151105, Note_on_c, 0, 75, 127
3, 151195, Note_off_c, 0, 78, 64
3, 151200, Note_on_c, 0, 71, 114
3, 151290, Note_off_c, 0, 75, 64
3, 151320, Note_on_c, 0, 78, 127
3, 151400, Note_off_c, 0, 71, 64
3, 151440, Note_on_c, 0, 75, 118
3, 151560, Note_off_c, 0, 78, 64
3, 151560, Note_on_c, 0, 71, 127
3, 151595, Note_off_c, 0, 75, 64
3, 151655, Note_off_c, 0, 71, 64
3, 151670, Note_off_c, 0, 69, 64
3, 151680, Note_on_c, 0, 76, 96
3, 151680, Note_on_c, 0, 68, 80
3, 151680, Note_on_c, 0, 74, 114
3, 151680, Note_on_c, 0, 71, 86
3, 153980, Note_off_c, 0, 76, 64
3, 154000, Note_off_c, 0, 74, 64
3, 154005, Note_off_c, 0, 68, 64
3, 154005, Note_off_c, 0, 71, 64
3, 167040, Note_on_c, 0, 83, 94
3, 167040, Note_on_c, 0, 76, 118
3, 167040, Note_on_c, 0, 74, 110
3, 169785, Note_off_c, 0, 76, 64
3, 169800, Note_off_c, 0, 74, 64
3, 169800, Note_on_c, 0, 40, 72
3, 169835, Note_off_c, 0, 83, 64
3, 169910, Note_off_c, 0, 40, 64
3, 169920, Note_on_c, 0, 74, 114
3, 169920, Note_on_c, 0, 76, 122
3, 169920, Note_on_c, 0, 71, 72
3, 170000, Note_off_c, 0, 74, 64
3, 170040, Note_on_c, 0, 74, 127
3, 170160, Note_off_c, 0, 76, 64
3, 170160, Note_off_c, 0, 71, 64
3, 170160, Note_off_c, 0, 74, 64
3, 170280, Note_on_c, 0, 40, 90
3, 170400, Note_on_c, 0, 74, 127
3, 170400, Note_on_c, 0, 76, 122
3, 170400, Note_on_c, 0, 71, 118
3, 170410, Note_off_c, 0, 40, 64
3, 170475, Note_off_c, 0, 71, 64
3, 170485, Note_off_c, 0, 74, 64
3, 170490, Note_off_c, 0, 76, 64
3, 170520, Note_on_c, 0, 74, 127
3, 170520, Note_on_c, 0, 76, 127
3, 170520, Note_on_c, 0, 71, 98
3, 170590, Note_off_c, 0, 71, 64
3, 170610, Note_off_c, 0, 76, 64
3, 170610, Note_off_c, 0, 74, 64
3, 170880, Note_on_c, 0, 68, 80
3, 170880, Note_on_c, 0, 76, 94
3, 170880, Note_on_c, 0, 74, 94
3, 170880, Note_on_c, 0, 71, 84
3, 172980, Note_off_c, 0, 71, 64
3, 172980, Note_off_c, 0, 76, 64
3, 173000, Note_off_c, 0, 68, 64
3, 173000, Note_off_c, 0, 74, 64
3, 173040, Note_on_c, 0, 68, 98
3, 173040, Note_on_c, 0, 74, 86
3, 173040, Note_on_c, 0, 76, 94
3, 173040, Note_on_c, 0, 71, 127
3, 173310, Note_off_c, 0, 76, 64
3, 173330, Note_off_c, 0, 71, 64
3, 173345, Note_off_c, 0, 74, 64
3, 173345, Note_off_c, 0, 68, 64
3, 173400, Note_on_c, 0, 68, 98
3, 173400, Note_on_c, 0, 71, 122
3, 173400, Note_on_c, 0, 74, 94
3, 173400, Note_on_c, 0, 76, 106
3, 173525, Note_off_c, 0, 71, 64
3, 173540, Note_off_c, 0, 74, 64
3, 173540, Note_off_c, 0, 76, 64
3, 173560, Note_off_c, 0, 68, 64
3, 173640, Note_on_c, 0, 40, 84
3, 173725, Note_off_c, 0, 40, 64
3, 173760, Note_on_c, 0, 76, 122
3, 173760, Note_on_c, 0, 74, 122
3, 173760, Note_on_c, 0, 68, 90
3, 173760, Note_on_c, 0, 71, 110
3, 174000, Note_on_c, 0, 40, 98
3, 174025, Note_off_c, 0, 76, 64
3, 174040, Note_off_c, 0, 68, 64
3, 174040, Note_off_c, 0, 71, 64
3, 174050, Note_off_c, 0, 74, 64
3, 174120, Note_off_c, 0, 40, 64
3, 174120, Note_on_c, 0, 68, 94
3, 174120, Note_on_c, 0, 71, 126
3, 174120, Note_on_c, 0, 76, 118
3, 174120, Note_on_c, 0, 74, 126
3, 174315, Note_off_c, 0, 74, 64
3, 174340, Note_off_c, 0, 71, 64
3, 174340, Note_off_c, 0, 68, 64
3, 174345, Note_off_c, 0, 76, 64
3, 174360, Note_on_c, 0, 40, 127
3, 174450, Note_off_c, 0, 40, 64
3, 174480, Note_on_c, 0, 71, 127
3, 174480, Note_on_c, 0, 68, 127
3, 174480, Note_on_c, 0, 76, 127
3, 174480, Note_on_c, 0, 74, 127
3, 174680, Note_off_c, 0, 74, 64
3, 174680, Note_off_c, 0, 68, 64
3, 174680, Note_off_c, 0, 71, 64
3, 174700, Note_off_c, 0, 76, 64
3, 174720, Note_on_c, 0, 68, 80
3, 174720, Note_on_c, 0, 76, 94
3, 174720, Note_on_c, 0, 74, 94
3, 174720, Note_on_c, 0, 71, 84
3, 176820, Note_off_c, 0, 71, 64
3, 176820, Note_off_c, 0, 76, 64
3, 176840, Note_off_c, 0, 68, 64
3, 176840, Note_off_c, 0, 74, 64
3, 176880, Note_on_c, 0, 68, 98
3, 176880, Note_on_c, 0, 74, 86
3, 176880, Note_on_c, 0, 76, 94
3, 176880, Note_on_c, 0, 71, 127
3, 177150, Note_off_c, 0, 76, 64
3, 177170, Note_off_c, 0, 71, 64
3, 177185, Note_off_c, 0, 74, 64
3, 177185, Note_off_c, 0, 68, 64
3, 177240, Note_on_c, 0, 68, 98
3, 177240, Note_on_c, 0, 71, 122
3, 177240, Note_on_c, 0, 74, 94
3, 177240, Note_on_c, 0, 76, 106
3, 177365, Note_off_c, 0, 71, 64
3, 177380, Note_off_c, 0, 74, 64
3, 177380, Note_off_c, 0, 76, 64
3, 177400, Note_off_c, 0, 68, 64
3, 177480, Note_on_c, 0, 40, 84
3, 177565, Note_off_c, 0, 40, 64
3, 177600, Note_on_c, 0, 76, 122
3, 177600, Note_on_c, 0, 74, 122
3, 177600, Note_on_c, 0, 68, 90
3, 177600, Note_on_c, 0, 71, 110
3, 177840, Note_on_c, 0, 40, 98
3, 177865, Note_off_c, 0, 76, 64
3, 177880, Note_off_c, 0, 68, 64
3, 177880, Note_off_c, 0, 71, 64
3, 177890, Note_off_c, 0, 74, 64
3, 177960, Note_off_c, 0, 40, 64
3, 177960, Note_on_c, 0, 68, 94
3, 177960, Note_on_c, 0, 71, 126
3, 177960, Note_on_c, 0, 76, 118
3, 177960, Note_on_c, 0, 74, 126
3, 178155, Note_off_c, 0, 74, 64
3, 178180, Note_off_c, 0, 71, 64
3, 178180, Note_off_c, 0, 68, 64
3, 178185, Note_off_c, 0, 76, 64
3, 178200, Note_on_c, 0, 40, 127
3, 178290, Note_off_c, 0, 40, 64
3, 178320, Note_on_c, 0, 71, 127
3, 178320, Note_on_c, 0, 68, 127
3, 178320, Note_on_c, 0, 76, 127
3, 178320, Note_on_c, 0, 74, 127
3, 178520, Note_off_c, 0, 74, 64
3, 178520, Note_off_c, 0, 68, 64
3, 178520, Note_off_c, 0, 71, 64
3, 178540, Note_off_c, 0, 76, 64
3, 178560, Note_on_c, 0, 83, 94
3, 178560, Note_on_c, 0, 76, 118
3, 178560, Note_on_c, 0, 74, 110
3, 180480, Control_c, 0, 7, 88
3, 180850, Control_c, 0, 7, 87
3, 181220, Control_c, 0, 7, 86
3, 181305, Note_off_c, 0, 76, 64
3, 181320, Note_off_c, 0, 74, 64
3, 181320, Note_on_c, 0, 40, 72
3, 181355, Note_off_c, 0, 83, 64
3, 181430, Note_off_c, 0, 40, 64
3, 181440, Note_on_c, 0, 74, 114
3, 181440, Note_on_c, 0, 76, 122
3, 181440, Note_on_c, 0, 71, 72
3, 181520, Note_off_c, 0, 74, 64
3, 181560, Note_on_c, 0, 74, 127
3, 181595, Control_c, 0, 7, 85
3, 181680, Note_off_c, 0, 76, 64
3, 181680, Note_off_c, 0, 71, 64
3, 181680, Note_off_c, 0, 74, 64
3, 181800, Note_on_c, 0, 40, 90
3, 181920, Note_on_c, 0, 74, 127
3, 181920, Note_on_c, 0, 76, 122
3, 181920, Note_on_c, 0, 71, 118
3, 181930, Note_off_c, 0, 40, 64
3, 181965, Control_c, 0, 7, 84
3, 181995, Note_off_c, 0, 71, 64
3, 182005, Note_off_c, 0, 74, 64
3, 182010, Note_off_c, 0, 76, 64
3, 182040, Note_on_c, 0, 74, 127
3, 182040, Note_on_c, 0, 76, 127
3, 182040, Note_on_c, 0, 71, 98
3, 182110, Note_off_c, 0, 71, 64
3, 182130, Note_off_c, 0, 76, 64
3, 182130, Note_off_c, 0, 74, 64
3, 182335, Control_c, 0, 7, 83
3, 182400, Note_on_c, 0, 71, 127
3, 182400, Note_on_c, 0, 74, 127
3, 182400, Note_on_c, 0, 76, 127
3, 182400, Note_on_c, 0, 68, 98
3, 182705, Control_c, 0, 7, 82
3, 183075, Control_c, 0, 7, 81
3, 183240, Note_off_c, 0, 76, 64
3, 183260, Note_off_c, 0, 74, 64
3, 183260, Note_off_c, 0, 71, 64
3, 183265, Note_off_c, 0, 68, 64
3, 183360, Note_on_c, 0, 68, 86
3, 183360, Note_on_c, 0, 71, 104
3, 183360, Note_on_c, 0, 76, 88
3, 183360, Note_on_c, 0, 74, 92
3, 183445, Control_c, 0, 7, 80
3, 183450, Note_off_c, 0, 74, 64
3, 183455, Note_off_c, 0, 76, 64
3, 183465, Note_off_c, 0, 71, 64
3, 183495, Note_off_c, 0, 68, 64
3, 183820, Control_c, 0, 7, 79
3, 183840, Note_on_c, 0, 68, 78
3, 183840, Note_on_c, 0, 71, 72
3, 183840, Note_on_c, 0, 76, 78
3, 183840, Note_on_c, 0, 74, 104
3, 183920, Note_off_c, 0, 74, 64
3, 183925, Note_off_c, 0, 76, 64
3, 183940, Note_off_c, 0, 71, 64
3, 183940, Note_off_c, 0, 68, 64
3, 184080, Note_on_c, 0, 68, 90
3, 184080, Note_on_c, 0, 74, 127
3, 184080, Note_on_c, 0, 76, 127
3, 184080, Note_on_c, 0, 71, 112
3, 184190, Control_c, 0, 7, 78
3, 184560, Control_c, 0, 7, 77
3, 184700, Note_off_c, 0, 76, 64
3, 184720, Note_off_c, 0, 74, 64
3, 184725, Note_off_c, 0, 68, 64
3, 184730, Note_off_c, 0, 71, 64
3, 184800, Note_on_c, 0, 76, 104
3, 184800, Note_on_c, 0, 71, 76
3, 184800, Note_on_c, 0, 68, 76
3, 184800, Note_on_c, 0, 74, 92
3, 184865, Note_off_c, 0, 74, 64
3, 184880, Note_off_c, 0, 68, 64
3, 184880, Note_off_c, 0, 71, 64
3, 184880, Note_off_c, 0, 76, 64
3, 184930, Control_c, 0, 7, 76
3, 185040, Note_on_c, 0, 71, 127
3, 185040, Note_on_c, 0, 68, 100
3, 185040, Note_on_c, 0, 74, 127
3, 185040, Note_on_c, 0, 76, 108
3, 185300, Control_c, 0, 7, 75
3, 185465, Note_off_c, 0, 76, 64
3, 185470, Note_off_c, 0, 74, 64
3, 185485, Note_off_c, 0, 71, 64
3, 185510, Note_off_c, 0, 68, 64
3, 185520, Note_on_c, 0, 40, 120
3, 185660, Note_off_c, 0, 40, 64
3, 185670, Control_c, 0, 7, 74
3, 185760, Note_on_c, 0, 76, 127
3, 185760, Note_on_c, 0, 71, 127
3, 185760, Note_on_c, 0, 74, 127
3, 185760, Note_on_c, 0, 68, 124
3, 186000, Note_off_c, 0, 68, 64
3, 186010, Note_off_c, 0, 74, 64
3, 186010, Note_off_c, 0, 71, 64
3, 186035, Note_off_c, 0, 76, 64
3, 186045, Control_c, 0, 7, 73
3, 186240, Note_on_c, 0, 83, 94
3, 186240, Note_on_c, 0, 76, 118
3, 186240, Note_on_c, 0, 74, 110
3, 186415, Control_c, 0, 7, 72
3, 186785, Control_c, 0, 7, 71
3, 187155, Control_c, 0, 7, 70
3, 187525, Control_c, 0, 7, 69
3, 187895, Control_c, 0, 7, 68
3, 188270, Control_c, 0, 7, 67
3, 188640, Control_c, 0, 7, 66
3, 188985, Note_off_c, 0, 76, 64
3, 189000, Note_off_c, 0, 74, 64
3, 189000, Note_on_c, 0, 40, 72
3, 189010, Control_c, 0, 7, 65
3, 189035, Note_off_c, 0, 83, 64
3, 189110, Note_off_c, 0, 40, 64
3, 189120, Note_on_c, 0, 74, 114
3, 189120, Note_on_c, 0, 76, 122
3, 189120, Note_on_c, 0, 71, 72
3, 189200, Note_off_c, 0, 74, 64
3, 189240, Note_on_c, 0, 74, 127
3, 189360, Note_off_c, 0, 76, 64
3, 189360, Note_off_c, 0, 71, 64
3, 189360, Note_off_c, 0, 74, 64
3, 189380, Control_c, 0, 7, 64
3, 189480, Note_on_c, 0, 40, 90
3, 189600, Note_on_c, 0, 74, 127
3, 189600, Note_on_c, 0, 76, 122
3, 189600, Note_on_c, 0, 71, 118
3, 189610, Note_off_c, 0, 40, 64
3, 189675, Note_off_c, 0, 71, 64
3, 189685, Note_off_c, 0, 74, 64
3, 189690, Note_off_c, 0, 76, 64
3, 189720, Note_on_c, 0, 74, 127
3, 189720, Note_on_c, 0, 76, 127
3, 189720, Note_on_c, 0, 71, 98
3, 189750, Control_c, 0, 7, 63
3, 189790, Note_off_c, 0, 71, 64
3, 189810, Note_off_c, 0, 76, 64
3, 189810, Note_off_c, 0, 74, 64
3, 190080, Note_on_c, 0, 76, 96
3, 190080, Note_on_c, 0, 68, 80
3, 190080, Note_on_c, 0, 74, 114
3, 190080, Note_on_c, 0, 71, 86
3, 190120, Control_c, 0, 7, 62
3, 190495, Control_c, 0, 7, 61
3, 190865, Control_c, 0, 7, 60
3, 191235, Control_c, 0, 7, 59
3, 191605, Control_c, 0, 7, 58
3, 191975, Control_c, 0, 7, 57
3, 192345, Control_c, 0, 7, 56
3, 192380, Note_off_c, 0, 76, 64
3, 192380, Note_on_c, 0, 40, 90
3, 192400, Note_off_c, 0, 74, 64
3, 192405, Note_off_c, 0, 68, 64
3, 192405, Note_off_c, 0, 71, 64
3, 192480, Note_off_c, 0, 40, 64
3, 192480, Note_on_c, 0, 76, 127
3, 192480, Note_on_c, 0, 68, 98
3, 192480, Note_on_c, 0, 74, 127
3, 192480, Note_on_c, 0, 71, 110
3, 192720, Control_c, 0, 7, 55
3, 192840, Note_on_c, 0, 40, 127
3, 192875, Note_off_c, 0, 76, 64
3, 192880, Note_off_c, 0, 74, 64
3, 192890, Note_off_c, 0, 68, 64
3, 192890, Note_off_c, 0, 71, 64
3, 192960, Note_off_c, 0, 40, 64
3, 192960, Note_on_c, 0, 68, 90
3, 192960, Note_on_c, 0, 76, 98
3, 192960, Note_on_c, 0, 71, 72
3, 192960, Note_on_c, 0, 74, 90
3, 193000, Note_off_c, 0, 74, 64
3, 193025, Note_off_c, 0, 71, 64
3, 193025, Note_off_c, 0, 76, 64
3, 193080, Note_on_c, 0, 76, 98
3, 193080, Note_on_c, 0, 71, 118
3, 193080, Note_on_c, 0, 74, 92
3, 193090, Control_c, 0, 7, 54
3, 193175, Note_off_c, 0, 68, 64
3, 193180, Note_off_c, 0, 71, 64
3, 193190, Note_off_c, 0, 76, 64
3, 193190, Note_off_c, 0, 74, 64
3, 193320, Note_on_c, 0, 40, 126
3, 193440, Note_off_c, 0, 40, 64
3, 193440, Note_on_c, 0, 74, 127
3, 193440, Note_on_c, 0, 68, 110
3, 193440, Note_on_c, 0, 76, 127
3, 193440, Note_on_c, 0, 71, 127
3, 193460, Control_c, 0, 7, 53
3, 193680, Note_off_c, 0, 76, 64
3, 193680, Note_on_c, 0, 40, 127
3, 193690, Note_off_c, 0, 68, 64
3, 193690, Note_off_c, 0, 74, 64
3, 193690, Note_off_c, 0, 71, 64
3, 193755, Note_off_c, 0, 40, 64
3, 193830, Control_c, 0, 7, 52
3, 193920, Note_on_c, 0, 76, 98
3, 193920, Note_on_c, 0, 71, 98
3, 193920, Note_on_c, 0, 74, 98
3, 193920, Note_on_c, 0, 68, 127
3, 194200, Control_c, 0, 7, 51
3, 194570, Control_c, 0, 7, 50
3, 194945, Control_c, 0, 7, 49
3, 194955, Note_off_c, 0, 68, 64
3, 195000, Note_off_c, 0, 74, 64
3, 195005, Note_off_c, 0, 71, 64
3, 195020, Note_off_c, 0, 76, 64
3, 195120, Note_on_c, 0, 76, 124
3, 195120, Note_on_c, 0, 74, 102
3, 195120, Note_on_c, 0, 68, 94
3, 195120, Note_on_c, 0, 71, 116
3, 195200, Note_off_c, 0, 71, 64
3, 195200, Note_off_c, 0, 74, 64
3, 195225, Note_off_c, 0, 76, 64
3, 195230, Note_off_c, 0, 68, 64
3, 195315, Control_c, 0, 7, 48
3, 195600, Note_on_c, 0, 74, 94
3, 195600, Note_on_c, 0, 71, 82
3, 195600, Note_on_c, 0, 68, 127
3, 195600, Note_on_c, 0, 76, 108
3, 195685, Control_c, 0, 7, 47
3, 196055, Control_c, 0, 7, 46
3, 196425, Control_c, 0, 7, 45
3, 196515, Note_off_c, 0, 68, 64
3, 196680, Note_off_c, 0, 76, 64
3, 196680, Note_on_c, 0, 68, 127
3, 196715, Note_off_c, 0, 74, 64
3, 196800, Note_off_c, 0, 71, 64
3, 196800, Control_c, 0, 7, 44
3, 196800, Note_on_c, 0, 76, 127
3, 196920, Note_on_c, 0, 74, 112
3, 197060, Note_off_c, 0, 76, 64
3, 197060, Note_on_c, 0, 71, 112
3, 197120, Note_off_c, 0, 74, 64
3, 197160, Note_on_c, 0, 76, 127
3, 197170, Control_c, 0, 7, 43
3, 197245, Note_off_c, 0, 71, 64
3, 197280, Note_on_c, 0, 74, 74
3, 197390, Note_off_c, 0, 76, 64
3, 197400, Note_on_c, 0, 71, 74
3, 197440, Note_off_c, 0, 74, 64
3, 197520, Note_on_c, 0, 76, 127
3, 197540, Control_c, 0, 7, 42
3, 197600, Note_off_c, 0, 71, 64
3, 197655, Note_off_c, 0, 76, 64
3, 197715, Note_off_c, 0, 68, 64
3, 197760, Note_on_c, 0, 76, 118
3, 197760, Note_on_c, 0, 71, 94
3, 197760, Note_on_c, 0, 74, 114
3, 197760, Note_on_c, 0, 68, 74
3, 197910, Control_c, 0, 7, 41
3, 198280, Control_c, 0, 7, 40
3, 198650, Control_c, 0, 7, 39
3, 199025, Control_c, 0, 7, 38
3, 199360, Note_off_c, 0, 68, 64
3, 199360, Note_off_c, 0, 76, 64
3, 199370, Note_off_c, 0, 71, 64
3, 199370, Note_off_c, 0, 74, 64
3, 199395, Control_c, 0, 7, 37
3, 199440, Note_on_c, 0, 68, 127
3, 199440, Note_on_c, 0, 76, 127
3, 199440, Note_on_c, 0, 71, 127
3, 199440, Note_on_c, 0, 74, 127
3, 199505, Note_off_c, 0, 71, 64
3, 199525, Note_off_c, 0, 68, 64
3, 199530, Note_off_c, 0, 74, 64
3, 199540, Note_off_c, 0, 76, 64
3, 199765, Control_c, 0, 7, 36
3, 199920, Note_on_c, 0, 40, 124
3, 199995, Note_off_c, 0, 40, 64
3, 200040, Note_on_c, 0, 40, 114
3, 200135, Control_c, 0, 7, 35
3, 200160, Note_off_c, 0, 40, 64
3, 200160, Note_on_c, 0, 68, 106
3, 200160, Note_on_c, 0, 71, 127
3, 200160, Note_on_c, 0, 74, 127
3, 200160, Note_on_c, 0, 76, 118
3, 200400, Note_off_c, 0, 76, 64
3, 200415, Note_off_c, 0, 74, 64
3, 200430, Note_off_c, 0, 71, 64
3, 200430, Note_off_c, 0, 68, 64
3, 200430, Note_on_c, 0, 52, 38
3, 200505, Control_c, 0, 7, 34
3, 200535, Note_off_c, 0, 52, 64
3, 200640, Note_on_c, 0, 68, 86
3, 200640, Note_on_c, 0, 71, 124
3, 200640, Note_on_c, 0, 74, 114
3, 200730, Note_off_c, 0, 71, 64
3, 200740, Note_off_c, 0, 68, 64
3, 200740, Note_off_c, 0, 74, 64
3, 200760, Note_on_c, 0, 52, 66
3, 200820, Note_off_c, 0, 52, 64
3, 200875, Control_c, 0, 7, 33
3, 200880, Note_on_c, 0, 71, 127
3, 200880, Note_on_c, 0, 76, 118
3, 200880, Note_on_c, 0, 68, 114
3, 200880, Note_on_c, 0, 74, 124
3, 201230, Note_off_c, 0, 76, 64
3, 201250, Control_c, 0, 7, 32
3, 201255, Note_off_c, 0, 68, 64
3, 201265, Note_off_c, 0, 71, 64
3, 201265, Note_off_c, 0, 74, 64
3, 201620, Control_c, 0, 7, 31
3, 201840, Note_on_c, 0, 68, 127
3, 201990, Control_c, 0, 7, 30
3, 202080, Note_on_c, 0, 74, 104
3, 202320, Note_on_c, 0, 76, 116
3, 202360, Control_c, 0, 7, 29
3, 202730, Control_c, 0, 7, 28
3, 203100, Control_c, 0, 7, 27
3, 203475, Control_c, 0, 7, 26
3, 203845, Control_c, 0, 7, 25
3, 204200, Note_off_c, 0, 74, 64
3, 204215, Note_off_c, 0, 76, 64
3, 204215, Control_c, 0, 7, 24
3, 204240, Note_off_c, 0, 68, 64
3, 204240, Note_on_c, 0, 40, 80
3, 204415, Note_off_c, 0, 40, 64
3, 204480, Note_on_c, 0, 68, 96
3, 204480, Note_on_c, 0, 83, 126
3, 204480, Note_on_c, 0, 74, 127
3, 204480, Note_on_c, 0, 76, 116
3, 204480, Note_on_c, 0, 82, 78
3, 204500, Note_off_c, 0, 82, 64
3, 204585, Control_c, 0, 7, 23
3, 204720, Note_on_c, 0, 40, 96
3, 204750, Note_off_c, 0, 76, 64
3, 204750, Note_off_c, 0, 74, 64
3, 204780, Note_off_c, 0, 83, 64
3, 204780, Note_off_c, 0, 68, 64
3, 204890, Note_off_c, 0, 40, 64
3, 204955, Control_c, 0, 7, 22
3, 204960, Note_on_c, 0, 83, 116
3, 204960, Note_on_c, 0, 74, 127
3, 204960, Note_on_c, 0, 76, 122
3, 204960, Note_on_c, 0, 68, 96
3, 205190, Note_off_c, 0, 76, 64
3, 205195, Note_off_c, 0, 74, 64
3, 205220, Note_off_c, 0, 83, 64
3, 205220, Note_off_c, 0, 68, 64
3, 205325, Control_c, 0, 7, 21
3, 205440, Note_on_c, 0, 76, 96
3, 205440, Note_on_c, 0, 68, 80
3, 205440, Note_on_c, 0, 74, 114
3, 205440, Note_on_c, 0, 71, 86
3, 205700, Control_c, 0, 7, 20
3, 206070, Control_c, 0, 7, 19
3, 206440, Control_c, 0, 7, 18
3, 206810, Control_c, 0, 7, 17
3, 207180, Control_c, 0, 7, 16
3, 207550, Control_c, 0, 7, 15
3, 207740, Note_off_c, 0, 76, 64
3, 207740, Note_on_c, 0, 40, 90
3, 207760, Note_off_c, 0, 74, 64
3, 207765, Note_off_c, 0, 68, 64
3, 207765, Note_off_c, 0, 71, 64
3, 207840, Note_off_c, 0, 40, 64
3, 207840, Note_on_c, 0, 76, 127
3, 207840, Note_on_c, 0, 68, 98
3, 207840, Note_on_c, 0, 74, 127
3, 207840, Note_on_c, 0, 71, 110
3, 207925, Control_c, 0, 7, 14
3, 208200, Note_on_c, 0, 40, 127
3, 208235, Note_off_c, 0, 76, 64
3, 208240, Note_off_c, 0, 74, 64
3, 208250, Note_off_c, 0, 68, 64
3, 208250, Note_off_c, 0, 71, 64
3, 208295, Control_c, 0, 7, 13
3, 208320, Note_off_c, 0, 40, 64
3, 208320, Note_on_c, 0, 68, 90
3, 208320, Note_on_c, 0, 76, 98
3, 208320, Note_on_c, 0, 71, 72
3, 208320, Note_on_c, 0, 74, 90
3, 208360, Note_off_c, 0, 74, 64
3, 208385, Note_off_c, 0, 71, 64
3, 208385, Note_off_c, 0, 76, 64
3, 208440, Note_on_c, 0, 76, 98
3, 208440, Note_on_c, 0, 71, 118
3, 208440, Note_on_c, 0, 74, 92
3, 208535, Note_off_c, 0, 68, 64
3, 208540, Note_off_c, 0, 71, 64
3, 208550, Note_off_c, 0, 76, 64
3, 208550, Note_off_c, 0, 74, 64
3, 208665, Control_c, 0, 7, 12
3, 208680, Note_on_c, 0, 40, 126
3, 208800, Note_off_c, 0, 40, 64
3, 208800, Note_on_c, 0, 74, 127
3, 208800, Note_on_c, 0, 68, 110
3, 208800, Note_on_c, 0, 76, 127
3, 208800, Note_on_c, 0, 71, 127
3, 209035, Control_c, 0, 7, 11
3, 209040, Note_off_c, 0, 76, 64
3, 209040, Note_on_c, 0, 40, 127
3, 209050, Note_off_c, 0, 68, 64
3, 209050, Note_off_c, 0, 74, 64
3, 209050, Note_off_c, 0, 71, 64
3, 209115, Note_off_c, 0, 40, 64
3, 209405, Control_c, 0, 7, 10
3, 209520, Note_on_c, 0, 68, 127
3, 209760, Note_on_c, 0, 74, 104
3, 209775, Control_c, 0, 7, 9
3, 210000, Note_on_c, 0, 76, 116
3, 210150, Control_c, 0, 7, 8
3, 210520, Control_c, 0, 7, 7
3, 210890, Control_c, 0, 7, 6
3, 211260, Control_c, 0, 7, 5
3, 211630, Control_c, 0, 7, 4
3, 211880, Note_off_c, 0, 74, 64
3, 211895, Note_off_c, 0, 76, 64
3, 211920, Note_off_c, 0, 68, 64
3, 211920, Note_on_c, 0, 40, 80
3, 212000, Control_c, 0, 7, 3
3, 212095, Note_off_c, 0, 40, 64
3, 212160, Note_on_c, 0, 68, 96
3, 212160, Note_on_c, 0, 83, 126
3, 212160, Note_on_c, 0, 74, 127
3, 212160, Note_on_c, 0, 76, 116
3, 212160, Note_on_c, 0, 82, 78
3, 212180, Note_off_c, 0, 82, 64
3, 212375, Control_c, 0, 7, 2
3, 212400, Note_on_c, 0, 40, 96
3, 212430, Note_off_c, 0, 76, 64
3, 212430, Note_off_c, 0, 74, 64
3, 212460, Note_off_c, 0, 83, 64
3, 212460, Note_off_c, 0, 68, 64
3, 212570, Note_off_c, 0, 40, 64
3, 212640, Note_on_c, 0, 83, 116
3, 212640, Note_on_c, 0, 74, 127
3, 212640, Note_on_c, 0, 76, 122
3, 212640, Note_on_c, 0, 68, 96
3, 212745, Control_c, 0, 7, 1
3, 212870, Note_off_c, 0, 76, 64
3, 212875, Note_off_c, 0, 74, 64
3, 212900, Note_off_c, 0, 83, 64
3, 212900, Note_off_c, 0, 68, 64
3, 213115, Control_c, 0, 7, 0
3, 213115, End_track
4, 0, Start_track
4, 0, Title_t, "Overdrive Gtr"
4, 0, MIDI_port, 0
4, 0, Channel_prefix, 1
4, 480, Control_c, 1, 93, 127
4, 480, Control_c, 1, 91, 37
4, 480, Control_c, 1, 10, 41
4, 480, Control_c, 1, 7, 110
4, 480, Control_c, 1, 0, 0
4, 485, Program_c, 1, 29
4, 1920, Note_on_c, 1, 40, 115
4, 2625, Note_off_c, 1, 40, 64
4, 2640, Note_on_c, 1, 43, 115
4, 2865, Note_off_c, 1, 43, 64
4, 2880, Note_on_c, 1, 44, 115
4, 3105, Note_off_c, 1, 44, 64
4, 3120, Note_on_c, 1, 47, 115
4, 3345, Note_off_c, 1, 47, 64
4, 3360, Note_on_c, 1, 52, 115
4, 3585, Note_off_c, 1, 52, 64
4, 3600, Note_on_c, 1, 50, 115
4, 4305, Note_off_c, 1, 50, 64
4, 4320, Note_on_c, 1, 47, 115
4, 4545, Note_off_c, 1, 47, 64
4, 4560, Note_on_c, 1, 54, 115
4, 5025, Note_off_c, 1, 54, 64
4, 5040, Note_on_c, 1, 47, 115
4, 5265, Note_off_c, 1, 47, 64
4, 5280, Note_on_c, 1, 50, 115
4, 5505, Note_off_c, 1, 50, 64
4, 5520, Note_on_c, 1, 52, 115
4, 5745, Note_off_c, 1, 52, 64
4, 5760, Note_on_c, 1, 40, 115
4, 6465, Note_off_c, 1, 40, 64
4, 6480, Note_on_c, 1, 43, 115
4, 6705, Note_off_c, 1, 43, 64
4, 6720, Note_on_c, 1, 44, 115
4, 6945, Note_off_c, 1, 44, 64
4, 6960, Note_on_c, 1, 47, 115
4, 7185, Note_off_c, 1, 47, 64
4, 7200, Note_on_c, 1, 52, 115
4, 7425, Note_off_c, 1, 52, 64
4, 7440, Note_on_c, 1, 50, 115
4, 8145, Note_off_c, 1, 50, 64
4, 8160, Note_on_c, 1, 47, 115
4, 8385, Note_off_c, 1, 47, 64
4, 8400, Note_on_c, 1, 54, 115
4, 8865, Note_off_c, 1, 54, 64
4, 8880, Note_on_c, 1, 47, 115
4, 9105, Note_off_c, 1, 47, 64
4, 9120, Note_on_c, 1, 50, 115
4, 9345, Note_off_c, 1, 50, 64
4, 9360, Note_on_c, 1, 52, 115
4, 9585, Note_off_c, 1, 52, 64
4, 9600, Note_on_c, 1, 40, 115
4, 10305, Note_off_c, 1, 40, 64
4, 10320, Note_on_c, 1, 43, 115
4, 10545, Note_off_c, 1, 43, 64
4, 10560, Note_on_c, 1, 44, 115
4, 10785, Note_off_c, 1, 44, 64
4, 10800, Note_on_c, 1, 47, 115
4, 11025, Note_off_c, 1, 47, 64
4, 11040, Note_on_c, 1, 52, 115
4, 11265, Note_off_c, 1, 52, 64
4, 11280, Note_on_c, 1, 50, 115
4, 11985, Note_off_c, 1, 50, 64
4, 12000, Note_on_c, 1, 47, 115
4, 12225, Note_off_c, 1, 47, 64
4, 12240, Note_on_c, 1, 54, 115
4, 12705, Note_off_c, 1, 54, 64
4, 12720, Note_on_c, 1, 47, 115
4, 12945, Note_off_c, 1, 47, 64
4, 12960, Note_on_c, 1, 50, 115
4, 13185, Note_off_c, 1, 50, 64
4, 13200, Note_on_c, 1, 52, 115
4, 13425, Note_off_c, 1, 52, 64
4, 13440, Note_on_c, 1, 40, 115
4, 14145, Note_off_c, 1, 40, 64
4, 14160, Note_on_c, 1, 43, 115
4, 14385, Note_off_c, 1, 43, 64
4, 14400, Note_on_c, 1, 44, 115
4, 14625, Note_off_c, 1, 44, 64
4, 14640, Note_on_c, 1, 47, 115
4, 14865, Note_off_c, 1, 47, 64
4, 14880, Note_on_c, 1, 52, 115
4, 15105, Note_off_c, 1, 52, 64
4, 15120, Note_on_c, 1, 50, 115
4, 15825, Note_off_c, 1, 50, 64
4, 15840, Note_on_c, 1, 47, 115
4, 16065, Note_off_c, 1, 47, 64
4, 16080, Note_on_c, 1, 54, 115
4, 16545, Note_off_c, 1, 54, 64
4, 16560, Note_on_c, 1, 47, 115
4, 16785, Note_off_c, 1, 47, 64
4, 16800, Note_on_c, 1, 50, 115
4, 17025, Note_off_c, 1, 50, 64
4, 17040, Note_on_c, 1, 52, 115
4, 17265, Note_off_c, 1, 52, 64
4, 17280, Note_on_c, 1, 40, 115
4, 17985, Note_off_c, 1, 40, 64
4, 18000, Note_on_c, 1, 43, 115
4, 18225, Note_off_c, 1, 43, 64
4, 18240, Note_on_c, 1, 44, 115
4, 18465, Note_off_c, 1, 44, 64
4, 18480, Note_on_c, 1, 47, 115
4, 18705, Note_off_c, 1, 47, 64
4, 18720, Note_on_c, 1, 52, 115
4, 18945, Note_off_c, 1, 52, 64
4, 18960, Note_on_c, 1, 50, 115
4, 19665, Note_off_c, 1, 50, 64
4, 19680, Note_on_c, 1, 47, 115
4, 19905, Note_off_c, 1, 47, 64
4, 19920, Note_on_c, 1, 54, 115
4, 20385, Note_off_c, 1, 54, 64
4, 20400, Note_on_c, 1, 47, 115
4, 20625, Note_off_c, 1, 47, 64
4, 20640, Note_on_c, 1, 50, 115
4, 20865, Note_off_c, 1, 50, 64
4, 20880, Note_on_c, 1, 52, 115
4, 21105, Note_off_c, 1, 52, 64
4, 21120, Control_c, 1, 7, 102
4, 21120, Note_on_c, 1, 40, 115
4, 21825, Note_off_c, 1, 40, 64
4, 21840, Note_on_c, 1, 43, 115
4, 22065, Note_off_c, 1, 43, 64
4, 22080, Note_on_c, 1, 44, 115
4, 22305, Note_off_c, 1, 44, 64
4, 22320, Note_on_c, 1, 47, 115
4, 22545, Note_off_c, 1, 47, 64
4, 22560, Note_on_c, 1, 52, 115
4, 22785, Note_off_c, 1, 52, 64
4, 22800, Note_on_c, 1, 50, 115
4, 23505, Note_off_c, 1, 50, 64
4, 23520, Note_on_c, 1, 47, 115
4, 23745, Note_off_c, 1, 47, 64
4, 23760, Note_on_c, 1, 54, 115
4, 24225, Note_off_c, 1, 54, 64
4, 24240, Note_on_c, 1, 47, 115
4, 24465, Note_off_c, 1, 47, 64
4, 24480, Note_on_c, 1, 50, 115
4, 24705, Note_off_c, 1, 50, 64
4, 24720, Note_on_c, 1, 52, 115
4, 24945, Note_off_c, 1, 52, 64
4, 24960, Note_on_c, 1, 40, 115
4, 25665, Note_off_c, 1, 40, 64
4, 25680, Note_on_c, 1, 43, 115
4, 25905, Note_off_c, 1, 43, 64
4, 25920, Note_on_c, 1, 44, 115
4, 26145, Note_off_c, 1, 44, 64
4, 26160, Note_on_c, 1, 47, 115
4, 26385, Note_off_c, 1, 47, 64
4, 26400, Note_on_c, 1, 52, 115
4, 26625, Note_off_c, 1, 52, 64
4, 26640, Note_on_c, 1, 50, 115
4, 27345, Note_off_c, 1, 50, 64
4, 27360, Note_on_c, 1, 47, 115
4, 27585, Note_off_c, 1, 47, 64
4, 27600, Note_on_c, 1, 54, 115
4, 28065, Note_off_c, 1, 54, 64
4, 28080, Note_on_c, 1, 47, 115
4, 28305, Note_off_c, 1, 47, 64
4, 28320, Note_on_c, 1, 50, 115
4, 28545, Note_off_c, 1, 50, 64
4, 28560, Note_on_c, 1, 52, 115
4, 28785, Note_off_c, 1, 52, 64
4, 28800, Note_on_c, 1, 45, 115
4, 29505, Note_off_c, 1, 45, 64
4, 29520, Note_on_c, 1, 48, 115
4, 29745, Note_off_c, 1, 48, 64
4, 29760, Note_on_c, 1, 49, 115
4, 29985, Note_off_c, 1, 49, 64
4, 30000, Note_on_c, 1, 52, 115
4, 30225, Note_off_c, 1, 52, 64
4, 30240, Note_on_c, 1, 57, 115
4, 30465, Note_off_c, 1, 57, 64
4, 30480, Note_on_c, 1, 55, 115
4, 31185, Note_off_c, 1, 55, 64
4, 31200, Note_on_c, 1, 52, 115
4, 31425, Note_off_c, 1, 52, 64
4, 31440, Note_on_c, 1, 59, 115
4, 31905, Note_off_c, 1, 59, 64
4, 31920, Note_on_c, 1, 52, 115
4, 32145, Note_off_c, 1, 52, 64
4, 32160, Note_on_c, 1, 55, 115
4, 32385, Note_off_c, 1, 55, 64
4, 32400, Note_on_c, 1, 57, 115
4, 32625, Note_off_c, 1, 57, 64
4, 32640, Note_on_c, 1, 40, 115
4, 33345, Note_off_c, 1, 40, 64
4, 33360, Note_on_c, 1, 43, 115
4, 33585, Note_off_c, 1, 43, 64
4, 33600, Note_on_c, 1, 44, 115
4, 33825, Note_off_c, 1, 44, 64
4, 33840, Note_on_c, 1, 47, 115
4, 34065, Note_off_c, 1, 47, 64
4, 34080, Note_on_c, 1, 52, 115
4, 34305, Note_off_c, 1, 52, 64
4, 34320, Note_on_c, 1, 50, 115
4, 35025, Note_off_c, 1, 50, 64
4, 35040, Note_on_c, 1, 47, 115
4, 35265, Note_off_c, 1, 47, 64
4, 35280, Note_on_c, 1, 54, 115
4, 35745, Note_off_c, 1, 54, 64
4, 35760, Note_on_c, 1, 47, 115
4, 35985, Note_off_c, 1, 47, 64
4, 36000, Note_on_c, 1, 50, 115
4, 36225, Note_off_c, 1, 50, 64
4, 36240, Note_on_c, 1, 52, 115
4, 36465, Note_off_c, 1, 52, 64
4, 36480, Note_on_c, 1, 42, 115
4, 36945, Note_off_c, 1, 42, 64
4, 36960, Note_on_c, 1, 42, 115
4, 37185, Note_off_c, 1, 42, 64
4, 37200, Note_on_c, 1, 42, 115
4, 37425, Note_off_c, 1, 42, 64
4, 37440, Note_on_c, 1, 42, 115
4, 37905, Note_off_c, 1, 42, 64
4, 37920, Note_on_c, 1, 42, 115
4, 38145, Note_off_c, 1, 42, 64
4, 38160, Note_on_c, 1, 42, 115
4, 38385, Note_off_c, 1, 42, 64
4, 38400, Note_on_c, 1, 40, 115
4, 38415, Note_off_c, 1, 40, 64
4, 38430, Note_on_c, 1, 42, 115
4, 38865, Note_off_c, 1, 42, 64
4, 38880, Note_on_c, 1, 40, 115
4, 38895, Note_off_c, 1, 40, 64
4, 38910, Note_on_c, 1, 42, 115
4, 39105, Note_off_c, 1, 42, 64
4, 39120, Note_on_c, 1, 42, 115
4, 39345, Note_off_c, 1, 42, 64
4, 39360, Note_on_c, 1, 40, 115
4, 39465, Note_off_c, 1, 40, 64
4, 39480, Note_on_c, 1, 42, 115
4, 39585, Note_off_c, 1, 42, 64
4, 39600, Note_on_c, 1, 45, 115
4, 39825, Note_off_c, 1, 45, 64
4, 39840, Note_on_c, 1, 42, 115
4, 40065, Note_off_c, 1, 42, 64
4, 40080, Note_on_c, 1, 42, 115
4, 40305, Note_off_c, 1, 42, 64
4, 40320, Note_on_c, 1, 42, 115
4, 40785, Note_off_c, 1, 42, 64
4, 40800, Note_on_c, 1, 42, 115
4, 41025, Note_off_c, 1, 42, 64
4, 41040, Note_on_c, 1, 42, 115
4, 41265, Note_off_c, 1, 42, 64
4, 41520, Note_on_c, 1, 42, 115
4, 41745, Note_off_c, 1, 42, 64
4, 42000, Note_on_c, 1, 40, 115
4, 42225, Note_off_c, 1, 40, 64
4, 42240, Note_on_c, 1, 40, 115
4, 42465, Note_off_c, 1, 40, 64
4, 42480, Note_on_c, 1, 42, 115
4, 42705, Note_off_c, 1, 42, 64
4, 42720, Note_on_c, 1, 42, 115
4, 42945, Note_off_c, 1, 42, 64
4, 42960, Note_on_c, 1, 42, 115
4, 43185, Note_off_c, 1, 42, 64
4, 43200, Note_on_c, 1, 40, 115
4, 43215, Note_off_c, 1, 40, 64
4, 43230, Note_on_c, 1, 42, 115
4, 43425, Note_off_c, 1, 42, 64
4, 43440, Note_on_c, 1, 42, 115
4, 43665, Note_off_c, 1, 42, 64
4, 43680, Note_on_c, 1, 42, 115
4, 43905, Note_off_c, 1, 42, 64
4, 43920, Note_on_c, 1, 42, 115
4, 44145, Note_off_c, 1, 42, 64
4, 44160, Note_on_c, 1, 45, 115
4, 44625, Note_off_c, 1, 45, 64
4, 44640, Note_on_c, 1, 45, 115
4, 44865, Note_off_c, 1, 45, 64
4, 44880, Note_on_c, 1, 45, 115
4, 45105, Note_off_c, 1, 45, 64
4, 45360, Note_on_c, 1, 45, 115
4, 45585, Note_off_c, 1, 45, 64
4, 45840, Note_on_c, 1, 45, 115
4, 46065, Note_off_c, 1, 45, 64
4, 46080, Note_on_c, 1, 44, 115
4, 46545, Note_off_c, 1, 44, 64
4, 46560, Note_on_c, 1, 44, 115
4, 46785, Note_off_c, 1, 44, 64
4, 46800, Note_on_c, 1, 44, 115
4, 47025, Note_off_c, 1, 44, 64
4, 47040, Note_on_c, 1, 51, 115
4, 47505, Note_off_c, 1, 51, 64
4, 47520, Note_on_c, 1, 51, 115
4, 47985, Note_off_c, 1, 51, 64
4, 48000, Note_on_c, 1, 49, 115
4, 48465, Note_off_c, 1, 49, 64
4, 48480, Note_on_c, 1, 49, 115
4, 48945, Note_off_c, 1, 49, 64
4, 48960, Note_on_c, 1, 49, 115
4, 49425, Note_off_c, 1, 49, 64
4, 49440, Note_on_c, 1, 49, 115
4, 49665, Note_off_c, 1, 49, 64
4, 49680, Note_on_c, 1, 49, 115
4, 49905, Note_off_c, 1, 49, 64
4, 49920, Note_on_c, 1, 47, 115
4, 50385, Note_off_c, 1, 47, 64
4, 50400, Note_on_c, 1, 47, 115
4, 50400, Note_on_c, 1, 54, 108
4, 50865, Note_off_c, 1, 54, 64
4, 50865, Note_off_c, 1, 47, 64
4, 50880, Note_on_c, 1, 47, 115
4, 51105, Note_off_c, 1, 47, 64
4, 51120, Note_on_c, 1, 47, 115
4, 51120, Note_on_c, 1, 54, 108
4, 51120, Note_on_c, 1, 59, 108
4, 51345, Note_off_c, 1, 59, 64
4, 51345, Note_off_c, 1, 54, 64
4, 51345, Note_off_c, 1, 47, 64
4, 51360, Note_on_c, 1, 54, 115
4, 51825, Note_off_c, 1, 54, 64
4, 51840, Control_c, 1, 7, 110
4, 51840, Note_on_c, 1, 40, 115
4, 52545, Note_off_c, 1, 40, 64
4, 52560, Note_on_c, 1, 43, 115
4, 52785, Note_off_c, 1, 43, 64
4, 52800, Note_on_c, 1, 44, 115
4, 53025, Note_off_c, 1, 44, 64
4, 53040, Note_on_c, 1, 47, 115
4, 53265, Note_off_c, 1, 47, 64
4, 53280, Note_on_c, 1, 52, 115
4, 53505, Note_off_c, 1, 52, 64
4, 53520, Note_on_c, 1, 50, 115
4, 54225, Note_off_c, 1, 50, 64
4, 54240, Note_on_c, 1, 47, 115
4, 54465, Note_off_c, 1, 47, 64
4, 54480, Note_on_c, 1, 54, 115
4, 54945, Note_off_c, 1, 54, 64
4, 54960, Note_on_c, 1, 47, 115
4, 55185, Note_off_c, 1, 47, 64
4, 55200, Note_on_c, 1, 50, 115
4, 55425, Note_off_c, 1, 50, 64
4, 55440, Note_on_c, 1, 52, 115
4, 55665, Note_off_c, 1, 52, 64
4, 55680, Note_on_c, 1, 40, 115
4, 56385, Note_off_c, 1, 40, 64
4, 56400, Note_on_c, 1, 43, 115
4, 56625, Note_off_c, 1, 43, 64
4, 56640, Note_on_c, 1, 44, 115
4, 56865, Note_off_c, 1, 44, 64
4, 56880, Note_on_c, 1, 47, 115
4, 57105, Note_off_c, 1, 47, 64
4, 57120, Note_on_c, 1, 52, 115
4, 57345, Note_off_c, 1, 52, 64
4, 57360, Note_on_c, 1, 50, 115
4, 58065, Note_off_c, 1, 50, 64
4, 58080, Note_on_c, 1, 47, 115
4, 58305, Note_off_c, 1, 47, 64
4, 58320, Note_on_c, 1, 54, 115
4, 58785, Note_off_c, 1, 54, 64
4, 58800, Note_on_c, 1, 47, 115
4, 59025, Note_off_c, 1, 47, 64
4, 59040, Note_on_c, 1, 50, 115
4, 59265, Note_off_c, 1, 50, 64
4, 59280, Note_on_c, 1, 52, 115
4, 59505, Note_off_c, 1, 52, 64
4, 59520, Control_c, 1, 7, 104
4, 59520, Note_on_c, 1, 40, 115
4, 60225, Note_off_c, 1, 40, 64
4, 60240, Note_on_c, 1, 43, 115
4, 60465, Note_off_c, 1, 43, 64
4, 60480, Note_on_c, 1, 44, 115
4, 60705, Note_off_c, 1, 44, 64
4, 60720, Note_on_c, 1, 47, 115
4, 60945, Note_off_c, 1, 47, 64
4, 60960, Note_on_c, 1, 52, 115
4, 61185, Note_off_c, 1, 52, 64
4, 61200, Note_on_c, 1, 50, 115
4, 61905, Note_off_c, 1, 50, 64
4, 61920, Note_on_c, 1, 47, 115
4, 62145, Note_off_c, 1, 47, 64
4, 62160, Note_on_c, 1, 54, 115
4, 62625, Note_off_c, 1, 54, 64
4, 62640, Note_on_c, 1, 47, 115
4, 62865, Note_off_c, 1, 47, 64
4, 62880, Note_on_c, 1, 50, 115
4, 63105, Note_off_c, 1, 50, 64
4, 63120, Note_on_c, 1, 52, 115
4, 63345, Note_off_c, 1, 52, 64
4, 63360, Note_on_c, 1, 40, 115
4, 64065, Note_off_c, 1, 40, 64
4, 64080, Note_on_c, 1, 43, 115
4, 64305, Note_off_c, 1, 43, 64
4, 64320, Note_on_c, 1, 44, 115
4, 64545, Note_off_c, 1, 44, 64
4, 64560, Note_on_c, 1, 47, 115
4, 64785, Note_off_c, 1, 47, 64
4, 64800, Note_on_c, 1, 52, 115
4, 65025, Note_off_c, 1, 52, 64
4, 65040, Note_on_c, 1, 50, 115
4, 65745, Note_off_c, 1, 50, 64
4, 65760, Note_on_c, 1, 47, 115
4, 65985, Note_off_c, 1, 47, 64
4, 66000, Note_on_c, 1, 54, 115
4, 66465, Note_off_c, 1, 54, 64
4, 66480, Note_on_c, 1, 47, 115
4, 66705, Note_off_c, 1, 47, 64
4, 66720, Note_on_c, 1, 50, 115
4, 66945, Note_off_c, 1, 50, 64
4, 66960, Note_on_c, 1, 52, 115
4, 67185, Note_off_c, 1, 52, 64
4, 67200, Note_on_c, 1, 45, 115
4, 67905, Note_off_c, 1, 45, 64
4, 67920, Note_on_c, 1, 48, 115
4, 68145, Note_off_c, 1, 48, 64
4, 68160, Note_on_c, 1, 49, 115
4, 68385, Note_off_c, 1, 49, 64
4, 68400, Note_on_c, 1, 52, 115
4, 68625, Note_off_c, 1, 52, 64
4, 68640, Note_on_c, 1, 57, 115
4, 68865, Note_off_c, 1, 57, 64
4, 68880, Note_on_c, 1, 55, 115
4, 69585, Note_off_c, 1, 55, 64
4, 69600, Note_on_c, 1, 52, 115
4, 69825, Note_off_c, 1, 52, 64
4, 69840, Note_on_c, 1, 59, 115
4, 70305, Note_off_c, 1, 59, 64
4, 70320, Note_on_c, 1, 52, 115
4, 70545, Note_off_c, 1, 52, 64
4, 70560, Note_on_c, 1, 55, 115
4, 70785, Note_off_c, 1, 55, 64
4, 70800, Note_on_c, 1, 57, 115
4, 71025, Note_off_c, 1, 57, 64
4, 71040, Note_on_c, 1, 40, 115
4, 71745, Note_off_c, 1, 40, 64
4, 71760, Note_on_c, 1, 43, 115
4, 71985, Note_off_c, 1, 43, 64
4, 72000, Note_on_c, 1, 44, 115
4, 72225, Note_off_c, 1, 44, 64
4, 72240, Note_on_c, 1, 47, 115
4, 72465, Note_off_c, 1, 47, 64
4, 72480, Note_on_c, 1, 52, 115
4, 72705, Note_off_c, 1, 52, 64
4, 72720, Note_on_c, 1, 50, 115
4, 73425, Note_off_c, 1, 50, 64
4, 73440, Note_on_c, 1, 47, 115
4, 73665, Note_off_c, 1, 47, 64
4, 73680, Note_on_c, 1, 54, 115
4, 74145, Note_off_c, 1, 54, 64
4, 74160, Note_on_c, 1, 47, 115
4, 74385, Note_off_c, 1, 47, 64
4, 74400, Note_on_c, 1, 50, 115
4, 74625, Note_off_c, 1, 50, 64
4, 74640, Note_on_c, 1, 52, 115
4, 74865, Note_off_c, 1, 52, 64
4, 74880, Note_on_c, 1, 42, 115
4, 75345, Note_off_c, 1, 42, 64
4, 75360, Note_on_c, 1, 42, 115
4, 75585, Note_off_c, 1, 42, 64
4, 75600, Note_on_c, 1, 42, 115
4, 75825, Note_off_c, 1, 42, 64
4, 75840, Note_on_c, 1, 42, 115
4, 76305, Note_off_c, 1, 42, 64
4, 76320, Note_on_c, 1, 42, 115
4, 76545, Note_off_c, 1, 42, 64
4, 76560, Note_on_c, 1, 42, 115
4, 76785, Note_off_c, 1, 42, 64
4, 76800, Note_on_c, 1, 40, 115
4, 76815, Note_off_c, 1, 40, 64
4, 76830, Note_on_c, 1, 42, 115
4, 77265, Note_off_c, 1, 42, 64
4, 77280, Note_on_c, 1, 40, 115
4, 77295, Note_off_c, 1, 40, 64
4, 77310, Note_on_c, 1, 42, 115
4, 77505, Note_off_c, 1, 42, 64
4, 77520, Note_on_c, 1, 42, 115
4, 77745, Note_off_c, 1, 42, 64
4, 77760, Note_on_c, 1, 40, 115
4, 77865, Note_off_c, 1, 40, 64
4, 77880, Note_on_c, 1, 42, 115
4, 77985, Note_off_c, 1, 42, 64
4, 78000, Note_on_c, 1, 45, 115
4, 78225, Note_off_c, 1, 45, 64
4, 78240, Note_on_c, 1, 42, 115
4, 78465, Note_off_c, 1, 42, 64
4, 78480, Note_on_c, 1, 42, 115
4, 78705, Note_off_c, 1, 42, 64
4, 78720, Note_on_c, 1, 42, 115
4, 79185, Note_off_c, 1, 42, 64
4, 79200, Note_on_c, 1, 42, 115
4, 79425, Note_off_c, 1, 42, 64
4, 79440, Note_on_c, 1, 42, 115
4, 79665, Note_off_c, 1, 42, 64
4, 79920, Note_on_c, 1, 42, 115
4, 80145, Note_off_c, 1, 42, 64
4, 80400, Note_on_c, 1, 40, 115
4, 80625, Note_off_c, 1, 40, 64
4, 80640, Note_on_c, 1, 40, 115
4, 80865, Note_off_c, 1, 40, 64
4, 80880, Note_on_c, 1, 42, 115
4, 81105, Note_off_c, 1, 42, 64
4, 81120, Note_on_c, 1, 42, 115
4, 81345, Note_off_c, 1, 42, 64
4, 81360, Note_on_c, 1, 42, 115
4, 81585, Note_off_c, 1, 42, 64
4, 81600, Note_on_c, 1, 40, 115
4, 81615, Note_off_c, 1, 40, 64
4, 81630, Note_on_c, 1, 42, 115
4, 81825, Note_off_c, 1, 42, 64
4, 81840, Note_on_c, 1, 42, 115
4, 82065, Note_off_c, 1, 42, 64
4, 82080, Note_on_c, 1, 42, 115
4, 82305, Note_off_c, 1, 42, 64
4, 82320, Note_on_c, 1, 42, 115
4, 82545, Note_off_c, 1, 42, 64
4, 82560, Note_on_c, 1, 45, 115
4, 83025, Note_off_c, 1, 45, 64
4, 83040, Note_on_c, 1, 45, 115
4, 83265, Note_off_c, 1, 45, 64
4, 83280, Note_on_c, 1, 45, 115
4, 83505, Note_off_c, 1, 45, 64
4, 83760, Note_on_c, 1, 45, 115
4, 83985, Note_off_c, 1, 45, 64
4, 84240, Note_on_c, 1, 45, 115
4, 84465, Note_off_c, 1, 45, 64
4, 84480, Note_on_c, 1, 44, 115
4, 84945, Note_off_c, 1, 44, 64
4, 84960, Note_on_c, 1, 44, 115
4, 85185, Note_off_c, 1, 44, 64
4, 85200, Note_on_c, 1, 44, 115
4, 85425, Note_off_c, 1, 44, 64
4, 85440, Note_on_c, 1, 51, 115
4, 85905, Note_off_c, 1, 51, 64
4, 85920, Note_on_c, 1, 51, 115
4, 86385, Note_off_c, 1, 51, 64
4, 86400, Note_on_c, 1, 49, 115
4, 86865, Note_off_c, 1, 49, 64
4, 86880, Note_on_c, 1, 49, 115
4, 87345, Note_off_c, 1, 49, 64
4, 87360, Note_on_c, 1, 49, 115
4, 87825, Note_off_c, 1, 49, 64
4, 87840, Note_on_c, 1, 49, 115
4, 88065, Note_off_c, 1, 49, 64
4, 88080, Note_on_c, 1, 49, 115
4, 88305, Note_off_c, 1, 49, 64
4, 88320, Note_on_c, 1, 47, 115
4, 88785, Note_off_c, 1, 47, 64
4, 90240, Control_c, 1, 93, 127
4, 90240, Control_c, 1, 7, 127
4, 90240, Note_on_c, 1, 54, 108
4, 90240, Note_on_c, 1, 47, 115
4, 90945, Note_off_c, 1, 47, 64
4, 90960, Note_on_c, 1, 50, 115
4, 91185, Note_off_c, 1, 50, 64
4, 91200, Note_on_c, 1, 51, 115
4, 91425, Note_off_c, 1, 54, 64
4, 91425, Note_off_c, 1, 51, 64
4, 91440, Note_on_c, 1, 54, 108
4, 91680, Note_on_c, 1, 59, 115
4, 91905, Note_off_c, 1, 59, 64
4, 91920, Note_on_c, 1, 57, 115
4, 92625, Note_off_c, 1, 54, 64
4, 92625, Note_off_c, 1, 57, 64
4, 92640, Note_on_c, 1, 54, 108
4, 92880, Note_on_c, 1, 61, 115
4, 93345, Note_off_c, 1, 61, 64
4, 93345, Note_off_c, 1, 54, 64
4, 93360, Note_on_c, 1, 54, 108
4, 93600, Note_on_c, 1, 57, 115
4, 93825, Note_off_c, 1, 57, 64
4, 93840, Note_on_c, 1, 59, 115
4, 94065, Note_off_c, 1, 54, 64
4, 94065, Note_off_c, 1, 59, 64
4, 94080, Note_on_c, 1, 54, 108
4, 94080, Note_on_c, 1, 47, 115
4, 94785, Note_off_c, 1, 47, 64
4, 94800, Note_on_c, 1, 50, 115
4, 95025, Note_off_c, 1, 50, 64
4, 95040, Note_on_c, 1, 51, 115
4, 95265, Note_off_c, 1, 54, 64
4, 95265, Note_off_c, 1, 51, 64
4, 95280, Note_on_c, 1, 54, 108
4, 95520, Note_on_c, 1, 59, 115
4, 95745, Note_off_c, 1, 59, 64
4, 95760, Note_on_c, 1, 57, 115
4, 96465, Note_off_c, 1, 54, 64
4, 96465, Note_off_c, 1, 57, 64
4, 96480, Note_on_c, 1, 54, 108
4, 96720, Note_on_c, 1, 61, 115
4, 97185, Note_off_c, 1, 61, 64
4, 97185, Note_off_c, 1, 54, 64
4, 97200, Note_on_c, 1, 54, 108
4, 97440, Note_on_c, 1, 57, 115
4, 97665, Note_off_c, 1, 57, 64
4, 97680, Note_on_c, 1, 59, 115
4, 97905, Note_off_c, 1, 54, 64
4, 97905, Note_off_c, 1, 59, 64
4, 97920, Note_on_c, 1, 54, 108
4, 97920, Note_on_c, 1, 47, 115
4, 98625, Note_off_c, 1, 47, 64
4, 98640, Note_on_c, 1, 50, 115
4, 98865, Note_off_c, 1, 50, 64
4, 98880, Note_on_c, 1, 51, 115
4, 99105, Note_off_c, 1, 54, 64
4, 99105, Note_off_c, 1, 51, 64
4, 99120, Note_on_c, 1, 54, 108
4, 99360, Note_on_c, 1, 59, 115
4, 99585, Note_off_c, 1, 59, 64
4, 99600, Note_on_c, 1, 57, 115
4, 100305, Note_off_c, 1, 54, 64
4, 100305, Note_off_c, 1, 57, 64
4, 100320, Note_on_c, 1, 54, 108
4, 100560, Note_on_c, 1, 61, 115
4, 101025, Note_off_c, 1, 61, 64
4, 101025, Note_off_c, 1, 54, 64
4, 101040, Note_on_c, 1, 54, 108
4, 101280, Note_on_c, 1, 57, 115
4, 101505, Note_off_c, 1, 57, 64
4, 101520, Note_on_c, 1, 59, 115
4, 101745, Note_off_c, 1, 54, 64
4, 101745, Note_off_c, 1, 59, 64
4, 101760, Note_on_c, 1, 59, 115
4, 102225, Note_off_c, 1, 59, 64
4, 102240, Note_on_c, 1, 59, 115
4, 102705, Note_off_c, 1, 59, 64
4, 102720, Note_on_c, 1, 63, 115
4, 102825, Note_off_c, 1, 63, 64
4, 102840, Note_on_c, 1, 62, 115
4, 102945, Note_off_c, 1, 62, 64
4, 102960, Note_on_c, 1, 59, 115
4, 103185, Note_off_c, 1, 59, 64
4, 103200, Note_on_c, 1, 62, 115
4, 103425, Note_off_c, 1, 62, 64
4, 103440, Note_on_c, 1, 64, 115
4, 103665, Note_off_c, 1, 64, 64
4, 103680, Note_on_c, 1, 66, 115
4, 103905, Note_off_c, 1, 66, 64
4, 103920, Note_on_c, 1, 69, 115
4, 104625, Note_off_c, 1, 69, 64
4, 104640, Note_on_c, 1, 65, 115
4, 104745, Note_off_c, 1, 65, 64
4, 104760, Note_on_c, 1, 64, 115
4, 105585, Note_off_c, 1, 64, 64
4, 105600, Note_on_c, 1, 71, 115
4, 106065, Note_off_c, 1, 71, 64
4, 106080, Note_on_c, 1, 71, 115
4, 106545, Note_off_c, 1, 71, 64
4, 106560, Note_on_c, 1, 74, 115
4, 106785, Note_off_c, 1, 74, 64
4, 106800, Note_on_c, 1, 71, 115
4, 107025, Note_off_c, 1, 71, 64
4, 107040, Note_on_c, 1, 74, 115
4, 107265, Note_off_c, 1, 74, 64
4, 107280, Note_on_c, 1, 76, 115
4, 107505, Note_off_c, 1, 76, 64
4, 107520, Note_on_c, 1, 76, 115
4, 107535, Note_off_c, 1, 76, 64
4, 107550, Note_on_c, 1, 78, 115
4, 107745, Note_off_c, 1, 78, 64
4, 107760, Note_on_c, 1, 78, 115
4, 107865, Note_off_c, 1, 78, 64
4, 107880, Note_on_c, 1, 76, 115
4, 107985, Note_off_c, 1, 76, 64
4, 108000, Note_on_c, 1, 74, 115
4, 108225, Note_off_c, 1, 74, 64
4, 108240, Note_on_c, 1, 71, 115
4, 108465, Note_off_c, 1, 71, 64
4, 108480, Note_on_c, 1, 71, 115
4, 109425, Note_off_c, 1, 71, 64
4, 109440, Control_c, 1, 7, 108
4, 109440, Note_on_c, 1, 47, 108
4, 109440, Note_on_c, 1, 54, 115
4, 109665, Note_off_c, 1, 54, 64
4, 109665, Note_off_c, 1, 47, 64
4, 109680, Note_on_c, 1, 47, 108
4, 109680, Note_on_c, 1, 54, 115
4, 109905, Note_off_c, 1, 54, 64
4, 109905, Note_off_c, 1, 47, 64
4, 109920, Note_on_c, 1, 54, 115
4, 109920, Note_on_c, 1, 47, 108
4, 110145, Note_off_c, 1, 47, 64
4, 110145, Note_off_c, 1, 54, 64
4, 110160, Note_on_c, 1, 47, 108
4, 110160, Note_on_c, 1, 54, 115
4, 110385, Note_off_c, 1, 54, 64
4, 110385, Note_off_c, 1, 47, 64
4, 110400, Note_on_c, 1, 54, 115
4, 110400, Note_on_c, 1, 47, 108
4, 110625, Note_off_c, 1, 47, 64
4, 110625, Note_off_c, 1, 54, 64
4, 110640, Note_on_c, 1, 47, 108
4, 110640, Note_on_c, 1, 54, 115
4, 110865, Note_off_c, 1, 54, 64
4, 110865, Note_off_c, 1, 47, 64
4, 110880, Note_on_c, 1, 47, 108
4, 110880, Note_on_c, 1, 54, 115
4, 111105, Note_off_c, 1, 54, 64
4, 111105, Note_off_c, 1, 47, 64
4, 111120, Note_on_c, 1, 54, 115
4, 111120, Note_on_c, 1, 47, 108
4, 111345, Note_off_c, 1, 47, 64
4, 111345, Note_off_c, 1, 54, 64
4, 111360, Note_on_c, 1, 47, 108
4, 111360, Note_on_c, 1, 54, 115
4, 111585, Note_off_c, 1, 54, 64
4, 111585, Note_off_c, 1, 47, 64
4, 111600, Note_on_c, 1, 54, 115
4, 111600, Note_on_c, 1, 47, 108
4, 111825, Note_off_c, 1, 47, 64
4, 111825, Note_off_c, 1, 54, 64
4, 111840, Note_on_c, 1, 47, 108
4, 111840, Note_on_c, 1, 54, 115
4, 112065, Note_off_c, 1, 54, 64
4, 112065, Note_off_c, 1, 47, 64
4, 112080, Note_on_c, 1, 47, 108
4, 112080, Note_on_c, 1, 54, 115
4, 112305, Note_off_c, 1, 54, 64
4, 112305, Note_off_c, 1, 47, 64
4, 112320, Note_on_c, 1, 54, 115
4, 112320, Note_on_c, 1, 47, 108
4, 112545, Note_off_c, 1, 47, 64
4, 112545, Note_off_c, 1, 54, 64
4, 112560, Note_on_c, 1, 47, 108
4, 112560, Note_on_c, 1, 54, 115
4, 112785, Note_off_c, 1, 54, 64
4, 112785, Note_off_c, 1, 47, 64
4, 112800, Note_on_c, 1, 54, 115
4, 112800, Note_on_c, 1, 47, 108
4, 113025, Note_off_c, 1, 47, 64
4, 113025, Note_off_c, 1, 54, 64
4, 113040, Note_on_c, 1, 47, 108
4, 113040, Note_on_c, 1, 54, 115
4, 113265, Note_off_c, 1, 54, 64
4, 113265, Note_off_c, 1, 47, 64
4, 113280, Control_c, 1, 7, 115
4, 113280, Note_on_c, 1, 40, 115
4, 113985, Note_off_c, 1, 40, 64
4, 114000, Note_on_c, 1, 43, 115
4, 114225, Note_off_c, 1, 43, 64
4, 114240, Note_on_c, 1, 44, 115
4, 114465, Note_off_c, 1, 44, 64
4, 114480, Note_on_c, 1, 47, 115
4, 114705, Note_off_c, 1, 47, 64
4, 114720, Note_on_c, 1, 52, 115
4, 114945, Note_off_c, 1, 52, 64
4, 114960, Note_on_c, 1, 50, 115
4, 115665, Note_off_c, 1, 50, 64
4, 115680, Note_on_c, 1, 47, 115
4, 115905, Note_off_c, 1, 47, 64
4, 115920, Note_on_c, 1, 54, 115
4, 116385, Note_off_c, 1, 54, 64
4, 116400, Note_on_c, 1, 47, 115
4, 116625, Note_off_c, 1, 47, 64
4, 116640, Note_on_c, 1, 50, 115
4, 116865, Note_off_c, 1, 50, 64
4, 116880, Note_on_c, 1, 52, 115
4, 117105, Note_off_c, 1, 52, 64
4, 117120, Note_on_c, 1, 40, 115
4, 117825, Note_off_c, 1, 40, 64
4, 117840, Note_on_c, 1, 43, 115
4, 118065, Note_off_c, 1, 43, 64
4, 118080, Note_on_c, 1, 44, 115
4, 118305, Note_off_c, 1, 44, 64
4, 118320, Note_on_c, 1, 47, 115
4, 118545, Note_off_c, 1, 47, 64
4, 118560, Note_on_c, 1, 52, 115
4, 118785, Note_off_c, 1, 52, 64
4, 118800, Note_on_c, 1, 50, 115
4, 119505, Note_off_c, 1, 50, 64
4, 119520, Note_on_c, 1, 47, 115
4, 119745, Note_off_c, 1, 47, 64
4, 119760, Note_on_c, 1, 54, 115
4, 120225, Note_off_c, 1, 54, 64
4, 120240, Note_on_c, 1, 47, 115
4, 120465, Note_off_c, 1, 47, 64
4, 120480, Note_on_c, 1, 50, 115
4, 120705, Note_off_c, 1, 50, 64
4, 120720, Note_on_c, 1, 52, 115
4, 120945, Note_off_c, 1, 52, 64
4, 120960, Control_c, 1, 7, 107
4, 120960, Note_on_c, 1, 40, 115
4, 121665, Note_off_c, 1, 40, 64
4, 121680, Note_on_c, 1, 43, 115
4, 121905, Note_off_c, 1, 43, 64
4, 121920, Note_on_c, 1, 44, 115
4, 122145, Note_off_c, 1, 44, 64
4, 122160, Note_on_c, 1, 47, 115
4, 122385, Note_off_c, 1, 47, 64
4, 122400, Note_on_c, 1, 52, 115
4, 122625, Note_off_c, 1, 52, 64
4, 122640, Note_on_c, 1, 50, 115
4, 123345, Note_off_c, 1, 50, 64
4, 123360, Note_on_c, 1, 47, 115
4, 123585, Note_off_c, 1, 47, 64
4, 123600, Note_on_c, 1, 54, 115
4, 124065, Note_off_c, 1, 54, 64
4, 124080, Note_on_c, 1, 47, 115
4, 124305, Note_off_c, 1, 47, 64
4, 124320, Note_on_c, 1, 50, 115
4, 124545, Note_off_c, 1, 50, 64
4, 124560, Note_on_c, 1, 52, 115
4, 124785, Note_off_c, 1, 52, 64
4, 124800, Note_on_c, 1, 40, 115
4, 125505, Note_off_c, 1, 40, 64
4, 125520, Note_on_c, 1, 43, 115
4, 125745, Note_off_c, 1, 43, 64
4, 125760, Note_on_c, 1, 44, 115
4, 125985, Note_off_c, 1, 44, 64
4, 126000, Note_on_c, 1, 47, 115
4, 126225, Note_off_c, 1, 47, 64
4, 126240, Note_on_c, 1, 52, 115
4, 126465, Note_off_c, 1, 52, 64
4, 126480, Note_on_c, 1, 50, 115
4, 127185, Note_off_c, 1, 50, 64
4, 127200, Note_on_c, 1, 47, 115
4, 127425, Note_off_c, 1, 47, 64
4, 127440, Note_on_c, 1, 54, 115
4, 127905, Note_off_c, 1, 54, 64
4, 127920, Note_on_c, 1, 47, 115
4, 128145, Note_off_c, 1, 47, 64
4, 128160, Note_on_c, 1, 50, 115
4, 128385, Note_off_c, 1, 50, 64
4, 128400, Note_on_c, 1, 52, 115
4, 128625, Note_off_c, 1, 52, 64
4, 128640, Note_on_c, 1, 45, 115
4, 129345, Note_off_c, 1, 45, 64
4, 129360, Note_on_c, 1, 48, 115
4, 129585, Note_off_c, 1, 48, 64
4, 129600, Note_on_c, 1, 49, 115
4, 129825, Note_off_c, 1, 49, 64
4, 129840, Note_on_c, 1, 52, 115
4, 130065, Note_off_c, 1, 52, 64
4, 130080, Note_on_c, 1, 57, 115
4, 130305, Note_off_c, 1, 57, 64
4, 130320, Note_on_c, 1, 55, 115
4, 131025, Note_off_c, 1, 55, 64
4, 131040, Note_on_c, 1, 52, 115
4, 131265, Note_off_c, 1, 52, 64
4, 131280, Note_on_c, 1, 59, 115
4, 131745, Note_off_c, 1, 59, 64
4, 131760, Note_on_c, 1, 52, 115
4, 131985, Note_off_c, 1, 52, 64
4, 132000, Note_on_c, 1, 55, 115
4, 132225, Note_off_c, 1, 55, 64
4, 132240, Note_on_c, 1, 57, 115
4, 132465, Note_off_c, 1, 57, 64
4, 132480, Note_on_c, 1, 40, 115
4, 133185, Note_off_c, 1, 40, 64
4, 133200, Note_on_c, 1, 43, 115
4, 133425, Note_off_c, 1, 43, 64
4, 133440, Note_on_c, 1, 44, 115
4, 133665, Note_off_c, 1, 44, 64
4, 133680, Note_on_c, 1, 47, 115
4, 133905, Note_off_c, 1, 47, 64
4, 133920, Note_on_c, 1, 52, 115
4, 134145, Note_off_c, 1, 52, 64
4, 134160, Note_on_c, 1, 50, 115
4, 134865, Note_off_c, 1, 50, 64
4, 134880, Note_on_c, 1, 47, 115
4, 135105, Note_off_c, 1, 47, 64
4, 135120, Note_on_c, 1, 54, 115
4, 135585, Note_off_c, 1, 54, 64
4, 135600, Note_on_c, 1, 47, 115
4, 135825, Note_off_c, 1, 47, 64
4, 135840, Note_on_c, 1, 50, 115
4, 136065, Note_off_c, 1, 50, 64
4, 136080, Note_on_c, 1, 52, 115
4, 136305, Note_off_c, 1, 52, 64
4, 136320, Note_on_c, 1, 42, 115
4, 136785, Note_off_c, 1, 42, 64
4, 136800, Note_on_c, 1, 42, 115
4, 137025, Note_off_c, 1, 42, 64
4, 137040, Note_on_c, 1, 42, 115
4, 137265, Note_off_c, 1, 42, 64
4, 137280, Note_on_c, 1, 42, 115
4, 137745, Note_off_c, 1, 42, 64
4, 137760, Note_on_c, 1, 42, 115
4, 137985, Note_off_c, 1, 42, 64
4, 138000, Note_on_c, 1, 42, 115
4, 138225, Note_off_c, 1, 42, 64
4, 138240, Note_on_c, 1, 40, 115
4, 138255, Note_off_c, 1, 40, 64
4, 138270, Note_on_c, 1, 42, 115
4, 138705, Note_off_c, 1, 42, 64
4, 138720, Note_on_c, 1, 40, 115
4, 138735, Note_off_c, 1, 40, 64
4, 138750, Note_on_c, 1, 42, 115
4, 138945, Note_off_c, 1, 42, 64
4, 138960, Note_on_c, 1, 42, 115
4, 139185, Note_off_c, 1, 42, 64
4, 139200, Note_on_c, 1, 40, 115
4, 139305, Note_off_c, 1, 40, 64
4, 139320, Note_on_c, 1, 42, 115
4, 139425, Note_off_c, 1, 42, 64
4, 139440, Note_on_c, 1, 45, 115
4, 139665, Note_off_c, 1, 45, 64
4, 139680, Note_on_c, 1, 42, 115
4, 139905, Note_off_c, 1, 42, 64
4, 139920, Note_on_c, 1, 42, 115
4, 140145, Note_off_c, 1, 42, 64
4, 140160, Note_on_c, 1, 42, 115
4, 140625, Note_off_c, 1, 42, 64
4, 140640, Note_on_c, 1, 42, 115
4, 140865, Note_off_c, 1, 42, 64
4, 140880, Note_on_c, 1, 42, 115
4, 141105, Note_off_c, 1, 42, 64
4, 141360, Note_on_c, 1, 42, 115
4, 141585, Note_off_c, 1, 42, 64
4, 141840, Note_on_c, 1, 40, 115
4, 142065, Note_off_c, 1, 40, 64
4, 142080, Note_on_c, 1, 40, 115
4, 142305, Note_off_c, 1, 40, 64
4, 142320, Note_on_c, 1, 42, 115
4, 142545, Note_off_c, 1, 42, 64
4, 142560, Note_on_c, 1, 42, 115
4, 142785, Note_off_c, 1, 42, 64
4, 142800, Note_on_c, 1, 42, 115
4, 143025, Note_off_c, 1, 42, 64
4, 143040, Note_on_c, 1, 40, 115
4, 143055, Note_off_c, 1, 40, 64
4, 143070, Note_on_c, 1, 42, 115
4, 143265, Note_off_c, 1, 42, 64
4, 143280, Note_on_c, 1, 42, 115
4, 143505, Note_off_c, 1, 42, 64
4, 143520, Note_on_c, 1, 42, 115
4, 143745, Note_off_c, 1, 42, 64
4, 143760, Note_on_c, 1, 42, 115
4, 143985, Note_off_c, 1, 42, 64
4, 144000, Note_on_c, 1, 45, 115
4, 144465, Note_off_c, 1, 45, 64
4, 144480, Note_on_c, 1, 45, 115
4, 144705, Note_off_c, 1, 45, 64
4, 144720, Note_on_c, 1, 45, 115
4, 144945, Note_off_c, 1, 45, 64
4, 145200, Note_on_c, 1, 45, 115
4, 145425, Note_off_c, 1, 45, 64
4, 145680, Note_on_c, 1, 45, 115
4, 145905, Note_off_c, 1, 45, 64
4, 145920, Note_on_c, 1, 44, 115
4, 146385, Note_off_c, 1, 44, 64
4, 146400, Note_on_c, 1, 44, 115
4, 146625, Note_off_c, 1, 44, 64
4, 146640, Note_on_c, 1, 44, 115
4, 146865, Note_off_c, 1, 44, 64
4, 146880, Note_on_c, 1, 51, 115
4, 147345, Note_off_c, 1, 51, 64
4, 147360, Note_on_c, 1, 51, 115
4, 147825, Note_off_c, 1, 51, 64
4, 147840, Note_on_c, 1, 49, 115
4, 148305, Note_off_c, 1, 49, 64
4, 148320, Note_on_c, 1, 49, 115
4, 148785, Note_off_c, 1, 49, 64
4, 148800, Note_on_c, 1, 49, 115
4, 149265, Note_off_c, 1, 49, 64
4, 149280, Note_on_c, 1, 49, 115
4, 149505, Note_off_c, 1, 49, 64
4, 149520, Note_on_c, 1, 49, 115
4, 149745, Note_off_c, 1, 49, 64
4, 149760, Note_on_c, 1, 47, 115
4, 150225, Note_off_c, 1, 47, 64
4, 150240, Note_on_c, 1, 47, 115
4, 150465, Note_off_c, 1, 47, 64
4, 150480, Note_on_c, 1, 47, 115
4, 150705, Note_off_c, 1, 47, 64
4, 150720, Note_on_c, 1, 47, 115
4, 150945, Note_off_c, 1, 47, 64
4, 150960, Note_on_c, 1, 47, 115
4, 151185, Note_off_c, 1, 47, 64
4, 151200, Note_on_c, 1, 47, 115
4, 151425, Note_off_c, 1, 47, 64
4, 151440, Note_on_c, 1, 47, 115
4, 151665, Note_off_c, 1, 47, 64
4, 151680, Control_c, 1, 7, 115
4, 151680, Note_on_c, 1, 40, 115
4, 152385, Note_off_c, 1, 40, 64
4, 152400, Note_on_c, 1, 43, 115
4, 152625, Note_off_c, 1, 43, 64
4, 152640, Note_on_c, 1, 44, 115
4, 152865, Note_off_c, 1, 44, 64
4, 152880, Note_on_c, 1, 47, 115
4, 153105, Note_off_c, 1, 47, 64
4, 153120, Note_on_c, 1, 52, 115
4, 153345, Note_off_c, 1, 52, 64
4, 153360, Note_on_c, 1, 50, 115
4, 154065, Note_off_c, 1, 50, 64
4, 154080, Note_on_c, 1, 47, 115
4, 154305, Note_off_c, 1, 47, 64
4, 154320, Note_on_c, 1, 54, 115
4, 154785, Note_off_c, 1, 54, 64
4, 154800, Note_on_c, 1, 47, 115
4, 155025, Note_off_c, 1, 47, 64
4, 155040, Note_on_c, 1, 50, 115
4, 155265, Note_off_c, 1, 50, 64
4, 155280, Note_on_c, 1, 52, 115
4, 155505, Note_off_c, 1, 52, 64
4, 155520, Note_on_c, 1, 40, 115
4, 156225, Note_off_c, 1, 40, 64
4, 156240, Note_on_c, 1, 43, 115
4, 156465, Note_off_c, 1, 43, 64
4, 156480, Note_on_c, 1, 44, 115
4, 156705, Note_off_c, 1, 44, 64
4, 156720, Note_on_c, 1, 47, 115
4, 156945, Note_off_c, 1, 47, 64
4, 156960, Note_on_c, 1, 52, 115
4, 157185, Note_off_c, 1, 52, 64
4, 157200, Note_on_c, 1, 50, 115
4, 157905, Note_off_c, 1, 50, 64
4, 157920, Note_on_c, 1, 47, 115
4, 158145, Note_off_c, 1, 47, 64
4, 158160, Note_on_c, 1, 54, 115
4, 158625, Note_off_c, 1, 54, 64
4, 158640, Note_on_c, 1, 47, 115
4, 158865, Note_off_c, 1, 47, 64
4, 158880, Note_on_c, 1, 50, 115
4, 159105, Note_off_c, 1, 50, 64
4, 159120, Note_on_c, 1, 52, 115
4, 159345, Note_off_c, 1, 52, 64
4, 159360, Note_on_c, 1, 40, 115
4, 160065, Note_off_c, 1, 40, 64
4, 160080, Note_on_c, 1, 43, 115
4, 160305, Note_off_c, 1, 43, 64
4, 160320, Note_on_c, 1, 44, 115
4, 160545, Note_off_c, 1, 44, 64
4, 160560, Note_on_c, 1, 47, 115
4, 160785, Note_off_c, 1, 47, 64
4, 160800, Note_on_c, 1, 52, 115
4, 161025, Note_off_c, 1, 52, 64
4, 161040, Note_on_c, 1, 50, 115
4, 161745, Note_off_c, 1, 50, 64
4, 161760, Note_on_c, 1, 47, 115
4, 161985, Note_off_c, 1, 47, 64
4, 162000, Note_on_c, 1, 54, 115
4, 162465, Note_off_c, 1, 54, 64
4, 162480, Note_on_c, 1, 47, 115
4, 162705, Note_off_c, 1, 47, 64
4, 162720, Note_on_c, 1, 50, 115
4, 162945, Note_off_c, 1, 50, 64
4, 162960, Note_on_c, 1, 52, 115
4, 163185, Note_off_c, 1, 52, 64
4, 163200, Note_on_c, 1, 40, 115
4, 163905, Note_off_c, 1, 40, 64
4, 163920, Note_on_c, 1, 43, 115
4, 164145, Note_off_c, 1, 43, 64
4, 164160, Note_on_c, 1, 44, 115
4, 164385, Note_off_c, 1, 44, 64
4, 164400, Note_on_c, 1, 47, 115
4, 164625, Note_off_c, 1, 47, 64
4, 164640, Note_on_c, 1, 52, 115
4, 164865, Note_off_c, 1, 52, 64
4, 164880, Note_on_c, 1, 50, 115
4, 165585, Note_off_c, 1, 50, 64
4, 165600, Note_on_c, 1, 47, 115
4, 165825, Note_off_c, 1, 47, 64
4, 165840, Note_on_c, 1, 54, 115
4, 166305, Note_off_c, 1, 54, 64
4, 166320, Note_on_c, 1, 47, 115
4, 166545, Note_off_c, 1, 47, 64
4, 166560, Note_on_c, 1, 50, 115
4, 166785, Note_off_c, 1, 50, 64
4, 166800, Note_on_c, 1, 52, 115
4, 167025, Note_off_c, 1, 52, 64
4, 167040, Note_on_c, 1, 40, 115
4, 167745, Note_off_c, 1, 40, 64
4, 167760, Note_on_c, 1, 43, 115
4, 167985, Note_off_c, 1, 43, 64
4, 168000, Note_on_c, 1, 44, 115
4, 168225, Note_off_c, 1, 44, 64
4, 168240, Note_on_c, 1, 47, 115
4, 168465, Note_off_c, 1, 47, 64
4, 168480, Note_on_c, 1, 52, 115
4, 168705, Note_off_c, 1, 52, 64
4, 168720, Note_on_c, 1, 50, 115
4, 169425, Note_off_c, 1, 50, 64
4, 169440, Note_on_c, 1, 47, 115
4, 169665, Note_off_c, 1, 47, 64
4, 169680, Note_on_c, 1, 54, 115
4, 170145, Note_off_c, 1, 54, 64
4, 170160, Note_on_c, 1, 47, 115
4, 170385, Note_off_c, 1, 47, 64
4, 170400, Note_on_c, 1, 50, 115
4, 170625, Note_off_c, 1, 50, 64
4, 170640, Note_on_c, 1, 52, 115
4, 170865, Note_off_c, 1, 52, 64
4, 170880, Note_on_c, 1, 40, 115
4, 171585, Note_off_c, 1, 40, 64
4, 171600, Note_on_c, 1, 43, 115
4, 171825, Note_off_c, 1, 43, 64
4, 171840, Note_on_c, 1, 44, 115
4, 172065, Note_off_c, 1, 44, 64
4, 172080, Note_on_c, 1, 47, 115
4, 172305, Note_off_c, 1, 47, 64
4, 172320, Note_on_c, 1, 52, 115
4, 172545, Note_off_c, 1, 52, 64
4, 172560, Note_on_c, 1, 50, 115
4, 173265, Note_off_c, 1, 50, 64
4, 173280, Note_on_c, 1, 47, 115
4, 173505, Note_off_c, 1, 47, 64
4, 173520, Note_on_c, 1, 54, 115
4, 173985, Note_off_c, 1, 54, 64
4, 174000, Note_on_c, 1, 47, 115
4, 174225, Note_off_c, 1, 47, 64
4, 174240, Note_on_c, 1, 50, 115
4, 174465, Note_off_c, 1, 50, 64
4, 174480, Note_on_c, 1, 52, 115
4, 174705, Note_off_c, 1, 52, 64
4, 174720, Note_on_c, 1, 40, 115
4, 175425, Note_off_c, 1, 40, 64
4, 175440, Note_on_c, 1, 43, 115
4, 175665, Note_off_c, 1, 43, 64
4, 175680, Note_on_c, 1, 44, 115
4, 175905, Note_off_c, 1, 44, 64
4, 175920, Note_on_c, 1, 47, 115
4, 176145, Note_off_c, 1, 47, 64
4, 176160, Note_on_c, 1, 52, 115
4, 176385, Note_off_c, 1, 52, 64
4, 176400, Note_on_c, 1, 50, 115
4, 177105, Note_off_c, 1, 50, 64
4, 177120, Note_on_c, 1, 47, 115
4, 177345, Note_off_c, 1, 47, 64
4, 177360, Note_on_c, 1, 54, 115
4, 177825, Note_off_c, 1, 54, 64
4, 177840, Note_on_c, 1, 47, 115
4, 178065, Note_off_c, 1, 47, 64
4, 178080, Note_on_c, 1, 50, 115
4, 178305, Note_off_c, 1, 50, 64
4, 178320, Note_on_c, 1, 52, 115
4, 178545, Note_off_c, 1, 52, 64
4, 178560, Note_on_c, 1, 40, 115
4, 179265, Note_off_c, 1, 40, 64
4, 179280, Note_on_c, 1, 43, 115
4, 179505, Note_off_c, 1, 43, 64
4, 179520, Note_on_c, 1, 44, 115
4, 179745, Note_off_c, 1, 44, 64
4, 179760, Note_on_c, 1, 47, 115
4, 179985, Note_off_c, 1, 47, 64
4, 180000, Note_on_c, 1, 52, 115
4, 180225, Note_off_c, 1, 52, 64
4, 180240, Note_on_c, 1, 50, 115
4, 180480, Control_c, 1, 7, 115
4, 180765, Control_c, 1, 7, 114
4, 180945, Note_off_c, 1, 50, 64
4, 180960, Note_on_c, 1, 47, 115
4, 181050, Control_c, 1, 7, 113
4, 181185, Note_off_c, 1, 47, 64
4, 181200, Note_on_c, 1, 54, 115
4, 181330, Control_c, 1, 7, 112
4, 181615, Control_c, 1, 7, 111
4, 181665, Note_off_c, 1, 54, 64
4, 181680, Note_on_c, 1, 47, 115
4, 181900, Control_c, 1, 7, 110
4, 181905, Note_off_c, 1, 47, 64
4, 181920, Note_on_c, 1, 50, 115
4, 182145, Note_off_c, 1, 50, 64
4, 182160, Note_on_c, 1, 52, 115
4, 182185, Control_c, 1, 7, 109
4, 182385, Note_off_c, 1, 52, 64
4, 182400, Note_on_c, 1, 40, 115
4, 182465, Control_c, 1, 7, 108
4, 182750, Control_c, 1, 7, 107
4, 183035, Control_c, 1, 7, 106
4, 183105, Note_off_c, 1, 40, 64
4, 183120, Note_on_c, 1, 43, 115
4, 183320, Control_c, 1, 7, 105
4, 183345, Note_off_c, 1, 43, 64
4, 183360, Note_on_c, 1, 44, 115
4, 183585, Note_off_c, 1, 44, 64
4, 183600, Control_c, 1, 7, 104
4, 183600, Note_on_c, 1, 47, 115
4, 183825, Note_off_c, 1, 47, 64
4, 183840, Note_on_c, 1, 52, 115
4, 183885, Control_c, 1, 7, 103
4, 184065, Note_off_c, 1, 52, 64
4, 184080, Note_on_c, 1, 50, 115
4, 184170, Control_c, 1, 7, 102
4, 184455, Control_c, 1, 7, 101
4, 184735, Control_c, 1, 7, 100
4, 184785, Note_off_c, 1, 50, 64
4, 184800, Note_on_c, 1, 47, 115
4, 185020, Control_c, 1, 7, 99
4, 185025, Note_off_c, 1, 47, 64
4, 185040, Note_on_c, 1, 54, 115
4, 185305, Control_c, 1, 7, 98
4, 185505, Note_off_c, 1, 54, 64
4, 185520, Note_on_c, 1, 47, 115
4, 185590, Control_c, 1, 7, 97
4, 185745, Note_off_c, 1, 47, 64
4, 185760, Note_on_c, 1, 50, 115
4, 185870, Control_c, 1, 7, 96
4, 185985, Note_off_c, 1, 50, 64
4, 186000, Note_on_c, 1, 52, 115
4, 186155, Control_c, 1, 7, 95
4, 186225, Note_off_c, 1, 52, 64
4, 186240, Note_on_c, 1, 40, 115
4, 186440, Control_c, 1, 7, 94
4, 186725, Control_c, 1, 7, 93
4, 186945, Note_off_c, 1, 40, 64
4, 186960, Note_on_c, 1, 43, 115
4, 187005, Control_c, 1, 7, 92
4, 187185, Note_off_c, 1, 43, 64
4, 187200, Note_on_c, 1, 44, 115
4, 187290, Control_c, 1, 7, 91
4, 187425, Note_off_c, 1, 44, 64
4, 187440, Note_on_c, 1, 47, 115
4, 187575, Control_c, 1, 7, 90
4, 187665, Note_off_c, 1, 47, 64
4, 187680, Note_on_c, 1, 52, 115
4, 187860, Control_c, 1, 7, 89
4, 187905, Note_off_c, 1, 52, 64
4, 187920, Note_on_c, 1, 50, 115
4, 188140, Control_c, 1, 7, 88
4, 188425, Control_c, 1, 7, 87
4, 188625, Note_off_c, 1, 50, 64
4, 188640, Note_on_c, 1, 47, 115
4, 188710, Control_c, 1, 7, 86
4, 188865, Note_off_c, 1, 47, 64
4, 188880, Note_on_c, 1, 54, 115
4, 188995, Control_c, 1, 7, 85
4, 189275, Control_c, 1, 7, 84
4, 189345, Note_off_c, 1, 54, 64
4, 189360, Note_on_c, 1, 47, 115
4, 189560, Control_c, 1, 7, 83
4, 189585, Note_off_c, 1, 47, 64
4, 189600, Note_on_c, 1, 50, 115
4, 189825, Note_off_c, 1, 50, 64
4, 189840, Note_on_c, 1, 52, 115
4, 189845, Control_c, 1, 7, 82
4, 190065, Note_off_c, 1, 52, 64
4, 190080, Note_on_c, 1, 40, 115
4, 190130, Control_c, 1, 7, 81
4, 190410, Control_c, 1, 7, 80
4, 190695, Control_c, 1, 7, 79
4, 190785, Note_off_c, 1, 40, 64
4, 190800, Note_on_c, 1, 43, 115
4, 190980, Control_c, 1, 7, 78
4, 191025, Note_off_c, 1, 43, 64
4, 191040, Note_on_c, 1, 44, 115
4, 191265, Note_off_c, 1, 44, 64
4, 191265, Control_c, 1, 7, 77
4, 191280, Note_on_c, 1, 47, 115
4, 191505, Note_off_c, 1, 47, 64
4, 191520, Note_on_c, 1, 52, 115
4, 191550, Control_c, 1, 7, 76
4, 191745, Note_off_c, 1, 52, 64
4, 191760, Note_on_c, 1, 50, 115
4, 191830, Control_c, 1, 7, 75
4, 192115, Control_c, 1, 7, 74
4, 192400, Control_c, 1, 7, 73
4, 192465, Note_off_c, 1, 50, 64
4, 192480, Note_on_c, 1, 47, 115
4, 192685, Control_c, 1, 7, 72
4, 192705, Note_off_c, 1, 47, 64
4, 192720, Note_on_c, 1, 54, 115
4, 192965, Control_c, 1, 7, 71
4, 193185, Note_off_c, 1, 54, 64
4, 193200, Note_on_c, 1, 47, 115
4, 193250, Control_c, 1, 7, 70
4, 193425, Note_off_c, 1, 47, 64
4, 193440, Note_on_c, 1, 50, 115
4, 193535, Control_c, 1, 7, 69
4, 193665, Note_off_c, 1, 50, 64
4, 193680, Note_on_c, 1, 52, 115
4, 193820, Control_c, 1, 7, 68
4, 193905, Note_off_c, 1, 52, 64
4, 193920, Note_on_c, 1, 40, 115
4, 194100, Control_c, 1, 7, 67
4, 194385, Control_c, 1, 7, 66
4, 194625, Note_off_c, 1, 40, 64
4, 194640, Note_on_c, 1, 43, 115
4, 194670, Control_c, 1, 7, 65
4, 194865, Note_off_c, 1, 43, 64
4, 194880, Note_on_c, 1, 44, 115
4, 194955, Control_c, 1, 7, 64
4, 195105, Note_off_c, 1, 44, 64
4, 195120, Note_on_c, 1, 47, 115
4, 195235, Control_c, 1, 7, 63
4, 195345, Note_off_c, 1, 47, 64
4, 195360, Note_on_c, 1, 52, 115
4, 195520, Control_c, 1, 7, 62
4, 195585, Note_off_c, 1, 52, 64
4, 195600, Note_on_c, 1, 50, 115
4, 195805, Control_c, 1, 7, 61
4, 196090, Control_c, 1, 7, 60
4, 196305, Note_off_c, 1, 50, 64
4, 196320, Note_on_c, 1, 47, 115
4, 196370, Control_c, 1, 7, 59
4, 196545, Note_off_c, 1, 47, 64
4, 196560, Note_on_c, 1, 54, 115
4, 196655, Control_c, 1, 7, 58
4, 196940, Control_c, 1, 7, 57
4, 197025, Note_off_c, 1, 54, 64
4, 197040, Note_on_c, 1, 47, 115
4, 197225, Control_c, 1, 7, 56
4, 197265, Note_off_c, 1, 47, 64
4, 197280, Note_on_c, 1, 50, 115
4, 197505, Note_off_c, 1, 50, 64
4, 197505, Control_c, 1, 7, 55
4, 197520, Note_on_c, 1, 52, 115
4, 197745, Note_off_c, 1, 52, 64
4, 197760, Note_on_c, 1, 40, 115
4, 197790, Control_c, 1, 7, 54
4, 198075, Control_c, 1, 7, 53
4, 198360, Control_c, 1, 7, 52
4, 198465, Note_off_c, 1, 40, 64
4, 198480, Note_on_c, 1, 43, 115
4, 198640, Control_c, 1, 7, 51
4, 198705, Note_off_c, 1, 43, 64
4, 198720, Note_on_c, 1, 44, 115
4, 198925, Control_c, 1, 7, 50
4, 198945, Note_off_c, 1, 44, 64
4, 198960, Note_on_c, 1, 47, 115
4, 199185, Note_off_c, 1, 47, 64
4, 199200, Note_on_c, 1, 52, 115
4, 199210, Control_c, 1, 7, 49
4, 199425, Note_off_c, 1, 52, 64
4, 199440, Note_on_c, 1, 50, 115
4, 199495, Control_c, 1, 7, 48
4, 199775, Control_c, 1, 7, 47
4, 200060, Control_c, 1, 7, 46
4, 200145, Note_off_c, 1, 50, 64
4, 200160, Note_on_c, 1, 47, 115
4, 200345, Control_c, 1, 7, 45
4, 200385, Note_off_c, 1, 47, 64
4, 200400, Note_on_c, 1, 54, 115
4, 200630, Control_c, 1, 7, 44
4, 200865, Note_off_c, 1, 54, 64
4, 200880, Note_on_c, 1, 47, 115
4, 200910, Control_c, 1, 7, 43
4, 201105, Note_off_c, 1, 47, 64
4, 201120, Note_on_c, 1, 50, 115
4, 201195, Control_c, 1, 7, 42
4, 201345, Note_off_c, 1, 50, 64
4, 201360, Note_on_c, 1, 52, 115
4, 201480, Control_c, 1, 7, 41
4, 201585, Note_off_c, 1, 52, 64
4, 201600, Note_on_c, 1, 40, 115
4, 201765, Control_c, 1, 7, 40
4, 202045, Control_c, 1, 7, 39
4, 202305, Note_off_c, 1, 40, 64
4, 202320, Note_on_c, 1, 43, 115
4, 202330, Control_c, 1, 7, 38
4, 202545, Note_off_c, 1, 43, 64
4, 202560, Note_on_c, 1, 44, 115
4, 202615, Control_c, 1, 7, 37
4, 202785, Note_off_c, 1, 44, 64
4, 202800, Note_on_c, 1, 47, 115
4, 202900, Control_c, 1, 7, 36
4, 203025, Note_off_c, 1, 47, 64
4, 203040, Note_on_c, 1, 52, 115
4, 203185, Control_c, 1, 7, 35
4, 203265, Note_off_c, 1, 52, 64
4, 203280, Note_on_c, 1, 50, 115
4, 203465, Control_c, 1, 7, 34
4, 203750, Control_c, 1, 7, 33
4, 203985, Note_off_c, 1, 50, 64
4, 204000, Note_on_c, 1, 47, 115
4, 204035, Control_c, 1, 7, 32
4, 204225, Note_off_c, 1, 47, 64
4, 204240, Note_on_c, 1, 54, 115
4, 204320, Control_c, 1, 7, 31
4, 204600, Control_c, 1, 7, 30
4, 204705, Note_off_c, 1, 54, 64
4, 204720, Note_on_c, 1, 47, 115
4, 204885, Control_c, 1, 7, 29
4, 204945, Note_off_c, 1, 47, 64
4, 204960, Note_on_c, 1, 50, 115
4, 205170, Control_c, 1, 7, 28
4, 205185, Note_off_c, 1, 50, 64
4, 205200, Note_on_c, 1, 52, 115
4, 205425, Note_off_c, 1, 52, 64
4, 205440, Note_on_c, 1, 40, 115
4, 205455, Control_c, 1, 7, 27
4, 205735, Control_c, 1, 7, 26
4, 206020, Control_c, 1, 7, 25
4, 206145, Note_off_c, 1, 40, 64
4, 206160, Note_on_c, 1, 43, 115
4, 206305, Control_c, 1, 7, 24
4, 206385, Note_off_c, 1, 43, 64
4, 206400, Note_on_c, 1, 44, 115
4, 206590, Control_c, 1, 7, 23
4, 206625, Note_off_c, 1, 44, 64
4, 206640, Note_on_c, 1, 47, 115
4, 206865, Note_off_c, 1, 47, 64
4, 206870, Control_c, 1, 7, 22
4, 206880, Note_on_c, 1, 52, 115
4, 207105, Note_off_c, 1, 52, 64
4, 207120, Note_on_c, 1, 50, 115
4, 207155, Control_c, 1, 7, 21
4, 207440, Control_c, 1, 7, 20
4, 207725, Control_c, 1, 7, 19
4, 207825, Note_off_c, 1, 50, 64
4, 207840, Note_on_c, 1, 47, 115
4, 208005, Control_c, 1, 7, 18
4, 208065, Note_off_c, 1, 47, 64
4, 208080, Note_on_c, 1, 54, 115
4, 208290, Control_c, 1, 7, 17
4, 208545, Note_off_c, 1, 54, 64
4, 208560, Note_on_c, 1, 47, 115
4, 208575, Control_c, 1, 7, 16
4, 208785, Note_off_c, 1, 47, 64
4, 208800, Note_on_c, 1, 50, 115
4, 208860, Control_c, 1, 7, 15
4, 209025, Note_off_c, 1, 50, 64
4, 209040, Note_on_c, 1, 52, 115
4, 209140, Control_c, 1, 7, 14
4, 209265, Note_off_c, 1, 52, 64
4, 209280, Note_on_c, 1, 40, 115
4, 209425, Control_c, 1, 7, 13
4, 209710, Control_c, 1, 7, 12
4, 209985, Note_off_c, 1, 40, 64
4, 209995, Control_c, 1, 7, 11
4, 210000, Note_on_c, 1, 43, 115
4, 210225, Note_off_c, 1, 43, 64
4, 210240, Note_on_c, 1, 44, 115
4, 210275, Control_c, 1, 7, 10
4, 210465, Note_off_c, 1, 44, 64
4, 210480, Note_on_c, 1, 47, 115
4, 210560, Control_c, 1, 7, 9
4, 210705, Note_off_c, 1, 47, 64
4, 210720, Note_on_c, 1, 52, 115
4, 210845, Control_c, 1, 7, 8
4, 210945, Note_off_c, 1, 52, 64
4, 210960, Note_on_c, 1, 50, 115
4, 211130, Control_c, 1, 7, 7
4, 211410, Control_c, 1, 7, 6
4, 211665, Note_off_c, 1, 50, 64
4, 211680, Note_on_c, 1, 47, 115
4, 211695, Control_c, 1, 7, 5
4, 211905, Note_off_c, 1, 47, 64
4, 211920, Note_on_c, 1, 54, 115
4, 211980, Control_c, 1, 7, 4
4, 212265, Control_c, 1, 7, 3
4, 212385, Note_off_c, 1, 54, 64
4, 212400, Note_on_c, 1, 47, 115
4, 212545, Control_c, 1, 7, 2
4, 212625, Note_off_c, 1, 47, 64
4, 212640, Note_on_c, 1, 50, 115
4, 212830, Control_c, 1, 7, 1
4, 212865, Note_off_c, 1, 50, 64
4, 212880, Note_on_c, 1, 52, 115
4, 213105, Note_off_c, 1, 52, 64
4, 213115, Control_c, 1, 7, 0
4, 213115, End_track
5, 0, Start_track
5, 0, Title_t, "Muted Elect Gtr"
5, 0, MIDI_port, 0
5, 0, Channel_prefix, 2
5, 0, Control_c, 2, 7, 95
5, 0, Control_c, 2, 10, 127
5, 0, Program_c, 2, 28
5, 0, Control_c, 2, 121, 0
5, 0, Control_c, 2, 64, 0
5, 9360, Note_on_c, 2, 59, 100
5, 9485, Note_off_c, 2, 59, 64
5, 10080, Note_on_c, 2, 59, 102
5, 10080, Note_on_c, 2, 52, 110
5, 10260, Note_off_c, 2, 59, 64
5, 10265, Note_off_c, 2, 52, 64
5, 10560, Note_on_c, 2, 40, 78
5, 10745, Note_off_c, 2, 40, 64
5, 10800, Note_on_c, 2, 52, 110
5, 10800, Note_on_c, 2, 59, 102
5, 10920, Note_off_c, 2, 59, 64
5, 10920, Note_off_c, 2, 52, 64
5, 11280, Note_on_c, 2, 52, 107
5, 11280, Note_on_c, 2, 59, 100
5, 11675, Note_off_c, 2, 59, 64
5, 11695, Note_off_c, 2, 52, 64
5, 11760, Note_on_c, 2, 59, 102
5, 11760, Note_on_c, 2, 52, 110
5, 11970, Note_off_c, 2, 59, 64
5, 11980, Note_off_c, 2, 52, 64
5, 12240, Note_on_c, 2, 40, 85
5, 12480, Note_on_c, 2, 52, 105
5, 12480, Note_on_c, 2, 59, 93
5, 12500, Note_off_c, 2, 40, 64
5, 12650, Note_off_c, 2, 59, 64
5, 12660, Note_off_c, 2, 52, 64
5, 12960, Note_on_c, 2, 59, 107
5, 12960, Note_on_c, 2, 52, 107
5, 13135, Note_off_c, 2, 59, 64
5, 13145, Note_off_c, 2, 52, 64
5, 13920, Note_on_c, 2, 59, 102
5, 13920, Note_on_c, 2, 52, 105
5, 14120, Note_off_c, 2, 59, 64
5, 14130, Note_off_c, 2, 52, 64
5, 14640, Note_on_c, 2, 52, 105
5, 14640, Note_on_c, 2, 59, 100
5, 14880, Note_off_c, 2, 59, 64
5, 14905, Note_off_c, 2, 52, 64
5, 15120, Note_on_c, 2, 59, 107
5, 15120, Note_on_c, 2, 52, 107
5, 15475, Note_off_c, 2, 52, 64
5, 15600, Note_on_c, 2, 52, 107
5, 15660, Note_off_c, 2, 59, 64
5, 15840, Note_on_c, 2, 59, 98
5, 15960, Note_off_c, 2, 52, 64
5, 16080, Note_on_c, 2, 52, 80
5, 16320, Note_on_c, 2, 64, 89
5, 16370, Note_off_c, 2, 59, 64
5, 16455, Note_off_c, 2, 52, 64
5, 16560, Note_on_c, 2, 52, 82
5, 16800, Note_on_c, 2, 59, 100
5, 16880, Note_off_c, 2, 64, 64
5, 16900, Note_off_c, 2, 52, 64
5, 17040, Note_on_c, 2, 52, 91
5, 17095, Note_off_c, 2, 59, 64
5, 17160, Note_off_c, 2, 52, 64
5, 17280, Note_on_c, 2, 40, 61
5, 17520, Note_on_c, 2, 59, 113
5, 17520, Note_on_c, 2, 52, 107
5, 17520, Note_on_c, 2, 58, 53
5, 17540, Note_off_c, 2, 58, 64
5, 17540, Note_off_c, 2, 40, 64
5, 17665, Note_off_c, 2, 59, 64
5, 17675, Note_off_c, 2, 52, 64
5, 18000, Note_on_c, 2, 40, 74
5, 18240, Note_on_c, 2, 59, 113
5, 18240, Note_on_c, 2, 52, 116
5, 18345, Note_off_c, 2, 40, 64
5, 18720, Note_off_c, 2, 59, 64
5, 18720, Note_on_c, 2, 40, 87
5, 18730, Note_off_c, 2, 52, 64
5, 18960, Note_on_c, 2, 52, 107
5, 18960, Note_on_c, 2, 59, 105
5, 19080, Note_off_c, 2, 40, 64
5, 19240, Note_off_c, 2, 59, 64
5, 19250, Note_off_c, 2, 52, 64
5, 19440, Note_on_c, 2, 52, 110
5, 19440, Note_on_c, 2, 59, 110
5, 19685, Note_off_c, 2, 52, 64
5, 19690, Note_off_c, 2, 59, 64
5, 19690, Note_on_c, 2, 40, 57
5, 19755, Note_off_c, 2, 40, 64
5, 19920, Note_on_c, 2, 52, 105
5, 19920, Note_on_c, 2, 59, 105
5, 20400, Note_on_c, 2, 40, 102
5, 20420, Note_off_c, 2, 59, 64
5, 20460, Note_off_c, 2, 52, 64
5, 20640, Note_on_c, 2, 52, 105
5, 20720, Note_off_c, 2, 40, 64
5, 20855, Note_off_c, 2, 52, 64
5, 20880, Note_on_c, 2, 52, 74
5, 20880, Note_on_c, 2, 59, 102
5, 21060, Note_off_c, 2, 59, 64
5, 21070, Note_off_c, 2, 52, 64
5, 21360, Note_on_c, 2, 64, 102
5, 21360, Note_on_c, 2, 59, 100
5, 21360, Note_on_c, 2, 52, 100
5, 21490, Note_off_c, 2, 59, 64
5, 21495, Note_off_c, 2, 52, 64
5, 21515, Note_off_c, 2, 64, 64
5, 21840, Note_on_c, 2, 47, 43
5, 21995, Note_off_c, 2, 47, 64
5, 22080, Note_on_c, 2, 64, 95
5, 22080, Note_on_c, 2, 59, 105
5, 22080, Note_on_c, 2, 52, 93
5, 22560, Note_off_c, 2, 52, 64
5, 22560, Note_on_c, 2, 47, 87
5, 22575, Note_off_c, 2, 59, 64
5, 22580, Note_off_c, 2, 64, 64
5, 22800, Note_on_c, 2, 64, 91
5, 22800, Note_on_c, 2, 59, 100
5, 22800, Note_on_c, 2, 52, 91
5, 22840, Note_off_c, 2, 47, 64
5, 23280, Note_off_c, 2, 52, 64
5, 23280, Note_on_c, 2, 47, 35
5, 23305, Note_off_c, 2, 64, 64
5, 23350, Note_off_c, 2, 47, 64
5, 23410, Note_off_c, 2, 59, 64
5, 23520, Note_on_c, 2, 52, 98
5, 23760, Note_on_c, 2, 47, 61
5, 23805, Note_off_c, 2, 52, 64
5, 24000, Note_on_c, 2, 59, 102
5, 24025, Note_off_c, 2, 47, 64
5, 24025, Note_on_c, 2, 52, 43
5, 24050, Note_off_c, 2, 52, 64
5, 24240, Note_off_c, 2, 59, 64
5, 24240, Note_on_c, 2, 47, 63
5, 24480, Note_on_c, 2, 52, 107
5, 24495, Note_off_c, 2, 47, 64
5, 24720, Note_on_c, 2, 59, 87
5, 24845, Note_off_c, 2, 52, 64
5, 24855, Note_off_c, 2, 59, 64
5, 25320, Note_on_c, 2, 40, 60
5, 25420, Note_off_c, 2, 40, 64
5, 25440, Note_on_c, 2, 59, 102
5, 25440, Note_on_c, 2, 52, 110
5, 25700, Note_off_c, 2, 59, 64
5, 25715, Note_off_c, 2, 52, 64
5, 25920, Note_on_c, 2, 40, 52
5, 25985, Note_off_c, 2, 40, 64
5, 26160, Note_on_c, 2, 59, 110
5, 26160, Note_on_c, 2, 52, 107
5, 26375, Note_off_c, 2, 59, 64
5, 26390, Note_off_c, 2, 52, 64
5, 26400, Note_on_c, 2, 40, 47
5, 26470, Note_off_c, 2, 40, 64
5, 26640, Note_on_c, 2, 52, 105
5, 26640, Note_on_c, 2, 59, 100
5, 26880, Note_on_c, 2, 40, 72
5, 27065, Note_off_c, 2, 59, 64
5, 27120, Note_on_c, 2, 64, 107
5, 27150, Note_off_c, 2, 40, 64
5, 27200, Note_off_c, 2, 52, 64
5, 27360, Note_on_c, 2, 59, 93
5, 27600, Note_on_c, 2, 52, 107
5, 27730, Note_off_c, 2, 64, 64
5, 27780, Note_off_c, 2, 59, 64
5, 27840, Note_on_c, 2, 64, 110
5, 28080, Note_on_c, 2, 59, 89
5, 28190, Note_off_c, 2, 52, 64
5, 28320, Note_on_c, 2, 52, 102
5, 28445, Note_off_c, 2, 64, 64
5, 28455, Note_off_c, 2, 59, 64
5, 28530, Note_off_c, 2, 52, 64
5, 28560, Note_on_c, 2, 59, 102
5, 28560, Note_on_c, 2, 52, 102
5, 28730, Note_off_c, 2, 52, 64
5, 28740, Note_off_c, 2, 59, 64
5, 29160, Note_on_c, 2, 45, 60
5, 29260, Note_off_c, 2, 45, 64
5, 29280, Note_on_c, 2, 52, 102
5, 29280, Note_on_c, 2, 45, 110
5, 29540, Note_off_c, 2, 52, 64
5, 29555, Note_off_c, 2, 45, 64
5, 29760, Note_on_c, 2, 45, 52
5, 29825, Note_off_c, 2, 45, 64
5, 30000, Note_on_c, 2, 52, 110
5, 30000, Note_on_c, 2, 45, 107
5, 30215, Note_off_c, 2, 52, 64
5, 30230, Note_off_c, 2, 45, 64
5, 30240, Note_on_c, 2, 45, 47
5, 30310, Note_off_c, 2, 45, 64
5, 30480, Note_on_c, 2, 45, 105
5, 30480, Note_on_c, 2, 52, 100
5, 30905, Note_off_c, 2, 52, 64
5, 30960, Note_on_c, 2, 57, 107
5, 30990, Note_off_c, 2, 45, 64
5, 31200, Note_on_c, 2, 52, 93
5, 31440, Note_on_c, 2, 45, 107
5, 31570, Note_off_c, 2, 57, 64
5, 31620, Note_off_c, 2, 52, 64
5, 31680, Note_on_c, 2, 57, 110
5, 31920, Note_on_c, 2, 52, 89
5, 32030, Note_off_c, 2, 45, 64
5, 32160, Note_on_c, 2, 45, 102
5, 32285, Note_off_c, 2, 57, 64
5, 32295, Note_off_c, 2, 52, 64
5, 32370, Note_off_c, 2, 45, 64
5, 32400, Note_on_c, 2, 52, 102
5, 32400, Note_on_c, 2, 45, 102
5, 32570, Note_off_c, 2, 45, 64
5, 32580, Note_off_c, 2, 52, 64
5, 33000, Note_on_c, 2, 40, 60
5, 33100, Note_off_c, 2, 40, 64
5, 33120, Note_on_c, 2, 59, 102
5, 33120, Note_on_c, 2, 52, 110
5, 33380, Note_off_c, 2, 59, 64
5, 33395, Note_off_c, 2, 52, 64
5, 33600, Note_on_c, 2, 40, 52
5, 33665, Note_off_c, 2, 40, 64
5, 33840, Note_on_c, 2, 59, 110
5, 33840, Note_on_c, 2, 52, 107
5, 34055, Note_off_c, 2, 59, 64
5, 34070, Note_off_c, 2, 52, 64
5, 34080, Note_on_c, 2, 40, 47
5, 34150, Note_off_c, 2, 40, 64
5, 34320, Note_on_c, 2, 52, 105
5, 34320, Note_on_c, 2, 59, 100
5, 34560, Note_on_c, 2, 40, 72
5, 34745, Note_off_c, 2, 59, 64
5, 34800, Note_on_c, 2, 64, 107
5, 34830, Note_off_c, 2, 40, 64
5, 34880, Note_off_c, 2, 52, 64
5, 35040, Note_on_c, 2, 59, 93
5, 35280, Note_on_c, 2, 52, 107
5, 35410, Note_off_c, 2, 64, 64
5, 35460, Note_off_c, 2, 59, 64
5, 35520, Note_on_c, 2, 64, 110
5, 35760, Note_on_c, 2, 59, 89
5, 35870, Note_off_c, 2, 52, 64
5, 36000, Note_on_c, 2, 52, 102
5, 36125, Note_off_c, 2, 64, 64
5, 36135, Note_off_c, 2, 59, 64
5, 36210, Note_off_c, 2, 52, 64
5, 36240, Note_on_c, 2, 59, 102
5, 36240, Note_on_c, 2, 52, 102
5, 36410, Note_off_c, 2, 52, 64
5, 36420, Note_off_c, 2, 59, 64
5, 36480, Note_on_c, 2, 42, 64
5, 36480, Note_on_c, 2, 54, 102
5, 36480, Note_on_c, 2, 49, 100
5, 36480, Note_on_c, 2, 42, 107
5, 36485, Note_off_c, 2, 42, 64
5, 36665, Note_off_c, 2, 49, 64
5, 36680, Note_off_c, 2, 54, 64
5, 36680, Note_off_c, 2, 42, 64
5, 36960, Note_on_c, 2, 42, 57
5, 37040, Note_off_c, 2, 42, 64
5, 37200, Note_on_c, 2, 49, 95
5, 37200, Note_on_c, 2, 54, 100
5, 37200, Note_on_c, 2, 42, 105
5, 37405, Note_off_c, 2, 42, 64
5, 37405, Note_off_c, 2, 54, 64
5, 37405, Note_off_c, 2, 49, 64
5, 37680, Note_on_c, 2, 49, 102
5, 37680, Note_on_c, 2, 54, 105
5, 37680, Note_on_c, 2, 42, 102
5, 37870, Note_off_c, 2, 54, 64
5, 37885, Note_off_c, 2, 49, 64
5, 37940, Note_off_c, 2, 42, 64
5, 38160, Note_on_c, 2, 49, 93
5, 38160, Note_on_c, 2, 42, 87
5, 38160, Note_on_c, 2, 54, 98
5, 38670, Note_off_c, 2, 42, 64
5, 38670, Note_off_c, 2, 49, 64
5, 38680, Note_off_c, 2, 54, 64
5, 38880, Note_on_c, 2, 42, 100
5, 38880, Note_on_c, 2, 49, 34
5, 38920, Note_off_c, 2, 49, 64
5, 39150, Note_off_c, 2, 42, 64
5, 39360, Note_on_c, 2, 54, 102
5, 39360, Note_on_c, 2, 42, 110
5, 39360, Note_on_c, 2, 49, 105
5, 39365, Note_off_c, 2, 42, 64
5, 39600, Note_off_c, 2, 49, 64
5, 39605, Note_off_c, 2, 54, 64
5, 39605, Note_on_c, 2, 42, 66
5, 39615, Note_off_c, 2, 42, 64
5, 39840, Note_on_c, 2, 42, 102
5, 39885, Note_off_c, 2, 42, 64
5, 40080, Note_on_c, 2, 49, 100
5, 40205, Note_off_c, 2, 49, 64
5, 40320, Note_on_c, 2, 42, 61
5, 40560, Note_on_c, 2, 49, 113
5, 40560, Note_on_c, 2, 48, 53
5, 40580, Note_off_c, 2, 48, 64
5, 40580, Note_off_c, 2, 42, 64
5, 40705, Note_off_c, 2, 49, 64
5, 41040, Note_on_c, 2, 42, 74
5, 41280, Note_on_c, 2, 49, 113
5, 41385, Note_off_c, 2, 42, 64
5, 41760, Note_off_c, 2, 49, 64
5, 41760, Note_on_c, 2, 42, 87
5, 41770, Note_off_c, 2, 42, 64
5, 42000, Note_on_c, 2, 42, 107
5, 42000, Note_on_c, 2, 49, 105
5, 42120, Note_off_c, 2, 42, 64
5, 42280, Note_off_c, 2, 49, 64
5, 42480, Note_on_c, 2, 42, 110
5, 42480, Note_on_c, 2, 49, 110
5, 42725, Note_off_c, 2, 42, 64
5, 42730, Note_off_c, 2, 49, 64
5, 42730, Note_on_c, 2, 42, 57
5, 42795, Note_off_c, 2, 42, 64
5, 42960, Note_on_c, 2, 42, 105
5, 42960, Note_on_c, 2, 49, 105
5, 43460, Note_off_c, 2, 49, 64
5, 43500, Note_off_c, 2, 42, 64
5, 43680, Note_on_c, 2, 42, 105
5, 43760, Note_off_c, 2, 42, 64
5, 43920, Note_on_c, 2, 42, 74
5, 43920, Note_on_c, 2, 49, 102
5, 44100, Note_off_c, 2, 49, 64
5, 44110, Note_off_c, 2, 42, 64
5, 44160, Note_on_c, 2, 45, 70
5, 44400, Note_on_c, 2, 52, 91
5, 44555, Note_off_c, 2, 52, 64
5, 44565, Note_off_c, 2, 45, 64
5, 44880, Note_on_c, 2, 45, 89
5, 45120, Note_on_c, 2, 57, 100
5, 45360, Note_on_c, 2, 52, 89
5, 45435, Note_off_c, 2, 45, 64
5, 45600, Note_on_c, 2, 45, 102
5, 45680, Note_off_c, 2, 52, 64
5, 45840, Note_on_c, 2, 52, 98
5, 45860, Note_off_c, 2, 57, 64
5, 46020, Note_off_c, 2, 52, 64
5, 46060, Note_off_c, 2, 45, 64
5, 46080, Note_on_c, 2, 44, 56
5, 46320, Note_on_c, 2, 51, 107
5, 46500, Note_off_c, 2, 51, 64
5, 46515, Note_off_c, 2, 44, 64
5, 46800, Note_on_c, 2, 44, 66
5, 47040, Note_on_c, 2, 51, 110
5, 47845, Note_off_c, 2, 51, 64
5, 47865, Note_off_c, 2, 44, 64
5, 48000, Note_on_c, 2, 37, 56
5, 48240, Note_on_c, 2, 49, 110
5, 48240, Note_on_c, 2, 56, 107
5, 48420, Note_off_c, 2, 56, 64
5, 48435, Note_off_c, 2, 49, 64
5, 48560, Note_off_c, 2, 37, 64
5, 48720, Note_on_c, 2, 37, 66
5, 48960, Note_on_c, 2, 49, 110
5, 48960, Note_on_c, 2, 56, 110
5, 49765, Note_off_c, 2, 56, 64
5, 49785, Note_off_c, 2, 49, 64
5, 49830, Note_off_c, 2, 37, 64
5, 50160, Note_on_c, 2, 54, 98
5, 50160, Note_on_c, 2, 47, 107
5, 50160, Note_on_c, 2, 53, 52
5, 50180, Note_off_c, 2, 53, 64
5, 50260, Note_off_c, 2, 47, 64
5, 50295, Note_off_c, 2, 54, 64
5, 50640, Note_on_c, 2, 35, 89
5, 50880, Note_on_c, 2, 47, 107
5, 50880, Note_on_c, 2, 54, 110
5, 50925, Note_off_c, 2, 35, 64
5, 51620, Note_off_c, 2, 54, 64
5, 51625, Note_off_c, 2, 47, 64
5, 55680, Note_on_c, 2, 40, 64
5, 55680, Note_on_c, 2, 64, 102
5, 55680, Note_on_c, 2, 59, 100
5, 55680, Note_on_c, 2, 52, 107
5, 55685, Note_off_c, 2, 40, 64
5, 55865, Note_off_c, 2, 59, 64
5, 55880, Note_off_c, 2, 64, 64
5, 55880, Note_off_c, 2, 52, 64
5, 56160, Note_on_c, 2, 40, 57
5, 56240, Note_off_c, 2, 40, 64
5, 56400, Note_on_c, 2, 59, 95
5, 56400, Note_on_c, 2, 64, 100
5, 56400, Note_on_c, 2, 52, 105
5, 56605, Note_off_c, 2, 52, 64
5, 56605, Note_off_c, 2, 64, 64
5, 56605, Note_off_c, 2, 59, 64
5, 56880, Note_on_c, 2, 59, 102
5, 56880, Note_on_c, 2, 64, 105
5, 56880, Note_on_c, 2, 52, 102
5, 57070, Note_off_c, 2, 64, 64
5, 57085, Note_off_c, 2, 59, 64
5, 57120, Note_on_c, 2, 40, 78
5, 57140, Note_off_c, 2, 52, 64
5, 57195, Note_off_c, 2, 40, 64
5, 57360, Note_on_c, 2, 59, 93
5, 57360, Note_on_c, 2, 52, 87
5, 57360, Note_on_c, 2, 64, 98
5, 57840, Note_on_c, 2, 40, 82
5, 57870, Note_off_c, 2, 52, 64
5, 57870, Note_off_c, 2, 59, 64
5, 57880, Note_off_c, 2, 64, 64
5, 58040, Note_off_c, 2, 40, 64
5, 58080, Note_on_c, 2, 52, 100
5, 58080, Note_on_c, 2, 59, 34
5, 58120, Note_off_c, 2, 59, 64
5, 58320, Note_on_c, 2, 40, 85
5, 58350, Note_off_c, 2, 52, 64
5, 58560, Note_on_c, 2, 64, 102
5, 58560, Note_on_c, 2, 52, 110
5, 58560, Note_on_c, 2, 59, 105
5, 58565, Note_off_c, 2, 40, 64
5, 58800, Note_off_c, 2, 59, 64
5, 58805, Note_off_c, 2, 64, 64
5, 58805, Note_on_c, 2, 40, 66
5, 58820, Note_off_c, 2, 52, 64
5, 59040, Note_on_c, 2, 52, 102
5, 59085, Note_off_c, 2, 40, 64
5, 59280, Note_on_c, 2, 59, 100
5, 59405, Note_off_c, 2, 59, 64
5, 59450, Note_off_c, 2, 52, 64
5, 59760, Note_on_c, 2, 64, 102
5, 59760, Note_on_c, 2, 59, 100
5, 59760, Note_on_c, 2, 52, 100
5, 59890, Note_off_c, 2, 59, 64
5, 59895, Note_off_c, 2, 52, 64
5, 59915, Note_off_c, 2, 64, 64
5, 60240, Note_on_c, 2, 47, 43
5, 60395, Note_off_c, 2, 47, 64
5, 60480, Note_on_c, 2, 64, 95
5, 60480, Note_on_c, 2, 59, 105
5, 60480, Note_on_c, 2, 52, 93
5, 60960, Note_off_c, 2, 52, 64
5, 60960, Note_on_c, 2, 47, 87
5, 60975, Note_off_c, 2, 59, 64
5, 60980, Note_off_c, 2, 64, 64
5, 61200, Note_on_c, 2, 64, 91
5, 61200, Note_on_c, 2, 59, 100
5, 61200, Note_on_c, 2, 52, 91
5, 61240, Note_off_c, 2, 47, 64
5, 61680, Note_off_c, 2, 52, 64
5, 61680, Note_on_c, 2, 47, 35
5, 61705, Note_off_c, 2, 64, 64
5, 61750, Note_off_c, 2, 47, 64
5, 61810, Note_off_c, 2, 59, 64
5, 61920, Note_on_c, 2, 52, 98
5, 62160, Note_on_c, 2, 47, 61
5, 62205, Note_off_c, 2, 52, 64
5, 62400, Note_on_c, 2, 59, 102
5, 62425, Note_off_c, 2, 47, 64
5, 62425, Note_on_c, 2, 52, 43
5, 62450, Note_off_c, 2, 52, 64
5, 62640, Note_off_c, 2, 59, 64
5, 62640, Note_on_c, 2, 47, 63
5, 62880, Note_on_c, 2, 52, 107
5, 62895, Note_off_c, 2, 47, 64
5, 63120, Note_on_c, 2, 59, 87
5, 63245, Note_off_c, 2, 52, 64
5, 63255, Note_off_c, 2, 59, 64
5, 63600, Note_on_c, 2, 64, 102
5, 63600, Note_on_c, 2, 59, 100
5, 63600, Note_on_c, 2, 52, 100
5, 63730, Note_off_c, 2, 59, 64
5, 63735, Note_off_c, 2, 52, 64
5, 63755, Note_off_c, 2, 64, 64
5, 64080, Note_on_c, 2, 47, 43
5, 64235, Note_off_c, 2, 47, 64
5, 64320, Note_on_c, 2, 64, 95
5, 64320, Note_on_c, 2, 59, 105
5, 64320, Note_on_c, 2, 52, 93
5, 64800, Note_off_c, 2, 52, 64
5, 64800, Note_on_c, 2, 47, 87
5, 64815, Note_off_c, 2, 59, 64
5, 64820, Note_off_c, 2, 64, 64
5, 65040, Note_on_c, 2, 64, 91
5, 65040, Note_on_c, 2, 59, 100
5, 65040, Note_on_c, 2, 52, 91
5, 65080, Note_off_c, 2, 47, 64
5, 65520, Note_off_c, 2, 52, 64
5, 65520, Note_on_c, 2, 47, 35
5, 65545, Note_off_c, 2, 64, 64
5, 65590, Note_off_c, 2, 47, 64
5, 65650, Note_off_c, 2, 59, 64
5, 65760, Note_on_c, 2, 52, 98
5, 66000, Note_on_c, 2, 47, 61
5, 66045, Note_off_c, 2, 52, 64
5, 66240, Note_on_c, 2, 59, 102
5, 66265, Note_off_c, 2, 47, 64
5, 66265, Note_on_c, 2, 52, 43
5, 66290, Note_off_c, 2, 52, 64
5, 66480, Note_off_c, 2, 59, 64
5, 66480, Note_on_c, 2, 47, 63
5, 66720, Note_on_c, 2, 52, 107
5, 66735, Note_off_c, 2, 47, 64
5, 66960, Note_on_c, 2, 59, 87
5, 67085, Note_off_c, 2, 52, 64
5, 67095, Note_off_c, 2, 59, 64
5, 67200, Note_on_c, 2, 45, 64
5, 67200, Note_on_c, 2, 57, 102
5, 67200, Note_on_c, 2, 52, 100
5, 67200, Note_on_c, 2, 45, 107
5, 67205, Note_off_c, 2, 45, 64
5, 67385, Note_off_c, 2, 52, 64
5, 67400, Note_off_c, 2, 57, 64
5, 67400, Note_off_c, 2, 45, 64
5, 67680, Note_on_c, 2, 45, 57
5, 67760, Note_off_c, 2, 45, 64
5, 67920, Note_on_c, 2, 52, 95
5, 67920, Note_on_c, 2, 57, 100
5, 67920, Note_on_c, 2, 45, 105
5, 68125, Note_off_c, 2, 45, 64
5, 68125, Note_off_c, 2, 57, 64
5, 68125, Note_off_c, 2, 52, 64
5, 68400, Note_on_c, 2, 52, 102
5, 68400, Note_on_c, 2, 57, 105
5, 68400, Note_on_c, 2, 45, 102
5, 68590, Note_off_c, 2, 57, 64
5, 68605, Note_off_c, 2, 52, 64
5, 68660, Note_off_c, 2, 45, 64
5, 68880, Note_on_c, 2, 52, 93
5, 68880, Note_on_c, 2, 45, 87
5, 68880, Note_on_c, 2, 57, 98
5, 69390, Note_off_c, 2, 45, 64
5, 69390, Note_off_c, 2, 52, 64
5, 69400, Note_off_c, 2, 57, 64
5, 69600, Note_on_c, 2, 45, 100
5, 69600, Note_on_c, 2, 52, 34
5, 69640, Note_off_c, 2, 52, 64
5, 69870, Note_off_c, 2, 45, 64
5, 70080, Note_on_c, 2, 57, 102
5, 70080, Note_on_c, 2, 45, 110
5, 70080, Note_on_c, 2, 52, 105
5, 70085, Note_off_c, 2, 45, 64
5, 70320, Note_off_c, 2, 52, 64
5, 70325, Note_off_c, 2, 57, 64
5, 70325, Note_on_c, 2, 45, 66
5, 70335, Note_off_c, 2, 45, 64
5, 70560, Note_on_c, 2, 45, 102
5, 70605, Note_off_c, 2, 45, 64
5, 70800, Note_on_c, 2, 52, 100
5, 70925, Note_off_c, 2, 52, 64
5, 71520, Note_on_c, 2, 59, 102
5, 71520, Note_on_c, 2, 52, 110
5, 71700, Note_off_c, 2, 59, 64
5, 71705, Note_off_c, 2, 52, 64
5, 72000, Note_on_c, 2, 40, 78
5, 72185, Note_off_c, 2, 40, 64
5, 72240, Note_on_c, 2, 52, 110
5, 72240, Note_on_c, 2, 59, 102
5, 72360, Note_off_c, 2, 59, 64
5, 72360, Note_off_c, 2, 52, 64
5, 72720, Note_on_c, 2, 52, 107
5, 72720, Note_on_c, 2, 59, 100
5, 73115, Note_off_c, 2, 59, 64
5, 73135, Note_off_c, 2, 52, 64
5, 73200, Note_on_c, 2, 59, 102
5, 73200, Note_on_c, 2, 52, 110
5, 73410, Note_off_c, 2, 59, 64
5, 73420, Note_off_c, 2, 52, 64
5, 73680, Note_on_c, 2, 40, 85
5, 73920, Note_on_c, 2, 52, 105
5, 73920, Note_on_c, 2, 59, 93
5, 73940, Note_off_c, 2, 40, 64
5, 74090, Note_off_c, 2, 59, 64
5, 74100, Note_off_c, 2, 52, 64
5, 74400, Note_on_c, 2, 59, 107
5, 74400, Note_on_c, 2, 52, 107
5, 74575, Note_off_c, 2, 59, 64
5, 74585, Note_off_c, 2, 52, 64
5, 75360, Note_on_c, 2, 49, 102
5, 75360, Note_on_c, 2, 42, 107
5, 75630, Note_off_c, 2, 42, 64
5, 75630, Note_off_c, 2, 49, 64
5, 75840, Note_on_c, 2, 42, 62
5, 76080, Note_on_c, 2, 49, 102
5, 76095, Note_off_c, 2, 42, 64
5, 76380, Note_off_c, 2, 49, 64
5, 76560, Note_on_c, 2, 42, 110
5, 76560, Note_on_c, 2, 49, 105
5, 76845, Note_off_c, 2, 42, 64
5, 76865, Note_off_c, 2, 49, 64
5, 77040, Note_on_c, 2, 49, 105
5, 77040, Note_on_c, 2, 42, 107
5, 77380, Note_off_c, 2, 42, 64
5, 77380, Note_off_c, 2, 49, 64
5, 77520, Note_on_c, 2, 42, 95
5, 77760, Note_on_c, 2, 49, 98
5, 77780, Note_off_c, 2, 42, 64
5, 78000, Note_on_c, 2, 42, 100
5, 78085, Note_off_c, 2, 42, 64
5, 78140, Note_off_c, 2, 49, 64
5, 78240, Note_on_c, 2, 42, 105
5, 78240, Note_on_c, 2, 49, 70
5, 78285, Note_off_c, 2, 49, 64
5, 78310, Note_off_c, 2, 42, 64
5, 78480, Note_on_c, 2, 49, 105
5, 78635, Note_off_c, 2, 49, 64
5, 79200, Note_on_c, 2, 49, 102
5, 79200, Note_on_c, 2, 42, 105
5, 79400, Note_off_c, 2, 49, 64
5, 79410, Note_off_c, 2, 42, 64
5, 79920, Note_on_c, 2, 42, 105
5, 79920, Note_on_c, 2, 49, 100
5, 80160, Note_off_c, 2, 49, 64
5, 80185, Note_off_c, 2, 42, 64
5, 80400, Note_on_c, 2, 49, 107
5, 80400, Note_on_c, 2, 42, 107
5, 80755, Note_off_c, 2, 42, 64
5, 80880, Note_on_c, 2, 42, 107
5, 80940, Note_off_c, 2, 49, 64
5, 81120, Note_on_c, 2, 49, 98
5, 81240, Note_off_c, 2, 42, 64
5, 81360, Note_on_c, 2, 42, 80
5, 81600, Note_on_c, 2, 54, 89
5, 81650, Note_off_c, 2, 49, 64
5, 81735, Note_off_c, 2, 42, 64
5, 81840, Note_on_c, 2, 42, 82
5, 82080, Note_on_c, 2, 49, 100
5, 82160, Note_off_c, 2, 54, 64
5, 82180, Note_off_c, 2, 42, 64
5, 82320, Note_on_c, 2, 42, 91
5, 82375, Note_off_c, 2, 49, 64
5, 82440, Note_off_c, 2, 42, 64
5, 82800, Note_on_c, 2, 52, 98
5, 82800, Note_on_c, 2, 45, 107
5, 82800, Note_on_c, 2, 51, 52
5, 82820, Note_off_c, 2, 51, 64
5, 82900, Note_off_c, 2, 45, 64
5, 82935, Note_off_c, 2, 52, 64
5, 83280, Note_on_c, 2, 45, 89
5, 83520, Note_on_c, 2, 52, 110
5, 83565, Note_off_c, 2, 45, 64
5, 84260, Note_off_c, 2, 52, 64
5, 84480, Note_on_c, 2, 44, 56
5, 84720, Note_on_c, 2, 51, 107
5, 84900, Note_off_c, 2, 51, 64
5, 84915, Note_off_c, 2, 44, 64
5, 85200, Note_on_c, 2, 44, 66
5, 85440, Note_on_c, 2, 51, 110
5, 86245, Note_off_c, 2, 51, 64
5, 86265, Note_off_c, 2, 44, 64
5, 86400, Note_on_c, 2, 37, 63
5, 86505, Note_off_c, 2, 37, 64
5, 86640, Note_on_c, 2, 56, 100
5, 86640, Note_on_c, 2, 49, 107
5, 86770, Note_off_c, 2, 49, 64
5, 86800, Note_off_c, 2, 56, 64
5, 87120, Note_on_c, 2, 37, 80
5, 87360, Note_on_c, 2, 56, 105
5, 87360, Note_on_c, 2, 49, 110
5, 87435, Note_off_c, 2, 37, 64
5, 87600, Note_on_c, 2, 37, 95
5, 87670, Note_off_c, 2, 49, 64
5, 87840, Note_off_c, 2, 56, 64
5, 87840, Note_on_c, 2, 49, 100
5, 87840, Note_on_c, 2, 56, 38
5, 87870, Note_off_c, 2, 56, 64
5, 88015, Note_off_c, 2, 37, 64
5, 88080, Note_on_c, 2, 56, 100
5, 88210, Note_off_c, 2, 56, 64
5, 88280, Note_off_c, 2, 49, 64
5, 88320, Note_on_c, 2, 35, 56
5, 88560, Note_on_c, 2, 47, 110
5, 88560, Note_on_c, 2, 54, 107
5, 88740, Note_off_c, 2, 54, 64
5, 88755, Note_off_c, 2, 47, 64
5, 88880, Note_off_c, 2, 35, 64
5, 89040, Note_on_c, 2, 35, 66
5, 89280, Note_on_c, 2, 47, 110
5, 89280, Note_on_c, 2, 54, 110
5, 90085, Note_off_c, 2, 54, 64
5, 90105, Note_off_c, 2, 47, 64
5, 90150, Note_off_c, 2, 35, 64
5, 90240, Note_on_c, 2, 54, 110
5, 90240, Note_on_c, 2, 47, 102
5, 90240, Note_on_c, 2, 53, 68
5, 90270, Note_off_c, 2, 53, 64
5, 90480, Note_on_c, 2, 35, 87
5, 90490, Note_off_c, 2, 54, 64
5, 90500, Note_off_c, 2, 47, 64
5, 90720, Note_on_c, 2, 54, 68
5, 90720, Note_on_c, 2, 47, 63
5, 90755, Note_off_c, 2, 35, 64
5, 90780, Note_off_c, 2, 54, 64
5, 90780, Note_off_c, 2, 47, 64
5, 90960, Note_on_c, 2, 47, 113
5, 90960, Note_on_c, 2, 54, 113
5, 91440, Note_on_c, 2, 35, 102
5, 91570, Note_off_c, 2, 47, 64
5, 91595, Note_off_c, 2, 54, 64
5, 91680, Note_on_c, 2, 47, 100
5, 91760, Note_off_c, 2, 47, 64
5, 91920, Note_on_c, 2, 54, 110
5, 91920, Note_on_c, 2, 47, 110
5, 92250, Note_off_c, 2, 35, 64
5, 92400, Note_on_c, 2, 35, 91
5, 92430, Note_off_c, 2, 54, 64
5, 92440, Note_off_c, 2, 47, 64
5, 92640, Note_on_c, 2, 47, 95
5, 92640, Note_on_c, 2, 54, 95
5, 92725, Note_off_c, 2, 54, 64
5, 92725, Note_off_c, 2, 47, 64
5, 92880, Note_on_c, 2, 47, 105
5, 92880, Note_on_c, 2, 54, 102
5, 92970, Note_off_c, 2, 54, 64
5, 92970, Note_off_c, 2, 47, 64
5, 93120, Note_on_c, 2, 47, 98
5, 93120, Note_on_c, 2, 54, 98
5, 93200, Note_off_c, 2, 54, 64
5, 93200, Note_off_c, 2, 47, 64
5, 93360, Note_on_c, 2, 47, 105
5, 93360, Note_on_c, 2, 54, 107
5, 93440, Note_off_c, 2, 47, 64
5, 93450, Note_off_c, 2, 54, 64
5, 93600, Note_on_c, 2, 47, 105
5, 93600, Note_on_c, 2, 54, 102
5, 93710, Note_off_c, 2, 54, 64
5, 93710, Note_off_c, 2, 47, 64
5, 93840, Note_on_c, 2, 54, 105
5, 93840, Note_on_c, 2, 47, 105
5, 93945, Note_off_c, 2, 47, 64
5, 93950, Note_off_c, 2, 54, 64
5, 93995, Note_off_c, 2, 35, 64
5, 94080, Note_on_c, 2, 35, 76
5, 94320, Note_on_c, 2, 54, 105
5, 94320, Note_on_c, 2, 47, 110
5, 94405, Note_off_c, 2, 47, 64
5, 94440, Note_off_c, 2, 54, 64
5, 94650, Note_off_c, 2, 35, 64
5, 94800, Note_on_c, 2, 35, 93
5, 95040, Note_on_c, 2, 47, 107
5, 95040, Note_on_c, 2, 54, 110
5, 95650, Note_off_c, 2, 35, 64
5, 95760, Note_on_c, 2, 35, 93
5, 95940, Note_off_c, 2, 54, 64
5, 96000, Note_on_c, 2, 59, 110
5, 96085, Note_off_c, 2, 47, 64
5, 96240, Note_on_c, 2, 47, 105
5, 96480, Note_on_c, 2, 54, 82
5, 96550, Note_off_c, 2, 59, 64
5, 96720, Note_on_c, 2, 59, 105
5, 96775, Note_off_c, 2, 54, 64
5, 97120, Note_off_c, 2, 35, 64
5, 97200, Note_on_c, 2, 35, 98
5, 97200, Note_on_c, 2, 42, 58
5, 97250, Note_off_c, 2, 42, 64
5, 97300, Note_off_c, 2, 47, 64
5, 97440, Note_on_c, 2, 47, 100
5, 97670, Note_off_c, 2, 59, 64
5, 97680, Note_on_c, 2, 54, 102
5, 97880, Note_off_c, 2, 54, 64
5, 97900, Note_off_c, 2, 35, 64
5, 97915, Note_off_c, 2, 47, 64
5, 98160, Note_on_c, 2, 35, 89
5, 98400, Note_on_c, 2, 47, 107
5, 98555, Note_off_c, 2, 35, 64
5, 98640, Note_on_c, 2, 35, 76
5, 98880, Note_on_c, 2, 54, 107
5, 99055, Note_off_c, 2, 35, 64
5, 99120, Note_on_c, 2, 35, 98
5, 99200, Note_off_c, 2, 47, 64
5, 99360, Note_on_c, 2, 47, 100
5, 99360, Note_on_c, 2, 56, 34
5, 99385, Note_off_c, 2, 56, 64
5, 99450, Note_off_c, 2, 54, 64
5, 99600, Note_on_c, 2, 54, 102
5, 99985, Note_off_c, 2, 47, 64
5, 99985, Note_off_c, 2, 54, 64
5, 100080, Note_on_c, 2, 59, 98
5, 100080, Note_on_c, 2, 47, 105
5, 100080, Note_on_c, 2, 54, 102
5, 100220, Note_off_c, 2, 54, 64
5, 100220, Note_off_c, 2, 47, 64
5, 100240, Note_off_c, 2, 59, 64
5, 100290, Note_off_c, 2, 35, 64
5, 100560, Note_on_c, 2, 35, 93
5, 100800, Note_on_c, 2, 54, 105
5, 100800, Note_on_c, 2, 47, 110
5, 100980, Note_off_c, 2, 35, 64
5, 101040, Note_on_c, 2, 35, 85
5, 101220, Note_off_c, 2, 47, 64
5, 101240, Note_off_c, 2, 54, 64
5, 101280, Note_on_c, 2, 59, 91
5, 101280, Note_on_c, 2, 47, 98
5, 101280, Note_on_c, 2, 54, 63
5, 101320, Note_off_c, 2, 54, 64
5, 101610, Note_off_c, 2, 35, 64
5, 101620, Note_off_c, 2, 59, 64
5, 101640, Note_off_c, 2, 47, 64
5, 102000, Note_on_c, 2, 35, 89
5, 102240, Note_on_c, 2, 47, 107
5, 102395, Note_off_c, 2, 35, 64
5, 102480, Note_on_c, 2, 35, 76
5, 102720, Note_on_c, 2, 54, 107
5, 102895, Note_off_c, 2, 35, 64
5, 102960, Note_on_c, 2, 35, 98
5, 103040, Note_off_c, 2, 47, 64
5, 103200, Note_on_c, 2, 47, 100
5, 103200, Note_on_c, 2, 56, 34
5, 103225, Note_off_c, 2, 56, 64
5, 103290, Note_off_c, 2, 54, 64
5, 103440, Note_on_c, 2, 54, 102
5, 103825, Note_off_c, 2, 47, 64
5, 103825, Note_off_c, 2, 54, 64
5, 103920, Note_on_c, 2, 59, 98
5, 103920, Note_on_c, 2, 47, 105
5, 103920, Note_on_c, 2, 54, 102
5, 104060, Note_off_c, 2, 54, 64
5, 104060, Note_off_c, 2, 47, 64
5, 104080, Note_off_c, 2, 59, 64
5, 104130, Note_off_c, 2, 35, 64
5, 104400, Note_on_c, 2, 35, 93
5, 104640, Note_on_c, 2, 54, 105
5, 104640, Note_on_c, 2, 47, 110
5, 104820, Note_off_c, 2, 35, 64
5, 104880, Note_on_c, 2, 35, 85
5, 105060, Note_off_c, 2, 47, 64
5, 105080, Note_off_c, 2, 54, 64
5, 105120, Note_on_c, 2, 59, 91
5, 105120, Note_on_c, 2, 47, 98
5, 105120, Note_on_c, 2, 54, 63
5, 105160, Note_off_c, 2, 54, 64
5, 105450, Note_off_c, 2, 35, 64
5, 105460, Note_off_c, 2, 59, 64
5, 105480, Note_off_c, 2, 47, 64
5, 105600, Note_on_c, 2, 35, 62
5, 105840, Note_on_c, 2, 59, 100
5, 105840, Note_on_c, 2, 54, 100
5, 105840, Note_on_c, 2, 47, 110
5, 105920, Note_off_c, 2, 47, 64
5, 105940, Note_off_c, 2, 54, 64
5, 105950, Note_off_c, 2, 59, 64
5, 106000, Note_off_c, 2, 35, 64
5, 106320, Note_on_c, 2, 35, 76
5, 106560, Note_on_c, 2, 47, 105
5, 106560, Note_on_c, 2, 59, 105
5, 106560, Note_on_c, 2, 54, 102
5, 106675, Note_off_c, 2, 35, 64
5, 106800, Note_on_c, 2, 35, 89
5, 106835, Note_off_c, 2, 47, 64
5, 106840, Note_off_c, 2, 54, 64
5, 106865, Note_off_c, 2, 59, 64
5, 107040, Note_on_c, 2, 47, 55
5, 107095, Note_off_c, 2, 47, 64
5, 107265, Note_off_c, 2, 35, 64
5, 107280, Note_on_c, 2, 59, 102
5, 107280, Note_on_c, 2, 54, 102
5, 107280, Note_on_c, 2, 47, 107
5, 107460, Note_off_c, 2, 47, 64
5, 107460, Note_off_c, 2, 54, 64
5, 107465, Note_off_c, 2, 59, 64
5, 107520, Note_on_c, 2, 35, 61
5, 107760, Note_on_c, 2, 54, 113
5, 107760, Note_on_c, 2, 47, 107
5, 107760, Note_on_c, 2, 53, 53
5, 107780, Note_off_c, 2, 53, 64
5, 107780, Note_off_c, 2, 35, 64
5, 107905, Note_off_c, 2, 54, 64
5, 107915, Note_off_c, 2, 47, 64
5, 108240, Note_on_c, 2, 35, 74
5, 108480, Note_on_c, 2, 54, 113
5, 108480, Note_on_c, 2, 47, 116
5, 108585, Note_off_c, 2, 35, 64
5, 108960, Note_off_c, 2, 54, 64
5, 108960, Note_on_c, 2, 35, 87
5, 108970, Note_off_c, 2, 47, 64
5, 109200, Note_on_c, 2, 47, 107
5, 109200, Note_on_c, 2, 54, 105
5, 109320, Note_off_c, 2, 35, 64
5, 109480, Note_off_c, 2, 54, 64
5, 109490, Note_off_c, 2, 47, 64
5, 109680, Note_on_c, 2, 47, 110
5, 109680, Note_on_c, 2, 54, 110
5, 109925, Note_off_c, 2, 47, 64
5, 109930, Note_off_c, 2, 54, 64
5, 109930, Note_on_c, 2, 35, 57
5, 109995, Note_off_c, 2, 35, 64
5, 110160, Note_on_c, 2, 47, 105
5, 110160, Note_on_c, 2, 54, 105
5, 110640, Note_on_c, 2, 35, 102
5, 110660, Note_off_c, 2, 54, 64
5, 110700, Note_off_c, 2, 47, 64
5, 110880, Note_on_c, 2, 47, 105
5, 110960, Note_off_c, 2, 35, 64
5, 111095, Note_off_c, 2, 47, 64
5, 111120, Note_on_c, 2, 47, 74
5, 111120, Note_on_c, 2, 54, 102
5, 111300, Note_off_c, 2, 54, 64
5, 111310, Note_off_c, 2, 47, 64
5, 111360, Note_on_c, 2, 35, 70
5, 111600, Note_on_c, 2, 54, 91
5, 111600, Note_on_c, 2, 47, 93
5, 111755, Note_off_c, 2, 54, 64
5, 111765, Note_off_c, 2, 47, 64
5, 111960, Note_off_c, 2, 35, 64
5, 112080, Note_on_c, 2, 35, 89
5, 112320, Note_on_c, 2, 47, 107
5, 112320, Note_on_c, 2, 59, 100
5, 112560, Note_on_c, 2, 54, 89
5, 112635, Note_off_c, 2, 47, 64
5, 112800, Note_on_c, 2, 47, 102
5, 112880, Note_off_c, 2, 54, 64
5, 113040, Note_on_c, 2, 54, 98
5, 113060, Note_off_c, 2, 59, 64
5, 113220, Note_off_c, 2, 54, 64
5, 113260, Note_off_c, 2, 47, 64
5, 113280, Note_off_c, 2, 35, 64
5, 117120, Note_on_c, 2, 40, 64
5, 117120, Note_on_c, 2, 64, 102
5, 117120, Note_on_c, 2, 59, 100
5, 117120, Note_on_c, 2, 52, 107
5, 117125, Note_off_c, 2, 40, 64
5, 117305, Note_off_c, 2, 59, 64
5, 117320, Note_off_c, 2, 64, 64
5, 117320, Note_off_c, 2, 52, 64
5, 117600, Note_on_c, 2, 40, 57
5, 117680, Note_off_c, 2, 40, 64
5, 117840, Note_on_c, 2, 59, 95
5, 117840, Note_on_c, 2, 64, 100
5, 117840, Note_on_c, 2, 52, 105
5, 118045, Note_off_c, 2, 52, 64
5, 118045, Note_off_c, 2, 64, 64
5, 118045, Note_off_c, 2, 59, 64
5, 118320, Note_on_c, 2, 59, 102
5, 118320, Note_on_c, 2, 64, 105
5, 118320, Note_on_c, 2, 52, 102
5, 118510, Note_off_c, 2, 64, 64
5, 118525, Note_off_c, 2, 59, 64
5, 118560, Note_on_c, 2, 40, 78
5, 118580, Note_off_c, 2, 52, 64
5, 118635, Note_off_c, 2, 40, 64
5, 118800, Note_on_c, 2, 59, 93
5, 118800, Note_on_c, 2, 52, 87
5, 118800, Note_on_c, 2, 64, 98
5, 119280, Note_on_c, 2, 40, 82
5, 119310, Note_off_c, 2, 52, 64
5, 119310, Note_off_c, 2, 59, 64
5, 119320, Note_off_c, 2, 64, 64
5, 119480, Note_off_c, 2, 40, 64
5, 119520, Note_on_c, 2, 52, 100
5, 119520, Note_on_c, 2, 59, 34
5, 119560, Note_off_c, 2, 59, 64
5, 119760, Note_on_c, 2, 40, 85
5, 119790, Note_off_c, 2, 52, 64
5, 120000, Note_on_c, 2, 64, 102
5, 120000, Note_on_c, 2, 52, 110
5, 120000, Note_on_c, 2, 59, 105
5, 120005, Note_off_c, 2, 40, 64
5, 120240, Note_off_c, 2, 59, 64
5, 120245, Note_off_c, 2, 64, 64
5, 120245, Note_on_c, 2, 40, 66
5, 120260, Note_off_c, 2, 52, 64
5, 120480, Note_on_c, 2, 52, 102
5, 120525, Note_off_c, 2, 40, 64
5, 120720, Note_on_c, 2, 59, 100
5, 120845, Note_off_c, 2, 59, 64
5, 120890, Note_off_c, 2, 52, 64
5, 120960, Note_on_c, 2, 40, 61
5, 121200, Note_on_c, 2, 59, 113
5, 121200, Note_on_c, 2, 52, 107
5, 121200, Note_on_c, 2, 58, 53
5, 121220, Note_off_c, 2, 58, 64
5, 121220, Note_off_c, 2, 40, 64
5, 121345, Note_off_c, 2, 59, 64
5, 121355, Note_off_c, 2, 52, 64
5, 121680, Note_on_c, 2, 40, 74
5, 121920, Note_on_c, 2, 59, 113
5, 121920, Note_on_c, 2, 52, 116
5, 122025, Note_off_c, 2, 40, 64
5, 122400, Note_off_c, 2, 59, 64
5, 122400, Note_on_c, 2, 40, 87
5, 122410, Note_off_c, 2, 52, 64
5, 122640, Note_on_c, 2, 52, 107
5, 122640, Note_on_c, 2, 59, 105
5, 122760, Note_off_c, 2, 40, 64
5, 122920, Note_off_c, 2, 59, 64
5, 122930, Note_off_c, 2, 52, 64
5, 123120, Note_on_c, 2, 52, 110
5, 123120, Note_on_c, 2, 59, 110
5, 123365, Note_off_c, 2, 52, 64
5, 123370, Note_off_c, 2, 59, 64
5, 123370, Note_on_c, 2, 40, 57
5, 123435, Note_off_c, 2, 40, 64
5, 123600, Note_on_c, 2, 52, 105
5, 123600, Note_on_c, 2, 59, 105
5, 124080, Note_on_c, 2, 40, 102
5, 124100, Note_off_c, 2, 59, 64
5, 124140, Note_off_c, 2, 52, 64
5, 124320, Note_on_c, 2, 52, 105
5, 124400, Note_off_c, 2, 40, 64
5, 124535, Note_off_c, 2, 52, 64
5, 124560, Note_on_c, 2, 52, 74
5, 124560, Note_on_c, 2, 59, 102
5, 124740, Note_off_c, 2, 59, 64
5, 124750, Note_off_c, 2, 52, 64
5, 125280, Note_on_c, 2, 59, 102
5, 125280, Note_on_c, 2, 52, 107
5, 125550, Note_off_c, 2, 52, 64
5, 125550, Note_off_c, 2, 59, 64
5, 125760, Note_on_c, 2, 40, 62
5, 126000, Note_on_c, 2, 59, 102
5, 126000, Note_on_c, 2, 52, 107
5, 126015, Note_off_c, 2, 40, 64
5, 126280, Note_off_c, 2, 52, 64
5, 126300, Note_off_c, 2, 59, 64
5, 126480, Note_on_c, 2, 52, 110
5, 126480, Note_on_c, 2, 59, 105
5, 126765, Note_off_c, 2, 52, 64
5, 126785, Note_off_c, 2, 59, 64
5, 126960, Note_on_c, 2, 59, 105
5, 126960, Note_on_c, 2, 52, 107
5, 127300, Note_off_c, 2, 52, 64
5, 127300, Note_off_c, 2, 59, 64
5, 127440, Note_on_c, 2, 40, 95
5, 127680, Note_on_c, 2, 59, 98
5, 127680, Note_on_c, 2, 52, 105
5, 127700, Note_off_c, 2, 40, 64
5, 127920, Note_on_c, 2, 40, 100
5, 128005, Note_off_c, 2, 52, 64
5, 128060, Note_off_c, 2, 59, 64
5, 128160, Note_on_c, 2, 52, 105
5, 128160, Note_on_c, 2, 59, 70
5, 128205, Note_off_c, 2, 59, 64
5, 128230, Note_off_c, 2, 40, 64
5, 128400, Note_on_c, 2, 59, 105
5, 128555, Note_off_c, 2, 59, 64
5, 128600, Note_off_c, 2, 52, 64
5, 129120, Note_on_c, 2, 52, 102
5, 129120, Note_on_c, 2, 45, 110
5, 129300, Note_off_c, 2, 52, 64
5, 129305, Note_off_c, 2, 45, 64
5, 129600, Note_on_c, 2, 45, 78
5, 129785, Note_off_c, 2, 45, 64
5, 129840, Note_on_c, 2, 45, 110
5, 129840, Note_on_c, 2, 52, 102
5, 129960, Note_off_c, 2, 52, 64
5, 129960, Note_off_c, 2, 45, 64
5, 130320, Note_on_c, 2, 45, 107
5, 130320, Note_on_c, 2, 52, 100
5, 130715, Note_off_c, 2, 52, 64
5, 130735, Note_off_c, 2, 45, 64
5, 130800, Note_on_c, 2, 52, 102
5, 130800, Note_on_c, 2, 45, 110
5, 131010, Note_off_c, 2, 52, 64
5, 131020, Note_off_c, 2, 45, 64
5, 131280, Note_on_c, 2, 45, 85
5, 131520, Note_on_c, 2, 52, 93
5, 131540, Note_off_c, 2, 45, 64
5, 131690, Note_off_c, 2, 52, 64
5, 132000, Note_on_c, 2, 52, 107
5, 132000, Note_on_c, 2, 45, 107
5, 132175, Note_off_c, 2, 52, 64
5, 132185, Note_off_c, 2, 45, 64
5, 132480, Note_on_c, 2, 40, 61
5, 132720, Note_on_c, 2, 59, 113
5, 132720, Note_on_c, 2, 52, 107
5, 132720, Note_on_c, 2, 58, 53
5, 132740, Note_off_c, 2, 58, 64
5, 132740, Note_off_c, 2, 40, 64
5, 132865, Note_off_c, 2, 59, 64
5, 132875, Note_off_c, 2, 52, 64
5, 133200, Note_on_c, 2, 40, 74
5, 133440, Note_on_c, 2, 59, 113
5, 133440, Note_on_c, 2, 52, 116
5, 133545, Note_off_c, 2, 40, 64
5, 133920, Note_off_c, 2, 59, 64
5, 133920, Note_on_c, 2, 40, 87
5, 133930, Note_off_c, 2, 52, 64
5, 134160, Note_on_c, 2, 52, 107
5, 134160, Note_on_c, 2, 59, 105
5, 134280, Note_off_c, 2, 40, 64
5, 134440, Note_off_c, 2, 59, 64
5, 134450, Note_off_c, 2, 52, 64
5, 134640, Note_on_c, 2, 52, 110
5, 134640, Note_on_c, 2, 59, 110
5, 134885, Note_off_c, 2, 52, 64
5, 134890, Note_off_c, 2, 59, 64
5, 134890, Note_on_c, 2, 40, 57
5, 134955, Note_off_c, 2, 40, 64
5, 135120, Note_on_c, 2, 52, 105
5, 135120, Note_on_c, 2, 59, 105
5, 135600, Note_on_c, 2, 40, 102
5, 135620, Note_off_c, 2, 59, 64
5, 135660, Note_off_c, 2, 52, 64
5, 135840, Note_on_c, 2, 52, 105
5, 135920, Note_off_c, 2, 40, 64
5, 136055, Note_off_c, 2, 52, 64
5, 136080, Note_on_c, 2, 52, 74
5, 136080, Note_on_c, 2, 59, 102
5, 136260, Note_off_c, 2, 59, 64
5, 136270, Note_off_c, 2, 52, 64
5, 136320, Note_on_c, 2, 42, 61
5, 136560, Note_on_c, 2, 49, 113
5, 136560, Note_on_c, 2, 48, 53
5, 136580, Note_off_c, 2, 48, 64
5, 136580, Note_off_c, 2, 42, 64
5, 136705, Note_off_c, 2, 49, 64
5, 137040, Note_on_c, 2, 42, 74
5, 137280, Note_on_c, 2, 49, 113
5, 137385, Note_off_c, 2, 42, 64
5, 137760, Note_off_c, 2, 49, 64
5, 137760, Note_on_c, 2, 42, 87
5, 137770, Note_off_c, 2, 42, 64
5, 138000, Note_on_c, 2, 42, 107
5, 138000, Note_on_c, 2, 49, 105
5, 138120, Note_off_c, 2, 42, 64
5, 138280, Note_off_c, 2, 49, 64
5, 138480, Note_on_c, 2, 42, 110
5, 138480, Note_on_c, 2, 49, 110
5, 138725, Note_off_c, 2, 42, 64
5, 138730, Note_off_c, 2, 49, 64
5, 138730, Note_on_c, 2, 42, 57
5, 138795, Note_off_c, 2, 42, 64
5, 138960, Note_on_c, 2, 42, 105
5, 138960, Note_on_c, 2, 49, 105
5, 139460, Note_off_c, 2, 49, 64
5, 139500, Note_off_c, 2, 42, 64
5, 139680, Note_on_c, 2, 42, 105
5, 139760, Note_off_c, 2, 42, 64
5, 139920, Note_on_c, 2, 42, 74
5, 139920, Note_on_c, 2, 49, 102
5, 140100, Note_off_c, 2, 49, 64
5, 140110, Note_off_c, 2, 42, 64
5, 140160, Note_on_c, 2, 42, 61
5, 140400, Note_on_c, 2, 49, 113
5, 140400, Note_on_c, 2, 48, 53
5, 140420, Note_off_c, 2, 48, 64
5, 140420, Note_off_c, 2, 42, 64
5, 140545, Note_off_c, 2, 49, 64
5, 140880, Note_on_c, 2, 42, 74
5, 141120, Note_on_c, 2, 49, 113
5, 141225, Note_off_c, 2, 42, 64
5, 141600, Note_off_c, 2, 49, 64
5, 141600, Note_on_c, 2, 42, 87
5, 141610, Note_off_c, 2, 42, 64
5, 141840, Note_on_c, 2, 42, 107
5, 141840, Note_on_c, 2, 49, 105
5, 141960, Note_off_c, 2, 42, 64
5, 142120, Note_off_c, 2, 49, 64
5, 142320, Note_on_c, 2, 42, 110
5, 142320, Note_on_c, 2, 49, 110
5, 142565, Note_off_c, 2, 42, 64
5, 142570, Note_off_c, 2, 49, 64
5, 142570, Note_on_c, 2, 42, 57
5, 142635, Note_off_c, 2, 42, 64
5, 142800, Note_on_c, 2, 42, 105
5, 142800, Note_on_c, 2, 49, 105
5, 143300, Note_off_c, 2, 49, 64
5, 143340, Note_off_c, 2, 42, 64
5, 143520, Note_on_c, 2, 42, 105
5, 143600, Note_off_c, 2, 42, 64
5, 143760, Note_on_c, 2, 42, 74
5, 143760, Note_on_c, 2, 49, 102
5, 143940, Note_off_c, 2, 49, 64
5, 143950, Note_off_c, 2, 42, 64
5, 144000, Note_on_c, 2, 45, 63
5, 144105, Note_off_c, 2, 45, 64
5, 144240, Note_on_c, 2, 52, 100
5, 144240, Note_on_c, 2, 45, 107
5, 144370, Note_off_c, 2, 45, 64
5, 144400, Note_off_c, 2, 52, 64
5, 144720, Note_on_c, 2, 45, 80
5, 144960, Note_on_c, 2, 52, 105
5, 145035, Note_off_c, 2, 45, 64
5, 145200, Note_on_c, 2, 45, 95
5, 145270, Note_off_c, 2, 45, 64
5, 145440, Note_off_c, 2, 52, 64
5, 145440, Note_on_c, 2, 45, 100
5, 145440, Note_on_c, 2, 52, 38
5, 145470, Note_off_c, 2, 52, 64
5, 145615, Note_off_c, 2, 45, 64
5, 145680, Note_on_c, 2, 52, 100
5, 145810, Note_off_c, 2, 52, 64
5, 145920, Note_on_c, 2, 44, 70
5, 146160, Note_on_c, 2, 51, 91
5, 146315, Note_off_c, 2, 51, 64
5, 146325, Note_off_c, 2, 44, 64
5, 146640, Note_on_c, 2, 44, 89
5, 146880, Note_on_c, 2, 56, 100
5, 147120, Note_on_c, 2, 51, 89
5, 147195, Note_off_c, 2, 44, 64
5, 147360, Note_on_c, 2, 44, 102
5, 147440, Note_off_c, 2, 51, 64
5, 147600, Note_on_c, 2, 51, 98
5, 147620, Note_off_c, 2, 56, 64
5, 147780, Note_off_c, 2, 51, 64
5, 147820, Note_off_c, 2, 44, 64
5, 147840, Note_on_c, 2, 37, 63
5, 147945, Note_off_c, 2, 37, 64
5, 148080, Note_on_c, 2, 56, 100
5, 148080, Note_on_c, 2, 49, 107
5, 148210, Note_off_c, 2, 49, 64
5, 148240, Note_off_c, 2, 56, 64
5, 148560, Note_on_c, 2, 37, 80
5, 148800, Note_on_c, 2, 56, 105
5, 148800, Note_on_c, 2, 49, 110
5, 148875, Note_off_c, 2, 37, 64
5, 149040, Note_on_c, 2, 37, 95
5, 149110, Note_off_c, 2, 49, 64
5, 149280, Note_off_c, 2, 56, 64
5, 149280, Note_on_c, 2, 49, 100
5, 149280, Note_on_c, 2, 56, 38
5, 149310, Note_off_c, 2, 56, 64
5, 149455, Note_off_c, 2, 37, 64
5, 149520, Note_on_c, 2, 56, 100
5, 149650, Note_off_c, 2, 56, 64
5, 149720, Note_off_c, 2, 49, 64
5, 149760, Note_on_c, 2, 35, 63
5, 149865, Note_off_c, 2, 35, 64
5, 150000, Note_on_c, 2, 54, 100
5, 150000, Note_on_c, 2, 47, 107
5, 150130, Note_off_c, 2, 47, 64
5, 150160, Note_off_c, 2, 54, 64
5, 150480, Note_on_c, 2, 35, 80
5, 150720, Note_on_c, 2, 54, 105
5, 150720, Note_on_c, 2, 47, 110
5, 150795, Note_off_c, 2, 35, 64
5, 150960, Note_on_c, 2, 35, 95
5, 151030, Note_off_c, 2, 47, 64
5, 151200, Note_off_c, 2, 54, 64
5, 151200, Note_on_c, 2, 47, 100
5, 151200, Note_on_c, 2, 54, 38
5, 151230, Note_off_c, 2, 54, 64
5, 151375, Note_off_c, 2, 35, 64
5, 151440, Note_on_c, 2, 54, 100
5, 151570, Note_off_c, 2, 54, 64
5, 151640, Note_off_c, 2, 47, 64
5, 151680, Note_on_c, 2, 59, 110
5, 151680, Note_on_c, 2, 52, 102
5, 151680, Note_on_c, 2, 58, 68
5, 151710, Note_off_c, 2, 58, 64
5, 151930, Note_off_c, 2, 59, 64
5, 151940, Note_off_c, 2, 52, 64
5, 159360, Note_on_c, 2, 40, 48
5, 159415, Note_off_c, 2, 40, 64
5, 159600, Note_on_c, 2, 59, 107
5, 159600, Note_on_c, 2, 52, 105
5, 159695, Note_off_c, 2, 52, 64
5, 159710, Note_off_c, 2, 59, 64
5, 159840, Note_on_c, 2, 52, 100
5, 159840, Note_on_c, 2, 59, 102
5, 159840, Note_on_c, 2, 54, 55
5, 159855, Note_off_c, 2, 54, 64
5, 160080, Note_on_c, 2, 40, 91
5, 160130, Note_off_c, 2, 59, 64
5, 160170, Note_off_c, 2, 52, 64
5, 160320, Note_on_c, 2, 59, 87
5, 160320, Note_on_c, 2, 52, 76
5, 160390, Note_off_c, 2, 52, 64
5, 160395, Note_off_c, 2, 59, 64
5, 160560, Note_on_c, 2, 52, 107
5, 160560, Note_on_c, 2, 59, 107
5, 160615, Note_off_c, 2, 40, 64
5, 160800, Note_on_c, 2, 40, 80
5, 160855, Note_off_c, 2, 59, 64
5, 160860, Note_off_c, 2, 52, 64
5, 161040, Note_on_c, 2, 59, 107
5, 161040, Note_on_c, 2, 52, 107
5, 161405, Note_off_c, 2, 40, 64
5, 161520, Note_on_c, 2, 40, 87
5, 161600, Note_off_c, 2, 52, 64
5, 161670, Note_off_c, 2, 59, 64
5, 161760, Note_on_c, 2, 52, 105
5, 161760, Note_on_c, 2, 59, 57
5, 161800, Note_off_c, 2, 59, 64
5, 162000, Note_on_c, 2, 59, 98
5, 162175, Note_off_c, 2, 52, 64
5, 162240, Note_off_c, 2, 59, 64
5, 162240, Note_on_c, 2, 64, 91
5, 162240, Note_on_c, 2, 52, 68
5, 162240, Note_on_c, 2, 59, 38
5, 162285, Note_off_c, 2, 59, 64
5, 162285, Note_off_c, 2, 52, 64
5, 162480, Note_on_c, 2, 52, 105
5, 162720, Note_on_c, 2, 59, 95
5, 162745, Note_off_c, 2, 64, 64
5, 162840, Note_off_c, 2, 52, 64
5, 162960, Note_off_c, 2, 40, 64
5, 162960, Note_on_c, 2, 52, 105
5, 163040, Note_off_c, 2, 59, 64
5, 163115, Note_off_c, 2, 52, 64
5, 163200, Note_on_c, 2, 40, 48
5, 163255, Note_off_c, 2, 40, 64
5, 163440, Note_on_c, 2, 59, 107
5, 163440, Note_on_c, 2, 52, 105
5, 163535, Note_off_c, 2, 52, 64
5, 163550, Note_off_c, 2, 59, 64
5, 163680, Note_on_c, 2, 52, 100
5, 163680, Note_on_c, 2, 59, 102
5, 163680, Note_on_c, 2, 54, 55
5, 163695, Note_off_c, 2, 54, 64
5, 163920, Note_on_c, 2, 40, 91
5, 163970, Note_off_c, 2, 59, 64
5, 164010, Note_off_c, 2, 52, 64
5, 164160, Note_on_c, 2, 59, 87
5, 164160, Note_on_c, 2, 52, 76
5, 164230, Note_off_c, 2, 52, 64
5, 164235, Note_off_c, 2, 59, 64
5, 164400, Note_on_c, 2, 52, 107
5, 164400, Note_on_c, 2, 59, 107
5, 164455, Note_off_c, 2, 40, 64
5, 164640, Note_on_c, 2, 40, 80
5, 164695, Note_off_c, 2, 59, 64
5, 164700, Note_off_c, 2, 52, 64
5, 164880, Note_on_c, 2, 59, 107
5, 164880, Note_on_c, 2, 52, 107
5, 165245, Note_off_c, 2, 40, 64
5, 165360, Note_on_c, 2, 40, 87
5, 165440, Note_off_c, 2, 52, 64
5, 165510, Note_off_c, 2, 59, 64
5, 165600, Note_on_c, 2, 52, 105
5, 165600, Note_on_c, 2, 59, 57
5, 165640, Note_off_c, 2, 59, 64
5, 165840, Note_on_c, 2, 59, 98
5, 166015, Note_off_c, 2, 52, 64
5, 166080, Note_off_c, 2, 59, 64
5, 166080, Note_on_c, 2, 64, 91
5, 166080, Note_on_c, 2, 52, 68
5, 166080, Note_on_c, 2, 59, 38
5, 166125, Note_off_c, 2, 59, 64
5, 166125, Note_off_c, 2, 52, 64
5, 166320, Note_on_c, 2, 52, 105
5, 166560, Note_on_c, 2, 59, 95
5, 166585, Note_off_c, 2, 64, 64
5, 166680, Note_off_c, 2, 52, 64
5, 166800, Note_off_c, 2, 40, 64
5, 166800, Note_on_c, 2, 52, 105
5, 166880, Note_off_c, 2, 59, 64
5, 166955, Note_off_c, 2, 52, 64
5, 167280, Note_on_c, 2, 40, 89
5, 167520, Note_on_c, 2, 52, 107
5, 167675, Note_off_c, 2, 40, 64
5, 167760, Note_on_c, 2, 40, 76
5, 168000, Note_on_c, 2, 59, 107
5, 168175, Note_off_c, 2, 40, 64
5, 168240, Note_on_c, 2, 40, 98
5, 168320, Note_off_c, 2, 52, 64
5, 168480, Note_on_c, 2, 52, 100
5, 168480, Note_on_c, 2, 61, 34
5, 168505, Note_off_c, 2, 61, 64
5, 168570, Note_off_c, 2, 59, 64
5, 168720, Note_on_c, 2, 59, 102
5, 169105, Note_off_c, 2, 52, 64
5, 169105, Note_off_c, 2, 59, 64
5, 169200, Note_on_c, 2, 64, 98
5, 169200, Note_on_c, 2, 52, 105
5, 169200, Note_on_c, 2, 59, 102
5, 169340, Note_off_c, 2, 59, 64
5, 169340, Note_off_c, 2, 52, 64
5, 169360, Note_off_c, 2, 64, 64
5, 169410, Note_off_c, 2, 40, 64
5, 169680, Note_on_c, 2, 40, 93
5, 169920, Note_on_c, 2, 59, 105
5, 169920, Note_on_c, 2, 52, 110
5, 170100, Note_off_c, 2, 40, 64
5, 170160, Note_on_c, 2, 40, 85
5, 170340, Note_off_c, 2, 52, 64
5, 170360, Note_off_c, 2, 59, 64
5, 170400, Note_on_c, 2, 64, 91
5, 170400, Note_on_c, 2, 52, 98
5, 170400, Note_on_c, 2, 59, 63
5, 170440, Note_off_c, 2, 59, 64
5, 170730, Note_off_c, 2, 40, 64
5, 170740, Note_off_c, 2, 64, 64
5, 170760, Note_off_c, 2, 52, 64
5, 170880, Note_on_c, 2, 59, 110
5, 170880, Note_on_c, 2, 52, 102
5, 170880, Note_on_c, 2, 58, 68
5, 170910, Note_off_c, 2, 58, 64
5, 171120, Note_on_c, 2, 40, 87
5, 171130, Note_off_c, 2, 59, 64
5, 171140, Note_off_c, 2, 52, 64
5, 171360, Note_on_c, 2, 59, 68
5, 171360, Note_on_c, 2, 52, 63
5, 171395, Note_off_c, 2, 40, 64
5, 171420, Note_off_c, 2, 59, 64
5, 171420, Note_off_c, 2, 52, 64
5, 171600, Note_on_c, 2, 52, 113
5, 171600, Note_on_c, 2, 59, 113
5, 172080, Note_on_c, 2, 40, 102
5, 172210, Note_off_c, 2, 52, 64
5, 172235, Note_off_c, 2, 59, 64
5, 172320, Note_on_c, 2, 52, 100
5, 172400, Note_off_c, 2, 52, 64
5, 172560, Note_on_c, 2, 59, 110
5, 172560, Note_on_c, 2, 52, 110
5, 172890, Note_off_c, 2, 40, 64
5, 173040, Note_on_c, 2, 40, 91
5, 173070, Note_off_c, 2, 59, 64
5, 173080, Note_off_c, 2, 52, 64
5, 173280, Note_on_c, 2, 52, 95
5, 173280, Note_on_c, 2, 59, 95
5, 173365, Note_off_c, 2, 59, 64
5, 173365, Note_off_c, 2, 52, 64
5, 173520, Note_on_c, 2, 52, 105
5, 173520, Note_on_c, 2, 59, 102
5, 173610, Note_off_c, 2, 59, 64
5, 173610, Note_off_c, 2, 52, 64
5, 173760, Note_on_c, 2, 52, 98
5, 173760, Note_on_c, 2, 59, 98
5, 173840, Note_off_c, 2, 59, 64
5, 173840, Note_off_c, 2, 52, 64
5, 174000, Note_on_c, 2, 52, 105
5, 174000, Note_on_c, 2, 59, 107
5, 174080, Note_off_c, 2, 52, 64
5, 174090, Note_off_c, 2, 59, 64
5, 174240, Note_on_c, 2, 52, 105
5, 174240, Note_on_c, 2, 59, 102
5, 174350, Note_off_c, 2, 59, 64
5, 174350, Note_off_c, 2, 52, 64
5, 174480, Note_on_c, 2, 59, 105
5, 174480, Note_on_c, 2, 52, 105
5, 174585, Note_off_c, 2, 52, 64
5, 174590, Note_off_c, 2, 59, 64
5, 174635, Note_off_c, 2, 40, 64
5, 174960, Note_on_c, 2, 40, 89
5, 175200, Note_on_c, 2, 52, 107
5, 175355, Note_off_c, 2, 40, 64
5, 175440, Note_on_c, 2, 40, 76
5, 175680, Note_on_c, 2, 59, 107
5, 175855, Note_off_c, 2, 40, 64
5, 175920, Note_on_c, 2, 40, 98
5, 176000, Note_off_c, 2, 52, 64
5, 176160, Note_on_c, 2, 52, 100
5, 176160, Note_on_c, 2, 61, 34
5, 176185, Note_off_c, 2, 61, 64
5, 176250, Note_off_c, 2, 59, 64
5, 176400, Note_on_c, 2, 59, 102
5, 176785, Note_off_c, 2, 52, 64
5, 176785, Note_off_c, 2, 59, 64
5, 176880, Note_on_c, 2, 64, 98
5, 176880, Note_on_c, 2, 52, 105
5, 176880, Note_on_c, 2, 59, 102
5, 177020, Note_off_c, 2, 59, 64
5, 177020, Note_off_c, 2, 52, 64
5, 177040, Note_off_c, 2, 64, 64
5, 177090, Note_off_c, 2, 40, 64
5, 177360, Note_on_c, 2, 40, 93
5, 177600, Note_on_c, 2, 59, 105
5, 177600, Note_on_c, 2, 52, 110
5, 177780, Note_off_c, 2, 40, 64
5, 177840, Note_on_c, 2, 40, 85
5, 178020, Note_off_c, 2, 52, 64
5, 178040, Note_off_c, 2, 59, 64
5, 178080, Note_on_c, 2, 64, 91
5, 178080, Note_on_c, 2, 52, 98
5, 178080, Note_on_c, 2, 59, 63
5, 178120, Note_off_c, 2, 59, 64
5, 178410, Note_off_c, 2, 40, 64
5, 178420, Note_off_c, 2, 64, 64
5, 178440, Note_off_c, 2, 52, 64
5, 178560, Note_on_c, 2, 59, 110
5, 178560, Note_on_c, 2, 52, 102
5, 178560, Note_on_c, 2, 58, 68
5, 178590, Note_off_c, 2, 58, 64
5, 178800, Note_on_c, 2, 40, 87
5, 178810, Note_off_c, 2, 59, 64
5, 178820, Note_off_c, 2, 52, 64
5, 179040, Note_on_c, 2, 59, 68
5, 179040, Note_on_c, 2, 52, 63
5, 179075, Note_off_c, 2, 40, 64
5, 179100, Note_off_c, 2, 59, 64
5, 179100, Note_off_c, 2, 52, 64
5, 179280, Note_on_c, 2, 52, 113
5, 179280, Note_on_c, 2, 59, 113
5, 179760, Note_on_c, 2, 40, 102
5, 179890, Note_off_c, 2, 52, 64
5, 179915, Note_off_c, 2, 59, 64
5, 180000, Note_on_c, 2, 52, 100
5, 180080, Note_off_c, 2, 52, 64
5, 180240, Note_on_c, 2, 59, 110
5, 180240, Note_on_c, 2, 52, 110
5, 180480, Control_c, 2, 7, 95
5, 180570, Note_off_c, 2, 40, 64
5, 180720, Note_on_c, 2, 40, 91
5, 180750, Note_off_c, 2, 59, 64
5, 180760, Note_off_c, 2, 52, 64
5, 180825, Control_c, 2, 7, 94
5, 180960, Note_on_c, 2, 52, 95
5, 180960, Note_on_c, 2, 59, 95
5, 181045, Note_off_c, 2, 59, 64
5, 181045, Note_off_c, 2, 52, 64
5, 181165, Control_c, 2, 7, 93
5, 181200, Note_on_c, 2, 52, 105
5, 181200, Note_on_c, 2, 59, 102
5, 181290, Note_off_c, 2, 59, 64
5, 181290, Note_off_c, 2, 52, 64
5, 181440, Note_on_c, 2, 52, 98
5, 181440, Note_on_c, 2, 59, 98
5, 181510, Control_c, 2, 7, 92
5, 181520, Note_off_c, 2, 59, 64
5, 181520, Note_off_c, 2, 52, 64
5, 181680, Note_on_c, 2, 52, 105
5, 181680, Note_on_c, 2, 59, 107
5, 181760, Note_off_c, 2, 52, 64
5, 181770, Note_off_c, 2, 59, 64
5, 181855, Control_c, 2, 7, 91
5, 181920, Note_on_c, 2, 52, 105
5, 181920, Note_on_c, 2, 59, 102
5, 182030, Note_off_c, 2, 59, 64
5, 182030, Note_off_c, 2, 52, 64
5, 182160, Note_on_c, 2, 59, 105
5, 182160, Note_on_c, 2, 52, 105
5, 182200, Control_c, 2, 7, 90
5, 182265, Note_off_c, 2, 52, 64
5, 182270, Note_off_c, 2, 59, 64
5, 182315, Note_off_c, 2, 40, 64
5, 182400, Note_on_c, 2, 40, 48
5, 182455, Note_off_c, 2, 40, 64
5, 182540, Control_c, 2, 7, 89
5, 182640, Note_on_c, 2, 59, 107
5, 182640, Note_on_c, 2, 52, 105
5, 182735, Note_off_c, 2, 52, 64
5, 182750, Note_off_c, 2, 59, 64
5, 182880, Note_on_c, 2, 52, 100
5, 182880, Note_on_c, 2, 59, 102
5, 182880, Note_on_c, 2, 54, 55
5, 182885, Control_c, 2, 7, 88
5, 182895, Note_off_c, 2, 54, 64
5, 183120, Note_on_c, 2, 40, 91
5, 183170, Note_off_c, 2, 59, 64
5, 183210, Note_off_c, 2, 52, 64
5, 183230, Control_c, 2, 7, 87
5, 183360, Note_on_c, 2, 59, 87
5, 183360, Note_on_c, 2, 52, 76
5, 183430, Note_off_c, 2, 52, 64
5, 183435, Note_off_c, 2, 59, 64
5, 183570, Control_c, 2, 7, 86
5, 183600, Note_on_c, 2, 52, 107
5, 183600, Note_on_c, 2, 59, 107
5, 183655, Note_off_c, 2, 40, 64
5, 183840, Note_on_c, 2, 40, 80
5, 183895, Note_off_c, 2, 59, 64
5, 183900, Note_off_c, 2, 52, 64
5, 183915, Control_c, 2, 7, 85
5, 184080, Note_on_c, 2, 59, 107
5, 184080, Note_on_c, 2, 52, 107
5, 184260, Control_c, 2, 7, 84
5, 184445, Note_off_c, 2, 40, 64
5, 184560, Note_on_c, 2, 40, 87
5, 184600, Control_c, 2, 7, 83
5, 184640, Note_off_c, 2, 52, 64
5, 184710, Note_off_c, 2, 59, 64
5, 184800, Note_on_c, 2, 52, 105
5, 184800, Note_on_c, 2, 59, 57
5, 184840, Note_off_c, 2, 59, 64
5, 184945, Control_c, 2, 7, 82
5, 185040, Note_on_c, 2, 59, 98
5, 185215, Note_off_c, 2, 52, 64
5, 185280, Note_off_c, 2, 59, 64
5, 185280, Note_on_c, 2, 64, 91
5, 185280, Note_on_c, 2, 52, 68
5, 185280, Note_on_c, 2, 59, 38
5, 185290, Control_c, 2, 7, 81
5, 185325, Note_off_c, 2, 59, 64
5, 185325, Note_off_c, 2, 52, 64
5, 185520, Note_on_c, 2, 52, 105
5, 185635, Control_c, 2, 7, 80
5, 185760, Note_on_c, 2, 59, 95
5, 185785, Note_off_c, 2, 64, 64
5, 185880, Note_off_c, 2, 52, 64
5, 185975, Control_c, 2, 7, 79
5, 186000, Note_off_c, 2, 40, 64
5, 186000, Note_on_c, 2, 52, 105
5, 186080, Note_off_c, 2, 59, 64
5, 186155, Note_off_c, 2, 52, 64
5, 186320, Control_c, 2, 7, 78
5, 186480, Note_on_c, 2, 40, 89
5, 186665, Control_c, 2, 7, 77
5, 186720, Note_on_c, 2, 52, 107
5, 186875, Note_off_c, 2, 40, 64
5, 186960, Note_on_c, 2, 40, 76
5, 187005, Control_c, 2, 7, 76
5, 187200, Note_on_c, 2, 59, 107
5, 187350, Control_c, 2, 7, 75
5, 187375, Note_off_c, 2, 40, 64
5, 187440, Note_on_c, 2, 40, 98
5, 187520, Note_off_c, 2, 52, 64
5, 187680, Note_on_c, 2, 52, 100
5, 187680, Note_on_c, 2, 61, 34
5, 187695, Control_c, 2, 7, 74
5, 187705, Note_off_c, 2, 61, 64
5, 187770, Note_off_c, 2, 59, 64
5, 187920, Note_on_c, 2, 59, 102
5, 188040, Control_c, 2, 7, 73
5, 188305, Note_off_c, 2, 52, 64
5, 188305, Note_off_c, 2, 59, 64
5, 188380, Control_c, 2, 7, 72
5, 188400, Note_on_c, 2, 64, 98
5, 188400, Note_on_c, 2, 52, 105
5, 188400, Note_on_c, 2, 59, 102
5, 188540, Note_off_c, 2, 59, 64
5, 188540, Note_off_c, 2, 52, 64
5, 188560, Note_off_c, 2, 64, 64
5, 188610, Note_off_c, 2, 40, 64
5, 188725, Control_c, 2, 7, 71
5, 188880, Note_on_c, 2, 40, 93
5, 189070, Control_c, 2, 7, 70
5, 189120, Note_on_c, 2, 59, 105
5, 189120, Note_on_c, 2, 52, 110
5, 189300, Note_off_c, 2, 40, 64
5, 189360, Note_on_c, 2, 40, 85
5, 189410, Control_c, 2, 7, 69
5, 189540, Note_off_c, 2, 52, 64
5, 189560, Note_off_c, 2, 59, 64
5, 189600, Note_on_c, 2, 64, 91
5, 189600, Note_on_c, 2, 52, 98
5, 189600, Note_on_c, 2, 59, 63
5, 189640, Note_off_c, 2, 59, 64
5, 189755, Control_c, 2, 7, 68
5, 189930, Note_off_c, 2, 40, 64
5, 189940, Note_off_c, 2, 64, 64
5, 189960, Note_off_c, 2, 52, 64
5, 190100, Control_c, 2, 7, 67
5, 190320, Note_on_c, 2, 40, 89
5, 190440, Control_c, 2, 7, 66
5, 190560, Note_on_c, 2, 52, 107
5, 190715, Note_off_c, 2, 40, 64
5, 190785, Control_c, 2, 7, 65
5, 190800, Note_on_c, 2, 40, 76
5, 191040, Note_on_c, 2, 59, 107
5, 191130, Control_c, 2, 7, 64
5, 191215, Note_off_c, 2, 40, 64
5, 191280, Note_on_c, 2, 40, 98
5, 191360, Note_off_c, 2, 52, 64
5, 191475, Control_c, 2, 7, 63
5, 191520, Note_on_c, 2, 52, 100
5, 191520, Note_on_c, 2, 61, 34
5, 191545, Note_off_c, 2, 61, 64
5, 191610, Note_off_c, 2, 59, 64
5, 191760, Note_on_c, 2, 59, 102
5, 191815, Control_c, 2, 7, 62
5, 192145, Note_off_c, 2, 52, 64
5, 192145, Note_off_c, 2, 59, 64
5, 192160, Control_c, 2, 7, 61
5, 192240, Note_on_c, 2, 64, 98
5, 192240, Note_on_c, 2, 52, 105
5, 192240, Note_on_c, 2, 59, 102
5, 192380, Note_off_c, 2, 59, 64
5, 192380, Note_off_c, 2, 52, 64
5, 192400, Note_off_c, 2, 64, 64
5, 192450, Note_off_c, 2, 40, 64
5, 192505, Control_c, 2, 7, 60
5, 192720, Note_on_c, 2, 40, 93
5, 192845, Control_c, 2, 7, 59
5, 192960, Note_on_c, 2, 59, 105
5, 192960, Note_on_c, 2, 52, 110
5, 193140, Note_off_c, 2, 40, 64
5, 193190, Control_c, 2, 7, 58
5, 193200, Note_on_c, 2, 40, 85
5, 193380, Note_off_c, 2, 52, 64
5, 193400, Note_off_c, 2, 59, 64
5, 193440, Note_on_c, 2, 64, 91
5, 193440, Note_on_c, 2, 52, 98
5, 193440, Note_on_c, 2, 59, 63
5, 193480, Note_off_c, 2, 59, 64
5, 193535, Control_c, 2, 7, 57
5, 193770, Note_off_c, 2, 40, 64
5, 193780, Note_off_c, 2, 64, 64
5, 193800, Note_off_c, 2, 52, 64
5, 193880, Control_c, 2, 7, 56
5, 193920, Note_on_c, 2, 40, 76
5, 194160, Note_on_c, 2, 59, 105
5, 194160, Note_on_c, 2, 52, 110
5, 194220, Control_c, 2, 7, 55
5, 194245, Note_off_c, 2, 52, 64
5, 194280, Note_off_c, 2, 59, 64
5, 194490, Note_off_c, 2, 40, 64
5, 194565, Control_c, 2, 7, 54
5, 194640, Note_on_c, 2, 40, 93
5, 194880, Note_on_c, 2, 52, 107
5, 194880, Note_on_c, 2, 59, 110
5, 194910, Control_c, 2, 7, 53
5, 195250, Control_c, 2, 7, 52
5, 195490, Note_off_c, 2, 40, 64
5, 195595, Control_c, 2, 7, 51
5, 195600, Note_on_c, 2, 40, 93
5, 195780, Note_off_c, 2, 59, 64
5, 195840, Note_on_c, 2, 64, 110
5, 195925, Note_off_c, 2, 52, 64
5, 195940, Control_c, 2, 7, 50
5, 196080, Note_on_c, 2, 52, 105
5, 196280, Control_c, 2, 7, 49
5, 196320, Note_on_c, 2, 59, 82
5, 196390, Note_off_c, 2, 64, 64
5, 196560, Note_on_c, 2, 64, 105
5, 196615, Note_off_c, 2, 59, 64
5, 196625, Control_c, 2, 7, 48
5, 196960, Note_off_c, 2, 40, 64
5, 196970, Control_c, 2, 7, 47
5, 197040, Note_on_c, 2, 40, 98
5, 197040, Note_on_c, 2, 47, 58
5, 197090, Note_off_c, 2, 47, 64
5, 197140, Note_off_c, 2, 52, 64
5, 197280, Note_on_c, 2, 52, 100
5, 197315, Control_c, 2, 7, 46
5, 197510, Note_off_c, 2, 64, 64
5, 197520, Note_on_c, 2, 59, 102
5, 197655, Control_c, 2, 7, 45
5, 197720, Note_off_c, 2, 59, 64
5, 197740, Note_off_c, 2, 40, 64
5, 197755, Note_off_c, 2, 52, 64
5, 198000, Control_c, 2, 7, 44
5, 198000, Note_on_c, 2, 59, 102
5, 198000, Note_on_c, 2, 52, 105
5, 198090, Note_off_c, 2, 52, 64
5, 198105, Note_off_c, 2, 59, 64
5, 198240, Note_on_c, 2, 59, 107
5, 198240, Note_on_c, 2, 52, 107
5, 198345, Control_c, 2, 7, 43
5, 198480, Note_on_c, 2, 40, 80
5, 198600, Note_off_c, 2, 52, 64
5, 198600, Note_off_c, 2, 59, 64
5, 198685, Control_c, 2, 7, 42
5, 198720, Note_on_c, 2, 59, 85
5, 198720, Note_on_c, 2, 52, 89
5, 198765, Note_off_c, 2, 40, 64
5, 198800, Note_off_c, 2, 52, 64
5, 198805, Note_off_c, 2, 59, 64
5, 198840, Note_on_c, 2, 40, 46
5, 198925, Note_off_c, 2, 40, 64
5, 198960, Note_on_c, 2, 52, 107
5, 198960, Note_on_c, 2, 59, 110
5, 199030, Control_c, 2, 7, 41
5, 199200, Note_on_c, 2, 40, 72
5, 199220, Note_off_c, 2, 52, 64
5, 199235, Note_off_c, 2, 59, 64
5, 199375, Control_c, 2, 7, 40
5, 199440, Note_on_c, 2, 59, 107
5, 199440, Note_on_c, 2, 52, 107
5, 199715, Control_c, 2, 7, 39
5, 199785, Note_off_c, 2, 52, 64
5, 199790, Note_off_c, 2, 59, 64
5, 199920, Note_on_c, 2, 59, 105
5, 199920, Note_on_c, 2, 52, 105
5, 200060, Control_c, 2, 7, 38
5, 200100, Note_off_c, 2, 40, 64
5, 200160, Note_on_c, 2, 40, 72
5, 200270, Note_off_c, 2, 59, 64
5, 200270, Note_off_c, 2, 52, 64
5, 200400, Note_on_c, 2, 59, 107
5, 200400, Note_on_c, 2, 52, 110
5, 200405, Control_c, 2, 7, 37
5, 200680, Note_off_c, 2, 59, 64
5, 200750, Control_c, 2, 7, 36
5, 200760, Note_on_c, 2, 64, 105
5, 200805, Note_off_c, 2, 52, 64
5, 200880, Note_on_c, 2, 59, 89
5, 200925, Note_off_c, 2, 64, 64
5, 201000, Note_on_c, 2, 52, 91
5, 201055, Note_off_c, 2, 59, 64
5, 201090, Control_c, 2, 7, 35
5, 201120, Note_on_c, 2, 64, 110
5, 201180, Note_off_c, 2, 52, 64
5, 201240, Note_on_c, 2, 59, 85
5, 201280, Note_off_c, 2, 64, 64
5, 201360, Note_on_c, 2, 52, 100
5, 201400, Note_off_c, 2, 59, 64
5, 201435, Control_c, 2, 7, 34
5, 201480, Note_on_c, 2, 59, 116
5, 201540, Note_off_c, 2, 52, 64
5, 201580, Note_off_c, 2, 40, 64
5, 201595, Note_off_c, 2, 59, 64
5, 201780, Control_c, 2, 7, 33
5, 201840, Note_on_c, 2, 59, 107
5, 201840, Note_on_c, 2, 52, 105
5, 201945, Note_off_c, 2, 52, 64
5, 201975, Note_off_c, 2, 59, 64
5, 202120, Control_c, 2, 7, 32
5, 202320, Note_on_c, 2, 40, 91
5, 202465, Control_c, 2, 7, 31
5, 202560, Note_on_c, 2, 52, 102
5, 202560, Note_on_c, 2, 59, 110
5, 202810, Control_c, 2, 7, 30
5, 202945, Note_off_c, 2, 40, 64
5, 203040, Note_on_c, 2, 40, 91
5, 203100, Note_off_c, 2, 59, 64
5, 203135, Note_off_c, 2, 52, 64
5, 203155, Control_c, 2, 7, 29
5, 203280, Note_on_c, 2, 59, 102
5, 203280, Note_on_c, 2, 52, 105
5, 203495, Control_c, 2, 7, 28
5, 203695, Note_off_c, 2, 40, 64
5, 203760, Note_on_c, 2, 40, 91
5, 203840, Control_c, 2, 7, 27
5, 203880, Note_off_c, 2, 52, 64
5, 203965, Note_off_c, 2, 59, 64
5, 204000, Note_on_c, 2, 52, 107
5, 204000, Note_on_c, 2, 59, 57
5, 204060, Note_off_c, 2, 59, 64
5, 204160, Note_off_c, 2, 40, 64
5, 204185, Control_c, 2, 7, 26
5, 204240, Note_on_c, 2, 40, 85
5, 204480, Note_on_c, 2, 59, 113
5, 204525, Control_c, 2, 7, 25
5, 204610, Note_off_c, 2, 40, 64
5, 204720, Note_on_c, 2, 40, 80
5, 204775, Note_off_c, 2, 52, 64
5, 204870, Control_c, 2, 7, 24
5, 204960, Note_on_c, 2, 52, 102
5, 205060, Note_off_c, 2, 59, 64
5, 205200, Note_on_c, 2, 59, 102
5, 205215, Control_c, 2, 7, 23
5, 205300, Note_off_c, 2, 40, 64
5, 205400, Note_off_c, 2, 59, 64
5, 205440, Note_off_c, 2, 52, 64
5, 205440, Note_on_c, 2, 59, 110
5, 205440, Note_on_c, 2, 52, 102
5, 205440, Note_on_c, 2, 58, 68
5, 205470, Note_off_c, 2, 58, 64
5, 205555, Control_c, 2, 7, 22
5, 205680, Note_on_c, 2, 40, 87
5, 205690, Note_off_c, 2, 59, 64
5, 205700, Note_off_c, 2, 52, 64
5, 205900, Control_c, 2, 7, 21
5, 205920, Note_on_c, 2, 59, 68
5, 205920, Note_on_c, 2, 52, 63
5, 205955, Note_off_c, 2, 40, 64
5, 205980, Note_off_c, 2, 59, 64
5, 205980, Note_off_c, 2, 52, 64
5, 206160, Note_on_c, 2, 52, 113
5, 206160, Note_on_c, 2, 59, 113
5, 206245, Control_c, 2, 7, 20
5, 206590, Control_c, 2, 7, 19
5, 206640, Note_on_c, 2, 40, 102
5, 206770, Note_off_c, 2, 52, 64
5, 206795, Note_off_c, 2, 59, 64
5, 206880, Note_on_c, 2, 52, 100
5, 206930, Control_c, 2, 7, 18
5, 206960, Note_off_c, 2, 52, 64
5, 207120, Note_on_c, 2, 59, 110
5, 207120, Note_on_c, 2, 52, 110
5, 207275, Control_c, 2, 7, 17
5, 207450, Note_off_c, 2, 40, 64
5, 207600, Note_on_c, 2, 40, 91
5, 207620, Control_c, 2, 7, 16
5, 207630, Note_off_c, 2, 59, 64
5, 207640, Note_off_c, 2, 52, 64
5, 207840, Note_on_c, 2, 52, 95
5, 207840, Note_on_c, 2, 59, 95
5, 207925, Note_off_c, 2, 59, 64
5, 207925, Note_off_c, 2, 52, 64
5, 207960, Control_c, 2, 7, 15
5, 208080, Note_on_c, 2, 52, 105
5, 208080, Note_on_c, 2, 59, 102
5, 208170, Note_off_c, 2, 59, 64
5, 208170, Note_off_c, 2, 52, 64
5, 208305, Control_c, 2, 7, 14
5, 208320, Note_on_c, 2, 52, 98
5, 208320, Note_on_c, 2, 59, 98
5, 208400, Note_off_c, 2, 59, 64
5, 208400, Note_off_c, 2, 52, 64
5, 208560, Note_on_c, 2, 52, 105
5, 208560, Note_on_c, 2, 59, 107
5, 208640, Note_off_c, 2, 52, 64
5, 208650, Note_off_c, 2, 59, 64
5, 208650, Control_c, 2, 7, 13
5, 208800, Note_on_c, 2, 52, 105
5, 208800, Note_on_c, 2, 59, 102
5, 208910, Note_off_c, 2, 59, 64
5, 208910, Note_off_c, 2, 52, 64
5, 208995, Control_c, 2, 7, 12
5, 209040, Note_on_c, 2, 59, 105
5, 209040, Note_on_c, 2, 52, 105
5, 209145, Note_off_c, 2, 52, 64
5, 209150, Note_off_c, 2, 59, 64
5, 209195, Note_off_c, 2, 40, 64
5, 209280, Note_on_c, 2, 59, 107
5, 209280, Note_on_c, 2, 52, 113
5, 209335, Control_c, 2, 7, 11
5, 209445, Note_off_c, 2, 59, 64
5, 209460, Note_off_c, 2, 52, 64
5, 209680, Control_c, 2, 7, 10
5, 209760, Note_on_c, 2, 40, 91
5, 210000, Note_on_c, 2, 59, 105
5, 210000, Note_on_c, 2, 52, 113
5, 210025, Control_c, 2, 7, 9
5, 210365, Control_c, 2, 7, 8
5, 210395, Note_off_c, 2, 40, 64
5, 210480, Note_on_c, 2, 40, 87
5, 210710, Control_c, 2, 7, 7
5, 210740, Note_off_c, 2, 59, 64
5, 210920, Note_off_c, 2, 52, 64
5, 210960, Note_on_c, 2, 59, 95
5, 210960, Note_on_c, 2, 52, 56
5, 211055, Control_c, 2, 7, 6
5, 211300, Note_off_c, 2, 52, 64
5, 211395, Control_c, 2, 7, 5
5, 211440, Note_on_c, 2, 52, 105
5, 211515, Note_off_c, 2, 59, 64
5, 211680, Note_on_c, 2, 59, 110
5, 211740, Control_c, 2, 7, 4
5, 211820, Note_off_c, 2, 52, 64
5, 211920, Note_on_c, 2, 52, 91
5, 211920, Note_on_c, 2, 61, 33
5, 211965, Note_off_c, 2, 61, 64
5, 212080, Note_off_c, 2, 59, 64
5, 212085, Control_c, 2, 7, 3
5, 212160, Note_on_c, 2, 64, 105
5, 212335, Note_off_c, 2, 52, 64
5, 212400, Note_on_c, 2, 52, 102
5, 212430, Control_c, 2, 7, 2
5, 212625, Note_off_c, 2, 64, 64
5, 212640, Note_on_c, 2, 59, 102
5, 212770, Control_c, 2, 7, 1
5, 212795, Note_off_c, 2, 52, 64
5, 212880, Note_on_c, 2, 52, 107
5, 212980, Note_off_c, 2, 59, 64
5, 213115, Control_c, 2, 7, 0
5, 213120, Note_off_c, 2, 40, 64
5, 213120, Note_off_c, 2, 52, 64
5, 213120, End_track
6, 0, Start_track
6, 0, Title_t, "Distortion Gtr"
6, 0, MIDI_port, 0
6, 0, Channel_prefix, 3
6, 480, Control_c, 3, 93, 105
6, 480, Control_c, 3, 91, 50
6, 480, Control_c, 3, 10, 127
6, 480, Control_c, 3, 7, 123
6, 480, Program_c, 3, 30
6, 2400, Control_c, 3, 1, 100
6, 90720, Note_on_c, 3, 47, 117
6, 92155, Note_off_c, 3, 47, 64
6, 92640, Note_on_c, 3, 49, 117
6, 94075, Note_off_c, 3, 49, 64
6, 94560, Note_on_c, 3, 51, 117
6, 95995, Note_off_c, 3, 51, 64
6, 96480, Note_on_c, 3, 52, 117
6, 97915, Note_off_c, 3, 52, 64
6, 98400, Note_on_c, 3, 54, 117
6, 99835, Note_off_c, 3, 54, 64
6, 100320, Note_on_c, 3, 56, 117
6, 101755, Note_off_c, 3, 56, 64
6, 102240, Note_on_c, 3, 57, 117
6, 103675, Note_off_c, 3, 57, 64
6, 104160, Note_on_c, 3, 59, 117
6, 105595, Note_off_c, 3, 59, 64
6, 106080, Note_on_c, 3, 61, 117
6, 107515, Note_off_c, 3, 61, 64
6, 108000, Note_on_c, 3, 63, 117
6, 109435, Note_off_c, 3, 63, 64
6, 109920, Note_on_c, 3, 64, 117
6, 111355, Note_off_c, 3, 64, 64
6, 111840, Note_on_c, 3, 66, 117
6, 113275, Note_off_c, 3, 66, 64
6, 113275, End_track
7, 0, Start_track
7, 0, Title_t, "Fretless E.Bass"
7, 0, MIDI_port, 0
7, 0, Channel_prefix, 4
7, 480, Control_c, 4, 93, 54
7, 480, Control_c, 4, 91, 20
7, 480, Control_c, 4, 10, 64
7, 480, Control_c, 4, 7, 120
7, 480, Program_c, 4, 35
7, 5760, Note_on_c, 4, 40, 115
7, 6445, Note_off_c, 4, 40, 64
7, 6480, Note_on_c, 4, 43, 115
7, 6685, Note_off_c, 4, 43, 64
7, 6720, Note_on_c, 4, 44, 115
7, 6925, Note_off_c, 4, 44, 64
7, 6960, Note_on_c, 4, 47, 115
7, 7165, Note_off_c, 4, 47, 64
7, 7200, Note_on_c, 4, 52, 115
7, 7405, Note_off_c, 4, 52, 64
7, 7440, Note_on_c, 4, 50, 115
7, 8125, Note_off_c, 4, 50, 64
7, 8160, Note_on_c, 4, 47, 115
7, 8365, Note_off_c, 4, 47, 64
7, 8400, Note_on_c, 4, 54, 115
7, 8845, Note_off_c, 4, 54, 64
7, 8880, Note_on_c, 4, 47, 115
7, 9085, Note_off_c, 4, 47, 64
7, 9120, Note_on_c, 4, 50, 115
7, 9325, Note_off_c, 4, 50, 64
7, 9360, Note_on_c, 4, 52, 115
7, 9565, Note_off_c, 4, 52, 64
7, 9600, Note_on_c, 4, 40, 115
7, 10285, Note_off_c, 4, 40, 64
7, 10320, Note_on_c, 4, 43, 115
7, 10525, Note_off_c, 4, 43, 64
7, 10560, Note_on_c, 4, 44, 115
7, 10765, Note_off_c, 4, 44, 64
7, 10800, Note_on_c, 4, 47, 115
7, 11005, Note_off_c, 4, 47, 64
7, 11040, Note_on_c, 4, 52, 115
7, 11245, Note_off_c, 4, 52, 64
7, 11280, Note_on_c, 4, 50, 115
7, 11965, Note_off_c, 4, 50, 64
7, 12000, Note_on_c, 4, 47, 115
7, 12205, Note_off_c, 4, 47, 64
7, 12240, Note_on_c, 4, 54, 115
7, 12685, Note_off_c, 4, 54, 64
7, 12720, Note_on_c, 4, 47, 115
7, 12925, Note_off_c, 4, 47, 64
7, 12960, Note_on_c, 4, 50, 115
7, 13165, Note_off_c, 4, 50, 64
7, 13200, Note_on_c, 4, 52, 115
7, 13405, Note_off_c, 4, 52, 64
7, 13440, Note_on_c, 4, 40, 115
7, 14125, Note_off_c, 4, 40, 64
7, 14160, Note_on_c, 4, 43, 115
7, 14365, Note_off_c, 4, 43, 64
7, 14400, Note_on_c, 4, 44, 115
7, 14605, Note_off_c, 4, 44, 64
7, 14640, Note_on_c, 4, 47, 115
7, 14845, Note_off_c, 4, 47, 64
7, 14880, Note_on_c, 4, 52, 115
7, 15085, Note_off_c, 4, 52, 64
7, 15120, Note_on_c, 4, 50, 115
7, 15805, Note_off_c, 4, 50, 64
7, 15840, Note_on_c, 4, 47, 115
7, 16045, Note_off_c, 4, 47, 64
7, 16080, Note_on_c, 4, 54, 115
7, 16525, Note_off_c, 4, 54, 64
7, 16560, Note_on_c, 4, 47, 115
7, 16765, Note_off_c, 4, 47, 64
7, 16800, Note_on_c, 4, 50, 115
7, 17005, Note_off_c, 4, 50, 64
7, 17040, Note_on_c, 4, 52, 115
7, 17245, Note_off_c, 4, 52, 64
7, 17280, Note_on_c, 4, 40, 115
7, 17965, Note_off_c, 4, 40, 64
7, 18000, Note_on_c, 4, 43, 115
7, 18205, Note_off_c, 4, 43, 64
7, 18240, Note_on_c, 4, 44, 115
7, 18445, Note_off_c, 4, 44, 64
7, 18480, Note_on_c, 4, 47, 115
7, 18685, Note_off_c, 4, 47, 64
7, 18720, Note_on_c, 4, 52, 115
7, 18925, Note_off_c, 4, 52, 64
7, 18960, Note_on_c, 4, 50, 115
7, 19645, Note_off_c, 4, 50, 64
7, 19680, Note_on_c, 4, 47, 115
7, 19885, Note_off_c, 4, 47, 64
7, 19920, Note_on_c, 4, 54, 115
7, 20365, Note_off_c, 4, 54, 64
7, 20400, Note_on_c, 4, 47, 115
7, 20605, Note_off_c, 4, 47, 64
7, 20640, Note_on_c, 4, 50, 115
7, 20845, Note_off_c, 4, 50, 64
7, 20880, Note_on_c, 4, 52, 115
7, 21085, Note_off_c, 4, 52, 64
7, 21120, Note_on_c, 4, 40, 115
7, 21805, Note_off_c, 4, 40, 64
7, 21840, Note_on_c, 4, 43, 115
7, 22045, Note_off_c, 4, 43, 64
7, 22080, Note_on_c, 4, 44, 115
7, 22285, Note_off_c, 4, 44, 64
7, 22320, Note_on_c, 4, 47, 115
7, 22525, Note_off_c, 4, 47, 64
7, 22560, Note_on_c, 4, 52, 115
7, 22765, Note_off_c, 4, 52, 64
7, 22800, Note_on_c, 4, 50, 115
7, 23485, Note_off_c, 4, 50, 64
7, 23520, Note_on_c, 4, 47, 115
7, 23725, Note_off_c, 4, 47, 64
7, 23760, Note_on_c, 4, 54, 115
7, 24205, Note_off_c, 4, 54, 64
7, 24240, Note_on_c, 4, 47, 115
7, 24445, Note_off_c, 4, 47, 64
7, 24480, Note_on_c, 4, 50, 115
7, 24685, Note_off_c, 4, 50, 64
7, 24720, Note_on_c, 4, 52, 115
7, 24925, Note_off_c, 4, 52, 64
7, 24960, Note_on_c, 4, 40, 115
7, 25645, Note_off_c, 4, 40, 64
7, 25680, Note_on_c, 4, 43, 115
7, 25885, Note_off_c, 4, 43, 64
7, 25920, Note_on_c, 4, 44, 115
7, 26125, Note_off_c, 4, 44, 64
7, 26160, Note_on_c, 4, 47, 115
7, 26365, Note_off_c, 4, 47, 64
7, 26400, Note_on_c, 4, 52, 115
7, 26605, Note_off_c, 4, 52, 64
7, 26640, Note_on_c, 4, 50, 115
7, 27325, Note_off_c, 4, 50, 64
7, 27360, Note_on_c, 4, 47, 115
7, 27565, Note_off_c, 4, 47, 64
7, 27600, Note_on_c, 4, 54, 115
7, 28045, Note_off_c, 4, 54, 64
7, 28080, Note_on_c, 4, 47, 115
7, 28285, Note_off_c, 4, 47, 64
7, 28320, Note_on_c, 4, 50, 115
7, 28525, Note_off_c, 4, 50, 64
7, 28560, Note_on_c, 4, 52, 115
7, 28765, Note_off_c, 4, 52, 64
7, 28800, Note_on_c, 4, 33, 115
7, 29485, Note_off_c, 4, 33, 64
7, 29520, Note_on_c, 4, 36, 115
7, 29725, Note_off_c, 4, 36, 64
7, 29760, Note_on_c, 4, 37, 115
7, 29965, Note_off_c, 4, 37, 64
7, 30000, Note_on_c, 4, 40, 115
7, 30205, Note_off_c, 4, 40, 64
7, 30240, Note_on_c, 4, 45, 115
7, 30445, Note_off_c, 4, 45, 64
7, 30480, Note_on_c, 4, 43, 115
7, 31165, Note_off_c, 4, 43, 64
7, 31200, Note_on_c, 4, 40, 115
7, 31405, Note_off_c, 4, 40, 64
7, 31440, Note_on_c, 4, 47, 115
7, 31885, Note_off_c, 4, 47, 64
7, 31920, Note_on_c, 4, 40, 115
7, 32125, Note_off_c, 4, 40, 64
7, 32160, Note_on_c, 4, 43, 115
7, 32365, Note_off_c, 4, 43, 64
7, 32400, Note_on_c, 4, 45, 115
7, 32605, Note_off_c, 4, 45, 64
7, 32640, Note_on_c, 4, 40, 115
7, 33325, Note_off_c, 4, 40, 64
7, 33360, Note_on_c, 4, 43, 115
7, 33565, Note_off_c, 4, 43, 64
7, 33600, Note_on_c, 4, 44, 115
7, 33805, Note_off_c, 4, 44, 64
7, 33840, Note_on_c, 4, 47, 115
7, 34045, Note_off_c, 4, 47, 64
7, 34080, Note_on_c, 4, 52, 115
7, 34285, Note_off_c, 4, 52, 64
7, 34320, Note_on_c, 4, 50, 115
7, 35005, Note_off_c, 4, 50, 64
7, 35040, Note_on_c, 4, 47, 115
7, 35245, Note_off_c, 4, 47, 64
7, 35280, Note_on_c, 4, 54, 115
7, 35725, Note_off_c, 4, 54, 64
7, 35760, Note_on_c, 4, 47, 115
7, 35965, Note_off_c, 4, 47, 64
7, 36000, Note_on_c, 4, 50, 115
7, 36205, Note_off_c, 4, 50, 64
7, 36240, Note_on_c, 4, 52, 115
7, 36445, Note_off_c, 4, 52, 64
7, 36480, Note_on_c, 4, 42, 115
7, 36925, Note_off_c, 4, 42, 64
7, 36960, Note_on_c, 4, 46, 115
7, 37165, Note_off_c, 4, 46, 64
7, 37200, Note_on_c, 4, 49, 115
7, 37405, Note_off_c, 4, 49, 64
7, 37440, Note_on_c, 4, 52, 115
7, 37885, Note_off_c, 4, 52, 64
7, 37920, Note_on_c, 4, 51, 115
7, 38125, Note_off_c, 4, 51, 64
7, 38160, Note_on_c, 4, 54, 115
7, 38365, Note_off_c, 4, 54, 64
7, 38400, Note_on_c, 4, 42, 115
7, 38845, Note_off_c, 4, 42, 64
7, 38880, Note_on_c, 4, 46, 115
7, 39085, Note_off_c, 4, 46, 64
7, 39120, Note_on_c, 4, 49, 115
7, 39325, Note_off_c, 4, 49, 64
7, 39360, Note_on_c, 4, 52, 115
7, 39805, Note_off_c, 4, 52, 64
7, 39840, Note_on_c, 4, 51, 115
7, 40045, Note_off_c, 4, 51, 64
7, 40080, Note_on_c, 4, 54, 115
7, 40285, Note_off_c, 4, 54, 64
7, 40320, Note_on_c, 4, 42, 115
7, 40765, Note_off_c, 4, 42, 64
7, 40800, Note_on_c, 4, 46, 115
7, 41005, Note_off_c, 4, 46, 64
7, 41040, Note_on_c, 4, 49, 115
7, 41245, Note_off_c, 4, 49, 64
7, 41280, Note_on_c, 4, 52, 115
7, 41725, Note_off_c, 4, 52, 64
7, 41760, Note_on_c, 4, 51, 115
7, 41965, Note_off_c, 4, 51, 64
7, 42000, Note_on_c, 4, 54, 115
7, 42205, Note_off_c, 4, 54, 64
7, 42240, Note_on_c, 4, 42, 115
7, 42685, Note_off_c, 4, 42, 64
7, 42720, Note_on_c, 4, 46, 115
7, 42925, Note_off_c, 4, 46, 64
7, 42960, Note_on_c, 4, 49, 115
7, 43165, Note_off_c, 4, 49, 64
7, 43200, Note_on_c, 4, 52, 115
7, 43645, Note_off_c, 4, 52, 64
7, 43680, Note_on_c, 4, 51, 115
7, 43885, Note_off_c, 4, 51, 64
7, 43920, Note_on_c, 4, 54, 115
7, 44125, Note_off_c, 4, 54, 64
7, 44160, Note_on_c, 4, 33, 115
7, 44605, Note_off_c, 4, 33, 64
7, 44640, Note_on_c, 4, 37, 115
7, 44845, Note_off_c, 4, 37, 64
7, 44880, Note_on_c, 4, 40, 115
7, 45085, Note_off_c, 4, 40, 64
7, 45120, Note_on_c, 4, 43, 115
7, 45565, Note_off_c, 4, 43, 64
7, 45600, Note_on_c, 4, 42, 115
7, 45805, Note_off_c, 4, 42, 64
7, 45840, Note_on_c, 4, 45, 115
7, 46045, Note_off_c, 4, 45, 64
7, 46080, Note_on_c, 4, 32, 115
7, 46525, Note_off_c, 4, 32, 64
7, 46560, Note_on_c, 4, 36, 115
7, 46765, Note_off_c, 4, 36, 64
7, 46800, Note_on_c, 4, 39, 115
7, 47005, Note_off_c, 4, 39, 64
7, 47040, Note_on_c, 4, 42, 115
7, 47485, Note_off_c, 4, 42, 64
7, 47520, Note_on_c, 4, 40, 115
7, 47545, Note_off_c, 4, 40, 64
7, 47580, Note_on_c, 4, 41, 115
7, 47725, Note_off_c, 4, 41, 64
7, 47760, Note_on_c, 4, 44, 115
7, 47965, Note_off_c, 4, 44, 64
7, 48000, Note_on_c, 4, 37, 115
7, 48445, Note_off_c, 4, 37, 64
7, 48480, Note_on_c, 4, 41, 115
7, 48925, Note_off_c, 4, 41, 64
7, 48960, Note_on_c, 4, 44, 115
7, 49165, Note_off_c, 4, 44, 64
7, 49200, Note_on_c, 4, 44, 115
7, 49405, Note_off_c, 4, 44, 64
7, 49440, Note_on_c, 4, 37, 115
7, 49885, Note_off_c, 4, 37, 64
7, 49920, Note_on_c, 4, 35, 115
7, 50365, Note_off_c, 4, 35, 64
7, 50400, Note_on_c, 4, 39, 115
7, 50845, Note_off_c, 4, 39, 64
7, 50880, Note_on_c, 4, 42, 115
7, 51085, Note_off_c, 4, 42, 64
7, 51120, Note_on_c, 4, 42, 115
7, 51325, Note_off_c, 4, 42, 64
7, 51360, Note_on_c, 4, 35, 115
7, 51805, Note_off_c, 4, 35, 64
7, 51840, Note_on_c, 4, 40, 115
7, 52525, Note_off_c, 4, 40, 64
7, 52560, Note_on_c, 4, 43, 115
7, 52765, Note_off_c, 4, 43, 64
7, 52800, Note_on_c, 4, 44, 115
7, 53005, Note_off_c, 4, 44, 64
7, 53040, Note_on_c, 4, 47, 115
7, 53245, Note_off_c, 4, 47, 64
7, 53280, Note_on_c, 4, 52, 115
7, 53485, Note_off_c, 4, 52, 64
7, 53520, Note_on_c, 4, 50, 115
7, 54205, Note_off_c, 4, 50, 64
7, 54240, Note_on_c, 4, 47, 115
7, 54445, Note_off_c, 4, 47, 64
7, 54480, Note_on_c, 4, 54, 115
7, 54925, Note_off_c, 4, 54, 64
7, 54960, Note_on_c, 4, 47, 115
7, 55165, Note_off_c, 4, 47, 64
7, 55200, Note_on_c, 4, 50, 115
7, 55405, Note_off_c, 4, 50, 64
7, 55440, Note_on_c, 4, 52, 115
7, 55645, Note_off_c, 4, 52, 64
7, 55680, Note_on_c, 4, 40, 115
7, 56365, Note_off_c, 4, 40, 64
7, 56400, Note_on_c, 4, 43, 115
7, 56605, Note_off_c, 4, 43, 64
7, 56640, Note_on_c, 4, 44, 115
7, 56845, Note_off_c, 4, 44, 64
7, 56880, Note_on_c, 4, 47, 115
7, 57085, Note_off_c, 4, 47, 64
7, 57120, Note_on_c, 4, 52, 115
7, 57325, Note_off_c, 4, 52, 64
7, 57360, Note_on_c, 4, 50, 115
7, 58045, Note_off_c, 4, 50, 64
7, 58080, Note_on_c, 4, 47, 115
7, 58285, Note_off_c, 4, 47, 64
7, 58320, Note_on_c, 4, 54, 115
7, 58765, Note_off_c, 4, 54, 64
7, 58800, Note_on_c, 4, 47, 115
7, 59005, Note_off_c, 4, 47, 64
7, 59040, Note_on_c, 4, 50, 115
7, 59245, Note_off_c, 4, 50, 64
7, 59280, Note_on_c, 4, 52, 115
7, 59485, Note_off_c, 4, 52, 64
7, 59520, Note_on_c, 4, 40, 115
7, 60205, Note_off_c, 4, 40, 64
7, 60240, Note_on_c, 4, 43, 115
7, 60445, Note_off_c, 4, 43, 64
7, 60480, Note_on_c, 4, 44, 115
7, 60685, Note_off_c, 4, 44, 64
7, 60720, Note_on_c, 4, 47, 115
7, 60925, Note_off_c, 4, 47, 64
7, 60960, Note_on_c, 4, 52, 115
7, 61165, Note_off_c, 4, 52, 64
7, 61200, Note_on_c, 4, 50, 115
7, 61885, Note_off_c, 4, 50, 64
7, 61920, Note_on_c, 4, 47, 115
7, 62125, Note_off_c, 4, 47, 64
7, 62160, Note_on_c, 4, 54, 115
7, 62605, Note_off_c, 4, 54, 64
7, 62640, Note_on_c, 4, 47, 115
7, 62845, Note_off_c, 4, 47, 64
7, 62880, Note_on_c, 4, 50, 115
7, 63085, Note_off_c, 4, 50, 64
7, 63120, Note_on_c, 4, 52, 115
7, 63325, Note_off_c, 4, 52, 64
7, 63360, Note_on_c, 4, 40, 115
7, 64045, Note_off_c, 4, 40, 64
7, 64080, Note_on_c, 4, 43, 115
7, 64285, Note_off_c, 4, 43, 64
7, 64320, Note_on_c, 4, 44, 115
7, 64525, Note_off_c, 4, 44, 64
7, 64560, Note_on_c, 4, 47, 115
7, 64765, Note_off_c, 4, 47, 64
7, 64800, Note_on_c, 4, 52, 115
7, 65005, Note_off_c, 4, 52, 64
7, 65040, Note_on_c, 4, 50, 115
7, 65725, Note_off_c, 4, 50, 64
7, 65760, Note_on_c, 4, 47, 115
7, 65965, Note_off_c, 4, 47, 64
7, 66000, Note_on_c, 4, 54, 115
7, 66445, Note_off_c, 4, 54, 64
7, 66480, Note_on_c, 4, 47, 115
7, 66685, Note_off_c, 4, 47, 64
7, 66720, Note_on_c, 4, 50, 115
7, 66925, Note_off_c, 4, 50, 64
7, 66960, Note_on_c, 4, 52, 115
7, 67165, Note_off_c, 4, 52, 64
7, 67200, Note_on_c, 4, 33, 115
7, 67885, Note_off_c, 4, 33, 64
7, 67920, Note_on_c, 4, 36, 115
7, 68125, Note_off_c, 4, 36, 64
7, 68160, Note_on_c, 4, 37, 115
7, 68365, Note_off_c, 4, 37, 64
7, 68400, Note_on_c, 4, 40, 115
7, 68605, Note_off_c, 4, 40, 64
7, 68640, Note_on_c, 4, 45, 115
7, 68845, Note_off_c, 4, 45, 64
7, 68880, Note_on_c, 4, 43, 115
7, 69565, Note_off_c, 4, 43, 64
7, 69600, Note_on_c, 4, 40, 115
7, 69805, Note_off_c, 4, 40, 64
7, 69840, Note_on_c, 4, 47, 115
7, 70285, Note_off_c, 4, 47, 64
7, 70320, Note_on_c, 4, 40, 115
7, 70525, Note_off_c, 4, 40, 64
7, 70560, Note_on_c, 4, 43, 115
7, 70765, Note_off_c, 4, 43, 64
7, 70800, Note_on_c, 4, 45, 115
7, 71005, Note_off_c, 4, 45, 64
7, 71040, Note_on_c, 4, 40, 115
7, 71725, Note_off_c, 4, 40, 64
7, 71760, Note_on_c, 4, 43, 115
7, 71965, Note_off_c, 4, 43, 64
7, 72000, Note_on_c, 4, 44, 115
7, 72205, Note_off_c, 4, 44, 64
7, 72240, Note_on_c, 4, 47, 115
7, 72445, Note_off_c, 4, 47, 64
7, 72480, Note_on_c, 4, 52, 115
7, 72685, Note_off_c, 4, 52, 64
7, 72720, Note_on_c, 4, 50, 115
7, 73405, Note_off_c, 4, 50, 64
7, 73440, Note_on_c, 4, 47, 115
7, 73645, Note_off_c, 4, 47, 64
7, 73680, Note_on_c, 4, 54, 115
7, 74125, Note_off_c, 4, 54, 64
7, 74160, Note_on_c, 4, 47, 115
7, 74365, Note_off_c, 4, 47, 64
7, 74400, Note_on_c, 4, 50, 115
7, 74605, Note_off_c, 4, 50, 64
7, 74640, Note_on_c, 4, 52, 115
7, 74845, Note_off_c, 4, 52, 64
7, 74880, Note_on_c, 4, 42, 115
7, 75325, Note_off_c, 4, 42, 64
7, 75360, Note_on_c, 4, 46, 115
7, 75565, Note_off_c, 4, 46, 64
7, 75600, Note_on_c, 4, 49, 115
7, 75805, Note_off_c, 4, 49, 64
7, 75840, Note_on_c, 4, 52, 115
7, 76285, Note_off_c, 4, 52, 64
7, 76320, Note_on_c, 4, 51, 115
7, 76525, Note_off_c, 4, 51, 64
7, 76560, Note_on_c, 4, 54, 115
7, 76765, Note_off_c, 4, 54, 64
7, 76800, Note_on_c, 4, 42, 115
7, 77245, Note_off_c, 4, 42, 64
7, 77280, Note_on_c, 4, 46, 115
7, 77485, Note_off_c, 4, 46, 64
7, 77520, Note_on_c, 4, 49, 115
7, 77725, Note_off_c, 4, 49, 64
7, 77760, Note_on_c, 4, 52, 115
7, 78205, Note_off_c, 4, 52, 64
7, 78240, Note_on_c, 4, 51, 115
7, 78445, Note_off_c, 4, 51, 64
7, 78480, Note_on_c, 4, 54, 115
7, 78685, Note_off_c, 4, 54, 64
7, 78720, Note_on_c, 4, 42, 115
7, 79165, Note_off_c, 4, 42, 64
7, 79200, Note_on_c, 4, 46, 115
7, 79405, Note_off_c, 4, 46, 64
7, 79440, Note_on_c, 4, 49, 115
7, 79645, Note_off_c, 4, 49, 64
7, 79680, Note_on_c, 4, 52, 115
7, 80125, Note_off_c, 4, 52, 64
7, 80160, Note_on_c, 4, 51, 115
7, 80365, Note_off_c, 4, 51, 64
7, 80400, Note_on_c, 4, 54, 115
7, 80605, Note_off_c, 4, 54, 64
7, 80640, Note_on_c, 4, 42, 115
7, 81085, Note_off_c, 4, 42, 64
7, 81120, Note_on_c, 4, 46, 115
7, 81325, Note_off_c, 4, 46, 64
7, 81360, Note_on_c, 4, 49, 115
7, 81565, Note_off_c, 4, 49, 64
7, 81600, Note_on_c, 4, 52, 115
7, 82045, Note_off_c, 4, 52, 64
7, 82080, Note_on_c, 4, 51, 115
7, 82285, Note_off_c, 4, 51, 64
7, 82320, Note_on_c, 4, 54, 115
7, 82525, Note_off_c, 4, 54, 64
7, 82560, Note_on_c, 4, 33, 115
7, 83005, Note_off_c, 4, 33, 64
7, 83040, Note_on_c, 4, 37, 115
7, 83245, Note_off_c, 4, 37, 64
7, 83280, Note_on_c, 4, 40, 115
7, 83485, Note_off_c, 4, 40, 64
7, 83520, Note_on_c, 4, 43, 115
7, 83965, Note_off_c, 4, 43, 64
7, 84000, Note_on_c, 4, 42, 115
7, 84205, Note_off_c, 4, 42, 64
7, 84240, Note_on_c, 4, 45, 115
7, 84445, Note_off_c, 4, 45, 64
7, 84480, Note_on_c, 4, 32, 115
7, 84925, Note_off_c, 4, 32, 64
7, 84960, Note_on_c, 4, 36, 115
7, 85165, Note_off_c, 4, 36, 64
7, 85200, Note_on_c, 4, 39, 115
7, 85405, Note_off_c, 4, 39, 64
7, 85440, Note_on_c, 4, 42, 115
7, 85885, Note_off_c, 4, 42, 64
7, 85920, Note_on_c, 4, 40, 115
7, 85945, Note_off_c, 4, 40, 64
7, 85980, Note_on_c, 4, 41, 115
7, 86125, Note_off_c, 4, 41, 64
7, 86160, Note_on_c, 4, 44, 115
7, 86365, Note_off_c, 4, 44, 64
7, 86400, Note_on_c, 4, 37, 115
7, 86845, Note_off_c, 4, 37, 64
7, 86880, Note_on_c, 4, 41, 115
7, 87325, Note_off_c, 4, 41, 64
7, 87360, Note_on_c, 4, 44, 115
7, 87565, Note_off_c, 4, 44, 64
7, 87600, Note_on_c, 4, 44, 115
7, 87805, Note_off_c, 4, 44, 64
7, 87840, Note_on_c, 4, 37, 115
7, 88285, Note_off_c, 4, 37, 64
7, 88320, Note_on_c, 4, 35, 115
7, 88765, Note_off_c, 4, 35, 64
7, 88800, Note_on_c, 4, 35, 115
7, 89005, Note_off_c, 4, 35, 64
7, 89040, Note_on_c, 4, 39, 115
7, 89245, Note_off_c, 4, 39, 64
7, 89280, Note_on_c, 4, 42, 115
7, 89485, Note_off_c, 4, 42, 64
7, 89520, Note_on_c, 4, 42, 115
7, 89725, Note_off_c, 4, 42, 64
7, 89760, Note_on_c, 4, 39, 115
7, 89965, Note_off_c, 4, 39, 64
7, 90000, Note_on_c, 4, 35, 115
7, 90205, Note_off_c, 4, 35, 64
7, 90240, Note_on_c, 4, 35, 115
7, 90685, Note_off_c, 4, 35, 64
7, 90720, Note_on_c, 4, 35, 115
7, 91165, Note_off_c, 4, 35, 64
7, 91200, Note_on_c, 4, 35, 115
7, 91645, Note_off_c, 4, 35, 64
7, 91680, Note_on_c, 4, 35, 115
7, 92125, Note_off_c, 4, 35, 64
7, 92160, Note_on_c, 4, 35, 115
7, 92605, Note_off_c, 4, 35, 64
7, 92640, Note_on_c, 4, 35, 115
7, 93085, Note_off_c, 4, 35, 64
7, 93120, Note_on_c, 4, 35, 115
7, 93565, Note_off_c, 4, 35, 64
7, 93600, Note_on_c, 4, 35, 115
7, 94045, Note_off_c, 4, 35, 64
7, 94080, Note_on_c, 4, 35, 115
7, 94525, Note_off_c, 4, 35, 64
7, 94560, Note_on_c, 4, 35, 115
7, 95005, Note_off_c, 4, 35, 64
7, 95040, Note_on_c, 4, 35, 115
7, 95485, Note_off_c, 4, 35, 64
7, 95520, Note_on_c, 4, 35, 115
7, 95965, Note_off_c, 4, 35, 64
7, 96000, Note_on_c, 4, 35, 115
7, 96445, Note_off_c, 4, 35, 64
7, 96480, Note_on_c, 4, 35, 115
7, 96925, Note_off_c, 4, 35, 64
7, 96960, Note_on_c, 4, 35, 115
7, 97405, Note_off_c, 4, 35, 64
7, 97440, Note_on_c, 4, 35, 115
7, 97885, Note_off_c, 4, 35, 64
7, 97920, Note_on_c, 4, 35, 115
7, 98125, Note_off_c, 4, 35, 64
7, 98160, Note_on_c, 4, 35, 115
7, 98845, Note_off_c, 4, 35, 64
7, 98880, Note_on_c, 4, 35, 115
7, 99085, Note_off_c, 4, 35, 64
7, 99120, Note_on_c, 4, 35, 115
7, 99805, Note_off_c, 4, 35, 64
7, 99840, Note_on_c, 4, 35, 115
7, 100045, Note_off_c, 4, 35, 64
7, 100080, Note_on_c, 4, 35, 115
7, 100765, Note_off_c, 4, 35, 64
7, 100800, Note_on_c, 4, 35, 115
7, 101005, Note_off_c, 4, 35, 64
7, 101040, Note_on_c, 4, 35, 115
7, 101725, Note_off_c, 4, 35, 64
7, 101760, Note_on_c, 4, 35, 115
7, 101965, Note_off_c, 4, 35, 64
7, 102000, Note_on_c, 4, 35, 115
7, 102205, Note_off_c, 4, 35, 64
7, 102240, Note_on_c, 4, 35, 115
7, 102685, Note_off_c, 4, 35, 64
7, 102720, Note_on_c, 4, 35, 115
7, 102925, Note_off_c, 4, 35, 64
7, 102960, Note_on_c, 4, 35, 115
7, 103165, Note_off_c, 4, 35, 64
7, 103200, Note_on_c, 4, 35, 115
7, 103645, Note_off_c, 4, 35, 64
7, 103680, Note_on_c, 4, 35, 115
7, 103885, Note_off_c, 4, 35, 64
7, 103920, Note_on_c, 4, 35, 115
7, 104125, Note_off_c, 4, 35, 64
7, 104160, Note_on_c, 4, 35, 115
7, 104605, Note_off_c, 4, 35, 64
7, 104640, Note_on_c, 4, 35, 115
7, 104845, Note_off_c, 4, 35, 64
7, 104880, Note_on_c, 4, 35, 115
7, 105085, Note_off_c, 4, 35, 64
7, 105120, Note_on_c, 4, 35, 115
7, 105565, Note_off_c, 4, 35, 64
7, 105600, Note_on_c, 4, 35, 115
7, 105805, Note_off_c, 4, 35, 64
7, 105840, Note_on_c, 4, 35, 115
7, 106045, Note_off_c, 4, 35, 64
7, 106080, Note_on_c, 4, 35, 115
7, 106525, Note_off_c, 4, 35, 64
7, 106560, Note_on_c, 4, 35, 115
7, 106765, Note_off_c, 4, 35, 64
7, 106800, Note_on_c, 4, 35, 115
7, 107005, Note_off_c, 4, 35, 64
7, 107040, Note_on_c, 4, 35, 115
7, 107485, Note_off_c, 4, 35, 64
7, 107520, Note_on_c, 4, 35, 115
7, 107725, Note_off_c, 4, 35, 64
7, 107760, Note_on_c, 4, 35, 115
7, 107965, Note_off_c, 4, 35, 64
7, 108000, Note_on_c, 4, 35, 115
7, 108445, Note_off_c, 4, 35, 64
7, 108480, Note_on_c, 4, 35, 115
7, 108685, Note_off_c, 4, 35, 64
7, 108720, Note_on_c, 4, 35, 115
7, 108925, Note_off_c, 4, 35, 64
7, 108960, Note_on_c, 4, 35, 115
7, 109405, Note_off_c, 4, 35, 64
7, 109440, Note_on_c, 4, 35, 115
7, 109645, Note_off_c, 4, 35, 64
7, 109680, Note_on_c, 4, 35, 115
7, 109885, Note_off_c, 4, 35, 64
7, 109920, Note_on_c, 4, 35, 115
7, 110125, Note_off_c, 4, 35, 64
7, 110160, Note_on_c, 4, 35, 115
7, 110365, Note_off_c, 4, 35, 64
7, 110400, Note_on_c, 4, 35, 115
7, 110605, Note_off_c, 4, 35, 64
7, 110640, Note_on_c, 4, 35, 115
7, 110845, Note_off_c, 4, 35, 64
7, 110880, Note_on_c, 4, 35, 115
7, 111085, Note_off_c, 4, 35, 64
7, 111120, Note_on_c, 4, 35, 115
7, 111325, Note_off_c, 4, 35, 64
7, 111360, Note_on_c, 4, 35, 115
7, 111565, Note_off_c, 4, 35, 64
7, 111600, Note_on_c, 4, 35, 115
7, 111805, Note_off_c, 4, 35, 64
7, 111840, Note_on_c, 4, 35, 115
7, 112045, Note_off_c, 4, 35, 64
7, 112080, Note_on_c, 4, 35, 115
7, 112285, Note_off_c, 4, 35, 64
7, 112320, Note_on_c, 4, 35, 115
7, 112525, Note_off_c, 4, 35, 64
7, 112560, Note_on_c, 4, 35, 115
7, 112765, Note_off_c, 4, 35, 64
7, 112800, Note_on_c, 4, 35, 115
7, 113005, Note_off_c, 4, 35, 64
7, 113040, Note_on_c, 4, 35, 115
7, 113245, Note_off_c, 4, 35, 64
7, 113280, Note_on_c, 4, 40, 115
7, 113965, Note_off_c, 4, 40, 64
7, 114000, Note_on_c, 4, 43, 115
7, 114205, Note_off_c, 4, 43, 64
7, 114240, Note_on_c, 4, 44, 115
7, 114445, Note_off_c, 4, 44, 64
7, 114480, Note_on_c, 4, 47, 115
7, 114685, Note_off_c, 4, 47, 64
7, 114720, Note_on_c, 4, 52, 115
7, 114925, Note_off_c, 4, 52, 64
7, 114960, Note_on_c, 4, 50, 115
7, 115645, Note_off_c, 4, 50, 64
7, 115680, Note_on_c, 4, 47, 115
7, 115885, Note_off_c, 4, 47, 64
7, 115920, Note_on_c, 4, 54, 115
7, 116365, Note_off_c, 4, 54, 64
7, 116400, Note_on_c, 4, 47, 115
7, 116605, Note_off_c, 4, 47, 64
7, 116640, Note_on_c, 4, 50, 115
7, 116845, Note_off_c, 4, 50, 64
7, 116880, Note_on_c, 4, 52, 115
7, 117085, Note_off_c, 4, 52, 64
7, 117120, Note_on_c, 4, 40, 115
7, 117805, Note_off_c, 4, 40, 64
7, 117840, Note_on_c, 4, 43, 115
7, 118045, Note_off_c, 4, 43, 64
7, 118080, Note_on_c, 4, 44, 115
7, 118285, Note_off_c, 4, 44, 64
7, 118320, Note_on_c, 4, 47, 115
7, 118525, Note_off_c, 4, 47, 64
7, 118560, Note_on_c, 4, 52, 115
7, 118765, Note_off_c, 4, 52, 64
7, 118800, Note_on_c, 4, 50, 115
7, 119485, Note_off_c, 4, 50, 64
7, 119520, Note_on_c, 4, 47, 115
7, 119725, Note_off_c, 4, 47, 64
7, 119760, Note_on_c, 4, 54, 115
7, 120205, Note_off_c, 4, 54, 64
7, 120240, Note_on_c, 4, 47, 115
7, 120445, Note_off_c, 4, 47, 64
7, 120480, Note_on_c, 4, 50, 115
7, 120685, Note_off_c, 4, 50, 64
7, 120720, Note_on_c, 4, 52, 115
7, 120925, Note_off_c, 4, 52, 64
7, 120960, Note_on_c, 4, 40, 115
7, 121645, Note_off_c, 4, 40, 64
7, 121680, Note_on_c, 4, 43, 115
7, 121885, Note_off_c, 4, 43, 64
7, 121920, Note_on_c, 4, 44, 115
7, 122125, Note_off_c, 4, 44, 64
7, 122160, Note_on_c, 4, 47, 115
7, 122365, Note_off_c, 4, 47, 64
7, 122400, Note_on_c, 4, 52, 115
7, 122605, Note_off_c, 4, 52, 64
7, 122640, Note_on_c, 4, 50, 115
7, 123325, Note_off_c, 4, 50, 64
7, 123360, Note_on_c, 4, 47, 115
7, 123565, Note_off_c, 4, 47, 64
7, 123600, Note_on_c, 4, 54, 115
7, 124045, Note_off_c, 4, 54, 64
7, 124080, Note_on_c, 4, 47, 115
7, 124285, Note_off_c, 4, 47, 64
7, 124320, Note_on_c, 4, 50, 115
7, 124525, Note_off_c, 4, 50, 64
7, 124560, Note_on_c, 4, 52, 115
7, 124765, Note_off_c, 4, 52, 64
7, 124800, Note_on_c, 4, 40, 115
7, 125485, Note_off_c, 4, 40, 64
7, 125520, Note_on_c, 4, 43, 115
7, 125725, Note_off_c, 4, 43, 64
7, 125760, Note_on_c, 4, 44, 115
7, 125965, Note_off_c, 4, 44, 64
7, 126000, Note_on_c, 4, 47, 115
7, 126205, Note_off_c, 4, 47, 64
7, 126240, Note_on_c, 4, 52, 115
7, 126445, Note_off_c, 4, 52, 64
7, 126480, Note_on_c, 4, 50, 115
7, 127165, Note_off_c, 4, 50, 64
7, 127200, Note_on_c, 4, 47, 115
7, 127405, Note_off_c, 4, 47, 64
7, 127440, Note_on_c, 4, 54, 115
7, 127885, Note_off_c, 4, 54, 64
7, 127920, Note_on_c, 4, 47, 115
7, 128125, Note_off_c, 4, 47, 64
7, 128160, Note_on_c, 4, 50, 115
7, 128365, Note_off_c, 4, 50, 64
7, 128400, Note_on_c, 4, 52, 115
7, 128605, Note_off_c, 4, 52, 64
7, 128640, Note_on_c, 4, 33, 115
7, 129325, Note_off_c, 4, 33, 64
7, 129360, Note_on_c, 4, 36, 115
7, 129565, Note_off_c, 4, 36, 64
7, 129600, Note_on_c, 4, 37, 115
7, 129805, Note_off_c, 4, 37, 64
7, 129840, Note_on_c, 4, 40, 115
7, 130045, Note_off_c, 4, 40, 64
7, 130080, Note_on_c, 4, 45, 115
7, 130285, Note_off_c, 4, 45, 64
7, 130320, Note_on_c, 4, 43, 115
7, 131005, Note_off_c, 4, 43, 64
7, 131040, Note_on_c, 4, 40, 115
7, 131245, Note_off_c, 4, 40, 64
7, 131280, Note_on_c, 4, 47, 115
7, 131725, Note_off_c, 4, 47, 64
7, 131760, Note_on_c, 4, 40, 115
7, 131965, Note_off_c, 4, 40, 64
7, 132000, Note_on_c, 4, 43, 115
7, 132205, Note_off_c, 4, 43, 64
7, 132240, Note_on_c, 4, 45, 115
7, 132445, Note_off_c, 4, 45, 64
7, 132480, Note_on_c, 4, 40, 115
7, 133165, Note_off_c, 4, 40, 64
7, 133200, Note_on_c, 4, 43, 115
7, 133405, Note_off_c, 4, 43, 64
7, 133440, Note_on_c, 4, 44, 115
7, 133645, Note_off_c, 4, 44, 64
7, 133680, Note_on_c, 4, 47, 115
7, 133885, Note_off_c, 4, 47, 64
7, 133920, Note_on_c, 4, 52, 115
7, 134125, Note_off_c, 4, 52, 64
7, 134160, Note_on_c, 4, 50, 115
7, 134845, Note_off_c, 4, 50, 64
7, 134880, Note_on_c, 4, 47, 115
7, 135085, Note_off_c, 4, 47, 64
7, 135120, Note_on_c, 4, 54, 115
7, 135565, Note_off_c, 4, 54, 64
7, 135600, Note_on_c, 4, 47, 115
7, 135805, Note_off_c, 4, 47, 64
7, 135840, Note_on_c, 4, 50, 115
7, 136045, Note_off_c, 4, 50, 64
7, 136080, Note_on_c, 4, 52, 115
7, 136285, Note_off_c, 4, 52, 64
7, 136320, Note_on_c, 4, 42, 115
7, 136765, Note_off_c, 4, 42, 64
7, 136800, Note_on_c, 4, 46, 115
7, 137005, Note_off_c, 4, 46, 64
7, 137040, Note_on_c, 4, 49, 115
7, 137245, Note_off_c, 4, 49, 64
7, 137280, Note_on_c, 4, 52, 115
7, 137725, Note_off_c, 4, 52, 64
7, 137760, Note_on_c, 4, 51, 115
7, 137965, Note_off_c, 4, 51, 64
7, 138000, Note_on_c, 4, 54, 115
7, 138205, Note_off_c, 4, 54, 64
7, 138240, Note_on_c, 4, 42, 115
7, 138685, Note_off_c, 4, 42, 64
7, 138720, Note_on_c, 4, 46, 115
7, 138925, Note_off_c, 4, 46, 64
7, 138960, Note_on_c, 4, 49, 115
7, 139165, Note_off_c, 4, 49, 64
7, 139200, Note_on_c, 4, 52, 115
7, 139645, Note_off_c, 4, 52, 64
7, 139680, Note_on_c, 4, 51, 115
7, 139885, Note_off_c, 4, 51, 64
7, 139920, Note_on_c, 4, 54, 115
7, 140125, Note_off_c, 4, 54, 64
7, 140160, Note_on_c, 4, 42, 115
7, 140605, Note_off_c, 4, 42, 64
7, 140640, Note_on_c, 4, 46, 115
7, 140845, Note_off_c, 4, 46, 64
7, 140880, Note_on_c, 4, 49, 115
7, 141085, Note_off_c, 4, 49, 64
7, 141120, Note_on_c, 4, 52, 115
7, 141565, Note_off_c, 4, 52, 64
7, 141600, Note_on_c, 4, 51, 115
7, 141805, Note_off_c, 4, 51, 64
7, 141840, Note_on_c, 4, 54, 115
7, 142045, Note_off_c, 4, 54, 64
7, 142080, Note_on_c, 4, 42, 115
7, 142525, Note_off_c, 4, 42, 64
7, 142560, Note_on_c, 4, 46, 115
7, 142765, Note_off_c, 4, 46, 64
7, 142800, Note_on_c, 4, 49, 115
7, 143005, Note_off_c, 4, 49, 64
7, 143040, Note_on_c, 4, 52, 115
7, 143485, Note_off_c, 4, 52, 64
7, 143520, Note_on_c, 4, 51, 115
7, 143725, Note_off_c, 4, 51, 64
7, 143760, Note_on_c, 4, 54, 115
7, 143965, Note_off_c, 4, 54, 64
7, 144000, Note_on_c, 4, 33, 115
7, 144445, Note_off_c, 4, 33, 64
7, 144480, Note_on_c, 4, 37, 115
7, 144685, Note_off_c, 4, 37, 64
7, 144720, Note_on_c, 4, 40, 115
7, 144925, Note_off_c, 4, 40, 64
7, 144960, Note_on_c, 4, 43, 115
7, 145405, Note_off_c, 4, 43, 64
7, 145440, Note_on_c, 4, 42, 115
7, 145645, Note_off_c, 4, 42, 64
7, 145680, Note_on_c, 4, 45, 115
7, 145885, Note_off_c, 4, 45, 64
7, 145920, Note_on_c, 4, 32, 115
7, 146365, Note_off_c, 4, 32, 64
7, 146400, Note_on_c, 4, 36, 115
7, 146605, Note_off_c, 4, 36, 64
7, 146640, Note_on_c, 4, 39, 115
7, 146845, Note_off_c, 4, 39, 64
7, 146880, Note_on_c, 4, 42, 115
7, 147325, Note_off_c, 4, 42, 64
7, 147360, Note_on_c, 4, 40, 115
7, 147385, Note_off_c, 4, 40, 64
7, 147420, Note_on_c, 4, 41, 115
7, 147565, Note_off_c, 4, 41, 64
7, 147600, Note_on_c, 4, 44, 115
7, 147805, Note_off_c, 4, 44, 64
7, 147840, Note_on_c, 4, 37, 115
7, 148285, Note_off_c, 4, 37, 64
7, 148320, Note_on_c, 4, 41, 115
7, 148765, Note_off_c, 4, 41, 64
7, 148800, Note_on_c, 4, 44, 115
7, 149005, Note_off_c, 4, 44, 64
7, 149040, Note_on_c, 4, 44, 115
7, 149245, Note_off_c, 4, 44, 64
7, 149280, Note_on_c, 4, 37, 115
7, 149725, Note_off_c, 4, 37, 64
7, 149760, Note_on_c, 4, 35, 115
7, 150205, Note_off_c, 4, 35, 64
7, 150240, Note_on_c, 4, 39, 115
7, 150685, Note_off_c, 4, 39, 64
7, 150720, Note_on_c, 4, 42, 115
7, 150925, Note_off_c, 4, 42, 64
7, 150960, Note_on_c, 4, 42, 115
7, 151165, Note_off_c, 4, 42, 64
7, 151200, Note_on_c, 4, 39, 115
7, 151645, Note_off_c, 4, 39, 64
7, 155520, Note_on_c, 4, 40, 115
7, 156205, Note_off_c, 4, 40, 64
7, 156240, Note_on_c, 4, 43, 115
7, 156445, Note_off_c, 4, 43, 64
7, 156480, Note_on_c, 4, 44, 115
7, 156685, Note_off_c, 4, 44, 64
7, 156720, Note_on_c, 4, 47, 115
7, 156925, Note_off_c, 4, 47, 64
7, 156960, Note_on_c, 4, 52, 115
7, 157165, Note_off_c, 4, 52, 64
7, 157200, Note_on_c, 4, 50, 115
7, 157885, Note_off_c, 4, 50, 64
7, 157920, Note_on_c, 4, 47, 115
7, 158125, Note_off_c, 4, 47, 64
7, 158160, Note_on_c, 4, 54, 115
7, 158605, Note_off_c, 4, 54, 64
7, 158640, Note_on_c, 4, 47, 115
7, 158845, Note_off_c, 4, 47, 64
7, 158880, Note_on_c, 4, 50, 115
7, 159085, Note_off_c, 4, 50, 64
7, 159120, Note_on_c, 4, 52, 115
7, 159325, Note_off_c, 4, 52, 64
7, 159360, Note_on_c, 4, 40, 115
7, 160045, Note_off_c, 4, 40, 64
7, 160080, Note_on_c, 4, 43, 115
7, 160285, Note_off_c, 4, 43, 64
7, 160320, Note_on_c, 4, 44, 115
7, 160525, Note_off_c, 4, 44, 64
7, 160560, Note_on_c, 4, 47, 115
7, 160765, Note_off_c, 4, 47, 64
7, 160800, Note_on_c, 4, 52, 115
7, 161005, Note_off_c, 4, 52, 64
7, 161040, Note_on_c, 4, 50, 115
7, 161725, Note_off_c, 4, 50, 64
7, 161760, Note_on_c, 4, 47, 115
7, 161965, Note_off_c, 4, 47, 64
7, 162000, Note_on_c, 4, 54, 115
7, 162445, Note_off_c, 4, 54, 64
7, 162480, Note_on_c, 4, 47, 115
7, 162685, Note_off_c, 4, 47, 64
7, 162720, Note_on_c, 4, 50, 115
7, 162925, Note_off_c, 4, 50, 64
7, 162960, Note_on_c, 4, 52, 115
7, 163165, Note_off_c, 4, 52, 64
7, 163200, Note_on_c, 4, 40, 115
7, 163885, Note_off_c, 4, 40, 64
7, 163920, Note_on_c, 4, 43, 115
7, 164125, Note_off_c, 4, 43, 64
7, 164160, Note_on_c, 4, 44, 115
7, 164365, Note_off_c, 4, 44, 64
7, 164400, Note_on_c, 4, 47, 115
7, 164605, Note_off_c, 4, 47, 64
7, 164640, Note_on_c, 4, 52, 115
7, 164845, Note_off_c, 4, 52, 64
7, 164880, Note_on_c, 4, 50, 115
7, 165565, Note_off_c, 4, 50, 64
7, 165600, Note_on_c, 4, 47, 115
7, 165805, Note_off_c, 4, 47, 64
7, 165840, Note_on_c, 4, 54, 115
7, 166285, Note_off_c, 4, 54, 64
7, 166320, Note_on_c, 4, 47, 115
7, 166525, Note_off_c, 4, 47, 64
7, 166560, Note_on_c, 4, 50, 115
7, 166765, Note_off_c, 4, 50, 64
7, 166800, Note_on_c, 4, 52, 115
7, 167005, Note_off_c, 4, 52, 64
7, 167040, Note_on_c, 4, 40, 115
7, 167725, Note_off_c, 4, 40, 64
7, 167760, Note_on_c, 4, 43, 115
7, 167965, Note_off_c, 4, 43, 64
7, 168000, Note_on_c, 4, 44, 115
7, 168205, Note_off_c, 4, 44, 64
7, 168240, Note_on_c, 4, 47, 115
7, 168445, Note_off_c, 4, 47, 64
7, 168480, Note_on_c, 4, 52, 115
7, 168685, Note_off_c, 4, 52, 64
7, 168720, Note_on_c, 4, 50, 115
7, 169405, Note_off_c, 4, 50, 64
7, 169440, Note_on_c, 4, 47, 115
7, 169645, Note_off_c, 4, 47, 64
7, 169680, Note_on_c, 4, 54, 115
7, 170125, Note_off_c, 4, 54, 64
7, 170160, Note_on_c, 4, 47, 115
7, 170365, Note_off_c, 4, 47, 64
7, 170400, Note_on_c, 4, 50, 115
7, 170605, Note_off_c, 4, 50, 64
7, 170640, Note_on_c, 4, 52, 115
7, 170845, Note_off_c, 4, 52, 64
7, 170880, Note_on_c, 4, 40, 115
7, 171565, Note_off_c, 4, 40, 64
7, 171600, Note_on_c, 4, 43, 115
7, 171805, Note_off_c, 4, 43, 64
7, 171840, Note_on_c, 4, 44, 115
7, 172045, Note_off_c, 4, 44, 64
7, 172080, Note_on_c, 4, 47, 115
7, 172285, Note_off_c, 4, 47, 64
7, 172320, Note_on_c, 4, 52, 115
7, 172525, Note_off_c, 4, 52, 64
7, 172560, Note_on_c, 4, 50, 115
7, 173245, Note_off_c, 4, 50, 64
7, 173280, Note_on_c, 4, 47, 115
7, 173485, Note_off_c, 4, 47, 64
7, 173520, Note_on_c, 4, 54, 115
7, 173965, Note_off_c, 4, 54, 64
7, 174000, Note_on_c, 4, 47, 115
7, 174205, Note_off_c, 4, 47, 64
7, 174240, Note_on_c, 4, 50, 115
7, 174445, Note_off_c, 4, 50, 64
7, 174480, Note_on_c, 4, 52, 115
7, 174685, Note_off_c, 4, 52, 64
7, 174720, Note_on_c, 4, 40, 115
7, 175405, Note_off_c, 4, 40, 64
7, 175440, Note_on_c, 4, 43, 115
7, 175645, Note_off_c, 4, 43, 64
7, 175680, Note_on_c, 4, 44, 115
7, 175885, Note_off_c, 4, 44, 64
7, 175920, Note_on_c, 4, 47, 115
7, 176125, Note_off_c, 4, 47, 64
7, 176160, Note_on_c, 4, 52, 115
7, 176365, Note_off_c, 4, 52, 64
7, 176400, Note_on_c, 4, 50, 115
7, 177085, Note_off_c, 4, 50, 64
7, 177120, Note_on_c, 4, 47, 115
7, 177325, Note_off_c, 4, 47, 64
7, 177360, Note_on_c, 4, 54, 115
7, 177805, Note_off_c, 4, 54, 64
7, 177840, Note_on_c, 4, 47, 115
7, 178045, Note_off_c, 4, 47, 64
7, 178080, Note_on_c, 4, 50, 115
7, 178285, Note_off_c, 4, 50, 64
7, 178320, Note_on_c, 4, 52, 115
7, 178525, Note_off_c, 4, 52, 64
7, 178560, Note_on_c, 4, 40, 115
7, 179245, Note_off_c, 4, 40, 64
7, 179280, Note_on_c, 4, 43, 115
7, 179485, Note_off_c, 4, 43, 64
7, 179520, Note_on_c, 4, 44, 115
7, 179725, Note_off_c, 4, 44, 64
7, 179760, Note_on_c, 4, 47, 115
7, 179965, Note_off_c, 4, 47, 64
7, 180000, Note_on_c, 4, 52, 115
7, 180205, Note_off_c, 4, 52, 64
7, 180240, Note_on_c, 4, 50, 115
7, 180480, Control_c, 4, 7, 120
7, 180750, Control_c, 4, 7, 119
7, 180925, Note_off_c, 4, 50, 64
7, 180960, Note_on_c, 4, 47, 115
7, 181025, Control_c, 4, 7, 118
7, 181165, Note_off_c, 4, 47, 64
7, 181200, Note_on_c, 4, 54, 115
7, 181295, Control_c, 4, 7, 117
7, 181570, Control_c, 4, 7, 116
7, 181645, Note_off_c, 4, 54, 64
7, 181680, Note_on_c, 4, 47, 115
7, 181840, Control_c, 4, 7, 115
7, 181885, Note_off_c, 4, 47, 64
7, 181920, Note_on_c, 4, 50, 115
7, 182110, Control_c, 4, 7, 114
7, 182125, Note_off_c, 4, 50, 64
7, 182160, Note_on_c, 4, 52, 115
7, 182365, Note_off_c, 4, 52, 64
7, 182385, Control_c, 4, 7, 113
7, 182400, Note_on_c, 4, 40, 115
7, 182655, Control_c, 4, 7, 112
7, 182930, Control_c, 4, 7, 111
7, 183085, Note_off_c, 4, 40, 64
7, 183120, Note_on_c, 4, 43, 115
7, 183200, Control_c, 4, 7, 110
7, 183325, Note_off_c, 4, 43, 64
7, 183360, Note_on_c, 4, 44, 115
7, 183470, Control_c, 4, 7, 109
7, 183565, Note_off_c, 4, 44, 64
7, 183600, Note_on_c, 4, 47, 115
7, 183745, Control_c, 4, 7, 108
7, 183805, Note_off_c, 4, 47, 64
7, 183840, Note_on_c, 4, 52, 115
7, 184015, Control_c, 4, 7, 107
7, 184045, Note_off_c, 4, 52, 64
7, 184080, Note_on_c, 4, 50, 115
7, 184285, Control_c, 4, 7, 106
7, 184560, Control_c, 4, 7, 105
7, 184765, Note_off_c, 4, 50, 64
7, 184800, Note_on_c, 4, 47, 115
7, 184830, Control_c, 4, 7, 104
7, 185005, Note_off_c, 4, 47, 64
7, 185040, Note_on_c, 4, 54, 115
7, 185105, Control_c, 4, 7, 103
7, 185375, Control_c, 4, 7, 102
7, 185485, Note_off_c, 4, 54, 64
7, 185520, Note_on_c, 4, 47, 115
7, 185645, Control_c, 4, 7, 101
7, 185725, Note_off_c, 4, 47, 64
7, 185760, Note_on_c, 4, 50, 115
7, 185920, Control_c, 4, 7, 100
7, 185965, Note_off_c, 4, 50, 64
7, 186000, Note_on_c, 4, 52, 115
7, 186190, Control_c, 4, 7, 99
7, 186205, Note_off_c, 4, 52, 64
7, 186240, Note_on_c, 4, 40, 115
7, 186465, Control_c, 4, 7, 98
7, 186735, Control_c, 4, 7, 97
7, 186925, Note_off_c, 4, 40, 64
7, 186960, Note_on_c, 4, 43, 115
7, 187005, Control_c, 4, 7, 96
7, 187165, Note_off_c, 4, 43, 64
7, 187200, Note_on_c, 4, 44, 115
7, 187280, Control_c, 4, 7, 95
7, 187405, Note_off_c, 4, 44, 64
7, 187440, Note_on_c, 4, 47, 115
7, 187550, Control_c, 4, 7, 94
7, 187645, Note_off_c, 4, 47, 64
7, 187680, Note_on_c, 4, 52, 115
7, 187825, Control_c, 4, 7, 93
7, 187885, Note_off_c, 4, 52, 64
7, 187920, Note_on_c, 4, 50, 115
7, 188095, Control_c, 4, 7, 92
7, 188365, Control_c, 4, 7, 91
7, 188605, Note_off_c, 4, 50, 64
7, 188640, Control_c, 4, 7, 90
7, 188640, Note_on_c, 4, 47, 115
7, 188845, Note_off_c, 4, 47, 64
7, 188880, Note_on_c, 4, 54, 115
7, 188910, Control_c, 4, 7, 89
7, 189185, Control_c, 4, 7, 88
7, 189325, Note_off_c, 4, 54, 64
7, 189360, Note_on_c, 4, 47, 115
7, 189455, Control_c, 4, 7, 87
7, 189565, Note_off_c, 4, 47, 64
7, 189600, Note_on_c, 4, 50, 115
7, 189725, Control_c, 4, 7, 86
7, 189805, Note_off_c, 4, 50, 64
7, 189840, Note_on_c, 4, 52, 115
7, 190000, Control_c, 4, 7, 85
7, 190045, Note_off_c, 4, 52, 64
7, 190080, Note_on_c, 4, 40, 115
7, 190270, Control_c, 4, 7, 84
7, 190540, Control_c, 4, 7, 83
7, 190765, Note_off_c, 4, 40, 64
7, 190800, Note_on_c, 4, 43, 115
7, 190815, Control_c, 4, 7, 82
7, 191005, Note_off_c, 4, 43, 64
7, 191040, Note_on_c, 4, 44, 115
7, 191085, Control_c, 4, 7, 81
7, 191245, Note_off_c, 4, 44, 64
7, 191280, Note_on_c, 4, 47, 115
7, 191360, Control_c, 4, 7, 80
7, 191485, Note_off_c, 4, 47, 64
7, 191520, Note_on_c, 4, 52, 115
7, 191630, Control_c, 4, 7, 79
7, 191725, Note_off_c, 4, 52, 64
7, 191760, Note_on_c, 4, 50, 115
7, 191900, Control_c, 4, 7, 78
7, 192175, Control_c, 4, 7, 77
7, 192445, Note_off_c, 4, 50, 64
7, 192445, Control_c, 4, 7, 76
7, 192480, Note_on_c, 4, 47, 115
7, 192685, Note_off_c, 4, 47, 64
7, 192720, Control_c, 4, 7, 75
7, 192720, Note_on_c, 4, 54, 115
7, 192990, Control_c, 4, 7, 74
7, 193165, Note_off_c, 4, 54, 64
7, 193200, Note_on_c, 4, 47, 115
7, 193260, Control_c, 4, 7, 73
7, 193405, Note_off_c, 4, 47, 64
7, 193440, Note_on_c, 4, 50, 115
7, 193535, Control_c, 4, 7, 72
7, 193645, Note_off_c, 4, 50, 64
7, 193680, Note_on_c, 4, 52, 115
7, 193805, Control_c, 4, 7, 71
7, 193885, Note_off_c, 4, 52, 64
7, 193920, Note_on_c, 4, 40, 115
7, 194080, Control_c, 4, 7, 70
7, 194350, Control_c, 4, 7, 69
7, 194605, Note_off_c, 4, 40, 64
7, 194620, Control_c, 4, 7, 68
7, 194640, Note_on_c, 4, 43, 115
7, 194845, Note_off_c, 4, 43, 64
7, 194880, Note_on_c, 4, 44, 115
7, 194895, Control_c, 4, 7, 67
7, 195085, Note_off_c, 4, 44, 64
7, 195120, Note_on_c, 4, 47, 115
7, 195165, Control_c, 4, 7, 66
7, 195325, Note_off_c, 4, 47, 64
7, 195360, Note_on_c, 4, 52, 115
7, 195440, Control_c, 4, 7, 65
7, 195565, Note_off_c, 4, 52, 64
7, 195600, Note_on_c, 4, 50, 115
7, 195710, Control_c, 4, 7, 64
7, 195980, Control_c, 4, 7, 63
7, 196255, Control_c, 4, 7, 62
7, 196285, Note_off_c, 4, 50, 64
7, 196320, Note_on_c, 4, 47, 115
7, 196525, Note_off_c, 4, 47, 64
7, 196525, Control_c, 4, 7, 61
7, 196560, Note_on_c, 4, 54, 115
7, 196800, Control_c, 4, 7, 60
7, 197005, Note_off_c, 4, 54, 64
7, 197040, Note_on_c, 4, 47, 115
7, 197070, Control_c, 4, 7, 59
7, 197245, Note_off_c, 4, 47, 64
7, 197280, Note_on_c, 4, 50, 115
7, 197340, Control_c, 4, 7, 58
7, 197485, Note_off_c, 4, 50, 64
7, 197520, Note_on_c, 4, 52, 115
7, 197615, Control_c, 4, 7, 57
7, 197725, Note_off_c, 4, 52, 64
7, 197760, Note_on_c, 4, 40, 115
7, 197885, Control_c, 4, 7, 56
7, 198155, Control_c, 4, 7, 55
7, 198430, Control_c, 4, 7, 54
7, 198445, Note_off_c, 4, 40, 64
7, 198480, Note_on_c, 4, 43, 115
7, 198685, Note_off_c, 4, 43, 64
7, 198700, Control_c, 4, 7, 53
7, 198720, Note_on_c, 4, 44, 115
7, 198925, Note_off_c, 4, 44, 64
7, 198960, Note_on_c, 4, 47, 115
7, 198975, Control_c, 4, 7, 52
7, 199165, Note_off_c, 4, 47, 64
7, 199200, Note_on_c, 4, 52, 115
7, 199245, Control_c, 4, 7, 51
7, 199405, Note_off_c, 4, 52, 64
7, 199440, Note_on_c, 4, 50, 115
7, 199515, Control_c, 4, 7, 50
7, 199790, Control_c, 4, 7, 49
7, 200060, Control_c, 4, 7, 48
7, 200125, Note_off_c, 4, 50, 64
7, 200160, Note_on_c, 4, 47, 115
7, 200335, Control_c, 4, 7, 47
7, 200365, Note_off_c, 4, 47, 64
7, 200400, Note_on_c, 4, 54, 115
7, 200605, Control_c, 4, 7, 46
7, 200845, Note_off_c, 4, 54, 64
7, 200875, Control_c, 4, 7, 45
7, 200880, Note_on_c, 4, 47, 115
7, 201085, Note_off_c, 4, 47, 64
7, 201120, Note_on_c, 4, 50, 115
7, 201150, Control_c, 4, 7, 44
7, 201325, Note_off_c, 4, 50, 64
7, 201360, Note_on_c, 4, 52, 115
7, 201420, Control_c, 4, 7, 43
7, 201565, Note_off_c, 4, 52, 64
7, 201600, Note_on_c, 4, 40, 115
7, 201695, Control_c, 4, 7, 42
7, 201965, Control_c, 4, 7, 41
7, 202235, Control_c, 4, 7, 40
7, 202285, Note_off_c, 4, 40, 64
7, 202320, Note_on_c, 4, 43, 115
7, 202510, Control_c, 4, 7, 39
7, 202525, Note_off_c, 4, 43, 64
7, 202560, Note_on_c, 4, 44, 115
7, 202765, Note_off_c, 4, 44, 64
7, 202780, Control_c, 4, 7, 38
7, 202800, Note_on_c, 4, 47, 115
7, 203005, Note_off_c, 4, 47, 64
7, 203040, Note_on_c, 4, 52, 115
7, 203055, Control_c, 4, 7, 37
7, 203245, Note_off_c, 4, 52, 64
7, 203280, Note_on_c, 4, 50, 115
7, 203325, Control_c, 4, 7, 36
7, 203595, Control_c, 4, 7, 35
7, 203870, Control_c, 4, 7, 34
7, 203965, Note_off_c, 4, 50, 64
7, 204000, Note_on_c, 4, 47, 115
7, 204140, Control_c, 4, 7, 33
7, 204205, Note_off_c, 4, 47, 64
7, 204240, Note_on_c, 4, 54, 115
7, 204410, Control_c, 4, 7, 32
7, 204685, Note_off_c, 4, 54, 64
7, 204685, Control_c, 4, 7, 31
7, 204720, Note_on_c, 4, 47, 115
7, 204925, Note_off_c, 4, 47, 64
7, 204955, Control_c, 4, 7, 30
7, 204960, Note_on_c, 4, 50, 115
7, 205165, Note_off_c, 4, 50, 64
7, 205200, Note_on_c, 4, 52, 115
7, 205230, Control_c, 4, 7, 29
7, 205405, Note_off_c, 4, 52, 64
7, 205440, Note_on_c, 4, 40, 115
7, 205500, Control_c, 4, 7, 28
7, 205770, Control_c, 4, 7, 27
7, 206045, Control_c, 4, 7, 26
7, 206125, Note_off_c, 4, 40, 64
7, 206160, Note_on_c, 4, 43, 115
7, 206315, Control_c, 4, 7, 25
7, 206365, Note_off_c, 4, 43, 64
7, 206400, Note_on_c, 4, 44, 115
7, 206590, Control_c, 4, 7, 24
7, 206605, Note_off_c, 4, 44, 64
7, 206640, Note_on_c, 4, 47, 115
7, 206845, Note_off_c, 4, 47, 64
7, 206860, Control_c, 4, 7, 23
7, 206880, Note_on_c, 4, 52, 115
7, 207085, Note_off_c, 4, 52, 64
7, 207120, Note_on_c, 4, 50, 115
7, 207130, Control_c, 4, 7, 22
7, 207405, Control_c, 4, 7, 21
7, 207675, Control_c, 4, 7, 20
7, 207805, Note_off_c, 4, 50, 64
7, 207840, Note_on_c, 4, 47, 115
7, 207950, Control_c, 4, 7, 19
7, 208045, Note_off_c, 4, 47, 64
7, 208080, Note_on_c, 4, 54, 115
7, 208220, Control_c, 4, 7, 18
7, 208490, Control_c, 4, 7, 17
7, 208525, Note_off_c, 4, 54, 64
7, 208560, Note_on_c, 4, 47, 115
7, 208765, Note_off_c, 4, 47, 64
7, 208765, Control_c, 4, 7, 16
7, 208800, Note_on_c, 4, 50, 115
7, 209005, Note_off_c, 4, 50, 64
7, 209035, Control_c, 4, 7, 15
7, 209040, Note_on_c, 4, 52, 115
7, 209245, Note_off_c, 4, 52, 64
7, 209280, Note_on_c, 4, 40, 115
7, 209310, Control_c, 4, 7, 14
7, 209580, Control_c, 4, 7, 13
7, 209850, Control_c, 4, 7, 12
7, 209965, Note_off_c, 4, 40, 64
7, 210000, Note_on_c, 4, 43, 115
7, 210125, Control_c, 4, 7, 11
7, 210205, Note_off_c, 4, 43, 64
7, 210240, Note_on_c, 4, 44, 115
7, 210395, Control_c, 4, 7, 10
7, 210445, Note_off_c, 4, 44, 64
7, 210480, Note_on_c, 4, 47, 115
7, 210665, Control_c, 4, 7, 9
7, 210685, Note_off_c, 4, 47, 64
7, 210720, Note_on_c, 4, 52, 115
7, 210925, Note_off_c, 4, 52, 64
7, 210940, Control_c, 4, 7, 8
7, 210960, Note_on_c, 4, 50, 115
7, 211210, Control_c, 4, 7, 7
7, 211485, Control_c, 4, 7, 6
7, 211645, Note_off_c, 4, 50, 64
7, 211680, Note_on_c, 4, 47, 115
7, 211755, Control_c, 4, 7, 5
7, 211885, Note_off_c, 4, 47, 64
7, 211920, Note_on_c, 4, 54, 115
7, 212025, Control_c, 4, 7, 4
7, 212300, Control_c, 4, 7, 3
7, 212365, Note_off_c, 4, 54, 64
7, 212400, Note_on_c, 4, 47, 115
7, 212570, Control_c, 4, 7, 2
7, 212605, Note_off_c, 4, 47, 64
7, 212640, Note_on_c, 4, 50, 115
7, 212845, Note_off_c, 4, 50, 64
7, 212845, Control_c, 4, 7, 1
7, 212880, Note_on_c, 4, 52, 115
7, 213085, Note_off_c, 4, 52, 64
7, 213115, Control_c, 4, 7, 0
7, 213115, End_track
8, 0, Start_track
8, 0, Title_t, "Voc1 Oohs"
8, 0, MIDI_port, 0
8, 0, Channel_prefix, 5
8, 480, Control_c, 5, 93, 110
8, 480, Control_c, 5, 91, 45
8, 480, Control_c, 5, 10, 11
8, 480, Control_c, 5, 7, 100
8, 480, Program_c, 5, 24
8, 21120, Note_on_c, 5, 69, 127
8, 21340, Note_off_c, 5, 69, 64
8, 21360, Note_on_c, 5, 68, 127
8, 21580, Note_off_c, 5, 68, 64
8, 21600, Note_on_c, 5, 66, 127
8, 21820, Note_off_c, 5, 66, 64
8, 21840, Note_on_c, 5, 64, 127
8, 22300, Note_off_c, 5, 64, 64
8, 22320, Note_on_c, 5, 64, 127
8, 23020, Note_off_c, 5, 64, 64
8, 24720, Note_on_c, 5, 64, 127
8, 24940, Note_off_c, 5, 64, 64
8, 24960, Note_on_c, 5, 69, 127
8, 25180, Note_off_c, 5, 69, 64
8, 25200, Note_on_c, 5, 68, 127
8, 25420, Note_off_c, 5, 68, 64
8, 25440, Note_on_c, 5, 66, 127
8, 25660, Note_off_c, 5, 66, 64
8, 25680, Note_on_c, 5, 64, 127
8, 26140, Note_off_c, 5, 64, 64
8, 26160, Note_on_c, 5, 56, 127
8, 26380, Note_off_c, 5, 56, 64
8, 26400, Note_on_c, 5, 56, 127
8, 26620, Note_off_c, 5, 56, 64
8, 26640, Note_on_c, 5, 56, 127
8, 27340, Note_off_c, 5, 56, 64
8, 28800, Note_on_c, 5, 69, 127
8, 29020, Note_off_c, 5, 69, 64
8, 29040, Note_on_c, 5, 68, 127
8, 29260, Note_off_c, 5, 68, 64
8, 29280, Note_on_c, 5, 66, 127
8, 29500, Note_off_c, 5, 66, 64
8, 29520, Note_on_c, 5, 64, 127
8, 29980, Note_off_c, 5, 64, 64
8, 30000, Note_on_c, 5, 57, 127
8, 30700, Note_off_c, 5, 57, 64
8, 32400, Note_on_c, 5, 64, 127
8, 32620, Note_off_c, 5, 64, 64
8, 32640, Note_on_c, 5, 69, 127
8, 32860, Note_off_c, 5, 69, 64
8, 32880, Note_on_c, 5, 68, 127
8, 33100, Note_off_c, 5, 68, 64
8, 33120, Note_on_c, 5, 66, 127
8, 33340, Note_off_c, 5, 66, 64
8, 33360, Note_on_c, 5, 64, 127
8, 33820, Note_off_c, 5, 64, 64
8, 33840, Note_on_c, 5, 56, 127
8, 34060, Note_off_c, 5, 56, 64
8, 34080, Note_on_c, 5, 56, 127
8, 34300, Note_off_c, 5, 56, 64
8, 34320, Note_on_c, 5, 56, 127
8, 34780, Note_off_c, 5, 56, 64
8, 34800, Note_on_c, 5, 56, 127
8, 35500, Note_off_c, 5, 56, 64
8, 35760, Note_on_c, 5, 59, 127
8, 35980, Note_off_c, 5, 59, 64
8, 36000, Note_on_c, 5, 62, 127
8, 36220, Note_off_c, 5, 62, 64
8, 36240, Note_on_c, 5, 59, 127
8, 36460, Note_off_c, 5, 59, 64
8, 36480, Note_on_c, 5, 73, 127
8, 37660, Note_off_c, 5, 73, 64
8, 37680, Note_on_c, 5, 71, 127
8, 37900, Note_off_c, 5, 71, 64
8, 37920, Note_on_c, 5, 73, 127
8, 38380, Note_off_c, 5, 73, 64
8, 38400, Note_on_c, 5, 71, 127
8, 38620, Note_off_c, 5, 71, 64
8, 38640, Note_on_c, 5, 73, 127
8, 39340, Note_off_c, 5, 73, 64
8, 40320, Note_on_c, 5, 75, 127
8, 40540, Note_off_c, 5, 75, 64
8, 40560, Note_on_c, 5, 73, 127
8, 41020, Note_off_c, 5, 73, 64
8, 41040, Note_on_c, 5, 71, 127
8, 41500, Note_off_c, 5, 71, 64
8, 41520, Note_on_c, 5, 73, 127
8, 41980, Note_off_c, 5, 73, 64
8, 42000, Note_on_c, 5, 68, 127
8, 42700, Note_off_c, 5, 68, 64
8, 43440, Note_on_c, 5, 61, 127
8, 43660, Note_off_c, 5, 61, 64
8, 43680, Note_on_c, 5, 64, 127
8, 43900, Note_off_c, 5, 64, 64
8, 43920, Note_on_c, 5, 61, 127
8, 44140, Note_off_c, 5, 61, 64
8, 44160, Note_on_c, 5, 69, 127
8, 46060, Note_off_c, 5, 69, 64
8, 46080, Note_on_c, 5, 68, 127
8, 46540, Note_off_c, 5, 68, 64
8, 47280, Note_on_c, 5, 56, 127
8, 47500, Note_off_c, 5, 56, 64
8, 47520, Note_on_c, 5, 65, 127
8, 47740, Note_off_c, 5, 65, 64
8, 47760, Note_on_c, 5, 65, 127
8, 48460, Note_off_c, 5, 65, 64
8, 49200, Note_on_c, 5, 65, 127
8, 49300, Note_off_c, 5, 65, 64
8, 49320, Note_on_c, 5, 65, 127
8, 49540, Note_off_c, 5, 65, 64
8, 49560, Note_on_c, 5, 65, 127
8, 49900, Note_off_c, 5, 65, 64
8, 49920, Note_on_c, 5, 63, 127
8, 50380, Note_off_c, 5, 63, 64
8, 59520, Note_on_c, 5, 69, 127
8, 59740, Note_off_c, 5, 69, 64
8, 59760, Note_on_c, 5, 68, 127
8, 59980, Note_off_c, 5, 68, 64
8, 60000, Note_on_c, 5, 66, 127
8, 60220, Note_off_c, 5, 66, 64
8, 60240, Note_on_c, 5, 64, 127
8, 60700, Note_off_c, 5, 64, 64
8, 60720, Note_on_c, 5, 64, 127
8, 61420, Note_off_c, 5, 64, 64
8, 63120, Note_on_c, 5, 64, 127
8, 63340, Note_off_c, 5, 64, 64
8, 63360, Note_on_c, 5, 69, 127
8, 63580, Note_off_c, 5, 69, 64
8, 63600, Note_on_c, 5, 68, 127
8, 63820, Note_off_c, 5, 68, 64
8, 63840, Note_on_c, 5, 66, 127
8, 64060, Note_off_c, 5, 66, 64
8, 64080, Note_on_c, 5, 64, 127
8, 64540, Note_off_c, 5, 64, 64
8, 64560, Note_on_c, 5, 56, 127
8, 64780, Note_off_c, 5, 56, 64
8, 64800, Note_on_c, 5, 56, 127
8, 65020, Note_off_c, 5, 56, 64
8, 65040, Note_on_c, 5, 56, 127
8, 65740, Note_off_c, 5, 56, 64
8, 67200, Note_on_c, 5, 69, 127
8, 67420, Note_off_c, 5, 69, 64
8, 67440, Note_on_c, 5, 68, 127
8, 67660, Note_off_c, 5, 68, 64
8, 67680, Note_on_c, 5, 66, 127
8, 67900, Note_off_c, 5, 66, 64
8, 67920, Note_on_c, 5, 64, 127
8, 68380, Note_off_c, 5, 64, 64
8, 68400, Note_on_c, 5, 57, 127
8, 69100, Note_off_c, 5, 57, 64
8, 70800, Note_on_c, 5, 64, 127
8, 71020, Note_off_c, 5, 64, 64
8, 71040, Note_on_c, 5, 69, 127
8, 71260, Note_off_c, 5, 69, 64
8, 71280, Note_on_c, 5, 68, 127
8, 71500, Note_off_c, 5, 68, 64
8, 71520, Note_on_c, 5, 66, 127
8, 71740, Note_off_c, 5, 66, 64
8, 71760, Note_on_c, 5, 64, 127
8, 72220, Note_off_c, 5, 64, 64
8, 72240, Note_on_c, 5, 56, 127
8, 72460, Note_off_c, 5, 56, 64
8, 72480, Note_on_c, 5, 56, 127
8, 72700, Note_off_c, 5, 56, 64
8, 72720, Note_on_c, 5, 56, 127
8, 73180, Note_off_c, 5, 56, 64
8, 73200, Note_on_c, 5, 56, 127
8, 73900, Note_off_c, 5, 56, 64
8, 74160, Note_on_c, 5, 59, 127
8, 74380, Note_off_c, 5, 59, 64
8, 74400, Note_on_c, 5, 62, 127
8, 74620, Note_off_c, 5, 62, 64
8, 74640, Note_on_c, 5, 59, 127
8, 74860, Note_off_c, 5, 59, 64
8, 74880, Note_on_c, 5, 73, 127
8, 76060, Note_off_c, 5, 73, 64
8, 76080, Note_on_c, 5, 71, 127
8, 76300, Note_off_c, 5, 71, 64
8, 76320, Note_on_c, 5, 73, 127
8, 76780, Note_off_c, 5, 73, 64
8, 76800, Note_on_c, 5, 71, 127
8, 77020, Note_off_c, 5, 71, 64
8, 77040, Note_on_c, 5, 73, 127
8, 77740, Note_off_c, 5, 73, 64
8, 78720, Note_on_c, 5, 75, 127
8, 78940, Note_off_c, 5, 75, 64
8, 78960, Note_on_c, 5, 73, 127
8, 79420, Note_off_c, 5, 73, 64
8, 79440, Note_on_c, 5, 71, 127
8, 79900, Note_off_c, 5, 71, 64
8, 79920, Note_on_c, 5, 73, 127
8, 80380, Note_off_c, 5, 73, 64
8, 80400, Note_on_c, 5, 68, 127
8, 81100, Note_off_c, 5, 68, 64
8, 81840, Note_on_c, 5, 61, 127
8, 82060, Note_off_c, 5, 61, 64
8, 82080, Note_on_c, 5, 64, 127
8, 82300, Note_off_c, 5, 64, 64
8, 82320, Note_on_c, 5, 61, 127
8, 82540, Note_off_c, 5, 61, 64
8, 82560, Note_on_c, 5, 69, 127
8, 84460, Note_off_c, 5, 69, 64
8, 84480, Note_on_c, 5, 68, 127
8, 84940, Note_off_c, 5, 68, 64
8, 85680, Note_on_c, 5, 56, 127
8, 85900, Note_off_c, 5, 56, 64
8, 85920, Note_on_c, 5, 65, 127
8, 86140, Note_off_c, 5, 65, 64
8, 86160, Note_on_c, 5, 65, 127
8, 86860, Note_off_c, 5, 65, 64
8, 87600, Note_on_c, 5, 65, 127
8, 87700, Note_off_c, 5, 65, 64
8, 87720, Note_on_c, 5, 65, 127
8, 87940, Note_off_c, 5, 65, 64
8, 87960, Note_on_c, 5, 65, 127
8, 88300, Note_off_c, 5, 65, 64
8, 88320, Note_on_c, 5, 63, 127
8, 88780, Note_off_c, 5, 63, 64
8, 101760, Note_on_c, 5, 69, 127
8, 103660, Note_off_c, 5, 69, 64
8, 103680, Note_on_c, 5, 71, 127
8, 105580, Note_off_c, 5, 71, 64
8, 105600, Note_on_c, 5, 66, 127
8, 107500, Note_off_c, 5, 66, 64
8, 107520, Note_on_c, 5, 68, 127
8, 109420, Note_off_c, 5, 68, 64
8, 109440, Note_on_c, 5, 69, 127
8, 111340, Note_off_c, 5, 69, 64
8, 111360, Note_on_c, 5, 71, 127
8, 113260, Note_off_c, 5, 71, 64
8, 120960, Note_on_c, 5, 69, 127
8, 121180, Note_off_c, 5, 69, 64
8, 121200, Note_on_c, 5, 68, 127
8, 121420, Note_off_c, 5, 68, 64
8, 121440, Note_on_c, 5, 66, 127
8, 121660, Note_off_c, 5, 66, 64
8, 121680, Note_on_c, 5, 64, 127
8, 122140, Note_off_c, 5, 64, 64
8, 122160, Note_on_c, 5, 64, 127
8, 122860, Note_off_c, 5, 64, 64
8, 124560, Note_on_c, 5, 64, 127
8, 124780, Note_off_c, 5, 64, 64
8, 124800, Note_on_c, 5, 69, 127
8, 125020, Note_off_c, 5, 69, 64
8, 125040, Note_on_c, 5, 68, 127
8, 125260, Note_off_c, 5, 68, 64
8, 125280, Note_on_c, 5, 66, 127
8, 125500, Note_off_c, 5, 66, 64
8, 125520, Note_on_c, 5, 64, 127
8, 125980, Note_off_c, 5, 64, 64
8, 126000, Note_on_c, 5, 56, 127
8, 126220, Note_off_c, 5, 56, 64
8, 126240, Note_on_c, 5, 56, 127
8, 126460, Note_off_c, 5, 56, 64
8, 126480, Note_on_c, 5, 56, 127
8, 127180, Note_off_c, 5, 56, 64
8, 128640, Note_on_c, 5, 69, 127
8, 128860, Note_off_c, 5, 69, 64
8, 128880, Note_on_c, 5, 68, 127
8, 129100, Note_off_c, 5, 68, 64
8, 129120, Note_on_c, 5, 66, 127
8, 129340, Note_off_c, 5, 66, 64
8, 129360, Note_on_c, 5, 64, 127
8, 129820, Note_off_c, 5, 64, 64
8, 129840, Note_on_c, 5, 57, 127
8, 130540, Note_off_c, 5, 57, 64
8, 132240, Note_on_c, 5, 64, 127
8, 132460, Note_off_c, 5, 64, 64
8, 132480, Note_on_c, 5, 69, 127
8, 132700, Note_off_c, 5, 69, 64
8, 132720, Note_on_c, 5, 68, 127
8, 132940, Note_off_c, 5, 68, 64
8, 132960, Note_on_c, 5, 66, 127
8, 133180, Note_off_c, 5, 66, 64
8, 133200, Note_on_c, 5, 64, 127
8, 133660, Note_off_c, 5, 64, 64
8, 133680, Note_on_c, 5, 56, 127
8, 133900, Note_off_c, 5, 56, 64
8, 133920, Note_on_c, 5, 56, 127
8, 134140, Note_off_c, 5, 56, 64
8, 134160, Note_on_c, 5, 56, 127
8, 134620, Note_off_c, 5, 56, 64
8, 134640, Note_on_c, 5, 56, 127
8, 135340, Note_off_c, 5, 56, 64
8, 135600, Note_on_c, 5, 59, 127
8, 135820, Note_off_c, 5, 59, 64
8, 135840, Note_on_c, 5, 62, 127
8, 136060, Note_off_c, 5, 62, 64
8, 136080, Note_on_c, 5, 59, 127
8, 136300, Note_off_c, 5, 59, 64
8, 136320, Note_on_c, 5, 73, 127
8, 137500, Note_off_c, 5, 73, 64
8, 137520, Note_on_c, 5, 71, 127
8, 137740, Note_off_c, 5, 71, 64
8, 137760, Note_on_c, 5, 73, 127
8, 138220, Note_off_c, 5, 73, 64
8, 138240, Note_on_c, 5, 71, 127
8, 138460, Note_off_c, 5, 71, 64
8, 138480, Note_on_c, 5, 73, 127
8, 139180, Note_off_c, 5, 73, 64
8, 140160, Note_on_c, 5, 75, 127
8, 140380, Note_off_c, 5, 75, 64
8, 140400, Note_on_c, 5, 73, 127
8, 140860, Note_off_c, 5, 73, 64
8, 140880, Note_on_c, 5, 71, 127
8, 141340, Note_off_c, 5, 71, 64
8, 141360, Note_on_c, 5, 73, 127
8, 141820, Note_off_c, 5, 73, 64
8, 141840, Note_on_c, 5, 68, 127
8, 142540, Note_off_c, 5, 68, 64
8, 143280, Note_on_c, 5, 61, 127
8, 143500, Note_off_c, 5, 61, 64
8, 143520, Note_on_c, 5, 64, 127
8, 143740, Note_off_c, 5, 64, 64
8, 143760, Note_on_c, 5, 61, 127
8, 143980, Note_off_c, 5, 61, 64
8, 144000, Note_on_c, 5, 69, 127
8, 145900, Note_off_c, 5, 69, 64
8, 145920, Note_on_c, 5, 68, 127
8, 146380, Note_off_c, 5, 68, 64
8, 147120, Note_on_c, 5, 56, 127
8, 147340, Note_off_c, 5, 56, 64
8, 147360, Note_on_c, 5, 65, 127
8, 147580, Note_off_c, 5, 65, 64
8, 147600, Note_on_c, 5, 65, 127
8, 148300, Note_off_c, 5, 65, 64
8, 149040, Note_on_c, 5, 65, 127
8, 149140, Note_off_c, 5, 65, 64
8, 149160, Note_on_c, 5, 65, 127
8, 149380, Note_off_c, 5, 65, 64
8, 149400, Note_on_c, 5, 65, 127
8, 149740, Note_off_c, 5, 65, 64
8, 149760, Note_on_c, 5, 63, 127
8, 150220, Note_off_c, 5, 63, 64
8, 167520, Note_on_c, 5, 71, 127
8, 167980, Note_off_c, 5, 71, 64
8, 168000, Note_on_c, 5, 69, 127
8, 168220, Note_off_c, 5, 69, 64
8, 168240, Note_on_c, 5, 71, 127
8, 168940, Note_off_c, 5, 71, 64
8, 171360, Note_on_c, 5, 71, 127
8, 171820, Note_off_c, 5, 71, 64
8, 171840, Note_on_c, 5, 69, 127
8, 172060, Note_off_c, 5, 69, 64
8, 172080, Note_on_c, 5, 71, 127
8, 172540, Note_off_c, 5, 71, 64
8, 172560, Note_on_c, 5, 66, 127
8, 173260, Note_off_c, 5, 66, 64
8, 175200, Note_on_c, 5, 71, 127
8, 175660, Note_off_c, 5, 71, 64
8, 175680, Note_on_c, 5, 69, 127
8, 175900, Note_off_c, 5, 69, 64
8, 175920, Note_on_c, 5, 71, 127
8, 176620, Note_off_c, 5, 71, 64
8, 179040, Note_on_c, 5, 71, 127
8, 179500, Note_off_c, 5, 71, 64
8, 179520, Note_on_c, 5, 69, 127
8, 179740, Note_off_c, 5, 69, 64
8, 179760, Note_on_c, 5, 71, 127
8, 180220, Note_off_c, 5, 71, 64
8, 180240, Note_on_c, 5, 66, 127
8, 180480, Control_c, 5, 7, 120
8, 180750, Control_c, 5, 7, 119
8, 180940, Note_off_c, 5, 66, 64
8, 181025, Control_c, 5, 7, 118
8, 181295, Control_c, 5, 7, 117
8, 181570, Control_c, 5, 7, 116
8, 181840, Control_c, 5, 7, 115
8, 182110, Control_c, 5, 7, 114
8, 182385, Control_c, 5, 7, 113
8, 182655, Control_c, 5, 7, 112
8, 182880, Note_on_c, 5, 71, 127
8, 182930, Control_c, 5, 7, 111
8, 183200, Control_c, 5, 7, 110
8, 183340, Note_off_c, 5, 71, 64
8, 183360, Note_on_c, 5, 69, 127
8, 183470, Control_c, 5, 7, 109
8, 183580, Note_off_c, 5, 69, 64
8, 183600, Note_on_c, 5, 71, 127
8, 183745, Control_c, 5, 7, 108
8, 184015, Control_c, 5, 7, 107
8, 184285, Control_c, 5, 7, 106
8, 184300, Note_off_c, 5, 71, 64
8, 184560, Control_c, 5, 7, 105
8, 184830, Control_c, 5, 7, 104
8, 185105, Control_c, 5, 7, 103
8, 185375, Control_c, 5, 7, 102
8, 185645, Control_c, 5, 7, 101
8, 185920, Control_c, 5, 7, 100
8, 186190, Control_c, 5, 7, 99
8, 186465, Control_c, 5, 7, 98
8, 186720, Note_on_c, 5, 71, 127
8, 186735, Control_c, 5, 7, 97
8, 187005, Control_c, 5, 7, 96
8, 187180, Note_off_c, 5, 71, 64
8, 187200, Note_on_c, 5, 69, 127
8, 187280, Control_c, 5, 7, 95
8, 187420, Note_off_c, 5, 69, 64
8, 187440, Note_on_c, 5, 71, 127
8, 187550, Control_c, 5, 7, 94
8, 187825, Control_c, 5, 7, 93
8, 187900, Note_off_c, 5, 71, 64
8, 187920, Note_on_c, 5, 66, 127
8, 188095, Control_c, 5, 7, 92
8, 188365, Control_c, 5, 7, 91
8, 188620, Note_off_c, 5, 66, 64
8, 188640, Control_c, 5, 7, 90
8, 188910, Control_c, 5, 7, 89
8, 189185, Control_c, 5, 7, 88
8, 189455, Control_c, 5, 7, 87
8, 189725, Control_c, 5, 7, 86
8, 190000, Control_c, 5, 7, 85
8, 190270, Control_c, 5, 7, 84
8, 190540, Control_c, 5, 7, 83
8, 190560, Note_on_c, 5, 71, 127
8, 190815, Control_c, 5, 7, 82
8, 191020, Note_off_c, 5, 71, 64
8, 191040, Note_on_c, 5, 69, 127
8, 191085, Control_c, 5, 7, 81
8, 191260, Note_off_c, 5, 69, 64
8, 191280, Note_on_c, 5, 71, 127
8, 191360, Control_c, 5, 7, 80
8, 191630, Control_c, 5, 7, 79
8, 191900, Control_c, 5, 7, 78
8, 191980, Note_off_c, 5, 71, 64
8, 192175, Control_c, 5, 7, 77
8, 192445, Control_c, 5, 7, 76
8, 192720, Control_c, 5, 7, 75
8, 192990, Control_c, 5, 7, 74
8, 193260, Control_c, 5, 7, 73
8, 193535, Control_c, 5, 7, 72
8, 193805, Control_c, 5, 7, 71
8, 194080, Control_c, 5, 7, 70
8, 194350, Control_c, 5, 7, 69
8, 194400, Note_on_c, 5, 71, 127
8, 194620, Control_c, 5, 7, 68
8, 194860, Note_off_c, 5, 71, 64
8, 194880, Note_on_c, 5, 69, 127
8, 194895, Control_c, 5, 7, 67
8, 195100, Note_off_c, 5, 69, 64
8, 195120, Note_on_c, 5, 71, 127
8, 195165, Control_c, 5, 7, 66
8, 195440, Control_c, 5, 7, 65
8, 195580, Note_off_c, 5, 71, 64
8, 195600, Note_on_c, 5, 66, 127
8, 195710, Control_c, 5, 7, 64
8, 195980, Control_c, 5, 7, 63
8, 196255, Control_c, 5, 7, 62
8, 196300, Note_off_c, 5, 66, 64
8, 196525, Control_c, 5, 7, 61
8, 196800, Control_c, 5, 7, 60
8, 197070, Control_c, 5, 7, 59
8, 197340, Control_c, 5, 7, 58
8, 197615, Control_c, 5, 7, 57
8, 197885, Control_c, 5, 7, 56
8, 198155, Control_c, 5, 7, 55
8, 198240, Note_on_c, 5, 71, 127
8, 198430, Control_c, 5, 7, 54
8, 198700, Note_off_c, 5, 71, 64
8, 198700, Control_c, 5, 7, 53
8, 198720, Note_on_c, 5, 69, 127
8, 198940, Note_off_c, 5, 69, 64
8, 198960, Note_on_c, 5, 71, 127
8, 198975, Control_c, 5, 7, 52
8, 199245, Control_c, 5, 7, 51
8, 199515, Control_c, 5, 7, 50
8, 199660, Note_off_c, 5, 71, 64
8, 199790, Control_c, 5, 7, 49
8, 200060, Control_c, 5, 7, 48
8, 200335, Control_c, 5, 7, 47
8, 200605, Control_c, 5, 7, 46
8, 200875, Control_c, 5, 7, 45
8, 201150, Control_c, 5, 7, 44
8, 201420, Control_c, 5, 7, 43
8, 201695, Control_c, 5, 7, 42
8, 201965, Control_c, 5, 7, 41
8, 202080, Note_on_c, 5, 71, 127
8, 202235, Control_c, 5, 7, 40
8, 202510, Control_c, 5, 7, 39
8, 202540, Note_off_c, 5, 71, 64
8, 202560, Note_on_c, 5, 69, 127
8, 202780, Note_off_c, 5, 69, 64
8, 202780, Control_c, 5, 7, 38
8, 202800, Note_on_c, 5, 71, 127
8, 203055, Control_c, 5, 7, 37
8, 203260, Note_off_c, 5, 71, 64
8, 203280, Note_on_c, 5, 66, 127
8, 203325, Control_c, 5, 7, 36
8, 203595, Control_c, 5, 7, 35
8, 203870, Control_c, 5, 7, 34
8, 203980, Note_off_c, 5, 66, 64
8, 204140, Control_c, 5, 7, 33
8, 204410, Control_c, 5, 7, 32
8, 204685, Control_c, 5, 7, 31
8, 204955, Control_c, 5, 7, 30
8, 205230, Control_c, 5, 7, 29
8, 205500, Control_c, 5, 7, 28
8, 205770, Control_c, 5, 7, 27
8, 205920, Note_on_c, 5, 71, 127
8, 206045, Control_c, 5, 7, 26
8, 206315, Control_c, 5, 7, 25
8, 206380, Note_off_c, 5, 71, 64
8, 206400, Note_on_c, 5, 69, 127
8, 206590, Control_c, 5, 7, 24
8, 206620, Note_off_c, 5, 69, 64
8, 206640, Note_on_c, 5, 71, 127
8, 206860, Control_c, 5, 7, 23
8, 207130, Control_c, 5, 7, 22
8, 207340, Note_off_c, 5, 71, 64
8, 207405, Control_c, 5, 7, 21
8, 207675, Control_c, 5, 7, 20
8, 207950, Control_c, 5, 7, 19
8, 208220, Control_c, 5, 7, 18
8, 208490, Control_c, 5, 7, 17
8, 208765, Control_c, 5, 7, 16
8, 209035, Control_c, 5, 7, 15
8, 209310, Control_c, 5, 7, 14
8, 209580, Control_c, 5, 7, 13
8, 209760, Note_on_c, 5, 71, 127
8, 209850, Control_c, 5, 7, 12
8, 210125, Control_c, 5, 7, 11
8, 210220, Note_off_c, 5, 71, 64
8, 210240, Note_on_c, 5, 69, 127
8, 210395, Control_c, 5, 7, 10
8, 210460, Note_off_c, 5, 69, 64
8, 210480, Note_on_c, 5, 71, 127
8, 210665, Control_c, 5, 7, 9
8, 210940, Note_off_c, 5, 71, 64
8, 210940, Control_c, 5, 7, 8
8, 210960, Note_on_c, 5, 66, 127
8, 211210, Control_c, 5, 7, 7
8, 211485, Control_c, 5, 7, 6
8, 211660, Note_off_c, 5, 66, 64
8, 211755, Control_c, 5, 7, 5
8, 212025, Control_c, 5, 7, 4
8, 212300, Control_c, 5, 7, 3
8, 212570, Control_c, 5, 7, 2
8, 212845, Control_c, 5, 7, 1
8, 213115, Control_c, 5, 7, 0
8, 213115, End_track
9, 0, Start_track
9, 0, Title_t, "Voc2 Oohs"
9, 0, MIDI_port, 0
9, 0, Channel_prefix, 6
9, 480, Control_c, 6, 93, 110
9, 480, Control_c, 6, 91, 45
9, 480, Control_c, 6, 10, 117
9, 480, Control_c, 6, 7, 100
9, 480, Program_c, 6, 24
9, 21120, Note_on_c, 6, 69, 127
9, 21340, Note_off_c, 6, 69, 64
9, 21360, Note_on_c, 6, 68, 127
9, 21580, Note_off_c, 6, 68, 64
9, 21600, Note_on_c, 6, 66, 127
9, 21820, Note_off_c, 6, 66, 64
9, 21840, Note_on_c, 6, 64, 127
9, 22300, Note_off_c, 6, 64, 64
9, 22320, Note_on_c, 6, 64, 127
9, 23020, Note_off_c, 6, 64, 64
9, 24720, Note_on_c, 6, 64, 127
9, 24940, Note_off_c, 6, 64, 64
9, 24960, Note_on_c, 6, 66, 127
9, 25180, Note_off_c, 6, 66, 64
9, 25200, Note_on_c, 6, 64, 127
9, 25420, Note_off_c, 6, 64, 64
9, 25440, Note_on_c, 6, 62, 127
9, 25660, Note_off_c, 6, 62, 64
9, 25680, Note_on_c, 6, 59, 127
9, 26140, Note_off_c, 6, 59, 64
9, 26160, Note_on_c, 6, 52, 127
9, 26380, Note_off_c, 6, 52, 64
9, 26400, Note_on_c, 6, 52, 127
9, 26620, Note_off_c, 6, 52, 64
9, 26640, Note_on_c, 6, 52, 127
9, 27340, Note_off_c, 6, 52, 64
9, 28800, Note_on_c, 6, 69, 127
9, 29020, Note_off_c, 6, 69, 64
9, 29040, Note_on_c, 6, 68, 127
9, 29260, Note_off_c, 6, 68, 64
9, 29280, Note_on_c, 6, 66, 127
9, 29500, Note_off_c, 6, 66, 64
9, 29520, Note_on_c, 6, 64, 127
9, 29980, Note_off_c, 6, 64, 64
9, 30000, Note_on_c, 6, 57, 127
9, 30700, Note_off_c, 6, 57, 64
9, 32400, Note_on_c, 6, 64, 127
9, 32620, Note_off_c, 6, 64, 64
9, 32640, Note_on_c, 6, 66, 127
9, 32860, Note_off_c, 6, 66, 64
9, 32880, Note_on_c, 6, 64, 127
9, 33100, Note_off_c, 6, 64, 64
9, 33120, Note_on_c, 6, 62, 127
9, 33340, Note_off_c, 6, 62, 64
9, 33360, Note_on_c, 6, 59, 127
9, 33820, Note_off_c, 6, 59, 64
9, 33840, Note_on_c, 6, 52, 127
9, 34060, Note_off_c, 6, 52, 64
9, 34080, Note_on_c, 6, 52, 127
9, 34300, Note_off_c, 6, 52, 64
9, 34320, Note_on_c, 6, 52, 127
9, 34780, Note_off_c, 6, 52, 64
9, 34800, Note_on_c, 6, 52, 127
9, 35500, Note_off_c, 6, 52, 64
9, 35760, Note_on_c, 6, 59, 127
9, 35980, Note_off_c, 6, 59, 64
9, 36000, Note_on_c, 6, 62, 127
9, 36220, Note_off_c, 6, 62, 64
9, 36240, Note_on_c, 6, 59, 127
9, 36460, Note_off_c, 6, 59, 64
9, 36480, Note_on_c, 6, 70, 127
9, 37660, Note_off_c, 6, 70, 64
9, 37680, Note_on_c, 6, 68, 127
9, 37900, Note_off_c, 6, 68, 64
9, 37920, Note_on_c, 6, 70, 127
9, 38380, Note_off_c, 6, 70, 64
9, 38400, Note_on_c, 6, 68, 127
9, 38620, Note_off_c, 6, 68, 64
9, 38640, Note_on_c, 6, 70, 127
9, 39340, Note_off_c, 6, 70, 64
9, 40320, Note_on_c, 6, 71, 127
9, 40540, Note_off_c, 6, 71, 64
9, 40560, Note_on_c, 6, 70, 127
9, 41020, Note_off_c, 6, 70, 64
9, 41040, Note_on_c, 6, 68, 127
9, 41500, Note_off_c, 6, 68, 64
9, 41520, Note_on_c, 6, 70, 127
9, 41980, Note_off_c, 6, 70, 64
9, 42000, Note_on_c, 6, 64, 127
9, 42700, Note_off_c, 6, 64, 64
9, 43440, Note_on_c, 6, 61, 127
9, 43660, Note_off_c, 6, 61, 64
9, 43680, Note_on_c, 6, 64, 127
9, 43900, Note_off_c, 6, 64, 64
9, 43920, Note_on_c, 6, 61, 127
9, 44140, Note_off_c, 6, 61, 64
9, 44160, Note_on_c, 6, 69, 127
9, 46060, Note_off_c, 6, 69, 64
9, 46080, Note_on_c, 6, 63, 127
9, 46540, Note_off_c, 6, 63, 64
9, 47280, Note_on_c, 6, 56, 127
9, 47500, Note_off_c, 6, 56, 64
9, 47520, Note_on_c, 6, 61, 127
9, 47740, Note_off_c, 6, 61, 64
9, 47760, Note_on_c, 6, 61, 127
9, 48460, Note_off_c, 6, 61, 64
9, 49200, Note_on_c, 6, 61, 127
9, 49300, Note_off_c, 6, 61, 64
9, 49320, Note_on_c, 6, 61, 127
9, 49540, Note_off_c, 6, 61, 64
9, 49560, Note_on_c, 6, 61, 127
9, 49900, Note_off_c, 6, 61, 64
9, 49920, Note_on_c, 6, 59, 127
9, 50380, Note_off_c, 6, 59, 64
9, 59520, Note_on_c, 6, 69, 127
9, 59740, Note_off_c, 6, 69, 64
9, 59760, Note_on_c, 6, 68, 127
9, 59980, Note_off_c, 6, 68, 64
9, 60000, Note_on_c, 6, 66, 127
9, 60220, Note_off_c, 6, 66, 64
9, 60240, Note_on_c, 6, 64, 127
9, 60700, Note_off_c, 6, 64, 64
9, 60720, Note_on_c, 6, 64, 127
9, 61420, Note_off_c, 6, 64, 64
9, 63120, Note_on_c, 6, 64, 127
9, 63340, Note_off_c, 6, 64, 64
9, 63360, Note_on_c, 6, 66, 127
9, 63580, Note_off_c, 6, 66, 64
9, 63600, Note_on_c, 6, 64, 127
9, 63820, Note_off_c, 6, 64, 64
9, 63840, Note_on_c, 6, 62, 127
9, 64060, Note_off_c, 6, 62, 64
9, 64080, Note_on_c, 6, 59, 127
9, 64540, Note_off_c, 6, 59, 64
9, 64560, Note_on_c, 6, 52, 127
9, 64780, Note_off_c, 6, 52, 64
9, 64800, Note_on_c, 6, 52, 127
9, 65020, Note_off_c, 6, 52, 64
9, 65040, Note_on_c, 6, 52, 127
9, 65740, Note_off_c, 6, 52, 64
9, 67200, Note_on_c, 6, 69, 127
9, 67420, Note_off_c, 6, 69, 64
9, 67440, Note_on_c, 6, 68, 127
9, 67660, Note_off_c, 6, 68, 64
9, 67680, Note_on_c, 6, 66, 127
9, 67900, Note_off_c, 6, 66, 64
9, 67920, Note_on_c, 6, 64, 127
9, 68380, Note_off_c, 6, 64, 64
9, 68400, Note_on_c, 6, 57, 127
9, 69100, Note_off_c, 6, 57, 64
9, 70800, Note_on_c, 6, 64, 127
9, 71020, Note_off_c, 6, 64, 64
9, 71040, Note_on_c, 6, 66, 127
9, 71260, Note_off_c, 6, 66, 64
9, 71280, Note_on_c, 6, 64, 127
9, 71500, Note_off_c, 6, 64, 64
9, 71520, Note_on_c, 6, 62, 127
9, 71740, Note_off_c, 6, 62, 64
9, 71760, Note_on_c, 6, 59, 127
9, 72220, Note_off_c, 6, 59, 64
9, 72240, Note_on_c, 6, 52, 127
9, 72460, Note_off_c, 6, 52, 64
9, 72480, Note_on_c, 6, 52, 127
9, 72700, Note_off_c, 6, 52, 64
9, 72720, Note_on_c, 6, 52, 127
9, 73180, Note_off_c, 6, 52, 64
9, 73200, Note_on_c, 6, 52, 127
9, 73900, Note_off_c, 6, 52, 64
9, 74160, Note_on_c, 6, 59, 127
9, 74380, Note_off_c, 6, 59, 64
9, 74400, Note_on_c, 6, 62, 127
9, 74620, Note_off_c, 6, 62, 64
9, 74640, Note_on_c, 6, 59, 127
9, 74860, Note_off_c, 6, 59, 64
9, 74880, Note_on_c, 6, 70, 127
9, 76060, Note_off_c, 6, 70, 64
9, 76080, Note_on_c, 6, 68, 127
9, 76300, Note_off_c, 6, 68, 64
9, 76320, Note_on_c, 6, 70, 127
9, 76780, Note_off_c, 6, 70, 64
9, 76800, Note_on_c, 6, 68, 127
9, 77020, Note_off_c, 6, 68, 64
9, 77040, Note_on_c, 6, 70, 127
9, 77740, Note_off_c, 6, 70, 64
9, 78720, Note_on_c, 6, 71, 127
9, 78940, Note_off_c, 6, 71, 64
9, 78960, Note_on_c, 6, 70, 127
9, 79420, Note_off_c, 6, 70, 64
9, 79440, Note_on_c, 6, 68, 127
9, 79900, Note_off_c, 6, 68, 64
9, 79920, Note_on_c, 6, 70, 127
9, 80380, Note_off_c, 6, 70, 64
9, 80400, Note_on_c, 6, 64, 127
9, 81100, Note_off_c, 6, 64, 64
9, 81840, Note_on_c, 6, 61, 127
9, 82060, Note_off_c, 6, 61, 64
9, 82080, Note_on_c, 6, 64, 127
9, 82300, Note_off_c, 6, 64, 64
9, 82320, Note_on_c, 6, 61, 127
9, 82540, Note_off_c, 6, 61, 64
9, 82560, Note_on_c, 6, 69, 127
9, 84460, Note_off_c, 6, 69, 64
9, 84480, Note_on_c, 6, 63, 127
9, 84940, Note_off_c, 6, 63, 64
9, 85680, Note_on_c, 6, 56, 127
9, 85900, Note_off_c, 6, 56, 64
9, 85920, Note_on_c, 6, 61, 127
9, 86140, Note_off_c, 6, 61, 64
9, 86160, Note_on_c, 6, 61, 127
9, 86860, Note_off_c, 6, 61, 64
9, 87600, Note_on_c, 6, 61, 127
9, 87700, Note_off_c, 6, 61, 64
9, 87720, Note_on_c, 6, 61, 127
9, 87940, Note_off_c, 6, 61, 64
9, 87960, Note_on_c, 6, 61, 127
9, 88300, Note_off_c, 6, 61, 64
9, 88320, Note_on_c, 6, 59, 127
9, 88780, Note_off_c, 6, 59, 64
9, 101760, Note_on_c, 6, 63, 127
9, 103660, Note_off_c, 6, 63, 64
9, 103680, Note_on_c, 6, 64, 127
9, 105580, Note_off_c, 6, 64, 64
9, 105600, Note_on_c, 6, 66, 127
9, 107500, Note_off_c, 6, 66, 64
9, 107520, Note_on_c, 6, 68, 127
9, 109420, Note_off_c, 6, 68, 64
9, 109440, Note_on_c, 6, 69, 127
9, 111340, Note_off_c, 6, 69, 64
9, 111360, Note_on_c, 6, 71, 127
9, 113260, Note_off_c, 6, 71, 64
9, 120960, Note_on_c, 6, 69, 127
9, 121180, Note_off_c, 6, 69, 64
9, 121200, Note_on_c, 6, 68, 127
9, 121420, Note_off_c, 6, 68, 64
9, 121440, Note_on_c, 6, 66, 127
9, 121660, Note_off_c, 6, 66, 64
9, 121680, Note_on_c, 6, 64, 127
9, 122140, Note_off_c, 6, 64, 64
9, 122160, Note_on_c, 6, 64, 127
9, 122860, Note_off_c, 6, 64, 64
9, 124560, Note_on_c, 6, 64, 127
9, 124780, Note_off_c, 6, 64, 64
9, 124800, Note_on_c, 6, 66, 127
9, 125020, Note_off_c, 6, 66, 64
9, 125040, Note_on_c, 6, 64, 127
9, 125260, Note_off_c, 6, 64, 64
9, 125280, Note_on_c, 6, 62, 127
9, 125500, Note_off_c, 6, 62, 64
9, 125520, Note_on_c, 6, 59, 127
9, 125980, Note_off_c, 6, 59, 64
9, 126000, Note_on_c, 6, 52, 127
9, 126220, Note_off_c, 6, 52, 64
9, 126240, Note_on_c, 6, 52, 127
9, 126460, Note_off_c, 6, 52, 64
9, 126480, Note_on_c, 6, 52, 127
9, 127180, Note_off_c, 6, 52, 64
9, 128640, Note_on_c, 6, 69, 127
9, 128860, Note_off_c, 6, 69, 64
9, 128880, Note_on_c, 6, 68, 127
9, 129100, Note_off_c, 6, 68, 64
9, 129120, Note_on_c, 6, 66, 127
9, 129340, Note_off_c, 6, 66, 64
9, 129360, Note_on_c, 6, 64, 127
9, 129820, Note_off_c, 6, 64, 64
9, 129840, Note_on_c, 6, 57, 127
9, 130540, Note_off_c, 6, 57, 64
9, 132240, Note_on_c, 6, 64, 127
9, 132460, Note_off_c, 6, 64, 64
9, 132480, Note_on_c, 6, 66, 127
9, 132700, Note_off_c, 6, 66, 64
9, 132720, Note_on_c, 6, 64, 127
9, 132940, Note_off_c, 6, 64, 64
9, 132960, Note_on_c, 6, 62, 127
9, 133180, Note_off_c, 6, 62, 64
9, 133200, Note_on_c, 6, 59, 127
9, 133660, Note_off_c, 6, 59, 64
9, 133680, Note_on_c, 6, 52, 127
9, 133900, Note_off_c, 6, 52, 64
9, 133920, Note_on_c, 6, 52, 127
9, 134140, Note_off_c, 6, 52, 64
9, 134160, Note_on_c, 6, 52, 127
9, 134620, Note_off_c, 6, 52, 64
9, 134640, Note_on_c, 6, 52, 127
9, 135340, Note_off_c, 6, 52, 64
9, 135600, Note_on_c, 6, 59, 127
9, 135820, Note_off_c, 6, 59, 64
9, 135840, Note_on_c, 6, 62, 127
9, 136060, Note_off_c, 6, 62, 64
9, 136080, Note_on_c, 6, 59, 127
9, 136300, Note_off_c, 6, 59, 64
9, 136320, Note_on_c, 6, 70, 127
9, 137500, Note_off_c, 6, 70, 64
9, 137520, Note_on_c, 6, 68, 127
9, 137740, Note_off_c, 6, 68, 64
9, 137760, Note_on_c, 6, 70, 127
9, 138220, Note_off_c, 6, 70, 64
9, 138240, Note_on_c, 6, 68, 127
9, 138460, Note_off_c, 6, 68, 64
9, 138480, Note_on_c, 6, 70, 127
9, 139180, Note_off_c, 6, 70, 64
9, 140160, Note_on_c, 6, 71, 127
9, 140380, Note_off_c, 6, 71, 64
9, 140400, Note_on_c, 6, 70, 127
9, 140860, Note_off_c, 6, 70, 64
9, 140880, Note_on_c, 6, 68, 127
9, 141340, Note_off_c, 6, 68, 64
9, 141360, Note_on_c, 6, 70, 127
9, 141820, Note_off_c, 6, 70, 64
9, 141840, Note_on_c, 6, 64, 127
9, 142540, Note_off_c, 6, 64, 64
9, 143280, Note_on_c, 6, 61, 127
9, 143500, Note_off_c, 6, 61, 64
9, 143520, Note_on_c, 6, 64, 127
9, 143740, Note_off_c, 6, 64, 64
9, 143760, Note_on_c, 6, 61, 127
9, 143980, Note_off_c, 6, 61, 64
9, 144000, Note_on_c, 6, 69, 127
9, 145900, Note_off_c, 6, 69, 64
9, 145920, Note_on_c, 6, 63, 127
9, 146380, Note_off_c, 6, 63, 64
9, 147120, Note_on_c, 6, 56, 127
9, 147340, Note_off_c, 6, 56, 64
9, 147360, Note_on_c, 6, 61, 127
9, 147580, Note_off_c, 6, 61, 64
9, 147600, Note_on_c, 6, 61, 127
9, 148300, Note_off_c, 6, 61, 64
9, 149040, Note_on_c, 6, 61, 127
9, 149140, Note_off_c, 6, 61, 64
9, 149160, Note_on_c, 6, 61, 127
9, 149380, Note_off_c, 6, 61, 64
9, 149400, Note_on_c, 6, 61, 127
9, 149740, Note_off_c, 6, 61, 64
9, 149760, Note_on_c, 6, 59, 127
9, 150220, Note_off_c, 6, 59, 64
9, 167520, Note_on_c, 6, 68, 127
9, 167980, Note_off_c, 6, 68, 64
9, 168000, Note_on_c, 6, 66, 127
9, 168220, Note_off_c, 6, 66, 64
9, 168240, Note_on_c, 6, 68, 127
9, 168940, Note_off_c, 6, 68, 64
9, 171360, Note_on_c, 6, 68, 127
9, 171820, Note_off_c, 6, 68, 64
9, 171840, Note_on_c, 6, 66, 127
9, 172060, Note_off_c, 6, 66, 64
9, 172080, Note_on_c, 6, 68, 127
9, 172540, Note_off_c, 6, 68, 64
9, 172560, Note_on_c, 6, 62, 127
9, 173260, Note_off_c, 6, 62, 64
9, 175200, Note_on_c, 6, 68, 127
9, 175660, Note_off_c, 6, 68, 64
9, 175680, Note_on_c, 6, 66, 127
9, 175900, Note_off_c, 6, 66, 64
9, 175920, Note_on_c, 6, 68, 127
9, 176620, Note_off_c, 6, 68, 64
9, 179040, Note_on_c, 6, 68, 127
9, 179500, Note_off_c, 6, 68, 64
9, 179520, Note_on_c, 6, 66, 127
9, 179740, Note_off_c, 6, 66, 64
9, 179760, Note_on_c, 6, 68, 127
9, 180220, Note_off_c, 6, 68, 64
9, 180240, Note_on_c, 6, 62, 127
9, 180480, Control_c, 6, 7, 120
9, 180750, Control_c, 6, 7, 119
9, 180940, Note_off_c, 6, 62, 64
9, 181025, Control_c, 6, 7, 118
9, 181295, Control_c, 6, 7, 117
9, 181570, Control_c, 6, 7, 116
9, 181840, Control_c, 6, 7, 115
9, 182110, Control_c, 6, 7, 114
9, 182385, Control_c, 6, 7, 113
9, 182655, Control_c, 6, 7, 112
9, 182880, Note_on_c, 6, 68, 127
9, 182930, Control_c, 6, 7, 111
9, 183200, Control_c, 6, 7, 110
9, 183340, Note_off_c, 6, 68, 64
9, 183360, Note_on_c, 6, 66, 127
9, 183470, Control_c, 6, 7, 109
9, 183580, Note_off_c, 6, 66, 64
9, 183600, Note_on_c, 6, 68, 127
9, 183745, Control_c, 6, 7, 108
9, 184015, Control_c, 6, 7, 107
9, 184285, Control_c, 6, 7, 106
9, 184300, Note_off_c, 6, 68, 64
9, 184560, Control_c, 6, 7, 105
9, 184830, Control_c, 6, 7, 104
9, 185105, Control_c, 6, 7, 103
9, 185375, Control_c, 6, 7, 102
9, 185645, Control_c, 6, 7, 101
9, 185920, Control_c, 6, 7, 100
9, 186190, Control_c, 6, 7, 99
9, 186465, Control_c, 6, 7, 98
9, 186720, Note_on_c, 6, 68, 127
9, 186735, Control_c, 6, 7, 97
9, 187005, Control_c, 6, 7, 96
9, 187180, Note_off_c, 6, 68, 64
9, 187200, Note_on_c, 6, 66, 127
9, 187280, Control_c, 6, 7, 95
9, 187420, Note_off_c, 6, 66, 64
9, 187440, Note_on_c, 6, 68, 127
9, 187550, Control_c, 6, 7, 94
9, 187825, Control_c, 6, 7, 93
9, 187900, Note_off_c, 6, 68, 64
9, 187920, Note_on_c, 6, 62, 127
9, 188095, Control_c, 6, 7, 92
9, 188365, Control_c, 6, 7, 91
9, 188620, Note_off_c, 6, 62, 64
9, 188640, Control_c, 6, 7, 90
9, 188910, Control_c, 6, 7, 89
9, 189185, Control_c, 6, 7, 88
9, 189455, Control_c, 6, 7, 87
9, 189725, Control_c, 6, 7, 86
9, 190000, Control_c, 6, 7, 85
9, 190270, Control_c, 6, 7, 84
9, 190540, Control_c, 6, 7, 83
9, 190560, Note_on_c, 6, 68, 127
9, 190815, Control_c, 6, 7, 82
9, 191020, Note_off_c, 6, 68, 64
9, 191040, Note_on_c, 6, 66, 127
9, 191085, Control_c, 6, 7, 81
9, 191260, Note_off_c, 6, 66, 64
9, 191280, Note_on_c, 6, 68, 127
9, 191360, Control_c, 6, 7, 80
9, 191630, Control_c, 6, 7, 79
9, 191900, Control_c, 6, 7, 78
9, 191980, Note_off_c, 6, 68, 64
9, 192175, Control_c, 6, 7, 77
9, 192445, Control_c, 6, 7, 76
9, 192720, Control_c, 6, 7, 75
9, 192990, Control_c, 6, 7, 74
9, 193260, Control_c, 6, 7, 73
9, 193535, Control_c, 6, 7, 72
9, 193805, Control_c, 6, 7, 71
9, 194080, Control_c, 6, 7, 70
9, 194350, Control_c, 6, 7, 69
9, 194400, Note_on_c, 6, 68, 127
9, 194620, Control_c, 6, 7, 68
9, 194860, Note_off_c, 6, 68, 64
9, 194880, Note_on_c, 6, 66, 127
9, 194895, Control_c, 6, 7, 67
9, 195100, Note_off_c, 6, 66, 64
9, 195120, Note_on_c, 6, 68, 127
9, 195165, Control_c, 6, 7, 66
9, 195440, Control_c, 6, 7, 65
9, 195580, Note_off_c, 6, 68, 64
9, 195600, Note_on_c, 6, 62, 127
9, 195710, Control_c, 6, 7, 64
9, 195980, Control_c, 6, 7, 63
9, 196255, Control_c, 6, 7, 62
9, 196300, Note_off_c, 6, 62, 64
9, 196525, Control_c, 6, 7, 61
9, 196800, Control_c, 6, 7, 60
9, 197070, Control_c, 6, 7, 59
9, 197340, Control_c, 6, 7, 58
9, 197615, Control_c, 6, 7, 57
9, 197885, Control_c, 6, 7, 56
9, 198155, Control_c, 6, 7, 55
9, 198240, Note_on_c, 6, 68, 127
9, 198430, Control_c, 6, 7, 54
9, 198700, Note_off_c, 6, 68, 64
9, 198700, Control_c, 6, 7, 53
9, 198720, Note_on_c, 6, 66, 127
9, 198940, Note_off_c, 6, 66, 64
9, 198960, Note_on_c, 6, 68, 127
9, 198975, Control_c, 6, 7, 52
9, 199245, Control_c, 6, 7, 51
9, 199515, Control_c, 6, 7, 50
9, 199660, Note_off_c, 6, 68, 64
9, 199790, Control_c, 6, 7, 49
9, 200060, Control_c, 6, 7, 48
9, 200335, Control_c, 6, 7, 47
9, 200605, Control_c, 6, 7, 46
9, 200875, Control_c, 6, 7, 45
9, 201150, Control_c, 6, 7, 44
9, 201420, Control_c, 6, 7, 43
9, 201695, Control_c, 6, 7, 42
9, 201965, Control_c, 6, 7, 41
9, 202080, Note_on_c, 6, 68, 127
9, 202235, Control_c, 6, 7, 40
9, 202510, Control_c, 6, 7, 39
9, 202540, Note_off_c, 6, 68, 64
9, 202560, Note_on_c, 6, 66, 127
9, 202780, Note_off_c, 6, 66, 64
9, 202780, Control_c, 6, 7, 38
9, 202800, Note_on_c, 6, 68, 127
9, 203055, Control_c, 6, 7, 37
9, 203260, Note_off_c, 6, 68, 64
9, 203280, Note_on_c, 6, 62, 127
9, 203325, Control_c, 6, 7, 36
9, 203595, Control_c, 6, 7, 35
9, 203870, Control_c, 6, 7, 34
9, 203980, Note_off_c, 6, 62, 64
9, 204140, Control_c, 6, 7, 33
9, 204410, Control_c, 6, 7, 32
9, 204685, Control_c, 6, 7, 31
9, 204955, Control_c, 6, 7, 30
9, 205230, Control_c, 6, 7, 29
9, 205500, Control_c, 6, 7, 28
9, 205770, Control_c, 6, 7, 27
9, 205920, Note_on_c, 6, 68, 127
9, 206045, Control_c, 6, 7, 26
9, 206315, Control_c, 6, 7, 25
9, 206380, Note_off_c, 6, 68, 64
9, 206400, Note_on_c, 6, 66, 127
9, 206590, Control_c, 6, 7, 24
9, 206620, Note_off_c, 6, 66, 64
9, 206640, Note_on_c, 6, 68, 127
9, 206860, Control_c, 6, 7, 23
9, 207130, Control_c, 6, 7, 22
9, 207340, Note_off_c, 6, 68, 64
9, 207405, Control_c, 6, 7, 21
9, 207675, Control_c, 6, 7, 20
9, 207950, Control_c, 6, 7, 19
9, 208220, Control_c, 6, 7, 18
9, 208490, Control_c, 6, 7, 17
9, 208765, Control_c, 6, 7, 16
9, 209035, Control_c, 6, 7, 15
9, 209310, Control_c, 6, 7, 14
9, 209580, Control_c, 6, 7, 13
9, 209760, Note_on_c, 6, 68, 127
9, 209850, Control_c, 6, 7, 12
9, 210125, Control_c, 6, 7, 11
9, 210220, Note_off_c, 6, 68, 64
9, 210240, Note_on_c, 6, 66, 127
9, 210395, Control_c, 6, 7, 10
9, 210460, Note_off_c, 6, 66, 64
9, 210480, Note_on_c, 6, 68, 127
9, 210665, Control_c, 6, 7, 9
9, 210940, Note_off_c, 6, 68, 64
9, 210940, Control_c, 6, 7, 8
9, 210960, Note_on_c, 6, 62, 127
9, 211210, Control_c, 6, 7, 7
9, 211485, Control_c, 6, 7, 6
9, 211660, Note_off_c, 6, 62, 64
9, 211755, Control_c, 6, 7, 5
9, 212025, Control_c, 6, 7, 4
9, 212300, Control_c, 6, 7, 3
9, 212570, Control_c, 6, 7, 2
9, 212845, Control_c, 6, 7, 1
9, 213115, Control_c, 6, 7, 0
9, 213115, End_track
10, 0, Start_track
10, 0, Title_t, "Voc3 Oohs"
10, 0, MIDI_port, 0
10, 0, Channel_prefix, 7
10, 480, Control_c, 7, 93, 110
10, 480, Control_c, 7, 91, 45
10, 480, Control_c, 7, 10, 64
10, 480, Control_c, 7, 7, 120
10, 480, Program_c, 7, 24
10, 36480, Note_on_c, 7, 66, 127
10, 37660, Note_off_c, 7, 66, 64
10, 37680, Note_on_c, 7, 64, 127
10, 37900, Note_off_c, 7, 64, 64
10, 37920, Note_on_c, 7, 66, 127
10, 38380, Note_off_c, 7, 66, 64
10, 38400, Note_on_c, 7, 64, 127
10, 38620, Note_off_c, 7, 64, 64
10, 38640, Note_on_c, 7, 66, 127
10, 39340, Note_off_c, 7, 66, 64
10, 40320, Note_on_c, 7, 68, 127
10, 40540, Note_off_c, 7, 68, 64
10, 40560, Note_on_c, 7, 66, 127
10, 41020, Note_off_c, 7, 66, 64
10, 41040, Note_on_c, 7, 64, 127
10, 41500, Note_off_c, 7, 64, 64
10, 41520, Note_on_c, 7, 66, 127
10, 41980, Note_off_c, 7, 66, 64
10, 42000, Note_on_c, 7, 61, 127
10, 42700, Note_off_c, 7, 61, 64
10, 44160, Note_on_c, 7, 67, 127
10, 44380, Note_off_c, 7, 67, 64
10, 44400, Note_on_c, 7, 66, 127
10, 45340, Note_off_c, 7, 66, 64
10, 45360, Note_on_c, 7, 64, 127
10, 45580, Note_off_c, 7, 64, 64
10, 45600, Note_on_c, 7, 66, 127
10, 46060, Note_off_c, 7, 66, 64
10, 74880, Note_on_c, 7, 66, 127
10, 76060, Note_off_c, 7, 66, 64
10, 76080, Note_on_c, 7, 64, 127
10, 76300, Note_off_c, 7, 64, 64
10, 76320, Note_on_c, 7, 66, 127
10, 76780, Note_off_c, 7, 66, 64
10, 76800, Note_on_c, 7, 64, 127
10, 77020, Note_off_c, 7, 64, 64
10, 77040, Note_on_c, 7, 66, 127
10, 77740, Note_off_c, 7, 66, 64
10, 78720, Note_on_c, 7, 68, 127
10, 78940, Note_off_c, 7, 68, 64
10, 78960, Note_on_c, 7, 66, 127
10, 79420, Note_off_c, 7, 66, 64
10, 79440, Note_on_c, 7, 64, 127
10, 79900, Note_off_c, 7, 64, 64
10, 79920, Note_on_c, 7, 66, 127
10, 80380, Note_off_c, 7, 66, 64
10, 80400, Note_on_c, 7, 61, 127
10, 81100, Note_off_c, 7, 61, 64
10, 82560, Note_on_c, 7, 67, 127
10, 82780, Note_off_c, 7, 67, 64
10, 82800, Note_on_c, 7, 66, 127
10, 83740, Note_off_c, 7, 66, 64
10, 83760, Note_on_c, 7, 64, 127
10, 83980, Note_off_c, 7, 64, 64
10, 84000, Note_on_c, 7, 66, 127
10, 84460, Note_off_c, 7, 66, 64
10, 101760, Note_on_c, 7, 54, 127
10, 103660, Note_off_c, 7, 54, 64
10, 103680, Note_on_c, 7, 56, 127
10, 105580, Note_off_c, 7, 56, 64
10, 105600, Note_on_c, 7, 57, 127
10, 107500, Note_off_c, 7, 57, 64
10, 107520, Note_on_c, 7, 59, 127
10, 109420, Note_off_c, 7, 59, 64
10, 109440, Note_on_c, 7, 61, 127
10, 111340, Note_off_c, 7, 61, 64
10, 111360, Note_on_c, 7, 63, 127
10, 113260, Note_off_c, 7, 63, 64
10, 136320, Note_on_c, 7, 66, 127
10, 137500, Note_off_c, 7, 66, 64
10, 137520, Note_on_c, 7, 64, 127
10, 137740, Note_off_c, 7, 64, 64
10, 137760, Note_on_c, 7, 66, 127
10, 138220, Note_off_c, 7, 66, 64
10, 138240, Note_on_c, 7, 64, 127
10, 138460, Note_off_c, 7, 64, 64
10, 138480, Note_on_c, 7, 66, 127
10, 139180, Note_off_c, 7, 66, 64
10, 140160, Note_on_c, 7, 68, 127
10, 140380, Note_off_c, 7, 68, 64
10, 140400, Note_on_c, 7, 66, 127
10, 140860, Note_off_c, 7, 66, 64
10, 140880, Note_on_c, 7, 64, 127
10, 141340, Note_off_c, 7, 64, 64
10, 141360, Note_on_c, 7, 66, 127
10, 141820, Note_off_c, 7, 66, 64
10, 141840, Note_on_c, 7, 61, 127
10, 142540, Note_off_c, 7, 61, 64
10, 144000, Note_on_c, 7, 67, 127
10, 144220, Note_off_c, 7, 67, 64
10, 144240, Note_on_c, 7, 66, 127
10, 145180, Note_off_c, 7, 66, 64
10, 145200, Note_on_c, 7, 64, 127
10, 145420, Note_off_c, 7, 64, 64
10, 145440, Note_on_c, 7, 66, 127
10, 145900, Note_off_c, 7, 66, 64
10, 167520, Note_on_c, 7, 64, 127
10, 167980, Note_off_c, 7, 64, 64
10, 168000, Note_on_c, 7, 62, 127
10, 168220, Note_off_c, 7, 62, 64
10, 168240, Note_on_c, 7, 64, 127
10, 168940, Note_off_c, 7, 64, 64
10, 171360, Note_on_c, 7, 64, 127
10, 171820, Note_off_c, 7, 64, 64
10, 171840, Note_on_c, 7, 62, 127
10, 172060, Note_off_c, 7, 62, 64
10, 172080, Note_on_c, 7, 64, 127
10, 172540, Note_off_c, 7, 64, 64
10, 172560, Note_on_c, 7, 59, 127
10, 173260, Note_off_c, 7, 59, 64
10, 175200, Note_on_c, 7, 64, 127
10, 175660, Note_off_c, 7, 64, 64
10, 175680, Note_on_c, 7, 62, 127
10, 175900, Note_off_c, 7, 62, 64
10, 175920, Note_on_c, 7, 64, 127
10, 176620, Note_off_c, 7, 64, 64
10, 179040, Note_on_c, 7, 64, 127
10, 179500, Note_off_c, 7, 64, 64
10, 179520, Note_on_c, 7, 62, 127
10, 179740, Note_off_c, 7, 62, 64
10, 179760, Note_on_c, 7, 64, 127
10, 180220, Note_off_c, 7, 64, 64
10, 180240, Note_on_c, 7, 59, 127
10, 180480, Control_c, 7, 7, 120
10, 180750, Control_c, 7, 7, 119
10, 180940, Note_off_c, 7, 59, 64
10, 181025, Control_c, 7, 7, 118
10, 181295, Control_c, 7, 7, 117
10, 181570, Control_c, 7, 7, 116
10, 181840, Control_c, 7, 7, 115
10, 182110, Control_c, 7, 7, 114
10, 182385, Control_c, 7, 7, 113
10, 182655, Control_c, 7, 7, 112
10, 182880, Note_on_c, 7, 64, 127
10, 182930, Control_c, 7, 7, 111
10, 183200, Control_c, 7, 7, 110
10, 183340, Note_off_c, 7, 64, 64
10, 183360, Note_on_c, 7, 62, 127
10, 183470, Control_c, 7, 7, 109
10, 183580, Note_off_c, 7, 62, 64
10, 183600, Note_on_c, 7, 64, 127
10, 183745, Control_c, 7, 7, 108
10, 184015, Control_c, 7, 7, 107
10, 184285, Control_c, 7, 7, 106
10, 184300, Note_off_c, 7, 64, 64
10, 184560, Control_c, 7, 7, 105
10, 184830, Control_c, 7, 7, 104
10, 185105, Control_c, 7, 7, 103
10, 185375, Control_c, 7, 7, 102
10, 185645, Control_c, 7, 7, 101
10, 185920, Control_c, 7, 7, 100
10, 186190, Control_c, 7, 7, 99
10, 186465, Control_c, 7, 7, 98
10, 186720, Note_on_c, 7, 64, 127
10, 186735, Control_c, 7, 7, 97
10, 187005, Control_c, 7, 7, 96
10, 187180, Note_off_c, 7, 64, 64
10, 187200, Note_on_c, 7, 62, 127
10, 187280, Control_c, 7, 7, 95
10, 187420, Note_off_c, 7, 62, 64
10, 187440, Note_on_c, 7, 64, 127
10, 187550, Control_c, 7, 7, 94
10, 187825, Control_c, 7, 7, 93
10, 187900, Note_off_c, 7, 64, 64
10, 187920, Note_on_c, 7, 59, 127
10, 188095, Control_c, 7, 7, 92
10, 188365, Control_c, 7, 7, 91
10, 188620, Note_off_c, 7, 59, 64
10, 188640, Control_c, 7, 7, 90
10, 188910, Control_c, 7, 7, 89
10, 189185, Control_c, 7, 7, 88
10, 189455, Control_c, 7, 7, 87
10, 189725, Control_c, 7, 7, 86
10, 190000, Control_c, 7, 7, 85
10, 190270, Control_c, 7, 7, 84
10, 190540, Control_c, 7, 7, 83
10, 190560, Note_on_c, 7, 64, 127
10, 190815, Control_c, 7, 7, 82
10, 191020, Note_off_c, 7, 64, 64
10, 191040, Note_on_c, 7, 62, 127
10, 191085, Control_c, 7, 7, 81
10, 191260, Note_off_c, 7, 62, 64
10, 191280, Note_on_c, 7, 64, 127
10, 191360, Control_c, 7, 7, 80
10, 191630, Control_c, 7, 7, 79
10, 191900, Control_c, 7, 7, 78
10, 191980, Note_off_c, 7, 64, 64
10, 192175, Control_c, 7, 7, 77
10, 192445, Control_c, 7, 7, 76
10, 192720, Control_c, 7, 7, 75
10, 192990, Control_c, 7, 7, 74
10, 193260, Control_c, 7, 7, 73
10, 193535, Control_c, 7, 7, 72
10, 193805, Control_c, 7, 7, 71
10, 194080, Control_c, 7, 7, 70
10, 194350, Control_c, 7, 7, 69
10, 194400, Note_on_c, 7, 64, 127
10, 194620, Control_c, 7, 7, 68
10, 194860, Note_off_c, 7, 64, 64
10, 194880, Note_on_c, 7, 62, 127
10, 194895, Control_c, 7, 7, 67
10, 195100, Note_off_c, 7, 62, 64
10, 195120, Note_on_c, 7, 64, 127
10, 195165, Control_c, 7, 7, 66
10, 195440, Control_c, 7, 7, 65
10, 195580, Note_off_c, 7, 64, 64
10, 195600, Note_on_c, 7, 59, 127
10, 195710, Control_c, 7, 7, 64
10, 195980, Control_c, 7, 7, 63
10, 196255, Control_c, 7, 7, 62
10, 196300, Note_off_c, 7, 59, 64
10, 196525, Control_c, 7, 7, 61
10, 196800, Control_c, 7, 7, 60
10, 197070, Control_c, 7, 7, 59
10, 197340, Control_c, 7, 7, 58
10, 197615, Control_c, 7, 7, 57
10, 197885, Control_c, 7, 7, 56
10, 198155, Control_c, 7, 7, 55
10, 198240, Note_on_c, 7, 64, 127
10, 198430, Control_c, 7, 7, 54
10, 198700, Note_off_c, 7, 64, 64
10, 198700, Control_c, 7, 7, 53
10, 198720, Note_on_c, 7, 62, 127
10, 198940, Note_off_c, 7, 62, 64
10, 198960, Note_on_c, 7, 64, 127
10, 198975, Control_c, 7, 7, 52
10, 199245, Control_c, 7, 7, 51
10, 199515, Control_c, 7, 7, 50
10, 199660, Note_off_c, 7, 64, 64
10, 199790, Control_c, 7, 7, 49
10, 200060, Control_c, 7, 7, 48
10, 200335, Control_c, 7, 7, 47
10, 200605, Control_c, 7, 7, 46
10, 200875, Control_c, 7, 7, 45
10, 201150, Control_c, 7, 7, 44
10, 201420, Control_c, 7, 7, 43
10, 201695, Control_c, 7, 7, 42
10, 201965, Control_c, 7, 7, 41
10, 202080, Note_on_c, 7, 64, 127
10, 202235, Control_c, 7, 7, 40
10, 202510, Control_c, 7, 7, 39
10, 202540, Note_off_c, 7, 64, 64
10, 202560, Note_on_c, 7, 62, 127
10, 202780, Note_off_c, 7, 62, 64
10, 202780, Control_c, 7, 7, 38
10, 202800, Note_on_c, 7, 64, 127
10, 203055, Control_c, 7, 7, 37
10, 203260, Note_off_c, 7, 64, 64
10, 203280, Note_on_c, 7, 59, 127
10, 203325, Control_c, 7, 7, 36
10, 203595, Control_c, 7, 7, 35
10, 203870, Control_c, 7, 7, 34
10, 203980, Note_off_c, 7, 59, 64
10, 204140, Control_c, 7, 7, 33
10, 204410, Control_c, 7, 7, 32
10, 204685, Control_c, 7, 7, 31
10, 204955, Control_c, 7, 7, 30
10, 205230, Control_c, 7, 7, 29
10, 205500, Control_c, 7, 7, 28
10, 205770, Control_c, 7, 7, 27
10, 205920, Note_on_c, 7, 64, 127
10, 206045, Control_c, 7, 7, 26
10, 206315, Control_c, 7, 7, 25
10, 206380, Note_off_c, 7, 64, 64
10, 206400, Note_on_c, 7, 62, 127
10, 206590, Control_c, 7, 7, 24
10, 206620, Note_off_c, 7, 62, 64
10, 206640, Note_on_c, 7, 64, 127
10, 206860, Control_c, 7, 7, 23
10, 207130, Control_c, 7, 7, 22
10, 207340, Note_off_c, 7, 64, 64
10, 207405, Control_c, 7, 7, 21
10, 207675, Control_c, 7, 7, 20
10, 207950, Control_c, 7, 7, 19
10, 208220, Control_c, 7, 7, 18
10, 208490, Control_c, 7, 7, 17
10, 208765, Control_c, 7, 7, 16
10, 209035, Control_c, 7, 7, 15
10, 209310, Control_c, 7, 7, 14
10, 209580, Control_c, 7, 7, 13
10, 209760, Note_on_c, 7, 64, 127
10, 209850, Control_c, 7, 7, 12
10, 210125, Control_c, 7, 7, 11
10, 210220, Note_off_c, 7, 64, 64
10, 210240, Note_on_c, 7, 62, 127
10, 210395, Control_c, 7, 7, 10
10, 210460, Note_off_c, 7, 62, 64
10, 210480, Note_on_c, 7, 64, 127
10, 210665, Control_c, 7, 7, 9
10, 210940, Note_off_c, 7, 64, 64
10, 210940, Control_c, 7, 7, 8
10, 210960, Note_on_c, 7, 59, 127
10, 211210, Control_c, 7, 7, 7
10, 211485, Control_c, 7, 7, 6
10, 211660, Note_off_c, 7, 59, 64
10, 211755, Control_c, 7, 7, 5
10, 212025, Control_c, 7, 7, 4
10, 212300, Control_c, 7, 7, 3
10, 212570, Control_c, 7, 7, 2
10, 212845, Control_c, 7, 7, 1
10, 213115, Control_c, 7, 7, 0
10, 213115, End_track
11, 0, Start_track
11, 0, Title_t, "Std Drums"
11, 0, MIDI_port, 0
11, 0, Channel_prefix, 9
11, 480, Control_c, 9, 93, 64
11, 480, Control_c, 9, 91, 50
11, 480, Control_c, 9, 10, 64
11, 480, Control_c, 9, 7, 120
11, 480, Program_c, 9, 0
11, 9600, Note_on_c, 9, 54, 64
11, 9605, Note_off_c, 9, 54, 64
11, 9720, Note_on_c, 9, 54, 64
11, 9725, Note_off_c, 9, 54, 64
11, 9840, Note_on_c, 9, 54, 64
11, 9845, Note_off_c, 9, 54, 64
11, 9960, Note_on_c, 9, 54, 64
11, 9965, Note_off_c, 9, 54, 64
11, 10080, Note_on_c, 9, 54, 117
11, 10085, Note_off_c, 9, 54, 64
11, 10320, Note_on_c, 9, 54, 64
11, 10325, Note_off_c, 9, 54, 64
11, 10440, Note_on_c, 9, 54, 64
11, 10445, Note_off_c, 9, 54, 64
11, 10560, Note_on_c, 9, 54, 64
11, 10565, Note_off_c, 9, 54, 64
11, 10680, Note_on_c, 9, 54, 64
11, 10685, Note_off_c, 9, 54, 64
11, 10800, Note_on_c, 9, 54, 64
11, 10805, Note_off_c, 9, 54, 64
11, 10920, Note_on_c, 9, 54, 64
11, 10925, Note_off_c, 9, 54, 64
11, 11040, Note_on_c, 9, 54, 117
11, 11045, Note_off_c, 9, 54, 64
11, 11280, Note_on_c, 9, 54, 64
11, 11285, Note_off_c, 9, 54, 64
11, 11400, Note_on_c, 9, 54, 64
11, 11405, Note_off_c, 9, 54, 64
11, 11520, Note_on_c, 9, 54, 64
11, 11525, Note_off_c, 9, 54, 64
11, 11640, Note_on_c, 9, 54, 64
11, 11645, Note_off_c, 9, 54, 64
11, 11760, Note_on_c, 9, 54, 64
11, 11765, Note_off_c, 9, 54, 64
11, 11880, Note_on_c, 9, 54, 64
11, 11885, Note_off_c, 9, 54, 64
11, 12000, Note_on_c, 9, 54, 117
11, 12005, Note_off_c, 9, 54, 64
11, 12240, Note_on_c, 9, 54, 64
11, 12245, Note_off_c, 9, 54, 64
11, 12360, Note_on_c, 9, 54, 64
11, 12365, Note_off_c, 9, 54, 64
11, 12480, Note_on_c, 9, 54, 64
11, 12485, Note_off_c, 9, 54, 64
11, 12600, Note_on_c, 9, 54, 64
11, 12605, Note_off_c, 9, 54, 64
11, 12720, Note_on_c, 9, 54, 64
11, 12725, Note_off_c, 9, 54, 64
11, 12840, Note_on_c, 9, 54, 64
11, 12845, Note_off_c, 9, 54, 64
11, 12960, Note_on_c, 9, 54, 117
11, 12965, Note_off_c, 9, 54, 64
11, 13200, Note_on_c, 9, 54, 64
11, 13205, Note_off_c, 9, 54, 64
11, 13320, Note_on_c, 9, 54, 64
11, 13325, Note_off_c, 9, 54, 64
11, 13440, Note_on_c, 9, 54, 64
11, 13445, Note_off_c, 9, 54, 64
11, 13560, Note_on_c, 9, 54, 64
11, 13565, Note_off_c, 9, 54, 64
11, 13680, Note_on_c, 9, 54, 64
11, 13685, Note_off_c, 9, 54, 64
11, 13800, Note_on_c, 9, 54, 64
11, 13805, Note_off_c, 9, 54, 64
11, 13920, Note_on_c, 9, 54, 117
11, 13925, Note_off_c, 9, 54, 64
11, 14160, Note_on_c, 9, 54, 64
11, 14165, Note_off_c, 9, 54, 64
11, 14280, Note_on_c, 9, 54, 64
11, 14285, Note_off_c, 9, 54, 64
11, 14400, Note_on_c, 9, 54, 64
11, 14405, Note_off_c, 9, 54, 64
11, 14520, Note_on_c, 9, 54, 64
11, 14525, Note_off_c, 9, 54, 64
11, 14640, Note_on_c, 9, 54, 64
11, 14645, Note_off_c, 9, 54, 64
11, 14760, Note_on_c, 9, 54, 64
11, 14765, Note_off_c, 9, 54, 64
11, 14880, Note_on_c, 9, 54, 117
11, 14885, Note_off_c, 9, 54, 64
11, 15120, Note_on_c, 9, 54, 64
11, 15125, Note_off_c, 9, 54, 64
11, 15240, Note_on_c, 9, 54, 64
11, 15245, Note_off_c, 9, 54, 64
11, 15360, Note_on_c, 9, 54, 64
11, 15365, Note_off_c, 9, 54, 64
11, 15480, Note_on_c, 9, 54, 64
11, 15485, Note_off_c, 9, 54, 64
11, 15600, Note_on_c, 9, 54, 64
11, 15605, Note_off_c, 9, 54, 64
11, 15720, Note_on_c, 9, 54, 64
11, 15725, Note_off_c, 9, 54, 64
11, 15840, Note_on_c, 9, 54, 117
11, 15845, Note_off_c, 9, 54, 64
11, 16080, Note_on_c, 9, 54, 64
11, 16085, Note_off_c, 9, 54, 64
11, 16200, Note_on_c, 9, 54, 64
11, 16205, Note_off_c, 9, 54, 64
11, 16320, Note_on_c, 9, 41, 100
11, 16320, Note_on_c, 9, 54, 64
11, 16325, Note_off_c, 9, 54, 64
11, 16325, Note_off_c, 9, 41, 64
11, 16400, Note_on_c, 9, 43, 100
11, 16405, Note_off_c, 9, 43, 64
11, 16440, Note_on_c, 9, 54, 64
11, 16445, Note_off_c, 9, 54, 64
11, 16480, Note_on_c, 9, 41, 100
11, 16485, Note_off_c, 9, 41, 64
11, 16560, Note_on_c, 9, 54, 64
11, 16560, Note_on_c, 9, 43, 100
11, 16565, Note_off_c, 9, 43, 64
11, 16565, Note_off_c, 9, 54, 64
11, 16640, Note_on_c, 9, 41, 100
11, 16645, Note_off_c, 9, 41, 64
11, 16680, Note_on_c, 9, 54, 64
11, 16685, Note_off_c, 9, 54, 64
11, 16720, Note_on_c, 9, 41, 100
11, 16725, Note_off_c, 9, 41, 64
11, 16800, Note_on_c, 9, 54, 117
11, 16800, Note_on_c, 9, 43, 100
11, 16805, Note_off_c, 9, 43, 64
11, 16805, Note_off_c, 9, 54, 64
11, 16880, Note_on_c, 9, 41, 100
11, 16885, Note_off_c, 9, 41, 64
11, 16960, Note_on_c, 9, 43, 100
11, 16965, Note_off_c, 9, 43, 64
11, 17040, Note_on_c, 9, 41, 100
11, 17040, Note_on_c, 9, 54, 64
11, 17045, Note_off_c, 9, 54, 64
11, 17045, Note_off_c, 9, 41, 64
11, 17120, Note_on_c, 9, 43, 100
11, 17125, Note_off_c, 9, 43, 64
11, 17160, Note_on_c, 9, 54, 64
11, 17165, Note_off_c, 9, 54, 64
11, 17200, Note_on_c, 9, 41, 100
11, 17205, Note_off_c, 9, 41, 64
11, 17280, Note_on_c, 9, 54, 64
11, 17280, Note_on_c, 9, 49, 100
11, 17280, Note_on_c, 9, 36, 110
11, 17285, Note_off_c, 9, 36, 64
11, 17285, Note_off_c, 9, 49, 64
11, 17285, Note_off_c, 9, 54, 64
11, 17520, Note_on_c, 9, 54, 64
11, 17520, Note_on_c, 9, 42, 110
11, 17525, Note_off_c, 9, 42, 64
11, 17525, Note_off_c, 9, 54, 64
11, 17760, Note_on_c, 9, 38, 111
11, 17760, Note_on_c, 9, 42, 110
11, 17760, Note_on_c, 9, 54, 117
11, 17765, Note_off_c, 9, 54, 64
11, 17765, Note_off_c, 9, 42, 64
11, 17765, Note_off_c, 9, 38, 64
11, 18000, Note_on_c, 9, 42, 110
11, 18000, Note_on_c, 9, 54, 64
11, 18005, Note_off_c, 9, 54, 64
11, 18005, Note_off_c, 9, 42, 64
11, 18240, Note_on_c, 9, 42, 110
11, 18240, Note_on_c, 9, 36, 110
11, 18240, Note_on_c, 9, 54, 64
11, 18245, Note_off_c, 9, 54, 64
11, 18245, Note_off_c, 9, 36, 64
11, 18245, Note_off_c, 9, 42, 64
11, 18480, Note_on_c, 9, 54, 64
11, 18480, Note_on_c, 9, 42, 110
11, 18480, Note_on_c, 9, 36, 110
11, 18485, Note_off_c, 9, 36, 64
11, 18485, Note_off_c, 9, 42, 64
11, 18485, Note_off_c, 9, 54, 64
11, 18720, Note_on_c, 9, 54, 117
11, 18720, Note_on_c, 9, 42, 110
11, 18720, Note_on_c, 9, 38, 111
11, 18725, Note_off_c, 9, 38, 64
11, 18725, Note_off_c, 9, 42, 64
11, 18725, Note_off_c, 9, 54, 64
11, 18960, Note_on_c, 9, 42, 110
11, 18960, Note_on_c, 9, 54, 64
11, 18965, Note_off_c, 9, 54, 64
11, 18965, Note_off_c, 9, 42, 64
11, 19200, Note_on_c, 9, 42, 110
11, 19200, Note_on_c, 9, 54, 64
11, 19200, Note_on_c, 9, 36, 110
11, 19205, Note_off_c, 9, 36, 64
11, 19205, Note_off_c, 9, 54, 64
11, 19205, Note_off_c, 9, 42, 64
11, 19440, Note_on_c, 9, 36, 110
11, 19440, Note_on_c, 9, 54, 64
11, 19440, Note_on_c, 9, 42, 110
11, 19445, Note_off_c, 9, 42, 64
11, 19445, Note_off_c, 9, 54, 64
11, 19445, Note_off_c, 9, 36, 64
11, 19680, Note_on_c, 9, 54, 117
11, 19680, Note_on_c, 9, 38, 111
11, 19680, Note_on_c, 9, 42, 110
11, 19685, Note_off_c, 9, 42, 64
11, 19685, Note_off_c, 9, 38, 64
11, 19685, Note_off_c, 9, 54, 64
11, 19920, Note_on_c, 9, 42, 110
11, 19920, Note_on_c, 9, 54, 64
11, 19925, Note_off_c, 9, 54, 64
11, 19925, Note_off_c, 9, 42, 64
11, 20160, Note_on_c, 9, 54, 64
11, 20160, Note_on_c, 9, 36, 110
11, 20160, Note_on_c, 9, 42, 110
11, 20165, Note_off_c, 9, 42, 64
11, 20165, Note_off_c, 9, 36, 64
11, 20165, Note_off_c, 9, 54, 64
11, 20400, Note_on_c, 9, 54, 64
11, 20400, Note_on_c, 9, 36, 110
11, 20400, Note_on_c, 9, 42, 110
11, 20405, Note_off_c, 9, 42, 64
11, 20405, Note_off_c, 9, 36, 64
11, 20405, Note_off_c, 9, 54, 64
11, 20640, Note_on_c, 9, 54, 117
11, 20640, Note_on_c, 9, 42, 110
11, 20640, Note_on_c, 9, 38, 111
11, 20645, Note_off_c, 9, 38, 64
11, 20645, Note_off_c, 9, 42, 64
11, 20645, Note_off_c, 9, 54, 64
11, 20880, Note_on_c, 9, 42, 110
11, 20880, Note_on_c, 9, 54, 64
11, 20885, Note_off_c, 9, 54, 64
11, 20885, Note_off_c, 9, 42, 64
11, 21120, Note_on_c, 9, 36, 110
11, 21120, Note_on_c, 9, 54, 64
11, 21120, Note_on_c, 9, 42, 110
11, 21125, Note_off_c, 9, 42, 64
11, 21125, Note_off_c, 9, 54, 64
11, 21125, Note_off_c, 9, 36, 64
11, 21360, Note_on_c, 9, 42, 110
11, 21360, Note_on_c, 9, 36, 110
11, 21360, Note_on_c, 9, 54, 64
11, 21365, Note_off_c, 9, 54, 64
11, 21365, Note_off_c, 9, 36, 64
11, 21365, Note_off_c, 9, 42, 64
11, 21600, Note_on_c, 9, 38, 111
11, 21600, Note_on_c, 9, 42, 110
11, 21600, Note_on_c, 9, 54, 117
11, 21605, Note_off_c, 9, 54, 64
11, 21605, Note_off_c, 9, 42, 64
11, 21605, Note_off_c, 9, 38, 64
11, 21840, Note_on_c, 9, 42, 110
11, 21840, Note_on_c, 9, 54, 64
11, 21845, Note_off_c, 9, 54, 64
11, 21845, Note_off_c, 9, 42, 64
11, 22080, Note_on_c, 9, 36, 110
11, 22080, Note_on_c, 9, 54, 64
11, 22080, Note_on_c, 9, 42, 110
11, 22085, Note_off_c, 9, 42, 64
11, 22085, Note_off_c, 9, 54, 64
11, 22085, Note_off_c, 9, 36, 64
11, 22320, Note_on_c, 9, 42, 110
11, 22320, Note_on_c, 9, 54, 64
11, 22320, Note_on_c, 9, 36, 110
11, 22325, Note_off_c, 9, 36, 64
11, 22325, Note_off_c, 9, 54, 64
11, 22325, Note_off_c, 9, 42, 64
11, 22560, Note_on_c, 9, 54, 117
11, 22560, Note_on_c, 9, 38, 111
11, 22560, Note_on_c, 9, 42, 110
11, 22565, Note_off_c, 9, 42, 64
11, 22565, Note_off_c, 9, 38, 64
11, 22565, Note_off_c, 9, 54, 64
11, 22800, Note_on_c, 9, 42, 110
11, 22800, Note_on_c, 9, 54, 64
11, 22805, Note_off_c, 9, 54, 64
11, 22805, Note_off_c, 9, 42, 64
11, 23040, Note_on_c, 9, 36, 110
11, 23040, Note_on_c, 9, 42, 110
11, 23040, Note_on_c, 9, 54, 64
11, 23045, Note_off_c, 9, 54, 64
11, 23045, Note_off_c, 9, 42, 64
11, 23045, Note_off_c, 9, 36, 64
11, 23280, Note_on_c, 9, 36, 110
11, 23280, Note_on_c, 9, 42, 110
11, 23280, Note_on_c, 9, 54, 64
11, 23285, Note_off_c, 9, 54, 64
11, 23285, Note_off_c, 9, 42, 64
11, 23285, Note_off_c, 9, 36, 64
11, 23520, Note_on_c, 9, 54, 117
11, 23520, Note_on_c, 9, 42, 110
11, 23520, Note_on_c, 9, 38, 111
11, 23525, Note_off_c, 9, 38, 64
11, 23525, Note_off_c, 9, 42, 64
11, 23525, Note_off_c, 9, 54, 64
11, 23760, Note_on_c, 9, 54, 64
11, 23760, Note_on_c, 9, 42, 110
11, 23765, Note_off_c, 9, 42, 64
11, 23765, Note_off_c, 9, 54, 64
11, 24000, Note_on_c, 9, 36, 110
11, 24000, Note_on_c, 9, 54, 64
11, 24000, Note_on_c, 9, 42, 110
11, 24005, Note_off_c, 9, 42, 64
11, 24005, Note_off_c, 9, 54, 64
11, 24005, Note_off_c, 9, 36, 64
11, 24240, Note_on_c, 9, 54, 64
11, 24240, Note_on_c, 9, 36, 110
11, 24240, Note_on_c, 9, 42, 110
11, 24245, Note_off_c, 9, 42, 64
11, 24245, Note_off_c, 9, 36, 64
11, 24245, Note_off_c, 9, 54, 64
11, 24480, Note_on_c, 9, 42, 110
11, 24480, Note_on_c, 9, 54, 117
11, 24480, Note_on_c, 9, 38, 111
11, 24485, Note_off_c, 9, 38, 64
11, 24485, Note_off_c, 9, 54, 64
11, 24485, Note_off_c, 9, 42, 64
11, 24720, Note_on_c, 9, 54, 64
11, 24720, Note_on_c, 9, 42, 110
11, 24725, Note_off_c, 9, 42, 64
11, 24725, Note_off_c, 9, 54, 64
11, 24960, Note_on_c, 9, 42, 110
11, 24960, Note_on_c, 9, 36, 110
11, 24960, Note_on_c, 9, 54, 64
11, 24965, Note_off_c, 9, 54, 64
11, 24965, Note_off_c, 9, 36, 64
11, 24965, Note_off_c, 9, 42, 64
11, 25200, Note_on_c, 9, 36, 110
11, 25200, Note_on_c, 9, 54, 64
11, 25200, Note_on_c, 9, 42, 110
11, 25205, Note_off_c, 9, 42, 64
11, 25205, Note_off_c, 9, 54, 64
11, 25205, Note_off_c, 9, 36, 64
11, 25440, Note_on_c, 9, 42, 110
11, 25440, Note_on_c, 9, 38, 111
11, 25440, Note_on_c, 9, 54, 117
11, 25445, Note_off_c, 9, 54, 64
11, 25445, Note_off_c, 9, 38, 64
11, 25445, Note_off_c, 9, 42, 64
11, 25680, Note_on_c, 9, 42, 110
11, 25680, Note_on_c, 9, 54, 64
11, 25685, Note_off_c, 9, 54, 64
11, 25685, Note_off_c, 9, 42, 64
11, 25920, Note_on_c, 9, 54, 64
11, 25920, Note_on_c, 9, 36, 110
11, 25920, Note_on_c, 9, 42, 110
11, 25925, Note_off_c, 9, 42, 64
11, 25925, Note_off_c, 9, 36, 64
11, 25925, Note_off_c, 9, 54, 64
11, 26160, Note_on_c, 9, 54, 64
11, 26160, Note_on_c, 9, 36, 110
11, 26160, Note_on_c, 9, 42, 110
11, 26165, Note_off_c, 9, 42, 64
11, 26165, Note_off_c, 9, 36, 64
11, 26165, Note_off_c, 9, 54, 64
11, 26400, Note_on_c, 9, 54, 117
11, 26400, Note_on_c, 9, 38, 111
11, 26400, Note_on_c, 9, 42, 110
11, 26405, Note_off_c, 9, 42, 64
11, 26405, Note_off_c, 9, 38, 64
11, 26405, Note_off_c, 9, 54, 64
11, 26640, Note_on_c, 9, 42, 110
11, 26640, Note_on_c, 9, 54, 64
11, 26645, Note_off_c, 9, 54, 64
11, 26645, Note_off_c, 9, 42, 64
11, 26880, Note_on_c, 9, 36, 110
11, 26880, Note_on_c, 9, 42, 110
11, 26880, Note_on_c, 9, 54, 64
11, 26885, Note_off_c, 9, 54, 64
11, 26885, Note_off_c, 9, 42, 64
11, 26885, Note_off_c, 9, 36, 64
11, 27120, Note_on_c, 9, 54, 64
11, 27120, Note_on_c, 9, 36, 110
11, 27120, Note_on_c, 9, 42, 110
11, 27125, Note_off_c, 9, 42, 64
11, 27125, Note_off_c, 9, 36, 64
11, 27125, Note_off_c, 9, 54, 64
11, 27360, Note_on_c, 9, 38, 111
11, 27360, Note_on_c, 9, 42, 110
11, 27360, Note_on_c, 9, 54, 117
11, 27365, Note_off_c, 9, 54, 64
11, 27365, Note_off_c, 9, 42, 64
11, 27365, Note_off_c, 9, 38, 64
11, 27600, Note_on_c, 9, 54, 64
11, 27600, Note_on_c, 9, 42, 110
11, 27605, Note_off_c, 9, 42, 64
11, 27605, Note_off_c, 9, 54, 64
11, 27840, Note_on_c, 9, 42, 110
11, 27840, Note_on_c, 9, 36, 110
11, 27840, Note_on_c, 9, 54, 64
11, 27845, Note_off_c, 9, 54, 64
11, 27845, Note_off_c, 9, 36, 64
11, 27845, Note_off_c, 9, 42, 64
11, 28080, Note_on_c, 9, 36, 110
11, 28080, Note_on_c, 9, 54, 64
11, 28080, Note_on_c, 9, 42, 110
11, 28085, Note_off_c, 9, 42, 64
11, 28085, Note_off_c, 9, 54, 64
11, 28085, Note_off_c, 9, 36, 64
11, 28320, Note_on_c, 9, 54, 117
11, 28320, Note_on_c, 9, 38, 111
11, 28320, Note_on_c, 9, 42, 110
11, 28325, Note_off_c, 9, 42, 64
11, 28325, Note_off_c, 9, 38, 64
11, 28325, Note_off_c, 9, 54, 64
11, 28560, Note_on_c, 9, 42, 110
11, 28560, Note_on_c, 9, 54, 64
11, 28565, Note_off_c, 9, 54, 64
11, 28565, Note_off_c, 9, 42, 64
11, 28800, Note_on_c, 9, 54, 64
11, 28800, Note_on_c, 9, 42, 110
11, 28800, Note_on_c, 9, 36, 110
11, 28805, Note_off_c, 9, 36, 64
11, 28805, Note_off_c, 9, 42, 64
11, 28805, Note_off_c, 9, 54, 64
11, 29040, Note_on_c, 9, 54, 64
11, 29040, Note_on_c, 9, 42, 110
11, 29040, Note_on_c, 9, 36, 110
11, 29045, Note_off_c, 9, 36, 64
11, 29045, Note_off_c, 9, 42, 64
11, 29045, Note_off_c, 9, 54, 64
11, 29280, Note_on_c, 9, 54, 117
11, 29280, Note_on_c, 9, 42, 110
11, 29280, Note_on_c, 9, 38, 111
11, 29285, Note_off_c, 9, 38, 64
11, 29285, Note_off_c, 9, 42, 64
11, 29285, Note_off_c, 9, 54, 64
11, 29520, Note_on_c, 9, 42, 110
11, 29520, Note_on_c, 9, 54, 64
11, 29525, Note_off_c, 9, 54, 64
11, 29525, Note_off_c, 9, 42, 64
11, 29760, Note_on_c, 9, 42, 110
11, 29760, Note_on_c, 9, 54, 64
11, 29760, Note_on_c, 9, 36, 110
11, 29765, Note_off_c, 9, 36, 64
11, 29765, Note_off_c, 9, 54, 64
11, 29765, Note_off_c, 9, 42, 64
11, 30000, Note_on_c, 9, 42, 110
11, 30000, Note_on_c, 9, 54, 64
11, 30000, Note_on_c, 9, 36, 110
11, 30005, Note_off_c, 9, 36, 64
11, 30005, Note_off_c, 9, 54, 64
11, 30005, Note_off_c, 9, 42, 64
11, 30240, Note_on_c, 9, 54, 117
11, 30240, Note_on_c, 9, 42, 110
11, 30240, Note_on_c, 9, 38, 111
11, 30245, Note_off_c, 9, 38, 64
11, 30245, Note_off_c, 9, 42, 64
11, 30245, Note_off_c, 9, 54, 64
11, 30480, Note_on_c, 9, 42, 110
11, 30480, Note_on_c, 9, 54, 64
11, 30485, Note_off_c, 9, 54, 64
11, 30485, Note_off_c, 9, 42, 64
11, 30720, Note_on_c, 9, 54, 64
11, 30720, Note_on_c, 9, 36, 110
11, 30720, Note_on_c, 9, 42, 110
11, 30725, Note_off_c, 9, 42, 64
11, 30725, Note_off_c, 9, 36, 64
11, 30725, Note_off_c, 9, 54, 64
11, 30960, Note_on_c, 9, 36, 110
11, 30960, Note_on_c, 9, 42, 110
11, 30960, Note_on_c, 9, 54, 64
11, 30965, Note_off_c, 9, 54, 64
11, 30965, Note_off_c, 9, 42, 64
11, 30965, Note_off_c, 9, 36, 64
11, 31200, Note_on_c, 9, 54, 117
11, 31200, Note_on_c, 9, 42, 110
11, 31200, Note_on_c, 9, 38, 111
11, 31205, Note_off_c, 9, 38, 64
11, 31205, Note_off_c, 9, 42, 64
11, 31205, Note_off_c, 9, 54, 64
11, 31440, Note_on_c, 9, 54, 64
11, 31440, Note_on_c, 9, 42, 110
11, 31445, Note_off_c, 9, 42, 64
11, 31445, Note_off_c, 9, 54, 64
11, 31680, Note_on_c, 9, 54, 64
11, 31680, Note_on_c, 9, 36, 110
11, 31680, Note_on_c, 9, 42, 110
11, 31685, Note_off_c, 9, 42, 64
11, 31685, Note_off_c, 9, 36, 64
11, 31685, Note_off_c, 9, 54, 64
11, 31920, Note_on_c, 9, 36, 110
11, 31920, Note_on_c, 9, 54, 64
11, 31920, Note_on_c, 9, 42, 110
11, 31925, Note_off_c, 9, 42, 64
11, 31925, Note_off_c, 9, 54, 64
11, 31925, Note_off_c, 9, 36, 64
11, 32160, Note_on_c, 9, 38, 111
11, 32160, Note_on_c, 9, 42, 110
11, 32160, Note_on_c, 9, 54, 117
11, 32165, Note_off_c, 9, 54, 64
11, 32165, Note_off_c, 9, 42, 64
11, 32165, Note_off_c, 9, 38, 64
11, 32400, Note_on_c, 9, 42, 110
11, 32400, Note_on_c, 9, 54, 64
11, 32405, Note_off_c, 9, 54, 64
11, 32405, Note_off_c, 9, 42, 64
11, 32640, Note_on_c, 9, 42, 110
11, 32640, Note_on_c, 9, 36, 110
11, 32640, Note_on_c, 9, 54, 64
11, 32645, Note_off_c, 9, 54, 64
11, 32645, Note_off_c, 9, 36, 64
11, 32645, Note_off_c, 9, 42, 64
11, 32880, Note_on_c, 9, 42, 110
11, 32880, Note_on_c, 9, 54, 64
11, 32880, Note_on_c, 9, 36, 110
11, 32885, Note_off_c, 9, 36, 64
11, 32885, Note_off_c, 9, 54, 64
11, 32885, Note_off_c, 9, 42, 64
11, 33120, Note_on_c, 9, 42, 110
11, 33120, Note_on_c, 9, 54, 117
11, 33120, Note_on_c, 9, 38, 111
11, 33125, Note_off_c, 9, 38, 64
11, 33125, Note_off_c, 9, 54, 64
11, 33125, Note_off_c, 9, 42, 64
11, 33360, Note_on_c, 9, 42, 110
11, 33360, Note_on_c, 9, 54, 64
11, 33365, Note_off_c, 9, 54, 64
11, 33365, Note_off_c, 9, 42, 64
11, 33600, Note_on_c, 9, 36, 110
11, 33600, Note_on_c, 9, 54, 64
11, 33600, Note_on_c, 9, 42, 110
11, 33605, Note_off_c, 9, 42, 64
11, 33605, Note_off_c, 9, 54, 64
11, 33605, Note_off_c, 9, 36, 64
11, 33840, Note_on_c, 9, 42, 110
11, 33840, Note_on_c, 9, 54, 64
11, 33840, Note_on_c, 9, 36, 110
11, 33845, Note_off_c, 9, 36, 64
11, 33845, Note_off_c, 9, 54, 64
11, 33845, Note_off_c, 9, 42, 64
11, 34080, Note_on_c, 9, 54, 117
11, 34080, Note_on_c, 9, 42, 110
11, 34080, Note_on_c, 9, 38, 111
11, 34085, Note_off_c, 9, 38, 64
11, 34085, Note_off_c, 9, 42, 64
11, 34085, Note_off_c, 9, 54, 64
11, 34320, Note_on_c, 9, 42, 110
11, 34320, Note_on_c, 9, 54, 64
11, 34325, Note_off_c, 9, 54, 64
11, 34325, Note_off_c, 9, 42, 64
11, 34560, Note_on_c, 9, 54, 64
11, 34560, Note_on_c, 9, 42, 110
11, 34560, Note_on_c, 9, 36, 110
11, 34565, Note_off_c, 9, 36, 64
11, 34565, Note_off_c, 9, 42, 64
11, 34565, Note_off_c, 9, 54, 64
11, 34800, Note_on_c, 9, 54, 64
11, 34800, Note_on_c, 9, 36, 110
11, 34800, Note_on_c, 9, 42, 110
11, 34805, Note_off_c, 9, 42, 64
11, 34805, Note_off_c, 9, 36, 64
11, 34805, Note_off_c, 9, 54, 64
11, 35040, Note_on_c, 9, 54, 117
11, 35040, Note_on_c, 9, 38, 111
11, 35040, Note_on_c, 9, 42, 110
11, 35045, Note_off_c, 9, 42, 64
11, 35045, Note_off_c, 9, 38, 64
11, 35045, Note_off_c, 9, 54, 64
11, 35280, Note_on_c, 9, 42, 110
11, 35280, Note_on_c, 9, 54, 64
11, 35285, Note_off_c, 9, 54, 64
11, 35285, Note_off_c, 9, 42, 64
11, 35520, Note_on_c, 9, 42, 110
11, 35520, Note_on_c, 9, 54, 64
11, 35520, Note_on_c, 9, 36, 110
11, 35525, Note_off_c, 9, 36, 64
11, 35525, Note_off_c, 9, 54, 64
11, 35525, Note_off_c, 9, 42, 64
11, 35760, Note_on_c, 9, 54, 64
11, 35760, Note_on_c, 9, 36, 110
11, 35760, Note_on_c, 9, 42, 110
11, 35765, Note_off_c, 9, 42, 64
11, 35765, Note_off_c, 9, 36, 64
11, 35765, Note_off_c, 9, 54, 64
11, 36000, Note_on_c, 9, 38, 111
11, 36000, Note_on_c, 9, 42, 110
11, 36000, Note_on_c, 9, 54, 117
11, 36005, Note_off_c, 9, 54, 64
11, 36005, Note_off_c, 9, 42, 64
11, 36005, Note_off_c, 9, 38, 64
11, 36240, Note_on_c, 9, 42, 110
11, 36240, Note_on_c, 9, 54, 64
11, 36245, Note_off_c, 9, 54, 64
11, 36245, Note_off_c, 9, 42, 64
11, 36480, Note_on_c, 9, 38, 111
11, 36480, Note_on_c, 9, 36, 110
11, 36480, Note_on_c, 9, 54, 117
11, 36480, Note_on_c, 9, 42, 110
11, 36485, Note_off_c, 9, 42, 64
11, 36485, Note_off_c, 9, 54, 64
11, 36485, Note_off_c, 9, 36, 64
11, 36485, Note_off_c, 9, 38, 64
11, 36720, Note_on_c, 9, 54, 64
11, 36720, Note_on_c, 9, 42, 110
11, 36725, Note_off_c, 9, 42, 64
11, 36725, Note_off_c, 9, 54, 64
11, 36960, Note_on_c, 9, 36, 110
11, 36960, Note_on_c, 9, 38, 111
11, 36960, Note_on_c, 9, 54, 117
11, 36960, Note_on_c, 9, 42, 110
11, 36965, Note_off_c, 9, 42, 64
11, 36965, Note_off_c, 9, 54, 64
11, 36965, Note_off_c, 9, 38, 64
11, 36965, Note_off_c, 9, 36, 64
11, 37200, Note_on_c, 9, 54, 64
11, 37200, Note_on_c, 9, 42, 110
11, 37205, Note_off_c, 9, 42, 64
11, 37205, Note_off_c, 9, 54, 64
11, 37440, Note_on_c, 9, 54, 117
11, 37440, Note_on_c, 9, 42, 110
11, 37440, Note_on_c, 9, 36, 110
11, 37440, Note_on_c, 9, 38, 111
11, 37445, Note_off_c, 9, 38, 64
11, 37445, Note_off_c, 9, 36, 64
11, 37445, Note_off_c, 9, 42, 64
11, 37445, Note_off_c, 9, 54, 64
11, 37680, Note_on_c, 9, 54, 64
11, 37680, Note_on_c, 9, 42, 110
11, 37685, Note_off_c, 9, 42, 64
11, 37685, Note_off_c, 9, 54, 64
11, 37920, Note_on_c, 9, 42, 110
11, 37920, Note_on_c, 9, 36, 110
11, 37920, Note_on_c, 9, 38, 111
11, 37920, Note_on_c, 9, 54, 117
11, 37925, Note_off_c, 9, 54, 64
11, 37925, Note_off_c, 9, 38, 64
11, 37925, Note_off_c, 9, 36, 64
11, 37925, Note_off_c, 9, 42, 64
11, 38160, Note_on_c, 9, 42, 110
11, 38160, Note_on_c, 9, 54, 64
11, 38165, Note_off_c, 9, 54, 64
11, 38165, Note_off_c, 9, 42, 64
11, 38400, Note_on_c, 9, 38, 111
11, 38400, Note_on_c, 9, 36, 110
11, 38400, Note_on_c, 9, 54, 117
11, 38400, Note_on_c, 9, 42, 110
11, 38405, Note_off_c, 9, 42, 64
11, 38405, Note_off_c, 9, 54, 64
11, 38405, Note_off_c, 9, 36, 64
11, 38405, Note_off_c, 9, 38, 64
11, 38640, Note_on_c, 9, 54, 64
11, 38640, Note_on_c, 9, 42, 110
11, 38645, Note_off_c, 9, 42, 64
11, 38645, Note_off_c, 9, 54, 64
11, 38880, Note_on_c, 9, 38, 111
11, 38880, Note_on_c, 9, 36, 110
11, 38880, Note_on_c, 9, 54, 117
11, 38880, Note_on_c, 9, 42, 110
11, 38885, Note_off_c, 9, 42, 64
11, 38885, Note_off_c, 9, 54, 64
11, 38885, Note_off_c, 9, 36, 64
11, 38885, Note_off_c, 9, 38, 64
11, 39120, Note_on_c, 9, 54, 64
11, 39120, Note_on_c, 9, 42, 110
11, 39125, Note_off_c, 9, 42, 64
11, 39125, Note_off_c, 9, 54, 64
11, 39360, Note_on_c, 9, 54, 117
11, 39360, Note_on_c, 9, 42, 110
11, 39360, Note_on_c, 9, 36, 110
11, 39360, Note_on_c, 9, 38, 111
11, 39365, Note_off_c, 9, 38, 64
11, 39365, Note_off_c, 9, 36, 64
11, 39365, Note_off_c, 9, 42, 64
11, 39365, Note_off_c, 9, 54, 64
11, 39600, Note_on_c, 9, 54, 64
11, 39600, Note_on_c, 9, 42, 110
11, 39605, Note_off_c, 9, 42, 64
11, 39605, Note_off_c, 9, 54, 64
11, 39840, Note_on_c, 9, 42, 110
11, 39840, Note_on_c, 9, 38, 111
11, 39840, Note_on_c, 9, 54, 117
11, 39840, Note_on_c, 9, 36, 110
11, 39845, Note_off_c, 9, 36, 64
11, 39845, Note_off_c, 9, 54, 64
11, 39845, Note_off_c, 9, 38, 64
11, 39845, Note_off_c, 9, 42, 64
11, 40080, Note_on_c, 9, 54, 64
11, 40080, Note_on_c, 9, 42, 110
11, 40085, Note_off_c, 9, 42, 64
11, 40085, Note_off_c, 9, 54, 64
11, 40320, Note_on_c, 9, 42, 110
11, 40320, Note_on_c, 9, 38, 111
11, 40320, Note_on_c, 9, 36, 110
11, 40320, Note_on_c, 9, 54, 117
11, 40325, Note_off_c, 9, 54, 64
11, 40325, Note_off_c, 9, 36, 64
11, 40325, Note_off_c, 9, 38, 64
11, 40325, Note_off_c, 9, 42, 64
11, 40560, Note_on_c, 9, 42, 110
11, 40560, Note_on_c, 9, 54, 64
11, 40565, Note_off_c, 9, 54, 64
11, 40565, Note_off_c, 9, 42, 64
11, 40800, Note_on_c, 9, 38, 111
11, 40800, Note_on_c, 9, 42, 110
11, 40800, Note_on_c, 9, 54, 117
11, 40800, Note_on_c, 9, 36, 110
11, 40805, Note_off_c, 9, 36, 64
11, 40805, Note_off_c, 9, 54, 64
11, 40805, Note_off_c, 9, 42, 64
11, 40805, Note_off_c, 9, 38, 64
11, 41040, Note_on_c, 9, 54, 64
11, 41040, Note_on_c, 9, 42, 110
11, 41045, Note_off_c, 9, 42, 64
11, 41045, Note_off_c, 9, 54, 64
11, 41280, Note_on_c, 9, 42, 110
11, 41280, Note_on_c, 9, 38, 111
11, 41280, Note_on_c, 9, 54, 117
11, 41280, Note_on_c, 9, 36, 110
11, 41285, Note_off_c, 9, 36, 64
11, 41285, Note_off_c, 9, 54, 64
11, 41285, Note_off_c, 9, 38, 64
11, 41285, Note_off_c, 9, 42, 64
11, 41520, Note_on_c, 9, 54, 64
11, 41520, Note_on_c, 9, 42, 110
11, 41525, Note_off_c, 9, 42, 64
11, 41525, Note_off_c, 9, 54, 64
11, 41760, Note_on_c, 9, 36, 110
11, 41760, Note_on_c, 9, 54, 117
11, 41760, Note_on_c, 9, 42, 110
11, 41760, Note_on_c, 9, 38, 111
11, 41765, Note_off_c, 9, 38, 64
11, 41765, Note_off_c, 9, 42, 64
11, 41765, Note_off_c, 9, 54, 64
11, 41765, Note_off_c, 9, 36, 64
11, 42000, Note_on_c, 9, 42, 110
11, 42000, Note_on_c, 9, 54, 64
11, 42005, Note_off_c, 9, 54, 64
11, 42005, Note_off_c, 9, 42, 64
11, 42240, Note_on_c, 9, 36, 110
11, 42240, Note_on_c, 9, 38, 111
11, 42240, Note_on_c, 9, 42, 110
11, 42240, Note_on_c, 9, 54, 117
11, 42245, Note_off_c, 9, 54, 64
11, 42245, Note_off_c, 9, 42, 64
11, 42245, Note_off_c, 9, 38, 64
11, 42245, Note_off_c, 9, 36, 64
11, 42480, Note_on_c, 9, 42, 110
11, 42480, Note_on_c, 9, 54, 64
11, 42485, Note_off_c, 9, 54, 64
11, 42485, Note_off_c, 9, 42, 64
11, 42720, Note_on_c, 9, 38, 111
11, 42720, Note_on_c, 9, 54, 117
11, 42720, Note_on_c, 9, 42, 110
11, 42720, Note_on_c, 9, 36, 110
11, 42725, Note_off_c, 9, 36, 64
11, 42725, Note_off_c, 9, 42, 64
11, 42725, Note_off_c, 9, 54, 64
11, 42725, Note_off_c, 9, 38, 64
11, 42960, Note_on_c, 9, 42, 110
11, 42960, Note_on_c, 9, 54, 64
11, 42965, Note_off_c, 9, 54, 64
11, 42965, Note_off_c, 9, 42, 64
11, 43200, Note_on_c, 9, 42, 110
11, 43200, Note_on_c, 9, 54, 117
11, 43200, Note_on_c, 9, 36, 110
11, 43200, Note_on_c, 9, 38, 111
11, 43205, Note_off_c, 9, 38, 64
11, 43205, Note_off_c, 9, 36, 64
11, 43205, Note_off_c, 9, 54, 64
11, 43205, Note_off_c, 9, 42, 64
11, 43440, Note_on_c, 9, 54, 64
11, 43440, Note_on_c, 9, 42, 110
11, 43445, Note_off_c, 9, 42, 64
11, 43445, Note_off_c, 9, 54, 64
11, 43680, Note_on_c, 9, 54, 117
11, 43680, Note_on_c, 9, 38, 111
11, 43680, Note_on_c, 9, 36, 110
11, 43680, Note_on_c, 9, 42, 110
11, 43685, Note_off_c, 9, 42, 64
11, 43685, Note_off_c, 9, 36, 64
11, 43685, Note_off_c, 9, 38, 64
11, 43685, Note_off_c, 9, 54, 64
11, 43920, Note_on_c, 9, 42, 110
11, 43920, Note_on_c, 9, 54, 64
11, 43925, Note_off_c, 9, 54, 64
11, 43925, Note_off_c, 9, 42, 64
11, 44160, Note_on_c, 9, 38, 111
11, 44160, Note_on_c, 9, 54, 117
11, 44160, Note_on_c, 9, 42, 110
11, 44160, Note_on_c, 9, 36, 110
11, 44165, Note_off_c, 9, 36, 64
11, 44165, Note_off_c, 9, 42, 64
11, 44165, Note_off_c, 9, 54, 64
11, 44165, Note_off_c, 9, 38, 64
11, 44400, Note_on_c, 9, 42, 110
11, 44400, Note_on_c, 9, 54, 64
11, 44405, Note_off_c, 9, 54, 64
11, 44405, Note_off_c, 9, 42, 64
11, 44640, Note_on_c, 9, 38, 111
11, 44640, Note_on_c, 9, 54, 90
11, 44640, Note_on_c, 9, 42, 110
11, 44640, Note_on_c, 9, 36, 110
11, 44645, Note_off_c, 9, 36, 64
11, 44645, Note_off_c, 9, 42, 64
11, 44645, Note_off_c, 9, 54, 64
11, 44645, Note_off_c, 9, 38, 64
11, 44760, Note_on_c, 9, 54, 90
11, 44760, Note_on_c, 9, 46, 110
11, 44765, Note_off_c, 9, 46, 64
11, 44765, Note_off_c, 9, 54, 64
11, 45120, Note_on_c, 9, 54, 117
11, 45120, Note_on_c, 9, 36, 110
11, 45120, Note_on_c, 9, 38, 111
11, 45120, Note_on_c, 9, 42, 110
11, 45125, Note_off_c, 9, 42, 64
11, 45125, Note_off_c, 9, 38, 64
11, 45125, Note_off_c, 9, 36, 64
11, 45125, Note_off_c, 9, 54, 64
11, 45360, Note_on_c, 9, 42, 110
11, 45360, Note_on_c, 9, 54, 64
11, 45365, Note_off_c, 9, 54, 64
11, 45365, Note_off_c, 9, 42, 64
11, 45600, Note_on_c, 9, 36, 110
11, 45600, Note_on_c, 9, 42, 110
11, 45600, Note_on_c, 9, 54, 117
11, 45600, Note_on_c, 9, 38, 111
11, 45605, Note_off_c, 9, 38, 64
11, 45605, Note_off_c, 9, 54, 64
11, 45605, Note_off_c, 9, 42, 64
11, 45605, Note_off_c, 9, 36, 64
11, 45840, Note_on_c, 9, 54, 64
11, 45840, Note_on_c, 9, 42, 110
11, 45845, Note_off_c, 9, 42, 64
11, 45845, Note_off_c, 9, 54, 64
11, 46080, Note_on_c, 9, 42, 110
11, 46080, Note_on_c, 9, 36, 110
11, 46080, Note_on_c, 9, 54, 117
11, 46080, Note_on_c, 9, 38, 111
11, 46085, Note_off_c, 9, 38, 64
11, 46085, Note_off_c, 9, 54, 64
11, 46085, Note_off_c, 9, 36, 64
11, 46085, Note_off_c, 9, 42, 64
11, 46320, Note_on_c, 9, 42, 110
11, 46320, Note_on_c, 9, 54, 64
11, 46325, Note_off_c, 9, 54, 64
11, 46325, Note_off_c, 9, 42, 64
11, 46560, Note_on_c, 9, 36, 110
11, 46560, Note_on_c, 9, 38, 111
11, 46560, Note_on_c, 9, 54, 90
11, 46560, Note_on_c, 9, 42, 110
11, 46565, Note_off_c, 9, 42, 64
11, 46565, Note_off_c, 9, 54, 64
11, 46565, Note_off_c, 9, 38, 64
11, 46565, Note_off_c, 9, 36, 64
11, 46680, Note_on_c, 9, 46, 110
11, 46680, Note_on_c, 9, 54, 90
11, 46685, Note_off_c, 9, 54, 64
11, 46685, Note_off_c, 9, 46, 64
11, 47040, Note_on_c, 9, 54, 117
11, 47040, Note_on_c, 9, 38, 111
11, 47040, Note_on_c, 9, 42, 110
11, 47040, Note_on_c, 9, 36, 110
11, 47045, Note_off_c, 9, 36, 64
11, 47045, Note_off_c, 9, 42, 64
11, 47045, Note_off_c, 9, 38, 64
11, 47045, Note_off_c, 9, 54, 64
11, 47280, Note_on_c, 9, 42, 110
11, 47280, Note_on_c, 9, 54, 64
11, 47285, Note_off_c, 9, 54, 64
11, 47285, Note_off_c, 9, 42, 64
11, 47520, Note_on_c, 9, 38, 111
11, 47520, Note_on_c, 9, 42, 110
11, 47520, Note_on_c, 9, 54, 117
11, 47520, Note_on_c, 9, 36, 110
11, 47525, Note_off_c, 9, 36, 64
11, 47525, Note_off_c, 9, 54, 64
11, 47525, Note_off_c, 9, 42, 64
11, 47525, Note_off_c, 9, 38, 64
11, 47760, Note_on_c, 9, 42, 110
11, 47760, Note_on_c, 9, 54, 64
11, 47765, Note_off_c, 9, 54, 64
11, 47765, Note_off_c, 9, 42, 64
11, 48000, Note_on_c, 9, 54, 117
11, 48000, Note_on_c, 9, 38, 111
11, 48000, Note_on_c, 9, 36, 110
11, 48000, Note_on_c, 9, 42, 110
11, 48005, Note_off_c, 9, 42, 64
11, 48005, Note_off_c, 9, 36, 64
11, 48005, Note_off_c, 9, 38, 64
11, 48005, Note_off_c, 9, 54, 64
11, 48240, Note_on_c, 9, 42, 110
11, 48240, Note_on_c, 9, 54, 64
11, 48245, Note_off_c, 9, 54, 64
11, 48245, Note_off_c, 9, 42, 64
11, 48480, Note_on_c, 9, 54, 117
11, 48480, Note_on_c, 9, 36, 110
11, 48480, Note_on_c, 9, 42, 110
11, 48480, Note_on_c, 9, 38, 111
11, 48485, Note_off_c, 9, 38, 64
11, 48485, Note_off_c, 9, 42, 64
11, 48485, Note_off_c, 9, 36, 64
11, 48485, Note_off_c, 9, 54, 64
11, 48720, Note_on_c, 9, 42, 110
11, 48720, Note_on_c, 9, 54, 64
11, 48725, Note_off_c, 9, 54, 64
11, 48725, Note_off_c, 9, 42, 64
11, 48960, Note_on_c, 9, 54, 117
11, 48960, Note_on_c, 9, 36, 110
11, 48960, Note_on_c, 9, 38, 111
11, 48960, Note_on_c, 9, 42, 110
11, 48965, Note_off_c, 9, 42, 64
11, 48965, Note_off_c, 9, 38, 64
11, 48965, Note_off_c, 9, 36, 64
11, 48965, Note_off_c, 9, 54, 64
11, 49200, Note_on_c, 9, 42, 110
11, 49200, Note_on_c, 9, 54, 64
11, 49205, Note_off_c, 9, 54, 64
11, 49205, Note_off_c, 9, 42, 64
11, 49440, Note_on_c, 9, 54, 117
11, 49440, Note_on_c, 9, 42, 110
11, 49440, Note_on_c, 9, 38, 111
11, 49440, Note_on_c, 9, 36, 110
11, 49445, Note_off_c, 9, 36, 64
11, 49445, Note_off_c, 9, 38, 64
11, 49445, Note_off_c, 9, 42, 64
11, 49445, Note_off_c, 9, 54, 64
11, 49680, Note_on_c, 9, 42, 110
11, 49680, Note_on_c, 9, 54, 64
11, 49685, Note_off_c, 9, 54, 64
11, 49685, Note_off_c, 9, 42, 64
11, 49920, Note_on_c, 9, 38, 111
11, 49920, Note_on_c, 9, 42, 110
11, 49920, Note_on_c, 9, 54, 117
11, 49920, Note_on_c, 9, 36, 110
11, 49925, Note_off_c, 9, 36, 64
11, 49925, Note_off_c, 9, 54, 64
11, 49925, Note_off_c, 9, 42, 64
11, 49925, Note_off_c, 9, 38, 64
11, 50160, Note_on_c, 9, 54, 64
11, 50160, Note_on_c, 9, 42, 110
11, 50165, Note_off_c, 9, 42, 64
11, 50165, Note_off_c, 9, 54, 64
11, 50400, Note_on_c, 9, 36, 110
11, 50400, Note_on_c, 9, 38, 111
11, 50400, Note_on_c, 9, 42, 110
11, 50400, Note_on_c, 9, 54, 117
11, 50405, Note_off_c, 9, 54, 64
11, 50405, Note_off_c, 9, 42, 64
11, 50405, Note_off_c, 9, 38, 64
11, 50405, Note_off_c, 9, 36, 64
11, 50640, Note_on_c, 9, 54, 64
11, 50640, Note_on_c, 9, 42, 110
11, 50645, Note_off_c, 9, 42, 64
11, 50645, Note_off_c, 9, 54, 64
11, 50880, Note_on_c, 9, 54, 117
11, 50880, Note_on_c, 9, 42, 110
11, 50880, Note_on_c, 9, 36, 110
11, 50880, Note_on_c, 9, 38, 111
11, 50885, Note_off_c, 9, 38, 64
11, 50885, Note_off_c, 9, 36, 64
11, 50885, Note_off_c, 9, 42, 64
11, 50885, Note_off_c, 9, 54, 64
11, 51120, Note_on_c, 9, 42, 110
11, 51120, Note_on_c, 9, 54, 64
11, 51125, Note_off_c, 9, 54, 64
11, 51125, Note_off_c, 9, 42, 64
11, 51360, Note_on_c, 9, 36, 110
11, 51360, Note_on_c, 9, 42, 110
11, 51360, Note_on_c, 9, 54, 117
11, 51360, Note_on_c, 9, 38, 111
11, 51365, Note_off_c, 9, 38, 64
11, 51365, Note_off_c, 9, 54, 64
11, 51365, Note_off_c, 9, 42, 64
11, 51365, Note_off_c, 9, 36, 64
11, 51600, Note_on_c, 9, 42, 110
11, 51600, Note_on_c, 9, 54, 64
11, 51605, Note_off_c, 9, 54, 64
11, 51605, Note_off_c, 9, 42, 64
11, 51840, Note_on_c, 9, 54, 80
11, 51840, Note_on_c, 9, 36, 110
11, 51840, Note_on_c, 9, 38, 111
11, 51845, Note_off_c, 9, 38, 64
11, 51845, Note_off_c, 9, 36, 64
11, 51845, Note_off_c, 9, 54, 64
11, 51920, Note_on_c, 9, 54, 64
11, 51925, Note_off_c, 9, 54, 64
11, 52000, Note_on_c, 9, 54, 80
11, 52005, Note_off_c, 9, 54, 64
11, 52080, Note_on_c, 9, 54, 64
11, 52085, Note_off_c, 9, 54, 64
11, 52160, Note_on_c, 9, 54, 80
11, 52165, Note_off_c, 9, 54, 64
11, 52240, Note_on_c, 9, 54, 64
11, 52245, Note_off_c, 9, 54, 64
11, 52320, Note_on_c, 9, 54, 80
11, 52325, Note_off_c, 9, 54, 64
11, 52400, Note_on_c, 9, 54, 64
11, 52405, Note_off_c, 9, 54, 64
11, 52480, Note_on_c, 9, 54, 80
11, 52485, Note_off_c, 9, 54, 64
11, 52560, Note_on_c, 9, 54, 64
11, 52565, Note_off_c, 9, 54, 64
11, 52640, Note_on_c, 9, 54, 80
11, 52645, Note_off_c, 9, 54, 64
11, 52720, Note_on_c, 9, 54, 64
11, 52725, Note_off_c, 9, 54, 64
11, 52800, Note_on_c, 9, 54, 80
11, 52805, Note_off_c, 9, 54, 64
11, 52880, Note_on_c, 9, 54, 64
11, 52885, Note_off_c, 9, 54, 64
11, 52960, Note_on_c, 9, 54, 80
11, 52965, Note_off_c, 9, 54, 64
11, 53040, Note_on_c, 9, 54, 64
11, 53045, Note_off_c, 9, 54, 64
11, 53120, Note_on_c, 9, 54, 80
11, 53125, Note_off_c, 9, 54, 64
11, 53200, Note_on_c, 9, 54, 64
11, 53205, Note_off_c, 9, 54, 64
11, 53280, Note_on_c, 9, 54, 80
11, 53285, Note_off_c, 9, 54, 64
11, 53360, Note_on_c, 9, 54, 64
11, 53365, Note_off_c, 9, 54, 64
11, 53440, Note_on_c, 9, 54, 80
11, 53445, Note_off_c, 9, 54, 64
11, 53520, Note_on_c, 9, 54, 64
11, 53525, Note_off_c, 9, 54, 64
11, 53600, Note_on_c, 9, 54, 80
11, 53605, Note_off_c, 9, 54, 64
11, 53680, Note_on_c, 9, 54, 64
11, 53685, Note_off_c, 9, 54, 64
11, 53760, Note_on_c, 9, 54, 80
11, 53765, Note_off_c, 9, 54, 64
11, 53840, Note_on_c, 9, 54, 64
11, 53845, Note_off_c, 9, 54, 64
11, 53920, Note_on_c, 9, 54, 80
11, 53925, Note_off_c, 9, 54, 64
11, 54000, Note_on_c, 9, 54, 64
11, 54005, Note_off_c, 9, 54, 64
11, 54080, Note_on_c, 9, 54, 80
11, 54085, Note_off_c, 9, 54, 64
11, 54160, Note_on_c, 9, 54, 64
11, 54165, Note_off_c, 9, 54, 64
11, 54240, Note_on_c, 9, 54, 80
11, 54245, Note_off_c, 9, 54, 64
11, 54320, Note_on_c, 9, 54, 64
11, 54325, Note_off_c, 9, 54, 64
11, 54400, Note_on_c, 9, 54, 80
11, 54405, Note_off_c, 9, 54, 64
11, 54480, Note_on_c, 9, 54, 64
11, 54485, Note_off_c, 9, 54, 64
11, 54560, Note_on_c, 9, 54, 80
11, 54565, Note_off_c, 9, 54, 64
11, 54640, Note_on_c, 9, 54, 64
11, 54645, Note_off_c, 9, 54, 64
11, 54720, Note_on_c, 9, 54, 80
11, 54720, Note_on_c, 9, 43, 100
11, 54725, Note_off_c, 9, 43, 64
11, 54725, Note_off_c, 9, 54, 64
11, 54800, Note_on_c, 9, 41, 100
11, 54800, Note_on_c, 9, 54, 64
11, 54805, Note_off_c, 9, 54, 64
11, 54805, Note_off_c, 9, 41, 64
11, 54880, Note_on_c, 9, 54, 80
11, 54880, Note_on_c, 9, 43, 100
11, 54885, Note_off_c, 9, 43, 64
11, 54885, Note_off_c, 9, 54, 64
11, 54960, Note_on_c, 9, 41, 100
11, 54960, Note_on_c, 9, 54, 64
11, 54965, Note_off_c, 9, 54, 64
11, 54965, Note_off_c, 9, 41, 64
11, 55040, Note_on_c, 9, 54, 80
11, 55040, Note_on_c, 9, 43, 100
11, 55045, Note_off_c, 9, 43, 64
11, 55045, Note_off_c, 9, 54, 64
11, 55120, Note_on_c, 9, 41, 100
11, 55120, Note_on_c, 9, 54, 64
11, 55125, Note_off_c, 9, 54, 64
11, 55125, Note_off_c, 9, 41, 64
11, 55200, Note_on_c, 9, 54, 80
11, 55200, Note_on_c, 9, 43, 100
11, 55205, Note_off_c, 9, 43, 64
11, 55205, Note_off_c, 9, 54, 64
11, 55280, Note_on_c, 9, 54, 64
11, 55280, Note_on_c, 9, 41, 100
11, 55285, Note_off_c, 9, 41, 64
11, 55285, Note_off_c, 9, 54, 64
11, 55360, Note_on_c, 9, 43, 100
11, 55360, Note_on_c, 9, 54, 80
11, 55365, Note_off_c, 9, 54, 64
11, 55365, Note_off_c, 9, 43, 64
11, 55440, Note_on_c, 9, 41, 100
11, 55440, Note_on_c, 9, 54, 64
11, 55445, Note_off_c, 9, 54, 64
11, 55445, Note_off_c, 9, 41, 64
11, 55520, Note_on_c, 9, 54, 80
11, 55520, Note_on_c, 9, 43, 100
11, 55525, Note_off_c, 9, 43, 64
11, 55525, Note_off_c, 9, 54, 64
11, 55600, Note_on_c, 9, 54, 64
11, 55600, Note_on_c, 9, 41, 100
11, 55605, Note_off_c, 9, 41, 64
11, 55605, Note_off_c, 9, 54, 64
11, 55680, Note_on_c, 9, 49, 100
11, 55680, Note_on_c, 9, 36, 110
11, 55680, Note_on_c, 9, 54, 64
11, 55685, Note_off_c, 9, 54, 64
11, 55685, Note_off_c, 9, 36, 64
11, 55685, Note_off_c, 9, 49, 64
11, 55920, Note_on_c, 9, 54, 64
11, 55920, Note_on_c, 9, 42, 110
11, 55925, Note_off_c, 9, 42, 64
11, 55925, Note_off_c, 9, 54, 64
11, 56160, Note_on_c, 9, 42, 110
11, 56160, Note_on_c, 9, 54, 117
11, 56160, Note_on_c, 9, 38, 111
11, 56165, Note_off_c, 9, 38, 64
11, 56165, Note_off_c, 9, 54, 64
11, 56165, Note_off_c, 9, 42, 64
11, 56400, Note_on_c, 9, 54, 64
11, 56400, Note_on_c, 9, 42, 110
11, 56405, Note_off_c, 9, 42, 64
11, 56405, Note_off_c, 9, 54, 64
11, 56640, Note_on_c, 9, 42, 110
11, 56640, Note_on_c, 9, 36, 110
11, 56640, Note_on_c, 9, 54, 64
11, 56645, Note_off_c, 9, 54, 64
11, 56645, Note_off_c, 9, 36, 64
11, 56645, Note_off_c, 9, 42, 64
11, 56880, Note_on_c, 9, 36, 110
11, 56880, Note_on_c, 9, 42, 110
11, 56880, Note_on_c, 9, 54, 64
11, 56885, Note_off_c, 9, 54, 64
11, 56885, Note_off_c, 9, 42, 64
11, 56885, Note_off_c, 9, 36, 64
11, 57120, Note_on_c, 9, 38, 111
11, 57120, Note_on_c, 9, 42, 110
11, 57120, Note_on_c, 9, 54, 117
11, 57125, Note_off_c, 9, 54, 64
11, 57125, Note_off_c, 9, 42, 64
11, 57125, Note_off_c, 9, 38, 64
11, 57360, Note_on_c, 9, 54, 64
11, 57360, Note_on_c, 9, 42, 110
11, 57365, Note_off_c, 9, 42, 64
11, 57365, Note_off_c, 9, 54, 64
11, 57600, Note_on_c, 9, 54, 64
11, 57600, Note_on_c, 9, 42, 110
11, 57600, Note_on_c, 9, 36, 110
11, 57605, Note_off_c, 9, 36, 64
11, 57605, Note_off_c, 9, 42, 64
11, 57605, Note_off_c, 9, 54, 64
11, 57840, Note_on_c, 9, 36, 110
11, 57840, Note_on_c, 9, 54, 64
11, 57840, Note_on_c, 9, 42, 110
11, 57845, Note_off_c, 9, 42, 64
11, 57845, Note_off_c, 9, 54, 64
11, 57845, Note_off_c, 9, 36, 64
11, 58080, Note_on_c, 9, 38, 111
11, 58080, Note_on_c, 9, 42, 110
11, 58080, Note_on_c, 9, 54, 117
11, 58085, Note_off_c, 9, 54, 64
11, 58085, Note_off_c, 9, 42, 64
11, 58085, Note_off_c, 9, 38, 64
11, 58320, Note_on_c, 9, 54, 64
11, 58320, Note_on_c, 9, 42, 110
11, 58325, Note_off_c, 9, 42, 64
11, 58325, Note_off_c, 9, 54, 64
11, 58560, Note_on_c, 9, 36, 110
11, 58560, Note_on_c, 9, 42, 110
11, 58560, Note_on_c, 9, 54, 64
11, 58565, Note_off_c, 9, 54, 64
11, 58565, Note_off_c, 9, 42, 64
11, 58565, Note_off_c, 9, 36, 64
11, 58800, Note_on_c, 9, 36, 110
11, 58800, Note_on_c, 9, 54, 64
11, 58800, Note_on_c, 9, 42, 110
11, 58805, Note_off_c, 9, 42, 64
11, 58805, Note_off_c, 9, 54, 64
11, 58805, Note_off_c, 9, 36, 64
11, 59040, Note_on_c, 9, 42, 110
11, 59040, Note_on_c, 9, 54, 117
11, 59040, Note_on_c, 9, 38, 111
11, 59045, Note_off_c, 9, 38, 64
11, 59045, Note_off_c, 9, 54, 64
11, 59045, Note_off_c, 9, 42, 64
11, 59280, Note_on_c, 9, 54, 64
11, 59280, Note_on_c, 9, 42, 110
11, 59285, Note_off_c, 9, 42, 64
11, 59285, Note_off_c, 9, 54, 64
11, 59520, Note_on_c, 9, 36, 110
11, 59520, Note_on_c, 9, 42, 110
11, 59520, Note_on_c, 9, 54, 64
11, 59525, Note_off_c, 9, 54, 64
11, 59525, Note_off_c, 9, 42, 64
11, 59525, Note_off_c, 9, 36, 64
11, 59760, Note_on_c, 9, 54, 64
11, 59760, Note_on_c, 9, 42, 110
11, 59760, Note_on_c, 9, 36, 110
11, 59765, Note_off_c, 9, 36, 64
11, 59765, Note_off_c, 9, 42, 64
11, 59765, Note_off_c, 9, 54, 64
11, 60000, Note_on_c, 9, 38, 111
11, 60000, Note_on_c, 9, 42, 110
11, 60000, Note_on_c, 9, 54, 117
11, 60005, Note_off_c, 9, 54, 64
11, 60005, Note_off_c, 9, 42, 64
11, 60005, Note_off_c, 9, 38, 64
11, 60240, Note_on_c, 9, 54, 64
11, 60240, Note_on_c, 9, 42, 110
11, 60245, Note_off_c, 9, 42, 64
11, 60245, Note_off_c, 9, 54, 64
11, 60480, Note_on_c, 9, 36, 110
11, 60480, Note_on_c, 9, 54, 64
11, 60480, Note_on_c, 9, 42, 110
11, 60485, Note_off_c, 9, 42, 64
11, 60485, Note_off_c, 9, 54, 64
11, 60485, Note_off_c, 9, 36, 64
11, 60720, Note_on_c, 9, 54, 64
11, 60720, Note_on_c, 9, 36, 110
11, 60720, Note_on_c, 9, 42, 110
11, 60725, Note_off_c, 9, 42, 64
11, 60725, Note_off_c, 9, 36, 64
11, 60725, Note_off_c, 9, 54, 64
11, 60960, Note_on_c, 9, 38, 111
11, 60960, Note_on_c, 9, 42, 110
11, 60960, Note_on_c, 9, 54, 117
11, 60965, Note_off_c, 9, 54, 64
11, 60965, Note_off_c, 9, 42, 64
11, 60965, Note_off_c, 9, 38, 64
11, 61200, Note_on_c, 9, 54, 64
11, 61200, Note_on_c, 9, 42, 110
11, 61205, Note_off_c, 9, 42, 64
11, 61205, Note_off_c, 9, 54, 64
11, 61440, Note_on_c, 9, 42, 110
11, 61440, Note_on_c, 9, 54, 64
11, 61440, Note_on_c, 9, 36, 110
11, 61445, Note_off_c, 9, 36, 64
11, 61445, Note_off_c, 9, 54, 64
11, 61445, Note_off_c, 9, 42, 64
11, 61680, Note_on_c, 9, 54, 64
11, 61680, Note_on_c, 9, 42, 110
11, 61680, Note_on_c, 9, 36, 110
11, 61685, Note_off_c, 9, 36, 64
11, 61685, Note_off_c, 9, 42, 64
11, 61685, Note_off_c, 9, 54, 64
11, 61920, Note_on_c, 9, 42, 110
11, 61920, Note_on_c, 9, 54, 117
11, 61920, Note_on_c, 9, 38, 111
11, 61925, Note_off_c, 9, 38, 64
11, 61925, Note_off_c, 9, 54, 64
11, 61925, Note_off_c, 9, 42, 64
11, 62160, Note_on_c, 9, 42, 110
11, 62160, Note_on_c, 9, 54, 64
11, 62165, Note_off_c, 9, 54, 64
11, 62165, Note_off_c, 9, 42, 64
11, 62400, Note_on_c, 9, 36, 110
11, 62400, Note_on_c, 9, 42, 110
11, 62400, Note_on_c, 9, 54, 64
11, 62405, Note_off_c, 9, 54, 64
11, 62405, Note_off_c, 9, 42, 64
11, 62405, Note_off_c, 9, 36, 64
11, 62640, Note_on_c, 9, 54, 64
11, 62640, Note_on_c, 9, 42, 110
11, 62640, Note_on_c, 9, 36, 110
11, 62645, Note_off_c, 9, 36, 64
11, 62645, Note_off_c, 9, 42, 64
11, 62645, Note_off_c, 9, 54, 64
11, 62880, Note_on_c, 9, 54, 117
11, 62880, Note_on_c, 9, 38, 111
11, 62880, Note_on_c, 9, 42, 110
11, 62885, Note_off_c, 9, 42, 64
11, 62885, Note_off_c, 9, 38, 64
11, 62885, Note_off_c, 9, 54, 64
11, 63120, Note_on_c, 9, 54, 64
11, 63120, Note_on_c, 9, 42, 110
11, 63125, Note_off_c, 9, 42, 64
11, 63125, Note_off_c, 9, 54, 64
11, 63360, Note_on_c, 9, 54, 64
11, 63360, Note_on_c, 9, 36, 110
11, 63360, Note_on_c, 9, 42, 110
11, 63365, Note_off_c, 9, 42, 64
11, 63365, Note_off_c, 9, 36, 64
11, 63365, Note_off_c, 9, 54, 64
11, 63600, Note_on_c, 9, 42, 110
11, 63600, Note_on_c, 9, 54, 64
11, 63600, Note_on_c, 9, 36, 110
11, 63605, Note_off_c, 9, 36, 64
11, 63605, Note_off_c, 9, 54, 64
11, 63605, Note_off_c, 9, 42, 64
11, 63840, Note_on_c, 9, 38, 111
11, 63840, Note_on_c, 9, 42, 110
11, 63840, Note_on_c, 9, 54, 117
11, 63845, Note_off_c, 9, 54, 64
11, 63845, Note_off_c, 9, 42, 64
11, 63845, Note_off_c, 9, 38, 64
11, 64080, Note_on_c, 9, 42, 110
11, 64080, Note_on_c, 9, 54, 64
11, 64085, Note_off_c, 9, 54, 64
11, 64085, Note_off_c, 9, 42, 64
11, 64320, Note_on_c, 9, 36, 110
11, 64320, Note_on_c, 9, 42, 110
11, 64320, Note_on_c, 9, 54, 64
11, 64325, Note_off_c, 9, 54, 64
11, 64325, Note_off_c, 9, 42, 64
11, 64325, Note_off_c, 9, 36, 64
11, 64560, Note_on_c, 9, 36, 110
11, 64560, Note_on_c, 9, 54, 64
11, 64560, Note_on_c, 9, 42, 110
11, 64565, Note_off_c, 9, 42, 64
11, 64565, Note_off_c, 9, 54, 64
11, 64565, Note_off_c, 9, 36, 64
11, 64800, Note_on_c, 9, 54, 117
11, 64800, Note_on_c, 9, 38, 111
11, 64800, Note_on_c, 9, 42, 110
11, 64805, Note_off_c, 9, 42, 64
11, 64805, Note_off_c, 9, 38, 64
11, 64805, Note_off_c, 9, 54, 64
11, 65040, Note_on_c, 9, 42, 110
11, 65040, Note_on_c, 9, 54, 64
11, 65045, Note_off_c, 9, 54, 64
11, 65045, Note_off_c, 9, 42, 64
11, 65280, Note_on_c, 9, 36, 110
11, 65280, Note_on_c, 9, 42, 110
11, 65280, Note_on_c, 9, 54, 64
11, 65285, Note_off_c, 9, 54, 64
11, 65285, Note_off_c, 9, 42, 64
11, 65285, Note_off_c, 9, 36, 64
11, 65520, Note_on_c, 9, 42, 110
11, 65520, Note_on_c, 9, 36, 110
11, 65520, Note_on_c, 9, 54, 64
11, 65525, Note_off_c, 9, 54, 64
11, 65525, Note_off_c, 9, 36, 64
11, 65525, Note_off_c, 9, 42, 64
11, 65760, Note_on_c, 9, 54, 117
11, 65760, Note_on_c, 9, 38, 111
11, 65760, Note_on_c, 9, 42, 110
11, 65765, Note_off_c, 9, 42, 64
11, 65765, Note_off_c, 9, 38, 64
11, 65765, Note_off_c, 9, 54, 64
11, 66000, Note_on_c, 9, 42, 110
11, 66000, Note_on_c, 9, 54, 64
11, 66005, Note_off_c, 9, 54, 64
11, 66005, Note_off_c, 9, 42, 64
11, 66240, Note_on_c, 9, 36, 110
11, 66240, Note_on_c, 9, 54, 64
11, 66240, Note_on_c, 9, 42, 110
11, 66245, Note_off_c, 9, 42, 64
11, 66245, Note_off_c, 9, 54, 64
11, 66245, Note_off_c, 9, 36, 64
11, 66480, Note_on_c, 9, 36, 110
11, 66480, Note_on_c, 9, 54, 64
11, 66480, Note_on_c, 9, 42, 110
11, 66485, Note_off_c, 9, 42, 64
11, 66485, Note_off_c, 9, 54, 64
11, 66485, Note_off_c, 9, 36, 64
11, 66720, Note_on_c, 9, 54, 117
11, 66720, Note_on_c, 9, 42, 110
11, 66720, Note_on_c, 9, 38, 111
11, 66725, Note_off_c, 9, 38, 64
11, 66725, Note_off_c, 9, 42, 64
11, 66725, Note_off_c, 9, 54, 64
11, 66960, Note_on_c, 9, 42, 110
11, 66960, Note_on_c, 9, 54, 64
11, 66965, Note_off_c, 9, 54, 64
11, 66965, Note_off_c, 9, 42, 64
11, 67200, Note_on_c, 9, 42, 110
11, 67200, Note_on_c, 9, 36, 110
11, 67200, Note_on_c, 9, 54, 64
11, 67205, Note_off_c, 9, 54, 64
11, 67205, Note_off_c, 9, 36, 64
11, 67205, Note_off_c, 9, 42, 64
11, 67440, Note_on_c, 9, 54, 64
11, 67440, Note_on_c, 9, 36, 110
11, 67440, Note_on_c, 9, 42, 110
11, 67445, Note_off_c, 9, 42, 64
11, 67445, Note_off_c, 9, 36, 64
11, 67445, Note_off_c, 9, 54, 64
11, 67680, Note_on_c, 9, 54, 117
11, 67680, Note_on_c, 9, 38, 111
11, 67680, Note_on_c, 9, 42, 110
11, 67685, Note_off_c, 9, 42, 64
11, 67685, Note_off_c, 9, 38, 64
11, 67685, Note_off_c, 9, 54, 64
11, 67920, Note_on_c, 9, 54, 64
11, 67920, Note_on_c, 9, 42, 110
11, 67925, Note_off_c, 9, 42, 64
11, 67925, Note_off_c, 9, 54, 64
11, 68160, Note_on_c, 9, 42, 110
11, 68160, Note_on_c, 9, 36, 110
11, 68160, Note_on_c, 9, 54, 64
11, 68165, Note_off_c, 9, 54, 64
11, 68165, Note_off_c, 9, 36, 64
11, 68165, Note_off_c, 9, 42, 64
11, 68400, Note_on_c, 9, 36, 110
11, 68400, Note_on_c, 9, 54, 64
11, 68400, Note_on_c, 9, 42, 110
11, 68405, Note_off_c, 9, 42, 64
11, 68405, Note_off_c, 9, 54, 64
11, 68405, Note_off_c, 9, 36, 64
11, 68640, Note_on_c, 9, 42, 110
11, 68640, Note_on_c, 9, 54, 117
11, 68640, Note_on_c, 9, 38, 111
11, 68645, Note_off_c, 9, 38, 64
11, 68645, Note_off_c, 9, 54, 64
11, 68645, Note_off_c, 9, 42, 64
11, 68880, Note_on_c, 9, 54, 64
11, 68880, Note_on_c, 9, 42, 110
11, 68885, Note_off_c, 9, 42, 64
11, 68885, Note_off_c, 9, 54, 64
11, 69120, Note_on_c, 9, 36, 110
11, 69120, Note_on_c, 9, 42, 110
11, 69120, Note_on_c, 9, 54, 64
11, 69125, Note_off_c, 9, 54, 64
11, 69125, Note_off_c, 9, 42, 64
11, 69125, Note_off_c, 9, 36, 64
11, 69360, Note_on_c, 9, 36, 110
11, 69360, Note_on_c, 9, 54, 64
11, 69360, Note_on_c, 9, 42, 110
11, 69365, Note_off_c, 9, 42, 64
11, 69365, Note_off_c, 9, 54, 64
11, 69365, Note_off_c, 9, 36, 64
11, 69600, Note_on_c, 9, 38, 111
11, 69600, Note_on_c, 9, 54, 117
11, 69600, Note_on_c, 9, 42, 110
11, 69605, Note_off_c, 9, 42, 64
11, 69605, Note_off_c, 9, 54, 64
11, 69605, Note_off_c, 9, 38, 64
11, 69840, Note_on_c, 9, 54, 64
11, 69840, Note_on_c, 9, 42, 110
11, 69845, Note_off_c, 9, 42, 64
11, 69845, Note_off_c, 9, 54, 64
11, 70080, Note_on_c, 9, 54, 64
11, 70080, Note_on_c, 9, 42, 110
11, 70080, Note_on_c, 9, 36, 110
11, 70085, Note_off_c, 9, 36, 64
11, 70085, Note_off_c, 9, 42, 64
11, 70085, Note_off_c, 9, 54, 64
11, 70320, Note_on_c, 9, 54, 64
11, 70320, Note_on_c, 9, 36, 110
11, 70320, Note_on_c, 9, 42, 110
11, 70325, Note_off_c, 9, 42, 64
11, 70325, Note_off_c, 9, 36, 64
11, 70325, Note_off_c, 9, 54, 64
11, 70560, Note_on_c, 9, 38, 111
11, 70560, Note_on_c, 9, 54, 117
11, 70560, Note_on_c, 9, 42, 110
11, 70565, Note_off_c, 9, 42, 64
11, 70565, Note_off_c, 9, 54, 64
11, 70565, Note_off_c, 9, 38, 64
11, 70800, Note_on_c, 9, 42, 110
11, 70800, Note_on_c, 9, 54, 64
11, 70805, Note_off_c, 9, 54, 64
11, 70805, Note_off_c, 9, 42, 64
11, 71040, Note_on_c, 9, 54, 64
11, 71040, Note_on_c, 9, 36, 110
11, 71040, Note_on_c, 9, 42, 110
11, 71045, Note_off_c, 9, 42, 64
11, 71045, Note_off_c, 9, 36, 64
11, 71045, Note_off_c, 9, 54, 64
11, 71280, Note_on_c, 9, 42, 110
11, 71280, Note_on_c, 9, 36, 110
11, 71280, Note_on_c, 9, 54, 64
11, 71285, Note_off_c, 9, 54, 64
11, 71285, Note_off_c, 9, 36, 64
11, 71285, Note_off_c, 9, 42, 64
11, 71520, Note_on_c, 9, 38, 111
11, 71520, Note_on_c, 9, 42, 110
11, 71520, Note_on_c, 9, 54, 117
11, 71525, Note_off_c, 9, 54, 64
11, 71525, Note_off_c, 9, 42, 64
11, 71525, Note_off_c, 9, 38, 64
11, 71760, Note_on_c, 9, 42, 110
11, 71760, Note_on_c, 9, 54, 64
11, 71765, Note_off_c, 9, 54, 64
11, 71765, Note_off_c, 9, 42, 64
11, 72000, Note_on_c, 9, 36, 110
11, 72000, Note_on_c, 9, 54, 64
11, 72000, Note_on_c, 9, 42, 110
11, 72005, Note_off_c, 9, 42, 64
11, 72005, Note_off_c, 9, 54, 64
11, 72005, Note_off_c, 9, 36, 64
11, 72240, Note_on_c, 9, 54, 64
11, 72240, Note_on_c, 9, 36, 110
11, 72240, Note_on_c, 9, 42, 110
11, 72245, Note_off_c, 9, 42, 64
11, 72245, Note_off_c, 9, 36, 64
11, 72245, Note_off_c, 9, 54, 64
11, 72480, Note_on_c, 9, 42, 110
11, 72480, Note_on_c, 9, 54, 117
11, 72480, Note_on_c, 9, 38, 111
11, 72485, Note_off_c, 9, 38, 64
11, 72485, Note_off_c, 9, 54, 64
11, 72485, Note_off_c, 9, 42, 64
11, 72720, Note_on_c, 9, 54, 64
11, 72720, Note_on_c, 9, 42, 110
11, 72725, Note_off_c, 9, 42, 64
11, 72725, Note_off_c, 9, 54, 64
11, 72960, Note_on_c, 9, 54, 64
11, 72960, Note_on_c, 9, 36, 110
11, 72960, Note_on_c, 9, 42, 110
11, 72965, Note_off_c, 9, 42, 64
11, 72965, Note_off_c, 9, 36, 64
11, 72965, Note_off_c, 9, 54, 64
11, 73200, Note_on_c, 9, 54, 64
11, 73200, Note_on_c, 9, 42, 110
11, 73200, Note_on_c, 9, 36, 110
11, 73205, Note_off_c, 9, 36, 64
11, 73205, Note_off_c, 9, 42, 64
11, 73205, Note_off_c, 9, 54, 64
11, 73440, Note_on_c, 9, 38, 111
11, 73440, Note_on_c, 9, 42, 110
11, 73440, Note_on_c, 9, 54, 117
11, 73445, Note_off_c, 9, 54, 64
11, 73445, Note_off_c, 9, 42, 64
11, 73445, Note_off_c, 9, 38, 64
11, 73680, Note_on_c, 9, 54, 64
11, 73680, Note_on_c, 9, 42, 110
11, 73685, Note_off_c, 9, 42, 64
11, 73685, Note_off_c, 9, 54, 64
11, 73920, Note_on_c, 9, 36, 110
11, 73920, Note_on_c, 9, 54, 64
11, 73920, Note_on_c, 9, 42, 110
11, 73925, Note_off_c, 9, 42, 64
11, 73925, Note_off_c, 9, 54, 64
11, 73925, Note_off_c, 9, 36, 64
11, 74160, Note_on_c, 9, 54, 64
11, 74160, Note_on_c, 9, 42, 110
11, 74160, Note_on_c, 9, 36, 110
11, 74165, Note_off_c, 9, 36, 64
11, 74165, Note_off_c, 9, 42, 64
11, 74165, Note_off_c, 9, 54, 64
11, 74400, Note_on_c, 9, 38, 111
11, 74400, Note_on_c, 9, 54, 117
11, 74400, Note_on_c, 9, 42, 110
11, 74405, Note_off_c, 9, 42, 64
11, 74405, Note_off_c, 9, 54, 64
11, 74405, Note_off_c, 9, 38, 64
11, 74640, Note_on_c, 9, 42, 110
11, 74640, Note_on_c, 9, 54, 64
11, 74645, Note_off_c, 9, 54, 64
11, 74645, Note_off_c, 9, 42, 64
11, 74880, Note_on_c, 9, 54, 117
11, 74880, Note_on_c, 9, 38, 111
11, 74880, Note_on_c, 9, 36, 110
11, 74880, Note_on_c, 9, 42, 110
11, 74885, Note_off_c, 9, 42, 64
11, 74885, Note_off_c, 9, 36, 64
11, 74885, Note_off_c, 9, 38, 64
11, 74885, Note_off_c, 9, 54, 64
11, 75120, Note_on_c, 9, 42, 110
11, 75120, Note_on_c, 9, 54, 64
11, 75125, Note_off_c, 9, 54, 64
11, 75125, Note_off_c, 9, 42, 64
11, 75360, Note_on_c, 9, 38, 111
11, 75360, Note_on_c, 9, 36, 110
11, 75360, Note_on_c, 9, 54, 117
11, 75360, Note_on_c, 9, 42, 110
11, 75365, Note_off_c, 9, 42, 64
11, 75365, Note_off_c, 9, 54, 64
11, 75365, Note_off_c, 9, 36, 64
11, 75365, Note_off_c, 9, 38, 64
11, 75600, Note_on_c, 9, 42, 110
11, 75600, Note_on_c, 9, 54, 64
11, 75605, Note_off_c, 9, 54, 64
11, 75605, Note_off_c, 9, 42, 64
11, 75840, Note_on_c, 9, 42, 110
11, 75840, Note_on_c, 9, 38, 111
11, 75840, Note_on_c, 9, 54, 117
11, 75840, Note_on_c, 9, 36, 110
11, 75845, Note_off_c, 9, 36, 64
11, 75845, Note_off_c, 9, 54, 64
11, 75845, Note_off_c, 9, 38, 64
11, 75845, Note_off_c, 9, 42, 64
11, 76080, Note_on_c, 9, 42, 110
11, 76080, Note_on_c, 9, 54, 64
11, 76085, Note_off_c, 9, 54, 64
11, 76085, Note_off_c, 9, 42, 64
11, 76320, Note_on_c, 9, 54, 117
11, 76320, Note_on_c, 9, 36, 110
11, 76320, Note_on_c, 9, 38, 111
11, 76320, Note_on_c, 9, 42, 110
11, 76325, Note_off_c, 9, 42, 64
11, 76325, Note_off_c, 9, 38, 64
11, 76325, Note_off_c, 9, 36, 64
11, 76325, Note_off_c, 9, 54, 64
11, 76560, Note_on_c, 9, 42, 110
11, 76560, Note_on_c, 9, 54, 64
11, 76565, Note_off_c, 9, 54, 64
11, 76565, Note_off_c, 9, 42, 64
11, 76800, Note_on_c, 9, 54, 117
11, 76800, Note_on_c, 9, 36, 110
11, 76800, Note_on_c, 9, 42, 110
11, 76800, Note_on_c, 9, 38, 111
11, 76805, Note_off_c, 9, 38, 64
11, 76805, Note_off_c, 9, 42, 64
11, 76805, Note_off_c, 9, 36, 64
11, 76805, Note_off_c, 9, 54, 64
11, 77040, Note_on_c, 9, 42, 110
11, 77040, Note_on_c, 9, 54, 64
11, 77045, Note_off_c, 9, 54, 64
11, 77045, Note_off_c, 9, 42, 64
11, 77280, Note_on_c, 9, 54, 117
11, 77280, Note_on_c, 9, 42, 110
11, 77280, Note_on_c, 9, 36, 110
11, 77280, Note_on_c, 9, 38, 111
11, 77285, Note_off_c, 9, 38, 64
11, 77285, Note_off_c, 9, 36, 64
11, 77285, Note_off_c, 9, 42, 64
11, 77285, Note_off_c, 9, 54, 64
11, 77520, Note_on_c, 9, 54, 64
11, 77520, Note_on_c, 9, 42, 110
11, 77525, Note_off_c, 9, 42, 64
11, 77525, Note_off_c, 9, 54, 64
11, 77760, Note_on_c, 9, 42, 110
11, 77760, Note_on_c, 9, 38, 111
11, 77760, Note_on_c, 9, 36, 110
11, 77760, Note_on_c, 9, 54, 117
11, 77765, Note_off_c, 9, 54, 64
11, 77765, Note_off_c, 9, 36, 64
11, 77765, Note_off_c, 9, 38, 64
11, 77765, Note_off_c, 9, 42, 64
11, 78000, Note_on_c, 9, 54, 64
11, 78000, Note_on_c, 9, 42, 110
11, 78005, Note_off_c, 9, 42, 64
11, 78005, Note_off_c, 9, 54, 64
11, 78240, Note_on_c, 9, 36, 110
11, 78240, Note_on_c, 9, 54, 117
11, 78240, Note_on_c, 9, 42, 110
11, 78240, Note_on_c, 9, 38, 111
11, 78245, Note_off_c, 9, 38, 64
11, 78245, Note_off_c, 9, 42, 64
11, 78245, Note_off_c, 9, 54, 64
11, 78245, Note_off_c, 9, 36, 64
11, 78480, Note_on_c, 9, 54, 64
11, 78480, Note_on_c, 9, 42, 110
11, 78485, Note_off_c, 9, 42, 64
11, 78485, Note_off_c, 9, 54, 64
11, 78720, Note_on_c, 9, 36, 110
11, 78720, Note_on_c, 9, 54, 117
11, 78720, Note_on_c, 9, 38, 111
11, 78720, Note_on_c, 9, 42, 110
11, 78725, Note_off_c, 9, 42, 64
11, 78725, Note_off_c, 9, 38, 64
11, 78725, Note_off_c, 9, 54, 64
11, 78725, Note_off_c, 9, 36, 64
11, 78960, Note_on_c, 9, 54, 64
11, 78960, Note_on_c, 9, 42, 110
11, 78965, Note_off_c, 9, 42, 64
11, 78965, Note_off_c, 9, 54, 64
11, 79200, Note_on_c, 9, 38, 111
11, 79200, Note_on_c, 9, 54, 117
11, 79200, Note_on_c, 9, 42, 110
11, 79200, Note_on_c, 9, 36, 110
11, 79205, Note_off_c, 9, 36, 64
11, 79205, Note_off_c, 9, 42, 64
11, 79205, Note_off_c, 9, 54, 64
11, 79205, Note_off_c, 9, 38, 64
11, 79440, Note_on_c, 9, 54, 64
11, 79440, Note_on_c, 9, 42, 110
11, 79445, Note_off_c, 9, 42, 64
11, 79445, Note_off_c, 9, 54, 64
11, 79680, Note_on_c, 9, 36, 110
11, 79680, Note_on_c, 9, 54, 117
11, 79680, Note_on_c, 9, 38, 111
11, 79680, Note_on_c, 9, 42, 110
11, 79685, Note_off_c, 9, 42, 64
11, 79685, Note_off_c, 9, 38, 64
11, 79685, Note_off_c, 9, 54, 64
11, 79685, Note_off_c, 9, 36, 64
11, 79920, Note_on_c, 9, 42, 110
11, 79920, Note_on_c, 9, 54, 64
11, 79925, Note_off_c, 9, 54, 64
11, 79925, Note_off_c, 9, 42, 64
11, 80160, Note_on_c, 9, 42, 110
11, 80160, Note_on_c, 9, 36, 110
11, 80160, Note_on_c, 9, 54, 117
11, 80160, Note_on_c, 9, 38, 111
11, 80165, Note_off_c, 9, 38, 64
11, 80165, Note_off_c, 9, 54, 64
11, 80165, Note_off_c, 9, 36, 64
11, 80165, Note_off_c, 9, 42, 64
11, 80400, Note_on_c, 9, 42, 110
11, 80400, Note_on_c, 9, 54, 64
11, 80405, Note_off_c, 9, 54, 64
11, 80405, Note_off_c, 9, 42, 64
11, 80640, Note_on_c, 9, 42, 110
11, 80640, Note_on_c, 9, 38, 111
11, 80640, Note_on_c, 9, 54, 117
11, 80640, Note_on_c, 9, 36, 110
11, 80645, Note_off_c, 9, 36, 64
11, 80645, Note_off_c, 9, 54, 64
11, 80645, Note_off_c, 9, 38, 64
11, 80645, Note_off_c, 9, 42, 64
11, 80880, Note_on_c, 9, 54, 64
11, 80880, Note_on_c, 9, 42, 110
11, 80885, Note_off_c, 9, 42, 64
11, 80885, Note_off_c, 9, 54, 64
11, 81120, Note_on_c, 9, 36, 110
11, 81120, Note_on_c, 9, 42, 110
11, 81120, Note_on_c, 9, 54, 117
11, 81120, Note_on_c, 9, 38, 111
11, 81125, Note_off_c, 9, 38, 64
11, 81125, Note_off_c, 9, 54, 64
11, 81125, Note_off_c, 9, 42, 64
11, 81125, Note_off_c, 9, 36, 64
11, 81360, Note_on_c, 9, 54, 64
11, 81360, Note_on_c, 9, 42, 110
11, 81365, Note_off_c, 9, 42, 64
11, 81365, Note_off_c, 9, 54, 64
11, 81600, Note_on_c, 9, 54, 117
11, 81600, Note_on_c, 9, 38, 111
11, 81600, Note_on_c, 9, 42, 110
11, 81600, Note_on_c, 9, 36, 110
11, 81605, Note_off_c, 9, 36, 64
11, 81605, Note_off_c, 9, 42, 64
11, 81605, Note_off_c, 9, 38, 64
11, 81605, Note_off_c, 9, 54, 64
11, 81840, Note_on_c, 9, 54, 64
11, 81840, Note_on_c, 9, 42, 110
11, 81845, Note_off_c, 9, 42, 64
11, 81845, Note_off_c, 9, 54, 64
11, 82080, Note_on_c, 9, 36, 110
11, 82080, Note_on_c, 9, 42, 110
11, 82080, Note_on_c, 9, 38, 111
11, 82080, Note_on_c, 9, 54, 117
11, 82085, Note_off_c, 9, 54, 64
11, 82085, Note_off_c, 9, 38, 64
11, 82085, Note_off_c, 9, 42, 64
11, 82085, Note_off_c, 9, 36, 64
11, 82320, Note_on_c, 9, 54, 64
11, 82320, Note_on_c, 9, 42, 110
11, 82325, Note_off_c, 9, 42, 64
11, 82325, Note_off_c, 9, 54, 64
11, 82560, Note_on_c, 9, 42, 110
11, 82560, Note_on_c, 9, 54, 117
11, 82560, Note_on_c, 9, 38, 111
11, 82560, Note_on_c, 9, 36, 110
11, 82565, Note_off_c, 9, 36, 64
11, 82565, Note_off_c, 9, 38, 64
11, 82565, Note_off_c, 9, 54, 64
11, 82565, Note_off_c, 9, 42, 64
11, 82800, Note_on_c, 9, 54, 64
11, 82800, Note_on_c, 9, 42, 110
11, 82805, Note_off_c, 9, 42, 64
11, 82805, Note_off_c, 9, 54, 64
11, 83040, Note_on_c, 9, 38, 111
11, 83040, Note_on_c, 9, 54, 90
11, 83040, Note_on_c, 9, 42, 110
11, 83040, Note_on_c, 9, 36, 110
11, 83045, Note_off_c, 9, 36, 64
11, 83045, Note_off_c, 9, 42, 64
11, 83045, Note_off_c, 9, 54, 64
11, 83045, Note_off_c, 9, 38, 64
11, 83160, Note_on_c, 9, 54, 90
11, 83160, Note_on_c, 9, 46, 110
11, 83165, Note_off_c, 9, 46, 64
11, 83165, Note_off_c, 9, 54, 64
11, 83520, Note_on_c, 9, 36, 110
11, 83520, Note_on_c, 9, 54, 117
11, 83520, Note_on_c, 9, 42, 110
11, 83520, Note_on_c, 9, 38, 111
11, 83525, Note_off_c, 9, 38, 64
11, 83525, Note_off_c, 9, 42, 64
11, 83525, Note_off_c, 9, 54, 64
11, 83525, Note_off_c, 9, 36, 64
11, 83760, Note_on_c, 9, 54, 64
11, 83760, Note_on_c, 9, 42, 110
11, 83765, Note_off_c, 9, 42, 64
11, 83765, Note_off_c, 9, 54, 64
11, 84000, Note_on_c, 9, 42, 110
11, 84000, Note_on_c, 9, 36, 110
11, 84000, Note_on_c, 9, 38, 111
11, 84000, Note_on_c, 9, 54, 117
11, 84005, Note_off_c, 9, 54, 64
11, 84005, Note_off_c, 9, 38, 64
11, 84005, Note_off_c, 9, 36, 64
11, 84005, Note_off_c, 9, 42, 64
11, 84240, Note_on_c, 9, 42, 110
11, 84240, Note_on_c, 9, 54, 64
11, 84245, Note_off_c, 9, 54, 64
11, 84245, Note_off_c, 9, 42, 64
11, 84480, Note_on_c, 9, 38, 111
11, 84480, Note_on_c, 9, 36, 110
11, 84480, Note_on_c, 9, 54, 117
11, 84480, Note_on_c, 9, 42, 110
11, 84485, Note_off_c, 9, 42, 64
11, 84485, Note_off_c, 9, 54, 64
11, 84485, Note_off_c, 9, 36, 64
11, 84485, Note_off_c, 9, 38, 64
11, 84720, Note_on_c, 9, 42, 110
11, 84720, Note_on_c, 9, 54, 64
11, 84725, Note_off_c, 9, 54, 64
11, 84725, Note_off_c, 9, 42, 64
11, 84960, Note_on_c, 9, 54, 90
11, 84960, Note_on_c, 9, 38, 111
11, 84960, Note_on_c, 9, 42, 110
11, 84960, Note_on_c, 9, 36, 110
11, 84965, Note_off_c, 9, 36, 64
11, 84965, Note_off_c, 9, 42, 64
11, 84965, Note_off_c, 9, 38, 64
11, 84965, Note_off_c, 9, 54, 64
11, 85080, Note_on_c, 9, 46, 110
11, 85080, Note_on_c, 9, 54, 90
11, 85085, Note_off_c, 9, 54, 64
11, 85085, Note_off_c, 9, 46, 64
11, 85440, Note_on_c, 9, 54, 117
11, 85440, Note_on_c, 9, 38, 111
11, 85440, Note_on_c, 9, 42, 110
11, 85440, Note_on_c, 9, 36, 110
11, 85445, Note_off_c, 9, 36, 64
11, 85445, Note_off_c, 9, 42, 64
11, 85445, Note_off_c, 9, 38, 64
11, 85445, Note_off_c, 9, 54, 64
11, 85680, Note_on_c, 9, 42, 110
11, 85680, Note_on_c, 9, 54, 64
11, 85685, Note_off_c, 9, 54, 64
11, 85685, Note_off_c, 9, 42, 64
11, 85920, Note_on_c, 9, 54, 117
11, 85920, Note_on_c, 9, 42, 110
11, 85920, Note_on_c, 9, 36, 110
11, 85920, Note_on_c, 9, 38, 111
11, 85925, Note_off_c, 9, 38, 64
11, 85925, Note_off_c, 9, 36, 64
11, 85925, Note_off_c, 9, 42, 64
11, 85925, Note_off_c, 9, 54, 64
11, 86160, Note_on_c, 9, 54, 64
11, 86160, Note_on_c, 9, 42, 110
11, 86165, Note_off_c, 9, 42, 64
11, 86165, Note_off_c, 9, 54, 64
11, 86400, Note_on_c, 9, 36, 110
11, 86400, Note_on_c, 9, 42, 110
11, 86400, Note_on_c, 9, 38, 111
11, 86400, Note_on_c, 9, 54, 117
11, 86405, Note_off_c, 9, 54, 64
11, 86405, Note_off_c, 9, 38, 64
11, 86405, Note_off_c, 9, 42, 64
11, 86405, Note_off_c, 9, 36, 64
11, 86640, Note_on_c, 9, 54, 64
11, 86640, Note_on_c, 9, 42, 110
11, 86645, Note_off_c, 9, 42, 64
11, 86645, Note_off_c, 9, 54, 64
11, 86880, Note_on_c, 9, 38, 111
11, 86880, Note_on_c, 9, 54, 117
11, 86880, Note_on_c, 9, 42, 110
11, 86880, Note_on_c, 9, 36, 110
11, 86885, Note_off_c, 9, 36, 64
11, 86885, Note_off_c, 9, 42, 64
11, 86885, Note_off_c, 9, 54, 64
11, 86885, Note_off_c, 9, 38, 64
11, 87120, Note_on_c, 9, 54, 64
11, 87120, Note_on_c, 9, 42, 110
11, 87125, Note_off_c, 9, 42, 64
11, 87125, Note_off_c, 9, 54, 64
11, 87360, Note_on_c, 9, 38, 111
11, 87360, Note_on_c, 9, 54, 117
11, 87360, Note_on_c, 9, 42, 110
11, 87360, Note_on_c, 9, 36, 110
11, 87365, Note_off_c, 9, 36, 64
11, 87365, Note_off_c, 9, 42, 64
11, 87365, Note_off_c, 9, 54, 64
11, 87365, Note_off_c, 9, 38, 64
11, 87600, Note_on_c, 9, 54, 64
11, 87600, Note_on_c, 9, 42, 110
11, 87605, Note_off_c, 9, 42, 64
11, 87605, Note_off_c, 9, 54, 64
11, 87840, Note_on_c, 9, 38, 111
11, 87840, Note_on_c, 9, 54, 117
11, 87840, Note_on_c, 9, 36, 110
11, 87840, Note_on_c, 9, 42, 110
11, 87845, Note_off_c, 9, 42, 64
11, 87845, Note_off_c, 9, 36, 64
11, 87845, Note_off_c, 9, 54, 64
11, 87845, Note_off_c, 9, 38, 64
11, 88080, Note_on_c, 9, 54, 64
11, 88080, Note_on_c, 9, 42, 110
11, 88085, Note_off_c, 9, 42, 64
11, 88085, Note_off_c, 9, 54, 64
11, 88320, Note_on_c, 9, 38, 111
11, 88320, Note_on_c, 9, 54, 117
11, 88320, Note_on_c, 9, 36, 110
11, 88320, Note_on_c, 9, 42, 110
11, 88325, Note_off_c, 9, 42, 64
11, 88325, Note_off_c, 9, 36, 64
11, 88325, Note_off_c, 9, 54, 64
11, 88325, Note_off_c, 9, 38, 64
11, 88560, Note_on_c, 9, 42, 110
11, 88560, Note_on_c, 9, 54, 64
11, 88565, Note_off_c, 9, 54, 64
11, 88565, Note_off_c, 9, 42, 64
11, 88800, Note_on_c, 9, 42, 110
11, 88800, Note_on_c, 9, 36, 110
11, 88800, Note_on_c, 9, 54, 117
11, 88800, Note_on_c, 9, 38, 111
11, 88805, Note_off_c, 9, 38, 64
11, 88805, Note_off_c, 9, 54, 64
11, 88805, Note_off_c, 9, 36, 64
11, 88805, Note_off_c, 9, 42, 64
11, 89040, Note_on_c, 9, 42, 110
11, 89040, Note_on_c, 9, 54, 64
11, 89045, Note_off_c, 9, 54, 64
11, 89045, Note_off_c, 9, 42, 64
11, 89280, Note_on_c, 9, 42, 110
11, 89280, Note_on_c, 9, 36, 110
11, 89280, Note_on_c, 9, 54, 117
11, 89280, Note_on_c, 9, 38, 111
11, 89285, Note_off_c, 9, 38, 64
11, 89285, Note_off_c, 9, 54, 64
11, 89285, Note_off_c, 9, 36, 64
11, 89285, Note_off_c, 9, 42, 64
11, 89520, Note_on_c, 9, 54, 64
11, 89520, Note_on_c, 9, 42, 110
11, 89525, Note_off_c, 9, 42, 64
11, 89525, Note_off_c, 9, 54, 64
11, 89760, Note_on_c, 9, 36, 110
11, 89760, Note_on_c, 9, 38, 111
11, 89760, Note_on_c, 9, 54, 117
11, 89760, Note_on_c, 9, 42, 110
11, 89765, Note_off_c, 9, 42, 64
11, 89765, Note_off_c, 9, 54, 64
11, 89765, Note_off_c, 9, 38, 64
11, 89765, Note_off_c, 9, 36, 64
11, 90000, Note_on_c, 9, 54, 64
11, 90000, Note_on_c, 9, 42, 110
11, 90005, Note_off_c, 9, 42, 64
11, 90005, Note_off_c, 9, 54, 64
11, 90240, Note_on_c, 9, 54, 117
11, 90240, Note_on_c, 9, 38, 111
11, 90240, Note_on_c, 9, 49, 100
11, 90240, Note_on_c, 9, 36, 110
11, 90245, Note_off_c, 9, 36, 64
11, 90245, Note_off_c, 9, 49, 64
11, 90245, Note_off_c, 9, 38, 64
11, 90245, Note_off_c, 9, 54, 64
11, 90480, Note_on_c, 9, 54, 64
11, 90480, Note_on_c, 9, 42, 110
11, 90485, Note_off_c, 9, 42, 64
11, 90485, Note_off_c, 9, 54, 64
11, 90720, Note_on_c, 9, 42, 110
11, 90720, Note_on_c, 9, 38, 111
11, 90720, Note_on_c, 9, 36, 110
11, 90720, Note_on_c, 9, 54, 117
11, 90725, Note_off_c, 9, 54, 64
11, 90725, Note_off_c, 9, 36, 64
11, 90725, Note_off_c, 9, 38, 64
11, 90725, Note_off_c, 9, 42, 64
11, 90960, Note_on_c, 9, 42, 110
11, 90960, Note_on_c, 9, 54, 64
11, 90965, Note_off_c, 9, 54, 64
11, 90965, Note_off_c, 9, 42, 64
11, 91200, Note_on_c, 9, 54, 117
11, 91200, Note_on_c, 9, 36, 110
11, 91200, Note_on_c, 9, 38, 111
11, 91200, Note_on_c, 9, 57, 100
11, 91205, Note_off_c, 9, 57, 64
11, 91205, Note_off_c, 9, 38, 64
11, 91205, Note_off_c, 9, 36, 64
11, 91205, Note_off_c, 9, 54, 64
11, 91440, Note_on_c, 9, 42, 110
11, 91440, Note_on_c, 9, 54, 64
11, 91445, Note_off_c, 9, 54, 64
11, 91445, Note_off_c, 9, 42, 64
11, 91680, Note_on_c, 9, 54, 117
11, 91680, Note_on_c, 9, 38, 111
11, 91680, Note_on_c, 9, 42, 110
11, 91680, Note_on_c, 9, 36, 110
11, 91685, Note_off_c, 9, 36, 64
11, 91685, Note_off_c, 9, 42, 64
11, 91685, Note_off_c, 9, 38, 64
11, 91685, Note_off_c, 9, 54, 64
11, 91920, Note_on_c, 9, 42, 110
11, 91920, Note_on_c, 9, 54, 64
11, 91925, Note_off_c, 9, 54, 64
11, 91925, Note_off_c, 9, 42, 64
11, 92160, Note_on_c, 9, 38, 111
11, 92160, Note_on_c, 9, 36, 110
11, 92160, Note_on_c, 9, 49, 100
11, 92160, Note_on_c, 9, 54, 117
11, 92165, Note_off_c, 9, 54, 64
11, 92165, Note_off_c, 9, 49, 64
11, 92165, Note_off_c, 9, 36, 64
11, 92165, Note_off_c, 9, 38, 64
11, 92400, Note_on_c, 9, 42, 110
11, 92400, Note_on_c, 9, 54, 64
11, 92405, Note_off_c, 9, 54, 64
11, 92405, Note_off_c, 9, 42, 64
11, 92640, Note_on_c, 9, 42, 110
11, 92640, Note_on_c, 9, 54, 117
11, 92640, Note_on_c, 9, 38, 111
11, 92640, Note_on_c, 9, 36, 110
11, 92645, Note_off_c, 9, 36, 64
11, 92645, Note_off_c, 9, 38, 64
11, 92645, Note_off_c, 9, 54, 64
11, 92645, Note_off_c, 9, 42, 64
11, 92880, Note_on_c, 9, 54, 64
11, 92880, Note_on_c, 9, 42, 110
11, 92885, Note_off_c, 9, 42, 64
11, 92885, Note_off_c, 9, 54, 64
11, 93120, Note_on_c, 9, 54, 117
11, 93120, Note_on_c, 9, 36, 110
11, 93120, Note_on_c, 9, 57, 100
11, 93120, Note_on_c, 9, 38, 111
11, 93125, Note_off_c, 9, 38, 64
11, 93125, Note_off_c, 9, 57, 64
11, 93125, Note_off_c, 9, 36, 64
11, 93125, Note_off_c, 9, 54, 64
11, 93360, Note_on_c, 9, 42, 110
11, 93360, Note_on_c, 9, 54, 64
11, 93365, Note_off_c, 9, 54, 64
11, 93365, Note_off_c, 9, 42, 64
11, 93600, Note_on_c, 9, 54, 117
11, 93600, Note_on_c, 9, 36, 110
11, 93600, Note_on_c, 9, 38, 111
11, 93600, Note_on_c, 9, 42, 110
11, 93605, Note_off_c, 9, 42, 64
11, 93605, Note_off_c, 9, 38, 64
11, 93605, Note_off_c, 9, 36, 64
11, 93605, Note_off_c, 9, 54, 64
11, 93840, Note_on_c, 9, 42, 110
11, 93840, Note_on_c, 9, 54, 64
11, 93845, Note_off_c, 9, 54, 64
11, 93845, Note_off_c, 9, 42, 64
11, 94080, Note_on_c, 9, 38, 111
11, 94080, Note_on_c, 9, 36, 110
11, 94080, Note_on_c, 9, 54, 117
11, 94080, Note_on_c, 9, 49, 100
11, 94085, Note_off_c, 9, 49, 64
11, 94085, Note_off_c, 9, 54, 64
11, 94085, Note_off_c, 9, 36, 64
11, 94085, Note_off_c, 9, 38, 64
11, 94320, Note_on_c, 9, 54, 64
11, 94320, Note_on_c, 9, 42, 110
11, 94325, Note_off_c, 9, 42, 64
11, 94325, Note_off_c, 9, 54, 64
11, 94560, Note_on_c, 9, 42, 110
11, 94560, Note_on_c, 9, 38, 111
11, 94560, Note_on_c, 9, 54, 117
11, 94560, Note_on_c, 9, 36, 110
11, 94565, Note_off_c, 9, 36, 64
11, 94565, Note_off_c, 9, 54, 64
11, 94565, Note_off_c, 9, 38, 64
11, 94565, Note_off_c, 9, 42, 64
11, 94800, Note_on_c, 9, 54, 64
11, 94800, Note_on_c, 9, 42, 110
11, 94805, Note_off_c, 9, 42, 64
11, 94805, Note_off_c, 9, 54, 64
11, 95040, Note_on_c, 9, 38, 111
11, 95040, Note_on_c, 9, 57, 100
11, 95040, Note_on_c, 9, 36, 110
11, 95040, Note_on_c, 9, 54, 117
11, 95045, Note_off_c, 9, 54, 64
11, 95045, Note_off_c, 9, 36, 64
11, 95045, Note_off_c, 9, 57, 64
11, 95045, Note_off_c, 9, 38, 64
11, 95280, Note_on_c, 9, 54, 64
11, 95280, Note_on_c, 9, 42, 110
11, 95285, Note_off_c, 9, 42, 64
11, 95285, Note_off_c, 9, 54, 64
11, 95520, Note_on_c, 9, 38, 111
11, 95520, Note_on_c, 9, 54, 117
11, 95520, Note_on_c, 9, 36, 110
11, 95520, Note_on_c, 9, 42, 110
11, 95525, Note_off_c, 9, 42, 64
11, 95525, Note_off_c, 9, 36, 64
11, 95525, Note_off_c, 9, 54, 64
11, 95525, Note_off_c, 9, 38, 64
11, 95760, Note_on_c, 9, 54, 64
11, 95760, Note_on_c, 9, 42, 110
11, 95765, Note_off_c, 9, 42, 64
11, 95765, Note_off_c, 9, 54, 64
11, 96000, Note_on_c, 9, 49, 100
11, 96000, Note_on_c, 9, 54, 117
11, 96000, Note_on_c, 9, 38, 111
11, 96000, Note_on_c, 9, 36, 110
11, 96005, Note_off_c, 9, 36, 64
11, 96005, Note_off_c, 9, 38, 64
11, 96005, Note_off_c, 9, 54, 64
11, 96005, Note_off_c, 9, 49, 64
11, 96240, Note_on_c, 9, 42, 110
11, 96240, Note_on_c, 9, 54, 64
11, 96245, Note_off_c, 9, 54, 64
11, 96245, Note_off_c, 9, 42, 64
11, 96480, Note_on_c, 9, 42, 110
11, 96480, Note_on_c, 9, 36, 110
11, 96480, Note_on_c, 9, 54, 117
11, 96480, Note_on_c, 9, 38, 111
11, 96485, Note_off_c, 9, 38, 64
11, 96485, Note_off_c, 9, 54, 64
11, 96485, Note_off_c, 9, 36, 64
11, 96485, Note_off_c, 9, 42, 64
11, 96720, Note_on_c, 9, 42, 110
11, 96720, Note_on_c, 9, 54, 64
11, 96725, Note_off_c, 9, 54, 64
11, 96725, Note_off_c, 9, 42, 64
11, 96960, Note_on_c, 9, 54, 117
11, 96960, Note_on_c, 9, 57, 100
11, 96960, Note_on_c, 9, 36, 110
11, 96960, Note_on_c, 9, 38, 111
11, 96965, Note_off_c, 9, 38, 64
11, 96965, Note_off_c, 9, 36, 64
11, 96965, Note_off_c, 9, 57, 64
11, 96965, Note_off_c, 9, 54, 64
11, 97200, Note_on_c, 9, 54, 64
11, 97200, Note_on_c, 9, 42, 110
11, 97205, Note_off_c, 9, 42, 64
11, 97205, Note_off_c, 9, 54, 64
11, 97440, Note_on_c, 9, 54, 117
11, 97440, Note_on_c, 9, 36, 110
11, 97440, Note_on_c, 9, 42, 110
11, 97440, Note_on_c, 9, 38, 111
11, 97445, Note_off_c, 9, 38, 64
11, 97445, Note_off_c, 9, 42, 64
11, 97445, Note_off_c, 9, 36, 64
11, 97445, Note_off_c, 9, 54, 64
11, 97680, Note_on_c, 9, 42, 110
11, 97680, Note_on_c, 9, 54, 64
11, 97685, Note_off_c, 9, 54, 64
11, 97685, Note_off_c, 9, 42, 64
11, 97920, Note_on_c, 9, 54, 117
11, 97920, Note_on_c, 9, 38, 111
11, 97920, Note_on_c, 9, 49, 100
11, 97920, Note_on_c, 9, 36, 110
11, 97925, Note_off_c, 9, 36, 64
11, 97925, Note_off_c, 9, 49, 64
11, 97925, Note_off_c, 9, 38, 64
11, 97925, Note_off_c, 9, 54, 64
11, 98160, Note_on_c, 9, 42, 110
11, 98160, Note_on_c, 9, 54, 64
11, 98165, Note_off_c, 9, 54, 64
11, 98165, Note_off_c, 9, 42, 64
11, 98400, Note_on_c, 9, 42, 110
11, 98400, Note_on_c, 9, 54, 117
11, 98400, Note_on_c, 9, 36, 110
11, 98400, Note_on_c, 9, 38, 111
11, 98405, Note_off_c, 9, 38, 64
11, 98405, Note_off_c, 9, 36, 64
11, 98405, Note_off_c, 9, 54, 64
11, 98405, Note_off_c, 9, 42, 64
11, 98640, Note_on_c, 9, 42, 110
11, 98640, Note_on_c, 9, 54, 64
11, 98645, Note_off_c, 9, 54, 64
11, 98645, Note_off_c, 9, 42, 64
11, 98880, Note_on_c, 9, 57, 100
11, 98880, Note_on_c, 9, 54, 117
11, 98880, Note_on_c, 9, 38, 111
11, 98880, Note_on_c, 9, 36, 110
11, 98885, Note_off_c, 9, 36, 64
11, 98885, Note_off_c, 9, 38, 64
11, 98885, Note_off_c, 9, 54, 64
11, 98885, Note_off_c, 9, 57, 64
11, 99120, Note_on_c, 9, 54, 64
11, 99120, Note_on_c, 9, 42, 110
11, 99125, Note_off_c, 9, 42, 64
11, 99125, Note_off_c, 9, 54, 64
11, 99360, Note_on_c, 9, 42, 110
11, 99360, Note_on_c, 9, 38, 111
11, 99360, Note_on_c, 9, 54, 117
11, 99360, Note_on_c, 9, 36, 110
11, 99365, Note_off_c, 9, 36, 64
11, 99365, Note_off_c, 9, 54, 64
11, 99365, Note_off_c, 9, 38, 64
11, 99365, Note_off_c, 9, 42, 64
11, 99600, Note_on_c, 9, 42, 110
11, 99600, Note_on_c, 9, 54, 64
11, 99605, Note_off_c, 9, 54, 64
11, 99605, Note_off_c, 9, 42, 64
11, 99840, Note_on_c, 9, 38, 111
11, 99840, Note_on_c, 9, 49, 100
11, 99840, Note_on_c, 9, 54, 117
11, 99840, Note_on_c, 9, 36, 110
11, 99845, Note_off_c, 9, 36, 64
11, 99845, Note_off_c, 9, 54, 64
11, 99845, Note_off_c, 9, 49, 64
11, 99845, Note_off_c, 9, 38, 64
11, 100080, Note_on_c, 9, 42, 110
11, 100080, Note_on_c, 9, 54, 64
11, 100085, Note_off_c, 9, 54, 64
11, 100085, Note_off_c, 9, 42, 64
11, 100320, Note_on_c, 9, 38, 111
11, 100320, Note_on_c, 9, 42, 110
11, 100320, Note_on_c, 9, 36, 110
11, 100320, Note_on_c, 9, 54, 117
11, 100325, Note_off_c, 9, 54, 64
11, 100325, Note_off_c, 9, 36, 64
11, 100325, Note_off_c, 9, 42, 64
11, 100325, Note_off_c, 9, 38, 64
11, 100560, Note_on_c, 9, 42, 110
11, 100560, Note_on_c, 9, 54, 64
11, 100565, Note_off_c, 9, 54, 64
11, 100565, Note_off_c, 9, 42, 64
11, 100800, Note_on_c, 9, 36, 110
11, 100800, Note_on_c, 9, 38, 111
11, 100800, Note_on_c, 9, 57, 100
11, 100800, Note_on_c, 9, 54, 117
11, 100805, Note_off_c, 9, 54, 64
11, 100805, Note_off_c, 9, 57, 64
11, 100805, Note_off_c, 9, 38, 64
11, 100805, Note_off_c, 9, 36, 64
11, 101040, Note_on_c, 9, 42, 110
11, 101040, Note_on_c, 9, 54, 64
11, 101045, Note_off_c, 9, 54, 64
11, 101045, Note_off_c, 9, 42, 64
11, 101280, Note_on_c, 9, 42, 110
11, 101280, Note_on_c, 9, 36, 110
11, 101280, Note_on_c, 9, 54, 117
11, 101280, Note_on_c, 9, 38, 111
11, 101285, Note_off_c, 9, 38, 64
11, 101285, Note_off_c, 9, 54, 64
11, 101285, Note_off_c, 9, 36, 64
11, 101285, Note_off_c, 9, 42, 64
11, 101520, Note_on_c, 9, 42, 110
11, 101520, Note_on_c, 9, 54, 64
11, 101525, Note_off_c, 9, 54, 64
11, 101525, Note_off_c, 9, 42, 64
11, 101760, Note_on_c, 9, 54, 117
11, 101760, Note_on_c, 9, 38, 111
11, 101760, Note_on_c, 9, 36, 110
11, 101760, Note_on_c, 9, 46, 110
11, 101765, Note_off_c, 9, 46, 64
11, 101765, Note_off_c, 9, 36, 64
11, 101765, Note_off_c, 9, 38, 64
11, 101765, Note_off_c, 9, 54, 64
11, 102000, Note_on_c, 9, 54, 64
11, 102000, Note_on_c, 9, 46, 110
11, 102005, Note_off_c, 9, 46, 64
11, 102005, Note_off_c, 9, 54, 64
11, 102240, Note_on_c, 9, 54, 117
11, 102240, Note_on_c, 9, 36, 110
11, 102240, Note_on_c, 9, 38, 111
11, 102240, Note_on_c, 9, 46, 110
11, 102245, Note_off_c, 9, 46, 64
11, 102245, Note_off_c, 9, 38, 64
11, 102245, Note_off_c, 9, 36, 64
11, 102245, Note_off_c, 9, 54, 64
11, 102480, Note_on_c, 9, 54, 64
11, 102480, Note_on_c, 9, 46, 110
11, 102485, Note_off_c, 9, 46, 64
11, 102485, Note_off_c, 9, 54, 64
11, 102720, Note_on_c, 9, 46, 110
11, 102720, Note_on_c, 9, 36, 110
11, 102720, Note_on_c, 9, 54, 117
11, 102720, Note_on_c, 9, 38, 111
11, 102725, Note_off_c, 9, 38, 64
11, 102725, Note_off_c, 9, 54, 64
11, 102725, Note_off_c, 9, 36, 64
11, 102725, Note_off_c, 9, 46, 64
11, 102960, Note_on_c, 9, 46, 110
11, 102960, Note_on_c, 9, 54, 64
11, 102965, Note_off_c, 9, 54, 64
11, 102965, Note_off_c, 9, 46, 64
11, 103200, Note_on_c, 9, 36, 110
11, 103200, Note_on_c, 9, 54, 117
11, 103200, Note_on_c, 9, 38, 111
11, 103200, Note_on_c, 9, 46, 110
11, 103205, Note_off_c, 9, 46, 64
11, 103205, Note_off_c, 9, 38, 64
11, 103205, Note_off_c, 9, 54, 64
11, 103205, Note_off_c, 9, 36, 64
11, 103440, Note_on_c, 9, 54, 64
11, 103440, Note_on_c, 9, 46, 110
11, 103445, Note_off_c, 9, 46, 64
11, 103445, Note_off_c, 9, 54, 64
11, 103680, Note_on_c, 9, 38, 111
11, 103680, Note_on_c, 9, 46, 110
11, 103680, Note_on_c, 9, 54, 117
11, 103680, Note_on_c, 9, 36, 110
11, 103685, Note_off_c, 9, 36, 64
11, 103685, Note_off_c, 9, 54, 64
11, 103685, Note_off_c, 9, 46, 64
11, 103685, Note_off_c, 9, 38, 64
11, 103920, Note_on_c, 9, 36, 110
11, 103920, Note_on_c, 9, 46, 110
11, 103920, Note_on_c, 9, 54, 64
11, 103925, Note_off_c, 9, 54, 64
11, 103925, Note_off_c, 9, 46, 64
11, 103925, Note_off_c, 9, 36, 64
11, 104160, Note_on_c, 9, 46, 110
11, 104160, Note_on_c, 9, 36, 110
11, 104160, Note_on_c, 9, 54, 117
11, 104160, Note_on_c, 9, 38, 111
11, 104165, Note_off_c, 9, 38, 64
11, 104165, Note_off_c, 9, 54, 64
11, 104165, Note_off_c, 9, 36, 64
11, 104165, Note_off_c, 9, 46, 64
11, 104400, Note_on_c, 9, 36, 110
11, 104400, Note_on_c, 9, 46, 110
11, 104400, Note_on_c, 9, 54, 64
11, 104405, Note_off_c, 9, 54, 64
11, 104405, Note_off_c, 9, 46, 64
11, 104405, Note_off_c, 9, 36, 64
11, 104640, Note_on_c, 9, 46, 110
11, 104640, Note_on_c, 9, 38, 111
11, 104640, Note_on_c, 9, 36, 110
11, 104640, Note_on_c, 9, 54, 117
11, 104645, Note_off_c, 9, 54, 64
11, 104645, Note_off_c, 9, 36, 64
11, 104645, Note_off_c, 9, 38, 64
11, 104645, Note_off_c, 9, 46, 64
11, 104880, Note_on_c, 9, 36, 110
11, 104880, Note_on_c, 9, 54, 64
11, 104880, Note_on_c, 9, 46, 110
11, 104885, Note_off_c, 9, 46, 64
11, 104885, Note_off_c, 9, 54, 64
11, 104885, Note_off_c, 9, 36, 64
11, 105120, Note_on_c, 9, 36, 110
11, 105120, Note_on_c, 9, 54, 117
11, 105120, Note_on_c, 9, 46, 110
11, 105120, Note_on_c, 9, 38, 111
11, 105125, Note_off_c, 9, 38, 64
11, 105125, Note_off_c, 9, 46, 64
11, 105125, Note_off_c, 9, 54, 64
11, 105125, Note_off_c, 9, 36, 64
11, 105360, Note_on_c, 9, 36, 110
11, 105360, Note_on_c, 9, 54, 64
11, 105360, Note_on_c, 9, 46, 110
11, 105365, Note_off_c, 9, 46, 64
11, 105365, Note_off_c, 9, 54, 64
11, 105365, Note_off_c, 9, 36, 64
11, 105600, Note_on_c, 9, 46, 110
11, 105600, Note_on_c, 9, 54, 117
11, 105600, Note_on_c, 9, 36, 110
11, 105600, Note_on_c, 9, 38, 111
11, 105605, Note_off_c, 9, 38, 64
11, 105605, Note_off_c, 9, 36, 64
11, 105605, Note_off_c, 9, 54, 64
11, 105605, Note_off_c, 9, 46, 64
11, 105840, Note_on_c, 9, 36, 110
11, 105840, Note_on_c, 9, 46, 110
11, 105840, Note_on_c, 9, 54, 64
11, 105845, Note_off_c, 9, 54, 64
11, 105845, Note_off_c, 9, 46, 64
11, 105845, Note_off_c, 9, 36, 64
11, 106080, Note_on_c, 9, 46, 110
11, 106080, Note_on_c, 9, 36, 110
11, 106080, Note_on_c, 9, 54, 117
11, 106080, Note_on_c, 9, 38, 111
11, 106085, Note_off_c, 9, 38, 64
11, 106085, Note_off_c, 9, 54, 64
11, 106085, Note_off_c, 9, 36, 64
11, 106085, Note_off_c, 9, 46, 64
11, 106320, Note_on_c, 9, 36, 110
11, 106320, Note_on_c, 9, 46, 110
11, 106320, Note_on_c, 9, 54, 64
11, 106325, Note_off_c, 9, 54, 64
11, 106325, Note_off_c, 9, 46, 64
11, 106325, Note_off_c, 9, 36, 64
11, 106560, Note_on_c, 9, 38, 111
11, 106560, Note_on_c, 9, 36, 110
11, 106560, Note_on_c, 9, 46, 110
11, 106560, Note_on_c, 9, 54, 117
11, 106565, Note_off_c, 9, 54, 64
11, 106565, Note_off_c, 9, 46, 64
11, 106565, Note_off_c, 9, 36, 64
11, 106565, Note_off_c, 9, 38, 64
11, 106800, Note_on_c, 9, 36, 110
11, 106800, Note_on_c, 9, 54, 64
11, 106800, Note_on_c, 9, 46, 110
11, 106805, Note_off_c, 9, 46, 64
11, 106805, Note_off_c, 9, 54, 64
11, 106805, Note_off_c, 9, 36, 64
11, 107040, Note_on_c, 9, 46, 110
11, 107040, Note_on_c, 9, 38, 111
11, 107040, Note_on_c, 9, 54, 117
11, 107040, Note_on_c, 9, 36, 110
11, 107045, Note_off_c, 9, 36, 64
11, 107045, Note_off_c, 9, 54, 64
11, 107045, Note_off_c, 9, 38, 64
11, 107045, Note_off_c, 9, 46, 64
11, 107280, Note_on_c, 9, 54, 64
11, 107280, Note_on_c, 9, 36, 110
11, 107280, Note_on_c, 9, 46, 110
11, 107285, Note_off_c, 9, 46, 64
11, 107285, Note_off_c, 9, 36, 64
11, 107285, Note_off_c, 9, 54, 64
11, 107520, Note_on_c, 9, 36, 110
11, 107520, Note_on_c, 9, 49, 100
11, 107520, Note_on_c, 9, 54, 117
11, 107525, Note_off_c, 9, 54, 64
11, 107525, Note_off_c, 9, 49, 64
11, 107525, Note_off_c, 9, 36, 64
11, 107760, Note_on_c, 9, 36, 110
11, 107760, Note_on_c, 9, 57, 100
11, 107760, Note_on_c, 9, 54, 64
11, 107765, Note_off_c, 9, 54, 64
11, 107765, Note_off_c, 9, 57, 64
11, 107765, Note_off_c, 9, 36, 64
11, 108000, Note_on_c, 9, 54, 117
11, 108000, Note_on_c, 9, 57, 100
11, 108000, Note_on_c, 9, 36, 110
11, 108005, Note_off_c, 9, 36, 64
11, 108005, Note_off_c, 9, 57, 64
11, 108005, Note_off_c, 9, 54, 64
11, 108240, Note_on_c, 9, 57, 100
11, 108240, Note_on_c, 9, 54, 64
11, 108240, Note_on_c, 9, 36, 110
11, 108245, Note_off_c, 9, 36, 64
11, 108245, Note_off_c, 9, 54, 64
11, 108245, Note_off_c, 9, 57, 64
11, 108480, Note_on_c, 9, 54, 117
11, 108480, Note_on_c, 9, 49, 100
11, 108480, Note_on_c, 9, 36, 110
11, 108485, Note_off_c, 9, 36, 64
11, 108485, Note_off_c, 9, 49, 64
11, 108485, Note_off_c, 9, 54, 64
11, 108720, Note_on_c, 9, 54, 64
11, 108720, Note_on_c, 9, 57, 100
11, 108720, Note_on_c, 9, 36, 110
11, 108725, Note_off_c, 9, 36, 64
11, 108725, Note_off_c, 9, 57, 64
11, 108725, Note_off_c, 9, 54, 64
11, 108960, Note_on_c, 9, 54, 117
11, 108960, Note_on_c, 9, 57, 100
11, 108960, Note_on_c, 9, 36, 110
11, 108965, Note_off_c, 9, 36, 64
11, 108965, Note_off_c, 9, 57, 64
11, 108965, Note_off_c, 9, 54, 64
11, 109200, Note_on_c, 9, 54, 64
11, 109200, Note_on_c, 9, 36, 110
11, 109200, Note_on_c, 9, 57, 100
11, 109205, Note_off_c, 9, 57, 64
11, 109205, Note_off_c, 9, 36, 64
11, 109205, Note_off_c, 9, 54, 64
11, 109440, Note_on_c, 9, 54, 117
11, 109440, Note_on_c, 9, 36, 110
11, 109440, Note_on_c, 9, 49, 100
11, 109445, Note_off_c, 9, 49, 64
11, 109445, Note_off_c, 9, 36, 64
11, 109445, Note_off_c, 9, 54, 64
11, 109680, Note_on_c, 9, 36, 110
11, 109680, Note_on_c, 9, 57, 100
11, 109680, Note_on_c, 9, 54, 64
11, 109685, Note_off_c, 9, 54, 64
11, 109685, Note_off_c, 9, 57, 64
11, 109685, Note_off_c, 9, 36, 64
11, 109920, Note_on_c, 9, 57, 100
11, 109920, Note_on_c, 9, 54, 117
11, 109920, Note_on_c, 9, 36, 110
11, 109925, Note_off_c, 9, 36, 64
11, 109925, Note_off_c, 9, 54, 64
11, 109925, Note_off_c, 9, 57, 64
11, 110160, Note_on_c, 9, 49, 100
11, 110160, Note_on_c, 9, 36, 110
11, 110160, Note_on_c, 9, 54, 64
11, 110165, Note_off_c, 9, 54, 64
11, 110165, Note_off_c, 9, 36, 64
11, 110165, Note_off_c, 9, 49, 64
11, 110400, Note_on_c, 9, 54, 117
11, 110400, Note_on_c, 9, 57, 100
11, 110400, Note_on_c, 9, 36, 110
11, 110405, Note_off_c, 9, 36, 64
11, 110405, Note_off_c, 9, 57, 64
11, 110405, Note_off_c, 9, 54, 64
11, 110640, Note_on_c, 9, 36, 110
11, 110640, Note_on_c, 9, 57, 100
11, 110640, Note_on_c, 9, 54, 64
11, 110645, Note_off_c, 9, 54, 64
11, 110645, Note_off_c, 9, 57, 64
11, 110645, Note_off_c, 9, 36, 64
11, 110880, Note_on_c, 9, 49, 100
11, 110880, Note_on_c, 9, 54, 117
11, 110880, Note_on_c, 9, 36, 110
11, 110885, Note_off_c, 9, 36, 64
11, 110885, Note_off_c, 9, 54, 64
11, 110885, Note_off_c, 9, 49, 64
11, 111120, Note_on_c, 9, 57, 100
11, 111120, Note_on_c, 9, 54, 64
11, 111120, Note_on_c, 9, 36, 110
11, 111125, Note_off_c, 9, 36, 64
11, 111125, Note_off_c, 9, 54, 64
11, 111125, Note_off_c, 9, 57, 64
11, 111360, Note_on_c, 9, 57, 100
11, 111360, Note_on_c, 9, 54, 117
11, 111360, Note_on_c, 9, 36, 110
11, 111365, Note_off_c, 9, 36, 64
11, 111365, Note_off_c, 9, 54, 64
11, 111365, Note_off_c, 9, 57, 64
11, 111600, Note_on_c, 9, 49, 100
11, 111600, Note_on_c, 9, 36, 110
11, 111600, Note_on_c, 9, 54, 64
11, 111605, Note_off_c, 9, 54, 64
11, 111605, Note_off_c, 9, 36, 64
11, 111605, Note_off_c, 9, 49, 64
11, 111840, Note_on_c, 9, 54, 117
11, 111840, Note_on_c, 9, 36, 110
11, 111840, Note_on_c, 9, 57, 100
11, 111845, Note_off_c, 9, 57, 64
11, 111845, Note_off_c, 9, 36, 64
11, 111845, Note_off_c, 9, 54, 64
11, 112080, Note_on_c, 9, 36, 110
11, 112080, Note_on_c, 9, 57, 100
11, 112080, Note_on_c, 9, 54, 64
11, 112085, Note_off_c, 9, 54, 64
11, 112085, Note_off_c, 9, 57, 64
11, 112085, Note_off_c, 9, 36, 64
11, 112320, Note_on_c, 9, 54, 117
11, 112320, Note_on_c, 9, 49, 100
11, 112320, Note_on_c, 9, 36, 110
11, 112325, Note_off_c, 9, 36, 64
11, 112325, Note_off_c, 9, 49, 64
11, 112325, Note_off_c, 9, 54, 64
11, 112560, Note_on_c, 9, 57, 100
11, 112560, Note_on_c, 9, 54, 64
11, 112560, Note_on_c, 9, 36, 110
11, 112565, Note_off_c, 9, 36, 64
11, 112565, Note_off_c, 9, 54, 64
11, 112565, Note_off_c, 9, 57, 64
11, 112800, Note_on_c, 9, 54, 117
11, 112800, Note_on_c, 9, 57, 100
11, 112800, Note_on_c, 9, 36, 110
11, 112805, Note_off_c, 9, 36, 64
11, 112805, Note_off_c, 9, 57, 64
11, 112805, Note_off_c, 9, 54, 64
11, 113040, Note_on_c, 9, 36, 110
11, 113040, Note_on_c, 9, 49, 100
11, 113040, Note_on_c, 9, 54, 64
11, 113045, Note_off_c, 9, 54, 64
11, 113045, Note_off_c, 9, 49, 64
11, 113045, Note_off_c, 9, 36, 64
11, 113280, Note_on_c, 9, 54, 80
11, 113280, Note_on_c, 9, 36, 110
11, 113280, Note_on_c, 9, 38, 111
11, 113285, Note_off_c, 9, 38, 64
11, 113285, Note_off_c, 9, 36, 64
11, 113285, Note_off_c, 9, 54, 64
11, 113360, Note_on_c, 9, 54, 64
11, 113365, Note_off_c, 9, 54, 64
11, 113440, Note_on_c, 9, 54, 80
11, 113445, Note_off_c, 9, 54, 64
11, 113520, Note_on_c, 9, 54, 64
11, 113525, Note_off_c, 9, 54, 64
11, 113600, Note_on_c, 9, 54, 80
11, 113605, Note_off_c, 9, 54, 64
11, 113680, Note_on_c, 9, 54, 64
11, 113685, Note_off_c, 9, 54, 64
11, 113760, Note_on_c, 9, 54, 80
11, 113765, Note_off_c, 9, 54, 64
11, 113840, Note_on_c, 9, 54, 64
11, 113845, Note_off_c, 9, 54, 64
11, 113920, Note_on_c, 9, 54, 80
11, 113925, Note_off_c, 9, 54, 64
11, 114000, Note_on_c, 9, 54, 64
11, 114005, Note_off_c, 9, 54, 64
11, 114080, Note_on_c, 9, 54, 80
11, 114085, Note_off_c, 9, 54, 64
11, 114160, Note_on_c, 9, 54, 64
11, 114165, Note_off_c, 9, 54, 64
11, 114240, Note_on_c, 9, 54, 80
11, 114245, Note_off_c, 9, 54, 64
11, 114320, Note_on_c, 9, 54, 64
11, 114325, Note_off_c, 9, 54, 64
11, 114400, Note_on_c, 9, 54, 80
11, 114405, Note_off_c, 9, 54, 64
11, 114480, Note_on_c, 9, 54, 64
11, 114485, Note_off_c, 9, 54, 64
11, 114560, Note_on_c, 9, 54, 80
11, 114565, Note_off_c, 9, 54, 64
11, 114640, Note_on_c, 9, 54, 64
11, 114645, Note_off_c, 9, 54, 64
11, 114720, Note_on_c, 9, 54, 80
11, 114725, Note_off_c, 9, 54, 64
11, 114800, Note_on_c, 9, 54, 64
11, 114805, Note_off_c, 9, 54, 64
11, 114880, Note_on_c, 9, 54, 80
11, 114885, Note_off_c, 9, 54, 64
11, 114960, Note_on_c, 9, 54, 64
11, 114965, Note_off_c, 9, 54, 64
11, 115040, Note_on_c, 9, 54, 80
11, 115045, Note_off_c, 9, 54, 64
11, 115120, Note_on_c, 9, 54, 64
11, 115125, Note_off_c, 9, 54, 64
11, 115200, Note_on_c, 9, 54, 80
11, 115205, Note_off_c, 9, 54, 64
11, 115280, Note_on_c, 9, 54, 64
11, 115285, Note_off_c, 9, 54, 64
11, 115360, Note_on_c, 9, 54, 80
11, 115365, Note_off_c, 9, 54, 64
11, 115440, Note_on_c, 9, 54, 64
11, 115445, Note_off_c, 9, 54, 64
11, 115520, Note_on_c, 9, 54, 80
11, 115525, Note_off_c, 9, 54, 64
11, 115600, Note_on_c, 9, 54, 64
11, 115605, Note_off_c, 9, 54, 64
11, 115680, Note_on_c, 9, 54, 80
11, 115685, Note_off_c, 9, 54, 64
11, 115760, Note_on_c, 9, 54, 64
11, 115765, Note_off_c, 9, 54, 64
11, 115840, Note_on_c, 9, 54, 80
11, 115845, Note_off_c, 9, 54, 64
11, 115920, Note_on_c, 9, 54, 64
11, 115925, Note_off_c, 9, 54, 64
11, 116000, Note_on_c, 9, 54, 80
11, 116005, Note_off_c, 9, 54, 64
11, 116080, Note_on_c, 9, 54, 64
11, 116085, Note_off_c, 9, 54, 64
11, 116160, Note_on_c, 9, 43, 100
11, 116160, Note_on_c, 9, 54, 80
11, 116165, Note_off_c, 9, 54, 64
11, 116165, Note_off_c, 9, 43, 64
11, 116240, Note_on_c, 9, 41, 100
11, 116240, Note_on_c, 9, 54, 64
11, 116245, Note_off_c, 9, 54, 64
11, 116245, Note_off_c, 9, 41, 64
11, 116320, Note_on_c, 9, 54, 80
11, 116320, Note_on_c, 9, 43, 100
11, 116325, Note_off_c, 9, 43, 64
11, 116325, Note_off_c, 9, 54, 64
11, 116400, Note_on_c, 9, 54, 64
11, 116400, Note_on_c, 9, 41, 100
11, 116405, Note_off_c, 9, 41, 64
11, 116405, Note_off_c, 9, 54, 64
11, 116480, Note_on_c, 9, 54, 80
11, 116480, Note_on_c, 9, 43, 100
11, 116485, Note_off_c, 9, 43, 64
11, 116485, Note_off_c, 9, 54, 64
11, 116560, Note_on_c, 9, 54, 64
11, 116560, Note_on_c, 9, 41, 100
11, 116565, Note_off_c, 9, 41, 64
11, 116565, Note_off_c, 9, 54, 64
11, 116640, Note_on_c, 9, 48, 100
11, 116640, Note_on_c, 9, 54, 80
11, 116645, Note_off_c, 9, 54, 64
11, 116645, Note_off_c, 9, 48, 64
11, 116720, Note_on_c, 9, 54, 64
11, 116720, Note_on_c, 9, 47, 100
11, 116725, Note_off_c, 9, 47, 64
11, 116725, Note_off_c, 9, 54, 64
11, 116800, Note_on_c, 9, 54, 80
11, 116800, Note_on_c, 9, 48, 100
11, 116805, Note_off_c, 9, 48, 64
11, 116805, Note_off_c, 9, 54, 64
11, 116880, Note_on_c, 9, 47, 100
11, 116880, Note_on_c, 9, 54, 64
11, 116885, Note_off_c, 9, 54, 64
11, 116885, Note_off_c, 9, 47, 64
11, 116960, Note_on_c, 9, 54, 80
11, 116960, Note_on_c, 9, 48, 100
11, 116965, Note_off_c, 9, 48, 64
11, 116965, Note_off_c, 9, 54, 64
11, 117040, Note_on_c, 9, 47, 100
11, 117040, Note_on_c, 9, 54, 64
11, 117045, Note_off_c, 9, 54, 64
11, 117045, Note_off_c, 9, 47, 64
11, 117120, Note_on_c, 9, 49, 100
11, 117120, Note_on_c, 9, 36, 110
11, 117120, Note_on_c, 9, 54, 64
11, 117125, Note_off_c, 9, 54, 64
11, 117125, Note_off_c, 9, 36, 64
11, 117125, Note_off_c, 9, 49, 64
11, 117360, Note_on_c, 9, 54, 64
11, 117360, Note_on_c, 9, 42, 110
11, 117365, Note_off_c, 9, 42, 64
11, 117365, Note_off_c, 9, 54, 64
11, 117600, Note_on_c, 9, 38, 111
11, 117600, Note_on_c, 9, 42, 110
11, 117600, Note_on_c, 9, 54, 117
11, 117605, Note_off_c, 9, 54, 64
11, 117605, Note_off_c, 9, 42, 64
11, 117605, Note_off_c, 9, 38, 64
11, 117840, Note_on_c, 9, 42, 110
11, 117840, Note_on_c, 9, 54, 64
11, 117845, Note_off_c, 9, 54, 64
11, 117845, Note_off_c, 9, 42, 64
11, 118080, Note_on_c, 9, 54, 64
11, 118080, Note_on_c, 9, 36, 110
11, 118080, Note_on_c, 9, 42, 110
11, 118085, Note_off_c, 9, 42, 64
11, 118085, Note_off_c, 9, 36, 64
11, 118085, Note_off_c, 9, 54, 64
11, 118320, Note_on_c, 9, 42, 110
11, 118320, Note_on_c, 9, 54, 64
11, 118320, Note_on_c, 9, 36, 110
11, 118325, Note_off_c, 9, 36, 64
11, 118325, Note_off_c, 9, 54, 64
11, 118325, Note_off_c, 9, 42, 64
11, 118560, Note_on_c, 9, 42, 110
11, 118560, Note_on_c, 9, 54, 117
11, 118560, Note_on_c, 9, 38, 111
11, 118565, Note_off_c, 9, 38, 64
11, 118565, Note_off_c, 9, 54, 64
11, 118565, Note_off_c, 9, 42, 64
11, 118800, Note_on_c, 9, 42, 110
11, 118800, Note_on_c, 9, 54, 64
11, 118805, Note_off_c, 9, 54, 64
11, 118805, Note_off_c, 9, 42, 64
11, 119040, Note_on_c, 9, 42, 110
11, 119040, Note_on_c, 9, 36, 110
11, 119040, Note_on_c, 9, 54, 64
11, 119045, Note_off_c, 9, 54, 64
11, 119045, Note_off_c, 9, 36, 64
11, 119045, Note_off_c, 9, 42, 64
11, 119280, Note_on_c, 9, 36, 110
11, 119280, Note_on_c, 9, 42, 110
11, 119280, Note_on_c, 9, 54, 64
11, 119285, Note_off_c, 9, 54, 64
11, 119285, Note_off_c, 9, 42, 64
11, 119285, Note_off_c, 9, 36, 64
11, 119520, Note_on_c, 9, 42, 110
11, 119520, Note_on_c, 9, 38, 111
11, 119520, Note_on_c, 9, 54, 117
11, 119525, Note_off_c, 9, 54, 64
11, 119525, Note_off_c, 9, 38, 64
11, 119525, Note_off_c, 9, 42, 64
11, 119760, Note_on_c, 9, 42, 110
11, 119760, Note_on_c, 9, 54, 64
11, 119765, Note_off_c, 9, 54, 64
11, 119765, Note_off_c, 9, 42, 64
11, 120000, Note_on_c, 9, 36, 110
11, 120000, Note_on_c, 9, 42, 110
11, 120000, Note_on_c, 9, 54, 64
11, 120005, Note_off_c, 9, 54, 64
11, 120005, Note_off_c, 9, 42, 64
11, 120005, Note_off_c, 9, 36, 64
11, 120240, Note_on_c, 9, 54, 64
11, 120240, Note_on_c, 9, 36, 110
11, 120240, Note_on_c, 9, 42, 110
11, 120245, Note_off_c, 9, 42, 64
11, 120245, Note_off_c, 9, 36, 64
11, 120245, Note_off_c, 9, 54, 64
11, 120480, Note_on_c, 9, 42, 110
11, 120480, Note_on_c, 9, 54, 117
11, 120480, Note_on_c, 9, 38, 111
11, 120485, Note_off_c, 9, 38, 64
11, 120485, Note_off_c, 9, 54, 64
11, 120485, Note_off_c, 9, 42, 64
11, 120720, Note_on_c, 9, 42, 110
11, 120720, Note_on_c, 9, 54, 64
11, 120725, Note_off_c, 9, 54, 64
11, 120725, Note_off_c, 9, 42, 64
11, 120960, Note_on_c, 9, 42, 110
11, 120960, Note_on_c, 9, 54, 64
11, 120960, Note_on_c, 9, 36, 110
11, 120965, Note_off_c, 9, 36, 64
11, 120965, Note_off_c, 9, 54, 64
11, 120965, Note_off_c, 9, 42, 64
11, 121200, Note_on_c, 9, 54, 64
11, 121200, Note_on_c, 9, 42, 110
11, 121200, Note_on_c, 9, 36, 110
11, 121205, Note_off_c, 9, 36, 64
11, 121205, Note_off_c, 9, 42, 64
11, 121205, Note_off_c, 9, 54, 64
11, 121440, Note_on_c, 9, 54, 117
11, 121440, Note_on_c, 9, 42, 110
11, 121440, Note_on_c, 9, 38, 111
11, 121445, Note_off_c, 9, 38, 64
11, 121445, Note_off_c, 9, 42, 64
11, 121445, Note_off_c, 9, 54, 64
11, 121680, Note_on_c, 9, 42, 110
11, 121680, Note_on_c, 9, 54, 64
11, 121685, Note_off_c, 9, 54, 64
11, 121685, Note_off_c, 9, 42, 64
11, 121920, Note_on_c, 9, 42, 110
11, 121920, Note_on_c, 9, 36, 110
11, 121920, Note_on_c, 9, 54, 64
11, 121925, Note_off_c, 9, 54, 64
11, 121925, Note_off_c, 9, 36, 64
11, 121925, Note_off_c, 9, 42, 64
11, 122160, Note_on_c, 9, 36, 110
11, 122160, Note_on_c, 9, 54, 64
11, 122160, Note_on_c, 9, 42, 110
11, 122165, Note_off_c, 9, 42, 64
11, 122165, Note_off_c, 9, 54, 64
11, 122165, Note_off_c, 9, 36, 64
11, 122400, Note_on_c, 9, 42, 110
11, 122400, Note_on_c, 9, 54, 117
11, 122400, Note_on_c, 9, 38, 111
11, 122405, Note_off_c, 9, 38, 64
11, 122405, Note_off_c, 9, 54, 64
11, 122405, Note_off_c, 9, 42, 64
11, 122640, Note_on_c, 9, 54, 64
11, 122640, Note_on_c, 9, 42, 110
11, 122645, Note_off_c, 9, 42, 64
11, 122645, Note_off_c, 9, 54, 64
11, 122880, Note_on_c, 9, 54, 64
11, 122880, Note_on_c, 9, 36, 110
11, 122880, Note_on_c, 9, 42, 110
11, 122885, Note_off_c, 9, 42, 64
11, 122885, Note_off_c, 9, 36, 64
11, 122885, Note_off_c, 9, 54, 64
11, 123120, Note_on_c, 9, 36, 110
11, 123120, Note_on_c, 9, 42, 110
11, 123120, Note_on_c, 9, 54, 64
11, 123125, Note_off_c, 9, 54, 64
11, 123125, Note_off_c, 9, 42, 64
11, 123125, Note_off_c, 9, 36, 64
11, 123360, Note_on_c, 9, 42, 110
11, 123360, Note_on_c, 9, 38, 111
11, 123360, Note_on_c, 9, 54, 117
11, 123365, Note_off_c, 9, 54, 64
11, 123365, Note_off_c, 9, 38, 64
11, 123365, Note_off_c, 9, 42, 64
11, 123600, Note_on_c, 9, 54, 64
11, 123600, Note_on_c, 9, 42, 110
11, 123605, Note_off_c, 9, 42, 64
11, 123605, Note_off_c, 9, 54, 64
11, 123840, Note_on_c, 9, 36, 110
11, 123840, Note_on_c, 9, 42, 110
11, 123840, Note_on_c, 9, 54, 64
11, 123845, Note_off_c, 9, 54, 64
11, 123845, Note_off_c, 9, 42, 64
11, 123845, Note_off_c, 9, 36, 64
11, 124080, Note_on_c, 9, 54, 64
11, 124080, Note_on_c, 9, 42, 110
11, 124080, Note_on_c, 9, 36, 110
11, 124085, Note_off_c, 9, 36, 64
11, 124085, Note_off_c, 9, 42, 64
11, 124085, Note_off_c, 9, 54, 64
11, 124320, Note_on_c, 9, 38, 111
11, 124320, Note_on_c, 9, 54, 117
11, 124320, Note_on_c, 9, 42, 110
11, 124325, Note_off_c, 9, 42, 64
11, 124325, Note_off_c, 9, 54, 64
11, 124325, Note_off_c, 9, 38, 64
11, 124560, Note_on_c, 9, 42, 110
11, 124560, Note_on_c, 9, 54, 64
11, 124565, Note_off_c, 9, 54, 64
11, 124565, Note_off_c, 9, 42, 64
11, 124800, Note_on_c, 9, 36, 110
11, 124800, Note_on_c, 9, 42, 110
11, 124800, Note_on_c, 9, 54, 64
11, 124805, Note_off_c, 9, 54, 64
11, 124805, Note_off_c, 9, 42, 64
11, 124805, Note_off_c, 9, 36, 64
11, 125040, Note_on_c, 9, 54, 64
11, 125040, Note_on_c, 9, 42, 110
11, 125040, Note_on_c, 9, 36, 110
11, 125045, Note_off_c, 9, 36, 64
11, 125045, Note_off_c, 9, 42, 64
11, 125045, Note_off_c, 9, 54, 64
11, 125280, Note_on_c, 9, 38, 111
11, 125280, Note_on_c, 9, 54, 117
11, 125280, Note_on_c, 9, 42, 110
11, 125285, Note_off_c, 9, 42, 64
11, 125285, Note_off_c, 9, 54, 64
11, 125285, Note_off_c, 9, 38, 64
11, 125520, Note_on_c, 9, 54, 64
11, 125520, Note_on_c, 9, 42, 110
11, 125525, Note_off_c, 9, 42, 64
11, 125525, Note_off_c, 9, 54, 64
11, 125760, Note_on_c, 9, 42, 110
11, 125760, Note_on_c, 9, 36, 110
11, 125760, Note_on_c, 9, 54, 64
11, 125765, Note_off_c, 9, 54, 64
11, 125765, Note_off_c, 9, 36, 64
11, 125765, Note_off_c, 9, 42, 64
11, 126000, Note_on_c, 9, 36, 110
11, 126000, Note_on_c, 9, 54, 64
11, 126000, Note_on_c, 9, 42, 110
11, 126005, Note_off_c, 9, 42, 64
11, 126005, Note_off_c, 9, 54, 64
11, 126005, Note_off_c, 9, 36, 64
11, 126240, Note_on_c, 9, 42, 110
11, 126240, Note_on_c, 9, 54, 117
11, 126240, Note_on_c, 9, 38, 111
11, 126245, Note_off_c, 9, 38, 64
11, 126245, Note_off_c, 9, 54, 64
11, 126245, Note_off_c, 9, 42, 64
11, 126480, Note_on_c, 9, 42, 110
11, 126480, Note_on_c, 9, 54, 64
11, 126485, Note_off_c, 9, 54, 64
11, 126485, Note_off_c, 9, 42, 64
11, 126720, Note_on_c, 9, 36, 110
11, 126720, Note_on_c, 9, 54, 64
11, 126720, Note_on_c, 9, 42, 110
11, 126725, Note_off_c, 9, 42, 64
11, 126725, Note_off_c, 9, 54, 64
11, 126725, Note_off_c, 9, 36, 64
11, 126960, Note_on_c, 9, 54, 64
11, 126960, Note_on_c, 9, 42, 110
11, 126960, Note_on_c, 9, 36, 110
11, 126965, Note_off_c, 9, 36, 64
11, 126965, Note_off_c, 9, 42, 64
11, 126965, Note_off_c, 9, 54, 64
11, 127200, Note_on_c, 9, 42, 110
11, 127200, Note_on_c, 9, 54, 117
11, 127200, Note_on_c, 9, 38, 111
11, 127205, Note_off_c, 9, 38, 64
11, 127205, Note_off_c, 9, 54, 64
11, 127205, Note_off_c, 9, 42, 64
11, 127440, Note_on_c, 9, 42, 110
11, 127440, Note_on_c, 9, 54, 64
11, 127445, Note_off_c, 9, 54, 64
11, 127445, Note_off_c, 9, 42, 64
11, 127680, Note_on_c, 9, 36, 110
11, 127680, Note_on_c, 9, 54, 64
11, 127680, Note_on_c, 9, 42, 110
11, 127685, Note_off_c, 9, 42, 64
11, 127685, Note_off_c, 9, 54, 64
11, 127685, Note_off_c, 9, 36, 64
11, 127920, Note_on_c, 9, 36, 110
11, 127920, Note_on_c, 9, 42, 110
11, 127920, Note_on_c, 9, 54, 64
11, 127925, Note_off_c, 9, 54, 64
11, 127925, Note_off_c, 9, 42, 64
11, 127925, Note_off_c, 9, 36, 64
11, 128160, Note_on_c, 9, 38, 111
11, 128160, Note_on_c, 9, 42, 110
11, 128160, Note_on_c, 9, 54, 117
11, 128165, Note_off_c, 9, 54, 64
11, 128165, Note_off_c, 9, 42, 64
11, 128165, Note_off_c, 9, 38, 64
11, 128400, Note_on_c, 9, 42, 110
11, 128400, Note_on_c, 9, 54, 64
11, 128405, Note_off_c, 9, 54, 64
11, 128405, Note_off_c, 9, 42, 64
11, 128640, Note_on_c, 9, 36, 110
11, 128640, Note_on_c, 9, 54, 64
11, 128640, Note_on_c, 9, 42, 110
11, 128645, Note_off_c, 9, 42, 64
11, 128645, Note_off_c, 9, 54, 64
11, 128645, Note_off_c, 9, 36, 64
11, 128880, Note_on_c, 9, 42, 110
11, 128880, Note_on_c, 9, 54, 64
11, 128880, Note_on_c, 9, 36, 110
11, 128885, Note_off_c, 9, 36, 64
11, 128885, Note_off_c, 9, 54, 64
11, 128885, Note_off_c, 9, 42, 64
11, 129120, Note_on_c, 9, 54, 117
11, 129120, Note_on_c, 9, 38, 111
11, 129120, Note_on_c, 9, 42, 110
11, 129125, Note_off_c, 9, 42, 64
11, 129125, Note_off_c, 9, 38, 64
11, 129125, Note_off_c, 9, 54, 64
11, 129360, Note_on_c, 9, 54, 64
11, 129360, Note_on_c, 9, 42, 110
11, 129365, Note_off_c, 9, 42, 64
11, 129365, Note_off_c, 9, 54, 64
11, 129600, Note_on_c, 9, 42, 110
11, 129600, Note_on_c, 9, 36, 110
11, 129600, Note_on_c, 9, 54, 64
11, 129605, Note_off_c, 9, 54, 64
11, 129605, Note_off_c, 9, 36, 64
11, 129605, Note_off_c, 9, 42, 64
11, 129840, Note_on_c, 9, 42, 110
11, 129840, Note_on_c, 9, 54, 64
11, 129840, Note_on_c, 9, 36, 110
11, 129845, Note_off_c, 9, 36, 64
11, 129845, Note_off_c, 9, 54, 64
11, 129845, Note_off_c, 9, 42, 64
11, 130080, Note_on_c, 9, 54, 117
11, 130080, Note_on_c, 9, 38, 111
11, 130080, Note_on_c, 9, 42, 110
11, 130085, Note_off_c, 9, 42, 64
11, 130085, Note_off_c, 9, 38, 64
11, 130085, Note_off_c, 9, 54, 64
11, 130320, Note_on_c, 9, 42, 110
11, 130320, Note_on_c, 9, 54, 64
11, 130325, Note_off_c, 9, 54, 64
11, 130325, Note_off_c, 9, 42, 64
11, 130560, Note_on_c, 9, 36, 110
11, 130560, Note_on_c, 9, 42, 110
11, 130560, Note_on_c, 9, 54, 64
11, 130565, Note_off_c, 9, 54, 64
11, 130565, Note_off_c, 9, 42, 64
11, 130565, Note_off_c, 9, 36, 64
11, 130800, Note_on_c, 9, 36, 110
11, 130800, Note_on_c, 9, 42, 110
11, 130800, Note_on_c, 9, 54, 64
11, 130805, Note_off_c, 9, 54, 64
11, 130805, Note_off_c, 9, 42, 64
11, 130805, Note_off_c, 9, 36, 64
11, 131040, Note_on_c, 9, 38, 111
11, 131040, Note_on_c, 9, 54, 117
11, 131040, Note_on_c, 9, 42, 110
11, 131045, Note_off_c, 9, 42, 64
11, 131045, Note_off_c, 9, 54, 64
11, 131045, Note_off_c, 9, 38, 64
11, 131280, Note_on_c, 9, 54, 64
11, 131280, Note_on_c, 9, 42, 110
11, 131285, Note_off_c, 9, 42, 64
11, 131285, Note_off_c, 9, 54, 64
11, 131520, Note_on_c, 9, 42, 110
11, 131520, Note_on_c, 9, 54, 64
11, 131520, Note_on_c, 9, 36, 110
11, 131525, Note_off_c, 9, 36, 64
11, 131525, Note_off_c, 9, 54, 64
11, 131525, Note_off_c, 9, 42, 64
11, 131760, Note_on_c, 9, 42, 110
11, 131760, Note_on_c, 9, 36, 110
11, 131760, Note_on_c, 9, 54, 64
11, 131765, Note_off_c, 9, 54, 64
11, 131765, Note_off_c, 9, 36, 64
11, 131765, Note_off_c, 9, 42, 64
11, 132000, Note_on_c, 9, 38, 111
11, 132000, Note_on_c, 9, 54, 117
11, 132000, Note_on_c, 9, 42, 110
11, 132005, Note_off_c, 9, 42, 64
11, 132005, Note_off_c, 9, 54, 64
11, 132005, Note_off_c, 9, 38, 64
11, 132240, Note_on_c, 9, 42, 110
11, 132240, Note_on_c, 9, 54, 64
11, 132245, Note_off_c, 9, 54, 64
11, 132245, Note_off_c, 9, 42, 64
11, 132480, Note_on_c, 9, 54, 64
11, 132480, Note_on_c, 9, 36, 110
11, 132480, Note_on_c, 9, 42, 110
11, 132485, Note_off_c, 9, 42, 64
11, 132485, Note_off_c, 9, 36, 64
11, 132485, Note_off_c, 9, 54, 64
11, 132720, Note_on_c, 9, 54, 64
11, 132720, Note_on_c, 9, 36, 110
11, 132720, Note_on_c, 9, 42, 110
11, 132725, Note_off_c, 9, 42, 64
11, 132725, Note_off_c, 9, 36, 64
11, 132725, Note_off_c, 9, 54, 64
11, 132960, Note_on_c, 9, 42, 110
11, 132960, Note_on_c, 9, 38, 111
11, 132960, Note_on_c, 9, 54, 117
11, 132965, Note_off_c, 9, 54, 64
11, 132965, Note_off_c, 9, 38, 64
11, 132965, Note_off_c, 9, 42, 64
11, 133200, Note_on_c, 9, 54, 64
11, 133200, Note_on_c, 9, 42, 110
11, 133205, Note_off_c, 9, 42, 64
11, 133205, Note_off_c, 9, 54, 64
11, 133440, Note_on_c, 9, 42, 110
11, 133440, Note_on_c, 9, 54, 64
11, 133440, Note_on_c, 9, 36, 110
11, 133445, Note_off_c, 9, 36, 64
11, 133445, Note_off_c, 9, 54, 64
11, 133445, Note_off_c, 9, 42, 64
11, 133680, Note_on_c, 9, 42, 110
11, 133680, Note_on_c, 9, 54, 64
11, 133680, Note_on_c, 9, 36, 110
11, 133685, Note_off_c, 9, 36, 64
11, 133685, Note_off_c, 9, 54, 64
11, 133685, Note_off_c, 9, 42, 64
11, 133920, Note_on_c, 9, 42, 110
11, 133920, Note_on_c, 9, 54, 117
11, 133920, Note_on_c, 9, 38, 111
11, 133925, Note_off_c, 9, 38, 64
11, 133925, Note_off_c, 9, 54, 64
11, 133925, Note_off_c, 9, 42, 64
11, 134160, Note_on_c, 9, 54, 64
11, 134160, Note_on_c, 9, 42, 110
11, 134165, Note_off_c, 9, 42, 64
11, 134165, Note_off_c, 9, 54, 64
11, 134400, Note_on_c, 9, 36, 110
11, 134400, Note_on_c, 9, 42, 110
11, 134400, Note_on_c, 9, 54, 64
11, 134405, Note_off_c, 9, 54, 64
11, 134405, Note_off_c, 9, 42, 64
11, 134405, Note_off_c, 9, 36, 64
11, 134640, Note_on_c, 9, 54, 64
11, 134640, Note_on_c, 9, 42, 110
11, 134640, Note_on_c, 9, 36, 110
11, 134645, Note_off_c, 9, 36, 64
11, 134645, Note_off_c, 9, 42, 64
11, 134645, Note_off_c, 9, 54, 64
11, 134880, Note_on_c, 9, 38, 111
11, 134880, Note_on_c, 9, 42, 110
11, 134880, Note_on_c, 9, 54, 117
11, 134885, Note_off_c, 9, 54, 64
11, 134885, Note_off_c, 9, 42, 64
11, 134885, Note_off_c, 9, 38, 64
11, 135120, Note_on_c, 9, 42, 110
11, 135120, Note_on_c, 9, 54, 64
11, 135125, Note_off_c, 9, 54, 64
11, 135125, Note_off_c, 9, 42, 64
11, 135360, Note_on_c, 9, 42, 110
11, 135360, Note_on_c, 9, 36, 110
11, 135360, Note_on_c, 9, 54, 64
11, 135365, Note_off_c, 9, 54, 64
11, 135365, Note_off_c, 9, 36, 64
11, 135365, Note_off_c, 9, 42, 64
11, 135600, Note_on_c, 9, 54, 64
11, 135600, Note_on_c, 9, 36, 110
11, 135600, Note_on_c, 9, 42, 110
11, 135605, Note_off_c, 9, 42, 64
11, 135605, Note_off_c, 9, 36, 64
11, 135605, Note_off_c, 9, 54, 64
11, 135840, Note_on_c, 9, 54, 117
11, 135840, Note_on_c, 9, 38, 111
11, 135840, Note_on_c, 9, 42, 110
11, 135845, Note_off_c, 9, 42, 64
11, 135845, Note_off_c, 9, 38, 64
11, 135845, Note_off_c, 9, 54, 64
11, 136080, Note_on_c, 9, 42, 110
11, 136080, Note_on_c, 9, 54, 64
11, 136085, Note_off_c, 9, 54, 64
11, 136085, Note_off_c, 9, 42, 64
11, 136320, Note_on_c, 9, 54, 117
11, 136320, Note_on_c, 9, 36, 110
11, 136320, Note_on_c, 9, 42, 110
11, 136320, Note_on_c, 9, 38, 111
11, 136325, Note_off_c, 9, 38, 64
11, 136325, Note_off_c, 9, 42, 64
11, 136325, Note_off_c, 9, 36, 64
11, 136325, Note_off_c, 9, 54, 64
11, 136560, Note_on_c, 9, 42, 110
11, 136560, Note_on_c, 9, 54, 64
11, 136565, Note_off_c, 9, 54, 64
11, 136565, Note_off_c, 9, 42, 64
11, 136800, Note_on_c, 9, 42, 110
11, 136800, Note_on_c, 9, 54, 117
11, 136800, Note_on_c, 9, 36, 110
11, 136800, Note_on_c, 9, 38, 111
11, 136805, Note_off_c, 9, 38, 64
11, 136805, Note_off_c, 9, 36, 64
11, 136805, Note_off_c, 9, 54, 64
11, 136805, Note_off_c, 9, 42, 64
11, 137040, Note_on_c, 9, 54, 64
11, 137040, Note_on_c, 9, 42, 110
11, 137045, Note_off_c, 9, 42, 64
11, 137045, Note_off_c, 9, 54, 64
11, 137280, Note_on_c, 9, 38, 111
11, 137280, Note_on_c, 9, 54, 117
11, 137280, Note_on_c, 9, 42, 110
11, 137280, Note_on_c, 9, 36, 110
11, 137285, Note_off_c, 9, 36, 64
11, 137285, Note_off_c, 9, 42, 64
11, 137285, Note_off_c, 9, 54, 64
11, 137285, Note_off_c, 9, 38, 64
11, 137520, Note_on_c, 9, 42, 110
11, 137520, Note_on_c, 9, 54, 64
11, 137525, Note_off_c, 9, 54, 64
11, 137525, Note_off_c, 9, 42, 64
11, 137760, Note_on_c, 9, 42, 110
11, 137760, Note_on_c, 9, 36, 110
11, 137760, Note_on_c, 9, 54, 117
11, 137760, Note_on_c, 9, 38, 111
11, 137765, Note_off_c, 9, 38, 64
11, 137765, Note_off_c, 9, 54, 64
11, 137765, Note_off_c, 9, 36, 64
11, 137765, Note_off_c, 9, 42, 64
11, 138000, Note_on_c, 9, 54, 64
11, 138000, Note_on_c, 9, 42, 110
11, 138005, Note_off_c, 9, 42, 64
11, 138005, Note_off_c, 9, 54, 64
11, 138240, Note_on_c, 9, 54, 117
11, 138240, Note_on_c, 9, 42, 110
11, 138240, Note_on_c, 9, 36, 110
11, 138240, Note_on_c, 9, 38, 111
11, 138245, Note_off_c, 9, 38, 64
11, 138245, Note_off_c, 9, 36, 64
11, 138245, Note_off_c, 9, 42, 64
11, 138245, Note_off_c, 9, 54, 64
11, 138480, Note_on_c, 9, 42, 110
11, 138480, Note_on_c, 9, 54, 64
11, 138485, Note_off_c, 9, 54, 64
11, 138485, Note_off_c, 9, 42, 64
11, 138720, Note_on_c, 9, 36, 110
11, 138720, Note_on_c, 9, 42, 110
11, 138720, Note_on_c, 9, 54, 117
11, 138720, Note_on_c, 9, 38, 111
11, 138725, Note_off_c, 9, 38, 64
11, 138725, Note_off_c, 9, 54, 64
11, 138725, Note_off_c, 9, 42, 64
11, 138725, Note_off_c, 9, 36, 64
11, 138960, Note_on_c, 9, 54, 64
11, 138960, Note_on_c, 9, 42, 110
11, 138965, Note_off_c, 9, 42, 64
11, 138965, Note_off_c, 9, 54, 64
11, 139200, Note_on_c, 9, 36, 110
11, 139200, Note_on_c, 9, 54, 117
11, 139200, Note_on_c, 9, 38, 111
11, 139200, Note_on_c, 9, 42, 110
11, 139205, Note_off_c, 9, 42, 64
11, 139205, Note_off_c, 9, 38, 64
11, 139205, Note_off_c, 9, 54, 64
11, 139205, Note_off_c, 9, 36, 64
11, 139440, Note_on_c, 9, 42, 110
11, 139440, Note_on_c, 9, 54, 64
11, 139445, Note_off_c, 9, 54, 64
11, 139445, Note_off_c, 9, 42, 64
11, 139680, Note_on_c, 9, 42, 110
11, 139680, Note_on_c, 9, 36, 110
11, 139680, Note_on_c, 9, 54, 117
11, 139680, Note_on_c, 9, 38, 111
11, 139685, Note_off_c, 9, 38, 64
11, 139685, Note_off_c, 9, 54, 64
11, 139685, Note_off_c, 9, 36, 64
11, 139685, Note_off_c, 9, 42, 64
11, 139920, Note_on_c, 9, 54, 64
11, 139920, Note_on_c, 9, 42, 110
11, 139925, Note_off_c, 9, 42, 64
11, 139925, Note_off_c, 9, 54, 64
11, 140160, Note_on_c, 9, 36, 110
11, 140160, Note_on_c, 9, 42, 110
11, 140160, Note_on_c, 9, 38, 111
11, 140160, Note_on_c, 9, 54, 117
11, 140165, Note_off_c, 9, 54, 64
11, 140165, Note_off_c, 9, 38, 64
11, 140165, Note_off_c, 9, 42, 64
11, 140165, Note_off_c, 9, 36, 64
11, 140400, Note_on_c, 9, 42, 110
11, 140400, Note_on_c, 9, 54, 64
11, 140405, Note_off_c, 9, 54, 64
11, 140405, Note_off_c, 9, 42, 64
11, 140640, Note_on_c, 9, 38, 111
11, 140640, Note_on_c, 9, 42, 110
11, 140640, Note_on_c, 9, 54, 117
11, 140640, Note_on_c, 9, 36, 110
11, 140645, Note_off_c, 9, 36, 64
11, 140645, Note_off_c, 9, 54, 64
11, 140645, Note_off_c, 9, 42, 64
11, 140645, Note_off_c, 9, 38, 64
11, 140880, Note_on_c, 9, 42, 110
11, 140880, Note_on_c, 9, 54, 64
11, 140885, Note_off_c, 9, 54, 64
11, 140885, Note_off_c, 9, 42, 64
11, 141120, Note_on_c, 9, 38, 111
11, 141120, Note_on_c, 9, 54, 117
11, 141120, Note_on_c, 9, 36, 110
11, 141120, Note_on_c, 9, 42, 110
11, 141125, Note_off_c, 9, 42, 64
11, 141125, Note_off_c, 9, 36, 64
11, 141125, Note_off_c, 9, 54, 64
11, 141125, Note_off_c, 9, 38, 64
11, 141360, Note_on_c, 9, 54, 64
11, 141360, Note_on_c, 9, 42, 110
11, 141365, Note_off_c, 9, 42, 64
11, 141365, Note_off_c, 9, 54, 64
11, 141600, Note_on_c, 9, 54, 117
11, 141600, Note_on_c, 9, 42, 110
11, 141600, Note_on_c, 9, 36, 110
11, 141600, Note_on_c, 9, 38, 111
11, 141605, Note_off_c, 9, 38, 64
11, 141605, Note_off_c, 9, 36, 64
11, 141605, Note_off_c, 9, 42, 64
11, 141605, Note_off_c, 9, 54, 64
11, 141840, Note_on_c, 9, 54, 64
11, 141840, Note_on_c, 9, 42, 110
11, 141845, Note_off_c, 9, 42, 64
11, 141845, Note_off_c, 9, 54, 64
11, 142080, Note_on_c, 9, 38, 111
11, 142080, Note_on_c, 9, 42, 110
11, 142080, Note_on_c, 9, 54, 117
11, 142080, Note_on_c, 9, 36, 110
11, 142085, Note_off_c, 9, 36, 64
11, 142085, Note_off_c, 9, 54, 64
11, 142085, Note_off_c, 9, 42, 64
11, 142085, Note_off_c, 9, 38, 64
11, 142320, Note_on_c, 9, 54, 64
11, 142320, Note_on_c, 9, 42, 110
11, 142325, Note_off_c, 9, 42, 64
11, 142325, Note_off_c, 9, 54, 64
11, 142560, Note_on_c, 9, 38, 111
11, 142560, Note_on_c, 9, 36, 110
11, 142560, Note_on_c, 9, 42, 110
11, 142560, Note_on_c, 9, 54, 117
11, 142565, Note_off_c, 9, 54, 64
11, 142565, Note_off_c, 9, 42, 64
11, 142565, Note_off_c, 9, 36, 64
11, 142565, Note_off_c, 9, 38, 64
11, 142800, Note_on_c, 9, 42, 110
11, 142800, Note_on_c, 9, 54, 64
11, 142805, Note_off_c, 9, 54, 64
11, 142805, Note_off_c, 9, 42, 64
11, 143040, Note_on_c, 9, 36, 110
11, 143040, Note_on_c, 9, 42, 110
11, 143040, Note_on_c, 9, 38, 111
11, 143040, Note_on_c, 9, 54, 117
11, 143045, Note_off_c, 9, 54, 64
11, 143045, Note_off_c, 9, 38, 64
11, 143045, Note_off_c, 9, 42, 64
11, 143045, Note_off_c, 9, 36, 64
11, 143280, Note_on_c, 9, 42, 110
11, 143280, Note_on_c, 9, 54, 64
11, 143285, Note_off_c, 9, 54, 64
11, 143285, Note_off_c, 9, 42, 64
11, 143520, Note_on_c, 9, 38, 111
11, 143520, Note_on_c, 9, 54, 117
11, 143520, Note_on_c, 9, 36, 110
11, 143520, Note_on_c, 9, 42, 110
11, 143525, Note_off_c, 9, 42, 64
11, 143525, Note_off_c, 9, 36, 64
11, 143525, Note_off_c, 9, 54, 64
11, 143525, Note_off_c, 9, 38, 64
11, 143760, Note_on_c, 9, 42, 110
11, 143760, Note_on_c, 9, 54, 64
11, 143765, Note_off_c, 9, 54, 64
11, 143765, Note_off_c, 9, 42, 64
11, 144000, Note_on_c, 9, 36, 110
11, 144000, Note_on_c, 9, 54, 117
11, 144000, Note_on_c, 9, 38, 111
11, 144000, Note_on_c, 9, 42, 110
11, 144005, Note_off_c, 9, 42, 64
11, 144005, Note_off_c, 9, 38, 64
11, 144005, Note_off_c, 9, 54, 64
11, 144005, Note_off_c, 9, 36, 64
11, 144240, Note_on_c, 9, 54, 64
11, 144240, Note_on_c, 9, 42, 110
11, 144245, Note_off_c, 9, 42, 64
11, 144245, Note_off_c, 9, 54, 64
11, 144480, Note_on_c, 9, 38, 111
11, 144480, Note_on_c, 9, 36, 110
11, 144480, Note_on_c, 9, 46, 110
11, 144480, Note_on_c, 9, 54, 117
11, 144485, Note_off_c, 9, 54, 64
11, 144485, Note_off_c, 9, 46, 64
11, 144485, Note_off_c, 9, 36, 64
11, 144485, Note_off_c, 9, 38, 64
11, 144600, Note_on_c, 9, 54, 117
11, 144600, Note_on_c, 9, 46, 110
11, 144605, Note_off_c, 9, 46, 64
11, 144605, Note_off_c, 9, 54, 64
11, 144960, Note_on_c, 9, 36, 110
11, 144960, Note_on_c, 9, 42, 110
11, 144960, Note_on_c, 9, 54, 117
11, 144960, Note_on_c, 9, 38, 111
11, 144965, Note_off_c, 9, 38, 64
11, 144965, Note_off_c, 9, 54, 64
11, 144965, Note_off_c, 9, 42, 64
11, 144965, Note_off_c, 9, 36, 64
11, 145200, Note_on_c, 9, 54, 64
11, 145200, Note_on_c, 9, 42, 110
11, 145205, Note_off_c, 9, 42, 64
11, 145205, Note_off_c, 9, 54, 64
11, 145440, Note_on_c, 9, 42, 110
11, 145440, Note_on_c, 9, 54, 117
11, 145440, Note_on_c, 9, 36, 110
11, 145440, Note_on_c, 9, 38, 111
11, 145445, Note_off_c, 9, 38, 64
11, 145445, Note_off_c, 9, 36, 64
11, 145445, Note_off_c, 9, 54, 64
11, 145445, Note_off_c, 9, 42, 64
11, 145680, Note_on_c, 9, 54, 64
11, 145680, Note_on_c, 9, 42, 110
11, 145685, Note_off_c, 9, 42, 64
11, 145685, Note_off_c, 9, 54, 64
11, 145920, Note_on_c, 9, 54, 117
11, 145920, Note_on_c, 9, 36, 110
11, 145920, Note_on_c, 9, 38, 111
11, 145920, Note_on_c, 9, 42, 110
11, 145925, Note_off_c, 9, 42, 64
11, 145925, Note_off_c, 9, 38, 64
11, 145925, Note_off_c, 9, 36, 64
11, 145925, Note_off_c, 9, 54, 64
11, 146160, Note_on_c, 9, 54, 64
11, 146160, Note_on_c, 9, 42, 110
11, 146165, Note_off_c, 9, 42, 64
11, 146165, Note_off_c, 9, 54, 64
11, 146400, Note_on_c, 9, 36, 110
11, 146400, Note_on_c, 9, 46, 110
11, 146400, Note_on_c, 9, 54, 117
11, 146400, Note_on_c, 9, 38, 111
11, 146405, Note_off_c, 9, 38, 64
11, 146405, Note_off_c, 9, 54, 64
11, 146405, Note_off_c, 9, 46, 64
11, 146405, Note_off_c, 9, 36, 64
11, 146520, Note_on_c, 9, 54, 117
11, 146520, Note_on_c, 9, 46, 110
11, 146525, Note_off_c, 9, 46, 64
11, 146525, Note_off_c, 9, 54, 64
11, 146880, Note_on_c, 9, 36, 110
11, 146880, Note_on_c, 9, 42, 110
11, 146880, Note_on_c, 9, 38, 111
11, 146880, Note_on_c, 9, 54, 117
11, 146885, Note_off_c, 9, 54, 64
11, 146885, Note_off_c, 9, 38, 64
11, 146885, Note_off_c, 9, 42, 64
11, 146885, Note_off_c, 9, 36, 64
11, 147120, Note_on_c, 9, 42, 110
11, 147120, Note_on_c, 9, 54, 64
11, 147125, Note_off_c, 9, 54, 64
11, 147125, Note_off_c, 9, 42, 64
11, 147360, Note_on_c, 9, 36, 110
11, 147360, Note_on_c, 9, 38, 111
11, 147360, Note_on_c, 9, 54, 117
11, 147360, Note_on_c, 9, 42, 110
11, 147365, Note_off_c, 9, 42, 64
11, 147365, Note_off_c, 9, 54, 64
11, 147365, Note_off_c, 9, 38, 64
11, 147365, Note_off_c, 9, 36, 64
11, 147600, Note_on_c, 9, 42, 110
11, 147600, Note_on_c, 9, 54, 64
11, 147605, Note_off_c, 9, 54, 64
11, 147605, Note_off_c, 9, 42, 64
11, 147840, Note_on_c, 9, 38, 111
11, 147840, Note_on_c, 9, 54, 117
11, 147840, Note_on_c, 9, 36, 110
11, 147840, Note_on_c, 9, 42, 110
11, 147845, Note_off_c, 9, 42, 64
11, 147845, Note_off_c, 9, 36, 64
11, 147845, Note_off_c, 9, 54, 64
11, 147845, Note_off_c, 9, 38, 64
11, 148080, Note_on_c, 9, 42, 110
11, 148080, Note_on_c, 9, 54, 64
11, 148085, Note_off_c, 9, 54, 64
11, 148085, Note_off_c, 9, 42, 64
11, 148320, Note_on_c, 9, 54, 117
11, 148320, Note_on_c, 9, 38, 111
11, 148320, Note_on_c, 9, 42, 110
11, 148320, Note_on_c, 9, 36, 110
11, 148325, Note_off_c, 9, 36, 64
11, 148325, Note_off_c, 9, 42, 64
11, 148325, Note_off_c, 9, 38, 64
11, 148325, Note_off_c, 9, 54, 64
11, 148560, Note_on_c, 9, 42, 110
11, 148560, Note_on_c, 9, 54, 64
11, 148565, Note_off_c, 9, 54, 64
11, 148565, Note_off_c, 9, 42, 64
11, 148800, Note_on_c, 9, 36, 110
11, 148800, Note_on_c, 9, 42, 110
11, 148800, Note_on_c, 9, 54, 117
11, 148800, Note_on_c, 9, 38, 111
11, 148805, Note_off_c, 9, 38, 64
11, 148805, Note_off_c, 9, 54, 64
11, 148805, Note_off_c, 9, 42, 64
11, 148805, Note_off_c, 9, 36, 64
11, 149040, Note_on_c, 9, 42, 110
11, 149040, Note_on_c, 9, 54, 64
11, 149045, Note_off_c, 9, 54, 64
11, 149045, Note_off_c, 9, 42, 64
11, 149280, Note_on_c, 9, 42, 110
11, 149280, Note_on_c, 9, 54, 117
11, 149280, Note_on_c, 9, 36, 110
11, 149280, Note_on_c, 9, 38, 111
11, 149285, Note_off_c, 9, 38, 64
11, 149285, Note_off_c, 9, 36, 64
11, 149285, Note_off_c, 9, 54, 64
11, 149285, Note_off_c, 9, 42, 64
11, 149520, Note_on_c, 9, 42, 110
11, 149520, Note_on_c, 9, 54, 64
11, 149525, Note_off_c, 9, 54, 64
11, 149525, Note_off_c, 9, 42, 64
11, 149760, Note_on_c, 9, 54, 117
11, 149760, Note_on_c, 9, 42, 110
11, 149760, Note_on_c, 9, 36, 110
11, 149760, Note_on_c, 9, 38, 111
11, 149765, Note_off_c, 9, 38, 64
11, 149765, Note_off_c, 9, 36, 64
11, 149765, Note_off_c, 9, 42, 64
11, 149765, Note_off_c, 9, 54, 64
11, 150000, Note_on_c, 9, 54, 64
11, 150000, Note_on_c, 9, 42, 110
11, 150005, Note_off_c, 9, 42, 64
11, 150005, Note_off_c, 9, 54, 64
11, 150240, Note_on_c, 9, 36, 110
11, 150240, Note_on_c, 9, 54, 117
11, 150240, Note_on_c, 9, 38, 111
11, 150240, Note_on_c, 9, 42, 110
11, 150245, Note_off_c, 9, 42, 64
11, 150245, Note_off_c, 9, 38, 64
11, 150245, Note_off_c, 9, 54, 64
11, 150245, Note_off_c, 9, 36, 64
11, 150480, Note_on_c, 9, 42, 110
11, 150480, Note_on_c, 9, 54, 64
11, 150485, Note_off_c, 9, 54, 64
11, 150485, Note_off_c, 9, 42, 64
11, 150720, Note_on_c, 9, 36, 110
11, 150720, Note_on_c, 9, 54, 117
11, 150720, Note_on_c, 9, 38, 111
11, 150720, Note_on_c, 9, 42, 110
11, 150725, Note_off_c, 9, 42, 64
11, 150725, Note_off_c, 9, 38, 64
11, 150725, Note_off_c, 9, 54, 64
11, 150725, Note_off_c, 9, 36, 64
11, 150960, Note_on_c, 9, 54, 64
11, 150960, Note_on_c, 9, 42, 110
11, 150965, Note_off_c, 9, 42, 64
11, 150965, Note_off_c, 9, 54, 64
11, 151200, Note_on_c, 9, 42, 110
11, 151200, Note_on_c, 9, 38, 111
11, 151200, Note_on_c, 9, 36, 110
11, 151200, Note_on_c, 9, 54, 117
11, 151205, Note_off_c, 9, 54, 64
11, 151205, Note_off_c, 9, 36, 64
11, 151205, Note_off_c, 9, 38, 64
11, 151205, Note_off_c, 9, 42, 64
11, 151440, Note_on_c, 9, 42, 110
11, 151440, Note_on_c, 9, 54, 64
11, 151445, Note_off_c, 9, 54, 64
11, 151445, Note_off_c, 9, 42, 64
11, 151680, Note_on_c, 9, 42, 110
11, 151680, Note_on_c, 9, 36, 110
11, 151680, Note_on_c, 9, 54, 117
11, 151685, Note_off_c, 9, 54, 64
11, 151685, Note_off_c, 9, 36, 64
11, 151685, Note_off_c, 9, 42, 64
11, 159360, Note_on_c, 9, 54, 64
11, 159365, Note_off_c, 9, 54, 64
11, 159480, Note_on_c, 9, 54, 64
11, 159485, Note_off_c, 9, 54, 64
11, 159600, Note_on_c, 9, 54, 64
11, 159605, Note_off_c, 9, 54, 64
11, 159720, Note_on_c, 9, 54, 64
11, 159725, Note_off_c, 9, 54, 64
11, 159840, Note_on_c, 9, 54, 117
11, 159845, Note_off_c, 9, 54, 64
11, 160080, Note_on_c, 9, 54, 64
11, 160085, Note_off_c, 9, 54, 64
11, 160200, Note_on_c, 9, 54, 64
11, 160205, Note_off_c, 9, 54, 64
11, 160320, Note_on_c, 9, 54, 64
11, 160325, Note_off_c, 9, 54, 64
11, 160440, Note_on_c, 9, 54, 64
11, 160445, Note_off_c, 9, 54, 64
11, 160560, Note_on_c, 9, 54, 64
11, 160565, Note_off_c, 9, 54, 64
11, 160680, Note_on_c, 9, 54, 64
11, 160685, Note_off_c, 9, 54, 64
11, 160800, Note_on_c, 9, 54, 117
11, 160805, Note_off_c, 9, 54, 64
11, 161040, Note_on_c, 9, 54, 64
11, 161045, Note_off_c, 9, 54, 64
11, 161160, Note_on_c, 9, 54, 64
11, 161165, Note_off_c, 9, 54, 64
11, 161280, Note_on_c, 9, 54, 64
11, 161285, Note_off_c, 9, 54, 64
11, 161400, Note_on_c, 9, 54, 64
11, 161405, Note_off_c, 9, 54, 64
11, 161520, Note_on_c, 9, 54, 64
11, 161525, Note_off_c, 9, 54, 64
11, 161640, Note_on_c, 9, 54, 64
11, 161645, Note_off_c, 9, 54, 64
11, 161760, Note_on_c, 9, 54, 117
11, 161765, Note_off_c, 9, 54, 64
11, 162000, Note_on_c, 9, 54, 64
11, 162005, Note_off_c, 9, 54, 64
11, 162120, Note_on_c, 9, 54, 64
11, 162125, Note_off_c, 9, 54, 64
11, 162240, Note_on_c, 9, 54, 64
11, 162245, Note_off_c, 9, 54, 64
11, 162360, Note_on_c, 9, 54, 64
11, 162365, Note_off_c, 9, 54, 64
11, 162480, Note_on_c, 9, 54, 64
11, 162485, Note_off_c, 9, 54, 64
11, 162600, Note_on_c, 9, 54, 64
11, 162605, Note_off_c, 9, 54, 64
11, 162720, Note_on_c, 9, 54, 117
11, 162725, Note_off_c, 9, 54, 64
11, 162960, Note_on_c, 9, 54, 64
11, 162965, Note_off_c, 9, 54, 64
11, 163080, Note_on_c, 9, 54, 64
11, 163085, Note_off_c, 9, 54, 64
11, 163200, Note_on_c, 9, 54, 64
11, 163205, Note_off_c, 9, 54, 64
11, 163320, Note_on_c, 9, 54, 64
11, 163325, Note_off_c, 9, 54, 64
11, 163440, Note_on_c, 9, 54, 64
11, 163445, Note_off_c, 9, 54, 64
11, 163560, Note_on_c, 9, 54, 64
11, 163565, Note_off_c, 9, 54, 64
11, 163680, Note_on_c, 9, 54, 117
11, 163685, Note_off_c, 9, 54, 64
11, 163920, Note_on_c, 9, 54, 64
11, 163925, Note_off_c, 9, 54, 64
11, 164040, Note_on_c, 9, 54, 64
11, 164045, Note_off_c, 9, 54, 64
11, 164160, Note_on_c, 9, 54, 64
11, 164165, Note_off_c, 9, 54, 64
11, 164280, Note_on_c, 9, 54, 64
11, 164285, Note_off_c, 9, 54, 64
11, 164400, Note_on_c, 9, 54, 64
11, 164405, Note_off_c, 9, 54, 64
11, 164520, Note_on_c, 9, 54, 64
11, 164525, Note_off_c, 9, 54, 64
11, 164640, Note_on_c, 9, 54, 117
11, 164645, Note_off_c, 9, 54, 64
11, 164880, Note_on_c, 9, 54, 64
11, 164885, Note_off_c, 9, 54, 64
11, 165000, Note_on_c, 9, 54, 64
11, 165005, Note_off_c, 9, 54, 64
11, 165120, Note_on_c, 9, 54, 64
11, 165125, Note_off_c, 9, 54, 64
11, 165240, Note_on_c, 9, 54, 64
11, 165245, Note_off_c, 9, 54, 64
11, 165360, Note_on_c, 9, 54, 64
11, 165365, Note_off_c, 9, 54, 64
11, 165480, Note_on_c, 9, 54, 64
11, 165485, Note_off_c, 9, 54, 64
11, 165600, Note_on_c, 9, 54, 117
11, 165605, Note_off_c, 9, 54, 64
11, 165840, Note_on_c, 9, 54, 64
11, 165845, Note_off_c, 9, 54, 64
11, 165960, Note_on_c, 9, 54, 64
11, 165965, Note_off_c, 9, 54, 64
11, 166080, Note_on_c, 9, 54, 64
11, 166080, Note_on_c, 9, 41, 100
11, 166085, Note_off_c, 9, 41, 64
11, 166085, Note_off_c, 9, 54, 64
11, 166160, Note_on_c, 9, 43, 100
11, 166165, Note_off_c, 9, 43, 64
11, 166200, Note_on_c, 9, 54, 64
11, 166205, Note_off_c, 9, 54, 64
11, 166240, Note_on_c, 9, 41, 100
11, 166245, Note_off_c, 9, 41, 64
11, 166320, Note_on_c, 9, 43, 100
11, 166320, Note_on_c, 9, 54, 64
11, 166325, Note_off_c, 9, 54, 64
11, 166325, Note_off_c, 9, 43, 64
11, 166400, Note_on_c, 9, 41, 100
11, 166405, Note_off_c, 9, 41, 64
11, 166440, Note_on_c, 9, 54, 64
11, 166445, Note_off_c, 9, 54, 64
11, 166480, Note_on_c, 9, 41, 100
11, 166485, Note_off_c, 9, 41, 64
11, 166560, Note_on_c, 9, 43, 100
11, 166560, Note_on_c, 9, 54, 117
11, 166565, Note_off_c, 9, 54, 64
11, 166565, Note_off_c, 9, 43, 64
11, 166640, Note_on_c, 9, 41, 100
11, 166645, Note_off_c, 9, 41, 64
11, 166720, Note_on_c, 9, 43, 100
11, 166725, Note_off_c, 9, 43, 64
11, 166800, Note_on_c, 9, 41, 100
11, 166800, Note_on_c, 9, 54, 64
11, 166805, Note_off_c, 9, 54, 64
11, 166805, Note_off_c, 9, 41, 64
11, 166880, Note_on_c, 9, 43, 100
11, 166885, Note_off_c, 9, 43, 64
11, 166920, Note_on_c, 9, 54, 64
11, 166925, Note_off_c, 9, 54, 64
11, 166960, Note_on_c, 9, 41, 100
11, 166965, Note_off_c, 9, 41, 64
11, 167040, Note_on_c, 9, 49, 100
11, 167040, Note_on_c, 9, 54, 64
11, 167040, Note_on_c, 9, 36, 110
11, 167045, Note_off_c, 9, 36, 64
11, 167045, Note_off_c, 9, 54, 64
11, 167045, Note_off_c, 9, 49, 64
11, 167280, Note_on_c, 9, 42, 110
11, 167280, Note_on_c, 9, 54, 64
11, 167285, Note_off_c, 9, 54, 64
11, 167285, Note_off_c, 9, 42, 64
11, 167520, Note_on_c, 9, 42, 110
11, 167520, Note_on_c, 9, 54, 117
11, 167520, Note_on_c, 9, 38, 111
11, 167525, Note_off_c, 9, 38, 64
11, 167525, Note_off_c, 9, 54, 64
11, 167525, Note_off_c, 9, 42, 64
11, 167760, Note_on_c, 9, 54, 64
11, 167760, Note_on_c, 9, 42, 110
11, 167765, Note_off_c, 9, 42, 64
11, 167765, Note_off_c, 9, 54, 64
11, 168000, Note_on_c, 9, 42, 110
11, 168000, Note_on_c, 9, 54, 64
11, 168000, Note_on_c, 9, 36, 110
11, 168005, Note_off_c, 9, 36, 64
11, 168005, Note_off_c, 9, 54, 64
11, 168005, Note_off_c, 9, 42, 64
11, 168240, Note_on_c, 9, 54, 64
11, 168240, Note_on_c, 9, 42, 110
11, 168240, Note_on_c, 9, 36, 110
11, 168245, Note_off_c, 9, 36, 64
11, 168245, Note_off_c, 9, 42, 64
11, 168245, Note_off_c, 9, 54, 64
11, 168480, Note_on_c, 9, 54, 117
11, 168480, Note_on_c, 9, 38, 111
11, 168480, Note_on_c, 9, 42, 110
11, 168485, Note_off_c, 9, 42, 64
11, 168485, Note_off_c, 9, 38, 64
11, 168485, Note_off_c, 9, 54, 64
11, 168720, Note_on_c, 9, 54, 64
11, 168720, Note_on_c, 9, 42, 110
11, 168725, Note_off_c, 9, 42, 64
11, 168725, Note_off_c, 9, 54, 64
11, 168960, Note_on_c, 9, 36, 110
11, 168960, Note_on_c, 9, 54, 64
11, 168960, Note_on_c, 9, 46, 110
11, 168965, Note_off_c, 9, 46, 64
11, 168965, Note_off_c, 9, 54, 64
11, 168965, Note_off_c, 9, 36, 64
11, 169200, Note_on_c, 9, 46, 110
11, 169200, Note_on_c, 9, 54, 64
11, 169205, Note_off_c, 9, 54, 64
11, 169205, Note_off_c, 9, 46, 64
11, 169440, Note_on_c, 9, 38, 111
11, 169440, Note_on_c, 9, 54, 117
11, 169440, Note_on_c, 9, 46, 110
11, 169445, Note_off_c, 9, 46, 64
11, 169445, Note_off_c, 9, 54, 64
11, 169445, Note_off_c, 9, 38, 64
11, 169680, Note_on_c, 9, 54, 64
11, 169680, Note_on_c, 9, 46, 110
11, 169685, Note_off_c, 9, 46, 64
11, 169685, Note_off_c, 9, 54, 64
11, 169920, Note_on_c, 9, 38, 111
11, 169920, Note_on_c, 9, 54, 117
11, 169925, Note_off_c, 9, 54, 64
11, 169925, Note_off_c, 9, 38, 64
11, 170240, Note_on_c, 9, 54, 117
11, 170240, Note_on_c, 9, 47, 117
11, 170240, Note_on_c, 9, 38, 111
11, 170245, Note_off_c, 9, 38, 64
11, 170245, Note_off_c, 9, 47, 64
11, 170245, Note_off_c, 9, 54, 64
11, 170560, Note_on_c, 9, 54, 117
11, 170560, Note_on_c, 9, 38, 111
11, 170565, Note_off_c, 9, 38, 64
11, 170565, Note_off_c, 9, 54, 64
11, 170880, Note_on_c, 9, 54, 64
11, 170880, Note_on_c, 9, 49, 100
11, 170880, Note_on_c, 9, 36, 110
11, 170885, Note_off_c, 9, 36, 64
11, 170885, Note_off_c, 9, 49, 64
11, 170885, Note_off_c, 9, 54, 64
11, 171120, Note_on_c, 9, 46, 110
11, 171120, Note_on_c, 9, 54, 64
11, 171125, Note_off_c, 9, 54, 64
11, 171125, Note_off_c, 9, 46, 64
11, 171360, Note_on_c, 9, 46, 110
11, 171360, Note_on_c, 9, 54, 117
11, 171360, Note_on_c, 9, 38, 111
11, 171365, Note_off_c, 9, 38, 64
11, 171365, Note_off_c, 9, 54, 64
11, 171365, Note_off_c, 9, 46, 64
11, 171600, Note_on_c, 9, 46, 110
11, 171600, Note_on_c, 9, 54, 64
11, 171605, Note_off_c, 9, 54, 64
11, 171605, Note_off_c, 9, 46, 64
11, 171840, Note_on_c, 9, 54, 64
11, 171840, Note_on_c, 9, 36, 110
11, 171840, Note_on_c, 9, 46, 110
11, 171845, Note_off_c, 9, 46, 64
11, 171845, Note_off_c, 9, 36, 64
11, 171845, Note_off_c, 9, 54, 64
11, 172080, Note_on_c, 9, 46, 110
11, 172080, Note_on_c, 9, 54, 64
11, 172080, Note_on_c, 9, 36, 110
11, 172085, Note_off_c, 9, 36, 64
11, 172085, Note_off_c, 9, 54, 64
11, 172085, Note_off_c, 9, 46, 64
11, 172320, Note_on_c, 9, 54, 117
11, 172320, Note_on_c, 9, 38, 111
11, 172320, Note_on_c, 9, 46, 110
11, 172325, Note_off_c, 9, 46, 64
11, 172325, Note_off_c, 9, 38, 64
11, 172325, Note_off_c, 9, 54, 64
11, 172560, Note_on_c, 9, 46, 110
11, 172560, Note_on_c, 9, 36, 110
11, 172560, Note_on_c, 9, 54, 64
11, 172565, Note_off_c, 9, 54, 64
11, 172565, Note_off_c, 9, 36, 64
11, 172565, Note_off_c, 9, 46, 64
11, 172800, Note_on_c, 9, 36, 110
11, 172800, Note_on_c, 9, 46, 110
11, 172800, Note_on_c, 9, 54, 64
11, 172805, Note_off_c, 9, 54, 64
11, 172805, Note_off_c, 9, 46, 64
11, 172805, Note_off_c, 9, 36, 64
11, 173040, Note_on_c, 9, 54, 64
11, 173040, Note_on_c, 9, 46, 110
11, 173045, Note_off_c, 9, 46, 64
11, 173045, Note_off_c, 9, 54, 64
11, 173280, Note_on_c, 9, 54, 117
11, 173280, Note_on_c, 9, 38, 111
11, 173280, Note_on_c, 9, 46, 110
11, 173285, Note_off_c, 9, 46, 64
11, 173285, Note_off_c, 9, 38, 64
11, 173285, Note_off_c, 9, 54, 64
11, 173520, Note_on_c, 9, 54, 64
11, 173520, Note_on_c, 9, 46, 110
11, 173525, Note_off_c, 9, 46, 64
11, 173525, Note_off_c, 9, 54, 64
11, 173760, Note_on_c, 9, 48, 100
11, 173760, Note_on_c, 9, 54, 64
11, 173765, Note_off_c, 9, 54, 64
11, 173765, Note_off_c, 9, 48, 64
11, 173840, Note_on_c, 9, 47, 100
11, 173845, Note_off_c, 9, 47, 64
11, 173920, Note_on_c, 9, 48, 100
11, 173925, Note_off_c, 9, 48, 64
11, 174000, Note_on_c, 9, 47, 100
11, 174000, Note_on_c, 9, 54, 64
11, 174005, Note_off_c, 9, 54, 64
11, 174005, Note_off_c, 9, 47, 64
11, 174080, Note_on_c, 9, 48, 100
11, 174085, Note_off_c, 9, 48, 64
11, 174160, Note_on_c, 9, 47, 100
11, 174165, Note_off_c, 9, 47, 64
11, 174240, Note_on_c, 9, 54, 117
11, 174240, Note_on_c, 9, 38, 111
11, 174245, Note_off_c, 9, 38, 64
11, 174245, Note_off_c, 9, 54, 64
11, 174320, Note_on_c, 9, 38, 111
11, 174325, Note_off_c, 9, 38, 64
11, 174400, Note_on_c, 9, 38, 111
11, 174405, Note_off_c, 9, 38, 64
11, 174480, Note_on_c, 9, 38, 111
11, 174480, Note_on_c, 9, 54, 64
11, 174485, Note_off_c, 9, 54, 64
11, 174485, Note_off_c, 9, 38, 64
11, 174560, Note_on_c, 9, 38, 111
11, 174565, Note_off_c, 9, 38, 64
11, 174640, Note_on_c, 9, 38, 111
11, 174645, Note_off_c, 9, 38, 64
11, 174720, Note_on_c, 9, 49, 100
11, 174720, Note_on_c, 9, 36, 110
11, 174720, Note_on_c, 9, 54, 64
11, 174725, Note_off_c, 9, 54, 64
11, 174725, Note_off_c, 9, 36, 64
11, 174725, Note_off_c, 9, 49, 64
11, 174960, Note_on_c, 9, 54, 64
11, 174960, Note_on_c, 9, 42, 110
11, 174965, Note_off_c, 9, 42, 64
11, 174965, Note_off_c, 9, 54, 64
11, 175200, Note_on_c, 9, 38, 111
11, 175200, Note_on_c, 9, 54, 117
11, 175200, Note_on_c, 9, 42, 110
11, 175205, Note_off_c, 9, 42, 64
11, 175205, Note_off_c, 9, 54, 64
11, 175205, Note_off_c, 9, 38, 64
11, 175440, Note_on_c, 9, 54, 64
11, 175440, Note_on_c, 9, 42, 110
11, 175445, Note_off_c, 9, 42, 64
11, 175445, Note_off_c, 9, 54, 64
11, 175680, Note_on_c, 9, 54, 64
11, 175680, Note_on_c, 9, 36, 110
11, 175680, Note_on_c, 9, 42, 110
11, 175685, Note_off_c, 9, 42, 64
11, 175685, Note_off_c, 9, 36, 64
11, 175685, Note_off_c, 9, 54, 64
11, 175920, Note_on_c, 9, 42, 110
11, 175920, Note_on_c, 9, 36, 110
11, 175920, Note_on_c, 9, 54, 64
11, 175925, Note_off_c, 9, 54, 64
11, 175925, Note_off_c, 9, 36, 64
11, 175925, Note_off_c, 9, 42, 64
11, 176160, Note_on_c, 9, 38, 111
11, 176160, Note_on_c, 9, 42, 110
11, 176160, Note_on_c, 9, 54, 117
11, 176165, Note_off_c, 9, 54, 64
11, 176165, Note_off_c, 9, 42, 64
11, 176165, Note_off_c, 9, 38, 64
11, 176400, Note_on_c, 9, 42, 110
11, 176400, Note_on_c, 9, 54, 64
11, 176405, Note_off_c, 9, 54, 64
11, 176405, Note_off_c, 9, 42, 64
11, 176640, Note_on_c, 9, 46, 110
11, 176640, Note_on_c, 9, 36, 110
11, 176640, Note_on_c, 9, 54, 64
11, 176645, Note_off_c, 9, 54, 64
11, 176645, Note_off_c, 9, 36, 64
11, 176645, Note_off_c, 9, 46, 64
11, 176880, Note_on_c, 9, 54, 64
11, 176880, Note_on_c, 9, 46, 110
11, 176885, Note_off_c, 9, 46, 64
11, 176885, Note_off_c, 9, 54, 64
11, 177120, Note_on_c, 9, 46, 110
11, 177120, Note_on_c, 9, 54, 117
11, 177120, Note_on_c, 9, 38, 111
11, 177125, Note_off_c, 9, 38, 64
11, 177125, Note_off_c, 9, 54, 64
11, 177125, Note_off_c, 9, 46, 64
11, 177360, Note_on_c, 9, 46, 110
11, 177360, Note_on_c, 9, 54, 64
11, 177365, Note_off_c, 9, 54, 64
11, 177365, Note_off_c, 9, 46, 64
11, 177600, Note_on_c, 9, 54, 117
11, 177600, Note_on_c, 9, 38, 111
11, 177605, Note_off_c, 9, 38, 64
11, 177605, Note_off_c, 9, 54, 64
11, 177920, Note_on_c, 9, 54, 117
11, 177920, Note_on_c, 9, 38, 111
11, 177920, Note_on_c, 9, 47, 115
11, 177925, Note_off_c, 9, 47, 64
11, 177925, Note_off_c, 9, 38, 64
11, 177925, Note_off_c, 9, 54, 64
11, 178240, Note_on_c, 9, 54, 117
11, 178240, Note_on_c, 9, 38, 111
11, 178245, Note_off_c, 9, 38, 64
11, 178245, Note_off_c, 9, 54, 64
11, 178560, Note_on_c, 9, 54, 64
11, 178560, Note_on_c, 9, 36, 110
11, 178560, Note_on_c, 9, 49, 100
11, 178565, Note_off_c, 9, 49, 64
11, 178565, Note_off_c, 9, 36, 64
11, 178565, Note_off_c, 9, 54, 64
11, 178800, Note_on_c, 9, 46, 110
11, 178800, Note_on_c, 9, 54, 64
11, 178805, Note_off_c, 9, 54, 64
11, 178805, Note_off_c, 9, 46, 64
11, 179040, Note_on_c, 9, 46, 110
11, 179040, Note_on_c, 9, 38, 111
11, 179040, Note_on_c, 9, 54, 117
11, 179045, Note_off_c, 9, 54, 64
11, 179045, Note_off_c, 9, 38, 64
11, 179045, Note_off_c, 9, 46, 64
11, 179280, Note_on_c, 9, 54, 64
11, 179280, Note_on_c, 9, 46, 110
11, 179285, Note_off_c, 9, 46, 64
11, 179285, Note_off_c, 9, 54, 64
11, 179520, Note_on_c, 9, 36, 110
11, 179520, Note_on_c, 9, 46, 110
11, 179520, Note_on_c, 9, 54, 64
11, 179525, Note_off_c, 9, 54, 64
11, 179525, Note_off_c, 9, 46, 64
11, 179525, Note_off_c, 9, 36, 64
11, 179760, Note_on_c, 9, 54, 64
11, 179760, Note_on_c, 9, 36, 110
11, 179760, Note_on_c, 9, 46, 110
11, 179765, Note_off_c, 9, 46, 64
11, 179765, Note_off_c, 9, 36, 64
11, 179765, Note_off_c, 9, 54, 64
11, 180000, Note_on_c, 9, 38, 111
11, 180000, Note_on_c, 9, 46, 110
11, 180000, Note_on_c, 9, 54, 117
11, 180005, Note_off_c, 9, 54, 64
11, 180005, Note_off_c, 9, 46, 64
11, 180005, Note_off_c, 9, 38, 64
11, 180240, Note_on_c, 9, 54, 64
11, 180240, Note_on_c, 9, 46, 110
11, 180240, Note_on_c, 9, 36, 110
11, 180245, Note_off_c, 9, 36, 64
11, 180245, Note_off_c, 9, 46, 64
11, 180245, Note_off_c, 9, 54, 64
11, 180480, Control_c, 9, 7, 120
11, 180480, Note_on_c, 9, 46, 110
11, 180480, Note_on_c, 9, 36, 110
11, 180480, Note_on_c, 9, 54, 64
11, 180485, Note_off_c, 9, 54, 64
11, 180485, Note_off_c, 9, 36, 64
11, 180485, Note_off_c, 9, 46, 64
11, 180720, Note_on_c, 9, 46, 110
11, 180720, Note_on_c, 9, 54, 64
11, 180725, Note_off_c, 9, 54, 64
11, 180725, Note_off_c, 9, 46, 64
11, 180750, Control_c, 9, 7, 119
11, 180960, Note_on_c, 9, 54, 117
11, 180960, Note_on_c, 9, 46, 110
11, 180960, Note_on_c, 9, 38, 111
11, 180965, Note_off_c, 9, 38, 64
11, 180965, Note_off_c, 9, 46, 64
11, 180965, Note_off_c, 9, 54, 64
11, 181025, Control_c, 9, 7, 118
11, 181200, Note_on_c, 9, 54, 64
11, 181200, Note_on_c, 9, 46, 110
11, 181205, Note_off_c, 9, 46, 64
11, 181205, Note_off_c, 9, 54, 64
11, 181295, Control_c, 9, 7, 117
11, 181440, Note_on_c, 9, 48, 100
11, 181440, Note_on_c, 9, 54, 64
11, 181445, Note_off_c, 9, 54, 64
11, 181445, Note_off_c, 9, 48, 64
11, 181520, Note_on_c, 9, 47, 100
11, 181525, Note_off_c, 9, 47, 64
11, 181570, Control_c, 9, 7, 116
11, 181600, Note_on_c, 9, 48, 100
11, 181605, Note_off_c, 9, 48, 64
11, 181680, Note_on_c, 9, 47, 100
11, 181680, Note_on_c, 9, 54, 64
11, 181685, Note_off_c, 9, 54, 64
11, 181685, Note_off_c, 9, 47, 64
11, 181760, Note_on_c, 9, 48, 100
11, 181765, Note_off_c, 9, 48, 64
11, 181840, Control_c, 9, 7, 115
11, 181840, Note_on_c, 9, 47, 100
11, 181845, Note_off_c, 9, 47, 64
11, 181920, Note_on_c, 9, 38, 111
11, 181920, Note_on_c, 9, 54, 117
11, 181925, Note_off_c, 9, 54, 64
11, 181925, Note_off_c, 9, 38, 64
11, 182000, Note_on_c, 9, 38, 111
11, 182005, Note_off_c, 9, 38, 64
11, 182080, Note_on_c, 9, 38, 111
11, 182085, Note_off_c, 9, 38, 64
11, 182110, Control_c, 9, 7, 114
11, 182160, Note_on_c, 9, 54, 64
11, 182160, Note_on_c, 9, 38, 111
11, 182165, Note_off_c, 9, 38, 64
11, 182165, Note_off_c, 9, 54, 64
11, 182240, Note_on_c, 9, 38, 111
11, 182245, Note_off_c, 9, 38, 64
11, 182320, Note_on_c, 9, 38, 111
11, 182325, Note_off_c, 9, 38, 64
11, 182385, Control_c, 9, 7, 113
11, 182400, Note_on_c, 9, 54, 64
11, 182400, Note_on_c, 9, 36, 110
11, 182400, Note_on_c, 9, 49, 100
11, 182405, Note_off_c, 9, 49, 64
11, 182405, Note_off_c, 9, 36, 64
11, 182405, Note_off_c, 9, 54, 64
11, 182640, Note_on_c, 9, 54, 64
11, 182640, Note_on_c, 9, 42, 110
11, 182645, Note_off_c, 9, 42, 64
11, 182645, Note_off_c, 9, 54, 64
11, 182655, Control_c, 9, 7, 112
11, 182880, Note_on_c, 9, 54, 117
11, 182880, Note_on_c, 9, 42, 110
11, 182880, Note_on_c, 9, 38, 111
11, 182885, Note_off_c, 9, 38, 64
11, 182885, Note_off_c, 9, 42, 64
11, 182885, Note_off_c, 9, 54, 64
11, 182930, Control_c, 9, 7, 111
11, 183120, Note_on_c, 9, 42, 110
11, 183120, Note_on_c, 9, 54, 64
11, 183125, Note_off_c, 9, 54, 64
11, 183125, Note_off_c, 9, 42, 64
11, 183200, Control_c, 9, 7, 110
11, 183360, Note_on_c, 9, 42, 110
11, 183360, Note_on_c, 9, 54, 64
11, 183360, Note_on_c, 9, 36, 110
11, 183365, Note_off_c, 9, 36, 64
11, 183365, Note_off_c, 9, 54, 64
11, 183365, Note_off_c, 9, 42, 64
11, 183470, Control_c, 9, 7, 109
11, 183600, Note_on_c, 9, 42, 110
11, 183600, Note_on_c, 9, 36, 110
11, 183600, Note_on_c, 9, 54, 64
11, 183605, Note_off_c, 9, 54, 64
11, 183605, Note_off_c, 9, 36, 64
11, 183605, Note_off_c, 9, 42, 64
11, 183745, Control_c, 9, 7, 108
11, 183840, Note_on_c, 9, 54, 117
11, 183840, Note_on_c, 9, 42, 110
11, 183840, Note_on_c, 9, 38, 111
11, 183845, Note_off_c, 9, 38, 64
11, 183845, Note_off_c, 9, 42, 64
11, 183845, Note_off_c, 9, 54, 64
11, 184015, Control_c, 9, 7, 107
11, 184080, Note_on_c, 9, 54, 64
11, 184080, Note_on_c, 9, 42, 110
11, 184085, Note_off_c, 9, 42, 64
11, 184085, Note_off_c, 9, 54, 64
11, 184285, Control_c, 9, 7, 106
11, 184320, Note_on_c, 9, 46, 110
11, 184320, Note_on_c, 9, 36, 110
11, 184320, Note_on_c, 9, 54, 64
11, 184325, Note_off_c, 9, 54, 64
11, 184325, Note_off_c, 9, 36, 64
11, 184325, Note_off_c, 9, 46, 64
11, 184560, Control_c, 9, 7, 105
11, 184560, Note_on_c, 9, 46, 110
11, 184560, Note_on_c, 9, 54, 64
11, 184565, Note_off_c, 9, 54, 64
11, 184565, Note_off_c, 9, 46, 64
11, 184800, Note_on_c, 9, 38, 111
11, 184800, Note_on_c, 9, 46, 110
11, 184800, Note_on_c, 9, 54, 117
11, 184805, Note_off_c, 9, 54, 64
11, 184805, Note_off_c, 9, 46, 64
11, 184805, Note_off_c, 9, 38, 64
11, 184830, Control_c, 9, 7, 104
11, 185040, Note_on_c, 9, 46, 110
11, 185040, Note_on_c, 9, 54, 64
11, 185045, Note_off_c, 9, 54, 64
11, 185045, Note_off_c, 9, 46, 64
11, 185105, Control_c, 9, 7, 103
11, 185280, Note_on_c, 9, 54, 117
11, 185280, Note_on_c, 9, 38, 111
11, 185285, Note_off_c, 9, 38, 64
11, 185285, Note_off_c, 9, 54, 64
11, 185375, Control_c, 9, 7, 102
11, 185600, Note_on_c, 9, 54, 117
11, 185600, Note_on_c, 9, 47, 114
11, 185605, Note_off_c, 9, 47, 64
11, 185605, Note_off_c, 9, 54, 64
11, 185645, Control_c, 9, 7, 101
11, 185920, Control_c, 9, 7, 100
11, 185920, Note_on_c, 9, 38, 111
11, 185920, Note_on_c, 9, 54, 117
11, 185925, Note_off_c, 9, 54, 64
11, 185925, Note_off_c, 9, 38, 64
11, 186190, Control_c, 9, 7, 99
11, 186240, Note_on_c, 9, 54, 64
11, 186240, Note_on_c, 9, 49, 100
11, 186240, Note_on_c, 9, 36, 110
11, 186245, Note_off_c, 9, 36, 64
11, 186245, Note_off_c, 9, 49, 64
11, 186245, Note_off_c, 9, 54, 64
11, 186465, Control_c, 9, 7, 98
11, 186480, Note_on_c, 9, 46, 110
11, 186480, Note_on_c, 9, 54, 64
11, 186485, Note_off_c, 9, 54, 64
11, 186485, Note_off_c, 9, 46, 64
11, 186720, Note_on_c, 9, 46, 110
11, 186720, Note_on_c, 9, 54, 117
11, 186720, Note_on_c, 9, 38, 111
11, 186725, Note_off_c, 9, 38, 64
11, 186725, Note_off_c, 9, 54, 64
11, 186725, Note_off_c, 9, 46, 64
11, 186735, Control_c, 9, 7, 97
11, 186960, Note_on_c, 9, 46, 110
11, 186960, Note_on_c, 9, 54, 64
11, 186965, Note_off_c, 9, 54, 64
11, 186965, Note_off_c, 9, 46, 64
11, 187005, Control_c, 9, 7, 96
11, 187200, Note_on_c, 9, 54, 64
11, 187200, Note_on_c, 9, 46, 110
11, 187200, Note_on_c, 9, 36, 110
11, 187205, Note_off_c, 9, 36, 64
11, 187205, Note_off_c, 9, 46, 64
11, 187205, Note_off_c, 9, 54, 64
11, 187280, Control_c, 9, 7, 95
11, 187440, Note_on_c, 9, 36, 110
11, 187440, Note_on_c, 9, 54, 64
11, 187440, Note_on_c, 9, 46, 110
11, 187445, Note_off_c, 9, 46, 64
11, 187445, Note_off_c, 9, 54, 64
11, 187445, Note_off_c, 9, 36, 64
11, 187550, Control_c, 9, 7, 94
11, 187680, Note_on_c, 9, 46, 110
11, 187680, Note_on_c, 9, 54, 117
11, 187680, Note_on_c, 9, 38, 111
11, 187685, Note_off_c, 9, 38, 64
11, 187685, Note_off_c, 9, 54, 64
11, 187685, Note_off_c, 9, 46, 64
11, 187825, Control_c, 9, 7, 93
11, 187920, Note_on_c, 9, 46, 110
11, 187920, Note_on_c, 9, 36, 110
11, 187920, Note_on_c, 9, 54, 64
11, 187925, Note_off_c, 9, 54, 64
11, 187925, Note_off_c, 9, 36, 64
11, 187925, Note_off_c, 9, 46, 64
11, 188095, Control_c, 9, 7, 92
11, 188160, Note_on_c, 9, 36, 110
11, 188160, Note_on_c, 9, 54, 64
11, 188160, Note_on_c, 9, 46, 110
11, 188165, Note_off_c, 9, 46, 64
11, 188165, Note_off_c, 9, 54, 64
11, 188165, Note_off_c, 9, 36, 64
11, 188365, Control_c, 9, 7, 91
11, 188400, Note_on_c, 9, 46, 110
11, 188400, Note_on_c, 9, 54, 64
11, 188405, Note_off_c, 9, 54, 64
11, 188405, Note_off_c, 9, 46, 64
11, 188640, Control_c, 9, 7, 90
11, 188640, Note_on_c, 9, 38, 111
11, 188640, Note_on_c, 9, 54, 117
11, 188640, Note_on_c, 9, 46, 110
11, 188645, Note_off_c, 9, 46, 64
11, 188645, Note_off_c, 9, 54, 64
11, 188645, Note_off_c, 9, 38, 64
11, 188880, Note_on_c, 9, 46, 110
11, 188880, Note_on_c, 9, 54, 64
11, 188885, Note_off_c, 9, 54, 64
11, 188885, Note_off_c, 9, 46, 64
11, 188910, Control_c, 9, 7, 89
11, 189120, Note_on_c, 9, 48, 100
11, 189120, Note_on_c, 9, 54, 64
11, 189125, Note_off_c, 9, 54, 64
11, 189125, Note_off_c, 9, 48, 64
11, 189185, Control_c, 9, 7, 88
11, 189200, Note_on_c, 9, 47, 100
11, 189205, Note_off_c, 9, 47, 64
11, 189280, Note_on_c, 9, 48, 100
11, 189285, Note_off_c, 9, 48, 64
11, 189360, Note_on_c, 9, 47, 100
11, 189360, Note_on_c, 9, 54, 64
11, 189365, Note_off_c, 9, 54, 64
11, 189365, Note_off_c, 9, 47, 64
11, 189440, Note_on_c, 9, 48, 100
11, 189445, Note_off_c, 9, 48, 64
11, 189455, Control_c, 9, 7, 87
11, 189520, Note_on_c, 9, 47, 100
11, 189525, Note_off_c, 9, 47, 64
11, 189600, Note_on_c, 9, 38, 111
11, 189600, Note_on_c, 9, 54, 117
11, 189605, Note_off_c, 9, 54, 64
11, 189605, Note_off_c, 9, 38, 64
11, 189680, Note_on_c, 9, 38, 111
11, 189685, Note_off_c, 9, 38, 64
11, 189725, Control_c, 9, 7, 86
11, 189760, Note_on_c, 9, 38, 111
11, 189765, Note_off_c, 9, 38, 64
11, 189840, Note_on_c, 9, 54, 64
11, 189840, Note_on_c, 9, 38, 111
11, 189845, Note_off_c, 9, 38, 64
11, 189845, Note_off_c, 9, 54, 64
11, 189920, Note_on_c, 9, 38, 111
11, 189925, Note_off_c, 9, 38, 64
11, 190000, Control_c, 9, 7, 85
11, 190000, Note_on_c, 9, 38, 111
11, 190005, Note_off_c, 9, 38, 64
11, 190080, Note_on_c, 9, 49, 100
11, 190080, Note_on_c, 9, 36, 110
11, 190080, Note_on_c, 9, 54, 64
11, 190085, Note_off_c, 9, 54, 64
11, 190085, Note_off_c, 9, 36, 64
11, 190085, Note_off_c, 9, 49, 64
11, 190270, Control_c, 9, 7, 84
11, 190320, Note_on_c, 9, 42, 110
11, 190320, Note_on_c, 9, 54, 64
11, 190325, Note_off_c, 9, 54, 64
11, 190325, Note_off_c, 9, 42, 64
11, 190540, Control_c, 9, 7, 83
11, 190560, Note_on_c, 9, 38, 111
11, 190560, Note_on_c, 9, 54, 117
11, 190560, Note_on_c, 9, 42, 110
11, 190565, Note_off_c, 9, 42, 64
11, 190565, Note_off_c, 9, 54, 64
11, 190565, Note_off_c, 9, 38, 64
11, 190800, Note_on_c, 9, 42, 110
11, 190800, Note_on_c, 9, 54, 64
11, 190805, Note_off_c, 9, 54, 64
11, 190805, Note_off_c, 9, 42, 64
11, 190815, Control_c, 9, 7, 82
11, 191040, Note_on_c, 9, 54, 64
11, 191040, Note_on_c, 9, 42, 110
11, 191040, Note_on_c, 9, 36, 110
11, 191045, Note_off_c, 9, 36, 64
11, 191045, Note_off_c, 9, 42, 64
11, 191045, Note_off_c, 9, 54, 64
11, 191085, Control_c, 9, 7, 81
11, 191280, Note_on_c, 9, 36, 110
11, 191280, Note_on_c, 9, 54, 64
11, 191280, Note_on_c, 9, 42, 110
11, 191285, Note_off_c, 9, 42, 64
11, 191285, Note_off_c, 9, 54, 64
11, 191285, Note_off_c, 9, 36, 64
11, 191360, Control_c, 9, 7, 80
11, 191520, Note_on_c, 9, 54, 117
11, 191520, Note_on_c, 9, 38, 111
11, 191520, Note_on_c, 9, 42, 110
11, 191525, Note_off_c, 9, 42, 64
11, 191525, Note_off_c, 9, 38, 64
11, 191525, Note_off_c, 9, 54, 64
11, 191630, Control_c, 9, 7, 79
11, 191760, Note_on_c, 9, 42, 110
11, 191760, Note_on_c, 9, 54, 64
11, 191765, Note_off_c, 9, 54, 64
11, 191765, Note_off_c, 9, 42, 64
11, 191900, Control_c, 9, 7, 78
11, 192000, Note_on_c, 9, 46, 110
11, 192000, Note_on_c, 9, 36, 110
11, 192000, Note_on_c, 9, 54, 64
11, 192005, Note_off_c, 9, 54, 64
11, 192005, Note_off_c, 9, 36, 64
11, 192005, Note_off_c, 9, 46, 64
11, 192175, Control_c, 9, 7, 77
11, 192240, Note_on_c, 9, 46, 110
11, 192240, Note_on_c, 9, 54, 64
11, 192245, Note_off_c, 9, 54, 64
11, 192245, Note_off_c, 9, 46, 64
11, 192445, Control_c, 9, 7, 76
11, 192480, Note_on_c, 9, 54, 117
11, 192480, Note_on_c, 9, 38, 111
11, 192480, Note_on_c, 9, 46, 110
11, 192485, Note_off_c, 9, 46, 64
11, 192485, Note_off_c, 9, 38, 64
11, 192485, Note_off_c, 9, 54, 64
11, 192720, Control_c, 9, 7, 75
11, 192720, Note_on_c, 9, 46, 110
11, 192720, Note_on_c, 9, 54, 64
11, 192725, Note_off_c, 9, 54, 64
11, 192725, Note_off_c, 9, 46, 64
11, 192960, Note_on_c, 9, 54, 117
11, 192960, Note_on_c, 9, 38, 111
11, 192965, Note_off_c, 9, 38, 64
11, 192965, Note_off_c, 9, 54, 64
11, 192990, Control_c, 9, 7, 74
11, 193260, Control_c, 9, 7, 73
11, 193280, Note_on_c, 9, 47, 114
11, 193280, Note_on_c, 9, 54, 117
11, 193285, Note_off_c, 9, 54, 64
11, 193285, Note_off_c, 9, 47, 64
11, 193535, Control_c, 9, 7, 72
11, 193600, Note_on_c, 9, 38, 111
11, 193600, Note_on_c, 9, 54, 117
11, 193605, Note_off_c, 9, 54, 64
11, 193605, Note_off_c, 9, 38, 64
11, 193805, Control_c, 9, 7, 71
11, 193920, Note_on_c, 9, 49, 100
11, 193920, Note_on_c, 9, 54, 64
11, 193920, Note_on_c, 9, 36, 110
11, 193925, Note_off_c, 9, 36, 64
11, 193925, Note_off_c, 9, 54, 64
11, 193925, Note_off_c, 9, 49, 64
11, 194080, Control_c, 9, 7, 70
11, 194160, Note_on_c, 9, 46, 110
11, 194160, Note_on_c, 9, 54, 64
11, 194165, Note_off_c, 9, 54, 64
11, 194165, Note_off_c, 9, 46, 64
11, 194350, Control_c, 9, 7, 69
11, 194400, Note_on_c, 9, 38, 111
11, 194400, Note_on_c, 9, 54, 117
11, 194400, Note_on_c, 9, 46, 110
11, 194405, Note_off_c, 9, 46, 64
11, 194405, Note_off_c, 9, 54, 64
11, 194405, Note_off_c, 9, 38, 64
11, 194620, Control_c, 9, 7, 68
11, 194640, Note_on_c, 9, 54, 64
11, 194640, Note_on_c, 9, 46, 110
11, 194645, Note_off_c, 9, 46, 64
11, 194645, Note_off_c, 9, 54, 64
11, 194880, Note_on_c, 9, 54, 64
11, 194880, Note_on_c, 9, 36, 110
11, 194880, Note_on_c, 9, 46, 110
11, 194885, Note_off_c, 9, 46, 64
11, 194885, Note_off_c, 9, 36, 64
11, 194885, Note_off_c, 9, 54, 64
11, 194895, Control_c, 9, 7, 67
11, 195120, Note_on_c, 9, 36, 110
11, 195120, Note_on_c, 9, 46, 110
11, 195120, Note_on_c, 9, 54, 64
11, 195125, Note_off_c, 9, 54, 64
11, 195125, Note_off_c, 9, 46, 64
11, 195125, Note_off_c, 9, 36, 64
11, 195165, Control_c, 9, 7, 66
11, 195360, Note_on_c, 9, 38, 111
11, 195360, Note_on_c, 9, 46, 110
11, 195360, Note_on_c, 9, 54, 117
11, 195365, Note_off_c, 9, 54, 64
11, 195365, Note_off_c, 9, 46, 64
11, 195365, Note_off_c, 9, 38, 64
11, 195440, Control_c, 9, 7, 65
11, 195600, Note_on_c, 9, 46, 110
11, 195600, Note_on_c, 9, 54, 64
11, 195600, Note_on_c, 9, 36, 110
11, 195605, Note_off_c, 9, 36, 64
11, 195605, Note_off_c, 9, 54, 64
11, 195605, Note_off_c, 9, 46, 64
11, 195710, Control_c, 9, 7, 64
11, 195840, Note_on_c, 9, 36, 110
11, 195840, Note_on_c, 9, 54, 64
11, 195840, Note_on_c, 9, 46, 110
11, 195845, Note_off_c, 9, 46, 64
11, 195845, Note_off_c, 9, 54, 64
11, 195845, Note_off_c, 9, 36, 64
11, 195980, Control_c, 9, 7, 63
11, 196080, Note_on_c, 9, 54, 64
11, 196080, Note_on_c, 9, 46, 110
11, 196085, Note_off_c, 9, 46, 64
11, 196085, Note_off_c, 9, 54, 64
11, 196255, Control_c, 9, 7, 62
11, 196320, Note_on_c, 9, 54, 117
11, 196320, Note_on_c, 9, 38, 111
11, 196320, Note_on_c, 9, 46, 110
11, 196325, Note_off_c, 9, 46, 64
11, 196325, Note_off_c, 9, 38, 64
11, 196325, Note_off_c, 9, 54, 64
11, 196525, Control_c, 9, 7, 61
11, 196560, Note_on_c, 9, 46, 110
11, 196560, Note_on_c, 9, 54, 64
11, 196565, Note_off_c, 9, 54, 64
11, 196565, Note_off_c, 9, 46, 64
11, 196800, Control_c, 9, 7, 60
11, 196800, Note_on_c, 9, 48, 100
11, 196800, Note_on_c, 9, 54, 64
11, 196805, Note_off_c, 9, 54, 64
11, 196805, Note_off_c, 9, 48, 64
11, 196880, Note_on_c, 9, 47, 100
11, 196885, Note_off_c, 9, 47, 64
11, 196960, Note_on_c, 9, 48, 100
11, 196965, Note_off_c, 9, 48, 64
11, 197040, Note_on_c, 9, 47, 100
11, 197040, Note_on_c, 9, 54, 64
11, 197045, Note_off_c, 9, 54, 64
11, 197045, Note_off_c, 9, 47, 64
11, 197070, Control_c, 9, 7, 59
11, 197120, Note_on_c, 9, 48, 100
11, 197125, Note_off_c, 9, 48, 64
11, 197200, Note_on_c, 9, 47, 100
11, 197205, Note_off_c, 9, 47, 64
11, 197280, Note_on_c, 9, 38, 111
11, 197280, Note_on_c, 9, 54, 117
11, 197285, Note_off_c, 9, 54, 64
11, 197285, Note_off_c, 9, 38, 64
11, 197340, Control_c, 9, 7, 58
11, 197360, Note_on_c, 9, 38, 111
11, 197365, Note_off_c, 9, 38, 64
11, 197440, Note_on_c, 9, 38, 111
11, 197445, Note_off_c, 9, 38, 64
11, 197520, Note_on_c, 9, 38, 111
11, 197520, Note_on_c, 9, 54, 64
11, 197525, Note_off_c, 9, 54, 64
11, 197525, Note_off_c, 9, 38, 64
11, 197600, Note_on_c, 9, 38, 111
11, 197605, Note_off_c, 9, 38, 64
11, 197615, Control_c, 9, 7, 57
11, 197680, Note_on_c, 9, 38, 111
11, 197685, Note_off_c, 9, 38, 64
11, 197760, Note_on_c, 9, 54, 64
11, 197760, Note_on_c, 9, 36, 110
11, 197760, Note_on_c, 9, 49, 100
11, 197765, Note_off_c, 9, 49, 64
11, 197765, Note_off_c, 9, 36, 64
11, 197765, Note_off_c, 9, 54, 64
11, 197885, Control_c, 9, 7, 56
11, 198000, Note_on_c, 9, 54, 64
11, 198000, Note_on_c, 9, 42, 110
11, 198005, Note_off_c, 9, 42, 64
11, 198005, Note_off_c, 9, 54, 64
11, 198155, Control_c, 9, 7, 55
11, 198240, Note_on_c, 9, 54, 117
11, 198240, Note_on_c, 9, 42, 110
11, 198240, Note_on_c, 9, 38, 111
11, 198245, Note_off_c, 9, 38, 64
11, 198245, Note_off_c, 9, 42, 64
11, 198245, Note_off_c, 9, 54, 64
11, 198430, Control_c, 9, 7, 54
11, 198480, Note_on_c, 9, 54, 64
11, 198480, Note_on_c, 9, 42, 110
11, 198485, Note_off_c, 9, 42, 64
11, 198485, Note_off_c, 9, 54, 64
11, 198700, Control_c, 9, 7, 53
11, 198720, Note_on_c, 9, 42, 110
11, 198720, Note_on_c, 9, 54, 64
11, 198720, Note_on_c, 9, 36, 110
11, 198725, Note_off_c, 9, 36, 64
11, 198725, Note_off_c, 9, 54, 64
11, 198725, Note_off_c, 9, 42, 64
11, 198960, Note_on_c, 9, 42, 110
11, 198960, Note_on_c, 9, 36, 110
11, 198960, Note_on_c, 9, 54, 64
11, 198965, Note_off_c, 9, 54, 64
11, 198965, Note_off_c, 9, 36, 64
11, 198965, Note_off_c, 9, 42, 64
11, 198975, Control_c, 9, 7, 52
11, 199200, Note_on_c, 9, 54, 117
11, 199200, Note_on_c, 9, 42, 110
11, 199200, Note_on_c, 9, 38, 111
11, 199205, Note_off_c, 9, 38, 64
11, 199205, Note_off_c, 9, 42, 64
11, 199205, Note_off_c, 9, 54, 64
11, 199245, Control_c, 9, 7, 51
11, 199440, Note_on_c, 9, 42, 110
11, 199440, Note_on_c, 9, 54, 64
11, 199445, Note_off_c, 9, 54, 64
11, 199445, Note_off_c, 9, 42, 64
11, 199515, Control_c, 9, 7, 50
11, 199680, Note_on_c, 9, 54, 64
11, 199680, Note_on_c, 9, 46, 110
11, 199680, Note_on_c, 9, 36, 110
11, 199685, Note_off_c, 9, 36, 64
11, 199685, Note_off_c, 9, 46, 64
11, 199685, Note_off_c, 9, 54, 64
11, 199790, Control_c, 9, 7, 49
11, 199920, Note_on_c, 9, 46, 110
11, 199920, Note_on_c, 9, 54, 64
11, 199925, Note_off_c, 9, 54, 64
11, 199925, Note_off_c, 9, 46, 64
11, 200060, Control_c, 9, 7, 48
11, 200160, Note_on_c, 9, 54, 117
11, 200160, Note_on_c, 9, 46, 110
11, 200160, Note_on_c, 9, 38, 111
11, 200165, Note_off_c, 9, 38, 64
11, 200165, Note_off_c, 9, 46, 64
11, 200165, Note_off_c, 9, 54, 64
11, 200335, Control_c, 9, 7, 47
11, 200400, Note_on_c, 9, 46, 110
11, 200400, Note_on_c, 9, 54, 64
11, 200405, Note_off_c, 9, 54, 64
11, 200405, Note_off_c, 9, 46, 64
11, 200605, Control_c, 9, 7, 46
11, 200640, Note_on_c, 9, 38, 111
11, 200640, Note_on_c, 9, 54, 117
11, 200645, Note_off_c, 9, 54, 64
11, 200645, Note_off_c, 9, 38, 64
11, 200875, Control_c, 9, 7, 45
11, 200960, Note_on_c, 9, 54, 117
11, 200960, Note_on_c, 9, 47, 117
11, 200965, Note_off_c, 9, 47, 64
11, 200965, Note_off_c, 9, 54, 64
11, 201150, Control_c, 9, 7, 44
11, 201280, Note_on_c, 9, 38, 111
11, 201280, Note_on_c, 9, 54, 117
11, 201285, Note_off_c, 9, 54, 64
11, 201285, Note_off_c, 9, 38, 64
11, 201420, Control_c, 9, 7, 43
11, 201600, Note_on_c, 9, 49, 100
11, 201600, Note_on_c, 9, 36, 110
11, 201600, Note_on_c, 9, 54, 64
11, 201605, Note_off_c, 9, 54, 64
11, 201605, Note_off_c, 9, 36, 64
11, 201605, Note_off_c, 9, 49, 64
11, 201695, Control_c, 9, 7, 42
11, 201840, Note_on_c, 9, 46, 110
11, 201840, Note_on_c, 9, 54, 64
11, 201845, Note_off_c, 9, 54, 64
11, 201845, Note_off_c, 9, 46, 64
11, 201965, Control_c, 9, 7, 41
11, 202080, Note_on_c, 9, 38, 111
11, 202080, Note_on_c, 9, 46, 110
11, 202080, Note_on_c, 9, 54, 117
11, 202085, Note_off_c, 9, 54, 64
11, 202085, Note_off_c, 9, 46, 64
11, 202085, Note_off_c, 9, 38, 64
11, 202235, Control_c, 9, 7, 40
11, 202320, Note_on_c, 9, 46, 110
11, 202320, Note_on_c, 9, 54, 64
11, 202325, Note_off_c, 9, 54, 64
11, 202325, Note_off_c, 9, 46, 64
11, 202510, Control_c, 9, 7, 39
11, 202560, Note_on_c, 9, 54, 64
11, 202560, Note_on_c, 9, 36, 110
11, 202560, Note_on_c, 9, 46, 110
11, 202565, Note_off_c, 9, 46, 64
11, 202565, Note_off_c, 9, 36, 64
11, 202565, Note_off_c, 9, 54, 64
11, 202780, Control_c, 9, 7, 38
11, 202800, Note_on_c, 9, 46, 110
11, 202800, Note_on_c, 9, 36, 110
11, 202800, Note_on_c, 9, 54, 64
11, 202805, Note_off_c, 9, 54, 64
11, 202805, Note_off_c, 9, 36, 64
11, 202805, Note_off_c, 9, 46, 64
11, 203040, Note_on_c, 9, 54, 117
11, 203040, Note_on_c, 9, 38, 111
11, 203040, Note_on_c, 9, 46, 110
11, 203045, Note_off_c, 9, 46, 64
11, 203045, Note_off_c, 9, 38, 64
11, 203045, Note_off_c, 9, 54, 64
11, 203055, Control_c, 9, 7, 37
11, 203280, Note_on_c, 9, 36, 110
11, 203280, Note_on_c, 9, 46, 110
11, 203280, Note_on_c, 9, 54, 64
11, 203285, Note_off_c, 9, 54, 64
11, 203285, Note_off_c, 9, 46, 64
11, 203285, Note_off_c, 9, 36, 64
11, 203325, Control_c, 9, 7, 36
11, 203520, Note_on_c, 9, 36, 110
11, 203520, Note_on_c, 9, 54, 64
11, 203520, Note_on_c, 9, 46, 110
11, 203525, Note_off_c, 9, 46, 64
11, 203525, Note_off_c, 9, 54, 64
11, 203525, Note_off_c, 9, 36, 64
11, 203595, Control_c, 9, 7, 35
11, 203760, Note_on_c, 9, 46, 110
11, 203760, Note_on_c, 9, 54, 64
11, 203765, Note_off_c, 9, 54, 64
11, 203765, Note_off_c, 9, 46, 64
11, 203870, Control_c, 9, 7, 34
11, 204000, Note_on_c, 9, 38, 111
11, 204000, Note_on_c, 9, 54, 117
11, 204000, Note_on_c, 9, 46, 110
11, 204005, Note_off_c, 9, 46, 64
11, 204005, Note_off_c, 9, 54, 64
11, 204005, Note_off_c, 9, 38, 64
11, 204140, Control_c, 9, 7, 33
11, 204240, Note_on_c, 9, 54, 64
11, 204240, Note_on_c, 9, 46, 110
11, 204245, Note_off_c, 9, 46, 64
11, 204245, Note_off_c, 9, 54, 64
11, 204410, Control_c, 9, 7, 32
11, 204480, Note_on_c, 9, 48, 100
11, 204480, Note_on_c, 9, 54, 64
11, 204485, Note_off_c, 9, 54, 64
11, 204485, Note_off_c, 9, 48, 64
11, 204560, Note_on_c, 9, 47, 100
11, 204565, Note_off_c, 9, 47, 64
11, 204640, Note_on_c, 9, 48, 100
11, 204645, Note_off_c, 9, 48, 64
11, 204685, Control_c, 9, 7, 31
11, 204720, Note_on_c, 9, 47, 100
11, 204720, Note_on_c, 9, 54, 64
11, 204725, Note_off_c, 9, 54, 64
11, 204725, Note_off_c, 9, 47, 64
11, 204800, Note_on_c, 9, 48, 100
11, 204805, Note_off_c, 9, 48, 64
11, 204880, Note_on_c, 9, 47, 100
11, 204885, Note_off_c, 9, 47, 64
11, 204955, Control_c, 9, 7, 30
11, 204960, Note_on_c, 9, 38, 111
11, 204960, Note_on_c, 9, 54, 117
11, 204965, Note_off_c, 9, 54, 64
11, 204965, Note_off_c, 9, 38, 64
11, 205040, Note_on_c, 9, 38, 111
11, 205045, Note_off_c, 9, 38, 64
11, 205120, Note_on_c, 9, 38, 111
11, 205125, Note_off_c, 9, 38, 64
11, 205200, Note_on_c, 9, 54, 64
11, 205200, Note_on_c, 9, 38, 111
11, 205205, Note_off_c, 9, 38, 64
11, 205205, Note_off_c, 9, 54, 64
11, 205230, Control_c, 9, 7, 29
11, 205280, Note_on_c, 9, 38, 111
11, 205285, Note_off_c, 9, 38, 64
11, 205360, Note_on_c, 9, 38, 111
11, 205365, Note_off_c, 9, 38, 64
11, 205440, Note_on_c, 9, 49, 100
11, 205440, Note_on_c, 9, 36, 110
11, 205440, Note_on_c, 9, 54, 64
11, 205445, Note_off_c, 9, 54, 64
11, 205445, Note_off_c, 9, 36, 64
11, 205445, Note_off_c, 9, 49, 64
11, 205500, Control_c, 9, 7, 28
11, 205680, Note_on_c, 9, 54, 64
11, 205680, Note_on_c, 9, 42, 110
11, 205685, Note_off_c, 9, 42, 64
11, 205685, Note_off_c, 9, 54, 64
11, 205770, Control_c, 9, 7, 27
11, 205920, Note_on_c, 9, 54, 117
11, 205920, Note_on_c, 9, 38, 111
11, 205920, Note_on_c, 9, 42, 110
11, 205925, Note_off_c, 9, 42, 64
11, 205925, Note_off_c, 9, 38, 64
11, 205925, Note_off_c, 9, 54, 64
11, 206045, Control_c, 9, 7, 26
11, 206160, Note_on_c, 9, 42, 110
11, 206160, Note_on_c, 9, 54, 64
11, 206165, Note_off_c, 9, 54, 64
11, 206165, Note_off_c, 9, 42, 64
11, 206315, Control_c, 9, 7, 25
11, 206400, Note_on_c, 9, 36, 110
11, 206400, Note_on_c, 9, 42, 110
11, 206400, Note_on_c, 9, 54, 64
11, 206405, Note_off_c, 9, 54, 64
11, 206405, Note_off_c, 9, 42, 64
11, 206405, Note_off_c, 9, 36, 64
11, 206590, Control_c, 9, 7, 24
11, 206640, Note_on_c, 9, 36, 110
11, 206640, Note_on_c, 9, 42, 110
11, 206640, Note_on_c, 9, 54, 64
11, 206645, Note_off_c, 9, 54, 64
11, 206645, Note_off_c, 9, 42, 64
11, 206645, Note_off_c, 9, 36, 64
11, 206860, Control_c, 9, 7, 23
11, 206880, Note_on_c, 9, 42, 110
11, 206880, Note_on_c, 9, 54, 117
11, 206880, Note_on_c, 9, 38, 111
11, 206885, Note_off_c, 9, 38, 64
11, 206885, Note_off_c, 9, 54, 64
11, 206885, Note_off_c, 9, 42, 64
11, 207120, Note_on_c, 9, 54, 64
11, 207120, Note_on_c, 9, 42, 110
11, 207125, Note_off_c, 9, 42, 64
11, 207125, Note_off_c, 9, 54, 64
11, 207130, Control_c, 9, 7, 22
11, 207360, Note_on_c, 9, 46, 110
11, 207360, Note_on_c, 9, 54, 64
11, 207360, Note_on_c, 9, 36, 110
11, 207365, Note_off_c, 9, 36, 64
11, 207365, Note_off_c, 9, 54, 64
11, 207365, Note_off_c, 9, 46, 64
11, 207405, Control_c, 9, 7, 21
11, 207600, Note_on_c, 9, 54, 64
11, 207600, Note_on_c, 9, 46, 110
11, 207605, Note_off_c, 9, 46, 64
11, 207605, Note_off_c, 9, 54, 64
11, 207675, Control_c, 9, 7, 20
11, 207840, Note_on_c, 9, 46, 110
11, 207840, Note_on_c, 9, 38, 111
11, 207840, Note_on_c, 9, 54, 117
11, 207845, Note_off_c, 9, 54, 64
11, 207845, Note_off_c, 9, 38, 64
11, 207845, Note_off_c, 9, 46, 64
11, 207950, Control_c, 9, 7, 19
11, 208080, Note_on_c, 9, 54, 64
11, 208080, Note_on_c, 9, 46, 110
11, 208085, Note_off_c, 9, 46, 64
11, 208085, Note_off_c, 9, 54, 64
11, 208220, Control_c, 9, 7, 18
11, 208320, Note_on_c, 9, 54, 117
11, 208320, Note_on_c, 9, 38, 111
11, 208325, Note_off_c, 9, 38, 64
11, 208325, Note_off_c, 9, 54, 64
11, 208490, Control_c, 9, 7, 17
11, 208640, Note_on_c, 9, 47, 117
11, 208640, Note_on_c, 9, 54, 117
11, 208645, Note_off_c, 9, 54, 64
11, 208645, Note_off_c, 9, 47, 64
11, 208765, Control_c, 9, 7, 16
11, 208960, Note_on_c, 9, 38, 111
11, 208960, Note_on_c, 9, 54, 117
11, 208965, Note_off_c, 9, 54, 64
11, 208965, Note_off_c, 9, 38, 64
11, 209035, Control_c, 9, 7, 15
11, 209280, Note_on_c, 9, 54, 64
11, 209280, Note_on_c, 9, 49, 100
11, 209280, Note_on_c, 9, 36, 110
11, 209285, Note_off_c, 9, 36, 64
11, 209285, Note_off_c, 9, 49, 64
11, 209285, Note_off_c, 9, 54, 64
11, 209310, Control_c, 9, 7, 14
11, 209520, Note_on_c, 9, 46, 110
11, 209520, Note_on_c, 9, 54, 64
11, 209525, Note_off_c, 9, 54, 64
11, 209525, Note_off_c, 9, 46, 64
11, 209580, Control_c, 9, 7, 13
11, 209760, Note_on_c, 9, 46, 110
11, 209760, Note_on_c, 9, 54, 117
11, 209760, Note_on_c, 9, 38, 111
11, 209765, Note_off_c, 9, 38, 64
11, 209765, Note_off_c, 9, 54, 64
11, 209765, Note_off_c, 9, 46, 64
11, 209850, Control_c, 9, 7, 12
11, 210000, Note_on_c, 9, 46, 110
11, 210000, Note_on_c, 9, 54, 64
11, 210005, Note_off_c, 9, 54, 64
11, 210005, Note_off_c, 9, 46, 64
11, 210125, Control_c, 9, 7, 11
11, 210240, Note_on_c, 9, 36, 110
11, 210240, Note_on_c, 9, 54, 64
11, 210240, Note_on_c, 9, 46, 110
11, 210245, Note_off_c, 9, 46, 64
11, 210245, Note_off_c, 9, 54, 64
11, 210245, Note_off_c, 9, 36, 64
11, 210395, Control_c, 9, 7, 10
11, 210480, Note_on_c, 9, 36, 110
11, 210480, Note_on_c, 9, 46, 110
11, 210480, Note_on_c, 9, 54, 64
11, 210485, Note_off_c, 9, 54, 64
11, 210485, Note_off_c, 9, 46, 64
11, 210485, Note_off_c, 9, 36, 64
11, 210665, Control_c, 9, 7, 9
11, 210720, Note_on_c, 9, 54, 117
11, 210720, Note_on_c, 9, 46, 110
11, 210720, Note_on_c, 9, 38, 111
11, 210725, Note_off_c, 9, 38, 64
11, 210725, Note_off_c, 9, 46, 64
11, 210725, Note_off_c, 9, 54, 64
11, 210940, Control_c, 9, 7, 8
11, 210960, Note_on_c, 9, 46, 110
11, 210960, Note_on_c, 9, 54, 64
11, 210960, Note_on_c, 9, 36, 110
11, 210965, Note_off_c, 9, 36, 64
11, 210965, Note_off_c, 9, 54, 64
11, 210965, Note_off_c, 9, 46, 64
11, 211200, Note_on_c, 9, 54, 64
11, 211200, Note_on_c, 9, 46, 110
11, 211200, Note_on_c, 9, 36, 110
11, 211205, Note_off_c, 9, 36, 64
11, 211205, Note_off_c, 9, 46, 64
11, 211205, Note_off_c, 9, 54, 64
11, 211210, Control_c, 9, 7, 7
11, 211440, Note_on_c, 9, 46, 110
11, 211440, Note_on_c, 9, 54, 64
11, 211445, Note_off_c, 9, 54, 64
11, 211445, Note_off_c, 9, 46, 64
11, 211485, Control_c, 9, 7, 6
11, 211680, Note_on_c, 9, 54, 117
11, 211680, Note_on_c, 9, 46, 110
11, 211680, Note_on_c, 9, 38, 111
11, 211685, Note_off_c, 9, 38, 64
11, 211685, Note_off_c, 9, 46, 64
11, 211685, Note_off_c, 9, 54, 64
11, 211755, Control_c, 9, 7, 5
11, 211920, Note_on_c, 9, 46, 110
11, 211920, Note_on_c, 9, 54, 64
11, 211925, Note_off_c, 9, 54, 64
11, 211925, Note_off_c, 9, 46, 64
11, 212025, Control_c, 9, 7, 4
11, 212160, Note_on_c, 9, 54, 64
11, 212160, Note_on_c, 9, 48, 100
11, 212165, Note_off_c, 9, 48, 64
11, 212165, Note_off_c, 9, 54, 64
11, 212240, Note_on_c, 9, 47, 100
11, 212245, Note_off_c, 9, 47, 64
11, 212300, Control_c, 9, 7, 3
11, 212320, Note_on_c, 9, 48, 100
11, 212325, Note_off_c, 9, 48, 64
11, 212400, Note_on_c, 9, 54, 64
11, 212400, Note_on_c, 9, 47, 100
11, 212405, Note_off_c, 9, 47, 64
11, 212405, Note_off_c, 9, 54, 64
11, 212480, Note_on_c, 9, 48, 100
11, 212485, Note_off_c, 9, 48, 64
11, 212560, Note_on_c, 9, 47, 100
11, 212565, Note_off_c, 9, 47, 64
11, 212570, Control_c, 9, 7, 2
11, 212640, Note_on_c, 9, 54, 117
11, 212640, Note_on_c, 9, 38, 111
11, 212645, Note_off_c, 9, 38, 64
11, 212645, Note_off_c, 9, 54, 64
11, 212720, Note_on_c, 9, 38, 111
11, 212725, Note_off_c, 9, 38, 64
11, 212800, Note_on_c, 9, 38, 111
11, 212805, Note_off_c, 9, 38, 64
11, 212845, Control_c, 9, 7, 1
11, 212880, Note_on_c, 9, 38, 111
11, 212880, Note_on_c, 9, 54, 64
11, 212885, Note_off_c, 9, 54, 64
11, 212885, Note_off_c, 9, 38, 64
11, 212960, Note_on_c, 9, 38, 111
11, 212965, Note_off_c, 9, 38, 64
11, 213040, Note_on_c, 9, 38, 111
11, 213045, Note_off_c, 9, 38, 64
11, 213115, Control_c, 9, 7, 0
11, 213115, End_track
12, 0, Start_track
12, 0, Title_t, "D.W.Barnes"
12, 0, MIDI_port, 0
12, 0, End_track
0, 0, End_of_file
