0, 0, Header, 1, 18, 480
1, 0, Start_track
1, 0, Tempo, 461538
1, 0, Time_signature, 4, 2, 24, 8
1, 0, Key_signature, 0, "major"
1, 0, End_track
2, 0, Start_track
2, 0, Title_t, "drums"
2, 0, MIDI_port, 0
2, 0, Channel_prefix, 9
2, 0, Control_c, 9, 7, 116
2, 0, Control_c, 9, 10, 64
2, 0, Program_c, 9, 1
2, 0, Note_on_c, 9, 44, 100
2, 233, Note_off_c, 9, 44, 80
2, 240, Note_on_c, 9, 44, 100
2, 480, Note_on_c, 9, 42, 100
2, 480, Note_on_c, 9, 75, 100
2, 480, Note_on_c, 9, 75, 100
2, 487, Note_off_c, 9, 44, 80
2, 713, Note_off_c, 9, 42, 80
2, 720, Note_off_c, 9, 75, 80
2, 720, Note_off_c, 9, 75, 80
2, 720, Note_on_c, 9, 42, 100
2, 960, Note_on_c, 9, 44, 100
2, 967, Note_off_c, 9, 42, 80
2, 1200, Note_off_c, 9, 44, 80
2, 1200, Note_on_c, 9, 44, 100
2, 1440, Note_off_c, 9, 44, 80
2, 1440, Note_on_c, 9, 42, 100
2, 1440, Note_on_c, 9, 75, 100
2, 1440, Note_on_c, 9, 75, 100
2, 1673, Note_off_c, 9, 42, 80
2, 1680, Note_off_c, 9, 75, 80
2, 1680, Note_off_c, 9, 75, 80
2, 1680, Note_on_c, 9, 42, 100
2, 1920, Note_off_c, 9, 42, 80
2, 1920, Note_on_c, 9, 44, 100
2, 2153, Note_off_c, 9, 44, 80
2, 2160, Note_on_c, 9, 44, 100
2, 2400, Note_on_c, 9, 42, 100
2, 2400, Note_on_c, 9, 75, 100
2, 2400, Note_on_c, 9, 75, 100
2, 2407, Note_off_c, 9, 44, 80
2, 2633, Note_off_c, 9, 42, 80
2, 2640, Note_off_c, 9, 75, 80
2, 2640, Note_off_c, 9, 75, 80
2, 2640, Note_on_c, 9, 42, 100
2, 2880, Note_on_c, 9, 44, 100
2, 2887, Note_off_c, 9, 42, 80
2, 3120, Note_off_c, 9, 44, 80
2, 3120, Note_on_c, 9, 44, 100
2, 3360, Note_off_c, 9, 44, 80
2, 3360, Note_on_c, 9, 42, 100
2, 3360, Note_on_c, 9, 75, 100
2, 3360, Note_on_c, 9, 75, 100
2, 3593, Note_off_c, 9, 42, 80
2, 3600, Note_off_c, 9, 75, 80
2, 3600, Note_off_c, 9, 75, 80
2, 3600, Note_on_c, 9, 42, 100
2, 3840, Note_off_c, 9, 42, 80
2, 3840, Note_on_c, 9, 44, 100
2, 4073, Note_off_c, 9, 44, 80
2, 4080, Note_on_c, 9, 44, 100
2, 4320, Note_on_c, 9, 42, 100
2, 4320, Note_on_c, 9, 75, 100
2, 4320, Note_on_c, 9, 75, 100
2, 4327, Note_off_c, 9, 44, 80
2, 4553, Note_off_c, 9, 42, 80
2, 4560, Note_off_c, 9, 75, 80
2, 4560, Note_off_c, 9, 75, 80
2, 4560, Note_on_c, 9, 42, 100
2, 4800, Note_on_c, 9, 44, 100
2, 4807, Note_off_c, 9, 42, 80
2, 5040, Note_off_c, 9, 44, 80
2, 5040, Note_on_c, 9, 44, 100
2, 5280, Note_off_c, 9, 44, 80
2, 5280, Note_on_c, 9, 42, 100
2, 5280, Note_on_c, 9, 75, 100
2, 5280, Note_on_c, 9, 75, 100
2, 5513, Note_off_c, 9, 42, 80
2, 5520, Note_off_c, 9, 75, 80
2, 5520, Note_off_c, 9, 75, 80
2, 5520, Note_on_c, 9, 42, 100
2, 5760, Note_off_c, 9, 42, 80
2, 7200, Note_on_c, 9, 47, 50
2, 7320, Note_off_c, 9, 47, 127
2, 7320, Note_on_c, 9, 43, 50
2, 7440, Note_off_c, 9, 43, 80
2, 7440, Note_on_c, 9, 41, 50
2, 7560, Note_off_c, 9, 41, 80
2, 7560, Note_on_c, 9, 43, 50
2, 7680, Note_off_c, 9, 43, 80
2, 7680, Note_on_c, 9, 44, 100
2, 7913, Note_off_c, 9, 44, 80
2, 7920, Note_on_c, 9, 44, 100
2, 8160, Note_on_c, 9, 42, 100
2, 8160, Note_on_c, 9, 75, 100
2, 8160, Note_on_c, 9, 75, 100
2, 8167, Note_off_c, 9, 44, 80
2, 8393, Note_off_c, 9, 42, 80
2, 8400, Note_off_c, 9, 75, 80
2, 8400, Note_off_c, 9, 75, 80
2, 8400, Note_on_c, 9, 42, 100
2, 8640, Note_on_c, 9, 44, 100
2, 8647, Note_off_c, 9, 42, 80
2, 8880, Note_off_c, 9, 44, 80
2, 8880, Note_on_c, 9, 44, 100
2, 9120, Note_off_c, 9, 44, 80
2, 9120, Note_on_c, 9, 42, 100
2, 9120, Note_on_c, 9, 75, 100
2, 9120, Note_on_c, 9, 75, 100
2, 9353, Note_off_c, 9, 42, 80
2, 9360, Note_off_c, 9, 75, 80
2, 9360, Note_off_c, 9, 75, 80
2, 9360, Note_on_c, 9, 42, 100
2, 9600, Note_off_c, 9, 42, 80
2, 9600, Note_on_c, 9, 44, 100
2, 9833, Note_off_c, 9, 44, 80
2, 9840, Note_on_c, 9, 44, 100
2, 10080, Note_on_c, 9, 42, 100
2, 10080, Note_on_c, 9, 75, 100
2, 10080, Note_on_c, 9, 75, 100
2, 10087, Note_off_c, 9, 44, 80
2, 10313, Note_off_c, 9, 42, 80
2, 10320, Note_off_c, 9, 75, 80
2, 10320, Note_off_c, 9, 75, 80
2, 10320, Note_on_c, 9, 42, 100
2, 10560, Note_on_c, 9, 44, 100
2, 10567, Note_off_c, 9, 42, 80
2, 10800, Note_off_c, 9, 44, 80
2, 10800, Note_on_c, 9, 44, 100
2, 11040, Note_off_c, 9, 44, 80
2, 11040, Note_on_c, 9, 42, 100
2, 11040, Note_on_c, 9, 75, 100
2, 11040, Note_on_c, 9, 75, 100
2, 11273, Note_off_c, 9, 42, 80
2, 11280, Note_off_c, 9, 75, 80
2, 11280, Note_off_c, 9, 75, 80
2, 11280, Note_on_c, 9, 42, 100
2, 11520, Note_off_c, 9, 42, 80
2, 11520, Note_on_c, 9, 44, 100
2, 11753, Note_off_c, 9, 44, 80
2, 11760, Note_on_c, 9, 44, 100
2, 12000, Note_on_c, 9, 42, 100
2, 12000, Note_on_c, 9, 75, 100
2, 12000, Note_on_c, 9, 75, 100
2, 12007, Note_off_c, 9, 44, 80
2, 12233, Note_off_c, 9, 42, 80
2, 12240, Note_off_c, 9, 75, 80
2, 12240, Note_off_c, 9, 75, 80
2, 12240, Note_on_c, 9, 42, 100
2, 12480, Note_on_c, 9, 44, 100
2, 12487, Note_off_c, 9, 42, 80
2, 12720, Note_off_c, 9, 44, 80
2, 12720, Note_on_c, 9, 44, 100
2, 12960, Note_off_c, 9, 44, 80
2, 12960, Note_on_c, 9, 42, 100
2, 12960, Note_on_c, 9, 75, 100
2, 12960, Note_on_c, 9, 75, 100
2, 13193, Note_off_c, 9, 42, 80
2, 13200, Note_off_c, 9, 75, 80
2, 13200, Note_off_c, 9, 75, 80
2, 13200, Note_on_c, 9, 42, 100
2, 13440, Note_off_c, 9, 42, 80
2, 13440, Note_on_c, 9, 44, 100
2, 13673, Note_off_c, 9, 44, 80
2, 13680, Note_on_c, 9, 44, 100
2, 13920, Note_on_c, 9, 42, 100
2, 13920, Note_on_c, 9, 75, 100
2, 13920, Note_on_c, 9, 75, 100
2, 13927, Note_off_c, 9, 44, 80
2, 14153, Note_off_c, 9, 42, 80
2, 14160, Note_off_c, 9, 75, 80
2, 14160, Note_off_c, 9, 75, 80
2, 14160, Note_on_c, 9, 42, 100
2, 14400, Note_on_c, 9, 44, 100
2, 14407, Note_off_c, 9, 42, 80
2, 14640, Note_off_c, 9, 44, 80
2, 14640, Note_on_c, 9, 44, 100
2, 14880, Note_off_c, 9, 44, 80
2, 14880, Note_on_c, 9, 42, 100
2, 14880, Note_on_c, 9, 75, 100
2, 14880, Note_on_c, 9, 75, 100
2, 15113, Note_off_c, 9, 42, 80
2, 15120, Note_off_c, 9, 75, 80
2, 15120, Note_off_c, 9, 75, 80
2, 15120, Note_on_c, 9, 42, 100
2, 15360, Note_off_c, 9, 42, 80
2, 15360, Note_on_c, 9, 44, 100
2, 15593, Note_off_c, 9, 44, 80
2, 15600, Note_on_c, 9, 44, 100
2, 15840, Note_on_c, 9, 42, 100
2, 15840, Note_on_c, 9, 75, 100
2, 15840, Note_on_c, 9, 75, 100
2, 15847, Note_off_c, 9, 44, 80
2, 16073, Note_off_c, 9, 42, 80
2, 16080, Note_off_c, 9, 75, 80
2, 16080, Note_off_c, 9, 75, 80
2, 16080, Note_on_c, 9, 42, 100
2, 16320, Note_on_c, 9, 44, 100
2, 16327, Note_off_c, 9, 42, 80
2, 16560, Note_off_c, 9, 44, 80
2, 16560, Note_on_c, 9, 44, 100
2, 16800, Note_off_c, 9, 44, 80
2, 16800, Note_on_c, 9, 42, 100
2, 16800, Note_on_c, 9, 75, 100
2, 16800, Note_on_c, 9, 75, 100
2, 17033, Note_off_c, 9, 42, 80
2, 17040, Note_off_c, 9, 75, 80
2, 17040, Note_off_c, 9, 75, 80
2, 17040, Note_on_c, 9, 42, 100
2, 17280, Note_off_c, 9, 42, 80
2, 17280, Note_on_c, 9, 44, 100
2, 17513, Note_off_c, 9, 44, 80
2, 17520, Note_on_c, 9, 44, 100
2, 17760, Note_on_c, 9, 42, 100
2, 17760, Note_on_c, 9, 75, 100
2, 17760, Note_on_c, 9, 75, 100
2, 17767, Note_off_c, 9, 44, 80
2, 17993, Note_off_c, 9, 42, 80
2, 18000, Note_off_c, 9, 75, 80
2, 18000, Note_off_c, 9, 75, 80
2, 18000, Note_on_c, 9, 42, 100
2, 18240, Note_on_c, 9, 44, 100
2, 18247, Note_off_c, 9, 42, 80
2, 18480, Note_off_c, 9, 44, 80
2, 18480, Note_on_c, 9, 44, 100
2, 18720, Note_off_c, 9, 44, 80
2, 18720, Note_on_c, 9, 42, 100
2, 18720, Note_on_c, 9, 75, 100
2, 18720, Note_on_c, 9, 75, 100
2, 18953, Note_off_c, 9, 42, 80
2, 18960, Note_off_c, 9, 75, 80
2, 18960, Note_off_c, 9, 75, 80
2, 18960, Note_on_c, 9, 42, 100
2, 19200, Note_off_c, 9, 42, 80
2, 19200, Note_on_c, 9, 44, 100
2, 19433, Note_off_c, 9, 44, 80
2, 19440, Note_on_c, 9, 44, 100
2, 19680, Note_on_c, 9, 42, 100
2, 19680, Note_on_c, 9, 75, 100
2, 19680, Note_on_c, 9, 75, 100
2, 19687, Note_off_c, 9, 44, 80
2, 19913, Note_off_c, 9, 42, 80
2, 19920, Note_off_c, 9, 75, 80
2, 19920, Note_off_c, 9, 75, 80
2, 19920, Note_on_c, 9, 42, 100
2, 20160, Note_on_c, 9, 44, 100
2, 20167, Note_off_c, 9, 42, 80
2, 20400, Note_off_c, 9, 44, 80
2, 20400, Note_on_c, 9, 44, 100
2, 20640, Note_off_c, 9, 44, 80
2, 20640, Note_on_c, 9, 42, 100
2, 20640, Note_on_c, 9, 75, 100
2, 20640, Note_on_c, 9, 75, 100
2, 20873, Note_off_c, 9, 42, 80
2, 20880, Note_off_c, 9, 75, 80
2, 20880, Note_off_c, 9, 75, 80
2, 20880, Note_on_c, 9, 42, 100
2, 21120, Note_off_c, 9, 42, 80
2, 21120, Note_on_c, 9, 44, 100
2, 21353, Note_off_c, 9, 44, 80
2, 21360, Note_on_c, 9, 44, 100
2, 21600, Note_on_c, 9, 42, 100
2, 21600, Note_on_c, 9, 75, 100
2, 21600, Note_on_c, 9, 75, 100
2, 21607, Note_off_c, 9, 44, 80
2, 21833, Note_off_c, 9, 42, 80
2, 21840, Note_off_c, 9, 75, 80
2, 21840, Note_off_c, 9, 75, 80
2, 21840, Note_on_c, 9, 42, 100
2, 22080, Note_on_c, 9, 44, 100
2, 22087, Note_off_c, 9, 42, 80
2, 22320, Note_off_c, 9, 44, 80
2, 22320, Note_on_c, 9, 44, 100
2, 22560, Note_off_c, 9, 44, 80
2, 22560, Note_on_c, 9, 42, 100
2, 22560, Note_on_c, 9, 75, 100
2, 22560, Note_on_c, 9, 75, 100
2, 22560, Note_on_c, 9, 47, 50
2, 22680, Note_off_c, 9, 47, 127
2, 22680, Note_on_c, 9, 43, 50
2, 22793, Note_off_c, 9, 42, 80
2, 22800, Note_off_c, 9, 75, 80
2, 22800, Note_off_c, 9, 75, 80
2, 22800, Note_off_c, 9, 43, 80
2, 22800, Note_on_c, 9, 42, 100
2, 22800, Note_on_c, 9, 41, 50
2, 22920, Note_off_c, 9, 41, 80
2, 22920, Note_on_c, 9, 43, 50
2, 23040, Note_off_c, 9, 42, 80
2, 23040, Note_off_c, 9, 43, 80
2, 23040, Note_on_c, 9, 44, 100
2, 23273, Note_off_c, 9, 44, 80
2, 23280, Note_on_c, 9, 44, 100
2, 23520, Note_on_c, 9, 42, 100
2, 23520, Note_on_c, 9, 75, 100
2, 23520, Note_on_c, 9, 75, 100
2, 23527, Note_off_c, 9, 44, 80
2, 23753, Note_off_c, 9, 42, 80
2, 23760, Note_off_c, 9, 75, 80
2, 23760, Note_off_c, 9, 75, 80
2, 23760, Note_on_c, 9, 42, 100
2, 24000, Note_on_c, 9, 44, 100
2, 24007, Note_off_c, 9, 42, 80
2, 24240, Note_off_c, 9, 44, 80
2, 24240, Note_on_c, 9, 44, 100
2, 24480, Note_off_c, 9, 44, 80
2, 24480, Note_on_c, 9, 42, 100
2, 24480, Note_on_c, 9, 75, 100
2, 24480, Note_on_c, 9, 75, 100
2, 24713, Note_off_c, 9, 42, 80
2, 24720, Note_off_c, 9, 75, 80
2, 24720, Note_off_c, 9, 75, 80
2, 24720, Note_on_c, 9, 42, 100
2, 24960, Note_off_c, 9, 42, 80
2, 24960, Note_on_c, 9, 44, 100
2, 25193, Note_off_c, 9, 44, 80
2, 25200, Note_on_c, 9, 44, 100
2, 25440, Note_on_c, 9, 42, 100
2, 25440, Note_on_c, 9, 75, 100
2, 25440, Note_on_c, 9, 75, 100
2, 25447, Note_off_c, 9, 44, 80
2, 25673, Note_off_c, 9, 42, 80
2, 25680, Note_off_c, 9, 75, 80
2, 25680, Note_off_c, 9, 75, 80
2, 25680, Note_on_c, 9, 42, 100
2, 25920, Note_on_c, 9, 44, 100
2, 25927, Note_off_c, 9, 42, 80
2, 26160, Note_off_c, 9, 44, 80
2, 26160, Note_on_c, 9, 44, 100
2, 26400, Note_off_c, 9, 44, 80
2, 26400, Note_on_c, 9, 42, 100
2, 26400, Note_on_c, 9, 75, 100
2, 26400, Note_on_c, 9, 75, 100
2, 26633, Note_off_c, 9, 42, 80
2, 26640, Note_off_c, 9, 75, 80
2, 26640, Note_off_c, 9, 75, 80
2, 26640, Note_on_c, 9, 42, 100
2, 26880, Note_off_c, 9, 42, 80
2, 26880, Note_on_c, 9, 44, 100
2, 27113, Note_off_c, 9, 44, 80
2, 27120, Note_on_c, 9, 44, 100
2, 27360, Note_on_c, 9, 42, 100
2, 27360, Note_on_c, 9, 75, 100
2, 27360, Note_on_c, 9, 75, 100
2, 27367, Note_off_c, 9, 44, 80
2, 27593, Note_off_c, 9, 42, 80
2, 27600, Note_off_c, 9, 75, 80
2, 27600, Note_off_c, 9, 75, 80
2, 27600, Note_on_c, 9, 42, 100
2, 27840, Note_on_c, 9, 44, 100
2, 27847, Note_off_c, 9, 42, 80
2, 28080, Note_off_c, 9, 44, 80
2, 28080, Note_on_c, 9, 44, 100
2, 28320, Note_off_c, 9, 44, 80
2, 28320, Note_on_c, 9, 42, 100
2, 28320, Note_on_c, 9, 75, 100
2, 28320, Note_on_c, 9, 75, 100
2, 28553, Note_off_c, 9, 42, 80
2, 28560, Note_off_c, 9, 75, 80
2, 28560, Note_off_c, 9, 75, 80
2, 28560, Note_on_c, 9, 42, 100
2, 28800, Note_off_c, 9, 42, 80
2, 28800, Note_on_c, 9, 44, 100
2, 29033, Note_off_c, 9, 44, 80
2, 29040, Note_on_c, 9, 44, 100
2, 29280, Note_on_c, 9, 42, 100
2, 29280, Note_on_c, 9, 75, 100
2, 29280, Note_on_c, 9, 75, 100
2, 29287, Note_off_c, 9, 44, 80
2, 29513, Note_off_c, 9, 42, 80
2, 29520, Note_off_c, 9, 75, 80
2, 29520, Note_off_c, 9, 75, 80
2, 29520, Note_on_c, 9, 42, 100
2, 29767, Note_off_c, 9, 42, 80
2, 30720, Note_on_c, 9, 44, 100
2, 30953, Note_off_c, 9, 44, 80
2, 30960, Note_on_c, 9, 44, 100
2, 31200, Note_on_c, 9, 42, 100
2, 31200, Note_on_c, 9, 75, 100
2, 31200, Note_on_c, 9, 75, 100
2, 31207, Note_off_c, 9, 44, 80
2, 31433, Note_off_c, 9, 42, 80
2, 31440, Note_off_c, 9, 75, 80
2, 31440, Note_off_c, 9, 75, 80
2, 31440, Note_on_c, 9, 42, 100
2, 31680, Note_on_c, 9, 44, 100
2, 31687, Note_off_c, 9, 42, 80
2, 31920, Note_off_c, 9, 44, 80
2, 31920, Note_on_c, 9, 44, 100
2, 32160, Note_off_c, 9, 44, 80
2, 32160, Note_on_c, 9, 42, 100
2, 32160, Note_on_c, 9, 75, 100
2, 32160, Note_on_c, 9, 75, 100
2, 32393, Note_off_c, 9, 42, 80
2, 32400, Note_off_c, 9, 75, 80
2, 32400, Note_off_c, 9, 75, 80
2, 32400, Note_on_c, 9, 42, 100
2, 32640, Note_off_c, 9, 42, 80
2, 32640, Note_on_c, 9, 44, 100
2, 32873, Note_off_c, 9, 44, 80
2, 32880, Note_on_c, 9, 44, 100
2, 33120, Note_on_c, 9, 42, 100
2, 33120, Note_on_c, 9, 75, 100
2, 33120, Note_on_c, 9, 75, 100
2, 33127, Note_off_c, 9, 44, 80
2, 33353, Note_off_c, 9, 42, 80
2, 33360, Note_off_c, 9, 75, 80
2, 33360, Note_off_c, 9, 75, 80
2, 33360, Note_on_c, 9, 42, 100
2, 33600, Note_on_c, 9, 44, 100
2, 33607, Note_off_c, 9, 42, 80
2, 33840, Note_off_c, 9, 44, 80
2, 33840, Note_on_c, 9, 44, 100
2, 34080, Note_off_c, 9, 44, 80
2, 34080, Note_on_c, 9, 42, 100
2, 34080, Note_on_c, 9, 75, 100
2, 34080, Note_on_c, 9, 75, 100
2, 34313, Note_off_c, 9, 42, 80
2, 34320, Note_off_c, 9, 75, 80
2, 34320, Note_off_c, 9, 75, 80
2, 34320, Note_on_c, 9, 42, 100
2, 34560, Note_off_c, 9, 42, 80
2, 34560, Note_on_c, 9, 44, 100
2, 34793, Note_off_c, 9, 44, 80
2, 34800, Note_on_c, 9, 44, 100
2, 35040, Note_on_c, 9, 42, 100
2, 35040, Note_on_c, 9, 75, 100
2, 35040, Note_on_c, 9, 75, 100
2, 35047, Note_off_c, 9, 44, 80
2, 35273, Note_off_c, 9, 42, 80
2, 35280, Note_off_c, 9, 75, 80
2, 35280, Note_off_c, 9, 75, 80
2, 35280, Note_on_c, 9, 42, 100
2, 35520, Note_on_c, 9, 44, 100
2, 35527, Note_off_c, 9, 42, 80
2, 35760, Note_off_c, 9, 44, 80
2, 35760, Note_on_c, 9, 44, 100
2, 36000, Note_off_c, 9, 44, 80
2, 36000, Note_on_c, 9, 42, 100
2, 36000, Note_on_c, 9, 75, 100
2, 36000, Note_on_c, 9, 75, 100
2, 36233, Note_off_c, 9, 42, 80
2, 36240, Note_off_c, 9, 75, 80
2, 36240, Note_off_c, 9, 75, 80
2, 36240, Note_on_c, 9, 42, 100
2, 36480, Note_off_c, 9, 42, 80
2, 36480, Note_on_c, 9, 44, 100
2, 36713, Note_off_c, 9, 44, 80
2, 36720, Note_on_c, 9, 44, 100
2, 36960, Note_on_c, 9, 42, 100
2, 36960, Note_on_c, 9, 75, 100
2, 36960, Note_on_c, 9, 75, 100
2, 36967, Note_off_c, 9, 44, 80
2, 37193, Note_off_c, 9, 42, 80
2, 37200, Note_off_c, 9, 75, 80
2, 37200, Note_off_c, 9, 75, 80
2, 37200, Note_on_c, 9, 42, 100
2, 37440, Note_on_c, 9, 44, 100
2, 37447, Note_off_c, 9, 42, 80
2, 37680, Note_off_c, 9, 44, 80
2, 37680, Note_on_c, 9, 44, 100
2, 37920, Note_off_c, 9, 44, 80
2, 37920, Note_on_c, 9, 42, 100
2, 37920, Note_on_c, 9, 75, 100
2, 37920, Note_on_c, 9, 75, 100
2, 38153, Note_off_c, 9, 42, 80
2, 38160, Note_off_c, 9, 75, 80
2, 38160, Note_off_c, 9, 75, 80
2, 38160, Note_on_c, 9, 42, 100
2, 38400, Note_off_c, 9, 42, 80
2, 38400, Note_on_c, 9, 44, 100
2, 38633, Note_off_c, 9, 44, 80
2, 38640, Note_on_c, 9, 44, 100
2, 38880, Note_on_c, 9, 42, 100
2, 38880, Note_on_c, 9, 75, 100
2, 38880, Note_on_c, 9, 75, 100
2, 38887, Note_off_c, 9, 44, 80
2, 39113, Note_off_c, 9, 42, 80
2, 39120, Note_off_c, 9, 75, 80
2, 39120, Note_off_c, 9, 75, 80
2, 39120, Note_on_c, 9, 42, 100
2, 39360, Note_on_c, 9, 44, 100
2, 39367, Note_off_c, 9, 42, 80
2, 39600, Note_off_c, 9, 44, 80
2, 39600, Note_on_c, 9, 44, 100
2, 39840, Note_off_c, 9, 44, 80
2, 39840, Note_on_c, 9, 42, 100
2, 39840, Note_on_c, 9, 75, 100
2, 39840, Note_on_c, 9, 75, 100
2, 40073, Note_off_c, 9, 42, 80
2, 40080, Note_off_c, 9, 75, 80
2, 40080, Note_off_c, 9, 75, 80
2, 40080, Note_on_c, 9, 42, 100
2, 40320, Note_off_c, 9, 42, 80
2, 40320, Note_on_c, 9, 44, 100
2, 40553, Note_off_c, 9, 44, 80
2, 40560, Note_on_c, 9, 44, 100
2, 40800, Note_on_c, 9, 42, 100
2, 40800, Note_on_c, 9, 75, 100
2, 40800, Note_on_c, 9, 75, 100
2, 40807, Note_off_c, 9, 44, 80
2, 41033, Note_off_c, 9, 42, 80
2, 41040, Note_off_c, 9, 75, 80
2, 41040, Note_off_c, 9, 75, 80
2, 41040, Note_on_c, 9, 42, 100
2, 41280, Note_on_c, 9, 44, 100
2, 41287, Note_off_c, 9, 42, 80
2, 41520, Note_off_c, 9, 44, 80
2, 41520, Note_on_c, 9, 44, 100
2, 41760, Note_off_c, 9, 44, 80
2, 41760, Note_on_c, 9, 42, 100
2, 41760, Note_on_c, 9, 75, 100
2, 41760, Note_on_c, 9, 75, 100
2, 41760, Note_on_c, 9, 47, 50
2, 41880, Note_off_c, 9, 47, 127
2, 41880, Note_on_c, 9, 43, 50
2, 41993, Note_off_c, 9, 42, 80
2, 42000, Note_off_c, 9, 75, 80
2, 42000, Note_off_c, 9, 75, 80
2, 42000, Note_off_c, 9, 43, 80
2, 42000, Note_on_c, 9, 42, 100
2, 42000, Note_on_c, 9, 41, 50
2, 42120, Note_off_c, 9, 41, 80
2, 42120, Note_on_c, 9, 43, 50
2, 42240, Note_off_c, 9, 42, 80
2, 42240, Note_off_c, 9, 43, 80
2, 42240, Note_on_c, 9, 44, 100
2, 42473, Note_off_c, 9, 44, 80
2, 42480, Note_on_c, 9, 44, 100
2, 42720, Note_on_c, 9, 42, 100
2, 42720, Note_on_c, 9, 75, 100
2, 42720, Note_on_c, 9, 75, 100
2, 42727, Note_off_c, 9, 44, 80
2, 42953, Note_off_c, 9, 42, 80
2, 42960, Note_off_c, 9, 75, 80
2, 42960, Note_off_c, 9, 75, 80
2, 42960, Note_on_c, 9, 42, 100
2, 43200, Note_on_c, 9, 44, 100
2, 43207, Note_off_c, 9, 42, 80
2, 43440, Note_off_c, 9, 44, 80
2, 43440, Note_on_c, 9, 44, 100
2, 43680, Note_off_c, 9, 44, 80
2, 43680, Note_on_c, 9, 42, 100
2, 43680, Note_on_c, 9, 75, 100
2, 43680, Note_on_c, 9, 75, 100
2, 43913, Note_off_c, 9, 42, 80
2, 43920, Note_off_c, 9, 75, 80
2, 43920, Note_off_c, 9, 75, 80
2, 43920, Note_on_c, 9, 42, 100
2, 44160, Note_off_c, 9, 42, 80
2, 44160, Note_on_c, 9, 44, 100
2, 44393, Note_off_c, 9, 44, 80
2, 44400, Note_on_c, 9, 44, 100
2, 44640, Note_on_c, 9, 42, 100
2, 44640, Note_on_c, 9, 75, 100
2, 44640, Note_on_c, 9, 75, 100
2, 44647, Note_off_c, 9, 44, 80
2, 44873, Note_off_c, 9, 42, 80
2, 44880, Note_off_c, 9, 75, 80
2, 44880, Note_off_c, 9, 75, 80
2, 44880, Note_on_c, 9, 42, 100
2, 45120, Note_on_c, 9, 44, 100
2, 45127, Note_off_c, 9, 42, 80
2, 45360, Note_off_c, 9, 44, 80
2, 45360, Note_on_c, 9, 44, 100
2, 45600, Note_off_c, 9, 44, 80
2, 45600, Note_on_c, 9, 42, 100
2, 45600, Note_on_c, 9, 75, 100
2, 45600, Note_on_c, 9, 75, 100
2, 45600, Note_on_c, 9, 47, 50
2, 45720, Note_off_c, 9, 47, 127
2, 45720, Note_on_c, 9, 43, 50
2, 45833, Note_off_c, 9, 42, 80
2, 45840, Note_off_c, 9, 75, 80
2, 45840, Note_off_c, 9, 75, 80
2, 45840, Note_off_c, 9, 43, 80
2, 45840, Note_on_c, 9, 42, 100
2, 45840, Note_on_c, 9, 41, 50
2, 45960, Note_off_c, 9, 41, 80
2, 45960, Note_on_c, 9, 43, 50
2, 46080, Note_off_c, 9, 42, 80
2, 46080, Note_off_c, 9, 43, 80
2, 49920, Note_on_c, 9, 42, 100
2, 49920, Note_on_c, 9, 35, 100
2, 49920, Note_on_c, 9, 33, 100
2, 50160, Note_off_c, 9, 33, 80
2, 50160, Note_off_c, 9, 35, 80
2, 50160, Note_off_c, 9, 42, 80
2, 50160, Note_on_c, 9, 42, 100
2, 50160, Note_on_c, 9, 35, 100
2, 50160, Note_on_c, 9, 33, 100
2, 50400, Note_off_c, 9, 33, 80
2, 50400, Note_off_c, 9, 35, 80
2, 50400, Note_off_c, 9, 42, 80
2, 50400, Note_on_c, 9, 46, 100
2, 50400, Note_on_c, 9, 40, 100
2, 50400, Note_on_c, 9, 38, 100
2, 50400, Note_on_c, 9, 75, 100
2, 50400, Note_on_c, 9, 75, 100
2, 50640, Note_off_c, 9, 75, 80
2, 50640, Note_off_c, 9, 75, 80
2, 50640, Note_off_c, 9, 38, 80
2, 50640, Note_off_c, 9, 40, 80
2, 50640, Note_off_c, 9, 46, 80
2, 50640, Note_on_c, 9, 46, 100
2, 50760, Note_on_c, 9, 38, 100
2, 50880, Note_off_c, 9, 46, 80
2, 50880, Note_on_c, 9, 42, 100
2, 51000, Note_off_c, 9, 38, 80
2, 51000, Note_on_c, 9, 38, 100
2, 51120, Note_off_c, 9, 42, 80
2, 51120, Note_on_c, 9, 42, 100
2, 51120, Note_on_c, 9, 33, 100
2, 51120, Note_on_c, 9, 35, 100
2, 51240, Note_off_c, 9, 38, 80
2, 51360, Note_off_c, 9, 42, 80
2, 51360, Note_off_c, 9, 33, 80
2, 51360, Note_off_c, 9, 35, 80
2, 51360, Note_on_c, 9, 46, 100
2, 51360, Note_on_c, 9, 38, 100
2, 51360, Note_on_c, 9, 40, 100
2, 51360, Note_on_c, 9, 75, 100
2, 51360, Note_on_c, 9, 75, 100
2, 51600, Note_off_c, 9, 75, 80
2, 51600, Note_off_c, 9, 75, 80
2, 51600, Note_off_c, 9, 40, 80
2, 51600, Note_off_c, 9, 38, 80
2, 51600, Note_off_c, 9, 46, 80
2, 51600, Note_on_c, 9, 46, 100
2, 51840, Note_off_c, 9, 46, 80
2, 51840, Note_on_c, 9, 33, 100
2, 51840, Note_on_c, 9, 35, 100
2, 51840, Note_on_c, 9, 42, 100
2, 52080, Note_off_c, 9, 42, 80
2, 52080, Note_off_c, 9, 35, 80
2, 52080, Note_off_c, 9, 33, 80
2, 52080, Note_on_c, 9, 42, 100
2, 52080, Note_on_c, 9, 35, 100
2, 52080, Note_on_c, 9, 33, 100
2, 52320, Note_off_c, 9, 33, 80
2, 52320, Note_off_c, 9, 35, 80
2, 52320, Note_off_c, 9, 42, 80
2, 52320, Note_on_c, 9, 46, 100
2, 52320, Note_on_c, 9, 40, 100
2, 52320, Note_on_c, 9, 38, 100
2, 52320, Note_on_c, 9, 75, 100
2, 52320, Note_on_c, 9, 75, 100
2, 52560, Note_off_c, 9, 75, 80
2, 52560, Note_off_c, 9, 75, 80
2, 52560, Note_off_c, 9, 38, 80
2, 52560, Note_off_c, 9, 40, 80
2, 52560, Note_off_c, 9, 46, 80
2, 52560, Note_on_c, 9, 46, 100
2, 52680, Note_on_c, 9, 38, 100
2, 52800, Note_off_c, 9, 46, 80
2, 52800, Note_on_c, 9, 42, 100
2, 52920, Note_off_c, 9, 38, 80
2, 52920, Note_on_c, 9, 38, 100
2, 53040, Note_off_c, 9, 42, 80
2, 53040, Note_on_c, 9, 42, 100
2, 53040, Note_on_c, 9, 33, 100
2, 53040, Note_on_c, 9, 35, 100
2, 53160, Note_off_c, 9, 38, 80
2, 53280, Note_off_c, 9, 42, 80
2, 53280, Note_off_c, 9, 33, 80
2, 53280, Note_off_c, 9, 35, 80
2, 53280, Note_on_c, 9, 46, 100
2, 53280, Note_on_c, 9, 38, 100
2, 53280, Note_on_c, 9, 40, 100
2, 53280, Note_on_c, 9, 75, 100
2, 53280, Note_on_c, 9, 75, 100
2, 53520, Note_off_c, 9, 75, 80
2, 53520, Note_off_c, 9, 75, 80
2, 53520, Note_off_c, 9, 40, 80
2, 53520, Note_off_c, 9, 38, 80
2, 53520, Note_off_c, 9, 46, 80
2, 53520, Note_on_c, 9, 46, 100
2, 53760, Note_off_c, 9, 46, 80
2, 53760, Note_on_c, 9, 33, 100
2, 53760, Note_on_c, 9, 35, 100
2, 53760, Note_on_c, 9, 42, 100
2, 54000, Note_off_c, 9, 42, 80
2, 54000, Note_off_c, 9, 35, 80
2, 54000, Note_off_c, 9, 33, 80
2, 54000, Note_on_c, 9, 42, 100
2, 54000, Note_on_c, 9, 35, 100
2, 54000, Note_on_c, 9, 33, 100
2, 54240, Note_off_c, 9, 33, 80
2, 54240, Note_off_c, 9, 35, 80
2, 54240, Note_off_c, 9, 42, 80
2, 54240, Note_on_c, 9, 46, 100
2, 54240, Note_on_c, 9, 40, 100
2, 54240, Note_on_c, 9, 38, 100
2, 54240, Note_on_c, 9, 75, 100
2, 54240, Note_on_c, 9, 75, 100
2, 54480, Note_off_c, 9, 75, 80
2, 54480, Note_off_c, 9, 75, 80
2, 54480, Note_off_c, 9, 38, 80
2, 54480, Note_off_c, 9, 40, 80
2, 54480, Note_off_c, 9, 46, 80
2, 54480, Note_on_c, 9, 46, 100
2, 54600, Note_on_c, 9, 38, 100
2, 54720, Note_off_c, 9, 46, 80
2, 54720, Note_on_c, 9, 42, 100
2, 54840, Note_off_c, 9, 38, 80
2, 54840, Note_on_c, 9, 38, 100
2, 54960, Note_off_c, 9, 42, 80
2, 54960, Note_on_c, 9, 42, 100
2, 54960, Note_on_c, 9, 33, 100
2, 54960, Note_on_c, 9, 35, 100
2, 55080, Note_off_c, 9, 38, 80
2, 55200, Note_off_c, 9, 42, 80
2, 55200, Note_off_c, 9, 33, 80
2, 55200, Note_off_c, 9, 35, 80
2, 55200, Note_on_c, 9, 46, 100
2, 55200, Note_on_c, 9, 38, 100
2, 55200, Note_on_c, 9, 40, 100
2, 55200, Note_on_c, 9, 75, 100
2, 55200, Note_on_c, 9, 75, 100
2, 55440, Note_off_c, 9, 75, 80
2, 55440, Note_off_c, 9, 75, 80
2, 55440, Note_off_c, 9, 40, 80
2, 55440, Note_off_c, 9, 38, 80
2, 55440, Note_off_c, 9, 46, 80
2, 55440, Note_on_c, 9, 46, 100
2, 55680, Note_off_c, 9, 46, 80
2, 55680, Note_on_c, 9, 33, 100
2, 55680, Note_on_c, 9, 35, 100
2, 55680, Note_on_c, 9, 42, 100
2, 55920, Note_off_c, 9, 42, 80
2, 55920, Note_off_c, 9, 35, 80
2, 55920, Note_off_c, 9, 33, 80
2, 55920, Note_on_c, 9, 42, 100
2, 55920, Note_on_c, 9, 35, 100
2, 55920, Note_on_c, 9, 33, 100
2, 56160, Note_off_c, 9, 33, 80
2, 56160, Note_off_c, 9, 35, 80
2, 56160, Note_off_c, 9, 42, 80
2, 56160, Note_on_c, 9, 46, 100
2, 56160, Note_on_c, 9, 40, 100
2, 56160, Note_on_c, 9, 38, 100
2, 56160, Note_on_c, 9, 75, 100
2, 56160, Note_on_c, 9, 75, 100
2, 56400, Note_off_c, 9, 75, 80
2, 56400, Note_off_c, 9, 75, 80
2, 56400, Note_off_c, 9, 38, 80
2, 56400, Note_off_c, 9, 40, 80
2, 56400, Note_off_c, 9, 46, 80
2, 56400, Note_on_c, 9, 46, 100
2, 56520, Note_on_c, 9, 38, 100
2, 56640, Note_off_c, 9, 46, 80
2, 56640, Note_on_c, 9, 42, 100
2, 56760, Note_off_c, 9, 38, 80
2, 56760, Note_on_c, 9, 38, 100
2, 56880, Note_off_c, 9, 42, 80
2, 56880, Note_on_c, 9, 42, 100
2, 56880, Note_on_c, 9, 33, 100
2, 56880, Note_on_c, 9, 35, 100
2, 57000, Note_off_c, 9, 38, 80
2, 57120, Note_off_c, 9, 42, 80
2, 57120, Note_off_c, 9, 33, 80
2, 57120, Note_off_c, 9, 35, 80
2, 57120, Note_on_c, 9, 46, 100
2, 57120, Note_on_c, 9, 38, 100
2, 57120, Note_on_c, 9, 40, 100
2, 57120, Note_on_c, 9, 75, 100
2, 57120, Note_on_c, 9, 75, 100
2, 57360, Note_off_c, 9, 75, 80
2, 57360, Note_off_c, 9, 75, 80
2, 57360, Note_off_c, 9, 40, 80
2, 57360, Note_off_c, 9, 38, 80
2, 57360, Note_off_c, 9, 46, 80
2, 57360, Note_on_c, 9, 46, 100
2, 57600, Note_off_c, 9, 46, 80
2, 57600, Note_on_c, 9, 33, 100
2, 57600, Note_on_c, 9, 35, 100
2, 57600, Note_on_c, 9, 42, 100
2, 57840, Note_off_c, 9, 42, 80
2, 57840, Note_off_c, 9, 35, 80
2, 57840, Note_off_c, 9, 33, 80
2, 57840, Note_on_c, 9, 42, 100
2, 57840, Note_on_c, 9, 35, 100
2, 57840, Note_on_c, 9, 33, 100
2, 58080, Note_off_c, 9, 33, 80
2, 58080, Note_off_c, 9, 35, 80
2, 58080, Note_off_c, 9, 42, 80
2, 58080, Note_on_c, 9, 46, 100
2, 58080, Note_on_c, 9, 40, 100
2, 58080, Note_on_c, 9, 38, 100
2, 58080, Note_on_c, 9, 75, 100
2, 58080, Note_on_c, 9, 75, 100
2, 58320, Note_off_c, 9, 75, 80
2, 58320, Note_off_c, 9, 75, 80
2, 58320, Note_off_c, 9, 38, 80
2, 58320, Note_off_c, 9, 40, 80
2, 58320, Note_off_c, 9, 46, 80
2, 58320, Note_on_c, 9, 46, 100
2, 58440, Note_on_c, 9, 38, 100
2, 58560, Note_off_c, 9, 46, 80
2, 58560, Note_on_c, 9, 42, 100
2, 58680, Note_off_c, 9, 38, 80
2, 58680, Note_on_c, 9, 38, 100
2, 58800, Note_off_c, 9, 42, 80
2, 58800, Note_on_c, 9, 42, 100
2, 58800, Note_on_c, 9, 33, 100
2, 58800, Note_on_c, 9, 35, 100
2, 58920, Note_off_c, 9, 38, 80
2, 59040, Note_off_c, 9, 42, 80
2, 59040, Note_off_c, 9, 33, 80
2, 59040, Note_off_c, 9, 35, 80
2, 59040, Note_on_c, 9, 46, 100
2, 59040, Note_on_c, 9, 38, 100
2, 59040, Note_on_c, 9, 40, 100
2, 59040, Note_on_c, 9, 75, 100
2, 59040, Note_on_c, 9, 75, 100
2, 59280, Note_off_c, 9, 75, 80
2, 59280, Note_off_c, 9, 75, 80
2, 59280, Note_off_c, 9, 40, 80
2, 59280, Note_off_c, 9, 38, 80
2, 59280, Note_off_c, 9, 46, 80
2, 59280, Note_on_c, 9, 46, 100
2, 59520, Note_off_c, 9, 46, 80
2, 59520, Note_on_c, 9, 33, 100
2, 59520, Note_on_c, 9, 35, 100
2, 59520, Note_on_c, 9, 42, 100
2, 59760, Note_off_c, 9, 42, 80
2, 59760, Note_off_c, 9, 35, 80
2, 59760, Note_off_c, 9, 33, 80
2, 59760, Note_on_c, 9, 42, 100
2, 59760, Note_on_c, 9, 35, 100
2, 59760, Note_on_c, 9, 33, 100
2, 60000, Note_off_c, 9, 33, 80
2, 60000, Note_off_c, 9, 35, 80
2, 60000, Note_off_c, 9, 42, 80
2, 60000, Note_on_c, 9, 46, 100
2, 60000, Note_on_c, 9, 40, 100
2, 60000, Note_on_c, 9, 38, 100
2, 60000, Note_on_c, 9, 75, 100
2, 60000, Note_on_c, 9, 75, 100
2, 60240, Note_off_c, 9, 75, 80
2, 60240, Note_off_c, 9, 75, 80
2, 60240, Note_off_c, 9, 38, 80
2, 60240, Note_off_c, 9, 40, 80
2, 60240, Note_off_c, 9, 46, 80
2, 60240, Note_on_c, 9, 46, 100
2, 60360, Note_on_c, 9, 38, 100
2, 60480, Note_off_c, 9, 46, 80
2, 60480, Note_on_c, 9, 42, 100
2, 60600, Note_off_c, 9, 38, 80
2, 60600, Note_on_c, 9, 38, 100
2, 60720, Note_off_c, 9, 42, 80
2, 60720, Note_on_c, 9, 42, 100
2, 60720, Note_on_c, 9, 33, 100
2, 60720, Note_on_c, 9, 35, 100
2, 60840, Note_off_c, 9, 38, 80
2, 60960, Note_off_c, 9, 42, 80
2, 60960, Note_off_c, 9, 33, 80
2, 60960, Note_off_c, 9, 35, 80
2, 60960, Note_on_c, 9, 46, 100
2, 60960, Note_on_c, 9, 38, 100
2, 60960, Note_on_c, 9, 40, 100
2, 60960, Note_on_c, 9, 75, 100
2, 60960, Note_on_c, 9, 75, 100
2, 61200, Note_off_c, 9, 75, 80
2, 61200, Note_off_c, 9, 75, 80
2, 61200, Note_off_c, 9, 40, 80
2, 61200, Note_off_c, 9, 38, 80
2, 61200, Note_off_c, 9, 46, 80
2, 61200, Note_on_c, 9, 46, 100
2, 61440, Note_off_c, 9, 46, 80
2, 61440, Note_on_c, 9, 33, 100
2, 61440, Note_on_c, 9, 35, 100
2, 61440, Note_on_c, 9, 42, 100
2, 61680, Note_off_c, 9, 42, 80
2, 61680, Note_off_c, 9, 35, 80
2, 61680, Note_off_c, 9, 33, 80
2, 61680, Note_on_c, 9, 42, 100
2, 61680, Note_on_c, 9, 35, 100
2, 61680, Note_on_c, 9, 33, 100
2, 61920, Note_off_c, 9, 33, 80
2, 61920, Note_off_c, 9, 35, 80
2, 61920, Note_off_c, 9, 42, 80
2, 61920, Note_on_c, 9, 46, 100
2, 61920, Note_on_c, 9, 40, 100
2, 61920, Note_on_c, 9, 38, 100
2, 61920, Note_on_c, 9, 75, 100
2, 61920, Note_on_c, 9, 75, 100
2, 62160, Note_off_c, 9, 75, 80
2, 62160, Note_off_c, 9, 75, 80
2, 62160, Note_off_c, 9, 38, 80
2, 62160, Note_off_c, 9, 40, 80
2, 62160, Note_off_c, 9, 46, 80
2, 62160, Note_on_c, 9, 46, 100
2, 62280, Note_on_c, 9, 38, 100
2, 62400, Note_off_c, 9, 46, 80
2, 62400, Note_on_c, 9, 42, 100
2, 62520, Note_off_c, 9, 38, 80
2, 62520, Note_on_c, 9, 38, 100
2, 62640, Note_off_c, 9, 42, 80
2, 62640, Note_on_c, 9, 42, 100
2, 62640, Note_on_c, 9, 33, 100
2, 62640, Note_on_c, 9, 35, 100
2, 62760, Note_off_c, 9, 38, 80
2, 62880, Note_off_c, 9, 42, 80
2, 62880, Note_off_c, 9, 33, 80
2, 62880, Note_off_c, 9, 35, 80
2, 62880, Note_on_c, 9, 46, 100
2, 62880, Note_on_c, 9, 38, 100
2, 62880, Note_on_c, 9, 40, 100
2, 62880, Note_on_c, 9, 75, 100
2, 62880, Note_on_c, 9, 75, 100
2, 63120, Note_off_c, 9, 75, 80
2, 63120, Note_off_c, 9, 75, 80
2, 63120, Note_off_c, 9, 40, 80
2, 63120, Note_off_c, 9, 38, 80
2, 63120, Note_off_c, 9, 46, 80
2, 63120, Note_on_c, 9, 46, 100
2, 63360, Note_off_c, 9, 46, 80
2, 63360, Note_on_c, 9, 33, 100
2, 63360, Note_on_c, 9, 35, 100
2, 63360, Note_on_c, 9, 42, 100
2, 63600, Note_off_c, 9, 42, 80
2, 63600, Note_off_c, 9, 35, 80
2, 63600, Note_off_c, 9, 33, 80
2, 63600, Note_on_c, 9, 42, 100
2, 63600, Note_on_c, 9, 35, 100
2, 63600, Note_on_c, 9, 33, 100
2, 63840, Note_off_c, 9, 33, 80
2, 63840, Note_off_c, 9, 35, 80
2, 63840, Note_off_c, 9, 42, 80
2, 63840, Note_on_c, 9, 46, 100
2, 63840, Note_on_c, 9, 40, 100
2, 63840, Note_on_c, 9, 38, 100
2, 63840, Note_on_c, 9, 75, 100
2, 63840, Note_on_c, 9, 75, 100
2, 64080, Note_off_c, 9, 75, 80
2, 64080, Note_off_c, 9, 75, 80
2, 64080, Note_off_c, 9, 38, 80
2, 64080, Note_off_c, 9, 40, 80
2, 64080, Note_off_c, 9, 46, 80
2, 64080, Note_on_c, 9, 46, 100
2, 64200, Note_on_c, 9, 38, 100
2, 64320, Note_off_c, 9, 46, 80
2, 64320, Note_on_c, 9, 42, 100
2, 64440, Note_off_c, 9, 38, 80
2, 64440, Note_on_c, 9, 38, 100
2, 64560, Note_off_c, 9, 42, 80
2, 64560, Note_on_c, 9, 42, 100
2, 64560, Note_on_c, 9, 33, 100
2, 64560, Note_on_c, 9, 35, 100
2, 64680, Note_off_c, 9, 38, 80
2, 64800, Note_off_c, 9, 42, 80
2, 64800, Note_off_c, 9, 33, 80
2, 64800, Note_off_c, 9, 35, 80
2, 64800, Note_on_c, 9, 46, 100
2, 64800, Note_on_c, 9, 38, 100
2, 64800, Note_on_c, 9, 40, 100
2, 64800, Note_on_c, 9, 75, 100
2, 64800, Note_on_c, 9, 75, 100
2, 65040, Note_off_c, 9, 75, 80
2, 65040, Note_off_c, 9, 75, 80
2, 65040, Note_off_c, 9, 40, 80
2, 65040, Note_off_c, 9, 38, 80
2, 65040, Note_off_c, 9, 46, 80
2, 65040, Note_on_c, 9, 46, 100
2, 65280, Note_off_c, 9, 46, 80
2, 65280, Note_on_c, 9, 35, 100
2, 65280, Note_on_c, 9, 59, 100
2, 65520, Note_off_c, 9, 35, 80
2, 65520, Note_on_c, 9, 35, 100
2, 65760, Note_off_c, 9, 59, 80
2, 65760, Note_off_c, 9, 35, 80
2, 65760, Note_on_c, 9, 40, 100
2, 65760, Note_on_c, 9, 38, 100
2, 65760, Note_on_c, 9, 49, 100
2, 65760, Note_on_c, 9, 59, 100
2, 66000, Note_off_c, 9, 49, 80
2, 66000, Note_off_c, 9, 38, 80
2, 66000, Note_off_c, 9, 40, 80
2, 66000, Note_on_c, 9, 35, 100
2, 66120, Note_on_c, 9, 38, 100
2, 66240, Note_off_c, 9, 59, 80
2, 66240, Note_off_c, 9, 35, 80
2, 66240, Note_on_c, 9, 35, 100
2, 66240, Note_on_c, 9, 59, 100
2, 66360, Note_off_c, 9, 38, 80
2, 66360, Note_on_c, 9, 38, 100
2, 66480, Note_off_c, 9, 35, 80
2, 66480, Note_on_c, 9, 35, 100
2, 66600, Note_off_c, 9, 38, 80
2, 66720, Note_off_c, 9, 59, 80
2, 66720, Note_off_c, 9, 35, 80
2, 66720, Note_on_c, 9, 38, 100
2, 66720, Note_on_c, 9, 40, 100
2, 66720, Note_on_c, 9, 49, 100
2, 66720, Note_on_c, 9, 59, 100
2, 66960, Note_off_c, 9, 49, 80
2, 66960, Note_off_c, 9, 40, 80
2, 66960, Note_off_c, 9, 38, 80
2, 66960, Note_on_c, 9, 35, 100
2, 67080, Note_off_c, 9, 35, 80
2, 67080, Note_on_c, 9, 38, 100
2, 67200, Note_off_c, 9, 59, 80
2, 67200, Note_on_c, 9, 59, 100
2, 67200, Note_on_c, 9, 35, 100
2, 67210, Note_off_c, 9, 38, 80
2, 67440, Note_off_c, 9, 35, 80
2, 67440, Note_on_c, 9, 35, 100
2, 67680, Note_off_c, 9, 59, 80
2, 67680, Note_off_c, 9, 35, 80
2, 67680, Note_on_c, 9, 40, 100
2, 67680, Note_on_c, 9, 38, 100
2, 67680, Note_on_c, 9, 49, 100
2, 67680, Note_on_c, 9, 59, 100
2, 67920, Note_off_c, 9, 49, 80
2, 67920, Note_off_c, 9, 38, 80
2, 67920, Note_off_c, 9, 40, 80
2, 67920, Note_on_c, 9, 35, 100
2, 68040, Note_on_c, 9, 38, 100
2, 68160, Note_off_c, 9, 59, 80
2, 68160, Note_off_c, 9, 35, 80
2, 68160, Note_on_c, 9, 35, 100
2, 68160, Note_on_c, 9, 59, 100
2, 68280, Note_off_c, 9, 38, 80
2, 68280, Note_on_c, 9, 38, 100
2, 68400, Note_off_c, 9, 35, 80
2, 68400, Note_on_c, 9, 35, 100
2, 68520, Note_off_c, 9, 38, 80
2, 68640, Note_off_c, 9, 59, 80
2, 68640, Note_off_c, 9, 35, 80
2, 68640, Note_on_c, 9, 38, 100
2, 68640, Note_on_c, 9, 40, 100
2, 68640, Note_on_c, 9, 49, 100
2, 68640, Note_on_c, 9, 59, 100
2, 68880, Note_off_c, 9, 49, 80
2, 68880, Note_off_c, 9, 40, 80
2, 68880, Note_off_c, 9, 38, 80
2, 68880, Note_on_c, 9, 35, 100
2, 69000, Note_off_c, 9, 35, 80
2, 69000, Note_on_c, 9, 38, 100
2, 69120, Note_off_c, 9, 59, 80
2, 69120, Note_on_c, 9, 59, 100
2, 69120, Note_on_c, 9, 35, 100
2, 69130, Note_off_c, 9, 38, 80
2, 69360, Note_off_c, 9, 35, 80
2, 69360, Note_on_c, 9, 35, 100
2, 69600, Note_off_c, 9, 59, 80
2, 69600, Note_off_c, 9, 35, 80
2, 69600, Note_on_c, 9, 40, 100
2, 69600, Note_on_c, 9, 38, 100
2, 69600, Note_on_c, 9, 49, 100
2, 69600, Note_on_c, 9, 59, 100
2, 69840, Note_off_c, 9, 49, 80
2, 69840, Note_off_c, 9, 38, 80
2, 69840, Note_off_c, 9, 40, 80
2, 69840, Note_on_c, 9, 35, 100
2, 69960, Note_on_c, 9, 38, 100
2, 70080, Note_off_c, 9, 59, 80
2, 70080, Note_off_c, 9, 35, 80
2, 70080, Note_on_c, 9, 35, 100
2, 70080, Note_on_c, 9, 59, 100
2, 70200, Note_off_c, 9, 38, 80
2, 70200, Note_on_c, 9, 38, 100
2, 70320, Note_off_c, 9, 35, 80
2, 70320, Note_on_c, 9, 35, 100
2, 70440, Note_off_c, 9, 38, 80
2, 70560, Note_off_c, 9, 59, 80
2, 70560, Note_off_c, 9, 35, 80
2, 70560, Note_on_c, 9, 38, 100
2, 70560, Note_on_c, 9, 40, 100
2, 70560, Note_on_c, 9, 49, 100
2, 70560, Note_on_c, 9, 59, 100
2, 70800, Note_off_c, 9, 49, 80
2, 70800, Note_off_c, 9, 40, 80
2, 70800, Note_off_c, 9, 38, 80
2, 70800, Note_on_c, 9, 35, 100
2, 70920, Note_off_c, 9, 35, 80
2, 70920, Note_on_c, 9, 38, 100
2, 71040, Note_off_c, 9, 59, 80
2, 71040, Note_on_c, 9, 59, 100
2, 71040, Note_on_c, 9, 35, 100
2, 71050, Note_off_c, 9, 38, 80
2, 71280, Note_off_c, 9, 35, 80
2, 71280, Note_on_c, 9, 35, 100
2, 71520, Note_off_c, 9, 59, 80
2, 71520, Note_off_c, 9, 35, 80
2, 71520, Note_on_c, 9, 40, 100
2, 71520, Note_on_c, 9, 38, 100
2, 71520, Note_on_c, 9, 49, 100
2, 71520, Note_on_c, 9, 59, 100
2, 71760, Note_off_c, 9, 49, 80
2, 71760, Note_off_c, 9, 38, 80
2, 71760, Note_off_c, 9, 40, 80
2, 71760, Note_on_c, 9, 35, 100
2, 71880, Note_on_c, 9, 38, 100
2, 72000, Note_off_c, 9, 59, 80
2, 72000, Note_off_c, 9, 35, 80
2, 72000, Note_on_c, 9, 35, 100
2, 72000, Note_on_c, 9, 59, 100
2, 72120, Note_off_c, 9, 38, 80
2, 72120, Note_on_c, 9, 38, 100
2, 72240, Note_off_c, 9, 35, 80
2, 72240, Note_on_c, 9, 35, 100
2, 72360, Note_off_c, 9, 38, 80
2, 72480, Note_off_c, 9, 59, 80
2, 72480, Note_off_c, 9, 35, 80
2, 72480, Note_on_c, 9, 38, 100
2, 72480, Note_on_c, 9, 40, 100
2, 72480, Note_on_c, 9, 49, 100
2, 72480, Note_on_c, 9, 59, 100
2, 72720, Note_off_c, 9, 49, 80
2, 72720, Note_off_c, 9, 40, 80
2, 72720, Note_off_c, 9, 38, 80
2, 72720, Note_on_c, 9, 35, 100
2, 72840, Note_off_c, 9, 35, 80
2, 72840, Note_on_c, 9, 38, 100
2, 72960, Note_off_c, 9, 59, 80
2, 72960, Note_on_c, 9, 44, 100
2, 72970, Note_off_c, 9, 38, 80
2, 73193, Note_off_c, 9, 44, 80
2, 73200, Note_on_c, 9, 44, 100
2, 73440, Note_on_c, 9, 42, 100
2, 73440, Note_on_c, 9, 75, 100
2, 73440, Note_on_c, 9, 75, 100
2, 73447, Note_off_c, 9, 44, 80
2, 73673, Note_off_c, 9, 42, 80
2, 73680, Note_off_c, 9, 75, 80
2, 73680, Note_off_c, 9, 75, 80
2, 73680, Note_on_c, 9, 42, 100
2, 73920, Note_on_c, 9, 44, 100
2, 73927, Note_off_c, 9, 42, 80
2, 74160, Note_off_c, 9, 44, 80
2, 74160, Note_on_c, 9, 44, 100
2, 74400, Note_off_c, 9, 44, 80
2, 74400, Note_on_c, 9, 42, 100
2, 74400, Note_on_c, 9, 75, 100
2, 74400, Note_on_c, 9, 75, 100
2, 74633, Note_off_c, 9, 42, 80
2, 74640, Note_off_c, 9, 75, 80
2, 74640, Note_off_c, 9, 75, 80
2, 74640, Note_on_c, 9, 42, 100
2, 74880, Note_off_c, 9, 42, 80
2, 74880, Note_on_c, 9, 44, 100
2, 75113, Note_off_c, 9, 44, 80
2, 75120, Note_on_c, 9, 44, 100
2, 75360, Note_on_c, 9, 42, 100
2, 75360, Note_on_c, 9, 75, 100
2, 75360, Note_on_c, 9, 75, 100
2, 75367, Note_off_c, 9, 44, 80
2, 75593, Note_off_c, 9, 42, 80
2, 75600, Note_off_c, 9, 75, 80
2, 75600, Note_off_c, 9, 75, 80
2, 75600, Note_on_c, 9, 42, 100
2, 75840, Note_on_c, 9, 44, 100
2, 75847, Note_off_c, 9, 42, 80
2, 76080, Note_off_c, 9, 44, 80
2, 76080, Note_on_c, 9, 44, 100
2, 76320, Note_off_c, 9, 44, 80
2, 76320, Note_on_c, 9, 42, 100
2, 76320, Note_on_c, 9, 75, 100
2, 76320, Note_on_c, 9, 75, 100
2, 76553, Note_off_c, 9, 42, 80
2, 76560, Note_off_c, 9, 75, 80
2, 76560, Note_off_c, 9, 75, 80
2, 76560, Note_on_c, 9, 42, 100
2, 76800, Note_off_c, 9, 42, 80
2, 76800, Note_on_c, 9, 44, 100
2, 77033, Note_off_c, 9, 44, 80
2, 77040, Note_on_c, 9, 44, 100
2, 77280, Note_on_c, 9, 42, 100
2, 77280, Note_on_c, 9, 75, 100
2, 77280, Note_on_c, 9, 75, 100
2, 77287, Note_off_c, 9, 44, 80
2, 77513, Note_off_c, 9, 42, 80
2, 77520, Note_off_c, 9, 75, 80
2, 77520, Note_off_c, 9, 75, 80
2, 77520, Note_on_c, 9, 42, 100
2, 77760, Note_on_c, 9, 44, 100
2, 77767, Note_off_c, 9, 42, 80
2, 78000, Note_off_c, 9, 44, 80
2, 78000, Note_on_c, 9, 44, 100
2, 78240, Note_off_c, 9, 44, 80
2, 78240, Note_on_c, 9, 42, 100
2, 78240, Note_on_c, 9, 75, 100
2, 78240, Note_on_c, 9, 75, 100
2, 78473, Note_off_c, 9, 42, 80
2, 78480, Note_off_c, 9, 75, 80
2, 78480, Note_off_c, 9, 75, 80
2, 78480, Note_on_c, 9, 42, 100
2, 78720, Note_off_c, 9, 42, 80
2, 78720, Note_on_c, 9, 44, 100
2, 78953, Note_off_c, 9, 44, 80
2, 78960, Note_on_c, 9, 44, 100
2, 79200, Note_on_c, 9, 42, 100
2, 79200, Note_on_c, 9, 75, 100
2, 79200, Note_on_c, 9, 75, 100
2, 79207, Note_off_c, 9, 44, 80
2, 79433, Note_off_c, 9, 42, 80
2, 79440, Note_off_c, 9, 75, 80
2, 79440, Note_off_c, 9, 75, 80
2, 79440, Note_on_c, 9, 42, 100
2, 79680, Note_on_c, 9, 44, 100
2, 79687, Note_off_c, 9, 42, 80
2, 79920, Note_off_c, 9, 44, 80
2, 79920, Note_on_c, 9, 44, 100
2, 80160, Note_off_c, 9, 44, 80
2, 80160, Note_on_c, 9, 42, 100
2, 80160, Note_on_c, 9, 75, 100
2, 80160, Note_on_c, 9, 75, 100
2, 80393, Note_off_c, 9, 42, 80
2, 80400, Note_off_c, 9, 75, 80
2, 80400, Note_off_c, 9, 75, 80
2, 80400, Note_on_c, 9, 42, 100
2, 80640, Note_off_c, 9, 42, 80
2, 80640, Note_on_c, 9, 44, 100
2, 80873, Note_off_c, 9, 44, 80
2, 80880, Note_on_c, 9, 44, 100
2, 81120, Note_on_c, 9, 42, 100
2, 81120, Note_on_c, 9, 75, 100
2, 81120, Note_on_c, 9, 75, 100
2, 81127, Note_off_c, 9, 44, 80
2, 81353, Note_off_c, 9, 42, 80
2, 81360, Note_off_c, 9, 75, 80
2, 81360, Note_off_c, 9, 75, 80
2, 81360, Note_on_c, 9, 42, 100
2, 81600, Note_on_c, 9, 44, 100
2, 81607, Note_off_c, 9, 42, 80
2, 81840, Note_off_c, 9, 44, 80
2, 81840, Note_on_c, 9, 44, 100
2, 82080, Note_off_c, 9, 44, 80
2, 82080, Note_on_c, 9, 42, 100
2, 82080, Note_on_c, 9, 75, 100
2, 82080, Note_on_c, 9, 75, 100
2, 82313, Note_off_c, 9, 42, 80
2, 82320, Note_off_c, 9, 75, 80
2, 82320, Note_off_c, 9, 75, 80
2, 82320, Note_on_c, 9, 42, 100
2, 82560, Note_off_c, 9, 42, 80
2, 82560, Note_on_c, 9, 44, 100
2, 82793, Note_off_c, 9, 44, 80
2, 82800, Note_on_c, 9, 44, 100
2, 83040, Note_on_c, 9, 42, 100
2, 83040, Note_on_c, 9, 75, 100
2, 83040, Note_on_c, 9, 75, 100
2, 83047, Note_off_c, 9, 44, 80
2, 83273, Note_off_c, 9, 42, 80
2, 83280, Note_off_c, 9, 75, 80
2, 83280, Note_off_c, 9, 75, 80
2, 83280, Note_on_c, 9, 42, 100
2, 83520, Note_on_c, 9, 44, 100
2, 83527, Note_off_c, 9, 42, 80
2, 83760, Note_off_c, 9, 44, 80
2, 83760, Note_on_c, 9, 44, 100
2, 84000, Note_off_c, 9, 44, 80
2, 84000, Note_on_c, 9, 42, 100
2, 84000, Note_on_c, 9, 75, 100
2, 84000, Note_on_c, 9, 75, 100
2, 84233, Note_off_c, 9, 42, 80
2, 84240, Note_off_c, 9, 75, 80
2, 84240, Note_off_c, 9, 75, 80
2, 84240, Note_on_c, 9, 42, 100
2, 84480, Note_off_c, 9, 42, 80
2, 84480, Note_on_c, 9, 44, 100
2, 84713, Note_off_c, 9, 44, 80
2, 84720, Note_on_c, 9, 44, 100
2, 84960, Note_on_c, 9, 42, 100
2, 84960, Note_on_c, 9, 75, 100
2, 84960, Note_on_c, 9, 75, 100
2, 84967, Note_off_c, 9, 44, 80
2, 85193, Note_off_c, 9, 42, 80
2, 85200, Note_off_c, 9, 75, 80
2, 85200, Note_off_c, 9, 75, 80
2, 85200, Note_on_c, 9, 42, 100
2, 85440, Note_on_c, 9, 44, 100
2, 85447, Note_off_c, 9, 42, 80
2, 85680, Note_off_c, 9, 44, 80
2, 85680, Note_on_c, 9, 44, 100
2, 85920, Note_off_c, 9, 44, 80
2, 85920, Note_on_c, 9, 42, 100
2, 85920, Note_on_c, 9, 75, 100
2, 85920, Note_on_c, 9, 75, 100
2, 86153, Note_off_c, 9, 42, 80
2, 86160, Note_off_c, 9, 75, 80
2, 86160, Note_off_c, 9, 75, 80
2, 86160, Note_on_c, 9, 42, 100
2, 86400, Note_off_c, 9, 42, 80
2, 86400, Note_on_c, 9, 44, 100
2, 86633, Note_off_c, 9, 44, 80
2, 86640, Note_on_c, 9, 44, 100
2, 86880, Note_on_c, 9, 42, 100
2, 86880, Note_on_c, 9, 75, 100
2, 86880, Note_on_c, 9, 75, 100
2, 86887, Note_off_c, 9, 44, 80
2, 87113, Note_off_c, 9, 42, 80
2, 87120, Note_off_c, 9, 75, 80
2, 87120, Note_off_c, 9, 75, 80
2, 87120, Note_on_c, 9, 42, 100
2, 87360, Note_on_c, 9, 44, 100
2, 87367, Note_off_c, 9, 42, 80
2, 87600, Note_off_c, 9, 44, 80
2, 87600, Note_on_c, 9, 44, 100
2, 87840, Note_off_c, 9, 44, 80
2, 87840, Note_on_c, 9, 42, 100
2, 87840, Note_on_c, 9, 75, 100
2, 87840, Note_on_c, 9, 75, 100
2, 87840, Note_on_c, 9, 47, 50
2, 87960, Note_off_c, 9, 47, 127
2, 87960, Note_on_c, 9, 43, 50
2, 88073, Note_off_c, 9, 42, 80
2, 88080, Note_off_c, 9, 75, 80
2, 88080, Note_off_c, 9, 75, 80
2, 88080, Note_off_c, 9, 43, 80
2, 88080, Note_on_c, 9, 42, 100
2, 88080, Note_on_c, 9, 41, 50
2, 88200, Note_off_c, 9, 41, 80
2, 88200, Note_on_c, 9, 43, 50
2, 88320, Note_off_c, 9, 42, 80
2, 88320, Note_off_c, 9, 43, 80
2, 92160, Note_on_c, 9, 33, 100
2, 92160, Note_on_c, 9, 35, 100
2, 92160, Note_on_c, 9, 42, 100
2, 92400, Note_off_c, 9, 42, 80
2, 92400, Note_off_c, 9, 35, 80
2, 92400, Note_off_c, 9, 33, 80
2, 92400, Note_on_c, 9, 42, 100
2, 92400, Note_on_c, 9, 35, 100
2, 92400, Note_on_c, 9, 33, 100
2, 92640, Note_off_c, 9, 33, 80
2, 92640, Note_off_c, 9, 35, 80
2, 92640, Note_off_c, 9, 42, 80
2, 92640, Note_on_c, 9, 46, 100
2, 92640, Note_on_c, 9, 40, 100
2, 92640, Note_on_c, 9, 38, 100
2, 92640, Note_on_c, 9, 75, 100
2, 92640, Note_on_c, 9, 75, 100
2, 92880, Note_off_c, 9, 75, 80
2, 92880, Note_off_c, 9, 75, 80
2, 92880, Note_off_c, 9, 38, 80
2, 92880, Note_off_c, 9, 40, 80
2, 92880, Note_off_c, 9, 46, 80
2, 92880, Note_on_c, 9, 46, 100
2, 93000, Note_on_c, 9, 38, 100
2, 93120, Note_off_c, 9, 46, 80
2, 93120, Note_on_c, 9, 42, 100
2, 93240, Note_off_c, 9, 38, 80
2, 93240, Note_on_c, 9, 38, 100
2, 93360, Note_off_c, 9, 42, 80
2, 93360, Note_on_c, 9, 42, 100
2, 93360, Note_on_c, 9, 33, 100
2, 93360, Note_on_c, 9, 35, 100
2, 93480, Note_off_c, 9, 38, 80
2, 93600, Note_off_c, 9, 42, 80
2, 93600, Note_off_c, 9, 33, 80
2, 93600, Note_off_c, 9, 35, 80
2, 93600, Note_on_c, 9, 46, 100
2, 93600, Note_on_c, 9, 38, 100
2, 93600, Note_on_c, 9, 40, 100
2, 93600, Note_on_c, 9, 75, 100
2, 93600, Note_on_c, 9, 75, 100
2, 93840, Note_off_c, 9, 75, 80
2, 93840, Note_off_c, 9, 75, 80
2, 93840, Note_off_c, 9, 40, 80
2, 93840, Note_off_c, 9, 38, 80
2, 93840, Note_off_c, 9, 46, 80
2, 93840, Note_on_c, 9, 46, 100
2, 94080, Note_off_c, 9, 46, 80
2, 94080, Note_on_c, 9, 33, 100
2, 94080, Note_on_c, 9, 35, 100
2, 94080, Note_on_c, 9, 42, 100
2, 94320, Note_off_c, 9, 42, 80
2, 94320, Note_off_c, 9, 35, 80
2, 94320, Note_off_c, 9, 33, 80
2, 94320, Note_on_c, 9, 42, 100
2, 94320, Note_on_c, 9, 35, 100
2, 94320, Note_on_c, 9, 33, 100
2, 94560, Note_off_c, 9, 33, 80
2, 94560, Note_off_c, 9, 35, 80
2, 94560, Note_off_c, 9, 42, 80
2, 94560, Note_on_c, 9, 46, 100
2, 94560, Note_on_c, 9, 40, 100
2, 94560, Note_on_c, 9, 38, 100
2, 94560, Note_on_c, 9, 75, 100
2, 94560, Note_on_c, 9, 75, 100
2, 94800, Note_off_c, 9, 75, 80
2, 94800, Note_off_c, 9, 75, 80
2, 94800, Note_off_c, 9, 38, 80
2, 94800, Note_off_c, 9, 40, 80
2, 94800, Note_off_c, 9, 46, 80
2, 94800, Note_on_c, 9, 46, 100
2, 94920, Note_on_c, 9, 38, 100
2, 95040, Note_off_c, 9, 46, 80
2, 95040, Note_on_c, 9, 42, 100
2, 95160, Note_off_c, 9, 38, 80
2, 95160, Note_on_c, 9, 38, 100
2, 95280, Note_off_c, 9, 42, 80
2, 95280, Note_on_c, 9, 42, 100
2, 95280, Note_on_c, 9, 33, 100
2, 95280, Note_on_c, 9, 35, 100
2, 95400, Note_off_c, 9, 38, 80
2, 95520, Note_off_c, 9, 42, 80
2, 95520, Note_off_c, 9, 33, 80
2, 95520, Note_off_c, 9, 35, 80
2, 95520, Note_on_c, 9, 46, 100
2, 95520, Note_on_c, 9, 38, 100
2, 95520, Note_on_c, 9, 40, 100
2, 95520, Note_on_c, 9, 75, 100
2, 95520, Note_on_c, 9, 75, 100
2, 95760, Note_off_c, 9, 75, 80
2, 95760, Note_off_c, 9, 75, 80
2, 95760, Note_off_c, 9, 40, 80
2, 95760, Note_off_c, 9, 38, 80
2, 95760, Note_off_c, 9, 46, 80
2, 95760, Note_on_c, 9, 46, 100
2, 96000, Note_off_c, 9, 46, 80
2, 96000, Note_on_c, 9, 33, 100
2, 96000, Note_on_c, 9, 35, 100
2, 96000, Note_on_c, 9, 42, 100
2, 96240, Note_off_c, 9, 42, 80
2, 96240, Note_off_c, 9, 35, 80
2, 96240, Note_off_c, 9, 33, 80
2, 96240, Note_on_c, 9, 42, 100
2, 96240, Note_on_c, 9, 35, 100
2, 96240, Note_on_c, 9, 33, 100
2, 96480, Note_off_c, 9, 33, 80
2, 96480, Note_off_c, 9, 35, 80
2, 96480, Note_off_c, 9, 42, 80
2, 96480, Note_on_c, 9, 46, 100
2, 96480, Note_on_c, 9, 40, 100
2, 96480, Note_on_c, 9, 38, 100
2, 96480, Note_on_c, 9, 75, 100
2, 96480, Note_on_c, 9, 75, 100
2, 96720, Note_off_c, 9, 75, 80
2, 96720, Note_off_c, 9, 75, 80
2, 96720, Note_off_c, 9, 38, 80
2, 96720, Note_off_c, 9, 40, 80
2, 96720, Note_off_c, 9, 46, 80
2, 96720, Note_on_c, 9, 46, 100
2, 96840, Note_on_c, 9, 38, 100
2, 96960, Note_off_c, 9, 46, 80
2, 96960, Note_on_c, 9, 42, 100
2, 97080, Note_off_c, 9, 38, 80
2, 97080, Note_on_c, 9, 38, 100
2, 97200, Note_off_c, 9, 42, 80
2, 97200, Note_on_c, 9, 42, 100
2, 97200, Note_on_c, 9, 33, 100
2, 97200, Note_on_c, 9, 35, 100
2, 97320, Note_off_c, 9, 38, 80
2, 97440, Note_off_c, 9, 42, 80
2, 97440, Note_off_c, 9, 33, 80
2, 97440, Note_off_c, 9, 35, 80
2, 97440, Note_on_c, 9, 46, 100
2, 97440, Note_on_c, 9, 38, 100
2, 97440, Note_on_c, 9, 40, 100
2, 97440, Note_on_c, 9, 75, 100
2, 97440, Note_on_c, 9, 75, 100
2, 97680, Note_off_c, 9, 75, 80
2, 97680, Note_off_c, 9, 75, 80
2, 97680, Note_off_c, 9, 40, 80
2, 97680, Note_off_c, 9, 38, 80
2, 97680, Note_off_c, 9, 46, 80
2, 97680, Note_on_c, 9, 46, 100
2, 97920, Note_off_c, 9, 46, 80
2, 97920, Note_on_c, 9, 33, 100
2, 97920, Note_on_c, 9, 35, 100
2, 97920, Note_on_c, 9, 42, 100
2, 98160, Note_off_c, 9, 42, 80
2, 98160, Note_off_c, 9, 35, 80
2, 98160, Note_off_c, 9, 33, 80
2, 98160, Note_on_c, 9, 42, 100
2, 98160, Note_on_c, 9, 35, 100
2, 98160, Note_on_c, 9, 33, 100
2, 98400, Note_off_c, 9, 33, 80
2, 98400, Note_off_c, 9, 35, 80
2, 98400, Note_off_c, 9, 42, 80
2, 98400, Note_on_c, 9, 46, 100
2, 98400, Note_on_c, 9, 40, 100
2, 98400, Note_on_c, 9, 38, 100
2, 98400, Note_on_c, 9, 75, 100
2, 98400, Note_on_c, 9, 75, 100
2, 98640, Note_off_c, 9, 75, 80
2, 98640, Note_off_c, 9, 75, 80
2, 98640, Note_off_c, 9, 38, 80
2, 98640, Note_off_c, 9, 40, 80
2, 98640, Note_off_c, 9, 46, 80
2, 98640, Note_on_c, 9, 46, 100
2, 98760, Note_on_c, 9, 38, 100
2, 98880, Note_off_c, 9, 46, 80
2, 98880, Note_on_c, 9, 42, 100
2, 99000, Note_off_c, 9, 38, 80
2, 99000, Note_on_c, 9, 38, 100
2, 99120, Note_off_c, 9, 42, 80
2, 99120, Note_on_c, 9, 42, 100
2, 99120, Note_on_c, 9, 33, 100
2, 99120, Note_on_c, 9, 35, 100
2, 99240, Note_off_c, 9, 38, 80
2, 99360, Note_off_c, 9, 42, 80
2, 99360, Note_off_c, 9, 33, 80
2, 99360, Note_off_c, 9, 35, 80
2, 99360, Note_on_c, 9, 46, 100
2, 99360, Note_on_c, 9, 38, 100
2, 99360, Note_on_c, 9, 40, 100
2, 99360, Note_on_c, 9, 75, 100
2, 99360, Note_on_c, 9, 75, 100
2, 99600, Note_off_c, 9, 75, 80
2, 99600, Note_off_c, 9, 75, 80
2, 99600, Note_off_c, 9, 40, 80
2, 99600, Note_off_c, 9, 38, 80
2, 99600, Note_off_c, 9, 46, 80
2, 99600, Note_on_c, 9, 46, 100
2, 99840, Note_off_c, 9, 46, 80
2, 99840, Note_on_c, 9, 33, 100
2, 99840, Note_on_c, 9, 35, 100
2, 99840, Note_on_c, 9, 42, 100
2, 100080, Note_off_c, 9, 42, 80
2, 100080, Note_off_c, 9, 35, 80
2, 100080, Note_off_c, 9, 33, 80
2, 100080, Note_on_c, 9, 42, 100
2, 100080, Note_on_c, 9, 35, 100
2, 100080, Note_on_c, 9, 33, 100
2, 100320, Note_off_c, 9, 33, 80
2, 100320, Note_off_c, 9, 35, 80
2, 100320, Note_off_c, 9, 42, 80
2, 100320, Note_on_c, 9, 46, 100
2, 100320, Note_on_c, 9, 40, 100
2, 100320, Note_on_c, 9, 38, 100
2, 100320, Note_on_c, 9, 75, 100
2, 100320, Note_on_c, 9, 75, 100
2, 100560, Note_off_c, 9, 75, 80
2, 100560, Note_off_c, 9, 75, 80
2, 100560, Note_off_c, 9, 38, 80
2, 100560, Note_off_c, 9, 40, 80
2, 100560, Note_off_c, 9, 46, 80
2, 100560, Note_on_c, 9, 46, 100
2, 100680, Note_on_c, 9, 38, 100
2, 100800, Note_off_c, 9, 46, 80
2, 100800, Note_on_c, 9, 42, 100
2, 100920, Note_off_c, 9, 38, 80
2, 100920, Note_on_c, 9, 38, 100
2, 101040, Note_off_c, 9, 42, 80
2, 101040, Note_on_c, 9, 42, 100
2, 101040, Note_on_c, 9, 33, 100
2, 101040, Note_on_c, 9, 35, 100
2, 101160, Note_off_c, 9, 38, 80
2, 101280, Note_off_c, 9, 42, 80
2, 101280, Note_off_c, 9, 33, 80
2, 101280, Note_off_c, 9, 35, 80
2, 101280, Note_on_c, 9, 46, 100
2, 101280, Note_on_c, 9, 38, 100
2, 101280, Note_on_c, 9, 40, 100
2, 101280, Note_on_c, 9, 75, 100
2, 101280, Note_on_c, 9, 75, 100
2, 101520, Note_off_c, 9, 75, 80
2, 101520, Note_off_c, 9, 75, 80
2, 101520, Note_off_c, 9, 40, 80
2, 101520, Note_off_c, 9, 38, 80
2, 101520, Note_off_c, 9, 46, 80
2, 101520, Note_on_c, 9, 46, 100
2, 101760, Note_off_c, 9, 46, 80
2, 101760, Note_on_c, 9, 33, 100
2, 101760, Note_on_c, 9, 35, 100
2, 101760, Note_on_c, 9, 42, 100
2, 102000, Note_off_c, 9, 42, 80
2, 102000, Note_off_c, 9, 35, 80
2, 102000, Note_off_c, 9, 33, 80
2, 102000, Note_on_c, 9, 42, 100
2, 102000, Note_on_c, 9, 35, 100
2, 102000, Note_on_c, 9, 33, 100
2, 102240, Note_off_c, 9, 33, 80
2, 102240, Note_off_c, 9, 35, 80
2, 102240, Note_off_c, 9, 42, 80
2, 102240, Note_on_c, 9, 46, 100
2, 102240, Note_on_c, 9, 40, 100
2, 102240, Note_on_c, 9, 38, 100
2, 102240, Note_on_c, 9, 75, 100
2, 102240, Note_on_c, 9, 75, 100
2, 102480, Note_off_c, 9, 75, 80
2, 102480, Note_off_c, 9, 75, 80
2, 102480, Note_off_c, 9, 38, 80
2, 102480, Note_off_c, 9, 40, 80
2, 102480, Note_off_c, 9, 46, 80
2, 102480, Note_on_c, 9, 46, 100
2, 102600, Note_on_c, 9, 38, 100
2, 102720, Note_off_c, 9, 46, 80
2, 102720, Note_on_c, 9, 42, 100
2, 102840, Note_off_c, 9, 38, 80
2, 102840, Note_on_c, 9, 38, 100
2, 102960, Note_off_c, 9, 42, 80
2, 102960, Note_on_c, 9, 42, 100
2, 102960, Note_on_c, 9, 33, 100
2, 102960, Note_on_c, 9, 35, 100
2, 103080, Note_off_c, 9, 38, 80
2, 103200, Note_off_c, 9, 42, 80
2, 103200, Note_off_c, 9, 33, 80
2, 103200, Note_off_c, 9, 35, 80
2, 103200, Note_on_c, 9, 46, 100
2, 103200, Note_on_c, 9, 38, 100
2, 103200, Note_on_c, 9, 40, 100
2, 103200, Note_on_c, 9, 75, 100
2, 103200, Note_on_c, 9, 75, 100
2, 103440, Note_off_c, 9, 75, 80
2, 103440, Note_off_c, 9, 75, 80
2, 103440, Note_off_c, 9, 40, 80
2, 103440, Note_off_c, 9, 38, 80
2, 103440, Note_off_c, 9, 46, 80
2, 103440, Note_on_c, 9, 46, 100
2, 103680, Note_off_c, 9, 46, 80
2, 103680, Note_on_c, 9, 33, 100
2, 103680, Note_on_c, 9, 35, 100
2, 103680, Note_on_c, 9, 42, 100
2, 103920, Note_off_c, 9, 42, 80
2, 103920, Note_off_c, 9, 35, 80
2, 103920, Note_off_c, 9, 33, 80
2, 103920, Note_on_c, 9, 42, 100
2, 103920, Note_on_c, 9, 35, 100
2, 103920, Note_on_c, 9, 33, 100
2, 104160, Note_off_c, 9, 33, 80
2, 104160, Note_off_c, 9, 35, 80
2, 104160, Note_off_c, 9, 42, 80
2, 104160, Note_on_c, 9, 46, 100
2, 104160, Note_on_c, 9, 40, 100
2, 104160, Note_on_c, 9, 38, 100
2, 104160, Note_on_c, 9, 75, 100
2, 104160, Note_on_c, 9, 75, 100
2, 104400, Note_off_c, 9, 75, 80
2, 104400, Note_off_c, 9, 75, 80
2, 104400, Note_off_c, 9, 38, 80
2, 104400, Note_off_c, 9, 40, 80
2, 104400, Note_off_c, 9, 46, 80
2, 104400, Note_on_c, 9, 46, 100
2, 104520, Note_on_c, 9, 38, 100
2, 104640, Note_off_c, 9, 46, 80
2, 104640, Note_on_c, 9, 42, 100
2, 104760, Note_off_c, 9, 38, 80
2, 104760, Note_on_c, 9, 38, 100
2, 104880, Note_off_c, 9, 42, 80
2, 104880, Note_on_c, 9, 42, 100
2, 104880, Note_on_c, 9, 33, 100
2, 104880, Note_on_c, 9, 35, 100
2, 105000, Note_off_c, 9, 38, 80
2, 105120, Note_off_c, 9, 42, 80
2, 105120, Note_off_c, 9, 33, 80
2, 105120, Note_off_c, 9, 35, 80
2, 105120, Note_on_c, 9, 46, 100
2, 105120, Note_on_c, 9, 38, 100
2, 105120, Note_on_c, 9, 40, 100
2, 105120, Note_on_c, 9, 75, 100
2, 105120, Note_on_c, 9, 75, 100
2, 105360, Note_off_c, 9, 75, 80
2, 105360, Note_off_c, 9, 75, 80
2, 105360, Note_off_c, 9, 40, 80
2, 105360, Note_off_c, 9, 38, 80
2, 105360, Note_off_c, 9, 46, 80
2, 105360, Note_on_c, 9, 46, 100
2, 105600, Note_off_c, 9, 46, 80
2, 105600, Note_on_c, 9, 33, 100
2, 105600, Note_on_c, 9, 35, 100
2, 105600, Note_on_c, 9, 42, 100
2, 105840, Note_off_c, 9, 42, 80
2, 105840, Note_off_c, 9, 35, 80
2, 105840, Note_off_c, 9, 33, 80
2, 105840, Note_on_c, 9, 42, 100
2, 105840, Note_on_c, 9, 35, 100
2, 105840, Note_on_c, 9, 33, 100
2, 106080, Note_off_c, 9, 33, 80
2, 106080, Note_off_c, 9, 35, 80
2, 106080, Note_off_c, 9, 42, 80
2, 106080, Note_on_c, 9, 46, 100
2, 106080, Note_on_c, 9, 40, 100
2, 106080, Note_on_c, 9, 38, 100
2, 106080, Note_on_c, 9, 75, 100
2, 106080, Note_on_c, 9, 75, 100
2, 106320, Note_off_c, 9, 75, 80
2, 106320, Note_off_c, 9, 75, 80
2, 106320, Note_off_c, 9, 38, 80
2, 106320, Note_off_c, 9, 40, 80
2, 106320, Note_off_c, 9, 46, 80
2, 106320, Note_on_c, 9, 46, 100
2, 106440, Note_on_c, 9, 38, 100
2, 106560, Note_off_c, 9, 46, 80
2, 106560, Note_on_c, 9, 42, 100
2, 106680, Note_off_c, 9, 38, 80
2, 106680, Note_on_c, 9, 38, 100
2, 106800, Note_off_c, 9, 42, 80
2, 106800, Note_on_c, 9, 42, 100
2, 106800, Note_on_c, 9, 33, 100
2, 106800, Note_on_c, 9, 35, 100
2, 106920, Note_off_c, 9, 38, 80
2, 107040, Note_off_c, 9, 42, 80
2, 107040, Note_off_c, 9, 33, 80
2, 107040, Note_off_c, 9, 35, 80
2, 107040, Note_on_c, 9, 46, 100
2, 107040, Note_on_c, 9, 38, 100
2, 107040, Note_on_c, 9, 40, 100
2, 107040, Note_on_c, 9, 75, 100
2, 107040, Note_on_c, 9, 75, 100
2, 107280, Note_off_c, 9, 75, 80
2, 107280, Note_off_c, 9, 75, 80
2, 107280, Note_off_c, 9, 40, 80
2, 107280, Note_off_c, 9, 38, 80
2, 107280, Note_off_c, 9, 46, 80
2, 107280, Note_on_c, 9, 46, 100
2, 107520, Note_off_c, 9, 46, 80
2, 107520, Note_on_c, 9, 59, 100
2, 107520, Note_on_c, 9, 35, 100
2, 107760, Note_off_c, 9, 35, 80
2, 107760, Note_on_c, 9, 35, 100
2, 108000, Note_off_c, 9, 59, 80
2, 108000, Note_off_c, 9, 35, 80
2, 108000, Note_on_c, 9, 40, 100
2, 108000, Note_on_c, 9, 38, 100
2, 108000, Note_on_c, 9, 49, 100
2, 108000, Note_on_c, 9, 59, 100
2, 108240, Note_off_c, 9, 49, 80
2, 108240, Note_off_c, 9, 38, 80
2, 108240, Note_off_c, 9, 40, 80
2, 108240, Note_on_c, 9, 35, 100
2, 108360, Note_on_c, 9, 38, 100
2, 108480, Note_off_c, 9, 59, 80
2, 108480, Note_off_c, 9, 35, 80
2, 108480, Note_on_c, 9, 35, 100
2, 108480, Note_on_c, 9, 59, 100
2, 108600, Note_off_c, 9, 38, 80
2, 108600, Note_on_c, 9, 38, 100
2, 108720, Note_off_c, 9, 35, 80
2, 108720, Note_on_c, 9, 35, 100
2, 108840, Note_off_c, 9, 38, 80
2, 108960, Note_off_c, 9, 59, 80
2, 108960, Note_off_c, 9, 35, 80
2, 108960, Note_on_c, 9, 38, 100
2, 108960, Note_on_c, 9, 40, 100
2, 108960, Note_on_c, 9, 49, 100
2, 108960, Note_on_c, 9, 59, 100
2, 109200, Note_off_c, 9, 49, 80
2, 109200, Note_off_c, 9, 40, 80
2, 109200, Note_off_c, 9, 38, 80
2, 109200, Note_on_c, 9, 35, 100
2, 109320, Note_off_c, 9, 35, 80
2, 109320, Note_on_c, 9, 38, 100
2, 109440, Note_off_c, 9, 59, 80
2, 109440, Note_on_c, 9, 59, 100
2, 109440, Note_on_c, 9, 35, 100
2, 109450, Note_off_c, 9, 38, 80
2, 109680, Note_off_c, 9, 35, 80
2, 109680, Note_on_c, 9, 35, 100
2, 109920, Note_off_c, 9, 59, 80
2, 109920, Note_off_c, 9, 35, 80
2, 109920, Note_on_c, 9, 40, 100
2, 109920, Note_on_c, 9, 38, 100
2, 109920, Note_on_c, 9, 49, 100
2, 109920, Note_on_c, 9, 59, 100
2, 110160, Note_off_c, 9, 49, 80
2, 110160, Note_off_c, 9, 38, 80
2, 110160, Note_off_c, 9, 40, 80
2, 110160, Note_on_c, 9, 35, 100
2, 110280, Note_on_c, 9, 38, 100
2, 110400, Note_off_c, 9, 59, 80
2, 110400, Note_off_c, 9, 35, 80
2, 110400, Note_on_c, 9, 35, 100
2, 110400, Note_on_c, 9, 59, 100
2, 110520, Note_off_c, 9, 38, 80
2, 110520, Note_on_c, 9, 38, 100
2, 110640, Note_off_c, 9, 35, 80
2, 110640, Note_on_c, 9, 35, 100
2, 110760, Note_off_c, 9, 38, 80
2, 110880, Note_off_c, 9, 59, 80
2, 110880, Note_off_c, 9, 35, 80
2, 110880, Note_on_c, 9, 38, 100
2, 110880, Note_on_c, 9, 40, 100
2, 110880, Note_on_c, 9, 49, 100
2, 110880, Note_on_c, 9, 59, 100
2, 111120, Note_off_c, 9, 49, 80
2, 111120, Note_off_c, 9, 40, 80
2, 111120, Note_off_c, 9, 38, 80
2, 111120, Note_on_c, 9, 35, 100
2, 111240, Note_off_c, 9, 35, 80
2, 111240, Note_on_c, 9, 38, 100
2, 111360, Note_off_c, 9, 59, 80
2, 111360, Note_on_c, 9, 59, 100
2, 111360, Note_on_c, 9, 35, 100
2, 111370, Note_off_c, 9, 38, 80
2, 111600, Note_off_c, 9, 35, 80
2, 111600, Note_on_c, 9, 35, 100
2, 111840, Note_off_c, 9, 59, 80
2, 111840, Note_off_c, 9, 35, 80
2, 111840, Note_on_c, 9, 40, 100
2, 111840, Note_on_c, 9, 38, 100
2, 111840, Note_on_c, 9, 49, 100
2, 111840, Note_on_c, 9, 59, 100
2, 112080, Note_off_c, 9, 49, 80
2, 112080, Note_off_c, 9, 38, 80
2, 112080, Note_off_c, 9, 40, 80
2, 112080, Note_on_c, 9, 35, 100
2, 112200, Note_on_c, 9, 38, 100
2, 112320, Note_off_c, 9, 59, 80
2, 112320, Note_off_c, 9, 35, 80
2, 112320, Note_on_c, 9, 35, 100
2, 112320, Note_on_c, 9, 59, 100
2, 112440, Note_off_c, 9, 38, 80
2, 112440, Note_on_c, 9, 38, 100
2, 112560, Note_off_c, 9, 35, 80
2, 112560, Note_on_c, 9, 35, 100
2, 112680, Note_off_c, 9, 38, 80
2, 112800, Note_off_c, 9, 59, 80
2, 112800, Note_off_c, 9, 35, 80
2, 112800, Note_on_c, 9, 38, 100
2, 112800, Note_on_c, 9, 40, 100
2, 112800, Note_on_c, 9, 49, 100
2, 112800, Note_on_c, 9, 59, 100
2, 113040, Note_off_c, 9, 49, 80
2, 113040, Note_off_c, 9, 40, 80
2, 113040, Note_off_c, 9, 38, 80
2, 113040, Note_on_c, 9, 35, 100
2, 113160, Note_off_c, 9, 35, 80
2, 113160, Note_on_c, 9, 38, 100
2, 113280, Note_off_c, 9, 59, 80
2, 113280, Note_on_c, 9, 59, 100
2, 113280, Note_on_c, 9, 35, 100
2, 113290, Note_off_c, 9, 38, 80
2, 113520, Note_off_c, 9, 35, 80
2, 113520, Note_on_c, 9, 35, 100
2, 113760, Note_off_c, 9, 59, 80
2, 113760, Note_off_c, 9, 35, 80
2, 113760, Note_on_c, 9, 40, 100
2, 113760, Note_on_c, 9, 38, 100
2, 113760, Note_on_c, 9, 49, 100
2, 113760, Note_on_c, 9, 59, 100
2, 114000, Note_off_c, 9, 49, 80
2, 114000, Note_off_c, 9, 38, 80
2, 114000, Note_off_c, 9, 40, 80
2, 114000, Note_on_c, 9, 35, 100
2, 114120, Note_on_c, 9, 38, 100
2, 114240, Note_off_c, 9, 59, 80
2, 114240, Note_off_c, 9, 35, 80
2, 114240, Note_on_c, 9, 35, 100
2, 114240, Note_on_c, 9, 59, 100
2, 114360, Note_off_c, 9, 38, 80
2, 114360, Note_on_c, 9, 38, 100
2, 114480, Note_off_c, 9, 35, 80
2, 114480, Note_on_c, 9, 35, 100
2, 114600, Note_off_c, 9, 38, 80
2, 114720, Note_off_c, 9, 59, 80
2, 114720, Note_off_c, 9, 35, 80
2, 114720, Note_on_c, 9, 38, 100
2, 114720, Note_on_c, 9, 40, 100
2, 114720, Note_on_c, 9, 49, 100
2, 114720, Note_on_c, 9, 59, 100
2, 114960, Note_off_c, 9, 49, 80
2, 114960, Note_off_c, 9, 40, 80
2, 114960, Note_off_c, 9, 38, 80
2, 114960, Note_on_c, 9, 35, 100
2, 115080, Note_off_c, 9, 35, 80
2, 115080, Note_on_c, 9, 38, 100
2, 115200, Note_off_c, 9, 59, 80
2, 115200, Note_on_c, 9, 59, 100
2, 115200, Note_on_c, 9, 35, 100
2, 115210, Note_off_c, 9, 38, 80
2, 115440, Note_off_c, 9, 35, 80
2, 115440, Note_on_c, 9, 35, 100
2, 115680, Note_off_c, 9, 59, 80
2, 115680, Note_off_c, 9, 35, 80
2, 115680, Note_on_c, 9, 40, 100
2, 115680, Note_on_c, 9, 38, 100
2, 115680, Note_on_c, 9, 49, 100
2, 115680, Note_on_c, 9, 59, 100
2, 115920, Note_off_c, 9, 49, 80
2, 115920, Note_off_c, 9, 38, 80
2, 115920, Note_off_c, 9, 40, 80
2, 115920, Note_on_c, 9, 35, 100
2, 116040, Note_on_c, 9, 38, 100
2, 116160, Note_off_c, 9, 59, 80
2, 116160, Note_off_c, 9, 35, 80
2, 116160, Note_on_c, 9, 35, 100
2, 116160, Note_on_c, 9, 59, 100
2, 116280, Note_off_c, 9, 38, 80
2, 116280, Note_on_c, 9, 38, 100
2, 116400, Note_off_c, 9, 35, 80
2, 116400, Note_on_c, 9, 35, 100
2, 116520, Note_off_c, 9, 38, 80
2, 116640, Note_off_c, 9, 59, 80
2, 116640, Note_off_c, 9, 35, 80
2, 116640, Note_on_c, 9, 38, 100
2, 116640, Note_on_c, 9, 40, 100
2, 116640, Note_on_c, 9, 49, 100
2, 116640, Note_on_c, 9, 59, 100
2, 116880, Note_off_c, 9, 49, 80
2, 116880, Note_off_c, 9, 40, 80
2, 116880, Note_off_c, 9, 38, 80
2, 116880, Note_on_c, 9, 35, 100
2, 117000, Note_off_c, 9, 35, 80
2, 117000, Note_on_c, 9, 38, 100
2, 117120, Note_off_c, 9, 59, 80
2, 117120, Note_on_c, 9, 59, 100
2, 117120, Note_on_c, 9, 35, 100
2, 117130, Note_off_c, 9, 38, 80
2, 117360, Note_off_c, 9, 35, 80
2, 117360, Note_on_c, 9, 35, 100
2, 117600, Note_off_c, 9, 59, 80
2, 117600, Note_off_c, 9, 35, 80
2, 117600, Note_on_c, 9, 40, 100
2, 117600, Note_on_c, 9, 38, 100
2, 117600, Note_on_c, 9, 49, 100
2, 117600, Note_on_c, 9, 59, 100
2, 117840, Note_off_c, 9, 49, 80
2, 117840, Note_off_c, 9, 38, 80
2, 117840, Note_off_c, 9, 40, 80
2, 117840, Note_on_c, 9, 35, 100
2, 117960, Note_on_c, 9, 38, 100
2, 118080, Note_off_c, 9, 59, 80
2, 118080, Note_off_c, 9, 35, 80
2, 118080, Note_on_c, 9, 35, 100
2, 118080, Note_on_c, 9, 59, 100
2, 118200, Note_off_c, 9, 38, 80
2, 118200, Note_on_c, 9, 38, 100
2, 118320, Note_off_c, 9, 35, 80
2, 118320, Note_on_c, 9, 35, 100
2, 118440, Note_off_c, 9, 38, 80
2, 118560, Note_off_c, 9, 59, 80
2, 118560, Note_off_c, 9, 35, 80
2, 118560, Note_on_c, 9, 38, 100
2, 118560, Note_on_c, 9, 40, 100
2, 118560, Note_on_c, 9, 49, 100
2, 118560, Note_on_c, 9, 59, 100
2, 118800, Note_off_c, 9, 49, 80
2, 118800, Note_off_c, 9, 40, 80
2, 118800, Note_off_c, 9, 38, 80
2, 118800, Note_on_c, 9, 35, 100
2, 118920, Note_off_c, 9, 35, 80
2, 118920, Note_on_c, 9, 38, 100
2, 119040, Note_off_c, 9, 59, 80
2, 119040, Note_on_c, 9, 59, 100
2, 119040, Note_on_c, 9, 35, 100
2, 119050, Note_off_c, 9, 38, 80
2, 119280, Note_off_c, 9, 35, 80
2, 119280, Note_on_c, 9, 35, 100
2, 119520, Note_off_c, 9, 59, 80
2, 119520, Note_off_c, 9, 35, 80
2, 119520, Note_on_c, 9, 40, 100
2, 119520, Note_on_c, 9, 38, 100
2, 119520, Note_on_c, 9, 49, 100
2, 119520, Note_on_c, 9, 59, 100
2, 119760, Note_off_c, 9, 49, 80
2, 119760, Note_off_c, 9, 38, 80
2, 119760, Note_off_c, 9, 40, 80
2, 119760, Note_on_c, 9, 35, 100
2, 119880, Note_on_c, 9, 38, 100
2, 120000, Note_off_c, 9, 59, 80
2, 120000, Note_off_c, 9, 35, 80
2, 120000, Note_on_c, 9, 35, 100
2, 120000, Note_on_c, 9, 59, 100
2, 120120, Note_off_c, 9, 38, 80
2, 120120, Note_on_c, 9, 38, 100
2, 120240, Note_off_c, 9, 35, 80
2, 120240, Note_on_c, 9, 35, 100
2, 120360, Note_off_c, 9, 38, 80
2, 120480, Note_off_c, 9, 59, 80
2, 120480, Note_off_c, 9, 35, 80
2, 120480, Note_on_c, 9, 38, 100
2, 120480, Note_on_c, 9, 40, 100
2, 120480, Note_on_c, 9, 49, 100
2, 120480, Note_on_c, 9, 59, 100
2, 120720, Note_off_c, 9, 49, 80
2, 120720, Note_off_c, 9, 40, 80
2, 120720, Note_off_c, 9, 38, 80
2, 120720, Note_on_c, 9, 35, 100
2, 120840, Note_off_c, 9, 35, 80
2, 120840, Note_on_c, 9, 38, 100
2, 120960, Note_off_c, 9, 59, 80
2, 120960, Note_on_c, 9, 59, 100
2, 120960, Note_on_c, 9, 35, 100
2, 120970, Note_off_c, 9, 38, 80
2, 121200, Note_off_c, 9, 35, 80
2, 121200, Note_on_c, 9, 35, 100
2, 121440, Note_off_c, 9, 59, 80
2, 121440, Note_off_c, 9, 35, 80
2, 121440, Note_on_c, 9, 40, 100
2, 121440, Note_on_c, 9, 38, 100
2, 121440, Note_on_c, 9, 49, 100
2, 121440, Note_on_c, 9, 59, 100
2, 121680, Note_off_c, 9, 49, 80
2, 121680, Note_off_c, 9, 38, 80
2, 121680, Note_off_c, 9, 40, 80
2, 121680, Note_on_c, 9, 35, 100
2, 121800, Note_on_c, 9, 38, 100
2, 121920, Note_off_c, 9, 59, 80
2, 121920, Note_off_c, 9, 35, 80
2, 121920, Note_on_c, 9, 35, 100
2, 121920, Note_on_c, 9, 59, 100
2, 122040, Note_off_c, 9, 38, 80
2, 122040, Note_on_c, 9, 38, 100
2, 122160, Note_off_c, 9, 35, 80
2, 122160, Note_on_c, 9, 35, 100
2, 122280, Note_off_c, 9, 38, 80
2, 122400, Note_off_c, 9, 59, 80
2, 122400, Note_off_c, 9, 35, 80
2, 122400, Note_on_c, 9, 38, 100
2, 122400, Note_on_c, 9, 40, 100
2, 122400, Note_on_c, 9, 49, 100
2, 122400, Note_on_c, 9, 59, 100
2, 122640, Note_off_c, 9, 49, 80
2, 122640, Note_off_c, 9, 40, 80
2, 122640, Note_off_c, 9, 38, 80
2, 122640, Note_on_c, 9, 35, 100
2, 122760, Note_off_c, 9, 35, 80
2, 122760, Note_on_c, 9, 38, 100
2, 122880, Note_off_c, 9, 59, 80
2, 122880, Note_on_c, 9, 80, 100
2, 122890, Note_off_c, 9, 38, 80
2, 123113, Note_off_c, 9, 80, 80
2, 123240, Note_on_c, 9, 80, 100
2, 123360, Note_off_c, 9, 80, 80
2, 123360, Note_on_c, 9, 80, 100
2, 123490, Note_off_c, 9, 80, 80
2, 123600, Note_on_c, 9, 80, 100
2, 123840, Note_off_c, 9, 80, 80
2, 123960, Note_on_c, 9, 80, 100
2, 124080, Note_off_c, 9, 80, 80
2, 124080, Note_on_c, 9, 80, 100
2, 124200, Note_off_c, 9, 80, 80
2, 124320, Note_on_c, 9, 80, 100
2, 124560, Note_off_c, 9, 80, 80
2, 124800, Note_on_c, 9, 80, 100
2, 124920, Note_off_c, 9, 80, 80
2, 124920, Note_on_c, 9, 80, 100
2, 125040, Note_off_c, 9, 80, 80
2, 125160, Note_on_c, 9, 80, 100
2, 125280, Note_off_c, 9, 80, 80
2, 125280, Note_on_c, 9, 80, 100
2, 125410, Note_off_c, 9, 80, 80
2, 125520, Note_on_c, 9, 80, 100
2, 125760, Note_off_c, 9, 80, 80
2, 125880, Note_on_c, 9, 80, 100
2, 126000, Note_off_c, 9, 80, 80
2, 126000, Note_on_c, 9, 80, 100
2, 126120, Note_off_c, 9, 80, 80
2, 126240, Note_on_c, 9, 80, 100
2, 126480, Note_off_c, 9, 80, 80
2, 126720, Note_on_c, 9, 80, 100
2, 126953, Note_off_c, 9, 80, 80
2, 127080, Note_on_c, 9, 80, 100
2, 127200, Note_off_c, 9, 80, 80
2, 127200, Note_on_c, 9, 80, 100
2, 127330, Note_off_c, 9, 80, 80
2, 127440, Note_on_c, 9, 80, 100
2, 127680, Note_off_c, 9, 80, 80
2, 127800, Note_on_c, 9, 80, 100
2, 127920, Note_off_c, 9, 80, 80
2, 127920, Note_on_c, 9, 80, 100
2, 128040, Note_off_c, 9, 80, 80
2, 128160, Note_on_c, 9, 80, 100
2, 128400, Note_off_c, 9, 80, 80
2, 128640, Note_on_c, 9, 80, 100
2, 128760, Note_off_c, 9, 80, 80
2, 128760, Note_on_c, 9, 80, 100
2, 128880, Note_off_c, 9, 80, 80
2, 129000, Note_on_c, 9, 80, 100
2, 129120, Note_off_c, 9, 80, 80
2, 129120, Note_on_c, 9, 80, 100
2, 129250, Note_off_c, 9, 80, 80
2, 129360, Note_on_c, 9, 80, 100
2, 129600, Note_off_c, 9, 80, 80
2, 129720, Note_on_c, 9, 80, 100
2, 129840, Note_off_c, 9, 80, 80
2, 129840, Note_on_c, 9, 80, 100
2, 129960, Note_off_c, 9, 80, 80
2, 130080, Note_on_c, 9, 80, 100
2, 130320, Note_off_c, 9, 80, 80
2, 130560, Note_on_c, 9, 80, 100
2, 130793, Note_off_c, 9, 80, 80
2, 130920, Note_on_c, 9, 80, 100
2, 131040, Note_off_c, 9, 80, 80
2, 131040, Note_on_c, 9, 80, 100
2, 131170, Note_off_c, 9, 80, 80
2, 131280, Note_on_c, 9, 80, 100
2, 131520, Note_off_c, 9, 80, 80
2, 131640, Note_on_c, 9, 80, 100
2, 131760, Note_off_c, 9, 80, 80
2, 131760, Note_on_c, 9, 80, 100
2, 131880, Note_off_c, 9, 80, 80
2, 132000, Note_on_c, 9, 80, 100
2, 132240, Note_off_c, 9, 80, 80
2, 132480, Note_on_c, 9, 80, 100
2, 132600, Note_off_c, 9, 80, 80
2, 132600, Note_on_c, 9, 80, 100
2, 132720, Note_off_c, 9, 80, 80
2, 132840, Note_on_c, 9, 80, 100
2, 132960, Note_off_c, 9, 80, 80
2, 132960, Note_on_c, 9, 80, 100
2, 133090, Note_off_c, 9, 80, 80
2, 133200, Note_on_c, 9, 80, 100
2, 133440, Note_off_c, 9, 80, 80
2, 133560, Note_on_c, 9, 80, 100
2, 133680, Note_off_c, 9, 80, 80
2, 133680, Note_on_c, 9, 80, 100
2, 133800, Note_off_c, 9, 80, 80
2, 133920, Note_on_c, 9, 80, 100
2, 133920, Note_on_c, 9, 47, 50
2, 134040, Note_off_c, 9, 47, 127
2, 134040, Note_on_c, 9, 43, 50
2, 134160, Note_off_c, 9, 80, 80
2, 134160, Note_off_c, 9, 43, 80
2, 134160, Note_on_c, 9, 41, 50
2, 134280, Note_off_c, 9, 41, 80
2, 134280, Note_on_c, 9, 43, 50
2, 134400, Note_off_c, 9, 43, 80
2, 134400, Note_on_c, 9, 80, 100
2, 134633, Note_off_c, 9, 80, 80
2, 134760, Note_on_c, 9, 80, 100
2, 134880, Note_off_c, 9, 80, 80
2, 134880, Note_on_c, 9, 80, 100
2, 135010, Note_off_c, 9, 80, 80
2, 135120, Note_on_c, 9, 80, 100
2, 135360, Note_off_c, 9, 80, 80
2, 135480, Note_on_c, 9, 80, 100
2, 135600, Note_off_c, 9, 80, 80
2, 135600, Note_on_c, 9, 80, 100
2, 135720, Note_off_c, 9, 80, 80
2, 135840, Note_on_c, 9, 80, 100
2, 136080, Note_off_c, 9, 80, 80
2, 136320, Note_on_c, 9, 80, 100
2, 136440, Note_off_c, 9, 80, 80
2, 136440, Note_on_c, 9, 80, 100
2, 136560, Note_off_c, 9, 80, 80
2, 136680, Note_on_c, 9, 80, 100
2, 136800, Note_off_c, 9, 80, 80
2, 136800, Note_on_c, 9, 80, 100
2, 136930, Note_off_c, 9, 80, 80
2, 137040, Note_on_c, 9, 80, 100
2, 137040, Note_on_c, 9, 45, 100
2, 137160, Note_off_c, 9, 45, 80
2, 137160, Note_on_c, 9, 47, 100
2, 137160, Note_on_c, 9, 45, 100
2, 137280, Note_off_c, 9, 45, 80
2, 137280, Note_off_c, 9, 80, 80
2, 137280, Note_off_c, 9, 47, 80
2, 137280, Note_on_c, 9, 50, 100
2, 137400, Note_off_c, 9, 50, 80
2, 137400, Note_on_c, 9, 80, 100
2, 137400, Note_on_c, 9, 43, 100
2, 137400, Note_on_c, 9, 47, 100
2, 137520, Note_off_c, 9, 47, 80
2, 137520, Note_off_c, 9, 43, 80
2, 137520, Note_off_c, 9, 80, 80
2, 137520, Note_on_c, 9, 80, 100
2, 137520, Note_on_c, 9, 41, 100
2, 137640, Note_off_c, 9, 41, 80
2, 137640, Note_off_c, 9, 80, 80
2, 137640, Note_on_c, 9, 43, 100
2, 137760, Note_off_c, 9, 43, 80
2, 137760, Note_on_c, 9, 80, 100
2, 137760, Note_on_c, 9, 47, 100
2, 137880, Note_off_c, 9, 47, 80
2, 137880, Note_on_c, 9, 41, 100
2, 137880, Note_on_c, 9, 48, 100
2, 137880, Note_on_c, 9, 50, 100
2, 137880, Note_on_c, 9, 45, 100
2, 138000, Note_off_c, 9, 45, 80
2, 138000, Note_off_c, 9, 50, 80
2, 138000, Note_off_c, 9, 48, 80
2, 138000, Note_off_c, 9, 80, 80
2, 138000, Note_off_c, 9, 41, 80
2, 138000, Note_on_c, 9, 36, 100
2, 138120, Note_off_c, 9, 36, 80
2, 138120, Note_on_c, 9, 41, 100
2, 138120, Note_on_c, 9, 47, 100
2, 138120, Note_on_c, 9, 48, 100
2, 138240, Note_off_c, 9, 48, 80
2, 138240, Note_off_c, 9, 47, 80
2, 138240, Note_off_c, 9, 41, 80
2, 138240, Note_on_c, 9, 59, 100
2, 138240, Note_on_c, 9, 35, 100
2, 138480, Note_off_c, 9, 35, 80
2, 138480, Note_on_c, 9, 35, 100
2, 138720, Note_off_c, 9, 59, 80
2, 138720, Note_off_c, 9, 35, 80
2, 138720, Note_on_c, 9, 40, 100
2, 138720, Note_on_c, 9, 38, 100
2, 138720, Note_on_c, 9, 49, 100
2, 138720, Note_on_c, 9, 59, 100
2, 138960, Note_off_c, 9, 49, 80
2, 138960, Note_off_c, 9, 38, 80
2, 138960, Note_off_c, 9, 40, 80
2, 138960, Note_on_c, 9, 35, 100
2, 139080, Note_on_c, 9, 38, 100
2, 139200, Note_off_c, 9, 59, 80
2, 139200, Note_off_c, 9, 35, 80
2, 139200, Note_on_c, 9, 35, 100
2, 139200, Note_on_c, 9, 59, 100
2, 139320, Note_off_c, 9, 38, 80
2, 139320, Note_on_c, 9, 38, 100
2, 139440, Note_off_c, 9, 35, 80
2, 139440, Note_on_c, 9, 35, 100
2, 139560, Note_off_c, 9, 38, 80
2, 139680, Note_off_c, 9, 59, 80
2, 139680, Note_off_c, 9, 35, 80
2, 139680, Note_on_c, 9, 38, 100
2, 139680, Note_on_c, 9, 40, 100
2, 139680, Note_on_c, 9, 49, 100
2, 139680, Note_on_c, 9, 59, 100
2, 139920, Note_off_c, 9, 49, 80
2, 139920, Note_off_c, 9, 40, 80
2, 139920, Note_off_c, 9, 38, 80
2, 139920, Note_on_c, 9, 35, 100
2, 140040, Note_off_c, 9, 35, 80
2, 140040, Note_on_c, 9, 38, 100
2, 140160, Note_off_c, 9, 59, 80
2, 140160, Note_on_c, 9, 59, 100
2, 140160, Note_on_c, 9, 35, 100
2, 140170, Note_off_c, 9, 38, 80
2, 140400, Note_off_c, 9, 35, 80
2, 140400, Note_on_c, 9, 35, 100
2, 140640, Note_off_c, 9, 59, 80
2, 140640, Note_off_c, 9, 35, 80
2, 140640, Note_on_c, 9, 40, 100
2, 140640, Note_on_c, 9, 38, 100
2, 140640, Note_on_c, 9, 49, 100
2, 140640, Note_on_c, 9, 59, 100
2, 140880, Note_off_c, 9, 49, 80
2, 140880, Note_off_c, 9, 38, 80
2, 140880, Note_off_c, 9, 40, 80
2, 140880, Note_on_c, 9, 35, 100
2, 141000, Note_on_c, 9, 38, 100
2, 141120, Note_off_c, 9, 59, 80
2, 141120, Note_off_c, 9, 35, 80
2, 141120, Note_on_c, 9, 35, 100
2, 141120, Note_on_c, 9, 59, 100
2, 141240, Note_off_c, 9, 38, 80
2, 141240, Note_on_c, 9, 38, 100
2, 141360, Note_off_c, 9, 35, 80
2, 141360, Note_on_c, 9, 35, 100
2, 141480, Note_off_c, 9, 38, 80
2, 141600, Note_off_c, 9, 59, 80
2, 141600, Note_off_c, 9, 35, 80
2, 141600, Note_on_c, 9, 38, 100
2, 141600, Note_on_c, 9, 40, 100
2, 141600, Note_on_c, 9, 49, 100
2, 141600, Note_on_c, 9, 59, 100
2, 141840, Note_off_c, 9, 49, 80
2, 141840, Note_off_c, 9, 40, 80
2, 141840, Note_off_c, 9, 38, 80
2, 141840, Note_on_c, 9, 35, 100
2, 141960, Note_off_c, 9, 35, 80
2, 141960, Note_on_c, 9, 38, 100
2, 142080, Note_off_c, 9, 59, 80
2, 142080, Note_on_c, 9, 59, 100
2, 142080, Note_on_c, 9, 35, 100
2, 142090, Note_off_c, 9, 38, 80
2, 142320, Note_off_c, 9, 35, 80
2, 142320, Note_on_c, 9, 35, 100
2, 142560, Note_off_c, 9, 59, 80
2, 142560, Note_off_c, 9, 35, 80
2, 142560, Note_on_c, 9, 40, 100
2, 142560, Note_on_c, 9, 38, 100
2, 142560, Note_on_c, 9, 49, 100
2, 142560, Note_on_c, 9, 59, 100
2, 142800, Note_off_c, 9, 49, 80
2, 142800, Note_off_c, 9, 38, 80
2, 142800, Note_off_c, 9, 40, 80
2, 142800, Note_on_c, 9, 35, 100
2, 142920, Note_on_c, 9, 38, 100
2, 143040, Note_off_c, 9, 59, 80
2, 143040, Note_off_c, 9, 35, 80
2, 143040, Note_on_c, 9, 35, 100
2, 143040, Note_on_c, 9, 59, 100
2, 143160, Note_off_c, 9, 38, 80
2, 143160, Note_on_c, 9, 38, 100
2, 143280, Note_off_c, 9, 35, 80
2, 143280, Note_on_c, 9, 35, 100
2, 143400, Note_off_c, 9, 38, 80
2, 143520, Note_off_c, 9, 59, 80
2, 143520, Note_off_c, 9, 35, 80
2, 143520, Note_on_c, 9, 38, 100
2, 143520, Note_on_c, 9, 40, 100
2, 143520, Note_on_c, 9, 49, 100
2, 143520, Note_on_c, 9, 59, 100
2, 143760, Note_off_c, 9, 49, 80
2, 143760, Note_off_c, 9, 40, 80
2, 143760, Note_off_c, 9, 38, 80
2, 143760, Note_on_c, 9, 35, 100
2, 143880, Note_off_c, 9, 35, 80
2, 143880, Note_on_c, 9, 38, 100
2, 144000, Note_off_c, 9, 59, 80
2, 144000, Note_on_c, 9, 59, 100
2, 144000, Note_on_c, 9, 35, 100
2, 144010, Note_off_c, 9, 38, 80
2, 144240, Note_off_c, 9, 35, 80
2, 144240, Note_on_c, 9, 35, 100
2, 144480, Note_off_c, 9, 59, 80
2, 144480, Note_off_c, 9, 35, 80
2, 144480, Note_on_c, 9, 40, 100
2, 144480, Note_on_c, 9, 38, 100
2, 144480, Note_on_c, 9, 49, 100
2, 144480, Note_on_c, 9, 59, 100
2, 144720, Note_off_c, 9, 49, 80
2, 144720, Note_off_c, 9, 38, 80
2, 144720, Note_off_c, 9, 40, 80
2, 144720, Note_on_c, 9, 35, 100
2, 144840, Note_on_c, 9, 38, 100
2, 144960, Note_off_c, 9, 59, 80
2, 144960, Note_off_c, 9, 35, 80
2, 144960, Note_on_c, 9, 35, 100
2, 144960, Note_on_c, 9, 59, 100
2, 145080, Note_off_c, 9, 38, 80
2, 145080, Note_on_c, 9, 38, 100
2, 145200, Note_off_c, 9, 35, 80
2, 145200, Note_on_c, 9, 35, 100
2, 145320, Note_off_c, 9, 38, 80
2, 145440, Note_off_c, 9, 59, 80
2, 145440, Note_off_c, 9, 35, 80
2, 145920, Note_on_c, 9, 33, 100
2, 145920, Note_on_c, 9, 35, 100
2, 145920, Note_on_c, 9, 42, 100
2, 146160, Note_off_c, 9, 42, 80
2, 146160, Note_off_c, 9, 35, 80
2, 146160, Note_off_c, 9, 33, 80
2, 146160, Note_on_c, 9, 42, 100
2, 146160, Note_on_c, 9, 35, 100
2, 146160, Note_on_c, 9, 33, 100
2, 146400, Note_off_c, 9, 33, 80
2, 146400, Note_off_c, 9, 35, 80
2, 146400, Note_off_c, 9, 42, 80
2, 146400, Note_on_c, 9, 46, 100
2, 146400, Note_on_c, 9, 40, 100
2, 146400, Note_on_c, 9, 38, 100
2, 146400, Note_on_c, 9, 75, 100
2, 146400, Note_on_c, 9, 75, 100
2, 146640, Note_off_c, 9, 75, 80
2, 146640, Note_off_c, 9, 75, 80
2, 146640, Note_off_c, 9, 38, 80
2, 146640, Note_off_c, 9, 40, 80
2, 146640, Note_off_c, 9, 46, 80
2, 146640, Note_on_c, 9, 46, 100
2, 146760, Note_on_c, 9, 38, 100
2, 146880, Note_off_c, 9, 46, 80
2, 146880, Note_on_c, 9, 42, 100
2, 147000, Note_off_c, 9, 38, 80
2, 147000, Note_on_c, 9, 38, 100
2, 147120, Note_off_c, 9, 42, 80
2, 147120, Note_on_c, 9, 42, 100
2, 147120, Note_on_c, 9, 33, 100
2, 147120, Note_on_c, 9, 35, 100
2, 147240, Note_off_c, 9, 38, 80
2, 147360, Note_off_c, 9, 42, 80
2, 147360, Note_off_c, 9, 33, 80
2, 147360, Note_off_c, 9, 35, 80
2, 147360, Note_on_c, 9, 46, 100
2, 147360, Note_on_c, 9, 38, 100
2, 147360, Note_on_c, 9, 40, 100
2, 147360, Note_on_c, 9, 75, 100
2, 147360, Note_on_c, 9, 75, 100
2, 147600, Note_off_c, 9, 75, 80
2, 147600, Note_off_c, 9, 75, 80
2, 147600, Note_off_c, 9, 40, 80
2, 147600, Note_off_c, 9, 38, 80
2, 147600, Note_off_c, 9, 46, 80
2, 147600, Note_on_c, 9, 46, 100
2, 147840, Note_off_c, 9, 46, 80
2, 147840, Note_on_c, 9, 33, 100
2, 147840, Note_on_c, 9, 35, 100
2, 147840, Note_on_c, 9, 42, 100
2, 148080, Note_off_c, 9, 42, 80
2, 148080, Note_off_c, 9, 35, 80
2, 148080, Note_off_c, 9, 33, 80
2, 148080, Note_on_c, 9, 42, 100
2, 148080, Note_on_c, 9, 35, 100
2, 148080, Note_on_c, 9, 33, 100
2, 148320, Note_off_c, 9, 33, 80
2, 148320, Note_off_c, 9, 35, 80
2, 148320, Note_off_c, 9, 42, 80
2, 148320, Note_on_c, 9, 46, 100
2, 148320, Note_on_c, 9, 40, 100
2, 148320, Note_on_c, 9, 38, 100
2, 148320, Note_on_c, 9, 75, 100
2, 148320, Note_on_c, 9, 75, 100
2, 148560, Note_off_c, 9, 75, 80
2, 148560, Note_off_c, 9, 75, 80
2, 148560, Note_off_c, 9, 38, 80
2, 148560, Note_off_c, 9, 40, 80
2, 148560, Note_off_c, 9, 46, 80
2, 148560, Note_on_c, 9, 46, 100
2, 148680, Note_on_c, 9, 38, 100
2, 148800, Note_off_c, 9, 46, 80
2, 148800, Note_on_c, 9, 42, 100
2, 148920, Note_off_c, 9, 38, 80
2, 148920, Note_on_c, 9, 38, 100
2, 149040, Note_off_c, 9, 42, 80
2, 149040, Note_on_c, 9, 42, 100
2, 149040, Note_on_c, 9, 33, 100
2, 149040, Note_on_c, 9, 35, 100
2, 149160, Note_off_c, 9, 38, 80
2, 149280, Note_off_c, 9, 42, 80
2, 149280, Note_off_c, 9, 33, 80
2, 149280, Note_off_c, 9, 35, 80
2, 149280, Note_on_c, 9, 46, 100
2, 149280, Note_on_c, 9, 38, 100
2, 149280, Note_on_c, 9, 40, 100
2, 149280, Note_on_c, 9, 75, 100
2, 149280, Note_on_c, 9, 75, 100
2, 149520, Note_off_c, 9, 75, 80
2, 149520, Note_off_c, 9, 75, 80
2, 149520, Note_off_c, 9, 40, 80
2, 149520, Note_off_c, 9, 38, 80
2, 149520, Note_off_c, 9, 46, 80
2, 149520, Note_on_c, 9, 46, 100
2, 149760, Note_off_c, 9, 46, 80
2, 149760, Note_on_c, 9, 33, 100
2, 149760, Note_on_c, 9, 35, 100
2, 149760, Note_on_c, 9, 42, 100
2, 150000, Note_off_c, 9, 42, 80
2, 150000, Note_off_c, 9, 35, 80
2, 150000, Note_off_c, 9, 33, 80
2, 150000, Note_on_c, 9, 42, 100
2, 150000, Note_on_c, 9, 35, 100
2, 150000, Note_on_c, 9, 33, 100
2, 150240, Note_off_c, 9, 33, 80
2, 150240, Note_off_c, 9, 35, 80
2, 150240, Note_off_c, 9, 42, 80
2, 150240, Note_on_c, 9, 46, 100
2, 150240, Note_on_c, 9, 40, 100
2, 150240, Note_on_c, 9, 38, 100
2, 150240, Note_on_c, 9, 75, 100
2, 150240, Note_on_c, 9, 75, 100
2, 150480, Note_off_c, 9, 75, 80
2, 150480, Note_off_c, 9, 75, 80
2, 150480, Note_off_c, 9, 38, 80
2, 150480, Note_off_c, 9, 40, 80
2, 150480, Note_off_c, 9, 46, 80
2, 150480, Note_on_c, 9, 46, 100
2, 150600, Note_on_c, 9, 38, 100
2, 150720, Note_off_c, 9, 46, 80
2, 150720, Note_on_c, 9, 42, 100
2, 150840, Note_off_c, 9, 38, 80
2, 150840, Note_on_c, 9, 38, 100
2, 150960, Note_off_c, 9, 42, 80
2, 150960, Note_on_c, 9, 42, 100
2, 150960, Note_on_c, 9, 33, 100
2, 150960, Note_on_c, 9, 35, 100
2, 151080, Note_off_c, 9, 38, 80
2, 151200, Note_off_c, 9, 42, 80
2, 151200, Note_off_c, 9, 33, 80
2, 151200, Note_off_c, 9, 35, 80
2, 151200, Note_on_c, 9, 46, 100
2, 151200, Note_on_c, 9, 38, 100
2, 151200, Note_on_c, 9, 40, 100
2, 151200, Note_on_c, 9, 75, 100
2, 151200, Note_on_c, 9, 75, 100
2, 151440, Note_off_c, 9, 75, 80
2, 151440, Note_off_c, 9, 75, 80
2, 151440, Note_off_c, 9, 40, 80
2, 151440, Note_off_c, 9, 38, 80
2, 151440, Note_off_c, 9, 46, 80
2, 151440, Note_on_c, 9, 46, 100
2, 151680, Note_off_c, 9, 46, 80
2, 151680, Note_on_c, 9, 33, 100
2, 151680, Note_on_c, 9, 35, 100
2, 151680, Note_on_c, 9, 42, 100
2, 151920, Note_off_c, 9, 42, 80
2, 151920, Note_off_c, 9, 35, 80
2, 151920, Note_off_c, 9, 33, 80
2, 151920, Note_on_c, 9, 42, 100
2, 151920, Note_on_c, 9, 35, 100
2, 151920, Note_on_c, 9, 33, 100
2, 152160, Note_off_c, 9, 33, 80
2, 152160, Note_off_c, 9, 35, 80
2, 152160, Note_off_c, 9, 42, 80
2, 152160, Note_on_c, 9, 46, 100
2, 152160, Note_on_c, 9, 40, 100
2, 152160, Note_on_c, 9, 38, 100
2, 152160, Note_on_c, 9, 75, 100
2, 152160, Note_on_c, 9, 75, 100
2, 152400, Note_off_c, 9, 75, 80
2, 152400, Note_off_c, 9, 75, 80
2, 152400, Note_off_c, 9, 38, 80
2, 152400, Note_off_c, 9, 40, 80
2, 152400, Note_off_c, 9, 46, 80
2, 152400, Note_on_c, 9, 46, 100
2, 152520, Note_on_c, 9, 38, 100
2, 152640, Note_off_c, 9, 46, 80
2, 152640, Note_on_c, 9, 42, 100
2, 152760, Note_off_c, 9, 38, 80
2, 152760, Note_on_c, 9, 38, 100
2, 152880, Note_off_c, 9, 42, 80
2, 152880, Note_on_c, 9, 42, 100
2, 152880, Note_on_c, 9, 33, 100
2, 152880, Note_on_c, 9, 35, 100
2, 153000, Note_off_c, 9, 38, 80
2, 153120, Note_off_c, 9, 42, 80
2, 153120, Note_off_c, 9, 33, 80
2, 153120, Note_off_c, 9, 35, 80
2, 153120, Note_on_c, 9, 46, 100
2, 153120, Note_on_c, 9, 38, 100
2, 153120, Note_on_c, 9, 40, 100
2, 153120, Note_on_c, 9, 75, 100
2, 153120, Note_on_c, 9, 75, 100
2, 153360, Note_off_c, 9, 75, 80
2, 153360, Note_off_c, 9, 75, 80
2, 153360, Note_off_c, 9, 40, 80
2, 153360, Note_off_c, 9, 38, 80
2, 153360, Note_off_c, 9, 46, 80
2, 153360, Note_on_c, 9, 46, 100
2, 153600, Note_off_c, 9, 46, 80
2, 153600, Note_on_c, 9, 33, 100
2, 153600, Note_on_c, 9, 35, 100
2, 153600, Note_on_c, 9, 42, 100
2, 153840, Note_off_c, 9, 42, 80
2, 153840, Note_off_c, 9, 35, 80
2, 153840, Note_off_c, 9, 33, 80
2, 153840, Note_on_c, 9, 42, 100
2, 153840, Note_on_c, 9, 35, 100
2, 153840, Note_on_c, 9, 33, 100
2, 154080, Note_off_c, 9, 33, 80
2, 154080, Note_off_c, 9, 35, 80
2, 154080, Note_off_c, 9, 42, 80
2, 154080, Note_on_c, 9, 46, 100
2, 154080, Note_on_c, 9, 40, 100
2, 154080, Note_on_c, 9, 38, 100
2, 154080, Note_on_c, 9, 75, 100
2, 154080, Note_on_c, 9, 75, 100
2, 154320, Note_off_c, 9, 75, 80
2, 154320, Note_off_c, 9, 75, 80
2, 154320, Note_off_c, 9, 38, 80
2, 154320, Note_off_c, 9, 40, 80
2, 154320, Note_off_c, 9, 46, 80
2, 154320, Note_on_c, 9, 46, 100
2, 154440, Note_on_c, 9, 38, 100
2, 154560, Note_off_c, 9, 46, 80
2, 154560, Note_on_c, 9, 42, 100
2, 154680, Note_off_c, 9, 38, 80
2, 154680, Note_on_c, 9, 38, 100
2, 154800, Note_off_c, 9, 42, 80
2, 154800, Note_on_c, 9, 42, 100
2, 154800, Note_on_c, 9, 33, 100
2, 154800, Note_on_c, 9, 35, 100
2, 154920, Note_off_c, 9, 38, 80
2, 155040, Note_off_c, 9, 42, 80
2, 155040, Note_off_c, 9, 33, 80
2, 155040, Note_off_c, 9, 35, 80
2, 155040, Note_on_c, 9, 46, 100
2, 155040, Note_on_c, 9, 38, 100
2, 155040, Note_on_c, 9, 40, 100
2, 155040, Note_on_c, 9, 75, 100
2, 155040, Note_on_c, 9, 75, 100
2, 155280, Note_off_c, 9, 75, 80
2, 155280, Note_off_c, 9, 75, 80
2, 155280, Note_off_c, 9, 40, 80
2, 155280, Note_off_c, 9, 38, 80
2, 155280, Note_off_c, 9, 46, 80
2, 155280, Note_on_c, 9, 46, 100
2, 155520, Note_off_c, 9, 46, 80
2, 155520, Note_on_c, 9, 33, 100
2, 155520, Note_on_c, 9, 35, 100
2, 155520, Note_on_c, 9, 42, 100
2, 155760, Note_off_c, 9, 42, 80
2, 155760, Note_off_c, 9, 35, 80
2, 155760, Note_off_c, 9, 33, 80
2, 155760, Note_on_c, 9, 42, 100
2, 155760, Note_on_c, 9, 35, 100
2, 155760, Note_on_c, 9, 33, 100
2, 156000, Note_off_c, 9, 33, 80
2, 156000, Note_off_c, 9, 35, 80
2, 156000, Note_off_c, 9, 42, 80
2, 156000, Note_on_c, 9, 46, 100
2, 156000, Note_on_c, 9, 40, 100
2, 156000, Note_on_c, 9, 38, 100
2, 156000, Note_on_c, 9, 75, 100
2, 156000, Note_on_c, 9, 75, 100
2, 156240, Note_off_c, 9, 75, 80
2, 156240, Note_off_c, 9, 75, 80
2, 156240, Note_off_c, 9, 38, 80
2, 156240, Note_off_c, 9, 40, 80
2, 156240, Note_off_c, 9, 46, 80
2, 156240, Note_on_c, 9, 46, 100
2, 156360, Note_on_c, 9, 38, 100
2, 156480, Note_off_c, 9, 46, 80
2, 156480, Note_on_c, 9, 42, 100
2, 156600, Note_off_c, 9, 38, 80
2, 156600, Note_on_c, 9, 38, 100
2, 156720, Note_off_c, 9, 42, 80
2, 156720, Note_on_c, 9, 42, 100
2, 156720, Note_on_c, 9, 33, 100
2, 156720, Note_on_c, 9, 35, 100
2, 156840, Note_off_c, 9, 38, 80
2, 156960, Note_off_c, 9, 42, 80
2, 156960, Note_off_c, 9, 33, 80
2, 156960, Note_off_c, 9, 35, 80
2, 156960, Note_on_c, 9, 46, 100
2, 156960, Note_on_c, 9, 38, 100
2, 156960, Note_on_c, 9, 40, 100
2, 156960, Note_on_c, 9, 75, 100
2, 156960, Note_on_c, 9, 75, 100
2, 157200, Note_off_c, 9, 75, 80
2, 157200, Note_off_c, 9, 75, 80
2, 157200, Note_off_c, 9, 40, 80
2, 157200, Note_off_c, 9, 38, 80
2, 157200, Note_off_c, 9, 46, 80
2, 157200, Note_on_c, 9, 46, 100
2, 157440, Note_off_c, 9, 46, 80
2, 157440, Note_on_c, 9, 33, 100
2, 157440, Note_on_c, 9, 35, 100
2, 157440, Note_on_c, 9, 42, 100
2, 157680, Note_off_c, 9, 42, 80
2, 157680, Note_off_c, 9, 35, 80
2, 157680, Note_off_c, 9, 33, 80
2, 157680, Note_on_c, 9, 42, 100
2, 157680, Note_on_c, 9, 35, 100
2, 157680, Note_on_c, 9, 33, 100
2, 157920, Note_off_c, 9, 33, 80
2, 157920, Note_off_c, 9, 35, 80
2, 157920, Note_off_c, 9, 42, 80
2, 157920, Note_on_c, 9, 46, 100
2, 157920, Note_on_c, 9, 40, 100
2, 157920, Note_on_c, 9, 38, 100
2, 157920, Note_on_c, 9, 75, 100
2, 157920, Note_on_c, 9, 75, 100
2, 158160, Note_off_c, 9, 75, 80
2, 158160, Note_off_c, 9, 75, 80
2, 158160, Note_off_c, 9, 38, 80
2, 158160, Note_off_c, 9, 40, 80
2, 158160, Note_off_c, 9, 46, 80
2, 158160, Note_on_c, 9, 46, 100
2, 158280, Note_on_c, 9, 38, 100
2, 158400, Note_off_c, 9, 46, 80
2, 158400, Note_on_c, 9, 42, 100
2, 158520, Note_off_c, 9, 38, 80
2, 158520, Note_on_c, 9, 38, 100
2, 158640, Note_off_c, 9, 42, 80
2, 158640, Note_on_c, 9, 42, 100
2, 158640, Note_on_c, 9, 33, 100
2, 158640, Note_on_c, 9, 35, 100
2, 158760, Note_off_c, 9, 38, 80
2, 158880, Note_off_c, 9, 42, 80
2, 158880, Note_off_c, 9, 33, 80
2, 158880, Note_off_c, 9, 35, 80
2, 158880, Note_on_c, 9, 46, 100
2, 158880, Note_on_c, 9, 38, 100
2, 158880, Note_on_c, 9, 40, 100
2, 158880, Note_on_c, 9, 75, 100
2, 158880, Note_on_c, 9, 75, 100
2, 159120, Note_off_c, 9, 75, 80
2, 159120, Note_off_c, 9, 75, 80
2, 159120, Note_off_c, 9, 40, 80
2, 159120, Note_off_c, 9, 38, 80
2, 159120, Note_off_c, 9, 46, 80
2, 159120, Note_on_c, 9, 46, 100
2, 159360, Note_off_c, 9, 46, 80
2, 159360, Note_on_c, 9, 33, 100
2, 159360, Note_on_c, 9, 35, 100
2, 159360, Note_on_c, 9, 42, 100
2, 159600, Note_off_c, 9, 42, 80
2, 159600, Note_off_c, 9, 35, 80
2, 159600, Note_off_c, 9, 33, 80
2, 159600, Note_on_c, 9, 42, 100
2, 159600, Note_on_c, 9, 35, 100
2, 159600, Note_on_c, 9, 33, 100
2, 159840, Note_off_c, 9, 33, 80
2, 159840, Note_off_c, 9, 35, 80
2, 159840, Note_off_c, 9, 42, 80
2, 159840, Note_on_c, 9, 46, 100
2, 159840, Note_on_c, 9, 40, 100
2, 159840, Note_on_c, 9, 38, 100
2, 159840, Note_on_c, 9, 75, 100
2, 159840, Note_on_c, 9, 75, 100
2, 160080, Note_off_c, 9, 75, 80
2, 160080, Note_off_c, 9, 75, 80
2, 160080, Note_off_c, 9, 38, 80
2, 160080, Note_off_c, 9, 40, 80
2, 160080, Note_off_c, 9, 46, 80
2, 160080, Note_on_c, 9, 46, 100
2, 160200, Note_on_c, 9, 38, 100
2, 160320, Note_off_c, 9, 46, 80
2, 160320, Note_on_c, 9, 42, 100
2, 160440, Note_off_c, 9, 38, 80
2, 160440, Note_on_c, 9, 38, 100
2, 160560, Note_off_c, 9, 42, 80
2, 160560, Note_on_c, 9, 42, 100
2, 160560, Note_on_c, 9, 33, 100
2, 160560, Note_on_c, 9, 35, 100
2, 160680, Note_off_c, 9, 38, 80
2, 160800, Note_off_c, 9, 42, 80
2, 160800, Note_off_c, 9, 33, 80
2, 160800, Note_off_c, 9, 35, 80
2, 160800, Note_on_c, 9, 46, 100
2, 160800, Note_on_c, 9, 38, 100
2, 160800, Note_on_c, 9, 40, 100
2, 160800, Note_on_c, 9, 75, 100
2, 160800, Note_on_c, 9, 75, 100
2, 161040, Note_off_c, 9, 75, 80
2, 161040, Note_off_c, 9, 75, 80
2, 161040, Note_off_c, 9, 40, 80
2, 161040, Note_off_c, 9, 38, 80
2, 161040, Note_off_c, 9, 46, 80
2, 161040, Note_on_c, 9, 46, 100
2, 161280, Note_off_c, 9, 46, 80
2, 161280, Note_on_c, 9, 59, 100
2, 161280, Note_on_c, 9, 35, 100
2, 161520, Note_off_c, 9, 35, 80
2, 161520, Note_on_c, 9, 35, 100
2, 161760, Note_off_c, 9, 59, 80
2, 161760, Note_off_c, 9, 35, 80
2, 161760, Note_on_c, 9, 40, 100
2, 161760, Note_on_c, 9, 38, 100
2, 161760, Note_on_c, 9, 49, 100
2, 161760, Note_on_c, 9, 59, 100
2, 162000, Note_off_c, 9, 49, 80
2, 162000, Note_off_c, 9, 38, 80
2, 162000, Note_off_c, 9, 40, 80
2, 162000, Note_on_c, 9, 35, 100
2, 162120, Note_on_c, 9, 38, 100
2, 162240, Note_off_c, 9, 59, 80
2, 162240, Note_off_c, 9, 35, 80
2, 162240, Note_on_c, 9, 35, 100
2, 162240, Note_on_c, 9, 59, 100
2, 162360, Note_off_c, 9, 38, 80
2, 162360, Note_on_c, 9, 38, 100
2, 162480, Note_off_c, 9, 35, 80
2, 162480, Note_on_c, 9, 35, 100
2, 162600, Note_off_c, 9, 38, 80
2, 162720, Note_off_c, 9, 59, 80
2, 162720, Note_off_c, 9, 35, 80
2, 162720, Note_on_c, 9, 38, 100
2, 162720, Note_on_c, 9, 40, 100
2, 162720, Note_on_c, 9, 49, 100
2, 162720, Note_on_c, 9, 59, 100
2, 162960, Note_off_c, 9, 49, 80
2, 162960, Note_off_c, 9, 40, 80
2, 162960, Note_off_c, 9, 38, 80
2, 162960, Note_on_c, 9, 35, 100
2, 163080, Note_off_c, 9, 35, 80
2, 163080, Note_on_c, 9, 38, 100
2, 163200, Note_off_c, 9, 59, 80
2, 163200, Note_on_c, 9, 59, 100
2, 163200, Note_on_c, 9, 35, 100
2, 163210, Note_off_c, 9, 38, 80
2, 163440, Note_off_c, 9, 35, 80
2, 163440, Note_on_c, 9, 35, 100
2, 163680, Note_off_c, 9, 59, 80
2, 163680, Note_off_c, 9, 35, 80
2, 163680, Note_on_c, 9, 40, 100
2, 163680, Note_on_c, 9, 38, 100
2, 163680, Note_on_c, 9, 49, 100
2, 163680, Note_on_c, 9, 59, 100
2, 163920, Note_off_c, 9, 49, 80
2, 163920, Note_off_c, 9, 38, 80
2, 163920, Note_off_c, 9, 40, 80
2, 163920, Note_on_c, 9, 35, 100
2, 164040, Note_on_c, 9, 38, 100
2, 164160, Note_off_c, 9, 59, 80
2, 164160, Note_off_c, 9, 35, 80
2, 164160, Note_on_c, 9, 35, 100
2, 164160, Note_on_c, 9, 59, 100
2, 164280, Note_off_c, 9, 38, 80
2, 164280, Note_on_c, 9, 38, 100
2, 164400, Note_off_c, 9, 35, 80
2, 164400, Note_on_c, 9, 35, 100
2, 164520, Note_off_c, 9, 38, 80
2, 164640, Note_off_c, 9, 59, 80
2, 164640, Note_off_c, 9, 35, 80
2, 164640, Note_on_c, 9, 38, 100
2, 164640, Note_on_c, 9, 40, 100
2, 164640, Note_on_c, 9, 49, 100
2, 164640, Note_on_c, 9, 59, 100
2, 164880, Note_off_c, 9, 49, 80
2, 164880, Note_off_c, 9, 40, 80
2, 164880, Note_off_c, 9, 38, 80
2, 164880, Note_on_c, 9, 35, 100
2, 165000, Note_off_c, 9, 35, 80
2, 165000, Note_on_c, 9, 38, 100
2, 165120, Note_off_c, 9, 59, 80
2, 165120, Note_on_c, 9, 59, 100
2, 165120, Note_on_c, 9, 35, 100
2, 165130, Note_off_c, 9, 38, 80
2, 165360, Note_off_c, 9, 35, 80
2, 165360, Note_on_c, 9, 35, 100
2, 165600, Note_off_c, 9, 59, 80
2, 165600, Note_off_c, 9, 35, 80
2, 165600, Note_on_c, 9, 40, 100
2, 165600, Note_on_c, 9, 38, 100
2, 165600, Note_on_c, 9, 49, 100
2, 165600, Note_on_c, 9, 59, 100
2, 165840, Note_off_c, 9, 49, 80
2, 165840, Note_off_c, 9, 38, 80
2, 165840, Note_off_c, 9, 40, 80
2, 165840, Note_on_c, 9, 35, 100
2, 165960, Note_on_c, 9, 38, 100
2, 166080, Note_off_c, 9, 59, 80
2, 166080, Note_off_c, 9, 35, 80
2, 166080, Note_on_c, 9, 35, 100
2, 166080, Note_on_c, 9, 59, 100
2, 166200, Note_off_c, 9, 38, 80
2, 166200, Note_on_c, 9, 38, 100
2, 166320, Note_off_c, 9, 35, 80
2, 166320, Note_on_c, 9, 35, 100
2, 166440, Note_off_c, 9, 38, 80
2, 166560, Note_off_c, 9, 59, 80
2, 166560, Note_off_c, 9, 35, 80
2, 166560, Note_on_c, 9, 38, 100
2, 166560, Note_on_c, 9, 40, 100
2, 166560, Note_on_c, 9, 49, 100
2, 166560, Note_on_c, 9, 59, 100
2, 166800, Note_off_c, 9, 49, 80
2, 166800, Note_off_c, 9, 40, 80
2, 166800, Note_off_c, 9, 38, 80
2, 166800, Note_on_c, 9, 35, 100
2, 166920, Note_off_c, 9, 35, 80
2, 166920, Note_on_c, 9, 38, 100
2, 167040, Note_off_c, 9, 59, 80
2, 167040, Note_on_c, 9, 59, 100
2, 167040, Note_on_c, 9, 35, 100
2, 167050, Note_off_c, 9, 38, 80
2, 167280, Note_off_c, 9, 35, 80
2, 167280, Note_on_c, 9, 35, 100
2, 167520, Note_off_c, 9, 59, 80
2, 167520, Note_off_c, 9, 35, 80
2, 167520, Note_on_c, 9, 40, 100
2, 167520, Note_on_c, 9, 38, 100
2, 167520, Note_on_c, 9, 49, 100
2, 167520, Note_on_c, 9, 59, 100
2, 167760, Note_off_c, 9, 49, 80
2, 167760, Note_off_c, 9, 38, 80
2, 167760, Note_off_c, 9, 40, 80
2, 167760, Note_on_c, 9, 35, 100
2, 167880, Note_on_c, 9, 38, 100
2, 168000, Note_off_c, 9, 59, 80
2, 168000, Note_off_c, 9, 35, 80
2, 168000, Note_on_c, 9, 35, 100
2, 168000, Note_on_c, 9, 59, 100
2, 168120, Note_off_c, 9, 38, 80
2, 168120, Note_on_c, 9, 38, 100
2, 168240, Note_off_c, 9, 35, 80
2, 168240, Note_on_c, 9, 35, 100
2, 168360, Note_off_c, 9, 38, 80
2, 168480, Note_off_c, 9, 59, 80
2, 168480, Note_off_c, 9, 35, 80
2, 168480, Note_on_c, 9, 38, 100
2, 168480, Note_on_c, 9, 40, 100
2, 168480, Note_on_c, 9, 49, 100
2, 168480, Note_on_c, 9, 59, 100
2, 168720, Note_off_c, 9, 49, 80
2, 168720, Note_off_c, 9, 40, 80
2, 168720, Note_off_c, 9, 38, 80
2, 168720, Note_on_c, 9, 35, 100
2, 168840, Note_off_c, 9, 35, 80
2, 168840, Note_on_c, 9, 38, 100
2, 168960, Note_off_c, 9, 59, 80
2, 168960, Note_on_c, 9, 35, 100
2, 168960, Note_on_c, 9, 59, 100
2, 168970, Note_off_c, 9, 38, 80
2, 169200, Note_off_c, 9, 35, 80
2, 169200, Note_on_c, 9, 35, 100
2, 169440, Note_off_c, 9, 59, 80
2, 169440, Note_off_c, 9, 35, 80
2, 169440, Note_on_c, 9, 40, 100
2, 169440, Note_on_c, 9, 38, 100
2, 169440, Note_on_c, 9, 49, 100
2, 169440, Note_on_c, 9, 59, 100
2, 169680, Note_off_c, 9, 49, 80
2, 169680, Note_off_c, 9, 38, 80
2, 169680, Note_off_c, 9, 40, 80
2, 169680, Note_on_c, 9, 35, 100
2, 169800, Note_on_c, 9, 38, 100
2, 169920, Note_off_c, 9, 59, 80
2, 169920, Note_off_c, 9, 35, 80
2, 169920, Note_on_c, 9, 35, 100
2, 169920, Note_on_c, 9, 59, 100
2, 170040, Note_off_c, 9, 38, 80
2, 170040, Note_on_c, 9, 38, 100
2, 170160, Note_off_c, 9, 35, 80
2, 170160, Note_on_c, 9, 35, 100
2, 170280, Note_off_c, 9, 38, 80
2, 170400, Note_off_c, 9, 59, 80
2, 170400, Note_off_c, 9, 35, 80
2, 170400, Note_on_c, 9, 38, 100
2, 170400, Note_on_c, 9, 40, 100
2, 170400, Note_on_c, 9, 49, 100
2, 170400, Note_on_c, 9, 59, 100
2, 170640, Note_off_c, 9, 49, 80
2, 170640, Note_off_c, 9, 40, 80
2, 170640, Note_off_c, 9, 38, 80
2, 170640, Note_on_c, 9, 35, 100
2, 170760, Note_off_c, 9, 35, 80
2, 170760, Note_on_c, 9, 38, 100
2, 170880, Note_off_c, 9, 59, 80
2, 170880, Note_on_c, 9, 35, 100
2, 170880, Note_on_c, 9, 59, 100
2, 170890, Note_off_c, 9, 38, 80
2, 171120, Note_off_c, 9, 35, 80
2, 171120, Note_on_c, 9, 35, 100
2, 171360, Note_off_c, 9, 59, 80
2, 171360, Note_off_c, 9, 35, 80
2, 171360, Note_on_c, 9, 40, 100
2, 171360, Note_on_c, 9, 38, 100
2, 171360, Note_on_c, 9, 49, 100
2, 171360, Note_on_c, 9, 59, 100
2, 171600, Note_off_c, 9, 49, 80
2, 171600, Note_off_c, 9, 38, 80
2, 171600, Note_off_c, 9, 40, 80
2, 171600, Note_on_c, 9, 35, 100
2, 171720, Note_on_c, 9, 38, 100
2, 171840, Note_off_c, 9, 59, 80
2, 171840, Note_off_c, 9, 35, 80
2, 171840, Note_on_c, 9, 35, 100
2, 171840, Note_on_c, 9, 59, 100
2, 171960, Note_off_c, 9, 38, 80
2, 171960, Note_on_c, 9, 38, 100
2, 172080, Note_off_c, 9, 35, 80
2, 172080, Note_on_c, 9, 35, 100
2, 172200, Note_off_c, 9, 38, 80
2, 172320, Note_off_c, 9, 59, 80
2, 172320, Note_off_c, 9, 35, 80
2, 172320, Note_on_c, 9, 38, 100
2, 172320, Note_on_c, 9, 40, 100
2, 172320, Note_on_c, 9, 49, 100
2, 172320, Note_on_c, 9, 59, 100
2, 172560, Note_off_c, 9, 49, 80
2, 172560, Note_off_c, 9, 40, 80
2, 172560, Note_off_c, 9, 38, 80
2, 172560, Note_on_c, 9, 35, 100
2, 172680, Note_off_c, 9, 35, 80
2, 172680, Note_on_c, 9, 38, 100
2, 172800, Note_off_c, 9, 59, 80
2, 172800, Note_on_c, 9, 35, 100
2, 172800, Note_on_c, 9, 59, 100
2, 172810, Note_off_c, 9, 38, 80
2, 173040, Note_off_c, 9, 35, 80
2, 173040, Note_on_c, 9, 35, 100
2, 173280, Note_off_c, 9, 59, 80
2, 173280, Note_off_c, 9, 35, 80
2, 173280, Note_on_c, 9, 40, 100
2, 173280, Note_on_c, 9, 38, 100
2, 173280, Note_on_c, 9, 49, 100
2, 173280, Note_on_c, 9, 59, 100
2, 173520, Note_off_c, 9, 49, 80
2, 173520, Note_off_c, 9, 38, 80
2, 173520, Note_off_c, 9, 40, 80
2, 173520, Note_on_c, 9, 35, 100
2, 173640, Note_on_c, 9, 38, 100
2, 173760, Note_off_c, 9, 59, 80
2, 173760, Note_off_c, 9, 35, 80
2, 173760, Note_on_c, 9, 35, 100
2, 173760, Note_on_c, 9, 59, 100
2, 173880, Note_off_c, 9, 38, 80
2, 173880, Note_on_c, 9, 38, 100
2, 174000, Note_off_c, 9, 35, 80
2, 174000, Note_on_c, 9, 35, 100
2, 174120, Note_off_c, 9, 38, 80
2, 174240, Note_off_c, 9, 59, 80
2, 174240, Note_off_c, 9, 35, 80
2, 174240, Note_on_c, 9, 38, 100
2, 174240, Note_on_c, 9, 40, 100
2, 174240, Note_on_c, 9, 49, 100
2, 174240, Note_on_c, 9, 59, 100
2, 174480, Note_off_c, 9, 49, 80
2, 174480, Note_off_c, 9, 40, 80
2, 174480, Note_off_c, 9, 38, 80
2, 174480, Note_on_c, 9, 35, 100
2, 174600, Note_off_c, 9, 35, 80
2, 174600, Note_on_c, 9, 38, 100
2, 174720, Note_off_c, 9, 59, 80
2, 174720, Note_on_c, 9, 35, 100
2, 174720, Note_on_c, 9, 59, 100
2, 174730, Note_off_c, 9, 38, 80
2, 174960, Note_off_c, 9, 35, 80
2, 174960, Note_on_c, 9, 35, 100
2, 175200, Note_off_c, 9, 59, 80
2, 175200, Note_off_c, 9, 35, 80
2, 175200, Note_on_c, 9, 40, 100
2, 175200, Note_on_c, 9, 38, 100
2, 175200, Note_on_c, 9, 49, 100
2, 175200, Note_on_c, 9, 59, 100
2, 175440, Note_off_c, 9, 49, 80
2, 175440, Note_off_c, 9, 38, 80
2, 175440, Note_off_c, 9, 40, 80
2, 175440, Note_on_c, 9, 35, 100
2, 175560, Note_on_c, 9, 38, 100
2, 175680, Note_off_c, 9, 59, 80
2, 175680, Note_off_c, 9, 35, 80
2, 175680, Note_on_c, 9, 35, 100
2, 175680, Note_on_c, 9, 59, 100
2, 175800, Note_off_c, 9, 38, 80
2, 175800, Note_on_c, 9, 38, 100
2, 175920, Note_off_c, 9, 35, 80
2, 175920, Note_on_c, 9, 35, 100
2, 176040, Note_off_c, 9, 38, 80
2, 176160, Note_off_c, 9, 59, 80
2, 176160, Note_off_c, 9, 35, 80
2, 176160, Note_on_c, 9, 38, 100
2, 176160, Note_on_c, 9, 40, 100
2, 176160, Note_on_c, 9, 49, 100
2, 176160, Note_on_c, 9, 59, 100
2, 176400, Note_off_c, 9, 49, 80
2, 176400, Note_off_c, 9, 40, 80
2, 176400, Note_off_c, 9, 38, 80
2, 176400, Note_on_c, 9, 35, 100
2, 176520, Note_off_c, 9, 35, 80
2, 176520, Note_on_c, 9, 38, 100
2, 176640, Note_off_c, 9, 59, 80
2, 176640, Note_on_c, 9, 35, 100
2, 176640, Note_on_c, 9, 59, 100
2, 176650, Note_off_c, 9, 38, 80
2, 176880, Note_off_c, 9, 35, 80
2, 176880, Note_on_c, 9, 35, 100
2, 177120, Note_off_c, 9, 59, 80
2, 177120, Note_off_c, 9, 35, 80
2, 177120, Note_on_c, 9, 40, 100
2, 177120, Note_on_c, 9, 38, 100
2, 177120, Note_on_c, 9, 49, 100
2, 177120, Note_on_c, 9, 59, 100
2, 177360, Note_off_c, 9, 49, 80
2, 177360, Note_off_c, 9, 38, 80
2, 177360, Note_off_c, 9, 40, 80
2, 177360, Note_on_c, 9, 35, 100
2, 177480, Note_on_c, 9, 38, 100
2, 177600, Note_off_c, 9, 59, 80
2, 177600, Note_off_c, 9, 35, 80
2, 177600, Note_on_c, 9, 35, 100
2, 177600, Note_on_c, 9, 59, 100
2, 177720, Note_off_c, 9, 38, 80
2, 177720, Note_on_c, 9, 38, 100
2, 177840, Note_off_c, 9, 35, 80
2, 177840, Note_on_c, 9, 35, 100
2, 177960, Note_off_c, 9, 38, 80
2, 178080, Note_off_c, 9, 59, 80
2, 178080, Note_off_c, 9, 35, 80
2, 178080, Note_on_c, 9, 38, 100
2, 178080, Note_on_c, 9, 40, 100
2, 178080, Note_on_c, 9, 49, 100
2, 178080, Note_on_c, 9, 59, 100
2, 178320, Note_off_c, 9, 49, 80
2, 178320, Note_off_c, 9, 40, 80
2, 178320, Note_off_c, 9, 38, 80
2, 178320, Note_on_c, 9, 35, 100
2, 178440, Note_off_c, 9, 35, 80
2, 178440, Note_on_c, 9, 38, 100
2, 178560, Note_off_c, 9, 59, 80
2, 178560, Note_on_c, 9, 35, 100
2, 178560, Note_on_c, 9, 59, 100
2, 178570, Note_off_c, 9, 38, 80
2, 178800, Note_off_c, 9, 35, 80
2, 178800, Note_on_c, 9, 35, 100
2, 179040, Note_off_c, 9, 59, 80
2, 179040, Note_off_c, 9, 35, 80
2, 179040, Note_on_c, 9, 40, 100
2, 179040, Note_on_c, 9, 38, 100
2, 179040, Note_on_c, 9, 49, 100
2, 179040, Note_on_c, 9, 59, 100
2, 179280, Note_off_c, 9, 49, 80
2, 179280, Note_off_c, 9, 38, 80
2, 179280, Note_off_c, 9, 40, 80
2, 179280, Note_on_c, 9, 35, 100
2, 179400, Note_on_c, 9, 38, 100
2, 179520, Note_off_c, 9, 59, 80
2, 179520, Note_off_c, 9, 35, 80
2, 179520, Note_on_c, 9, 35, 100
2, 179520, Note_on_c, 9, 59, 100
2, 179640, Note_off_c, 9, 38, 80
2, 179640, Note_on_c, 9, 38, 100
2, 179760, Note_off_c, 9, 35, 80
2, 179760, Note_on_c, 9, 35, 100
2, 179880, Note_off_c, 9, 38, 80
2, 180000, Note_off_c, 9, 59, 80
2, 180000, Note_off_c, 9, 35, 80
2, 180000, Note_on_c, 9, 38, 100
2, 180000, Note_on_c, 9, 40, 100
2, 180000, Note_on_c, 9, 49, 100
2, 180000, Note_on_c, 9, 59, 100
2, 180240, Note_off_c, 9, 49, 80
2, 180240, Note_off_c, 9, 40, 80
2, 180240, Note_off_c, 9, 38, 80
2, 180240, Note_on_c, 9, 35, 100
2, 180360, Note_off_c, 9, 35, 80
2, 180360, Note_on_c, 9, 38, 100
2, 180480, Note_off_c, 9, 59, 80
2, 180480, Note_on_c, 9, 35, 100
2, 180480, Note_on_c, 9, 59, 100
2, 180490, Note_off_c, 9, 38, 80
2, 180720, Note_off_c, 9, 35, 80
2, 180720, Note_on_c, 9, 35, 100
2, 180960, Note_off_c, 9, 59, 80
2, 180960, Note_off_c, 9, 35, 80
2, 180960, Note_on_c, 9, 40, 100
2, 180960, Note_on_c, 9, 38, 100
2, 180960, Note_on_c, 9, 49, 100
2, 180960, Note_on_c, 9, 59, 100
2, 181200, Note_off_c, 9, 49, 80
2, 181200, Note_off_c, 9, 38, 80
2, 181200, Note_off_c, 9, 40, 80
2, 181200, Note_on_c, 9, 35, 100
2, 181320, Note_on_c, 9, 38, 100
2, 181440, Note_off_c, 9, 59, 80
2, 181440, Note_off_c, 9, 35, 80
2, 181440, Note_on_c, 9, 35, 100
2, 181440, Note_on_c, 9, 59, 100
2, 181560, Note_off_c, 9, 38, 80
2, 181560, Note_on_c, 9, 38, 100
2, 181680, Note_off_c, 9, 35, 80
2, 181680, Note_on_c, 9, 35, 100
2, 181800, Note_off_c, 9, 38, 80
2, 181920, Note_off_c, 9, 59, 80
2, 181920, Note_off_c, 9, 35, 80
2, 181920, Note_on_c, 9, 38, 100
2, 181920, Note_on_c, 9, 40, 100
2, 181920, Note_on_c, 9, 49, 100
2, 181920, Note_on_c, 9, 59, 100
2, 182160, Note_off_c, 9, 49, 80
2, 182160, Note_off_c, 9, 40, 80
2, 182160, Note_off_c, 9, 38, 80
2, 182160, Note_on_c, 9, 35, 100
2, 182280, Note_off_c, 9, 35, 80
2, 182280, Note_on_c, 9, 38, 100
2, 182400, Note_off_c, 9, 59, 80
2, 182400, Note_on_c, 9, 35, 100
2, 182400, Note_on_c, 9, 59, 100
2, 182410, Note_off_c, 9, 38, 80
2, 182640, Note_off_c, 9, 35, 80
2, 182640, Note_on_c, 9, 35, 100
2, 182880, Note_off_c, 9, 59, 80
2, 182880, Note_off_c, 9, 35, 80
2, 182880, Note_on_c, 9, 40, 100
2, 182880, Note_on_c, 9, 38, 100
2, 182880, Note_on_c, 9, 49, 100
2, 182880, Note_on_c, 9, 59, 100
2, 183120, Note_off_c, 9, 49, 80
2, 183120, Note_off_c, 9, 38, 80
2, 183120, Note_off_c, 9, 40, 80
2, 183120, Note_on_c, 9, 35, 100
2, 183240, Note_on_c, 9, 38, 100
2, 183360, Note_off_c, 9, 59, 80
2, 183360, Note_off_c, 9, 35, 80
2, 183360, Note_on_c, 9, 35, 100
2, 183360, Note_on_c, 9, 59, 100
2, 183480, Note_off_c, 9, 38, 80
2, 183480, Note_on_c, 9, 38, 100
2, 183600, Note_off_c, 9, 35, 80
2, 183600, Note_on_c, 9, 35, 100
2, 183720, Note_off_c, 9, 38, 80
2, 183840, Note_off_c, 9, 59, 80
2, 183840, Note_off_c, 9, 35, 80
2, 183840, Note_on_c, 9, 38, 100
2, 183840, Note_on_c, 9, 40, 100
2, 183840, Note_on_c, 9, 49, 100
2, 183840, Note_on_c, 9, 59, 100
2, 184080, Note_off_c, 9, 49, 80
2, 184080, Note_off_c, 9, 40, 80
2, 184080, Note_off_c, 9, 38, 80
2, 184080, Note_on_c, 9, 35, 100
2, 184200, Note_off_c, 9, 35, 80
2, 184200, Note_on_c, 9, 38, 100
2, 184320, Note_off_c, 9, 59, 80
2, 184320, Note_on_c, 9, 35, 100
2, 184320, Note_on_c, 9, 59, 100
2, 184330, Note_off_c, 9, 38, 80
2, 184560, Note_off_c, 9, 35, 80
2, 184560, Note_on_c, 9, 35, 100
2, 184800, Note_off_c, 9, 59, 80
2, 184800, Note_off_c, 9, 35, 80
2, 184800, Note_on_c, 9, 40, 100
2, 184800, Note_on_c, 9, 38, 100
2, 184800, Note_on_c, 9, 49, 100
2, 184800, Note_on_c, 9, 59, 100
2, 185040, Note_off_c, 9, 49, 80
2, 185040, Note_off_c, 9, 38, 80
2, 185040, Note_off_c, 9, 40, 80
2, 185040, Note_on_c, 9, 35, 100
2, 185160, Note_on_c, 9, 38, 100
2, 185280, Note_off_c, 9, 59, 80
2, 185280, Note_off_c, 9, 35, 80
2, 185280, Note_on_c, 9, 35, 100
2, 185280, Note_on_c, 9, 59, 100
2, 185400, Note_off_c, 9, 38, 80
2, 185400, Note_on_c, 9, 38, 100
2, 185520, Note_off_c, 9, 35, 80
2, 185520, Note_on_c, 9, 35, 100
2, 185640, Note_off_c, 9, 38, 80
2, 185760, Note_off_c, 9, 59, 80
2, 185760, Note_off_c, 9, 35, 80
2, 185760, Note_on_c, 9, 38, 100
2, 185760, Note_on_c, 9, 40, 100
2, 185760, Note_on_c, 9, 49, 100
2, 185760, Note_on_c, 9, 59, 100
2, 186000, Note_off_c, 9, 49, 80
2, 186000, Note_off_c, 9, 40, 80
2, 186000, Note_off_c, 9, 38, 80
2, 186000, Note_on_c, 9, 35, 100
2, 186120, Note_off_c, 9, 35, 80
2, 186120, Note_on_c, 9, 38, 100
2, 186240, Note_off_c, 9, 59, 80
2, 186240, Note_on_c, 9, 35, 100
2, 186240, Note_on_c, 9, 59, 100
2, 186250, Note_off_c, 9, 38, 80
2, 186480, Note_off_c, 9, 35, 80
2, 186480, Note_on_c, 9, 35, 100
2, 186720, Note_off_c, 9, 59, 80
2, 186720, Note_off_c, 9, 35, 80
2, 186720, Note_on_c, 9, 40, 100
2, 186720, Note_on_c, 9, 38, 100
2, 186720, Note_on_c, 9, 49, 100
2, 186720, Note_on_c, 9, 59, 100
2, 186960, Note_off_c, 9, 49, 80
2, 186960, Note_off_c, 9, 38, 80
2, 186960, Note_off_c, 9, 40, 80
2, 186960, Note_on_c, 9, 35, 100
2, 187080, Note_on_c, 9, 38, 100
2, 187200, Note_off_c, 9, 59, 80
2, 187200, Note_off_c, 9, 35, 80
2, 187200, Note_on_c, 9, 35, 100
2, 187200, Note_on_c, 9, 59, 100
2, 187320, Note_off_c, 9, 38, 80
2, 187320, Note_on_c, 9, 38, 100
2, 187440, Note_off_c, 9, 35, 80
2, 187440, Note_on_c, 9, 35, 100
2, 187560, Note_off_c, 9, 38, 80
2, 187680, Note_off_c, 9, 59, 80
2, 187680, Note_off_c, 9, 35, 80
2, 187680, Note_on_c, 9, 38, 100
2, 187680, Note_on_c, 9, 40, 100
2, 187680, Note_on_c, 9, 49, 100
2, 187680, Note_on_c, 9, 59, 100
2, 187920, Note_off_c, 9, 49, 80
2, 187920, Note_off_c, 9, 40, 80
2, 187920, Note_off_c, 9, 38, 80
2, 187920, Note_on_c, 9, 35, 100
2, 188040, Note_off_c, 9, 35, 80
2, 188040, Note_on_c, 9, 38, 100
2, 188160, Note_off_c, 9, 59, 80
2, 188160, Note_on_c, 9, 59, 100
2, 188160, Note_on_c, 9, 35, 100
2, 188170, Note_off_c, 9, 38, 80
2, 188400, Note_off_c, 9, 35, 80
2, 188400, Note_on_c, 9, 35, 100
2, 188640, Note_off_c, 9, 59, 80
2, 188640, Note_off_c, 9, 35, 80
2, 188640, Note_on_c, 9, 40, 100
2, 188640, Note_on_c, 9, 38, 100
2, 188640, Note_on_c, 9, 49, 100
2, 188640, Note_on_c, 9, 59, 100
2, 188880, Note_off_c, 9, 49, 80
2, 188880, Note_off_c, 9, 38, 80
2, 188880, Note_off_c, 9, 40, 80
2, 188880, Note_on_c, 9, 35, 100
2, 189000, Note_on_c, 9, 38, 100
2, 189120, Note_off_c, 9, 59, 80
2, 189120, Note_off_c, 9, 35, 80
2, 189120, Note_on_c, 9, 35, 100
2, 189120, Note_on_c, 9, 59, 100
2, 189240, Note_off_c, 9, 38, 80
2, 189240, Note_on_c, 9, 38, 100
2, 189360, Note_off_c, 9, 35, 80
2, 189360, Note_on_c, 9, 35, 100
2, 189480, Note_off_c, 9, 38, 80
2, 189600, Note_off_c, 9, 59, 80
2, 189600, Note_off_c, 9, 35, 80
2, 189600, Note_on_c, 9, 38, 100
2, 189600, Note_on_c, 9, 40, 100
2, 189600, Note_on_c, 9, 49, 100
2, 189600, Note_on_c, 9, 59, 100
2, 189840, Note_off_c, 9, 49, 80
2, 189840, Note_off_c, 9, 40, 80
2, 189840, Note_off_c, 9, 38, 80
2, 189840, Note_on_c, 9, 35, 100
2, 189960, Note_off_c, 9, 35, 80
2, 189960, Note_on_c, 9, 38, 100
2, 190080, Note_off_c, 9, 59, 80
2, 190090, Note_off_c, 9, 38, 80
2, 190090, End_track
3, 0, Start_track
3, 0, Title_t, "guitar1"
3, 0, MIDI_port, 0
3, 0, Channel_prefix, 0
3, 0, Control_c, 0, 7, 113
3, 0, Control_c, 0, 10, 64
3, 0, Control_c, 0, 0, 0
3, 0, Control_c, 0, 32, 40
3, 0, Program_c, 0, 30
3, 0, Control_c, 0, 74, 127
3, 0, Control_c, 0, 95, 127
3, 0, Note_on_c, 0, 38, 100
3, 720, Note_off_c, 0, 38, 80
3, 720, Note_on_c, 0, 38, 100
3, 960, Note_off_c, 0, 38, 80
3, 960, Note_on_c, 0, 43, 100
3, 1440, Note_off_c, 0, 43, 80
3, 1440, Note_on_c, 0, 48, 100
3, 1920, Note_off_c, 0, 48, 80
3, 1920, Note_on_c, 0, 38, 100
3, 2640, Note_off_c, 0, 38, 80
3, 2640, Note_on_c, 0, 38, 100
3, 2880, Note_off_c, 0, 38, 80
3, 2880, Note_on_c, 0, 43, 100
3, 3360, Note_off_c, 0, 43, 80
3, 3360, Note_on_c, 0, 48, 100
3, 3840, Note_off_c, 0, 48, 80
3, 3840, Note_on_c, 0, 38, 100
3, 4560, Note_off_c, 0, 38, 80
3, 4560, Note_on_c, 0, 38, 100
3, 4800, Note_off_c, 0, 38, 80
3, 4800, Note_on_c, 0, 43, 100
3, 5280, Note_off_c, 0, 43, 80
3, 5280, Note_on_c, 0, 48, 100
3, 5760, Note_off_c, 0, 48, 80
3, 5760, Note_on_c, 0, 38, 100
3, 6480, Note_off_c, 0, 38, 80
3, 6480, Note_on_c, 0, 38, 100
3, 6720, Note_off_c, 0, 38, 80
3, 6720, Note_on_c, 0, 43, 100
3, 7200, Note_off_c, 0, 43, 80
3, 7200, Note_on_c, 0, 48, 100
3, 7680, Note_off_c, 0, 48, 80
3, 23040, Note_on_c, 0, 38, 100
3, 23760, Note_off_c, 0, 38, 80
3, 23760, Note_on_c, 0, 38, 100
3, 24000, Note_off_c, 0, 38, 80
3, 24000, Note_on_c, 0, 43, 100
3, 24480, Note_off_c, 0, 43, 80
3, 24480, Note_on_c, 0, 48, 100
3, 24960, Note_off_c, 0, 48, 80
3, 24960, Note_on_c, 0, 38, 100
3, 25680, Note_off_c, 0, 38, 80
3, 25680, Note_on_c, 0, 38, 100
3, 25920, Note_off_c, 0, 38, 80
3, 25920, Note_on_c, 0, 43, 100
3, 26400, Note_off_c, 0, 43, 80
3, 26400, Note_on_c, 0, 48, 100
3, 26880, Note_off_c, 0, 48, 80
3, 26880, Note_on_c, 0, 38, 100
3, 27600, Note_off_c, 0, 38, 80
3, 27600, Note_on_c, 0, 38, 100
3, 27840, Note_off_c, 0, 38, 80
3, 27840, Note_on_c, 0, 43, 100
3, 28320, Note_off_c, 0, 43, 80
3, 28320, Note_on_c, 0, 48, 100
3, 28800, Note_off_c, 0, 48, 80
3, 28800, Note_on_c, 0, 38, 100
3, 29520, Note_off_c, 0, 38, 80
3, 29520, Note_on_c, 0, 38, 100
3, 29760, Note_off_c, 0, 38, 80
3, 29760, Note_on_c, 0, 43, 100
3, 30240, Note_off_c, 0, 43, 80
3, 30240, Note_on_c, 0, 48, 100
3, 30720, Note_off_c, 0, 48, 80
3, 65280, Note_on_c, 0, 69, 100
3, 65993, Note_off_c, 0, 69, 80
3, 66000, Note_on_c, 0, 67, 100
3, 66720, Note_on_c, 0, 65, 100
3, 66727, Note_off_c, 0, 67, 80
3, 67433, Note_off_c, 0, 65, 80
3, 67440, Note_on_c, 0, 62, 100
3, 67920, Note_off_c, 0, 62, 80
3, 67920, Note_on_c, 0, 65, 100
3, 68160, Note_on_c, 0, 67, 100
3, 68167, Note_off_c, 0, 65, 80
3, 68510, Note_off_c, 0, 67, 80
3, 68520, Note_on_c, 0, 69, 100
3, 68880, Note_on_c, 0, 62, 100
3, 68883, Note_off_c, 0, 69, 80
3, 69120, Note_on_c, 0, 69, 100
3, 69127, Note_off_c, 0, 62, 80
3, 69833, Note_off_c, 0, 69, 80
3, 69840, Note_on_c, 0, 67, 100
3, 70560, Note_on_c, 0, 65, 100
3, 70567, Note_off_c, 0, 67, 80
3, 71273, Note_off_c, 0, 65, 80
3, 71280, Note_on_c, 0, 67, 100
3, 71760, Note_off_c, 0, 67, 80
3, 71760, Note_on_c, 0, 62, 100
3, 72000, Note_on_c, 0, 65, 100
3, 72007, Note_off_c, 0, 62, 80
3, 72350, Note_off_c, 0, 65, 80
3, 72360, Note_on_c, 0, 67, 100
3, 72720, Note_on_c, 0, 62, 100
3, 72723, Note_off_c, 0, 67, 80
3, 72967, Note_off_c, 0, 62, 80
3, 137280, Note_on_c, 0, 93, 100
3, 137280, Note_on_c, 0, 105, 100
3, 137280, Note_on_c, 0, 117, 100
3, 137280, Note_on_c, 0, 122, 100
3, 142080, Note_off_c, 0, 122, 80
3, 142080, Note_off_c, 0, 117, 80
3, 142080, Note_off_c, 0, 105, 80
3, 142080, Note_off_c, 0, 93, 80
3, 161280, Note_on_c, 0, 69, 100
3, 161993, Note_off_c, 0, 69, 80
3, 162000, Note_on_c, 0, 67, 100
3, 162720, Note_on_c, 0, 65, 100
3, 162727, Note_off_c, 0, 67, 80
3, 163433, Note_off_c, 0, 65, 80
3, 163440, Note_on_c, 0, 62, 100
3, 163920, Note_off_c, 0, 62, 80
3, 163920, Note_on_c, 0, 65, 100
3, 164160, Note_on_c, 0, 67, 100
3, 164167, Note_off_c, 0, 65, 80
3, 164510, Note_off_c, 0, 67, 80
3, 164520, Note_on_c, 0, 69, 100
3, 164880, Note_on_c, 0, 62, 100
3, 164883, Note_off_c, 0, 69, 80
3, 165120, Note_on_c, 0, 69, 100
3, 165127, Note_off_c, 0, 62, 80
3, 165833, Note_off_c, 0, 69, 80
3, 165840, Note_on_c, 0, 67, 100
3, 166560, Note_on_c, 0, 65, 100
3, 166567, Note_off_c, 0, 67, 80
3, 167273, Note_off_c, 0, 65, 80
3, 167280, Note_on_c, 0, 67, 100
3, 167760, Note_off_c, 0, 67, 80
3, 167760, Note_on_c, 0, 62, 100
3, 168000, Note_on_c, 0, 65, 100
3, 168007, Note_off_c, 0, 62, 80
3, 168350, Note_off_c, 0, 65, 80
3, 168360, Note_on_c, 0, 67, 100
3, 168720, Note_on_c, 0, 62, 100
3, 168723, Note_off_c, 0, 67, 80
3, 168960, Note_on_c, 0, 38, 100
3, 168960, Note_on_c, 0, 69, 100
3, 168967, Note_off_c, 0, 62, 80
3, 169673, Note_off_c, 0, 69, 80
3, 169680, Note_off_c, 0, 38, 80
3, 169680, Note_on_c, 0, 38, 100
3, 169680, Note_on_c, 0, 67, 100
3, 169920, Note_off_c, 0, 38, 80
3, 169920, Note_on_c, 0, 43, 100
3, 170400, Note_off_c, 0, 43, 80
3, 170400, Note_on_c, 0, 48, 100
3, 170400, Note_on_c, 0, 65, 100
3, 170407, Note_off_c, 0, 67, 80
3, 170880, Note_off_c, 0, 48, 80
3, 170880, Note_on_c, 0, 38, 100
3, 171113, Note_off_c, 0, 65, 80
3, 171120, Note_on_c, 0, 67, 100
3, 171600, Note_off_c, 0, 38, 80
3, 171600, Note_off_c, 0, 67, 80
3, 171600, Note_on_c, 0, 38, 100
3, 171600, Note_on_c, 0, 62, 100
3, 171840, Note_off_c, 0, 38, 80
3, 171840, Note_on_c, 0, 43, 100
3, 171840, Note_on_c, 0, 65, 100
3, 171847, Note_off_c, 0, 62, 80
3, 172190, Note_off_c, 0, 65, 80
3, 172200, Note_on_c, 0, 67, 100
3, 172320, Note_off_c, 0, 43, 80
3, 172320, Note_on_c, 0, 48, 100
3, 172560, Note_on_c, 0, 62, 100
3, 172563, Note_off_c, 0, 67, 80
3, 172800, Note_off_c, 0, 48, 80
3, 172800, Note_on_c, 0, 38, 100
3, 172800, Note_on_c, 0, 69, 100
3, 172807, Note_off_c, 0, 62, 80
3, 173513, Note_off_c, 0, 69, 80
3, 173520, Note_off_c, 0, 38, 80
3, 173520, Note_on_c, 0, 38, 100
3, 173520, Note_on_c, 0, 67, 100
3, 173760, Note_off_c, 0, 38, 80
3, 173760, Note_on_c, 0, 43, 100
3, 174240, Note_off_c, 0, 43, 80
3, 174240, Note_on_c, 0, 48, 100
3, 174240, Note_on_c, 0, 65, 100
3, 174247, Note_off_c, 0, 67, 80
3, 174720, Note_off_c, 0, 48, 80
3, 174720, Note_on_c, 0, 38, 100
3, 174953, Note_off_c, 0, 65, 80
3, 174960, Note_on_c, 0, 67, 100
3, 175440, Note_off_c, 0, 38, 80
3, 175440, Note_off_c, 0, 67, 80
3, 175440, Note_on_c, 0, 38, 100
3, 175440, Note_on_c, 0, 62, 100
3, 175680, Note_off_c, 0, 38, 80
3, 175680, Note_on_c, 0, 43, 100
3, 175680, Note_on_c, 0, 65, 100
3, 175687, Note_off_c, 0, 62, 80
3, 176030, Note_off_c, 0, 65, 80
3, 176040, Note_on_c, 0, 67, 100
3, 176160, Note_off_c, 0, 43, 80
3, 176160, Note_on_c, 0, 48, 100
3, 176400, Note_on_c, 0, 62, 100
3, 176403, Note_off_c, 0, 67, 80
3, 176640, Note_off_c, 0, 48, 80
3, 176640, Note_on_c, 0, 38, 100
3, 176640, Note_on_c, 0, 69, 100
3, 176647, Note_off_c, 0, 62, 80
3, 177353, Note_off_c, 0, 69, 80
3, 177360, Note_off_c, 0, 38, 80
3, 177360, Note_on_c, 0, 38, 100
3, 177360, Note_on_c, 0, 67, 100
3, 177600, Note_off_c, 0, 38, 80
3, 177600, Note_on_c, 0, 43, 100
3, 178080, Note_off_c, 0, 43, 80
3, 178080, Note_on_c, 0, 48, 100
3, 178080, Note_on_c, 0, 65, 100
3, 178087, Note_off_c, 0, 67, 80
3, 178560, Note_off_c, 0, 48, 80
3, 178560, Note_on_c, 0, 38, 100
3, 178793, Note_off_c, 0, 65, 80
3, 178800, Note_on_c, 0, 67, 100
3, 179280, Note_off_c, 0, 38, 80
3, 179280, Note_off_c, 0, 67, 80
3, 179280, Note_on_c, 0, 38, 100
3, 179280, Note_on_c, 0, 62, 100
3, 179520, Note_off_c, 0, 38, 80
3, 179520, Note_on_c, 0, 43, 100
3, 179520, Note_on_c, 0, 65, 100
3, 179527, Note_off_c, 0, 62, 80
3, 179870, Note_off_c, 0, 65, 80
3, 179880, Note_on_c, 0, 67, 100
3, 180000, Note_off_c, 0, 43, 80
3, 180000, Note_on_c, 0, 48, 100
3, 180240, Note_on_c, 0, 62, 100
3, 180243, Note_off_c, 0, 67, 80
3, 180480, Note_off_c, 0, 48, 80
3, 180480, Note_on_c, 0, 38, 100
3, 180480, Note_on_c, 0, 69, 100
3, 180487, Note_off_c, 0, 62, 80
3, 181193, Note_off_c, 0, 69, 80
3, 181200, Note_off_c, 0, 38, 80
3, 181200, Note_on_c, 0, 38, 100
3, 181200, Note_on_c, 0, 67, 100
3, 181440, Note_off_c, 0, 38, 80
3, 181440, Note_on_c, 0, 43, 100
3, 181920, Note_off_c, 0, 43, 80
3, 181920, Note_on_c, 0, 48, 100
3, 181920, Note_on_c, 0, 65, 100
3, 181927, Note_off_c, 0, 67, 80
3, 182400, Note_off_c, 0, 48, 80
3, 182400, Note_on_c, 0, 38, 100
3, 182633, Note_off_c, 0, 65, 80
3, 182640, Note_on_c, 0, 67, 100
3, 183120, Note_off_c, 0, 38, 80
3, 183120, Note_off_c, 0, 67, 80
3, 183120, Note_on_c, 0, 38, 100
3, 183120, Note_on_c, 0, 62, 100
3, 183360, Note_off_c, 0, 38, 80
3, 183360, Note_on_c, 0, 43, 100
3, 183360, Note_on_c, 0, 65, 100
3, 183367, Note_off_c, 0, 62, 80
3, 183710, Note_off_c, 0, 65, 80
3, 183720, Note_on_c, 0, 67, 100
3, 183840, Note_off_c, 0, 43, 80
3, 183840, Note_on_c, 0, 48, 100
3, 184080, Note_on_c, 0, 62, 100
3, 184083, Note_off_c, 0, 67, 80
3, 184320, Note_off_c, 0, 48, 80
3, 184320, Note_on_c, 0, 38, 100
3, 184320, Note_on_c, 0, 69, 100
3, 184327, Note_off_c, 0, 62, 80
3, 185033, Note_off_c, 0, 69, 80
3, 185040, Note_off_c, 0, 38, 80
3, 185040, Note_on_c, 0, 38, 100
3, 185040, Note_on_c, 0, 67, 100
3, 185280, Note_off_c, 0, 38, 80
3, 185280, Note_on_c, 0, 43, 100
3, 185760, Note_off_c, 0, 43, 80
3, 185760, Note_on_c, 0, 48, 100
3, 185760, Note_on_c, 0, 65, 100
3, 185767, Note_off_c, 0, 67, 80
3, 186240, Note_off_c, 0, 48, 80
3, 186240, Note_on_c, 0, 38, 100
3, 186473, Note_off_c, 0, 65, 80
3, 186480, Note_on_c, 0, 67, 100
3, 186960, Note_off_c, 0, 38, 80
3, 186960, Note_off_c, 0, 67, 80
3, 186960, Note_on_c, 0, 38, 100
3, 186960, Note_on_c, 0, 62, 100
3, 187200, Note_off_c, 0, 38, 80
3, 187200, Note_on_c, 0, 43, 100
3, 187200, Note_on_c, 0, 65, 100
3, 187207, Note_off_c, 0, 62, 80
3, 187550, Note_off_c, 0, 65, 80
3, 187560, Note_on_c, 0, 67, 100
3, 187680, Note_off_c, 0, 43, 80
3, 187680, Note_on_c, 0, 48, 100
3, 187920, Note_on_c, 0, 62, 100
3, 187923, Note_off_c, 0, 67, 80
3, 188160, Note_off_c, 0, 48, 80
3, 188167, Note_off_c, 0, 62, 80
3, 188167, End_track
4, 0, Start_track
4, 0, Title_t, "guitar2"
4, 0, MIDI_port, 0
4, 0, Channel_prefix, 1
4, 0, Control_c, 1, 7, 99
4, 0, Control_c, 1, 10, 64
4, 0, Control_c, 1, 0, 0
4, 0, Control_c, 1, 32, 0
4, 0, Program_c, 1, 29
4, 0, Note_on_c, 1, 38, 100
4, 720, Note_off_c, 1, 38, 80
4, 720, Note_on_c, 1, 38, 100
4, 960, Note_off_c, 1, 38, 80
4, 960, Note_on_c, 1, 43, 100
4, 1440, Note_off_c, 1, 43, 80
4, 1440, Note_on_c, 1, 48, 100
4, 1920, Note_off_c, 1, 48, 80
4, 1920, Note_on_c, 1, 38, 100
4, 2640, Note_off_c, 1, 38, 80
4, 2640, Note_on_c, 1, 38, 100
4, 2880, Note_off_c, 1, 38, 80
4, 2880, Note_on_c, 1, 43, 100
4, 3360, Note_off_c, 1, 43, 80
4, 3360, Note_on_c, 1, 48, 100
4, 3840, Note_off_c, 1, 48, 80
4, 3840, Note_on_c, 1, 38, 100
4, 4560, Note_off_c, 1, 38, 80
4, 4560, Note_on_c, 1, 38, 100
4, 4800, Note_off_c, 1, 38, 80
4, 4800, Note_on_c, 1, 43, 100
4, 5280, Note_off_c, 1, 43, 80
4, 5280, Note_on_c, 1, 48, 100
4, 5760, Note_off_c, 1, 48, 80
4, 5760, Note_on_c, 1, 38, 100
4, 6480, Note_off_c, 1, 38, 80
4, 6480, Note_on_c, 1, 38, 100
4, 6720, Note_off_c, 1, 38, 80
4, 6720, Note_on_c, 1, 43, 100
4, 7200, Note_off_c, 1, 43, 80
4, 7200, Note_on_c, 1, 48, 100
4, 7680, Note_off_c, 1, 48, 80
4, 23040, Note_on_c, 1, 38, 100
4, 23760, Note_off_c, 1, 38, 80
4, 23760, Note_on_c, 1, 38, 100
4, 24000, Note_off_c, 1, 38, 80
4, 24000, Note_on_c, 1, 43, 100
4, 24480, Note_off_c, 1, 43, 80
4, 24480, Note_on_c, 1, 48, 100
4, 24960, Note_off_c, 1, 48, 80
4, 24960, Note_on_c, 1, 38, 100
4, 25680, Note_off_c, 1, 38, 80
4, 25680, Note_on_c, 1, 38, 100
4, 25920, Note_off_c, 1, 38, 80
4, 25920, Note_on_c, 1, 43, 100
4, 26400, Note_off_c, 1, 43, 80
4, 26400, Note_on_c, 1, 48, 100
4, 26880, Note_off_c, 1, 48, 80
4, 26880, Note_on_c, 1, 38, 100
4, 27600, Note_off_c, 1, 38, 80
4, 27600, Note_on_c, 1, 38, 100
4, 27840, Note_off_c, 1, 38, 80
4, 27840, Note_on_c, 1, 43, 100
4, 28320, Note_off_c, 1, 43, 80
4, 28320, Note_on_c, 1, 48, 100
4, 28800, Note_off_c, 1, 48, 80
4, 28800, Note_on_c, 1, 38, 100
4, 29520, Note_off_c, 1, 38, 80
4, 29520, Note_on_c, 1, 38, 100
4, 29760, Note_off_c, 1, 38, 80
4, 29760, Note_on_c, 1, 43, 100
4, 30240, Note_off_c, 1, 43, 80
4, 30240, Note_on_c, 1, 48, 100
4, 30720, Note_off_c, 1, 48, 80
4, 65280, Note_on_c, 1, 62, 100
4, 65993, Note_off_c, 1, 62, 80
4, 66000, Note_on_c, 1, 62, 100
4, 66720, Note_on_c, 1, 60, 100
4, 66727, Note_off_c, 1, 62, 80
4, 67433, Note_off_c, 1, 60, 80
4, 67440, Note_on_c, 1, 57, 100
4, 67920, Note_off_c, 1, 57, 80
4, 67920, Note_on_c, 1, 62, 100
4, 68160, Note_on_c, 1, 60, 100
4, 68167, Note_off_c, 1, 62, 80
4, 68510, Note_off_c, 1, 60, 80
4, 68520, Note_on_c, 1, 57, 100
4, 68880, Note_on_c, 1, 50, 100
4, 68883, Note_off_c, 1, 57, 80
4, 69120, Note_on_c, 1, 55, 100
4, 69127, Note_off_c, 1, 50, 80
4, 69170, Pitch_bend_c, 1, 9919
4, 69220, Pitch_bend_c, 1, 10370
4, 69270, Pitch_bend_c, 1, 11423
4, 69320, Pitch_bend_c, 1, 12775
4, 69370, Pitch_bend_c, 1, 13827
4, 69420, Pitch_bend_c, 1, 14579
4, 69470, Pitch_bend_c, 1, 15481
4, 69520, Pitch_bend_c, 1, 16383
4, 69833, Note_off_c, 1, 55, 80
4, 69840, Note_on_c, 1, 55, 100
4, 69840, Pitch_bend_c, 1, 8192
4, 70560, Note_on_c, 1, 53, 100
4, 70567, Note_off_c, 1, 55, 80
4, 72960, Note_off_c, 1, 53, 80
4, 161280, Note_on_c, 1, 62, 100
4, 161993, Note_off_c, 1, 62, 80
4, 162000, Note_on_c, 1, 62, 100
4, 162720, Note_on_c, 1, 60, 100
4, 162727, Note_off_c, 1, 62, 80
4, 163433, Note_off_c, 1, 60, 80
4, 163440, Note_on_c, 1, 57, 100
4, 163920, Note_off_c, 1, 57, 80
4, 163920, Note_on_c, 1, 62, 100
4, 164160, Note_on_c, 1, 60, 100
4, 164167, Note_off_c, 1, 62, 80
4, 164510, Note_off_c, 1, 60, 80
4, 164520, Note_on_c, 1, 57, 100
4, 164880, Note_on_c, 1, 50, 100
4, 164883, Note_off_c, 1, 57, 80
4, 165120, Note_on_c, 1, 55, 100
4, 165127, Note_off_c, 1, 50, 80
4, 165833, Note_off_c, 1, 55, 80
4, 165840, Note_on_c, 1, 55, 100
4, 166560, Note_on_c, 1, 53, 100
4, 166567, Note_off_c, 1, 55, 80
4, 168960, Note_off_c, 1, 53, 80
4, 168960, Note_on_c, 1, 38, 100
4, 169680, Note_off_c, 1, 38, 80
4, 169680, Note_on_c, 1, 38, 100
4, 169920, Note_off_c, 1, 38, 80
4, 169920, Note_on_c, 1, 43, 100
4, 170400, Note_off_c, 1, 43, 80
4, 170400, Note_on_c, 1, 48, 100
4, 170880, Note_off_c, 1, 48, 80
4, 170880, Note_on_c, 1, 38, 100
4, 171600, Note_off_c, 1, 38, 80
4, 171600, Note_on_c, 1, 38, 100
4, 171840, Note_off_c, 1, 38, 80
4, 171840, Note_on_c, 1, 43, 100
4, 172320, Note_off_c, 1, 43, 80
4, 172320, Note_on_c, 1, 48, 100
4, 172800, Note_off_c, 1, 48, 80
4, 172800, Note_on_c, 1, 38, 100
4, 173520, Note_off_c, 1, 38, 80
4, 173520, Note_on_c, 1, 38, 100
4, 173760, Note_off_c, 1, 38, 80
4, 173760, Note_on_c, 1, 43, 100
4, 174240, Note_off_c, 1, 43, 80
4, 174240, Note_on_c, 1, 48, 100
4, 174720, Note_off_c, 1, 48, 80
4, 174720, Note_on_c, 1, 38, 100
4, 175440, Note_off_c, 1, 38, 80
4, 175440, Note_on_c, 1, 38, 100
4, 175680, Note_off_c, 1, 38, 80
4, 175680, Note_on_c, 1, 43, 100
4, 176160, Note_off_c, 1, 43, 80
4, 176160, Note_on_c, 1, 48, 100
4, 176160, Note_on_c, 1, 98, 100
4, 176160, Note_on_c, 1, 98, 100
4, 176160, Note_on_c, 1, 98, 100
4, 176160, Note_on_c, 1, 98, 100
4, 176160, Note_on_c, 1, 98, 100
4, 176160, Note_on_c, 1, 98, 100
4, 176160, Note_on_c, 1, 98, 100
4, 176160, Note_on_c, 1, 98, 100
4, 176160, Note_on_c, 1, 110, 100
4, 176160, Note_on_c, 1, 110, 100
4, 176160, Note_on_c, 1, 110, 100
4, 176160, Note_on_c, 1, 110, 100
4, 176160, Note_on_c, 1, 110, 100
4, 176640, Note_off_c, 1, 48, 80
4, 176640, Note_on_c, 1, 38, 100
4, 176640, Note_on_c, 1, 62, 100
4, 176640, Note_on_c, 1, 62, 100
4, 176640, Note_on_c, 1, 62, 100
4, 176640, Note_on_c, 1, 62, 100
4, 176640, Note_on_c, 1, 62, 100
4, 176640, Note_on_c, 1, 74, 100
4, 176640, Note_on_c, 1, 74, 100
4, 176640, Note_on_c, 1, 74, 100
4, 176640, Note_on_c, 1, 62, 100
4, 176880, Note_off_c, 1, 62, 80
4, 176880, Note_off_c, 1, 74, 80
4, 176880, Note_off_c, 1, 74, 80
4, 176880, Note_off_c, 1, 74, 80
4, 176880, Note_off_c, 1, 62, 80
4, 176880, Note_off_c, 1, 62, 80
4, 176880, Note_off_c, 1, 62, 80
4, 176880, Note_off_c, 1, 62, 80
4, 176880, Note_off_c, 1, 62, 80
4, 176880, Note_on_c, 1, 62, 100
4, 176880, Note_on_c, 1, 62, 100
4, 176880, Note_on_c, 1, 62, 100
4, 176880, Note_on_c, 1, 62, 100
4, 176880, Note_on_c, 1, 62, 100
4, 176880, Note_on_c, 1, 62, 100
4, 176880, Note_on_c, 1, 74, 100
4, 176880, Note_on_c, 1, 74, 100
4, 176880, Note_on_c, 1, 74, 100
4, 176880, Note_on_c, 1, 62, 100
4, 177120, Note_off_c, 1, 62, 80
4, 177120, Note_off_c, 1, 74, 80
4, 177120, Note_off_c, 1, 74, 80
4, 177120, Note_off_c, 1, 74, 80
4, 177120, Note_off_c, 1, 62, 80
4, 177120, Note_off_c, 1, 62, 80
4, 177120, Note_off_c, 1, 62, 80
4, 177120, Note_off_c, 1, 62, 80
4, 177120, Note_off_c, 1, 62, 80
4, 177120, Note_off_c, 1, 62, 80
4, 177120, Note_on_c, 1, 62, 100
4, 177120, Note_on_c, 1, 62, 100
4, 177120, Note_on_c, 1, 62, 100
4, 177120, Note_on_c, 1, 62, 100
4, 177120, Note_on_c, 1, 62, 100
4, 177120, Note_on_c, 1, 62, 100
4, 177120, Note_on_c, 1, 74, 100
4, 177120, Note_on_c, 1, 74, 100
4, 177120, Note_on_c, 1, 74, 100
4, 177120, Note_on_c, 1, 62, 100
4, 177360, Note_off_c, 1, 62, 80
4, 177360, Note_off_c, 1, 74, 80
4, 177360, Note_off_c, 1, 74, 80
4, 177360, Note_off_c, 1, 74, 80
4, 177360, Note_off_c, 1, 62, 80
4, 177360, Note_off_c, 1, 62, 80
4, 177360, Note_off_c, 1, 62, 80
4, 177360, Note_off_c, 1, 62, 80
4, 177360, Note_off_c, 1, 62, 80
4, 177360, Note_off_c, 1, 38, 80
4, 177360, Note_off_c, 1, 62, 80
4, 177360, Note_on_c, 1, 38, 100
4, 177360, Note_on_c, 1, 62, 100
4, 177360, Note_on_c, 1, 74, 100
4, 177360, Note_on_c, 1, 74, 100
4, 177360, Note_on_c, 1, 62, 100
4, 177600, Note_off_c, 1, 62, 80
4, 177600, Note_off_c, 1, 74, 80
4, 177600, Note_off_c, 1, 74, 80
4, 177600, Note_off_c, 1, 62, 80
4, 177600, Note_off_c, 1, 38, 80
4, 177600, Note_on_c, 1, 43, 100
4, 178080, Note_off_c, 1, 43, 80
4, 178080, Note_on_c, 1, 48, 100
4, 178560, Note_off_c, 1, 48, 80
4, 178560, Note_on_c, 1, 38, 100
4, 178560, Note_on_c, 1, 62, 100
4, 178560, Note_on_c, 1, 74, 100
4, 178560, Note_on_c, 1, 74, 100
4, 178560, Note_on_c, 1, 74, 100
4, 178560, Note_on_c, 1, 74, 100
4, 178560, Note_on_c, 1, 62, 100
4, 178560, Note_on_c, 1, 62, 100
4, 178560, Note_on_c, 1, 62, 100
4, 178560, Note_on_c, 1, 62, 100
4, 178560, Note_on_c, 1, 62, 100
4, 178800, Note_off_c, 1, 62, 80
4, 178800, Note_off_c, 1, 62, 80
4, 178800, Note_off_c, 1, 62, 80
4, 178800, Note_off_c, 1, 62, 80
4, 178800, Note_off_c, 1, 62, 80
4, 178800, Note_off_c, 1, 74, 80
4, 178800, Note_off_c, 1, 74, 80
4, 178800, Note_off_c, 1, 74, 80
4, 178800, Note_off_c, 1, 74, 80
4, 178800, Note_off_c, 1, 62, 80
4, 178800, Note_on_c, 1, 62, 100
4, 178800, Note_on_c, 1, 74, 100
4, 178800, Note_on_c, 1, 74, 100
4, 178800, Note_on_c, 1, 74, 100
4, 178800, Note_on_c, 1, 74, 100
4, 178800, Note_on_c, 1, 62, 100
4, 178800, Note_on_c, 1, 62, 100
4, 178800, Note_on_c, 1, 62, 100
4, 178800, Note_on_c, 1, 62, 100
4, 179040, Note_off_c, 1, 62, 80
4, 179040, Note_off_c, 1, 62, 80
4, 179040, Note_off_c, 1, 62, 80
4, 179040, Note_off_c, 1, 74, 80
4, 179040, Note_off_c, 1, 74, 80
4, 179040, Note_off_c, 1, 74, 80
4, 179040, Note_off_c, 1, 74, 80
4, 179040, Note_off_c, 1, 62, 80
4, 179047, Note_off_c, 1, 62, 80
4, 179280, Note_off_c, 1, 38, 80
4, 179280, Note_on_c, 1, 38, 100
4, 179280, Note_on_c, 1, 62, 100
4, 179280, Note_on_c, 1, 62, 100
4, 179280, Note_on_c, 1, 62, 100
4, 179280, Note_on_c, 1, 62, 100
4, 179280, Note_on_c, 1, 62, 100
4, 179280, Note_on_c, 1, 62, 100
4, 179280, Note_on_c, 1, 62, 100
4, 179280, Note_on_c, 1, 62, 100
4, 179280, Note_on_c, 1, 62, 100
4, 179280, Note_on_c, 1, 62, 100
4, 179280, Note_on_c, 1, 62, 100
4, 179280, Note_on_c, 1, 74, 100
4, 179280, Note_on_c, 1, 74, 100
4, 179280, Note_on_c, 1, 74, 100
4, 179280, Note_on_c, 1, 74, 100
4, 179280, Note_on_c, 1, 74, 100
4, 179280, Note_on_c, 1, 74, 100
4, 179280, Note_on_c, 1, 74, 100
4, 179410, Note_off_c, 1, 74, 80
4, 179520, Note_off_c, 1, 38, 80
4, 179520, Note_on_c, 1, 43, 100
4, 180000, Note_off_c, 1, 43, 80
4, 180000, Note_on_c, 1, 48, 100
4, 180007, Note_off_c, 1, 74, 80
4, 180480, Note_off_c, 1, 48, 80
4, 180480, Note_on_c, 1, 38, 100
4, 180480, Note_on_c, 1, 62, 100
4, 180480, Note_on_c, 1, 74, 100
4, 180480, Note_on_c, 1, 74, 100
4, 180480, Note_on_c, 1, 74, 100
4, 180480, Note_on_c, 1, 62, 100
4, 180480, Note_on_c, 1, 62, 100
4, 180480, Note_on_c, 1, 62, 100
4, 180480, Note_on_c, 1, 62, 100
4, 180480, Note_on_c, 1, 62, 100
4, 180487, Note_off_c, 1, 62, 80
4, 180487, Note_off_c, 1, 62, 80
4, 180487, Note_off_c, 1, 62, 80
4, 180487, Note_off_c, 1, 62, 80
4, 180487, Note_off_c, 1, 62, 80
4, 180487, Note_off_c, 1, 74, 80
4, 180487, Note_off_c, 1, 74, 80
4, 180487, Note_off_c, 1, 74, 80
4, 180487, Note_off_c, 1, 62, 80
4, 180487, Note_off_c, 1, 62, 80
4, 180487, Note_off_c, 1, 62, 80
4, 180487, Note_off_c, 1, 62, 80
4, 180487, Note_off_c, 1, 62, 80
4, 180487, Note_off_c, 1, 62, 80
4, 180487, Note_off_c, 1, 74, 80
4, 180487, Note_off_c, 1, 74, 80
4, 180720, Note_off_c, 1, 62, 80
4, 180720, Note_off_c, 1, 62, 80
4, 180720, Note_off_c, 1, 62, 80
4, 180720, Note_off_c, 1, 62, 80
4, 180720, Note_off_c, 1, 62, 80
4, 180720, Note_off_c, 1, 62, 80
4, 180720, Note_off_c, 1, 74, 80
4, 180720, Note_off_c, 1, 74, 80
4, 180720, Note_off_c, 1, 74, 80
4, 180720, Note_on_c, 1, 62, 100
4, 180720, Note_on_c, 1, 62, 100
4, 180720, Note_on_c, 1, 62, 100
4, 180720, Note_on_c, 1, 62, 100
4, 180720, Note_on_c, 1, 62, 100
4, 180720, Note_on_c, 1, 62, 100
4, 180720, Note_on_c, 1, 74, 100
4, 180720, Note_on_c, 1, 74, 100
4, 180720, Note_on_c, 1, 74, 100
4, 180720, Note_on_c, 1, 62, 100
4, 180960, Note_off_c, 1, 62, 80
4, 180960, Note_off_c, 1, 74, 80
4, 180960, Note_off_c, 1, 74, 80
4, 180960, Note_off_c, 1, 74, 80
4, 180960, Note_off_c, 1, 62, 80
4, 180960, Note_off_c, 1, 62, 80
4, 180960, Note_off_c, 1, 62, 80
4, 180960, Note_off_c, 1, 62, 80
4, 180960, Note_off_c, 1, 62, 80
4, 180960, Note_off_c, 1, 62, 80
4, 180960, Note_on_c, 1, 62, 100
4, 180960, Note_on_c, 1, 62, 100
4, 180960, Note_on_c, 1, 62, 100
4, 180960, Note_on_c, 1, 62, 100
4, 180960, Note_on_c, 1, 62, 100
4, 180960, Note_on_c, 1, 62, 100
4, 180960, Note_on_c, 1, 74, 100
4, 180960, Note_on_c, 1, 74, 100
4, 180960, Note_on_c, 1, 74, 100
4, 180960, Note_on_c, 1, 62, 100
4, 181200, Note_off_c, 1, 62, 80
4, 181200, Note_off_c, 1, 74, 80
4, 181200, Note_off_c, 1, 74, 80
4, 181200, Note_off_c, 1, 74, 80
4, 181200, Note_off_c, 1, 62, 80
4, 181200, Note_off_c, 1, 62, 80
4, 181200, Note_off_c, 1, 62, 80
4, 181200, Note_off_c, 1, 62, 80
4, 181200, Note_off_c, 1, 62, 80
4, 181200, Note_off_c, 1, 38, 80
4, 181200, Note_off_c, 1, 62, 80
4, 181200, Note_on_c, 1, 38, 100
4, 181200, Note_on_c, 1, 62, 100
4, 181200, Note_on_c, 1, 74, 100
4, 181200, Note_on_c, 1, 74, 100
4, 181200, Note_on_c, 1, 62, 100
4, 181440, Note_off_c, 1, 62, 80
4, 181440, Note_off_c, 1, 74, 80
4, 181440, Note_off_c, 1, 74, 80
4, 181440, Note_off_c, 1, 62, 80
4, 181440, Note_off_c, 1, 38, 80
4, 181440, Note_on_c, 1, 43, 100
4, 181920, Note_off_c, 1, 43, 80
4, 181920, Note_on_c, 1, 48, 100
4, 182400, Note_off_c, 1, 98, 80
4, 182400, Note_off_c, 1, 98, 80
4, 182400, Note_off_c, 1, 98, 80
4, 182400, Note_off_c, 1, 98, 80
4, 182400, Note_off_c, 1, 98, 80
4, 182400, Note_off_c, 1, 98, 80
4, 182400, Note_off_c, 1, 98, 80
4, 182400, Note_off_c, 1, 98, 80
4, 182400, Note_off_c, 1, 110, 80
4, 182400, Note_off_c, 1, 110, 80
4, 182400, Note_off_c, 1, 110, 80
4, 182400, Note_off_c, 1, 110, 80
4, 182400, Note_off_c, 1, 110, 80
4, 182400, Note_off_c, 1, 48, 80
4, 182400, Note_on_c, 1, 38, 100
4, 182400, Note_on_c, 1, 62, 100
4, 182400, Note_on_c, 1, 74, 100
4, 182400, Note_on_c, 1, 74, 100
4, 182400, Note_on_c, 1, 74, 100
4, 182400, Note_on_c, 1, 74, 100
4, 182400, Note_on_c, 1, 62, 100
4, 182400, Note_on_c, 1, 62, 100
4, 182400, Note_on_c, 1, 62, 100
4, 182400, Note_on_c, 1, 62, 100
4, 182400, Note_on_c, 1, 62, 100
4, 182400, Note_on_c, 1, 110, 100
4, 182400, Note_on_c, 1, 110, 100
4, 182400, Note_on_c, 1, 110, 100
4, 182400, Note_on_c, 1, 110, 100
4, 182400, Note_on_c, 1, 110, 100
4, 182400, Note_on_c, 1, 98, 100
4, 182400, Note_on_c, 1, 98, 100
4, 182400, Note_on_c, 1, 98, 100
4, 182400, Note_on_c, 1, 98, 100
4, 182400, Note_on_c, 1, 98, 100
4, 182400, Note_on_c, 1, 98, 100
4, 182400, Note_on_c, 1, 98, 100
4, 182400, Note_on_c, 1, 98, 100
4, 182640, Note_off_c, 1, 62, 80
4, 182640, Note_off_c, 1, 62, 80
4, 182640, Note_off_c, 1, 62, 80
4, 182640, Note_off_c, 1, 62, 80
4, 182640, Note_off_c, 1, 62, 80
4, 182640, Note_off_c, 1, 74, 80
4, 182640, Note_off_c, 1, 74, 80
4, 182640, Note_off_c, 1, 74, 80
4, 182640, Note_off_c, 1, 74, 80
4, 182640, Note_off_c, 1, 62, 80
4, 182640, Note_on_c, 1, 62, 100
4, 182640, Note_on_c, 1, 74, 100
4, 182640, Note_on_c, 1, 74, 100
4, 182640, Note_on_c, 1, 74, 100
4, 182640, Note_on_c, 1, 74, 100
4, 182640, Note_on_c, 1, 62, 100
4, 182640, Note_on_c, 1, 62, 100
4, 182640, Note_on_c, 1, 62, 100
4, 182640, Note_on_c, 1, 62, 100
4, 182880, Note_off_c, 1, 62, 80
4, 182880, Note_off_c, 1, 62, 80
4, 182880, Note_off_c, 1, 62, 80
4, 182880, Note_off_c, 1, 74, 80
4, 182880, Note_off_c, 1, 74, 80
4, 182880, Note_off_c, 1, 74, 80
4, 182880, Note_off_c, 1, 74, 80
4, 182880, Note_off_c, 1, 62, 80
4, 182887, Note_off_c, 1, 62, 80
4, 183120, Note_off_c, 1, 38, 80
4, 183120, Note_on_c, 1, 38, 100
4, 183120, Note_on_c, 1, 62, 100
4, 183120, Note_on_c, 1, 62, 100
4, 183120, Note_on_c, 1, 62, 100
4, 183120, Note_on_c, 1, 62, 100
4, 183120, Note_on_c, 1, 62, 100
4, 183120, Note_on_c, 1, 62, 100
4, 183120, Note_on_c, 1, 62, 100
4, 183120, Note_on_c, 1, 62, 100
4, 183120, Note_on_c, 1, 62, 100
4, 183120, Note_on_c, 1, 62, 100
4, 183120, Note_on_c, 1, 62, 100
4, 183120, Note_on_c, 1, 74, 100
4, 183120, Note_on_c, 1, 74, 100
4, 183120, Note_on_c, 1, 74, 100
4, 183120, Note_on_c, 1, 74, 100
4, 183120, Note_on_c, 1, 74, 100
4, 183120, Note_on_c, 1, 74, 100
4, 183120, Note_on_c, 1, 74, 100
4, 183250, Note_off_c, 1, 74, 80
4, 183360, Note_off_c, 1, 38, 80
4, 183360, Note_on_c, 1, 43, 100
4, 183840, Note_off_c, 1, 43, 80
4, 183840, Note_on_c, 1, 48, 100
4, 183847, Note_off_c, 1, 74, 80
4, 184320, Note_off_c, 1, 48, 80
4, 184320, Note_on_c, 1, 38, 100
4, 184320, Note_on_c, 1, 62, 100
4, 184320, Note_on_c, 1, 62, 100
4, 184320, Note_on_c, 1, 62, 100
4, 184320, Note_on_c, 1, 62, 100
4, 184320, Note_on_c, 1, 62, 100
4, 184320, Note_on_c, 1, 74, 100
4, 184320, Note_on_c, 1, 74, 100
4, 184320, Note_on_c, 1, 74, 100
4, 184320, Note_on_c, 1, 62, 100
4, 184327, Note_off_c, 1, 62, 80
4, 184327, Note_off_c, 1, 74, 80
4, 184327, Note_off_c, 1, 74, 80
4, 184327, Note_off_c, 1, 74, 80
4, 184327, Note_off_c, 1, 62, 80
4, 184327, Note_off_c, 1, 62, 80
4, 184327, Note_off_c, 1, 62, 80
4, 184327, Note_off_c, 1, 62, 80
4, 184327, Note_off_c, 1, 62, 80
4, 184327, Note_off_c, 1, 62, 80
4, 184327, Note_off_c, 1, 62, 80
4, 184327, Note_off_c, 1, 62, 80
4, 184327, Note_off_c, 1, 62, 80
4, 184327, Note_off_c, 1, 62, 80
4, 184327, Note_off_c, 1, 74, 80
4, 184327, Note_off_c, 1, 74, 80
4, 184560, Note_off_c, 1, 62, 80
4, 184560, Note_off_c, 1, 62, 80
4, 184560, Note_off_c, 1, 62, 80
4, 184560, Note_off_c, 1, 62, 80
4, 184560, Note_off_c, 1, 62, 80
4, 184560, Note_off_c, 1, 62, 80
4, 184560, Note_off_c, 1, 74, 80
4, 184560, Note_off_c, 1, 74, 80
4, 184560, Note_off_c, 1, 74, 80
4, 184560, Note_on_c, 1, 62, 100
4, 184560, Note_on_c, 1, 62, 100
4, 184560, Note_on_c, 1, 62, 100
4, 184560, Note_on_c, 1, 62, 100
4, 184560, Note_on_c, 1, 62, 100
4, 184560, Note_on_c, 1, 62, 100
4, 184560, Note_on_c, 1, 74, 100
4, 184560, Note_on_c, 1, 74, 100
4, 184560, Note_on_c, 1, 74, 100
4, 184560, Note_on_c, 1, 62, 100
4, 184800, Note_off_c, 1, 62, 80
4, 184800, Note_off_c, 1, 74, 80
4, 184800, Note_off_c, 1, 74, 80
4, 184800, Note_off_c, 1, 74, 80
4, 184800, Note_off_c, 1, 62, 80
4, 184800, Note_off_c, 1, 62, 80
4, 184800, Note_off_c, 1, 62, 80
4, 184800, Note_off_c, 1, 62, 80
4, 184800, Note_off_c, 1, 62, 80
4, 184800, Note_off_c, 1, 62, 80
4, 184800, Note_on_c, 1, 62, 100
4, 184800, Note_on_c, 1, 62, 100
4, 184800, Note_on_c, 1, 62, 100
4, 184800, Note_on_c, 1, 62, 100
4, 184800, Note_on_c, 1, 62, 100
4, 184800, Note_on_c, 1, 62, 100
4, 184800, Note_on_c, 1, 74, 100
4, 184800, Note_on_c, 1, 74, 100
4, 184800, Note_on_c, 1, 74, 100
4, 184800, Note_on_c, 1, 62, 100
4, 185040, Note_off_c, 1, 62, 80
4, 185040, Note_off_c, 1, 74, 80
4, 185040, Note_off_c, 1, 74, 80
4, 185040, Note_off_c, 1, 74, 80
4, 185040, Note_off_c, 1, 62, 80
4, 185040, Note_off_c, 1, 62, 80
4, 185040, Note_off_c, 1, 62, 80
4, 185040, Note_off_c, 1, 62, 80
4, 185040, Note_off_c, 1, 62, 80
4, 185040, Note_off_c, 1, 38, 80
4, 185040, Note_off_c, 1, 62, 80
4, 185040, Note_on_c, 1, 38, 100
4, 185040, Note_on_c, 1, 62, 100
4, 185040, Note_on_c, 1, 74, 100
4, 185040, Note_on_c, 1, 74, 100
4, 185040, Note_on_c, 1, 62, 100
4, 185280, Note_off_c, 1, 62, 80
4, 185280, Note_off_c, 1, 74, 80
4, 185280, Note_off_c, 1, 74, 80
4, 185280, Note_off_c, 1, 62, 80
4, 185280, Note_off_c, 1, 38, 80
4, 185280, Note_on_c, 1, 43, 100
4, 185760, Note_off_c, 1, 43, 80
4, 185760, Note_on_c, 1, 48, 100
4, 186240, Note_off_c, 1, 48, 80
4, 186240, Note_on_c, 1, 38, 100
4, 186240, Note_on_c, 1, 62, 100
4, 186240, Note_on_c, 1, 74, 100
4, 186240, Note_on_c, 1, 74, 100
4, 186240, Note_on_c, 1, 74, 100
4, 186240, Note_on_c, 1, 74, 100
4, 186240, Note_on_c, 1, 62, 100
4, 186240, Note_on_c, 1, 62, 100
4, 186240, Note_on_c, 1, 62, 100
4, 186240, Note_on_c, 1, 62, 100
4, 186240, Note_on_c, 1, 62, 100
4, 186480, Note_off_c, 1, 62, 80
4, 186480, Note_off_c, 1, 62, 80
4, 186480, Note_off_c, 1, 62, 80
4, 186480, Note_off_c, 1, 62, 80
4, 186480, Note_off_c, 1, 62, 80
4, 186480, Note_off_c, 1, 74, 80
4, 186480, Note_off_c, 1, 74, 80
4, 186480, Note_off_c, 1, 74, 80
4, 186480, Note_off_c, 1, 74, 80
4, 186480, Note_off_c, 1, 62, 80
4, 186480, Note_on_c, 1, 62, 100
4, 186480, Note_on_c, 1, 74, 100
4, 186480, Note_on_c, 1, 74, 100
4, 186480, Note_on_c, 1, 74, 100
4, 186480, Note_on_c, 1, 74, 100
4, 186480, Note_on_c, 1, 62, 100
4, 186480, Note_on_c, 1, 62, 100
4, 186480, Note_on_c, 1, 62, 100
4, 186480, Note_on_c, 1, 62, 100
4, 186720, Note_off_c, 1, 62, 80
4, 186720, Note_off_c, 1, 62, 80
4, 186720, Note_off_c, 1, 62, 80
4, 186720, Note_off_c, 1, 74, 80
4, 186720, Note_off_c, 1, 74, 80
4, 186720, Note_off_c, 1, 74, 80
4, 186720, Note_off_c, 1, 74, 80
4, 186720, Note_off_c, 1, 62, 80
4, 186727, Note_off_c, 1, 62, 80
4, 186960, Note_off_c, 1, 38, 80
4, 186960, Note_on_c, 1, 38, 100
4, 186960, Note_on_c, 1, 62, 100
4, 186960, Note_on_c, 1, 62, 100
4, 186960, Note_on_c, 1, 62, 100
4, 186960, Note_on_c, 1, 62, 100
4, 186960, Note_on_c, 1, 62, 100
4, 186960, Note_on_c, 1, 62, 100
4, 186960, Note_on_c, 1, 62, 100
4, 186960, Note_on_c, 1, 62, 100
4, 186960, Note_on_c, 1, 62, 100
4, 186960, Note_on_c, 1, 62, 100
4, 186960, Note_on_c, 1, 62, 100
4, 186960, Note_on_c, 1, 74, 100
4, 186960, Note_on_c, 1, 74, 100
4, 186960, Note_on_c, 1, 74, 100
4, 186960, Note_on_c, 1, 74, 100
4, 186960, Note_on_c, 1, 74, 100
4, 186960, Note_on_c, 1, 74, 100
4, 186960, Note_on_c, 1, 74, 100
4, 187090, Note_off_c, 1, 74, 80
4, 187200, Note_off_c, 1, 38, 80
4, 187200, Note_on_c, 1, 43, 100
4, 187680, Note_off_c, 1, 43, 80
4, 187680, Note_on_c, 1, 48, 100
4, 187687, Note_off_c, 1, 74, 80
4, 188160, Note_off_c, 1, 48, 80
4, 188160, Note_on_c, 1, 62, 100
4, 188160, Note_on_c, 1, 62, 100
4, 188160, Note_on_c, 1, 62, 100
4, 188160, Note_on_c, 1, 62, 100
4, 188160, Note_on_c, 1, 62, 100
4, 188160, Note_on_c, 1, 74, 100
4, 188160, Note_on_c, 1, 74, 100
4, 188160, Note_on_c, 1, 74, 100
4, 188160, Note_on_c, 1, 62, 100
4, 188167, Note_off_c, 1, 62, 80
4, 188167, Note_off_c, 1, 74, 80
4, 188167, Note_off_c, 1, 74, 80
4, 188167, Note_off_c, 1, 74, 80
4, 188167, Note_off_c, 1, 62, 80
4, 188167, Note_off_c, 1, 62, 80
4, 188167, Note_off_c, 1, 62, 80
4, 188167, Note_off_c, 1, 62, 80
4, 188167, Note_off_c, 1, 62, 80
4, 188167, Note_off_c, 1, 62, 80
4, 188167, Note_off_c, 1, 62, 80
4, 188167, Note_off_c, 1, 62, 80
4, 188167, Note_off_c, 1, 62, 80
4, 188167, Note_off_c, 1, 74, 80
4, 188167, Note_off_c, 1, 74, 80
4, 188167, Note_off_c, 1, 62, 80
4, 188400, Note_off_c, 1, 62, 80
4, 188400, Note_off_c, 1, 62, 80
4, 188400, Note_off_c, 1, 62, 80
4, 188400, Note_off_c, 1, 62, 80
4, 188400, Note_off_c, 1, 62, 80
4, 188400, Note_off_c, 1, 62, 80
4, 188400, Note_off_c, 1, 74, 80
4, 188400, Note_off_c, 1, 74, 80
4, 188400, Note_off_c, 1, 74, 80
4, 188400, Note_on_c, 1, 62, 100
4, 188400, Note_on_c, 1, 62, 100
4, 188400, Note_on_c, 1, 62, 100
4, 188400, Note_on_c, 1, 62, 100
4, 188400, Note_on_c, 1, 62, 100
4, 188400, Note_on_c, 1, 62, 100
4, 188400, Note_on_c, 1, 74, 100
4, 188400, Note_on_c, 1, 74, 100
4, 188400, Note_on_c, 1, 74, 100
4, 188400, Note_on_c, 1, 62, 100
4, 188640, Note_off_c, 1, 62, 80
4, 188640, Note_off_c, 1, 74, 80
4, 188640, Note_off_c, 1, 74, 80
4, 188640, Note_off_c, 1, 74, 80
4, 188640, Note_off_c, 1, 62, 80
4, 188640, Note_off_c, 1, 62, 80
4, 188640, Note_off_c, 1, 62, 80
4, 188640, Note_off_c, 1, 62, 80
4, 188640, Note_off_c, 1, 62, 80
4, 188640, Note_off_c, 1, 110, 80
4, 188640, Note_off_c, 1, 110, 80
4, 188640, Note_off_c, 1, 110, 80
4, 188640, Note_off_c, 1, 110, 80
4, 188640, Note_off_c, 1, 110, 80
4, 188640, Note_off_c, 1, 98, 80
4, 188640, Note_off_c, 1, 98, 80
4, 188640, Note_off_c, 1, 98, 80
4, 188640, Note_off_c, 1, 98, 80
4, 188640, Note_off_c, 1, 98, 80
4, 188640, Note_off_c, 1, 98, 80
4, 188640, Note_off_c, 1, 98, 80
4, 188640, Note_off_c, 1, 98, 80
4, 188640, Note_off_c, 1, 62, 80
4, 188640, Note_on_c, 1, 62, 100
4, 188640, Note_on_c, 1, 62, 100
4, 188640, Note_on_c, 1, 62, 100
4, 188640, Note_on_c, 1, 62, 100
4, 188640, Note_on_c, 1, 62, 100
4, 188640, Note_on_c, 1, 62, 100
4, 188640, Note_on_c, 1, 74, 100
4, 188640, Note_on_c, 1, 74, 100
4, 188640, Note_on_c, 1, 74, 100
4, 188640, Note_on_c, 1, 62, 100
4, 188640, Note_on_c, 1, 98, 100
4, 188640, Note_on_c, 1, 110, 100
4, 188640, Note_on_c, 1, 110, 100
4, 188640, Note_on_c, 1, 110, 100
4, 188640, Note_on_c, 1, 110, 100
4, 188640, Note_on_c, 1, 98, 100
4, 188640, Note_on_c, 1, 110, 100
4, 188640, Note_on_c, 1, 98, 100
4, 188640, Note_on_c, 1, 98, 100
4, 188640, Note_on_c, 1, 98, 100
4, 188640, Note_on_c, 1, 98, 100
4, 188640, Note_on_c, 1, 98, 100
4, 188640, Note_on_c, 1, 98, 100
4, 188880, Note_off_c, 1, 62, 80
4, 188880, Note_off_c, 1, 74, 80
4, 188880, Note_off_c, 1, 74, 80
4, 188880, Note_off_c, 1, 74, 80
4, 188880, Note_off_c, 1, 62, 80
4, 188880, Note_off_c, 1, 62, 80
4, 188880, Note_off_c, 1, 62, 80
4, 188880, Note_off_c, 1, 62, 80
4, 188880, Note_off_c, 1, 62, 80
4, 188880, Note_off_c, 1, 62, 80
4, 188880, Note_on_c, 1, 62, 100
4, 188880, Note_on_c, 1, 74, 100
4, 188880, Note_on_c, 1, 74, 100
4, 188880, Note_on_c, 1, 62, 100
4, 189120, Note_off_c, 1, 62, 80
4, 189120, Note_off_c, 1, 74, 80
4, 189120, Note_off_c, 1, 74, 80
4, 189120, Note_off_c, 1, 62, 80
4, 190080, Note_off_c, 1, 98, 80
4, 190080, Note_off_c, 1, 110, 80
4, 190080, Note_off_c, 1, 110, 80
4, 190080, Note_off_c, 1, 110, 80
4, 190080, Note_off_c, 1, 110, 80
4, 190080, Note_off_c, 1, 98, 80
4, 190080, Note_on_c, 1, 62, 100
4, 190080, Note_on_c, 1, 74, 100
4, 190080, Note_on_c, 1, 74, 100
4, 190080, Note_on_c, 1, 74, 100
4, 190080, Note_on_c, 1, 74, 100
4, 190080, Note_on_c, 1, 62, 100
4, 190080, Note_on_c, 1, 62, 100
4, 190080, Note_on_c, 1, 62, 100
4, 190080, Note_on_c, 1, 62, 100
4, 190080, Note_on_c, 1, 62, 100
4, 190320, Note_off_c, 1, 62, 80
4, 190320, Note_off_c, 1, 62, 80
4, 190320, Note_off_c, 1, 62, 80
4, 190320, Note_off_c, 1, 62, 80
4, 190320, Note_off_c, 1, 62, 80
4, 190320, Note_off_c, 1, 74, 80
4, 190320, Note_off_c, 1, 74, 80
4, 190320, Note_off_c, 1, 74, 80
4, 190320, Note_off_c, 1, 74, 80
4, 190320, Note_off_c, 1, 62, 80
4, 190320, Note_on_c, 1, 62, 100
4, 190320, Note_on_c, 1, 74, 100
4, 190320, Note_on_c, 1, 74, 100
4, 190320, Note_on_c, 1, 74, 100
4, 190320, Note_on_c, 1, 74, 100
4, 190320, Note_on_c, 1, 62, 100
4, 190320, Note_on_c, 1, 62, 100
4, 190320, Note_on_c, 1, 62, 100
4, 190320, Note_on_c, 1, 62, 100
4, 190560, Note_off_c, 1, 62, 80
4, 190560, Note_off_c, 1, 62, 80
4, 190560, Note_off_c, 1, 62, 80
4, 190560, Note_off_c, 1, 74, 80
4, 190560, Note_off_c, 1, 74, 80
4, 190560, Note_off_c, 1, 74, 80
4, 190560, Note_off_c, 1, 74, 80
4, 190560, Note_off_c, 1, 62, 80
4, 190567, Note_off_c, 1, 62, 80
4, 190800, Note_on_c, 1, 62, 100
4, 190800, Note_on_c, 1, 62, 100
4, 190800, Note_on_c, 1, 62, 100
4, 190800, Note_on_c, 1, 62, 100
4, 190800, Note_on_c, 1, 62, 100
4, 190800, Note_on_c, 1, 62, 100
4, 190800, Note_on_c, 1, 62, 100
4, 190800, Note_on_c, 1, 62, 100
4, 190800, Note_on_c, 1, 62, 100
4, 190800, Note_on_c, 1, 62, 100
4, 190800, Note_on_c, 1, 62, 100
4, 190800, Note_on_c, 1, 74, 100
4, 190800, Note_on_c, 1, 74, 100
4, 190800, Note_on_c, 1, 74, 100
4, 190800, Note_on_c, 1, 74, 100
4, 190800, Note_on_c, 1, 74, 100
4, 190800, Note_on_c, 1, 74, 100
4, 190800, Note_on_c, 1, 74, 100
4, 190930, Note_off_c, 1, 74, 80
4, 191527, Note_off_c, 1, 74, 80
4, 192000, Note_off_c, 1, 110, 80
4, 192000, Note_off_c, 1, 98, 80
4, 192000, Note_off_c, 1, 98, 80
4, 192000, Note_off_c, 1, 98, 80
4, 192000, Note_off_c, 1, 98, 80
4, 192000, Note_off_c, 1, 98, 80
4, 192000, Note_off_c, 1, 98, 80
4, 192007, Note_off_c, 1, 62, 80
4, 192007, Note_off_c, 1, 62, 80
4, 192007, Note_off_c, 1, 62, 80
4, 192007, Note_off_c, 1, 62, 80
4, 192007, Note_off_c, 1, 62, 80
4, 192007, Note_off_c, 1, 62, 80
4, 192007, Note_off_c, 1, 62, 80
4, 192007, Note_off_c, 1, 62, 80
4, 192007, Note_off_c, 1, 62, 80
4, 192007, Note_off_c, 1, 62, 80
4, 192007, Note_off_c, 1, 62, 80
4, 192007, Note_off_c, 1, 74, 80
4, 192007, Note_off_c, 1, 74, 80
4, 192007, Note_off_c, 1, 74, 80
4, 192007, Note_off_c, 1, 74, 80
4, 192007, Note_off_c, 1, 74, 80
4, 192007, End_track
5, 0, Start_track
5, 0, Title_t, "bass"
5, 0, MIDI_port, 0
5, 0, Channel_prefix, 2
5, 0, Control_c, 2, 7, 99
5, 0, Control_c, 2, 10, 64
5, 0, Control_c, 2, 0, 0
5, 0, Control_c, 2, 32, 0
5, 0, Program_c, 2, 34
5, 7680, Note_on_c, 2, 26, 100
5, 8400, Note_off_c, 2, 26, 80
5, 8400, Note_on_c, 2, 26, 100
5, 8640, Note_off_c, 2, 26, 80
5, 8640, Note_on_c, 2, 31, 100
5, 9120, Note_off_c, 2, 31, 80
5, 9120, Note_on_c, 2, 36, 100
5, 9600, Note_off_c, 2, 36, 80
5, 9600, Note_on_c, 2, 26, 100
5, 10320, Note_off_c, 2, 26, 80
5, 10320, Note_on_c, 2, 26, 100
5, 10560, Note_off_c, 2, 26, 80
5, 10560, Note_on_c, 2, 31, 100
5, 11040, Note_off_c, 2, 31, 80
5, 11040, Note_on_c, 2, 36, 100
5, 11520, Note_off_c, 2, 36, 80
5, 11520, Note_on_c, 2, 26, 100
5, 12240, Note_off_c, 2, 26, 80
5, 12240, Note_on_c, 2, 26, 100
5, 12480, Note_off_c, 2, 26, 80
5, 12480, Note_on_c, 2, 31, 100
5, 12960, Note_off_c, 2, 31, 80
5, 12960, Note_on_c, 2, 36, 100
5, 13440, Note_off_c, 2, 36, 80
5, 13440, Note_on_c, 2, 26, 100
5, 14160, Note_off_c, 2, 26, 80
5, 14160, Note_on_c, 2, 26, 100
5, 14400, Note_off_c, 2, 26, 80
5, 14400, Note_on_c, 2, 31, 100
5, 14880, Note_off_c, 2, 31, 80
5, 14880, Note_on_c, 2, 36, 100
5, 15360, Note_off_c, 2, 36, 80
5, 15360, Note_on_c, 2, 26, 100
5, 16080, Note_off_c, 2, 26, 80
5, 16080, Note_on_c, 2, 26, 100
5, 16320, Note_off_c, 2, 26, 80
5, 16320, Note_on_c, 2, 31, 100
5, 16800, Note_off_c, 2, 31, 80
5, 16800, Note_on_c, 2, 36, 100
5, 17280, Note_off_c, 2, 36, 80
5, 17280, Note_on_c, 2, 26, 100
5, 18000, Note_off_c, 2, 26, 80
5, 18000, Note_on_c, 2, 26, 100
5, 18240, Note_off_c, 2, 26, 80
5, 18240, Note_on_c, 2, 31, 100
5, 18720, Note_off_c, 2, 31, 80
5, 18720, Note_on_c, 2, 36, 100
5, 19200, Note_off_c, 2, 36, 80
5, 19200, Note_on_c, 2, 26, 100
5, 19920, Note_off_c, 2, 26, 80
5, 19920, Note_on_c, 2, 26, 100
5, 20160, Note_off_c, 2, 26, 80
5, 20160, Note_on_c, 2, 31, 100
5, 20640, Note_off_c, 2, 31, 80
5, 20640, Note_on_c, 2, 36, 100
5, 21120, Note_off_c, 2, 36, 80
5, 21120, Note_on_c, 2, 26, 100
5, 21840, Note_off_c, 2, 26, 80
5, 21840, Note_on_c, 2, 26, 100
5, 22080, Note_off_c, 2, 26, 80
5, 22080, Note_on_c, 2, 31, 100
5, 22560, Note_off_c, 2, 31, 80
5, 22560, Note_on_c, 2, 36, 100
5, 23040, Note_off_c, 2, 36, 80
5, 23040, Note_on_c, 2, 26, 100
5, 23760, Note_off_c, 2, 26, 80
5, 23760, Note_on_c, 2, 26, 100
5, 24000, Note_off_c, 2, 26, 80
5, 24000, Note_on_c, 2, 31, 100
5, 24480, Note_off_c, 2, 31, 80
5, 24480, Note_on_c, 2, 36, 100
5, 24960, Note_off_c, 2, 36, 80
5, 24960, Note_on_c, 2, 26, 100
5, 25680, Note_off_c, 2, 26, 80
5, 25680, Note_on_c, 2, 26, 100
5, 25920, Note_off_c, 2, 26, 80
5, 25920, Note_on_c, 2, 31, 100
5, 26400, Note_off_c, 2, 31, 80
5, 26400, Note_on_c, 2, 36, 100
5, 26880, Note_off_c, 2, 36, 80
5, 26880, Note_on_c, 2, 26, 100
5, 27600, Note_off_c, 2, 26, 80
5, 27600, Note_on_c, 2, 26, 100
5, 27840, Note_off_c, 2, 26, 80
5, 27840, Note_on_c, 2, 31, 100
5, 28320, Note_off_c, 2, 31, 80
5, 28320, Note_on_c, 2, 36, 100
5, 28800, Note_off_c, 2, 36, 80
5, 28800, Note_on_c, 2, 26, 100
5, 29520, Note_off_c, 2, 26, 80
5, 29520, Note_on_c, 2, 26, 100
5, 29760, Note_off_c, 2, 26, 80
5, 30720, Note_on_c, 2, 26, 100
5, 31440, Note_off_c, 2, 26, 80
5, 31440, Note_on_c, 2, 26, 100
5, 31680, Note_off_c, 2, 26, 80
5, 31680, Note_on_c, 2, 31, 100
5, 32160, Note_off_c, 2, 31, 80
5, 32160, Note_on_c, 2, 36, 100
5, 32640, Note_off_c, 2, 36, 80
5, 32640, Note_on_c, 2, 26, 100
5, 33360, Note_off_c, 2, 26, 80
5, 33360, Note_on_c, 2, 26, 100
5, 33600, Note_off_c, 2, 26, 80
5, 33600, Note_on_c, 2, 31, 100
5, 34080, Note_off_c, 2, 31, 80
5, 34080, Note_on_c, 2, 36, 100
5, 34560, Note_off_c, 2, 36, 80
5, 34560, Note_on_c, 2, 26, 100
5, 35280, Note_off_c, 2, 26, 80
5, 35280, Note_on_c, 2, 26, 100
5, 35520, Note_off_c, 2, 26, 80
5, 35520, Note_on_c, 2, 31, 100
5, 36000, Note_off_c, 2, 31, 80
5, 36000, Note_on_c, 2, 36, 100
5, 36480, Note_off_c, 2, 36, 80
5, 36480, Note_on_c, 2, 26, 100
5, 37200, Note_off_c, 2, 26, 80
5, 37200, Note_on_c, 2, 26, 100
5, 37440, Note_off_c, 2, 26, 80
5, 37440, Note_on_c, 2, 31, 100
5, 37920, Note_off_c, 2, 31, 80
5, 37920, Note_on_c, 2, 36, 100
5, 38400, Note_off_c, 2, 36, 80
5, 38400, Note_on_c, 2, 26, 100
5, 39120, Note_off_c, 2, 26, 80
5, 39120, Note_on_c, 2, 26, 100
5, 39360, Note_off_c, 2, 26, 80
5, 39360, Note_on_c, 2, 31, 100
5, 39840, Note_off_c, 2, 31, 80
5, 39840, Note_on_c, 2, 36, 100
5, 40320, Note_off_c, 2, 36, 80
5, 40320, Note_on_c, 2, 26, 100
5, 41040, Note_off_c, 2, 26, 80
5, 41040, Note_on_c, 2, 26, 100
5, 41280, Note_off_c, 2, 26, 80
5, 41280, Note_on_c, 2, 31, 100
5, 41760, Note_off_c, 2, 31, 80
5, 41760, Note_on_c, 2, 36, 100
5, 42240, Note_off_c, 2, 36, 80
5, 42240, Note_on_c, 2, 26, 100
5, 42960, Note_off_c, 2, 26, 80
5, 42960, Note_on_c, 2, 26, 100
5, 43200, Note_off_c, 2, 26, 80
5, 43200, Note_on_c, 2, 31, 100
5, 43680, Note_off_c, 2, 31, 80
5, 43680, Note_on_c, 2, 36, 100
5, 44160, Note_off_c, 2, 36, 80
5, 44160, Note_on_c, 2, 26, 100
5, 44880, Note_off_c, 2, 26, 80
5, 44880, Note_on_c, 2, 26, 100
5, 45120, Note_off_c, 2, 26, 80
5, 45120, Note_on_c, 2, 31, 100
5, 45600, Note_off_c, 2, 31, 80
5, 45600, Note_on_c, 2, 36, 100
5, 46080, Note_off_c, 2, 36, 80
5, 46080, Note_on_c, 2, 26, 100
5, 46800, Note_off_c, 2, 26, 80
5, 46800, Note_on_c, 2, 26, 100
5, 47040, Note_off_c, 2, 26, 80
5, 47040, Note_on_c, 2, 31, 100
5, 47520, Note_off_c, 2, 31, 80
5, 47520, Note_on_c, 2, 36, 100
5, 48000, Note_off_c, 2, 36, 80
5, 48000, Note_on_c, 2, 26, 100
5, 48720, Note_off_c, 2, 26, 80
5, 48720, Note_on_c, 2, 26, 100
5, 48960, Note_off_c, 2, 26, 80
5, 48960, Note_on_c, 2, 31, 100
5, 49440, Note_off_c, 2, 31, 80
5, 49440, Note_on_c, 2, 36, 100
5, 49920, Note_off_c, 2, 36, 80
5, 49920, Note_on_c, 2, 26, 100
5, 50640, Note_off_c, 2, 26, 80
5, 50640, Note_on_c, 2, 26, 100
5, 50880, Note_off_c, 2, 26, 80
5, 50880, Note_on_c, 2, 31, 100
5, 51360, Note_off_c, 2, 31, 80
5, 51360, Note_on_c, 2, 36, 100
5, 51840, Note_off_c, 2, 36, 80
5, 51840, Note_on_c, 2, 26, 100
5, 52560, Note_off_c, 2, 26, 80
5, 52560, Note_on_c, 2, 26, 100
5, 52800, Note_off_c, 2, 26, 80
5, 52800, Note_on_c, 2, 31, 100
5, 53280, Note_off_c, 2, 31, 80
5, 53280, Note_on_c, 2, 36, 100
5, 53760, Note_off_c, 2, 36, 80
5, 53760, Note_on_c, 2, 26, 100
5, 54480, Note_off_c, 2, 26, 80
5, 54480, Note_on_c, 2, 26, 100
5, 54720, Note_off_c, 2, 26, 80
5, 54720, Note_on_c, 2, 31, 100
5, 55200, Note_off_c, 2, 31, 80
5, 55200, Note_on_c, 2, 36, 100
5, 55680, Note_off_c, 2, 36, 80
5, 55680, Note_on_c, 2, 26, 100
5, 56400, Note_off_c, 2, 26, 80
5, 56400, Note_on_c, 2, 26, 100
5, 56640, Note_off_c, 2, 26, 80
5, 56640, Note_on_c, 2, 31, 100
5, 57120, Note_off_c, 2, 31, 80
5, 57120, Note_on_c, 2, 36, 100
5, 57600, Note_off_c, 2, 36, 80
5, 57600, Note_on_c, 2, 26, 100
5, 58320, Note_off_c, 2, 26, 80
5, 58320, Note_on_c, 2, 26, 100
5, 58560, Note_off_c, 2, 26, 80
5, 58560, Note_on_c, 2, 31, 100
5, 59040, Note_off_c, 2, 31, 80
5, 59040, Note_on_c, 2, 36, 100
5, 59520, Note_off_c, 2, 36, 80
5, 59520, Note_on_c, 2, 26, 100
5, 60240, Note_off_c, 2, 26, 80
5, 60240, Note_on_c, 2, 26, 100
5, 60480, Note_off_c, 2, 26, 80
5, 60480, Note_on_c, 2, 31, 100
5, 60960, Note_off_c, 2, 31, 80
5, 60960, Note_on_c, 2, 36, 100
5, 61440, Note_off_c, 2, 36, 80
5, 61440, Note_on_c, 2, 26, 100
5, 62160, Note_off_c, 2, 26, 80
5, 62160, Note_on_c, 2, 26, 100
5, 62400, Note_off_c, 2, 26, 80
5, 62400, Note_on_c, 2, 31, 100
5, 62880, Note_off_c, 2, 31, 80
5, 62880, Note_on_c, 2, 36, 100
5, 63360, Note_off_c, 2, 36, 80
5, 63360, Note_on_c, 2, 26, 100
5, 64080, Note_off_c, 2, 26, 80
5, 64080, Note_on_c, 2, 26, 100
5, 64320, Note_off_c, 2, 26, 80
5, 64320, Note_on_c, 2, 31, 100
5, 64800, Note_off_c, 2, 31, 80
5, 64800, Note_on_c, 2, 36, 100
5, 65280, Note_off_c, 2, 36, 80
5, 72960, Note_on_c, 2, 26, 100
5, 73680, Note_off_c, 2, 26, 80
5, 73680, Note_on_c, 2, 26, 100
5, 73920, Note_off_c, 2, 26, 80
5, 73920, Note_on_c, 2, 31, 100
5, 74400, Note_off_c, 2, 31, 80
5, 74400, Note_on_c, 2, 36, 100
5, 74880, Note_off_c, 2, 36, 80
5, 74880, Note_on_c, 2, 26, 100
5, 75600, Note_off_c, 2, 26, 80
5, 75600, Note_on_c, 2, 26, 100
5, 75840, Note_off_c, 2, 26, 80
5, 75840, Note_on_c, 2, 31, 100
5, 76320, Note_off_c, 2, 31, 80
5, 76320, Note_on_c, 2, 36, 100
5, 76800, Note_off_c, 2, 36, 80
5, 76800, Note_on_c, 2, 26, 100
5, 77520, Note_off_c, 2, 26, 80
5, 77520, Note_on_c, 2, 26, 100
5, 77760, Note_off_c, 2, 26, 80
5, 77760, Note_on_c, 2, 31, 100
5, 78240, Note_off_c, 2, 31, 80
5, 78240, Note_on_c, 2, 36, 100
5, 78720, Note_off_c, 2, 36, 80
5, 78720, Note_on_c, 2, 26, 100
5, 79440, Note_off_c, 2, 26, 80
5, 79440, Note_on_c, 2, 26, 100
5, 79680, Note_off_c, 2, 26, 80
5, 79680, Note_on_c, 2, 31, 100
5, 80160, Note_off_c, 2, 31, 80
5, 80160, Note_on_c, 2, 36, 100
5, 80640, Note_off_c, 2, 36, 80
5, 80640, Note_on_c, 2, 26, 100
5, 81360, Note_off_c, 2, 26, 80
5, 81360, Note_on_c, 2, 26, 100
5, 81600, Note_off_c, 2, 26, 80
5, 81600, Note_on_c, 2, 31, 100
5, 82080, Note_off_c, 2, 31, 80
5, 82080, Note_on_c, 2, 36, 100
5, 82560, Note_off_c, 2, 36, 80
5, 82560, Note_on_c, 2, 26, 100
5, 83280, Note_off_c, 2, 26, 80
5, 83280, Note_on_c, 2, 26, 100
5, 83520, Note_off_c, 2, 26, 80
5, 83520, Note_on_c, 2, 31, 100
5, 84000, Note_off_c, 2, 31, 80
5, 84000, Note_on_c, 2, 36, 100
5, 84480, Note_off_c, 2, 36, 80
5, 84480, Note_on_c, 2, 26, 100
5, 85200, Note_off_c, 2, 26, 80
5, 85200, Note_on_c, 2, 26, 100
5, 85440, Note_off_c, 2, 26, 80
5, 85440, Note_on_c, 2, 31, 100
5, 85920, Note_off_c, 2, 31, 80
5, 85920, Note_on_c, 2, 36, 100
5, 86400, Note_off_c, 2, 36, 80
5, 86400, Note_on_c, 2, 26, 100
5, 87120, Note_off_c, 2, 26, 80
5, 87120, Note_on_c, 2, 26, 100
5, 87360, Note_off_c, 2, 26, 80
5, 87360, Note_on_c, 2, 31, 100
5, 87840, Note_off_c, 2, 31, 80
5, 87840, Note_on_c, 2, 36, 100
5, 88320, Note_off_c, 2, 36, 80
5, 88320, Note_on_c, 2, 26, 100
5, 89040, Note_off_c, 2, 26, 80
5, 89040, Note_on_c, 2, 26, 100
5, 89280, Note_off_c, 2, 26, 80
5, 89280, Note_on_c, 2, 31, 100
5, 89760, Note_off_c, 2, 31, 80
5, 89760, Note_on_c, 2, 36, 100
5, 90240, Note_off_c, 2, 36, 80
5, 90240, Note_on_c, 2, 26, 100
5, 90960, Note_off_c, 2, 26, 80
5, 90960, Note_on_c, 2, 26, 100
5, 91200, Note_off_c, 2, 26, 80
5, 91200, Note_on_c, 2, 31, 100
5, 91680, Note_off_c, 2, 31, 80
5, 91680, Note_on_c, 2, 36, 100
5, 92160, Note_off_c, 2, 36, 80
5, 92160, Note_on_c, 2, 26, 100
5, 92880, Note_off_c, 2, 26, 80
5, 92880, Note_on_c, 2, 26, 100
5, 93120, Note_off_c, 2, 26, 80
5, 93120, Note_on_c, 2, 31, 100
5, 93600, Note_off_c, 2, 31, 80
5, 93600, Note_on_c, 2, 36, 100
5, 94080, Note_off_c, 2, 36, 80
5, 94080, Note_on_c, 2, 26, 100
5, 94800, Note_off_c, 2, 26, 80
5, 94800, Note_on_c, 2, 26, 100
5, 95040, Note_off_c, 2, 26, 80
5, 95040, Note_on_c, 2, 31, 100
5, 95520, Note_off_c, 2, 31, 80
5, 95520, Note_on_c, 2, 36, 100
5, 96000, Note_off_c, 2, 36, 80
5, 96000, Note_on_c, 2, 26, 100
5, 96720, Note_off_c, 2, 26, 80
5, 96720, Note_on_c, 2, 26, 100
5, 96960, Note_off_c, 2, 26, 80
5, 96960, Note_on_c, 2, 31, 100
5, 97440, Note_off_c, 2, 31, 80
5, 97440, Note_on_c, 2, 36, 100
5, 97920, Note_off_c, 2, 36, 80
5, 97920, Note_on_c, 2, 26, 100
5, 98640, Note_off_c, 2, 26, 80
5, 98640, Note_on_c, 2, 26, 100
5, 98880, Note_off_c, 2, 26, 80
5, 98880, Note_on_c, 2, 31, 100
5, 99360, Note_off_c, 2, 31, 80
5, 99360, Note_on_c, 2, 36, 100
5, 99840, Note_off_c, 2, 36, 80
5, 99840, Note_on_c, 2, 26, 100
5, 100560, Note_off_c, 2, 26, 80
5, 100560, Note_on_c, 2, 26, 100
5, 100800, Note_off_c, 2, 26, 80
5, 100800, Note_on_c, 2, 31, 100
5, 101280, Note_off_c, 2, 31, 80
5, 101280, Note_on_c, 2, 36, 100
5, 101760, Note_off_c, 2, 36, 80
5, 101760, Note_on_c, 2, 26, 100
5, 102480, Note_off_c, 2, 26, 80
5, 102480, Note_on_c, 2, 26, 100
5, 102720, Note_off_c, 2, 26, 80
5, 102720, Note_on_c, 2, 31, 100
5, 103200, Note_off_c, 2, 31, 80
5, 103200, Note_on_c, 2, 36, 100
5, 103680, Note_off_c, 2, 36, 80
5, 103680, Note_on_c, 2, 26, 100
5, 104400, Note_off_c, 2, 26, 80
5, 104400, Note_on_c, 2, 26, 100
5, 104640, Note_off_c, 2, 26, 80
5, 104640, Note_on_c, 2, 31, 100
5, 105120, Note_off_c, 2, 31, 80
5, 105120, Note_on_c, 2, 36, 100
5, 105600, Note_off_c, 2, 36, 80
5, 105600, Note_on_c, 2, 26, 100
5, 106320, Note_off_c, 2, 26, 80
5, 106320, Note_on_c, 2, 26, 100
5, 106560, Note_off_c, 2, 26, 80
5, 106560, Note_on_c, 2, 31, 100
5, 107040, Note_off_c, 2, 31, 80
5, 107040, Note_on_c, 2, 36, 100
5, 107520, Note_off_c, 2, 36, 80
5, 122880, Note_on_c, 2, 26, 100
5, 123600, Note_off_c, 2, 26, 80
5, 123600, Note_on_c, 2, 26, 100
5, 123840, Note_off_c, 2, 26, 80
5, 123840, Note_on_c, 2, 31, 100
5, 124320, Note_off_c, 2, 31, 80
5, 124320, Note_on_c, 2, 36, 100
5, 124800, Note_off_c, 2, 36, 80
5, 124800, Note_on_c, 2, 26, 100
5, 125520, Note_off_c, 2, 26, 80
5, 125520, Note_on_c, 2, 26, 100
5, 125760, Note_off_c, 2, 26, 80
5, 125760, Note_on_c, 2, 31, 100
5, 126240, Note_off_c, 2, 31, 80
5, 126240, Note_on_c, 2, 36, 100
5, 126720, Note_off_c, 2, 36, 80
5, 126720, Note_on_c, 2, 26, 100
5, 127440, Note_off_c, 2, 26, 80
5, 127440, Note_on_c, 2, 26, 100
5, 127680, Note_off_c, 2, 26, 80
5, 127680, Note_on_c, 2, 31, 100
5, 128160, Note_off_c, 2, 31, 80
5, 128160, Note_on_c, 2, 36, 100
5, 128640, Note_off_c, 2, 36, 80
5, 128640, Note_on_c, 2, 26, 100
5, 129360, Note_off_c, 2, 26, 80
5, 129360, Note_on_c, 2, 26, 100
5, 129600, Note_off_c, 2, 26, 80
5, 129600, Note_on_c, 2, 31, 100
5, 130080, Note_off_c, 2, 31, 80
5, 130080, Note_on_c, 2, 36, 100
5, 130560, Note_off_c, 2, 36, 80
5, 130560, Note_on_c, 2, 26, 100
5, 131280, Note_off_c, 2, 26, 80
5, 131280, Note_on_c, 2, 26, 100
5, 131520, Note_off_c, 2, 26, 80
5, 131520, Note_on_c, 2, 31, 100
5, 132000, Note_off_c, 2, 31, 80
5, 132000, Note_on_c, 2, 36, 100
5, 132480, Note_off_c, 2, 36, 80
5, 132480, Note_on_c, 2, 26, 100
5, 133200, Note_off_c, 2, 26, 80
5, 133200, Note_on_c, 2, 26, 100
5, 133440, Note_off_c, 2, 26, 80
5, 133440, Note_on_c, 2, 31, 100
5, 133920, Note_off_c, 2, 31, 80
5, 133920, Note_on_c, 2, 36, 100
5, 134400, Note_off_c, 2, 36, 80
5, 134400, Note_on_c, 2, 26, 100
5, 135120, Note_off_c, 2, 26, 80
5, 135120, Note_on_c, 2, 26, 100
5, 135360, Note_off_c, 2, 26, 80
5, 135360, Note_on_c, 2, 31, 100
5, 135840, Note_off_c, 2, 31, 80
5, 135840, Note_on_c, 2, 36, 100
5, 136320, Note_off_c, 2, 36, 80
5, 136320, Note_on_c, 2, 26, 100
5, 137040, Note_off_c, 2, 26, 80
5, 137040, Note_on_c, 2, 26, 100
5, 137280, Note_off_c, 2, 26, 80
5, 137280, Note_on_c, 2, 31, 100
5, 137760, Note_off_c, 2, 31, 80
5, 137760, Note_on_c, 2, 36, 100
5, 138240, Note_off_c, 2, 36, 80
5, 138240, Note_on_c, 2, 26, 100
5, 138960, Note_off_c, 2, 26, 80
5, 138960, Note_on_c, 2, 26, 100
5, 139200, Note_off_c, 2, 26, 80
5, 139200, Note_on_c, 2, 31, 100
5, 139680, Note_off_c, 2, 31, 80
5, 139680, Note_on_c, 2, 36, 100
5, 140160, Note_off_c, 2, 36, 80
5, 140160, Note_on_c, 2, 26, 100
5, 140880, Note_off_c, 2, 26, 80
5, 140880, Note_on_c, 2, 26, 100
5, 141120, Note_off_c, 2, 26, 80
5, 141120, Note_on_c, 2, 31, 100
5, 141600, Note_off_c, 2, 31, 80
5, 141600, Note_on_c, 2, 36, 100
5, 142080, Note_off_c, 2, 36, 80
5, 142080, Note_on_c, 2, 26, 100
5, 142800, Note_off_c, 2, 26, 80
5, 142800, Note_on_c, 2, 26, 100
5, 143040, Note_off_c, 2, 26, 80
5, 143040, Note_on_c, 2, 31, 100
5, 143520, Note_off_c, 2, 31, 80
5, 143520, Note_on_c, 2, 36, 100
5, 144000, Note_off_c, 2, 36, 80
5, 144000, Note_on_c, 2, 26, 100
5, 144720, Note_off_c, 2, 26, 80
5, 144720, Note_on_c, 2, 26, 100
5, 144960, Note_off_c, 2, 26, 80
5, 144960, Note_on_c, 2, 31, 100
5, 145440, Note_off_c, 2, 31, 80
5, 145920, Note_on_c, 2, 26, 100
5, 146640, Note_off_c, 2, 26, 80
5, 146640, Note_on_c, 2, 26, 100
5, 146880, Note_off_c, 2, 26, 80
5, 146880, Note_on_c, 2, 31, 100
5, 147360, Note_off_c, 2, 31, 80
5, 147360, Note_on_c, 2, 36, 100
5, 147840, Note_off_c, 2, 36, 80
5, 147840, Note_on_c, 2, 26, 100
5, 148560, Note_off_c, 2, 26, 80
5, 148560, Note_on_c, 2, 26, 100
5, 148800, Note_off_c, 2, 26, 80
5, 148800, Note_on_c, 2, 31, 100
5, 149280, Note_off_c, 2, 31, 80
5, 149280, Note_on_c, 2, 36, 100
5, 149760, Note_off_c, 2, 36, 80
5, 149760, Note_on_c, 2, 26, 100
5, 150480, Note_off_c, 2, 26, 80
5, 150480, Note_on_c, 2, 26, 100
5, 150720, Note_off_c, 2, 26, 80
5, 150720, Note_on_c, 2, 31, 100
5, 151200, Note_off_c, 2, 31, 80
5, 151200, Note_on_c, 2, 36, 100
5, 151680, Note_off_c, 2, 36, 80
5, 151680, Note_on_c, 2, 26, 100
5, 152400, Note_off_c, 2, 26, 80
5, 152400, Note_on_c, 2, 26, 100
5, 152640, Note_off_c, 2, 26, 80
5, 152640, Note_on_c, 2, 31, 100
5, 153120, Note_off_c, 2, 31, 80
5, 153120, Note_on_c, 2, 36, 100
5, 153600, Note_off_c, 2, 36, 80
5, 153600, Note_on_c, 2, 26, 100
5, 154320, Note_off_c, 2, 26, 80
5, 154320, Note_on_c, 2, 26, 100
5, 154560, Note_off_c, 2, 26, 80
5, 154560, Note_on_c, 2, 31, 100
5, 155040, Note_off_c, 2, 31, 80
5, 155040, Note_on_c, 2, 36, 100
5, 155520, Note_off_c, 2, 36, 80
5, 155520, Note_on_c, 2, 26, 100
5, 156240, Note_off_c, 2, 26, 80
5, 156240, Note_on_c, 2, 26, 100
5, 156480, Note_off_c, 2, 26, 80
5, 156480, Note_on_c, 2, 31, 100
5, 156960, Note_off_c, 2, 31, 80
5, 156960, Note_on_c, 2, 36, 100
5, 157440, Note_off_c, 2, 36, 80
5, 157440, Note_on_c, 2, 26, 100
5, 158160, Note_off_c, 2, 26, 80
5, 158160, Note_on_c, 2, 26, 100
5, 158400, Note_off_c, 2, 26, 80
5, 158400, Note_on_c, 2, 31, 100
5, 158880, Note_off_c, 2, 31, 80
5, 158880, Note_on_c, 2, 36, 100
5, 159360, Note_off_c, 2, 36, 80
5, 159360, Note_on_c, 2, 26, 100
5, 160080, Note_off_c, 2, 26, 80
5, 160080, Note_on_c, 2, 26, 100
5, 160320, Note_off_c, 2, 26, 80
5, 160320, Note_on_c, 2, 31, 100
5, 160800, Note_off_c, 2, 31, 80
5, 160800, Note_on_c, 2, 36, 100
5, 161280, Note_off_c, 2, 36, 80
5, 168960, Note_on_c, 2, 26, 100
5, 169680, Note_off_c, 2, 26, 80
5, 169680, Note_on_c, 2, 26, 100
5, 169920, Note_off_c, 2, 26, 80
5, 169920, Note_on_c, 2, 31, 100
5, 170400, Note_off_c, 2, 31, 80
5, 170400, Note_on_c, 2, 36, 100
5, 170880, Note_off_c, 2, 36, 80
5, 170880, Note_on_c, 2, 26, 100
5, 171600, Note_off_c, 2, 26, 80
5, 171600, Note_on_c, 2, 26, 100
5, 171840, Note_off_c, 2, 26, 80
5, 171840, Note_on_c, 2, 31, 100
5, 172320, Note_off_c, 2, 31, 80
5, 172320, Note_on_c, 2, 36, 100
5, 172800, Note_off_c, 2, 36, 80
5, 172800, Note_on_c, 2, 26, 100
5, 173520, Note_off_c, 2, 26, 80
5, 173520, Note_on_c, 2, 26, 100
5, 173760, Note_off_c, 2, 26, 80
5, 173760, Note_on_c, 2, 31, 100
5, 174240, Note_off_c, 2, 31, 80
5, 174240, Note_on_c, 2, 36, 100
5, 174720, Note_off_c, 2, 36, 80
5, 174720, Note_on_c, 2, 26, 100
5, 175440, Note_off_c, 2, 26, 80
5, 175440, Note_on_c, 2, 26, 100
5, 175680, Note_off_c, 2, 26, 80
5, 175680, Note_on_c, 2, 31, 100
5, 176160, Note_off_c, 2, 31, 80
5, 176160, Note_on_c, 2, 36, 100
5, 176640, Note_off_c, 2, 36, 80
5, 176640, Note_on_c, 2, 26, 100
5, 177360, Note_off_c, 2, 26, 80
5, 177360, Note_on_c, 2, 26, 100
5, 177600, Note_off_c, 2, 26, 80
5, 177600, Note_on_c, 2, 31, 100
5, 178080, Note_off_c, 2, 31, 80
5, 178080, Note_on_c, 2, 36, 100
5, 178560, Note_off_c, 2, 36, 80
5, 178560, Note_on_c, 2, 26, 100
5, 179280, Note_off_c, 2, 26, 80
5, 179280, Note_on_c, 2, 26, 100
5, 179520, Note_off_c, 2, 26, 80
5, 179520, Note_on_c, 2, 31, 100
5, 180000, Note_off_c, 2, 31, 80
5, 180000, Note_on_c, 2, 36, 100
5, 180480, Note_off_c, 2, 36, 80
5, 180480, Note_on_c, 2, 26, 100
5, 181200, Note_off_c, 2, 26, 80
5, 181200, Note_on_c, 2, 26, 100
5, 181440, Note_off_c, 2, 26, 80
5, 181440, Note_on_c, 2, 31, 100
5, 181920, Note_off_c, 2, 31, 80
5, 181920, Note_on_c, 2, 36, 100
5, 182400, Note_off_c, 2, 36, 80
5, 182400, Note_on_c, 2, 26, 100
5, 183120, Note_off_c, 2, 26, 80
5, 183120, Note_on_c, 2, 26, 100
5, 183360, Note_off_c, 2, 26, 80
5, 183360, Note_on_c, 2, 31, 100
5, 183840, Note_off_c, 2, 31, 80
5, 183840, Note_on_c, 2, 36, 100
5, 184320, Note_off_c, 2, 36, 80
5, 184320, Note_on_c, 2, 26, 100
5, 185040, Note_off_c, 2, 26, 80
5, 185040, Note_on_c, 2, 26, 100
5, 185280, Note_off_c, 2, 26, 80
5, 185280, Note_on_c, 2, 31, 100
5, 185760, Note_off_c, 2, 31, 80
5, 185760, Note_on_c, 2, 36, 100
5, 186240, Note_off_c, 2, 36, 80
5, 186240, Note_on_c, 2, 26, 100
5, 186960, Note_off_c, 2, 26, 80
5, 186960, Note_on_c, 2, 26, 100
5, 187200, Note_off_c, 2, 26, 80
5, 187200, Note_on_c, 2, 31, 100
5, 187680, Note_off_c, 2, 31, 80
5, 187680, Note_on_c, 2, 36, 100
5, 188160, Note_off_c, 2, 36, 80
5, 188160, Note_on_c, 2, 26, 100
5, 188880, Note_off_c, 2, 26, 80
5, 188880, Note_on_c, 2, 26, 100
5, 189120, Note_off_c, 2, 26, 80
5, 189120, Note_on_c, 2, 31, 100
5, 189600, Note_off_c, 2, 31, 80
5, 189600, Note_on_c, 2, 36, 100
5, 190080, Note_off_c, 2, 36, 80
5, 190080, End_track
6, 0, Start_track
6, 0, Title_t, "song"
6, 0, MIDI_port, 0
6, 0, Channel_prefix, 3
6, 0, Control_c, 3, 7, 53
6, 0, Control_c, 3, 10, 64
6, 0, Control_c, 3, 0, 0
6, 0, Control_c, 3, 32, 0
6, 0, Program_c, 3, 40
6, 7680, Note_on_c, 3, 66, 100
6, 8160, Note_off_c, 3, 66, 80
6, 8160, Note_on_c, 3, 66, 100
6, 8393, Note_off_c, 3, 66, 80
6, 8400, Note_on_c, 3, 64, 100
6, 8880, Note_off_c, 3, 64, 80
6, 8880, Note_on_c, 3, 64, 100
6, 9127, Note_off_c, 3, 64, 80
6, 9360, Note_on_c, 3, 62, 100
6, 9593, Note_off_c, 3, 62, 80
6, 9600, Note_on_c, 3, 62, 100
6, 10080, Note_off_c, 3, 62, 80
6, 10080, Note_on_c, 3, 62, 100
6, 10313, Note_off_c, 3, 62, 80
6, 10320, Note_on_c, 3, 62, 100
6, 10800, Note_off_c, 3, 62, 80
6, 10800, Note_on_c, 3, 59, 100
6, 11280, Note_off_c, 3, 59, 80
6, 11280, Note_on_c, 3, 59, 100
6, 11520, Note_on_c, 3, 66, 100
6, 11527, Note_off_c, 3, 59, 80
6, 11760, Note_off_c, 3, 66, 80
6, 11760, Note_on_c, 3, 66, 100
6, 12000, Note_off_c, 3, 66, 80
6, 12000, Note_on_c, 3, 66, 100
6, 12240, Note_off_c, 3, 66, 80
6, 12240, Note_on_c, 3, 64, 100
6, 12480, Note_off_c, 3, 64, 80
6, 12480, Note_on_c, 3, 64, 100
6, 12720, Note_off_c, 3, 64, 80
6, 12960, Note_on_c, 3, 64, 100
6, 13200, Note_off_c, 3, 64, 80
6, 13200, Note_on_c, 3, 62, 100
6, 13440, Note_off_c, 3, 62, 80
6, 13440, Note_on_c, 3, 62, 100
6, 13790, Note_off_c, 3, 62, 80
6, 13800, Note_on_c, 3, 62, 100
6, 14160, Note_on_c, 3, 62, 100
6, 14163, Note_off_c, 3, 62, 80
6, 14400, Note_off_c, 3, 62, 80
6, 14400, Note_on_c, 3, 59, 100
6, 14880, Note_off_c, 3, 59, 80
6, 15360, Note_on_c, 3, 69, 100
6, 15600, Note_off_c, 3, 69, 80
6, 15600, Note_on_c, 3, 69, 100
6, 15840, Note_off_c, 3, 69, 80
6, 15840, Note_on_c, 3, 69, 100
6, 16320, Note_off_c, 3, 69, 80
6, 16320, Note_on_c, 3, 67, 100
6, 16560, Note_off_c, 3, 67, 80
6, 16560, Note_on_c, 3, 67, 100
6, 16800, Note_off_c, 3, 67, 80
6, 16800, Note_on_c, 3, 67, 100
6, 17040, Note_off_c, 3, 67, 80
6, 17040, Note_on_c, 3, 67, 100
6, 17280, Note_off_c, 3, 67, 80
6, 17280, Note_on_c, 3, 71, 100
6, 17513, Note_off_c, 3, 71, 80
6, 17520, Note_on_c, 3, 71, 100
6, 17760, Note_off_c, 3, 71, 80
6, 17760, Note_on_c, 3, 69, 100
6, 18000, Note_off_c, 3, 69, 80
6, 18000, Note_on_c, 3, 66, 100
6, 18480, Note_off_c, 3, 66, 80
6, 18480, Note_on_c, 3, 62, 100
6, 18960, Note_off_c, 3, 62, 80
6, 19200, Note_on_c, 3, 66, 100
6, 19680, Note_off_c, 3, 66, 80
6, 19680, Note_on_c, 3, 66, 100
6, 19913, Note_off_c, 3, 66, 80
6, 19920, Note_on_c, 3, 64, 100
6, 20400, Note_off_c, 3, 64, 80
6, 20400, Note_on_c, 3, 64, 100
6, 20640, Note_on_c, 3, 64, 100
6, 20647, Note_off_c, 3, 64, 80
6, 20873, Note_off_c, 3, 64, 80
6, 20880, Note_on_c, 3, 62, 100
6, 21120, Note_on_c, 3, 62, 100
6, 21127, Note_off_c, 3, 62, 80
6, 21353, Note_off_c, 3, 62, 80
6, 21360, Note_on_c, 3, 62, 100
6, 21600, Note_on_c, 3, 62, 100
6, 21607, Note_off_c, 3, 62, 80
6, 22080, Note_off_c, 3, 62, 80
6, 22080, Note_on_c, 3, 59, 100
6, 22560, Note_off_c, 3, 59, 80
6, 30720, Note_on_c, 3, 66, 100
6, 31200, Note_off_c, 3, 66, 80
6, 31200, Note_on_c, 3, 66, 100
6, 31433, Note_off_c, 3, 66, 80
6, 31440, Note_on_c, 3, 64, 100
6, 31920, Note_off_c, 3, 64, 80
6, 31920, Note_on_c, 3, 64, 100
6, 32167, Note_off_c, 3, 64, 80
6, 32400, Note_on_c, 3, 62, 100
6, 32633, Note_off_c, 3, 62, 80
6, 32640, Note_on_c, 3, 62, 100
6, 33120, Note_off_c, 3, 62, 80
6, 33120, Note_on_c, 3, 62, 100
6, 33353, Note_off_c, 3, 62, 80
6, 33360, Note_on_c, 3, 62, 100
6, 33840, Note_off_c, 3, 62, 80
6, 33840, Note_on_c, 3, 59, 100
6, 34320, Note_off_c, 3, 59, 80
6, 34320, Note_on_c, 3, 59, 100
6, 34560, Note_on_c, 3, 66, 100
6, 34567, Note_off_c, 3, 59, 80
6, 34800, Note_off_c, 3, 66, 80
6, 34800, Note_on_c, 3, 66, 100
6, 35040, Note_off_c, 3, 66, 80
6, 35040, Note_on_c, 3, 66, 100
6, 35280, Note_off_c, 3, 66, 80
6, 35280, Note_on_c, 3, 64, 100
6, 35520, Note_off_c, 3, 64, 80
6, 35520, Note_on_c, 3, 64, 100
6, 35760, Note_off_c, 3, 64, 80
6, 36000, Note_on_c, 3, 64, 100
6, 36240, Note_off_c, 3, 64, 80
6, 36240, Note_on_c, 3, 62, 100
6, 36480, Note_off_c, 3, 62, 80
6, 36480, Note_on_c, 3, 62, 100
6, 36830, Note_off_c, 3, 62, 80
6, 36840, Note_on_c, 3, 62, 100
6, 37200, Note_on_c, 3, 62, 100
6, 37203, Note_off_c, 3, 62, 80
6, 37440, Note_off_c, 3, 62, 80
6, 37440, Note_on_c, 3, 59, 100
6, 37920, Note_off_c, 3, 59, 80
6, 38400, Note_on_c, 3, 69, 100
6, 38640, Note_off_c, 3, 69, 80
6, 38640, Note_on_c, 3, 69, 100
6, 38880, Note_off_c, 3, 69, 80
6, 38880, Note_on_c, 3, 69, 100
6, 39360, Note_off_c, 3, 69, 80
6, 39360, Note_on_c, 3, 67, 100
6, 39600, Note_off_c, 3, 67, 80
6, 39600, Note_on_c, 3, 67, 100
6, 39840, Note_off_c, 3, 67, 80
6, 39840, Note_on_c, 3, 67, 100
6, 40080, Note_off_c, 3, 67, 80
6, 40080, Note_on_c, 3, 67, 100
6, 40320, Note_off_c, 3, 67, 80
6, 40320, Note_on_c, 3, 71, 100
6, 40553, Note_off_c, 3, 71, 80
6, 40560, Note_on_c, 3, 71, 100
6, 40800, Note_off_c, 3, 71, 80
6, 40800, Note_on_c, 3, 69, 100
6, 41040, Note_off_c, 3, 69, 80
6, 41040, Note_on_c, 3, 66, 100
6, 41520, Note_off_c, 3, 66, 80
6, 41520, Note_on_c, 3, 62, 100
6, 42000, Note_off_c, 3, 62, 80
6, 42240, Note_on_c, 3, 66, 100
6, 42720, Note_off_c, 3, 66, 80
6, 42720, Note_on_c, 3, 66, 100
6, 42953, Note_off_c, 3, 66, 80
6, 42960, Note_on_c, 3, 64, 100
6, 43440, Note_off_c, 3, 64, 80
6, 43440, Note_on_c, 3, 64, 100
6, 43680, Note_on_c, 3, 64, 100
6, 43687, Note_off_c, 3, 64, 80
6, 43913, Note_off_c, 3, 64, 80
6, 43920, Note_on_c, 3, 62, 100
6, 44160, Note_on_c, 3, 62, 100
6, 44167, Note_off_c, 3, 62, 80
6, 44393, Note_off_c, 3, 62, 80
6, 44400, Note_on_c, 3, 62, 100
6, 44640, Note_on_c, 3, 62, 100
6, 44647, Note_off_c, 3, 62, 80
6, 45120, Note_off_c, 3, 62, 80
6, 45120, Note_on_c, 3, 59, 100
6, 45600, Note_off_c, 3, 59, 80
6, 49440, Note_on_c, 3, 62, 100
6, 49680, Note_off_c, 3, 62, 80
6, 49680, Note_on_c, 3, 62, 100
6, 49920, Note_off_c, 3, 62, 80
6, 49920, Note_on_c, 3, 66, 100
6, 50160, Note_off_c, 3, 66, 80
6, 50160, Note_on_c, 3, 66, 100
6, 50640, Note_off_c, 3, 66, 80
6, 50640, Note_on_c, 3, 64, 100
6, 51120, Note_off_c, 3, 64, 80
6, 51120, Note_on_c, 3, 62, 100
6, 51840, Note_on_c, 3, 60, 100
6, 51847, Note_off_c, 3, 62, 80
6, 52073, Note_off_c, 3, 60, 80
6, 52080, Note_on_c, 3, 62, 100
6, 52560, Note_off_c, 3, 62, 80
6, 52560, Note_on_c, 3, 59, 100
6, 53280, Note_on_c, 3, 62, 100
6, 53287, Note_off_c, 3, 59, 80
6, 53520, Note_off_c, 3, 62, 80
6, 53520, Note_on_c, 3, 62, 100
6, 53760, Note_off_c, 3, 62, 80
6, 53760, Note_on_c, 3, 66, 100
6, 54000, Note_off_c, 3, 66, 80
6, 54000, Note_on_c, 3, 66, 100
6, 54480, Note_off_c, 3, 66, 80
6, 54480, Note_on_c, 3, 64, 100
6, 54960, Note_off_c, 3, 64, 80
6, 54960, Note_on_c, 3, 62, 100
6, 55680, Note_on_c, 3, 60, 100
6, 55687, Note_off_c, 3, 62, 80
6, 55913, Note_off_c, 3, 60, 80
6, 55920, Note_on_c, 3, 62, 100
6, 56400, Note_off_c, 3, 62, 80
6, 56400, Note_on_c, 3, 59, 100
6, 57120, Note_on_c, 3, 62, 100
6, 57127, Note_off_c, 3, 59, 80
6, 57360, Note_off_c, 3, 62, 80
6, 57360, Note_on_c, 3, 62, 100
6, 57600, Note_off_c, 3, 62, 80
6, 57600, Note_on_c, 3, 66, 100
6, 57840, Note_off_c, 3, 66, 80
6, 57840, Note_on_c, 3, 66, 100
6, 58320, Note_off_c, 3, 66, 80
6, 58320, Note_on_c, 3, 64, 100
6, 58800, Note_off_c, 3, 64, 80
6, 58800, Note_on_c, 3, 62, 100
6, 59520, Note_on_c, 3, 60, 100
6, 59527, Note_off_c, 3, 62, 80
6, 59753, Note_off_c, 3, 60, 80
6, 59760, Note_on_c, 3, 62, 100
6, 60240, Note_off_c, 3, 62, 80
6, 60240, Note_on_c, 3, 59, 100
6, 60960, Note_on_c, 3, 62, 100
6, 60967, Note_off_c, 3, 59, 80
6, 61200, Note_off_c, 3, 62, 80
6, 61200, Note_on_c, 3, 62, 100
6, 61440, Note_off_c, 3, 62, 80
6, 61440, Note_on_c, 3, 66, 100
6, 61920, Note_off_c, 3, 66, 80
6, 61920, Note_on_c, 3, 66, 100
6, 62153, Note_off_c, 3, 66, 80
6, 62160, Note_on_c, 3, 64, 100
6, 62640, Note_off_c, 3, 64, 80
6, 62640, Note_on_c, 3, 62, 100
6, 63360, Note_on_c, 3, 60, 100
6, 63367, Note_off_c, 3, 62, 80
6, 63593, Note_off_c, 3, 60, 80
6, 63600, Note_on_c, 3, 62, 100
6, 64080, Note_off_c, 3, 62, 80
6, 64080, Note_on_c, 3, 59, 100
6, 64807, Note_off_c, 3, 59, 80
6, 72960, Note_on_c, 3, 66, 100
6, 73440, Note_off_c, 3, 66, 80
6, 73440, Note_on_c, 3, 66, 100
6, 73673, Note_off_c, 3, 66, 80
6, 73680, Note_on_c, 3, 64, 100
6, 74160, Note_off_c, 3, 64, 80
6, 74160, Note_on_c, 3, 64, 100
6, 74407, Note_off_c, 3, 64, 80
6, 74640, Note_on_c, 3, 62, 100
6, 74873, Note_off_c, 3, 62, 80
6, 74880, Note_on_c, 3, 62, 100
6, 75360, Note_off_c, 3, 62, 80
6, 75360, Note_on_c, 3, 62, 100
6, 75593, Note_off_c, 3, 62, 80
6, 75600, Note_on_c, 3, 62, 100
6, 76080, Note_off_c, 3, 62, 80
6, 76080, Note_on_c, 3, 59, 100
6, 76560, Note_off_c, 3, 59, 80
6, 76560, Note_on_c, 3, 59, 100
6, 76800, Note_on_c, 3, 66, 100
6, 76807, Note_off_c, 3, 59, 80
6, 77040, Note_off_c, 3, 66, 80
6, 77040, Note_on_c, 3, 66, 100
6, 77280, Note_off_c, 3, 66, 80
6, 77280, Note_on_c, 3, 66, 100
6, 77520, Note_off_c, 3, 66, 80
6, 77520, Note_on_c, 3, 64, 100
6, 77760, Note_off_c, 3, 64, 80
6, 77760, Note_on_c, 3, 64, 100
6, 78000, Note_off_c, 3, 64, 80
6, 78240, Note_on_c, 3, 64, 100
6, 78480, Note_off_c, 3, 64, 80
6, 78480, Note_on_c, 3, 62, 100
6, 78720, Note_off_c, 3, 62, 80
6, 78720, Note_on_c, 3, 62, 100
6, 79070, Note_off_c, 3, 62, 80
6, 79080, Note_on_c, 3, 62, 100
6, 79440, Note_on_c, 3, 62, 100
6, 79443, Note_off_c, 3, 62, 80
6, 79680, Note_off_c, 3, 62, 80
6, 79680, Note_on_c, 3, 59, 100
6, 80160, Note_off_c, 3, 59, 80
6, 80640, Note_on_c, 3, 69, 100
6, 80880, Note_off_c, 3, 69, 80
6, 80880, Note_on_c, 3, 69, 100
6, 81120, Note_off_c, 3, 69, 80
6, 81120, Note_on_c, 3, 69, 100
6, 81600, Note_off_c, 3, 69, 80
6, 81600, Note_on_c, 3, 67, 100
6, 81840, Note_off_c, 3, 67, 80
6, 81840, Note_on_c, 3, 67, 100
6, 82080, Note_off_c, 3, 67, 80
6, 82080, Note_on_c, 3, 67, 100
6, 82320, Note_off_c, 3, 67, 80
6, 82320, Note_on_c, 3, 67, 100
6, 82560, Note_off_c, 3, 67, 80
6, 82560, Note_on_c, 3, 71, 100
6, 82793, Note_off_c, 3, 71, 80
6, 82800, Note_on_c, 3, 71, 100
6, 83040, Note_off_c, 3, 71, 80
6, 83040, Note_on_c, 3, 69, 100
6, 83280, Note_off_c, 3, 69, 80
6, 83280, Note_on_c, 3, 66, 100
6, 83760, Note_off_c, 3, 66, 80
6, 83760, Note_on_c, 3, 62, 100
6, 84240, Note_off_c, 3, 62, 80
6, 84480, Note_on_c, 3, 66, 100
6, 84960, Note_off_c, 3, 66, 80
6, 84960, Note_on_c, 3, 66, 100
6, 85193, Note_off_c, 3, 66, 80
6, 85200, Note_on_c, 3, 64, 100
6, 85680, Note_off_c, 3, 64, 80
6, 85680, Note_on_c, 3, 64, 100
6, 85920, Note_on_c, 3, 64, 100
6, 85927, Note_off_c, 3, 64, 80
6, 86153, Note_off_c, 3, 64, 80
6, 86160, Note_on_c, 3, 62, 100
6, 86400, Note_on_c, 3, 62, 100
6, 86407, Note_off_c, 3, 62, 80
6, 86633, Note_off_c, 3, 62, 80
6, 86640, Note_on_c, 3, 62, 100
6, 86880, Note_on_c, 3, 62, 100
6, 86887, Note_off_c, 3, 62, 80
6, 87360, Note_off_c, 3, 62, 80
6, 87360, Note_on_c, 3, 59, 100
6, 87840, Note_off_c, 3, 59, 80
6, 91680, Note_on_c, 3, 62, 100
6, 91920, Note_off_c, 3, 62, 80
6, 91920, Note_on_c, 3, 62, 100
6, 92160, Note_off_c, 3, 62, 80
6, 92160, Note_on_c, 3, 66, 100
6, 92400, Note_off_c, 3, 66, 80
6, 92400, Note_on_c, 3, 66, 100
6, 92880, Note_off_c, 3, 66, 80
6, 92880, Note_on_c, 3, 64, 100
6, 93360, Note_off_c, 3, 64, 80
6, 93360, Note_on_c, 3, 62, 100
6, 94080, Note_on_c, 3, 60, 100
6, 94087, Note_off_c, 3, 62, 80
6, 94313, Note_off_c, 3, 60, 80
6, 94320, Note_on_c, 3, 62, 100
6, 94800, Note_off_c, 3, 62, 80
6, 94800, Note_on_c, 3, 59, 100
6, 95520, Note_on_c, 3, 62, 100
6, 95527, Note_off_c, 3, 59, 80
6, 95760, Note_off_c, 3, 62, 80
6, 95760, Note_on_c, 3, 62, 100
6, 96000, Note_off_c, 3, 62, 80
6, 96000, Note_on_c, 3, 66, 100
6, 96240, Note_off_c, 3, 66, 80
6, 96240, Note_on_c, 3, 66, 100
6, 96720, Note_off_c, 3, 66, 80
6, 96720, Note_on_c, 3, 64, 100
6, 97200, Note_off_c, 3, 64, 80
6, 97200, Note_on_c, 3, 62, 100
6, 97920, Note_on_c, 3, 60, 100
6, 97927, Note_off_c, 3, 62, 80
6, 98153, Note_off_c, 3, 60, 80
6, 98160, Note_on_c, 3, 62, 100
6, 98640, Note_off_c, 3, 62, 80
6, 98640, Note_on_c, 3, 59, 100
6, 99360, Note_on_c, 3, 62, 100
6, 99367, Note_off_c, 3, 59, 80
6, 99600, Note_off_c, 3, 62, 80
6, 99600, Note_on_c, 3, 62, 100
6, 99840, Note_off_c, 3, 62, 80
6, 99840, Note_on_c, 3, 66, 100
6, 100080, Note_off_c, 3, 66, 80
6, 100080, Note_on_c, 3, 66, 100
6, 100560, Note_off_c, 3, 66, 80
6, 100560, Note_on_c, 3, 64, 100
6, 101040, Note_off_c, 3, 64, 80
6, 101040, Note_on_c, 3, 62, 100
6, 101760, Note_on_c, 3, 60, 100
6, 101767, Note_off_c, 3, 62, 80
6, 101993, Note_off_c, 3, 60, 80
6, 102000, Note_on_c, 3, 62, 100
6, 102480, Note_off_c, 3, 62, 80
6, 102480, Note_on_c, 3, 59, 100
6, 103200, Note_on_c, 3, 62, 100
6, 103207, Note_off_c, 3, 59, 80
6, 103440, Note_off_c, 3, 62, 80
6, 103440, Note_on_c, 3, 62, 100
6, 103680, Note_off_c, 3, 62, 80
6, 103680, Note_on_c, 3, 66, 100
6, 104160, Note_off_c, 3, 66, 80
6, 104160, Note_on_c, 3, 66, 100
6, 104393, Note_off_c, 3, 66, 80
6, 104400, Note_on_c, 3, 64, 100
6, 104880, Note_off_c, 3, 64, 80
6, 104880, Note_on_c, 3, 62, 100
6, 105600, Note_on_c, 3, 60, 100
6, 105607, Note_off_c, 3, 62, 80
6, 105833, Note_off_c, 3, 60, 80
6, 105840, Note_on_c, 3, 62, 100
6, 106320, Note_off_c, 3, 62, 80
6, 106320, Note_on_c, 3, 59, 100
6, 107047, Note_off_c, 3, 59, 80
6, 122880, Note_on_c, 3, 66, 100
6, 123360, Note_off_c, 3, 66, 80
6, 123360, Note_on_c, 3, 66, 100
6, 123593, Note_off_c, 3, 66, 80
6, 123600, Note_on_c, 3, 64, 100
6, 124080, Note_off_c, 3, 64, 80
6, 124080, Note_on_c, 3, 64, 100
6, 124327, Note_off_c, 3, 64, 80
6, 124560, Note_on_c, 3, 62, 100
6, 124793, Note_off_c, 3, 62, 80
6, 124800, Note_on_c, 3, 62, 100
6, 125280, Note_off_c, 3, 62, 80
6, 125280, Note_on_c, 3, 62, 100
6, 125513, Note_off_c, 3, 62, 80
6, 125520, Note_on_c, 3, 62, 100
6, 126000, Note_off_c, 3, 62, 80
6, 126000, Note_on_c, 3, 59, 100
6, 126480, Note_off_c, 3, 59, 80
6, 126480, Note_on_c, 3, 59, 100
6, 126720, Note_on_c, 3, 66, 100
6, 126727, Note_off_c, 3, 59, 80
6, 127200, Note_off_c, 3, 66, 80
6, 127200, Note_on_c, 3, 66, 100
6, 127433, Note_off_c, 3, 66, 80
6, 127440, Note_on_c, 3, 64, 100
6, 127920, Note_off_c, 3, 64, 80
6, 127920, Note_on_c, 3, 64, 100
6, 128167, Note_off_c, 3, 64, 80
6, 128400, Note_on_c, 3, 62, 100
6, 128633, Note_off_c, 3, 62, 80
6, 128640, Note_on_c, 3, 62, 100
6, 129120, Note_off_c, 3, 62, 80
6, 129120, Note_on_c, 3, 62, 100
6, 129353, Note_off_c, 3, 62, 80
6, 129360, Note_on_c, 3, 62, 100
6, 129840, Note_off_c, 3, 62, 80
6, 129840, Note_on_c, 3, 59, 100
6, 130320, Note_off_c, 3, 59, 80
6, 130320, Note_on_c, 3, 59, 100
6, 130560, Note_on_c, 3, 66, 100
6, 130567, Note_off_c, 3, 59, 80
6, 131040, Note_off_c, 3, 66, 80
6, 131040, Note_on_c, 3, 66, 100
6, 131273, Note_off_c, 3, 66, 80
6, 131280, Note_on_c, 3, 64, 100
6, 131760, Note_off_c, 3, 64, 80
6, 131760, Note_on_c, 3, 64, 100
6, 132007, Note_off_c, 3, 64, 80
6, 132240, Note_on_c, 3, 62, 100
6, 132473, Note_off_c, 3, 62, 80
6, 132480, Note_on_c, 3, 62, 100
6, 132960, Note_off_c, 3, 62, 80
6, 132960, Note_on_c, 3, 62, 100
6, 133193, Note_off_c, 3, 62, 80
6, 133200, Note_on_c, 3, 62, 100
6, 133680, Note_off_c, 3, 62, 80
6, 133680, Note_on_c, 3, 59, 100
6, 134160, Note_off_c, 3, 59, 80
6, 134160, Note_on_c, 3, 59, 100
6, 134400, Note_on_c, 3, 66, 100
6, 134407, Note_off_c, 3, 59, 80
6, 134880, Note_off_c, 3, 66, 80
6, 134880, Note_on_c, 3, 66, 100
6, 135113, Note_off_c, 3, 66, 80
6, 135120, Note_on_c, 3, 64, 100
6, 135600, Note_off_c, 3, 64, 80
6, 135600, Note_on_c, 3, 64, 100
6, 135847, Note_off_c, 3, 64, 80
6, 136080, Note_on_c, 3, 62, 100
6, 136313, Note_off_c, 3, 62, 80
6, 136320, Note_on_c, 3, 62, 100
6, 136800, Note_off_c, 3, 62, 80
6, 136800, Note_on_c, 3, 62, 100
6, 137033, Note_off_c, 3, 62, 80
6, 137040, Note_on_c, 3, 62, 100
6, 137520, Note_off_c, 3, 62, 80
6, 137520, Note_on_c, 3, 59, 100
6, 138000, Note_off_c, 3, 59, 80
6, 138000, Note_on_c, 3, 59, 100
6, 138247, Note_off_c, 3, 59, 80
6, 145440, Note_on_c, 3, 62, 100
6, 145680, Note_off_c, 3, 62, 80
6, 145680, Note_on_c, 3, 62, 100
6, 145920, Note_off_c, 3, 62, 80
6, 145920, Note_on_c, 3, 66, 100
6, 146160, Note_off_c, 3, 66, 80
6, 146160, Note_on_c, 3, 66, 100
6, 146640, Note_off_c, 3, 66, 80
6, 146640, Note_on_c, 3, 64, 100
6, 147120, Note_off_c, 3, 64, 80
6, 147120, Note_on_c, 3, 62, 100
6, 147840, Note_on_c, 3, 60, 100
6, 147847, Note_off_c, 3, 62, 80
6, 148073, Note_off_c, 3, 60, 80
6, 148080, Note_on_c, 3, 62, 100
6, 148560, Note_off_c, 3, 62, 80
6, 148560, Note_on_c, 3, 59, 100
6, 149280, Note_on_c, 3, 62, 100
6, 149287, Note_off_c, 3, 59, 80
6, 149520, Note_off_c, 3, 62, 80
6, 149520, Note_on_c, 3, 62, 100
6, 149760, Note_off_c, 3, 62, 80
6, 149760, Note_on_c, 3, 66, 100
6, 150000, Note_off_c, 3, 66, 80
6, 150000, Note_on_c, 3, 66, 100
6, 150480, Note_off_c, 3, 66, 80
6, 150480, Note_on_c, 3, 64, 100
6, 150960, Note_off_c, 3, 64, 80
6, 150960, Note_on_c, 3, 62, 100
6, 151680, Note_on_c, 3, 60, 100
6, 151687, Note_off_c, 3, 62, 80
6, 151913, Note_off_c, 3, 60, 80
6, 151920, Note_on_c, 3, 62, 100
6, 152400, Note_off_c, 3, 62, 80
6, 152400, Note_on_c, 3, 59, 100
6, 153120, Note_on_c, 3, 62, 100
6, 153127, Note_off_c, 3, 59, 80
6, 153360, Note_off_c, 3, 62, 80
6, 153360, Note_on_c, 3, 62, 100
6, 153600, Note_off_c, 3, 62, 80
6, 153600, Note_on_c, 3, 66, 100
6, 153840, Note_off_c, 3, 66, 80
6, 153840, Note_on_c, 3, 66, 100
6, 154320, Note_off_c, 3, 66, 80
6, 154320, Note_on_c, 3, 64, 100
6, 154800, Note_off_c, 3, 64, 80
6, 154800, Note_on_c, 3, 62, 100
6, 155520, Note_on_c, 3, 60, 100
6, 155527, Note_off_c, 3, 62, 80
6, 155753, Note_off_c, 3, 60, 80
6, 155760, Note_on_c, 3, 62, 100
6, 156240, Note_off_c, 3, 62, 80
6, 156240, Note_on_c, 3, 59, 100
6, 156960, Note_on_c, 3, 62, 100
6, 156967, Note_off_c, 3, 59, 80
6, 157200, Note_off_c, 3, 62, 80
6, 157200, Note_on_c, 3, 62, 100
6, 157440, Note_off_c, 3, 62, 80
6, 157440, Note_on_c, 3, 66, 100
6, 157920, Note_off_c, 3, 66, 80
6, 157920, Note_on_c, 3, 66, 100
6, 158153, Note_off_c, 3, 66, 80
6, 158160, Note_on_c, 3, 64, 100
6, 158640, Note_off_c, 3, 64, 80
6, 158640, Note_on_c, 3, 62, 100
6, 159360, Note_on_c, 3, 60, 100
6, 159367, Note_off_c, 3, 62, 80
6, 159593, Note_off_c, 3, 60, 80
6, 159600, Note_on_c, 3, 62, 100
6, 160080, Note_off_c, 3, 62, 80
6, 160080, Note_on_c, 3, 59, 100
6, 160807, Note_off_c, 3, 59, 80
6, 160807, End_track
7, 0, Start_track
7, 0, Title_t, "bells"
7, 0, MIDI_port, 0
7, 0, Channel_prefix, 4
7, 0, Control_c, 4, 7, 105
7, 0, Control_c, 4, 10, 64
7, 0, Control_c, 4, 0, 0
7, 0, Control_c, 4, 32, 64
7, 0, Program_c, 4, 12
7, 37440, Note_on_c, 4, 33, 100
7, 37560, Note_off_c, 4, 33, 80
7, 37560, Note_on_c, 4, 38, 100
7, 37680, Note_off_c, 4, 38, 80
7, 37680, Note_on_c, 4, 42, 100
7, 37800, Note_off_c, 4, 42, 80
7, 37800, Note_on_c, 4, 45, 100
7, 37920, Note_off_c, 4, 45, 80
7, 37920, Note_on_c, 4, 50, 100
7, 38040, Note_off_c, 4, 50, 80
7, 38040, Note_on_c, 4, 54, 100
7, 38160, Note_off_c, 4, 54, 80
7, 38160, Note_on_c, 4, 57, 100
7, 38280, Note_off_c, 4, 57, 80
7, 38280, Note_on_c, 4, 62, 100
7, 38400, Note_off_c, 4, 62, 80
7, 45120, Note_on_c, 4, 33, 100
7, 45240, Note_off_c, 4, 33, 80
7, 45240, Note_on_c, 4, 38, 100
7, 45360, Note_off_c, 4, 38, 80
7, 45360, Note_on_c, 4, 42, 100
7, 45480, Note_off_c, 4, 42, 80
7, 45480, Note_on_c, 4, 45, 100
7, 45600, Note_off_c, 4, 45, 80
7, 45600, Note_on_c, 4, 50, 100
7, 45720, Note_off_c, 4, 50, 80
7, 45720, Note_on_c, 4, 54, 100
7, 45840, Note_off_c, 4, 54, 80
7, 45840, Note_on_c, 4, 57, 100
7, 45960, Note_off_c, 4, 57, 80
7, 45960, Note_on_c, 4, 62, 100
7, 46080, Note_off_c, 4, 62, 80
7, 79680, Note_on_c, 4, 33, 100
7, 79800, Note_off_c, 4, 33, 80
7, 79800, Note_on_c, 4, 38, 100
7, 79920, Note_off_c, 4, 38, 80
7, 79920, Note_on_c, 4, 42, 100
7, 80040, Note_off_c, 4, 42, 80
7, 80040, Note_on_c, 4, 45, 100
7, 80160, Note_off_c, 4, 45, 80
7, 80160, Note_on_c, 4, 50, 100
7, 80280, Note_off_c, 4, 50, 80
7, 80280, Note_on_c, 4, 54, 100
7, 80400, Note_off_c, 4, 54, 80
7, 80400, Note_on_c, 4, 57, 100
7, 80520, Note_off_c, 4, 57, 80
7, 80520, Note_on_c, 4, 62, 100
7, 80640, Note_off_c, 4, 62, 80
7, 80640, End_track
8, 0, Start_track
8, 0, Title_t, "fx"
8, 0, MIDI_port, 0
8, 0, Channel_prefix, 10
8, 0, Control_c, 10, 7, 102
8, 0, Control_c, 10, 10, 127
8, 0, Control_c, 10, 0, 127
8, 0, Control_c, 10, 32, 23
8, 0, Program_c, 10, 25
8, 46080, Note_on_c, 10, 18, 100
8, 46320, Note_off_c, 10, 18, 80
8, 46320, Note_on_c, 10, 17, 100
8, 46800, Note_off_c, 10, 17, 80
8, 47520, Note_on_c, 10, 18, 40
8, 47760, Note_off_c, 10, 18, 80
8, 47760, Note_on_c, 10, 17, 40
8, 48240, Note_off_c, 10, 17, 80
8, 48960, Note_on_c, 10, 18, 10
8, 49200, Note_off_c, 10, 18, 80
8, 49200, Note_on_c, 10, 17, 10
8, 49563, Note_off_c, 10, 17, 80
8, 49563, End_track
9, 0, Start_track
9, 0, Title_t, "fx2"
9, 0, MIDI_port, 0
9, 0, Channel_prefix, 11
9, 0, Control_c, 11, 7, 102
9, 0, Control_c, 11, 10, 0
9, 0, Control_c, 11, 0, 127
9, 0, Control_c, 11, 32, 23
9, 0, Program_c, 11, 25
9, 46800, Note_on_c, 11, 18, 60
9, 47040, Note_off_c, 11, 18, 80
9, 47040, Note_on_c, 11, 17, 60
9, 47520, Note_off_c, 11, 17, 80
9, 48240, Note_on_c, 11, 18, 20
9, 48480, Note_off_c, 11, 18, 80
9, 48480, Note_on_c, 11, 17, 20
9, 48960, Note_off_c, 11, 17, 80
9, 48960, End_track
10, 0, Start_track
10, 0, Title_t, "violin"
10, 0, MIDI_port, 0
10, 0, Channel_prefix, 5
10, 0, Control_c, 5, 7, 67
10, 0, Control_c, 5, 10, 64
10, 0, Control_c, 5, 0, 0
10, 0, Control_c, 5, 32, 0
10, 0, Program_c, 5, 44
10, 88320, Note_on_c, 5, 50, 100
10, 89040, Note_off_c, 5, 50, 80
10, 89040, Note_on_c, 5, 50, 100
10, 89760, Note_off_c, 5, 50, 80
10, 89760, Note_on_c, 5, 50, 100
10, 90480, Note_off_c, 5, 50, 80
10, 90480, Note_on_c, 5, 50, 100
10, 91200, Note_off_c, 5, 50, 80
10, 91200, Note_on_c, 5, 50, 100
10, 91920, Note_off_c, 5, 50, 80
10, 91920, End_track
11, 0, Start_track
11, 0, Title_t, "oud"
11, 0, MIDI_port, 0
11, 0, Channel_prefix, 6
11, 0, Control_c, 6, 7, 110
11, 0, Control_c, 6, 10, 1
11, 0, Control_c, 6, 0, 0
11, 0, Control_c, 6, 32, 98
11, 0, Program_c, 6, 105
11, 107520, Note_on_c, 6, 69, 100
11, 108580, Pitch_bend_c, 6, 5861
11, 108680, Pitch_bend_c, 6, 3907
11, 108780, Pitch_bend_c, 6, 1352
11, 108880, Pitch_bend_c, 6, 0
11, 109440, Note_off_c, 6, 69, 80
11, 109440, Pitch_bend_c, 6, 8192
11, 109440, Note_on_c, 6, 62, 100
11, 109540, Pitch_bend_c, 6, 6913
11, 109640, Pitch_bend_c, 6, 5861
11, 109740, Pitch_bend_c, 6, 4509
11, 109840, Pitch_bend_c, 6, 2705
11, 109940, Pitch_bend_c, 6, 1352
11, 110040, Pitch_bend_c, 6, 0
11, 110153, Note_off_c, 6, 62, 80
11, 110880, Pitch_bend_c, 6, 8192
11, 111360, Note_on_c, 6, 69, 100
11, 112420, Pitch_bend_c, 6, 5861
11, 112520, Pitch_bend_c, 6, 3907
11, 112620, Pitch_bend_c, 6, 1352
11, 112720, Pitch_bend_c, 6, 0
11, 113280, Note_off_c, 6, 69, 80
11, 113280, Pitch_bend_c, 6, 8192
11, 113280, Note_on_c, 6, 62, 100
11, 113380, Pitch_bend_c, 6, 6913
11, 113480, Pitch_bend_c, 6, 5861
11, 113580, Pitch_bend_c, 6, 4509
11, 113680, Pitch_bend_c, 6, 2705
11, 113780, Pitch_bend_c, 6, 1352
11, 113880, Pitch_bend_c, 6, 0
11, 113993, Note_off_c, 6, 62, 80
11, 114720, Pitch_bend_c, 6, 8192
11, 115200, Note_on_c, 6, 69, 100
11, 116260, Pitch_bend_c, 6, 5861
11, 116360, Pitch_bend_c, 6, 3907
11, 116460, Pitch_bend_c, 6, 1352
11, 116560, Pitch_bend_c, 6, 0
11, 117120, Note_off_c, 6, 69, 80
11, 117120, Pitch_bend_c, 6, 8192
11, 117120, Note_on_c, 6, 62, 100
11, 117220, Pitch_bend_c, 6, 6913
11, 117320, Pitch_bend_c, 6, 5861
11, 117420, Pitch_bend_c, 6, 4509
11, 117520, Pitch_bend_c, 6, 2705
11, 117620, Pitch_bend_c, 6, 1352
11, 117720, Pitch_bend_c, 6, 0
11, 117833, Note_off_c, 6, 62, 80
11, 118560, Pitch_bend_c, 6, 8192
11, 119040, Note_on_c, 6, 69, 100
11, 120100, Pitch_bend_c, 6, 5861
11, 120200, Pitch_bend_c, 6, 3907
11, 120300, Pitch_bend_c, 6, 1352
11, 120400, Pitch_bend_c, 6, 0
11, 120960, Note_off_c, 6, 69, 80
11, 120960, Pitch_bend_c, 6, 8192
11, 120960, Note_on_c, 6, 62, 100
11, 121060, Pitch_bend_c, 6, 6913
11, 121160, Pitch_bend_c, 6, 5861
11, 121260, Pitch_bend_c, 6, 4509
11, 121360, Pitch_bend_c, 6, 2705
11, 121460, Pitch_bend_c, 6, 1352
11, 121560, Pitch_bend_c, 6, 0
11, 121673, Note_off_c, 6, 62, 80
11, 122400, Pitch_bend_c, 6, 8192
11, 122400, End_track
12, 0, Start_track
12, 0, Title_t, "oud"
12, 0, MIDI_port, 0
12, 0, Channel_prefix, 7
12, 0, Control_c, 7, 7, 121
12, 0, Control_c, 7, 10, 127
12, 0, Control_c, 7, 0, 0
12, 0, Control_c, 7, 32, 98
12, 0, Program_c, 7, 105
12, 107760, Note_on_c, 7, 57, 100
12, 109440, Note_on_c, 7, 58, 100
12, 109447, Note_off_c, 7, 57, 80
12, 110153, Note_off_c, 7, 58, 80
12, 110160, Note_on_c, 7, 59, 100
12, 111367, Note_off_c, 7, 59, 80
12, 111600, Note_on_c, 7, 57, 100
12, 113280, Note_on_c, 7, 58, 100
12, 113287, Note_off_c, 7, 57, 80
12, 113993, Note_off_c, 7, 58, 80
12, 114000, Note_on_c, 7, 59, 100
12, 115207, Note_off_c, 7, 59, 80
12, 115440, Note_on_c, 7, 57, 100
12, 117120, Note_on_c, 7, 58, 100
12, 117127, Note_off_c, 7, 57, 80
12, 117833, Note_off_c, 7, 58, 80
12, 117840, Note_on_c, 7, 59, 100
12, 119047, Note_off_c, 7, 59, 80
12, 119280, Note_on_c, 7, 57, 100
12, 120960, Note_on_c, 7, 58, 100
12, 120967, Note_off_c, 7, 57, 80
12, 121673, Note_off_c, 7, 58, 80
12, 121680, Note_on_c, 7, 59, 100
12, 122887, Note_off_c, 7, 59, 80
12, 122887, End_track
13, 0, Start_track
13, 0, Title_t, "organ"
13, 0, MIDI_port, 0
13, 0, Channel_prefix, 8
13, 0, Control_c, 8, 7, 67
13, 0, Control_c, 8, 10, 64
13, 0, Control_c, 8, 0, 0
13, 0, Control_c, 8, 32, 0
13, 0, Program_c, 8, 16
13, 122880, Note_on_c, 8, 66, 100
13, 123360, Note_off_c, 8, 66, 80
13, 123600, Note_on_c, 8, 66, 100
13, 123840, Note_off_c, 8, 66, 80
13, 123840, Note_on_c, 8, 66, 100
13, 124320, Note_off_c, 8, 66, 80
13, 124320, Note_on_c, 8, 66, 100
13, 124800, Note_off_c, 8, 66, 80
13, 124800, Note_on_c, 8, 66, 100
13, 125280, Note_off_c, 8, 66, 80
13, 125520, Note_on_c, 8, 66, 100
13, 125760, Note_off_c, 8, 66, 80
13, 125760, Note_on_c, 8, 66, 100
13, 126240, Note_off_c, 8, 66, 80
13, 126240, Note_on_c, 8, 66, 100
13, 126720, Note_off_c, 8, 66, 80
13, 126720, Note_on_c, 8, 66, 100
13, 127200, Note_off_c, 8, 66, 80
13, 127440, Note_on_c, 8, 66, 100
13, 127680, Note_off_c, 8, 66, 80
13, 127680, Note_on_c, 8, 66, 100
13, 128160, Note_off_c, 8, 66, 80
13, 128160, Note_on_c, 8, 66, 100
13, 128640, Note_off_c, 8, 66, 80
13, 128640, Note_on_c, 8, 66, 100
13, 129120, Note_off_c, 8, 66, 80
13, 129360, Note_on_c, 8, 66, 100
13, 129600, Note_off_c, 8, 66, 80
13, 129600, Note_on_c, 8, 66, 100
13, 130080, Note_off_c, 8, 66, 80
13, 130080, Note_on_c, 8, 66, 100
13, 130560, Note_off_c, 8, 66, 80
13, 130560, Note_on_c, 8, 66, 100
13, 130560, Note_on_c, 8, 69, 100
13, 131040, Note_off_c, 8, 69, 80
13, 131040, Note_off_c, 8, 66, 80
13, 131280, Note_on_c, 8, 66, 100
13, 131280, Note_on_c, 8, 69, 100
13, 131520, Note_off_c, 8, 69, 80
13, 131520, Note_off_c, 8, 66, 80
13, 131520, Note_on_c, 8, 66, 100
13, 131520, Note_on_c, 8, 69, 100
13, 132000, Note_off_c, 8, 69, 80
13, 132000, Note_off_c, 8, 66, 80
13, 132000, Note_on_c, 8, 66, 100
13, 132000, Note_on_c, 8, 69, 100
13, 132480, Note_off_c, 8, 69, 80
13, 132480, Note_off_c, 8, 66, 80
13, 132480, Note_on_c, 8, 66, 100
13, 132480, Note_on_c, 8, 69, 100
13, 132960, Note_off_c, 8, 69, 80
13, 132960, Note_off_c, 8, 66, 80
13, 133200, Note_on_c, 8, 66, 100
13, 133200, Note_on_c, 8, 69, 100
13, 133440, Note_off_c, 8, 69, 80
13, 133440, Note_off_c, 8, 66, 80
13, 133440, Note_on_c, 8, 66, 100
13, 133440, Note_on_c, 8, 69, 100
13, 133920, Note_off_c, 8, 69, 80
13, 133920, Note_off_c, 8, 66, 80
13, 133920, Note_on_c, 8, 66, 100
13, 133920, Note_on_c, 8, 69, 100
13, 134400, Note_off_c, 8, 69, 80
13, 134400, Note_off_c, 8, 66, 80
13, 134400, End_track
14, 0, Start_track
14, 0, Title_t, "Beck, Devils Haircut, Odelay"
14, 0, MIDI_port, 0
14, 0, End_track
15, 0, Start_track
15, 0, Title_t, "Midimade by:"
15, 0, MIDI_port, 0
15, 0, End_track
16, 0, Start_track
16, 0, Title_t, "Per Johansson    9/2-98"
16, 0, MIDI_port, 0
16, 0, End_track
17, 0, Start_track
17, 0, Title_t, "Please send comments to:"
17, 0, MIDI_port, 0
17, 0, End_track
18, 0, Start_track
18, 0, Title_t, "jan.johansson@onsala.pp.se"
18, 0, MIDI_port, 0
18, 0, End_track
0, 0, End_of_file
