0, 0, Header, 1, 11, 192
1, 0, Start_track
1, 0, Channel_prefix, 0
1, 0, Tempo, 413793
1, 0, Time_signature, 4, 2, 0, 8
1, 0, End_track
2, 0, Start_track
2, 0, Title_t, "MELODY"
2, 0, Channel_prefix, 3
2, 192, Control_c, 3, 91, 104
2, 384, Control_c, 3, 93, 28
2, 672, Program_c, 3, 65
2, 3744, Note_on_c, 3, 63, 127
2, 3826, Note_on_c, 3, 63, 0
2, 3840, Note_on_c, 3, 67, 127
2, 4018, Note_on_c, 3, 67, 0
2, 4032, Note_on_c, 3, 65, 125
2, 4126, Note_on_c, 3, 65, 0
2, 4128, Note_on_c, 3, 63, 127
2, 4224, Note_on_c, 3, 65, 127
2, 4227, Note_on_c, 3, 63, 0
2, 4342, Note_on_c, 3, 65, 0
2, 4352, Note_on_c, 3, 63, 127
2, 4493, Note_on_c, 3, 63, 0
2, 4512, Note_on_c, 3, 65, 127
2, 4589, Note_on_c, 3, 65, 0
2, 4608, Note_on_c, 3, 67, 127
2, 4782, Note_on_c, 3, 67, 0
2, 4800, Note_on_c, 3, 65, 125
2, 4896, Note_on_c, 3, 63, 127
2, 4910, Note_on_c, 3, 65, 0
2, 4992, Note_on_c, 3, 65, 127
2, 4995, Note_on_c, 3, 63, 0
2, 5088, Note_on_c, 3, 63, 127
2, 5096, Note_on_c, 3, 65, 0
2, 5164, Note_on_c, 3, 63, 0
2, 5184, Note_on_c, 3, 65, 127
2, 5280, Note_on_c, 3, 63, 127
2, 5299, Note_on_c, 3, 65, 0
2, 5364, Note_on_c, 3, 63, 0
2, 5376, Note_on_c, 3, 67, 127
2, 5494, Note_on_c, 3, 67, 0
2, 5520, Note_on_c, 3, 67, 127
2, 5663, Note_on_c, 3, 67, 0
2, 5664, Note_on_c, 3, 63, 127
2, 5760, Note_on_c, 3, 65, 117
2, 5762, Note_on_c, 3, 63, 0
2, 5856, Note_on_c, 3, 63, 127
2, 5867, Note_on_c, 3, 65, 0
2, 5925, Note_on_c, 3, 63, 0
2, 5952, Note_on_c, 3, 65, 125
2, 6048, Note_on_c, 3, 63, 127
2, 6063, Note_on_c, 3, 65, 0
2, 6144, Note_on_c, 3, 67, 127
2, 6154, Note_on_c, 3, 63, 0
2, 6270, Note_on_c, 3, 67, 0
2, 6288, Note_on_c, 3, 67, 127
2, 6384, Note_on_c, 3, 67, 0
2, 6432, Note_on_c, 3, 67, 117
2, 6497, Note_on_c, 3, 67, 0
2, 6528, Note_on_c, 3, 65, 100
2, 6624, Note_on_c, 3, 63, 119
2, 6629, Note_on_c, 3, 65, 0
2, 6710, Note_on_c, 3, 63, 0
2, 6720, Note_on_c, 3, 60, 117
2, 6774, Note_on_c, 3, 60, 0
2, 6816, Note_on_c, 3, 60, 104
2, 6912, Note_on_c, 3, 63, 119
2, 6919, Note_on_c, 3, 60, 0
2, 7075, Note_on_c, 3, 63, 0
2, 7104, Note_on_c, 3, 60, 125
2, 7148, Note_on_c, 3, 60, 0
2, 7200, Note_on_c, 3, 60, 106
2, 7256, Note_on_c, 3, 60, 0
2, 7296, Note_on_c, 3, 63, 127
2, 7417, Note_on_c, 3, 63, 0
2, 7440, Note_on_c, 3, 60, 110
2, 7571, Note_on_c, 3, 60, 0
2, 7584, Note_on_c, 3, 58, 110
2, 7662, Note_on_c, 3, 58, 0
2, 7680, Note_on_c, 3, 55, 112
2, 7780, Note_on_c, 3, 55, 0
2, 7824, Note_on_c, 3, 55, 110
2, 7949, Note_on_c, 3, 55, 0
2, 7968, Note_on_c, 3, 67, 125
2, 8054, Note_on_c, 3, 67, 0
2, 8064, Note_on_c, 3, 65, 122
2, 8152, Note_on_c, 3, 65, 0
2, 8160, Note_on_c, 3, 63, 127
2, 8256, Note_on_c, 3, 65, 125
2, 8260, Note_on_c, 3, 63, 0
2, 8345, Note_on_c, 3, 65, 0
2, 8352, Note_on_c, 3, 63, 127
2, 8448, Note_on_c, 3, 67, 127
2, 8454, Note_on_c, 3, 63, 0
2, 8574, Note_on_c, 3, 67, 0
2, 8592, Note_on_c, 3, 67, 127
2, 8708, Note_on_c, 3, 67, 0
2, 8736, Note_on_c, 3, 67, 114
2, 8816, Note_on_c, 3, 67, 0
2, 8832, Note_on_c, 3, 65, 110
2, 8918, Note_on_c, 3, 65, 0
2, 8928, Note_on_c, 3, 63, 116
2, 9014, Note_on_c, 3, 63, 0
2, 9024, Note_on_c, 3, 60, 102
2, 9111, Note_on_c, 3, 60, 0
2, 9120, Note_on_c, 3, 58, 127
2, 9201, Note_on_c, 3, 58, 0
2, 9216, Note_on_c, 3, 65, 110
2, 9355, Note_on_c, 3, 65, 0
2, 9408, Note_on_c, 3, 63, 110
2, 9540, Note_on_c, 3, 63, 0
2, 9600, Note_on_c, 3, 60, 112
2, 9820, Note_on_c, 3, 60, 0
2, 9984, Note_on_c, 3, 65, 125
2, 10057, Note_on_c, 3, 65, 0
2, 10080, Note_on_c, 3, 65, 112
2, 10164, Note_on_c, 3, 65, 0
2, 10176, Note_on_c, 3, 65, 127
2, 10272, Note_on_c, 3, 63, 127
2, 10276, Note_on_c, 3, 65, 0
2, 10343, Note_on_c, 3, 63, 0
2, 10368, Note_on_c, 3, 65, 125
2, 10482, Note_on_c, 3, 65, 0
2, 10512, Note_on_c, 3, 65, 127
2, 10618, Note_on_c, 3, 65, 0
2, 10656, Note_on_c, 3, 63, 127
2, 10708, Note_on_c, 3, 63, 0
2, 10752, Note_on_c, 3, 65, 120
2, 10820, Note_on_c, 3, 65, 0
2, 10848, Note_on_c, 3, 65, 127
2, 10927, Note_on_c, 3, 65, 0
2, 10944, Note_on_c, 3, 65, 122
2, 11034, Note_on_c, 3, 65, 0
2, 11040, Note_on_c, 3, 63, 123
2, 11107, Note_on_c, 3, 63, 0
2, 11136, Note_on_c, 3, 65, 120
2, 11259, Note_on_c, 3, 65, 0
2, 11280, Note_on_c, 3, 63, 127
2, 11389, Note_on_c, 3, 63, 0
2, 11424, Note_on_c, 3, 60, 120
2, 11624, Note_on_c, 3, 60, 0
2, 12960, Note_on_c, 3, 60, 125
2, 13056, Note_on_c, 3, 65, 127
2, 13067, Note_on_c, 3, 60, 0
2, 13161, Note_on_c, 3, 65, 0
2, 13248, Note_on_c, 3, 65, 125
2, 13329, Note_on_c, 3, 65, 0
2, 13344, Note_on_c, 3, 63, 119
2, 13408, Note_on_c, 3, 63, 0
2, 13440, Note_on_c, 3, 65, 112
2, 13584, Note_on_c, 3, 65, 0
2, 13632, Note_on_c, 3, 65, 125
2, 13715, Note_on_c, 3, 65, 0
2, 13728, Note_on_c, 3, 63, 113
2, 13810, Note_on_c, 3, 63, 0
2, 13824, Note_on_c, 3, 65, 117
2, 13937, Note_on_c, 3, 65, 0
2, 13968, Note_on_c, 3, 65, 127
2, 14104, Note_on_c, 3, 65, 0
2, 14112, Note_on_c, 3, 63, 127
2, 14183, Note_on_c, 3, 63, 0
2, 14208, Note_on_c, 3, 65, 122
2, 14318, Note_on_c, 3, 65, 0
2, 14352, Note_on_c, 3, 63, 127
2, 14486, Note_on_c, 3, 63, 0
2, 14496, Note_on_c, 3, 60, 127
2, 14732, Note_on_c, 3, 60, 0
2, 15840, Note_on_c, 3, 67, 127
2, 15927, Note_on_c, 3, 67, 0
2, 15936, Note_on_c, 3, 65, 122
2, 16017, Note_on_c, 3, 65, 0
2, 16032, Note_on_c, 3, 63, 127
2, 16117, Note_on_c, 3, 63, 0
2, 16128, Note_on_c, 3, 67, 127
2, 16256, Note_on_c, 3, 65, 127
2, 16273, Note_on_c, 3, 67, 0
2, 16384, Note_on_c, 3, 63, 110
2, 16387, Note_on_c, 3, 65, 0
2, 16496, Note_on_c, 3, 63, 0
2, 16512, Note_on_c, 3, 67, 127
2, 16640, Note_on_c, 3, 65, 122
2, 16659, Note_on_c, 3, 67, 0
2, 16773, Note_on_c, 3, 65, 0
2, 16800, Note_on_c, 3, 63, 123
2, 16920, Note_on_c, 3, 65, 114
2, 16922, Note_on_c, 3, 63, 0
2, 17016, Note_on_c, 3, 67, 117
2, 17025, Note_on_c, 3, 65, 0
2, 17120, Note_on_c, 3, 67, 0
2, 17192, Note_on_c, 3, 67, 122
2, 17280, Note_on_c, 3, 65, 117
2, 17288, Note_on_c, 3, 67, 0
2, 17363, Note_on_c, 3, 65, 0
2, 17376, Note_on_c, 3, 63, 127
2, 17472, Note_on_c, 3, 65, 127
2, 17477, Note_on_c, 3, 63, 0
2, 17563, Note_on_c, 3, 65, 0
2, 17568, Note_on_c, 3, 63, 127
2, 17660, Note_on_c, 3, 63, 0
2, 17664, Note_on_c, 3, 65, 127
2, 17842, Note_on_c, 3, 65, 0
2, 17856, Note_on_c, 3, 67, 120
2, 17935, Note_on_c, 3, 67, 0
2, 17952, Note_on_c, 3, 67, 117
2, 18048, Note_on_c, 3, 65, 112
2, 18051, Note_on_c, 3, 67, 0
2, 18133, Note_on_c, 3, 65, 0
2, 18144, Note_on_c, 3, 63, 116
2, 18232, Note_on_c, 3, 63, 0
2, 18240, Note_on_c, 3, 60, 102
2, 18331, Note_on_c, 3, 60, 0
2, 18336, Note_on_c, 3, 58, 116
2, 18417, Note_on_c, 3, 58, 0
2, 18437, Note_on_c, 3, 65, 108
2, 18572, Note_on_c, 3, 65, 0
2, 18624, Note_on_c, 3, 63, 113
2, 18753, Note_on_c, 3, 63, 0
2, 18816, Note_on_c, 3, 60, 117
2, 19008, Note_on_c, 3, 65, 122
2, 19018, Note_on_c, 3, 60, 0
2, 19104, Note_on_c, 3, 65, 0
2, 19104, Note_on_c, 3, 63, 113
2, 19200, Note_on_c, 3, 65, 125
2, 19204, Note_on_c, 3, 63, 0
2, 19326, Note_on_c, 3, 65, 0
2, 19328, Note_on_c, 3, 67, 120
2, 19451, Note_on_c, 3, 67, 0
2, 19488, Note_on_c, 3, 67, 127
2, 19581, Note_on_c, 3, 67, 0
2, 19584, Note_on_c, 3, 65, 127
2, 19680, Note_on_c, 3, 63, 116
2, 19700, Note_on_c, 3, 65, 0
2, 19776, Note_on_c, 3, 65, 112
2, 19795, Note_on_c, 3, 63, 0
2, 19866, Note_on_c, 3, 65, 0
2, 19872, Note_on_c, 3, 63, 116
2, 19948, Note_on_c, 3, 63, 0
2, 19968, Note_on_c, 3, 65, 122
2, 20084, Note_on_c, 3, 65, 0
2, 20096, Note_on_c, 3, 67, 127
2, 20229, Note_on_c, 3, 67, 0
2, 20264, Note_on_c, 3, 67, 122
2, 20352, Note_on_c, 3, 65, 117
2, 20360, Note_on_c, 3, 67, 0
2, 20435, Note_on_c, 3, 65, 0
2, 20448, Note_on_c, 3, 63, 127
2, 20544, Note_on_c, 3, 65, 127
2, 20549, Note_on_c, 3, 63, 0
2, 20635, Note_on_c, 3, 65, 0
2, 20640, Note_on_c, 3, 63, 127
2, 20732, Note_on_c, 3, 63, 0
2, 20736, Note_on_c, 3, 65, 106
2, 20850, Note_on_c, 3, 65, 0
2, 20864, Note_on_c, 3, 67, 120
2, 20943, Note_on_c, 3, 67, 0
2, 21024, Note_on_c, 3, 67, 117
2, 21120, Note_on_c, 3, 65, 112
2, 21123, Note_on_c, 3, 67, 0
2, 21205, Note_on_c, 3, 65, 0
2, 21216, Note_on_c, 3, 63, 116
2, 21304, Note_on_c, 3, 63, 0
2, 21312, Note_on_c, 3, 60, 102
2, 21403, Note_on_c, 3, 60, 0
2, 21408, Note_on_c, 3, 58, 116
2, 21489, Note_on_c, 3, 58, 0
2, 21509, Note_on_c, 3, 65, 108
2, 21644, Note_on_c, 3, 65, 0
2, 21696, Note_on_c, 3, 63, 113
2, 21825, Note_on_c, 3, 63, 0
2, 21888, Note_on_c, 3, 60, 117
2, 22090, Note_on_c, 3, 60, 0
2, 37536, Note_on_c, 3, 60, 117
2, 37632, Note_on_c, 3, 67, 110
2, 37643, Note_on_c, 3, 60, 0
2, 37820, Note_on_c, 3, 67, 0
2, 37824, Note_on_c, 3, 65, 95
2, 37920, Note_on_c, 3, 63, 107
2, 37937, Note_on_c, 3, 65, 0
2, 38016, Note_on_c, 3, 65, 87
2, 38033, Note_on_c, 3, 63, 0
2, 38133, Note_on_c, 3, 65, 0
2, 38208, Note_on_c, 3, 65, 95
2, 38304, Note_on_c, 3, 63, 101
2, 38321, Note_on_c, 3, 65, 0
2, 38400, Note_on_c, 3, 65, 92
2, 38407, Note_on_c, 3, 63, 0
2, 38520, Note_on_c, 3, 65, 0
2, 38592, Note_on_c, 3, 67, 100
2, 38688, Note_on_c, 3, 63, 80
2, 38711, Note_on_c, 3, 67, 0
2, 38784, Note_on_c, 3, 65, 92
2, 38813, Note_on_c, 3, 63, 0
2, 38880, Note_on_c, 3, 63, 101
2, 38881, Note_on_c, 3, 65, 0
2, 38969, Note_on_c, 3, 63, 0
2, 38976, Note_on_c, 3, 65, 73
2, 39072, Note_on_c, 3, 63, 101
2, 39084, Note_on_c, 3, 65, 0
2, 39168, Note_on_c, 3, 65, 80
2, 39193, Note_on_c, 3, 63, 0
2, 39264, Note_on_c, 3, 67, 92
2, 39269, Note_on_c, 3, 65, 0
2, 39386, Note_on_c, 3, 67, 0
2, 39456, Note_on_c, 3, 67, 102
2, 39552, Note_on_c, 3, 65, 97
2, 39559, Note_on_c, 3, 67, 0
2, 39648, Note_on_c, 3, 63, 87
2, 39663, Note_on_c, 3, 65, 0
2, 39744, Note_on_c, 3, 60, 79
2, 39751, Note_on_c, 3, 63, 0
2, 39840, Note_on_c, 3, 58, 85
2, 39845, Note_on_c, 3, 60, 0
2, 39935, Note_on_c, 3, 58, 0
2, 39936, Note_on_c, 3, 65, 117
2, 40067, Note_on_c, 3, 65, 0
2, 40128, Note_on_c, 3, 63, 113
2, 40257, Note_on_c, 3, 63, 0
2, 40320, Note_on_c, 3, 60, 110
2, 40519, Note_on_c, 3, 60, 0
2, 40608, Note_on_c, 3, 60, 117
2, 40704, Note_on_c, 3, 67, 110
2, 40715, Note_on_c, 3, 60, 0
2, 40892, Note_on_c, 3, 67, 0
2, 40896, Note_on_c, 3, 65, 95
2, 40992, Note_on_c, 3, 63, 107
2, 41009, Note_on_c, 3, 65, 0
2, 41088, Note_on_c, 3, 65, 87
2, 41105, Note_on_c, 3, 63, 0
2, 41205, Note_on_c, 3, 65, 0
2, 41280, Note_on_c, 3, 65, 95
2, 41376, Note_on_c, 3, 63, 101
2, 41393, Note_on_c, 3, 65, 0
2, 41472, Note_on_c, 3, 65, 92
2, 41479, Note_on_c, 3, 63, 0
2, 41592, Note_on_c, 3, 65, 0
2, 41664, Note_on_c, 3, 67, 100
2, 41760, Note_on_c, 3, 63, 80
2, 41783, Note_on_c, 3, 67, 0
2, 41856, Note_on_c, 3, 65, 92
2, 41885, Note_on_c, 3, 63, 0
2, 41952, Note_on_c, 3, 63, 101
2, 41953, Note_on_c, 3, 65, 0
2, 42041, Note_on_c, 3, 63, 0
2, 42048, Note_on_c, 3, 65, 73
2, 42144, Note_on_c, 3, 63, 101
2, 42156, Note_on_c, 3, 65, 0
2, 42240, Note_on_c, 3, 65, 80
2, 42265, Note_on_c, 3, 63, 0
2, 42336, Note_on_c, 3, 67, 92
2, 42341, Note_on_c, 3, 65, 0
2, 42458, Note_on_c, 3, 67, 0
2, 42528, Note_on_c, 3, 67, 102
2, 42624, Note_on_c, 3, 65, 97
2, 42631, Note_on_c, 3, 67, 0
2, 42720, Note_on_c, 3, 63, 87
2, 42735, Note_on_c, 3, 65, 0
2, 42816, Note_on_c, 3, 60, 79
2, 42823, Note_on_c, 3, 63, 0
2, 42912, Note_on_c, 3, 58, 85
2, 42917, Note_on_c, 3, 60, 0
2, 43007, Note_on_c, 3, 58, 0
2, 43008, Note_on_c, 3, 65, 117
2, 43139, Note_on_c, 3, 65, 0
2, 43200, Note_on_c, 3, 63, 113
2, 43329, Note_on_c, 3, 63, 0
2, 43392, Note_on_c, 3, 60, 110
2, 43591, Note_on_c, 3, 60, 0
2, 43680, Note_on_c, 3, 60, 117
2, 43776, Note_on_c, 3, 67, 110
2, 43787, Note_on_c, 3, 60, 0
2, 43964, Note_on_c, 3, 67, 0
2, 43968, Note_on_c, 3, 65, 95
2, 44064, Note_on_c, 3, 63, 107
2, 44081, Note_on_c, 3, 65, 0
2, 44160, Note_on_c, 3, 65, 87
2, 44177, Note_on_c, 3, 63, 0
2, 44277, Note_on_c, 3, 65, 0
2, 44352, Note_on_c, 3, 65, 95
2, 44448, Note_on_c, 3, 63, 101
2, 44465, Note_on_c, 3, 65, 0
2, 44544, Note_on_c, 3, 65, 92
2, 44551, Note_on_c, 3, 63, 0
2, 44664, Note_on_c, 3, 65, 0
2, 44736, Note_on_c, 3, 67, 100
2, 44832, Note_on_c, 3, 63, 80
2, 44855, Note_on_c, 3, 67, 0
2, 44928, Note_on_c, 3, 65, 92
2, 44957, Note_on_c, 3, 63, 0
2, 45024, Note_on_c, 3, 63, 101
2, 45025, Note_on_c, 3, 65, 0
2, 45113, Note_on_c, 3, 63, 0
2, 45120, Note_on_c, 3, 65, 73
2, 45216, Note_on_c, 3, 63, 101
2, 45228, Note_on_c, 3, 65, 0
2, 45312, Note_on_c, 3, 65, 80
2, 45337, Note_on_c, 3, 63, 0
2, 45408, Note_on_c, 3, 67, 92
2, 45413, Note_on_c, 3, 65, 0
2, 45530, Note_on_c, 3, 67, 0
2, 45600, Note_on_c, 3, 67, 102
2, 45696, Note_on_c, 3, 65, 97
2, 45703, Note_on_c, 3, 67, 0
2, 45792, Note_on_c, 3, 63, 87
2, 45807, Note_on_c, 3, 65, 0
2, 45888, Note_on_c, 3, 60, 79
2, 45895, Note_on_c, 3, 63, 0
2, 45984, Note_on_c, 3, 58, 85
2, 45989, Note_on_c, 3, 60, 0
2, 46079, Note_on_c, 3, 58, 0
2, 46080, Note_on_c, 3, 65, 117
2, 46211, Note_on_c, 3, 65, 0
2, 46272, Note_on_c, 3, 63, 113
2, 46401, Note_on_c, 3, 63, 0
2, 46464, Note_on_c, 3, 60, 110
2, 46663, Note_on_c, 3, 60, 0
2, 46752, Note_on_c, 3, 60, 117
2, 46848, Note_on_c, 3, 67, 110
2, 46859, Note_on_c, 3, 60, 0
2, 47036, Note_on_c, 3, 67, 0
2, 47040, Note_on_c, 3, 65, 95
2, 47136, Note_on_c, 3, 63, 107
2, 47153, Note_on_c, 3, 65, 0
2, 47232, Note_on_c, 3, 65, 87
2, 47249, Note_on_c, 3, 63, 0
2, 47349, Note_on_c, 3, 65, 0
2, 47424, Note_on_c, 3, 65, 95
2, 47520, Note_on_c, 3, 63, 101
2, 47537, Note_on_c, 3, 65, 0
2, 47616, Note_on_c, 3, 65, 92
2, 47623, Note_on_c, 3, 63, 0
2, 47736, Note_on_c, 3, 65, 0
2, 47808, Note_on_c, 3, 67, 100
2, 47904, Note_on_c, 3, 63, 80
2, 47927, Note_on_c, 3, 67, 0
2, 48000, Note_on_c, 3, 65, 92
2, 48029, Note_on_c, 3, 63, 0
2, 48096, Note_on_c, 3, 63, 101
2, 48097, Note_on_c, 3, 65, 0
2, 48185, Note_on_c, 3, 63, 0
2, 48192, Note_on_c, 3, 65, 73
2, 48288, Note_on_c, 3, 63, 119
2, 48300, Note_on_c, 3, 65, 0
2, 48384, Note_on_c, 3, 65, 127
2, 48394, Note_on_c, 3, 63, 0
2, 48443, Note_on_c, 3, 65, 0
2, 48480, Note_on_c, 3, 67, 127
2, 48614, Note_on_c, 3, 67, 0
2, 48672, Note_on_c, 3, 67, 125
2, 48758, Note_on_c, 3, 67, 0
2, 48768, Note_on_c, 3, 65, 122
2, 48864, Note_on_c, 3, 63, 127
2, 48892, Note_on_c, 3, 65, 0
2, 48960, Note_on_c, 3, 65, 127
2, 48967, Note_on_c, 3, 63, 0
2, 49056, Note_on_c, 3, 63, 127
2, 49057, Note_on_c, 3, 65, 0
2, 49139, Note_on_c, 3, 63, 0
2, 49152, Note_on_c, 3, 65, 127
2, 49264, Note_on_c, 3, 65, 0
2, 49296, Note_on_c, 3, 65, 127
2, 49403, Note_on_c, 3, 65, 0
2, 49440, Note_on_c, 3, 67, 127
2, 49516, Note_on_c, 3, 67, 0
2, 49536, Note_on_c, 3, 65, 127
2, 49674, Note_on_c, 3, 65, 0
2, 49728, Note_on_c, 3, 63, 127
2, 49880, Note_on_c, 3, 63, 0
2, 59136, Note_on_c, 3, 65, 125
2, 59209, Note_on_c, 3, 65, 0
2, 59232, Note_on_c, 3, 65, 112
2, 59316, Note_on_c, 3, 65, 0
2, 59328, Note_on_c, 3, 65, 127
2, 59424, Note_on_c, 3, 63, 127
2, 59428, Note_on_c, 3, 65, 0
2, 59495, Note_on_c, 3, 63, 0
2, 59520, Note_on_c, 3, 65, 125
2, 59634, Note_on_c, 3, 65, 0
2, 59664, Note_on_c, 3, 65, 127
2, 59770, Note_on_c, 3, 65, 0
2, 59808, Note_on_c, 3, 63, 127
2, 59860, Note_on_c, 3, 63, 0
2, 59904, Note_on_c, 3, 65, 120
2, 59972, Note_on_c, 3, 65, 0
2, 60000, Note_on_c, 3, 65, 127
2, 60079, Note_on_c, 3, 65, 0
2, 60096, Note_on_c, 3, 65, 122
2, 60186, Note_on_c, 3, 65, 0
2, 60192, Note_on_c, 3, 63, 123
2, 60259, Note_on_c, 3, 63, 0
2, 60288, Note_on_c, 3, 65, 120
2, 60411, Note_on_c, 3, 65, 0
2, 60432, Note_on_c, 3, 63, 127
2, 60541, Note_on_c, 3, 63, 0
2, 60576, Note_on_c, 3, 60, 120
2, 60776, Note_on_c, 3, 60, 0
2, 62112, Note_on_c, 3, 60, 125
2, 62208, Note_on_c, 3, 65, 127
2, 62219, Note_on_c, 3, 60, 0
2, 62313, Note_on_c, 3, 65, 0
2, 62400, Note_on_c, 3, 65, 125
2, 62481, Note_on_c, 3, 65, 0
2, 62496, Note_on_c, 3, 63, 119
2, 62560, Note_on_c, 3, 63, 0
2, 62592, Note_on_c, 3, 65, 112
2, 62736, Note_on_c, 3, 65, 0
2, 62784, Note_on_c, 3, 65, 125
2, 62867, Note_on_c, 3, 65, 0
2, 62880, Note_on_c, 3, 63, 113
2, 62962, Note_on_c, 3, 63, 0
2, 62976, Note_on_c, 3, 65, 117
2, 63089, Note_on_c, 3, 65, 0
2, 63120, Note_on_c, 3, 65, 127
2, 63256, Note_on_c, 3, 65, 0
2, 63264, Note_on_c, 3, 63, 127
2, 63335, Note_on_c, 3, 63, 0
2, 63360, Note_on_c, 3, 65, 122
2, 63470, Note_on_c, 3, 65, 0
2, 63504, Note_on_c, 3, 63, 127
2, 63638, Note_on_c, 3, 63, 0
2, 63648, Note_on_c, 3, 60, 127
2, 63884, Note_on_c, 3, 60, 0
2, 63884, End_track
3, 0, Start_track
3, 0, Title_t, "BACKTRACK"
3, 0, Channel_prefix, 4
3, 192, Control_c, 4, 91, 104
3, 384, Control_c, 4, 93, 28
3, 672, Program_c, 4, 65
3, 40608, Note_on_c, 4, 63, 117
3, 40704, Note_on_c, 4, 70, 110
3, 40715, Note_on_c, 4, 63, 0
3, 40892, Note_on_c, 4, 70, 0
3, 40896, Note_on_c, 4, 68, 95
3, 40992, Note_on_c, 4, 67, 107
3, 41009, Note_on_c, 4, 68, 0
3, 41088, Note_on_c, 4, 68, 87
3, 41105, Note_on_c, 4, 67, 0
3, 41205, Note_on_c, 4, 68, 0
3, 41280, Note_on_c, 4, 68, 95
3, 41376, Note_on_c, 4, 67, 101
3, 41393, Note_on_c, 4, 68, 0
3, 41472, Note_on_c, 4, 68, 92
3, 41479, Note_on_c, 4, 67, 0
3, 41592, Note_on_c, 4, 68, 0
3, 41664, Note_on_c, 4, 70, 100
3, 41760, Note_on_c, 4, 67, 80
3, 41783, Note_on_c, 4, 70, 0
3, 41856, Note_on_c, 4, 68, 92
3, 41885, Note_on_c, 4, 67, 0
3, 41952, Note_on_c, 4, 67, 101
3, 41953, Note_on_c, 4, 68, 0
3, 42041, Note_on_c, 4, 67, 0
3, 42048, Note_on_c, 4, 68, 73
3, 42144, Note_on_c, 4, 67, 101
3, 42156, Note_on_c, 4, 68, 0
3, 42240, Note_on_c, 4, 68, 80
3, 42265, Note_on_c, 4, 67, 0
3, 42336, Note_on_c, 4, 70, 92
3, 42341, Note_on_c, 4, 68, 0
3, 42458, Note_on_c, 4, 70, 0
3, 42528, Note_on_c, 4, 70, 102
3, 42624, Note_on_c, 4, 68, 97
3, 42631, Note_on_c, 4, 70, 0
3, 42720, Note_on_c, 4, 67, 87
3, 42735, Note_on_c, 4, 68, 0
3, 42816, Note_on_c, 4, 68, 79
3, 42823, Note_on_c, 4, 67, 0
3, 42912, Note_on_c, 4, 67, 85
3, 42917, Note_on_c, 4, 68, 0
3, 43007, Note_on_c, 4, 67, 0
3, 43008, Note_on_c, 4, 68, 117
3, 43139, Note_on_c, 4, 68, 0
3, 43200, Note_on_c, 4, 67, 113
3, 43329, Note_on_c, 4, 67, 0
3, 43392, Note_on_c, 4, 63, 110
3, 43591, Note_on_c, 4, 63, 0
3, 43680, Note_on_c, 4, 63, 117
3, 43680, Note_on_c, 4, 60, 117
3, 43776, Note_on_c, 4, 60, 110
3, 43776, Note_on_c, 4, 70, 110
3, 43787, Note_on_c, 4, 63, 0
3, 43787, Note_on_c, 4, 60, 0
3, 43964, Note_on_c, 4, 60, 0
3, 43964, Note_on_c, 4, 70, 0
3, 43968, Note_on_c, 4, 60, 95
3, 43968, Note_on_c, 4, 68, 95
3, 44064, Note_on_c, 4, 67, 107
3, 44064, Note_on_c, 4, 60, 107
3, 44081, Note_on_c, 4, 60, 0
3, 44081, Note_on_c, 4, 68, 0
3, 44160, Note_on_c, 4, 68, 87
3, 44160, Note_on_c, 4, 60, 87
3, 44177, Note_on_c, 4, 67, 0
3, 44177, Note_on_c, 4, 60, 0
3, 44277, Note_on_c, 4, 68, 0
3, 44277, Note_on_c, 4, 60, 0
3, 44352, Note_on_c, 4, 68, 95
3, 44352, Note_on_c, 4, 60, 95
3, 44448, Note_on_c, 4, 60, 101
3, 44448, Note_on_c, 4, 67, 101
3, 44465, Note_on_c, 4, 68, 0
3, 44465, Note_on_c, 4, 60, 0
3, 44544, Note_on_c, 4, 68, 92
3, 44544, Note_on_c, 4, 62, 92
3, 44551, Note_on_c, 4, 60, 0
3, 44551, Note_on_c, 4, 67, 0
3, 44664, Note_on_c, 4, 68, 0
3, 44664, Note_on_c, 4, 62, 0
3, 44736, Note_on_c, 4, 62, 100
3, 44736, Note_on_c, 4, 70, 100
3, 44832, Note_on_c, 4, 67, 80
3, 44832, Note_on_c, 4, 62, 80
3, 44855, Note_on_c, 4, 62, 0
3, 44855, Note_on_c, 4, 70, 0
3, 44928, Note_on_c, 4, 62, 92
3, 44928, Note_on_c, 4, 68, 92
3, 44957, Note_on_c, 4, 67, 0
3, 44957, Note_on_c, 4, 62, 0
3, 45024, Note_on_c, 4, 67, 101
3, 45024, Note_on_c, 4, 62, 101
3, 45025, Note_on_c, 4, 62, 0
3, 45025, Note_on_c, 4, 68, 0
3, 45113, Note_on_c, 4, 67, 0
3, 45113, Note_on_c, 4, 62, 0
3, 45120, Note_on_c, 4, 68, 73
3, 45120, Note_on_c, 4, 62, 73
3, 45216, Note_on_c, 4, 67, 101
3, 45216, Note_on_c, 4, 62, 101
3, 45228, Note_on_c, 4, 68, 0
3, 45228, Note_on_c, 4, 62, 0
3, 45312, Note_on_c, 4, 63, 80
3, 45312, Note_on_c, 4, 68, 80
3, 45337, Note_on_c, 4, 67, 0
3, 45337, Note_on_c, 4, 62, 0
3, 45408, Note_on_c, 4, 63, 92
3, 45413, Note_on_c, 4, 63, 0
3, 45413, Note_on_c, 4, 68, 0
3, 45530, Note_on_c, 4, 63, 0
3, 45600, Note_on_c, 4, 63, 102
3, 45696, Note_on_c, 4, 68, 97
3, 45696, Note_on_c, 4, 62, 97
3, 45703, Note_on_c, 4, 63, 0
3, 45792, Note_on_c, 4, 60, 87
3, 45792, Note_on_c, 4, 67, 87
3, 45807, Note_on_c, 4, 68, 0
3, 45807, Note_on_c, 4, 62, 0
3, 45888, Note_on_c, 4, 62, 97
3, 45888, Note_on_c, 4, 68, 79
3, 45895, Note_on_c, 4, 60, 0
3, 45895, Note_on_c, 4, 67, 0
3, 45984, Note_on_c, 4, 60, 87
3, 45984, Note_on_c, 4, 67, 85
3, 45989, Note_on_c, 4, 68, 0
3, 45999, Note_on_c, 4, 62, 0
3, 46079, Note_on_c, 4, 67, 0
3, 46080, Note_on_c, 4, 62, 97
3, 46080, Note_on_c, 4, 68, 117
3, 46087, Note_on_c, 4, 60, 0
3, 46191, Note_on_c, 4, 62, 0
3, 46211, Note_on_c, 4, 68, 0
3, 46272, Note_on_c, 4, 60, 113
3, 46272, Note_on_c, 4, 67, 113
3, 46401, Note_on_c, 4, 60, 0
3, 46401, Note_on_c, 4, 67, 0
3, 46464, Note_on_c, 4, 55, 110
3, 46464, Note_on_c, 4, 63, 110
3, 46663, Note_on_c, 4, 55, 0
3, 46663, Note_on_c, 4, 63, 0
3, 46752, Note_on_c, 4, 63, 117
3, 46752, Note_on_c, 4, 60, 117
3, 46848, Note_on_c, 4, 60, 110
3, 46848, Note_on_c, 4, 70, 110
3, 46859, Note_on_c, 4, 63, 0
3, 46859, Note_on_c, 4, 60, 0
3, 47036, Note_on_c, 4, 60, 0
3, 47036, Note_on_c, 4, 70, 0
3, 47040, Note_on_c, 4, 68, 95
3, 47040, Note_on_c, 4, 60, 95
3, 47136, Note_on_c, 4, 60, 107
3, 47136, Note_on_c, 4, 67, 107
3, 47153, Note_on_c, 4, 68, 0
3, 47153, Note_on_c, 4, 60, 0
3, 47232, Note_on_c, 4, 63, 87
3, 47232, Note_on_c, 4, 68, 87
3, 47249, Note_on_c, 4, 60, 0
3, 47249, Note_on_c, 4, 67, 0
3, 47349, Note_on_c, 4, 63, 0
3, 47349, Note_on_c, 4, 68, 0
3, 47424, Note_on_c, 4, 68, 95
3, 47424, Note_on_c, 4, 62, 95
3, 47520, Note_on_c, 4, 67, 101
3, 47520, Note_on_c, 4, 60, 101
3, 47537, Note_on_c, 4, 68, 0
3, 47537, Note_on_c, 4, 62, 0
3, 47616, Note_on_c, 4, 68, 92
3, 47616, Note_on_c, 4, 62, 92
3, 47623, Note_on_c, 4, 67, 0
3, 47623, Note_on_c, 4, 60, 0
3, 47736, Note_on_c, 4, 68, 0
3, 47736, Note_on_c, 4, 62, 0
3, 47808, Note_on_c, 4, 63, 100
3, 47808, Note_on_c, 4, 70, 100
3, 47904, Note_on_c, 4, 67, 80
3, 47904, Note_on_c, 4, 60, 80
3, 47927, Note_on_c, 4, 63, 0
3, 47927, Note_on_c, 4, 70, 0
3, 48000, Note_on_c, 4, 68, 92
3, 48000, Note_on_c, 4, 62, 92
3, 48029, Note_on_c, 4, 67, 0
3, 48029, Note_on_c, 4, 60, 0
3, 48096, Note_on_c, 4, 60, 101
3, 48096, Note_on_c, 4, 67, 101
3, 48097, Note_on_c, 4, 68, 0
3, 48097, Note_on_c, 4, 62, 0
3, 48185, Note_on_c, 4, 60, 0
3, 48185, Note_on_c, 4, 67, 0
3, 48192, Note_on_c, 4, 68, 73
3, 48192, Note_on_c, 4, 62, 73
3, 48288, Note_on_c, 4, 67, 73
3, 48288, Note_on_c, 4, 60, 73
3, 48300, Note_on_c, 4, 68, 0
3, 48300, Note_on_c, 4, 62, 0
3, 48384, Note_on_c, 4, 62, 110
3, 48384, Note_on_c, 4, 68, 110
3, 48396, Note_on_c, 4, 67, 0
3, 48396, Note_on_c, 4, 60, 0
3, 48480, Note_on_c, 4, 63, 119
3, 48480, Note_on_c, 4, 70, 119
3, 48512, Note_on_c, 4, 62, 0
3, 48512, Note_on_c, 4, 68, 0
3, 48567, Note_on_c, 4, 63, 0
3, 48567, Note_on_c, 4, 70, 0
3, 48672, Note_on_c, 4, 70, 127
3, 48672, Note_on_c, 4, 63, 127
3, 48768, Note_on_c, 4, 62, 97
3, 48768, Note_on_c, 4, 68, 97
3, 48793, Note_on_c, 4, 70, 0
3, 48793, Note_on_c, 4, 63, 0
3, 48864, Note_on_c, 4, 60, 112
3, 48864, Note_on_c, 4, 67, 112
3, 48874, Note_on_c, 4, 62, 0
3, 48874, Note_on_c, 4, 68, 0
3, 48960, Note_on_c, 4, 62, 116
3, 48960, Note_on_c, 4, 68, 116
3, 48972, Note_on_c, 4, 60, 0
3, 48972, Note_on_c, 4, 67, 0
3, 49056, Note_on_c, 4, 60, 114
3, 49056, Note_on_c, 4, 67, 114
3, 49063, Note_on_c, 4, 62, 0
3, 49063, Note_on_c, 4, 68, 0
3, 49150, Note_on_c, 4, 60, 0
3, 49150, Note_on_c, 4, 67, 0
3, 49152, Note_on_c, 4, 68, 127
3, 49152, Note_on_c, 4, 62, 127
3, 49260, Note_on_c, 4, 68, 0
3, 49260, Note_on_c, 4, 62, 0
3, 49296, Note_on_c, 4, 68, 127
3, 49296, Note_on_c, 4, 62, 127
3, 49400, Note_on_c, 4, 68, 0
3, 49400, Note_on_c, 4, 62, 0
3, 49440, Note_on_c, 4, 70, 127
3, 49440, Note_on_c, 4, 63, 127
3, 49536, Note_on_c, 4, 68, 127
3, 49536, Note_on_c, 4, 62, 127
3, 49553, Note_on_c, 4, 70, 0
3, 49553, Note_on_c, 4, 63, 0
3, 49667, Note_on_c, 4, 68, 0
3, 49667, Note_on_c, 4, 62, 0
3, 49728, Note_on_c, 4, 60, 125
3, 49728, Note_on_c, 4, 67, 125
3, 49879, Note_on_c, 4, 60, 0
3, 49879, Note_on_c, 4, 67, 0
3, 49879, End_track
4, 0, Start_track
4, 0, Title_t, "BASS"
4, 0, Channel_prefix, 0
4, 384, Control_c, 0, 7, 110
4, 384, Control_c, 0, 0, 64
4, 384, Control_c, 0, 91, 0
4, 384, Control_c, 0, 93, 0
4, 384, Control_c, 0, 10, 64
4, 576, Control_c, 0, 11, 127
4, 576, Program_c, 0, 33
4, 768, Note_on_c, 0, 48, 110
4, 768, Pitch_bend_c, 0, 8192
4, 3840, Note_on_c, 0, 36, 110
4, 3840, Note_on_c, 0, 48, 0
4, 3923, Note_on_c, 0, 36, 0
4, 3936, Note_on_c, 0, 36, 110
4, 4019, Note_on_c, 0, 36, 0
4, 4032, Note_on_c, 0, 36, 110
4, 4115, Note_on_c, 0, 36, 0
4, 4128, Note_on_c, 0, 39, 110
4, 4208, Note_on_c, 0, 39, 0
4, 4224, Note_on_c, 0, 43, 110
4, 4312, Note_on_c, 0, 43, 0
4, 4368, Note_on_c, 0, 43, 110
4, 4448, Note_on_c, 0, 43, 0
4, 4512, Note_on_c, 0, 46, 110
4, 4595, Note_on_c, 0, 46, 0
4, 4608, Note_on_c, 0, 48, 110
4, 4691, Note_on_c, 0, 48, 0
4, 4704, Note_on_c, 0, 48, 110
4, 4787, Note_on_c, 0, 48, 0
4, 4800, Note_on_c, 0, 48, 110
4, 4883, Note_on_c, 0, 48, 0
4, 4896, Note_on_c, 0, 46, 110
4, 4968, Note_on_c, 0, 46, 0
4, 4992, Note_on_c, 0, 43, 110
4, 5072, Note_on_c, 0, 43, 0
4, 5136, Note_on_c, 0, 43, 110
4, 5208, Note_on_c, 0, 43, 0
4, 5280, Note_on_c, 0, 43, 110
4, 5363, Note_on_c, 0, 43, 0
4, 5376, Note_on_c, 0, 36, 110
4, 5459, Note_on_c, 0, 36, 0
4, 5472, Note_on_c, 0, 36, 110
4, 5555, Note_on_c, 0, 36, 0
4, 5568, Note_on_c, 0, 36, 110
4, 5651, Note_on_c, 0, 36, 0
4, 5664, Note_on_c, 0, 39, 110
4, 5747, Note_on_c, 0, 39, 0
4, 5760, Note_on_c, 0, 43, 110
4, 5848, Note_on_c, 0, 43, 0
4, 5904, Note_on_c, 0, 43, 110
4, 5992, Note_on_c, 0, 43, 0
4, 6048, Note_on_c, 0, 46, 110
4, 6131, Note_on_c, 0, 46, 0
4, 6144, Note_on_c, 0, 48, 110
4, 6227, Note_on_c, 0, 48, 0
4, 6240, Note_on_c, 0, 48, 110
4, 6323, Note_on_c, 0, 48, 0
4, 6336, Note_on_c, 0, 48, 110
4, 6419, Note_on_c, 0, 48, 0
4, 6432, Note_on_c, 0, 46, 110
4, 6515, Note_on_c, 0, 46, 0
4, 6528, Note_on_c, 0, 43, 110
4, 6616, Note_on_c, 0, 43, 0
4, 6672, Note_on_c, 0, 43, 110
4, 6760, Note_on_c, 0, 43, 0
4, 6816, Note_on_c, 0, 43, 110
4, 6899, Note_on_c, 0, 43, 0
4, 6912, Note_on_c, 0, 36, 110
4, 6995, Note_on_c, 0, 36, 0
4, 7008, Note_on_c, 0, 36, 110
4, 7091, Note_on_c, 0, 36, 0
4, 7104, Note_on_c, 0, 36, 110
4, 7187, Note_on_c, 0, 36, 0
4, 7200, Note_on_c, 0, 39, 110
4, 7283, Note_on_c, 0, 39, 0
4, 7296, Note_on_c, 0, 43, 110
4, 7384, Note_on_c, 0, 43, 0
4, 7440, Note_on_c, 0, 43, 110
4, 7512, Note_on_c, 0, 43, 0
4, 7584, Note_on_c, 0, 46, 110
4, 7667, Note_on_c, 0, 46, 0
4, 7680, Note_on_c, 0, 48, 110
4, 7763, Note_on_c, 0, 48, 0
4, 7776, Note_on_c, 0, 48, 110
4, 7859, Note_on_c, 0, 48, 0
4, 7872, Note_on_c, 0, 48, 110
4, 7955, Note_on_c, 0, 48, 0
4, 7968, Note_on_c, 0, 46, 110
4, 8051, Note_on_c, 0, 46, 0
4, 8064, Note_on_c, 0, 43, 110
4, 8144, Note_on_c, 0, 43, 0
4, 8208, Note_on_c, 0, 43, 110
4, 8288, Note_on_c, 0, 43, 0
4, 8352, Note_on_c, 0, 43, 110
4, 8435, Note_on_c, 0, 43, 0
4, 8448, Note_on_c, 0, 36, 110
4, 8531, Note_on_c, 0, 36, 0
4, 8544, Note_on_c, 0, 36, 110
4, 8627, Note_on_c, 0, 36, 0
4, 8640, Note_on_c, 0, 36, 110
4, 8723, Note_on_c, 0, 36, 0
4, 8736, Note_on_c, 0, 39, 110
4, 8819, Note_on_c, 0, 39, 0
4, 8832, Note_on_c, 0, 43, 110
4, 8912, Note_on_c, 0, 43, 0
4, 8976, Note_on_c, 0, 43, 110
4, 9056, Note_on_c, 0, 43, 0
4, 9120, Note_on_c, 0, 46, 110
4, 9203, Note_on_c, 0, 46, 0
4, 9216, Note_on_c, 0, 48, 110
4, 9299, Note_on_c, 0, 48, 0
4, 9312, Note_on_c, 0, 48, 110
4, 9395, Note_on_c, 0, 48, 0
4, 9408, Note_on_c, 0, 48, 110
4, 9491, Note_on_c, 0, 48, 0
4, 9504, Note_on_c, 0, 46, 110
4, 9587, Note_on_c, 0, 46, 0
4, 9600, Note_on_c, 0, 43, 110
4, 9680, Note_on_c, 0, 43, 0
4, 9744, Note_on_c, 0, 43, 110
4, 9816, Note_on_c, 0, 43, 0
4, 9888, Note_on_c, 0, 43, 110
4, 9971, Note_on_c, 0, 43, 0
4, 9984, Note_on_c, 0, 41, 110
4, 10160, Note_on_c, 0, 41, 0
4, 10176, Note_on_c, 0, 41, 110
4, 10259, Note_on_c, 0, 41, 0
4, 10272, Note_on_c, 0, 41, 110
4, 10355, Note_on_c, 0, 41, 0
4, 10368, Note_on_c, 0, 41, 110
4, 10451, Note_on_c, 0, 41, 0
4, 10464, Note_on_c, 0, 39, 110
4, 10587, Note_on_c, 0, 39, 0
4, 10656, Note_on_c, 0, 36, 110
4, 10739, Note_on_c, 0, 36, 0
4, 10752, Note_on_c, 0, 41, 110
4, 10835, Note_on_c, 0, 41, 0
4, 10848, Note_on_c, 0, 41, 110
4, 10931, Note_on_c, 0, 41, 0
4, 10944, Note_on_c, 0, 41, 110
4, 11027, Note_on_c, 0, 41, 0
4, 11040, Note_on_c, 0, 41, 110
4, 11123, Note_on_c, 0, 41, 0
4, 11136, Note_on_c, 0, 41, 110
4, 11219, Note_on_c, 0, 41, 0
4, 11232, Note_on_c, 0, 39, 110
4, 11355, Note_on_c, 0, 39, 0
4, 11424, Note_on_c, 0, 36, 110
4, 11507, Note_on_c, 0, 36, 0
4, 11520, Note_on_c, 0, 36, 110
4, 11624, Note_on_c, 0, 36, 0
4, 11648, Note_on_c, 0, 36, 110
4, 11760, Note_on_c, 0, 36, 0
4, 11776, Note_on_c, 0, 39, 110
4, 11904, Note_on_c, 0, 42, 110
4, 11904, Note_on_c, 0, 39, 0
4, 12000, Note_on_c, 0, 42, 0
4, 12032, Note_on_c, 0, 42, 110
4, 12128, Note_on_c, 0, 42, 0
4, 12160, Note_on_c, 0, 42, 110
4, 12256, Note_on_c, 0, 42, 0
4, 12288, Note_on_c, 0, 36, 110
4, 12392, Note_on_c, 0, 36, 0
4, 12416, Note_on_c, 0, 36, 110
4, 12528, Note_on_c, 0, 36, 0
4, 12544, Note_on_c, 0, 39, 110
4, 12672, Note_on_c, 0, 42, 110
4, 12672, Note_on_c, 0, 39, 0
4, 12768, Note_on_c, 0, 42, 0
4, 12800, Note_on_c, 0, 42, 110
4, 12888, Note_on_c, 0, 42, 0
4, 12928, Note_on_c, 0, 42, 110
4, 13016, Note_on_c, 0, 42, 0
4, 13056, Note_on_c, 0, 41, 110
4, 13232, Note_on_c, 0, 41, 0
4, 13248, Note_on_c, 0, 41, 110
4, 13331, Note_on_c, 0, 41, 0
4, 13344, Note_on_c, 0, 41, 110
4, 13427, Note_on_c, 0, 41, 0
4, 13440, Note_on_c, 0, 41, 110
4, 13523, Note_on_c, 0, 41, 0
4, 13568, Note_on_c, 0, 39, 110
4, 13691, Note_on_c, 0, 39, 0
4, 13728, Note_on_c, 0, 36, 110
4, 13811, Note_on_c, 0, 36, 0
4, 13824, Note_on_c, 0, 41, 110
4, 13907, Note_on_c, 0, 41, 0
4, 13920, Note_on_c, 0, 41, 110
4, 14003, Note_on_c, 0, 41, 0
4, 14016, Note_on_c, 0, 41, 110
4, 14099, Note_on_c, 0, 41, 0
4, 14112, Note_on_c, 0, 41, 110
4, 14195, Note_on_c, 0, 41, 0
4, 14208, Note_on_c, 0, 41, 110
4, 14291, Note_on_c, 0, 41, 0
4, 14336, Note_on_c, 0, 39, 110
4, 14459, Note_on_c, 0, 39, 0
4, 14496, Note_on_c, 0, 36, 110
4, 14579, Note_on_c, 0, 36, 0
4, 14592, Note_on_c, 0, 36, 110
4, 14696, Note_on_c, 0, 36, 0
4, 14720, Note_on_c, 0, 36, 110
4, 14824, Note_on_c, 0, 36, 0
4, 14848, Note_on_c, 0, 39, 110
4, 14960, Note_on_c, 0, 39, 0
4, 14976, Note_on_c, 0, 34, 110
4, 15144, Note_on_c, 0, 34, 0
4, 15168, Note_on_c, 0, 34, 110
4, 15251, Note_on_c, 0, 34, 0
4, 15264, Note_on_c, 0, 34, 110
4, 15347, Note_on_c, 0, 34, 0
4, 15360, Note_on_c, 0, 32, 110
4, 15443, Note_on_c, 0, 32, 0
4, 15456, Note_on_c, 0, 32, 110
4, 15539, Note_on_c, 0, 32, 0
4, 15552, Note_on_c, 0, 32, 110
4, 15635, Note_on_c, 0, 32, 0
4, 15648, Note_on_c, 0, 31, 110
4, 15731, Note_on_c, 0, 31, 0
4, 16128, Note_on_c, 0, 36, 110
4, 16211, Note_on_c, 0, 36, 0
4, 16224, Note_on_c, 0, 36, 110
4, 16307, Note_on_c, 0, 36, 0
4, 16320, Note_on_c, 0, 36, 110
4, 16403, Note_on_c, 0, 36, 0
4, 16416, Note_on_c, 0, 39, 110
4, 16499, Note_on_c, 0, 39, 0
4, 16512, Note_on_c, 0, 43, 110
4, 16592, Note_on_c, 0, 43, 0
4, 16656, Note_on_c, 0, 43, 110
4, 16760, Note_on_c, 0, 43, 0
4, 16800, Note_on_c, 0, 46, 110
4, 16864, Note_on_c, 0, 46, 0
4, 16896, Note_on_c, 0, 48, 110
4, 16979, Note_on_c, 0, 48, 0
4, 16992, Note_on_c, 0, 48, 110
4, 17075, Note_on_c, 0, 48, 0
4, 17088, Note_on_c, 0, 48, 110
4, 17171, Note_on_c, 0, 48, 0
4, 17184, Note_on_c, 0, 46, 110
4, 17267, Note_on_c, 0, 46, 0
4, 17280, Note_on_c, 0, 43, 110
4, 17368, Note_on_c, 0, 43, 0
4, 17424, Note_on_c, 0, 43, 110
4, 17520, Note_on_c, 0, 43, 0
4, 17568, Note_on_c, 0, 43, 110
4, 17632, Note_on_c, 0, 43, 0
4, 17664, Note_on_c, 0, 36, 110
4, 17747, Note_on_c, 0, 36, 0
4, 17760, Note_on_c, 0, 36, 110
4, 17843, Note_on_c, 0, 36, 0
4, 17856, Note_on_c, 0, 36, 110
4, 17939, Note_on_c, 0, 36, 0
4, 17952, Note_on_c, 0, 39, 110
4, 18019, Note_on_c, 0, 39, 0
4, 18048, Note_on_c, 0, 43, 110
4, 18128, Note_on_c, 0, 43, 0
4, 18192, Note_on_c, 0, 43, 110
4, 18304, Note_on_c, 0, 43, 0
4, 18336, Note_on_c, 0, 46, 110
4, 18408, Note_on_c, 0, 46, 0
4, 18432, Note_on_c, 0, 48, 110
4, 18515, Note_on_c, 0, 48, 0
4, 18528, Note_on_c, 0, 48, 110
4, 18611, Note_on_c, 0, 48, 0
4, 18624, Note_on_c, 0, 48, 110
4, 18707, Note_on_c, 0, 48, 0
4, 18720, Note_on_c, 0, 46, 110
4, 18803, Note_on_c, 0, 46, 0
4, 18816, Note_on_c, 0, 43, 110
4, 18904, Note_on_c, 0, 43, 0
4, 18960, Note_on_c, 0, 43, 110
4, 19064, Note_on_c, 0, 43, 0
4, 19104, Note_on_c, 0, 43, 110
4, 19168, Note_on_c, 0, 43, 0
4, 19200, Note_on_c, 0, 36, 110
4, 19283, Note_on_c, 0, 36, 0
4, 19296, Note_on_c, 0, 36, 110
4, 19379, Note_on_c, 0, 36, 0
4, 19392, Note_on_c, 0, 36, 110
4, 19475, Note_on_c, 0, 36, 0
4, 19488, Note_on_c, 0, 39, 110
4, 19571, Note_on_c, 0, 39, 0
4, 19584, Note_on_c, 0, 43, 110
4, 19664, Note_on_c, 0, 43, 0
4, 19728, Note_on_c, 0, 43, 110
4, 19816, Note_on_c, 0, 43, 0
4, 19872, Note_on_c, 0, 46, 110
4, 19936, Note_on_c, 0, 46, 0
4, 19968, Note_on_c, 0, 48, 110
4, 20051, Note_on_c, 0, 48, 0
4, 20064, Note_on_c, 0, 48, 110
4, 20147, Note_on_c, 0, 48, 0
4, 20160, Note_on_c, 0, 48, 110
4, 20243, Note_on_c, 0, 48, 0
4, 20256, Note_on_c, 0, 46, 110
4, 20339, Note_on_c, 0, 46, 0
4, 20352, Note_on_c, 0, 43, 110
4, 20440, Note_on_c, 0, 43, 0
4, 20496, Note_on_c, 0, 43, 110
4, 20576, Note_on_c, 0, 43, 0
4, 20640, Note_on_c, 0, 43, 110
4, 20723, Note_on_c, 0, 43, 0
4, 20736, Note_on_c, 0, 36, 110
4, 20832, Note_on_c, 0, 36, 0
4, 22272, Note_on_c, 0, 36, 110
4, 22355, Note_on_c, 0, 36, 0
4, 22368, Note_on_c, 0, 36, 110
4, 22451, Note_on_c, 0, 36, 0
4, 22464, Note_on_c, 0, 36, 110
4, 22547, Note_on_c, 0, 36, 0
4, 22560, Note_on_c, 0, 39, 110
4, 22643, Note_on_c, 0, 39, 0
4, 22656, Note_on_c, 0, 43, 110
4, 22744, Note_on_c, 0, 43, 0
4, 22800, Note_on_c, 0, 43, 110
4, 22888, Note_on_c, 0, 43, 0
4, 22944, Note_on_c, 0, 46, 110
4, 23027, Note_on_c, 0, 46, 0
4, 23040, Note_on_c, 0, 48, 110
4, 23123, Note_on_c, 0, 48, 0
4, 23136, Note_on_c, 0, 48, 110
4, 23219, Note_on_c, 0, 48, 0
4, 23232, Note_on_c, 0, 48, 110
4, 23315, Note_on_c, 0, 48, 0
4, 23328, Note_on_c, 0, 46, 110
4, 23411, Note_on_c, 0, 46, 0
4, 23424, Note_on_c, 0, 43, 110
4, 23504, Note_on_c, 0, 43, 0
4, 23568, Note_on_c, 0, 43, 110
4, 23672, Note_on_c, 0, 43, 0
4, 23712, Note_on_c, 0, 43, 110
4, 23795, Note_on_c, 0, 43, 0
4, 23808, Note_on_c, 0, 36, 110
4, 23891, Note_on_c, 0, 36, 0
4, 23904, Note_on_c, 0, 36, 110
4, 23987, Note_on_c, 0, 36, 0
4, 24000, Note_on_c, 0, 36, 110
4, 24083, Note_on_c, 0, 36, 0
4, 24096, Note_on_c, 0, 39, 110
4, 24179, Note_on_c, 0, 39, 0
4, 24192, Note_on_c, 0, 43, 110
4, 24280, Note_on_c, 0, 43, 0
4, 24336, Note_on_c, 0, 43, 110
4, 24432, Note_on_c, 0, 43, 0
4, 24480, Note_on_c, 0, 46, 110
4, 24563, Note_on_c, 0, 46, 0
4, 24576, Note_on_c, 0, 48, 110
4, 24659, Note_on_c, 0, 48, 0
4, 24672, Note_on_c, 0, 48, 110
4, 24755, Note_on_c, 0, 48, 0
4, 24768, Note_on_c, 0, 48, 110
4, 24851, Note_on_c, 0, 48, 0
4, 24864, Note_on_c, 0, 46, 110
4, 24947, Note_on_c, 0, 46, 0
4, 24960, Note_on_c, 0, 43, 110
4, 25048, Note_on_c, 0, 43, 0
4, 25104, Note_on_c, 0, 43, 110
4, 25216, Note_on_c, 0, 43, 0
4, 25248, Note_on_c, 0, 43, 110
4, 25331, Note_on_c, 0, 43, 0
4, 25344, Note_on_c, 0, 36, 110
4, 25427, Note_on_c, 0, 36, 0
4, 25440, Note_on_c, 0, 36, 110
4, 25523, Note_on_c, 0, 36, 0
4, 25536, Note_on_c, 0, 36, 110
4, 25619, Note_on_c, 0, 36, 0
4, 25632, Note_on_c, 0, 39, 110
4, 25715, Note_on_c, 0, 39, 0
4, 25728, Note_on_c, 0, 43, 110
4, 25816, Note_on_c, 0, 43, 0
4, 25872, Note_on_c, 0, 43, 110
4, 25976, Note_on_c, 0, 43, 0
4, 26016, Note_on_c, 0, 46, 110
4, 26099, Note_on_c, 0, 46, 0
4, 26112, Note_on_c, 0, 48, 110
4, 26195, Note_on_c, 0, 48, 0
4, 26208, Note_on_c, 0, 48, 110
4, 26291, Note_on_c, 0, 48, 0
4, 26304, Note_on_c, 0, 48, 110
4, 26387, Note_on_c, 0, 48, 0
4, 26400, Note_on_c, 0, 46, 110
4, 26483, Note_on_c, 0, 46, 0
4, 26496, Note_on_c, 0, 43, 110
4, 26584, Note_on_c, 0, 43, 0
4, 26640, Note_on_c, 0, 43, 110
4, 26728, Note_on_c, 0, 43, 0
4, 26784, Note_on_c, 0, 43, 110
4, 26867, Note_on_c, 0, 43, 0
4, 26880, Note_on_c, 0, 36, 110
4, 26963, Note_on_c, 0, 36, 0
4, 26976, Note_on_c, 0, 36, 110
4, 27059, Note_on_c, 0, 36, 0
4, 27072, Note_on_c, 0, 36, 110
4, 27155, Note_on_c, 0, 36, 0
4, 27168, Note_on_c, 0, 39, 110
4, 27251, Note_on_c, 0, 39, 0
4, 27264, Note_on_c, 0, 43, 110
4, 27352, Note_on_c, 0, 43, 0
4, 27408, Note_on_c, 0, 43, 110
4, 27520, Note_on_c, 0, 43, 0
4, 27552, Note_on_c, 0, 46, 110
4, 27635, Note_on_c, 0, 46, 0
4, 27648, Note_on_c, 0, 48, 110
4, 27731, Note_on_c, 0, 48, 0
4, 27744, Note_on_c, 0, 48, 110
4, 27827, Note_on_c, 0, 48, 0
4, 27840, Note_on_c, 0, 48, 110
4, 27923, Note_on_c, 0, 48, 0
4, 27936, Note_on_c, 0, 46, 110
4, 28019, Note_on_c, 0, 46, 0
4, 28032, Note_on_c, 0, 43, 110
4, 28112, Note_on_c, 0, 43, 0
4, 28176, Note_on_c, 0, 43, 110
4, 28272, Note_on_c, 0, 43, 0
4, 28320, Note_on_c, 0, 43, 110
4, 28403, Note_on_c, 0, 43, 0
4, 28416, Note_on_c, 0, 36, 110
4, 28499, Note_on_c, 0, 36, 0
4, 28512, Note_on_c, 0, 36, 110
4, 28595, Note_on_c, 0, 36, 0
4, 28608, Note_on_c, 0, 36, 110
4, 28691, Note_on_c, 0, 36, 0
4, 28704, Note_on_c, 0, 39, 110
4, 28787, Note_on_c, 0, 39, 0
4, 28800, Note_on_c, 0, 43, 110
4, 28880, Note_on_c, 0, 43, 0
4, 28944, Note_on_c, 0, 43, 110
4, 29056, Note_on_c, 0, 43, 0
4, 29088, Note_on_c, 0, 46, 110
4, 29171, Note_on_c, 0, 46, 0
4, 29184, Note_on_c, 0, 48, 110
4, 29267, Note_on_c, 0, 48, 0
4, 29280, Note_on_c, 0, 48, 110
4, 29363, Note_on_c, 0, 48, 0
4, 29376, Note_on_c, 0, 48, 110
4, 29459, Note_on_c, 0, 48, 0
4, 29472, Note_on_c, 0, 46, 110
4, 29555, Note_on_c, 0, 46, 0
4, 29568, Note_on_c, 0, 43, 110
4, 29648, Note_on_c, 0, 43, 0
4, 29712, Note_on_c, 0, 43, 110
4, 29800, Note_on_c, 0, 43, 0
4, 29856, Note_on_c, 0, 43, 110
4, 29939, Note_on_c, 0, 43, 0
4, 29952, Note_on_c, 0, 36, 110
4, 30035, Note_on_c, 0, 36, 0
4, 30048, Note_on_c, 0, 36, 110
4, 30131, Note_on_c, 0, 36, 0
4, 30144, Note_on_c, 0, 36, 110
4, 30227, Note_on_c, 0, 36, 0
4, 30240, Note_on_c, 0, 39, 110
4, 30323, Note_on_c, 0, 39, 0
4, 30336, Note_on_c, 0, 43, 110
4, 30416, Note_on_c, 0, 43, 0
4, 30480, Note_on_c, 0, 43, 110
4, 30584, Note_on_c, 0, 43, 0
4, 30624, Note_on_c, 0, 46, 110
4, 30707, Note_on_c, 0, 46, 0
4, 30720, Note_on_c, 0, 48, 110
4, 30803, Note_on_c, 0, 48, 0
4, 30816, Note_on_c, 0, 48, 110
4, 30899, Note_on_c, 0, 48, 0
4, 30912, Note_on_c, 0, 48, 110
4, 30995, Note_on_c, 0, 48, 0
4, 31008, Note_on_c, 0, 46, 110
4, 31091, Note_on_c, 0, 46, 0
4, 31104, Note_on_c, 0, 43, 110
4, 31184, Note_on_c, 0, 43, 0
4, 31248, Note_on_c, 0, 43, 110
4, 31344, Note_on_c, 0, 43, 0
4, 31392, Note_on_c, 0, 43, 110
4, 31475, Note_on_c, 0, 43, 0
4, 31488, Note_on_c, 0, 36, 110
4, 31571, Note_on_c, 0, 36, 0
4, 31584, Note_on_c, 0, 36, 110
4, 31667, Note_on_c, 0, 36, 0
4, 31680, Note_on_c, 0, 36, 110
4, 31763, Note_on_c, 0, 36, 0
4, 31776, Note_on_c, 0, 39, 110
4, 31859, Note_on_c, 0, 39, 0
4, 31872, Note_on_c, 0, 43, 110
4, 31952, Note_on_c, 0, 43, 0
4, 32016, Note_on_c, 0, 43, 110
4, 32120, Note_on_c, 0, 43, 0
4, 32160, Note_on_c, 0, 46, 110
4, 32243, Note_on_c, 0, 46, 0
4, 32256, Note_on_c, 0, 48, 110
4, 32339, Note_on_c, 0, 48, 0
4, 32352, Note_on_c, 0, 48, 110
4, 32435, Note_on_c, 0, 48, 0
4, 32448, Note_on_c, 0, 48, 110
4, 32531, Note_on_c, 0, 48, 0
4, 32544, Note_on_c, 0, 46, 110
4, 32627, Note_on_c, 0, 46, 0
4, 32640, Note_on_c, 0, 43, 110
4, 32728, Note_on_c, 0, 43, 0
4, 32784, Note_on_c, 0, 43, 110
4, 32896, Note_on_c, 0, 43, 0
4, 32928, Note_on_c, 0, 43, 110
4, 33011, Note_on_c, 0, 43, 0
4, 33024, Note_on_c, 0, 36, 110
4, 33107, Note_on_c, 0, 36, 0
4, 33120, Note_on_c, 0, 36, 110
4, 33203, Note_on_c, 0, 36, 0
4, 33216, Note_on_c, 0, 36, 110
4, 33299, Note_on_c, 0, 36, 0
4, 33312, Note_on_c, 0, 39, 110
4, 33395, Note_on_c, 0, 39, 0
4, 33408, Note_on_c, 0, 43, 110
4, 33496, Note_on_c, 0, 43, 0
4, 33552, Note_on_c, 0, 43, 110
4, 33656, Note_on_c, 0, 43, 0
4, 33696, Note_on_c, 0, 46, 110
4, 33779, Note_on_c, 0, 46, 0
4, 33792, Note_on_c, 0, 48, 110
4, 33875, Note_on_c, 0, 48, 0
4, 33888, Note_on_c, 0, 48, 110
4, 33971, Note_on_c, 0, 48, 0
4, 33984, Note_on_c, 0, 48, 110
4, 34067, Note_on_c, 0, 48, 0
4, 34080, Note_on_c, 0, 46, 110
4, 34163, Note_on_c, 0, 46, 0
4, 34176, Note_on_c, 0, 43, 110
4, 34256, Note_on_c, 0, 43, 0
4, 34320, Note_on_c, 0, 43, 110
4, 34416, Note_on_c, 0, 43, 0
4, 34464, Note_on_c, 0, 43, 110
4, 34547, Note_on_c, 0, 43, 0
4, 34560, Note_on_c, 0, 36, 110
4, 34643, Note_on_c, 0, 36, 0
4, 34656, Note_on_c, 0, 36, 110
4, 34739, Note_on_c, 0, 36, 0
4, 34752, Note_on_c, 0, 36, 110
4, 34835, Note_on_c, 0, 36, 0
4, 34848, Note_on_c, 0, 39, 110
4, 34931, Note_on_c, 0, 39, 0
4, 34944, Note_on_c, 0, 43, 110
4, 35024, Note_on_c, 0, 43, 0
4, 35088, Note_on_c, 0, 43, 110
4, 35192, Note_on_c, 0, 43, 0
4, 35232, Note_on_c, 0, 46, 110
4, 35315, Note_on_c, 0, 46, 0
4, 35328, Note_on_c, 0, 48, 110
4, 35411, Note_on_c, 0, 48, 0
4, 35424, Note_on_c, 0, 48, 110
4, 35507, Note_on_c, 0, 48, 0
4, 35520, Note_on_c, 0, 48, 110
4, 35603, Note_on_c, 0, 48, 0
4, 35616, Note_on_c, 0, 46, 110
4, 35699, Note_on_c, 0, 46, 0
4, 35712, Note_on_c, 0, 43, 110
4, 35800, Note_on_c, 0, 43, 0
4, 35856, Note_on_c, 0, 43, 110
4, 35960, Note_on_c, 0, 43, 0
4, 36000, Note_on_c, 0, 43, 110
4, 36083, Note_on_c, 0, 43, 0
4, 36096, Note_on_c, 0, 36, 110
4, 36179, Note_on_c, 0, 36, 0
4, 36192, Note_on_c, 0, 36, 110
4, 36275, Note_on_c, 0, 36, 0
4, 36288, Note_on_c, 0, 36, 110
4, 36371, Note_on_c, 0, 36, 0
4, 36384, Note_on_c, 0, 39, 110
4, 36467, Note_on_c, 0, 39, 0
4, 36480, Note_on_c, 0, 43, 110
4, 36560, Note_on_c, 0, 43, 0
4, 36624, Note_on_c, 0, 43, 110
4, 36744, Note_on_c, 0, 43, 0
4, 36768, Note_on_c, 0, 46, 110
4, 36851, Note_on_c, 0, 46, 0
4, 36864, Note_on_c, 0, 48, 110
4, 36947, Note_on_c, 0, 48, 0
4, 36960, Note_on_c, 0, 48, 110
4, 37043, Note_on_c, 0, 48, 0
4, 37056, Note_on_c, 0, 48, 110
4, 37139, Note_on_c, 0, 48, 0
4, 37152, Note_on_c, 0, 46, 110
4, 37235, Note_on_c, 0, 46, 0
4, 37248, Note_on_c, 0, 43, 110
4, 37320, Note_on_c, 0, 43, 0
4, 37392, Note_on_c, 0, 43, 110
4, 37512, Note_on_c, 0, 43, 0
4, 37536, Note_on_c, 0, 43, 110
4, 37619, Note_on_c, 0, 43, 0
4, 37632, Note_on_c, 0, 36, 110
4, 37715, Note_on_c, 0, 36, 0
4, 37728, Note_on_c, 0, 36, 110
4, 37811, Note_on_c, 0, 36, 0
4, 37824, Note_on_c, 0, 36, 110
4, 37907, Note_on_c, 0, 36, 0
4, 37920, Note_on_c, 0, 39, 110
4, 38003, Note_on_c, 0, 39, 0
4, 38016, Note_on_c, 0, 43, 110
4, 38096, Note_on_c, 0, 43, 0
4, 38160, Note_on_c, 0, 43, 110
4, 38280, Note_on_c, 0, 43, 0
4, 38304, Note_on_c, 0, 46, 110
4, 38387, Note_on_c, 0, 46, 0
4, 38400, Note_on_c, 0, 48, 110
4, 38483, Note_on_c, 0, 48, 0
4, 38496, Note_on_c, 0, 48, 110
4, 38579, Note_on_c, 0, 48, 0
4, 38592, Note_on_c, 0, 48, 110
4, 38675, Note_on_c, 0, 48, 0
4, 38688, Note_on_c, 0, 46, 110
4, 38771, Note_on_c, 0, 46, 0
4, 38784, Note_on_c, 0, 43, 110
4, 38856, Note_on_c, 0, 43, 0
4, 38928, Note_on_c, 0, 43, 110
4, 39048, Note_on_c, 0, 43, 0
4, 39072, Note_on_c, 0, 43, 110
4, 39155, Note_on_c, 0, 43, 0
4, 39168, Note_on_c, 0, 36, 110
4, 39251, Note_on_c, 0, 36, 0
4, 39264, Note_on_c, 0, 36, 110
4, 39347, Note_on_c, 0, 36, 0
4, 39360, Note_on_c, 0, 36, 110
4, 39443, Note_on_c, 0, 36, 0
4, 39456, Note_on_c, 0, 39, 110
4, 39539, Note_on_c, 0, 39, 0
4, 39552, Note_on_c, 0, 43, 110
4, 39648, Note_on_c, 0, 43, 0
4, 39696, Note_on_c, 0, 43, 110
4, 39808, Note_on_c, 0, 43, 0
4, 39840, Note_on_c, 0, 46, 110
4, 39923, Note_on_c, 0, 46, 0
4, 39936, Note_on_c, 0, 48, 110
4, 40019, Note_on_c, 0, 48, 0
4, 40032, Note_on_c, 0, 48, 110
4, 40115, Note_on_c, 0, 48, 0
4, 40128, Note_on_c, 0, 48, 110
4, 40211, Note_on_c, 0, 48, 0
4, 40224, Note_on_c, 0, 46, 110
4, 40307, Note_on_c, 0, 46, 0
4, 40320, Note_on_c, 0, 43, 110
4, 40400, Note_on_c, 0, 43, 0
4, 40464, Note_on_c, 0, 43, 110
4, 40552, Note_on_c, 0, 43, 0
4, 40608, Note_on_c, 0, 43, 110
4, 40691, Note_on_c, 0, 43, 0
4, 40704, Note_on_c, 0, 36, 110
4, 40787, Note_on_c, 0, 36, 0
4, 40800, Note_on_c, 0, 36, 110
4, 40883, Note_on_c, 0, 36, 0
4, 40896, Note_on_c, 0, 36, 110
4, 40979, Note_on_c, 0, 36, 0
4, 40992, Note_on_c, 0, 39, 110
4, 41075, Note_on_c, 0, 39, 0
4, 41088, Note_on_c, 0, 43, 110
4, 41176, Note_on_c, 0, 43, 0
4, 41232, Note_on_c, 0, 43, 110
4, 41352, Note_on_c, 0, 43, 0
4, 41376, Note_on_c, 0, 46, 110
4, 41459, Note_on_c, 0, 46, 0
4, 41472, Note_on_c, 0, 48, 110
4, 41555, Note_on_c, 0, 48, 0
4, 41568, Note_on_c, 0, 48, 110
4, 41651, Note_on_c, 0, 48, 0
4, 41664, Note_on_c, 0, 48, 110
4, 41747, Note_on_c, 0, 48, 0
4, 41760, Note_on_c, 0, 46, 110
4, 41843, Note_on_c, 0, 46, 0
4, 41856, Note_on_c, 0, 43, 110
4, 41936, Note_on_c, 0, 43, 0
4, 42000, Note_on_c, 0, 43, 110
4, 42088, Note_on_c, 0, 43, 0
4, 42144, Note_on_c, 0, 43, 110
4, 42227, Note_on_c, 0, 43, 0
4, 42240, Note_on_c, 0, 36, 110
4, 42323, Note_on_c, 0, 36, 0
4, 42336, Note_on_c, 0, 36, 110
4, 42419, Note_on_c, 0, 36, 0
4, 42432, Note_on_c, 0, 36, 110
4, 42515, Note_on_c, 0, 36, 0
4, 42528, Note_on_c, 0, 39, 110
4, 42611, Note_on_c, 0, 39, 0
4, 42624, Note_on_c, 0, 43, 110
4, 42704, Note_on_c, 0, 43, 0
4, 42768, Note_on_c, 0, 43, 110
4, 42880, Note_on_c, 0, 43, 0
4, 42912, Note_on_c, 0, 46, 110
4, 42995, Note_on_c, 0, 46, 0
4, 43008, Note_on_c, 0, 48, 110
4, 43091, Note_on_c, 0, 48, 0
4, 43104, Note_on_c, 0, 48, 110
4, 43187, Note_on_c, 0, 48, 0
4, 43200, Note_on_c, 0, 48, 110
4, 43283, Note_on_c, 0, 48, 0
4, 43296, Note_on_c, 0, 46, 110
4, 43379, Note_on_c, 0, 46, 0
4, 43392, Note_on_c, 0, 43, 110
4, 43472, Note_on_c, 0, 43, 0
4, 43536, Note_on_c, 0, 43, 110
4, 43632, Note_on_c, 0, 43, 0
4, 43680, Note_on_c, 0, 43, 110
4, 43763, Note_on_c, 0, 43, 0
4, 43776, Note_on_c, 0, 36, 110
4, 43859, Note_on_c, 0, 36, 0
4, 43872, Note_on_c, 0, 36, 110
4, 43955, Note_on_c, 0, 36, 0
4, 43968, Note_on_c, 0, 36, 110
4, 44051, Note_on_c, 0, 36, 0
4, 44064, Note_on_c, 0, 39, 110
4, 44147, Note_on_c, 0, 39, 0
4, 44160, Note_on_c, 0, 43, 110
4, 44232, Note_on_c, 0, 43, 0
4, 44304, Note_on_c, 0, 43, 110
4, 44416, Note_on_c, 0, 43, 0
4, 44448, Note_on_c, 0, 46, 110
4, 44531, Note_on_c, 0, 46, 0
4, 44544, Note_on_c, 0, 48, 110
4, 44627, Note_on_c, 0, 48, 0
4, 44640, Note_on_c, 0, 48, 110
4, 44723, Note_on_c, 0, 48, 0
4, 44736, Note_on_c, 0, 48, 110
4, 44819, Note_on_c, 0, 48, 0
4, 44832, Note_on_c, 0, 46, 110
4, 44915, Note_on_c, 0, 46, 0
4, 44928, Note_on_c, 0, 43, 110
4, 45008, Note_on_c, 0, 43, 0
4, 45072, Note_on_c, 0, 43, 110
4, 45168, Note_on_c, 0, 43, 0
4, 45216, Note_on_c, 0, 43, 110
4, 45299, Note_on_c, 0, 43, 0
4, 45312, Note_on_c, 0, 36, 110
4, 45395, Note_on_c, 0, 36, 0
4, 45408, Note_on_c, 0, 36, 110
4, 45491, Note_on_c, 0, 36, 0
4, 45504, Note_on_c, 0, 36, 110
4, 45587, Note_on_c, 0, 36, 0
4, 45600, Note_on_c, 0, 39, 110
4, 45683, Note_on_c, 0, 39, 0
4, 45696, Note_on_c, 0, 43, 110
4, 45776, Note_on_c, 0, 43, 0
4, 45840, Note_on_c, 0, 43, 110
4, 45928, Note_on_c, 0, 43, 0
4, 45984, Note_on_c, 0, 46, 110
4, 46067, Note_on_c, 0, 46, 0
4, 46080, Note_on_c, 0, 48, 110
4, 46163, Note_on_c, 0, 48, 0
4, 46176, Note_on_c, 0, 48, 110
4, 46259, Note_on_c, 0, 48, 0
4, 46272, Note_on_c, 0, 48, 110
4, 46355, Note_on_c, 0, 48, 0
4, 46368, Note_on_c, 0, 46, 110
4, 46451, Note_on_c, 0, 46, 0
4, 46464, Note_on_c, 0, 43, 110
4, 46544, Note_on_c, 0, 43, 0
4, 46608, Note_on_c, 0, 43, 110
4, 46712, Note_on_c, 0, 43, 0
4, 46752, Note_on_c, 0, 43, 110
4, 46835, Note_on_c, 0, 43, 0
4, 46848, Note_on_c, 0, 36, 110
4, 46931, Note_on_c, 0, 36, 0
4, 46944, Note_on_c, 0, 36, 110
4, 47027, Note_on_c, 0, 36, 0
4, 47040, Note_on_c, 0, 36, 110
4, 47123, Note_on_c, 0, 36, 0
4, 47136, Note_on_c, 0, 39, 110
4, 47219, Note_on_c, 0, 39, 0
4, 47232, Note_on_c, 0, 43, 110
4, 47312, Note_on_c, 0, 43, 0
4, 47376, Note_on_c, 0, 43, 110
4, 47480, Note_on_c, 0, 43, 0
4, 47520, Note_on_c, 0, 46, 110
4, 47603, Note_on_c, 0, 46, 0
4, 47616, Note_on_c, 0, 48, 110
4, 47699, Note_on_c, 0, 48, 0
4, 47712, Note_on_c, 0, 48, 110
4, 47795, Note_on_c, 0, 48, 0
4, 47808, Note_on_c, 0, 48, 110
4, 47891, Note_on_c, 0, 48, 0
4, 47904, Note_on_c, 0, 46, 110
4, 47987, Note_on_c, 0, 46, 0
4, 48000, Note_on_c, 0, 43, 110
4, 48088, Note_on_c, 0, 43, 0
4, 48144, Note_on_c, 0, 43, 110
4, 48232, Note_on_c, 0, 43, 0
4, 48288, Note_on_c, 0, 43, 110
4, 48371, Note_on_c, 0, 43, 0
4, 48384, Note_on_c, 0, 36, 110
4, 48467, Note_on_c, 0, 36, 0
4, 48480, Note_on_c, 0, 36, 110
4, 48563, Note_on_c, 0, 36, 0
4, 48576, Note_on_c, 0, 36, 110
4, 48659, Note_on_c, 0, 36, 0
4, 48672, Note_on_c, 0, 39, 110
4, 48755, Note_on_c, 0, 39, 0
4, 48768, Note_on_c, 0, 43, 110
4, 48848, Note_on_c, 0, 43, 0
4, 48912, Note_on_c, 0, 43, 110
4, 49008, Note_on_c, 0, 43, 0
4, 49056, Note_on_c, 0, 46, 110
4, 49139, Note_on_c, 0, 46, 0
4, 49152, Note_on_c, 0, 48, 110
4, 49235, Note_on_c, 0, 48, 0
4, 49248, Note_on_c, 0, 48, 110
4, 49331, Note_on_c, 0, 48, 0
4, 49344, Note_on_c, 0, 48, 110
4, 49427, Note_on_c, 0, 48, 0
4, 49440, Note_on_c, 0, 51, 110
4, 49523, Note_on_c, 0, 51, 0
4, 49536, Note_on_c, 0, 53, 110
4, 49619, Note_on_c, 0, 53, 0
4, 49632, Note_on_c, 0, 53, 110
4, 49715, Note_on_c, 0, 53, 0
4, 49728, Note_on_c, 0, 53, 110
4, 49811, Note_on_c, 0, 53, 0
4, 49824, Note_on_c, 0, 53, 110
4, 49907, Note_on_c, 0, 53, 0
4, 49920, Note_on_c, 0, 41, 110
4, 50096, Note_on_c, 0, 41, 0
4, 50112, Note_on_c, 0, 41, 110
4, 50195, Note_on_c, 0, 41, 0
4, 50208, Note_on_c, 0, 41, 110
4, 50291, Note_on_c, 0, 41, 0
4, 50304, Note_on_c, 0, 41, 110
4, 50387, Note_on_c, 0, 41, 0
4, 50400, Note_on_c, 0, 39, 110
4, 50523, Note_on_c, 0, 39, 0
4, 50592, Note_on_c, 0, 36, 110
4, 50675, Note_on_c, 0, 36, 0
4, 50688, Note_on_c, 0, 41, 110
4, 50771, Note_on_c, 0, 41, 0
4, 50784, Note_on_c, 0, 41, 110
4, 50867, Note_on_c, 0, 41, 0
4, 50880, Note_on_c, 0, 41, 110
4, 50963, Note_on_c, 0, 41, 0
4, 50976, Note_on_c, 0, 41, 110
4, 51059, Note_on_c, 0, 41, 0
4, 51072, Note_on_c, 0, 41, 110
4, 51155, Note_on_c, 0, 41, 0
4, 51168, Note_on_c, 0, 39, 110
4, 51291, Note_on_c, 0, 39, 0
4, 51360, Note_on_c, 0, 36, 110
4, 51443, Note_on_c, 0, 36, 0
4, 51456, Note_on_c, 0, 36, 110
4, 51560, Note_on_c, 0, 36, 0
4, 51584, Note_on_c, 0, 36, 110
4, 51696, Note_on_c, 0, 36, 0
4, 51712, Note_on_c, 0, 39, 110
4, 51840, Note_on_c, 0, 39, 0
4, 51840, Note_on_c, 0, 42, 110
4, 51936, Note_on_c, 0, 42, 0
4, 51968, Note_on_c, 0, 42, 110
4, 52064, Note_on_c, 0, 42, 0
4, 52096, Note_on_c, 0, 42, 110
4, 52192, Note_on_c, 0, 42, 0
4, 52224, Note_on_c, 0, 36, 110
4, 52328, Note_on_c, 0, 36, 0
4, 52352, Note_on_c, 0, 36, 110
4, 52464, Note_on_c, 0, 36, 0
4, 52480, Note_on_c, 0, 39, 110
4, 52608, Note_on_c, 0, 39, 0
4, 52608, Note_on_c, 0, 42, 110
4, 52704, Note_on_c, 0, 42, 0
4, 52736, Note_on_c, 0, 42, 110
4, 52824, Note_on_c, 0, 42, 0
4, 52864, Note_on_c, 0, 42, 110
4, 52952, Note_on_c, 0, 42, 0
4, 52992, Note_on_c, 0, 41, 110
4, 53168, Note_on_c, 0, 41, 0
4, 53184, Note_on_c, 0, 41, 110
4, 53267, Note_on_c, 0, 41, 0
4, 53280, Note_on_c, 0, 41, 110
4, 53363, Note_on_c, 0, 41, 0
4, 53376, Note_on_c, 0, 41, 110
4, 53459, Note_on_c, 0, 41, 0
4, 53472, Note_on_c, 0, 39, 110
4, 53595, Note_on_c, 0, 39, 0
4, 53664, Note_on_c, 0, 36, 110
4, 53747, Note_on_c, 0, 36, 0
4, 53760, Note_on_c, 0, 41, 110
4, 53843, Note_on_c, 0, 41, 0
4, 53856, Note_on_c, 0, 41, 110
4, 53939, Note_on_c, 0, 41, 0
4, 53952, Note_on_c, 0, 41, 110
4, 54035, Note_on_c, 0, 41, 0
4, 54048, Note_on_c, 0, 41, 110
4, 54131, Note_on_c, 0, 41, 0
4, 54144, Note_on_c, 0, 41, 110
4, 54227, Note_on_c, 0, 41, 0
4, 54240, Note_on_c, 0, 39, 110
4, 54363, Note_on_c, 0, 39, 0
4, 54432, Note_on_c, 0, 36, 110
4, 54515, Note_on_c, 0, 36, 0
4, 54528, Note_on_c, 0, 36, 110
4, 54632, Note_on_c, 0, 36, 0
4, 54656, Note_on_c, 0, 36, 110
4, 54768, Note_on_c, 0, 36, 0
4, 54784, Note_on_c, 0, 39, 110
4, 54912, Note_on_c, 0, 42, 110
4, 54912, Note_on_c, 0, 39, 0
4, 55008, Note_on_c, 0, 42, 0
4, 55040, Note_on_c, 0, 42, 110
4, 55136, Note_on_c, 0, 42, 0
4, 55168, Note_on_c, 0, 42, 110
4, 55264, Note_on_c, 0, 42, 0
4, 55296, Note_on_c, 0, 36, 110
4, 55400, Note_on_c, 0, 36, 0
4, 55424, Note_on_c, 0, 36, 110
4, 55536, Note_on_c, 0, 36, 0
4, 55552, Note_on_c, 0, 39, 110
4, 55680, Note_on_c, 0, 39, 0
4, 55680, Note_on_c, 0, 42, 110
4, 55776, Note_on_c, 0, 42, 0
4, 55808, Note_on_c, 0, 42, 110
4, 55896, Note_on_c, 0, 42, 0
4, 55936, Note_on_c, 0, 42, 110
4, 56024, Note_on_c, 0, 42, 0
4, 56064, Note_on_c, 0, 41, 110
4, 56240, Note_on_c, 0, 41, 0
4, 56256, Note_on_c, 0, 41, 110
4, 56339, Note_on_c, 0, 41, 0
4, 56352, Note_on_c, 0, 41, 110
4, 56435, Note_on_c, 0, 41, 0
4, 56448, Note_on_c, 0, 41, 110
4, 56531, Note_on_c, 0, 41, 0
4, 56544, Note_on_c, 0, 39, 110
4, 56667, Note_on_c, 0, 39, 0
4, 56736, Note_on_c, 0, 36, 110
4, 56819, Note_on_c, 0, 36, 0
4, 56832, Note_on_c, 0, 41, 110
4, 56915, Note_on_c, 0, 41, 0
4, 56928, Note_on_c, 0, 41, 110
4, 57011, Note_on_c, 0, 41, 0
4, 57024, Note_on_c, 0, 41, 110
4, 57107, Note_on_c, 0, 41, 0
4, 57120, Note_on_c, 0, 41, 110
4, 57203, Note_on_c, 0, 41, 0
4, 57216, Note_on_c, 0, 41, 110
4, 57299, Note_on_c, 0, 41, 0
4, 57312, Note_on_c, 0, 39, 110
4, 57435, Note_on_c, 0, 39, 0
4, 57504, Note_on_c, 0, 36, 110
4, 57587, Note_on_c, 0, 36, 0
4, 57600, Note_on_c, 0, 36, 110
4, 57704, Note_on_c, 0, 36, 0
4, 57728, Note_on_c, 0, 36, 110
4, 57840, Note_on_c, 0, 36, 0
4, 57856, Note_on_c, 0, 39, 110
4, 57984, Note_on_c, 0, 42, 110
4, 57984, Note_on_c, 0, 39, 0
4, 58080, Note_on_c, 0, 42, 0
4, 58112, Note_on_c, 0, 42, 110
4, 58208, Note_on_c, 0, 42, 0
4, 58240, Note_on_c, 0, 42, 110
4, 58336, Note_on_c, 0, 42, 0
4, 58368, Note_on_c, 0, 36, 110
4, 58472, Note_on_c, 0, 36, 0
4, 58496, Note_on_c, 0, 36, 110
4, 58608, Note_on_c, 0, 36, 0
4, 58624, Note_on_c, 0, 39, 110
4, 58752, Note_on_c, 0, 42, 110
4, 58752, Note_on_c, 0, 39, 0
4, 58848, Note_on_c, 0, 42, 0
4, 58880, Note_on_c, 0, 42, 110
4, 58968, Note_on_c, 0, 42, 0
4, 59008, Note_on_c, 0, 42, 110
4, 59096, Note_on_c, 0, 42, 0
4, 59136, Note_on_c, 0, 41, 110
4, 59312, Note_on_c, 0, 41, 0
4, 59328, Note_on_c, 0, 41, 110
4, 59411, Note_on_c, 0, 41, 0
4, 59424, Note_on_c, 0, 41, 110
4, 59507, Note_on_c, 0, 41, 0
4, 59520, Note_on_c, 0, 41, 110
4, 59603, Note_on_c, 0, 41, 0
4, 59616, Note_on_c, 0, 39, 110
4, 59739, Note_on_c, 0, 39, 0
4, 59808, Note_on_c, 0, 36, 110
4, 59891, Note_on_c, 0, 36, 0
4, 59904, Note_on_c, 0, 41, 110
4, 59987, Note_on_c, 0, 41, 0
4, 60000, Note_on_c, 0, 41, 110
4, 60083, Note_on_c, 0, 41, 0
4, 60096, Note_on_c, 0, 41, 110
4, 60179, Note_on_c, 0, 41, 0
4, 60192, Note_on_c, 0, 41, 110
4, 60275, Note_on_c, 0, 41, 0
4, 60288, Note_on_c, 0, 41, 110
4, 60371, Note_on_c, 0, 41, 0
4, 60384, Note_on_c, 0, 39, 110
4, 60507, Note_on_c, 0, 39, 0
4, 60576, Note_on_c, 0, 36, 110
4, 60659, Note_on_c, 0, 36, 0
4, 60672, Note_on_c, 0, 36, 110
4, 60776, Note_on_c, 0, 36, 0
4, 60800, Note_on_c, 0, 36, 110
4, 60912, Note_on_c, 0, 36, 0
4, 60928, Note_on_c, 0, 39, 110
4, 61056, Note_on_c, 0, 39, 0
4, 61056, Note_on_c, 0, 42, 110
4, 61152, Note_on_c, 0, 42, 0
4, 61184, Note_on_c, 0, 42, 110
4, 61280, Note_on_c, 0, 42, 0
4, 61312, Note_on_c, 0, 42, 110
4, 61408, Note_on_c, 0, 42, 0
4, 61440, Note_on_c, 0, 42, 110
4, 61523, Note_on_c, 0, 42, 0
4, 61568, Note_on_c, 0, 42, 110
4, 61651, Note_on_c, 0, 42, 0
4, 61696, Note_on_c, 0, 42, 110
4, 61779, Note_on_c, 0, 42, 0
4, 61824, Note_on_c, 0, 42, 110
4, 61907, Note_on_c, 0, 42, 0
4, 61952, Note_on_c, 0, 42, 110
4, 62035, Note_on_c, 0, 42, 0
4, 62080, Note_on_c, 0, 42, 110
4, 62163, Note_on_c, 0, 42, 0
4, 62208, Note_on_c, 0, 41, 110
4, 62384, Note_on_c, 0, 41, 0
4, 62400, Note_on_c, 0, 41, 110
4, 62483, Note_on_c, 0, 41, 0
4, 62496, Note_on_c, 0, 41, 110
4, 62579, Note_on_c, 0, 41, 0
4, 62592, Note_on_c, 0, 41, 110
4, 62675, Note_on_c, 0, 41, 0
4, 62688, Note_on_c, 0, 39, 110
4, 62811, Note_on_c, 0, 39, 0
4, 62880, Note_on_c, 0, 36, 110
4, 62963, Note_on_c, 0, 36, 0
4, 62976, Note_on_c, 0, 41, 110
4, 63059, Note_on_c, 0, 41, 0
4, 63072, Note_on_c, 0, 41, 110
4, 63155, Note_on_c, 0, 41, 0
4, 63168, Note_on_c, 0, 41, 110
4, 63251, Note_on_c, 0, 41, 0
4, 63264, Note_on_c, 0, 41, 110
4, 63347, Note_on_c, 0, 41, 0
4, 63360, Note_on_c, 0, 41, 110
4, 63443, Note_on_c, 0, 41, 0
4, 63456, Note_on_c, 0, 39, 110
4, 63579, Note_on_c, 0, 39, 0
4, 63648, Note_on_c, 0, 36, 110
4, 63731, Note_on_c, 0, 36, 0
4, 63744, Note_on_c, 0, 36, 110
4, 63936, Note_on_c, 0, 36, 0
4, 63936, Note_on_c, 0, 36, 110
4, 64019, Note_on_c, 0, 36, 0
4, 64032, Note_on_c, 0, 39, 110
4, 64115, Note_on_c, 0, 39, 0
4, 64128, Note_on_c, 0, 34, 110
4, 64320, Note_on_c, 0, 34, 0
4, 64320, Note_on_c, 0, 34, 110
4, 64403, Note_on_c, 0, 34, 0
4, 64416, Note_on_c, 0, 34, 110
4, 64499, Note_on_c, 0, 34, 0
4, 64512, Note_on_c, 0, 32, 110
4, 64595, Note_on_c, 0, 32, 0
4, 64608, Note_on_c, 0, 32, 110
4, 64691, Note_on_c, 0, 32, 0
4, 64704, Note_on_c, 0, 32, 110
4, 64787, Note_on_c, 0, 32, 0
4, 64800, Note_on_c, 0, 31, 110
4, 64883, Note_on_c, 0, 31, 0
4, 64883, End_track
5, 0, Start_track
5, 0, Title_t, "OD/GTR"
5, 0, Channel_prefix, 1
5, 256, Control_c, 1, 0, 3
5, 384, Control_c, 1, 91, 76
5, 384, Control_c, 1, 10, 40
5, 384, Control_c, 1, 93, 28
5, 384, Control_c, 1, 7, 110
5, 576, Program_c, 1, 29
5, 768, Pitch_bend_c, 1, 8192
5, 9984, Note_on_c, 1, 60, 95
5, 9984, Note_on_c, 1, 65, 95
5, 9984, Note_on_c, 1, 53, 95
5, 10368, Note_on_c, 1, 60, 0
5, 10408, Note_on_c, 1, 65, 0
5, 10408, Note_on_c, 1, 53, 0
5, 10464, Note_on_c, 1, 58, 95
5, 10464, Note_on_c, 1, 51, 95
5, 10464, Note_on_c, 1, 63, 95
5, 10592, Note_on_c, 1, 58, 0
5, 10592, Note_on_c, 1, 51, 0
5, 10592, Note_on_c, 1, 63, 0
5, 10624, Note_on_c, 1, 48, 95
5, 10624, Note_on_c, 1, 55, 95
5, 10624, Note_on_c, 1, 60, 95
5, 10728, Note_on_c, 1, 48, 0
5, 10728, Note_on_c, 1, 55, 0
5, 10736, Note_on_c, 1, 60, 0
5, 10752, Note_on_c, 1, 65, 95
5, 10752, Note_on_c, 1, 60, 95
5, 10752, Note_on_c, 1, 53, 95
5, 11136, Note_on_c, 1, 60, 0
5, 11176, Note_on_c, 1, 65, 0
5, 11192, Note_on_c, 1, 53, 0
5, 11232, Note_on_c, 1, 58, 95
5, 11232, Note_on_c, 1, 51, 95
5, 11232, Note_on_c, 1, 63, 95
5, 11360, Note_on_c, 1, 58, 0
5, 11360, Note_on_c, 1, 51, 0
5, 11360, Note_on_c, 1, 63, 0
5, 11392, Note_on_c, 1, 60, 95
5, 11392, Note_on_c, 1, 48, 95
5, 11392, Note_on_c, 1, 55, 95
5, 11488, Note_on_c, 1, 55, 0
5, 11496, Note_on_c, 1, 60, 0
5, 11496, Note_on_c, 1, 48, 0
5, 11520, Note_on_c, 1, 48, 95
5, 11520, Note_on_c, 1, 55, 95
5, 11520, Note_on_c, 1, 60, 95
5, 11744, Note_on_c, 1, 48, 0
5, 11744, Note_on_c, 1, 55, 0
5, 11752, Note_on_c, 1, 60, 0
5, 11776, Note_on_c, 1, 58, 95
5, 11776, Note_on_c, 1, 51, 95
5, 11776, Note_on_c, 1, 63, 95
5, 11904, Note_on_c, 1, 58, 0
5, 11904, Note_on_c, 1, 51, 0
5, 11904, Note_on_c, 1, 63, 0
5, 11904, Note_on_c, 1, 54, 95
5, 11904, Note_on_c, 1, 66, 95
5, 11904, Note_on_c, 1, 61, 95
5, 11992, Note_on_c, 1, 54, 0
5, 11992, Note_on_c, 1, 61, 0
5, 12000, Note_on_c, 1, 66, 0
5, 12032, Note_on_c, 1, 54, 95
5, 12032, Note_on_c, 1, 61, 95
5, 12032, Note_on_c, 1, 66, 95
5, 12104, Note_on_c, 1, 54, 0
5, 12128, Note_on_c, 1, 61, 0
5, 12128, Note_on_c, 1, 66, 0
5, 12160, Note_on_c, 1, 66, 95
5, 12160, Note_on_c, 1, 54, 95
5, 12160, Note_on_c, 1, 61, 95
5, 12256, Note_on_c, 1, 66, 0
5, 12256, Note_on_c, 1, 54, 0
5, 12256, Note_on_c, 1, 61, 0
5, 12288, Note_on_c, 1, 55, 95
5, 12288, Note_on_c, 1, 60, 95
5, 12288, Note_on_c, 1, 48, 95
5, 12504, Note_on_c, 1, 55, 0
5, 12504, Note_on_c, 1, 48, 0
5, 12512, Note_on_c, 1, 60, 0
5, 12544, Note_on_c, 1, 51, 95
5, 12544, Note_on_c, 1, 63, 95
5, 12544, Note_on_c, 1, 58, 95
5, 12672, Note_on_c, 1, 51, 0
5, 12672, Note_on_c, 1, 63, 0
5, 12672, Note_on_c, 1, 54, 95
5, 12672, Note_on_c, 1, 58, 0
5, 12672, Note_on_c, 1, 66, 95
5, 12672, Note_on_c, 1, 61, 95
5, 12768, Note_on_c, 1, 54, 0
5, 12768, Note_on_c, 1, 66, 0
5, 12768, Note_on_c, 1, 61, 0
5, 12800, Note_on_c, 1, 61, 95
5, 12800, Note_on_c, 1, 66, 95
5, 12800, Note_on_c, 1, 54, 95
5, 12888, Note_on_c, 1, 54, 0
5, 12896, Note_on_c, 1, 61, 0
5, 12904, Note_on_c, 1, 66, 0
5, 12928, Note_on_c, 1, 61, 95
5, 12928, Note_on_c, 1, 66, 95
5, 12928, Note_on_c, 1, 54, 95
5, 13024, Note_on_c, 1, 61, 0
5, 13024, Note_on_c, 1, 66, 0
5, 13024, Note_on_c, 1, 54, 0
5, 13056, Note_on_c, 1, 60, 95
5, 13056, Note_on_c, 1, 53, 95
5, 13056, Note_on_c, 1, 65, 95
5, 13440, Note_on_c, 1, 60, 0
5, 13496, Note_on_c, 1, 65, 0
5, 13504, Note_on_c, 1, 53, 0
5, 13536, Note_on_c, 1, 51, 95
5, 13536, Note_on_c, 1, 63, 95
5, 13536, Note_on_c, 1, 58, 95
5, 13664, Note_on_c, 1, 51, 0
5, 13664, Note_on_c, 1, 63, 0
5, 13664, Note_on_c, 1, 58, 0
5, 13696, Note_on_c, 1, 48, 95
5, 13696, Note_on_c, 1, 55, 95
5, 13696, Note_on_c, 1, 60, 95
5, 13792, Note_on_c, 1, 48, 0
5, 13792, Note_on_c, 1, 55, 0
5, 13792, Note_on_c, 1, 60, 0
5, 13824, Note_on_c, 1, 53, 95
5, 13824, Note_on_c, 1, 65, 95
5, 13824, Note_on_c, 1, 60, 95
5, 14208, Note_on_c, 1, 60, 0
5, 14240, Note_on_c, 1, 65, 0
5, 14248, Note_on_c, 1, 53, 0
5, 14304, Note_on_c, 1, 51, 95
5, 14304, Note_on_c, 1, 58, 95
5, 14304, Note_on_c, 1, 63, 95
5, 14432, Note_on_c, 1, 51, 0
5, 14432, Note_on_c, 1, 58, 0
5, 14432, Note_on_c, 1, 63, 0
5, 14464, Note_on_c, 1, 55, 95
5, 14464, Note_on_c, 1, 60, 95
5, 14464, Note_on_c, 1, 48, 95
5, 14560, Note_on_c, 1, 55, 0
5, 14560, Note_on_c, 1, 60, 0
5, 14568, Note_on_c, 1, 48, 0
5, 14592, Note_on_c, 1, 60, 95
5, 14592, Note_on_c, 1, 55, 95
5, 14592, Note_on_c, 1, 48, 95
5, 14784, Note_on_c, 1, 60, 0
5, 14784, Note_on_c, 1, 55, 0
5, 14784, Note_on_c, 1, 48, 0
5, 14784, Note_on_c, 1, 60, 95
5, 14784, Note_on_c, 1, 48, 95
5, 14784, Note_on_c, 1, 55, 95
5, 14880, Note_on_c, 1, 60, 0
5, 14880, Note_on_c, 1, 48, 0
5, 14880, Note_on_c, 1, 55, 0
5, 14880, Note_on_c, 1, 48, 95
5, 14880, Note_on_c, 1, 60, 95
5, 14880, Note_on_c, 1, 55, 95
5, 14888, Note_on_c, 1, 48, 0
5, 14888, Note_on_c, 1, 60, 0
5, 14888, Note_on_c, 1, 55, 0
5, 14928, Note_on_c, 1, 60, 95
5, 14928, Note_on_c, 1, 48, 95
5, 14928, Note_on_c, 1, 55, 95
5, 14936, Note_on_c, 1, 60, 0
5, 14936, Note_on_c, 1, 48, 0
5, 14936, Note_on_c, 1, 55, 0
5, 14976, Note_on_c, 1, 58, 95
5, 14976, Note_on_c, 1, 53, 95
5, 14976, Note_on_c, 1, 46, 95
5, 15168, Note_on_c, 1, 58, 0
5, 15168, Note_on_c, 1, 53, 0
5, 15168, Note_on_c, 1, 46, 0
5, 15168, Note_on_c, 1, 53, 95
5, 15168, Note_on_c, 1, 58, 95
5, 15168, Note_on_c, 1, 46, 95
5, 15264, Note_on_c, 1, 53, 0
5, 15264, Note_on_c, 1, 58, 0
5, 15264, Note_on_c, 1, 46, 0
5, 15264, Note_on_c, 1, 46, 95
5, 15264, Note_on_c, 1, 53, 95
5, 15264, Note_on_c, 1, 58, 95
5, 15272, Note_on_c, 1, 46, 0
5, 15272, Note_on_c, 1, 53, 0
5, 15272, Note_on_c, 1, 58, 0
5, 15312, Note_on_c, 1, 58, 95
5, 15312, Note_on_c, 1, 46, 95
5, 15312, Note_on_c, 1, 53, 95
5, 15320, Note_on_c, 1, 58, 0
5, 15320, Note_on_c, 1, 46, 0
5, 15320, Note_on_c, 1, 53, 0
5, 15360, Note_on_c, 1, 51, 95
5, 15360, Note_on_c, 1, 44, 95
5, 15360, Note_on_c, 1, 56, 95
5, 15456, Note_on_c, 1, 51, 0
5, 15456, Note_on_c, 1, 44, 0
5, 15456, Note_on_c, 1, 44, 95
5, 15456, Note_on_c, 1, 56, 0
5, 15456, Note_on_c, 1, 56, 95
5, 15456, Note_on_c, 1, 51, 95
5, 15552, Note_on_c, 1, 44, 0
5, 15552, Note_on_c, 1, 56, 0
5, 15552, Note_on_c, 1, 51, 0
5, 15552, Note_on_c, 1, 51, 95
5, 15552, Note_on_c, 1, 44, 95
5, 15552, Note_on_c, 1, 56, 95
5, 15560, Note_on_c, 1, 51, 0
5, 15560, Note_on_c, 1, 44, 0
5, 15560, Note_on_c, 1, 56, 0
5, 15648, Note_on_c, 1, 50, 95
5, 15648, Note_on_c, 1, 55, 95
5, 15648, Note_on_c, 1, 43, 95
5, 15744, Note_on_c, 1, 50, 0
5, 15744, Note_on_c, 1, 55, 0
5, 15744, Note_on_c, 1, 43, 0
5, 22272, Note_on_c, 1, 60, 95
5, 22272, Note_on_c, 1, 48, 95
5, 22272, Note_on_c, 1, 55, 95
5, 22400, Note_on_c, 1, 60, 0
5, 22400, Note_on_c, 1, 48, 0
5, 22400, Note_on_c, 1, 55, 0
5, 22400, Note_on_c, 1, 60, 95
5, 22400, Note_on_c, 1, 48, 95
5, 22400, Note_on_c, 1, 55, 95
5, 22528, Note_on_c, 1, 60, 0
5, 22528, Note_on_c, 1, 48, 0
5, 22528, Note_on_c, 1, 60, 95
5, 22528, Note_on_c, 1, 55, 0
5, 22528, Note_on_c, 1, 55, 95
5, 22528, Note_on_c, 1, 48, 95
5, 22656, Note_on_c, 1, 60, 0
5, 22656, Note_on_c, 1, 55, 0
5, 22656, Note_on_c, 1, 48, 0
5, 22656, Note_on_c, 1, 53, 95
5, 22656, Note_on_c, 1, 65, 95
5, 22656, Note_on_c, 1, 60, 95
5, 22784, Note_on_c, 1, 53, 0
5, 22784, Note_on_c, 1, 65, 0
5, 22784, Note_on_c, 1, 53, 95
5, 22784, Note_on_c, 1, 60, 0
5, 22784, Note_on_c, 1, 65, 95
5, 22784, Note_on_c, 1, 60, 95
5, 22912, Note_on_c, 1, 53, 0
5, 22912, Note_on_c, 1, 65, 0
5, 22912, Note_on_c, 1, 60, 0
5, 22912, Note_on_c, 1, 60, 95
5, 22912, Note_on_c, 1, 65, 95
5, 22912, Note_on_c, 1, 53, 95
5, 23040, Note_on_c, 1, 60, 0
5, 23040, Note_on_c, 1, 65, 0
5, 23040, Note_on_c, 1, 60, 95
5, 23040, Note_on_c, 1, 53, 0
5, 23040, Note_on_c, 1, 48, 95
5, 23040, Note_on_c, 1, 55, 95
5, 23168, Note_on_c, 1, 60, 0
5, 23168, Note_on_c, 1, 48, 0
5, 23168, Note_on_c, 1, 55, 0
5, 23168, Note_on_c, 1, 60, 95
5, 23168, Note_on_c, 1, 55, 95
5, 23168, Note_on_c, 1, 48, 95
5, 23296, Note_on_c, 1, 60, 0
5, 23296, Note_on_c, 1, 55, 0
5, 23296, Note_on_c, 1, 48, 0
5, 23296, Note_on_c, 1, 55, 95
5, 23296, Note_on_c, 1, 48, 95
5, 23296, Note_on_c, 1, 60, 95
5, 23424, Note_on_c, 1, 55, 0
5, 23424, Note_on_c, 1, 48, 0
5, 23424, Note_on_c, 1, 60, 95
5, 23424, Note_on_c, 1, 60, 0
5, 23424, Note_on_c, 1, 53, 95
5, 23424, Note_on_c, 1, 65, 95
5, 23552, Note_on_c, 1, 60, 0
5, 23552, Note_on_c, 1, 53, 0
5, 23552, Note_on_c, 1, 65, 0
5, 23552, Note_on_c, 1, 44, 95
5, 23552, Note_on_c, 1, 51, 95
5, 23552, Note_on_c, 1, 56, 95
5, 23680, Note_on_c, 1, 44, 0
5, 23680, Note_on_c, 1, 51, 0
5, 23680, Note_on_c, 1, 56, 0
5, 23680, Note_on_c, 1, 53, 95
5, 23680, Note_on_c, 1, 58, 95
5, 23680, Note_on_c, 1, 46, 95
5, 23808, Note_on_c, 1, 53, 0
5, 23808, Note_on_c, 1, 58, 0
5, 23808, Note_on_c, 1, 46, 0
5, 23808, Note_on_c, 1, 60, 95
5, 23808, Note_on_c, 1, 55, 95
5, 23808, Note_on_c, 1, 48, 95
5, 23936, Note_on_c, 1, 60, 0
5, 23936, Note_on_c, 1, 55, 0
5, 23936, Note_on_c, 1, 55, 95
5, 23936, Note_on_c, 1, 48, 0
5, 23936, Note_on_c, 1, 60, 95
5, 23936, Note_on_c, 1, 48, 95
5, 24064, Note_on_c, 1, 55, 0
5, 24064, Note_on_c, 1, 60, 0
5, 24064, Note_on_c, 1, 48, 0
5, 24064, Note_on_c, 1, 55, 95
5, 24064, Note_on_c, 1, 48, 95
5, 24064, Note_on_c, 1, 60, 95
5, 24192, Note_on_c, 1, 55, 0
5, 24192, Note_on_c, 1, 48, 0
5, 24192, Note_on_c, 1, 53, 95
5, 24192, Note_on_c, 1, 60, 0
5, 24192, Note_on_c, 1, 60, 95
5, 24192, Note_on_c, 1, 65, 95
5, 24320, Note_on_c, 1, 53, 0
5, 24320, Note_on_c, 1, 60, 0
5, 24320, Note_on_c, 1, 65, 0
5, 24320, Note_on_c, 1, 60, 95
5, 24320, Note_on_c, 1, 65, 95
5, 24320, Note_on_c, 1, 53, 95
5, 24448, Note_on_c, 1, 60, 0
5, 24448, Note_on_c, 1, 65, 0
5, 24448, Note_on_c, 1, 65, 95
5, 24448, Note_on_c, 1, 53, 0
5, 24448, Note_on_c, 1, 60, 95
5, 24448, Note_on_c, 1, 53, 95
5, 24576, Note_on_c, 1, 65, 0
5, 24576, Note_on_c, 1, 60, 0
5, 24576, Note_on_c, 1, 53, 0
5, 24576, Note_on_c, 1, 60, 95
5, 24576, Note_on_c, 1, 55, 95
5, 24576, Note_on_c, 1, 48, 95
5, 24704, Note_on_c, 1, 60, 0
5, 24704, Note_on_c, 1, 55, 0
5, 24704, Note_on_c, 1, 60, 95
5, 24704, Note_on_c, 1, 48, 0
5, 24704, Note_on_c, 1, 55, 95
5, 24704, Note_on_c, 1, 48, 95
5, 24832, Note_on_c, 1, 60, 0
5, 24832, Note_on_c, 1, 55, 0
5, 24832, Note_on_c, 1, 48, 0
5, 24832, Note_on_c, 1, 48, 95
5, 24832, Note_on_c, 1, 60, 95
5, 24832, Note_on_c, 1, 55, 95
5, 24960, Note_on_c, 1, 48, 0
5, 24960, Note_on_c, 1, 60, 0
5, 24960, Note_on_c, 1, 55, 0
5, 24960, Note_on_c, 1, 60, 95
5, 24960, Note_on_c, 1, 65, 95
5, 24960, Note_on_c, 1, 53, 95
5, 25088, Note_on_c, 1, 60, 0
5, 25088, Note_on_c, 1, 65, 0
5, 25088, Note_on_c, 1, 51, 95
5, 25088, Note_on_c, 1, 53, 0
5, 25088, Note_on_c, 1, 44, 95
5, 25088, Note_on_c, 1, 56, 95
5, 25216, Note_on_c, 1, 51, 0
5, 25216, Note_on_c, 1, 44, 0
5, 25216, Note_on_c, 1, 56, 0
5, 25216, Note_on_c, 1, 58, 95
5, 25216, Note_on_c, 1, 46, 95
5, 25216, Note_on_c, 1, 53, 95
5, 25344, Note_on_c, 1, 58, 0
5, 25344, Note_on_c, 1, 46, 0
5, 25344, Note_on_c, 1, 55, 95
5, 25344, Note_on_c, 1, 53, 0
5, 25344, Note_on_c, 1, 48, 95
5, 25344, Note_on_c, 1, 60, 95
5, 25472, Note_on_c, 1, 55, 0
5, 25472, Note_on_c, 1, 48, 0
5, 25472, Note_on_c, 1, 60, 0
5, 25472, Note_on_c, 1, 48, 95
5, 25472, Note_on_c, 1, 60, 95
5, 25472, Note_on_c, 1, 55, 95
5, 25600, Note_on_c, 1, 48, 0
5, 25600, Note_on_c, 1, 60, 0
5, 25600, Note_on_c, 1, 55, 0
5, 25600, Note_on_c, 1, 60, 95
5, 25600, Note_on_c, 1, 55, 95
5, 25600, Note_on_c, 1, 48, 95
5, 25728, Note_on_c, 1, 60, 0
5, 25728, Note_on_c, 1, 55, 0
5, 25728, Note_on_c, 1, 53, 95
5, 25728, Note_on_c, 1, 48, 0
5, 25728, Note_on_c, 1, 65, 95
5, 25728, Note_on_c, 1, 60, 95
5, 25856, Note_on_c, 1, 53, 0
5, 25856, Note_on_c, 1, 65, 0
5, 25856, Note_on_c, 1, 60, 0
5, 25856, Note_on_c, 1, 53, 95
5, 25856, Note_on_c, 1, 60, 95
5, 25856, Note_on_c, 1, 65, 95
5, 25984, Note_on_c, 1, 53, 0
5, 25984, Note_on_c, 1, 60, 0
5, 25984, Note_on_c, 1, 53, 95
5, 25984, Note_on_c, 1, 65, 0
5, 25984, Note_on_c, 1, 60, 95
5, 25984, Note_on_c, 1, 65, 95
5, 26112, Note_on_c, 1, 53, 0
5, 26112, Note_on_c, 1, 60, 0
5, 26112, Note_on_c, 1, 65, 0
5, 26112, Note_on_c, 1, 55, 95
5, 26112, Note_on_c, 1, 48, 95
5, 26112, Note_on_c, 1, 60, 95
5, 26240, Note_on_c, 1, 55, 0
5, 26240, Note_on_c, 1, 48, 0
5, 26240, Note_on_c, 1, 60, 95
5, 26240, Note_on_c, 1, 60, 0
5, 26240, Note_on_c, 1, 55, 95
5, 26240, Note_on_c, 1, 48, 95
5, 26368, Note_on_c, 1, 60, 0
5, 26368, Note_on_c, 1, 55, 0
5, 26368, Note_on_c, 1, 48, 0
5, 26368, Note_on_c, 1, 48, 95
5, 26368, Note_on_c, 1, 60, 95
5, 26368, Note_on_c, 1, 55, 95
5, 26496, Note_on_c, 1, 48, 0
5, 26496, Note_on_c, 1, 60, 0
5, 26496, Note_on_c, 1, 65, 95
5, 26496, Note_on_c, 1, 55, 0
5, 26496, Note_on_c, 1, 53, 95
5, 26496, Note_on_c, 1, 60, 95
5, 26624, Note_on_c, 1, 65, 0
5, 26624, Note_on_c, 1, 53, 0
5, 26624, Note_on_c, 1, 60, 0
5, 26624, Note_on_c, 1, 56, 95
5, 26624, Note_on_c, 1, 51, 95
5, 26624, Note_on_c, 1, 44, 95
5, 26752, Note_on_c, 1, 56, 0
5, 26752, Note_on_c, 1, 51, 0
5, 26752, Note_on_c, 1, 44, 0
5, 26752, Note_on_c, 1, 46, 95
5, 26752, Note_on_c, 1, 53, 95
5, 26752, Note_on_c, 1, 58, 95
5, 26880, Note_on_c, 1, 46, 0
5, 26880, Note_on_c, 1, 53, 0
5, 26880, Note_on_c, 1, 48, 95
5, 26880, Note_on_c, 1, 58, 0
5, 26880, Note_on_c, 1, 60, 95
5, 26880, Note_on_c, 1, 55, 95
5, 27008, Note_on_c, 1, 48, 0
5, 27008, Note_on_c, 1, 60, 0
5, 27008, Note_on_c, 1, 48, 95
5, 27008, Note_on_c, 1, 55, 0
5, 27008, Note_on_c, 1, 55, 95
5, 27008, Note_on_c, 1, 60, 95
5, 27136, Note_on_c, 1, 48, 0
5, 27136, Note_on_c, 1, 55, 0
5, 27136, Note_on_c, 1, 60, 0
5, 27136, Note_on_c, 1, 55, 95
5, 27136, Note_on_c, 1, 48, 95
5, 27136, Note_on_c, 1, 60, 95
5, 27264, Note_on_c, 1, 55, 0
5, 27264, Note_on_c, 1, 48, 0
5, 27264, Note_on_c, 1, 60, 0
5, 27264, Note_on_c, 1, 65, 95
5, 27264, Note_on_c, 1, 53, 95
5, 27264, Note_on_c, 1, 60, 95
5, 27392, Note_on_c, 1, 65, 0
5, 27392, Note_on_c, 1, 53, 0
5, 27392, Note_on_c, 1, 53, 95
5, 27392, Note_on_c, 1, 60, 0
5, 27392, Note_on_c, 1, 65, 95
5, 27392, Note_on_c, 1, 60, 95
5, 27520, Note_on_c, 1, 53, 0
5, 27520, Note_on_c, 1, 65, 0
5, 27520, Note_on_c, 1, 60, 0
5, 27520, Note_on_c, 1, 60, 95
5, 27520, Note_on_c, 1, 53, 95
5, 27520, Note_on_c, 1, 65, 95
5, 27648, Note_on_c, 1, 60, 0
5, 27648, Note_on_c, 1, 53, 0
5, 27648, Note_on_c, 1, 55, 95
5, 27648, Note_on_c, 1, 65, 0
5, 27648, Note_on_c, 1, 48, 95
5, 27648, Note_on_c, 1, 60, 95
5, 27776, Note_on_c, 1, 55, 0
5, 27776, Note_on_c, 1, 48, 0
5, 27776, Note_on_c, 1, 60, 0
5, 27776, Note_on_c, 1, 48, 95
5, 27776, Note_on_c, 1, 60, 95
5, 27776, Note_on_c, 1, 55, 95
5, 27904, Note_on_c, 1, 48, 0
5, 27904, Note_on_c, 1, 60, 0
5, 27904, Note_on_c, 1, 48, 95
5, 27904, Note_on_c, 1, 55, 0
5, 27904, Note_on_c, 1, 55, 95
5, 27904, Note_on_c, 1, 60, 95
5, 28032, Note_on_c, 1, 48, 0
5, 28032, Note_on_c, 1, 55, 0
5, 28032, Note_on_c, 1, 60, 0
5, 28032, Note_on_c, 1, 53, 95
5, 28032, Note_on_c, 1, 60, 95
5, 28032, Note_on_c, 1, 65, 95
5, 28160, Note_on_c, 1, 53, 0
5, 28160, Note_on_c, 1, 60, 0
5, 28160, Note_on_c, 1, 51, 95
5, 28160, Note_on_c, 1, 65, 0
5, 28160, Note_on_c, 1, 44, 95
5, 28160, Note_on_c, 1, 56, 95
5, 28288, Note_on_c, 1, 51, 0
5, 28288, Note_on_c, 1, 44, 0
5, 28288, Note_on_c, 1, 56, 0
5, 28288, Note_on_c, 1, 53, 95
5, 28288, Note_on_c, 1, 58, 95
5, 28288, Note_on_c, 1, 46, 95
5, 28416, Note_on_c, 1, 53, 0
5, 28416, Note_on_c, 1, 58, 0
5, 28416, Note_on_c, 1, 46, 0
5, 28416, Note_on_c, 1, 48, 95
5, 28416, Note_on_c, 1, 55, 95
5, 28416, Note_on_c, 1, 60, 95
5, 28544, Note_on_c, 1, 48, 0
5, 28544, Note_on_c, 1, 55, 0
5, 28544, Note_on_c, 1, 48, 95
5, 28544, Note_on_c, 1, 60, 0
5, 28544, Note_on_c, 1, 60, 95
5, 28544, Note_on_c, 1, 55, 95
5, 28672, Note_on_c, 1, 48, 0
5, 28672, Note_on_c, 1, 60, 0
5, 28672, Note_on_c, 1, 55, 0
5, 28672, Note_on_c, 1, 60, 95
5, 28672, Note_on_c, 1, 55, 95
5, 28672, Note_on_c, 1, 48, 95
5, 28800, Note_on_c, 1, 60, 0
5, 28800, Note_on_c, 1, 55, 0
5, 28800, Note_on_c, 1, 60, 95
5, 28800, Note_on_c, 1, 48, 0
5, 28800, Note_on_c, 1, 65, 95
5, 28800, Note_on_c, 1, 53, 95
5, 28928, Note_on_c, 1, 60, 0
5, 28928, Note_on_c, 1, 65, 0
5, 28928, Note_on_c, 1, 53, 0
5, 28928, Note_on_c, 1, 65, 95
5, 28928, Note_on_c, 1, 60, 95
5, 28928, Note_on_c, 1, 53, 95
5, 29056, Note_on_c, 1, 65, 0
5, 29056, Note_on_c, 1, 60, 0
5, 29056, Note_on_c, 1, 53, 0
5, 29056, Note_on_c, 1, 60, 95
5, 29056, Note_on_c, 1, 53, 95
5, 29056, Note_on_c, 1, 65, 95
5, 29184, Note_on_c, 1, 60, 0
5, 29184, Note_on_c, 1, 53, 0
5, 29184, Note_on_c, 1, 48, 95
5, 29184, Note_on_c, 1, 65, 0
5, 29184, Note_on_c, 1, 55, 95
5, 29184, Note_on_c, 1, 60, 95
5, 29312, Note_on_c, 1, 48, 0
5, 29312, Note_on_c, 1, 55, 0
5, 29312, Note_on_c, 1, 60, 0
5, 29312, Note_on_c, 1, 60, 95
5, 29312, Note_on_c, 1, 48, 95
5, 29312, Note_on_c, 1, 55, 95
5, 29440, Note_on_c, 1, 60, 0
5, 29440, Note_on_c, 1, 48, 0
5, 29440, Note_on_c, 1, 60, 95
5, 29440, Note_on_c, 1, 55, 0
5, 29440, Note_on_c, 1, 55, 95
5, 29440, Note_on_c, 1, 48, 95
5, 29568, Note_on_c, 1, 60, 0
5, 29568, Note_on_c, 1, 55, 0
5, 29568, Note_on_c, 1, 48, 0
5, 29568, Note_on_c, 1, 65, 95
5, 29568, Note_on_c, 1, 60, 95
5, 29568, Note_on_c, 1, 53, 95
5, 29696, Note_on_c, 1, 65, 0
5, 29696, Note_on_c, 1, 60, 0
5, 29696, Note_on_c, 1, 44, 95
5, 29696, Note_on_c, 1, 53, 0
5, 29696, Note_on_c, 1, 51, 95
5, 29696, Note_on_c, 1, 56, 95
5, 29824, Note_on_c, 1, 44, 0
5, 29824, Note_on_c, 1, 51, 0
5, 29824, Note_on_c, 1, 56, 0
5, 29824, Note_on_c, 1, 58, 95
5, 29824, Note_on_c, 1, 53, 95
5, 29824, Note_on_c, 1, 46, 95
5, 29952, Note_on_c, 1, 58, 0
5, 29952, Note_on_c, 1, 53, 0
5, 29952, Note_on_c, 1, 48, 95
5, 29952, Note_on_c, 1, 46, 0
5, 29952, Note_on_c, 1, 55, 95
5, 29952, Note_on_c, 1, 60, 95
5, 30080, Note_on_c, 1, 48, 0
5, 30080, Note_on_c, 1, 55, 0
5, 30080, Note_on_c, 1, 60, 0
5, 30080, Note_on_c, 1, 60, 95
5, 30080, Note_on_c, 1, 48, 95
5, 30080, Note_on_c, 1, 55, 95
5, 30208, Note_on_c, 1, 60, 0
5, 30208, Note_on_c, 1, 48, 0
5, 30208, Note_on_c, 1, 55, 0
5, 30208, Note_on_c, 1, 55, 95
5, 30208, Note_on_c, 1, 60, 95
5, 30208, Note_on_c, 1, 48, 95
5, 30336, Note_on_c, 1, 55, 0
5, 30336, Note_on_c, 1, 60, 0
5, 30336, Note_on_c, 1, 48, 0
5, 30336, Note_on_c, 1, 53, 95
5, 30336, Note_on_c, 1, 60, 95
5, 30336, Note_on_c, 1, 65, 95
5, 30464, Note_on_c, 1, 53, 0
5, 30464, Note_on_c, 1, 60, 0
5, 30464, Note_on_c, 1, 65, 95
5, 30464, Note_on_c, 1, 65, 0
5, 30464, Note_on_c, 1, 60, 95
5, 30464, Note_on_c, 1, 53, 95
5, 30592, Note_on_c, 1, 65, 0
5, 30592, Note_on_c, 1, 60, 0
5, 30592, Note_on_c, 1, 53, 0
5, 30592, Note_on_c, 1, 53, 95
5, 30592, Note_on_c, 1, 65, 95
5, 30592, Note_on_c, 1, 60, 95
5, 30720, Note_on_c, 1, 53, 0
5, 30720, Note_on_c, 1, 65, 0
5, 30720, Note_on_c, 1, 60, 0
5, 30720, Note_on_c, 1, 60, 95
5, 30720, Note_on_c, 1, 55, 95
5, 30720, Note_on_c, 1, 48, 95
5, 30848, Note_on_c, 1, 60, 0
5, 30848, Note_on_c, 1, 55, 0
5, 30848, Note_on_c, 1, 48, 95
5, 30848, Note_on_c, 1, 48, 0
5, 30848, Note_on_c, 1, 55, 95
5, 30848, Note_on_c, 1, 60, 95
5, 30976, Note_on_c, 1, 48, 0
5, 30976, Note_on_c, 1, 55, 0
5, 30976, Note_on_c, 1, 60, 0
5, 30976, Note_on_c, 1, 60, 95
5, 30976, Note_on_c, 1, 48, 95
5, 30976, Note_on_c, 1, 55, 95
5, 31104, Note_on_c, 1, 60, 0
5, 31104, Note_on_c, 1, 48, 0
5, 31104, Note_on_c, 1, 53, 95
5, 31104, Note_on_c, 1, 55, 0
5, 31104, Note_on_c, 1, 65, 95
5, 31104, Note_on_c, 1, 60, 95
5, 31232, Note_on_c, 1, 53, 0
5, 31232, Note_on_c, 1, 65, 0
5, 31232, Note_on_c, 1, 60, 0
5, 31232, Note_on_c, 1, 51, 95
5, 31232, Note_on_c, 1, 44, 95
5, 31232, Note_on_c, 1, 56, 95
5, 31360, Note_on_c, 1, 51, 0
5, 31360, Note_on_c, 1, 44, 0
5, 31360, Note_on_c, 1, 46, 95
5, 31360, Note_on_c, 1, 56, 0
5, 31360, Note_on_c, 1, 58, 95
5, 31360, Note_on_c, 1, 53, 95
5, 31488, Note_on_c, 1, 46, 0
5, 31488, Note_on_c, 1, 58, 0
5, 31488, Note_on_c, 1, 53, 0
5, 31488, Note_on_c, 1, 55, 95
5, 31488, Note_on_c, 1, 48, 95
5, 31488, Note_on_c, 1, 60, 95
5, 31616, Note_on_c, 1, 55, 0
5, 31616, Note_on_c, 1, 48, 0
5, 31616, Note_on_c, 1, 60, 95
5, 31616, Note_on_c, 1, 60, 0
5, 31616, Note_on_c, 1, 55, 95
5, 31616, Note_on_c, 1, 48, 95
5, 31744, Note_on_c, 1, 60, 0
5, 31744, Note_on_c, 1, 55, 0
5, 31744, Note_on_c, 1, 48, 0
5, 31744, Note_on_c, 1, 55, 95
5, 31744, Note_on_c, 1, 48, 95
5, 31744, Note_on_c, 1, 60, 95
5, 31872, Note_on_c, 1, 55, 0
5, 31872, Note_on_c, 1, 48, 0
5, 31872, Note_on_c, 1, 60, 0
5, 31872, Note_on_c, 1, 60, 95
5, 31872, Note_on_c, 1, 53, 95
5, 31872, Note_on_c, 1, 65, 95
5, 32000, Note_on_c, 1, 60, 0
5, 32000, Note_on_c, 1, 53, 0
5, 32000, Note_on_c, 1, 60, 95
5, 32000, Note_on_c, 1, 65, 0
5, 32000, Note_on_c, 1, 65, 95
5, 32000, Note_on_c, 1, 53, 95
5, 32128, Note_on_c, 1, 60, 0
5, 32128, Note_on_c, 1, 65, 0
5, 32128, Note_on_c, 1, 53, 0
5, 32128, Note_on_c, 1, 65, 95
5, 32128, Note_on_c, 1, 60, 95
5, 32128, Note_on_c, 1, 53, 95
5, 32256, Note_on_c, 1, 65, 0
5, 32256, Note_on_c, 1, 60, 0
5, 32256, Note_on_c, 1, 55, 95
5, 32256, Note_on_c, 1, 53, 0
5, 32256, Note_on_c, 1, 48, 95
5, 32256, Note_on_c, 1, 60, 95
5, 32384, Note_on_c, 1, 55, 0
5, 32384, Note_on_c, 1, 48, 0
5, 32384, Note_on_c, 1, 60, 0
5, 32384, Note_on_c, 1, 60, 95
5, 32384, Note_on_c, 1, 55, 95
5, 32384, Note_on_c, 1, 48, 95
5, 32512, Note_on_c, 1, 60, 0
5, 32512, Note_on_c, 1, 55, 0
5, 32512, Note_on_c, 1, 48, 0
5, 32512, Note_on_c, 1, 55, 95
5, 32512, Note_on_c, 1, 48, 95
5, 32512, Note_on_c, 1, 60, 95
5, 32640, Note_on_c, 1, 55, 0
5, 32640, Note_on_c, 1, 48, 0
5, 32640, Note_on_c, 1, 65, 95
5, 32640, Note_on_c, 1, 60, 0
5, 32640, Note_on_c, 1, 53, 95
5, 32640, Note_on_c, 1, 60, 95
5, 32768, Note_on_c, 1, 65, 0
5, 32768, Note_on_c, 1, 53, 0
5, 32768, Note_on_c, 1, 60, 0
5, 32768, Note_on_c, 1, 56, 95
5, 32768, Note_on_c, 1, 44, 95
5, 32768, Note_on_c, 1, 51, 95
5, 32896, Note_on_c, 1, 56, 0
5, 32896, Note_on_c, 1, 44, 0
5, 32896, Note_on_c, 1, 51, 0
5, 32896, Note_on_c, 1, 53, 95
5, 32896, Note_on_c, 1, 46, 95
5, 32896, Note_on_c, 1, 58, 95
5, 33024, Note_on_c, 1, 53, 0
5, 33024, Note_on_c, 1, 46, 0
5, 33024, Note_on_c, 1, 58, 0
5, 33024, Note_on_c, 1, 55, 95
5, 33024, Note_on_c, 1, 48, 95
5, 33024, Note_on_c, 1, 60, 95
5, 33152, Note_on_c, 1, 55, 0
5, 33152, Note_on_c, 1, 48, 0
5, 33152, Note_on_c, 1, 48, 95
5, 33152, Note_on_c, 1, 60, 0
5, 33152, Note_on_c, 1, 55, 95
5, 33152, Note_on_c, 1, 60, 95
5, 33280, Note_on_c, 1, 48, 0
5, 33280, Note_on_c, 1, 55, 0
5, 33280, Note_on_c, 1, 60, 0
5, 33280, Note_on_c, 1, 55, 95
5, 33280, Note_on_c, 1, 60, 95
5, 33280, Note_on_c, 1, 48, 95
5, 33408, Note_on_c, 1, 55, 0
5, 33408, Note_on_c, 1, 60, 0
5, 33408, Note_on_c, 1, 65, 95
5, 33408, Note_on_c, 1, 48, 0
5, 33408, Note_on_c, 1, 60, 95
5, 33408, Note_on_c, 1, 53, 95
5, 33536, Note_on_c, 1, 65, 0
5, 33536, Note_on_c, 1, 60, 0
5, 33536, Note_on_c, 1, 53, 0
5, 33536, Note_on_c, 1, 60, 95
5, 33536, Note_on_c, 1, 53, 95
5, 33536, Note_on_c, 1, 65, 95
5, 33664, Note_on_c, 1, 60, 0
5, 33664, Note_on_c, 1, 53, 0
5, 33664, Note_on_c, 1, 65, 95
5, 33664, Note_on_c, 1, 65, 0
5, 33664, Note_on_c, 1, 60, 95
5, 33664, Note_on_c, 1, 53, 95
5, 33792, Note_on_c, 1, 65, 0
5, 33792, Note_on_c, 1, 60, 0
5, 33792, Note_on_c, 1, 53, 0
5, 33792, Note_on_c, 1, 60, 95
5, 33792, Note_on_c, 1, 55, 95
5, 33792, Note_on_c, 1, 48, 95
5, 33920, Note_on_c, 1, 60, 0
5, 33920, Note_on_c, 1, 55, 0
5, 33920, Note_on_c, 1, 48, 95
5, 33920, Note_on_c, 1, 48, 0
5, 33920, Note_on_c, 1, 55, 95
5, 33920, Note_on_c, 1, 60, 95
5, 34048, Note_on_c, 1, 48, 0
5, 34048, Note_on_c, 1, 55, 0
5, 34048, Note_on_c, 1, 60, 0
5, 34048, Note_on_c, 1, 48, 95
5, 34048, Note_on_c, 1, 60, 95
5, 34048, Note_on_c, 1, 55, 95
5, 34176, Note_on_c, 1, 48, 0
5, 34176, Note_on_c, 1, 60, 0
5, 34176, Note_on_c, 1, 55, 0
5, 34176, Note_on_c, 1, 53, 95
5, 34176, Note_on_c, 1, 60, 95
5, 34176, Note_on_c, 1, 65, 95
5, 34304, Note_on_c, 1, 53, 0
5, 34304, Note_on_c, 1, 60, 0
5, 34304, Note_on_c, 1, 56, 95
5, 34304, Note_on_c, 1, 65, 0
5, 34304, Note_on_c, 1, 44, 95
5, 34304, Note_on_c, 1, 51, 95
5, 34432, Note_on_c, 1, 56, 0
5, 34432, Note_on_c, 1, 44, 0
5, 34432, Note_on_c, 1, 51, 0
5, 34432, Note_on_c, 1, 46, 95
5, 34432, Note_on_c, 1, 58, 95
5, 34432, Note_on_c, 1, 53, 95
5, 34560, Note_on_c, 1, 46, 0
5, 34560, Note_on_c, 1, 58, 0
5, 34560, Note_on_c, 1, 53, 0
5, 49920, Note_on_c, 1, 60, 95
5, 49920, Note_on_c, 1, 65, 95
5, 49920, Note_on_c, 1, 53, 95
5, 50304, Note_on_c, 1, 60, 0
5, 50344, Note_on_c, 1, 65, 0
5, 50344, Note_on_c, 1, 53, 0
5, 50400, Note_on_c, 1, 51, 95
5, 50400, Note_on_c, 1, 63, 95
5, 50400, Note_on_c, 1, 58, 95
5, 50528, Note_on_c, 1, 51, 0
5, 50528, Note_on_c, 1, 63, 0
5, 50528, Note_on_c, 1, 58, 0
5, 50560, Note_on_c, 1, 48, 95
5, 50560, Note_on_c, 1, 55, 95
5, 50560, Note_on_c, 1, 60, 95
5, 50640, Note_on_c, 1, 60, 0
5, 50664, Note_on_c, 1, 48, 0
5, 50664, Note_on_c, 1, 55, 0
5, 50688, Note_on_c, 1, 53, 95
5, 50688, Note_on_c, 1, 60, 95
5, 50688, Note_on_c, 1, 65, 95
5, 51072, Note_on_c, 1, 60, 0
5, 51112, Note_on_c, 1, 65, 0
5, 51128, Note_on_c, 1, 53, 0
5, 51168, Note_on_c, 1, 58, 95
5, 51168, Note_on_c, 1, 51, 95
5, 51168, Note_on_c, 1, 63, 95
5, 51296, Note_on_c, 1, 58, 0
5, 51296, Note_on_c, 1, 51, 0
5, 51296, Note_on_c, 1, 63, 0
5, 51328, Note_on_c, 1, 48, 95
5, 51328, Note_on_c, 1, 55, 95
5, 51328, Note_on_c, 1, 60, 95
5, 51424, Note_on_c, 1, 55, 0
5, 51432, Note_on_c, 1, 48, 0
5, 51432, Note_on_c, 1, 60, 0
5, 51456, Note_on_c, 1, 60, 95
5, 51456, Note_on_c, 1, 55, 95
5, 51456, Note_on_c, 1, 48, 95
5, 51680, Note_on_c, 1, 48, 0
5, 51688, Note_on_c, 1, 60, 0
5, 51696, Note_on_c, 1, 55, 0
5, 51712, Note_on_c, 1, 51, 95
5, 51712, Note_on_c, 1, 58, 95
5, 51712, Note_on_c, 1, 63, 95
5, 51816, Note_on_c, 1, 51, 0
5, 51816, Note_on_c, 1, 58, 0
5, 51816, Note_on_c, 1, 63, 0
5, 51840, Note_on_c, 1, 66, 95
5, 51840, Note_on_c, 1, 61, 95
5, 51840, Note_on_c, 1, 54, 95
5, 51928, Note_on_c, 1, 61, 0
5, 51928, Note_on_c, 1, 54, 0
5, 51936, Note_on_c, 1, 66, 0
5, 51968, Note_on_c, 1, 61, 95
5, 51968, Note_on_c, 1, 66, 95
5, 51968, Note_on_c, 1, 54, 95
5, 52040, Note_on_c, 1, 54, 0
5, 52064, Note_on_c, 1, 61, 0
5, 52064, Note_on_c, 1, 66, 0
5, 52096, Note_on_c, 1, 61, 95
5, 52096, Note_on_c, 1, 66, 95
5, 52096, Note_on_c, 1, 54, 95
5, 52192, Note_on_c, 1, 61, 0
5, 52192, Note_on_c, 1, 66, 0
5, 52192, Note_on_c, 1, 54, 0
5, 52224, Note_on_c, 1, 55, 95
5, 52224, Note_on_c, 1, 60, 95
5, 52224, Note_on_c, 1, 48, 95
5, 52440, Note_on_c, 1, 55, 0
5, 52440, Note_on_c, 1, 48, 0
5, 52448, Note_on_c, 1, 60, 0
5, 52480, Note_on_c, 1, 51, 95
5, 52480, Note_on_c, 1, 63, 95
5, 52480, Note_on_c, 1, 58, 95
5, 52584, Note_on_c, 1, 63, 0
5, 52584, Note_on_c, 1, 58, 0
5, 52600, Note_on_c, 1, 51, 0
5, 52608, Note_on_c, 1, 54, 95
5, 52608, Note_on_c, 1, 66, 95
5, 52608, Note_on_c, 1, 61, 95
5, 52704, Note_on_c, 1, 54, 0
5, 52704, Note_on_c, 1, 66, 0
5, 52704, Note_on_c, 1, 61, 0
5, 52736, Note_on_c, 1, 61, 95
5, 52736, Note_on_c, 1, 54, 95
5, 52736, Note_on_c, 1, 66, 95
5, 52824, Note_on_c, 1, 54, 0
5, 52832, Note_on_c, 1, 61, 0
5, 52840, Note_on_c, 1, 66, 0
5, 52864, Note_on_c, 1, 54, 95
5, 52864, Note_on_c, 1, 61, 95
5, 52864, Note_on_c, 1, 66, 95
5, 52960, Note_on_c, 1, 54, 0
5, 52960, Note_on_c, 1, 61, 0
5, 52960, Note_on_c, 1, 66, 0
5, 52992, Note_on_c, 1, 60, 95
5, 52992, Note_on_c, 1, 65, 95
5, 52992, Note_on_c, 1, 53, 95
5, 53376, Note_on_c, 1, 60, 0
5, 53416, Note_on_c, 1, 65, 0
5, 53416, Note_on_c, 1, 53, 0
5, 53472, Note_on_c, 1, 58, 95
5, 53472, Note_on_c, 1, 51, 95
5, 53472, Note_on_c, 1, 63, 95
5, 53600, Note_on_c, 1, 58, 0
5, 53600, Note_on_c, 1, 51, 0
5, 53600, Note_on_c, 1, 63, 0
5, 53632, Note_on_c, 1, 60, 95
5, 53632, Note_on_c, 1, 55, 95
5, 53632, Note_on_c, 1, 48, 95
5, 53736, Note_on_c, 1, 55, 0
5, 53736, Note_on_c, 1, 48, 0
5, 53744, Note_on_c, 1, 60, 0
5, 53760, Note_on_c, 1, 60, 95
5, 53760, Note_on_c, 1, 65, 95
5, 53760, Note_on_c, 1, 53, 95
5, 54144, Note_on_c, 1, 60, 0
5, 54184, Note_on_c, 1, 65, 0
5, 54200, Note_on_c, 1, 53, 0
5, 54240, Note_on_c, 1, 63, 95
5, 54240, Note_on_c, 1, 51, 95
5, 54240, Note_on_c, 1, 58, 95
5, 54368, Note_on_c, 1, 63, 0
5, 54368, Note_on_c, 1, 51, 0
5, 54368, Note_on_c, 1, 58, 0
5, 54400, Note_on_c, 1, 48, 95
5, 54400, Note_on_c, 1, 60, 95
5, 54400, Note_on_c, 1, 55, 95
5, 54496, Note_on_c, 1, 55, 0
5, 54504, Note_on_c, 1, 48, 0
5, 54504, Note_on_c, 1, 60, 0
5, 54528, Note_on_c, 1, 55, 95
5, 54528, Note_on_c, 1, 60, 95
5, 54528, Note_on_c, 1, 48, 95
5, 54736, Note_on_c, 1, 55, 0
5, 54736, Note_on_c, 1, 48, 0
5, 54760, Note_on_c, 1, 60, 0
5, 54784, Note_on_c, 1, 63, 95
5, 54784, Note_on_c, 1, 51, 95
5, 54784, Note_on_c, 1, 58, 95
5, 54864, Note_on_c, 1, 58, 0
5, 54880, Note_on_c, 1, 63, 0
5, 54896, Note_on_c, 1, 51, 0
5, 54912, Note_on_c, 1, 66, 95
5, 54912, Note_on_c, 1, 61, 95
5, 54912, Note_on_c, 1, 54, 95
5, 55000, Note_on_c, 1, 61, 0
5, 55000, Note_on_c, 1, 54, 0
5, 55008, Note_on_c, 1, 66, 0
5, 55040, Note_on_c, 1, 61, 95
5, 55040, Note_on_c, 1, 54, 95
5, 55040, Note_on_c, 1, 66, 95
5, 55112, Note_on_c, 1, 54, 0
5, 55136, Note_on_c, 1, 61, 0
5, 55136, Note_on_c, 1, 66, 0
5, 55168, Note_on_c, 1, 54, 95
5, 55168, Note_on_c, 1, 61, 95
5, 55168, Note_on_c, 1, 66, 95
5, 55264, Note_on_c, 1, 54, 0
5, 55264, Note_on_c, 1, 61, 0
5, 55264, Note_on_c, 1, 66, 0
5, 55296, Note_on_c, 1, 48, 95
5, 55296, Note_on_c, 1, 55, 95
5, 55296, Note_on_c, 1, 60, 95
5, 55512, Note_on_c, 1, 48, 0
5, 55512, Note_on_c, 1, 55, 0
5, 55520, Note_on_c, 1, 60, 0
5, 55552, Note_on_c, 1, 51, 95
5, 55552, Note_on_c, 1, 63, 95
5, 55552, Note_on_c, 1, 58, 95
5, 55648, Note_on_c, 1, 63, 0
5, 55656, Note_on_c, 1, 51, 0
5, 55656, Note_on_c, 1, 58, 0
5, 55680, Note_on_c, 1, 66, 95
5, 55680, Note_on_c, 1, 61, 95
5, 55680, Note_on_c, 1, 54, 95
5, 55776, Note_on_c, 1, 66, 0
5, 55776, Note_on_c, 1, 61, 0
5, 55776, Note_on_c, 1, 54, 0
5, 55808, Note_on_c, 1, 54, 95
5, 55808, Note_on_c, 1, 61, 95
5, 55808, Note_on_c, 1, 66, 95
5, 55896, Note_on_c, 1, 54, 0
5, 55904, Note_on_c, 1, 61, 0
5, 55912, Note_on_c, 1, 66, 0
5, 55936, Note_on_c, 1, 61, 95
5, 55936, Note_on_c, 1, 66, 95
5, 55936, Note_on_c, 1, 54, 95
5, 56032, Note_on_c, 1, 61, 0
5, 56032, Note_on_c, 1, 66, 0
5, 56032, Note_on_c, 1, 54, 0
5, 56064, Note_on_c, 1, 53, 95
5, 56064, Note_on_c, 1, 60, 95
5, 56064, Note_on_c, 1, 65, 95
5, 56448, Note_on_c, 1, 60, 0
5, 56488, Note_on_c, 1, 53, 0
5, 56488, Note_on_c, 1, 65, 0
5, 56544, Note_on_c, 1, 51, 95
5, 56544, Note_on_c, 1, 63, 95
5, 56544, Note_on_c, 1, 58, 95
5, 56672, Note_on_c, 1, 51, 0
5, 56672, Note_on_c, 1, 63, 0
5, 56672, Note_on_c, 1, 58, 0
5, 56704, Note_on_c, 1, 48, 95
5, 56704, Note_on_c, 1, 60, 95
5, 56704, Note_on_c, 1, 55, 95
5, 56808, Note_on_c, 1, 48, 0
5, 56808, Note_on_c, 1, 55, 0
5, 56816, Note_on_c, 1, 60, 0
5, 56832, Note_on_c, 1, 65, 95
5, 56832, Note_on_c, 1, 53, 95
5, 56832, Note_on_c, 1, 60, 95
5, 57216, Note_on_c, 1, 60, 0
5, 57256, Note_on_c, 1, 65, 0
5, 57272, Note_on_c, 1, 53, 0
5, 57312, Note_on_c, 1, 58, 95
5, 57312, Note_on_c, 1, 63, 95
5, 57312, Note_on_c, 1, 51, 95
5, 57440, Note_on_c, 1, 58, 0
5, 57440, Note_on_c, 1, 63, 0
5, 57440, Note_on_c, 1, 51, 0
5, 57472, Note_on_c, 1, 48, 95
5, 57472, Note_on_c, 1, 60, 95
5, 57472, Note_on_c, 1, 55, 95
5, 57568, Note_on_c, 1, 55, 0
5, 57576, Note_on_c, 1, 48, 0
5, 57576, Note_on_c, 1, 60, 0
5, 57600, Note_on_c, 1, 48, 95
5, 57600, Note_on_c, 1, 55, 95
5, 57600, Note_on_c, 1, 60, 95
5, 57824, Note_on_c, 1, 48, 0
5, 57824, Note_on_c, 1, 55, 0
5, 57832, Note_on_c, 1, 60, 0
5, 57856, Note_on_c, 1, 63, 95
5, 57856, Note_on_c, 1, 58, 95
5, 57856, Note_on_c, 1, 51, 95
5, 57952, Note_on_c, 1, 58, 0
5, 57960, Note_on_c, 1, 63, 0
5, 57960, Note_on_c, 1, 51, 0
5, 57984, Note_on_c, 1, 54, 95
5, 57984, Note_on_c, 1, 66, 95
5, 57984, Note_on_c, 1, 61, 95
5, 58072, Note_on_c, 1, 54, 0
5, 58072, Note_on_c, 1, 61, 0
5, 58080, Note_on_c, 1, 66, 0
5, 58112, Note_on_c, 1, 54, 95
5, 58112, Note_on_c, 1, 66, 95
5, 58112, Note_on_c, 1, 61, 95
5, 58184, Note_on_c, 1, 54, 0
5, 58208, Note_on_c, 1, 66, 0
5, 58208, Note_on_c, 1, 61, 0
5, 58240, Note_on_c, 1, 54, 95
5, 58240, Note_on_c, 1, 61, 95
5, 58240, Note_on_c, 1, 66, 95
5, 58336, Note_on_c, 1, 54, 0
5, 58336, Note_on_c, 1, 61, 0
5, 58336, Note_on_c, 1, 66, 0
5, 58368, Note_on_c, 1, 60, 95
5, 58368, Note_on_c, 1, 48, 95
5, 58368, Note_on_c, 1, 55, 95
5, 58584, Note_on_c, 1, 48, 0
5, 58584, Note_on_c, 1, 55, 0
5, 58592, Note_on_c, 1, 60, 0
5, 58624, Note_on_c, 1, 51, 95
5, 58624, Note_on_c, 1, 63, 95
5, 58624, Note_on_c, 1, 58, 95
5, 58728, Note_on_c, 1, 51, 0
5, 58728, Note_on_c, 1, 63, 0
5, 58728, Note_on_c, 1, 58, 0
5, 58752, Note_on_c, 1, 66, 95
5, 58752, Note_on_c, 1, 61, 95
5, 58752, Note_on_c, 1, 54, 95
5, 58848, Note_on_c, 1, 66, 0
5, 58848, Note_on_c, 1, 61, 0
5, 58848, Note_on_c, 1, 54, 0
5, 58880, Note_on_c, 1, 54, 95
5, 58880, Note_on_c, 1, 61, 95
5, 58880, Note_on_c, 1, 66, 95
5, 58968, Note_on_c, 1, 54, 0
5, 58976, Note_on_c, 1, 61, 0
5, 58984, Note_on_c, 1, 66, 0
5, 59008, Note_on_c, 1, 54, 95
5, 59008, Note_on_c, 1, 61, 95
5, 59008, Note_on_c, 1, 66, 95
5, 59104, Note_on_c, 1, 54, 0
5, 59104, Note_on_c, 1, 61, 0
5, 59104, Note_on_c, 1, 66, 0
5, 59136, Note_on_c, 1, 60, 95
5, 59136, Note_on_c, 1, 53, 95
5, 59136, Note_on_c, 1, 65, 95
5, 59520, Note_on_c, 1, 60, 0
5, 59560, Note_on_c, 1, 53, 0
5, 59560, Note_on_c, 1, 65, 0
5, 59616, Note_on_c, 1, 63, 95
5, 59616, Note_on_c, 1, 58, 95
5, 59616, Note_on_c, 1, 51, 95
5, 59744, Note_on_c, 1, 63, 0
5, 59744, Note_on_c, 1, 58, 0
5, 59744, Note_on_c, 1, 51, 0
5, 59776, Note_on_c, 1, 55, 95
5, 59776, Note_on_c, 1, 60, 95
5, 59776, Note_on_c, 1, 48, 95
5, 59880, Note_on_c, 1, 55, 0
5, 59880, Note_on_c, 1, 48, 0
5, 59888, Note_on_c, 1, 60, 0
5, 59904, Note_on_c, 1, 53, 95
5, 59904, Note_on_c, 1, 60, 95
5, 59904, Note_on_c, 1, 65, 95
5, 60288, Note_on_c, 1, 60, 0
5, 60328, Note_on_c, 1, 65, 0
5, 60344, Note_on_c, 1, 53, 0
5, 60384, Note_on_c, 1, 63, 95
5, 60384, Note_on_c, 1, 51, 95
5, 60384, Note_on_c, 1, 58, 95
5, 60512, Note_on_c, 1, 63, 0
5, 60512, Note_on_c, 1, 51, 0
5, 60512, Note_on_c, 1, 58, 0
5, 60544, Note_on_c, 1, 48, 95
5, 60544, Note_on_c, 1, 55, 95
5, 60544, Note_on_c, 1, 60, 95
5, 60640, Note_on_c, 1, 55, 0
5, 60648, Note_on_c, 1, 48, 0
5, 60648, Note_on_c, 1, 60, 0
5, 60672, Note_on_c, 1, 48, 95
5, 60672, Note_on_c, 1, 55, 95
5, 60672, Note_on_c, 1, 60, 95
5, 60896, Note_on_c, 1, 48, 0
5, 60896, Note_on_c, 1, 55, 0
5, 60904, Note_on_c, 1, 60, 0
5, 60928, Note_on_c, 1, 51, 95
5, 60928, Note_on_c, 1, 58, 95
5, 60928, Note_on_c, 1, 63, 95
5, 61024, Note_on_c, 1, 51, 0
5, 61032, Note_on_c, 1, 58, 0
5, 61032, Note_on_c, 1, 63, 0
5, 61056, Note_on_c, 1, 66, 95
5, 61056, Note_on_c, 1, 61, 95
5, 61056, Note_on_c, 1, 54, 95
5, 61144, Note_on_c, 1, 61, 0
5, 61144, Note_on_c, 1, 54, 0
5, 61152, Note_on_c, 1, 66, 0
5, 61184, Note_on_c, 1, 54, 95
5, 61184, Note_on_c, 1, 66, 95
5, 61184, Note_on_c, 1, 61, 95
5, 61256, Note_on_c, 1, 54, 0
5, 61280, Note_on_c, 1, 66, 0
5, 61280, Note_on_c, 1, 61, 0
5, 61312, Note_on_c, 1, 61, 95
5, 61312, Note_on_c, 1, 54, 95
5, 61312, Note_on_c, 1, 66, 95
5, 61408, Note_on_c, 1, 61, 0
5, 61408, Note_on_c, 1, 54, 0
5, 61408, Note_on_c, 1, 66, 0
5, 61440, Note_on_c, 1, 61, 95
5, 61440, Note_on_c, 1, 54, 95
5, 61440, Note_on_c, 1, 66, 95
5, 61523, Note_on_c, 1, 61, 0
5, 61523, Note_on_c, 1, 54, 0
5, 61523, Note_on_c, 1, 66, 0
5, 61568, Note_on_c, 1, 66, 95
5, 61568, Note_on_c, 1, 54, 95
5, 61568, Note_on_c, 1, 61, 95
5, 61651, Note_on_c, 1, 66, 0
5, 61651, Note_on_c, 1, 54, 0
5, 61651, Note_on_c, 1, 61, 0
5, 61696, Note_on_c, 1, 54, 95
5, 61696, Note_on_c, 1, 66, 95
5, 61696, Note_on_c, 1, 61, 95
5, 61779, Note_on_c, 1, 54, 0
5, 61779, Note_on_c, 1, 66, 0
5, 61779, Note_on_c, 1, 61, 0
5, 61824, Note_on_c, 1, 66, 95
5, 61824, Note_on_c, 1, 61, 95
5, 61824, Note_on_c, 1, 54, 95
5, 61907, Note_on_c, 1, 66, 0
5, 61907, Note_on_c, 1, 61, 0
5, 61907, Note_on_c, 1, 54, 0
5, 61952, Note_on_c, 1, 61, 95
5, 61952, Note_on_c, 1, 66, 95
5, 61952, Note_on_c, 1, 54, 95
5, 62035, Note_on_c, 1, 61, 0
5, 62035, Note_on_c, 1, 66, 0
5, 62035, Note_on_c, 1, 54, 0
5, 62080, Note_on_c, 1, 54, 95
5, 62080, Note_on_c, 1, 61, 95
5, 62080, Note_on_c, 1, 66, 95
5, 62163, Note_on_c, 1, 54, 0
5, 62163, Note_on_c, 1, 61, 0
5, 62163, Note_on_c, 1, 66, 0
5, 62208, Note_on_c, 1, 60, 95
5, 62208, Note_on_c, 1, 53, 95
5, 62208, Note_on_c, 1, 65, 95
5, 62624, Note_on_c, 1, 60, 0
5, 62648, Note_on_c, 1, 53, 0
5, 62648, Note_on_c, 1, 65, 0
5, 62688, Note_on_c, 1, 51, 95
5, 62688, Note_on_c, 1, 58, 95
5, 62688, Note_on_c, 1, 63, 95
5, 62792, Note_on_c, 1, 58, 0
5, 62792, Note_on_c, 1, 63, 0
5, 62800, Note_on_c, 1, 51, 0
5, 62816, Note_on_c, 1, 55, 95
5, 62816, Note_on_c, 1, 48, 95
5, 62816, Note_on_c, 1, 60, 95
5, 62944, Note_on_c, 1, 55, 0
5, 62944, Note_on_c, 1, 48, 0
5, 62952, Note_on_c, 1, 60, 0
5, 62976, Note_on_c, 1, 65, 95
5, 62976, Note_on_c, 1, 60, 95
5, 62976, Note_on_c, 1, 53, 95
5, 63360, Note_on_c, 1, 60, 0
5, 63392, Note_on_c, 1, 53, 0
5, 63408, Note_on_c, 1, 65, 0
5, 63456, Note_on_c, 1, 51, 95
5, 63456, Note_on_c, 1, 63, 95
5, 63456, Note_on_c, 1, 58, 95
5, 63560, Note_on_c, 1, 63, 0
5, 63568, Note_on_c, 1, 51, 0
5, 63568, Note_on_c, 1, 58, 0
5, 63584, Note_on_c, 1, 60, 95
5, 63584, Note_on_c, 1, 55, 95
5, 63584, Note_on_c, 1, 48, 95
5, 63712, Note_on_c, 1, 55, 0
5, 63744, Note_on_c, 1, 60, 0
5, 63744, Note_on_c, 1, 55, 95
5, 63744, Note_on_c, 1, 48, 0
5, 63744, Note_on_c, 1, 48, 95
5, 63744, Note_on_c, 1, 60, 95
5, 63936, Note_on_c, 1, 55, 0
5, 63936, Note_on_c, 1, 48, 0
5, 63936, Note_on_c, 1, 60, 0
5, 63936, Note_on_c, 1, 55, 95
5, 63936, Note_on_c, 1, 60, 95
5, 63936, Note_on_c, 1, 48, 95
5, 64128, Note_on_c, 1, 55, 0
5, 64128, Note_on_c, 1, 60, 0
5, 64128, Note_on_c, 1, 53, 95
5, 64128, Note_on_c, 1, 48, 0
5, 64128, Note_on_c, 1, 46, 95
5, 64128, Note_on_c, 1, 58, 95
5, 64320, Note_on_c, 1, 53, 0
5, 64320, Note_on_c, 1, 46, 0
5, 64320, Note_on_c, 1, 58, 0
5, 64320, Note_on_c, 1, 58, 95
5, 64320, Note_on_c, 1, 53, 95
5, 64320, Note_on_c, 1, 46, 95
5, 64403, Note_on_c, 1, 53, 0
5, 64512, Note_on_c, 1, 58, 0
5, 64512, Note_on_c, 1, 56, 95
5, 64512, Note_on_c, 1, 46, 0
5, 64512, Note_on_c, 1, 44, 95
5, 64512, Note_on_c, 1, 51, 95
5, 64595, Note_on_c, 1, 56, 0
5, 64595, Note_on_c, 1, 44, 0
5, 64595, Note_on_c, 1, 51, 0
5, 64608, Note_on_c, 1, 51, 95
5, 64608, Note_on_c, 1, 56, 95
5, 64608, Note_on_c, 1, 44, 95
5, 64800, Note_on_c, 1, 51, 0
5, 64800, Note_on_c, 1, 56, 0
5, 64800, Note_on_c, 1, 44, 0
5, 64800, Note_on_c, 1, 43, 95
5, 64800, Note_on_c, 1, 55, 95
5, 64800, Note_on_c, 1, 50, 95
5, 64896, Note_on_c, 1, 43, 0
5, 64896, Note_on_c, 1, 55, 0
5, 64896, Note_on_c, 1, 50, 0
5, 64896, End_track
6, 0, Start_track
6, 0, Title_t, "OD/GTR"
6, 0, Channel_prefix, 2
6, 192, Control_c, 2, 7, 120
6, 288, Control_c, 2, 10, 112
6, 384, Control_c, 2, 0, 0
6, 384, Control_c, 2, 91, 64
6, 480, Control_c, 2, 93, 32
6, 576, Program_c, 2, 29
6, 768, Pitch_bend_c, 2, 8192
6, 9984, Note_on_c, 2, 53, 95
6, 9984, Note_on_c, 2, 60, 95
6, 9984, Note_on_c, 2, 65, 95
6, 10368, Note_on_c, 2, 60, 0
6, 10416, Note_on_c, 2, 53, 0
6, 10416, Note_on_c, 2, 65, 0
6, 10464, Note_on_c, 2, 63, 95
6, 10464, Note_on_c, 2, 51, 95
6, 10464, Note_on_c, 2, 58, 95
6, 10592, Note_on_c, 2, 63, 0
6, 10592, Note_on_c, 2, 51, 0
6, 10592, Note_on_c, 2, 58, 0
6, 10624, Note_on_c, 2, 48, 95
6, 10624, Note_on_c, 2, 60, 95
6, 10624, Note_on_c, 2, 55, 95
6, 10720, Note_on_c, 2, 48, 0
6, 10720, Note_on_c, 2, 60, 0
6, 10720, Note_on_c, 2, 55, 0
6, 10752, Note_on_c, 2, 60, 95
6, 10752, Note_on_c, 2, 53, 95
6, 10752, Note_on_c, 2, 65, 95
6, 11136, Note_on_c, 2, 60, 0
6, 11168, Note_on_c, 2, 53, 0
6, 11184, Note_on_c, 2, 65, 0
6, 11232, Note_on_c, 2, 51, 95
6, 11232, Note_on_c, 2, 58, 95
6, 11232, Note_on_c, 2, 63, 95
6, 11360, Note_on_c, 2, 51, 0
6, 11360, Note_on_c, 2, 58, 0
6, 11360, Note_on_c, 2, 63, 0
6, 11392, Note_on_c, 2, 60, 95
6, 11392, Note_on_c, 2, 55, 95
6, 11392, Note_on_c, 2, 48, 95
6, 11480, Note_on_c, 2, 60, 0
6, 11488, Note_on_c, 2, 55, 0
6, 11488, Note_on_c, 2, 48, 0
6, 11520, Note_on_c, 2, 48, 95
6, 11520, Note_on_c, 2, 60, 95
6, 11520, Note_on_c, 2, 55, 95
6, 11736, Note_on_c, 2, 48, 0
6, 11736, Note_on_c, 2, 60, 0
6, 11736, Note_on_c, 2, 55, 0
6, 11776, Note_on_c, 2, 58, 95
6, 11776, Note_on_c, 2, 51, 95
6, 11776, Note_on_c, 2, 63, 95
6, 11872, Note_on_c, 2, 51, 0
6, 11872, Note_on_c, 2, 63, 0
6, 11880, Note_on_c, 2, 58, 0
6, 11904, Note_on_c, 2, 54, 95
6, 11904, Note_on_c, 2, 66, 95
6, 11904, Note_on_c, 2, 61, 95
6, 11992, Note_on_c, 2, 54, 0
6, 12000, Note_on_c, 2, 66, 0
6, 12000, Note_on_c, 2, 61, 0
6, 12032, Note_on_c, 2, 66, 95
6, 12032, Note_on_c, 2, 54, 95
6, 12032, Note_on_c, 2, 61, 95
6, 12120, Note_on_c, 2, 54, 0
6, 12120, Note_on_c, 2, 61, 0
6, 12128, Note_on_c, 2, 66, 0
6, 12160, Note_on_c, 2, 66, 95
6, 12160, Note_on_c, 2, 54, 95
6, 12160, Note_on_c, 2, 61, 95
6, 12256, Note_on_c, 2, 66, 0
6, 12256, Note_on_c, 2, 54, 0
6, 12256, Note_on_c, 2, 61, 0
6, 12288, Note_on_c, 2, 55, 95
6, 12288, Note_on_c, 2, 60, 95
6, 12288, Note_on_c, 2, 48, 95
6, 12504, Note_on_c, 2, 60, 0
6, 12512, Note_on_c, 2, 55, 0
6, 12512, Note_on_c, 2, 48, 0
6, 12544, Note_on_c, 2, 58, 95
6, 12544, Note_on_c, 2, 63, 95
6, 12544, Note_on_c, 2, 51, 95
6, 12648, Note_on_c, 2, 58, 0
6, 12648, Note_on_c, 2, 63, 0
6, 12648, Note_on_c, 2, 51, 0
6, 12672, Note_on_c, 2, 54, 95
6, 12672, Note_on_c, 2, 61, 95
6, 12672, Note_on_c, 2, 66, 95
6, 12768, Note_on_c, 2, 54, 0
6, 12768, Note_on_c, 2, 61, 0
6, 12768, Note_on_c, 2, 66, 0
6, 12800, Note_on_c, 2, 54, 95
6, 12800, Note_on_c, 2, 61, 95
6, 12800, Note_on_c, 2, 66, 95
6, 12896, Note_on_c, 2, 54, 0
6, 12896, Note_on_c, 2, 61, 0
6, 12896, Note_on_c, 2, 66, 0
6, 12928, Note_on_c, 2, 66, 95
6, 12928, Note_on_c, 2, 61, 95
6, 12928, Note_on_c, 2, 54, 95
6, 13008, Note_on_c, 2, 66, 0
6, 13008, Note_on_c, 2, 61, 0
6, 13016, Note_on_c, 2, 54, 0
6, 13056, Note_on_c, 2, 60, 95
6, 13056, Note_on_c, 2, 65, 95
6, 13056, Note_on_c, 2, 53, 95
6, 13440, Note_on_c, 2, 60, 0
6, 13488, Note_on_c, 2, 65, 0
6, 13488, Note_on_c, 2, 53, 0
6, 13536, Note_on_c, 2, 51, 95
6, 13536, Note_on_c, 2, 63, 95
6, 13536, Note_on_c, 2, 58, 95
6, 13664, Note_on_c, 2, 51, 0
6, 13664, Note_on_c, 2, 63, 0
6, 13664, Note_on_c, 2, 58, 0
6, 13696, Note_on_c, 2, 55, 95
6, 13696, Note_on_c, 2, 60, 95
6, 13696, Note_on_c, 2, 48, 95
6, 13784, Note_on_c, 2, 55, 0
6, 13792, Note_on_c, 2, 60, 0
6, 13800, Note_on_c, 2, 48, 0
6, 13824, Note_on_c, 2, 65, 95
6, 13824, Note_on_c, 2, 60, 95
6, 13824, Note_on_c, 2, 53, 95
6, 14208, Note_on_c, 2, 60, 0
6, 14240, Note_on_c, 2, 65, 0
6, 14264, Note_on_c, 2, 53, 0
6, 14304, Note_on_c, 2, 63, 95
6, 14304, Note_on_c, 2, 51, 95
6, 14304, Note_on_c, 2, 58, 95
6, 14432, Note_on_c, 2, 63, 0
6, 14432, Note_on_c, 2, 51, 0
6, 14432, Note_on_c, 2, 58, 0
6, 14464, Note_on_c, 2, 60, 95
6, 14464, Note_on_c, 2, 55, 95
6, 14464, Note_on_c, 2, 48, 95
6, 14560, Note_on_c, 2, 55, 0
6, 14560, Note_on_c, 2, 48, 0
6, 14568, Note_on_c, 2, 60, 0
6, 14592, Note_on_c, 2, 48, 95
6, 14592, Note_on_c, 2, 55, 95
6, 14592, Note_on_c, 2, 60, 95
6, 14784, Note_on_c, 2, 48, 0
6, 14784, Note_on_c, 2, 55, 0
6, 14784, Note_on_c, 2, 60, 0
6, 14784, Note_on_c, 2, 60, 95
6, 14784, Note_on_c, 2, 48, 95
6, 14784, Note_on_c, 2, 55, 95
6, 14880, Note_on_c, 2, 60, 0
6, 14880, Note_on_c, 2, 48, 0
6, 14880, Note_on_c, 2, 55, 0
6, 14880, Note_on_c, 2, 60, 95
6, 14880, Note_on_c, 2, 48, 95
6, 14880, Note_on_c, 2, 55, 95
6, 14888, Note_on_c, 2, 60, 0
6, 14888, Note_on_c, 2, 48, 0
6, 14888, Note_on_c, 2, 55, 0
6, 14928, Note_on_c, 2, 60, 95
6, 14928, Note_on_c, 2, 48, 95
6, 14928, Note_on_c, 2, 55, 95
6, 14936, Note_on_c, 2, 60, 0
6, 14936, Note_on_c, 2, 48, 0
6, 14936, Note_on_c, 2, 55, 0
6, 14976, Note_on_c, 2, 53, 95
6, 14976, Note_on_c, 2, 46, 95
6, 14976, Note_on_c, 2, 58, 95
6, 15168, Note_on_c, 2, 53, 0
6, 15168, Note_on_c, 2, 46, 0
6, 15168, Note_on_c, 2, 58, 0
6, 15168, Note_on_c, 2, 58, 95
6, 15168, Note_on_c, 2, 46, 95
6, 15168, Note_on_c, 2, 53, 95
6, 15264, Note_on_c, 2, 58, 0
6, 15264, Note_on_c, 2, 46, 0
6, 15264, Note_on_c, 2, 46, 95
6, 15264, Note_on_c, 2, 53, 0
6, 15264, Note_on_c, 2, 53, 95
6, 15264, Note_on_c, 2, 58, 95
6, 15272, Note_on_c, 2, 46, 0
6, 15272, Note_on_c, 2, 53, 0
6, 15272, Note_on_c, 2, 58, 0
6, 15312, Note_on_c, 2, 46, 95
6, 15312, Note_on_c, 2, 53, 95
6, 15312, Note_on_c, 2, 58, 95
6, 15320, Note_on_c, 2, 46, 0
6, 15320, Note_on_c, 2, 53, 0
6, 15320, Note_on_c, 2, 58, 0
6, 15360, Note_on_c, 2, 56, 95
6, 15360, Note_on_c, 2, 44, 95
6, 15360, Note_on_c, 2, 51, 95
6, 15456, Note_on_c, 2, 56, 0
6, 15456, Note_on_c, 2, 44, 0
6, 15456, Note_on_c, 2, 51, 0
6, 15456, Note_on_c, 2, 56, 95
6, 15456, Note_on_c, 2, 44, 95
6, 15456, Note_on_c, 2, 51, 95
6, 15552, Note_on_c, 2, 56, 0
6, 15552, Note_on_c, 2, 44, 0
6, 15552, Note_on_c, 2, 51, 0
6, 15552, Note_on_c, 2, 51, 95
6, 15552, Note_on_c, 2, 56, 95
6, 15552, Note_on_c, 2, 44, 95
6, 15560, Note_on_c, 2, 51, 0
6, 15560, Note_on_c, 2, 56, 0
6, 15560, Note_on_c, 2, 44, 0
6, 15648, Note_on_c, 2, 50, 95
6, 15648, Note_on_c, 2, 55, 95
6, 15648, Note_on_c, 2, 43, 95
6, 15744, Note_on_c, 2, 50, 0
6, 15744, Note_on_c, 2, 55, 0
6, 15744, Note_on_c, 2, 43, 0
6, 22272, Note_on_c, 2, 60, 110
6, 22464, Note_on_c, 2, 60, 0
6, 22464, Note_on_c, 2, 60, 110
6, 22560, Note_on_c, 2, 60, 0
6, 22560, Note_on_c, 2, 58, 110
6, 22656, Note_on_c, 2, 60, 110
6, 22656, Note_on_c, 2, 58, 0
6, 22784, Note_on_c, 2, 58, 110
6, 22784, Note_on_c, 2, 60, 0
6, 22912, Note_on_c, 2, 58, 0
6, 22912, Note_on_c, 2, 55, 110
6, 23232, Note_on_c, 2, 55, 0
6, 23232, Note_on_c, 2, 55, 110
6, 23328, Note_on_c, 2, 53, 110
6, 23328, Note_on_c, 2, 55, 0
6, 23424, Note_on_c, 2, 53, 0
6, 23424, Note_on_c, 2, 51, 110
6, 23552, Note_on_c, 2, 51, 0
6, 23552, Note_on_c, 2, 53, 110
6, 23680, Note_on_c, 2, 53, 0
6, 23680, Note_on_c, 2, 55, 110
6, 23808, Note_on_c, 2, 48, 110
6, 23808, Note_on_c, 2, 55, 0
6, 24000, Note_on_c, 2, 48, 0
6, 24000, Note_on_c, 2, 60, 110
6, 24096, Note_on_c, 2, 60, 0
6, 24096, Note_on_c, 2, 58, 110
6, 24192, Note_on_c, 2, 60, 110
6, 24192, Note_on_c, 2, 58, 0
6, 24320, Note_on_c, 2, 58, 110
6, 24320, Note_on_c, 2, 60, 0
6, 24448, Note_on_c, 2, 58, 0
6, 24448, Note_on_c, 2, 55, 110
6, 24768, Note_on_c, 2, 55, 0
6, 24768, Note_on_c, 2, 55, 110
6, 24864, Note_on_c, 2, 53, 110
6, 24864, Note_on_c, 2, 55, 0
6, 24960, Note_on_c, 2, 53, 0
6, 24960, Note_on_c, 2, 51, 110
6, 25088, Note_on_c, 2, 51, 0
6, 25088, Note_on_c, 2, 53, 110
6, 25216, Note_on_c, 2, 53, 0
6, 25216, Note_on_c, 2, 55, 110
6, 25344, Note_on_c, 2, 48, 110
6, 25344, Note_on_c, 2, 55, 0
6, 25536, Note_on_c, 2, 60, 110
6, 25536, Note_on_c, 2, 48, 0
6, 25632, Note_on_c, 2, 60, 0
6, 25632, Note_on_c, 2, 58, 110
6, 25728, Note_on_c, 2, 58, 0
6, 25728, Note_on_c, 2, 60, 110
6, 25856, Note_on_c, 2, 60, 0
6, 25856, Note_on_c, 2, 58, 110
6, 25984, Note_on_c, 2, 55, 110
6, 25984, Note_on_c, 2, 58, 0
6, 26304, Note_on_c, 2, 55, 0
6, 26304, Note_on_c, 2, 55, 110
6, 26400, Note_on_c, 2, 55, 0
6, 26400, Note_on_c, 2, 53, 110
6, 26496, Note_on_c, 2, 51, 110
6, 26496, Note_on_c, 2, 53, 0
6, 26624, Note_on_c, 2, 53, 110
6, 26624, Note_on_c, 2, 51, 0
6, 26752, Note_on_c, 2, 53, 0
6, 26752, Note_on_c, 2, 55, 110
6, 26880, Note_on_c, 2, 55, 0
6, 26880, Note_on_c, 2, 48, 110
6, 27072, Note_on_c, 2, 60, 110
6, 27072, Note_on_c, 2, 48, 0
6, 27168, Note_on_c, 2, 60, 0
6, 27168, Note_on_c, 2, 58, 110
6, 27264, Note_on_c, 2, 58, 0
6, 27264, Note_on_c, 2, 60, 110
6, 27392, Note_on_c, 2, 60, 0
6, 27392, Note_on_c, 2, 58, 110
6, 27520, Note_on_c, 2, 55, 110
6, 27520, Note_on_c, 2, 58, 0
6, 27840, Note_on_c, 2, 55, 0
6, 27840, Note_on_c, 2, 55, 110
6, 27936, Note_on_c, 2, 55, 0
6, 27936, Note_on_c, 2, 53, 110
6, 28032, Note_on_c, 2, 51, 110
6, 28032, Note_on_c, 2, 53, 0
6, 28160, Note_on_c, 2, 53, 110
6, 28160, Note_on_c, 2, 51, 0
6, 28288, Note_on_c, 2, 53, 0
6, 28288, Note_on_c, 2, 55, 110
6, 28416, Note_on_c, 2, 55, 0
6, 28416, Note_on_c, 2, 48, 110
6, 28608, Note_on_c, 2, 60, 110
6, 28608, Note_on_c, 2, 48, 0
6, 28704, Note_on_c, 2, 60, 0
6, 28704, Note_on_c, 2, 58, 110
6, 28800, Note_on_c, 2, 58, 0
6, 28800, Note_on_c, 2, 60, 110
6, 28928, Note_on_c, 2, 60, 0
6, 28928, Note_on_c, 2, 58, 110
6, 29056, Note_on_c, 2, 55, 110
6, 29056, Note_on_c, 2, 58, 0
6, 29376, Note_on_c, 2, 55, 0
6, 29376, Note_on_c, 2, 55, 110
6, 29472, Note_on_c, 2, 55, 0
6, 29472, Note_on_c, 2, 53, 110
6, 29568, Note_on_c, 2, 51, 110
6, 29568, Note_on_c, 2, 53, 0
6, 29696, Note_on_c, 2, 53, 110
6, 29696, Note_on_c, 2, 51, 0
6, 29824, Note_on_c, 2, 53, 0
6, 29824, Note_on_c, 2, 55, 110
6, 29952, Note_on_c, 2, 55, 0
6, 29952, Note_on_c, 2, 48, 110
6, 30144, Note_on_c, 2, 60, 110
6, 30144, Note_on_c, 2, 48, 0
6, 30240, Note_on_c, 2, 60, 0
6, 30240, Note_on_c, 2, 58, 110
6, 30336, Note_on_c, 2, 58, 0
6, 30336, Note_on_c, 2, 60, 110
6, 30464, Note_on_c, 2, 60, 0
6, 30464, Note_on_c, 2, 58, 110
6, 30592, Note_on_c, 2, 55, 110
6, 30592, Note_on_c, 2, 58, 0
6, 30912, Note_on_c, 2, 55, 0
6, 30912, Note_on_c, 2, 55, 110
6, 31008, Note_on_c, 2, 55, 0
6, 31008, Note_on_c, 2, 53, 110
6, 31104, Note_on_c, 2, 51, 110
6, 31104, Note_on_c, 2, 53, 0
6, 31232, Note_on_c, 2, 53, 110
6, 31232, Note_on_c, 2, 51, 0
6, 31360, Note_on_c, 2, 53, 0
6, 31360, Note_on_c, 2, 55, 110
6, 31488, Note_on_c, 2, 55, 0
6, 31488, Note_on_c, 2, 48, 110
6, 31680, Note_on_c, 2, 48, 0
6, 31680, Note_on_c, 2, 60, 110
6, 31776, Note_on_c, 2, 58, 110
6, 31776, Note_on_c, 2, 60, 0
6, 31872, Note_on_c, 2, 60, 110
6, 31872, Note_on_c, 2, 58, 0
6, 32000, Note_on_c, 2, 60, 0
6, 32000, Note_on_c, 2, 58, 110
6, 32128, Note_on_c, 2, 58, 0
6, 32128, Note_on_c, 2, 55, 110
6, 32448, Note_on_c, 2, 55, 110
6, 32448, Note_on_c, 2, 55, 0
6, 32544, Note_on_c, 2, 55, 0
6, 32544, Note_on_c, 2, 53, 110
6, 32640, Note_on_c, 2, 53, 0
6, 32640, Note_on_c, 2, 51, 110
6, 32768, Note_on_c, 2, 51, 0
6, 32768, Note_on_c, 2, 53, 110
6, 32896, Note_on_c, 2, 55, 110
6, 32896, Note_on_c, 2, 53, 0
6, 33024, Note_on_c, 2, 55, 0
6, 33024, Note_on_c, 2, 48, 110
6, 33216, Note_on_c, 2, 48, 0
6, 33216, Note_on_c, 2, 60, 110
6, 33312, Note_on_c, 2, 58, 110
6, 33312, Note_on_c, 2, 60, 0
6, 33408, Note_on_c, 2, 60, 110
6, 33408, Note_on_c, 2, 58, 0
6, 33536, Note_on_c, 2, 60, 0
6, 33536, Note_on_c, 2, 58, 110
6, 33664, Note_on_c, 2, 58, 0
6, 33664, Note_on_c, 2, 55, 110
6, 33984, Note_on_c, 2, 55, 110
6, 33984, Note_on_c, 2, 55, 0
6, 34080, Note_on_c, 2, 55, 0
6, 34080, Note_on_c, 2, 53, 110
6, 34176, Note_on_c, 2, 53, 0
6, 34176, Note_on_c, 2, 51, 110
6, 34304, Note_on_c, 2, 51, 0
6, 34304, Note_on_c, 2, 53, 110
6, 34432, Note_on_c, 2, 55, 110
6, 34432, Note_on_c, 2, 53, 0
6, 34560, Note_on_c, 2, 55, 0
6, 49920, Note_on_c, 2, 60, 110
6, 50112, Note_on_c, 2, 60, 0
6, 50112, Note_on_c, 2, 60, 110
6, 50208, Note_on_c, 2, 58, 110
6, 50208, Note_on_c, 2, 60, 0
6, 50304, Note_on_c, 2, 60, 110
6, 50304, Note_on_c, 2, 58, 0
6, 50432, Note_on_c, 2, 60, 0
6, 50432, Note_on_c, 2, 58, 110
6, 50560, Note_on_c, 2, 58, 0
6, 50560, Note_on_c, 2, 55, 110
6, 50880, Note_on_c, 2, 55, 110
6, 50880, Note_on_c, 2, 55, 0
6, 50976, Note_on_c, 2, 55, 0
6, 50976, Note_on_c, 2, 53, 110
6, 51072, Note_on_c, 2, 53, 0
6, 51072, Note_on_c, 2, 51, 110
6, 51200, Note_on_c, 2, 51, 0
6, 51200, Note_on_c, 2, 53, 110
6, 51328, Note_on_c, 2, 55, 110
6, 51328, Note_on_c, 2, 53, 0
6, 51456, Note_on_c, 2, 55, 0
6, 51456, Note_on_c, 2, 48, 110
6, 51648, Note_on_c, 2, 48, 0
6, 51648, Note_on_c, 2, 60, 110
6, 51744, Note_on_c, 2, 58, 110
6, 51744, Note_on_c, 2, 60, 0
6, 51840, Note_on_c, 2, 60, 110
6, 51840, Note_on_c, 2, 58, 0
6, 51968, Note_on_c, 2, 60, 0
6, 51968, Note_on_c, 2, 58, 110
6, 52096, Note_on_c, 2, 58, 0
6, 52096, Note_on_c, 2, 55, 110
6, 52416, Note_on_c, 2, 55, 110
6, 52416, Note_on_c, 2, 55, 0
6, 52512, Note_on_c, 2, 55, 0
6, 52512, Note_on_c, 2, 53, 110
6, 52608, Note_on_c, 2, 53, 0
6, 52608, Note_on_c, 2, 51, 110
6, 52736, Note_on_c, 2, 51, 0
6, 52736, Note_on_c, 2, 53, 110
6, 52864, Note_on_c, 2, 55, 110
6, 52864, Note_on_c, 2, 53, 0
6, 52992, Note_on_c, 2, 60, 110
6, 52992, Note_on_c, 2, 55, 0
6, 53184, Note_on_c, 2, 60, 0
6, 53184, Note_on_c, 2, 60, 110
6, 53280, Note_on_c, 2, 60, 0
6, 53280, Note_on_c, 2, 58, 110
6, 53376, Note_on_c, 2, 58, 0
6, 53376, Note_on_c, 2, 60, 110
6, 53504, Note_on_c, 2, 58, 110
6, 53504, Note_on_c, 2, 60, 0
6, 53632, Note_on_c, 2, 58, 0
6, 53632, Note_on_c, 2, 55, 110
6, 53952, Note_on_c, 2, 55, 0
6, 53952, Note_on_c, 2, 55, 110
6, 54048, Note_on_c, 2, 53, 110
6, 54048, Note_on_c, 2, 55, 0
6, 54144, Note_on_c, 2, 51, 110
6, 54144, Note_on_c, 2, 53, 0
6, 54272, Note_on_c, 2, 51, 0
6, 54272, Note_on_c, 2, 53, 110
6, 54400, Note_on_c, 2, 53, 0
6, 54400, Note_on_c, 2, 55, 110
6, 54528, Note_on_c, 2, 48, 110
6, 54528, Note_on_c, 2, 55, 0
6, 54720, Note_on_c, 2, 48, 0
6, 54720, Note_on_c, 2, 60, 110
6, 54816, Note_on_c, 2, 60, 0
6, 54816, Note_on_c, 2, 58, 110
6, 54912, Note_on_c, 2, 58, 0
6, 54912, Note_on_c, 2, 60, 110
6, 55040, Note_on_c, 2, 58, 110
6, 55040, Note_on_c, 2, 60, 0
6, 55168, Note_on_c, 2, 58, 0
6, 55168, Note_on_c, 2, 55, 110
6, 55488, Note_on_c, 2, 55, 0
6, 55488, Note_on_c, 2, 55, 110
6, 55584, Note_on_c, 2, 53, 110
6, 55584, Note_on_c, 2, 55, 0
6, 55680, Note_on_c, 2, 51, 110
6, 55680, Note_on_c, 2, 53, 0
6, 55808, Note_on_c, 2, 51, 0
6, 55808, Note_on_c, 2, 53, 110
6, 55936, Note_on_c, 2, 53, 0
6, 55936, Note_on_c, 2, 55, 110
6, 56064, Note_on_c, 2, 60, 110
6, 56064, Note_on_c, 2, 55, 0
6, 56256, Note_on_c, 2, 60, 0
6, 56256, Note_on_c, 2, 60, 110
6, 56352, Note_on_c, 2, 60, 0
6, 56352, Note_on_c, 2, 58, 110
6, 56448, Note_on_c, 2, 58, 0
6, 56448, Note_on_c, 2, 60, 110
6, 56576, Note_on_c, 2, 58, 110
6, 56576, Note_on_c, 2, 60, 0
6, 56704, Note_on_c, 2, 58, 0
6, 56704, Note_on_c, 2, 55, 110
6, 57024, Note_on_c, 2, 55, 0
6, 57024, Note_on_c, 2, 55, 110
6, 57120, Note_on_c, 2, 53, 110
6, 57120, Note_on_c, 2, 55, 0
6, 57216, Note_on_c, 2, 51, 110
6, 57216, Note_on_c, 2, 53, 0
6, 57344, Note_on_c, 2, 51, 0
6, 57344, Note_on_c, 2, 53, 110
6, 57472, Note_on_c, 2, 53, 0
6, 57472, Note_on_c, 2, 55, 110
6, 57600, Note_on_c, 2, 48, 110
6, 57600, Note_on_c, 2, 55, 0
6, 57792, Note_on_c, 2, 48, 0
6, 57792, Note_on_c, 2, 60, 110
6, 57888, Note_on_c, 2, 60, 0
6, 57888, Note_on_c, 2, 58, 110
6, 57984, Note_on_c, 2, 58, 0
6, 57984, Note_on_c, 2, 60, 110
6, 58112, Note_on_c, 2, 58, 110
6, 58112, Note_on_c, 2, 60, 0
6, 58240, Note_on_c, 2, 58, 0
6, 58240, Note_on_c, 2, 55, 110
6, 58560, Note_on_c, 2, 55, 0
6, 58560, Note_on_c, 2, 55, 110
6, 58656, Note_on_c, 2, 53, 110
6, 58656, Note_on_c, 2, 55, 0
6, 58752, Note_on_c, 2, 51, 110
6, 58752, Note_on_c, 2, 53, 0
6, 58880, Note_on_c, 2, 51, 0
6, 58880, Note_on_c, 2, 53, 110
6, 59008, Note_on_c, 2, 53, 0
6, 59008, Note_on_c, 2, 55, 110
6, 59136, Note_on_c, 2, 55, 0
6, 59136, Note_on_c, 2, 60, 110
6, 59328, Note_on_c, 2, 60, 110
6, 59328, Note_on_c, 2, 60, 0
6, 59424, Note_on_c, 2, 58, 110
6, 59424, Note_on_c, 2, 60, 0
6, 59520, Note_on_c, 2, 58, 0
6, 59520, Note_on_c, 2, 60, 110
6, 59648, Note_on_c, 2, 60, 0
6, 59648, Note_on_c, 2, 58, 110
6, 59776, Note_on_c, 2, 55, 110
6, 59776, Note_on_c, 2, 58, 0
6, 60096, Note_on_c, 2, 55, 0
6, 60096, Note_on_c, 2, 55, 110
6, 60192, Note_on_c, 2, 55, 0
6, 60192, Note_on_c, 2, 53, 110
6, 60288, Note_on_c, 2, 53, 0
6, 60288, Note_on_c, 2, 51, 110
6, 60416, Note_on_c, 2, 53, 110
6, 60416, Note_on_c, 2, 51, 0
6, 60544, Note_on_c, 2, 53, 0
6, 60544, Note_on_c, 2, 55, 110
6, 60672, Note_on_c, 2, 55, 0
6, 60672, Note_on_c, 2, 48, 110
6, 60864, Note_on_c, 2, 60, 110
6, 60864, Note_on_c, 2, 48, 0
6, 60960, Note_on_c, 2, 58, 110
6, 60960, Note_on_c, 2, 60, 0
6, 61056, Note_on_c, 2, 58, 0
6, 61056, Note_on_c, 2, 66, 95
6, 61056, Note_on_c, 2, 54, 95
6, 61056, Note_on_c, 2, 61, 95
6, 61139, Note_on_c, 2, 66, 0
6, 61139, Note_on_c, 2, 54, 0
6, 61139, Note_on_c, 2, 61, 0
6, 61184, Note_on_c, 2, 66, 95
6, 61184, Note_on_c, 2, 54, 95
6, 61184, Note_on_c, 2, 61, 95
6, 61267, Note_on_c, 2, 66, 0
6, 61267, Note_on_c, 2, 54, 0
6, 61267, Note_on_c, 2, 61, 0
6, 61312, Note_on_c, 2, 61, 95
6, 61312, Note_on_c, 2, 54, 95
6, 61312, Note_on_c, 2, 66, 95
6, 61395, Note_on_c, 2, 61, 0
6, 61395, Note_on_c, 2, 54, 0
6, 61395, Note_on_c, 2, 66, 0
6, 61440, Note_on_c, 2, 54, 95
6, 61440, Note_on_c, 2, 66, 95
6, 61440, Note_on_c, 2, 61, 95
6, 61523, Note_on_c, 2, 54, 0
6, 61523, Note_on_c, 2, 66, 0
6, 61523, Note_on_c, 2, 61, 0
6, 61568, Note_on_c, 2, 66, 95
6, 61568, Note_on_c, 2, 54, 95
6, 61568, Note_on_c, 2, 61, 95
6, 61651, Note_on_c, 2, 66, 0
6, 61651, Note_on_c, 2, 54, 0
6, 61651, Note_on_c, 2, 61, 0
6, 61696, Note_on_c, 2, 66, 95
6, 61696, Note_on_c, 2, 61, 95
6, 61696, Note_on_c, 2, 54, 95
6, 61779, Note_on_c, 2, 66, 0
6, 61779, Note_on_c, 2, 61, 0
6, 61779, Note_on_c, 2, 54, 0
6, 61824, Note_on_c, 2, 54, 95
6, 61824, Note_on_c, 2, 61, 95
6, 61824, Note_on_c, 2, 66, 95
6, 61907, Note_on_c, 2, 54, 0
6, 61907, Note_on_c, 2, 61, 0
6, 61907, Note_on_c, 2, 66, 0
6, 61952, Note_on_c, 2, 61, 95
6, 61952, Note_on_c, 2, 66, 95
6, 61952, Note_on_c, 2, 54, 95
6, 62035, Note_on_c, 2, 61, 0
6, 62035, Note_on_c, 2, 66, 0
6, 62035, Note_on_c, 2, 54, 0
6, 62080, Note_on_c, 2, 61, 95
6, 62080, Note_on_c, 2, 66, 95
6, 62080, Note_on_c, 2, 54, 95
6, 62163, Note_on_c, 2, 61, 0
6, 62163, Note_on_c, 2, 66, 0
6, 62163, Note_on_c, 2, 54, 0
6, 62208, Note_on_c, 2, 60, 110
6, 62400, Note_on_c, 2, 60, 110
6, 62400, Note_on_c, 2, 60, 0
6, 62496, Note_on_c, 2, 58, 110
6, 62496, Note_on_c, 2, 60, 0
6, 62592, Note_on_c, 2, 58, 0
6, 62592, Note_on_c, 2, 60, 110
6, 62720, Note_on_c, 2, 60, 0
6, 62720, Note_on_c, 2, 58, 110
6, 62848, Note_on_c, 2, 58, 0
6, 62848, Note_on_c, 2, 55, 110
6, 63168, Note_on_c, 2, 55, 110
6, 63168, Note_on_c, 2, 55, 0
6, 63264, Note_on_c, 2, 55, 0
6, 63264, Note_on_c, 2, 53, 110
6, 63360, Note_on_c, 2, 53, 0
6, 63360, Note_on_c, 2, 51, 110
6, 63488, Note_on_c, 2, 53, 110
6, 63488, Note_on_c, 2, 51, 0
6, 63616, Note_on_c, 2, 55, 95
6, 63616, Note_on_c, 2, 53, 0
6, 63744, Note_on_c, 2, 55, 0
6, 63744, Note_on_c, 2, 55, 95
6, 63744, Note_on_c, 2, 60, 95
6, 63744, Note_on_c, 2, 48, 95
6, 63936, Note_on_c, 2, 55, 0
6, 63936, Note_on_c, 2, 60, 0
6, 63936, Note_on_c, 2, 48, 0
6, 63936, Note_on_c, 2, 60, 95
6, 63936, Note_on_c, 2, 55, 95
6, 63936, Note_on_c, 2, 48, 95
6, 64032, Note_on_c, 2, 60, 0
6, 64032, Note_on_c, 2, 55, 0
6, 64032, Note_on_c, 2, 55, 95
6, 64032, Note_on_c, 2, 48, 0
6, 64032, Note_on_c, 2, 48, 95
6, 64032, Note_on_c, 2, 60, 95
6, 64040, Note_on_c, 2, 55, 0
6, 64040, Note_on_c, 2, 48, 0
6, 64040, Note_on_c, 2, 60, 0
6, 64080, Note_on_c, 2, 48, 95
6, 64080, Note_on_c, 2, 55, 95
6, 64080, Note_on_c, 2, 60, 95
6, 64088, Note_on_c, 2, 48, 0
6, 64088, Note_on_c, 2, 55, 0
6, 64088, Note_on_c, 2, 60, 0
6, 64128, Note_on_c, 2, 46, 95
6, 64128, Note_on_c, 2, 58, 95
6, 64128, Note_on_c, 2, 53, 95
6, 64320, Note_on_c, 2, 46, 0
6, 64320, Note_on_c, 2, 58, 0
6, 64320, Note_on_c, 2, 58, 95
6, 64320, Note_on_c, 2, 53, 0
6, 64320, Note_on_c, 2, 46, 95
6, 64320, Note_on_c, 2, 53, 95
6, 64416, Note_on_c, 2, 58, 0
6, 64416, Note_on_c, 2, 46, 0
6, 64416, Note_on_c, 2, 58, 95
6, 64416, Note_on_c, 2, 53, 0
6, 64416, Note_on_c, 2, 53, 95
6, 64416, Note_on_c, 2, 46, 95
6, 64424, Note_on_c, 2, 58, 0
6, 64424, Note_on_c, 2, 53, 0
6, 64424, Note_on_c, 2, 46, 0
6, 64464, Note_on_c, 2, 46, 95
6, 64464, Note_on_c, 2, 53, 95
6, 64464, Note_on_c, 2, 58, 95
6, 64472, Note_on_c, 2, 46, 0
6, 64472, Note_on_c, 2, 53, 0
6, 64472, Note_on_c, 2, 58, 0
6, 64512, Note_on_c, 2, 51, 95
6, 64512, Note_on_c, 2, 56, 95
6, 64512, Note_on_c, 2, 44, 95
6, 64608, Note_on_c, 2, 51, 0
6, 64608, Note_on_c, 2, 56, 0
6, 64608, Note_on_c, 2, 44, 0
6, 64608, Note_on_c, 2, 56, 95
6, 64608, Note_on_c, 2, 44, 95
6, 64608, Note_on_c, 2, 51, 95
6, 64704, Note_on_c, 2, 56, 0
6, 64704, Note_on_c, 2, 44, 0
6, 64704, Note_on_c, 2, 51, 0
6, 64704, Note_on_c, 2, 56, 95
6, 64704, Note_on_c, 2, 44, 95
6, 64704, Note_on_c, 2, 51, 95
6, 64712, Note_on_c, 2, 56, 0
6, 64712, Note_on_c, 2, 44, 0
6, 64712, Note_on_c, 2, 51, 0
6, 64800, Note_on_c, 2, 55, 95
6, 64800, Note_on_c, 2, 43, 95
6, 64800, Note_on_c, 2, 50, 95
6, 64896, Note_on_c, 2, 55, 0
6, 64896, Note_on_c, 2, 43, 0
6, 64896, Note_on_c, 2, 50, 0
6, 64896, End_track
7, 0, Start_track
7, 0, Title_t, "OD/BEND"
7, 0, Channel_prefix, 5
7, 192, Control_c, 5, 100, 127
7, 288, Control_c, 5, 101, 127
7, 384, Control_c, 5, 91, 64
7, 384, Control_c, 5, 10, 112
7, 384, Control_c, 5, 0, 0
7, 384, Control_c, 5, 7, 120
7, 384, Control_c, 5, 93, 28
7, 384, Control_c, 5, 6, 12
7, 576, Program_c, 5, 29
7, 768, Pitch_bend_c, 5, 8192
7, 33840, Control_c, 5, 11, 127
7, 34224, Control_c, 5, 10, 64
7, 34240, Control_c, 5, 1, 64
7, 34480, Control_c, 5, 11, 112
7, 34560, Note_on_c, 5, 60, 96
7, 34613, Pitch_bend_c, 5, 7840
7, 34620, Pitch_bend_c, 5, 6144
7, 34627, Pitch_bend_c, 5, 6144
7, 34635, Pitch_bend_c, 5, 5888
7, 34642, Pitch_bend_c, 5, 5888
7, 34649, Pitch_bend_c, 5, 8074
7, 34656, Control_c, 5, 11, 112
7, 34657, Pitch_bend_c, 5, 8192
7, 34664, Pitch_bend_c, 5, 9245
7, 34671, Pitch_bend_c, 5, 9596
7, 34679, Pitch_bend_c, 5, 8192
7, 34693, Pitch_bend_c, 5, 6400
7, 34701, Pitch_bend_c, 5, 6144
7, 34708, Pitch_bend_c, 5, 5888
7, 34715, Pitch_bend_c, 5, 5888
7, 34720, Control_c, 5, 11, 112
7, 34723, Pitch_bend_c, 5, 5888
7, 34730, Pitch_bend_c, 5, 8192
7, 34737, Pitch_bend_c, 5, 8894
7, 34745, Pitch_bend_c, 5, 9596
7, 34752, Pitch_bend_c, 5, 9011
7, 34759, Pitch_bend_c, 5, 8192
7, 34774, Pitch_bend_c, 5, 7606
7, 34789, Pitch_bend_c, 5, 8192
7, 34800, Control_c, 5, 11, 116
7, 34811, Pitch_bend_c, 5, 9713
7, 34818, Pitch_bend_c, 5, 9830
7, 34825, Pitch_bend_c, 5, 8894
7, 34833, Pitch_bend_c, 5, 8192
7, 34847, Pitch_bend_c, 5, 7255
7, 34848, Control_c, 5, 11, 120
7, 34862, Pitch_bend_c, 5, 8192
7, 34877, Pitch_bend_c, 5, 8426
7, 34884, Pitch_bend_c, 5, 9830
7, 34899, Pitch_bend_c, 5, 8309
7, 34906, Pitch_bend_c, 5, 8192
7, 34912, Control_c, 5, 11, 120
7, 34913, Pitch_bend_c, 5, 5376
7, 34921, Pitch_bend_c, 5, 5376
7, 34935, Pitch_bend_c, 5, 5851
7, 34943, Pitch_bend_c, 5, 8192
7, 34957, Pitch_bend_c, 5, 9830
7, 34960, Control_c, 5, 11, 120
7, 34965, Pitch_bend_c, 5, 10064
7, 34972, Pitch_bend_c, 5, 8894
7, 34979, Pitch_bend_c, 5, 8192
7, 34987, Pitch_bend_c, 5, 7840
7, 34994, Pitch_bend_c, 5, 5500
7, 35001, Pitch_bend_c, 5, 5149
7, 35008, Control_c, 5, 11, 124
7, 35009, Pitch_bend_c, 5, 6904
7, 35016, Pitch_bend_c, 5, 8192
7, 35031, Pitch_bend_c, 5, 10649
7, 35038, Pitch_bend_c, 5, 11117
7, 35045, Pitch_bend_c, 5, 9830
7, 35053, Pitch_bend_c, 5, 8192
7, 35056, Control_c, 5, 11, 124
7, 35067, Pitch_bend_c, 5, 5734
7, 35075, Pitch_bend_c, 5, 5500
7, 35082, Pitch_bend_c, 5, 7138
7, 35089, Pitch_bend_c, 5, 8192
7, 35104, Pitch_bend_c, 5, 10415
7, 35111, Pitch_bend_c, 5, 11117
7, 35119, Pitch_bend_c, 5, 9947
7, 35126, Pitch_bend_c, 5, 8192
7, 35136, Control_c, 5, 11, 124
7, 35141, Pitch_bend_c, 5, 5734
7, 35148, Pitch_bend_c, 5, 4213
7, 35155, Pitch_bend_c, 5, 5032
7, 35163, Pitch_bend_c, 5, 8192
7, 35177, Pitch_bend_c, 5, 9830
7, 35184, Control_c, 5, 11, 124
7, 35185, Pitch_bend_c, 5, 11234
7, 35192, Pitch_bend_c, 5, 10649
7, 35199, Pitch_bend_c, 5, 8777
7, 35207, Pitch_bend_c, 5, 8192
7, 35214, Pitch_bend_c, 5, 6553
7, 35221, Pitch_bend_c, 5, 4213
7, 35232, Control_c, 5, 11, 124
7, 35236, Pitch_bend_c, 5, 6787
7, 35243, Pitch_bend_c, 5, 8192
7, 35251, Pitch_bend_c, 5, 8309
7, 35258, Pitch_bend_c, 5, 11000
7, 35265, Pitch_bend_c, 5, 11468
7, 35273, Pitch_bend_c, 5, 10532
7, 35280, Control_c, 5, 11, 124
7, 35280, Pitch_bend_c, 5, 8192
7, 35295, Pitch_bend_c, 5, 6787
7, 35302, Pitch_bend_c, 5, 5734
7, 35309, Pitch_bend_c, 5, 6670
7, 35317, Pitch_bend_c, 5, 8192
7, 35331, Pitch_bend_c, 5, 9245
7, 35339, Pitch_bend_c, 5, 10532
7, 35346, Pitch_bend_c, 5, 9713
7, 35353, Pitch_bend_c, 5, 8192
7, 35368, Pitch_bend_c, 5, 8894
7, 35375, Pitch_bend_c, 5, 5734
7, 35383, Pitch_bend_c, 5, 6085
7, 35390, Pitch_bend_c, 5, 8192
7, 35405, Pitch_bend_c, 5, 8543
7, 35412, Pitch_bend_c, 5, 10532
7, 35427, Pitch_bend_c, 5, 9245
7, 35434, Pitch_bend_c, 5, 8192
7, 35449, Pitch_bend_c, 5, 6553
7, 35456, Pitch_bend_c, 5, 6085
7, 35463, Pitch_bend_c, 5, 7723
7, 35471, Pitch_bend_c, 5, 8192
7, 35485, Pitch_bend_c, 5, 10064
7, 35493, Pitch_bend_c, 5, 11234
7, 35500, Pitch_bend_c, 5, 10766
7, 35507, Pitch_bend_c, 5, 9011
7, 35515, Pitch_bend_c, 5, 8192
7, 35529, Pitch_bend_c, 5, 7840
7, 35544, Pitch_bend_c, 5, 8192
7, 35559, Pitch_bend_c, 5, 8543
7, 35566, Pitch_bend_c, 5, 10532
7, 35573, Pitch_bend_c, 5, 11000
7, 35581, Pitch_bend_c, 5, 9947
7, 35588, Pitch_bend_c, 5, 8192
7, 35603, Pitch_bend_c, 5, 7138
7, 35610, Pitch_bend_c, 5, 5266
7, 35617, Pitch_bend_c, 5, 6202
7, 35625, Pitch_bend_c, 5, 8192
7, 35639, Pitch_bend_c, 5, 8894
7, 35647, Pitch_bend_c, 5, 11234
7, 35654, Pitch_bend_c, 5, 11351
7, 35662, Pitch_bend_c, 5, 10181
7, 35669, Pitch_bend_c, 5, 8192
7, 35683, Pitch_bend_c, 5, 6436
7, 35691, Pitch_bend_c, 5, 5266
7, 35698, Pitch_bend_c, 5, 6553
7, 35705, Pitch_bend_c, 5, 8192
7, 35720, Pitch_bend_c, 5, 9947
7, 35727, Pitch_bend_c, 5, 12638
7, 35735, Pitch_bend_c, 5, 12989
7, 35742, Pitch_bend_c, 5, 11234
7, 35749, Pitch_bend_c, 5, 8192
7, 35761, Pitch_bend_c, 5, 8192
7, 35764, Pitch_bend_c, 5, 4915
7, 35772, Pitch_bend_c, 5, 3511
7, 35779, Pitch_bend_c, 5, 5149
7, 35786, Pitch_bend_c, 5, 8192
7, 35801, Pitch_bend_c, 5, 11585
7, 35808, Pitch_bend_c, 5, 13808
7, 35815, Pitch_bend_c, 5, 13340
7, 35823, Pitch_bend_c, 5, 10766
7, 35830, Pitch_bend_c, 5, 8192
7, 35837, Pitch_bend_c, 5, 8074
7, 35845, Pitch_bend_c, 5, 4915
7, 35859, Pitch_bend_c, 5, 7606
7, 35867, Pitch_bend_c, 5, 8192
7, 35874, Pitch_bend_c, 5, 8426
7, 35881, Pitch_bend_c, 5, 11000
7, 35889, Pitch_bend_c, 5, 11234
7, 35896, Pitch_bend_c, 5, 9830
7, 35903, Pitch_bend_c, 5, 8192
7, 35918, Pitch_bend_c, 5, 5617
7, 35926, Pitch_bend_c, 5, 4915
7, 35933, Pitch_bend_c, 5, 6787
7, 35940, Pitch_bend_c, 5, 8192
7, 35955, Pitch_bend_c, 5, 8777
7, 35962, Pitch_bend_c, 5, 9011
7, 35969, Pitch_bend_c, 5, 8192
7, 35992, Pitch_bend_c, 5, 5149
7, 35999, Pitch_bend_c, 5, 4330
7, 36006, Pitch_bend_c, 5, 6436
7, 36013, Pitch_bend_c, 5, 8192
7, 36028, Pitch_bend_c, 5, 10649
7, 36035, Pitch_bend_c, 5, 12521
7, 36043, Pitch_bend_c, 5, 11819
7, 36050, Pitch_bend_c, 5, 9011
7, 36057, Pitch_bend_c, 5, 8192
7, 36065, Pitch_bend_c, 5, 5851
7, 36072, Pitch_bend_c, 5, 2926
7, 36079, Pitch_bend_c, 5, 3862
7, 36087, Pitch_bend_c, 5, 7957
7, 36094, Pitch_bend_c, 5, 8192
7, 36101, Pitch_bend_c, 5, 8660
7, 36109, Pitch_bend_c, 5, 10064
7, 36116, Pitch_bend_c, 5, 9128
7, 36123, Pitch_bend_c, 5, 8192
7, 36131, Pitch_bend_c, 5, 8660
7, 36138, Pitch_bend_c, 5, 3511
7, 36146, Pitch_bend_c, 5, 2107
7, 36153, Pitch_bend_c, 5, 3979
7, 36160, Pitch_bend_c, 5, 8192
7, 36169, Pitch_bend_c, 5, 8192
7, 36184, Pitch_bend_c, 5, 9947
7, 36189, Pitch_bend_c, 5, 8074
7, 36191, Pitch_bend_c, 5, 12638
7, 36197, Pitch_bend_c, 5, 8192
7, 36199, Pitch_bend_c, 5, 12989
7, 36206, Pitch_bend_c, 5, 11234
7, 36213, Pitch_bend_c, 5, 8192
7, 36225, Pitch_bend_c, 5, 8192
7, 36228, Pitch_bend_c, 5, 4915
7, 36236, Pitch_bend_c, 5, 3511
7, 36243, Pitch_bend_c, 5, 5149
7, 36250, Pitch_bend_c, 5, 8192
7, 36265, Pitch_bend_c, 5, 11585
7, 36272, Pitch_bend_c, 5, 13808
7, 36279, Pitch_bend_c, 5, 13340
7, 36287, Pitch_bend_c, 5, 10766
7, 36288, Control_c, 5, 11, 124
7, 36294, Pitch_bend_c, 5, 8192
7, 36301, Pitch_bend_c, 5, 8074
7, 36309, Pitch_bend_c, 5, 4915
7, 36323, Pitch_bend_c, 5, 7606
7, 36331, Pitch_bend_c, 5, 8192
7, 36338, Pitch_bend_c, 5, 8426
7, 36345, Pitch_bend_c, 5, 11000
7, 36352, Control_c, 5, 11, 120
7, 36353, Pitch_bend_c, 5, 11234
7, 36360, Pitch_bend_c, 5, 9830
7, 36367, Pitch_bend_c, 5, 8192
7, 36382, Pitch_bend_c, 5, 5617
7, 36390, Pitch_bend_c, 5, 4915
7, 36397, Pitch_bend_c, 5, 6787
7, 36404, Pitch_bend_c, 5, 8192
7, 36419, Pitch_bend_c, 5, 8777
7, 36426, Pitch_bend_c, 5, 9011
7, 36432, Control_c, 5, 11, 116
7, 36433, Pitch_bend_c, 5, 8192
7, 36456, Pitch_bend_c, 5, 5149
7, 36463, Pitch_bend_c, 5, 4330
7, 36465, Pitch_bend_c, 5, 8192
7, 36470, Pitch_bend_c, 5, 6436
7, 36477, Pitch_bend_c, 5, 8192
7, 36480, Pitch_bend_c, 5, 9947
7, 36487, Pitch_bend_c, 5, 12638
7, 36495, Pitch_bend_c, 5, 12989
7, 36496, Control_c, 5, 11, 112
7, 36502, Pitch_bend_c, 5, 11234
7, 36509, Pitch_bend_c, 5, 8192
7, 36521, Pitch_bend_c, 5, 8192
7, 36524, Pitch_bend_c, 5, 4915
7, 36532, Pitch_bend_c, 5, 3511
7, 36539, Pitch_bend_c, 5, 5149
7, 36546, Pitch_bend_c, 5, 8192
7, 36561, Pitch_bend_c, 5, 11585
7, 36568, Pitch_bend_c, 5, 13808
7, 36575, Pitch_bend_c, 5, 13340
7, 36576, Control_c, 5, 11, 108
7, 36583, Pitch_bend_c, 5, 10766
7, 36590, Pitch_bend_c, 5, 8192
7, 36592, Control_c, 5, 11, 104
7, 36597, Pitch_bend_c, 5, 8074
7, 36605, Pitch_bend_c, 5, 4915
7, 36619, Pitch_bend_c, 5, 7606
7, 36627, Pitch_bend_c, 5, 8192
7, 36634, Pitch_bend_c, 5, 8426
7, 36641, Pitch_bend_c, 5, 11000
7, 36649, Pitch_bend_c, 5, 11234
7, 36656, Pitch_bend_c, 5, 9830
7, 36663, Pitch_bend_c, 5, 8192
7, 36672, Control_c, 5, 11, 100
7, 36678, Pitch_bend_c, 5, 5617
7, 36686, Pitch_bend_c, 5, 4915
7, 36693, Pitch_bend_c, 5, 6787
7, 36700, Pitch_bend_c, 5, 8192
7, 36715, Pitch_bend_c, 5, 8777
7, 36722, Pitch_bend_c, 5, 9011
7, 36729, Pitch_bend_c, 5, 8192
7, 36736, Control_c, 5, 11, 96
7, 36752, Pitch_bend_c, 5, 5149
7, 36759, Pitch_bend_c, 5, 4330
7, 36766, Pitch_bend_c, 5, 6436
7, 36768, Control_c, 5, 11, 92
7, 36773, Pitch_bend_c, 5, 8192
7, 36784, Control_c, 5, 11, 88
7, 36788, Pitch_bend_c, 5, 10649
7, 36795, Pitch_bend_c, 5, 12521
7, 36803, Pitch_bend_c, 5, 11819
7, 36810, Pitch_bend_c, 5, 9011
7, 36817, Pitch_bend_c, 5, 8192
7, 36825, Pitch_bend_c, 5, 5851
7, 36832, Pitch_bend_c, 5, 2926
7, 36832, Control_c, 5, 11, 84
7, 36839, Pitch_bend_c, 5, 3862
7, 36847, Pitch_bend_c, 5, 7957
7, 36861, Pitch_bend_c, 5, 8192
7, 36864, Pitch_bend_c, 5, 9947
7, 36871, Pitch_bend_c, 5, 12638
7, 36879, Pitch_bend_c, 5, 12989
7, 36880, Control_c, 5, 11, 80
7, 36886, Pitch_bend_c, 5, 11234
7, 36893, Pitch_bend_c, 5, 8192
7, 36905, Pitch_bend_c, 5, 3328
7, 36908, Pitch_bend_c, 5, 3072
7, 36916, Pitch_bend_c, 5, 3328
7, 36923, Pitch_bend_c, 5, 5149
7, 36930, Pitch_bend_c, 5, 8192
7, 36945, Pitch_bend_c, 5, 11585
7, 36952, Pitch_bend_c, 5, 13808
7, 36959, Pitch_bend_c, 5, 13340
7, 36960, Control_c, 5, 11, 76
7, 36967, Pitch_bend_c, 5, 10766
7, 36974, Pitch_bend_c, 5, 8192
7, 36976, Control_c, 5, 11, 72
7, 36981, Pitch_bend_c, 5, 3584
7, 36989, Pitch_bend_c, 5, 3840
7, 37003, Pitch_bend_c, 5, 4096
7, 37011, Pitch_bend_c, 5, 8192
7, 37018, Pitch_bend_c, 5, 8426
7, 37024, Control_c, 5, 11, 68
7, 37025, Pitch_bend_c, 5, 13824
7, 37033, Pitch_bend_c, 5, 11234
7, 37040, Pitch_bend_c, 5, 9830
7, 37047, Pitch_bend_c, 5, 8192
7, 37067, Pitch_bend_c, 5, 8660
7, 37072, Control_c, 5, 11, 64
7, 37074, Pitch_bend_c, 5, 3511
7, 37082, Pitch_bend_c, 5, 2107
7, 37089, Pitch_bend_c, 5, 3979
7, 37096, Pitch_bend_c, 5, 8192
7, 37105, Pitch_bend_c, 5, 8192
7, 37120, Pitch_bend_c, 5, 9947
7, 37125, Pitch_bend_c, 5, 8074
7, 37127, Pitch_bend_c, 5, 12638
7, 37133, Pitch_bend_c, 5, 8192
7, 37135, Pitch_bend_c, 5, 12989
7, 37142, Pitch_bend_c, 5, 11234
7, 37149, Pitch_bend_c, 5, 8192
7, 37152, Control_c, 5, 11, 60
7, 37161, Pitch_bend_c, 5, 3840
7, 37164, Pitch_bend_c, 5, 3840
7, 37172, Pitch_bend_c, 5, 3840
7, 37179, Pitch_bend_c, 5, 5149
7, 37186, Pitch_bend_c, 5, 8192
7, 37201, Pitch_bend_c, 5, 11585
7, 37208, Pitch_bend_c, 5, 13808
7, 37215, Pitch_bend_c, 5, 13340
7, 37216, Control_c, 5, 11, 56
7, 37223, Pitch_bend_c, 5, 10766
7, 37230, Pitch_bend_c, 5, 8192
7, 37248, Control_c, 5, 11, 52
7, 37263, Pitch_bend_c, 5, 5120
7, 37271, Pitch_bend_c, 5, 8192
7, 37285, Pitch_bend_c, 5, 11776
7, 37293, Pitch_bend_c, 5, 11776
7, 37300, Pitch_bend_c, 5, 7424
7, 37307, Pitch_bend_c, 5, 7424
7, 37312, Control_c, 5, 11, 48
7, 37315, Pitch_bend_c, 5, 6912
7, 37322, Pitch_bend_c, 5, 6912
7, 37329, Pitch_bend_c, 5, 5149
7, 37337, Pitch_bend_c, 5, 6904
7, 37344, Pitch_bend_c, 5, 8192
7, 37359, Pitch_bend_c, 5, 10649
7, 37360, Control_c, 5, 11, 44
7, 37366, Pitch_bend_c, 5, 11117
7, 37373, Pitch_bend_c, 5, 9830
7, 37381, Pitch_bend_c, 5, 8192
7, 37395, Pitch_bend_c, 5, 5888
7, 37403, Pitch_bend_c, 5, 5500
7, 37410, Pitch_bend_c, 5, 7138
7, 37417, Pitch_bend_c, 5, 8192
7, 37432, Pitch_bend_c, 5, 10415
7, 37439, Pitch_bend_c, 5, 11117
7, 37440, Control_c, 5, 11, 40
7, 37447, Pitch_bend_c, 5, 9947
7, 37454, Pitch_bend_c, 5, 8192
7, 37469, Pitch_bend_c, 5, 6144
7, 37476, Pitch_bend_c, 5, 6400
7, 37483, Pitch_bend_c, 5, 5032
7, 37491, Pitch_bend_c, 5, 8192
7, 37504, Control_c, 5, 11, 36
7, 37505, Pitch_bend_c, 5, 9830
7, 37513, Pitch_bend_c, 5, 11234
7, 37520, Pitch_bend_c, 5, 10649
7, 37527, Pitch_bend_c, 5, 8777
7, 37535, Pitch_bend_c, 5, 8192
7, 37536, Control_c, 5, 11, 32
7, 37542, Pitch_bend_c, 5, 6144
7, 37549, Pitch_bend_c, 5, 6144
7, 37564, Pitch_bend_c, 5, 6787
7, 37571, Pitch_bend_c, 5, 8192
7, 37579, Pitch_bend_c, 5, 8309
7, 37586, Pitch_bend_c, 5, 11000
7, 37593, Pitch_bend_c, 5, 8192
7, 37600, Control_c, 5, 11, 28
7, 37601, Pitch_bend_c, 5, 10532
7, 37608, Pitch_bend_c, 5, 8192
7, 37623, Pitch_bend_c, 5, 8448
7, 37630, Pitch_bend_c, 5, 8192
7, 37637, Pitch_bend_c, 5, 8448
7, 37656, Pitch_bend_c, 5, 8192
7, 37664, Note_on_c, 5, 60, 0
7, 37664, End_track
8, 0, Start_track
8, 0, Title_t, "AAH's"
8, 0, Channel_prefix, 6
8, 192, Control_c, 6, 93, 32
8, 192, Control_c, 6, 91, 72
8, 384, Control_c, 6, 0, 8
8, 640, Program_c, 6, 52
8, 28032, Control_c, 6, 11, 127
8, 28416, Note_on_c, 6, 74, 117
8, 28416, Note_on_c, 6, 62, 108
8, 29869, Note_on_c, 6, 74, 0
8, 29882, Note_on_c, 6, 62, 0
8, 29952, Note_on_c, 6, 62, 104
8, 29952, Note_on_c, 6, 74, 117
8, 30336, Note_on_c, 6, 65, 98
8, 30336, Note_on_c, 6, 77, 98
8, 30340, Note_on_c, 6, 74, 0
8, 30344, Note_on_c, 6, 62, 0
8, 30711, Note_on_c, 6, 65, 0
8, 30720, Note_on_c, 6, 74, 106
8, 30720, Note_on_c, 6, 77, 0
8, 30720, Note_on_c, 6, 62, 102
8, 31104, Note_on_c, 6, 77, 106
8, 31104, Note_on_c, 6, 65, 108
8, 31121, Note_on_c, 6, 74, 0
8, 31137, Note_on_c, 6, 62, 0
8, 31488, Note_on_c, 6, 74, 104
8, 31488, Note_on_c, 6, 62, 104
8, 31500, Note_on_c, 6, 77, 0
8, 31508, Note_on_c, 6, 65, 0
8, 32891, Note_on_c, 6, 74, 0
8, 32894, Note_on_c, 6, 62, 0
8, 33024, Note_on_c, 6, 62, 114
8, 33024, Note_on_c, 6, 74, 122
8, 33408, Note_on_c, 6, 77, 98
8, 33408, Note_on_c, 6, 65, 104
8, 33429, Note_on_c, 6, 74, 0
8, 33435, Note_on_c, 6, 62, 0
8, 33792, Note_on_c, 6, 62, 104
8, 33792, Note_on_c, 6, 74, 112
8, 33803, Note_on_c, 6, 65, 0
8, 33812, Note_on_c, 6, 77, 0
8, 34176, Note_on_c, 6, 65, 108
8, 34176, Note_on_c, 6, 77, 108
8, 34182, Note_on_c, 6, 74, 0
8, 34191, Note_on_c, 6, 62, 0
8, 34560, Note_on_c, 6, 62, 108
8, 34560, Note_on_c, 6, 74, 106
8, 34575, Note_on_c, 6, 77, 0
8, 34578, Note_on_c, 6, 65, 0
8, 35328, Control_c, 6, 11, 124
8, 36048, Control_c, 6, 11, 120
8, 36144, Control_c, 6, 11, 116
8, 36208, Control_c, 6, 11, 112
8, 36288, Control_c, 6, 11, 108
8, 36352, Control_c, 6, 11, 104
8, 36432, Control_c, 6, 11, 100
8, 36480, Control_c, 6, 11, 96
8, 36576, Control_c, 6, 11, 92
8, 36640, Control_c, 6, 11, 88
8, 36688, Control_c, 6, 11, 84
8, 36736, Control_c, 6, 11, 80
8, 36816, Control_c, 6, 11, 76
8, 36864, Control_c, 6, 11, 72
8, 36912, Control_c, 6, 11, 68
8, 37008, Control_c, 6, 11, 64
8, 37024, Control_c, 6, 11, 60
8, 37056, Control_c, 6, 11, 56
8, 37072, Control_c, 6, 11, 52
8, 37120, Control_c, 6, 11, 48
8, 37168, Control_c, 6, 11, 44
8, 37216, Control_c, 6, 11, 40
8, 37248, Control_c, 6, 11, 36
8, 37264, Control_c, 6, 11, 32
8, 37312, Control_c, 6, 11, 28
8, 37360, Control_c, 6, 11, 24
8, 37408, Control_c, 6, 11, 20
8, 37440, Control_c, 6, 11, 16
8, 37488, Control_c, 6, 11, 12
8, 37536, Control_c, 6, 11, 8
8, 37552, Control_c, 6, 11, 4
8, 37600, Control_c, 6, 11, 0
8, 37603, Note_on_c, 6, 62, 0
8, 37632, Control_c, 6, 11, 0
8, 37642, Note_on_c, 6, 74, 0
8, 37642, End_track
9, 0, Start_track
9, 0, Title_t, "FEEDBACK/GTR"
9, 0, Channel_prefix, 7
9, 202, Control_c, 7, 100, 127
9, 298, Control_c, 7, 101, 127
9, 394, Control_c, 7, 10, 112
9, 394, Control_c, 7, 91, 64
9, 394, Control_c, 7, 6, 12
9, 394, Control_c, 7, 0, 9
9, 394, Control_c, 7, 7, 120
9, 394, Control_c, 7, 93, 28
9, 586, Program_c, 7, 30
9, 778, Pitch_bend_c, 7, 8192
9, 33840, Control_c, 7, 11, 127
9, 34192, Control_c, 7, 10, 64
9, 34570, Note_on_c, 7, 60, 108
9, 34576, Control_c, 7, 11, 76
9, 34623, Pitch_bend_c, 7, 7840
9, 34630, Pitch_bend_c, 7, 6144
9, 34637, Pitch_bend_c, 7, 6144
9, 34645, Pitch_bend_c, 7, 5888
9, 34652, Pitch_bend_c, 7, 5888
9, 34659, Pitch_bend_c, 7, 8074
9, 34667, Pitch_bend_c, 7, 8192
9, 34674, Pitch_bend_c, 7, 9245
9, 34681, Pitch_bend_c, 7, 9596
9, 34689, Pitch_bend_c, 7, 8192
9, 34703, Pitch_bend_c, 7, 6400
9, 34711, Pitch_bend_c, 7, 6144
9, 34718, Pitch_bend_c, 7, 5888
9, 34720, Control_c, 7, 11, 80
9, 34725, Pitch_bend_c, 7, 5888
9, 34733, Pitch_bend_c, 7, 5888
9, 34740, Pitch_bend_c, 7, 8192
9, 34747, Pitch_bend_c, 7, 8894
9, 34755, Pitch_bend_c, 7, 9596
9, 34762, Pitch_bend_c, 7, 9011
9, 34768, Control_c, 7, 11, 84
9, 34769, Pitch_bend_c, 7, 8192
9, 34784, Pitch_bend_c, 7, 7606
9, 34799, Pitch_bend_c, 7, 8192
9, 34821, Pitch_bend_c, 7, 9713
9, 34828, Pitch_bend_c, 7, 9830
9, 34835, Pitch_bend_c, 7, 8894
9, 34843, Pitch_bend_c, 7, 8192
9, 34848, Control_c, 7, 11, 88
9, 34857, Pitch_bend_c, 7, 7255
9, 34872, Pitch_bend_c, 7, 8192
9, 34887, Pitch_bend_c, 7, 8426
9, 34894, Pitch_bend_c, 7, 9830
9, 34909, Pitch_bend_c, 7, 8309
9, 34916, Pitch_bend_c, 7, 8192
9, 34923, Pitch_bend_c, 7, 5376
9, 34931, Pitch_bend_c, 7, 5376
9, 34944, Control_c, 7, 11, 96
9, 34945, Pitch_bend_c, 7, 5851
9, 34953, Pitch_bend_c, 7, 8192
9, 34967, Pitch_bend_c, 7, 9830
9, 34975, Pitch_bend_c, 7, 10064
9, 34982, Pitch_bend_c, 7, 8894
9, 34989, Pitch_bend_c, 7, 8192
9, 34997, Pitch_bend_c, 7, 7840
9, 35004, Pitch_bend_c, 7, 5500
9, 35011, Pitch_bend_c, 7, 5149
9, 35019, Pitch_bend_c, 7, 6904
9, 35026, Pitch_bend_c, 7, 8192
9, 35041, Pitch_bend_c, 7, 10649
9, 35048, Pitch_bend_c, 7, 11117
9, 35055, Pitch_bend_c, 7, 9830
9, 35063, Pitch_bend_c, 7, 8192
9, 35077, Pitch_bend_c, 7, 5734
9, 35085, Pitch_bend_c, 7, 5500
9, 35088, Control_c, 7, 11, 104
9, 35092, Pitch_bend_c, 7, 7138
9, 35099, Pitch_bend_c, 7, 8192
9, 35114, Pitch_bend_c, 7, 10415
9, 35121, Pitch_bend_c, 7, 11117
9, 35129, Pitch_bend_c, 7, 9947
9, 35136, Pitch_bend_c, 7, 8192
9, 35151, Pitch_bend_c, 7, 5734
9, 35158, Pitch_bend_c, 7, 4213
9, 35165, Pitch_bend_c, 7, 5032
9, 35173, Pitch_bend_c, 7, 8192
9, 35184, Control_c, 7, 11, 112
9, 35187, Pitch_bend_c, 7, 9830
9, 35195, Pitch_bend_c, 7, 11234
9, 35202, Pitch_bend_c, 7, 10649
9, 35209, Pitch_bend_c, 7, 8777
9, 35217, Pitch_bend_c, 7, 8192
9, 35224, Pitch_bend_c, 7, 6553
9, 35231, Pitch_bend_c, 7, 4213
9, 35246, Pitch_bend_c, 7, 6787
9, 35253, Pitch_bend_c, 7, 8192
9, 35261, Pitch_bend_c, 7, 8309
9, 35268, Pitch_bend_c, 7, 11000
9, 35275, Pitch_bend_c, 7, 11468
9, 35280, Control_c, 7, 11, 116
9, 35283, Pitch_bend_c, 7, 10532
9, 35290, Pitch_bend_c, 7, 8192
9, 35305, Pitch_bend_c, 7, 6787
9, 35312, Pitch_bend_c, 7, 5734
9, 35319, Pitch_bend_c, 7, 6670
9, 35327, Pitch_bend_c, 7, 8192
9, 35341, Pitch_bend_c, 7, 9245
9, 35344, Control_c, 7, 11, 120
9, 35349, Pitch_bend_c, 7, 10532
9, 35356, Pitch_bend_c, 7, 9713
9, 35363, Pitch_bend_c, 7, 8192
9, 35378, Pitch_bend_c, 7, 8894
9, 35385, Pitch_bend_c, 7, 5734
9, 35393, Pitch_bend_c, 7, 6085
9, 35400, Pitch_bend_c, 7, 8192
9, 35415, Pitch_bend_c, 7, 8543
9, 35422, Pitch_bend_c, 7, 10532
9, 35437, Pitch_bend_c, 7, 9245
9, 35440, Control_c, 7, 11, 124
9, 35444, Pitch_bend_c, 7, 8192
9, 35459, Pitch_bend_c, 7, 6553
9, 35466, Pitch_bend_c, 7, 6085
9, 35473, Pitch_bend_c, 7, 7723
9, 35481, Pitch_bend_c, 7, 8192
9, 35488, Control_c, 7, 11, 127
9, 35495, Pitch_bend_c, 7, 10064
9, 35503, Pitch_bend_c, 7, 11234
9, 35510, Pitch_bend_c, 7, 10766
9, 35517, Pitch_bend_c, 7, 9011
9, 35525, Pitch_bend_c, 7, 8192
9, 35539, Pitch_bend_c, 7, 7840
9, 35554, Pitch_bend_c, 7, 8192
9, 35569, Pitch_bend_c, 7, 8543
9, 35576, Pitch_bend_c, 7, 10532
9, 35583, Pitch_bend_c, 7, 11000
9, 35591, Pitch_bend_c, 7, 9947
9, 35598, Pitch_bend_c, 7, 8192
9, 35613, Pitch_bend_c, 7, 7138
9, 35620, Pitch_bend_c, 7, 5266
9, 35627, Pitch_bend_c, 7, 6202
9, 35635, Pitch_bend_c, 7, 8192
9, 35649, Pitch_bend_c, 7, 8894
9, 35657, Pitch_bend_c, 7, 11234
9, 35664, Pitch_bend_c, 7, 11351
9, 35672, Pitch_bend_c, 7, 10181
9, 35679, Pitch_bend_c, 7, 8192
9, 35693, Pitch_bend_c, 7, 6436
9, 35701, Pitch_bend_c, 7, 5266
9, 35708, Pitch_bend_c, 7, 6553
9, 35715, Pitch_bend_c, 7, 8192
9, 35730, Pitch_bend_c, 7, 9947
9, 35737, Pitch_bend_c, 7, 12638
9, 35745, Pitch_bend_c, 7, 12989
9, 35752, Pitch_bend_c, 7, 11234
9, 35759, Pitch_bend_c, 7, 8192
9, 35771, Pitch_bend_c, 7, 8192
9, 35774, Pitch_bend_c, 7, 4915
9, 35782, Pitch_bend_c, 7, 3511
9, 35789, Pitch_bend_c, 7, 5149
9, 35796, Pitch_bend_c, 7, 8192
9, 35811, Pitch_bend_c, 7, 11585
9, 35818, Pitch_bend_c, 7, 13808
9, 35825, Pitch_bend_c, 7, 13340
9, 35833, Pitch_bend_c, 7, 10766
9, 35840, Pitch_bend_c, 7, 8192
9, 35847, Pitch_bend_c, 7, 8074
9, 35855, Pitch_bend_c, 7, 4915
9, 35869, Pitch_bend_c, 7, 7606
9, 35877, Pitch_bend_c, 7, 8192
9, 35884, Pitch_bend_c, 7, 8426
9, 35891, Pitch_bend_c, 7, 11000
9, 35899, Pitch_bend_c, 7, 11234
9, 35906, Pitch_bend_c, 7, 9830
9, 35913, Pitch_bend_c, 7, 8192
9, 35928, Pitch_bend_c, 7, 5617
9, 35936, Pitch_bend_c, 7, 4915
9, 35943, Pitch_bend_c, 7, 6787
9, 35950, Pitch_bend_c, 7, 8192
9, 35965, Pitch_bend_c, 7, 8777
9, 35972, Pitch_bend_c, 7, 9011
9, 35979, Pitch_bend_c, 7, 8192
9, 36002, Pitch_bend_c, 7, 5149
9, 36009, Pitch_bend_c, 7, 4330
9, 36016, Pitch_bend_c, 7, 6436
9, 36023, Pitch_bend_c, 7, 8192
9, 36038, Pitch_bend_c, 7, 10649
9, 36045, Pitch_bend_c, 7, 12521
9, 36053, Pitch_bend_c, 7, 11819
9, 36060, Pitch_bend_c, 7, 9011
9, 36067, Pitch_bend_c, 7, 8192
9, 36075, Pitch_bend_c, 7, 5851
9, 36082, Pitch_bend_c, 7, 2926
9, 36089, Pitch_bend_c, 7, 3862
9, 36097, Pitch_bend_c, 7, 7957
9, 36104, Pitch_bend_c, 7, 8192
9, 36111, Pitch_bend_c, 7, 8660
9, 36119, Pitch_bend_c, 7, 10064
9, 36126, Pitch_bend_c, 7, 9128
9, 36133, Pitch_bend_c, 7, 8192
9, 36141, Pitch_bend_c, 7, 8660
9, 36144, Control_c, 7, 11, 120
9, 36148, Pitch_bend_c, 7, 3511
9, 36156, Pitch_bend_c, 7, 2107
9, 36163, Pitch_bend_c, 7, 3979
9, 36170, Pitch_bend_c, 7, 8192
9, 36179, Pitch_bend_c, 7, 8192
9, 36194, Pitch_bend_c, 7, 9947
9, 36199, Pitch_bend_c, 7, 8074
9, 36201, Pitch_bend_c, 7, 12638
9, 36207, Pitch_bend_c, 7, 8192
9, 36209, Pitch_bend_c, 7, 12989
9, 36216, Pitch_bend_c, 7, 11234
9, 36223, Pitch_bend_c, 7, 8192
9, 36235, Pitch_bend_c, 7, 8192
9, 36238, Pitch_bend_c, 7, 4915
9, 36246, Pitch_bend_c, 7, 3511
9, 36253, Pitch_bend_c, 7, 5149
9, 36260, Pitch_bend_c, 7, 8192
9, 36275, Pitch_bend_c, 7, 11585
9, 36282, Pitch_bend_c, 7, 13808
9, 36289, Pitch_bend_c, 7, 13340
9, 36297, Pitch_bend_c, 7, 10766
9, 36304, Control_c, 7, 11, 116
9, 36304, Pitch_bend_c, 7, 8192
9, 36311, Pitch_bend_c, 7, 8074
9, 36319, Pitch_bend_c, 7, 4915
9, 36333, Pitch_bend_c, 7, 7606
9, 36341, Pitch_bend_c, 7, 8192
9, 36348, Pitch_bend_c, 7, 8426
9, 36355, Pitch_bend_c, 7, 11000
9, 36363, Pitch_bend_c, 7, 11234
9, 36370, Pitch_bend_c, 7, 9830
9, 36377, Pitch_bend_c, 7, 8192
9, 36392, Pitch_bend_c, 7, 5617
9, 36400, Pitch_bend_c, 7, 4915
9, 36400, Control_c, 7, 11, 112
9, 36407, Pitch_bend_c, 7, 6787
9, 36414, Pitch_bend_c, 7, 8192
9, 36429, Pitch_bend_c, 7, 8777
9, 36436, Pitch_bend_c, 7, 9011
9, 36443, Pitch_bend_c, 7, 8192
9, 36466, Pitch_bend_c, 7, 5149
9, 36473, Pitch_bend_c, 7, 4330
9, 36475, Pitch_bend_c, 7, 8192
9, 36480, Pitch_bend_c, 7, 6436
9, 36487, Pitch_bend_c, 7, 8192
9, 36490, Pitch_bend_c, 7, 9947
9, 36497, Pitch_bend_c, 7, 12638
9, 36505, Pitch_bend_c, 7, 12989
9, 36512, Pitch_bend_c, 7, 11234
9, 36519, Pitch_bend_c, 7, 8192
9, 36531, Pitch_bend_c, 7, 8192
9, 36534, Pitch_bend_c, 7, 4915
9, 36542, Pitch_bend_c, 7, 3511
9, 36544, Control_c, 7, 11, 108
9, 36549, Pitch_bend_c, 7, 5149
9, 36556, Pitch_bend_c, 7, 8192
9, 36571, Pitch_bend_c, 7, 11585
9, 36578, Pitch_bend_c, 7, 13808
9, 36585, Pitch_bend_c, 7, 13340
9, 36593, Pitch_bend_c, 7, 10766
9, 36600, Pitch_bend_c, 7, 8192
9, 36607, Pitch_bend_c, 7, 8074
9, 36615, Pitch_bend_c, 7, 4915
9, 36629, Pitch_bend_c, 7, 7606
9, 36637, Pitch_bend_c, 7, 8192
9, 36644, Pitch_bend_c, 7, 8426
9, 36651, Pitch_bend_c, 7, 11000
9, 36659, Pitch_bend_c, 7, 11234
9, 36666, Pitch_bend_c, 7, 9830
9, 36673, Pitch_bend_c, 7, 8192
9, 36688, Pitch_bend_c, 7, 5617
9, 36696, Pitch_bend_c, 7, 4915
9, 36703, Pitch_bend_c, 7, 6787
9, 36710, Pitch_bend_c, 7, 8192
9, 36720, Control_c, 7, 11, 104
9, 36725, Pitch_bend_c, 7, 8777
9, 36732, Pitch_bend_c, 7, 9011
9, 36739, Pitch_bend_c, 7, 8192
9, 36762, Pitch_bend_c, 7, 5149
9, 36768, Control_c, 7, 11, 100
9, 36769, Pitch_bend_c, 7, 4330
9, 36776, Pitch_bend_c, 7, 6436
9, 36783, Pitch_bend_c, 7, 8192
9, 36798, Pitch_bend_c, 7, 10649
9, 36805, Pitch_bend_c, 7, 12521
9, 36813, Pitch_bend_c, 7, 11819
9, 36820, Pitch_bend_c, 7, 9011
9, 36827, Pitch_bend_c, 7, 8192
9, 36835, Pitch_bend_c, 7, 5851
9, 36842, Pitch_bend_c, 7, 2926
9, 36849, Pitch_bend_c, 7, 3862
9, 36857, Pitch_bend_c, 7, 7957
9, 36864, Control_c, 7, 11, 96
9, 36871, Pitch_bend_c, 7, 8192
9, 36874, Pitch_bend_c, 7, 9947
9, 36881, Pitch_bend_c, 7, 12638
9, 36889, Pitch_bend_c, 7, 12989
9, 36896, Pitch_bend_c, 7, 11234
9, 36903, Pitch_bend_c, 7, 8192
9, 36915, Pitch_bend_c, 7, 3328
9, 36918, Pitch_bend_c, 7, 3072
9, 36926, Pitch_bend_c, 7, 3328
9, 36928, Control_c, 7, 11, 92
9, 36933, Pitch_bend_c, 7, 5149
9, 36940, Pitch_bend_c, 7, 8192
9, 36955, Pitch_bend_c, 7, 11585
9, 36962, Pitch_bend_c, 7, 13808
9, 36969, Pitch_bend_c, 7, 13340
9, 36976, Control_c, 7, 11, 88
9, 36977, Pitch_bend_c, 7, 10766
9, 36984, Pitch_bend_c, 7, 8192
9, 36991, Pitch_bend_c, 7, 3584
9, 36999, Pitch_bend_c, 7, 3840
9, 37013, Pitch_bend_c, 7, 4096
9, 37021, Pitch_bend_c, 7, 8192
9, 37028, Pitch_bend_c, 7, 8426
9, 37035, Pitch_bend_c, 7, 13824
9, 37043, Pitch_bend_c, 7, 11234
9, 37050, Pitch_bend_c, 7, 9830
9, 37056, Control_c, 7, 11, 84
9, 37057, Pitch_bend_c, 7, 8192
9, 37077, Pitch_bend_c, 7, 8660
9, 37084, Pitch_bend_c, 7, 3511
9, 37092, Pitch_bend_c, 7, 2107
9, 37099, Pitch_bend_c, 7, 3979
9, 37104, Control_c, 7, 11, 80
9, 37106, Pitch_bend_c, 7, 8192
9, 37115, Pitch_bend_c, 7, 8192
9, 37130, Pitch_bend_c, 7, 9947
9, 37135, Pitch_bend_c, 7, 8074
9, 37137, Pitch_bend_c, 7, 12638
9, 37143, Pitch_bend_c, 7, 8192
9, 37145, Pitch_bend_c, 7, 12989
9, 37152, Pitch_bend_c, 7, 11234
9, 37152, Control_c, 7, 11, 76
9, 37159, Pitch_bend_c, 7, 8192
9, 37171, Pitch_bend_c, 7, 3840
9, 37174, Pitch_bend_c, 7, 3840
9, 37182, Pitch_bend_c, 7, 3840
9, 37189, Pitch_bend_c, 7, 5149
9, 37196, Pitch_bend_c, 7, 8192
9, 37200, Control_c, 7, 11, 72
9, 37211, Pitch_bend_c, 7, 11585
9, 37216, Control_c, 7, 11, 68
9, 37218, Pitch_bend_c, 7, 13808
9, 37225, Pitch_bend_c, 7, 13340
9, 37233, Pitch_bend_c, 7, 10766
9, 37240, Pitch_bend_c, 7, 8192
9, 37264, Control_c, 7, 11, 64
9, 37273, Pitch_bend_c, 7, 5120
9, 37281, Pitch_bend_c, 7, 8192
9, 37295, Pitch_bend_c, 7, 11776
9, 37296, Control_c, 7, 11, 60
9, 37303, Pitch_bend_c, 7, 11776
9, 37310, Pitch_bend_c, 7, 7424
9, 37312, Control_c, 7, 11, 56
9, 37317, Pitch_bend_c, 7, 7424
9, 37325, Pitch_bend_c, 7, 6912
9, 37332, Pitch_bend_c, 7, 6912
9, 37339, Pitch_bend_c, 7, 5149
9, 37347, Pitch_bend_c, 7, 6904
9, 37354, Pitch_bend_c, 7, 8192
9, 37360, Control_c, 7, 11, 52
9, 37369, Pitch_bend_c, 7, 10649
9, 37376, Pitch_bend_c, 7, 11117
9, 37383, Pitch_bend_c, 7, 9830
9, 37391, Pitch_bend_c, 7, 8192
9, 37392, Control_c, 7, 11, 48
9, 37405, Pitch_bend_c, 7, 5888
9, 37408, Control_c, 7, 11, 44
9, 37413, Pitch_bend_c, 7, 5500
9, 37420, Pitch_bend_c, 7, 7138
9, 37427, Pitch_bend_c, 7, 8192
9, 37442, Pitch_bend_c, 7, 10415
9, 37449, Pitch_bend_c, 7, 11117
9, 37456, Control_c, 7, 11, 40
9, 37457, Pitch_bend_c, 7, 9947
9, 37464, Pitch_bend_c, 7, 8192
9, 37479, Pitch_bend_c, 7, 6144
9, 37486, Pitch_bend_c, 7, 6400
9, 37493, Pitch_bend_c, 7, 5032
9, 37501, Pitch_bend_c, 7, 8192
9, 37504, Control_c, 7, 11, 36
9, 37515, Pitch_bend_c, 7, 9830
9, 37523, Pitch_bend_c, 7, 11234
9, 37530, Pitch_bend_c, 7, 10649
9, 37536, Control_c, 7, 11, 32
9, 37537, Pitch_bend_c, 7, 8777
9, 37545, Pitch_bend_c, 7, 8192
9, 37552, Pitch_bend_c, 7, 6144
9, 37559, Pitch_bend_c, 7, 6144
9, 37574, Pitch_bend_c, 7, 6787
9, 37581, Pitch_bend_c, 7, 8192
9, 37584, Control_c, 7, 11, 28
9, 37589, Pitch_bend_c, 7, 8309
9, 37596, Pitch_bend_c, 7, 11000
9, 37600, Control_c, 7, 11, 24
9, 37603, Pitch_bend_c, 7, 8192
9, 37611, Pitch_bend_c, 7, 10532
9, 37618, Pitch_bend_c, 7, 8192
9, 37633, Pitch_bend_c, 7, 8448
9, 37640, Pitch_bend_c, 7, 8192
9, 37647, Pitch_bend_c, 7, 8448
9, 37666, Pitch_bend_c, 7, 8192
9, 37674, Note_on_c, 7, 60, 0
9, 37674, End_track
10, 0, Start_track
10, 0, Title_t, "TREM/STRINGS"
10, 0, Channel_prefix, 8
10, 640, Program_c, 8, 44
10, 28438, Note_on_c, 8, 74, 80
10, 28442, Note_on_c, 8, 86, 80
10, 29884, Note_on_c, 8, 74, 0
10, 29884, Note_on_c, 8, 86, 0
10, 29961, Note_on_c, 8, 74, 80
10, 29962, Note_on_c, 8, 86, 80
10, 30365, Note_on_c, 8, 89, 80
10, 30378, Note_on_c, 8, 77, 80
10, 30381, Note_on_c, 8, 86, 0
10, 30391, Note_on_c, 8, 74, 0
10, 30727, Note_on_c, 8, 74, 80
10, 30736, Note_on_c, 8, 86, 80
10, 30740, Note_on_c, 8, 77, 0
10, 30756, Note_on_c, 8, 89, 0
10, 31118, Note_on_c, 8, 89, 80
10, 31119, Note_on_c, 8, 77, 80
10, 31136, Note_on_c, 8, 74, 0
10, 31136, Note_on_c, 8, 86, 0
10, 31493, Note_on_c, 8, 74, 80
10, 31495, Note_on_c, 8, 86, 80
10, 31513, Note_on_c, 8, 77, 0
10, 31525, Note_on_c, 8, 89, 0
10, 32964, Note_on_c, 8, 74, 0
10, 32964, Note_on_c, 8, 86, 0
10, 33038, Note_on_c, 8, 86, 80
10, 33039, Note_on_c, 8, 74, 80
10, 33072, Control_c, 8, 11, 127
10, 33438, Note_on_c, 8, 89, 80
10, 33442, Note_on_c, 8, 77, 80
10, 33445, Note_on_c, 8, 86, 0
10, 33448, Note_on_c, 8, 74, 0
10, 33798, Note_on_c, 8, 74, 80
10, 33805, Note_on_c, 8, 86, 80
10, 33813, Note_on_c, 8, 77, 0
10, 33822, Note_on_c, 8, 89, 0
10, 34185, Note_on_c, 8, 77, 80
10, 34191, Note_on_c, 8, 89, 80
10, 34195, Note_on_c, 8, 74, 0
10, 34205, Note_on_c, 8, 86, 0
10, 34579, Note_on_c, 8, 74, 80
10, 34589, Note_on_c, 8, 86, 80
10, 34598, Note_on_c, 8, 77, 0
10, 34610, Note_on_c, 8, 89, 0
10, 36336, Control_c, 8, 11, 127
10, 36400, Control_c, 8, 11, 124
10, 36480, Control_c, 8, 11, 120
10, 36528, Control_c, 8, 11, 116
10, 36624, Control_c, 8, 11, 108
10, 36640, Control_c, 8, 11, 104
10, 36720, Control_c, 8, 11, 100
10, 36768, Control_c, 8, 11, 96
10, 36816, Control_c, 8, 11, 92
10, 36832, Control_c, 8, 11, 88
10, 36912, Control_c, 8, 11, 84
10, 36928, Control_c, 8, 11, 80
10, 36960, Control_c, 8, 11, 76
10, 36976, Control_c, 8, 11, 72
10, 37024, Control_c, 8, 11, 68
10, 37072, Control_c, 8, 11, 64
10, 37104, Control_c, 8, 11, 60
10, 37168, Control_c, 8, 11, 52
10, 37248, Control_c, 8, 11, 48
10, 37264, Control_c, 8, 11, 44
10, 37312, Control_c, 8, 11, 40
10, 37360, Control_c, 8, 11, 36
10, 37408, Control_c, 8, 11, 32
10, 37440, Control_c, 8, 11, 28
10, 37456, Control_c, 8, 11, 24
10, 37488, Control_c, 8, 11, 20
10, 37504, Control_c, 8, 11, 16
10, 37536, Control_c, 8, 11, 12
10, 37552, Control_c, 8, 11, 8
10, 37690, Note_on_c, 8, 86, 0
10, 37697, Note_on_c, 8, 74, 0
10, 37697, End_track
11, 0, Start_track
11, 0, Title_t, "DRUMS"
11, 0, Channel_prefix, 9
11, 192, Control_c, 9, 7, 110
11, 192, Control_c, 9, 71, 76
11, 384, Control_c, 9, 91, 60
11, 384, Control_c, 9, 10, 64
11, 576, Program_c, 9, 0
11, 768, Pitch_bend_c, 9, 8192
11, 768, Note_on_c, 9, 37, 95
11, 768, Pitch_bend_c, 9, 8192
11, 768, Pitch_bend_c, 9, 8192
11, 768, Pitch_bend_c, 9, 8192
11, 768, Pitch_bend_c, 9, 8192
11, 768, Pitch_bend_c, 9, 8192
11, 768, Pitch_bend_c, 9, 8192
11, 768, Note_on_c, 9, 42, 80
11, 768, Note_on_c, 9, 36, 110
11, 768, Pitch_bend_c, 9, 8192
11, 768, Pitch_bend_c, 9, 8192
11, 864, Note_on_c, 9, 37, 0
11, 864, Note_on_c, 9, 42, 0
11, 864, Note_on_c, 9, 36, 0
11, 864, Note_on_c, 9, 37, 95
11, 864, Note_on_c, 9, 42, 80
11, 864, Note_on_c, 9, 36, 110
11, 912, Note_on_c, 9, 37, 0
11, 912, Note_on_c, 9, 37, 95
11, 960, Note_on_c, 9, 42, 0
11, 960, Note_on_c, 9, 36, 0
11, 960, Note_on_c, 9, 37, 0
11, 960, Note_on_c, 9, 37, 95
11, 960, Note_on_c, 9, 38, 116
11, 960, Note_on_c, 9, 42, 80
11, 1056, Note_on_c, 9, 37, 0
11, 1056, Note_on_c, 9, 38, 0
11, 1056, Note_on_c, 9, 42, 0
11, 1056, Note_on_c, 9, 37, 95
11, 1056, Note_on_c, 9, 42, 80
11, 1056, Note_on_c, 9, 36, 110
11, 1104, Note_on_c, 9, 37, 0
11, 1104, Note_on_c, 9, 37, 95
11, 1152, Note_on_c, 9, 42, 0
11, 1152, Note_on_c, 9, 36, 0
11, 1152, Note_on_c, 9, 37, 95
11, 1152, Note_on_c, 9, 37, 0
11, 1152, Note_on_c, 9, 36, 110
11, 1152, Note_on_c, 9, 42, 80
11, 1248, Note_on_c, 9, 37, 0
11, 1248, Note_on_c, 9, 36, 0
11, 1248, Note_on_c, 9, 37, 95
11, 1248, Note_on_c, 9, 42, 0
11, 1248, Note_on_c, 9, 42, 80
11, 1296, Note_on_c, 9, 37, 0
11, 1296, Note_on_c, 9, 42, 0
11, 1296, Note_on_c, 9, 36, 110
11, 1296, Note_on_c, 9, 37, 95
11, 1344, Note_on_c, 9, 36, 0
11, 1344, Note_on_c, 9, 42, 80
11, 1344, Note_on_c, 9, 37, 0
11, 1344, Note_on_c, 9, 38, 116
11, 1344, Note_on_c, 9, 37, 95
11, 1440, Note_on_c, 9, 42, 0
11, 1440, Note_on_c, 9, 38, 0
11, 1440, Note_on_c, 9, 36, 110
11, 1440, Note_on_c, 9, 42, 80
11, 1488, Note_on_c, 9, 37, 0
11, 1488, Note_on_c, 9, 37, 95
11, 1536, Note_on_c, 9, 36, 0
11, 1536, Note_on_c, 9, 42, 0
11, 1536, Note_on_c, 9, 37, 95
11, 1536, Note_on_c, 9, 37, 0
11, 1536, Note_on_c, 9, 42, 80
11, 1536, Note_on_c, 9, 36, 110
11, 1632, Note_on_c, 9, 37, 0
11, 1632, Note_on_c, 9, 42, 0
11, 1632, Note_on_c, 9, 36, 0
11, 1632, Note_on_c, 9, 37, 95
11, 1632, Note_on_c, 9, 42, 80
11, 1632, Note_on_c, 9, 36, 110
11, 1680, Note_on_c, 9, 37, 0
11, 1680, Note_on_c, 9, 37, 95
11, 1728, Note_on_c, 9, 42, 0
11, 1728, Note_on_c, 9, 36, 0
11, 1728, Note_on_c, 9, 37, 0
11, 1728, Note_on_c, 9, 37, 95
11, 1728, Note_on_c, 9, 42, 80
11, 1728, Note_on_c, 9, 38, 116
11, 1824, Note_on_c, 9, 37, 0
11, 1824, Note_on_c, 9, 42, 0
11, 1824, Note_on_c, 9, 38, 0
11, 1824, Note_on_c, 9, 42, 80
11, 1824, Note_on_c, 9, 37, 95
11, 1824, Note_on_c, 9, 36, 110
11, 1872, Note_on_c, 9, 37, 0
11, 1872, Note_on_c, 9, 37, 95
11, 1920, Note_on_c, 9, 42, 0
11, 1920, Note_on_c, 9, 36, 0
11, 1920, Note_on_c, 9, 37, 0
11, 1920, Note_on_c, 9, 42, 80
11, 1920, Note_on_c, 9, 36, 110
11, 1920, Note_on_c, 9, 37, 95
11, 2016, Note_on_c, 9, 42, 0
11, 2016, Note_on_c, 9, 36, 0
11, 2016, Note_on_c, 9, 42, 80
11, 2016, Note_on_c, 9, 37, 0
11, 2016, Note_on_c, 9, 37, 95
11, 2064, Note_on_c, 9, 42, 0
11, 2064, Note_on_c, 9, 37, 0
11, 2064, Note_on_c, 9, 36, 110
11, 2064, Note_on_c, 9, 37, 95
11, 2112, Note_on_c, 9, 36, 0
11, 2112, Note_on_c, 9, 37, 0
11, 2112, Note_on_c, 9, 38, 116
11, 2112, Note_on_c, 9, 42, 80
11, 2112, Note_on_c, 9, 37, 95
11, 2208, Note_on_c, 9, 38, 0
11, 2208, Note_on_c, 9, 42, 0
11, 2208, Note_on_c, 9, 36, 110
11, 2208, Note_on_c, 9, 42, 80
11, 2256, Note_on_c, 9, 37, 0
11, 2256, Note_on_c, 9, 37, 95
11, 2304, Note_on_c, 9, 36, 0
11, 2304, Note_on_c, 9, 42, 0
11, 2304, Note_on_c, 9, 42, 80
11, 2304, Note_on_c, 9, 37, 0
11, 2304, Note_on_c, 9, 36, 110
11, 2304, Note_on_c, 9, 37, 95
11, 2400, Note_on_c, 9, 42, 0
11, 2400, Note_on_c, 9, 36, 0
11, 2400, Note_on_c, 9, 37, 0
11, 2400, Note_on_c, 9, 42, 80
11, 2400, Note_on_c, 9, 37, 95
11, 2400, Note_on_c, 9, 36, 110
11, 2448, Note_on_c, 9, 37, 0
11, 2448, Note_on_c, 9, 37, 95
11, 2496, Note_on_c, 9, 42, 0
11, 2496, Note_on_c, 9, 36, 0
11, 2496, Note_on_c, 9, 37, 0
11, 2496, Note_on_c, 9, 42, 80
11, 2496, Note_on_c, 9, 38, 116
11, 2496, Note_on_c, 9, 37, 95
11, 2592, Note_on_c, 9, 42, 0
11, 2592, Note_on_c, 9, 38, 0
11, 2592, Note_on_c, 9, 37, 95
11, 2592, Note_on_c, 9, 37, 0
11, 2592, Note_on_c, 9, 42, 80
11, 2592, Note_on_c, 9, 36, 110
11, 2640, Note_on_c, 9, 37, 0
11, 2640, Note_on_c, 9, 37, 95
11, 2688, Note_on_c, 9, 42, 0
11, 2688, Note_on_c, 9, 36, 0
11, 2688, Note_on_c, 9, 37, 0
11, 2688, Note_on_c, 9, 42, 80
11, 2688, Note_on_c, 9, 37, 95
11, 2688, Note_on_c, 9, 36, 110
11, 2784, Note_on_c, 9, 42, 0
11, 2784, Note_on_c, 9, 37, 0
11, 2784, Note_on_c, 9, 36, 0
11, 2784, Note_on_c, 9, 42, 80
11, 2784, Note_on_c, 9, 37, 95
11, 2832, Note_on_c, 9, 42, 0
11, 2832, Note_on_c, 9, 37, 0
11, 2832, Note_on_c, 9, 37, 95
11, 2832, Note_on_c, 9, 36, 110
11, 2880, Note_on_c, 9, 37, 0
11, 2880, Note_on_c, 9, 38, 116
11, 2880, Note_on_c, 9, 36, 0
11, 2880, Note_on_c, 9, 37, 95
11, 2880, Note_on_c, 9, 42, 80
11, 2976, Note_on_c, 9, 38, 0
11, 2976, Note_on_c, 9, 42, 80
11, 2976, Note_on_c, 9, 42, 0
11, 2976, Note_on_c, 9, 36, 110
11, 3024, Note_on_c, 9, 37, 0
11, 3024, Note_on_c, 9, 37, 95
11, 3072, Note_on_c, 9, 42, 0
11, 3072, Note_on_c, 9, 36, 0
11, 3072, Note_on_c, 9, 37, 0
11, 3072, Note_on_c, 9, 42, 80
11, 3072, Note_on_c, 9, 37, 95
11, 3072, Note_on_c, 9, 36, 110
11, 3168, Note_on_c, 9, 42, 0
11, 3168, Note_on_c, 9, 37, 0
11, 3168, Note_on_c, 9, 36, 0
11, 3168, Note_on_c, 9, 42, 80
11, 3168, Note_on_c, 9, 37, 95
11, 3168, Note_on_c, 9, 36, 110
11, 3216, Note_on_c, 9, 37, 0
11, 3216, Note_on_c, 9, 37, 95
11, 3264, Note_on_c, 9, 42, 0
11, 3264, Note_on_c, 9, 36, 0
11, 3264, Note_on_c, 9, 37, 95
11, 3264, Note_on_c, 9, 37, 0
11, 3264, Note_on_c, 9, 42, 80
11, 3264, Note_on_c, 9, 38, 116
11, 3360, Note_on_c, 9, 37, 0
11, 3360, Note_on_c, 9, 42, 0
11, 3360, Note_on_c, 9, 38, 0
11, 3360, Note_on_c, 9, 37, 95
11, 3360, Note_on_c, 9, 42, 80
11, 3360, Note_on_c, 9, 36, 110
11, 3408, Note_on_c, 9, 37, 0
11, 3408, Note_on_c, 9, 37, 95
11, 3456, Note_on_c, 9, 42, 0
11, 3456, Note_on_c, 9, 36, 0
11, 3456, Note_on_c, 9, 37, 0
11, 3456, Note_on_c, 9, 37, 95
11, 3456, Note_on_c, 9, 44, 95
11, 3456, Note_on_c, 9, 36, 110
11, 3456, Note_on_c, 9, 38, 116
11, 3552, Note_on_c, 9, 37, 0
11, 3552, Note_on_c, 9, 44, 0
11, 3552, Note_on_c, 9, 36, 0
11, 3552, Note_on_c, 9, 38, 0
11, 3552, Note_on_c, 9, 38, 116
11, 3552, Note_on_c, 9, 37, 95
11, 3600, Note_on_c, 9, 38, 0
11, 3600, Note_on_c, 9, 37, 95
11, 3600, Note_on_c, 9, 37, 0
11, 3600, Note_on_c, 9, 38, 116
11, 3600, Note_on_c, 9, 44, 95
11, 3600, Note_on_c, 9, 36, 110
11, 3648, Note_on_c, 9, 37, 0
11, 3648, Note_on_c, 9, 37, 95
11, 3696, Note_on_c, 9, 38, 0
11, 3696, Note_on_c, 9, 44, 0
11, 3696, Note_on_c, 9, 36, 0
11, 3696, Note_on_c, 9, 38, 116
11, 3744, Note_on_c, 9, 38, 0
11, 3744, Note_on_c, 9, 38, 116
11, 3792, Note_on_c, 9, 37, 0
11, 3792, Note_on_c, 9, 37, 95
11, 3840, Note_on_c, 9, 38, 0
11, 3840, Note_on_c, 9, 37, 0
11, 3840, Note_on_c, 9, 42, 80
11, 3840, Note_on_c, 9, 36, 110
11, 3936, Note_on_c, 9, 42, 0
11, 3936, Note_on_c, 9, 36, 110
11, 3936, Note_on_c, 9, 36, 0
11, 3936, Note_on_c, 9, 42, 80
11, 4032, Note_on_c, 9, 36, 0
11, 4032, Note_on_c, 9, 42, 0
11, 4032, Note_on_c, 9, 42, 80
11, 4032, Note_on_c, 9, 38, 116
11, 4128, Note_on_c, 9, 42, 0
11, 4128, Note_on_c, 9, 42, 80
11, 4128, Note_on_c, 9, 38, 0
11, 4128, Note_on_c, 9, 36, 110
11, 4224, Note_on_c, 9, 42, 0
11, 4224, Note_on_c, 9, 36, 0
11, 4224, Note_on_c, 9, 42, 80
11, 4224, Note_on_c, 9, 36, 110
11, 4320, Note_on_c, 9, 42, 0
11, 4320, Note_on_c, 9, 42, 80
11, 4320, Note_on_c, 9, 36, 0
11, 4368, Note_on_c, 9, 42, 0
11, 4368, Note_on_c, 9, 36, 110
11, 4416, Note_on_c, 9, 36, 0
11, 4416, Note_on_c, 9, 38, 116
11, 4416, Note_on_c, 9, 42, 80
11, 4512, Note_on_c, 9, 38, 0
11, 4512, Note_on_c, 9, 36, 110
11, 4512, Note_on_c, 9, 42, 0
11, 4512, Note_on_c, 9, 42, 80
11, 4608, Note_on_c, 9, 36, 0
11, 4608, Note_on_c, 9, 42, 0
11, 4608, Note_on_c, 9, 42, 80
11, 4608, Note_on_c, 9, 36, 110
11, 4704, Note_on_c, 9, 42, 0
11, 4704, Note_on_c, 9, 36, 0
11, 4704, Note_on_c, 9, 42, 80
11, 4704, Note_on_c, 9, 36, 110
11, 4800, Note_on_c, 9, 42, 0
11, 4800, Note_on_c, 9, 38, 116
11, 4800, Note_on_c, 9, 36, 0
11, 4800, Note_on_c, 9, 42, 80
11, 4896, Note_on_c, 9, 38, 0
11, 4896, Note_on_c, 9, 42, 0
11, 4896, Note_on_c, 9, 36, 110
11, 4896, Note_on_c, 9, 42, 80
11, 4992, Note_on_c, 9, 36, 0
11, 4992, Note_on_c, 9, 36, 110
11, 4992, Note_on_c, 9, 42, 0
11, 4992, Note_on_c, 9, 42, 80
11, 5088, Note_on_c, 9, 36, 0
11, 5088, Note_on_c, 9, 42, 0
11, 5088, Note_on_c, 9, 42, 80
11, 5136, Note_on_c, 9, 42, 0
11, 5136, Note_on_c, 9, 36, 110
11, 5184, Note_on_c, 9, 36, 0
11, 5184, Note_on_c, 9, 42, 80
11, 5184, Note_on_c, 9, 38, 116
11, 5280, Note_on_c, 9, 42, 0
11, 5280, Note_on_c, 9, 42, 80
11, 5280, Note_on_c, 9, 38, 0
11, 5280, Note_on_c, 9, 36, 110
11, 5376, Note_on_c, 9, 42, 0
11, 5376, Note_on_c, 9, 36, 0
11, 5376, Note_on_c, 9, 36, 110
11, 5376, Note_on_c, 9, 42, 80
11, 5472, Note_on_c, 9, 36, 0
11, 5472, Note_on_c, 9, 42, 80
11, 5472, Note_on_c, 9, 42, 0
11, 5472, Note_on_c, 9, 36, 110
11, 5568, Note_on_c, 9, 42, 0
11, 5568, Note_on_c, 9, 36, 0
11, 5568, Note_on_c, 9, 38, 116
11, 5568, Note_on_c, 9, 42, 80
11, 5664, Note_on_c, 9, 38, 0
11, 5664, Note_on_c, 9, 42, 0
11, 5664, Note_on_c, 9, 36, 110
11, 5664, Note_on_c, 9, 42, 80
11, 5760, Note_on_c, 9, 36, 0
11, 5760, Note_on_c, 9, 36, 110
11, 5760, Note_on_c, 9, 42, 0
11, 5760, Note_on_c, 9, 42, 80
11, 5856, Note_on_c, 9, 36, 0
11, 5856, Note_on_c, 9, 42, 0
11, 5856, Note_on_c, 9, 42, 80
11, 5904, Note_on_c, 9, 42, 0
11, 5904, Note_on_c, 9, 36, 110
11, 5952, Note_on_c, 9, 42, 80
11, 5952, Note_on_c, 9, 36, 0
11, 5952, Note_on_c, 9, 38, 116
11, 6048, Note_on_c, 9, 42, 0
11, 6048, Note_on_c, 9, 38, 0
11, 6048, Note_on_c, 9, 42, 80
11, 6048, Note_on_c, 9, 36, 110
11, 6144, Note_on_c, 9, 42, 0
11, 6144, Note_on_c, 9, 36, 0
11, 6144, Note_on_c, 9, 36, 110
11, 6144, Note_on_c, 9, 42, 80
11, 6240, Note_on_c, 9, 36, 0
11, 6240, Note_on_c, 9, 42, 0
11, 6240, Note_on_c, 9, 36, 110
11, 6240, Note_on_c, 9, 42, 80
11, 6336, Note_on_c, 9, 36, 0
11, 6336, Note_on_c, 9, 42, 80
11, 6336, Note_on_c, 9, 42, 0
11, 6336, Note_on_c, 9, 38, 116
11, 6432, Note_on_c, 9, 42, 0
11, 6432, Note_on_c, 9, 38, 0
11, 6432, Note_on_c, 9, 42, 80
11, 6432, Note_on_c, 9, 36, 110
11, 6528, Note_on_c, 9, 42, 0
11, 6528, Note_on_c, 9, 36, 0
11, 6528, Note_on_c, 9, 42, 80
11, 6528, Note_on_c, 9, 36, 110
11, 6624, Note_on_c, 9, 42, 0
11, 6624, Note_on_c, 9, 42, 80
11, 6624, Note_on_c, 9, 36, 0
11, 6672, Note_on_c, 9, 42, 0
11, 6672, Note_on_c, 9, 36, 110
11, 6720, Note_on_c, 9, 36, 0
11, 6720, Note_on_c, 9, 38, 116
11, 6720, Note_on_c, 9, 42, 80
11, 6816, Note_on_c, 9, 38, 0
11, 6816, Note_on_c, 9, 42, 80
11, 6816, Note_on_c, 9, 42, 0
11, 6816, Note_on_c, 9, 36, 110
11, 6912, Note_on_c, 9, 42, 0
11, 6912, Note_on_c, 9, 36, 0
11, 6912, Note_on_c, 9, 42, 80
11, 6912, Note_on_c, 9, 36, 110
11, 7008, Note_on_c, 9, 42, 0
11, 7008, Note_on_c, 9, 36, 0
11, 7008, Note_on_c, 9, 42, 80
11, 7008, Note_on_c, 9, 36, 110
11, 7104, Note_on_c, 9, 42, 0
11, 7104, Note_on_c, 9, 42, 80
11, 7104, Note_on_c, 9, 36, 0
11, 7104, Note_on_c, 9, 38, 116
11, 7200, Note_on_c, 9, 42, 0
11, 7200, Note_on_c, 9, 38, 0
11, 7200, Note_on_c, 9, 36, 110
11, 7200, Note_on_c, 9, 42, 80
11, 7296, Note_on_c, 9, 36, 0
11, 7296, Note_on_c, 9, 42, 0
11, 7296, Note_on_c, 9, 42, 80
11, 7296, Note_on_c, 9, 36, 110
11, 7392, Note_on_c, 9, 42, 0
11, 7392, Note_on_c, 9, 36, 0
11, 7392, Note_on_c, 9, 42, 80
11, 7440, Note_on_c, 9, 36, 110
11, 7440, Note_on_c, 9, 42, 0
11, 7488, Note_on_c, 9, 38, 116
11, 7488, Note_on_c, 9, 36, 0
11, 7488, Note_on_c, 9, 42, 80
11, 7584, Note_on_c, 9, 38, 0
11, 7584, Note_on_c, 9, 42, 0
11, 7584, Note_on_c, 9, 42, 80
11, 7584, Note_on_c, 9, 36, 110
11, 7680, Note_on_c, 9, 42, 0
11, 7680, Note_on_c, 9, 42, 80
11, 7680, Note_on_c, 9, 36, 0
11, 7680, Note_on_c, 9, 36, 110
11, 7776, Note_on_c, 9, 42, 0
11, 7776, Note_on_c, 9, 36, 0
11, 7776, Note_on_c, 9, 42, 80
11, 7776, Note_on_c, 9, 36, 110
11, 7872, Note_on_c, 9, 42, 0
11, 7872, Note_on_c, 9, 36, 0
11, 7872, Note_on_c, 9, 42, 80
11, 7872, Note_on_c, 9, 38, 116
11, 7968, Note_on_c, 9, 42, 0
11, 7968, Note_on_c, 9, 36, 110
11, 7968, Note_on_c, 9, 38, 0
11, 7968, Note_on_c, 9, 42, 80
11, 8064, Note_on_c, 9, 36, 0
11, 8064, Note_on_c, 9, 42, 0
11, 8064, Note_on_c, 9, 42, 80
11, 8064, Note_on_c, 9, 36, 110
11, 8160, Note_on_c, 9, 42, 0
11, 8160, Note_on_c, 9, 42, 80
11, 8160, Note_on_c, 9, 36, 0
11, 8208, Note_on_c, 9, 42, 0
11, 8208, Note_on_c, 9, 36, 110
11, 8256, Note_on_c, 9, 36, 0
11, 8256, Note_on_c, 9, 38, 116
11, 8256, Note_on_c, 9, 42, 80
11, 8352, Note_on_c, 9, 38, 0
11, 8352, Note_on_c, 9, 36, 110
11, 8352, Note_on_c, 9, 42, 0
11, 8352, Note_on_c, 9, 42, 80
11, 8448, Note_on_c, 9, 36, 0
11, 8448, Note_on_c, 9, 42, 0
11, 8448, Note_on_c, 9, 36, 110
11, 8448, Note_on_c, 9, 42, 80
11, 8544, Note_on_c, 9, 36, 0
11, 8544, Note_on_c, 9, 42, 80
11, 8544, Note_on_c, 9, 42, 0
11, 8544, Note_on_c, 9, 36, 110
11, 8640, Note_on_c, 9, 42, 0
11, 8640, Note_on_c, 9, 36, 0
11, 8640, Note_on_c, 9, 42, 80
11, 8640, Note_on_c, 9, 38, 116
11, 8736, Note_on_c, 9, 42, 0
11, 8736, Note_on_c, 9, 38, 0
11, 8736, Note_on_c, 9, 42, 80
11, 8736, Note_on_c, 9, 36, 110
11, 8832, Note_on_c, 9, 42, 0
11, 8832, Note_on_c, 9, 36, 110
11, 8832, Note_on_c, 9, 36, 0
11, 8832, Note_on_c, 9, 42, 80
11, 8928, Note_on_c, 9, 36, 0
11, 8928, Note_on_c, 9, 42, 0
11, 8928, Note_on_c, 9, 42, 80
11, 8976, Note_on_c, 9, 42, 0
11, 8976, Note_on_c, 9, 36, 110
11, 9024, Note_on_c, 9, 42, 80
11, 9024, Note_on_c, 9, 36, 0
11, 9024, Note_on_c, 9, 38, 116
11, 9120, Note_on_c, 9, 42, 0
11, 9120, Note_on_c, 9, 38, 0
11, 9120, Note_on_c, 9, 42, 80
11, 9120, Note_on_c, 9, 36, 110
11, 9216, Note_on_c, 9, 42, 0
11, 9216, Note_on_c, 9, 36, 0
11, 9216, Note_on_c, 9, 42, 80
11, 9216, Note_on_c, 9, 36, 110
11, 9312, Note_on_c, 9, 42, 0
11, 9312, Note_on_c, 9, 36, 110
11, 9312, Note_on_c, 9, 36, 0
11, 9312, Note_on_c, 9, 42, 80
11, 9408, Note_on_c, 9, 36, 0
11, 9408, Note_on_c, 9, 42, 0
11, 9408, Note_on_c, 9, 42, 80
11, 9408, Note_on_c, 9, 38, 116
11, 9504, Note_on_c, 9, 42, 0
11, 9504, Note_on_c, 9, 42, 80
11, 9504, Note_on_c, 9, 38, 0
11, 9504, Note_on_c, 9, 36, 110
11, 9600, Note_on_c, 9, 42, 0
11, 9600, Note_on_c, 9, 36, 0
11, 9600, Note_on_c, 9, 36, 110
11, 9600, Note_on_c, 9, 42, 80
11, 9696, Note_on_c, 9, 36, 0
11, 9696, Note_on_c, 9, 42, 0
11, 9696, Note_on_c, 9, 42, 80
11, 9744, Note_on_c, 9, 36, 110
11, 9744, Note_on_c, 9, 42, 0
11, 9792, Note_on_c, 9, 42, 80
11, 9792, Note_on_c, 9, 36, 0
11, 9792, Note_on_c, 9, 38, 116
11, 9888, Note_on_c, 9, 42, 0
11, 9888, Note_on_c, 9, 38, 0
11, 9888, Note_on_c, 9, 42, 80
11, 9888, Note_on_c, 9, 36, 110
11, 9984, Note_on_c, 9, 42, 0
11, 9984, Note_on_c, 9, 46, 80
11, 9984, Note_on_c, 9, 36, 0
11, 9984, Note_on_c, 9, 36, 110
11, 10080, Note_on_c, 9, 46, 0
11, 10080, Note_on_c, 9, 36, 0
11, 10080, Note_on_c, 9, 46, 80
11, 10128, Note_on_c, 9, 46, 0
11, 10128, Note_on_c, 9, 46, 80
11, 10176, Note_on_c, 9, 36, 110
11, 10176, Note_on_c, 9, 46, 0
11, 10176, Note_on_c, 9, 46, 80
11, 10272, Note_on_c, 9, 36, 0
11, 10272, Note_on_c, 9, 46, 0
11, 10272, Note_on_c, 9, 46, 80
11, 10320, Note_on_c, 9, 46, 0
11, 10320, Note_on_c, 9, 46, 80
11, 10368, Note_on_c, 9, 46, 80
11, 10368, Note_on_c, 9, 46, 0
11, 10368, Note_on_c, 9, 36, 110
11, 10464, Note_on_c, 9, 46, 0
11, 10464, Note_on_c, 9, 36, 0
11, 10464, Note_on_c, 9, 46, 80
11, 10512, Note_on_c, 9, 46, 0
11, 10512, Note_on_c, 9, 46, 80
11, 10560, Note_on_c, 9, 46, 0
11, 10560, Note_on_c, 9, 36, 110
11, 10560, Note_on_c, 9, 46, 80
11, 10656, Note_on_c, 9, 36, 0
11, 10656, Note_on_c, 9, 46, 80
11, 10656, Note_on_c, 9, 46, 0
11, 10704, Note_on_c, 9, 46, 0
11, 10704, Note_on_c, 9, 46, 80
11, 10752, Note_on_c, 9, 46, 0
11, 10752, Note_on_c, 9, 46, 80
11, 10752, Note_on_c, 9, 36, 110
11, 10848, Note_on_c, 9, 46, 0
11, 10848, Note_on_c, 9, 46, 80
11, 10848, Note_on_c, 9, 36, 0
11, 10896, Note_on_c, 9, 46, 80
11, 10896, Note_on_c, 9, 46, 0
11, 10944, Note_on_c, 9, 46, 0
11, 10944, Note_on_c, 9, 46, 80
11, 10944, Note_on_c, 9, 36, 110
11, 11040, Note_on_c, 9, 46, 0
11, 11040, Note_on_c, 9, 36, 0
11, 11040, Note_on_c, 9, 46, 80
11, 11088, Note_on_c, 9, 46, 80
11, 11088, Note_on_c, 9, 46, 0
11, 11136, Note_on_c, 9, 36, 110
11, 11136, Note_on_c, 9, 46, 0
11, 11136, Note_on_c, 9, 46, 80
11, 11232, Note_on_c, 9, 36, 0
11, 11232, Note_on_c, 9, 46, 0
11, 11232, Note_on_c, 9, 46, 80
11, 11280, Note_on_c, 9, 46, 0
11, 11280, Note_on_c, 9, 46, 80
11, 11328, Note_on_c, 9, 46, 80
11, 11328, Note_on_c, 9, 46, 0
11, 11328, Note_on_c, 9, 36, 110
11, 11424, Note_on_c, 9, 46, 0
11, 11424, Note_on_c, 9, 36, 0
11, 11424, Note_on_c, 9, 46, 80
11, 11472, Note_on_c, 9, 46, 0
11, 11472, Note_on_c, 9, 46, 80
11, 11520, Note_on_c, 9, 46, 0
11, 11520, Note_on_c, 9, 42, 80
11, 11520, Note_on_c, 9, 36, 110
11, 11616, Note_on_c, 9, 42, 0
11, 11616, Note_on_c, 9, 42, 80
11, 11616, Note_on_c, 9, 36, 0
11, 11664, Note_on_c, 9, 42, 0
11, 11664, Note_on_c, 9, 36, 110
11, 11664, Note_on_c, 9, 42, 80
11, 11712, Note_on_c, 9, 36, 0
11, 11712, Note_on_c, 9, 42, 0
11, 11712, Note_on_c, 9, 42, 80
11, 11712, Note_on_c, 9, 38, 116
11, 11808, Note_on_c, 9, 42, 0
11, 11808, Note_on_c, 9, 36, 110
11, 11808, Note_on_c, 9, 38, 0
11, 11904, Note_on_c, 9, 36, 0
11, 11904, Note_on_c, 9, 36, 110
11, 11904, Note_on_c, 9, 49, 95
11, 12032, Note_on_c, 9, 36, 0
11, 12032, Note_on_c, 9, 49, 0
11, 12032, Note_on_c, 9, 49, 95
11, 12032, Note_on_c, 9, 36, 110
11, 12160, Note_on_c, 9, 49, 0
11, 12160, Note_on_c, 9, 36, 0
11, 12160, Note_on_c, 9, 49, 95
11, 12160, Note_on_c, 9, 36, 110
11, 12288, Note_on_c, 9, 49, 0
11, 12288, Note_on_c, 9, 42, 80
11, 12288, Note_on_c, 9, 36, 0
11, 12288, Note_on_c, 9, 36, 110
11, 12384, Note_on_c, 9, 42, 0
11, 12384, Note_on_c, 9, 36, 0
11, 12384, Note_on_c, 9, 42, 80
11, 12432, Note_on_c, 9, 42, 0
11, 12432, Note_on_c, 9, 42, 80
11, 12432, Note_on_c, 9, 36, 110
11, 12480, Note_on_c, 9, 42, 0
11, 12480, Note_on_c, 9, 42, 80
11, 12480, Note_on_c, 9, 36, 0
11, 12480, Note_on_c, 9, 38, 116
11, 12576, Note_on_c, 9, 42, 0
11, 12576, Note_on_c, 9, 38, 0
11, 12576, Note_on_c, 9, 36, 110
11, 12672, Note_on_c, 9, 36, 0
11, 12672, Note_on_c, 9, 49, 95
11, 12672, Note_on_c, 9, 36, 110
11, 12800, Note_on_c, 9, 49, 0
11, 12800, Note_on_c, 9, 49, 95
11, 12800, Note_on_c, 9, 36, 0
11, 12800, Note_on_c, 9, 36, 110
11, 12928, Note_on_c, 9, 49, 0
11, 12928, Note_on_c, 9, 36, 0
11, 12928, Note_on_c, 9, 36, 110
11, 12928, Note_on_c, 9, 49, 95
11, 13056, Note_on_c, 9, 36, 0
11, 13056, Note_on_c, 9, 49, 0
11, 13056, Note_on_c, 9, 36, 110
11, 13056, Note_on_c, 9, 46, 80
11, 13152, Note_on_c, 9, 36, 0
11, 13152, Note_on_c, 9, 46, 80
11, 13152, Note_on_c, 9, 46, 0
11, 13200, Note_on_c, 9, 46, 0
11, 13200, Note_on_c, 9, 46, 80
11, 13248, Note_on_c, 9, 46, 0
11, 13248, Note_on_c, 9, 46, 80
11, 13248, Note_on_c, 9, 36, 110
11, 13344, Note_on_c, 9, 46, 0
11, 13344, Note_on_c, 9, 46, 80
11, 13344, Note_on_c, 9, 36, 0
11, 13392, Note_on_c, 9, 46, 80
11, 13392, Note_on_c, 9, 46, 0
11, 13440, Note_on_c, 9, 46, 0
11, 13440, Note_on_c, 9, 36, 110
11, 13440, Note_on_c, 9, 46, 80
11, 13536, Note_on_c, 9, 36, 0
11, 13536, Note_on_c, 9, 46, 0
11, 13536, Note_on_c, 9, 46, 80
11, 13584, Note_on_c, 9, 46, 80
11, 13584, Note_on_c, 9, 46, 0
11, 13632, Note_on_c, 9, 46, 80
11, 13632, Note_on_c, 9, 46, 0
11, 13632, Note_on_c, 9, 36, 110
11, 13728, Note_on_c, 9, 46, 0
11, 13728, Note_on_c, 9, 36, 0
11, 13728, Note_on_c, 9, 46, 80
11, 13776, Note_on_c, 9, 46, 0
11, 13776, Note_on_c, 9, 46, 80
11, 13824, Note_on_c, 9, 36, 110
11, 13824, Note_on_c, 9, 46, 0
11, 13824, Note_on_c, 9, 46, 80
11, 13920, Note_on_c, 9, 36, 0
11, 13920, Note_on_c, 9, 46, 0
11, 13920, Note_on_c, 9, 46, 80
11, 13968, Note_on_c, 9, 46, 0
11, 13968, Note_on_c, 9, 46, 80
11, 14016, Note_on_c, 9, 46, 0
11, 14016, Note_on_c, 9, 46, 80
11, 14016, Note_on_c, 9, 36, 110
11, 14112, Note_on_c, 9, 46, 0
11, 14112, Note_on_c, 9, 46, 80
11, 14112, Note_on_c, 9, 36, 0
11, 14160, Note_on_c, 9, 46, 0
11, 14160, Note_on_c, 9, 46, 80
11, 14208, Note_on_c, 9, 46, 0
11, 14208, Note_on_c, 9, 36, 110
11, 14208, Note_on_c, 9, 46, 80
11, 14304, Note_on_c, 9, 36, 0
11, 14304, Note_on_c, 9, 46, 0
11, 14304, Note_on_c, 9, 46, 80
11, 14352, Note_on_c, 9, 46, 0
11, 14352, Note_on_c, 9, 46, 80
11, 14400, Note_on_c, 9, 46, 0
11, 14400, Note_on_c, 9, 46, 80
11, 14400, Note_on_c, 9, 36, 110
11, 14496, Note_on_c, 9, 46, 0
11, 14496, Note_on_c, 9, 46, 80
11, 14496, Note_on_c, 9, 36, 0
11, 14544, Note_on_c, 9, 46, 0
11, 14544, Note_on_c, 9, 46, 80
11, 14592, Note_on_c, 9, 46, 0
11, 14592, Note_on_c, 9, 49, 95
11, 14592, Note_on_c, 9, 36, 110
11, 14688, Note_on_c, 9, 49, 0
11, 14688, Note_on_c, 9, 42, 80
11, 14688, Note_on_c, 9, 36, 0
11, 14736, Note_on_c, 9, 42, 80
11, 14736, Note_on_c, 9, 42, 0
11, 14736, Note_on_c, 9, 36, 110
11, 14784, Note_on_c, 9, 42, 0
11, 14784, Note_on_c, 9, 36, 0
11, 14784, Note_on_c, 9, 42, 80
11, 14784, Note_on_c, 9, 38, 116
11, 14880, Note_on_c, 9, 42, 0
11, 14880, Note_on_c, 9, 36, 110
11, 14880, Note_on_c, 9, 38, 0
11, 14976, Note_on_c, 9, 49, 95
11, 14976, Note_on_c, 9, 36, 0
11, 14976, Note_on_c, 9, 36, 110
11, 15072, Note_on_c, 9, 49, 0
11, 15072, Note_on_c, 9, 36, 0
11, 15072, Note_on_c, 9, 42, 80
11, 15120, Note_on_c, 9, 42, 0
11, 15120, Note_on_c, 9, 42, 80
11, 15120, Note_on_c, 9, 36, 110
11, 15168, Note_on_c, 9, 42, 0
11, 15168, Note_on_c, 9, 36, 0
11, 15168, Note_on_c, 9, 38, 116
11, 15168, Note_on_c, 9, 42, 80
11, 15264, Note_on_c, 9, 38, 0
11, 15264, Note_on_c, 9, 36, 110
11, 15264, Note_on_c, 9, 42, 0
11, 15360, Note_on_c, 9, 38, 116
11, 15360, Note_on_c, 9, 36, 0
11, 15408, Note_on_c, 9, 38, 0
11, 15408, Note_on_c, 9, 38, 116
11, 15456, Note_on_c, 9, 38, 0
11, 15456, Note_on_c, 9, 41, 95
11, 15504, Note_on_c, 9, 41, 0
11, 15504, Note_on_c, 9, 41, 95
11, 15552, Note_on_c, 9, 45, 95
11, 15552, Note_on_c, 9, 41, 0
11, 15600, Note_on_c, 9, 45, 95
11, 15600, Note_on_c, 9, 45, 0
11, 15648, Note_on_c, 9, 45, 0
11, 15648, Note_on_c, 9, 38, 116
11, 15744, Note_on_c, 9, 38, 0
11, 15840, Note_on_c, 9, 36, 110
11, 15936, Note_on_c, 9, 36, 0
11, 15936, Note_on_c, 9, 49, 95
11, 16128, Note_on_c, 9, 42, 80
11, 16128, Note_on_c, 9, 49, 0
11, 16128, Note_on_c, 9, 36, 110
11, 16224, Note_on_c, 9, 42, 0
11, 16224, Note_on_c, 9, 36, 0
11, 16224, Note_on_c, 9, 36, 110
11, 16224, Note_on_c, 9, 42, 80
11, 16320, Note_on_c, 9, 36, 0
11, 16320, Note_on_c, 9, 42, 0
11, 16320, Note_on_c, 9, 38, 116
11, 16320, Note_on_c, 9, 42, 80
11, 16416, Note_on_c, 9, 38, 0
11, 16416, Note_on_c, 9, 42, 80
11, 16416, Note_on_c, 9, 42, 0
11, 16416, Note_on_c, 9, 36, 110
11, 16512, Note_on_c, 9, 42, 0
11, 16512, Note_on_c, 9, 36, 0
11, 16512, Note_on_c, 9, 42, 80
11, 16512, Note_on_c, 9, 36, 110
11, 16608, Note_on_c, 9, 42, 0
11, 16608, Note_on_c, 9, 36, 0
11, 16608, Note_on_c, 9, 42, 80
11, 16656, Note_on_c, 9, 42, 0
11, 16656, Note_on_c, 9, 36, 110
11, 16704, Note_on_c, 9, 36, 0
11, 16704, Note_on_c, 9, 42, 80
11, 16704, Note_on_c, 9, 38, 116
11, 16800, Note_on_c, 9, 42, 0
11, 16800, Note_on_c, 9, 36, 110
11, 16800, Note_on_c, 9, 38, 0
11, 16800, Note_on_c, 9, 42, 80
11, 16896, Note_on_c, 9, 36, 0
11, 16896, Note_on_c, 9, 42, 0
11, 16896, Note_on_c, 9, 42, 80
11, 16896, Note_on_c, 9, 36, 110
11, 16992, Note_on_c, 9, 42, 0
11, 16992, Note_on_c, 9, 42, 80
11, 16992, Note_on_c, 9, 36, 0
11, 16992, Note_on_c, 9, 36, 110
11, 17088, Note_on_c, 9, 42, 0
11, 17088, Note_on_c, 9, 36, 0
11, 17088, Note_on_c, 9, 42, 80
11, 17088, Note_on_c, 9, 38, 116
11, 17184, Note_on_c, 9, 42, 0
11, 17184, Note_on_c, 9, 38, 0
11, 17184, Note_on_c, 9, 36, 110
11, 17184, Note_on_c, 9, 42, 80
11, 17280, Note_on_c, 9, 36, 0
11, 17280, Note_on_c, 9, 36, 110
11, 17280, Note_on_c, 9, 42, 0
11, 17280, Note_on_c, 9, 42, 80
11, 17376, Note_on_c, 9, 36, 0
11, 17376, Note_on_c, 9, 42, 0
11, 17376, Note_on_c, 9, 42, 80
11, 17424, Note_on_c, 9, 42, 0
11, 17424, Note_on_c, 9, 36, 110
11, 17472, Note_on_c, 9, 38, 116
11, 17472, Note_on_c, 9, 36, 0
11, 17472, Note_on_c, 9, 42, 80
11, 17568, Note_on_c, 9, 38, 0
11, 17568, Note_on_c, 9, 42, 0
11, 17568, Note_on_c, 9, 42, 80
11, 17568, Note_on_c, 9, 36, 110
11, 17664, Note_on_c, 9, 42, 0
11, 17664, Note_on_c, 9, 36, 0
11, 17664, Note_on_c, 9, 36, 110
11, 17664, Note_on_c, 9, 42, 80
11, 17760, Note_on_c, 9, 36, 0
11, 17760, Note_on_c, 9, 42, 80
11, 17760, Note_on_c, 9, 42, 0
11, 17760, Note_on_c, 9, 36, 110
11, 17856, Note_on_c, 9, 42, 0
11, 17856, Note_on_c, 9, 36, 0
11, 17856, Note_on_c, 9, 38, 116
11, 17856, Note_on_c, 9, 42, 80
11, 17952, Note_on_c, 9, 38, 0
11, 17952, Note_on_c, 9, 36, 110
11, 17952, Note_on_c, 9, 42, 0
11, 17952, Note_on_c, 9, 42, 80
11, 18048, Note_on_c, 9, 36, 0
11, 18048, Note_on_c, 9, 42, 0
11, 18048, Note_on_c, 9, 36, 110
11, 18048, Note_on_c, 9, 42, 80
11, 18144, Note_on_c, 9, 36, 0
11, 18144, Note_on_c, 9, 42, 0
11, 18144, Note_on_c, 9, 42, 80
11, 18192, Note_on_c, 9, 36, 110
11, 18192, Note_on_c, 9, 42, 0
11, 18240, Note_on_c, 9, 42, 80
11, 18240, Note_on_c, 9, 36, 0
11, 18240, Note_on_c, 9, 38, 116
11, 18336, Note_on_c, 9, 42, 0
11, 18336, Note_on_c, 9, 38, 0
11, 18336, Note_on_c, 9, 42, 80
11, 18336, Note_on_c, 9, 36, 110
11, 18432, Note_on_c, 9, 42, 0
11, 18432, Note_on_c, 9, 36, 110
11, 18432, Note_on_c, 9, 36, 0
11, 18432, Note_on_c, 9, 42, 80
11, 18528, Note_on_c, 9, 36, 0
11, 18528, Note_on_c, 9, 42, 0
11, 18528, Note_on_c, 9, 36, 110
11, 18528, Note_on_c, 9, 42, 80
11, 18624, Note_on_c, 9, 36, 0
11, 18624, Note_on_c, 9, 38, 116
11, 18624, Note_on_c, 9, 42, 0
11, 18624, Note_on_c, 9, 42, 80
11, 18720, Note_on_c, 9, 38, 0
11, 18720, Note_on_c, 9, 42, 0
11, 18720, Note_on_c, 9, 42, 80
11, 18720, Note_on_c, 9, 36, 110
11, 18816, Note_on_c, 9, 42, 0
11, 18816, Note_on_c, 9, 38, 116
11, 18816, Note_on_c, 9, 36, 0
11, 18816, Note_on_c, 9, 44, 95
11, 18816, Note_on_c, 9, 36, 110
11, 18912, Note_on_c, 9, 38, 0
11, 18912, Note_on_c, 9, 44, 0
11, 18912, Note_on_c, 9, 36, 0
11, 18912, Note_on_c, 9, 38, 116
11, 18960, Note_on_c, 9, 38, 0
11, 18960, Note_on_c, 9, 44, 95
11, 18960, Note_on_c, 9, 36, 110
11, 18960, Note_on_c, 9, 38, 116
11, 19056, Note_on_c, 9, 44, 0
11, 19056, Note_on_c, 9, 36, 0
11, 19056, Note_on_c, 9, 38, 0
11, 19056, Note_on_c, 9, 38, 116
11, 19104, Note_on_c, 9, 38, 0
11, 19104, Note_on_c, 9, 38, 116
11, 19188, Note_on_c, 9, 38, 0
11, 19200, Note_on_c, 9, 36, 110
11, 19200, Note_on_c, 9, 42, 80
11, 19296, Note_on_c, 9, 36, 0
11, 19296, Note_on_c, 9, 42, 80
11, 19296, Note_on_c, 9, 42, 0
11, 19296, Note_on_c, 9, 36, 110
11, 19392, Note_on_c, 9, 42, 0
11, 19392, Note_on_c, 9, 36, 0
11, 19392, Note_on_c, 9, 42, 80
11, 19392, Note_on_c, 9, 38, 116
11, 19488, Note_on_c, 9, 42, 0
11, 19488, Note_on_c, 9, 42, 80
11, 19488, Note_on_c, 9, 38, 0
11, 19488, Note_on_c, 9, 36, 110
11, 19584, Note_on_c, 9, 42, 0
11, 19584, Note_on_c, 9, 36, 0
11, 19584, Note_on_c, 9, 36, 110
11, 19584, Note_on_c, 9, 42, 80
11, 19680, Note_on_c, 9, 36, 0
11, 19680, Note_on_c, 9, 42, 0
11, 19680, Note_on_c, 9, 42, 80
11, 19728, Note_on_c, 9, 36, 110
11, 19728, Note_on_c, 9, 42, 0
11, 19776, Note_on_c, 9, 38, 116
11, 19776, Note_on_c, 9, 36, 0
11, 19776, Note_on_c, 9, 42, 80
11, 19872, Note_on_c, 9, 38, 0
11, 19872, Note_on_c, 9, 42, 0
11, 19872, Note_on_c, 9, 36, 110
11, 19872, Note_on_c, 9, 42, 80
11, 19968, Note_on_c, 9, 36, 0
11, 19968, Note_on_c, 9, 36, 110
11, 19968, Note_on_c, 9, 42, 0
11, 19968, Note_on_c, 9, 42, 80
11, 20064, Note_on_c, 9, 36, 0
11, 20064, Note_on_c, 9, 42, 0
11, 20064, Note_on_c, 9, 42, 80
11, 20064, Note_on_c, 9, 36, 110
11, 20160, Note_on_c, 9, 42, 0
11, 20160, Note_on_c, 9, 36, 0
11, 20160, Note_on_c, 9, 42, 80
11, 20160, Note_on_c, 9, 38, 116
11, 20256, Note_on_c, 9, 42, 0
11, 20256, Note_on_c, 9, 42, 80
11, 20256, Note_on_c, 9, 38, 0
11, 20256, Note_on_c, 9, 36, 110
11, 20352, Note_on_c, 9, 42, 0
11, 20352, Note_on_c, 9, 36, 0
11, 20352, Note_on_c, 9, 36, 110
11, 20352, Note_on_c, 9, 42, 80
11, 20448, Note_on_c, 9, 36, 0
11, 20448, Note_on_c, 9, 42, 0
11, 20448, Note_on_c, 9, 42, 80
11, 20496, Note_on_c, 9, 42, 0
11, 20496, Note_on_c, 9, 36, 110
11, 20544, Note_on_c, 9, 36, 0
11, 20544, Note_on_c, 9, 38, 116
11, 20544, Note_on_c, 9, 42, 80
11, 20640, Note_on_c, 9, 38, 0
11, 20640, Note_on_c, 9, 42, 80
11, 20640, Note_on_c, 9, 42, 0
11, 20640, Note_on_c, 9, 36, 110
11, 20724, Note_on_c, 9, 38, 116
11, 20735, Note_on_c, 9, 38, 0
11, 20736, Note_on_c, 9, 42, 0
11, 20736, Note_on_c, 9, 36, 0
11, 20736, Note_on_c, 9, 38, 116
11, 20736, Note_on_c, 9, 36, 110
11, 20820, Note_on_c, 9, 38, 0
11, 20832, Note_on_c, 9, 36, 0
11, 22068, Note_on_c, 9, 38, 116
11, 22079, Note_on_c, 9, 38, 0
11, 22080, Note_on_c, 9, 46, 80
11, 22080, Note_on_c, 9, 36, 110
11, 22080, Note_on_c, 9, 38, 116
11, 22176, Note_on_c, 9, 46, 0
11, 22176, Note_on_c, 9, 36, 0
11, 22176, Note_on_c, 9, 38, 0
11, 22272, Note_on_c, 9, 36, 110
11, 22272, Note_on_c, 9, 49, 95
11, 22368, Note_on_c, 9, 36, 0
11, 22368, Note_on_c, 9, 49, 0
11, 22368, Note_on_c, 9, 36, 110
11, 22368, Note_on_c, 9, 42, 80
11, 22464, Note_on_c, 9, 36, 0
11, 22464, Note_on_c, 9, 42, 0
11, 22464, Note_on_c, 9, 38, 116
11, 22464, Note_on_c, 9, 42, 80
11, 22560, Note_on_c, 9, 38, 0
11, 22560, Note_on_c, 9, 42, 80
11, 22560, Note_on_c, 9, 42, 0
11, 22560, Note_on_c, 9, 36, 110
11, 22656, Note_on_c, 9, 42, 0
11, 22656, Note_on_c, 9, 36, 0
11, 22656, Note_on_c, 9, 42, 80
11, 22656, Note_on_c, 9, 36, 110
11, 22752, Note_on_c, 9, 42, 0
11, 22752, Note_on_c, 9, 42, 80
11, 22752, Note_on_c, 9, 36, 0
11, 22800, Note_on_c, 9, 36, 110
11, 22800, Note_on_c, 9, 42, 0
11, 22848, Note_on_c, 9, 36, 0
11, 22848, Note_on_c, 9, 42, 80
11, 22848, Note_on_c, 9, 38, 116
11, 22944, Note_on_c, 9, 42, 0
11, 22944, Note_on_c, 9, 38, 0
11, 22944, Note_on_c, 9, 42, 80
11, 22944, Note_on_c, 9, 36, 110
11, 23040, Note_on_c, 9, 42, 0
11, 23040, Note_on_c, 9, 36, 110
11, 23040, Note_on_c, 9, 36, 0
11, 23040, Note_on_c, 9, 42, 80
11, 23136, Note_on_c, 9, 36, 0
11, 23136, Note_on_c, 9, 42, 0
11, 23136, Note_on_c, 9, 36, 110
11, 23136, Note_on_c, 9, 42, 80
11, 23232, Note_on_c, 9, 36, 0
11, 23232, Note_on_c, 9, 38, 116
11, 23232, Note_on_c, 9, 42, 0
11, 23232, Note_on_c, 9, 42, 80
11, 23328, Note_on_c, 9, 38, 0
11, 23328, Note_on_c, 9, 42, 0
11, 23328, Note_on_c, 9, 42, 80
11, 23328, Note_on_c, 9, 36, 110
11, 23424, Note_on_c, 9, 42, 0
11, 23424, Note_on_c, 9, 36, 0
11, 23424, Note_on_c, 9, 42, 80
11, 23424, Note_on_c, 9, 36, 110
11, 23520, Note_on_c, 9, 42, 0
11, 23520, Note_on_c, 9, 36, 0
11, 23520, Note_on_c, 9, 42, 80
11, 23568, Note_on_c, 9, 42, 0
11, 23568, Note_on_c, 9, 36, 110
11, 23616, Note_on_c, 9, 38, 116
11, 23616, Note_on_c, 9, 36, 0
11, 23616, Note_on_c, 9, 42, 80
11, 23712, Note_on_c, 9, 38, 0
11, 23712, Note_on_c, 9, 42, 0
11, 23712, Note_on_c, 9, 42, 80
11, 23712, Note_on_c, 9, 36, 110
11, 23808, Note_on_c, 9, 42, 0
11, 23808, Note_on_c, 9, 36, 0
11, 23808, Note_on_c, 9, 42, 80
11, 23808, Note_on_c, 9, 36, 110
11, 23904, Note_on_c, 9, 42, 0
11, 23904, Note_on_c, 9, 42, 80
11, 23904, Note_on_c, 9, 36, 0
11, 23904, Note_on_c, 9, 36, 110
11, 24000, Note_on_c, 9, 42, 0
11, 24000, Note_on_c, 9, 36, 0
11, 24000, Note_on_c, 9, 38, 116
11, 24000, Note_on_c, 9, 42, 80
11, 24096, Note_on_c, 9, 38, 0
11, 24096, Note_on_c, 9, 36, 110
11, 24096, Note_on_c, 9, 42, 0
11, 24096, Note_on_c, 9, 42, 80
11, 24192, Note_on_c, 9, 36, 0
11, 24192, Note_on_c, 9, 42, 0
11, 24192, Note_on_c, 9, 42, 80
11, 24192, Note_on_c, 9, 36, 110
11, 24288, Note_on_c, 9, 42, 0
11, 24288, Note_on_c, 9, 36, 0
11, 24288, Note_on_c, 9, 42, 80
11, 24336, Note_on_c, 9, 36, 110
11, 24336, Note_on_c, 9, 42, 0
11, 24384, Note_on_c, 9, 42, 80
11, 24384, Note_on_c, 9, 36, 0
11, 24384, Note_on_c, 9, 38, 116
11, 24480, Note_on_c, 9, 42, 0
11, 24480, Note_on_c, 9, 38, 0
11, 24480, Note_on_c, 9, 36, 110
11, 24480, Note_on_c, 9, 42, 80
11, 24576, Note_on_c, 9, 36, 0
11, 24576, Note_on_c, 9, 42, 0
11, 24576, Note_on_c, 9, 36, 110
11, 24576, Note_on_c, 9, 42, 80
11, 24672, Note_on_c, 9, 36, 0
11, 24672, Note_on_c, 9, 42, 0
11, 24672, Note_on_c, 9, 42, 80
11, 24672, Note_on_c, 9, 36, 110
11, 24768, Note_on_c, 9, 42, 0
11, 24768, Note_on_c, 9, 38, 116
11, 24768, Note_on_c, 9, 36, 0
11, 24768, Note_on_c, 9, 42, 80
11, 24864, Note_on_c, 9, 38, 0
11, 24864, Note_on_c, 9, 42, 0
11, 24864, Note_on_c, 9, 36, 110
11, 24864, Note_on_c, 9, 42, 80
11, 24960, Note_on_c, 9, 36, 0
11, 24960, Note_on_c, 9, 44, 95
11, 24960, Note_on_c, 9, 42, 0
11, 24960, Note_on_c, 9, 38, 116
11, 24960, Note_on_c, 9, 36, 110
11, 25056, Note_on_c, 9, 44, 0
11, 25056, Note_on_c, 9, 38, 0
11, 25056, Note_on_c, 9, 36, 0
11, 25056, Note_on_c, 9, 38, 116
11, 25104, Note_on_c, 9, 38, 0
11, 25104, Note_on_c, 9, 44, 95
11, 25104, Note_on_c, 9, 38, 116
11, 25104, Note_on_c, 9, 36, 110
11, 25200, Note_on_c, 9, 44, 0
11, 25200, Note_on_c, 9, 38, 0
11, 25200, Note_on_c, 9, 36, 0
11, 25200, Note_on_c, 9, 38, 116
11, 25248, Note_on_c, 9, 38, 0
11, 25248, Note_on_c, 9, 38, 116
11, 25344, Note_on_c, 9, 38, 0
11, 25344, Note_on_c, 9, 49, 95
11, 25344, Note_on_c, 9, 36, 110
11, 25440, Note_on_c, 9, 49, 0
11, 25440, Note_on_c, 9, 36, 0
11, 25440, Note_on_c, 9, 36, 110
11, 25440, Note_on_c, 9, 42, 80
11, 25536, Note_on_c, 9, 36, 0
11, 25536, Note_on_c, 9, 42, 80
11, 25536, Note_on_c, 9, 42, 0
11, 25536, Note_on_c, 9, 38, 116
11, 25632, Note_on_c, 9, 42, 0
11, 25632, Note_on_c, 9, 38, 0
11, 25632, Note_on_c, 9, 42, 80
11, 25632, Note_on_c, 9, 36, 110
11, 25728, Note_on_c, 9, 42, 0
11, 25728, Note_on_c, 9, 36, 0
11, 25728, Note_on_c, 9, 42, 80
11, 25728, Note_on_c, 9, 36, 110
11, 25824, Note_on_c, 9, 42, 0
11, 25824, Note_on_c, 9, 42, 80
11, 25824, Note_on_c, 9, 36, 0
11, 25872, Note_on_c, 9, 42, 0
11, 25872, Note_on_c, 9, 36, 110
11, 25920, Note_on_c, 9, 36, 0
11, 25920, Note_on_c, 9, 42, 80
11, 25920, Note_on_c, 9, 38, 116
11, 26016, Note_on_c, 9, 42, 0
11, 26016, Note_on_c, 9, 36, 110
11, 26016, Note_on_c, 9, 38, 0
11, 26016, Note_on_c, 9, 42, 80
11, 26112, Note_on_c, 9, 36, 0
11, 26112, Note_on_c, 9, 42, 0
11, 26112, Note_on_c, 9, 42, 80
11, 26112, Note_on_c, 9, 36, 110
11, 26208, Note_on_c, 9, 42, 0
11, 26208, Note_on_c, 9, 36, 0
11, 26208, Note_on_c, 9, 42, 80
11, 26208, Note_on_c, 9, 36, 110
11, 26304, Note_on_c, 9, 42, 0
11, 26304, Note_on_c, 9, 38, 116
11, 26304, Note_on_c, 9, 36, 0
11, 26304, Note_on_c, 9, 42, 80
11, 26400, Note_on_c, 9, 38, 0
11, 26400, Note_on_c, 9, 42, 0
11, 26400, Note_on_c, 9, 36, 110
11, 26400, Note_on_c, 9, 42, 80
11, 26496, Note_on_c, 9, 36, 0
11, 26496, Note_on_c, 9, 36, 110
11, 26496, Note_on_c, 9, 42, 0
11, 26496, Note_on_c, 9, 42, 80
11, 26592, Note_on_c, 9, 36, 0
11, 26592, Note_on_c, 9, 42, 0
11, 26592, Note_on_c, 9, 42, 80
11, 26640, Note_on_c, 9, 42, 0
11, 26640, Note_on_c, 9, 36, 110
11, 26688, Note_on_c, 9, 36, 0
11, 26688, Note_on_c, 9, 38, 116
11, 26688, Note_on_c, 9, 42, 80
11, 26784, Note_on_c, 9, 38, 0
11, 26784, Note_on_c, 9, 36, 110
11, 26784, Note_on_c, 9, 42, 0
11, 26784, Note_on_c, 9, 42, 80
11, 26880, Note_on_c, 9, 36, 0
11, 26880, Note_on_c, 9, 42, 0
11, 26880, Note_on_c, 9, 42, 80
11, 26880, Note_on_c, 9, 36, 110
11, 26976, Note_on_c, 9, 42, 0
11, 26976, Note_on_c, 9, 42, 80
11, 26976, Note_on_c, 9, 36, 0
11, 26976, Note_on_c, 9, 36, 110
11, 27072, Note_on_c, 9, 42, 0
11, 27072, Note_on_c, 9, 36, 0
11, 27072, Note_on_c, 9, 42, 80
11, 27072, Note_on_c, 9, 38, 116
11, 27168, Note_on_c, 9, 42, 0
11, 27168, Note_on_c, 9, 38, 0
11, 27168, Note_on_c, 9, 36, 110
11, 27168, Note_on_c, 9, 42, 80
11, 27264, Note_on_c, 9, 36, 0
11, 27264, Note_on_c, 9, 36, 110
11, 27264, Note_on_c, 9, 42, 0
11, 27264, Note_on_c, 9, 42, 80
11, 27360, Note_on_c, 9, 36, 0
11, 27360, Note_on_c, 9, 42, 0
11, 27360, Note_on_c, 9, 42, 80
11, 27408, Note_on_c, 9, 36, 110
11, 27408, Note_on_c, 9, 42, 0
11, 27456, Note_on_c, 9, 36, 0
11, 27456, Note_on_c, 9, 42, 80
11, 27456, Note_on_c, 9, 38, 116
11, 27552, Note_on_c, 9, 42, 0
11, 27552, Note_on_c, 9, 38, 0
11, 27552, Note_on_c, 9, 42, 80
11, 27552, Note_on_c, 9, 36, 110
11, 27648, Note_on_c, 9, 42, 0
11, 27648, Note_on_c, 9, 36, 110
11, 27648, Note_on_c, 9, 36, 0
11, 27648, Note_on_c, 9, 42, 80
11, 27744, Note_on_c, 9, 36, 0
11, 27744, Note_on_c, 9, 42, 0
11, 27744, Note_on_c, 9, 36, 110
11, 27744, Note_on_c, 9, 42, 80
11, 27840, Note_on_c, 9, 36, 0
11, 27840, Note_on_c, 9, 42, 80
11, 27840, Note_on_c, 9, 42, 0
11, 27840, Note_on_c, 9, 38, 116
11, 27936, Note_on_c, 9, 42, 0
11, 27936, Note_on_c, 9, 38, 0
11, 27936, Note_on_c, 9, 42, 80
11, 27936, Note_on_c, 9, 36, 110
11, 28032, Note_on_c, 9, 42, 0
11, 28032, Note_on_c, 9, 36, 0
11, 28032, Note_on_c, 9, 44, 95
11, 28032, Note_on_c, 9, 38, 116
11, 28032, Note_on_c, 9, 36, 110
11, 28128, Note_on_c, 9, 44, 0
11, 28128, Note_on_c, 9, 38, 0
11, 28128, Note_on_c, 9, 36, 0
11, 28128, Note_on_c, 9, 38, 116
11, 28176, Note_on_c, 9, 38, 0
11, 28176, Note_on_c, 9, 44, 95
11, 28176, Note_on_c, 9, 36, 110
11, 28176, Note_on_c, 9, 38, 116
11, 28272, Note_on_c, 9, 44, 0
11, 28272, Note_on_c, 9, 36, 0
11, 28272, Note_on_c, 9, 38, 116
11, 28272, Note_on_c, 9, 38, 0
11, 28320, Note_on_c, 9, 38, 0
11, 28320, Note_on_c, 9, 38, 116
11, 28416, Note_on_c, 9, 38, 0
11, 28416, Note_on_c, 9, 49, 95
11, 28416, Note_on_c, 9, 36, 110
11, 28416, Note_on_c, 9, 42, 80
11, 28512, Note_on_c, 9, 49, 0
11, 28512, Note_on_c, 9, 36, 0
11, 28512, Note_on_c, 9, 42, 80
11, 28512, Note_on_c, 9, 42, 0
11, 28560, Note_on_c, 9, 36, 110
11, 28608, Note_on_c, 9, 42, 0
11, 28608, Note_on_c, 9, 36, 0
11, 28608, Note_on_c, 9, 42, 80
11, 28608, Note_on_c, 9, 38, 116
11, 28704, Note_on_c, 9, 42, 0
11, 28704, Note_on_c, 9, 36, 110
11, 28704, Note_on_c, 9, 38, 0
11, 28800, Note_on_c, 9, 49, 95
11, 28800, Note_on_c, 9, 36, 0
11, 28800, Note_on_c, 9, 36, 110
11, 28928, Note_on_c, 9, 49, 0
11, 28928, Note_on_c, 9, 36, 0
11, 28928, Note_on_c, 9, 49, 95
11, 28928, Note_on_c, 9, 36, 110
11, 29056, Note_on_c, 9, 49, 0
11, 29056, Note_on_c, 9, 49, 95
11, 29056, Note_on_c, 9, 36, 0
11, 29056, Note_on_c, 9, 36, 110
11, 29184, Note_on_c, 9, 49, 0
11, 29184, Note_on_c, 9, 36, 0
11, 29184, Note_on_c, 9, 36, 110
11, 29184, Note_on_c, 9, 42, 80
11, 29280, Note_on_c, 9, 36, 0
11, 29280, Note_on_c, 9, 42, 0
11, 29280, Note_on_c, 9, 36, 110
11, 29280, Note_on_c, 9, 42, 80
11, 29376, Note_on_c, 9, 36, 0
11, 29376, Note_on_c, 9, 42, 0
11, 29376, Note_on_c, 9, 42, 80
11, 29376, Note_on_c, 9, 38, 116
11, 29472, Note_on_c, 9, 42, 0
11, 29472, Note_on_c, 9, 42, 80
11, 29472, Note_on_c, 9, 38, 0
11, 29472, Note_on_c, 9, 36, 110
11, 29568, Note_on_c, 9, 42, 0
11, 29568, Note_on_c, 9, 36, 0
11, 29568, Note_on_c, 9, 42, 80
11, 29568, Note_on_c, 9, 36, 110
11, 29664, Note_on_c, 9, 42, 0
11, 29664, Note_on_c, 9, 36, 0
11, 29664, Note_on_c, 9, 42, 80
11, 29712, Note_on_c, 9, 36, 110
11, 29712, Note_on_c, 9, 42, 0
11, 29760, Note_on_c, 9, 38, 116
11, 29760, Note_on_c, 9, 36, 0
11, 29760, Note_on_c, 9, 42, 80
11, 29856, Note_on_c, 9, 38, 0
11, 29856, Note_on_c, 9, 42, 0
11, 29856, Note_on_c, 9, 42, 80
11, 29856, Note_on_c, 9, 36, 110
11, 29952, Note_on_c, 9, 42, 0
11, 29952, Note_on_c, 9, 42, 80
11, 29952, Note_on_c, 9, 36, 0
11, 29952, Note_on_c, 9, 36, 110
11, 30048, Note_on_c, 9, 42, 0
11, 30048, Note_on_c, 9, 36, 0
11, 30048, Note_on_c, 9, 42, 80
11, 30048, Note_on_c, 9, 36, 110
11, 30144, Note_on_c, 9, 42, 0
11, 30144, Note_on_c, 9, 36, 0
11, 30144, Note_on_c, 9, 38, 116
11, 30144, Note_on_c, 9, 42, 80
11, 30240, Note_on_c, 9, 38, 0
11, 30240, Note_on_c, 9, 36, 110
11, 30240, Note_on_c, 9, 42, 0
11, 30240, Note_on_c, 9, 42, 80
11, 30336, Note_on_c, 9, 36, 0
11, 30336, Note_on_c, 9, 42, 0
11, 30336, Note_on_c, 9, 42, 80
11, 30336, Note_on_c, 9, 36, 110
11, 30432, Note_on_c, 9, 42, 0
11, 30432, Note_on_c, 9, 42, 80
11, 30432, Note_on_c, 9, 36, 0
11, 30480, Note_on_c, 9, 36, 110
11, 30480, Note_on_c, 9, 42, 0
11, 30528, Note_on_c, 9, 36, 0
11, 30528, Note_on_c, 9, 42, 80
11, 30528, Note_on_c, 9, 38, 116
11, 30624, Note_on_c, 9, 42, 0
11, 30624, Note_on_c, 9, 38, 0
11, 30624, Note_on_c, 9, 36, 110
11, 30624, Note_on_c, 9, 42, 80
11, 30720, Note_on_c, 9, 36, 0
11, 30720, Note_on_c, 9, 42, 80
11, 30720, Note_on_c, 9, 42, 0
11, 30720, Note_on_c, 9, 36, 110
11, 30816, Note_on_c, 9, 42, 0
11, 30816, Note_on_c, 9, 36, 0
11, 30816, Note_on_c, 9, 42, 80
11, 30816, Note_on_c, 9, 36, 110
11, 30912, Note_on_c, 9, 42, 0
11, 30912, Note_on_c, 9, 38, 116
11, 30912, Note_on_c, 9, 36, 0
11, 30912, Note_on_c, 9, 42, 80
11, 31008, Note_on_c, 9, 38, 0
11, 31008, Note_on_c, 9, 42, 0
11, 31008, Note_on_c, 9, 36, 110
11, 31008, Note_on_c, 9, 42, 80
11, 31104, Note_on_c, 9, 36, 0
11, 31104, Note_on_c, 9, 42, 0
11, 31104, Note_on_c, 9, 44, 95
11, 31104, Note_on_c, 9, 38, 116
11, 31104, Note_on_c, 9, 36, 110
11, 31200, Note_on_c, 9, 44, 0
11, 31200, Note_on_c, 9, 38, 0
11, 31200, Note_on_c, 9, 36, 0
11, 31200, Note_on_c, 9, 38, 116
11, 31248, Note_on_c, 9, 38, 0
11, 31248, Note_on_c, 9, 38, 116
11, 31248, Note_on_c, 9, 44, 95
11, 31248, Note_on_c, 9, 36, 110
11, 31344, Note_on_c, 9, 38, 0
11, 31344, Note_on_c, 9, 44, 0
11, 31344, Note_on_c, 9, 36, 0
11, 31344, Note_on_c, 9, 38, 116
11, 31392, Note_on_c, 9, 38, 0
11, 31392, Note_on_c, 9, 38, 116
11, 31488, Note_on_c, 9, 49, 95
11, 31488, Note_on_c, 9, 38, 0
11, 31488, Note_on_c, 9, 36, 110
11, 31584, Note_on_c, 9, 49, 0
11, 31584, Note_on_c, 9, 36, 0
11, 31584, Note_on_c, 9, 36, 110
11, 31584, Note_on_c, 9, 42, 80
11, 31680, Note_on_c, 9, 36, 0
11, 31680, Note_on_c, 9, 42, 0
11, 31680, Note_on_c, 9, 38, 116
11, 31680, Note_on_c, 9, 42, 80
11, 31776, Note_on_c, 9, 38, 0
11, 31776, Note_on_c, 9, 42, 80
11, 31776, Note_on_c, 9, 42, 0
11, 31776, Note_on_c, 9, 36, 110
11, 31872, Note_on_c, 9, 42, 0
11, 31872, Note_on_c, 9, 36, 0
11, 31872, Note_on_c, 9, 42, 80
11, 31872, Note_on_c, 9, 36, 110
11, 31968, Note_on_c, 9, 42, 0
11, 31968, Note_on_c, 9, 42, 80
11, 31968, Note_on_c, 9, 36, 0
11, 32016, Note_on_c, 9, 36, 110
11, 32016, Note_on_c, 9, 42, 0
11, 32064, Note_on_c, 9, 36, 0
11, 32064, Note_on_c, 9, 38, 116
11, 32064, Note_on_c, 9, 42, 80
11, 32160, Note_on_c, 9, 38, 0
11, 32160, Note_on_c, 9, 42, 0
11, 32160, Note_on_c, 9, 36, 110
11, 32160, Note_on_c, 9, 42, 80
11, 32256, Note_on_c, 9, 36, 0
11, 32256, Note_on_c, 9, 42, 0
11, 32256, Note_on_c, 9, 42, 80
11, 32256, Note_on_c, 9, 36, 110
11, 32352, Note_on_c, 9, 42, 0
11, 32352, Note_on_c, 9, 42, 80
11, 32352, Note_on_c, 9, 36, 0
11, 32352, Note_on_c, 9, 36, 110
11, 32448, Note_on_c, 9, 42, 0
11, 32448, Note_on_c, 9, 36, 0
11, 32448, Note_on_c, 9, 42, 80
11, 32448, Note_on_c, 9, 38, 116
11, 32544, Note_on_c, 9, 42, 0
11, 32544, Note_on_c, 9, 38, 0
11, 32544, Note_on_c, 9, 36, 110
11, 32544, Note_on_c, 9, 42, 80
11, 32640, Note_on_c, 9, 36, 0
11, 32640, Note_on_c, 9, 36, 110
11, 32640, Note_on_c, 9, 42, 0
11, 32640, Note_on_c, 9, 42, 80
11, 32736, Note_on_c, 9, 36, 0
11, 32736, Note_on_c, 9, 42, 0
11, 32736, Note_on_c, 9, 42, 80
11, 32784, Note_on_c, 9, 42, 0
11, 32784, Note_on_c, 9, 36, 110
11, 32832, Note_on_c, 9, 38, 116
11, 32832, Note_on_c, 9, 36, 0
11, 32832, Note_on_c, 9, 42, 80
11, 32928, Note_on_c, 9, 38, 0
11, 32928, Note_on_c, 9, 42, 0
11, 32928, Note_on_c, 9, 42, 80
11, 32928, Note_on_c, 9, 36, 110
11, 33024, Note_on_c, 9, 42, 0
11, 33024, Note_on_c, 9, 36, 0
11, 33024, Note_on_c, 9, 36, 110
11, 33024, Note_on_c, 9, 42, 80
11, 33120, Note_on_c, 9, 36, 0
11, 33120, Note_on_c, 9, 36, 110
11, 33120, Note_on_c, 9, 42, 0
11, 33120, Note_on_c, 9, 42, 80
11, 33216, Note_on_c, 9, 36, 0
11, 33216, Note_on_c, 9, 42, 0
11, 33216, Note_on_c, 9, 38, 116
11, 33216, Note_on_c, 9, 42, 80
11, 33312, Note_on_c, 9, 38, 0
11, 33312, Note_on_c, 9, 42, 0
11, 33312, Note_on_c, 9, 42, 80
11, 33312, Note_on_c, 9, 36, 110
11, 33408, Note_on_c, 9, 42, 0
11, 33408, Note_on_c, 9, 36, 0
11, 33408, Note_on_c, 9, 42, 80
11, 33408, Note_on_c, 9, 36, 110
11, 33504, Note_on_c, 9, 42, 0
11, 33504, Note_on_c, 9, 42, 80
11, 33504, Note_on_c, 9, 36, 0
11, 33552, Note_on_c, 9, 42, 0
11, 33552, Note_on_c, 9, 36, 110
11, 33600, Note_on_c, 9, 36, 0
11, 33600, Note_on_c, 9, 38, 116
11, 33600, Note_on_c, 9, 42, 80
11, 33696, Note_on_c, 9, 38, 0
11, 33696, Note_on_c, 9, 42, 80
11, 33696, Note_on_c, 9, 42, 0
11, 33696, Note_on_c, 9, 36, 110
11, 33792, Note_on_c, 9, 42, 0
11, 33792, Note_on_c, 9, 36, 0
11, 33792, Note_on_c, 9, 42, 80
11, 33792, Note_on_c, 9, 36, 110
11, 33888, Note_on_c, 9, 42, 0
11, 33888, Note_on_c, 9, 36, 0
11, 33888, Note_on_c, 9, 42, 80
11, 33888, Note_on_c, 9, 36, 110
11, 33984, Note_on_c, 9, 42, 0
11, 33984, Note_on_c, 9, 42, 80
11, 33984, Note_on_c, 9, 36, 0
11, 33984, Note_on_c, 9, 38, 116
11, 34080, Note_on_c, 9, 42, 0
11, 34080, Note_on_c, 9, 38, 0
11, 34080, Note_on_c, 9, 36, 110
11, 34080, Note_on_c, 9, 42, 80
11, 34176, Note_on_c, 9, 36, 0
11, 34176, Note_on_c, 9, 38, 116
11, 34176, Note_on_c, 9, 42, 0
11, 34176, Note_on_c, 9, 44, 95
11, 34176, Note_on_c, 9, 36, 110
11, 34272, Note_on_c, 9, 38, 0
11, 34272, Note_on_c, 9, 44, 0
11, 34272, Note_on_c, 9, 36, 0
11, 34272, Note_on_c, 9, 38, 116
11, 34320, Note_on_c, 9, 38, 0
11, 34320, Note_on_c, 9, 38, 116
11, 34320, Note_on_c, 9, 44, 95
11, 34320, Note_on_c, 9, 36, 110
11, 34416, Note_on_c, 9, 38, 0
11, 34416, Note_on_c, 9, 44, 0
11, 34416, Note_on_c, 9, 36, 0
11, 34416, Note_on_c, 9, 38, 116
11, 34464, Note_on_c, 9, 38, 0
11, 34464, Note_on_c, 9, 38, 116
11, 34560, Note_on_c, 9, 38, 0
11, 34560, Note_on_c, 9, 46, 80
11, 34656, Note_on_c, 9, 46, 80
11, 34656, Note_on_c, 9, 46, 0
11, 34704, Note_on_c, 9, 46, 80
11, 34704, Note_on_c, 9, 46, 0
11, 34752, Note_on_c, 9, 46, 0
11, 34752, Note_on_c, 9, 46, 80
11, 34848, Note_on_c, 9, 46, 0
11, 34848, Note_on_c, 9, 46, 80
11, 34896, Note_on_c, 9, 46, 0
11, 34896, Note_on_c, 9, 46, 80
11, 34944, Note_on_c, 9, 46, 80
11, 34944, Note_on_c, 9, 46, 0
11, 35040, Note_on_c, 9, 46, 80
11, 35040, Note_on_c, 9, 46, 0
11, 35088, Note_on_c, 9, 46, 0
11, 35088, Note_on_c, 9, 46, 80
11, 35136, Note_on_c, 9, 46, 0
11, 35136, Note_on_c, 9, 46, 80
11, 35232, Note_on_c, 9, 46, 0
11, 35232, Note_on_c, 9, 46, 80
11, 35280, Note_on_c, 9, 46, 80
11, 35280, Note_on_c, 9, 46, 0
11, 35328, Note_on_c, 9, 46, 0
11, 35328, Note_on_c, 9, 46, 80
11, 35424, Note_on_c, 9, 46, 0
11, 35424, Note_on_c, 9, 46, 80
11, 35472, Note_on_c, 9, 46, 80
11, 35472, Note_on_c, 9, 46, 0
11, 35520, Note_on_c, 9, 46, 80
11, 35520, Note_on_c, 9, 46, 0
11, 35616, Note_on_c, 9, 46, 0
11, 35616, Note_on_c, 9, 46, 80
11, 35664, Note_on_c, 9, 46, 0
11, 35664, Note_on_c, 9, 46, 80
11, 35712, Note_on_c, 9, 46, 0
11, 35712, Note_on_c, 9, 46, 80
11, 35808, Note_on_c, 9, 46, 80
11, 35808, Note_on_c, 9, 46, 0
11, 35856, Note_on_c, 9, 46, 80
11, 35856, Note_on_c, 9, 46, 0
11, 35904, Note_on_c, 9, 46, 0
11, 35904, Note_on_c, 9, 46, 80
11, 36000, Note_on_c, 9, 46, 0
11, 36000, Note_on_c, 9, 46, 80
11, 36048, Note_on_c, 9, 46, 0
11, 36048, Note_on_c, 9, 46, 80
11, 36096, Note_on_c, 9, 46, 80
11, 36096, Note_on_c, 9, 46, 0
11, 36192, Note_on_c, 9, 46, 80
11, 36192, Note_on_c, 9, 46, 0
11, 36240, Note_on_c, 9, 46, 0
11, 36240, Note_on_c, 9, 46, 80
11, 36288, Note_on_c, 9, 46, 0
11, 36288, Note_on_c, 9, 46, 80
11, 36384, Note_on_c, 9, 46, 0
11, 36384, Note_on_c, 9, 46, 80
11, 36432, Note_on_c, 9, 46, 80
11, 36432, Note_on_c, 9, 46, 0
11, 36480, Note_on_c, 9, 46, 80
11, 36480, Note_on_c, 9, 46, 0
11, 36576, Note_on_c, 9, 46, 0
11, 36576, Note_on_c, 9, 46, 80
11, 36624, Note_on_c, 9, 46, 0
11, 36624, Note_on_c, 9, 46, 80
11, 36672, Note_on_c, 9, 46, 0
11, 36672, Note_on_c, 9, 46, 80
11, 36768, Note_on_c, 9, 46, 80
11, 36768, Note_on_c, 9, 46, 0
11, 36816, Note_on_c, 9, 46, 80
11, 36816, Note_on_c, 9, 46, 0
11, 36864, Note_on_c, 9, 46, 0
11, 36864, Note_on_c, 9, 46, 80
11, 36960, Note_on_c, 9, 46, 0
11, 36960, Note_on_c, 9, 46, 80
11, 37008, Note_on_c, 9, 46, 0
11, 37008, Note_on_c, 9, 46, 80
11, 37056, Note_on_c, 9, 46, 80
11, 37056, Note_on_c, 9, 46, 0
11, 37152, Note_on_c, 9, 46, 80
11, 37152, Note_on_c, 9, 46, 0
11, 37200, Note_on_c, 9, 46, 0
11, 37200, Note_on_c, 9, 46, 80
11, 37248, Note_on_c, 9, 46, 0
11, 37248, Note_on_c, 9, 46, 80
11, 37344, Note_on_c, 9, 46, 0
11, 37344, Note_on_c, 9, 46, 80
11, 37392, Note_on_c, 9, 46, 80
11, 37392, Note_on_c, 9, 46, 0
11, 37440, Note_on_c, 9, 46, 80
11, 37440, Note_on_c, 9, 46, 0
11, 37536, Note_on_c, 9, 46, 0
11, 37536, Note_on_c, 9, 46, 80
11, 37584, Note_on_c, 9, 46, 0
11, 37584, Note_on_c, 9, 46, 80
11, 37632, Note_on_c, 9, 46, 0
11, 37632, Note_on_c, 9, 46, 80
11, 37632, Note_on_c, 9, 36, 110
11, 37728, Note_on_c, 9, 46, 0
11, 37728, Note_on_c, 9, 46, 80
11, 37728, Note_on_c, 9, 36, 0
11, 37776, Note_on_c, 9, 46, 0
11, 37776, Note_on_c, 9, 46, 80
11, 37824, Note_on_c, 9, 46, 0
11, 37824, Note_on_c, 9, 46, 80
11, 37824, Note_on_c, 9, 36, 110
11, 37920, Note_on_c, 9, 46, 0
11, 37920, Note_on_c, 9, 36, 0
11, 37920, Note_on_c, 9, 46, 80
11, 37968, Note_on_c, 9, 46, 0
11, 37968, Note_on_c, 9, 46, 80
11, 38016, Note_on_c, 9, 46, 0
11, 38016, Note_on_c, 9, 36, 110
11, 38016, Note_on_c, 9, 46, 80
11, 38112, Note_on_c, 9, 36, 0
11, 38112, Note_on_c, 9, 46, 80
11, 38112, Note_on_c, 9, 46, 0
11, 38160, Note_on_c, 9, 46, 0
11, 38160, Note_on_c, 9, 46, 80
11, 38208, Note_on_c, 9, 46, 0
11, 38208, Note_on_c, 9, 46, 80
11, 38208, Note_on_c, 9, 36, 110
11, 38304, Note_on_c, 9, 46, 0
11, 38304, Note_on_c, 9, 46, 80
11, 38304, Note_on_c, 9, 36, 0
11, 38352, Note_on_c, 9, 46, 80
11, 38352, Note_on_c, 9, 46, 0
11, 38400, Note_on_c, 9, 46, 0
11, 38400, Note_on_c, 9, 36, 110
11, 38400, Note_on_c, 9, 46, 80
11, 38496, Note_on_c, 9, 36, 0
11, 38496, Note_on_c, 9, 46, 0
11, 38496, Note_on_c, 9, 46, 80
11, 38544, Note_on_c, 9, 46, 80
11, 38544, Note_on_c, 9, 46, 0
11, 38592, Note_on_c, 9, 46, 80
11, 38592, Note_on_c, 9, 46, 0
11, 38592, Note_on_c, 9, 36, 110
11, 38688, Note_on_c, 9, 46, 0
11, 38688, Note_on_c, 9, 36, 0
11, 38688, Note_on_c, 9, 46, 80
11, 38736, Note_on_c, 9, 46, 0
11, 38736, Note_on_c, 9, 46, 80
11, 38784, Note_on_c, 9, 46, 80
11, 38784, Note_on_c, 9, 46, 0
11, 38784, Note_on_c, 9, 36, 110
11, 38880, Note_on_c, 9, 46, 0
11, 38880, Note_on_c, 9, 36, 0
11, 38880, Note_on_c, 9, 46, 80
11, 38928, Note_on_c, 9, 46, 0
11, 38928, Note_on_c, 9, 46, 80
11, 38976, Note_on_c, 9, 46, 0
11, 38976, Note_on_c, 9, 36, 110
11, 38976, Note_on_c, 9, 46, 80
11, 39072, Note_on_c, 9, 36, 0
11, 39072, Note_on_c, 9, 46, 80
11, 39072, Note_on_c, 9, 46, 0
11, 39120, Note_on_c, 9, 46, 0
11, 39120, Note_on_c, 9, 46, 80
11, 39168, Note_on_c, 9, 46, 0
11, 39168, Note_on_c, 9, 46, 80
11, 39168, Note_on_c, 9, 36, 110
11, 39264, Note_on_c, 9, 46, 0
11, 39264, Note_on_c, 9, 46, 80
11, 39264, Note_on_c, 9, 36, 0
11, 39312, Note_on_c, 9, 46, 80
11, 39312, Note_on_c, 9, 46, 0
11, 39360, Note_on_c, 9, 46, 0
11, 39360, Note_on_c, 9, 46, 80
11, 39360, Note_on_c, 9, 36, 110
11, 39456, Note_on_c, 9, 46, 0
11, 39456, Note_on_c, 9, 36, 0
11, 39456, Note_on_c, 9, 46, 80
11, 39504, Note_on_c, 9, 46, 80
11, 39504, Note_on_c, 9, 46, 0
11, 39552, Note_on_c, 9, 46, 80
11, 39552, Note_on_c, 9, 46, 0
11, 39552, Note_on_c, 9, 36, 110
11, 39648, Note_on_c, 9, 46, 0
11, 39648, Note_on_c, 9, 36, 0
11, 39648, Note_on_c, 9, 46, 80
11, 39696, Note_on_c, 9, 46, 0
11, 39696, Note_on_c, 9, 46, 80
11, 39744, Note_on_c, 9, 36, 110
11, 39744, Note_on_c, 9, 46, 0
11, 39744, Note_on_c, 9, 46, 80
11, 39840, Note_on_c, 9, 36, 0
11, 39840, Note_on_c, 9, 46, 0
11, 39840, Note_on_c, 9, 46, 80
11, 39888, Note_on_c, 9, 46, 80
11, 39888, Note_on_c, 9, 46, 0
11, 39936, Note_on_c, 9, 46, 80
11, 39936, Note_on_c, 9, 46, 0
11, 39936, Note_on_c, 9, 36, 110
11, 40032, Note_on_c, 9, 46, 0
11, 40032, Note_on_c, 9, 36, 0
11, 40032, Note_on_c, 9, 46, 80
11, 40080, Note_on_c, 9, 46, 0
11, 40080, Note_on_c, 9, 46, 80
11, 40128, Note_on_c, 9, 36, 110
11, 40128, Note_on_c, 9, 46, 0
11, 40128, Note_on_c, 9, 46, 80
11, 40224, Note_on_c, 9, 36, 0
11, 40224, Note_on_c, 9, 46, 0
11, 40224, Note_on_c, 9, 46, 80
11, 40272, Note_on_c, 9, 46, 0
11, 40272, Note_on_c, 9, 46, 80
11, 40320, Note_on_c, 9, 46, 0
11, 40320, Note_on_c, 9, 46, 80
11, 40320, Note_on_c, 9, 36, 110
11, 40416, Note_on_c, 9, 46, 0
11, 40416, Note_on_c, 9, 46, 80
11, 40416, Note_on_c, 9, 36, 0
11, 40464, Note_on_c, 9, 46, 0
11, 40464, Note_on_c, 9, 46, 80
11, 40512, Note_on_c, 9, 46, 0
11, 40512, Note_on_c, 9, 46, 80
11, 40512, Note_on_c, 9, 36, 110
11, 40608, Note_on_c, 9, 46, 0
11, 40608, Note_on_c, 9, 46, 80
11, 40608, Note_on_c, 9, 36, 0
11, 40656, Note_on_c, 9, 46, 80
11, 40656, Note_on_c, 9, 46, 0
11, 40704, Note_on_c, 9, 46, 0
11, 40704, Note_on_c, 9, 36, 110
11, 40704, Note_on_c, 9, 46, 80
11, 40800, Note_on_c, 9, 36, 0
11, 40800, Note_on_c, 9, 46, 80
11, 40800, Note_on_c, 9, 46, 0
11, 40848, Note_on_c, 9, 46, 0
11, 40848, Note_on_c, 9, 46, 80
11, 40896, Note_on_c, 9, 46, 0
11, 40896, Note_on_c, 9, 46, 80
11, 40896, Note_on_c, 9, 36, 110
11, 40992, Note_on_c, 9, 46, 0
11, 40992, Note_on_c, 9, 46, 80
11, 40992, Note_on_c, 9, 36, 0
11, 41040, Note_on_c, 9, 46, 80
11, 41040, Note_on_c, 9, 46, 0
11, 41088, Note_on_c, 9, 46, 0
11, 41088, Note_on_c, 9, 36, 110
11, 41088, Note_on_c, 9, 46, 80
11, 41184, Note_on_c, 9, 36, 0
11, 41184, Note_on_c, 9, 46, 0
11, 41184, Note_on_c, 9, 46, 80
11, 41232, Note_on_c, 9, 46, 80
11, 41232, Note_on_c, 9, 46, 0
11, 41280, Note_on_c, 9, 46, 80
11, 41280, Note_on_c, 9, 46, 0
11, 41280, Note_on_c, 9, 36, 110
11, 41376, Note_on_c, 9, 46, 0
11, 41376, Note_on_c, 9, 36, 0
11, 41376, Note_on_c, 9, 46, 80
11, 41424, Note_on_c, 9, 46, 0
11, 41424, Note_on_c, 9, 46, 80
11, 41472, Note_on_c, 9, 36, 110
11, 41472, Note_on_c, 9, 46, 0
11, 41472, Note_on_c, 9, 46, 80
11, 41568, Note_on_c, 9, 36, 0
11, 41568, Note_on_c, 9, 46, 0
11, 41568, Note_on_c, 9, 46, 80
11, 41616, Note_on_c, 9, 46, 0
11, 41616, Note_on_c, 9, 46, 80
11, 41664, Note_on_c, 9, 46, 0
11, 41664, Note_on_c, 9, 46, 80
11, 41664, Note_on_c, 9, 36, 110
11, 41760, Note_on_c, 9, 46, 0
11, 41760, Note_on_c, 9, 36, 0
11, 41760, Note_on_c, 9, 46, 80
11, 41808, Note_on_c, 9, 46, 0
11, 41808, Note_on_c, 9, 46, 80
11, 41856, Note_on_c, 9, 36, 110
11, 41856, Note_on_c, 9, 46, 0
11, 41856, Note_on_c, 9, 46, 80
11, 41952, Note_on_c, 9, 36, 0
11, 41952, Note_on_c, 9, 46, 0
11, 41952, Note_on_c, 9, 46, 80
11, 42000, Note_on_c, 9, 46, 0
11, 42000, Note_on_c, 9, 46, 80
11, 42048, Note_on_c, 9, 46, 0
11, 42048, Note_on_c, 9, 46, 80
11, 42048, Note_on_c, 9, 36, 110
11, 42144, Note_on_c, 9, 46, 0
11, 42144, Note_on_c, 9, 46, 80
11, 42144, Note_on_c, 9, 36, 0
11, 42192, Note_on_c, 9, 46, 0
11, 42192, Note_on_c, 9, 46, 80
11, 42240, Note_on_c, 9, 46, 0
11, 42240, Note_on_c, 9, 46, 80
11, 42240, Note_on_c, 9, 36, 110
11, 42336, Note_on_c, 9, 46, 0
11, 42336, Note_on_c, 9, 46, 80
11, 42336, Note_on_c, 9, 36, 0
11, 42384, Note_on_c, 9, 46, 80
11, 42384, Note_on_c, 9, 46, 0
11, 42432, Note_on_c, 9, 46, 0
11, 42432, Note_on_c, 9, 36, 110
11, 42432, Note_on_c, 9, 46, 80
11, 42528, Note_on_c, 9, 36, 0
11, 42528, Note_on_c, 9, 46, 0
11, 42528, Note_on_c, 9, 46, 80
11, 42576, Note_on_c, 9, 46, 80
11, 42576, Note_on_c, 9, 46, 0
11, 42624, Note_on_c, 9, 46, 80
11, 42624, Note_on_c, 9, 46, 0
11, 42624, Note_on_c, 9, 36, 110
11, 42720, Note_on_c, 9, 46, 0
11, 42720, Note_on_c, 9, 36, 0
11, 42720, Note_on_c, 9, 46, 80
11, 42768, Note_on_c, 9, 46, 0
11, 42768, Note_on_c, 9, 46, 80
11, 42816, Note_on_c, 9, 36, 110
11, 42816, Note_on_c, 9, 46, 0
11, 42816, Note_on_c, 9, 46, 80
11, 42912, Note_on_c, 9, 36, 0
11, 42912, Note_on_c, 9, 46, 0
11, 42912, Note_on_c, 9, 46, 80
11, 42960, Note_on_c, 9, 46, 0
11, 42960, Note_on_c, 9, 46, 80
11, 43008, Note_on_c, 9, 46, 0
11, 43008, Note_on_c, 9, 46, 80
11, 43008, Note_on_c, 9, 36, 110
11, 43104, Note_on_c, 9, 46, 0
11, 43104, Note_on_c, 9, 46, 80
11, 43104, Note_on_c, 9, 36, 0
11, 43152, Note_on_c, 9, 46, 0
11, 43152, Note_on_c, 9, 46, 80
11, 43200, Note_on_c, 9, 46, 0
11, 43200, Note_on_c, 9, 36, 110
11, 43200, Note_on_c, 9, 46, 80
11, 43296, Note_on_c, 9, 36, 0
11, 43296, Note_on_c, 9, 46, 80
11, 43296, Note_on_c, 9, 46, 0
11, 43344, Note_on_c, 9, 46, 80
11, 43344, Note_on_c, 9, 46, 0
11, 43392, Note_on_c, 9, 46, 0
11, 43392, Note_on_c, 9, 46, 80
11, 43392, Note_on_c, 9, 36, 110
11, 43488, Note_on_c, 9, 46, 0
11, 43488, Note_on_c, 9, 36, 0
11, 43488, Note_on_c, 9, 46, 80
11, 43536, Note_on_c, 9, 46, 80
11, 43536, Note_on_c, 9, 46, 0
11, 43584, Note_on_c, 9, 36, 110
11, 43584, Note_on_c, 9, 46, 0
11, 43584, Note_on_c, 9, 46, 80
11, 43680, Note_on_c, 9, 36, 0
11, 43680, Note_on_c, 9, 46, 0
11, 43680, Note_on_c, 9, 46, 80
11, 43728, Note_on_c, 9, 46, 80
11, 43728, Note_on_c, 9, 46, 0
11, 43776, Note_on_c, 9, 46, 0
11, 43776, Note_on_c, 9, 46, 80
11, 43776, Note_on_c, 9, 36, 110
11, 43872, Note_on_c, 9, 46, 0
11, 43872, Note_on_c, 9, 36, 0
11, 43872, Note_on_c, 9, 46, 80
11, 43920, Note_on_c, 9, 46, 80
11, 43920, Note_on_c, 9, 46, 0
11, 43968, Note_on_c, 9, 38, 116
11, 43968, Note_on_c, 9, 46, 0
11, 43968, Note_on_c, 9, 46, 80
11, 43968, Note_on_c, 9, 36, 110
11, 44064, Note_on_c, 9, 38, 0
11, 44064, Note_on_c, 9, 46, 0
11, 44064, Note_on_c, 9, 36, 0
11, 44064, Note_on_c, 9, 46, 80
11, 44112, Note_on_c, 9, 46, 80
11, 44112, Note_on_c, 9, 46, 0
11, 44160, Note_on_c, 9, 46, 80
11, 44160, Note_on_c, 9, 46, 0
11, 44160, Note_on_c, 9, 36, 110
11, 44256, Note_on_c, 9, 46, 0
11, 44256, Note_on_c, 9, 36, 0
11, 44256, Note_on_c, 9, 46, 80
11, 44304, Note_on_c, 9, 46, 0
11, 44304, Note_on_c, 9, 46, 80
11, 44352, Note_on_c, 9, 38, 116
11, 44352, Note_on_c, 9, 46, 0
11, 44352, Note_on_c, 9, 36, 110
11, 44352, Note_on_c, 9, 46, 80
11, 44448, Note_on_c, 9, 38, 0
11, 44448, Note_on_c, 9, 36, 0
11, 44448, Note_on_c, 9, 46, 0
11, 44448, Note_on_c, 9, 46, 80
11, 44496, Note_on_c, 9, 46, 0
11, 44496, Note_on_c, 9, 46, 80
11, 44544, Note_on_c, 9, 36, 110
11, 44544, Note_on_c, 9, 46, 0
11, 44544, Note_on_c, 9, 46, 80
11, 44640, Note_on_c, 9, 36, 0
11, 44640, Note_on_c, 9, 46, 0
11, 44640, Note_on_c, 9, 46, 80
11, 44688, Note_on_c, 9, 46, 0
11, 44688, Note_on_c, 9, 46, 80
11, 44736, Note_on_c, 9, 46, 0
11, 44736, Note_on_c, 9, 38, 116
11, 44736, Note_on_c, 9, 46, 80
11, 44736, Note_on_c, 9, 36, 110
11, 44832, Note_on_c, 9, 38, 0
11, 44832, Note_on_c, 9, 46, 0
11, 44832, Note_on_c, 9, 36, 0
11, 44832, Note_on_c, 9, 46, 80
11, 44880, Note_on_c, 9, 46, 0
11, 44880, Note_on_c, 9, 46, 80
11, 44928, Note_on_c, 9, 46, 0
11, 44928, Note_on_c, 9, 46, 80
11, 44928, Note_on_c, 9, 36, 110
11, 45024, Note_on_c, 9, 46, 0
11, 45024, Note_on_c, 9, 46, 80
11, 45024, Note_on_c, 9, 36, 0
11, 45072, Note_on_c, 9, 46, 0
11, 45072, Note_on_c, 9, 46, 80
11, 45120, Note_on_c, 9, 46, 0
11, 45120, Note_on_c, 9, 46, 80
11, 45120, Note_on_c, 9, 38, 116
11, 45120, Note_on_c, 9, 36, 110
11, 45216, Note_on_c, 9, 46, 0
11, 45216, Note_on_c, 9, 38, 0
11, 45216, Note_on_c, 9, 46, 80
11, 45216, Note_on_c, 9, 36, 0
11, 45264, Note_on_c, 9, 46, 0
11, 45264, Note_on_c, 9, 46, 80
11, 45312, Note_on_c, 9, 46, 0
11, 45312, Note_on_c, 9, 46, 80
11, 45312, Note_on_c, 9, 36, 110
11, 45408, Note_on_c, 9, 46, 0
11, 45408, Note_on_c, 9, 46, 80
11, 45408, Note_on_c, 9, 36, 0
11, 45456, Note_on_c, 9, 46, 0
11, 45456, Note_on_c, 9, 46, 80
11, 45504, Note_on_c, 9, 46, 0
11, 45504, Note_on_c, 9, 38, 116
11, 45504, Note_on_c, 9, 46, 80
11, 45504, Note_on_c, 9, 36, 110
11, 45600, Note_on_c, 9, 38, 0
11, 45600, Note_on_c, 9, 46, 0
11, 45600, Note_on_c, 9, 36, 0
11, 45600, Note_on_c, 9, 46, 80
11, 45648, Note_on_c, 9, 46, 0
11, 45648, Note_on_c, 9, 46, 80
11, 45696, Note_on_c, 9, 46, 0
11, 45696, Note_on_c, 9, 46, 80
11, 45696, Note_on_c, 9, 36, 110
11, 45792, Note_on_c, 9, 46, 0
11, 45792, Note_on_c, 9, 46, 80
11, 45792, Note_on_c, 9, 36, 0
11, 45840, Note_on_c, 9, 46, 0
11, 45840, Note_on_c, 9, 46, 80
11, 45888, Note_on_c, 9, 46, 0
11, 45888, Note_on_c, 9, 38, 116
11, 45888, Note_on_c, 9, 36, 110
11, 45888, Note_on_c, 9, 46, 80
11, 45984, Note_on_c, 9, 38, 0
11, 45984, Note_on_c, 9, 36, 0
11, 45984, Note_on_c, 9, 46, 80
11, 45984, Note_on_c, 9, 46, 0
11, 46032, Note_on_c, 9, 46, 0
11, 46032, Note_on_c, 9, 46, 80
11, 46080, Note_on_c, 9, 46, 0
11, 46080, Note_on_c, 9, 36, 110
11, 46080, Note_on_c, 9, 46, 80
11, 46176, Note_on_c, 9, 36, 0
11, 46176, Note_on_c, 9, 46, 80
11, 46176, Note_on_c, 9, 46, 0
11, 46224, Note_on_c, 9, 46, 80
11, 46224, Note_on_c, 9, 46, 0
11, 46272, Note_on_c, 9, 46, 0
11, 46272, Note_on_c, 9, 38, 116
11, 46272, Note_on_c, 9, 46, 80
11, 46272, Note_on_c, 9, 36, 110
11, 46368, Note_on_c, 9, 38, 0
11, 46368, Note_on_c, 9, 46, 0
11, 46368, Note_on_c, 9, 46, 80
11, 46368, Note_on_c, 9, 36, 0
11, 46416, Note_on_c, 9, 46, 80
11, 46416, Note_on_c, 9, 46, 0
11, 46464, Note_on_c, 9, 46, 0
11, 46464, Note_on_c, 9, 46, 80
11, 46464, Note_on_c, 9, 36, 110
11, 46560, Note_on_c, 9, 46, 0
11, 46560, Note_on_c, 9, 36, 0
11, 46560, Note_on_c, 9, 46, 80
11, 46608, Note_on_c, 9, 46, 80
11, 46608, Note_on_c, 9, 46, 0
11, 46656, Note_on_c, 9, 46, 80
11, 46656, Note_on_c, 9, 46, 0
11, 46656, Note_on_c, 9, 36, 110
11, 46656, Note_on_c, 9, 38, 116
11, 46752, Note_on_c, 9, 46, 0
11, 46752, Note_on_c, 9, 36, 0
11, 46752, Note_on_c, 9, 38, 0
11, 46752, Note_on_c, 9, 46, 80
11, 46800, Note_on_c, 9, 46, 80
11, 46800, Note_on_c, 9, 46, 0
11, 46848, Note_on_c, 9, 38, 116
11, 46848, Note_on_c, 9, 46, 0
11, 46848, Note_on_c, 9, 46, 80
11, 46848, Note_on_c, 9, 36, 110
11, 46944, Note_on_c, 9, 38, 0
11, 46944, Note_on_c, 9, 46, 0
11, 46944, Note_on_c, 9, 36, 0
11, 46944, Note_on_c, 9, 46, 80
11, 46992, Note_on_c, 9, 46, 80
11, 46992, Note_on_c, 9, 46, 0
11, 47040, Note_on_c, 9, 46, 80
11, 47040, Note_on_c, 9, 46, 0
11, 47040, Note_on_c, 9, 38, 116
11, 47040, Note_on_c, 9, 36, 110
11, 47136, Note_on_c, 9, 46, 0
11, 47136, Note_on_c, 9, 38, 0
11, 47136, Note_on_c, 9, 46, 80
11, 47136, Note_on_c, 9, 36, 0
11, 47184, Note_on_c, 9, 46, 0
11, 47184, Note_on_c, 9, 46, 80
11, 47232, Note_on_c, 9, 46, 0
11, 47232, Note_on_c, 9, 46, 80
11, 47232, Note_on_c, 9, 38, 116
11, 47232, Note_on_c, 9, 36, 110
11, 47328, Note_on_c, 9, 46, 0
11, 47328, Note_on_c, 9, 38, 0
11, 47328, Note_on_c, 9, 46, 80
11, 47328, Note_on_c, 9, 36, 0
11, 47376, Note_on_c, 9, 46, 0
11, 47376, Note_on_c, 9, 46, 80
11, 47376, Note_on_c, 9, 38, 116
11, 47424, Note_on_c, 9, 46, 0
11, 47424, Note_on_c, 9, 38, 0
11, 47424, Note_on_c, 9, 36, 110
11, 47424, Note_on_c, 9, 46, 80
11, 47520, Note_on_c, 9, 36, 0
11, 47520, Note_on_c, 9, 46, 80
11, 47520, Note_on_c, 9, 46, 0
11, 47520, Note_on_c, 9, 38, 116
11, 47568, Note_on_c, 9, 46, 0
11, 47568, Note_on_c, 9, 38, 0
11, 47568, Note_on_c, 9, 46, 80
11, 47616, Note_on_c, 9, 46, 0
11, 47616, Note_on_c, 9, 46, 80
11, 47616, Note_on_c, 9, 36, 110
11, 47616, Note_on_c, 9, 38, 116
11, 47712, Note_on_c, 9, 46, 0
11, 47712, Note_on_c, 9, 36, 0
11, 47712, Note_on_c, 9, 38, 0
11, 47712, Note_on_c, 9, 46, 80
11, 47760, Note_on_c, 9, 46, 0
11, 47760, Note_on_c, 9, 46, 80
11, 47808, Note_on_c, 9, 46, 0
11, 47808, Note_on_c, 9, 38, 116
11, 47808, Note_on_c, 9, 36, 110
11, 47808, Note_on_c, 9, 46, 80
11, 47904, Note_on_c, 9, 38, 0
11, 47904, Note_on_c, 9, 36, 0
11, 47904, Note_on_c, 9, 46, 0
11, 47904, Note_on_c, 9, 46, 80
11, 47952, Note_on_c, 9, 46, 80
11, 47952, Note_on_c, 9, 46, 0
11, 48000, Note_on_c, 9, 38, 116
11, 48000, Note_on_c, 9, 46, 0
11, 48000, Note_on_c, 9, 36, 110
11, 48000, Note_on_c, 9, 46, 80
11, 48096, Note_on_c, 9, 38, 0
11, 48096, Note_on_c, 9, 36, 0
11, 48096, Note_on_c, 9, 46, 0
11, 48096, Note_on_c, 9, 46, 80
11, 48144, Note_on_c, 9, 46, 80
11, 48144, Note_on_c, 9, 46, 0
11, 48144, Note_on_c, 9, 38, 116
11, 48192, Note_on_c, 9, 46, 0
11, 48192, Note_on_c, 9, 38, 0
11, 48192, Note_on_c, 9, 46, 80
11, 48192, Note_on_c, 9, 36, 110
11, 48288, Note_on_c, 9, 46, 0
11, 48288, Note_on_c, 9, 36, 0
11, 48288, Note_on_c, 9, 46, 80
11, 48288, Note_on_c, 9, 38, 116
11, 48336, Note_on_c, 9, 46, 0
11, 48336, Note_on_c, 9, 46, 80
11, 48336, Note_on_c, 9, 38, 0
11, 48384, Note_on_c, 9, 46, 0
11, 48384, Note_on_c, 9, 38, 116
11, 48384, Note_on_c, 9, 46, 80
11, 48384, Note_on_c, 9, 36, 110
11, 48480, Note_on_c, 9, 38, 0
11, 48480, Note_on_c, 9, 46, 0
11, 48480, Note_on_c, 9, 46, 80
11, 48480, Note_on_c, 9, 36, 0
11, 48528, Note_on_c, 9, 46, 80
11, 48528, Note_on_c, 9, 46, 0
11, 48576, Note_on_c, 9, 46, 0
11, 48576, Note_on_c, 9, 38, 116
11, 48576, Note_on_c, 9, 46, 80
11, 48576, Note_on_c, 9, 36, 110
11, 48672, Note_on_c, 9, 38, 0
11, 48672, Note_on_c, 9, 46, 0
11, 48672, Note_on_c, 9, 36, 0
11, 48672, Note_on_c, 9, 46, 80
11, 48720, Note_on_c, 9, 46, 0
11, 48720, Note_on_c, 9, 46, 80
11, 48768, Note_on_c, 9, 46, 0
11, 48768, Note_on_c, 9, 46, 80
11, 48768, Note_on_c, 9, 38, 116
11, 48768, Note_on_c, 9, 36, 110
11, 48864, Note_on_c, 9, 46, 0
11, 48864, Note_on_c, 9, 38, 0
11, 48864, Note_on_c, 9, 36, 0
11, 48864, Note_on_c, 9, 46, 80
11, 48912, Note_on_c, 9, 46, 0
11, 48912, Note_on_c, 9, 46, 80
11, 48912, Note_on_c, 9, 38, 116
11, 48960, Note_on_c, 9, 46, 0
11, 48960, Note_on_c, 9, 36, 110
11, 48960, Note_on_c, 9, 38, 0
11, 48960, Note_on_c, 9, 46, 80
11, 49056, Note_on_c, 9, 36, 0
11, 49056, Note_on_c, 9, 46, 0
11, 49056, Note_on_c, 9, 38, 116
11, 49056, Note_on_c, 9, 46, 80
11, 49104, Note_on_c, 9, 38, 0
11, 49104, Note_on_c, 9, 46, 0
11, 49104, Note_on_c, 9, 46, 80
11, 49152, Note_on_c, 9, 38, 116
11, 49152, Note_on_c, 9, 46, 0
11, 49152, Note_on_c, 9, 36, 110
11, 49152, Note_on_c, 9, 46, 80
11, 49248, Note_on_c, 9, 38, 0
11, 49248, Note_on_c, 9, 36, 0
11, 49248, Note_on_c, 9, 46, 0
11, 49248, Note_on_c, 9, 46, 80
11, 49296, Note_on_c, 9, 46, 0
11, 49296, Note_on_c, 9, 46, 80
11, 49344, Note_on_c, 9, 38, 116
11, 49344, Note_on_c, 9, 46, 0
11, 49344, Note_on_c, 9, 36, 110
11, 49344, Note_on_c, 9, 46, 80
11, 49440, Note_on_c, 9, 38, 0
11, 49440, Note_on_c, 9, 36, 0
11, 49440, Note_on_c, 9, 46, 0
11, 49440, Note_on_c, 9, 46, 80
11, 49488, Note_on_c, 9, 46, 0
11, 49488, Note_on_c, 9, 46, 80
11, 49536, Note_on_c, 9, 38, 116
11, 49536, Note_on_c, 9, 46, 0
11, 49536, Note_on_c, 9, 36, 110
11, 49536, Note_on_c, 9, 44, 95
11, 49584, Note_on_c, 9, 38, 0
11, 49584, Note_on_c, 9, 36, 0
11, 49584, Note_on_c, 9, 44, 0
11, 49584, Note_on_c, 9, 38, 116
11, 49632, Note_on_c, 9, 38, 0
11, 49632, Note_on_c, 9, 38, 116
11, 49680, Note_on_c, 9, 38, 116
11, 49680, Note_on_c, 9, 38, 0
11, 49728, Note_on_c, 9, 44, 95
11, 49728, Note_on_c, 9, 38, 0
11, 49728, Note_on_c, 9, 36, 110
11, 49728, Note_on_c, 9, 38, 116
11, 49776, Note_on_c, 9, 44, 0
11, 49776, Note_on_c, 9, 36, 0
11, 49776, Note_on_c, 9, 38, 0
11, 49776, Note_on_c, 9, 38, 116
11, 49824, Note_on_c, 9, 38, 116
11, 49824, Note_on_c, 9, 38, 0
11, 49872, Note_on_c, 9, 38, 116
11, 49872, Note_on_c, 9, 38, 0
11, 49920, Note_on_c, 9, 38, 0
11, 49920, Note_on_c, 9, 49, 95
11, 49920, Note_on_c, 9, 36, 110
11, 50016, Note_on_c, 9, 49, 0
11, 50016, Note_on_c, 9, 36, 0
11, 50016, Note_on_c, 9, 36, 110
11, 50112, Note_on_c, 9, 49, 95
11, 50112, Note_on_c, 9, 36, 0
11, 50112, Note_on_c, 9, 38, 116
11, 50208, Note_on_c, 9, 49, 0
11, 50208, Note_on_c, 9, 38, 0
11, 50208, Note_on_c, 9, 36, 110
11, 50304, Note_on_c, 9, 49, 95
11, 50304, Note_on_c, 9, 36, 0
11, 50304, Note_on_c, 9, 36, 110
11, 50400, Note_on_c, 9, 49, 0
11, 50400, Note_on_c, 9, 36, 0
11, 50448, Note_on_c, 9, 49, 95
11, 50448, Note_on_c, 9, 36, 110
11, 50496, Note_on_c, 9, 36, 0
11, 50496, Note_on_c, 9, 38, 116
11, 50592, Note_on_c, 9, 36, 110
11, 50592, Note_on_c, 9, 38, 0
11, 50688, Note_on_c, 9, 49, 0
11, 50688, Note_on_c, 9, 36, 110
11, 50688, Note_on_c, 9, 36, 0
11, 50688, Note_on_c, 9, 49, 95
11, 50784, Note_on_c, 9, 36, 0
11, 50784, Note_on_c, 9, 49, 0
11, 50784, Note_on_c, 9, 36, 110
11, 50880, Note_on_c, 9, 36, 0
11, 50880, Note_on_c, 9, 38, 116
11, 50880, Note_on_c, 9, 49, 95
11, 50976, Note_on_c, 9, 38, 0
11, 50976, Note_on_c, 9, 36, 110
11, 50976, Note_on_c, 9, 49, 0
11, 51072, Note_on_c, 9, 36, 0
11, 51072, Note_on_c, 9, 49, 95
11, 51072, Note_on_c, 9, 36, 110
11, 51168, Note_on_c, 9, 49, 0
11, 51168, Note_on_c, 9, 36, 0
11, 51216, Note_on_c, 9, 49, 95
11, 51216, Note_on_c, 9, 36, 110
11, 51264, Note_on_c, 9, 38, 116
11, 51264, Note_on_c, 9, 36, 0
11, 51360, Note_on_c, 9, 38, 0
11, 51360, Note_on_c, 9, 36, 110
11, 51456, Note_on_c, 9, 49, 0
11, 51456, Note_on_c, 9, 36, 0
11, 51456, Note_on_c, 9, 36, 110
11, 51456, Note_on_c, 9, 49, 95
11, 51552, Note_on_c, 9, 36, 0
11, 51552, Note_on_c, 9, 36, 110
11, 51552, Note_on_c, 9, 49, 0
11, 51648, Note_on_c, 9, 49, 95
11, 51648, Note_on_c, 9, 36, 0
11, 51648, Note_on_c, 9, 38, 116
11, 51744, Note_on_c, 9, 49, 0
11, 51744, Note_on_c, 9, 38, 0
11, 51744, Note_on_c, 9, 36, 110
11, 51840, Note_on_c, 9, 36, 0
11, 51840, Note_on_c, 9, 49, 95
11, 51840, Note_on_c, 9, 36, 110
11, 51936, Note_on_c, 9, 49, 0
11, 51936, Note_on_c, 9, 36, 0
11, 51984, Note_on_c, 9, 36, 110
11, 51984, Note_on_c, 9, 49, 95
11, 52032, Note_on_c, 9, 36, 0
11, 52032, Note_on_c, 9, 38, 116
11, 52128, Note_on_c, 9, 38, 0
11, 52128, Note_on_c, 9, 36, 110
11, 52224, Note_on_c, 9, 49, 0
11, 52224, Note_on_c, 9, 49, 95
11, 52224, Note_on_c, 9, 36, 0
11, 52224, Note_on_c, 9, 36, 110
11, 52320, Note_on_c, 9, 49, 0
11, 52320, Note_on_c, 9, 36, 0
11, 52320, Note_on_c, 9, 36, 110
11, 52416, Note_on_c, 9, 36, 0
11, 52416, Note_on_c, 9, 38, 116
11, 52416, Note_on_c, 9, 49, 95
11, 52512, Note_on_c, 9, 38, 0
11, 52512, Note_on_c, 9, 36, 110
11, 52512, Note_on_c, 9, 49, 0
11, 52608, Note_on_c, 9, 49, 95
11, 52608, Note_on_c, 9, 36, 0
11, 52608, Note_on_c, 9, 38, 116
11, 52608, Note_on_c, 9, 36, 110
11, 52704, Note_on_c, 9, 49, 0
11, 52704, Note_on_c, 9, 38, 0
11, 52704, Note_on_c, 9, 38, 116
11, 52704, Note_on_c, 9, 36, 0
11, 52752, Note_on_c, 9, 38, 0
11, 52752, Note_on_c, 9, 49, 95
11, 52752, Note_on_c, 9, 38, 116
11, 52752, Note_on_c, 9, 36, 110
11, 52848, Note_on_c, 9, 49, 0
11, 52848, Note_on_c, 9, 38, 0
11, 52848, Note_on_c, 9, 38, 116
11, 52848, Note_on_c, 9, 36, 0
11, 52896, Note_on_c, 9, 38, 116
11, 52896, Note_on_c, 9, 38, 0
11, 52992, Note_on_c, 9, 38, 0
11, 52992, Note_on_c, 9, 49, 95
11, 52992, Note_on_c, 9, 36, 110
11, 53088, Note_on_c, 9, 49, 0
11, 53088, Note_on_c, 9, 36, 0
11, 53088, Note_on_c, 9, 36, 110
11, 53184, Note_on_c, 9, 49, 95
11, 53184, Note_on_c, 9, 36, 0
11, 53184, Note_on_c, 9, 38, 116
11, 53280, Note_on_c, 9, 49, 0
11, 53280, Note_on_c, 9, 38, 0
11, 53280, Note_on_c, 9, 36, 110
11, 53376, Note_on_c, 9, 36, 0
11, 53376, Note_on_c, 9, 49, 95
11, 53376, Note_on_c, 9, 36, 110
11, 53472, Note_on_c, 9, 49, 0
11, 53472, Note_on_c, 9, 36, 0
11, 53520, Note_on_c, 9, 49, 95
11, 53520, Note_on_c, 9, 36, 110
11, 53568, Note_on_c, 9, 36, 0
11, 53568, Note_on_c, 9, 38, 116
11, 53664, Note_on_c, 9, 38, 0
11, 53664, Note_on_c, 9, 36, 110
11, 53760, Note_on_c, 9, 49, 0
11, 53760, Note_on_c, 9, 36, 0
11, 53760, Note_on_c, 9, 36, 110
11, 53760, Note_on_c, 9, 49, 95
11, 53856, Note_on_c, 9, 36, 0
11, 53856, Note_on_c, 9, 36, 110
11, 53856, Note_on_c, 9, 49, 0
11, 53952, Note_on_c, 9, 36, 0
11, 53952, Note_on_c, 9, 49, 95
11, 53952, Note_on_c, 9, 38, 116
11, 54048, Note_on_c, 9, 49, 0
11, 54048, Note_on_c, 9, 38, 0
11, 54048, Note_on_c, 9, 36, 110
11, 54144, Note_on_c, 9, 49, 95
11, 54144, Note_on_c, 9, 36, 0
11, 54144, Note_on_c, 9, 36, 110
11, 54240, Note_on_c, 9, 49, 0
11, 54240, Note_on_c, 9, 36, 0
11, 54288, Note_on_c, 9, 49, 95
11, 54288, Note_on_c, 9, 36, 110
11, 54336, Note_on_c, 9, 36, 0
11, 54336, Note_on_c, 9, 38, 116
11, 54432, Note_on_c, 9, 36, 110
11, 54432, Note_on_c, 9, 38, 0
11, 54528, Note_on_c, 9, 49, 0
11, 54528, Note_on_c, 9, 49, 95
11, 54528, Note_on_c, 9, 36, 0
11, 54528, Note_on_c, 9, 36, 110
11, 54624, Note_on_c, 9, 49, 0
11, 54624, Note_on_c, 9, 36, 0
11, 54624, Note_on_c, 9, 36, 110
11, 54720, Note_on_c, 9, 36, 0
11, 54720, Note_on_c, 9, 49, 95
11, 54720, Note_on_c, 9, 38, 116
11, 54816, Note_on_c, 9, 49, 0
11, 54816, Note_on_c, 9, 36, 110
11, 54816, Note_on_c, 9, 38, 0
11, 54912, Note_on_c, 9, 36, 0
11, 54912, Note_on_c, 9, 36, 110
11, 54912, Note_on_c, 9, 49, 95
11, 55008, Note_on_c, 9, 36, 0
11, 55008, Note_on_c, 9, 49, 0
11, 55056, Note_on_c, 9, 49, 95
11, 55056, Note_on_c, 9, 36, 110
11, 55104, Note_on_c, 9, 36, 0
11, 55104, Note_on_c, 9, 38, 116
11, 55200, Note_on_c, 9, 38, 0
11, 55200, Note_on_c, 9, 36, 110
11, 55296, Note_on_c, 9, 49, 0
11, 55296, Note_on_c, 9, 49, 95
11, 55296, Note_on_c, 9, 36, 0
11, 55296, Note_on_c, 9, 36, 110
11, 55392, Note_on_c, 9, 49, 0
11, 55392, Note_on_c, 9, 36, 0
11, 55392, Note_on_c, 9, 36, 110
11, 55488, Note_on_c, 9, 36, 0
11, 55488, Note_on_c, 9, 38, 116
11, 55488, Note_on_c, 9, 49, 95
11, 55584, Note_on_c, 9, 38, 0
11, 55584, Note_on_c, 9, 36, 110
11, 55584, Note_on_c, 9, 49, 0
11, 55680, Note_on_c, 9, 38, 116
11, 55680, Note_on_c, 9, 36, 0
11, 55680, Note_on_c, 9, 49, 95
11, 55680, Note_on_c, 9, 36, 110
11, 55776, Note_on_c, 9, 38, 0
11, 55776, Note_on_c, 9, 49, 0
11, 55776, Note_on_c, 9, 36, 0
11, 55776, Note_on_c, 9, 38, 116
11, 55824, Note_on_c, 9, 49, 95
11, 55824, Note_on_c, 9, 38, 0
11, 55824, Note_on_c, 9, 38, 116
11, 55824, Note_on_c, 9, 36, 110
11, 55920, Note_on_c, 9, 49, 0
11, 55920, Note_on_c, 9, 38, 0
11, 55920, Note_on_c, 9, 36, 0
11, 55920, Note_on_c, 9, 38, 116
11, 55968, Note_on_c, 9, 38, 0
11, 55968, Note_on_c, 9, 38, 116
11, 56064, Note_on_c, 9, 49, 95
11, 56064, Note_on_c, 9, 38, 0
11, 56064, Note_on_c, 9, 36, 110
11, 56160, Note_on_c, 9, 49, 0
11, 56160, Note_on_c, 9, 36, 0
11, 56160, Note_on_c, 9, 36, 110
11, 56256, Note_on_c, 9, 36, 0
11, 56256, Note_on_c, 9, 49, 95
11, 56256, Note_on_c, 9, 38, 116
11, 56352, Note_on_c, 9, 49, 0
11, 56352, Note_on_c, 9, 38, 0
11, 56352, Note_on_c, 9, 36, 110
11, 56448, Note_on_c, 9, 36, 0
11, 56448, Note_on_c, 9, 49, 95
11, 56448, Note_on_c, 9, 36, 110
11, 56544, Note_on_c, 9, 49, 0
11, 56544, Note_on_c, 9, 36, 0
11, 56592, Note_on_c, 9, 49, 95
11, 56592, Note_on_c, 9, 36, 110
11, 56640, Note_on_c, 9, 36, 0
11, 56640, Note_on_c, 9, 38, 116
11, 56736, Note_on_c, 9, 38, 0
11, 56736, Note_on_c, 9, 36, 110
11, 56832, Note_on_c, 9, 49, 0
11, 56832, Note_on_c, 9, 36, 0
11, 56832, Note_on_c, 9, 36, 110
11, 56832, Note_on_c, 9, 49, 95
11, 56928, Note_on_c, 9, 36, 0
11, 56928, Note_on_c, 9, 36, 110
11, 56928, Note_on_c, 9, 49, 0
11, 57024, Note_on_c, 9, 36, 0
11, 57024, Note_on_c, 9, 38, 116
11, 57024, Note_on_c, 9, 49, 95
11, 57120, Note_on_c, 9, 38, 0
11, 57120, Note_on_c, 9, 49, 0
11, 57120, Note_on_c, 9, 36, 110
11, 57216, Note_on_c, 9, 36, 110
11, 57216, Note_on_c, 9, 36, 0
11, 57216, Note_on_c, 9, 49, 95
11, 57312, Note_on_c, 9, 36, 0
11, 57312, Note_on_c, 9, 49, 0
11, 57360, Note_on_c, 9, 36, 110
11, 57360, Note_on_c, 9, 49, 95
11, 57408, Note_on_c, 9, 36, 0
11, 57408, Note_on_c, 9, 38, 116
11, 57504, Note_on_c, 9, 36, 110
11, 57504, Note_on_c, 9, 38, 0
11, 57600, Note_on_c, 9, 49, 0
11, 57600, Note_on_c, 9, 36, 0
11, 57600, Note_on_c, 9, 49, 95
11, 57600, Note_on_c, 9, 36, 110
11, 57696, Note_on_c, 9, 49, 0
11, 57696, Note_on_c, 9, 36, 110
11, 57696, Note_on_c, 9, 36, 0
11, 57792, Note_on_c, 9, 38, 116
11, 57792, Note_on_c, 9, 36, 0
11, 57792, Note_on_c, 9, 49, 95
11, 57888, Note_on_c, 9, 38, 0
11, 57888, Note_on_c, 9, 49, 0
11, 57888, Note_on_c, 9, 36, 110
11, 57984, Note_on_c, 9, 36, 0
11, 57984, Note_on_c, 9, 36, 110
11, 57984, Note_on_c, 9, 49, 95
11, 58080, Note_on_c, 9, 36, 0
11, 58080, Note_on_c, 9, 49, 0
11, 58128, Note_on_c, 9, 49, 95
11, 58128, Note_on_c, 9, 36, 110
11, 58176, Note_on_c, 9, 36, 0
11, 58176, Note_on_c, 9, 38, 116
11, 58272, Note_on_c, 9, 38, 0
11, 58272, Note_on_c, 9, 36, 110
11, 58368, Note_on_c, 9, 49, 0
11, 58368, Note_on_c, 9, 49, 95
11, 58368, Note_on_c, 9, 36, 0
11, 58368, Note_on_c, 9, 36, 110
11, 58464, Note_on_c, 9, 49, 0
11, 58464, Note_on_c, 9, 36, 0
11, 58464, Note_on_c, 9, 36, 110
11, 58560, Note_on_c, 9, 36, 0
11, 58560, Note_on_c, 9, 38, 116
11, 58560, Note_on_c, 9, 49, 95
11, 58656, Note_on_c, 9, 38, 0
11, 58656, Note_on_c, 9, 36, 110
11, 58656, Note_on_c, 9, 49, 0
11, 58752, Note_on_c, 9, 38, 116
11, 58752, Note_on_c, 9, 36, 0
11, 58752, Note_on_c, 9, 49, 95
11, 58752, Note_on_c, 9, 36, 110
11, 58848, Note_on_c, 9, 38, 0
11, 58848, Note_on_c, 9, 49, 0
11, 58848, Note_on_c, 9, 36, 0
11, 58848, Note_on_c, 9, 38, 116
11, 58896, Note_on_c, 9, 49, 95
11, 58896, Note_on_c, 9, 38, 0
11, 58896, Note_on_c, 9, 38, 116
11, 58896, Note_on_c, 9, 36, 110
11, 58992, Note_on_c, 9, 49, 0
11, 58992, Note_on_c, 9, 38, 0
11, 58992, Note_on_c, 9, 36, 0
11, 58992, Note_on_c, 9, 38, 116
11, 59040, Note_on_c, 9, 38, 0
11, 59040, Note_on_c, 9, 38, 116
11, 59136, Note_on_c, 9, 49, 95
11, 59136, Note_on_c, 9, 38, 0
11, 59136, Note_on_c, 9, 36, 110
11, 59232, Note_on_c, 9, 49, 0
11, 59232, Note_on_c, 9, 36, 0
11, 59232, Note_on_c, 9, 36, 110
11, 59328, Note_on_c, 9, 36, 0
11, 59328, Note_on_c, 9, 38, 116
11, 59328, Note_on_c, 9, 49, 95
11, 59424, Note_on_c, 9, 38, 0
11, 59424, Note_on_c, 9, 36, 110
11, 59424, Note_on_c, 9, 49, 0
11, 59520, Note_on_c, 9, 49, 95
11, 59520, Note_on_c, 9, 36, 0
11, 59520, Note_on_c, 9, 36, 110
11, 59616, Note_on_c, 9, 49, 0
11, 59616, Note_on_c, 9, 36, 0
11, 59664, Note_on_c, 9, 36, 110
11, 59664, Note_on_c, 9, 49, 95
11, 59712, Note_on_c, 9, 36, 0
11, 59712, Note_on_c, 9, 38, 116
11, 59808, Note_on_c, 9, 36, 110
11, 59808, Note_on_c, 9, 38, 0
11, 59904, Note_on_c, 9, 49, 0
11, 59904, Note_on_c, 9, 36, 0
11, 59904, Note_on_c, 9, 49, 95
11, 59904, Note_on_c, 9, 36, 110
11, 60000, Note_on_c, 9, 49, 0
11, 60000, Note_on_c, 9, 36, 110
11, 60000, Note_on_c, 9, 36, 0
11, 60096, Note_on_c, 9, 36, 0
11, 60096, Note_on_c, 9, 49, 95
11, 60096, Note_on_c, 9, 38, 116
11, 60192, Note_on_c, 9, 49, 0
11, 60192, Note_on_c, 9, 38, 0
11, 60192, Note_on_c, 9, 36, 110
11, 60288, Note_on_c, 9, 36, 110
11, 60288, Note_on_c, 9, 36, 0
11, 60288, Note_on_c, 9, 49, 95
11, 60384, Note_on_c, 9, 36, 0
11, 60384, Note_on_c, 9, 49, 0
11, 60432, Note_on_c, 9, 36, 110
11, 60432, Note_on_c, 9, 49, 95
11, 60480, Note_on_c, 9, 36, 0
11, 60480, Note_on_c, 9, 38, 116
11, 60576, Note_on_c, 9, 36, 110
11, 60576, Note_on_c, 9, 38, 0
11, 60672, Note_on_c, 9, 49, 0
11, 60672, Note_on_c, 9, 49, 95
11, 60672, Note_on_c, 9, 36, 0
11, 60672, Note_on_c, 9, 36, 110
11, 60768, Note_on_c, 9, 49, 0
11, 60768, Note_on_c, 9, 36, 0
11, 60768, Note_on_c, 9, 36, 110
11, 60864, Note_on_c, 9, 36, 0
11, 60864, Note_on_c, 9, 49, 95
11, 60864, Note_on_c, 9, 38, 116
11, 60960, Note_on_c, 9, 49, 0
11, 60960, Note_on_c, 9, 36, 110
11, 60960, Note_on_c, 9, 38, 0
11, 61056, Note_on_c, 9, 36, 0
11, 61056, Note_on_c, 9, 36, 110
11, 61056, Note_on_c, 9, 49, 95
11, 61184, Note_on_c, 9, 36, 0
11, 61184, Note_on_c, 9, 49, 0
11, 61184, Note_on_c, 9, 49, 95
11, 61184, Note_on_c, 9, 36, 110
11, 61312, Note_on_c, 9, 49, 0
11, 61312, Note_on_c, 9, 49, 95
11, 61312, Note_on_c, 9, 36, 0
11, 61312, Note_on_c, 9, 36, 110
11, 61440, Note_on_c, 9, 49, 0
11, 61440, Note_on_c, 9, 36, 0
11, 61440, Note_on_c, 9, 49, 95
11, 61440, Note_on_c, 9, 36, 110
11, 61568, Note_on_c, 9, 49, 0
11, 61568, Note_on_c, 9, 36, 110
11, 61568, Note_on_c, 9, 36, 0
11, 61568, Note_on_c, 9, 49, 95
11, 61696, Note_on_c, 9, 36, 0
11, 61696, Note_on_c, 9, 49, 0
11, 61696, Note_on_c, 9, 36, 110
11, 61696, Note_on_c, 9, 49, 95
11, 61824, Note_on_c, 9, 36, 0
11, 61824, Note_on_c, 9, 49, 0
11, 61824, Note_on_c, 9, 49, 95
11, 61824, Note_on_c, 9, 36, 110
11, 61952, Note_on_c, 9, 49, 0
11, 61952, Note_on_c, 9, 49, 95
11, 61952, Note_on_c, 9, 36, 0
11, 61952, Note_on_c, 9, 36, 110
11, 62080, Note_on_c, 9, 49, 0
11, 62080, Note_on_c, 9, 36, 0
11, 62080, Note_on_c, 9, 36, 110
11, 62080, Note_on_c, 9, 49, 95
11, 62208, Note_on_c, 9, 36, 0
11, 62208, Note_on_c, 9, 49, 95
11, 62208, Note_on_c, 9, 49, 0
11, 62208, Note_on_c, 9, 36, 110
11, 62304, Note_on_c, 9, 49, 0
11, 62304, Note_on_c, 9, 36, 0
11, 62304, Note_on_c, 9, 36, 110
11, 62400, Note_on_c, 9, 36, 0
11, 62400, Note_on_c, 9, 49, 95
11, 62400, Note_on_c, 9, 38, 116
11, 62496, Note_on_c, 9, 49, 0
11, 62496, Note_on_c, 9, 36, 110
11, 62496, Note_on_c, 9, 38, 0
11, 62592, Note_on_c, 9, 36, 0
11, 62592, Note_on_c, 9, 36, 110
11, 62592, Note_on_c, 9, 49, 95
11, 62688, Note_on_c, 9, 36, 0
11, 62688, Note_on_c, 9, 49, 0
11, 62736, Note_on_c, 9, 36, 110
11, 62736, Note_on_c, 9, 49, 95
11, 62784, Note_on_c, 9, 36, 0
11, 62784, Note_on_c, 9, 38, 116
11, 62880, Note_on_c, 9, 38, 0
11, 62880, Note_on_c, 9, 36, 110
11, 62976, Note_on_c, 9, 49, 0
11, 62976, Note_on_c, 9, 36, 0
11, 62976, Note_on_c, 9, 49, 95
11, 62976, Note_on_c, 9, 36, 110
11, 63072, Note_on_c, 9, 49, 0
11, 63072, Note_on_c, 9, 36, 110
11, 63072, Note_on_c, 9, 36, 0
11, 63168, Note_on_c, 9, 36, 0
11, 63168, Note_on_c, 9, 49, 95
11, 63168, Note_on_c, 9, 38, 116
11, 63264, Note_on_c, 9, 49, 0
11, 63264, Note_on_c, 9, 38, 0
11, 63264, Note_on_c, 9, 36, 110
11, 63360, Note_on_c, 9, 36, 110
11, 63360, Note_on_c, 9, 36, 0
11, 63360, Note_on_c, 9, 49, 95
11, 63456, Note_on_c, 9, 36, 0
11, 63456, Note_on_c, 9, 49, 0
11, 63504, Note_on_c, 9, 49, 95
11, 63504, Note_on_c, 9, 36, 110
11, 63552, Note_on_c, 9, 36, 0
11, 63552, Note_on_c, 9, 38, 116
11, 63648, Note_on_c, 9, 36, 110
11, 63648, Note_on_c, 9, 38, 0
11, 63744, Note_on_c, 9, 49, 0
11, 63744, Note_on_c, 9, 49, 95
11, 63744, Note_on_c, 9, 36, 0
11, 63744, Note_on_c, 9, 36, 110
11, 63840, Note_on_c, 9, 49, 0
11, 63840, Note_on_c, 9, 36, 0
11, 63888, Note_on_c, 9, 36, 110
11, 63936, Note_on_c, 9, 36, 0
11, 63936, Note_on_c, 9, 49, 95
11, 63936, Note_on_c, 9, 38, 116
11, 64032, Note_on_c, 9, 49, 0
11, 64032, Note_on_c, 9, 36, 110
11, 64032, Note_on_c, 9, 38, 0
11, 64128, Note_on_c, 9, 36, 0
11, 64128, Note_on_c, 9, 49, 95
11, 64128, Note_on_c, 9, 36, 110
11, 64224, Note_on_c, 9, 49, 0
11, 64224, Note_on_c, 9, 36, 0
11, 64272, Note_on_c, 9, 36, 110
11, 64320, Note_on_c, 9, 49, 95
11, 64320, Note_on_c, 9, 36, 0
11, 64320, Note_on_c, 9, 38, 116
11, 64416, Note_on_c, 9, 49, 0
11, 64416, Note_on_c, 9, 38, 0
11, 64416, Note_on_c, 9, 36, 110
11, 64512, Note_on_c, 9, 36, 0
11, 64512, Note_on_c, 9, 38, 116
11, 64560, Note_on_c, 9, 38, 0
11, 64560, Note_on_c, 9, 38, 116
11, 64608, Note_on_c, 9, 41, 95
11, 64608, Note_on_c, 9, 38, 0
11, 64656, Note_on_c, 9, 41, 95
11, 64656, Note_on_c, 9, 41, 0
11, 64704, Note_on_c, 9, 41, 0
11, 64704, Note_on_c, 9, 45, 95
11, 64752, Note_on_c, 9, 45, 0
11, 64752, Note_on_c, 9, 45, 95
11, 64800, Note_on_c, 9, 45, 0
11, 64800, Note_on_c, 9, 38, 116
11, 64896, Note_on_c, 9, 38, 0
11, 65232, Control_c, 9, 91, 4
11, 65232, End_track
0, 0, End_of_file
