0, 0, Header, 1, 7, 960
1, 0, Start_track
1, 0, Control_c, 0, 101, 0
1, 0, Control_c, 0, 100, 0
1, 0, Control_c, 0, 6, 12
1, 0, Control_c, 0, 38, 0
1, 0, Control_c, 1, 101, 0
1, 0, Control_c, 1, 100, 0
1, 0, Control_c, 1, 6, 12
1, 0, Control_c, 1, 38, 0
1, 0, Control_c, 2, 101, 0
1, 0, Control_c, 2, 100, 0
1, 0, Control_c, 2, 6, 12
1, 0, Control_c, 2, 38, 0
1, 0, Control_c, 3, 101, 0
1, 0, Control_c, 3, 100, 0
1, 0, Control_c, 3, 6, 12
1, 0, Control_c, 3, 38, 0
1, 0, Control_c, 4, 101, 0
1, 0, Control_c, 4, 100, 0
1, 0, Control_c, 4, 6, 12
1, 0, Control_c, 4, 38, 0
1, 0, Control_c, 5, 101, 0
1, 0, Control_c, 5, 100, 0
1, 0, Control_c, 5, 6, 12
1, 0, Control_c, 5, 38, 0
1, 0, Control_c, 6, 101, 0
1, 0, Control_c, 6, 100, 0
1, 0, Control_c, 6, 6, 12
1, 0, Control_c, 6, 38, 0
1, 0, Control_c, 7, 101, 0
1, 0, Control_c, 7, 100, 0
1, 0, Control_c, 7, 6, 12
1, 0, Control_c, 7, 38, 0
1, 0, Control_c, 8, 101, 0
1, 0, Control_c, 8, 100, 0
1, 0, Control_c, 8, 6, 12
1, 0, Control_c, 8, 38, 0
1, 0, Control_c, 9, 101, 0
1, 0, Control_c, 9, 100, 0
1, 0, Control_c, 9, 6, 12
1, 0, Control_c, 9, 38, 0
1, 0, Control_c, 10, 101, 0
1, 0, Control_c, 10, 100, 0
1, 0, Control_c, 10, 6, 12
1, 0, Control_c, 10, 38, 0
1, 0, Control_c, 11, 101, 0
1, 0, Control_c, 11, 100, 0
1, 0, Control_c, 11, 6, 12
1, 0, Control_c, 11, 38, 0
1, 0, Control_c, 12, 101, 0
1, 0, Control_c, 12, 100, 0
1, 0, Control_c, 12, 6, 12
1, 0, Control_c, 12, 38, 0
1, 0, Control_c, 13, 101, 0
1, 0, Control_c, 13, 100, 0
1, 0, Control_c, 13, 6, 12
1, 0, Control_c, 13, 38, 0
1, 0, Control_c, 14, 101, 0
1, 0, Control_c, 14, 100, 0
1, 0, Control_c, 14, 6, 12
1, 0, Control_c, 14, 38, 0
1, 0, Control_c, 15, 101, 0
1, 0, Control_c, 15, 100, 0
1, 0, Control_c, 15, 6, 12
1, 0, Control_c, 15, 38, 0
1, 0, Time_signature, 4, 2, 24, 8
1, 0, Tempo, 600000
1, 0, End_track
2, 0, Start_track
2, 0, Pitch_bend_c, 0, 8192
2, 0, Control_c, 0, 7, 103
2, 0, Control_c, 0, 10, 63
2, 0, Control_c, 0, 93, 0
2, 0, Control_c, 0, 91, 0
2, 0, Control_c, 0, 95, 0
2, 0, Control_c, 0, 92, 0
2, 0, Control_c, 0, 11, 127
2, 0, Program_c, 0, 29
2, 0, Control_c, 1, 7, 103
2, 0, Control_c, 1, 10, 63
2, 0, Control_c, 1, 93, 0
2, 0, Control_c, 1, 91, 0
2, 0, Control_c, 1, 95, 0
2, 0, Control_c, 1, 92, 0
2, 0, Control_c, 1, 11, 127
2, 0, Program_c, 1, 29
2, 0, Note_on_c, 0, 52, 95
2, 0, Note_on_c, 0, 47, 95
2, 0, Note_on_c, 0, 40, 95
2, 960, Note_off_c, 0, 52, 95
2, 960, Note_off_c, 0, 47, 95
2, 960, Note_off_c, 0, 40, 95
2, 960, Note_on_c, 0, 52, 95
2, 960, Note_on_c, 0, 47, 95
2, 960, Note_on_c, 0, 40, 95
2, 1440, Note_on_c, 0, 55, 95
2, 1490, Note_off_c, 0, 55, 95
2, 1680, Note_on_c, 0, 55, 95
2, 1730, Note_off_c, 0, 55, 95
2, 1920, Note_off_c, 0, 52, 95
2, 1920, Note_off_c, 0, 47, 95
2, 1920, Note_off_c, 0, 40, 95
2, 1920, Note_on_c, 0, 62, 95
2, 1920, Note_on_c, 0, 57, 95
2, 1920, Note_on_c, 0, 50, 95
2, 2160, Note_off_c, 0, 62, 95
2, 2160, Note_off_c, 0, 57, 95
2, 2160, Note_off_c, 0, 50, 95
2, 2160, Note_on_c, 0, 62, 95
2, 2160, Note_on_c, 0, 57, 95
2, 2160, Note_on_c, 0, 50, 95
2, 2400, Note_off_c, 0, 62, 95
2, 2400, Note_off_c, 0, 57, 95
2, 2400, Note_off_c, 0, 50, 95
2, 2400, Note_on_c, 0, 62, 95
2, 2400, Note_on_c, 0, 57, 95
2, 2400, Note_on_c, 0, 50, 95
2, 2640, Note_off_c, 0, 62, 95
2, 2640, Note_off_c, 0, 57, 95
2, 2640, Note_off_c, 0, 50, 95
2, 2640, Note_on_c, 0, 62, 95
2, 2640, Note_on_c, 0, 57, 95
2, 2640, Note_on_c, 0, 50, 95
2, 2880, Note_off_c, 0, 62, 95
2, 2880, Note_off_c, 0, 57, 95
2, 2880, Note_off_c, 0, 50, 95
2, 2880, Note_on_c, 0, 62, 95
2, 2880, Note_on_c, 0, 57, 95
2, 2880, Note_on_c, 0, 50, 95
2, 3360, Note_off_c, 0, 62, 95
2, 3360, Note_off_c, 0, 57, 95
2, 3360, Note_off_c, 0, 50, 95
2, 3360, Note_on_c, 0, 55, 95
2, 3360, Note_on_c, 0, 50, 95
2, 3840, Note_off_c, 0, 55, 95
2, 3840, Note_off_c, 0, 50, 95
2, 3840, Note_on_c, 0, 57, 95
2, 3840, Note_on_c, 0, 52, 95
2, 3840, Note_on_c, 0, 45, 95
2, 4080, Note_off_c, 0, 57, 95
2, 4080, Note_off_c, 0, 52, 95
2, 4080, Note_off_c, 0, 45, 95
2, 4080, Note_on_c, 0, 57, 95
2, 4080, Note_on_c, 0, 52, 95
2, 4080, Note_on_c, 0, 45, 95
2, 4320, Note_off_c, 0, 57, 95
2, 4320, Note_off_c, 0, 52, 95
2, 4320, Note_off_c, 0, 45, 95
2, 4320, Note_on_c, 0, 57, 95
2, 4320, Note_on_c, 0, 52, 95
2, 4320, Note_on_c, 0, 45, 95
2, 4560, Note_off_c, 0, 57, 95
2, 4560, Note_off_c, 0, 52, 95
2, 4560, Note_off_c, 0, 45, 95
2, 4560, Note_on_c, 0, 57, 95
2, 4560, Note_on_c, 0, 52, 95
2, 4560, Note_on_c, 0, 45, 95
2, 4800, Note_off_c, 0, 57, 95
2, 4800, Note_off_c, 0, 52, 95
2, 4800, Note_off_c, 0, 45, 95
2, 4800, Note_on_c, 0, 57, 95
2, 4800, Note_on_c, 0, 52, 95
2, 4800, Note_on_c, 0, 45, 95
2, 5040, Note_off_c, 0, 57, 95
2, 5040, Note_off_c, 0, 52, 95
2, 5040, Note_off_c, 0, 45, 95
2, 5280, Note_on_c, 0, 55, 95
2, 5280, Note_on_c, 0, 50, 95
2, 5280, Note_on_c, 0, 43, 95
2, 5520, Note_off_c, 0, 55, 95
2, 5520, Note_off_c, 0, 50, 95
2, 5520, Note_off_c, 0, 43, 95
2, 5520, Note_on_c, 0, 55, 95
2, 5520, Note_on_c, 0, 50, 95
2, 5520, Note_on_c, 0, 43, 95
2, 5760, Note_off_c, 0, 55, 95
2, 5760, Note_off_c, 0, 50, 95
2, 5760, Note_off_c, 0, 43, 95
2, 5760, Note_on_c, 0, 55, 95
2, 5760, Note_on_c, 0, 50, 95
2, 5760, Note_on_c, 0, 43, 95
2, 6000, Note_off_c, 0, 55, 95
2, 6000, Note_off_c, 0, 50, 95
2, 6000, Note_off_c, 0, 43, 95
2, 6000, Note_on_c, 0, 57, 95
2, 6000, Note_on_c, 0, 52, 95
2, 6000, Note_on_c, 0, 45, 95
2, 6240, Note_off_c, 0, 57, 95
2, 6240, Note_off_c, 0, 52, 95
2, 6240, Note_off_c, 0, 45, 95
2, 6240, Note_on_c, 0, 57, 95
2, 6240, Note_on_c, 0, 52, 95
2, 6240, Note_on_c, 0, 45, 95
2, 6480, Note_off_c, 0, 57, 95
2, 6480, Note_off_c, 0, 52, 95
2, 6480, Note_off_c, 0, 45, 95
2, 6480, Note_on_c, 0, 57, 95
2, 6480, Note_on_c, 0, 52, 95
2, 6480, Note_on_c, 0, 45, 95
2, 6720, Note_off_c, 0, 57, 95
2, 6720, Note_off_c, 0, 52, 95
2, 6720, Note_off_c, 0, 45, 95
2, 6720, Note_on_c, 0, 57, 95
2, 6720, Note_on_c, 0, 52, 95
2, 6720, Note_on_c, 0, 45, 95
2, 7200, Note_off_c, 0, 57, 95
2, 7200, Note_off_c, 0, 52, 95
2, 7200, Note_off_c, 0, 45, 95
2, 7200, Note_on_c, 1, 55, 95
2, 7200, Note_on_c, 1, 50, 95
2, 7200, Note_on_c, 1, 43, 95
2, 7320, Pitch_bend_c, 1, 7680
2, 7320, Pitch_bend_c, 1, 7680
2, 7320, Pitch_bend_c, 1, 7680
2, 7440, Pitch_bend_c, 1, 7168
2, 7440, Pitch_bend_c, 1, 7168
2, 7440, Pitch_bend_c, 1, 7168
2, 7560, Pitch_bend_c, 1, 6656
2, 7560, Pitch_bend_c, 1, 6656
2, 7560, Pitch_bend_c, 1, 6656
2, 7680, Pitch_bend_c, 1, 6144
2, 7680, Pitch_bend_c, 1, 8192
2, 7680, Note_off_c, 1, 55, 95
2, 7680, Pitch_bend_c, 1, 6144
2, 7680, Pitch_bend_c, 1, 8192
2, 7680, Note_off_c, 1, 50, 95
2, 7680, Pitch_bend_c, 1, 6144
2, 7680, Pitch_bend_c, 1, 8192
2, 7680, Note_off_c, 1, 43, 95
2, 7680, Note_on_c, 0, 52, 95
2, 7680, Note_on_c, 0, 47, 95
2, 7680, Note_on_c, 0, 40, 95
2, 8640, Note_off_c, 0, 52, 95
2, 8640, Note_off_c, 0, 47, 95
2, 8640, Note_off_c, 0, 40, 95
2, 8640, Note_on_c, 0, 52, 95
2, 8640, Note_on_c, 0, 47, 95
2, 8640, Note_on_c, 0, 40, 95
2, 9120, Note_on_c, 0, 55, 95
2, 9170, Note_off_c, 0, 55, 95
2, 9360, Note_on_c, 0, 55, 95
2, 9410, Note_off_c, 0, 55, 95
2, 9600, Note_off_c, 0, 52, 95
2, 9600, Note_off_c, 0, 47, 95
2, 9600, Note_off_c, 0, 40, 95
2, 9600, Note_on_c, 0, 62, 95
2, 9600, Note_on_c, 0, 57, 95
2, 9600, Note_on_c, 0, 50, 95
2, 9840, Note_off_c, 0, 62, 95
2, 9840, Note_off_c, 0, 57, 95
2, 9840, Note_off_c, 0, 50, 95
2, 9840, Note_on_c, 0, 62, 95
2, 9840, Note_on_c, 0, 57, 95
2, 9840, Note_on_c, 0, 50, 95
2, 10080, Note_off_c, 0, 62, 95
2, 10080, Note_off_c, 0, 57, 95
2, 10080, Note_off_c, 0, 50, 95
2, 10080, Note_on_c, 0, 62, 95
2, 10080, Note_on_c, 0, 57, 95
2, 10080, Note_on_c, 0, 50, 95
2, 10560, Note_off_c, 0, 62, 95
2, 10560, Note_off_c, 0, 57, 95
2, 10560, Note_off_c, 0, 50, 95
2, 10560, Note_on_c, 0, 62, 95
2, 10560, Note_on_c, 0, 57, 95
2, 10560, Note_on_c, 0, 50, 95
2, 11040, Note_off_c, 0, 62, 95
2, 11040, Note_off_c, 0, 57, 95
2, 11040, Note_off_c, 0, 50, 95
2, 11040, Note_on_c, 0, 55, 95
2, 11040, Note_on_c, 0, 50, 95
2, 11520, Note_off_c, 0, 55, 95
2, 11520, Note_off_c, 0, 50, 95
2, 11520, Note_on_c, 0, 57, 95
2, 11520, Note_on_c, 0, 52, 95
2, 11520, Note_on_c, 0, 45, 95
2, 11760, Note_off_c, 0, 57, 95
2, 11760, Note_off_c, 0, 52, 95
2, 11760, Note_off_c, 0, 45, 95
2, 11760, Note_on_c, 0, 57, 95
2, 11760, Note_on_c, 0, 52, 95
2, 11760, Note_on_c, 0, 45, 95
2, 12000, Note_off_c, 0, 57, 95
2, 12000, Note_off_c, 0, 52, 95
2, 12000, Note_off_c, 0, 45, 95
2, 12000, Note_on_c, 0, 57, 95
2, 12000, Note_on_c, 0, 52, 95
2, 12000, Note_on_c, 0, 45, 95
2, 12240, Note_off_c, 0, 57, 95
2, 12240, Note_off_c, 0, 52, 95
2, 12240, Note_off_c, 0, 45, 95
2, 12240, Note_on_c, 0, 57, 95
2, 12240, Note_on_c, 0, 52, 95
2, 12240, Note_on_c, 0, 45, 95
2, 12480, Note_off_c, 0, 57, 95
2, 12480, Note_off_c, 0, 52, 95
2, 12480, Note_off_c, 0, 45, 95
2, 12480, Note_on_c, 0, 57, 95
2, 12480, Note_on_c, 0, 52, 95
2, 12480, Note_on_c, 0, 45, 95
2, 12720, Note_off_c, 0, 57, 95
2, 12720, Note_off_c, 0, 52, 95
2, 12720, Note_off_c, 0, 45, 95
2, 12960, Note_on_c, 0, 55, 95
2, 12960, Note_on_c, 0, 50, 95
2, 12960, Note_on_c, 0, 43, 95
2, 13200, Note_off_c, 0, 55, 95
2, 13200, Note_off_c, 0, 50, 95
2, 13200, Note_off_c, 0, 43, 95
2, 13200, Note_on_c, 0, 55, 95
2, 13200, Note_on_c, 0, 50, 95
2, 13200, Note_on_c, 0, 43, 95
2, 13440, Note_off_c, 0, 55, 95
2, 13440, Note_off_c, 0, 50, 95
2, 13440, Note_off_c, 0, 43, 95
2, 13440, Note_on_c, 0, 55, 95
2, 13440, Note_on_c, 0, 50, 95
2, 13440, Note_on_c, 0, 43, 95
2, 13680, Note_off_c, 0, 55, 95
2, 13680, Note_off_c, 0, 50, 95
2, 13680, Note_off_c, 0, 43, 95
2, 13680, Note_on_c, 0, 57, 95
2, 13680, Note_on_c, 0, 52, 95
2, 13680, Note_on_c, 0, 45, 95
2, 13920, Note_off_c, 0, 57, 95
2, 13920, Note_off_c, 0, 52, 95
2, 13920, Note_off_c, 0, 45, 95
2, 13920, Note_on_c, 0, 57, 95
2, 13920, Note_on_c, 0, 52, 95
2, 13920, Note_on_c, 0, 45, 95
2, 14160, Note_off_c, 0, 57, 95
2, 14160, Note_off_c, 0, 52, 95
2, 14160, Note_off_c, 0, 45, 95
2, 14160, Note_on_c, 0, 57, 95
2, 14160, Note_on_c, 0, 52, 95
2, 14160, Note_on_c, 0, 45, 95
2, 14400, Note_off_c, 0, 57, 95
2, 14400, Note_off_c, 0, 52, 95
2, 14400, Note_off_c, 0, 45, 95
2, 14400, Note_on_c, 0, 57, 95
2, 14400, Note_on_c, 0, 52, 95
2, 14400, Note_on_c, 0, 45, 95
2, 14880, Note_off_c, 0, 57, 95
2, 14880, Note_off_c, 0, 52, 95
2, 14880, Note_off_c, 0, 45, 95
2, 14880, Note_on_c, 0, 55, 95
2, 14880, Note_on_c, 0, 50, 95
2, 14880, Note_on_c, 0, 43, 95
2, 15360, Note_off_c, 0, 55, 95
2, 15360, Note_off_c, 0, 50, 95
2, 15360, Note_off_c, 0, 43, 95
2, 46080, Note_on_c, 0, 52, 95
2, 46080, Note_on_c, 0, 47, 95
2, 46080, Note_on_c, 0, 40, 95
2, 47040, Note_off_c, 0, 52, 95
2, 47040, Note_off_c, 0, 47, 95
2, 47040, Note_off_c, 0, 40, 95
2, 47040, Note_on_c, 0, 52, 95
2, 47040, Note_on_c, 0, 47, 95
2, 47040, Note_on_c, 0, 40, 95
2, 47520, Note_on_c, 0, 55, 95
2, 47570, Note_off_c, 0, 55, 95
2, 47760, Note_on_c, 0, 55, 95
2, 47810, Note_off_c, 0, 55, 95
2, 48000, Note_off_c, 0, 52, 95
2, 48000, Note_off_c, 0, 47, 95
2, 48000, Note_off_c, 0, 40, 95
2, 48000, Note_on_c, 0, 62, 95
2, 48000, Note_on_c, 0, 57, 95
2, 48000, Note_on_c, 0, 50, 95
2, 48240, Note_off_c, 0, 62, 95
2, 48240, Note_off_c, 0, 57, 95
2, 48240, Note_off_c, 0, 50, 95
2, 48240, Note_on_c, 0, 62, 95
2, 48240, Note_on_c, 0, 57, 95
2, 48240, Note_on_c, 0, 50, 95
2, 48480, Note_off_c, 0, 62, 95
2, 48480, Note_off_c, 0, 57, 95
2, 48480, Note_off_c, 0, 50, 95
2, 48480, Note_on_c, 0, 62, 95
2, 48480, Note_on_c, 0, 57, 95
2, 48480, Note_on_c, 0, 50, 95
2, 48720, Note_off_c, 0, 62, 95
2, 48720, Note_off_c, 0, 57, 95
2, 48720, Note_off_c, 0, 50, 95
2, 48720, Note_on_c, 0, 62, 95
2, 48720, Note_on_c, 0, 57, 95
2, 48720, Note_on_c, 0, 50, 95
2, 48960, Note_off_c, 0, 62, 95
2, 48960, Note_off_c, 0, 57, 95
2, 48960, Note_off_c, 0, 50, 95
2, 48960, Note_on_c, 0, 62, 95
2, 48960, Note_on_c, 0, 57, 95
2, 48960, Note_on_c, 0, 50, 95
2, 49440, Note_off_c, 0, 62, 95
2, 49440, Note_off_c, 0, 57, 95
2, 49440, Note_off_c, 0, 50, 95
2, 49440, Note_on_c, 0, 55, 95
2, 49440, Note_on_c, 0, 50, 95
2, 49920, Note_off_c, 0, 55, 95
2, 49920, Note_off_c, 0, 50, 95
2, 49920, Note_on_c, 0, 57, 95
2, 49920, Note_on_c, 0, 52, 95
2, 49920, Note_on_c, 0, 45, 95
2, 50160, Note_off_c, 0, 57, 95
2, 50160, Note_off_c, 0, 52, 95
2, 50160, Note_off_c, 0, 45, 95
2, 50160, Note_on_c, 0, 57, 95
2, 50160, Note_on_c, 0, 52, 95
2, 50160, Note_on_c, 0, 45, 95
2, 50400, Note_off_c, 0, 57, 95
2, 50400, Note_off_c, 0, 52, 95
2, 50400, Note_off_c, 0, 45, 95
2, 50400, Note_on_c, 0, 57, 95
2, 50400, Note_on_c, 0, 52, 95
2, 50400, Note_on_c, 0, 45, 95
2, 50640, Note_off_c, 0, 57, 95
2, 50640, Note_off_c, 0, 52, 95
2, 50640, Note_off_c, 0, 45, 95
2, 50640, Note_on_c, 0, 57, 95
2, 50640, Note_on_c, 0, 52, 95
2, 50640, Note_on_c, 0, 45, 95
2, 50880, Note_off_c, 0, 57, 95
2, 50880, Note_off_c, 0, 52, 95
2, 50880, Note_off_c, 0, 45, 95
2, 50880, Note_on_c, 0, 57, 95
2, 50880, Note_on_c, 0, 52, 95
2, 50880, Note_on_c, 0, 45, 95
2, 51120, Note_off_c, 0, 57, 95
2, 51120, Note_off_c, 0, 52, 95
2, 51120, Note_off_c, 0, 45, 95
2, 51360, Note_on_c, 0, 55, 95
2, 51360, Note_on_c, 0, 50, 95
2, 51360, Note_on_c, 0, 43, 95
2, 51600, Note_off_c, 0, 55, 95
2, 51600, Note_off_c, 0, 50, 95
2, 51600, Note_off_c, 0, 43, 95
2, 51600, Note_on_c, 0, 55, 95
2, 51600, Note_on_c, 0, 50, 95
2, 51600, Note_on_c, 0, 43, 95
2, 51840, Note_off_c, 0, 55, 95
2, 51840, Note_off_c, 0, 50, 95
2, 51840, Note_off_c, 0, 43, 95
2, 51840, Note_on_c, 0, 55, 95
2, 51840, Note_on_c, 0, 50, 95
2, 51840, Note_on_c, 0, 43, 95
2, 52080, Note_off_c, 0, 55, 95
2, 52080, Note_off_c, 0, 50, 95
2, 52080, Note_off_c, 0, 43, 95
2, 52080, Note_on_c, 0, 57, 95
2, 52080, Note_on_c, 0, 52, 95
2, 52080, Note_on_c, 0, 45, 95
2, 52320, Note_off_c, 0, 57, 95
2, 52320, Note_off_c, 0, 52, 95
2, 52320, Note_off_c, 0, 45, 95
2, 52320, Note_on_c, 0, 57, 95
2, 52320, Note_on_c, 0, 52, 95
2, 52320, Note_on_c, 0, 45, 95
2, 52560, Note_off_c, 0, 57, 95
2, 52560, Note_off_c, 0, 52, 95
2, 52560, Note_off_c, 0, 45, 95
2, 52560, Note_on_c, 0, 57, 95
2, 52560, Note_on_c, 0, 52, 95
2, 52560, Note_on_c, 0, 45, 95
2, 52800, Note_off_c, 0, 57, 95
2, 52800, Note_off_c, 0, 52, 95
2, 52800, Note_off_c, 0, 45, 95
2, 52800, Note_on_c, 0, 57, 95
2, 52800, Note_on_c, 0, 52, 95
2, 52800, Note_on_c, 0, 45, 95
2, 53280, Note_off_c, 0, 57, 95
2, 53280, Note_off_c, 0, 52, 95
2, 53280, Note_off_c, 0, 45, 95
2, 53280, Note_on_c, 1, 55, 95
2, 53280, Note_on_c, 1, 50, 95
2, 53280, Note_on_c, 1, 43, 95
2, 53400, Pitch_bend_c, 1, 7680
2, 53400, Pitch_bend_c, 1, 7680
2, 53400, Pitch_bend_c, 1, 7680
2, 53520, Pitch_bend_c, 1, 7168
2, 53520, Pitch_bend_c, 1, 7168
2, 53520, Pitch_bend_c, 1, 7168
2, 53640, Pitch_bend_c, 1, 6656
2, 53640, Pitch_bend_c, 1, 6656
2, 53640, Pitch_bend_c, 1, 6656
2, 53760, Pitch_bend_c, 1, 6144
2, 53760, Pitch_bend_c, 1, 8192
2, 53760, Note_off_c, 1, 55, 95
2, 53760, Pitch_bend_c, 1, 6144
2, 53760, Pitch_bend_c, 1, 8192
2, 53760, Note_off_c, 1, 50, 95
2, 53760, Pitch_bend_c, 1, 6144
2, 53760, Pitch_bend_c, 1, 8192
2, 53760, Note_off_c, 1, 43, 95
2, 53760, Note_on_c, 0, 52, 95
2, 53760, Note_on_c, 0, 47, 95
2, 53760, Note_on_c, 0, 40, 95
2, 54720, Note_off_c, 0, 52, 95
2, 54720, Note_off_c, 0, 47, 95
2, 54720, Note_off_c, 0, 40, 95
2, 54720, Note_on_c, 0, 52, 95
2, 54720, Note_on_c, 0, 47, 95
2, 54720, Note_on_c, 0, 40, 95
2, 55200, Note_on_c, 0, 55, 95
2, 55250, Note_off_c, 0, 55, 95
2, 55440, Note_on_c, 0, 55, 95
2, 55490, Note_off_c, 0, 55, 95
2, 55680, Note_off_c, 0, 52, 95
2, 55680, Note_off_c, 0, 47, 95
2, 55680, Note_off_c, 0, 40, 95
2, 55680, Note_on_c, 0, 62, 95
2, 55680, Note_on_c, 0, 57, 95
2, 55680, Note_on_c, 0, 50, 95
2, 55920, Note_off_c, 0, 62, 95
2, 55920, Note_off_c, 0, 57, 95
2, 55920, Note_off_c, 0, 50, 95
2, 55920, Note_on_c, 0, 62, 95
2, 55920, Note_on_c, 0, 57, 95
2, 55920, Note_on_c, 0, 50, 95
2, 56160, Note_off_c, 0, 62, 95
2, 56160, Note_off_c, 0, 57, 95
2, 56160, Note_off_c, 0, 50, 95
2, 56160, Note_on_c, 0, 62, 95
2, 56160, Note_on_c, 0, 57, 95
2, 56160, Note_on_c, 0, 50, 95
2, 56400, Note_off_c, 0, 62, 95
2, 56400, Note_off_c, 0, 57, 95
2, 56400, Note_off_c, 0, 50, 95
2, 56400, Note_on_c, 0, 62, 95
2, 56400, Note_on_c, 0, 57, 95
2, 56400, Note_on_c, 0, 50, 95
2, 56640, Note_off_c, 0, 62, 95
2, 56640, Note_off_c, 0, 57, 95
2, 56640, Note_off_c, 0, 50, 95
2, 56640, Note_on_c, 0, 62, 95
2, 56640, Note_on_c, 0, 57, 95
2, 56640, Note_on_c, 0, 50, 95
2, 57120, Note_off_c, 0, 62, 95
2, 57120, Note_off_c, 0, 57, 95
2, 57120, Note_off_c, 0, 50, 95
2, 57120, Note_on_c, 0, 55, 95
2, 57120, Note_on_c, 0, 50, 95
2, 57600, Note_off_c, 0, 55, 95
2, 57600, Note_off_c, 0, 50, 95
2, 57600, Note_on_c, 0, 57, 95
2, 57600, Note_on_c, 0, 52, 95
2, 57600, Note_on_c, 0, 45, 95
2, 57840, Note_off_c, 0, 57, 95
2, 57840, Note_off_c, 0, 52, 95
2, 57840, Note_off_c, 0, 45, 95
2, 57840, Note_on_c, 0, 57, 95
2, 57840, Note_on_c, 0, 52, 95
2, 57840, Note_on_c, 0, 45, 95
2, 58080, Note_off_c, 0, 57, 95
2, 58080, Note_off_c, 0, 52, 95
2, 58080, Note_off_c, 0, 45, 95
2, 58080, Note_on_c, 0, 57, 95
2, 58080, Note_on_c, 0, 52, 95
2, 58080, Note_on_c, 0, 45, 95
2, 58320, Note_off_c, 0, 57, 95
2, 58320, Note_off_c, 0, 52, 95
2, 58320, Note_off_c, 0, 45, 95
2, 58320, Note_on_c, 0, 57, 95
2, 58320, Note_on_c, 0, 52, 95
2, 58320, Note_on_c, 0, 45, 95
2, 58560, Note_off_c, 0, 57, 95
2, 58560, Note_off_c, 0, 52, 95
2, 58560, Note_off_c, 0, 45, 95
2, 58560, Note_on_c, 0, 57, 95
2, 58560, Note_on_c, 0, 52, 95
2, 58560, Note_on_c, 0, 45, 95
2, 58800, Note_off_c, 0, 57, 95
2, 58800, Note_off_c, 0, 52, 95
2, 58800, Note_off_c, 0, 45, 95
2, 59040, Note_on_c, 0, 55, 95
2, 59040, Note_on_c, 0, 50, 95
2, 59040, Note_on_c, 0, 43, 95
2, 59280, Note_off_c, 0, 55, 95
2, 59280, Note_off_c, 0, 50, 95
2, 59280, Note_off_c, 0, 43, 95
2, 59280, Note_on_c, 0, 55, 95
2, 59280, Note_on_c, 0, 50, 95
2, 59280, Note_on_c, 0, 43, 95
2, 59520, Note_off_c, 0, 55, 95
2, 59520, Note_off_c, 0, 50, 95
2, 59520, Note_off_c, 0, 43, 95
2, 59520, Note_on_c, 0, 55, 95
2, 59520, Note_on_c, 0, 50, 95
2, 59520, Note_on_c, 0, 43, 95
2, 59760, Note_off_c, 0, 55, 95
2, 59760, Note_off_c, 0, 50, 95
2, 59760, Note_off_c, 0, 43, 95
2, 59760, Note_on_c, 0, 57, 95
2, 59760, Note_on_c, 0, 52, 95
2, 59760, Note_on_c, 0, 45, 95
2, 60000, Note_off_c, 0, 57, 95
2, 60000, Note_off_c, 0, 52, 95
2, 60000, Note_off_c, 0, 45, 95
2, 60000, Note_on_c, 0, 57, 95
2, 60000, Note_on_c, 0, 52, 95
2, 60000, Note_on_c, 0, 45, 95
2, 60240, Note_off_c, 0, 57, 95
2, 60240, Note_off_c, 0, 52, 95
2, 60240, Note_off_c, 0, 45, 95
2, 60240, Note_on_c, 0, 57, 95
2, 60240, Note_on_c, 0, 52, 95
2, 60240, Note_on_c, 0, 45, 95
2, 60480, Note_off_c, 0, 57, 95
2, 60480, Note_off_c, 0, 52, 95
2, 60480, Note_off_c, 0, 45, 95
2, 60480, Note_on_c, 0, 57, 95
2, 60480, Note_on_c, 0, 52, 95
2, 60480, Note_on_c, 0, 45, 95
2, 60960, Note_off_c, 0, 57, 95
2, 60960, Note_off_c, 0, 52, 95
2, 60960, Note_off_c, 0, 45, 95
2, 60960, Note_on_c, 1, 55, 95
2, 60960, Note_on_c, 1, 50, 95
2, 60960, Note_on_c, 1, 43, 95
2, 61080, Pitch_bend_c, 1, 7680
2, 61080, Pitch_bend_c, 1, 7680
2, 61080, Pitch_bend_c, 1, 7680
2, 61200, Pitch_bend_c, 1, 7168
2, 61200, Pitch_bend_c, 1, 7168
2, 61200, Pitch_bend_c, 1, 7168
2, 61320, Pitch_bend_c, 1, 6656
2, 61320, Pitch_bend_c, 1, 6656
2, 61320, Pitch_bend_c, 1, 6656
2, 61440, Pitch_bend_c, 1, 6144
2, 61440, Pitch_bend_c, 1, 8192
2, 61440, Note_off_c, 1, 55, 95
2, 61440, Pitch_bend_c, 1, 6144
2, 61440, Pitch_bend_c, 1, 8192
2, 61440, Note_off_c, 1, 50, 95
2, 61440, Pitch_bend_c, 1, 6144
2, 61440, Pitch_bend_c, 1, 8192
2, 61440, Note_off_c, 1, 43, 95
2, 61440, Note_on_c, 0, 52, 95
2, 61440, Note_on_c, 0, 47, 95
2, 61440, Note_on_c, 0, 40, 95
2, 62400, Note_off_c, 0, 52, 95
2, 62400, Note_off_c, 0, 47, 95
2, 62400, Note_off_c, 0, 40, 95
2, 62400, Note_on_c, 0, 52, 95
2, 62400, Note_on_c, 0, 47, 95
2, 62400, Note_on_c, 0, 40, 95
2, 62880, Note_on_c, 0, 55, 95
2, 62930, Note_off_c, 0, 55, 95
2, 63120, Note_on_c, 0, 55, 95
2, 63170, Note_off_c, 0, 55, 95
2, 63360, Note_off_c, 0, 52, 95
2, 63360, Note_off_c, 0, 47, 95
2, 63360, Note_off_c, 0, 40, 95
2, 63360, Note_on_c, 0, 62, 95
2, 63360, Note_on_c, 0, 57, 95
2, 63360, Note_on_c, 0, 50, 95
2, 63600, Note_off_c, 0, 62, 95
2, 63600, Note_off_c, 0, 57, 95
2, 63600, Note_off_c, 0, 50, 95
2, 63600, Note_on_c, 0, 62, 95
2, 63600, Note_on_c, 0, 57, 95
2, 63600, Note_on_c, 0, 50, 95
2, 63840, Note_off_c, 0, 62, 95
2, 63840, Note_off_c, 0, 57, 95
2, 63840, Note_off_c, 0, 50, 95
2, 63840, Note_on_c, 0, 62, 95
2, 63840, Note_on_c, 0, 57, 95
2, 63840, Note_on_c, 0, 50, 95
2, 64080, Note_off_c, 0, 62, 95
2, 64080, Note_off_c, 0, 57, 95
2, 64080, Note_off_c, 0, 50, 95
2, 64080, Note_on_c, 0, 62, 95
2, 64080, Note_on_c, 0, 57, 95
2, 64080, Note_on_c, 0, 50, 95
2, 64320, Note_off_c, 0, 62, 95
2, 64320, Note_off_c, 0, 57, 95
2, 64320, Note_off_c, 0, 50, 95
2, 64320, Note_on_c, 0, 62, 95
2, 64320, Note_on_c, 0, 57, 95
2, 64320, Note_on_c, 0, 50, 95
2, 64800, Note_off_c, 0, 62, 95
2, 64800, Note_off_c, 0, 57, 95
2, 64800, Note_off_c, 0, 50, 95
2, 64800, Note_on_c, 0, 55, 95
2, 64800, Note_on_c, 0, 50, 95
2, 65280, Note_off_c, 0, 55, 95
2, 65280, Note_off_c, 0, 50, 95
2, 65280, Note_on_c, 0, 57, 95
2, 65280, Note_on_c, 0, 52, 95
2, 65280, Note_on_c, 0, 45, 95
2, 65520, Note_off_c, 0, 57, 95
2, 65520, Note_off_c, 0, 52, 95
2, 65520, Note_off_c, 0, 45, 95
2, 65520, Note_on_c, 0, 57, 95
2, 65520, Note_on_c, 0, 52, 95
2, 65520, Note_on_c, 0, 45, 95
2, 65760, Note_off_c, 0, 57, 95
2, 65760, Note_off_c, 0, 52, 95
2, 65760, Note_off_c, 0, 45, 95
2, 65760, Note_on_c, 0, 57, 95
2, 65760, Note_on_c, 0, 52, 95
2, 65760, Note_on_c, 0, 45, 95
2, 66000, Note_off_c, 0, 57, 95
2, 66000, Note_off_c, 0, 52, 95
2, 66000, Note_off_c, 0, 45, 95
2, 66000, Note_on_c, 0, 57, 95
2, 66000, Note_on_c, 0, 52, 95
2, 66000, Note_on_c, 0, 45, 95
2, 66240, Note_off_c, 0, 57, 95
2, 66240, Note_off_c, 0, 52, 95
2, 66240, Note_off_c, 0, 45, 95
2, 66240, Note_on_c, 0, 57, 95
2, 66240, Note_on_c, 0, 52, 95
2, 66240, Note_on_c, 0, 45, 95
2, 66480, Note_off_c, 0, 57, 95
2, 66480, Note_off_c, 0, 52, 95
2, 66480, Note_off_c, 0, 45, 95
2, 66720, Note_on_c, 0, 55, 95
2, 66720, Note_on_c, 0, 50, 95
2, 66720, Note_on_c, 0, 43, 95
2, 66960, Note_off_c, 0, 55, 95
2, 66960, Note_off_c, 0, 50, 95
2, 66960, Note_off_c, 0, 43, 95
2, 66960, Note_on_c, 0, 55, 95
2, 66960, Note_on_c, 0, 50, 95
2, 66960, Note_on_c, 0, 43, 95
2, 67200, Note_off_c, 0, 55, 95
2, 67200, Note_off_c, 0, 50, 95
2, 67200, Note_off_c, 0, 43, 95
2, 67200, Note_on_c, 0, 55, 95
2, 67200, Note_on_c, 0, 50, 95
2, 67200, Note_on_c, 0, 43, 95
2, 67440, Note_off_c, 0, 55, 95
2, 67440, Note_off_c, 0, 50, 95
2, 67440, Note_off_c, 0, 43, 95
2, 67440, Note_on_c, 0, 57, 95
2, 67440, Note_on_c, 0, 52, 95
2, 67440, Note_on_c, 0, 45, 95
2, 67680, Note_off_c, 0, 57, 95
2, 67680, Note_off_c, 0, 52, 95
2, 67680, Note_off_c, 0, 45, 95
2, 67680, Note_on_c, 0, 57, 95
2, 67680, Note_on_c, 0, 52, 95
2, 67680, Note_on_c, 0, 45, 95
2, 67920, Note_off_c, 0, 57, 95
2, 67920, Note_off_c, 0, 52, 95
2, 67920, Note_off_c, 0, 45, 95
2, 67920, Note_on_c, 0, 57, 95
2, 67920, Note_on_c, 0, 52, 95
2, 67920, Note_on_c, 0, 45, 95
2, 68160, Note_off_c, 0, 57, 95
2, 68160, Note_off_c, 0, 52, 95
2, 68160, Note_off_c, 0, 45, 95
2, 68160, Note_on_c, 0, 57, 95
2, 68160, Note_on_c, 0, 52, 95
2, 68160, Note_on_c, 0, 45, 95
2, 68640, Note_off_c, 0, 57, 95
2, 68640, Note_off_c, 0, 52, 95
2, 68640, Note_off_c, 0, 45, 95
2, 68640, Note_on_c, 1, 55, 95
2, 68640, Note_on_c, 1, 50, 95
2, 68640, Note_on_c, 1, 43, 95
2, 68760, Pitch_bend_c, 1, 7680
2, 68760, Pitch_bend_c, 1, 7680
2, 68760, Pitch_bend_c, 1, 7680
2, 68880, Pitch_bend_c, 1, 7168
2, 68880, Pitch_bend_c, 1, 7168
2, 68880, Pitch_bend_c, 1, 7168
2, 69000, Pitch_bend_c, 1, 6656
2, 69000, Pitch_bend_c, 1, 6656
2, 69000, Pitch_bend_c, 1, 6656
2, 69120, Pitch_bend_c, 1, 6144
2, 69120, Pitch_bend_c, 1, 8192
2, 69120, Note_off_c, 1, 55, 95
2, 69120, Pitch_bend_c, 1, 6144
2, 69120, Pitch_bend_c, 1, 8192
2, 69120, Note_off_c, 1, 50, 95
2, 69120, Pitch_bend_c, 1, 6144
2, 69120, Pitch_bend_c, 1, 8192
2, 69120, Note_off_c, 1, 43, 95
2, 69120, Note_on_c, 0, 52, 95
2, 69120, Note_on_c, 0, 47, 95
2, 69120, Note_on_c, 0, 40, 95
2, 70080, Note_off_c, 0, 52, 95
2, 70080, Note_off_c, 0, 47, 95
2, 70080, Note_off_c, 0, 40, 95
2, 70080, Note_on_c, 0, 52, 95
2, 70080, Note_on_c, 0, 47, 95
2, 70080, Note_on_c, 0, 40, 95
2, 70560, Note_on_c, 0, 55, 95
2, 70610, Note_off_c, 0, 55, 95
2, 70800, Note_on_c, 0, 55, 95
2, 70850, Note_off_c, 0, 55, 95
2, 71040, Note_off_c, 0, 52, 95
2, 71040, Note_off_c, 0, 47, 95
2, 71040, Note_off_c, 0, 40, 95
2, 71040, Note_on_c, 0, 62, 95
2, 71040, Note_on_c, 0, 57, 95
2, 71040, Note_on_c, 0, 50, 95
2, 71280, Note_off_c, 0, 62, 95
2, 71280, Note_off_c, 0, 57, 95
2, 71280, Note_off_c, 0, 50, 95
2, 71280, Note_on_c, 0, 62, 95
2, 71280, Note_on_c, 0, 57, 95
2, 71280, Note_on_c, 0, 50, 95
2, 71520, Note_off_c, 0, 62, 95
2, 71520, Note_off_c, 0, 57, 95
2, 71520, Note_off_c, 0, 50, 95
2, 71520, Note_on_c, 0, 62, 95
2, 71520, Note_on_c, 0, 57, 95
2, 71520, Note_on_c, 0, 50, 95
2, 71760, Note_off_c, 0, 62, 95
2, 71760, Note_off_c, 0, 57, 95
2, 71760, Note_off_c, 0, 50, 95
2, 71760, Note_on_c, 0, 62, 95
2, 71760, Note_on_c, 0, 57, 95
2, 71760, Note_on_c, 0, 50, 95
2, 72000, Note_off_c, 0, 62, 95
2, 72000, Note_off_c, 0, 57, 95
2, 72000, Note_off_c, 0, 50, 95
2, 72000, Note_on_c, 0, 62, 95
2, 72000, Note_on_c, 0, 57, 95
2, 72000, Note_on_c, 0, 50, 95
2, 72480, Note_off_c, 0, 62, 95
2, 72480, Note_off_c, 0, 57, 95
2, 72480, Note_off_c, 0, 50, 95
2, 72480, Note_on_c, 0, 55, 95
2, 72480, Note_on_c, 0, 50, 95
2, 72960, Note_off_c, 0, 55, 95
2, 72960, Note_off_c, 0, 50, 95
2, 72960, Note_on_c, 0, 57, 95
2, 72960, Note_on_c, 0, 52, 95
2, 72960, Note_on_c, 0, 45, 95
2, 73200, Note_off_c, 0, 57, 95
2, 73200, Note_off_c, 0, 52, 95
2, 73200, Note_off_c, 0, 45, 95
2, 73200, Note_on_c, 0, 57, 95
2, 73200, Note_on_c, 0, 52, 95
2, 73200, Note_on_c, 0, 45, 95
2, 73440, Note_off_c, 0, 57, 95
2, 73440, Note_off_c, 0, 52, 95
2, 73440, Note_off_c, 0, 45, 95
2, 73440, Note_on_c, 0, 57, 95
2, 73440, Note_on_c, 0, 52, 95
2, 73440, Note_on_c, 0, 45, 95
2, 73680, Note_off_c, 0, 57, 95
2, 73680, Note_off_c, 0, 52, 95
2, 73680, Note_off_c, 0, 45, 95
2, 73680, Note_on_c, 0, 57, 95
2, 73680, Note_on_c, 0, 52, 95
2, 73680, Note_on_c, 0, 45, 95
2, 73920, Note_off_c, 0, 57, 95
2, 73920, Note_off_c, 0, 52, 95
2, 73920, Note_off_c, 0, 45, 95
2, 73920, Note_on_c, 0, 57, 95
2, 73920, Note_on_c, 0, 52, 95
2, 73920, Note_on_c, 0, 45, 95
2, 74160, Note_off_c, 0, 57, 95
2, 74160, Note_off_c, 0, 52, 95
2, 74160, Note_off_c, 0, 45, 95
2, 74400, Note_on_c, 0, 55, 95
2, 74400, Note_on_c, 0, 50, 95
2, 74400, Note_on_c, 0, 43, 95
2, 74640, Note_off_c, 0, 55, 95
2, 74640, Note_off_c, 0, 50, 95
2, 74640, Note_off_c, 0, 43, 95
2, 74640, Note_on_c, 0, 55, 95
2, 74640, Note_on_c, 0, 50, 95
2, 74640, Note_on_c, 0, 43, 95
2, 74880, Note_off_c, 0, 55, 95
2, 74880, Note_off_c, 0, 50, 95
2, 74880, Note_off_c, 0, 43, 95
2, 74880, Note_on_c, 0, 55, 95
2, 74880, Note_on_c, 0, 50, 95
2, 74880, Note_on_c, 0, 43, 95
2, 75120, Note_off_c, 0, 55, 95
2, 75120, Note_off_c, 0, 50, 95
2, 75120, Note_off_c, 0, 43, 95
2, 75120, Note_on_c, 0, 57, 95
2, 75120, Note_on_c, 0, 52, 95
2, 75120, Note_on_c, 0, 45, 95
2, 75360, Note_off_c, 0, 57, 95
2, 75360, Note_off_c, 0, 52, 95
2, 75360, Note_off_c, 0, 45, 95
2, 75360, Note_on_c, 0, 57, 95
2, 75360, Note_on_c, 0, 52, 95
2, 75360, Note_on_c, 0, 45, 95
2, 75600, Note_off_c, 0, 57, 95
2, 75600, Note_off_c, 0, 52, 95
2, 75600, Note_off_c, 0, 45, 95
2, 75600, Note_on_c, 0, 57, 95
2, 75600, Note_on_c, 0, 52, 95
2, 75600, Note_on_c, 0, 45, 95
2, 75840, Note_off_c, 0, 57, 95
2, 75840, Note_off_c, 0, 52, 95
2, 75840, Note_off_c, 0, 45, 95
2, 75840, Note_on_c, 0, 57, 95
2, 75840, Note_on_c, 0, 52, 95
2, 75840, Note_on_c, 0, 45, 95
2, 76320, Note_off_c, 0, 57, 95
2, 76320, Note_off_c, 0, 52, 95
2, 76320, Note_off_c, 0, 45, 95
2, 76320, Note_on_c, 1, 55, 95
2, 76320, Note_on_c, 1, 50, 95
2, 76320, Note_on_c, 1, 43, 95
2, 76800, Note_off_c, 1, 55, 95
2, 76800, Note_off_c, 1, 50, 95
2, 76800, Note_off_c, 1, 43, 95
2, 107520, Note_on_c, 0, 52, 95
2, 107520, Note_on_c, 0, 47, 95
2, 107520, Note_on_c, 0, 40, 95
2, 108480, Note_off_c, 0, 52, 95
2, 108480, Note_off_c, 0, 47, 95
2, 108480, Note_off_c, 0, 40, 95
2, 108480, Note_on_c, 0, 52, 95
2, 108480, Note_on_c, 0, 47, 95
2, 108480, Note_on_c, 0, 40, 95
2, 108960, Note_on_c, 0, 55, 95
2, 109010, Note_off_c, 0, 55, 95
2, 109200, Note_on_c, 0, 55, 95
2, 109250, Note_off_c, 0, 55, 95
2, 109440, Note_off_c, 0, 52, 95
2, 109440, Note_off_c, 0, 47, 95
2, 109440, Note_off_c, 0, 40, 95
2, 109440, Note_on_c, 0, 62, 95
2, 109440, Note_on_c, 0, 57, 95
2, 109440, Note_on_c, 0, 50, 95
2, 109680, Note_off_c, 0, 62, 95
2, 109680, Note_off_c, 0, 57, 95
2, 109680, Note_off_c, 0, 50, 95
2, 109680, Note_on_c, 0, 62, 95
2, 109680, Note_on_c, 0, 57, 95
2, 109680, Note_on_c, 0, 50, 95
2, 109920, Note_off_c, 0, 62, 95
2, 109920, Note_off_c, 0, 57, 95
2, 109920, Note_off_c, 0, 50, 95
2, 109920, Note_on_c, 0, 62, 95
2, 109920, Note_on_c, 0, 57, 95
2, 109920, Note_on_c, 0, 50, 95
2, 110160, Note_off_c, 0, 62, 95
2, 110160, Note_off_c, 0, 57, 95
2, 110160, Note_off_c, 0, 50, 95
2, 110160, Note_on_c, 0, 62, 95
2, 110160, Note_on_c, 0, 57, 95
2, 110160, Note_on_c, 0, 50, 95
2, 110400, Note_off_c, 0, 62, 95
2, 110400, Note_off_c, 0, 57, 95
2, 110400, Note_off_c, 0, 50, 95
2, 110400, Note_on_c, 0, 62, 95
2, 110400, Note_on_c, 0, 57, 95
2, 110400, Note_on_c, 0, 50, 95
2, 110880, Note_off_c, 0, 62, 95
2, 110880, Note_off_c, 0, 57, 95
2, 110880, Note_off_c, 0, 50, 95
2, 110880, Note_on_c, 0, 55, 95
2, 110880, Note_on_c, 0, 50, 95
2, 111360, Note_off_c, 0, 55, 95
2, 111360, Note_off_c, 0, 50, 95
2, 111360, Note_on_c, 0, 57, 95
2, 111360, Note_on_c, 0, 52, 95
2, 111360, Note_on_c, 0, 45, 95
2, 111600, Note_off_c, 0, 57, 95
2, 111600, Note_off_c, 0, 52, 95
2, 111600, Note_off_c, 0, 45, 95
2, 111600, Note_on_c, 0, 57, 95
2, 111600, Note_on_c, 0, 52, 95
2, 111600, Note_on_c, 0, 45, 95
2, 111840, Note_off_c, 0, 57, 95
2, 111840, Note_off_c, 0, 52, 95
2, 111840, Note_off_c, 0, 45, 95
2, 111840, Note_on_c, 0, 57, 95
2, 111840, Note_on_c, 0, 52, 95
2, 111840, Note_on_c, 0, 45, 95
2, 112080, Note_off_c, 0, 57, 95
2, 112080, Note_off_c, 0, 52, 95
2, 112080, Note_off_c, 0, 45, 95
2, 112080, Note_on_c, 0, 57, 95
2, 112080, Note_on_c, 0, 52, 95
2, 112080, Note_on_c, 0, 45, 95
2, 112320, Note_off_c, 0, 57, 95
2, 112320, Note_off_c, 0, 52, 95
2, 112320, Note_off_c, 0, 45, 95
2, 112320, Note_on_c, 0, 57, 95
2, 112320, Note_on_c, 0, 52, 95
2, 112320, Note_on_c, 0, 45, 95
2, 112560, Note_off_c, 0, 57, 95
2, 112560, Note_off_c, 0, 52, 95
2, 112560, Note_off_c, 0, 45, 95
2, 112800, Note_on_c, 0, 55, 95
2, 112800, Note_on_c, 0, 50, 95
2, 112800, Note_on_c, 0, 43, 95
2, 113040, Note_off_c, 0, 55, 95
2, 113040, Note_off_c, 0, 50, 95
2, 113040, Note_off_c, 0, 43, 95
2, 113040, Note_on_c, 0, 55, 95
2, 113040, Note_on_c, 0, 50, 95
2, 113040, Note_on_c, 0, 43, 95
2, 113280, Note_off_c, 0, 55, 95
2, 113280, Note_off_c, 0, 50, 95
2, 113280, Note_off_c, 0, 43, 95
2, 113280, Note_on_c, 0, 55, 95
2, 113280, Note_on_c, 0, 50, 95
2, 113280, Note_on_c, 0, 43, 95
2, 113520, Note_off_c, 0, 55, 95
2, 113520, Note_off_c, 0, 50, 95
2, 113520, Note_off_c, 0, 43, 95
2, 113520, Note_on_c, 0, 57, 95
2, 113520, Note_on_c, 0, 52, 95
2, 113520, Note_on_c, 0, 45, 95
2, 113760, Note_off_c, 0, 57, 95
2, 113760, Note_off_c, 0, 52, 95
2, 113760, Note_off_c, 0, 45, 95
2, 113760, Note_on_c, 0, 57, 95
2, 113760, Note_on_c, 0, 52, 95
2, 113760, Note_on_c, 0, 45, 95
2, 114000, Note_off_c, 0, 57, 95
2, 114000, Note_off_c, 0, 52, 95
2, 114000, Note_off_c, 0, 45, 95
2, 114000, Note_on_c, 0, 57, 95
2, 114000, Note_on_c, 0, 52, 95
2, 114000, Note_on_c, 0, 45, 95
2, 114240, Note_off_c, 0, 57, 95
2, 114240, Note_off_c, 0, 52, 95
2, 114240, Note_off_c, 0, 45, 95
2, 114240, Note_on_c, 0, 57, 95
2, 114240, Note_on_c, 0, 52, 95
2, 114240, Note_on_c, 0, 45, 95
2, 114720, Note_off_c, 0, 57, 95
2, 114720, Note_off_c, 0, 52, 95
2, 114720, Note_off_c, 0, 45, 95
2, 114720, Note_on_c, 1, 55, 95
2, 114720, Note_on_c, 1, 50, 95
2, 114720, Note_on_c, 1, 43, 95
2, 114840, Pitch_bend_c, 1, 7680
2, 114840, Pitch_bend_c, 1, 7680
2, 114840, Pitch_bend_c, 1, 7680
2, 114960, Pitch_bend_c, 1, 7168
2, 114960, Pitch_bend_c, 1, 7168
2, 114960, Pitch_bend_c, 1, 7168
2, 115080, Pitch_bend_c, 1, 6656
2, 115080, Pitch_bend_c, 1, 6656
2, 115080, Pitch_bend_c, 1, 6656
2, 115200, Pitch_bend_c, 1, 6144
2, 115200, Pitch_bend_c, 1, 8192
2, 115200, Note_off_c, 1, 55, 95
2, 115200, Pitch_bend_c, 1, 6144
2, 115200, Pitch_bend_c, 1, 8192
2, 115200, Note_off_c, 1, 50, 95
2, 115200, Pitch_bend_c, 1, 6144
2, 115200, Pitch_bend_c, 1, 8192
2, 115200, Note_off_c, 1, 43, 95
2, 115200, Note_on_c, 0, 52, 95
2, 115200, Note_on_c, 0, 47, 95
2, 115200, Note_on_c, 0, 40, 95
2, 116160, Note_off_c, 0, 52, 95
2, 116160, Note_off_c, 0, 47, 95
2, 116160, Note_off_c, 0, 40, 95
2, 116160, Note_on_c, 0, 52, 95
2, 116160, Note_on_c, 0, 47, 95
2, 116160, Note_on_c, 0, 40, 95
2, 116640, Note_on_c, 0, 55, 95
2, 116690, Note_off_c, 0, 55, 95
2, 116880, Note_on_c, 0, 55, 95
2, 116930, Note_off_c, 0, 55, 95
2, 117120, Note_off_c, 0, 52, 95
2, 117120, Note_off_c, 0, 47, 95
2, 117120, Note_off_c, 0, 40, 95
2, 117120, Note_on_c, 0, 62, 95
2, 117120, Note_on_c, 0, 57, 95
2, 117120, Note_on_c, 0, 50, 95
2, 117360, Note_off_c, 0, 62, 95
2, 117360, Note_off_c, 0, 57, 95
2, 117360, Note_off_c, 0, 50, 95
2, 117360, Note_on_c, 0, 62, 95
2, 117360, Note_on_c, 0, 57, 95
2, 117360, Note_on_c, 0, 50, 95
2, 117600, Note_off_c, 0, 62, 95
2, 117600, Note_off_c, 0, 57, 95
2, 117600, Note_off_c, 0, 50, 95
2, 117600, Note_on_c, 0, 62, 95
2, 117600, Note_on_c, 0, 57, 95
2, 117600, Note_on_c, 0, 50, 95
2, 117840, Note_off_c, 0, 62, 95
2, 117840, Note_off_c, 0, 57, 95
2, 117840, Note_off_c, 0, 50, 95
2, 117840, Note_on_c, 0, 62, 95
2, 117840, Note_on_c, 0, 57, 95
2, 117840, Note_on_c, 0, 50, 95
2, 118080, Note_off_c, 0, 62, 95
2, 118080, Note_off_c, 0, 57, 95
2, 118080, Note_off_c, 0, 50, 95
2, 118080, Note_on_c, 0, 62, 95
2, 118080, Note_on_c, 0, 57, 95
2, 118080, Note_on_c, 0, 50, 95
2, 118560, Note_off_c, 0, 62, 95
2, 118560, Note_off_c, 0, 57, 95
2, 118560, Note_off_c, 0, 50, 95
2, 118560, Note_on_c, 0, 55, 95
2, 118560, Note_on_c, 0, 50, 95
2, 119040, Note_off_c, 0, 55, 95
2, 119040, Note_off_c, 0, 50, 95
2, 119040, Note_on_c, 0, 57, 95
2, 119040, Note_on_c, 0, 52, 95
2, 119040, Note_on_c, 0, 45, 95
2, 119280, Note_off_c, 0, 57, 95
2, 119280, Note_off_c, 0, 52, 95
2, 119280, Note_off_c, 0, 45, 95
2, 119280, Note_on_c, 0, 57, 95
2, 119280, Note_on_c, 0, 52, 95
2, 119280, Note_on_c, 0, 45, 95
2, 119520, Note_off_c, 0, 57, 95
2, 119520, Note_off_c, 0, 52, 95
2, 119520, Note_off_c, 0, 45, 95
2, 119520, Note_on_c, 0, 57, 95
2, 119520, Note_on_c, 0, 52, 95
2, 119520, Note_on_c, 0, 45, 95
2, 119760, Note_off_c, 0, 57, 95
2, 119760, Note_off_c, 0, 52, 95
2, 119760, Note_off_c, 0, 45, 95
2, 119760, Note_on_c, 0, 57, 95
2, 119760, Note_on_c, 0, 52, 95
2, 119760, Note_on_c, 0, 45, 95
2, 120000, Note_off_c, 0, 57, 95
2, 120000, Note_off_c, 0, 52, 95
2, 120000, Note_off_c, 0, 45, 95
2, 120000, Note_on_c, 0, 57, 95
2, 120000, Note_on_c, 0, 52, 95
2, 120000, Note_on_c, 0, 45, 95
2, 120240, Note_off_c, 0, 57, 95
2, 120240, Note_off_c, 0, 52, 95
2, 120240, Note_off_c, 0, 45, 95
2, 120480, Note_on_c, 0, 55, 95
2, 120480, Note_on_c, 0, 50, 95
2, 120480, Note_on_c, 0, 43, 95
2, 120720, Note_off_c, 0, 55, 95
2, 120720, Note_off_c, 0, 50, 95
2, 120720, Note_off_c, 0, 43, 95
2, 120720, Note_on_c, 0, 55, 95
2, 120720, Note_on_c, 0, 50, 95
2, 120720, Note_on_c, 0, 43, 95
2, 120960, Note_off_c, 0, 55, 95
2, 120960, Note_off_c, 0, 50, 95
2, 120960, Note_off_c, 0, 43, 95
2, 120960, Note_on_c, 0, 55, 95
2, 120960, Note_on_c, 0, 50, 95
2, 120960, Note_on_c, 0, 43, 95
2, 121200, Note_off_c, 0, 55, 95
2, 121200, Note_off_c, 0, 50, 95
2, 121200, Note_off_c, 0, 43, 95
2, 121200, Note_on_c, 0, 57, 95
2, 121200, Note_on_c, 0, 52, 95
2, 121200, Note_on_c, 0, 45, 95
2, 121440, Note_off_c, 0, 57, 95
2, 121440, Note_off_c, 0, 52, 95
2, 121440, Note_off_c, 0, 45, 95
2, 121440, Note_on_c, 0, 57, 95
2, 121440, Note_on_c, 0, 52, 95
2, 121440, Note_on_c, 0, 45, 95
2, 121680, Note_off_c, 0, 57, 95
2, 121680, Note_off_c, 0, 52, 95
2, 121680, Note_off_c, 0, 45, 95
2, 121680, Note_on_c, 0, 57, 95
2, 121680, Note_on_c, 0, 52, 95
2, 121680, Note_on_c, 0, 45, 95
2, 121920, Note_off_c, 0, 57, 95
2, 121920, Note_off_c, 0, 52, 95
2, 121920, Note_off_c, 0, 45, 95
2, 121920, Note_on_c, 0, 57, 95
2, 121920, Note_on_c, 0, 52, 95
2, 121920, Note_on_c, 0, 45, 95
2, 122400, Note_off_c, 0, 57, 95
2, 122400, Note_off_c, 0, 52, 95
2, 122400, Note_off_c, 0, 45, 95
2, 122400, Note_on_c, 1, 55, 95
2, 122400, Note_on_c, 1, 50, 95
2, 122400, Note_on_c, 1, 43, 95
2, 122520, Pitch_bend_c, 1, 7680
2, 122520, Pitch_bend_c, 1, 7680
2, 122520, Pitch_bend_c, 1, 7680
2, 122640, Pitch_bend_c, 1, 7168
2, 122640, Pitch_bend_c, 1, 7168
2, 122640, Pitch_bend_c, 1, 7168
2, 122760, Pitch_bend_c, 1, 6656
2, 122760, Pitch_bend_c, 1, 6656
2, 122760, Pitch_bend_c, 1, 6656
2, 122880, Pitch_bend_c, 1, 6144
2, 122880, Pitch_bend_c, 1, 8192
2, 122880, Note_off_c, 1, 55, 95
2, 122880, Pitch_bend_c, 1, 6144
2, 122880, Pitch_bend_c, 1, 8192
2, 122880, Note_off_c, 1, 50, 95
2, 122880, Pitch_bend_c, 1, 6144
2, 122880, Pitch_bend_c, 1, 8192
2, 122880, Note_off_c, 1, 43, 95
2, 122880, Note_on_c, 0, 52, 95
2, 122880, Note_on_c, 0, 47, 95
2, 122880, Note_on_c, 0, 40, 95
2, 123840, Note_off_c, 0, 52, 95
2, 123840, Note_off_c, 0, 47, 95
2, 123840, Note_off_c, 0, 40, 95
2, 123840, Note_on_c, 0, 52, 95
2, 123840, Note_on_c, 0, 47, 95
2, 123840, Note_on_c, 0, 40, 95
2, 124320, Note_on_c, 0, 55, 95
2, 124370, Note_off_c, 0, 55, 95
2, 124560, Note_on_c, 0, 55, 95
2, 124610, Note_off_c, 0, 55, 95
2, 124800, Note_off_c, 0, 52, 95
2, 124800, Note_off_c, 0, 47, 95
2, 124800, Note_off_c, 0, 40, 95
2, 124800, Note_on_c, 0, 62, 95
2, 124800, Note_on_c, 0, 57, 95
2, 124800, Note_on_c, 0, 50, 95
2, 125040, Note_off_c, 0, 62, 95
2, 125040, Note_off_c, 0, 57, 95
2, 125040, Note_off_c, 0, 50, 95
2, 125040, Note_on_c, 0, 62, 95
2, 125040, Note_on_c, 0, 57, 95
2, 125040, Note_on_c, 0, 50, 95
2, 125280, Note_off_c, 0, 62, 95
2, 125280, Note_off_c, 0, 57, 95
2, 125280, Note_off_c, 0, 50, 95
2, 125280, Note_on_c, 0, 62, 95
2, 125280, Note_on_c, 0, 57, 95
2, 125280, Note_on_c, 0, 50, 95
2, 125520, Note_off_c, 0, 62, 95
2, 125520, Note_off_c, 0, 57, 95
2, 125520, Note_off_c, 0, 50, 95
2, 125520, Note_on_c, 0, 62, 95
2, 125520, Note_on_c, 0, 57, 95
2, 125520, Note_on_c, 0, 50, 95
2, 125760, Note_off_c, 0, 62, 95
2, 125760, Note_off_c, 0, 57, 95
2, 125760, Note_off_c, 0, 50, 95
2, 125760, Note_on_c, 0, 62, 95
2, 125760, Note_on_c, 0, 57, 95
2, 125760, Note_on_c, 0, 50, 95
2, 126240, Note_off_c, 0, 62, 95
2, 126240, Note_off_c, 0, 57, 95
2, 126240, Note_off_c, 0, 50, 95
2, 126240, Note_on_c, 0, 55, 95
2, 126240, Note_on_c, 0, 50, 95
2, 126720, Note_off_c, 0, 55, 95
2, 126720, Note_off_c, 0, 50, 95
2, 126720, Note_on_c, 0, 57, 95
2, 126720, Note_on_c, 0, 52, 95
2, 126720, Note_on_c, 0, 45, 95
2, 126960, Note_off_c, 0, 57, 95
2, 126960, Note_off_c, 0, 52, 95
2, 126960, Note_off_c, 0, 45, 95
2, 126960, Note_on_c, 0, 57, 95
2, 126960, Note_on_c, 0, 52, 95
2, 126960, Note_on_c, 0, 45, 95
2, 127200, Note_off_c, 0, 57, 95
2, 127200, Note_off_c, 0, 52, 95
2, 127200, Note_off_c, 0, 45, 95
2, 127200, Note_on_c, 0, 57, 95
2, 127200, Note_on_c, 0, 52, 95
2, 127200, Note_on_c, 0, 45, 95
2, 127440, Note_off_c, 0, 57, 95
2, 127440, Note_off_c, 0, 52, 95
2, 127440, Note_off_c, 0, 45, 95
2, 127440, Note_on_c, 0, 57, 95
2, 127440, Note_on_c, 0, 52, 95
2, 127440, Note_on_c, 0, 45, 95
2, 127680, Note_off_c, 0, 57, 95
2, 127680, Note_off_c, 0, 52, 95
2, 127680, Note_off_c, 0, 45, 95
2, 127680, Note_on_c, 0, 57, 95
2, 127680, Note_on_c, 0, 52, 95
2, 127680, Note_on_c, 0, 45, 95
2, 127920, Note_off_c, 0, 57, 95
2, 127920, Note_off_c, 0, 52, 95
2, 127920, Note_off_c, 0, 45, 95
2, 128160, Note_on_c, 0, 55, 95
2, 128160, Note_on_c, 0, 50, 95
2, 128160, Note_on_c, 0, 43, 95
2, 128400, Note_off_c, 0, 55, 95
2, 128400, Note_off_c, 0, 50, 95
2, 128400, Note_off_c, 0, 43, 95
2, 128400, Note_on_c, 0, 55, 95
2, 128400, Note_on_c, 0, 50, 95
2, 128400, Note_on_c, 0, 43, 95
2, 128640, Note_off_c, 0, 55, 95
2, 128640, Note_off_c, 0, 50, 95
2, 128640, Note_off_c, 0, 43, 95
2, 128640, Note_on_c, 0, 55, 95
2, 128640, Note_on_c, 0, 50, 95
2, 128640, Note_on_c, 0, 43, 95
2, 128880, Note_off_c, 0, 55, 95
2, 128880, Note_off_c, 0, 50, 95
2, 128880, Note_off_c, 0, 43, 95
2, 128880, Note_on_c, 0, 57, 95
2, 128880, Note_on_c, 0, 52, 95
2, 128880, Note_on_c, 0, 45, 95
2, 129120, Note_off_c, 0, 57, 95
2, 129120, Note_off_c, 0, 52, 95
2, 129120, Note_off_c, 0, 45, 95
2, 129120, Note_on_c, 0, 57, 95
2, 129120, Note_on_c, 0, 52, 95
2, 129120, Note_on_c, 0, 45, 95
2, 129360, Note_off_c, 0, 57, 95
2, 129360, Note_off_c, 0, 52, 95
2, 129360, Note_off_c, 0, 45, 95
2, 129360, Note_on_c, 0, 57, 95
2, 129360, Note_on_c, 0, 52, 95
2, 129360, Note_on_c, 0, 45, 95
2, 129600, Note_off_c, 0, 57, 95
2, 129600, Note_off_c, 0, 52, 95
2, 129600, Note_off_c, 0, 45, 95
2, 129600, Note_on_c, 0, 57, 95
2, 129600, Note_on_c, 0, 52, 95
2, 129600, Note_on_c, 0, 45, 95
2, 130080, Note_off_c, 0, 57, 95
2, 130080, Note_off_c, 0, 52, 95
2, 130080, Note_off_c, 0, 45, 95
2, 130080, Note_on_c, 1, 55, 95
2, 130080, Note_on_c, 1, 50, 95
2, 130080, Note_on_c, 1, 43, 95
2, 130200, Pitch_bend_c, 1, 7680
2, 130200, Pitch_bend_c, 1, 7680
2, 130200, Pitch_bend_c, 1, 7680
2, 130320, Pitch_bend_c, 1, 7168
2, 130320, Pitch_bend_c, 1, 7168
2, 130320, Pitch_bend_c, 1, 7168
2, 130440, Pitch_bend_c, 1, 6656
2, 130440, Pitch_bend_c, 1, 6656
2, 130440, Pitch_bend_c, 1, 6656
2, 130560, Pitch_bend_c, 1, 6144
2, 130560, Pitch_bend_c, 1, 8192
2, 130560, Note_off_c, 1, 55, 95
2, 130560, Pitch_bend_c, 1, 6144
2, 130560, Pitch_bend_c, 1, 8192
2, 130560, Note_off_c, 1, 50, 95
2, 130560, Pitch_bend_c, 1, 6144
2, 130560, Pitch_bend_c, 1, 8192
2, 130560, Note_off_c, 1, 43, 95
2, 130560, Note_on_c, 0, 52, 95
2, 130560, Note_on_c, 0, 47, 95
2, 130560, Note_on_c, 0, 40, 95
2, 131520, Note_off_c, 0, 52, 95
2, 131520, Note_off_c, 0, 47, 95
2, 131520, Note_off_c, 0, 40, 95
2, 131520, Note_on_c, 0, 52, 95
2, 131520, Note_on_c, 0, 47, 95
2, 131520, Note_on_c, 0, 40, 95
2, 132000, Note_on_c, 0, 55, 95
2, 132050, Note_off_c, 0, 55, 95
2, 132240, Note_on_c, 0, 55, 95
2, 132290, Note_off_c, 0, 55, 95
2, 132480, Note_off_c, 0, 52, 95
2, 132480, Note_off_c, 0, 47, 95
2, 132480, Note_off_c, 0, 40, 95
2, 132480, Note_on_c, 0, 62, 95
2, 132480, Note_on_c, 0, 57, 95
2, 132480, Note_on_c, 0, 50, 95
2, 132720, Note_off_c, 0, 62, 95
2, 132720, Note_off_c, 0, 57, 95
2, 132720, Note_off_c, 0, 50, 95
2, 132720, Note_on_c, 0, 62, 95
2, 132720, Note_on_c, 0, 57, 95
2, 132720, Note_on_c, 0, 50, 95
2, 132960, Note_off_c, 0, 62, 95
2, 132960, Note_off_c, 0, 57, 95
2, 132960, Note_off_c, 0, 50, 95
2, 132960, Note_on_c, 0, 62, 95
2, 132960, Note_on_c, 0, 57, 95
2, 132960, Note_on_c, 0, 50, 95
2, 133200, Note_off_c, 0, 62, 95
2, 133200, Note_off_c, 0, 57, 95
2, 133200, Note_off_c, 0, 50, 95
2, 133200, Note_on_c, 0, 62, 95
2, 133200, Note_on_c, 0, 57, 95
2, 133200, Note_on_c, 0, 50, 95
2, 133440, Note_off_c, 0, 62, 95
2, 133440, Note_off_c, 0, 57, 95
2, 133440, Note_off_c, 0, 50, 95
2, 133440, Note_on_c, 0, 62, 95
2, 133440, Note_on_c, 0, 57, 95
2, 133440, Note_on_c, 0, 50, 95
2, 133920, Note_off_c, 0, 62, 95
2, 133920, Note_off_c, 0, 57, 95
2, 133920, Note_off_c, 0, 50, 95
2, 133920, Note_on_c, 0, 55, 95
2, 133920, Note_on_c, 0, 50, 95
2, 134400, Note_off_c, 0, 55, 95
2, 134400, Note_off_c, 0, 50, 95
2, 134400, Note_on_c, 0, 57, 95
2, 134400, Note_on_c, 0, 52, 95
2, 134400, Note_on_c, 0, 45, 95
2, 134640, Note_off_c, 0, 57, 95
2, 134640, Note_off_c, 0, 52, 95
2, 134640, Note_off_c, 0, 45, 95
2, 134640, Note_on_c, 0, 57, 95
2, 134640, Note_on_c, 0, 52, 95
2, 134640, Note_on_c, 0, 45, 95
2, 134880, Note_off_c, 0, 57, 95
2, 134880, Note_off_c, 0, 52, 95
2, 134880, Note_off_c, 0, 45, 95
2, 134880, Note_on_c, 0, 57, 95
2, 134880, Note_on_c, 0, 52, 95
2, 134880, Note_on_c, 0, 45, 95
2, 135120, Note_off_c, 0, 57, 95
2, 135120, Note_off_c, 0, 52, 95
2, 135120, Note_off_c, 0, 45, 95
2, 135120, Note_on_c, 0, 57, 95
2, 135120, Note_on_c, 0, 52, 95
2, 135120, Note_on_c, 0, 45, 95
2, 135360, Note_off_c, 0, 57, 95
2, 135360, Note_off_c, 0, 52, 95
2, 135360, Note_off_c, 0, 45, 95
2, 135360, Note_on_c, 0, 57, 95
2, 135360, Note_on_c, 0, 52, 95
2, 135360, Note_on_c, 0, 45, 95
2, 135600, Note_off_c, 0, 57, 95
2, 135600, Note_off_c, 0, 52, 95
2, 135600, Note_off_c, 0, 45, 95
2, 135840, Note_on_c, 0, 55, 95
2, 135840, Note_on_c, 0, 50, 95
2, 135840, Note_on_c, 0, 43, 95
2, 136080, Note_off_c, 0, 55, 95
2, 136080, Note_off_c, 0, 50, 95
2, 136080, Note_off_c, 0, 43, 95
2, 136080, Note_on_c, 0, 55, 95
2, 136080, Note_on_c, 0, 50, 95
2, 136080, Note_on_c, 0, 43, 95
2, 136320, Note_off_c, 0, 55, 95
2, 136320, Note_off_c, 0, 50, 95
2, 136320, Note_off_c, 0, 43, 95
2, 136320, Note_on_c, 0, 55, 95
2, 136320, Note_on_c, 0, 50, 95
2, 136320, Note_on_c, 0, 43, 95
2, 136560, Note_off_c, 0, 55, 95
2, 136560, Note_off_c, 0, 50, 95
2, 136560, Note_off_c, 0, 43, 95
2, 136560, Note_on_c, 0, 57, 95
2, 136560, Note_on_c, 0, 52, 95
2, 136560, Note_on_c, 0, 45, 95
2, 136800, Note_off_c, 0, 57, 95
2, 136800, Note_off_c, 0, 52, 95
2, 136800, Note_off_c, 0, 45, 95
2, 136800, Note_on_c, 0, 57, 95
2, 136800, Note_on_c, 0, 52, 95
2, 136800, Note_on_c, 0, 45, 95
2, 137040, Note_off_c, 0, 57, 95
2, 137040, Note_off_c, 0, 52, 95
2, 137040, Note_off_c, 0, 45, 95
2, 137040, Note_on_c, 0, 57, 95
2, 137040, Note_on_c, 0, 52, 95
2, 137040, Note_on_c, 0, 45, 95
2, 137280, Note_off_c, 0, 57, 95
2, 137280, Note_off_c, 0, 52, 95
2, 137280, Note_off_c, 0, 45, 95
2, 137280, Note_on_c, 0, 57, 95
2, 137280, Note_on_c, 0, 52, 95
2, 137280, Note_on_c, 0, 45, 95
2, 137760, Note_off_c, 0, 57, 95
2, 137760, Note_off_c, 0, 52, 95
2, 137760, Note_off_c, 0, 45, 95
2, 137760, Note_on_c, 1, 55, 95
2, 137760, Note_on_c, 1, 50, 95
2, 137760, Note_on_c, 1, 43, 95
2, 138240, Note_off_c, 1, 55, 95
2, 138240, Note_off_c, 1, 50, 95
2, 138240, Note_off_c, 1, 43, 95
2, 168960, Note_on_c, 0, 52, 95
2, 168960, Note_on_c, 0, 47, 95
2, 168960, Note_on_c, 0, 40, 95
2, 169920, Note_off_c, 0, 52, 95
2, 169920, Note_off_c, 0, 47, 95
2, 169920, Note_off_c, 0, 40, 95
2, 169920, Note_on_c, 0, 52, 95
2, 169920, Note_on_c, 0, 47, 95
2, 169920, Note_on_c, 0, 40, 95
2, 170400, Note_on_c, 0, 55, 95
2, 170450, Note_off_c, 0, 55, 95
2, 170640, Note_on_c, 0, 55, 95
2, 170690, Note_off_c, 0, 55, 95
2, 170880, Note_off_c, 0, 52, 95
2, 170880, Note_off_c, 0, 47, 95
2, 170880, Note_off_c, 0, 40, 95
2, 170880, Note_on_c, 0, 62, 95
2, 170880, Note_on_c, 0, 57, 95
2, 170880, Note_on_c, 0, 50, 95
2, 171120, Note_off_c, 0, 62, 95
2, 171120, Note_off_c, 0, 57, 95
2, 171120, Note_off_c, 0, 50, 95
2, 171120, Note_on_c, 0, 62, 95
2, 171120, Note_on_c, 0, 57, 95
2, 171120, Note_on_c, 0, 50, 95
2, 171360, Note_off_c, 0, 62, 95
2, 171360, Note_off_c, 0, 57, 95
2, 171360, Note_off_c, 0, 50, 95
2, 171360, Note_on_c, 0, 62, 95
2, 171360, Note_on_c, 0, 57, 95
2, 171360, Note_on_c, 0, 50, 95
2, 171600, Note_off_c, 0, 62, 95
2, 171600, Note_off_c, 0, 57, 95
2, 171600, Note_off_c, 0, 50, 95
2, 171600, Note_on_c, 0, 62, 95
2, 171600, Note_on_c, 0, 57, 95
2, 171600, Note_on_c, 0, 50, 95
2, 171840, Note_off_c, 0, 62, 95
2, 171840, Note_off_c, 0, 57, 95
2, 171840, Note_off_c, 0, 50, 95
2, 171840, Note_on_c, 0, 62, 95
2, 171840, Note_on_c, 0, 57, 95
2, 171840, Note_on_c, 0, 50, 95
2, 172320, Note_off_c, 0, 62, 95
2, 172320, Note_off_c, 0, 57, 95
2, 172320, Note_off_c, 0, 50, 95
2, 172320, Note_on_c, 0, 55, 95
2, 172320, Note_on_c, 0, 50, 95
2, 172800, Note_off_c, 0, 55, 95
2, 172800, Note_off_c, 0, 50, 95
2, 172800, Note_on_c, 0, 57, 95
2, 172800, Note_on_c, 0, 52, 95
2, 172800, Note_on_c, 0, 45, 95
2, 173040, Note_off_c, 0, 57, 95
2, 173040, Note_off_c, 0, 52, 95
2, 173040, Note_off_c, 0, 45, 95
2, 173040, Note_on_c, 0, 57, 95
2, 173040, Note_on_c, 0, 52, 95
2, 173040, Note_on_c, 0, 45, 95
2, 173280, Note_off_c, 0, 57, 95
2, 173280, Note_off_c, 0, 52, 95
2, 173280, Note_off_c, 0, 45, 95
2, 173280, Note_on_c, 0, 57, 95
2, 173280, Note_on_c, 0, 52, 95
2, 173280, Note_on_c, 0, 45, 95
2, 173520, Note_off_c, 0, 57, 95
2, 173520, Note_off_c, 0, 52, 95
2, 173520, Note_off_c, 0, 45, 95
2, 173520, Note_on_c, 0, 57, 95
2, 173520, Note_on_c, 0, 52, 95
2, 173520, Note_on_c, 0, 45, 95
2, 173760, Note_off_c, 0, 57, 95
2, 173760, Note_off_c, 0, 52, 95
2, 173760, Note_off_c, 0, 45, 95
2, 173760, Note_on_c, 0, 57, 95
2, 173760, Note_on_c, 0, 52, 95
2, 173760, Note_on_c, 0, 45, 95
2, 174000, Note_off_c, 0, 57, 95
2, 174000, Note_off_c, 0, 52, 95
2, 174000, Note_off_c, 0, 45, 95
2, 174240, Note_on_c, 0, 55, 95
2, 174240, Note_on_c, 0, 50, 95
2, 174240, Note_on_c, 0, 43, 95
2, 174480, Note_off_c, 0, 55, 95
2, 174480, Note_off_c, 0, 50, 95
2, 174480, Note_off_c, 0, 43, 95
2, 174480, Note_on_c, 0, 55, 95
2, 174480, Note_on_c, 0, 50, 95
2, 174480, Note_on_c, 0, 43, 95
2, 174720, Note_off_c, 0, 55, 95
2, 174720, Note_off_c, 0, 50, 95
2, 174720, Note_off_c, 0, 43, 95
2, 174720, Note_on_c, 0, 55, 95
2, 174720, Note_on_c, 0, 50, 95
2, 174720, Note_on_c, 0, 43, 95
2, 174960, Note_off_c, 0, 55, 95
2, 174960, Note_off_c, 0, 50, 95
2, 174960, Note_off_c, 0, 43, 95
2, 174960, Note_on_c, 0, 57, 95
2, 174960, Note_on_c, 0, 52, 95
2, 174960, Note_on_c, 0, 45, 95
2, 175200, Note_off_c, 0, 57, 95
2, 175200, Note_off_c, 0, 52, 95
2, 175200, Note_off_c, 0, 45, 95
2, 175200, Note_on_c, 0, 57, 95
2, 175200, Note_on_c, 0, 52, 95
2, 175200, Note_on_c, 0, 45, 95
2, 175440, Note_off_c, 0, 57, 95
2, 175440, Note_off_c, 0, 52, 95
2, 175440, Note_off_c, 0, 45, 95
2, 175440, Note_on_c, 0, 57, 95
2, 175440, Note_on_c, 0, 52, 95
2, 175440, Note_on_c, 0, 45, 95
2, 175680, Note_off_c, 0, 57, 95
2, 175680, Note_off_c, 0, 52, 95
2, 175680, Note_off_c, 0, 45, 95
2, 175680, Note_on_c, 0, 57, 95
2, 175680, Note_on_c, 0, 52, 95
2, 175680, Note_on_c, 0, 45, 95
2, 176160, Note_off_c, 0, 57, 95
2, 176160, Note_off_c, 0, 52, 95
2, 176160, Note_off_c, 0, 45, 95
2, 176160, Note_on_c, 1, 55, 95
2, 176160, Note_on_c, 1, 50, 95
2, 176160, Note_on_c, 1, 43, 95
2, 176280, Pitch_bend_c, 1, 7680
2, 176280, Pitch_bend_c, 1, 7680
2, 176280, Pitch_bend_c, 1, 7680
2, 176400, Pitch_bend_c, 1, 7168
2, 176400, Pitch_bend_c, 1, 7168
2, 176400, Pitch_bend_c, 1, 7168
2, 176520, Pitch_bend_c, 1, 6656
2, 176520, Pitch_bend_c, 1, 6656
2, 176520, Pitch_bend_c, 1, 6656
2, 176640, Pitch_bend_c, 1, 6144
2, 176640, Pitch_bend_c, 1, 8192
2, 176640, Note_off_c, 1, 55, 95
2, 176640, Pitch_bend_c, 1, 6144
2, 176640, Pitch_bend_c, 1, 8192
2, 176640, Note_off_c, 1, 50, 95
2, 176640, Pitch_bend_c, 1, 6144
2, 176640, Pitch_bend_c, 1, 8192
2, 176640, Note_off_c, 1, 43, 95
2, 176640, Note_on_c, 0, 52, 95
2, 176640, Note_on_c, 0, 47, 95
2, 176640, Note_on_c, 0, 40, 95
2, 177600, Note_off_c, 0, 52, 95
2, 177600, Note_off_c, 0, 47, 95
2, 177600, Note_off_c, 0, 40, 95
2, 177600, Note_on_c, 0, 52, 95
2, 177600, Note_on_c, 0, 47, 95
2, 177600, Note_on_c, 0, 40, 95
2, 178080, Note_on_c, 0, 55, 95
2, 178130, Note_off_c, 0, 55, 95
2, 178320, Note_on_c, 0, 55, 95
2, 178370, Note_off_c, 0, 55, 95
2, 178560, Note_off_c, 0, 52, 95
2, 178560, Note_off_c, 0, 47, 95
2, 178560, Note_off_c, 0, 40, 95
2, 178560, Note_on_c, 0, 62, 95
2, 178560, Note_on_c, 0, 57, 95
2, 178560, Note_on_c, 0, 50, 95
2, 178800, Note_off_c, 0, 62, 95
2, 178800, Note_off_c, 0, 57, 95
2, 178800, Note_off_c, 0, 50, 95
2, 178800, Note_on_c, 0, 62, 95
2, 178800, Note_on_c, 0, 57, 95
2, 178800, Note_on_c, 0, 50, 95
2, 179040, Note_off_c, 0, 62, 95
2, 179040, Note_off_c, 0, 57, 95
2, 179040, Note_off_c, 0, 50, 95
2, 179040, Note_on_c, 0, 62, 95
2, 179040, Note_on_c, 0, 57, 95
2, 179040, Note_on_c, 0, 50, 95
2, 179280, Note_off_c, 0, 62, 95
2, 179280, Note_off_c, 0, 57, 95
2, 179280, Note_off_c, 0, 50, 95
2, 179280, Note_on_c, 0, 62, 95
2, 179280, Note_on_c, 0, 57, 95
2, 179280, Note_on_c, 0, 50, 95
2, 179520, Note_off_c, 0, 62, 95
2, 179520, Note_off_c, 0, 57, 95
2, 179520, Note_off_c, 0, 50, 95
2, 179520, Note_on_c, 0, 62, 95
2, 179520, Note_on_c, 0, 57, 95
2, 179520, Note_on_c, 0, 50, 95
2, 180000, Note_off_c, 0, 62, 95
2, 180000, Note_off_c, 0, 57, 95
2, 180000, Note_off_c, 0, 50, 95
2, 180000, Note_on_c, 0, 55, 95
2, 180000, Note_on_c, 0, 50, 95
2, 180480, Note_off_c, 0, 55, 95
2, 180480, Note_off_c, 0, 50, 95
2, 180480, Note_on_c, 0, 57, 95
2, 180480, Note_on_c, 0, 52, 95
2, 180480, Note_on_c, 0, 45, 95
2, 180720, Note_off_c, 0, 57, 95
2, 180720, Note_off_c, 0, 52, 95
2, 180720, Note_off_c, 0, 45, 95
2, 180720, Note_on_c, 0, 57, 95
2, 180720, Note_on_c, 0, 52, 95
2, 180720, Note_on_c, 0, 45, 95
2, 180960, Note_off_c, 0, 57, 95
2, 180960, Note_off_c, 0, 52, 95
2, 180960, Note_off_c, 0, 45, 95
2, 180960, Note_on_c, 0, 57, 95
2, 180960, Note_on_c, 0, 52, 95
2, 180960, Note_on_c, 0, 45, 95
2, 181200, Note_off_c, 0, 57, 95
2, 181200, Note_off_c, 0, 52, 95
2, 181200, Note_off_c, 0, 45, 95
2, 181200, Note_on_c, 0, 57, 95
2, 181200, Note_on_c, 0, 52, 95
2, 181200, Note_on_c, 0, 45, 95
2, 181440, Note_off_c, 0, 57, 95
2, 181440, Note_off_c, 0, 52, 95
2, 181440, Note_off_c, 0, 45, 95
2, 181440, Note_on_c, 0, 57, 95
2, 181440, Note_on_c, 0, 52, 95
2, 181440, Note_on_c, 0, 45, 95
2, 181680, Note_off_c, 0, 57, 95
2, 181680, Note_off_c, 0, 52, 95
2, 181680, Note_off_c, 0, 45, 95
2, 181920, Note_on_c, 0, 55, 95
2, 181920, Note_on_c, 0, 50, 95
2, 181920, Note_on_c, 0, 43, 95
2, 182160, Note_off_c, 0, 55, 95
2, 182160, Note_off_c, 0, 50, 95
2, 182160, Note_off_c, 0, 43, 95
2, 182160, Note_on_c, 0, 55, 95
2, 182160, Note_on_c, 0, 50, 95
2, 182160, Note_on_c, 0, 43, 95
2, 182400, Note_off_c, 0, 55, 95
2, 182400, Note_off_c, 0, 50, 95
2, 182400, Note_off_c, 0, 43, 95
2, 182400, Note_on_c, 0, 55, 95
2, 182400, Note_on_c, 0, 50, 95
2, 182400, Note_on_c, 0, 43, 95
2, 182640, Note_off_c, 0, 55, 95
2, 182640, Note_off_c, 0, 50, 95
2, 182640, Note_off_c, 0, 43, 95
2, 182640, Note_on_c, 0, 57, 95
2, 182640, Note_on_c, 0, 52, 95
2, 182640, Note_on_c, 0, 45, 95
2, 182880, Note_off_c, 0, 57, 95
2, 182880, Note_off_c, 0, 52, 95
2, 182880, Note_off_c, 0, 45, 95
2, 182880, Note_on_c, 0, 57, 95
2, 182880, Note_on_c, 0, 52, 95
2, 182880, Note_on_c, 0, 45, 95
2, 183120, Note_off_c, 0, 57, 95
2, 183120, Note_off_c, 0, 52, 95
2, 183120, Note_off_c, 0, 45, 95
2, 183120, Note_on_c, 0, 57, 95
2, 183120, Note_on_c, 0, 52, 95
2, 183120, Note_on_c, 0, 45, 95
2, 183360, Note_off_c, 0, 57, 95
2, 183360, Note_off_c, 0, 52, 95
2, 183360, Note_off_c, 0, 45, 95
2, 183360, Note_on_c, 0, 57, 95
2, 183360, Note_on_c, 0, 52, 95
2, 183360, Note_on_c, 0, 45, 95
2, 183840, Note_off_c, 0, 57, 95
2, 183840, Note_off_c, 0, 52, 95
2, 183840, Note_off_c, 0, 45, 95
2, 183840, Note_on_c, 1, 55, 95
2, 183840, Note_on_c, 1, 50, 95
2, 183840, Note_on_c, 1, 43, 95
2, 183960, Pitch_bend_c, 1, 7680
2, 183960, Pitch_bend_c, 1, 7680
2, 183960, Pitch_bend_c, 1, 7680
2, 184080, Pitch_bend_c, 1, 7168
2, 184080, Pitch_bend_c, 1, 7168
2, 184080, Pitch_bend_c, 1, 7168
2, 184200, Pitch_bend_c, 1, 6656
2, 184200, Pitch_bend_c, 1, 6656
2, 184200, Pitch_bend_c, 1, 6656
2, 184320, Pitch_bend_c, 1, 6144
2, 184320, Pitch_bend_c, 1, 8192
2, 184320, Note_off_c, 1, 55, 95
2, 184320, Pitch_bend_c, 1, 6144
2, 184320, Pitch_bend_c, 1, 8192
2, 184320, Note_off_c, 1, 50, 95
2, 184320, Pitch_bend_c, 1, 6144
2, 184320, Pitch_bend_c, 1, 8192
2, 184320, Note_off_c, 1, 43, 95
2, 184320, Note_on_c, 0, 52, 95
2, 184320, Note_on_c, 0, 47, 95
2, 184320, Note_on_c, 0, 40, 95
2, 185280, Note_off_c, 0, 52, 95
2, 185280, Note_off_c, 0, 47, 95
2, 185280, Note_off_c, 0, 40, 95
2, 185280, Note_on_c, 0, 52, 95
2, 185280, Note_on_c, 0, 47, 95
2, 185280, Note_on_c, 0, 40, 95
2, 185760, Note_on_c, 0, 55, 95
2, 185810, Note_off_c, 0, 55, 95
2, 186000, Note_on_c, 0, 55, 95
2, 186050, Note_off_c, 0, 55, 95
2, 186240, Note_off_c, 0, 52, 95
2, 186240, Note_off_c, 0, 47, 95
2, 186240, Note_off_c, 0, 40, 95
2, 186240, Note_on_c, 0, 62, 95
2, 186240, Note_on_c, 0, 57, 95
2, 186240, Note_on_c, 0, 50, 95
2, 186480, Note_off_c, 0, 62, 95
2, 186480, Note_off_c, 0, 57, 95
2, 186480, Note_off_c, 0, 50, 95
2, 186480, Note_on_c, 0, 62, 95
2, 186480, Note_on_c, 0, 57, 95
2, 186480, Note_on_c, 0, 50, 95
2, 186720, Note_off_c, 0, 62, 95
2, 186720, Note_off_c, 0, 57, 95
2, 186720, Note_off_c, 0, 50, 95
2, 186720, Note_on_c, 0, 62, 95
2, 186720, Note_on_c, 0, 57, 95
2, 186720, Note_on_c, 0, 50, 95
2, 186960, Note_off_c, 0, 62, 95
2, 186960, Note_off_c, 0, 57, 95
2, 186960, Note_off_c, 0, 50, 95
2, 186960, Note_on_c, 0, 62, 95
2, 186960, Note_on_c, 0, 57, 95
2, 186960, Note_on_c, 0, 50, 95
2, 187200, Note_off_c, 0, 62, 95
2, 187200, Note_off_c, 0, 57, 95
2, 187200, Note_off_c, 0, 50, 95
2, 187200, Note_on_c, 0, 62, 95
2, 187200, Note_on_c, 0, 57, 95
2, 187200, Note_on_c, 0, 50, 95
2, 187680, Note_off_c, 0, 62, 95
2, 187680, Note_off_c, 0, 57, 95
2, 187680, Note_off_c, 0, 50, 95
2, 187680, Note_on_c, 0, 55, 95
2, 187680, Note_on_c, 0, 50, 95
2, 188160, Note_off_c, 0, 55, 95
2, 188160, Note_off_c, 0, 50, 95
2, 188160, Note_on_c, 0, 57, 95
2, 188160, Note_on_c, 0, 52, 95
2, 188160, Note_on_c, 0, 45, 95
2, 188400, Note_off_c, 0, 57, 95
2, 188400, Note_off_c, 0, 52, 95
2, 188400, Note_off_c, 0, 45, 95
2, 188400, Note_on_c, 0, 57, 95
2, 188400, Note_on_c, 0, 52, 95
2, 188400, Note_on_c, 0, 45, 95
2, 188640, Note_off_c, 0, 57, 95
2, 188640, Note_off_c, 0, 52, 95
2, 188640, Note_off_c, 0, 45, 95
2, 188640, Note_on_c, 0, 57, 95
2, 188640, Note_on_c, 0, 52, 95
2, 188640, Note_on_c, 0, 45, 95
2, 188880, Note_off_c, 0, 57, 95
2, 188880, Note_off_c, 0, 52, 95
2, 188880, Note_off_c, 0, 45, 95
2, 188880, Note_on_c, 0, 57, 95
2, 188880, Note_on_c, 0, 52, 95
2, 188880, Note_on_c, 0, 45, 95
2, 189120, Note_off_c, 0, 57, 95
2, 189120, Note_off_c, 0, 52, 95
2, 189120, Note_off_c, 0, 45, 95
2, 189120, Note_on_c, 0, 57, 95
2, 189120, Note_on_c, 0, 52, 95
2, 189120, Note_on_c, 0, 45, 95
2, 189360, Note_off_c, 0, 57, 95
2, 189360, Note_off_c, 0, 52, 95
2, 189360, Note_off_c, 0, 45, 95
2, 189600, Note_on_c, 0, 55, 95
2, 189600, Note_on_c, 0, 50, 95
2, 189600, Note_on_c, 0, 43, 95
2, 189840, Note_off_c, 0, 55, 95
2, 189840, Note_off_c, 0, 50, 95
2, 189840, Note_off_c, 0, 43, 95
2, 189840, Note_on_c, 0, 55, 95
2, 189840, Note_on_c, 0, 50, 95
2, 189840, Note_on_c, 0, 43, 95
2, 190080, Note_off_c, 0, 55, 95
2, 190080, Note_off_c, 0, 50, 95
2, 190080, Note_off_c, 0, 43, 95
2, 190080, Note_on_c, 0, 55, 95
2, 190080, Note_on_c, 0, 50, 95
2, 190080, Note_on_c, 0, 43, 95
2, 190320, Note_off_c, 0, 55, 95
2, 190320, Note_off_c, 0, 50, 95
2, 190320, Note_off_c, 0, 43, 95
2, 190320, Note_on_c, 0, 57, 95
2, 190320, Note_on_c, 0, 52, 95
2, 190320, Note_on_c, 0, 45, 95
2, 190560, Note_off_c, 0, 57, 95
2, 190560, Note_off_c, 0, 52, 95
2, 190560, Note_off_c, 0, 45, 95
2, 190560, Note_on_c, 0, 57, 95
2, 190560, Note_on_c, 0, 52, 95
2, 190560, Note_on_c, 0, 45, 95
2, 190800, Note_off_c, 0, 57, 95
2, 190800, Note_off_c, 0, 52, 95
2, 190800, Note_off_c, 0, 45, 95
2, 190800, Note_on_c, 0, 57, 95
2, 190800, Note_on_c, 0, 52, 95
2, 190800, Note_on_c, 0, 45, 95
2, 191040, Note_off_c, 0, 57, 95
2, 191040, Note_off_c, 0, 52, 95
2, 191040, Note_off_c, 0, 45, 95
2, 191040, Note_on_c, 0, 57, 95
2, 191040, Note_on_c, 0, 52, 95
2, 191040, Note_on_c, 0, 45, 95
2, 191520, Note_off_c, 0, 57, 95
2, 191520, Note_off_c, 0, 52, 95
2, 191520, Note_off_c, 0, 45, 95
2, 191520, Note_on_c, 0, 55, 95
2, 191520, Note_on_c, 0, 50, 95
2, 191520, Note_on_c, 0, 43, 95
2, 192000, Note_off_c, 0, 55, 95
2, 192000, Note_off_c, 0, 50, 95
2, 192000, Note_off_c, 0, 43, 95
2, 195840, Note_on_c, 0, 57, 95
2, 195840, Note_on_c, 0, 52, 95
2, 195840, Note_on_c, 0, 45, 95
2, 196080, Note_off_c, 0, 57, 95
2, 196080, Note_off_c, 0, 52, 95
2, 196080, Note_off_c, 0, 45, 95
2, 196080, Note_on_c, 0, 57, 95
2, 196080, Note_on_c, 0, 52, 95
2, 196080, Note_on_c, 0, 45, 95
2, 196320, Note_off_c, 0, 57, 95
2, 196320, Note_off_c, 0, 52, 95
2, 196320, Note_off_c, 0, 45, 95
2, 196320, Note_on_c, 0, 57, 95
2, 196320, Note_on_c, 0, 52, 95
2, 196320, Note_on_c, 0, 45, 95
2, 196560, Note_off_c, 0, 57, 95
2, 196560, Note_off_c, 0, 52, 95
2, 196560, Note_off_c, 0, 45, 95
2, 196560, Note_on_c, 0, 57, 95
2, 196560, Note_on_c, 0, 52, 95
2, 196560, Note_on_c, 0, 45, 95
2, 196800, Note_off_c, 0, 57, 95
2, 196800, Note_off_c, 0, 52, 95
2, 196800, Note_off_c, 0, 45, 95
2, 196800, Note_on_c, 0, 57, 95
2, 196800, Note_on_c, 0, 52, 95
2, 196800, Note_on_c, 0, 45, 95
2, 197040, Note_off_c, 0, 57, 95
2, 197040, Note_off_c, 0, 52, 95
2, 197040, Note_off_c, 0, 45, 95
2, 197280, Note_on_c, 0, 55, 95
2, 197280, Note_on_c, 0, 50, 95
2, 197280, Note_on_c, 0, 43, 95
2, 197520, Note_off_c, 0, 55, 95
2, 197520, Note_off_c, 0, 50, 95
2, 197520, Note_off_c, 0, 43, 95
2, 197520, Note_on_c, 0, 55, 95
2, 197520, Note_on_c, 0, 50, 95
2, 197520, Note_on_c, 0, 43, 95
2, 197760, Note_off_c, 0, 55, 95
2, 197760, Note_off_c, 0, 50, 95
2, 197760, Note_off_c, 0, 43, 95
2, 197760, Note_on_c, 0, 55, 95
2, 197760, Note_on_c, 0, 50, 95
2, 197760, Note_on_c, 0, 43, 95
2, 198000, Note_off_c, 0, 55, 95
2, 198000, Note_off_c, 0, 50, 95
2, 198000, Note_off_c, 0, 43, 95
2, 198000, Note_on_c, 0, 57, 95
2, 198000, Note_on_c, 0, 52, 95
2, 198000, Note_on_c, 0, 45, 95
2, 198240, Note_off_c, 0, 57, 95
2, 198240, Note_off_c, 0, 52, 95
2, 198240, Note_off_c, 0, 45, 95
2, 198240, Note_on_c, 0, 57, 95
2, 198240, Note_on_c, 0, 52, 95
2, 198240, Note_on_c, 0, 45, 95
2, 198480, Note_off_c, 0, 57, 95
2, 198480, Note_off_c, 0, 52, 95
2, 198480, Note_off_c, 0, 45, 95
2, 198480, Note_on_c, 0, 57, 95
2, 198480, Note_on_c, 0, 52, 95
2, 198480, Note_on_c, 0, 45, 95
2, 198720, Note_off_c, 0, 57, 95
2, 198720, Note_off_c, 0, 52, 95
2, 198720, Note_off_c, 0, 45, 95
2, 198720, Note_on_c, 0, 57, 95
2, 198720, Note_on_c, 0, 52, 95
2, 198720, Note_on_c, 0, 45, 95
2, 199200, Note_off_c, 0, 57, 95
2, 199200, Note_off_c, 0, 52, 95
2, 199200, Note_off_c, 0, 45, 95
2, 199200, Note_on_c, 1, 55, 95
2, 199200, Note_on_c, 1, 50, 95
2, 199200, Note_on_c, 1, 43, 95
2, 199320, Pitch_bend_c, 1, 7680
2, 199320, Pitch_bend_c, 1, 7680
2, 199320, Pitch_bend_c, 1, 7680
2, 199440, Pitch_bend_c, 1, 7168
2, 199440, Pitch_bend_c, 1, 7168
2, 199440, Pitch_bend_c, 1, 7168
2, 199560, Pitch_bend_c, 1, 6656
2, 199560, Pitch_bend_c, 1, 6656
2, 199560, Pitch_bend_c, 1, 6656
2, 199680, Pitch_bend_c, 1, 6144
2, 199680, Pitch_bend_c, 1, 8192
2, 199680, Note_off_c, 1, 55, 95
2, 199680, Pitch_bend_c, 1, 6144
2, 199680, Pitch_bend_c, 1, 8192
2, 199680, Note_off_c, 1, 50, 95
2, 199680, Pitch_bend_c, 1, 6144
2, 199680, Pitch_bend_c, 1, 8192
2, 199680, Note_off_c, 1, 43, 95
2, 199680, Note_on_c, 0, 52, 95
2, 199680, Note_on_c, 0, 47, 95
2, 199680, Note_on_c, 0, 40, 95
2, 200640, Note_off_c, 0, 52, 95
2, 200640, Note_off_c, 0, 47, 95
2, 200640, Note_off_c, 0, 40, 95
2, 200640, Note_on_c, 0, 52, 95
2, 200640, Note_on_c, 0, 47, 95
2, 200640, Note_on_c, 0, 40, 95
2, 201120, Note_on_c, 0, 55, 95
2, 201170, Note_off_c, 0, 55, 95
2, 201360, Note_on_c, 0, 55, 95
2, 201410, Note_off_c, 0, 55, 95
2, 201600, Note_off_c, 0, 52, 95
2, 201600, Note_off_c, 0, 47, 95
2, 201600, Note_off_c, 0, 40, 95
2, 201600, Note_on_c, 0, 62, 95
2, 201600, Note_on_c, 0, 57, 95
2, 201600, Note_on_c, 0, 50, 95
2, 201840, Note_off_c, 0, 62, 95
2, 201840, Note_off_c, 0, 57, 95
2, 201840, Note_off_c, 0, 50, 95
2, 201840, Note_on_c, 0, 62, 95
2, 201840, Note_on_c, 0, 57, 95
2, 201840, Note_on_c, 0, 50, 95
2, 202080, Note_off_c, 0, 62, 95
2, 202080, Note_off_c, 0, 57, 95
2, 202080, Note_off_c, 0, 50, 95
2, 202080, Note_on_c, 0, 62, 95
2, 202080, Note_on_c, 0, 57, 95
2, 202080, Note_on_c, 0, 50, 95
2, 202320, Note_off_c, 0, 62, 95
2, 202320, Note_off_c, 0, 57, 95
2, 202320, Note_off_c, 0, 50, 95
2, 202320, Note_on_c, 0, 62, 95
2, 202320, Note_on_c, 0, 57, 95
2, 202320, Note_on_c, 0, 50, 95
2, 202560, Note_off_c, 0, 62, 95
2, 202560, Note_off_c, 0, 57, 95
2, 202560, Note_off_c, 0, 50, 95
2, 202560, Note_on_c, 0, 62, 95
2, 202560, Note_on_c, 0, 57, 95
2, 202560, Note_on_c, 0, 50, 95
2, 203040, Note_off_c, 0, 62, 95
2, 203040, Note_off_c, 0, 57, 95
2, 203040, Note_off_c, 0, 50, 95
2, 203040, Note_on_c, 0, 55, 95
2, 203040, Note_on_c, 0, 50, 95
2, 203520, Note_off_c, 0, 55, 95
2, 203520, Note_off_c, 0, 50, 95
2, 203520, Note_on_c, 0, 57, 95
2, 203520, Note_on_c, 0, 52, 95
2, 203520, Note_on_c, 0, 45, 95
2, 203760, Note_off_c, 0, 57, 95
2, 203760, Note_off_c, 0, 52, 95
2, 203760, Note_off_c, 0, 45, 95
2, 203760, Note_on_c, 0, 57, 95
2, 203760, Note_on_c, 0, 52, 95
2, 203760, Note_on_c, 0, 45, 95
2, 204000, Note_off_c, 0, 57, 95
2, 204000, Note_off_c, 0, 52, 95
2, 204000, Note_off_c, 0, 45, 95
2, 204000, Note_on_c, 0, 57, 95
2, 204000, Note_on_c, 0, 52, 95
2, 204000, Note_on_c, 0, 45, 95
2, 204240, Note_off_c, 0, 57, 95
2, 204240, Note_off_c, 0, 52, 95
2, 204240, Note_off_c, 0, 45, 95
2, 204240, Note_on_c, 0, 57, 95
2, 204240, Note_on_c, 0, 52, 95
2, 204240, Note_on_c, 0, 45, 95
2, 204480, Note_off_c, 0, 57, 95
2, 204480, Note_off_c, 0, 52, 95
2, 204480, Note_off_c, 0, 45, 95
2, 204480, Note_on_c, 0, 57, 95
2, 204480, Note_on_c, 0, 52, 95
2, 204480, Note_on_c, 0, 45, 95
2, 204720, Note_off_c, 0, 57, 95
2, 204720, Note_off_c, 0, 52, 95
2, 204720, Note_off_c, 0, 45, 95
2, 204960, Note_on_c, 0, 55, 95
2, 204960, Note_on_c, 0, 50, 95
2, 204960, Note_on_c, 0, 43, 95
2, 205200, Note_off_c, 0, 55, 95
2, 205200, Note_off_c, 0, 50, 95
2, 205200, Note_off_c, 0, 43, 95
2, 205200, Note_on_c, 0, 55, 95
2, 205200, Note_on_c, 0, 50, 95
2, 205200, Note_on_c, 0, 43, 95
2, 205440, Note_off_c, 0, 55, 95
2, 205440, Note_off_c, 0, 50, 95
2, 205440, Note_off_c, 0, 43, 95
2, 205440, Note_on_c, 0, 55, 95
2, 205440, Note_on_c, 0, 50, 95
2, 205440, Note_on_c, 0, 43, 95
2, 205680, Note_off_c, 0, 55, 95
2, 205680, Note_off_c, 0, 50, 95
2, 205680, Note_off_c, 0, 43, 95
2, 205680, Note_on_c, 0, 57, 95
2, 205680, Note_on_c, 0, 52, 95
2, 205680, Note_on_c, 0, 45, 95
2, 205920, Note_off_c, 0, 57, 95
2, 205920, Note_off_c, 0, 52, 95
2, 205920, Note_off_c, 0, 45, 95
2, 205920, Note_on_c, 0, 57, 95
2, 205920, Note_on_c, 0, 52, 95
2, 205920, Note_on_c, 0, 45, 95
2, 206160, Note_off_c, 0, 57, 95
2, 206160, Note_off_c, 0, 52, 95
2, 206160, Note_off_c, 0, 45, 95
2, 206160, Note_on_c, 0, 57, 95
2, 206160, Note_on_c, 0, 52, 95
2, 206160, Note_on_c, 0, 45, 95
2, 206400, Note_off_c, 0, 57, 95
2, 206400, Note_off_c, 0, 52, 95
2, 206400, Note_off_c, 0, 45, 95
2, 206400, Note_on_c, 0, 57, 95
2, 206400, Note_on_c, 0, 52, 95
2, 206400, Note_on_c, 0, 45, 95
2, 206880, Note_off_c, 0, 57, 95
2, 206880, Note_off_c, 0, 52, 95
2, 206880, Note_off_c, 0, 45, 95
2, 206880, Note_on_c, 1, 55, 95
2, 206880, Note_on_c, 1, 50, 95
2, 206880, Note_on_c, 1, 43, 95
2, 207000, Pitch_bend_c, 1, 7680
2, 207000, Pitch_bend_c, 1, 7680
2, 207000, Pitch_bend_c, 1, 7680
2, 207120, Pitch_bend_c, 1, 7168
2, 207120, Pitch_bend_c, 1, 7168
2, 207120, Pitch_bend_c, 1, 7168
2, 207240, Pitch_bend_c, 1, 6656
2, 207240, Pitch_bend_c, 1, 6656
2, 207240, Pitch_bend_c, 1, 6656
2, 207360, Pitch_bend_c, 1, 6144
2, 207360, Pitch_bend_c, 1, 8192
2, 207360, Note_off_c, 1, 55, 95
2, 207360, Pitch_bend_c, 1, 6144
2, 207360, Pitch_bend_c, 1, 8192
2, 207360, Note_off_c, 1, 50, 95
2, 207360, Pitch_bend_c, 1, 6144
2, 207360, Pitch_bend_c, 1, 8192
2, 207360, Note_off_c, 1, 43, 95
2, 207360, Note_on_c, 0, 52, 95
2, 207360, Note_on_c, 0, 47, 95
2, 207360, Note_on_c, 0, 40, 95
2, 208320, Note_off_c, 0, 52, 95
2, 208320, Note_off_c, 0, 47, 95
2, 208320, Note_off_c, 0, 40, 95
2, 208320, Note_on_c, 0, 52, 95
2, 208320, Note_on_c, 0, 47, 95
2, 208320, Note_on_c, 0, 40, 95
2, 208800, Note_on_c, 0, 55, 95
2, 208850, Note_off_c, 0, 55, 95
2, 209040, Note_on_c, 0, 55, 95
2, 209090, Note_off_c, 0, 55, 95
2, 209280, Note_off_c, 0, 52, 95
2, 209280, Note_off_c, 0, 47, 95
2, 209280, Note_off_c, 0, 40, 95
2, 209280, Note_on_c, 0, 62, 95
2, 209280, Note_on_c, 0, 57, 95
2, 209280, Note_on_c, 0, 50, 95
2, 209520, Note_off_c, 0, 62, 95
2, 209520, Note_off_c, 0, 57, 95
2, 209520, Note_off_c, 0, 50, 95
2, 209520, Note_on_c, 0, 62, 95
2, 209520, Note_on_c, 0, 57, 95
2, 209520, Note_on_c, 0, 50, 95
2, 209760, Note_off_c, 0, 62, 95
2, 209760, Note_off_c, 0, 57, 95
2, 209760, Note_off_c, 0, 50, 95
2, 209760, Note_on_c, 0, 62, 95
2, 209760, Note_on_c, 0, 57, 95
2, 209760, Note_on_c, 0, 50, 95
2, 210000, Note_off_c, 0, 62, 95
2, 210000, Note_off_c, 0, 57, 95
2, 210000, Note_off_c, 0, 50, 95
2, 210000, Note_on_c, 0, 62, 95
2, 210000, Note_on_c, 0, 57, 95
2, 210000, Note_on_c, 0, 50, 95
2, 210240, Note_off_c, 0, 62, 95
2, 210240, Note_off_c, 0, 57, 95
2, 210240, Note_off_c, 0, 50, 95
2, 210240, Note_on_c, 0, 62, 95
2, 210240, Note_on_c, 0, 57, 95
2, 210240, Note_on_c, 0, 50, 95
2, 210720, Note_off_c, 0, 62, 95
2, 210720, Note_off_c, 0, 57, 95
2, 210720, Note_off_c, 0, 50, 95
2, 210720, Note_on_c, 0, 55, 95
2, 210720, Note_on_c, 0, 50, 95
2, 211200, Note_off_c, 0, 55, 95
2, 211200, Note_off_c, 0, 50, 95
2, 211200, Note_on_c, 0, 57, 95
2, 211200, Note_on_c, 0, 52, 95
2, 211200, Note_on_c, 0, 45, 95
2, 211440, Note_off_c, 0, 57, 95
2, 211440, Note_off_c, 0, 52, 95
2, 211440, Note_off_c, 0, 45, 95
2, 211440, Note_on_c, 0, 57, 95
2, 211440, Note_on_c, 0, 52, 95
2, 211440, Note_on_c, 0, 45, 95
2, 211680, Note_off_c, 0, 57, 95
2, 211680, Note_off_c, 0, 52, 95
2, 211680, Note_off_c, 0, 45, 95
2, 211680, Note_on_c, 0, 57, 95
2, 211680, Note_on_c, 0, 52, 95
2, 211680, Note_on_c, 0, 45, 95
2, 211920, Note_off_c, 0, 57, 95
2, 211920, Note_off_c, 0, 52, 95
2, 211920, Note_off_c, 0, 45, 95
2, 211920, Note_on_c, 0, 57, 95
2, 211920, Note_on_c, 0, 52, 95
2, 211920, Note_on_c, 0, 45, 95
2, 212160, Note_off_c, 0, 57, 95
2, 212160, Note_off_c, 0, 52, 95
2, 212160, Note_off_c, 0, 45, 95
2, 212160, Note_on_c, 0, 57, 95
2, 212160, Note_on_c, 0, 52, 95
2, 212160, Note_on_c, 0, 45, 95
2, 212400, Note_off_c, 0, 57, 95
2, 212400, Note_off_c, 0, 52, 95
2, 212400, Note_off_c, 0, 45, 95
2, 212640, Note_on_c, 0, 55, 95
2, 212640, Note_on_c, 0, 50, 95
2, 212640, Note_on_c, 0, 43, 95
2, 212880, Note_off_c, 0, 55, 95
2, 212880, Note_off_c, 0, 50, 95
2, 212880, Note_off_c, 0, 43, 95
2, 212880, Note_on_c, 0, 55, 95
2, 212880, Note_on_c, 0, 50, 95
2, 212880, Note_on_c, 0, 43, 95
2, 213120, Note_off_c, 0, 55, 95
2, 213120, Note_off_c, 0, 50, 95
2, 213120, Note_off_c, 0, 43, 95
2, 213120, Note_on_c, 0, 55, 95
2, 213120, Note_on_c, 0, 50, 95
2, 213120, Note_on_c, 0, 43, 95
2, 213360, Note_off_c, 0, 55, 95
2, 213360, Note_off_c, 0, 50, 95
2, 213360, Note_off_c, 0, 43, 95
2, 213360, Note_on_c, 0, 57, 95
2, 213360, Note_on_c, 0, 52, 95
2, 213360, Note_on_c, 0, 45, 95
2, 213600, Note_off_c, 0, 57, 95
2, 213600, Note_off_c, 0, 52, 95
2, 213600, Note_off_c, 0, 45, 95
2, 213600, Note_on_c, 0, 57, 95
2, 213600, Note_on_c, 0, 52, 95
2, 213600, Note_on_c, 0, 45, 95
2, 213840, Note_off_c, 0, 57, 95
2, 213840, Note_off_c, 0, 52, 95
2, 213840, Note_off_c, 0, 45, 95
2, 213840, Note_on_c, 0, 57, 95
2, 213840, Note_on_c, 0, 52, 95
2, 213840, Note_on_c, 0, 45, 95
2, 214080, Note_off_c, 0, 57, 95
2, 214080, Note_off_c, 0, 52, 95
2, 214080, Note_off_c, 0, 45, 95
2, 214080, Note_on_c, 0, 57, 95
2, 214080, Note_on_c, 0, 52, 95
2, 214080, Note_on_c, 0, 45, 95
2, 214560, Note_off_c, 0, 57, 95
2, 214560, Note_off_c, 0, 52, 95
2, 214560, Note_off_c, 0, 45, 95
2, 214560, Note_on_c, 1, 55, 95
2, 214560, Note_on_c, 1, 50, 95
2, 214560, Note_on_c, 1, 43, 95
2, 214680, Pitch_bend_c, 1, 7680
2, 214680, Pitch_bend_c, 1, 7680
2, 214680, Pitch_bend_c, 1, 7680
2, 214800, Pitch_bend_c, 1, 7168
2, 214800, Pitch_bend_c, 1, 7168
2, 214800, Pitch_bend_c, 1, 7168
2, 214920, Pitch_bend_c, 1, 6656
2, 214920, Pitch_bend_c, 1, 6656
2, 214920, Pitch_bend_c, 1, 6656
2, 215040, Pitch_bend_c, 1, 6144
2, 215040, Pitch_bend_c, 1, 8192
2, 215040, Note_off_c, 1, 55, 95
2, 215040, Pitch_bend_c, 1, 6144
2, 215040, Pitch_bend_c, 1, 8192
2, 215040, Note_off_c, 1, 50, 95
2, 215040, Pitch_bend_c, 1, 6144
2, 215040, Pitch_bend_c, 1, 8192
2, 215040, Note_off_c, 1, 43, 95
2, 215040, Note_on_c, 0, 52, 95
2, 215040, Note_on_c, 0, 47, 95
2, 215040, Note_on_c, 0, 40, 95
2, 216000, Note_off_c, 0, 52, 95
2, 216000, Note_off_c, 0, 47, 95
2, 216000, Note_off_c, 0, 40, 95
2, 216000, Note_on_c, 0, 52, 95
2, 216000, Note_on_c, 0, 47, 95
2, 216000, Note_on_c, 0, 40, 95
2, 216480, Note_on_c, 0, 55, 95
2, 216530, Note_off_c, 0, 55, 95
2, 216720, Note_on_c, 0, 55, 95
2, 216770, Note_off_c, 0, 55, 95
2, 216960, Note_off_c, 0, 52, 95
2, 216960, Note_off_c, 0, 47, 95
2, 216960, Note_off_c, 0, 40, 95
2, 216960, Note_on_c, 0, 62, 95
2, 216960, Note_on_c, 0, 57, 95
2, 216960, Note_on_c, 0, 50, 95
2, 217200, Note_off_c, 0, 62, 95
2, 217200, Note_off_c, 0, 57, 95
2, 217200, Note_off_c, 0, 50, 95
2, 217200, Note_on_c, 0, 62, 95
2, 217200, Note_on_c, 0, 57, 95
2, 217200, Note_on_c, 0, 50, 95
2, 217440, Note_off_c, 0, 62, 95
2, 217440, Note_off_c, 0, 57, 95
2, 217440, Note_off_c, 0, 50, 95
2, 217440, Note_on_c, 0, 62, 95
2, 217440, Note_on_c, 0, 57, 95
2, 217440, Note_on_c, 0, 50, 95
2, 217680, Note_off_c, 0, 62, 95
2, 217680, Note_off_c, 0, 57, 95
2, 217680, Note_off_c, 0, 50, 95
2, 217680, Note_on_c, 0, 62, 95
2, 217680, Note_on_c, 0, 57, 95
2, 217680, Note_on_c, 0, 50, 95
2, 217920, Note_off_c, 0, 62, 95
2, 217920, Note_off_c, 0, 57, 95
2, 217920, Note_off_c, 0, 50, 95
2, 217920, Note_on_c, 0, 62, 95
2, 217920, Note_on_c, 0, 57, 95
2, 217920, Note_on_c, 0, 50, 95
2, 218400, Note_off_c, 0, 62, 95
2, 218400, Note_off_c, 0, 57, 95
2, 218400, Note_off_c, 0, 50, 95
2, 218400, Note_on_c, 0, 55, 95
2, 218400, Note_on_c, 0, 50, 95
2, 218880, Note_off_c, 0, 55, 95
2, 218880, Note_off_c, 0, 50, 95
2, 218880, Note_on_c, 0, 57, 95
2, 218880, Note_on_c, 0, 52, 95
2, 218880, Note_on_c, 0, 45, 95
2, 219120, Note_off_c, 0, 57, 95
2, 219120, Note_off_c, 0, 52, 95
2, 219120, Note_off_c, 0, 45, 95
2, 219120, Note_on_c, 0, 57, 95
2, 219120, Note_on_c, 0, 52, 95
2, 219120, Note_on_c, 0, 45, 95
2, 219360, Note_off_c, 0, 57, 95
2, 219360, Note_off_c, 0, 52, 95
2, 219360, Note_off_c, 0, 45, 95
2, 219360, Note_on_c, 0, 57, 95
2, 219360, Note_on_c, 0, 52, 95
2, 219360, Note_on_c, 0, 45, 95
2, 219600, Note_off_c, 0, 57, 95
2, 219600, Note_off_c, 0, 52, 95
2, 219600, Note_off_c, 0, 45, 95
2, 219600, Note_on_c, 0, 57, 95
2, 219600, Note_on_c, 0, 52, 95
2, 219600, Note_on_c, 0, 45, 95
2, 219840, Note_off_c, 0, 57, 95
2, 219840, Note_off_c, 0, 52, 95
2, 219840, Note_off_c, 0, 45, 95
2, 219840, Note_on_c, 0, 57, 95
2, 219840, Note_on_c, 0, 52, 95
2, 219840, Note_on_c, 0, 45, 95
2, 220080, Note_off_c, 0, 57, 95
2, 220080, Note_off_c, 0, 52, 95
2, 220080, Note_off_c, 0, 45, 95
2, 220320, Note_on_c, 0, 55, 95
2, 220320, Note_on_c, 0, 50, 95
2, 220320, Note_on_c, 0, 43, 95
2, 220560, Note_off_c, 0, 55, 95
2, 220560, Note_off_c, 0, 50, 95
2, 220560, Note_off_c, 0, 43, 95
2, 220560, Note_on_c, 0, 55, 95
2, 220560, Note_on_c, 0, 50, 95
2, 220560, Note_on_c, 0, 43, 95
2, 220800, Note_off_c, 0, 55, 95
2, 220800, Note_off_c, 0, 50, 95
2, 220800, Note_off_c, 0, 43, 95
2, 220800, Note_on_c, 0, 55, 95
2, 220800, Note_on_c, 0, 50, 95
2, 220800, Note_on_c, 0, 43, 95
2, 221040, Note_off_c, 0, 55, 95
2, 221040, Note_off_c, 0, 50, 95
2, 221040, Note_off_c, 0, 43, 95
2, 221040, Note_on_c, 0, 57, 95
2, 221040, Note_on_c, 0, 52, 95
2, 221040, Note_on_c, 0, 45, 95
2, 221280, Note_off_c, 0, 57, 95
2, 221280, Note_off_c, 0, 52, 95
2, 221280, Note_off_c, 0, 45, 95
2, 221280, Note_on_c, 0, 57, 95
2, 221280, Note_on_c, 0, 52, 95
2, 221280, Note_on_c, 0, 45, 95
2, 221520, Note_off_c, 0, 57, 95
2, 221520, Note_off_c, 0, 52, 95
2, 221520, Note_off_c, 0, 45, 95
2, 221520, Note_on_c, 0, 57, 95
2, 221520, Note_on_c, 0, 52, 95
2, 221520, Note_on_c, 0, 45, 95
2, 221760, Note_off_c, 0, 57, 95
2, 221760, Note_off_c, 0, 52, 95
2, 221760, Note_off_c, 0, 45, 95
2, 221760, Note_on_c, 0, 57, 95
2, 221760, Note_on_c, 0, 52, 95
2, 221760, Note_on_c, 0, 45, 95
2, 222240, Note_off_c, 0, 57, 95
2, 222240, Note_off_c, 0, 52, 95
2, 222240, Note_off_c, 0, 45, 95
2, 222240, Note_on_c, 1, 55, 95
2, 222240, Note_on_c, 1, 50, 95
2, 222240, Note_on_c, 1, 43, 95
2, 222360, Pitch_bend_c, 1, 7680
2, 222360, Pitch_bend_c, 1, 7680
2, 222360, Pitch_bend_c, 1, 7680
2, 222480, Pitch_bend_c, 1, 7168
2, 222480, Pitch_bend_c, 1, 7168
2, 222480, Pitch_bend_c, 1, 7168
2, 222600, Pitch_bend_c, 1, 6656
2, 222600, Pitch_bend_c, 1, 6656
2, 222600, Pitch_bend_c, 1, 6656
2, 222720, Pitch_bend_c, 1, 6144
2, 222720, Pitch_bend_c, 1, 8192
2, 222720, Note_off_c, 1, 55, 95
2, 222720, Pitch_bend_c, 1, 6144
2, 222720, Pitch_bend_c, 1, 8192
2, 222720, Note_off_c, 1, 50, 95
2, 222720, Pitch_bend_c, 1, 6144
2, 222720, Pitch_bend_c, 1, 8192
2, 222720, Note_off_c, 1, 43, 95
2, 222720, Note_on_c, 0, 52, 95
2, 222720, Note_on_c, 0, 47, 95
2, 222720, Note_on_c, 0, 40, 95
2, 223680, Note_off_c, 0, 52, 95
2, 223680, Note_off_c, 0, 47, 95
2, 223680, Note_off_c, 0, 40, 95
2, 223680, Note_on_c, 0, 52, 95
2, 223680, Note_on_c, 0, 47, 95
2, 223680, Note_on_c, 0, 40, 95
2, 224160, Note_on_c, 0, 55, 95
2, 224210, Note_off_c, 0, 55, 95
2, 224400, Note_on_c, 0, 55, 95
2, 224450, Note_off_c, 0, 55, 95
2, 224640, Note_off_c, 0, 52, 95
2, 224640, Note_off_c, 0, 47, 95
2, 224640, Note_off_c, 0, 40, 95
2, 224640, Note_on_c, 0, 62, 95
2, 224640, Note_on_c, 0, 57, 95
2, 224640, Note_on_c, 0, 50, 95
2, 224880, Note_off_c, 0, 62, 95
2, 224880, Note_off_c, 0, 57, 95
2, 224880, Note_off_c, 0, 50, 95
2, 224880, Note_on_c, 0, 62, 95
2, 224880, Note_on_c, 0, 57, 95
2, 224880, Note_on_c, 0, 50, 95
2, 225120, Note_off_c, 0, 62, 95
2, 225120, Note_off_c, 0, 57, 95
2, 225120, Note_off_c, 0, 50, 95
2, 225120, Note_on_c, 0, 62, 95
2, 225120, Note_on_c, 0, 57, 95
2, 225120, Note_on_c, 0, 50, 95
2, 225360, Note_off_c, 0, 62, 95
2, 225360, Note_off_c, 0, 57, 95
2, 225360, Note_off_c, 0, 50, 95
2, 225360, Note_on_c, 0, 62, 95
2, 225360, Note_on_c, 0, 57, 95
2, 225360, Note_on_c, 0, 50, 95
2, 225600, Note_off_c, 0, 62, 95
2, 225600, Note_off_c, 0, 57, 95
2, 225600, Note_off_c, 0, 50, 95
2, 225600, Note_on_c, 0, 62, 95
2, 225600, Note_on_c, 0, 57, 95
2, 225600, Note_on_c, 0, 50, 95
2, 226080, Note_off_c, 0, 62, 95
2, 226080, Note_off_c, 0, 57, 95
2, 226080, Note_off_c, 0, 50, 95
2, 226080, Note_on_c, 0, 55, 95
2, 226080, Note_on_c, 0, 50, 95
2, 226560, Note_off_c, 0, 55, 95
2, 226560, Note_off_c, 0, 50, 95
2, 226560, Note_on_c, 0, 57, 95
2, 226560, Note_on_c, 0, 52, 95
2, 226560, Note_on_c, 0, 45, 95
2, 226800, Note_off_c, 0, 57, 95
2, 226800, Note_off_c, 0, 52, 95
2, 226800, Note_off_c, 0, 45, 95
2, 226800, Note_on_c, 0, 57, 95
2, 226800, Note_on_c, 0, 52, 95
2, 226800, Note_on_c, 0, 45, 95
2, 227040, Note_off_c, 0, 57, 95
2, 227040, Note_off_c, 0, 52, 95
2, 227040, Note_off_c, 0, 45, 95
2, 227040, Note_on_c, 0, 57, 95
2, 227040, Note_on_c, 0, 52, 95
2, 227040, Note_on_c, 0, 45, 95
2, 227280, Note_off_c, 0, 57, 95
2, 227280, Note_off_c, 0, 52, 95
2, 227280, Note_off_c, 0, 45, 95
2, 227280, Note_on_c, 0, 57, 95
2, 227280, Note_on_c, 0, 52, 95
2, 227280, Note_on_c, 0, 45, 95
2, 227520, Note_off_c, 0, 57, 95
2, 227520, Note_off_c, 0, 52, 95
2, 227520, Note_off_c, 0, 45, 95
2, 227520, Note_on_c, 0, 57, 95
2, 227520, Note_on_c, 0, 52, 95
2, 227520, Note_on_c, 0, 45, 95
2, 227760, Note_off_c, 0, 57, 95
2, 227760, Note_off_c, 0, 52, 95
2, 227760, Note_off_c, 0, 45, 95
2, 228000, Note_on_c, 0, 55, 95
2, 228000, Note_on_c, 0, 50, 95
2, 228000, Note_on_c, 0, 43, 95
2, 228240, Note_off_c, 0, 55, 95
2, 228240, Note_off_c, 0, 50, 95
2, 228240, Note_off_c, 0, 43, 95
2, 228240, Note_on_c, 0, 55, 95
2, 228240, Note_on_c, 0, 50, 95
2, 228240, Note_on_c, 0, 43, 95
2, 228480, Note_off_c, 0, 55, 95
2, 228480, Note_off_c, 0, 50, 95
2, 228480, Note_off_c, 0, 43, 95
2, 228480, Note_on_c, 0, 55, 95
2, 228480, Note_on_c, 0, 50, 95
2, 228480, Note_on_c, 0, 43, 95
2, 228720, Note_off_c, 0, 55, 95
2, 228720, Note_off_c, 0, 50, 95
2, 228720, Note_off_c, 0, 43, 95
2, 228720, Note_on_c, 0, 57, 95
2, 228720, Note_on_c, 0, 52, 95
2, 228720, Note_on_c, 0, 45, 95
2, 228960, Note_off_c, 0, 57, 95
2, 228960, Note_off_c, 0, 52, 95
2, 228960, Note_off_c, 0, 45, 95
2, 228960, Note_on_c, 0, 57, 95
2, 228960, Note_on_c, 0, 52, 95
2, 228960, Note_on_c, 0, 45, 95
2, 229200, Note_off_c, 0, 57, 95
2, 229200, Note_off_c, 0, 52, 95
2, 229200, Note_off_c, 0, 45, 95
2, 229200, Note_on_c, 0, 57, 95
2, 229200, Note_on_c, 0, 52, 95
2, 229200, Note_on_c, 0, 45, 95
2, 229440, Note_off_c, 0, 57, 95
2, 229440, Note_off_c, 0, 52, 95
2, 229440, Note_off_c, 0, 45, 95
2, 229440, Note_on_c, 0, 57, 95
2, 229440, Note_on_c, 0, 52, 95
2, 229440, Note_on_c, 0, 45, 95
2, 229920, Note_off_c, 0, 57, 95
2, 229920, Note_off_c, 0, 52, 95
2, 229920, Note_off_c, 0, 45, 95
2, 229920, Note_on_c, 1, 55, 95
2, 229920, Note_on_c, 1, 50, 95
2, 229920, Note_on_c, 1, 43, 95
2, 230040, Pitch_bend_c, 1, 7680
2, 230160, Pitch_bend_c, 1, 7168
2, 230280, Pitch_bend_c, 1, 6656
2, 230400, Note_off_c, 1, 55, 95
2, 230400, Note_off_c, 1, 50, 95
2, 230400, Pitch_bend_c, 1, 6144
2, 230400, Pitch_bend_c, 1, 8192
2, 230400, Note_off_c, 1, 43, 95
2, 230400, Note_on_c, 0, 40, 95
2, 231360, Note_off_c, 0, 40, 95
2, 231360, Note_on_c, 0, 40, 95
2, 231840, Note_on_c, 0, 45, 95
2, 231890, Note_off_c, 0, 45, 95
2, 232080, Note_on_c, 0, 45, 95
2, 232130, Note_off_c, 0, 45, 95
2, 232320, Note_off_c, 0, 40, 95
2, 232320, Note_on_c, 0, 50, 95
2, 232560, Note_off_c, 0, 50, 95
2, 232560, Note_on_c, 0, 50, 95
2, 232800, Note_off_c, 0, 50, 95
2, 232800, Note_on_c, 0, 50, 95
2, 233040, Note_off_c, 0, 50, 95
2, 233040, Note_on_c, 0, 50, 95
2, 233280, Note_off_c, 0, 50, 95
2, 233280, Note_on_c, 0, 50, 95
2, 233760, Note_off_c, 0, 50, 95
2, 233760, Note_on_c, 0, 48, 95
2, 234240, Note_off_c, 0, 48, 95
2, 234240, Note_on_c, 0, 45, 95
2, 234480, Note_off_c, 0, 45, 95
2, 234480, Note_on_c, 0, 45, 95
2, 234720, Note_off_c, 0, 45, 95
2, 234720, Note_on_c, 0, 45, 95
2, 234960, Note_off_c, 0, 45, 95
2, 234960, Note_on_c, 0, 45, 95
2, 235200, Note_off_c, 0, 45, 95
2, 235200, Note_on_c, 0, 45, 95
2, 235440, Note_off_c, 0, 45, 95
2, 235680, Note_on_c, 0, 43, 95
2, 235920, Note_off_c, 0, 43, 95
2, 235920, Note_on_c, 0, 43, 95
2, 236160, Note_off_c, 0, 43, 95
2, 236160, Note_on_c, 0, 43, 95
2, 236400, Note_off_c, 0, 43, 95
2, 236400, Note_on_c, 0, 45, 95
2, 236640, Note_off_c, 0, 45, 95
2, 236640, Note_on_c, 0, 45, 95
2, 236880, Note_off_c, 0, 45, 95
2, 236880, Note_on_c, 0, 45, 95
2, 237120, Note_off_c, 0, 45, 95
2, 237120, Note_on_c, 0, 45, 95
2, 237600, Note_off_c, 0, 45, 95
2, 237600, Note_on_c, 1, 43, 95
2, 237720, Pitch_bend_c, 1, 7680
2, 237840, Pitch_bend_c, 1, 7168
2, 237960, Pitch_bend_c, 1, 6656
2, 238080, Pitch_bend_c, 1, 6144
2, 238080, Pitch_bend_c, 1, 8192
2, 238080, Note_off_c, 1, 43, 95
2, 238080, Note_on_c, 0, 40, 95
2, 239040, Note_off_c, 0, 40, 95
2, 239040, Note_on_c, 0, 40, 95
2, 239520, Note_on_c, 0, 45, 95
2, 239570, Note_off_c, 0, 45, 95
2, 239760, Note_on_c, 0, 45, 95
2, 239810, Note_off_c, 0, 45, 95
2, 240000, Note_off_c, 0, 40, 95
2, 240000, Note_on_c, 0, 50, 95
2, 240240, Note_off_c, 0, 50, 95
2, 240240, Note_on_c, 0, 50, 95
2, 240480, Note_off_c, 0, 50, 95
2, 240480, Note_on_c, 0, 50, 95
2, 240720, Note_off_c, 0, 50, 95
2, 240720, Note_on_c, 0, 50, 95
2, 240960, Note_off_c, 0, 50, 95
2, 240960, Note_on_c, 0, 50, 95
2, 241440, Note_off_c, 0, 50, 95
2, 241440, Note_on_c, 0, 48, 95
2, 241920, Note_off_c, 0, 48, 95
2, 241920, Note_on_c, 0, 45, 95
2, 242160, Note_off_c, 0, 45, 95
2, 242160, Note_on_c, 0, 45, 95
2, 242400, Note_off_c, 0, 45, 95
2, 242400, Note_on_c, 0, 45, 95
2, 242640, Note_off_c, 0, 45, 95
2, 242640, Note_on_c, 0, 45, 95
2, 242880, Note_off_c, 0, 45, 95
2, 242880, Note_on_c, 0, 45, 95
2, 243120, Note_off_c, 0, 45, 95
2, 243360, Note_on_c, 0, 43, 95
2, 243600, Note_off_c, 0, 43, 95
2, 243600, Note_on_c, 0, 43, 95
2, 243840, Note_off_c, 0, 43, 95
2, 243840, Note_on_c, 0, 43, 95
2, 244080, Note_off_c, 0, 43, 95
2, 244080, Note_on_c, 0, 45, 95
2, 244320, Note_off_c, 0, 45, 95
2, 244320, Note_on_c, 0, 45, 95
2, 244560, Note_off_c, 0, 45, 95
2, 244560, Note_on_c, 0, 45, 95
2, 244800, Note_off_c, 0, 45, 95
2, 244800, Note_on_c, 0, 45, 95
2, 245280, Note_off_c, 0, 45, 95
2, 245280, Note_on_c, 1, 43, 95
2, 245400, Pitch_bend_c, 1, 7680
2, 245520, Pitch_bend_c, 1, 7168
2, 245640, Pitch_bend_c, 1, 6656
2, 245760, Pitch_bend_c, 1, 6144
2, 245760, Pitch_bend_c, 1, 8192
2, 245760, Note_off_c, 1, 43, 95
2, 245760, Note_on_c, 0, 40, 95
2, 246720, Note_off_c, 0, 40, 95
2, 246720, Note_on_c, 0, 40, 95
2, 247200, Note_on_c, 0, 45, 95
2, 247250, Note_off_c, 0, 45, 95
2, 247440, Note_on_c, 0, 45, 95
2, 247490, Note_off_c, 0, 45, 95
2, 247680, Note_off_c, 0, 40, 95
2, 247680, Note_on_c, 0, 50, 95
2, 247920, Note_off_c, 0, 50, 95
2, 247920, Note_on_c, 0, 50, 95
2, 248160, Note_off_c, 0, 50, 95
2, 248160, Note_on_c, 0, 50, 95
2, 248400, Note_off_c, 0, 50, 95
2, 248400, Note_on_c, 0, 50, 95
2, 248640, Note_off_c, 0, 50, 95
2, 248640, Note_on_c, 0, 50, 95
2, 249120, Note_off_c, 0, 50, 95
2, 249120, Note_on_c, 0, 48, 95
2, 249600, Note_off_c, 0, 48, 95
2, 249600, Note_on_c, 0, 45, 95
2, 249840, Note_off_c, 0, 45, 95
2, 249840, Note_on_c, 0, 45, 95
2, 250080, Note_off_c, 0, 45, 95
2, 250080, Note_on_c, 0, 45, 95
2, 250320, Note_off_c, 0, 45, 95
2, 250320, Note_on_c, 0, 45, 95
2, 250560, Note_off_c, 0, 45, 95
2, 250560, Note_on_c, 0, 45, 95
2, 250800, Note_off_c, 0, 45, 95
2, 251040, Note_on_c, 0, 43, 95
2, 251280, Note_off_c, 0, 43, 95
2, 251280, Note_on_c, 0, 43, 95
2, 251520, Note_off_c, 0, 43, 95
2, 251520, Note_on_c, 0, 43, 95
2, 251760, Note_off_c, 0, 43, 95
2, 251760, Note_on_c, 0, 45, 95
2, 252000, Note_off_c, 0, 45, 95
2, 252000, Note_on_c, 0, 45, 95
2, 252240, Note_off_c, 0, 45, 95
2, 252240, Note_on_c, 0, 45, 95
2, 252480, Note_off_c, 0, 45, 95
2, 252480, Note_on_c, 0, 45, 95
2, 252960, Note_off_c, 0, 45, 95
2, 252960, Note_on_c, 1, 43, 95
2, 253080, Pitch_bend_c, 1, 7680
2, 253200, Pitch_bend_c, 1, 7168
2, 253320, Pitch_bend_c, 1, 6656
2, 253440, Pitch_bend_c, 1, 6144
2, 253440, Pitch_bend_c, 1, 8192
2, 253440, Note_off_c, 1, 43, 95
2, 253440, Note_on_c, 0, 40, 95
2, 254400, Note_off_c, 0, 40, 95
2, 254400, Note_on_c, 0, 40, 95
2, 254880, Note_on_c, 0, 45, 95
2, 254930, Note_off_c, 0, 45, 95
2, 255120, Note_on_c, 0, 45, 95
2, 255170, Note_off_c, 0, 45, 95
2, 255360, Note_off_c, 0, 40, 95
2, 255360, Note_on_c, 0, 50, 95
2, 255600, Note_off_c, 0, 50, 95
2, 255600, Note_on_c, 0, 50, 95
2, 255840, Note_off_c, 0, 50, 95
2, 255840, Note_on_c, 0, 50, 95
2, 256080, Note_off_c, 0, 50, 95
2, 256080, Note_on_c, 0, 50, 95
2, 256320, Note_off_c, 0, 50, 95
2, 256320, Note_on_c, 0, 50, 95
2, 256800, Note_off_c, 0, 50, 95
2, 256800, Note_on_c, 0, 48, 95
2, 257280, Note_off_c, 0, 48, 95
2, 257280, Note_on_c, 0, 45, 95
2, 257520, Note_off_c, 0, 45, 95
2, 257520, Note_on_c, 0, 45, 95
2, 257760, Note_off_c, 0, 45, 95
2, 257760, Note_on_c, 0, 45, 95
2, 258000, Note_off_c, 0, 45, 95
2, 258000, Note_on_c, 0, 45, 95
2, 258240, Note_off_c, 0, 45, 95
2, 258240, Note_on_c, 0, 45, 95
2, 258480, Note_off_c, 0, 45, 95
2, 258720, Note_on_c, 0, 43, 95
2, 258960, Note_off_c, 0, 43, 95
2, 258960, Note_on_c, 0, 43, 95
2, 259200, Note_off_c, 0, 43, 95
2, 259200, Note_on_c, 0, 43, 95
2, 259440, Note_off_c, 0, 43, 95
2, 259440, Note_on_c, 0, 45, 95
2, 259680, Note_off_c, 0, 45, 95
2, 259680, Note_on_c, 0, 45, 95
2, 259920, Note_off_c, 0, 45, 95
2, 259920, Note_on_c, 0, 45, 95
2, 260160, Note_off_c, 0, 45, 95
2, 260160, Note_on_c, 0, 45, 95
2, 260640, Note_off_c, 0, 45, 95
2, 260640, Note_on_c, 1, 43, 95
2, 260760, Pitch_bend_c, 1, 7680
2, 260880, Pitch_bend_c, 1, 7168
2, 261000, Pitch_bend_c, 1, 6656
2, 261120, Pitch_bend_c, 1, 6144
2, 261120, Pitch_bend_c, 1, 8192
2, 261120, Note_off_c, 1, 43, 95
2, 261120, Note_on_c, 0, 52, 95
2, 261120, Note_on_c, 0, 47, 95
2, 261120, Note_on_c, 0, 40, 95
2, 262080, Note_off_c, 0, 52, 95
2, 262080, Note_off_c, 0, 47, 95
2, 262080, Note_off_c, 0, 40, 95
2, 262080, Note_on_c, 0, 52, 95
2, 262080, Note_on_c, 0, 47, 95
2, 262080, Note_on_c, 0, 40, 95
2, 262560, Note_on_c, 0, 55, 95
2, 262610, Note_off_c, 0, 55, 95
2, 262800, Note_on_c, 0, 55, 95
2, 262850, Note_off_c, 0, 55, 95
2, 263040, Note_off_c, 0, 52, 95
2, 263040, Note_off_c, 0, 47, 95
2, 263040, Note_off_c, 0, 40, 95
2, 263040, Note_on_c, 0, 62, 95
2, 263040, Note_on_c, 0, 57, 95
2, 263040, Note_on_c, 0, 50, 95
2, 263280, Note_off_c, 0, 62, 95
2, 263280, Note_off_c, 0, 57, 95
2, 263280, Note_off_c, 0, 50, 95
2, 263280, Note_on_c, 0, 62, 95
2, 263280, Note_on_c, 0, 57, 95
2, 263280, Note_on_c, 0, 50, 95
2, 263520, Note_off_c, 0, 62, 95
2, 263520, Note_off_c, 0, 57, 95
2, 263520, Note_off_c, 0, 50, 95
2, 263520, Note_on_c, 0, 62, 95
2, 263520, Note_on_c, 0, 57, 95
2, 263520, Note_on_c, 0, 50, 95
2, 263760, Note_off_c, 0, 62, 95
2, 263760, Note_off_c, 0, 57, 95
2, 263760, Note_off_c, 0, 50, 95
2, 263760, Note_on_c, 0, 62, 95
2, 263760, Note_on_c, 0, 57, 95
2, 263760, Note_on_c, 0, 50, 95
2, 264000, Note_off_c, 0, 62, 95
2, 264000, Note_off_c, 0, 57, 95
2, 264000, Note_off_c, 0, 50, 95
2, 264000, Note_on_c, 0, 62, 95
2, 264000, Note_on_c, 0, 57, 95
2, 264000, Note_on_c, 0, 50, 95
2, 264480, Note_off_c, 0, 62, 95
2, 264480, Note_off_c, 0, 57, 95
2, 264480, Note_off_c, 0, 50, 95
2, 264480, Note_on_c, 0, 55, 95
2, 264480, Note_on_c, 0, 50, 95
2, 264960, Note_off_c, 0, 55, 95
2, 264960, Note_off_c, 0, 50, 95
2, 264960, Note_on_c, 0, 57, 95
2, 264960, Note_on_c, 0, 52, 95
2, 264960, Note_on_c, 0, 45, 95
2, 265200, Note_off_c, 0, 57, 95
2, 265200, Note_off_c, 0, 52, 95
2, 265200, Note_off_c, 0, 45, 95
2, 265200, Note_on_c, 0, 57, 95
2, 265200, Note_on_c, 0, 52, 95
2, 265200, Note_on_c, 0, 45, 95
2, 265440, Note_off_c, 0, 57, 95
2, 265440, Note_off_c, 0, 52, 95
2, 265440, Note_off_c, 0, 45, 95
2, 265440, Note_on_c, 0, 57, 95
2, 265440, Note_on_c, 0, 52, 95
2, 265440, Note_on_c, 0, 45, 95
2, 265680, Note_off_c, 0, 57, 95
2, 265680, Note_off_c, 0, 52, 95
2, 265680, Note_off_c, 0, 45, 95
2, 265680, Note_on_c, 0, 57, 95
2, 265680, Note_on_c, 0, 52, 95
2, 265680, Note_on_c, 0, 45, 95
2, 265920, Note_off_c, 0, 57, 95
2, 265920, Note_off_c, 0, 52, 95
2, 265920, Note_off_c, 0, 45, 95
2, 265920, Note_on_c, 0, 57, 95
2, 265920, Note_on_c, 0, 52, 95
2, 265920, Note_on_c, 0, 45, 95
2, 266160, Note_off_c, 0, 57, 95
2, 266160, Note_off_c, 0, 52, 95
2, 266160, Note_off_c, 0, 45, 95
2, 266400, Note_on_c, 0, 55, 95
2, 266400, Note_on_c, 0, 50, 95
2, 266400, Note_on_c, 0, 43, 95
2, 266640, Note_off_c, 0, 55, 95
2, 266640, Note_off_c, 0, 50, 95
2, 266640, Note_off_c, 0, 43, 95
2, 266640, Note_on_c, 0, 55, 95
2, 266640, Note_on_c, 0, 50, 95
2, 266640, Note_on_c, 0, 43, 95
2, 266880, Note_off_c, 0, 55, 95
2, 266880, Note_off_c, 0, 50, 95
2, 266880, Note_off_c, 0, 43, 95
2, 266880, Note_on_c, 0, 55, 95
2, 266880, Note_on_c, 0, 50, 95
2, 266880, Note_on_c, 0, 43, 95
2, 267120, Note_off_c, 0, 55, 95
2, 267120, Note_off_c, 0, 50, 95
2, 267120, Note_off_c, 0, 43, 95
2, 267120, Note_on_c, 0, 57, 95
2, 267120, Note_on_c, 0, 52, 95
2, 267120, Note_on_c, 0, 45, 95
2, 267360, Note_off_c, 0, 57, 95
2, 267360, Note_off_c, 0, 52, 95
2, 267360, Note_off_c, 0, 45, 95
2, 267360, Note_on_c, 0, 57, 95
2, 267360, Note_on_c, 0, 52, 95
2, 267360, Note_on_c, 0, 45, 95
2, 267600, Note_off_c, 0, 57, 95
2, 267600, Note_off_c, 0, 52, 95
2, 267600, Note_off_c, 0, 45, 95
2, 267600, Note_on_c, 0, 57, 95
2, 267600, Note_on_c, 0, 52, 95
2, 267600, Note_on_c, 0, 45, 95
2, 267840, Note_off_c, 0, 57, 95
2, 267840, Note_off_c, 0, 52, 95
2, 267840, Note_off_c, 0, 45, 95
2, 267840, Note_on_c, 0, 57, 95
2, 267840, Note_on_c, 0, 52, 95
2, 267840, Note_on_c, 0, 45, 95
2, 268320, Note_off_c, 0, 57, 95
2, 268320, Note_off_c, 0, 52, 95
2, 268320, Note_off_c, 0, 45, 95
2, 268320, Note_on_c, 1, 55, 95
2, 268320, Note_on_c, 1, 50, 95
2, 268320, Note_on_c, 1, 43, 95
2, 268440, Pitch_bend_c, 1, 7680
2, 268440, Pitch_bend_c, 1, 7680
2, 268440, Pitch_bend_c, 1, 7680
2, 268560, Pitch_bend_c, 1, 7168
2, 268560, Pitch_bend_c, 1, 7168
2, 268560, Pitch_bend_c, 1, 7168
2, 268680, Pitch_bend_c, 1, 6656
2, 268680, Pitch_bend_c, 1, 6656
2, 268680, Pitch_bend_c, 1, 6656
2, 268800, Pitch_bend_c, 1, 6144
2, 268800, Pitch_bend_c, 1, 8192
2, 268800, Note_off_c, 1, 55, 95
2, 268800, Pitch_bend_c, 1, 6144
2, 268800, Pitch_bend_c, 1, 8192
2, 268800, Note_off_c, 1, 50, 95
2, 268800, Pitch_bend_c, 1, 6144
2, 268800, Pitch_bend_c, 1, 8192
2, 268800, Note_off_c, 1, 43, 95
2, 268800, Note_on_c, 0, 52, 95
2, 268800, Note_on_c, 0, 47, 95
2, 268800, Note_on_c, 0, 40, 95
2, 269760, Note_off_c, 0, 52, 95
2, 269760, Note_off_c, 0, 47, 95
2, 269760, Note_off_c, 0, 40, 95
2, 269760, Note_on_c, 0, 52, 95
2, 269760, Note_on_c, 0, 47, 95
2, 269760, Note_on_c, 0, 40, 95
2, 270240, Note_on_c, 0, 55, 95
2, 270290, Note_off_c, 0, 55, 95
2, 270480, Note_on_c, 0, 55, 95
2, 270530, Note_off_c, 0, 55, 95
2, 270720, Note_off_c, 0, 52, 95
2, 270720, Note_off_c, 0, 47, 95
2, 270720, Note_off_c, 0, 40, 95
2, 270720, Note_on_c, 0, 62, 95
2, 270720, Note_on_c, 0, 57, 95
2, 270720, Note_on_c, 0, 50, 95
2, 270960, Note_off_c, 0, 62, 95
2, 270960, Note_off_c, 0, 57, 95
2, 270960, Note_off_c, 0, 50, 95
2, 270960, Note_on_c, 0, 62, 95
2, 270960, Note_on_c, 0, 57, 95
2, 270960, Note_on_c, 0, 50, 95
2, 271200, Note_off_c, 0, 62, 95
2, 271200, Note_off_c, 0, 57, 95
2, 271200, Note_off_c, 0, 50, 95
2, 271200, Note_on_c, 0, 62, 95
2, 271200, Note_on_c, 0, 57, 95
2, 271200, Note_on_c, 0, 50, 95
2, 271440, Note_off_c, 0, 62, 95
2, 271440, Note_off_c, 0, 57, 95
2, 271440, Note_off_c, 0, 50, 95
2, 271440, Note_on_c, 0, 62, 95
2, 271440, Note_on_c, 0, 57, 95
2, 271440, Note_on_c, 0, 50, 95
2, 271680, Note_off_c, 0, 62, 95
2, 271680, Note_off_c, 0, 57, 95
2, 271680, Note_off_c, 0, 50, 95
2, 271680, Note_on_c, 0, 62, 95
2, 271680, Note_on_c, 0, 57, 95
2, 271680, Note_on_c, 0, 50, 95
2, 272160, Note_off_c, 0, 62, 95
2, 272160, Note_off_c, 0, 57, 95
2, 272160, Note_off_c, 0, 50, 95
2, 272160, Note_on_c, 0, 55, 95
2, 272160, Note_on_c, 0, 50, 95
2, 272640, Note_off_c, 0, 55, 95
2, 272640, Note_off_c, 0, 50, 95
2, 272640, Note_on_c, 0, 57, 95
2, 272640, Note_on_c, 0, 52, 95
2, 272640, Note_on_c, 0, 45, 95
2, 272880, Note_off_c, 0, 57, 95
2, 272880, Note_off_c, 0, 52, 95
2, 272880, Note_off_c, 0, 45, 95
2, 272880, Note_on_c, 0, 57, 95
2, 272880, Note_on_c, 0, 52, 95
2, 272880, Note_on_c, 0, 45, 95
2, 273120, Note_off_c, 0, 57, 95
2, 273120, Note_off_c, 0, 52, 95
2, 273120, Note_off_c, 0, 45, 95
2, 273120, Note_on_c, 0, 57, 95
2, 273120, Note_on_c, 0, 52, 95
2, 273120, Note_on_c, 0, 45, 95
2, 273360, Note_off_c, 0, 57, 95
2, 273360, Note_off_c, 0, 52, 95
2, 273360, Note_off_c, 0, 45, 95
2, 273360, Note_on_c, 0, 57, 95
2, 273360, Note_on_c, 0, 52, 95
2, 273360, Note_on_c, 0, 45, 95
2, 273600, Note_off_c, 0, 57, 95
2, 273600, Note_off_c, 0, 52, 95
2, 273600, Note_off_c, 0, 45, 95
2, 273600, Note_on_c, 0, 57, 95
2, 273600, Note_on_c, 0, 52, 95
2, 273600, Note_on_c, 0, 45, 95
2, 273840, Note_off_c, 0, 57, 95
2, 273840, Note_off_c, 0, 52, 95
2, 273840, Note_off_c, 0, 45, 95
2, 274080, Note_on_c, 0, 55, 95
2, 274080, Note_on_c, 0, 50, 95
2, 274080, Note_on_c, 0, 43, 95
2, 274320, Note_off_c, 0, 55, 95
2, 274320, Note_off_c, 0, 50, 95
2, 274320, Note_off_c, 0, 43, 95
2, 274320, Note_on_c, 0, 55, 95
2, 274320, Note_on_c, 0, 50, 95
2, 274320, Note_on_c, 0, 43, 95
2, 274560, Note_off_c, 0, 55, 95
2, 274560, Note_off_c, 0, 50, 95
2, 274560, Note_off_c, 0, 43, 95
2, 274560, Note_on_c, 0, 55, 95
2, 274560, Note_on_c, 0, 50, 95
2, 274560, Note_on_c, 0, 43, 95
2, 274800, Note_off_c, 0, 55, 95
2, 274800, Note_off_c, 0, 50, 95
2, 274800, Note_off_c, 0, 43, 95
2, 274800, Note_on_c, 0, 57, 95
2, 274800, Note_on_c, 0, 52, 95
2, 274800, Note_on_c, 0, 45, 95
2, 275040, Note_off_c, 0, 57, 95
2, 275040, Note_off_c, 0, 52, 95
2, 275040, Note_off_c, 0, 45, 95
2, 275040, Note_on_c, 0, 57, 95
2, 275040, Note_on_c, 0, 52, 95
2, 275040, Note_on_c, 0, 45, 95
2, 275280, Note_off_c, 0, 57, 95
2, 275280, Note_off_c, 0, 52, 95
2, 275280, Note_off_c, 0, 45, 95
2, 275280, Note_on_c, 0, 57, 95
2, 275280, Note_on_c, 0, 52, 95
2, 275280, Note_on_c, 0, 45, 95
2, 275520, Note_off_c, 0, 57, 95
2, 275520, Note_off_c, 0, 52, 95
2, 275520, Note_off_c, 0, 45, 95
2, 275520, Note_on_c, 0, 57, 95
2, 275520, Note_on_c, 0, 52, 95
2, 275520, Note_on_c, 0, 45, 95
2, 276000, Note_off_c, 0, 57, 95
2, 276000, Note_off_c, 0, 52, 95
2, 276000, Note_off_c, 0, 45, 95
2, 276000, Note_on_c, 1, 55, 95
2, 276000, Note_on_c, 1, 50, 95
2, 276000, Note_on_c, 1, 43, 95
2, 276120, Pitch_bend_c, 1, 7680
2, 276120, Pitch_bend_c, 1, 7680
2, 276120, Pitch_bend_c, 1, 7680
2, 276240, Pitch_bend_c, 1, 7168
2, 276240, Pitch_bend_c, 1, 7168
2, 276240, Pitch_bend_c, 1, 7168
2, 276360, Pitch_bend_c, 1, 6656
2, 276360, Pitch_bend_c, 1, 6656
2, 276360, Pitch_bend_c, 1, 6656
2, 276480, Pitch_bend_c, 1, 6144
2, 276480, Pitch_bend_c, 1, 8192
2, 276480, Note_off_c, 1, 55, 95
2, 276480, Pitch_bend_c, 1, 6144
2, 276480, Pitch_bend_c, 1, 8192
2, 276480, Note_off_c, 1, 50, 95
2, 276480, Pitch_bend_c, 1, 6144
2, 276480, Pitch_bend_c, 1, 8192
2, 276480, Note_off_c, 1, 43, 95
2, 276480, Note_on_c, 0, 52, 95
2, 276480, Note_on_c, 0, 47, 95
2, 276480, Note_on_c, 0, 40, 95
2, 277440, Note_off_c, 0, 52, 95
2, 277440, Note_off_c, 0, 47, 95
2, 277440, Note_off_c, 0, 40, 95
2, 277440, Note_on_c, 0, 52, 95
2, 277440, Note_on_c, 0, 47, 95
2, 277440, Note_on_c, 0, 40, 95
2, 277920, Note_on_c, 0, 55, 95
2, 277970, Note_off_c, 0, 55, 95
2, 278160, Note_on_c, 0, 55, 95
2, 278210, Note_off_c, 0, 55, 95
2, 278400, Note_off_c, 0, 52, 95
2, 278400, Note_off_c, 0, 47, 95
2, 278400, Note_off_c, 0, 40, 95
2, 278400, Note_on_c, 0, 62, 95
2, 278400, Note_on_c, 0, 57, 95
2, 278400, Note_on_c, 0, 50, 95
2, 278640, Note_off_c, 0, 62, 95
2, 278640, Note_off_c, 0, 57, 95
2, 278640, Note_off_c, 0, 50, 95
2, 278640, Note_on_c, 0, 62, 95
2, 278640, Note_on_c, 0, 57, 95
2, 278640, Note_on_c, 0, 50, 95
2, 278880, Note_off_c, 0, 62, 95
2, 278880, Note_off_c, 0, 57, 95
2, 278880, Note_off_c, 0, 50, 95
2, 278880, Note_on_c, 0, 62, 95
2, 278880, Note_on_c, 0, 57, 95
2, 278880, Note_on_c, 0, 50, 95
2, 279120, Note_off_c, 0, 62, 95
2, 279120, Note_off_c, 0, 57, 95
2, 279120, Note_off_c, 0, 50, 95
2, 279120, Note_on_c, 0, 62, 95
2, 279120, Note_on_c, 0, 57, 95
2, 279120, Note_on_c, 0, 50, 95
2, 279360, Note_off_c, 0, 62, 95
2, 279360, Note_off_c, 0, 57, 95
2, 279360, Note_off_c, 0, 50, 95
2, 279360, Note_on_c, 0, 62, 95
2, 279360, Note_on_c, 0, 57, 95
2, 279360, Note_on_c, 0, 50, 95
2, 279840, Note_off_c, 0, 62, 95
2, 279840, Note_off_c, 0, 57, 95
2, 279840, Note_off_c, 0, 50, 95
2, 279840, Note_on_c, 0, 55, 95
2, 279840, Note_on_c, 0, 50, 95
2, 280320, Note_off_c, 0, 55, 95
2, 280320, Note_off_c, 0, 50, 95
2, 280320, Note_on_c, 0, 57, 95
2, 280320, Note_on_c, 0, 52, 95
2, 280320, Note_on_c, 0, 45, 95
2, 280560, Note_off_c, 0, 57, 95
2, 280560, Note_off_c, 0, 52, 95
2, 280560, Note_off_c, 0, 45, 95
2, 280560, Note_on_c, 0, 57, 95
2, 280560, Note_on_c, 0, 52, 95
2, 280560, Note_on_c, 0, 45, 95
2, 280800, Note_off_c, 0, 57, 95
2, 280800, Note_off_c, 0, 52, 95
2, 280800, Note_off_c, 0, 45, 95
2, 280800, Note_on_c, 0, 57, 95
2, 280800, Note_on_c, 0, 52, 95
2, 280800, Note_on_c, 0, 45, 95
2, 281040, Note_off_c, 0, 57, 95
2, 281040, Note_off_c, 0, 52, 95
2, 281040, Note_off_c, 0, 45, 95
2, 281040, Note_on_c, 0, 57, 95
2, 281040, Note_on_c, 0, 52, 95
2, 281040, Note_on_c, 0, 45, 95
2, 281280, Note_off_c, 0, 57, 95
2, 281280, Note_off_c, 0, 52, 95
2, 281280, Note_off_c, 0, 45, 95
2, 281280, Note_on_c, 0, 57, 95
2, 281280, Note_on_c, 0, 52, 95
2, 281280, Note_on_c, 0, 45, 95
2, 281520, Note_off_c, 0, 57, 95
2, 281520, Note_off_c, 0, 52, 95
2, 281520, Note_off_c, 0, 45, 95
2, 281760, Note_on_c, 0, 55, 95
2, 281760, Note_on_c, 0, 50, 95
2, 281760, Note_on_c, 0, 43, 95
2, 282000, Note_off_c, 0, 55, 95
2, 282000, Note_off_c, 0, 50, 95
2, 282000, Note_off_c, 0, 43, 95
2, 282000, Note_on_c, 0, 55, 95
2, 282000, Note_on_c, 0, 50, 95
2, 282000, Note_on_c, 0, 43, 95
2, 282240, Note_off_c, 0, 55, 95
2, 282240, Note_off_c, 0, 50, 95
2, 282240, Note_off_c, 0, 43, 95
2, 282240, Note_on_c, 0, 55, 95
2, 282240, Note_on_c, 0, 50, 95
2, 282240, Note_on_c, 0, 43, 95
2, 282480, Note_off_c, 0, 55, 95
2, 282480, Note_off_c, 0, 50, 95
2, 282480, Note_off_c, 0, 43, 95
2, 282480, Note_on_c, 0, 57, 95
2, 282480, Note_on_c, 0, 52, 95
2, 282480, Note_on_c, 0, 45, 95
2, 282720, Note_off_c, 0, 57, 95
2, 282720, Note_off_c, 0, 52, 95
2, 282720, Note_off_c, 0, 45, 95
2, 282720, Note_on_c, 0, 57, 95
2, 282720, Note_on_c, 0, 52, 95
2, 282720, Note_on_c, 0, 45, 95
2, 282960, Note_off_c, 0, 57, 95
2, 282960, Note_off_c, 0, 52, 95
2, 282960, Note_off_c, 0, 45, 95
2, 282960, Note_on_c, 0, 57, 95
2, 282960, Note_on_c, 0, 52, 95
2, 282960, Note_on_c, 0, 45, 95
2, 283200, Note_off_c, 0, 57, 95
2, 283200, Note_off_c, 0, 52, 95
2, 283200, Note_off_c, 0, 45, 95
2, 283200, Note_on_c, 0, 57, 95
2, 283200, Note_on_c, 0, 52, 95
2, 283200, Note_on_c, 0, 45, 95
2, 283680, Note_off_c, 0, 57, 95
2, 283680, Note_off_c, 0, 52, 95
2, 283680, Note_off_c, 0, 45, 95
2, 283680, Note_on_c, 1, 55, 95
2, 283680, Note_on_c, 1, 50, 95
2, 283680, Note_on_c, 1, 43, 95
2, 283800, Pitch_bend_c, 1, 7680
2, 283800, Pitch_bend_c, 1, 7680
2, 283800, Pitch_bend_c, 1, 7680
2, 283920, Pitch_bend_c, 1, 7168
2, 283920, Pitch_bend_c, 1, 7168
2, 283920, Pitch_bend_c, 1, 7168
2, 284040, Pitch_bend_c, 1, 6656
2, 284040, Pitch_bend_c, 1, 6656
2, 284040, Pitch_bend_c, 1, 6656
2, 284160, Pitch_bend_c, 1, 6144
2, 284160, Pitch_bend_c, 1, 8192
2, 284160, Note_off_c, 1, 55, 95
2, 284160, Pitch_bend_c, 1, 6144
2, 284160, Pitch_bend_c, 1, 8192
2, 284160, Note_off_c, 1, 50, 95
2, 284160, Pitch_bend_c, 1, 6144
2, 284160, Pitch_bend_c, 1, 8192
2, 284160, Note_off_c, 1, 43, 95
2, 284160, Note_on_c, 0, 52, 95
2, 284160, Note_on_c, 0, 47, 95
2, 284160, Note_on_c, 0, 40, 95
2, 285120, Note_off_c, 0, 52, 95
2, 285120, Note_off_c, 0, 47, 95
2, 285120, Note_off_c, 0, 40, 95
2, 285120, Note_on_c, 0, 52, 95
2, 285120, Note_on_c, 0, 47, 95
2, 285120, Note_on_c, 0, 40, 95
2, 285600, Note_on_c, 0, 55, 95
2, 285650, Note_off_c, 0, 55, 95
2, 285840, Note_on_c, 0, 55, 95
2, 285890, Note_off_c, 0, 55, 95
2, 286080, Note_off_c, 0, 52, 95
2, 286080, Note_off_c, 0, 47, 95
2, 286080, Note_off_c, 0, 40, 95
2, 286080, Note_on_c, 0, 62, 95
2, 286080, Note_on_c, 0, 57, 95
2, 286080, Note_on_c, 0, 50, 95
2, 286320, Note_off_c, 0, 62, 95
2, 286320, Note_off_c, 0, 57, 95
2, 286320, Note_off_c, 0, 50, 95
2, 286320, Note_on_c, 0, 62, 95
2, 286320, Note_on_c, 0, 57, 95
2, 286320, Note_on_c, 0, 50, 95
2, 286560, Note_off_c, 0, 62, 95
2, 286560, Note_off_c, 0, 57, 95
2, 286560, Note_off_c, 0, 50, 95
2, 286560, Note_on_c, 0, 62, 95
2, 286560, Note_on_c, 0, 57, 95
2, 286560, Note_on_c, 0, 50, 95
2, 286800, Note_off_c, 0, 62, 95
2, 286800, Note_off_c, 0, 57, 95
2, 286800, Note_off_c, 0, 50, 95
2, 286800, Note_on_c, 0, 62, 95
2, 286800, Note_on_c, 0, 57, 95
2, 286800, Note_on_c, 0, 50, 95
2, 287040, Note_off_c, 0, 62, 95
2, 287040, Note_off_c, 0, 57, 95
2, 287040, Note_off_c, 0, 50, 95
2, 287040, Note_on_c, 0, 62, 95
2, 287040, Note_on_c, 0, 57, 95
2, 287040, Note_on_c, 0, 50, 95
2, 287520, Note_off_c, 0, 62, 95
2, 287520, Note_off_c, 0, 57, 95
2, 287520, Note_off_c, 0, 50, 95
2, 287520, Note_on_c, 0, 55, 95
2, 287520, Note_on_c, 0, 50, 95
2, 288000, Note_off_c, 0, 55, 95
2, 288000, Note_off_c, 0, 50, 95
2, 288000, Note_on_c, 0, 57, 95
2, 288000, Note_on_c, 0, 52, 95
2, 288000, Note_on_c, 0, 45, 95
2, 288240, Note_off_c, 0, 57, 95
2, 288240, Note_off_c, 0, 52, 95
2, 288240, Note_off_c, 0, 45, 95
2, 288240, Note_on_c, 0, 57, 95
2, 288240, Note_on_c, 0, 52, 95
2, 288240, Note_on_c, 0, 45, 95
2, 288480, Note_off_c, 0, 57, 95
2, 288480, Note_off_c, 0, 52, 95
2, 288480, Note_off_c, 0, 45, 95
2, 288480, Note_on_c, 0, 57, 95
2, 288480, Note_on_c, 0, 52, 95
2, 288480, Note_on_c, 0, 45, 95
2, 288720, Note_off_c, 0, 57, 95
2, 288720, Note_off_c, 0, 52, 95
2, 288720, Note_off_c, 0, 45, 95
2, 288720, Note_on_c, 0, 57, 95
2, 288720, Note_on_c, 0, 52, 95
2, 288720, Note_on_c, 0, 45, 95
2, 288960, Note_off_c, 0, 57, 95
2, 288960, Note_off_c, 0, 52, 95
2, 288960, Note_off_c, 0, 45, 95
2, 288960, Note_on_c, 0, 57, 95
2, 288960, Note_on_c, 0, 52, 95
2, 288960, Note_on_c, 0, 45, 95
2, 289200, Note_off_c, 0, 57, 95
2, 289200, Note_off_c, 0, 52, 95
2, 289200, Note_off_c, 0, 45, 95
2, 289440, Note_on_c, 0, 55, 95
2, 289440, Note_on_c, 0, 50, 95
2, 289440, Note_on_c, 0, 43, 95
2, 289680, Note_off_c, 0, 55, 95
2, 289680, Note_off_c, 0, 50, 95
2, 289680, Note_off_c, 0, 43, 95
2, 289680, Note_on_c, 0, 55, 95
2, 289680, Note_on_c, 0, 50, 95
2, 289680, Note_on_c, 0, 43, 95
2, 289920, Note_off_c, 0, 55, 95
2, 289920, Note_off_c, 0, 50, 95
2, 289920, Note_off_c, 0, 43, 95
2, 289920, Note_on_c, 0, 55, 95
2, 289920, Note_on_c, 0, 50, 95
2, 289920, Note_on_c, 0, 43, 95
2, 290160, Note_off_c, 0, 55, 95
2, 290160, Note_off_c, 0, 50, 95
2, 290160, Note_off_c, 0, 43, 95
2, 290160, Note_on_c, 0, 57, 95
2, 290160, Note_on_c, 0, 52, 95
2, 290160, Note_on_c, 0, 45, 95
2, 290400, Note_off_c, 0, 57, 95
2, 290400, Note_off_c, 0, 52, 95
2, 290400, Note_off_c, 0, 45, 95
2, 290400, Note_on_c, 0, 57, 95
2, 290400, Note_on_c, 0, 52, 95
2, 290400, Note_on_c, 0, 45, 95
2, 290640, Note_off_c, 0, 57, 95
2, 290640, Note_off_c, 0, 52, 95
2, 290640, Note_off_c, 0, 45, 95
2, 290640, Note_on_c, 0, 57, 95
2, 290640, Note_on_c, 0, 52, 95
2, 290640, Note_on_c, 0, 45, 95
2, 290880, Note_off_c, 0, 57, 95
2, 290880, Note_off_c, 0, 52, 95
2, 290880, Note_off_c, 0, 45, 95
2, 290880, Note_on_c, 0, 57, 95
2, 290880, Note_on_c, 0, 52, 95
2, 290880, Note_on_c, 0, 45, 95
2, 291360, Note_off_c, 0, 57, 95
2, 291360, Note_off_c, 0, 52, 95
2, 291360, Note_off_c, 0, 45, 95
2, 291360, Note_on_c, 0, 55, 95
2, 291360, Note_on_c, 0, 50, 95
2, 291360, Note_on_c, 0, 43, 95
2, 291840, Note_off_c, 0, 55, 95
2, 291840, Note_off_c, 0, 50, 95
2, 291840, Note_off_c, 0, 43, 95
2, 291840, End_track
3, 0, Start_track
3, 0, Pitch_bend_c, 2, 8192
3, 0, Control_c, 2, 7, 103
3, 0, Control_c, 2, 10, 63
3, 0, Control_c, 2, 93, 0
3, 0, Control_c, 2, 91, 0
3, 0, Control_c, 2, 95, 0
3, 0, Control_c, 2, 92, 0
3, 0, Control_c, 2, 11, 127
3, 0, Program_c, 2, 34
3, 0, Control_c, 3, 7, 103
3, 0, Control_c, 3, 10, 63
3, 0, Control_c, 3, 93, 0
3, 0, Control_c, 3, 91, 0
3, 0, Control_c, 3, 95, 0
3, 0, Control_c, 3, 92, 0
3, 0, Control_c, 3, 11, 127
3, 0, Program_c, 3, 34
3, 0, Note_on_c, 2, 28, 95
3, 960, Note_off_c, 2, 28, 95
3, 960, Note_on_c, 2, 28, 95
3, 1920, Note_off_c, 2, 28, 95
3, 1920, Note_on_c, 2, 38, 95
3, 2160, Note_off_c, 2, 38, 95
3, 2160, Note_on_c, 2, 38, 95
3, 2400, Note_off_c, 2, 38, 95
3, 2400, Note_on_c, 2, 38, 95
3, 2640, Note_off_c, 2, 38, 95
3, 2640, Note_on_c, 2, 38, 95
3, 2880, Note_off_c, 2, 38, 95
3, 2880, Note_on_c, 2, 38, 95
3, 3360, Note_off_c, 2, 38, 95
3, 3360, Note_on_c, 2, 38, 95
3, 3840, Note_off_c, 2, 38, 95
3, 3840, Note_on_c, 2, 33, 95
3, 4080, Note_off_c, 2, 33, 95
3, 4080, Note_on_c, 2, 33, 95
3, 4320, Note_off_c, 2, 33, 95
3, 4320, Note_on_c, 2, 33, 95
3, 4560, Note_off_c, 2, 33, 95
3, 4560, Note_on_c, 2, 33, 95
3, 4800, Note_off_c, 2, 33, 95
3, 4800, Note_on_c, 2, 33, 95
3, 5040, Note_off_c, 2, 33, 95
3, 5040, Note_on_c, 2, 28, 95
3, 5090, Note_off_c, 2, 28, 95
3, 5280, Note_on_c, 2, 31, 95
3, 5520, Note_off_c, 2, 31, 95
3, 5520, Note_on_c, 2, 31, 95
3, 5760, Note_off_c, 2, 31, 95
3, 5760, Note_on_c, 2, 31, 95
3, 6000, Note_off_c, 2, 31, 95
3, 6000, Note_on_c, 2, 33, 95
3, 6240, Note_off_c, 2, 33, 95
3, 6240, Note_on_c, 2, 33, 95
3, 6480, Note_off_c, 2, 33, 95
3, 6480, Note_on_c, 2, 33, 95
3, 6720, Note_off_c, 2, 33, 95
3, 6720, Note_on_c, 2, 33, 95
3, 7200, Note_off_c, 2, 33, 95
3, 7200, Note_on_c, 3, 31, 95
3, 7320, Pitch_bend_c, 3, 7680
3, 7440, Pitch_bend_c, 3, 7168
3, 7560, Pitch_bend_c, 3, 6656
3, 7680, Pitch_bend_c, 3, 6144
3, 7680, Pitch_bend_c, 3, 8192
3, 7680, Note_off_c, 3, 31, 95
3, 7680, Note_on_c, 2, 28, 95
3, 8640, Note_off_c, 2, 28, 95
3, 8640, Note_on_c, 2, 28, 95
3, 9600, Note_off_c, 2, 28, 95
3, 9600, Note_on_c, 2, 38, 95
3, 9840, Note_off_c, 2, 38, 95
3, 9840, Note_on_c, 2, 38, 95
3, 10080, Note_off_c, 2, 38, 95
3, 10080, Note_on_c, 2, 38, 95
3, 10560, Note_off_c, 2, 38, 95
3, 10560, Note_on_c, 2, 38, 95
3, 11040, Note_off_c, 2, 38, 95
3, 11040, Note_on_c, 2, 38, 95
3, 11520, Note_off_c, 2, 38, 95
3, 11520, Note_on_c, 2, 33, 95
3, 11760, Note_off_c, 2, 33, 95
3, 11760, Note_on_c, 2, 33, 95
3, 12000, Note_off_c, 2, 33, 95
3, 12000, Note_on_c, 2, 33, 95
3, 12240, Note_off_c, 2, 33, 95
3, 12240, Note_on_c, 2, 33, 95
3, 12480, Note_off_c, 2, 33, 95
3, 12480, Note_on_c, 2, 33, 95
3, 12720, Note_off_c, 2, 33, 95
3, 12720, Note_on_c, 2, 28, 95
3, 12770, Note_off_c, 2, 28, 95
3, 12960, Note_on_c, 2, 31, 95
3, 13200, Note_off_c, 2, 31, 95
3, 13200, Note_on_c, 2, 31, 95
3, 13440, Note_off_c, 2, 31, 95
3, 13440, Note_on_c, 2, 31, 95
3, 13680, Note_off_c, 2, 31, 95
3, 13680, Note_on_c, 2, 33, 95
3, 13920, Note_off_c, 2, 33, 95
3, 13920, Note_on_c, 2, 33, 95
3, 14160, Note_off_c, 2, 33, 95
3, 14160, Note_on_c, 2, 33, 95
3, 14400, Note_off_c, 2, 33, 95
3, 14400, Note_on_c, 2, 33, 95
3, 14880, Note_off_c, 2, 33, 95
3, 14880, Note_on_c, 2, 31, 95
3, 15360, Note_off_c, 2, 31, 95
3, 46080, Note_on_c, 2, 28, 95
3, 47040, Note_off_c, 2, 28, 95
3, 47040, Note_on_c, 2, 28, 95
3, 48000, Note_off_c, 2, 28, 95
3, 48000, Note_on_c, 2, 38, 95
3, 48240, Note_off_c, 2, 38, 95
3, 48240, Note_on_c, 2, 38, 95
3, 48480, Note_off_c, 2, 38, 95
3, 48480, Note_on_c, 2, 38, 95
3, 48720, Note_off_c, 2, 38, 95
3, 48720, Note_on_c, 2, 38, 95
3, 48960, Note_off_c, 2, 38, 95
3, 48960, Note_on_c, 2, 38, 95
3, 49440, Note_off_c, 2, 38, 95
3, 49440, Note_on_c, 2, 38, 95
3, 49920, Note_off_c, 2, 38, 95
3, 49920, Note_on_c, 2, 33, 95
3, 50160, Note_off_c, 2, 33, 95
3, 50160, Note_on_c, 2, 33, 95
3, 50400, Note_off_c, 2, 33, 95
3, 50400, Note_on_c, 2, 33, 95
3, 50640, Note_off_c, 2, 33, 95
3, 50640, Note_on_c, 2, 33, 95
3, 50880, Note_off_c, 2, 33, 95
3, 50880, Note_on_c, 2, 33, 95
3, 51120, Note_off_c, 2, 33, 95
3, 51120, Note_on_c, 2, 28, 95
3, 51170, Note_off_c, 2, 28, 95
3, 51360, Note_on_c, 2, 31, 95
3, 51600, Note_off_c, 2, 31, 95
3, 51600, Note_on_c, 2, 31, 95
3, 51840, Note_off_c, 2, 31, 95
3, 51840, Note_on_c, 2, 31, 95
3, 52080, Note_off_c, 2, 31, 95
3, 52080, Note_on_c, 2, 33, 95
3, 52320, Note_off_c, 2, 33, 95
3, 52320, Note_on_c, 2, 33, 95
3, 52560, Note_off_c, 2, 33, 95
3, 52560, Note_on_c, 2, 33, 95
3, 52800, Note_off_c, 2, 33, 95
3, 52800, Note_on_c, 2, 33, 95
3, 53280, Note_off_c, 2, 33, 95
3, 53280, Note_on_c, 3, 31, 95
3, 53400, Pitch_bend_c, 3, 7680
3, 53520, Pitch_bend_c, 3, 7168
3, 53640, Pitch_bend_c, 3, 6656
3, 53760, Pitch_bend_c, 3, 6144
3, 53760, Pitch_bend_c, 3, 8192
3, 53760, Note_off_c, 3, 31, 95
3, 53760, Note_on_c, 2, 28, 95
3, 54720, Note_off_c, 2, 28, 95
3, 54720, Note_on_c, 2, 28, 95
3, 55680, Note_off_c, 2, 28, 95
3, 55680, Note_on_c, 2, 38, 95
3, 55920, Note_off_c, 2, 38, 95
3, 55920, Note_on_c, 2, 38, 95
3, 56160, Note_off_c, 2, 38, 95
3, 56160, Note_on_c, 2, 38, 95
3, 56400, Note_off_c, 2, 38, 95
3, 56400, Note_on_c, 2, 38, 95
3, 56640, Note_off_c, 2, 38, 95
3, 56640, Note_on_c, 2, 38, 95
3, 57120, Note_off_c, 2, 38, 95
3, 57120, Note_on_c, 2, 38, 95
3, 57600, Note_off_c, 2, 38, 95
3, 57600, Note_on_c, 2, 33, 95
3, 57840, Note_off_c, 2, 33, 95
3, 57840, Note_on_c, 2, 33, 95
3, 58080, Note_off_c, 2, 33, 95
3, 58080, Note_on_c, 2, 33, 95
3, 58320, Note_off_c, 2, 33, 95
3, 58320, Note_on_c, 2, 33, 95
3, 58560, Note_off_c, 2, 33, 95
3, 58560, Note_on_c, 2, 33, 95
3, 58800, Note_off_c, 2, 33, 95
3, 58800, Note_on_c, 2, 28, 95
3, 58850, Note_off_c, 2, 28, 95
3, 59040, Note_on_c, 2, 31, 95
3, 59280, Note_off_c, 2, 31, 95
3, 59280, Note_on_c, 2, 31, 95
3, 59520, Note_off_c, 2, 31, 95
3, 59520, Note_on_c, 2, 31, 95
3, 59760, Note_off_c, 2, 31, 95
3, 59760, Note_on_c, 2, 33, 95
3, 60000, Note_off_c, 2, 33, 95
3, 60000, Note_on_c, 2, 33, 95
3, 60240, Note_off_c, 2, 33, 95
3, 60240, Note_on_c, 2, 33, 95
3, 60480, Note_off_c, 2, 33, 95
3, 60480, Note_on_c, 2, 33, 95
3, 60960, Note_off_c, 2, 33, 95
3, 60960, Note_on_c, 3, 31, 95
3, 61080, Pitch_bend_c, 3, 7680
3, 61200, Pitch_bend_c, 3, 7168
3, 61320, Pitch_bend_c, 3, 6656
3, 61440, Pitch_bend_c, 3, 6144
3, 61440, Pitch_bend_c, 3, 8192
3, 61440, Note_off_c, 3, 31, 95
3, 61440, Note_on_c, 2, 28, 95
3, 62400, Note_off_c, 2, 28, 95
3, 62400, Note_on_c, 2, 28, 95
3, 63360, Note_off_c, 2, 28, 95
3, 63360, Note_on_c, 2, 38, 95
3, 63600, Note_off_c, 2, 38, 95
3, 63600, Note_on_c, 2, 38, 95
3, 63840, Note_off_c, 2, 38, 95
3, 63840, Note_on_c, 2, 38, 95
3, 64080, Note_off_c, 2, 38, 95
3, 64080, Note_on_c, 2, 38, 95
3, 64320, Note_off_c, 2, 38, 95
3, 64320, Note_on_c, 2, 38, 95
3, 64800, Note_off_c, 2, 38, 95
3, 64800, Note_on_c, 2, 38, 95
3, 65280, Note_off_c, 2, 38, 95
3, 65280, Note_on_c, 2, 33, 95
3, 65520, Note_off_c, 2, 33, 95
3, 65520, Note_on_c, 2, 33, 95
3, 65760, Note_off_c, 2, 33, 95
3, 65760, Note_on_c, 2, 33, 95
3, 66000, Note_off_c, 2, 33, 95
3, 66000, Note_on_c, 2, 33, 95
3, 66240, Note_off_c, 2, 33, 95
3, 66240, Note_on_c, 2, 33, 95
3, 66480, Note_off_c, 2, 33, 95
3, 66480, Note_on_c, 2, 28, 95
3, 66530, Note_off_c, 2, 28, 95
3, 66720, Note_on_c, 2, 31, 95
3, 66960, Note_off_c, 2, 31, 95
3, 66960, Note_on_c, 2, 31, 95
3, 67200, Note_off_c, 2, 31, 95
3, 67200, Note_on_c, 2, 31, 95
3, 67440, Note_off_c, 2, 31, 95
3, 67440, Note_on_c, 2, 33, 95
3, 67680, Note_off_c, 2, 33, 95
3, 67680, Note_on_c, 2, 33, 95
3, 67920, Note_off_c, 2, 33, 95
3, 67920, Note_on_c, 2, 33, 95
3, 68160, Note_off_c, 2, 33, 95
3, 68160, Note_on_c, 2, 33, 95
3, 68640, Note_off_c, 2, 33, 95
3, 68640, Note_on_c, 3, 31, 95
3, 68760, Pitch_bend_c, 3, 7680
3, 68880, Pitch_bend_c, 3, 7168
3, 69000, Pitch_bend_c, 3, 6656
3, 69120, Pitch_bend_c, 3, 6144
3, 69120, Pitch_bend_c, 3, 8192
3, 69120, Note_off_c, 3, 31, 95
3, 69120, Note_on_c, 2, 28, 95
3, 70080, Note_off_c, 2, 28, 95
3, 70080, Note_on_c, 2, 28, 95
3, 71040, Note_off_c, 2, 28, 95
3, 71040, Note_on_c, 2, 38, 95
3, 71280, Note_off_c, 2, 38, 95
3, 71280, Note_on_c, 2, 38, 95
3, 71520, Note_off_c, 2, 38, 95
3, 71520, Note_on_c, 2, 38, 95
3, 71760, Note_off_c, 2, 38, 95
3, 71760, Note_on_c, 2, 38, 95
3, 72000, Note_off_c, 2, 38, 95
3, 72000, Note_on_c, 2, 38, 95
3, 72480, Note_off_c, 2, 38, 95
3, 72480, Note_on_c, 2, 38, 95
3, 72960, Note_off_c, 2, 38, 95
3, 72960, Note_on_c, 2, 33, 95
3, 73200, Note_off_c, 2, 33, 95
3, 73200, Note_on_c, 2, 33, 95
3, 73440, Note_off_c, 2, 33, 95
3, 73440, Note_on_c, 2, 33, 95
3, 73680, Note_off_c, 2, 33, 95
3, 73680, Note_on_c, 2, 33, 95
3, 73920, Note_off_c, 2, 33, 95
3, 73920, Note_on_c, 2, 33, 95
3, 74160, Note_off_c, 2, 33, 95
3, 74160, Note_on_c, 2, 28, 95
3, 74210, Note_off_c, 2, 28, 95
3, 74400, Note_on_c, 2, 31, 95
3, 74640, Note_off_c, 2, 31, 95
3, 74640, Note_on_c, 2, 31, 95
3, 74880, Note_off_c, 2, 31, 95
3, 74880, Note_on_c, 2, 31, 95
3, 75120, Note_off_c, 2, 31, 95
3, 75120, Note_on_c, 2, 33, 95
3, 75360, Note_off_c, 2, 33, 95
3, 75360, Note_on_c, 2, 33, 95
3, 75600, Note_off_c, 2, 33, 95
3, 75600, Note_on_c, 2, 33, 95
3, 75840, Note_off_c, 2, 33, 95
3, 75840, Note_on_c, 2, 33, 95
3, 76320, Note_off_c, 2, 33, 95
3, 76320, Note_on_c, 3, 31, 95
3, 76800, Note_off_c, 3, 31, 95
3, 107520, Note_on_c, 2, 28, 95
3, 108480, Note_off_c, 2, 28, 95
3, 108480, Note_on_c, 2, 28, 95
3, 109440, Note_off_c, 2, 28, 95
3, 109440, Note_on_c, 2, 38, 95
3, 109680, Note_off_c, 2, 38, 95
3, 109680, Note_on_c, 2, 38, 95
3, 109920, Note_off_c, 2, 38, 95
3, 109920, Note_on_c, 2, 38, 95
3, 110160, Note_off_c, 2, 38, 95
3, 110160, Note_on_c, 2, 38, 95
3, 110400, Note_off_c, 2, 38, 95
3, 110400, Note_on_c, 2, 38, 95
3, 110880, Note_off_c, 2, 38, 95
3, 110880, Note_on_c, 2, 38, 95
3, 111360, Note_off_c, 2, 38, 95
3, 111360, Note_on_c, 2, 33, 95
3, 111600, Note_off_c, 2, 33, 95
3, 111600, Note_on_c, 2, 33, 95
3, 111840, Note_off_c, 2, 33, 95
3, 111840, Note_on_c, 2, 33, 95
3, 112080, Note_off_c, 2, 33, 95
3, 112080, Note_on_c, 2, 33, 95
3, 112320, Note_off_c, 2, 33, 95
3, 112320, Note_on_c, 2, 33, 95
3, 112560, Note_off_c, 2, 33, 95
3, 112560, Note_on_c, 2, 28, 95
3, 112610, Note_off_c, 2, 28, 95
3, 112800, Note_on_c, 2, 31, 95
3, 113040, Note_off_c, 2, 31, 95
3, 113040, Note_on_c, 2, 31, 95
3, 113280, Note_off_c, 2, 31, 95
3, 113280, Note_on_c, 2, 31, 95
3, 113520, Note_off_c, 2, 31, 95
3, 113520, Note_on_c, 2, 33, 95
3, 113760, Note_off_c, 2, 33, 95
3, 113760, Note_on_c, 2, 33, 95
3, 114000, Note_off_c, 2, 33, 95
3, 114000, Note_on_c, 2, 33, 95
3, 114240, Note_off_c, 2, 33, 95
3, 114240, Note_on_c, 2, 33, 95
3, 114720, Note_off_c, 2, 33, 95
3, 114720, Note_on_c, 3, 31, 95
3, 114840, Pitch_bend_c, 3, 7680
3, 114960, Pitch_bend_c, 3, 7168
3, 115080, Pitch_bend_c, 3, 6656
3, 115200, Pitch_bend_c, 3, 6144
3, 115200, Pitch_bend_c, 3, 8192
3, 115200, Note_off_c, 3, 31, 95
3, 115200, Note_on_c, 2, 28, 95
3, 116160, Note_off_c, 2, 28, 95
3, 116160, Note_on_c, 2, 28, 95
3, 117120, Note_off_c, 2, 28, 95
3, 117120, Note_on_c, 2, 38, 95
3, 117360, Note_off_c, 2, 38, 95
3, 117360, Note_on_c, 2, 38, 95
3, 117600, Note_off_c, 2, 38, 95
3, 117600, Note_on_c, 2, 38, 95
3, 117840, Note_off_c, 2, 38, 95
3, 117840, Note_on_c, 2, 38, 95
3, 118080, Note_off_c, 2, 38, 95
3, 118080, Note_on_c, 2, 38, 95
3, 118560, Note_off_c, 2, 38, 95
3, 118560, Note_on_c, 2, 38, 95
3, 119040, Note_off_c, 2, 38, 95
3, 119040, Note_on_c, 2, 33, 95
3, 119280, Note_off_c, 2, 33, 95
3, 119280, Note_on_c, 2, 33, 95
3, 119520, Note_off_c, 2, 33, 95
3, 119520, Note_on_c, 2, 33, 95
3, 119760, Note_off_c, 2, 33, 95
3, 119760, Note_on_c, 2, 33, 95
3, 120000, Note_off_c, 2, 33, 95
3, 120000, Note_on_c, 2, 33, 95
3, 120240, Note_off_c, 2, 33, 95
3, 120240, Note_on_c, 2, 28, 95
3, 120290, Note_off_c, 2, 28, 95
3, 120480, Note_on_c, 2, 31, 95
3, 120720, Note_off_c, 2, 31, 95
3, 120720, Note_on_c, 2, 31, 95
3, 120960, Note_off_c, 2, 31, 95
3, 120960, Note_on_c, 2, 31, 95
3, 121200, Note_off_c, 2, 31, 95
3, 121200, Note_on_c, 2, 33, 95
3, 121440, Note_off_c, 2, 33, 95
3, 121440, Note_on_c, 2, 33, 95
3, 121680, Note_off_c, 2, 33, 95
3, 121680, Note_on_c, 2, 33, 95
3, 121920, Note_off_c, 2, 33, 95
3, 121920, Note_on_c, 2, 33, 95
3, 122400, Note_off_c, 2, 33, 95
3, 122400, Note_on_c, 3, 31, 95
3, 122520, Pitch_bend_c, 3, 7680
3, 122640, Pitch_bend_c, 3, 7168
3, 122760, Pitch_bend_c, 3, 6656
3, 122880, Pitch_bend_c, 3, 6144
3, 122880, Pitch_bend_c, 3, 8192
3, 122880, Note_off_c, 3, 31, 95
3, 122880, Note_on_c, 2, 28, 95
3, 123840, Note_off_c, 2, 28, 95
3, 123840, Note_on_c, 2, 28, 95
3, 124800, Note_off_c, 2, 28, 95
3, 124800, Note_on_c, 2, 38, 95
3, 125040, Note_off_c, 2, 38, 95
3, 125040, Note_on_c, 2, 38, 95
3, 125280, Note_off_c, 2, 38, 95
3, 125280, Note_on_c, 2, 38, 95
3, 125520, Note_off_c, 2, 38, 95
3, 125520, Note_on_c, 2, 38, 95
3, 125760, Note_off_c, 2, 38, 95
3, 125760, Note_on_c, 2, 38, 95
3, 126240, Note_off_c, 2, 38, 95
3, 126240, Note_on_c, 2, 38, 95
3, 126720, Note_off_c, 2, 38, 95
3, 126720, Note_on_c, 2, 33, 95
3, 126960, Note_off_c, 2, 33, 95
3, 126960, Note_on_c, 2, 33, 95
3, 127200, Note_off_c, 2, 33, 95
3, 127200, Note_on_c, 2, 33, 95
3, 127440, Note_off_c, 2, 33, 95
3, 127440, Note_on_c, 2, 33, 95
3, 127680, Note_off_c, 2, 33, 95
3, 127680, Note_on_c, 2, 33, 95
3, 127920, Note_off_c, 2, 33, 95
3, 127920, Note_on_c, 2, 28, 95
3, 127970, Note_off_c, 2, 28, 95
3, 128160, Note_on_c, 2, 31, 95
3, 128400, Note_off_c, 2, 31, 95
3, 128400, Note_on_c, 2, 31, 95
3, 128640, Note_off_c, 2, 31, 95
3, 128640, Note_on_c, 2, 31, 95
3, 128880, Note_off_c, 2, 31, 95
3, 128880, Note_on_c, 2, 33, 95
3, 129120, Note_off_c, 2, 33, 95
3, 129120, Note_on_c, 2, 33, 95
3, 129360, Note_off_c, 2, 33, 95
3, 129360, Note_on_c, 2, 33, 95
3, 129600, Note_off_c, 2, 33, 95
3, 129600, Note_on_c, 2, 33, 95
3, 130080, Note_off_c, 2, 33, 95
3, 130080, Note_on_c, 3, 31, 95
3, 130200, Pitch_bend_c, 3, 7680
3, 130320, Pitch_bend_c, 3, 7168
3, 130440, Pitch_bend_c, 3, 6656
3, 130560, Pitch_bend_c, 3, 6144
3, 130560, Pitch_bend_c, 3, 8192
3, 130560, Note_off_c, 3, 31, 95
3, 130560, Note_on_c, 2, 28, 95
3, 131520, Note_off_c, 2, 28, 95
3, 131520, Note_on_c, 2, 28, 95
3, 132480, Note_off_c, 2, 28, 95
3, 132480, Note_on_c, 2, 38, 95
3, 132720, Note_off_c, 2, 38, 95
3, 132720, Note_on_c, 2, 38, 95
3, 132960, Note_off_c, 2, 38, 95
3, 132960, Note_on_c, 2, 38, 95
3, 133200, Note_off_c, 2, 38, 95
3, 133200, Note_on_c, 2, 38, 95
3, 133440, Note_off_c, 2, 38, 95
3, 133440, Note_on_c, 2, 38, 95
3, 133920, Note_off_c, 2, 38, 95
3, 133920, Note_on_c, 2, 38, 95
3, 134400, Note_off_c, 2, 38, 95
3, 134400, Note_on_c, 2, 33, 95
3, 134640, Note_off_c, 2, 33, 95
3, 134640, Note_on_c, 2, 33, 95
3, 134880, Note_off_c, 2, 33, 95
3, 134880, Note_on_c, 2, 33, 95
3, 135120, Note_off_c, 2, 33, 95
3, 135120, Note_on_c, 2, 33, 95
3, 135360, Note_off_c, 2, 33, 95
3, 135360, Note_on_c, 2, 33, 95
3, 135600, Note_off_c, 2, 33, 95
3, 135600, Note_on_c, 2, 28, 95
3, 135650, Note_off_c, 2, 28, 95
3, 135840, Note_on_c, 2, 31, 95
3, 136080, Note_off_c, 2, 31, 95
3, 136080, Note_on_c, 2, 31, 95
3, 136320, Note_off_c, 2, 31, 95
3, 136320, Note_on_c, 2, 31, 95
3, 136560, Note_off_c, 2, 31, 95
3, 136560, Note_on_c, 2, 33, 95
3, 136800, Note_off_c, 2, 33, 95
3, 136800, Note_on_c, 2, 33, 95
3, 137040, Note_off_c, 2, 33, 95
3, 137040, Note_on_c, 2, 33, 95
3, 137280, Note_off_c, 2, 33, 95
3, 137280, Note_on_c, 2, 33, 95
3, 137760, Note_off_c, 2, 33, 95
3, 137760, Note_on_c, 3, 31, 95
3, 138240, Note_off_c, 3, 31, 95
3, 168960, Note_on_c, 2, 28, 95
3, 169920, Note_off_c, 2, 28, 95
3, 169920, Note_on_c, 2, 28, 95
3, 170880, Note_off_c, 2, 28, 95
3, 170880, Note_on_c, 2, 38, 95
3, 171120, Note_off_c, 2, 38, 95
3, 171120, Note_on_c, 2, 38, 95
3, 171360, Note_off_c, 2, 38, 95
3, 171360, Note_on_c, 2, 38, 95
3, 171600, Note_off_c, 2, 38, 95
3, 171600, Note_on_c, 2, 38, 95
3, 171840, Note_off_c, 2, 38, 95
3, 171840, Note_on_c, 2, 38, 95
3, 172320, Note_off_c, 2, 38, 95
3, 172320, Note_on_c, 2, 38, 95
3, 172800, Note_off_c, 2, 38, 95
3, 172800, Note_on_c, 2, 33, 95
3, 173040, Note_off_c, 2, 33, 95
3, 173040, Note_on_c, 2, 33, 95
3, 173280, Note_off_c, 2, 33, 95
3, 173280, Note_on_c, 2, 33, 95
3, 173520, Note_off_c, 2, 33, 95
3, 173520, Note_on_c, 2, 33, 95
3, 173760, Note_off_c, 2, 33, 95
3, 173760, Note_on_c, 2, 33, 95
3, 174000, Note_off_c, 2, 33, 95
3, 174000, Note_on_c, 2, 28, 95
3, 174050, Note_off_c, 2, 28, 95
3, 174240, Note_on_c, 2, 31, 95
3, 174480, Note_off_c, 2, 31, 95
3, 174480, Note_on_c, 2, 31, 95
3, 174720, Note_off_c, 2, 31, 95
3, 174720, Note_on_c, 2, 31, 95
3, 174960, Note_off_c, 2, 31, 95
3, 174960, Note_on_c, 2, 33, 95
3, 175200, Note_off_c, 2, 33, 95
3, 175200, Note_on_c, 2, 33, 95
3, 175440, Note_off_c, 2, 33, 95
3, 175440, Note_on_c, 2, 33, 95
3, 175680, Note_off_c, 2, 33, 95
3, 175680, Note_on_c, 2, 33, 95
3, 176160, Note_off_c, 2, 33, 95
3, 176160, Note_on_c, 3, 31, 95
3, 176280, Pitch_bend_c, 3, 7680
3, 176400, Pitch_bend_c, 3, 7168
3, 176520, Pitch_bend_c, 3, 6656
3, 176640, Pitch_bend_c, 3, 6144
3, 176640, Pitch_bend_c, 3, 8192
3, 176640, Note_off_c, 3, 31, 95
3, 176640, Note_on_c, 2, 28, 95
3, 177600, Note_off_c, 2, 28, 95
3, 177600, Note_on_c, 2, 28, 95
3, 178560, Note_off_c, 2, 28, 95
3, 178560, Note_on_c, 2, 38, 95
3, 178800, Note_off_c, 2, 38, 95
3, 178800, Note_on_c, 2, 38, 95
3, 179040, Note_off_c, 2, 38, 95
3, 179040, Note_on_c, 2, 38, 95
3, 179280, Note_off_c, 2, 38, 95
3, 179280, Note_on_c, 2, 38, 95
3, 179520, Note_off_c, 2, 38, 95
3, 179520, Note_on_c, 2, 38, 95
3, 180000, Note_off_c, 2, 38, 95
3, 180000, Note_on_c, 2, 38, 95
3, 180480, Note_off_c, 2, 38, 95
3, 180480, Note_on_c, 2, 33, 95
3, 180720, Note_off_c, 2, 33, 95
3, 180720, Note_on_c, 2, 33, 95
3, 180960, Note_off_c, 2, 33, 95
3, 180960, Note_on_c, 2, 33, 95
3, 181200, Note_off_c, 2, 33, 95
3, 181200, Note_on_c, 2, 33, 95
3, 181440, Note_off_c, 2, 33, 95
3, 181440, Note_on_c, 2, 33, 95
3, 181680, Note_off_c, 2, 33, 95
3, 181680, Note_on_c, 2, 28, 95
3, 181730, Note_off_c, 2, 28, 95
3, 181920, Note_on_c, 2, 31, 95
3, 182160, Note_off_c, 2, 31, 95
3, 182160, Note_on_c, 2, 31, 95
3, 182400, Note_off_c, 2, 31, 95
3, 182400, Note_on_c, 2, 31, 95
3, 182640, Note_off_c, 2, 31, 95
3, 182640, Note_on_c, 2, 33, 95
3, 182880, Note_off_c, 2, 33, 95
3, 182880, Note_on_c, 2, 33, 95
3, 183120, Note_off_c, 2, 33, 95
3, 183120, Note_on_c, 2, 33, 95
3, 183360, Note_off_c, 2, 33, 95
3, 183360, Note_on_c, 2, 33, 95
3, 183840, Note_off_c, 2, 33, 95
3, 183840, Note_on_c, 3, 31, 95
3, 183960, Pitch_bend_c, 3, 7680
3, 184080, Pitch_bend_c, 3, 7168
3, 184200, Pitch_bend_c, 3, 6656
3, 184320, Pitch_bend_c, 3, 6144
3, 184320, Pitch_bend_c, 3, 8192
3, 184320, Note_off_c, 3, 31, 95
3, 184320, Note_on_c, 2, 28, 95
3, 185280, Note_off_c, 2, 28, 95
3, 185280, Note_on_c, 2, 28, 95
3, 186240, Note_off_c, 2, 28, 95
3, 186240, Note_on_c, 2, 38, 95
3, 186480, Note_off_c, 2, 38, 95
3, 186480, Note_on_c, 2, 38, 95
3, 186720, Note_off_c, 2, 38, 95
3, 186720, Note_on_c, 2, 38, 95
3, 186960, Note_off_c, 2, 38, 95
3, 186960, Note_on_c, 2, 38, 95
3, 187200, Note_off_c, 2, 38, 95
3, 187200, Note_on_c, 2, 38, 95
3, 187680, Note_off_c, 2, 38, 95
3, 187680, Note_on_c, 2, 38, 95
3, 188160, Note_off_c, 2, 38, 95
3, 188160, Note_on_c, 2, 33, 95
3, 188400, Note_off_c, 2, 33, 95
3, 188400, Note_on_c, 2, 33, 95
3, 188640, Note_off_c, 2, 33, 95
3, 188640, Note_on_c, 2, 33, 95
3, 188880, Note_off_c, 2, 33, 95
3, 188880, Note_on_c, 2, 33, 95
3, 189120, Note_off_c, 2, 33, 95
3, 189120, Note_on_c, 2, 33, 95
3, 189360, Note_off_c, 2, 33, 95
3, 189360, Note_on_c, 2, 28, 95
3, 189410, Note_off_c, 2, 28, 95
3, 189600, Note_on_c, 2, 31, 95
3, 189840, Note_off_c, 2, 31, 95
3, 189840, Note_on_c, 2, 31, 95
3, 190080, Note_off_c, 2, 31, 95
3, 190080, Note_on_c, 2, 31, 95
3, 190320, Note_off_c, 2, 31, 95
3, 190320, Note_on_c, 2, 33, 95
3, 190560, Note_off_c, 2, 33, 95
3, 190560, Note_on_c, 2, 33, 95
3, 190800, Note_off_c, 2, 33, 95
3, 190800, Note_on_c, 2, 33, 95
3, 191040, Note_off_c, 2, 33, 95
3, 191040, Note_on_c, 2, 33, 95
3, 191520, Note_off_c, 2, 33, 95
3, 191520, Note_on_c, 3, 31, 95
3, 192000, Note_off_c, 3, 31, 95
3, 199680, Note_on_c, 2, 28, 95
3, 200640, Note_off_c, 2, 28, 95
3, 200640, Note_on_c, 2, 28, 95
3, 201600, Note_off_c, 2, 28, 95
3, 201600, Note_on_c, 2, 38, 95
3, 201840, Note_off_c, 2, 38, 95
3, 201840, Note_on_c, 2, 38, 95
3, 202080, Note_off_c, 2, 38, 95
3, 202080, Note_on_c, 2, 38, 95
3, 202320, Note_off_c, 2, 38, 95
3, 202320, Note_on_c, 2, 38, 95
3, 202560, Note_off_c, 2, 38, 95
3, 202560, Note_on_c, 2, 38, 95
3, 203040, Note_off_c, 2, 38, 95
3, 203040, Note_on_c, 2, 38, 95
3, 203520, Note_off_c, 2, 38, 95
3, 203520, Note_on_c, 2, 33, 95
3, 203760, Note_off_c, 2, 33, 95
3, 203760, Note_on_c, 2, 33, 95
3, 204000, Note_off_c, 2, 33, 95
3, 204000, Note_on_c, 2, 33, 95
3, 204240, Note_off_c, 2, 33, 95
3, 204240, Note_on_c, 2, 33, 95
3, 204480, Note_off_c, 2, 33, 95
3, 204480, Note_on_c, 2, 33, 95
3, 204720, Note_off_c, 2, 33, 95
3, 204720, Note_on_c, 2, 28, 95
3, 204770, Note_off_c, 2, 28, 95
3, 204960, Note_on_c, 2, 31, 95
3, 205200, Note_off_c, 2, 31, 95
3, 205200, Note_on_c, 2, 31, 95
3, 205440, Note_off_c, 2, 31, 95
3, 205440, Note_on_c, 2, 31, 95
3, 205680, Note_off_c, 2, 31, 95
3, 205680, Note_on_c, 2, 33, 95
3, 205920, Note_off_c, 2, 33, 95
3, 205920, Note_on_c, 2, 33, 95
3, 206160, Note_off_c, 2, 33, 95
3, 206160, Note_on_c, 2, 33, 95
3, 206400, Note_off_c, 2, 33, 95
3, 206400, Note_on_c, 2, 33, 95
3, 206880, Note_off_c, 2, 33, 95
3, 206880, Note_on_c, 3, 31, 95
3, 207000, Pitch_bend_c, 3, 7680
3, 207120, Pitch_bend_c, 3, 7168
3, 207240, Pitch_bend_c, 3, 6656
3, 207360, Pitch_bend_c, 3, 6144
3, 207360, Pitch_bend_c, 3, 8192
3, 207360, Note_off_c, 3, 31, 95
3, 207360, Note_on_c, 2, 28, 95
3, 208320, Note_off_c, 2, 28, 95
3, 208320, Note_on_c, 2, 28, 95
3, 209280, Note_off_c, 2, 28, 95
3, 209280, Note_on_c, 2, 38, 95
3, 209520, Note_off_c, 2, 38, 95
3, 209520, Note_on_c, 2, 38, 95
3, 209760, Note_off_c, 2, 38, 95
3, 209760, Note_on_c, 2, 38, 95
3, 210000, Note_off_c, 2, 38, 95
3, 210000, Note_on_c, 2, 38, 95
3, 210240, Note_off_c, 2, 38, 95
3, 210240, Note_on_c, 2, 38, 95
3, 210720, Note_off_c, 2, 38, 95
3, 210720, Note_on_c, 2, 38, 95
3, 211200, Note_off_c, 2, 38, 95
3, 211200, Note_on_c, 2, 33, 95
3, 211440, Note_off_c, 2, 33, 95
3, 211440, Note_on_c, 2, 33, 95
3, 211680, Note_off_c, 2, 33, 95
3, 211680, Note_on_c, 2, 33, 95
3, 211920, Note_off_c, 2, 33, 95
3, 211920, Note_on_c, 2, 33, 95
3, 212160, Note_off_c, 2, 33, 95
3, 212160, Note_on_c, 2, 33, 95
3, 212400, Note_off_c, 2, 33, 95
3, 212400, Note_on_c, 2, 28, 95
3, 212450, Note_off_c, 2, 28, 95
3, 212640, Note_on_c, 2, 31, 95
3, 212880, Note_off_c, 2, 31, 95
3, 212880, Note_on_c, 2, 31, 95
3, 213120, Note_off_c, 2, 31, 95
3, 213120, Note_on_c, 2, 31, 95
3, 213360, Note_off_c, 2, 31, 95
3, 213360, Note_on_c, 2, 33, 95
3, 213600, Note_off_c, 2, 33, 95
3, 213600, Note_on_c, 2, 33, 95
3, 213840, Note_off_c, 2, 33, 95
3, 213840, Note_on_c, 2, 33, 95
3, 214080, Note_off_c, 2, 33, 95
3, 214080, Note_on_c, 2, 33, 95
3, 214560, Note_off_c, 2, 33, 95
3, 214560, Note_on_c, 3, 31, 95
3, 214680, Pitch_bend_c, 3, 7680
3, 214800, Pitch_bend_c, 3, 7168
3, 214920, Pitch_bend_c, 3, 6656
3, 215040, Pitch_bend_c, 3, 6144
3, 215040, Pitch_bend_c, 3, 8192
3, 215040, Note_off_c, 3, 31, 95
3, 215040, Note_on_c, 2, 28, 95
3, 216000, Note_off_c, 2, 28, 95
3, 216000, Note_on_c, 2, 28, 95
3, 216960, Note_off_c, 2, 28, 95
3, 216960, Note_on_c, 2, 38, 95
3, 217200, Note_off_c, 2, 38, 95
3, 217200, Note_on_c, 2, 38, 95
3, 217440, Note_off_c, 2, 38, 95
3, 217440, Note_on_c, 2, 38, 95
3, 217680, Note_off_c, 2, 38, 95
3, 217680, Note_on_c, 2, 38, 95
3, 217920, Note_off_c, 2, 38, 95
3, 217920, Note_on_c, 2, 38, 95
3, 218400, Note_off_c, 2, 38, 95
3, 218400, Note_on_c, 2, 38, 95
3, 218880, Note_off_c, 2, 38, 95
3, 218880, Note_on_c, 2, 33, 95
3, 219120, Note_off_c, 2, 33, 95
3, 219120, Note_on_c, 2, 33, 95
3, 219360, Note_off_c, 2, 33, 95
3, 219360, Note_on_c, 2, 33, 95
3, 219600, Note_off_c, 2, 33, 95
3, 219600, Note_on_c, 2, 33, 95
3, 219840, Note_off_c, 2, 33, 95
3, 219840, Note_on_c, 2, 33, 95
3, 220080, Note_off_c, 2, 33, 95
3, 220080, Note_on_c, 2, 28, 95
3, 220130, Note_off_c, 2, 28, 95
3, 220320, Note_on_c, 2, 31, 95
3, 220560, Note_off_c, 2, 31, 95
3, 220560, Note_on_c, 2, 31, 95
3, 220800, Note_off_c, 2, 31, 95
3, 220800, Note_on_c, 2, 31, 95
3, 221040, Note_off_c, 2, 31, 95
3, 221040, Note_on_c, 2, 33, 95
3, 221280, Note_off_c, 2, 33, 95
3, 221280, Note_on_c, 2, 33, 95
3, 221520, Note_off_c, 2, 33, 95
3, 221520, Note_on_c, 2, 33, 95
3, 221760, Note_off_c, 2, 33, 95
3, 221760, Note_on_c, 2, 33, 95
3, 222240, Note_off_c, 2, 33, 95
3, 222240, Note_on_c, 3, 31, 95
3, 222360, Pitch_bend_c, 3, 7680
3, 222480, Pitch_bend_c, 3, 7168
3, 222600, Pitch_bend_c, 3, 6656
3, 222720, Pitch_bend_c, 3, 6144
3, 222720, Pitch_bend_c, 3, 8192
3, 222720, Note_off_c, 3, 31, 95
3, 222720, Note_on_c, 2, 28, 95
3, 223680, Note_off_c, 2, 28, 95
3, 223680, Note_on_c, 2, 28, 95
3, 224640, Note_off_c, 2, 28, 95
3, 224640, Note_on_c, 2, 38, 95
3, 224880, Note_off_c, 2, 38, 95
3, 224880, Note_on_c, 2, 38, 95
3, 225120, Note_off_c, 2, 38, 95
3, 225120, Note_on_c, 2, 38, 95
3, 225360, Note_off_c, 2, 38, 95
3, 225360, Note_on_c, 2, 38, 95
3, 225600, Note_off_c, 2, 38, 95
3, 225600, Note_on_c, 2, 38, 95
3, 226080, Note_off_c, 2, 38, 95
3, 226080, Note_on_c, 2, 38, 95
3, 226560, Note_off_c, 2, 38, 95
3, 226560, Note_on_c, 2, 33, 95
3, 226800, Note_off_c, 2, 33, 95
3, 226800, Note_on_c, 2, 33, 95
3, 227040, Note_off_c, 2, 33, 95
3, 227040, Note_on_c, 2, 33, 95
3, 227280, Note_off_c, 2, 33, 95
3, 227280, Note_on_c, 2, 33, 95
3, 227520, Note_off_c, 2, 33, 95
3, 227520, Note_on_c, 2, 33, 95
3, 227760, Note_off_c, 2, 33, 95
3, 227760, Note_on_c, 2, 28, 95
3, 227810, Note_off_c, 2, 28, 95
3, 228000, Note_on_c, 2, 31, 95
3, 228240, Note_off_c, 2, 31, 95
3, 228240, Note_on_c, 2, 31, 95
3, 228480, Note_off_c, 2, 31, 95
3, 228480, Note_on_c, 2, 31, 95
3, 228720, Note_off_c, 2, 31, 95
3, 228720, Note_on_c, 2, 33, 95
3, 228960, Note_off_c, 2, 33, 95
3, 228960, Note_on_c, 2, 33, 95
3, 229200, Note_off_c, 2, 33, 95
3, 229200, Note_on_c, 2, 33, 95
3, 229440, Note_off_c, 2, 33, 95
3, 229440, Note_on_c, 2, 33, 95
3, 229920, Note_off_c, 2, 33, 95
3, 229920, Note_on_c, 3, 31, 95
3, 230400, Note_off_c, 3, 31, 95
3, 261120, Note_on_c, 2, 28, 95
3, 262080, Note_off_c, 2, 28, 95
3, 262080, Note_on_c, 2, 28, 95
3, 263040, Note_off_c, 2, 28, 95
3, 263040, Note_on_c, 2, 38, 95
3, 263280, Note_off_c, 2, 38, 95
3, 263280, Note_on_c, 2, 38, 95
3, 263520, Note_off_c, 2, 38, 95
3, 263520, Note_on_c, 2, 38, 95
3, 263760, Note_off_c, 2, 38, 95
3, 263760, Note_on_c, 2, 38, 95
3, 264000, Note_off_c, 2, 38, 95
3, 264000, Note_on_c, 2, 38, 95
3, 264480, Note_off_c, 2, 38, 95
3, 264480, Note_on_c, 2, 38, 95
3, 264960, Note_off_c, 2, 38, 95
3, 264960, Note_on_c, 2, 33, 95
3, 265200, Note_off_c, 2, 33, 95
3, 265200, Note_on_c, 2, 33, 95
3, 265440, Note_off_c, 2, 33, 95
3, 265440, Note_on_c, 2, 33, 95
3, 265680, Note_off_c, 2, 33, 95
3, 265680, Note_on_c, 2, 33, 95
3, 265920, Note_off_c, 2, 33, 95
3, 265920, Note_on_c, 2, 33, 95
3, 266160, Note_off_c, 2, 33, 95
3, 266160, Note_on_c, 2, 28, 95
3, 266210, Note_off_c, 2, 28, 95
3, 266400, Note_on_c, 2, 31, 95
3, 266640, Note_off_c, 2, 31, 95
3, 266640, Note_on_c, 2, 31, 95
3, 266880, Note_off_c, 2, 31, 95
3, 266880, Note_on_c, 2, 31, 95
3, 267120, Note_off_c, 2, 31, 95
3, 267120, Note_on_c, 2, 33, 95
3, 267360, Note_off_c, 2, 33, 95
3, 267360, Note_on_c, 2, 33, 95
3, 267600, Note_off_c, 2, 33, 95
3, 267600, Note_on_c, 2, 33, 95
3, 267840, Note_off_c, 2, 33, 95
3, 267840, Note_on_c, 2, 33, 95
3, 268320, Note_off_c, 2, 33, 95
3, 268320, Note_on_c, 3, 31, 95
3, 268440, Pitch_bend_c, 3, 7680
3, 268560, Pitch_bend_c, 3, 7168
3, 268680, Pitch_bend_c, 3, 6656
3, 268800, Pitch_bend_c, 3, 6144
3, 268800, Pitch_bend_c, 3, 8192
3, 268800, Note_off_c, 3, 31, 95
3, 268800, Note_on_c, 2, 28, 95
3, 269760, Note_off_c, 2, 28, 95
3, 269760, Note_on_c, 2, 28, 95
3, 270720, Note_off_c, 2, 28, 95
3, 270720, Note_on_c, 2, 38, 95
3, 270960, Note_off_c, 2, 38, 95
3, 270960, Note_on_c, 2, 38, 95
3, 271200, Note_off_c, 2, 38, 95
3, 271200, Note_on_c, 2, 38, 95
3, 271440, Note_off_c, 2, 38, 95
3, 271440, Note_on_c, 2, 38, 95
3, 271680, Note_off_c, 2, 38, 95
3, 271680, Note_on_c, 2, 38, 95
3, 272160, Note_off_c, 2, 38, 95
3, 272160, Note_on_c, 2, 38, 95
3, 272640, Note_off_c, 2, 38, 95
3, 272640, Note_on_c, 2, 33, 95
3, 272880, Note_off_c, 2, 33, 95
3, 272880, Note_on_c, 2, 33, 95
3, 273120, Note_off_c, 2, 33, 95
3, 273120, Note_on_c, 2, 33, 95
3, 273360, Note_off_c, 2, 33, 95
3, 273360, Note_on_c, 2, 33, 95
3, 273600, Note_off_c, 2, 33, 95
3, 273600, Note_on_c, 2, 33, 95
3, 273840, Note_off_c, 2, 33, 95
3, 273840, Note_on_c, 2, 28, 95
3, 273890, Note_off_c, 2, 28, 95
3, 274080, Note_on_c, 2, 31, 95
3, 274320, Note_off_c, 2, 31, 95
3, 274320, Note_on_c, 2, 31, 95
3, 274560, Note_off_c, 2, 31, 95
3, 274560, Note_on_c, 2, 31, 95
3, 274800, Note_off_c, 2, 31, 95
3, 274800, Note_on_c, 2, 33, 95
3, 275040, Note_off_c, 2, 33, 95
3, 275040, Note_on_c, 2, 33, 95
3, 275280, Note_off_c, 2, 33, 95
3, 275280, Note_on_c, 2, 33, 95
3, 275520, Note_off_c, 2, 33, 95
3, 275520, Note_on_c, 2, 33, 95
3, 276000, Note_off_c, 2, 33, 95
3, 276000, Note_on_c, 3, 31, 95
3, 276120, Pitch_bend_c, 3, 7680
3, 276240, Pitch_bend_c, 3, 7168
3, 276360, Pitch_bend_c, 3, 6656
3, 276480, Pitch_bend_c, 3, 6144
3, 276480, Pitch_bend_c, 3, 8192
3, 276480, Note_off_c, 3, 31, 95
3, 276480, Note_on_c, 2, 28, 95
3, 277440, Note_off_c, 2, 28, 95
3, 277440, Note_on_c, 2, 28, 95
3, 278400, Note_off_c, 2, 28, 95
3, 278400, Note_on_c, 2, 38, 95
3, 278640, Note_off_c, 2, 38, 95
3, 278640, Note_on_c, 2, 38, 95
3, 278880, Note_off_c, 2, 38, 95
3, 278880, Note_on_c, 2, 38, 95
3, 279120, Note_off_c, 2, 38, 95
3, 279120, Note_on_c, 2, 38, 95
3, 279360, Note_off_c, 2, 38, 95
3, 279360, Note_on_c, 2, 38, 95
3, 279840, Note_off_c, 2, 38, 95
3, 279840, Note_on_c, 2, 38, 95
3, 280320, Note_off_c, 2, 38, 95
3, 280320, Note_on_c, 2, 33, 95
3, 280560, Note_off_c, 2, 33, 95
3, 280560, Note_on_c, 2, 33, 95
3, 280800, Note_off_c, 2, 33, 95
3, 280800, Note_on_c, 2, 33, 95
3, 281040, Note_off_c, 2, 33, 95
3, 281040, Note_on_c, 2, 33, 95
3, 281280, Note_off_c, 2, 33, 95
3, 281280, Note_on_c, 2, 33, 95
3, 281520, Note_off_c, 2, 33, 95
3, 281520, Note_on_c, 2, 28, 95
3, 281570, Note_off_c, 2, 28, 95
3, 281760, Note_on_c, 2, 31, 95
3, 282000, Note_off_c, 2, 31, 95
3, 282000, Note_on_c, 2, 31, 95
3, 282240, Note_off_c, 2, 31, 95
3, 282240, Note_on_c, 2, 31, 95
3, 282480, Note_off_c, 2, 31, 95
3, 282480, Note_on_c, 2, 33, 95
3, 282720, Note_off_c, 2, 33, 95
3, 282720, Note_on_c, 2, 33, 95
3, 282960, Note_off_c, 2, 33, 95
3, 282960, Note_on_c, 2, 33, 95
3, 283200, Note_off_c, 2, 33, 95
3, 283200, Note_on_c, 2, 33, 95
3, 283680, Note_off_c, 2, 33, 95
3, 283680, Note_on_c, 3, 31, 95
3, 283800, Pitch_bend_c, 3, 7680
3, 283920, Pitch_bend_c, 3, 7168
3, 284040, Pitch_bend_c, 3, 6656
3, 284160, Pitch_bend_c, 3, 6144
3, 284160, Pitch_bend_c, 3, 8192
3, 284160, Note_off_c, 3, 31, 95
3, 284160, Note_on_c, 2, 28, 95
3, 285120, Note_off_c, 2, 28, 95
3, 285120, Note_on_c, 2, 28, 95
3, 286080, Note_off_c, 2, 28, 95
3, 286080, Note_on_c, 2, 38, 95
3, 286320, Note_off_c, 2, 38, 95
3, 286320, Note_on_c, 2, 38, 95
3, 286560, Note_off_c, 2, 38, 95
3, 286560, Note_on_c, 2, 38, 95
3, 286800, Note_off_c, 2, 38, 95
3, 286800, Note_on_c, 2, 38, 95
3, 287040, Note_off_c, 2, 38, 95
3, 287040, Note_on_c, 2, 38, 95
3, 287520, Note_off_c, 2, 38, 95
3, 287520, Note_on_c, 2, 38, 95
3, 288000, Note_off_c, 2, 38, 95
3, 288000, Note_on_c, 2, 33, 95
3, 288240, Note_off_c, 2, 33, 95
3, 288240, Note_on_c, 2, 33, 95
3, 288480, Note_off_c, 2, 33, 95
3, 288480, Note_on_c, 2, 33, 95
3, 288720, Note_off_c, 2, 33, 95
3, 288720, Note_on_c, 2, 33, 95
3, 288960, Note_off_c, 2, 33, 95
3, 288960, Note_on_c, 2, 33, 95
3, 289200, Note_off_c, 2, 33, 95
3, 289200, Note_on_c, 2, 28, 95
3, 289250, Note_off_c, 2, 28, 95
3, 289440, Note_on_c, 2, 31, 95
3, 289680, Note_off_c, 2, 31, 95
3, 289680, Note_on_c, 2, 31, 95
3, 289920, Note_off_c, 2, 31, 95
3, 289920, Note_on_c, 2, 31, 95
3, 290160, Note_off_c, 2, 31, 95
3, 290160, Note_on_c, 2, 33, 95
3, 290400, Note_off_c, 2, 33, 95
3, 290400, Note_on_c, 2, 33, 95
3, 290640, Note_off_c, 2, 33, 95
3, 290640, Note_on_c, 2, 33, 95
3, 290880, Note_off_c, 2, 33, 95
3, 290880, Note_on_c, 2, 33, 95
3, 291360, Note_off_c, 2, 33, 95
3, 291360, Note_on_c, 3, 31, 95
3, 291840, Note_off_c, 3, 31, 95
3, 291840, End_track
4, 0, Start_track
4, 0, Pitch_bend_c, 9, 8192
4, 0, Control_c, 9, 7, 79
4, 0, Control_c, 9, 10, 63
4, 0, Control_c, 9, 93, 0
4, 0, Control_c, 9, 91, 0
4, 0, Control_c, 9, 95, 0
4, 0, Control_c, 9, 92, 0
4, 0, Control_c, 9, 11, 127
4, 0, Program_c, 9, 0
4, 0, Note_on_c, 9, 42, 95
4, 0, Note_on_c, 9, 35, 95
4, 480, Note_off_c, 9, 42, 95
4, 480, Note_off_c, 9, 35, 95
4, 480, Note_on_c, 9, 42, 95
4, 960, Note_off_c, 9, 42, 95
4, 960, Note_on_c, 9, 40, 95
4, 960, Note_on_c, 9, 42, 95
4, 1440, Note_off_c, 9, 40, 95
4, 1440, Note_off_c, 9, 42, 95
4, 1440, Note_on_c, 9, 42, 95
4, 1920, Note_off_c, 9, 42, 95
4, 1920, Note_on_c, 9, 42, 95
4, 1920, Note_on_c, 9, 35, 95
4, 2160, Note_off_c, 9, 42, 95
4, 2160, Note_off_c, 9, 35, 95
4, 2160, Note_on_c, 9, 35, 95
4, 2400, Note_off_c, 9, 35, 95
4, 2400, Note_on_c, 9, 42, 95
4, 2880, Note_off_c, 9, 42, 95
4, 2880, Note_on_c, 9, 40, 95
4, 2880, Note_on_c, 9, 42, 95
4, 3360, Note_off_c, 9, 40, 95
4, 3360, Note_off_c, 9, 42, 95
4, 3360, Note_on_c, 9, 42, 95
4, 3840, Note_off_c, 9, 42, 95
4, 3840, Note_on_c, 9, 42, 95
4, 3840, Note_on_c, 9, 35, 95
4, 4080, Note_off_c, 9, 42, 95
4, 4080, Note_off_c, 9, 35, 95
4, 4080, Note_on_c, 9, 35, 95
4, 4320, Note_off_c, 9, 35, 95
4, 4320, Note_on_c, 9, 42, 95
4, 4800, Note_off_c, 9, 42, 95
4, 4800, Note_on_c, 9, 40, 95
4, 4800, Note_on_c, 9, 42, 95
4, 5280, Note_off_c, 9, 40, 95
4, 5280, Note_off_c, 9, 42, 95
4, 5280, Note_on_c, 9, 42, 95
4, 5760, Note_off_c, 9, 42, 95
4, 5760, Note_on_c, 9, 42, 95
4, 5760, Note_on_c, 9, 35, 95
4, 6000, Note_off_c, 9, 42, 95
4, 6000, Note_off_c, 9, 35, 95
4, 6000, Note_on_c, 9, 35, 95
4, 6240, Note_off_c, 9, 35, 95
4, 6240, Note_on_c, 9, 42, 95
4, 6720, Note_off_c, 9, 42, 95
4, 6720, Note_on_c, 9, 40, 95
4, 6720, Note_on_c, 9, 42, 95
4, 7200, Note_off_c, 9, 40, 95
4, 7200, Note_off_c, 9, 42, 95
4, 7200, Note_on_c, 9, 42, 95
4, 7680, Note_off_c, 9, 42, 95
4, 7680, Note_on_c, 9, 42, 95
4, 7680, Note_on_c, 9, 35, 95
4, 7920, Note_off_c, 9, 42, 95
4, 7920, Note_off_c, 9, 35, 95
4, 7920, Note_on_c, 9, 35, 95
4, 8160, Note_off_c, 9, 35, 95
4, 8160, Note_on_c, 9, 42, 95
4, 8640, Note_off_c, 9, 42, 95
4, 8640, Note_on_c, 9, 40, 95
4, 8640, Note_on_c, 9, 42, 95
4, 9120, Note_off_c, 9, 40, 95
4, 9120, Note_off_c, 9, 42, 95
4, 9120, Note_on_c, 9, 42, 95
4, 9600, Note_off_c, 9, 42, 95
4, 9600, Note_on_c, 9, 42, 95
4, 9600, Note_on_c, 9, 35, 95
4, 9840, Note_off_c, 9, 42, 95
4, 9840, Note_off_c, 9, 35, 95
4, 9840, Note_on_c, 9, 35, 95
4, 10080, Note_off_c, 9, 35, 95
4, 10080, Note_on_c, 9, 42, 95
4, 10560, Note_off_c, 9, 42, 95
4, 10560, Note_on_c, 9, 40, 95
4, 10560, Note_on_c, 9, 42, 95
4, 11040, Note_off_c, 9, 40, 95
4, 11040, Note_off_c, 9, 42, 95
4, 11040, Note_on_c, 9, 42, 95
4, 11520, Note_off_c, 9, 42, 95
4, 11520, Note_on_c, 9, 42, 95
4, 11520, Note_on_c, 9, 35, 95
4, 11760, Note_off_c, 9, 42, 95
4, 11760, Note_off_c, 9, 35, 95
4, 11760, Note_on_c, 9, 35, 95
4, 12000, Note_off_c, 9, 35, 95
4, 12000, Note_on_c, 9, 42, 95
4, 12480, Note_off_c, 9, 42, 95
4, 12480, Note_on_c, 9, 40, 95
4, 12480, Note_on_c, 9, 42, 95
4, 12960, Note_off_c, 9, 40, 95
4, 12960, Note_off_c, 9, 42, 95
4, 12960, Note_on_c, 9, 42, 95
4, 13440, Note_off_c, 9, 42, 95
4, 13440, Note_on_c, 9, 42, 95
4, 13440, Note_on_c, 9, 35, 95
4, 13680, Note_off_c, 9, 42, 95
4, 13680, Note_off_c, 9, 35, 95
4, 13680, Note_on_c, 9, 35, 95
4, 13920, Note_off_c, 9, 35, 95
4, 13920, Note_on_c, 9, 42, 95
4, 14400, Note_off_c, 9, 42, 95
4, 14400, Note_on_c, 9, 40, 95
4, 14400, Note_on_c, 9, 42, 95
4, 14880, Note_off_c, 9, 40, 95
4, 14880, Note_off_c, 9, 42, 95
4, 14880, Note_on_c, 9, 42, 95
4, 15360, Note_off_c, 9, 42, 95
4, 15360, Note_on_c, 9, 42, 95
4, 15360, Note_on_c, 9, 35, 95
4, 15600, Note_off_c, 9, 42, 95
4, 15600, Note_off_c, 9, 35, 95
4, 15600, Note_on_c, 9, 35, 95
4, 15840, Note_off_c, 9, 35, 95
4, 15840, Note_on_c, 9, 42, 95
4, 16320, Note_off_c, 9, 42, 95
4, 16320, Note_on_c, 9, 40, 95
4, 16320, Note_on_c, 9, 42, 95
4, 16800, Note_off_c, 9, 40, 95
4, 16800, Note_off_c, 9, 42, 95
4, 16800, Note_on_c, 9, 42, 95
4, 17280, Note_off_c, 9, 42, 95
4, 17280, Note_on_c, 9, 42, 95
4, 17280, Note_on_c, 9, 35, 95
4, 17520, Note_off_c, 9, 42, 95
4, 17520, Note_off_c, 9, 35, 95
4, 17520, Note_on_c, 9, 35, 95
4, 17760, Note_off_c, 9, 35, 95
4, 17760, Note_on_c, 9, 42, 95
4, 18240, Note_off_c, 9, 42, 95
4, 18240, Note_on_c, 9, 40, 95
4, 18240, Note_on_c, 9, 42, 95
4, 18720, Note_off_c, 9, 40, 95
4, 18720, Note_off_c, 9, 42, 95
4, 18720, Note_on_c, 9, 42, 95
4, 19200, Note_off_c, 9, 42, 95
4, 19200, Note_on_c, 9, 42, 95
4, 19200, Note_on_c, 9, 35, 95
4, 19440, Note_off_c, 9, 42, 95
4, 19440, Note_off_c, 9, 35, 95
4, 19440, Note_on_c, 9, 35, 95
4, 19680, Note_off_c, 9, 35, 95
4, 19680, Note_on_c, 9, 42, 95
4, 20160, Note_off_c, 9, 42, 95
4, 20160, Note_on_c, 9, 40, 95
4, 20160, Note_on_c, 9, 42, 95
4, 20640, Note_off_c, 9, 40, 95
4, 20640, Note_off_c, 9, 42, 95
4, 20640, Note_on_c, 9, 42, 95
4, 21120, Note_off_c, 9, 42, 95
4, 21120, Note_on_c, 9, 42, 95
4, 21120, Note_on_c, 9, 35, 95
4, 21360, Note_off_c, 9, 42, 95
4, 21360, Note_off_c, 9, 35, 95
4, 21360, Note_on_c, 9, 35, 95
4, 21600, Note_off_c, 9, 35, 95
4, 21600, Note_on_c, 9, 42, 95
4, 22080, Note_off_c, 9, 42, 95
4, 22080, Note_on_c, 9, 40, 95
4, 22080, Note_on_c, 9, 42, 95
4, 22560, Note_off_c, 9, 40, 95
4, 22560, Note_off_c, 9, 42, 95
4, 22560, Note_on_c, 9, 42, 95
4, 23040, Note_off_c, 9, 42, 95
4, 23040, Note_on_c, 9, 42, 95
4, 23040, Note_on_c, 9, 35, 95
4, 23280, Note_off_c, 9, 42, 95
4, 23280, Note_off_c, 9, 35, 95
4, 23280, Note_on_c, 9, 35, 95
4, 23520, Note_off_c, 9, 35, 95
4, 23520, Note_on_c, 9, 42, 95
4, 24000, Note_off_c, 9, 42, 95
4, 24000, Note_on_c, 9, 40, 95
4, 24000, Note_on_c, 9, 42, 95
4, 24480, Note_off_c, 9, 40, 95
4, 24480, Note_off_c, 9, 42, 95
4, 24480, Note_on_c, 9, 42, 95
4, 24960, Note_off_c, 9, 42, 95
4, 24960, Note_on_c, 9, 42, 95
4, 24960, Note_on_c, 9, 35, 95
4, 25200, Note_off_c, 9, 42, 95
4, 25200, Note_off_c, 9, 35, 95
4, 25200, Note_on_c, 9, 35, 95
4, 25440, Note_off_c, 9, 35, 95
4, 25440, Note_on_c, 9, 42, 95
4, 25920, Note_off_c, 9, 42, 95
4, 25920, Note_on_c, 9, 40, 95
4, 25920, Note_on_c, 9, 42, 95
4, 26400, Note_off_c, 9, 40, 95
4, 26400, Note_off_c, 9, 42, 95
4, 26400, Note_on_c, 9, 42, 95
4, 26880, Note_off_c, 9, 42, 95
4, 26880, Note_on_c, 9, 42, 95
4, 26880, Note_on_c, 9, 35, 95
4, 27120, Note_off_c, 9, 42, 95
4, 27120, Note_off_c, 9, 35, 95
4, 27120, Note_on_c, 9, 35, 95
4, 27360, Note_off_c, 9, 35, 95
4, 27360, Note_on_c, 9, 42, 95
4, 27840, Note_off_c, 9, 42, 95
4, 27840, Note_on_c, 9, 40, 95
4, 27840, Note_on_c, 9, 42, 95
4, 28320, Note_off_c, 9, 40, 95
4, 28320, Note_off_c, 9, 42, 95
4, 28320, Note_on_c, 9, 42, 95
4, 28800, Note_off_c, 9, 42, 95
4, 28800, Note_on_c, 9, 42, 95
4, 28800, Note_on_c, 9, 35, 95
4, 29040, Note_off_c, 9, 42, 95
4, 29040, Note_off_c, 9, 35, 95
4, 29040, Note_on_c, 9, 35, 95
4, 29280, Note_off_c, 9, 35, 95
4, 29280, Note_on_c, 9, 42, 95
4, 29760, Note_off_c, 9, 42, 95
4, 29760, Note_on_c, 9, 40, 95
4, 29760, Note_on_c, 9, 42, 95
4, 30240, Note_off_c, 9, 40, 95
4, 30240, Note_off_c, 9, 42, 95
4, 30240, Note_on_c, 9, 42, 95
4, 30720, Note_off_c, 9, 42, 95
4, 30720, Note_on_c, 9, 42, 95
4, 30720, Note_on_c, 9, 35, 95
4, 30960, Note_off_c, 9, 42, 95
4, 30960, Note_off_c, 9, 35, 95
4, 30960, Note_on_c, 9, 35, 95
4, 31200, Note_off_c, 9, 35, 95
4, 31200, Note_on_c, 9, 42, 95
4, 31680, Note_off_c, 9, 42, 95
4, 31680, Note_on_c, 9, 40, 95
4, 31680, Note_on_c, 9, 42, 95
4, 32160, Note_off_c, 9, 40, 95
4, 32160, Note_off_c, 9, 42, 95
4, 32160, Note_on_c, 9, 42, 95
4, 32640, Note_off_c, 9, 42, 95
4, 32640, Note_on_c, 9, 42, 95
4, 32640, Note_on_c, 9, 35, 95
4, 32880, Note_off_c, 9, 42, 95
4, 32880, Note_off_c, 9, 35, 95
4, 32880, Note_on_c, 9, 35, 95
4, 33120, Note_off_c, 9, 35, 95
4, 33120, Note_on_c, 9, 42, 95
4, 33600, Note_off_c, 9, 42, 95
4, 33600, Note_on_c, 9, 40, 95
4, 33600, Note_on_c, 9, 42, 95
4, 34080, Note_off_c, 9, 40, 95
4, 34080, Note_off_c, 9, 42, 95
4, 34080, Note_on_c, 9, 42, 95
4, 34560, Note_off_c, 9, 42, 95
4, 34560, Note_on_c, 9, 42, 95
4, 34560, Note_on_c, 9, 35, 95
4, 34800, Note_off_c, 9, 42, 95
4, 34800, Note_off_c, 9, 35, 95
4, 34800, Note_on_c, 9, 35, 95
4, 35040, Note_off_c, 9, 35, 95
4, 35040, Note_on_c, 9, 42, 95
4, 35520, Note_off_c, 9, 42, 95
4, 35520, Note_on_c, 9, 40, 95
4, 35520, Note_on_c, 9, 42, 95
4, 36000, Note_off_c, 9, 40, 95
4, 36000, Note_off_c, 9, 42, 95
4, 36000, Note_on_c, 9, 42, 95
4, 36480, Note_off_c, 9, 42, 95
4, 36480, Note_on_c, 9, 42, 95
4, 36480, Note_on_c, 9, 35, 95
4, 36720, Note_off_c, 9, 42, 95
4, 36720, Note_off_c, 9, 35, 95
4, 36720, Note_on_c, 9, 35, 95
4, 36960, Note_off_c, 9, 35, 95
4, 36960, Note_on_c, 9, 42, 95
4, 37440, Note_off_c, 9, 42, 95
4, 37440, Note_on_c, 9, 40, 95
4, 37440, Note_on_c, 9, 42, 95
4, 37920, Note_off_c, 9, 40, 95
4, 37920, Note_off_c, 9, 42, 95
4, 37920, Note_on_c, 9, 42, 95
4, 38400, Note_off_c, 9, 42, 95
4, 38400, Note_on_c, 9, 42, 95
4, 38400, Note_on_c, 9, 35, 95
4, 38640, Note_off_c, 9, 42, 95
4, 38640, Note_off_c, 9, 35, 95
4, 38640, Note_on_c, 9, 35, 95
4, 38880, Note_off_c, 9, 35, 95
4, 38880, Note_on_c, 9, 42, 95
4, 39360, Note_off_c, 9, 42, 95
4, 39360, Note_on_c, 9, 40, 95
4, 39360, Note_on_c, 9, 42, 95
4, 39840, Note_off_c, 9, 40, 95
4, 39840, Note_off_c, 9, 42, 95
4, 39840, Note_on_c, 9, 42, 95
4, 40320, Note_off_c, 9, 42, 95
4, 40320, Note_on_c, 9, 42, 95
4, 40320, Note_on_c, 9, 35, 95
4, 40560, Note_off_c, 9, 42, 95
4, 40560, Note_off_c, 9, 35, 95
4, 40560, Note_on_c, 9, 35, 95
4, 40800, Note_off_c, 9, 35, 95
4, 40800, Note_on_c, 9, 42, 95
4, 41280, Note_off_c, 9, 42, 95
4, 41280, Note_on_c, 9, 40, 95
4, 41280, Note_on_c, 9, 42, 95
4, 41760, Note_off_c, 9, 40, 95
4, 41760, Note_off_c, 9, 42, 95
4, 41760, Note_on_c, 9, 42, 95
4, 42240, Note_off_c, 9, 42, 95
4, 42240, Note_on_c, 9, 42, 95
4, 42240, Note_on_c, 9, 35, 95
4, 42480, Note_off_c, 9, 42, 95
4, 42480, Note_off_c, 9, 35, 95
4, 42480, Note_on_c, 9, 35, 95
4, 42720, Note_off_c, 9, 35, 95
4, 42720, Note_on_c, 9, 42, 95
4, 43200, Note_off_c, 9, 42, 95
4, 43200, Note_on_c, 9, 40, 95
4, 43200, Note_on_c, 9, 42, 95
4, 43680, Note_off_c, 9, 40, 95
4, 43680, Note_off_c, 9, 42, 95
4, 43680, Note_on_c, 9, 42, 95
4, 44160, Note_off_c, 9, 42, 95
4, 44160, Note_on_c, 9, 42, 95
4, 44160, Note_on_c, 9, 35, 95
4, 44400, Note_off_c, 9, 42, 95
4, 44400, Note_off_c, 9, 35, 95
4, 46080, Note_on_c, 9, 42, 95
4, 46080, Note_on_c, 9, 35, 95
4, 46560, Note_off_c, 9, 42, 95
4, 46560, Note_off_c, 9, 35, 95
4, 46560, Note_on_c, 9, 42, 95
4, 47040, Note_off_c, 9, 42, 95
4, 47040, Note_on_c, 9, 40, 95
4, 47040, Note_on_c, 9, 42, 95
4, 47520, Note_off_c, 9, 40, 95
4, 47520, Note_off_c, 9, 42, 95
4, 47520, Note_on_c, 9, 42, 95
4, 48000, Note_off_c, 9, 42, 95
4, 48000, Note_on_c, 9, 42, 95
4, 48000, Note_on_c, 9, 35, 95
4, 48240, Note_off_c, 9, 42, 95
4, 48240, Note_off_c, 9, 35, 95
4, 48240, Note_on_c, 9, 35, 95
4, 48480, Note_off_c, 9, 35, 95
4, 48480, Note_on_c, 9, 42, 95
4, 48960, Note_off_c, 9, 42, 95
4, 48960, Note_on_c, 9, 40, 95
4, 48960, Note_on_c, 9, 42, 95
4, 49440, Note_off_c, 9, 40, 95
4, 49440, Note_off_c, 9, 42, 95
4, 49440, Note_on_c, 9, 42, 95
4, 49920, Note_off_c, 9, 42, 95
4, 49920, Note_on_c, 9, 42, 95
4, 49920, Note_on_c, 9, 35, 95
4, 50160, Note_off_c, 9, 42, 95
4, 50160, Note_off_c, 9, 35, 95
4, 50160, Note_on_c, 9, 35, 95
4, 50400, Note_off_c, 9, 35, 95
4, 50400, Note_on_c, 9, 42, 95
4, 50880, Note_off_c, 9, 42, 95
4, 50880, Note_on_c, 9, 40, 95
4, 50880, Note_on_c, 9, 42, 95
4, 51360, Note_off_c, 9, 40, 95
4, 51360, Note_off_c, 9, 42, 95
4, 51360, Note_on_c, 9, 42, 95
4, 51840, Note_off_c, 9, 42, 95
4, 51840, Note_on_c, 9, 42, 95
4, 51840, Note_on_c, 9, 35, 95
4, 52080, Note_off_c, 9, 42, 95
4, 52080, Note_off_c, 9, 35, 95
4, 52080, Note_on_c, 9, 35, 95
4, 52320, Note_off_c, 9, 35, 95
4, 52320, Note_on_c, 9, 42, 95
4, 52800, Note_off_c, 9, 42, 95
4, 52800, Note_on_c, 9, 40, 95
4, 52800, Note_on_c, 9, 42, 95
4, 53280, Note_off_c, 9, 40, 95
4, 53280, Note_off_c, 9, 42, 95
4, 53280, Note_on_c, 9, 42, 95
4, 53760, Note_off_c, 9, 42, 95
4, 53760, Note_on_c, 9, 42, 95
4, 53760, Note_on_c, 9, 35, 95
4, 54240, Note_off_c, 9, 42, 95
4, 54240, Note_off_c, 9, 35, 95
4, 54240, Note_on_c, 9, 42, 95
4, 54720, Note_off_c, 9, 42, 95
4, 54720, Note_on_c, 9, 40, 95
4, 54720, Note_on_c, 9, 42, 95
4, 55200, Note_off_c, 9, 40, 95
4, 55200, Note_off_c, 9, 42, 95
4, 55200, Note_on_c, 9, 42, 95
4, 55680, Note_off_c, 9, 42, 95
4, 55680, Note_on_c, 9, 42, 95
4, 55680, Note_on_c, 9, 35, 95
4, 55920, Note_off_c, 9, 42, 95
4, 55920, Note_off_c, 9, 35, 95
4, 55920, Note_on_c, 9, 35, 95
4, 56160, Note_off_c, 9, 35, 95
4, 56160, Note_on_c, 9, 42, 95
4, 56640, Note_off_c, 9, 42, 95
4, 56640, Note_on_c, 9, 40, 95
4, 56640, Note_on_c, 9, 42, 95
4, 57120, Note_off_c, 9, 40, 95
4, 57120, Note_off_c, 9, 42, 95
4, 57120, Note_on_c, 9, 42, 95
4, 57600, Note_off_c, 9, 42, 95
4, 57600, Note_on_c, 9, 42, 95
4, 57600, Note_on_c, 9, 35, 95
4, 57840, Note_off_c, 9, 42, 95
4, 57840, Note_off_c, 9, 35, 95
4, 57840, Note_on_c, 9, 35, 95
4, 58080, Note_off_c, 9, 35, 95
4, 58080, Note_on_c, 9, 42, 95
4, 58560, Note_off_c, 9, 42, 95
4, 58560, Note_on_c, 9, 40, 95
4, 58560, Note_on_c, 9, 42, 95
4, 59040, Note_off_c, 9, 40, 95
4, 59040, Note_off_c, 9, 42, 95
4, 59040, Note_on_c, 9, 42, 95
4, 59520, Note_off_c, 9, 42, 95
4, 59520, Note_on_c, 9, 42, 95
4, 59520, Note_on_c, 9, 35, 95
4, 59760, Note_off_c, 9, 42, 95
4, 59760, Note_off_c, 9, 35, 95
4, 59760, Note_on_c, 9, 35, 95
4, 60000, Note_off_c, 9, 35, 95
4, 60000, Note_on_c, 9, 42, 95
4, 60480, Note_off_c, 9, 42, 95
4, 60480, Note_on_c, 9, 40, 95
4, 60480, Note_on_c, 9, 42, 95
4, 60960, Note_off_c, 9, 40, 95
4, 60960, Note_off_c, 9, 42, 95
4, 60960, Note_on_c, 9, 42, 95
4, 61440, Note_off_c, 9, 42, 95
4, 61440, Note_on_c, 9, 42, 95
4, 61440, Note_on_c, 9, 35, 95
4, 61920, Note_off_c, 9, 42, 95
4, 61920, Note_off_c, 9, 35, 95
4, 61920, Note_on_c, 9, 42, 95
4, 62400, Note_off_c, 9, 42, 95
4, 62400, Note_on_c, 9, 40, 95
4, 62400, Note_on_c, 9, 42, 95
4, 62880, Note_off_c, 9, 40, 95
4, 62880, Note_off_c, 9, 42, 95
4, 62880, Note_on_c, 9, 42, 95
4, 63360, Note_off_c, 9, 42, 95
4, 63360, Note_on_c, 9, 42, 95
4, 63360, Note_on_c, 9, 35, 95
4, 63600, Note_off_c, 9, 42, 95
4, 63600, Note_off_c, 9, 35, 95
4, 63600, Note_on_c, 9, 35, 95
4, 63840, Note_off_c, 9, 35, 95
4, 63840, Note_on_c, 9, 42, 95
4, 64320, Note_off_c, 9, 42, 95
4, 64320, Note_on_c, 9, 40, 95
4, 64320, Note_on_c, 9, 42, 95
4, 64800, Note_off_c, 9, 40, 95
4, 64800, Note_off_c, 9, 42, 95
4, 64800, Note_on_c, 9, 42, 95
4, 65280, Note_off_c, 9, 42, 95
4, 65280, Note_on_c, 9, 42, 95
4, 65280, Note_on_c, 9, 35, 95
4, 65520, Note_off_c, 9, 42, 95
4, 65520, Note_off_c, 9, 35, 95
4, 65520, Note_on_c, 9, 35, 95
4, 65760, Note_off_c, 9, 35, 95
4, 65760, Note_on_c, 9, 42, 95
4, 66240, Note_off_c, 9, 42, 95
4, 66240, Note_on_c, 9, 40, 95
4, 66240, Note_on_c, 9, 42, 95
4, 66720, Note_off_c, 9, 40, 95
4, 66720, Note_off_c, 9, 42, 95
4, 66720, Note_on_c, 9, 42, 95
4, 67200, Note_off_c, 9, 42, 95
4, 67200, Note_on_c, 9, 42, 95
4, 67200, Note_on_c, 9, 35, 95
4, 67440, Note_off_c, 9, 42, 95
4, 67440, Note_off_c, 9, 35, 95
4, 67440, Note_on_c, 9, 35, 95
4, 67680, Note_off_c, 9, 35, 95
4, 67680, Note_on_c, 9, 42, 95
4, 68160, Note_off_c, 9, 42, 95
4, 68160, Note_on_c, 9, 40, 95
4, 68160, Note_on_c, 9, 42, 95
4, 68640, Note_off_c, 9, 40, 95
4, 68640, Note_off_c, 9, 42, 95
4, 68640, Note_on_c, 9, 42, 95
4, 69120, Note_off_c, 9, 42, 95
4, 69120, Note_on_c, 9, 42, 95
4, 69120, Note_on_c, 9, 35, 95
4, 69600, Note_off_c, 9, 42, 95
4, 69600, Note_off_c, 9, 35, 95
4, 69600, Note_on_c, 9, 42, 95
4, 70080, Note_off_c, 9, 42, 95
4, 70080, Note_on_c, 9, 40, 95
4, 70080, Note_on_c, 9, 42, 95
4, 70560, Note_off_c, 9, 40, 95
4, 70560, Note_off_c, 9, 42, 95
4, 70560, Note_on_c, 9, 42, 95
4, 71040, Note_off_c, 9, 42, 95
4, 71040, Note_on_c, 9, 42, 95
4, 71040, Note_on_c, 9, 35, 95
4, 71280, Note_off_c, 9, 42, 95
4, 71280, Note_off_c, 9, 35, 95
4, 71280, Note_on_c, 9, 35, 95
4, 71520, Note_off_c, 9, 35, 95
4, 71520, Note_on_c, 9, 42, 95
4, 72000, Note_off_c, 9, 42, 95
4, 72000, Note_on_c, 9, 40, 95
4, 72000, Note_on_c, 9, 42, 95
4, 72480, Note_off_c, 9, 40, 95
4, 72480, Note_off_c, 9, 42, 95
4, 72480, Note_on_c, 9, 42, 95
4, 72960, Note_off_c, 9, 42, 95
4, 76800, Note_on_c, 9, 42, 95
4, 76800, Note_on_c, 9, 35, 95
4, 77040, Note_off_c, 9, 42, 95
4, 77040, Note_off_c, 9, 35, 95
4, 77040, Note_on_c, 9, 35, 95
4, 77280, Note_off_c, 9, 35, 95
4, 77280, Note_on_c, 9, 42, 95
4, 77760, Note_off_c, 9, 42, 95
4, 77760, Note_on_c, 9, 40, 95
4, 77760, Note_on_c, 9, 42, 95
4, 78240, Note_off_c, 9, 40, 95
4, 78240, Note_off_c, 9, 42, 95
4, 78240, Note_on_c, 9, 42, 95
4, 78720, Note_off_c, 9, 42, 95
4, 78720, Note_on_c, 9, 42, 95
4, 78720, Note_on_c, 9, 35, 95
4, 78960, Note_off_c, 9, 42, 95
4, 78960, Note_off_c, 9, 35, 95
4, 78960, Note_on_c, 9, 35, 95
4, 79200, Note_off_c, 9, 35, 95
4, 79200, Note_on_c, 9, 42, 95
4, 79680, Note_off_c, 9, 42, 95
4, 79680, Note_on_c, 9, 40, 95
4, 79680, Note_on_c, 9, 42, 95
4, 80160, Note_off_c, 9, 40, 95
4, 80160, Note_off_c, 9, 42, 95
4, 80160, Note_on_c, 9, 42, 95
4, 80640, Note_off_c, 9, 42, 95
4, 80640, Note_on_c, 9, 42, 95
4, 80640, Note_on_c, 9, 35, 95
4, 80880, Note_off_c, 9, 42, 95
4, 80880, Note_off_c, 9, 35, 95
4, 80880, Note_on_c, 9, 35, 95
4, 81120, Note_off_c, 9, 35, 95
4, 81120, Note_on_c, 9, 42, 95
4, 81600, Note_off_c, 9, 42, 95
4, 81600, Note_on_c, 9, 40, 95
4, 81600, Note_on_c, 9, 42, 95
4, 82080, Note_off_c, 9, 40, 95
4, 82080, Note_off_c, 9, 42, 95
4, 82080, Note_on_c, 9, 42, 95
4, 82560, Note_off_c, 9, 42, 95
4, 82560, Note_on_c, 9, 42, 95
4, 82560, Note_on_c, 9, 35, 95
4, 82800, Note_off_c, 9, 42, 95
4, 82800, Note_off_c, 9, 35, 95
4, 82800, Note_on_c, 9, 35, 95
4, 83040, Note_off_c, 9, 35, 95
4, 83040, Note_on_c, 9, 42, 95
4, 83520, Note_off_c, 9, 42, 95
4, 83520, Note_on_c, 9, 40, 95
4, 83520, Note_on_c, 9, 42, 95
4, 84000, Note_off_c, 9, 40, 95
4, 84000, Note_off_c, 9, 42, 95
4, 84000, Note_on_c, 9, 42, 95
4, 84480, Note_off_c, 9, 42, 95
4, 84480, Note_on_c, 9, 42, 95
4, 84480, Note_on_c, 9, 35, 95
4, 84720, Note_off_c, 9, 42, 95
4, 84720, Note_off_c, 9, 35, 95
4, 84720, Note_on_c, 9, 35, 95
4, 84960, Note_off_c, 9, 35, 95
4, 84960, Note_on_c, 9, 42, 95
4, 85440, Note_off_c, 9, 42, 95
4, 85440, Note_on_c, 9, 40, 95
4, 85440, Note_on_c, 9, 42, 95
4, 85920, Note_off_c, 9, 40, 95
4, 85920, Note_off_c, 9, 42, 95
4, 85920, Note_on_c, 9, 42, 95
4, 86400, Note_off_c, 9, 42, 95
4, 86400, Note_on_c, 9, 42, 95
4, 86400, Note_on_c, 9, 35, 95
4, 86640, Note_off_c, 9, 42, 95
4, 86640, Note_off_c, 9, 35, 95
4, 86640, Note_on_c, 9, 35, 95
4, 86880, Note_off_c, 9, 35, 95
4, 86880, Note_on_c, 9, 42, 95
4, 87360, Note_off_c, 9, 42, 95
4, 87360, Note_on_c, 9, 40, 95
4, 87360, Note_on_c, 9, 42, 95
4, 87840, Note_off_c, 9, 40, 95
4, 87840, Note_off_c, 9, 42, 95
4, 87840, Note_on_c, 9, 42, 95
4, 88320, Note_off_c, 9, 42, 95
4, 88320, Note_on_c, 9, 42, 95
4, 88320, Note_on_c, 9, 35, 95
4, 88560, Note_off_c, 9, 42, 95
4, 88560, Note_off_c, 9, 35, 95
4, 88560, Note_on_c, 9, 35, 95
4, 88800, Note_off_c, 9, 35, 95
4, 88800, Note_on_c, 9, 42, 95
4, 89280, Note_off_c, 9, 42, 95
4, 89280, Note_on_c, 9, 40, 95
4, 89280, Note_on_c, 9, 42, 95
4, 89760, Note_off_c, 9, 40, 95
4, 89760, Note_off_c, 9, 42, 95
4, 89760, Note_on_c, 9, 42, 95
4, 90240, Note_off_c, 9, 42, 95
4, 90240, Note_on_c, 9, 42, 95
4, 90240, Note_on_c, 9, 35, 95
4, 90480, Note_off_c, 9, 42, 95
4, 90480, Note_off_c, 9, 35, 95
4, 90480, Note_on_c, 9, 35, 95
4, 90720, Note_off_c, 9, 35, 95
4, 90720, Note_on_c, 9, 42, 95
4, 91200, Note_off_c, 9, 42, 95
4, 91200, Note_on_c, 9, 40, 95
4, 91200, Note_on_c, 9, 42, 95
4, 91680, Note_off_c, 9, 40, 95
4, 91680, Note_off_c, 9, 42, 95
4, 91680, Note_on_c, 9, 42, 95
4, 92160, Note_off_c, 9, 42, 95
4, 92160, Note_on_c, 9, 42, 95
4, 92160, Note_on_c, 9, 35, 95
4, 92400, Note_off_c, 9, 42, 95
4, 92400, Note_off_c, 9, 35, 95
4, 92400, Note_on_c, 9, 35, 95
4, 92640, Note_off_c, 9, 35, 95
4, 92640, Note_on_c, 9, 42, 95
4, 93120, Note_off_c, 9, 42, 95
4, 93120, Note_on_c, 9, 40, 95
4, 93120, Note_on_c, 9, 42, 95
4, 93600, Note_off_c, 9, 40, 95
4, 93600, Note_off_c, 9, 42, 95
4, 93600, Note_on_c, 9, 42, 95
4, 94080, Note_off_c, 9, 42, 95
4, 94080, Note_on_c, 9, 42, 95
4, 94080, Note_on_c, 9, 35, 95
4, 94320, Note_off_c, 9, 42, 95
4, 94320, Note_off_c, 9, 35, 95
4, 94320, Note_on_c, 9, 35, 95
4, 94560, Note_off_c, 9, 35, 95
4, 94560, Note_on_c, 9, 42, 95
4, 95040, Note_off_c, 9, 42, 95
4, 95040, Note_on_c, 9, 40, 95
4, 95040, Note_on_c, 9, 42, 95
4, 95520, Note_off_c, 9, 40, 95
4, 95520, Note_off_c, 9, 42, 95
4, 95520, Note_on_c, 9, 42, 95
4, 96000, Note_off_c, 9, 42, 95
4, 96000, Note_on_c, 9, 42, 95
4, 96000, Note_on_c, 9, 35, 95
4, 96240, Note_off_c, 9, 42, 95
4, 96240, Note_off_c, 9, 35, 95
4, 96240, Note_on_c, 9, 35, 95
4, 96480, Note_off_c, 9, 35, 95
4, 96480, Note_on_c, 9, 42, 95
4, 96960, Note_off_c, 9, 42, 95
4, 96960, Note_on_c, 9, 40, 95
4, 96960, Note_on_c, 9, 42, 95
4, 97440, Note_off_c, 9, 40, 95
4, 97440, Note_off_c, 9, 42, 95
4, 97440, Note_on_c, 9, 42, 95
4, 97920, Note_off_c, 9, 42, 95
4, 97920, Note_on_c, 9, 42, 95
4, 97920, Note_on_c, 9, 35, 95
4, 98160, Note_off_c, 9, 42, 95
4, 98160, Note_off_c, 9, 35, 95
4, 98160, Note_on_c, 9, 35, 95
4, 98400, Note_off_c, 9, 35, 95
4, 98400, Note_on_c, 9, 42, 95
4, 98880, Note_off_c, 9, 42, 95
4, 98880, Note_on_c, 9, 40, 95
4, 98880, Note_on_c, 9, 42, 95
4, 99360, Note_off_c, 9, 40, 95
4, 99360, Note_off_c, 9, 42, 95
4, 99360, Note_on_c, 9, 42, 95
4, 99840, Note_off_c, 9, 42, 95
4, 99840, Note_on_c, 9, 42, 95
4, 99840, Note_on_c, 9, 35, 95
4, 100080, Note_off_c, 9, 42, 95
4, 100080, Note_off_c, 9, 35, 95
4, 100080, Note_on_c, 9, 35, 95
4, 100320, Note_off_c, 9, 35, 95
4, 100320, Note_on_c, 9, 42, 95
4, 100800, Note_off_c, 9, 42, 95
4, 100800, Note_on_c, 9, 40, 95
4, 100800, Note_on_c, 9, 42, 95
4, 101280, Note_off_c, 9, 40, 95
4, 101280, Note_off_c, 9, 42, 95
4, 101280, Note_on_c, 9, 42, 95
4, 101760, Note_off_c, 9, 42, 95
4, 101760, Note_on_c, 9, 42, 95
4, 101760, Note_on_c, 9, 35, 95
4, 102000, Note_off_c, 9, 42, 95
4, 102000, Note_off_c, 9, 35, 95
4, 102000, Note_on_c, 9, 35, 95
4, 102240, Note_off_c, 9, 35, 95
4, 102240, Note_on_c, 9, 42, 95
4, 102720, Note_off_c, 9, 42, 95
4, 102720, Note_on_c, 9, 40, 95
4, 102720, Note_on_c, 9, 42, 95
4, 103200, Note_off_c, 9, 40, 95
4, 103200, Note_off_c, 9, 42, 95
4, 103200, Note_on_c, 9, 42, 95
4, 103680, Note_off_c, 9, 42, 95
4, 103680, Note_on_c, 9, 42, 95
4, 103680, Note_on_c, 9, 35, 95
4, 103920, Note_off_c, 9, 42, 95
4, 103920, Note_off_c, 9, 35, 95
4, 103920, Note_on_c, 9, 35, 95
4, 104160, Note_off_c, 9, 35, 95
4, 104160, Note_on_c, 9, 42, 95
4, 104640, Note_off_c, 9, 42, 95
4, 104640, Note_on_c, 9, 40, 95
4, 104640, Note_on_c, 9, 42, 95
4, 105120, Note_off_c, 9, 40, 95
4, 105120, Note_off_c, 9, 42, 95
4, 105120, Note_on_c, 9, 42, 95
4, 105600, Note_off_c, 9, 42, 95
4, 105600, Note_on_c, 9, 42, 95
4, 105600, Note_on_c, 9, 35, 95
4, 105840, Note_off_c, 9, 42, 95
4, 105840, Note_off_c, 9, 35, 95
4, 107520, Note_on_c, 9, 42, 95
4, 107520, Note_on_c, 9, 35, 95
4, 108000, Note_off_c, 9, 42, 95
4, 108000, Note_off_c, 9, 35, 95
4, 108000, Note_on_c, 9, 42, 95
4, 108480, Note_off_c, 9, 42, 95
4, 108480, Note_on_c, 9, 40, 95
4, 108480, Note_on_c, 9, 42, 95
4, 108960, Note_off_c, 9, 40, 95
4, 108960, Note_off_c, 9, 42, 95
4, 108960, Note_on_c, 9, 42, 95
4, 109440, Note_off_c, 9, 42, 95
4, 109440, Note_on_c, 9, 42, 95
4, 109440, Note_on_c, 9, 35, 95
4, 109680, Note_off_c, 9, 42, 95
4, 109680, Note_off_c, 9, 35, 95
4, 109680, Note_on_c, 9, 35, 95
4, 109920, Note_off_c, 9, 35, 95
4, 109920, Note_on_c, 9, 42, 95
4, 110400, Note_off_c, 9, 42, 95
4, 110400, Note_on_c, 9, 40, 95
4, 110400, Note_on_c, 9, 42, 95
4, 110880, Note_off_c, 9, 40, 95
4, 110880, Note_off_c, 9, 42, 95
4, 110880, Note_on_c, 9, 42, 95
4, 111360, Note_off_c, 9, 42, 95
4, 111360, Note_on_c, 9, 42, 95
4, 111360, Note_on_c, 9, 35, 95
4, 111600, Note_off_c, 9, 42, 95
4, 111600, Note_off_c, 9, 35, 95
4, 111600, Note_on_c, 9, 35, 95
4, 111840, Note_off_c, 9, 35, 95
4, 111840, Note_on_c, 9, 42, 95
4, 112320, Note_off_c, 9, 42, 95
4, 112320, Note_on_c, 9, 40, 95
4, 112320, Note_on_c, 9, 42, 95
4, 112800, Note_off_c, 9, 40, 95
4, 112800, Note_off_c, 9, 42, 95
4, 112800, Note_on_c, 9, 42, 95
4, 113280, Note_off_c, 9, 42, 95
4, 113280, Note_on_c, 9, 42, 95
4, 113280, Note_on_c, 9, 35, 95
4, 113520, Note_off_c, 9, 42, 95
4, 113520, Note_off_c, 9, 35, 95
4, 113520, Note_on_c, 9, 35, 95
4, 113760, Note_off_c, 9, 35, 95
4, 113760, Note_on_c, 9, 42, 95
4, 114240, Note_off_c, 9, 42, 95
4, 114240, Note_on_c, 9, 40, 95
4, 114240, Note_on_c, 9, 42, 95
4, 114720, Note_off_c, 9, 40, 95
4, 114720, Note_off_c, 9, 42, 95
4, 114720, Note_on_c, 9, 42, 95
4, 115200, Note_off_c, 9, 42, 95
4, 115200, Note_on_c, 9, 42, 95
4, 115200, Note_on_c, 9, 35, 95
4, 115680, Note_off_c, 9, 42, 95
4, 115680, Note_off_c, 9, 35, 95
4, 115680, Note_on_c, 9, 42, 95
4, 116160, Note_off_c, 9, 42, 95
4, 116160, Note_on_c, 9, 40, 95
4, 116160, Note_on_c, 9, 42, 95
4, 116640, Note_off_c, 9, 40, 95
4, 116640, Note_off_c, 9, 42, 95
4, 116640, Note_on_c, 9, 42, 95
4, 117120, Note_off_c, 9, 42, 95
4, 117120, Note_on_c, 9, 42, 95
4, 117120, Note_on_c, 9, 35, 95
4, 117360, Note_off_c, 9, 42, 95
4, 117360, Note_off_c, 9, 35, 95
4, 117360, Note_on_c, 9, 35, 95
4, 117600, Note_off_c, 9, 35, 95
4, 117600, Note_on_c, 9, 42, 95
4, 118080, Note_off_c, 9, 42, 95
4, 118080, Note_on_c, 9, 40, 95
4, 118080, Note_on_c, 9, 42, 95
4, 118560, Note_off_c, 9, 40, 95
4, 118560, Note_off_c, 9, 42, 95
4, 118560, Note_on_c, 9, 42, 95
4, 119040, Note_off_c, 9, 42, 95
4, 119040, Note_on_c, 9, 42, 95
4, 119040, Note_on_c, 9, 35, 95
4, 119280, Note_off_c, 9, 42, 95
4, 119280, Note_off_c, 9, 35, 95
4, 119280, Note_on_c, 9, 35, 95
4, 119520, Note_off_c, 9, 35, 95
4, 119520, Note_on_c, 9, 42, 95
4, 120000, Note_off_c, 9, 42, 95
4, 120000, Note_on_c, 9, 40, 95
4, 120000, Note_on_c, 9, 42, 95
4, 120480, Note_off_c, 9, 40, 95
4, 120480, Note_off_c, 9, 42, 95
4, 120480, Note_on_c, 9, 42, 95
4, 120960, Note_off_c, 9, 42, 95
4, 120960, Note_on_c, 9, 42, 95
4, 120960, Note_on_c, 9, 35, 95
4, 121200, Note_off_c, 9, 42, 95
4, 121200, Note_off_c, 9, 35, 95
4, 121200, Note_on_c, 9, 35, 95
4, 121440, Note_off_c, 9, 35, 95
4, 121440, Note_on_c, 9, 42, 95
4, 121920, Note_off_c, 9, 42, 95
4, 121920, Note_on_c, 9, 40, 95
4, 121920, Note_on_c, 9, 42, 95
4, 122400, Note_off_c, 9, 40, 95
4, 122400, Note_off_c, 9, 42, 95
4, 122400, Note_on_c, 9, 42, 95
4, 122880, Note_off_c, 9, 42, 95
4, 122880, Note_on_c, 9, 42, 95
4, 122880, Note_on_c, 9, 35, 95
4, 123360, Note_off_c, 9, 42, 95
4, 123360, Note_off_c, 9, 35, 95
4, 123360, Note_on_c, 9, 42, 95
4, 123840, Note_off_c, 9, 42, 95
4, 123840, Note_on_c, 9, 40, 95
4, 123840, Note_on_c, 9, 42, 95
4, 124320, Note_off_c, 9, 40, 95
4, 124320, Note_off_c, 9, 42, 95
4, 124320, Note_on_c, 9, 42, 95
4, 124800, Note_off_c, 9, 42, 95
4, 124800, Note_on_c, 9, 42, 95
4, 124800, Note_on_c, 9, 35, 95
4, 125040, Note_off_c, 9, 42, 95
4, 125040, Note_off_c, 9, 35, 95
4, 125040, Note_on_c, 9, 35, 95
4, 125280, Note_off_c, 9, 35, 95
4, 125280, Note_on_c, 9, 42, 95
4, 125760, Note_off_c, 9, 42, 95
4, 125760, Note_on_c, 9, 40, 95
4, 125760, Note_on_c, 9, 42, 95
4, 126240, Note_off_c, 9, 40, 95
4, 126240, Note_off_c, 9, 42, 95
4, 126240, Note_on_c, 9, 42, 95
4, 126720, Note_off_c, 9, 42, 95
4, 126720, Note_on_c, 9, 42, 95
4, 126720, Note_on_c, 9, 35, 95
4, 126960, Note_off_c, 9, 42, 95
4, 126960, Note_off_c, 9, 35, 95
4, 126960, Note_on_c, 9, 35, 95
4, 127200, Note_off_c, 9, 35, 95
4, 127200, Note_on_c, 9, 42, 95
4, 127680, Note_off_c, 9, 42, 95
4, 127680, Note_on_c, 9, 40, 95
4, 127680, Note_on_c, 9, 42, 95
4, 128160, Note_off_c, 9, 40, 95
4, 128160, Note_off_c, 9, 42, 95
4, 128160, Note_on_c, 9, 42, 95
4, 128640, Note_off_c, 9, 42, 95
4, 128640, Note_on_c, 9, 42, 95
4, 128640, Note_on_c, 9, 35, 95
4, 128880, Note_off_c, 9, 42, 95
4, 128880, Note_off_c, 9, 35, 95
4, 128880, Note_on_c, 9, 35, 95
4, 129120, Note_off_c, 9, 35, 95
4, 129120, Note_on_c, 9, 42, 95
4, 129600, Note_off_c, 9, 42, 95
4, 129600, Note_on_c, 9, 40, 95
4, 129600, Note_on_c, 9, 42, 95
4, 130080, Note_off_c, 9, 40, 95
4, 130080, Note_off_c, 9, 42, 95
4, 130080, Note_on_c, 9, 42, 95
4, 130560, Note_off_c, 9, 42, 95
4, 130560, Note_on_c, 9, 42, 95
4, 130560, Note_on_c, 9, 35, 95
4, 131040, Note_off_c, 9, 42, 95
4, 131040, Note_off_c, 9, 35, 95
4, 131040, Note_on_c, 9, 42, 95
4, 131520, Note_off_c, 9, 42, 95
4, 131520, Note_on_c, 9, 40, 95
4, 131520, Note_on_c, 9, 42, 95
4, 132000, Note_off_c, 9, 40, 95
4, 132000, Note_off_c, 9, 42, 95
4, 132000, Note_on_c, 9, 42, 95
4, 132480, Note_off_c, 9, 42, 95
4, 132480, Note_on_c, 9, 42, 95
4, 132480, Note_on_c, 9, 35, 95
4, 132720, Note_off_c, 9, 42, 95
4, 132720, Note_off_c, 9, 35, 95
4, 132720, Note_on_c, 9, 35, 95
4, 132960, Note_off_c, 9, 35, 95
4, 132960, Note_on_c, 9, 42, 95
4, 133440, Note_off_c, 9, 42, 95
4, 133440, Note_on_c, 9, 40, 95
4, 133440, Note_on_c, 9, 42, 95
4, 133920, Note_off_c, 9, 40, 95
4, 133920, Note_off_c, 9, 42, 95
4, 133920, Note_on_c, 9, 42, 95
4, 134400, Note_off_c, 9, 42, 95
4, 138240, Note_on_c, 9, 37, 95
4, 138720, Note_off_c, 9, 37, 95
4, 138720, Note_on_c, 9, 37, 95
4, 139200, Note_off_c, 9, 37, 95
4, 139200, Note_on_c, 9, 42, 95
4, 139200, Note_on_c, 9, 38, 95
4, 139200, Note_on_c, 9, 39, 95
4, 139440, Note_off_c, 9, 42, 95
4, 139440, Note_off_c, 9, 38, 95
4, 139440, Note_off_c, 9, 39, 95
4, 139440, Note_on_c, 9, 38, 47
4, 139440, Note_on_c, 9, 39, 47
4, 139680, Note_off_c, 9, 38, 47
4, 139680, Note_off_c, 9, 39, 47
4, 139680, Note_on_c, 9, 37, 95
4, 139680, Note_on_c, 9, 42, 95
4, 140160, Note_off_c, 9, 37, 95
4, 140160, Note_off_c, 9, 42, 95
4, 140160, Note_on_c, 9, 37, 95
4, 140160, Note_on_c, 9, 42, 95
4, 140400, Note_off_c, 9, 37, 95
4, 140400, Note_off_c, 9, 42, 95
4, 140400, Note_on_c, 9, 37, 95
4, 140880, Note_off_c, 9, 37, 95
4, 140880, Note_on_c, 9, 37, 95
4, 140880, Note_on_c, 9, 42, 95
4, 141600, Note_off_c, 9, 37, 95
4, 141600, Note_off_c, 9, 42, 95
4, 141600, Note_on_c, 9, 37, 95
4, 142080, Note_off_c, 9, 37, 95
4, 142080, Note_on_c, 9, 37, 95
4, 142560, Note_off_c, 9, 37, 95
4, 142560, Note_on_c, 9, 37, 95
4, 143040, Note_off_c, 9, 37, 95
4, 143040, Note_on_c, 9, 42, 95
4, 143040, Note_on_c, 9, 38, 95
4, 143040, Note_on_c, 9, 39, 95
4, 143280, Note_off_c, 9, 42, 95
4, 143280, Note_off_c, 9, 38, 95
4, 143280, Note_off_c, 9, 39, 95
4, 143280, Note_on_c, 9, 38, 47
4, 143280, Note_on_c, 9, 39, 47
4, 143520, Note_off_c, 9, 38, 47
4, 143520, Note_off_c, 9, 39, 47
4, 143520, Note_on_c, 9, 37, 95
4, 143520, Note_on_c, 9, 42, 95
4, 144000, Note_off_c, 9, 37, 95
4, 144000, Note_off_c, 9, 42, 95
4, 144000, Note_on_c, 9, 37, 95
4, 144000, Note_on_c, 9, 42, 95
4, 144240, Note_off_c, 9, 37, 95
4, 144240, Note_off_c, 9, 42, 95
4, 144240, Note_on_c, 9, 37, 95
4, 144720, Note_off_c, 9, 37, 95
4, 144720, Note_on_c, 9, 37, 95
4, 144720, Note_on_c, 9, 42, 95
4, 145440, Note_off_c, 9, 37, 95
4, 145440, Note_off_c, 9, 42, 95
4, 145440, Note_on_c, 9, 37, 95
4, 145920, Note_off_c, 9, 37, 95
4, 145920, Note_on_c, 9, 37, 95
4, 146400, Note_off_c, 9, 37, 95
4, 146400, Note_on_c, 9, 37, 95
4, 146880, Note_off_c, 9, 37, 95
4, 146880, Note_on_c, 9, 42, 95
4, 146880, Note_on_c, 9, 38, 95
4, 146880, Note_on_c, 9, 39, 95
4, 147120, Note_off_c, 9, 42, 95
4, 147120, Note_off_c, 9, 38, 95
4, 147120, Note_off_c, 9, 39, 95
4, 147120, Note_on_c, 9, 38, 47
4, 147120, Note_on_c, 9, 39, 47
4, 147360, Note_off_c, 9, 38, 47
4, 147360, Note_off_c, 9, 39, 47
4, 147360, Note_on_c, 9, 37, 95
4, 147360, Note_on_c, 9, 42, 95
4, 147840, Note_off_c, 9, 37, 95
4, 147840, Note_off_c, 9, 42, 95
4, 147840, Note_on_c, 9, 37, 95
4, 147840, Note_on_c, 9, 42, 95
4, 148080, Note_off_c, 9, 37, 95
4, 148080, Note_off_c, 9, 42, 95
4, 148080, Note_on_c, 9, 37, 95
4, 148560, Note_off_c, 9, 37, 95
4, 148560, Note_on_c, 9, 37, 95
4, 148560, Note_on_c, 9, 42, 95
4, 149280, Note_off_c, 9, 37, 95
4, 149280, Note_off_c, 9, 42, 95
4, 149280, Note_on_c, 9, 37, 95
4, 149760, Note_off_c, 9, 37, 95
4, 149760, Note_on_c, 9, 37, 95
4, 150240, Note_off_c, 9, 37, 95
4, 150240, Note_on_c, 9, 37, 95
4, 150720, Note_off_c, 9, 37, 95
4, 150720, Note_on_c, 9, 42, 95
4, 150720, Note_on_c, 9, 38, 95
4, 150720, Note_on_c, 9, 39, 95
4, 150960, Note_off_c, 9, 42, 95
4, 150960, Note_off_c, 9, 38, 95
4, 150960, Note_off_c, 9, 39, 95
4, 150960, Note_on_c, 9, 38, 47
4, 150960, Note_on_c, 9, 39, 47
4, 151200, Note_off_c, 9, 38, 47
4, 151200, Note_off_c, 9, 39, 47
4, 151200, Note_on_c, 9, 37, 95
4, 151200, Note_on_c, 9, 42, 95
4, 151680, Note_off_c, 9, 37, 95
4, 151680, Note_off_c, 9, 42, 95
4, 151680, Note_on_c, 9, 37, 95
4, 151680, Note_on_c, 9, 42, 95
4, 151920, Note_off_c, 9, 37, 95
4, 151920, Note_off_c, 9, 42, 95
4, 151920, Note_on_c, 9, 37, 95
4, 152400, Note_off_c, 9, 37, 95
4, 152400, Note_on_c, 9, 37, 95
4, 152400, Note_on_c, 9, 42, 95
4, 153120, Note_off_c, 9, 37, 95
4, 153120, Note_off_c, 9, 42, 95
4, 153120, Note_on_c, 9, 37, 95
4, 153600, Note_off_c, 9, 37, 95
4, 153600, Note_on_c, 9, 37, 95
4, 154080, Note_off_c, 9, 37, 95
4, 154080, Note_on_c, 9, 37, 95
4, 154560, Note_off_c, 9, 37, 95
4, 154560, Note_on_c, 9, 42, 95
4, 154560, Note_on_c, 9, 38, 95
4, 154560, Note_on_c, 9, 39, 95
4, 154800, Note_off_c, 9, 42, 95
4, 154800, Note_off_c, 9, 38, 95
4, 154800, Note_off_c, 9, 39, 95
4, 154800, Note_on_c, 9, 38, 47
4, 154800, Note_on_c, 9, 39, 47
4, 155040, Note_off_c, 9, 38, 47
4, 155040, Note_off_c, 9, 39, 47
4, 155040, Note_on_c, 9, 37, 95
4, 155040, Note_on_c, 9, 42, 95
4, 155520, Note_off_c, 9, 37, 95
4, 155520, Note_off_c, 9, 42, 95
4, 155520, Note_on_c, 9, 37, 95
4, 155520, Note_on_c, 9, 42, 95
4, 155760, Note_off_c, 9, 37, 95
4, 155760, Note_off_c, 9, 42, 95
4, 155760, Note_on_c, 9, 37, 95
4, 156240, Note_off_c, 9, 37, 95
4, 156240, Note_on_c, 9, 37, 95
4, 156240, Note_on_c, 9, 42, 95
4, 156960, Note_off_c, 9, 37, 95
4, 156960, Note_off_c, 9, 42, 95
4, 156960, Note_on_c, 9, 37, 95
4, 157440, Note_off_c, 9, 37, 95
4, 157440, Note_on_c, 9, 37, 95
4, 157920, Note_off_c, 9, 37, 95
4, 157920, Note_on_c, 9, 37, 95
4, 158400, Note_off_c, 9, 37, 95
4, 158400, Note_on_c, 9, 42, 95
4, 158400, Note_on_c, 9, 38, 95
4, 158400, Note_on_c, 9, 39, 95
4, 158640, Note_off_c, 9, 42, 95
4, 158640, Note_off_c, 9, 38, 95
4, 158640, Note_off_c, 9, 39, 95
4, 158640, Note_on_c, 9, 38, 47
4, 158640, Note_on_c, 9, 39, 47
4, 158880, Note_off_c, 9, 38, 47
4, 158880, Note_off_c, 9, 39, 47
4, 158880, Note_on_c, 9, 37, 95
4, 158880, Note_on_c, 9, 42, 95
4, 159360, Note_off_c, 9, 37, 95
4, 159360, Note_off_c, 9, 42, 95
4, 159360, Note_on_c, 9, 37, 95
4, 159360, Note_on_c, 9, 42, 95
4, 159600, Note_off_c, 9, 37, 95
4, 159600, Note_off_c, 9, 42, 95
4, 159600, Note_on_c, 9, 37, 95
4, 160080, Note_off_c, 9, 37, 95
4, 160080, Note_on_c, 9, 37, 95
4, 160080, Note_on_c, 9, 42, 95
4, 160800, Note_off_c, 9, 37, 95
4, 160800, Note_off_c, 9, 42, 95
4, 160800, Note_on_c, 9, 37, 95
4, 161280, Note_off_c, 9, 37, 95
4, 161280, Note_on_c, 9, 37, 95
4, 161760, Note_off_c, 9, 37, 95
4, 161760, Note_on_c, 9, 37, 95
4, 162240, Note_off_c, 9, 37, 95
4, 162240, Note_on_c, 9, 42, 95
4, 162240, Note_on_c, 9, 38, 95
4, 162240, Note_on_c, 9, 39, 95
4, 162480, Note_off_c, 9, 42, 95
4, 162480, Note_off_c, 9, 38, 95
4, 162480, Note_off_c, 9, 39, 95
4, 162480, Note_on_c, 9, 38, 47
4, 162480, Note_on_c, 9, 39, 47
4, 162720, Note_off_c, 9, 38, 47
4, 162720, Note_off_c, 9, 39, 47
4, 162720, Note_on_c, 9, 37, 95
4, 162720, Note_on_c, 9, 42, 95
4, 163200, Note_off_c, 9, 37, 95
4, 163200, Note_off_c, 9, 42, 95
4, 163200, Note_on_c, 9, 37, 95
4, 163200, Note_on_c, 9, 42, 95
4, 163440, Note_off_c, 9, 37, 95
4, 163440, Note_off_c, 9, 42, 95
4, 163440, Note_on_c, 9, 37, 95
4, 163920, Note_off_c, 9, 37, 95
4, 163920, Note_on_c, 9, 37, 95
4, 163920, Note_on_c, 9, 42, 95
4, 164640, Note_off_c, 9, 37, 95
4, 164640, Note_off_c, 9, 42, 95
4, 164640, Note_on_c, 9, 37, 95
4, 165120, Note_off_c, 9, 37, 95
4, 165120, Note_on_c, 9, 37, 95
4, 165600, Note_off_c, 9, 37, 95
4, 165600, Note_on_c, 9, 37, 95
4, 166080, Note_off_c, 9, 37, 95
4, 166080, Note_on_c, 9, 42, 95
4, 166080, Note_on_c, 9, 38, 95
4, 166080, Note_on_c, 9, 39, 95
4, 166320, Note_off_c, 9, 42, 95
4, 166320, Note_off_c, 9, 38, 95
4, 166320, Note_off_c, 9, 39, 95
4, 166320, Note_on_c, 9, 38, 47
4, 166320, Note_on_c, 9, 39, 47
4, 166560, Note_off_c, 9, 38, 47
4, 166560, Note_off_c, 9, 39, 47
4, 168960, Note_on_c, 9, 42, 95
4, 168960, Note_on_c, 9, 35, 95
4, 169440, Note_off_c, 9, 42, 95
4, 169440, Note_off_c, 9, 35, 95
4, 169440, Note_on_c, 9, 42, 95
4, 169920, Note_off_c, 9, 42, 95
4, 169920, Note_on_c, 9, 40, 95
4, 169920, Note_on_c, 9, 42, 95
4, 170400, Note_off_c, 9, 40, 95
4, 170400, Note_off_c, 9, 42, 95
4, 170400, Note_on_c, 9, 42, 95
4, 170880, Note_off_c, 9, 42, 95
4, 170880, Note_on_c, 9, 42, 95
4, 170880, Note_on_c, 9, 35, 95
4, 171120, Note_off_c, 9, 42, 95
4, 171120, Note_off_c, 9, 35, 95
4, 171120, Note_on_c, 9, 35, 95
4, 171360, Note_off_c, 9, 35, 95
4, 171360, Note_on_c, 9, 42, 95
4, 171840, Note_off_c, 9, 42, 95
4, 171840, Note_on_c, 9, 40, 95
4, 171840, Note_on_c, 9, 42, 95
4, 172320, Note_off_c, 9, 40, 95
4, 172320, Note_off_c, 9, 42, 95
4, 172320, Note_on_c, 9, 42, 95
4, 172800, Note_off_c, 9, 42, 95
4, 172800, Note_on_c, 9, 42, 95
4, 172800, Note_on_c, 9, 35, 95
4, 173040, Note_off_c, 9, 42, 95
4, 173040, Note_off_c, 9, 35, 95
4, 173040, Note_on_c, 9, 35, 95
4, 173280, Note_off_c, 9, 35, 95
4, 173280, Note_on_c, 9, 42, 95
4, 173760, Note_off_c, 9, 42, 95
4, 173760, Note_on_c, 9, 40, 95
4, 173760, Note_on_c, 9, 42, 95
4, 174240, Note_off_c, 9, 40, 95
4, 174240, Note_off_c, 9, 42, 95
4, 174240, Note_on_c, 9, 42, 95
4, 174720, Note_off_c, 9, 42, 95
4, 174720, Note_on_c, 9, 42, 95
4, 174720, Note_on_c, 9, 35, 95
4, 174960, Note_off_c, 9, 42, 95
4, 174960, Note_off_c, 9, 35, 95
4, 174960, Note_on_c, 9, 35, 95
4, 175200, Note_off_c, 9, 35, 95
4, 175200, Note_on_c, 9, 42, 95
4, 175680, Note_off_c, 9, 42, 95
4, 175680, Note_on_c, 9, 40, 95
4, 175680, Note_on_c, 9, 42, 95
4, 176160, Note_off_c, 9, 40, 95
4, 176160, Note_off_c, 9, 42, 95
4, 176160, Note_on_c, 9, 42, 95
4, 176640, Note_off_c, 9, 42, 95
4, 176640, Note_on_c, 9, 42, 95
4, 176640, Note_on_c, 9, 35, 95
4, 177120, Note_off_c, 9, 42, 95
4, 177120, Note_off_c, 9, 35, 95
4, 177120, Note_on_c, 9, 42, 95
4, 177600, Note_off_c, 9, 42, 95
4, 177600, Note_on_c, 9, 40, 95
4, 177600, Note_on_c, 9, 42, 95
4, 178080, Note_off_c, 9, 40, 95
4, 178080, Note_off_c, 9, 42, 95
4, 178080, Note_on_c, 9, 42, 95
4, 178560, Note_off_c, 9, 42, 95
4, 178560, Note_on_c, 9, 42, 95
4, 178560, Note_on_c, 9, 35, 95
4, 178800, Note_off_c, 9, 42, 95
4, 178800, Note_off_c, 9, 35, 95
4, 178800, Note_on_c, 9, 35, 95
4, 179040, Note_off_c, 9, 35, 95
4, 179040, Note_on_c, 9, 42, 95
4, 179520, Note_off_c, 9, 42, 95
4, 179520, Note_on_c, 9, 40, 95
4, 179520, Note_on_c, 9, 42, 95
4, 180000, Note_off_c, 9, 40, 95
4, 180000, Note_off_c, 9, 42, 95
4, 180000, Note_on_c, 9, 42, 95
4, 180480, Note_off_c, 9, 42, 95
4, 180480, Note_on_c, 9, 42, 95
4, 180480, Note_on_c, 9, 35, 95
4, 180720, Note_off_c, 9, 42, 95
4, 180720, Note_off_c, 9, 35, 95
4, 180720, Note_on_c, 9, 35, 95
4, 180960, Note_off_c, 9, 35, 95
4, 180960, Note_on_c, 9, 42, 95
4, 181440, Note_off_c, 9, 42, 95
4, 181440, Note_on_c, 9, 40, 95
4, 181440, Note_on_c, 9, 42, 95
4, 181920, Note_off_c, 9, 40, 95
4, 181920, Note_off_c, 9, 42, 95
4, 181920, Note_on_c, 9, 42, 95
4, 182400, Note_off_c, 9, 42, 95
4, 182400, Note_on_c, 9, 42, 95
4, 182400, Note_on_c, 9, 35, 95
4, 182640, Note_off_c, 9, 42, 95
4, 182640, Note_off_c, 9, 35, 95
4, 182640, Note_on_c, 9, 35, 95
4, 182880, Note_off_c, 9, 35, 95
4, 182880, Note_on_c, 9, 42, 95
4, 183360, Note_off_c, 9, 42, 95
4, 183360, Note_on_c, 9, 40, 95
4, 183360, Note_on_c, 9, 42, 95
4, 183840, Note_off_c, 9, 40, 95
4, 183840, Note_off_c, 9, 42, 95
4, 183840, Note_on_c, 9, 42, 95
4, 184320, Note_off_c, 9, 42, 95
4, 184320, Note_on_c, 9, 42, 95
4, 184320, Note_on_c, 9, 35, 95
4, 184800, Note_off_c, 9, 42, 95
4, 184800, Note_off_c, 9, 35, 95
4, 184800, Note_on_c, 9, 42, 95
4, 185280, Note_off_c, 9, 42, 95
4, 185280, Note_on_c, 9, 40, 95
4, 185280, Note_on_c, 9, 42, 95
4, 185760, Note_off_c, 9, 40, 95
4, 185760, Note_off_c, 9, 42, 95
4, 185760, Note_on_c, 9, 42, 95
4, 186240, Note_off_c, 9, 42, 95
4, 186240, Note_on_c, 9, 42, 95
4, 186240, Note_on_c, 9, 35, 95
4, 186480, Note_off_c, 9, 42, 95
4, 186480, Note_off_c, 9, 35, 95
4, 186480, Note_on_c, 9, 35, 95
4, 186720, Note_off_c, 9, 35, 95
4, 186720, Note_on_c, 9, 42, 95
4, 187200, Note_off_c, 9, 42, 95
4, 187200, Note_on_c, 9, 40, 95
4, 187200, Note_on_c, 9, 42, 95
4, 187680, Note_off_c, 9, 40, 95
4, 187680, Note_off_c, 9, 42, 95
4, 187680, Note_on_c, 9, 42, 95
4, 188160, Note_off_c, 9, 42, 95
4, 188160, Note_on_c, 9, 42, 95
4, 188160, Note_on_c, 9, 35, 95
4, 188400, Note_off_c, 9, 42, 95
4, 188400, Note_off_c, 9, 35, 95
4, 188400, Note_on_c, 9, 35, 95
4, 188640, Note_off_c, 9, 35, 95
4, 188640, Note_on_c, 9, 42, 95
4, 189120, Note_off_c, 9, 42, 95
4, 189120, Note_on_c, 9, 40, 95
4, 189120, Note_on_c, 9, 42, 95
4, 189600, Note_off_c, 9, 40, 95
4, 189600, Note_off_c, 9, 42, 95
4, 189600, Note_on_c, 9, 42, 95
4, 190080, Note_off_c, 9, 42, 95
4, 190080, Note_on_c, 9, 42, 95
4, 190080, Note_on_c, 9, 35, 95
4, 190320, Note_off_c, 9, 42, 95
4, 190320, Note_off_c, 9, 35, 95
4, 190320, Note_on_c, 9, 35, 95
4, 190560, Note_off_c, 9, 35, 95
4, 190560, Note_on_c, 9, 42, 95
4, 191040, Note_off_c, 9, 42, 95
4, 191040, Note_on_c, 9, 40, 95
4, 191040, Note_on_c, 9, 42, 95
4, 191520, Note_off_c, 9, 40, 95
4, 191520, Note_off_c, 9, 42, 95
4, 191520, Note_on_c, 9, 42, 95
4, 192000, Note_off_c, 9, 42, 95
4, 192000, Note_on_c, 9, 35, 95
4, 192960, Note_off_c, 9, 35, 95
4, 192960, Note_on_c, 9, 40, 95
4, 193920, Note_off_c, 9, 40, 95
4, 193920, Note_on_c, 9, 35, 95
4, 194880, Note_off_c, 9, 35, 95
4, 199680, Note_on_c, 9, 42, 95
4, 199680, Note_on_c, 9, 35, 95
4, 200160, Note_off_c, 9, 42, 95
4, 200160, Note_off_c, 9, 35, 95
4, 200160, Note_on_c, 9, 42, 95
4, 200640, Note_off_c, 9, 42, 95
4, 200640, Note_on_c, 9, 40, 95
4, 200640, Note_on_c, 9, 42, 95
4, 201120, Note_off_c, 9, 40, 95
4, 201120, Note_off_c, 9, 42, 95
4, 201120, Note_on_c, 9, 42, 95
4, 201600, Note_off_c, 9, 42, 95
4, 201600, Note_on_c, 9, 42, 95
4, 201600, Note_on_c, 9, 35, 95
4, 201840, Note_off_c, 9, 42, 95
4, 201840, Note_off_c, 9, 35, 95
4, 201840, Note_on_c, 9, 35, 95
4, 202080, Note_off_c, 9, 35, 95
4, 202080, Note_on_c, 9, 42, 95
4, 202560, Note_off_c, 9, 42, 95
4, 202560, Note_on_c, 9, 40, 95
4, 202560, Note_on_c, 9, 42, 95
4, 203040, Note_off_c, 9, 40, 95
4, 203040, Note_off_c, 9, 42, 95
4, 203040, Note_on_c, 9, 42, 95
4, 203520, Note_off_c, 9, 42, 95
4, 203520, Note_on_c, 9, 42, 95
4, 203520, Note_on_c, 9, 35, 95
4, 203760, Note_off_c, 9, 42, 95
4, 203760, Note_off_c, 9, 35, 95
4, 203760, Note_on_c, 9, 35, 95
4, 204000, Note_off_c, 9, 35, 95
4, 204000, Note_on_c, 9, 42, 95
4, 204480, Note_off_c, 9, 42, 95
4, 204480, Note_on_c, 9, 40, 95
4, 204480, Note_on_c, 9, 42, 95
4, 204960, Note_off_c, 9, 40, 95
4, 204960, Note_off_c, 9, 42, 95
4, 204960, Note_on_c, 9, 42, 95
4, 205440, Note_off_c, 9, 42, 95
4, 205440, Note_on_c, 9, 42, 95
4, 205440, Note_on_c, 9, 35, 95
4, 205680, Note_off_c, 9, 42, 95
4, 205680, Note_off_c, 9, 35, 95
4, 205680, Note_on_c, 9, 35, 95
4, 205920, Note_off_c, 9, 35, 95
4, 205920, Note_on_c, 9, 42, 95
4, 206400, Note_off_c, 9, 42, 95
4, 206400, Note_on_c, 9, 40, 95
4, 206400, Note_on_c, 9, 42, 95
4, 206880, Note_off_c, 9, 40, 95
4, 206880, Note_off_c, 9, 42, 95
4, 206880, Note_on_c, 9, 42, 95
4, 207360, Note_off_c, 9, 42, 95
4, 207360, Note_on_c, 9, 42, 95
4, 207360, Note_on_c, 9, 35, 95
4, 207840, Note_off_c, 9, 42, 95
4, 207840, Note_off_c, 9, 35, 95
4, 207840, Note_on_c, 9, 42, 95
4, 208320, Note_off_c, 9, 42, 95
4, 208320, Note_on_c, 9, 40, 95
4, 208320, Note_on_c, 9, 42, 95
4, 208800, Note_off_c, 9, 40, 95
4, 208800, Note_off_c, 9, 42, 95
4, 208800, Note_on_c, 9, 42, 95
4, 209280, Note_off_c, 9, 42, 95
4, 209280, Note_on_c, 9, 42, 95
4, 209280, Note_on_c, 9, 35, 95
4, 209520, Note_off_c, 9, 42, 95
4, 209520, Note_off_c, 9, 35, 95
4, 209520, Note_on_c, 9, 35, 95
4, 209760, Note_off_c, 9, 35, 95
4, 209760, Note_on_c, 9, 42, 95
4, 210240, Note_off_c, 9, 42, 95
4, 210240, Note_on_c, 9, 40, 95
4, 210240, Note_on_c, 9, 42, 95
4, 210720, Note_off_c, 9, 40, 95
4, 210720, Note_off_c, 9, 42, 95
4, 210720, Note_on_c, 9, 42, 95
4, 211200, Note_off_c, 9, 42, 95
4, 211200, Note_on_c, 9, 42, 95
4, 211200, Note_on_c, 9, 35, 95
4, 211440, Note_off_c, 9, 42, 95
4, 211440, Note_off_c, 9, 35, 95
4, 211440, Note_on_c, 9, 35, 95
4, 211680, Note_off_c, 9, 35, 95
4, 211680, Note_on_c, 9, 42, 95
4, 212160, Note_off_c, 9, 42, 95
4, 212160, Note_on_c, 9, 40, 95
4, 212160, Note_on_c, 9, 42, 95
4, 212640, Note_off_c, 9, 40, 95
4, 212640, Note_off_c, 9, 42, 95
4, 212640, Note_on_c, 9, 42, 95
4, 213120, Note_off_c, 9, 42, 95
4, 213120, Note_on_c, 9, 42, 95
4, 213120, Note_on_c, 9, 35, 95
4, 213360, Note_off_c, 9, 42, 95
4, 213360, Note_off_c, 9, 35, 95
4, 213360, Note_on_c, 9, 35, 95
4, 213600, Note_off_c, 9, 35, 95
4, 213600, Note_on_c, 9, 42, 95
4, 214080, Note_off_c, 9, 42, 95
4, 214080, Note_on_c, 9, 40, 95
4, 214080, Note_on_c, 9, 42, 95
4, 214560, Note_off_c, 9, 40, 95
4, 214560, Note_off_c, 9, 42, 95
4, 214560, Note_on_c, 9, 42, 95
4, 215040, Note_off_c, 9, 42, 95
4, 215040, Note_on_c, 9, 42, 95
4, 215040, Note_on_c, 9, 35, 95
4, 215520, Note_off_c, 9, 42, 95
4, 215520, Note_off_c, 9, 35, 95
4, 215520, Note_on_c, 9, 42, 95
4, 216000, Note_off_c, 9, 42, 95
4, 216000, Note_on_c, 9, 40, 95
4, 216000, Note_on_c, 9, 42, 95
4, 216480, Note_off_c, 9, 40, 95
4, 216480, Note_off_c, 9, 42, 95
4, 216480, Note_on_c, 9, 42, 95
4, 216960, Note_off_c, 9, 42, 95
4, 216960, Note_on_c, 9, 42, 95
4, 216960, Note_on_c, 9, 35, 95
4, 217200, Note_off_c, 9, 42, 95
4, 217200, Note_off_c, 9, 35, 95
4, 217200, Note_on_c, 9, 35, 95
4, 217440, Note_off_c, 9, 35, 95
4, 217440, Note_on_c, 9, 42, 95
4, 217920, Note_off_c, 9, 42, 95
4, 217920, Note_on_c, 9, 40, 95
4, 217920, Note_on_c, 9, 42, 95
4, 218400, Note_off_c, 9, 40, 95
4, 218400, Note_off_c, 9, 42, 95
4, 218400, Note_on_c, 9, 42, 95
4, 218880, Note_off_c, 9, 42, 95
4, 218880, Note_on_c, 9, 42, 95
4, 218880, Note_on_c, 9, 35, 95
4, 219120, Note_off_c, 9, 42, 95
4, 219120, Note_off_c, 9, 35, 95
4, 219120, Note_on_c, 9, 35, 95
4, 219360, Note_off_c, 9, 35, 95
4, 219360, Note_on_c, 9, 42, 95
4, 219840, Note_off_c, 9, 42, 95
4, 219840, Note_on_c, 9, 40, 95
4, 219840, Note_on_c, 9, 42, 95
4, 220320, Note_off_c, 9, 40, 95
4, 220320, Note_off_c, 9, 42, 95
4, 220320, Note_on_c, 9, 42, 95
4, 220800, Note_off_c, 9, 42, 95
4, 220800, Note_on_c, 9, 42, 95
4, 220800, Note_on_c, 9, 35, 95
4, 221040, Note_off_c, 9, 42, 95
4, 221040, Note_off_c, 9, 35, 95
4, 221040, Note_on_c, 9, 35, 95
4, 221280, Note_off_c, 9, 35, 95
4, 221280, Note_on_c, 9, 42, 95
4, 221760, Note_off_c, 9, 42, 95
4, 221760, Note_on_c, 9, 40, 95
4, 221760, Note_on_c, 9, 42, 95
4, 222240, Note_off_c, 9, 40, 95
4, 222240, Note_off_c, 9, 42, 95
4, 222240, Note_on_c, 9, 42, 95
4, 222720, Note_off_c, 9, 42, 95
4, 222720, Note_on_c, 9, 42, 95
4, 222720, Note_on_c, 9, 35, 95
4, 223200, Note_off_c, 9, 42, 95
4, 223200, Note_off_c, 9, 35, 95
4, 223200, Note_on_c, 9, 42, 95
4, 223680, Note_off_c, 9, 42, 95
4, 223680, Note_on_c, 9, 40, 95
4, 223680, Note_on_c, 9, 42, 95
4, 224160, Note_off_c, 9, 40, 95
4, 224160, Note_off_c, 9, 42, 95
4, 224160, Note_on_c, 9, 42, 95
4, 224640, Note_off_c, 9, 42, 95
4, 224640, Note_on_c, 9, 42, 95
4, 224640, Note_on_c, 9, 35, 95
4, 224880, Note_off_c, 9, 42, 95
4, 224880, Note_off_c, 9, 35, 95
4, 224880, Note_on_c, 9, 35, 95
4, 225120, Note_off_c, 9, 35, 95
4, 225120, Note_on_c, 9, 42, 95
4, 225600, Note_off_c, 9, 42, 95
4, 225600, Note_on_c, 9, 40, 95
4, 225600, Note_on_c, 9, 42, 95
4, 226080, Note_off_c, 9, 40, 95
4, 226080, Note_off_c, 9, 42, 95
4, 226080, Note_on_c, 9, 42, 95
4, 226560, Note_off_c, 9, 42, 95
4, 229920, Note_on_c, 9, 40, 95
4, 229920, Note_on_c, 9, 42, 95
4, 230400, Note_off_c, 9, 40, 95
4, 230400, Note_off_c, 9, 42, 95
4, 230400, Note_on_c, 9, 42, 95
4, 230400, Note_on_c, 9, 35, 95
4, 230640, Note_off_c, 9, 42, 95
4, 230640, Note_off_c, 9, 35, 95
4, 230640, Note_on_c, 9, 35, 95
4, 230880, Note_off_c, 9, 35, 95
4, 230880, Note_on_c, 9, 42, 95
4, 231360, Note_off_c, 9, 42, 95
4, 231360, Note_on_c, 9, 40, 95
4, 231360, Note_on_c, 9, 42, 95
4, 231840, Note_off_c, 9, 40, 95
4, 231840, Note_off_c, 9, 42, 95
4, 231840, Note_on_c, 9, 42, 95
4, 232320, Note_off_c, 9, 42, 95
4, 232320, Note_on_c, 9, 42, 95
4, 232320, Note_on_c, 9, 35, 95
4, 232560, Note_off_c, 9, 42, 95
4, 232560, Note_off_c, 9, 35, 95
4, 232560, Note_on_c, 9, 35, 95
4, 232800, Note_off_c, 9, 35, 95
4, 232800, Note_on_c, 9, 42, 95
4, 233280, Note_off_c, 9, 42, 95
4, 233280, Note_on_c, 9, 40, 95
4, 233280, Note_on_c, 9, 42, 95
4, 233760, Note_off_c, 9, 40, 95
4, 233760, Note_off_c, 9, 42, 95
4, 233760, Note_on_c, 9, 42, 95
4, 234240, Note_off_c, 9, 42, 95
4, 234240, Note_on_c, 9, 42, 95
4, 234240, Note_on_c, 9, 35, 95
4, 234480, Note_off_c, 9, 42, 95
4, 234480, Note_off_c, 9, 35, 95
4, 234480, Note_on_c, 9, 35, 95
4, 234720, Note_off_c, 9, 35, 95
4, 234720, Note_on_c, 9, 42, 95
4, 235200, Note_off_c, 9, 42, 95
4, 235200, Note_on_c, 9, 40, 95
4, 235200, Note_on_c, 9, 42, 95
4, 235680, Note_off_c, 9, 40, 95
4, 235680, Note_off_c, 9, 42, 95
4, 235680, Note_on_c, 9, 42, 95
4, 236160, Note_off_c, 9, 42, 95
4, 236160, Note_on_c, 9, 42, 95
4, 236160, Note_on_c, 9, 35, 95
4, 236400, Note_off_c, 9, 42, 95
4, 236400, Note_off_c, 9, 35, 95
4, 236400, Note_on_c, 9, 35, 95
4, 236640, Note_off_c, 9, 35, 95
4, 236640, Note_on_c, 9, 42, 95
4, 237120, Note_off_c, 9, 42, 95
4, 237120, Note_on_c, 9, 40, 95
4, 237120, Note_on_c, 9, 42, 95
4, 237600, Note_off_c, 9, 40, 95
4, 237600, Note_off_c, 9, 42, 95
4, 237600, Note_on_c, 9, 42, 95
4, 238080, Note_off_c, 9, 42, 95
4, 238080, Note_on_c, 9, 42, 95
4, 238080, Note_on_c, 9, 35, 95
4, 238320, Note_off_c, 9, 42, 95
4, 238320, Note_off_c, 9, 35, 95
4, 238320, Note_on_c, 9, 35, 95
4, 238560, Note_off_c, 9, 35, 95
4, 238560, Note_on_c, 9, 42, 95
4, 239040, Note_off_c, 9, 42, 95
4, 239040, Note_on_c, 9, 40, 95
4, 239040, Note_on_c, 9, 42, 95
4, 239520, Note_off_c, 9, 40, 95
4, 239520, Note_off_c, 9, 42, 95
4, 239520, Note_on_c, 9, 42, 95
4, 240000, Note_off_c, 9, 42, 95
4, 240000, Note_on_c, 9, 42, 95
4, 240000, Note_on_c, 9, 35, 95
4, 240240, Note_off_c, 9, 42, 95
4, 240240, Note_off_c, 9, 35, 95
4, 240240, Note_on_c, 9, 35, 95
4, 240480, Note_off_c, 9, 35, 95
4, 240480, Note_on_c, 9, 42, 95
4, 240960, Note_off_c, 9, 42, 95
4, 240960, Note_on_c, 9, 40, 95
4, 240960, Note_on_c, 9, 42, 95
4, 241440, Note_off_c, 9, 40, 95
4, 241440, Note_off_c, 9, 42, 95
4, 241440, Note_on_c, 9, 42, 95
4, 241920, Note_off_c, 9, 42, 95
4, 241920, Note_on_c, 9, 42, 95
4, 241920, Note_on_c, 9, 35, 95
4, 242160, Note_off_c, 9, 42, 95
4, 242160, Note_off_c, 9, 35, 95
4, 242160, Note_on_c, 9, 35, 95
4, 242400, Note_off_c, 9, 35, 95
4, 242400, Note_on_c, 9, 42, 95
4, 242880, Note_off_c, 9, 42, 95
4, 242880, Note_on_c, 9, 40, 95
4, 242880, Note_on_c, 9, 42, 95
4, 243360, Note_off_c, 9, 40, 95
4, 243360, Note_off_c, 9, 42, 95
4, 243360, Note_on_c, 9, 42, 95
4, 243840, Note_off_c, 9, 42, 95
4, 243840, Note_on_c, 9, 42, 95
4, 243840, Note_on_c, 9, 35, 95
4, 244080, Note_off_c, 9, 42, 95
4, 244080, Note_off_c, 9, 35, 95
4, 244080, Note_on_c, 9, 35, 95
4, 244320, Note_off_c, 9, 35, 95
4, 244320, Note_on_c, 9, 42, 95
4, 244800, Note_off_c, 9, 42, 95
4, 244800, Note_on_c, 9, 40, 95
4, 244800, Note_on_c, 9, 42, 95
4, 245280, Note_off_c, 9, 40, 95
4, 245280, Note_off_c, 9, 42, 95
4, 245280, Note_on_c, 9, 42, 95
4, 245760, Note_off_c, 9, 42, 95
4, 245760, Note_on_c, 9, 42, 95
4, 245760, Note_on_c, 9, 35, 95
4, 246000, Note_off_c, 9, 42, 95
4, 246000, Note_off_c, 9, 35, 95
4, 246000, Note_on_c, 9, 35, 95
4, 246240, Note_off_c, 9, 35, 95
4, 246240, Note_on_c, 9, 42, 95
4, 246720, Note_off_c, 9, 42, 95
4, 246720, Note_on_c, 9, 40, 95
4, 246720, Note_on_c, 9, 53, 95
4, 247200, Note_off_c, 9, 40, 95
4, 247200, Note_off_c, 9, 53, 95
4, 247200, Note_on_c, 9, 42, 95
4, 247680, Note_off_c, 9, 42, 95
4, 247680, Note_on_c, 9, 42, 95
4, 247680, Note_on_c, 9, 35, 95
4, 247920, Note_off_c, 9, 42, 95
4, 247920, Note_off_c, 9, 35, 95
4, 247920, Note_on_c, 9, 35, 95
4, 248160, Note_off_c, 9, 35, 95
4, 248160, Note_on_c, 9, 42, 95
4, 248640, Note_off_c, 9, 42, 95
4, 248640, Note_on_c, 9, 40, 95
4, 248640, Note_on_c, 9, 53, 95
4, 249120, Note_off_c, 9, 40, 95
4, 249120, Note_off_c, 9, 53, 95
4, 249120, Note_on_c, 9, 42, 95
4, 249600, Note_off_c, 9, 42, 95
4, 249600, Note_on_c, 9, 42, 95
4, 249600, Note_on_c, 9, 35, 95
4, 249840, Note_off_c, 9, 42, 95
4, 249840, Note_off_c, 9, 35, 95
4, 249840, Note_on_c, 9, 35, 95
4, 250080, Note_off_c, 9, 35, 95
4, 250080, Note_on_c, 9, 42, 95
4, 250560, Note_off_c, 9, 42, 95
4, 250560, Note_on_c, 9, 40, 95
4, 250560, Note_on_c, 9, 53, 95
4, 251040, Note_off_c, 9, 40, 95
4, 251040, Note_off_c, 9, 53, 95
4, 251040, Note_on_c, 9, 42, 95
4, 251520, Note_off_c, 9, 42, 95
4, 251520, Note_on_c, 9, 42, 95
4, 251520, Note_on_c, 9, 35, 95
4, 251760, Note_off_c, 9, 42, 95
4, 251760, Note_off_c, 9, 35, 95
4, 251760, Note_on_c, 9, 35, 95
4, 252000, Note_off_c, 9, 35, 95
4, 252000, Note_on_c, 9, 42, 95
4, 252480, Note_off_c, 9, 42, 95
4, 252480, Note_on_c, 9, 40, 95
4, 252480, Note_on_c, 9, 53, 95
4, 252960, Note_off_c, 9, 40, 95
4, 252960, Note_off_c, 9, 53, 95
4, 252960, Note_on_c, 9, 42, 95
4, 253440, Note_off_c, 9, 42, 95
4, 253440, Note_on_c, 9, 42, 95
4, 253440, Note_on_c, 9, 35, 95
4, 253680, Note_off_c, 9, 42, 95
4, 253680, Note_off_c, 9, 35, 95
4, 253680, Note_on_c, 9, 35, 95
4, 253920, Note_off_c, 9, 35, 95
4, 253920, Note_on_c, 9, 42, 95
4, 254400, Note_off_c, 9, 42, 95
4, 254400, Note_on_c, 9, 40, 95
4, 254400, Note_on_c, 9, 53, 95
4, 254880, Note_off_c, 9, 40, 95
4, 254880, Note_off_c, 9, 53, 95
4, 254880, Note_on_c, 9, 42, 95
4, 255360, Note_off_c, 9, 42, 95
4, 255360, Note_on_c, 9, 42, 95
4, 255360, Note_on_c, 9, 35, 95
4, 255600, Note_off_c, 9, 42, 95
4, 255600, Note_off_c, 9, 35, 95
4, 255600, Note_on_c, 9, 35, 95
4, 255840, Note_off_c, 9, 35, 95
4, 255840, Note_on_c, 9, 42, 95
4, 256320, Note_off_c, 9, 42, 95
4, 256320, Note_on_c, 9, 40, 95
4, 256320, Note_on_c, 9, 53, 95
4, 256800, Note_off_c, 9, 40, 95
4, 256800, Note_off_c, 9, 53, 95
4, 256800, Note_on_c, 9, 42, 95
4, 257280, Note_off_c, 9, 42, 95
4, 257280, Note_on_c, 9, 42, 95
4, 257280, Note_on_c, 9, 35, 95
4, 257520, Note_off_c, 9, 42, 95
4, 257520, Note_off_c, 9, 35, 95
4, 257520, Note_on_c, 9, 35, 95
4, 257760, Note_off_c, 9, 35, 95
4, 257760, Note_on_c, 9, 42, 95
4, 258240, Note_off_c, 9, 42, 95
4, 258240, Note_on_c, 9, 40, 95
4, 258240, Note_on_c, 9, 53, 95
4, 258720, Note_off_c, 9, 40, 95
4, 258720, Note_off_c, 9, 53, 95
4, 258720, Note_on_c, 9, 42, 95
4, 259200, Note_off_c, 9, 42, 95
4, 259200, Note_on_c, 9, 42, 95
4, 259200, Note_on_c, 9, 35, 95
4, 259440, Note_off_c, 9, 42, 95
4, 259440, Note_off_c, 9, 35, 95
4, 259440, Note_on_c, 9, 35, 95
4, 259680, Note_off_c, 9, 35, 95
4, 259680, Note_on_c, 9, 42, 95
4, 260160, Note_off_c, 9, 42, 95
4, 260160, Note_on_c, 9, 40, 95
4, 260160, Note_on_c, 9, 53, 95
4, 260640, Note_off_c, 9, 40, 95
4, 260640, Note_off_c, 9, 53, 95
4, 260640, Note_on_c, 9, 42, 95
4, 261120, Note_off_c, 9, 42, 95
4, 261120, Note_on_c, 9, 42, 95
4, 261120, Note_on_c, 9, 35, 95
4, 261600, Note_off_c, 9, 42, 95
4, 261600, Note_off_c, 9, 35, 95
4, 261600, Note_on_c, 9, 42, 95
4, 262080, Note_off_c, 9, 42, 95
4, 262080, Note_on_c, 9, 40, 95
4, 262080, Note_on_c, 9, 42, 95
4, 262560, Note_off_c, 9, 40, 95
4, 262560, Note_off_c, 9, 42, 95
4, 262560, Note_on_c, 9, 42, 95
4, 263040, Note_off_c, 9, 42, 95
4, 263040, Note_on_c, 9, 42, 95
4, 263040, Note_on_c, 9, 35, 95
4, 263280, Note_off_c, 9, 42, 95
4, 263280, Note_off_c, 9, 35, 95
4, 263280, Note_on_c, 9, 35, 95
4, 263520, Note_off_c, 9, 35, 95
4, 263520, Note_on_c, 9, 42, 95
4, 264000, Note_off_c, 9, 42, 95
4, 264000, Note_on_c, 9, 40, 95
4, 264000, Note_on_c, 9, 42, 95
4, 264480, Note_off_c, 9, 40, 95
4, 264480, Note_off_c, 9, 42, 95
4, 264480, Note_on_c, 9, 42, 95
4, 264960, Note_off_c, 9, 42, 95
4, 264960, Note_on_c, 9, 42, 95
4, 264960, Note_on_c, 9, 35, 95
4, 265200, Note_off_c, 9, 42, 95
4, 265200, Note_off_c, 9, 35, 95
4, 265200, Note_on_c, 9, 35, 95
4, 265440, Note_off_c, 9, 35, 95
4, 265440, Note_on_c, 9, 42, 95
4, 265920, Note_off_c, 9, 42, 95
4, 265920, Note_on_c, 9, 40, 95
4, 265920, Note_on_c, 9, 42, 95
4, 266400, Note_off_c, 9, 40, 95
4, 266400, Note_off_c, 9, 42, 95
4, 266400, Note_on_c, 9, 42, 95
4, 266880, Note_off_c, 9, 42, 95
4, 266880, Note_on_c, 9, 42, 95
4, 266880, Note_on_c, 9, 35, 95
4, 267120, Note_off_c, 9, 42, 95
4, 267120, Note_off_c, 9, 35, 95
4, 267120, Note_on_c, 9, 35, 95
4, 267360, Note_off_c, 9, 35, 95
4, 267360, Note_on_c, 9, 42, 95
4, 267840, Note_off_c, 9, 42, 95
4, 267840, Note_on_c, 9, 40, 95
4, 267840, Note_on_c, 9, 42, 95
4, 268320, Note_off_c, 9, 40, 95
4, 268320, Note_off_c, 9, 42, 95
4, 268320, Note_on_c, 9, 42, 95
4, 268800, Note_off_c, 9, 42, 95
4, 268800, Note_on_c, 9, 42, 95
4, 268800, Note_on_c, 9, 35, 95
4, 269280, Note_off_c, 9, 42, 95
4, 269280, Note_off_c, 9, 35, 95
4, 269280, Note_on_c, 9, 42, 95
4, 269760, Note_off_c, 9, 42, 95
4, 269760, Note_on_c, 9, 40, 95
4, 269760, Note_on_c, 9, 42, 95
4, 270240, Note_off_c, 9, 40, 95
4, 270240, Note_off_c, 9, 42, 95
4, 270240, Note_on_c, 9, 42, 95
4, 270720, Note_off_c, 9, 42, 95
4, 270720, Note_on_c, 9, 42, 95
4, 270720, Note_on_c, 9, 35, 95
4, 270960, Note_off_c, 9, 42, 95
4, 270960, Note_off_c, 9, 35, 95
4, 270960, Note_on_c, 9, 35, 95
4, 271200, Note_off_c, 9, 35, 95
4, 271200, Note_on_c, 9, 42, 95
4, 271680, Note_off_c, 9, 42, 95
4, 271680, Note_on_c, 9, 40, 95
4, 271680, Note_on_c, 9, 42, 95
4, 272160, Note_off_c, 9, 40, 95
4, 272160, Note_off_c, 9, 42, 95
4, 272160, Note_on_c, 9, 42, 95
4, 272640, Note_off_c, 9, 42, 95
4, 272640, Note_on_c, 9, 42, 95
4, 272640, Note_on_c, 9, 35, 95
4, 272880, Note_off_c, 9, 42, 95
4, 272880, Note_off_c, 9, 35, 95
4, 272880, Note_on_c, 9, 35, 95
4, 273120, Note_off_c, 9, 35, 95
4, 273120, Note_on_c, 9, 42, 95
4, 273600, Note_off_c, 9, 42, 95
4, 273600, Note_on_c, 9, 40, 95
4, 273600, Note_on_c, 9, 42, 95
4, 274080, Note_off_c, 9, 40, 95
4, 274080, Note_off_c, 9, 42, 95
4, 274080, Note_on_c, 9, 42, 95
4, 274560, Note_off_c, 9, 42, 95
4, 274560, Note_on_c, 9, 42, 95
4, 274560, Note_on_c, 9, 35, 95
4, 274800, Note_off_c, 9, 42, 95
4, 274800, Note_off_c, 9, 35, 95
4, 274800, Note_on_c, 9, 35, 95
4, 275040, Note_off_c, 9, 35, 95
4, 275040, Note_on_c, 9, 42, 95
4, 275520, Note_off_c, 9, 42, 95
4, 275520, Note_on_c, 9, 40, 95
4, 275520, Note_on_c, 9, 42, 95
4, 276000, Note_off_c, 9, 40, 95
4, 276000, Note_off_c, 9, 42, 95
4, 276000, Note_on_c, 9, 42, 95
4, 276480, Note_off_c, 9, 42, 95
4, 276480, Note_on_c, 9, 42, 95
4, 276480, Note_on_c, 9, 35, 95
4, 276960, Note_off_c, 9, 42, 95
4, 276960, Note_off_c, 9, 35, 95
4, 276960, Note_on_c, 9, 42, 95
4, 277440, Note_off_c, 9, 42, 95
4, 277440, Note_on_c, 9, 40, 95
4, 277440, Note_on_c, 9, 42, 95
4, 277920, Note_off_c, 9, 40, 95
4, 277920, Note_off_c, 9, 42, 95
4, 277920, Note_on_c, 9, 42, 95
4, 278400, Note_off_c, 9, 42, 95
4, 278400, Note_on_c, 9, 42, 95
4, 278400, Note_on_c, 9, 35, 95
4, 278640, Note_off_c, 9, 42, 95
4, 278640, Note_off_c, 9, 35, 95
4, 278640, Note_on_c, 9, 35, 95
4, 278880, Note_off_c, 9, 35, 95
4, 278880, Note_on_c, 9, 42, 95
4, 279360, Note_off_c, 9, 42, 95
4, 279360, Note_on_c, 9, 40, 95
4, 279360, Note_on_c, 9, 42, 95
4, 279840, Note_off_c, 9, 40, 95
4, 279840, Note_off_c, 9, 42, 95
4, 279840, Note_on_c, 9, 42, 95
4, 280320, Note_off_c, 9, 42, 95
4, 280320, Note_on_c, 9, 42, 95
4, 280320, Note_on_c, 9, 35, 95
4, 280560, Note_off_c, 9, 42, 95
4, 280560, Note_off_c, 9, 35, 95
4, 280560, Note_on_c, 9, 35, 95
4, 280800, Note_off_c, 9, 35, 95
4, 280800, Note_on_c, 9, 42, 95
4, 281280, Note_off_c, 9, 42, 95
4, 281280, Note_on_c, 9, 40, 95
4, 281280, Note_on_c, 9, 42, 95
4, 281760, Note_off_c, 9, 40, 95
4, 281760, Note_off_c, 9, 42, 95
4, 281760, Note_on_c, 9, 42, 95
4, 282240, Note_off_c, 9, 42, 95
4, 282240, Note_on_c, 9, 42, 95
4, 282240, Note_on_c, 9, 35, 95
4, 282480, Note_off_c, 9, 42, 95
4, 282480, Note_off_c, 9, 35, 95
4, 282480, Note_on_c, 9, 35, 95
4, 282720, Note_off_c, 9, 35, 95
4, 282720, Note_on_c, 9, 42, 95
4, 283200, Note_off_c, 9, 42, 95
4, 283200, Note_on_c, 9, 40, 95
4, 283200, Note_on_c, 9, 42, 95
4, 283680, Note_off_c, 9, 40, 95
4, 283680, Note_off_c, 9, 42, 95
4, 283680, Note_on_c, 9, 42, 95
4, 284160, Note_off_c, 9, 42, 95
4, 284160, Note_on_c, 9, 42, 95
4, 284160, Note_on_c, 9, 35, 95
4, 284640, Note_off_c, 9, 42, 95
4, 284640, Note_off_c, 9, 35, 95
4, 284640, Note_on_c, 9, 42, 95
4, 285120, Note_off_c, 9, 42, 95
4, 285120, Note_on_c, 9, 40, 95
4, 285120, Note_on_c, 9, 42, 95
4, 285600, Note_off_c, 9, 40, 95
4, 285600, Note_off_c, 9, 42, 95
4, 285600, Note_on_c, 9, 42, 95
4, 286080, Note_off_c, 9, 42, 95
4, 286080, Note_on_c, 9, 42, 95
4, 286080, Note_on_c, 9, 35, 95
4, 286320, Note_off_c, 9, 42, 95
4, 286320, Note_off_c, 9, 35, 95
4, 286320, Note_on_c, 9, 35, 95
4, 286560, Note_off_c, 9, 35, 95
4, 286560, Note_on_c, 9, 42, 95
4, 287040, Note_off_c, 9, 42, 95
4, 287040, Note_on_c, 9, 40, 95
4, 287040, Note_on_c, 9, 42, 95
4, 287520, Note_off_c, 9, 40, 95
4, 287520, Note_off_c, 9, 42, 95
4, 287520, Note_on_c, 9, 42, 95
4, 288000, Note_off_c, 9, 42, 95
4, 288000, Note_on_c, 9, 42, 95
4, 288000, Note_on_c, 9, 35, 95
4, 288240, Note_off_c, 9, 42, 95
4, 288240, Note_off_c, 9, 35, 95
4, 288240, Note_on_c, 9, 35, 95
4, 288480, Note_off_c, 9, 35, 95
4, 288480, Note_on_c, 9, 42, 95
4, 288960, Note_off_c, 9, 42, 95
4, 288960, Note_on_c, 9, 40, 95
4, 288960, Note_on_c, 9, 42, 95
4, 289440, Note_off_c, 9, 40, 95
4, 289440, Note_off_c, 9, 42, 95
4, 289440, Note_on_c, 9, 42, 95
4, 289920, Note_off_c, 9, 42, 95
4, 289920, Note_on_c, 9, 42, 95
4, 289920, Note_on_c, 9, 35, 95
4, 290160, Note_off_c, 9, 42, 95
4, 290160, Note_off_c, 9, 35, 95
4, 290160, Note_on_c, 9, 35, 95
4, 290400, Note_off_c, 9, 35, 95
4, 290400, Note_on_c, 9, 42, 95
4, 290880, Note_off_c, 9, 42, 95
4, 290880, Note_on_c, 9, 40, 95
4, 290880, Note_on_c, 9, 42, 95
4, 291360, Note_off_c, 9, 40, 95
4, 291360, Note_off_c, 9, 42, 95
4, 291360, Note_on_c, 9, 42, 95
4, 291840, Note_off_c, 9, 42, 95
4, 291840, End_track
5, 0, Start_track
5, 0, Pitch_bend_c, 9, 8192
5, 0, Control_c, 9, 7, 79
5, 0, Control_c, 9, 10, 63
5, 0, Control_c, 9, 93, 0
5, 0, Control_c, 9, 91, 0
5, 0, Control_c, 9, 95, 0
5, 0, Control_c, 9, 92, 0
5, 0, Control_c, 9, 11, 127
5, 0, Program_c, 9, 0
5, 16320, Note_on_c, 9, 64, 95
5, 16560, Note_off_c, 9, 64, 95
5, 16560, Note_on_c, 9, 64, 95
5, 16800, Note_off_c, 9, 64, 95
5, 16800, Note_on_c, 9, 64, 47
5, 17040, Note_off_c, 9, 64, 47
5, 18240, Note_on_c, 9, 64, 95
5, 18480, Note_off_c, 9, 64, 95
5, 18480, Note_on_c, 9, 64, 95
5, 18720, Note_off_c, 9, 64, 95
5, 18720, Note_on_c, 9, 64, 47
5, 18960, Note_off_c, 9, 64, 47
5, 20160, Note_on_c, 9, 64, 95
5, 20400, Note_off_c, 9, 64, 95
5, 20400, Note_on_c, 9, 64, 95
5, 20640, Note_off_c, 9, 64, 95
5, 20640, Note_on_c, 9, 64, 47
5, 20880, Note_off_c, 9, 64, 47
5, 22080, Note_on_c, 9, 64, 95
5, 22320, Note_off_c, 9, 64, 95
5, 22320, Note_on_c, 9, 64, 95
5, 22560, Note_off_c, 9, 64, 95
5, 22560, Note_on_c, 9, 64, 47
5, 22800, Note_off_c, 9, 64, 47
5, 24000, Note_on_c, 9, 64, 95
5, 24240, Note_off_c, 9, 64, 95
5, 24240, Note_on_c, 9, 64, 95
5, 24480, Note_off_c, 9, 64, 95
5, 24480, Note_on_c, 9, 64, 47
5, 24720, Note_off_c, 9, 64, 47
5, 25920, Note_on_c, 9, 64, 95
5, 26160, Note_off_c, 9, 64, 95
5, 26160, Note_on_c, 9, 64, 95
5, 26400, Note_off_c, 9, 64, 95
5, 26400, Note_on_c, 9, 64, 47
5, 26640, Note_off_c, 9, 64, 47
5, 27840, Note_on_c, 9, 64, 95
5, 28080, Note_off_c, 9, 64, 95
5, 28080, Note_on_c, 9, 64, 95
5, 28320, Note_off_c, 9, 64, 95
5, 28320, Note_on_c, 9, 64, 47
5, 28560, Note_off_c, 9, 64, 47
5, 29760, Note_on_c, 9, 64, 95
5, 30000, Note_off_c, 9, 64, 95
5, 30000, Note_on_c, 9, 64, 95
5, 30240, Note_off_c, 9, 64, 95
5, 30240, Note_on_c, 9, 64, 47
5, 30480, Note_off_c, 9, 64, 47
5, 31680, Note_on_c, 9, 64, 95
5, 31920, Note_off_c, 9, 64, 95
5, 31920, Note_on_c, 9, 64, 95
5, 32160, Note_off_c, 9, 64, 95
5, 32160, Note_on_c, 9, 64, 47
5, 32400, Note_off_c, 9, 64, 47
5, 33600, Note_on_c, 9, 64, 95
5, 33840, Note_off_c, 9, 64, 95
5, 33840, Note_on_c, 9, 64, 95
5, 34080, Note_off_c, 9, 64, 95
5, 34080, Note_on_c, 9, 64, 47
5, 34320, Note_off_c, 9, 64, 47
5, 35520, Note_on_c, 9, 64, 95
5, 35760, Note_off_c, 9, 64, 95
5, 35760, Note_on_c, 9, 64, 95
5, 36000, Note_off_c, 9, 64, 95
5, 36000, Note_on_c, 9, 64, 47
5, 36240, Note_off_c, 9, 64, 47
5, 37440, Note_on_c, 9, 64, 95
5, 37680, Note_off_c, 9, 64, 95
5, 37680, Note_on_c, 9, 64, 95
5, 37920, Note_off_c, 9, 64, 95
5, 37920, Note_on_c, 9, 64, 47
5, 38160, Note_off_c, 9, 64, 47
5, 39360, Note_on_c, 9, 64, 95
5, 39600, Note_off_c, 9, 64, 95
5, 39600, Note_on_c, 9, 64, 95
5, 39840, Note_off_c, 9, 64, 95
5, 39840, Note_on_c, 9, 64, 47
5, 40080, Note_off_c, 9, 64, 47
5, 41280, Note_on_c, 9, 64, 95
5, 41520, Note_off_c, 9, 64, 95
5, 41520, Note_on_c, 9, 64, 95
5, 41760, Note_off_c, 9, 64, 95
5, 41760, Note_on_c, 9, 64, 47
5, 42000, Note_off_c, 9, 64, 47
5, 43200, Note_on_c, 9, 64, 95
5, 43440, Note_off_c, 9, 64, 95
5, 43440, Note_on_c, 9, 64, 95
5, 43680, Note_off_c, 9, 64, 95
5, 43680, Note_on_c, 9, 64, 47
5, 43920, Note_off_c, 9, 64, 47
5, 77760, Note_on_c, 9, 64, 95
5, 78000, Note_off_c, 9, 64, 95
5, 78000, Note_on_c, 9, 64, 95
5, 78240, Note_off_c, 9, 64, 95
5, 78240, Note_on_c, 9, 64, 47
5, 78480, Note_off_c, 9, 64, 47
5, 79680, Note_on_c, 9, 64, 95
5, 79920, Note_off_c, 9, 64, 95
5, 79920, Note_on_c, 9, 64, 95
5, 80160, Note_off_c, 9, 64, 95
5, 80160, Note_on_c, 9, 64, 47
5, 80400, Note_off_c, 9, 64, 47
5, 81600, Note_on_c, 9, 64, 95
5, 81840, Note_off_c, 9, 64, 95
5, 81840, Note_on_c, 9, 64, 95
5, 82080, Note_off_c, 9, 64, 95
5, 82080, Note_on_c, 9, 64, 47
5, 82320, Note_off_c, 9, 64, 47
5, 83520, Note_on_c, 9, 64, 95
5, 83760, Note_off_c, 9, 64, 95
5, 83760, Note_on_c, 9, 64, 95
5, 84000, Note_off_c, 9, 64, 95
5, 84000, Note_on_c, 9, 64, 47
5, 84240, Note_off_c, 9, 64, 47
5, 85440, Note_on_c, 9, 64, 95
5, 85680, Note_off_c, 9, 64, 95
5, 85680, Note_on_c, 9, 64, 95
5, 85920, Note_off_c, 9, 64, 95
5, 85920, Note_on_c, 9, 64, 47
5, 86160, Note_off_c, 9, 64, 47
5, 87360, Note_on_c, 9, 64, 95
5, 87600, Note_off_c, 9, 64, 95
5, 87600, Note_on_c, 9, 64, 95
5, 87840, Note_off_c, 9, 64, 95
5, 87840, Note_on_c, 9, 64, 47
5, 88080, Note_off_c, 9, 64, 47
5, 89280, Note_on_c, 9, 64, 95
5, 89520, Note_off_c, 9, 64, 95
5, 89520, Note_on_c, 9, 64, 95
5, 89760, Note_off_c, 9, 64, 95
5, 89760, Note_on_c, 9, 64, 47
5, 90000, Note_off_c, 9, 64, 47
5, 91200, Note_on_c, 9, 64, 95
5, 91440, Note_off_c, 9, 64, 95
5, 91440, Note_on_c, 9, 64, 95
5, 91680, Note_off_c, 9, 64, 95
5, 91680, Note_on_c, 9, 64, 47
5, 91920, Note_off_c, 9, 64, 47
5, 93120, Note_on_c, 9, 64, 95
5, 93360, Note_off_c, 9, 64, 95
5, 93360, Note_on_c, 9, 64, 95
5, 93600, Note_off_c, 9, 64, 95
5, 93600, Note_on_c, 9, 64, 47
5, 93840, Note_off_c, 9, 64, 47
5, 95040, Note_on_c, 9, 64, 95
5, 95280, Note_off_c, 9, 64, 95
5, 95280, Note_on_c, 9, 64, 95
5, 95520, Note_off_c, 9, 64, 95
5, 95520, Note_on_c, 9, 64, 47
5, 95760, Note_off_c, 9, 64, 47
5, 96960, Note_on_c, 9, 64, 95
5, 97200, Note_off_c, 9, 64, 95
5, 97200, Note_on_c, 9, 64, 95
5, 97440, Note_off_c, 9, 64, 95
5, 97440, Note_on_c, 9, 64, 47
5, 97680, Note_off_c, 9, 64, 47
5, 98880, Note_on_c, 9, 64, 95
5, 99120, Note_off_c, 9, 64, 95
5, 99120, Note_on_c, 9, 64, 95
5, 99360, Note_off_c, 9, 64, 95
5, 99360, Note_on_c, 9, 64, 47
5, 99600, Note_off_c, 9, 64, 47
5, 100800, Note_on_c, 9, 64, 95
5, 101040, Note_off_c, 9, 64, 95
5, 101040, Note_on_c, 9, 64, 95
5, 101280, Note_off_c, 9, 64, 95
5, 101280, Note_on_c, 9, 64, 47
5, 101520, Note_off_c, 9, 64, 47
5, 102720, Note_on_c, 9, 64, 95
5, 102960, Note_off_c, 9, 64, 95
5, 102960, Note_on_c, 9, 64, 95
5, 103200, Note_off_c, 9, 64, 95
5, 103200, Note_on_c, 9, 64, 47
5, 103440, Note_off_c, 9, 64, 47
5, 104640, Note_on_c, 9, 64, 95
5, 104880, Note_off_c, 9, 64, 95
5, 104880, Note_on_c, 9, 64, 95
5, 105120, Note_off_c, 9, 64, 95
5, 105120, Note_on_c, 9, 64, 47
5, 105360, Note_off_c, 9, 64, 47
5, 105360, End_track
6, 0, Start_track
6, 0, Pitch_bend_c, 4, 8192
6, 0, Control_c, 4, 7, 103
6, 0, Control_c, 4, 10, 63
6, 0, Control_c, 4, 93, 0
6, 0, Control_c, 4, 91, 0
6, 0, Control_c, 4, 95, 0
6, 0, Control_c, 4, 92, 0
6, 0, Control_c, 4, 11, 127
6, 0, Program_c, 4, 73
6, 0, Control_c, 5, 7, 103
6, 0, Control_c, 5, 10, 63
6, 0, Control_c, 5, 93, 0
6, 0, Control_c, 5, 91, 0
6, 0, Control_c, 5, 95, 0
6, 0, Control_c, 5, 92, 0
6, 0, Control_c, 5, 11, 127
6, 0, Program_c, 5, 73
6, 15360, Note_on_c, 4, 52, 95
6, 15840, Note_off_c, 4, 52, 95
6, 15840, Note_on_c, 4, 52, 95
6, 16320, Note_off_c, 4, 52, 95
6, 16320, Note_on_c, 4, 52, 95
6, 16800, Note_off_c, 4, 52, 95
6, 16800, Note_on_c, 4, 52, 95
6, 17040, Note_off_c, 4, 52, 95
6, 17040, Note_on_c, 4, 53, 95
6, 17520, Note_off_c, 4, 53, 95
6, 17760, Note_on_c, 4, 60, 95
6, 18240, Note_off_c, 4, 60, 95
6, 18240, Note_on_c, 4, 57, 95
6, 19200, Note_off_c, 4, 57, 95
6, 19200, Pitch_bend_c, 5, 8448
6, 19200, Note_on_c, 5, 52, 95
6, 19680, Pitch_bend_c, 5, 8448
6, 19680, Pitch_bend_c, 5, 8192
6, 19680, Note_off_c, 5, 52, 95
6, 19680, Pitch_bend_c, 5, 8448
6, 19680, Note_on_c, 5, 52, 95
6, 20160, Pitch_bend_c, 5, 8448
6, 20160, Pitch_bend_c, 5, 8192
6, 20160, Note_off_c, 5, 52, 95
6, 20160, Pitch_bend_c, 5, 8448
6, 20160, Note_on_c, 5, 52, 95
6, 20640, Pitch_bend_c, 5, 8448
6, 20640, Pitch_bend_c, 5, 8192
6, 20640, Note_off_c, 5, 52, 95
6, 20640, Pitch_bend_c, 5, 8448
6, 20640, Note_on_c, 5, 52, 95
6, 20880, Pitch_bend_c, 5, 8448
6, 20880, Pitch_bend_c, 5, 8192
6, 20880, Note_off_c, 5, 52, 95
6, 20880, Note_on_c, 4, 52, 95
6, 21600, Note_off_c, 4, 52, 95
6, 21600, Pitch_bend_c, 5, 8448
6, 21600, Note_on_c, 5, 52, 95
6, 22080, Pitch_bend_c, 5, 8448
6, 22080, Pitch_bend_c, 5, 8192
6, 22080, Note_off_c, 5, 52, 95
6, 22080, Note_on_c, 4, 52, 95
6, 22560, Note_off_c, 4, 52, 95
6, 22560, Pitch_bend_c, 5, 8448
6, 22560, Note_on_c, 5, 52, 95
6, 23040, Pitch_bend_c, 5, 8448
6, 23040, Pitch_bend_c, 5, 8192
6, 23040, Note_off_c, 5, 52, 95
6, 23040, Note_on_c, 4, 52, 95
6, 23520, Note_off_c, 4, 52, 95
6, 23520, Note_on_c, 4, 52, 95
6, 24000, Note_off_c, 4, 52, 95
6, 24000, Note_on_c, 4, 52, 95
6, 24480, Note_off_c, 4, 52, 95
6, 24480, Note_on_c, 4, 52, 95
6, 24720, Note_off_c, 4, 52, 95
6, 24720, Note_on_c, 4, 53, 95
6, 25200, Note_off_c, 4, 53, 95
6, 25440, Note_on_c, 4, 60, 95
6, 25920, Note_off_c, 4, 60, 95
6, 25920, Note_on_c, 4, 57, 95
6, 26880, Note_off_c, 4, 57, 95
6, 26880, Pitch_bend_c, 5, 8448
6, 26880, Note_on_c, 5, 52, 95
6, 27360, Pitch_bend_c, 5, 8448
6, 27360, Pitch_bend_c, 5, 8192
6, 27360, Note_off_c, 5, 52, 95
6, 27360, Pitch_bend_c, 5, 8448
6, 27360, Note_on_c, 5, 52, 95
6, 27840, Pitch_bend_c, 5, 8448
6, 27840, Pitch_bend_c, 5, 8192
6, 27840, Note_off_c, 5, 52, 95
6, 27840, Pitch_bend_c, 5, 8448
6, 27840, Note_on_c, 5, 52, 95
6, 28080, Pitch_bend_c, 5, 8448
6, 28080, Pitch_bend_c, 5, 8192
6, 28080, Note_off_c, 5, 52, 95
6, 28080, Pitch_bend_c, 5, 8448
6, 28080, Note_on_c, 5, 52, 95
6, 28320, Pitch_bend_c, 5, 8448
6, 28320, Pitch_bend_c, 5, 8192
6, 28320, Note_off_c, 5, 52, 95
6, 28320, Note_on_c, 4, 52, 95
6, 28560, Note_off_c, 4, 52, 95
6, 28560, Pitch_bend_c, 5, 8448
6, 28560, Note_on_c, 5, 52, 95
6, 29040, Pitch_bend_c, 5, 8448
6, 29040, Pitch_bend_c, 5, 8192
6, 29040, Note_off_c, 5, 52, 95
6, 29280, Pitch_bend_c, 5, 8448
6, 29280, Note_on_c, 5, 52, 95
6, 29760, Pitch_bend_c, 5, 8448
6, 29760, Pitch_bend_c, 5, 8192
6, 29760, Note_off_c, 5, 52, 95
6, 29760, Note_on_c, 4, 52, 95
6, 30240, Note_off_c, 4, 52, 95
6, 30240, Pitch_bend_c, 5, 8448
6, 30240, Note_on_c, 5, 52, 95
6, 30720, Pitch_bend_c, 5, 8448
6, 30720, Pitch_bend_c, 5, 8192
6, 30720, Note_off_c, 5, 52, 95
6, 30720, Note_on_c, 4, 52, 95
6, 31200, Note_off_c, 4, 52, 95
6, 31200, Note_on_c, 4, 52, 95
6, 31680, Note_off_c, 4, 52, 95
6, 31680, Note_on_c, 4, 52, 95
6, 31920, Note_off_c, 4, 52, 95
6, 31920, Note_on_c, 4, 52, 95
6, 32160, Note_off_c, 4, 52, 95
6, 32160, Note_on_c, 4, 52, 95
6, 32400, Note_off_c, 4, 52, 95
6, 32400, Note_on_c, 4, 52, 95
6, 32880, Note_off_c, 4, 52, 95
6, 33120, Note_on_c, 4, 60, 95
6, 33600, Note_off_c, 4, 60, 95
6, 33600, Note_on_c, 4, 57, 95
6, 34560, Note_off_c, 4, 57, 95
6, 34560, Pitch_bend_c, 5, 8448
6, 34560, Note_on_c, 5, 52, 95
6, 34800, Pitch_bend_c, 5, 8448
6, 34800, Pitch_bend_c, 5, 8192
6, 34800, Note_off_c, 5, 52, 95
6, 34800, Note_on_c, 4, 52, 47
6, 35040, Note_off_c, 4, 52, 47
6, 35040, Pitch_bend_c, 5, 8448
6, 35040, Note_on_c, 5, 52, 95
6, 35280, Pitch_bend_c, 5, 8448
6, 35280, Pitch_bend_c, 5, 8192
6, 35280, Note_off_c, 5, 52, 95
6, 35280, Pitch_bend_c, 5, 8448
6, 35280, Note_on_c, 5, 52, 95
6, 36000, Pitch_bend_c, 5, 8448
6, 36000, Pitch_bend_c, 5, 8192
6, 36000, Note_off_c, 5, 52, 95
6, 36000, Pitch_bend_c, 5, 8448
6, 36000, Note_on_c, 5, 52, 95
6, 36240, Pitch_bend_c, 5, 8448
6, 36240, Pitch_bend_c, 5, 8192
6, 36240, Note_off_c, 5, 52, 95
6, 36240, Note_on_c, 4, 52, 95
6, 36960, Note_off_c, 4, 52, 95
6, 36960, Pitch_bend_c, 5, 8448
6, 36960, Note_on_c, 5, 52, 95
6, 37440, Pitch_bend_c, 5, 8448
6, 37440, Pitch_bend_c, 5, 8192
6, 37440, Note_off_c, 5, 52, 95
6, 37440, Note_on_c, 4, 52, 95
6, 37920, Note_off_c, 4, 52, 95
6, 37920, Pitch_bend_c, 5, 8448
6, 37920, Note_on_c, 5, 52, 95
6, 38400, Pitch_bend_c, 5, 8448
6, 38400, Pitch_bend_c, 5, 8192
6, 38400, Note_off_c, 5, 52, 95
6, 38400, Note_on_c, 4, 52, 95
6, 38880, Note_off_c, 4, 52, 95
6, 38880, Note_on_c, 4, 52, 95
6, 39120, Note_off_c, 4, 52, 95
6, 39120, Note_on_c, 4, 52, 95
6, 39600, Note_off_c, 4, 52, 95
6, 39600, Note_on_c, 4, 52, 47
6, 39840, Note_off_c, 4, 52, 47
6, 39840, Note_on_c, 4, 52, 95
6, 40080, Note_off_c, 4, 52, 95
6, 40080, Note_on_c, 4, 53, 95
6, 40560, Note_off_c, 4, 53, 95
6, 40800, Note_on_c, 4, 60, 95
6, 41280, Note_off_c, 4, 60, 95
6, 41280, Note_on_c, 4, 57, 95
6, 42240, Note_off_c, 4, 57, 95
6, 42240, Pitch_bend_c, 5, 8448
6, 42240, Note_on_c, 5, 52, 95
6, 42720, Pitch_bend_c, 5, 8448
6, 42720, Pitch_bend_c, 5, 8192
6, 42720, Note_off_c, 5, 52, 95
6, 42720, Pitch_bend_c, 5, 8448
6, 42720, Note_on_c, 5, 52, 95
6, 42960, Pitch_bend_c, 5, 8448
6, 42960, Pitch_bend_c, 5, 8192
6, 42960, Note_off_c, 5, 52, 95
6, 42960, Pitch_bend_c, 5, 8192
6, 42960, Note_on_c, 5, 52, 95
6, 43080, Pitch_bend_c, 5, 8320
6, 43200, Pitch_bend_c, 5, 8448
6, 43200, Pitch_bend_c, 5, 8448
6, 43440, Pitch_bend_c, 5, 8448
6, 43440, Pitch_bend_c, 5, 8192
6, 43440, Note_off_c, 5, 52, 95
6, 43440, Pitch_bend_c, 5, 8448
6, 43440, Note_on_c, 5, 52, 95
6, 43680, Pitch_bend_c, 5, 8448
6, 43680, Pitch_bend_c, 5, 8192
6, 43680, Note_off_c, 5, 52, 95
6, 43680, Pitch_bend_c, 5, 8448
6, 43680, Note_on_c, 5, 52, 95
6, 43920, Pitch_bend_c, 5, 8448
6, 43920, Pitch_bend_c, 5, 8192
6, 43920, Note_off_c, 5, 52, 95
6, 43920, Note_on_c, 4, 52, 47
6, 44160, Note_off_c, 4, 52, 47
6, 44160, Pitch_bend_c, 5, 8448
6, 44160, Note_on_c, 5, 52, 95
6, 44640, Pitch_bend_c, 5, 8448
6, 44640, Pitch_bend_c, 5, 8192
6, 44640, Note_off_c, 5, 52, 95
6, 44640, Pitch_bend_c, 5, 8448
6, 44640, Note_on_c, 5, 52, 95
6, 45120, Pitch_bend_c, 5, 8448
6, 45120, Pitch_bend_c, 5, 8192
6, 45120, Note_off_c, 5, 52, 95
6, 45120, Note_on_c, 4, 52, 95
6, 45600, Note_off_c, 4, 52, 95
6, 45600, Pitch_bend_c, 5, 8448
6, 45600, Note_on_c, 5, 52, 95
6, 46080, Pitch_bend_c, 5, 8448
6, 46080, Pitch_bend_c, 5, 8192
6, 46080, Note_off_c, 5, 52, 95
6, 76800, Note_on_c, 4, 52, 95
6, 77280, Note_off_c, 4, 52, 95
6, 77280, Note_on_c, 4, 52, 95
6, 77760, Note_off_c, 4, 52, 95
6, 77760, Note_on_c, 4, 52, 95
6, 78240, Note_off_c, 4, 52, 95
6, 78240, Note_on_c, 4, 52, 95
6, 78480, Note_off_c, 4, 52, 95
6, 78480, Note_on_c, 4, 53, 95
6, 78960, Note_off_c, 4, 53, 95
6, 79200, Note_on_c, 4, 60, 95
6, 79680, Note_off_c, 4, 60, 95
6, 79680, Note_on_c, 4, 57, 95
6, 80640, Note_off_c, 4, 57, 95
6, 80640, Pitch_bend_c, 5, 8448
6, 80640, Note_on_c, 5, 52, 95
6, 81120, Pitch_bend_c, 5, 8448
6, 81120, Pitch_bend_c, 5, 8192
6, 81120, Note_off_c, 5, 52, 95
6, 81120, Pitch_bend_c, 5, 8448
6, 81120, Note_on_c, 5, 52, 95
6, 81600, Pitch_bend_c, 5, 8448
6, 81600, Pitch_bend_c, 5, 8192
6, 81600, Note_off_c, 5, 52, 95
6, 81600, Pitch_bend_c, 5, 8448
6, 81600, Note_on_c, 5, 52, 95
6, 82080, Pitch_bend_c, 5, 8448
6, 82080, Pitch_bend_c, 5, 8192
6, 82080, Note_off_c, 5, 52, 95
6, 82080, Pitch_bend_c, 5, 8448
6, 82080, Note_on_c, 5, 52, 95
6, 82320, Pitch_bend_c, 5, 8448
6, 82320, Pitch_bend_c, 5, 8192
6, 82320, Note_off_c, 5, 52, 95
6, 82320, Note_on_c, 4, 52, 95
6, 83040, Note_off_c, 4, 52, 95
6, 83040, Pitch_bend_c, 5, 8448
6, 83040, Note_on_c, 5, 52, 95
6, 83520, Pitch_bend_c, 5, 8448
6, 83520, Pitch_bend_c, 5, 8192
6, 83520, Note_off_c, 5, 52, 95
6, 83520, Note_on_c, 4, 52, 95
6, 84000, Note_off_c, 4, 52, 95
6, 84000, Pitch_bend_c, 5, 8448
6, 84000, Note_on_c, 5, 52, 95
6, 84480, Pitch_bend_c, 5, 8448
6, 84480, Pitch_bend_c, 5, 8192
6, 84480, Note_off_c, 5, 52, 95
6, 84480, Note_on_c, 4, 52, 95
6, 84960, Note_off_c, 4, 52, 95
6, 84960, Note_on_c, 4, 52, 95
6, 85440, Note_off_c, 4, 52, 95
6, 85440, Note_on_c, 4, 52, 95
6, 85920, Note_off_c, 4, 52, 95
6, 85920, Note_on_c, 4, 52, 95
6, 86160, Note_off_c, 4, 52, 95
6, 86160, Note_on_c, 4, 53, 95
6, 86640, Note_off_c, 4, 53, 95
6, 86880, Note_on_c, 4, 60, 95
6, 87360, Note_off_c, 4, 60, 95
6, 87360, Note_on_c, 4, 57, 95
6, 88320, Note_off_c, 4, 57, 95
6, 88320, Pitch_bend_c, 5, 8448
6, 88320, Note_on_c, 5, 52, 95
6, 88800, Pitch_bend_c, 5, 8448
6, 88800, Pitch_bend_c, 5, 8192
6, 88800, Note_off_c, 5, 52, 95
6, 88800, Pitch_bend_c, 5, 8448
6, 88800, Note_on_c, 5, 52, 95
6, 89280, Pitch_bend_c, 5, 8448
6, 89280, Pitch_bend_c, 5, 8192
6, 89280, Note_off_c, 5, 52, 95
6, 89280, Pitch_bend_c, 5, 8448
6, 89280, Note_on_c, 5, 52, 95
6, 89520, Pitch_bend_c, 5, 8448
6, 89520, Pitch_bend_c, 5, 8192
6, 89520, Note_off_c, 5, 52, 95
6, 89520, Pitch_bend_c, 5, 8448
6, 89520, Note_on_c, 5, 52, 95
6, 89760, Pitch_bend_c, 5, 8448
6, 89760, Pitch_bend_c, 5, 8192
6, 89760, Note_off_c, 5, 52, 95
6, 89760, Note_on_c, 4, 52, 95
6, 90000, Note_off_c, 4, 52, 95
6, 90000, Pitch_bend_c, 5, 8448
6, 90000, Note_on_c, 5, 52, 95
6, 90480, Pitch_bend_c, 5, 8448
6, 90480, Pitch_bend_c, 5, 8192
6, 90480, Note_off_c, 5, 52, 95
6, 90720, Pitch_bend_c, 5, 8448
6, 90720, Note_on_c, 5, 52, 95
6, 91200, Pitch_bend_c, 5, 8448
6, 91200, Pitch_bend_c, 5, 8192
6, 91200, Note_off_c, 5, 52, 95
6, 91200, Note_on_c, 4, 52, 95
6, 91680, Note_off_c, 4, 52, 95
6, 91680, Pitch_bend_c, 5, 8448
6, 91680, Note_on_c, 5, 52, 95
6, 92160, Pitch_bend_c, 5, 8448
6, 92160, Pitch_bend_c, 5, 8192
6, 92160, Note_off_c, 5, 52, 95
6, 92160, Note_on_c, 4, 52, 95
6, 92640, Note_off_c, 4, 52, 95
6, 92640, Note_on_c, 4, 52, 95
6, 93120, Note_off_c, 4, 52, 95
6, 93120, Note_on_c, 4, 52, 95
6, 93360, Note_off_c, 4, 52, 95
6, 93360, Note_on_c, 4, 52, 95
6, 93600, Note_off_c, 4, 52, 95
6, 93600, Note_on_c, 4, 52, 95
6, 93840, Note_off_c, 4, 52, 95
6, 93840, Note_on_c, 4, 52, 95
6, 94320, Note_off_c, 4, 52, 95
6, 94560, Note_on_c, 4, 60, 95
6, 95040, Note_off_c, 4, 60, 95
6, 95040, Note_on_c, 4, 57, 95
6, 96000, Note_off_c, 4, 57, 95
6, 96000, Pitch_bend_c, 5, 8448
6, 96000, Note_on_c, 5, 52, 95
6, 96240, Pitch_bend_c, 5, 8448
6, 96240, Pitch_bend_c, 5, 8192
6, 96240, Note_off_c, 5, 52, 95
6, 96240, Note_on_c, 4, 52, 47
6, 96480, Note_off_c, 4, 52, 47
6, 96480, Pitch_bend_c, 5, 8448
6, 96480, Note_on_c, 5, 52, 95
6, 96720, Pitch_bend_c, 5, 8448
6, 96720, Pitch_bend_c, 5, 8192
6, 96720, Note_off_c, 5, 52, 95
6, 96720, Pitch_bend_c, 5, 8448
6, 96720, Note_on_c, 5, 52, 95
6, 97440, Pitch_bend_c, 5, 8448
6, 97440, Pitch_bend_c, 5, 8192
6, 97440, Note_off_c, 5, 52, 95
6, 97440, Pitch_bend_c, 5, 8448
6, 97440, Note_on_c, 5, 52, 95
6, 97680, Pitch_bend_c, 5, 8448
6, 97680, Pitch_bend_c, 5, 8192
6, 97680, Note_off_c, 5, 52, 95
6, 97680, Note_on_c, 4, 52, 95
6, 98400, Note_off_c, 4, 52, 95
6, 98400, Pitch_bend_c, 5, 8448
6, 98400, Note_on_c, 5, 52, 95
6, 98880, Pitch_bend_c, 5, 8448
6, 98880, Pitch_bend_c, 5, 8192
6, 98880, Note_off_c, 5, 52, 95
6, 98880, Note_on_c, 4, 52, 95
6, 99360, Note_off_c, 4, 52, 95
6, 99360, Pitch_bend_c, 5, 8448
6, 99360, Note_on_c, 5, 52, 95
6, 99840, Pitch_bend_c, 5, 8448
6, 99840, Pitch_bend_c, 5, 8192
6, 99840, Note_off_c, 5, 52, 95
6, 99840, Note_on_c, 4, 52, 95
6, 100320, Note_off_c, 4, 52, 95
6, 100320, Note_on_c, 4, 52, 95
6, 100560, Note_off_c, 4, 52, 95
6, 100560, Note_on_c, 4, 52, 95
6, 101040, Note_off_c, 4, 52, 95
6, 101040, Note_on_c, 4, 52, 47
6, 101280, Note_off_c, 4, 52, 47
6, 101280, Note_on_c, 4, 52, 95
6, 101520, Note_off_c, 4, 52, 95
6, 101520, Note_on_c, 4, 53, 95
6, 102000, Note_off_c, 4, 53, 95
6, 102240, Note_on_c, 4, 60, 95
6, 102720, Note_off_c, 4, 60, 95
6, 102720, Note_on_c, 4, 57, 95
6, 103680, Note_off_c, 4, 57, 95
6, 103680, Pitch_bend_c, 5, 8448
6, 103680, Note_on_c, 5, 52, 95
6, 104160, Pitch_bend_c, 5, 8448
6, 104160, Pitch_bend_c, 5, 8192
6, 104160, Note_off_c, 5, 52, 95
6, 104160, Pitch_bend_c, 5, 8448
6, 104160, Note_on_c, 5, 52, 95
6, 104400, Pitch_bend_c, 5, 8448
6, 104400, Pitch_bend_c, 5, 8192
6, 104400, Note_off_c, 5, 52, 95
6, 104400, Pitch_bend_c, 5, 8192
6, 104400, Note_on_c, 5, 52, 95
6, 104520, Pitch_bend_c, 5, 8320
6, 104640, Pitch_bend_c, 5, 8448
6, 104640, Pitch_bend_c, 5, 8448
6, 104880, Pitch_bend_c, 5, 8448
6, 104880, Pitch_bend_c, 5, 8192
6, 104880, Note_off_c, 5, 52, 95
6, 104880, Pitch_bend_c, 5, 8448
6, 104880, Note_on_c, 5, 52, 95
6, 105120, Pitch_bend_c, 5, 8448
6, 105120, Pitch_bend_c, 5, 8192
6, 105120, Note_off_c, 5, 52, 95
6, 105120, Pitch_bend_c, 5, 8448
6, 105120, Note_on_c, 5, 52, 95
6, 105360, Pitch_bend_c, 5, 8448
6, 105360, Pitch_bend_c, 5, 8192
6, 105360, Note_off_c, 5, 52, 95
6, 105360, Note_on_c, 4, 52, 47
6, 105600, Note_off_c, 4, 52, 47
6, 105600, Pitch_bend_c, 5, 8448
6, 105600, Note_on_c, 5, 52, 95
6, 106080, Pitch_bend_c, 5, 8448
6, 106080, Pitch_bend_c, 5, 8192
6, 106080, Note_off_c, 5, 52, 95
6, 106080, Pitch_bend_c, 5, 8448
6, 106080, Note_on_c, 5, 52, 95
6, 106560, Pitch_bend_c, 5, 8448
6, 106560, Pitch_bend_c, 5, 8192
6, 106560, Note_off_c, 5, 52, 95
6, 106560, Note_on_c, 4, 52, 95
6, 107040, Note_off_c, 4, 52, 95
6, 107040, Pitch_bend_c, 5, 8448
6, 107040, Note_on_c, 5, 52, 95
6, 107520, Pitch_bend_c, 5, 8448
6, 107520, Pitch_bend_c, 5, 8192
6, 107520, Note_off_c, 5, 52, 95
6, 138240, Note_on_c, 4, 57, 95
6, 138480, Note_off_c, 4, 57, 95
6, 138480, Note_on_c, 4, 52, 95
6, 139200, Note_off_c, 4, 52, 95
6, 139200, Note_on_c, 4, 52, 95
6, 139680, Note_off_c, 4, 52, 95
6, 140160, Note_on_c, 4, 50, 95
6, 140400, Note_off_c, 4, 50, 95
6, 140400, Note_on_c, 4, 52, 95
6, 141120, Note_off_c, 4, 52, 95
6, 141120, Note_on_c, 4, 52, 95
6, 141600, Note_off_c, 4, 52, 95
6, 142080, Note_on_c, 4, 50, 95
6, 142560, Note_off_c, 4, 50, 95
6, 142560, Note_on_c, 4, 52, 95
6, 142800, Note_off_c, 4, 52, 95
6, 142800, Note_on_c, 4, 52, 95
6, 143520, Note_off_c, 4, 52, 95
6, 143520, Note_on_c, 4, 52, 95
6, 144000, Note_off_c, 4, 52, 95
6, 144000, Note_on_c, 4, 50, 95
6, 144480, Note_off_c, 4, 50, 95
6, 144480, Note_on_c, 4, 57, 95
6, 144960, Note_off_c, 4, 57, 95
6, 144960, Note_on_c, 4, 57, 95
6, 145440, Note_off_c, 4, 57, 95
6, 145920, Note_on_c, 4, 57, 95
6, 146160, Note_off_c, 4, 57, 95
6, 146160, Note_on_c, 4, 52, 95
6, 146880, Note_off_c, 4, 52, 95
6, 146880, Note_on_c, 4, 52, 95
6, 147360, Note_off_c, 4, 52, 95
6, 147840, Note_on_c, 4, 50, 95
6, 148080, Note_off_c, 4, 50, 95
6, 148080, Note_on_c, 4, 52, 95
6, 148800, Note_off_c, 4, 52, 95
6, 148800, Note_on_c, 4, 52, 95
6, 149280, Note_off_c, 4, 52, 95
6, 149280, Note_on_c, 4, 52, 95
6, 149760, Note_off_c, 4, 52, 95
6, 149760, Note_on_c, 4, 50, 95
6, 150240, Note_off_c, 4, 50, 95
6, 150240, Note_on_c, 4, 52, 95
6, 150480, Note_off_c, 4, 52, 95
6, 150480, Note_on_c, 4, 52, 95
6, 151200, Note_off_c, 4, 52, 95
6, 151200, Note_on_c, 4, 52, 95
6, 151680, Note_off_c, 4, 52, 95
6, 151680, Note_on_c, 4, 50, 95
6, 152160, Note_off_c, 4, 50, 95
6, 152160, Note_on_c, 4, 57, 95
6, 152640, Note_off_c, 4, 57, 95
6, 152640, Note_on_c, 4, 55, 95
6, 153120, Note_off_c, 4, 55, 95
6, 153600, Note_on_c, 4, 57, 95
6, 153840, Note_off_c, 4, 57, 95
6, 153840, Note_on_c, 4, 52, 95
6, 154560, Note_off_c, 4, 52, 95
6, 154560, Note_on_c, 4, 52, 95
6, 155040, Note_off_c, 4, 52, 95
6, 155520, Note_on_c, 4, 50, 95
6, 155760, Note_off_c, 4, 50, 95
6, 155760, Note_on_c, 4, 52, 95
6, 156480, Note_off_c, 4, 52, 95
6, 156480, Note_on_c, 4, 52, 95
6, 156960, Note_off_c, 4, 52, 95
6, 157440, Note_on_c, 4, 50, 95
6, 157920, Note_off_c, 4, 50, 95
6, 157920, Note_on_c, 4, 52, 95
6, 158160, Note_off_c, 4, 52, 95
6, 158160, Note_on_c, 4, 52, 95
6, 158880, Note_off_c, 4, 52, 95
6, 158880, Note_on_c, 4, 52, 95
6, 159360, Note_off_c, 4, 52, 95
6, 159360, Note_on_c, 4, 50, 95
6, 159840, Note_off_c, 4, 50, 95
6, 159840, Note_on_c, 4, 57, 95
6, 160320, Note_off_c, 4, 57, 95
6, 160320, Note_on_c, 4, 57, 95
6, 160800, Note_off_c, 4, 57, 95
6, 161280, Note_on_c, 4, 57, 95
6, 161520, Note_off_c, 4, 57, 95
6, 161520, Note_on_c, 4, 52, 95
6, 162240, Note_off_c, 4, 52, 95
6, 162240, Note_on_c, 4, 52, 95
6, 162720, Note_off_c, 4, 52, 95
6, 163200, Note_on_c, 4, 50, 95
6, 163440, Note_off_c, 4, 50, 95
6, 163440, Note_on_c, 4, 52, 95
6, 164160, Note_off_c, 4, 52, 95
6, 164160, Note_on_c, 4, 52, 95
6, 164640, Note_off_c, 4, 52, 95
6, 164640, Note_on_c, 4, 52, 95
6, 165120, Note_off_c, 4, 52, 95
6, 165120, Note_on_c, 4, 50, 95
6, 165600, Note_off_c, 4, 50, 95
6, 165600, Note_on_c, 4, 52, 95
6, 166080, Note_off_c, 4, 52, 95
6, 166080, Note_on_c, 4, 52, 95
6, 166560, Note_off_c, 4, 52, 95
6, 166560, Note_on_c, 4, 52, 95
6, 166800, Note_off_c, 4, 52, 95
6, 166800, Note_on_c, 4, 50, 95
6, 167520, Note_off_c, 4, 50, 95
6, 167520, Note_on_c, 4, 52, 95
6, 168000, Note_off_c, 4, 52, 95
6, 168000, Note_on_c, 4, 52, 95
6, 168240, Note_off_c, 4, 52, 95
6, 168240, Note_on_c, 4, 50, 95
6, 168960, Note_off_c, 4, 50, 95
6, 168960, End_track
7, 0, Start_track
7, 0, Pitch_bend_c, 6, 8192
7, 0, Control_c, 6, 7, 127
7, 0, Control_c, 6, 10, 63
7, 0, Control_c, 6, 93, 0
7, 0, Control_c, 6, 91, 0
7, 0, Control_c, 6, 95, 0
7, 0, Control_c, 6, 92, 0
7, 0, Control_c, 6, 11, 127
7, 0, Program_c, 6, 85
7, 0, Control_c, 7, 7, 127
7, 0, Control_c, 7, 10, 63
7, 0, Control_c, 7, 93, 0
7, 0, Control_c, 7, 91, 0
7, 0, Control_c, 7, 95, 0
7, 0, Control_c, 7, 92, 0
7, 0, Control_c, 7, 11, 127
7, 0, Program_c, 7, 85
7, 46080, Note_on_c, 6, 52, 95
7, 47040, Note_off_c, 6, 52, 95
7, 47040, Note_on_c, 6, 52, 95
7, 48000, Note_off_c, 6, 52, 95
7, 48000, Note_on_c, 6, 62, 95
7, 48480, Note_off_c, 6, 62, 95
7, 48480, Note_on_c, 6, 62, 95
7, 48960, Note_off_c, 6, 62, 95
7, 48960, Note_on_c, 6, 62, 95
7, 49440, Note_off_c, 6, 62, 95
7, 49440, Note_on_c, 6, 60, 95
7, 49920, Note_off_c, 6, 60, 95
7, 49920, Note_on_c, 6, 57, 95
7, 53760, Note_off_c, 6, 57, 95
7, 53760, Note_on_c, 6, 52, 95
7, 54720, Note_off_c, 6, 52, 95
7, 54720, Note_on_c, 6, 52, 95
7, 55680, Note_off_c, 6, 52, 95
7, 55680, Note_on_c, 6, 62, 95
7, 56160, Note_off_c, 6, 62, 95
7, 56160, Note_on_c, 6, 62, 95
7, 56640, Note_off_c, 6, 62, 95
7, 56640, Note_on_c, 6, 62, 95
7, 57120, Note_off_c, 6, 62, 95
7, 57120, Note_on_c, 6, 60, 95
7, 57600, Note_off_c, 6, 60, 95
7, 57600, Note_on_c, 6, 57, 95
7, 61440, Note_off_c, 6, 57, 95
7, 61440, Note_on_c, 6, 52, 95
7, 62400, Note_off_c, 6, 52, 95
7, 62400, Note_on_c, 6, 52, 95
7, 63360, Note_off_c, 6, 52, 95
7, 63360, Note_on_c, 6, 62, 95
7, 63840, Note_off_c, 6, 62, 95
7, 63840, Note_on_c, 6, 62, 95
7, 64320, Note_off_c, 6, 62, 95
7, 64320, Note_on_c, 6, 62, 95
7, 64800, Note_off_c, 6, 62, 95
7, 64800, Note_on_c, 6, 60, 95
7, 65280, Note_off_c, 6, 60, 95
7, 65280, Note_on_c, 6, 57, 95
7, 69120, Note_off_c, 6, 57, 95
7, 69120, Note_on_c, 6, 52, 95
7, 70080, Note_off_c, 6, 52, 95
7, 70080, Note_on_c, 6, 52, 95
7, 71040, Note_off_c, 6, 52, 95
7, 71040, Note_on_c, 6, 62, 95
7, 71520, Note_off_c, 6, 62, 95
7, 71520, Note_on_c, 6, 62, 95
7, 72000, Note_off_c, 6, 62, 95
7, 72000, Note_on_c, 6, 62, 95
7, 72480, Note_off_c, 6, 62, 95
7, 72480, Note_on_c, 6, 60, 95
7, 72960, Note_off_c, 6, 60, 95
7, 72960, Note_on_c, 6, 57, 95
7, 76800, Note_off_c, 6, 57, 95
7, 107520, Note_on_c, 6, 52, 95
7, 108480, Note_off_c, 6, 52, 95
7, 108480, Note_on_c, 6, 52, 95
7, 109440, Note_off_c, 6, 52, 95
7, 109440, Note_on_c, 6, 62, 95
7, 109920, Note_off_c, 6, 62, 95
7, 109920, Note_on_c, 6, 62, 95
7, 110400, Note_off_c, 6, 62, 95
7, 110400, Note_on_c, 6, 62, 95
7, 110880, Note_off_c, 6, 62, 95
7, 110880, Note_on_c, 6, 60, 95
7, 111360, Note_off_c, 6, 60, 95
7, 111360, Note_on_c, 6, 57, 95
7, 115200, Note_off_c, 6, 57, 95
7, 115200, Note_on_c, 6, 52, 95
7, 116160, Note_off_c, 6, 52, 95
7, 116160, Note_on_c, 6, 52, 95
7, 117120, Note_off_c, 6, 52, 95
7, 117120, Note_on_c, 6, 62, 95
7, 117600, Note_off_c, 6, 62, 95
7, 117600, Note_on_c, 6, 62, 95
7, 118080, Note_off_c, 6, 62, 95
7, 118080, Note_on_c, 6, 62, 95
7, 118560, Note_off_c, 6, 62, 95
7, 118560, Note_on_c, 6, 60, 95
7, 119040, Note_off_c, 6, 60, 95
7, 119040, Note_on_c, 6, 57, 95
7, 122880, Note_off_c, 6, 57, 95
7, 122880, Note_on_c, 6, 52, 95
7, 123840, Note_off_c, 6, 52, 95
7, 123840, Note_on_c, 6, 52, 95
7, 124800, Note_off_c, 6, 52, 95
7, 124800, Note_on_c, 6, 62, 95
7, 125280, Note_off_c, 6, 62, 95
7, 125280, Note_on_c, 6, 62, 95
7, 125760, Note_off_c, 6, 62, 95
7, 125760, Note_on_c, 6, 62, 95
7, 126240, Note_off_c, 6, 62, 95
7, 126240, Note_on_c, 6, 60, 95
7, 126720, Note_off_c, 6, 60, 95
7, 126720, Note_on_c, 6, 57, 95
7, 130560, Note_off_c, 6, 57, 95
7, 130560, Note_on_c, 6, 52, 95
7, 131520, Note_off_c, 6, 52, 95
7, 131520, Note_on_c, 6, 52, 95
7, 132480, Note_off_c, 6, 52, 95
7, 132480, Note_on_c, 6, 62, 95
7, 132960, Note_off_c, 6, 62, 95
7, 132960, Note_on_c, 6, 62, 95
7, 133440, Note_off_c, 6, 62, 95
7, 133440, Note_on_c, 6, 62, 95
7, 133920, Note_off_c, 6, 62, 95
7, 133920, Note_on_c, 6, 60, 95
7, 134400, Note_off_c, 6, 60, 95
7, 134400, Note_on_c, 6, 57, 95
7, 136320, Note_off_c, 6, 57, 95
7, 137760, Note_on_c, 7, 62, 95
7, 137880, Pitch_bend_c, 7, 8448
7, 138000, Pitch_bend_c, 7, 8832
7, 138120, Pitch_bend_c, 7, 9216
7, 138240, Pitch_bend_c, 7, 9600
7, 138240, Pitch_bend_c, 7, 8192
7, 138240, Note_off_c, 7, 62, 95
7, 138240, Note_on_c, 6, 64, 95
7, 141120, Note_off_c, 6, 64, 95
7, 141600, Note_on_c, 7, 62, 95
7, 141720, Pitch_bend_c, 7, 8448
7, 141840, Pitch_bend_c, 7, 8832
7, 141960, Pitch_bend_c, 7, 9216
7, 142080, Pitch_bend_c, 7, 9600
7, 142080, Pitch_bend_c, 7, 8192
7, 142080, Note_off_c, 7, 62, 95
7, 142080, Note_on_c, 6, 64, 95
7, 144960, Note_off_c, 6, 64, 95
7, 145440, Note_on_c, 7, 62, 95
7, 145560, Pitch_bend_c, 7, 8448
7, 145680, Pitch_bend_c, 7, 8832
7, 145800, Pitch_bend_c, 7, 9216
7, 145920, Pitch_bend_c, 7, 9600
7, 145920, Pitch_bend_c, 7, 8192
7, 145920, Note_off_c, 7, 62, 95
7, 145920, Note_on_c, 6, 64, 95
7, 148800, Note_off_c, 6, 64, 95
7, 149280, Note_on_c, 7, 62, 95
7, 149400, Pitch_bend_c, 7, 8448
7, 149520, Pitch_bend_c, 7, 8832
7, 149640, Pitch_bend_c, 7, 9216
7, 149760, Pitch_bend_c, 7, 9600
7, 149760, Pitch_bend_c, 7, 8192
7, 149760, Note_off_c, 7, 62, 95
7, 149760, Note_on_c, 6, 64, 95
7, 152640, Note_off_c, 6, 64, 95
7, 153120, Note_on_c, 7, 62, 95
7, 153240, Pitch_bend_c, 7, 8448
7, 153360, Pitch_bend_c, 7, 8832
7, 153480, Pitch_bend_c, 7, 9216
7, 153600, Pitch_bend_c, 7, 9600
7, 153600, Pitch_bend_c, 7, 8192
7, 153600, Note_off_c, 7, 62, 95
7, 153600, Note_on_c, 6, 64, 95
7, 156480, Note_off_c, 6, 64, 95
7, 156960, Note_on_c, 7, 62, 95
7, 157080, Pitch_bend_c, 7, 8448
7, 157200, Pitch_bend_c, 7, 8832
7, 157320, Pitch_bend_c, 7, 9216
7, 157440, Pitch_bend_c, 7, 9600
7, 157440, Pitch_bend_c, 7, 8192
7, 157440, Note_off_c, 7, 62, 95
7, 157440, Note_on_c, 6, 64, 95
7, 160320, Note_off_c, 6, 64, 95
7, 160800, Note_on_c, 7, 62, 95
7, 160920, Pitch_bend_c, 7, 8448
7, 161040, Pitch_bend_c, 7, 8832
7, 161160, Pitch_bend_c, 7, 9216
7, 161280, Pitch_bend_c, 7, 9600
7, 161280, Pitch_bend_c, 7, 8192
7, 161280, Note_off_c, 7, 62, 95
7, 161280, Note_on_c, 6, 64, 95
7, 164160, Note_off_c, 6, 64, 95
7, 168960, Note_on_c, 6, 52, 95
7, 169920, Note_off_c, 6, 52, 95
7, 169920, Note_on_c, 6, 52, 95
7, 170880, Note_off_c, 6, 52, 95
7, 170880, Note_on_c, 6, 62, 95
7, 171360, Note_off_c, 6, 62, 95
7, 171360, Note_on_c, 6, 62, 95
7, 171840, Note_off_c, 6, 62, 95
7, 171840, Note_on_c, 6, 62, 95
7, 172320, Note_off_c, 6, 62, 95
7, 172320, Note_on_c, 6, 60, 95
7, 172800, Note_off_c, 6, 60, 95
7, 172800, Note_on_c, 6, 57, 95
7, 176640, Note_off_c, 6, 57, 95
7, 176640, Note_on_c, 6, 52, 95
7, 177600, Note_off_c, 6, 52, 95
7, 177600, Note_on_c, 6, 52, 95
7, 178560, Note_off_c, 6, 52, 95
7, 178560, Note_on_c, 6, 62, 95
7, 179040, Note_off_c, 6, 62, 95
7, 179040, Note_on_c, 6, 62, 95
7, 179520, Note_off_c, 6, 62, 95
7, 179520, Note_on_c, 6, 62, 95
7, 180000, Note_off_c, 6, 62, 95
7, 180000, Note_on_c, 6, 60, 95
7, 180480, Note_off_c, 6, 60, 95
7, 180480, Note_on_c, 6, 57, 95
7, 184320, Note_off_c, 6, 57, 95
7, 184320, Note_on_c, 6, 52, 95
7, 185280, Note_off_c, 6, 52, 95
7, 185280, Note_on_c, 6, 52, 95
7, 186240, Note_off_c, 6, 52, 95
7, 186240, Note_on_c, 6, 62, 95
7, 186720, Note_off_c, 6, 62, 95
7, 186720, Note_on_c, 6, 62, 95
7, 187200, Note_off_c, 6, 62, 95
7, 187200, Note_on_c, 6, 62, 95
7, 187680, Note_off_c, 6, 62, 95
7, 187680, Note_on_c, 6, 60, 95
7, 188160, Note_off_c, 6, 60, 95
7, 188160, Note_on_c, 6, 57, 95
7, 192000, Note_off_c, 6, 57, 95
7, 192000, Note_on_c, 6, 52, 95
7, 192960, Note_off_c, 6, 52, 95
7, 192960, Note_on_c, 6, 52, 95
7, 193920, Note_off_c, 6, 52, 95
7, 193920, Note_on_c, 6, 62, 95
7, 194400, Note_off_c, 6, 62, 95
7, 194400, Note_on_c, 6, 62, 95
7, 194880, Note_off_c, 6, 62, 95
7, 194880, Note_on_c, 6, 62, 95
7, 195360, Note_off_c, 6, 62, 95
7, 195360, Note_on_c, 6, 60, 95
7, 195840, Note_off_c, 6, 60, 95
7, 195840, Note_on_c, 6, 57, 95
7, 199680, Note_off_c, 6, 57, 95
7, 199680, Note_on_c, 6, 52, 95
7, 200640, Note_off_c, 6, 52, 95
7, 200640, Note_on_c, 6, 52, 95
7, 201600, Note_off_c, 6, 52, 95
7, 201600, Note_on_c, 6, 62, 95
7, 202080, Note_off_c, 6, 62, 95
7, 202080, Note_on_c, 6, 62, 95
7, 202560, Note_off_c, 6, 62, 95
7, 202560, Note_on_c, 6, 62, 95
7, 203040, Note_off_c, 6, 62, 95
7, 203040, Note_on_c, 6, 60, 95
7, 203520, Note_off_c, 6, 60, 95
7, 203520, Note_on_c, 6, 57, 95
7, 207360, Note_off_c, 6, 57, 95
7, 207360, Note_on_c, 6, 52, 95
7, 208320, Note_off_c, 6, 52, 95
7, 208320, Note_on_c, 6, 52, 95
7, 209280, Note_off_c, 6, 52, 95
7, 209280, Note_on_c, 6, 62, 95
7, 209760, Note_off_c, 6, 62, 95
7, 209760, Note_on_c, 6, 62, 95
7, 210240, Note_off_c, 6, 62, 95
7, 210240, Note_on_c, 6, 62, 95
7, 210720, Note_off_c, 6, 62, 95
7, 210720, Note_on_c, 6, 60, 95
7, 211200, Note_off_c, 6, 60, 95
7, 211200, Note_on_c, 6, 57, 95
7, 215040, Note_off_c, 6, 57, 95
7, 215040, Note_on_c, 6, 52, 95
7, 216000, Note_off_c, 6, 52, 95
7, 216000, Note_on_c, 6, 52, 95
7, 216960, Note_off_c, 6, 52, 95
7, 216960, Note_on_c, 6, 62, 95
7, 217440, Note_off_c, 6, 62, 95
7, 217440, Note_on_c, 6, 62, 95
7, 217920, Note_off_c, 6, 62, 95
7, 217920, Note_on_c, 6, 62, 95
7, 218400, Note_off_c, 6, 62, 95
7, 218400, Note_on_c, 6, 60, 95
7, 218880, Note_off_c, 6, 60, 95
7, 218880, Note_on_c, 6, 57, 95
7, 222720, Note_off_c, 6, 57, 95
7, 222720, Note_on_c, 6, 52, 95
7, 223680, Note_off_c, 6, 52, 95
7, 223680, Note_on_c, 6, 52, 95
7, 224640, Note_off_c, 6, 52, 95
7, 224640, Note_on_c, 6, 62, 95
7, 225120, Note_off_c, 6, 62, 95
7, 225120, Note_on_c, 6, 62, 95
7, 225600, Note_off_c, 6, 62, 95
7, 225600, Note_on_c, 6, 62, 95
7, 226080, Note_off_c, 6, 62, 95
7, 226080, Note_on_c, 6, 60, 95
7, 226560, Note_off_c, 6, 60, 95
7, 226560, Note_on_c, 6, 57, 95
7, 227520, Note_off_c, 6, 57, 95
7, 227520, Note_on_c, 6, 60, 79
7, 227760, Note_off_c, 6, 60, 79
7, 227760, Note_on_c, 6, 57, 79
7, 228480, Note_off_c, 6, 57, 79
7, 228480, Note_on_c, 6, 60, 63
7, 228720, Note_off_c, 6, 60, 63
7, 228720, Note_on_c, 6, 57, 63
7, 229440, Note_off_c, 6, 57, 63
7, 229440, Note_on_c, 6, 60, 47
7, 229680, Note_off_c, 6, 60, 47
7, 229680, Note_on_c, 6, 57, 47
7, 230400, Note_off_c, 6, 57, 47
7, 238080, Note_on_c, 6, 69, 95
7, 238560, Note_off_c, 6, 69, 95
7, 238560, Note_on_c, 6, 69, 95
7, 239040, Note_off_c, 6, 69, 95
7, 239040, Note_on_c, 6, 69, 95
7, 239520, Note_off_c, 6, 69, 95
7, 239520, Note_on_c, 6, 69, 95
7, 240000, Note_off_c, 6, 69, 95
7, 240000, Note_on_c, 6, 69, 95
7, 240480, Note_off_c, 6, 69, 95
7, 240480, Note_on_c, 6, 69, 95
7, 240720, Note_off_c, 6, 69, 95
7, 240720, Note_on_c, 6, 64, 95
7, 242880, Note_off_c, 6, 64, 95
7, 253440, Note_on_c, 6, 52, 95
7, 254400, Note_off_c, 6, 52, 95
7, 254400, Note_on_c, 6, 52, 95
7, 255360, Note_off_c, 6, 52, 95
7, 255360, Note_on_c, 6, 62, 95
7, 255840, Note_off_c, 6, 62, 95
7, 255840, Note_on_c, 6, 62, 95
7, 256320, Note_off_c, 6, 62, 95
7, 256320, Note_on_c, 6, 62, 95
7, 256800, Note_off_c, 6, 62, 95
7, 256800, Note_on_c, 6, 60, 95
7, 257280, Note_off_c, 6, 60, 95
7, 257280, Note_on_c, 6, 57, 95
7, 261120, Note_off_c, 6, 57, 95
7, 261120, End_track
0, 0, End_of_file
