0, 0, Header, 1, 21, 480
1, 0, Start_track
1, 0, Tempo, 476190
1, 0, Time_signature, 4, 2, 24, 8
1, 0, Key_signature, 0, "major"
1, 3840, Tempo, 461538
1, 16320, Tempo, 476190
1, 16800, Tempo, 480000
1, 17760, Tempo, 476190
1, 18240, Tempo, 461538
1, 35520, Tempo, 476190
1, 36000, Tempo, 480000
1, 36960, Tempo, 476190
1, 37440, Tempo, 461538
1, 50400, Tempo, 476190
1, 50880, Tempo, 480000
1, 51360, Tempo, 500000
1, 51840, Tempo, 480000
1, 52320, Tempo, 476190
1, 52800, Tempo, 461538
1, 70080, Tempo, 476190
1, 70560, Tempo, 480000
1, 71520, Tempo, 476190
1, 72000, Tempo, 461538
1, 84960, Tempo, 476190
1, 85440, Tempo, 480000
1, 85920, Tempo, 500000
1, 86400, Tempo, 480000
1, 87360, Tempo, 476190
1, 88320, Tempo, 461538
1, 100800, Tempo, 476190
1, 101280, Tempo, 480000
1, 102240, Tempo, 476190
1, 102720, Tempo, 461538
1, 120000, Tempo, 476190
1, 120480, Tempo, 480000
1, 121440, Tempo, 476190
1, 121920, Tempo, 461538
1, 133440, Tempo, 480000
1, 133920, Tempo, 517241
1, 134400, Tempo, 500000
1, 134880, Tempo, 517241
1, 135360, Tempo, 530973
1, 135840, Tempo, 666666
1, 135840, End_track
2, 0, Start_track
2, 0, Title_t, "-.\\\\."
2, 0, MIDI_port, 0
2, 0, End_track
3, 0, Start_track
3, 0, Title_t, "===================="
3, 0, MIDI_port, 0
3, 0, End_track
4, 0, Start_track
4, 0, Title_t, "The Beatles'        "
4, 0, MIDI_port, 0
4, 0, End_track
5, 0, Start_track
5, 0, Title_t, """Eleanor Rigby""     "
5, 0, MIDI_port, 0
5, 0, End_track
6, 0, Start_track
6, 0, Title_t, "arranged by -.\\\\.   "
6, 0, MIDI_port, 0
6, 0, End_track
7, 0, Start_track
7, 0, Title_t, "for the Roland Sound"
7, 0, MIDI_port, 0
7, 0, End_track
8, 0, Start_track
8, 0, Title_t, "Canvas & other      "
8, 0, MIDI_port, 0
8, 0, End_track
9, 0, Start_track
9, 0, Title_t, "General MIDI synths."
9, 0, MIDI_port, 0
9, 0, End_track
10, 0, Start_track
10, 0, Title_t, "Want more? Call:    "
10, 0, MIDI_port, 0
10, 0, End_track
11, 0, Start_track
11, 0, Title_t, "Power Windows BBS   "
11, 0, MIDI_port, 0
11, 0, End_track
12, 0, Start_track
12, 0, Title_t, "205-881-8619        "
12, 0, MIDI_port, 0
12, 0, End_track
13, 0, Start_track
13, 0, Title_t, "-.\\\\.               "
13, 0, MIDI_port, 0
13, 0, End_track
14, 0, Start_track
14, 0, Title_t, "===================="
14, 0, MIDI_port, 0
14, 0, End_track
15, 0, Start_track
15, 0, Title_t, "cello/strings       "
15, 0, MIDI_port, 0
15, 0, Channel_prefix, 1
15, 0, Control_c, 1, 7, 110
15, 0, Control_c, 1, 10, 64
15, 0, Program_c, 1, 42
15, 0, Pitch_bend_c, 1, 8192
15, 0, Control_c, 1, 1, 10
15, 0, Control_c, 1, 11, 127
15, 0, Control_c, 1, 64, 0
15, 300, Control_c, 1, 91, 64
15, 960, Control_c, 1, 93, 0
15, 2160, Note_on_c, 1, 43, 120
15, 2320, Note_off_c, 1, 43, 64
15, 2400, Note_on_c, 1, 47, 100
15, 2560, Note_off_c, 1, 47, 64
15, 2640, Note_on_c, 1, 48, 90
15, 3820, Note_off_c, 1, 48, 64
15, 3840, Control_c, 1, 7, 100
15, 3840, Note_on_c, 1, 48, 90
15, 4060, Control_c, 1, 7, 90
15, 4260, Control_c, 1, 7, 100
15, 4460, Control_c, 1, 7, 110
15, 4660, Control_c, 1, 7, 120
15, 4860, Control_c, 1, 7, 127
15, 5060, Control_c, 1, 7, 120
15, 5260, Control_c, 1, 7, 110
15, 5460, Control_c, 1, 7, 100
15, 5740, Note_off_c, 1, 48, 64
15, 5760, Note_on_c, 1, 47, 90
15, 6110, Note_off_c, 1, 47, 64
15, 6480, Control_c, 1, 7, 110
15, 6480, Note_on_c, 1, 43, 120
15, 6640, Note_off_c, 1, 43, 64
15, 6720, Note_on_c, 1, 40, 90
15, 7660, Note_off_c, 1, 40, 64
15, 7680, Note_on_c, 1, 40, 90
15, 8140, Control_c, 1, 7, 105
15, 8340, Control_c, 1, 7, 100
15, 8540, Control_c, 1, 7, 95
15, 8740, Control_c, 1, 7, 90
15, 8940, Control_c, 1, 7, 85
15, 9580, Note_off_c, 1, 40, 64
15, 9600, Control_c, 1, 7, 110
15, 9840, Note_on_c, 1, 43, 120
15, 10000, Note_off_c, 1, 43, 64
15, 10080, Note_on_c, 1, 40, 120
15, 10240, Note_off_c, 1, 40, 64
15, 10320, Note_on_c, 1, 36, 110
15, 11500, Note_off_c, 1, 36, 64
15, 11520, Control_c, 1, 7, 100
15, 11520, Note_on_c, 1, 36, 110
15, 11640, Control_c, 1, 7, 110
15, 11740, Control_c, 1, 7, 120
15, 11840, Control_c, 1, 7, 127
15, 12040, Control_c, 1, 7, 120
15, 12240, Control_c, 1, 7, 110
15, 12440, Control_c, 1, 7, 100
15, 12640, Control_c, 1, 7, 90
15, 12840, Control_c, 1, 7, 80
15, 13420, Note_off_c, 1, 36, 64
15, 13440, Control_c, 1, 7, 110
15, 13680, Note_on_c, 1, 47, 110
15, 13880, Note_off_c, 1, 47, 64
15, 13920, Note_on_c, 1, 43, 120
15, 14080, Note_off_c, 1, 43, 64
15, 14160, Note_on_c, 1, 40, 100
15, 15340, Note_off_c, 1, 40, 64
15, 15360, Note_on_c, 1, 40, 100
15, 15820, Control_c, 1, 7, 105
15, 16020, Control_c, 1, 7, 100
15, 16220, Control_c, 1, 7, 95
15, 16420, Control_c, 1, 7, 90
15, 16620, Control_c, 1, 7, 85
15, 17260, Note_off_c, 1, 40, 64
15, 17280, Control_c, 1, 7, 110
15, 17280, Program_c, 1, 48
15, 17280, Note_on_c, 1, 40, 110
15, 17480, Note_off_c, 1, 40, 64
15, 17760, Note_on_c, 1, 40, 100
15, 17960, Note_off_c, 1, 40, 64
15, 18240, Note_on_c, 1, 40, 100
15, 18440, Note_off_c, 1, 40, 64
15, 18720, Note_on_c, 1, 40, 90
15, 18920, Note_off_c, 1, 40, 64
15, 19200, Note_on_c, 1, 40, 90
15, 19400, Note_off_c, 1, 40, 64
15, 19680, Note_on_c, 1, 40, 80
15, 19880, Note_off_c, 1, 40, 64
15, 20160, Note_on_c, 1, 40, 90
15, 20360, Note_off_c, 1, 40, 64
15, 20640, Note_on_c, 1, 40, 100
15, 20840, Note_off_c, 1, 40, 64
15, 21120, Note_on_c, 1, 40, 110
15, 21320, Note_off_c, 1, 40, 64
15, 21600, Note_on_c, 1, 40, 100
15, 21800, Note_off_c, 1, 40, 64
15, 22080, Note_on_c, 1, 40, 100
15, 22280, Note_off_c, 1, 40, 64
15, 22560, Note_on_c, 1, 40, 90
15, 22760, Note_off_c, 1, 40, 64
15, 23040, Note_on_c, 1, 48, 100
15, 23300, Note_off_c, 1, 48, 64
15, 23520, Note_on_c, 1, 55, 90
15, 23740, Note_off_c, 1, 55, 64
15, 24000, Note_on_c, 1, 60, 80
15, 24220, Note_off_c, 1, 60, 64
15, 24480, Note_on_c, 1, 55, 80
15, 24680, Note_off_c, 1, 55, 64
15, 24960, Note_on_c, 1, 48, 90
15, 25160, Note_off_c, 1, 48, 64
15, 25440, Note_on_c, 1, 48, 80
15, 25640, Note_off_c, 1, 48, 64
15, 25920, Note_on_c, 1, 40, 80
15, 26120, Note_off_c, 1, 40, 64
15, 26400, Note_on_c, 1, 40, 90
15, 26600, Note_off_c, 1, 40, 64
15, 26880, Control_c, 1, 7, 110
15, 26880, Note_on_c, 1, 40, 110
15, 27080, Note_off_c, 1, 40, 64
15, 27360, Note_on_c, 1, 40, 100
15, 27560, Note_off_c, 1, 40, 64
15, 27840, Note_on_c, 1, 40, 100
15, 28040, Note_off_c, 1, 40, 64
15, 28320, Note_on_c, 1, 40, 90
15, 28520, Note_off_c, 1, 40, 64
15, 28800, Note_on_c, 1, 40, 90
15, 29000, Note_off_c, 1, 40, 64
15, 29280, Note_on_c, 1, 40, 80
15, 29480, Note_off_c, 1, 40, 64
15, 29760, Note_on_c, 1, 40, 90
15, 29960, Note_off_c, 1, 40, 64
15, 30240, Note_on_c, 1, 40, 100
15, 30440, Note_off_c, 1, 40, 64
15, 30720, Note_on_c, 1, 40, 110
15, 30920, Note_off_c, 1, 40, 64
15, 31200, Note_on_c, 1, 40, 100
15, 31400, Note_off_c, 1, 40, 64
15, 31680, Note_on_c, 1, 38, 100
15, 31880, Note_off_c, 1, 38, 64
15, 32160, Note_on_c, 1, 38, 90
15, 32360, Note_off_c, 1, 38, 64
15, 32640, Note_on_c, 1, 48, 100
15, 32900, Note_off_c, 1, 48, 64
15, 33120, Note_on_c, 1, 48, 100
15, 33120, Note_on_c, 1, 55, 90
15, 33340, Note_off_c, 1, 55, 64
15, 33380, Note_off_c, 1, 48, 64
15, 33600, Note_on_c, 1, 48, 90
15, 33600, Note_on_c, 1, 60, 80
15, 33820, Note_off_c, 1, 60, 64
15, 33820, Note_off_c, 1, 48, 64
15, 34080, Note_on_c, 1, 48, 80
15, 34080, Note_on_c, 1, 55, 80
15, 34280, Note_off_c, 1, 55, 64
15, 34300, Note_off_c, 1, 48, 64
15, 34560, Note_on_c, 1, 48, 90
15, 34760, Note_off_c, 1, 48, 64
15, 35040, Note_on_c, 1, 38, 80
15, 35240, Note_off_c, 1, 38, 64
15, 35520, Note_on_c, 1, 40, 80
15, 35720, Note_off_c, 1, 40, 64
15, 36000, Note_on_c, 1, 40, 90
15, 36200, Note_off_c, 1, 40, 64
15, 36420, Control_c, 1, 7, 60
15, 36420, Program_c, 1, 42
15, 36420, Note_on_c, 1, 40, 70
15, 36480, Control_c, 1, 7, 90
15, 36540, Control_c, 1, 7, 100
15, 36600, Control_c, 1, 7, 110
15, 38340, Note_off_c, 1, 40, 64
15, 38400, Note_on_c, 1, 40, 70
15, 40300, Note_off_c, 1, 40, 64
15, 40320, Note_on_c, 1, 40, 70
15, 42220, Note_off_c, 1, 40, 64
15, 42240, Note_on_c, 1, 40, 70
15, 43040, Control_c, 1, 7, 105
15, 43240, Control_c, 1, 7, 100
15, 43440, Control_c, 1, 7, 95
15, 43640, Control_c, 1, 7, 90
15, 44040, Control_c, 1, 7, 85
15, 44080, Control_c, 1, 7, 90
15, 44120, Control_c, 1, 7, 100
15, 44140, Note_off_c, 1, 40, 64
15, 44160, Control_c, 1, 7, 110
15, 44160, Note_on_c, 1, 40, 70
15, 46060, Note_off_c, 1, 40, 64
15, 46080, Note_on_c, 1, 40, 70
15, 47980, Note_off_c, 1, 40, 64
15, 48000, Note_on_c, 1, 40, 70
15, 49900, Note_off_c, 1, 40, 64
15, 49920, Note_on_c, 1, 40, 70
15, 50440, Control_c, 1, 7, 100
15, 50640, Control_c, 1, 7, 95
15, 50840, Control_c, 1, 7, 90
15, 51040, Control_c, 1, 7, 85
15, 51820, Note_off_c, 1, 40, 64
15, 51840, Control_c, 1, 7, 110
15, 51840, Program_c, 1, 48
15, 51840, Note_on_c, 1, 40, 110
15, 52040, Note_off_c, 1, 40, 64
15, 52320, Note_on_c, 1, 40, 100
15, 52520, Note_off_c, 1, 40, 64
15, 52800, Note_on_c, 1, 40, 100
15, 53000, Note_off_c, 1, 40, 64
15, 53280, Note_on_c, 1, 40, 90
15, 53480, Note_off_c, 1, 40, 64
15, 53760, Note_on_c, 1, 40, 90
15, 53960, Note_off_c, 1, 40, 64
15, 54240, Note_on_c, 1, 40, 80
15, 54440, Note_off_c, 1, 40, 64
15, 54720, Note_on_c, 1, 40, 90
15, 54920, Note_off_c, 1, 40, 64
15, 55200, Note_on_c, 1, 40, 100
15, 55400, Note_off_c, 1, 40, 64
15, 55680, Note_on_c, 1, 40, 110
15, 55880, Note_off_c, 1, 40, 64
15, 56160, Note_on_c, 1, 40, 100
15, 56360, Note_off_c, 1, 40, 64
15, 56640, Note_on_c, 1, 40, 100
15, 56840, Note_off_c, 1, 40, 64
15, 57120, Note_on_c, 1, 40, 90
15, 57320, Note_off_c, 1, 40, 64
15, 57600, Note_on_c, 1, 48, 100
15, 57800, Note_off_c, 1, 48, 64
15, 57840, Note_on_c, 1, 50, 90
15, 57960, Note_off_c, 1, 50, 64
15, 58080, Note_on_c, 1, 52, 90
15, 58200, Note_off_c, 1, 52, 64
15, 58320, Note_on_c, 1, 54, 90
15, 58440, Note_off_c, 1, 54, 64
15, 58560, Note_on_c, 1, 55, 90
15, 58680, Note_off_c, 1, 55, 64
15, 58800, Note_on_c, 1, 57, 90
15, 58920, Note_off_c, 1, 57, 64
15, 59040, Note_on_c, 1, 59, 90
15, 59160, Note_off_c, 1, 59, 64
15, 59280, Note_on_c, 1, 60, 80
15, 60120, Note_off_c, 1, 60, 64
15, 60240, Note_on_c, 1, 64, 70
15, 60480, Note_on_c, 1, 40, 100
15, 60680, Note_off_c, 1, 40, 64
15, 60960, Note_on_c, 1, 40, 100
15, 61160, Note_off_c, 1, 40, 64
15, 61420, Note_off_c, 1, 64, 64
15, 61440, Control_c, 1, 7, 110
15, 61440, Note_on_c, 1, 40, 110
15, 61640, Note_off_c, 1, 40, 64
15, 61920, Note_on_c, 1, 40, 100
15, 62120, Note_off_c, 1, 40, 64
15, 62400, Note_on_c, 1, 40, 100
15, 62600, Note_off_c, 1, 40, 64
15, 62880, Note_on_c, 1, 40, 90
15, 63080, Note_off_c, 1, 40, 64
15, 63360, Note_on_c, 1, 40, 90
15, 63560, Note_off_c, 1, 40, 64
15, 63840, Note_on_c, 1, 40, 80
15, 64040, Note_off_c, 1, 40, 64
15, 64320, Note_on_c, 1, 40, 90
15, 64520, Note_off_c, 1, 40, 64
15, 64800, Note_on_c, 1, 40, 100
15, 65000, Note_off_c, 1, 40, 64
15, 65280, Note_on_c, 1, 40, 110
15, 65480, Note_off_c, 1, 40, 64
15, 65760, Note_on_c, 1, 40, 100
15, 65960, Note_off_c, 1, 40, 64
15, 66240, Note_on_c, 1, 40, 100
15, 66440, Note_off_c, 1, 40, 64
15, 66720, Note_on_c, 1, 40, 90
15, 66920, Note_off_c, 1, 40, 64
15, 67200, Note_on_c, 1, 48, 100
15, 67400, Note_off_c, 1, 48, 64
15, 67440, Note_on_c, 1, 50, 90
15, 67560, Note_off_c, 1, 50, 64
15, 67680, Note_on_c, 1, 52, 90
15, 67800, Note_off_c, 1, 52, 64
15, 67920, Note_on_c, 1, 54, 90
15, 68040, Note_off_c, 1, 54, 64
15, 68160, Note_on_c, 1, 55, 90
15, 68280, Note_off_c, 1, 55, 64
15, 68400, Note_on_c, 1, 57, 90
15, 68520, Note_off_c, 1, 57, 64
15, 68640, Note_on_c, 1, 59, 90
15, 68760, Note_off_c, 1, 59, 64
15, 68880, Note_on_c, 1, 60, 80
15, 69720, Note_off_c, 1, 60, 64
15, 69840, Note_on_c, 1, 64, 70
15, 70080, Note_on_c, 1, 40, 100
15, 70280, Note_off_c, 1, 40, 64
15, 70560, Note_on_c, 1, 40, 100
15, 70760, Note_off_c, 1, 40, 64
15, 70980, Control_c, 1, 7, 60
15, 70980, Program_c, 1, 42
15, 70980, Note_on_c, 1, 40, 70
15, 71020, Note_off_c, 1, 64, 64
15, 71040, Control_c, 1, 7, 90
15, 71100, Control_c, 1, 7, 100
15, 71160, Control_c, 1, 11, 110
15, 72900, Note_off_c, 1, 40, 64
15, 72960, Note_on_c, 1, 40, 70
15, 74860, Note_off_c, 1, 40, 64
15, 74880, Note_on_c, 1, 40, 70
15, 76780, Note_off_c, 1, 40, 64
15, 76800, Note_on_c, 1, 40, 70
15, 77600, Control_c, 1, 7, 105
15, 77800, Control_c, 1, 7, 100
15, 78000, Control_c, 1, 7, 95
15, 78200, Control_c, 1, 7, 90
15, 78600, Control_c, 1, 7, 85
15, 78640, Control_c, 1, 7, 90
15, 78680, Control_c, 1, 7, 100
15, 78700, Note_off_c, 1, 40, 64
15, 78720, Control_c, 1, 7, 110
15, 78720, Note_on_c, 1, 40, 70
15, 80620, Note_off_c, 1, 40, 64
15, 80640, Note_on_c, 1, 40, 70
15, 82540, Note_off_c, 1, 40, 64
15, 82560, Note_on_c, 1, 40, 70
15, 84460, Note_off_c, 1, 40, 64
15, 84480, Note_on_c, 1, 40, 70
15, 85000, Control_c, 1, 7, 100
15, 85200, Control_c, 1, 7, 95
15, 85400, Control_c, 1, 7, 90
15, 85600, Control_c, 1, 7, 85
15, 86380, Note_off_c, 1, 40, 64
15, 86400, Control_c, 1, 7, 110
15, 86640, Note_on_c, 1, 43, 120
15, 86800, Note_off_c, 1, 43, 64
15, 86880, Note_on_c, 1, 47, 100
15, 87040, Note_off_c, 1, 47, 64
15, 87120, Note_on_c, 1, 48, 90
15, 88300, Note_off_c, 1, 48, 64
15, 88320, Control_c, 1, 7, 100
15, 88320, Note_on_c, 1, 48, 90
15, 88540, Control_c, 1, 7, 90
15, 88740, Control_c, 1, 7, 100
15, 88940, Control_c, 1, 7, 110
15, 89140, Control_c, 1, 7, 120
15, 89340, Control_c, 1, 7, 127
15, 89540, Control_c, 1, 7, 120
15, 89740, Control_c, 1, 7, 110
15, 89940, Control_c, 1, 7, 100
15, 90220, Note_off_c, 1, 48, 64
15, 90240, Note_on_c, 1, 47, 90
15, 90590, Note_off_c, 1, 47, 64
15, 90960, Control_c, 1, 7, 110
15, 90960, Note_on_c, 1, 43, 120
15, 91120, Note_off_c, 1, 43, 64
15, 91200, Note_on_c, 1, 40, 90
15, 92140, Note_off_c, 1, 40, 64
15, 92160, Note_on_c, 1, 40, 90
15, 92620, Control_c, 1, 7, 105
15, 92820, Control_c, 1, 7, 100
15, 93020, Control_c, 1, 7, 95
15, 93220, Control_c, 1, 7, 90
15, 93420, Control_c, 1, 7, 85
15, 94060, Note_off_c, 1, 40, 64
15, 94080, Control_c, 1, 7, 110
15, 94320, Note_on_c, 1, 43, 120
15, 94480, Note_off_c, 1, 43, 64
15, 94560, Note_on_c, 1, 40, 120
15, 94720, Note_off_c, 1, 40, 64
15, 94800, Note_on_c, 1, 36, 110
15, 95980, Note_off_c, 1, 36, 64
15, 96000, Control_c, 1, 7, 100
15, 96000, Note_on_c, 1, 36, 110
15, 96120, Control_c, 1, 7, 110
15, 96220, Control_c, 1, 7, 120
15, 96320, Control_c, 1, 7, 127
15, 96520, Control_c, 1, 7, 120
15, 96720, Control_c, 1, 7, 110
15, 96920, Control_c, 1, 7, 100
15, 97120, Control_c, 1, 7, 90
15, 97320, Control_c, 1, 7, 80
15, 97900, Note_off_c, 1, 36, 64
15, 97920, Control_c, 1, 7, 110
15, 98160, Note_on_c, 1, 47, 110
15, 98360, Note_off_c, 1, 47, 64
15, 98400, Note_on_c, 1, 43, 120
15, 98560, Note_off_c, 1, 43, 64
15, 98640, Note_on_c, 1, 40, 100
15, 99820, Note_off_c, 1, 40, 64
15, 99840, Note_on_c, 1, 40, 100
15, 100300, Control_c, 1, 7, 105
15, 100500, Control_c, 1, 7, 100
15, 100700, Control_c, 1, 7, 95
15, 100900, Control_c, 1, 7, 90
15, 101100, Control_c, 1, 7, 85
15, 101740, Note_off_c, 1, 40, 64
15, 101760, Control_c, 1, 7, 110
15, 101760, Program_c, 1, 48
15, 101760, Note_on_c, 1, 40, 110
15, 101960, Note_off_c, 1, 40, 64
15, 102240, Note_on_c, 1, 40, 100
15, 102440, Note_off_c, 1, 40, 64
15, 102720, Note_on_c, 1, 40, 100
15, 102920, Note_off_c, 1, 40, 64
15, 103200, Note_on_c, 1, 40, 90
15, 103400, Note_off_c, 1, 40, 64
15, 103680, Note_on_c, 1, 40, 90
15, 103880, Note_off_c, 1, 40, 64
15, 104160, Note_on_c, 1, 40, 80
15, 104360, Note_off_c, 1, 40, 64
15, 104640, Note_on_c, 1, 40, 90
15, 104840, Note_off_c, 1, 40, 64
15, 105120, Note_on_c, 1, 40, 100
15, 105320, Note_off_c, 1, 40, 64
15, 105600, Note_on_c, 1, 40, 110
15, 105800, Note_off_c, 1, 40, 64
15, 106080, Note_on_c, 1, 40, 100
15, 106280, Note_off_c, 1, 40, 64
15, 106560, Note_on_c, 1, 40, 100
15, 106760, Note_off_c, 1, 40, 64
15, 107040, Note_on_c, 1, 40, 90
15, 107240, Note_off_c, 1, 40, 64
15, 107520, Note_on_c, 1, 48, 100
15, 107720, Note_off_c, 1, 48, 64
15, 107760, Note_on_c, 1, 50, 90
15, 107880, Note_off_c, 1, 50, 64
15, 108000, Note_on_c, 1, 52, 90
15, 108120, Note_off_c, 1, 52, 64
15, 108240, Note_on_c, 1, 54, 90
15, 108360, Note_off_c, 1, 54, 64
15, 108480, Note_on_c, 1, 55, 90
15, 108600, Note_off_c, 1, 55, 64
15, 108720, Note_on_c, 1, 57, 90
15, 108840, Note_off_c, 1, 57, 64
15, 108960, Note_on_c, 1, 59, 90
15, 109080, Note_off_c, 1, 59, 64
15, 109200, Note_on_c, 1, 60, 80
15, 110040, Note_off_c, 1, 60, 64
15, 110160, Note_on_c, 1, 64, 70
15, 110400, Note_on_c, 1, 40, 100
15, 110600, Note_off_c, 1, 40, 64
15, 110880, Note_on_c, 1, 40, 100
15, 111080, Note_off_c, 1, 40, 64
15, 111340, Note_off_c, 1, 64, 64
15, 111360, Control_c, 1, 7, 110
15, 111360, Note_on_c, 1, 40, 110
15, 111560, Note_off_c, 1, 40, 64
15, 111840, Note_on_c, 1, 40, 100
15, 112040, Note_off_c, 1, 40, 64
15, 112320, Note_on_c, 1, 40, 100
15, 112520, Note_off_c, 1, 40, 64
15, 112560, Note_on_c, 1, 47, 100
15, 112680, Note_off_c, 1, 47, 64
15, 112800, Note_on_c, 1, 52, 90
15, 112920, Note_off_c, 1, 52, 64
15, 113040, Note_on_c, 1, 54, 90
15, 113160, Note_off_c, 1, 54, 64
15, 113280, Note_on_c, 1, 55, 90
15, 113400, Note_off_c, 1, 55, 64
15, 113520, Note_on_c, 1, 57, 90
15, 113640, Note_off_c, 1, 57, 64
15, 113760, Note_on_c, 1, 59, 90
15, 113880, Note_off_c, 1, 59, 64
15, 114000, Note_on_c, 1, 62, 80
15, 114460, Note_off_c, 1, 62, 64
15, 114480, Note_on_c, 1, 61, 90
15, 114600, Note_off_c, 1, 61, 64
15, 114720, Note_on_c, 1, 59, 90
15, 114840, Note_off_c, 1, 59, 64
15, 114960, Note_on_c, 1, 61, 80
15, 115320, Note_off_c, 1, 61, 64
15, 115440, Note_on_c, 1, 59, 90
15, 115560, Note_off_c, 1, 59, 64
15, 115680, Note_on_c, 1, 57, 90
15, 115800, Note_off_c, 1, 57, 64
15, 115920, Note_on_c, 1, 59, 80
15, 116380, Note_off_c, 1, 59, 64
15, 116400, Note_on_c, 1, 57, 90
15, 116520, Note_off_c, 1, 57, 64
15, 116640, Note_on_c, 1, 55, 90
15, 116760, Note_off_c, 1, 55, 64
15, 116880, Note_on_c, 1, 57, 90
15, 117000, Note_off_c, 1, 57, 64
15, 117120, Note_on_c, 1, 48, 100
15, 117120, Note_on_c, 1, 57, 90
15, 117320, Note_off_c, 1, 48, 64
15, 117360, Note_on_c, 1, 50, 90
15, 117480, Note_off_c, 1, 50, 64
15, 117600, Note_on_c, 1, 52, 90
15, 117720, Note_off_c, 1, 52, 64
15, 117840, Note_on_c, 1, 54, 90
15, 117960, Note_off_c, 1, 54, 64
15, 118080, Note_off_c, 1, 57, 64
15, 118080, Note_on_c, 1, 55, 90
15, 118200, Note_off_c, 1, 55, 64
15, 118320, Note_on_c, 1, 57, 90
15, 118440, Note_off_c, 1, 57, 64
15, 118560, Note_on_c, 1, 59, 90
15, 118680, Note_off_c, 1, 59, 64
15, 118800, Note_on_c, 1, 60, 80
15, 119640, Note_off_c, 1, 60, 64
15, 119760, Note_on_c, 1, 64, 70
15, 120000, Note_on_c, 1, 40, 100
15, 120200, Note_off_c, 1, 40, 64
15, 120480, Note_on_c, 1, 40, 100
15, 120680, Note_off_c, 1, 40, 64
15, 120900, Control_c, 1, 7, 60
15, 120900, Program_c, 1, 42
15, 120900, Note_on_c, 1, 40, 70
15, 120940, Note_off_c, 1, 40, 64
15, 120940, Note_off_c, 1, 64, 64
15, 120960, Control_c, 1, 7, 90
15, 120960, Note_on_c, 1, 40, 70
15, 121020, Control_c, 1, 7, 100
15, 121080, Control_c, 1, 7, 110
15, 122860, Note_off_c, 1, 40, 64
15, 122880, Note_on_c, 1, 40, 70
15, 124780, Note_off_c, 1, 40, 64
15, 124800, Note_on_c, 1, 40, 70
15, 126700, Note_off_c, 1, 40, 64
15, 126720, Note_on_c, 1, 40, 70
15, 127520, Control_c, 1, 7, 105
15, 127720, Control_c, 1, 7, 100
15, 127920, Control_c, 1, 7, 95
15, 128120, Control_c, 1, 7, 90
15, 128520, Control_c, 1, 7, 85
15, 128560, Control_c, 1, 7, 90
15, 128600, Control_c, 1, 7, 100
15, 128620, Note_off_c, 1, 40, 64
15, 128640, Control_c, 1, 7, 110
15, 128640, Note_on_c, 1, 40, 70
15, 130540, Note_off_c, 1, 40, 64
15, 130560, Note_on_c, 1, 40, 70
15, 132460, Note_off_c, 1, 40, 64
15, 132480, Note_on_c, 1, 40, 70
15, 134400, Note_off_c, 1, 40, 64
15, 134400, Note_on_c, 1, 52, 80
15, 134700, Note_off_c, 1, 52, 64
15, 134880, Note_on_c, 1, 47, 80
15, 135180, Note_off_c, 1, 47, 64
15, 135360, Note_on_c, 1, 43, 80
15, 135820, Note_off_c, 1, 43, 64
15, 135840, Note_on_c, 1, 42, 80
15, 136300, Note_off_c, 1, 42, 64
15, 136320, Note_on_c, 1, 40, 70
15, 138220, Note_off_c, 1, 40, 64
15, 138240, Control_c, 1, 11, 127
15, 138360, Control_c, 1, 64, 0
15, 138600, Pitch_bend_c, 1, 8192
15, 138720, Control_c, 1, 91, 40
15, 138960, Control_c, 1, 1, 0
15, 139200, Control_c, 1, 93, 0
15, 139440, Control_c, 1, 7, 100
15, 139800, Control_c, 1, 10, 64
15, 139800, End_track
16, 0, Start_track
16, 0, Title_t, "strings ens 1       "
16, 0, MIDI_port, 0
16, 0, Channel_prefix, 2
16, 0, Control_c, 2, 7, 111
16, 0, Control_c, 2, 10, 32
16, 0, Program_c, 2, 48
16, 0, Pitch_bend_c, 2, 8192
16, 0, Control_c, 2, 1, 20
16, 0, Control_c, 2, 11, 120
16, 0, Control_c, 2, 64, 0
16, 480, Control_c, 2, 91, 64
16, 960, Control_c, 2, 93, 0
16, 1920, Note_on_c, 2, 60, 100
16, 1920, Note_on_c, 2, 64, 100
16, 2120, Note_off_c, 2, 64, 64
16, 2120, Note_off_c, 2, 60, 64
16, 2400, Note_on_c, 2, 60, 90
16, 2400, Note_on_c, 2, 64, 90
16, 2600, Note_off_c, 2, 64, 64
16, 2600, Note_off_c, 2, 60, 64
16, 2880, Note_on_c, 2, 60, 80
16, 2880, Note_on_c, 2, 64, 80
16, 3080, Note_off_c, 2, 64, 64
16, 3080, Note_off_c, 2, 60, 64
16, 3360, Note_on_c, 2, 60, 70
16, 3360, Note_on_c, 2, 64, 70
16, 3560, Note_off_c, 2, 64, 64
16, 3560, Note_off_c, 2, 60, 64
16, 3840, Note_on_c, 2, 60, 60
16, 3840, Note_on_c, 2, 64, 60
16, 4040, Note_off_c, 2, 64, 64
16, 4040, Note_off_c, 2, 60, 64
16, 4320, Note_on_c, 2, 60, 60
16, 4320, Note_on_c, 2, 64, 60
16, 4520, Note_off_c, 2, 64, 64
16, 4520, Note_off_c, 2, 60, 64
16, 4800, Note_on_c, 2, 60, 70
16, 4800, Note_on_c, 2, 64, 70
16, 5000, Note_off_c, 2, 64, 64
16, 5000, Note_off_c, 2, 60, 64
16, 5280, Note_on_c, 2, 60, 80
16, 5280, Note_on_c, 2, 64, 80
16, 5480, Note_off_c, 2, 64, 64
16, 5480, Note_off_c, 2, 60, 64
16, 5760, Note_on_c, 2, 59, 90
16, 5760, Note_on_c, 2, 64, 90
16, 5960, Note_off_c, 2, 64, 64
16, 5960, Note_off_c, 2, 59, 64
16, 6240, Note_on_c, 2, 59, 80
16, 6240, Note_on_c, 2, 64, 80
16, 6440, Note_off_c, 2, 64, 64
16, 6440, Note_off_c, 2, 59, 64
16, 6720, Note_on_c, 2, 59, 70
16, 6720, Note_on_c, 2, 64, 70
16, 6920, Note_off_c, 2, 64, 64
16, 6920, Note_off_c, 2, 59, 64
16, 7200, Note_on_c, 2, 59, 60
16, 7200, Note_on_c, 2, 64, 60
16, 7400, Note_off_c, 2, 64, 64
16, 7400, Note_off_c, 2, 59, 64
16, 7680, Note_on_c, 2, 59, 70
16, 7680, Note_on_c, 2, 64, 70
16, 7880, Note_off_c, 2, 64, 64
16, 7880, Note_off_c, 2, 59, 64
16, 8160, Note_on_c, 2, 59, 70
16, 8160, Note_on_c, 2, 64, 70
16, 8360, Note_off_c, 2, 64, 64
16, 8360, Note_off_c, 2, 59, 64
16, 8640, Note_on_c, 2, 59, 60
16, 8640, Note_on_c, 2, 64, 60
16, 8840, Note_off_c, 2, 64, 64
16, 8840, Note_off_c, 2, 59, 64
16, 9120, Note_on_c, 2, 59, 50
16, 9120, Note_on_c, 2, 64, 50
16, 9320, Note_off_c, 2, 64, 64
16, 9320, Note_off_c, 2, 59, 64
16, 9600, Control_c, 2, 7, 100
16, 9600, Note_on_c, 2, 60, 100
16, 9600, Note_on_c, 2, 64, 100
16, 9800, Note_off_c, 2, 64, 64
16, 9800, Note_off_c, 2, 60, 64
16, 10080, Note_on_c, 2, 60, 90
16, 10080, Note_on_c, 2, 64, 90
16, 10280, Note_off_c, 2, 64, 64
16, 10280, Note_off_c, 2, 60, 64
16, 10560, Note_on_c, 2, 60, 80
16, 10560, Note_on_c, 2, 64, 80
16, 10760, Note_off_c, 2, 64, 64
16, 10760, Note_off_c, 2, 60, 64
16, 11040, Note_on_c, 2, 60, 70
16, 11040, Note_on_c, 2, 64, 70
16, 11240, Note_off_c, 2, 64, 64
16, 11240, Note_off_c, 2, 60, 64
16, 11520, Note_on_c, 2, 60, 60
16, 11520, Note_on_c, 2, 64, 60
16, 11720, Note_off_c, 2, 64, 64
16, 11720, Note_off_c, 2, 60, 64
16, 12000, Note_on_c, 2, 60, 60
16, 12000, Note_on_c, 2, 64, 60
16, 12200, Note_off_c, 2, 64, 64
16, 12200, Note_off_c, 2, 60, 64
16, 12480, Note_on_c, 2, 60, 70
16, 12480, Note_on_c, 2, 64, 70
16, 12680, Note_off_c, 2, 64, 64
16, 12680, Note_off_c, 2, 60, 64
16, 12960, Note_on_c, 2, 60, 80
16, 12960, Note_on_c, 2, 64, 80
16, 13160, Note_off_c, 2, 64, 64
16, 13160, Note_off_c, 2, 60, 64
16, 13440, Note_on_c, 2, 59, 90
16, 13440, Note_on_c, 2, 64, 90
16, 13640, Note_off_c, 2, 64, 64
16, 13640, Note_off_c, 2, 59, 64
16, 13920, Note_on_c, 2, 59, 80
16, 13920, Note_on_c, 2, 64, 80
16, 14120, Note_off_c, 2, 64, 64
16, 14120, Note_off_c, 2, 59, 64
16, 14400, Note_on_c, 2, 59, 70
16, 14400, Note_on_c, 2, 64, 70
16, 14600, Note_off_c, 2, 64, 64
16, 14600, Note_off_c, 2, 59, 64
16, 14880, Note_on_c, 2, 59, 60
16, 14880, Note_on_c, 2, 64, 60
16, 15080, Note_off_c, 2, 64, 64
16, 15080, Note_off_c, 2, 59, 64
16, 15360, Note_on_c, 2, 59, 70
16, 15360, Note_on_c, 2, 64, 70
16, 15560, Note_off_c, 2, 64, 64
16, 15560, Note_off_c, 2, 59, 64
16, 15840, Note_on_c, 2, 59, 70
16, 15840, Note_on_c, 2, 64, 70
16, 16040, Note_off_c, 2, 64, 64
16, 16040, Note_off_c, 2, 59, 64
16, 16320, Note_on_c, 2, 59, 60
16, 16320, Note_on_c, 2, 64, 60
16, 16520, Note_off_c, 2, 64, 64
16, 16520, Note_off_c, 2, 59, 64
16, 16800, Note_on_c, 2, 59, 50
16, 16800, Note_on_c, 2, 64, 50
16, 17000, Note_off_c, 2, 64, 64
16, 17000, Note_off_c, 2, 59, 64
16, 17280, Note_on_c, 2, 52, 80
16, 17280, Note_on_c, 2, 64, 80
16, 17480, Note_off_c, 2, 64, 64
16, 17480, Note_off_c, 2, 52, 64
16, 17760, Note_on_c, 2, 52, 70
16, 17760, Note_on_c, 2, 64, 70
16, 17960, Note_off_c, 2, 64, 64
16, 17960, Note_off_c, 2, 52, 64
16, 18240, Note_on_c, 2, 52, 60
16, 18240, Note_on_c, 2, 64, 60
16, 18440, Note_off_c, 2, 64, 64
16, 18440, Note_off_c, 2, 52, 64
16, 18720, Note_on_c, 2, 52, 50
16, 18720, Note_on_c, 2, 64, 50
16, 18920, Note_off_c, 2, 64, 64
16, 18920, Note_off_c, 2, 52, 64
16, 19200, Note_on_c, 2, 52, 60
16, 19200, Note_on_c, 2, 64, 60
16, 19400, Note_off_c, 2, 64, 64
16, 19400, Note_off_c, 2, 52, 64
16, 19680, Note_on_c, 2, 52, 60
16, 19680, Note_on_c, 2, 64, 60
16, 19880, Note_off_c, 2, 64, 64
16, 19880, Note_off_c, 2, 52, 64
16, 20160, Note_on_c, 2, 52, 70
16, 20160, Note_on_c, 2, 64, 70
16, 20360, Note_off_c, 2, 64, 64
16, 20360, Note_off_c, 2, 52, 64
16, 20640, Note_on_c, 2, 52, 80
16, 20640, Note_on_c, 2, 64, 80
16, 20840, Note_off_c, 2, 64, 64
16, 20840, Note_off_c, 2, 52, 64
16, 21120, Note_on_c, 2, 52, 80
16, 21120, Note_on_c, 2, 64, 80
16, 21320, Note_off_c, 2, 64, 64
16, 21320, Note_off_c, 2, 52, 64
16, 21600, Note_on_c, 2, 52, 70
16, 21600, Note_on_c, 2, 64, 70
16, 21800, Note_off_c, 2, 64, 64
16, 21800, Note_off_c, 2, 52, 64
16, 22080, Note_on_c, 2, 52, 60
16, 22080, Note_on_c, 2, 64, 60
16, 22280, Note_off_c, 2, 64, 64
16, 22280, Note_off_c, 2, 52, 64
16, 22560, Note_on_c, 2, 52, 50
16, 22560, Note_on_c, 2, 64, 50
16, 22760, Note_off_c, 2, 64, 64
16, 22760, Note_off_c, 2, 52, 64
16, 23040, Note_on_c, 2, 60, 80
16, 23040, Note_on_c, 2, 64, 80
16, 23240, Note_off_c, 2, 64, 64
16, 23240, Note_off_c, 2, 60, 64
16, 23520, Note_on_c, 2, 60, 70
16, 23520, Note_on_c, 2, 64, 70
16, 23720, Note_off_c, 2, 64, 64
16, 23720, Note_off_c, 2, 60, 64
16, 24000, Note_on_c, 2, 60, 70
16, 24000, Note_on_c, 2, 64, 70
16, 24200, Note_off_c, 2, 64, 64
16, 24200, Note_off_c, 2, 60, 64
16, 24480, Note_on_c, 2, 60, 60
16, 24480, Note_on_c, 2, 64, 60
16, 24680, Note_off_c, 2, 64, 64
16, 24680, Note_off_c, 2, 60, 64
16, 24960, Note_on_c, 2, 60, 60
16, 24960, Note_on_c, 2, 64, 60
16, 25160, Note_off_c, 2, 64, 64
16, 25160, Note_off_c, 2, 60, 64
16, 25440, Note_on_c, 2, 60, 50
16, 25440, Note_on_c, 2, 64, 50
16, 25640, Note_off_c, 2, 64, 64
16, 25640, Note_off_c, 2, 60, 64
16, 25920, Note_on_c, 2, 52, 60
16, 25920, Note_on_c, 2, 64, 60
16, 26120, Note_off_c, 2, 64, 64
16, 26120, Note_off_c, 2, 52, 64
16, 26400, Note_on_c, 2, 52, 70
16, 26400, Note_on_c, 2, 64, 70
16, 26600, Note_off_c, 2, 64, 64
16, 26600, Note_off_c, 2, 52, 64
16, 26880, Note_on_c, 2, 64, 80
16, 26880, Note_on_c, 2, 71, 80
16, 27040, Note_off_c, 2, 71, 64
16, 27080, Note_off_c, 2, 64, 64
16, 27120, Note_on_c, 2, 71, 70
16, 27240, Note_off_c, 2, 71, 64
16, 27360, Note_on_c, 2, 64, 70
16, 27360, Note_on_c, 2, 71, 60
16, 27480, Note_off_c, 2, 71, 64
16, 27560, Note_off_c, 2, 64, 64
16, 27600, Note_on_c, 2, 71, 60
16, 27720, Note_off_c, 2, 71, 64
16, 27840, Note_on_c, 2, 64, 50
16, 27840, Note_on_c, 2, 71, 50
16, 27960, Note_off_c, 2, 71, 64
16, 28040, Note_off_c, 2, 64, 64
16, 28080, Note_on_c, 2, 71, 50
16, 28200, Note_off_c, 2, 71, 64
16, 28320, Note_on_c, 2, 64, 50
16, 28320, Note_on_c, 2, 71, 50
16, 28440, Note_off_c, 2, 71, 64
16, 28520, Note_off_c, 2, 64, 64
16, 28560, Note_on_c, 2, 71, 50
16, 28680, Note_off_c, 2, 71, 64
16, 28800, Note_on_c, 2, 64, 60
16, 28800, Note_on_c, 2, 71, 60
16, 28960, Note_off_c, 2, 71, 64
16, 29000, Note_off_c, 2, 64, 64
16, 29040, Note_on_c, 2, 71, 60
16, 29160, Note_off_c, 2, 71, 64
16, 29280, Note_on_c, 2, 64, 60
16, 29280, Note_on_c, 2, 71, 60
16, 29480, Note_off_c, 2, 71, 64
16, 29480, Note_off_c, 2, 64, 64
16, 29520, Note_on_c, 2, 71, 60
16, 29640, Note_off_c, 2, 71, 64
16, 29760, Note_on_c, 2, 64, 60
16, 29760, Note_on_c, 2, 71, 60
16, 29880, Note_off_c, 2, 71, 64
16, 29960, Note_off_c, 2, 64, 64
16, 30000, Note_on_c, 2, 71, 60
16, 30120, Note_off_c, 2, 71, 64
16, 30240, Note_on_c, 2, 64, 60
16, 30240, Note_on_c, 2, 71, 60
16, 30360, Note_off_c, 2, 71, 64
16, 30440, Note_off_c, 2, 64, 64
16, 30480, Note_on_c, 2, 71, 60
16, 30600, Note_off_c, 2, 71, 64
16, 30720, Note_on_c, 2, 64, 60
16, 30720, Note_on_c, 2, 71, 60
16, 30880, Note_off_c, 2, 71, 64
16, 30920, Note_off_c, 2, 64, 64
16, 30960, Note_on_c, 2, 71, 60
16, 31080, Note_off_c, 2, 71, 64
16, 31200, Note_on_c, 2, 64, 60
16, 31200, Note_on_c, 2, 71, 70
16, 31320, Note_off_c, 2, 71, 64
16, 31400, Note_off_c, 2, 64, 64
16, 31440, Note_on_c, 2, 71, 70
16, 31560, Note_off_c, 2, 71, 64
16, 31680, Note_on_c, 2, 62, 90
16, 31680, Note_on_c, 2, 71, 80
16, 31800, Note_off_c, 2, 71, 64
16, 31880, Note_off_c, 2, 62, 64
16, 31920, Note_on_c, 2, 71, 80
16, 32040, Note_off_c, 2, 71, 64
16, 32160, Note_on_c, 2, 62, 90
16, 32160, Note_on_c, 2, 71, 80
16, 32280, Note_off_c, 2, 71, 64
16, 32360, Note_off_c, 2, 62, 64
16, 32400, Note_on_c, 2, 71, 80
16, 32520, Note_off_c, 2, 71, 64
16, 32640, Note_on_c, 2, 60, 90
16, 32640, Note_on_c, 2, 72, 90
16, 32800, Note_off_c, 2, 72, 64
16, 32840, Note_off_c, 2, 60, 64
16, 32880, Note_on_c, 2, 72, 90
16, 33000, Note_off_c, 2, 72, 64
16, 33120, Note_on_c, 2, 60, 80
16, 33120, Note_on_c, 2, 72, 80
16, 33240, Note_off_c, 2, 72, 64
16, 33320, Note_off_c, 2, 60, 64
16, 33360, Note_on_c, 2, 72, 80
16, 33480, Note_off_c, 2, 72, 64
16, 33600, Note_on_c, 2, 60, 80
16, 33600, Note_on_c, 2, 72, 80
16, 33720, Note_off_c, 2, 72, 64
16, 33800, Note_off_c, 2, 60, 64
16, 33840, Note_on_c, 2, 72, 70
16, 33960, Note_off_c, 2, 72, 64
16, 34080, Note_on_c, 2, 60, 70
16, 34080, Note_on_c, 2, 72, 70
16, 34200, Note_off_c, 2, 72, 64
16, 34280, Note_off_c, 2, 60, 64
16, 34320, Note_on_c, 2, 72, 70
16, 34440, Note_off_c, 2, 72, 64
16, 34560, Note_on_c, 2, 60, 70
16, 34560, Note_on_c, 2, 72, 70
16, 34720, Note_off_c, 2, 72, 64
16, 34760, Note_off_c, 2, 60, 64
16, 34800, Note_on_c, 2, 72, 70
16, 34920, Note_off_c, 2, 72, 64
16, 35040, Note_on_c, 2, 62, 70
16, 35040, Note_on_c, 2, 72, 70
16, 35160, Note_off_c, 2, 72, 64
16, 35240, Note_off_c, 2, 62, 64
16, 35280, Note_on_c, 2, 72, 70
16, 35400, Note_off_c, 2, 72, 64
16, 35520, Note_on_c, 2, 64, 60
16, 35520, Note_on_c, 2, 71, 60
16, 35640, Note_off_c, 2, 71, 64
16, 35720, Note_off_c, 2, 64, 64
16, 35760, Note_on_c, 2, 71, 60
16, 35880, Note_off_c, 2, 71, 64
16, 36000, Note_on_c, 2, 64, 50
16, 36000, Note_on_c, 2, 71, 60
16, 36120, Note_off_c, 2, 71, 64
16, 36200, Note_off_c, 2, 64, 64
16, 36240, Note_on_c, 2, 71, 60
16, 36360, Note_off_c, 2, 71, 64
16, 36480, Note_on_c, 2, 67, 70
16, 36480, Note_on_c, 2, 71, 70
16, 36680, Note_off_c, 2, 71, 64
16, 36680, Note_off_c, 2, 67, 64
16, 36960, Note_on_c, 2, 67, 60
16, 36960, Note_on_c, 2, 71, 60
16, 37160, Note_off_c, 2, 71, 64
16, 37160, Note_off_c, 2, 67, 64
16, 37440, Note_on_c, 2, 67, 50
16, 37440, Note_on_c, 2, 71, 50
16, 37640, Note_off_c, 2, 71, 64
16, 37640, Note_off_c, 2, 67, 64
16, 37920, Note_on_c, 2, 67, 50
16, 37920, Note_on_c, 2, 71, 50
16, 38120, Note_off_c, 2, 71, 64
16, 38120, Note_off_c, 2, 67, 64
16, 38400, Note_on_c, 2, 67, 50
16, 38400, Note_on_c, 2, 71, 50
16, 38600, Note_off_c, 2, 71, 64
16, 38600, Note_off_c, 2, 67, 64
16, 38880, Note_on_c, 2, 67, 50
16, 38880, Note_on_c, 2, 71, 50
16, 39080, Note_off_c, 2, 71, 64
16, 39080, Note_off_c, 2, 67, 64
16, 39360, Note_on_c, 2, 67, 50
16, 39360, Note_on_c, 2, 71, 50
16, 39560, Note_off_c, 2, 71, 64
16, 39560, Note_off_c, 2, 67, 64
16, 39840, Note_on_c, 2, 67, 50
16, 39840, Note_on_c, 2, 71, 50
16, 40040, Note_off_c, 2, 71, 64
16, 40040, Note_off_c, 2, 67, 64
16, 40320, Note_on_c, 2, 67, 50
16, 40320, Note_on_c, 2, 71, 50
16, 40520, Note_off_c, 2, 71, 64
16, 40520, Note_off_c, 2, 67, 64
16, 40800, Note_on_c, 2, 67, 50
16, 40800, Note_on_c, 2, 71, 50
16, 41000, Note_off_c, 2, 71, 64
16, 41000, Note_off_c, 2, 67, 64
16, 41280, Note_on_c, 2, 67, 50
16, 41280, Note_on_c, 2, 71, 50
16, 41480, Note_off_c, 2, 71, 64
16, 41480, Note_off_c, 2, 67, 64
16, 41760, Note_on_c, 2, 67, 50
16, 41760, Note_on_c, 2, 71, 50
16, 41960, Note_off_c, 2, 71, 64
16, 41960, Note_off_c, 2, 67, 64
16, 42240, Note_on_c, 2, 67, 50
16, 42240, Note_on_c, 2, 71, 50
16, 42440, Note_off_c, 2, 71, 64
16, 42440, Note_off_c, 2, 67, 64
16, 42720, Note_on_c, 2, 67, 40
16, 42720, Note_on_c, 2, 71, 40
16, 42920, Note_off_c, 2, 71, 64
16, 42920, Note_off_c, 2, 67, 64
16, 43200, Note_on_c, 2, 67, 50
16, 43200, Note_on_c, 2, 71, 50
16, 43400, Note_off_c, 2, 71, 64
16, 43400, Note_off_c, 2, 67, 64
16, 43680, Note_on_c, 2, 67, 65
16, 43680, Note_on_c, 2, 71, 65
16, 43880, Note_off_c, 2, 71, 64
16, 43880, Note_off_c, 2, 67, 64
16, 44160, Note_on_c, 2, 67, 70
16, 44160, Note_on_c, 2, 71, 70
16, 44360, Note_off_c, 2, 71, 64
16, 44360, Note_off_c, 2, 67, 64
16, 44640, Note_on_c, 2, 67, 60
16, 44640, Note_on_c, 2, 71, 60
16, 44840, Note_off_c, 2, 71, 64
16, 44840, Note_off_c, 2, 67, 64
16, 45120, Note_on_c, 2, 67, 50
16, 45120, Note_on_c, 2, 71, 50
16, 45320, Note_off_c, 2, 71, 64
16, 45320, Note_off_c, 2, 67, 64
16, 45600, Note_on_c, 2, 67, 50
16, 45600, Note_on_c, 2, 71, 50
16, 45800, Note_off_c, 2, 71, 64
16, 45800, Note_off_c, 2, 67, 64
16, 46080, Note_on_c, 2, 67, 50
16, 46080, Note_on_c, 2, 71, 50
16, 46280, Note_off_c, 2, 71, 64
16, 46280, Note_off_c, 2, 67, 64
16, 46560, Note_on_c, 2, 67, 50
16, 46560, Note_on_c, 2, 71, 50
16, 46760, Note_off_c, 2, 71, 64
16, 46760, Note_off_c, 2, 67, 64
16, 47040, Note_on_c, 2, 67, 50
16, 47040, Note_on_c, 2, 71, 50
16, 47240, Note_off_c, 2, 71, 64
16, 47240, Note_off_c, 2, 67, 64
16, 47520, Note_on_c, 2, 67, 50
16, 47520, Note_on_c, 2, 71, 50
16, 47720, Note_off_c, 2, 71, 64
16, 47720, Note_off_c, 2, 67, 64
16, 48000, Note_on_c, 2, 67, 50
16, 48000, Note_on_c, 2, 71, 50
16, 48200, Note_off_c, 2, 71, 64
16, 48200, Note_off_c, 2, 67, 64
16, 48480, Note_on_c, 2, 67, 50
16, 48480, Note_on_c, 2, 71, 50
16, 48680, Note_off_c, 2, 71, 64
16, 48680, Note_off_c, 2, 67, 64
16, 48960, Note_on_c, 2, 67, 50
16, 48960, Note_on_c, 2, 71, 50
16, 49160, Note_off_c, 2, 71, 64
16, 49160, Note_off_c, 2, 67, 64
16, 49440, Note_on_c, 2, 67, 50
16, 49440, Note_on_c, 2, 71, 50
16, 49640, Note_off_c, 2, 71, 64
16, 49640, Note_off_c, 2, 67, 64
16, 49920, Note_on_c, 2, 67, 50
16, 49920, Note_on_c, 2, 71, 50
16, 50120, Note_off_c, 2, 71, 64
16, 50120, Note_off_c, 2, 67, 64
16, 50400, Note_on_c, 2, 67, 40
16, 50400, Note_on_c, 2, 71, 40
16, 50600, Note_off_c, 2, 71, 64
16, 50600, Note_off_c, 2, 67, 64
16, 50880, Note_on_c, 2, 67, 30
16, 50880, Note_on_c, 2, 71, 30
16, 51080, Note_off_c, 2, 71, 64
16, 51080, Note_off_c, 2, 67, 64
16, 51360, Note_on_c, 2, 67, 20
16, 51360, Note_on_c, 2, 71, 20
16, 51560, Note_off_c, 2, 71, 64
16, 51560, Note_off_c, 2, 67, 64
16, 51840, Note_on_c, 2, 52, 80
16, 51840, Note_on_c, 2, 64, 80
16, 52040, Note_off_c, 2, 64, 64
16, 52040, Note_off_c, 2, 52, 64
16, 52320, Note_on_c, 2, 52, 70
16, 52320, Note_on_c, 2, 64, 70
16, 52520, Note_off_c, 2, 64, 64
16, 52520, Note_off_c, 2, 52, 64
16, 52800, Note_on_c, 2, 52, 60
16, 52800, Note_on_c, 2, 64, 60
16, 53000, Note_off_c, 2, 64, 64
16, 53000, Note_off_c, 2, 52, 64
16, 53280, Note_on_c, 2, 52, 50
16, 53280, Note_on_c, 2, 64, 50
16, 53480, Note_off_c, 2, 64, 64
16, 53480, Note_off_c, 2, 52, 64
16, 53760, Note_on_c, 2, 52, 60
16, 53760, Note_on_c, 2, 64, 60
16, 53960, Note_off_c, 2, 64, 64
16, 53960, Note_off_c, 2, 52, 64
16, 54240, Note_on_c, 2, 52, 60
16, 54240, Note_on_c, 2, 64, 60
16, 54440, Note_off_c, 2, 64, 64
16, 54440, Note_off_c, 2, 52, 64
16, 54720, Note_on_c, 2, 52, 70
16, 54720, Note_on_c, 2, 64, 70
16, 54920, Note_off_c, 2, 64, 64
16, 54920, Note_off_c, 2, 52, 64
16, 55200, Note_on_c, 2, 52, 80
16, 55200, Note_on_c, 2, 64, 80
16, 55400, Note_off_c, 2, 64, 64
16, 55400, Note_off_c, 2, 52, 64
16, 55680, Note_on_c, 2, 52, 80
16, 55680, Note_on_c, 2, 64, 80
16, 55880, Note_off_c, 2, 64, 64
16, 55880, Note_off_c, 2, 52, 64
16, 56160, Note_on_c, 2, 52, 70
16, 56160, Note_on_c, 2, 64, 70
16, 56360, Note_off_c, 2, 64, 64
16, 56360, Note_off_c, 2, 52, 64
16, 56640, Note_on_c, 2, 52, 60
16, 56640, Note_on_c, 2, 64, 60
16, 56840, Note_off_c, 2, 64, 64
16, 56840, Note_off_c, 2, 52, 64
16, 57120, Note_on_c, 2, 52, 50
16, 57120, Note_on_c, 2, 64, 50
16, 57320, Note_off_c, 2, 64, 64
16, 57320, Note_off_c, 2, 52, 64
16, 57600, Note_on_c, 2, 60, 80
16, 57600, Note_on_c, 2, 64, 80
16, 57800, Note_off_c, 2, 64, 64
16, 57800, Note_off_c, 2, 60, 64
16, 58080, Note_on_c, 2, 60, 70
16, 58080, Note_on_c, 2, 64, 70
16, 58280, Note_off_c, 2, 64, 64
16, 58280, Note_off_c, 2, 60, 64
16, 58560, Note_on_c, 2, 60, 70
16, 58560, Note_on_c, 2, 64, 70
16, 58760, Note_off_c, 2, 64, 64
16, 58760, Note_off_c, 2, 60, 64
16, 59040, Note_on_c, 2, 60, 60
16, 59040, Note_on_c, 2, 64, 60
16, 59240, Note_off_c, 2, 64, 64
16, 59240, Note_off_c, 2, 60, 64
16, 59520, Note_on_c, 2, 60, 60
16, 59520, Note_on_c, 2, 64, 60
16, 59720, Note_off_c, 2, 64, 64
16, 59720, Note_off_c, 2, 60, 64
16, 60000, Note_on_c, 2, 60, 50
16, 60000, Note_on_c, 2, 64, 50
16, 60200, Note_off_c, 2, 64, 64
16, 60200, Note_off_c, 2, 60, 64
16, 60480, Note_on_c, 2, 52, 60
16, 60480, Note_on_c, 2, 64, 60
16, 60680, Note_off_c, 2, 64, 64
16, 60680, Note_off_c, 2, 52, 64
16, 60960, Note_on_c, 2, 52, 70
16, 60960, Note_on_c, 2, 64, 70
16, 61160, Note_off_c, 2, 64, 64
16, 61160, Note_off_c, 2, 52, 64
16, 61440, Note_on_c, 2, 64, 60
16, 61440, Note_on_c, 2, 71, 60
16, 61600, Note_off_c, 2, 71, 64
16, 61640, Note_off_c, 2, 64, 64
16, 61680, Note_on_c, 2, 71, 50
16, 61800, Note_off_c, 2, 71, 64
16, 61920, Note_on_c, 2, 64, 50
16, 61920, Note_on_c, 2, 71, 40
16, 62040, Note_off_c, 2, 71, 64
16, 62120, Note_off_c, 2, 64, 64
16, 62160, Note_on_c, 2, 71, 40
16, 62280, Note_off_c, 2, 71, 64
16, 62400, Note_on_c, 2, 64, 30
16, 62400, Note_on_c, 2, 71, 30
16, 62520, Note_off_c, 2, 71, 64
16, 62600, Note_off_c, 2, 64, 64
16, 62640, Note_on_c, 2, 71, 30
16, 62760, Note_off_c, 2, 71, 64
16, 62880, Note_on_c, 2, 64, 30
16, 62880, Note_on_c, 2, 71, 30
16, 63000, Note_off_c, 2, 71, 64
16, 63080, Note_off_c, 2, 64, 64
16, 63120, Note_on_c, 2, 71, 30
16, 63240, Note_off_c, 2, 71, 64
16, 63360, Note_on_c, 2, 64, 40
16, 63360, Note_on_c, 2, 71, 40
16, 63520, Note_off_c, 2, 71, 64
16, 63560, Note_off_c, 2, 64, 64
16, 63600, Note_on_c, 2, 71, 40
16, 63720, Note_off_c, 2, 71, 64
16, 63840, Note_on_c, 2, 64, 40
16, 63840, Note_on_c, 2, 71, 40
16, 64040, Note_off_c, 2, 71, 64
16, 64040, Note_off_c, 2, 64, 64
16, 64080, Note_on_c, 2, 71, 40
16, 64200, Note_off_c, 2, 71, 64
16, 64320, Note_on_c, 2, 64, 40
16, 64320, Note_on_c, 2, 71, 40
16, 64440, Note_off_c, 2, 71, 64
16, 64520, Note_off_c, 2, 64, 64
16, 64560, Note_on_c, 2, 71, 40
16, 64680, Note_off_c, 2, 71, 64
16, 64800, Note_on_c, 2, 64, 40
16, 64800, Note_on_c, 2, 71, 40
16, 64920, Note_off_c, 2, 71, 64
16, 65000, Note_off_c, 2, 64, 64
16, 65040, Note_on_c, 2, 71, 40
16, 65160, Note_off_c, 2, 71, 64
16, 65280, Note_on_c, 2, 64, 40
16, 65280, Note_on_c, 2, 71, 40
16, 65440, Note_off_c, 2, 71, 64
16, 65480, Note_off_c, 2, 64, 64
16, 65520, Note_on_c, 2, 71, 40
16, 65640, Note_off_c, 2, 71, 64
16, 65760, Note_on_c, 2, 64, 40
16, 65760, Note_on_c, 2, 71, 50
16, 65880, Note_off_c, 2, 71, 64
16, 65960, Note_off_c, 2, 64, 64
16, 66000, Note_on_c, 2, 71, 50
16, 66120, Note_off_c, 2, 71, 64
16, 66240, Note_on_c, 2, 62, 70
16, 66240, Note_on_c, 2, 71, 60
16, 66360, Note_off_c, 2, 71, 64
16, 66440, Note_off_c, 2, 62, 64
16, 66480, Note_on_c, 2, 71, 60
16, 66600, Note_off_c, 2, 71, 64
16, 66720, Note_on_c, 2, 62, 70
16, 66720, Note_on_c, 2, 71, 60
16, 66840, Note_off_c, 2, 71, 64
16, 66920, Note_off_c, 2, 62, 64
16, 66960, Note_on_c, 2, 71, 60
16, 67080, Note_off_c, 2, 71, 64
16, 67200, Note_on_c, 2, 60, 70
16, 67200, Note_on_c, 2, 72, 70
16, 67360, Note_off_c, 2, 72, 64
16, 67400, Note_off_c, 2, 60, 64
16, 67440, Note_on_c, 2, 72, 70
16, 67560, Note_off_c, 2, 72, 64
16, 67680, Note_on_c, 2, 60, 60
16, 67680, Note_on_c, 2, 72, 60
16, 67800, Note_off_c, 2, 72, 64
16, 67880, Note_off_c, 2, 60, 64
16, 67920, Note_on_c, 2, 72, 60
16, 68040, Note_off_c, 2, 72, 64
16, 68160, Note_on_c, 2, 60, 60
16, 68160, Note_on_c, 2, 72, 60
16, 68280, Note_off_c, 2, 72, 64
16, 68360, Note_off_c, 2, 60, 64
16, 68400, Note_on_c, 2, 72, 50
16, 68520, Note_off_c, 2, 72, 64
16, 68640, Note_on_c, 2, 60, 50
16, 68640, Note_on_c, 2, 72, 50
16, 68760, Note_off_c, 2, 72, 64
16, 68840, Note_off_c, 2, 60, 64
16, 68880, Note_on_c, 2, 72, 50
16, 69000, Note_off_c, 2, 72, 64
16, 69120, Note_on_c, 2, 60, 50
16, 69120, Note_on_c, 2, 72, 50
16, 69280, Note_off_c, 2, 72, 64
16, 69320, Note_off_c, 2, 60, 64
16, 69360, Note_on_c, 2, 72, 50
16, 69480, Note_off_c, 2, 72, 64
16, 69600, Note_on_c, 2, 62, 50
16, 69600, Note_on_c, 2, 72, 50
16, 69720, Note_off_c, 2, 72, 64
16, 69800, Note_off_c, 2, 62, 64
16, 69840, Note_on_c, 2, 72, 50
16, 69960, Note_off_c, 2, 72, 64
16, 70080, Note_on_c, 2, 64, 40
16, 70080, Note_on_c, 2, 71, 40
16, 70200, Note_off_c, 2, 71, 64
16, 70280, Note_off_c, 2, 64, 64
16, 70320, Note_on_c, 2, 71, 40
16, 70440, Note_off_c, 2, 71, 64
16, 70560, Note_on_c, 2, 64, 30
16, 70560, Note_on_c, 2, 71, 40
16, 70680, Note_off_c, 2, 71, 64
16, 70760, Note_off_c, 2, 64, 64
16, 70800, Note_on_c, 2, 71, 40
16, 70920, Note_off_c, 2, 71, 64
16, 71040, Note_on_c, 2, 67, 70
16, 71040, Note_on_c, 2, 71, 70
16, 71240, Note_off_c, 2, 71, 64
16, 71240, Note_off_c, 2, 67, 64
16, 71520, Note_on_c, 2, 67, 60
16, 71520, Note_on_c, 2, 71, 60
16, 71720, Note_off_c, 2, 71, 64
16, 71720, Note_off_c, 2, 67, 64
16, 72000, Note_on_c, 2, 67, 50
16, 72000, Note_on_c, 2, 71, 50
16, 72200, Note_off_c, 2, 71, 64
16, 72200, Note_off_c, 2, 67, 64
16, 72480, Note_on_c, 2, 67, 50
16, 72480, Note_on_c, 2, 71, 50
16, 72680, Note_off_c, 2, 71, 64
16, 72680, Note_off_c, 2, 67, 64
16, 72960, Note_on_c, 2, 67, 50
16, 72960, Note_on_c, 2, 71, 50
16, 73160, Note_off_c, 2, 71, 64
16, 73160, Note_off_c, 2, 67, 64
16, 73440, Note_on_c, 2, 67, 50
16, 73440, Note_on_c, 2, 71, 50
16, 73640, Note_off_c, 2, 71, 64
16, 73640, Note_off_c, 2, 67, 64
16, 73920, Note_on_c, 2, 67, 50
16, 73920, Note_on_c, 2, 71, 50
16, 74120, Note_off_c, 2, 71, 64
16, 74120, Note_off_c, 2, 67, 64
16, 74400, Note_on_c, 2, 67, 50
16, 74400, Note_on_c, 2, 71, 50
16, 74600, Note_off_c, 2, 71, 64
16, 74600, Note_off_c, 2, 67, 64
16, 74880, Note_on_c, 2, 67, 50
16, 74880, Note_on_c, 2, 71, 50
16, 75080, Note_off_c, 2, 71, 64
16, 75080, Note_off_c, 2, 67, 64
16, 75360, Note_on_c, 2, 67, 50
16, 75360, Note_on_c, 2, 71, 50
16, 75560, Note_off_c, 2, 71, 64
16, 75560, Note_off_c, 2, 67, 64
16, 75840, Note_on_c, 2, 67, 50
16, 75840, Note_on_c, 2, 71, 50
16, 76040, Note_off_c, 2, 71, 64
16, 76040, Note_off_c, 2, 67, 64
16, 76320, Note_on_c, 2, 67, 50
16, 76320, Note_on_c, 2, 71, 50
16, 76520, Note_off_c, 2, 71, 64
16, 76520, Note_off_c, 2, 67, 64
16, 76800, Note_on_c, 2, 67, 50
16, 76800, Note_on_c, 2, 71, 50
16, 77000, Note_off_c, 2, 71, 64
16, 77000, Note_off_c, 2, 67, 64
16, 77280, Note_on_c, 2, 67, 40
16, 77280, Note_on_c, 2, 71, 40
16, 77480, Note_off_c, 2, 71, 64
16, 77480, Note_off_c, 2, 67, 64
16, 77760, Note_on_c, 2, 67, 50
16, 77760, Note_on_c, 2, 71, 50
16, 77960, Note_off_c, 2, 71, 64
16, 77960, Note_off_c, 2, 67, 64
16, 78240, Note_on_c, 2, 67, 65
16, 78240, Note_on_c, 2, 71, 65
16, 78440, Note_off_c, 2, 71, 64
16, 78440, Note_off_c, 2, 67, 64
16, 78720, Note_on_c, 2, 67, 70
16, 78720, Note_on_c, 2, 71, 70
16, 78920, Note_off_c, 2, 71, 64
16, 78920, Note_off_c, 2, 67, 64
16, 79200, Note_on_c, 2, 67, 60
16, 79200, Note_on_c, 2, 71, 60
16, 79400, Note_off_c, 2, 71, 64
16, 79400, Note_off_c, 2, 67, 64
16, 79680, Note_on_c, 2, 67, 50
16, 79680, Note_on_c, 2, 71, 50
16, 79880, Note_off_c, 2, 71, 64
16, 79880, Note_off_c, 2, 67, 64
16, 80160, Note_on_c, 2, 67, 50
16, 80160, Note_on_c, 2, 71, 50
16, 80360, Note_off_c, 2, 71, 64
16, 80360, Note_off_c, 2, 67, 64
16, 80640, Note_on_c, 2, 67, 50
16, 80640, Note_on_c, 2, 71, 50
16, 80840, Note_off_c, 2, 71, 64
16, 80840, Note_off_c, 2, 67, 64
16, 81120, Note_on_c, 2, 67, 50
16, 81120, Note_on_c, 2, 71, 50
16, 81320, Note_off_c, 2, 71, 64
16, 81320, Note_off_c, 2, 67, 64
16, 81600, Note_on_c, 2, 67, 50
16, 81600, Note_on_c, 2, 71, 50
16, 81800, Note_off_c, 2, 71, 64
16, 81800, Note_off_c, 2, 67, 64
16, 82080, Note_on_c, 2, 67, 50
16, 82080, Note_on_c, 2, 71, 50
16, 82280, Note_off_c, 2, 71, 64
16, 82280, Note_off_c, 2, 67, 64
16, 82560, Note_on_c, 2, 67, 50
16, 82560, Note_on_c, 2, 71, 50
16, 82760, Note_off_c, 2, 71, 64
16, 82760, Note_off_c, 2, 67, 64
16, 83040, Note_on_c, 2, 67, 50
16, 83040, Note_on_c, 2, 71, 50
16, 83240, Note_off_c, 2, 71, 64
16, 83240, Note_off_c, 2, 67, 64
16, 83520, Note_on_c, 2, 67, 50
16, 83520, Note_on_c, 2, 71, 50
16, 83720, Note_off_c, 2, 71, 64
16, 83720, Note_off_c, 2, 67, 64
16, 84000, Note_on_c, 2, 67, 50
16, 84000, Note_on_c, 2, 71, 50
16, 84200, Note_off_c, 2, 71, 64
16, 84200, Note_off_c, 2, 67, 64
16, 84480, Note_on_c, 2, 67, 50
16, 84480, Note_on_c, 2, 71, 50
16, 84680, Note_off_c, 2, 71, 64
16, 84680, Note_off_c, 2, 67, 64
16, 84960, Note_on_c, 2, 67, 40
16, 84960, Note_on_c, 2, 71, 40
16, 85160, Note_off_c, 2, 71, 64
16, 85160, Note_off_c, 2, 67, 64
16, 85440, Note_on_c, 2, 67, 30
16, 85440, Note_on_c, 2, 71, 30
16, 85640, Note_off_c, 2, 71, 64
16, 85640, Note_off_c, 2, 67, 64
16, 85920, Note_on_c, 2, 67, 20
16, 85920, Note_on_c, 2, 71, 20
16, 86120, Note_off_c, 2, 71, 64
16, 86120, Note_off_c, 2, 67, 64
16, 86400, Control_c, 2, 7, 100
16, 86400, Note_on_c, 2, 60, 100
16, 86400, Note_on_c, 2, 64, 100
16, 86600, Note_off_c, 2, 64, 64
16, 86600, Note_off_c, 2, 60, 64
16, 86880, Note_on_c, 2, 60, 90
16, 86880, Note_on_c, 2, 64, 90
16, 87080, Note_off_c, 2, 64, 64
16, 87080, Note_off_c, 2, 60, 64
16, 87360, Note_on_c, 2, 60, 80
16, 87360, Note_on_c, 2, 64, 80
16, 87560, Note_off_c, 2, 64, 64
16, 87560, Note_off_c, 2, 60, 64
16, 87840, Note_on_c, 2, 60, 70
16, 87840, Note_on_c, 2, 64, 70
16, 88040, Note_off_c, 2, 64, 64
16, 88040, Note_off_c, 2, 60, 64
16, 88320, Note_on_c, 2, 60, 60
16, 88320, Note_on_c, 2, 64, 60
16, 88520, Note_off_c, 2, 64, 64
16, 88520, Note_off_c, 2, 60, 64
16, 88800, Note_on_c, 2, 60, 60
16, 88800, Note_on_c, 2, 64, 60
16, 89000, Note_off_c, 2, 64, 64
16, 89000, Note_off_c, 2, 60, 64
16, 89280, Note_on_c, 2, 60, 70
16, 89280, Note_on_c, 2, 64, 70
16, 89480, Note_off_c, 2, 64, 64
16, 89480, Note_off_c, 2, 60, 64
16, 89760, Note_on_c, 2, 60, 80
16, 89760, Note_on_c, 2, 64, 80
16, 89960, Note_off_c, 2, 64, 64
16, 89960, Note_off_c, 2, 60, 64
16, 90240, Note_on_c, 2, 59, 90
16, 90240, Note_on_c, 2, 64, 90
16, 90440, Note_off_c, 2, 64, 64
16, 90440, Note_off_c, 2, 59, 64
16, 90720, Note_on_c, 2, 59, 80
16, 90720, Note_on_c, 2, 64, 80
16, 90920, Note_off_c, 2, 64, 64
16, 90920, Note_off_c, 2, 59, 64
16, 91200, Note_on_c, 2, 59, 70
16, 91200, Note_on_c, 2, 64, 70
16, 91400, Note_off_c, 2, 64, 64
16, 91400, Note_off_c, 2, 59, 64
16, 91680, Note_on_c, 2, 59, 60
16, 91680, Note_on_c, 2, 64, 60
16, 91880, Note_off_c, 2, 64, 64
16, 91880, Note_off_c, 2, 59, 64
16, 92160, Note_on_c, 2, 59, 70
16, 92160, Note_on_c, 2, 64, 70
16, 92360, Note_off_c, 2, 64, 64
16, 92360, Note_off_c, 2, 59, 64
16, 92640, Note_on_c, 2, 59, 70
16, 92640, Note_on_c, 2, 64, 70
16, 92840, Note_off_c, 2, 64, 64
16, 92840, Note_off_c, 2, 59, 64
16, 93120, Note_on_c, 2, 59, 60
16, 93120, Note_on_c, 2, 64, 60
16, 93320, Note_off_c, 2, 64, 64
16, 93320, Note_off_c, 2, 59, 64
16, 93600, Note_on_c, 2, 59, 50
16, 93600, Note_on_c, 2, 64, 50
16, 93800, Note_off_c, 2, 64, 64
16, 93800, Note_off_c, 2, 59, 64
16, 94080, Control_c, 2, 7, 100
16, 94080, Note_on_c, 2, 60, 100
16, 94080, Note_on_c, 2, 64, 100
16, 94280, Note_off_c, 2, 64, 64
16, 94280, Note_off_c, 2, 60, 64
16, 94560, Note_on_c, 2, 60, 90
16, 94560, Note_on_c, 2, 64, 90
16, 94760, Note_off_c, 2, 64, 64
16, 94760, Note_off_c, 2, 60, 64
16, 95040, Note_on_c, 2, 60, 80
16, 95040, Note_on_c, 2, 64, 80
16, 95240, Note_off_c, 2, 64, 64
16, 95240, Note_off_c, 2, 60, 64
16, 95520, Note_on_c, 2, 60, 70
16, 95520, Note_on_c, 2, 64, 70
16, 95720, Note_off_c, 2, 64, 64
16, 95720, Note_off_c, 2, 60, 64
16, 96000, Note_on_c, 2, 60, 60
16, 96000, Note_on_c, 2, 64, 60
16, 96200, Note_off_c, 2, 64, 64
16, 96200, Note_off_c, 2, 60, 64
16, 96480, Note_on_c, 2, 60, 60
16, 96480, Note_on_c, 2, 64, 60
16, 96680, Note_off_c, 2, 64, 64
16, 96680, Note_off_c, 2, 60, 64
16, 96960, Note_on_c, 2, 60, 70
16, 96960, Note_on_c, 2, 64, 70
16, 97160, Note_off_c, 2, 64, 64
16, 97160, Note_off_c, 2, 60, 64
16, 97440, Note_on_c, 2, 60, 80
16, 97440, Note_on_c, 2, 64, 80
16, 97640, Note_off_c, 2, 64, 64
16, 97640, Note_off_c, 2, 60, 64
16, 97920, Note_on_c, 2, 59, 90
16, 97920, Note_on_c, 2, 64, 90
16, 98120, Note_off_c, 2, 64, 64
16, 98120, Note_off_c, 2, 59, 64
16, 98400, Note_on_c, 2, 59, 80
16, 98400, Note_on_c, 2, 64, 80
16, 98600, Note_off_c, 2, 64, 64
16, 98600, Note_off_c, 2, 59, 64
16, 98880, Note_on_c, 2, 59, 70
16, 98880, Note_on_c, 2, 64, 70
16, 99080, Note_off_c, 2, 64, 64
16, 99080, Note_off_c, 2, 59, 64
16, 99360, Note_on_c, 2, 59, 60
16, 99360, Note_on_c, 2, 64, 60
16, 99560, Note_off_c, 2, 64, 64
16, 99560, Note_off_c, 2, 59, 64
16, 99840, Note_on_c, 2, 59, 70
16, 99840, Note_on_c, 2, 64, 70
16, 100040, Note_off_c, 2, 64, 64
16, 100040, Note_off_c, 2, 59, 64
16, 100320, Note_on_c, 2, 59, 70
16, 100320, Note_on_c, 2, 64, 70
16, 100520, Note_off_c, 2, 64, 64
16, 100520, Note_off_c, 2, 59, 64
16, 100800, Note_on_c, 2, 59, 60
16, 100800, Note_on_c, 2, 64, 60
16, 101000, Note_off_c, 2, 64, 64
16, 101000, Note_off_c, 2, 59, 64
16, 101280, Note_on_c, 2, 59, 50
16, 101280, Note_on_c, 2, 64, 50
16, 101480, Note_off_c, 2, 64, 64
16, 101480, Note_off_c, 2, 59, 64
16, 101760, Note_on_c, 2, 52, 80
16, 101760, Note_on_c, 2, 64, 80
16, 101960, Note_off_c, 2, 64, 64
16, 101960, Note_off_c, 2, 52, 64
16, 102240, Note_on_c, 2, 52, 70
16, 102240, Note_on_c, 2, 64, 70
16, 102440, Note_off_c, 2, 64, 64
16, 102440, Note_off_c, 2, 52, 64
16, 102720, Note_on_c, 2, 52, 60
16, 102720, Note_on_c, 2, 64, 60
16, 102920, Note_off_c, 2, 64, 64
16, 102920, Note_off_c, 2, 52, 64
16, 103200, Note_on_c, 2, 52, 50
16, 103200, Note_on_c, 2, 64, 50
16, 103400, Note_off_c, 2, 64, 64
16, 103400, Note_off_c, 2, 52, 64
16, 103680, Note_on_c, 2, 52, 60
16, 103680, Note_on_c, 2, 64, 60
16, 103880, Note_off_c, 2, 64, 64
16, 103880, Note_off_c, 2, 52, 64
16, 104160, Note_on_c, 2, 52, 60
16, 104160, Note_on_c, 2, 64, 60
16, 104360, Note_off_c, 2, 64, 64
16, 104360, Note_off_c, 2, 52, 64
16, 104640, Note_on_c, 2, 52, 70
16, 104640, Note_on_c, 2, 64, 70
16, 104840, Note_off_c, 2, 64, 64
16, 104840, Note_off_c, 2, 52, 64
16, 105120, Note_on_c, 2, 52, 80
16, 105120, Note_on_c, 2, 64, 80
16, 105320, Note_off_c, 2, 64, 64
16, 105320, Note_off_c, 2, 52, 64
16, 105600, Note_on_c, 2, 52, 80
16, 105600, Note_on_c, 2, 64, 80
16, 105800, Note_off_c, 2, 64, 64
16, 105800, Note_off_c, 2, 52, 64
16, 106080, Note_on_c, 2, 52, 70
16, 106080, Note_on_c, 2, 64, 70
16, 106280, Note_off_c, 2, 64, 64
16, 106280, Note_off_c, 2, 52, 64
16, 106560, Note_on_c, 2, 52, 60
16, 106560, Note_on_c, 2, 64, 60
16, 106760, Note_off_c, 2, 64, 64
16, 106760, Note_off_c, 2, 52, 64
16, 107040, Note_on_c, 2, 52, 50
16, 107040, Note_on_c, 2, 64, 50
16, 107240, Note_off_c, 2, 64, 64
16, 107240, Note_off_c, 2, 52, 64
16, 107520, Note_on_c, 2, 60, 80
16, 107520, Note_on_c, 2, 64, 80
16, 107720, Note_off_c, 2, 64, 64
16, 107720, Note_off_c, 2, 60, 64
16, 108000, Note_on_c, 2, 60, 70
16, 108000, Note_on_c, 2, 64, 70
16, 108200, Note_off_c, 2, 64, 64
16, 108200, Note_off_c, 2, 60, 64
16, 108480, Note_on_c, 2, 60, 70
16, 108480, Note_on_c, 2, 64, 70
16, 108680, Note_off_c, 2, 64, 64
16, 108680, Note_off_c, 2, 60, 64
16, 108960, Note_on_c, 2, 60, 60
16, 108960, Note_on_c, 2, 64, 60
16, 109160, Note_off_c, 2, 64, 64
16, 109160, Note_off_c, 2, 60, 64
16, 109440, Note_on_c, 2, 60, 60
16, 109440, Note_on_c, 2, 64, 60
16, 109640, Note_off_c, 2, 64, 64
16, 109640, Note_off_c, 2, 60, 64
16, 109920, Note_on_c, 2, 60, 50
16, 109920, Note_on_c, 2, 64, 50
16, 110120, Note_off_c, 2, 64, 64
16, 110120, Note_off_c, 2, 60, 64
16, 110400, Note_on_c, 2, 52, 60
16, 110400, Note_on_c, 2, 64, 60
16, 110600, Note_off_c, 2, 64, 64
16, 110600, Note_off_c, 2, 52, 64
16, 110880, Note_on_c, 2, 52, 70
16, 110880, Note_on_c, 2, 64, 70
16, 111080, Note_off_c, 2, 64, 64
16, 111080, Note_off_c, 2, 52, 64
16, 111360, Note_on_c, 2, 64, 60
16, 111360, Note_on_c, 2, 71, 60
16, 111520, Note_off_c, 2, 71, 64
16, 111560, Note_off_c, 2, 64, 64
16, 111600, Note_on_c, 2, 71, 50
16, 111720, Note_off_c, 2, 71, 64
16, 111840, Note_on_c, 2, 64, 50
16, 111840, Note_on_c, 2, 71, 40
16, 111960, Note_off_c, 2, 71, 64
16, 112040, Note_off_c, 2, 64, 64
16, 112080, Note_on_c, 2, 71, 40
16, 112200, Note_off_c, 2, 71, 64
16, 112320, Note_on_c, 2, 40, 90
16, 112320, Note_on_c, 2, 71, 30
16, 112440, Note_off_c, 2, 71, 64
16, 112520, Note_off_c, 2, 40, 64
16, 112560, Note_on_c, 2, 71, 30
16, 112680, Note_off_c, 2, 71, 64
16, 112800, Note_on_c, 2, 40, 90
16, 112800, Note_on_c, 2, 71, 30
16, 112920, Note_off_c, 2, 71, 64
16, 113000, Note_off_c, 2, 40, 64
16, 113040, Note_on_c, 2, 71, 30
16, 113160, Note_off_c, 2, 71, 64
16, 113280, Note_on_c, 2, 40, 90
16, 113280, Note_on_c, 2, 71, 40
16, 113440, Note_off_c, 2, 71, 64
16, 113480, Note_off_c, 2, 40, 64
16, 113520, Note_on_c, 2, 71, 40
16, 113640, Note_off_c, 2, 71, 64
16, 113760, Note_on_c, 2, 40, 90
16, 113760, Note_on_c, 2, 71, 40
16, 113960, Note_off_c, 2, 71, 64
16, 113960, Note_off_c, 2, 40, 64
16, 114000, Note_on_c, 2, 71, 40
16, 114120, Note_off_c, 2, 71, 64
16, 114240, Note_on_c, 2, 40, 90
16, 114240, Note_on_c, 2, 71, 40
16, 114360, Note_off_c, 2, 71, 64
16, 114440, Note_off_c, 2, 40, 64
16, 114480, Note_on_c, 2, 71, 40
16, 114600, Note_off_c, 2, 71, 64
16, 114720, Note_on_c, 2, 40, 90
16, 114720, Note_on_c, 2, 71, 40
16, 114840, Note_off_c, 2, 71, 64
16, 114920, Note_off_c, 2, 40, 64
16, 114960, Note_on_c, 2, 71, 40
16, 115080, Note_off_c, 2, 71, 64
16, 115200, Note_on_c, 2, 40, 90
16, 115200, Note_on_c, 2, 71, 40
16, 115360, Note_off_c, 2, 71, 64
16, 115400, Note_off_c, 2, 40, 64
16, 115440, Note_on_c, 2, 71, 40
16, 115560, Note_off_c, 2, 71, 64
16, 115680, Note_on_c, 2, 40, 100
16, 115680, Note_on_c, 2, 71, 50
16, 115800, Note_off_c, 2, 71, 64
16, 115880, Note_off_c, 2, 40, 64
16, 115920, Note_on_c, 2, 71, 50
16, 116040, Note_off_c, 2, 71, 64
16, 116160, Note_on_c, 2, 38, 100
16, 116160, Note_on_c, 2, 71, 60
16, 116280, Note_off_c, 2, 71, 64
16, 116360, Note_off_c, 2, 38, 64
16, 116400, Note_on_c, 2, 71, 60
16, 116520, Note_off_c, 2, 71, 64
16, 116640, Note_on_c, 2, 38, 110
16, 116640, Note_on_c, 2, 71, 60
16, 116760, Note_off_c, 2, 71, 64
16, 116840, Note_off_c, 2, 38, 64
16, 116880, Note_on_c, 2, 71, 60
16, 117000, Note_off_c, 2, 71, 64
16, 117120, Note_on_c, 2, 36, 120
16, 117120, Note_on_c, 2, 72, 70
16, 117280, Note_off_c, 2, 72, 64
16, 117320, Note_off_c, 2, 36, 64
16, 117360, Note_on_c, 2, 72, 70
16, 117480, Note_off_c, 2, 72, 64
16, 117600, Note_on_c, 2, 43, 110
16, 117600, Note_on_c, 2, 72, 60
16, 117720, Note_off_c, 2, 72, 64
16, 117800, Note_off_c, 2, 43, 64
16, 117840, Note_on_c, 2, 72, 60
16, 117960, Note_off_c, 2, 72, 64
16, 118080, Note_on_c, 2, 48, 100
16, 118080, Note_on_c, 2, 72, 60
16, 118200, Note_off_c, 2, 72, 64
16, 118280, Note_off_c, 2, 48, 64
16, 118320, Note_on_c, 2, 72, 50
16, 118440, Note_off_c, 2, 72, 64
16, 118560, Note_on_c, 2, 48, 100
16, 118560, Note_on_c, 2, 72, 50
16, 118680, Note_off_c, 2, 72, 64
16, 118760, Note_off_c, 2, 48, 64
16, 118800, Note_on_c, 2, 72, 50
16, 118920, Note_off_c, 2, 72, 64
16, 119040, Note_on_c, 2, 48, 90
16, 119040, Note_on_c, 2, 72, 50
16, 119200, Note_off_c, 2, 72, 64
16, 119240, Note_off_c, 2, 48, 64
16, 119280, Note_on_c, 2, 72, 50
16, 119400, Note_off_c, 2, 72, 64
16, 119520, Note_on_c, 2, 38, 90
16, 119520, Note_on_c, 2, 72, 50
16, 119640, Note_off_c, 2, 72, 64
16, 119720, Note_off_c, 2, 38, 64
16, 119760, Note_on_c, 2, 72, 50
16, 119880, Note_off_c, 2, 72, 64
16, 120000, Note_on_c, 2, 64, 40
16, 120000, Note_on_c, 2, 71, 40
16, 120120, Note_off_c, 2, 71, 64
16, 120200, Note_off_c, 2, 64, 64
16, 120240, Note_on_c, 2, 71, 40
16, 120360, Note_off_c, 2, 71, 64
16, 120480, Note_on_c, 2, 64, 30
16, 120480, Note_on_c, 2, 71, 40
16, 120600, Note_off_c, 2, 71, 64
16, 120680, Note_off_c, 2, 64, 64
16, 120720, Note_on_c, 2, 71, 40
16, 120840, Note_off_c, 2, 71, 64
16, 120960, Note_on_c, 2, 67, 70
16, 120960, Note_on_c, 2, 71, 70
16, 121160, Note_off_c, 2, 71, 64
16, 121160, Note_off_c, 2, 67, 64
16, 121440, Note_on_c, 2, 67, 60
16, 121440, Note_on_c, 2, 71, 60
16, 121640, Note_off_c, 2, 71, 64
16, 121640, Note_off_c, 2, 67, 64
16, 121920, Note_on_c, 2, 67, 50
16, 121920, Note_on_c, 2, 71, 50
16, 122120, Note_off_c, 2, 71, 64
16, 122120, Note_off_c, 2, 67, 64
16, 122400, Note_on_c, 2, 67, 50
16, 122400, Note_on_c, 2, 71, 50
16, 122600, Note_off_c, 2, 71, 64
16, 122600, Note_off_c, 2, 67, 64
16, 122880, Note_on_c, 2, 67, 50
16, 122880, Note_on_c, 2, 71, 50
16, 123080, Note_off_c, 2, 71, 64
16, 123080, Note_off_c, 2, 67, 64
16, 123360, Note_on_c, 2, 67, 50
16, 123360, Note_on_c, 2, 71, 50
16, 123560, Note_off_c, 2, 71, 64
16, 123560, Note_off_c, 2, 67, 64
16, 123840, Note_on_c, 2, 67, 50
16, 123840, Note_on_c, 2, 71, 50
16, 124040, Note_off_c, 2, 71, 64
16, 124040, Note_off_c, 2, 67, 64
16, 124320, Note_on_c, 2, 67, 50
16, 124320, Note_on_c, 2, 71, 50
16, 124520, Note_off_c, 2, 71, 64
16, 124520, Note_off_c, 2, 67, 64
16, 124800, Note_on_c, 2, 67, 50
16, 124800, Note_on_c, 2, 71, 50
16, 125000, Note_off_c, 2, 71, 64
16, 125000, Note_off_c, 2, 67, 64
16, 125280, Note_on_c, 2, 67, 50
16, 125280, Note_on_c, 2, 71, 50
16, 125480, Note_off_c, 2, 71, 64
16, 125480, Note_off_c, 2, 67, 64
16, 125760, Note_on_c, 2, 67, 50
16, 125760, Note_on_c, 2, 71, 50
16, 125960, Note_off_c, 2, 71, 64
16, 125960, Note_off_c, 2, 67, 64
16, 126240, Note_on_c, 2, 67, 50
16, 126240, Note_on_c, 2, 71, 50
16, 126440, Note_off_c, 2, 71, 64
16, 126440, Note_off_c, 2, 67, 64
16, 126720, Note_on_c, 2, 67, 50
16, 126720, Note_on_c, 2, 71, 50
16, 126920, Note_off_c, 2, 71, 64
16, 126920, Note_off_c, 2, 67, 64
16, 127200, Note_on_c, 2, 67, 40
16, 127200, Note_on_c, 2, 71, 40
16, 127400, Note_off_c, 2, 71, 64
16, 127400, Note_off_c, 2, 67, 64
16, 127680, Note_on_c, 2, 67, 50
16, 127680, Note_on_c, 2, 71, 50
16, 127880, Note_off_c, 2, 71, 64
16, 127880, Note_off_c, 2, 67, 64
16, 128160, Note_on_c, 2, 67, 65
16, 128160, Note_on_c, 2, 71, 65
16, 128360, Note_off_c, 2, 71, 64
16, 128360, Note_off_c, 2, 67, 64
16, 128640, Note_on_c, 2, 67, 70
16, 128640, Note_on_c, 2, 71, 70
16, 128840, Note_off_c, 2, 71, 64
16, 128840, Note_off_c, 2, 67, 64
16, 129120, Note_on_c, 2, 67, 60
16, 129120, Note_on_c, 2, 71, 60
16, 129320, Note_off_c, 2, 71, 64
16, 129320, Note_off_c, 2, 67, 64
16, 129600, Note_on_c, 2, 67, 50
16, 129600, Note_on_c, 2, 71, 50
16, 129800, Note_off_c, 2, 71, 64
16, 129800, Note_off_c, 2, 67, 64
16, 130080, Note_on_c, 2, 67, 50
16, 130080, Note_on_c, 2, 71, 50
16, 130280, Note_off_c, 2, 71, 64
16, 130280, Note_off_c, 2, 67, 64
16, 130560, Note_on_c, 2, 67, 50
16, 130560, Note_on_c, 2, 71, 50
16, 130760, Note_off_c, 2, 71, 64
16, 130760, Note_off_c, 2, 67, 64
16, 131040, Note_on_c, 2, 67, 50
16, 131040, Note_on_c, 2, 71, 50
16, 131240, Note_off_c, 2, 71, 64
16, 131240, Note_off_c, 2, 67, 64
16, 131520, Note_on_c, 2, 67, 50
16, 131520, Note_on_c, 2, 71, 50
16, 131720, Note_off_c, 2, 71, 64
16, 131720, Note_off_c, 2, 67, 64
16, 132000, Note_on_c, 2, 67, 50
16, 132000, Note_on_c, 2, 71, 50
16, 132200, Note_off_c, 2, 71, 64
16, 132200, Note_off_c, 2, 67, 64
16, 132480, Note_on_c, 2, 67, 50
16, 132480, Note_on_c, 2, 71, 50
16, 132680, Note_off_c, 2, 71, 64
16, 132680, Note_off_c, 2, 67, 64
16, 132960, Note_on_c, 2, 67, 50
16, 132960, Note_on_c, 2, 71, 50
16, 133160, Note_off_c, 2, 71, 64
16, 133160, Note_off_c, 2, 67, 64
16, 133440, Note_on_c, 2, 67, 50
16, 133440, Note_on_c, 2, 71, 50
16, 133640, Note_off_c, 2, 71, 64
16, 133640, Note_off_c, 2, 67, 64
16, 133920, Note_on_c, 2, 67, 50
16, 133920, Note_on_c, 2, 71, 50
16, 134120, Note_off_c, 2, 71, 64
16, 134120, Note_off_c, 2, 67, 64
16, 134400, Note_on_c, 2, 67, 50
16, 134400, Note_on_c, 2, 71, 50
16, 134700, Note_off_c, 2, 71, 64
16, 134700, Note_off_c, 2, 67, 64
16, 134880, Note_on_c, 2, 67, 40
16, 134880, Note_on_c, 2, 71, 40
16, 135180, Note_off_c, 2, 71, 64
16, 135180, Note_off_c, 2, 67, 64
16, 135360, Note_on_c, 2, 67, 30
16, 135360, Note_on_c, 2, 71, 30
16, 135820, Note_off_c, 2, 71, 64
16, 135820, Note_off_c, 2, 67, 64
16, 135840, Note_on_c, 2, 66, 20
16, 135840, Note_on_c, 2, 69, 20
16, 136300, Note_off_c, 2, 69, 64
16, 136300, Note_off_c, 2, 66, 64
16, 136320, Note_on_c, 2, 64, 20
16, 136320, Note_on_c, 2, 67, 20
16, 138220, Note_off_c, 2, 67, 64
16, 138220, Note_off_c, 2, 64, 64
16, 138240, Control_c, 2, 11, 127
16, 138360, Control_c, 2, 64, 0
16, 138600, Pitch_bend_c, 2, 8192
16, 138720, Control_c, 2, 91, 40
16, 138960, Control_c, 2, 1, 0
16, 139200, Control_c, 2, 93, 0
16, 139440, Control_c, 2, 7, 100
16, 139800, Control_c, 2, 10, 64
16, 139800, End_track
17, 0, Start_track
17, 0, Title_t, "pan/bassoon/flute   "
17, 0, MIDI_port, 0
17, 0, Channel_prefix, 3
17, 0, Control_c, 3, 7, 100
17, 0, Control_c, 3, 10, 64
17, 0, Program_c, 3, 70
17, 0, Pitch_bend_c, 3, 8192
17, 0, Control_c, 3, 1, 10
17, 0, Control_c, 3, 11, 120
17, 0, Control_c, 3, 64, 0
17, 480, Control_c, 3, 91, 64
17, 960, Control_c, 3, 93, 0
17, 1920, Note_on_c, 3, 72, 100
17, 1920, Note_on_c, 3, 76, 100
17, 2020, Control_c, 3, 7, 110
17, 2120, Control_c, 3, 7, 100
17, 2220, Control_c, 3, 7, 90
17, 2320, Control_c, 3, 7, 100
17, 2420, Control_c, 3, 7, 110
17, 2520, Control_c, 3, 7, 120
17, 3100, Note_off_c, 3, 76, 64
17, 3100, Note_off_c, 3, 72, 64
17, 3120, Note_on_c, 3, 74, 90
17, 3120, Note_on_c, 3, 78, 90
17, 3340, Note_off_c, 3, 78, 64
17, 3340, Note_off_c, 3, 74, 64
17, 3360, Note_on_c, 3, 76, 90
17, 3360, Note_on_c, 3, 79, 90
17, 3580, Note_off_c, 3, 79, 64
17, 3580, Note_off_c, 3, 76, 64
17, 3600, Note_on_c, 3, 81, 100
17, 3600, Note_on_c, 3, 78, 100
17, 4060, Note_off_c, 3, 78, 64
17, 4060, Note_off_c, 3, 81, 64
17, 4080, Note_on_c, 3, 76, 100
17, 4080, Note_on_c, 3, 79, 100
17, 4540, Note_off_c, 3, 79, 64
17, 4540, Note_off_c, 3, 76, 64
17, 4560, Note_on_c, 3, 74, 110
17, 4560, Note_on_c, 3, 78, 110
17, 5020, Note_off_c, 3, 78, 64
17, 5020, Note_off_c, 3, 74, 64
17, 5040, Note_on_c, 3, 72, 100
17, 5040, Note_on_c, 3, 76, 100
17, 5500, Note_off_c, 3, 76, 64
17, 5500, Note_off_c, 3, 72, 64
17, 5520, Note_on_c, 3, 67, 90
17, 5520, Note_on_c, 3, 71, 90
17, 5740, Note_off_c, 3, 71, 64
17, 5740, Note_off_c, 3, 67, 64
17, 5760, Note_on_c, 3, 66, 80
17, 5760, Note_on_c, 3, 69, 80
17, 5960, Note_off_c, 3, 69, 64
17, 5960, Note_off_c, 3, 66, 64
17, 6000, Note_on_c, 3, 64, 90
17, 6000, Note_on_c, 3, 67, 90
17, 6400, Note_off_c, 3, 67, 64
17, 6400, Note_off_c, 3, 64, 64
17, 9600, Control_c, 3, 7, 100
17, 9600, Note_on_c, 3, 72, 100
17, 9600, Note_on_c, 3, 76, 100
17, 9700, Control_c, 3, 7, 110
17, 9800, Control_c, 3, 7, 100
17, 9900, Control_c, 3, 7, 90
17, 10000, Control_c, 3, 7, 100
17, 10100, Control_c, 3, 7, 110
17, 10200, Control_c, 3, 7, 120
17, 10780, Note_off_c, 3, 76, 64
17, 10780, Note_off_c, 3, 72, 64
17, 10800, Note_on_c, 3, 74, 90
17, 10800, Note_on_c, 3, 78, 90
17, 11020, Note_off_c, 3, 78, 64
17, 11020, Note_off_c, 3, 74, 64
17, 11040, Note_on_c, 3, 76, 90
17, 11040, Note_on_c, 3, 79, 90
17, 11260, Note_off_c, 3, 79, 64
17, 11260, Note_off_c, 3, 76, 64
17, 11280, Note_on_c, 3, 81, 100
17, 11280, Note_on_c, 3, 78, 100
17, 11740, Note_off_c, 3, 78, 64
17, 11740, Note_off_c, 3, 81, 64
17, 11760, Note_on_c, 3, 76, 100
17, 11760, Note_on_c, 3, 79, 100
17, 12220, Note_off_c, 3, 79, 64
17, 12220, Note_off_c, 3, 76, 64
17, 12240, Note_on_c, 3, 74, 110
17, 12240, Note_on_c, 3, 78, 110
17, 12700, Note_off_c, 3, 78, 64
17, 12700, Note_off_c, 3, 74, 64
17, 12720, Note_on_c, 3, 72, 100
17, 12720, Note_on_c, 3, 76, 100
17, 13180, Note_off_c, 3, 76, 64
17, 13180, Note_off_c, 3, 72, 64
17, 13200, Note_on_c, 3, 67, 90
17, 13200, Note_on_c, 3, 71, 90
17, 13420, Note_off_c, 3, 71, 64
17, 13420, Note_off_c, 3, 67, 64
17, 13440, Note_on_c, 3, 66, 80
17, 13440, Note_on_c, 3, 69, 80
17, 13640, Note_off_c, 3, 69, 64
17, 13640, Note_off_c, 3, 66, 64
17, 13680, Note_on_c, 3, 64, 90
17, 13680, Note_on_c, 3, 67, 90
17, 14080, Note_off_c, 3, 67, 64
17, 14080, Note_off_c, 3, 64, 64
17, 17280, Note_on_c, 3, 69, 120
17, 17480, Note_off_c, 3, 69, 64
17, 17520, Note_on_c, 3, 69, 90
17, 17720, Note_off_c, 3, 69, 64
17, 17760, Note_on_c, 3, 71, 110
17, 17960, Note_off_c, 3, 71, 64
17, 18000, Note_on_c, 3, 67, 110
17, 18440, Note_off_c, 3, 67, 64
17, 18480, Note_on_c, 3, 64, 90
17, 18880, Note_off_c, 3, 64, 64
17, 19200, Note_on_c, 3, 67, 110
17, 19400, Note_off_c, 3, 67, 64
17, 19440, Note_on_c, 3, 69, 90
17, 19640, Note_off_c, 3, 69, 64
17, 19680, Note_on_c, 3, 71, 90
17, 19880, Note_off_c, 3, 71, 64
17, 19920, Note_on_c, 3, 74, 110
17, 20360, Note_off_c, 3, 74, 64
17, 20400, Note_on_c, 3, 73, 90
17, 20600, Note_off_c, 3, 73, 64
17, 20640, Note_on_c, 3, 71, 90
17, 20840, Note_off_c, 3, 71, 64
17, 20880, Note_on_c, 3, 73, 110
17, 21320, Note_off_c, 3, 73, 64
17, 21360, Note_on_c, 3, 71, 90
17, 21560, Note_off_c, 3, 71, 64
17, 21600, Note_on_c, 3, 69, 90
17, 21800, Note_off_c, 3, 69, 64
17, 21840, Note_on_c, 3, 71, 110
17, 22280, Note_off_c, 3, 71, 64
17, 22320, Note_on_c, 3, 69, 90
17, 22520, Note_off_c, 3, 69, 64
17, 22560, Note_on_c, 3, 67, 90
17, 22760, Note_off_c, 3, 67, 64
17, 22800, Note_on_c, 3, 69, 90
17, 23540, Note_off_c, 3, 69, 64
17, 24960, Note_on_c, 3, 67, 110
17, 25190, Note_off_c, 3, 67, 64
17, 25200, Note_on_c, 3, 69, 90
17, 25430, Note_off_c, 3, 69, 64
17, 25440, Note_on_c, 3, 71, 90
17, 25670, Note_off_c, 3, 71, 64
17, 25680, Note_on_c, 3, 72, 100
17, 26150, Note_off_c, 3, 72, 64
17, 26160, Note_on_c, 3, 71, 80
17, 26560, Note_off_c, 3, 71, 64
17, 26880, Note_on_c, 3, 69, 120
17, 27080, Note_off_c, 3, 69, 64
17, 27120, Note_on_c, 3, 69, 90
17, 27320, Note_off_c, 3, 69, 64
17, 27360, Note_on_c, 3, 71, 110
17, 27560, Note_off_c, 3, 71, 64
17, 27600, Note_on_c, 3, 67, 110
17, 28040, Note_off_c, 3, 67, 64
17, 28080, Note_on_c, 3, 64, 90
17, 28480, Note_off_c, 3, 64, 64
17, 28800, Note_on_c, 3, 67, 110
17, 29000, Note_off_c, 3, 67, 64
17, 29040, Note_on_c, 3, 69, 90
17, 29240, Note_off_c, 3, 69, 64
17, 29280, Note_on_c, 3, 71, 90
17, 29480, Note_off_c, 3, 71, 64
17, 29520, Note_on_c, 3, 74, 110
17, 29960, Note_off_c, 3, 74, 64
17, 30000, Note_on_c, 3, 73, 90
17, 30200, Note_off_c, 3, 73, 64
17, 30240, Note_on_c, 3, 71, 90
17, 30440, Note_off_c, 3, 71, 64
17, 30480, Note_on_c, 3, 73, 110
17, 30920, Note_off_c, 3, 73, 64
17, 30960, Note_on_c, 3, 71, 90
17, 31160, Note_off_c, 3, 71, 64
17, 31200, Note_on_c, 3, 69, 90
17, 31400, Note_off_c, 3, 69, 64
17, 31440, Note_on_c, 3, 71, 110
17, 31880, Note_off_c, 3, 71, 64
17, 31920, Note_on_c, 3, 69, 90
17, 32120, Note_off_c, 3, 69, 64
17, 32160, Note_on_c, 3, 67, 90
17, 32360, Note_off_c, 3, 67, 64
17, 32400, Note_on_c, 3, 69, 90
17, 33240, Note_off_c, 3, 69, 64
17, 34560, Note_on_c, 3, 67, 110
17, 34790, Note_off_c, 3, 67, 64
17, 34800, Note_on_c, 3, 69, 90
17, 35030, Note_off_c, 3, 69, 64
17, 35040, Note_on_c, 3, 71, 90
17, 35270, Note_off_c, 3, 71, 64
17, 35280, Note_on_c, 3, 72, 100
17, 35750, Note_off_c, 3, 72, 64
17, 35760, Note_on_c, 3, 71, 80
17, 36160, Note_off_c, 3, 71, 64
17, 36480, Note_on_c, 3, 69, 110
17, 36880, Note_off_c, 3, 69, 64
17, 36960, Note_on_c, 3, 67, 90
17, 37180, Note_off_c, 3, 67, 64
17, 37200, Note_on_c, 3, 69, 110
17, 37800, Note_off_c, 3, 69, 64
17, 37920, Note_on_c, 3, 71, 90
17, 38140, Note_off_c, 3, 71, 64
17, 38160, Note_on_c, 3, 67, 110
17, 38620, Note_off_c, 3, 67, 64
17, 38640, Note_on_c, 3, 64, 90
17, 39340, Note_off_c, 3, 64, 64
17, 39840, Note_on_c, 3, 64, 110
17, 40060, Note_off_c, 3, 64, 64
17, 40080, Note_on_c, 3, 76, 110
17, 40780, Note_off_c, 3, 76, 64
17, 40800, Note_on_c, 3, 71, 90
17, 41020, Note_off_c, 3, 71, 64
17, 41040, Note_on_c, 3, 69, 100
17, 41500, Note_off_c, 3, 69, 64
17, 41520, Note_on_c, 3, 67, 90
17, 41980, Note_off_c, 3, 67, 64
17, 42000, Note_on_c, 3, 64, 80
17, 42400, Note_off_c, 3, 64, 64
17, 44160, Note_on_c, 3, 67, 100
17, 44460, Note_off_c, 3, 67, 64
17, 44640, Note_on_c, 3, 67, 110
17, 44860, Note_off_c, 3, 67, 64
17, 44880, Note_on_c, 3, 69, 110
17, 45480, Note_off_c, 3, 69, 64
17, 45600, Note_on_c, 3, 71, 100
17, 45820, Note_off_c, 3, 71, 64
17, 45840, Note_on_c, 3, 67, 90
17, 46300, Note_off_c, 3, 67, 64
17, 46320, Note_on_c, 3, 64, 90
17, 47020, Note_off_c, 3, 64, 64
17, 47520, Note_on_c, 3, 64, 110
17, 47760, Note_off_c, 3, 64, 64
17, 47760, Note_on_c, 3, 79, 100
17, 48460, Note_off_c, 3, 79, 64
17, 48480, Note_on_c, 3, 76, 90
17, 48700, Note_off_c, 3, 76, 64
17, 48720, Note_on_c, 3, 71, 90
17, 48940, Note_off_c, 3, 71, 64
17, 48960, Note_on_c, 3, 67, 90
17, 49180, Note_off_c, 3, 67, 64
17, 49200, Note_on_c, 3, 69, 110
17, 49660, Note_off_c, 3, 69, 64
17, 49680, Note_on_c, 3, 67, 90
17, 50520, Note_off_c, 3, 67, 64
17, 51840, Note_on_c, 3, 69, 120
17, 52040, Note_off_c, 3, 69, 64
17, 52080, Note_on_c, 3, 69, 90
17, 52280, Note_off_c, 3, 69, 64
17, 52320, Note_on_c, 3, 71, 110
17, 52520, Note_off_c, 3, 71, 64
17, 52560, Note_on_c, 3, 67, 110
17, 53000, Note_off_c, 3, 67, 64
17, 53040, Note_on_c, 3, 64, 90
17, 53440, Note_off_c, 3, 64, 64
17, 53760, Note_on_c, 3, 67, 110
17, 53960, Note_off_c, 3, 67, 64
17, 54000, Note_on_c, 3, 69, 90
17, 54200, Note_off_c, 3, 69, 64
17, 54240, Note_on_c, 3, 71, 90
17, 54440, Note_off_c, 3, 71, 64
17, 54480, Note_on_c, 3, 74, 110
17, 54920, Note_off_c, 3, 74, 64
17, 54960, Note_on_c, 3, 73, 90
17, 55160, Note_off_c, 3, 73, 64
17, 55200, Note_on_c, 3, 71, 90
17, 55400, Note_off_c, 3, 71, 64
17, 55440, Note_on_c, 3, 73, 110
17, 55880, Note_off_c, 3, 73, 64
17, 55920, Note_on_c, 3, 71, 90
17, 56120, Note_off_c, 3, 71, 64
17, 56160, Note_on_c, 3, 69, 90
17, 56360, Note_off_c, 3, 69, 64
17, 56400, Note_on_c, 3, 71, 110
17, 56840, Note_off_c, 3, 71, 64
17, 56880, Note_on_c, 3, 69, 90
17, 57080, Note_off_c, 3, 69, 64
17, 57120, Note_on_c, 3, 67, 90
17, 57320, Note_off_c, 3, 67, 64
17, 57360, Note_on_c, 3, 69, 90
17, 58200, Note_off_c, 3, 69, 64
17, 59520, Note_on_c, 3, 67, 110
17, 59750, Note_off_c, 3, 67, 64
17, 59760, Note_on_c, 3, 69, 90
17, 59990, Note_off_c, 3, 69, 64
17, 60000, Note_on_c, 3, 71, 90
17, 60230, Note_off_c, 3, 71, 64
17, 60240, Note_on_c, 3, 72, 100
17, 60710, Note_off_c, 3, 72, 64
17, 60720, Note_on_c, 3, 71, 80
17, 61120, Note_off_c, 3, 71, 64
17, 61440, Note_on_c, 3, 69, 120
17, 61640, Note_off_c, 3, 69, 64
17, 61680, Note_on_c, 3, 69, 90
17, 61880, Note_off_c, 3, 69, 64
17, 61920, Note_on_c, 3, 71, 110
17, 62120, Note_off_c, 3, 71, 64
17, 62160, Note_on_c, 3, 67, 110
17, 62600, Note_off_c, 3, 67, 64
17, 62640, Note_on_c, 3, 64, 90
17, 63040, Note_off_c, 3, 64, 64
17, 63360, Note_on_c, 3, 67, 110
17, 63560, Note_off_c, 3, 67, 64
17, 63600, Note_on_c, 3, 69, 90
17, 63800, Note_off_c, 3, 69, 64
17, 63840, Note_on_c, 3, 71, 90
17, 64040, Note_off_c, 3, 71, 64
17, 64080, Note_on_c, 3, 74, 110
17, 64520, Note_off_c, 3, 74, 64
17, 64560, Note_on_c, 3, 73, 90
17, 64760, Note_off_c, 3, 73, 64
17, 64800, Note_on_c, 3, 71, 90
17, 65000, Note_off_c, 3, 71, 64
17, 65040, Note_on_c, 3, 73, 110
17, 65480, Note_off_c, 3, 73, 64
17, 65520, Note_on_c, 3, 71, 90
17, 65720, Note_off_c, 3, 71, 64
17, 65760, Note_on_c, 3, 69, 90
17, 65960, Note_off_c, 3, 69, 64
17, 66000, Note_on_c, 3, 71, 110
17, 66440, Note_off_c, 3, 71, 64
17, 66480, Note_on_c, 3, 69, 90
17, 66680, Note_off_c, 3, 69, 64
17, 66720, Note_on_c, 3, 67, 90
17, 66920, Note_off_c, 3, 67, 64
17, 66960, Note_on_c, 3, 69, 90
17, 67800, Note_off_c, 3, 69, 64
17, 69120, Note_on_c, 3, 67, 110
17, 69350, Note_off_c, 3, 67, 64
17, 69360, Note_on_c, 3, 69, 90
17, 69590, Note_off_c, 3, 69, 64
17, 69600, Note_on_c, 3, 71, 90
17, 69830, Note_off_c, 3, 71, 64
17, 69840, Note_on_c, 3, 72, 100
17, 70310, Note_off_c, 3, 72, 64
17, 70320, Note_on_c, 3, 71, 80
17, 70720, Note_off_c, 3, 71, 64
17, 71040, Note_on_c, 3, 69, 110
17, 71440, Note_off_c, 3, 69, 64
17, 71520, Note_on_c, 3, 67, 90
17, 71740, Note_off_c, 3, 67, 64
17, 71760, Note_on_c, 3, 69, 110
17, 72360, Note_off_c, 3, 69, 64
17, 72480, Note_on_c, 3, 71, 90
17, 72700, Note_off_c, 3, 71, 64
17, 72720, Note_on_c, 3, 67, 110
17, 73180, Note_off_c, 3, 67, 64
17, 73200, Note_on_c, 3, 64, 90
17, 73900, Note_off_c, 3, 64, 64
17, 74400, Note_on_c, 3, 64, 110
17, 74620, Note_off_c, 3, 64, 64
17, 74640, Note_on_c, 3, 76, 110
17, 75340, Note_off_c, 3, 76, 64
17, 75360, Note_on_c, 3, 71, 90
17, 75580, Note_off_c, 3, 71, 64
17, 75600, Note_on_c, 3, 69, 100
17, 76060, Note_off_c, 3, 69, 64
17, 76080, Note_on_c, 3, 67, 90
17, 76540, Note_off_c, 3, 67, 64
17, 76560, Note_on_c, 3, 64, 80
17, 76960, Note_off_c, 3, 64, 64
17, 78720, Note_on_c, 3, 67, 100
17, 79020, Note_off_c, 3, 67, 64
17, 79200, Note_on_c, 3, 67, 110
17, 79420, Note_off_c, 3, 67, 64
17, 79440, Note_on_c, 3, 69, 110
17, 80040, Note_off_c, 3, 69, 64
17, 80160, Note_on_c, 3, 71, 100
17, 80380, Note_off_c, 3, 71, 64
17, 80400, Note_on_c, 3, 67, 90
17, 80860, Note_off_c, 3, 67, 64
17, 80880, Note_on_c, 3, 64, 90
17, 81580, Note_off_c, 3, 64, 64
17, 82080, Note_on_c, 3, 64, 110
17, 82320, Note_off_c, 3, 64, 64
17, 82320, Note_on_c, 3, 79, 100
17, 83020, Note_off_c, 3, 79, 64
17, 83040, Note_on_c, 3, 76, 90
17, 83260, Note_off_c, 3, 76, 64
17, 83280, Note_on_c, 3, 71, 90
17, 83500, Note_off_c, 3, 71, 64
17, 83520, Note_on_c, 3, 67, 90
17, 83740, Note_off_c, 3, 67, 64
17, 83760, Note_on_c, 3, 69, 110
17, 84220, Note_off_c, 3, 69, 64
17, 84240, Note_on_c, 3, 67, 90
17, 85080, Note_off_c, 3, 67, 64
17, 85920, Program_c, 3, 70
17, 86400, Control_c, 3, 7, 100
17, 86400, Note_on_c, 3, 72, 90
17, 86400, Note_on_c, 3, 76, 90
17, 86640, Control_c, 3, 7, 105
17, 86880, Control_c, 3, 7, 110
17, 87120, Control_c, 3, 7, 115
17, 87360, Control_c, 3, 7, 120
17, 87580, Note_off_c, 3, 76, 64
17, 87580, Note_off_c, 3, 72, 64
17, 87600, Note_on_c, 3, 74, 90
17, 87600, Note_on_c, 3, 78, 90
17, 87820, Note_off_c, 3, 78, 64
17, 87820, Note_off_c, 3, 74, 64
17, 87840, Note_on_c, 3, 76, 90
17, 87840, Note_on_c, 3, 79, 90
17, 88060, Note_off_c, 3, 79, 64
17, 88060, Note_off_c, 3, 76, 64
17, 88080, Note_on_c, 3, 81, 100
17, 88080, Note_on_c, 3, 78, 100
17, 88540, Note_off_c, 3, 78, 64
17, 88540, Note_off_c, 3, 81, 64
17, 88560, Note_on_c, 3, 76, 100
17, 88560, Note_on_c, 3, 79, 100
17, 89020, Note_off_c, 3, 79, 64
17, 89020, Note_off_c, 3, 76, 64
17, 89040, Note_on_c, 3, 74, 110
17, 89040, Note_on_c, 3, 78, 110
17, 89500, Note_off_c, 3, 78, 64
17, 89500, Note_off_c, 3, 74, 64
17, 89520, Note_on_c, 3, 72, 100
17, 89520, Note_on_c, 3, 76, 100
17, 89980, Note_off_c, 3, 76, 64
17, 89980, Note_off_c, 3, 72, 64
17, 90000, Note_on_c, 3, 67, 90
17, 90000, Note_on_c, 3, 71, 90
17, 90220, Note_off_c, 3, 71, 64
17, 90220, Note_off_c, 3, 67, 64
17, 90240, Note_on_c, 3, 66, 80
17, 90240, Note_on_c, 3, 69, 80
17, 90440, Note_off_c, 3, 69, 64
17, 90440, Note_off_c, 3, 66, 64
17, 90480, Note_on_c, 3, 64, 90
17, 90480, Note_on_c, 3, 67, 90
17, 91280, Note_off_c, 3, 67, 64
17, 91280, Note_off_c, 3, 64, 64
17, 94080, Control_c, 3, 7, 100
17, 94080, Note_on_c, 3, 72, 100
17, 94080, Note_on_c, 3, 76, 100
17, 94180, Control_c, 3, 7, 110
17, 94280, Control_c, 3, 7, 100
17, 94380, Control_c, 3, 7, 90
17, 94480, Control_c, 3, 7, 100
17, 94580, Control_c, 3, 7, 110
17, 94680, Control_c, 3, 7, 120
17, 95260, Note_off_c, 3, 76, 64
17, 95260, Note_off_c, 3, 72, 64
17, 95280, Note_on_c, 3, 74, 90
17, 95280, Note_on_c, 3, 78, 90
17, 95500, Note_off_c, 3, 78, 64
17, 95500, Note_off_c, 3, 74, 64
17, 95520, Note_on_c, 3, 76, 90
17, 95520, Note_on_c, 3, 79, 90
17, 95740, Note_off_c, 3, 79, 64
17, 95740, Note_off_c, 3, 76, 64
17, 95760, Note_on_c, 3, 81, 100
17, 95760, Note_on_c, 3, 78, 100
17, 96220, Note_off_c, 3, 78, 64
17, 96220, Note_off_c, 3, 81, 64
17, 96240, Note_on_c, 3, 76, 100
17, 96240, Note_on_c, 3, 79, 100
17, 96700, Note_off_c, 3, 79, 64
17, 96700, Note_off_c, 3, 76, 64
17, 96720, Note_on_c, 3, 74, 110
17, 96720, Note_on_c, 3, 78, 110
17, 97180, Note_off_c, 3, 78, 64
17, 97180, Note_off_c, 3, 74, 64
17, 97200, Note_on_c, 3, 72, 100
17, 97200, Note_on_c, 3, 76, 100
17, 97660, Note_off_c, 3, 76, 64
17, 97660, Note_off_c, 3, 72, 64
17, 97680, Note_on_c, 3, 67, 90
17, 97680, Note_on_c, 3, 71, 90
17, 97900, Note_off_c, 3, 71, 64
17, 97900, Note_off_c, 3, 67, 64
17, 97920, Note_on_c, 3, 66, 80
17, 97920, Note_on_c, 3, 69, 80
17, 98120, Note_off_c, 3, 69, 64
17, 98120, Note_off_c, 3, 66, 64
17, 98160, Note_on_c, 3, 64, 90
17, 98160, Note_on_c, 3, 67, 90
17, 98560, Note_off_c, 3, 67, 64
17, 98560, Note_off_c, 3, 64, 64
17, 101760, Control_c, 3, 11, 120
17, 101760, Program_c, 3, 75
17, 101760, Note_on_c, 3, 69, 120
17, 101960, Note_off_c, 3, 69, 64
17, 102000, Note_on_c, 3, 69, 90
17, 102200, Note_off_c, 3, 69, 64
17, 102240, Note_on_c, 3, 71, 110
17, 102440, Note_off_c, 3, 71, 64
17, 102480, Note_on_c, 3, 67, 110
17, 102920, Note_off_c, 3, 67, 64
17, 102960, Note_on_c, 3, 64, 90
17, 103360, Note_off_c, 3, 64, 64
17, 103680, Note_on_c, 3, 67, 110
17, 103880, Note_off_c, 3, 67, 64
17, 103920, Note_on_c, 3, 69, 90
17, 104120, Note_off_c, 3, 69, 64
17, 104160, Note_on_c, 3, 71, 90
17, 104360, Note_off_c, 3, 71, 64
17, 104400, Note_on_c, 3, 74, 110
17, 104840, Note_off_c, 3, 74, 64
17, 104880, Note_on_c, 3, 73, 90
17, 105080, Note_off_c, 3, 73, 64
17, 105120, Note_on_c, 3, 71, 90
17, 105320, Note_off_c, 3, 71, 64
17, 105360, Note_on_c, 3, 73, 110
17, 105800, Note_off_c, 3, 73, 64
17, 105840, Note_on_c, 3, 71, 90
17, 106040, Note_off_c, 3, 71, 64
17, 106080, Note_on_c, 3, 69, 90
17, 106280, Note_off_c, 3, 69, 64
17, 106320, Note_on_c, 3, 71, 110
17, 106760, Note_off_c, 3, 71, 64
17, 106800, Note_on_c, 3, 69, 90
17, 107000, Note_off_c, 3, 69, 64
17, 107040, Note_on_c, 3, 67, 90
17, 107240, Note_off_c, 3, 67, 64
17, 107280, Note_on_c, 3, 69, 90
17, 108120, Note_off_c, 3, 69, 64
17, 109440, Note_on_c, 3, 67, 110
17, 109670, Note_off_c, 3, 67, 64
17, 109680, Note_on_c, 3, 69, 90
17, 109910, Note_off_c, 3, 69, 64
17, 109920, Note_on_c, 3, 71, 90
17, 110150, Note_off_c, 3, 71, 64
17, 110160, Note_on_c, 3, 72, 100
17, 110630, Note_off_c, 3, 72, 64
17, 110640, Note_on_c, 3, 71, 80
17, 111040, Note_off_c, 3, 71, 64
17, 111360, Note_on_c, 3, 69, 120
17, 111560, Note_off_c, 3, 69, 64
17, 111600, Note_on_c, 3, 69, 90
17, 111800, Note_off_c, 3, 69, 64
17, 111840, Note_on_c, 3, 71, 110
17, 112040, Note_off_c, 3, 71, 64
17, 112080, Note_on_c, 3, 67, 110
17, 112520, Note_off_c, 3, 67, 64
17, 112560, Note_on_c, 3, 64, 90
17, 112960, Note_off_c, 3, 64, 64
17, 113280, Note_on_c, 3, 67, 110
17, 113480, Note_off_c, 3, 67, 64
17, 113520, Note_on_c, 3, 69, 90
17, 113720, Note_off_c, 3, 69, 64
17, 113760, Note_on_c, 3, 71, 90
17, 113960, Note_off_c, 3, 71, 64
17, 114000, Note_on_c, 3, 74, 110
17, 114440, Note_off_c, 3, 74, 64
17, 114480, Note_on_c, 3, 73, 90
17, 114680, Note_off_c, 3, 73, 64
17, 114720, Note_on_c, 3, 71, 90
17, 114920, Note_off_c, 3, 71, 64
17, 114960, Note_on_c, 3, 73, 110
17, 115400, Note_off_c, 3, 73, 64
17, 115440, Note_on_c, 3, 71, 90
17, 115640, Note_off_c, 3, 71, 64
17, 115680, Note_on_c, 3, 69, 90
17, 115880, Note_off_c, 3, 69, 64
17, 115920, Note_on_c, 3, 71, 110
17, 116360, Note_off_c, 3, 71, 64
17, 116400, Note_on_c, 3, 69, 90
17, 116600, Note_off_c, 3, 69, 64
17, 116640, Note_on_c, 3, 67, 90
17, 116840, Note_off_c, 3, 67, 64
17, 116880, Note_on_c, 3, 69, 90
17, 117720, Note_off_c, 3, 69, 64
17, 119040, Note_on_c, 3, 67, 110
17, 119270, Note_off_c, 3, 67, 64
17, 119280, Note_on_c, 3, 69, 90
17, 119510, Note_off_c, 3, 69, 64
17, 119520, Note_on_c, 3, 71, 90
17, 119750, Note_off_c, 3, 71, 64
17, 119760, Note_on_c, 3, 72, 100
17, 120230, Note_off_c, 3, 72, 64
17, 120240, Note_on_c, 3, 71, 80
17, 120640, Note_off_c, 3, 71, 64
17, 120960, Program_c, 3, 73
17, 120960, Note_on_c, 3, 81, 90
17, 121360, Note_off_c, 3, 81, 64
17, 121440, Note_on_c, 3, 79, 90
17, 121660, Note_off_c, 3, 79, 64
17, 121680, Note_on_c, 3, 81, 90
17, 122280, Note_off_c, 3, 81, 64
17, 122400, Note_on_c, 3, 83, 90
17, 122620, Note_off_c, 3, 83, 64
17, 122640, Note_on_c, 3, 79, 90
17, 123100, Note_off_c, 3, 79, 64
17, 123120, Note_on_c, 3, 76, 90
17, 123820, Note_off_c, 3, 76, 64
17, 124320, Note_on_c, 3, 76, 90
17, 124540, Note_off_c, 3, 76, 64
17, 124560, Note_on_c, 3, 88, 90
17, 125260, Note_off_c, 3, 88, 64
17, 125280, Note_on_c, 3, 83, 90
17, 125500, Note_off_c, 3, 83, 64
17, 125520, Note_on_c, 3, 81, 90
17, 125980, Note_off_c, 3, 81, 64
17, 126000, Note_on_c, 3, 79, 90
17, 126460, Note_off_c, 3, 79, 64
17, 126480, Note_on_c, 3, 76, 90
17, 126880, Note_off_c, 3, 76, 64
17, 128640, Note_on_c, 3, 79, 90
17, 128940, Note_off_c, 3, 79, 64
17, 129120, Note_on_c, 3, 79, 90
17, 129340, Note_off_c, 3, 79, 64
17, 129360, Note_on_c, 3, 81, 90
17, 129960, Note_off_c, 3, 81, 64
17, 130080, Note_on_c, 3, 83, 90
17, 130300, Note_off_c, 3, 83, 64
17, 130320, Note_on_c, 3, 79, 90
17, 130780, Note_off_c, 3, 79, 64
17, 130800, Note_on_c, 3, 76, 90
17, 131500, Note_off_c, 3, 76, 64
17, 132000, Note_on_c, 3, 76, 90
17, 132240, Note_off_c, 3, 76, 64
17, 132240, Note_on_c, 3, 91, 90
17, 132940, Note_off_c, 3, 91, 64
17, 132960, Note_on_c, 3, 88, 90
17, 133180, Note_off_c, 3, 88, 64
17, 133200, Note_on_c, 3, 83, 90
17, 133420, Note_off_c, 3, 83, 64
17, 133440, Note_on_c, 3, 79, 90
17, 133660, Note_off_c, 3, 79, 64
17, 133680, Note_on_c, 3, 81, 90
17, 134140, Note_off_c, 3, 81, 64
17, 134160, Note_on_c, 3, 79, 90
17, 134870, Note_off_c, 3, 79, 64
17, 134880, Note_on_c, 3, 76, 90
17, 135350, Note_off_c, 3, 76, 64
17, 135360, Note_on_c, 3, 71, 90
17, 135830, Note_off_c, 3, 71, 64
17, 135840, Note_on_c, 3, 69, 90
17, 136310, Note_off_c, 3, 69, 64
17, 136320, Note_on_c, 3, 67, 90
17, 138220, Note_off_c, 3, 67, 64
17, 138240, Control_c, 3, 11, 127
17, 138360, Control_c, 3, 64, 0
17, 138600, Pitch_bend_c, 3, 8192
17, 138720, Control_c, 3, 91, 40
17, 138960, Control_c, 3, 1, 0
17, 139200, Control_c, 3, 93, 0
17, 139440, Control_c, 3, 7, 100
17, 139800, Control_c, 3, 10, 64
17, 139800, End_track
18, 0, Start_track
18, 0, Title_t, "violin              "
18, 0, MIDI_port, 0
18, 0, Channel_prefix, 4
18, 0, Control_c, 4, 7, 103
18, 0, Control_c, 4, 10, 96
18, 0, Program_c, 4, 40
18, 0, Pitch_bend_c, 4, 8312
18, 0, Control_c, 4, 1, 20
18, 0, Control_c, 4, 11, 120
18, 0, Control_c, 4, 64, 0
18, 480, Control_c, 4, 91, 64
18, 480, Control_c, 4, 93, 0
18, 34560, Control_c, 4, 7, 0
18, 34620, Control_c, 4, 7, 5
18, 34680, Control_c, 4, 7, 10
18, 34740, Control_c, 4, 7, 15
18, 34800, Control_c, 4, 7, 20
18, 34860, Control_c, 4, 7, 25
18, 34920, Control_c, 4, 7, 30
18, 34980, Control_c, 4, 7, 35
18, 35040, Control_c, 4, 7, 40
18, 35100, Control_c, 4, 7, 45
18, 35160, Control_c, 4, 7, 50
18, 36300, Control_c, 4, 7, 50
18, 36300, Note_on_c, 4, 62, 100
18, 36330, Control_c, 4, 7, 60
18, 36360, Control_c, 4, 7, 70
18, 36390, Control_c, 4, 7, 80
18, 36420, Control_c, 4, 7, 90
18, 36450, Control_c, 4, 7, 100
18, 36460, Note_off_c, 4, 62, 64
18, 36480, Control_c, 4, 7, 120
18, 36480, Note_on_c, 4, 62, 100
18, 38380, Note_off_c, 4, 62, 64
18, 38400, Note_on_c, 4, 61, 100
18, 40300, Note_off_c, 4, 61, 64
18, 40320, Note_on_c, 4, 60, 90
18, 42220, Note_off_c, 4, 60, 64
18, 42240, Note_on_c, 4, 59, 90
18, 44140, Note_off_c, 4, 59, 64
18, 44160, Note_on_c, 4, 62, 100
18, 46060, Note_off_c, 4, 62, 64
18, 46080, Note_on_c, 4, 61, 100
18, 47980, Note_off_c, 4, 61, 64
18, 48000, Note_on_c, 4, 60, 90
18, 49900, Note_off_c, 4, 60, 64
18, 49920, Note_on_c, 4, 59, 90
18, 51820, Note_off_c, 4, 59, 64
18, 62640, Control_c, 4, 7, 120
18, 62640, Note_on_c, 4, 59, 100
18, 62880, Note_on_c, 4, 64, 90
18, 62900, Note_off_c, 4, 59, 64
18, 63110, Note_off_c, 4, 64, 64
18, 63120, Note_on_c, 4, 66, 80
18, 63350, Note_off_c, 4, 66, 64
18, 63360, Note_on_c, 4, 67, 90
18, 63840, Note_off_c, 4, 67, 64
18, 64080, Note_on_c, 4, 66, 90
18, 64800, Note_off_c, 4, 66, 64
18, 65040, Note_on_c, 4, 64, 80
18, 65760, Note_off_c, 4, 64, 64
18, 66000, Note_on_c, 4, 62, 90
18, 66720, Note_off_c, 4, 62, 64
18, 66960, Note_on_c, 4, 64, 80
18, 67180, Note_off_c, 4, 64, 64
18, 67200, Note_on_c, 4, 64, 80
18, 69100, Note_off_c, 4, 64, 64
18, 69120, Control_c, 4, 7, 110
18, 69120, Note_on_c, 4, 64, 100
18, 69350, Note_off_c, 4, 64, 64
18, 69360, Note_on_c, 4, 66, 90
18, 69590, Note_off_c, 4, 66, 64
18, 69600, Note_on_c, 4, 67, 90
18, 70800, Note_off_c, 4, 67, 64
18, 70860, Control_c, 4, 7, 50
18, 70860, Note_on_c, 4, 62, 100
18, 70890, Control_c, 4, 7, 60
18, 70920, Control_c, 4, 7, 70
18, 70950, Control_c, 4, 7, 80
18, 70980, Control_c, 4, 7, 90
18, 71010, Control_c, 4, 7, 100
18, 71020, Note_off_c, 4, 62, 64
18, 71040, Control_c, 4, 7, 120
18, 71040, Note_on_c, 4, 62, 100
18, 72940, Note_off_c, 4, 62, 64
18, 72960, Note_on_c, 4, 61, 100
18, 74860, Note_off_c, 4, 61, 64
18, 74880, Note_on_c, 4, 60, 90
18, 76780, Note_off_c, 4, 60, 64
18, 76800, Note_on_c, 4, 59, 90
18, 78700, Note_off_c, 4, 59, 64
18, 78720, Note_on_c, 4, 62, 100
18, 80620, Note_off_c, 4, 62, 64
18, 80640, Note_on_c, 4, 61, 100
18, 82540, Note_off_c, 4, 61, 64
18, 82560, Note_on_c, 4, 60, 90
18, 84460, Note_off_c, 4, 60, 64
18, 84480, Note_on_c, 4, 59, 90
18, 86380, Note_off_c, 4, 59, 64
18, 104400, Control_c, 4, 7, 110
18, 104400, Note_on_c, 4, 71, 90
18, 105340, Note_off_c, 4, 71, 64
18, 105360, Note_on_c, 4, 69, 90
18, 106300, Note_off_c, 4, 69, 64
18, 106320, Note_on_c, 4, 67, 90
18, 107260, Note_off_c, 4, 67, 64
18, 107280, Note_on_c, 4, 60, 90
18, 107500, Note_off_c, 4, 60, 64
18, 107520, Note_on_c, 4, 60, 90
18, 109420, Note_off_c, 4, 60, 64
18, 109440, Note_on_c, 4, 60, 90
18, 110380, Note_off_c, 4, 60, 64
18, 110400, Note_on_c, 4, 64, 90
18, 111340, Note_off_c, 4, 64, 64
18, 112560, Control_c, 4, 7, 120
18, 112560, Note_on_c, 4, 59, 100
18, 112800, Note_on_c, 4, 64, 90
18, 112820, Note_off_c, 4, 59, 64
18, 113030, Note_off_c, 4, 64, 64
18, 113040, Note_on_c, 4, 66, 80
18, 113270, Note_off_c, 4, 66, 64
18, 113280, Note_on_c, 4, 67, 90
18, 113760, Note_off_c, 4, 67, 64
18, 114000, Note_on_c, 4, 66, 90
18, 114720, Note_off_c, 4, 66, 64
18, 114960, Note_on_c, 4, 64, 80
18, 115680, Note_off_c, 4, 64, 64
18, 115920, Note_on_c, 4, 62, 90
18, 116640, Note_off_c, 4, 62, 64
18, 116880, Note_on_c, 4, 64, 80
18, 117100, Note_off_c, 4, 64, 64
18, 117120, Note_on_c, 4, 64, 80
18, 119020, Note_off_c, 4, 64, 64
18, 119040, Control_c, 4, 7, 110
18, 119040, Note_on_c, 4, 64, 100
18, 119270, Note_off_c, 4, 64, 64
18, 119280, Note_on_c, 4, 66, 90
18, 119510, Note_off_c, 4, 66, 64
18, 119520, Note_on_c, 4, 67, 90
18, 120720, Note_off_c, 4, 67, 64
18, 120780, Control_c, 4, 7, 50
18, 120780, Note_on_c, 4, 62, 100
18, 120810, Control_c, 4, 7, 60
18, 120840, Control_c, 4, 7, 70
18, 120870, Control_c, 4, 7, 80
18, 120900, Control_c, 4, 7, 90
18, 120930, Control_c, 4, 7, 100
18, 120940, Note_off_c, 4, 62, 64
18, 120960, Control_c, 4, 7, 120
18, 120960, Note_on_c, 4, 62, 100
18, 122860, Note_off_c, 4, 62, 64
18, 122880, Note_on_c, 4, 61, 100
18, 124780, Note_off_c, 4, 61, 64
18, 124800, Note_on_c, 4, 60, 90
18, 126700, Note_off_c, 4, 60, 64
18, 126720, Note_on_c, 4, 59, 90
18, 128620, Note_off_c, 4, 59, 64
18, 128640, Note_on_c, 4, 62, 100
18, 130540, Note_off_c, 4, 62, 64
18, 130560, Note_on_c, 4, 61, 100
18, 132460, Note_off_c, 4, 61, 64
18, 132480, Note_on_c, 4, 60, 90
18, 134380, Note_off_c, 4, 60, 64
18, 134400, Note_on_c, 4, 71, 90
18, 134700, Note_off_c, 4, 71, 64
18, 134880, Note_on_c, 4, 71, 90
18, 135180, Note_off_c, 4, 71, 64
18, 135360, Note_on_c, 4, 67, 90
18, 135820, Note_off_c, 4, 67, 64
18, 135840, Note_on_c, 4, 66, 90
18, 136300, Note_off_c, 4, 66, 64
18, 136320, Note_on_c, 4, 64, 80
18, 138220, Note_off_c, 4, 64, 64
18, 138240, Control_c, 4, 11, 127
18, 138360, Control_c, 4, 64, 0
18, 138600, Pitch_bend_c, 4, 8192
18, 138720, Control_c, 4, 91, 40
18, 138960, Control_c, 4, 1, 0
18, 139200, Control_c, 4, 93, 0
18, 139440, Control_c, 4, 7, 100
18, 139800, Control_c, 4, 10, 64
18, 139800, End_track
19, 0, Start_track
19, 0, Title_t, "violin              "
19, 0, MIDI_port, 0
19, 0, Channel_prefix, 5
19, 0, Control_c, 5, 7, 80
19, 0, Control_c, 5, 10, 112
19, 0, Program_c, 5, 40
19, 0, Pitch_bend_c, 5, 8312
19, 0, Control_c, 5, 1, 20
19, 0, Control_c, 5, 11, 120
19, 0, Control_c, 5, 64, 0
19, 480, Control_c, 5, 91, 64
19, 960, Control_c, 5, 93, 0
19, 1920, Note_on_c, 5, 67, 110
19, 3820, Note_off_c, 5, 67, 64
19, 3840, Note_on_c, 5, 67, 110
19, 5740, Note_off_c, 5, 67, 64
19, 5760, Control_c, 5, 7, 85
19, 5760, Note_on_c, 5, 67, 110
19, 5900, Control_c, 5, 7, 90
19, 6050, Control_c, 5, 7, 95
19, 6200, Control_c, 5, 7, 100
19, 6350, Control_c, 5, 7, 105
19, 6500, Control_c, 5, 7, 110
19, 6650, Control_c, 5, 7, 115
19, 6800, Control_c, 5, 7, 120
19, 7180, Note_off_c, 5, 67, 64
19, 7200, Note_on_c, 5, 69, 110
19, 7400, Note_off_c, 5, 69, 64
19, 7440, Note_on_c, 5, 71, 100
19, 7600, Note_off_c, 5, 71, 64
19, 7680, Note_on_c, 5, 67, 110
19, 7880, Note_off_c, 5, 67, 64
19, 7920, Note_on_c, 5, 71, 100
19, 8080, Note_off_c, 5, 71, 64
19, 8160, Note_on_c, 5, 66, 90
19, 8320, Note_off_c, 5, 66, 64
19, 8400, Note_on_c, 5, 71, 80
19, 8560, Note_off_c, 5, 71, 64
19, 8640, Note_on_c, 5, 67, 90
19, 8840, Note_off_c, 5, 67, 64
19, 8880, Note_on_c, 5, 71, 80
19, 9040, Note_off_c, 5, 71, 64
19, 9120, Note_on_c, 5, 64, 70
19, 9280, Note_off_c, 5, 64, 64
19, 9360, Note_on_c, 5, 71, 60
19, 9520, Note_off_c, 5, 71, 64
19, 9600, Control_c, 5, 7, 80
19, 9600, Note_on_c, 5, 67, 110
19, 11500, Note_off_c, 5, 67, 64
19, 11520, Note_on_c, 5, 67, 110
19, 13420, Note_off_c, 5, 67, 64
19, 13440, Control_c, 5, 7, 85
19, 13440, Note_on_c, 5, 67, 110
19, 13580, Control_c, 5, 7, 90
19, 13730, Control_c, 5, 7, 95
19, 13880, Control_c, 5, 7, 100
19, 14030, Control_c, 5, 7, 105
19, 14180, Control_c, 5, 7, 110
19, 14330, Control_c, 5, 7, 115
19, 14480, Control_c, 5, 7, 120
19, 14860, Note_off_c, 5, 67, 64
19, 14880, Note_on_c, 5, 69, 110
19, 15080, Note_off_c, 5, 69, 64
19, 15120, Note_on_c, 5, 71, 100
19, 15280, Note_off_c, 5, 71, 64
19, 15360, Note_on_c, 5, 67, 110
19, 15560, Note_off_c, 5, 67, 64
19, 15600, Note_on_c, 5, 71, 100
19, 15760, Note_off_c, 5, 71, 64
19, 15840, Note_on_c, 5, 66, 90
19, 16000, Note_off_c, 5, 66, 64
19, 16080, Note_on_c, 5, 71, 80
19, 16240, Note_off_c, 5, 71, 64
19, 16320, Note_on_c, 5, 67, 90
19, 16520, Note_off_c, 5, 67, 64
19, 16560, Note_on_c, 5, 71, 80
19, 16720, Note_off_c, 5, 71, 64
19, 16800, Note_on_c, 5, 64, 70
19, 16960, Note_off_c, 5, 64, 64
19, 17040, Note_on_c, 5, 71, 60
19, 17200, Note_off_c, 5, 71, 64
19, 49680, Control_c, 5, 7, 110
19, 49680, Note_on_c, 5, 71, 100
19, 49880, Note_off_c, 5, 71, 64
19, 49920, Control_c, 5, 7, 90
19, 49920, Note_on_c, 5, 79, 90
19, 50000, Control_c, 5, 7, 100
19, 50080, Control_c, 5, 7, 110
19, 50160, Control_c, 5, 7, 100
19, 50240, Control_c, 5, 7, 90
19, 50320, Control_c, 5, 7, 80
19, 50380, Note_off_c, 5, 79, 64
19, 50400, Control_c, 5, 7, 110
19, 50400, Note_on_c, 5, 76, 80
19, 50620, Note_off_c, 5, 76, 64
19, 50640, Note_on_c, 5, 71, 80
19, 51100, Note_off_c, 5, 71, 64
19, 51120, Note_on_c, 5, 69, 70
19, 51580, Note_off_c, 5, 69, 64
19, 51600, Note_on_c, 5, 67, 70
19, 51720, Control_c, 5, 7, 80
19, 51760, Control_c, 5, 7, 90
19, 51800, Control_c, 5, 7, 100
19, 51820, Note_off_c, 5, 67, 64
19, 51840, Control_c, 5, 7, 110
19, 51840, Note_on_c, 5, 67, 60
19, 52240, Control_c, 5, 7, 100
19, 52440, Control_c, 5, 7, 90
19, 52640, Control_c, 5, 7, 80
19, 52840, Control_c, 5, 7, 70
19, 53760, Note_off_c, 5, 67, 64
19, 76642, Control_c, 5, 7, 60
19, 76642, Note_on_c, 5, 76, 80
19, 76672, Control_c, 5, 7, 80
19, 76702, Control_c, 5, 7, 90
19, 76732, Control_c, 5, 7, 110
19, 77242, Note_off_c, 5, 76, 64
19, 77242, Note_on_c, 5, 78, 70
19, 77722, Note_off_c, 5, 78, 64
19, 77722, Note_on_c, 5, 79, 70
19, 78202, Note_off_c, 5, 79, 64
19, 78202, Note_on_c, 5, 81, 60
19, 78682, Note_off_c, 5, 81, 64
19, 78682, Note_on_c, 5, 83, 60
19, 80202, Control_c, 5, 7, 100
19, 80402, Control_c, 5, 7, 90
19, 80582, Note_off_c, 5, 83, 64
19, 80602, Control_c, 5, 7, 80
19, 80602, Note_on_c, 5, 83, 60
19, 80702, Control_c, 5, 7, 70
19, 80802, Control_c, 5, 7, 60
19, 80902, Control_c, 5, 7, 50
19, 81002, Control_c, 5, 7, 40
19, 81202, Note_off_c, 5, 83, 64
19, 84202, Control_c, 5, 7, 110
19, 84202, Note_on_c, 5, 71, 100
19, 84402, Note_off_c, 5, 71, 64
19, 84442, Control_c, 5, 7, 90
19, 84442, Note_on_c, 5, 79, 90
19, 84522, Control_c, 5, 7, 100
19, 84602, Control_c, 5, 7, 110
19, 84682, Control_c, 5, 7, 100
19, 84762, Control_c, 5, 7, 90
19, 84842, Control_c, 5, 7, 80
19, 84902, Note_off_c, 5, 79, 64
19, 84922, Control_c, 5, 7, 110
19, 84922, Note_on_c, 5, 76, 80
19, 85142, Note_off_c, 5, 76, 64
19, 85162, Note_on_c, 5, 71, 80
19, 85622, Note_off_c, 5, 71, 64
19, 85642, Note_on_c, 5, 69, 70
19, 86102, Note_off_c, 5, 69, 64
19, 86122, Note_on_c, 5, 67, 70
19, 86342, Note_off_c, 5, 67, 64
19, 86362, Control_c, 5, 7, 80
19, 86362, Note_on_c, 5, 67, 110
19, 88262, Note_off_c, 5, 67, 64
19, 88282, Note_on_c, 5, 67, 110
19, 90182, Note_off_c, 5, 67, 64
19, 90202, Control_c, 5, 7, 85
19, 90202, Note_on_c, 5, 67, 110
19, 90342, Control_c, 5, 7, 90
19, 90492, Control_c, 5, 7, 95
19, 90642, Control_c, 5, 7, 100
19, 90792, Control_c, 5, 7, 105
19, 90942, Control_c, 5, 7, 110
19, 91092, Control_c, 5, 7, 115
19, 91242, Control_c, 5, 7, 120
19, 91622, Note_off_c, 5, 67, 64
19, 91642, Note_on_c, 5, 69, 110
19, 91842, Note_off_c, 5, 69, 64
19, 91882, Note_on_c, 5, 71, 100
19, 92042, Note_off_c, 5, 71, 64
19, 92122, Note_on_c, 5, 67, 110
19, 92322, Note_off_c, 5, 67, 64
19, 92362, Note_on_c, 5, 71, 100
19, 92522, Note_off_c, 5, 71, 64
19, 92602, Note_on_c, 5, 66, 90
19, 92762, Note_off_c, 5, 66, 64
19, 92842, Note_on_c, 5, 71, 80
19, 93002, Note_off_c, 5, 71, 64
19, 93082, Note_on_c, 5, 67, 90
19, 93282, Note_off_c, 5, 67, 64
19, 93322, Note_on_c, 5, 71, 80
19, 93482, Note_off_c, 5, 71, 64
19, 93562, Note_on_c, 5, 64, 70
19, 93722, Note_off_c, 5, 64, 64
19, 93802, Note_on_c, 5, 71, 60
19, 93962, Note_off_c, 5, 71, 64
19, 94042, Control_c, 5, 7, 80
19, 94042, Note_on_c, 5, 67, 110
19, 95942, Note_off_c, 5, 67, 64
19, 95962, Note_on_c, 5, 67, 110
19, 97862, Note_off_c, 5, 67, 64
19, 97882, Control_c, 5, 7, 85
19, 97882, Note_on_c, 5, 67, 110
19, 98022, Control_c, 5, 7, 90
19, 98172, Control_c, 5, 7, 95
19, 98322, Control_c, 5, 7, 100
19, 98472, Control_c, 5, 7, 105
19, 98622, Control_c, 5, 7, 110
19, 98772, Control_c, 5, 7, 115
19, 98922, Control_c, 5, 7, 120
19, 99302, Note_off_c, 5, 67, 64
19, 99322, Note_on_c, 5, 69, 110
19, 99522, Note_off_c, 5, 69, 64
19, 99562, Note_on_c, 5, 71, 100
19, 99722, Note_off_c, 5, 71, 64
19, 99802, Note_on_c, 5, 67, 110
19, 100002, Note_off_c, 5, 67, 64
19, 100042, Note_on_c, 5, 71, 100
19, 100202, Note_off_c, 5, 71, 64
19, 100282, Note_on_c, 5, 66, 90
19, 100442, Note_off_c, 5, 66, 64
19, 100522, Note_on_c, 5, 71, 80
19, 100682, Note_off_c, 5, 71, 64
19, 100762, Note_on_c, 5, 67, 90
19, 100962, Note_off_c, 5, 67, 64
19, 101002, Note_on_c, 5, 71, 80
19, 101162, Note_off_c, 5, 71, 64
19, 101242, Note_on_c, 5, 64, 70
19, 101402, Note_off_c, 5, 64, 64
19, 101482, Note_on_c, 5, 71, 60
19, 101642, Note_off_c, 5, 71, 64
19, 101722, Control_c, 5, 7, 110
19, 101722, Note_on_c, 5, 76, 80
19, 102122, Control_c, 5, 7, 100
19, 102322, Control_c, 5, 7, 90
19, 102522, Control_c, 5, 7, 80
19, 102722, Control_c, 5, 7, 70
19, 103622, Note_off_c, 5, 76, 64
19, 103642, Control_c, 5, 7, 80
19, 103642, Note_on_c, 5, 76, 80
19, 104122, Control_c, 5, 7, 90
19, 104602, Control_c, 5, 7, 100
19, 105082, Control_c, 5, 7, 110
19, 105562, Note_off_c, 5, 76, 64
19, 107482, Note_on_c, 5, 76, 80
19, 109382, Note_off_c, 5, 76, 64
19, 109402, Note_on_c, 5, 76, 80
19, 111302, Note_off_c, 5, 76, 64
19, 111322, Note_on_c, 5, 76, 80
19, 111522, Note_off_c, 5, 76, 64
19, 111802, Note_on_c, 5, 76, 70
19, 112002, Note_off_c, 5, 76, 64
19, 112282, Note_on_c, 5, 76, 60
19, 112482, Note_off_c, 5, 76, 64
19, 112762, Note_on_c, 5, 76, 60
19, 112962, Note_off_c, 5, 76, 64
19, 113242, Note_on_c, 5, 76, 60
19, 113442, Note_off_c, 5, 76, 64
19, 113722, Note_on_c, 5, 76, 60
19, 113922, Note_off_c, 5, 76, 64
19, 114202, Note_on_c, 5, 76, 60
19, 114402, Note_off_c, 5, 76, 64
19, 114682, Note_on_c, 5, 76, 60
19, 114882, Note_off_c, 5, 76, 64
19, 115162, Note_on_c, 5, 76, 70
19, 115362, Note_off_c, 5, 76, 64
19, 115642, Note_on_c, 5, 76, 70
19, 115842, Note_off_c, 5, 76, 64
19, 116122, Note_on_c, 5, 76, 80
19, 116322, Note_off_c, 5, 76, 64
19, 116602, Note_on_c, 5, 76, 80
19, 116802, Note_off_c, 5, 76, 64
19, 117082, Note_on_c, 5, 76, 90
19, 117282, Note_off_c, 5, 76, 64
19, 117562, Note_on_c, 5, 76, 80
19, 117762, Note_off_c, 5, 76, 64
19, 118042, Note_on_c, 5, 76, 80
19, 118242, Note_off_c, 5, 76, 64
19, 118522, Note_on_c, 5, 76, 70
19, 118722, Note_off_c, 5, 76, 64
19, 119002, Note_on_c, 5, 76, 70
19, 119202, Note_off_c, 5, 76, 64
19, 119482, Note_on_c, 5, 76, 60
19, 119682, Note_off_c, 5, 76, 64
19, 119962, Note_on_c, 5, 76, 60
19, 120162, Note_off_c, 5, 76, 64
19, 120442, Note_on_c, 5, 76, 60
19, 120642, Note_off_c, 5, 76, 64
19, 126562, Control_c, 5, 7, 60
19, 126562, Note_on_c, 5, 76, 80
19, 126592, Control_c, 5, 7, 80
19, 126622, Control_c, 5, 7, 90
19, 126652, Control_c, 5, 7, 110
19, 127162, Note_off_c, 5, 76, 64
19, 127162, Note_on_c, 5, 78, 70
19, 127642, Note_off_c, 5, 78, 64
19, 127642, Note_on_c, 5, 79, 70
19, 128122, Note_off_c, 5, 79, 64
19, 128122, Note_on_c, 5, 81, 60
19, 128602, Note_off_c, 5, 81, 64
19, 128602, Note_on_c, 5, 83, 60
19, 130122, Control_c, 5, 7, 100
19, 130322, Control_c, 5, 7, 90
19, 130502, Note_off_c, 5, 83, 64
19, 130522, Control_c, 5, 7, 80
19, 130522, Note_on_c, 5, 83, 60
19, 130622, Control_c, 5, 7, 70
19, 130722, Control_c, 5, 7, 60
19, 130822, Control_c, 5, 7, 50
19, 130922, Control_c, 5, 7, 40
19, 131122, Note_off_c, 5, 83, 64
19, 134122, Control_c, 5, 7, 110
19, 134122, Note_on_c, 5, 71, 100
19, 134322, Note_off_c, 5, 71, 64
19, 134362, Control_c, 5, 7, 90
19, 134362, Note_on_c, 5, 79, 90
19, 134442, Control_c, 5, 7, 100
19, 134522, Control_c, 5, 7, 110
19, 134602, Control_c, 5, 7, 100
19, 134682, Control_c, 5, 7, 90
19, 134762, Control_c, 5, 7, 80
19, 134822, Note_off_c, 5, 79, 64
19, 134842, Control_c, 5, 7, 110
19, 134842, Note_on_c, 5, 76, 90
19, 135302, Note_off_c, 5, 76, 64
19, 135322, Note_on_c, 5, 71, 90
19, 135782, Note_off_c, 5, 71, 64
19, 135802, Note_on_c, 5, 69, 90
19, 136262, Note_off_c, 5, 69, 64
19, 136282, Note_on_c, 5, 67, 80
19, 138182, Note_off_c, 5, 67, 64
19, 138240, Control_c, 5, 11, 127
19, 138360, Control_c, 5, 64, 0
19, 138600, Pitch_bend_c, 5, 8192
19, 138720, Control_c, 5, 91, 40
19, 138960, Control_c, 5, 1, 0
19, 139200, Control_c, 5, 93, 0
19, 139440, Control_c, 5, 7, 100
19, 139800, Control_c, 5, 10, 64
19, 139800, End_track
20, 0, Start_track
20, 0, Title_t, "ocarina             "
20, 0, MIDI_port, 0
20, 0, Channel_prefix, 6
20, 0, Control_c, 6, 7, 0
20, 0, Control_c, 6, 10, 32
20, 0, Program_c, 6, 79
20, 0, Pitch_bend_c, 6, 8192
20, 0, Pitch_bend_c, 6, 8192
20, 0, Control_c, 6, 1, 40
20, 0, Control_c, 6, 11, 127
20, 0, Control_c, 6, 64, 0
20, 480, Control_c, 6, 91, 64
20, 960, Control_c, 6, 93, 0
20, 119260, Control_c, 6, 7, 0
20, 119320, Control_c, 6, 7, 5
20, 119380, Control_c, 6, 7, 10
20, 119440, Control_c, 6, 7, 15
20, 119500, Control_c, 6, 7, 20
20, 119560, Control_c, 6, 7, 25
20, 119620, Control_c, 6, 7, 30
20, 119680, Control_c, 6, 7, 35
20, 119740, Control_c, 6, 7, 40
20, 119800, Control_c, 6, 7, 45
20, 119860, Control_c, 6, 7, 50
20, 119920, Control_c, 6, 7, 55
20, 119980, Control_c, 6, 7, 60
20, 120040, Control_c, 6, 7, 65
20, 120100, Control_c, 6, 7, 70
20, 120160, Control_c, 6, 7, 75
20, 120220, Control_c, 6, 7, 80
20, 120280, Control_c, 6, 7, 85
20, 120340, Control_c, 6, 7, 90
20, 120400, Control_c, 6, 7, 95
20, 120460, Control_c, 6, 7, 100
20, 120520, Control_c, 6, 7, 105
20, 120580, Control_c, 6, 7, 110
20, 120960, Note_on_c, 6, 76, 80
20, 122140, Note_off_c, 6, 76, 64
20, 122160, Note_on_c, 6, 78, 80
20, 122380, Note_off_c, 6, 78, 64
20, 122400, Note_on_c, 6, 79, 80
20, 122620, Note_off_c, 6, 79, 64
20, 122640, Note_on_c, 6, 81, 80
20, 123100, Note_off_c, 6, 81, 64
20, 123120, Note_on_c, 6, 79, 80
20, 123580, Note_off_c, 6, 79, 64
20, 123600, Note_on_c, 6, 78, 80
20, 124060, Note_off_c, 6, 78, 64
20, 124080, Note_on_c, 6, 76, 80
20, 124540, Note_off_c, 6, 76, 64
20, 124560, Note_on_c, 6, 71, 80
20, 124800, Note_off_c, 6, 71, 64
20, 124800, Note_on_c, 6, 69, 120
20, 125040, Note_off_c, 6, 69, 64
20, 125040, Note_on_c, 6, 67, 70
20, 125520, Note_off_c, 6, 67, 64
20, 128640, Note_on_c, 6, 76, 80
20, 129820, Note_off_c, 6, 76, 64
20, 129840, Note_on_c, 6, 78, 80
20, 130060, Note_off_c, 6, 78, 64
20, 130080, Note_on_c, 6, 79, 80
20, 130300, Note_off_c, 6, 79, 64
20, 130320, Note_on_c, 6, 81, 80
20, 130780, Note_off_c, 6, 81, 64
20, 130800, Note_on_c, 6, 79, 80
20, 131260, Note_off_c, 6, 79, 64
20, 131280, Note_on_c, 6, 78, 80
20, 131740, Note_off_c, 6, 78, 64
20, 131760, Note_on_c, 6, 76, 80
20, 132220, Note_off_c, 6, 76, 64
20, 132240, Note_on_c, 6, 71, 80
20, 132480, Note_off_c, 6, 71, 64
20, 132480, Note_on_c, 6, 69, 120
20, 132720, Note_off_c, 6, 69, 64
20, 132720, Note_on_c, 6, 67, 70
20, 133200, Note_off_c, 6, 67, 64
20, 134400, Control_c, 6, 11, 127
20, 134520, Control_c, 6, 64, 0
20, 134760, Pitch_bend_c, 6, 8192
20, 134880, Control_c, 6, 91, 40
20, 135120, Control_c, 6, 1, 0
20, 135360, Control_c, 6, 93, 0
20, 135600, Control_c, 6, 7, 100
20, 135960, Control_c, 6, 10, 64
20, 135960, End_track
21, 0, Start_track
21, 0, Title_t, "ocarina/synth string"
21, 0, MIDI_port, 0
21, 0, Channel_prefix, 7
21, 0, Control_c, 7, 7, 90
21, 0, Control_c, 7, 10, 96
21, 0, Program_c, 7, 48
21, 0, Pitch_bend_c, 7, 8192
21, 0, Pitch_bend_c, 7, 8192
21, 0, Control_c, 7, 1, 40
21, 0, Control_c, 7, 11, 127
21, 0, Control_c, 7, 64, 0
21, 480, Control_c, 7, 91, 64
21, 960, Control_c, 7, 93, 0
21, 101760, Note_on_c, 7, 93, 80
21, 101960, Note_off_c, 7, 93, 64
21, 102000, Note_on_c, 7, 93, 50
21, 102200, Note_off_c, 7, 93, 64
21, 102240, Note_on_c, 7, 95, 70
21, 102440, Note_off_c, 7, 95, 64
21, 102480, Note_on_c, 7, 91, 70
21, 102920, Note_off_c, 7, 91, 64
21, 102960, Note_on_c, 7, 88, 50
21, 103360, Note_off_c, 7, 88, 64
21, 103680, Note_on_c, 7, 91, 70
21, 103880, Note_off_c, 7, 91, 64
21, 103920, Note_on_c, 7, 93, 50
21, 104120, Note_off_c, 7, 93, 64
21, 104160, Note_on_c, 7, 95, 50
21, 104360, Note_off_c, 7, 95, 64
21, 104400, Note_on_c, 7, 98, 70
21, 104840, Note_off_c, 7, 98, 64
21, 104880, Note_on_c, 7, 97, 50
21, 105080, Note_off_c, 7, 97, 64
21, 105120, Note_on_c, 7, 95, 50
21, 105320, Note_off_c, 7, 95, 64
21, 105360, Note_on_c, 7, 97, 70
21, 105800, Note_off_c, 7, 97, 64
21, 105840, Note_on_c, 7, 95, 50
21, 106040, Note_off_c, 7, 95, 64
21, 106080, Note_on_c, 7, 93, 50
21, 106280, Note_off_c, 7, 93, 64
21, 106320, Note_on_c, 7, 95, 70
21, 106760, Note_off_c, 7, 95, 64
21, 106800, Note_on_c, 7, 93, 50
21, 107000, Note_off_c, 7, 93, 64
21, 107040, Note_on_c, 7, 91, 50
21, 107240, Note_off_c, 7, 91, 64
21, 107280, Note_on_c, 7, 93, 50
21, 108120, Note_off_c, 7, 93, 64
21, 109440, Note_on_c, 7, 91, 70
21, 109670, Note_off_c, 7, 91, 64
21, 109680, Note_on_c, 7, 93, 50
21, 109910, Note_off_c, 7, 93, 64
21, 109920, Note_on_c, 7, 95, 50
21, 110150, Note_off_c, 7, 95, 64
21, 110160, Note_on_c, 7, 96, 60
21, 110630, Note_off_c, 7, 96, 64
21, 110640, Note_on_c, 7, 95, 40
21, 111040, Note_off_c, 7, 95, 64
21, 111360, Note_on_c, 7, 93, 80
21, 111560, Note_off_c, 7, 93, 64
21, 111600, Note_on_c, 7, 93, 50
21, 111800, Note_off_c, 7, 93, 64
21, 111840, Note_on_c, 7, 95, 70
21, 112040, Note_off_c, 7, 95, 64
21, 112080, Note_on_c, 7, 91, 70
21, 112520, Note_off_c, 7, 91, 64
21, 112560, Note_on_c, 7, 88, 50
21, 112960, Note_off_c, 7, 88, 64
21, 113280, Note_on_c, 7, 91, 70
21, 113480, Note_off_c, 7, 91, 64
21, 113520, Note_on_c, 7, 93, 50
21, 113720, Note_off_c, 7, 93, 64
21, 113760, Note_on_c, 7, 95, 50
21, 113960, Note_off_c, 7, 95, 64
21, 114000, Note_on_c, 7, 98, 70
21, 114440, Note_off_c, 7, 98, 64
21, 114480, Note_on_c, 7, 97, 50
21, 114680, Note_off_c, 7, 97, 64
21, 114720, Note_on_c, 7, 95, 50
21, 114920, Note_off_c, 7, 95, 64
21, 114960, Note_on_c, 7, 97, 70
21, 115400, Note_off_c, 7, 97, 64
21, 115440, Note_on_c, 7, 95, 50
21, 115640, Note_off_c, 7, 95, 64
21, 115680, Note_on_c, 7, 93, 50
21, 115880, Note_off_c, 7, 93, 64
21, 115920, Note_on_c, 7, 95, 70
21, 116360, Note_off_c, 7, 95, 64
21, 116400, Note_on_c, 7, 93, 50
21, 116600, Note_off_c, 7, 93, 64
21, 116640, Note_on_c, 7, 91, 50
21, 116840, Note_off_c, 7, 91, 64
21, 116880, Note_on_c, 7, 93, 50
21, 117720, Note_off_c, 7, 93, 64
21, 119040, Note_on_c, 7, 91, 70
21, 119270, Note_off_c, 7, 91, 64
21, 119280, Note_on_c, 7, 93, 50
21, 119510, Note_off_c, 7, 93, 64
21, 119520, Note_on_c, 7, 95, 50
21, 119750, Note_off_c, 7, 95, 64
21, 119760, Note_on_c, 7, 96, 60
21, 120230, Note_off_c, 7, 96, 64
21, 120240, Note_on_c, 7, 95, 40
21, 120640, Note_off_c, 7, 95, 64
21, 120960, Control_c, 7, 1, 15
21, 120960, Program_c, 7, 50
21, 120960, Note_on_c, 7, 69, 90
21, 121360, Note_off_c, 7, 69, 64
21, 121440, Note_on_c, 7, 67, 90
21, 121660, Note_off_c, 7, 67, 64
21, 121680, Note_on_c, 7, 69, 90
21, 122280, Note_off_c, 7, 69, 64
21, 122400, Note_on_c, 7, 71, 90
21, 122620, Note_off_c, 7, 71, 64
21, 122640, Note_on_c, 7, 67, 90
21, 123100, Note_off_c, 7, 67, 64
21, 123120, Note_on_c, 7, 64, 90
21, 123820, Note_off_c, 7, 64, 64
21, 124320, Note_on_c, 7, 64, 90
21, 124540, Note_off_c, 7, 64, 64
21, 124560, Note_on_c, 7, 76, 90
21, 125260, Note_off_c, 7, 76, 64
21, 125280, Note_on_c, 7, 71, 90
21, 125500, Note_off_c, 7, 71, 64
21, 125520, Note_on_c, 7, 69, 90
21, 125980, Note_off_c, 7, 69, 64
21, 126000, Note_on_c, 7, 67, 90
21, 126460, Note_off_c, 7, 67, 64
21, 126480, Note_on_c, 7, 64, 90
21, 126880, Note_off_c, 7, 64, 64
21, 128640, Note_on_c, 7, 67, 90
21, 128940, Note_off_c, 7, 67, 64
21, 129120, Note_on_c, 7, 67, 90
21, 129340, Note_off_c, 7, 67, 64
21, 129360, Note_on_c, 7, 69, 90
21, 129960, Note_off_c, 7, 69, 64
21, 130080, Note_on_c, 7, 71, 90
21, 130300, Note_off_c, 7, 71, 64
21, 130320, Note_on_c, 7, 67, 90
21, 130780, Note_off_c, 7, 67, 64
21, 130800, Note_on_c, 7, 64, 90
21, 131500, Note_off_c, 7, 64, 64
21, 132000, Note_on_c, 7, 64, 90
21, 132240, Note_off_c, 7, 64, 64
21, 132240, Note_on_c, 7, 79, 90
21, 132940, Note_off_c, 7, 79, 64
21, 132960, Note_on_c, 7, 76, 90
21, 133180, Note_off_c, 7, 76, 64
21, 133200, Note_on_c, 7, 71, 90
21, 133420, Note_off_c, 7, 71, 64
21, 133440, Note_on_c, 7, 67, 90
21, 133660, Note_off_c, 7, 67, 64
21, 133680, Note_on_c, 7, 69, 90
21, 134140, Note_off_c, 7, 69, 64
21, 134160, Note_on_c, 7, 67, 90
21, 134400, Note_off_c, 7, 67, 64
21, 134400, Note_on_c, 7, 79, 80
21, 134870, Note_off_c, 7, 79, 64
21, 134880, Note_on_c, 7, 76, 70
21, 135350, Note_off_c, 7, 76, 64
21, 135360, Note_on_c, 7, 71, 70
21, 135830, Note_off_c, 7, 71, 64
21, 135840, Note_on_c, 7, 69, 70
21, 136310, Note_off_c, 7, 69, 64
21, 136320, Note_on_c, 7, 67, 60
21, 138220, Note_off_c, 7, 67, 64
21, 138240, Control_c, 7, 11, 127
21, 138360, Control_c, 7, 64, 0
21, 138600, Pitch_bend_c, 7, 8192
21, 138720, Control_c, 7, 91, 40
21, 138960, Control_c, 7, 1, 0
21, 139200, Control_c, 7, 93, 0
21, 139440, Control_c, 7, 7, 100
21, 139800, Control_c, 7, 10, 64
21, 139800, End_track
0, 0, End_of_file
