0, 0, Header, 1, 4, 960
1, 0, Start_track
1, 0, Control_c, 0, 101, 0
1, 0, Control_c, 0, 100, 0
1, 0, Control_c, 0, 6, 12
1, 0, Control_c, 0, 38, 0
1, 0, Control_c, 1, 101, 0
1, 0, Control_c, 1, 100, 0
1, 0, Control_c, 1, 6, 12
1, 0, Control_c, 1, 38, 0
1, 0, Control_c, 2, 101, 0
1, 0, Control_c, 2, 100, 0
1, 0, Control_c, 2, 6, 12
1, 0, Control_c, 2, 38, 0
1, 0, Control_c, 3, 101, 0
1, 0, Control_c, 3, 100, 0
1, 0, Control_c, 3, 6, 12
1, 0, Control_c, 3, 38, 0
1, 0, Control_c, 4, 101, 0
1, 0, Control_c, 4, 100, 0
1, 0, Control_c, 4, 6, 12
1, 0, Control_c, 4, 38, 0
1, 0, Control_c, 5, 101, 0
1, 0, Control_c, 5, 100, 0
1, 0, Control_c, 5, 6, 12
1, 0, Control_c, 5, 38, 0
1, 0, Control_c, 6, 101, 0
1, 0, Control_c, 6, 100, 0
1, 0, Control_c, 6, 6, 12
1, 0, Control_c, 6, 38, 0
1, 0, Control_c, 7, 101, 0
1, 0, Control_c, 7, 100, 0
1, 0, Control_c, 7, 6, 12
1, 0, Control_c, 7, 38, 0
1, 0, Control_c, 8, 101, 0
1, 0, Control_c, 8, 100, 0
1, 0, Control_c, 8, 6, 12
1, 0, Control_c, 8, 38, 0
1, 0, Control_c, 9, 101, 0
1, 0, Control_c, 9, 100, 0
1, 0, Control_c, 9, 6, 12
1, 0, Control_c, 9, 38, 0
1, 0, Control_c, 10, 101, 0
1, 0, Control_c, 10, 100, 0
1, 0, Control_c, 10, 6, 12
1, 0, Control_c, 10, 38, 0
1, 0, Control_c, 11, 101, 0
1, 0, Control_c, 11, 100, 0
1, 0, Control_c, 11, 6, 12
1, 0, Control_c, 11, 38, 0
1, 0, Control_c, 12, 101, 0
1, 0, Control_c, 12, 100, 0
1, 0, Control_c, 12, 6, 12
1, 0, Control_c, 12, 38, 0
1, 0, Control_c, 13, 101, 0
1, 0, Control_c, 13, 100, 0
1, 0, Control_c, 13, 6, 12
1, 0, Control_c, 13, 38, 0
1, 0, Control_c, 14, 101, 0
1, 0, Control_c, 14, 100, 0
1, 0, Control_c, 14, 6, 12
1, 0, Control_c, 14, 38, 0
1, 0, Control_c, 15, 101, 0
1, 0, Control_c, 15, 100, 0
1, 0, Control_c, 15, 6, 12
1, 0, Control_c, 15, 38, 0
1, 0, Time_signature, 4, 2, 24, 8
1, 0, Tempo, 312500
1, 0, End_track
2, 0, Start_track
2, 0, Pitch_bend_c, 0, 8192
2, 0, Control_c, 0, 7, 103
2, 0, Control_c, 0, 10, 63
2, 0, Control_c, 0, 93, 0
2, 0, Control_c, 0, 91, 0
2, 0, Control_c, 0, 95, 0
2, 0, Control_c, 0, 92, 0
2, 0, Control_c, 0, 11, 127
2, 0, Program_c, 0, 29
2, 0, Control_c, 1, 7, 103
2, 0, Control_c, 1, 10, 63
2, 0, Control_c, 1, 93, 0
2, 0, Control_c, 1, 91, 0
2, 0, Control_c, 1, 95, 0
2, 0, Control_c, 1, 92, 0
2, 0, Control_c, 1, 11, 127
2, 0, Program_c, 1, 29
2, 0, Note_on_c, 0, 71, 95
2, 0, Note_on_c, 0, 66, 95
2, 0, Note_on_c, 0, 63, 95
2, 0, Note_on_c, 0, 59, 95
2, 0, Note_on_c, 0, 54, 95
2, 0, Note_on_c, 0, 47, 95
2, 960, Note_off_c, 0, 71, 95
2, 960, Note_off_c, 0, 66, 95
2, 960, Note_off_c, 0, 63, 95
2, 960, Note_off_c, 0, 59, 95
2, 960, Note_off_c, 0, 54, 95
2, 960, Note_off_c, 0, 47, 95
2, 960, Note_on_c, 0, 71, 95
2, 960, Note_on_c, 0, 66, 95
2, 960, Note_on_c, 0, 63, 95
2, 960, Note_on_c, 0, 59, 95
2, 960, Note_on_c, 0, 54, 95
2, 960, Note_on_c, 0, 47, 95
2, 1440, Note_off_c, 0, 71, 95
2, 1440, Note_off_c, 0, 66, 95
2, 1440, Note_off_c, 0, 63, 95
2, 1440, Note_off_c, 0, 59, 95
2, 1440, Note_off_c, 0, 54, 95
2, 1440, Note_off_c, 0, 47, 95
2, 1440, Note_on_c, 0, 71, 95
2, 1440, Note_on_c, 0, 66, 95
2, 1440, Note_on_c, 0, 63, 95
2, 1440, Note_on_c, 0, 59, 95
2, 1440, Note_on_c, 0, 54, 95
2, 1440, Note_on_c, 0, 47, 95
2, 1920, Note_off_c, 0, 71, 95
2, 1920, Note_off_c, 0, 47, 95
2, 2400, Note_off_c, 0, 66, 95
2, 2400, Note_off_c, 0, 63, 95
2, 2400, Note_off_c, 0, 59, 95
2, 2400, Note_off_c, 0, 54, 95
2, 2400, Note_on_c, 0, 71, 95
2, 2400, Note_on_c, 0, 66, 95
2, 2400, Note_on_c, 0, 63, 95
2, 2400, Note_on_c, 0, 59, 95
2, 2400, Note_on_c, 0, 54, 95
2, 2400, Note_on_c, 0, 47, 95
2, 2880, Note_off_c, 0, 71, 95
2, 2880, Note_off_c, 0, 66, 95
2, 2880, Note_off_c, 0, 63, 95
2, 2880, Note_off_c, 0, 59, 95
2, 2880, Note_off_c, 0, 54, 95
2, 2880, Note_off_c, 0, 47, 95
2, 2880, Note_on_c, 0, 71, 95
2, 2880, Note_on_c, 0, 66, 95
2, 2880, Note_on_c, 0, 63, 95
2, 2880, Note_on_c, 0, 59, 95
2, 2880, Note_on_c, 0, 54, 95
2, 2880, Note_on_c, 0, 47, 95
2, 3360, Note_off_c, 0, 71, 95
2, 3360, Note_off_c, 0, 66, 95
2, 3360, Note_off_c, 0, 63, 95
2, 3360, Note_off_c, 0, 59, 95
2, 3360, Note_off_c, 0, 54, 95
2, 3360, Note_off_c, 0, 47, 95
2, 3360, Note_on_c, 0, 71, 95
2, 3360, Note_on_c, 0, 66, 95
2, 3360, Note_on_c, 0, 63, 95
2, 3360, Note_on_c, 0, 59, 95
2, 3360, Note_on_c, 0, 54, 95
2, 3360, Note_on_c, 0, 47, 95
2, 3600, Note_off_c, 0, 71, 95
2, 3600, Note_off_c, 0, 66, 95
2, 3600, Note_off_c, 0, 63, 95
2, 3600, Note_off_c, 0, 59, 95
2, 3600, Note_off_c, 0, 54, 95
2, 3600, Note_off_c, 0, 47, 95
2, 3600, Note_on_c, 0, 59, 95
2, 3600, Note_on_c, 0, 54, 95
2, 3600, Note_on_c, 0, 47, 95
2, 3696, Note_off_c, 0, 59, 95
2, 3696, Note_off_c, 0, 54, 95
2, 3696, Note_off_c, 0, 47, 95
2, 3840, Note_on_c, 0, 69, 95
2, 3840, Note_on_c, 0, 64, 95
2, 3840, Note_on_c, 0, 61, 95
2, 3840, Note_on_c, 0, 57, 95
2, 3840, Note_on_c, 0, 52, 95
2, 3840, Note_on_c, 0, 45, 95
2, 4800, Note_off_c, 0, 69, 95
2, 4800, Note_off_c, 0, 64, 95
2, 4800, Note_off_c, 0, 61, 95
2, 4800, Note_off_c, 0, 57, 95
2, 4800, Note_off_c, 0, 52, 95
2, 4800, Note_off_c, 0, 45, 95
2, 4800, Note_on_c, 0, 69, 95
2, 4800, Note_on_c, 0, 64, 95
2, 4800, Note_on_c, 0, 61, 95
2, 4800, Note_on_c, 0, 57, 95
2, 4800, Note_on_c, 0, 52, 95
2, 4800, Note_on_c, 0, 45, 95
2, 5280, Note_off_c, 0, 69, 95
2, 5280, Note_off_c, 0, 64, 95
2, 5280, Note_off_c, 0, 61, 95
2, 5280, Note_off_c, 0, 57, 95
2, 5280, Note_off_c, 0, 52, 95
2, 5280, Note_off_c, 0, 45, 95
2, 5280, Note_on_c, 0, 69, 95
2, 5280, Note_on_c, 0, 64, 95
2, 5280, Note_on_c, 0, 61, 95
2, 5280, Note_on_c, 0, 57, 95
2, 5280, Note_on_c, 0, 52, 95
2, 5280, Note_on_c, 0, 45, 95
2, 5760, Note_off_c, 0, 69, 95
2, 5760, Note_off_c, 0, 45, 95
2, 6240, Note_off_c, 0, 64, 95
2, 6240, Note_off_c, 0, 61, 95
2, 6240, Note_off_c, 0, 57, 95
2, 6240, Note_off_c, 0, 52, 95
2, 6240, Note_on_c, 0, 69, 95
2, 6240, Note_on_c, 0, 64, 95
2, 6240, Note_on_c, 0, 61, 95
2, 6240, Note_on_c, 0, 57, 95
2, 6240, Note_on_c, 0, 52, 95
2, 6240, Note_on_c, 0, 45, 95
2, 6720, Note_off_c, 0, 69, 95
2, 6720, Note_off_c, 0, 64, 95
2, 6720, Note_off_c, 0, 61, 95
2, 6720, Note_off_c, 0, 57, 95
2, 6720, Note_off_c, 0, 52, 95
2, 6720, Note_off_c, 0, 45, 95
2, 6720, Note_on_c, 0, 69, 95
2, 6720, Note_on_c, 0, 64, 95
2, 6720, Note_on_c, 0, 61, 95
2, 6720, Note_on_c, 0, 57, 95
2, 6720, Note_on_c, 0, 52, 95
2, 6720, Note_on_c, 0, 45, 95
2, 7440, Note_off_c, 0, 69, 95
2, 7440, Note_off_c, 0, 64, 95
2, 7440, Note_off_c, 0, 61, 95
2, 7440, Note_off_c, 0, 57, 95
2, 7440, Note_off_c, 0, 52, 95
2, 7440, Note_off_c, 0, 45, 95
2, 7440, Note_on_c, 0, 45, 95
2, 7440, Note_on_c, 0, 40, 95
2, 7680, Note_off_c, 0, 45, 95
2, 7680, Note_off_c, 0, 40, 95
2, 7680, Note_on_c, 0, 69, 95
2, 7680, Note_on_c, 0, 66, 95
2, 7680, Note_on_c, 0, 62, 95
2, 7680, Note_on_c, 0, 57, 95
2, 7680, Note_on_c, 0, 50, 95
2, 7680, Note_on_c, 0, 45, 95
2, 8640, Note_off_c, 0, 69, 95
2, 8640, Note_off_c, 0, 66, 95
2, 8640, Note_off_c, 0, 62, 95
2, 8640, Note_off_c, 0, 57, 95
2, 8640, Note_off_c, 0, 50, 95
2, 8640, Note_off_c, 0, 45, 95
2, 8640, Note_on_c, 0, 69, 95
2, 8640, Note_on_c, 0, 66, 95
2, 8640, Note_on_c, 0, 62, 95
2, 8640, Note_on_c, 0, 57, 95
2, 8640, Note_on_c, 0, 50, 95
2, 8640, Note_on_c, 0, 45, 95
2, 9120, Note_off_c, 0, 69, 95
2, 9120, Note_off_c, 0, 66, 95
2, 9120, Note_off_c, 0, 62, 95
2, 9120, Note_off_c, 0, 57, 95
2, 9120, Note_off_c, 0, 50, 95
2, 9120, Note_off_c, 0, 45, 95
2, 9120, Note_on_c, 0, 69, 95
2, 9120, Note_on_c, 0, 66, 95
2, 9120, Note_on_c, 0, 62, 95
2, 9120, Note_on_c, 0, 57, 95
2, 9120, Note_on_c, 0, 50, 95
2, 9120, Note_on_c, 0, 45, 95
2, 9600, Note_off_c, 0, 69, 95
2, 9600, Note_off_c, 0, 45, 95
2, 10080, Note_off_c, 0, 66, 95
2, 10080, Note_off_c, 0, 62, 95
2, 10080, Note_off_c, 0, 57, 95
2, 10080, Note_off_c, 0, 50, 95
2, 10080, Note_on_c, 0, 69, 95
2, 10080, Note_on_c, 0, 66, 95
2, 10080, Note_on_c, 0, 62, 95
2, 10080, Note_on_c, 0, 57, 95
2, 10080, Note_on_c, 0, 50, 95
2, 10080, Note_on_c, 0, 45, 95
2, 10560, Note_off_c, 0, 69, 95
2, 10560, Note_off_c, 0, 66, 95
2, 10560, Note_off_c, 0, 62, 95
2, 10560, Note_off_c, 0, 57, 95
2, 10560, Note_off_c, 0, 50, 95
2, 10560, Note_off_c, 0, 45, 95
2, 10560, Note_on_c, 0, 69, 95
2, 10560, Note_on_c, 0, 66, 95
2, 10560, Note_on_c, 0, 62, 95
2, 10560, Note_on_c, 0, 57, 95
2, 10560, Note_on_c, 0, 50, 95
2, 10560, Note_on_c, 0, 45, 95
2, 11040, Note_off_c, 0, 69, 95
2, 11040, Note_off_c, 0, 66, 95
2, 11040, Note_off_c, 0, 62, 95
2, 11040, Note_off_c, 0, 57, 95
2, 11040, Note_off_c, 0, 50, 95
2, 11040, Note_off_c, 0, 45, 95
2, 11040, Note_on_c, 0, 69, 95
2, 11040, Note_on_c, 0, 66, 95
2, 11040, Note_on_c, 0, 62, 95
2, 11040, Note_on_c, 0, 57, 95
2, 11040, Note_on_c, 0, 50, 95
2, 11040, Note_on_c, 0, 45, 95
2, 11520, Note_off_c, 0, 69, 95
2, 11520, Note_off_c, 0, 66, 95
2, 11520, Note_off_c, 0, 62, 95
2, 11520, Note_off_c, 0, 57, 95
2, 11520, Note_off_c, 0, 50, 95
2, 11520, Note_off_c, 0, 45, 95
2, 11520, Note_on_c, 0, 56, 95
2, 11520, Note_on_c, 0, 52, 95
2, 11520, Note_on_c, 0, 47, 95
2, 11520, Note_on_c, 0, 40, 95
2, 12480, Note_off_c, 0, 56, 95
2, 12480, Note_off_c, 0, 52, 95
2, 12480, Note_off_c, 0, 47, 95
2, 12480, Note_off_c, 0, 40, 95
2, 12480, Note_on_c, 0, 56, 95
2, 12480, Note_on_c, 0, 52, 95
2, 12480, Note_on_c, 0, 47, 95
2, 12480, Note_on_c, 0, 40, 95
2, 12960, Note_off_c, 0, 56, 95
2, 12960, Note_off_c, 0, 52, 95
2, 12960, Note_off_c, 0, 47, 95
2, 12960, Note_off_c, 0, 40, 95
2, 12960, Note_on_c, 0, 56, 95
2, 12960, Note_on_c, 0, 52, 95
2, 12960, Note_on_c, 0, 47, 95
2, 12960, Note_on_c, 0, 40, 95
2, 13440, Note_off_c, 0, 56, 95
2, 13920, Note_off_c, 0, 52, 95
2, 13920, Note_off_c, 0, 47, 95
2, 13920, Note_off_c, 0, 40, 95
2, 13920, Note_on_c, 0, 56, 95
2, 13920, Note_on_c, 0, 52, 95
2, 13920, Note_on_c, 0, 47, 95
2, 13920, Note_on_c, 0, 40, 95
2, 14400, Note_off_c, 0, 56, 95
2, 14400, Note_off_c, 0, 52, 95
2, 14400, Note_off_c, 0, 47, 95
2, 14400, Note_off_c, 0, 40, 95
2, 14400, Note_on_c, 0, 56, 95
2, 14400, Note_on_c, 0, 52, 95
2, 14400, Note_on_c, 0, 47, 95
2, 14400, Note_on_c, 0, 40, 95
2, 15360, Note_off_c, 0, 56, 95
2, 15360, Note_off_c, 0, 52, 95
2, 15360, Note_off_c, 0, 47, 95
2, 15360, Note_off_c, 0, 40, 95
2, 15360, Note_on_c, 0, 71, 95
2, 15360, Note_on_c, 0, 66, 95
2, 15360, Note_on_c, 0, 63, 95
2, 15360, Note_on_c, 0, 59, 95
2, 15360, Note_on_c, 0, 54, 95
2, 15360, Note_on_c, 0, 47, 95
2, 16320, Note_off_c, 0, 71, 95
2, 16320, Note_off_c, 0, 66, 95
2, 16320, Note_off_c, 0, 63, 95
2, 16320, Note_off_c, 0, 59, 95
2, 16320, Note_off_c, 0, 54, 95
2, 16320, Note_off_c, 0, 47, 95
2, 16320, Note_on_c, 0, 71, 95
2, 16320, Note_on_c, 0, 66, 95
2, 16320, Note_on_c, 0, 63, 95
2, 16320, Note_on_c, 0, 59, 95
2, 16320, Note_on_c, 0, 54, 95
2, 16320, Note_on_c, 0, 47, 95
2, 16800, Note_off_c, 0, 71, 95
2, 16800, Note_off_c, 0, 66, 95
2, 16800, Note_off_c, 0, 63, 95
2, 16800, Note_off_c, 0, 59, 95
2, 16800, Note_off_c, 0, 54, 95
2, 16800, Note_off_c, 0, 47, 95
2, 16800, Note_on_c, 0, 71, 95
2, 16800, Note_on_c, 0, 66, 95
2, 16800, Note_on_c, 0, 63, 95
2, 16800, Note_on_c, 0, 59, 95
2, 16800, Note_on_c, 0, 54, 95
2, 16800, Note_on_c, 0, 47, 95
2, 17280, Note_off_c, 0, 71, 95
2, 17280, Note_off_c, 0, 47, 95
2, 17760, Note_off_c, 0, 66, 95
2, 17760, Note_off_c, 0, 63, 95
2, 17760, Note_off_c, 0, 59, 95
2, 17760, Note_off_c, 0, 54, 95
2, 17760, Note_on_c, 0, 71, 95
2, 17760, Note_on_c, 0, 66, 95
2, 17760, Note_on_c, 0, 63, 95
2, 17760, Note_on_c, 0, 59, 95
2, 17760, Note_on_c, 0, 54, 95
2, 17760, Note_on_c, 0, 47, 95
2, 18240, Note_off_c, 0, 71, 95
2, 18240, Note_off_c, 0, 66, 95
2, 18240, Note_off_c, 0, 63, 95
2, 18240, Note_off_c, 0, 59, 95
2, 18240, Note_off_c, 0, 54, 95
2, 18240, Note_off_c, 0, 47, 95
2, 18240, Note_on_c, 0, 71, 95
2, 18240, Note_on_c, 0, 66, 95
2, 18240, Note_on_c, 0, 63, 95
2, 18240, Note_on_c, 0, 59, 95
2, 18240, Note_on_c, 0, 54, 95
2, 18240, Note_on_c, 0, 47, 95
2, 19200, Note_off_c, 0, 71, 95
2, 19200, Note_off_c, 0, 66, 95
2, 19200, Note_off_c, 0, 63, 95
2, 19200, Note_off_c, 0, 59, 95
2, 19200, Note_off_c, 0, 54, 95
2, 19200, Note_off_c, 0, 47, 95
2, 19200, Note_on_c, 0, 69, 95
2, 19200, Note_on_c, 0, 64, 95
2, 19200, Note_on_c, 0, 61, 95
2, 19200, Note_on_c, 0, 57, 95
2, 19200, Note_on_c, 0, 52, 95
2, 19200, Note_on_c, 0, 45, 95
2, 20160, Note_off_c, 0, 69, 95
2, 20160, Note_off_c, 0, 64, 95
2, 20160, Note_off_c, 0, 61, 95
2, 20160, Note_off_c, 0, 57, 95
2, 20160, Note_off_c, 0, 52, 95
2, 20160, Note_off_c, 0, 45, 95
2, 20160, Note_on_c, 0, 69, 95
2, 20160, Note_on_c, 0, 64, 95
2, 20160, Note_on_c, 0, 61, 95
2, 20160, Note_on_c, 0, 57, 95
2, 20160, Note_on_c, 0, 52, 95
2, 20160, Note_on_c, 0, 45, 95
2, 20640, Note_off_c, 0, 69, 95
2, 20640, Note_off_c, 0, 64, 95
2, 20640, Note_off_c, 0, 61, 95
2, 20640, Note_off_c, 0, 57, 95
2, 20640, Note_off_c, 0, 52, 95
2, 20640, Note_off_c, 0, 45, 95
2, 20640, Note_on_c, 0, 69, 95
2, 20640, Note_on_c, 0, 64, 95
2, 20640, Note_on_c, 0, 61, 95
2, 20640, Note_on_c, 0, 57, 95
2, 20640, Note_on_c, 0, 52, 95
2, 20640, Note_on_c, 0, 45, 95
2, 21120, Note_off_c, 0, 69, 95
2, 21120, Note_off_c, 0, 45, 95
2, 21600, Note_off_c, 0, 64, 95
2, 21600, Note_off_c, 0, 61, 95
2, 21600, Note_off_c, 0, 57, 95
2, 21600, Note_off_c, 0, 52, 95
2, 21600, Note_on_c, 0, 69, 95
2, 21600, Note_on_c, 0, 64, 95
2, 21600, Note_on_c, 0, 61, 95
2, 21600, Note_on_c, 0, 57, 95
2, 21600, Note_on_c, 0, 52, 95
2, 21600, Note_on_c, 0, 45, 95
2, 22080, Note_off_c, 0, 69, 95
2, 22080, Note_off_c, 0, 64, 95
2, 22080, Note_off_c, 0, 61, 95
2, 22080, Note_off_c, 0, 57, 95
2, 22080, Note_off_c, 0, 52, 95
2, 22080, Note_off_c, 0, 45, 95
2, 22080, Note_on_c, 0, 69, 95
2, 22080, Note_on_c, 0, 64, 95
2, 22080, Note_on_c, 0, 61, 95
2, 22080, Note_on_c, 0, 57, 95
2, 22080, Note_on_c, 0, 52, 95
2, 22080, Note_on_c, 0, 45, 95
2, 23040, Note_off_c, 0, 69, 95
2, 23040, Note_off_c, 0, 64, 95
2, 23040, Note_off_c, 0, 61, 95
2, 23040, Note_off_c, 0, 57, 95
2, 23040, Note_off_c, 0, 52, 95
2, 23040, Note_off_c, 0, 45, 95
2, 23040, Note_on_c, 0, 69, 95
2, 23040, Note_on_c, 0, 66, 95
2, 23040, Note_on_c, 0, 62, 95
2, 23040, Note_on_c, 0, 57, 95
2, 23040, Note_on_c, 0, 50, 95
2, 23040, Note_on_c, 0, 45, 95
2, 24000, Note_off_c, 0, 69, 95
2, 24000, Note_off_c, 0, 66, 95
2, 24000, Note_off_c, 0, 62, 95
2, 24000, Note_off_c, 0, 57, 95
2, 24000, Note_off_c, 0, 50, 95
2, 24000, Note_off_c, 0, 45, 95
2, 24000, Note_on_c, 0, 69, 95
2, 24000, Note_on_c, 0, 66, 95
2, 24000, Note_on_c, 0, 62, 95
2, 24000, Note_on_c, 0, 57, 95
2, 24000, Note_on_c, 0, 50, 95
2, 24000, Note_on_c, 0, 45, 95
2, 24480, Note_off_c, 0, 69, 95
2, 24480, Note_off_c, 0, 66, 95
2, 24480, Note_off_c, 0, 62, 95
2, 24480, Note_off_c, 0, 57, 95
2, 24480, Note_off_c, 0, 50, 95
2, 24480, Note_off_c, 0, 45, 95
2, 24480, Note_on_c, 0, 69, 95
2, 24480, Note_on_c, 0, 66, 95
2, 24480, Note_on_c, 0, 62, 95
2, 24480, Note_on_c, 0, 57, 95
2, 24480, Note_on_c, 0, 50, 95
2, 24960, Note_off_c, 0, 69, 95
2, 25440, Note_off_c, 0, 66, 95
2, 25440, Note_off_c, 0, 62, 95
2, 25440, Note_off_c, 0, 57, 95
2, 25440, Note_off_c, 0, 50, 95
2, 25440, Note_on_c, 0, 69, 95
2, 25440, Note_on_c, 0, 66, 95
2, 25440, Note_on_c, 0, 62, 95
2, 25440, Note_on_c, 0, 57, 95
2, 25440, Note_on_c, 0, 50, 95
2, 25920, Note_off_c, 0, 69, 95
2, 25920, Note_off_c, 0, 66, 95
2, 25920, Note_off_c, 0, 62, 95
2, 25920, Note_off_c, 0, 57, 95
2, 25920, Note_off_c, 0, 50, 95
2, 25920, Note_on_c, 0, 69, 95
2, 25920, Note_on_c, 0, 66, 95
2, 25920, Note_on_c, 0, 62, 95
2, 25920, Note_on_c, 0, 57, 95
2, 25920, Note_on_c, 0, 50, 95
2, 26880, Note_off_c, 0, 69, 95
2, 26880, Note_off_c, 0, 66, 95
2, 26880, Note_off_c, 0, 62, 95
2, 26880, Note_off_c, 0, 57, 95
2, 26880, Note_off_c, 0, 50, 95
2, 26880, Note_on_c, 0, 56, 95
2, 26880, Note_on_c, 0, 52, 95
2, 26880, Note_on_c, 0, 47, 95
2, 26880, Note_on_c, 0, 40, 95
2, 27840, Note_off_c, 0, 56, 95
2, 27840, Note_off_c, 0, 52, 95
2, 27840, Note_off_c, 0, 47, 95
2, 27840, Note_off_c, 0, 40, 95
2, 27840, Note_on_c, 0, 56, 95
2, 27840, Note_on_c, 0, 52, 95
2, 27840, Note_on_c, 0, 47, 95
2, 27840, Note_on_c, 0, 40, 95
2, 28320, Note_off_c, 0, 56, 95
2, 28320, Note_off_c, 0, 52, 95
2, 28320, Note_off_c, 0, 47, 95
2, 28320, Note_off_c, 0, 40, 95
2, 28320, Note_on_c, 0, 56, 95
2, 28320, Note_on_c, 0, 52, 95
2, 28320, Note_on_c, 0, 47, 95
2, 28320, Note_on_c, 0, 40, 95
2, 28800, Note_off_c, 0, 56, 95
2, 29280, Note_off_c, 0, 52, 95
2, 29280, Note_off_c, 0, 47, 95
2, 29280, Note_off_c, 0, 40, 95
2, 29280, Note_on_c, 0, 56, 95
2, 29280, Note_on_c, 0, 52, 95
2, 29280, Note_on_c, 0, 47, 95
2, 29280, Note_on_c, 0, 40, 95
2, 29760, Note_off_c, 0, 56, 95
2, 29760, Note_off_c, 0, 52, 95
2, 29760, Note_off_c, 0, 47, 95
2, 29760, Note_off_c, 0, 40, 95
2, 29760, Note_on_c, 0, 56, 95
2, 29760, Note_on_c, 0, 52, 95
2, 29760, Note_on_c, 0, 47, 95
2, 29760, Note_on_c, 0, 40, 95
2, 30720, Note_off_c, 0, 56, 95
2, 30720, Note_off_c, 0, 52, 95
2, 30720, Note_off_c, 0, 47, 95
2, 30720, Note_off_c, 0, 40, 95
2, 30720, Note_on_c, 0, 71, 95
2, 30720, Note_on_c, 0, 66, 95
2, 30720, Note_on_c, 0, 63, 95
2, 30720, Note_on_c, 0, 59, 95
2, 30720, Note_on_c, 0, 54, 95
2, 30720, Note_on_c, 0, 47, 95
2, 31680, Note_off_c, 0, 71, 95
2, 31680, Note_off_c, 0, 66, 95
2, 31680, Note_off_c, 0, 63, 95
2, 31680, Note_off_c, 0, 59, 95
2, 31680, Note_off_c, 0, 54, 95
2, 31680, Note_off_c, 0, 47, 95
2, 31680, Note_on_c, 0, 71, 95
2, 31680, Note_on_c, 0, 66, 95
2, 31680, Note_on_c, 0, 63, 95
2, 31680, Note_on_c, 0, 59, 95
2, 31680, Note_on_c, 0, 54, 95
2, 31680, Note_on_c, 0, 47, 95
2, 32160, Note_off_c, 0, 71, 95
2, 32160, Note_off_c, 0, 66, 95
2, 32160, Note_off_c, 0, 63, 95
2, 32160, Note_off_c, 0, 59, 95
2, 32160, Note_off_c, 0, 54, 95
2, 32160, Note_off_c, 0, 47, 95
2, 32160, Note_on_c, 0, 71, 95
2, 32160, Note_on_c, 0, 66, 95
2, 32160, Note_on_c, 0, 63, 95
2, 32160, Note_on_c, 0, 59, 95
2, 32160, Note_on_c, 0, 54, 95
2, 32160, Note_on_c, 0, 47, 95
2, 32640, Note_off_c, 0, 71, 95
2, 32640, Note_off_c, 0, 47, 95
2, 33120, Note_off_c, 0, 66, 95
2, 33120, Note_off_c, 0, 63, 95
2, 33120, Note_off_c, 0, 59, 95
2, 33120, Note_off_c, 0, 54, 95
2, 33120, Note_on_c, 0, 71, 95
2, 33120, Note_on_c, 0, 66, 95
2, 33120, Note_on_c, 0, 63, 95
2, 33120, Note_on_c, 0, 59, 95
2, 33120, Note_on_c, 0, 54, 95
2, 33120, Note_on_c, 0, 47, 95
2, 33600, Note_off_c, 0, 71, 95
2, 33600, Note_off_c, 0, 66, 95
2, 33600, Note_off_c, 0, 63, 95
2, 33600, Note_off_c, 0, 59, 95
2, 33600, Note_off_c, 0, 54, 95
2, 33600, Note_off_c, 0, 47, 95
2, 33600, Note_on_c, 0, 71, 95
2, 33600, Note_on_c, 0, 66, 95
2, 33600, Note_on_c, 0, 63, 95
2, 33600, Note_on_c, 0, 59, 95
2, 33600, Note_on_c, 0, 54, 95
2, 33600, Note_on_c, 0, 47, 95
2, 34080, Note_off_c, 0, 71, 95
2, 34080, Note_off_c, 0, 66, 95
2, 34080, Note_off_c, 0, 63, 95
2, 34080, Note_off_c, 0, 59, 95
2, 34080, Note_off_c, 0, 54, 95
2, 34080, Note_off_c, 0, 47, 95
2, 34080, Note_on_c, 0, 50, 95
2, 34080, Note_on_c, 0, 45, 95
2, 34560, Note_off_c, 0, 50, 95
2, 34560, Note_off_c, 0, 45, 95
2, 34560, Note_on_c, 0, 69, 95
2, 34560, Note_on_c, 0, 64, 95
2, 34560, Note_on_c, 0, 61, 95
2, 34560, Note_on_c, 0, 57, 95
2, 34560, Note_on_c, 0, 52, 95
2, 34560, Note_on_c, 0, 45, 95
2, 35520, Note_off_c, 0, 69, 95
2, 35520, Note_off_c, 0, 64, 95
2, 35520, Note_off_c, 0, 61, 95
2, 35520, Note_off_c, 0, 57, 95
2, 35520, Note_off_c, 0, 52, 95
2, 35520, Note_off_c, 0, 45, 95
2, 35520, Note_on_c, 0, 69, 95
2, 35520, Note_on_c, 0, 64, 95
2, 35520, Note_on_c, 0, 61, 95
2, 35520, Note_on_c, 0, 57, 95
2, 35520, Note_on_c, 0, 52, 95
2, 35520, Note_on_c, 0, 45, 95
2, 36000, Note_off_c, 0, 69, 95
2, 36000, Note_off_c, 0, 64, 95
2, 36000, Note_off_c, 0, 61, 95
2, 36000, Note_off_c, 0, 57, 95
2, 36000, Note_off_c, 0, 52, 95
2, 36000, Note_off_c, 0, 45, 95
2, 36000, Note_on_c, 0, 69, 95
2, 36000, Note_on_c, 0, 64, 95
2, 36000, Note_on_c, 0, 61, 95
2, 36000, Note_on_c, 0, 57, 95
2, 36000, Note_on_c, 0, 52, 95
2, 36000, Note_on_c, 0, 45, 95
2, 36480, Note_off_c, 0, 69, 95
2, 36480, Note_off_c, 0, 45, 95
2, 36960, Note_off_c, 0, 64, 95
2, 36960, Note_off_c, 0, 61, 95
2, 36960, Note_off_c, 0, 57, 95
2, 36960, Note_off_c, 0, 52, 95
2, 36960, Note_on_c, 0, 69, 95
2, 36960, Note_on_c, 0, 64, 95
2, 36960, Note_on_c, 0, 61, 95
2, 36960, Note_on_c, 0, 57, 95
2, 36960, Note_on_c, 0, 52, 95
2, 36960, Note_on_c, 0, 45, 95
2, 37440, Note_off_c, 0, 69, 95
2, 37440, Note_off_c, 0, 64, 95
2, 37440, Note_off_c, 0, 61, 95
2, 37440, Note_off_c, 0, 57, 95
2, 37440, Note_off_c, 0, 52, 95
2, 37440, Note_off_c, 0, 45, 95
2, 37440, Note_on_c, 0, 69, 95
2, 37440, Note_on_c, 0, 64, 95
2, 37440, Note_on_c, 0, 61, 95
2, 37440, Note_on_c, 0, 57, 95
2, 37440, Note_on_c, 0, 52, 95
2, 37440, Note_on_c, 0, 45, 95
2, 37920, Note_off_c, 0, 69, 95
2, 37920, Note_off_c, 0, 64, 95
2, 37920, Note_off_c, 0, 61, 95
2, 37920, Note_off_c, 0, 57, 95
2, 37920, Note_off_c, 0, 52, 95
2, 37920, Note_off_c, 0, 45, 95
2, 37920, Note_on_c, 0, 50, 95
2, 37920, Note_on_c, 0, 45, 95
2, 38160, Note_off_c, 0, 50, 95
2, 38160, Note_off_c, 0, 45, 95
2, 38160, Note_on_c, 0, 50, 95
2, 38160, Note_on_c, 0, 45, 95
2, 38400, Note_off_c, 0, 50, 95
2, 38400, Note_off_c, 0, 45, 95
2, 38400, Note_on_c, 0, 69, 95
2, 38400, Note_on_c, 0, 66, 95
2, 38400, Note_on_c, 0, 62, 95
2, 38400, Note_on_c, 0, 57, 95
2, 38400, Note_on_c, 0, 50, 95
2, 39360, Note_off_c, 0, 69, 95
2, 39360, Note_off_c, 0, 66, 95
2, 39360, Note_off_c, 0, 62, 95
2, 39360, Note_off_c, 0, 57, 95
2, 39360, Note_off_c, 0, 50, 95
2, 39360, Note_on_c, 0, 69, 95
2, 39360, Note_on_c, 0, 66, 95
2, 39360, Note_on_c, 0, 62, 95
2, 39360, Note_on_c, 0, 57, 95
2, 39360, Note_on_c, 0, 50, 95
2, 39840, Note_off_c, 0, 69, 95
2, 39840, Note_off_c, 0, 66, 95
2, 39840, Note_off_c, 0, 62, 95
2, 39840, Note_off_c, 0, 57, 95
2, 39840, Note_off_c, 0, 50, 95
2, 39840, Note_on_c, 0, 69, 95
2, 39840, Note_on_c, 0, 66, 95
2, 39840, Note_on_c, 0, 62, 95
2, 39840, Note_on_c, 0, 57, 95
2, 39840, Note_on_c, 0, 50, 95
2, 40320, Note_off_c, 0, 69, 95
2, 40800, Note_off_c, 0, 66, 95
2, 40800, Note_off_c, 0, 62, 95
2, 40800, Note_off_c, 0, 57, 95
2, 40800, Note_off_c, 0, 50, 95
2, 40800, Note_on_c, 0, 69, 95
2, 40800, Note_on_c, 0, 66, 95
2, 40800, Note_on_c, 0, 62, 95
2, 40800, Note_on_c, 0, 57, 95
2, 40800, Note_on_c, 0, 50, 95
2, 41280, Note_off_c, 0, 69, 95
2, 41280, Note_off_c, 0, 66, 95
2, 41280, Note_off_c, 0, 62, 95
2, 41280, Note_off_c, 0, 57, 95
2, 41280, Note_off_c, 0, 50, 95
2, 41280, Note_on_c, 0, 69, 95
2, 41280, Note_on_c, 0, 66, 95
2, 41280, Note_on_c, 0, 62, 95
2, 41280, Note_on_c, 0, 57, 95
2, 41280, Note_on_c, 0, 50, 95
2, 41760, Note_off_c, 0, 69, 95
2, 41760, Note_off_c, 0, 66, 95
2, 41760, Note_off_c, 0, 62, 95
2, 41760, Note_off_c, 0, 57, 95
2, 41760, Note_off_c, 0, 50, 95
2, 41760, Note_on_c, 0, 40, 95
2, 42240, Note_off_c, 0, 40, 95
2, 42240, Note_on_c, 0, 56, 95
2, 42240, Note_on_c, 0, 52, 95
2, 42240, Note_on_c, 0, 47, 95
2, 42240, Note_on_c, 0, 40, 95
2, 43200, Note_off_c, 0, 56, 95
2, 43200, Note_off_c, 0, 52, 95
2, 43200, Note_off_c, 0, 47, 95
2, 43200, Note_off_c, 0, 40, 95
2, 43200, Note_on_c, 0, 56, 95
2, 43200, Note_on_c, 0, 52, 95
2, 43200, Note_on_c, 0, 47, 95
2, 43200, Note_on_c, 0, 40, 95
2, 43680, Note_off_c, 0, 56, 95
2, 43680, Note_off_c, 0, 52, 95
2, 43680, Note_off_c, 0, 47, 95
2, 43680, Note_off_c, 0, 40, 95
2, 43680, Note_on_c, 0, 56, 95
2, 43680, Note_on_c, 0, 52, 95
2, 43680, Note_on_c, 0, 47, 95
2, 43680, Note_on_c, 0, 40, 95
2, 44160, Note_off_c, 0, 56, 95
2, 44640, Note_off_c, 0, 52, 95
2, 44640, Note_off_c, 0, 47, 95
2, 44640, Note_off_c, 0, 40, 95
2, 44640, Note_on_c, 0, 56, 95
2, 44640, Note_on_c, 0, 52, 95
2, 44640, Note_on_c, 0, 47, 95
2, 44640, Note_on_c, 0, 40, 95
2, 45120, Note_off_c, 0, 56, 95
2, 45120, Note_off_c, 0, 52, 95
2, 45120, Note_off_c, 0, 47, 95
2, 45120, Note_off_c, 0, 40, 95
2, 45120, Note_on_c, 0, 56, 95
2, 45120, Note_on_c, 0, 52, 95
2, 45120, Note_on_c, 0, 47, 95
2, 45120, Note_on_c, 0, 40, 95
2, 45600, Note_off_c, 0, 56, 95
2, 45600, Note_off_c, 0, 52, 95
2, 45600, Note_off_c, 0, 47, 95
2, 45600, Note_off_c, 0, 40, 95
2, 45600, Note_on_c, 0, 56, 95
2, 45600, Note_on_c, 0, 52, 95
2, 45600, Note_on_c, 0, 47, 95
2, 45600, Note_on_c, 0, 40, 95
2, 46080, Note_off_c, 0, 56, 95
2, 46080, Note_off_c, 0, 52, 95
2, 46080, Note_off_c, 0, 47, 95
2, 46080, Note_off_c, 0, 40, 95
2, 46080, Note_on_c, 0, 54, 95
2, 46080, Note_on_c, 0, 49, 95
2, 46080, Note_on_c, 0, 42, 95
2, 47040, Note_off_c, 0, 54, 95
2, 47040, Note_off_c, 0, 49, 95
2, 47040, Note_off_c, 0, 42, 95
2, 47040, Note_on_c, 0, 54, 95
2, 47040, Note_on_c, 0, 49, 95
2, 47040, Note_on_c, 0, 42, 95
2, 47520, Note_off_c, 0, 54, 95
2, 47520, Note_off_c, 0, 49, 95
2, 47520, Note_off_c, 0, 42, 95
2, 47520, Note_on_c, 0, 54, 95
2, 47520, Note_on_c, 0, 49, 95
2, 47520, Note_on_c, 0, 42, 95
2, 48480, Note_off_c, 0, 54, 95
2, 48480, Note_off_c, 0, 49, 95
2, 48480, Note_off_c, 0, 42, 95
2, 48480, Note_on_c, 0, 54, 95
2, 48480, Note_on_c, 0, 49, 95
2, 48480, Note_on_c, 0, 42, 95
2, 48960, Note_off_c, 0, 54, 95
2, 48960, Note_off_c, 0, 49, 95
2, 48960, Note_off_c, 0, 42, 95
2, 48960, Note_on_c, 0, 54, 95
2, 48960, Note_on_c, 0, 49, 95
2, 48960, Note_on_c, 0, 42, 95
2, 49440, Note_off_c, 0, 54, 95
2, 49440, Note_off_c, 0, 49, 95
2, 49440, Note_off_c, 0, 42, 95
2, 49440, Note_on_c, 0, 40, 95
2, 49920, Note_off_c, 0, 40, 95
2, 49920, Note_on_c, 0, 69, 95
2, 49920, Note_on_c, 0, 64, 95
2, 49920, Note_on_c, 0, 61, 95
2, 49920, Note_on_c, 0, 57, 95
2, 49920, Note_on_c, 0, 52, 95
2, 49920, Note_on_c, 0, 45, 95
2, 50880, Note_off_c, 0, 69, 95
2, 50880, Note_off_c, 0, 64, 95
2, 50880, Note_off_c, 0, 61, 95
2, 50880, Note_off_c, 0, 57, 95
2, 50880, Note_off_c, 0, 52, 95
2, 50880, Note_off_c, 0, 45, 95
2, 50880, Note_on_c, 0, 69, 95
2, 50880, Note_on_c, 0, 64, 95
2, 50880, Note_on_c, 0, 61, 95
2, 50880, Note_on_c, 0, 57, 95
2, 50880, Note_on_c, 0, 52, 95
2, 50880, Note_on_c, 0, 45, 95
2, 51360, Note_off_c, 0, 69, 95
2, 51360, Note_off_c, 0, 64, 95
2, 51360, Note_off_c, 0, 61, 95
2, 51360, Note_off_c, 0, 57, 95
2, 51360, Note_off_c, 0, 52, 95
2, 51360, Note_off_c, 0, 45, 95
2, 51360, Note_on_c, 0, 69, 95
2, 51360, Note_on_c, 0, 64, 95
2, 51360, Note_on_c, 0, 61, 95
2, 51360, Note_on_c, 0, 57, 95
2, 51360, Note_on_c, 0, 52, 95
2, 51360, Note_on_c, 0, 45, 95
2, 51840, Note_off_c, 0, 69, 95
2, 51840, Note_off_c, 0, 45, 95
2, 52320, Note_off_c, 0, 64, 95
2, 52320, Note_off_c, 0, 61, 95
2, 52320, Note_off_c, 0, 57, 95
2, 52320, Note_off_c, 0, 52, 95
2, 52320, Note_on_c, 0, 69, 95
2, 52320, Note_on_c, 0, 64, 95
2, 52320, Note_on_c, 0, 61, 95
2, 52320, Note_on_c, 0, 57, 95
2, 52320, Note_on_c, 0, 52, 95
2, 52320, Note_on_c, 0, 45, 95
2, 52800, Note_off_c, 0, 69, 95
2, 52800, Note_off_c, 0, 64, 95
2, 52800, Note_off_c, 0, 61, 95
2, 52800, Note_off_c, 0, 57, 95
2, 52800, Note_off_c, 0, 52, 95
2, 52800, Note_off_c, 0, 45, 95
2, 52800, Note_on_c, 0, 69, 95
2, 52800, Note_on_c, 0, 64, 95
2, 52800, Note_on_c, 0, 61, 95
2, 52800, Note_on_c, 0, 57, 95
2, 52800, Note_on_c, 0, 52, 95
2, 52800, Note_on_c, 0, 45, 95
2, 53280, Note_off_c, 0, 69, 95
2, 53280, Note_off_c, 0, 64, 95
2, 53280, Note_off_c, 0, 61, 95
2, 53280, Note_off_c, 0, 57, 95
2, 53280, Note_off_c, 0, 52, 95
2, 53280, Note_off_c, 0, 45, 95
2, 53280, Note_on_c, 0, 69, 95
2, 53280, Note_on_c, 0, 64, 95
2, 53280, Note_on_c, 0, 61, 95
2, 53280, Note_on_c, 0, 57, 95
2, 53280, Note_on_c, 0, 52, 95
2, 53280, Note_on_c, 0, 45, 95
2, 53760, Note_off_c, 0, 69, 95
2, 53760, Note_off_c, 0, 64, 95
2, 53760, Note_off_c, 0, 61, 95
2, 53760, Note_off_c, 0, 57, 95
2, 53760, Note_off_c, 0, 52, 95
2, 53760, Note_off_c, 0, 45, 95
2, 53760, Note_on_c, 0, 69, 95
2, 53760, Note_on_c, 0, 66, 95
2, 53760, Note_on_c, 0, 62, 95
2, 53760, Note_on_c, 0, 57, 95
2, 53760, Note_on_c, 0, 50, 95
2, 54720, Note_off_c, 0, 69, 95
2, 54720, Note_off_c, 0, 66, 95
2, 54720, Note_off_c, 0, 62, 95
2, 54720, Note_off_c, 0, 57, 95
2, 54720, Note_off_c, 0, 50, 95
2, 54720, Note_on_c, 0, 69, 95
2, 54720, Note_on_c, 0, 66, 95
2, 54720, Note_on_c, 0, 62, 95
2, 54720, Note_on_c, 0, 57, 95
2, 54720, Note_on_c, 0, 50, 95
2, 55200, Note_off_c, 0, 69, 95
2, 55200, Note_off_c, 0, 66, 95
2, 55200, Note_off_c, 0, 62, 95
2, 55200, Note_off_c, 0, 57, 95
2, 55200, Note_off_c, 0, 50, 95
2, 55200, Note_on_c, 0, 69, 95
2, 55200, Note_on_c, 0, 66, 95
2, 55200, Note_on_c, 0, 62, 95
2, 55200, Note_on_c, 0, 57, 95
2, 55200, Note_on_c, 0, 50, 95
2, 55680, Note_off_c, 0, 69, 95
2, 56160, Note_off_c, 0, 66, 95
2, 56160, Note_off_c, 0, 62, 95
2, 56160, Note_off_c, 0, 57, 95
2, 56160, Note_off_c, 0, 50, 95
2, 56160, Note_on_c, 0, 69, 95
2, 56160, Note_on_c, 0, 66, 95
2, 56160, Note_on_c, 0, 62, 95
2, 56160, Note_on_c, 0, 57, 95
2, 56160, Note_on_c, 0, 50, 95
2, 56640, Note_off_c, 0, 69, 95
2, 56640, Note_off_c, 0, 66, 95
2, 56640, Note_off_c, 0, 62, 95
2, 56640, Note_off_c, 0, 57, 95
2, 56640, Note_off_c, 0, 50, 95
2, 56640, Note_on_c, 0, 69, 95
2, 56640, Note_on_c, 0, 66, 95
2, 56640, Note_on_c, 0, 62, 95
2, 56640, Note_on_c, 0, 57, 95
2, 56640, Note_on_c, 0, 50, 95
2, 57120, Note_off_c, 0, 69, 95
2, 57120, Note_off_c, 0, 66, 95
2, 57120, Note_off_c, 0, 62, 95
2, 57120, Note_off_c, 0, 57, 95
2, 57120, Note_off_c, 0, 50, 95
2, 57120, Note_on_c, 0, 55, 95
2, 57120, Note_on_c, 0, 50, 95
2, 57120, Note_on_c, 0, 45, 95
2, 57216, Note_off_c, 0, 55, 95
2, 57216, Note_off_c, 0, 50, 95
2, 57216, Note_off_c, 0, 45, 95
2, 57600, Note_on_c, 0, 56, 95
2, 57600, Note_on_c, 0, 52, 95
2, 57600, Note_on_c, 0, 47, 95
2, 57600, Note_on_c, 0, 40, 95
2, 58560, Note_off_c, 0, 56, 95
2, 58560, Note_off_c, 0, 52, 95
2, 58560, Note_off_c, 0, 47, 95
2, 58560, Note_off_c, 0, 40, 95
2, 58560, Note_on_c, 0, 56, 95
2, 58560, Note_on_c, 0, 52, 95
2, 58560, Note_on_c, 0, 47, 95
2, 58560, Note_on_c, 0, 40, 95
2, 59040, Note_off_c, 0, 56, 95
2, 59040, Note_off_c, 0, 52, 95
2, 59040, Note_off_c, 0, 47, 95
2, 59040, Note_off_c, 0, 40, 95
2, 59040, Note_on_c, 0, 56, 95
2, 59040, Note_on_c, 0, 52, 95
2, 59040, Note_on_c, 0, 47, 95
2, 59040, Note_on_c, 0, 40, 95
2, 59520, Note_off_c, 0, 56, 95
2, 60000, Note_off_c, 0, 52, 95
2, 60000, Note_off_c, 0, 47, 95
2, 60000, Note_off_c, 0, 40, 95
2, 60000, Note_on_c, 0, 56, 95
2, 60000, Note_on_c, 0, 52, 95
2, 60000, Note_on_c, 0, 47, 95
2, 60000, Note_on_c, 0, 40, 95
2, 60480, Note_off_c, 0, 56, 95
2, 60480, Note_off_c, 0, 52, 95
2, 60480, Note_off_c, 0, 47, 95
2, 60480, Note_off_c, 0, 40, 95
2, 60480, Note_on_c, 0, 56, 95
2, 60480, Note_on_c, 0, 52, 95
2, 60480, Note_on_c, 0, 47, 95
2, 60480, Note_on_c, 0, 40, 95
2, 60960, Note_off_c, 0, 56, 95
2, 60960, Note_off_c, 0, 52, 95
2, 60960, Note_off_c, 0, 47, 95
2, 60960, Note_off_c, 0, 40, 95
2, 60960, Note_on_c, 0, 56, 95
2, 60960, Note_on_c, 0, 52, 95
2, 60960, Note_on_c, 0, 47, 95
2, 60960, Note_on_c, 0, 40, 95
2, 61440, Note_off_c, 0, 56, 95
2, 61440, Note_off_c, 0, 52, 95
2, 61440, Note_off_c, 0, 47, 95
2, 61440, Note_off_c, 0, 40, 95
2, 61440, Note_on_c, 0, 54, 95
2, 61440, Note_on_c, 0, 49, 95
2, 61440, Note_on_c, 0, 42, 95
2, 62400, Note_off_c, 0, 54, 95
2, 62400, Note_off_c, 0, 49, 95
2, 62400, Note_off_c, 0, 42, 95
2, 62400, Note_on_c, 0, 54, 95
2, 62400, Note_on_c, 0, 49, 95
2, 62400, Note_on_c, 0, 42, 95
2, 62880, Note_off_c, 0, 54, 95
2, 62880, Note_off_c, 0, 49, 95
2, 62880, Note_off_c, 0, 42, 95
2, 62880, Note_on_c, 0, 54, 95
2, 62880, Note_on_c, 0, 49, 95
2, 62880, Note_on_c, 0, 42, 95
2, 63840, Note_off_c, 0, 54, 95
2, 63840, Note_off_c, 0, 49, 95
2, 63840, Note_off_c, 0, 42, 95
2, 63840, Note_on_c, 0, 54, 95
2, 63840, Note_on_c, 0, 49, 95
2, 63840, Note_on_c, 0, 42, 95
2, 64320, Note_off_c, 0, 54, 95
2, 64320, Note_off_c, 0, 49, 95
2, 64320, Note_off_c, 0, 42, 95
2, 64320, Note_on_c, 0, 54, 95
2, 64320, Note_on_c, 0, 49, 95
2, 64320, Note_on_c, 0, 42, 95
2, 64800, Note_off_c, 0, 54, 95
2, 64800, Note_off_c, 0, 49, 95
2, 64800, Note_off_c, 0, 42, 95
2, 64800, Note_on_c, 0, 54, 95
2, 64800, Note_on_c, 0, 49, 95
2, 64800, Note_on_c, 0, 42, 95
2, 65280, Note_off_c, 0, 54, 95
2, 65280, Note_off_c, 0, 49, 95
2, 65280, Note_off_c, 0, 42, 95
2, 65280, Note_on_c, 0, 57, 95
2, 65280, Note_on_c, 0, 52, 95
2, 65280, Note_on_c, 0, 45, 95
2, 66240, Note_off_c, 0, 57, 95
2, 66240, Note_off_c, 0, 52, 95
2, 66240, Note_off_c, 0, 45, 95
2, 66240, Note_on_c, 0, 57, 95
2, 66240, Note_on_c, 0, 52, 95
2, 66240, Note_on_c, 0, 45, 95
2, 66720, Note_off_c, 0, 57, 95
2, 66720, Note_off_c, 0, 52, 95
2, 66720, Note_off_c, 0, 45, 95
2, 66720, Note_on_c, 0, 57, 95
2, 66720, Note_on_c, 0, 52, 95
2, 66720, Note_on_c, 0, 45, 95
2, 67200, Note_off_c, 0, 45, 95
2, 67680, Note_off_c, 0, 57, 95
2, 67680, Note_off_c, 0, 52, 95
2, 67680, Note_on_c, 0, 57, 95
2, 67680, Note_on_c, 0, 52, 95
2, 67680, Note_on_c, 0, 45, 95
2, 68160, Note_off_c, 0, 57, 95
2, 68160, Note_off_c, 0, 52, 95
2, 68160, Note_off_c, 0, 45, 95
2, 68160, Note_on_c, 0, 57, 95
2, 68160, Note_on_c, 0, 52, 95
2, 68160, Note_on_c, 0, 45, 95
2, 68640, Note_off_c, 0, 57, 95
2, 68640, Note_off_c, 0, 52, 95
2, 68640, Note_off_c, 0, 45, 95
2, 68640, Note_on_c, 0, 45, 95
2, 68640, Note_on_c, 0, 40, 95
2, 69120, Note_off_c, 0, 45, 95
2, 69120, Note_off_c, 0, 40, 95
2, 69120, Note_on_c, 0, 54, 95
2, 69120, Note_on_c, 0, 49, 95
2, 69120, Note_on_c, 0, 42, 95
2, 69600, Note_off_c, 0, 54, 95
2, 69600, Note_off_c, 0, 49, 95
2, 69600, Note_off_c, 0, 42, 95
2, 76800, Note_on_c, 0, 71, 95
2, 76800, Note_on_c, 0, 66, 95
2, 76800, Note_on_c, 0, 63, 95
2, 76800, Note_on_c, 0, 59, 95
2, 76800, Note_on_c, 0, 54, 95
2, 76800, Note_on_c, 0, 47, 95
2, 77760, Note_off_c, 0, 71, 95
2, 77760, Note_off_c, 0, 66, 95
2, 77760, Note_off_c, 0, 63, 95
2, 77760, Note_off_c, 0, 59, 95
2, 77760, Note_off_c, 0, 54, 95
2, 77760, Note_off_c, 0, 47, 95
2, 77760, Note_on_c, 0, 71, 95
2, 77760, Note_on_c, 0, 66, 95
2, 77760, Note_on_c, 0, 63, 95
2, 77760, Note_on_c, 0, 59, 95
2, 77760, Note_on_c, 0, 54, 95
2, 77760, Note_on_c, 0, 47, 95
2, 78240, Note_off_c, 0, 71, 95
2, 78240, Note_off_c, 0, 66, 95
2, 78240, Note_off_c, 0, 63, 95
2, 78240, Note_off_c, 0, 59, 95
2, 78240, Note_off_c, 0, 54, 95
2, 78240, Note_off_c, 0, 47, 95
2, 78240, Note_on_c, 0, 71, 95
2, 78240, Note_on_c, 0, 66, 95
2, 78240, Note_on_c, 0, 63, 95
2, 78240, Note_on_c, 0, 59, 95
2, 78240, Note_on_c, 0, 54, 95
2, 78240, Note_on_c, 0, 47, 95
2, 78720, Note_off_c, 0, 71, 95
2, 78720, Note_off_c, 0, 47, 95
2, 79200, Note_off_c, 0, 66, 95
2, 79200, Note_off_c, 0, 63, 95
2, 79200, Note_off_c, 0, 59, 95
2, 79200, Note_off_c, 0, 54, 95
2, 79200, Note_on_c, 0, 71, 95
2, 79200, Note_on_c, 0, 66, 95
2, 79200, Note_on_c, 0, 63, 95
2, 79200, Note_on_c, 0, 59, 95
2, 79200, Note_on_c, 0, 54, 95
2, 79200, Note_on_c, 0, 47, 95
2, 79680, Note_off_c, 0, 71, 95
2, 79680, Note_off_c, 0, 66, 95
2, 79680, Note_off_c, 0, 63, 95
2, 79680, Note_off_c, 0, 59, 95
2, 79680, Note_off_c, 0, 54, 95
2, 79680, Note_off_c, 0, 47, 95
2, 79680, Note_on_c, 0, 71, 95
2, 79680, Note_on_c, 0, 66, 95
2, 79680, Note_on_c, 0, 63, 95
2, 79680, Note_on_c, 0, 59, 95
2, 79680, Note_on_c, 0, 54, 95
2, 79680, Note_on_c, 0, 47, 95
2, 80640, Note_off_c, 0, 71, 95
2, 80640, Note_off_c, 0, 66, 95
2, 80640, Note_off_c, 0, 63, 95
2, 80640, Note_off_c, 0, 59, 95
2, 80640, Note_off_c, 0, 54, 95
2, 80640, Note_off_c, 0, 47, 95
2, 80640, Note_on_c, 0, 69, 95
2, 80640, Note_on_c, 0, 64, 95
2, 80640, Note_on_c, 0, 61, 95
2, 80640, Note_on_c, 0, 57, 95
2, 80640, Note_on_c, 0, 52, 95
2, 80640, Note_on_c, 0, 45, 95
2, 81600, Note_off_c, 0, 69, 95
2, 81600, Note_off_c, 0, 64, 95
2, 81600, Note_off_c, 0, 61, 95
2, 81600, Note_off_c, 0, 57, 95
2, 81600, Note_off_c, 0, 52, 95
2, 81600, Note_off_c, 0, 45, 95
2, 81600, Note_on_c, 0, 69, 95
2, 81600, Note_on_c, 0, 64, 95
2, 81600, Note_on_c, 0, 61, 95
2, 81600, Note_on_c, 0, 57, 95
2, 81600, Note_on_c, 0, 52, 95
2, 81600, Note_on_c, 0, 45, 95
2, 82080, Note_off_c, 0, 69, 95
2, 82080, Note_off_c, 0, 64, 95
2, 82080, Note_off_c, 0, 61, 95
2, 82080, Note_off_c, 0, 57, 95
2, 82080, Note_off_c, 0, 52, 95
2, 82080, Note_off_c, 0, 45, 95
2, 82080, Note_on_c, 0, 69, 95
2, 82080, Note_on_c, 0, 64, 95
2, 82080, Note_on_c, 0, 61, 95
2, 82080, Note_on_c, 0, 57, 95
2, 82080, Note_on_c, 0, 52, 95
2, 82080, Note_on_c, 0, 45, 95
2, 82560, Note_off_c, 0, 69, 95
2, 82560, Note_off_c, 0, 45, 95
2, 83040, Note_off_c, 0, 64, 95
2, 83040, Note_off_c, 0, 61, 95
2, 83040, Note_off_c, 0, 57, 95
2, 83040, Note_off_c, 0, 52, 95
2, 83040, Note_on_c, 0, 69, 95
2, 83040, Note_on_c, 0, 64, 95
2, 83040, Note_on_c, 0, 61, 95
2, 83040, Note_on_c, 0, 57, 95
2, 83040, Note_on_c, 0, 52, 95
2, 83040, Note_on_c, 0, 45, 95
2, 83520, Note_off_c, 0, 69, 95
2, 83520, Note_off_c, 0, 64, 95
2, 83520, Note_off_c, 0, 61, 95
2, 83520, Note_off_c, 0, 57, 95
2, 83520, Note_off_c, 0, 52, 95
2, 83520, Note_off_c, 0, 45, 95
2, 83520, Note_on_c, 0, 69, 95
2, 83520, Note_on_c, 0, 64, 95
2, 83520, Note_on_c, 0, 61, 95
2, 83520, Note_on_c, 0, 57, 95
2, 83520, Note_on_c, 0, 52, 95
2, 83520, Note_on_c, 0, 45, 95
2, 84480, Note_off_c, 0, 69, 95
2, 84480, Note_off_c, 0, 64, 95
2, 84480, Note_off_c, 0, 61, 95
2, 84480, Note_off_c, 0, 57, 95
2, 84480, Note_off_c, 0, 52, 95
2, 84480, Note_off_c, 0, 45, 95
2, 84480, Note_on_c, 0, 69, 95
2, 84480, Note_on_c, 0, 66, 95
2, 84480, Note_on_c, 0, 62, 95
2, 84480, Note_on_c, 0, 57, 95
2, 84480, Note_on_c, 0, 50, 95
2, 84480, Note_on_c, 0, 45, 95
2, 85440, Note_off_c, 0, 69, 95
2, 85440, Note_off_c, 0, 66, 95
2, 85440, Note_off_c, 0, 62, 95
2, 85440, Note_off_c, 0, 57, 95
2, 85440, Note_off_c, 0, 50, 95
2, 85440, Note_off_c, 0, 45, 95
2, 85440, Note_on_c, 0, 69, 95
2, 85440, Note_on_c, 0, 66, 95
2, 85440, Note_on_c, 0, 62, 95
2, 85440, Note_on_c, 0, 57, 95
2, 85440, Note_on_c, 0, 50, 95
2, 85440, Note_on_c, 0, 45, 95
2, 85920, Note_off_c, 0, 69, 95
2, 85920, Note_off_c, 0, 66, 95
2, 85920, Note_off_c, 0, 62, 95
2, 85920, Note_off_c, 0, 57, 95
2, 85920, Note_off_c, 0, 50, 95
2, 85920, Note_off_c, 0, 45, 95
2, 85920, Note_on_c, 0, 69, 95
2, 85920, Note_on_c, 0, 66, 95
2, 85920, Note_on_c, 0, 62, 95
2, 85920, Note_on_c, 0, 57, 95
2, 85920, Note_on_c, 0, 50, 95
2, 86400, Note_off_c, 0, 69, 95
2, 86880, Note_off_c, 0, 66, 95
2, 86880, Note_off_c, 0, 62, 95
2, 86880, Note_off_c, 0, 57, 95
2, 86880, Note_off_c, 0, 50, 95
2, 86880, Note_on_c, 0, 69, 95
2, 86880, Note_on_c, 0, 66, 95
2, 86880, Note_on_c, 0, 62, 95
2, 86880, Note_on_c, 0, 57, 95
2, 86880, Note_on_c, 0, 50, 95
2, 87360, Note_off_c, 0, 69, 95
2, 87360, Note_off_c, 0, 66, 95
2, 87360, Note_off_c, 0, 62, 95
2, 87360, Note_off_c, 0, 57, 95
2, 87360, Note_off_c, 0, 50, 95
2, 87360, Note_on_c, 0, 69, 95
2, 87360, Note_on_c, 0, 66, 95
2, 87360, Note_on_c, 0, 62, 95
2, 87360, Note_on_c, 0, 57, 95
2, 87360, Note_on_c, 0, 50, 95
2, 88320, Note_off_c, 0, 69, 95
2, 88320, Note_off_c, 0, 66, 95
2, 88320, Note_off_c, 0, 62, 95
2, 88320, Note_off_c, 0, 57, 95
2, 88320, Note_off_c, 0, 50, 95
2, 88320, Note_on_c, 0, 56, 95
2, 88320, Note_on_c, 0, 52, 95
2, 88320, Note_on_c, 0, 47, 95
2, 88320, Note_on_c, 0, 40, 95
2, 89280, Note_off_c, 0, 56, 95
2, 89280, Note_off_c, 0, 52, 95
2, 89280, Note_off_c, 0, 47, 95
2, 89280, Note_off_c, 0, 40, 95
2, 89280, Note_on_c, 0, 56, 95
2, 89280, Note_on_c, 0, 52, 95
2, 89280, Note_on_c, 0, 47, 95
2, 89280, Note_on_c, 0, 40, 95
2, 89760, Note_off_c, 0, 56, 95
2, 89760, Note_off_c, 0, 52, 95
2, 89760, Note_off_c, 0, 47, 95
2, 89760, Note_off_c, 0, 40, 95
2, 89760, Note_on_c, 0, 56, 95
2, 89760, Note_on_c, 0, 52, 95
2, 89760, Note_on_c, 0, 47, 95
2, 89760, Note_on_c, 0, 40, 95
2, 90240, Note_off_c, 0, 56, 95
2, 90720, Note_off_c, 0, 52, 95
2, 90720, Note_off_c, 0, 47, 95
2, 90720, Note_off_c, 0, 40, 95
2, 90720, Note_on_c, 0, 56, 95
2, 90720, Note_on_c, 0, 52, 95
2, 90720, Note_on_c, 0, 47, 95
2, 90720, Note_on_c, 0, 40, 95
2, 91200, Note_off_c, 0, 56, 95
2, 91200, Note_off_c, 0, 52, 95
2, 91200, Note_off_c, 0, 47, 95
2, 91200, Note_off_c, 0, 40, 95
2, 91200, Note_on_c, 0, 56, 95
2, 91200, Note_on_c, 0, 52, 95
2, 91200, Note_on_c, 0, 47, 95
2, 91200, Note_on_c, 0, 40, 95
2, 92160, Note_off_c, 0, 56, 95
2, 92160, Note_off_c, 0, 52, 95
2, 92160, Note_off_c, 0, 47, 95
2, 92160, Note_off_c, 0, 40, 95
2, 92160, Note_on_c, 0, 71, 95
2, 92160, Note_on_c, 0, 66, 95
2, 92160, Note_on_c, 0, 63, 95
2, 92160, Note_on_c, 0, 59, 95
2, 92160, Note_on_c, 0, 54, 95
2, 92160, Note_on_c, 0, 47, 95
2, 93120, Note_off_c, 0, 71, 95
2, 93120, Note_off_c, 0, 66, 95
2, 93120, Note_off_c, 0, 63, 95
2, 93120, Note_off_c, 0, 59, 95
2, 93120, Note_off_c, 0, 54, 95
2, 93120, Note_off_c, 0, 47, 95
2, 93120, Note_on_c, 0, 71, 95
2, 93120, Note_on_c, 0, 66, 95
2, 93120, Note_on_c, 0, 63, 95
2, 93120, Note_on_c, 0, 59, 95
2, 93120, Note_on_c, 0, 54, 95
2, 93120, Note_on_c, 0, 47, 95
2, 93600, Note_off_c, 0, 71, 95
2, 93600, Note_off_c, 0, 66, 95
2, 93600, Note_off_c, 0, 63, 95
2, 93600, Note_off_c, 0, 59, 95
2, 93600, Note_off_c, 0, 54, 95
2, 93600, Note_off_c, 0, 47, 95
2, 93600, Note_on_c, 0, 71, 95
2, 93600, Note_on_c, 0, 66, 95
2, 93600, Note_on_c, 0, 63, 95
2, 93600, Note_on_c, 0, 59, 95
2, 93600, Note_on_c, 0, 54, 95
2, 93600, Note_on_c, 0, 47, 95
2, 94080, Note_off_c, 0, 71, 95
2, 94080, Note_off_c, 0, 47, 95
2, 94560, Note_off_c, 0, 66, 95
2, 94560, Note_off_c, 0, 63, 95
2, 94560, Note_off_c, 0, 59, 95
2, 94560, Note_off_c, 0, 54, 95
2, 94560, Note_on_c, 0, 71, 95
2, 94560, Note_on_c, 0, 66, 95
2, 94560, Note_on_c, 0, 63, 95
2, 94560, Note_on_c, 0, 59, 95
2, 94560, Note_on_c, 0, 54, 95
2, 94560, Note_on_c, 0, 47, 95
2, 95040, Note_off_c, 0, 71, 95
2, 95040, Note_off_c, 0, 66, 95
2, 95040, Note_off_c, 0, 63, 95
2, 95040, Note_off_c, 0, 59, 95
2, 95040, Note_off_c, 0, 54, 95
2, 95040, Note_off_c, 0, 47, 95
2, 95040, Note_on_c, 0, 71, 95
2, 95040, Note_on_c, 0, 66, 95
2, 95040, Note_on_c, 0, 63, 95
2, 95040, Note_on_c, 0, 59, 95
2, 95040, Note_on_c, 0, 54, 95
2, 95040, Note_on_c, 0, 47, 95
2, 95520, Note_off_c, 0, 71, 95
2, 95520, Note_off_c, 0, 66, 95
2, 95520, Note_off_c, 0, 63, 95
2, 95520, Note_off_c, 0, 59, 95
2, 95520, Note_off_c, 0, 54, 95
2, 95520, Note_off_c, 0, 47, 95
2, 95520, Note_on_c, 0, 50, 95
2, 95520, Note_on_c, 0, 45, 95
2, 96000, Note_off_c, 0, 50, 95
2, 96000, Note_off_c, 0, 45, 95
2, 96000, Note_on_c, 0, 69, 95
2, 96000, Note_on_c, 0, 64, 95
2, 96000, Note_on_c, 0, 61, 95
2, 96000, Note_on_c, 0, 57, 95
2, 96000, Note_on_c, 0, 52, 95
2, 96000, Note_on_c, 0, 45, 95
2, 96960, Note_off_c, 0, 69, 95
2, 96960, Note_off_c, 0, 64, 95
2, 96960, Note_off_c, 0, 61, 95
2, 96960, Note_off_c, 0, 57, 95
2, 96960, Note_off_c, 0, 52, 95
2, 96960, Note_off_c, 0, 45, 95
2, 96960, Note_on_c, 0, 69, 95
2, 96960, Note_on_c, 0, 64, 95
2, 96960, Note_on_c, 0, 61, 95
2, 96960, Note_on_c, 0, 57, 95
2, 96960, Note_on_c, 0, 52, 95
2, 96960, Note_on_c, 0, 45, 95
2, 97440, Note_off_c, 0, 69, 95
2, 97440, Note_off_c, 0, 64, 95
2, 97440, Note_off_c, 0, 61, 95
2, 97440, Note_off_c, 0, 57, 95
2, 97440, Note_off_c, 0, 52, 95
2, 97440, Note_off_c, 0, 45, 95
2, 97440, Note_on_c, 0, 69, 95
2, 97440, Note_on_c, 0, 64, 95
2, 97440, Note_on_c, 0, 61, 95
2, 97440, Note_on_c, 0, 57, 95
2, 97440, Note_on_c, 0, 52, 95
2, 97440, Note_on_c, 0, 45, 95
2, 97920, Note_off_c, 0, 69, 95
2, 97920, Note_off_c, 0, 45, 95
2, 98400, Note_off_c, 0, 64, 95
2, 98400, Note_off_c, 0, 61, 95
2, 98400, Note_off_c, 0, 57, 95
2, 98400, Note_off_c, 0, 52, 95
2, 98400, Note_on_c, 0, 69, 95
2, 98400, Note_on_c, 0, 64, 95
2, 98400, Note_on_c, 0, 61, 95
2, 98400, Note_on_c, 0, 57, 95
2, 98400, Note_on_c, 0, 52, 95
2, 98400, Note_on_c, 0, 45, 95
2, 98880, Note_off_c, 0, 69, 95
2, 98880, Note_off_c, 0, 64, 95
2, 98880, Note_off_c, 0, 61, 95
2, 98880, Note_off_c, 0, 57, 95
2, 98880, Note_off_c, 0, 52, 95
2, 98880, Note_off_c, 0, 45, 95
2, 98880, Note_on_c, 0, 69, 95
2, 98880, Note_on_c, 0, 64, 95
2, 98880, Note_on_c, 0, 61, 95
2, 98880, Note_on_c, 0, 57, 95
2, 98880, Note_on_c, 0, 52, 95
2, 98880, Note_on_c, 0, 45, 95
2, 99360, Note_off_c, 0, 69, 95
2, 99360, Note_off_c, 0, 64, 95
2, 99360, Note_off_c, 0, 61, 95
2, 99360, Note_off_c, 0, 57, 95
2, 99360, Note_off_c, 0, 52, 95
2, 99360, Note_off_c, 0, 45, 95
2, 99360, Note_on_c, 0, 50, 95
2, 99360, Note_on_c, 0, 45, 95
2, 99600, Note_off_c, 0, 50, 95
2, 99600, Note_off_c, 0, 45, 95
2, 99600, Note_on_c, 0, 50, 95
2, 99600, Note_on_c, 0, 45, 95
2, 99840, Note_off_c, 0, 50, 95
2, 99840, Note_off_c, 0, 45, 95
2, 99840, Note_on_c, 0, 69, 95
2, 99840, Note_on_c, 0, 66, 95
2, 99840, Note_on_c, 0, 62, 95
2, 99840, Note_on_c, 0, 57, 95
2, 99840, Note_on_c, 0, 50, 95
2, 100800, Note_off_c, 0, 69, 95
2, 100800, Note_off_c, 0, 66, 95
2, 100800, Note_off_c, 0, 62, 95
2, 100800, Note_off_c, 0, 57, 95
2, 100800, Note_off_c, 0, 50, 95
2, 100800, Note_on_c, 0, 69, 95
2, 100800, Note_on_c, 0, 66, 95
2, 100800, Note_on_c, 0, 62, 95
2, 100800, Note_on_c, 0, 57, 95
2, 100800, Note_on_c, 0, 50, 95
2, 101280, Note_off_c, 0, 69, 95
2, 101280, Note_off_c, 0, 66, 95
2, 101280, Note_off_c, 0, 62, 95
2, 101280, Note_off_c, 0, 57, 95
2, 101280, Note_off_c, 0, 50, 95
2, 101280, Note_on_c, 0, 69, 95
2, 101280, Note_on_c, 0, 66, 95
2, 101280, Note_on_c, 0, 62, 95
2, 101280, Note_on_c, 0, 57, 95
2, 101280, Note_on_c, 0, 50, 95
2, 101760, Note_off_c, 0, 69, 95
2, 102240, Note_off_c, 0, 66, 95
2, 102240, Note_off_c, 0, 62, 95
2, 102240, Note_off_c, 0, 57, 95
2, 102240, Note_off_c, 0, 50, 95
2, 102240, Note_on_c, 0, 69, 95
2, 102240, Note_on_c, 0, 66, 95
2, 102240, Note_on_c, 0, 62, 95
2, 102240, Note_on_c, 0, 57, 95
2, 102240, Note_on_c, 0, 50, 95
2, 102720, Note_off_c, 0, 69, 95
2, 102720, Note_off_c, 0, 66, 95
2, 102720, Note_off_c, 0, 62, 95
2, 102720, Note_off_c, 0, 57, 95
2, 102720, Note_off_c, 0, 50, 95
2, 102720, Note_on_c, 0, 69, 95
2, 102720, Note_on_c, 0, 66, 95
2, 102720, Note_on_c, 0, 62, 95
2, 102720, Note_on_c, 0, 57, 95
2, 102720, Note_on_c, 0, 50, 95
2, 103200, Note_off_c, 0, 69, 95
2, 103200, Note_off_c, 0, 66, 95
2, 103200, Note_off_c, 0, 62, 95
2, 103200, Note_off_c, 0, 57, 95
2, 103200, Note_off_c, 0, 50, 95
2, 103200, Note_on_c, 0, 40, 95
2, 103680, Note_off_c, 0, 40, 95
2, 103680, Note_on_c, 0, 56, 95
2, 103680, Note_on_c, 0, 52, 95
2, 103680, Note_on_c, 0, 47, 95
2, 103680, Note_on_c, 0, 40, 95
2, 104640, Note_off_c, 0, 56, 95
2, 104640, Note_off_c, 0, 52, 95
2, 104640, Note_off_c, 0, 47, 95
2, 104640, Note_off_c, 0, 40, 95
2, 104640, Note_on_c, 0, 56, 95
2, 104640, Note_on_c, 0, 52, 95
2, 104640, Note_on_c, 0, 47, 95
2, 104640, Note_on_c, 0, 40, 95
2, 105120, Note_off_c, 0, 56, 95
2, 105120, Note_off_c, 0, 52, 95
2, 105120, Note_off_c, 0, 47, 95
2, 105120, Note_off_c, 0, 40, 95
2, 105120, Note_on_c, 0, 56, 95
2, 105120, Note_on_c, 0, 52, 95
2, 105120, Note_on_c, 0, 47, 95
2, 105120, Note_on_c, 0, 40, 95
2, 105600, Note_off_c, 0, 56, 95
2, 106080, Note_off_c, 0, 52, 95
2, 106080, Note_off_c, 0, 47, 95
2, 106080, Note_off_c, 0, 40, 95
2, 106080, Note_on_c, 0, 56, 95
2, 106080, Note_on_c, 0, 52, 95
2, 106080, Note_on_c, 0, 47, 95
2, 106080, Note_on_c, 0, 40, 95
2, 106560, Note_off_c, 0, 56, 95
2, 106560, Note_off_c, 0, 52, 95
2, 106560, Note_off_c, 0, 47, 95
2, 106560, Note_off_c, 0, 40, 95
2, 106560, Note_on_c, 0, 56, 95
2, 106560, Note_on_c, 0, 52, 95
2, 106560, Note_on_c, 0, 47, 95
2, 106560, Note_on_c, 0, 40, 95
2, 107040, Note_off_c, 0, 56, 95
2, 107040, Note_off_c, 0, 52, 95
2, 107040, Note_off_c, 0, 47, 95
2, 107040, Note_off_c, 0, 40, 95
2, 107040, Note_on_c, 0, 56, 95
2, 107040, Note_on_c, 0, 52, 95
2, 107040, Note_on_c, 0, 47, 95
2, 107040, Note_on_c, 0, 40, 95
2, 107520, Note_off_c, 0, 56, 95
2, 107520, Note_off_c, 0, 52, 95
2, 107520, Note_off_c, 0, 47, 95
2, 107520, Note_off_c, 0, 40, 95
2, 107520, Note_on_c, 0, 54, 95
2, 107520, Note_on_c, 0, 49, 95
2, 107520, Note_on_c, 0, 42, 95
2, 108480, Note_off_c, 0, 54, 95
2, 108480, Note_off_c, 0, 49, 95
2, 108480, Note_off_c, 0, 42, 95
2, 108480, Note_on_c, 0, 54, 95
2, 108480, Note_on_c, 0, 49, 95
2, 108480, Note_on_c, 0, 42, 95
2, 108960, Note_off_c, 0, 54, 95
2, 108960, Note_off_c, 0, 49, 95
2, 108960, Note_off_c, 0, 42, 95
2, 108960, Note_on_c, 0, 54, 95
2, 108960, Note_on_c, 0, 49, 95
2, 108960, Note_on_c, 0, 42, 95
2, 109920, Note_off_c, 0, 54, 95
2, 109920, Note_off_c, 0, 49, 95
2, 109920, Note_off_c, 0, 42, 95
2, 109920, Note_on_c, 0, 54, 95
2, 109920, Note_on_c, 0, 49, 95
2, 109920, Note_on_c, 0, 42, 95
2, 110400, Note_off_c, 0, 54, 95
2, 110400, Note_off_c, 0, 49, 95
2, 110400, Note_off_c, 0, 42, 95
2, 110400, Note_on_c, 0, 54, 95
2, 110400, Note_on_c, 0, 49, 95
2, 110400, Note_on_c, 0, 42, 95
2, 110880, Note_off_c, 0, 54, 95
2, 110880, Note_off_c, 0, 49, 95
2, 110880, Note_off_c, 0, 42, 95
2, 110880, Note_on_c, 0, 40, 95
2, 111360, Note_off_c, 0, 40, 95
2, 111360, Note_on_c, 0, 69, 95
2, 111360, Note_on_c, 0, 64, 95
2, 111360, Note_on_c, 0, 61, 95
2, 111360, Note_on_c, 0, 57, 95
2, 111360, Note_on_c, 0, 52, 95
2, 111360, Note_on_c, 0, 45, 95
2, 112320, Note_off_c, 0, 69, 95
2, 112320, Note_off_c, 0, 64, 95
2, 112320, Note_off_c, 0, 61, 95
2, 112320, Note_off_c, 0, 57, 95
2, 112320, Note_off_c, 0, 52, 95
2, 112320, Note_off_c, 0, 45, 95
2, 112320, Note_on_c, 0, 69, 95
2, 112320, Note_on_c, 0, 64, 95
2, 112320, Note_on_c, 0, 61, 95
2, 112320, Note_on_c, 0, 57, 95
2, 112320, Note_on_c, 0, 52, 95
2, 112320, Note_on_c, 0, 45, 95
2, 112800, Note_off_c, 0, 69, 95
2, 112800, Note_off_c, 0, 64, 95
2, 112800, Note_off_c, 0, 61, 95
2, 112800, Note_off_c, 0, 57, 95
2, 112800, Note_off_c, 0, 52, 95
2, 112800, Note_off_c, 0, 45, 95
2, 112800, Note_on_c, 0, 69, 95
2, 112800, Note_on_c, 0, 64, 95
2, 112800, Note_on_c, 0, 61, 95
2, 112800, Note_on_c, 0, 57, 95
2, 112800, Note_on_c, 0, 52, 95
2, 112800, Note_on_c, 0, 45, 95
2, 113280, Note_off_c, 0, 69, 95
2, 113280, Note_off_c, 0, 45, 95
2, 113760, Note_off_c, 0, 64, 95
2, 113760, Note_off_c, 0, 61, 95
2, 113760, Note_off_c, 0, 57, 95
2, 113760, Note_off_c, 0, 52, 95
2, 113760, Note_on_c, 0, 69, 95
2, 113760, Note_on_c, 0, 64, 95
2, 113760, Note_on_c, 0, 61, 95
2, 113760, Note_on_c, 0, 57, 95
2, 113760, Note_on_c, 0, 52, 95
2, 113760, Note_on_c, 0, 45, 95
2, 114240, Note_off_c, 0, 69, 95
2, 114240, Note_off_c, 0, 64, 95
2, 114240, Note_off_c, 0, 61, 95
2, 114240, Note_off_c, 0, 57, 95
2, 114240, Note_off_c, 0, 52, 95
2, 114240, Note_off_c, 0, 45, 95
2, 114240, Note_on_c, 0, 69, 95
2, 114240, Note_on_c, 0, 64, 95
2, 114240, Note_on_c, 0, 61, 95
2, 114240, Note_on_c, 0, 57, 95
2, 114240, Note_on_c, 0, 52, 95
2, 114240, Note_on_c, 0, 45, 95
2, 114720, Note_off_c, 0, 69, 95
2, 114720, Note_off_c, 0, 64, 95
2, 114720, Note_off_c, 0, 61, 95
2, 114720, Note_off_c, 0, 57, 95
2, 114720, Note_off_c, 0, 52, 95
2, 114720, Note_off_c, 0, 45, 95
2, 114720, Note_on_c, 0, 69, 95
2, 114720, Note_on_c, 0, 64, 95
2, 114720, Note_on_c, 0, 61, 95
2, 114720, Note_on_c, 0, 57, 95
2, 114720, Note_on_c, 0, 52, 95
2, 114720, Note_on_c, 0, 45, 95
2, 115200, Note_off_c, 0, 69, 95
2, 115200, Note_off_c, 0, 64, 95
2, 115200, Note_off_c, 0, 61, 95
2, 115200, Note_off_c, 0, 57, 95
2, 115200, Note_off_c, 0, 52, 95
2, 115200, Note_off_c, 0, 45, 95
2, 115200, Note_on_c, 0, 69, 95
2, 115200, Note_on_c, 0, 66, 95
2, 115200, Note_on_c, 0, 62, 95
2, 115200, Note_on_c, 0, 57, 95
2, 115200, Note_on_c, 0, 50, 95
2, 116160, Note_off_c, 0, 69, 95
2, 116160, Note_off_c, 0, 66, 95
2, 116160, Note_off_c, 0, 62, 95
2, 116160, Note_off_c, 0, 57, 95
2, 116160, Note_off_c, 0, 50, 95
2, 116160, Note_on_c, 0, 69, 95
2, 116160, Note_on_c, 0, 66, 95
2, 116160, Note_on_c, 0, 62, 95
2, 116160, Note_on_c, 0, 57, 95
2, 116160, Note_on_c, 0, 50, 95
2, 116640, Note_off_c, 0, 69, 95
2, 116640, Note_off_c, 0, 66, 95
2, 116640, Note_off_c, 0, 62, 95
2, 116640, Note_off_c, 0, 57, 95
2, 116640, Note_off_c, 0, 50, 95
2, 116640, Note_on_c, 0, 69, 95
2, 116640, Note_on_c, 0, 66, 95
2, 116640, Note_on_c, 0, 62, 95
2, 116640, Note_on_c, 0, 57, 95
2, 116640, Note_on_c, 0, 50, 95
2, 117120, Note_off_c, 0, 69, 95
2, 117600, Note_off_c, 0, 66, 95
2, 117600, Note_off_c, 0, 62, 95
2, 117600, Note_off_c, 0, 57, 95
2, 117600, Note_off_c, 0, 50, 95
2, 117600, Note_on_c, 0, 69, 95
2, 117600, Note_on_c, 0, 66, 95
2, 117600, Note_on_c, 0, 62, 95
2, 117600, Note_on_c, 0, 57, 95
2, 117600, Note_on_c, 0, 50, 95
2, 118080, Note_off_c, 0, 69, 95
2, 118080, Note_off_c, 0, 66, 95
2, 118080, Note_off_c, 0, 62, 95
2, 118080, Note_off_c, 0, 57, 95
2, 118080, Note_off_c, 0, 50, 95
2, 118080, Note_on_c, 0, 69, 95
2, 118080, Note_on_c, 0, 66, 95
2, 118080, Note_on_c, 0, 62, 95
2, 118080, Note_on_c, 0, 57, 95
2, 118080, Note_on_c, 0, 50, 95
2, 118560, Note_off_c, 0, 69, 95
2, 118560, Note_off_c, 0, 66, 95
2, 118560, Note_off_c, 0, 62, 95
2, 118560, Note_off_c, 0, 57, 95
2, 118560, Note_off_c, 0, 50, 95
2, 118560, Note_on_c, 0, 55, 95
2, 118560, Note_on_c, 0, 50, 95
2, 118560, Note_on_c, 0, 45, 95
2, 118656, Note_off_c, 0, 55, 95
2, 118656, Note_off_c, 0, 50, 95
2, 118656, Note_off_c, 0, 45, 95
2, 119040, Note_on_c, 0, 56, 95
2, 119040, Note_on_c, 0, 52, 95
2, 119040, Note_on_c, 0, 47, 95
2, 119040, Note_on_c, 0, 40, 95
2, 120000, Note_off_c, 0, 56, 95
2, 120000, Note_off_c, 0, 52, 95
2, 120000, Note_off_c, 0, 47, 95
2, 120000, Note_off_c, 0, 40, 95
2, 120000, Note_on_c, 0, 56, 95
2, 120000, Note_on_c, 0, 52, 95
2, 120000, Note_on_c, 0, 47, 95
2, 120000, Note_on_c, 0, 40, 95
2, 120480, Note_off_c, 0, 56, 95
2, 120480, Note_off_c, 0, 52, 95
2, 120480, Note_off_c, 0, 47, 95
2, 120480, Note_off_c, 0, 40, 95
2, 120480, Note_on_c, 0, 56, 95
2, 120480, Note_on_c, 0, 52, 95
2, 120480, Note_on_c, 0, 47, 95
2, 120480, Note_on_c, 0, 40, 95
2, 120960, Note_off_c, 0, 56, 95
2, 121440, Note_off_c, 0, 52, 95
2, 121440, Note_off_c, 0, 47, 95
2, 121440, Note_off_c, 0, 40, 95
2, 121440, Note_on_c, 0, 56, 95
2, 121440, Note_on_c, 0, 52, 95
2, 121440, Note_on_c, 0, 47, 95
2, 121440, Note_on_c, 0, 40, 95
2, 121920, Note_off_c, 0, 56, 95
2, 121920, Note_off_c, 0, 52, 95
2, 121920, Note_off_c, 0, 47, 95
2, 121920, Note_off_c, 0, 40, 95
2, 121920, Note_on_c, 0, 56, 95
2, 121920, Note_on_c, 0, 52, 95
2, 121920, Note_on_c, 0, 47, 95
2, 121920, Note_on_c, 0, 40, 95
2, 122400, Note_off_c, 0, 56, 95
2, 122400, Note_off_c, 0, 52, 95
2, 122400, Note_off_c, 0, 47, 95
2, 122400, Note_off_c, 0, 40, 95
2, 122400, Note_on_c, 0, 56, 95
2, 122400, Note_on_c, 0, 52, 95
2, 122400, Note_on_c, 0, 47, 95
2, 122400, Note_on_c, 0, 40, 95
2, 122880, Note_off_c, 0, 56, 95
2, 122880, Note_off_c, 0, 52, 95
2, 122880, Note_off_c, 0, 47, 95
2, 122880, Note_off_c, 0, 40, 95
2, 122880, Note_on_c, 0, 54, 95
2, 122880, Note_on_c, 0, 49, 95
2, 122880, Note_on_c, 0, 42, 95
2, 123840, Note_off_c, 0, 54, 95
2, 123840, Note_off_c, 0, 49, 95
2, 123840, Note_off_c, 0, 42, 95
2, 123840, Note_on_c, 0, 54, 95
2, 123840, Note_on_c, 0, 49, 95
2, 123840, Note_on_c, 0, 42, 95
2, 124320, Note_off_c, 0, 54, 95
2, 124320, Note_off_c, 0, 49, 95
2, 124320, Note_off_c, 0, 42, 95
2, 124320, Note_on_c, 0, 54, 95
2, 124320, Note_on_c, 0, 49, 95
2, 124320, Note_on_c, 0, 42, 95
2, 125280, Note_off_c, 0, 54, 95
2, 125280, Note_off_c, 0, 49, 95
2, 125280, Note_off_c, 0, 42, 95
2, 125280, Note_on_c, 0, 54, 95
2, 125280, Note_on_c, 0, 49, 95
2, 125280, Note_on_c, 0, 42, 95
2, 125760, Note_off_c, 0, 54, 95
2, 125760, Note_off_c, 0, 49, 95
2, 125760, Note_off_c, 0, 42, 95
2, 125760, Note_on_c, 0, 54, 95
2, 125760, Note_on_c, 0, 49, 95
2, 125760, Note_on_c, 0, 42, 95
2, 126240, Note_off_c, 0, 54, 95
2, 126240, Note_off_c, 0, 49, 95
2, 126240, Note_off_c, 0, 42, 95
2, 126240, Note_on_c, 0, 54, 95
2, 126240, Note_on_c, 0, 49, 95
2, 126240, Note_on_c, 0, 42, 95
2, 126720, Note_off_c, 0, 54, 95
2, 126720, Note_off_c, 0, 49, 95
2, 126720, Note_off_c, 0, 42, 95
2, 126720, Note_on_c, 0, 57, 95
2, 126720, Note_on_c, 0, 52, 95
2, 126720, Note_on_c, 0, 45, 95
2, 127680, Note_off_c, 0, 57, 95
2, 127680, Note_off_c, 0, 52, 95
2, 127680, Note_off_c, 0, 45, 95
2, 127680, Note_on_c, 0, 57, 95
2, 127680, Note_on_c, 0, 52, 95
2, 127680, Note_on_c, 0, 45, 95
2, 128160, Note_off_c, 0, 57, 95
2, 128160, Note_off_c, 0, 52, 95
2, 128160, Note_off_c, 0, 45, 95
2, 128160, Note_on_c, 0, 57, 95
2, 128160, Note_on_c, 0, 52, 95
2, 128160, Note_on_c, 0, 45, 95
2, 128640, Note_off_c, 0, 45, 95
2, 129120, Note_off_c, 0, 57, 95
2, 129120, Note_off_c, 0, 52, 95
2, 129120, Note_on_c, 0, 57, 95
2, 129120, Note_on_c, 0, 52, 95
2, 129120, Note_on_c, 0, 45, 95
2, 129600, Note_off_c, 0, 57, 95
2, 129600, Note_off_c, 0, 52, 95
2, 129600, Note_off_c, 0, 45, 95
2, 129600, Note_on_c, 0, 57, 95
2, 129600, Note_on_c, 0, 52, 95
2, 129600, Note_on_c, 0, 45, 95
2, 130080, Note_off_c, 0, 57, 95
2, 130080, Note_off_c, 0, 52, 95
2, 130080, Note_off_c, 0, 45, 95
2, 130080, Note_on_c, 0, 45, 95
2, 130080, Note_on_c, 0, 40, 95
2, 130560, Note_off_c, 0, 45, 95
2, 130560, Note_off_c, 0, 40, 95
2, 130560, Note_on_c, 0, 54, 95
2, 130560, Note_on_c, 0, 49, 95
2, 130560, Note_on_c, 0, 42, 95
2, 131040, Note_off_c, 0, 54, 95
2, 131040, Note_off_c, 0, 49, 95
2, 131040, Note_off_c, 0, 42, 95
2, 138240, Note_on_c, 0, 71, 95
2, 138240, Note_on_c, 0, 66, 95
2, 138240, Note_on_c, 0, 63, 95
2, 138240, Note_on_c, 0, 59, 95
2, 138240, Note_on_c, 0, 54, 95
2, 138240, Note_on_c, 0, 47, 95
2, 139200, Note_off_c, 0, 71, 95
2, 139200, Note_off_c, 0, 66, 95
2, 139200, Note_off_c, 0, 63, 95
2, 139200, Note_off_c, 0, 59, 95
2, 139200, Note_off_c, 0, 54, 95
2, 139200, Note_off_c, 0, 47, 95
2, 139200, Note_on_c, 0, 71, 95
2, 139200, Note_on_c, 0, 66, 95
2, 139200, Note_on_c, 0, 63, 95
2, 139200, Note_on_c, 0, 59, 95
2, 139200, Note_on_c, 0, 54, 95
2, 139200, Note_on_c, 0, 47, 95
2, 139680, Note_off_c, 0, 71, 95
2, 139680, Note_off_c, 0, 66, 95
2, 139680, Note_off_c, 0, 63, 95
2, 139680, Note_off_c, 0, 59, 95
2, 139680, Note_off_c, 0, 54, 95
2, 139680, Note_off_c, 0, 47, 95
2, 139680, Note_on_c, 0, 71, 95
2, 139680, Note_on_c, 0, 66, 95
2, 139680, Note_on_c, 0, 63, 95
2, 139680, Note_on_c, 0, 59, 95
2, 139680, Note_on_c, 0, 54, 95
2, 139680, Note_on_c, 0, 47, 95
2, 140160, Note_off_c, 0, 71, 95
2, 140160, Note_off_c, 0, 47, 95
2, 140640, Note_off_c, 0, 66, 95
2, 140640, Note_off_c, 0, 63, 95
2, 140640, Note_off_c, 0, 59, 95
2, 140640, Note_off_c, 0, 54, 95
2, 140640, Note_on_c, 0, 71, 95
2, 140640, Note_on_c, 0, 66, 95
2, 140640, Note_on_c, 0, 63, 95
2, 140640, Note_on_c, 0, 59, 95
2, 140640, Note_on_c, 0, 54, 95
2, 140640, Note_on_c, 0, 47, 95
2, 141120, Note_off_c, 0, 71, 95
2, 141120, Note_off_c, 0, 66, 95
2, 141120, Note_off_c, 0, 63, 95
2, 141120, Note_off_c, 0, 59, 95
2, 141120, Note_off_c, 0, 54, 95
2, 141120, Note_off_c, 0, 47, 95
2, 141120, Note_on_c, 0, 71, 95
2, 141120, Note_on_c, 0, 66, 95
2, 141120, Note_on_c, 0, 63, 95
2, 141120, Note_on_c, 0, 59, 95
2, 141120, Note_on_c, 0, 54, 95
2, 141120, Note_on_c, 0, 47, 95
2, 142080, Note_off_c, 0, 71, 95
2, 142080, Note_off_c, 0, 66, 95
2, 142080, Note_off_c, 0, 63, 95
2, 142080, Note_off_c, 0, 59, 95
2, 142080, Note_off_c, 0, 54, 95
2, 142080, Note_off_c, 0, 47, 95
2, 142080, Note_on_c, 0, 69, 95
2, 142080, Note_on_c, 0, 64, 95
2, 142080, Note_on_c, 0, 61, 95
2, 142080, Note_on_c, 0, 57, 95
2, 142080, Note_on_c, 0, 52, 95
2, 142080, Note_on_c, 0, 45, 95
2, 143040, Note_off_c, 0, 69, 95
2, 143040, Note_off_c, 0, 64, 95
2, 143040, Note_off_c, 0, 61, 95
2, 143040, Note_off_c, 0, 57, 95
2, 143040, Note_off_c, 0, 52, 95
2, 143040, Note_off_c, 0, 45, 95
2, 143040, Note_on_c, 0, 69, 95
2, 143040, Note_on_c, 0, 64, 95
2, 143040, Note_on_c, 0, 61, 95
2, 143040, Note_on_c, 0, 57, 95
2, 143040, Note_on_c, 0, 52, 95
2, 143040, Note_on_c, 0, 45, 95
2, 143520, Note_off_c, 0, 69, 95
2, 143520, Note_off_c, 0, 64, 95
2, 143520, Note_off_c, 0, 61, 95
2, 143520, Note_off_c, 0, 57, 95
2, 143520, Note_off_c, 0, 52, 95
2, 143520, Note_off_c, 0, 45, 95
2, 143520, Note_on_c, 0, 69, 95
2, 143520, Note_on_c, 0, 64, 95
2, 143520, Note_on_c, 0, 61, 95
2, 143520, Note_on_c, 0, 57, 95
2, 143520, Note_on_c, 0, 52, 95
2, 143520, Note_on_c, 0, 45, 95
2, 144000, Note_off_c, 0, 69, 95
2, 144000, Note_off_c, 0, 45, 95
2, 144480, Note_off_c, 0, 64, 95
2, 144480, Note_off_c, 0, 61, 95
2, 144480, Note_off_c, 0, 57, 95
2, 144480, Note_off_c, 0, 52, 95
2, 144480, Note_on_c, 0, 69, 95
2, 144480, Note_on_c, 0, 64, 95
2, 144480, Note_on_c, 0, 61, 95
2, 144480, Note_on_c, 0, 57, 95
2, 144480, Note_on_c, 0, 52, 95
2, 144480, Note_on_c, 0, 45, 95
2, 144960, Note_off_c, 0, 69, 95
2, 144960, Note_off_c, 0, 64, 95
2, 144960, Note_off_c, 0, 61, 95
2, 144960, Note_off_c, 0, 57, 95
2, 144960, Note_off_c, 0, 52, 95
2, 144960, Note_off_c, 0, 45, 95
2, 144960, Note_on_c, 0, 69, 95
2, 144960, Note_on_c, 0, 64, 95
2, 144960, Note_on_c, 0, 61, 95
2, 144960, Note_on_c, 0, 57, 95
2, 144960, Note_on_c, 0, 52, 95
2, 144960, Note_on_c, 0, 45, 95
2, 145920, Note_off_c, 0, 69, 95
2, 145920, Note_off_c, 0, 64, 95
2, 145920, Note_off_c, 0, 61, 95
2, 145920, Note_off_c, 0, 57, 95
2, 145920, Note_off_c, 0, 52, 95
2, 145920, Note_off_c, 0, 45, 95
2, 145920, Note_on_c, 0, 69, 95
2, 145920, Note_on_c, 0, 66, 95
2, 145920, Note_on_c, 0, 62, 95
2, 145920, Note_on_c, 0, 57, 95
2, 145920, Note_on_c, 0, 50, 95
2, 145920, Note_on_c, 0, 45, 95
2, 146880, Note_off_c, 0, 69, 95
2, 146880, Note_off_c, 0, 66, 95
2, 146880, Note_off_c, 0, 62, 95
2, 146880, Note_off_c, 0, 57, 95
2, 146880, Note_off_c, 0, 50, 95
2, 146880, Note_off_c, 0, 45, 95
2, 146880, Note_on_c, 0, 69, 95
2, 146880, Note_on_c, 0, 66, 95
2, 146880, Note_on_c, 0, 62, 95
2, 146880, Note_on_c, 0, 57, 95
2, 146880, Note_on_c, 0, 50, 95
2, 146880, Note_on_c, 0, 45, 95
2, 147360, Note_off_c, 0, 69, 95
2, 147360, Note_off_c, 0, 66, 95
2, 147360, Note_off_c, 0, 62, 95
2, 147360, Note_off_c, 0, 57, 95
2, 147360, Note_off_c, 0, 50, 95
2, 147360, Note_off_c, 0, 45, 95
2, 147360, Note_on_c, 0, 69, 95
2, 147360, Note_on_c, 0, 66, 95
2, 147360, Note_on_c, 0, 62, 95
2, 147360, Note_on_c, 0, 57, 95
2, 147360, Note_on_c, 0, 50, 95
2, 147840, Note_off_c, 0, 69, 95
2, 148320, Note_off_c, 0, 66, 95
2, 148320, Note_off_c, 0, 62, 95
2, 148320, Note_off_c, 0, 57, 95
2, 148320, Note_off_c, 0, 50, 95
2, 148320, Note_on_c, 0, 69, 95
2, 148320, Note_on_c, 0, 66, 95
2, 148320, Note_on_c, 0, 62, 95
2, 148320, Note_on_c, 0, 57, 95
2, 148320, Note_on_c, 0, 50, 95
2, 148800, Note_off_c, 0, 69, 95
2, 148800, Note_off_c, 0, 66, 95
2, 148800, Note_off_c, 0, 62, 95
2, 148800, Note_off_c, 0, 57, 95
2, 148800, Note_off_c, 0, 50, 95
2, 148800, Note_on_c, 0, 69, 95
2, 148800, Note_on_c, 0, 66, 95
2, 148800, Note_on_c, 0, 62, 95
2, 148800, Note_on_c, 0, 57, 95
2, 148800, Note_on_c, 0, 50, 95
2, 149760, Note_off_c, 0, 69, 95
2, 149760, Note_off_c, 0, 66, 95
2, 149760, Note_off_c, 0, 62, 95
2, 149760, Note_off_c, 0, 57, 95
2, 149760, Note_off_c, 0, 50, 95
2, 149760, Note_on_c, 0, 56, 95
2, 149760, Note_on_c, 0, 52, 95
2, 149760, Note_on_c, 0, 47, 95
2, 149760, Note_on_c, 0, 40, 95
2, 150720, Note_off_c, 0, 56, 95
2, 150720, Note_off_c, 0, 52, 95
2, 150720, Note_off_c, 0, 47, 95
2, 150720, Note_off_c, 0, 40, 95
2, 150720, Note_on_c, 0, 56, 95
2, 150720, Note_on_c, 0, 52, 95
2, 150720, Note_on_c, 0, 47, 95
2, 150720, Note_on_c, 0, 40, 95
2, 151200, Note_off_c, 0, 56, 95
2, 151200, Note_off_c, 0, 52, 95
2, 151200, Note_off_c, 0, 47, 95
2, 151200, Note_off_c, 0, 40, 95
2, 151200, Note_on_c, 0, 56, 95
2, 151200, Note_on_c, 0, 52, 95
2, 151200, Note_on_c, 0, 47, 95
2, 151200, Note_on_c, 0, 40, 95
2, 151680, Note_off_c, 0, 56, 95
2, 152160, Note_off_c, 0, 52, 95
2, 152160, Note_off_c, 0, 47, 95
2, 152160, Note_off_c, 0, 40, 95
2, 152160, Note_on_c, 0, 56, 95
2, 152160, Note_on_c, 0, 52, 95
2, 152160, Note_on_c, 0, 47, 95
2, 152160, Note_on_c, 0, 40, 95
2, 152640, Note_off_c, 0, 56, 95
2, 152640, Note_off_c, 0, 52, 95
2, 152640, Note_off_c, 0, 47, 95
2, 152640, Note_off_c, 0, 40, 95
2, 152640, Note_on_c, 0, 56, 95
2, 152640, Note_on_c, 0, 52, 95
2, 152640, Note_on_c, 0, 47, 95
2, 152640, Note_on_c, 0, 40, 95
2, 153600, Note_off_c, 0, 56, 95
2, 153600, Note_off_c, 0, 52, 95
2, 153600, Note_off_c, 0, 47, 95
2, 153600, Note_off_c, 0, 40, 95
2, 153600, Note_on_c, 0, 71, 95
2, 153600, Note_on_c, 0, 66, 95
2, 153600, Note_on_c, 0, 63, 95
2, 153600, Note_on_c, 0, 59, 95
2, 153600, Note_on_c, 0, 54, 95
2, 153600, Note_on_c, 0, 47, 95
2, 154560, Note_off_c, 0, 71, 95
2, 154560, Note_off_c, 0, 66, 95
2, 154560, Note_off_c, 0, 63, 95
2, 154560, Note_off_c, 0, 59, 95
2, 154560, Note_off_c, 0, 54, 95
2, 154560, Note_off_c, 0, 47, 95
2, 154560, Note_on_c, 0, 71, 95
2, 154560, Note_on_c, 0, 66, 95
2, 154560, Note_on_c, 0, 63, 95
2, 154560, Note_on_c, 0, 59, 95
2, 154560, Note_on_c, 0, 54, 95
2, 154560, Note_on_c, 0, 47, 95
2, 155040, Note_off_c, 0, 71, 95
2, 155040, Note_off_c, 0, 66, 95
2, 155040, Note_off_c, 0, 63, 95
2, 155040, Note_off_c, 0, 59, 95
2, 155040, Note_off_c, 0, 54, 95
2, 155040, Note_off_c, 0, 47, 95
2, 155040, Note_on_c, 0, 71, 95
2, 155040, Note_on_c, 0, 66, 95
2, 155040, Note_on_c, 0, 63, 95
2, 155040, Note_on_c, 0, 59, 95
2, 155040, Note_on_c, 0, 54, 95
2, 155040, Note_on_c, 0, 47, 95
2, 155520, Note_off_c, 0, 71, 95
2, 155520, Note_off_c, 0, 47, 95
2, 156000, Note_off_c, 0, 66, 95
2, 156000, Note_off_c, 0, 63, 95
2, 156000, Note_off_c, 0, 59, 95
2, 156000, Note_off_c, 0, 54, 95
2, 156000, Note_on_c, 0, 71, 95
2, 156000, Note_on_c, 0, 66, 95
2, 156000, Note_on_c, 0, 63, 95
2, 156000, Note_on_c, 0, 59, 95
2, 156000, Note_on_c, 0, 54, 95
2, 156000, Note_on_c, 0, 47, 95
2, 156480, Note_off_c, 0, 71, 95
2, 156480, Note_off_c, 0, 66, 95
2, 156480, Note_off_c, 0, 63, 95
2, 156480, Note_off_c, 0, 59, 95
2, 156480, Note_off_c, 0, 54, 95
2, 156480, Note_off_c, 0, 47, 95
2, 156480, Note_on_c, 0, 71, 95
2, 156480, Note_on_c, 0, 66, 95
2, 156480, Note_on_c, 0, 63, 95
2, 156480, Note_on_c, 0, 59, 95
2, 156480, Note_on_c, 0, 54, 95
2, 156480, Note_on_c, 0, 47, 95
2, 157440, Note_off_c, 0, 71, 95
2, 157440, Note_off_c, 0, 66, 95
2, 157440, Note_off_c, 0, 63, 95
2, 157440, Note_off_c, 0, 59, 95
2, 157440, Note_off_c, 0, 54, 95
2, 157440, Note_off_c, 0, 47, 95
2, 157440, Note_on_c, 0, 69, 95
2, 157440, Note_on_c, 0, 64, 95
2, 157440, Note_on_c, 0, 61, 95
2, 157440, Note_on_c, 0, 57, 95
2, 157440, Note_on_c, 0, 52, 95
2, 157440, Note_on_c, 0, 45, 95
2, 158400, Note_off_c, 0, 69, 95
2, 158400, Note_off_c, 0, 64, 95
2, 158400, Note_off_c, 0, 61, 95
2, 158400, Note_off_c, 0, 57, 95
2, 158400, Note_off_c, 0, 52, 95
2, 158400, Note_off_c, 0, 45, 95
2, 158400, Note_on_c, 0, 69, 95
2, 158400, Note_on_c, 0, 64, 95
2, 158400, Note_on_c, 0, 61, 95
2, 158400, Note_on_c, 0, 57, 95
2, 158400, Note_on_c, 0, 52, 95
2, 158400, Note_on_c, 0, 45, 95
2, 158880, Note_off_c, 0, 69, 95
2, 158880, Note_off_c, 0, 64, 95
2, 158880, Note_off_c, 0, 61, 95
2, 158880, Note_off_c, 0, 57, 95
2, 158880, Note_off_c, 0, 52, 95
2, 158880, Note_off_c, 0, 45, 95
2, 158880, Note_on_c, 0, 69, 95
2, 158880, Note_on_c, 0, 64, 95
2, 158880, Note_on_c, 0, 61, 95
2, 158880, Note_on_c, 0, 57, 95
2, 158880, Note_on_c, 0, 52, 95
2, 158880, Note_on_c, 0, 45, 95
2, 159360, Note_off_c, 0, 69, 95
2, 159360, Note_off_c, 0, 45, 95
2, 159840, Note_off_c, 0, 64, 95
2, 159840, Note_off_c, 0, 61, 95
2, 159840, Note_off_c, 0, 57, 95
2, 159840, Note_off_c, 0, 52, 95
2, 159840, Note_on_c, 0, 69, 95
2, 159840, Note_on_c, 0, 64, 95
2, 159840, Note_on_c, 0, 61, 95
2, 159840, Note_on_c, 0, 57, 95
2, 159840, Note_on_c, 0, 52, 95
2, 159840, Note_on_c, 0, 45, 95
2, 160320, Note_off_c, 0, 69, 95
2, 160320, Note_off_c, 0, 64, 95
2, 160320, Note_off_c, 0, 61, 95
2, 160320, Note_off_c, 0, 57, 95
2, 160320, Note_off_c, 0, 52, 95
2, 160320, Note_off_c, 0, 45, 95
2, 160320, Note_on_c, 0, 69, 95
2, 160320, Note_on_c, 0, 64, 95
2, 160320, Note_on_c, 0, 61, 95
2, 160320, Note_on_c, 0, 57, 95
2, 160320, Note_on_c, 0, 52, 95
2, 160320, Note_on_c, 0, 45, 95
2, 161280, Note_off_c, 0, 69, 95
2, 161280, Note_off_c, 0, 64, 95
2, 161280, Note_off_c, 0, 61, 95
2, 161280, Note_off_c, 0, 57, 95
2, 161280, Note_off_c, 0, 52, 95
2, 161280, Note_off_c, 0, 45, 95
2, 161280, Note_on_c, 0, 69, 95
2, 161280, Note_on_c, 0, 66, 95
2, 161280, Note_on_c, 0, 62, 95
2, 161280, Note_on_c, 0, 57, 95
2, 161280, Note_on_c, 0, 50, 95
2, 161280, Note_on_c, 0, 45, 95
2, 162240, Note_off_c, 0, 69, 95
2, 162240, Note_off_c, 0, 66, 95
2, 162240, Note_off_c, 0, 62, 95
2, 162240, Note_off_c, 0, 57, 95
2, 162240, Note_off_c, 0, 50, 95
2, 162240, Note_off_c, 0, 45, 95
2, 162240, Note_on_c, 0, 69, 95
2, 162240, Note_on_c, 0, 66, 95
2, 162240, Note_on_c, 0, 62, 95
2, 162240, Note_on_c, 0, 57, 95
2, 162240, Note_on_c, 0, 50, 95
2, 162240, Note_on_c, 0, 45, 95
2, 162720, Note_off_c, 0, 69, 95
2, 162720, Note_off_c, 0, 66, 95
2, 162720, Note_off_c, 0, 62, 95
2, 162720, Note_off_c, 0, 57, 95
2, 162720, Note_off_c, 0, 50, 95
2, 162720, Note_off_c, 0, 45, 95
2, 162720, Note_on_c, 0, 69, 95
2, 162720, Note_on_c, 0, 66, 95
2, 162720, Note_on_c, 0, 62, 95
2, 162720, Note_on_c, 0, 57, 95
2, 162720, Note_on_c, 0, 50, 95
2, 163200, Note_off_c, 0, 69, 95
2, 163680, Note_off_c, 0, 66, 95
2, 163680, Note_off_c, 0, 62, 95
2, 163680, Note_off_c, 0, 57, 95
2, 163680, Note_off_c, 0, 50, 95
2, 163680, Note_on_c, 0, 69, 95
2, 163680, Note_on_c, 0, 66, 95
2, 163680, Note_on_c, 0, 62, 95
2, 163680, Note_on_c, 0, 57, 95
2, 163680, Note_on_c, 0, 50, 95
2, 164160, Note_off_c, 0, 69, 95
2, 164160, Note_off_c, 0, 66, 95
2, 164160, Note_off_c, 0, 62, 95
2, 164160, Note_off_c, 0, 57, 95
2, 164160, Note_off_c, 0, 50, 95
2, 164160, Note_on_c, 0, 69, 95
2, 164160, Note_on_c, 0, 66, 95
2, 164160, Note_on_c, 0, 62, 95
2, 164160, Note_on_c, 0, 57, 95
2, 164160, Note_on_c, 0, 50, 95
2, 165120, Note_off_c, 0, 69, 95
2, 165120, Note_off_c, 0, 66, 95
2, 165120, Note_off_c, 0, 62, 95
2, 165120, Note_off_c, 0, 57, 95
2, 165120, Note_off_c, 0, 50, 95
2, 165120, Note_on_c, 0, 56, 95
2, 165120, Note_on_c, 0, 52, 95
2, 165120, Note_on_c, 0, 47, 95
2, 165120, Note_on_c, 0, 40, 95
2, 166080, Note_off_c, 0, 56, 95
2, 166080, Note_off_c, 0, 52, 95
2, 166080, Note_off_c, 0, 47, 95
2, 166080, Note_off_c, 0, 40, 95
2, 166080, Note_on_c, 0, 56, 95
2, 166080, Note_on_c, 0, 52, 95
2, 166080, Note_on_c, 0, 47, 95
2, 166080, Note_on_c, 0, 40, 95
2, 166560, Note_off_c, 0, 56, 95
2, 166560, Note_off_c, 0, 52, 95
2, 166560, Note_off_c, 0, 47, 95
2, 166560, Note_off_c, 0, 40, 95
2, 166560, Note_on_c, 0, 56, 95
2, 166560, Note_on_c, 0, 52, 95
2, 166560, Note_on_c, 0, 47, 95
2, 166560, Note_on_c, 0, 40, 95
2, 167040, Note_off_c, 0, 56, 95
2, 167520, Note_off_c, 0, 52, 95
2, 167520, Note_off_c, 0, 47, 95
2, 167520, Note_off_c, 0, 40, 95
2, 167520, Note_on_c, 0, 56, 95
2, 167520, Note_on_c, 0, 52, 95
2, 167520, Note_on_c, 0, 47, 95
2, 167520, Note_on_c, 0, 40, 95
2, 168000, Note_off_c, 0, 56, 95
2, 168000, Note_off_c, 0, 52, 95
2, 168000, Note_off_c, 0, 47, 95
2, 168000, Note_off_c, 0, 40, 95
2, 168000, Note_on_c, 0, 56, 95
2, 168000, Note_on_c, 0, 52, 95
2, 168000, Note_on_c, 0, 47, 95
2, 168000, Note_on_c, 0, 40, 95
2, 168960, Note_off_c, 0, 56, 95
2, 168960, Note_off_c, 0, 52, 95
2, 168960, Note_off_c, 0, 47, 95
2, 168960, Note_off_c, 0, 40, 95
2, 168960, Note_on_c, 0, 54, 95
2, 168960, Note_on_c, 0, 49, 95
2, 168960, Note_on_c, 0, 42, 95
2, 169920, Note_off_c, 0, 54, 95
2, 169920, Note_off_c, 0, 49, 95
2, 169920, Note_off_c, 0, 42, 95
2, 169920, Note_on_c, 0, 54, 95
2, 169920, Note_on_c, 0, 49, 95
2, 169920, Note_on_c, 0, 42, 95
2, 170400, Note_off_c, 0, 54, 95
2, 170400, Note_off_c, 0, 49, 95
2, 170400, Note_off_c, 0, 42, 95
2, 170400, Note_on_c, 0, 54, 95
2, 170400, Note_on_c, 0, 49, 95
2, 170400, Note_on_c, 0, 42, 95
2, 170880, Note_off_c, 0, 42, 95
2, 171360, Note_off_c, 0, 54, 95
2, 171360, Note_off_c, 0, 49, 95
2, 171360, Note_on_c, 0, 54, 95
2, 171360, Note_on_c, 0, 49, 95
2, 171360, Note_on_c, 0, 42, 95
2, 171840, Note_off_c, 0, 54, 95
2, 171840, Note_off_c, 0, 49, 95
2, 171840, Note_off_c, 0, 42, 95
2, 171840, Note_on_c, 0, 54, 95
2, 171840, Note_on_c, 0, 49, 95
2, 171840, Note_on_c, 0, 42, 95
2, 172800, Note_off_c, 0, 54, 95
2, 172800, Note_off_c, 0, 49, 95
2, 172800, Note_off_c, 0, 42, 95
2, 172800, Note_on_c, 0, 69, 95
2, 172800, Note_on_c, 0, 64, 95
2, 172800, Note_on_c, 0, 61, 95
2, 172800, Note_on_c, 0, 57, 95
2, 172800, Note_on_c, 0, 52, 95
2, 172800, Note_on_c, 0, 45, 95
2, 173760, Note_off_c, 0, 69, 95
2, 173760, Note_off_c, 0, 64, 95
2, 173760, Note_off_c, 0, 61, 95
2, 173760, Note_off_c, 0, 57, 95
2, 173760, Note_off_c, 0, 52, 95
2, 173760, Note_off_c, 0, 45, 95
2, 173760, Note_on_c, 0, 69, 95
2, 173760, Note_on_c, 0, 64, 95
2, 173760, Note_on_c, 0, 61, 95
2, 173760, Note_on_c, 0, 57, 95
2, 173760, Note_on_c, 0, 52, 95
2, 173760, Note_on_c, 0, 45, 95
2, 174240, Note_off_c, 0, 69, 95
2, 174240, Note_off_c, 0, 64, 95
2, 174240, Note_off_c, 0, 61, 95
2, 174240, Note_off_c, 0, 57, 95
2, 174240, Note_off_c, 0, 52, 95
2, 174240, Note_off_c, 0, 45, 95
2, 174240, Note_on_c, 0, 69, 95
2, 174240, Note_on_c, 0, 64, 95
2, 174240, Note_on_c, 0, 61, 95
2, 174240, Note_on_c, 0, 57, 95
2, 174240, Note_on_c, 0, 52, 95
2, 174240, Note_on_c, 0, 45, 95
2, 174720, Note_off_c, 0, 69, 95
2, 174720, Note_off_c, 0, 45, 95
2, 175200, Note_off_c, 0, 64, 95
2, 175200, Note_off_c, 0, 61, 95
2, 175200, Note_off_c, 0, 57, 95
2, 175200, Note_off_c, 0, 52, 95
2, 175200, Note_on_c, 0, 69, 95
2, 175200, Note_on_c, 0, 64, 95
2, 175200, Note_on_c, 0, 61, 95
2, 175200, Note_on_c, 0, 57, 95
2, 175200, Note_on_c, 0, 52, 95
2, 175200, Note_on_c, 0, 45, 95
2, 175680, Note_off_c, 0, 69, 95
2, 175680, Note_off_c, 0, 64, 95
2, 175680, Note_off_c, 0, 61, 95
2, 175680, Note_off_c, 0, 57, 95
2, 175680, Note_off_c, 0, 52, 95
2, 175680, Note_off_c, 0, 45, 95
2, 175680, Note_on_c, 0, 69, 95
2, 175680, Note_on_c, 0, 64, 95
2, 175680, Note_on_c, 0, 61, 95
2, 175680, Note_on_c, 0, 57, 95
2, 175680, Note_on_c, 0, 52, 95
2, 175680, Note_on_c, 0, 45, 95
2, 176640, Note_off_c, 0, 69, 95
2, 176640, Note_off_c, 0, 64, 95
2, 176640, Note_off_c, 0, 61, 95
2, 176640, Note_off_c, 0, 57, 95
2, 176640, Note_off_c, 0, 52, 95
2, 176640, Note_off_c, 0, 45, 95
2, 176640, Note_on_c, 0, 69, 95
2, 176640, Note_on_c, 0, 66, 95
2, 176640, Note_on_c, 0, 62, 95
2, 176640, Note_on_c, 0, 57, 95
2, 176640, Note_on_c, 0, 50, 95
2, 177600, Note_off_c, 0, 69, 95
2, 177600, Note_off_c, 0, 66, 95
2, 177600, Note_off_c, 0, 62, 95
2, 177600, Note_off_c, 0, 57, 95
2, 177600, Note_off_c, 0, 50, 95
2, 177600, Note_on_c, 0, 69, 95
2, 177600, Note_on_c, 0, 66, 95
2, 177600, Note_on_c, 0, 62, 95
2, 177600, Note_on_c, 0, 57, 95
2, 177600, Note_on_c, 0, 50, 95
2, 178080, Note_off_c, 0, 69, 95
2, 178080, Note_off_c, 0, 66, 95
2, 178080, Note_off_c, 0, 62, 95
2, 178080, Note_off_c, 0, 57, 95
2, 178080, Note_off_c, 0, 50, 95
2, 178080, Note_on_c, 0, 69, 95
2, 178080, Note_on_c, 0, 66, 95
2, 178080, Note_on_c, 0, 62, 95
2, 178080, Note_on_c, 0, 57, 95
2, 178080, Note_on_c, 0, 50, 95
2, 178560, Note_off_c, 0, 69, 95
2, 179040, Note_off_c, 0, 66, 95
2, 179040, Note_off_c, 0, 62, 95
2, 179040, Note_off_c, 0, 57, 95
2, 179040, Note_off_c, 0, 50, 95
2, 179040, Note_on_c, 0, 69, 95
2, 179040, Note_on_c, 0, 66, 95
2, 179040, Note_on_c, 0, 62, 95
2, 179040, Note_on_c, 0, 57, 95
2, 179040, Note_on_c, 0, 50, 95
2, 179520, Note_off_c, 0, 69, 95
2, 179520, Note_off_c, 0, 66, 95
2, 179520, Note_off_c, 0, 62, 95
2, 179520, Note_off_c, 0, 57, 95
2, 179520, Note_off_c, 0, 50, 95
2, 179520, Note_on_c, 0, 69, 95
2, 179520, Note_on_c, 0, 66, 95
2, 179520, Note_on_c, 0, 62, 95
2, 179520, Note_on_c, 0, 57, 95
2, 179520, Note_on_c, 0, 50, 95
2, 180480, Note_off_c, 0, 69, 95
2, 180480, Note_off_c, 0, 66, 95
2, 180480, Note_off_c, 0, 62, 95
2, 180480, Note_off_c, 0, 57, 95
2, 180480, Note_off_c, 0, 50, 95
2, 180480, Note_on_c, 0, 56, 95
2, 180480, Note_on_c, 0, 52, 95
2, 180480, Note_on_c, 0, 47, 95
2, 180480, Note_on_c, 0, 40, 95
2, 181440, Note_off_c, 0, 56, 95
2, 181440, Note_off_c, 0, 52, 95
2, 181440, Note_off_c, 0, 47, 95
2, 181440, Note_off_c, 0, 40, 95
2, 181440, Note_on_c, 0, 56, 95
2, 181440, Note_on_c, 0, 52, 95
2, 181440, Note_on_c, 0, 47, 95
2, 181440, Note_on_c, 0, 40, 95
2, 181920, Note_off_c, 0, 56, 95
2, 181920, Note_off_c, 0, 52, 95
2, 181920, Note_off_c, 0, 47, 95
2, 181920, Note_off_c, 0, 40, 95
2, 181920, Note_on_c, 0, 56, 95
2, 181920, Note_on_c, 0, 52, 95
2, 181920, Note_on_c, 0, 47, 95
2, 181920, Note_on_c, 0, 40, 95
2, 182400, Note_off_c, 0, 56, 95
2, 182880, Note_off_c, 0, 52, 95
2, 182880, Note_off_c, 0, 47, 95
2, 182880, Note_off_c, 0, 40, 95
2, 182880, Note_on_c, 0, 56, 95
2, 182880, Note_on_c, 0, 52, 95
2, 182880, Note_on_c, 0, 47, 95
2, 182880, Note_on_c, 0, 40, 95
2, 183360, Note_off_c, 0, 56, 95
2, 183360, Note_off_c, 0, 52, 95
2, 183360, Note_off_c, 0, 47, 95
2, 183360, Note_off_c, 0, 40, 95
2, 183360, Note_on_c, 0, 56, 95
2, 183360, Note_on_c, 0, 52, 95
2, 183360, Note_on_c, 0, 47, 95
2, 183360, Note_on_c, 0, 40, 95
2, 184320, Note_off_c, 0, 56, 95
2, 184320, Note_off_c, 0, 52, 95
2, 184320, Note_off_c, 0, 47, 95
2, 184320, Note_off_c, 0, 40, 95
2, 184320, Note_on_c, 0, 54, 95
2, 184320, Note_on_c, 0, 49, 95
2, 184320, Note_on_c, 0, 42, 95
2, 185280, Note_off_c, 0, 54, 95
2, 185280, Note_off_c, 0, 49, 95
2, 185280, Note_off_c, 0, 42, 95
2, 185280, Note_on_c, 0, 54, 95
2, 185280, Note_on_c, 0, 49, 95
2, 185280, Note_on_c, 0, 42, 95
2, 185760, Note_off_c, 0, 54, 95
2, 185760, Note_off_c, 0, 49, 95
2, 185760, Note_off_c, 0, 42, 95
2, 185760, Note_on_c, 0, 54, 95
2, 185760, Note_on_c, 0, 49, 95
2, 185760, Note_on_c, 0, 42, 95
2, 186720, Note_off_c, 0, 54, 95
2, 186720, Note_off_c, 0, 49, 95
2, 186720, Note_off_c, 0, 42, 95
2, 186720, Note_on_c, 0, 54, 95
2, 186720, Note_on_c, 0, 49, 95
2, 186720, Note_on_c, 0, 42, 95
2, 187200, Note_off_c, 0, 54, 95
2, 187200, Note_off_c, 0, 49, 95
2, 187200, Note_off_c, 0, 42, 95
2, 187200, Note_on_c, 0, 54, 95
2, 187200, Note_on_c, 0, 49, 95
2, 187200, Note_on_c, 0, 42, 95
2, 187680, Note_off_c, 0, 54, 95
2, 187680, Note_off_c, 0, 49, 95
2, 187680, Note_off_c, 0, 42, 95
2, 187680, Note_on_c, 0, 54, 95
2, 187680, Note_on_c, 0, 49, 95
2, 187680, Note_on_c, 0, 42, 95
2, 188160, Note_off_c, 0, 54, 95
2, 188160, Note_off_c, 0, 49, 95
2, 188160, Note_off_c, 0, 42, 95
2, 188160, Note_on_c, 0, 57, 95
2, 188160, Note_on_c, 0, 52, 95
2, 188160, Note_on_c, 0, 45, 95
2, 189120, Note_off_c, 0, 57, 95
2, 189120, Note_off_c, 0, 52, 95
2, 189120, Note_off_c, 0, 45, 95
2, 189120, Note_on_c, 0, 57, 95
2, 189120, Note_on_c, 0, 52, 95
2, 189120, Note_on_c, 0, 45, 95
2, 189600, Note_off_c, 0, 57, 95
2, 189600, Note_off_c, 0, 52, 95
2, 189600, Note_off_c, 0, 45, 95
2, 189600, Note_on_c, 0, 57, 95
2, 189600, Note_on_c, 0, 52, 95
2, 189600, Note_on_c, 0, 45, 95
2, 190080, Note_off_c, 0, 45, 95
2, 190080, Note_on_c, 0, 45, 95
2, 190560, Note_off_c, 0, 57, 95
2, 190560, Note_off_c, 0, 52, 95
2, 190560, Note_off_c, 0, 45, 95
2, 190560, Note_on_c, 0, 57, 95
2, 190560, Note_on_c, 0, 52, 95
2, 190560, Note_on_c, 0, 45, 95
2, 191040, Note_off_c, 0, 57, 95
2, 191040, Note_off_c, 0, 52, 95
2, 191040, Note_off_c, 0, 45, 95
2, 191040, Note_on_c, 0, 57, 95
2, 191040, Note_on_c, 0, 52, 95
2, 191040, Note_on_c, 0, 45, 95
2, 191520, Note_off_c, 0, 57, 95
2, 191520, Note_off_c, 0, 52, 95
2, 191520, Note_off_c, 0, 45, 95
2, 191520, Note_on_c, 0, 57, 95
2, 191520, Note_on_c, 0, 52, 95
2, 191520, Note_on_c, 0, 45, 95
2, 192000, Note_off_c, 0, 57, 95
2, 192000, Note_off_c, 0, 52, 95
2, 192000, Note_off_c, 0, 45, 95
2, 192000, Note_on_c, 0, 54, 95
2, 192000, Note_on_c, 0, 49, 95
2, 192000, Note_on_c, 0, 42, 95
2, 192480, Note_off_c, 0, 54, 95
2, 192480, Note_off_c, 0, 49, 95
2, 192480, Note_off_c, 0, 42, 95
2, 199680, Note_on_c, 0, 71, 95
2, 199680, Note_on_c, 0, 66, 95
2, 199680, Note_on_c, 0, 63, 95
2, 199680, Note_on_c, 0, 59, 95
2, 199680, Note_on_c, 0, 54, 95
2, 199680, Note_on_c, 0, 47, 95
2, 200640, Note_off_c, 0, 71, 95
2, 200640, Note_off_c, 0, 66, 95
2, 200640, Note_off_c, 0, 63, 95
2, 200640, Note_off_c, 0, 59, 95
2, 200640, Note_off_c, 0, 54, 95
2, 200640, Note_off_c, 0, 47, 95
2, 200640, Note_on_c, 0, 71, 95
2, 200640, Note_on_c, 0, 66, 95
2, 200640, Note_on_c, 0, 63, 95
2, 200640, Note_on_c, 0, 59, 95
2, 200640, Note_on_c, 0, 54, 95
2, 200640, Note_on_c, 0, 47, 95
2, 201120, Note_off_c, 0, 71, 95
2, 201120, Note_off_c, 0, 66, 95
2, 201120, Note_off_c, 0, 63, 95
2, 201120, Note_off_c, 0, 59, 95
2, 201120, Note_off_c, 0, 54, 95
2, 201120, Note_off_c, 0, 47, 95
2, 201120, Note_on_c, 0, 71, 95
2, 201120, Note_on_c, 0, 66, 95
2, 201120, Note_on_c, 0, 63, 95
2, 201120, Note_on_c, 0, 59, 95
2, 201120, Note_on_c, 0, 54, 95
2, 201120, Note_on_c, 0, 47, 95
2, 201600, Note_off_c, 0, 71, 95
2, 201600, Note_off_c, 0, 47, 95
2, 202080, Note_off_c, 0, 66, 95
2, 202080, Note_off_c, 0, 63, 95
2, 202080, Note_off_c, 0, 59, 95
2, 202080, Note_off_c, 0, 54, 95
2, 202080, Note_on_c, 0, 71, 95
2, 202080, Note_on_c, 0, 66, 95
2, 202080, Note_on_c, 0, 63, 95
2, 202080, Note_on_c, 0, 59, 95
2, 202080, Note_on_c, 0, 54, 95
2, 202080, Note_on_c, 0, 47, 95
2, 202560, Note_off_c, 0, 71, 95
2, 202560, Note_off_c, 0, 66, 95
2, 202560, Note_off_c, 0, 63, 95
2, 202560, Note_off_c, 0, 59, 95
2, 202560, Note_off_c, 0, 54, 95
2, 202560, Note_off_c, 0, 47, 95
2, 202560, Note_on_c, 0, 71, 95
2, 202560, Note_on_c, 0, 66, 95
2, 202560, Note_on_c, 0, 63, 95
2, 202560, Note_on_c, 0, 59, 95
2, 202560, Note_on_c, 0, 54, 95
2, 202560, Note_on_c, 0, 47, 95
2, 203520, Note_off_c, 0, 71, 95
2, 203520, Note_off_c, 0, 66, 95
2, 203520, Note_off_c, 0, 63, 95
2, 203520, Note_off_c, 0, 59, 95
2, 203520, Note_off_c, 0, 54, 95
2, 203520, Note_off_c, 0, 47, 95
2, 203520, Note_on_c, 0, 69, 95
2, 203520, Note_on_c, 0, 64, 95
2, 203520, Note_on_c, 0, 61, 95
2, 203520, Note_on_c, 0, 57, 95
2, 203520, Note_on_c, 0, 52, 95
2, 203520, Note_on_c, 0, 45, 95
2, 204480, Note_off_c, 0, 69, 95
2, 204480, Note_off_c, 0, 64, 95
2, 204480, Note_off_c, 0, 61, 95
2, 204480, Note_off_c, 0, 57, 95
2, 204480, Note_off_c, 0, 52, 95
2, 204480, Note_off_c, 0, 45, 95
2, 204480, Note_on_c, 0, 69, 95
2, 204480, Note_on_c, 0, 64, 95
2, 204480, Note_on_c, 0, 61, 95
2, 204480, Note_on_c, 0, 57, 95
2, 204480, Note_on_c, 0, 52, 95
2, 204480, Note_on_c, 0, 45, 95
2, 204960, Note_off_c, 0, 69, 95
2, 204960, Note_off_c, 0, 64, 95
2, 204960, Note_off_c, 0, 61, 95
2, 204960, Note_off_c, 0, 57, 95
2, 204960, Note_off_c, 0, 52, 95
2, 204960, Note_off_c, 0, 45, 95
2, 204960, Note_on_c, 0, 69, 95
2, 204960, Note_on_c, 0, 64, 95
2, 204960, Note_on_c, 0, 61, 95
2, 204960, Note_on_c, 0, 57, 95
2, 204960, Note_on_c, 0, 52, 95
2, 204960, Note_on_c, 0, 45, 95
2, 205440, Note_off_c, 0, 69, 95
2, 205440, Note_off_c, 0, 45, 95
2, 205920, Note_off_c, 0, 64, 95
2, 205920, Note_off_c, 0, 61, 95
2, 205920, Note_off_c, 0, 57, 95
2, 205920, Note_off_c, 0, 52, 95
2, 205920, Note_on_c, 0, 69, 95
2, 205920, Note_on_c, 0, 64, 95
2, 205920, Note_on_c, 0, 61, 95
2, 205920, Note_on_c, 0, 57, 95
2, 205920, Note_on_c, 0, 52, 95
2, 205920, Note_on_c, 0, 45, 95
2, 206400, Note_off_c, 0, 69, 95
2, 206400, Note_off_c, 0, 64, 95
2, 206400, Note_off_c, 0, 61, 95
2, 206400, Note_off_c, 0, 57, 95
2, 206400, Note_off_c, 0, 52, 95
2, 206400, Note_off_c, 0, 45, 95
2, 206400, Note_on_c, 0, 69, 95
2, 206400, Note_on_c, 0, 64, 95
2, 206400, Note_on_c, 0, 61, 95
2, 206400, Note_on_c, 0, 57, 95
2, 206400, Note_on_c, 0, 52, 95
2, 206400, Note_on_c, 0, 45, 95
2, 207360, Note_off_c, 0, 69, 95
2, 207360, Note_off_c, 0, 64, 95
2, 207360, Note_off_c, 0, 61, 95
2, 207360, Note_off_c, 0, 57, 95
2, 207360, Note_off_c, 0, 52, 95
2, 207360, Note_off_c, 0, 45, 95
2, 207360, Note_on_c, 0, 69, 95
2, 207360, Note_on_c, 0, 66, 95
2, 207360, Note_on_c, 0, 62, 95
2, 207360, Note_on_c, 0, 57, 95
2, 207360, Note_on_c, 0, 50, 95
2, 207360, Note_on_c, 0, 45, 95
2, 208320, Note_off_c, 0, 69, 95
2, 208320, Note_off_c, 0, 66, 95
2, 208320, Note_off_c, 0, 62, 95
2, 208320, Note_off_c, 0, 57, 95
2, 208320, Note_off_c, 0, 50, 95
2, 208320, Note_off_c, 0, 45, 95
2, 208320, Note_on_c, 0, 69, 95
2, 208320, Note_on_c, 0, 66, 95
2, 208320, Note_on_c, 0, 62, 95
2, 208320, Note_on_c, 0, 57, 95
2, 208320, Note_on_c, 0, 50, 95
2, 208320, Note_on_c, 0, 45, 95
2, 208800, Note_off_c, 0, 69, 95
2, 208800, Note_off_c, 0, 66, 95
2, 208800, Note_off_c, 0, 62, 95
2, 208800, Note_off_c, 0, 57, 95
2, 208800, Note_off_c, 0, 50, 95
2, 208800, Note_off_c, 0, 45, 95
2, 208800, Note_on_c, 0, 69, 95
2, 208800, Note_on_c, 0, 66, 95
2, 208800, Note_on_c, 0, 62, 95
2, 208800, Note_on_c, 0, 57, 95
2, 208800, Note_on_c, 0, 50, 95
2, 209280, Note_off_c, 0, 69, 95
2, 209760, Note_off_c, 0, 66, 95
2, 209760, Note_off_c, 0, 62, 95
2, 209760, Note_off_c, 0, 57, 95
2, 209760, Note_off_c, 0, 50, 95
2, 209760, Note_on_c, 0, 69, 95
2, 209760, Note_on_c, 0, 66, 95
2, 209760, Note_on_c, 0, 62, 95
2, 209760, Note_on_c, 0, 57, 95
2, 209760, Note_on_c, 0, 50, 95
2, 210240, Note_off_c, 0, 69, 95
2, 210240, Note_off_c, 0, 66, 95
2, 210240, Note_off_c, 0, 62, 95
2, 210240, Note_off_c, 0, 57, 95
2, 210240, Note_off_c, 0, 50, 95
2, 210240, Note_on_c, 0, 69, 95
2, 210240, Note_on_c, 0, 66, 95
2, 210240, Note_on_c, 0, 62, 95
2, 210240, Note_on_c, 0, 57, 95
2, 210240, Note_on_c, 0, 50, 95
2, 211200, Note_off_c, 0, 69, 95
2, 211200, Note_off_c, 0, 66, 95
2, 211200, Note_off_c, 0, 62, 95
2, 211200, Note_off_c, 0, 57, 95
2, 211200, Note_off_c, 0, 50, 95
2, 211200, Note_on_c, 0, 56, 95
2, 211200, Note_on_c, 0, 52, 95
2, 211200, Note_on_c, 0, 47, 95
2, 211200, Note_on_c, 0, 40, 95
2, 212160, Note_off_c, 0, 56, 95
2, 212160, Note_off_c, 0, 52, 95
2, 212160, Note_off_c, 0, 47, 95
2, 212160, Note_off_c, 0, 40, 95
2, 212160, Note_on_c, 0, 56, 95
2, 212160, Note_on_c, 0, 52, 95
2, 212160, Note_on_c, 0, 47, 95
2, 212160, Note_on_c, 0, 40, 95
2, 212640, Note_off_c, 0, 56, 95
2, 212640, Note_off_c, 0, 52, 95
2, 212640, Note_off_c, 0, 47, 95
2, 212640, Note_off_c, 0, 40, 95
2, 212640, Note_on_c, 0, 56, 95
2, 212640, Note_on_c, 0, 52, 95
2, 212640, Note_on_c, 0, 47, 95
2, 212640, Note_on_c, 0, 40, 95
2, 213120, Note_off_c, 0, 56, 95
2, 213600, Note_off_c, 0, 52, 95
2, 213600, Note_off_c, 0, 47, 95
2, 213600, Note_off_c, 0, 40, 95
2, 213600, Note_on_c, 0, 56, 95
2, 213600, Note_on_c, 0, 52, 95
2, 213600, Note_on_c, 0, 47, 95
2, 213600, Note_on_c, 0, 40, 95
2, 214080, Note_off_c, 0, 56, 95
2, 214080, Note_off_c, 0, 52, 95
2, 214080, Note_off_c, 0, 47, 95
2, 214080, Note_off_c, 0, 40, 95
2, 214080, Note_on_c, 0, 56, 95
2, 214080, Note_on_c, 0, 52, 95
2, 214080, Note_on_c, 0, 47, 95
2, 214080, Note_on_c, 0, 40, 95
2, 215040, Note_off_c, 0, 56, 95
2, 215040, Note_off_c, 0, 52, 95
2, 215040, Note_off_c, 0, 47, 95
2, 215040, Note_off_c, 0, 40, 95
2, 215040, Note_on_c, 0, 71, 95
2, 215040, Note_on_c, 0, 66, 95
2, 215040, Note_on_c, 0, 63, 95
2, 215040, Note_on_c, 0, 59, 95
2, 215040, Note_on_c, 0, 54, 95
2, 215040, Note_on_c, 0, 47, 95
2, 216000, Note_off_c, 0, 71, 95
2, 216000, Note_off_c, 0, 66, 95
2, 216000, Note_off_c, 0, 63, 95
2, 216000, Note_off_c, 0, 59, 95
2, 216000, Note_off_c, 0, 54, 95
2, 216000, Note_off_c, 0, 47, 95
2, 216000, Note_on_c, 0, 71, 95
2, 216000, Note_on_c, 0, 66, 95
2, 216000, Note_on_c, 0, 63, 95
2, 216000, Note_on_c, 0, 59, 95
2, 216000, Note_on_c, 0, 54, 95
2, 216000, Note_on_c, 0, 47, 95
2, 216480, Note_off_c, 0, 71, 95
2, 216480, Note_off_c, 0, 66, 95
2, 216480, Note_off_c, 0, 63, 95
2, 216480, Note_off_c, 0, 59, 95
2, 216480, Note_off_c, 0, 54, 95
2, 216480, Note_off_c, 0, 47, 95
2, 216480, Note_on_c, 0, 71, 95
2, 216480, Note_on_c, 0, 66, 95
2, 216480, Note_on_c, 0, 63, 95
2, 216480, Note_on_c, 0, 59, 95
2, 216480, Note_on_c, 0, 54, 95
2, 216480, Note_on_c, 0, 47, 95
2, 216960, Note_off_c, 0, 71, 95
2, 216960, Note_off_c, 0, 47, 95
2, 217440, Note_off_c, 0, 66, 95
2, 217440, Note_off_c, 0, 63, 95
2, 217440, Note_off_c, 0, 59, 95
2, 217440, Note_off_c, 0, 54, 95
2, 217440, Note_on_c, 0, 71, 95
2, 217440, Note_on_c, 0, 66, 95
2, 217440, Note_on_c, 0, 63, 95
2, 217440, Note_on_c, 0, 59, 95
2, 217440, Note_on_c, 0, 54, 95
2, 217440, Note_on_c, 0, 47, 95
2, 217920, Note_off_c, 0, 71, 95
2, 217920, Note_off_c, 0, 66, 95
2, 217920, Note_off_c, 0, 63, 95
2, 217920, Note_off_c, 0, 59, 95
2, 217920, Note_off_c, 0, 54, 95
2, 217920, Note_off_c, 0, 47, 95
2, 217920, Note_on_c, 0, 71, 95
2, 217920, Note_on_c, 0, 66, 95
2, 217920, Note_on_c, 0, 63, 95
2, 217920, Note_on_c, 0, 59, 95
2, 217920, Note_on_c, 0, 54, 95
2, 217920, Note_on_c, 0, 47, 95
2, 218880, Note_off_c, 0, 71, 95
2, 218880, Note_off_c, 0, 66, 95
2, 218880, Note_off_c, 0, 63, 95
2, 218880, Note_off_c, 0, 59, 95
2, 218880, Note_off_c, 0, 54, 95
2, 218880, Note_off_c, 0, 47, 95
2, 218880, Note_on_c, 0, 69, 95
2, 218880, Note_on_c, 0, 64, 95
2, 218880, Note_on_c, 0, 61, 95
2, 218880, Note_on_c, 0, 57, 95
2, 218880, Note_on_c, 0, 52, 95
2, 218880, Note_on_c, 0, 45, 95
2, 219840, Note_off_c, 0, 69, 95
2, 219840, Note_off_c, 0, 64, 95
2, 219840, Note_off_c, 0, 61, 95
2, 219840, Note_off_c, 0, 57, 95
2, 219840, Note_off_c, 0, 52, 95
2, 219840, Note_off_c, 0, 45, 95
2, 219840, Note_on_c, 0, 69, 95
2, 219840, Note_on_c, 0, 64, 95
2, 219840, Note_on_c, 0, 61, 95
2, 219840, Note_on_c, 0, 57, 95
2, 219840, Note_on_c, 0, 52, 95
2, 219840, Note_on_c, 0, 45, 95
2, 220320, Note_off_c, 0, 69, 95
2, 220320, Note_off_c, 0, 64, 95
2, 220320, Note_off_c, 0, 61, 95
2, 220320, Note_off_c, 0, 57, 95
2, 220320, Note_off_c, 0, 52, 95
2, 220320, Note_off_c, 0, 45, 95
2, 220320, Note_on_c, 0, 69, 95
2, 220320, Note_on_c, 0, 64, 95
2, 220320, Note_on_c, 0, 61, 95
2, 220320, Note_on_c, 0, 57, 95
2, 220320, Note_on_c, 0, 52, 95
2, 220320, Note_on_c, 0, 45, 95
2, 220800, Note_off_c, 0, 69, 95
2, 220800, Note_off_c, 0, 45, 95
2, 221280, Note_off_c, 0, 64, 95
2, 221280, Note_off_c, 0, 61, 95
2, 221280, Note_off_c, 0, 57, 95
2, 221280, Note_off_c, 0, 52, 95
2, 221280, Note_on_c, 0, 69, 95
2, 221280, Note_on_c, 0, 64, 95
2, 221280, Note_on_c, 0, 61, 95
2, 221280, Note_on_c, 0, 57, 95
2, 221280, Note_on_c, 0, 52, 95
2, 221280, Note_on_c, 0, 45, 95
2, 221760, Note_off_c, 0, 69, 95
2, 221760, Note_off_c, 0, 64, 95
2, 221760, Note_off_c, 0, 61, 95
2, 221760, Note_off_c, 0, 57, 95
2, 221760, Note_off_c, 0, 52, 95
2, 221760, Note_off_c, 0, 45, 95
2, 221760, Note_on_c, 0, 69, 95
2, 221760, Note_on_c, 0, 64, 95
2, 221760, Note_on_c, 0, 61, 95
2, 221760, Note_on_c, 0, 57, 95
2, 221760, Note_on_c, 0, 52, 95
2, 221760, Note_on_c, 0, 45, 95
2, 222720, Note_off_c, 0, 69, 95
2, 222720, Note_off_c, 0, 64, 95
2, 222720, Note_off_c, 0, 61, 95
2, 222720, Note_off_c, 0, 57, 95
2, 222720, Note_off_c, 0, 52, 95
2, 222720, Note_off_c, 0, 45, 95
2, 222720, Note_on_c, 0, 69, 95
2, 222720, Note_on_c, 0, 66, 95
2, 222720, Note_on_c, 0, 62, 95
2, 222720, Note_on_c, 0, 57, 95
2, 222720, Note_on_c, 0, 50, 95
2, 223680, Note_off_c, 0, 69, 95
2, 223680, Note_off_c, 0, 66, 95
2, 223680, Note_off_c, 0, 62, 95
2, 223680, Note_off_c, 0, 57, 95
2, 223680, Note_off_c, 0, 50, 95
2, 223680, Note_on_c, 0, 69, 95
2, 223680, Note_on_c, 0, 66, 95
2, 223680, Note_on_c, 0, 62, 95
2, 223680, Note_on_c, 0, 57, 95
2, 223680, Note_on_c, 0, 50, 95
2, 224160, Note_off_c, 0, 69, 95
2, 224160, Note_off_c, 0, 66, 95
2, 224160, Note_off_c, 0, 62, 95
2, 224160, Note_off_c, 0, 57, 95
2, 224160, Note_off_c, 0, 50, 95
2, 224160, Note_on_c, 0, 69, 95
2, 224160, Note_on_c, 0, 66, 95
2, 224160, Note_on_c, 0, 62, 95
2, 224160, Note_on_c, 0, 57, 95
2, 224160, Note_on_c, 0, 50, 95
2, 224640, Note_off_c, 0, 69, 95
2, 225120, Note_off_c, 0, 66, 95
2, 225120, Note_off_c, 0, 62, 95
2, 225120, Note_off_c, 0, 57, 95
2, 225120, Note_off_c, 0, 50, 95
2, 225120, Note_on_c, 0, 69, 95
2, 225120, Note_on_c, 0, 66, 95
2, 225120, Note_on_c, 0, 62, 95
2, 225120, Note_on_c, 0, 57, 95
2, 225120, Note_on_c, 0, 50, 95
2, 225600, Note_off_c, 0, 69, 95
2, 225600, Note_off_c, 0, 66, 95
2, 225600, Note_off_c, 0, 62, 95
2, 225600, Note_off_c, 0, 57, 95
2, 225600, Note_off_c, 0, 50, 95
2, 225600, Note_on_c, 0, 69, 95
2, 225600, Note_on_c, 0, 66, 95
2, 225600, Note_on_c, 0, 62, 95
2, 225600, Note_on_c, 0, 57, 95
2, 225600, Note_on_c, 0, 50, 95
2, 226560, Note_off_c, 0, 69, 95
2, 226560, Note_off_c, 0, 66, 95
2, 226560, Note_off_c, 0, 62, 95
2, 226560, Note_off_c, 0, 57, 95
2, 226560, Note_off_c, 0, 50, 95
2, 226560, Note_on_c, 0, 56, 95
2, 226560, Note_on_c, 0, 52, 95
2, 226560, Note_on_c, 0, 47, 95
2, 226560, Note_on_c, 0, 40, 95
2, 227520, Note_off_c, 0, 56, 95
2, 227520, Note_off_c, 0, 52, 95
2, 227520, Note_off_c, 0, 47, 95
2, 227520, Note_off_c, 0, 40, 95
2, 227520, Note_on_c, 0, 56, 95
2, 227520, Note_on_c, 0, 52, 95
2, 227520, Note_on_c, 0, 47, 95
2, 227520, Note_on_c, 0, 40, 95
2, 228000, Note_off_c, 0, 56, 95
2, 228000, Note_off_c, 0, 52, 95
2, 228000, Note_off_c, 0, 47, 95
2, 228000, Note_off_c, 0, 40, 95
2, 228000, Note_on_c, 0, 56, 95
2, 228000, Note_on_c, 0, 52, 95
2, 228000, Note_on_c, 0, 47, 95
2, 228000, Note_on_c, 0, 40, 95
2, 228480, Note_off_c, 0, 56, 95
2, 228960, Note_off_c, 0, 52, 95
2, 228960, Note_off_c, 0, 47, 95
2, 228960, Note_off_c, 0, 40, 95
2, 228960, Note_on_c, 0, 56, 95
2, 228960, Note_on_c, 0, 52, 95
2, 228960, Note_on_c, 0, 47, 95
2, 228960, Note_on_c, 0, 40, 95
2, 229440, Note_off_c, 0, 56, 95
2, 229440, Note_off_c, 0, 52, 95
2, 229440, Note_off_c, 0, 47, 95
2, 229440, Note_off_c, 0, 40, 95
2, 229440, Note_on_c, 0, 56, 95
2, 229440, Note_on_c, 0, 52, 95
2, 229440, Note_on_c, 0, 47, 95
2, 229440, Note_on_c, 0, 40, 95
2, 230400, Note_off_c, 0, 56, 95
2, 230400, Note_off_c, 0, 52, 95
2, 230400, Note_off_c, 0, 47, 95
2, 230400, Note_off_c, 0, 40, 95
2, 230400, Note_on_c, 0, 54, 95
2, 230400, Note_on_c, 0, 49, 95
2, 230400, Note_on_c, 0, 42, 95
2, 231360, Note_off_c, 0, 54, 95
2, 231360, Note_off_c, 0, 49, 95
2, 231360, Note_off_c, 0, 42, 95
2, 231360, Note_on_c, 0, 54, 95
2, 231360, Note_on_c, 0, 49, 95
2, 231360, Note_on_c, 0, 42, 95
2, 231840, Note_off_c, 0, 54, 95
2, 231840, Note_off_c, 0, 49, 95
2, 231840, Note_off_c, 0, 42, 95
2, 231840, Note_on_c, 0, 54, 95
2, 231840, Note_on_c, 0, 49, 95
2, 231840, Note_on_c, 0, 42, 95
2, 232800, Note_off_c, 0, 54, 95
2, 232800, Note_off_c, 0, 49, 95
2, 232800, Note_off_c, 0, 42, 95
2, 232800, Note_on_c, 0, 54, 95
2, 232800, Note_on_c, 0, 49, 95
2, 232800, Note_on_c, 0, 42, 95
2, 233280, Note_off_c, 0, 54, 95
2, 233280, Note_off_c, 0, 49, 95
2, 233280, Note_off_c, 0, 42, 95
2, 233280, Note_on_c, 0, 54, 95
2, 233280, Note_on_c, 0, 49, 95
2, 233280, Note_on_c, 0, 42, 95
2, 233760, Note_off_c, 0, 54, 95
2, 233760, Note_off_c, 0, 49, 95
2, 233760, Note_off_c, 0, 42, 95
2, 233760, Note_on_c, 0, 40, 95
2, 234240, Note_off_c, 0, 40, 95
2, 234240, Note_on_c, 0, 57, 95
2, 234240, Note_on_c, 0, 52, 95
2, 234240, Note_on_c, 0, 45, 95
2, 235200, Note_off_c, 0, 57, 95
2, 235200, Note_off_c, 0, 52, 95
2, 235200, Note_off_c, 0, 45, 95
2, 235200, Note_on_c, 0, 57, 95
2, 235200, Note_on_c, 0, 52, 95
2, 235200, Note_on_c, 0, 45, 95
2, 235680, Note_off_c, 0, 57, 95
2, 235680, Note_off_c, 0, 52, 95
2, 235680, Note_off_c, 0, 45, 95
2, 235680, Note_on_c, 0, 57, 95
2, 235680, Note_on_c, 0, 52, 95
2, 235680, Note_on_c, 0, 45, 95
2, 236160, Note_off_c, 0, 45, 95
2, 236640, Note_off_c, 0, 57, 95
2, 236640, Note_off_c, 0, 52, 95
2, 236640, Note_on_c, 0, 57, 95
2, 236640, Note_on_c, 0, 52, 95
2, 236640, Note_on_c, 0, 45, 95
2, 237120, Note_off_c, 0, 57, 95
2, 237120, Note_off_c, 0, 52, 95
2, 237120, Note_off_c, 0, 45, 95
2, 237120, Note_on_c, 0, 57, 95
2, 237120, Note_on_c, 0, 52, 95
2, 237120, Note_on_c, 0, 45, 95
2, 237600, Note_off_c, 0, 57, 95
2, 237600, Note_off_c, 0, 52, 95
2, 237600, Note_off_c, 0, 45, 95
2, 237600, Note_on_c, 0, 57, 95
2, 237600, Note_on_c, 0, 52, 95
2, 237600, Note_on_c, 0, 45, 95
2, 238080, Note_off_c, 0, 57, 95
2, 238080, Note_off_c, 0, 52, 95
2, 238080, Note_off_c, 0, 45, 95
2, 238080, Note_on_c, 0, 62, 95
2, 238080, Note_on_c, 0, 57, 95
2, 238080, Note_on_c, 0, 50, 95
2, 239040, Note_off_c, 0, 62, 95
2, 239040, Note_off_c, 0, 57, 95
2, 239040, Note_off_c, 0, 50, 95
2, 239040, Note_on_c, 0, 62, 95
2, 239040, Note_on_c, 0, 57, 95
2, 239040, Note_on_c, 0, 50, 95
2, 239520, Note_off_c, 0, 62, 95
2, 239520, Note_off_c, 0, 57, 95
2, 239520, Note_off_c, 0, 50, 95
2, 239520, Note_on_c, 0, 62, 95
2, 239520, Note_on_c, 0, 57, 95
2, 239520, Note_on_c, 0, 50, 95
2, 240480, Note_off_c, 0, 62, 95
2, 240480, Note_off_c, 0, 57, 95
2, 240480, Note_off_c, 0, 50, 95
2, 240480, Note_on_c, 0, 62, 95
2, 240480, Note_on_c, 0, 57, 95
2, 240480, Note_on_c, 0, 50, 95
2, 240960, Note_off_c, 0, 62, 95
2, 240960, Note_off_c, 0, 57, 95
2, 240960, Note_off_c, 0, 50, 95
2, 240960, Note_on_c, 0, 62, 95
2, 240960, Note_on_c, 0, 57, 95
2, 240960, Note_on_c, 0, 50, 95
2, 241440, Note_off_c, 0, 62, 95
2, 241440, Note_off_c, 0, 57, 95
2, 241440, Note_off_c, 0, 50, 95
2, 241440, Note_on_c, 0, 55, 95
2, 241440, Note_on_c, 0, 50, 95
2, 241440, Note_on_c, 0, 45, 95
2, 241536, Note_off_c, 0, 55, 95
2, 241536, Note_off_c, 0, 50, 95
2, 241536, Note_off_c, 0, 45, 95
2, 241920, Note_on_c, 0, 56, 95
2, 241920, Note_on_c, 0, 52, 95
2, 241920, Note_on_c, 0, 47, 95
2, 241920, Note_on_c, 0, 40, 95
2, 242880, Note_off_c, 0, 56, 95
2, 242880, Note_off_c, 0, 52, 95
2, 242880, Note_off_c, 0, 47, 95
2, 242880, Note_off_c, 0, 40, 95
2, 242880, Note_on_c, 0, 56, 95
2, 242880, Note_on_c, 0, 52, 95
2, 242880, Note_on_c, 0, 47, 95
2, 242880, Note_on_c, 0, 40, 95
2, 243360, Note_off_c, 0, 56, 95
2, 243360, Note_off_c, 0, 52, 95
2, 243360, Note_off_c, 0, 47, 95
2, 243360, Note_off_c, 0, 40, 95
2, 243360, Note_on_c, 0, 56, 95
2, 243360, Note_on_c, 0, 52, 95
2, 243360, Note_on_c, 0, 47, 95
2, 243360, Note_on_c, 0, 40, 95
2, 243840, Note_off_c, 0, 56, 95
2, 244320, Note_off_c, 0, 52, 95
2, 244320, Note_off_c, 0, 47, 95
2, 244320, Note_off_c, 0, 40, 95
2, 244320, Note_on_c, 0, 56, 95
2, 244320, Note_on_c, 0, 52, 95
2, 244320, Note_on_c, 0, 47, 95
2, 244320, Note_on_c, 0, 40, 95
2, 244800, Note_off_c, 0, 56, 95
2, 244800, Note_off_c, 0, 52, 95
2, 244800, Note_off_c, 0, 47, 95
2, 244800, Note_off_c, 0, 40, 95
2, 244800, Note_on_c, 0, 56, 95
2, 244800, Note_on_c, 0, 52, 95
2, 244800, Note_on_c, 0, 47, 95
2, 244800, Note_on_c, 0, 40, 95
2, 245280, Note_off_c, 0, 56, 95
2, 245280, Note_off_c, 0, 52, 95
2, 245280, Note_off_c, 0, 47, 95
2, 245280, Note_off_c, 0, 40, 95
2, 245280, Note_on_c, 0, 56, 95
2, 245280, Note_on_c, 0, 52, 95
2, 245280, Note_on_c, 0, 47, 95
2, 245280, Note_on_c, 0, 40, 95
2, 245760, Note_off_c, 0, 56, 95
2, 245760, Note_off_c, 0, 52, 95
2, 245760, Note_off_c, 0, 47, 95
2, 245760, Note_off_c, 0, 40, 95
2, 245760, Note_on_c, 0, 54, 95
2, 245760, Note_on_c, 0, 49, 95
2, 245760, Note_on_c, 0, 42, 95
2, 246720, Note_off_c, 0, 54, 95
2, 246720, Note_off_c, 0, 49, 95
2, 246720, Note_off_c, 0, 42, 95
2, 246720, Note_on_c, 0, 54, 95
2, 246720, Note_on_c, 0, 49, 95
2, 246720, Note_on_c, 0, 42, 95
2, 247200, Note_off_c, 0, 54, 95
2, 247200, Note_off_c, 0, 49, 95
2, 247200, Note_off_c, 0, 42, 95
2, 247200, Note_on_c, 0, 54, 95
2, 247200, Note_on_c, 0, 49, 95
2, 247200, Note_on_c, 0, 42, 95
2, 248160, Note_off_c, 0, 54, 95
2, 248160, Note_off_c, 0, 49, 95
2, 248160, Note_off_c, 0, 42, 95
2, 248160, Note_on_c, 0, 54, 95
2, 248160, Note_on_c, 0, 49, 95
2, 248160, Note_on_c, 0, 42, 95
2, 248640, Note_off_c, 0, 54, 95
2, 248640, Note_off_c, 0, 49, 95
2, 248640, Note_off_c, 0, 42, 95
2, 248640, Note_on_c, 0, 54, 95
2, 248640, Note_on_c, 0, 49, 95
2, 248640, Note_on_c, 0, 42, 95
2, 249120, Note_off_c, 0, 54, 95
2, 249120, Note_off_c, 0, 49, 95
2, 249120, Note_off_c, 0, 42, 95
2, 249120, Note_on_c, 0, 54, 95
2, 249120, Note_on_c, 0, 49, 95
2, 249120, Note_on_c, 0, 42, 95
2, 249600, Note_off_c, 0, 54, 95
2, 249600, Note_off_c, 0, 49, 95
2, 249600, Note_off_c, 0, 42, 95
2, 249600, Note_on_c, 0, 57, 95
2, 249600, Note_on_c, 0, 52, 95
2, 249600, Note_on_c, 0, 45, 95
2, 250560, Note_off_c, 0, 57, 95
2, 250560, Note_off_c, 0, 52, 95
2, 250560, Note_off_c, 0, 45, 95
2, 250560, Note_on_c, 0, 57, 95
2, 250560, Note_on_c, 0, 52, 95
2, 250560, Note_on_c, 0, 45, 95
2, 251040, Note_off_c, 0, 57, 95
2, 251040, Note_off_c, 0, 52, 95
2, 251040, Note_off_c, 0, 45, 95
2, 251040, Note_on_c, 0, 57, 95
2, 251040, Note_on_c, 0, 52, 95
2, 251040, Note_on_c, 0, 45, 95
2, 251520, Note_off_c, 0, 45, 95
2, 252000, Note_off_c, 0, 57, 95
2, 252000, Note_off_c, 0, 52, 95
2, 252000, Note_on_c, 0, 57, 95
2, 252000, Note_on_c, 0, 52, 95
2, 252000, Note_on_c, 0, 45, 95
2, 252480, Note_off_c, 0, 57, 95
2, 252480, Note_off_c, 0, 52, 95
2, 252480, Note_off_c, 0, 45, 95
2, 252480, Note_on_c, 0, 57, 95
2, 252480, Note_on_c, 0, 52, 95
2, 252480, Note_on_c, 0, 45, 95
2, 252960, Note_off_c, 0, 57, 95
2, 252960, Note_off_c, 0, 52, 95
2, 252960, Note_off_c, 0, 45, 95
2, 252960, Note_on_c, 0, 57, 95
2, 252960, Note_on_c, 0, 52, 95
2, 252960, Note_on_c, 0, 45, 95
2, 253440, Note_off_c, 0, 57, 95
2, 253440, Note_off_c, 0, 52, 95
2, 253440, Note_off_c, 0, 45, 95
2, 253440, Note_on_c, 0, 54, 95
2, 253440, Note_on_c, 0, 49, 95
2, 253440, Note_on_c, 0, 42, 95
2, 253920, Note_off_c, 0, 54, 95
2, 253920, Note_off_c, 0, 49, 95
2, 253920, Note_off_c, 0, 42, 95
2, 261120, Note_on_c, 0, 71, 95
2, 261120, Note_on_c, 0, 66, 95
2, 261120, Note_on_c, 0, 63, 95
2, 261120, Note_on_c, 0, 59, 95
2, 261120, Note_on_c, 0, 54, 95
2, 261120, Note_on_c, 0, 47, 95
2, 262080, Note_off_c, 0, 71, 95
2, 262080, Note_off_c, 0, 66, 95
2, 262080, Note_off_c, 0, 63, 95
2, 262080, Note_off_c, 0, 59, 95
2, 262080, Note_off_c, 0, 54, 95
2, 262080, Note_off_c, 0, 47, 95
2, 262080, Note_on_c, 0, 71, 95
2, 262080, Note_on_c, 0, 66, 95
2, 262080, Note_on_c, 0, 63, 95
2, 262080, Note_on_c, 0, 59, 95
2, 262080, Note_on_c, 0, 54, 95
2, 262080, Note_on_c, 0, 47, 95
2, 262560, Note_off_c, 0, 71, 95
2, 262560, Note_off_c, 0, 66, 95
2, 262560, Note_off_c, 0, 63, 95
2, 262560, Note_off_c, 0, 59, 95
2, 262560, Note_off_c, 0, 54, 95
2, 262560, Note_off_c, 0, 47, 95
2, 262560, Note_on_c, 0, 71, 95
2, 262560, Note_on_c, 0, 66, 95
2, 262560, Note_on_c, 0, 63, 95
2, 262560, Note_on_c, 0, 59, 95
2, 262560, Note_on_c, 0, 54, 95
2, 262560, Note_on_c, 0, 47, 95
2, 263040, Note_off_c, 0, 71, 95
2, 263040, Note_off_c, 0, 47, 95
2, 263520, Note_off_c, 0, 66, 95
2, 263520, Note_off_c, 0, 63, 95
2, 263520, Note_off_c, 0, 59, 95
2, 263520, Note_off_c, 0, 54, 95
2, 263520, Note_on_c, 0, 71, 95
2, 263520, Note_on_c, 0, 66, 95
2, 263520, Note_on_c, 0, 63, 95
2, 263520, Note_on_c, 0, 59, 95
2, 263520, Note_on_c, 0, 54, 95
2, 263520, Note_on_c, 0, 47, 95
2, 264000, Note_off_c, 0, 71, 95
2, 264000, Note_off_c, 0, 66, 95
2, 264000, Note_off_c, 0, 63, 95
2, 264000, Note_off_c, 0, 59, 95
2, 264000, Note_off_c, 0, 54, 95
2, 264000, Note_off_c, 0, 47, 95
2, 264000, Note_on_c, 0, 71, 95
2, 264000, Note_on_c, 0, 66, 95
2, 264000, Note_on_c, 0, 63, 95
2, 264000, Note_on_c, 0, 59, 95
2, 264000, Note_on_c, 0, 54, 95
2, 264000, Note_on_c, 0, 47, 95
2, 264960, Note_off_c, 0, 71, 95
2, 264960, Note_off_c, 0, 66, 95
2, 264960, Note_off_c, 0, 63, 95
2, 264960, Note_off_c, 0, 59, 95
2, 264960, Note_off_c, 0, 54, 95
2, 264960, Note_off_c, 0, 47, 95
2, 264960, Note_on_c, 0, 69, 95
2, 264960, Note_on_c, 0, 64, 95
2, 264960, Note_on_c, 0, 61, 95
2, 264960, Note_on_c, 0, 57, 95
2, 264960, Note_on_c, 0, 52, 95
2, 264960, Note_on_c, 0, 45, 95
2, 265920, Note_off_c, 0, 69, 95
2, 265920, Note_off_c, 0, 64, 95
2, 265920, Note_off_c, 0, 61, 95
2, 265920, Note_off_c, 0, 57, 95
2, 265920, Note_off_c, 0, 52, 95
2, 265920, Note_off_c, 0, 45, 95
2, 265920, Note_on_c, 0, 69, 95
2, 265920, Note_on_c, 0, 64, 95
2, 265920, Note_on_c, 0, 61, 95
2, 265920, Note_on_c, 0, 57, 95
2, 265920, Note_on_c, 0, 52, 95
2, 265920, Note_on_c, 0, 45, 95
2, 266400, Note_off_c, 0, 69, 95
2, 266400, Note_off_c, 0, 64, 95
2, 266400, Note_off_c, 0, 61, 95
2, 266400, Note_off_c, 0, 57, 95
2, 266400, Note_off_c, 0, 52, 95
2, 266400, Note_off_c, 0, 45, 95
2, 266400, Note_on_c, 0, 69, 95
2, 266400, Note_on_c, 0, 64, 95
2, 266400, Note_on_c, 0, 61, 95
2, 266400, Note_on_c, 0, 57, 95
2, 266400, Note_on_c, 0, 52, 95
2, 266400, Note_on_c, 0, 45, 95
2, 266880, Note_off_c, 0, 69, 95
2, 266880, Note_off_c, 0, 45, 95
2, 267360, Note_off_c, 0, 64, 95
2, 267360, Note_off_c, 0, 61, 95
2, 267360, Note_off_c, 0, 57, 95
2, 267360, Note_off_c, 0, 52, 95
2, 267360, Note_on_c, 0, 69, 95
2, 267360, Note_on_c, 0, 64, 95
2, 267360, Note_on_c, 0, 61, 95
2, 267360, Note_on_c, 0, 57, 95
2, 267360, Note_on_c, 0, 52, 95
2, 267360, Note_on_c, 0, 45, 95
2, 267840, Note_off_c, 0, 69, 95
2, 267840, Note_off_c, 0, 64, 95
2, 267840, Note_off_c, 0, 61, 95
2, 267840, Note_off_c, 0, 57, 95
2, 267840, Note_off_c, 0, 52, 95
2, 267840, Note_off_c, 0, 45, 95
2, 267840, Note_on_c, 0, 69, 95
2, 267840, Note_on_c, 0, 64, 95
2, 267840, Note_on_c, 0, 61, 95
2, 267840, Note_on_c, 0, 57, 95
2, 267840, Note_on_c, 0, 52, 95
2, 267840, Note_on_c, 0, 45, 95
2, 268800, Note_off_c, 0, 69, 95
2, 268800, Note_off_c, 0, 64, 95
2, 268800, Note_off_c, 0, 61, 95
2, 268800, Note_off_c, 0, 57, 95
2, 268800, Note_off_c, 0, 52, 95
2, 268800, Note_off_c, 0, 45, 95
2, 268800, Note_on_c, 0, 62, 95
2, 268800, Note_on_c, 0, 57, 95
2, 268800, Note_on_c, 0, 50, 95
2, 269760, Note_off_c, 0, 62, 95
2, 269760, Note_off_c, 0, 57, 95
2, 269760, Note_off_c, 0, 50, 95
2, 269760, Note_on_c, 0, 62, 95
2, 269760, Note_on_c, 0, 57, 95
2, 269760, Note_on_c, 0, 50, 95
2, 270240, Note_off_c, 0, 62, 95
2, 270240, Note_off_c, 0, 57, 95
2, 270240, Note_off_c, 0, 50, 95
2, 270240, Note_on_c, 0, 62, 95
2, 270240, Note_on_c, 0, 57, 95
2, 270240, Note_on_c, 0, 50, 95
2, 271200, Note_off_c, 0, 62, 95
2, 271200, Note_off_c, 0, 57, 95
2, 271200, Note_off_c, 0, 50, 95
2, 271200, Note_on_c, 0, 62, 95
2, 271200, Note_on_c, 0, 57, 95
2, 271200, Note_on_c, 0, 50, 95
2, 271680, Note_off_c, 0, 62, 95
2, 271680, Note_off_c, 0, 57, 95
2, 271680, Note_off_c, 0, 50, 95
2, 271680, Note_on_c, 0, 62, 95
2, 271680, Note_on_c, 0, 57, 95
2, 271680, Note_on_c, 0, 50, 95
2, 272640, Note_off_c, 0, 62, 95
2, 272640, Note_off_c, 0, 57, 95
2, 272640, Note_off_c, 0, 50, 95
2, 272640, Note_on_c, 0, 56, 95
2, 272640, Note_on_c, 0, 52, 95
2, 272640, Note_on_c, 0, 47, 95
2, 272640, Note_on_c, 0, 40, 95
2, 273600, Note_off_c, 0, 56, 95
2, 273600, Note_off_c, 0, 52, 95
2, 273600, Note_off_c, 0, 47, 95
2, 273600, Note_off_c, 0, 40, 95
2, 273600, Note_on_c, 0, 56, 95
2, 273600, Note_on_c, 0, 52, 95
2, 273600, Note_on_c, 0, 47, 95
2, 273600, Note_on_c, 0, 40, 95
2, 274080, Note_off_c, 0, 56, 95
2, 274080, Note_off_c, 0, 52, 95
2, 274080, Note_off_c, 0, 47, 95
2, 274080, Note_off_c, 0, 40, 95
2, 274080, Note_on_c, 0, 56, 95
2, 274080, Note_on_c, 0, 52, 95
2, 274080, Note_on_c, 0, 47, 95
2, 274080, Note_on_c, 0, 40, 95
2, 274560, Note_off_c, 0, 56, 95
2, 275040, Note_off_c, 0, 52, 95
2, 275040, Note_off_c, 0, 47, 95
2, 275040, Note_off_c, 0, 40, 95
2, 275040, Note_on_c, 0, 56, 95
2, 275040, Note_on_c, 0, 52, 95
2, 275040, Note_on_c, 0, 47, 95
2, 275040, Note_on_c, 0, 40, 95
2, 275520, Note_off_c, 0, 56, 95
2, 275520, Note_off_c, 0, 52, 95
2, 275520, Note_off_c, 0, 47, 95
2, 275520, Note_off_c, 0, 40, 95
2, 275520, Note_on_c, 0, 56, 95
2, 275520, Note_on_c, 0, 52, 95
2, 275520, Note_on_c, 0, 47, 95
2, 275520, Note_on_c, 0, 40, 95
2, 276480, Note_off_c, 0, 56, 95
2, 276480, Note_off_c, 0, 52, 95
2, 276480, Note_off_c, 0, 47, 95
2, 276480, Note_off_c, 0, 40, 95
2, 276480, Note_on_c, 0, 71, 95
2, 276480, Note_on_c, 0, 66, 95
2, 276480, Note_on_c, 0, 63, 95
2, 276480, Note_on_c, 0, 59, 95
2, 276480, Note_on_c, 0, 54, 95
2, 276480, Note_on_c, 0, 47, 95
2, 277440, Note_off_c, 0, 71, 95
2, 277440, Note_off_c, 0, 66, 95
2, 277440, Note_off_c, 0, 63, 95
2, 277440, Note_off_c, 0, 59, 95
2, 277440, Note_off_c, 0, 54, 95
2, 277440, Note_off_c, 0, 47, 95
2, 277440, Note_on_c, 0, 71, 95
2, 277440, Note_on_c, 0, 66, 95
2, 277440, Note_on_c, 0, 63, 95
2, 277440, Note_on_c, 0, 59, 95
2, 277440, Note_on_c, 0, 54, 95
2, 277440, Note_on_c, 0, 47, 95
2, 277920, Note_off_c, 0, 71, 95
2, 277920, Note_off_c, 0, 66, 95
2, 277920, Note_off_c, 0, 63, 95
2, 277920, Note_off_c, 0, 59, 95
2, 277920, Note_off_c, 0, 54, 95
2, 277920, Note_off_c, 0, 47, 95
2, 277920, Note_on_c, 0, 71, 95
2, 277920, Note_on_c, 0, 66, 95
2, 277920, Note_on_c, 0, 63, 95
2, 277920, Note_on_c, 0, 59, 95
2, 277920, Note_on_c, 0, 54, 95
2, 277920, Note_on_c, 0, 47, 95
2, 278400, Note_off_c, 0, 71, 95
2, 278400, Note_off_c, 0, 47, 95
2, 278880, Note_off_c, 0, 66, 95
2, 278880, Note_off_c, 0, 63, 95
2, 278880, Note_off_c, 0, 59, 95
2, 278880, Note_off_c, 0, 54, 95
2, 278880, Note_on_c, 0, 71, 95
2, 278880, Note_on_c, 0, 66, 95
2, 278880, Note_on_c, 0, 63, 95
2, 278880, Note_on_c, 0, 59, 95
2, 278880, Note_on_c, 0, 54, 95
2, 278880, Note_on_c, 0, 47, 95
2, 279360, Note_off_c, 0, 71, 95
2, 279360, Note_off_c, 0, 66, 95
2, 279360, Note_off_c, 0, 63, 95
2, 279360, Note_off_c, 0, 59, 95
2, 279360, Note_off_c, 0, 54, 95
2, 279360, Note_off_c, 0, 47, 95
2, 279360, Note_on_c, 0, 71, 95
2, 279360, Note_on_c, 0, 66, 95
2, 279360, Note_on_c, 0, 63, 95
2, 279360, Note_on_c, 0, 59, 95
2, 279360, Note_on_c, 0, 54, 95
2, 279360, Note_on_c, 0, 47, 95
2, 280320, Note_off_c, 0, 71, 95
2, 280320, Note_off_c, 0, 66, 95
2, 280320, Note_off_c, 0, 63, 95
2, 280320, Note_off_c, 0, 59, 95
2, 280320, Note_off_c, 0, 54, 95
2, 280320, Note_off_c, 0, 47, 95
2, 280320, Note_on_c, 0, 69, 95
2, 280320, Note_on_c, 0, 64, 95
2, 280320, Note_on_c, 0, 61, 95
2, 280320, Note_on_c, 0, 57, 95
2, 280320, Note_on_c, 0, 52, 95
2, 280320, Note_on_c, 0, 45, 95
2, 281280, Note_off_c, 0, 69, 95
2, 281280, Note_off_c, 0, 64, 95
2, 281280, Note_off_c, 0, 61, 95
2, 281280, Note_off_c, 0, 57, 95
2, 281280, Note_off_c, 0, 52, 95
2, 281280, Note_off_c, 0, 45, 95
2, 281280, Note_on_c, 0, 69, 95
2, 281280, Note_on_c, 0, 64, 95
2, 281280, Note_on_c, 0, 61, 95
2, 281280, Note_on_c, 0, 57, 95
2, 281280, Note_on_c, 0, 52, 95
2, 281280, Note_on_c, 0, 45, 95
2, 281760, Note_off_c, 0, 69, 95
2, 281760, Note_off_c, 0, 64, 95
2, 281760, Note_off_c, 0, 61, 95
2, 281760, Note_off_c, 0, 57, 95
2, 281760, Note_off_c, 0, 52, 95
2, 281760, Note_off_c, 0, 45, 95
2, 281760, Note_on_c, 0, 69, 95
2, 281760, Note_on_c, 0, 64, 95
2, 281760, Note_on_c, 0, 61, 95
2, 281760, Note_on_c, 0, 57, 95
2, 281760, Note_on_c, 0, 52, 95
2, 281760, Note_on_c, 0, 45, 95
2, 282240, Note_off_c, 0, 69, 95
2, 282240, Note_off_c, 0, 45, 95
2, 282720, Note_off_c, 0, 64, 95
2, 282720, Note_off_c, 0, 61, 95
2, 282720, Note_off_c, 0, 57, 95
2, 282720, Note_off_c, 0, 52, 95
2, 282720, Note_on_c, 0, 69, 95
2, 282720, Note_on_c, 0, 64, 95
2, 282720, Note_on_c, 0, 61, 95
2, 282720, Note_on_c, 0, 57, 95
2, 282720, Note_on_c, 0, 52, 95
2, 282720, Note_on_c, 0, 45, 95
2, 283200, Note_off_c, 0, 69, 95
2, 283200, Note_off_c, 0, 64, 95
2, 283200, Note_off_c, 0, 61, 95
2, 283200, Note_off_c, 0, 57, 95
2, 283200, Note_off_c, 0, 52, 95
2, 283200, Note_off_c, 0, 45, 95
2, 283200, Note_on_c, 0, 69, 95
2, 283200, Note_on_c, 0, 64, 95
2, 283200, Note_on_c, 0, 61, 95
2, 283200, Note_on_c, 0, 57, 95
2, 283200, Note_on_c, 0, 52, 95
2, 283200, Note_on_c, 0, 45, 95
2, 284160, Note_off_c, 0, 69, 95
2, 284160, Note_off_c, 0, 64, 95
2, 284160, Note_off_c, 0, 61, 95
2, 284160, Note_off_c, 0, 57, 95
2, 284160, Note_off_c, 0, 52, 95
2, 284160, Note_off_c, 0, 45, 95
2, 284160, Note_on_c, 0, 62, 95
2, 284160, Note_on_c, 0, 57, 95
2, 284160, Note_on_c, 0, 50, 95
2, 285120, Note_off_c, 0, 62, 95
2, 285120, Note_off_c, 0, 57, 95
2, 285120, Note_off_c, 0, 50, 95
2, 285120, Note_on_c, 0, 62, 95
2, 285120, Note_on_c, 0, 57, 95
2, 285120, Note_on_c, 0, 50, 95
2, 285600, Note_off_c, 0, 62, 95
2, 285600, Note_off_c, 0, 57, 95
2, 285600, Note_off_c, 0, 50, 95
2, 285600, Note_on_c, 0, 62, 95
2, 285600, Note_on_c, 0, 57, 95
2, 285600, Note_on_c, 0, 50, 95
2, 286560, Note_off_c, 0, 62, 95
2, 286560, Note_off_c, 0, 57, 95
2, 286560, Note_off_c, 0, 50, 95
2, 286560, Note_on_c, 0, 62, 95
2, 286560, Note_on_c, 0, 57, 95
2, 286560, Note_on_c, 0, 50, 95
2, 287040, Note_off_c, 0, 62, 95
2, 287040, Note_off_c, 0, 57, 95
2, 287040, Note_off_c, 0, 50, 95
2, 287040, Note_on_c, 0, 62, 95
2, 287040, Note_on_c, 0, 57, 95
2, 287040, Note_on_c, 0, 50, 95
2, 288000, Note_off_c, 0, 62, 95
2, 288000, Note_off_c, 0, 57, 95
2, 288000, Note_off_c, 0, 50, 95
2, 288000, Note_on_c, 0, 56, 95
2, 288000, Note_on_c, 0, 52, 95
2, 288000, Note_on_c, 0, 47, 95
2, 288000, Note_on_c, 0, 40, 95
2, 288960, Note_off_c, 0, 56, 95
2, 288960, Note_off_c, 0, 52, 95
2, 288960, Note_off_c, 0, 47, 95
2, 288960, Note_off_c, 0, 40, 95
2, 288960, Note_on_c, 0, 56, 95
2, 288960, Note_on_c, 0, 52, 95
2, 288960, Note_on_c, 0, 47, 95
2, 288960, Note_on_c, 0, 40, 95
2, 289440, Note_off_c, 0, 56, 95
2, 289440, Note_off_c, 0, 52, 95
2, 289440, Note_off_c, 0, 47, 95
2, 289440, Note_off_c, 0, 40, 95
2, 289440, Note_on_c, 0, 56, 95
2, 289440, Note_on_c, 0, 52, 95
2, 289440, Note_on_c, 0, 47, 95
2, 289440, Note_on_c, 0, 40, 95
2, 289920, Note_off_c, 0, 56, 95
2, 290400, Note_off_c, 0, 52, 95
2, 290400, Note_off_c, 0, 47, 95
2, 290400, Note_off_c, 0, 40, 95
2, 290400, Note_on_c, 0, 56, 95
2, 290400, Note_on_c, 0, 52, 95
2, 290400, Note_on_c, 0, 47, 95
2, 290400, Note_on_c, 0, 40, 95
2, 290880, Note_off_c, 0, 56, 95
2, 290880, Note_off_c, 0, 52, 95
2, 290880, Note_off_c, 0, 47, 95
2, 290880, Note_off_c, 0, 40, 95
2, 290880, Note_on_c, 0, 56, 95
2, 290880, Note_on_c, 0, 52, 95
2, 290880, Note_on_c, 0, 47, 95
2, 290880, Note_on_c, 0, 40, 95
2, 291840, Note_off_c, 0, 56, 95
2, 291840, Note_off_c, 0, 52, 95
2, 291840, Note_off_c, 0, 47, 95
2, 291840, Note_off_c, 0, 40, 95
2, 291840, Note_on_c, 0, 54, 95
2, 291840, Note_on_c, 0, 49, 95
2, 291840, Note_on_c, 0, 42, 95
2, 292800, Note_off_c, 0, 54, 95
2, 292800, Note_off_c, 0, 49, 95
2, 292800, Note_off_c, 0, 42, 95
2, 292800, Note_on_c, 0, 54, 95
2, 292800, Note_on_c, 0, 49, 95
2, 292800, Note_on_c, 0, 42, 95
2, 293280, Note_off_c, 0, 54, 95
2, 293280, Note_off_c, 0, 49, 95
2, 293280, Note_off_c, 0, 42, 95
2, 293280, Note_on_c, 0, 54, 95
2, 293280, Note_on_c, 0, 49, 95
2, 293280, Note_on_c, 0, 42, 95
2, 294240, Note_off_c, 0, 54, 95
2, 294240, Note_off_c, 0, 49, 95
2, 294240, Note_off_c, 0, 42, 95
2, 294240, Note_on_c, 0, 54, 95
2, 294240, Note_on_c, 0, 49, 95
2, 294240, Note_on_c, 0, 42, 95
2, 294720, Note_off_c, 0, 54, 95
2, 294720, Note_off_c, 0, 49, 95
2, 294720, Note_off_c, 0, 42, 95
2, 294720, Note_on_c, 0, 54, 95
2, 294720, Note_on_c, 0, 49, 95
2, 294720, Note_on_c, 0, 42, 95
2, 295200, Note_off_c, 0, 54, 95
2, 295200, Note_off_c, 0, 49, 95
2, 295200, Note_off_c, 0, 42, 95
2, 295200, Note_on_c, 0, 45, 95
2, 295200, Note_on_c, 0, 40, 95
2, 295680, Note_off_c, 0, 45, 95
2, 295680, Note_off_c, 0, 40, 95
2, 295680, Note_on_c, 0, 61, 95
2, 295680, Note_on_c, 0, 57, 95
2, 295680, Note_on_c, 0, 52, 95
2, 295680, Note_on_c, 0, 45, 95
2, 296640, Note_off_c, 0, 61, 95
2, 296640, Note_off_c, 0, 57, 95
2, 296640, Note_off_c, 0, 52, 95
2, 296640, Note_off_c, 0, 45, 95
2, 296640, Note_on_c, 0, 61, 95
2, 296640, Note_on_c, 0, 57, 95
2, 296640, Note_on_c, 0, 52, 95
2, 296640, Note_on_c, 0, 45, 95
2, 297120, Note_off_c, 0, 61, 95
2, 297120, Note_off_c, 0, 57, 95
2, 297120, Note_off_c, 0, 52, 95
2, 297120, Note_off_c, 0, 45, 95
2, 297120, Note_on_c, 0, 61, 95
2, 297120, Note_on_c, 0, 57, 95
2, 297120, Note_on_c, 0, 52, 95
2, 297120, Note_on_c, 0, 45, 95
2, 298080, Note_off_c, 0, 61, 95
2, 298080, Note_off_c, 0, 57, 95
2, 298080, Note_off_c, 0, 52, 95
2, 298080, Note_off_c, 0, 45, 95
2, 298080, Note_on_c, 0, 61, 95
2, 298080, Note_on_c, 0, 57, 95
2, 298080, Note_on_c, 0, 52, 95
2, 298080, Note_on_c, 0, 45, 95
2, 298560, Note_off_c, 0, 61, 95
2, 298560, Note_off_c, 0, 57, 95
2, 298560, Note_off_c, 0, 52, 95
2, 298560, Note_off_c, 0, 45, 95
2, 298560, Note_on_c, 0, 61, 95
2, 298560, Note_on_c, 0, 57, 95
2, 298560, Note_on_c, 0, 52, 95
2, 298560, Note_on_c, 0, 45, 95
2, 299040, Note_off_c, 0, 61, 95
2, 299040, Note_off_c, 0, 57, 95
2, 299040, Note_off_c, 0, 52, 95
2, 299040, Note_off_c, 0, 45, 95
2, 299040, Note_on_c, 0, 61, 95
2, 299040, Note_on_c, 0, 57, 95
2, 299040, Note_on_c, 0, 52, 95
2, 299040, Note_on_c, 0, 45, 95
2, 299520, Note_off_c, 0, 57, 95
2, 299520, Note_off_c, 0, 52, 95
2, 299520, Note_off_c, 0, 45, 95
2, 299520, Note_on_c, 0, 62, 95
2, 299520, Note_on_c, 0, 57, 95
2, 299520, Note_on_c, 0, 50, 95
2, 300480, Note_off_c, 0, 62, 95
2, 300480, Note_off_c, 0, 57, 95
2, 300480, Note_off_c, 0, 50, 95
2, 300480, Note_on_c, 0, 62, 95
2, 300480, Note_on_c, 0, 57, 95
2, 300480, Note_on_c, 0, 50, 95
2, 300960, Note_off_c, 0, 62, 95
2, 300960, Note_off_c, 0, 57, 95
2, 300960, Note_off_c, 0, 50, 95
2, 300960, Note_on_c, 0, 62, 95
2, 300960, Note_on_c, 0, 57, 95
2, 300960, Note_on_c, 0, 50, 95
2, 301920, Note_off_c, 0, 62, 95
2, 301920, Note_off_c, 0, 57, 95
2, 301920, Note_off_c, 0, 50, 95
2, 301920, Note_on_c, 0, 62, 95
2, 301920, Note_on_c, 0, 57, 95
2, 301920, Note_on_c, 0, 50, 95
2, 302400, Note_off_c, 0, 62, 95
2, 302400, Note_off_c, 0, 57, 95
2, 302400, Note_off_c, 0, 50, 95
2, 302400, Note_on_c, 0, 62, 95
2, 302400, Note_on_c, 0, 57, 95
2, 302400, Note_on_c, 0, 50, 95
2, 302880, Note_off_c, 0, 62, 95
2, 302880, Note_off_c, 0, 57, 95
2, 302880, Note_off_c, 0, 50, 95
2, 302880, Note_on_c, 0, 40, 95
2, 303360, Note_off_c, 0, 40, 95
2, 303360, Note_on_c, 0, 56, 95
2, 303360, Note_on_c, 0, 52, 95
2, 303360, Note_on_c, 0, 47, 95
2, 303360, Note_on_c, 0, 40, 95
2, 304320, Note_off_c, 0, 56, 95
2, 304320, Note_off_c, 0, 52, 95
2, 304320, Note_off_c, 0, 47, 95
2, 304320, Note_off_c, 0, 40, 95
2, 304320, Note_on_c, 0, 56, 95
2, 304320, Note_on_c, 0, 52, 95
2, 304320, Note_on_c, 0, 47, 95
2, 304320, Note_on_c, 0, 40, 95
2, 304800, Note_off_c, 0, 56, 95
2, 304800, Note_off_c, 0, 52, 95
2, 304800, Note_off_c, 0, 47, 95
2, 304800, Note_off_c, 0, 40, 95
2, 304800, Note_on_c, 0, 56, 95
2, 304800, Note_on_c, 0, 52, 95
2, 304800, Note_on_c, 0, 47, 95
2, 304800, Note_on_c, 0, 40, 95
2, 305280, Note_off_c, 0, 56, 95
2, 305760, Note_off_c, 0, 52, 95
2, 305760, Note_off_c, 0, 47, 95
2, 305760, Note_off_c, 0, 40, 95
2, 305760, Note_on_c, 0, 56, 95
2, 305760, Note_on_c, 0, 52, 95
2, 305760, Note_on_c, 0, 47, 95
2, 305760, Note_on_c, 0, 40, 95
2, 306240, Note_off_c, 0, 56, 95
2, 306240, Note_off_c, 0, 52, 95
2, 306240, Note_off_c, 0, 47, 95
2, 306240, Note_off_c, 0, 40, 95
2, 306240, Note_on_c, 0, 56, 95
2, 306240, Note_on_c, 0, 52, 95
2, 306240, Note_on_c, 0, 47, 95
2, 306240, Note_on_c, 0, 40, 95
2, 306720, Note_off_c, 0, 56, 95
2, 306720, Note_off_c, 0, 52, 95
2, 306720, Note_off_c, 0, 47, 95
2, 306720, Note_off_c, 0, 40, 95
2, 306720, Note_on_c, 0, 56, 95
2, 306720, Note_on_c, 0, 52, 95
2, 306720, Note_on_c, 0, 47, 95
2, 306720, Note_on_c, 0, 40, 95
2, 307200, Note_off_c, 0, 56, 95
2, 307200, Note_off_c, 0, 52, 95
2, 307200, Note_off_c, 0, 47, 95
2, 307200, Note_off_c, 0, 40, 95
2, 307200, Note_on_c, 0, 54, 95
2, 307200, Note_on_c, 0, 49, 95
2, 307200, Note_on_c, 0, 42, 95
2, 308160, Note_off_c, 0, 54, 95
2, 308160, Note_off_c, 0, 49, 95
2, 308160, Note_off_c, 0, 42, 95
2, 308160, Note_on_c, 0, 54, 95
2, 308160, Note_on_c, 0, 49, 95
2, 308160, Note_on_c, 0, 42, 95
2, 308640, Note_off_c, 0, 54, 95
2, 308640, Note_off_c, 0, 49, 95
2, 308640, Note_off_c, 0, 42, 95
2, 308640, Note_on_c, 0, 54, 95
2, 308640, Note_on_c, 0, 49, 95
2, 308640, Note_on_c, 0, 42, 95
2, 309600, Note_off_c, 0, 54, 95
2, 309600, Note_off_c, 0, 49, 95
2, 309600, Note_off_c, 0, 42, 95
2, 309600, Note_on_c, 0, 54, 95
2, 309600, Note_on_c, 0, 49, 95
2, 309600, Note_on_c, 0, 42, 95
2, 310080, Note_off_c, 0, 54, 95
2, 310080, Note_off_c, 0, 49, 95
2, 310080, Note_off_c, 0, 42, 95
2, 310080, Note_on_c, 0, 54, 95
2, 310080, Note_on_c, 0, 49, 95
2, 310080, Note_on_c, 0, 42, 95
2, 310560, Note_off_c, 0, 54, 95
2, 310560, Note_off_c, 0, 49, 95
2, 310560, Note_off_c, 0, 42, 95
2, 310560, Note_on_c, 0, 45, 95
2, 310560, Note_on_c, 0, 40, 95
2, 311040, Note_off_c, 0, 45, 95
2, 311040, Note_off_c, 0, 40, 95
2, 311040, Note_on_c, 0, 57, 95
2, 311040, Note_on_c, 0, 52, 95
2, 311040, Note_on_c, 0, 45, 95
2, 312000, Note_off_c, 0, 57, 95
2, 312000, Note_off_c, 0, 52, 95
2, 312000, Note_off_c, 0, 45, 95
2, 312000, Note_on_c, 0, 57, 95
2, 312000, Note_on_c, 0, 52, 95
2, 312000, Note_on_c, 0, 45, 95
2, 312480, Note_off_c, 0, 57, 95
2, 312480, Note_off_c, 0, 52, 95
2, 312480, Note_off_c, 0, 45, 95
2, 312480, Note_on_c, 0, 57, 95
2, 312480, Note_on_c, 0, 52, 95
2, 312480, Note_on_c, 0, 45, 95
2, 312960, Note_off_c, 0, 45, 95
2, 313440, Note_off_c, 0, 61, 95
2, 313440, Note_off_c, 0, 57, 95
2, 313440, Note_off_c, 0, 52, 95
2, 313440, Note_on_c, 0, 57, 95
2, 313440, Note_on_c, 0, 52, 95
2, 313440, Note_on_c, 0, 45, 95
2, 313920, Note_off_c, 0, 57, 95
2, 313920, Note_off_c, 0, 52, 95
2, 313920, Note_off_c, 0, 45, 95
2, 313920, Note_on_c, 0, 57, 95
2, 313920, Note_on_c, 0, 52, 95
2, 313920, Note_on_c, 0, 45, 95
2, 314400, Note_off_c, 0, 57, 95
2, 314400, Note_off_c, 0, 52, 95
2, 314400, Note_off_c, 0, 45, 95
2, 314400, Note_on_c, 0, 57, 95
2, 314400, Note_on_c, 0, 52, 95
2, 314400, Note_on_c, 0, 45, 95
2, 314880, Note_off_c, 0, 57, 95
2, 314880, Note_off_c, 0, 52, 95
2, 314880, Note_off_c, 0, 45, 95
2, 314880, Note_on_c, 0, 54, 95
2, 314880, Note_on_c, 0, 49, 95
2, 314880, Note_on_c, 0, 42, 95
2, 315360, Note_off_c, 0, 54, 95
2, 315360, Note_off_c, 0, 49, 95
2, 315360, Note_off_c, 0, 42, 95
2, 322560, Note_on_c, 1, 63, 95
2, 322560, Note_on_c, 1, 59, 95
2, 322560, Note_on_c, 1, 54, 95
2, 322560, Note_on_c, 1, 47, 95
2, 322720, Pitch_bend_c, 1, 8192
2, 322720, Pitch_bend_c, 1, 8192
2, 322720, Pitch_bend_c, 1, 8192
2, 322720, Pitch_bend_c, 1, 8192
2, 322880, Pitch_bend_c, 1, 8320
2, 322880, Pitch_bend_c, 1, 8320
2, 322880, Pitch_bend_c, 1, 8320
2, 322880, Pitch_bend_c, 1, 8320
2, 323040, Pitch_bend_c, 1, 8192
2, 323040, Pitch_bend_c, 1, 8320
2, 323040, Pitch_bend_c, 1, 8192
2, 323040, Note_off_c, 1, 63, 95
2, 323040, Pitch_bend_c, 1, 8192
2, 323040, Pitch_bend_c, 1, 8320
2, 323040, Pitch_bend_c, 1, 8192
2, 323040, Note_off_c, 1, 59, 95
2, 323040, Pitch_bend_c, 1, 8192
2, 323040, Pitch_bend_c, 1, 8320
2, 323040, Pitch_bend_c, 1, 8192
2, 323040, Note_off_c, 1, 54, 95
2, 323040, Pitch_bend_c, 1, 8192
2, 323040, Pitch_bend_c, 1, 8320
2, 323040, Pitch_bend_c, 1, 8192
2, 323040, Note_off_c, 1, 47, 95
2, 323040, End_track
3, 0, Start_track
3, 0, Pitch_bend_c, 2, 8192
3, 0, Control_c, 2, 7, 95
3, 0, Control_c, 2, 10, 63
3, 0, Control_c, 2, 93, 0
3, 0, Control_c, 2, 91, 0
3, 0, Control_c, 2, 95, 0
3, 0, Control_c, 2, 92, 0
3, 0, Control_c, 2, 11, 127
3, 0, Program_c, 2, 29
3, 0, Control_c, 3, 7, 95
3, 0, Control_c, 3, 10, 63
3, 0, Control_c, 3, 93, 0
3, 0, Control_c, 3, 91, 0
3, 0, Control_c, 3, 95, 0
3, 0, Control_c, 3, 92, 0
3, 0, Control_c, 3, 11, 127
3, 0, Program_c, 3, 29
3, 15360, Note_on_c, 2, 59, 95
3, 15360, Note_on_c, 2, 54, 95
3, 15360, Note_on_c, 2, 47, 95
3, 16320, Note_off_c, 2, 59, 95
3, 16320, Note_off_c, 2, 54, 95
3, 16320, Note_off_c, 2, 47, 95
3, 16320, Note_on_c, 2, 59, 95
3, 16320, Note_on_c, 2, 54, 95
3, 16320, Note_on_c, 2, 47, 95
3, 16800, Note_off_c, 2, 59, 95
3, 16800, Note_off_c, 2, 54, 95
3, 16800, Note_off_c, 2, 47, 95
3, 16800, Note_on_c, 2, 59, 95
3, 16800, Note_on_c, 2, 54, 95
3, 16800, Note_on_c, 2, 47, 95
3, 17760, Note_off_c, 2, 59, 95
3, 17760, Note_off_c, 2, 54, 95
3, 17760, Note_off_c, 2, 47, 95
3, 17760, Note_on_c, 2, 59, 95
3, 17760, Note_on_c, 2, 54, 95
3, 17760, Note_on_c, 2, 47, 95
3, 18240, Note_off_c, 2, 59, 95
3, 18240, Note_off_c, 2, 54, 95
3, 18240, Note_off_c, 2, 47, 95
3, 18240, Note_on_c, 2, 59, 95
3, 18240, Note_on_c, 2, 54, 95
3, 18240, Note_on_c, 2, 47, 95
3, 19200, Note_off_c, 2, 59, 95
3, 19200, Note_off_c, 2, 54, 95
3, 19200, Note_off_c, 2, 47, 95
3, 19200, Note_on_c, 2, 57, 95
3, 19200, Note_on_c, 2, 52, 95
3, 19200, Note_on_c, 2, 45, 95
3, 20160, Note_off_c, 2, 57, 95
3, 20160, Note_off_c, 2, 52, 95
3, 20160, Note_off_c, 2, 45, 95
3, 20160, Note_on_c, 2, 57, 95
3, 20160, Note_on_c, 2, 52, 95
3, 20160, Note_on_c, 2, 45, 95
3, 20640, Note_off_c, 2, 57, 95
3, 20640, Note_off_c, 2, 52, 95
3, 20640, Note_off_c, 2, 45, 95
3, 20640, Note_on_c, 2, 57, 95
3, 20640, Note_on_c, 2, 52, 95
3, 20640, Note_on_c, 2, 45, 95
3, 21120, Note_off_c, 2, 45, 95
3, 21600, Note_off_c, 2, 57, 95
3, 21600, Note_off_c, 2, 52, 95
3, 21600, Note_on_c, 2, 57, 95
3, 21600, Note_on_c, 2, 52, 95
3, 21600, Note_on_c, 2, 45, 95
3, 22080, Note_off_c, 2, 57, 95
3, 22080, Note_off_c, 2, 52, 95
3, 22080, Note_off_c, 2, 45, 95
3, 22080, Note_on_c, 2, 57, 95
3, 22080, Note_on_c, 2, 52, 95
3, 22080, Note_on_c, 2, 45, 95
3, 23040, Note_off_c, 2, 57, 95
3, 23040, Note_off_c, 2, 52, 95
3, 23040, Note_off_c, 2, 45, 95
3, 23040, Note_on_c, 2, 62, 95
3, 23040, Note_on_c, 2, 57, 95
3, 23040, Note_on_c, 2, 50, 95
3, 24000, Note_off_c, 2, 62, 95
3, 24000, Note_off_c, 2, 57, 95
3, 24000, Note_off_c, 2, 50, 95
3, 24000, Note_on_c, 2, 62, 95
3, 24000, Note_on_c, 2, 57, 95
3, 24000, Note_on_c, 2, 50, 95
3, 24480, Note_off_c, 2, 62, 95
3, 24480, Note_off_c, 2, 57, 95
3, 24480, Note_off_c, 2, 50, 95
3, 24480, Note_on_c, 2, 62, 95
3, 24480, Note_on_c, 2, 57, 95
3, 24480, Note_on_c, 2, 50, 95
3, 25440, Note_off_c, 2, 62, 95
3, 25440, Note_off_c, 2, 57, 95
3, 25440, Note_off_c, 2, 50, 95
3, 25440, Note_on_c, 2, 62, 95
3, 25440, Note_on_c, 2, 57, 95
3, 25440, Note_on_c, 2, 50, 95
3, 25920, Note_off_c, 2, 62, 95
3, 25920, Note_off_c, 2, 57, 95
3, 25920, Note_off_c, 2, 50, 95
3, 25920, Note_on_c, 2, 62, 95
3, 25920, Note_on_c, 2, 57, 95
3, 25920, Note_on_c, 2, 50, 95
3, 26400, Note_off_c, 2, 62, 95
3, 26400, Note_off_c, 2, 57, 95
3, 26400, Note_off_c, 2, 50, 95
3, 26400, Note_on_c, 2, 62, 95
3, 26400, Note_on_c, 2, 57, 95
3, 26400, Note_on_c, 2, 50, 95
3, 26640, Note_off_c, 2, 62, 95
3, 26640, Note_off_c, 2, 57, 95
3, 26640, Note_off_c, 2, 50, 95
3, 26640, Note_on_c, 2, 62, 95
3, 26640, Note_on_c, 2, 57, 95
3, 26640, Note_on_c, 2, 50, 95
3, 26880, Note_off_c, 2, 62, 95
3, 26880, Note_off_c, 2, 57, 95
3, 26880, Note_off_c, 2, 50, 95
3, 26880, Note_on_c, 2, 64, 95
3, 26880, Note_on_c, 2, 59, 95
3, 26880, Note_on_c, 2, 52, 95
3, 27840, Note_off_c, 2, 64, 95
3, 27840, Note_off_c, 2, 59, 95
3, 27840, Note_off_c, 2, 52, 95
3, 27840, Note_on_c, 2, 64, 95
3, 27840, Note_on_c, 2, 59, 95
3, 27840, Note_on_c, 2, 52, 95
3, 28320, Note_off_c, 2, 64, 95
3, 28320, Note_off_c, 2, 59, 95
3, 28320, Note_off_c, 2, 52, 95
3, 28320, Note_on_c, 2, 64, 95
3, 28320, Note_on_c, 2, 59, 95
3, 28320, Note_on_c, 2, 52, 95
3, 29280, Note_off_c, 2, 64, 95
3, 29280, Note_off_c, 2, 59, 95
3, 29280, Note_off_c, 2, 52, 95
3, 29280, Note_on_c, 2, 64, 95
3, 29280, Note_on_c, 2, 59, 95
3, 29280, Note_on_c, 2, 52, 95
3, 29760, Note_off_c, 2, 64, 95
3, 29760, Note_off_c, 2, 59, 95
3, 29760, Note_off_c, 2, 52, 95
3, 29760, Note_on_c, 2, 45, 95
3, 29760, Note_on_c, 2, 40, 95
3, 30240, Note_off_c, 2, 45, 95
3, 30240, Note_off_c, 2, 40, 95
3, 30240, Note_on_c, 2, 45, 95
3, 30240, Note_on_c, 2, 40, 95
3, 30720, Note_off_c, 2, 45, 95
3, 30720, Note_off_c, 2, 40, 95
3, 30720, Note_on_c, 2, 59, 95
3, 30720, Note_on_c, 2, 54, 95
3, 30720, Note_on_c, 2, 47, 95
3, 31680, Note_off_c, 2, 59, 95
3, 31680, Note_off_c, 2, 54, 95
3, 31680, Note_off_c, 2, 47, 95
3, 31680, Note_on_c, 2, 59, 95
3, 31680, Note_on_c, 2, 54, 95
3, 31680, Note_on_c, 2, 47, 95
3, 32160, Note_off_c, 2, 59, 95
3, 32160, Note_off_c, 2, 54, 95
3, 32160, Note_off_c, 2, 47, 95
3, 32160, Note_on_c, 2, 59, 95
3, 32160, Note_on_c, 2, 54, 95
3, 32160, Note_on_c, 2, 47, 95
3, 33120, Note_off_c, 2, 59, 95
3, 33120, Note_off_c, 2, 54, 95
3, 33120, Note_off_c, 2, 47, 95
3, 33120, Note_on_c, 2, 59, 95
3, 33120, Note_on_c, 2, 54, 95
3, 33120, Note_on_c, 2, 47, 95
3, 33600, Note_off_c, 2, 59, 95
3, 33600, Note_off_c, 2, 54, 95
3, 33600, Note_off_c, 2, 47, 95
3, 33600, Note_on_c, 2, 59, 95
3, 33600, Note_on_c, 2, 54, 95
3, 33600, Note_on_c, 2, 47, 95
3, 34080, Note_off_c, 2, 59, 95
3, 34080, Note_off_c, 2, 54, 95
3, 34080, Note_off_c, 2, 47, 95
3, 34080, Note_on_c, 2, 50, 95
3, 34080, Note_on_c, 2, 45, 95
3, 34560, Note_off_c, 2, 50, 95
3, 34560, Note_off_c, 2, 45, 95
3, 34560, Note_on_c, 2, 57, 95
3, 34560, Note_on_c, 2, 52, 95
3, 34560, Note_on_c, 2, 45, 95
3, 35520, Note_off_c, 2, 57, 95
3, 35520, Note_off_c, 2, 52, 95
3, 35520, Note_off_c, 2, 45, 95
3, 35520, Note_on_c, 2, 57, 95
3, 35520, Note_on_c, 2, 52, 95
3, 35520, Note_on_c, 2, 45, 95
3, 36000, Note_off_c, 2, 57, 95
3, 36000, Note_off_c, 2, 52, 95
3, 36000, Note_off_c, 2, 45, 95
3, 36000, Note_on_c, 2, 57, 95
3, 36000, Note_on_c, 2, 52, 95
3, 36000, Note_on_c, 2, 45, 95
3, 36480, Note_off_c, 2, 45, 95
3, 36960, Note_off_c, 2, 57, 95
3, 36960, Note_off_c, 2, 52, 95
3, 36960, Note_on_c, 2, 57, 95
3, 36960, Note_on_c, 2, 52, 95
3, 36960, Note_on_c, 2, 45, 95
3, 37440, Note_off_c, 2, 57, 95
3, 37440, Note_off_c, 2, 52, 95
3, 37440, Note_off_c, 2, 45, 95
3, 37440, Note_on_c, 2, 57, 95
3, 37440, Note_on_c, 2, 52, 95
3, 37440, Note_on_c, 2, 45, 95
3, 37920, Note_off_c, 2, 57, 95
3, 37920, Note_off_c, 2, 52, 95
3, 37920, Note_off_c, 2, 45, 95
3, 37920, Note_on_c, 2, 57, 95
3, 37920, Note_on_c, 2, 52, 95
3, 37920, Note_on_c, 2, 45, 95
3, 38160, Note_off_c, 2, 57, 95
3, 38160, Note_off_c, 2, 52, 95
3, 38160, Note_off_c, 2, 45, 95
3, 38160, Note_on_c, 2, 57, 95
3, 38160, Note_on_c, 2, 52, 95
3, 38160, Note_on_c, 2, 45, 95
3, 38400, Note_off_c, 2, 57, 95
3, 38400, Note_off_c, 2, 52, 95
3, 38400, Note_off_c, 2, 45, 95
3, 38400, Note_on_c, 2, 62, 95
3, 38400, Note_on_c, 2, 57, 95
3, 38400, Note_on_c, 2, 50, 95
3, 39360, Note_off_c, 2, 62, 95
3, 39360, Note_off_c, 2, 57, 95
3, 39360, Note_off_c, 2, 50, 95
3, 39360, Note_on_c, 2, 62, 95
3, 39360, Note_on_c, 2, 57, 95
3, 39360, Note_on_c, 2, 50, 95
3, 39840, Note_off_c, 2, 62, 95
3, 39840, Note_off_c, 2, 57, 95
3, 39840, Note_off_c, 2, 50, 95
3, 39840, Note_on_c, 2, 62, 95
3, 39840, Note_on_c, 2, 57, 95
3, 39840, Note_on_c, 2, 50, 95
3, 40800, Note_off_c, 2, 62, 95
3, 40800, Note_off_c, 2, 57, 95
3, 40800, Note_off_c, 2, 50, 95
3, 40800, Note_on_c, 2, 62, 95
3, 40800, Note_on_c, 2, 57, 95
3, 40800, Note_on_c, 2, 50, 95
3, 41280, Note_off_c, 2, 62, 95
3, 41280, Note_off_c, 2, 57, 95
3, 41280, Note_off_c, 2, 50, 95
3, 41280, Note_on_c, 2, 62, 95
3, 41280, Note_on_c, 2, 57, 95
3, 41280, Note_on_c, 2, 50, 95
3, 41760, Note_off_c, 2, 62, 95
3, 41760, Note_off_c, 2, 57, 95
3, 41760, Note_off_c, 2, 50, 95
3, 41760, Note_on_c, 2, 62, 95
3, 41760, Note_on_c, 2, 57, 95
3, 41760, Note_on_c, 2, 50, 95
3, 42240, Note_off_c, 2, 62, 95
3, 42240, Note_off_c, 2, 57, 95
3, 42240, Note_off_c, 2, 50, 95
3, 42240, Note_on_c, 2, 52, 95
3, 42240, Note_on_c, 2, 47, 95
3, 42240, Note_on_c, 2, 40, 95
3, 43200, Note_off_c, 2, 52, 95
3, 43200, Note_off_c, 2, 47, 95
3, 43200, Note_off_c, 2, 40, 95
3, 43200, Note_on_c, 2, 52, 95
3, 43200, Note_on_c, 2, 47, 95
3, 43200, Note_on_c, 2, 40, 95
3, 43680, Note_off_c, 2, 52, 95
3, 43680, Note_off_c, 2, 47, 95
3, 43680, Note_off_c, 2, 40, 95
3, 43680, Note_on_c, 2, 52, 95
3, 43680, Note_on_c, 2, 47, 95
3, 43680, Note_on_c, 2, 40, 95
3, 44640, Note_off_c, 2, 52, 95
3, 44640, Note_off_c, 2, 47, 95
3, 44640, Note_off_c, 2, 40, 95
3, 44640, Note_on_c, 2, 52, 95
3, 44640, Note_on_c, 2, 47, 95
3, 44640, Note_on_c, 2, 40, 95
3, 45120, Note_off_c, 2, 52, 95
3, 45120, Note_off_c, 2, 47, 95
3, 45120, Note_off_c, 2, 40, 95
3, 45120, Note_on_c, 2, 52, 95
3, 45120, Note_on_c, 2, 47, 95
3, 45120, Note_on_c, 2, 40, 95
3, 45600, Note_off_c, 2, 52, 95
3, 45600, Note_off_c, 2, 47, 95
3, 45600, Note_off_c, 2, 40, 95
3, 45600, Note_on_c, 2, 52, 95
3, 45600, Note_on_c, 2, 47, 95
3, 45600, Note_on_c, 2, 40, 95
3, 46080, Note_off_c, 2, 52, 95
3, 46080, Note_off_c, 2, 47, 95
3, 46080, Note_off_c, 2, 40, 95
3, 46080, Note_on_c, 2, 54, 95
3, 46080, Note_on_c, 2, 49, 95
3, 46080, Note_on_c, 2, 42, 95
3, 47040, Note_off_c, 2, 54, 95
3, 47040, Note_off_c, 2, 49, 95
3, 47040, Note_off_c, 2, 42, 95
3, 47040, Note_on_c, 2, 54, 95
3, 47040, Note_on_c, 2, 49, 95
3, 47040, Note_on_c, 2, 42, 95
3, 47520, Note_off_c, 2, 54, 95
3, 47520, Note_off_c, 2, 49, 95
3, 47520, Note_off_c, 2, 42, 95
3, 47520, Note_on_c, 2, 54, 95
3, 47520, Note_on_c, 2, 49, 95
3, 47520, Note_on_c, 2, 42, 95
3, 48480, Note_off_c, 2, 54, 95
3, 48480, Note_off_c, 2, 49, 95
3, 48480, Note_off_c, 2, 42, 95
3, 48480, Note_on_c, 2, 54, 95
3, 48480, Note_on_c, 2, 49, 95
3, 48480, Note_on_c, 2, 42, 95
3, 48960, Note_off_c, 2, 54, 95
3, 48960, Note_off_c, 2, 49, 95
3, 48960, Note_off_c, 2, 42, 95
3, 48960, Note_on_c, 2, 54, 95
3, 48960, Note_on_c, 2, 49, 95
3, 48960, Note_on_c, 2, 42, 95
3, 49440, Note_off_c, 2, 54, 95
3, 49440, Note_off_c, 2, 49, 95
3, 49440, Note_off_c, 2, 42, 95
3, 49440, Note_on_c, 2, 54, 95
3, 49440, Note_on_c, 2, 49, 95
3, 49440, Note_on_c, 2, 42, 95
3, 49920, Note_off_c, 2, 54, 95
3, 49920, Note_off_c, 2, 49, 95
3, 49920, Note_off_c, 2, 42, 95
3, 49920, Note_on_c, 2, 57, 95
3, 49920, Note_on_c, 2, 52, 95
3, 49920, Note_on_c, 2, 45, 95
3, 50880, Note_off_c, 2, 57, 95
3, 50880, Note_off_c, 2, 52, 95
3, 50880, Note_off_c, 2, 45, 95
3, 50880, Note_on_c, 2, 57, 95
3, 50880, Note_on_c, 2, 52, 95
3, 50880, Note_on_c, 2, 45, 95
3, 51360, Note_off_c, 2, 57, 95
3, 51360, Note_off_c, 2, 52, 95
3, 51360, Note_off_c, 2, 45, 95
3, 51360, Note_on_c, 2, 57, 95
3, 51360, Note_on_c, 2, 52, 95
3, 51360, Note_on_c, 2, 45, 95
3, 51840, Note_off_c, 2, 45, 95
3, 52320, Note_off_c, 2, 57, 95
3, 52320, Note_off_c, 2, 52, 95
3, 52320, Note_on_c, 2, 57, 95
3, 52320, Note_on_c, 2, 52, 95
3, 52320, Note_on_c, 2, 45, 95
3, 52800, Note_off_c, 2, 57, 95
3, 52800, Note_off_c, 2, 52, 95
3, 52800, Note_off_c, 2, 45, 95
3, 52800, Note_on_c, 2, 57, 95
3, 52800, Note_on_c, 2, 52, 95
3, 52800, Note_on_c, 2, 45, 95
3, 53280, Note_off_c, 2, 57, 95
3, 53280, Note_off_c, 2, 52, 95
3, 53280, Note_off_c, 2, 45, 95
3, 53280, Note_on_c, 2, 57, 95
3, 53280, Note_on_c, 2, 52, 95
3, 53280, Note_on_c, 2, 45, 95
3, 53760, Note_off_c, 2, 57, 95
3, 53760, Note_off_c, 2, 52, 95
3, 53760, Note_off_c, 2, 45, 95
3, 53760, Note_on_c, 2, 62, 95
3, 53760, Note_on_c, 2, 57, 95
3, 53760, Note_on_c, 2, 50, 95
3, 54720, Note_off_c, 2, 62, 95
3, 54720, Note_off_c, 2, 57, 95
3, 54720, Note_off_c, 2, 50, 95
3, 54720, Note_on_c, 2, 62, 95
3, 54720, Note_on_c, 2, 57, 95
3, 54720, Note_on_c, 2, 50, 95
3, 55200, Note_off_c, 2, 62, 95
3, 55200, Note_off_c, 2, 57, 95
3, 55200, Note_off_c, 2, 50, 95
3, 55200, Note_on_c, 2, 62, 95
3, 55200, Note_on_c, 2, 57, 95
3, 55200, Note_on_c, 2, 50, 95
3, 56160, Note_off_c, 2, 62, 95
3, 56160, Note_off_c, 2, 57, 95
3, 56160, Note_off_c, 2, 50, 95
3, 56160, Note_on_c, 2, 62, 95
3, 56160, Note_on_c, 2, 57, 95
3, 56160, Note_on_c, 2, 50, 95
3, 56640, Note_off_c, 2, 62, 95
3, 56640, Note_off_c, 2, 57, 95
3, 56640, Note_off_c, 2, 50, 95
3, 56640, Note_on_c, 2, 62, 95
3, 56640, Note_on_c, 2, 57, 95
3, 56640, Note_on_c, 2, 50, 95
3, 57120, Note_off_c, 2, 62, 95
3, 57120, Note_off_c, 2, 57, 95
3, 57120, Note_off_c, 2, 50, 95
3, 57120, Note_on_c, 2, 45, 95
3, 57120, Note_on_c, 2, 40, 95
3, 57360, Note_off_c, 2, 45, 95
3, 57360, Note_off_c, 2, 40, 95
3, 57360, Note_on_c, 2, 45, 95
3, 57360, Note_on_c, 2, 40, 95
3, 57600, Note_off_c, 2, 45, 95
3, 57600, Note_off_c, 2, 40, 95
3, 57600, Note_on_c, 2, 64, 95
3, 57600, Note_on_c, 2, 59, 95
3, 57600, Note_on_c, 2, 52, 95
3, 58560, Note_off_c, 2, 64, 95
3, 58560, Note_off_c, 2, 59, 95
3, 58560, Note_off_c, 2, 52, 95
3, 58560, Note_on_c, 2, 64, 95
3, 58560, Note_on_c, 2, 59, 95
3, 58560, Note_on_c, 2, 52, 95
3, 59040, Note_off_c, 2, 64, 95
3, 59040, Note_off_c, 2, 59, 95
3, 59040, Note_off_c, 2, 52, 95
3, 59040, Note_on_c, 2, 64, 95
3, 59040, Note_on_c, 2, 59, 95
3, 59040, Note_on_c, 2, 52, 95
3, 60000, Note_off_c, 2, 64, 95
3, 60000, Note_off_c, 2, 59, 95
3, 60000, Note_off_c, 2, 52, 95
3, 60000, Note_on_c, 2, 64, 95
3, 60000, Note_on_c, 2, 59, 95
3, 60000, Note_on_c, 2, 52, 95
3, 60480, Note_off_c, 2, 64, 95
3, 60480, Note_off_c, 2, 59, 95
3, 60480, Note_off_c, 2, 52, 95
3, 60480, Note_on_c, 2, 45, 95
3, 60480, Note_on_c, 2, 40, 95
3, 60960, Note_off_c, 2, 45, 95
3, 60960, Note_off_c, 2, 40, 95
3, 60960, Note_on_c, 2, 45, 95
3, 60960, Note_on_c, 2, 40, 95
3, 61440, Note_off_c, 2, 45, 95
3, 61440, Note_off_c, 2, 40, 95
3, 61440, Note_on_c, 2, 54, 95
3, 61440, Note_on_c, 2, 49, 95
3, 61440, Note_on_c, 2, 42, 95
3, 62400, Note_off_c, 2, 54, 95
3, 62400, Note_off_c, 2, 49, 95
3, 62400, Note_off_c, 2, 42, 95
3, 62400, Note_on_c, 2, 54, 95
3, 62400, Note_on_c, 2, 49, 95
3, 62400, Note_on_c, 2, 42, 95
3, 62880, Note_off_c, 2, 54, 95
3, 62880, Note_off_c, 2, 49, 95
3, 62880, Note_off_c, 2, 42, 95
3, 62880, Note_on_c, 2, 54, 95
3, 62880, Note_on_c, 2, 49, 95
3, 62880, Note_on_c, 2, 42, 95
3, 63840, Note_off_c, 2, 54, 95
3, 63840, Note_off_c, 2, 49, 95
3, 63840, Note_off_c, 2, 42, 95
3, 63840, Note_on_c, 2, 54, 95
3, 63840, Note_on_c, 2, 49, 95
3, 63840, Note_on_c, 2, 42, 95
3, 64320, Note_off_c, 2, 54, 95
3, 64320, Note_off_c, 2, 49, 95
3, 64320, Note_off_c, 2, 42, 95
3, 64320, Note_on_c, 2, 54, 95
3, 64320, Note_on_c, 2, 49, 95
3, 64320, Note_on_c, 2, 42, 95
3, 64800, Note_off_c, 2, 54, 95
3, 64800, Note_off_c, 2, 49, 95
3, 64800, Note_off_c, 2, 42, 95
3, 64800, Note_on_c, 2, 54, 95
3, 64800, Note_on_c, 2, 49, 95
3, 64800, Note_on_c, 2, 42, 95
3, 65280, Note_off_c, 2, 54, 95
3, 65280, Note_off_c, 2, 49, 95
3, 65280, Note_off_c, 2, 42, 95
3, 65280, Note_on_c, 2, 57, 95
3, 65280, Note_on_c, 2, 52, 95
3, 65280, Note_on_c, 2, 45, 95
3, 66240, Note_off_c, 2, 57, 95
3, 66240, Note_off_c, 2, 52, 95
3, 66240, Note_off_c, 2, 45, 95
3, 66240, Note_on_c, 2, 57, 95
3, 66240, Note_on_c, 2, 52, 95
3, 66240, Note_on_c, 2, 45, 95
3, 66720, Note_off_c, 2, 57, 95
3, 66720, Note_off_c, 2, 52, 95
3, 66720, Note_off_c, 2, 45, 95
3, 66720, Note_on_c, 2, 57, 95
3, 66720, Note_on_c, 2, 52, 95
3, 66720, Note_on_c, 2, 45, 95
3, 67200, Note_off_c, 2, 45, 95
3, 67680, Note_off_c, 2, 57, 95
3, 67680, Note_off_c, 2, 52, 95
3, 67680, Note_on_c, 2, 57, 95
3, 67680, Note_on_c, 2, 52, 95
3, 67680, Note_on_c, 2, 45, 95
3, 68160, Note_off_c, 2, 57, 95
3, 68160, Note_off_c, 2, 52, 95
3, 68160, Note_off_c, 2, 45, 95
3, 68160, Note_on_c, 2, 57, 95
3, 68160, Note_on_c, 2, 52, 95
3, 68160, Note_on_c, 2, 45, 95
3, 68640, Note_off_c, 2, 57, 95
3, 68640, Note_off_c, 2, 52, 95
3, 68640, Note_off_c, 2, 45, 95
3, 68640, Note_on_c, 2, 45, 95
3, 68640, Note_on_c, 2, 40, 95
3, 69120, Note_off_c, 2, 45, 95
3, 69120, Note_off_c, 2, 40, 95
3, 69120, Note_on_c, 2, 54, 95
3, 69120, Note_on_c, 2, 49, 95
3, 69120, Note_on_c, 2, 42, 95
3, 69600, Note_off_c, 2, 54, 95
3, 69600, Note_off_c, 2, 49, 95
3, 69600, Note_off_c, 2, 42, 95
3, 76800, Note_on_c, 2, 59, 95
3, 76800, Note_on_c, 2, 54, 95
3, 76800, Note_on_c, 2, 47, 95
3, 77760, Note_off_c, 2, 59, 95
3, 77760, Note_off_c, 2, 54, 95
3, 77760, Note_off_c, 2, 47, 95
3, 77760, Note_on_c, 2, 59, 95
3, 77760, Note_on_c, 2, 54, 95
3, 77760, Note_on_c, 2, 47, 95
3, 78240, Note_off_c, 2, 59, 95
3, 78240, Note_off_c, 2, 54, 95
3, 78240, Note_off_c, 2, 47, 95
3, 78240, Note_on_c, 2, 59, 95
3, 78240, Note_on_c, 2, 54, 95
3, 78240, Note_on_c, 2, 47, 95
3, 79200, Note_off_c, 2, 59, 95
3, 79200, Note_off_c, 2, 54, 95
3, 79200, Note_off_c, 2, 47, 95
3, 79200, Note_on_c, 2, 59, 95
3, 79200, Note_on_c, 2, 54, 95
3, 79200, Note_on_c, 2, 47, 95
3, 79680, Note_off_c, 2, 59, 95
3, 79680, Note_off_c, 2, 54, 95
3, 79680, Note_off_c, 2, 47, 95
3, 79680, Note_on_c, 2, 59, 95
3, 79680, Note_on_c, 2, 54, 95
3, 79680, Note_on_c, 2, 47, 95
3, 80640, Note_off_c, 2, 59, 95
3, 80640, Note_off_c, 2, 54, 95
3, 80640, Note_off_c, 2, 47, 95
3, 80640, Note_on_c, 2, 57, 95
3, 80640, Note_on_c, 2, 52, 95
3, 80640, Note_on_c, 2, 45, 95
3, 81600, Note_off_c, 2, 57, 95
3, 81600, Note_off_c, 2, 52, 95
3, 81600, Note_off_c, 2, 45, 95
3, 81600, Note_on_c, 2, 57, 95
3, 81600, Note_on_c, 2, 52, 95
3, 81600, Note_on_c, 2, 45, 95
3, 82080, Note_off_c, 2, 57, 95
3, 82080, Note_off_c, 2, 52, 95
3, 82080, Note_off_c, 2, 45, 95
3, 82080, Note_on_c, 2, 57, 95
3, 82080, Note_on_c, 2, 52, 95
3, 82080, Note_on_c, 2, 45, 95
3, 82560, Note_off_c, 2, 45, 95
3, 83040, Note_off_c, 2, 57, 95
3, 83040, Note_off_c, 2, 52, 95
3, 83040, Note_on_c, 2, 57, 95
3, 83040, Note_on_c, 2, 52, 95
3, 83040, Note_on_c, 2, 45, 95
3, 83520, Note_off_c, 2, 57, 95
3, 83520, Note_off_c, 2, 52, 95
3, 83520, Note_off_c, 2, 45, 95
3, 83520, Note_on_c, 2, 57, 95
3, 83520, Note_on_c, 2, 52, 95
3, 83520, Note_on_c, 2, 45, 95
3, 84480, Note_off_c, 2, 57, 95
3, 84480, Note_off_c, 2, 52, 95
3, 84480, Note_off_c, 2, 45, 95
3, 84480, Note_on_c, 2, 62, 95
3, 84480, Note_on_c, 2, 57, 95
3, 84480, Note_on_c, 2, 50, 95
3, 85440, Note_off_c, 2, 62, 95
3, 85440, Note_off_c, 2, 57, 95
3, 85440, Note_off_c, 2, 50, 95
3, 85440, Note_on_c, 2, 62, 95
3, 85440, Note_on_c, 2, 57, 95
3, 85440, Note_on_c, 2, 50, 95
3, 85920, Note_off_c, 2, 62, 95
3, 85920, Note_off_c, 2, 57, 95
3, 85920, Note_off_c, 2, 50, 95
3, 85920, Note_on_c, 2, 62, 95
3, 85920, Note_on_c, 2, 57, 95
3, 85920, Note_on_c, 2, 50, 95
3, 86880, Note_off_c, 2, 62, 95
3, 86880, Note_off_c, 2, 57, 95
3, 86880, Note_off_c, 2, 50, 95
3, 86880, Note_on_c, 2, 62, 95
3, 86880, Note_on_c, 2, 57, 95
3, 86880, Note_on_c, 2, 50, 95
3, 87360, Note_off_c, 2, 62, 95
3, 87360, Note_off_c, 2, 57, 95
3, 87360, Note_off_c, 2, 50, 95
3, 87360, Note_on_c, 2, 62, 95
3, 87360, Note_on_c, 2, 57, 95
3, 87360, Note_on_c, 2, 50, 95
3, 87840, Note_off_c, 2, 62, 95
3, 87840, Note_off_c, 2, 57, 95
3, 87840, Note_off_c, 2, 50, 95
3, 87840, Note_on_c, 2, 62, 95
3, 87840, Note_on_c, 2, 57, 95
3, 87840, Note_on_c, 2, 50, 95
3, 88080, Note_off_c, 2, 62, 95
3, 88080, Note_off_c, 2, 57, 95
3, 88080, Note_off_c, 2, 50, 95
3, 88080, Note_on_c, 2, 62, 95
3, 88080, Note_on_c, 2, 57, 95
3, 88080, Note_on_c, 2, 50, 95
3, 88320, Note_off_c, 2, 62, 95
3, 88320, Note_off_c, 2, 57, 95
3, 88320, Note_off_c, 2, 50, 95
3, 88320, Note_on_c, 2, 64, 95
3, 88320, Note_on_c, 2, 59, 95
3, 88320, Note_on_c, 2, 52, 95
3, 89280, Note_off_c, 2, 64, 95
3, 89280, Note_off_c, 2, 59, 95
3, 89280, Note_off_c, 2, 52, 95
3, 89280, Note_on_c, 2, 64, 95
3, 89280, Note_on_c, 2, 59, 95
3, 89280, Note_on_c, 2, 52, 95
3, 89760, Note_off_c, 2, 64, 95
3, 89760, Note_off_c, 2, 59, 95
3, 89760, Note_off_c, 2, 52, 95
3, 89760, Note_on_c, 2, 64, 95
3, 89760, Note_on_c, 2, 59, 95
3, 89760, Note_on_c, 2, 52, 95
3, 90720, Note_off_c, 2, 64, 95
3, 90720, Note_off_c, 2, 59, 95
3, 90720, Note_off_c, 2, 52, 95
3, 90720, Note_on_c, 2, 64, 95
3, 90720, Note_on_c, 2, 59, 95
3, 90720, Note_on_c, 2, 52, 95
3, 91200, Note_off_c, 2, 64, 95
3, 91200, Note_off_c, 2, 59, 95
3, 91200, Note_off_c, 2, 52, 95
3, 91200, Note_on_c, 2, 45, 95
3, 91200, Note_on_c, 2, 40, 95
3, 91680, Note_off_c, 2, 45, 95
3, 91680, Note_off_c, 2, 40, 95
3, 91680, Note_on_c, 2, 45, 95
3, 91680, Note_on_c, 2, 40, 95
3, 92160, Note_off_c, 2, 45, 95
3, 92160, Note_off_c, 2, 40, 95
3, 92160, Note_on_c, 2, 59, 95
3, 92160, Note_on_c, 2, 54, 95
3, 92160, Note_on_c, 2, 47, 95
3, 93120, Note_off_c, 2, 59, 95
3, 93120, Note_off_c, 2, 54, 95
3, 93120, Note_off_c, 2, 47, 95
3, 93120, Note_on_c, 2, 59, 95
3, 93120, Note_on_c, 2, 54, 95
3, 93120, Note_on_c, 2, 47, 95
3, 93600, Note_off_c, 2, 59, 95
3, 93600, Note_off_c, 2, 54, 95
3, 93600, Note_off_c, 2, 47, 95
3, 93600, Note_on_c, 2, 59, 95
3, 93600, Note_on_c, 2, 54, 95
3, 93600, Note_on_c, 2, 47, 95
3, 94560, Note_off_c, 2, 59, 95
3, 94560, Note_off_c, 2, 54, 95
3, 94560, Note_off_c, 2, 47, 95
3, 94560, Note_on_c, 2, 59, 95
3, 94560, Note_on_c, 2, 54, 95
3, 94560, Note_on_c, 2, 47, 95
3, 95040, Note_off_c, 2, 59, 95
3, 95040, Note_off_c, 2, 54, 95
3, 95040, Note_off_c, 2, 47, 95
3, 95040, Note_on_c, 2, 59, 95
3, 95040, Note_on_c, 2, 54, 95
3, 95040, Note_on_c, 2, 47, 95
3, 95520, Note_off_c, 2, 59, 95
3, 95520, Note_off_c, 2, 54, 95
3, 95520, Note_off_c, 2, 47, 95
3, 95520, Note_on_c, 2, 50, 95
3, 95520, Note_on_c, 2, 45, 95
3, 96000, Note_off_c, 2, 50, 95
3, 96000, Note_off_c, 2, 45, 95
3, 96000, Note_on_c, 2, 57, 95
3, 96000, Note_on_c, 2, 52, 95
3, 96000, Note_on_c, 2, 45, 95
3, 96960, Note_off_c, 2, 57, 95
3, 96960, Note_off_c, 2, 52, 95
3, 96960, Note_off_c, 2, 45, 95
3, 96960, Note_on_c, 2, 57, 95
3, 96960, Note_on_c, 2, 52, 95
3, 96960, Note_on_c, 2, 45, 95
3, 97440, Note_off_c, 2, 57, 95
3, 97440, Note_off_c, 2, 52, 95
3, 97440, Note_off_c, 2, 45, 95
3, 97440, Note_on_c, 2, 57, 95
3, 97440, Note_on_c, 2, 52, 95
3, 97440, Note_on_c, 2, 45, 95
3, 97920, Note_off_c, 2, 45, 95
3, 98400, Note_off_c, 2, 57, 95
3, 98400, Note_off_c, 2, 52, 95
3, 98400, Note_on_c, 2, 57, 95
3, 98400, Note_on_c, 2, 52, 95
3, 98400, Note_on_c, 2, 45, 95
3, 98880, Note_off_c, 2, 57, 95
3, 98880, Note_off_c, 2, 52, 95
3, 98880, Note_off_c, 2, 45, 95
3, 98880, Note_on_c, 2, 57, 95
3, 98880, Note_on_c, 2, 52, 95
3, 98880, Note_on_c, 2, 45, 95
3, 99360, Note_off_c, 2, 57, 95
3, 99360, Note_off_c, 2, 52, 95
3, 99360, Note_off_c, 2, 45, 95
3, 99360, Note_on_c, 2, 57, 95
3, 99360, Note_on_c, 2, 52, 95
3, 99360, Note_on_c, 2, 45, 95
3, 99600, Note_off_c, 2, 57, 95
3, 99600, Note_off_c, 2, 52, 95
3, 99600, Note_off_c, 2, 45, 95
3, 99600, Note_on_c, 2, 57, 95
3, 99600, Note_on_c, 2, 52, 95
3, 99600, Note_on_c, 2, 45, 95
3, 99840, Note_off_c, 2, 57, 95
3, 99840, Note_off_c, 2, 52, 95
3, 99840, Note_off_c, 2, 45, 95
3, 99840, Note_on_c, 2, 62, 95
3, 99840, Note_on_c, 2, 57, 95
3, 99840, Note_on_c, 2, 50, 95
3, 100800, Note_off_c, 2, 62, 95
3, 100800, Note_off_c, 2, 57, 95
3, 100800, Note_off_c, 2, 50, 95
3, 100800, Note_on_c, 2, 62, 95
3, 100800, Note_on_c, 2, 57, 95
3, 100800, Note_on_c, 2, 50, 95
3, 101280, Note_off_c, 2, 62, 95
3, 101280, Note_off_c, 2, 57, 95
3, 101280, Note_off_c, 2, 50, 95
3, 101280, Note_on_c, 2, 62, 95
3, 101280, Note_on_c, 2, 57, 95
3, 101280, Note_on_c, 2, 50, 95
3, 102240, Note_off_c, 2, 62, 95
3, 102240, Note_off_c, 2, 57, 95
3, 102240, Note_off_c, 2, 50, 95
3, 102240, Note_on_c, 2, 62, 95
3, 102240, Note_on_c, 2, 57, 95
3, 102240, Note_on_c, 2, 50, 95
3, 102720, Note_off_c, 2, 62, 95
3, 102720, Note_off_c, 2, 57, 95
3, 102720, Note_off_c, 2, 50, 95
3, 102720, Note_on_c, 2, 62, 95
3, 102720, Note_on_c, 2, 57, 95
3, 102720, Note_on_c, 2, 50, 95
3, 103200, Note_off_c, 2, 62, 95
3, 103200, Note_off_c, 2, 57, 95
3, 103200, Note_off_c, 2, 50, 95
3, 103200, Note_on_c, 2, 62, 95
3, 103200, Note_on_c, 2, 57, 95
3, 103200, Note_on_c, 2, 50, 95
3, 103680, Note_off_c, 2, 62, 95
3, 103680, Note_off_c, 2, 57, 95
3, 103680, Note_off_c, 2, 50, 95
3, 103680, Note_on_c, 2, 52, 95
3, 103680, Note_on_c, 2, 47, 95
3, 103680, Note_on_c, 2, 40, 95
3, 104640, Note_off_c, 2, 52, 95
3, 104640, Note_off_c, 2, 47, 95
3, 104640, Note_off_c, 2, 40, 95
3, 104640, Note_on_c, 2, 52, 95
3, 104640, Note_on_c, 2, 47, 95
3, 104640, Note_on_c, 2, 40, 95
3, 105120, Note_off_c, 2, 52, 95
3, 105120, Note_off_c, 2, 47, 95
3, 105120, Note_off_c, 2, 40, 95
3, 105120, Note_on_c, 2, 52, 95
3, 105120, Note_on_c, 2, 47, 95
3, 105120, Note_on_c, 2, 40, 95
3, 106080, Note_off_c, 2, 52, 95
3, 106080, Note_off_c, 2, 47, 95
3, 106080, Note_off_c, 2, 40, 95
3, 106080, Note_on_c, 2, 52, 95
3, 106080, Note_on_c, 2, 47, 95
3, 106080, Note_on_c, 2, 40, 95
3, 106560, Note_off_c, 2, 52, 95
3, 106560, Note_off_c, 2, 47, 95
3, 106560, Note_off_c, 2, 40, 95
3, 106560, Note_on_c, 2, 52, 95
3, 106560, Note_on_c, 2, 47, 95
3, 106560, Note_on_c, 2, 40, 95
3, 107040, Note_off_c, 2, 52, 95
3, 107040, Note_off_c, 2, 47, 95
3, 107040, Note_off_c, 2, 40, 95
3, 107040, Note_on_c, 2, 52, 95
3, 107040, Note_on_c, 2, 47, 95
3, 107040, Note_on_c, 2, 40, 95
3, 107520, Note_off_c, 2, 52, 95
3, 107520, Note_off_c, 2, 47, 95
3, 107520, Note_off_c, 2, 40, 95
3, 107520, Note_on_c, 2, 54, 95
3, 107520, Note_on_c, 2, 49, 95
3, 107520, Note_on_c, 2, 42, 95
3, 108480, Note_off_c, 2, 54, 95
3, 108480, Note_off_c, 2, 49, 95
3, 108480, Note_off_c, 2, 42, 95
3, 108480, Note_on_c, 2, 54, 95
3, 108480, Note_on_c, 2, 49, 95
3, 108480, Note_on_c, 2, 42, 95
3, 108960, Note_off_c, 2, 54, 95
3, 108960, Note_off_c, 2, 49, 95
3, 108960, Note_off_c, 2, 42, 95
3, 108960, Note_on_c, 2, 54, 95
3, 108960, Note_on_c, 2, 49, 95
3, 108960, Note_on_c, 2, 42, 95
3, 109920, Note_off_c, 2, 54, 95
3, 109920, Note_off_c, 2, 49, 95
3, 109920, Note_off_c, 2, 42, 95
3, 109920, Note_on_c, 2, 54, 95
3, 109920, Note_on_c, 2, 49, 95
3, 109920, Note_on_c, 2, 42, 95
3, 110400, Note_off_c, 2, 54, 95
3, 110400, Note_off_c, 2, 49, 95
3, 110400, Note_off_c, 2, 42, 95
3, 110400, Note_on_c, 2, 54, 95
3, 110400, Note_on_c, 2, 49, 95
3, 110400, Note_on_c, 2, 42, 95
3, 110880, Note_off_c, 2, 54, 95
3, 110880, Note_off_c, 2, 49, 95
3, 110880, Note_off_c, 2, 42, 95
3, 110880, Note_on_c, 2, 54, 95
3, 110880, Note_on_c, 2, 49, 95
3, 110880, Note_on_c, 2, 42, 95
3, 111360, Note_off_c, 2, 54, 95
3, 111360, Note_off_c, 2, 49, 95
3, 111360, Note_off_c, 2, 42, 95
3, 111360, Note_on_c, 2, 57, 95
3, 111360, Note_on_c, 2, 52, 95
3, 111360, Note_on_c, 2, 45, 95
3, 112320, Note_off_c, 2, 57, 95
3, 112320, Note_off_c, 2, 52, 95
3, 112320, Note_off_c, 2, 45, 95
3, 112320, Note_on_c, 2, 57, 95
3, 112320, Note_on_c, 2, 52, 95
3, 112320, Note_on_c, 2, 45, 95
3, 112800, Note_off_c, 2, 57, 95
3, 112800, Note_off_c, 2, 52, 95
3, 112800, Note_off_c, 2, 45, 95
3, 112800, Note_on_c, 2, 57, 95
3, 112800, Note_on_c, 2, 52, 95
3, 112800, Note_on_c, 2, 45, 95
3, 113280, Note_off_c, 2, 45, 95
3, 113760, Note_off_c, 2, 57, 95
3, 113760, Note_off_c, 2, 52, 95
3, 113760, Note_on_c, 2, 57, 95
3, 113760, Note_on_c, 2, 52, 95
3, 113760, Note_on_c, 2, 45, 95
3, 114240, Note_off_c, 2, 57, 95
3, 114240, Note_off_c, 2, 52, 95
3, 114240, Note_off_c, 2, 45, 95
3, 114240, Note_on_c, 2, 57, 95
3, 114240, Note_on_c, 2, 52, 95
3, 114240, Note_on_c, 2, 45, 95
3, 114720, Note_off_c, 2, 57, 95
3, 114720, Note_off_c, 2, 52, 95
3, 114720, Note_off_c, 2, 45, 95
3, 114720, Note_on_c, 2, 57, 95
3, 114720, Note_on_c, 2, 52, 95
3, 114720, Note_on_c, 2, 45, 95
3, 115200, Note_off_c, 2, 57, 95
3, 115200, Note_off_c, 2, 52, 95
3, 115200, Note_off_c, 2, 45, 95
3, 115200, Note_on_c, 2, 62, 95
3, 115200, Note_on_c, 2, 57, 95
3, 115200, Note_on_c, 2, 50, 95
3, 116160, Note_off_c, 2, 62, 95
3, 116160, Note_off_c, 2, 57, 95
3, 116160, Note_off_c, 2, 50, 95
3, 116160, Note_on_c, 2, 62, 95
3, 116160, Note_on_c, 2, 57, 95
3, 116160, Note_on_c, 2, 50, 95
3, 116640, Note_off_c, 2, 62, 95
3, 116640, Note_off_c, 2, 57, 95
3, 116640, Note_off_c, 2, 50, 95
3, 116640, Note_on_c, 2, 62, 95
3, 116640, Note_on_c, 2, 57, 95
3, 116640, Note_on_c, 2, 50, 95
3, 117600, Note_off_c, 2, 62, 95
3, 117600, Note_off_c, 2, 57, 95
3, 117600, Note_off_c, 2, 50, 95
3, 117600, Note_on_c, 2, 62, 95
3, 117600, Note_on_c, 2, 57, 95
3, 117600, Note_on_c, 2, 50, 95
3, 118080, Note_off_c, 2, 62, 95
3, 118080, Note_off_c, 2, 57, 95
3, 118080, Note_off_c, 2, 50, 95
3, 118080, Note_on_c, 2, 62, 95
3, 118080, Note_on_c, 2, 57, 95
3, 118080, Note_on_c, 2, 50, 95
3, 118560, Note_off_c, 2, 62, 95
3, 118560, Note_off_c, 2, 57, 95
3, 118560, Note_off_c, 2, 50, 95
3, 118560, Note_on_c, 2, 45, 95
3, 118560, Note_on_c, 2, 40, 95
3, 118800, Note_off_c, 2, 45, 95
3, 118800, Note_off_c, 2, 40, 95
3, 118800, Note_on_c, 2, 45, 95
3, 118800, Note_on_c, 2, 40, 95
3, 119040, Note_off_c, 2, 45, 95
3, 119040, Note_off_c, 2, 40, 95
3, 119040, Note_on_c, 2, 64, 95
3, 119040, Note_on_c, 2, 59, 95
3, 119040, Note_on_c, 2, 52, 95
3, 120000, Note_off_c, 2, 64, 95
3, 120000, Note_off_c, 2, 59, 95
3, 120000, Note_off_c, 2, 52, 95
3, 120000, Note_on_c, 2, 64, 95
3, 120000, Note_on_c, 2, 59, 95
3, 120000, Note_on_c, 2, 52, 95
3, 120480, Note_off_c, 2, 64, 95
3, 120480, Note_off_c, 2, 59, 95
3, 120480, Note_off_c, 2, 52, 95
3, 120480, Note_on_c, 2, 64, 95
3, 120480, Note_on_c, 2, 59, 95
3, 120480, Note_on_c, 2, 52, 95
3, 121440, Note_off_c, 2, 64, 95
3, 121440, Note_off_c, 2, 59, 95
3, 121440, Note_off_c, 2, 52, 95
3, 121440, Note_on_c, 2, 64, 95
3, 121440, Note_on_c, 2, 59, 95
3, 121440, Note_on_c, 2, 52, 95
3, 121920, Note_off_c, 2, 64, 95
3, 121920, Note_off_c, 2, 59, 95
3, 121920, Note_off_c, 2, 52, 95
3, 121920, Note_on_c, 2, 45, 95
3, 121920, Note_on_c, 2, 40, 95
3, 122400, Note_off_c, 2, 45, 95
3, 122400, Note_off_c, 2, 40, 95
3, 122400, Note_on_c, 2, 45, 95
3, 122400, Note_on_c, 2, 40, 95
3, 122880, Note_off_c, 2, 45, 95
3, 122880, Note_off_c, 2, 40, 95
3, 122880, Note_on_c, 2, 54, 95
3, 122880, Note_on_c, 2, 49, 95
3, 122880, Note_on_c, 2, 42, 95
3, 123840, Note_off_c, 2, 54, 95
3, 123840, Note_off_c, 2, 49, 95
3, 123840, Note_off_c, 2, 42, 95
3, 123840, Note_on_c, 2, 54, 95
3, 123840, Note_on_c, 2, 49, 95
3, 123840, Note_on_c, 2, 42, 95
3, 124320, Note_off_c, 2, 54, 95
3, 124320, Note_off_c, 2, 49, 95
3, 124320, Note_off_c, 2, 42, 95
3, 124320, Note_on_c, 2, 54, 95
3, 124320, Note_on_c, 2, 49, 95
3, 124320, Note_on_c, 2, 42, 95
3, 125280, Note_off_c, 2, 54, 95
3, 125280, Note_off_c, 2, 49, 95
3, 125280, Note_off_c, 2, 42, 95
3, 125280, Note_on_c, 2, 54, 95
3, 125280, Note_on_c, 2, 49, 95
3, 125280, Note_on_c, 2, 42, 95
3, 125760, Note_off_c, 2, 54, 95
3, 125760, Note_off_c, 2, 49, 95
3, 125760, Note_off_c, 2, 42, 95
3, 125760, Note_on_c, 2, 54, 95
3, 125760, Note_on_c, 2, 49, 95
3, 125760, Note_on_c, 2, 42, 95
3, 126240, Note_off_c, 2, 54, 95
3, 126240, Note_off_c, 2, 49, 95
3, 126240, Note_off_c, 2, 42, 95
3, 126240, Note_on_c, 2, 54, 95
3, 126240, Note_on_c, 2, 49, 95
3, 126240, Note_on_c, 2, 42, 95
3, 126720, Note_off_c, 2, 54, 95
3, 126720, Note_off_c, 2, 49, 95
3, 126720, Note_off_c, 2, 42, 95
3, 126720, Note_on_c, 2, 57, 95
3, 126720, Note_on_c, 2, 52, 95
3, 126720, Note_on_c, 2, 45, 95
3, 127680, Note_off_c, 2, 57, 95
3, 127680, Note_off_c, 2, 52, 95
3, 127680, Note_off_c, 2, 45, 95
3, 127680, Note_on_c, 2, 57, 95
3, 127680, Note_on_c, 2, 52, 95
3, 127680, Note_on_c, 2, 45, 95
3, 128160, Note_off_c, 2, 57, 95
3, 128160, Note_off_c, 2, 52, 95
3, 128160, Note_off_c, 2, 45, 95
3, 128160, Note_on_c, 2, 57, 95
3, 128160, Note_on_c, 2, 52, 95
3, 128160, Note_on_c, 2, 45, 95
3, 128640, Note_off_c, 2, 45, 95
3, 129120, Note_off_c, 2, 57, 95
3, 129120, Note_off_c, 2, 52, 95
3, 129120, Note_on_c, 2, 57, 95
3, 129120, Note_on_c, 2, 52, 95
3, 129120, Note_on_c, 2, 45, 95
3, 129600, Note_off_c, 2, 57, 95
3, 129600, Note_off_c, 2, 52, 95
3, 129600, Note_off_c, 2, 45, 95
3, 129600, Note_on_c, 2, 57, 95
3, 129600, Note_on_c, 2, 52, 95
3, 129600, Note_on_c, 2, 45, 95
3, 130080, Note_off_c, 2, 57, 95
3, 130080, Note_off_c, 2, 52, 95
3, 130080, Note_off_c, 2, 45, 95
3, 130080, Note_on_c, 2, 45, 95
3, 130080, Note_on_c, 2, 40, 95
3, 130560, Note_off_c, 2, 45, 95
3, 130560, Note_off_c, 2, 40, 95
3, 130560, Note_on_c, 2, 54, 95
3, 130560, Note_on_c, 2, 49, 95
3, 130560, Note_on_c, 2, 42, 95
3, 131040, Note_off_c, 2, 54, 95
3, 131040, Note_off_c, 2, 49, 95
3, 131040, Note_off_c, 2, 42, 95
3, 138240, Note_on_c, 2, 59, 95
3, 138240, Note_on_c, 2, 54, 95
3, 138240, Note_on_c, 2, 47, 95
3, 139200, Note_off_c, 2, 59, 95
3, 139200, Note_off_c, 2, 54, 95
3, 139200, Note_off_c, 2, 47, 95
3, 139200, Note_on_c, 2, 59, 95
3, 139200, Note_on_c, 2, 54, 95
3, 139200, Note_on_c, 2, 47, 95
3, 139680, Note_off_c, 2, 59, 95
3, 139680, Note_off_c, 2, 54, 95
3, 139680, Note_off_c, 2, 47, 95
3, 139680, Note_on_c, 2, 59, 95
3, 139680, Note_on_c, 2, 54, 95
3, 139680, Note_on_c, 2, 47, 95
3, 140640, Note_off_c, 2, 59, 95
3, 140640, Note_off_c, 2, 54, 95
3, 140640, Note_off_c, 2, 47, 95
3, 140640, Note_on_c, 2, 59, 95
3, 140640, Note_on_c, 2, 54, 95
3, 140640, Note_on_c, 2, 47, 95
3, 141120, Note_off_c, 2, 59, 95
3, 141120, Note_off_c, 2, 54, 95
3, 141120, Note_off_c, 2, 47, 95
3, 141120, Note_on_c, 2, 59, 95
3, 141120, Note_on_c, 2, 54, 95
3, 141120, Note_on_c, 2, 47, 95
3, 141600, Note_off_c, 2, 59, 95
3, 141600, Note_off_c, 2, 54, 95
3, 141600, Note_off_c, 2, 47, 95
3, 141600, Note_on_c, 2, 59, 95
3, 141600, Note_on_c, 2, 54, 95
3, 141600, Note_on_c, 2, 47, 95
3, 142080, Note_off_c, 2, 59, 95
3, 142080, Note_off_c, 2, 54, 95
3, 142080, Note_off_c, 2, 47, 95
3, 142080, Note_on_c, 2, 57, 95
3, 142080, Note_on_c, 2, 52, 95
3, 142080, Note_on_c, 2, 45, 95
3, 143040, Note_off_c, 2, 57, 95
3, 143040, Note_off_c, 2, 52, 95
3, 143040, Note_off_c, 2, 45, 95
3, 143040, Note_on_c, 2, 57, 95
3, 143040, Note_on_c, 2, 52, 95
3, 143040, Note_on_c, 2, 45, 95
3, 143520, Note_off_c, 2, 57, 95
3, 143520, Note_off_c, 2, 52, 95
3, 143520, Note_off_c, 2, 45, 95
3, 143520, Note_on_c, 2, 57, 95
3, 143520, Note_on_c, 2, 52, 95
3, 143520, Note_on_c, 2, 45, 95
3, 144000, Note_off_c, 2, 45, 95
3, 144480, Note_off_c, 2, 57, 95
3, 144480, Note_off_c, 2, 52, 95
3, 144480, Note_on_c, 2, 57, 95
3, 144480, Note_on_c, 2, 52, 95
3, 144480, Note_on_c, 2, 45, 95
3, 144960, Note_off_c, 2, 57, 95
3, 144960, Note_off_c, 2, 52, 95
3, 144960, Note_off_c, 2, 45, 95
3, 144960, Note_on_c, 2, 57, 95
3, 144960, Note_on_c, 2, 52, 95
3, 144960, Note_on_c, 2, 45, 95
3, 145440, Note_off_c, 2, 57, 95
3, 145440, Note_off_c, 2, 52, 95
3, 145440, Note_off_c, 2, 45, 95
3, 145440, Note_on_c, 2, 57, 95
3, 145440, Note_on_c, 2, 52, 95
3, 145440, Note_on_c, 2, 45, 95
3, 145920, Note_off_c, 2, 57, 95
3, 145920, Note_off_c, 2, 52, 95
3, 145920, Note_off_c, 2, 45, 95
3, 145920, Note_on_c, 2, 62, 95
3, 145920, Note_on_c, 2, 57, 95
3, 145920, Note_on_c, 2, 50, 95
3, 146880, Note_off_c, 2, 62, 95
3, 146880, Note_off_c, 2, 57, 95
3, 146880, Note_off_c, 2, 50, 95
3, 146880, Note_on_c, 2, 62, 95
3, 146880, Note_on_c, 2, 57, 95
3, 146880, Note_on_c, 2, 50, 95
3, 147360, Note_off_c, 2, 62, 95
3, 147360, Note_off_c, 2, 57, 95
3, 147360, Note_off_c, 2, 50, 95
3, 147360, Note_on_c, 2, 62, 95
3, 147360, Note_on_c, 2, 57, 95
3, 147360, Note_on_c, 2, 50, 95
3, 148320, Note_off_c, 2, 62, 95
3, 148320, Note_off_c, 2, 57, 95
3, 148320, Note_off_c, 2, 50, 95
3, 148320, Note_on_c, 2, 62, 95
3, 148320, Note_on_c, 2, 57, 95
3, 148320, Note_on_c, 2, 50, 95
3, 148800, Note_off_c, 2, 62, 95
3, 148800, Note_off_c, 2, 57, 95
3, 148800, Note_off_c, 2, 50, 95
3, 148800, Note_on_c, 2, 62, 95
3, 148800, Note_on_c, 2, 57, 95
3, 148800, Note_on_c, 2, 50, 95
3, 149280, Note_off_c, 2, 62, 95
3, 149280, Note_off_c, 2, 57, 95
3, 149280, Note_off_c, 2, 50, 95
3, 149280, Note_on_c, 2, 55, 95
3, 149280, Note_on_c, 2, 50, 95
3, 149280, Note_on_c, 2, 45, 95
3, 149376, Note_off_c, 2, 55, 95
3, 149376, Note_off_c, 2, 50, 95
3, 149376, Note_off_c, 2, 45, 95
3, 149760, Note_on_c, 2, 52, 95
3, 149760, Note_on_c, 2, 47, 95
3, 149760, Note_on_c, 2, 40, 95
3, 150720, Note_off_c, 2, 52, 95
3, 150720, Note_off_c, 2, 47, 95
3, 150720, Note_off_c, 2, 40, 95
3, 150720, Note_on_c, 2, 52, 95
3, 150720, Note_on_c, 2, 47, 95
3, 150720, Note_on_c, 2, 40, 95
3, 151200, Note_off_c, 2, 52, 95
3, 151200, Note_off_c, 2, 47, 95
3, 151200, Note_off_c, 2, 40, 95
3, 151200, Note_on_c, 2, 52, 95
3, 151200, Note_on_c, 2, 47, 95
3, 151200, Note_on_c, 2, 40, 95
3, 152160, Note_off_c, 2, 52, 95
3, 152160, Note_off_c, 2, 47, 95
3, 152160, Note_off_c, 2, 40, 95
3, 152160, Note_on_c, 2, 52, 95
3, 152160, Note_on_c, 2, 47, 95
3, 152160, Note_on_c, 2, 40, 95
3, 152640, Note_off_c, 2, 52, 95
3, 152640, Note_off_c, 2, 47, 95
3, 152640, Note_off_c, 2, 40, 95
3, 152640, Note_on_c, 2, 52, 95
3, 152640, Note_on_c, 2, 47, 95
3, 152640, Note_on_c, 2, 40, 95
3, 153120, Note_off_c, 2, 52, 95
3, 153120, Note_off_c, 2, 47, 95
3, 153120, Note_off_c, 2, 40, 95
3, 153120, Note_on_c, 2, 52, 95
3, 153120, Note_on_c, 2, 47, 95
3, 153120, Note_on_c, 2, 40, 95
3, 153600, Note_off_c, 2, 52, 95
3, 153600, Note_off_c, 2, 47, 95
3, 153600, Note_off_c, 2, 40, 95
3, 153600, Note_on_c, 2, 59, 95
3, 153600, Note_on_c, 2, 54, 95
3, 153600, Note_on_c, 2, 47, 95
3, 154560, Note_off_c, 2, 59, 95
3, 154560, Note_off_c, 2, 54, 95
3, 154560, Note_off_c, 2, 47, 95
3, 154560, Note_on_c, 2, 59, 95
3, 154560, Note_on_c, 2, 54, 95
3, 154560, Note_on_c, 2, 47, 95
3, 155040, Note_off_c, 2, 59, 95
3, 155040, Note_off_c, 2, 54, 95
3, 155040, Note_off_c, 2, 47, 95
3, 155040, Note_on_c, 2, 59, 95
3, 155040, Note_on_c, 2, 54, 95
3, 155040, Note_on_c, 2, 47, 95
3, 156000, Note_off_c, 2, 59, 95
3, 156000, Note_off_c, 2, 54, 95
3, 156000, Note_off_c, 2, 47, 95
3, 156000, Note_on_c, 2, 59, 95
3, 156000, Note_on_c, 2, 54, 95
3, 156000, Note_on_c, 2, 47, 95
3, 156480, Note_off_c, 2, 59, 95
3, 156480, Note_off_c, 2, 54, 95
3, 156480, Note_off_c, 2, 47, 95
3, 156480, Note_on_c, 2, 59, 95
3, 156480, Note_on_c, 2, 54, 95
3, 156480, Note_on_c, 2, 47, 95
3, 156960, Note_off_c, 2, 59, 95
3, 156960, Note_off_c, 2, 54, 95
3, 156960, Note_off_c, 2, 47, 95
3, 156960, Note_on_c, 2, 59, 95
3, 156960, Note_on_c, 2, 54, 95
3, 156960, Note_on_c, 2, 47, 95
3, 157440, Note_off_c, 2, 59, 95
3, 157440, Note_off_c, 2, 54, 95
3, 157440, Note_off_c, 2, 47, 95
3, 157440, Note_on_c, 2, 57, 95
3, 157440, Note_on_c, 2, 52, 95
3, 157440, Note_on_c, 2, 45, 95
3, 158400, Note_off_c, 2, 57, 95
3, 158400, Note_off_c, 2, 52, 95
3, 158400, Note_off_c, 2, 45, 95
3, 158400, Note_on_c, 2, 57, 95
3, 158400, Note_on_c, 2, 52, 95
3, 158400, Note_on_c, 2, 45, 95
3, 158880, Note_off_c, 2, 57, 95
3, 158880, Note_off_c, 2, 52, 95
3, 158880, Note_off_c, 2, 45, 95
3, 158880, Note_on_c, 2, 57, 95
3, 158880, Note_on_c, 2, 52, 95
3, 158880, Note_on_c, 2, 45, 95
3, 159360, Note_off_c, 2, 45, 95
3, 159840, Note_off_c, 2, 57, 95
3, 159840, Note_off_c, 2, 52, 95
3, 159840, Note_on_c, 2, 57, 95
3, 159840, Note_on_c, 2, 52, 95
3, 159840, Note_on_c, 2, 45, 95
3, 160320, Note_off_c, 2, 57, 95
3, 160320, Note_off_c, 2, 52, 95
3, 160320, Note_off_c, 2, 45, 95
3, 160320, Note_on_c, 2, 57, 95
3, 160320, Note_on_c, 2, 52, 95
3, 160320, Note_on_c, 2, 45, 95
3, 160800, Note_off_c, 2, 57, 95
3, 160800, Note_off_c, 2, 52, 95
3, 160800, Note_off_c, 2, 45, 95
3, 160800, Note_on_c, 2, 57, 95
3, 160800, Note_on_c, 2, 52, 95
3, 160800, Note_on_c, 2, 45, 95
3, 161280, Note_off_c, 2, 57, 95
3, 161280, Note_off_c, 2, 52, 95
3, 161280, Note_off_c, 2, 45, 95
3, 161280, Note_on_c, 2, 62, 95
3, 161280, Note_on_c, 2, 57, 95
3, 161280, Note_on_c, 2, 50, 95
3, 162240, Note_off_c, 2, 62, 95
3, 162240, Note_off_c, 2, 57, 95
3, 162240, Note_off_c, 2, 50, 95
3, 162240, Note_on_c, 2, 62, 95
3, 162240, Note_on_c, 2, 57, 95
3, 162240, Note_on_c, 2, 50, 95
3, 162720, Note_off_c, 2, 62, 95
3, 162720, Note_off_c, 2, 57, 95
3, 162720, Note_off_c, 2, 50, 95
3, 162720, Note_on_c, 2, 62, 95
3, 162720, Note_on_c, 2, 57, 95
3, 162720, Note_on_c, 2, 50, 95
3, 163680, Note_off_c, 2, 62, 95
3, 163680, Note_off_c, 2, 57, 95
3, 163680, Note_off_c, 2, 50, 95
3, 163680, Note_on_c, 2, 62, 95
3, 163680, Note_on_c, 2, 57, 95
3, 163680, Note_on_c, 2, 50, 95
3, 164160, Note_off_c, 2, 62, 95
3, 164160, Note_off_c, 2, 57, 95
3, 164160, Note_off_c, 2, 50, 95
3, 164160, Note_on_c, 2, 62, 95
3, 164160, Note_on_c, 2, 57, 95
3, 164160, Note_on_c, 2, 50, 95
3, 164640, Note_off_c, 2, 62, 95
3, 164640, Note_off_c, 2, 57, 95
3, 164640, Note_off_c, 2, 50, 95
3, 164640, Note_on_c, 2, 55, 95
3, 164640, Note_on_c, 2, 50, 95
3, 164640, Note_on_c, 2, 45, 95
3, 164736, Note_off_c, 2, 55, 95
3, 164736, Note_off_c, 2, 50, 95
3, 164736, Note_off_c, 2, 45, 95
3, 165120, Note_on_c, 2, 52, 95
3, 165120, Note_on_c, 2, 47, 95
3, 165120, Note_on_c, 2, 40, 95
3, 166080, Note_off_c, 2, 52, 95
3, 166080, Note_off_c, 2, 47, 95
3, 166080, Note_off_c, 2, 40, 95
3, 166080, Note_on_c, 2, 52, 95
3, 166080, Note_on_c, 2, 47, 95
3, 166080, Note_on_c, 2, 40, 95
3, 166560, Note_off_c, 2, 52, 95
3, 166560, Note_off_c, 2, 47, 95
3, 166560, Note_off_c, 2, 40, 95
3, 166560, Note_on_c, 2, 52, 95
3, 166560, Note_on_c, 2, 47, 95
3, 166560, Note_on_c, 2, 40, 95
3, 167520, Note_off_c, 2, 52, 95
3, 167520, Note_off_c, 2, 47, 95
3, 167520, Note_off_c, 2, 40, 95
3, 167520, Note_on_c, 2, 52, 95
3, 167520, Note_on_c, 2, 47, 95
3, 167520, Note_on_c, 2, 40, 95
3, 168000, Note_off_c, 2, 52, 95
3, 168000, Note_off_c, 2, 47, 95
3, 168000, Note_off_c, 2, 40, 95
3, 168000, Note_on_c, 2, 52, 95
3, 168000, Note_on_c, 2, 47, 95
3, 168000, Note_on_c, 2, 40, 95
3, 168480, Note_off_c, 2, 52, 95
3, 168480, Note_off_c, 2, 47, 95
3, 168480, Note_off_c, 2, 40, 95
3, 168480, Note_on_c, 2, 52, 95
3, 168480, Note_on_c, 2, 47, 95
3, 168480, Note_on_c, 2, 40, 95
3, 168960, Note_off_c, 2, 52, 95
3, 168960, Note_off_c, 2, 47, 95
3, 168960, Note_off_c, 2, 40, 95
3, 168960, Note_on_c, 2, 54, 95
3, 168960, Note_on_c, 2, 49, 95
3, 168960, Note_on_c, 2, 42, 95
3, 169920, Note_off_c, 2, 54, 95
3, 169920, Note_off_c, 2, 49, 95
3, 169920, Note_off_c, 2, 42, 95
3, 169920, Note_on_c, 2, 54, 95
3, 169920, Note_on_c, 2, 49, 95
3, 169920, Note_on_c, 2, 42, 95
3, 170400, Note_off_c, 2, 54, 95
3, 170400, Note_off_c, 2, 49, 95
3, 170400, Note_off_c, 2, 42, 95
3, 170400, Note_on_c, 2, 54, 95
3, 170400, Note_on_c, 2, 49, 95
3, 170400, Note_on_c, 2, 42, 95
3, 171360, Note_off_c, 2, 54, 95
3, 171360, Note_off_c, 2, 49, 95
3, 171360, Note_off_c, 2, 42, 95
3, 171360, Note_on_c, 2, 54, 95
3, 171360, Note_on_c, 2, 49, 95
3, 171360, Note_on_c, 2, 42, 95
3, 171840, Note_off_c, 2, 54, 95
3, 171840, Note_off_c, 2, 49, 95
3, 171840, Note_off_c, 2, 42, 95
3, 171840, Note_on_c, 2, 54, 95
3, 171840, Note_on_c, 2, 49, 95
3, 171840, Note_on_c, 2, 42, 95
3, 172320, Note_off_c, 2, 54, 95
3, 172320, Note_off_c, 2, 49, 95
3, 172320, Note_off_c, 2, 42, 95
3, 172320, Note_on_c, 2, 45, 95
3, 172320, Note_on_c, 2, 40, 95
3, 172800, Note_off_c, 2, 45, 95
3, 172800, Note_off_c, 2, 40, 95
3, 172800, Note_on_c, 2, 57, 95
3, 172800, Note_on_c, 2, 52, 95
3, 172800, Note_on_c, 2, 45, 95
3, 173760, Note_off_c, 2, 57, 95
3, 173760, Note_off_c, 2, 52, 95
3, 173760, Note_off_c, 2, 45, 95
3, 173760, Note_on_c, 2, 57, 95
3, 173760, Note_on_c, 2, 52, 95
3, 173760, Note_on_c, 2, 45, 95
3, 174240, Note_off_c, 2, 57, 95
3, 174240, Note_off_c, 2, 52, 95
3, 174240, Note_off_c, 2, 45, 95
3, 174240, Note_on_c, 2, 57, 95
3, 174240, Note_on_c, 2, 52, 95
3, 174240, Note_on_c, 2, 45, 95
3, 174720, Note_off_c, 2, 45, 95
3, 175200, Note_off_c, 2, 57, 95
3, 175200, Note_off_c, 2, 52, 95
3, 175200, Note_on_c, 2, 57, 95
3, 175200, Note_on_c, 2, 52, 95
3, 175200, Note_on_c, 2, 45, 95
3, 175680, Note_off_c, 2, 57, 95
3, 175680, Note_off_c, 2, 52, 95
3, 175680, Note_off_c, 2, 45, 95
3, 175680, Note_on_c, 2, 57, 95
3, 175680, Note_on_c, 2, 52, 95
3, 175680, Note_on_c, 2, 45, 95
3, 176160, Note_off_c, 2, 57, 95
3, 176160, Note_off_c, 2, 52, 95
3, 176160, Note_off_c, 2, 45, 95
3, 176160, Note_on_c, 2, 57, 95
3, 176160, Note_on_c, 2, 52, 95
3, 176160, Note_on_c, 2, 45, 95
3, 176640, Note_off_c, 2, 57, 95
3, 176640, Note_off_c, 2, 52, 95
3, 176640, Note_off_c, 2, 45, 95
3, 176640, Note_on_c, 2, 62, 95
3, 176640, Note_on_c, 2, 57, 95
3, 176640, Note_on_c, 2, 50, 95
3, 177600, Note_off_c, 2, 62, 95
3, 177600, Note_off_c, 2, 57, 95
3, 177600, Note_off_c, 2, 50, 95
3, 177600, Note_on_c, 2, 62, 95
3, 177600, Note_on_c, 2, 57, 95
3, 177600, Note_on_c, 2, 50, 95
3, 178080, Note_off_c, 2, 62, 95
3, 178080, Note_off_c, 2, 57, 95
3, 178080, Note_off_c, 2, 50, 95
3, 178080, Note_on_c, 2, 62, 95
3, 178080, Note_on_c, 2, 57, 95
3, 178080, Note_on_c, 2, 50, 95
3, 179040, Note_off_c, 2, 62, 95
3, 179040, Note_off_c, 2, 57, 95
3, 179040, Note_off_c, 2, 50, 95
3, 179040, Note_on_c, 2, 62, 95
3, 179040, Note_on_c, 2, 57, 95
3, 179040, Note_on_c, 2, 50, 95
3, 179520, Note_off_c, 2, 62, 95
3, 179520, Note_off_c, 2, 57, 95
3, 179520, Note_off_c, 2, 50, 95
3, 179520, Note_on_c, 2, 40, 95
3, 180000, Note_off_c, 2, 40, 95
3, 180000, Note_on_c, 2, 40, 95
3, 180480, Note_off_c, 2, 40, 95
3, 180480, Note_on_c, 2, 52, 95
3, 180480, Note_on_c, 2, 47, 95
3, 180480, Note_on_c, 2, 40, 95
3, 181440, Note_off_c, 2, 52, 95
3, 181440, Note_off_c, 2, 47, 95
3, 181440, Note_off_c, 2, 40, 95
3, 181440, Note_on_c, 2, 52, 95
3, 181440, Note_on_c, 2, 47, 95
3, 181440, Note_on_c, 2, 40, 95
3, 181920, Note_off_c, 2, 52, 95
3, 181920, Note_off_c, 2, 47, 95
3, 181920, Note_off_c, 2, 40, 95
3, 181920, Note_on_c, 2, 52, 95
3, 181920, Note_on_c, 2, 47, 95
3, 181920, Note_on_c, 2, 40, 95
3, 182880, Note_off_c, 2, 52, 95
3, 182880, Note_off_c, 2, 47, 95
3, 182880, Note_off_c, 2, 40, 95
3, 182880, Note_on_c, 2, 52, 95
3, 182880, Note_on_c, 2, 47, 95
3, 182880, Note_on_c, 2, 40, 95
3, 183360, Note_off_c, 2, 52, 95
3, 183360, Note_off_c, 2, 47, 95
3, 183360, Note_off_c, 2, 40, 95
3, 183360, Note_on_c, 2, 52, 95
3, 183360, Note_on_c, 2, 47, 95
3, 183360, Note_on_c, 2, 40, 95
3, 183840, Note_off_c, 2, 52, 95
3, 183840, Note_off_c, 2, 47, 95
3, 183840, Note_off_c, 2, 40, 95
3, 183840, Note_on_c, 2, 52, 95
3, 183840, Note_on_c, 2, 47, 95
3, 183840, Note_on_c, 2, 40, 95
3, 184320, Note_off_c, 2, 52, 95
3, 184320, Note_off_c, 2, 47, 95
3, 184320, Note_off_c, 2, 40, 95
3, 184320, Note_on_c, 2, 54, 95
3, 184320, Note_on_c, 2, 49, 95
3, 184320, Note_on_c, 2, 42, 95
3, 185280, Note_off_c, 2, 54, 95
3, 185280, Note_off_c, 2, 49, 95
3, 185280, Note_off_c, 2, 42, 95
3, 185280, Note_on_c, 2, 54, 95
3, 185280, Note_on_c, 2, 49, 95
3, 185280, Note_on_c, 2, 42, 95
3, 185760, Note_off_c, 2, 54, 95
3, 185760, Note_off_c, 2, 49, 95
3, 185760, Note_off_c, 2, 42, 95
3, 185760, Note_on_c, 2, 54, 95
3, 185760, Note_on_c, 2, 49, 95
3, 185760, Note_on_c, 2, 42, 95
3, 186720, Note_off_c, 2, 54, 95
3, 186720, Note_off_c, 2, 49, 95
3, 186720, Note_off_c, 2, 42, 95
3, 186720, Note_on_c, 2, 54, 95
3, 186720, Note_on_c, 2, 49, 95
3, 186720, Note_on_c, 2, 42, 95
3, 187200, Note_off_c, 2, 54, 95
3, 187200, Note_off_c, 2, 49, 95
3, 187200, Note_off_c, 2, 42, 95
3, 187200, Note_on_c, 2, 54, 95
3, 187200, Note_on_c, 2, 49, 95
3, 187200, Note_on_c, 2, 42, 95
3, 187680, Note_off_c, 2, 54, 95
3, 187680, Note_off_c, 2, 49, 95
3, 187680, Note_off_c, 2, 42, 95
3, 187680, Note_on_c, 2, 50, 95
3, 187680, Note_on_c, 2, 45, 95
3, 187680, Note_on_c, 2, 40, 95
3, 188160, Note_off_c, 2, 50, 95
3, 188160, Note_off_c, 2, 45, 95
3, 188160, Note_off_c, 2, 40, 95
3, 188160, Note_on_c, 2, 57, 95
3, 188160, Note_on_c, 2, 52, 95
3, 188160, Note_on_c, 2, 45, 95
3, 189120, Note_off_c, 2, 57, 95
3, 189120, Note_off_c, 2, 52, 95
3, 189120, Note_off_c, 2, 45, 95
3, 189120, Note_on_c, 2, 57, 95
3, 189120, Note_on_c, 2, 52, 95
3, 189120, Note_on_c, 2, 45, 95
3, 189600, Note_off_c, 2, 57, 95
3, 189600, Note_off_c, 2, 52, 95
3, 189600, Note_off_c, 2, 45, 95
3, 189600, Note_on_c, 2, 57, 95
3, 189600, Note_on_c, 2, 52, 95
3, 189600, Note_on_c, 2, 45, 95
3, 190080, Note_off_c, 2, 45, 95
3, 190560, Note_off_c, 2, 57, 95
3, 190560, Note_off_c, 2, 52, 95
3, 190560, Note_on_c, 2, 57, 95
3, 190560, Note_on_c, 2, 52, 95
3, 190560, Note_on_c, 2, 45, 95
3, 191040, Note_off_c, 2, 57, 95
3, 191040, Note_off_c, 2, 52, 95
3, 191040, Note_off_c, 2, 45, 95
3, 191040, Note_on_c, 2, 57, 95
3, 191040, Note_on_c, 2, 52, 95
3, 191040, Note_on_c, 2, 45, 95
3, 191520, Note_off_c, 2, 57, 95
3, 191520, Note_off_c, 2, 52, 95
3, 191520, Note_off_c, 2, 45, 95
3, 191520, Note_on_c, 2, 57, 95
3, 191520, Note_on_c, 2, 52, 95
3, 191520, Note_on_c, 2, 45, 95
3, 192000, Note_off_c, 2, 57, 95
3, 192000, Note_off_c, 2, 52, 95
3, 192000, Note_off_c, 2, 45, 95
3, 192000, Note_on_c, 2, 54, 95
3, 192000, Note_on_c, 2, 49, 95
3, 192000, Note_on_c, 2, 42, 95
3, 192480, Note_off_c, 2, 54, 95
3, 192480, Note_off_c, 2, 49, 95
3, 192480, Note_off_c, 2, 42, 95
3, 199680, Note_on_c, 2, 59, 95
3, 199680, Note_on_c, 2, 54, 95
3, 199680, Note_on_c, 2, 47, 95
3, 200640, Note_off_c, 2, 59, 95
3, 200640, Note_off_c, 2, 54, 95
3, 200640, Note_off_c, 2, 47, 95
3, 200640, Note_on_c, 2, 59, 95
3, 200640, Note_on_c, 2, 54, 95
3, 200640, Note_on_c, 2, 47, 95
3, 201120, Note_off_c, 2, 59, 95
3, 201120, Note_off_c, 2, 54, 95
3, 201120, Note_off_c, 2, 47, 95
3, 201120, Note_on_c, 2, 59, 95
3, 201120, Note_on_c, 2, 54, 95
3, 201120, Note_on_c, 2, 47, 95
3, 202080, Note_off_c, 2, 59, 95
3, 202080, Note_off_c, 2, 54, 95
3, 202080, Note_off_c, 2, 47, 95
3, 202080, Note_on_c, 2, 59, 95
3, 202080, Note_on_c, 2, 54, 95
3, 202080, Note_on_c, 2, 47, 95
3, 202560, Note_off_c, 2, 59, 95
3, 202560, Note_off_c, 2, 54, 95
3, 202560, Note_off_c, 2, 47, 95
3, 202560, Note_on_c, 2, 59, 95
3, 202560, Note_on_c, 2, 54, 95
3, 202560, Note_on_c, 2, 47, 95
3, 203520, Note_off_c, 2, 59, 95
3, 203520, Note_off_c, 2, 54, 95
3, 203520, Note_off_c, 2, 47, 95
3, 203520, Note_on_c, 2, 57, 95
3, 203520, Note_on_c, 2, 52, 95
3, 203520, Note_on_c, 2, 45, 95
3, 204480, Note_off_c, 2, 57, 95
3, 204480, Note_off_c, 2, 52, 95
3, 204480, Note_off_c, 2, 45, 95
3, 204480, Note_on_c, 2, 57, 95
3, 204480, Note_on_c, 2, 52, 95
3, 204480, Note_on_c, 2, 45, 95
3, 204960, Note_off_c, 2, 57, 95
3, 204960, Note_off_c, 2, 52, 95
3, 204960, Note_off_c, 2, 45, 95
3, 204960, Note_on_c, 2, 57, 95
3, 204960, Note_on_c, 2, 52, 95
3, 204960, Note_on_c, 2, 45, 95
3, 205440, Note_off_c, 2, 45, 95
3, 205920, Note_off_c, 2, 57, 95
3, 205920, Note_off_c, 2, 52, 95
3, 205920, Note_on_c, 2, 57, 95
3, 205920, Note_on_c, 2, 52, 95
3, 205920, Note_on_c, 2, 45, 95
3, 206400, Note_off_c, 2, 57, 95
3, 206400, Note_off_c, 2, 52, 95
3, 206400, Note_off_c, 2, 45, 95
3, 206400, Note_on_c, 2, 57, 95
3, 206400, Note_on_c, 2, 52, 95
3, 206400, Note_on_c, 2, 45, 95
3, 207360, Note_off_c, 2, 57, 95
3, 207360, Note_off_c, 2, 52, 95
3, 207360, Note_off_c, 2, 45, 95
3, 207360, Note_on_c, 2, 62, 95
3, 207360, Note_on_c, 2, 57, 95
3, 207360, Note_on_c, 2, 50, 95
3, 208320, Note_off_c, 2, 62, 95
3, 208320, Note_off_c, 2, 57, 95
3, 208320, Note_off_c, 2, 50, 95
3, 208320, Note_on_c, 2, 62, 95
3, 208320, Note_on_c, 2, 57, 95
3, 208320, Note_on_c, 2, 50, 95
3, 208800, Note_off_c, 2, 62, 95
3, 208800, Note_off_c, 2, 57, 95
3, 208800, Note_off_c, 2, 50, 95
3, 208800, Note_on_c, 2, 62, 95
3, 208800, Note_on_c, 2, 57, 95
3, 208800, Note_on_c, 2, 50, 95
3, 209760, Note_off_c, 2, 62, 95
3, 209760, Note_off_c, 2, 57, 95
3, 209760, Note_off_c, 2, 50, 95
3, 209760, Note_on_c, 2, 62, 95
3, 209760, Note_on_c, 2, 57, 95
3, 209760, Note_on_c, 2, 50, 95
3, 210240, Note_off_c, 2, 62, 95
3, 210240, Note_off_c, 2, 57, 95
3, 210240, Note_off_c, 2, 50, 95
3, 210240, Note_on_c, 2, 62, 95
3, 210240, Note_on_c, 2, 57, 95
3, 210240, Note_on_c, 2, 50, 95
3, 210720, Note_off_c, 2, 62, 95
3, 210720, Note_off_c, 2, 57, 95
3, 210720, Note_off_c, 2, 50, 95
3, 210720, Note_on_c, 2, 45, 95
3, 210720, Note_on_c, 2, 40, 95
3, 210960, Note_off_c, 2, 45, 95
3, 210960, Note_off_c, 2, 40, 95
3, 210960, Note_on_c, 2, 45, 95
3, 210960, Note_on_c, 2, 40, 95
3, 211200, Note_off_c, 2, 45, 95
3, 211200, Note_off_c, 2, 40, 95
3, 211200, Note_on_c, 2, 64, 95
3, 211200, Note_on_c, 2, 59, 95
3, 211200, Note_on_c, 2, 52, 95
3, 212160, Note_off_c, 2, 64, 95
3, 212160, Note_off_c, 2, 59, 95
3, 212160, Note_off_c, 2, 52, 95
3, 212160, Note_on_c, 2, 64, 95
3, 212160, Note_on_c, 2, 59, 95
3, 212160, Note_on_c, 2, 52, 95
3, 212640, Note_off_c, 2, 64, 95
3, 212640, Note_off_c, 2, 59, 95
3, 212640, Note_off_c, 2, 52, 95
3, 212640, Note_on_c, 2, 64, 95
3, 212640, Note_on_c, 2, 59, 95
3, 212640, Note_on_c, 2, 52, 95
3, 213600, Note_off_c, 2, 64, 95
3, 213600, Note_off_c, 2, 59, 95
3, 213600, Note_off_c, 2, 52, 95
3, 213600, Note_on_c, 2, 64, 95
3, 213600, Note_on_c, 2, 59, 95
3, 213600, Note_on_c, 2, 52, 95
3, 214080, Note_off_c, 2, 64, 95
3, 214080, Note_off_c, 2, 59, 95
3, 214080, Note_off_c, 2, 52, 95
3, 214080, Note_on_c, 2, 45, 95
3, 214080, Note_on_c, 2, 40, 95
3, 214560, Note_off_c, 2, 45, 95
3, 214560, Note_off_c, 2, 40, 95
3, 214560, Note_on_c, 2, 45, 95
3, 214560, Note_on_c, 2, 40, 95
3, 215040, Note_off_c, 2, 45, 95
3, 215040, Note_off_c, 2, 40, 95
3, 215040, Note_on_c, 2, 59, 95
3, 215040, Note_on_c, 2, 54, 95
3, 215040, Note_on_c, 2, 47, 95
3, 216000, Note_off_c, 2, 59, 95
3, 216000, Note_off_c, 2, 54, 95
3, 216000, Note_off_c, 2, 47, 95
3, 216000, Note_on_c, 2, 59, 95
3, 216000, Note_on_c, 2, 54, 95
3, 216000, Note_on_c, 2, 47, 95
3, 216480, Note_off_c, 2, 59, 95
3, 216480, Note_off_c, 2, 54, 95
3, 216480, Note_off_c, 2, 47, 95
3, 216480, Note_on_c, 2, 59, 95
3, 216480, Note_on_c, 2, 54, 95
3, 216480, Note_on_c, 2, 47, 95
3, 217440, Note_off_c, 2, 59, 95
3, 217440, Note_off_c, 2, 54, 95
3, 217440, Note_off_c, 2, 47, 95
3, 217440, Note_on_c, 2, 59, 95
3, 217440, Note_on_c, 2, 54, 95
3, 217440, Note_on_c, 2, 47, 95
3, 217920, Note_off_c, 2, 59, 95
3, 217920, Note_off_c, 2, 54, 95
3, 217920, Note_off_c, 2, 47, 95
3, 217920, Note_on_c, 2, 59, 95
3, 217920, Note_on_c, 2, 54, 95
3, 217920, Note_on_c, 2, 47, 95
3, 218400, Note_off_c, 2, 59, 95
3, 218400, Note_off_c, 2, 54, 95
3, 218400, Note_off_c, 2, 47, 95
3, 218400, Note_on_c, 2, 50, 95
3, 218400, Note_on_c, 2, 45, 95
3, 218880, Note_off_c, 2, 50, 95
3, 218880, Note_off_c, 2, 45, 95
3, 218880, Note_on_c, 2, 57, 95
3, 218880, Note_on_c, 2, 52, 95
3, 218880, Note_on_c, 2, 45, 95
3, 219840, Note_off_c, 2, 57, 95
3, 219840, Note_off_c, 2, 52, 95
3, 219840, Note_off_c, 2, 45, 95
3, 219840, Note_on_c, 2, 57, 95
3, 219840, Note_on_c, 2, 52, 95
3, 219840, Note_on_c, 2, 45, 95
3, 220320, Note_off_c, 2, 57, 95
3, 220320, Note_off_c, 2, 52, 95
3, 220320, Note_off_c, 2, 45, 95
3, 220320, Note_on_c, 2, 57, 95
3, 220320, Note_on_c, 2, 52, 95
3, 220320, Note_on_c, 2, 45, 95
3, 220800, Note_off_c, 2, 45, 95
3, 221280, Note_off_c, 2, 57, 95
3, 221280, Note_off_c, 2, 52, 95
3, 221280, Note_on_c, 2, 57, 95
3, 221280, Note_on_c, 2, 52, 95
3, 221280, Note_on_c, 2, 45, 95
3, 221760, Note_off_c, 2, 57, 95
3, 221760, Note_off_c, 2, 52, 95
3, 221760, Note_off_c, 2, 45, 95
3, 221760, Note_on_c, 2, 57, 95
3, 221760, Note_on_c, 2, 52, 95
3, 221760, Note_on_c, 2, 45, 95
3, 222240, Note_off_c, 2, 57, 95
3, 222240, Note_off_c, 2, 52, 95
3, 222240, Note_off_c, 2, 45, 95
3, 222240, Note_on_c, 2, 57, 95
3, 222240, Note_on_c, 2, 52, 95
3, 222240, Note_on_c, 2, 45, 95
3, 222480, Note_off_c, 2, 57, 95
3, 222480, Note_off_c, 2, 52, 95
3, 222480, Note_off_c, 2, 45, 95
3, 222480, Note_on_c, 2, 57, 95
3, 222480, Note_on_c, 2, 52, 95
3, 222480, Note_on_c, 2, 45, 95
3, 222720, Note_off_c, 2, 57, 95
3, 222720, Note_off_c, 2, 52, 95
3, 222720, Note_off_c, 2, 45, 95
3, 222720, Note_on_c, 2, 62, 95
3, 222720, Note_on_c, 2, 57, 95
3, 222720, Note_on_c, 2, 50, 95
3, 223680, Note_off_c, 2, 62, 95
3, 223680, Note_off_c, 2, 57, 95
3, 223680, Note_off_c, 2, 50, 95
3, 223680, Note_on_c, 2, 62, 95
3, 223680, Note_on_c, 2, 57, 95
3, 223680, Note_on_c, 2, 50, 95
3, 224160, Note_off_c, 2, 62, 95
3, 224160, Note_off_c, 2, 57, 95
3, 224160, Note_off_c, 2, 50, 95
3, 224160, Note_on_c, 2, 62, 95
3, 224160, Note_on_c, 2, 57, 95
3, 224160, Note_on_c, 2, 50, 95
3, 225120, Note_off_c, 2, 62, 95
3, 225120, Note_off_c, 2, 57, 95
3, 225120, Note_off_c, 2, 50, 95
3, 225120, Note_on_c, 2, 62, 95
3, 225120, Note_on_c, 2, 57, 95
3, 225120, Note_on_c, 2, 50, 95
3, 225600, Note_off_c, 2, 62, 95
3, 225600, Note_off_c, 2, 57, 95
3, 225600, Note_off_c, 2, 50, 95
3, 225600, Note_on_c, 2, 62, 95
3, 225600, Note_on_c, 2, 57, 95
3, 225600, Note_on_c, 2, 50, 95
3, 226080, Note_off_c, 2, 62, 95
3, 226080, Note_off_c, 2, 57, 95
3, 226080, Note_off_c, 2, 50, 95
3, 226080, Note_on_c, 2, 40, 95
3, 226560, Note_off_c, 2, 40, 95
3, 226560, Note_on_c, 2, 52, 95
3, 226560, Note_on_c, 2, 47, 95
3, 226560, Note_on_c, 2, 40, 95
3, 227520, Note_off_c, 2, 52, 95
3, 227520, Note_off_c, 2, 47, 95
3, 227520, Note_off_c, 2, 40, 95
3, 227520, Note_on_c, 2, 52, 95
3, 227520, Note_on_c, 2, 47, 95
3, 227520, Note_on_c, 2, 40, 95
3, 228000, Note_off_c, 2, 52, 95
3, 228000, Note_off_c, 2, 47, 95
3, 228000, Note_off_c, 2, 40, 95
3, 228000, Note_on_c, 2, 52, 95
3, 228000, Note_on_c, 2, 47, 95
3, 228000, Note_on_c, 2, 40, 95
3, 228960, Note_off_c, 2, 52, 95
3, 228960, Note_off_c, 2, 47, 95
3, 228960, Note_off_c, 2, 40, 95
3, 228960, Note_on_c, 2, 52, 95
3, 228960, Note_on_c, 2, 47, 95
3, 228960, Note_on_c, 2, 40, 95
3, 229440, Note_off_c, 2, 52, 95
3, 229440, Note_off_c, 2, 47, 95
3, 229440, Note_off_c, 2, 40, 95
3, 229440, Note_on_c, 2, 52, 95
3, 229440, Note_on_c, 2, 47, 95
3, 229440, Note_on_c, 2, 40, 95
3, 229920, Note_off_c, 2, 52, 95
3, 229920, Note_off_c, 2, 47, 95
3, 229920, Note_off_c, 2, 40, 95
3, 229920, Note_on_c, 2, 52, 95
3, 229920, Note_on_c, 2, 47, 95
3, 229920, Note_on_c, 2, 40, 95
3, 230400, Note_off_c, 2, 52, 95
3, 230400, Note_off_c, 2, 47, 95
3, 230400, Note_off_c, 2, 40, 95
3, 230400, Note_on_c, 2, 54, 95
3, 230400, Note_on_c, 2, 49, 95
3, 230400, Note_on_c, 2, 42, 95
3, 231360, Note_off_c, 2, 54, 95
3, 231360, Note_off_c, 2, 49, 95
3, 231360, Note_off_c, 2, 42, 95
3, 231360, Note_on_c, 2, 54, 95
3, 231360, Note_on_c, 2, 49, 95
3, 231360, Note_on_c, 2, 42, 95
3, 231840, Note_off_c, 2, 54, 95
3, 231840, Note_off_c, 2, 49, 95
3, 231840, Note_off_c, 2, 42, 95
3, 231840, Note_on_c, 2, 54, 95
3, 231840, Note_on_c, 2, 49, 95
3, 231840, Note_on_c, 2, 42, 95
3, 232800, Note_off_c, 2, 54, 95
3, 232800, Note_off_c, 2, 49, 95
3, 232800, Note_off_c, 2, 42, 95
3, 232800, Note_on_c, 2, 54, 95
3, 232800, Note_on_c, 2, 49, 95
3, 232800, Note_on_c, 2, 42, 95
3, 233280, Note_off_c, 2, 54, 95
3, 233280, Note_off_c, 2, 49, 95
3, 233280, Note_off_c, 2, 42, 95
3, 233280, Note_on_c, 2, 54, 95
3, 233280, Note_on_c, 2, 49, 95
3, 233280, Note_on_c, 2, 42, 95
3, 233760, Note_off_c, 2, 54, 95
3, 233760, Note_off_c, 2, 49, 95
3, 233760, Note_off_c, 2, 42, 95
3, 233760, Note_on_c, 2, 40, 95
3, 234240, Note_off_c, 2, 40, 95
3, 234240, Note_on_c, 2, 57, 95
3, 234240, Note_on_c, 2, 52, 95
3, 234240, Note_on_c, 2, 45, 95
3, 235200, Note_off_c, 2, 57, 95
3, 235200, Note_off_c, 2, 52, 95
3, 235200, Note_off_c, 2, 45, 95
3, 235200, Note_on_c, 2, 57, 95
3, 235200, Note_on_c, 2, 52, 95
3, 235200, Note_on_c, 2, 45, 95
3, 235680, Note_off_c, 2, 57, 95
3, 235680, Note_off_c, 2, 52, 95
3, 235680, Note_off_c, 2, 45, 95
3, 235680, Note_on_c, 2, 57, 95
3, 235680, Note_on_c, 2, 52, 95
3, 235680, Note_on_c, 2, 45, 95
3, 236160, Note_off_c, 2, 45, 95
3, 236640, Note_off_c, 2, 57, 95
3, 236640, Note_off_c, 2, 52, 95
3, 236640, Note_on_c, 2, 57, 95
3, 236640, Note_on_c, 2, 52, 95
3, 236640, Note_on_c, 2, 45, 95
3, 237120, Note_off_c, 2, 57, 95
3, 237120, Note_off_c, 2, 52, 95
3, 237120, Note_off_c, 2, 45, 95
3, 237120, Note_on_c, 2, 57, 95
3, 237120, Note_on_c, 2, 52, 95
3, 237120, Note_on_c, 2, 45, 95
3, 237600, Note_off_c, 2, 57, 95
3, 237600, Note_off_c, 2, 52, 95
3, 237600, Note_off_c, 2, 45, 95
3, 237600, Note_on_c, 2, 57, 95
3, 237600, Note_on_c, 2, 52, 95
3, 237600, Note_on_c, 2, 45, 95
3, 238080, Note_off_c, 2, 57, 95
3, 238080, Note_off_c, 2, 52, 95
3, 238080, Note_off_c, 2, 45, 95
3, 238080, Note_on_c, 2, 62, 95
3, 238080, Note_on_c, 2, 57, 95
3, 238080, Note_on_c, 2, 50, 95
3, 239040, Note_off_c, 2, 62, 95
3, 239040, Note_off_c, 2, 57, 95
3, 239040, Note_off_c, 2, 50, 95
3, 239040, Note_on_c, 2, 62, 95
3, 239040, Note_on_c, 2, 57, 95
3, 239040, Note_on_c, 2, 50, 95
3, 239520, Note_off_c, 2, 62, 95
3, 239520, Note_off_c, 2, 57, 95
3, 239520, Note_off_c, 2, 50, 95
3, 239520, Note_on_c, 2, 62, 95
3, 239520, Note_on_c, 2, 57, 95
3, 239520, Note_on_c, 2, 50, 95
3, 240480, Note_off_c, 2, 62, 95
3, 240480, Note_off_c, 2, 57, 95
3, 240480, Note_off_c, 2, 50, 95
3, 240480, Note_on_c, 2, 62, 95
3, 240480, Note_on_c, 2, 57, 95
3, 240480, Note_on_c, 2, 50, 95
3, 240960, Note_off_c, 2, 62, 95
3, 240960, Note_off_c, 2, 57, 95
3, 240960, Note_off_c, 2, 50, 95
3, 240960, Note_on_c, 2, 62, 95
3, 240960, Note_on_c, 2, 57, 95
3, 240960, Note_on_c, 2, 50, 95
3, 241440, Note_off_c, 2, 62, 95
3, 241440, Note_off_c, 2, 57, 95
3, 241440, Note_off_c, 2, 50, 95
3, 241440, Note_on_c, 2, 52, 95
3, 241440, Note_on_c, 2, 40, 95
3, 241680, Note_off_c, 2, 52, 95
3, 241680, Note_off_c, 2, 40, 95
3, 241680, Note_on_c, 2, 52, 95
3, 241680, Note_on_c, 2, 40, 95
3, 241920, Note_off_c, 2, 52, 95
3, 241920, Note_off_c, 2, 40, 95
3, 241920, Note_on_c, 2, 64, 95
3, 241920, Note_on_c, 2, 59, 95
3, 241920, Note_on_c, 2, 52, 95
3, 242880, Note_off_c, 2, 64, 95
3, 242880, Note_off_c, 2, 59, 95
3, 242880, Note_off_c, 2, 52, 95
3, 242880, Note_on_c, 2, 64, 95
3, 242880, Note_on_c, 2, 59, 95
3, 242880, Note_on_c, 2, 52, 95
3, 243360, Note_off_c, 2, 64, 95
3, 243360, Note_off_c, 2, 59, 95
3, 243360, Note_off_c, 2, 52, 95
3, 243360, Note_on_c, 2, 64, 95
3, 243360, Note_on_c, 2, 59, 95
3, 243360, Note_on_c, 2, 52, 95
3, 244320, Note_off_c, 2, 64, 95
3, 244320, Note_off_c, 2, 59, 95
3, 244320, Note_off_c, 2, 52, 95
3, 244320, Note_on_c, 2, 64, 95
3, 244320, Note_on_c, 2, 59, 95
3, 244320, Note_on_c, 2, 52, 95
3, 244800, Note_off_c, 2, 64, 95
3, 244800, Note_off_c, 2, 59, 95
3, 244800, Note_off_c, 2, 52, 95
3, 244800, Note_on_c, 2, 45, 95
3, 244800, Note_on_c, 2, 40, 95
3, 245280, Note_off_c, 2, 45, 95
3, 245280, Note_off_c, 2, 40, 95
3, 245280, Note_on_c, 2, 45, 95
3, 245280, Note_on_c, 2, 40, 95
3, 245760, Note_off_c, 2, 45, 95
3, 245760, Note_off_c, 2, 40, 95
3, 245760, Note_on_c, 2, 54, 95
3, 245760, Note_on_c, 2, 49, 95
3, 245760, Note_on_c, 2, 42, 95
3, 246720, Note_off_c, 2, 54, 95
3, 246720, Note_off_c, 2, 49, 95
3, 246720, Note_off_c, 2, 42, 95
3, 246720, Note_on_c, 2, 54, 95
3, 246720, Note_on_c, 2, 49, 95
3, 246720, Note_on_c, 2, 42, 95
3, 247200, Note_off_c, 2, 54, 95
3, 247200, Note_off_c, 2, 49, 95
3, 247200, Note_off_c, 2, 42, 95
3, 247200, Note_on_c, 2, 54, 95
3, 247200, Note_on_c, 2, 49, 95
3, 247200, Note_on_c, 2, 42, 95
3, 248160, Note_off_c, 2, 54, 95
3, 248160, Note_off_c, 2, 49, 95
3, 248160, Note_off_c, 2, 42, 95
3, 248160, Note_on_c, 2, 54, 95
3, 248160, Note_on_c, 2, 49, 95
3, 248160, Note_on_c, 2, 42, 95
3, 248640, Note_off_c, 2, 54, 95
3, 248640, Note_off_c, 2, 49, 95
3, 248640, Note_off_c, 2, 42, 95
3, 248640, Note_on_c, 2, 54, 95
3, 248640, Note_on_c, 2, 49, 95
3, 248640, Note_on_c, 2, 42, 95
3, 249120, Note_off_c, 2, 54, 95
3, 249120, Note_off_c, 2, 49, 95
3, 249120, Note_off_c, 2, 42, 95
3, 249120, Note_on_c, 2, 54, 95
3, 249120, Note_on_c, 2, 49, 95
3, 249120, Note_on_c, 2, 42, 95
3, 249600, Note_off_c, 2, 54, 95
3, 249600, Note_off_c, 2, 49, 95
3, 249600, Note_off_c, 2, 42, 95
3, 249600, Note_on_c, 2, 57, 95
3, 249600, Note_on_c, 2, 52, 95
3, 249600, Note_on_c, 2, 45, 95
3, 250560, Note_off_c, 2, 57, 95
3, 250560, Note_off_c, 2, 52, 95
3, 250560, Note_off_c, 2, 45, 95
3, 250560, Note_on_c, 2, 57, 95
3, 250560, Note_on_c, 2, 52, 95
3, 250560, Note_on_c, 2, 45, 95
3, 251040, Note_off_c, 2, 57, 95
3, 251040, Note_off_c, 2, 52, 95
3, 251040, Note_off_c, 2, 45, 95
3, 251040, Note_on_c, 2, 57, 95
3, 251040, Note_on_c, 2, 52, 95
3, 251040, Note_on_c, 2, 45, 95
3, 251520, Note_off_c, 2, 45, 95
3, 252000, Note_off_c, 2, 57, 95
3, 252000, Note_off_c, 2, 52, 95
3, 252000, Note_on_c, 2, 57, 95
3, 252000, Note_on_c, 2, 52, 95
3, 252000, Note_on_c, 2, 45, 95
3, 252480, Note_off_c, 2, 57, 95
3, 252480, Note_off_c, 2, 52, 95
3, 252480, Note_off_c, 2, 45, 95
3, 252480, Note_on_c, 2, 57, 95
3, 252480, Note_on_c, 2, 52, 95
3, 252480, Note_on_c, 2, 45, 95
3, 252960, Note_off_c, 2, 57, 95
3, 252960, Note_off_c, 2, 52, 95
3, 252960, Note_off_c, 2, 45, 95
3, 252960, Note_on_c, 2, 45, 95
3, 252960, Note_on_c, 2, 40, 95
3, 253440, Note_off_c, 2, 45, 95
3, 253440, Note_off_c, 2, 40, 95
3, 253440, Note_on_c, 2, 54, 95
3, 253440, Note_on_c, 2, 49, 95
3, 253440, Note_on_c, 2, 42, 95
3, 253920, Note_off_c, 2, 54, 95
3, 253920, Note_off_c, 2, 49, 95
3, 253920, Note_off_c, 2, 42, 95
3, 261120, Note_on_c, 2, 59, 95
3, 261120, Note_on_c, 2, 54, 95
3, 261120, Note_on_c, 2, 47, 95
3, 262080, Note_off_c, 2, 59, 95
3, 262080, Note_off_c, 2, 54, 95
3, 262080, Note_off_c, 2, 47, 95
3, 262080, Note_on_c, 2, 59, 95
3, 262080, Note_on_c, 2, 54, 95
3, 262080, Note_on_c, 2, 47, 95
3, 262560, Note_off_c, 2, 59, 95
3, 262560, Note_off_c, 2, 54, 95
3, 262560, Note_off_c, 2, 47, 95
3, 262560, Note_on_c, 2, 59, 95
3, 262560, Note_on_c, 2, 54, 95
3, 262560, Note_on_c, 2, 47, 95
3, 263520, Note_off_c, 2, 59, 95
3, 263520, Note_off_c, 2, 54, 95
3, 263520, Note_off_c, 2, 47, 95
3, 263520, Note_on_c, 2, 59, 95
3, 263520, Note_on_c, 2, 54, 95
3, 263520, Note_on_c, 2, 47, 95
3, 264000, Note_off_c, 2, 59, 95
3, 264000, Note_off_c, 2, 54, 95
3, 264000, Note_off_c, 2, 47, 95
3, 264000, Note_on_c, 2, 59, 95
3, 264000, Note_on_c, 2, 54, 95
3, 264000, Note_on_c, 2, 47, 95
3, 264480, Note_off_c, 2, 59, 95
3, 264480, Note_off_c, 2, 54, 95
3, 264480, Note_off_c, 2, 47, 95
3, 264480, Note_on_c, 2, 59, 95
3, 264480, Note_on_c, 2, 54, 95
3, 264480, Note_on_c, 2, 47, 95
3, 264960, Note_off_c, 2, 59, 95
3, 264960, Note_off_c, 2, 54, 95
3, 264960, Note_off_c, 2, 47, 95
3, 264960, Note_on_c, 2, 57, 95
3, 264960, Note_on_c, 2, 52, 95
3, 264960, Note_on_c, 2, 45, 95
3, 265920, Note_off_c, 2, 57, 95
3, 265920, Note_off_c, 2, 52, 95
3, 265920, Note_off_c, 2, 45, 95
3, 265920, Note_on_c, 2, 57, 95
3, 265920, Note_on_c, 2, 52, 95
3, 265920, Note_on_c, 2, 45, 95
3, 266400, Note_off_c, 2, 57, 95
3, 266400, Note_off_c, 2, 52, 95
3, 266400, Note_off_c, 2, 45, 95
3, 266400, Note_on_c, 2, 57, 95
3, 266400, Note_on_c, 2, 52, 95
3, 266400, Note_on_c, 2, 45, 95
3, 266880, Note_off_c, 2, 45, 95
3, 267360, Note_off_c, 2, 57, 95
3, 267360, Note_off_c, 2, 52, 95
3, 267360, Note_on_c, 2, 57, 95
3, 267360, Note_on_c, 2, 52, 95
3, 267360, Note_on_c, 2, 45, 95
3, 267840, Note_off_c, 2, 57, 95
3, 267840, Note_off_c, 2, 52, 95
3, 267840, Note_off_c, 2, 45, 95
3, 267840, Note_on_c, 2, 57, 95
3, 267840, Note_on_c, 2, 52, 95
3, 267840, Note_on_c, 2, 45, 95
3, 268320, Note_off_c, 2, 57, 95
3, 268320, Note_off_c, 2, 52, 95
3, 268320, Note_off_c, 2, 45, 95
3, 268320, Note_on_c, 2, 57, 95
3, 268320, Note_on_c, 2, 52, 95
3, 268320, Note_on_c, 2, 45, 95
3, 268800, Note_off_c, 2, 57, 95
3, 268800, Note_off_c, 2, 52, 95
3, 268800, Note_off_c, 2, 45, 95
3, 268800, Note_on_c, 2, 62, 95
3, 268800, Note_on_c, 2, 57, 95
3, 268800, Note_on_c, 2, 50, 95
3, 269760, Note_off_c, 2, 62, 95
3, 269760, Note_off_c, 2, 57, 95
3, 269760, Note_off_c, 2, 50, 95
3, 269760, Note_on_c, 2, 62, 95
3, 269760, Note_on_c, 2, 57, 95
3, 269760, Note_on_c, 2, 50, 95
3, 270240, Note_off_c, 2, 62, 95
3, 270240, Note_off_c, 2, 57, 95
3, 270240, Note_off_c, 2, 50, 95
3, 270240, Note_on_c, 2, 62, 95
3, 270240, Note_on_c, 2, 57, 95
3, 270240, Note_on_c, 2, 50, 95
3, 271200, Note_off_c, 2, 62, 95
3, 271200, Note_off_c, 2, 57, 95
3, 271200, Note_off_c, 2, 50, 95
3, 271200, Note_on_c, 2, 62, 95
3, 271200, Note_on_c, 2, 57, 95
3, 271200, Note_on_c, 2, 50, 95
3, 271680, Note_off_c, 2, 62, 95
3, 271680, Note_off_c, 2, 57, 95
3, 271680, Note_off_c, 2, 50, 95
3, 271680, Note_on_c, 2, 62, 95
3, 271680, Note_on_c, 2, 57, 95
3, 271680, Note_on_c, 2, 50, 95
3, 272160, Note_off_c, 2, 62, 95
3, 272160, Note_off_c, 2, 57, 95
3, 272160, Note_off_c, 2, 50, 95
3, 272160, Note_on_c, 2, 55, 95
3, 272160, Note_on_c, 2, 50, 95
3, 272160, Note_on_c, 2, 45, 95
3, 272256, Note_off_c, 2, 55, 95
3, 272256, Note_off_c, 2, 50, 95
3, 272256, Note_off_c, 2, 45, 95
3, 272640, Note_on_c, 2, 52, 95
3, 272640, Note_on_c, 2, 47, 95
3, 272640, Note_on_c, 2, 40, 95
3, 273600, Note_off_c, 2, 52, 95
3, 273600, Note_off_c, 2, 47, 95
3, 273600, Note_off_c, 2, 40, 95
3, 273600, Note_on_c, 2, 52, 95
3, 273600, Note_on_c, 2, 47, 95
3, 273600, Note_on_c, 2, 40, 95
3, 274080, Note_off_c, 2, 52, 95
3, 274080, Note_off_c, 2, 47, 95
3, 274080, Note_off_c, 2, 40, 95
3, 274080, Note_on_c, 2, 52, 95
3, 274080, Note_on_c, 2, 47, 95
3, 274080, Note_on_c, 2, 40, 95
3, 275040, Note_off_c, 2, 52, 95
3, 275040, Note_off_c, 2, 47, 95
3, 275040, Note_off_c, 2, 40, 95
3, 275040, Note_on_c, 2, 52, 95
3, 275040, Note_on_c, 2, 47, 95
3, 275040, Note_on_c, 2, 40, 95
3, 275520, Note_off_c, 2, 52, 95
3, 275520, Note_off_c, 2, 47, 95
3, 275520, Note_off_c, 2, 40, 95
3, 275520, Note_on_c, 2, 52, 95
3, 275520, Note_on_c, 2, 47, 95
3, 275520, Note_on_c, 2, 40, 95
3, 276000, Note_off_c, 2, 52, 95
3, 276000, Note_off_c, 2, 47, 95
3, 276000, Note_off_c, 2, 40, 95
3, 276000, Note_on_c, 2, 52, 95
3, 276000, Note_on_c, 2, 47, 95
3, 276000, Note_on_c, 2, 40, 95
3, 276480, Note_off_c, 2, 52, 95
3, 276480, Note_off_c, 2, 47, 95
3, 276480, Note_off_c, 2, 40, 95
3, 276480, Note_on_c, 2, 59, 95
3, 276480, Note_on_c, 2, 54, 95
3, 276480, Note_on_c, 2, 47, 95
3, 277440, Note_off_c, 2, 59, 95
3, 277440, Note_off_c, 2, 54, 95
3, 277440, Note_off_c, 2, 47, 95
3, 277440, Note_on_c, 2, 59, 95
3, 277440, Note_on_c, 2, 54, 95
3, 277440, Note_on_c, 2, 47, 95
3, 277920, Note_off_c, 2, 59, 95
3, 277920, Note_off_c, 2, 54, 95
3, 277920, Note_off_c, 2, 47, 95
3, 277920, Note_on_c, 2, 59, 95
3, 277920, Note_on_c, 2, 54, 95
3, 277920, Note_on_c, 2, 47, 95
3, 278880, Note_off_c, 2, 59, 95
3, 278880, Note_off_c, 2, 54, 95
3, 278880, Note_off_c, 2, 47, 95
3, 278880, Note_on_c, 2, 59, 95
3, 278880, Note_on_c, 2, 54, 95
3, 278880, Note_on_c, 2, 47, 95
3, 279360, Note_off_c, 2, 59, 95
3, 279360, Note_off_c, 2, 54, 95
3, 279360, Note_off_c, 2, 47, 95
3, 279360, Note_on_c, 2, 59, 95
3, 279360, Note_on_c, 2, 54, 95
3, 279360, Note_on_c, 2, 47, 95
3, 279840, Note_off_c, 2, 59, 95
3, 279840, Note_off_c, 2, 54, 95
3, 279840, Note_off_c, 2, 47, 95
3, 279840, Note_on_c, 2, 59, 95
3, 279840, Note_on_c, 2, 54, 95
3, 279840, Note_on_c, 2, 47, 95
3, 280320, Note_off_c, 2, 59, 95
3, 280320, Note_off_c, 2, 54, 95
3, 280320, Note_off_c, 2, 47, 95
3, 280320, Note_on_c, 2, 57, 95
3, 280320, Note_on_c, 2, 52, 95
3, 280320, Note_on_c, 2, 45, 95
3, 281280, Note_off_c, 2, 57, 95
3, 281280, Note_off_c, 2, 52, 95
3, 281280, Note_off_c, 2, 45, 95
3, 281280, Note_on_c, 2, 57, 95
3, 281280, Note_on_c, 2, 52, 95
3, 281280, Note_on_c, 2, 45, 95
3, 281760, Note_off_c, 2, 57, 95
3, 281760, Note_off_c, 2, 52, 95
3, 281760, Note_off_c, 2, 45, 95
3, 281760, Note_on_c, 2, 57, 95
3, 281760, Note_on_c, 2, 52, 95
3, 281760, Note_on_c, 2, 45, 95
3, 282240, Note_off_c, 2, 45, 95
3, 282720, Note_off_c, 2, 57, 95
3, 282720, Note_off_c, 2, 52, 95
3, 282720, Note_on_c, 2, 57, 95
3, 282720, Note_on_c, 2, 52, 95
3, 282720, Note_on_c, 2, 45, 95
3, 283200, Note_off_c, 2, 57, 95
3, 283200, Note_off_c, 2, 52, 95
3, 283200, Note_off_c, 2, 45, 95
3, 283200, Note_on_c, 2, 57, 95
3, 283200, Note_on_c, 2, 52, 95
3, 283200, Note_on_c, 2, 45, 95
3, 283680, Note_off_c, 2, 57, 95
3, 283680, Note_off_c, 2, 52, 95
3, 283680, Note_off_c, 2, 45, 95
3, 283680, Note_on_c, 2, 57, 95
3, 283680, Note_on_c, 2, 52, 95
3, 283680, Note_on_c, 2, 45, 95
3, 284160, Note_off_c, 2, 57, 95
3, 284160, Note_off_c, 2, 52, 95
3, 284160, Note_off_c, 2, 45, 95
3, 284160, Note_on_c, 2, 62, 95
3, 284160, Note_on_c, 2, 57, 95
3, 284160, Note_on_c, 2, 50, 95
3, 285120, Note_off_c, 2, 62, 95
3, 285120, Note_off_c, 2, 57, 95
3, 285120, Note_off_c, 2, 50, 95
3, 285120, Note_on_c, 2, 62, 95
3, 285120, Note_on_c, 2, 57, 95
3, 285120, Note_on_c, 2, 50, 95
3, 285600, Note_off_c, 2, 62, 95
3, 285600, Note_off_c, 2, 57, 95
3, 285600, Note_off_c, 2, 50, 95
3, 285600, Note_on_c, 2, 62, 95
3, 285600, Note_on_c, 2, 57, 95
3, 285600, Note_on_c, 2, 50, 95
3, 286560, Note_off_c, 2, 62, 95
3, 286560, Note_off_c, 2, 57, 95
3, 286560, Note_off_c, 2, 50, 95
3, 286560, Note_on_c, 2, 62, 95
3, 286560, Note_on_c, 2, 57, 95
3, 286560, Note_on_c, 2, 50, 95
3, 287040, Note_off_c, 2, 62, 95
3, 287040, Note_off_c, 2, 57, 95
3, 287040, Note_off_c, 2, 50, 95
3, 287040, Note_on_c, 2, 62, 95
3, 287040, Note_on_c, 2, 57, 95
3, 287040, Note_on_c, 2, 50, 95
3, 287520, Note_off_c, 2, 62, 95
3, 287520, Note_off_c, 2, 57, 95
3, 287520, Note_off_c, 2, 50, 95
3, 287520, Note_on_c, 2, 55, 95
3, 287520, Note_on_c, 2, 50, 95
3, 287520, Note_on_c, 2, 45, 95
3, 287616, Note_off_c, 2, 55, 95
3, 287616, Note_off_c, 2, 50, 95
3, 287616, Note_off_c, 2, 45, 95
3, 288000, Note_on_c, 2, 52, 95
3, 288000, Note_on_c, 2, 47, 95
3, 288000, Note_on_c, 2, 40, 95
3, 288960, Note_off_c, 2, 52, 95
3, 288960, Note_off_c, 2, 47, 95
3, 288960, Note_off_c, 2, 40, 95
3, 288960, Note_on_c, 2, 52, 95
3, 288960, Note_on_c, 2, 47, 95
3, 288960, Note_on_c, 2, 40, 95
3, 289440, Note_off_c, 2, 52, 95
3, 289440, Note_off_c, 2, 47, 95
3, 289440, Note_off_c, 2, 40, 95
3, 289440, Note_on_c, 2, 52, 95
3, 289440, Note_on_c, 2, 47, 95
3, 289440, Note_on_c, 2, 40, 95
3, 290400, Note_off_c, 2, 52, 95
3, 290400, Note_off_c, 2, 47, 95
3, 290400, Note_off_c, 2, 40, 95
3, 290400, Note_on_c, 2, 52, 95
3, 290400, Note_on_c, 2, 47, 95
3, 290400, Note_on_c, 2, 40, 95
3, 290880, Note_off_c, 2, 52, 95
3, 290880, Note_off_c, 2, 47, 95
3, 290880, Note_off_c, 2, 40, 95
3, 290880, Note_on_c, 2, 52, 95
3, 290880, Note_on_c, 2, 47, 95
3, 290880, Note_on_c, 2, 40, 95
3, 291360, Note_off_c, 2, 52, 95
3, 291360, Note_off_c, 2, 47, 95
3, 291360, Note_off_c, 2, 40, 95
3, 291360, Note_on_c, 2, 52, 95
3, 291360, Note_on_c, 2, 47, 95
3, 291360, Note_on_c, 2, 40, 95
3, 291840, Note_off_c, 2, 52, 95
3, 291840, Note_off_c, 2, 47, 95
3, 291840, Note_off_c, 2, 40, 95
3, 291840, Note_on_c, 2, 54, 95
3, 291840, Note_on_c, 2, 49, 95
3, 291840, Note_on_c, 2, 42, 95
3, 292800, Note_off_c, 2, 54, 95
3, 292800, Note_off_c, 2, 49, 95
3, 292800, Note_off_c, 2, 42, 95
3, 292800, Note_on_c, 2, 54, 95
3, 292800, Note_on_c, 2, 49, 95
3, 292800, Note_on_c, 2, 42, 95
3, 293280, Note_off_c, 2, 54, 95
3, 293280, Note_off_c, 2, 49, 95
3, 293280, Note_off_c, 2, 42, 95
3, 293280, Note_on_c, 2, 54, 95
3, 293280, Note_on_c, 2, 49, 95
3, 293280, Note_on_c, 2, 42, 95
3, 294240, Note_off_c, 2, 54, 95
3, 294240, Note_off_c, 2, 49, 95
3, 294240, Note_off_c, 2, 42, 95
3, 294240, Note_on_c, 2, 54, 95
3, 294240, Note_on_c, 2, 49, 95
3, 294240, Note_on_c, 2, 42, 95
3, 294720, Note_off_c, 2, 54, 95
3, 294720, Note_off_c, 2, 49, 95
3, 294720, Note_off_c, 2, 42, 95
3, 294720, Note_on_c, 2, 54, 95
3, 294720, Note_on_c, 2, 49, 95
3, 294720, Note_on_c, 2, 42, 95
3, 295200, Note_off_c, 2, 54, 95
3, 295200, Note_off_c, 2, 49, 95
3, 295200, Note_off_c, 2, 42, 95
3, 295200, Note_on_c, 2, 45, 95
3, 295200, Note_on_c, 2, 40, 95
3, 295680, Note_off_c, 2, 45, 95
3, 295680, Note_off_c, 2, 40, 95
3, 295680, Note_on_c, 2, 57, 95
3, 295680, Note_on_c, 2, 52, 95
3, 295680, Note_on_c, 2, 45, 95
3, 296640, Note_off_c, 2, 57, 95
3, 296640, Note_off_c, 2, 52, 95
3, 296640, Note_off_c, 2, 45, 95
3, 296640, Note_on_c, 2, 57, 95
3, 296640, Note_on_c, 2, 52, 95
3, 296640, Note_on_c, 2, 45, 95
3, 297120, Note_off_c, 2, 57, 95
3, 297120, Note_off_c, 2, 52, 95
3, 297120, Note_off_c, 2, 45, 95
3, 297120, Note_on_c, 2, 57, 95
3, 297120, Note_on_c, 2, 52, 95
3, 297120, Note_on_c, 2, 45, 95
3, 297600, Note_off_c, 2, 45, 95
3, 298080, Note_off_c, 2, 57, 95
3, 298080, Note_off_c, 2, 52, 95
3, 298080, Note_on_c, 2, 57, 95
3, 298080, Note_on_c, 2, 52, 95
3, 298080, Note_on_c, 2, 45, 95
3, 298560, Note_off_c, 2, 57, 95
3, 298560, Note_off_c, 2, 52, 95
3, 298560, Note_off_c, 2, 45, 95
3, 298560, Note_on_c, 2, 57, 95
3, 298560, Note_on_c, 2, 52, 95
3, 298560, Note_on_c, 2, 45, 95
3, 299040, Note_off_c, 2, 57, 95
3, 299040, Note_off_c, 2, 52, 95
3, 299040, Note_off_c, 2, 45, 95
3, 299040, Note_on_c, 2, 57, 95
3, 299040, Note_on_c, 2, 52, 95
3, 299040, Note_on_c, 2, 45, 95
3, 299520, Note_off_c, 2, 57, 95
3, 299520, Note_off_c, 2, 52, 95
3, 299520, Note_off_c, 2, 45, 95
3, 299520, Note_on_c, 2, 62, 95
3, 299520, Note_on_c, 2, 57, 95
3, 299520, Note_on_c, 2, 50, 95
3, 300480, Note_off_c, 2, 62, 95
3, 300480, Note_off_c, 2, 57, 95
3, 300480, Note_off_c, 2, 50, 95
3, 300480, Note_on_c, 2, 62, 95
3, 300480, Note_on_c, 2, 57, 95
3, 300480, Note_on_c, 2, 50, 95
3, 300960, Note_off_c, 2, 62, 95
3, 300960, Note_off_c, 2, 57, 95
3, 300960, Note_off_c, 2, 50, 95
3, 300960, Note_on_c, 2, 62, 95
3, 300960, Note_on_c, 2, 57, 95
3, 300960, Note_on_c, 2, 50, 95
3, 301920, Note_off_c, 2, 62, 95
3, 301920, Note_off_c, 2, 57, 95
3, 301920, Note_off_c, 2, 50, 95
3, 301920, Note_on_c, 2, 62, 95
3, 301920, Note_on_c, 2, 57, 95
3, 301920, Note_on_c, 2, 50, 95
3, 302400, Note_off_c, 2, 57, 95
3, 302400, Note_off_c, 2, 50, 95
3, 302400, Note_on_c, 2, 40, 95
3, 302880, Note_off_c, 2, 40, 95
3, 302880, Note_on_c, 2, 40, 95
3, 303360, Note_off_c, 2, 40, 95
3, 303360, Note_on_c, 2, 52, 95
3, 303360, Note_on_c, 2, 47, 95
3, 303360, Note_on_c, 2, 40, 95
3, 304320, Note_off_c, 2, 52, 95
3, 304320, Note_off_c, 2, 47, 95
3, 304320, Note_off_c, 2, 40, 95
3, 304320, Note_on_c, 2, 52, 95
3, 304320, Note_on_c, 2, 47, 95
3, 304320, Note_on_c, 2, 40, 95
3, 304800, Note_off_c, 2, 52, 95
3, 304800, Note_off_c, 2, 47, 95
3, 304800, Note_off_c, 2, 40, 95
3, 304800, Note_on_c, 2, 52, 95
3, 304800, Note_on_c, 2, 47, 95
3, 304800, Note_on_c, 2, 40, 95
3, 305760, Note_off_c, 2, 52, 95
3, 305760, Note_off_c, 2, 47, 95
3, 305760, Note_off_c, 2, 40, 95
3, 305760, Note_on_c, 2, 52, 95
3, 305760, Note_on_c, 2, 47, 95
3, 305760, Note_on_c, 2, 40, 95
3, 306240, Note_off_c, 2, 52, 95
3, 306240, Note_off_c, 2, 47, 95
3, 306240, Note_off_c, 2, 40, 95
3, 306240, Note_on_c, 2, 52, 95
3, 306240, Note_on_c, 2, 47, 95
3, 306240, Note_on_c, 2, 40, 95
3, 306720, Note_off_c, 2, 52, 95
3, 306720, Note_off_c, 2, 47, 95
3, 306720, Note_off_c, 2, 40, 95
3, 306720, Note_on_c, 2, 52, 95
3, 306720, Note_on_c, 2, 47, 95
3, 306720, Note_on_c, 2, 40, 95
3, 307200, Note_off_c, 2, 52, 95
3, 307200, Note_off_c, 2, 47, 95
3, 307200, Note_off_c, 2, 40, 95
3, 307200, Note_on_c, 2, 54, 95
3, 307200, Note_on_c, 2, 49, 95
3, 307200, Note_on_c, 2, 42, 95
3, 308160, Note_off_c, 2, 54, 95
3, 308160, Note_off_c, 2, 49, 95
3, 308160, Note_off_c, 2, 42, 95
3, 308160, Note_on_c, 2, 54, 95
3, 308160, Note_on_c, 2, 49, 95
3, 308160, Note_on_c, 2, 42, 95
3, 308640, Note_off_c, 2, 54, 95
3, 308640, Note_off_c, 2, 49, 95
3, 308640, Note_off_c, 2, 42, 95
3, 308640, Note_on_c, 2, 54, 95
3, 308640, Note_on_c, 2, 49, 95
3, 308640, Note_on_c, 2, 42, 95
3, 309600, Note_off_c, 2, 54, 95
3, 309600, Note_off_c, 2, 49, 95
3, 309600, Note_off_c, 2, 42, 95
3, 309600, Note_on_c, 2, 54, 95
3, 309600, Note_on_c, 2, 49, 95
3, 309600, Note_on_c, 2, 42, 95
3, 310080, Note_off_c, 2, 54, 95
3, 310080, Note_off_c, 2, 49, 95
3, 310080, Note_off_c, 2, 42, 95
3, 310080, Note_on_c, 2, 54, 95
3, 310080, Note_on_c, 2, 49, 95
3, 310080, Note_on_c, 2, 42, 95
3, 310560, Note_off_c, 2, 54, 95
3, 310560, Note_off_c, 2, 49, 95
3, 310560, Note_off_c, 2, 42, 95
3, 310560, Note_on_c, 2, 45, 95
3, 310560, Note_on_c, 2, 40, 95
3, 311040, Note_off_c, 2, 45, 95
3, 311040, Note_off_c, 2, 40, 95
3, 311040, Note_on_c, 2, 57, 95
3, 311040, Note_on_c, 2, 52, 95
3, 311040, Note_on_c, 2, 45, 95
3, 312000, Note_off_c, 2, 57, 95
3, 312000, Note_off_c, 2, 52, 95
3, 312000, Note_off_c, 2, 45, 95
3, 312000, Note_on_c, 2, 57, 95
3, 312000, Note_on_c, 2, 52, 95
3, 312000, Note_on_c, 2, 45, 95
3, 312480, Note_off_c, 2, 57, 95
3, 312480, Note_off_c, 2, 52, 95
3, 312480, Note_off_c, 2, 45, 95
3, 312480, Note_on_c, 2, 57, 95
3, 312480, Note_on_c, 2, 52, 95
3, 312480, Note_on_c, 2, 45, 95
3, 312960, Note_off_c, 2, 45, 95
3, 313440, Note_off_c, 2, 62, 95
3, 313440, Note_off_c, 2, 57, 95
3, 313440, Note_off_c, 2, 52, 95
3, 313440, Note_on_c, 2, 57, 95
3, 313440, Note_on_c, 2, 52, 95
3, 313440, Note_on_c, 2, 45, 95
3, 313920, Note_off_c, 2, 57, 95
3, 313920, Note_off_c, 2, 52, 95
3, 313920, Note_off_c, 2, 45, 95
3, 313920, Note_on_c, 2, 57, 95
3, 313920, Note_on_c, 2, 52, 95
3, 313920, Note_on_c, 2, 45, 95
3, 314400, Note_off_c, 2, 57, 95
3, 314400, Note_off_c, 2, 52, 95
3, 314400, Note_off_c, 2, 45, 95
3, 314400, Note_on_c, 2, 57, 95
3, 314400, Note_on_c, 2, 52, 95
3, 314400, Note_on_c, 2, 45, 95
3, 314880, Note_off_c, 2, 57, 95
3, 314880, Note_off_c, 2, 52, 95
3, 314880, Note_off_c, 2, 45, 95
3, 314880, Note_on_c, 2, 54, 95
3, 314880, Note_on_c, 2, 49, 95
3, 314880, Note_on_c, 2, 42, 95
3, 315360, Note_off_c, 2, 54, 95
3, 315360, Note_off_c, 2, 49, 95
3, 315360, Note_off_c, 2, 42, 95
3, 322560, Note_on_c, 2, 59, 95
3, 322560, Note_on_c, 2, 54, 95
3, 322560, Note_on_c, 2, 47, 95
3, 323040, Note_off_c, 2, 59, 95
3, 323040, Note_off_c, 2, 54, 95
3, 323040, Note_off_c, 2, 47, 95
3, 323040, End_track
4, 0, Start_track
4, 0, Pitch_bend_c, 9, 8192
4, 0, Control_c, 9, 7, 111
4, 0, Control_c, 9, 10, 63
4, 0, Control_c, 9, 93, 0
4, 0, Control_c, 9, 91, 0
4, 0, Control_c, 9, 95, 0
4, 0, Control_c, 9, 92, 0
4, 0, Control_c, 9, 11, 127
4, 0, Program_c, 9, 0
4, 14400, Note_on_c, 9, 40, 95
4, 15360, Note_off_c, 9, 40, 95
4, 15360, Note_on_c, 9, 49, 95
4, 15360, Note_on_c, 9, 36, 95
4, 16320, Note_off_c, 9, 49, 95
4, 16320, Note_off_c, 9, 36, 95
4, 16320, Note_on_c, 9, 49, 95
4, 16320, Note_on_c, 9, 40, 95
4, 16800, Note_off_c, 9, 49, 95
4, 16800, Note_off_c, 9, 40, 95
4, 16800, Note_on_c, 9, 40, 95
4, 17280, Note_off_c, 9, 40, 95
4, 17280, Note_on_c, 9, 49, 95
4, 18240, Note_off_c, 9, 49, 95
4, 18240, Note_on_c, 9, 49, 95
4, 18240, Note_on_c, 9, 40, 95
4, 19200, Note_off_c, 9, 49, 95
4, 19200, Note_off_c, 9, 40, 95
4, 19200, Note_on_c, 9, 49, 95
4, 19200, Note_on_c, 9, 36, 95
4, 20160, Note_off_c, 9, 49, 95
4, 20160, Note_off_c, 9, 36, 95
4, 20160, Note_on_c, 9, 49, 95
4, 20160, Note_on_c, 9, 40, 95
4, 20640, Note_off_c, 9, 49, 95
4, 20640, Note_off_c, 9, 40, 95
4, 20640, Note_on_c, 9, 40, 95
4, 21120, Note_off_c, 9, 40, 95
4, 21120, Note_on_c, 9, 49, 95
4, 22080, Note_off_c, 9, 49, 95
4, 22080, Note_on_c, 9, 49, 95
4, 22080, Note_on_c, 9, 40, 95
4, 23040, Note_off_c, 9, 49, 95
4, 23040, Note_off_c, 9, 40, 95
4, 23040, Note_on_c, 9, 49, 95
4, 23040, Note_on_c, 9, 36, 95
4, 24000, Note_off_c, 9, 49, 95
4, 24000, Note_off_c, 9, 36, 95
4, 24000, Note_on_c, 9, 49, 95
4, 24000, Note_on_c, 9, 40, 95
4, 24480, Note_off_c, 9, 49, 95
4, 24480, Note_off_c, 9, 40, 95
4, 24480, Note_on_c, 9, 40, 95
4, 24960, Note_off_c, 9, 40, 95
4, 24960, Note_on_c, 9, 49, 95
4, 25920, Note_off_c, 9, 49, 95
4, 25920, Note_on_c, 9, 49, 95
4, 25920, Note_on_c, 9, 40, 95
4, 26880, Note_off_c, 9, 49, 95
4, 26880, Note_off_c, 9, 40, 95
4, 26880, Note_on_c, 9, 49, 95
4, 26880, Note_on_c, 9, 36, 95
4, 27840, Note_off_c, 9, 49, 95
4, 27840, Note_off_c, 9, 36, 95
4, 27840, Note_on_c, 9, 49, 95
4, 27840, Note_on_c, 9, 40, 95
4, 28320, Note_off_c, 9, 49, 95
4, 28320, Note_off_c, 9, 40, 95
4, 28320, Note_on_c, 9, 40, 95
4, 28800, Note_off_c, 9, 40, 95
4, 28800, Note_on_c, 9, 49, 95
4, 29760, Note_off_c, 9, 49, 95
4, 29760, Note_on_c, 9, 49, 95
4, 29760, Note_on_c, 9, 40, 95
4, 30720, Note_off_c, 9, 49, 95
4, 30720, Note_off_c, 9, 40, 95
4, 30720, Note_on_c, 9, 49, 95
4, 30720, Note_on_c, 9, 36, 95
4, 31680, Note_off_c, 9, 49, 95
4, 31680, Note_off_c, 9, 36, 95
4, 31680, Note_on_c, 9, 49, 95
4, 31680, Note_on_c, 9, 40, 95
4, 32160, Note_off_c, 9, 49, 95
4, 32160, Note_off_c, 9, 40, 95
4, 32160, Note_on_c, 9, 40, 95
4, 32640, Note_off_c, 9, 40, 95
4, 32640, Note_on_c, 9, 49, 95
4, 33600, Note_off_c, 9, 49, 95
4, 33600, Note_on_c, 9, 49, 95
4, 33600, Note_on_c, 9, 40, 95
4, 34560, Note_off_c, 9, 49, 95
4, 34560, Note_off_c, 9, 40, 95
4, 34560, Note_on_c, 9, 49, 95
4, 34560, Note_on_c, 9, 36, 95
4, 35520, Note_off_c, 9, 49, 95
4, 35520, Note_off_c, 9, 36, 95
4, 35520, Note_on_c, 9, 49, 95
4, 35520, Note_on_c, 9, 40, 95
4, 36000, Note_off_c, 9, 49, 95
4, 36000, Note_off_c, 9, 40, 95
4, 36000, Note_on_c, 9, 40, 95
4, 36480, Note_off_c, 9, 40, 95
4, 36480, Note_on_c, 9, 49, 95
4, 37440, Note_off_c, 9, 49, 95
4, 37440, Note_on_c, 9, 49, 95
4, 37440, Note_on_c, 9, 40, 95
4, 38400, Note_off_c, 9, 49, 95
4, 38400, Note_off_c, 9, 40, 95
4, 38400, Note_on_c, 9, 49, 95
4, 38400, Note_on_c, 9, 36, 95
4, 39360, Note_off_c, 9, 49, 95
4, 39360, Note_off_c, 9, 36, 95
4, 39360, Note_on_c, 9, 49, 95
4, 39360, Note_on_c, 9, 40, 95
4, 39840, Note_off_c, 9, 49, 95
4, 39840, Note_off_c, 9, 40, 95
4, 39840, Note_on_c, 9, 40, 95
4, 40320, Note_off_c, 9, 40, 95
4, 40320, Note_on_c, 9, 49, 95
4, 41280, Note_off_c, 9, 49, 95
4, 41280, Note_on_c, 9, 49, 95
4, 41280, Note_on_c, 9, 40, 95
4, 42240, Note_off_c, 9, 49, 95
4, 42240, Note_off_c, 9, 40, 95
4, 42240, Note_on_c, 9, 49, 95
4, 42240, Note_on_c, 9, 36, 95
4, 43200, Note_off_c, 9, 49, 95
4, 43200, Note_off_c, 9, 36, 95
4, 43200, Note_on_c, 9, 49, 95
4, 43200, Note_on_c, 9, 40, 95
4, 43680, Note_off_c, 9, 49, 95
4, 43680, Note_off_c, 9, 40, 95
4, 43680, Note_on_c, 9, 40, 95
4, 44160, Note_off_c, 9, 40, 95
4, 44160, Note_on_c, 9, 49, 95
4, 45120, Note_off_c, 9, 49, 95
4, 45120, Note_on_c, 9, 49, 95
4, 45120, Note_on_c, 9, 40, 95
4, 46080, Note_off_c, 9, 49, 95
4, 46080, Note_off_c, 9, 40, 95
4, 46080, Note_on_c, 9, 49, 95
4, 46080, Note_on_c, 9, 36, 95
4, 47040, Note_off_c, 9, 49, 95
4, 47040, Note_off_c, 9, 36, 95
4, 47040, Note_on_c, 9, 49, 95
4, 47040, Note_on_c, 9, 40, 95
4, 47520, Note_off_c, 9, 49, 95
4, 47520, Note_off_c, 9, 40, 95
4, 47520, Note_on_c, 9, 40, 95
4, 48000, Note_off_c, 9, 40, 95
4, 48000, Note_on_c, 9, 49, 95
4, 48960, Note_off_c, 9, 49, 95
4, 48960, Note_on_c, 9, 49, 95
4, 48960, Note_on_c, 9, 40, 95
4, 49920, Note_off_c, 9, 49, 95
4, 49920, Note_off_c, 9, 40, 95
4, 49920, Note_on_c, 9, 49, 95
4, 49920, Note_on_c, 9, 36, 95
4, 50880, Note_off_c, 9, 49, 95
4, 50880, Note_off_c, 9, 36, 95
4, 50880, Note_on_c, 9, 49, 95
4, 50880, Note_on_c, 9, 40, 95
4, 51360, Note_off_c, 9, 49, 95
4, 51360, Note_off_c, 9, 40, 95
4, 51360, Note_on_c, 9, 40, 95
4, 51840, Note_off_c, 9, 40, 95
4, 51840, Note_on_c, 9, 49, 95
4, 52800, Note_off_c, 9, 49, 95
4, 52800, Note_on_c, 9, 49, 95
4, 52800, Note_on_c, 9, 40, 95
4, 53760, Note_off_c, 9, 49, 95
4, 53760, Note_off_c, 9, 40, 95
4, 53760, Note_on_c, 9, 49, 95
4, 53760, Note_on_c, 9, 36, 95
4, 54720, Note_off_c, 9, 49, 95
4, 54720, Note_off_c, 9, 36, 95
4, 54720, Note_on_c, 9, 49, 95
4, 54720, Note_on_c, 9, 40, 95
4, 55200, Note_off_c, 9, 49, 95
4, 55200, Note_off_c, 9, 40, 95
4, 55200, Note_on_c, 9, 40, 95
4, 55680, Note_off_c, 9, 40, 95
4, 55680, Note_on_c, 9, 49, 95
4, 56640, Note_off_c, 9, 49, 95
4, 56640, Note_on_c, 9, 49, 95
4, 56640, Note_on_c, 9, 40, 95
4, 57600, Note_off_c, 9, 49, 95
4, 57600, Note_off_c, 9, 40, 95
4, 57600, Note_on_c, 9, 49, 95
4, 57600, Note_on_c, 9, 36, 95
4, 58560, Note_off_c, 9, 49, 95
4, 58560, Note_off_c, 9, 36, 95
4, 58560, Note_on_c, 9, 49, 95
4, 58560, Note_on_c, 9, 40, 95
4, 59040, Note_off_c, 9, 49, 95
4, 59040, Note_off_c, 9, 40, 95
4, 59040, Note_on_c, 9, 40, 95
4, 59520, Note_off_c, 9, 40, 95
4, 59520, Note_on_c, 9, 49, 95
4, 60480, Note_off_c, 9, 49, 95
4, 60480, Note_on_c, 9, 49, 95
4, 60480, Note_on_c, 9, 40, 95
4, 61440, Note_off_c, 9, 49, 95
4, 61440, Note_off_c, 9, 40, 95
4, 61440, Note_on_c, 9, 49, 95
4, 61440, Note_on_c, 9, 36, 95
4, 62400, Note_off_c, 9, 49, 95
4, 62400, Note_off_c, 9, 36, 95
4, 62400, Note_on_c, 9, 49, 95
4, 62400, Note_on_c, 9, 40, 95
4, 62880, Note_off_c, 9, 49, 95
4, 62880, Note_off_c, 9, 40, 95
4, 62880, Note_on_c, 9, 40, 95
4, 63360, Note_off_c, 9, 40, 95
4, 63360, Note_on_c, 9, 49, 95
4, 64320, Note_off_c, 9, 49, 95
4, 64320, Note_on_c, 9, 49, 95
4, 64320, Note_on_c, 9, 40, 95
4, 65280, Note_off_c, 9, 49, 95
4, 65280, Note_off_c, 9, 40, 95
4, 65280, Note_on_c, 9, 49, 95
4, 65280, Note_on_c, 9, 36, 95
4, 66240, Note_off_c, 9, 49, 95
4, 66240, Note_off_c, 9, 36, 95
4, 66240, Note_on_c, 9, 49, 95
4, 66240, Note_on_c, 9, 40, 95
4, 66720, Note_off_c, 9, 49, 95
4, 66720, Note_off_c, 9, 40, 95
4, 66720, Note_on_c, 9, 40, 95
4, 67200, Note_off_c, 9, 40, 95
4, 67200, Note_on_c, 9, 49, 95
4, 68160, Note_off_c, 9, 49, 95
4, 68160, Note_on_c, 9, 49, 95
4, 68160, Note_on_c, 9, 40, 95
4, 69120, Note_off_c, 9, 49, 95
4, 69120, Note_off_c, 9, 40, 95
4, 69120, Note_on_c, 9, 49, 95
4, 69120, Note_on_c, 9, 40, 95
4, 70080, Note_off_c, 9, 49, 95
4, 70080, Note_off_c, 9, 40, 95
4, 75840, Note_on_c, 9, 40, 95
4, 76800, Note_off_c, 9, 40, 95
4, 76800, Note_on_c, 9, 49, 95
4, 76800, Note_on_c, 9, 36, 95
4, 77760, Note_off_c, 9, 49, 95
4, 77760, Note_off_c, 9, 36, 95
4, 77760, Note_on_c, 9, 49, 95
4, 77760, Note_on_c, 9, 40, 95
4, 78240, Note_off_c, 9, 49, 95
4, 78240, Note_off_c, 9, 40, 95
4, 78240, Note_on_c, 9, 40, 95
4, 78720, Note_off_c, 9, 40, 95
4, 78720, Note_on_c, 9, 49, 95
4, 79680, Note_off_c, 9, 49, 95
4, 79680, Note_on_c, 9, 49, 95
4, 79680, Note_on_c, 9, 40, 95
4, 80640, Note_off_c, 9, 49, 95
4, 80640, Note_off_c, 9, 40, 95
4, 80640, Note_on_c, 9, 49, 95
4, 80640, Note_on_c, 9, 36, 95
4, 81600, Note_off_c, 9, 49, 95
4, 81600, Note_off_c, 9, 36, 95
4, 81600, Note_on_c, 9, 49, 95
4, 81600, Note_on_c, 9, 40, 95
4, 82080, Note_off_c, 9, 49, 95
4, 82080, Note_off_c, 9, 40, 95
4, 82080, Note_on_c, 9, 40, 95
4, 82560, Note_off_c, 9, 40, 95
4, 82560, Note_on_c, 9, 49, 95
4, 83520, Note_off_c, 9, 49, 95
4, 83520, Note_on_c, 9, 49, 95
4, 83520, Note_on_c, 9, 40, 95
4, 84480, Note_off_c, 9, 49, 95
4, 84480, Note_off_c, 9, 40, 95
4, 84480, Note_on_c, 9, 49, 95
4, 84480, Note_on_c, 9, 36, 95
4, 85440, Note_off_c, 9, 49, 95
4, 85440, Note_off_c, 9, 36, 95
4, 85440, Note_on_c, 9, 49, 95
4, 85440, Note_on_c, 9, 40, 95
4, 85920, Note_off_c, 9, 49, 95
4, 85920, Note_off_c, 9, 40, 95
4, 85920, Note_on_c, 9, 40, 95
4, 86400, Note_off_c, 9, 40, 95
4, 86400, Note_on_c, 9, 49, 95
4, 87360, Note_off_c, 9, 49, 95
4, 87360, Note_on_c, 9, 49, 95
4, 87360, Note_on_c, 9, 40, 95
4, 88320, Note_off_c, 9, 49, 95
4, 88320, Note_off_c, 9, 40, 95
4, 88320, Note_on_c, 9, 49, 95
4, 88320, Note_on_c, 9, 36, 95
4, 89280, Note_off_c, 9, 49, 95
4, 89280, Note_off_c, 9, 36, 95
4, 89280, Note_on_c, 9, 49, 95
4, 89280, Note_on_c, 9, 40, 95
4, 89760, Note_off_c, 9, 49, 95
4, 89760, Note_off_c, 9, 40, 95
4, 89760, Note_on_c, 9, 40, 95
4, 90240, Note_off_c, 9, 40, 95
4, 90240, Note_on_c, 9, 49, 95
4, 91200, Note_off_c, 9, 49, 95
4, 91200, Note_on_c, 9, 49, 95
4, 91200, Note_on_c, 9, 40, 95
4, 92160, Note_off_c, 9, 49, 95
4, 92160, Note_off_c, 9, 40, 95
4, 92160, Note_on_c, 9, 49, 95
4, 92160, Note_on_c, 9, 36, 95
4, 93120, Note_off_c, 9, 49, 95
4, 93120, Note_off_c, 9, 36, 95
4, 93120, Note_on_c, 9, 49, 95
4, 93120, Note_on_c, 9, 40, 95
4, 93600, Note_off_c, 9, 49, 95
4, 93600, Note_off_c, 9, 40, 95
4, 93600, Note_on_c, 9, 40, 95
4, 94080, Note_off_c, 9, 40, 95
4, 94080, Note_on_c, 9, 49, 95
4, 95040, Note_off_c, 9, 49, 95
4, 95040, Note_on_c, 9, 49, 95
4, 95040, Note_on_c, 9, 40, 95
4, 96000, Note_off_c, 9, 49, 95
4, 96000, Note_off_c, 9, 40, 95
4, 96000, Note_on_c, 9, 49, 95
4, 96000, Note_on_c, 9, 36, 95
4, 96960, Note_off_c, 9, 49, 95
4, 96960, Note_off_c, 9, 36, 95
4, 96960, Note_on_c, 9, 49, 95
4, 96960, Note_on_c, 9, 40, 95
4, 97440, Note_off_c, 9, 49, 95
4, 97440, Note_off_c, 9, 40, 95
4, 97440, Note_on_c, 9, 40, 95
4, 97920, Note_off_c, 9, 40, 95
4, 97920, Note_on_c, 9, 49, 95
4, 98880, Note_off_c, 9, 49, 95
4, 98880, Note_on_c, 9, 49, 95
4, 98880, Note_on_c, 9, 40, 95
4, 99840, Note_off_c, 9, 49, 95
4, 99840, Note_off_c, 9, 40, 95
4, 99840, Note_on_c, 9, 49, 95
4, 99840, Note_on_c, 9, 36, 95
4, 100800, Note_off_c, 9, 49, 95
4, 100800, Note_off_c, 9, 36, 95
4, 100800, Note_on_c, 9, 49, 95
4, 100800, Note_on_c, 9, 40, 95
4, 101280, Note_off_c, 9, 49, 95
4, 101280, Note_off_c, 9, 40, 95
4, 101280, Note_on_c, 9, 40, 95
4, 101760, Note_off_c, 9, 40, 95
4, 101760, Note_on_c, 9, 49, 95
4, 102720, Note_off_c, 9, 49, 95
4, 102720, Note_on_c, 9, 49, 95
4, 102720, Note_on_c, 9, 40, 95
4, 103680, Note_off_c, 9, 49, 95
4, 103680, Note_off_c, 9, 40, 95
4, 103680, Note_on_c, 9, 49, 95
4, 103680, Note_on_c, 9, 36, 95
4, 104640, Note_off_c, 9, 49, 95
4, 104640, Note_off_c, 9, 36, 95
4, 104640, Note_on_c, 9, 49, 95
4, 104640, Note_on_c, 9, 40, 95
4, 105120, Note_off_c, 9, 49, 95
4, 105120, Note_off_c, 9, 40, 95
4, 105120, Note_on_c, 9, 40, 95
4, 105600, Note_off_c, 9, 40, 95
4, 105600, Note_on_c, 9, 49, 95
4, 106560, Note_off_c, 9, 49, 95
4, 106560, Note_on_c, 9, 49, 95
4, 106560, Note_on_c, 9, 40, 95
4, 107520, Note_off_c, 9, 49, 95
4, 107520, Note_off_c, 9, 40, 95
4, 107520, Note_on_c, 9, 49, 95
4, 107520, Note_on_c, 9, 36, 95
4, 108480, Note_off_c, 9, 49, 95
4, 108480, Note_off_c, 9, 36, 95
4, 108480, Note_on_c, 9, 49, 95
4, 108480, Note_on_c, 9, 40, 95
4, 108960, Note_off_c, 9, 49, 95
4, 108960, Note_off_c, 9, 40, 95
4, 108960, Note_on_c, 9, 40, 95
4, 109440, Note_off_c, 9, 40, 95
4, 109440, Note_on_c, 9, 49, 95
4, 110400, Note_off_c, 9, 49, 95
4, 110400, Note_on_c, 9, 49, 95
4, 110400, Note_on_c, 9, 40, 95
4, 111360, Note_off_c, 9, 49, 95
4, 111360, Note_off_c, 9, 40, 95
4, 111360, Note_on_c, 9, 49, 95
4, 111360, Note_on_c, 9, 36, 95
4, 112320, Note_off_c, 9, 49, 95
4, 112320, Note_off_c, 9, 36, 95
4, 112320, Note_on_c, 9, 49, 95
4, 112320, Note_on_c, 9, 40, 95
4, 112800, Note_off_c, 9, 49, 95
4, 112800, Note_off_c, 9, 40, 95
4, 112800, Note_on_c, 9, 40, 95
4, 113280, Note_off_c, 9, 40, 95
4, 113280, Note_on_c, 9, 49, 95
4, 114240, Note_off_c, 9, 49, 95
4, 114240, Note_on_c, 9, 49, 95
4, 114240, Note_on_c, 9, 40, 95
4, 115200, Note_off_c, 9, 49, 95
4, 115200, Note_off_c, 9, 40, 95
4, 115200, Note_on_c, 9, 49, 95
4, 115200, Note_on_c, 9, 36, 95
4, 116160, Note_off_c, 9, 49, 95
4, 116160, Note_off_c, 9, 36, 95
4, 116160, Note_on_c, 9, 49, 95
4, 116160, Note_on_c, 9, 40, 95
4, 116640, Note_off_c, 9, 49, 95
4, 116640, Note_off_c, 9, 40, 95
4, 116640, Note_on_c, 9, 40, 95
4, 117120, Note_off_c, 9, 40, 95
4, 117120, Note_on_c, 9, 49, 95
4, 118080, Note_off_c, 9, 49, 95
4, 118080, Note_on_c, 9, 49, 95
4, 118080, Note_on_c, 9, 40, 95
4, 119040, Note_off_c, 9, 49, 95
4, 119040, Note_off_c, 9, 40, 95
4, 119040, Note_on_c, 9, 49, 95
4, 119040, Note_on_c, 9, 36, 95
4, 120000, Note_off_c, 9, 49, 95
4, 120000, Note_off_c, 9, 36, 95
4, 120000, Note_on_c, 9, 49, 95
4, 120000, Note_on_c, 9, 40, 95
4, 120480, Note_off_c, 9, 49, 95
4, 120480, Note_off_c, 9, 40, 95
4, 120480, Note_on_c, 9, 40, 95
4, 120960, Note_off_c, 9, 40, 95
4, 120960, Note_on_c, 9, 49, 95
4, 121920, Note_off_c, 9, 49, 95
4, 121920, Note_on_c, 9, 49, 95
4, 121920, Note_on_c, 9, 40, 95
4, 122880, Note_off_c, 9, 49, 95
4, 122880, Note_off_c, 9, 40, 95
4, 122880, Note_on_c, 9, 49, 95
4, 122880, Note_on_c, 9, 36, 95
4, 123840, Note_off_c, 9, 49, 95
4, 123840, Note_off_c, 9, 36, 95
4, 123840, Note_on_c, 9, 49, 95
4, 123840, Note_on_c, 9, 40, 95
4, 124320, Note_off_c, 9, 49, 95
4, 124320, Note_off_c, 9, 40, 95
4, 124320, Note_on_c, 9, 40, 95
4, 124800, Note_off_c, 9, 40, 95
4, 124800, Note_on_c, 9, 49, 95
4, 125760, Note_off_c, 9, 49, 95
4, 125760, Note_on_c, 9, 49, 95
4, 125760, Note_on_c, 9, 40, 95
4, 126720, Note_off_c, 9, 49, 95
4, 126720, Note_off_c, 9, 40, 95
4, 126720, Note_on_c, 9, 49, 95
4, 126720, Note_on_c, 9, 36, 95
4, 127680, Note_off_c, 9, 49, 95
4, 127680, Note_off_c, 9, 36, 95
4, 127680, Note_on_c, 9, 49, 95
4, 127680, Note_on_c, 9, 40, 95
4, 128160, Note_off_c, 9, 49, 95
4, 128160, Note_off_c, 9, 40, 95
4, 128160, Note_on_c, 9, 40, 95
4, 128640, Note_off_c, 9, 40, 95
4, 128640, Note_on_c, 9, 49, 95
4, 129600, Note_off_c, 9, 49, 95
4, 129600, Note_on_c, 9, 49, 95
4, 129600, Note_on_c, 9, 40, 95
4, 130560, Note_off_c, 9, 49, 95
4, 130560, Note_off_c, 9, 40, 95
4, 130560, Note_on_c, 9, 49, 95
4, 130560, Note_on_c, 9, 40, 95
4, 131520, Note_off_c, 9, 49, 95
4, 131520, Note_off_c, 9, 40, 95
4, 137280, Note_on_c, 9, 40, 95
4, 138240, Note_off_c, 9, 40, 95
4, 138240, Note_on_c, 9, 49, 95
4, 138240, Note_on_c, 9, 36, 95
4, 139200, Note_off_c, 9, 49, 95
4, 139200, Note_off_c, 9, 36, 95
4, 139200, Note_on_c, 9, 49, 95
4, 139200, Note_on_c, 9, 40, 95
4, 139680, Note_off_c, 9, 49, 95
4, 139680, Note_off_c, 9, 40, 95
4, 139680, Note_on_c, 9, 40, 95
4, 140160, Note_off_c, 9, 40, 95
4, 140160, Note_on_c, 9, 49, 95
4, 141120, Note_off_c, 9, 49, 95
4, 141120, Note_on_c, 9, 49, 95
4, 141120, Note_on_c, 9, 40, 95
4, 142080, Note_off_c, 9, 49, 95
4, 142080, Note_off_c, 9, 40, 95
4, 142080, Note_on_c, 9, 49, 95
4, 142080, Note_on_c, 9, 36, 95
4, 143040, Note_off_c, 9, 49, 95
4, 143040, Note_off_c, 9, 36, 95
4, 143040, Note_on_c, 9, 49, 95
4, 143040, Note_on_c, 9, 40, 95
4, 143520, Note_off_c, 9, 49, 95
4, 143520, Note_off_c, 9, 40, 95
4, 143520, Note_on_c, 9, 40, 95
4, 144000, Note_off_c, 9, 40, 95
4, 144000, Note_on_c, 9, 49, 95
4, 144960, Note_off_c, 9, 49, 95
4, 144960, Note_on_c, 9, 49, 95
4, 144960, Note_on_c, 9, 40, 95
4, 145920, Note_off_c, 9, 49, 95
4, 145920, Note_off_c, 9, 40, 95
4, 145920, Note_on_c, 9, 49, 95
4, 145920, Note_on_c, 9, 36, 95
4, 146880, Note_off_c, 9, 49, 95
4, 146880, Note_off_c, 9, 36, 95
4, 146880, Note_on_c, 9, 49, 95
4, 146880, Note_on_c, 9, 40, 95
4, 147360, Note_off_c, 9, 49, 95
4, 147360, Note_off_c, 9, 40, 95
4, 147360, Note_on_c, 9, 40, 95
4, 147840, Note_off_c, 9, 40, 95
4, 147840, Note_on_c, 9, 49, 95
4, 148800, Note_off_c, 9, 49, 95
4, 148800, Note_on_c, 9, 49, 95
4, 148800, Note_on_c, 9, 40, 95
4, 149760, Note_off_c, 9, 49, 95
4, 149760, Note_off_c, 9, 40, 95
4, 149760, Note_on_c, 9, 49, 95
4, 149760, Note_on_c, 9, 36, 95
4, 150720, Note_off_c, 9, 49, 95
4, 150720, Note_off_c, 9, 36, 95
4, 150720, Note_on_c, 9, 49, 95
4, 150720, Note_on_c, 9, 40, 95
4, 151200, Note_off_c, 9, 49, 95
4, 151200, Note_off_c, 9, 40, 95
4, 151200, Note_on_c, 9, 40, 95
4, 151680, Note_off_c, 9, 40, 95
4, 151680, Note_on_c, 9, 49, 95
4, 152640, Note_off_c, 9, 49, 95
4, 152640, Note_on_c, 9, 49, 95
4, 152640, Note_on_c, 9, 40, 95
4, 153600, Note_off_c, 9, 49, 95
4, 153600, Note_off_c, 9, 40, 95
4, 153600, Note_on_c, 9, 49, 95
4, 153600, Note_on_c, 9, 36, 95
4, 154560, Note_off_c, 9, 49, 95
4, 154560, Note_off_c, 9, 36, 95
4, 154560, Note_on_c, 9, 49, 95
4, 154560, Note_on_c, 9, 40, 95
4, 155040, Note_off_c, 9, 49, 95
4, 155040, Note_off_c, 9, 40, 95
4, 155040, Note_on_c, 9, 40, 95
4, 155520, Note_off_c, 9, 40, 95
4, 155520, Note_on_c, 9, 49, 95
4, 156480, Note_off_c, 9, 49, 95
4, 156480, Note_on_c, 9, 49, 95
4, 156480, Note_on_c, 9, 40, 95
4, 157440, Note_off_c, 9, 49, 95
4, 157440, Note_off_c, 9, 40, 95
4, 157440, Note_on_c, 9, 49, 95
4, 157440, Note_on_c, 9, 36, 95
4, 158400, Note_off_c, 9, 49, 95
4, 158400, Note_off_c, 9, 36, 95
4, 158400, Note_on_c, 9, 49, 95
4, 158400, Note_on_c, 9, 40, 95
4, 158880, Note_off_c, 9, 49, 95
4, 158880, Note_off_c, 9, 40, 95
4, 158880, Note_on_c, 9, 40, 95
4, 159360, Note_off_c, 9, 40, 95
4, 159360, Note_on_c, 9, 49, 95
4, 160320, Note_off_c, 9, 49, 95
4, 160320, Note_on_c, 9, 49, 95
4, 160320, Note_on_c, 9, 40, 95
4, 161280, Note_off_c, 9, 49, 95
4, 161280, Note_off_c, 9, 40, 95
4, 161280, Note_on_c, 9, 49, 95
4, 161280, Note_on_c, 9, 36, 95
4, 162240, Note_off_c, 9, 49, 95
4, 162240, Note_off_c, 9, 36, 95
4, 162240, Note_on_c, 9, 49, 95
4, 162240, Note_on_c, 9, 40, 95
4, 162720, Note_off_c, 9, 49, 95
4, 162720, Note_off_c, 9, 40, 95
4, 162720, Note_on_c, 9, 40, 95
4, 163200, Note_off_c, 9, 40, 95
4, 163200, Note_on_c, 9, 49, 95
4, 164160, Note_off_c, 9, 49, 95
4, 164160, Note_on_c, 9, 49, 95
4, 164160, Note_on_c, 9, 40, 95
4, 165120, Note_off_c, 9, 49, 95
4, 165120, Note_off_c, 9, 40, 95
4, 165120, Note_on_c, 9, 49, 95
4, 165120, Note_on_c, 9, 36, 95
4, 166080, Note_off_c, 9, 49, 95
4, 166080, Note_off_c, 9, 36, 95
4, 166080, Note_on_c, 9, 49, 95
4, 166080, Note_on_c, 9, 40, 95
4, 166560, Note_off_c, 9, 49, 95
4, 166560, Note_off_c, 9, 40, 95
4, 166560, Note_on_c, 9, 40, 95
4, 167040, Note_off_c, 9, 40, 95
4, 167040, Note_on_c, 9, 49, 95
4, 168000, Note_off_c, 9, 49, 95
4, 168000, Note_on_c, 9, 49, 95
4, 168000, Note_on_c, 9, 40, 95
4, 168960, Note_off_c, 9, 49, 95
4, 168960, Note_off_c, 9, 40, 95
4, 168960, Note_on_c, 9, 49, 95
4, 168960, Note_on_c, 9, 36, 95
4, 169920, Note_off_c, 9, 49, 95
4, 169920, Note_off_c, 9, 36, 95
4, 169920, Note_on_c, 9, 49, 95
4, 169920, Note_on_c, 9, 40, 95
4, 170400, Note_off_c, 9, 49, 95
4, 170400, Note_off_c, 9, 40, 95
4, 170400, Note_on_c, 9, 40, 95
4, 170880, Note_off_c, 9, 40, 95
4, 170880, Note_on_c, 9, 49, 95
4, 171840, Note_off_c, 9, 49, 95
4, 171840, Note_on_c, 9, 49, 95
4, 171840, Note_on_c, 9, 40, 95
4, 172800, Note_off_c, 9, 49, 95
4, 172800, Note_off_c, 9, 40, 95
4, 172800, Note_on_c, 9, 49, 95
4, 172800, Note_on_c, 9, 36, 95
4, 173760, Note_off_c, 9, 49, 95
4, 173760, Note_off_c, 9, 36, 95
4, 173760, Note_on_c, 9, 49, 95
4, 173760, Note_on_c, 9, 40, 95
4, 174240, Note_off_c, 9, 49, 95
4, 174240, Note_off_c, 9, 40, 95
4, 174240, Note_on_c, 9, 40, 95
4, 174720, Note_off_c, 9, 40, 95
4, 174720, Note_on_c, 9, 49, 95
4, 175680, Note_off_c, 9, 49, 95
4, 175680, Note_on_c, 9, 49, 95
4, 175680, Note_on_c, 9, 40, 95
4, 176640, Note_off_c, 9, 49, 95
4, 176640, Note_off_c, 9, 40, 95
4, 176640, Note_on_c, 9, 49, 95
4, 176640, Note_on_c, 9, 36, 95
4, 177600, Note_off_c, 9, 49, 95
4, 177600, Note_off_c, 9, 36, 95
4, 177600, Note_on_c, 9, 49, 95
4, 177600, Note_on_c, 9, 40, 95
4, 178080, Note_off_c, 9, 49, 95
4, 178080, Note_off_c, 9, 40, 95
4, 178080, Note_on_c, 9, 40, 95
4, 178560, Note_off_c, 9, 40, 95
4, 178560, Note_on_c, 9, 49, 95
4, 179520, Note_off_c, 9, 49, 95
4, 179520, Note_on_c, 9, 49, 95
4, 179520, Note_on_c, 9, 40, 95
4, 180480, Note_off_c, 9, 49, 95
4, 180480, Note_off_c, 9, 40, 95
4, 180480, Note_on_c, 9, 49, 95
4, 180480, Note_on_c, 9, 36, 95
4, 181440, Note_off_c, 9, 49, 95
4, 181440, Note_off_c, 9, 36, 95
4, 181440, Note_on_c, 9, 49, 95
4, 181440, Note_on_c, 9, 40, 95
4, 181920, Note_off_c, 9, 49, 95
4, 181920, Note_off_c, 9, 40, 95
4, 181920, Note_on_c, 9, 40, 95
4, 182400, Note_off_c, 9, 40, 95
4, 182400, Note_on_c, 9, 49, 95
4, 183360, Note_off_c, 9, 49, 95
4, 183360, Note_on_c, 9, 49, 95
4, 183360, Note_on_c, 9, 40, 95
4, 184320, Note_off_c, 9, 49, 95
4, 184320, Note_off_c, 9, 40, 95
4, 184320, Note_on_c, 9, 49, 95
4, 184320, Note_on_c, 9, 36, 95
4, 185280, Note_off_c, 9, 49, 95
4, 185280, Note_off_c, 9, 36, 95
4, 185280, Note_on_c, 9, 49, 95
4, 185280, Note_on_c, 9, 40, 95
4, 185760, Note_off_c, 9, 49, 95
4, 185760, Note_off_c, 9, 40, 95
4, 185760, Note_on_c, 9, 40, 95
4, 186240, Note_off_c, 9, 40, 95
4, 186240, Note_on_c, 9, 49, 95
4, 187200, Note_off_c, 9, 49, 95
4, 187200, Note_on_c, 9, 49, 95
4, 187200, Note_on_c, 9, 40, 95
4, 188160, Note_off_c, 9, 49, 95
4, 188160, Note_off_c, 9, 40, 95
4, 188160, Note_on_c, 9, 49, 95
4, 188160, Note_on_c, 9, 36, 95
4, 189120, Note_off_c, 9, 49, 95
4, 189120, Note_off_c, 9, 36, 95
4, 189120, Note_on_c, 9, 49, 95
4, 189120, Note_on_c, 9, 40, 95
4, 189600, Note_off_c, 9, 49, 95
4, 189600, Note_off_c, 9, 40, 95
4, 189600, Note_on_c, 9, 40, 95
4, 190080, Note_off_c, 9, 40, 95
4, 190080, Note_on_c, 9, 49, 95
4, 191040, Note_off_c, 9, 49, 95
4, 191040, Note_on_c, 9, 49, 95
4, 191040, Note_on_c, 9, 40, 95
4, 192000, Note_off_c, 9, 49, 95
4, 192000, Note_off_c, 9, 40, 95
4, 192000, Note_on_c, 9, 49, 95
4, 192000, Note_on_c, 9, 40, 95
4, 192960, Note_off_c, 9, 49, 95
4, 192960, Note_off_c, 9, 40, 95
4, 198720, Note_on_c, 9, 40, 95
4, 199680, Note_off_c, 9, 40, 95
4, 199680, Note_on_c, 9, 49, 95
4, 199680, Note_on_c, 9, 36, 95
4, 200640, Note_off_c, 9, 49, 95
4, 200640, Note_off_c, 9, 36, 95
4, 200640, Note_on_c, 9, 49, 95
4, 200640, Note_on_c, 9, 40, 95
4, 201120, Note_off_c, 9, 49, 95
4, 201120, Note_off_c, 9, 40, 95
4, 201120, Note_on_c, 9, 40, 95
4, 201600, Note_off_c, 9, 40, 95
4, 201600, Note_on_c, 9, 49, 95
4, 202560, Note_off_c, 9, 49, 95
4, 202560, Note_on_c, 9, 49, 95
4, 202560, Note_on_c, 9, 40, 95
4, 203520, Note_off_c, 9, 49, 95
4, 203520, Note_off_c, 9, 40, 95
4, 203520, Note_on_c, 9, 49, 95
4, 203520, Note_on_c, 9, 36, 95
4, 204480, Note_off_c, 9, 49, 95
4, 204480, Note_off_c, 9, 36, 95
4, 204480, Note_on_c, 9, 49, 95
4, 204480, Note_on_c, 9, 40, 95
4, 204960, Note_off_c, 9, 49, 95
4, 204960, Note_off_c, 9, 40, 95
4, 204960, Note_on_c, 9, 40, 95
4, 205440, Note_off_c, 9, 40, 95
4, 205440, Note_on_c, 9, 49, 95
4, 206400, Note_off_c, 9, 49, 95
4, 206400, Note_on_c, 9, 49, 95
4, 206400, Note_on_c, 9, 40, 95
4, 207360, Note_off_c, 9, 49, 95
4, 207360, Note_off_c, 9, 40, 95
4, 207360, Note_on_c, 9, 49, 95
4, 207360, Note_on_c, 9, 36, 95
4, 208320, Note_off_c, 9, 49, 95
4, 208320, Note_off_c, 9, 36, 95
4, 208320, Note_on_c, 9, 49, 95
4, 208320, Note_on_c, 9, 40, 95
4, 208800, Note_off_c, 9, 49, 95
4, 208800, Note_off_c, 9, 40, 95
4, 208800, Note_on_c, 9, 40, 95
4, 209280, Note_off_c, 9, 40, 95
4, 209280, Note_on_c, 9, 49, 95
4, 210240, Note_off_c, 9, 49, 95
4, 210240, Note_on_c, 9, 49, 95
4, 210240, Note_on_c, 9, 40, 95
4, 211200, Note_off_c, 9, 49, 95
4, 211200, Note_off_c, 9, 40, 95
4, 211200, Note_on_c, 9, 49, 95
4, 211200, Note_on_c, 9, 36, 95
4, 212160, Note_off_c, 9, 49, 95
4, 212160, Note_off_c, 9, 36, 95
4, 212160, Note_on_c, 9, 49, 95
4, 212160, Note_on_c, 9, 40, 95
4, 212640, Note_off_c, 9, 49, 95
4, 212640, Note_off_c, 9, 40, 95
4, 212640, Note_on_c, 9, 40, 95
4, 213120, Note_off_c, 9, 40, 95
4, 213120, Note_on_c, 9, 49, 95
4, 214080, Note_off_c, 9, 49, 95
4, 214080, Note_on_c, 9, 49, 95
4, 214080, Note_on_c, 9, 40, 95
4, 215040, Note_off_c, 9, 49, 95
4, 215040, Note_off_c, 9, 40, 95
4, 215040, Note_on_c, 9, 49, 95
4, 215040, Note_on_c, 9, 36, 95
4, 216000, Note_off_c, 9, 49, 95
4, 216000, Note_off_c, 9, 36, 95
4, 216000, Note_on_c, 9, 49, 95
4, 216000, Note_on_c, 9, 40, 95
4, 216480, Note_off_c, 9, 49, 95
4, 216480, Note_off_c, 9, 40, 95
4, 216480, Note_on_c, 9, 40, 95
4, 216960, Note_off_c, 9, 40, 95
4, 216960, Note_on_c, 9, 49, 95
4, 217920, Note_off_c, 9, 49, 95
4, 217920, Note_on_c, 9, 49, 95
4, 217920, Note_on_c, 9, 40, 95
4, 218880, Note_off_c, 9, 49, 95
4, 218880, Note_off_c, 9, 40, 95
4, 218880, Note_on_c, 9, 49, 95
4, 218880, Note_on_c, 9, 36, 95
4, 219840, Note_off_c, 9, 49, 95
4, 219840, Note_off_c, 9, 36, 95
4, 219840, Note_on_c, 9, 49, 95
4, 219840, Note_on_c, 9, 40, 95
4, 220320, Note_off_c, 9, 49, 95
4, 220320, Note_off_c, 9, 40, 95
4, 220320, Note_on_c, 9, 40, 95
4, 220800, Note_off_c, 9, 40, 95
4, 220800, Note_on_c, 9, 49, 95
4, 221760, Note_off_c, 9, 49, 95
4, 221760, Note_on_c, 9, 49, 95
4, 221760, Note_on_c, 9, 40, 95
4, 222720, Note_off_c, 9, 49, 95
4, 222720, Note_off_c, 9, 40, 95
4, 222720, Note_on_c, 9, 49, 95
4, 222720, Note_on_c, 9, 36, 95
4, 223680, Note_off_c, 9, 49, 95
4, 223680, Note_off_c, 9, 36, 95
4, 223680, Note_on_c, 9, 49, 95
4, 223680, Note_on_c, 9, 40, 95
4, 224160, Note_off_c, 9, 49, 95
4, 224160, Note_off_c, 9, 40, 95
4, 224160, Note_on_c, 9, 40, 95
4, 224640, Note_off_c, 9, 40, 95
4, 224640, Note_on_c, 9, 49, 95
4, 225600, Note_off_c, 9, 49, 95
4, 225600, Note_on_c, 9, 49, 95
4, 225600, Note_on_c, 9, 40, 95
4, 226560, Note_off_c, 9, 49, 95
4, 226560, Note_off_c, 9, 40, 95
4, 226560, Note_on_c, 9, 49, 95
4, 226560, Note_on_c, 9, 36, 95
4, 227520, Note_off_c, 9, 49, 95
4, 227520, Note_off_c, 9, 36, 95
4, 227520, Note_on_c, 9, 49, 95
4, 227520, Note_on_c, 9, 40, 95
4, 228000, Note_off_c, 9, 49, 95
4, 228000, Note_off_c, 9, 40, 95
4, 228000, Note_on_c, 9, 40, 95
4, 228480, Note_off_c, 9, 40, 95
4, 228480, Note_on_c, 9, 49, 95
4, 229440, Note_off_c, 9, 49, 95
4, 229440, Note_on_c, 9, 49, 95
4, 229440, Note_on_c, 9, 40, 95
4, 230400, Note_off_c, 9, 49, 95
4, 230400, Note_off_c, 9, 40, 95
4, 230400, Note_on_c, 9, 49, 95
4, 230400, Note_on_c, 9, 36, 95
4, 231360, Note_off_c, 9, 49, 95
4, 231360, Note_off_c, 9, 36, 95
4, 231360, Note_on_c, 9, 49, 95
4, 231360, Note_on_c, 9, 40, 95
4, 231840, Note_off_c, 9, 49, 95
4, 231840, Note_off_c, 9, 40, 95
4, 231840, Note_on_c, 9, 40, 95
4, 232320, Note_off_c, 9, 40, 95
4, 232320, Note_on_c, 9, 49, 95
4, 233280, Note_off_c, 9, 49, 95
4, 233280, Note_on_c, 9, 49, 95
4, 233280, Note_on_c, 9, 40, 95
4, 234240, Note_off_c, 9, 49, 95
4, 234240, Note_off_c, 9, 40, 95
4, 234240, Note_on_c, 9, 49, 95
4, 234240, Note_on_c, 9, 36, 95
4, 235200, Note_off_c, 9, 49, 95
4, 235200, Note_off_c, 9, 36, 95
4, 235200, Note_on_c, 9, 49, 95
4, 235200, Note_on_c, 9, 40, 95
4, 235680, Note_off_c, 9, 49, 95
4, 235680, Note_off_c, 9, 40, 95
4, 235680, Note_on_c, 9, 40, 95
4, 236160, Note_off_c, 9, 40, 95
4, 236160, Note_on_c, 9, 49, 95
4, 237120, Note_off_c, 9, 49, 95
4, 237120, Note_on_c, 9, 49, 95
4, 237120, Note_on_c, 9, 40, 95
4, 238080, Note_off_c, 9, 49, 95
4, 238080, Note_off_c, 9, 40, 95
4, 238080, Note_on_c, 9, 49, 95
4, 238080, Note_on_c, 9, 36, 95
4, 239040, Note_off_c, 9, 49, 95
4, 239040, Note_off_c, 9, 36, 95
4, 239040, Note_on_c, 9, 49, 95
4, 239040, Note_on_c, 9, 40, 95
4, 239520, Note_off_c, 9, 49, 95
4, 239520, Note_off_c, 9, 40, 95
4, 239520, Note_on_c, 9, 40, 95
4, 240000, Note_off_c, 9, 40, 95
4, 240000, Note_on_c, 9, 49, 95
4, 240960, Note_off_c, 9, 49, 95
4, 240960, Note_on_c, 9, 49, 95
4, 240960, Note_on_c, 9, 40, 95
4, 241920, Note_off_c, 9, 49, 95
4, 241920, Note_off_c, 9, 40, 95
4, 241920, Note_on_c, 9, 49, 95
4, 241920, Note_on_c, 9, 36, 95
4, 242880, Note_off_c, 9, 49, 95
4, 242880, Note_off_c, 9, 36, 95
4, 242880, Note_on_c, 9, 49, 95
4, 242880, Note_on_c, 9, 40, 95
4, 243360, Note_off_c, 9, 49, 95
4, 243360, Note_off_c, 9, 40, 95
4, 243360, Note_on_c, 9, 40, 95
4, 243840, Note_off_c, 9, 40, 95
4, 243840, Note_on_c, 9, 49, 95
4, 244800, Note_off_c, 9, 49, 95
4, 244800, Note_on_c, 9, 49, 95
4, 244800, Note_on_c, 9, 40, 95
4, 245760, Note_off_c, 9, 49, 95
4, 245760, Note_off_c, 9, 40, 95
4, 245760, Note_on_c, 9, 49, 95
4, 245760, Note_on_c, 9, 36, 95
4, 246720, Note_off_c, 9, 49, 95
4, 246720, Note_off_c, 9, 36, 95
4, 246720, Note_on_c, 9, 49, 95
4, 246720, Note_on_c, 9, 40, 95
4, 247200, Note_off_c, 9, 49, 95
4, 247200, Note_off_c, 9, 40, 95
4, 247200, Note_on_c, 9, 40, 95
4, 247680, Note_off_c, 9, 40, 95
4, 247680, Note_on_c, 9, 49, 95
4, 248640, Note_off_c, 9, 49, 95
4, 248640, Note_on_c, 9, 49, 95
4, 248640, Note_on_c, 9, 40, 95
4, 249600, Note_off_c, 9, 49, 95
4, 249600, Note_off_c, 9, 40, 95
4, 249600, Note_on_c, 9, 49, 95
4, 249600, Note_on_c, 9, 36, 95
4, 250560, Note_off_c, 9, 49, 95
4, 250560, Note_off_c, 9, 36, 95
4, 250560, Note_on_c, 9, 49, 95
4, 250560, Note_on_c, 9, 40, 95
4, 251040, Note_off_c, 9, 49, 95
4, 251040, Note_off_c, 9, 40, 95
4, 251040, Note_on_c, 9, 40, 95
4, 251520, Note_off_c, 9, 40, 95
4, 251520, Note_on_c, 9, 49, 95
4, 252480, Note_off_c, 9, 49, 95
4, 252480, Note_on_c, 9, 49, 95
4, 252480, Note_on_c, 9, 40, 95
4, 253440, Note_off_c, 9, 49, 95
4, 253440, Note_off_c, 9, 40, 95
4, 253440, Note_on_c, 9, 49, 95
4, 253440, Note_on_c, 9, 40, 95
4, 254400, Note_off_c, 9, 49, 95
4, 254400, Note_off_c, 9, 40, 95
4, 260160, Note_on_c, 9, 40, 95
4, 261120, Note_off_c, 9, 40, 95
4, 261120, Note_on_c, 9, 49, 95
4, 261120, Note_on_c, 9, 36, 95
4, 262080, Note_off_c, 9, 49, 95
4, 262080, Note_off_c, 9, 36, 95
4, 262080, Note_on_c, 9, 49, 95
4, 262080, Note_on_c, 9, 40, 95
4, 262560, Note_off_c, 9, 49, 95
4, 262560, Note_off_c, 9, 40, 95
4, 262560, Note_on_c, 9, 40, 95
4, 263040, Note_off_c, 9, 40, 95
4, 263040, Note_on_c, 9, 49, 95
4, 264000, Note_off_c, 9, 49, 95
4, 264000, Note_on_c, 9, 49, 95
4, 264000, Note_on_c, 9, 40, 95
4, 264960, Note_off_c, 9, 49, 95
4, 264960, Note_off_c, 9, 40, 95
4, 264960, Note_on_c, 9, 49, 95
4, 264960, Note_on_c, 9, 36, 95
4, 265920, Note_off_c, 9, 49, 95
4, 265920, Note_off_c, 9, 36, 95
4, 265920, Note_on_c, 9, 49, 95
4, 265920, Note_on_c, 9, 40, 95
4, 266400, Note_off_c, 9, 49, 95
4, 266400, Note_off_c, 9, 40, 95
4, 266400, Note_on_c, 9, 40, 95
4, 266880, Note_off_c, 9, 40, 95
4, 266880, Note_on_c, 9, 49, 95
4, 267840, Note_off_c, 9, 49, 95
4, 267840, Note_on_c, 9, 49, 95
4, 267840, Note_on_c, 9, 40, 95
4, 268800, Note_off_c, 9, 49, 95
4, 268800, Note_off_c, 9, 40, 95
4, 268800, Note_on_c, 9, 49, 95
4, 268800, Note_on_c, 9, 36, 95
4, 269760, Note_off_c, 9, 49, 95
4, 269760, Note_off_c, 9, 36, 95
4, 269760, Note_on_c, 9, 49, 95
4, 269760, Note_on_c, 9, 40, 95
4, 270240, Note_off_c, 9, 49, 95
4, 270240, Note_off_c, 9, 40, 95
4, 270240, Note_on_c, 9, 40, 95
4, 270720, Note_off_c, 9, 40, 95
4, 270720, Note_on_c, 9, 49, 95
4, 271680, Note_off_c, 9, 49, 95
4, 271680, Note_on_c, 9, 49, 95
4, 271680, Note_on_c, 9, 40, 95
4, 272640, Note_off_c, 9, 49, 95
4, 272640, Note_off_c, 9, 40, 95
4, 272640, Note_on_c, 9, 49, 95
4, 272640, Note_on_c, 9, 36, 95
4, 273600, Note_off_c, 9, 49, 95
4, 273600, Note_off_c, 9, 36, 95
4, 273600, Note_on_c, 9, 49, 95
4, 273600, Note_on_c, 9, 40, 95
4, 274080, Note_off_c, 9, 49, 95
4, 274080, Note_off_c, 9, 40, 95
4, 274080, Note_on_c, 9, 40, 95
4, 274560, Note_off_c, 9, 40, 95
4, 274560, Note_on_c, 9, 49, 95
4, 275520, Note_off_c, 9, 49, 95
4, 275520, Note_on_c, 9, 49, 95
4, 275520, Note_on_c, 9, 40, 95
4, 276480, Note_off_c, 9, 49, 95
4, 276480, Note_off_c, 9, 40, 95
4, 276480, Note_on_c, 9, 49, 95
4, 276480, Note_on_c, 9, 36, 95
4, 277440, Note_off_c, 9, 49, 95
4, 277440, Note_off_c, 9, 36, 95
4, 277440, Note_on_c, 9, 49, 95
4, 277440, Note_on_c, 9, 40, 95
4, 277920, Note_off_c, 9, 49, 95
4, 277920, Note_off_c, 9, 40, 95
4, 277920, Note_on_c, 9, 40, 95
4, 278400, Note_off_c, 9, 40, 95
4, 278400, Note_on_c, 9, 49, 95
4, 279360, Note_off_c, 9, 49, 95
4, 279360, Note_on_c, 9, 49, 95
4, 279360, Note_on_c, 9, 40, 95
4, 280320, Note_off_c, 9, 49, 95
4, 280320, Note_off_c, 9, 40, 95
4, 280320, Note_on_c, 9, 49, 95
4, 280320, Note_on_c, 9, 36, 95
4, 281280, Note_off_c, 9, 49, 95
4, 281280, Note_off_c, 9, 36, 95
4, 281280, Note_on_c, 9, 49, 95
4, 281280, Note_on_c, 9, 40, 95
4, 281760, Note_off_c, 9, 49, 95
4, 281760, Note_off_c, 9, 40, 95
4, 281760, Note_on_c, 9, 40, 95
4, 282240, Note_off_c, 9, 40, 95
4, 282240, Note_on_c, 9, 49, 95
4, 283200, Note_off_c, 9, 49, 95
4, 283200, Note_on_c, 9, 49, 95
4, 283200, Note_on_c, 9, 40, 95
4, 284160, Note_off_c, 9, 49, 95
4, 284160, Note_off_c, 9, 40, 95
4, 284160, Note_on_c, 9, 49, 95
4, 284160, Note_on_c, 9, 36, 95
4, 285120, Note_off_c, 9, 49, 95
4, 285120, Note_off_c, 9, 36, 95
4, 285120, Note_on_c, 9, 49, 95
4, 285120, Note_on_c, 9, 40, 95
4, 285600, Note_off_c, 9, 49, 95
4, 285600, Note_off_c, 9, 40, 95
4, 285600, Note_on_c, 9, 40, 95
4, 286080, Note_off_c, 9, 40, 95
4, 286080, Note_on_c, 9, 49, 95
4, 287040, Note_off_c, 9, 49, 95
4, 287040, Note_on_c, 9, 49, 95
4, 287040, Note_on_c, 9, 40, 95
4, 288000, Note_off_c, 9, 49, 95
4, 288000, Note_off_c, 9, 40, 95
4, 288000, Note_on_c, 9, 49, 95
4, 288000, Note_on_c, 9, 36, 95
4, 288960, Note_off_c, 9, 49, 95
4, 288960, Note_off_c, 9, 36, 95
4, 288960, Note_on_c, 9, 49, 95
4, 288960, Note_on_c, 9, 40, 95
4, 289440, Note_off_c, 9, 49, 95
4, 289440, Note_off_c, 9, 40, 95
4, 289440, Note_on_c, 9, 40, 95
4, 289920, Note_off_c, 9, 40, 95
4, 289920, Note_on_c, 9, 49, 95
4, 290880, Note_off_c, 9, 49, 95
4, 290880, Note_on_c, 9, 49, 95
4, 290880, Note_on_c, 9, 40, 95
4, 291840, Note_off_c, 9, 49, 95
4, 291840, Note_off_c, 9, 40, 95
4, 291840, Note_on_c, 9, 49, 95
4, 291840, Note_on_c, 9, 36, 95
4, 292800, Note_off_c, 9, 49, 95
4, 292800, Note_off_c, 9, 36, 95
4, 292800, Note_on_c, 9, 49, 95
4, 292800, Note_on_c, 9, 40, 95
4, 293280, Note_off_c, 9, 49, 95
4, 293280, Note_off_c, 9, 40, 95
4, 293280, Note_on_c, 9, 40, 95
4, 293760, Note_off_c, 9, 40, 95
4, 293760, Note_on_c, 9, 49, 95
4, 294720, Note_off_c, 9, 49, 95
4, 294720, Note_on_c, 9, 49, 95
4, 294720, Note_on_c, 9, 40, 95
4, 295680, Note_off_c, 9, 49, 95
4, 295680, Note_off_c, 9, 40, 95
4, 295680, Note_on_c, 9, 49, 95
4, 295680, Note_on_c, 9, 36, 95
4, 296640, Note_off_c, 9, 49, 95
4, 296640, Note_off_c, 9, 36, 95
4, 296640, Note_on_c, 9, 49, 95
4, 296640, Note_on_c, 9, 40, 95
4, 297120, Note_off_c, 9, 49, 95
4, 297120, Note_off_c, 9, 40, 95
4, 297120, Note_on_c, 9, 40, 95
4, 297600, Note_off_c, 9, 40, 95
4, 297600, Note_on_c, 9, 49, 95
4, 298560, Note_off_c, 9, 49, 95
4, 298560, Note_on_c, 9, 49, 95
4, 298560, Note_on_c, 9, 40, 95
4, 299520, Note_off_c, 9, 49, 95
4, 299520, Note_off_c, 9, 40, 95
4, 299520, Note_on_c, 9, 49, 95
4, 299520, Note_on_c, 9, 36, 95
4, 300480, Note_off_c, 9, 49, 95
4, 300480, Note_off_c, 9, 36, 95
4, 300480, Note_on_c, 9, 49, 95
4, 300480, Note_on_c, 9, 40, 95
4, 300960, Note_off_c, 9, 49, 95
4, 300960, Note_off_c, 9, 40, 95
4, 300960, Note_on_c, 9, 40, 95
4, 301440, Note_off_c, 9, 40, 95
4, 301440, Note_on_c, 9, 49, 95
4, 302400, Note_off_c, 9, 49, 95
4, 302400, Note_on_c, 9, 49, 95
4, 302400, Note_on_c, 9, 40, 95
4, 303360, Note_off_c, 9, 49, 95
4, 303360, Note_off_c, 9, 40, 95
4, 303360, Note_on_c, 9, 49, 95
4, 303360, Note_on_c, 9, 36, 95
4, 304320, Note_off_c, 9, 49, 95
4, 304320, Note_off_c, 9, 36, 95
4, 304320, Note_on_c, 9, 49, 95
4, 304320, Note_on_c, 9, 40, 95
4, 304800, Note_off_c, 9, 49, 95
4, 304800, Note_off_c, 9, 40, 95
4, 304800, Note_on_c, 9, 40, 95
4, 305280, Note_off_c, 9, 40, 95
4, 305280, Note_on_c, 9, 49, 95
4, 306240, Note_off_c, 9, 49, 95
4, 306240, Note_on_c, 9, 49, 95
4, 306240, Note_on_c, 9, 40, 95
4, 307200, Note_off_c, 9, 49, 95
4, 307200, Note_off_c, 9, 40, 95
4, 307200, Note_on_c, 9, 49, 95
4, 307200, Note_on_c, 9, 36, 95
4, 308160, Note_off_c, 9, 49, 95
4, 308160, Note_off_c, 9, 36, 95
4, 308160, Note_on_c, 9, 49, 95
4, 308160, Note_on_c, 9, 40, 95
4, 308640, Note_off_c, 9, 49, 95
4, 308640, Note_off_c, 9, 40, 95
4, 308640, Note_on_c, 9, 40, 95
4, 309120, Note_off_c, 9, 40, 95
4, 309120, Note_on_c, 9, 49, 95
4, 310080, Note_off_c, 9, 49, 95
4, 310080, Note_on_c, 9, 49, 95
4, 310080, Note_on_c, 9, 40, 95
4, 311040, Note_off_c, 9, 49, 95
4, 311040, Note_off_c, 9, 40, 95
4, 311040, Note_on_c, 9, 49, 95
4, 311040, Note_on_c, 9, 36, 95
4, 312000, Note_off_c, 9, 49, 95
4, 312000, Note_off_c, 9, 36, 95
4, 312000, Note_on_c, 9, 49, 95
4, 312000, Note_on_c, 9, 40, 95
4, 312480, Note_off_c, 9, 49, 95
4, 312480, Note_off_c, 9, 40, 95
4, 312480, Note_on_c, 9, 40, 95
4, 312960, Note_off_c, 9, 40, 95
4, 312960, Note_on_c, 9, 49, 95
4, 313920, Note_off_c, 9, 49, 95
4, 313920, Note_on_c, 9, 49, 95
4, 313920, Note_on_c, 9, 40, 95
4, 314880, Note_off_c, 9, 49, 95
4, 314880, Note_off_c, 9, 40, 95
4, 314880, Note_on_c, 9, 49, 95
4, 314880, Note_on_c, 9, 40, 95
4, 315840, Note_off_c, 9, 49, 95
4, 315840, Note_off_c, 9, 40, 95
4, 322560, Note_on_c, 9, 49, 95
4, 322560, Note_on_c, 9, 40, 95
4, 323520, Note_off_c, 9, 49, 95
4, 323520, Note_off_c, 9, 40, 95
4, 323520, End_track
0, 0, End_of_file
