0, 0, Header, 1, 9, 120
1, 0, Start_track
1, 0, Title_t, "untitled"
1, 0, SMPTE_offset, 96, 0, 3, 0, 0
1, 0, MIDI_port, 0
1, 0, System_exclusive, 5, 126, 127, 9, 1, 247
1, 0, MIDI_port, 0
1, 0, Time_signature, 4, 2, 24, 8
1, 0, Key_signature, 0, "major"
1, 0, Tempo, 545455
1, 0, Marker_t, "untitled"
1, 480, Marker_t, "General MIDI Authoring Template"
1, 480, Marker_t, "Copyright © 1996 by B Bundy"
1, 480, Marker_t, "B Bundy"
1, 480, Marker_t, "Use this template to create new GM compatiable MIDI files."
1, 480, Marker_t, "MIDI file publishers and hardware manufacturers, such as Roland Corp. and Tune 1000 have introduced more detailed conventions f"
1, 480, Marker_t, "Song Tempo should remain within the range of 30-240bpm\012"
1, 480, Marker_t, "MIDI Channel          Recommended Instrumentation\012"
1, 480, Marker_t, "1                              Piano Solo (Left & Right Hand)\012"
1, 480, Marker_t, "2                              Bass Instrument\012"
1, 480, Marker_t, "3                              Primary Accompaniment (or for Left-hand part when using split Piano parts)\012"
1, 480, Marker_t, "4                              Primary Melodic Instrument* (or for Right-hand part when using split Piano parts)\012"
1, 480, Marker_t, "5                              Secondary Accompaniment\012"
1, 480, Marker_t, "6                              Secondary Melodic Instrument\012"
1, 480, Marker_t, "7                              Alternative 1\012"
1, 480, Marker_t, "8                              Alternative 2\012"
1, 480, Marker_t, "9                              Alternative 3\012"
1, 480, Marker_t, "10                            Drums & Percussion\012"
1, 480, Marker_t, "11                           --Reserved-- \012"
1, 480, Marker_t, "12                           --Reserved--\012"
1, 480, Marker_t, "13                           --Reserved--\012"
1, 480, Marker_t, "14                           --Reserved--\012"
1, 480, Marker_t, "15                           --Reserved--\012"
1, 480, Marker_t, "16                           --Reserved--\012"
1, 480, Marker_t, "5years/Bowie......BBundy"
1, 480, End_track
2, 0, Start_track
2, 0, MIDI_port, 0
2, 122, Program_c, 0, 1
2, 123, Control_c, 0, 7, 110
2, 123, Control_c, 0, 10, 40
2, 6240, Note_on_c, 0, 67, 127
2, 6240, Note_on_c, 0, 60, 127
2, 6240, Note_on_c, 0, 64, 127
2, 6240, Control_c, 0, 64, 127
2, 6850, Note_on_c, 0, 67, 0
2, 6855, Note_on_c, 0, 60, 0
2, 6863, Note_on_c, 0, 64, 0
2, 7200, Note_on_c, 0, 60, 127
2, 7200, Note_on_c, 0, 64, 127
2, 7200, Note_on_c, 0, 57, 127
2, 7865, Note_on_c, 0, 64, 0
2, 7867, Note_on_c, 0, 60, 0
2, 7872, Note_on_c, 0, 57, 0
2, 8160, Note_on_c, 0, 62, 127
2, 8160, Note_on_c, 0, 69, 127
2, 8160, Note_on_c, 0, 66, 127
2, 8779, Note_on_c, 0, 69, 0
2, 8800, Note_on_c, 0, 66, 0
2, 8806, Note_on_c, 0, 62, 0
2, 9120, Note_on_c, 0, 65, 127
2, 9120, Note_on_c, 0, 72, 127
2, 9120, Note_on_c, 0, 69, 127
2, 9802, Note_on_c, 0, 72, 0
2, 9807, Note_on_c, 0, 65, 0
2, 9812, Note_on_c, 0, 69, 0
2, 10080, Note_on_c, 0, 64, 127
2, 10080, Note_on_c, 0, 67, 127
2, 10080, Note_on_c, 0, 60, 127
2, 10690, Note_on_c, 0, 67, 0
2, 10695, Note_on_c, 0, 60, 0
2, 10703, Note_on_c, 0, 64, 0
2, 11040, Note_on_c, 0, 64, 127
2, 11040, Note_on_c, 0, 57, 127
2, 11040, Note_on_c, 0, 60, 127
2, 11705, Note_on_c, 0, 64, 0
2, 11707, Note_on_c, 0, 60, 0
2, 11712, Note_on_c, 0, 57, 0
2, 12000, Note_on_c, 0, 62, 127
2, 12000, Note_on_c, 0, 66, 127
2, 12000, Note_on_c, 0, 69, 127
2, 12619, Note_on_c, 0, 69, 0
2, 12640, Note_on_c, 0, 66, 0
2, 12646, Note_on_c, 0, 62, 0
2, 12960, Note_on_c, 0, 65, 127
2, 12960, Note_on_c, 0, 69, 127
2, 12960, Note_on_c, 0, 72, 127
2, 13642, Note_on_c, 0, 72, 0
2, 13647, Note_on_c, 0, 65, 0
2, 13652, Note_on_c, 0, 69, 0
2, 13937, Note_on_c, 0, 60, 127
2, 13939, Note_on_c, 0, 64, 127
2, 13941, Note_on_c, 0, 67, 127
2, 14569, Note_on_c, 0, 60, 0
2, 14571, Note_on_c, 0, 67, 0
2, 14572, Note_on_c, 0, 64, 0
2, 14630, Note_on_c, 0, 67, 127
2, 14631, Note_on_c, 0, 60, 127
2, 14631, Note_on_c, 0, 64, 127
2, 14703, Note_on_c, 0, 60, 0
2, 14708, Note_on_c, 0, 64, 0
2, 14711, Note_on_c, 0, 67, 0
2, 14722, Note_on_c, 0, 67, 127
2, 14722, Note_on_c, 0, 60, 127
2, 14724, Note_on_c, 0, 64, 127
2, 14770, Note_on_c, 0, 67, 0
2, 14773, Note_on_c, 0, 60, 0
2, 14774, Note_on_c, 0, 64, 0
2, 14805, Note_on_c, 0, 59, 127
2, 14808, Note_on_c, 0, 62, 127
2, 14843, Note_on_c, 0, 62, 0
2, 14843, Note_on_c, 0, 59, 0
2, 14876, Note_on_c, 0, 57, 127
2, 14877, Note_on_c, 0, 64, 127
2, 14882, Note_on_c, 0, 60, 127
2, 15223, Note_on_c, 0, 57, 0
2, 15228, Note_on_c, 0, 60, 0
2, 15230, Note_on_c, 0, 64, 0
2, 15840, Note_on_c, 0, 69, 127
2, 15840, Note_on_c, 0, 62, 127
2, 15840, Note_on_c, 0, 66, 127
2, 16459, Note_on_c, 0, 69, 0
2, 16480, Note_on_c, 0, 66, 0
2, 16486, Note_on_c, 0, 62, 0
2, 16800, Note_on_c, 0, 65, 127
2, 16800, Note_on_c, 0, 69, 127
2, 16800, Note_on_c, 0, 72, 127
2, 17482, Note_on_c, 0, 72, 0
2, 17487, Note_on_c, 0, 65, 0
2, 17492, Note_on_c, 0, 69, 0
2, 17760, Note_on_c, 0, 48, 127
2, 17760, Note_on_c, 0, 45, 127
2, 17760, Note_on_c, 0, 52, 127
2, 17937, Note_on_c, 0, 52, 0
2, 17945, Note_on_c, 0, 45, 0
2, 17952, Note_on_c, 0, 48, 0
2, 18000, Note_on_c, 0, 48, 127
2, 18000, Note_on_c, 0, 52, 127
2, 18000, Note_on_c, 0, 45, 127
2, 18011, Note_on_c, 0, 52, 0
2, 18031, Note_on_c, 0, 48, 0
2, 18065, Note_on_c, 0, 45, 0
2, 18090, Note_on_c, 0, 45, 127
2, 18148, Note_on_c, 0, 45, 0
2, 18180, Note_on_c, 0, 47, 127
2, 18210, Note_on_c, 0, 47, 0
2, 18240, Note_on_c, 0, 52, 127
2, 18240, Note_on_c, 0, 55, 127
2, 18240, Note_on_c, 0, 48, 127
2, 18433, Note_on_c, 0, 52, 0
2, 18439, Note_on_c, 0, 48, 0
2, 18440, Note_on_c, 0, 55, 0
2, 18480, Note_on_c, 0, 52, 127
2, 18480, Note_on_c, 0, 48, 127
2, 18480, Note_on_c, 0, 55, 127
2, 18539, Note_on_c, 0, 52, 0
2, 18540, Note_on_c, 0, 55, 0
2, 18541, Note_on_c, 0, 48, 0
2, 18570, Note_on_c, 0, 48, 127
2, 18570, Note_on_c, 0, 52, 127
2, 18570, Note_on_c, 0, 55, 127
2, 18621, Note_on_c, 0, 55, 0
2, 18622, Note_on_c, 0, 52, 0
2, 18629, Note_on_c, 0, 48, 0
2, 18630, Note_on_c, 0, 47, 127
2, 18669, Note_on_c, 0, 47, 0
2, 18720, Note_on_c, 0, 52, 127
2, 18720, Note_on_c, 0, 45, 127
2, 18720, Note_on_c, 0, 48, 127
2, 18901, Note_on_c, 0, 48, 0
2, 18901, Note_on_c, 0, 45, 0
2, 18902, Note_on_c, 0, 52, 0
2, 18960, Note_on_c, 0, 45, 127
2, 18960, Note_on_c, 0, 52, 127
2, 18960, Note_on_c, 0, 48, 127
2, 19016, Note_on_c, 0, 52, 0
2, 19018, Note_on_c, 0, 48, 0
2, 19020, Note_on_c, 0, 45, 0
2, 19050, Note_on_c, 0, 48, 127
2, 19050, Note_on_c, 0, 52, 127
2, 19050, Note_on_c, 0, 45, 127
2, 19090, Note_on_c, 0, 52, 0
2, 19097, Note_on_c, 0, 48, 0
2, 19100, Note_on_c, 0, 45, 0
2, 19110, Note_on_c, 0, 47, 127
2, 19153, Note_on_c, 0, 47, 0
2, 19200, Note_on_c, 0, 48, 127
2, 19348, Note_on_c, 0, 48, 0
2, 19440, Note_on_c, 0, 52, 127
2, 19440, Note_on_c, 0, 48, 127
2, 19440, Note_on_c, 0, 55, 127
2, 19490, Note_on_c, 0, 55, 0
2, 19496, Note_on_c, 0, 48, 0
2, 19497, Note_on_c, 0, 52, 0
2, 19530, Note_on_c, 0, 47, 127
2, 19569, Note_on_c, 0, 47, 0
2, 19590, Note_on_c, 0, 45, 127
2, 19623, Note_on_c, 0, 45, 0
2, 19680, Note_on_c, 0, 47, 127
2, 19680, Note_on_c, 0, 50, 127
2, 19680, Note_on_c, 0, 43, 127
2, 19903, Note_on_c, 0, 43, 0
2, 19906, Note_on_c, 0, 50, 0
2, 19907, Note_on_c, 0, 47, 0
2, 19920, Note_on_c, 0, 47, 127
2, 19920, Note_on_c, 0, 43, 127
2, 19920, Note_on_c, 0, 50, 127
2, 19990, Note_on_c, 0, 43, 0
2, 20010, Note_on_c, 0, 43, 127
2, 20039, Note_on_c, 0, 50, 0
2, 20044, Note_on_c, 0, 47, 0
2, 20100, Note_on_c, 0, 47, 127
2, 20139, Note_on_c, 0, 47, 0
2, 20139, Note_on_c, 0, 43, 0
2, 20160, Note_on_c, 0, 52, 127
2, 20160, Note_on_c, 0, 55, 127
2, 20160, Note_on_c, 0, 48, 127
2, 20280, Note_on_c, 0, 55, 0
2, 20367, Note_on_c, 0, 48, 0
2, 20377, Note_on_c, 0, 52, 0
2, 20430, Note_on_c, 0, 52, 127
2, 20430, Note_on_c, 0, 48, 127
2, 20430, Note_on_c, 0, 55, 127
2, 20480, Note_on_c, 0, 55, 0
2, 20491, Note_on_c, 0, 52, 0
2, 20520, Note_on_c, 0, 52, 127
2, 20542, Note_on_c, 0, 52, 0
2, 20580, Note_on_c, 0, 52, 127
2, 20580, Note_on_c, 0, 55, 127
2, 20616, Note_on_c, 0, 55, 0
2, 20618, Note_on_c, 0, 48, 0
2, 20621, Note_on_c, 0, 52, 0
2, 20640, Note_on_c, 0, 62, 127
2, 20640, Note_on_c, 0, 66, 127
2, 20648, Note_on_c, 0, 69, 127
2, 20884, Note_on_c, 0, 69, 0
2, 20888, Note_on_c, 0, 66, 0
2, 20890, Note_on_c, 0, 62, 0
2, 21600, Note_on_c, 0, 50, 127
2, 21602, Note_on_c, 0, 53, 127
2, 21610, Note_on_c, 0, 57, 127
2, 21726, Note_on_c, 0, 57, 0
2, 21774, Note_on_c, 0, 53, 0
2, 21791, Note_on_c, 0, 50, 0
2, 21836, Note_on_c, 0, 50, 127
2, 21896, Note_on_c, 0, 50, 0
2, 21915, Note_on_c, 0, 50, 127
2, 21952, Note_on_c, 0, 50, 0
2, 21991, Note_on_c, 0, 52, 127
2, 22020, Note_on_c, 0, 52, 0
2, 22068, Note_on_c, 0, 53, 127
2, 22073, Note_on_c, 0, 60, 127
2, 22078, Note_on_c, 0, 57, 127
2, 22156, Note_on_c, 0, 57, 0
2, 22156, Note_on_c, 0, 60, 0
2, 22162, Note_on_c, 0, 53, 0
2, 23520, Note_on_c, 0, 60, 127
2, 23520, Note_on_c, 0, 64, 127
2, 23520, Note_on_c, 0, 57, 127
2, 24185, Note_on_c, 0, 64, 0
2, 24187, Note_on_c, 0, 60, 0
2, 24192, Note_on_c, 0, 57, 0
2, 24480, Note_on_c, 0, 66, 127
2, 24480, Note_on_c, 0, 62, 127
2, 24480, Note_on_c, 0, 69, 127
2, 25099, Note_on_c, 0, 69, 0
2, 25120, Note_on_c, 0, 66, 0
2, 25126, Note_on_c, 0, 62, 0
2, 25440, Note_on_c, 0, 69, 127
2, 25440, Note_on_c, 0, 72, 127
2, 25440, Note_on_c, 0, 65, 127
2, 26122, Note_on_c, 0, 72, 0
2, 26127, Note_on_c, 0, 65, 0
2, 26132, Note_on_c, 0, 69, 0
2, 26400, Note_on_c, 0, 64, 127
2, 26400, Note_on_c, 0, 67, 127
2, 26400, Note_on_c, 0, 60, 127
2, 27010, Note_on_c, 0, 67, 0
2, 27015, Note_on_c, 0, 60, 0
2, 27023, Note_on_c, 0, 64, 0
2, 27360, Note_on_c, 0, 60, 127
2, 27360, Note_on_c, 0, 57, 127
2, 27360, Note_on_c, 0, 64, 127
2, 28025, Note_on_c, 0, 64, 0
2, 28027, Note_on_c, 0, 60, 0
2, 28032, Note_on_c, 0, 57, 0
2, 28320, Note_on_c, 0, 69, 127
2, 28320, Note_on_c, 0, 66, 127
2, 28320, Note_on_c, 0, 62, 127
2, 28939, Note_on_c, 0, 69, 0
2, 28960, Note_on_c, 0, 66, 0
2, 28966, Note_on_c, 0, 62, 0
2, 29280, Note_on_c, 0, 69, 127
2, 29280, Note_on_c, 0, 72, 127
2, 29280, Note_on_c, 0, 65, 127
2, 29962, Note_on_c, 0, 72, 0
2, 29967, Note_on_c, 0, 65, 0
2, 29972, Note_on_c, 0, 69, 0
2, 30240, Note_on_c, 0, 64, 127
2, 30240, Note_on_c, 0, 67, 127
2, 30240, Note_on_c, 0, 60, 127
2, 30850, Note_on_c, 0, 67, 0
2, 30855, Note_on_c, 0, 60, 0
2, 30863, Note_on_c, 0, 64, 0
2, 31200, Note_on_c, 0, 64, 127
2, 31200, Note_on_c, 0, 57, 127
2, 31200, Note_on_c, 0, 60, 127
2, 31865, Note_on_c, 0, 64, 0
2, 31867, Note_on_c, 0, 60, 0
2, 31872, Note_on_c, 0, 57, 0
2, 32160, Note_on_c, 0, 62, 127
2, 32160, Note_on_c, 0, 69, 127
2, 32160, Note_on_c, 0, 66, 127
2, 32779, Note_on_c, 0, 69, 0
2, 32800, Note_on_c, 0, 66, 0
2, 32806, Note_on_c, 0, 62, 0
2, 33120, Note_on_c, 0, 69, 127
2, 33120, Note_on_c, 0, 65, 127
2, 33120, Note_on_c, 0, 72, 127
2, 33802, Note_on_c, 0, 72, 0
2, 33807, Note_on_c, 0, 65, 0
2, 33812, Note_on_c, 0, 69, 0
2, 34080, Note_on_c, 0, 60, 127
2, 34080, Note_on_c, 0, 64, 127
2, 34080, Note_on_c, 0, 67, 127
2, 34690, Note_on_c, 0, 67, 0
2, 34695, Note_on_c, 0, 60, 0
2, 34703, Note_on_c, 0, 64, 0
2, 35040, Note_on_c, 0, 57, 127
2, 35040, Note_on_c, 0, 60, 127
2, 35040, Note_on_c, 0, 64, 127
2, 35705, Note_on_c, 0, 64, 0
2, 35707, Note_on_c, 0, 60, 0
2, 35712, Note_on_c, 0, 57, 0
2, 36000, Note_on_c, 0, 66, 127
2, 36000, Note_on_c, 0, 62, 127
2, 36000, Note_on_c, 0, 69, 127
2, 36619, Note_on_c, 0, 69, 0
2, 36640, Note_on_c, 0, 66, 0
2, 36646, Note_on_c, 0, 62, 0
2, 36960, Note_on_c, 0, 69, 127
2, 36960, Note_on_c, 0, 65, 127
2, 36960, Note_on_c, 0, 72, 127
2, 37642, Note_on_c, 0, 72, 0
2, 37647, Note_on_c, 0, 65, 0
2, 37652, Note_on_c, 0, 69, 0
2, 37920, Note_on_c, 0, 60, 127
2, 37920, Note_on_c, 0, 67, 127
2, 37920, Note_on_c, 0, 64, 127
2, 38530, Note_on_c, 0, 67, 0
2, 38535, Note_on_c, 0, 60, 0
2, 38543, Note_on_c, 0, 64, 0
2, 38880, Note_on_c, 0, 60, 127
2, 38880, Note_on_c, 0, 57, 127
2, 38880, Note_on_c, 0, 64, 127
2, 39545, Note_on_c, 0, 64, 0
2, 39547, Note_on_c, 0, 60, 0
2, 39552, Note_on_c, 0, 57, 0
2, 39840, Note_on_c, 0, 69, 127
2, 39840, Note_on_c, 0, 62, 127
2, 39840, Note_on_c, 0, 66, 127
2, 40459, Note_on_c, 0, 69, 0
2, 40480, Note_on_c, 0, 66, 0
2, 40486, Note_on_c, 0, 62, 0
2, 40800, Note_on_c, 0, 72, 127
2, 40800, Note_on_c, 0, 69, 127
2, 40800, Note_on_c, 0, 65, 127
2, 41482, Note_on_c, 0, 72, 0
2, 41487, Note_on_c, 0, 65, 0
2, 41492, Note_on_c, 0, 69, 0
2, 41760, Note_on_c, 0, 64, 127
2, 41760, Note_on_c, 0, 60, 127
2, 41760, Note_on_c, 0, 67, 127
2, 42370, Note_on_c, 0, 67, 0
2, 42375, Note_on_c, 0, 60, 0
2, 42383, Note_on_c, 0, 64, 0
2, 42720, Note_on_c, 0, 57, 127
2, 42720, Note_on_c, 0, 60, 127
2, 42720, Note_on_c, 0, 64, 127
2, 43385, Note_on_c, 0, 64, 0
2, 43387, Note_on_c, 0, 60, 0
2, 43392, Note_on_c, 0, 57, 0
2, 43680, Note_on_c, 0, 62, 127
2, 43680, Note_on_c, 0, 69, 127
2, 43680, Note_on_c, 0, 66, 127
2, 44299, Note_on_c, 0, 69, 0
2, 44320, Note_on_c, 0, 66, 0
2, 44326, Note_on_c, 0, 62, 0
2, 44640, Note_on_c, 0, 72, 127
2, 44640, Note_on_c, 0, 69, 127
2, 44640, Note_on_c, 0, 65, 127
2, 45322, Note_on_c, 0, 72, 0
2, 45327, Note_on_c, 0, 65, 0
2, 45332, Note_on_c, 0, 69, 0
2, 45600, Note_on_c, 0, 67, 127
2, 45600, Note_on_c, 0, 64, 127
2, 45600, Note_on_c, 0, 60, 127
2, 46210, Note_on_c, 0, 67, 0
2, 46215, Note_on_c, 0, 60, 0
2, 46223, Note_on_c, 0, 64, 0
2, 46560, Note_on_c, 0, 57, 127
2, 46560, Note_on_c, 0, 60, 127
2, 46560, Note_on_c, 0, 64, 127
2, 47225, Note_on_c, 0, 64, 0
2, 47227, Note_on_c, 0, 60, 0
2, 47232, Note_on_c, 0, 57, 0
2, 47520, Note_on_c, 0, 62, 127
2, 47520, Note_on_c, 0, 69, 127
2, 47520, Note_on_c, 0, 66, 127
2, 48139, Note_on_c, 0, 69, 0
2, 48160, Note_on_c, 0, 66, 0
2, 48166, Note_on_c, 0, 62, 0
2, 48480, Note_on_c, 0, 72, 127
2, 48480, Note_on_c, 0, 69, 127
2, 48480, Note_on_c, 0, 65, 127
2, 49162, Note_on_c, 0, 72, 0
2, 49167, Note_on_c, 0, 65, 0
2, 49172, Note_on_c, 0, 69, 0
2, 49440, Note_on_c, 0, 67, 127
2, 49440, Note_on_c, 0, 64, 127
2, 49440, Note_on_c, 0, 60, 127
2, 50050, Note_on_c, 0, 67, 0
2, 50055, Note_on_c, 0, 60, 0
2, 50063, Note_on_c, 0, 64, 0
2, 50400, Note_on_c, 0, 57, 127
2, 50400, Note_on_c, 0, 64, 127
2, 50400, Note_on_c, 0, 60, 127
2, 51065, Note_on_c, 0, 64, 0
2, 51067, Note_on_c, 0, 60, 0
2, 51072, Note_on_c, 0, 57, 0
2, 51360, Note_on_c, 0, 62, 127
2, 51360, Note_on_c, 0, 69, 127
2, 51360, Note_on_c, 0, 66, 127
2, 51979, Note_on_c, 0, 69, 0
2, 52000, Note_on_c, 0, 66, 0
2, 52006, Note_on_c, 0, 62, 0
2, 52320, Note_on_c, 0, 65, 127
2, 52320, Note_on_c, 0, 72, 127
2, 52320, Note_on_c, 0, 69, 127
2, 53002, Note_on_c, 0, 72, 0
2, 53007, Note_on_c, 0, 65, 0
2, 53012, Note_on_c, 0, 69, 0
2, 53280, Note_on_c, 0, 60, 127
2, 53280, Note_on_c, 0, 64, 127
2, 53280, Note_on_c, 0, 67, 127
2, 53890, Note_on_c, 0, 67, 0
2, 53895, Note_on_c, 0, 60, 0
2, 53903, Note_on_c, 0, 64, 0
2, 53903, End_track
3, 0, Start_track
3, 0, MIDI_port, 0
3, 127, Program_c, 1, 32
3, 128, Control_c, 1, 7, 100
3, 128, Control_c, 1, 10, 60
3, 6240, Note_on_c, 1, 36, 127
3, 7189, Note_on_c, 1, 36, 0
3, 7190, Note_on_c, 1, 33, 127
3, 7899, Note_on_c, 1, 33, 0
3, 8160, Note_on_c, 1, 38, 127
3, 8620, Note_on_c, 1, 38, 0
3, 8850, Note_on_c, 1, 35, 127
3, 8867, Note_on_c, 1, 38, 127
3, 8889, Note_on_c, 1, 35, 0
3, 8938, Note_on_c, 1, 38, 0
3, 8956, Note_on_c, 1, 38, 127
3, 9021, Note_on_c, 1, 38, 0
3, 9037, Note_on_c, 1, 40, 127
3, 9077, Note_on_c, 1, 40, 0
3, 9112, Note_on_c, 1, 41, 127
3, 9670, Note_on_c, 1, 41, 0
3, 9784, Note_on_c, 1, 38, 127
3, 9819, Note_on_c, 1, 41, 127
3, 9831, Note_on_c, 1, 38, 0
3, 9894, Note_on_c, 1, 41, 0
3, 9913, Note_on_c, 1, 40, 127
3, 9973, Note_on_c, 1, 40, 0
3, 9992, Note_on_c, 1, 38, 127
3, 10039, Note_on_c, 1, 38, 0
3, 10072, Note_on_c, 1, 36, 127
3, 10709, Note_on_c, 1, 36, 0
3, 10773, Note_on_c, 1, 33, 127
3, 10791, Note_on_c, 1, 36, 127
3, 10810, Note_on_c, 1, 33, 0
3, 10862, Note_on_c, 1, 36, 0
3, 10884, Note_on_c, 1, 36, 127
3, 10942, Note_on_c, 1, 36, 0
3, 10957, Note_on_c, 1, 35, 127
3, 11011, Note_on_c, 1, 35, 0
3, 11033, Note_on_c, 1, 33, 127
3, 11644, Note_on_c, 1, 33, 0
3, 11728, Note_on_c, 1, 29, 127
3, 11744, Note_on_c, 1, 33, 127
3, 11760, Note_on_c, 1, 29, 0
3, 11821, Note_on_c, 1, 33, 0
3, 11842, Note_on_c, 1, 33, 127
3, 11910, Note_on_c, 1, 33, 0
3, 11919, Note_on_c, 1, 31, 127
3, 11940, Note_on_c, 1, 31, 0
3, 11999, Note_on_c, 1, 38, 127
3, 12011, Note_on_c, 1, 40, 127
3, 12025, Note_on_c, 1, 40, 0
3, 12651, Note_on_c, 1, 38, 0
3, 12684, Note_on_c, 1, 35, 127
3, 12713, Note_on_c, 1, 38, 127
3, 12738, Note_on_c, 1, 35, 0
3, 12784, Note_on_c, 1, 38, 0
3, 12800, Note_on_c, 1, 38, 127
3, 12850, Note_on_c, 1, 38, 0
3, 12871, Note_on_c, 1, 40, 127
3, 12913, Note_on_c, 1, 40, 0
3, 12948, Note_on_c, 1, 41, 127
3, 13572, Note_on_c, 1, 41, 0
3, 13640, Note_on_c, 1, 36, 127
3, 13659, Note_on_c, 1, 41, 127
3, 13679, Note_on_c, 1, 36, 0
3, 13749, Note_on_c, 1, 41, 0
3, 13756, Note_on_c, 1, 40, 127
3, 13820, Note_on_c, 1, 40, 0
3, 13839, Note_on_c, 1, 38, 127
3, 13881, Note_on_c, 1, 38, 0
3, 13918, Note_on_c, 1, 36, 127
3, 13920, Note_on_c, 1, 36, 127
3, 14310, Note_on_c, 1, 36, 0
3, 14596, Note_on_c, 1, 36, 0
3, 14627, Note_on_c, 1, 36, 127
3, 14707, Note_on_c, 1, 38, 127
3, 14711, Note_on_c, 1, 36, 0
3, 14784, Note_on_c, 1, 38, 0
3, 14785, Note_on_c, 1, 36, 127
3, 14834, Note_on_c, 1, 35, 127
3, 14843, Note_on_c, 1, 36, 0
3, 14876, Note_on_c, 1, 35, 0
3, 14880, Note_on_c, 1, 33, 127
3, 15451, Note_on_c, 1, 33, 0
3, 15542, Note_on_c, 1, 28, 127
3, 15577, Note_on_c, 1, 33, 127
3, 15588, Note_on_c, 1, 28, 0
3, 15667, Note_on_c, 1, 31, 127
3, 15668, Note_on_c, 1, 33, 0
3, 15744, Note_on_c, 1, 31, 0
3, 15748, Note_on_c, 1, 29, 127
3, 15793, Note_on_c, 1, 28, 127
3, 15798, Note_on_c, 1, 29, 0
3, 15840, Note_on_c, 1, 38, 127
3, 15846, Note_on_c, 1, 28, 0
3, 16523, Note_on_c, 1, 33, 127
3, 16524, Note_on_c, 1, 38, 0
3, 16554, Note_on_c, 1, 38, 127
3, 16558, Note_on_c, 1, 33, 0
3, 16619, Note_on_c, 1, 38, 0
3, 16640, Note_on_c, 1, 38, 127
3, 16696, Note_on_c, 1, 38, 0
3, 16715, Note_on_c, 1, 40, 127
3, 16758, Note_on_c, 1, 40, 0
3, 16800, Note_on_c, 1, 41, 127
3, 17498, Note_on_c, 1, 41, 0
3, 17509, Note_on_c, 1, 33, 127
3, 17602, Note_on_c, 1, 36, 127
3, 17607, Note_on_c, 1, 33, 0
3, 17701, Note_on_c, 1, 31, 127
3, 17705, Note_on_c, 1, 36, 0
3, 17752, Note_on_c, 1, 31, 0
3, 17760, Note_on_c, 1, 33, 127
3, 17982, Note_on_c, 1, 33, 0
3, 17991, Note_on_c, 1, 33, 127
3, 18047, Note_on_c, 1, 33, 0
3, 18059, Note_on_c, 1, 33, 127
3, 18114, Note_on_c, 1, 33, 0
3, 18148, Note_on_c, 1, 35, 127
3, 18189, Note_on_c, 1, 35, 0
3, 18223, Note_on_c, 1, 36, 127
3, 18599, Note_on_c, 1, 36, 0
3, 18718, Note_on_c, 1, 33, 127
3, 18921, Note_on_c, 1, 33, 0
3, 18945, Note_on_c, 1, 33, 127
3, 19010, Note_on_c, 1, 33, 0
3, 19033, Note_on_c, 1, 33, 127
3, 19086, Note_on_c, 1, 33, 0
3, 19114, Note_on_c, 1, 35, 127
3, 19147, Note_on_c, 1, 35, 0
3, 19183, Note_on_c, 1, 36, 127
3, 19313, Note_on_c, 1, 36, 0
3, 19382, Note_on_c, 1, 33, 127
3, 19425, Note_on_c, 1, 36, 127
3, 19439, Note_on_c, 1, 33, 0
3, 19500, Note_on_c, 1, 36, 0
3, 19521, Note_on_c, 1, 35, 127
3, 19565, Note_on_c, 1, 35, 0
3, 19602, Note_on_c, 1, 33, 127
3, 19647, Note_on_c, 1, 33, 0
3, 19673, Note_on_c, 1, 31, 127
3, 19958, Note_on_c, 1, 31, 0
3, 19998, Note_on_c, 1, 31, 127
3, 20147, Note_on_c, 1, 31, 0
3, 20179, Note_on_c, 1, 36, 127
3, 20493, Note_on_c, 1, 31, 127
3, 20498, Note_on_c, 1, 36, 0
3, 20577, Note_on_c, 1, 33, 127
3, 20579, Note_on_c, 1, 31, 0
3, 20602, Note_on_c, 1, 33, 0
3, 20664, Note_on_c, 1, 38, 127
3, 21590, Note_on_c, 1, 38, 0
3, 22280, Note_on_c, 1, 36, 127
3, 22299, Note_on_c, 1, 41, 127
3, 22319, Note_on_c, 1, 36, 0
3, 22389, Note_on_c, 1, 41, 0
3, 22396, Note_on_c, 1, 40, 127
3, 22460, Note_on_c, 1, 40, 0
3, 22479, Note_on_c, 1, 38, 127
3, 22521, Note_on_c, 1, 38, 0
3, 22558, Note_on_c, 1, 36, 127
3, 22560, Note_on_c, 1, 36, 127
3, 23236, Note_on_c, 1, 36, 0
3, 23509, Note_on_c, 1, 36, 0
3, 23510, Note_on_c, 1, 33, 127
3, 24219, Note_on_c, 1, 33, 0
3, 24480, Note_on_c, 1, 38, 127
3, 24940, Note_on_c, 1, 38, 0
3, 25170, Note_on_c, 1, 35, 127
3, 25187, Note_on_c, 1, 38, 127
3, 25209, Note_on_c, 1, 35, 0
3, 25258, Note_on_c, 1, 38, 0
3, 25276, Note_on_c, 1, 38, 127
3, 25341, Note_on_c, 1, 38, 0
3, 25357, Note_on_c, 1, 40, 127
3, 25397, Note_on_c, 1, 40, 0
3, 25432, Note_on_c, 1, 41, 127
3, 25990, Note_on_c, 1, 41, 0
3, 26104, Note_on_c, 1, 38, 127
3, 26139, Note_on_c, 1, 41, 127
3, 26151, Note_on_c, 1, 38, 0
3, 26214, Note_on_c, 1, 41, 0
3, 26233, Note_on_c, 1, 40, 127
3, 26293, Note_on_c, 1, 40, 0
3, 26312, Note_on_c, 1, 38, 127
3, 26359, Note_on_c, 1, 38, 0
3, 26392, Note_on_c, 1, 36, 127
3, 27029, Note_on_c, 1, 36, 0
3, 27093, Note_on_c, 1, 33, 127
3, 27111, Note_on_c, 1, 36, 127
3, 27130, Note_on_c, 1, 33, 0
3, 27182, Note_on_c, 1, 36, 0
3, 27204, Note_on_c, 1, 36, 127
3, 27262, Note_on_c, 1, 36, 0
3, 27277, Note_on_c, 1, 35, 127
3, 27331, Note_on_c, 1, 35, 0
3, 27353, Note_on_c, 1, 33, 127
3, 27964, Note_on_c, 1, 33, 0
3, 28048, Note_on_c, 1, 29, 127
3, 28064, Note_on_c, 1, 33, 127
3, 28080, Note_on_c, 1, 29, 0
3, 28141, Note_on_c, 1, 33, 0
3, 28162, Note_on_c, 1, 33, 127
3, 28230, Note_on_c, 1, 33, 0
3, 28239, Note_on_c, 1, 31, 127
3, 28260, Note_on_c, 1, 31, 0
3, 28319, Note_on_c, 1, 38, 127
3, 28331, Note_on_c, 1, 40, 127
3, 28345, Note_on_c, 1, 40, 0
3, 28971, Note_on_c, 1, 38, 0
3, 29004, Note_on_c, 1, 35, 127
3, 29033, Note_on_c, 1, 38, 127
3, 29058, Note_on_c, 1, 35, 0
3, 29104, Note_on_c, 1, 38, 0
3, 29120, Note_on_c, 1, 38, 127
3, 29170, Note_on_c, 1, 38, 0
3, 29191, Note_on_c, 1, 40, 127
3, 29233, Note_on_c, 1, 40, 0
3, 29268, Note_on_c, 1, 41, 127
3, 29892, Note_on_c, 1, 41, 0
3, 29960, Note_on_c, 1, 36, 127
3, 29979, Note_on_c, 1, 41, 127
3, 29999, Note_on_c, 1, 36, 0
3, 30069, Note_on_c, 1, 41, 0
3, 30076, Note_on_c, 1, 40, 127
3, 30140, Note_on_c, 1, 40, 0
3, 30159, Note_on_c, 1, 38, 127
3, 30201, Note_on_c, 1, 38, 0
3, 30238, Note_on_c, 1, 36, 127
3, 30240, Note_on_c, 1, 36, 127
3, 30630, Note_on_c, 1, 36, 0
3, 30916, Note_on_c, 1, 36, 0
3, 30947, Note_on_c, 1, 36, 127
3, 31027, Note_on_c, 1, 38, 127
3, 31031, Note_on_c, 1, 36, 0
3, 31104, Note_on_c, 1, 38, 0
3, 31105, Note_on_c, 1, 36, 127
3, 31154, Note_on_c, 1, 35, 127
3, 31163, Note_on_c, 1, 36, 0
3, 31196, Note_on_c, 1, 35, 0
3, 31200, Note_on_c, 1, 33, 127
3, 31771, Note_on_c, 1, 33, 0
3, 31862, Note_on_c, 1, 28, 127
3, 31897, Note_on_c, 1, 33, 127
3, 31908, Note_on_c, 1, 28, 0
3, 31987, Note_on_c, 1, 31, 127
3, 31988, Note_on_c, 1, 33, 0
3, 32064, Note_on_c, 1, 31, 0
3, 32068, Note_on_c, 1, 29, 127
3, 32113, Note_on_c, 1, 28, 127
3, 32118, Note_on_c, 1, 29, 0
3, 32160, Note_on_c, 1, 36, 127
3, 32166, Note_on_c, 1, 28, 0
3, 33109, Note_on_c, 1, 36, 0
3, 33110, Note_on_c, 1, 33, 127
3, 33819, Note_on_c, 1, 33, 0
3, 34080, Note_on_c, 1, 36, 127
3, 35029, Note_on_c, 1, 36, 0
3, 35030, Note_on_c, 1, 33, 127
3, 35739, Note_on_c, 1, 33, 0
3, 36000, Note_on_c, 1, 38, 127
3, 36460, Note_on_c, 1, 38, 0
3, 36690, Note_on_c, 1, 35, 127
3, 36707, Note_on_c, 1, 38, 127
3, 36729, Note_on_c, 1, 35, 0
3, 36778, Note_on_c, 1, 38, 0
3, 36796, Note_on_c, 1, 38, 127
3, 36861, Note_on_c, 1, 38, 0
3, 36877, Note_on_c, 1, 40, 127
3, 36917, Note_on_c, 1, 40, 0
3, 36952, Note_on_c, 1, 41, 127
3, 37510, Note_on_c, 1, 41, 0
3, 37624, Note_on_c, 1, 38, 127
3, 37659, Note_on_c, 1, 41, 127
3, 37671, Note_on_c, 1, 38, 0
3, 37734, Note_on_c, 1, 41, 0
3, 37753, Note_on_c, 1, 40, 127
3, 37813, Note_on_c, 1, 40, 0
3, 37832, Note_on_c, 1, 38, 127
3, 37879, Note_on_c, 1, 38, 0
3, 37912, Note_on_c, 1, 36, 127
3, 38549, Note_on_c, 1, 36, 0
3, 38613, Note_on_c, 1, 33, 127
3, 38631, Note_on_c, 1, 36, 127
3, 38650, Note_on_c, 1, 33, 0
3, 38702, Note_on_c, 1, 36, 0
3, 38724, Note_on_c, 1, 36, 127
3, 38782, Note_on_c, 1, 36, 0
3, 38797, Note_on_c, 1, 35, 127
3, 38851, Note_on_c, 1, 35, 0
3, 38873, Note_on_c, 1, 33, 127
3, 39484, Note_on_c, 1, 33, 0
3, 39568, Note_on_c, 1, 29, 127
3, 39584, Note_on_c, 1, 33, 127
3, 39600, Note_on_c, 1, 29, 0
3, 39661, Note_on_c, 1, 33, 0
3, 39682, Note_on_c, 1, 33, 127
3, 39750, Note_on_c, 1, 33, 0
3, 39759, Note_on_c, 1, 31, 127
3, 39780, Note_on_c, 1, 31, 0
3, 39839, Note_on_c, 1, 38, 127
3, 39851, Note_on_c, 1, 40, 127
3, 39865, Note_on_c, 1, 40, 0
3, 40491, Note_on_c, 1, 38, 0
3, 40524, Note_on_c, 1, 35, 127
3, 40553, Note_on_c, 1, 38, 127
3, 40578, Note_on_c, 1, 35, 0
3, 40624, Note_on_c, 1, 38, 0
3, 40640, Note_on_c, 1, 38, 127
3, 40690, Note_on_c, 1, 38, 0
3, 40711, Note_on_c, 1, 40, 127
3, 40753, Note_on_c, 1, 40, 0
3, 40788, Note_on_c, 1, 41, 127
3, 41412, Note_on_c, 1, 41, 0
3, 41480, Note_on_c, 1, 36, 127
3, 41499, Note_on_c, 1, 41, 127
3, 41519, Note_on_c, 1, 36, 0
3, 41589, Note_on_c, 1, 41, 0
3, 41596, Note_on_c, 1, 40, 127
3, 41660, Note_on_c, 1, 40, 0
3, 41679, Note_on_c, 1, 38, 127
3, 41721, Note_on_c, 1, 38, 0
3, 41758, Note_on_c, 1, 36, 127
3, 41760, Note_on_c, 1, 36, 127
3, 42436, Note_on_c, 1, 36, 0
3, 42709, Note_on_c, 1, 36, 0
3, 42710, Note_on_c, 1, 33, 127
3, 43419, Note_on_c, 1, 33, 0
3, 43680, Note_on_c, 1, 38, 127
3, 44140, Note_on_c, 1, 38, 0
3, 44370, Note_on_c, 1, 35, 127
3, 44387, Note_on_c, 1, 38, 127
3, 44409, Note_on_c, 1, 35, 0
3, 44458, Note_on_c, 1, 38, 0
3, 44476, Note_on_c, 1, 38, 127
3, 44541, Note_on_c, 1, 38, 0
3, 44557, Note_on_c, 1, 40, 127
3, 44597, Note_on_c, 1, 40, 0
3, 44632, Note_on_c, 1, 41, 127
3, 45190, Note_on_c, 1, 41, 0
3, 45304, Note_on_c, 1, 38, 127
3, 45339, Note_on_c, 1, 41, 127
3, 45351, Note_on_c, 1, 38, 0
3, 45414, Note_on_c, 1, 41, 0
3, 45433, Note_on_c, 1, 40, 127
3, 45493, Note_on_c, 1, 40, 0
3, 45512, Note_on_c, 1, 38, 127
3, 45559, Note_on_c, 1, 38, 0
3, 45592, Note_on_c, 1, 36, 127
3, 46229, Note_on_c, 1, 36, 0
3, 46293, Note_on_c, 1, 33, 127
3, 46311, Note_on_c, 1, 36, 127
3, 46330, Note_on_c, 1, 33, 0
3, 46382, Note_on_c, 1, 36, 0
3, 46404, Note_on_c, 1, 36, 127
3, 46462, Note_on_c, 1, 36, 0
3, 46477, Note_on_c, 1, 35, 127
3, 46531, Note_on_c, 1, 35, 0
3, 46553, Note_on_c, 1, 33, 127
3, 47164, Note_on_c, 1, 33, 0
3, 47248, Note_on_c, 1, 29, 127
3, 47264, Note_on_c, 1, 33, 127
3, 47280, Note_on_c, 1, 29, 0
3, 47341, Note_on_c, 1, 33, 0
3, 47362, Note_on_c, 1, 33, 127
3, 47430, Note_on_c, 1, 33, 0
3, 47439, Note_on_c, 1, 31, 127
3, 47460, Note_on_c, 1, 31, 0
3, 47519, Note_on_c, 1, 38, 127
3, 47531, Note_on_c, 1, 40, 127
3, 47545, Note_on_c, 1, 40, 0
3, 48171, Note_on_c, 1, 38, 0
3, 48204, Note_on_c, 1, 35, 127
3, 48233, Note_on_c, 1, 38, 127
3, 48258, Note_on_c, 1, 35, 0
3, 48304, Note_on_c, 1, 38, 0
3, 48320, Note_on_c, 1, 38, 127
3, 48370, Note_on_c, 1, 38, 0
3, 48391, Note_on_c, 1, 40, 127
3, 48433, Note_on_c, 1, 40, 0
3, 48468, Note_on_c, 1, 41, 127
3, 49092, Note_on_c, 1, 41, 0
3, 49160, Note_on_c, 1, 36, 127
3, 49179, Note_on_c, 1, 41, 127
3, 49199, Note_on_c, 1, 36, 0
3, 49269, Note_on_c, 1, 41, 0
3, 49276, Note_on_c, 1, 40, 127
3, 49340, Note_on_c, 1, 40, 0
3, 49359, Note_on_c, 1, 38, 127
3, 49401, Note_on_c, 1, 38, 0
3, 49438, Note_on_c, 1, 36, 127
3, 49440, Note_on_c, 1, 36, 127
3, 49830, Note_on_c, 1, 36, 0
3, 50116, Note_on_c, 1, 36, 0
3, 50147, Note_on_c, 1, 36, 127
3, 50227, Note_on_c, 1, 38, 127
3, 50231, Note_on_c, 1, 36, 0
3, 50304, Note_on_c, 1, 38, 0
3, 50305, Note_on_c, 1, 36, 127
3, 50354, Note_on_c, 1, 35, 127
3, 50363, Note_on_c, 1, 36, 0
3, 50396, Note_on_c, 1, 35, 0
3, 50400, Note_on_c, 1, 33, 127
3, 50971, Note_on_c, 1, 33, 0
3, 51062, Note_on_c, 1, 28, 127
3, 51097, Note_on_c, 1, 33, 127
3, 51108, Note_on_c, 1, 28, 0
3, 51187, Note_on_c, 1, 31, 127
3, 51188, Note_on_c, 1, 33, 0
3, 51264, Note_on_c, 1, 31, 0
3, 51268, Note_on_c, 1, 29, 127
3, 51313, Note_on_c, 1, 28, 127
3, 51318, Note_on_c, 1, 29, 0
3, 51360, Note_on_c, 1, 36, 127
3, 51366, Note_on_c, 1, 28, 0
3, 52309, Note_on_c, 1, 36, 0
3, 52310, Note_on_c, 1, 33, 127
3, 53019, Note_on_c, 1, 33, 0
3, 53280, Note_on_c, 1, 36, 127
3, 54229, Note_on_c, 1, 36, 0
3, 54229, End_track
4, 0, Start_track
4, 0, MIDI_port, 0
4, 132, Program_c, 2, 44
4, 133, Control_c, 2, 7, 100
4, 133, Control_c, 2, 10, 80
4, 17760, Note_on_c, 2, 60, 88
4, 17760, Note_on_c, 2, 57, 88
4, 17760, Note_on_c, 2, 64, 88
4, 18158, Note_on_c, 2, 57, 0
4, 18161, Note_on_c, 2, 64, 0
4, 18163, Note_on_c, 2, 60, 0
4, 18183, Note_on_c, 2, 59, 88
4, 18220, Note_on_c, 2, 59, 0
4, 18254, Note_on_c, 2, 60, 88
4, 18265, Note_on_c, 2, 64, 88
4, 18274, Note_on_c, 2, 67, 88
4, 18634, Note_on_c, 2, 67, 0
4, 18636, Note_on_c, 2, 64, 0
4, 18636, Note_on_c, 2, 60, 0
4, 18709, Note_on_c, 2, 57, 88
4, 18711, Note_on_c, 2, 60, 88
4, 18717, Note_on_c, 2, 64, 88
4, 19049, Note_on_c, 2, 64, 0
4, 19062, Note_on_c, 2, 57, 0
4, 19071, Note_on_c, 2, 60, 0
4, 19124, Note_on_c, 2, 59, 88
4, 19177, Note_on_c, 2, 59, 0
4, 19209, Note_on_c, 2, 60, 88
4, 19214, Note_on_c, 2, 67, 88
4, 19215, Note_on_c, 2, 64, 88
4, 19515, Note_on_c, 2, 60, 0
4, 19537, Note_on_c, 2, 59, 88
4, 19571, Note_on_c, 2, 59, 0
4, 19608, Note_on_c, 2, 57, 88
4, 19630, Note_on_c, 2, 64, 0
4, 19642, Note_on_c, 2, 67, 0
4, 19646, Note_on_c, 2, 57, 0
4, 19687, Note_on_c, 2, 55, 88
4, 19694, Note_on_c, 2, 59, 88
4, 19710, Note_on_c, 2, 62, 88
4, 19722, Note_on_c, 2, 62, 0
4, 19729, Note_on_c, 2, 62, 88
4, 20073, Note_on_c, 2, 62, 0
4, 20079, Note_on_c, 2, 59, 0
4, 20079, Note_on_c, 2, 55, 0
4, 20163, Note_on_c, 2, 60, 88
4, 20164, Note_on_c, 2, 64, 88
4, 20166, Note_on_c, 2, 67, 88
4, 20620, Note_on_c, 2, 64, 0
4, 20622, Note_on_c, 2, 67, 0
4, 20625, Note_on_c, 2, 60, 0
4, 20662, Note_on_c, 2, 66, 88
4, 20664, Note_on_c, 2, 62, 88
4, 20667, Note_on_c, 2, 69, 88
4, 21527, Note_on_c, 2, 66, 0
4, 21541, Note_on_c, 2, 62, 0
4, 21545, Note_on_c, 2, 69, 0
4, 21587, Note_on_c, 2, 62, 88
4, 21593, Note_on_c, 2, 65, 88
4, 21600, Note_on_c, 2, 69, 88
4, 21607, Note_on_c, 2, 69, 0
4, 21614, Note_on_c, 2, 69, 88
4, 21966, Note_on_c, 2, 69, 0
4, 21978, Note_on_c, 2, 65, 0
4, 21979, Note_on_c, 2, 62, 0
4, 22063, Note_on_c, 2, 65, 88
4, 22064, Note_on_c, 2, 69, 88
4, 22076, Note_on_c, 2, 72, 88
4, 22300, Note_on_c, 2, 65, 0
4, 22316, Note_on_c, 2, 65, 88
4, 22362, Note_on_c, 2, 65, 0
4, 22401, Note_on_c, 2, 64, 88
4, 22454, Note_on_c, 2, 64, 0
4, 22459, Note_on_c, 2, 69, 0
4, 22462, Note_on_c, 2, 72, 0
4, 22488, Note_on_c, 2, 62, 88
4, 22515, Note_on_c, 2, 62, 0
4, 22552, Note_on_c, 2, 60, 88
4, 22569, Note_on_c, 2, 64, 88
4, 22583, Note_on_c, 2, 67, 88
4, 23421, Note_on_c, 2, 60, 0
4, 23442, Note_on_c, 2, 59, 88
4, 23488, Note_on_c, 2, 59, 0
4, 23488, Note_on_c, 2, 67, 0
4, 23493, Note_on_c, 2, 64, 0
4, 23520, Note_on_c, 2, 57, 88
4, 23528, Note_on_c, 2, 60, 88
4, 23534, Note_on_c, 2, 64, 88
4, 24362, Note_on_c, 2, 57, 0
4, 24407, Note_on_c, 2, 55, 88
4, 24444, Note_on_c, 2, 55, 0
4, 24448, Note_on_c, 2, 60, 0
4, 24450, Note_on_c, 2, 64, 0
4, 24480, Note_on_c, 2, 66, 88
4, 24480, Note_on_c, 2, 62, 88
4, 24484, Note_on_c, 2, 69, 88
4, 25035, Note_on_c, 2, 69, 0
4, 25042, Note_on_c, 2, 69, 88
4, 25073, Note_on_c, 2, 69, 0
4, 25082, Note_on_c, 2, 69, 88
4, 25089, Note_on_c, 2, 69, 0
4, 25151, Note_on_c, 2, 62, 0
4, 25191, Note_on_c, 2, 62, 88
4, 25252, Note_on_c, 2, 62, 0
4, 25260, Note_on_c, 2, 69, 88
4, 25281, Note_on_c, 2, 62, 88
4, 25288, Note_on_c, 2, 69, 0
4, 25325, Note_on_c, 2, 69, 88
4, 25331, Note_on_c, 2, 62, 0
4, 25357, Note_on_c, 2, 64, 88
4, 25360, Note_on_c, 2, 69, 0
4, 25395, Note_on_c, 2, 66, 0
4, 25400, Note_on_c, 2, 64, 0
4, 25426, Note_on_c, 2, 65, 88
4, 25436, Note_on_c, 2, 70, 88
4, 25439, Note_on_c, 2, 72, 88
4, 25440, Note_on_c, 2, 65, 88
4, 25440, Note_on_c, 2, 72, 88
4, 25440, Note_on_c, 2, 69, 88
4, 25462, Note_on_c, 2, 70, 0
4, 26098, Note_on_c, 2, 65, 0
4, 26123, Note_on_c, 2, 65, 0
4, 26136, Note_on_c, 2, 72, 0
4, 26144, Note_on_c, 2, 65, 88
4, 26214, Note_on_c, 2, 65, 0
4, 26237, Note_on_c, 2, 64, 88
4, 26290, Note_on_c, 2, 64, 0
4, 26318, Note_on_c, 2, 62, 88
4, 26359, Note_on_c, 2, 69, 0
4, 26360, Note_on_c, 2, 72, 0
4, 26362, Note_on_c, 2, 62, 0
4, 26404, Note_on_c, 2, 60, 88
4, 26416, Note_on_c, 2, 67, 88
4, 26420, Note_on_c, 2, 64, 88
4, 27260, Note_on_c, 2, 60, 0
4, 27283, Note_on_c, 2, 59, 88
4, 27327, Note_on_c, 2, 59, 0
4, 27333, Note_on_c, 2, 64, 0
4, 27336, Note_on_c, 2, 67, 0
4, 27355, Note_on_c, 2, 57, 88
4, 27359, Note_on_c, 2, 60, 88
4, 27370, Note_on_c, 2, 64, 88
4, 28198, Note_on_c, 2, 57, 0
4, 28234, Note_on_c, 2, 55, 88
4, 28264, Note_on_c, 2, 55, 0
4, 28267, Note_on_c, 2, 60, 0
4, 28268, Note_on_c, 2, 64, 0
4, 28324, Note_on_c, 2, 66, 88
4, 28324, Note_on_c, 2, 62, 88
4, 28340, Note_on_c, 2, 66, 0
4, 28347, Note_on_c, 2, 69, 88
4, 28348, Note_on_c, 2, 66, 88
4, 28989, Note_on_c, 2, 62, 0
4, 29037, Note_on_c, 2, 62, 88
4, 29103, Note_on_c, 2, 62, 0
4, 29123, Note_on_c, 2, 62, 88
4, 29131, Note_on_c, 2, 69, 0
4, 29174, Note_on_c, 2, 69, 88
4, 29177, Note_on_c, 2, 62, 0
4, 29204, Note_on_c, 2, 64, 88
4, 29210, Note_on_c, 2, 69, 0
4, 29220, Note_on_c, 2, 66, 0
4, 29231, Note_on_c, 2, 64, 0
4, 29276, Note_on_c, 2, 65, 88
4, 29290, Note_on_c, 2, 72, 88
4, 29308, Note_on_c, 2, 69, 88
4, 29932, Note_on_c, 2, 65, 0
4, 29975, Note_on_c, 2, 64, 88
4, 30011, Note_on_c, 2, 64, 0
4, 30030, Note_on_c, 2, 65, 88
4, 30083, Note_on_c, 2, 65, 0
4, 30107, Note_on_c, 2, 64, 88
4, 30144, Note_on_c, 2, 64, 0
4, 30171, Note_on_c, 2, 62, 88
4, 30201, Note_on_c, 2, 69, 0
4, 30206, Note_on_c, 2, 62, 0
4, 30206, Note_on_c, 2, 72, 0
4, 30245, Note_on_c, 2, 60, 88
4, 30249, Note_on_c, 2, 64, 88
4, 30299, Note_on_c, 2, 67, 88
4, 31082, Note_on_c, 2, 60, 0
4, 31114, Note_on_c, 2, 59, 88
4, 31159, Note_on_c, 2, 59, 0
4, 31165, Note_on_c, 2, 67, 0
4, 31167, Note_on_c, 2, 64, 0
4, 31200, Note_on_c, 2, 57, 88
4, 31204, Note_on_c, 2, 60, 88
4, 31209, Note_on_c, 2, 64, 88
4, 31800, Note_on_c, 2, 64, 0
4, 31837, Note_on_c, 2, 60, 0
4, 31845, Note_on_c, 2, 57, 0
4, 31903, Note_on_c, 2, 57, 88
4, 31961, Note_on_c, 2, 55, 88
4, 31992, Note_on_c, 2, 57, 0
4, 32004, Note_on_c, 2, 53, 88
4, 32012, Note_on_c, 2, 55, 0
4, 32059, Note_on_c, 2, 52, 88
4, 32070, Note_on_c, 2, 53, 0
4, 32110, Note_on_c, 2, 52, 0
4, 32160, Note_on_c, 2, 66, 88
4, 32160, Note_on_c, 2, 62, 88
4, 32174, Note_on_c, 2, 69, 88
4, 32567, Note_on_c, 2, 69, 0
4, 32574, Note_on_c, 2, 69, 88
4, 32824, Note_on_c, 2, 59, 88
4, 32830, Note_on_c, 2, 69, 0
4, 32836, Note_on_c, 2, 62, 0
4, 32871, Note_on_c, 2, 62, 88
4, 32902, Note_on_c, 2, 59, 0
4, 32948, Note_on_c, 2, 69, 88
4, 32954, Note_on_c, 2, 62, 0
4, 32967, Note_on_c, 2, 62, 88
4, 32989, Note_on_c, 2, 69, 0
4, 32996, Note_on_c, 2, 69, 88
4, 33002, Note_on_c, 2, 69, 0
4, 33010, Note_on_c, 2, 69, 88
4, 33017, Note_on_c, 2, 69, 0
4, 33022, Note_on_c, 2, 62, 0
4, 33029, Note_on_c, 2, 66, 0
4, 33043, Note_on_c, 2, 64, 88
4, 33084, Note_on_c, 2, 64, 0
4, 33120, Note_on_c, 2, 65, 88
4, 33120, Note_on_c, 2, 69, 88
4, 33125, Note_on_c, 2, 72, 88
4, 33639, Note_on_c, 2, 72, 0
4, 33653, Note_on_c, 2, 72, 88
4, 33776, Note_on_c, 2, 69, 0
4, 33777, Note_on_c, 2, 60, 88
4, 33778, Note_on_c, 2, 72, 0
4, 33810, Note_on_c, 2, 72, 88
4, 33813, Note_on_c, 2, 60, 0
4, 33832, Note_on_c, 2, 72, 0
4, 33927, Note_on_c, 2, 64, 88
4, 33948, Note_on_c, 2, 65, 0
4, 33964, Note_on_c, 2, 64, 0
4, 33997, Note_on_c, 2, 64, 88
4, 34013, Note_on_c, 2, 64, 0
4, 34080, Note_on_c, 2, 65, 88
4, 34086, Note_on_c, 2, 62, 88
4, 34100, Note_on_c, 2, 60, 88
4, 34109, Note_on_c, 2, 64, 88
4, 34123, Note_on_c, 2, 64, 0
4, 34125, Note_on_c, 2, 69, 88
4, 34129, Note_on_c, 2, 62, 0
4, 34130, Note_on_c, 2, 64, 88
4, 34133, Note_on_c, 2, 69, 0
4, 34137, Note_on_c, 2, 65, 0
4, 34143, Note_on_c, 2, 67, 88
4, 34918, Note_on_c, 2, 60, 0
4, 34943, Note_on_c, 2, 59, 88
4, 35000, Note_on_c, 2, 67, 0
4, 35009, Note_on_c, 2, 64, 0
4, 35013, Note_on_c, 2, 59, 0
4, 35050, Note_on_c, 2, 60, 88
4, 35052, Note_on_c, 2, 57, 88
4, 35058, Note_on_c, 2, 64, 88
4, 35886, Note_on_c, 2, 57, 0
4, 35890, Note_on_c, 2, 60, 0
4, 35892, Note_on_c, 2, 64, 0
4, 35981, Note_on_c, 2, 66, 88
4, 35984, Note_on_c, 2, 69, 88
4, 35984, Note_on_c, 2, 62, 88
4, 36897, Note_on_c, 2, 66, 0
4, 36899, Note_on_c, 2, 62, 0
4, 36901, Note_on_c, 2, 69, 0
4, 36949, Note_on_c, 2, 65, 88
4, 36952, Note_on_c, 2, 69, 88
4, 36955, Note_on_c, 2, 72, 88
4, 37858, Note_on_c, 2, 72, 0
4, 37858, Note_on_c, 2, 69, 0
4, 37858, Note_on_c, 2, 65, 0
4, 37915, Note_on_c, 2, 64, 88
4, 37916, Note_on_c, 2, 60, 88
4, 37919, Note_on_c, 2, 67, 88
4, 37944, Note_on_c, 2, 67, 0
4, 37950, Note_on_c, 2, 67, 88
4, 38756, Note_on_c, 2, 60, 0
4, 38793, Note_on_c, 2, 59, 88
4, 38832, Note_on_c, 2, 67, 0
4, 38835, Note_on_c, 2, 64, 0
4, 38837, Note_on_c, 2, 59, 0
4, 38859, Note_on_c, 2, 57, 88
4, 38861, Note_on_c, 2, 60, 88
4, 38869, Note_on_c, 2, 64, 88
4, 39746, Note_on_c, 2, 57, 0
4, 39751, Note_on_c, 2, 60, 0
4, 39752, Note_on_c, 2, 64, 0
4, 39815, Note_on_c, 2, 66, 88
4, 39822, Note_on_c, 2, 69, 88
4, 39826, Note_on_c, 2, 62, 88
4, 40652, Note_on_c, 2, 69, 0
4, 40678, Note_on_c, 2, 62, 0
4, 40679, Note_on_c, 2, 66, 0
4, 40710, Note_on_c, 2, 64, 88
4, 40746, Note_on_c, 2, 64, 0
4, 40787, Note_on_c, 2, 65, 88
4, 40819, Note_on_c, 2, 72, 88
4, 40839, Note_on_c, 2, 69, 88
4, 41525, Note_on_c, 2, 72, 0
4, 41568, Note_on_c, 2, 69, 0
4, 41581, Note_on_c, 2, 65, 0
4, 41617, Note_on_c, 2, 64, 88
4, 41667, Note_on_c, 2, 64, 0
4, 41690, Note_on_c, 2, 62, 88
4, 41712, Note_on_c, 2, 62, 0
4, 41757, Note_on_c, 2, 60, 88
4, 41758, Note_on_c, 2, 64, 88
4, 41769, Note_on_c, 2, 64, 88
4, 41783, Note_on_c, 2, 67, 88
4, 42630, Note_on_c, 2, 64, 0
4, 42630, Note_on_c, 2, 60, 0
4, 42642, Note_on_c, 2, 59, 88
4, 42688, Note_on_c, 2, 59, 0
4, 42688, Note_on_c, 2, 67, 0
4, 42693, Note_on_c, 2, 64, 0
4, 42720, Note_on_c, 2, 57, 88
4, 42728, Note_on_c, 2, 60, 88
4, 42734, Note_on_c, 2, 64, 88
4, 43562, Note_on_c, 2, 57, 0
4, 43607, Note_on_c, 2, 55, 88
4, 43644, Note_on_c, 2, 55, 0
4, 43648, Note_on_c, 2, 60, 0
4, 43650, Note_on_c, 2, 64, 0
4, 43680, Note_on_c, 2, 66, 88
4, 43680, Note_on_c, 2, 62, 88
4, 43684, Note_on_c, 2, 69, 88
4, 44235, Note_on_c, 2, 69, 0
4, 44242, Note_on_c, 2, 69, 88
4, 44273, Note_on_c, 2, 69, 0
4, 44282, Note_on_c, 2, 69, 88
4, 44289, Note_on_c, 2, 69, 0
4, 44351, Note_on_c, 2, 62, 0
4, 44391, Note_on_c, 2, 62, 88
4, 44452, Note_on_c, 2, 62, 0
4, 44460, Note_on_c, 2, 69, 88
4, 44481, Note_on_c, 2, 62, 88
4, 44488, Note_on_c, 2, 69, 0
4, 44525, Note_on_c, 2, 69, 88
4, 44531, Note_on_c, 2, 62, 0
4, 44557, Note_on_c, 2, 64, 88
4, 44560, Note_on_c, 2, 69, 0
4, 44595, Note_on_c, 2, 66, 0
4, 44600, Note_on_c, 2, 64, 0
4, 44626, Note_on_c, 2, 65, 88
4, 44636, Note_on_c, 2, 70, 88
4, 44639, Note_on_c, 2, 72, 88
4, 44640, Note_on_c, 2, 69, 88
4, 44640, Note_on_c, 2, 65, 88
4, 44640, Note_on_c, 2, 72, 88
4, 44662, Note_on_c, 2, 70, 0
4, 45298, Note_on_c, 2, 65, 0
4, 45323, Note_on_c, 2, 65, 0
4, 45336, Note_on_c, 2, 72, 0
4, 45344, Note_on_c, 2, 65, 88
4, 45414, Note_on_c, 2, 65, 0
4, 45437, Note_on_c, 2, 64, 88
4, 45490, Note_on_c, 2, 64, 0
4, 45518, Note_on_c, 2, 62, 88
4, 45559, Note_on_c, 2, 69, 0
4, 45560, Note_on_c, 2, 72, 0
4, 45562, Note_on_c, 2, 62, 0
4, 45604, Note_on_c, 2, 60, 88
4, 45616, Note_on_c, 2, 67, 88
4, 45620, Note_on_c, 2, 64, 88
4, 46460, Note_on_c, 2, 60, 0
4, 46483, Note_on_c, 2, 59, 88
4, 46527, Note_on_c, 2, 59, 0
4, 46533, Note_on_c, 2, 64, 0
4, 46536, Note_on_c, 2, 67, 0
4, 46555, Note_on_c, 2, 57, 88
4, 46559, Note_on_c, 2, 60, 88
4, 46570, Note_on_c, 2, 64, 88
4, 47398, Note_on_c, 2, 57, 0
4, 47434, Note_on_c, 2, 55, 88
4, 47464, Note_on_c, 2, 55, 0
4, 47467, Note_on_c, 2, 60, 0
4, 47468, Note_on_c, 2, 64, 0
4, 47524, Note_on_c, 2, 66, 88
4, 47524, Note_on_c, 2, 62, 88
4, 47540, Note_on_c, 2, 66, 0
4, 47547, Note_on_c, 2, 69, 88
4, 47548, Note_on_c, 2, 66, 88
4, 48189, Note_on_c, 2, 62, 0
4, 48237, Note_on_c, 2, 62, 88
4, 48303, Note_on_c, 2, 62, 0
4, 48323, Note_on_c, 2, 62, 88
4, 48331, Note_on_c, 2, 69, 0
4, 48374, Note_on_c, 2, 69, 88
4, 48377, Note_on_c, 2, 62, 0
4, 48404, Note_on_c, 2, 64, 88
4, 48410, Note_on_c, 2, 69, 0
4, 48420, Note_on_c, 2, 66, 0
4, 48431, Note_on_c, 2, 64, 0
4, 48476, Note_on_c, 2, 65, 88
4, 48490, Note_on_c, 2, 72, 88
4, 48508, Note_on_c, 2, 69, 88
4, 49132, Note_on_c, 2, 65, 0
4, 49175, Note_on_c, 2, 64, 88
4, 49211, Note_on_c, 2, 64, 0
4, 49230, Note_on_c, 2, 65, 88
4, 49283, Note_on_c, 2, 65, 0
4, 49307, Note_on_c, 2, 64, 88
4, 49344, Note_on_c, 2, 64, 0
4, 49371, Note_on_c, 2, 62, 88
4, 49401, Note_on_c, 2, 69, 0
4, 49406, Note_on_c, 2, 62, 0
4, 49406, Note_on_c, 2, 72, 0
4, 49445, Note_on_c, 2, 60, 88
4, 49449, Note_on_c, 2, 64, 88
4, 49499, Note_on_c, 2, 67, 88
4, 50282, Note_on_c, 2, 60, 0
4, 50314, Note_on_c, 2, 59, 88
4, 50359, Note_on_c, 2, 59, 0
4, 50365, Note_on_c, 2, 67, 0
4, 50367, Note_on_c, 2, 64, 0
4, 50400, Note_on_c, 2, 57, 88
4, 50404, Note_on_c, 2, 60, 88
4, 50409, Note_on_c, 2, 64, 88
4, 51000, Note_on_c, 2, 64, 0
4, 51037, Note_on_c, 2, 60, 0
4, 51045, Note_on_c, 2, 57, 0
4, 51103, Note_on_c, 2, 57, 88
4, 51161, Note_on_c, 2, 55, 88
4, 51192, Note_on_c, 2, 57, 0
4, 51204, Note_on_c, 2, 53, 88
4, 51212, Note_on_c, 2, 55, 0
4, 51259, Note_on_c, 2, 52, 88
4, 51270, Note_on_c, 2, 53, 0
4, 51310, Note_on_c, 2, 52, 0
4, 51360, Note_on_c, 2, 62, 88
4, 51360, Note_on_c, 2, 66, 88
4, 51374, Note_on_c, 2, 69, 88
4, 51767, Note_on_c, 2, 69, 0
4, 51774, Note_on_c, 2, 69, 88
4, 52024, Note_on_c, 2, 59, 88
4, 52030, Note_on_c, 2, 69, 0
4, 52036, Note_on_c, 2, 62, 0
4, 52071, Note_on_c, 2, 62, 88
4, 52102, Note_on_c, 2, 59, 0
4, 52148, Note_on_c, 2, 69, 88
4, 52154, Note_on_c, 2, 62, 0
4, 52167, Note_on_c, 2, 62, 88
4, 52189, Note_on_c, 2, 69, 0
4, 52196, Note_on_c, 2, 69, 88
4, 52202, Note_on_c, 2, 69, 0
4, 52210, Note_on_c, 2, 69, 88
4, 52217, Note_on_c, 2, 69, 0
4, 52222, Note_on_c, 2, 62, 0
4, 52229, Note_on_c, 2, 66, 0
4, 52243, Note_on_c, 2, 64, 88
4, 52284, Note_on_c, 2, 64, 0
4, 52320, Note_on_c, 2, 69, 88
4, 52320, Note_on_c, 2, 65, 88
4, 52325, Note_on_c, 2, 72, 88
4, 52839, Note_on_c, 2, 72, 0
4, 52853, Note_on_c, 2, 72, 88
4, 52976, Note_on_c, 2, 69, 0
4, 52977, Note_on_c, 2, 60, 88
4, 52978, Note_on_c, 2, 72, 0
4, 53010, Note_on_c, 2, 72, 88
4, 53013, Note_on_c, 2, 60, 0
4, 53032, Note_on_c, 2, 72, 0
4, 53127, Note_on_c, 2, 64, 88
4, 53148, Note_on_c, 2, 65, 0
4, 53164, Note_on_c, 2, 64, 0
4, 53197, Note_on_c, 2, 64, 88
4, 53213, Note_on_c, 2, 64, 0
4, 53280, Note_on_c, 2, 65, 88
4, 53286, Note_on_c, 2, 62, 88
4, 53300, Note_on_c, 2, 60, 88
4, 53309, Note_on_c, 2, 64, 88
4, 53323, Note_on_c, 2, 64, 0
4, 53325, Note_on_c, 2, 69, 88
4, 53329, Note_on_c, 2, 62, 0
4, 53330, Note_on_c, 2, 64, 88
4, 53333, Note_on_c, 2, 69, 0
4, 53337, Note_on_c, 2, 65, 0
4, 53343, Note_on_c, 2, 67, 88
4, 54118, Note_on_c, 2, 60, 0
4, 54200, Note_on_c, 2, 67, 0
4, 54209, Note_on_c, 2, 64, 0
4, 54209, End_track
5, 0, Start_track
5, 0, MIDI_port, 0
5, 137, Program_c, 3, 54
5, 138, Control_c, 3, 7, 110
5, 138, Control_c, 3, 10, 90
5, 6240, Note_on_c, 3, 50, 117
5, 6240, Note_on_c, 3, 50, 0
5, 6301, Note_on_c, 3, 52, 117
5, 6373, Note_on_c, 3, 52, 0
5, 6422, Note_on_c, 3, 52, 117
5, 6454, Note_on_c, 3, 52, 0
5, 6487, Note_on_c, 3, 52, 117
5, 6590, Note_on_c, 3, 52, 0
5, 6616, Note_on_c, 3, 50, 117
5, 6667, Note_on_c, 3, 50, 0
5, 6693, Note_on_c, 3, 50, 117
5, 6759, Note_on_c, 3, 50, 0
5, 6769, Note_on_c, 3, 48, 117
5, 6808, Note_on_c, 3, 48, 0
5, 6826, Note_on_c, 3, 48, 117
5, 7040, Note_on_c, 3, 48, 0
5, 7321, Note_on_c, 3, 52, 117
5, 7396, Note_on_c, 3, 52, 0
5, 7436, Note_on_c, 3, 52, 117
5, 7486, Note_on_c, 3, 52, 0
5, 7488, Note_on_c, 3, 50, 117
5, 7543, Note_on_c, 3, 50, 0
5, 7548, Note_on_c, 3, 48, 117
5, 7629, Note_on_c, 3, 48, 0
5, 7654, Note_on_c, 3, 47, 117
5, 7705, Note_on_c, 3, 47, 0
5, 7727, Note_on_c, 3, 45, 117
5, 7969, Note_on_c, 3, 45, 0
5, 8191, Note_on_c, 3, 48, 117
5, 8223, Note_on_c, 3, 52, 117
5, 8235, Note_on_c, 3, 48, 0
5, 8383, Note_on_c, 3, 52, 0
5, 8483, Note_on_c, 3, 52, 117
5, 8522, Note_on_c, 3, 52, 0
5, 8522, Note_on_c, 3, 50, 117
5, 8568, Note_on_c, 3, 48, 117
5, 8570, Note_on_c, 3, 50, 0
5, 8623, Note_on_c, 3, 50, 117
5, 8626, Note_on_c, 3, 48, 0
5, 8670, Note_on_c, 3, 48, 117
5, 8673, Note_on_c, 3, 50, 0
5, 8803, Note_on_c, 3, 48, 0
5, 9108, Note_on_c, 3, 52, 117
5, 9387, Note_on_c, 3, 52, 0
5, 9446, Note_on_c, 3, 52, 117
5, 9475, Note_on_c, 3, 52, 0
5, 9491, Note_on_c, 3, 50, 117
5, 9516, Note_on_c, 3, 50, 0
5, 9537, Note_on_c, 3, 48, 117
5, 9560, Note_on_c, 3, 48, 0
5, 9582, Note_on_c, 3, 47, 117
5, 9649, Note_on_c, 3, 47, 0
5, 9665, Note_on_c, 3, 45, 117
5, 9685, Note_on_c, 3, 43, 117
5, 9692, Note_on_c, 3, 43, 0
5, 9829, Note_on_c, 3, 45, 0
5, 10226, Note_on_c, 3, 52, 117
5, 10262, Note_on_c, 3, 52, 0
5, 10295, Note_on_c, 3, 52, 117
5, 10428, Note_on_c, 3, 52, 0
5, 10445, Note_on_c, 3, 50, 117
5, 10480, Note_on_c, 3, 50, 0
5, 10496, Note_on_c, 3, 48, 117
5, 10537, Note_on_c, 3, 48, 0
5, 10567, Note_on_c, 3, 50, 117
5, 10626, Note_on_c, 3, 50, 0
5, 10626, Note_on_c, 3, 48, 117
5, 10844, Note_on_c, 3, 48, 0
5, 11027, Note_on_c, 3, 52, 117
5, 11264, Note_on_c, 3, 52, 0
5, 11369, Note_on_c, 3, 52, 117
5, 11398, Note_on_c, 3, 52, 0
5, 11422, Note_on_c, 3, 50, 117
5, 11456, Note_on_c, 3, 50, 0
5, 11476, Note_on_c, 3, 48, 117
5, 11512, Note_on_c, 3, 48, 0
5, 11534, Note_on_c, 3, 47, 117
5, 11581, Note_on_c, 3, 47, 0
5, 11604, Note_on_c, 3, 45, 117
5, 11883, Note_on_c, 3, 45, 0
5, 12080, Note_on_c, 3, 52, 117
5, 12124, Note_on_c, 3, 52, 0
5, 12156, Note_on_c, 3, 52, 117
5, 12203, Note_on_c, 3, 52, 0
5, 12235, Note_on_c, 3, 52, 117
5, 12315, Note_on_c, 3, 52, 0
5, 12333, Note_on_c, 3, 50, 117
5, 12364, Note_on_c, 3, 50, 0
5, 12380, Note_on_c, 3, 50, 117
5, 12411, Note_on_c, 3, 50, 0
5, 12453, Note_on_c, 3, 50, 117
5, 12510, Note_on_c, 3, 50, 0
5, 12528, Note_on_c, 3, 48, 117
5, 12558, Note_on_c, 3, 48, 0
5, 12573, Note_on_c, 3, 48, 117
5, 12733, Note_on_c, 3, 48, 0
5, 12801, Note_on_c, 3, 48, 117
5, 12882, Note_on_c, 3, 50, 117
5, 12891, Note_on_c, 3, 48, 0
5, 12918, Note_on_c, 3, 50, 0
5, 12956, Note_on_c, 3, 52, 117
5, 13207, Note_on_c, 3, 52, 0
5, 13276, Note_on_c, 3, 52, 117
5, 13310, Note_on_c, 3, 52, 0
5, 13331, Note_on_c, 3, 50, 117
5, 13364, Note_on_c, 3, 50, 0
5, 13390, Note_on_c, 3, 48, 117
5, 13423, Note_on_c, 3, 48, 0
5, 13447, Note_on_c, 3, 47, 117
5, 13507, Note_on_c, 3, 47, 0
5, 13526, Note_on_c, 3, 45, 117
5, 13607, Note_on_c, 3, 45, 0
5, 13751, Note_on_c, 3, 52, 117
5, 13810, Note_on_c, 3, 52, 0
5, 13842, Note_on_c, 3, 52, 117
5, 13876, Note_on_c, 3, 52, 0
5, 13919, Note_on_c, 3, 55, 117
5, 14097, Note_on_c, 3, 55, 0
5, 14157, Note_on_c, 3, 55, 117
5, 14198, Note_on_c, 3, 55, 0
5, 14209, Note_on_c, 3, 55, 117
5, 14335, Note_on_c, 3, 55, 0
5, 14377, Note_on_c, 3, 55, 117
5, 14406, Note_on_c, 3, 55, 0
5, 14422, Note_on_c, 3, 55, 117
5, 14437, Note_on_c, 3, 55, 0
5, 14448, Note_on_c, 3, 55, 117
5, 14511, Note_on_c, 3, 55, 0
5, 14538, Note_on_c, 3, 57, 117
5, 14595, Note_on_c, 3, 57, 0
5, 14623, Note_on_c, 3, 55, 117
5, 14716, Note_on_c, 3, 55, 0
5, 14790, Note_on_c, 3, 55, 117
5, 14844, Note_on_c, 3, 55, 0
5, 14879, Note_on_c, 3, 57, 117
5, 15021, Note_on_c, 3, 57, 0
5, 15109, Note_on_c, 3, 57, 117
5, 15223, Note_on_c, 3, 57, 0
5, 15252, Note_on_c, 3, 55, 117
5, 15291, Note_on_c, 3, 55, 0
5, 15293, Note_on_c, 3, 57, 117
5, 15329, Note_on_c, 3, 57, 0
5, 15379, Note_on_c, 3, 57, 117
5, 15471, Note_on_c, 3, 57, 0
5, 15517, Note_on_c, 3, 59, 117
5, 15586, Note_on_c, 3, 59, 0
5, 15609, Note_on_c, 3, 57, 117
5, 15709, Note_on_c, 3, 57, 0
5, 15805, Note_on_c, 3, 57, 117
5, 15815, Note_on_c, 3, 57, 0
5, 15837, Note_on_c, 3, 55, 117
5, 15840, Note_on_c, 3, 57, 117
5, 15844, Note_on_c, 3, 55, 0
5, 15893, Note_on_c, 3, 57, 0
5, 15912, Note_on_c, 3, 57, 117
5, 15959, Note_on_c, 3, 57, 0
5, 15986, Note_on_c, 3, 57, 117
5, 16034, Note_on_c, 3, 57, 0
5, 16063, Note_on_c, 3, 55, 117
5, 16118, Note_on_c, 3, 55, 0
5, 16150, Note_on_c, 3, 54, 117
5, 16211, Note_on_c, 3, 54, 0
5, 16231, Note_on_c, 3, 54, 117
5, 16255, Note_on_c, 3, 54, 0
5, 16278, Note_on_c, 3, 55, 117
5, 16305, Note_on_c, 3, 55, 0
5, 16327, Note_on_c, 3, 57, 117
5, 16387, Note_on_c, 3, 57, 0
5, 16409, Note_on_c, 3, 57, 117
5, 16464, Note_on_c, 3, 57, 0
5, 16486, Note_on_c, 3, 55, 117
5, 16526, Note_on_c, 3, 55, 0
5, 16553, Note_on_c, 3, 54, 117
5, 16639, Note_on_c, 3, 54, 0
5, 16697, Note_on_c, 3, 54, 117
5, 16717, Note_on_c, 3, 54, 0
5, 16737, Note_on_c, 3, 55, 117
5, 16761, Note_on_c, 3, 55, 0
5, 16786, Note_on_c, 3, 57, 117
5, 16865, Note_on_c, 3, 57, 0
5, 16885, Note_on_c, 3, 57, 117
5, 16948, Note_on_c, 3, 57, 0
5, 16962, Note_on_c, 3, 57, 117
5, 16998, Note_on_c, 3, 57, 0
5, 17031, Note_on_c, 3, 55, 117
5, 17091, Note_on_c, 3, 55, 0
5, 17120, Note_on_c, 3, 53, 117
5, 17145, Note_on_c, 3, 53, 0
5, 17161, Note_on_c, 3, 53, 117
5, 17221, Note_on_c, 3, 53, 0
5, 17277, Note_on_c, 3, 57, 117
5, 17307, Note_on_c, 3, 57, 0
5, 17324, Note_on_c, 3, 57, 117
5, 17344, Note_on_c, 3, 57, 0
5, 17358, Note_on_c, 3, 57, 117
5, 17414, Note_on_c, 3, 57, 0
5, 17436, Note_on_c, 3, 55, 117
5, 17476, Note_on_c, 3, 55, 0
5, 17508, Note_on_c, 3, 53, 117
5, 17541, Note_on_c, 3, 53, 0
5, 17590, Note_on_c, 3, 57, 117
5, 17597, Note_on_c, 3, 57, 0
5, 17599, Note_on_c, 3, 59, 117
5, 17606, Note_on_c, 3, 59, 0
5, 17640, Note_on_c, 3, 60, 117
5, 17718, Note_on_c, 3, 60, 0
5, 17765, Note_on_c, 3, 60, 117
5, 17857, Note_on_c, 3, 60, 0
5, 17858, Note_on_c, 3, 59, 117
5, 17899, Note_on_c, 3, 59, 0
5, 17915, Note_on_c, 3, 57, 117
5, 17952, Note_on_c, 3, 57, 0
5, 17963, Note_on_c, 3, 60, 117
5, 18047, Note_on_c, 3, 60, 0
5, 18060, Note_on_c, 3, 57, 117
5, 18194, Note_on_c, 3, 57, 0
5, 18383, Note_on_c, 3, 57, 117
5, 18401, Note_on_c, 3, 60, 117
5, 18409, Note_on_c, 3, 57, 0
5, 18449, Note_on_c, 3, 60, 0
5, 18475, Note_on_c, 3, 60, 117
5, 18594, Note_on_c, 3, 60, 0
5, 18596, Note_on_c, 3, 59, 117
5, 18647, Note_on_c, 3, 59, 0
5, 18665, Note_on_c, 3, 57, 117
5, 18708, Note_on_c, 3, 57, 0
5, 18720, Note_on_c, 3, 60, 117
5, 18814, Note_on_c, 3, 57, 117
5, 18817, Note_on_c, 3, 60, 0
5, 18925, Note_on_c, 3, 57, 0
5, 19334, Note_on_c, 3, 57, 117
5, 19355, Note_on_c, 3, 60, 117
5, 19366, Note_on_c, 3, 57, 0
5, 19408, Note_on_c, 3, 60, 0
5, 19433, Note_on_c, 3, 60, 117
5, 19499, Note_on_c, 3, 60, 0
5, 19513, Note_on_c, 3, 59, 117
5, 19568, Note_on_c, 3, 59, 0
5, 19591, Note_on_c, 3, 57, 117
5, 19646, Note_on_c, 3, 57, 0
5, 19676, Note_on_c, 3, 60, 117
5, 19754, Note_on_c, 3, 60, 0
5, 19780, Note_on_c, 3, 55, 117
5, 19986, Note_on_c, 3, 55, 0
5, 20336, Note_on_c, 3, 60, 117
5, 20396, Note_on_c, 3, 60, 0
5, 20415, Note_on_c, 3, 60, 117
5, 20522, Note_on_c, 3, 59, 117
5, 20524, Note_on_c, 3, 60, 0
5, 20577, Note_on_c, 3, 59, 0
5, 20602, Note_on_c, 3, 57, 117
5, 20638, Note_on_c, 3, 57, 0
5, 20640, Note_on_c, 3, 60, 117
5, 20724, Note_on_c, 3, 55, 117
5, 20732, Note_on_c, 3, 60, 0
5, 20965, Note_on_c, 3, 55, 0
5, 20974, Note_on_c, 3, 55, 117
5, 21053, Note_on_c, 3, 57, 117
5, 21054, Note_on_c, 3, 55, 0
5, 21121, Note_on_c, 3, 57, 0
5, 21131, Note_on_c, 3, 55, 117
5, 21293, Note_on_c, 3, 55, 0
5, 21321, Note_on_c, 3, 55, 117
5, 21386, Note_on_c, 3, 55, 0
5, 21410, Note_on_c, 3, 53, 117
5, 21470, Note_on_c, 3, 53, 0
5, 21507, Note_on_c, 3, 52, 117
5, 21561, Note_on_c, 3, 52, 0
5, 21595, Note_on_c, 3, 50, 117
5, 21915, Note_on_c, 3, 48, 117
5, 21927, Note_on_c, 3, 50, 0
5, 21960, Note_on_c, 3, 48, 0
5, 21967, Note_on_c, 3, 48, 117
5, 21981, Note_on_c, 3, 47, 117
5, 21983, Note_on_c, 3, 48, 0
5, 21989, Note_on_c, 3, 47, 0
5, 21997, Note_on_c, 3, 47, 117
5, 22031, Note_on_c, 3, 47, 0
5, 22043, Note_on_c, 3, 45, 117
5, 22080, Note_on_c, 3, 50, 117
5, 22080, Note_on_c, 3, 50, 0
5, 22292, Note_on_c, 3, 45, 0
5, 22691, Note_on_c, 3, 47, 117
5, 22732, Note_on_c, 3, 47, 0
5, 22764, Note_on_c, 3, 52, 117
5, 22913, Note_on_c, 3, 52, 0
5, 22951, Note_on_c, 3, 48, 117
5, 22996, Note_on_c, 3, 48, 0
5, 23063, Note_on_c, 3, 50, 117
5, 23144, Note_on_c, 3, 50, 0
5, 23153, Note_on_c, 3, 48, 117
5, 23196, Note_on_c, 3, 48, 0
5, 23212, Note_on_c, 3, 48, 117
5, 23406, Note_on_c, 3, 48, 0
5, 23438, Note_on_c, 3, 48, 117
5, 23481, Note_on_c, 3, 50, 117
5, 23485, Note_on_c, 3, 48, 0
5, 23529, Note_on_c, 3, 50, 0
5, 23530, Note_on_c, 3, 52, 117
5, 23687, Note_on_c, 3, 52, 0
5, 23705, Note_on_c, 3, 52, 117
5, 23733, Note_on_c, 3, 52, 0
5, 23747, Note_on_c, 3, 52, 117
5, 23782, Note_on_c, 3, 52, 0
5, 23790, Note_on_c, 3, 52, 117
5, 23889, Note_on_c, 3, 52, 0
5, 23902, Note_on_c, 3, 50, 117
5, 23933, Note_on_c, 3, 50, 0
5, 23948, Note_on_c, 3, 48, 117
5, 23988, Note_on_c, 3, 48, 0
5, 24013, Note_on_c, 3, 48, 117
5, 24064, Note_on_c, 3, 48, 0
5, 24155, Note_on_c, 3, 45, 117
5, 24322, Note_on_c, 3, 45, 0
5, 24597, Note_on_c, 3, 52, 117
5, 24644, Note_on_c, 3, 52, 0
5, 24684, Note_on_c, 3, 52, 117
5, 24789, Note_on_c, 3, 52, 0
5, 24824, Note_on_c, 3, 48, 117
5, 24860, Note_on_c, 3, 52, 117
5, 24861, Note_on_c, 3, 48, 0
5, 24948, Note_on_c, 3, 52, 0
5, 24961, Note_on_c, 3, 48, 117
5, 24991, Note_on_c, 3, 52, 117
5, 24998, Note_on_c, 3, 48, 0
5, 25031, Note_on_c, 3, 52, 0
5, 25047, Note_on_c, 3, 52, 117
5, 25071, Note_on_c, 3, 52, 0
5, 25087, Note_on_c, 3, 52, 117
5, 25117, Note_on_c, 3, 52, 0
5, 25129, Note_on_c, 3, 52, 117
5, 25230, Note_on_c, 3, 52, 0
5, 25355, Note_on_c, 3, 48, 117
5, 25402, Note_on_c, 3, 50, 117
5, 25412, Note_on_c, 3, 48, 0
5, 25444, Note_on_c, 3, 52, 117
5, 25448, Note_on_c, 3, 50, 0
5, 25585, Note_on_c, 3, 52, 0
5, 25601, Note_on_c, 3, 52, 117
5, 25667, Note_on_c, 3, 52, 0
5, 25678, Note_on_c, 3, 52, 117
5, 25796, Note_on_c, 3, 50, 117
5, 25804, Note_on_c, 3, 52, 0
5, 25836, Note_on_c, 3, 50, 0
5, 25836, Note_on_c, 3, 48, 117
5, 25896, Note_on_c, 3, 48, 0
5, 25920, Note_on_c, 3, 47, 117
5, 25967, Note_on_c, 3, 47, 0
5, 25987, Note_on_c, 3, 45, 117
5, 26288, Note_on_c, 3, 45, 0
5, 26387, Note_on_c, 3, 48, 117
5, 26406, Note_on_c, 3, 52, 117
5, 26414, Note_on_c, 3, 48, 0
5, 26467, Note_on_c, 3, 52, 0
5, 26480, Note_on_c, 3, 52, 117
5, 26522, Note_on_c, 3, 52, 0
5, 26542, Note_on_c, 3, 52, 117
5, 26553, Note_on_c, 3, 52, 0
5, 26568, Note_on_c, 3, 52, 117
5, 26635, Note_on_c, 3, 52, 0
5, 26641, Note_on_c, 3, 52, 117
5, 26777, Note_on_c, 3, 50, 117
5, 26783, Note_on_c, 3, 52, 0
5, 26816, Note_on_c, 3, 48, 117
5, 26819, Note_on_c, 3, 50, 0
5, 26863, Note_on_c, 3, 48, 0
5, 26881, Note_on_c, 3, 48, 117
5, 26915, Note_on_c, 3, 48, 0
5, 26935, Note_on_c, 3, 50, 117
5, 27000, Note_on_c, 3, 50, 0
5, 27041, Note_on_c, 3, 48, 117
5, 27109, Note_on_c, 3, 48, 0
5, 27123, Note_on_c, 3, 48, 117
5, 27220, Note_on_c, 3, 48, 0
5, 27351, Note_on_c, 3, 52, 117
5, 27407, Note_on_c, 3, 52, 0
5, 27420, Note_on_c, 3, 52, 117
5, 27480, Note_on_c, 3, 52, 0
5, 27508, Note_on_c, 3, 52, 117
5, 27564, Note_on_c, 3, 52, 0
5, 27582, Note_on_c, 3, 52, 117
5, 27673, Note_on_c, 3, 52, 0
5, 27679, Note_on_c, 3, 50, 117
5, 27743, Note_on_c, 3, 50, 0
5, 27755, Note_on_c, 3, 48, 117
5, 27826, Note_on_c, 3, 48, 0
5, 27834, Note_on_c, 3, 50, 117
5, 27875, Note_on_c, 3, 52, 117
5, 27878, Note_on_c, 3, 50, 0
5, 28124, Note_on_c, 3, 52, 0
5, 28301, Note_on_c, 3, 55, 117
5, 28323, Note_on_c, 3, 57, 117
5, 28403, Note_on_c, 3, 52, 117
5, 28412, Note_on_c, 3, 57, 0
5, 28423, Note_on_c, 3, 55, 0
5, 28453, Note_on_c, 3, 52, 0
5, 28472, Note_on_c, 3, 52, 117
5, 28539, Note_on_c, 3, 55, 117
5, 28544, Note_on_c, 3, 52, 0
5, 28628, Note_on_c, 3, 52, 117
5, 28632, Note_on_c, 3, 55, 0
5, 28714, Note_on_c, 3, 52, 0
5, 28741, Note_on_c, 3, 52, 117
5, 28793, Note_on_c, 3, 55, 117
5, 28803, Note_on_c, 3, 52, 0
5, 28862, Note_on_c, 3, 52, 117
5, 28867, Note_on_c, 3, 55, 0
5, 28951, Note_on_c, 3, 57, 117
5, 28958, Note_on_c, 3, 52, 0
5, 29028, Note_on_c, 3, 57, 0
5, 29028, Note_on_c, 3, 52, 117
5, 29150, Note_on_c, 3, 52, 0
5, 29280, Note_on_c, 3, 52, 117
5, 29280, Note_on_c, 3, 52, 0
5, 29291, Note_on_c, 3, 52, 117
5, 29587, Note_on_c, 3, 52, 0
5, 29609, Note_on_c, 3, 52, 117
5, 29635, Note_on_c, 3, 52, 0
5, 29653, Note_on_c, 3, 50, 117
5, 29695, Note_on_c, 3, 50, 0
5, 29707, Note_on_c, 3, 48, 117
5, 29742, Note_on_c, 3, 48, 0
5, 29769, Note_on_c, 3, 47, 117
5, 29827, Note_on_c, 3, 47, 0
5, 29848, Note_on_c, 3, 45, 117
5, 30036, Note_on_c, 3, 45, 0
5, 30071, Note_on_c, 3, 52, 117
5, 30130, Note_on_c, 3, 52, 0
5, 30162, Note_on_c, 3, 52, 117
5, 30196, Note_on_c, 3, 52, 0
5, 30239, Note_on_c, 3, 55, 117
5, 30240, Note_on_c, 3, 55, 117
5, 30378, Note_on_c, 3, 55, 0
5, 30408, Note_on_c, 3, 55, 117
5, 30417, Note_on_c, 3, 55, 0
5, 30447, Note_on_c, 3, 55, 0
5, 30462, Note_on_c, 3, 55, 117
5, 30481, Note_on_c, 3, 55, 0
5, 30489, Note_on_c, 3, 55, 117
5, 30604, Note_on_c, 3, 55, 0
5, 30634, Note_on_c, 3, 55, 117
5, 30660, Note_on_c, 3, 55, 0
5, 30675, Note_on_c, 3, 55, 117
5, 30696, Note_on_c, 3, 55, 0
5, 30709, Note_on_c, 3, 55, 117
5, 30774, Note_on_c, 3, 55, 0
5, 30793, Note_on_c, 3, 55, 117
5, 30839, Note_on_c, 3, 55, 0
5, 30867, Note_on_c, 3, 55, 117
5, 30910, Note_on_c, 3, 55, 0
5, 30941, Note_on_c, 3, 55, 117
5, 30997, Note_on_c, 3, 55, 0
5, 31025, Note_on_c, 3, 55, 117
5, 31060, Note_on_c, 3, 55, 0
5, 31078, Note_on_c, 3, 55, 117
5, 31096, Note_on_c, 3, 55, 0
5, 31119, Note_on_c, 3, 55, 117
5, 31148, Note_on_c, 3, 55, 0
5, 31161, Note_on_c, 3, 55, 117
5, 31168, Note_on_c, 3, 55, 0
5, 31190, Note_on_c, 3, 59, 117
5, 31194, Note_on_c, 3, 57, 117
5, 31197, Note_on_c, 3, 59, 0
5, 31200, Note_on_c, 3, 57, 117
5, 31328, Note_on_c, 3, 57, 0
5, 31360, Note_on_c, 3, 57, 0
5, 31371, Note_on_c, 3, 57, 117
5, 31414, Note_on_c, 3, 57, 0
5, 31431, Note_on_c, 3, 57, 117
5, 31567, Note_on_c, 3, 57, 0
5, 31588, Note_on_c, 3, 57, 117
5, 31609, Note_on_c, 3, 57, 0
5, 31628, Note_on_c, 3, 57, 117
5, 31635, Note_on_c, 3, 57, 0
5, 31666, Note_on_c, 3, 57, 117
5, 31685, Note_on_c, 3, 57, 0
5, 31693, Note_on_c, 3, 57, 117
5, 31728, Note_on_c, 3, 57, 0
5, 31742, Note_on_c, 3, 57, 117
5, 31819, Note_on_c, 3, 57, 0
5, 31826, Note_on_c, 3, 57, 117
5, 31868, Note_on_c, 3, 57, 0
5, 31898, Note_on_c, 3, 59, 117
5, 31949, Note_on_c, 3, 59, 0
5, 31978, Note_on_c, 3, 57, 117
5, 32044, Note_on_c, 3, 57, 0
5, 32062, Note_on_c, 3, 57, 117
5, 32111, Note_on_c, 3, 57, 0
5, 32136, Note_on_c, 3, 57, 117
5, 32312, Note_on_c, 3, 57, 0
5, 32322, Note_on_c, 3, 57, 117
5, 32372, Note_on_c, 3, 57, 0
5, 32386, Note_on_c, 3, 57, 117
5, 32517, Note_on_c, 3, 57, 0
5, 32534, Note_on_c, 3, 57, 117
5, 32573, Note_on_c, 3, 57, 0
5, 32618, Note_on_c, 3, 57, 117
5, 32670, Note_on_c, 3, 57, 0
5, 32690, Note_on_c, 3, 57, 117
5, 32767, Note_on_c, 3, 57, 0
5, 32788, Note_on_c, 3, 55, 117
5, 32835, Note_on_c, 3, 55, 0
5, 32859, Note_on_c, 3, 54, 117
5, 32993, Note_on_c, 3, 54, 0
5, 33035, Note_on_c, 3, 57, 117
5, 33081, Note_on_c, 3, 57, 0
5, 33114, Note_on_c, 3, 57, 117
5, 33120, Note_on_c, 3, 57, 117
5, 33170, Note_on_c, 3, 57, 0
5, 33179, Note_on_c, 3, 57, 0
5, 33195, Note_on_c, 3, 57, 117
5, 33250, Note_on_c, 3, 57, 0
5, 33265, Note_on_c, 3, 57, 117
5, 33320, Note_on_c, 3, 57, 0
5, 33358, Note_on_c, 3, 55, 117
5, 33403, Note_on_c, 3, 53, 117
5, 33431, Note_on_c, 3, 55, 0
5, 33510, Note_on_c, 3, 53, 0
5, 33531, Note_on_c, 3, 57, 117
5, 33546, Note_on_c, 3, 57, 0
5, 33592, Note_on_c, 3, 57, 117
5, 33650, Note_on_c, 3, 57, 0
5, 33667, Note_on_c, 3, 57, 117
5, 33752, Note_on_c, 3, 57, 0
5, 33757, Note_on_c, 3, 55, 117
5, 33814, Note_on_c, 3, 53, 117
5, 33822, Note_on_c, 3, 55, 0
5, 33950, Note_on_c, 3, 53, 0
5, 33954, Note_on_c, 3, 55, 117
5, 33979, Note_on_c, 3, 53, 117
5, 33989, Note_on_c, 3, 55, 0
5, 34079, Note_on_c, 3, 57, 117
5, 34080, Note_on_c, 3, 55, 117
5, 34083, Note_on_c, 3, 53, 0
5, 34250, Note_on_c, 3, 57, 0
5, 34308, Note_on_c, 3, 55, 0
5, 34317, Note_on_c, 3, 55, 117
5, 34533, Note_on_c, 3, 55, 0
5, 34550, Note_on_c, 3, 55, 117
5, 34579, Note_on_c, 3, 55, 0
5, 34591, Note_on_c, 3, 55, 117
5, 34719, Note_on_c, 3, 55, 0
5, 34754, Note_on_c, 3, 57, 117
5, 34761, Note_on_c, 3, 57, 0
5, 34804, Note_on_c, 3, 52, 117
5, 35030, Note_on_c, 3, 57, 117
5, 35034, Note_on_c, 3, 52, 0
5, 35272, Note_on_c, 3, 57, 0
5, 35282, Note_on_c, 3, 57, 117
5, 35465, Note_on_c, 3, 57, 0
5, 35489, Note_on_c, 3, 57, 117
5, 35527, Note_on_c, 3, 57, 0
5, 35539, Note_on_c, 3, 57, 117
5, 35636, Note_on_c, 3, 57, 0
5, 35654, Note_on_c, 3, 59, 117
5, 35719, Note_on_c, 3, 59, 0
5, 35744, Note_on_c, 3, 57, 117
5, 35820, Note_on_c, 3, 57, 0
5, 35836, Note_on_c, 3, 57, 117
5, 35903, Note_on_c, 3, 57, 0
5, 35919, Note_on_c, 3, 57, 117
5, 35964, Note_on_c, 3, 57, 0
5, 35989, Note_on_c, 3, 57, 117
5, 36208, Note_on_c, 3, 57, 0
5, 36223, Note_on_c, 3, 57, 117
5, 36400, Note_on_c, 3, 57, 0
5, 36410, Note_on_c, 3, 57, 117
5, 36439, Note_on_c, 3, 57, 0
5, 36472, Note_on_c, 3, 57, 117
5, 36548, Note_on_c, 3, 57, 0
5, 36565, Note_on_c, 3, 55, 117
5, 36584, Note_on_c, 3, 57, 117
5, 36590, Note_on_c, 3, 57, 0
5, 36597, Note_on_c, 3, 55, 0
5, 36654, Note_on_c, 3, 55, 117
5, 36712, Note_on_c, 3, 55, 0
5, 36734, Note_on_c, 3, 54, 117
5, 36841, Note_on_c, 3, 54, 0
5, 36949, Note_on_c, 3, 57, 117
5, 37389, Note_on_c, 3, 57, 0
5, 37421, Note_on_c, 3, 57, 117
5, 37469, Note_on_c, 3, 57, 0
5, 37495, Note_on_c, 3, 57, 117
5, 37565, Note_on_c, 3, 57, 0
5, 37576, Note_on_c, 3, 59, 117
5, 37660, Note_on_c, 3, 59, 0
5, 37682, Note_on_c, 3, 57, 117
5, 37791, Note_on_c, 3, 57, 0
5, 37815, Note_on_c, 3, 57, 117
5, 37829, Note_on_c, 3, 57, 0
5, 37843, Note_on_c, 3, 57, 117
5, 37881, Note_on_c, 3, 57, 0
5, 37910, Note_on_c, 3, 55, 117
5, 38140, Note_on_c, 3, 55, 0
5, 38157, Note_on_c, 3, 55, 117
5, 38355, Note_on_c, 3, 55, 0
5, 38384, Note_on_c, 3, 55, 117
5, 38444, Note_on_c, 3, 55, 0
5, 38457, Note_on_c, 3, 55, 117
5, 38559, Note_on_c, 3, 57, 117
5, 38563, Note_on_c, 3, 55, 0
5, 38636, Note_on_c, 3, 52, 117
5, 38640, Note_on_c, 3, 57, 0
5, 38841, Note_on_c, 3, 52, 0
5, 38848, Note_on_c, 3, 52, 117
5, 38869, Note_on_c, 3, 57, 117
5, 38874, Note_on_c, 3, 52, 0
5, 39094, Note_on_c, 3, 57, 0
5, 39112, Note_on_c, 3, 57, 117
5, 39344, Note_on_c, 3, 57, 0
5, 39357, Note_on_c, 3, 57, 117
5, 39391, Note_on_c, 3, 57, 0
5, 39398, Note_on_c, 3, 57, 117
5, 39486, Note_on_c, 3, 57, 0
5, 39502, Note_on_c, 3, 59, 117
5, 39568, Note_on_c, 3, 59, 0
5, 39591, Note_on_c, 3, 57, 117
5, 39662, Note_on_c, 3, 57, 0
5, 39684, Note_on_c, 3, 57, 117
5, 39707, Note_on_c, 3, 57, 0
5, 39738, Note_on_c, 3, 57, 117
5, 39744, Note_on_c, 3, 57, 0
5, 39765, Note_on_c, 3, 57, 117
5, 39821, Note_on_c, 3, 57, 0
5, 39843, Note_on_c, 3, 57, 117
5, 40071, Note_on_c, 3, 57, 0
5, 40086, Note_on_c, 3, 57, 117
5, 40251, Note_on_c, 3, 57, 0
5, 40259, Note_on_c, 3, 57, 117
5, 40293, Note_on_c, 3, 57, 0
5, 40309, Note_on_c, 3, 57, 117
5, 40317, Note_on_c, 3, 57, 0
5, 40336, Note_on_c, 3, 57, 117
5, 40410, Note_on_c, 3, 57, 0
5, 40429, Note_on_c, 3, 55, 117
5, 40521, Note_on_c, 3, 55, 0
5, 40557, Note_on_c, 3, 54, 117
5, 40693, Note_on_c, 3, 54, 0
5, 40783, Note_on_c, 3, 57, 117
5, 41027, Note_on_c, 3, 57, 0
5, 41036, Note_on_c, 3, 57, 117
5, 41237, Note_on_c, 3, 57, 0
5, 41274, Note_on_c, 3, 57, 117
5, 41305, Note_on_c, 3, 57, 0
5, 41315, Note_on_c, 3, 57, 117
5, 41383, Note_on_c, 3, 57, 0
5, 41410, Note_on_c, 3, 59, 117
5, 41487, Note_on_c, 3, 59, 0
5, 41523, Note_on_c, 3, 57, 117
5, 41635, Note_on_c, 3, 57, 0
5, 41662, Note_on_c, 3, 57, 117
5, 41676, Note_on_c, 3, 57, 0
5, 41698, Note_on_c, 3, 57, 117
5, 41754, Note_on_c, 3, 57, 0
5, 41775, Note_on_c, 3, 55, 117
5, 41983, Note_on_c, 3, 55, 0
5, 41995, Note_on_c, 3, 55, 117
5, 42196, Note_on_c, 3, 55, 0
5, 42216, Note_on_c, 3, 55, 117
5, 42245, Note_on_c, 3, 55, 0
5, 42257, Note_on_c, 3, 55, 117
5, 42363, Note_on_c, 3, 55, 0
5, 42386, Note_on_c, 3, 57, 117
5, 42449, Note_on_c, 3, 57, 0
5, 42483, Note_on_c, 3, 52, 117
5, 42500, Note_on_c, 3, 50, 117
5, 42532, Note_on_c, 3, 50, 0
5, 42688, Note_on_c, 3, 52, 0
5, 42712, Note_on_c, 3, 55, 117
5, 42823, Note_on_c, 3, 57, 117
5, 42825, Note_on_c, 3, 55, 0
5, 42958, Note_on_c, 3, 57, 0
5, 42971, Note_on_c, 3, 57, 117
5, 43170, Note_on_c, 3, 57, 0
5, 43189, Note_on_c, 3, 57, 117
5, 43228, Note_on_c, 3, 57, 0
5, 43235, Note_on_c, 3, 57, 117
5, 43341, Note_on_c, 3, 57, 0
5, 43344, Note_on_c, 3, 59, 117
5, 43424, Note_on_c, 3, 57, 117
5, 43430, Note_on_c, 3, 59, 0
5, 43603, Note_on_c, 3, 57, 0
5, 43617, Note_on_c, 3, 57, 117
5, 43657, Note_on_c, 3, 57, 0
5, 43679, Note_on_c, 3, 57, 117
5, 43698, Note_on_c, 3, 59, 117
5, 43704, Note_on_c, 3, 59, 0
5, 43902, Note_on_c, 3, 57, 0
5, 43913, Note_on_c, 3, 57, 117
5, 44076, Note_on_c, 3, 57, 0
5, 44103, Note_on_c, 3, 57, 117
5, 44123, Note_on_c, 3, 57, 0
5, 44154, Note_on_c, 3, 57, 117
5, 44231, Note_on_c, 3, 57, 0
5, 44246, Note_on_c, 3, 55, 117
5, 44313, Note_on_c, 3, 55, 0
5, 44333, Note_on_c, 3, 54, 117
5, 44379, Note_on_c, 3, 54, 0
5, 44393, Note_on_c, 3, 54, 117
5, 44537, Note_on_c, 3, 54, 0
5, 44621, Note_on_c, 3, 57, 117
5, 44869, Note_on_c, 3, 57, 0
5, 44878, Note_on_c, 3, 57, 117
5, 45061, Note_on_c, 3, 57, 0
5, 45086, Note_on_c, 3, 57, 117
5, 45166, Note_on_c, 3, 57, 0
5, 45176, Note_on_c, 3, 57, 117
5, 45242, Note_on_c, 3, 57, 0
5, 45259, Note_on_c, 3, 59, 117
5, 45322, Note_on_c, 3, 59, 0
5, 45349, Note_on_c, 3, 57, 117
5, 45432, Note_on_c, 3, 57, 0
5, 45506, Note_on_c, 3, 57, 117
5, 45532, Note_on_c, 3, 57, 0
5, 45548, Note_on_c, 3, 57, 117
5, 45563, Note_on_c, 3, 57, 0
5, 45591, Note_on_c, 3, 55, 117
5, 45600, Note_on_c, 3, 60, 117
5, 45819, Note_on_c, 3, 60, 0
5, 45824, Note_on_c, 3, 55, 0
5, 45833, Note_on_c, 3, 60, 117
5, 46025, Note_on_c, 3, 60, 0
5, 46059, Note_on_c, 3, 60, 117
5, 46092, Note_on_c, 3, 60, 0
5, 46105, Note_on_c, 3, 60, 117
5, 46204, Note_on_c, 3, 60, 0
5, 46220, Note_on_c, 3, 60, 117
5, 46305, Note_on_c, 3, 60, 0
5, 46316, Note_on_c, 3, 60, 117
5, 46429, Note_on_c, 3, 60, 0
5, 46549, Note_on_c, 3, 60, 117
5, 46762, Note_on_c, 3, 60, 0
5, 46800, Note_on_c, 3, 60, 117
5, 46997, Note_on_c, 3, 60, 0
5, 47040, Note_on_c, 3, 60, 117
5, 47098, Note_on_c, 3, 60, 0
5, 47100, Note_on_c, 3, 62, 117
5, 47176, Note_on_c, 3, 62, 0
5, 47176, Note_on_c, 3, 60, 117
5, 47234, Note_on_c, 3, 60, 0
5, 47278, Note_on_c, 3, 57, 117
5, 47424, Note_on_c, 3, 57, 0
5, 47440, Note_on_c, 3, 60, 117
5, 47467, Note_on_c, 3, 60, 0
5, 47478, Note_on_c, 3, 60, 117
5, 47500, Note_on_c, 3, 60, 0
5, 47557, Note_on_c, 3, 60, 117
5, 47570, Note_on_c, 3, 60, 0
5, 47582, Note_on_c, 3, 60, 117
5, 47707, Note_on_c, 3, 60, 0
5, 47724, Note_on_c, 3, 60, 117
5, 47906, Note_on_c, 3, 60, 0
5, 47922, Note_on_c, 3, 60, 117
5, 47954, Note_on_c, 3, 60, 0
5, 48007, Note_on_c, 3, 60, 117
5, 48087, Note_on_c, 3, 60, 0
5, 48100, Note_on_c, 3, 59, 117
5, 48166, Note_on_c, 3, 59, 0
5, 48188, Note_on_c, 3, 57, 117
5, 48226, Note_on_c, 3, 57, 0
5, 48248, Note_on_c, 3, 57, 117
5, 48394, Note_on_c, 3, 57, 0
5, 48401, Note_on_c, 3, 57, 117
5, 48407, Note_on_c, 3, 57, 0
5, 48463, Note_on_c, 3, 60, 117
5, 48728, Note_on_c, 3, 60, 0
5, 48735, Note_on_c, 3, 60, 117
5, 48927, Note_on_c, 3, 60, 0
5, 48949, Note_on_c, 3, 60, 117
5, 49009, Note_on_c, 3, 60, 0
5, 49024, Note_on_c, 3, 60, 117
5, 49052, Note_on_c, 3, 60, 0
5, 49054, Note_on_c, 3, 62, 117
5, 49124, Note_on_c, 3, 60, 117
5, 49128, Note_on_c, 3, 62, 0
5, 49186, Note_on_c, 3, 60, 0
5, 49208, Note_on_c, 3, 60, 117
5, 49284, Note_on_c, 3, 60, 0
5, 49301, Note_on_c, 3, 60, 117
5, 49334, Note_on_c, 3, 60, 0
5, 49347, Note_on_c, 3, 60, 117
5, 49406, Note_on_c, 3, 60, 0
5, 49443, Note_on_c, 3, 62, 117
5, 49449, Note_on_c, 3, 62, 0
5, 49460, Note_on_c, 3, 60, 117
5, 49674, Note_on_c, 3, 60, 0
5, 49686, Note_on_c, 3, 60, 117
5, 49867, Note_on_c, 3, 60, 0
5, 50393, Note_on_c, 3, 60, 117
5, 50626, Note_on_c, 3, 60, 0
5, 50641, Note_on_c, 3, 60, 117
5, 50847, Note_on_c, 3, 60, 0
5, 51349, Note_on_c, 3, 62, 117
5, 51381, Note_on_c, 3, 60, 117
5, 51394, Note_on_c, 3, 62, 0
5, 51431, Note_on_c, 3, 62, 117
5, 51472, Note_on_c, 3, 60, 0
5, 51565, Note_on_c, 3, 60, 117
5, 51584, Note_on_c, 3, 62, 0
5, 51797, Note_on_c, 3, 60, 0
5, 52316, Note_on_c, 3, 60, 117
5, 52547, Note_on_c, 3, 60, 0
5, 52566, Note_on_c, 3, 60, 117
5, 52777, Note_on_c, 3, 60, 0
5, 52777, End_track
6, 0, Start_track
6, 0, MIDI_port, 0
6, 142, Program_c, 4, 40
6, 143, Control_c, 4, 7, 80
6, 143, Control_c, 4, 10, 100
6, 50143, Note_on_c, 4, 71, 88
6, 50146, Note_on_c, 4, 72, 88
6, 50151, Note_on_c, 4, 69, 88
6, 50158, Note_on_c, 4, 69, 0
6, 50173, Note_on_c, 4, 71, 0
6, 50182, Note_on_c, 4, 72, 0
6, 50224, Note_on_c, 4, 71, 88
6, 50229, Note_on_c, 4, 69, 88
6, 50233, Note_on_c, 4, 67, 88
6, 50245, Note_on_c, 4, 67, 0
6, 50252, Note_on_c, 4, 69, 0
6, 50267, Note_on_c, 4, 71, 0
6, 50316, Note_on_c, 4, 67, 88
6, 50318, Note_on_c, 4, 65, 88
6, 50336, Note_on_c, 4, 65, 0
6, 50340, Note_on_c, 4, 67, 0
6, 50869, Note_on_c, 4, 57, 88
6, 50895, Note_on_c, 4, 60, 88
6, 50906, Note_on_c, 4, 57, 0
6, 50945, Note_on_c, 4, 64, 88
6, 50954, Note_on_c, 4, 60, 0
6, 50997, Note_on_c, 4, 64, 0
6, 50997, Note_on_c, 4, 60, 88
6, 51037, Note_on_c, 4, 57, 88
6, 51041, Note_on_c, 4, 60, 0
6, 51075, Note_on_c, 4, 57, 0
6, 51075, Note_on_c, 4, 60, 88
6, 51115, Note_on_c, 4, 60, 0
6, 51132, Note_on_c, 4, 57, 88
6, 51166, Note_on_c, 4, 57, 0
6, 51185, Note_on_c, 4, 64, 88
6, 51232, Note_on_c, 4, 60, 88
6, 51241, Note_on_c, 4, 64, 0
6, 51282, Note_on_c, 4, 57, 88
6, 51293, Note_on_c, 4, 60, 0
6, 51336, Note_on_c, 4, 57, 0
6, 52074, Note_on_c, 4, 71, 88
6, 52083, Note_on_c, 4, 72, 88
6, 52105, Note_on_c, 4, 71, 0
6, 52114, Note_on_c, 4, 72, 0
6, 52164, Note_on_c, 4, 71, 88
6, 52196, Note_on_c, 4, 71, 0
6, 52245, Note_on_c, 4, 67, 88
6, 52248, Note_on_c, 4, 65, 88
6, 52259, Note_on_c, 4, 65, 0
6, 52266, Note_on_c, 4, 67, 0
6, 52799, Note_on_c, 4, 48, 88
6, 52883, Note_on_c, 4, 52, 88
6, 52894, Note_on_c, 4, 48, 0
6, 52959, Note_on_c, 4, 52, 0
6, 52959, Note_on_c, 4, 55, 88
6, 53017, Note_on_c, 4, 55, 0
6, 53034, Note_on_c, 4, 52, 88
6, 53116, Note_on_c, 4, 48, 88
6, 53120, Note_on_c, 4, 52, 0
6, 53185, Note_on_c, 4, 48, 0
6, 53215, Note_on_c, 4, 45, 88
6, 53273, Note_on_c, 4, 48, 88
6, 53277, Note_on_c, 4, 45, 0
6, 53664, Note_on_c, 4, 48, 0
6, 53664, End_track
7, 0, Start_track
7, 0, MIDI_port, 0
7, 167, Program_c, 9, 0
7, 480, Note_on_c, 9, 44, 127
7, 480, Control_c, 9, 64, 127
7, 480, Control_c, 9, 7, 0
7, 480, Control_c, 9, 0, 6
7, 480, Control_c, 9, 32, 89
7, 480, Program_c, 9, 32
7, 480, Note_on_c, 9, 36, 127
7, 489, Control_c, 9, 7, 1
7, 499, Control_c, 9, 7, 2
7, 508, Control_c, 9, 7, 3
7, 509, Note_on_c, 9, 44, 0
7, 518, Control_c, 9, 7, 4
7, 525, Note_on_c, 9, 36, 0
7, 527, Control_c, 9, 7, 5
7, 537, Control_c, 9, 7, 6
7, 543, Note_on_c, 9, 44, 127
7, 547, Control_c, 9, 7, 7
7, 556, Control_c, 9, 7, 8
7, 566, Control_c, 9, 7, 9
7, 570, Note_on_c, 9, 44, 0
7, 575, Control_c, 9, 7, 10
7, 585, Control_c, 9, 7, 11
7, 595, Control_c, 9, 7, 12
7, 604, Control_c, 9, 7, 13
7, 614, Control_c, 9, 7, 14
7, 622, Note_on_c, 9, 44, 127
7, 623, Control_c, 9, 7, 15
7, 630, Note_on_c, 9, 38, 127
7, 633, Control_c, 9, 7, 16
7, 643, Control_c, 9, 7, 17
7, 652, Control_c, 9, 7, 18
7, 662, Control_c, 9, 7, 19
7, 664, Note_on_c, 9, 44, 0
7, 667, Note_on_c, 9, 38, 0
7, 671, Control_c, 9, 7, 20
7, 681, Control_c, 9, 7, 21
7, 690, Control_c, 9, 7, 22
7, 699, Note_on_c, 9, 44, 127
7, 700, Control_c, 9, 7, 23
7, 710, Control_c, 9, 7, 24
7, 719, Control_c, 9, 7, 25
7, 720, Note_on_c, 9, 38, 127
7, 729, Control_c, 9, 7, 26
7, 738, Control_c, 9, 7, 27
7, 742, Note_on_c, 9, 44, 0
7, 748, Control_c, 9, 7, 28
7, 758, Control_c, 9, 7, 29
7, 767, Control_c, 9, 7, 30
7, 768, Note_on_c, 9, 38, 0
7, 777, Control_c, 9, 7, 31
7, 786, Control_c, 9, 7, 32
7, 796, Control_c, 9, 7, 33
7, 797, Note_on_c, 9, 44, 127
7, 806, Control_c, 9, 7, 34
7, 815, Control_c, 9, 7, 35
7, 825, Control_c, 9, 7, 36
7, 833, Note_on_c, 9, 44, 0
7, 834, Control_c, 9, 7, 37
7, 840, Note_on_c, 9, 36, 127
7, 844, Control_c, 9, 7, 38
7, 854, Control_c, 9, 7, 39
7, 858, Note_on_c, 9, 36, 0
7, 863, Control_c, 9, 7, 40
7, 870, Note_on_c, 9, 36, 127
7, 873, Control_c, 9, 7, 41
7, 879, Note_on_c, 9, 44, 127
7, 882, Control_c, 9, 7, 42
7, 892, Control_c, 9, 7, 43
7, 901, Control_c, 9, 7, 44
7, 906, Note_on_c, 9, 36, 0
7, 911, Control_c, 9, 7, 45
7, 916, Note_on_c, 9, 44, 0
7, 921, Control_c, 9, 7, 46
7, 930, Control_c, 9, 7, 47
7, 940, Control_c, 9, 7, 48
7, 949, Control_c, 9, 7, 49
7, 952, Note_on_c, 9, 44, 127
7, 959, Control_c, 9, 7, 50
7, 960, Note_on_c, 9, 36, 127
7, 969, Control_c, 9, 7, 51
7, 978, Control_c, 9, 7, 52
7, 988, Control_c, 9, 7, 53
7, 990, Note_on_c, 9, 44, 0
7, 997, Control_c, 9, 7, 54
7, 1007, Control_c, 9, 7, 55
7, 1008, Note_on_c, 9, 36, 0
7, 1017, Control_c, 9, 7, 56
7, 1026, Control_c, 9, 7, 57
7, 1032, Note_on_c, 9, 44, 127
7, 1036, Control_c, 9, 7, 58
7, 1045, Control_c, 9, 7, 59
7, 1055, Control_c, 9, 7, 60
7, 1064, Control_c, 9, 7, 61
7, 1074, Control_c, 9, 7, 62
7, 1076, Note_on_c, 9, 44, 0
7, 1084, Control_c, 9, 7, 63
7, 1093, Control_c, 9, 7, 64
7, 1103, Control_c, 9, 7, 65
7, 1110, Note_on_c, 9, 38, 127
7, 1112, Control_c, 9, 7, 66
7, 1112, Note_on_c, 9, 44, 127
7, 1122, Control_c, 9, 7, 67
7, 1132, Control_c, 9, 7, 68
7, 1141, Note_on_c, 9, 38, 0
7, 1141, Control_c, 9, 7, 69
7, 1144, Note_on_c, 9, 44, 0
7, 1151, Control_c, 9, 7, 70
7, 1160, Control_c, 9, 7, 71
7, 1170, Control_c, 9, 7, 72
7, 1180, Control_c, 9, 7, 73
7, 1189, Control_c, 9, 7, 74
7, 1192, Note_on_c, 9, 44, 127
7, 1199, Control_c, 9, 7, 75
7, 1200, Note_on_c, 9, 38, 127
7, 1208, Control_c, 9, 7, 76
7, 1218, Control_c, 9, 7, 77
7, 1227, Note_on_c, 9, 44, 0
7, 1228, Control_c, 9, 7, 78
7, 1237, Control_c, 9, 7, 79
7, 1247, Control_c, 9, 7, 80
7, 1254, Note_on_c, 9, 38, 0
7, 1256, Control_c, 9, 7, 81
7, 1266, Control_c, 9, 7, 82
7, 1275, Note_on_c, 9, 44, 127
7, 1275, Control_c, 9, 7, 83
7, 1285, Control_c, 9, 7, 84
7, 1295, Control_c, 9, 7, 85
7, 1302, Note_on_c, 9, 44, 0
7, 1304, Control_c, 9, 7, 86
7, 1314, Control_c, 9, 7, 87
7, 1323, Control_c, 9, 7, 88
7, 1333, Control_c, 9, 7, 89
7, 1343, Control_c, 9, 7, 90
7, 1350, Note_on_c, 9, 36, 127
7, 1351, Note_on_c, 9, 44, 127
7, 1352, Control_c, 9, 7, 91
7, 1362, Control_c, 9, 7, 92
7, 1371, Control_c, 9, 7, 93
7, 1381, Note_on_c, 9, 36, 0
7, 1381, Control_c, 9, 7, 94
7, 1386, Note_on_c, 9, 44, 0
7, 1391, Control_c, 9, 7, 95
7, 1400, Control_c, 9, 7, 96
7, 1410, Control_c, 9, 7, 97
7, 1419, Control_c, 9, 7, 98
7, 1428, Note_on_c, 9, 44, 127
7, 1429, Control_c, 9, 7, 99
7, 1439, Control_c, 9, 7, 100
7, 1440, Note_on_c, 9, 36, 127
7, 1465, Note_on_c, 9, 44, 0
7, 1484, Note_on_c, 9, 36, 0
7, 1513, Note_on_c, 9, 44, 127
7, 1546, Note_on_c, 9, 44, 0
7, 1590, Note_on_c, 9, 38, 127
7, 1590, Note_on_c, 9, 44, 127
7, 1614, Note_on_c, 9, 38, 0
7, 1624, Note_on_c, 9, 44, 0
7, 1668, Note_on_c, 9, 44, 127
7, 1680, Note_on_c, 9, 38, 127
7, 1702, Note_on_c, 9, 44, 0
7, 1708, Note_on_c, 9, 38, 0
7, 1747, Note_on_c, 9, 44, 127
7, 1780, Note_on_c, 9, 44, 0
7, 1800, Note_on_c, 9, 36, 127
7, 1826, Note_on_c, 9, 44, 127
7, 1830, Note_on_c, 9, 36, 127
7, 1850, Note_on_c, 9, 36, 0
7, 1858, Note_on_c, 9, 44, 0
7, 1880, Note_on_c, 9, 36, 0
7, 1904, Note_on_c, 9, 44, 127
7, 1920, Note_on_c, 9, 36, 127
7, 1941, Note_on_c, 9, 44, 0
7, 1975, Note_on_c, 9, 36, 0
7, 1983, Note_on_c, 9, 44, 127
7, 2016, Note_on_c, 9, 44, 0
7, 2060, Note_on_c, 9, 44, 127
7, 2070, Note_on_c, 9, 38, 127
7, 2092, Note_on_c, 9, 44, 0
7, 2120, Note_on_c, 9, 38, 0
7, 2132, Note_on_c, 9, 44, 127
7, 2160, Note_on_c, 9, 38, 127
7, 2172, Note_on_c, 9, 44, 0
7, 2210, Note_on_c, 9, 38, 0
7, 2216, Note_on_c, 9, 44, 127
7, 2252, Note_on_c, 9, 44, 0
7, 2299, Note_on_c, 9, 44, 127
7, 2310, Note_on_c, 9, 36, 127
7, 2339, Note_on_c, 9, 44, 0
7, 2360, Note_on_c, 9, 36, 0
7, 2383, Note_on_c, 9, 44, 127
7, 2400, Note_on_c, 9, 36, 127
7, 2400, Note_on_c, 9, 44, 127
7, 2424, Note_on_c, 9, 44, 0
7, 2429, Note_on_c, 9, 44, 0
7, 2445, Note_on_c, 9, 36, 0
7, 2463, Note_on_c, 9, 44, 127
7, 2490, Note_on_c, 9, 44, 0
7, 2542, Note_on_c, 9, 44, 127
7, 2550, Note_on_c, 9, 38, 127
7, 2584, Note_on_c, 9, 44, 0
7, 2587, Note_on_c, 9, 38, 0
7, 2619, Note_on_c, 9, 44, 127
7, 2640, Note_on_c, 9, 38, 127
7, 2662, Note_on_c, 9, 44, 0
7, 2688, Note_on_c, 9, 38, 0
7, 2717, Note_on_c, 9, 44, 127
7, 2753, Note_on_c, 9, 44, 0
7, 2760, Note_on_c, 9, 36, 127
7, 2778, Note_on_c, 9, 36, 0
7, 2790, Note_on_c, 9, 36, 127
7, 2799, Note_on_c, 9, 44, 127
7, 2826, Note_on_c, 9, 36, 0
7, 2836, Note_on_c, 9, 44, 0
7, 2872, Note_on_c, 9, 44, 127
7, 2880, Note_on_c, 9, 36, 127
7, 2910, Note_on_c, 9, 44, 0
7, 2928, Note_on_c, 9, 36, 0
7, 2952, Note_on_c, 9, 44, 127
7, 2996, Note_on_c, 9, 44, 0
7, 3030, Note_on_c, 9, 38, 127
7, 3032, Note_on_c, 9, 44, 127
7, 3061, Note_on_c, 9, 38, 0
7, 3064, Note_on_c, 9, 44, 0
7, 3112, Note_on_c, 9, 44, 127
7, 3120, Note_on_c, 9, 38, 127
7, 3147, Note_on_c, 9, 44, 0
7, 3174, Note_on_c, 9, 38, 0
7, 3195, Note_on_c, 9, 44, 127
7, 3222, Note_on_c, 9, 44, 0
7, 3270, Note_on_c, 9, 36, 127
7, 3271, Note_on_c, 9, 44, 127
7, 3301, Note_on_c, 9, 36, 0
7, 3306, Note_on_c, 9, 44, 0
7, 3348, Note_on_c, 9, 44, 127
7, 3360, Note_on_c, 9, 36, 127
7, 3385, Note_on_c, 9, 44, 0
7, 3404, Note_on_c, 9, 36, 0
7, 3433, Note_on_c, 9, 44, 127
7, 3466, Note_on_c, 9, 44, 0
7, 3510, Note_on_c, 9, 44, 127
7, 3510, Note_on_c, 9, 38, 127
7, 3534, Note_on_c, 9, 38, 0
7, 3544, Note_on_c, 9, 44, 0
7, 3588, Note_on_c, 9, 44, 127
7, 3600, Note_on_c, 9, 38, 127
7, 3622, Note_on_c, 9, 44, 0
7, 3628, Note_on_c, 9, 38, 0
7, 3667, Note_on_c, 9, 44, 127
7, 3700, Note_on_c, 9, 44, 0
7, 3720, Note_on_c, 9, 36, 127
7, 3741, Note_on_c, 9, 36, 0
7, 3746, Note_on_c, 9, 44, 127
7, 3750, Note_on_c, 9, 36, 127
7, 3778, Note_on_c, 9, 44, 0
7, 3791, Note_on_c, 9, 36, 0
7, 3824, Note_on_c, 9, 44, 127
7, 3840, Note_on_c, 9, 36, 127
7, 3861, Note_on_c, 9, 44, 0
7, 3888, Note_on_c, 9, 36, 0
7, 3903, Note_on_c, 9, 44, 127
7, 3936, Note_on_c, 9, 44, 0
7, 3980, Note_on_c, 9, 44, 127
7, 3990, Note_on_c, 9, 38, 127
7, 4012, Note_on_c, 9, 44, 0
7, 4052, Note_on_c, 9, 44, 127
7, 4080, Note_on_c, 9, 38, 0
7, 4080, Note_on_c, 9, 38, 127
7, 4092, Note_on_c, 9, 44, 0
7, 4136, Note_on_c, 9, 44, 127
7, 4140, Note_on_c, 9, 38, 0
7, 4172, Note_on_c, 9, 44, 0
7, 4219, Note_on_c, 9, 44, 127
7, 4230, Note_on_c, 9, 36, 127
7, 4259, Note_on_c, 9, 44, 0
7, 4261, Note_on_c, 9, 36, 0
7, 4303, Note_on_c, 9, 44, 127
7, 4320, Note_on_c, 9, 36, 127
7, 4320, Note_on_c, 9, 44, 127
7, 4344, Note_on_c, 9, 44, 0
7, 4349, Note_on_c, 9, 44, 0
7, 4365, Note_on_c, 9, 36, 0
7, 4383, Note_on_c, 9, 44, 127
7, 4410, Note_on_c, 9, 44, 0
7, 4462, Note_on_c, 9, 44, 127
7, 4470, Note_on_c, 9, 38, 127
7, 4504, Note_on_c, 9, 44, 0
7, 4507, Note_on_c, 9, 38, 0
7, 4539, Note_on_c, 9, 44, 127
7, 4560, Note_on_c, 9, 38, 127
7, 4582, Note_on_c, 9, 44, 0
7, 4608, Note_on_c, 9, 38, 0
7, 4637, Note_on_c, 9, 44, 127
7, 4673, Note_on_c, 9, 44, 0
7, 4680, Note_on_c, 9, 36, 127
7, 4698, Note_on_c, 9, 36, 0
7, 4710, Note_on_c, 9, 36, 127
7, 4719, Note_on_c, 9, 44, 127
7, 4746, Note_on_c, 9, 36, 0
7, 4756, Note_on_c, 9, 44, 0
7, 4792, Note_on_c, 9, 44, 127
7, 4800, Note_on_c, 9, 36, 127
7, 4830, Note_on_c, 9, 44, 0
7, 4848, Note_on_c, 9, 36, 0
7, 4872, Note_on_c, 9, 44, 127
7, 4916, Note_on_c, 9, 44, 0
7, 4950, Note_on_c, 9, 38, 127
7, 4952, Note_on_c, 9, 44, 127
7, 4981, Note_on_c, 9, 38, 0
7, 4984, Note_on_c, 9, 44, 0
7, 5032, Note_on_c, 9, 44, 127
7, 5040, Note_on_c, 9, 38, 127
7, 5067, Note_on_c, 9, 44, 0
7, 5094, Note_on_c, 9, 38, 0
7, 5115, Note_on_c, 9, 44, 127
7, 5142, Note_on_c, 9, 44, 0
7, 5190, Note_on_c, 9, 36, 127
7, 5191, Note_on_c, 9, 44, 127
7, 5221, Note_on_c, 9, 36, 0
7, 5226, Note_on_c, 9, 44, 0
7, 5268, Note_on_c, 9, 44, 127
7, 5280, Note_on_c, 9, 36, 127
7, 5305, Note_on_c, 9, 44, 0
7, 5324, Note_on_c, 9, 36, 0
7, 5353, Note_on_c, 9, 44, 127
7, 5386, Note_on_c, 9, 44, 0
7, 5430, Note_on_c, 9, 44, 127
7, 5430, Note_on_c, 9, 38, 127
7, 5454, Note_on_c, 9, 38, 0
7, 5464, Note_on_c, 9, 44, 0
7, 5508, Note_on_c, 9, 44, 127
7, 5520, Note_on_c, 9, 38, 127
7, 5542, Note_on_c, 9, 44, 0
7, 5548, Note_on_c, 9, 38, 0
7, 5587, Note_on_c, 9, 44, 127
7, 5620, Note_on_c, 9, 44, 0
7, 5640, Note_on_c, 9, 36, 127
7, 5661, Note_on_c, 9, 36, 0
7, 5666, Note_on_c, 9, 44, 127
7, 5670, Note_on_c, 9, 36, 127
7, 5698, Note_on_c, 9, 44, 0
7, 5711, Note_on_c, 9, 36, 0
7, 5744, Note_on_c, 9, 44, 127
7, 5760, Note_on_c, 9, 36, 127
7, 5781, Note_on_c, 9, 44, 0
7, 5808, Note_on_c, 9, 36, 0
7, 5823, Note_on_c, 9, 44, 127
7, 5856, Note_on_c, 9, 44, 0
7, 5900, Note_on_c, 9, 44, 127
7, 5910, Note_on_c, 9, 38, 127
7, 5932, Note_on_c, 9, 44, 0
7, 5972, Note_on_c, 9, 44, 127
7, 6000, Note_on_c, 9, 38, 0
7, 6000, Note_on_c, 9, 38, 127
7, 6012, Note_on_c, 9, 44, 0
7, 6056, Note_on_c, 9, 44, 127
7, 6060, Note_on_c, 9, 38, 0
7, 6092, Note_on_c, 9, 44, 0
7, 6139, Note_on_c, 9, 44, 127
7, 6150, Note_on_c, 9, 36, 127
7, 6179, Note_on_c, 9, 44, 0
7, 6181, Note_on_c, 9, 36, 0
7, 6223, Note_on_c, 9, 44, 127
7, 6240, Note_on_c, 9, 36, 127
7, 6240, Note_on_c, 9, 44, 127
7, 6264, Note_on_c, 9, 44, 0
7, 6269, Note_on_c, 9, 44, 0
7, 6285, Note_on_c, 9, 36, 0
7, 6303, Note_on_c, 9, 44, 127
7, 6330, Note_on_c, 9, 44, 0
7, 6382, Note_on_c, 9, 44, 127
7, 6390, Note_on_c, 9, 38, 127
7, 6424, Note_on_c, 9, 44, 0
7, 6427, Note_on_c, 9, 38, 0
7, 6459, Note_on_c, 9, 44, 127
7, 6480, Note_on_c, 9, 38, 127
7, 6502, Note_on_c, 9, 44, 0
7, 6528, Note_on_c, 9, 38, 0
7, 6557, Note_on_c, 9, 44, 127
7, 6593, Note_on_c, 9, 44, 0
7, 6600, Note_on_c, 9, 36, 127
7, 6618, Note_on_c, 9, 36, 0
7, 6630, Note_on_c, 9, 36, 127
7, 6639, Note_on_c, 9, 44, 127
7, 6666, Note_on_c, 9, 36, 0
7, 6676, Note_on_c, 9, 44, 0
7, 6712, Note_on_c, 9, 44, 127
7, 6720, Note_on_c, 9, 36, 127
7, 6750, Note_on_c, 9, 44, 0
7, 6768, Note_on_c, 9, 36, 0
7, 6792, Note_on_c, 9, 44, 127
7, 6836, Note_on_c, 9, 44, 0
7, 6870, Note_on_c, 9, 38, 127
7, 6872, Note_on_c, 9, 44, 127
7, 6901, Note_on_c, 9, 38, 0
7, 6904, Note_on_c, 9, 44, 0
7, 6952, Note_on_c, 9, 44, 127
7, 6960, Note_on_c, 9, 38, 127
7, 6987, Note_on_c, 9, 44, 0
7, 7014, Note_on_c, 9, 38, 0
7, 7035, Note_on_c, 9, 44, 127
7, 7062, Note_on_c, 9, 44, 0
7, 7110, Note_on_c, 9, 36, 127
7, 7111, Note_on_c, 9, 44, 127
7, 7141, Note_on_c, 9, 36, 0
7, 7146, Note_on_c, 9, 44, 0
7, 7188, Note_on_c, 9, 44, 127
7, 7200, Note_on_c, 9, 36, 127
7, 7225, Note_on_c, 9, 44, 0
7, 7244, Note_on_c, 9, 36, 0
7, 7273, Note_on_c, 9, 44, 127
7, 7306, Note_on_c, 9, 44, 0
7, 7350, Note_on_c, 9, 38, 127
7, 7350, Note_on_c, 9, 44, 127
7, 7374, Note_on_c, 9, 38, 0
7, 7384, Note_on_c, 9, 44, 0
7, 7428, Note_on_c, 9, 44, 127
7, 7440, Note_on_c, 9, 38, 127
7, 7462, Note_on_c, 9, 44, 0
7, 7468, Note_on_c, 9, 38, 0
7, 7507, Note_on_c, 9, 44, 127
7, 7540, Note_on_c, 9, 44, 0
7, 7560, Note_on_c, 9, 36, 127
7, 7581, Note_on_c, 9, 36, 0
7, 7586, Note_on_c, 9, 44, 127
7, 7590, Note_on_c, 9, 36, 127
7, 7618, Note_on_c, 9, 44, 0
7, 7631, Note_on_c, 9, 36, 0
7, 7664, Note_on_c, 9, 44, 127
7, 7680, Note_on_c, 9, 36, 127
7, 7701, Note_on_c, 9, 44, 0
7, 7728, Note_on_c, 9, 36, 0
7, 7743, Note_on_c, 9, 44, 127
7, 7776, Note_on_c, 9, 44, 0
7, 7820, Note_on_c, 9, 44, 127
7, 7830, Note_on_c, 9, 38, 127
7, 7852, Note_on_c, 9, 44, 0
7, 7892, Note_on_c, 9, 44, 127
7, 7920, Note_on_c, 9, 38, 0
7, 7920, Note_on_c, 9, 38, 127
7, 7932, Note_on_c, 9, 44, 0
7, 7976, Note_on_c, 9, 44, 127
7, 7980, Note_on_c, 9, 38, 0
7, 8012, Note_on_c, 9, 44, 0
7, 8059, Note_on_c, 9, 44, 127
7, 8070, Note_on_c, 9, 36, 127
7, 8099, Note_on_c, 9, 44, 0
7, 8101, Note_on_c, 9, 36, 0
7, 8143, Note_on_c, 9, 44, 127
7, 8160, Note_on_c, 9, 36, 127
7, 8160, Note_on_c, 9, 44, 127
7, 8184, Note_on_c, 9, 44, 0
7, 8189, Note_on_c, 9, 44, 0
7, 8205, Note_on_c, 9, 36, 0
7, 8223, Note_on_c, 9, 44, 127
7, 8250, Note_on_c, 9, 44, 0
7, 8302, Note_on_c, 9, 44, 127
7, 8310, Note_on_c, 9, 38, 127
7, 8344, Note_on_c, 9, 44, 0
7, 8347, Note_on_c, 9, 38, 0
7, 8379, Note_on_c, 9, 44, 127
7, 8400, Note_on_c, 9, 38, 127
7, 8422, Note_on_c, 9, 44, 0
7, 8448, Note_on_c, 9, 38, 0
7, 8477, Note_on_c, 9, 44, 127
7, 8513, Note_on_c, 9, 44, 0
7, 8520, Note_on_c, 9, 36, 127
7, 8538, Note_on_c, 9, 36, 0
7, 8550, Note_on_c, 9, 36, 127
7, 8559, Note_on_c, 9, 44, 127
7, 8586, Note_on_c, 9, 36, 0
7, 8596, Note_on_c, 9, 44, 0
7, 8632, Note_on_c, 9, 44, 127
7, 8640, Note_on_c, 9, 36, 127
7, 8670, Note_on_c, 9, 44, 0
7, 8688, Note_on_c, 9, 36, 0
7, 8712, Note_on_c, 9, 44, 127
7, 8756, Note_on_c, 9, 44, 0
7, 8790, Note_on_c, 9, 38, 127
7, 8792, Note_on_c, 9, 44, 127
7, 8821, Note_on_c, 9, 38, 0
7, 8824, Note_on_c, 9, 44, 0
7, 8872, Note_on_c, 9, 44, 127
7, 8880, Note_on_c, 9, 38, 127
7, 8907, Note_on_c, 9, 44, 0
7, 8934, Note_on_c, 9, 38, 0
7, 8955, Note_on_c, 9, 44, 127
7, 8982, Note_on_c, 9, 44, 0
7, 9030, Note_on_c, 9, 36, 127
7, 9031, Note_on_c, 9, 44, 127
7, 9061, Note_on_c, 9, 36, 0
7, 9066, Note_on_c, 9, 44, 0
7, 9108, Note_on_c, 9, 44, 127
7, 9120, Note_on_c, 9, 36, 127
7, 9145, Note_on_c, 9, 44, 0
7, 9164, Note_on_c, 9, 36, 0
7, 9193, Note_on_c, 9, 44, 127
7, 9226, Note_on_c, 9, 44, 0
7, 9270, Note_on_c, 9, 38, 127
7, 9270, Note_on_c, 9, 44, 127
7, 9294, Note_on_c, 9, 38, 0
7, 9304, Note_on_c, 9, 44, 0
7, 9348, Note_on_c, 9, 44, 127
7, 9360, Note_on_c, 9, 38, 127
7, 9382, Note_on_c, 9, 44, 0
7, 9388, Note_on_c, 9, 38, 0
7, 9427, Note_on_c, 9, 44, 127
7, 9460, Note_on_c, 9, 44, 0
7, 9480, Note_on_c, 9, 36, 127
7, 9501, Note_on_c, 9, 36, 0
7, 9506, Note_on_c, 9, 44, 127
7, 9510, Note_on_c, 9, 36, 127
7, 9538, Note_on_c, 9, 44, 0
7, 9551, Note_on_c, 9, 36, 0
7, 9584, Note_on_c, 9, 44, 127
7, 9600, Note_on_c, 9, 36, 127
7, 9621, Note_on_c, 9, 44, 0
7, 9648, Note_on_c, 9, 36, 0
7, 9663, Note_on_c, 9, 44, 127
7, 9696, Note_on_c, 9, 44, 0
7, 9740, Note_on_c, 9, 44, 127
7, 9750, Note_on_c, 9, 38, 127
7, 9772, Note_on_c, 9, 44, 0
7, 9812, Note_on_c, 9, 44, 127
7, 9840, Note_on_c, 9, 38, 0
7, 9840, Note_on_c, 9, 38, 127
7, 9852, Note_on_c, 9, 44, 0
7, 9896, Note_on_c, 9, 44, 127
7, 9900, Note_on_c, 9, 38, 0
7, 9932, Note_on_c, 9, 44, 0
7, 9979, Note_on_c, 9, 44, 127
7, 9990, Note_on_c, 9, 36, 127
7, 10019, Note_on_c, 9, 44, 0
7, 10021, Note_on_c, 9, 36, 0
7, 10063, Note_on_c, 9, 44, 127
7, 10080, Note_on_c, 9, 44, 127
7, 10080, Note_on_c, 9, 36, 127
7, 10104, Note_on_c, 9, 44, 0
7, 10109, Note_on_c, 9, 44, 0
7, 10125, Note_on_c, 9, 36, 0
7, 10143, Note_on_c, 9, 44, 127
7, 10170, Note_on_c, 9, 44, 0
7, 10222, Note_on_c, 9, 44, 127
7, 10230, Note_on_c, 9, 38, 127
7, 10264, Note_on_c, 9, 44, 0
7, 10267, Note_on_c, 9, 38, 0
7, 10299, Note_on_c, 9, 44, 127
7, 10320, Note_on_c, 9, 38, 127
7, 10342, Note_on_c, 9, 44, 0
7, 10368, Note_on_c, 9, 38, 0
7, 10397, Note_on_c, 9, 44, 127
7, 10433, Note_on_c, 9, 44, 0
7, 10440, Note_on_c, 9, 36, 127
7, 10458, Note_on_c, 9, 36, 0
7, 10470, Note_on_c, 9, 36, 127
7, 10479, Note_on_c, 9, 44, 127
7, 10506, Note_on_c, 9, 36, 0
7, 10516, Note_on_c, 9, 44, 0
7, 10552, Note_on_c, 9, 44, 127
7, 10560, Note_on_c, 9, 36, 127
7, 10590, Note_on_c, 9, 44, 0
7, 10608, Note_on_c, 9, 36, 0
7, 10632, Note_on_c, 9, 44, 127
7, 10676, Note_on_c, 9, 44, 0
7, 10710, Note_on_c, 9, 38, 127
7, 10712, Note_on_c, 9, 44, 127
7, 10741, Note_on_c, 9, 38, 0
7, 10744, Note_on_c, 9, 44, 0
7, 10792, Note_on_c, 9, 44, 127
7, 10800, Note_on_c, 9, 38, 127
7, 10827, Note_on_c, 9, 44, 0
7, 10854, Note_on_c, 9, 38, 0
7, 10875, Note_on_c, 9, 44, 127
7, 10902, Note_on_c, 9, 44, 0
7, 10950, Note_on_c, 9, 36, 127
7, 10951, Note_on_c, 9, 44, 127
7, 10981, Note_on_c, 9, 36, 0
7, 10986, Note_on_c, 9, 44, 0
7, 11028, Note_on_c, 9, 44, 127
7, 11040, Note_on_c, 9, 36, 127
7, 11065, Note_on_c, 9, 44, 0
7, 11084, Note_on_c, 9, 36, 0
7, 11113, Note_on_c, 9, 44, 127
7, 11146, Note_on_c, 9, 44, 0
7, 11190, Note_on_c, 9, 44, 127
7, 11190, Note_on_c, 9, 38, 127
7, 11214, Note_on_c, 9, 38, 0
7, 11224, Note_on_c, 9, 44, 0
7, 11268, Note_on_c, 9, 44, 127
7, 11280, Note_on_c, 9, 38, 127
7, 11302, Note_on_c, 9, 44, 0
7, 11308, Note_on_c, 9, 38, 0
7, 11347, Note_on_c, 9, 44, 127
7, 11380, Note_on_c, 9, 44, 0
7, 11400, Note_on_c, 9, 36, 127
7, 11421, Note_on_c, 9, 36, 0
7, 11426, Note_on_c, 9, 44, 127
7, 11430, Note_on_c, 9, 36, 127
7, 11458, Note_on_c, 9, 44, 0
7, 11471, Note_on_c, 9, 36, 0
7, 11504, Note_on_c, 9, 44, 127
7, 11520, Note_on_c, 9, 36, 127
7, 11541, Note_on_c, 9, 44, 0
7, 11568, Note_on_c, 9, 36, 0
7, 11583, Note_on_c, 9, 44, 127
7, 11616, Note_on_c, 9, 44, 0
7, 11660, Note_on_c, 9, 44, 127
7, 11670, Note_on_c, 9, 38, 127
7, 11692, Note_on_c, 9, 44, 0
7, 11732, Note_on_c, 9, 44, 127
7, 11760, Note_on_c, 9, 38, 0
7, 11760, Note_on_c, 9, 38, 127
7, 11772, Note_on_c, 9, 44, 0
7, 11816, Note_on_c, 9, 44, 127
7, 11820, Note_on_c, 9, 38, 0
7, 11852, Note_on_c, 9, 44, 0
7, 11899, Note_on_c, 9, 44, 127
7, 11910, Note_on_c, 9, 36, 127
7, 11939, Note_on_c, 9, 44, 0
7, 11941, Note_on_c, 9, 36, 0
7, 11983, Note_on_c, 9, 44, 127
7, 12000, Note_on_c, 9, 36, 127
7, 12000, Note_on_c, 9, 44, 127
7, 12024, Note_on_c, 9, 44, 0
7, 12029, Note_on_c, 9, 44, 0
7, 12045, Note_on_c, 9, 36, 0
7, 12063, Note_on_c, 9, 44, 127
7, 12090, Note_on_c, 9, 44, 0
7, 12142, Note_on_c, 9, 44, 127
7, 12150, Note_on_c, 9, 38, 127
7, 12184, Note_on_c, 9, 44, 0
7, 12187, Note_on_c, 9, 38, 0
7, 12219, Note_on_c, 9, 44, 127
7, 12240, Note_on_c, 9, 38, 127
7, 12262, Note_on_c, 9, 44, 0
7, 12288, Note_on_c, 9, 38, 0
7, 12317, Note_on_c, 9, 44, 127
7, 12353, Note_on_c, 9, 44, 0
7, 12360, Note_on_c, 9, 36, 127
7, 12378, Note_on_c, 9, 36, 0
7, 12390, Note_on_c, 9, 36, 127
7, 12399, Note_on_c, 9, 44, 127
7, 12426, Note_on_c, 9, 36, 0
7, 12436, Note_on_c, 9, 44, 0
7, 12472, Note_on_c, 9, 44, 127
7, 12480, Note_on_c, 9, 36, 127
7, 12510, Note_on_c, 9, 44, 0
7, 12528, Note_on_c, 9, 36, 0
7, 12552, Note_on_c, 9, 44, 127
7, 12596, Note_on_c, 9, 44, 0
7, 12630, Note_on_c, 9, 38, 127
7, 12632, Note_on_c, 9, 44, 127
7, 12661, Note_on_c, 9, 38, 0
7, 12664, Note_on_c, 9, 44, 0
7, 12712, Note_on_c, 9, 44, 127
7, 12720, Note_on_c, 9, 38, 127
7, 12747, Note_on_c, 9, 44, 0
7, 12774, Note_on_c, 9, 38, 0
7, 12795, Note_on_c, 9, 44, 127
7, 12822, Note_on_c, 9, 44, 0
7, 12870, Note_on_c, 9, 36, 127
7, 12871, Note_on_c, 9, 44, 127
7, 12901, Note_on_c, 9, 36, 0
7, 12906, Note_on_c, 9, 44, 0
7, 12948, Note_on_c, 9, 44, 127
7, 12960, Note_on_c, 9, 36, 127
7, 12985, Note_on_c, 9, 44, 0
7, 13004, Note_on_c, 9, 36, 0
7, 13033, Note_on_c, 9, 44, 127
7, 13066, Note_on_c, 9, 44, 0
7, 13110, Note_on_c, 9, 44, 127
7, 13110, Note_on_c, 9, 38, 127
7, 13134, Note_on_c, 9, 38, 0
7, 13144, Note_on_c, 9, 44, 0
7, 13188, Note_on_c, 9, 44, 127
7, 13200, Note_on_c, 9, 38, 127
7, 13222, Note_on_c, 9, 44, 0
7, 13228, Note_on_c, 9, 38, 0
7, 13267, Note_on_c, 9, 44, 127
7, 13300, Note_on_c, 9, 44, 0
7, 13320, Note_on_c, 9, 36, 127
7, 13341, Note_on_c, 9, 36, 0
7, 13346, Note_on_c, 9, 44, 127
7, 13350, Note_on_c, 9, 36, 127
7, 13378, Note_on_c, 9, 44, 0
7, 13391, Note_on_c, 9, 36, 0
7, 13424, Note_on_c, 9, 44, 127
7, 13440, Note_on_c, 9, 36, 127
7, 13461, Note_on_c, 9, 44, 0
7, 13488, Note_on_c, 9, 36, 0
7, 13503, Note_on_c, 9, 44, 127
7, 13536, Note_on_c, 9, 44, 0
7, 13580, Note_on_c, 9, 44, 127
7, 13590, Note_on_c, 9, 38, 127
7, 13612, Note_on_c, 9, 44, 0
7, 13652, Note_on_c, 9, 44, 127
7, 13680, Note_on_c, 9, 38, 0
7, 13680, Note_on_c, 9, 38, 127
7, 13692, Note_on_c, 9, 44, 0
7, 13736, Note_on_c, 9, 44, 127
7, 13740, Note_on_c, 9, 38, 0
7, 13772, Note_on_c, 9, 44, 0
7, 13819, Note_on_c, 9, 44, 127
7, 13830, Note_on_c, 9, 36, 127
7, 13859, Note_on_c, 9, 44, 0
7, 13861, Note_on_c, 9, 36, 0
7, 13903, Note_on_c, 9, 44, 127
7, 13920, Note_on_c, 9, 44, 127
7, 13920, Note_on_c, 9, 36, 127
7, 13944, Note_on_c, 9, 44, 0
7, 13949, Note_on_c, 9, 44, 0
7, 13965, Note_on_c, 9, 36, 0
7, 13983, Note_on_c, 9, 44, 127
7, 14010, Note_on_c, 9, 44, 0
7, 14062, Note_on_c, 9, 44, 127
7, 14070, Note_on_c, 9, 38, 127
7, 14104, Note_on_c, 9, 44, 0
7, 14107, Note_on_c, 9, 38, 0
7, 14139, Note_on_c, 9, 44, 127
7, 14160, Note_on_c, 9, 38, 127
7, 14182, Note_on_c, 9, 44, 0
7, 14208, Note_on_c, 9, 38, 0
7, 14237, Note_on_c, 9, 44, 127
7, 14273, Note_on_c, 9, 44, 0
7, 14280, Note_on_c, 9, 36, 127
7, 14298, Note_on_c, 9, 36, 0
7, 14310, Note_on_c, 9, 36, 127
7, 14319, Note_on_c, 9, 44, 127
7, 14346, Note_on_c, 9, 36, 0
7, 14356, Note_on_c, 9, 44, 0
7, 14392, Note_on_c, 9, 44, 127
7, 14400, Note_on_c, 9, 36, 127
7, 14430, Note_on_c, 9, 44, 0
7, 14448, Note_on_c, 9, 36, 0
7, 14472, Note_on_c, 9, 44, 127
7, 14516, Note_on_c, 9, 44, 0
7, 14550, Note_on_c, 9, 38, 127
7, 14552, Note_on_c, 9, 44, 127
7, 14581, Note_on_c, 9, 38, 0
7, 14584, Note_on_c, 9, 44, 0
7, 14632, Note_on_c, 9, 44, 127
7, 14640, Note_on_c, 9, 38, 127
7, 14667, Note_on_c, 9, 44, 0
7, 14694, Note_on_c, 9, 38, 0
7, 14715, Note_on_c, 9, 44, 127
7, 14742, Note_on_c, 9, 44, 0
7, 14790, Note_on_c, 9, 36, 127
7, 14791, Note_on_c, 9, 44, 127
7, 14821, Note_on_c, 9, 36, 0
7, 14826, Note_on_c, 9, 44, 0
7, 14868, Note_on_c, 9, 44, 127
7, 14880, Note_on_c, 9, 36, 127
7, 14905, Note_on_c, 9, 44, 0
7, 14924, Note_on_c, 9, 36, 0
7, 14953, Note_on_c, 9, 44, 127
7, 14986, Note_on_c, 9, 44, 0
7, 15030, Note_on_c, 9, 44, 127
7, 15030, Note_on_c, 9, 38, 127
7, 15054, Note_on_c, 9, 38, 0
7, 15064, Note_on_c, 9, 44, 0
7, 15108, Note_on_c, 9, 44, 127
7, 15120, Note_on_c, 9, 38, 127
7, 15142, Note_on_c, 9, 44, 0
7, 15148, Note_on_c, 9, 38, 0
7, 15187, Note_on_c, 9, 44, 127
7, 15220, Note_on_c, 9, 44, 0
7, 15240, Note_on_c, 9, 36, 127
7, 15261, Note_on_c, 9, 36, 0
7, 15266, Note_on_c, 9, 44, 127
7, 15270, Note_on_c, 9, 36, 127
7, 15298, Note_on_c, 9, 44, 0
7, 15311, Note_on_c, 9, 36, 0
7, 15344, Note_on_c, 9, 44, 127
7, 15360, Note_on_c, 9, 36, 127
7, 15381, Note_on_c, 9, 44, 0
7, 15408, Note_on_c, 9, 36, 0
7, 15423, Note_on_c, 9, 44, 127
7, 15456, Note_on_c, 9, 44, 0
7, 15500, Note_on_c, 9, 44, 127
7, 15510, Note_on_c, 9, 38, 127
7, 15532, Note_on_c, 9, 44, 0
7, 15572, Note_on_c, 9, 44, 127
7, 15600, Note_on_c, 9, 38, 0
7, 15600, Note_on_c, 9, 38, 127
7, 15612, Note_on_c, 9, 44, 0
7, 15656, Note_on_c, 9, 44, 127
7, 15660, Note_on_c, 9, 38, 0
7, 15692, Note_on_c, 9, 44, 0
7, 15739, Note_on_c, 9, 44, 127
7, 15750, Note_on_c, 9, 36, 127
7, 15779, Note_on_c, 9, 44, 0
7, 15781, Note_on_c, 9, 36, 0
7, 15823, Note_on_c, 9, 44, 127
7, 15840, Note_on_c, 9, 36, 127
7, 15840, Note_on_c, 9, 44, 127
7, 15864, Note_on_c, 9, 44, 0
7, 15869, Note_on_c, 9, 44, 0
7, 15885, Note_on_c, 9, 36, 0
7, 15903, Note_on_c, 9, 44, 127
7, 15930, Note_on_c, 9, 44, 0
7, 15982, Note_on_c, 9, 44, 127
7, 15990, Note_on_c, 9, 38, 127
7, 16024, Note_on_c, 9, 44, 0
7, 16027, Note_on_c, 9, 38, 0
7, 16059, Note_on_c, 9, 44, 127
7, 16080, Note_on_c, 9, 38, 127
7, 16102, Note_on_c, 9, 44, 0
7, 16128, Note_on_c, 9, 38, 0
7, 16157, Note_on_c, 9, 44, 127
7, 16193, Note_on_c, 9, 44, 0
7, 16200, Note_on_c, 9, 36, 127
7, 16218, Note_on_c, 9, 36, 0
7, 16230, Note_on_c, 9, 36, 127
7, 16239, Note_on_c, 9, 44, 127
7, 16266, Note_on_c, 9, 36, 0
7, 16276, Note_on_c, 9, 44, 0
7, 16312, Note_on_c, 9, 44, 127
7, 16320, Note_on_c, 9, 36, 127
7, 16350, Note_on_c, 9, 44, 0
7, 16368, Note_on_c, 9, 36, 0
7, 16392, Note_on_c, 9, 44, 127
7, 16436, Note_on_c, 9, 44, 0
7, 16470, Note_on_c, 9, 38, 127
7, 16472, Note_on_c, 9, 44, 127
7, 16501, Note_on_c, 9, 38, 0
7, 16504, Note_on_c, 9, 44, 0
7, 16552, Note_on_c, 9, 44, 127
7, 16560, Note_on_c, 9, 38, 127
7, 16587, Note_on_c, 9, 44, 0
7, 16614, Note_on_c, 9, 38, 0
7, 16635, Note_on_c, 9, 44, 127
7, 16662, Note_on_c, 9, 44, 0
7, 16710, Note_on_c, 9, 36, 127
7, 16711, Note_on_c, 9, 44, 127
7, 16741, Note_on_c, 9, 36, 0
7, 16746, Note_on_c, 9, 44, 0
7, 16788, Note_on_c, 9, 44, 127
7, 16800, Note_on_c, 9, 36, 127
7, 16825, Note_on_c, 9, 44, 0
7, 16844, Note_on_c, 9, 36, 0
7, 16873, Note_on_c, 9, 44, 127
7, 16906, Note_on_c, 9, 44, 0
7, 16950, Note_on_c, 9, 44, 127
7, 16950, Note_on_c, 9, 38, 127
7, 16974, Note_on_c, 9, 38, 0
7, 16984, Note_on_c, 9, 44, 0
7, 17028, Note_on_c, 9, 44, 127
7, 17040, Note_on_c, 9, 38, 127
7, 17062, Note_on_c, 9, 44, 0
7, 17068, Note_on_c, 9, 38, 0
7, 17107, Note_on_c, 9, 44, 127
7, 17140, Note_on_c, 9, 44, 0
7, 17160, Note_on_c, 9, 36, 127
7, 17181, Note_on_c, 9, 36, 0
7, 17186, Note_on_c, 9, 44, 127
7, 17190, Note_on_c, 9, 36, 127
7, 17218, Note_on_c, 9, 44, 0
7, 17231, Note_on_c, 9, 36, 0
7, 17264, Note_on_c, 9, 44, 127
7, 17280, Note_on_c, 9, 36, 127
7, 17301, Note_on_c, 9, 44, 0
7, 17328, Note_on_c, 9, 36, 0
7, 17343, Note_on_c, 9, 44, 127
7, 17376, Note_on_c, 9, 44, 0
7, 17420, Note_on_c, 9, 44, 127
7, 17430, Note_on_c, 9, 38, 127
7, 17452, Note_on_c, 9, 44, 0
7, 17492, Note_on_c, 9, 44, 127
7, 17520, Note_on_c, 9, 38, 0
7, 17520, Note_on_c, 9, 38, 127
7, 17532, Note_on_c, 9, 44, 0
7, 17576, Note_on_c, 9, 44, 127
7, 17580, Note_on_c, 9, 38, 0
7, 17612, Note_on_c, 9, 44, 0
7, 17659, Note_on_c, 9, 44, 127
7, 17670, Note_on_c, 9, 36, 127
7, 17699, Note_on_c, 9, 44, 0
7, 17701, Note_on_c, 9, 36, 0
7, 17743, Note_on_c, 9, 44, 127
7, 17760, Note_on_c, 9, 36, 127
7, 17760, Note_on_c, 9, 44, 127
7, 17784, Note_on_c, 9, 44, 0
7, 17789, Note_on_c, 9, 44, 0
7, 17805, Note_on_c, 9, 36, 0
7, 17823, Note_on_c, 9, 44, 127
7, 17850, Note_on_c, 9, 44, 0
7, 17902, Note_on_c, 9, 44, 127
7, 17910, Note_on_c, 9, 38, 127
7, 17944, Note_on_c, 9, 44, 0
7, 17947, Note_on_c, 9, 38, 0
7, 17979, Note_on_c, 9, 44, 127
7, 18000, Note_on_c, 9, 38, 127
7, 18022, Note_on_c, 9, 44, 0
7, 18048, Note_on_c, 9, 38, 0
7, 18077, Note_on_c, 9, 44, 127
7, 18113, Note_on_c, 9, 44, 0
7, 18120, Note_on_c, 9, 36, 127
7, 18138, Note_on_c, 9, 36, 0
7, 18150, Note_on_c, 9, 36, 127
7, 18159, Note_on_c, 9, 44, 127
7, 18186, Note_on_c, 9, 36, 0
7, 18196, Note_on_c, 9, 44, 0
7, 18232, Note_on_c, 9, 44, 127
7, 18240, Note_on_c, 9, 36, 127
7, 18270, Note_on_c, 9, 44, 0
7, 18288, Note_on_c, 9, 36, 0
7, 18312, Note_on_c, 9, 44, 127
7, 18356, Note_on_c, 9, 44, 0
7, 18390, Note_on_c, 9, 38, 127
7, 18392, Note_on_c, 9, 44, 127
7, 18421, Note_on_c, 9, 38, 0
7, 18424, Note_on_c, 9, 44, 0
7, 18472, Note_on_c, 9, 44, 127
7, 18480, Note_on_c, 9, 38, 127
7, 18507, Note_on_c, 9, 44, 0
7, 18534, Note_on_c, 9, 38, 0
7, 18555, Note_on_c, 9, 44, 127
7, 18582, Note_on_c, 9, 44, 0
7, 18630, Note_on_c, 9, 36, 127
7, 18631, Note_on_c, 9, 44, 127
7, 18661, Note_on_c, 9, 36, 0
7, 18666, Note_on_c, 9, 44, 0
7, 18708, Note_on_c, 9, 44, 127
7, 18720, Note_on_c, 9, 36, 127
7, 18745, Note_on_c, 9, 44, 0
7, 18764, Note_on_c, 9, 36, 0
7, 18793, Note_on_c, 9, 44, 127
7, 18826, Note_on_c, 9, 44, 0
7, 18870, Note_on_c, 9, 44, 127
7, 18870, Note_on_c, 9, 38, 127
7, 18894, Note_on_c, 9, 38, 0
7, 18904, Note_on_c, 9, 44, 0
7, 18948, Note_on_c, 9, 44, 127
7, 18960, Note_on_c, 9, 38, 127
7, 18982, Note_on_c, 9, 44, 0
7, 18988, Note_on_c, 9, 38, 0
7, 19027, Note_on_c, 9, 44, 127
7, 19060, Note_on_c, 9, 44, 0
7, 19080, Note_on_c, 9, 36, 127
7, 19101, Note_on_c, 9, 36, 0
7, 19106, Note_on_c, 9, 44, 127
7, 19110, Note_on_c, 9, 36, 127
7, 19138, Note_on_c, 9, 44, 0
7, 19151, Note_on_c, 9, 36, 0
7, 19184, Note_on_c, 9, 44, 127
7, 19200, Note_on_c, 9, 36, 127
7, 19221, Note_on_c, 9, 44, 0
7, 19248, Note_on_c, 9, 36, 0
7, 19263, Note_on_c, 9, 44, 127
7, 19296, Note_on_c, 9, 44, 0
7, 19340, Note_on_c, 9, 44, 127
7, 19350, Note_on_c, 9, 38, 127
7, 19372, Note_on_c, 9, 44, 0
7, 19412, Note_on_c, 9, 44, 127
7, 19440, Note_on_c, 9, 38, 0
7, 19440, Note_on_c, 9, 38, 127
7, 19452, Note_on_c, 9, 44, 0
7, 19496, Note_on_c, 9, 44, 127
7, 19500, Note_on_c, 9, 38, 0
7, 19532, Note_on_c, 9, 44, 0
7, 19579, Note_on_c, 9, 44, 127
7, 19590, Note_on_c, 9, 36, 127
7, 19619, Note_on_c, 9, 44, 0
7, 19621, Note_on_c, 9, 36, 0
7, 19663, Note_on_c, 9, 44, 127
7, 19680, Note_on_c, 9, 36, 127
7, 19680, Note_on_c, 9, 44, 127
7, 19704, Note_on_c, 9, 44, 0
7, 19709, Note_on_c, 9, 44, 0
7, 19725, Note_on_c, 9, 36, 0
7, 19743, Note_on_c, 9, 44, 127
7, 19770, Note_on_c, 9, 44, 0
7, 19822, Note_on_c, 9, 44, 127
7, 19830, Note_on_c, 9, 38, 127
7, 19864, Note_on_c, 9, 44, 0
7, 19867, Note_on_c, 9, 38, 0
7, 19899, Note_on_c, 9, 44, 127
7, 19920, Note_on_c, 9, 38, 127
7, 19942, Note_on_c, 9, 44, 0
7, 19968, Note_on_c, 9, 38, 0
7, 19997, Note_on_c, 9, 44, 127
7, 20033, Note_on_c, 9, 44, 0
7, 20040, Note_on_c, 9, 36, 127
7, 20058, Note_on_c, 9, 36, 0
7, 20070, Note_on_c, 9, 36, 127
7, 20079, Note_on_c, 9, 44, 127
7, 20106, Note_on_c, 9, 36, 0
7, 20116, Note_on_c, 9, 44, 0
7, 20152, Note_on_c, 9, 44, 127
7, 20160, Note_on_c, 9, 36, 127
7, 20190, Note_on_c, 9, 44, 0
7, 20208, Note_on_c, 9, 36, 0
7, 20232, Note_on_c, 9, 44, 127
7, 20276, Note_on_c, 9, 44, 0
7, 20310, Note_on_c, 9, 38, 127
7, 20312, Note_on_c, 9, 44, 127
7, 20341, Note_on_c, 9, 38, 0
7, 20344, Note_on_c, 9, 44, 0
7, 20392, Note_on_c, 9, 44, 127
7, 20400, Note_on_c, 9, 38, 127
7, 20427, Note_on_c, 9, 44, 0
7, 20454, Note_on_c, 9, 38, 0
7, 20475, Note_on_c, 9, 44, 127
7, 20502, Note_on_c, 9, 44, 0
7, 20550, Note_on_c, 9, 36, 127
7, 20551, Note_on_c, 9, 44, 127
7, 20581, Note_on_c, 9, 36, 0
7, 20586, Note_on_c, 9, 44, 0
7, 20628, Note_on_c, 9, 44, 127
7, 20640, Note_on_c, 9, 36, 127
7, 20665, Note_on_c, 9, 44, 0
7, 20684, Note_on_c, 9, 36, 0
7, 20713, Note_on_c, 9, 44, 127
7, 20746, Note_on_c, 9, 44, 0
7, 20790, Note_on_c, 9, 38, 127
7, 20790, Note_on_c, 9, 44, 127
7, 20814, Note_on_c, 9, 38, 0
7, 20824, Note_on_c, 9, 44, 0
7, 20868, Note_on_c, 9, 44, 127
7, 20880, Note_on_c, 9, 38, 127
7, 20902, Note_on_c, 9, 44, 0
7, 20908, Note_on_c, 9, 38, 0
7, 20947, Note_on_c, 9, 44, 127
7, 20980, Note_on_c, 9, 44, 0
7, 21000, Note_on_c, 9, 36, 127
7, 21021, Note_on_c, 9, 36, 0
7, 21026, Note_on_c, 9, 44, 127
7, 21030, Note_on_c, 9, 36, 127
7, 21058, Note_on_c, 9, 44, 0
7, 21071, Note_on_c, 9, 36, 0
7, 21104, Note_on_c, 9, 44, 127
7, 21120, Note_on_c, 9, 36, 127
7, 21141, Note_on_c, 9, 44, 0
7, 21168, Note_on_c, 9, 36, 0
7, 21183, Note_on_c, 9, 44, 127
7, 21216, Note_on_c, 9, 44, 0
7, 21260, Note_on_c, 9, 44, 127
7, 21270, Note_on_c, 9, 38, 127
7, 21292, Note_on_c, 9, 44, 0
7, 21332, Note_on_c, 9, 44, 127
7, 21360, Note_on_c, 9, 38, 0
7, 21360, Note_on_c, 9, 38, 127
7, 21372, Note_on_c, 9, 44, 0
7, 21416, Note_on_c, 9, 44, 127
7, 21420, Note_on_c, 9, 38, 0
7, 21452, Note_on_c, 9, 44, 0
7, 21499, Note_on_c, 9, 44, 127
7, 21510, Note_on_c, 9, 36, 127
7, 21539, Note_on_c, 9, 44, 0
7, 21541, Note_on_c, 9, 36, 0
7, 21583, Note_on_c, 9, 44, 127
7, 21600, Note_on_c, 9, 36, 127
7, 21624, Note_on_c, 9, 44, 0
7, 21644, Note_on_c, 9, 36, 0
7, 21673, Note_on_c, 9, 44, 127
7, 21706, Note_on_c, 9, 44, 0
7, 21750, Note_on_c, 9, 44, 127
7, 21750, Note_on_c, 9, 38, 127
7, 21774, Note_on_c, 9, 38, 0
7, 21784, Note_on_c, 9, 44, 0
7, 21828, Note_on_c, 9, 44, 127
7, 21840, Note_on_c, 9, 38, 127
7, 21862, Note_on_c, 9, 44, 0
7, 21868, Note_on_c, 9, 38, 0
7, 21907, Note_on_c, 9, 44, 127
7, 21940, Note_on_c, 9, 44, 0
7, 21960, Note_on_c, 9, 36, 127
7, 21981, Note_on_c, 9, 36, 0
7, 21986, Note_on_c, 9, 44, 127
7, 21990, Note_on_c, 9, 36, 127
7, 22018, Note_on_c, 9, 44, 0
7, 22031, Note_on_c, 9, 36, 0
7, 22064, Note_on_c, 9, 44, 127
7, 22080, Note_on_c, 9, 36, 127
7, 22101, Note_on_c, 9, 44, 0
7, 22128, Note_on_c, 9, 36, 0
7, 22143, Note_on_c, 9, 44, 127
7, 22176, Note_on_c, 9, 44, 0
7, 22220, Note_on_c, 9, 44, 127
7, 22230, Note_on_c, 9, 38, 127
7, 22252, Note_on_c, 9, 44, 0
7, 22292, Note_on_c, 9, 44, 127
7, 22320, Note_on_c, 9, 38, 0
7, 22320, Note_on_c, 9, 38, 127
7, 22332, Note_on_c, 9, 44, 0
7, 22376, Note_on_c, 9, 44, 127
7, 22380, Note_on_c, 9, 38, 0
7, 22412, Note_on_c, 9, 44, 0
7, 22459, Note_on_c, 9, 44, 127
7, 22470, Note_on_c, 9, 36, 127
7, 22499, Note_on_c, 9, 44, 0
7, 22501, Note_on_c, 9, 36, 0
7, 22543, Note_on_c, 9, 44, 127
7, 22560, Note_on_c, 9, 44, 127
7, 22560, Note_on_c, 9, 36, 127
7, 22584, Note_on_c, 9, 44, 0
7, 22589, Note_on_c, 9, 44, 0
7, 22605, Note_on_c, 9, 36, 0
7, 22623, Note_on_c, 9, 44, 127
7, 22650, Note_on_c, 9, 44, 0
7, 22702, Note_on_c, 9, 44, 127
7, 22710, Note_on_c, 9, 38, 127
7, 22744, Note_on_c, 9, 44, 0
7, 22747, Note_on_c, 9, 38, 0
7, 22779, Note_on_c, 9, 44, 127
7, 22800, Note_on_c, 9, 38, 127
7, 22822, Note_on_c, 9, 44, 0
7, 22848, Note_on_c, 9, 38, 0
7, 22877, Note_on_c, 9, 44, 127
7, 22913, Note_on_c, 9, 44, 0
7, 22920, Note_on_c, 9, 36, 127
7, 22938, Note_on_c, 9, 36, 0
7, 22950, Note_on_c, 9, 36, 127
7, 22959, Note_on_c, 9, 44, 127
7, 22986, Note_on_c, 9, 36, 0
7, 22996, Note_on_c, 9, 44, 0
7, 23032, Note_on_c, 9, 44, 127
7, 23040, Note_on_c, 9, 36, 127
7, 23070, Note_on_c, 9, 44, 0
7, 23088, Note_on_c, 9, 36, 0
7, 23112, Note_on_c, 9, 44, 127
7, 23156, Note_on_c, 9, 44, 0
7, 23190, Note_on_c, 9, 38, 127
7, 23192, Note_on_c, 9, 44, 127
7, 23221, Note_on_c, 9, 38, 0
7, 23224, Note_on_c, 9, 44, 0
7, 23272, Note_on_c, 9, 44, 127
7, 23280, Note_on_c, 9, 38, 127
7, 23307, Note_on_c, 9, 44, 0
7, 23334, Note_on_c, 9, 38, 0
7, 23355, Note_on_c, 9, 44, 127
7, 23382, Note_on_c, 9, 44, 0
7, 23430, Note_on_c, 9, 36, 127
7, 23431, Note_on_c, 9, 44, 127
7, 23461, Note_on_c, 9, 36, 0
7, 23466, Note_on_c, 9, 44, 0
7, 23508, Note_on_c, 9, 44, 127
7, 23520, Note_on_c, 9, 36, 127
7, 23545, Note_on_c, 9, 44, 0
7, 23564, Note_on_c, 9, 36, 0
7, 23593, Note_on_c, 9, 44, 127
7, 23626, Note_on_c, 9, 44, 0
7, 23670, Note_on_c, 9, 44, 127
7, 23670, Note_on_c, 9, 38, 127
7, 23694, Note_on_c, 9, 38, 0
7, 23704, Note_on_c, 9, 44, 0
7, 23748, Note_on_c, 9, 44, 127
7, 23760, Note_on_c, 9, 38, 127
7, 23782, Note_on_c, 9, 44, 0
7, 23788, Note_on_c, 9, 38, 0
7, 23827, Note_on_c, 9, 44, 127
7, 23860, Note_on_c, 9, 44, 0
7, 23880, Note_on_c, 9, 36, 127
7, 23901, Note_on_c, 9, 36, 0
7, 23906, Note_on_c, 9, 44, 127
7, 23910, Note_on_c, 9, 36, 127
7, 23938, Note_on_c, 9, 44, 0
7, 23951, Note_on_c, 9, 36, 0
7, 23984, Note_on_c, 9, 44, 127
7, 24000, Note_on_c, 9, 36, 127
7, 24021, Note_on_c, 9, 44, 0
7, 24048, Note_on_c, 9, 36, 0
7, 24063, Note_on_c, 9, 44, 127
7, 24096, Note_on_c, 9, 44, 0
7, 24140, Note_on_c, 9, 44, 127
7, 24150, Note_on_c, 9, 38, 127
7, 24172, Note_on_c, 9, 44, 0
7, 24212, Note_on_c, 9, 44, 127
7, 24240, Note_on_c, 9, 38, 0
7, 24240, Note_on_c, 9, 38, 127
7, 24252, Note_on_c, 9, 44, 0
7, 24296, Note_on_c, 9, 44, 127
7, 24300, Note_on_c, 9, 38, 0
7, 24332, Note_on_c, 9, 44, 0
7, 24379, Note_on_c, 9, 44, 127
7, 24390, Note_on_c, 9, 36, 127
7, 24419, Note_on_c, 9, 44, 0
7, 24421, Note_on_c, 9, 36, 0
7, 24463, Note_on_c, 9, 44, 127
7, 24480, Note_on_c, 9, 36, 127
7, 24480, Note_on_c, 9, 44, 127
7, 24504, Note_on_c, 9, 44, 0
7, 24509, Note_on_c, 9, 44, 0
7, 24525, Note_on_c, 9, 36, 0
7, 24543, Note_on_c, 9, 44, 127
7, 24570, Note_on_c, 9, 44, 0
7, 24622, Note_on_c, 9, 44, 127
7, 24630, Note_on_c, 9, 38, 127
7, 24664, Note_on_c, 9, 44, 0
7, 24667, Note_on_c, 9, 38, 0
7, 24699, Note_on_c, 9, 44, 127
7, 24720, Note_on_c, 9, 38, 127
7, 24742, Note_on_c, 9, 44, 0
7, 24768, Note_on_c, 9, 38, 0
7, 24797, Note_on_c, 9, 44, 127
7, 24833, Note_on_c, 9, 44, 0
7, 24840, Note_on_c, 9, 36, 127
7, 24858, Note_on_c, 9, 36, 0
7, 24870, Note_on_c, 9, 36, 127
7, 24879, Note_on_c, 9, 44, 127
7, 24906, Note_on_c, 9, 36, 0
7, 24916, Note_on_c, 9, 44, 0
7, 24952, Note_on_c, 9, 44, 127
7, 24960, Note_on_c, 9, 36, 127
7, 24990, Note_on_c, 9, 44, 0
7, 25008, Note_on_c, 9, 36, 0
7, 25032, Note_on_c, 9, 44, 127
7, 25076, Note_on_c, 9, 44, 0
7, 25110, Note_on_c, 9, 38, 127
7, 25112, Note_on_c, 9, 44, 127
7, 25141, Note_on_c, 9, 38, 0
7, 25144, Note_on_c, 9, 44, 0
7, 25192, Note_on_c, 9, 44, 127
7, 25200, Note_on_c, 9, 38, 127
7, 25227, Note_on_c, 9, 44, 0
7, 25254, Note_on_c, 9, 38, 0
7, 25275, Note_on_c, 9, 44, 127
7, 25302, Note_on_c, 9, 44, 0
7, 25350, Note_on_c, 9, 36, 127
7, 25351, Note_on_c, 9, 44, 127
7, 25381, Note_on_c, 9, 36, 0
7, 25386, Note_on_c, 9, 44, 0
7, 25428, Note_on_c, 9, 44, 127
7, 25440, Note_on_c, 9, 36, 127
7, 25465, Note_on_c, 9, 44, 0
7, 25484, Note_on_c, 9, 36, 0
7, 25513, Note_on_c, 9, 44, 127
7, 25546, Note_on_c, 9, 44, 0
7, 25590, Note_on_c, 9, 38, 127
7, 25590, Note_on_c, 9, 44, 127
7, 25614, Note_on_c, 9, 38, 0
7, 25624, Note_on_c, 9, 44, 0
7, 25668, Note_on_c, 9, 44, 127
7, 25680, Note_on_c, 9, 38, 127
7, 25702, Note_on_c, 9, 44, 0
7, 25708, Note_on_c, 9, 38, 0
7, 25747, Note_on_c, 9, 44, 127
7, 25780, Note_on_c, 9, 44, 0
7, 25800, Note_on_c, 9, 36, 127
7, 25821, Note_on_c, 9, 36, 0
7, 25826, Note_on_c, 9, 44, 127
7, 25830, Note_on_c, 9, 36, 127
7, 25858, Note_on_c, 9, 44, 0
7, 25871, Note_on_c, 9, 36, 0
7, 25904, Note_on_c, 9, 44, 127
7, 25920, Note_on_c, 9, 36, 127
7, 25941, Note_on_c, 9, 44, 0
7, 25968, Note_on_c, 9, 36, 0
7, 25983, Note_on_c, 9, 44, 127
7, 26016, Note_on_c, 9, 44, 0
7, 26060, Note_on_c, 9, 44, 127
7, 26070, Note_on_c, 9, 38, 127
7, 26092, Note_on_c, 9, 44, 0
7, 26132, Note_on_c, 9, 44, 127
7, 26160, Note_on_c, 9, 38, 0
7, 26160, Note_on_c, 9, 38, 127
7, 26172, Note_on_c, 9, 44, 0
7, 26216, Note_on_c, 9, 44, 127
7, 26220, Note_on_c, 9, 38, 0
7, 26252, Note_on_c, 9, 44, 0
7, 26299, Note_on_c, 9, 44, 127
7, 26310, Note_on_c, 9, 36, 127
7, 26339, Note_on_c, 9, 44, 0
7, 26341, Note_on_c, 9, 36, 0
7, 26383, Note_on_c, 9, 44, 127
7, 26400, Note_on_c, 9, 36, 127
7, 26400, Note_on_c, 9, 44, 127
7, 26424, Note_on_c, 9, 44, 0
7, 26429, Note_on_c, 9, 44, 0
7, 26445, Note_on_c, 9, 36, 0
7, 26463, Note_on_c, 9, 44, 127
7, 26490, Note_on_c, 9, 44, 0
7, 26542, Note_on_c, 9, 44, 127
7, 26550, Note_on_c, 9, 38, 127
7, 26584, Note_on_c, 9, 44, 0
7, 26587, Note_on_c, 9, 38, 0
7, 26619, Note_on_c, 9, 44, 127
7, 26640, Note_on_c, 9, 38, 127
7, 26662, Note_on_c, 9, 44, 0
7, 26688, Note_on_c, 9, 38, 0
7, 26717, Note_on_c, 9, 44, 127
7, 26753, Note_on_c, 9, 44, 0
7, 26760, Note_on_c, 9, 36, 127
7, 26778, Note_on_c, 9, 36, 0
7, 26790, Note_on_c, 9, 36, 127
7, 26799, Note_on_c, 9, 44, 127
7, 26826, Note_on_c, 9, 36, 0
7, 26836, Note_on_c, 9, 44, 0
7, 26872, Note_on_c, 9, 44, 127
7, 26880, Note_on_c, 9, 36, 127
7, 26910, Note_on_c, 9, 44, 0
7, 26928, Note_on_c, 9, 36, 0
7, 26952, Note_on_c, 9, 44, 127
7, 26996, Note_on_c, 9, 44, 0
7, 27030, Note_on_c, 9, 38, 127
7, 27032, Note_on_c, 9, 44, 127
7, 27061, Note_on_c, 9, 38, 0
7, 27064, Note_on_c, 9, 44, 0
7, 27112, Note_on_c, 9, 44, 127
7, 27120, Note_on_c, 9, 38, 127
7, 27147, Note_on_c, 9, 44, 0
7, 27174, Note_on_c, 9, 38, 0
7, 27195, Note_on_c, 9, 44, 127
7, 27222, Note_on_c, 9, 44, 0
7, 27270, Note_on_c, 9, 36, 127
7, 27271, Note_on_c, 9, 44, 127
7, 27301, Note_on_c, 9, 36, 0
7, 27306, Note_on_c, 9, 44, 0
7, 27348, Note_on_c, 9, 44, 127
7, 27360, Note_on_c, 9, 36, 127
7, 27385, Note_on_c, 9, 44, 0
7, 27404, Note_on_c, 9, 36, 0
7, 27433, Note_on_c, 9, 44, 127
7, 27466, Note_on_c, 9, 44, 0
7, 27510, Note_on_c, 9, 38, 127
7, 27510, Note_on_c, 9, 44, 127
7, 27534, Note_on_c, 9, 38, 0
7, 27544, Note_on_c, 9, 44, 0
7, 27588, Note_on_c, 9, 44, 127
7, 27600, Note_on_c, 9, 38, 127
7, 27622, Note_on_c, 9, 44, 0
7, 27628, Note_on_c, 9, 38, 0
7, 27667, Note_on_c, 9, 44, 127
7, 27700, Note_on_c, 9, 44, 0
7, 27720, Note_on_c, 9, 36, 127
7, 27741, Note_on_c, 9, 36, 0
7, 27746, Note_on_c, 9, 44, 127
7, 27750, Note_on_c, 9, 36, 127
7, 27778, Note_on_c, 9, 44, 0
7, 27791, Note_on_c, 9, 36, 0
7, 27824, Note_on_c, 9, 44, 127
7, 27840, Note_on_c, 9, 36, 127
7, 27861, Note_on_c, 9, 44, 0
7, 27888, Note_on_c, 9, 36, 0
7, 27903, Note_on_c, 9, 44, 127
7, 27936, Note_on_c, 9, 44, 0
7, 27980, Note_on_c, 9, 44, 127
7, 27990, Note_on_c, 9, 38, 127
7, 28012, Note_on_c, 9, 44, 0
7, 28052, Note_on_c, 9, 44, 127
7, 28080, Note_on_c, 9, 38, 0
7, 28080, Note_on_c, 9, 38, 127
7, 28092, Note_on_c, 9, 44, 0
7, 28136, Note_on_c, 9, 44, 127
7, 28140, Note_on_c, 9, 38, 0
7, 28172, Note_on_c, 9, 44, 0
7, 28219, Note_on_c, 9, 44, 127
7, 28230, Note_on_c, 9, 36, 127
7, 28259, Note_on_c, 9, 44, 0
7, 28261, Note_on_c, 9, 36, 0
7, 28303, Note_on_c, 9, 44, 127
7, 28320, Note_on_c, 9, 44, 127
7, 28320, Note_on_c, 9, 36, 127
7, 28344, Note_on_c, 9, 44, 0
7, 28349, Note_on_c, 9, 44, 0
7, 28365, Note_on_c, 9, 36, 0
7, 28383, Note_on_c, 9, 44, 127
7, 28410, Note_on_c, 9, 44, 0
7, 28462, Note_on_c, 9, 44, 127
7, 28470, Note_on_c, 9, 38, 127
7, 28504, Note_on_c, 9, 44, 0
7, 28507, Note_on_c, 9, 38, 0
7, 28539, Note_on_c, 9, 44, 127
7, 28560, Note_on_c, 9, 38, 127
7, 28582, Note_on_c, 9, 44, 0
7, 28608, Note_on_c, 9, 38, 0
7, 28637, Note_on_c, 9, 44, 127
7, 28673, Note_on_c, 9, 44, 0
7, 28680, Note_on_c, 9, 36, 127
7, 28698, Note_on_c, 9, 36, 0
7, 28710, Note_on_c, 9, 36, 127
7, 28719, Note_on_c, 9, 44, 127
7, 28746, Note_on_c, 9, 36, 0
7, 28756, Note_on_c, 9, 44, 0
7, 28792, Note_on_c, 9, 44, 127
7, 28800, Note_on_c, 9, 36, 127
7, 28830, Note_on_c, 9, 44, 0
7, 28848, Note_on_c, 9, 36, 0
7, 28872, Note_on_c, 9, 44, 127
7, 28916, Note_on_c, 9, 44, 0
7, 28950, Note_on_c, 9, 38, 127
7, 28952, Note_on_c, 9, 44, 127
7, 28981, Note_on_c, 9, 38, 0
7, 28984, Note_on_c, 9, 44, 0
7, 29032, Note_on_c, 9, 44, 127
7, 29040, Note_on_c, 9, 38, 127
7, 29067, Note_on_c, 9, 44, 0
7, 29094, Note_on_c, 9, 38, 0
7, 29115, Note_on_c, 9, 44, 127
7, 29142, Note_on_c, 9, 44, 0
7, 29190, Note_on_c, 9, 36, 127
7, 29191, Note_on_c, 9, 44, 127
7, 29221, Note_on_c, 9, 36, 0
7, 29226, Note_on_c, 9, 44, 0
7, 29268, Note_on_c, 9, 44, 127
7, 29280, Note_on_c, 9, 36, 127
7, 29305, Note_on_c, 9, 44, 0
7, 29324, Note_on_c, 9, 36, 0
7, 29353, Note_on_c, 9, 44, 127
7, 29386, Note_on_c, 9, 44, 0
7, 29430, Note_on_c, 9, 44, 127
7, 29430, Note_on_c, 9, 38, 127
7, 29454, Note_on_c, 9, 38, 0
7, 29464, Note_on_c, 9, 44, 0
7, 29508, Note_on_c, 9, 44, 127
7, 29520, Note_on_c, 9, 38, 127
7, 29542, Note_on_c, 9, 44, 0
7, 29548, Note_on_c, 9, 38, 0
7, 29587, Note_on_c, 9, 44, 127
7, 29620, Note_on_c, 9, 44, 0
7, 29640, Note_on_c, 9, 36, 127
7, 29661, Note_on_c, 9, 36, 0
7, 29666, Note_on_c, 9, 44, 127
7, 29670, Note_on_c, 9, 36, 127
7, 29698, Note_on_c, 9, 44, 0
7, 29711, Note_on_c, 9, 36, 0
7, 29744, Note_on_c, 9, 44, 127
7, 29760, Note_on_c, 9, 36, 127
7, 29781, Note_on_c, 9, 44, 0
7, 29808, Note_on_c, 9, 36, 0
7, 29823, Note_on_c, 9, 44, 127
7, 29856, Note_on_c, 9, 44, 0
7, 29900, Note_on_c, 9, 44, 127
7, 29910, Note_on_c, 9, 38, 127
7, 29932, Note_on_c, 9, 44, 0
7, 29972, Note_on_c, 9, 44, 127
7, 30000, Note_on_c, 9, 38, 0
7, 30000, Note_on_c, 9, 38, 127
7, 30012, Note_on_c, 9, 44, 0
7, 30056, Note_on_c, 9, 44, 127
7, 30060, Note_on_c, 9, 38, 0
7, 30092, Note_on_c, 9, 44, 0
7, 30139, Note_on_c, 9, 44, 127
7, 30150, Note_on_c, 9, 36, 127
7, 30179, Note_on_c, 9, 44, 0
7, 30181, Note_on_c, 9, 36, 0
7, 30223, Note_on_c, 9, 44, 127
7, 30240, Note_on_c, 9, 44, 127
7, 30240, Note_on_c, 9, 36, 127
7, 30264, Note_on_c, 9, 44, 0
7, 30269, Note_on_c, 9, 44, 0
7, 30285, Note_on_c, 9, 36, 0
7, 30303, Note_on_c, 9, 44, 127
7, 30330, Note_on_c, 9, 44, 0
7, 30382, Note_on_c, 9, 44, 127
7, 30390, Note_on_c, 9, 38, 127
7, 30424, Note_on_c, 9, 44, 0
7, 30427, Note_on_c, 9, 38, 0
7, 30459, Note_on_c, 9, 44, 127
7, 30480, Note_on_c, 9, 38, 127
7, 30502, Note_on_c, 9, 44, 0
7, 30528, Note_on_c, 9, 38, 0
7, 30557, Note_on_c, 9, 44, 127
7, 30593, Note_on_c, 9, 44, 0
7, 30600, Note_on_c, 9, 36, 127
7, 30618, Note_on_c, 9, 36, 0
7, 30630, Note_on_c, 9, 36, 127
7, 30639, Note_on_c, 9, 44, 127
7, 30666, Note_on_c, 9, 36, 0
7, 30676, Note_on_c, 9, 44, 0
7, 30712, Note_on_c, 9, 44, 127
7, 30720, Note_on_c, 9, 36, 127
7, 30750, Note_on_c, 9, 44, 0
7, 30768, Note_on_c, 9, 36, 0
7, 30792, Note_on_c, 9, 44, 127
7, 30836, Note_on_c, 9, 44, 0
7, 30870, Note_on_c, 9, 38, 127
7, 30872, Note_on_c, 9, 44, 127
7, 30901, Note_on_c, 9, 38, 0
7, 30904, Note_on_c, 9, 44, 0
7, 30952, Note_on_c, 9, 44, 127
7, 30960, Note_on_c, 9, 38, 127
7, 30987, Note_on_c, 9, 44, 0
7, 31014, Note_on_c, 9, 38, 0
7, 31035, Note_on_c, 9, 44, 127
7, 31062, Note_on_c, 9, 44, 0
7, 31110, Note_on_c, 9, 36, 127
7, 31111, Note_on_c, 9, 44, 127
7, 31141, Note_on_c, 9, 36, 0
7, 31146, Note_on_c, 9, 44, 0
7, 31188, Note_on_c, 9, 44, 127
7, 31200, Note_on_c, 9, 36, 127
7, 31225, Note_on_c, 9, 44, 0
7, 31244, Note_on_c, 9, 36, 0
7, 31273, Note_on_c, 9, 44, 127
7, 31306, Note_on_c, 9, 44, 0
7, 31350, Note_on_c, 9, 38, 127
7, 31350, Note_on_c, 9, 44, 127
7, 31374, Note_on_c, 9, 38, 0
7, 31384, Note_on_c, 9, 44, 0
7, 31428, Note_on_c, 9, 44, 127
7, 31440, Note_on_c, 9, 38, 127
7, 31462, Note_on_c, 9, 44, 0
7, 31468, Note_on_c, 9, 38, 0
7, 31507, Note_on_c, 9, 44, 127
7, 31540, Note_on_c, 9, 44, 0
7, 31560, Note_on_c, 9, 36, 127
7, 31581, Note_on_c, 9, 36, 0
7, 31586, Note_on_c, 9, 44, 127
7, 31590, Note_on_c, 9, 36, 127
7, 31618, Note_on_c, 9, 44, 0
7, 31631, Note_on_c, 9, 36, 0
7, 31664, Note_on_c, 9, 44, 127
7, 31680, Note_on_c, 9, 36, 127
7, 31701, Note_on_c, 9, 44, 0
7, 31728, Note_on_c, 9, 36, 0
7, 31743, Note_on_c, 9, 44, 127
7, 31776, Note_on_c, 9, 44, 0
7, 31820, Note_on_c, 9, 44, 127
7, 31830, Note_on_c, 9, 38, 127
7, 31852, Note_on_c, 9, 44, 0
7, 31892, Note_on_c, 9, 44, 127
7, 31920, Note_on_c, 9, 38, 0
7, 31920, Note_on_c, 9, 38, 127
7, 31932, Note_on_c, 9, 44, 0
7, 31976, Note_on_c, 9, 44, 127
7, 31980, Note_on_c, 9, 38, 0
7, 32012, Note_on_c, 9, 44, 0
7, 32059, Note_on_c, 9, 44, 127
7, 32070, Note_on_c, 9, 36, 127
7, 32099, Note_on_c, 9, 44, 0
7, 32101, Note_on_c, 9, 36, 0
7, 32143, Note_on_c, 9, 44, 127
7, 32160, Note_on_c, 9, 44, 127
7, 32160, Note_on_c, 9, 36, 127
7, 32184, Note_on_c, 9, 44, 0
7, 32189, Note_on_c, 9, 44, 0
7, 32205, Note_on_c, 9, 36, 0
7, 32223, Note_on_c, 9, 44, 127
7, 32250, Note_on_c, 9, 44, 0
7, 32302, Note_on_c, 9, 44, 127
7, 32310, Note_on_c, 9, 38, 127
7, 32344, Note_on_c, 9, 44, 0
7, 32347, Note_on_c, 9, 38, 0
7, 32379, Note_on_c, 9, 44, 127
7, 32400, Note_on_c, 9, 38, 127
7, 32422, Note_on_c, 9, 44, 0
7, 32448, Note_on_c, 9, 38, 0
7, 32477, Note_on_c, 9, 44, 127
7, 32513, Note_on_c, 9, 44, 0
7, 32520, Note_on_c, 9, 36, 127
7, 32538, Note_on_c, 9, 36, 0
7, 32550, Note_on_c, 9, 36, 127
7, 32559, Note_on_c, 9, 44, 127
7, 32586, Note_on_c, 9, 36, 0
7, 32596, Note_on_c, 9, 44, 0
7, 32632, Note_on_c, 9, 44, 127
7, 32640, Note_on_c, 9, 36, 127
7, 32670, Note_on_c, 9, 44, 0
7, 32688, Note_on_c, 9, 36, 0
7, 32712, Note_on_c, 9, 44, 127
7, 32756, Note_on_c, 9, 44, 0
7, 32790, Note_on_c, 9, 38, 127
7, 32792, Note_on_c, 9, 44, 127
7, 32821, Note_on_c, 9, 38, 0
7, 32824, Note_on_c, 9, 44, 0
7, 32872, Note_on_c, 9, 44, 127
7, 32880, Note_on_c, 9, 38, 127
7, 32907, Note_on_c, 9, 44, 0
7, 32934, Note_on_c, 9, 38, 0
7, 32955, Note_on_c, 9, 44, 127
7, 32982, Note_on_c, 9, 44, 0
7, 33030, Note_on_c, 9, 36, 127
7, 33031, Note_on_c, 9, 44, 127
7, 33061, Note_on_c, 9, 36, 0
7, 33066, Note_on_c, 9, 44, 0
7, 33108, Note_on_c, 9, 44, 127
7, 33120, Note_on_c, 9, 36, 127
7, 33145, Note_on_c, 9, 44, 0
7, 33164, Note_on_c, 9, 36, 0
7, 33193, Note_on_c, 9, 44, 127
7, 33226, Note_on_c, 9, 44, 0
7, 33270, Note_on_c, 9, 38, 127
7, 33270, Note_on_c, 9, 44, 127
7, 33294, Note_on_c, 9, 38, 0
7, 33304, Note_on_c, 9, 44, 0
7, 33348, Note_on_c, 9, 44, 127
7, 33360, Note_on_c, 9, 38, 127
7, 33382, Note_on_c, 9, 44, 0
7, 33388, Note_on_c, 9, 38, 0
7, 33427, Note_on_c, 9, 44, 127
7, 33460, Note_on_c, 9, 44, 0
7, 33480, Note_on_c, 9, 36, 127
7, 33501, Note_on_c, 9, 36, 0
7, 33506, Note_on_c, 9, 44, 127
7, 33510, Note_on_c, 9, 36, 127
7, 33538, Note_on_c, 9, 44, 0
7, 33551, Note_on_c, 9, 36, 0
7, 33584, Note_on_c, 9, 44, 127
7, 33600, Note_on_c, 9, 36, 127
7, 33621, Note_on_c, 9, 44, 0
7, 33648, Note_on_c, 9, 36, 0
7, 33663, Note_on_c, 9, 44, 127
7, 33696, Note_on_c, 9, 44, 0
7, 33740, Note_on_c, 9, 44, 127
7, 33750, Note_on_c, 9, 38, 127
7, 33772, Note_on_c, 9, 44, 0
7, 33812, Note_on_c, 9, 44, 127
7, 33840, Note_on_c, 9, 38, 0
7, 33840, Note_on_c, 9, 38, 127
7, 33852, Note_on_c, 9, 44, 0
7, 33896, Note_on_c, 9, 44, 127
7, 33900, Note_on_c, 9, 38, 0
7, 33932, Note_on_c, 9, 44, 0
7, 33979, Note_on_c, 9, 44, 127
7, 33990, Note_on_c, 9, 36, 127
7, 34019, Note_on_c, 9, 44, 0
7, 34021, Note_on_c, 9, 36, 0
7, 34063, Note_on_c, 9, 44, 127
7, 34080, Note_on_c, 9, 36, 127
7, 34080, Note_on_c, 9, 44, 127
7, 34104, Note_on_c, 9, 44, 0
7, 34109, Note_on_c, 9, 44, 0
7, 34125, Note_on_c, 9, 36, 0
7, 34143, Note_on_c, 9, 44, 127
7, 34170, Note_on_c, 9, 44, 0
7, 34222, Note_on_c, 9, 44, 127
7, 34230, Note_on_c, 9, 38, 127
7, 34264, Note_on_c, 9, 44, 0
7, 34267, Note_on_c, 9, 38, 0
7, 34299, Note_on_c, 9, 44, 127
7, 34320, Note_on_c, 9, 38, 127
7, 34342, Note_on_c, 9, 44, 0
7, 34368, Note_on_c, 9, 38, 0
7, 34397, Note_on_c, 9, 44, 127
7, 34433, Note_on_c, 9, 44, 0
7, 34440, Note_on_c, 9, 36, 127
7, 34458, Note_on_c, 9, 36, 0
7, 34470, Note_on_c, 9, 36, 127
7, 34479, Note_on_c, 9, 44, 127
7, 34506, Note_on_c, 9, 36, 0
7, 34516, Note_on_c, 9, 44, 0
7, 34552, Note_on_c, 9, 44, 127
7, 34560, Note_on_c, 9, 36, 127
7, 34590, Note_on_c, 9, 44, 0
7, 34608, Note_on_c, 9, 36, 0
7, 34632, Note_on_c, 9, 44, 127
7, 34676, Note_on_c, 9, 44, 0
7, 34710, Note_on_c, 9, 38, 127
7, 34712, Note_on_c, 9, 44, 127
7, 34741, Note_on_c, 9, 38, 0
7, 34744, Note_on_c, 9, 44, 0
7, 34792, Note_on_c, 9, 44, 127
7, 34800, Note_on_c, 9, 38, 127
7, 34827, Note_on_c, 9, 44, 0
7, 34854, Note_on_c, 9, 38, 0
7, 34875, Note_on_c, 9, 44, 127
7, 34902, Note_on_c, 9, 44, 0
7, 34950, Note_on_c, 9, 36, 127
7, 34951, Note_on_c, 9, 44, 127
7, 34981, Note_on_c, 9, 36, 0
7, 34986, Note_on_c, 9, 44, 0
7, 35028, Note_on_c, 9, 44, 127
7, 35040, Note_on_c, 9, 36, 127
7, 35065, Note_on_c, 9, 44, 0
7, 35084, Note_on_c, 9, 36, 0
7, 35113, Note_on_c, 9, 44, 127
7, 35146, Note_on_c, 9, 44, 0
7, 35190, Note_on_c, 9, 38, 127
7, 35190, Note_on_c, 9, 44, 127
7, 35214, Note_on_c, 9, 38, 0
7, 35224, Note_on_c, 9, 44, 0
7, 35268, Note_on_c, 9, 44, 127
7, 35280, Note_on_c, 9, 38, 127
7, 35302, Note_on_c, 9, 44, 0
7, 35308, Note_on_c, 9, 38, 0
7, 35347, Note_on_c, 9, 44, 127
7, 35380, Note_on_c, 9, 44, 0
7, 35400, Note_on_c, 9, 36, 127
7, 35421, Note_on_c, 9, 36, 0
7, 35426, Note_on_c, 9, 44, 127
7, 35430, Note_on_c, 9, 36, 127
7, 35458, Note_on_c, 9, 44, 0
7, 35471, Note_on_c, 9, 36, 0
7, 35504, Note_on_c, 9, 44, 127
7, 35520, Note_on_c, 9, 36, 127
7, 35541, Note_on_c, 9, 44, 0
7, 35568, Note_on_c, 9, 36, 0
7, 35583, Note_on_c, 9, 44, 127
7, 35616, Note_on_c, 9, 44, 0
7, 35660, Note_on_c, 9, 44, 127
7, 35670, Note_on_c, 9, 38, 127
7, 35692, Note_on_c, 9, 44, 0
7, 35732, Note_on_c, 9, 44, 127
7, 35760, Note_on_c, 9, 38, 0
7, 35760, Note_on_c, 9, 38, 127
7, 35772, Note_on_c, 9, 44, 0
7, 35816, Note_on_c, 9, 44, 127
7, 35820, Note_on_c, 9, 38, 0
7, 35852, Note_on_c, 9, 44, 0
7, 35899, Note_on_c, 9, 44, 127
7, 35910, Note_on_c, 9, 36, 127
7, 35939, Note_on_c, 9, 44, 0
7, 35941, Note_on_c, 9, 36, 0
7, 35983, Note_on_c, 9, 44, 127
7, 36000, Note_on_c, 9, 36, 127
7, 36000, Note_on_c, 9, 44, 127
7, 36024, Note_on_c, 9, 44, 0
7, 36029, Note_on_c, 9, 44, 0
7, 36045, Note_on_c, 9, 36, 0
7, 36063, Note_on_c, 9, 44, 127
7, 36090, Note_on_c, 9, 44, 0
7, 36142, Note_on_c, 9, 44, 127
7, 36150, Note_on_c, 9, 38, 127
7, 36184, Note_on_c, 9, 44, 0
7, 36187, Note_on_c, 9, 38, 0
7, 36219, Note_on_c, 9, 44, 127
7, 36240, Note_on_c, 9, 38, 127
7, 36262, Note_on_c, 9, 44, 0
7, 36288, Note_on_c, 9, 38, 0
7, 36317, Note_on_c, 9, 44, 127
7, 36353, Note_on_c, 9, 44, 0
7, 36360, Note_on_c, 9, 36, 127
7, 36378, Note_on_c, 9, 36, 0
7, 36390, Note_on_c, 9, 36, 127
7, 36399, Note_on_c, 9, 44, 127
7, 36426, Note_on_c, 9, 36, 0
7, 36436, Note_on_c, 9, 44, 0
7, 36472, Note_on_c, 9, 44, 127
7, 36480, Note_on_c, 9, 36, 127
7, 36510, Note_on_c, 9, 44, 0
7, 36528, Note_on_c, 9, 36, 0
7, 36552, Note_on_c, 9, 44, 127
7, 36596, Note_on_c, 9, 44, 0
7, 36630, Note_on_c, 9, 38, 127
7, 36632, Note_on_c, 9, 44, 127
7, 36661, Note_on_c, 9, 38, 0
7, 36664, Note_on_c, 9, 44, 0
7, 36712, Note_on_c, 9, 44, 127
7, 36720, Note_on_c, 9, 38, 127
7, 36747, Note_on_c, 9, 44, 0
7, 36774, Note_on_c, 9, 38, 0
7, 36795, Note_on_c, 9, 44, 127
7, 36822, Note_on_c, 9, 44, 0
7, 36870, Note_on_c, 9, 36, 127
7, 36871, Note_on_c, 9, 44, 127
7, 36901, Note_on_c, 9, 36, 0
7, 36906, Note_on_c, 9, 44, 0
7, 36948, Note_on_c, 9, 44, 127
7, 36960, Note_on_c, 9, 36, 127
7, 36985, Note_on_c, 9, 44, 0
7, 37004, Note_on_c, 9, 36, 0
7, 37033, Note_on_c, 9, 44, 127
7, 37066, Note_on_c, 9, 44, 0
7, 37110, Note_on_c, 9, 38, 127
7, 37110, Note_on_c, 9, 44, 127
7, 37134, Note_on_c, 9, 38, 0
7, 37144, Note_on_c, 9, 44, 0
7, 37188, Note_on_c, 9, 44, 127
7, 37200, Note_on_c, 9, 38, 127
7, 37222, Note_on_c, 9, 44, 0
7, 37228, Note_on_c, 9, 38, 0
7, 37267, Note_on_c, 9, 44, 127
7, 37300, Note_on_c, 9, 44, 0
7, 37320, Note_on_c, 9, 36, 127
7, 37341, Note_on_c, 9, 36, 0
7, 37346, Note_on_c, 9, 44, 127
7, 37350, Note_on_c, 9, 36, 127
7, 37378, Note_on_c, 9, 44, 0
7, 37391, Note_on_c, 9, 36, 0
7, 37424, Note_on_c, 9, 44, 127
7, 37440, Note_on_c, 9, 36, 127
7, 37461, Note_on_c, 9, 44, 0
7, 37488, Note_on_c, 9, 36, 0
7, 37503, Note_on_c, 9, 44, 127
7, 37536, Note_on_c, 9, 44, 0
7, 37580, Note_on_c, 9, 44, 127
7, 37590, Note_on_c, 9, 38, 127
7, 37612, Note_on_c, 9, 44, 0
7, 37652, Note_on_c, 9, 44, 127
7, 37680, Note_on_c, 9, 38, 0
7, 37680, Note_on_c, 9, 38, 127
7, 37692, Note_on_c, 9, 44, 0
7, 37736, Note_on_c, 9, 44, 127
7, 37740, Note_on_c, 9, 38, 0
7, 37772, Note_on_c, 9, 44, 0
7, 37819, Note_on_c, 9, 44, 127
7, 37830, Note_on_c, 9, 36, 127
7, 37859, Note_on_c, 9, 44, 0
7, 37861, Note_on_c, 9, 36, 0
7, 37903, Note_on_c, 9, 44, 127
7, 37920, Note_on_c, 9, 36, 127
7, 37920, Note_on_c, 9, 44, 127
7, 37944, Note_on_c, 9, 44, 0
7, 37949, Note_on_c, 9, 44, 0
7, 37965, Note_on_c, 9, 36, 0
7, 37983, Note_on_c, 9, 44, 127
7, 38010, Note_on_c, 9, 44, 0
7, 38062, Note_on_c, 9, 44, 127
7, 38070, Note_on_c, 9, 38, 127
7, 38104, Note_on_c, 9, 44, 0
7, 38107, Note_on_c, 9, 38, 0
7, 38139, Note_on_c, 9, 44, 127
7, 38160, Note_on_c, 9, 38, 127
7, 38182, Note_on_c, 9, 44, 0
7, 38208, Note_on_c, 9, 38, 0
7, 38237, Note_on_c, 9, 44, 127
7, 38273, Note_on_c, 9, 44, 0
7, 38280, Note_on_c, 9, 36, 127
7, 38298, Note_on_c, 9, 36, 0
7, 38310, Note_on_c, 9, 36, 127
7, 38319, Note_on_c, 9, 44, 127
7, 38346, Note_on_c, 9, 36, 0
7, 38356, Note_on_c, 9, 44, 0
7, 38392, Note_on_c, 9, 44, 127
7, 38400, Note_on_c, 9, 36, 127
7, 38430, Note_on_c, 9, 44, 0
7, 38448, Note_on_c, 9, 36, 0
7, 38472, Note_on_c, 9, 44, 127
7, 38516, Note_on_c, 9, 44, 0
7, 38550, Note_on_c, 9, 38, 127
7, 38552, Note_on_c, 9, 44, 127
7, 38581, Note_on_c, 9, 38, 0
7, 38584, Note_on_c, 9, 44, 0
7, 38632, Note_on_c, 9, 44, 127
7, 38640, Note_on_c, 9, 38, 127
7, 38667, Note_on_c, 9, 44, 0
7, 38694, Note_on_c, 9, 38, 0
7, 38715, Note_on_c, 9, 44, 127
7, 38742, Note_on_c, 9, 44, 0
7, 38790, Note_on_c, 9, 36, 127
7, 38791, Note_on_c, 9, 44, 127
7, 38821, Note_on_c, 9, 36, 0
7, 38826, Note_on_c, 9, 44, 0
7, 38868, Note_on_c, 9, 44, 127
7, 38880, Note_on_c, 9, 36, 127
7, 38905, Note_on_c, 9, 44, 0
7, 38924, Note_on_c, 9, 36, 0
7, 38953, Note_on_c, 9, 44, 127
7, 38986, Note_on_c, 9, 44, 0
7, 39030, Note_on_c, 9, 38, 127
7, 39030, Note_on_c, 9, 44, 127
7, 39054, Note_on_c, 9, 38, 0
7, 39064, Note_on_c, 9, 44, 0
7, 39108, Note_on_c, 9, 44, 127
7, 39120, Note_on_c, 9, 38, 127
7, 39142, Note_on_c, 9, 44, 0
7, 39148, Note_on_c, 9, 38, 0
7, 39187, Note_on_c, 9, 44, 127
7, 39220, Note_on_c, 9, 44, 0
7, 39240, Note_on_c, 9, 36, 127
7, 39261, Note_on_c, 9, 36, 0
7, 39266, Note_on_c, 9, 44, 127
7, 39270, Note_on_c, 9, 36, 127
7, 39298, Note_on_c, 9, 44, 0
7, 39311, Note_on_c, 9, 36, 0
7, 39344, Note_on_c, 9, 44, 127
7, 39360, Note_on_c, 9, 36, 127
7, 39381, Note_on_c, 9, 44, 0
7, 39408, Note_on_c, 9, 36, 0
7, 39423, Note_on_c, 9, 44, 127
7, 39456, Note_on_c, 9, 44, 0
7, 39500, Note_on_c, 9, 44, 127
7, 39510, Note_on_c, 9, 38, 127
7, 39532, Note_on_c, 9, 44, 0
7, 39572, Note_on_c, 9, 44, 127
7, 39600, Note_on_c, 9, 38, 0
7, 39600, Note_on_c, 9, 38, 127
7, 39612, Note_on_c, 9, 44, 0
7, 39656, Note_on_c, 9, 44, 127
7, 39660, Note_on_c, 9, 38, 0
7, 39692, Note_on_c, 9, 44, 0
7, 39739, Note_on_c, 9, 44, 127
7, 39750, Note_on_c, 9, 36, 127
7, 39779, Note_on_c, 9, 44, 0
7, 39781, Note_on_c, 9, 36, 0
7, 39823, Note_on_c, 9, 44, 127
7, 39840, Note_on_c, 9, 44, 127
7, 39840, Note_on_c, 9, 36, 127
7, 39864, Note_on_c, 9, 44, 0
7, 39869, Note_on_c, 9, 44, 0
7, 39885, Note_on_c, 9, 36, 0
7, 39903, Note_on_c, 9, 44, 127
7, 39930, Note_on_c, 9, 44, 0
7, 39982, Note_on_c, 9, 44, 127
7, 39990, Note_on_c, 9, 38, 127
7, 40024, Note_on_c, 9, 44, 0
7, 40027, Note_on_c, 9, 38, 0
7, 40059, Note_on_c, 9, 44, 127
7, 40080, Note_on_c, 9, 38, 127
7, 40102, Note_on_c, 9, 44, 0
7, 40128, Note_on_c, 9, 38, 0
7, 40157, Note_on_c, 9, 44, 127
7, 40193, Note_on_c, 9, 44, 0
7, 40200, Note_on_c, 9, 36, 127
7, 40218, Note_on_c, 9, 36, 0
7, 40230, Note_on_c, 9, 36, 127
7, 40239, Note_on_c, 9, 44, 127
7, 40266, Note_on_c, 9, 36, 0
7, 40276, Note_on_c, 9, 44, 0
7, 40312, Note_on_c, 9, 44, 127
7, 40320, Note_on_c, 9, 36, 127
7, 40350, Note_on_c, 9, 44, 0
7, 40368, Note_on_c, 9, 36, 0
7, 40392, Note_on_c, 9, 44, 127
7, 40436, Note_on_c, 9, 44, 0
7, 40470, Note_on_c, 9, 38, 127
7, 40472, Note_on_c, 9, 44, 127
7, 40501, Note_on_c, 9, 38, 0
7, 40504, Note_on_c, 9, 44, 0
7, 40552, Note_on_c, 9, 44, 127
7, 40560, Note_on_c, 9, 38, 127
7, 40587, Note_on_c, 9, 44, 0
7, 40614, Note_on_c, 9, 38, 0
7, 40635, Note_on_c, 9, 44, 127
7, 40662, Note_on_c, 9, 44, 0
7, 40710, Note_on_c, 9, 36, 127
7, 40711, Note_on_c, 9, 44, 127
7, 40741, Note_on_c, 9, 36, 0
7, 40746, Note_on_c, 9, 44, 0
7, 40788, Note_on_c, 9, 44, 127
7, 40800, Note_on_c, 9, 36, 127
7, 40825, Note_on_c, 9, 44, 0
7, 40844, Note_on_c, 9, 36, 0
7, 40873, Note_on_c, 9, 44, 127
7, 40906, Note_on_c, 9, 44, 0
7, 40950, Note_on_c, 9, 38, 127
7, 40950, Note_on_c, 9, 44, 127
7, 40974, Note_on_c, 9, 38, 0
7, 40984, Note_on_c, 9, 44, 0
7, 41028, Note_on_c, 9, 44, 127
7, 41040, Note_on_c, 9, 38, 127
7, 41062, Note_on_c, 9, 44, 0
7, 41068, Note_on_c, 9, 38, 0
7, 41107, Note_on_c, 9, 44, 127
7, 41140, Note_on_c, 9, 44, 0
7, 41160, Note_on_c, 9, 36, 127
7, 41181, Note_on_c, 9, 36, 0
7, 41186, Note_on_c, 9, 44, 127
7, 41190, Note_on_c, 9, 36, 127
7, 41218, Note_on_c, 9, 44, 0
7, 41231, Note_on_c, 9, 36, 0
7, 41264, Note_on_c, 9, 44, 127
7, 41280, Note_on_c, 9, 36, 127
7, 41301, Note_on_c, 9, 44, 0
7, 41328, Note_on_c, 9, 36, 0
7, 41343, Note_on_c, 9, 44, 127
7, 41376, Note_on_c, 9, 44, 0
7, 41420, Note_on_c, 9, 44, 127
7, 41430, Note_on_c, 9, 38, 127
7, 41452, Note_on_c, 9, 44, 0
7, 41492, Note_on_c, 9, 44, 127
7, 41520, Note_on_c, 9, 38, 0
7, 41520, Note_on_c, 9, 38, 127
7, 41532, Note_on_c, 9, 44, 0
7, 41576, Note_on_c, 9, 44, 127
7, 41580, Note_on_c, 9, 38, 0
7, 41612, Note_on_c, 9, 44, 0
7, 41659, Note_on_c, 9, 44, 127
7, 41670, Note_on_c, 9, 36, 127
7, 41699, Note_on_c, 9, 44, 0
7, 41701, Note_on_c, 9, 36, 0
7, 41743, Note_on_c, 9, 44, 127
7, 41760, Note_on_c, 9, 36, 127
7, 41760, Note_on_c, 9, 44, 127
7, 41784, Note_on_c, 9, 44, 0
7, 41789, Note_on_c, 9, 44, 0
7, 41805, Note_on_c, 9, 36, 0
7, 41823, Note_on_c, 9, 44, 127
7, 41850, Note_on_c, 9, 44, 0
7, 41902, Note_on_c, 9, 44, 127
7, 41910, Note_on_c, 9, 38, 127
7, 41944, Note_on_c, 9, 44, 0
7, 41947, Note_on_c, 9, 38, 0
7, 41979, Note_on_c, 9, 44, 127
7, 42000, Note_on_c, 9, 38, 127
7, 42022, Note_on_c, 9, 44, 0
7, 42048, Note_on_c, 9, 38, 0
7, 42077, Note_on_c, 9, 44, 127
7, 42113, Note_on_c, 9, 44, 0
7, 42120, Note_on_c, 9, 36, 127
7, 42138, Note_on_c, 9, 36, 0
7, 42150, Note_on_c, 9, 36, 127
7, 42159, Note_on_c, 9, 44, 127
7, 42186, Note_on_c, 9, 36, 0
7, 42196, Note_on_c, 9, 44, 0
7, 42232, Note_on_c, 9, 44, 127
7, 42240, Note_on_c, 9, 36, 127
7, 42270, Note_on_c, 9, 44, 0
7, 42288, Note_on_c, 9, 36, 0
7, 42312, Note_on_c, 9, 44, 127
7, 42356, Note_on_c, 9, 44, 0
7, 42390, Note_on_c, 9, 38, 127
7, 42392, Note_on_c, 9, 44, 127
7, 42421, Note_on_c, 9, 38, 0
7, 42424, Note_on_c, 9, 44, 0
7, 42472, Note_on_c, 9, 44, 127
7, 42480, Note_on_c, 9, 38, 127
7, 42507, Note_on_c, 9, 44, 0
7, 42534, Note_on_c, 9, 38, 0
7, 42555, Note_on_c, 9, 44, 127
7, 42582, Note_on_c, 9, 44, 0
7, 42630, Note_on_c, 9, 36, 127
7, 42631, Note_on_c, 9, 44, 127
7, 42661, Note_on_c, 9, 36, 0
7, 42666, Note_on_c, 9, 44, 0
7, 42708, Note_on_c, 9, 44, 127
7, 42720, Note_on_c, 9, 36, 127
7, 42745, Note_on_c, 9, 44, 0
7, 42764, Note_on_c, 9, 36, 0
7, 42793, Note_on_c, 9, 44, 127
7, 42826, Note_on_c, 9, 44, 0
7, 42870, Note_on_c, 9, 38, 127
7, 42870, Note_on_c, 9, 44, 127
7, 42894, Note_on_c, 9, 38, 0
7, 42904, Note_on_c, 9, 44, 0
7, 42948, Note_on_c, 9, 44, 127
7, 42960, Note_on_c, 9, 38, 127
7, 42982, Note_on_c, 9, 44, 0
7, 42988, Note_on_c, 9, 38, 0
7, 43027, Note_on_c, 9, 44, 127
7, 43060, Note_on_c, 9, 44, 0
7, 43080, Note_on_c, 9, 36, 127
7, 43101, Note_on_c, 9, 36, 0
7, 43106, Note_on_c, 9, 44, 127
7, 43110, Note_on_c, 9, 36, 127
7, 43138, Note_on_c, 9, 44, 0
7, 43151, Note_on_c, 9, 36, 0
7, 43184, Note_on_c, 9, 44, 127
7, 43200, Note_on_c, 9, 36, 127
7, 43221, Note_on_c, 9, 44, 0
7, 43248, Note_on_c, 9, 36, 0
7, 43263, Note_on_c, 9, 44, 127
7, 43296, Note_on_c, 9, 44, 0
7, 43340, Note_on_c, 9, 44, 127
7, 43350, Note_on_c, 9, 38, 127
7, 43372, Note_on_c, 9, 44, 0
7, 43412, Note_on_c, 9, 44, 127
7, 43440, Note_on_c, 9, 38, 0
7, 43440, Note_on_c, 9, 38, 127
7, 43452, Note_on_c, 9, 44, 0
7, 43496, Note_on_c, 9, 44, 127
7, 43500, Note_on_c, 9, 38, 0
7, 43532, Note_on_c, 9, 44, 0
7, 43579, Note_on_c, 9, 44, 127
7, 43590, Note_on_c, 9, 36, 127
7, 43619, Note_on_c, 9, 44, 0
7, 43621, Note_on_c, 9, 36, 0
7, 43663, Note_on_c, 9, 44, 127
7, 43680, Note_on_c, 9, 44, 127
7, 43680, Note_on_c, 9, 36, 127
7, 43704, Note_on_c, 9, 44, 0
7, 43709, Note_on_c, 9, 44, 0
7, 43725, Note_on_c, 9, 36, 0
7, 43743, Note_on_c, 9, 44, 127
7, 43770, Note_on_c, 9, 44, 0
7, 43822, Note_on_c, 9, 44, 127
7, 43830, Note_on_c, 9, 38, 127
7, 43864, Note_on_c, 9, 44, 0
7, 43867, Note_on_c, 9, 38, 0
7, 43899, Note_on_c, 9, 44, 127
7, 43920, Note_on_c, 9, 38, 127
7, 43942, Note_on_c, 9, 44, 0
7, 43968, Note_on_c, 9, 38, 0
7, 43997, Note_on_c, 9, 44, 127
7, 44033, Note_on_c, 9, 44, 0
7, 44040, Note_on_c, 9, 36, 127
7, 44058, Note_on_c, 9, 36, 0
7, 44070, Note_on_c, 9, 36, 127
7, 44079, Note_on_c, 9, 44, 127
7, 44106, Note_on_c, 9, 36, 0
7, 44116, Note_on_c, 9, 44, 0
7, 44152, Note_on_c, 9, 44, 127
7, 44160, Note_on_c, 9, 36, 127
7, 44190, Note_on_c, 9, 44, 0
7, 44208, Note_on_c, 9, 36, 0
7, 44232, Note_on_c, 9, 44, 127
7, 44276, Note_on_c, 9, 44, 0
7, 44310, Note_on_c, 9, 38, 127
7, 44312, Note_on_c, 9, 44, 127
7, 44341, Note_on_c, 9, 38, 0
7, 44344, Note_on_c, 9, 44, 0
7, 44392, Note_on_c, 9, 44, 127
7, 44400, Note_on_c, 9, 38, 127
7, 44427, Note_on_c, 9, 44, 0
7, 44454, Note_on_c, 9, 38, 0
7, 44475, Note_on_c, 9, 44, 127
7, 44502, Note_on_c, 9, 44, 0
7, 44550, Note_on_c, 9, 36, 127
7, 44551, Note_on_c, 9, 44, 127
7, 44581, Note_on_c, 9, 36, 0
7, 44586, Note_on_c, 9, 44, 0
7, 44628, Note_on_c, 9, 44, 127
7, 44640, Note_on_c, 9, 36, 127
7, 44665, Note_on_c, 9, 44, 0
7, 44684, Note_on_c, 9, 36, 0
7, 44713, Note_on_c, 9, 44, 127
7, 44746, Note_on_c, 9, 44, 0
7, 44790, Note_on_c, 9, 38, 127
7, 44790, Note_on_c, 9, 44, 127
7, 44814, Note_on_c, 9, 38, 0
7, 44824, Note_on_c, 9, 44, 0
7, 44868, Note_on_c, 9, 44, 127
7, 44880, Note_on_c, 9, 38, 127
7, 44902, Note_on_c, 9, 44, 0
7, 44908, Note_on_c, 9, 38, 0
7, 44947, Note_on_c, 9, 44, 127
7, 44980, Note_on_c, 9, 44, 0
7, 45000, Note_on_c, 9, 36, 127
7, 45021, Note_on_c, 9, 36, 0
7, 45026, Note_on_c, 9, 44, 127
7, 45030, Note_on_c, 9, 36, 127
7, 45058, Note_on_c, 9, 44, 0
7, 45071, Note_on_c, 9, 36, 0
7, 45104, Note_on_c, 9, 44, 127
7, 45120, Note_on_c, 9, 36, 127
7, 45141, Note_on_c, 9, 44, 0
7, 45168, Note_on_c, 9, 36, 0
7, 45183, Note_on_c, 9, 44, 127
7, 45216, Note_on_c, 9, 44, 0
7, 45260, Note_on_c, 9, 44, 127
7, 45270, Note_on_c, 9, 38, 127
7, 45292, Note_on_c, 9, 44, 0
7, 45332, Note_on_c, 9, 44, 127
7, 45360, Note_on_c, 9, 38, 0
7, 45360, Note_on_c, 9, 38, 127
7, 45372, Note_on_c, 9, 44, 0
7, 45416, Note_on_c, 9, 44, 127
7, 45420, Note_on_c, 9, 38, 0
7, 45452, Note_on_c, 9, 44, 0
7, 45499, Note_on_c, 9, 44, 127
7, 45510, Note_on_c, 9, 36, 127
7, 45539, Note_on_c, 9, 44, 0
7, 45541, Note_on_c, 9, 36, 0
7, 45583, Note_on_c, 9, 44, 127
7, 45600, Note_on_c, 9, 36, 127
7, 45600, Note_on_c, 9, 44, 127
7, 45624, Note_on_c, 9, 44, 0
7, 45629, Note_on_c, 9, 44, 0
7, 45645, Note_on_c, 9, 36, 0
7, 45663, Note_on_c, 9, 44, 127
7, 45690, Note_on_c, 9, 44, 0
7, 45742, Note_on_c, 9, 44, 127
7, 45750, Note_on_c, 9, 38, 127
7, 45784, Note_on_c, 9, 44, 0
7, 45787, Note_on_c, 9, 38, 0
7, 45819, Note_on_c, 9, 44, 127
7, 45840, Note_on_c, 9, 38, 127
7, 45862, Note_on_c, 9, 44, 0
7, 45888, Note_on_c, 9, 38, 0
7, 45917, Note_on_c, 9, 44, 127
7, 45953, Note_on_c, 9, 44, 0
7, 45960, Note_on_c, 9, 36, 127
7, 45978, Note_on_c, 9, 36, 0
7, 45990, Note_on_c, 9, 36, 127
7, 45999, Note_on_c, 9, 44, 127
7, 46026, Note_on_c, 9, 36, 0
7, 46036, Note_on_c, 9, 44, 0
7, 46072, Note_on_c, 9, 44, 127
7, 46080, Note_on_c, 9, 36, 127
7, 46110, Note_on_c, 9, 44, 0
7, 46128, Note_on_c, 9, 36, 0
7, 46152, Note_on_c, 9, 44, 127
7, 46196, Note_on_c, 9, 44, 0
7, 46230, Note_on_c, 9, 38, 127
7, 46232, Note_on_c, 9, 44, 127
7, 46261, Note_on_c, 9, 38, 0
7, 46264, Note_on_c, 9, 44, 0
7, 46312, Note_on_c, 9, 44, 127
7, 46320, Note_on_c, 9, 38, 127
7, 46347, Note_on_c, 9, 44, 0
7, 46374, Note_on_c, 9, 38, 0
7, 46395, Note_on_c, 9, 44, 127
7, 46422, Note_on_c, 9, 44, 0
7, 46470, Note_on_c, 9, 36, 127
7, 46471, Note_on_c, 9, 44, 127
7, 46501, Note_on_c, 9, 36, 0
7, 46506, Note_on_c, 9, 44, 0
7, 46548, Note_on_c, 9, 44, 127
7, 46560, Note_on_c, 9, 36, 127
7, 46585, Note_on_c, 9, 44, 0
7, 46604, Note_on_c, 9, 36, 0
7, 46633, Note_on_c, 9, 44, 127
7, 46666, Note_on_c, 9, 44, 0
7, 46710, Note_on_c, 9, 44, 127
7, 46710, Note_on_c, 9, 38, 127
7, 46734, Note_on_c, 9, 38, 0
7, 46744, Note_on_c, 9, 44, 0
7, 46788, Note_on_c, 9, 44, 127
7, 46800, Note_on_c, 9, 38, 127
7, 46822, Note_on_c, 9, 44, 0
7, 46828, Note_on_c, 9, 38, 0
7, 46867, Note_on_c, 9, 44, 127
7, 46900, Note_on_c, 9, 44, 0
7, 46920, Note_on_c, 9, 36, 127
7, 46941, Note_on_c, 9, 36, 0
7, 46946, Note_on_c, 9, 44, 127
7, 46950, Note_on_c, 9, 36, 127
7, 46978, Note_on_c, 9, 44, 0
7, 46991, Note_on_c, 9, 36, 0
7, 47024, Note_on_c, 9, 44, 127
7, 47040, Note_on_c, 9, 36, 127
7, 47061, Note_on_c, 9, 44, 0
7, 47088, Note_on_c, 9, 36, 0
7, 47103, Note_on_c, 9, 44, 127
7, 47136, Note_on_c, 9, 44, 0
7, 47180, Note_on_c, 9, 44, 127
7, 47190, Note_on_c, 9, 38, 127
7, 47212, Note_on_c, 9, 44, 0
7, 47252, Note_on_c, 9, 44, 127
7, 47280, Note_on_c, 9, 38, 0
7, 47280, Note_on_c, 9, 38, 127
7, 47292, Note_on_c, 9, 44, 0
7, 47336, Note_on_c, 9, 44, 127
7, 47340, Note_on_c, 9, 38, 0
7, 47372, Note_on_c, 9, 44, 0
7, 47419, Note_on_c, 9, 44, 127
7, 47430, Note_on_c, 9, 36, 127
7, 47459, Note_on_c, 9, 44, 0
7, 47461, Note_on_c, 9, 36, 0
7, 47503, Note_on_c, 9, 44, 127
7, 47520, Note_on_c, 9, 36, 127
7, 47520, Note_on_c, 9, 44, 127
7, 47544, Note_on_c, 9, 44, 0
7, 47549, Note_on_c, 9, 44, 0
7, 47565, Note_on_c, 9, 36, 0
7, 47583, Note_on_c, 9, 44, 127
7, 47610, Note_on_c, 9, 44, 0
7, 47662, Note_on_c, 9, 44, 127
7, 47670, Note_on_c, 9, 38, 127
7, 47704, Note_on_c, 9, 44, 0
7, 47707, Note_on_c, 9, 38, 0
7, 47739, Note_on_c, 9, 44, 127
7, 47760, Note_on_c, 9, 38, 127
7, 47782, Note_on_c, 9, 44, 0
7, 47808, Note_on_c, 9, 38, 0
7, 47837, Note_on_c, 9, 44, 127
7, 47873, Note_on_c, 9, 44, 0
7, 47880, Note_on_c, 9, 36, 127
7, 47898, Note_on_c, 9, 36, 0
7, 47910, Note_on_c, 9, 36, 127
7, 47919, Note_on_c, 9, 44, 127
7, 47946, Note_on_c, 9, 36, 0
7, 47956, Note_on_c, 9, 44, 0
7, 47992, Note_on_c, 9, 44, 127
7, 48000, Note_on_c, 9, 36, 127
7, 48030, Note_on_c, 9, 44, 0
7, 48048, Note_on_c, 9, 36, 0
7, 48072, Note_on_c, 9, 44, 127
7, 48116, Note_on_c, 9, 44, 0
7, 48150, Note_on_c, 9, 38, 127
7, 48152, Note_on_c, 9, 44, 127
7, 48181, Note_on_c, 9, 38, 0
7, 48184, Note_on_c, 9, 44, 0
7, 48232, Note_on_c, 9, 44, 127
7, 48240, Note_on_c, 9, 38, 127
7, 48267, Note_on_c, 9, 44, 0
7, 48294, Note_on_c, 9, 38, 0
7, 48315, Note_on_c, 9, 44, 127
7, 48342, Note_on_c, 9, 44, 0
7, 48390, Note_on_c, 9, 36, 127
7, 48391, Note_on_c, 9, 44, 127
7, 48421, Note_on_c, 9, 36, 0
7, 48426, Note_on_c, 9, 44, 0
7, 48468, Note_on_c, 9, 44, 127
7, 48480, Note_on_c, 9, 36, 127
7, 48505, Note_on_c, 9, 44, 0
7, 48524, Note_on_c, 9, 36, 0
7, 48553, Note_on_c, 9, 44, 127
7, 48586, Note_on_c, 9, 44, 0
7, 48630, Note_on_c, 9, 44, 127
7, 48630, Note_on_c, 9, 38, 127
7, 48654, Note_on_c, 9, 38, 0
7, 48664, Note_on_c, 9, 44, 0
7, 48708, Note_on_c, 9, 44, 127
7, 48720, Note_on_c, 9, 38, 127
7, 48742, Note_on_c, 9, 44, 0
7, 48748, Note_on_c, 9, 38, 0
7, 48787, Note_on_c, 9, 44, 127
7, 48820, Note_on_c, 9, 44, 0
7, 48840, Note_on_c, 9, 36, 127
7, 48861, Note_on_c, 9, 36, 0
7, 48866, Note_on_c, 9, 44, 127
7, 48870, Note_on_c, 9, 36, 127
7, 48898, Note_on_c, 9, 44, 0
7, 48911, Note_on_c, 9, 36, 0
7, 48944, Note_on_c, 9, 44, 127
7, 48960, Note_on_c, 9, 36, 127
7, 48981, Note_on_c, 9, 44, 0
7, 49008, Note_on_c, 9, 36, 0
7, 49023, Note_on_c, 9, 44, 127
7, 49056, Note_on_c, 9, 44, 0
7, 49100, Note_on_c, 9, 44, 127
7, 49110, Note_on_c, 9, 38, 127
7, 49132, Note_on_c, 9, 44, 0
7, 49172, Note_on_c, 9, 44, 127
7, 49200, Note_on_c, 9, 38, 0
7, 49200, Note_on_c, 9, 38, 127
7, 49212, Note_on_c, 9, 44, 0
7, 49256, Note_on_c, 9, 44, 127
7, 49260, Note_on_c, 9, 38, 0
7, 49292, Note_on_c, 9, 44, 0
7, 49339, Note_on_c, 9, 44, 127
7, 49350, Note_on_c, 9, 36, 127
7, 49379, Note_on_c, 9, 44, 0
7, 49381, Note_on_c, 9, 36, 0
7, 49423, Note_on_c, 9, 44, 127
7, 49440, Note_on_c, 9, 36, 127
7, 49440, Note_on_c, 9, 44, 127
7, 49464, Note_on_c, 9, 44, 0
7, 49469, Note_on_c, 9, 44, 0
7, 49485, Note_on_c, 9, 36, 0
7, 49503, Note_on_c, 9, 44, 127
7, 49530, Note_on_c, 9, 44, 0
7, 49582, Note_on_c, 9, 44, 127
7, 49590, Note_on_c, 9, 38, 127
7, 49624, Note_on_c, 9, 44, 0
7, 49627, Note_on_c, 9, 38, 0
7, 49659, Note_on_c, 9, 44, 127
7, 49680, Note_on_c, 9, 38, 127
7, 49702, Note_on_c, 9, 44, 0
7, 49728, Note_on_c, 9, 38, 0
7, 49757, Note_on_c, 9, 44, 127
7, 49793, Note_on_c, 9, 44, 0
7, 49800, Note_on_c, 9, 36, 127
7, 49818, Note_on_c, 9, 36, 0
7, 49830, Note_on_c, 9, 36, 127
7, 49839, Note_on_c, 9, 44, 127
7, 49866, Note_on_c, 9, 36, 0
7, 49876, Note_on_c, 9, 44, 0
7, 49912, Note_on_c, 9, 44, 127
7, 49920, Note_on_c, 9, 36, 127
7, 49950, Note_on_c, 9, 44, 0
7, 49968, Note_on_c, 9, 36, 0
7, 49992, Note_on_c, 9, 44, 127
7, 50036, Note_on_c, 9, 44, 0
7, 50070, Note_on_c, 9, 38, 127
7, 50072, Note_on_c, 9, 44, 127
7, 50101, Note_on_c, 9, 38, 0
7, 50104, Note_on_c, 9, 44, 0
7, 50152, Note_on_c, 9, 44, 127
7, 50160, Note_on_c, 9, 38, 127
7, 50187, Note_on_c, 9, 44, 0
7, 50214, Note_on_c, 9, 38, 0
7, 50235, Note_on_c, 9, 44, 127
7, 50262, Note_on_c, 9, 44, 0
7, 50310, Note_on_c, 9, 36, 127
7, 50311, Note_on_c, 9, 44, 127
7, 50341, Note_on_c, 9, 36, 0
7, 50346, Note_on_c, 9, 44, 0
7, 50388, Note_on_c, 9, 44, 127
7, 50400, Note_on_c, 9, 36, 127
7, 50425, Note_on_c, 9, 44, 0
7, 50444, Note_on_c, 9, 36, 0
7, 50473, Note_on_c, 9, 44, 127
7, 50506, Note_on_c, 9, 44, 0
7, 50550, Note_on_c, 9, 38, 127
7, 50550, Note_on_c, 9, 44, 127
7, 50574, Note_on_c, 9, 38, 0
7, 50584, Note_on_c, 9, 44, 0
7, 50628, Note_on_c, 9, 44, 127
7, 50640, Note_on_c, 9, 38, 127
7, 50662, Note_on_c, 9, 44, 0
7, 50668, Note_on_c, 9, 38, 0
7, 50707, Note_on_c, 9, 44, 127
7, 50740, Note_on_c, 9, 44, 0
7, 50760, Note_on_c, 9, 36, 127
7, 50781, Note_on_c, 9, 36, 0
7, 50786, Note_on_c, 9, 44, 127
7, 50790, Note_on_c, 9, 36, 127
7, 50818, Note_on_c, 9, 44, 0
7, 50831, Note_on_c, 9, 36, 0
7, 50864, Note_on_c, 9, 44, 127
7, 50880, Note_on_c, 9, 36, 127
7, 50901, Note_on_c, 9, 44, 0
7, 50928, Note_on_c, 9, 36, 0
7, 50943, Note_on_c, 9, 44, 127
7, 50976, Note_on_c, 9, 44, 0
7, 51020, Note_on_c, 9, 44, 127
7, 51030, Note_on_c, 9, 38, 127
7, 51052, Note_on_c, 9, 44, 0
7, 51092, Note_on_c, 9, 44, 127
7, 51120, Note_on_c, 9, 38, 0
7, 51120, Note_on_c, 9, 38, 127
7, 51132, Note_on_c, 9, 44, 0
7, 51176, Note_on_c, 9, 44, 127
7, 51180, Note_on_c, 9, 38, 0
7, 51212, Note_on_c, 9, 44, 0
7, 51259, Note_on_c, 9, 44, 127
7, 51270, Note_on_c, 9, 36, 127
7, 51299, Note_on_c, 9, 44, 0
7, 51301, Note_on_c, 9, 36, 0
7, 51343, Note_on_c, 9, 44, 127
7, 51360, Note_on_c, 9, 36, 127
7, 51360, Note_on_c, 9, 44, 127
7, 51384, Note_on_c, 9, 44, 0
7, 51389, Note_on_c, 9, 44, 0
7, 51405, Note_on_c, 9, 36, 0
7, 51423, Note_on_c, 9, 44, 127
7, 51450, Note_on_c, 9, 44, 0
7, 51502, Note_on_c, 9, 44, 127
7, 51510, Note_on_c, 9, 38, 127
7, 51544, Note_on_c, 9, 44, 0
7, 51547, Note_on_c, 9, 38, 0
7, 51579, Note_on_c, 9, 44, 127
7, 51600, Note_on_c, 9, 38, 127
7, 51622, Note_on_c, 9, 44, 0
7, 51648, Note_on_c, 9, 38, 0
7, 51677, Note_on_c, 9, 44, 127
7, 51713, Note_on_c, 9, 44, 0
7, 51720, Note_on_c, 9, 36, 127
7, 51738, Note_on_c, 9, 36, 0
7, 51750, Note_on_c, 9, 36, 127
7, 51759, Note_on_c, 9, 44, 127
7, 51786, Note_on_c, 9, 36, 0
7, 51796, Note_on_c, 9, 44, 0
7, 51832, Note_on_c, 9, 44, 127
7, 51840, Note_on_c, 9, 36, 127
7, 51870, Note_on_c, 9, 44, 0
7, 51888, Note_on_c, 9, 36, 0
7, 51912, Note_on_c, 9, 44, 127
7, 51956, Note_on_c, 9, 44, 0
7, 51990, Note_on_c, 9, 38, 127
7, 51992, Note_on_c, 9, 44, 127
7, 52021, Note_on_c, 9, 38, 0
7, 52024, Note_on_c, 9, 44, 0
7, 52072, Note_on_c, 9, 44, 127
7, 52080, Note_on_c, 9, 38, 127
7, 52107, Note_on_c, 9, 44, 0
7, 52134, Note_on_c, 9, 38, 0
7, 52155, Note_on_c, 9, 44, 127
7, 52182, Note_on_c, 9, 44, 0
7, 52230, Note_on_c, 9, 36, 127
7, 52231, Note_on_c, 9, 44, 127
7, 52261, Note_on_c, 9, 36, 0
7, 52266, Note_on_c, 9, 44, 0
7, 52308, Note_on_c, 9, 44, 127
7, 52320, Note_on_c, 9, 36, 127
7, 52345, Note_on_c, 9, 44, 0
7, 52364, Note_on_c, 9, 36, 0
7, 52393, Note_on_c, 9, 44, 127
7, 52426, Note_on_c, 9, 44, 0
7, 52470, Note_on_c, 9, 38, 127
7, 52470, Note_on_c, 9, 44, 127
7, 52494, Note_on_c, 9, 38, 0
7, 52504, Note_on_c, 9, 44, 0
7, 52548, Note_on_c, 9, 44, 127
7, 52560, Note_on_c, 9, 38, 127
7, 52582, Note_on_c, 9, 44, 0
7, 52588, Note_on_c, 9, 38, 0
7, 52627, Note_on_c, 9, 44, 127
7, 52660, Note_on_c, 9, 44, 0
7, 52680, Note_on_c, 9, 36, 127
7, 52701, Note_on_c, 9, 36, 0
7, 52706, Note_on_c, 9, 44, 127
7, 52710, Note_on_c, 9, 36, 127
7, 52738, Note_on_c, 9, 44, 0
7, 52751, Note_on_c, 9, 36, 0
7, 52784, Note_on_c, 9, 44, 127
7, 52800, Note_on_c, 9, 36, 127
7, 52821, Note_on_c, 9, 44, 0
7, 52848, Note_on_c, 9, 36, 0
7, 52863, Note_on_c, 9, 44, 127
7, 52896, Note_on_c, 9, 44, 0
7, 52940, Note_on_c, 9, 44, 127
7, 52950, Note_on_c, 9, 38, 127
7, 52972, Note_on_c, 9, 44, 0
7, 53012, Note_on_c, 9, 44, 127
7, 53040, Note_on_c, 9, 38, 0
7, 53040, Note_on_c, 9, 38, 127
7, 53052, Note_on_c, 9, 44, 0
7, 53096, Note_on_c, 9, 44, 127
7, 53100, Note_on_c, 9, 38, 0
7, 53132, Note_on_c, 9, 44, 0
7, 53179, Note_on_c, 9, 44, 127
7, 53190, Note_on_c, 9, 36, 127
7, 53219, Note_on_c, 9, 44, 0
7, 53221, Note_on_c, 9, 36, 0
7, 53263, Note_on_c, 9, 44, 127
7, 53280, Note_on_c, 9, 44, 127
7, 53280, Note_on_c, 9, 36, 127
7, 53304, Note_on_c, 9, 44, 0
7, 53309, Note_on_c, 9, 44, 0
7, 53325, Note_on_c, 9, 36, 0
7, 53343, Note_on_c, 9, 44, 127
7, 53370, Note_on_c, 9, 44, 0
7, 53422, Note_on_c, 9, 44, 127
7, 53430, Note_on_c, 9, 38, 127
7, 53464, Note_on_c, 9, 44, 0
7, 53467, Note_on_c, 9, 38, 0
7, 53499, Note_on_c, 9, 44, 127
7, 53520, Note_on_c, 9, 38, 127
7, 53542, Note_on_c, 9, 44, 0
7, 53568, Note_on_c, 9, 38, 0
7, 53597, Note_on_c, 9, 44, 127
7, 53633, Note_on_c, 9, 44, 0
7, 53640, Note_on_c, 9, 36, 127
7, 53658, Note_on_c, 9, 36, 0
7, 53670, Note_on_c, 9, 36, 127
7, 53679, Note_on_c, 9, 44, 127
7, 53706, Note_on_c, 9, 36, 0
7, 53716, Note_on_c, 9, 44, 0
7, 53752, Note_on_c, 9, 44, 127
7, 53760, Note_on_c, 9, 36, 127
7, 53790, Note_on_c, 9, 44, 0
7, 53808, Note_on_c, 9, 36, 0
7, 53832, Note_on_c, 9, 44, 127
7, 53876, Note_on_c, 9, 44, 0
7, 53910, Note_on_c, 9, 38, 127
7, 53912, Note_on_c, 9, 44, 127
7, 53941, Note_on_c, 9, 38, 0
7, 53944, Note_on_c, 9, 44, 0
7, 53992, Note_on_c, 9, 44, 127
7, 54000, Note_on_c, 9, 38, 127
7, 54027, Note_on_c, 9, 44, 0
7, 54054, Note_on_c, 9, 38, 0
7, 54075, Note_on_c, 9, 44, 127
7, 54102, Note_on_c, 9, 44, 0
7, 54150, Note_on_c, 9, 36, 127
7, 54151, Note_on_c, 9, 44, 127
7, 54181, Note_on_c, 9, 36, 0
7, 54186, Note_on_c, 9, 44, 0
7, 54228, Note_on_c, 9, 44, 127
7, 54240, Note_on_c, 9, 36, 127
7, 54265, Note_on_c, 9, 44, 0
7, 54284, Note_on_c, 9, 36, 0
7, 54313, Note_on_c, 9, 44, 127
7, 54346, Note_on_c, 9, 44, 0
7, 54390, Note_on_c, 9, 44, 127
7, 54390, Note_on_c, 9, 38, 127
7, 54414, Note_on_c, 9, 38, 0
7, 54424, Note_on_c, 9, 44, 0
7, 54468, Note_on_c, 9, 44, 127
7, 54480, Note_on_c, 9, 38, 127
7, 54502, Note_on_c, 9, 44, 0
7, 54508, Note_on_c, 9, 38, 0
7, 54547, Note_on_c, 9, 44, 127
7, 54580, Note_on_c, 9, 44, 0
7, 54600, Note_on_c, 9, 36, 127
7, 54621, Note_on_c, 9, 36, 0
7, 54626, Note_on_c, 9, 44, 127
7, 54630, Note_on_c, 9, 36, 127
7, 54658, Note_on_c, 9, 44, 0
7, 54671, Note_on_c, 9, 36, 0
7, 54704, Note_on_c, 9, 44, 127
7, 54720, Note_on_c, 9, 36, 127
7, 54741, Note_on_c, 9, 44, 0
7, 54768, Note_on_c, 9, 36, 0
7, 54783, Note_on_c, 9, 44, 127
7, 54816, Note_on_c, 9, 44, 0
7, 54860, Note_on_c, 9, 44, 127
7, 54870, Note_on_c, 9, 38, 127
7, 54892, Note_on_c, 9, 44, 0
7, 54932, Note_on_c, 9, 44, 127
7, 54960, Note_on_c, 9, 38, 0
7, 54960, Note_on_c, 9, 38, 127
7, 54972, Note_on_c, 9, 44, 0
7, 55016, Note_on_c, 9, 44, 127
7, 55020, Note_on_c, 9, 38, 0
7, 55052, Note_on_c, 9, 44, 0
7, 55099, Note_on_c, 9, 44, 127
7, 55110, Note_on_c, 9, 36, 127
7, 55139, Note_on_c, 9, 44, 0
7, 55141, Note_on_c, 9, 36, 0
7, 55183, Note_on_c, 9, 44, 127
7, 55200, Note_on_c, 9, 36, 127
7, 55200, Note_on_c, 9, 44, 127
7, 55224, Note_on_c, 9, 44, 0
7, 55229, Note_on_c, 9, 44, 0
7, 55245, Note_on_c, 9, 36, 0
7, 55263, Note_on_c, 9, 44, 127
7, 55290, Note_on_c, 9, 44, 0
7, 55342, Note_on_c, 9, 44, 127
7, 55350, Note_on_c, 9, 38, 127
7, 55384, Note_on_c, 9, 44, 0
7, 55387, Note_on_c, 9, 38, 0
7, 55419, Note_on_c, 9, 44, 127
7, 55440, Note_on_c, 9, 38, 127
7, 55462, Note_on_c, 9, 44, 0
7, 55488, Note_on_c, 9, 38, 0
7, 55517, Note_on_c, 9, 44, 127
7, 55553, Note_on_c, 9, 44, 0
7, 55560, Note_on_c, 9, 36, 127
7, 55578, Note_on_c, 9, 36, 0
7, 55590, Note_on_c, 9, 36, 127
7, 55599, Note_on_c, 9, 44, 127
7, 55626, Note_on_c, 9, 36, 0
7, 55636, Note_on_c, 9, 44, 0
7, 55672, Note_on_c, 9, 44, 127
7, 55680, Note_on_c, 9, 36, 127
7, 55710, Note_on_c, 9, 44, 0
7, 55728, Note_on_c, 9, 36, 0
7, 55728, End_track
8, 0, Start_track
8, 0, MIDI_port, 0
8, 172, Program_c, 10, 1
8, 173, Control_c, 10, 7, 100
8, 173, Control_c, 10, 10, 50
8, 10080, Note_on_c, 10, 43, 127
8, 10080, Control_c, 10, 64, 127
8, 10080, Note_on_c, 10, 36, 127
8, 10686, Note_on_c, 10, 43, 0
8, 10694, Note_on_c, 10, 36, 0
8, 10800, Note_on_c, 10, 43, 127
8, 10800, Note_on_c, 10, 36, 127
8, 10841, Note_on_c, 10, 43, 0
8, 10848, Note_on_c, 10, 36, 0
8, 10890, Note_on_c, 10, 36, 127
8, 10890, Note_on_c, 10, 43, 127
8, 10923, Note_on_c, 10, 36, 0
8, 10925, Note_on_c, 10, 43, 0
8, 10950, Note_on_c, 10, 35, 127
8, 10974, Note_on_c, 10, 35, 0
8, 11040, Note_on_c, 10, 33, 127
8, 11040, Note_on_c, 10, 40, 127
8, 11671, Note_on_c, 10, 33, 0
8, 11678, Note_on_c, 10, 40, 0
8, 11760, Note_on_c, 10, 40, 127
8, 11760, Note_on_c, 10, 33, 127
8, 11805, Note_on_c, 10, 33, 0
8, 11811, Note_on_c, 10, 40, 0
8, 11850, Note_on_c, 10, 40, 127
8, 11850, Note_on_c, 10, 33, 127
8, 11882, Note_on_c, 10, 40, 0
8, 11885, Note_on_c, 10, 33, 0
8, 11910, Note_on_c, 10, 31, 127
8, 11910, Note_on_c, 10, 38, 127
8, 11930, Note_on_c, 10, 38, 0
8, 11930, Note_on_c, 10, 31, 0
8, 12000, Note_on_c, 10, 38, 127
8, 12001, Note_on_c, 10, 45, 127
8, 12352, Note_on_c, 10, 45, 0
8, 12365, Note_on_c, 10, 38, 0
8, 12720, Note_on_c, 10, 38, 127
8, 12720, Note_on_c, 10, 45, 127
8, 12750, Note_on_c, 10, 45, 0
8, 12775, Note_on_c, 10, 38, 0
8, 12810, Note_on_c, 10, 38, 127
8, 12810, Note_on_c, 10, 45, 127
8, 12840, Note_on_c, 10, 45, 0
8, 12840, Note_on_c, 10, 38, 0
8, 12900, Note_on_c, 10, 40, 127
8, 12900, Note_on_c, 10, 47, 127
8, 12930, Note_on_c, 10, 47, 0
8, 12930, Note_on_c, 10, 40, 0
8, 12960, Note_on_c, 10, 41, 127
8, 12960, Note_on_c, 10, 48, 127
8, 13546, Note_on_c, 10, 41, 0
8, 13550, Note_on_c, 10, 48, 0
8, 13680, Note_on_c, 10, 48, 127
8, 13680, Note_on_c, 10, 41, 127
8, 13728, Note_on_c, 10, 48, 0
8, 13729, Note_on_c, 10, 41, 0
8, 13770, Note_on_c, 10, 47, 127
8, 13770, Note_on_c, 10, 40, 127
8, 13795, Note_on_c, 10, 47, 0
8, 13801, Note_on_c, 10, 40, 0
8, 13830, Note_on_c, 10, 45, 127
8, 13830, Note_on_c, 10, 38, 127
8, 13860, Note_on_c, 10, 45, 0
8, 13864, Note_on_c, 10, 38, 0
8, 13920, Note_on_c, 10, 36, 127
8, 13920, Note_on_c, 10, 40, 127
8, 14308, Note_on_c, 10, 40, 0
8, 14315, Note_on_c, 10, 36, 0
8, 14640, Note_on_c, 10, 36, 127
8, 14725, Note_on_c, 10, 36, 0
8, 14730, Note_on_c, 10, 38, 127
8, 14800, Note_on_c, 10, 38, 0
8, 14820, Note_on_c, 10, 36, 127
8, 14842, Note_on_c, 10, 36, 0
8, 14850, Note_on_c, 10, 35, 127
8, 14869, Note_on_c, 10, 35, 0
8, 14880, Note_on_c, 10, 33, 127
8, 14880, Note_on_c, 10, 36, 127
8, 15380, Note_on_c, 10, 33, 0
8, 15407, Note_on_c, 10, 36, 0
8, 15600, Note_on_c, 10, 33, 127
8, 15600, Note_on_c, 10, 36, 127
8, 15630, Note_on_c, 10, 36, 127
8, 15638, Note_on_c, 10, 33, 0
8, 15720, Note_on_c, 10, 36, 0
8, 15720, Note_on_c, 10, 33, 127
8, 15750, Note_on_c, 10, 36, 0
8, 15750, Note_on_c, 10, 31, 127
8, 15758, Note_on_c, 10, 33, 0
8, 15773, Note_on_c, 10, 31, 0
8, 15780, Note_on_c, 10, 29, 127
8, 15801, Note_on_c, 10, 29, 0
8, 15810, Note_on_c, 10, 28, 127
8, 15832, Note_on_c, 10, 28, 0
8, 15840, Note_on_c, 10, 33, 127
8, 15840, Note_on_c, 10, 38, 127
8, 16539, Note_on_c, 10, 38, 0
8, 16544, Note_on_c, 10, 33, 0
8, 16560, Note_on_c, 10, 38, 127
8, 16560, Note_on_c, 10, 33, 127
8, 16631, Note_on_c, 10, 33, 0
8, 16632, Note_on_c, 10, 38, 0
8, 16650, Note_on_c, 10, 33, 127
8, 16650, Note_on_c, 10, 38, 127
8, 16696, Note_on_c, 10, 38, 0
8, 16701, Note_on_c, 10, 33, 0
8, 16740, Note_on_c, 10, 40, 127
8, 16740, Note_on_c, 10, 35, 127
8, 16774, Note_on_c, 10, 40, 0
8, 16777, Note_on_c, 10, 35, 0
8, 16800, Note_on_c, 10, 45, 127
8, 16800, Note_on_c, 10, 41, 127
8, 16800, Note_on_c, 10, 48, 127
8, 17273, Note_on_c, 10, 48, 0
8, 17330, Note_on_c, 10, 41, 0
8, 17330, Note_on_c, 10, 45, 0
8, 17520, Note_on_c, 10, 45, 127
8, 17520, Note_on_c, 10, 41, 127
8, 17579, Note_on_c, 10, 45, 0
8, 17580, Note_on_c, 10, 41, 0
8, 17610, Note_on_c, 10, 40, 127
8, 17610, Note_on_c, 10, 43, 127
8, 17654, Note_on_c, 10, 43, 0
8, 17654, Note_on_c, 10, 40, 0
8, 17700, Note_on_c, 10, 41, 127
8, 17700, Note_on_c, 10, 38, 127
8, 17732, Note_on_c, 10, 38, 0
8, 17734, Note_on_c, 10, 41, 0
8, 17790, Note_on_c, 10, 36, 127
8, 17790, Note_on_c, 10, 33, 127
8, 18119, Note_on_c, 10, 33, 0
8, 18119, Note_on_c, 10, 36, 0
8, 18150, Note_on_c, 10, 38, 127
8, 18150, Note_on_c, 10, 35, 127
8, 18190, Note_on_c, 10, 38, 0
8, 18194, Note_on_c, 10, 35, 0
8, 18240, Note_on_c, 10, 36, 127
8, 18240, Note_on_c, 10, 40, 127
8, 18613, Note_on_c, 10, 40, 0
8, 18613, Note_on_c, 10, 36, 0
8, 18630, Note_on_c, 10, 35, 127
8, 18630, Note_on_c, 10, 38, 127
8, 18668, Note_on_c, 10, 35, 0
8, 18670, Note_on_c, 10, 38, 0
8, 18720, Note_on_c, 10, 36, 127
8, 18720, Note_on_c, 10, 33, 127
8, 19066, Note_on_c, 10, 33, 0
8, 19077, Note_on_c, 10, 36, 0
8, 19110, Note_on_c, 10, 35, 127
8, 19110, Note_on_c, 10, 38, 127
8, 19164, Note_on_c, 10, 38, 0
8, 19165, Note_on_c, 10, 35, 0
8, 19200, Note_on_c, 10, 40, 127
8, 19200, Note_on_c, 10, 36, 127
8, 19500, Note_on_c, 10, 36, 0
8, 19504, Note_on_c, 10, 40, 0
8, 19530, Note_on_c, 10, 35, 127
8, 19564, Note_on_c, 10, 35, 0
8, 19650, Note_on_c, 10, 31, 127
8, 19680, Note_on_c, 10, 35, 127
8, 19912, Note_on_c, 10, 31, 0
8, 19942, Note_on_c, 10, 35, 0
8, 20160, Note_on_c, 10, 43, 127
8, 20160, Note_on_c, 10, 36, 127
8, 20160, Note_on_c, 10, 40, 127
8, 20358, Note_on_c, 10, 43, 0
8, 20364, Note_on_c, 10, 40, 0
8, 20364, Note_on_c, 10, 36, 0
8, 20640, Note_on_c, 10, 38, 127
8, 20643, Note_on_c, 10, 42, 127
8, 20836, Note_on_c, 10, 42, 0
8, 20838, Note_on_c, 10, 38, 0
8, 22320, Note_on_c, 10, 41, 127
8, 22320, Note_on_c, 10, 48, 127
8, 22368, Note_on_c, 10, 48, 0
8, 22369, Note_on_c, 10, 41, 0
8, 22410, Note_on_c, 10, 40, 127
8, 22410, Note_on_c, 10, 47, 127
8, 22435, Note_on_c, 10, 47, 0
8, 22441, Note_on_c, 10, 40, 0
8, 22470, Note_on_c, 10, 38, 127
8, 22470, Note_on_c, 10, 45, 127
8, 22500, Note_on_c, 10, 45, 0
8, 22504, Note_on_c, 10, 38, 0
8, 22572, Note_on_c, 10, 36, 127
8, 22576, Note_on_c, 10, 43, 127
8, 23076, Note_on_c, 10, 43, 0
8, 23076, Note_on_c, 10, 36, 0
8, 23250, Note_on_c, 10, 36, 127
8, 23280, Note_on_c, 10, 38, 127
8, 23291, Note_on_c, 10, 36, 0
8, 23437, Note_on_c, 10, 38, 0
8, 23522, Note_on_c, 10, 45, 127
8, 23524, Note_on_c, 10, 40, 127
8, 23832, Note_on_c, 10, 45, 0
8, 23834, Note_on_c, 10, 40, 0
8, 24240, Note_on_c, 10, 36, 127
8, 24325, Note_on_c, 10, 36, 0
8, 24330, Note_on_c, 10, 38, 127
8, 24400, Note_on_c, 10, 38, 0
8, 24420, Note_on_c, 10, 36, 127
8, 24442, Note_on_c, 10, 36, 0
8, 24450, Note_on_c, 10, 35, 127
8, 24469, Note_on_c, 10, 35, 0
8, 24480, Note_on_c, 10, 38, 127
8, 24480, Note_on_c, 10, 42, 127
8, 24480, Note_on_c, 10, 45, 127
8, 25177, Note_on_c, 10, 45, 0
8, 25194, Note_on_c, 10, 42, 0
8, 25197, Note_on_c, 10, 38, 0
8, 25230, Note_on_c, 10, 42, 127
8, 25230, Note_on_c, 10, 38, 127
8, 25290, Note_on_c, 10, 42, 127
8, 25292, Note_on_c, 10, 42, 0
8, 25333, Note_on_c, 10, 42, 0
8, 25350, Note_on_c, 10, 38, 0
8, 25350, Note_on_c, 10, 44, 127
8, 25380, Note_on_c, 10, 40, 127
8, 25383, Note_on_c, 10, 44, 0
8, 25411, Note_on_c, 10, 40, 0
8, 25440, Note_on_c, 10, 48, 127
8, 25440, Note_on_c, 10, 41, 127
8, 25898, Note_on_c, 10, 48, 0
8, 25918, Note_on_c, 10, 41, 0
8, 26128, Note_on_c, 10, 47, 127
8, 26128, Note_on_c, 10, 40, 127
8, 26154, Note_on_c, 10, 47, 0
8, 26156, Note_on_c, 10, 40, 0
8, 26168, Note_on_c, 10, 41, 127
8, 26168, Note_on_c, 10, 48, 127
8, 26222, Note_on_c, 10, 48, 0
8, 26222, Note_on_c, 10, 41, 0
8, 26242, Note_on_c, 10, 40, 127
8, 26252, Note_on_c, 10, 47, 127
8, 26303, Note_on_c, 10, 47, 0
8, 26306, Note_on_c, 10, 40, 0
8, 26333, Note_on_c, 10, 38, 127
8, 26339, Note_on_c, 10, 45, 127
8, 26375, Note_on_c, 10, 45, 0
8, 26380, Note_on_c, 10, 38, 0
8, 26400, Note_on_c, 10, 36, 127
8, 26400, Control_c, 10, 64, 127
8, 26400, Note_on_c, 10, 43, 127
8, 27006, Note_on_c, 10, 43, 0
8, 27014, Note_on_c, 10, 36, 0
8, 27120, Note_on_c, 10, 36, 127
8, 27120, Note_on_c, 10, 43, 127
8, 27161, Note_on_c, 10, 43, 0
8, 27168, Note_on_c, 10, 36, 0
8, 27210, Note_on_c, 10, 36, 127
8, 27210, Note_on_c, 10, 43, 127
8, 27243, Note_on_c, 10, 36, 0
8, 27245, Note_on_c, 10, 43, 0
8, 27270, Note_on_c, 10, 35, 127
8, 27294, Note_on_c, 10, 35, 0
8, 27360, Note_on_c, 10, 40, 127
8, 27360, Note_on_c, 10, 33, 127
8, 27991, Note_on_c, 10, 33, 0
8, 27998, Note_on_c, 10, 40, 0
8, 28080, Note_on_c, 10, 40, 127
8, 28080, Note_on_c, 10, 33, 127
8, 28125, Note_on_c, 10, 33, 0
8, 28131, Note_on_c, 10, 40, 0
8, 28170, Note_on_c, 10, 33, 127
8, 28170, Note_on_c, 10, 40, 127
8, 28202, Note_on_c, 10, 40, 0
8, 28205, Note_on_c, 10, 33, 0
8, 28230, Note_on_c, 10, 31, 127
8, 28230, Note_on_c, 10, 38, 127
8, 28250, Note_on_c, 10, 38, 0
8, 28250, Note_on_c, 10, 31, 0
8, 28320, Note_on_c, 10, 38, 127
8, 28321, Note_on_c, 10, 45, 127
8, 28672, Note_on_c, 10, 45, 0
8, 28685, Note_on_c, 10, 38, 0
8, 29040, Note_on_c, 10, 38, 127
8, 29040, Note_on_c, 10, 45, 127
8, 29070, Note_on_c, 10, 45, 0
8, 29095, Note_on_c, 10, 38, 0
8, 29130, Note_on_c, 10, 38, 127
8, 29130, Note_on_c, 10, 45, 127
8, 29160, Note_on_c, 10, 45, 0
8, 29160, Note_on_c, 10, 38, 0
8, 29220, Note_on_c, 10, 47, 127
8, 29220, Note_on_c, 10, 40, 127
8, 29250, Note_on_c, 10, 40, 0
8, 29250, Note_on_c, 10, 47, 0
8, 29280, Note_on_c, 10, 41, 127
8, 29280, Note_on_c, 10, 48, 127
8, 29866, Note_on_c, 10, 41, 0
8, 29870, Note_on_c, 10, 48, 0
8, 30000, Note_on_c, 10, 48, 127
8, 30000, Note_on_c, 10, 41, 127
8, 30048, Note_on_c, 10, 48, 0
8, 30049, Note_on_c, 10, 41, 0
8, 30090, Note_on_c, 10, 47, 127
8, 30090, Note_on_c, 10, 40, 127
8, 30115, Note_on_c, 10, 47, 0
8, 30121, Note_on_c, 10, 40, 0
8, 30150, Note_on_c, 10, 45, 127
8, 30150, Note_on_c, 10, 38, 127
8, 30180, Note_on_c, 10, 45, 0
8, 30184, Note_on_c, 10, 38, 0
8, 30240, Note_on_c, 10, 36, 127
8, 30240, Note_on_c, 10, 40, 127
8, 30628, Note_on_c, 10, 40, 0
8, 30635, Note_on_c, 10, 36, 0
8, 30960, Note_on_c, 10, 36, 127
8, 31045, Note_on_c, 10, 36, 0
8, 31050, Note_on_c, 10, 38, 127
8, 31120, Note_on_c, 10, 38, 0
8, 31140, Note_on_c, 10, 36, 127
8, 31162, Note_on_c, 10, 36, 0
8, 31170, Note_on_c, 10, 35, 127
8, 31189, Note_on_c, 10, 35, 0
8, 31200, Note_on_c, 10, 33, 127
8, 31200, Note_on_c, 10, 36, 127
8, 31700, Note_on_c, 10, 33, 0
8, 31727, Note_on_c, 10, 36, 0
8, 31920, Note_on_c, 10, 33, 127
8, 31920, Note_on_c, 10, 36, 127
8, 31950, Note_on_c, 10, 36, 127
8, 31958, Note_on_c, 10, 33, 0
8, 32040, Note_on_c, 10, 36, 0
8, 32040, Note_on_c, 10, 33, 127
8, 32070, Note_on_c, 10, 36, 0
8, 32070, Note_on_c, 10, 31, 127
8, 32078, Note_on_c, 10, 33, 0
8, 32093, Note_on_c, 10, 31, 0
8, 32100, Note_on_c, 10, 29, 127
8, 32121, Note_on_c, 10, 29, 0
8, 32130, Note_on_c, 10, 28, 127
8, 32152, Note_on_c, 10, 28, 0
8, 32160, Note_on_c, 10, 33, 127
8, 32160, Note_on_c, 10, 38, 127
8, 32859, Note_on_c, 10, 38, 0
8, 32864, Note_on_c, 10, 33, 0
8, 32880, Note_on_c, 10, 38, 127
8, 32880, Note_on_c, 10, 33, 127
8, 32951, Note_on_c, 10, 33, 0
8, 32952, Note_on_c, 10, 38, 0
8, 32970, Note_on_c, 10, 33, 127
8, 32970, Note_on_c, 10, 38, 127
8, 33016, Note_on_c, 10, 38, 0
8, 33021, Note_on_c, 10, 33, 0
8, 33060, Note_on_c, 10, 40, 127
8, 33060, Note_on_c, 10, 35, 127
8, 33094, Note_on_c, 10, 40, 0
8, 33097, Note_on_c, 10, 35, 0
8, 33120, Note_on_c, 10, 45, 127
8, 33120, Note_on_c, 10, 48, 127
8, 33120, Note_on_c, 10, 41, 127
8, 33593, Note_on_c, 10, 48, 0
8, 33650, Note_on_c, 10, 41, 0
8, 33650, Note_on_c, 10, 45, 0
8, 33840, Note_on_c, 10, 45, 127
8, 33840, Note_on_c, 10, 41, 127
8, 33899, Note_on_c, 10, 45, 0
8, 33900, Note_on_c, 10, 41, 0
8, 33930, Note_on_c, 10, 43, 127
8, 33930, Note_on_c, 10, 40, 127
8, 33974, Note_on_c, 10, 40, 0
8, 33974, Note_on_c, 10, 43, 0
8, 34020, Note_on_c, 10, 38, 127
8, 34020, Note_on_c, 10, 41, 127
8, 34052, Note_on_c, 10, 38, 0
8, 34054, Note_on_c, 10, 41, 0
8, 34080, Note_on_c, 10, 40, 127
8, 34080, Note_on_c, 10, 36, 127
8, 34600, Note_on_c, 10, 36, 0
8, 34604, Note_on_c, 10, 40, 0
8, 34800, Note_on_c, 10, 36, 127
8, 34882, Note_on_c, 10, 36, 0
8, 34890, Note_on_c, 10, 38, 127
8, 34938, Note_on_c, 10, 38, 0
8, 34950, Note_on_c, 10, 36, 127
8, 34971, Note_on_c, 10, 36, 0
8, 35010, Note_on_c, 10, 35, 127
8, 35030, Note_on_c, 10, 35, 0
8, 35040, Note_on_c, 10, 31, 127
8, 35040, Note_on_c, 10, 33, 127
8, 35050, Note_on_c, 10, 31, 0
8, 35682, Note_on_c, 10, 33, 0
8, 35730, Note_on_c, 10, 28, 127
8, 35760, Note_on_c, 10, 33, 127
8, 35763, Note_on_c, 10, 28, 0
8, 35829, Note_on_c, 10, 33, 0
8, 35850, Note_on_c, 10, 33, 127
8, 35904, Note_on_c, 10, 33, 0
8, 35910, Note_on_c, 10, 31, 127
8, 35954, Note_on_c, 10, 31, 0
8, 36000, Note_on_c, 10, 42, 127
8, 36000, Note_on_c, 10, 38, 127
8, 36294, Note_on_c, 10, 42, 0
8, 36296, Note_on_c, 10, 38, 0
8, 36720, Note_on_c, 10, 33, 127
8, 36720, Note_on_c, 10, 38, 127
8, 36794, Note_on_c, 10, 38, 0
8, 36810, Note_on_c, 10, 38, 127
8, 36849, Note_on_c, 10, 33, 0
8, 36853, Note_on_c, 10, 38, 0
8, 36900, Note_on_c, 10, 35, 127
8, 36900, Note_on_c, 10, 40, 127
8, 36934, Note_on_c, 10, 40, 0
8, 36938, Note_on_c, 10, 35, 0
8, 36960, Note_on_c, 10, 41, 127
8, 36960, Note_on_c, 10, 48, 127
8, 37418, Note_on_c, 10, 48, 0
8, 37438, Note_on_c, 10, 41, 0
8, 37648, Note_on_c, 10, 47, 127
8, 37648, Note_on_c, 10, 40, 127
8, 37674, Note_on_c, 10, 47, 0
8, 37676, Note_on_c, 10, 40, 0
8, 37688, Note_on_c, 10, 48, 127
8, 37688, Note_on_c, 10, 41, 127
8, 37742, Note_on_c, 10, 41, 0
8, 37742, Note_on_c, 10, 48, 0
8, 37762, Note_on_c, 10, 40, 127
8, 37772, Note_on_c, 10, 47, 127
8, 37823, Note_on_c, 10, 47, 0
8, 37826, Note_on_c, 10, 40, 0
8, 37853, Note_on_c, 10, 38, 127
8, 37859, Note_on_c, 10, 45, 127
8, 37895, Note_on_c, 10, 45, 0
8, 37900, Note_on_c, 10, 38, 0
8, 37932, Note_on_c, 10, 36, 127
8, 37936, Note_on_c, 10, 43, 127
8, 38436, Note_on_c, 10, 43, 0
8, 38436, Note_on_c, 10, 36, 0
8, 38610, Note_on_c, 10, 36, 127
8, 38640, Note_on_c, 10, 38, 127
8, 38651, Note_on_c, 10, 36, 0
8, 38797, Note_on_c, 10, 38, 0
8, 38882, Note_on_c, 10, 45, 127
8, 38884, Note_on_c, 10, 40, 127
8, 39192, Note_on_c, 10, 45, 0
8, 39194, Note_on_c, 10, 40, 0
8, 39600, Note_on_c, 10, 36, 127
8, 39685, Note_on_c, 10, 36, 0
8, 39690, Note_on_c, 10, 38, 127
8, 39760, Note_on_c, 10, 38, 0
8, 39780, Note_on_c, 10, 36, 127
8, 39802, Note_on_c, 10, 36, 0
8, 39810, Note_on_c, 10, 35, 127
8, 39829, Note_on_c, 10, 35, 0
8, 39840, Note_on_c, 10, 45, 127
8, 39840, Note_on_c, 10, 42, 127
8, 39840, Note_on_c, 10, 38, 127
8, 40537, Note_on_c, 10, 45, 0
8, 40554, Note_on_c, 10, 42, 0
8, 40557, Note_on_c, 10, 38, 0
8, 40590, Note_on_c, 10, 38, 127
8, 40590, Note_on_c, 10, 42, 127
8, 40650, Note_on_c, 10, 42, 127
8, 40652, Note_on_c, 10, 42, 0
8, 40693, Note_on_c, 10, 42, 0
8, 40710, Note_on_c, 10, 38, 0
8, 40710, Note_on_c, 10, 44, 127
8, 40740, Note_on_c, 10, 40, 127
8, 40743, Note_on_c, 10, 44, 0
8, 40771, Note_on_c, 10, 40, 0
8, 40800, Note_on_c, 10, 48, 127
8, 40800, Note_on_c, 10, 41, 127
8, 41258, Note_on_c, 10, 48, 0
8, 41278, Note_on_c, 10, 41, 0
8, 41488, Note_on_c, 10, 47, 127
8, 41488, Note_on_c, 10, 40, 127
8, 41514, Note_on_c, 10, 47, 0
8, 41516, Note_on_c, 10, 40, 0
8, 41528, Note_on_c, 10, 48, 127
8, 41528, Note_on_c, 10, 41, 127
8, 41582, Note_on_c, 10, 41, 0
8, 41582, Note_on_c, 10, 48, 0
8, 41602, Note_on_c, 10, 40, 127
8, 41612, Note_on_c, 10, 47, 127
8, 41663, Note_on_c, 10, 47, 0
8, 41666, Note_on_c, 10, 40, 0
8, 41693, Note_on_c, 10, 38, 127
8, 41699, Note_on_c, 10, 45, 127
8, 41735, Note_on_c, 10, 45, 0
8, 41740, Note_on_c, 10, 38, 0
8, 41760, Note_on_c, 10, 36, 127
8, 41760, Note_on_c, 10, 43, 127
8, 41760, Control_c, 10, 64, 127
8, 42366, Note_on_c, 10, 43, 0
8, 42374, Note_on_c, 10, 36, 0
8, 42480, Note_on_c, 10, 43, 127
8, 42480, Note_on_c, 10, 36, 127
8, 42521, Note_on_c, 10, 43, 0
8, 42528, Note_on_c, 10, 36, 0
8, 42570, Note_on_c, 10, 36, 127
8, 42570, Note_on_c, 10, 43, 127
8, 42603, Note_on_c, 10, 36, 0
8, 42605, Note_on_c, 10, 43, 0
8, 42630, Note_on_c, 10, 35, 127
8, 42654, Note_on_c, 10, 35, 0
8, 42720, Note_on_c, 10, 40, 127
8, 42720, Note_on_c, 10, 33, 127
8, 43351, Note_on_c, 10, 33, 0
8, 43358, Note_on_c, 10, 40, 0
8, 43440, Note_on_c, 10, 33, 127
8, 43440, Note_on_c, 10, 40, 127
8, 43485, Note_on_c, 10, 33, 0
8, 43491, Note_on_c, 10, 40, 0
8, 43530, Note_on_c, 10, 33, 127
8, 43530, Note_on_c, 10, 40, 127
8, 43562, Note_on_c, 10, 40, 0
8, 43565, Note_on_c, 10, 33, 0
8, 43590, Note_on_c, 10, 31, 127
8, 43590, Note_on_c, 10, 38, 127
8, 43610, Note_on_c, 10, 38, 0
8, 43610, Note_on_c, 10, 31, 0
8, 43680, Note_on_c, 10, 38, 127
8, 43681, Note_on_c, 10, 45, 127
8, 44032, Note_on_c, 10, 45, 0
8, 44045, Note_on_c, 10, 38, 0
8, 44400, Note_on_c, 10, 45, 127
8, 44400, Note_on_c, 10, 38, 127
8, 44430, Note_on_c, 10, 45, 0
8, 44455, Note_on_c, 10, 38, 0
8, 44490, Note_on_c, 10, 38, 127
8, 44490, Note_on_c, 10, 45, 127
8, 44520, Note_on_c, 10, 45, 0
8, 44520, Note_on_c, 10, 38, 0
8, 44580, Note_on_c, 10, 47, 127
8, 44580, Note_on_c, 10, 40, 127
8, 44610, Note_on_c, 10, 40, 0
8, 44610, Note_on_c, 10, 47, 0
8, 44640, Note_on_c, 10, 41, 127
8, 44640, Note_on_c, 10, 48, 127
8, 45226, Note_on_c, 10, 41, 0
8, 45230, Note_on_c, 10, 48, 0
8, 45360, Note_on_c, 10, 48, 127
8, 45360, Note_on_c, 10, 41, 127
8, 45408, Note_on_c, 10, 48, 0
8, 45409, Note_on_c, 10, 41, 0
8, 45450, Note_on_c, 10, 47, 127
8, 45450, Note_on_c, 10, 40, 127
8, 45475, Note_on_c, 10, 47, 0
8, 45481, Note_on_c, 10, 40, 0
8, 45510, Note_on_c, 10, 45, 127
8, 45510, Note_on_c, 10, 38, 127
8, 45540, Note_on_c, 10, 45, 0
8, 45544, Note_on_c, 10, 38, 0
8, 45600, Note_on_c, 10, 36, 127
8, 45600, Note_on_c, 10, 40, 127
8, 45988, Note_on_c, 10, 40, 0
8, 45995, Note_on_c, 10, 36, 0
8, 46320, Note_on_c, 10, 36, 127
8, 46405, Note_on_c, 10, 36, 0
8, 46410, Note_on_c, 10, 38, 127
8, 46480, Note_on_c, 10, 38, 0
8, 46500, Note_on_c, 10, 36, 127
8, 46522, Note_on_c, 10, 36, 0
8, 46530, Note_on_c, 10, 35, 127
8, 46549, Note_on_c, 10, 35, 0
8, 46560, Note_on_c, 10, 36, 127
8, 46560, Note_on_c, 10, 33, 127
8, 47060, Note_on_c, 10, 33, 0
8, 47087, Note_on_c, 10, 36, 0
8, 47280, Note_on_c, 10, 36, 127
8, 47280, Note_on_c, 10, 33, 127
8, 47310, Note_on_c, 10, 36, 127
8, 47318, Note_on_c, 10, 33, 0
8, 47400, Note_on_c, 10, 36, 0
8, 47400, Note_on_c, 10, 33, 127
8, 47430, Note_on_c, 10, 36, 0
8, 47430, Note_on_c, 10, 31, 127
8, 47438, Note_on_c, 10, 33, 0
8, 47453, Note_on_c, 10, 31, 0
8, 47460, Note_on_c, 10, 29, 127
8, 47481, Note_on_c, 10, 29, 0
8, 47490, Note_on_c, 10, 28, 127
8, 47512, Note_on_c, 10, 28, 0
8, 47520, Note_on_c, 10, 33, 127
8, 47520, Note_on_c, 10, 38, 127
8, 48219, Note_on_c, 10, 38, 0
8, 48224, Note_on_c, 10, 33, 0
8, 48240, Note_on_c, 10, 38, 127
8, 48240, Note_on_c, 10, 33, 127
8, 48311, Note_on_c, 10, 33, 0
8, 48312, Note_on_c, 10, 38, 0
8, 48330, Note_on_c, 10, 38, 127
8, 48330, Note_on_c, 10, 33, 127
8, 48376, Note_on_c, 10, 38, 0
8, 48381, Note_on_c, 10, 33, 0
8, 48420, Note_on_c, 10, 40, 127
8, 48420, Note_on_c, 10, 35, 127
8, 48454, Note_on_c, 10, 40, 0
8, 48457, Note_on_c, 10, 35, 0
8, 48480, Note_on_c, 10, 41, 127
8, 48480, Note_on_c, 10, 48, 127
8, 48480, Note_on_c, 10, 45, 127
8, 48953, Note_on_c, 10, 48, 0
8, 49010, Note_on_c, 10, 45, 0
8, 49010, Note_on_c, 10, 41, 0
8, 49200, Note_on_c, 10, 45, 127
8, 49200, Note_on_c, 10, 41, 127
8, 49259, Note_on_c, 10, 45, 0
8, 49260, Note_on_c, 10, 41, 0
8, 49290, Note_on_c, 10, 40, 127
8, 49290, Note_on_c, 10, 43, 127
8, 49334, Note_on_c, 10, 43, 0
8, 49334, Note_on_c, 10, 40, 0
8, 49380, Note_on_c, 10, 38, 127
8, 49380, Note_on_c, 10, 41, 127
8, 49412, Note_on_c, 10, 38, 0
8, 49414, Note_on_c, 10, 41, 0
8, 49440, Note_on_c, 10, 40, 127
8, 49440, Note_on_c, 10, 36, 127
8, 49960, Note_on_c, 10, 36, 0
8, 49964, Note_on_c, 10, 40, 0
8, 50160, Note_on_c, 10, 36, 127
8, 50242, Note_on_c, 10, 36, 0
8, 50250, Note_on_c, 10, 38, 127
8, 50298, Note_on_c, 10, 38, 0
8, 50310, Note_on_c, 10, 36, 127
8, 50331, Note_on_c, 10, 36, 0
8, 50370, Note_on_c, 10, 35, 127
8, 50390, Note_on_c, 10, 35, 0
8, 50400, Note_on_c, 10, 33, 127
8, 50400, Note_on_c, 10, 31, 127
8, 50410, Note_on_c, 10, 31, 0
8, 51042, Note_on_c, 10, 33, 0
8, 51090, Note_on_c, 10, 28, 127
8, 51120, Note_on_c, 10, 33, 127
8, 51123, Note_on_c, 10, 28, 0
8, 51189, Note_on_c, 10, 33, 0
8, 51210, Note_on_c, 10, 33, 127
8, 51264, Note_on_c, 10, 33, 0
8, 51270, Note_on_c, 10, 31, 127
8, 51314, Note_on_c, 10, 31, 0
8, 51360, Note_on_c, 10, 38, 127
8, 51360, Note_on_c, 10, 42, 127
8, 51654, Note_on_c, 10, 42, 0
8, 51656, Note_on_c, 10, 38, 0
8, 52080, Note_on_c, 10, 38, 127
8, 52080, Note_on_c, 10, 33, 127
8, 52154, Note_on_c, 10, 38, 0
8, 52170, Note_on_c, 10, 38, 127
8, 52209, Note_on_c, 10, 33, 0
8, 52213, Note_on_c, 10, 38, 0
8, 52260, Note_on_c, 10, 35, 127
8, 52260, Note_on_c, 10, 40, 127
8, 52294, Note_on_c, 10, 40, 0
8, 52298, Note_on_c, 10, 35, 0
8, 52320, Note_on_c, 10, 48, 127
8, 52320, Note_on_c, 10, 41, 127
8, 52778, Note_on_c, 10, 48, 0
8, 52798, Note_on_c, 10, 41, 0
8, 53008, Note_on_c, 10, 47, 127
8, 53008, Note_on_c, 10, 40, 127
8, 53034, Note_on_c, 10, 47, 0
8, 53036, Note_on_c, 10, 40, 0
8, 53048, Note_on_c, 10, 41, 127
8, 53048, Note_on_c, 10, 48, 127
8, 53102, Note_on_c, 10, 48, 0
8, 53102, Note_on_c, 10, 41, 0
8, 53122, Note_on_c, 10, 40, 127
8, 53132, Note_on_c, 10, 47, 127
8, 53183, Note_on_c, 10, 47, 0
8, 53186, Note_on_c, 10, 40, 0
8, 53213, Note_on_c, 10, 38, 127
8, 53219, Note_on_c, 10, 45, 127
8, 53255, Note_on_c, 10, 45, 0
8, 53260, Note_on_c, 10, 38, 0
8, 53292, Note_on_c, 10, 36, 127
8, 53296, Note_on_c, 10, 43, 127
8, 53796, Note_on_c, 10, 43, 0
8, 53796, Note_on_c, 10, 36, 0
8, 53796, End_track
9, 0, Start_track
9, 0, MIDI_port, 0
9, 0, Control_c, 15, 64, 127
9, 197, Program_c, 15, 98
9, 198, Control_c, 15, 7, 80
9, 198, Control_c, 15, 10, 110
9, 6137, Note_on_c, 15, 64, 127
9, 6144, Note_on_c, 15, 64, 0
9, 6146, Note_on_c, 15, 65, 127
9, 6155, Note_on_c, 15, 65, 0
9, 6155, Note_on_c, 15, 67, 127
9, 6174, Note_on_c, 15, 67, 0
9, 6174, Note_on_c, 15, 69, 127
9, 6181, Note_on_c, 15, 69, 0
9, 6185, Note_on_c, 15, 71, 127
9, 6203, Note_on_c, 15, 71, 0
9, 6203, Note_on_c, 15, 72, 127
9, 6229, Note_on_c, 15, 72, 0
9, 8074, Note_on_c, 15, 67, 127
9, 8085, Note_on_c, 15, 67, 0
9, 8085, Note_on_c, 15, 69, 127
9, 8099, Note_on_c, 15, 69, 0
9, 8100, Note_on_c, 15, 71, 127
9, 8115, Note_on_c, 15, 71, 0
9, 8116, Note_on_c, 15, 72, 127
9, 8122, Note_on_c, 15, 72, 0
9, 8126, Note_on_c, 15, 74, 127
9, 8132, Note_on_c, 15, 74, 0
9, 8138, Note_on_c, 15, 74, 127
9, 8154, Note_on_c, 15, 74, 0
9, 9977, Note_on_c, 15, 64, 127
9, 9984, Note_on_c, 15, 64, 0
9, 9986, Note_on_c, 15, 65, 127
9, 9995, Note_on_c, 15, 65, 0
9, 9995, Note_on_c, 15, 67, 127
9, 10014, Note_on_c, 15, 67, 0
9, 10014, Note_on_c, 15, 69, 127
9, 10021, Note_on_c, 15, 69, 0
9, 10025, Note_on_c, 15, 71, 127
9, 10043, Note_on_c, 15, 71, 0
9, 10043, Note_on_c, 15, 72, 127
9, 10069, Note_on_c, 15, 72, 0
9, 11914, Note_on_c, 15, 67, 127
9, 11925, Note_on_c, 15, 67, 0
9, 11925, Note_on_c, 15, 69, 127
9, 11939, Note_on_c, 15, 69, 0
9, 11940, Note_on_c, 15, 71, 127
9, 11955, Note_on_c, 15, 71, 0
9, 11956, Note_on_c, 15, 72, 127
9, 11962, Note_on_c, 15, 72, 0
9, 11966, Note_on_c, 15, 74, 127
9, 11972, Note_on_c, 15, 74, 0
9, 11978, Note_on_c, 15, 74, 127
9, 11994, Note_on_c, 15, 74, 0
9, 13817, Note_on_c, 15, 64, 127
9, 13824, Note_on_c, 15, 64, 0
9, 13826, Note_on_c, 15, 65, 127
9, 13835, Note_on_c, 15, 65, 0
9, 13835, Note_on_c, 15, 67, 127
9, 13854, Note_on_c, 15, 67, 0
9, 13854, Note_on_c, 15, 69, 127
9, 13861, Note_on_c, 15, 69, 0
9, 13865, Note_on_c, 15, 71, 127
9, 13883, Note_on_c, 15, 71, 0
9, 13883, Note_on_c, 15, 72, 127
9, 13909, Note_on_c, 15, 72, 0
9, 15754, Note_on_c, 15, 67, 127
9, 15765, Note_on_c, 15, 67, 0
9, 15765, Note_on_c, 15, 69, 127
9, 15779, Note_on_c, 15, 69, 0
9, 15780, Note_on_c, 15, 71, 127
9, 15795, Note_on_c, 15, 71, 0
9, 15796, Note_on_c, 15, 72, 127
9, 15802, Note_on_c, 15, 72, 0
9, 15806, Note_on_c, 15, 74, 127
9, 15812, Note_on_c, 15, 74, 0
9, 15818, Note_on_c, 15, 74, 127
9, 15834, Note_on_c, 15, 74, 0
9, 17760, Note_on_c, 15, 60, 127
9, 17760, Note_on_c, 15, 57, 127
9, 17774, Note_on_c, 15, 64, 127
9, 17786, Note_on_c, 15, 57, 0
9, 17790, Note_on_c, 15, 60, 0
9, 17795, Note_on_c, 15, 64, 0
9, 18214, Note_on_c, 15, 60, 127
9, 18223, Note_on_c, 15, 64, 127
9, 18238, Note_on_c, 15, 67, 127
9, 18253, Note_on_c, 15, 60, 0
9, 18257, Note_on_c, 15, 64, 0
9, 18261, Note_on_c, 15, 67, 0
9, 18694, Note_on_c, 15, 57, 127
9, 18700, Note_on_c, 15, 60, 127
9, 18709, Note_on_c, 15, 64, 127
9, 18720, Note_on_c, 15, 57, 0
9, 18724, Note_on_c, 15, 60, 0
9, 18728, Note_on_c, 15, 64, 0
9, 19183, Note_on_c, 15, 60, 127
9, 19192, Note_on_c, 15, 64, 127
9, 19207, Note_on_c, 15, 67, 127
9, 19218, Note_on_c, 15, 60, 0
9, 19222, Note_on_c, 15, 64, 0
9, 19230, Note_on_c, 15, 67, 0
9, 19663, Note_on_c, 15, 55, 127
9, 19669, Note_on_c, 15, 59, 127
9, 19679, Note_on_c, 15, 62, 127
9, 19692, Note_on_c, 15, 55, 0
9, 19694, Note_on_c, 15, 59, 0
9, 19702, Note_on_c, 15, 62, 0
9, 20162, Note_on_c, 15, 60, 127
9, 20166, Note_on_c, 15, 64, 127
9, 20174, Note_on_c, 15, 67, 127
9, 20190, Note_on_c, 15, 64, 0
9, 20191, Note_on_c, 15, 60, 0
9, 20199, Note_on_c, 15, 67, 0
9, 20655, Note_on_c, 15, 66, 127
9, 20655, Note_on_c, 15, 62, 127
9, 20669, Note_on_c, 15, 69, 127
9, 20672, Note_on_c, 15, 62, 0
9, 20681, Note_on_c, 15, 66, 0
9, 20682, Note_on_c, 15, 69, 0
9, 22457, Note_on_c, 15, 64, 127
9, 22464, Note_on_c, 15, 64, 0
9, 22466, Note_on_c, 15, 65, 127
9, 22475, Note_on_c, 15, 65, 0
9, 22475, Note_on_c, 15, 67, 127
9, 22494, Note_on_c, 15, 67, 0
9, 22494, Note_on_c, 15, 69, 127
9, 22501, Note_on_c, 15, 69, 0
9, 22505, Note_on_c, 15, 71, 127
9, 22523, Note_on_c, 15, 71, 0
9, 22523, Note_on_c, 15, 72, 127
9, 22549, Note_on_c, 15, 72, 0
9, 24394, Note_on_c, 15, 67, 127
9, 24405, Note_on_c, 15, 67, 0
9, 24405, Note_on_c, 15, 69, 127
9, 24419, Note_on_c, 15, 69, 0
9, 24420, Note_on_c, 15, 71, 127
9, 24435, Note_on_c, 15, 71, 0
9, 24436, Note_on_c, 15, 72, 127
9, 24442, Note_on_c, 15, 72, 0
9, 24446, Note_on_c, 15, 74, 127
9, 24452, Note_on_c, 15, 74, 0
9, 24458, Note_on_c, 15, 74, 127
9, 24474, Note_on_c, 15, 74, 0
9, 26297, Note_on_c, 15, 64, 127
9, 26304, Note_on_c, 15, 64, 0
9, 26306, Note_on_c, 15, 65, 127
9, 26315, Note_on_c, 15, 65, 0
9, 26315, Note_on_c, 15, 67, 127
9, 26334, Note_on_c, 15, 67, 0
9, 26334, Note_on_c, 15, 69, 127
9, 26341, Note_on_c, 15, 69, 0
9, 26345, Note_on_c, 15, 71, 127
9, 26363, Note_on_c, 15, 71, 0
9, 26363, Note_on_c, 15, 72, 127
9, 26389, Note_on_c, 15, 72, 0
9, 28234, Note_on_c, 15, 67, 127
9, 28245, Note_on_c, 15, 67, 0
9, 28245, Note_on_c, 15, 69, 127
9, 28259, Note_on_c, 15, 69, 0
9, 28260, Note_on_c, 15, 71, 127
9, 28275, Note_on_c, 15, 71, 0
9, 28276, Note_on_c, 15, 72, 127
9, 28282, Note_on_c, 15, 72, 0
9, 28286, Note_on_c, 15, 74, 127
9, 28292, Note_on_c, 15, 74, 0
9, 28298, Note_on_c, 15, 74, 127
9, 28314, Note_on_c, 15, 74, 0
9, 30137, Note_on_c, 15, 64, 127
9, 30144, Note_on_c, 15, 64, 0
9, 30146, Note_on_c, 15, 65, 127
9, 30155, Note_on_c, 15, 65, 0
9, 30155, Note_on_c, 15, 67, 127
9, 30174, Note_on_c, 15, 67, 0
9, 30174, Note_on_c, 15, 69, 127
9, 30181, Note_on_c, 15, 69, 0
9, 30185, Note_on_c, 15, 71, 127
9, 30203, Note_on_c, 15, 71, 0
9, 30203, Note_on_c, 15, 72, 127
9, 30229, Note_on_c, 15, 72, 0
9, 32074, Note_on_c, 15, 67, 127
9, 32085, Note_on_c, 15, 67, 0
9, 32085, Note_on_c, 15, 69, 127
9, 32099, Note_on_c, 15, 69, 0
9, 32100, Note_on_c, 15, 71, 127
9, 32115, Note_on_c, 15, 71, 0
9, 32116, Note_on_c, 15, 72, 127
9, 32122, Note_on_c, 15, 72, 0
9, 32126, Note_on_c, 15, 74, 127
9, 32132, Note_on_c, 15, 74, 0
9, 32138, Note_on_c, 15, 74, 127
9, 32154, Note_on_c, 15, 74, 0
9, 33977, Note_on_c, 15, 64, 127
9, 33984, Note_on_c, 15, 64, 0
9, 33986, Note_on_c, 15, 65, 127
9, 33995, Note_on_c, 15, 65, 0
9, 33995, Note_on_c, 15, 67, 127
9, 34014, Note_on_c, 15, 67, 0
9, 34014, Note_on_c, 15, 69, 127
9, 34021, Note_on_c, 15, 69, 0
9, 34025, Note_on_c, 15, 71, 127
9, 34043, Note_on_c, 15, 71, 0
9, 34043, Note_on_c, 15, 72, 127
9, 34069, Note_on_c, 15, 72, 0
9, 35914, Note_on_c, 15, 67, 127
9, 35925, Note_on_c, 15, 67, 0
9, 35925, Note_on_c, 15, 69, 127
9, 35939, Note_on_c, 15, 69, 0
9, 35940, Note_on_c, 15, 71, 127
9, 35955, Note_on_c, 15, 71, 0
9, 35956, Note_on_c, 15, 72, 127
9, 35962, Note_on_c, 15, 72, 0
9, 35966, Note_on_c, 15, 74, 127
9, 35972, Note_on_c, 15, 74, 0
9, 35978, Note_on_c, 15, 74, 127
9, 35994, Note_on_c, 15, 74, 0
9, 37817, Note_on_c, 15, 64, 127
9, 37824, Note_on_c, 15, 64, 0
9, 37826, Note_on_c, 15, 65, 127
9, 37835, Note_on_c, 15, 65, 0
9, 37835, Note_on_c, 15, 67, 127
9, 37854, Note_on_c, 15, 67, 0
9, 37854, Note_on_c, 15, 69, 127
9, 37861, Note_on_c, 15, 69, 0
9, 37865, Note_on_c, 15, 71, 127
9, 37883, Note_on_c, 15, 71, 0
9, 37883, Note_on_c, 15, 72, 127
9, 37909, Note_on_c, 15, 72, 0
9, 39754, Note_on_c, 15, 67, 127
9, 39765, Note_on_c, 15, 67, 0
9, 39765, Note_on_c, 15, 69, 127
9, 39779, Note_on_c, 15, 69, 0
9, 39780, Note_on_c, 15, 71, 127
9, 39795, Note_on_c, 15, 71, 0
9, 39796, Note_on_c, 15, 72, 127
9, 39802, Note_on_c, 15, 72, 0
9, 39806, Note_on_c, 15, 74, 127
9, 39812, Note_on_c, 15, 74, 0
9, 39818, Note_on_c, 15, 74, 127
9, 39834, Note_on_c, 15, 74, 0
9, 41657, Note_on_c, 15, 64, 127
9, 41664, Note_on_c, 15, 64, 0
9, 41666, Note_on_c, 15, 65, 127
9, 41675, Note_on_c, 15, 65, 0
9, 41675, Note_on_c, 15, 67, 127
9, 41694, Note_on_c, 15, 67, 0
9, 41694, Note_on_c, 15, 69, 127
9, 41701, Note_on_c, 15, 69, 0
9, 41705, Note_on_c, 15, 71, 127
9, 41723, Note_on_c, 15, 71, 0
9, 41723, Note_on_c, 15, 72, 127
9, 41749, Note_on_c, 15, 72, 0
9, 43594, Note_on_c, 15, 67, 127
9, 43605, Note_on_c, 15, 67, 0
9, 43605, Note_on_c, 15, 69, 127
9, 43619, Note_on_c, 15, 69, 0
9, 43620, Note_on_c, 15, 71, 127
9, 43635, Note_on_c, 15, 71, 0
9, 43636, Note_on_c, 15, 72, 127
9, 43642, Note_on_c, 15, 72, 0
9, 43646, Note_on_c, 15, 74, 127
9, 43652, Note_on_c, 15, 74, 0
9, 43658, Note_on_c, 15, 74, 127
9, 43674, Note_on_c, 15, 74, 0
9, 45497, Note_on_c, 15, 64, 127
9, 45504, Note_on_c, 15, 64, 0
9, 45506, Note_on_c, 15, 65, 127
9, 45515, Note_on_c, 15, 65, 0
9, 45515, Note_on_c, 15, 67, 127
9, 45534, Note_on_c, 15, 67, 0
9, 45534, Note_on_c, 15, 69, 127
9, 45541, Note_on_c, 15, 69, 0
9, 45545, Note_on_c, 15, 71, 127
9, 45563, Note_on_c, 15, 71, 0
9, 45563, Note_on_c, 15, 72, 127
9, 45589, Note_on_c, 15, 72, 0
9, 47434, Note_on_c, 15, 67, 127
9, 47445, Note_on_c, 15, 67, 0
9, 47445, Note_on_c, 15, 69, 127
9, 47459, Note_on_c, 15, 69, 0
9, 47460, Note_on_c, 15, 71, 127
9, 47475, Note_on_c, 15, 71, 0
9, 47476, Note_on_c, 15, 72, 127
9, 47482, Note_on_c, 15, 72, 0
9, 47486, Note_on_c, 15, 74, 127
9, 47492, Note_on_c, 15, 74, 0
9, 47498, Note_on_c, 15, 74, 127
9, 47514, Note_on_c, 15, 74, 0
9, 49337, Note_on_c, 15, 64, 127
9, 49344, Note_on_c, 15, 64, 0
9, 49346, Note_on_c, 15, 65, 127
9, 49355, Note_on_c, 15, 65, 0
9, 49355, Note_on_c, 15, 67, 127
9, 49374, Note_on_c, 15, 67, 0
9, 49374, Note_on_c, 15, 69, 127
9, 49381, Note_on_c, 15, 69, 0
9, 49385, Note_on_c, 15, 71, 127
9, 49403, Note_on_c, 15, 71, 0
9, 49403, Note_on_c, 15, 72, 127
9, 49429, Note_on_c, 15, 72, 0
9, 51274, Note_on_c, 15, 67, 127
9, 51285, Note_on_c, 15, 67, 0
9, 51285, Note_on_c, 15, 69, 127
9, 51299, Note_on_c, 15, 69, 0
9, 51300, Note_on_c, 15, 71, 127
9, 51315, Note_on_c, 15, 71, 0
9, 51316, Note_on_c, 15, 72, 127
9, 51322, Note_on_c, 15, 72, 0
9, 51326, Note_on_c, 15, 74, 127
9, 51332, Note_on_c, 15, 74, 0
9, 51338, Note_on_c, 15, 74, 127
9, 51354, Note_on_c, 15, 74, 0
9, 53177, Note_on_c, 15, 64, 127
9, 53184, Note_on_c, 15, 64, 0
9, 53186, Note_on_c, 15, 65, 127
9, 53195, Note_on_c, 15, 65, 0
9, 53195, Note_on_c, 15, 67, 127
9, 53214, Note_on_c, 15, 67, 0
9, 53214, Note_on_c, 15, 69, 127
9, 53221, Note_on_c, 15, 69, 0
9, 53225, Note_on_c, 15, 71, 127
9, 53243, Note_on_c, 15, 71, 0
9, 53243, Note_on_c, 15, 72, 127
9, 53269, Note_on_c, 15, 72, 0
9, 53269, End_track
0, 0, End_of_file
