0, 0, Header, 1, 17, 120
1, 0, Start_track
1, 0, Title_t, "For tomrrow"
1, 0, Copyright_t, "Copyright © 1993 by Damon Albarn Music Albarn/Coxon/Rowtree/James"
1, 0, Text_t, "Michael Fothergill e-mail flobby29@hotmail.com\012"
1, 0, SMPTE_offset, 96, 0, 3, 0, 0
1, 0, Time_signature, 4, 2, 24, 8
1, 0, Key_signature, 0, "major"
1, 0, Tempo, 625000
1, 0, End_track
2, 0, Start_track
2, 0, MIDI_port, 0
2, 0, Title_t, "Acoustic guitar"
2, 0, Control_c, 0, 0, 0
2, 0, Control_c, 0, 32, 0
2, 0, Program_c, 0, 25
2, 0, Control_c, 0, 7, 80
2, 0, Control_c, 0, 64, 127
2, 140, Control_c, 0, 7, 0
2, 143, Control_c, 0, 7, 1
2, 176, Control_c, 0, 7, 2
2, 210, Control_c, 0, 7, 3
2, 240, Note_on_c, 0, 71, 127
2, 240, Note_on_c, 0, 54, 127
2, 240, Note_on_c, 0, 59, 127
2, 240, Note_on_c, 0, 66, 127
2, 240, Note_on_c, 0, 78, 127
2, 243, Control_c, 0, 7, 1
2, 246, Control_c, 0, 7, 2
2, 250, Control_c, 0, 7, 4
2, 253, Control_c, 0, 7, 5
2, 256, Control_c, 0, 7, 7
2, 260, Control_c, 0, 7, 8
2, 263, Control_c, 0, 7, 9
2, 266, Control_c, 0, 7, 11
2, 270, Control_c, 0, 7, 12
2, 273, Control_c, 0, 7, 14
2, 276, Control_c, 0, 7, 15
2, 280, Control_c, 0, 7, 16
2, 283, Control_c, 0, 7, 18
2, 286, Control_c, 0, 7, 19
2, 290, Control_c, 0, 7, 21
2, 293, Control_c, 0, 7, 22
2, 296, Control_c, 0, 7, 23
2, 300, Control_c, 0, 7, 25
2, 303, Control_c, 0, 7, 26
2, 306, Control_c, 0, 7, 28
2, 310, Control_c, 0, 7, 29
2, 313, Control_c, 0, 7, 31
2, 316, Control_c, 0, 7, 32
2, 320, Control_c, 0, 7, 33
2, 323, Control_c, 0, 7, 35
2, 326, Control_c, 0, 7, 36
2, 330, Control_c, 0, 7, 38
2, 333, Control_c, 0, 7, 39
2, 336, Control_c, 0, 7, 40
2, 340, Control_c, 0, 7, 42
2, 343, Control_c, 0, 7, 43
2, 346, Control_c, 0, 7, 45
2, 350, Control_c, 0, 7, 46
2, 353, Control_c, 0, 7, 47
2, 356, Control_c, 0, 7, 49
2, 360, Control_c, 0, 7, 50
2, 363, Control_c, 0, 7, 52
2, 366, Control_c, 0, 7, 53
2, 370, Control_c, 0, 7, 55
2, 373, Control_c, 0, 7, 56
2, 376, Control_c, 0, 7, 57
2, 380, Control_c, 0, 7, 59
2, 383, Control_c, 0, 7, 60
2, 386, Control_c, 0, 7, 62
2, 390, Control_c, 0, 7, 63
2, 393, Control_c, 0, 7, 64
2, 396, Control_c, 0, 7, 66
2, 400, Control_c, 0, 7, 67
2, 403, Control_c, 0, 7, 69
2, 406, Control_c, 0, 7, 70
2, 410, Control_c, 0, 7, 71
2, 413, Control_c, 0, 7, 73
2, 416, Control_c, 0, 7, 74
2, 420, Control_c, 0, 7, 76
2, 423, Control_c, 0, 7, 77
2, 426, Control_c, 0, 7, 79
2, 430, Control_c, 0, 7, 80
2, 433, Control_c, 0, 7, 81
2, 436, Control_c, 0, 7, 83
2, 440, Control_c, 0, 7, 84
2, 443, Control_c, 0, 7, 86
2, 446, Control_c, 0, 7, 87
2, 450, Control_c, 0, 7, 88
2, 453, Control_c, 0, 7, 90
2, 456, Control_c, 0, 7, 91
2, 460, Control_c, 0, 7, 93
2, 463, Control_c, 0, 7, 94
2, 466, Control_c, 0, 7, 95
2, 470, Control_c, 0, 7, 97
2, 473, Control_c, 0, 7, 98
2, 476, Control_c, 0, 7, 100
2, 480, Control_c, 0, 7, 101
2, 483, Control_c, 0, 7, 103
2, 486, Control_c, 0, 7, 104
2, 490, Control_c, 0, 7, 105
2, 493, Control_c, 0, 7, 107
2, 496, Control_c, 0, 7, 108
2, 500, Control_c, 0, 7, 110
2, 503, Control_c, 0, 7, 111
2, 506, Control_c, 0, 7, 112
2, 510, Control_c, 0, 7, 114
2, 513, Control_c, 0, 7, 115
2, 516, Control_c, 0, 7, 117
2, 520, Control_c, 0, 7, 118
2, 523, Control_c, 0, 7, 119
2, 526, Control_c, 0, 7, 121
2, 530, Control_c, 0, 7, 122
2, 533, Control_c, 0, 7, 124
2, 536, Control_c, 0, 7, 125
2, 540, Control_c, 0, 7, 127
2, 653, Control_c, 0, 10, 48
2, 683, Control_c, 0, 7, 99
2, 706, Control_c, 0, 7, 127
2, 710, Control_c, 0, 7, 98
2, 720, Control_c, 0, 64, 0
2, 780, Note_on_c, 0, 75, 100
2, 780, Note_on_c, 0, 78, 100
2, 780, Note_on_c, 0, 54, 100
2, 780, Note_on_c, 0, 66, 100
2, 780, Note_on_c, 0, 59, 100
2, 780, Note_on_c, 0, 71, 100
2, 816, Control_c, 0, 7, 104
2, 826, Control_c, 0, 7, 103
2, 834, Note_on_c, 0, 75, 0
2, 834, Note_on_c, 0, 66, 0
2, 834, Note_on_c, 0, 71, 0
2, 834, Note_on_c, 0, 59, 0
2, 834, Note_on_c, 0, 78, 0
2, 834, Note_on_c, 0, 54, 0
2, 840, Note_on_c, 0, 75, 100
2, 840, Note_on_c, 0, 78, 100
2, 840, Note_on_c, 0, 59, 100
2, 840, Note_on_c, 0, 54, 100
2, 840, Note_on_c, 0, 66, 100
2, 840, Note_on_c, 0, 71, 100
2, 894, Note_on_c, 0, 75, 0
2, 894, Note_on_c, 0, 66, 0
2, 894, Note_on_c, 0, 71, 0
2, 894, Note_on_c, 0, 59, 0
2, 894, Note_on_c, 0, 54, 0
2, 894, Note_on_c, 0, 78, 0
2, 900, Note_on_c, 0, 59, 100
2, 900, Note_on_c, 0, 54, 100
2, 900, Note_on_c, 0, 66, 100
2, 900, Note_on_c, 0, 78, 100
2, 900, Note_on_c, 0, 71, 100
2, 900, Note_on_c, 0, 75, 100
2, 954, Note_on_c, 0, 75, 0
2, 954, Note_on_c, 0, 66, 0
2, 954, Note_on_c, 0, 59, 0
2, 954, Note_on_c, 0, 71, 0
2, 954, Note_on_c, 0, 54, 0
2, 954, Note_on_c, 0, 78, 0
2, 960, Note_on_c, 0, 59, 0
2, 960, Note_on_c, 0, 78, 0
2, 960, Note_on_c, 0, 71, 0
2, 960, Note_on_c, 0, 54, 0
2, 960, Note_on_c, 0, 66, 0
2, 960, Note_on_c, 0, 73, 100
2, 960, Note_on_c, 0, 68, 100
2, 960, Note_on_c, 0, 80, 100
2, 960, Note_on_c, 0, 56, 100
2, 960, Note_on_c, 0, 61, 100
2, 960, Note_on_c, 0, 76, 100
2, 1080, Note_on_c, 0, 76, 0
2, 1080, Note_on_c, 0, 68, 0
2, 1080, Note_on_c, 0, 80, 0
2, 1080, Note_on_c, 0, 73, 0
2, 1080, Note_on_c, 0, 61, 0
2, 1080, Note_on_c, 0, 56, 0
2, 1080, Note_on_c, 0, 73, 100
2, 1080, Note_on_c, 0, 80, 100
2, 1080, Note_on_c, 0, 68, 100
2, 1080, Note_on_c, 0, 76, 100
2, 1080, Note_on_c, 0, 61, 100
2, 1080, Note_on_c, 0, 56, 100
2, 1140, Note_on_c, 0, 56, 0
2, 1140, Note_on_c, 0, 80, 0
2, 1140, Note_on_c, 0, 68, 0
2, 1140, Note_on_c, 0, 73, 0
2, 1140, Note_on_c, 0, 61, 0
2, 1140, Note_on_c, 0, 76, 0
2, 1140, Note_on_c, 0, 61, 100
2, 1140, Note_on_c, 0, 73, 100
2, 1140, Note_on_c, 0, 76, 100
2, 1140, Note_on_c, 0, 80, 100
2, 1140, Note_on_c, 0, 68, 100
2, 1140, Note_on_c, 0, 56, 100
2, 1200, Note_on_c, 0, 56, 0
2, 1200, Note_on_c, 0, 73, 0
2, 1200, Note_on_c, 0, 76, 0
2, 1200, Note_on_c, 0, 61, 0
2, 1200, Note_on_c, 0, 68, 0
2, 1200, Note_on_c, 0, 80, 0
2, 1200, Note_on_c, 0, 59, 100
2, 1200, Note_on_c, 0, 66, 100
2, 1200, Note_on_c, 0, 78, 100
2, 1200, Note_on_c, 0, 75, 100
2, 1200, Note_on_c, 0, 71, 100
2, 1200, Note_on_c, 0, 54, 100
2, 1260, Note_on_c, 0, 54, 0
2, 1260, Note_on_c, 0, 66, 0
2, 1260, Note_on_c, 0, 78, 0
2, 1260, Note_on_c, 0, 59, 0
2, 1260, Note_on_c, 0, 71, 0
2, 1260, Note_on_c, 0, 75, 0
2, 1260, Note_on_c, 0, 75, 100
2, 1260, Note_on_c, 0, 78, 100
2, 1260, Note_on_c, 0, 59, 100
2, 1260, Note_on_c, 0, 54, 100
2, 1260, Note_on_c, 0, 66, 100
2, 1260, Note_on_c, 0, 71, 100
2, 1320, Note_on_c, 0, 71, 0
2, 1320, Note_on_c, 0, 78, 0
2, 1320, Note_on_c, 0, 59, 0
2, 1320, Note_on_c, 0, 75, 0
2, 1320, Note_on_c, 0, 66, 0
2, 1320, Note_on_c, 0, 54, 0
2, 1320, Note_on_c, 0, 54, 100
2, 1320, Note_on_c, 0, 71, 100
2, 1320, Note_on_c, 0, 59, 100
2, 1320, Note_on_c, 0, 75, 100
2, 1320, Note_on_c, 0, 78, 100
2, 1320, Note_on_c, 0, 66, 100
2, 1380, Note_on_c, 0, 66, 0
2, 1380, Note_on_c, 0, 71, 0
2, 1380, Note_on_c, 0, 59, 0
2, 1380, Note_on_c, 0, 54, 0
2, 1380, Note_on_c, 0, 78, 0
2, 1380, Note_on_c, 0, 75, 0
2, 1380, Note_on_c, 0, 73, 100
2, 1380, Note_on_c, 0, 69, 100
2, 1380, Note_on_c, 0, 52, 100
2, 1380, Note_on_c, 0, 64, 100
2, 1380, Note_on_c, 0, 76, 100
2, 1380, Note_on_c, 0, 57, 100
2, 1500, Note_on_c, 0, 57, 0
2, 1500, Note_on_c, 0, 69, 0
2, 1500, Note_on_c, 0, 52, 0
2, 1500, Note_on_c, 0, 73, 0
2, 1500, Note_on_c, 0, 76, 0
2, 1500, Note_on_c, 0, 64, 0
2, 1500, Note_on_c, 0, 69, 100
2, 1500, Note_on_c, 0, 76, 100
2, 1500, Note_on_c, 0, 57, 100
2, 1500, Note_on_c, 0, 52, 100
2, 1500, Note_on_c, 0, 73, 100
2, 1500, Note_on_c, 0, 64, 100
2, 1560, Note_on_c, 0, 64, 0
2, 1560, Note_on_c, 0, 76, 0
2, 1560, Note_on_c, 0, 57, 0
2, 1560, Note_on_c, 0, 69, 0
2, 1560, Note_on_c, 0, 73, 0
2, 1560, Note_on_c, 0, 52, 0
2, 1560, Note_on_c, 0, 64, 100
2, 1560, Note_on_c, 0, 73, 100
2, 1560, Note_on_c, 0, 52, 100
2, 1560, Note_on_c, 0, 76, 100
2, 1560, Note_on_c, 0, 69, 100
2, 1560, Note_on_c, 0, 57, 100
2, 1620, Note_on_c, 0, 57, 0
2, 1620, Note_on_c, 0, 73, 0
2, 1620, Note_on_c, 0, 52, 0
2, 1620, Note_on_c, 0, 64, 0
2, 1620, Note_on_c, 0, 69, 0
2, 1620, Note_on_c, 0, 76, 0
2, 1620, Note_on_c, 0, 76, 100
2, 1620, Note_on_c, 0, 73, 100
2, 1620, Note_on_c, 0, 64, 100
2, 1620, Note_on_c, 0, 57, 100
2, 1620, Note_on_c, 0, 69, 100
2, 1620, Note_on_c, 0, 52, 100
2, 1680, Note_on_c, 0, 52, 0
2, 1680, Note_on_c, 0, 73, 0
2, 1680, Note_on_c, 0, 64, 0
2, 1680, Note_on_c, 0, 76, 0
2, 1680, Note_on_c, 0, 69, 0
2, 1680, Note_on_c, 0, 57, 0
2, 1680, Note_on_c, 0, 57, 100
2, 1680, Note_on_c, 0, 52, 100
2, 1680, Note_on_c, 0, 64, 100
2, 1680, Note_on_c, 0, 73, 100
2, 1680, Note_on_c, 0, 69, 100
2, 1680, Note_on_c, 0, 76, 100
2, 1740, Note_on_c, 0, 76, 0
2, 1740, Note_on_c, 0, 52, 0
2, 1740, Note_on_c, 0, 64, 0
2, 1740, Note_on_c, 0, 57, 0
2, 1740, Note_on_c, 0, 69, 0
2, 1740, Note_on_c, 0, 73, 0
2, 1740, Note_on_c, 0, 59, 100
2, 1740, Note_on_c, 0, 66, 100
2, 1740, Note_on_c, 0, 71, 100
2, 1740, Note_on_c, 0, 78, 100
2, 1740, Note_on_c, 0, 75, 100
2, 1740, Note_on_c, 0, 54, 100
2, 1800, Note_on_c, 0, 54, 0
2, 1800, Note_on_c, 0, 66, 0
2, 1800, Note_on_c, 0, 71, 0
2, 1800, Note_on_c, 0, 59, 0
2, 1800, Note_on_c, 0, 75, 0
2, 1800, Note_on_c, 0, 78, 0
2, 1800, Note_on_c, 0, 78, 100
2, 1800, Note_on_c, 0, 66, 100
2, 1800, Note_on_c, 0, 59, 100
2, 1800, Note_on_c, 0, 54, 100
2, 1800, Note_on_c, 0, 75, 100
2, 1800, Note_on_c, 0, 71, 100
2, 1860, Note_on_c, 0, 71, 0
2, 1860, Note_on_c, 0, 66, 0
2, 1860, Note_on_c, 0, 59, 0
2, 1860, Note_on_c, 0, 78, 0
2, 1860, Note_on_c, 0, 75, 0
2, 1860, Note_on_c, 0, 54, 0
2, 1860, Note_on_c, 0, 78, 100
2, 1860, Note_on_c, 0, 71, 100
2, 1860, Note_on_c, 0, 75, 100
2, 1860, Note_on_c, 0, 59, 100
2, 1860, Note_on_c, 0, 54, 100
2, 1860, Note_on_c, 0, 66, 100
2, 1920, Note_on_c, 0, 66, 0
2, 1920, Note_on_c, 0, 71, 0
2, 1920, Note_on_c, 0, 75, 0
2, 1920, Note_on_c, 0, 78, 0
2, 1920, Note_on_c, 0, 54, 0
2, 1920, Note_on_c, 0, 59, 0
2, 1920, Note_on_c, 0, 80, 100
2, 1920, Note_on_c, 0, 75, 100
2, 1920, Note_on_c, 0, 71, 100
2, 1920, Note_on_c, 0, 68, 100
2, 1920, Note_on_c, 0, 63, 100
2, 1920, Note_on_c, 0, 56, 100
2, 2040, Note_on_c, 0, 56, 0
2, 2040, Note_on_c, 0, 75, 0
2, 2040, Note_on_c, 0, 71, 0
2, 2040, Note_on_c, 0, 80, 0
2, 2040, Note_on_c, 0, 63, 0
2, 2040, Note_on_c, 0, 68, 0
2, 2040, Note_on_c, 0, 80, 100
2, 2040, Note_on_c, 0, 75, 100
2, 2040, Note_on_c, 0, 71, 100
2, 2040, Note_on_c, 0, 68, 100
2, 2040, Note_on_c, 0, 63, 100
2, 2040, Note_on_c, 0, 56, 100
2, 2160, Note_on_c, 0, 56, 0
2, 2160, Note_on_c, 0, 75, 0
2, 2160, Note_on_c, 0, 71, 0
2, 2160, Note_on_c, 0, 80, 0
2, 2160, Note_on_c, 0, 63, 0
2, 2160, Note_on_c, 0, 68, 0
2, 2160, Note_on_c, 0, 80, 100
2, 2160, Note_on_c, 0, 75, 100
2, 2160, Note_on_c, 0, 71, 100
2, 2160, Note_on_c, 0, 68, 100
2, 2160, Note_on_c, 0, 63, 100
2, 2160, Note_on_c, 0, 56, 100
2, 2220, Note_on_c, 0, 56, 0
2, 2220, Note_on_c, 0, 75, 0
2, 2220, Note_on_c, 0, 71, 0
2, 2220, Note_on_c, 0, 80, 0
2, 2220, Note_on_c, 0, 63, 0
2, 2220, Note_on_c, 0, 68, 0
2, 2220, Note_on_c, 0, 80, 100
2, 2220, Note_on_c, 0, 75, 100
2, 2220, Note_on_c, 0, 71, 100
2, 2220, Note_on_c, 0, 68, 100
2, 2220, Note_on_c, 0, 63, 100
2, 2220, Note_on_c, 0, 56, 100
2, 2280, Note_on_c, 0, 80, 100
2, 2280, Note_on_c, 0, 75, 100
2, 2280, Note_on_c, 0, 71, 100
2, 2280, Note_on_c, 0, 68, 100
2, 2280, Note_on_c, 0, 63, 100
2, 2280, Note_on_c, 0, 56, 100
2, 2340, Note_on_c, 0, 56, 0
2, 2340, Note_on_c, 0, 75, 0
2, 2340, Note_on_c, 0, 75, 0
2, 2340, Note_on_c, 0, 71, 0
2, 2340, Note_on_c, 0, 68, 0
2, 2340, Note_on_c, 0, 80, 0
2, 2340, Note_on_c, 0, 63, 0
2, 2340, Note_on_c, 0, 56, 0
2, 2340, Note_on_c, 0, 71, 0
2, 2340, Note_on_c, 0, 80, 0
2, 2340, Note_on_c, 0, 63, 0
2, 2340, Note_on_c, 0, 68, 0
2, 2340, Note_on_c, 0, 79, 100
2, 2340, Note_on_c, 0, 74, 100
2, 2340, Note_on_c, 0, 71, 100
2, 2340, Note_on_c, 0, 67, 100
2, 2340, Note_on_c, 0, 62, 100
2, 2340, Note_on_c, 0, 55, 100
2, 2460, Note_on_c, 0, 55, 0
2, 2460, Note_on_c, 0, 74, 0
2, 2460, Note_on_c, 0, 71, 0
2, 2460, Note_on_c, 0, 79, 0
2, 2460, Note_on_c, 0, 62, 0
2, 2460, Note_on_c, 0, 67, 0
2, 2460, Note_on_c, 0, 79, 100
2, 2460, Note_on_c, 0, 74, 100
2, 2460, Note_on_c, 0, 71, 100
2, 2460, Note_on_c, 0, 67, 100
2, 2460, Note_on_c, 0, 62, 100
2, 2460, Note_on_c, 0, 55, 100
2, 2520, Note_on_c, 0, 55, 0
2, 2520, Note_on_c, 0, 74, 0
2, 2520, Note_on_c, 0, 71, 0
2, 2520, Note_on_c, 0, 79, 0
2, 2520, Note_on_c, 0, 62, 0
2, 2520, Note_on_c, 0, 67, 0
2, 2580, Note_on_c, 0, 79, 100
2, 2580, Note_on_c, 0, 74, 100
2, 2580, Note_on_c, 0, 71, 100
2, 2580, Note_on_c, 0, 67, 100
2, 2580, Note_on_c, 0, 62, 100
2, 2580, Note_on_c, 0, 55, 100
2, 2640, Note_on_c, 0, 55, 0
2, 2640, Note_on_c, 0, 74, 0
2, 2640, Note_on_c, 0, 71, 0
2, 2640, Note_on_c, 0, 79, 0
2, 2640, Note_on_c, 0, 62, 0
2, 2640, Note_on_c, 0, 67, 0
2, 2640, Note_on_c, 0, 79, 100
2, 2640, Note_on_c, 0, 74, 100
2, 2640, Note_on_c, 0, 71, 100
2, 2640, Note_on_c, 0, 67, 100
2, 2640, Note_on_c, 0, 62, 100
2, 2640, Note_on_c, 0, 55, 100
2, 2700, Note_on_c, 0, 55, 0
2, 2700, Note_on_c, 0, 74, 0
2, 2700, Note_on_c, 0, 71, 0
2, 2700, Note_on_c, 0, 79, 0
2, 2700, Note_on_c, 0, 62, 0
2, 2700, Note_on_c, 0, 67, 0
2, 2700, Note_on_c, 0, 79, 100
2, 2700, Note_on_c, 0, 74, 100
2, 2700, Note_on_c, 0, 71, 100
2, 2700, Note_on_c, 0, 67, 100
2, 2700, Note_on_c, 0, 62, 100
2, 2700, Note_on_c, 0, 55, 100
2, 2820, Note_on_c, 0, 55, 0
2, 2820, Note_on_c, 0, 74, 0
2, 2820, Note_on_c, 0, 71, 0
2, 2820, Note_on_c, 0, 79, 0
2, 2820, Note_on_c, 0, 62, 0
2, 2820, Note_on_c, 0, 67, 0
2, 2820, Note_on_c, 0, 79, 100
2, 2820, Note_on_c, 0, 74, 100
2, 2820, Note_on_c, 0, 71, 100
2, 2820, Note_on_c, 0, 67, 100
2, 2820, Note_on_c, 0, 62, 100
2, 2820, Note_on_c, 0, 55, 100
2, 2880, Note_on_c, 0, 55, 0
2, 2880, Note_on_c, 0, 74, 0
2, 2880, Note_on_c, 0, 71, 0
2, 2880, Note_on_c, 0, 79, 0
2, 2880, Note_on_c, 0, 62, 0
2, 2880, Note_on_c, 0, 67, 0
2, 2880, Note_on_c, 0, 77, 100
2, 2880, Note_on_c, 0, 72, 100
2, 2880, Note_on_c, 0, 69, 100
2, 2880, Note_on_c, 0, 65, 100
2, 2880, Note_on_c, 0, 60, 100
2, 2880, Note_on_c, 0, 53, 100
2, 3000, Note_on_c, 0, 53, 0
2, 3000, Note_on_c, 0, 72, 0
2, 3000, Note_on_c, 0, 69, 0
2, 3000, Note_on_c, 0, 77, 0
2, 3000, Note_on_c, 0, 60, 0
2, 3000, Note_on_c, 0, 65, 0
2, 3000, Note_on_c, 0, 77, 100
2, 3000, Note_on_c, 0, 72, 100
2, 3000, Note_on_c, 0, 69, 100
2, 3000, Note_on_c, 0, 65, 100
2, 3000, Note_on_c, 0, 60, 100
2, 3000, Note_on_c, 0, 53, 100
2, 3060, Note_on_c, 0, 77, 100
2, 3060, Note_on_c, 0, 72, 100
2, 3060, Note_on_c, 0, 69, 100
2, 3060, Note_on_c, 0, 65, 100
2, 3060, Note_on_c, 0, 60, 100
2, 3060, Note_on_c, 0, 53, 100
2, 3120, Note_on_c, 0, 53, 0
2, 3120, Note_on_c, 0, 72, 0
2, 3120, Note_on_c, 0, 72, 0
2, 3120, Note_on_c, 0, 69, 0
2, 3120, Note_on_c, 0, 65, 0
2, 3120, Note_on_c, 0, 77, 0
2, 3120, Note_on_c, 0, 60, 0
2, 3120, Note_on_c, 0, 53, 0
2, 3120, Note_on_c, 0, 69, 0
2, 3120, Note_on_c, 0, 77, 0
2, 3120, Note_on_c, 0, 60, 0
2, 3120, Note_on_c, 0, 65, 0
2, 3120, Note_on_c, 0, 76, 100
2, 3120, Note_on_c, 0, 72, 100
2, 3120, Note_on_c, 0, 67, 100
2, 3120, Note_on_c, 0, 60, 100
2, 3120, Note_on_c, 0, 55, 100
2, 3240, Note_on_c, 0, 55, 0
2, 3240, Note_on_c, 0, 67, 0
2, 3240, Note_on_c, 0, 76, 0
2, 3240, Note_on_c, 0, 72, 0
2, 3240, Note_on_c, 0, 60, 0
2, 3240, Note_on_c, 0, 76, 100
2, 3240, Note_on_c, 0, 72, 100
2, 3240, Note_on_c, 0, 67, 100
2, 3240, Note_on_c, 0, 60, 100
2, 3240, Note_on_c, 0, 55, 100
2, 3360, Note_on_c, 0, 55, 0
2, 3360, Note_on_c, 0, 67, 0
2, 3360, Note_on_c, 0, 76, 0
2, 3360, Note_on_c, 0, 72, 0
2, 3360, Note_on_c, 0, 60, 0
2, 3360, Note_on_c, 0, 74, 100
2, 3360, Note_on_c, 0, 78, 100
2, 3360, Note_on_c, 0, 66, 100
2, 3360, Note_on_c, 0, 62, 100
2, 3360, Note_on_c, 0, 57, 100
2, 3480, Note_on_c, 0, 57, 0
2, 3480, Note_on_c, 0, 66, 0
2, 3480, Note_on_c, 0, 74, 0
2, 3480, Note_on_c, 0, 78, 0
2, 3480, Note_on_c, 0, 62, 0
2, 3480, Note_on_c, 0, 78, 100
2, 3480, Note_on_c, 0, 74, 100
2, 3480, Note_on_c, 0, 66, 100
2, 3480, Note_on_c, 0, 62, 100
2, 3480, Note_on_c, 0, 57, 100
2, 3600, Note_on_c, 0, 57, 0
2, 3600, Note_on_c, 0, 66, 0
2, 3600, Note_on_c, 0, 78, 0
2, 3600, Note_on_c, 0, 74, 0
2, 3600, Note_on_c, 0, 62, 0
2, 3600, Note_on_c, 0, 78, 100
2, 3600, Note_on_c, 0, 74, 100
2, 3600, Note_on_c, 0, 66, 100
2, 3600, Note_on_c, 0, 62, 100
2, 3600, Note_on_c, 0, 57, 100
2, 3660, Note_on_c, 0, 57, 0
2, 3660, Note_on_c, 0, 66, 0
2, 3660, Note_on_c, 0, 78, 0
2, 3660, Note_on_c, 0, 74, 0
2, 3660, Note_on_c, 0, 62, 0
2, 3660, Note_on_c, 0, 78, 100
2, 3660, Note_on_c, 0, 74, 100
2, 3660, Note_on_c, 0, 66, 100
2, 3660, Note_on_c, 0, 62, 100
2, 3660, Note_on_c, 0, 57, 100
2, 3720, Note_on_c, 0, 57, 0
2, 3720, Note_on_c, 0, 66, 0
2, 3720, Note_on_c, 0, 78, 0
2, 3720, Note_on_c, 0, 74, 0
2, 3720, Note_on_c, 0, 62, 0
2, 3780, Note_on_c, 0, 78, 100
2, 3780, Note_on_c, 0, 74, 100
2, 3780, Note_on_c, 0, 66, 100
2, 3780, Note_on_c, 0, 62, 100
2, 3780, Note_on_c, 0, 57, 100
2, 3840, Note_on_c, 0, 57, 0
2, 3840, Note_on_c, 0, 66, 0
2, 3840, Note_on_c, 0, 78, 0
2, 3840, Note_on_c, 0, 74, 0
2, 3840, Note_on_c, 0, 62, 0
2, 3840, Note_on_c, 0, 77, 100
2, 3840, Note_on_c, 0, 72, 100
2, 3840, Note_on_c, 0, 69, 100
2, 3840, Note_on_c, 0, 65, 100
2, 3840, Note_on_c, 0, 60, 100
2, 3840, Note_on_c, 0, 53, 100
2, 3960, Note_on_c, 0, 53, 0
2, 3960, Note_on_c, 0, 72, 0
2, 3960, Note_on_c, 0, 69, 0
2, 3960, Note_on_c, 0, 77, 0
2, 3960, Note_on_c, 0, 60, 0
2, 3960, Note_on_c, 0, 65, 0
2, 3960, Note_on_c, 0, 77, 100
2, 3960, Note_on_c, 0, 72, 100
2, 3960, Note_on_c, 0, 69, 100
2, 3960, Note_on_c, 0, 65, 100
2, 3960, Note_on_c, 0, 60, 100
2, 3960, Note_on_c, 0, 53, 100
2, 4080, Note_on_c, 0, 53, 0
2, 4080, Note_on_c, 0, 72, 0
2, 4080, Note_on_c, 0, 69, 0
2, 4080, Note_on_c, 0, 77, 0
2, 4080, Note_on_c, 0, 60, 0
2, 4080, Note_on_c, 0, 65, 0
2, 4080, Note_on_c, 0, 77, 100
2, 4080, Note_on_c, 0, 72, 100
2, 4080, Note_on_c, 0, 69, 100
2, 4080, Note_on_c, 0, 65, 100
2, 4080, Note_on_c, 0, 60, 100
2, 4080, Note_on_c, 0, 53, 100
2, 4140, Note_on_c, 0, 53, 0
2, 4140, Note_on_c, 0, 72, 0
2, 4140, Note_on_c, 0, 69, 0
2, 4140, Note_on_c, 0, 77, 0
2, 4140, Note_on_c, 0, 60, 0
2, 4140, Note_on_c, 0, 65, 0
2, 4140, Note_on_c, 0, 77, 100
2, 4140, Note_on_c, 0, 72, 100
2, 4140, Note_on_c, 0, 69, 100
2, 4140, Note_on_c, 0, 65, 100
2, 4140, Note_on_c, 0, 60, 100
2, 4140, Note_on_c, 0, 53, 100
2, 4260, Note_on_c, 0, 53, 0
2, 4260, Note_on_c, 0, 72, 0
2, 4260, Note_on_c, 0, 69, 0
2, 4260, Note_on_c, 0, 77, 0
2, 4260, Note_on_c, 0, 60, 0
2, 4260, Note_on_c, 0, 65, 0
2, 4260, Note_on_c, 0, 77, 100
2, 4260, Note_on_c, 0, 72, 100
2, 4260, Note_on_c, 0, 69, 100
2, 4260, Note_on_c, 0, 65, 100
2, 4260, Note_on_c, 0, 60, 100
2, 4260, Note_on_c, 0, 53, 100
2, 4320, Note_on_c, 0, 53, 0
2, 4320, Note_on_c, 0, 72, 0
2, 4320, Note_on_c, 0, 69, 0
2, 4320, Note_on_c, 0, 77, 0
2, 4320, Note_on_c, 0, 60, 0
2, 4320, Note_on_c, 0, 65, 0
2, 4320, Note_on_c, 0, 59, 100
2, 4320, Note_on_c, 0, 71, 100
2, 4320, Note_on_c, 0, 67, 100
2, 4320, Note_on_c, 0, 79, 100
2, 4320, Note_on_c, 0, 62, 100
2, 4320, Note_on_c, 0, 55, 100
2, 4440, Note_on_c, 0, 55, 0
2, 4440, Note_on_c, 0, 71, 0
2, 4440, Note_on_c, 0, 67, 0
2, 4440, Note_on_c, 0, 59, 0
2, 4440, Note_on_c, 0, 62, 0
2, 4440, Note_on_c, 0, 79, 0
2, 4440, Note_on_c, 0, 79, 100
2, 4440, Note_on_c, 0, 71, 100
2, 4440, Note_on_c, 0, 67, 100
2, 4440, Note_on_c, 0, 62, 100
2, 4440, Note_on_c, 0, 59, 100
2, 4440, Note_on_c, 0, 55, 100
2, 4560, Note_on_c, 0, 55, 0
2, 4560, Note_on_c, 0, 71, 0
2, 4560, Note_on_c, 0, 67, 0
2, 4560, Note_on_c, 0, 79, 0
2, 4560, Note_on_c, 0, 59, 0
2, 4560, Note_on_c, 0, 62, 0
2, 4620, Note_on_c, 0, 79, 100
2, 4620, Note_on_c, 0, 71, 100
2, 4620, Note_on_c, 0, 67, 100
2, 4620, Note_on_c, 0, 62, 100
2, 4620, Note_on_c, 0, 59, 100
2, 4620, Note_on_c, 0, 55, 100
2, 4680, Note_on_c, 0, 55, 0
2, 4680, Note_on_c, 0, 71, 0
2, 4680, Note_on_c, 0, 67, 0
2, 4680, Note_on_c, 0, 79, 0
2, 4680, Note_on_c, 0, 59, 0
2, 4680, Note_on_c, 0, 62, 0
2, 4680, Note_on_c, 0, 79, 100
2, 4680, Note_on_c, 0, 71, 100
2, 4680, Note_on_c, 0, 67, 100
2, 4680, Note_on_c, 0, 62, 100
2, 4680, Note_on_c, 0, 59, 100
2, 4680, Note_on_c, 0, 55, 100
2, 4740, Note_on_c, 0, 79, 100
2, 4740, Note_on_c, 0, 71, 100
2, 4740, Note_on_c, 0, 67, 100
2, 4740, Note_on_c, 0, 62, 100
2, 4740, Note_on_c, 0, 59, 100
2, 4740, Note_on_c, 0, 55, 100
2, 4800, Note_on_c, 0, 55, 0
2, 4800, Note_on_c, 0, 71, 0
2, 4800, Note_on_c, 0, 71, 0
2, 4800, Note_on_c, 0, 67, 0
2, 4800, Note_on_c, 0, 62, 0
2, 4800, Note_on_c, 0, 79, 0
2, 4800, Note_on_c, 0, 59, 0
2, 4800, Note_on_c, 0, 55, 0
2, 4800, Note_on_c, 0, 67, 0
2, 4800, Note_on_c, 0, 79, 0
2, 4800, Note_on_c, 0, 59, 0
2, 4800, Note_on_c, 0, 62, 0
2, 4800, Note_on_c, 0, 80, 100
2, 4800, Note_on_c, 0, 73, 100
2, 4800, Note_on_c, 0, 68, 100
2, 4800, Note_on_c, 0, 76, 100
2, 4800, Note_on_c, 0, 56, 100
2, 4800, Note_on_c, 0, 61, 100
2, 4920, Note_on_c, 0, 61, 0
2, 4920, Note_on_c, 0, 73, 0
2, 4920, Note_on_c, 0, 68, 0
2, 4920, Note_on_c, 0, 80, 0
2, 4920, Note_on_c, 0, 56, 0
2, 4920, Note_on_c, 0, 76, 0
2, 4920, Note_on_c, 0, 76, 100
2, 4920, Note_on_c, 0, 73, 100
2, 4920, Note_on_c, 0, 61, 100
2, 4920, Note_on_c, 0, 56, 100
2, 4920, Note_on_c, 0, 68, 100
2, 4920, Note_on_c, 0, 80, 100
2, 4980, Note_on_c, 0, 80, 0
2, 4980, Note_on_c, 0, 73, 0
2, 4980, Note_on_c, 0, 61, 0
2, 4980, Note_on_c, 0, 76, 0
2, 4980, Note_on_c, 0, 68, 0
2, 4980, Note_on_c, 0, 56, 0
2, 4980, Note_on_c, 0, 61, 100
2, 4980, Note_on_c, 0, 68, 100
2, 4980, Note_on_c, 0, 73, 100
2, 4980, Note_on_c, 0, 76, 100
2, 4980, Note_on_c, 0, 80, 100
2, 4980, Note_on_c, 0, 56, 100
2, 5040, Note_on_c, 0, 56, 0
2, 5040, Note_on_c, 0, 68, 0
2, 5040, Note_on_c, 0, 73, 0
2, 5040, Note_on_c, 0, 61, 0
2, 5040, Note_on_c, 0, 80, 0
2, 5040, Note_on_c, 0, 76, 0
2, 5040, Note_on_c, 0, 78, 100
2, 5040, Note_on_c, 0, 66, 100
2, 5040, Note_on_c, 0, 59, 100
2, 5040, Note_on_c, 0, 54, 100
2, 5040, Note_on_c, 0, 75, 100
2, 5040, Note_on_c, 0, 71, 100
2, 5100, Note_on_c, 0, 71, 0
2, 5100, Note_on_c, 0, 66, 0
2, 5100, Note_on_c, 0, 59, 0
2, 5100, Note_on_c, 0, 78, 0
2, 5100, Note_on_c, 0, 75, 0
2, 5100, Note_on_c, 0, 54, 0
2, 5100, Note_on_c, 0, 71, 100
2, 5100, Note_on_c, 0, 78, 100
2, 5100, Note_on_c, 0, 75, 100
2, 5100, Note_on_c, 0, 59, 100
2, 5100, Note_on_c, 0, 54, 100
2, 5100, Note_on_c, 0, 66, 100
2, 5160, Note_on_c, 0, 66, 0
2, 5160, Note_on_c, 0, 78, 0
2, 5160, Note_on_c, 0, 75, 0
2, 5160, Note_on_c, 0, 71, 0
2, 5160, Note_on_c, 0, 54, 0
2, 5160, Note_on_c, 0, 59, 0
2, 5160, Note_on_c, 0, 54, 100
2, 5160, Note_on_c, 0, 66, 100
2, 5160, Note_on_c, 0, 71, 100
2, 5160, Note_on_c, 0, 59, 100
2, 5160, Note_on_c, 0, 75, 100
2, 5160, Note_on_c, 0, 78, 100
2, 5220, Note_on_c, 0, 78, 0
2, 5220, Note_on_c, 0, 66, 0
2, 5220, Note_on_c, 0, 71, 0
2, 5220, Note_on_c, 0, 54, 0
2, 5220, Note_on_c, 0, 75, 0
2, 5220, Note_on_c, 0, 59, 0
2, 5220, Note_on_c, 0, 73, 100
2, 5220, Note_on_c, 0, 69, 100
2, 5220, Note_on_c, 0, 57, 100
2, 5220, Note_on_c, 0, 52, 100
2, 5220, Note_on_c, 0, 64, 100
2, 5220, Note_on_c, 0, 76, 100
2, 5340, Note_on_c, 0, 76, 0
2, 5340, Note_on_c, 0, 69, 0
2, 5340, Note_on_c, 0, 57, 0
2, 5340, Note_on_c, 0, 73, 0
2, 5340, Note_on_c, 0, 64, 0
2, 5340, Note_on_c, 0, 52, 0
2, 5340, Note_on_c, 0, 76, 100
2, 5340, Note_on_c, 0, 73, 100
2, 5340, Note_on_c, 0, 69, 100
2, 5340, Note_on_c, 0, 64, 100
2, 5340, Note_on_c, 0, 57, 100
2, 5340, Note_on_c, 0, 52, 100
2, 5400, Note_on_c, 0, 52, 0
2, 5400, Note_on_c, 0, 73, 0
2, 5400, Note_on_c, 0, 69, 0
2, 5400, Note_on_c, 0, 76, 0
2, 5400, Note_on_c, 0, 57, 0
2, 5400, Note_on_c, 0, 64, 0
2, 5400, Note_on_c, 0, 76, 100
2, 5400, Note_on_c, 0, 73, 100
2, 5400, Note_on_c, 0, 69, 100
2, 5400, Note_on_c, 0, 64, 100
2, 5400, Note_on_c, 0, 57, 100
2, 5400, Note_on_c, 0, 52, 100
2, 5460, Note_on_c, 0, 52, 0
2, 5460, Note_on_c, 0, 73, 0
2, 5460, Note_on_c, 0, 69, 0
2, 5460, Note_on_c, 0, 76, 0
2, 5460, Note_on_c, 0, 57, 0
2, 5460, Note_on_c, 0, 64, 0
2, 5460, Note_on_c, 0, 76, 100
2, 5460, Note_on_c, 0, 73, 100
2, 5460, Note_on_c, 0, 69, 100
2, 5460, Note_on_c, 0, 64, 100
2, 5460, Note_on_c, 0, 57, 100
2, 5460, Note_on_c, 0, 52, 100
2, 5520, Note_on_c, 0, 52, 0
2, 5520, Note_on_c, 0, 73, 0
2, 5520, Note_on_c, 0, 69, 0
2, 5520, Note_on_c, 0, 76, 0
2, 5520, Note_on_c, 0, 57, 0
2, 5520, Note_on_c, 0, 64, 0
2, 5520, Note_on_c, 0, 76, 100
2, 5520, Note_on_c, 0, 73, 100
2, 5520, Note_on_c, 0, 69, 100
2, 5520, Note_on_c, 0, 64, 100
2, 5520, Note_on_c, 0, 57, 100
2, 5520, Note_on_c, 0, 52, 100
2, 5580, Note_on_c, 0, 52, 0
2, 5580, Note_on_c, 0, 73, 0
2, 5580, Note_on_c, 0, 69, 0
2, 5580, Note_on_c, 0, 76, 0
2, 5580, Note_on_c, 0, 57, 0
2, 5580, Note_on_c, 0, 64, 0
2, 5580, Note_on_c, 0, 59, 100
2, 5580, Note_on_c, 0, 66, 100
2, 5580, Note_on_c, 0, 71, 100
2, 5580, Note_on_c, 0, 78, 100
2, 5580, Note_on_c, 0, 75, 100
2, 5580, Note_on_c, 0, 54, 100
2, 5640, Note_on_c, 0, 54, 0
2, 5640, Note_on_c, 0, 66, 0
2, 5640, Note_on_c, 0, 71, 0
2, 5640, Note_on_c, 0, 59, 0
2, 5640, Note_on_c, 0, 75, 0
2, 5640, Note_on_c, 0, 78, 0
2, 5640, Note_on_c, 0, 78, 100
2, 5640, Note_on_c, 0, 66, 100
2, 5640, Note_on_c, 0, 59, 100
2, 5640, Note_on_c, 0, 54, 100
2, 5640, Note_on_c, 0, 75, 100
2, 5640, Note_on_c, 0, 71, 100
2, 5700, Note_on_c, 0, 71, 0
2, 5700, Note_on_c, 0, 66, 0
2, 5700, Note_on_c, 0, 59, 0
2, 5700, Note_on_c, 0, 78, 0
2, 5700, Note_on_c, 0, 75, 0
2, 5700, Note_on_c, 0, 54, 0
2, 5700, Note_on_c, 0, 78, 100
2, 5700, Note_on_c, 0, 71, 100
2, 5700, Note_on_c, 0, 75, 100
2, 5700, Note_on_c, 0, 59, 100
2, 5700, Note_on_c, 0, 54, 100
2, 5700, Note_on_c, 0, 66, 100
2, 5760, Note_on_c, 0, 66, 0
2, 5760, Note_on_c, 0, 71, 0
2, 5760, Note_on_c, 0, 75, 0
2, 5760, Note_on_c, 0, 78, 0
2, 5760, Note_on_c, 0, 54, 0
2, 5760, Note_on_c, 0, 59, 0
2, 5760, Note_on_c, 0, 80, 100
2, 5760, Note_on_c, 0, 75, 100
2, 5760, Note_on_c, 0, 71, 100
2, 5760, Note_on_c, 0, 68, 100
2, 5760, Note_on_c, 0, 63, 100
2, 5760, Note_on_c, 0, 56, 100
2, 5880, Note_on_c, 0, 56, 0
2, 5880, Note_on_c, 0, 75, 0
2, 5880, Note_on_c, 0, 71, 0
2, 5880, Note_on_c, 0, 80, 0
2, 5880, Note_on_c, 0, 63, 0
2, 5880, Note_on_c, 0, 68, 0
2, 5880, Note_on_c, 0, 80, 100
2, 5880, Note_on_c, 0, 75, 100
2, 5880, Note_on_c, 0, 71, 100
2, 5880, Note_on_c, 0, 68, 100
2, 5880, Note_on_c, 0, 63, 100
2, 5880, Note_on_c, 0, 56, 100
2, 6000, Note_on_c, 0, 56, 0
2, 6000, Note_on_c, 0, 75, 0
2, 6000, Note_on_c, 0, 71, 0
2, 6000, Note_on_c, 0, 80, 0
2, 6000, Note_on_c, 0, 63, 0
2, 6000, Note_on_c, 0, 68, 0
2, 6000, Note_on_c, 0, 80, 100
2, 6000, Note_on_c, 0, 75, 100
2, 6000, Note_on_c, 0, 71, 100
2, 6000, Note_on_c, 0, 68, 100
2, 6000, Note_on_c, 0, 63, 100
2, 6000, Note_on_c, 0, 56, 100
2, 6060, Note_on_c, 0, 56, 0
2, 6060, Note_on_c, 0, 75, 0
2, 6060, Note_on_c, 0, 71, 0
2, 6060, Note_on_c, 0, 80, 0
2, 6060, Note_on_c, 0, 63, 0
2, 6060, Note_on_c, 0, 68, 0
2, 6060, Note_on_c, 0, 80, 100
2, 6060, Note_on_c, 0, 75, 100
2, 6060, Note_on_c, 0, 71, 100
2, 6060, Note_on_c, 0, 68, 100
2, 6060, Note_on_c, 0, 63, 100
2, 6060, Note_on_c, 0, 56, 100
2, 6120, Note_on_c, 0, 80, 100
2, 6120, Note_on_c, 0, 75, 100
2, 6120, Note_on_c, 0, 71, 100
2, 6120, Note_on_c, 0, 68, 100
2, 6120, Note_on_c, 0, 63, 100
2, 6120, Note_on_c, 0, 56, 100
2, 6180, Note_on_c, 0, 56, 0
2, 6180, Note_on_c, 0, 75, 0
2, 6180, Note_on_c, 0, 75, 0
2, 6180, Note_on_c, 0, 71, 0
2, 6180, Note_on_c, 0, 68, 0
2, 6180, Note_on_c, 0, 80, 0
2, 6180, Note_on_c, 0, 63, 0
2, 6180, Note_on_c, 0, 56, 0
2, 6180, Note_on_c, 0, 71, 0
2, 6180, Note_on_c, 0, 80, 0
2, 6180, Note_on_c, 0, 63, 0
2, 6180, Note_on_c, 0, 68, 0
2, 6180, Note_on_c, 0, 79, 100
2, 6180, Note_on_c, 0, 74, 100
2, 6180, Note_on_c, 0, 71, 100
2, 6180, Note_on_c, 0, 67, 100
2, 6180, Note_on_c, 0, 62, 100
2, 6180, Note_on_c, 0, 55, 100
2, 6300, Note_on_c, 0, 55, 0
2, 6300, Note_on_c, 0, 74, 0
2, 6300, Note_on_c, 0, 71, 0
2, 6300, Note_on_c, 0, 79, 0
2, 6300, Note_on_c, 0, 62, 0
2, 6300, Note_on_c, 0, 67, 0
2, 6300, Note_on_c, 0, 79, 100
2, 6300, Note_on_c, 0, 74, 100
2, 6300, Note_on_c, 0, 71, 100
2, 6300, Note_on_c, 0, 67, 100
2, 6300, Note_on_c, 0, 62, 100
2, 6300, Note_on_c, 0, 55, 100
2, 6360, Note_on_c, 0, 55, 0
2, 6360, Note_on_c, 0, 74, 0
2, 6360, Note_on_c, 0, 71, 0
2, 6360, Note_on_c, 0, 79, 0
2, 6360, Note_on_c, 0, 62, 0
2, 6360, Note_on_c, 0, 67, 0
2, 6420, Note_on_c, 0, 79, 100
2, 6420, Note_on_c, 0, 74, 100
2, 6420, Note_on_c, 0, 71, 100
2, 6420, Note_on_c, 0, 67, 100
2, 6420, Note_on_c, 0, 62, 100
2, 6420, Note_on_c, 0, 55, 100
2, 6480, Note_on_c, 0, 55, 0
2, 6480, Note_on_c, 0, 74, 0
2, 6480, Note_on_c, 0, 71, 0
2, 6480, Note_on_c, 0, 79, 0
2, 6480, Note_on_c, 0, 62, 0
2, 6480, Note_on_c, 0, 67, 0
2, 6480, Note_on_c, 0, 79, 100
2, 6480, Note_on_c, 0, 74, 100
2, 6480, Note_on_c, 0, 71, 100
2, 6480, Note_on_c, 0, 67, 100
2, 6480, Note_on_c, 0, 62, 100
2, 6480, Note_on_c, 0, 55, 100
2, 6540, Note_on_c, 0, 55, 0
2, 6540, Note_on_c, 0, 74, 0
2, 6540, Note_on_c, 0, 71, 0
2, 6540, Note_on_c, 0, 79, 0
2, 6540, Note_on_c, 0, 62, 0
2, 6540, Note_on_c, 0, 67, 0
2, 6540, Note_on_c, 0, 79, 100
2, 6540, Note_on_c, 0, 74, 100
2, 6540, Note_on_c, 0, 71, 100
2, 6540, Note_on_c, 0, 67, 100
2, 6540, Note_on_c, 0, 62, 100
2, 6540, Note_on_c, 0, 55, 100
2, 6660, Note_on_c, 0, 55, 0
2, 6660, Note_on_c, 0, 74, 0
2, 6660, Note_on_c, 0, 71, 0
2, 6660, Note_on_c, 0, 79, 0
2, 6660, Note_on_c, 0, 62, 0
2, 6660, Note_on_c, 0, 67, 0
2, 6660, Note_on_c, 0, 79, 100
2, 6660, Note_on_c, 0, 74, 100
2, 6660, Note_on_c, 0, 71, 100
2, 6660, Note_on_c, 0, 67, 100
2, 6660, Note_on_c, 0, 62, 100
2, 6660, Note_on_c, 0, 55, 100
2, 6720, Note_on_c, 0, 55, 0
2, 6720, Note_on_c, 0, 74, 0
2, 6720, Note_on_c, 0, 71, 0
2, 6720, Note_on_c, 0, 79, 0
2, 6720, Note_on_c, 0, 62, 0
2, 6720, Note_on_c, 0, 67, 0
2, 6720, Note_on_c, 0, 77, 100
2, 6720, Note_on_c, 0, 72, 100
2, 6720, Note_on_c, 0, 69, 100
2, 6720, Note_on_c, 0, 65, 100
2, 6720, Note_on_c, 0, 60, 100
2, 6720, Note_on_c, 0, 53, 100
2, 6840, Note_on_c, 0, 53, 0
2, 6840, Note_on_c, 0, 72, 0
2, 6840, Note_on_c, 0, 69, 0
2, 6840, Note_on_c, 0, 77, 0
2, 6840, Note_on_c, 0, 60, 0
2, 6840, Note_on_c, 0, 65, 0
2, 6840, Note_on_c, 0, 77, 100
2, 6840, Note_on_c, 0, 72, 100
2, 6840, Note_on_c, 0, 69, 100
2, 6840, Note_on_c, 0, 65, 100
2, 6840, Note_on_c, 0, 60, 100
2, 6840, Note_on_c, 0, 53, 100
2, 6900, Note_on_c, 0, 77, 100
2, 6900, Note_on_c, 0, 72, 100
2, 6900, Note_on_c, 0, 69, 100
2, 6900, Note_on_c, 0, 65, 100
2, 6900, Note_on_c, 0, 60, 100
2, 6900, Note_on_c, 0, 53, 100
2, 6960, Note_on_c, 0, 53, 0
2, 6960, Note_on_c, 0, 72, 0
2, 6960, Note_on_c, 0, 72, 0
2, 6960, Note_on_c, 0, 69, 0
2, 6960, Note_on_c, 0, 65, 0
2, 6960, Note_on_c, 0, 77, 0
2, 6960, Note_on_c, 0, 60, 0
2, 6960, Note_on_c, 0, 53, 0
2, 6960, Note_on_c, 0, 69, 0
2, 6960, Note_on_c, 0, 77, 0
2, 6960, Note_on_c, 0, 60, 0
2, 6960, Note_on_c, 0, 65, 0
2, 6960, Note_on_c, 0, 76, 100
2, 6960, Note_on_c, 0, 72, 100
2, 6960, Note_on_c, 0, 67, 100
2, 6960, Note_on_c, 0, 60, 100
2, 6960, Note_on_c, 0, 55, 100
2, 7080, Note_on_c, 0, 55, 0
2, 7080, Note_on_c, 0, 67, 0
2, 7080, Note_on_c, 0, 76, 0
2, 7080, Note_on_c, 0, 72, 0
2, 7080, Note_on_c, 0, 60, 0
2, 7080, Note_on_c, 0, 76, 100
2, 7080, Note_on_c, 0, 72, 100
2, 7080, Note_on_c, 0, 67, 100
2, 7080, Note_on_c, 0, 60, 100
2, 7080, Note_on_c, 0, 55, 100
2, 7170, Control_c, 0, 7, 126
2, 7200, Note_on_c, 0, 55, 0
2, 7200, Note_on_c, 0, 67, 0
2, 7200, Note_on_c, 0, 76, 0
2, 7200, Note_on_c, 0, 72, 0
2, 7200, Note_on_c, 0, 60, 0
2, 7200, Note_on_c, 0, 74, 100
2, 7200, Note_on_c, 0, 78, 100
2, 7200, Note_on_c, 0, 66, 100
2, 7200, Note_on_c, 0, 62, 100
2, 7200, Note_on_c, 0, 57, 100
2, 7205, Control_c, 0, 7, 125
2, 7230, Control_c, 0, 7, 124
2, 7255, Control_c, 0, 7, 123
2, 7310, Control_c, 0, 7, 122
2, 7320, Note_on_c, 0, 57, 0
2, 7320, Note_on_c, 0, 66, 0
2, 7320, Note_on_c, 0, 74, 0
2, 7320, Note_on_c, 0, 78, 0
2, 7320, Note_on_c, 0, 62, 0
2, 7320, Note_on_c, 0, 78, 100
2, 7320, Note_on_c, 0, 74, 100
2, 7320, Note_on_c, 0, 66, 100
2, 7320, Note_on_c, 0, 62, 100
2, 7320, Note_on_c, 0, 57, 100
2, 7440, Note_on_c, 0, 57, 0
2, 7440, Note_on_c, 0, 66, 0
2, 7440, Note_on_c, 0, 78, 0
2, 7440, Note_on_c, 0, 74, 0
2, 7440, Note_on_c, 0, 62, 0
2, 7440, Note_on_c, 0, 78, 100
2, 7440, Note_on_c, 0, 74, 100
2, 7440, Note_on_c, 0, 66, 100
2, 7440, Note_on_c, 0, 62, 100
2, 7440, Note_on_c, 0, 57, 100
2, 7460, Control_c, 0, 7, 121
2, 7500, Note_on_c, 0, 57, 0
2, 7500, Note_on_c, 0, 66, 0
2, 7500, Note_on_c, 0, 78, 0
2, 7500, Note_on_c, 0, 74, 0
2, 7500, Note_on_c, 0, 62, 0
2, 7500, Note_on_c, 0, 78, 100
2, 7500, Note_on_c, 0, 74, 100
2, 7500, Note_on_c, 0, 66, 100
2, 7500, Note_on_c, 0, 62, 100
2, 7500, Note_on_c, 0, 57, 100
2, 7545, Control_c, 0, 7, 120
2, 7560, Note_on_c, 0, 57, 0
2, 7560, Note_on_c, 0, 66, 0
2, 7560, Note_on_c, 0, 78, 0
2, 7560, Note_on_c, 0, 74, 0
2, 7560, Note_on_c, 0, 62, 0
2, 7560, Control_c, 0, 7, 119
2, 7590, Control_c, 0, 7, 118
2, 7620, Note_on_c, 0, 78, 100
2, 7620, Note_on_c, 0, 74, 100
2, 7620, Note_on_c, 0, 66, 100
2, 7620, Note_on_c, 0, 62, 100
2, 7620, Note_on_c, 0, 57, 100
2, 7645, Control_c, 0, 7, 117
2, 7680, Note_on_c, 0, 57, 0
2, 7680, Note_on_c, 0, 66, 0
2, 7680, Note_on_c, 0, 78, 0
2, 7680, Note_on_c, 0, 74, 0
2, 7680, Note_on_c, 0, 62, 0
2, 7680, Note_on_c, 0, 77, 100
2, 7680, Note_on_c, 0, 72, 100
2, 7680, Note_on_c, 0, 69, 100
2, 7680, Note_on_c, 0, 65, 100
2, 7680, Note_on_c, 0, 60, 100
2, 7680, Note_on_c, 0, 53, 100
2, 7800, Note_on_c, 0, 53, 0
2, 7800, Note_on_c, 0, 72, 0
2, 7800, Note_on_c, 0, 69, 0
2, 7800, Note_on_c, 0, 77, 0
2, 7800, Note_on_c, 0, 60, 0
2, 7800, Note_on_c, 0, 65, 0
2, 7800, Note_on_c, 0, 77, 100
2, 7800, Note_on_c, 0, 72, 100
2, 7800, Note_on_c, 0, 69, 100
2, 7800, Note_on_c, 0, 65, 100
2, 7800, Note_on_c, 0, 60, 100
2, 7800, Note_on_c, 0, 53, 100
2, 7895, Control_c, 0, 7, 118
2, 7910, Control_c, 0, 7, 119
2, 7920, Note_on_c, 0, 53, 0
2, 7920, Note_on_c, 0, 72, 0
2, 7920, Note_on_c, 0, 69, 0
2, 7920, Note_on_c, 0, 77, 0
2, 7920, Note_on_c, 0, 60, 0
2, 7920, Note_on_c, 0, 65, 0
2, 7920, Note_on_c, 0, 77, 100
2, 7920, Note_on_c, 0, 72, 100
2, 7920, Note_on_c, 0, 69, 100
2, 7920, Note_on_c, 0, 65, 100
2, 7920, Note_on_c, 0, 60, 100
2, 7920, Note_on_c, 0, 53, 100
2, 7970, Control_c, 0, 7, 120
2, 7980, Note_on_c, 0, 53, 0
2, 7980, Note_on_c, 0, 72, 0
2, 7980, Note_on_c, 0, 69, 0
2, 7980, Note_on_c, 0, 77, 0
2, 7980, Note_on_c, 0, 60, 0
2, 7980, Note_on_c, 0, 65, 0
2, 7980, Note_on_c, 0, 77, 100
2, 7980, Note_on_c, 0, 72, 100
2, 7980, Note_on_c, 0, 69, 100
2, 7980, Note_on_c, 0, 65, 100
2, 7980, Note_on_c, 0, 60, 100
2, 7980, Note_on_c, 0, 53, 100
2, 8100, Note_on_c, 0, 53, 0
2, 8100, Note_on_c, 0, 72, 0
2, 8100, Note_on_c, 0, 69, 0
2, 8100, Note_on_c, 0, 77, 0
2, 8100, Note_on_c, 0, 60, 0
2, 8100, Note_on_c, 0, 65, 0
2, 8100, Note_on_c, 0, 77, 100
2, 8100, Note_on_c, 0, 72, 100
2, 8100, Note_on_c, 0, 69, 100
2, 8100, Note_on_c, 0, 65, 100
2, 8100, Note_on_c, 0, 60, 100
2, 8100, Note_on_c, 0, 53, 100
2, 8160, Note_on_c, 0, 53, 0
2, 8160, Note_on_c, 0, 72, 0
2, 8160, Note_on_c, 0, 69, 0
2, 8160, Note_on_c, 0, 77, 0
2, 8160, Note_on_c, 0, 60, 0
2, 8160, Note_on_c, 0, 65, 0
2, 8160, Note_on_c, 0, 59, 100
2, 8160, Note_on_c, 0, 71, 100
2, 8160, Note_on_c, 0, 67, 100
2, 8160, Note_on_c, 0, 79, 100
2, 8160, Note_on_c, 0, 62, 100
2, 8160, Note_on_c, 0, 55, 100
2, 8280, Note_on_c, 0, 55, 0
2, 8280, Note_on_c, 0, 71, 0
2, 8280, Note_on_c, 0, 67, 0
2, 8280, Note_on_c, 0, 59, 0
2, 8280, Note_on_c, 0, 62, 0
2, 8280, Note_on_c, 0, 79, 0
2, 8280, Note_on_c, 0, 79, 100
2, 8280, Note_on_c, 0, 71, 100
2, 8280, Note_on_c, 0, 67, 100
2, 8280, Note_on_c, 0, 62, 100
2, 8280, Note_on_c, 0, 59, 100
2, 8280, Note_on_c, 0, 55, 100
2, 8400, Note_on_c, 0, 55, 0
2, 8400, Note_on_c, 0, 71, 0
2, 8400, Note_on_c, 0, 67, 0
2, 8400, Note_on_c, 0, 79, 0
2, 8400, Note_on_c, 0, 59, 0
2, 8400, Note_on_c, 0, 62, 0
2, 8400, Note_on_c, 0, 79, 100
2, 8400, Note_on_c, 0, 71, 100
2, 8400, Note_on_c, 0, 67, 100
2, 8400, Note_on_c, 0, 62, 100
2, 8400, Note_on_c, 0, 59, 100
2, 8400, Note_on_c, 0, 55, 100
2, 8460, Note_on_c, 0, 55, 0
2, 8460, Note_on_c, 0, 71, 0
2, 8460, Note_on_c, 0, 67, 0
2, 8460, Note_on_c, 0, 79, 0
2, 8460, Note_on_c, 0, 59, 0
2, 8460, Note_on_c, 0, 62, 0
2, 8460, Note_on_c, 0, 79, 100
2, 8460, Note_on_c, 0, 71, 100
2, 8460, Note_on_c, 0, 67, 100
2, 8460, Note_on_c, 0, 62, 100
2, 8460, Note_on_c, 0, 59, 100
2, 8460, Note_on_c, 0, 55, 100
2, 8520, Note_on_c, 0, 55, 0
2, 8520, Note_on_c, 0, 71, 0
2, 8520, Note_on_c, 0, 67, 0
2, 8520, Note_on_c, 0, 79, 0
2, 8520, Note_on_c, 0, 59, 0
2, 8520, Note_on_c, 0, 62, 0
2, 8520, Note_on_c, 0, 79, 100
2, 8520, Note_on_c, 0, 71, 100
2, 8520, Note_on_c, 0, 67, 100
2, 8520, Note_on_c, 0, 62, 100
2, 8520, Note_on_c, 0, 59, 100
2, 8520, Note_on_c, 0, 55, 100
2, 8530, Control_c, 0, 7, 119
2, 8580, Note_on_c, 0, 79, 100
2, 8580, Note_on_c, 0, 71, 100
2, 8580, Note_on_c, 0, 67, 100
2, 8580, Note_on_c, 0, 62, 100
2, 8580, Note_on_c, 0, 59, 100
2, 8580, Note_on_c, 0, 55, 100
2, 8600, Control_c, 0, 7, 118
2, 8605, Control_c, 0, 7, 117
2, 8610, Control_c, 0, 7, 116
2, 8620, Control_c, 0, 7, 115
2, 8625, Control_c, 0, 7, 114
2, 8640, Note_on_c, 0, 55, 0
2, 8640, Note_on_c, 0, 71, 0
2, 8640, Note_on_c, 0, 71, 0
2, 8640, Note_on_c, 0, 67, 0
2, 8640, Note_on_c, 0, 62, 0
2, 8640, Note_on_c, 0, 79, 0
2, 8640, Note_on_c, 0, 59, 0
2, 8640, Note_on_c, 0, 55, 0
2, 8640, Note_on_c, 0, 67, 0
2, 8640, Note_on_c, 0, 79, 0
2, 8640, Note_on_c, 0, 59, 0
2, 8640, Note_on_c, 0, 62, 0
2, 8640, Note_on_c, 0, 79, 100
2, 8640, Note_on_c, 0, 72, 100
2, 8640, Note_on_c, 0, 67, 100
2, 8640, Note_on_c, 0, 60, 100
2, 8640, Note_on_c, 0, 57, 100
2, 8645, Control_c, 0, 7, 113
2, 8650, Control_c, 0, 7, 112
2, 8685, Control_c, 0, 7, 111
2, 8700, Control_c, 0, 7, 110
2, 8705, Control_c, 0, 7, 109
2, 8715, Control_c, 0, 7, 108
2, 8760, Note_on_c, 0, 57, 0
2, 8760, Note_on_c, 0, 67, 0
2, 8760, Note_on_c, 0, 79, 0
2, 8760, Note_on_c, 0, 72, 0
2, 8760, Note_on_c, 0, 60, 0
2, 8760, Note_on_c, 0, 79, 100
2, 8760, Note_on_c, 0, 72, 100
2, 8760, Note_on_c, 0, 67, 100
2, 8760, Note_on_c, 0, 60, 100
2, 8760, Note_on_c, 0, 57, 100
2, 8850, Note_on_c, 0, 79, 100
2, 8850, Note_on_c, 0, 72, 100
2, 8850, Note_on_c, 0, 67, 100
2, 8850, Note_on_c, 0, 60, 100
2, 8850, Note_on_c, 0, 57, 100
2, 8880, Note_on_c, 0, 57, 0
2, 8880, Note_on_c, 0, 67, 0
2, 8880, Note_on_c, 0, 60, 0
2, 8880, Note_on_c, 0, 79, 0
2, 8880, Note_on_c, 0, 57, 0
2, 8880, Note_on_c, 0, 72, 0
2, 8880, Note_on_c, 0, 67, 0
2, 8880, Note_on_c, 0, 72, 0
2, 8880, Note_on_c, 0, 79, 0
2, 8880, Note_on_c, 0, 60, 0
2, 8880, Note_on_c, 0, 79, 100
2, 8880, Note_on_c, 0, 72, 100
2, 8880, Note_on_c, 0, 67, 100
2, 8880, Note_on_c, 0, 60, 100
2, 8880, Note_on_c, 0, 57, 100
2, 8940, Note_on_c, 0, 57, 0
2, 8940, Note_on_c, 0, 67, 0
2, 8940, Note_on_c, 0, 79, 0
2, 8940, Note_on_c, 0, 72, 0
2, 8940, Note_on_c, 0, 60, 0
2, 8940, Note_on_c, 0, 79, 100
2, 8940, Note_on_c, 0, 72, 100
2, 8940, Note_on_c, 0, 67, 100
2, 8940, Note_on_c, 0, 60, 100
2, 8940, Note_on_c, 0, 57, 100
2, 9060, Note_on_c, 0, 57, 0
2, 9060, Note_on_c, 0, 67, 0
2, 9060, Note_on_c, 0, 79, 0
2, 9060, Note_on_c, 0, 72, 0
2, 9060, Note_on_c, 0, 60, 0
2, 9060, Note_on_c, 0, 79, 100
2, 9060, Note_on_c, 0, 72, 100
2, 9060, Note_on_c, 0, 60, 100
2, 9060, Note_on_c, 0, 67, 100
2, 9060, Note_on_c, 0, 57, 100
2, 9120, Note_on_c, 0, 57, 0
2, 9120, Note_on_c, 0, 60, 0
2, 9120, Note_on_c, 0, 79, 0
2, 9120, Note_on_c, 0, 72, 0
2, 9120, Note_on_c, 0, 67, 0
2, 9120, Note_on_c, 0, 79, 100
2, 9120, Note_on_c, 0, 74, 100
2, 9120, Note_on_c, 0, 67, 100
2, 9120, Note_on_c, 0, 62, 100
2, 9120, Note_on_c, 0, 59, 100
2, 9120, Note_on_c, 0, 55, 100
2, 9180, Note_on_c, 0, 79, 100
2, 9180, Note_on_c, 0, 74, 100
2, 9180, Note_on_c, 0, 67, 100
2, 9180, Note_on_c, 0, 62, 100
2, 9180, Note_on_c, 0, 59, 100
2, 9180, Note_on_c, 0, 55, 100
2, 9240, Note_on_c, 0, 55, 0
2, 9240, Note_on_c, 0, 74, 0
2, 9240, Note_on_c, 0, 74, 0
2, 9240, Note_on_c, 0, 67, 0
2, 9240, Note_on_c, 0, 62, 0
2, 9240, Note_on_c, 0, 79, 0
2, 9240, Note_on_c, 0, 59, 0
2, 9240, Note_on_c, 0, 55, 0
2, 9240, Note_on_c, 0, 67, 0
2, 9240, Note_on_c, 0, 79, 0
2, 9240, Note_on_c, 0, 59, 0
2, 9240, Note_on_c, 0, 62, 0
2, 9240, Note_on_c, 0, 74, 100
2, 9240, Note_on_c, 0, 79, 100
2, 9240, Note_on_c, 0, 67, 100
2, 9240, Note_on_c, 0, 62, 100
2, 9240, Note_on_c, 0, 59, 100
2, 9240, Note_on_c, 0, 55, 100
2, 9300, Note_on_c, 0, 55, 0
2, 9300, Note_on_c, 0, 79, 0
2, 9300, Note_on_c, 0, 67, 0
2, 9300, Note_on_c, 0, 74, 0
2, 9300, Note_on_c, 0, 59, 0
2, 9300, Note_on_c, 0, 62, 0
2, 9300, Note_on_c, 0, 74, 100
2, 9300, Note_on_c, 0, 79, 100
2, 9300, Note_on_c, 0, 67, 100
2, 9300, Note_on_c, 0, 62, 100
2, 9300, Note_on_c, 0, 55, 100
2, 9300, Note_on_c, 0, 59, 100
2, 9360, Note_on_c, 0, 59, 0
2, 9360, Note_on_c, 0, 79, 0
2, 9360, Note_on_c, 0, 67, 0
2, 9360, Note_on_c, 0, 74, 0
2, 9360, Note_on_c, 0, 55, 0
2, 9360, Note_on_c, 0, 62, 0
2, 9360, Note_on_c, 0, 57, 100
2, 9360, Note_on_c, 0, 62, 100
2, 9360, Note_on_c, 0, 69, 100
2, 9360, Note_on_c, 0, 74, 100
2, 9360, Note_on_c, 0, 78, 100
2, 9420, Note_on_c, 0, 78, 0
2, 9420, Note_on_c, 0, 69, 0
2, 9420, Note_on_c, 0, 57, 0
2, 9420, Note_on_c, 0, 62, 0
2, 9420, Note_on_c, 0, 74, 0
2, 9420, Note_on_c, 0, 57, 100
2, 9420, Note_on_c, 0, 62, 100
2, 9420, Note_on_c, 0, 69, 100
2, 9420, Note_on_c, 0, 74, 100
2, 9420, Note_on_c, 0, 78, 100
2, 9480, Note_on_c, 0, 78, 0
2, 9480, Note_on_c, 0, 69, 0
2, 9480, Note_on_c, 0, 57, 0
2, 9480, Note_on_c, 0, 62, 0
2, 9480, Note_on_c, 0, 74, 0
2, 9480, Note_on_c, 0, 57, 100
2, 9480, Note_on_c, 0, 62, 100
2, 9480, Note_on_c, 0, 69, 100
2, 9480, Note_on_c, 0, 74, 100
2, 9480, Note_on_c, 0, 78, 100
2, 9540, Note_on_c, 0, 78, 0
2, 9540, Note_on_c, 0, 69, 0
2, 9540, Note_on_c, 0, 57, 0
2, 9540, Note_on_c, 0, 62, 0
2, 9540, Note_on_c, 0, 74, 0
2, 9540, Note_on_c, 0, 57, 100
2, 9540, Note_on_c, 0, 62, 100
2, 9540, Note_on_c, 0, 69, 100
2, 9540, Note_on_c, 0, 74, 100
2, 9540, Note_on_c, 0, 78, 100
2, 9600, Note_on_c, 0, 78, 0
2, 9600, Note_on_c, 0, 69, 0
2, 9600, Note_on_c, 0, 57, 0
2, 9600, Note_on_c, 0, 62, 0
2, 9600, Note_on_c, 0, 74, 0
2, 9600, Note_on_c, 0, 79, 100
2, 9600, Note_on_c, 0, 72, 100
2, 9600, Note_on_c, 0, 67, 100
2, 9600, Note_on_c, 0, 60, 100
2, 9600, Note_on_c, 0, 57, 100
2, 9720, Note_on_c, 0, 57, 0
2, 9720, Note_on_c, 0, 67, 0
2, 9720, Note_on_c, 0, 79, 0
2, 9720, Note_on_c, 0, 72, 0
2, 9720, Note_on_c, 0, 60, 0
2, 9720, Note_on_c, 0, 79, 100
2, 9720, Note_on_c, 0, 72, 100
2, 9720, Note_on_c, 0, 67, 100
2, 9720, Note_on_c, 0, 60, 100
2, 9720, Note_on_c, 0, 57, 100
2, 9810, Note_on_c, 0, 79, 100
2, 9810, Note_on_c, 0, 72, 100
2, 9810, Note_on_c, 0, 67, 100
2, 9810, Note_on_c, 0, 60, 100
2, 9810, Note_on_c, 0, 57, 100
2, 9840, Note_on_c, 0, 57, 0
2, 9840, Note_on_c, 0, 67, 0
2, 9840, Note_on_c, 0, 60, 0
2, 9840, Note_on_c, 0, 79, 0
2, 9840, Note_on_c, 0, 57, 0
2, 9840, Note_on_c, 0, 72, 0
2, 9840, Note_on_c, 0, 67, 0
2, 9840, Note_on_c, 0, 72, 0
2, 9840, Note_on_c, 0, 79, 0
2, 9840, Note_on_c, 0, 60, 0
2, 9840, Note_on_c, 0, 79, 100
2, 9840, Note_on_c, 0, 72, 100
2, 9840, Note_on_c, 0, 67, 100
2, 9840, Note_on_c, 0, 60, 100
2, 9840, Note_on_c, 0, 57, 100
2, 9900, Note_on_c, 0, 57, 0
2, 9900, Note_on_c, 0, 67, 0
2, 9900, Note_on_c, 0, 79, 0
2, 9900, Note_on_c, 0, 72, 0
2, 9900, Note_on_c, 0, 60, 0
2, 9900, Note_on_c, 0, 79, 100
2, 9900, Note_on_c, 0, 72, 100
2, 9900, Note_on_c, 0, 67, 100
2, 9900, Note_on_c, 0, 60, 100
2, 9900, Note_on_c, 0, 57, 100
2, 10020, Note_on_c, 0, 57, 0
2, 10020, Note_on_c, 0, 67, 0
2, 10020, Note_on_c, 0, 79, 0
2, 10020, Note_on_c, 0, 72, 0
2, 10020, Note_on_c, 0, 60, 0
2, 10020, Note_on_c, 0, 79, 100
2, 10020, Note_on_c, 0, 72, 100
2, 10020, Note_on_c, 0, 60, 100
2, 10020, Note_on_c, 0, 67, 100
2, 10020, Note_on_c, 0, 57, 100
2, 10080, Note_on_c, 0, 57, 0
2, 10080, Note_on_c, 0, 60, 0
2, 10080, Note_on_c, 0, 79, 0
2, 10080, Note_on_c, 0, 72, 0
2, 10080, Note_on_c, 0, 67, 0
2, 10080, Note_on_c, 0, 79, 100
2, 10080, Note_on_c, 0, 74, 100
2, 10080, Note_on_c, 0, 67, 100
2, 10080, Note_on_c, 0, 62, 100
2, 10080, Note_on_c, 0, 59, 100
2, 10080, Note_on_c, 0, 55, 100
2, 10140, Note_on_c, 0, 79, 100
2, 10140, Note_on_c, 0, 74, 100
2, 10140, Note_on_c, 0, 67, 100
2, 10140, Note_on_c, 0, 62, 100
2, 10140, Note_on_c, 0, 59, 100
2, 10140, Note_on_c, 0, 55, 100
2, 10200, Note_on_c, 0, 55, 0
2, 10200, Note_on_c, 0, 74, 0
2, 10200, Note_on_c, 0, 74, 0
2, 10200, Note_on_c, 0, 67, 0
2, 10200, Note_on_c, 0, 62, 0
2, 10200, Note_on_c, 0, 79, 0
2, 10200, Note_on_c, 0, 59, 0
2, 10200, Note_on_c, 0, 55, 0
2, 10200, Note_on_c, 0, 67, 0
2, 10200, Note_on_c, 0, 79, 0
2, 10200, Note_on_c, 0, 59, 0
2, 10200, Note_on_c, 0, 62, 0
2, 10200, Note_on_c, 0, 74, 100
2, 10200, Note_on_c, 0, 79, 100
2, 10200, Note_on_c, 0, 67, 100
2, 10200, Note_on_c, 0, 62, 100
2, 10200, Note_on_c, 0, 59, 100
2, 10200, Note_on_c, 0, 55, 100
2, 10260, Note_on_c, 0, 55, 0
2, 10260, Note_on_c, 0, 79, 0
2, 10260, Note_on_c, 0, 67, 0
2, 10260, Note_on_c, 0, 74, 0
2, 10260, Note_on_c, 0, 59, 0
2, 10260, Note_on_c, 0, 62, 0
2, 10260, Note_on_c, 0, 74, 100
2, 10260, Note_on_c, 0, 79, 100
2, 10260, Note_on_c, 0, 67, 100
2, 10260, Note_on_c, 0, 62, 100
2, 10260, Note_on_c, 0, 55, 100
2, 10260, Note_on_c, 0, 59, 100
2, 10320, Note_on_c, 0, 59, 0
2, 10320, Note_on_c, 0, 79, 0
2, 10320, Note_on_c, 0, 67, 0
2, 10320, Note_on_c, 0, 74, 0
2, 10320, Note_on_c, 0, 55, 0
2, 10320, Note_on_c, 0, 62, 0
2, 10320, Note_on_c, 0, 57, 100
2, 10320, Note_on_c, 0, 62, 100
2, 10320, Note_on_c, 0, 69, 100
2, 10320, Note_on_c, 0, 74, 100
2, 10320, Note_on_c, 0, 78, 100
2, 10380, Note_on_c, 0, 78, 0
2, 10380, Note_on_c, 0, 69, 0
2, 10380, Note_on_c, 0, 57, 0
2, 10380, Note_on_c, 0, 62, 0
2, 10380, Note_on_c, 0, 74, 0
2, 10380, Note_on_c, 0, 57, 100
2, 10380, Note_on_c, 0, 62, 100
2, 10380, Note_on_c, 0, 69, 100
2, 10380, Note_on_c, 0, 74, 100
2, 10380, Note_on_c, 0, 78, 100
2, 10440, Note_on_c, 0, 78, 0
2, 10440, Note_on_c, 0, 69, 0
2, 10440, Note_on_c, 0, 57, 0
2, 10440, Note_on_c, 0, 62, 0
2, 10440, Note_on_c, 0, 74, 0
2, 10440, Note_on_c, 0, 57, 100
2, 10440, Note_on_c, 0, 62, 100
2, 10440, Note_on_c, 0, 69, 100
2, 10440, Note_on_c, 0, 74, 100
2, 10440, Note_on_c, 0, 78, 100
2, 10500, Note_on_c, 0, 78, 0
2, 10500, Note_on_c, 0, 69, 0
2, 10500, Note_on_c, 0, 57, 0
2, 10500, Note_on_c, 0, 62, 0
2, 10500, Note_on_c, 0, 74, 0
2, 10500, Note_on_c, 0, 57, 100
2, 10500, Note_on_c, 0, 62, 100
2, 10500, Note_on_c, 0, 69, 100
2, 10500, Note_on_c, 0, 74, 100
2, 10500, Note_on_c, 0, 78, 100
2, 10560, Note_on_c, 0, 78, 0
2, 10560, Note_on_c, 0, 69, 0
2, 10560, Note_on_c, 0, 57, 0
2, 10560, Note_on_c, 0, 62, 0
2, 10560, Note_on_c, 0, 74, 0
2, 10560, Note_on_c, 0, 79, 100
2, 10560, Note_on_c, 0, 72, 100
2, 10560, Note_on_c, 0, 67, 100
2, 10560, Note_on_c, 0, 60, 100
2, 10560, Note_on_c, 0, 57, 100
2, 10680, Note_on_c, 0, 57, 0
2, 10680, Note_on_c, 0, 67, 0
2, 10680, Note_on_c, 0, 79, 0
2, 10680, Note_on_c, 0, 72, 0
2, 10680, Note_on_c, 0, 60, 0
2, 10680, Note_on_c, 0, 79, 100
2, 10680, Note_on_c, 0, 72, 100
2, 10680, Note_on_c, 0, 67, 100
2, 10680, Note_on_c, 0, 60, 100
2, 10680, Note_on_c, 0, 57, 100
2, 10770, Note_on_c, 0, 79, 100
2, 10770, Note_on_c, 0, 72, 100
2, 10770, Note_on_c, 0, 67, 100
2, 10770, Note_on_c, 0, 60, 100
2, 10770, Note_on_c, 0, 57, 100
2, 10800, Note_on_c, 0, 57, 0
2, 10800, Note_on_c, 0, 67, 0
2, 10800, Note_on_c, 0, 60, 0
2, 10800, Note_on_c, 0, 79, 0
2, 10800, Note_on_c, 0, 57, 0
2, 10800, Note_on_c, 0, 72, 0
2, 10800, Note_on_c, 0, 67, 0
2, 10800, Note_on_c, 0, 72, 0
2, 10800, Note_on_c, 0, 79, 0
2, 10800, Note_on_c, 0, 60, 0
2, 10800, Note_on_c, 0, 79, 100
2, 10800, Note_on_c, 0, 72, 100
2, 10800, Note_on_c, 0, 67, 100
2, 10800, Note_on_c, 0, 60, 100
2, 10800, Note_on_c, 0, 57, 100
2, 10860, Note_on_c, 0, 57, 0
2, 10860, Note_on_c, 0, 67, 0
2, 10860, Note_on_c, 0, 79, 0
2, 10860, Note_on_c, 0, 72, 0
2, 10860, Note_on_c, 0, 60, 0
2, 10860, Note_on_c, 0, 79, 100
2, 10860, Note_on_c, 0, 72, 100
2, 10860, Note_on_c, 0, 67, 100
2, 10860, Note_on_c, 0, 60, 100
2, 10860, Note_on_c, 0, 57, 100
2, 10980, Note_on_c, 0, 57, 0
2, 10980, Note_on_c, 0, 67, 0
2, 10980, Note_on_c, 0, 79, 0
2, 10980, Note_on_c, 0, 72, 0
2, 10980, Note_on_c, 0, 60, 0
2, 10980, Note_on_c, 0, 79, 100
2, 10980, Note_on_c, 0, 72, 100
2, 10980, Note_on_c, 0, 60, 100
2, 10980, Note_on_c, 0, 67, 100
2, 10980, Note_on_c, 0, 57, 100
2, 11040, Note_on_c, 0, 57, 0
2, 11040, Note_on_c, 0, 60, 0
2, 11040, Note_on_c, 0, 79, 0
2, 11040, Note_on_c, 0, 72, 0
2, 11040, Note_on_c, 0, 67, 0
2, 11040, Note_on_c, 0, 79, 100
2, 11040, Note_on_c, 0, 74, 100
2, 11040, Note_on_c, 0, 67, 100
2, 11040, Note_on_c, 0, 62, 100
2, 11040, Note_on_c, 0, 59, 100
2, 11040, Note_on_c, 0, 55, 100
2, 11100, Note_on_c, 0, 79, 100
2, 11100, Note_on_c, 0, 74, 100
2, 11100, Note_on_c, 0, 67, 100
2, 11100, Note_on_c, 0, 62, 100
2, 11100, Note_on_c, 0, 59, 100
2, 11100, Note_on_c, 0, 55, 100
2, 11160, Note_on_c, 0, 55, 0
2, 11160, Note_on_c, 0, 74, 0
2, 11160, Note_on_c, 0, 74, 0
2, 11160, Note_on_c, 0, 67, 0
2, 11160, Note_on_c, 0, 62, 0
2, 11160, Note_on_c, 0, 79, 0
2, 11160, Note_on_c, 0, 59, 0
2, 11160, Note_on_c, 0, 55, 0
2, 11160, Note_on_c, 0, 67, 0
2, 11160, Note_on_c, 0, 79, 0
2, 11160, Note_on_c, 0, 59, 0
2, 11160, Note_on_c, 0, 62, 0
2, 11160, Note_on_c, 0, 74, 100
2, 11160, Note_on_c, 0, 79, 100
2, 11160, Note_on_c, 0, 67, 100
2, 11160, Note_on_c, 0, 62, 100
2, 11160, Note_on_c, 0, 59, 100
2, 11160, Note_on_c, 0, 55, 100
2, 11220, Note_on_c, 0, 55, 0
2, 11220, Note_on_c, 0, 79, 0
2, 11220, Note_on_c, 0, 67, 0
2, 11220, Note_on_c, 0, 74, 0
2, 11220, Note_on_c, 0, 59, 0
2, 11220, Note_on_c, 0, 62, 0
2, 11220, Note_on_c, 0, 74, 100
2, 11220, Note_on_c, 0, 79, 100
2, 11220, Note_on_c, 0, 67, 100
2, 11220, Note_on_c, 0, 62, 100
2, 11220, Note_on_c, 0, 55, 100
2, 11220, Note_on_c, 0, 59, 100
2, 11280, Note_on_c, 0, 59, 0
2, 11280, Note_on_c, 0, 79, 0
2, 11280, Note_on_c, 0, 67, 0
2, 11280, Note_on_c, 0, 74, 0
2, 11280, Note_on_c, 0, 55, 0
2, 11280, Note_on_c, 0, 62, 0
2, 11280, Note_on_c, 0, 57, 100
2, 11280, Note_on_c, 0, 62, 100
2, 11280, Note_on_c, 0, 69, 100
2, 11280, Note_on_c, 0, 74, 100
2, 11280, Note_on_c, 0, 78, 100
2, 11340, Note_on_c, 0, 78, 0
2, 11340, Note_on_c, 0, 69, 0
2, 11340, Note_on_c, 0, 57, 0
2, 11340, Note_on_c, 0, 62, 0
2, 11340, Note_on_c, 0, 74, 0
2, 11340, Note_on_c, 0, 57, 100
2, 11340, Note_on_c, 0, 62, 100
2, 11340, Note_on_c, 0, 69, 100
2, 11340, Note_on_c, 0, 74, 100
2, 11340, Note_on_c, 0, 78, 100
2, 11400, Note_on_c, 0, 78, 0
2, 11400, Note_on_c, 0, 69, 0
2, 11400, Note_on_c, 0, 57, 0
2, 11400, Note_on_c, 0, 62, 0
2, 11400, Note_on_c, 0, 74, 0
2, 11400, Note_on_c, 0, 57, 100
2, 11400, Note_on_c, 0, 62, 100
2, 11400, Note_on_c, 0, 69, 100
2, 11400, Note_on_c, 0, 74, 100
2, 11400, Note_on_c, 0, 78, 100
2, 11460, Note_on_c, 0, 78, 0
2, 11460, Note_on_c, 0, 69, 0
2, 11460, Note_on_c, 0, 57, 0
2, 11460, Note_on_c, 0, 62, 0
2, 11460, Note_on_c, 0, 74, 0
2, 11460, Note_on_c, 0, 57, 100
2, 11460, Note_on_c, 0, 62, 100
2, 11460, Note_on_c, 0, 69, 100
2, 11460, Note_on_c, 0, 74, 100
2, 11460, Note_on_c, 0, 78, 100
2, 11520, Note_on_c, 0, 78, 0
2, 11520, Note_on_c, 0, 69, 0
2, 11520, Note_on_c, 0, 57, 0
2, 11520, Note_on_c, 0, 62, 0
2, 11520, Note_on_c, 0, 74, 0
2, 11520, Note_on_c, 0, 77, 100
2, 11520, Note_on_c, 0, 72, 100
2, 11520, Note_on_c, 0, 69, 100
2, 11520, Note_on_c, 0, 65, 100
2, 11520, Note_on_c, 0, 60, 100
2, 11520, Note_on_c, 0, 53, 100
2, 11640, Note_on_c, 0, 53, 0
2, 11640, Note_on_c, 0, 72, 0
2, 11640, Note_on_c, 0, 69, 0
2, 11640, Note_on_c, 0, 77, 0
2, 11640, Note_on_c, 0, 60, 0
2, 11640, Note_on_c, 0, 65, 0
2, 11820, Note_on_c, 0, 77, 100
2, 11820, Note_on_c, 0, 72, 100
2, 11820, Note_on_c, 0, 69, 100
2, 11820, Note_on_c, 0, 65, 100
2, 11820, Note_on_c, 0, 60, 100
2, 11820, Note_on_c, 0, 53, 100
2, 11880, Note_on_c, 0, 53, 0
2, 11880, Note_on_c, 0, 72, 0
2, 11880, Note_on_c, 0, 69, 0
2, 11880, Note_on_c, 0, 77, 0
2, 11880, Note_on_c, 0, 60, 0
2, 11880, Note_on_c, 0, 65, 0
2, 11880, Note_on_c, 0, 77, 100
2, 11880, Note_on_c, 0, 72, 100
2, 11880, Note_on_c, 0, 69, 100
2, 11880, Note_on_c, 0, 65, 100
2, 11880, Note_on_c, 0, 60, 100
2, 11880, Note_on_c, 0, 53, 100
2, 11940, Note_on_c, 0, 53, 0
2, 11940, Note_on_c, 0, 72, 0
2, 11940, Note_on_c, 0, 69, 0
2, 11940, Note_on_c, 0, 77, 0
2, 11940, Note_on_c, 0, 60, 0
2, 11940, Note_on_c, 0, 65, 0
2, 11940, Note_on_c, 0, 79, 100
2, 11940, Note_on_c, 0, 74, 100
2, 11940, Note_on_c, 0, 67, 100
2, 11940, Note_on_c, 0, 62, 100
2, 11940, Note_on_c, 0, 55, 100
2, 11940, Note_on_c, 0, 59, 100
2, 12000, Note_on_c, 0, 59, 0
2, 12000, Note_on_c, 0, 74, 0
2, 12000, Note_on_c, 0, 67, 0
2, 12000, Note_on_c, 0, 79, 0
2, 12000, Note_on_c, 0, 55, 0
2, 12000, Note_on_c, 0, 62, 0
2, 12196, Control_c, 0, 7, 66
2, 12213, Control_c, 0, 7, 67
2, 12230, Control_c, 0, 7, 68
2, 12243, Control_c, 0, 7, 69
2, 12260, Control_c, 0, 7, 70
2, 12273, Control_c, 0, 7, 71
2, 12290, Control_c, 0, 7, 72
2, 12300, Note_on_c, 0, 59, 100
2, 12300, Note_on_c, 0, 55, 100
2, 12300, Note_on_c, 0, 62, 100
2, 12300, Note_on_c, 0, 79, 100
2, 12300, Note_on_c, 0, 74, 100
2, 12300, Note_on_c, 0, 67, 100
2, 12303, Control_c, 0, 7, 73
2, 12320, Control_c, 0, 7, 74
2, 12333, Control_c, 0, 7, 75
2, 12350, Control_c, 0, 7, 76
2, 12363, Control_c, 0, 7, 77
2, 12380, Control_c, 0, 7, 78
2, 12393, Control_c, 0, 7, 79
2, 12410, Control_c, 0, 7, 80
2, 12420, Note_on_c, 0, 67, 0
2, 12420, Note_on_c, 0, 55, 0
2, 12420, Note_on_c, 0, 62, 0
2, 12420, Note_on_c, 0, 59, 0
2, 12420, Note_on_c, 0, 74, 0
2, 12420, Note_on_c, 0, 79, 0
2, 12420, Note_on_c, 0, 59, 100
2, 12420, Note_on_c, 0, 55, 100
2, 12420, Note_on_c, 0, 62, 100
2, 12420, Note_on_c, 0, 79, 100
2, 12420, Note_on_c, 0, 74, 100
2, 12420, Note_on_c, 0, 67, 100
2, 12423, Control_c, 0, 7, 81
2, 12440, Control_c, 0, 7, 82
2, 12453, Control_c, 0, 7, 83
2, 12470, Control_c, 0, 7, 84
2, 12483, Control_c, 0, 7, 85
2, 12500, Control_c, 0, 7, 86
2, 12513, Control_c, 0, 7, 87
2, 12530, Control_c, 0, 7, 88
2, 12540, Note_on_c, 0, 67, 0
2, 12540, Note_on_c, 0, 55, 0
2, 12540, Note_on_c, 0, 62, 0
2, 12540, Note_on_c, 0, 59, 0
2, 12540, Note_on_c, 0, 74, 0
2, 12540, Note_on_c, 0, 79, 0
2, 12540, Note_on_c, 0, 59, 100
2, 12540, Note_on_c, 0, 55, 100
2, 12540, Note_on_c, 0, 62, 100
2, 12540, Note_on_c, 0, 79, 100
2, 12540, Note_on_c, 0, 74, 100
2, 12540, Note_on_c, 0, 67, 100
2, 12543, Control_c, 0, 7, 89
2, 12560, Control_c, 0, 7, 90
2, 12573, Control_c, 0, 7, 91
2, 12590, Control_c, 0, 7, 92
2, 12603, Control_c, 0, 7, 93
2, 12660, Note_on_c, 0, 67, 0
2, 12660, Note_on_c, 0, 55, 0
2, 12660, Note_on_c, 0, 62, 0
2, 12660, Note_on_c, 0, 59, 0
2, 12660, Note_on_c, 0, 74, 0
2, 12660, Note_on_c, 0, 79, 0
2, 12720, Note_on_c, 0, 55, 100
2, 12780, Note_on_c, 0, 55, 0
2, 12780, Note_on_c, 0, 59, 100
2, 12840, Note_on_c, 0, 59, 0
2, 12840, Note_on_c, 0, 62, 100
2, 12900, Note_on_c, 0, 62, 0
2, 12900, Note_on_c, 0, 67, 100
2, 12960, Note_on_c, 0, 67, 0
2, 12960, Note_on_c, 0, 73, 100
2, 12960, Note_on_c, 0, 68, 100
2, 12960, Note_on_c, 0, 76, 100
2, 12960, Note_on_c, 0, 56, 100
2, 12960, Note_on_c, 0, 61, 100
2, 12960, Note_on_c, 0, 80, 100
2, 13080, Note_on_c, 0, 80, 0
2, 13080, Note_on_c, 0, 68, 0
2, 13080, Note_on_c, 0, 76, 0
2, 13080, Note_on_c, 0, 73, 0
2, 13080, Note_on_c, 0, 61, 0
2, 13080, Note_on_c, 0, 56, 0
2, 13080, Note_on_c, 0, 73, 100
2, 13080, Note_on_c, 0, 76, 100
2, 13080, Note_on_c, 0, 56, 100
2, 13080, Note_on_c, 0, 61, 100
2, 13080, Note_on_c, 0, 80, 100
2, 13080, Note_on_c, 0, 68, 100
2, 13140, Note_on_c, 0, 68, 0
2, 13140, Note_on_c, 0, 76, 0
2, 13140, Note_on_c, 0, 56, 0
2, 13140, Note_on_c, 0, 73, 0
2, 13140, Note_on_c, 0, 80, 0
2, 13140, Note_on_c, 0, 61, 0
2, 13140, Note_on_c, 0, 61, 100
2, 13140, Note_on_c, 0, 73, 100
2, 13140, Note_on_c, 0, 68, 100
2, 13140, Note_on_c, 0, 80, 100
2, 13140, Note_on_c, 0, 56, 100
2, 13140, Note_on_c, 0, 76, 100
2, 13200, Note_on_c, 0, 76, 0
2, 13200, Note_on_c, 0, 73, 0
2, 13200, Note_on_c, 0, 68, 0
2, 13200, Note_on_c, 0, 61, 0
2, 13200, Note_on_c, 0, 56, 0
2, 13200, Note_on_c, 0, 80, 0
2, 13200, Note_on_c, 0, 66, 100
2, 13200, Note_on_c, 0, 78, 100
2, 13200, Note_on_c, 0, 75, 100
2, 13200, Note_on_c, 0, 71, 100
2, 13200, Note_on_c, 0, 59, 100
2, 13200, Note_on_c, 0, 54, 100
2, 13260, Note_on_c, 0, 54, 0
2, 13260, Note_on_c, 0, 78, 0
2, 13260, Note_on_c, 0, 75, 0
2, 13260, Note_on_c, 0, 66, 0
2, 13260, Note_on_c, 0, 59, 0
2, 13260, Note_on_c, 0, 71, 0
2, 13260, Note_on_c, 0, 71, 100
2, 13260, Note_on_c, 0, 78, 100
2, 13260, Note_on_c, 0, 54, 100
2, 13260, Note_on_c, 0, 66, 100
2, 13260, Note_on_c, 0, 59, 100
2, 13260, Note_on_c, 0, 75, 100
2, 13320, Note_on_c, 0, 75, 0
2, 13320, Note_on_c, 0, 78, 0
2, 13320, Note_on_c, 0, 54, 0
2, 13320, Note_on_c, 0, 71, 0
2, 13320, Note_on_c, 0, 59, 0
2, 13320, Note_on_c, 0, 66, 0
2, 13320, Note_on_c, 0, 54, 100
2, 13320, Note_on_c, 0, 59, 100
2, 13320, Note_on_c, 0, 75, 100
2, 13320, Note_on_c, 0, 78, 100
2, 13320, Note_on_c, 0, 66, 100
2, 13320, Note_on_c, 0, 71, 100
2, 13380, Note_on_c, 0, 71, 0
2, 13380, Note_on_c, 0, 59, 0
2, 13380, Note_on_c, 0, 75, 0
2, 13380, Note_on_c, 0, 54, 0
2, 13380, Note_on_c, 0, 66, 0
2, 13380, Note_on_c, 0, 78, 0
2, 13380, Note_on_c, 0, 57, 100
2, 13380, Note_on_c, 0, 52, 100
2, 13380, Note_on_c, 0, 64, 100
2, 13380, Note_on_c, 0, 73, 100
2, 13380, Note_on_c, 0, 69, 100
2, 13380, Note_on_c, 0, 76, 100
2, 13500, Note_on_c, 0, 76, 0
2, 13500, Note_on_c, 0, 52, 0
2, 13500, Note_on_c, 0, 64, 0
2, 13500, Note_on_c, 0, 57, 0
2, 13500, Note_on_c, 0, 69, 0
2, 13500, Note_on_c, 0, 73, 0
2, 13500, Note_on_c, 0, 73, 100
2, 13500, Note_on_c, 0, 76, 100
2, 13500, Note_on_c, 0, 64, 100
2, 13500, Note_on_c, 0, 69, 100
2, 13500, Note_on_c, 0, 52, 100
2, 13500, Note_on_c, 0, 57, 100
2, 13560, Note_on_c, 0, 57, 0
2, 13560, Note_on_c, 0, 76, 0
2, 13560, Note_on_c, 0, 64, 0
2, 13560, Note_on_c, 0, 73, 0
2, 13560, Note_on_c, 0, 52, 0
2, 13560, Note_on_c, 0, 69, 0
2, 13560, Note_on_c, 0, 76, 100
2, 13560, Note_on_c, 0, 69, 100
2, 13560, Note_on_c, 0, 73, 100
2, 13560, Note_on_c, 0, 57, 100
2, 13560, Note_on_c, 0, 52, 100
2, 13560, Note_on_c, 0, 64, 100
2, 13620, Note_on_c, 0, 64, 0
2, 13620, Note_on_c, 0, 69, 0
2, 13620, Note_on_c, 0, 73, 0
2, 13620, Note_on_c, 0, 76, 0
2, 13620, Note_on_c, 0, 52, 0
2, 13620, Note_on_c, 0, 57, 0
2, 13620, Note_on_c, 0, 73, 100
2, 13620, Note_on_c, 0, 76, 100
2, 13620, Note_on_c, 0, 64, 100
2, 13620, Note_on_c, 0, 57, 100
2, 13620, Note_on_c, 0, 52, 100
2, 13620, Note_on_c, 0, 69, 100
2, 13680, Note_on_c, 0, 69, 0
2, 13680, Note_on_c, 0, 76, 0
2, 13680, Note_on_c, 0, 64, 0
2, 13680, Note_on_c, 0, 73, 0
2, 13680, Note_on_c, 0, 52, 0
2, 13680, Note_on_c, 0, 57, 0
2, 13680, Note_on_c, 0, 76, 100
2, 13680, Note_on_c, 0, 52, 100
2, 13680, Note_on_c, 0, 57, 100
2, 13680, Note_on_c, 0, 73, 100
2, 13680, Note_on_c, 0, 69, 100
2, 13680, Note_on_c, 0, 64, 100
2, 13740, Note_on_c, 0, 64, 0
2, 13740, Note_on_c, 0, 52, 0
2, 13740, Note_on_c, 0, 57, 0
2, 13740, Note_on_c, 0, 76, 0
2, 13740, Note_on_c, 0, 69, 0
2, 13740, Note_on_c, 0, 73, 0
2, 13740, Note_on_c, 0, 59, 100
2, 13740, Note_on_c, 0, 66, 100
2, 13740, Note_on_c, 0, 71, 100
2, 13740, Note_on_c, 0, 78, 100
2, 13740, Note_on_c, 0, 75, 100
2, 13740, Note_on_c, 0, 54, 100
2, 13800, Note_on_c, 0, 54, 0
2, 13800, Note_on_c, 0, 66, 0
2, 13800, Note_on_c, 0, 71, 0
2, 13800, Note_on_c, 0, 59, 0
2, 13800, Note_on_c, 0, 75, 0
2, 13800, Note_on_c, 0, 78, 0
2, 13800, Note_on_c, 0, 78, 100
2, 13800, Note_on_c, 0, 66, 100
2, 13800, Note_on_c, 0, 59, 100
2, 13800, Note_on_c, 0, 54, 100
2, 13800, Note_on_c, 0, 75, 100
2, 13800, Note_on_c, 0, 71, 100
2, 13860, Note_on_c, 0, 71, 0
2, 13860, Note_on_c, 0, 66, 0
2, 13860, Note_on_c, 0, 59, 0
2, 13860, Note_on_c, 0, 78, 0
2, 13860, Note_on_c, 0, 75, 0
2, 13860, Note_on_c, 0, 54, 0
2, 13860, Note_on_c, 0, 78, 100
2, 13860, Note_on_c, 0, 71, 100
2, 13860, Note_on_c, 0, 75, 100
2, 13860, Note_on_c, 0, 59, 100
2, 13860, Note_on_c, 0, 54, 100
2, 13860, Note_on_c, 0, 66, 100
2, 13920, Note_on_c, 0, 66, 0
2, 13920, Note_on_c, 0, 71, 0
2, 13920, Note_on_c, 0, 75, 0
2, 13920, Note_on_c, 0, 78, 0
2, 13920, Note_on_c, 0, 54, 0
2, 13920, Note_on_c, 0, 59, 0
2, 13920, Note_on_c, 0, 80, 100
2, 13920, Note_on_c, 0, 75, 100
2, 13920, Note_on_c, 0, 71, 100
2, 13920, Note_on_c, 0, 68, 100
2, 13920, Note_on_c, 0, 63, 100
2, 13920, Note_on_c, 0, 56, 100
2, 14040, Note_on_c, 0, 56, 0
2, 14040, Note_on_c, 0, 75, 0
2, 14040, Note_on_c, 0, 71, 0
2, 14040, Note_on_c, 0, 80, 0
2, 14040, Note_on_c, 0, 63, 0
2, 14040, Note_on_c, 0, 68, 0
2, 14040, Note_on_c, 0, 80, 100
2, 14040, Note_on_c, 0, 75, 100
2, 14040, Note_on_c, 0, 71, 100
2, 14040, Note_on_c, 0, 68, 100
2, 14040, Note_on_c, 0, 63, 100
2, 14040, Note_on_c, 0, 56, 100
2, 14160, Note_on_c, 0, 56, 0
2, 14160, Note_on_c, 0, 75, 0
2, 14160, Note_on_c, 0, 71, 0
2, 14160, Note_on_c, 0, 80, 0
2, 14160, Note_on_c, 0, 63, 0
2, 14160, Note_on_c, 0, 68, 0
2, 14160, Note_on_c, 0, 80, 100
2, 14160, Note_on_c, 0, 75, 100
2, 14160, Note_on_c, 0, 71, 100
2, 14160, Note_on_c, 0, 68, 100
2, 14160, Note_on_c, 0, 63, 100
2, 14160, Note_on_c, 0, 56, 100
2, 14220, Note_on_c, 0, 56, 0
2, 14220, Note_on_c, 0, 75, 0
2, 14220, Note_on_c, 0, 71, 0
2, 14220, Note_on_c, 0, 80, 0
2, 14220, Note_on_c, 0, 63, 0
2, 14220, Note_on_c, 0, 68, 0
2, 14220, Note_on_c, 0, 80, 100
2, 14220, Note_on_c, 0, 75, 100
2, 14220, Note_on_c, 0, 71, 100
2, 14220, Note_on_c, 0, 68, 100
2, 14220, Note_on_c, 0, 63, 100
2, 14220, Note_on_c, 0, 56, 100
2, 14280, Note_on_c, 0, 80, 100
2, 14280, Note_on_c, 0, 75, 100
2, 14280, Note_on_c, 0, 71, 100
2, 14280, Note_on_c, 0, 68, 100
2, 14280, Note_on_c, 0, 63, 100
2, 14280, Note_on_c, 0, 56, 100
2, 14340, Note_on_c, 0, 56, 0
2, 14340, Note_on_c, 0, 75, 0
2, 14340, Note_on_c, 0, 75, 0
2, 14340, Note_on_c, 0, 71, 0
2, 14340, Note_on_c, 0, 68, 0
2, 14340, Note_on_c, 0, 80, 0
2, 14340, Note_on_c, 0, 63, 0
2, 14340, Note_on_c, 0, 56, 0
2, 14340, Note_on_c, 0, 71, 0
2, 14340, Note_on_c, 0, 80, 0
2, 14340, Note_on_c, 0, 63, 0
2, 14340, Note_on_c, 0, 68, 0
2, 14340, Note_on_c, 0, 79, 100
2, 14340, Note_on_c, 0, 74, 100
2, 14340, Note_on_c, 0, 71, 100
2, 14340, Note_on_c, 0, 67, 100
2, 14340, Note_on_c, 0, 62, 100
2, 14340, Note_on_c, 0, 55, 100
2, 14460, Note_on_c, 0, 55, 0
2, 14460, Note_on_c, 0, 74, 0
2, 14460, Note_on_c, 0, 71, 0
2, 14460, Note_on_c, 0, 79, 0
2, 14460, Note_on_c, 0, 62, 0
2, 14460, Note_on_c, 0, 67, 0
2, 14460, Note_on_c, 0, 79, 100
2, 14460, Note_on_c, 0, 74, 100
2, 14460, Note_on_c, 0, 71, 100
2, 14460, Note_on_c, 0, 67, 100
2, 14460, Note_on_c, 0, 62, 100
2, 14460, Note_on_c, 0, 55, 100
2, 14520, Note_on_c, 0, 55, 0
2, 14520, Note_on_c, 0, 74, 0
2, 14520, Note_on_c, 0, 71, 0
2, 14520, Note_on_c, 0, 79, 0
2, 14520, Note_on_c, 0, 62, 0
2, 14520, Note_on_c, 0, 67, 0
2, 14580, Note_on_c, 0, 79, 100
2, 14580, Note_on_c, 0, 74, 100
2, 14580, Note_on_c, 0, 71, 100
2, 14580, Note_on_c, 0, 67, 100
2, 14580, Note_on_c, 0, 62, 100
2, 14580, Note_on_c, 0, 55, 100
2, 14640, Note_on_c, 0, 55, 0
2, 14640, Note_on_c, 0, 74, 0
2, 14640, Note_on_c, 0, 71, 0
2, 14640, Note_on_c, 0, 79, 0
2, 14640, Note_on_c, 0, 62, 0
2, 14640, Note_on_c, 0, 67, 0
2, 14640, Note_on_c, 0, 79, 100
2, 14640, Note_on_c, 0, 74, 100
2, 14640, Note_on_c, 0, 71, 100
2, 14640, Note_on_c, 0, 67, 100
2, 14640, Note_on_c, 0, 62, 100
2, 14640, Note_on_c, 0, 55, 100
2, 14700, Note_on_c, 0, 55, 0
2, 14700, Note_on_c, 0, 74, 0
2, 14700, Note_on_c, 0, 71, 0
2, 14700, Note_on_c, 0, 79, 0
2, 14700, Note_on_c, 0, 62, 0
2, 14700, Note_on_c, 0, 67, 0
2, 14700, Note_on_c, 0, 79, 100
2, 14700, Note_on_c, 0, 74, 100
2, 14700, Note_on_c, 0, 71, 100
2, 14700, Note_on_c, 0, 67, 100
2, 14700, Note_on_c, 0, 62, 100
2, 14700, Note_on_c, 0, 55, 100
2, 14820, Note_on_c, 0, 55, 0
2, 14820, Note_on_c, 0, 74, 0
2, 14820, Note_on_c, 0, 71, 0
2, 14820, Note_on_c, 0, 79, 0
2, 14820, Note_on_c, 0, 62, 0
2, 14820, Note_on_c, 0, 67, 0
2, 14820, Note_on_c, 0, 79, 100
2, 14820, Note_on_c, 0, 74, 100
2, 14820, Note_on_c, 0, 71, 100
2, 14820, Note_on_c, 0, 67, 100
2, 14820, Note_on_c, 0, 62, 100
2, 14820, Note_on_c, 0, 55, 100
2, 14880, Note_on_c, 0, 55, 0
2, 14880, Note_on_c, 0, 74, 0
2, 14880, Note_on_c, 0, 71, 0
2, 14880, Note_on_c, 0, 79, 0
2, 14880, Note_on_c, 0, 62, 0
2, 14880, Note_on_c, 0, 67, 0
2, 14880, Note_on_c, 0, 77, 100
2, 14880, Note_on_c, 0, 72, 100
2, 14880, Note_on_c, 0, 69, 100
2, 14880, Note_on_c, 0, 65, 100
2, 14880, Note_on_c, 0, 60, 100
2, 14880, Note_on_c, 0, 53, 100
2, 14935, Control_c, 0, 7, 94
2, 14940, Control_c, 0, 7, 95
2, 14945, Control_c, 0, 7, 96
2, 14955, Control_c, 0, 7, 97
2, 14960, Control_c, 0, 7, 98
2, 14970, Control_c, 0, 7, 99
2, 14980, Control_c, 0, 7, 100
2, 15000, Note_on_c, 0, 53, 0
2, 15000, Note_on_c, 0, 72, 0
2, 15000, Note_on_c, 0, 69, 0
2, 15000, Note_on_c, 0, 77, 0
2, 15000, Note_on_c, 0, 60, 0
2, 15000, Note_on_c, 0, 65, 0
2, 15000, Note_on_c, 0, 77, 100
2, 15000, Note_on_c, 0, 72, 100
2, 15000, Note_on_c, 0, 69, 100
2, 15000, Note_on_c, 0, 65, 100
2, 15000, Note_on_c, 0, 60, 100
2, 15000, Note_on_c, 0, 53, 100
2, 15060, Note_on_c, 0, 77, 100
2, 15060, Note_on_c, 0, 72, 100
2, 15060, Note_on_c, 0, 69, 100
2, 15060, Note_on_c, 0, 65, 100
2, 15060, Note_on_c, 0, 60, 100
2, 15060, Note_on_c, 0, 53, 100
2, 15120, Note_on_c, 0, 53, 0
2, 15120, Note_on_c, 0, 72, 0
2, 15120, Note_on_c, 0, 72, 0
2, 15120, Note_on_c, 0, 69, 0
2, 15120, Note_on_c, 0, 65, 0
2, 15120, Note_on_c, 0, 77, 0
2, 15120, Note_on_c, 0, 60, 0
2, 15120, Note_on_c, 0, 53, 0
2, 15120, Note_on_c, 0, 69, 0
2, 15120, Note_on_c, 0, 77, 0
2, 15120, Note_on_c, 0, 60, 0
2, 15120, Note_on_c, 0, 65, 0
2, 15120, Note_on_c, 0, 76, 100
2, 15120, Note_on_c, 0, 72, 100
2, 15120, Note_on_c, 0, 67, 100
2, 15120, Note_on_c, 0, 60, 100
2, 15120, Note_on_c, 0, 55, 100
2, 15240, Note_on_c, 0, 55, 0
2, 15240, Note_on_c, 0, 67, 0
2, 15240, Note_on_c, 0, 76, 0
2, 15240, Note_on_c, 0, 72, 0
2, 15240, Note_on_c, 0, 60, 0
2, 15240, Note_on_c, 0, 76, 100
2, 15240, Note_on_c, 0, 72, 100
2, 15240, Note_on_c, 0, 67, 100
2, 15240, Note_on_c, 0, 60, 100
2, 15240, Note_on_c, 0, 55, 100
2, 15300, Control_c, 0, 7, 101
2, 15305, Control_c, 0, 7, 104
2, 15305, Control_c, 0, 7, 103
2, 15310, Control_c, 0, 7, 105
2, 15315, Control_c, 0, 7, 106
2, 15320, Control_c, 0, 7, 107
2, 15360, Note_on_c, 0, 55, 0
2, 15360, Note_on_c, 0, 67, 0
2, 15360, Note_on_c, 0, 76, 0
2, 15360, Note_on_c, 0, 72, 0
2, 15360, Note_on_c, 0, 60, 0
2, 15360, Note_on_c, 0, 74, 100
2, 15360, Note_on_c, 0, 78, 100
2, 15360, Note_on_c, 0, 66, 100
2, 15360, Note_on_c, 0, 62, 100
2, 15360, Note_on_c, 0, 57, 100
2, 15480, Note_on_c, 0, 57, 0
2, 15480, Note_on_c, 0, 66, 0
2, 15480, Note_on_c, 0, 74, 0
2, 15480, Note_on_c, 0, 78, 0
2, 15480, Note_on_c, 0, 62, 0
2, 15480, Note_on_c, 0, 78, 100
2, 15480, Note_on_c, 0, 74, 100
2, 15480, Note_on_c, 0, 66, 100
2, 15480, Note_on_c, 0, 62, 100
2, 15480, Note_on_c, 0, 57, 100
2, 15580, Control_c, 0, 7, 108
2, 15585, Control_c, 0, 7, 109
2, 15590, Control_c, 0, 7, 110
2, 15600, Note_on_c, 0, 57, 0
2, 15600, Note_on_c, 0, 66, 0
2, 15600, Note_on_c, 0, 78, 0
2, 15600, Note_on_c, 0, 74, 0
2, 15600, Note_on_c, 0, 62, 0
2, 15600, Note_on_c, 0, 78, 100
2, 15600, Note_on_c, 0, 74, 100
2, 15600, Note_on_c, 0, 66, 100
2, 15600, Note_on_c, 0, 62, 100
2, 15600, Note_on_c, 0, 57, 100
2, 15605, Control_c, 0, 7, 111
2, 15620, Control_c, 0, 7, 112
2, 15625, Control_c, 0, 7, 113
2, 15630, Control_c, 0, 7, 114
2, 15640, Control_c, 0, 7, 115
2, 15645, Control_c, 0, 7, 116
2, 15655, Control_c, 0, 7, 117
2, 15660, Note_on_c, 0, 57, 0
2, 15660, Note_on_c, 0, 66, 0
2, 15660, Note_on_c, 0, 78, 0
2, 15660, Note_on_c, 0, 74, 0
2, 15660, Note_on_c, 0, 62, 0
2, 15660, Control_c, 0, 7, 118
2, 15660, Note_on_c, 0, 78, 100
2, 15660, Note_on_c, 0, 74, 100
2, 15660, Note_on_c, 0, 66, 100
2, 15660, Note_on_c, 0, 62, 100
2, 15660, Note_on_c, 0, 57, 100
2, 15665, Control_c, 0, 7, 119
2, 15675, Control_c, 0, 7, 120
2, 15680, Control_c, 0, 7, 121
2, 15685, Control_c, 0, 7, 122
2, 15720, Note_on_c, 0, 57, 0
2, 15720, Note_on_c, 0, 66, 0
2, 15720, Note_on_c, 0, 78, 0
2, 15720, Note_on_c, 0, 74, 0
2, 15720, Note_on_c, 0, 62, 0
2, 15745, Control_c, 0, 7, 121
2, 15760, Control_c, 0, 7, 120
2, 15773, Control_c, 0, 7, 119
2, 15780, Note_on_c, 0, 78, 100
2, 15780, Note_on_c, 0, 74, 100
2, 15780, Note_on_c, 0, 66, 100
2, 15780, Note_on_c, 0, 62, 100
2, 15780, Note_on_c, 0, 57, 100
2, 15840, Note_on_c, 0, 57, 0
2, 15840, Note_on_c, 0, 66, 0
2, 15840, Note_on_c, 0, 78, 0
2, 15840, Note_on_c, 0, 74, 0
2, 15840, Note_on_c, 0, 62, 0
2, 15840, Note_on_c, 0, 77, 100
2, 15840, Note_on_c, 0, 72, 100
2, 15840, Note_on_c, 0, 69, 100
2, 15840, Note_on_c, 0, 65, 100
2, 15840, Note_on_c, 0, 60, 100
2, 15840, Note_on_c, 0, 53, 100
2, 15850, Control_c, 0, 7, 118
2, 15855, Control_c, 0, 7, 117
2, 15960, Note_on_c, 0, 53, 0
2, 15960, Note_on_c, 0, 72, 0
2, 15960, Note_on_c, 0, 69, 0
2, 15960, Note_on_c, 0, 77, 0
2, 15960, Note_on_c, 0, 60, 0
2, 15960, Note_on_c, 0, 65, 0
2, 15960, Note_on_c, 0, 77, 100
2, 15960, Note_on_c, 0, 72, 100
2, 15960, Note_on_c, 0, 69, 100
2, 15960, Note_on_c, 0, 65, 100
2, 15960, Note_on_c, 0, 60, 100
2, 15960, Note_on_c, 0, 53, 100
2, 16080, Note_on_c, 0, 53, 0
2, 16080, Note_on_c, 0, 72, 0
2, 16080, Note_on_c, 0, 69, 0
2, 16080, Note_on_c, 0, 77, 0
2, 16080, Note_on_c, 0, 60, 0
2, 16080, Note_on_c, 0, 65, 0
2, 16080, Note_on_c, 0, 77, 100
2, 16080, Note_on_c, 0, 72, 100
2, 16080, Note_on_c, 0, 69, 100
2, 16080, Note_on_c, 0, 65, 100
2, 16080, Note_on_c, 0, 60, 100
2, 16080, Note_on_c, 0, 53, 100
2, 16140, Note_on_c, 0, 53, 0
2, 16140, Note_on_c, 0, 72, 0
2, 16140, Note_on_c, 0, 69, 0
2, 16140, Note_on_c, 0, 77, 0
2, 16140, Note_on_c, 0, 60, 0
2, 16140, Note_on_c, 0, 65, 0
2, 16140, Note_on_c, 0, 77, 100
2, 16140, Note_on_c, 0, 72, 100
2, 16140, Note_on_c, 0, 69, 100
2, 16140, Note_on_c, 0, 65, 100
2, 16140, Note_on_c, 0, 60, 100
2, 16140, Note_on_c, 0, 53, 100
2, 16260, Note_on_c, 0, 53, 0
2, 16260, Note_on_c, 0, 72, 0
2, 16260, Note_on_c, 0, 69, 0
2, 16260, Note_on_c, 0, 77, 0
2, 16260, Note_on_c, 0, 60, 0
2, 16260, Note_on_c, 0, 65, 0
2, 16260, Note_on_c, 0, 77, 100
2, 16260, Note_on_c, 0, 72, 100
2, 16260, Note_on_c, 0, 69, 100
2, 16260, Note_on_c, 0, 65, 100
2, 16260, Note_on_c, 0, 60, 100
2, 16260, Note_on_c, 0, 53, 100
2, 16320, Note_on_c, 0, 53, 0
2, 16320, Note_on_c, 0, 72, 0
2, 16320, Note_on_c, 0, 69, 0
2, 16320, Note_on_c, 0, 77, 0
2, 16320, Note_on_c, 0, 60, 0
2, 16320, Note_on_c, 0, 65, 0
2, 16320, Note_on_c, 0, 59, 100
2, 16320, Note_on_c, 0, 71, 100
2, 16320, Note_on_c, 0, 67, 100
2, 16320, Note_on_c, 0, 79, 100
2, 16320, Note_on_c, 0, 62, 100
2, 16320, Note_on_c, 0, 55, 100
2, 16440, Note_on_c, 0, 55, 0
2, 16440, Note_on_c, 0, 71, 0
2, 16440, Note_on_c, 0, 67, 0
2, 16440, Note_on_c, 0, 59, 0
2, 16440, Note_on_c, 0, 62, 0
2, 16440, Note_on_c, 0, 79, 0
2, 16440, Note_on_c, 0, 79, 100
2, 16440, Note_on_c, 0, 71, 100
2, 16440, Note_on_c, 0, 67, 100
2, 16440, Note_on_c, 0, 62, 100
2, 16440, Note_on_c, 0, 59, 100
2, 16440, Note_on_c, 0, 55, 100
2, 16560, Note_on_c, 0, 55, 0
2, 16560, Note_on_c, 0, 71, 0
2, 16560, Note_on_c, 0, 67, 0
2, 16560, Note_on_c, 0, 79, 0
2, 16560, Note_on_c, 0, 59, 0
2, 16560, Note_on_c, 0, 62, 0
2, 16620, Note_on_c, 0, 79, 100
2, 16620, Note_on_c, 0, 71, 100
2, 16620, Note_on_c, 0, 67, 100
2, 16620, Note_on_c, 0, 62, 100
2, 16620, Note_on_c, 0, 59, 100
2, 16620, Note_on_c, 0, 55, 100
2, 16680, Note_on_c, 0, 55, 0
2, 16680, Note_on_c, 0, 71, 0
2, 16680, Note_on_c, 0, 67, 0
2, 16680, Note_on_c, 0, 79, 0
2, 16680, Note_on_c, 0, 59, 0
2, 16680, Note_on_c, 0, 62, 0
2, 16680, Note_on_c, 0, 79, 100
2, 16680, Note_on_c, 0, 71, 100
2, 16680, Note_on_c, 0, 67, 100
2, 16680, Note_on_c, 0, 62, 100
2, 16680, Note_on_c, 0, 59, 100
2, 16680, Note_on_c, 0, 55, 100
2, 16740, Note_on_c, 0, 79, 100
2, 16740, Note_on_c, 0, 71, 100
2, 16740, Note_on_c, 0, 67, 100
2, 16740, Note_on_c, 0, 62, 100
2, 16740, Note_on_c, 0, 59, 100
2, 16740, Note_on_c, 0, 55, 100
2, 16785, Control_c, 0, 7, 122
2, 16790, Control_c, 0, 7, 127
2, 16800, Note_on_c, 0, 55, 0
2, 16800, Note_on_c, 0, 71, 0
2, 16800, Note_on_c, 0, 71, 0
2, 16800, Note_on_c, 0, 67, 0
2, 16800, Note_on_c, 0, 62, 0
2, 16800, Note_on_c, 0, 79, 0
2, 16800, Note_on_c, 0, 59, 0
2, 16800, Note_on_c, 0, 55, 0
2, 16800, Note_on_c, 0, 67, 0
2, 16800, Note_on_c, 0, 79, 0
2, 16800, Note_on_c, 0, 59, 0
2, 16800, Note_on_c, 0, 62, 0
2, 16800, Note_on_c, 0, 76, 100
2, 16800, Note_on_c, 0, 68, 100
2, 16800, Note_on_c, 0, 73, 100
2, 16800, Note_on_c, 0, 80, 100
2, 16800, Note_on_c, 0, 56, 100
2, 16800, Note_on_c, 0, 61, 100
2, 16920, Note_on_c, 0, 61, 0
2, 16920, Note_on_c, 0, 68, 0
2, 16920, Note_on_c, 0, 73, 0
2, 16920, Note_on_c, 0, 76, 0
2, 16920, Note_on_c, 0, 56, 0
2, 16920, Note_on_c, 0, 80, 0
2, 16920, Note_on_c, 0, 76, 100
2, 16920, Note_on_c, 0, 73, 100
2, 16920, Note_on_c, 0, 61, 100
2, 16920, Note_on_c, 0, 56, 100
2, 16920, Note_on_c, 0, 68, 100
2, 16920, Note_on_c, 0, 80, 100
2, 16980, Note_on_c, 0, 80, 0
2, 16980, Note_on_c, 0, 73, 0
2, 16980, Note_on_c, 0, 61, 0
2, 16980, Note_on_c, 0, 76, 0
2, 16980, Note_on_c, 0, 68, 0
2, 16980, Note_on_c, 0, 56, 0
2, 16980, Note_on_c, 0, 56, 100
2, 16980, Note_on_c, 0, 68, 100
2, 16980, Note_on_c, 0, 73, 100
2, 16980, Note_on_c, 0, 76, 100
2, 16980, Note_on_c, 0, 80, 100
2, 16980, Note_on_c, 0, 61, 100
2, 17040, Note_on_c, 0, 61, 0
2, 17040, Note_on_c, 0, 68, 0
2, 17040, Note_on_c, 0, 73, 0
2, 17040, Note_on_c, 0, 56, 0
2, 17040, Note_on_c, 0, 80, 0
2, 17040, Note_on_c, 0, 76, 0
2, 17040, Note_on_c, 0, 78, 100
2, 17040, Note_on_c, 0, 75, 100
2, 17040, Note_on_c, 0, 71, 100
2, 17040, Note_on_c, 0, 66, 100
2, 17040, Note_on_c, 0, 59, 100
2, 17040, Note_on_c, 0, 54, 100
2, 17100, Note_on_c, 0, 54, 0
2, 17100, Note_on_c, 0, 75, 0
2, 17100, Note_on_c, 0, 71, 0
2, 17100, Note_on_c, 0, 78, 0
2, 17100, Note_on_c, 0, 59, 0
2, 17100, Note_on_c, 0, 66, 0
2, 17100, Note_on_c, 0, 59, 100
2, 17100, Note_on_c, 0, 54, 100
2, 17100, Note_on_c, 0, 71, 100
2, 17100, Note_on_c, 0, 78, 100
2, 17100, Note_on_c, 0, 75, 100
2, 17100, Note_on_c, 0, 66, 100
2, 17160, Note_on_c, 0, 66, 0
2, 17160, Note_on_c, 0, 54, 0
2, 17160, Note_on_c, 0, 71, 0
2, 17160, Note_on_c, 0, 59, 0
2, 17160, Note_on_c, 0, 75, 0
2, 17160, Note_on_c, 0, 78, 0
2, 17160, Note_on_c, 0, 59, 100
2, 17160, Note_on_c, 0, 71, 100
2, 17160, Note_on_c, 0, 78, 100
2, 17160, Note_on_c, 0, 66, 100
2, 17160, Note_on_c, 0, 75, 100
2, 17160, Note_on_c, 0, 54, 100
2, 17220, Note_on_c, 0, 54, 0
2, 17220, Note_on_c, 0, 71, 0
2, 17220, Note_on_c, 0, 78, 0
2, 17220, Note_on_c, 0, 59, 0
2, 17220, Note_on_c, 0, 75, 0
2, 17220, Note_on_c, 0, 66, 0
2, 17220, Note_on_c, 0, 69, 100
2, 17220, Note_on_c, 0, 57, 100
2, 17220, Note_on_c, 0, 73, 100
2, 17220, Note_on_c, 0, 52, 100
2, 17220, Note_on_c, 0, 64, 100
2, 17220, Note_on_c, 0, 76, 100
2, 17340, Note_on_c, 0, 76, 0
2, 17340, Note_on_c, 0, 57, 0
2, 17340, Note_on_c, 0, 73, 0
2, 17340, Note_on_c, 0, 69, 0
2, 17340, Note_on_c, 0, 64, 0
2, 17340, Note_on_c, 0, 52, 0
2, 17340, Note_on_c, 0, 69, 100
2, 17340, Note_on_c, 0, 73, 100
2, 17340, Note_on_c, 0, 76, 100
2, 17340, Note_on_c, 0, 57, 100
2, 17340, Note_on_c, 0, 64, 100
2, 17340, Note_on_c, 0, 52, 100
2, 17400, Note_on_c, 0, 52, 0
2, 17400, Note_on_c, 0, 73, 0
2, 17400, Note_on_c, 0, 76, 0
2, 17400, Note_on_c, 0, 69, 0
2, 17400, Note_on_c, 0, 64, 0
2, 17400, Note_on_c, 0, 57, 0
2, 17400, Note_on_c, 0, 73, 100
2, 17400, Note_on_c, 0, 76, 100
2, 17400, Note_on_c, 0, 64, 100
2, 17400, Note_on_c, 0, 69, 100
2, 17400, Note_on_c, 0, 52, 100
2, 17400, Note_on_c, 0, 57, 100
2, 17460, Note_on_c, 0, 57, 0
2, 17460, Note_on_c, 0, 76, 0
2, 17460, Note_on_c, 0, 64, 0
2, 17460, Note_on_c, 0, 73, 0
2, 17460, Note_on_c, 0, 52, 0
2, 17460, Note_on_c, 0, 69, 0
2, 17460, Note_on_c, 0, 76, 100
2, 17460, Note_on_c, 0, 52, 100
2, 17460, Note_on_c, 0, 73, 100
2, 17460, Note_on_c, 0, 69, 100
2, 17460, Note_on_c, 0, 64, 100
2, 17460, Note_on_c, 0, 57, 100
2, 17520, Note_on_c, 0, 57, 0
2, 17520, Note_on_c, 0, 52, 0
2, 17520, Note_on_c, 0, 73, 0
2, 17520, Note_on_c, 0, 76, 0
2, 17520, Note_on_c, 0, 64, 0
2, 17520, Note_on_c, 0, 69, 0
2, 17520, Note_on_c, 0, 64, 100
2, 17520, Note_on_c, 0, 57, 100
2, 17520, Note_on_c, 0, 52, 100
2, 17520, Note_on_c, 0, 73, 100
2, 17520, Note_on_c, 0, 69, 100
2, 17520, Note_on_c, 0, 76, 100
2, 17580, Note_on_c, 0, 76, 0
2, 17580, Note_on_c, 0, 57, 0
2, 17580, Note_on_c, 0, 52, 0
2, 17580, Note_on_c, 0, 64, 0
2, 17580, Note_on_c, 0, 69, 0
2, 17580, Note_on_c, 0, 73, 0
2, 17580, Note_on_c, 0, 78, 100
2, 17580, Note_on_c, 0, 71, 100
2, 17580, Note_on_c, 0, 59, 100
2, 17580, Note_on_c, 0, 66, 100
2, 17580, Note_on_c, 0, 75, 100
2, 17580, Note_on_c, 0, 54, 100
2, 17640, Note_on_c, 0, 54, 0
2, 17640, Note_on_c, 0, 71, 0
2, 17640, Note_on_c, 0, 59, 0
2, 17640, Note_on_c, 0, 78, 0
2, 17640, Note_on_c, 0, 75, 0
2, 17640, Note_on_c, 0, 66, 0
2, 17640, Note_on_c, 0, 66, 100
2, 17640, Note_on_c, 0, 59, 100
2, 17640, Note_on_c, 0, 71, 100
2, 17640, Note_on_c, 0, 54, 100
2, 17640, Note_on_c, 0, 75, 100
2, 17640, Note_on_c, 0, 78, 100
2, 17700, Note_on_c, 0, 78, 0
2, 17700, Note_on_c, 0, 59, 0
2, 17700, Note_on_c, 0, 71, 0
2, 17700, Note_on_c, 0, 66, 0
2, 17700, Note_on_c, 0, 75, 0
2, 17700, Note_on_c, 0, 54, 0
2, 17700, Note_on_c, 0, 71, 100
2, 17700, Note_on_c, 0, 78, 100
2, 17700, Note_on_c, 0, 66, 100
2, 17700, Note_on_c, 0, 59, 100
2, 17700, Note_on_c, 0, 75, 100
2, 17700, Note_on_c, 0, 54, 100
2, 17760, Note_on_c, 0, 54, 0
2, 17760, Note_on_c, 0, 78, 0
2, 17760, Note_on_c, 0, 66, 0
2, 17760, Note_on_c, 0, 71, 0
2, 17760, Note_on_c, 0, 75, 0
2, 17760, Note_on_c, 0, 59, 0
2, 17760, Note_on_c, 0, 71, 100
2, 17760, Note_on_c, 0, 75, 100
2, 17760, Note_on_c, 0, 80, 100
2, 17760, Note_on_c, 0, 68, 100
2, 17760, Note_on_c, 0, 63, 100
2, 17760, Note_on_c, 0, 56, 100
2, 17880, Note_on_c, 0, 56, 0
2, 17880, Note_on_c, 0, 75, 0
2, 17880, Note_on_c, 0, 80, 0
2, 17880, Note_on_c, 0, 71, 0
2, 17880, Note_on_c, 0, 63, 0
2, 17880, Note_on_c, 0, 68, 0
2, 17880, Note_on_c, 0, 80, 100
2, 17880, Note_on_c, 0, 75, 100
2, 17880, Note_on_c, 0, 71, 100
2, 17880, Note_on_c, 0, 68, 100
2, 17880, Note_on_c, 0, 63, 100
2, 17880, Note_on_c, 0, 56, 100
2, 18000, Note_on_c, 0, 56, 0
2, 18000, Note_on_c, 0, 75, 0
2, 18000, Note_on_c, 0, 71, 0
2, 18000, Note_on_c, 0, 80, 0
2, 18000, Note_on_c, 0, 63, 0
2, 18000, Note_on_c, 0, 68, 0
2, 18000, Note_on_c, 0, 56, 100
2, 18000, Note_on_c, 0, 75, 100
2, 18000, Note_on_c, 0, 71, 100
2, 18000, Note_on_c, 0, 68, 100
2, 18000, Note_on_c, 0, 63, 100
2, 18000, Note_on_c, 0, 80, 100
2, 18060, Note_on_c, 0, 80, 0
2, 18060, Note_on_c, 0, 75, 0
2, 18060, Note_on_c, 0, 71, 0
2, 18060, Note_on_c, 0, 56, 0
2, 18060, Note_on_c, 0, 63, 0
2, 18060, Note_on_c, 0, 68, 0
2, 18060, Note_on_c, 0, 71, 100
2, 18060, Note_on_c, 0, 68, 100
2, 18060, Note_on_c, 0, 63, 100
2, 18060, Note_on_c, 0, 56, 100
2, 18060, Note_on_c, 0, 75, 100
2, 18060, Note_on_c, 0, 80, 100
2, 18120, Note_on_c, 0, 75, 100
2, 18120, Note_on_c, 0, 68, 100
2, 18120, Note_on_c, 0, 71, 100
2, 18120, Note_on_c, 0, 80, 100
2, 18120, Note_on_c, 0, 56, 100
2, 18120, Note_on_c, 0, 63, 100
2, 18180, Note_on_c, 0, 63, 0
2, 18180, Note_on_c, 0, 68, 0
2, 18180, Note_on_c, 0, 68, 0
2, 18180, Note_on_c, 0, 63, 0
2, 18180, Note_on_c, 0, 56, 0
2, 18180, Note_on_c, 0, 71, 0
2, 18180, Note_on_c, 0, 75, 0
2, 18180, Note_on_c, 0, 80, 0
2, 18180, Note_on_c, 0, 71, 0
2, 18180, Note_on_c, 0, 75, 0
2, 18180, Note_on_c, 0, 56, 0
2, 18180, Note_on_c, 0, 80, 0
2, 18180, Note_on_c, 0, 79, 100
2, 18180, Note_on_c, 0, 74, 100
2, 18180, Note_on_c, 0, 71, 100
2, 18180, Note_on_c, 0, 55, 100
2, 18180, Note_on_c, 0, 67, 100
2, 18180, Note_on_c, 0, 62, 100
2, 18300, Note_on_c, 0, 62, 0
2, 18300, Note_on_c, 0, 74, 0
2, 18300, Note_on_c, 0, 71, 0
2, 18300, Note_on_c, 0, 79, 0
2, 18300, Note_on_c, 0, 67, 0
2, 18300, Note_on_c, 0, 55, 0
2, 18300, Note_on_c, 0, 79, 100
2, 18300, Note_on_c, 0, 74, 100
2, 18300, Note_on_c, 0, 55, 100
2, 18300, Note_on_c, 0, 71, 100
2, 18300, Note_on_c, 0, 67, 100
2, 18300, Note_on_c, 0, 62, 100
2, 18360, Note_on_c, 0, 62, 0
2, 18360, Note_on_c, 0, 74, 0
2, 18360, Note_on_c, 0, 55, 0
2, 18360, Note_on_c, 0, 79, 0
2, 18360, Note_on_c, 0, 67, 0
2, 18360, Note_on_c, 0, 71, 0
2, 18420, Note_on_c, 0, 74, 100
2, 18420, Note_on_c, 0, 79, 100
2, 18420, Note_on_c, 0, 55, 100
2, 18420, Note_on_c, 0, 67, 100
2, 18420, Note_on_c, 0, 71, 100
2, 18420, Note_on_c, 0, 62, 100
2, 18480, Note_on_c, 0, 62, 0
2, 18480, Note_on_c, 0, 79, 0
2, 18480, Note_on_c, 0, 55, 0
2, 18480, Note_on_c, 0, 74, 0
2, 18480, Note_on_c, 0, 71, 0
2, 18480, Note_on_c, 0, 67, 0
2, 18480, Note_on_c, 0, 79, 100
2, 18480, Note_on_c, 0, 62, 100
2, 18480, Note_on_c, 0, 55, 100
2, 18480, Note_on_c, 0, 74, 100
2, 18480, Note_on_c, 0, 71, 100
2, 18480, Note_on_c, 0, 67, 100
2, 18540, Note_on_c, 0, 67, 0
2, 18540, Note_on_c, 0, 62, 0
2, 18540, Note_on_c, 0, 55, 0
2, 18540, Note_on_c, 0, 79, 0
2, 18540, Note_on_c, 0, 71, 0
2, 18540, Note_on_c, 0, 74, 0
2, 18540, Note_on_c, 0, 67, 100
2, 18540, Note_on_c, 0, 62, 100
2, 18540, Note_on_c, 0, 79, 100
2, 18540, Note_on_c, 0, 74, 100
2, 18540, Note_on_c, 0, 71, 100
2, 18540, Note_on_c, 0, 55, 100
2, 18660, Note_on_c, 0, 55, 0
2, 18660, Note_on_c, 0, 62, 0
2, 18660, Note_on_c, 0, 79, 0
2, 18660, Note_on_c, 0, 67, 0
2, 18660, Note_on_c, 0, 71, 0
2, 18660, Note_on_c, 0, 74, 0
2, 18660, Note_on_c, 0, 74, 100
2, 18660, Note_on_c, 0, 67, 100
2, 18660, Note_on_c, 0, 71, 100
2, 18660, Note_on_c, 0, 55, 100
2, 18660, Note_on_c, 0, 79, 100
2, 18660, Note_on_c, 0, 62, 100
2, 18720, Note_on_c, 0, 62, 0
2, 18720, Note_on_c, 0, 67, 0
2, 18720, Note_on_c, 0, 71, 0
2, 18720, Note_on_c, 0, 74, 0
2, 18720, Note_on_c, 0, 79, 0
2, 18720, Note_on_c, 0, 55, 0
2, 18720, Note_on_c, 0, 77, 100
2, 18720, Note_on_c, 0, 72, 100
2, 18720, Note_on_c, 0, 69, 100
2, 18720, Note_on_c, 0, 53, 100
2, 18720, Note_on_c, 0, 65, 100
2, 18720, Note_on_c, 0, 60, 100
2, 18840, Note_on_c, 0, 60, 0
2, 18840, Note_on_c, 0, 72, 0
2, 18840, Note_on_c, 0, 69, 0
2, 18840, Note_on_c, 0, 77, 0
2, 18840, Note_on_c, 0, 65, 0
2, 18840, Note_on_c, 0, 53, 0
2, 18840, Note_on_c, 0, 77, 100
2, 18840, Note_on_c, 0, 72, 100
2, 18840, Note_on_c, 0, 60, 100
2, 18840, Note_on_c, 0, 53, 100
2, 18840, Note_on_c, 0, 65, 100
2, 18840, Note_on_c, 0, 69, 100
2, 18900, Note_on_c, 0, 77, 100
2, 18900, Note_on_c, 0, 53, 100
2, 18900, Note_on_c, 0, 60, 100
2, 18900, Note_on_c, 0, 69, 100
2, 18900, Note_on_c, 0, 72, 100
2, 18900, Note_on_c, 0, 65, 100
2, 18960, Note_on_c, 0, 65, 0
2, 18960, Note_on_c, 0, 72, 0
2, 18960, Note_on_c, 0, 53, 0
2, 18960, Note_on_c, 0, 60, 0
2, 18960, Note_on_c, 0, 53, 0
2, 18960, Note_on_c, 0, 77, 0
2, 18960, Note_on_c, 0, 65, 0
2, 18960, Note_on_c, 0, 69, 0
2, 18960, Note_on_c, 0, 60, 0
2, 18960, Note_on_c, 0, 77, 0
2, 18960, Note_on_c, 0, 72, 0
2, 18960, Note_on_c, 0, 69, 0
2, 18960, Note_on_c, 0, 67, 100
2, 18960, Note_on_c, 0, 72, 100
2, 18960, Note_on_c, 0, 76, 100
2, 18960, Note_on_c, 0, 60, 100
2, 18960, Note_on_c, 0, 55, 100
2, 19080, Note_on_c, 0, 55, 0
2, 19080, Note_on_c, 0, 76, 0
2, 19080, Note_on_c, 0, 67, 0
2, 19080, Note_on_c, 0, 72, 0
2, 19080, Note_on_c, 0, 60, 0
2, 19080, Note_on_c, 0, 76, 100
2, 19080, Note_on_c, 0, 72, 100
2, 19080, Note_on_c, 0, 67, 100
2, 19080, Note_on_c, 0, 60, 100
2, 19080, Note_on_c, 0, 55, 100
2, 19200, Note_on_c, 0, 55, 0
2, 19200, Note_on_c, 0, 67, 0
2, 19200, Note_on_c, 0, 76, 0
2, 19200, Note_on_c, 0, 72, 0
2, 19200, Note_on_c, 0, 60, 0
2, 19200, Note_on_c, 0, 74, 100
2, 19200, Note_on_c, 0, 78, 100
2, 19200, Note_on_c, 0, 66, 100
2, 19200, Note_on_c, 0, 62, 100
2, 19200, Note_on_c, 0, 57, 100
2, 19320, Note_on_c, 0, 57, 0
2, 19320, Note_on_c, 0, 66, 0
2, 19320, Note_on_c, 0, 74, 0
2, 19320, Note_on_c, 0, 78, 0
2, 19320, Note_on_c, 0, 62, 0
2, 19320, Note_on_c, 0, 78, 100
2, 19320, Note_on_c, 0, 74, 100
2, 19320, Note_on_c, 0, 66, 100
2, 19320, Note_on_c, 0, 62, 100
2, 19320, Note_on_c, 0, 57, 100
2, 19440, Note_on_c, 0, 57, 0
2, 19440, Note_on_c, 0, 66, 0
2, 19440, Note_on_c, 0, 78, 0
2, 19440, Note_on_c, 0, 74, 0
2, 19440, Note_on_c, 0, 62, 0
2, 19440, Note_on_c, 0, 74, 100
2, 19440, Note_on_c, 0, 66, 100
2, 19440, Note_on_c, 0, 78, 100
2, 19440, Note_on_c, 0, 62, 100
2, 19440, Note_on_c, 0, 57, 100
2, 19500, Note_on_c, 0, 57, 0
2, 19500, Note_on_c, 0, 78, 0
2, 19500, Note_on_c, 0, 74, 0
2, 19500, Note_on_c, 0, 66, 0
2, 19500, Note_on_c, 0, 62, 0
2, 19500, Note_on_c, 0, 74, 100
2, 19500, Note_on_c, 0, 66, 100
2, 19500, Note_on_c, 0, 78, 100
2, 19500, Note_on_c, 0, 62, 100
2, 19500, Note_on_c, 0, 57, 100
2, 19560, Note_on_c, 0, 57, 0
2, 19560, Note_on_c, 0, 78, 0
2, 19560, Note_on_c, 0, 74, 0
2, 19560, Note_on_c, 0, 66, 0
2, 19560, Note_on_c, 0, 62, 0
2, 19620, Note_on_c, 0, 74, 100
2, 19620, Note_on_c, 0, 66, 100
2, 19620, Note_on_c, 0, 78, 100
2, 19620, Note_on_c, 0, 62, 100
2, 19620, Note_on_c, 0, 57, 100
2, 19680, Note_on_c, 0, 57, 0
2, 19680, Note_on_c, 0, 78, 0
2, 19680, Note_on_c, 0, 74, 0
2, 19680, Note_on_c, 0, 66, 0
2, 19680, Note_on_c, 0, 62, 0
2, 19680, Note_on_c, 0, 72, 100
2, 19680, Note_on_c, 0, 69, 100
2, 19680, Note_on_c, 0, 77, 100
2, 19680, Note_on_c, 0, 65, 100
2, 19680, Note_on_c, 0, 60, 100
2, 19680, Note_on_c, 0, 53, 100
2, 19800, Note_on_c, 0, 53, 0
2, 19800, Note_on_c, 0, 69, 0
2, 19800, Note_on_c, 0, 77, 0
2, 19800, Note_on_c, 0, 72, 0
2, 19800, Note_on_c, 0, 60, 0
2, 19800, Note_on_c, 0, 65, 0
2, 19800, Note_on_c, 0, 69, 100
2, 19800, Note_on_c, 0, 72, 100
2, 19800, Note_on_c, 0, 77, 100
2, 19800, Note_on_c, 0, 60, 100
2, 19800, Note_on_c, 0, 65, 100
2, 19800, Note_on_c, 0, 53, 100
2, 19920, Note_on_c, 0, 53, 0
2, 19920, Note_on_c, 0, 72, 0
2, 19920, Note_on_c, 0, 77, 0
2, 19920, Note_on_c, 0, 69, 0
2, 19920, Note_on_c, 0, 65, 0
2, 19920, Note_on_c, 0, 60, 0
2, 19920, Note_on_c, 0, 72, 100
2, 19920, Note_on_c, 0, 77, 100
2, 19920, Note_on_c, 0, 65, 100
2, 19920, Note_on_c, 0, 69, 100
2, 19920, Note_on_c, 0, 53, 100
2, 19920, Note_on_c, 0, 60, 100
2, 19980, Note_on_c, 0, 60, 0
2, 19980, Note_on_c, 0, 77, 0
2, 19980, Note_on_c, 0, 65, 0
2, 19980, Note_on_c, 0, 72, 0
2, 19980, Note_on_c, 0, 53, 0
2, 19980, Note_on_c, 0, 69, 0
2, 19980, Note_on_c, 0, 77, 100
2, 19980, Note_on_c, 0, 53, 100
2, 19980, Note_on_c, 0, 72, 100
2, 19980, Note_on_c, 0, 69, 100
2, 19980, Note_on_c, 0, 65, 100
2, 19980, Note_on_c, 0, 60, 100
2, 20100, Note_on_c, 0, 60, 0
2, 20100, Note_on_c, 0, 53, 0
2, 20100, Note_on_c, 0, 72, 0
2, 20100, Note_on_c, 0, 77, 0
2, 20100, Note_on_c, 0, 65, 0
2, 20100, Note_on_c, 0, 69, 0
2, 20100, Note_on_c, 0, 65, 100
2, 20100, Note_on_c, 0, 60, 100
2, 20100, Note_on_c, 0, 53, 100
2, 20100, Note_on_c, 0, 72, 100
2, 20100, Note_on_c, 0, 69, 100
2, 20100, Note_on_c, 0, 77, 100
2, 20160, Note_on_c, 0, 77, 0
2, 20160, Note_on_c, 0, 60, 0
2, 20160, Note_on_c, 0, 53, 0
2, 20160, Note_on_c, 0, 65, 0
2, 20160, Note_on_c, 0, 69, 0
2, 20160, Note_on_c, 0, 72, 0
2, 20160, Note_on_c, 0, 79, 100
2, 20160, Note_on_c, 0, 67, 100
2, 20160, Note_on_c, 0, 59, 100
2, 20160, Note_on_c, 0, 71, 100
2, 20160, Note_on_c, 0, 62, 100
2, 20160, Note_on_c, 0, 55, 100
2, 20280, Note_on_c, 0, 55, 0
2, 20280, Note_on_c, 0, 67, 0
2, 20280, Note_on_c, 0, 59, 0
2, 20280, Note_on_c, 0, 79, 0
2, 20280, Note_on_c, 0, 62, 0
2, 20280, Note_on_c, 0, 71, 0
2, 20280, Note_on_c, 0, 71, 100
2, 20280, Note_on_c, 0, 67, 100
2, 20280, Note_on_c, 0, 55, 100
2, 20280, Note_on_c, 0, 62, 100
2, 20280, Note_on_c, 0, 59, 100
2, 20280, Note_on_c, 0, 79, 100
2, 20400, Note_on_c, 0, 79, 0
2, 20400, Note_on_c, 0, 67, 0
2, 20400, Note_on_c, 0, 55, 0
2, 20400, Note_on_c, 0, 71, 0
2, 20400, Note_on_c, 0, 59, 0
2, 20400, Note_on_c, 0, 62, 0
2, 20400, Note_on_c, 0, 71, 100
2, 20400, Note_on_c, 0, 79, 100
2, 20400, Note_on_c, 0, 55, 100
2, 20400, Note_on_c, 0, 62, 100
2, 20400, Note_on_c, 0, 67, 100
2, 20400, Note_on_c, 0, 59, 100
2, 20460, Note_on_c, 0, 59, 0
2, 20460, Note_on_c, 0, 79, 0
2, 20460, Note_on_c, 0, 55, 0
2, 20460, Note_on_c, 0, 71, 0
2, 20460, Note_on_c, 0, 67, 0
2, 20460, Note_on_c, 0, 62, 0
2, 20460, Note_on_c, 0, 67, 100
2, 20460, Note_on_c, 0, 71, 100
2, 20460, Note_on_c, 0, 79, 100
2, 20460, Note_on_c, 0, 62, 100
2, 20460, Note_on_c, 0, 59, 100
2, 20460, Note_on_c, 0, 55, 100
2, 20520, Note_on_c, 0, 55, 0
2, 20520, Note_on_c, 0, 71, 0
2, 20520, Note_on_c, 0, 79, 0
2, 20520, Note_on_c, 0, 67, 0
2, 20520, Note_on_c, 0, 59, 0
2, 20520, Note_on_c, 0, 62, 0
2, 20520, Note_on_c, 0, 79, 100
2, 20520, Note_on_c, 0, 71, 100
2, 20520, Note_on_c, 0, 67, 100
2, 20520, Note_on_c, 0, 62, 100
2, 20520, Note_on_c, 0, 59, 100
2, 20520, Note_on_c, 0, 55, 100
2, 20580, Note_on_c, 0, 55, 100
2, 20580, Note_on_c, 0, 71, 100
2, 20580, Note_on_c, 0, 67, 100
2, 20580, Note_on_c, 0, 62, 100
2, 20580, Note_on_c, 0, 59, 100
2, 20580, Note_on_c, 0, 79, 100
2, 20590, Control_c, 0, 7, 126
2, 20595, Control_c, 0, 7, 125
2, 20600, Control_c, 0, 7, 124
2, 20605, Control_c, 0, 7, 121
2, 20605, Control_c, 0, 7, 123
2, 20610, Control_c, 0, 7, 118
2, 20610, Control_c, 0, 7, 119
2, 20615, Control_c, 0, 7, 116
2, 20615, Control_c, 0, 7, 117
2, 20640, Note_on_c, 0, 79, 0
2, 20640, Note_on_c, 0, 71, 0
2, 20640, Note_on_c, 0, 71, 0
2, 20640, Note_on_c, 0, 67, 0
2, 20640, Note_on_c, 0, 62, 0
2, 20640, Note_on_c, 0, 79, 0
2, 20640, Note_on_c, 0, 59, 0
2, 20640, Note_on_c, 0, 55, 0
2, 20640, Note_on_c, 0, 67, 0
2, 20640, Note_on_c, 0, 55, 0
2, 20640, Note_on_c, 0, 59, 0
2, 20640, Note_on_c, 0, 62, 0
2, 20640, Note_on_c, 0, 79, 100
2, 20640, Note_on_c, 0, 72, 100
2, 20640, Note_on_c, 0, 67, 100
2, 20640, Note_on_c, 0, 60, 100
2, 20640, Note_on_c, 0, 57, 100
2, 20645, Control_c, 0, 7, 115
2, 20650, Control_c, 0, 7, 114
2, 20660, Control_c, 0, 7, 113
2, 20735, Control_c, 0, 7, 112
2, 20740, Control_c, 0, 7, 111
2, 20755, Control_c, 0, 7, 110
2, 20760, Note_on_c, 0, 57, 0
2, 20760, Note_on_c, 0, 67, 0
2, 20760, Note_on_c, 0, 79, 0
2, 20760, Note_on_c, 0, 72, 0
2, 20760, Note_on_c, 0, 60, 0
2, 20760, Note_on_c, 0, 79, 100
2, 20760, Note_on_c, 0, 72, 100
2, 20760, Note_on_c, 0, 67, 100
2, 20760, Note_on_c, 0, 60, 100
2, 20760, Note_on_c, 0, 57, 100
2, 20850, Note_on_c, 0, 79, 100
2, 20850, Note_on_c, 0, 72, 100
2, 20850, Note_on_c, 0, 67, 100
2, 20850, Note_on_c, 0, 60, 100
2, 20850, Note_on_c, 0, 57, 100
2, 20880, Note_on_c, 0, 57, 0
2, 20880, Note_on_c, 0, 67, 0
2, 20880, Note_on_c, 0, 60, 0
2, 20880, Note_on_c, 0, 79, 0
2, 20880, Note_on_c, 0, 57, 0
2, 20880, Note_on_c, 0, 72, 0
2, 20880, Note_on_c, 0, 67, 0
2, 20880, Note_on_c, 0, 72, 0
2, 20880, Note_on_c, 0, 79, 0
2, 20880, Note_on_c, 0, 60, 0
2, 20880, Note_on_c, 0, 79, 100
2, 20880, Note_on_c, 0, 72, 100
2, 20880, Note_on_c, 0, 67, 100
2, 20880, Note_on_c, 0, 60, 100
2, 20880, Note_on_c, 0, 57, 100
2, 20940, Note_on_c, 0, 57, 0
2, 20940, Note_on_c, 0, 67, 0
2, 20940, Note_on_c, 0, 79, 0
2, 20940, Note_on_c, 0, 72, 0
2, 20940, Note_on_c, 0, 60, 0
2, 20940, Note_on_c, 0, 79, 100
2, 20940, Note_on_c, 0, 72, 100
2, 20940, Note_on_c, 0, 67, 100
2, 20940, Note_on_c, 0, 60, 100
2, 20940, Note_on_c, 0, 57, 100
2, 21060, Note_on_c, 0, 57, 0
2, 21060, Note_on_c, 0, 67, 0
2, 21060, Note_on_c, 0, 79, 0
2, 21060, Note_on_c, 0, 72, 0
2, 21060, Note_on_c, 0, 60, 0
2, 21060, Note_on_c, 0, 79, 100
2, 21060, Note_on_c, 0, 72, 100
2, 21060, Note_on_c, 0, 60, 100
2, 21060, Note_on_c, 0, 67, 100
2, 21060, Note_on_c, 0, 57, 100
2, 21120, Note_on_c, 0, 57, 0
2, 21120, Note_on_c, 0, 60, 0
2, 21120, Note_on_c, 0, 79, 0
2, 21120, Note_on_c, 0, 72, 0
2, 21120, Note_on_c, 0, 67, 0
2, 21120, Note_on_c, 0, 79, 100
2, 21120, Note_on_c, 0, 74, 100
2, 21120, Note_on_c, 0, 67, 100
2, 21120, Note_on_c, 0, 62, 100
2, 21120, Note_on_c, 0, 59, 100
2, 21120, Note_on_c, 0, 55, 100
2, 21180, Note_on_c, 0, 79, 100
2, 21180, Note_on_c, 0, 74, 100
2, 21180, Note_on_c, 0, 67, 100
2, 21180, Note_on_c, 0, 62, 100
2, 21180, Note_on_c, 0, 59, 100
2, 21180, Note_on_c, 0, 55, 100
2, 21240, Note_on_c, 0, 55, 0
2, 21240, Note_on_c, 0, 74, 0
2, 21240, Note_on_c, 0, 74, 0
2, 21240, Note_on_c, 0, 67, 0
2, 21240, Note_on_c, 0, 62, 0
2, 21240, Note_on_c, 0, 79, 0
2, 21240, Note_on_c, 0, 59, 0
2, 21240, Note_on_c, 0, 55, 0
2, 21240, Note_on_c, 0, 67, 0
2, 21240, Note_on_c, 0, 79, 0
2, 21240, Note_on_c, 0, 59, 0
2, 21240, Note_on_c, 0, 62, 0
2, 21240, Note_on_c, 0, 74, 100
2, 21240, Note_on_c, 0, 79, 100
2, 21240, Note_on_c, 0, 67, 100
2, 21240, Note_on_c, 0, 62, 100
2, 21240, Note_on_c, 0, 59, 100
2, 21240, Note_on_c, 0, 55, 100
2, 21300, Note_on_c, 0, 55, 0
2, 21300, Note_on_c, 0, 79, 0
2, 21300, Note_on_c, 0, 67, 0
2, 21300, Note_on_c, 0, 74, 0
2, 21300, Note_on_c, 0, 59, 0
2, 21300, Note_on_c, 0, 62, 0
2, 21300, Note_on_c, 0, 74, 100
2, 21300, Note_on_c, 0, 79, 100
2, 21300, Note_on_c, 0, 67, 100
2, 21300, Note_on_c, 0, 62, 100
2, 21300, Note_on_c, 0, 55, 100
2, 21300, Note_on_c, 0, 59, 100
2, 21360, Note_on_c, 0, 59, 0
2, 21360, Note_on_c, 0, 79, 0
2, 21360, Note_on_c, 0, 67, 0
2, 21360, Note_on_c, 0, 74, 0
2, 21360, Note_on_c, 0, 55, 0
2, 21360, Note_on_c, 0, 62, 0
2, 21360, Note_on_c, 0, 57, 100
2, 21360, Note_on_c, 0, 62, 100
2, 21360, Note_on_c, 0, 69, 100
2, 21360, Note_on_c, 0, 74, 100
2, 21360, Note_on_c, 0, 78, 100
2, 21420, Note_on_c, 0, 78, 0
2, 21420, Note_on_c, 0, 69, 0
2, 21420, Note_on_c, 0, 57, 0
2, 21420, Note_on_c, 0, 62, 0
2, 21420, Note_on_c, 0, 74, 0
2, 21420, Note_on_c, 0, 57, 100
2, 21420, Note_on_c, 0, 62, 100
2, 21420, Note_on_c, 0, 69, 100
2, 21420, Note_on_c, 0, 74, 100
2, 21420, Note_on_c, 0, 78, 100
2, 21480, Note_on_c, 0, 78, 0
2, 21480, Note_on_c, 0, 69, 0
2, 21480, Note_on_c, 0, 57, 0
2, 21480, Note_on_c, 0, 62, 0
2, 21480, Note_on_c, 0, 74, 0
2, 21480, Note_on_c, 0, 57, 100
2, 21480, Note_on_c, 0, 62, 100
2, 21480, Note_on_c, 0, 69, 100
2, 21480, Note_on_c, 0, 74, 100
2, 21480, Note_on_c, 0, 78, 100
2, 21540, Note_on_c, 0, 78, 0
2, 21540, Note_on_c, 0, 69, 0
2, 21540, Note_on_c, 0, 57, 0
2, 21540, Note_on_c, 0, 62, 0
2, 21540, Note_on_c, 0, 74, 0
2, 21540, Note_on_c, 0, 57, 100
2, 21540, Note_on_c, 0, 62, 100
2, 21540, Note_on_c, 0, 69, 100
2, 21540, Note_on_c, 0, 74, 100
2, 21540, Note_on_c, 0, 78, 100
2, 21600, Note_on_c, 0, 78, 0
2, 21600, Note_on_c, 0, 69, 0
2, 21600, Note_on_c, 0, 57, 0
2, 21600, Note_on_c, 0, 62, 0
2, 21600, Note_on_c, 0, 74, 0
2, 21600, Note_on_c, 0, 79, 100
2, 21600, Note_on_c, 0, 72, 100
2, 21600, Note_on_c, 0, 67, 100
2, 21600, Note_on_c, 0, 60, 100
2, 21600, Note_on_c, 0, 57, 100
2, 21720, Note_on_c, 0, 57, 0
2, 21720, Note_on_c, 0, 67, 0
2, 21720, Note_on_c, 0, 79, 0
2, 21720, Note_on_c, 0, 72, 0
2, 21720, Note_on_c, 0, 60, 0
2, 21720, Note_on_c, 0, 79, 100
2, 21720, Note_on_c, 0, 72, 100
2, 21720, Note_on_c, 0, 67, 100
2, 21720, Note_on_c, 0, 60, 100
2, 21720, Note_on_c, 0, 57, 100
2, 21810, Note_on_c, 0, 79, 100
2, 21810, Note_on_c, 0, 72, 100
2, 21810, Note_on_c, 0, 67, 100
2, 21810, Note_on_c, 0, 60, 100
2, 21810, Note_on_c, 0, 57, 100
2, 21840, Note_on_c, 0, 57, 0
2, 21840, Note_on_c, 0, 67, 0
2, 21840, Note_on_c, 0, 60, 0
2, 21840, Note_on_c, 0, 79, 0
2, 21840, Note_on_c, 0, 57, 0
2, 21840, Note_on_c, 0, 72, 0
2, 21840, Note_on_c, 0, 67, 0
2, 21840, Note_on_c, 0, 72, 0
2, 21840, Note_on_c, 0, 79, 0
2, 21840, Note_on_c, 0, 60, 0
2, 21840, Note_on_c, 0, 79, 100
2, 21840, Note_on_c, 0, 72, 100
2, 21840, Note_on_c, 0, 67, 100
2, 21840, Note_on_c, 0, 60, 100
2, 21840, Note_on_c, 0, 57, 100
2, 21900, Note_on_c, 0, 57, 0
2, 21900, Note_on_c, 0, 67, 0
2, 21900, Note_on_c, 0, 79, 0
2, 21900, Note_on_c, 0, 72, 0
2, 21900, Note_on_c, 0, 60, 0
2, 21900, Note_on_c, 0, 79, 100
2, 21900, Note_on_c, 0, 72, 100
2, 21900, Note_on_c, 0, 67, 100
2, 21900, Note_on_c, 0, 60, 100
2, 21900, Note_on_c, 0, 57, 100
2, 22020, Note_on_c, 0, 57, 0
2, 22020, Note_on_c, 0, 67, 0
2, 22020, Note_on_c, 0, 79, 0
2, 22020, Note_on_c, 0, 72, 0
2, 22020, Note_on_c, 0, 60, 0
2, 22020, Note_on_c, 0, 79, 100
2, 22020, Note_on_c, 0, 72, 100
2, 22020, Note_on_c, 0, 60, 100
2, 22020, Note_on_c, 0, 67, 100
2, 22020, Note_on_c, 0, 57, 100
2, 22080, Note_on_c, 0, 57, 0
2, 22080, Note_on_c, 0, 60, 0
2, 22080, Note_on_c, 0, 79, 0
2, 22080, Note_on_c, 0, 72, 0
2, 22080, Note_on_c, 0, 67, 0
2, 22080, Note_on_c, 0, 79, 100
2, 22080, Note_on_c, 0, 74, 100
2, 22080, Note_on_c, 0, 67, 100
2, 22080, Note_on_c, 0, 62, 100
2, 22080, Note_on_c, 0, 59, 100
2, 22080, Note_on_c, 0, 55, 100
2, 22140, Note_on_c, 0, 79, 100
2, 22140, Note_on_c, 0, 74, 100
2, 22140, Note_on_c, 0, 67, 100
2, 22140, Note_on_c, 0, 62, 100
2, 22140, Note_on_c, 0, 59, 100
2, 22140, Note_on_c, 0, 55, 100
2, 22200, Note_on_c, 0, 55, 0
2, 22200, Note_on_c, 0, 74, 0
2, 22200, Note_on_c, 0, 74, 0
2, 22200, Note_on_c, 0, 67, 0
2, 22200, Note_on_c, 0, 62, 0
2, 22200, Note_on_c, 0, 79, 0
2, 22200, Note_on_c, 0, 59, 0
2, 22200, Note_on_c, 0, 55, 0
2, 22200, Note_on_c, 0, 67, 0
2, 22200, Note_on_c, 0, 79, 0
2, 22200, Note_on_c, 0, 59, 0
2, 22200, Note_on_c, 0, 62, 0
2, 22200, Note_on_c, 0, 74, 100
2, 22200, Note_on_c, 0, 79, 100
2, 22200, Note_on_c, 0, 67, 100
2, 22200, Note_on_c, 0, 62, 100
2, 22200, Note_on_c, 0, 59, 100
2, 22200, Note_on_c, 0, 55, 100
2, 22260, Note_on_c, 0, 55, 0
2, 22260, Note_on_c, 0, 79, 0
2, 22260, Note_on_c, 0, 67, 0
2, 22260, Note_on_c, 0, 74, 0
2, 22260, Note_on_c, 0, 59, 0
2, 22260, Note_on_c, 0, 62, 0
2, 22260, Note_on_c, 0, 74, 100
2, 22260, Note_on_c, 0, 79, 100
2, 22260, Note_on_c, 0, 67, 100
2, 22260, Note_on_c, 0, 62, 100
2, 22260, Note_on_c, 0, 55, 100
2, 22260, Note_on_c, 0, 59, 100
2, 22320, Note_on_c, 0, 59, 0
2, 22320, Note_on_c, 0, 79, 0
2, 22320, Note_on_c, 0, 67, 0
2, 22320, Note_on_c, 0, 74, 0
2, 22320, Note_on_c, 0, 55, 0
2, 22320, Note_on_c, 0, 62, 0
2, 22320, Note_on_c, 0, 57, 100
2, 22320, Note_on_c, 0, 62, 100
2, 22320, Note_on_c, 0, 69, 100
2, 22320, Note_on_c, 0, 74, 100
2, 22320, Note_on_c, 0, 78, 100
2, 22380, Note_on_c, 0, 78, 0
2, 22380, Note_on_c, 0, 69, 0
2, 22380, Note_on_c, 0, 57, 0
2, 22380, Note_on_c, 0, 62, 0
2, 22380, Note_on_c, 0, 74, 0
2, 22380, Note_on_c, 0, 57, 100
2, 22380, Note_on_c, 0, 62, 100
2, 22380, Note_on_c, 0, 69, 100
2, 22380, Note_on_c, 0, 74, 100
2, 22380, Note_on_c, 0, 78, 100
2, 22440, Note_on_c, 0, 78, 0
2, 22440, Note_on_c, 0, 69, 0
2, 22440, Note_on_c, 0, 57, 0
2, 22440, Note_on_c, 0, 62, 0
2, 22440, Note_on_c, 0, 74, 0
2, 22440, Note_on_c, 0, 57, 100
2, 22440, Note_on_c, 0, 62, 100
2, 22440, Note_on_c, 0, 69, 100
2, 22440, Note_on_c, 0, 74, 100
2, 22440, Note_on_c, 0, 78, 100
2, 22500, Note_on_c, 0, 78, 0
2, 22500, Note_on_c, 0, 69, 0
2, 22500, Note_on_c, 0, 57, 0
2, 22500, Note_on_c, 0, 62, 0
2, 22500, Note_on_c, 0, 74, 0
2, 22500, Note_on_c, 0, 57, 100
2, 22500, Note_on_c, 0, 62, 100
2, 22500, Note_on_c, 0, 69, 100
2, 22500, Note_on_c, 0, 74, 100
2, 22500, Note_on_c, 0, 78, 100
2, 22560, Note_on_c, 0, 78, 0
2, 22560, Note_on_c, 0, 69, 0
2, 22560, Note_on_c, 0, 57, 0
2, 22560, Note_on_c, 0, 62, 0
2, 22560, Note_on_c, 0, 74, 0
2, 22560, Note_on_c, 0, 79, 100
2, 22560, Note_on_c, 0, 72, 100
2, 22560, Note_on_c, 0, 67, 100
2, 22560, Note_on_c, 0, 60, 100
2, 22560, Note_on_c, 0, 57, 100
2, 22680, Note_on_c, 0, 57, 0
2, 22680, Note_on_c, 0, 67, 0
2, 22680, Note_on_c, 0, 79, 0
2, 22680, Note_on_c, 0, 72, 0
2, 22680, Note_on_c, 0, 60, 0
2, 22680, Note_on_c, 0, 79, 100
2, 22680, Note_on_c, 0, 72, 100
2, 22680, Note_on_c, 0, 67, 100
2, 22680, Note_on_c, 0, 60, 100
2, 22680, Note_on_c, 0, 57, 100
2, 22705, Control_c, 0, 7, 111
2, 22770, Note_on_c, 0, 79, 100
2, 22770, Note_on_c, 0, 72, 100
2, 22770, Note_on_c, 0, 67, 100
2, 22770, Note_on_c, 0, 60, 100
2, 22770, Note_on_c, 0, 57, 100
2, 22785, Control_c, 0, 7, 110
2, 22800, Note_on_c, 0, 57, 0
2, 22800, Note_on_c, 0, 67, 0
2, 22800, Note_on_c, 0, 60, 0
2, 22800, Note_on_c, 0, 79, 0
2, 22800, Note_on_c, 0, 57, 0
2, 22800, Note_on_c, 0, 72, 0
2, 22800, Note_on_c, 0, 67, 0
2, 22800, Note_on_c, 0, 72, 0
2, 22800, Note_on_c, 0, 79, 0
2, 22800, Note_on_c, 0, 60, 0
2, 22800, Note_on_c, 0, 79, 100
2, 22800, Note_on_c, 0, 72, 100
2, 22800, Note_on_c, 0, 67, 100
2, 22800, Note_on_c, 0, 60, 100
2, 22800, Note_on_c, 0, 57, 100
2, 22810, Control_c, 0, 7, 109
2, 22860, Note_on_c, 0, 57, 0
2, 22860, Note_on_c, 0, 67, 0
2, 22860, Note_on_c, 0, 79, 0
2, 22860, Note_on_c, 0, 72, 0
2, 22860, Note_on_c, 0, 60, 0
2, 22860, Note_on_c, 0, 79, 100
2, 22860, Note_on_c, 0, 72, 100
2, 22860, Note_on_c, 0, 67, 100
2, 22860, Note_on_c, 0, 60, 100
2, 22860, Note_on_c, 0, 57, 100
2, 22980, Note_on_c, 0, 57, 0
2, 22980, Note_on_c, 0, 67, 0
2, 22980, Note_on_c, 0, 79, 0
2, 22980, Note_on_c, 0, 72, 0
2, 22980, Note_on_c, 0, 60, 0
2, 22980, Control_c, 0, 7, 108
2, 22980, Note_on_c, 0, 79, 100
2, 22980, Note_on_c, 0, 72, 100
2, 22980, Note_on_c, 0, 60, 100
2, 22980, Note_on_c, 0, 67, 100
2, 22980, Note_on_c, 0, 57, 100
2, 23040, Note_on_c, 0, 57, 0
2, 23040, Note_on_c, 0, 60, 0
2, 23040, Note_on_c, 0, 79, 0
2, 23040, Note_on_c, 0, 72, 0
2, 23040, Note_on_c, 0, 67, 0
2, 23040, Note_on_c, 0, 79, 100
2, 23040, Note_on_c, 0, 74, 100
2, 23040, Note_on_c, 0, 67, 100
2, 23040, Note_on_c, 0, 62, 100
2, 23040, Note_on_c, 0, 59, 100
2, 23040, Note_on_c, 0, 55, 100
2, 23040, Control_c, 0, 7, 107
2, 23100, Note_on_c, 0, 79, 100
2, 23100, Note_on_c, 0, 74, 100
2, 23100, Note_on_c, 0, 67, 100
2, 23100, Note_on_c, 0, 62, 100
2, 23100, Note_on_c, 0, 59, 100
2, 23100, Note_on_c, 0, 55, 100
2, 23160, Note_on_c, 0, 55, 0
2, 23160, Note_on_c, 0, 74, 0
2, 23160, Note_on_c, 0, 74, 0
2, 23160, Note_on_c, 0, 67, 0
2, 23160, Note_on_c, 0, 62, 0
2, 23160, Note_on_c, 0, 79, 0
2, 23160, Note_on_c, 0, 59, 0
2, 23160, Note_on_c, 0, 55, 0
2, 23160, Note_on_c, 0, 67, 0
2, 23160, Note_on_c, 0, 79, 0
2, 23160, Note_on_c, 0, 59, 0
2, 23160, Note_on_c, 0, 62, 0
2, 23160, Note_on_c, 0, 74, 100
2, 23160, Note_on_c, 0, 79, 100
2, 23160, Note_on_c, 0, 67, 100
2, 23160, Note_on_c, 0, 62, 100
2, 23160, Note_on_c, 0, 59, 100
2, 23160, Note_on_c, 0, 55, 100
2, 23220, Note_on_c, 0, 55, 0
2, 23220, Note_on_c, 0, 79, 0
2, 23220, Note_on_c, 0, 67, 0
2, 23220, Note_on_c, 0, 74, 0
2, 23220, Note_on_c, 0, 59, 0
2, 23220, Note_on_c, 0, 62, 0
2, 23220, Note_on_c, 0, 74, 100
2, 23220, Note_on_c, 0, 79, 100
2, 23220, Note_on_c, 0, 67, 100
2, 23220, Note_on_c, 0, 62, 100
2, 23220, Note_on_c, 0, 55, 100
2, 23220, Note_on_c, 0, 59, 100
2, 23280, Note_on_c, 0, 59, 0
2, 23280, Note_on_c, 0, 79, 0
2, 23280, Note_on_c, 0, 67, 0
2, 23280, Note_on_c, 0, 74, 0
2, 23280, Note_on_c, 0, 55, 0
2, 23280, Note_on_c, 0, 62, 0
2, 23280, Note_on_c, 0, 57, 100
2, 23280, Note_on_c, 0, 62, 100
2, 23280, Note_on_c, 0, 69, 100
2, 23280, Note_on_c, 0, 74, 100
2, 23280, Note_on_c, 0, 78, 100
2, 23340, Note_on_c, 0, 78, 0
2, 23340, Note_on_c, 0, 69, 0
2, 23340, Note_on_c, 0, 57, 0
2, 23340, Note_on_c, 0, 62, 0
2, 23340, Note_on_c, 0, 74, 0
2, 23340, Note_on_c, 0, 57, 100
2, 23340, Note_on_c, 0, 62, 100
2, 23340, Note_on_c, 0, 69, 100
2, 23340, Note_on_c, 0, 74, 100
2, 23340, Note_on_c, 0, 78, 100
2, 23400, Note_on_c, 0, 78, 0
2, 23400, Note_on_c, 0, 69, 0
2, 23400, Note_on_c, 0, 57, 0
2, 23400, Note_on_c, 0, 62, 0
2, 23400, Note_on_c, 0, 74, 0
2, 23400, Note_on_c, 0, 57, 100
2, 23400, Note_on_c, 0, 62, 100
2, 23400, Note_on_c, 0, 69, 100
2, 23400, Note_on_c, 0, 74, 100
2, 23400, Note_on_c, 0, 78, 100
2, 23460, Note_on_c, 0, 78, 0
2, 23460, Note_on_c, 0, 69, 0
2, 23460, Note_on_c, 0, 57, 0
2, 23460, Note_on_c, 0, 62, 0
2, 23460, Note_on_c, 0, 74, 0
2, 23460, Note_on_c, 0, 57, 100
2, 23460, Note_on_c, 0, 62, 100
2, 23460, Note_on_c, 0, 69, 100
2, 23460, Note_on_c, 0, 74, 100
2, 23460, Note_on_c, 0, 78, 100
2, 23510, Control_c, 0, 7, 108
2, 23515, Control_c, 0, 7, 109
2, 23520, Note_on_c, 0, 78, 0
2, 23520, Note_on_c, 0, 69, 0
2, 23520, Note_on_c, 0, 57, 0
2, 23520, Note_on_c, 0, 62, 0
2, 23520, Note_on_c, 0, 74, 0
2, 23520, Note_on_c, 0, 77, 100
2, 23520, Note_on_c, 0, 72, 100
2, 23520, Note_on_c, 0, 69, 100
2, 23520, Note_on_c, 0, 65, 100
2, 23520, Note_on_c, 0, 60, 100
2, 23520, Note_on_c, 0, 53, 100
2, 23525, Control_c, 0, 7, 110
2, 23545, Control_c, 0, 7, 111
2, 23605, Control_c, 0, 7, 112
2, 23640, Note_on_c, 0, 53, 0
2, 23640, Note_on_c, 0, 72, 0
2, 23640, Note_on_c, 0, 69, 0
2, 23640, Note_on_c, 0, 77, 0
2, 23640, Note_on_c, 0, 60, 0
2, 23640, Note_on_c, 0, 65, 0
2, 23650, Control_c, 0, 7, 113
2, 23675, Control_c, 0, 7, 114
2, 23700, Control_c, 0, 7, 115
2, 23820, Note_on_c, 0, 77, 100
2, 23820, Note_on_c, 0, 72, 100
2, 23820, Note_on_c, 0, 69, 100
2, 23820, Note_on_c, 0, 65, 100
2, 23820, Note_on_c, 0, 60, 100
2, 23820, Note_on_c, 0, 53, 100
2, 23880, Note_on_c, 0, 53, 0
2, 23880, Note_on_c, 0, 72, 0
2, 23880, Note_on_c, 0, 69, 0
2, 23880, Note_on_c, 0, 77, 0
2, 23880, Note_on_c, 0, 60, 0
2, 23880, Note_on_c, 0, 65, 0
2, 23880, Note_on_c, 0, 77, 100
2, 23880, Note_on_c, 0, 72, 100
2, 23880, Note_on_c, 0, 69, 100
2, 23880, Note_on_c, 0, 65, 100
2, 23880, Note_on_c, 0, 60, 100
2, 23880, Note_on_c, 0, 53, 100
2, 23915, Control_c, 0, 7, 116
2, 23925, Control_c, 0, 7, 117
2, 23933, Control_c, 0, 7, 118
2, 23940, Note_on_c, 0, 53, 0
2, 23940, Note_on_c, 0, 72, 0
2, 23940, Note_on_c, 0, 69, 0
2, 23940, Note_on_c, 0, 77, 0
2, 23940, Note_on_c, 0, 60, 0
2, 23940, Note_on_c, 0, 65, 0
2, 23940, Note_on_c, 0, 79, 100
2, 23940, Note_on_c, 0, 74, 100
2, 23940, Note_on_c, 0, 67, 100
2, 23940, Note_on_c, 0, 62, 100
2, 23940, Note_on_c, 0, 55, 100
2, 23940, Note_on_c, 0, 59, 100
2, 23975, Control_c, 0, 7, 117
2, 23985, Control_c, 0, 7, 114
2, 23985, Control_c, 0, 7, 116
2, 23990, Control_c, 0, 7, 113
2, 24000, Note_on_c, 0, 59, 0
2, 24000, Note_on_c, 0, 74, 0
2, 24000, Note_on_c, 0, 67, 0
2, 24000, Note_on_c, 0, 79, 0
2, 24000, Note_on_c, 0, 55, 0
2, 24000, Note_on_c, 0, 62, 0
2, 24000, Control_c, 0, 7, 112
2, 24000, Note_on_c, 0, 79, 100
2, 24000, Note_on_c, 0, 74, 100
2, 24000, Note_on_c, 0, 67, 100
2, 24000, Note_on_c, 0, 62, 100
2, 24000, Note_on_c, 0, 55, 100
2, 24000, Note_on_c, 0, 59, 100
2, 24106, Control_c, 0, 7, 111
2, 24120, Note_on_c, 0, 59, 0
2, 24120, Note_on_c, 0, 74, 0
2, 24120, Note_on_c, 0, 67, 0
2, 24120, Note_on_c, 0, 79, 0
2, 24120, Note_on_c, 0, 55, 0
2, 24120, Note_on_c, 0, 62, 0
2, 24120, Note_on_c, 0, 79, 100
2, 24120, Note_on_c, 0, 74, 100
2, 24120, Note_on_c, 0, 67, 100
2, 24120, Note_on_c, 0, 59, 100
2, 24120, Note_on_c, 0, 62, 100
2, 24120, Note_on_c, 0, 55, 100
2, 24240, Note_on_c, 0, 55, 0
2, 24240, Note_on_c, 0, 74, 0
2, 24240, Note_on_c, 0, 67, 0
2, 24240, Note_on_c, 0, 79, 0
2, 24240, Note_on_c, 0, 62, 0
2, 24240, Note_on_c, 0, 59, 0
2, 24240, Note_on_c, 0, 79, 100
2, 24240, Note_on_c, 0, 74, 100
2, 24240, Note_on_c, 0, 67, 100
2, 24240, Note_on_c, 0, 62, 100
2, 24240, Note_on_c, 0, 59, 100
2, 24240, Note_on_c, 0, 55, 100
2, 24288, Control_c, 0, 7, 110
2, 24308, Control_c, 0, 7, 109
2, 24360, Note_on_c, 0, 55, 0
2, 24360, Note_on_c, 0, 74, 0
2, 24360, Note_on_c, 0, 67, 0
2, 24360, Note_on_c, 0, 79, 0
2, 24360, Note_on_c, 0, 59, 0
2, 24360, Note_on_c, 0, 62, 0
2, 24360, Note_on_c, 0, 79, 100
2, 24360, Note_on_c, 0, 74, 100
2, 24360, Note_on_c, 0, 67, 100
2, 24360, Note_on_c, 0, 62, 100
2, 24360, Note_on_c, 0, 59, 100
2, 24360, Note_on_c, 0, 55, 100
2, 24425, Control_c, 0, 7, 108
2, 24438, Control_c, 0, 7, 107
2, 24480, Note_on_c, 0, 55, 0
2, 24480, Note_on_c, 0, 74, 0
2, 24480, Note_on_c, 0, 67, 0
2, 24480, Note_on_c, 0, 79, 0
2, 24480, Note_on_c, 0, 59, 0
2, 24480, Note_on_c, 0, 62, 0
2, 24480, Control_c, 0, 7, 108
2, 24480, Note_on_c, 0, 79, 100
2, 24480, Note_on_c, 0, 74, 100
2, 24480, Note_on_c, 0, 67, 100
2, 24480, Note_on_c, 0, 62, 100
2, 24480, Note_on_c, 0, 59, 100
2, 24480, Note_on_c, 0, 55, 100
2, 24493, Control_c, 0, 7, 109
2, 24600, Note_on_c, 0, 55, 0
2, 24600, Note_on_c, 0, 74, 0
2, 24600, Note_on_c, 0, 67, 0
2, 24600, Note_on_c, 0, 79, 0
2, 24600, Note_on_c, 0, 59, 0
2, 24600, Note_on_c, 0, 62, 0
2, 24605, Control_c, 0, 7, 110
2, 24703, Control_c, 0, 7, 111
2, 24720, Note_on_c, 0, 55, 100
2, 24750, Control_c, 0, 7, 112
2, 24765, Control_c, 0, 7, 113
2, 24775, Control_c, 0, 7, 114
2, 24780, Note_on_c, 0, 55, 0
2, 24780, Note_on_c, 0, 67, 100
2, 24780, Note_on_c, 0, 55, 100
2, 24780, Note_on_c, 0, 59, 100
2, 24795, Control_c, 0, 7, 115
2, 24800, Control_c, 0, 7, 116
2, 24815, Control_c, 0, 7, 117
2, 24830, Control_c, 0, 7, 118
2, 24840, Note_on_c, 0, 59, 0
2, 24840, Note_on_c, 0, 55, 0
2, 24840, Note_on_c, 0, 67, 0
2, 24840, Control_c, 0, 7, 119
2, 24840, Note_on_c, 0, 55, 100
2, 24840, Note_on_c, 0, 62, 100
2, 24860, Control_c, 0, 7, 120
2, 24865, Control_c, 0, 7, 121
2, 24875, Control_c, 0, 7, 122
2, 24892, Control_c, 0, 7, 123
2, 24900, Note_on_c, 0, 62, 0
2, 24900, Note_on_c, 0, 55, 0
2, 24900, Control_c, 0, 7, 124
2, 24900, Note_on_c, 0, 55, 100
2, 24900, Note_on_c, 0, 67, 100
2, 24916, Control_c, 0, 7, 125
2, 24926, Control_c, 0, 7, 126
2, 24960, Note_on_c, 0, 67, 0
2, 24960, Note_on_c, 0, 55, 0
2, 24960, Control_c, 0, 7, 125
2, 24960, Note_on_c, 0, 73, 100
2, 24960, Note_on_c, 0, 68, 100
2, 24960, Note_on_c, 0, 76, 100
2, 24960, Note_on_c, 0, 56, 100
2, 24960, Note_on_c, 0, 61, 100
2, 24960, Note_on_c, 0, 80, 100
2, 24965, Control_c, 0, 7, 124
2, 24975, Control_c, 0, 7, 123
2, 24980, Control_c, 0, 7, 122
2, 24985, Control_c, 0, 7, 121
2, 24990, Control_c, 0, 7, 120
2, 25010, Control_c, 0, 7, 119
2, 25055, Control_c, 0, 7, 120
2, 25080, Note_on_c, 0, 80, 0
2, 25080, Note_on_c, 0, 68, 0
2, 25080, Note_on_c, 0, 76, 0
2, 25080, Note_on_c, 0, 73, 0
2, 25080, Note_on_c, 0, 61, 0
2, 25080, Note_on_c, 0, 56, 0
2, 25080, Note_on_c, 0, 73, 100
2, 25080, Note_on_c, 0, 76, 100
2, 25080, Note_on_c, 0, 56, 100
2, 25080, Note_on_c, 0, 61, 100
2, 25080, Note_on_c, 0, 80, 100
2, 25080, Note_on_c, 0, 68, 100
2, 25140, Note_on_c, 0, 68, 0
2, 25140, Note_on_c, 0, 76, 0
2, 25140, Note_on_c, 0, 56, 0
2, 25140, Note_on_c, 0, 73, 0
2, 25140, Note_on_c, 0, 80, 0
2, 25140, Note_on_c, 0, 61, 0
2, 25140, Note_on_c, 0, 61, 100
2, 25140, Note_on_c, 0, 73, 100
2, 25140, Note_on_c, 0, 68, 100
2, 25140, Note_on_c, 0, 80, 100
2, 25140, Note_on_c, 0, 56, 100
2, 25140, Note_on_c, 0, 76, 100
2, 25200, Note_on_c, 0, 76, 0
2, 25200, Note_on_c, 0, 73, 0
2, 25200, Note_on_c, 0, 68, 0
2, 25200, Note_on_c, 0, 61, 0
2, 25200, Note_on_c, 0, 56, 0
2, 25200, Note_on_c, 0, 80, 0
2, 25200, Note_on_c, 0, 66, 100
2, 25200, Note_on_c, 0, 78, 100
2, 25200, Note_on_c, 0, 75, 100
2, 25200, Note_on_c, 0, 71, 100
2, 25200, Note_on_c, 0, 59, 100
2, 25200, Note_on_c, 0, 54, 100
2, 25260, Note_on_c, 0, 54, 0
2, 25260, Note_on_c, 0, 78, 0
2, 25260, Note_on_c, 0, 75, 0
2, 25260, Note_on_c, 0, 66, 0
2, 25260, Note_on_c, 0, 59, 0
2, 25260, Note_on_c, 0, 71, 0
2, 25260, Note_on_c, 0, 71, 100
2, 25260, Note_on_c, 0, 78, 100
2, 25260, Note_on_c, 0, 54, 100
2, 25260, Note_on_c, 0, 66, 100
2, 25260, Note_on_c, 0, 59, 100
2, 25260, Note_on_c, 0, 75, 100
2, 25320, Note_on_c, 0, 75, 0
2, 25320, Note_on_c, 0, 78, 0
2, 25320, Note_on_c, 0, 54, 0
2, 25320, Note_on_c, 0, 71, 0
2, 25320, Note_on_c, 0, 59, 0
2, 25320, Note_on_c, 0, 66, 0
2, 25320, Note_on_c, 0, 54, 100
2, 25320, Note_on_c, 0, 59, 100
2, 25320, Note_on_c, 0, 75, 100
2, 25320, Note_on_c, 0, 78, 100
2, 25320, Note_on_c, 0, 66, 100
2, 25320, Note_on_c, 0, 71, 100
2, 25380, Note_on_c, 0, 71, 0
2, 25380, Note_on_c, 0, 59, 0
2, 25380, Note_on_c, 0, 75, 0
2, 25380, Note_on_c, 0, 54, 0
2, 25380, Note_on_c, 0, 66, 0
2, 25380, Note_on_c, 0, 78, 0
2, 25380, Note_on_c, 0, 57, 100
2, 25380, Note_on_c, 0, 52, 100
2, 25380, Note_on_c, 0, 64, 100
2, 25380, Note_on_c, 0, 73, 100
2, 25380, Note_on_c, 0, 69, 100
2, 25380, Note_on_c, 0, 76, 100
2, 25500, Note_on_c, 0, 76, 0
2, 25500, Note_on_c, 0, 52, 0
2, 25500, Note_on_c, 0, 64, 0
2, 25500, Note_on_c, 0, 57, 0
2, 25500, Note_on_c, 0, 69, 0
2, 25500, Note_on_c, 0, 73, 0
2, 25500, Note_on_c, 0, 73, 100
2, 25500, Note_on_c, 0, 76, 100
2, 25500, Note_on_c, 0, 64, 100
2, 25500, Note_on_c, 0, 69, 100
2, 25500, Note_on_c, 0, 52, 100
2, 25500, Note_on_c, 0, 57, 100
2, 25560, Note_on_c, 0, 57, 0
2, 25560, Note_on_c, 0, 76, 0
2, 25560, Note_on_c, 0, 64, 0
2, 25560, Note_on_c, 0, 73, 0
2, 25560, Note_on_c, 0, 52, 0
2, 25560, Note_on_c, 0, 69, 0
2, 25560, Note_on_c, 0, 76, 100
2, 25560, Note_on_c, 0, 69, 100
2, 25560, Note_on_c, 0, 73, 100
2, 25560, Note_on_c, 0, 57, 100
2, 25560, Note_on_c, 0, 52, 100
2, 25560, Note_on_c, 0, 64, 100
2, 25620, Note_on_c, 0, 64, 0
2, 25620, Note_on_c, 0, 69, 0
2, 25620, Note_on_c, 0, 73, 0
2, 25620, Note_on_c, 0, 76, 0
2, 25620, Note_on_c, 0, 52, 0
2, 25620, Note_on_c, 0, 57, 0
2, 25620, Note_on_c, 0, 73, 100
2, 25620, Note_on_c, 0, 76, 100
2, 25620, Note_on_c, 0, 64, 100
2, 25620, Note_on_c, 0, 57, 100
2, 25620, Note_on_c, 0, 52, 100
2, 25620, Note_on_c, 0, 69, 100
2, 25680, Note_on_c, 0, 69, 0
2, 25680, Note_on_c, 0, 76, 0
2, 25680, Note_on_c, 0, 64, 0
2, 25680, Note_on_c, 0, 73, 0
2, 25680, Note_on_c, 0, 52, 0
2, 25680, Note_on_c, 0, 57, 0
2, 25680, Note_on_c, 0, 76, 100
2, 25680, Note_on_c, 0, 52, 100
2, 25680, Note_on_c, 0, 57, 100
2, 25680, Note_on_c, 0, 73, 100
2, 25680, Note_on_c, 0, 69, 100
2, 25680, Note_on_c, 0, 64, 100
2, 25740, Note_on_c, 0, 64, 0
2, 25740, Note_on_c, 0, 52, 0
2, 25740, Note_on_c, 0, 57, 0
2, 25740, Note_on_c, 0, 76, 0
2, 25740, Note_on_c, 0, 69, 0
2, 25740, Note_on_c, 0, 73, 0
2, 25740, Note_on_c, 0, 59, 100
2, 25740, Note_on_c, 0, 66, 100
2, 25740, Note_on_c, 0, 71, 100
2, 25740, Note_on_c, 0, 78, 100
2, 25740, Note_on_c, 0, 75, 100
2, 25740, Note_on_c, 0, 54, 100
2, 25800, Note_on_c, 0, 54, 0
2, 25800, Note_on_c, 0, 66, 0
2, 25800, Note_on_c, 0, 71, 0
2, 25800, Note_on_c, 0, 59, 0
2, 25800, Note_on_c, 0, 75, 0
2, 25800, Note_on_c, 0, 78, 0
2, 25800, Note_on_c, 0, 78, 100
2, 25800, Note_on_c, 0, 66, 100
2, 25800, Note_on_c, 0, 59, 100
2, 25800, Note_on_c, 0, 54, 100
2, 25800, Note_on_c, 0, 75, 100
2, 25800, Note_on_c, 0, 71, 100
2, 25860, Note_on_c, 0, 71, 0
2, 25860, Note_on_c, 0, 66, 0
2, 25860, Note_on_c, 0, 59, 0
2, 25860, Note_on_c, 0, 78, 0
2, 25860, Note_on_c, 0, 75, 0
2, 25860, Note_on_c, 0, 54, 0
2, 25860, Note_on_c, 0, 78, 100
2, 25860, Note_on_c, 0, 71, 100
2, 25860, Note_on_c, 0, 75, 100
2, 25860, Note_on_c, 0, 59, 100
2, 25860, Note_on_c, 0, 54, 100
2, 25860, Note_on_c, 0, 66, 100
2, 25920, Note_on_c, 0, 66, 0
2, 25920, Note_on_c, 0, 71, 0
2, 25920, Note_on_c, 0, 75, 0
2, 25920, Note_on_c, 0, 78, 0
2, 25920, Note_on_c, 0, 54, 0
2, 25920, Note_on_c, 0, 59, 0
2, 25920, Note_on_c, 0, 80, 100
2, 25920, Note_on_c, 0, 75, 100
2, 25920, Note_on_c, 0, 71, 100
2, 25920, Note_on_c, 0, 68, 100
2, 25920, Note_on_c, 0, 63, 100
2, 25920, Note_on_c, 0, 56, 100
2, 26040, Note_on_c, 0, 56, 0
2, 26040, Note_on_c, 0, 75, 0
2, 26040, Note_on_c, 0, 71, 0
2, 26040, Note_on_c, 0, 80, 0
2, 26040, Note_on_c, 0, 63, 0
2, 26040, Note_on_c, 0, 68, 0
2, 26040, Note_on_c, 0, 80, 100
2, 26040, Note_on_c, 0, 75, 100
2, 26040, Note_on_c, 0, 71, 100
2, 26040, Note_on_c, 0, 68, 100
2, 26040, Note_on_c, 0, 63, 100
2, 26040, Note_on_c, 0, 56, 100
2, 26160, Note_on_c, 0, 56, 0
2, 26160, Note_on_c, 0, 75, 0
2, 26160, Note_on_c, 0, 71, 0
2, 26160, Note_on_c, 0, 80, 0
2, 26160, Note_on_c, 0, 63, 0
2, 26160, Note_on_c, 0, 68, 0
2, 26160, Note_on_c, 0, 80, 100
2, 26160, Note_on_c, 0, 75, 100
2, 26160, Note_on_c, 0, 71, 100
2, 26160, Note_on_c, 0, 68, 100
2, 26160, Note_on_c, 0, 63, 100
2, 26160, Note_on_c, 0, 56, 100
2, 26220, Note_on_c, 0, 56, 0
2, 26220, Note_on_c, 0, 75, 0
2, 26220, Note_on_c, 0, 71, 0
2, 26220, Note_on_c, 0, 80, 0
2, 26220, Note_on_c, 0, 63, 0
2, 26220, Note_on_c, 0, 68, 0
2, 26220, Note_on_c, 0, 80, 100
2, 26220, Note_on_c, 0, 75, 100
2, 26220, Note_on_c, 0, 71, 100
2, 26220, Note_on_c, 0, 68, 100
2, 26220, Note_on_c, 0, 63, 100
2, 26220, Note_on_c, 0, 56, 100
2, 26280, Note_on_c, 0, 80, 100
2, 26280, Note_on_c, 0, 75, 100
2, 26280, Note_on_c, 0, 71, 100
2, 26280, Note_on_c, 0, 68, 100
2, 26280, Note_on_c, 0, 63, 100
2, 26280, Note_on_c, 0, 56, 100
2, 26340, Note_on_c, 0, 56, 0
2, 26340, Note_on_c, 0, 75, 0
2, 26340, Note_on_c, 0, 75, 0
2, 26340, Note_on_c, 0, 71, 0
2, 26340, Note_on_c, 0, 68, 0
2, 26340, Note_on_c, 0, 80, 0
2, 26340, Note_on_c, 0, 63, 0
2, 26340, Note_on_c, 0, 56, 0
2, 26340, Note_on_c, 0, 71, 0
2, 26340, Note_on_c, 0, 80, 0
2, 26340, Note_on_c, 0, 63, 0
2, 26340, Note_on_c, 0, 68, 0
2, 26340, Note_on_c, 0, 79, 100
2, 26340, Note_on_c, 0, 74, 100
2, 26340, Note_on_c, 0, 71, 100
2, 26340, Note_on_c, 0, 67, 100
2, 26340, Note_on_c, 0, 62, 100
2, 26340, Note_on_c, 0, 55, 100
2, 26460, Note_on_c, 0, 55, 0
2, 26460, Note_on_c, 0, 74, 0
2, 26460, Note_on_c, 0, 71, 0
2, 26460, Note_on_c, 0, 79, 0
2, 26460, Note_on_c, 0, 62, 0
2, 26460, Note_on_c, 0, 67, 0
2, 26460, Note_on_c, 0, 79, 100
2, 26460, Note_on_c, 0, 74, 100
2, 26460, Note_on_c, 0, 71, 100
2, 26460, Note_on_c, 0, 67, 100
2, 26460, Note_on_c, 0, 62, 100
2, 26460, Note_on_c, 0, 55, 100
2, 26520, Note_on_c, 0, 55, 0
2, 26520, Note_on_c, 0, 74, 0
2, 26520, Note_on_c, 0, 71, 0
2, 26520, Note_on_c, 0, 79, 0
2, 26520, Note_on_c, 0, 62, 0
2, 26520, Note_on_c, 0, 67, 0
2, 26580, Note_on_c, 0, 79, 100
2, 26580, Note_on_c, 0, 74, 100
2, 26580, Note_on_c, 0, 71, 100
2, 26580, Note_on_c, 0, 67, 100
2, 26580, Note_on_c, 0, 62, 100
2, 26580, Note_on_c, 0, 55, 100
2, 26640, Note_on_c, 0, 55, 0
2, 26640, Note_on_c, 0, 74, 0
2, 26640, Note_on_c, 0, 71, 0
2, 26640, Note_on_c, 0, 79, 0
2, 26640, Note_on_c, 0, 62, 0
2, 26640, Note_on_c, 0, 67, 0
2, 26640, Note_on_c, 0, 79, 100
2, 26640, Note_on_c, 0, 74, 100
2, 26640, Note_on_c, 0, 71, 100
2, 26640, Note_on_c, 0, 67, 100
2, 26640, Note_on_c, 0, 62, 100
2, 26640, Note_on_c, 0, 55, 100
2, 26700, Note_on_c, 0, 55, 0
2, 26700, Note_on_c, 0, 74, 0
2, 26700, Note_on_c, 0, 71, 0
2, 26700, Note_on_c, 0, 79, 0
2, 26700, Note_on_c, 0, 62, 0
2, 26700, Note_on_c, 0, 67, 0
2, 26700, Note_on_c, 0, 79, 100
2, 26700, Note_on_c, 0, 74, 100
2, 26700, Note_on_c, 0, 71, 100
2, 26700, Note_on_c, 0, 67, 100
2, 26700, Note_on_c, 0, 62, 100
2, 26700, Note_on_c, 0, 55, 100
2, 26820, Note_on_c, 0, 55, 0
2, 26820, Note_on_c, 0, 74, 0
2, 26820, Note_on_c, 0, 71, 0
2, 26820, Note_on_c, 0, 79, 0
2, 26820, Note_on_c, 0, 62, 0
2, 26820, Note_on_c, 0, 67, 0
2, 26820, Note_on_c, 0, 79, 100
2, 26820, Note_on_c, 0, 74, 100
2, 26820, Note_on_c, 0, 71, 100
2, 26820, Note_on_c, 0, 67, 100
2, 26820, Note_on_c, 0, 62, 100
2, 26820, Note_on_c, 0, 55, 100
2, 26880, Note_on_c, 0, 55, 0
2, 26880, Note_on_c, 0, 74, 0
2, 26880, Note_on_c, 0, 71, 0
2, 26880, Note_on_c, 0, 79, 0
2, 26880, Note_on_c, 0, 62, 0
2, 26880, Note_on_c, 0, 67, 0
2, 26880, Note_on_c, 0, 73, 100
2, 26880, Note_on_c, 0, 68, 100
2, 26880, Note_on_c, 0, 76, 100
2, 26880, Note_on_c, 0, 56, 100
2, 26880, Note_on_c, 0, 61, 100
2, 26880, Note_on_c, 0, 80, 100
2, 27000, Note_on_c, 0, 80, 0
2, 27000, Note_on_c, 0, 68, 0
2, 27000, Note_on_c, 0, 76, 0
2, 27000, Note_on_c, 0, 73, 0
2, 27000, Note_on_c, 0, 61, 0
2, 27000, Note_on_c, 0, 56, 0
2, 27000, Note_on_c, 0, 73, 100
2, 27000, Note_on_c, 0, 76, 100
2, 27000, Note_on_c, 0, 56, 100
2, 27000, Note_on_c, 0, 61, 100
2, 27000, Note_on_c, 0, 80, 100
2, 27000, Note_on_c, 0, 68, 100
2, 27060, Note_on_c, 0, 68, 0
2, 27060, Note_on_c, 0, 76, 0
2, 27060, Note_on_c, 0, 56, 0
2, 27060, Note_on_c, 0, 73, 0
2, 27060, Note_on_c, 0, 80, 0
2, 27060, Note_on_c, 0, 61, 0
2, 27060, Note_on_c, 0, 61, 100
2, 27060, Note_on_c, 0, 73, 100
2, 27060, Note_on_c, 0, 68, 100
2, 27060, Note_on_c, 0, 80, 100
2, 27060, Note_on_c, 0, 56, 100
2, 27060, Note_on_c, 0, 76, 100
2, 27120, Note_on_c, 0, 76, 0
2, 27120, Note_on_c, 0, 73, 0
2, 27120, Note_on_c, 0, 68, 0
2, 27120, Note_on_c, 0, 61, 0
2, 27120, Note_on_c, 0, 56, 0
2, 27120, Note_on_c, 0, 80, 0
2, 27120, Note_on_c, 0, 66, 100
2, 27120, Note_on_c, 0, 78, 100
2, 27120, Note_on_c, 0, 75, 100
2, 27120, Note_on_c, 0, 71, 100
2, 27120, Note_on_c, 0, 59, 100
2, 27120, Note_on_c, 0, 54, 100
2, 27180, Note_on_c, 0, 54, 0
2, 27180, Note_on_c, 0, 78, 0
2, 27180, Note_on_c, 0, 75, 0
2, 27180, Note_on_c, 0, 66, 0
2, 27180, Note_on_c, 0, 59, 0
2, 27180, Note_on_c, 0, 71, 0
2, 27180, Note_on_c, 0, 71, 100
2, 27180, Note_on_c, 0, 78, 100
2, 27180, Note_on_c, 0, 54, 100
2, 27180, Note_on_c, 0, 66, 100
2, 27180, Note_on_c, 0, 59, 100
2, 27180, Note_on_c, 0, 75, 100
2, 27240, Note_on_c, 0, 75, 0
2, 27240, Note_on_c, 0, 78, 0
2, 27240, Note_on_c, 0, 54, 0
2, 27240, Note_on_c, 0, 71, 0
2, 27240, Note_on_c, 0, 59, 0
2, 27240, Note_on_c, 0, 66, 0
2, 27240, Note_on_c, 0, 54, 100
2, 27240, Note_on_c, 0, 59, 100
2, 27240, Note_on_c, 0, 75, 100
2, 27240, Note_on_c, 0, 78, 100
2, 27240, Note_on_c, 0, 66, 100
2, 27240, Note_on_c, 0, 71, 100
2, 27300, Note_on_c, 0, 71, 0
2, 27300, Note_on_c, 0, 59, 0
2, 27300, Note_on_c, 0, 75, 0
2, 27300, Note_on_c, 0, 54, 0
2, 27300, Note_on_c, 0, 66, 0
2, 27300, Note_on_c, 0, 78, 0
2, 27300, Note_on_c, 0, 57, 100
2, 27300, Note_on_c, 0, 52, 100
2, 27300, Note_on_c, 0, 64, 100
2, 27300, Note_on_c, 0, 73, 100
2, 27300, Note_on_c, 0, 69, 100
2, 27300, Note_on_c, 0, 76, 100
2, 27420, Note_on_c, 0, 76, 0
2, 27420, Note_on_c, 0, 52, 0
2, 27420, Note_on_c, 0, 64, 0
2, 27420, Note_on_c, 0, 57, 0
2, 27420, Note_on_c, 0, 69, 0
2, 27420, Note_on_c, 0, 73, 0
2, 27420, Note_on_c, 0, 73, 100
2, 27420, Note_on_c, 0, 76, 100
2, 27420, Note_on_c, 0, 64, 100
2, 27420, Note_on_c, 0, 69, 100
2, 27420, Note_on_c, 0, 52, 100
2, 27420, Note_on_c, 0, 57, 100
2, 27480, Note_on_c, 0, 57, 0
2, 27480, Note_on_c, 0, 76, 0
2, 27480, Note_on_c, 0, 64, 0
2, 27480, Note_on_c, 0, 73, 0
2, 27480, Note_on_c, 0, 52, 0
2, 27480, Note_on_c, 0, 69, 0
2, 27480, Note_on_c, 0, 76, 100
2, 27480, Note_on_c, 0, 69, 100
2, 27480, Note_on_c, 0, 73, 100
2, 27480, Note_on_c, 0, 57, 100
2, 27480, Note_on_c, 0, 52, 100
2, 27480, Note_on_c, 0, 64, 100
2, 27540, Note_on_c, 0, 64, 0
2, 27540, Note_on_c, 0, 69, 0
2, 27540, Note_on_c, 0, 73, 0
2, 27540, Note_on_c, 0, 76, 0
2, 27540, Note_on_c, 0, 52, 0
2, 27540, Note_on_c, 0, 57, 0
2, 27540, Note_on_c, 0, 73, 100
2, 27540, Note_on_c, 0, 76, 100
2, 27540, Note_on_c, 0, 64, 100
2, 27540, Note_on_c, 0, 57, 100
2, 27540, Note_on_c, 0, 52, 100
2, 27540, Note_on_c, 0, 69, 100
2, 27600, Note_on_c, 0, 69, 0
2, 27600, Note_on_c, 0, 76, 0
2, 27600, Note_on_c, 0, 64, 0
2, 27600, Note_on_c, 0, 73, 0
2, 27600, Note_on_c, 0, 52, 0
2, 27600, Note_on_c, 0, 57, 0
2, 27600, Note_on_c, 0, 76, 100
2, 27600, Note_on_c, 0, 52, 100
2, 27600, Note_on_c, 0, 57, 100
2, 27600, Note_on_c, 0, 73, 100
2, 27600, Note_on_c, 0, 69, 100
2, 27600, Note_on_c, 0, 64, 100
2, 27660, Note_on_c, 0, 64, 0
2, 27660, Note_on_c, 0, 52, 0
2, 27660, Note_on_c, 0, 57, 0
2, 27660, Note_on_c, 0, 76, 0
2, 27660, Note_on_c, 0, 69, 0
2, 27660, Note_on_c, 0, 73, 0
2, 27660, Note_on_c, 0, 59, 100
2, 27660, Note_on_c, 0, 66, 100
2, 27660, Note_on_c, 0, 71, 100
2, 27660, Note_on_c, 0, 78, 100
2, 27660, Note_on_c, 0, 75, 100
2, 27660, Note_on_c, 0, 54, 100
2, 27720, Note_on_c, 0, 54, 0
2, 27720, Note_on_c, 0, 66, 0
2, 27720, Note_on_c, 0, 71, 0
2, 27720, Note_on_c, 0, 59, 0
2, 27720, Note_on_c, 0, 75, 0
2, 27720, Note_on_c, 0, 78, 0
2, 27720, Note_on_c, 0, 78, 100
2, 27720, Note_on_c, 0, 66, 100
2, 27720, Note_on_c, 0, 59, 100
2, 27720, Note_on_c, 0, 54, 100
2, 27720, Note_on_c, 0, 75, 100
2, 27720, Note_on_c, 0, 71, 100
2, 27780, Note_on_c, 0, 71, 0
2, 27780, Note_on_c, 0, 66, 0
2, 27780, Note_on_c, 0, 59, 0
2, 27780, Note_on_c, 0, 78, 0
2, 27780, Note_on_c, 0, 75, 0
2, 27780, Note_on_c, 0, 54, 0
2, 27780, Note_on_c, 0, 78, 100
2, 27780, Note_on_c, 0, 71, 100
2, 27780, Note_on_c, 0, 75, 100
2, 27780, Note_on_c, 0, 59, 100
2, 27780, Note_on_c, 0, 54, 100
2, 27780, Note_on_c, 0, 66, 100
2, 27840, Note_on_c, 0, 66, 0
2, 27840, Note_on_c, 0, 71, 0
2, 27840, Note_on_c, 0, 75, 0
2, 27840, Note_on_c, 0, 78, 0
2, 27840, Note_on_c, 0, 54, 0
2, 27840, Note_on_c, 0, 59, 0
2, 27840, Note_on_c, 0, 80, 100
2, 27840, Note_on_c, 0, 75, 100
2, 27840, Note_on_c, 0, 71, 100
2, 27840, Note_on_c, 0, 68, 100
2, 27840, Note_on_c, 0, 63, 100
2, 27840, Note_on_c, 0, 56, 100
2, 27960, Note_on_c, 0, 56, 0
2, 27960, Note_on_c, 0, 75, 0
2, 27960, Note_on_c, 0, 71, 0
2, 27960, Note_on_c, 0, 80, 0
2, 27960, Note_on_c, 0, 63, 0
2, 27960, Note_on_c, 0, 68, 0
2, 27960, Note_on_c, 0, 80, 100
2, 27960, Note_on_c, 0, 75, 100
2, 27960, Note_on_c, 0, 71, 100
2, 27960, Note_on_c, 0, 68, 100
2, 27960, Note_on_c, 0, 63, 100
2, 27960, Note_on_c, 0, 56, 100
2, 28080, Note_on_c, 0, 56, 0
2, 28080, Note_on_c, 0, 75, 0
2, 28080, Note_on_c, 0, 71, 0
2, 28080, Note_on_c, 0, 80, 0
2, 28080, Note_on_c, 0, 63, 0
2, 28080, Note_on_c, 0, 68, 0
2, 28080, Note_on_c, 0, 80, 100
2, 28080, Note_on_c, 0, 75, 100
2, 28080, Note_on_c, 0, 71, 100
2, 28080, Note_on_c, 0, 68, 100
2, 28080, Note_on_c, 0, 63, 100
2, 28080, Note_on_c, 0, 56, 100
2, 28140, Note_on_c, 0, 56, 0
2, 28140, Note_on_c, 0, 75, 0
2, 28140, Note_on_c, 0, 71, 0
2, 28140, Note_on_c, 0, 80, 0
2, 28140, Note_on_c, 0, 63, 0
2, 28140, Note_on_c, 0, 68, 0
2, 28140, Note_on_c, 0, 80, 100
2, 28140, Note_on_c, 0, 75, 100
2, 28140, Note_on_c, 0, 71, 100
2, 28140, Note_on_c, 0, 68, 100
2, 28140, Note_on_c, 0, 63, 100
2, 28140, Note_on_c, 0, 56, 100
2, 28200, Note_on_c, 0, 80, 100
2, 28200, Note_on_c, 0, 75, 100
2, 28200, Note_on_c, 0, 71, 100
2, 28200, Note_on_c, 0, 68, 100
2, 28200, Note_on_c, 0, 63, 100
2, 28200, Note_on_c, 0, 56, 100
2, 28260, Note_on_c, 0, 56, 0
2, 28260, Note_on_c, 0, 75, 0
2, 28260, Note_on_c, 0, 75, 0
2, 28260, Note_on_c, 0, 71, 0
2, 28260, Note_on_c, 0, 68, 0
2, 28260, Note_on_c, 0, 80, 0
2, 28260, Note_on_c, 0, 63, 0
2, 28260, Note_on_c, 0, 56, 0
2, 28260, Note_on_c, 0, 71, 0
2, 28260, Note_on_c, 0, 80, 0
2, 28260, Note_on_c, 0, 63, 0
2, 28260, Note_on_c, 0, 68, 0
2, 28260, Note_on_c, 0, 79, 100
2, 28260, Note_on_c, 0, 74, 100
2, 28260, Note_on_c, 0, 71, 100
2, 28260, Note_on_c, 0, 67, 100
2, 28260, Note_on_c, 0, 62, 100
2, 28260, Note_on_c, 0, 55, 100
2, 28380, Note_on_c, 0, 55, 0
2, 28380, Note_on_c, 0, 74, 0
2, 28380, Note_on_c, 0, 71, 0
2, 28380, Note_on_c, 0, 79, 0
2, 28380, Note_on_c, 0, 62, 0
2, 28380, Note_on_c, 0, 67, 0
2, 28380, Note_on_c, 0, 79, 100
2, 28380, Note_on_c, 0, 74, 100
2, 28380, Note_on_c, 0, 71, 100
2, 28380, Note_on_c, 0, 67, 100
2, 28380, Note_on_c, 0, 62, 100
2, 28380, Note_on_c, 0, 55, 100
2, 28440, Note_on_c, 0, 55, 0
2, 28440, Note_on_c, 0, 74, 0
2, 28440, Note_on_c, 0, 71, 0
2, 28440, Note_on_c, 0, 79, 0
2, 28440, Note_on_c, 0, 62, 0
2, 28440, Note_on_c, 0, 67, 0
2, 28500, Note_on_c, 0, 79, 100
2, 28500, Note_on_c, 0, 74, 100
2, 28500, Note_on_c, 0, 71, 100
2, 28500, Note_on_c, 0, 67, 100
2, 28500, Note_on_c, 0, 62, 100
2, 28500, Note_on_c, 0, 55, 100
2, 28560, Note_on_c, 0, 55, 0
2, 28560, Note_on_c, 0, 74, 0
2, 28560, Note_on_c, 0, 71, 0
2, 28560, Note_on_c, 0, 79, 0
2, 28560, Note_on_c, 0, 62, 0
2, 28560, Note_on_c, 0, 67, 0
2, 28560, Note_on_c, 0, 79, 100
2, 28560, Note_on_c, 0, 74, 100
2, 28560, Note_on_c, 0, 71, 100
2, 28560, Note_on_c, 0, 67, 100
2, 28560, Note_on_c, 0, 62, 100
2, 28560, Note_on_c, 0, 55, 100
2, 28620, Note_on_c, 0, 55, 0
2, 28620, Note_on_c, 0, 74, 0
2, 28620, Note_on_c, 0, 71, 0
2, 28620, Note_on_c, 0, 79, 0
2, 28620, Note_on_c, 0, 62, 0
2, 28620, Note_on_c, 0, 67, 0
2, 28620, Note_on_c, 0, 79, 100
2, 28620, Note_on_c, 0, 74, 100
2, 28620, Note_on_c, 0, 71, 100
2, 28620, Note_on_c, 0, 67, 100
2, 28620, Note_on_c, 0, 62, 100
2, 28620, Note_on_c, 0, 55, 100
2, 28740, Note_on_c, 0, 55, 0
2, 28740, Note_on_c, 0, 74, 0
2, 28740, Note_on_c, 0, 71, 0
2, 28740, Note_on_c, 0, 79, 0
2, 28740, Note_on_c, 0, 62, 0
2, 28740, Note_on_c, 0, 67, 0
2, 28740, Note_on_c, 0, 79, 100
2, 28740, Note_on_c, 0, 74, 100
2, 28740, Note_on_c, 0, 71, 100
2, 28740, Note_on_c, 0, 67, 100
2, 28740, Note_on_c, 0, 62, 100
2, 28740, Note_on_c, 0, 55, 100
2, 28800, Note_on_c, 0, 55, 0
2, 28800, Note_on_c, 0, 74, 0
2, 28800, Note_on_c, 0, 71, 0
2, 28800, Note_on_c, 0, 79, 0
2, 28800, Note_on_c, 0, 62, 0
2, 28800, Note_on_c, 0, 67, 0
2, 28800, Note_on_c, 0, 77, 100
2, 28800, Note_on_c, 0, 72, 100
2, 28800, Note_on_c, 0, 69, 100
2, 28800, Note_on_c, 0, 65, 100
2, 28800, Note_on_c, 0, 60, 100
2, 28800, Note_on_c, 0, 53, 100
2, 28920, Note_on_c, 0, 53, 0
2, 28920, Note_on_c, 0, 72, 0
2, 28920, Note_on_c, 0, 69, 0
2, 28920, Note_on_c, 0, 77, 0
2, 28920, Note_on_c, 0, 60, 0
2, 28920, Note_on_c, 0, 65, 0
2, 28920, Note_on_c, 0, 77, 100
2, 28920, Note_on_c, 0, 72, 100
2, 28920, Note_on_c, 0, 69, 100
2, 28920, Note_on_c, 0, 65, 100
2, 28920, Note_on_c, 0, 60, 100
2, 28920, Note_on_c, 0, 53, 100
2, 28980, Note_on_c, 0, 77, 100
2, 28980, Note_on_c, 0, 72, 100
2, 28980, Note_on_c, 0, 69, 100
2, 28980, Note_on_c, 0, 65, 100
2, 28980, Note_on_c, 0, 60, 100
2, 28980, Note_on_c, 0, 53, 100
2, 28990, Control_c, 0, 7, 118
2, 29000, Control_c, 0, 7, 119
2, 29010, Control_c, 0, 7, 120
2, 29015, Control_c, 0, 7, 121
2, 29020, Control_c, 0, 7, 122
2, 29040, Note_on_c, 0, 53, 0
2, 29040, Note_on_c, 0, 72, 0
2, 29040, Note_on_c, 0, 72, 0
2, 29040, Note_on_c, 0, 69, 0
2, 29040, Note_on_c, 0, 65, 0
2, 29040, Note_on_c, 0, 77, 0
2, 29040, Note_on_c, 0, 60, 0
2, 29040, Note_on_c, 0, 53, 0
2, 29040, Note_on_c, 0, 69, 0
2, 29040, Note_on_c, 0, 77, 0
2, 29040, Note_on_c, 0, 60, 0
2, 29040, Note_on_c, 0, 65, 0
2, 29040, Note_on_c, 0, 76, 100
2, 29040, Note_on_c, 0, 72, 100
2, 29040, Note_on_c, 0, 67, 100
2, 29040, Note_on_c, 0, 60, 100
2, 29040, Note_on_c, 0, 55, 100
2, 29160, Note_on_c, 0, 55, 0
2, 29160, Note_on_c, 0, 67, 0
2, 29160, Note_on_c, 0, 76, 0
2, 29160, Note_on_c, 0, 72, 0
2, 29160, Note_on_c, 0, 60, 0
2, 29160, Note_on_c, 0, 76, 100
2, 29160, Note_on_c, 0, 72, 100
2, 29160, Note_on_c, 0, 67, 100
2, 29160, Note_on_c, 0, 60, 100
2, 29160, Note_on_c, 0, 55, 100
2, 29280, Note_on_c, 0, 55, 0
2, 29280, Note_on_c, 0, 67, 0
2, 29280, Note_on_c, 0, 76, 0
2, 29280, Note_on_c, 0, 72, 0
2, 29280, Note_on_c, 0, 60, 0
2, 29280, Note_on_c, 0, 74, 100
2, 29280, Note_on_c, 0, 78, 100
2, 29280, Note_on_c, 0, 66, 100
2, 29280, Note_on_c, 0, 62, 100
2, 29280, Note_on_c, 0, 57, 100
2, 29400, Note_on_c, 0, 57, 0
2, 29400, Note_on_c, 0, 66, 0
2, 29400, Note_on_c, 0, 74, 0
2, 29400, Note_on_c, 0, 78, 0
2, 29400, Note_on_c, 0, 62, 0
2, 29400, Note_on_c, 0, 78, 100
2, 29400, Note_on_c, 0, 74, 100
2, 29400, Note_on_c, 0, 66, 100
2, 29400, Note_on_c, 0, 62, 100
2, 29400, Note_on_c, 0, 57, 100
2, 29520, Note_on_c, 0, 57, 0
2, 29520, Note_on_c, 0, 66, 0
2, 29520, Note_on_c, 0, 78, 0
2, 29520, Note_on_c, 0, 74, 0
2, 29520, Note_on_c, 0, 62, 0
2, 29520, Note_on_c, 0, 78, 100
2, 29520, Note_on_c, 0, 74, 100
2, 29520, Note_on_c, 0, 66, 100
2, 29520, Note_on_c, 0, 62, 100
2, 29520, Note_on_c, 0, 57, 100
2, 29580, Note_on_c, 0, 57, 0
2, 29580, Note_on_c, 0, 66, 0
2, 29580, Note_on_c, 0, 78, 0
2, 29580, Note_on_c, 0, 74, 0
2, 29580, Note_on_c, 0, 62, 0
2, 29580, Note_on_c, 0, 78, 100
2, 29580, Note_on_c, 0, 74, 100
2, 29580, Note_on_c, 0, 66, 100
2, 29580, Note_on_c, 0, 62, 100
2, 29580, Note_on_c, 0, 57, 100
2, 29640, Note_on_c, 0, 57, 0
2, 29640, Note_on_c, 0, 66, 0
2, 29640, Note_on_c, 0, 78, 0
2, 29640, Note_on_c, 0, 74, 0
2, 29640, Note_on_c, 0, 62, 0
2, 29700, Note_on_c, 0, 78, 100
2, 29700, Note_on_c, 0, 74, 100
2, 29700, Note_on_c, 0, 66, 100
2, 29700, Note_on_c, 0, 62, 100
2, 29700, Note_on_c, 0, 57, 100
2, 29760, Note_on_c, 0, 57, 0
2, 29760, Note_on_c, 0, 66, 0
2, 29760, Note_on_c, 0, 78, 0
2, 29760, Note_on_c, 0, 74, 0
2, 29760, Note_on_c, 0, 62, 0
2, 29760, Note_on_c, 0, 77, 100
2, 29760, Note_on_c, 0, 72, 100
2, 29760, Note_on_c, 0, 69, 100
2, 29760, Note_on_c, 0, 65, 100
2, 29760, Note_on_c, 0, 60, 100
2, 29760, Note_on_c, 0, 53, 100
2, 29880, Note_on_c, 0, 53, 0
2, 29880, Note_on_c, 0, 72, 0
2, 29880, Note_on_c, 0, 69, 0
2, 29880, Note_on_c, 0, 77, 0
2, 29880, Note_on_c, 0, 60, 0
2, 29880, Note_on_c, 0, 65, 0
2, 29880, Note_on_c, 0, 77, 100
2, 29880, Note_on_c, 0, 72, 100
2, 29880, Note_on_c, 0, 69, 100
2, 29880, Note_on_c, 0, 65, 100
2, 29880, Note_on_c, 0, 60, 100
2, 29880, Note_on_c, 0, 53, 100
2, 30000, Note_on_c, 0, 53, 0
2, 30000, Note_on_c, 0, 72, 0
2, 30000, Note_on_c, 0, 69, 0
2, 30000, Note_on_c, 0, 77, 0
2, 30000, Note_on_c, 0, 60, 0
2, 30000, Note_on_c, 0, 65, 0
2, 30000, Note_on_c, 0, 77, 100
2, 30000, Note_on_c, 0, 72, 100
2, 30000, Note_on_c, 0, 69, 100
2, 30000, Note_on_c, 0, 65, 100
2, 30000, Note_on_c, 0, 60, 100
2, 30000, Note_on_c, 0, 53, 100
2, 30060, Note_on_c, 0, 53, 0
2, 30060, Note_on_c, 0, 72, 0
2, 30060, Note_on_c, 0, 69, 0
2, 30060, Note_on_c, 0, 77, 0
2, 30060, Note_on_c, 0, 60, 0
2, 30060, Note_on_c, 0, 65, 0
2, 30060, Note_on_c, 0, 77, 100
2, 30060, Note_on_c, 0, 72, 100
2, 30060, Note_on_c, 0, 69, 100
2, 30060, Note_on_c, 0, 65, 100
2, 30060, Note_on_c, 0, 60, 100
2, 30060, Note_on_c, 0, 53, 100
2, 30180, Note_on_c, 0, 53, 0
2, 30180, Note_on_c, 0, 72, 0
2, 30180, Note_on_c, 0, 69, 0
2, 30180, Note_on_c, 0, 77, 0
2, 30180, Note_on_c, 0, 60, 0
2, 30180, Note_on_c, 0, 65, 0
2, 30180, Note_on_c, 0, 77, 100
2, 30180, Note_on_c, 0, 72, 100
2, 30180, Note_on_c, 0, 69, 100
2, 30180, Note_on_c, 0, 65, 100
2, 30180, Note_on_c, 0, 60, 100
2, 30180, Note_on_c, 0, 53, 100
2, 30240, Note_on_c, 0, 53, 0
2, 30240, Note_on_c, 0, 72, 0
2, 30240, Note_on_c, 0, 69, 0
2, 30240, Note_on_c, 0, 77, 0
2, 30240, Note_on_c, 0, 60, 0
2, 30240, Note_on_c, 0, 65, 0
2, 30240, Note_on_c, 0, 59, 100
2, 30240, Note_on_c, 0, 71, 100
2, 30240, Note_on_c, 0, 67, 100
2, 30240, Note_on_c, 0, 79, 100
2, 30240, Note_on_c, 0, 62, 100
2, 30240, Note_on_c, 0, 55, 100
2, 30360, Note_on_c, 0, 55, 0
2, 30360, Note_on_c, 0, 71, 0
2, 30360, Note_on_c, 0, 67, 0
2, 30360, Note_on_c, 0, 59, 0
2, 30360, Note_on_c, 0, 62, 0
2, 30360, Note_on_c, 0, 79, 0
2, 30360, Note_on_c, 0, 79, 100
2, 30360, Note_on_c, 0, 71, 100
2, 30360, Note_on_c, 0, 67, 100
2, 30360, Note_on_c, 0, 62, 100
2, 30360, Note_on_c, 0, 59, 100
2, 30360, Note_on_c, 0, 55, 100
2, 30480, Note_on_c, 0, 55, 0
2, 30480, Note_on_c, 0, 71, 0
2, 30480, Note_on_c, 0, 67, 0
2, 30480, Note_on_c, 0, 79, 0
2, 30480, Note_on_c, 0, 59, 0
2, 30480, Note_on_c, 0, 62, 0
2, 30480, Note_on_c, 0, 79, 100
2, 30480, Note_on_c, 0, 71, 100
2, 30480, Note_on_c, 0, 67, 100
2, 30480, Note_on_c, 0, 62, 100
2, 30480, Note_on_c, 0, 59, 100
2, 30480, Note_on_c, 0, 55, 100
2, 30540, Note_on_c, 0, 55, 0
2, 30540, Note_on_c, 0, 71, 0
2, 30540, Note_on_c, 0, 67, 0
2, 30540, Note_on_c, 0, 79, 0
2, 30540, Note_on_c, 0, 59, 0
2, 30540, Note_on_c, 0, 62, 0
2, 30540, Note_on_c, 0, 79, 100
2, 30540, Note_on_c, 0, 71, 100
2, 30540, Note_on_c, 0, 67, 100
2, 30540, Note_on_c, 0, 62, 100
2, 30540, Note_on_c, 0, 59, 100
2, 30540, Note_on_c, 0, 55, 100
2, 30600, Note_on_c, 0, 55, 0
2, 30600, Note_on_c, 0, 71, 0
2, 30600, Note_on_c, 0, 67, 0
2, 30600, Note_on_c, 0, 79, 0
2, 30600, Note_on_c, 0, 59, 0
2, 30600, Note_on_c, 0, 62, 0
2, 30600, Note_on_c, 0, 79, 100
2, 30600, Note_on_c, 0, 71, 100
2, 30600, Note_on_c, 0, 67, 100
2, 30600, Note_on_c, 0, 62, 100
2, 30600, Note_on_c, 0, 59, 100
2, 30600, Note_on_c, 0, 55, 100
2, 30660, Note_on_c, 0, 79, 100
2, 30660, Note_on_c, 0, 71, 100
2, 30660, Note_on_c, 0, 67, 100
2, 30660, Note_on_c, 0, 62, 100
2, 30660, Note_on_c, 0, 59, 100
2, 30660, Note_on_c, 0, 55, 100
2, 30720, Note_on_c, 0, 55, 0
2, 30720, Note_on_c, 0, 71, 0
2, 30720, Note_on_c, 0, 71, 0
2, 30720, Note_on_c, 0, 67, 0
2, 30720, Note_on_c, 0, 62, 0
2, 30720, Note_on_c, 0, 79, 0
2, 30720, Note_on_c, 0, 59, 0
2, 30720, Note_on_c, 0, 55, 0
2, 30720, Note_on_c, 0, 67, 0
2, 30720, Note_on_c, 0, 79, 0
2, 30720, Note_on_c, 0, 59, 0
2, 30720, Note_on_c, 0, 62, 0
2, 30720, Note_on_c, 0, 79, 100
2, 30720, Note_on_c, 0, 72, 100
2, 30720, Note_on_c, 0, 67, 100
2, 30720, Note_on_c, 0, 60, 100
2, 30720, Note_on_c, 0, 57, 100
2, 30840, Note_on_c, 0, 57, 0
2, 30840, Note_on_c, 0, 67, 0
2, 30840, Note_on_c, 0, 79, 0
2, 30840, Note_on_c, 0, 72, 0
2, 30840, Note_on_c, 0, 60, 0
2, 30840, Note_on_c, 0, 79, 100
2, 30840, Note_on_c, 0, 72, 100
2, 30840, Note_on_c, 0, 67, 100
2, 30840, Note_on_c, 0, 60, 100
2, 30840, Note_on_c, 0, 57, 100
2, 30930, Note_on_c, 0, 79, 100
2, 30930, Note_on_c, 0, 72, 100
2, 30930, Note_on_c, 0, 67, 100
2, 30930, Note_on_c, 0, 60, 100
2, 30930, Note_on_c, 0, 57, 100
2, 30960, Note_on_c, 0, 57, 0
2, 30960, Note_on_c, 0, 67, 0
2, 30960, Note_on_c, 0, 60, 0
2, 30960, Note_on_c, 0, 79, 0
2, 30960, Note_on_c, 0, 57, 0
2, 30960, Note_on_c, 0, 72, 0
2, 30960, Note_on_c, 0, 67, 0
2, 30960, Note_on_c, 0, 72, 0
2, 30960, Note_on_c, 0, 79, 0
2, 30960, Note_on_c, 0, 60, 0
2, 30960, Note_on_c, 0, 79, 100
2, 30960, Note_on_c, 0, 72, 100
2, 30960, Note_on_c, 0, 67, 100
2, 30960, Note_on_c, 0, 60, 100
2, 30960, Note_on_c, 0, 57, 100
2, 30985, Control_c, 0, 7, 121
2, 30995, Control_c, 0, 7, 120
2, 31000, Control_c, 0, 7, 119
2, 31010, Control_c, 0, 7, 118
2, 31020, Note_on_c, 0, 57, 0
2, 31020, Note_on_c, 0, 67, 0
2, 31020, Note_on_c, 0, 79, 0
2, 31020, Note_on_c, 0, 72, 0
2, 31020, Note_on_c, 0, 60, 0
2, 31020, Control_c, 0, 7, 117
2, 31020, Note_on_c, 0, 79, 100
2, 31020, Note_on_c, 0, 72, 100
2, 31020, Note_on_c, 0, 67, 100
2, 31020, Note_on_c, 0, 60, 100
2, 31020, Note_on_c, 0, 57, 100
2, 31060, Control_c, 0, 7, 116
2, 31070, Control_c, 0, 7, 115
2, 31140, Note_on_c, 0, 57, 0
2, 31140, Note_on_c, 0, 67, 0
2, 31140, Note_on_c, 0, 79, 0
2, 31140, Note_on_c, 0, 72, 0
2, 31140, Note_on_c, 0, 60, 0
2, 31140, Note_on_c, 0, 79, 100
2, 31140, Note_on_c, 0, 72, 100
2, 31140, Note_on_c, 0, 60, 100
2, 31140, Note_on_c, 0, 67, 100
2, 31140, Note_on_c, 0, 57, 100
2, 31200, Note_on_c, 0, 57, 0
2, 31200, Note_on_c, 0, 60, 0
2, 31200, Note_on_c, 0, 79, 0
2, 31200, Note_on_c, 0, 72, 0
2, 31200, Note_on_c, 0, 67, 0
2, 31200, Note_on_c, 0, 79, 100
2, 31200, Note_on_c, 0, 74, 100
2, 31200, Note_on_c, 0, 67, 100
2, 31200, Note_on_c, 0, 62, 100
2, 31200, Note_on_c, 0, 59, 100
2, 31200, Note_on_c, 0, 55, 100
2, 31260, Note_on_c, 0, 79, 100
2, 31260, Note_on_c, 0, 74, 100
2, 31260, Note_on_c, 0, 67, 100
2, 31260, Note_on_c, 0, 62, 100
2, 31260, Note_on_c, 0, 59, 100
2, 31260, Note_on_c, 0, 55, 100
2, 31320, Note_on_c, 0, 55, 0
2, 31320, Note_on_c, 0, 74, 0
2, 31320, Note_on_c, 0, 74, 0
2, 31320, Note_on_c, 0, 67, 0
2, 31320, Note_on_c, 0, 62, 0
2, 31320, Note_on_c, 0, 79, 0
2, 31320, Note_on_c, 0, 59, 0
2, 31320, Note_on_c, 0, 55, 0
2, 31320, Note_on_c, 0, 67, 0
2, 31320, Note_on_c, 0, 79, 0
2, 31320, Note_on_c, 0, 59, 0
2, 31320, Note_on_c, 0, 62, 0
2, 31320, Note_on_c, 0, 74, 100
2, 31320, Note_on_c, 0, 79, 100
2, 31320, Note_on_c, 0, 67, 100
2, 31320, Note_on_c, 0, 62, 100
2, 31320, Note_on_c, 0, 59, 100
2, 31320, Note_on_c, 0, 55, 100
2, 31380, Note_on_c, 0, 55, 0
2, 31380, Note_on_c, 0, 79, 0
2, 31380, Note_on_c, 0, 67, 0
2, 31380, Note_on_c, 0, 74, 0
2, 31380, Note_on_c, 0, 59, 0
2, 31380, Note_on_c, 0, 62, 0
2, 31380, Note_on_c, 0, 74, 100
2, 31380, Note_on_c, 0, 79, 100
2, 31380, Note_on_c, 0, 67, 100
2, 31380, Note_on_c, 0, 62, 100
2, 31380, Note_on_c, 0, 55, 100
2, 31380, Note_on_c, 0, 59, 100
2, 31440, Note_on_c, 0, 59, 0
2, 31440, Note_on_c, 0, 79, 0
2, 31440, Note_on_c, 0, 67, 0
2, 31440, Note_on_c, 0, 74, 0
2, 31440, Note_on_c, 0, 55, 0
2, 31440, Note_on_c, 0, 62, 0
2, 31440, Note_on_c, 0, 57, 100
2, 31440, Note_on_c, 0, 62, 100
2, 31440, Note_on_c, 0, 69, 100
2, 31440, Note_on_c, 0, 74, 100
2, 31440, Note_on_c, 0, 78, 100
2, 31500, Note_on_c, 0, 78, 0
2, 31500, Note_on_c, 0, 69, 0
2, 31500, Note_on_c, 0, 57, 0
2, 31500, Note_on_c, 0, 62, 0
2, 31500, Note_on_c, 0, 74, 0
2, 31500, Note_on_c, 0, 57, 100
2, 31500, Note_on_c, 0, 62, 100
2, 31500, Note_on_c, 0, 69, 100
2, 31500, Note_on_c, 0, 74, 100
2, 31500, Note_on_c, 0, 78, 100
2, 31560, Note_on_c, 0, 78, 0
2, 31560, Note_on_c, 0, 69, 0
2, 31560, Note_on_c, 0, 57, 0
2, 31560, Note_on_c, 0, 62, 0
2, 31560, Note_on_c, 0, 74, 0
2, 31560, Note_on_c, 0, 57, 100
2, 31560, Note_on_c, 0, 62, 100
2, 31560, Note_on_c, 0, 69, 100
2, 31560, Note_on_c, 0, 74, 100
2, 31560, Note_on_c, 0, 78, 100
2, 31620, Note_on_c, 0, 78, 0
2, 31620, Note_on_c, 0, 69, 0
2, 31620, Note_on_c, 0, 57, 0
2, 31620, Note_on_c, 0, 62, 0
2, 31620, Note_on_c, 0, 74, 0
2, 31620, Note_on_c, 0, 57, 100
2, 31620, Note_on_c, 0, 62, 100
2, 31620, Note_on_c, 0, 69, 100
2, 31620, Note_on_c, 0, 74, 100
2, 31620, Note_on_c, 0, 78, 100
2, 31680, Note_on_c, 0, 78, 0
2, 31680, Note_on_c, 0, 69, 0
2, 31680, Note_on_c, 0, 57, 0
2, 31680, Note_on_c, 0, 62, 0
2, 31680, Note_on_c, 0, 74, 0
2, 31680, Note_on_c, 0, 79, 100
2, 31680, Note_on_c, 0, 72, 100
2, 31680, Note_on_c, 0, 67, 100
2, 31680, Note_on_c, 0, 60, 100
2, 31680, Note_on_c, 0, 57, 100
2, 31800, Note_on_c, 0, 57, 0
2, 31800, Note_on_c, 0, 67, 0
2, 31800, Note_on_c, 0, 79, 0
2, 31800, Note_on_c, 0, 72, 0
2, 31800, Note_on_c, 0, 60, 0
2, 31800, Note_on_c, 0, 79, 100
2, 31800, Note_on_c, 0, 72, 100
2, 31800, Note_on_c, 0, 67, 100
2, 31800, Note_on_c, 0, 60, 100
2, 31800, Note_on_c, 0, 57, 100
2, 31890, Note_on_c, 0, 79, 100
2, 31890, Note_on_c, 0, 72, 100
2, 31890, Note_on_c, 0, 67, 100
2, 31890, Note_on_c, 0, 60, 100
2, 31890, Note_on_c, 0, 57, 100
2, 31920, Note_on_c, 0, 57, 0
2, 31920, Note_on_c, 0, 67, 0
2, 31920, Note_on_c, 0, 60, 0
2, 31920, Note_on_c, 0, 79, 0
2, 31920, Note_on_c, 0, 57, 0
2, 31920, Note_on_c, 0, 72, 0
2, 31920, Note_on_c, 0, 67, 0
2, 31920, Note_on_c, 0, 72, 0
2, 31920, Note_on_c, 0, 79, 0
2, 31920, Note_on_c, 0, 60, 0
2, 31920, Note_on_c, 0, 79, 100
2, 31920, Note_on_c, 0, 72, 100
2, 31920, Note_on_c, 0, 67, 100
2, 31920, Note_on_c, 0, 60, 100
2, 31920, Note_on_c, 0, 57, 100
2, 31980, Note_on_c, 0, 57, 0
2, 31980, Note_on_c, 0, 67, 0
2, 31980, Note_on_c, 0, 79, 0
2, 31980, Note_on_c, 0, 72, 0
2, 31980, Note_on_c, 0, 60, 0
2, 31980, Note_on_c, 0, 79, 100
2, 31980, Note_on_c, 0, 72, 100
2, 31980, Note_on_c, 0, 67, 100
2, 31980, Note_on_c, 0, 60, 100
2, 31980, Note_on_c, 0, 57, 100
2, 32100, Note_on_c, 0, 57, 0
2, 32100, Note_on_c, 0, 67, 0
2, 32100, Note_on_c, 0, 79, 0
2, 32100, Note_on_c, 0, 72, 0
2, 32100, Note_on_c, 0, 60, 0
2, 32100, Note_on_c, 0, 79, 100
2, 32100, Note_on_c, 0, 72, 100
2, 32100, Note_on_c, 0, 60, 100
2, 32100, Note_on_c, 0, 67, 100
2, 32100, Note_on_c, 0, 57, 100
2, 32160, Note_on_c, 0, 57, 0
2, 32160, Note_on_c, 0, 60, 0
2, 32160, Note_on_c, 0, 79, 0
2, 32160, Note_on_c, 0, 72, 0
2, 32160, Note_on_c, 0, 67, 0
2, 32160, Note_on_c, 0, 79, 100
2, 32160, Note_on_c, 0, 74, 100
2, 32160, Note_on_c, 0, 67, 100
2, 32160, Note_on_c, 0, 62, 100
2, 32160, Note_on_c, 0, 59, 100
2, 32160, Note_on_c, 0, 55, 100
2, 32220, Note_on_c, 0, 79, 100
2, 32220, Note_on_c, 0, 74, 100
2, 32220, Note_on_c, 0, 67, 100
2, 32220, Note_on_c, 0, 62, 100
2, 32220, Note_on_c, 0, 59, 100
2, 32220, Note_on_c, 0, 55, 100
2, 32280, Note_on_c, 0, 55, 0
2, 32280, Note_on_c, 0, 74, 0
2, 32280, Note_on_c, 0, 74, 0
2, 32280, Note_on_c, 0, 67, 0
2, 32280, Note_on_c, 0, 62, 0
2, 32280, Note_on_c, 0, 79, 0
2, 32280, Note_on_c, 0, 59, 0
2, 32280, Note_on_c, 0, 55, 0
2, 32280, Note_on_c, 0, 67, 0
2, 32280, Note_on_c, 0, 79, 0
2, 32280, Note_on_c, 0, 59, 0
2, 32280, Note_on_c, 0, 62, 0
2, 32280, Note_on_c, 0, 74, 100
2, 32280, Note_on_c, 0, 79, 100
2, 32280, Note_on_c, 0, 67, 100
2, 32280, Note_on_c, 0, 62, 100
2, 32280, Note_on_c, 0, 59, 100
2, 32280, Note_on_c, 0, 55, 100
2, 32340, Note_on_c, 0, 55, 0
2, 32340, Note_on_c, 0, 79, 0
2, 32340, Note_on_c, 0, 67, 0
2, 32340, Note_on_c, 0, 74, 0
2, 32340, Note_on_c, 0, 59, 0
2, 32340, Note_on_c, 0, 62, 0
2, 32340, Note_on_c, 0, 74, 100
2, 32340, Note_on_c, 0, 79, 100
2, 32340, Note_on_c, 0, 67, 100
2, 32340, Note_on_c, 0, 62, 100
2, 32340, Note_on_c, 0, 55, 100
2, 32340, Note_on_c, 0, 59, 100
2, 32400, Note_on_c, 0, 59, 0
2, 32400, Note_on_c, 0, 79, 0
2, 32400, Note_on_c, 0, 67, 0
2, 32400, Note_on_c, 0, 74, 0
2, 32400, Note_on_c, 0, 55, 0
2, 32400, Note_on_c, 0, 62, 0
2, 32400, Note_on_c, 0, 57, 100
2, 32400, Note_on_c, 0, 62, 100
2, 32400, Note_on_c, 0, 69, 100
2, 32400, Note_on_c, 0, 74, 100
2, 32400, Note_on_c, 0, 78, 100
2, 32460, Note_on_c, 0, 78, 0
2, 32460, Note_on_c, 0, 69, 0
2, 32460, Note_on_c, 0, 57, 0
2, 32460, Note_on_c, 0, 62, 0
2, 32460, Note_on_c, 0, 74, 0
2, 32460, Note_on_c, 0, 57, 100
2, 32460, Note_on_c, 0, 62, 100
2, 32460, Note_on_c, 0, 69, 100
2, 32460, Note_on_c, 0, 74, 100
2, 32460, Note_on_c, 0, 78, 100
2, 32520, Note_on_c, 0, 78, 0
2, 32520, Note_on_c, 0, 69, 0
2, 32520, Note_on_c, 0, 57, 0
2, 32520, Note_on_c, 0, 62, 0
2, 32520, Note_on_c, 0, 74, 0
2, 32520, Note_on_c, 0, 57, 100
2, 32520, Note_on_c, 0, 62, 100
2, 32520, Note_on_c, 0, 69, 100
2, 32520, Note_on_c, 0, 74, 100
2, 32520, Note_on_c, 0, 78, 100
2, 32580, Note_on_c, 0, 78, 0
2, 32580, Note_on_c, 0, 69, 0
2, 32580, Note_on_c, 0, 57, 0
2, 32580, Note_on_c, 0, 62, 0
2, 32580, Note_on_c, 0, 74, 0
2, 32580, Note_on_c, 0, 57, 100
2, 32580, Note_on_c, 0, 62, 100
2, 32580, Note_on_c, 0, 69, 100
2, 32580, Note_on_c, 0, 74, 100
2, 32580, Note_on_c, 0, 78, 100
2, 32640, Note_on_c, 0, 78, 0
2, 32640, Note_on_c, 0, 69, 0
2, 32640, Note_on_c, 0, 57, 0
2, 32640, Note_on_c, 0, 62, 0
2, 32640, Note_on_c, 0, 74, 0
2, 32640, Note_on_c, 0, 79, 100
2, 32640, Note_on_c, 0, 72, 100
2, 32640, Note_on_c, 0, 67, 100
2, 32640, Note_on_c, 0, 60, 100
2, 32640, Note_on_c, 0, 57, 100
2, 32760, Note_on_c, 0, 57, 0
2, 32760, Note_on_c, 0, 67, 0
2, 32760, Note_on_c, 0, 79, 0
2, 32760, Note_on_c, 0, 72, 0
2, 32760, Note_on_c, 0, 60, 0
2, 32760, Note_on_c, 0, 79, 100
2, 32760, Note_on_c, 0, 72, 100
2, 32760, Note_on_c, 0, 67, 100
2, 32760, Note_on_c, 0, 60, 100
2, 32760, Note_on_c, 0, 57, 100
2, 32850, Note_on_c, 0, 79, 100
2, 32850, Note_on_c, 0, 72, 100
2, 32850, Note_on_c, 0, 67, 100
2, 32850, Note_on_c, 0, 60, 100
2, 32850, Note_on_c, 0, 57, 100
2, 32880, Note_on_c, 0, 57, 0
2, 32880, Note_on_c, 0, 67, 0
2, 32880, Note_on_c, 0, 60, 0
2, 32880, Note_on_c, 0, 79, 0
2, 32880, Note_on_c, 0, 57, 0
2, 32880, Note_on_c, 0, 72, 0
2, 32880, Note_on_c, 0, 67, 0
2, 32880, Note_on_c, 0, 72, 0
2, 32880, Note_on_c, 0, 79, 0
2, 32880, Note_on_c, 0, 60, 0
2, 32880, Note_on_c, 0, 79, 100
2, 32880, Note_on_c, 0, 72, 100
2, 32880, Note_on_c, 0, 67, 100
2, 32880, Note_on_c, 0, 60, 100
2, 32880, Note_on_c, 0, 57, 100
2, 32940, Note_on_c, 0, 57, 0
2, 32940, Note_on_c, 0, 67, 0
2, 32940, Note_on_c, 0, 79, 0
2, 32940, Note_on_c, 0, 72, 0
2, 32940, Note_on_c, 0, 60, 0
2, 32940, Note_on_c, 0, 79, 100
2, 32940, Note_on_c, 0, 72, 100
2, 32940, Note_on_c, 0, 67, 100
2, 32940, Note_on_c, 0, 60, 100
2, 32940, Note_on_c, 0, 57, 100
2, 33060, Note_on_c, 0, 57, 0
2, 33060, Note_on_c, 0, 67, 0
2, 33060, Note_on_c, 0, 79, 0
2, 33060, Note_on_c, 0, 72, 0
2, 33060, Note_on_c, 0, 60, 0
2, 33060, Note_on_c, 0, 79, 100
2, 33060, Note_on_c, 0, 72, 100
2, 33060, Note_on_c, 0, 60, 100
2, 33060, Note_on_c, 0, 67, 100
2, 33060, Note_on_c, 0, 57, 100
2, 33120, Note_on_c, 0, 57, 0
2, 33120, Note_on_c, 0, 60, 0
2, 33120, Note_on_c, 0, 79, 0
2, 33120, Note_on_c, 0, 72, 0
2, 33120, Note_on_c, 0, 67, 0
2, 33120, Note_on_c, 0, 79, 100
2, 33120, Note_on_c, 0, 74, 100
2, 33120, Note_on_c, 0, 67, 100
2, 33120, Note_on_c, 0, 62, 100
2, 33120, Note_on_c, 0, 59, 100
2, 33120, Note_on_c, 0, 55, 100
2, 33180, Note_on_c, 0, 79, 100
2, 33180, Note_on_c, 0, 74, 100
2, 33180, Note_on_c, 0, 67, 100
2, 33180, Note_on_c, 0, 62, 100
2, 33180, Note_on_c, 0, 59, 100
2, 33180, Note_on_c, 0, 55, 100
2, 33240, Note_on_c, 0, 55, 0
2, 33240, Note_on_c, 0, 74, 0
2, 33240, Note_on_c, 0, 74, 0
2, 33240, Note_on_c, 0, 67, 0
2, 33240, Note_on_c, 0, 62, 0
2, 33240, Note_on_c, 0, 79, 0
2, 33240, Note_on_c, 0, 59, 0
2, 33240, Note_on_c, 0, 55, 0
2, 33240, Note_on_c, 0, 67, 0
2, 33240, Note_on_c, 0, 79, 0
2, 33240, Note_on_c, 0, 59, 0
2, 33240, Note_on_c, 0, 62, 0
2, 33240, Note_on_c, 0, 74, 100
2, 33240, Note_on_c, 0, 79, 100
2, 33240, Note_on_c, 0, 67, 100
2, 33240, Note_on_c, 0, 62, 100
2, 33240, Note_on_c, 0, 59, 100
2, 33240, Note_on_c, 0, 55, 100
2, 33300, Note_on_c, 0, 55, 0
2, 33300, Note_on_c, 0, 79, 0
2, 33300, Note_on_c, 0, 67, 0
2, 33300, Note_on_c, 0, 74, 0
2, 33300, Note_on_c, 0, 59, 0
2, 33300, Note_on_c, 0, 62, 0
2, 33300, Note_on_c, 0, 74, 100
2, 33300, Note_on_c, 0, 79, 100
2, 33300, Note_on_c, 0, 67, 100
2, 33300, Note_on_c, 0, 62, 100
2, 33300, Note_on_c, 0, 55, 100
2, 33300, Note_on_c, 0, 59, 100
2, 33360, Note_on_c, 0, 59, 0
2, 33360, Note_on_c, 0, 79, 0
2, 33360, Note_on_c, 0, 67, 0
2, 33360, Note_on_c, 0, 74, 0
2, 33360, Note_on_c, 0, 55, 0
2, 33360, Note_on_c, 0, 62, 0
2, 33360, Note_on_c, 0, 57, 100
2, 33360, Note_on_c, 0, 62, 100
2, 33360, Note_on_c, 0, 69, 100
2, 33360, Note_on_c, 0, 74, 100
2, 33360, Note_on_c, 0, 78, 100
2, 33420, Note_on_c, 0, 78, 0
2, 33420, Note_on_c, 0, 69, 0
2, 33420, Note_on_c, 0, 57, 0
2, 33420, Note_on_c, 0, 62, 0
2, 33420, Note_on_c, 0, 74, 0
2, 33420, Note_on_c, 0, 57, 100
2, 33420, Note_on_c, 0, 62, 100
2, 33420, Note_on_c, 0, 69, 100
2, 33420, Note_on_c, 0, 74, 100
2, 33420, Note_on_c, 0, 78, 100
2, 33480, Note_on_c, 0, 78, 0
2, 33480, Note_on_c, 0, 69, 0
2, 33480, Note_on_c, 0, 57, 0
2, 33480, Note_on_c, 0, 62, 0
2, 33480, Note_on_c, 0, 74, 0
2, 33480, Note_on_c, 0, 57, 100
2, 33480, Note_on_c, 0, 62, 100
2, 33480, Note_on_c, 0, 69, 100
2, 33480, Note_on_c, 0, 74, 100
2, 33480, Note_on_c, 0, 78, 100
2, 33540, Note_on_c, 0, 78, 0
2, 33540, Note_on_c, 0, 69, 0
2, 33540, Note_on_c, 0, 57, 0
2, 33540, Note_on_c, 0, 62, 0
2, 33540, Note_on_c, 0, 74, 0
2, 33540, Note_on_c, 0, 57, 100
2, 33540, Note_on_c, 0, 62, 100
2, 33540, Note_on_c, 0, 69, 100
2, 33540, Note_on_c, 0, 74, 100
2, 33540, Note_on_c, 0, 78, 100
2, 33600, Note_on_c, 0, 78, 0
2, 33600, Note_on_c, 0, 69, 0
2, 33600, Note_on_c, 0, 57, 0
2, 33600, Note_on_c, 0, 62, 0
2, 33600, Note_on_c, 0, 74, 0
2, 33600, Note_on_c, 0, 77, 100
2, 33600, Note_on_c, 0, 72, 100
2, 33600, Note_on_c, 0, 69, 100
2, 33600, Note_on_c, 0, 65, 100
2, 33600, Note_on_c, 0, 60, 100
2, 33600, Note_on_c, 0, 53, 100
2, 33720, Note_on_c, 0, 53, 0
2, 33720, Note_on_c, 0, 72, 0
2, 33720, Note_on_c, 0, 69, 0
2, 33720, Note_on_c, 0, 77, 0
2, 33720, Note_on_c, 0, 60, 0
2, 33720, Note_on_c, 0, 65, 0
2, 33900, Note_on_c, 0, 77, 100
2, 33900, Note_on_c, 0, 72, 100
2, 33900, Note_on_c, 0, 69, 100
2, 33900, Note_on_c, 0, 65, 100
2, 33900, Note_on_c, 0, 60, 100
2, 33900, Note_on_c, 0, 53, 100
2, 33926, Control_c, 0, 7, 69
2, 33960, Note_on_c, 0, 53, 0
2, 33960, Note_on_c, 0, 72, 0
2, 33960, Note_on_c, 0, 69, 0
2, 33960, Note_on_c, 0, 77, 0
2, 33960, Note_on_c, 0, 60, 0
2, 33960, Note_on_c, 0, 65, 0
2, 33960, Note_on_c, 0, 77, 100
2, 33960, Note_on_c, 0, 72, 100
2, 33960, Note_on_c, 0, 69, 100
2, 33960, Note_on_c, 0, 65, 100
2, 33960, Note_on_c, 0, 60, 100
2, 33960, Note_on_c, 0, 53, 100
2, 33966, Control_c, 0, 7, 70
2, 34006, Control_c, 0, 7, 71
2, 34020, Note_on_c, 0, 53, 0
2, 34020, Note_on_c, 0, 72, 0
2, 34020, Note_on_c, 0, 69, 0
2, 34020, Note_on_c, 0, 77, 0
2, 34020, Note_on_c, 0, 60, 0
2, 34020, Note_on_c, 0, 65, 0
2, 34020, Note_on_c, 0, 79, 100
2, 34020, Note_on_c, 0, 74, 100
2, 34020, Note_on_c, 0, 67, 100
2, 34020, Note_on_c, 0, 62, 100
2, 34020, Note_on_c, 0, 55, 100
2, 34020, Note_on_c, 0, 59, 100
2, 34043, Control_c, 0, 7, 72
2, 34080, Note_on_c, 0, 59, 0
2, 34080, Note_on_c, 0, 74, 0
2, 34080, Note_on_c, 0, 67, 0
2, 34080, Note_on_c, 0, 79, 0
2, 34080, Note_on_c, 0, 55, 0
2, 34080, Note_on_c, 0, 62, 0
2, 34083, Control_c, 0, 7, 73
2, 34120, Control_c, 0, 7, 74
2, 34140, Note_on_c, 0, 79, 100
2, 34140, Note_on_c, 0, 74, 100
2, 34140, Note_on_c, 0, 67, 100
2, 34140, Note_on_c, 0, 62, 100
2, 34140, Note_on_c, 0, 55, 100
2, 34140, Note_on_c, 0, 59, 100
2, 34160, Control_c, 0, 7, 75
2, 34196, Control_c, 0, 7, 76
2, 34236, Control_c, 0, 7, 77
2, 34260, Note_on_c, 0, 59, 0
2, 34260, Note_on_c, 0, 74, 0
2, 34260, Note_on_c, 0, 67, 0
2, 34260, Note_on_c, 0, 79, 0
2, 34260, Note_on_c, 0, 55, 0
2, 34260, Note_on_c, 0, 62, 0
2, 34260, Note_on_c, 0, 62, 100
2, 34260, Note_on_c, 0, 55, 100
2, 34260, Note_on_c, 0, 79, 100
2, 34260, Note_on_c, 0, 74, 100
2, 34260, Note_on_c, 0, 67, 100
2, 34260, Note_on_c, 0, 59, 100
2, 34273, Control_c, 0, 7, 78
2, 34313, Control_c, 0, 7, 79
2, 34350, Control_c, 0, 7, 80
2, 34380, Note_on_c, 0, 59, 0
2, 34380, Note_on_c, 0, 55, 0
2, 34380, Note_on_c, 0, 79, 0
2, 34380, Note_on_c, 0, 62, 0
2, 34380, Note_on_c, 0, 67, 0
2, 34380, Note_on_c, 0, 74, 0
2, 34380, Note_on_c, 0, 55, 100
2, 34380, Note_on_c, 0, 79, 100
2, 34380, Note_on_c, 0, 74, 100
2, 34380, Note_on_c, 0, 67, 100
2, 34380, Note_on_c, 0, 62, 100
2, 34380, Note_on_c, 0, 59, 100
2, 34390, Control_c, 0, 7, 81
2, 34430, Control_c, 0, 7, 82
2, 34466, Control_c, 0, 7, 83
2, 34500, Note_on_c, 0, 59, 0
2, 34500, Note_on_c, 0, 79, 0
2, 34500, Note_on_c, 0, 74, 0
2, 34500, Note_on_c, 0, 55, 0
2, 34500, Note_on_c, 0, 62, 0
2, 34500, Note_on_c, 0, 67, 0
2, 34500, Note_on_c, 0, 62, 100
2, 34500, Note_on_c, 0, 59, 100
2, 34500, Note_on_c, 0, 55, 100
2, 34500, Note_on_c, 0, 79, 100
2, 34500, Note_on_c, 0, 74, 100
2, 34500, Note_on_c, 0, 67, 100
2, 34506, Control_c, 0, 7, 84
2, 34543, Control_c, 0, 7, 85
2, 34560, Note_on_c, 0, 79, 100
2, 34560, Note_on_c, 0, 72, 100
2, 34560, Note_on_c, 0, 67, 100
2, 34560, Note_on_c, 0, 60, 100
2, 34560, Note_on_c, 0, 57, 100
2, 34583, Control_c, 0, 7, 86
2, 34620, Note_on_c, 0, 67, 0
2, 34620, Note_on_c, 0, 79, 0
2, 34620, Note_on_c, 0, 62, 0
2, 34620, Note_on_c, 0, 55, 0
2, 34620, Note_on_c, 0, 74, 0
2, 34620, Note_on_c, 0, 59, 0
2, 34620, Control_c, 0, 7, 87
2, 34660, Control_c, 0, 7, 88
2, 34680, Note_on_c, 0, 72, 0
2, 34680, Note_on_c, 0, 60, 0
2, 34680, Note_on_c, 0, 57, 0
2, 34680, Note_on_c, 0, 79, 0
2, 34680, Note_on_c, 0, 67, 0
2, 34680, Note_on_c, 0, 79, 100
2, 34680, Note_on_c, 0, 72, 100
2, 34680, Note_on_c, 0, 67, 100
2, 34680, Note_on_c, 0, 60, 100
2, 34680, Note_on_c, 0, 57, 100
2, 34696, Control_c, 0, 7, 89
2, 34736, Control_c, 0, 7, 90
2, 34770, Note_on_c, 0, 79, 100
2, 34770, Note_on_c, 0, 72, 100
2, 34770, Note_on_c, 0, 67, 100
2, 34770, Note_on_c, 0, 60, 100
2, 34770, Note_on_c, 0, 57, 100
2, 34773, Control_c, 0, 7, 91
2, 34800, Note_on_c, 0, 57, 0
2, 34800, Note_on_c, 0, 67, 0
2, 34800, Note_on_c, 0, 60, 0
2, 34800, Note_on_c, 0, 79, 0
2, 34800, Note_on_c, 0, 57, 0
2, 34800, Note_on_c, 0, 72, 0
2, 34800, Note_on_c, 0, 67, 0
2, 34800, Note_on_c, 0, 72, 0
2, 34800, Note_on_c, 0, 79, 0
2, 34800, Note_on_c, 0, 60, 0
2, 34800, Note_on_c, 0, 79, 100
2, 34800, Note_on_c, 0, 72, 100
2, 34800, Note_on_c, 0, 67, 100
2, 34800, Note_on_c, 0, 60, 100
2, 34800, Note_on_c, 0, 57, 100
2, 34860, Note_on_c, 0, 57, 0
2, 34860, Note_on_c, 0, 67, 0
2, 34860, Note_on_c, 0, 79, 0
2, 34860, Note_on_c, 0, 72, 0
2, 34860, Note_on_c, 0, 60, 0
2, 34860, Note_on_c, 0, 79, 100
2, 34860, Note_on_c, 0, 72, 100
2, 34860, Note_on_c, 0, 67, 100
2, 34860, Note_on_c, 0, 60, 100
2, 34860, Note_on_c, 0, 57, 100
2, 34980, Note_on_c, 0, 57, 0
2, 34980, Note_on_c, 0, 67, 0
2, 34980, Note_on_c, 0, 79, 0
2, 34980, Note_on_c, 0, 72, 0
2, 34980, Note_on_c, 0, 60, 0
2, 34980, Note_on_c, 0, 79, 100
2, 34980, Note_on_c, 0, 72, 100
2, 34980, Note_on_c, 0, 60, 100
2, 34980, Note_on_c, 0, 67, 100
2, 34980, Note_on_c, 0, 57, 100
2, 35040, Note_on_c, 0, 57, 0
2, 35040, Note_on_c, 0, 60, 0
2, 35040, Note_on_c, 0, 79, 0
2, 35040, Note_on_c, 0, 72, 0
2, 35040, Note_on_c, 0, 67, 0
2, 35040, Note_on_c, 0, 79, 100
2, 35040, Note_on_c, 0, 74, 100
2, 35040, Note_on_c, 0, 67, 100
2, 35040, Note_on_c, 0, 62, 100
2, 35040, Note_on_c, 0, 59, 100
2, 35040, Note_on_c, 0, 55, 100
2, 35100, Note_on_c, 0, 79, 100
2, 35100, Note_on_c, 0, 74, 100
2, 35100, Note_on_c, 0, 67, 100
2, 35100, Note_on_c, 0, 62, 100
2, 35100, Note_on_c, 0, 59, 100
2, 35100, Note_on_c, 0, 55, 100
2, 35160, Note_on_c, 0, 55, 0
2, 35160, Note_on_c, 0, 74, 0
2, 35160, Note_on_c, 0, 74, 0
2, 35160, Note_on_c, 0, 67, 0
2, 35160, Note_on_c, 0, 62, 0
2, 35160, Note_on_c, 0, 79, 0
2, 35160, Note_on_c, 0, 59, 0
2, 35160, Note_on_c, 0, 55, 0
2, 35160, Note_on_c, 0, 67, 0
2, 35160, Note_on_c, 0, 79, 0
2, 35160, Note_on_c, 0, 59, 0
2, 35160, Note_on_c, 0, 62, 0
2, 35160, Note_on_c, 0, 74, 100
2, 35160, Note_on_c, 0, 79, 100
2, 35160, Note_on_c, 0, 67, 100
2, 35160, Note_on_c, 0, 62, 100
2, 35160, Note_on_c, 0, 59, 100
2, 35160, Note_on_c, 0, 55, 100
2, 35220, Note_on_c, 0, 55, 0
2, 35220, Note_on_c, 0, 79, 0
2, 35220, Note_on_c, 0, 67, 0
2, 35220, Note_on_c, 0, 74, 0
2, 35220, Note_on_c, 0, 59, 0
2, 35220, Note_on_c, 0, 62, 0
2, 35220, Note_on_c, 0, 74, 100
2, 35220, Note_on_c, 0, 79, 100
2, 35220, Note_on_c, 0, 67, 100
2, 35220, Note_on_c, 0, 62, 100
2, 35220, Note_on_c, 0, 55, 100
2, 35220, Note_on_c, 0, 59, 100
2, 35280, Note_on_c, 0, 59, 0
2, 35280, Note_on_c, 0, 79, 0
2, 35280, Note_on_c, 0, 67, 0
2, 35280, Note_on_c, 0, 74, 0
2, 35280, Note_on_c, 0, 55, 0
2, 35280, Note_on_c, 0, 62, 0
2, 35280, Note_on_c, 0, 57, 100
2, 35280, Note_on_c, 0, 62, 100
2, 35280, Note_on_c, 0, 69, 100
2, 35280, Note_on_c, 0, 74, 100
2, 35280, Note_on_c, 0, 78, 100
2, 35340, Note_on_c, 0, 78, 0
2, 35340, Note_on_c, 0, 69, 0
2, 35340, Note_on_c, 0, 57, 0
2, 35340, Note_on_c, 0, 62, 0
2, 35340, Note_on_c, 0, 74, 0
2, 35340, Note_on_c, 0, 57, 100
2, 35340, Note_on_c, 0, 62, 100
2, 35340, Note_on_c, 0, 69, 100
2, 35340, Note_on_c, 0, 74, 100
2, 35340, Note_on_c, 0, 78, 100
2, 35400, Note_on_c, 0, 78, 0
2, 35400, Note_on_c, 0, 69, 0
2, 35400, Note_on_c, 0, 57, 0
2, 35400, Note_on_c, 0, 62, 0
2, 35400, Note_on_c, 0, 74, 0
2, 35400, Note_on_c, 0, 57, 100
2, 35400, Note_on_c, 0, 62, 100
2, 35400, Note_on_c, 0, 69, 100
2, 35400, Note_on_c, 0, 74, 100
2, 35400, Note_on_c, 0, 78, 100
2, 35460, Note_on_c, 0, 78, 0
2, 35460, Note_on_c, 0, 69, 0
2, 35460, Note_on_c, 0, 57, 0
2, 35460, Note_on_c, 0, 62, 0
2, 35460, Note_on_c, 0, 74, 0
2, 35460, Note_on_c, 0, 57, 100
2, 35460, Note_on_c, 0, 62, 100
2, 35460, Note_on_c, 0, 69, 100
2, 35460, Note_on_c, 0, 74, 100
2, 35460, Note_on_c, 0, 78, 100
2, 35520, Note_on_c, 0, 78, 0
2, 35520, Note_on_c, 0, 69, 0
2, 35520, Note_on_c, 0, 57, 0
2, 35520, Note_on_c, 0, 62, 0
2, 35520, Note_on_c, 0, 74, 0
2, 35520, Note_on_c, 0, 79, 100
2, 35520, Note_on_c, 0, 72, 100
2, 35520, Note_on_c, 0, 67, 100
2, 35520, Note_on_c, 0, 60, 100
2, 35520, Note_on_c, 0, 57, 100
2, 35640, Note_on_c, 0, 57, 0
2, 35640, Note_on_c, 0, 67, 0
2, 35640, Note_on_c, 0, 79, 0
2, 35640, Note_on_c, 0, 72, 0
2, 35640, Note_on_c, 0, 60, 0
2, 35640, Note_on_c, 0, 79, 100
2, 35640, Note_on_c, 0, 72, 100
2, 35640, Note_on_c, 0, 67, 100
2, 35640, Note_on_c, 0, 60, 100
2, 35640, Note_on_c, 0, 57, 100
2, 35730, Note_on_c, 0, 79, 100
2, 35730, Note_on_c, 0, 72, 100
2, 35730, Note_on_c, 0, 67, 100
2, 35730, Note_on_c, 0, 60, 100
2, 35730, Note_on_c, 0, 57, 100
2, 35760, Note_on_c, 0, 57, 0
2, 35760, Note_on_c, 0, 67, 0
2, 35760, Note_on_c, 0, 60, 0
2, 35760, Note_on_c, 0, 79, 0
2, 35760, Note_on_c, 0, 57, 0
2, 35760, Note_on_c, 0, 72, 0
2, 35760, Note_on_c, 0, 67, 0
2, 35760, Note_on_c, 0, 72, 0
2, 35760, Note_on_c, 0, 79, 0
2, 35760, Note_on_c, 0, 60, 0
2, 35760, Note_on_c, 0, 79, 100
2, 35760, Note_on_c, 0, 72, 100
2, 35760, Note_on_c, 0, 67, 100
2, 35760, Note_on_c, 0, 60, 100
2, 35760, Note_on_c, 0, 57, 100
2, 35820, Note_on_c, 0, 57, 0
2, 35820, Note_on_c, 0, 67, 0
2, 35820, Note_on_c, 0, 79, 0
2, 35820, Note_on_c, 0, 72, 0
2, 35820, Note_on_c, 0, 60, 0
2, 35820, Note_on_c, 0, 79, 100
2, 35820, Note_on_c, 0, 72, 100
2, 35820, Note_on_c, 0, 67, 100
2, 35820, Note_on_c, 0, 60, 100
2, 35820, Note_on_c, 0, 57, 100
2, 35940, Note_on_c, 0, 57, 0
2, 35940, Note_on_c, 0, 67, 0
2, 35940, Note_on_c, 0, 79, 0
2, 35940, Note_on_c, 0, 72, 0
2, 35940, Note_on_c, 0, 60, 0
2, 35940, Note_on_c, 0, 79, 100
2, 35940, Note_on_c, 0, 72, 100
2, 35940, Note_on_c, 0, 60, 100
2, 35940, Note_on_c, 0, 67, 100
2, 35940, Note_on_c, 0, 57, 100
2, 36000, Note_on_c, 0, 57, 0
2, 36000, Note_on_c, 0, 60, 0
2, 36000, Note_on_c, 0, 79, 0
2, 36000, Note_on_c, 0, 72, 0
2, 36000, Note_on_c, 0, 67, 0
2, 36000, Note_on_c, 0, 79, 100
2, 36000, Note_on_c, 0, 74, 100
2, 36000, Note_on_c, 0, 67, 100
2, 36000, Note_on_c, 0, 62, 100
2, 36000, Note_on_c, 0, 59, 100
2, 36000, Note_on_c, 0, 55, 100
2, 36060, Note_on_c, 0, 79, 100
2, 36060, Note_on_c, 0, 74, 100
2, 36060, Note_on_c, 0, 67, 100
2, 36060, Note_on_c, 0, 62, 100
2, 36060, Note_on_c, 0, 59, 100
2, 36060, Note_on_c, 0, 55, 100
2, 36120, Note_on_c, 0, 55, 0
2, 36120, Note_on_c, 0, 74, 0
2, 36120, Note_on_c, 0, 74, 0
2, 36120, Note_on_c, 0, 67, 0
2, 36120, Note_on_c, 0, 62, 0
2, 36120, Note_on_c, 0, 79, 0
2, 36120, Note_on_c, 0, 59, 0
2, 36120, Note_on_c, 0, 55, 0
2, 36120, Note_on_c, 0, 67, 0
2, 36120, Note_on_c, 0, 79, 0
2, 36120, Note_on_c, 0, 59, 0
2, 36120, Note_on_c, 0, 62, 0
2, 36120, Note_on_c, 0, 74, 100
2, 36120, Note_on_c, 0, 79, 100
2, 36120, Note_on_c, 0, 67, 100
2, 36120, Note_on_c, 0, 62, 100
2, 36120, Note_on_c, 0, 59, 100
2, 36120, Note_on_c, 0, 55, 100
2, 36180, Note_on_c, 0, 55, 0
2, 36180, Note_on_c, 0, 79, 0
2, 36180, Note_on_c, 0, 67, 0
2, 36180, Note_on_c, 0, 74, 0
2, 36180, Note_on_c, 0, 59, 0
2, 36180, Note_on_c, 0, 62, 0
2, 36180, Note_on_c, 0, 74, 100
2, 36180, Note_on_c, 0, 79, 100
2, 36180, Note_on_c, 0, 67, 100
2, 36180, Note_on_c, 0, 62, 100
2, 36180, Note_on_c, 0, 55, 100
2, 36180, Note_on_c, 0, 59, 100
2, 36240, Note_on_c, 0, 59, 0
2, 36240, Note_on_c, 0, 79, 0
2, 36240, Note_on_c, 0, 67, 0
2, 36240, Note_on_c, 0, 74, 0
2, 36240, Note_on_c, 0, 55, 0
2, 36240, Note_on_c, 0, 62, 0
2, 36240, Note_on_c, 0, 57, 100
2, 36240, Note_on_c, 0, 62, 100
2, 36240, Note_on_c, 0, 69, 100
2, 36240, Note_on_c, 0, 74, 100
2, 36240, Note_on_c, 0, 78, 100
2, 36300, Note_on_c, 0, 78, 0
2, 36300, Note_on_c, 0, 69, 0
2, 36300, Note_on_c, 0, 57, 0
2, 36300, Note_on_c, 0, 62, 0
2, 36300, Note_on_c, 0, 74, 0
2, 36300, Note_on_c, 0, 57, 100
2, 36300, Note_on_c, 0, 62, 100
2, 36300, Note_on_c, 0, 69, 100
2, 36300, Note_on_c, 0, 74, 100
2, 36300, Note_on_c, 0, 78, 100
2, 36360, Note_on_c, 0, 78, 0
2, 36360, Note_on_c, 0, 69, 0
2, 36360, Note_on_c, 0, 57, 0
2, 36360, Note_on_c, 0, 62, 0
2, 36360, Note_on_c, 0, 74, 0
2, 36360, Note_on_c, 0, 57, 100
2, 36360, Note_on_c, 0, 62, 100
2, 36360, Note_on_c, 0, 69, 100
2, 36360, Note_on_c, 0, 74, 100
2, 36360, Note_on_c, 0, 78, 100
2, 36420, Note_on_c, 0, 78, 0
2, 36420, Note_on_c, 0, 69, 0
2, 36420, Note_on_c, 0, 57, 0
2, 36420, Note_on_c, 0, 62, 0
2, 36420, Note_on_c, 0, 74, 0
2, 36420, Note_on_c, 0, 57, 100
2, 36420, Note_on_c, 0, 62, 100
2, 36420, Note_on_c, 0, 69, 100
2, 36420, Note_on_c, 0, 74, 100
2, 36420, Note_on_c, 0, 78, 100
2, 36480, Note_on_c, 0, 78, 0
2, 36480, Note_on_c, 0, 69, 0
2, 36480, Note_on_c, 0, 57, 0
2, 36480, Note_on_c, 0, 62, 0
2, 36480, Note_on_c, 0, 74, 0
2, 36480, Note_on_c, 0, 79, 100
2, 36480, Note_on_c, 0, 72, 100
2, 36480, Note_on_c, 0, 67, 100
2, 36480, Note_on_c, 0, 60, 100
2, 36480, Note_on_c, 0, 57, 100
2, 36600, Note_on_c, 0, 57, 0
2, 36600, Note_on_c, 0, 67, 0
2, 36600, Note_on_c, 0, 79, 0
2, 36600, Note_on_c, 0, 72, 0
2, 36600, Note_on_c, 0, 60, 0
2, 36600, Note_on_c, 0, 79, 100
2, 36600, Note_on_c, 0, 72, 100
2, 36600, Note_on_c, 0, 67, 100
2, 36600, Note_on_c, 0, 60, 100
2, 36600, Note_on_c, 0, 57, 100
2, 36690, Note_on_c, 0, 79, 100
2, 36690, Note_on_c, 0, 72, 100
2, 36690, Note_on_c, 0, 67, 100
2, 36690, Note_on_c, 0, 60, 100
2, 36690, Note_on_c, 0, 57, 100
2, 36720, Note_on_c, 0, 57, 0
2, 36720, Note_on_c, 0, 67, 0
2, 36720, Note_on_c, 0, 60, 0
2, 36720, Note_on_c, 0, 79, 0
2, 36720, Note_on_c, 0, 57, 0
2, 36720, Note_on_c, 0, 72, 0
2, 36720, Note_on_c, 0, 67, 0
2, 36720, Note_on_c, 0, 72, 0
2, 36720, Note_on_c, 0, 79, 0
2, 36720, Note_on_c, 0, 60, 0
2, 36720, Note_on_c, 0, 79, 100
2, 36720, Note_on_c, 0, 72, 100
2, 36720, Note_on_c, 0, 67, 100
2, 36720, Note_on_c, 0, 60, 100
2, 36720, Note_on_c, 0, 57, 100
2, 36780, Note_on_c, 0, 57, 0
2, 36780, Note_on_c, 0, 67, 0
2, 36780, Note_on_c, 0, 79, 0
2, 36780, Note_on_c, 0, 72, 0
2, 36780, Note_on_c, 0, 60, 0
2, 36780, Note_on_c, 0, 79, 100
2, 36780, Note_on_c, 0, 72, 100
2, 36780, Note_on_c, 0, 67, 100
2, 36780, Note_on_c, 0, 60, 100
2, 36780, Note_on_c, 0, 57, 100
2, 36900, Note_on_c, 0, 57, 0
2, 36900, Note_on_c, 0, 67, 0
2, 36900, Note_on_c, 0, 79, 0
2, 36900, Note_on_c, 0, 72, 0
2, 36900, Note_on_c, 0, 60, 0
2, 36900, Note_on_c, 0, 79, 100
2, 36900, Note_on_c, 0, 72, 100
2, 36900, Note_on_c, 0, 60, 100
2, 36900, Note_on_c, 0, 67, 100
2, 36900, Note_on_c, 0, 57, 100
2, 36960, Note_on_c, 0, 57, 0
2, 36960, Note_on_c, 0, 60, 0
2, 36960, Note_on_c, 0, 79, 0
2, 36960, Note_on_c, 0, 72, 0
2, 36960, Note_on_c, 0, 67, 0
2, 36960, Note_on_c, 0, 79, 100
2, 36960, Note_on_c, 0, 74, 100
2, 36960, Note_on_c, 0, 67, 100
2, 36960, Note_on_c, 0, 62, 100
2, 36960, Note_on_c, 0, 59, 100
2, 36960, Note_on_c, 0, 55, 100
2, 37020, Note_on_c, 0, 79, 100
2, 37020, Note_on_c, 0, 74, 100
2, 37020, Note_on_c, 0, 67, 100
2, 37020, Note_on_c, 0, 62, 100
2, 37020, Note_on_c, 0, 59, 100
2, 37020, Note_on_c, 0, 55, 100
2, 37080, Note_on_c, 0, 55, 0
2, 37080, Note_on_c, 0, 74, 0
2, 37080, Note_on_c, 0, 74, 0
2, 37080, Note_on_c, 0, 67, 0
2, 37080, Note_on_c, 0, 62, 0
2, 37080, Note_on_c, 0, 79, 0
2, 37080, Note_on_c, 0, 59, 0
2, 37080, Note_on_c, 0, 55, 0
2, 37080, Note_on_c, 0, 67, 0
2, 37080, Note_on_c, 0, 79, 0
2, 37080, Note_on_c, 0, 59, 0
2, 37080, Note_on_c, 0, 62, 0
2, 37080, Note_on_c, 0, 74, 100
2, 37080, Note_on_c, 0, 79, 100
2, 37080, Note_on_c, 0, 67, 100
2, 37080, Note_on_c, 0, 62, 100
2, 37080, Note_on_c, 0, 59, 100
2, 37080, Note_on_c, 0, 55, 100
2, 37140, Note_on_c, 0, 55, 0
2, 37140, Note_on_c, 0, 79, 0
2, 37140, Note_on_c, 0, 67, 0
2, 37140, Note_on_c, 0, 74, 0
2, 37140, Note_on_c, 0, 59, 0
2, 37140, Note_on_c, 0, 62, 0
2, 37140, Note_on_c, 0, 74, 100
2, 37140, Note_on_c, 0, 79, 100
2, 37140, Note_on_c, 0, 67, 100
2, 37140, Note_on_c, 0, 62, 100
2, 37140, Note_on_c, 0, 55, 100
2, 37140, Note_on_c, 0, 59, 100
2, 37200, Note_on_c, 0, 59, 0
2, 37200, Note_on_c, 0, 79, 0
2, 37200, Note_on_c, 0, 67, 0
2, 37200, Note_on_c, 0, 74, 0
2, 37200, Note_on_c, 0, 55, 0
2, 37200, Note_on_c, 0, 62, 0
2, 37200, Note_on_c, 0, 57, 100
2, 37200, Note_on_c, 0, 62, 100
2, 37200, Note_on_c, 0, 69, 100
2, 37200, Note_on_c, 0, 74, 100
2, 37200, Note_on_c, 0, 78, 100
2, 37260, Note_on_c, 0, 78, 0
2, 37260, Note_on_c, 0, 69, 0
2, 37260, Note_on_c, 0, 57, 0
2, 37260, Note_on_c, 0, 62, 0
2, 37260, Note_on_c, 0, 74, 0
2, 37260, Note_on_c, 0, 57, 100
2, 37260, Note_on_c, 0, 62, 100
2, 37260, Note_on_c, 0, 69, 100
2, 37260, Note_on_c, 0, 74, 100
2, 37260, Note_on_c, 0, 78, 100
2, 37320, Note_on_c, 0, 78, 0
2, 37320, Note_on_c, 0, 69, 0
2, 37320, Note_on_c, 0, 57, 0
2, 37320, Note_on_c, 0, 62, 0
2, 37320, Note_on_c, 0, 74, 0
2, 37320, Note_on_c, 0, 57, 100
2, 37320, Note_on_c, 0, 62, 100
2, 37320, Note_on_c, 0, 69, 100
2, 37320, Note_on_c, 0, 74, 100
2, 37320, Note_on_c, 0, 78, 100
2, 37380, Note_on_c, 0, 78, 0
2, 37380, Note_on_c, 0, 69, 0
2, 37380, Note_on_c, 0, 57, 0
2, 37380, Note_on_c, 0, 62, 0
2, 37380, Note_on_c, 0, 74, 0
2, 37380, Note_on_c, 0, 57, 100
2, 37380, Note_on_c, 0, 62, 100
2, 37380, Note_on_c, 0, 69, 100
2, 37380, Note_on_c, 0, 74, 100
2, 37380, Note_on_c, 0, 78, 100
2, 37440, Note_on_c, 0, 78, 0
2, 37440, Note_on_c, 0, 69, 0
2, 37440, Note_on_c, 0, 57, 0
2, 37440, Note_on_c, 0, 62, 0
2, 37440, Note_on_c, 0, 74, 0
2, 37440, Note_on_c, 0, 77, 100
2, 37440, Note_on_c, 0, 72, 100
2, 37440, Note_on_c, 0, 69, 100
2, 37440, Note_on_c, 0, 65, 100
2, 37440, Note_on_c, 0, 60, 100
2, 37440, Note_on_c, 0, 53, 100
2, 37533, Control_c, 0, 7, 83
2, 37560, Note_on_c, 0, 53, 0
2, 37560, Note_on_c, 0, 72, 0
2, 37560, Note_on_c, 0, 69, 0
2, 37560, Note_on_c, 0, 77, 0
2, 37560, Note_on_c, 0, 60, 0
2, 37560, Note_on_c, 0, 65, 0
2, 37613, Control_c, 0, 7, 82
2, 37693, Control_c, 0, 7, 81
2, 37740, Note_on_c, 0, 77, 100
2, 37740, Note_on_c, 0, 72, 100
2, 37740, Note_on_c, 0, 69, 100
2, 37740, Note_on_c, 0, 65, 100
2, 37740, Note_on_c, 0, 60, 100
2, 37740, Note_on_c, 0, 53, 100
2, 37770, Control_c, 0, 7, 80
2, 37800, Note_on_c, 0, 53, 0
2, 37800, Note_on_c, 0, 72, 0
2, 37800, Note_on_c, 0, 69, 0
2, 37800, Note_on_c, 0, 77, 0
2, 37800, Note_on_c, 0, 60, 0
2, 37800, Note_on_c, 0, 65, 0
2, 37800, Note_on_c, 0, 77, 100
2, 37800, Note_on_c, 0, 72, 100
2, 37800, Note_on_c, 0, 69, 100
2, 37800, Note_on_c, 0, 65, 100
2, 37800, Note_on_c, 0, 60, 100
2, 37800, Note_on_c, 0, 53, 100
2, 37860, Note_on_c, 0, 53, 0
2, 37860, Note_on_c, 0, 72, 0
2, 37860, Note_on_c, 0, 69, 0
2, 37860, Note_on_c, 0, 77, 0
2, 37860, Note_on_c, 0, 60, 0
2, 37860, Note_on_c, 0, 65, 0
2, 37860, Note_on_c, 0, 79, 100
2, 37860, Note_on_c, 0, 74, 100
2, 37860, Note_on_c, 0, 67, 100
2, 37860, Note_on_c, 0, 62, 100
2, 37860, Note_on_c, 0, 55, 100
2, 37860, Note_on_c, 0, 59, 100
2, 37920, Note_on_c, 0, 59, 0
2, 37920, Note_on_c, 0, 74, 0
2, 37920, Note_on_c, 0, 67, 0
2, 37920, Note_on_c, 0, 79, 0
2, 37920, Note_on_c, 0, 55, 0
2, 37920, Note_on_c, 0, 62, 0
2, 37980, Note_on_c, 0, 79, 100
2, 37980, Note_on_c, 0, 74, 100
2, 37980, Note_on_c, 0, 67, 100
2, 37980, Note_on_c, 0, 62, 100
2, 37980, Note_on_c, 0, 55, 100
2, 37980, Note_on_c, 0, 59, 100
2, 38100, Note_on_c, 0, 59, 0
2, 38100, Note_on_c, 0, 74, 0
2, 38100, Note_on_c, 0, 67, 0
2, 38100, Note_on_c, 0, 79, 0
2, 38100, Note_on_c, 0, 55, 0
2, 38100, Note_on_c, 0, 62, 0
2, 38100, Note_on_c, 0, 79, 100
2, 38100, Note_on_c, 0, 74, 100
2, 38100, Note_on_c, 0, 67, 100
2, 38100, Note_on_c, 0, 59, 100
2, 38100, Note_on_c, 0, 62, 100
2, 38100, Note_on_c, 0, 55, 100
2, 38220, Note_on_c, 0, 55, 0
2, 38220, Note_on_c, 0, 74, 0
2, 38220, Note_on_c, 0, 67, 0
2, 38220, Note_on_c, 0, 79, 0
2, 38220, Note_on_c, 0, 62, 0
2, 38220, Note_on_c, 0, 59, 0
2, 38220, Note_on_c, 0, 79, 100
2, 38220, Note_on_c, 0, 74, 100
2, 38220, Note_on_c, 0, 67, 100
2, 38220, Note_on_c, 0, 62, 100
2, 38220, Note_on_c, 0, 59, 100
2, 38220, Note_on_c, 0, 55, 100
2, 38340, Note_on_c, 0, 55, 0
2, 38340, Note_on_c, 0, 74, 0
2, 38340, Note_on_c, 0, 67, 0
2, 38340, Note_on_c, 0, 79, 0
2, 38340, Note_on_c, 0, 59, 0
2, 38340, Note_on_c, 0, 62, 0
2, 38340, Note_on_c, 0, 79, 100
2, 38340, Note_on_c, 0, 74, 100
2, 38340, Note_on_c, 0, 67, 100
2, 38340, Note_on_c, 0, 62, 100
2, 38340, Note_on_c, 0, 59, 100
2, 38340, Note_on_c, 0, 55, 100
2, 38400, Note_on_c, 0, 79, 100
2, 38400, Note_on_c, 0, 72, 100
2, 38400, Note_on_c, 0, 67, 100
2, 38400, Note_on_c, 0, 60, 100
2, 38400, Note_on_c, 0, 57, 100
2, 38460, Note_on_c, 0, 55, 0
2, 38460, Note_on_c, 0, 62, 0
2, 38460, Note_on_c, 0, 79, 0
2, 38460, Note_on_c, 0, 67, 0
2, 38460, Note_on_c, 0, 59, 0
2, 38460, Note_on_c, 0, 74, 0
2, 38520, Note_on_c, 0, 72, 0
2, 38520, Note_on_c, 0, 60, 0
2, 38520, Note_on_c, 0, 57, 0
2, 38520, Note_on_c, 0, 79, 0
2, 38520, Note_on_c, 0, 67, 0
2, 38520, Note_on_c, 0, 79, 100
2, 38520, Note_on_c, 0, 72, 100
2, 38520, Note_on_c, 0, 67, 100
2, 38520, Note_on_c, 0, 60, 100
2, 38520, Note_on_c, 0, 57, 100
2, 38610, Note_on_c, 0, 79, 100
2, 38610, Note_on_c, 0, 72, 100
2, 38610, Note_on_c, 0, 67, 100
2, 38610, Note_on_c, 0, 60, 100
2, 38610, Note_on_c, 0, 57, 100
2, 38640, Note_on_c, 0, 57, 0
2, 38640, Note_on_c, 0, 67, 0
2, 38640, Note_on_c, 0, 60, 0
2, 38640, Note_on_c, 0, 79, 0
2, 38640, Note_on_c, 0, 57, 0
2, 38640, Note_on_c, 0, 72, 0
2, 38640, Note_on_c, 0, 67, 0
2, 38640, Note_on_c, 0, 72, 0
2, 38640, Note_on_c, 0, 79, 0
2, 38640, Note_on_c, 0, 60, 0
2, 38640, Note_on_c, 0, 79, 100
2, 38640, Note_on_c, 0, 72, 100
2, 38640, Note_on_c, 0, 67, 100
2, 38640, Note_on_c, 0, 60, 100
2, 38640, Note_on_c, 0, 57, 100
2, 38700, Note_on_c, 0, 57, 0
2, 38700, Note_on_c, 0, 67, 0
2, 38700, Note_on_c, 0, 79, 0
2, 38700, Note_on_c, 0, 72, 0
2, 38700, Note_on_c, 0, 60, 0
2, 38700, Note_on_c, 0, 79, 100
2, 38700, Note_on_c, 0, 72, 100
2, 38700, Note_on_c, 0, 67, 100
2, 38700, Note_on_c, 0, 60, 100
2, 38700, Note_on_c, 0, 57, 100
2, 38820, Note_on_c, 0, 57, 0
2, 38820, Note_on_c, 0, 67, 0
2, 38820, Note_on_c, 0, 79, 0
2, 38820, Note_on_c, 0, 72, 0
2, 38820, Note_on_c, 0, 60, 0
2, 38820, Note_on_c, 0, 79, 100
2, 38820, Note_on_c, 0, 72, 100
2, 38820, Note_on_c, 0, 60, 100
2, 38820, Note_on_c, 0, 67, 100
2, 38820, Note_on_c, 0, 57, 100
2, 38880, Note_on_c, 0, 57, 0
2, 38880, Note_on_c, 0, 60, 0
2, 38880, Note_on_c, 0, 79, 0
2, 38880, Note_on_c, 0, 72, 0
2, 38880, Note_on_c, 0, 67, 0
2, 38880, Note_on_c, 0, 79, 100
2, 38880, Note_on_c, 0, 74, 100
2, 38880, Note_on_c, 0, 67, 100
2, 38880, Note_on_c, 0, 62, 100
2, 38880, Note_on_c, 0, 59, 100
2, 38880, Note_on_c, 0, 55, 100
2, 38940, Note_on_c, 0, 79, 100
2, 38940, Note_on_c, 0, 74, 100
2, 38940, Note_on_c, 0, 67, 100
2, 38940, Note_on_c, 0, 62, 100
2, 38940, Note_on_c, 0, 59, 100
2, 38940, Note_on_c, 0, 55, 100
2, 39000, Note_on_c, 0, 55, 0
2, 39000, Note_on_c, 0, 74, 0
2, 39000, Note_on_c, 0, 74, 0
2, 39000, Note_on_c, 0, 67, 0
2, 39000, Note_on_c, 0, 62, 0
2, 39000, Note_on_c, 0, 79, 0
2, 39000, Note_on_c, 0, 59, 0
2, 39000, Note_on_c, 0, 55, 0
2, 39000, Note_on_c, 0, 67, 0
2, 39000, Note_on_c, 0, 79, 0
2, 39000, Note_on_c, 0, 59, 0
2, 39000, Note_on_c, 0, 62, 0
2, 39000, Note_on_c, 0, 74, 100
2, 39000, Note_on_c, 0, 79, 100
2, 39000, Note_on_c, 0, 67, 100
2, 39000, Note_on_c, 0, 62, 100
2, 39000, Note_on_c, 0, 59, 100
2, 39000, Note_on_c, 0, 55, 100
2, 39060, Note_on_c, 0, 55, 0
2, 39060, Note_on_c, 0, 79, 0
2, 39060, Note_on_c, 0, 67, 0
2, 39060, Note_on_c, 0, 74, 0
2, 39060, Note_on_c, 0, 59, 0
2, 39060, Note_on_c, 0, 62, 0
2, 39060, Note_on_c, 0, 74, 100
2, 39060, Note_on_c, 0, 79, 100
2, 39060, Note_on_c, 0, 67, 100
2, 39060, Note_on_c, 0, 62, 100
2, 39060, Note_on_c, 0, 55, 100
2, 39060, Note_on_c, 0, 59, 100
2, 39120, Note_on_c, 0, 59, 0
2, 39120, Note_on_c, 0, 79, 0
2, 39120, Note_on_c, 0, 67, 0
2, 39120, Note_on_c, 0, 74, 0
2, 39120, Note_on_c, 0, 55, 0
2, 39120, Note_on_c, 0, 62, 0
2, 39120, Note_on_c, 0, 57, 100
2, 39120, Note_on_c, 0, 62, 100
2, 39120, Note_on_c, 0, 69, 100
2, 39120, Note_on_c, 0, 74, 100
2, 39120, Note_on_c, 0, 78, 100
2, 39180, Note_on_c, 0, 78, 0
2, 39180, Note_on_c, 0, 69, 0
2, 39180, Note_on_c, 0, 57, 0
2, 39180, Note_on_c, 0, 62, 0
2, 39180, Note_on_c, 0, 74, 0
2, 39180, Note_on_c, 0, 57, 100
2, 39180, Note_on_c, 0, 62, 100
2, 39180, Note_on_c, 0, 69, 100
2, 39180, Note_on_c, 0, 74, 100
2, 39180, Note_on_c, 0, 78, 100
2, 39240, Note_on_c, 0, 78, 0
2, 39240, Note_on_c, 0, 69, 0
2, 39240, Note_on_c, 0, 57, 0
2, 39240, Note_on_c, 0, 62, 0
2, 39240, Note_on_c, 0, 74, 0
2, 39240, Note_on_c, 0, 57, 100
2, 39240, Note_on_c, 0, 62, 100
2, 39240, Note_on_c, 0, 69, 100
2, 39240, Note_on_c, 0, 74, 100
2, 39240, Note_on_c, 0, 78, 100
2, 39300, Note_on_c, 0, 78, 0
2, 39300, Note_on_c, 0, 69, 0
2, 39300, Note_on_c, 0, 57, 0
2, 39300, Note_on_c, 0, 62, 0
2, 39300, Note_on_c, 0, 74, 0
2, 39300, Note_on_c, 0, 57, 100
2, 39300, Note_on_c, 0, 62, 100
2, 39300, Note_on_c, 0, 69, 100
2, 39300, Note_on_c, 0, 74, 100
2, 39300, Note_on_c, 0, 78, 100
2, 39360, Note_on_c, 0, 78, 0
2, 39360, Note_on_c, 0, 69, 0
2, 39360, Note_on_c, 0, 57, 0
2, 39360, Note_on_c, 0, 62, 0
2, 39360, Note_on_c, 0, 74, 0
2, 39360, Note_on_c, 0, 79, 100
2, 39360, Note_on_c, 0, 72, 100
2, 39360, Note_on_c, 0, 67, 100
2, 39360, Note_on_c, 0, 60, 100
2, 39360, Note_on_c, 0, 57, 100
2, 39480, Note_on_c, 0, 57, 0
2, 39480, Note_on_c, 0, 67, 0
2, 39480, Note_on_c, 0, 79, 0
2, 39480, Note_on_c, 0, 72, 0
2, 39480, Note_on_c, 0, 60, 0
2, 39480, Note_on_c, 0, 79, 100
2, 39480, Note_on_c, 0, 72, 100
2, 39480, Note_on_c, 0, 67, 100
2, 39480, Note_on_c, 0, 60, 100
2, 39480, Note_on_c, 0, 57, 100
2, 39570, Note_on_c, 0, 79, 100
2, 39570, Note_on_c, 0, 72, 100
2, 39570, Note_on_c, 0, 67, 100
2, 39570, Note_on_c, 0, 60, 100
2, 39570, Note_on_c, 0, 57, 100
2, 39600, Note_on_c, 0, 57, 0
2, 39600, Note_on_c, 0, 67, 0
2, 39600, Note_on_c, 0, 60, 0
2, 39600, Note_on_c, 0, 79, 0
2, 39600, Note_on_c, 0, 57, 0
2, 39600, Note_on_c, 0, 72, 0
2, 39600, Note_on_c, 0, 67, 0
2, 39600, Note_on_c, 0, 72, 0
2, 39600, Note_on_c, 0, 79, 0
2, 39600, Note_on_c, 0, 60, 0
2, 39600, Note_on_c, 0, 79, 100
2, 39600, Note_on_c, 0, 72, 100
2, 39600, Note_on_c, 0, 67, 100
2, 39600, Note_on_c, 0, 60, 100
2, 39600, Note_on_c, 0, 57, 100
2, 39660, Note_on_c, 0, 57, 0
2, 39660, Note_on_c, 0, 67, 0
2, 39660, Note_on_c, 0, 79, 0
2, 39660, Note_on_c, 0, 72, 0
2, 39660, Note_on_c, 0, 60, 0
2, 39660, Note_on_c, 0, 79, 100
2, 39660, Note_on_c, 0, 72, 100
2, 39660, Note_on_c, 0, 67, 100
2, 39660, Note_on_c, 0, 60, 100
2, 39660, Note_on_c, 0, 57, 100
2, 39780, Note_on_c, 0, 57, 0
2, 39780, Note_on_c, 0, 67, 0
2, 39780, Note_on_c, 0, 79, 0
2, 39780, Note_on_c, 0, 72, 0
2, 39780, Note_on_c, 0, 60, 0
2, 39780, Note_on_c, 0, 79, 100
2, 39780, Note_on_c, 0, 72, 100
2, 39780, Note_on_c, 0, 60, 100
2, 39780, Note_on_c, 0, 67, 100
2, 39780, Note_on_c, 0, 57, 100
2, 39840, Note_on_c, 0, 57, 0
2, 39840, Note_on_c, 0, 60, 0
2, 39840, Note_on_c, 0, 79, 0
2, 39840, Note_on_c, 0, 72, 0
2, 39840, Note_on_c, 0, 67, 0
2, 39840, Note_on_c, 0, 79, 100
2, 39840, Note_on_c, 0, 74, 100
2, 39840, Note_on_c, 0, 67, 100
2, 39840, Note_on_c, 0, 62, 100
2, 39840, Note_on_c, 0, 59, 100
2, 39840, Note_on_c, 0, 55, 100
2, 39900, Note_on_c, 0, 79, 100
2, 39900, Note_on_c, 0, 74, 100
2, 39900, Note_on_c, 0, 67, 100
2, 39900, Note_on_c, 0, 62, 100
2, 39900, Note_on_c, 0, 59, 100
2, 39900, Note_on_c, 0, 55, 100
2, 39960, Note_on_c, 0, 55, 0
2, 39960, Note_on_c, 0, 74, 0
2, 39960, Note_on_c, 0, 74, 0
2, 39960, Note_on_c, 0, 67, 0
2, 39960, Note_on_c, 0, 62, 0
2, 39960, Note_on_c, 0, 79, 0
2, 39960, Note_on_c, 0, 59, 0
2, 39960, Note_on_c, 0, 55, 0
2, 39960, Note_on_c, 0, 67, 0
2, 39960, Note_on_c, 0, 79, 0
2, 39960, Note_on_c, 0, 59, 0
2, 39960, Note_on_c, 0, 62, 0
2, 39960, Note_on_c, 0, 74, 100
2, 39960, Note_on_c, 0, 79, 100
2, 39960, Note_on_c, 0, 67, 100
2, 39960, Note_on_c, 0, 62, 100
2, 39960, Note_on_c, 0, 59, 100
2, 39960, Note_on_c, 0, 55, 100
2, 40020, Note_on_c, 0, 55, 0
2, 40020, Note_on_c, 0, 79, 0
2, 40020, Note_on_c, 0, 67, 0
2, 40020, Note_on_c, 0, 74, 0
2, 40020, Note_on_c, 0, 59, 0
2, 40020, Note_on_c, 0, 62, 0
2, 40020, Note_on_c, 0, 74, 100
2, 40020, Note_on_c, 0, 79, 100
2, 40020, Note_on_c, 0, 67, 100
2, 40020, Note_on_c, 0, 62, 100
2, 40020, Note_on_c, 0, 55, 100
2, 40020, Note_on_c, 0, 59, 100
2, 40080, Note_on_c, 0, 59, 0
2, 40080, Note_on_c, 0, 79, 0
2, 40080, Note_on_c, 0, 67, 0
2, 40080, Note_on_c, 0, 74, 0
2, 40080, Note_on_c, 0, 55, 0
2, 40080, Note_on_c, 0, 62, 0
2, 40080, Note_on_c, 0, 57, 100
2, 40080, Note_on_c, 0, 62, 100
2, 40080, Note_on_c, 0, 69, 100
2, 40080, Note_on_c, 0, 74, 100
2, 40080, Note_on_c, 0, 78, 100
2, 40140, Note_on_c, 0, 78, 0
2, 40140, Note_on_c, 0, 69, 0
2, 40140, Note_on_c, 0, 57, 0
2, 40140, Note_on_c, 0, 62, 0
2, 40140, Note_on_c, 0, 74, 0
2, 40140, Note_on_c, 0, 57, 100
2, 40140, Note_on_c, 0, 62, 100
2, 40140, Note_on_c, 0, 69, 100
2, 40140, Note_on_c, 0, 74, 100
2, 40140, Note_on_c, 0, 78, 100
2, 40200, Note_on_c, 0, 78, 0
2, 40200, Note_on_c, 0, 69, 0
2, 40200, Note_on_c, 0, 57, 0
2, 40200, Note_on_c, 0, 62, 0
2, 40200, Note_on_c, 0, 74, 0
2, 40200, Note_on_c, 0, 57, 100
2, 40200, Note_on_c, 0, 62, 100
2, 40200, Note_on_c, 0, 69, 100
2, 40200, Note_on_c, 0, 74, 100
2, 40200, Note_on_c, 0, 78, 100
2, 40260, Note_on_c, 0, 78, 0
2, 40260, Note_on_c, 0, 69, 0
2, 40260, Note_on_c, 0, 57, 0
2, 40260, Note_on_c, 0, 62, 0
2, 40260, Note_on_c, 0, 74, 0
2, 40260, Note_on_c, 0, 57, 100
2, 40260, Note_on_c, 0, 62, 100
2, 40260, Note_on_c, 0, 69, 100
2, 40260, Note_on_c, 0, 74, 100
2, 40260, Note_on_c, 0, 78, 100
2, 40320, Note_on_c, 0, 78, 0
2, 40320, Note_on_c, 0, 69, 0
2, 40320, Note_on_c, 0, 57, 0
2, 40320, Note_on_c, 0, 62, 0
2, 40320, Note_on_c, 0, 74, 0
2, 40320, Note_on_c, 0, 79, 100
2, 40320, Note_on_c, 0, 72, 100
2, 40320, Note_on_c, 0, 67, 100
2, 40320, Note_on_c, 0, 60, 100
2, 40320, Note_on_c, 0, 57, 100
2, 40440, Note_on_c, 0, 57, 0
2, 40440, Note_on_c, 0, 67, 0
2, 40440, Note_on_c, 0, 79, 0
2, 40440, Note_on_c, 0, 72, 0
2, 40440, Note_on_c, 0, 60, 0
2, 40440, Note_on_c, 0, 79, 100
2, 40440, Note_on_c, 0, 72, 100
2, 40440, Note_on_c, 0, 67, 100
2, 40440, Note_on_c, 0, 60, 100
2, 40440, Note_on_c, 0, 57, 100
2, 40530, Note_on_c, 0, 79, 100
2, 40530, Note_on_c, 0, 72, 100
2, 40530, Note_on_c, 0, 67, 100
2, 40530, Note_on_c, 0, 60, 100
2, 40530, Note_on_c, 0, 57, 100
2, 40560, Note_on_c, 0, 57, 0
2, 40560, Note_on_c, 0, 67, 0
2, 40560, Note_on_c, 0, 60, 0
2, 40560, Note_on_c, 0, 79, 0
2, 40560, Note_on_c, 0, 57, 0
2, 40560, Note_on_c, 0, 72, 0
2, 40560, Note_on_c, 0, 67, 0
2, 40560, Note_on_c, 0, 72, 0
2, 40560, Note_on_c, 0, 79, 0
2, 40560, Note_on_c, 0, 60, 0
2, 40560, Note_on_c, 0, 79, 100
2, 40560, Note_on_c, 0, 72, 100
2, 40560, Note_on_c, 0, 67, 100
2, 40560, Note_on_c, 0, 60, 100
2, 40560, Note_on_c, 0, 57, 100
2, 40620, Note_on_c, 0, 57, 0
2, 40620, Note_on_c, 0, 67, 0
2, 40620, Note_on_c, 0, 79, 0
2, 40620, Note_on_c, 0, 72, 0
2, 40620, Note_on_c, 0, 60, 0
2, 40620, Note_on_c, 0, 79, 100
2, 40620, Note_on_c, 0, 72, 100
2, 40620, Note_on_c, 0, 67, 100
2, 40620, Note_on_c, 0, 60, 100
2, 40620, Note_on_c, 0, 57, 100
2, 40740, Note_on_c, 0, 57, 0
2, 40740, Note_on_c, 0, 67, 0
2, 40740, Note_on_c, 0, 79, 0
2, 40740, Note_on_c, 0, 72, 0
2, 40740, Note_on_c, 0, 60, 0
2, 40740, Note_on_c, 0, 79, 100
2, 40740, Note_on_c, 0, 72, 100
2, 40740, Note_on_c, 0, 60, 100
2, 40740, Note_on_c, 0, 67, 100
2, 40740, Note_on_c, 0, 57, 100
2, 40800, Note_on_c, 0, 57, 0
2, 40800, Note_on_c, 0, 60, 0
2, 40800, Note_on_c, 0, 79, 0
2, 40800, Note_on_c, 0, 72, 0
2, 40800, Note_on_c, 0, 67, 0
2, 40800, Note_on_c, 0, 79, 100
2, 40800, Note_on_c, 0, 74, 100
2, 40800, Note_on_c, 0, 67, 100
2, 40800, Note_on_c, 0, 62, 100
2, 40800, Note_on_c, 0, 59, 100
2, 40800, Note_on_c, 0, 55, 100
2, 40860, Note_on_c, 0, 79, 100
2, 40860, Note_on_c, 0, 74, 100
2, 40860, Note_on_c, 0, 67, 100
2, 40860, Note_on_c, 0, 62, 100
2, 40860, Note_on_c, 0, 59, 100
2, 40860, Note_on_c, 0, 55, 100
2, 40920, Note_on_c, 0, 55, 0
2, 40920, Note_on_c, 0, 74, 0
2, 40920, Note_on_c, 0, 74, 0
2, 40920, Note_on_c, 0, 67, 0
2, 40920, Note_on_c, 0, 62, 0
2, 40920, Note_on_c, 0, 79, 0
2, 40920, Note_on_c, 0, 59, 0
2, 40920, Note_on_c, 0, 55, 0
2, 40920, Note_on_c, 0, 67, 0
2, 40920, Note_on_c, 0, 79, 0
2, 40920, Note_on_c, 0, 59, 0
2, 40920, Note_on_c, 0, 62, 0
2, 40920, Note_on_c, 0, 74, 100
2, 40920, Note_on_c, 0, 79, 100
2, 40920, Note_on_c, 0, 67, 100
2, 40920, Note_on_c, 0, 62, 100
2, 40920, Note_on_c, 0, 59, 100
2, 40920, Note_on_c, 0, 55, 100
2, 40980, Note_on_c, 0, 55, 0
2, 40980, Note_on_c, 0, 79, 0
2, 40980, Note_on_c, 0, 67, 0
2, 40980, Note_on_c, 0, 74, 0
2, 40980, Note_on_c, 0, 59, 0
2, 40980, Note_on_c, 0, 62, 0
2, 40980, Note_on_c, 0, 74, 100
2, 40980, Note_on_c, 0, 79, 100
2, 40980, Note_on_c, 0, 67, 100
2, 40980, Note_on_c, 0, 62, 100
2, 40980, Note_on_c, 0, 55, 100
2, 40980, Note_on_c, 0, 59, 100
2, 41040, Note_on_c, 0, 59, 0
2, 41040, Note_on_c, 0, 79, 0
2, 41040, Note_on_c, 0, 67, 0
2, 41040, Note_on_c, 0, 74, 0
2, 41040, Note_on_c, 0, 55, 0
2, 41040, Note_on_c, 0, 62, 0
2, 41040, Note_on_c, 0, 57, 100
2, 41040, Note_on_c, 0, 62, 100
2, 41040, Note_on_c, 0, 69, 100
2, 41040, Note_on_c, 0, 74, 100
2, 41040, Note_on_c, 0, 78, 100
2, 41100, Note_on_c, 0, 78, 0
2, 41100, Note_on_c, 0, 69, 0
2, 41100, Note_on_c, 0, 57, 0
2, 41100, Note_on_c, 0, 62, 0
2, 41100, Note_on_c, 0, 74, 0
2, 41100, Note_on_c, 0, 57, 100
2, 41100, Note_on_c, 0, 62, 100
2, 41100, Note_on_c, 0, 69, 100
2, 41100, Note_on_c, 0, 74, 100
2, 41100, Note_on_c, 0, 78, 100
2, 41160, Note_on_c, 0, 78, 0
2, 41160, Note_on_c, 0, 69, 0
2, 41160, Note_on_c, 0, 57, 0
2, 41160, Note_on_c, 0, 62, 0
2, 41160, Note_on_c, 0, 74, 0
2, 41160, Note_on_c, 0, 57, 100
2, 41160, Note_on_c, 0, 62, 100
2, 41160, Note_on_c, 0, 69, 100
2, 41160, Note_on_c, 0, 74, 100
2, 41160, Note_on_c, 0, 78, 100
2, 41220, Note_on_c, 0, 78, 0
2, 41220, Note_on_c, 0, 69, 0
2, 41220, Note_on_c, 0, 57, 0
2, 41220, Note_on_c, 0, 62, 0
2, 41220, Note_on_c, 0, 74, 0
2, 41220, Note_on_c, 0, 57, 100
2, 41220, Note_on_c, 0, 62, 100
2, 41220, Note_on_c, 0, 69, 100
2, 41220, Note_on_c, 0, 74, 100
2, 41220, Note_on_c, 0, 78, 100
2, 41280, Note_on_c, 0, 78, 0
2, 41280, Note_on_c, 0, 69, 0
2, 41280, Note_on_c, 0, 57, 0
2, 41280, Note_on_c, 0, 62, 0
2, 41280, Note_on_c, 0, 74, 0
2, 41280, Note_on_c, 0, 77, 100
2, 41280, Note_on_c, 0, 72, 100
2, 41280, Note_on_c, 0, 69, 100
2, 41280, Note_on_c, 0, 65, 100
2, 41280, Note_on_c, 0, 60, 100
2, 41280, Note_on_c, 0, 53, 100
2, 41400, Note_on_c, 0, 53, 0
2, 41400, Note_on_c, 0, 72, 0
2, 41400, Note_on_c, 0, 69, 0
2, 41400, Note_on_c, 0, 77, 0
2, 41400, Note_on_c, 0, 60, 0
2, 41400, Note_on_c, 0, 65, 0
2, 41580, Control_c, 0, 7, 103
2, 41580, Note_on_c, 0, 77, 100
2, 41580, Note_on_c, 0, 72, 100
2, 41580, Note_on_c, 0, 69, 100
2, 41580, Note_on_c, 0, 65, 100
2, 41580, Note_on_c, 0, 60, 100
2, 41580, Note_on_c, 0, 53, 100
2, 41640, Note_on_c, 0, 53, 0
2, 41640, Note_on_c, 0, 72, 0
2, 41640, Note_on_c, 0, 69, 0
2, 41640, Note_on_c, 0, 77, 0
2, 41640, Note_on_c, 0, 60, 0
2, 41640, Note_on_c, 0, 65, 0
2, 41640, Note_on_c, 0, 77, 100
2, 41640, Note_on_c, 0, 72, 100
2, 41640, Note_on_c, 0, 69, 100
2, 41640, Note_on_c, 0, 65, 100
2, 41640, Note_on_c, 0, 60, 100
2, 41640, Note_on_c, 0, 53, 100
2, 41650, Control_c, 0, 7, 104
2, 41700, Note_on_c, 0, 53, 0
2, 41700, Note_on_c, 0, 72, 0
2, 41700, Note_on_c, 0, 69, 0
2, 41700, Note_on_c, 0, 77, 0
2, 41700, Note_on_c, 0, 60, 0
2, 41700, Note_on_c, 0, 65, 0
2, 41700, Note_on_c, 0, 79, 100
2, 41700, Note_on_c, 0, 74, 100
2, 41700, Note_on_c, 0, 67, 100
2, 41700, Note_on_c, 0, 62, 100
2, 41700, Note_on_c, 0, 55, 100
2, 41700, Note_on_c, 0, 59, 100
2, 41735, Control_c, 0, 7, 105
2, 41760, Note_on_c, 0, 59, 0
2, 41760, Note_on_c, 0, 74, 0
2, 41760, Note_on_c, 0, 67, 0
2, 41760, Note_on_c, 0, 79, 0
2, 41760, Note_on_c, 0, 55, 0
2, 41760, Note_on_c, 0, 62, 0
2, 41805, Control_c, 0, 7, 106
2, 41820, Note_on_c, 0, 79, 100
2, 41820, Note_on_c, 0, 74, 100
2, 41820, Note_on_c, 0, 67, 100
2, 41820, Note_on_c, 0, 62, 100
2, 41820, Note_on_c, 0, 55, 100
2, 41820, Note_on_c, 0, 59, 100
2, 41830, Control_c, 0, 7, 107
2, 41870, Control_c, 0, 7, 108
2, 41905, Control_c, 0, 7, 109
2, 41925, Control_c, 0, 7, 110
2, 41940, Note_on_c, 0, 59, 0
2, 41940, Note_on_c, 0, 74, 0
2, 41940, Note_on_c, 0, 67, 0
2, 41940, Note_on_c, 0, 79, 0
2, 41940, Note_on_c, 0, 55, 0
2, 41940, Note_on_c, 0, 62, 0
2, 41940, Note_on_c, 0, 79, 100
2, 41940, Note_on_c, 0, 74, 100
2, 41940, Note_on_c, 0, 67, 100
2, 41940, Note_on_c, 0, 59, 100
2, 41940, Note_on_c, 0, 62, 100
2, 41940, Note_on_c, 0, 55, 100
2, 41960, Control_c, 0, 7, 111
2, 41999, Control_c, 0, 7, 112
2, 42060, Note_on_c, 0, 55, 0
2, 42060, Note_on_c, 0, 74, 0
2, 42060, Note_on_c, 0, 67, 0
2, 42060, Note_on_c, 0, 79, 0
2, 42060, Note_on_c, 0, 62, 0
2, 42060, Note_on_c, 0, 59, 0
2, 42060, Note_on_c, 0, 79, 100
2, 42060, Note_on_c, 0, 74, 100
2, 42060, Note_on_c, 0, 67, 100
2, 42060, Note_on_c, 0, 62, 100
2, 42060, Note_on_c, 0, 59, 100
2, 42060, Note_on_c, 0, 55, 100
2, 42180, Note_on_c, 0, 55, 0
2, 42180, Note_on_c, 0, 74, 0
2, 42180, Note_on_c, 0, 67, 0
2, 42180, Note_on_c, 0, 79, 0
2, 42180, Note_on_c, 0, 59, 0
2, 42180, Note_on_c, 0, 62, 0
2, 42180, Note_on_c, 0, 79, 100
2, 42180, Note_on_c, 0, 74, 100
2, 42180, Note_on_c, 0, 67, 100
2, 42180, Note_on_c, 0, 62, 100
2, 42180, Note_on_c, 0, 59, 100
2, 42180, Note_on_c, 0, 55, 100
2, 42240, Note_on_c, 0, 79, 100
2, 42240, Note_on_c, 0, 72, 100
2, 42240, Note_on_c, 0, 67, 100
2, 42240, Note_on_c, 0, 60, 100
2, 42240, Note_on_c, 0, 57, 100
2, 42300, Note_on_c, 0, 55, 0
2, 42300, Note_on_c, 0, 62, 0
2, 42300, Note_on_c, 0, 79, 0
2, 42300, Note_on_c, 0, 67, 0
2, 42300, Note_on_c, 0, 59, 0
2, 42300, Note_on_c, 0, 74, 0
2, 42326, Control_c, 0, 7, 81
2, 42360, Note_on_c, 0, 72, 0
2, 42360, Note_on_c, 0, 60, 0
2, 42360, Note_on_c, 0, 57, 0
2, 42360, Note_on_c, 0, 79, 0
2, 42360, Note_on_c, 0, 67, 0
2, 42360, Note_on_c, 0, 79, 100
2, 42360, Note_on_c, 0, 72, 100
2, 42360, Note_on_c, 0, 67, 100
2, 42360, Note_on_c, 0, 60, 100
2, 42360, Note_on_c, 0, 57, 100
2, 42450, Note_on_c, 0, 79, 100
2, 42450, Note_on_c, 0, 72, 100
2, 42450, Note_on_c, 0, 67, 100
2, 42450, Note_on_c, 0, 60, 100
2, 42450, Note_on_c, 0, 57, 100
2, 42480, Note_on_c, 0, 57, 0
2, 42480, Note_on_c, 0, 67, 0
2, 42480, Note_on_c, 0, 60, 0
2, 42480, Note_on_c, 0, 79, 0
2, 42480, Note_on_c, 0, 57, 0
2, 42480, Note_on_c, 0, 72, 0
2, 42480, Note_on_c, 0, 67, 0
2, 42480, Note_on_c, 0, 72, 0
2, 42480, Note_on_c, 0, 79, 0
2, 42480, Note_on_c, 0, 60, 0
2, 42480, Note_on_c, 0, 79, 100
2, 42480, Note_on_c, 0, 72, 100
2, 42480, Note_on_c, 0, 67, 100
2, 42480, Note_on_c, 0, 60, 100
2, 42480, Note_on_c, 0, 57, 100
2, 42540, Note_on_c, 0, 57, 0
2, 42540, Note_on_c, 0, 67, 0
2, 42540, Note_on_c, 0, 79, 0
2, 42540, Note_on_c, 0, 72, 0
2, 42540, Note_on_c, 0, 60, 0
2, 42540, Note_on_c, 0, 79, 100
2, 42540, Note_on_c, 0, 72, 100
2, 42540, Note_on_c, 0, 67, 100
2, 42540, Note_on_c, 0, 60, 100
2, 42540, Note_on_c, 0, 57, 100
2, 42660, Note_on_c, 0, 57, 0
2, 42660, Note_on_c, 0, 67, 0
2, 42660, Note_on_c, 0, 79, 0
2, 42660, Note_on_c, 0, 72, 0
2, 42660, Note_on_c, 0, 60, 0
2, 42660, Note_on_c, 0, 79, 100
2, 42660, Note_on_c, 0, 72, 100
2, 42660, Note_on_c, 0, 60, 100
2, 42660, Note_on_c, 0, 67, 100
2, 42660, Note_on_c, 0, 57, 100
2, 42720, Note_on_c, 0, 57, 0
2, 42720, Note_on_c, 0, 60, 0
2, 42720, Note_on_c, 0, 79, 0
2, 42720, Note_on_c, 0, 72, 0
2, 42720, Note_on_c, 0, 67, 0
2, 42720, Note_on_c, 0, 79, 100
2, 42720, Note_on_c, 0, 74, 100
2, 42720, Note_on_c, 0, 67, 100
2, 42720, Note_on_c, 0, 62, 100
2, 42720, Note_on_c, 0, 59, 100
2, 42720, Note_on_c, 0, 55, 100
2, 42780, Note_on_c, 0, 79, 100
2, 42780, Note_on_c, 0, 74, 100
2, 42780, Note_on_c, 0, 67, 100
2, 42780, Note_on_c, 0, 62, 100
2, 42780, Note_on_c, 0, 59, 100
2, 42780, Note_on_c, 0, 55, 100
2, 42840, Note_on_c, 0, 55, 0
2, 42840, Note_on_c, 0, 74, 0
2, 42840, Note_on_c, 0, 74, 0
2, 42840, Note_on_c, 0, 67, 0
2, 42840, Note_on_c, 0, 62, 0
2, 42840, Note_on_c, 0, 79, 0
2, 42840, Note_on_c, 0, 59, 0
2, 42840, Note_on_c, 0, 55, 0
2, 42840, Note_on_c, 0, 67, 0
2, 42840, Note_on_c, 0, 79, 0
2, 42840, Note_on_c, 0, 59, 0
2, 42840, Note_on_c, 0, 62, 0
2, 42840, Note_on_c, 0, 74, 100
2, 42840, Note_on_c, 0, 79, 100
2, 42840, Note_on_c, 0, 67, 100
2, 42840, Note_on_c, 0, 62, 100
2, 42840, Note_on_c, 0, 59, 100
2, 42840, Note_on_c, 0, 55, 100
2, 42850, Control_c, 0, 7, 82
2, 42900, Note_on_c, 0, 55, 0
2, 42900, Note_on_c, 0, 79, 0
2, 42900, Note_on_c, 0, 67, 0
2, 42900, Note_on_c, 0, 74, 0
2, 42900, Note_on_c, 0, 59, 0
2, 42900, Note_on_c, 0, 62, 0
2, 42900, Note_on_c, 0, 74, 100
2, 42900, Note_on_c, 0, 79, 100
2, 42900, Note_on_c, 0, 67, 100
2, 42900, Note_on_c, 0, 62, 100
2, 42900, Note_on_c, 0, 55, 100
2, 42900, Note_on_c, 0, 59, 100
2, 42960, Note_on_c, 0, 59, 0
2, 42960, Note_on_c, 0, 79, 0
2, 42960, Note_on_c, 0, 67, 0
2, 42960, Note_on_c, 0, 74, 0
2, 42960, Note_on_c, 0, 55, 0
2, 42960, Note_on_c, 0, 62, 0
2, 42960, Note_on_c, 0, 57, 100
2, 42960, Note_on_c, 0, 62, 100
2, 42960, Note_on_c, 0, 69, 100
2, 42960, Note_on_c, 0, 74, 100
2, 42960, Note_on_c, 0, 78, 100
2, 43020, Note_on_c, 0, 78, 0
2, 43020, Note_on_c, 0, 69, 0
2, 43020, Note_on_c, 0, 57, 0
2, 43020, Note_on_c, 0, 62, 0
2, 43020, Note_on_c, 0, 74, 0
2, 43020, Note_on_c, 0, 57, 100
2, 43020, Note_on_c, 0, 62, 100
2, 43020, Note_on_c, 0, 69, 100
2, 43020, Note_on_c, 0, 74, 100
2, 43020, Note_on_c, 0, 78, 100
2, 43080, Note_on_c, 0, 78, 0
2, 43080, Note_on_c, 0, 69, 0
2, 43080, Note_on_c, 0, 57, 0
2, 43080, Note_on_c, 0, 62, 0
2, 43080, Note_on_c, 0, 74, 0
2, 43080, Note_on_c, 0, 57, 100
2, 43080, Note_on_c, 0, 62, 100
2, 43080, Note_on_c, 0, 69, 100
2, 43080, Note_on_c, 0, 74, 100
2, 43080, Note_on_c, 0, 78, 100
2, 43140, Note_on_c, 0, 78, 0
2, 43140, Note_on_c, 0, 69, 0
2, 43140, Note_on_c, 0, 57, 0
2, 43140, Note_on_c, 0, 62, 0
2, 43140, Note_on_c, 0, 74, 0
2, 43140, Note_on_c, 0, 57, 100
2, 43140, Note_on_c, 0, 62, 100
2, 43140, Note_on_c, 0, 69, 100
2, 43140, Note_on_c, 0, 74, 100
2, 43140, Note_on_c, 0, 78, 100
2, 43200, Note_on_c, 0, 78, 0
2, 43200, Note_on_c, 0, 69, 0
2, 43200, Note_on_c, 0, 57, 0
2, 43200, Note_on_c, 0, 62, 0
2, 43200, Note_on_c, 0, 74, 0
2, 43200, Note_on_c, 0, 79, 100
2, 43200, Note_on_c, 0, 72, 100
2, 43200, Note_on_c, 0, 67, 100
2, 43200, Note_on_c, 0, 60, 100
2, 43200, Note_on_c, 0, 57, 100
2, 43320, Note_on_c, 0, 57, 0
2, 43320, Note_on_c, 0, 67, 0
2, 43320, Note_on_c, 0, 79, 0
2, 43320, Note_on_c, 0, 72, 0
2, 43320, Note_on_c, 0, 60, 0
2, 43320, Note_on_c, 0, 79, 100
2, 43320, Note_on_c, 0, 72, 100
2, 43320, Note_on_c, 0, 67, 100
2, 43320, Note_on_c, 0, 60, 100
2, 43320, Note_on_c, 0, 57, 100
2, 43410, Note_on_c, 0, 79, 100
2, 43410, Note_on_c, 0, 72, 100
2, 43410, Note_on_c, 0, 67, 100
2, 43410, Note_on_c, 0, 60, 100
2, 43410, Note_on_c, 0, 57, 100
2, 43440, Note_on_c, 0, 57, 0
2, 43440, Note_on_c, 0, 67, 0
2, 43440, Note_on_c, 0, 60, 0
2, 43440, Note_on_c, 0, 79, 0
2, 43440, Note_on_c, 0, 57, 0
2, 43440, Note_on_c, 0, 72, 0
2, 43440, Note_on_c, 0, 67, 0
2, 43440, Note_on_c, 0, 72, 0
2, 43440, Note_on_c, 0, 79, 0
2, 43440, Note_on_c, 0, 60, 0
2, 43440, Note_on_c, 0, 79, 100
2, 43440, Note_on_c, 0, 72, 100
2, 43440, Note_on_c, 0, 67, 100
2, 43440, Note_on_c, 0, 60, 100
2, 43440, Note_on_c, 0, 57, 100
2, 43500, Note_on_c, 0, 57, 0
2, 43500, Note_on_c, 0, 67, 0
2, 43500, Note_on_c, 0, 79, 0
2, 43500, Note_on_c, 0, 72, 0
2, 43500, Note_on_c, 0, 60, 0
2, 43500, Note_on_c, 0, 79, 100
2, 43500, Note_on_c, 0, 72, 100
2, 43500, Note_on_c, 0, 67, 100
2, 43500, Note_on_c, 0, 60, 100
2, 43500, Note_on_c, 0, 57, 100
2, 43620, Note_on_c, 0, 57, 0
2, 43620, Note_on_c, 0, 67, 0
2, 43620, Note_on_c, 0, 79, 0
2, 43620, Note_on_c, 0, 72, 0
2, 43620, Note_on_c, 0, 60, 0
2, 43620, Note_on_c, 0, 79, 100
2, 43620, Note_on_c, 0, 72, 100
2, 43620, Note_on_c, 0, 60, 100
2, 43620, Note_on_c, 0, 67, 100
2, 43620, Note_on_c, 0, 57, 100
2, 43680, Note_on_c, 0, 57, 0
2, 43680, Note_on_c, 0, 60, 0
2, 43680, Note_on_c, 0, 79, 0
2, 43680, Note_on_c, 0, 72, 0
2, 43680, Note_on_c, 0, 67, 0
2, 43680, Note_on_c, 0, 79, 100
2, 43680, Note_on_c, 0, 74, 100
2, 43680, Note_on_c, 0, 67, 100
2, 43680, Note_on_c, 0, 62, 100
2, 43680, Note_on_c, 0, 59, 100
2, 43680, Note_on_c, 0, 55, 100
2, 43740, Note_on_c, 0, 79, 100
2, 43740, Note_on_c, 0, 74, 100
2, 43740, Note_on_c, 0, 67, 100
2, 43740, Note_on_c, 0, 62, 100
2, 43740, Note_on_c, 0, 59, 100
2, 43740, Note_on_c, 0, 55, 100
2, 43800, Note_on_c, 0, 55, 0
2, 43800, Note_on_c, 0, 74, 0
2, 43800, Note_on_c, 0, 74, 0
2, 43800, Note_on_c, 0, 67, 0
2, 43800, Note_on_c, 0, 62, 0
2, 43800, Note_on_c, 0, 79, 0
2, 43800, Note_on_c, 0, 59, 0
2, 43800, Note_on_c, 0, 55, 0
2, 43800, Note_on_c, 0, 67, 0
2, 43800, Note_on_c, 0, 79, 0
2, 43800, Note_on_c, 0, 59, 0
2, 43800, Note_on_c, 0, 62, 0
2, 43800, Note_on_c, 0, 74, 100
2, 43800, Note_on_c, 0, 79, 100
2, 43800, Note_on_c, 0, 67, 100
2, 43800, Note_on_c, 0, 62, 100
2, 43800, Note_on_c, 0, 59, 100
2, 43800, Note_on_c, 0, 55, 100
2, 43860, Note_on_c, 0, 55, 0
2, 43860, Note_on_c, 0, 79, 0
2, 43860, Note_on_c, 0, 67, 0
2, 43860, Note_on_c, 0, 74, 0
2, 43860, Note_on_c, 0, 59, 0
2, 43860, Note_on_c, 0, 62, 0
2, 43860, Note_on_c, 0, 74, 100
2, 43860, Note_on_c, 0, 79, 100
2, 43860, Note_on_c, 0, 67, 100
2, 43860, Note_on_c, 0, 62, 100
2, 43860, Note_on_c, 0, 55, 100
2, 43860, Note_on_c, 0, 59, 100
2, 43920, Note_on_c, 0, 59, 0
2, 43920, Note_on_c, 0, 79, 0
2, 43920, Note_on_c, 0, 67, 0
2, 43920, Note_on_c, 0, 74, 0
2, 43920, Note_on_c, 0, 55, 0
2, 43920, Note_on_c, 0, 62, 0
2, 43920, Note_on_c, 0, 57, 100
2, 43920, Note_on_c, 0, 62, 100
2, 43920, Note_on_c, 0, 69, 100
2, 43920, Note_on_c, 0, 74, 100
2, 43920, Note_on_c, 0, 78, 100
2, 43980, Note_on_c, 0, 78, 0
2, 43980, Note_on_c, 0, 69, 0
2, 43980, Note_on_c, 0, 57, 0
2, 43980, Note_on_c, 0, 62, 0
2, 43980, Note_on_c, 0, 74, 0
2, 43980, Note_on_c, 0, 57, 100
2, 43980, Note_on_c, 0, 62, 100
2, 43980, Note_on_c, 0, 69, 100
2, 43980, Note_on_c, 0, 74, 100
2, 43980, Note_on_c, 0, 78, 100
2, 44040, Note_on_c, 0, 78, 0
2, 44040, Note_on_c, 0, 69, 0
2, 44040, Note_on_c, 0, 57, 0
2, 44040, Note_on_c, 0, 62, 0
2, 44040, Note_on_c, 0, 74, 0
2, 44040, Note_on_c, 0, 57, 100
2, 44040, Note_on_c, 0, 62, 100
2, 44040, Note_on_c, 0, 69, 100
2, 44040, Note_on_c, 0, 74, 100
2, 44040, Note_on_c, 0, 78, 100
2, 44100, Note_on_c, 0, 78, 0
2, 44100, Note_on_c, 0, 69, 0
2, 44100, Note_on_c, 0, 57, 0
2, 44100, Note_on_c, 0, 62, 0
2, 44100, Note_on_c, 0, 74, 0
2, 44100, Note_on_c, 0, 57, 100
2, 44100, Note_on_c, 0, 62, 100
2, 44100, Note_on_c, 0, 69, 100
2, 44100, Note_on_c, 0, 74, 100
2, 44100, Note_on_c, 0, 78, 100
2, 44160, Note_on_c, 0, 78, 0
2, 44160, Note_on_c, 0, 69, 0
2, 44160, Note_on_c, 0, 57, 0
2, 44160, Note_on_c, 0, 62, 0
2, 44160, Note_on_c, 0, 74, 0
2, 44160, Note_on_c, 0, 79, 100
2, 44160, Note_on_c, 0, 72, 100
2, 44160, Note_on_c, 0, 67, 100
2, 44160, Note_on_c, 0, 60, 100
2, 44160, Note_on_c, 0, 57, 100
2, 44280, Note_on_c, 0, 57, 0
2, 44280, Note_on_c, 0, 67, 0
2, 44280, Note_on_c, 0, 79, 0
2, 44280, Note_on_c, 0, 72, 0
2, 44280, Note_on_c, 0, 60, 0
2, 44280, Note_on_c, 0, 79, 100
2, 44280, Note_on_c, 0, 72, 100
2, 44280, Note_on_c, 0, 67, 100
2, 44280, Note_on_c, 0, 60, 100
2, 44280, Note_on_c, 0, 57, 100
2, 44370, Note_on_c, 0, 79, 100
2, 44370, Note_on_c, 0, 72, 100
2, 44370, Note_on_c, 0, 67, 100
2, 44370, Note_on_c, 0, 60, 100
2, 44370, Note_on_c, 0, 57, 100
2, 44400, Note_on_c, 0, 57, 0
2, 44400, Note_on_c, 0, 67, 0
2, 44400, Note_on_c, 0, 60, 0
2, 44400, Note_on_c, 0, 79, 0
2, 44400, Note_on_c, 0, 57, 0
2, 44400, Note_on_c, 0, 72, 0
2, 44400, Note_on_c, 0, 67, 0
2, 44400, Note_on_c, 0, 72, 0
2, 44400, Note_on_c, 0, 79, 0
2, 44400, Note_on_c, 0, 60, 0
2, 44400, Note_on_c, 0, 79, 100
2, 44400, Note_on_c, 0, 72, 100
2, 44400, Note_on_c, 0, 67, 100
2, 44400, Note_on_c, 0, 60, 100
2, 44400, Note_on_c, 0, 57, 100
2, 44460, Note_on_c, 0, 57, 0
2, 44460, Note_on_c, 0, 67, 0
2, 44460, Note_on_c, 0, 79, 0
2, 44460, Note_on_c, 0, 72, 0
2, 44460, Note_on_c, 0, 60, 0
2, 44460, Note_on_c, 0, 79, 100
2, 44460, Note_on_c, 0, 72, 100
2, 44460, Note_on_c, 0, 67, 100
2, 44460, Note_on_c, 0, 60, 100
2, 44460, Note_on_c, 0, 57, 100
2, 44580, Note_on_c, 0, 57, 0
2, 44580, Note_on_c, 0, 67, 0
2, 44580, Note_on_c, 0, 79, 0
2, 44580, Note_on_c, 0, 72, 0
2, 44580, Note_on_c, 0, 60, 0
2, 44580, Note_on_c, 0, 79, 100
2, 44580, Note_on_c, 0, 72, 100
2, 44580, Note_on_c, 0, 60, 100
2, 44580, Note_on_c, 0, 67, 100
2, 44580, Note_on_c, 0, 57, 100
2, 44640, Note_on_c, 0, 57, 0
2, 44640, Note_on_c, 0, 60, 0
2, 44640, Note_on_c, 0, 79, 0
2, 44640, Note_on_c, 0, 72, 0
2, 44640, Note_on_c, 0, 67, 0
2, 44640, Note_on_c, 0, 79, 100
2, 44640, Note_on_c, 0, 74, 100
2, 44640, Note_on_c, 0, 67, 100
2, 44640, Note_on_c, 0, 62, 100
2, 44640, Note_on_c, 0, 59, 100
2, 44640, Note_on_c, 0, 55, 100
2, 44700, Note_on_c, 0, 79, 100
2, 44700, Note_on_c, 0, 74, 100
2, 44700, Note_on_c, 0, 67, 100
2, 44700, Note_on_c, 0, 62, 100
2, 44700, Note_on_c, 0, 59, 100
2, 44700, Note_on_c, 0, 55, 100
2, 44760, Note_on_c, 0, 55, 0
2, 44760, Note_on_c, 0, 74, 0
2, 44760, Note_on_c, 0, 74, 0
2, 44760, Note_on_c, 0, 67, 0
2, 44760, Note_on_c, 0, 62, 0
2, 44760, Note_on_c, 0, 79, 0
2, 44760, Note_on_c, 0, 59, 0
2, 44760, Note_on_c, 0, 55, 0
2, 44760, Note_on_c, 0, 67, 0
2, 44760, Note_on_c, 0, 79, 0
2, 44760, Note_on_c, 0, 59, 0
2, 44760, Note_on_c, 0, 62, 0
2, 44760, Note_on_c, 0, 74, 100
2, 44760, Note_on_c, 0, 79, 100
2, 44760, Note_on_c, 0, 67, 100
2, 44760, Note_on_c, 0, 62, 100
2, 44760, Note_on_c, 0, 59, 100
2, 44760, Note_on_c, 0, 55, 100
2, 44820, Note_on_c, 0, 55, 0
2, 44820, Note_on_c, 0, 79, 0
2, 44820, Note_on_c, 0, 67, 0
2, 44820, Note_on_c, 0, 74, 0
2, 44820, Note_on_c, 0, 59, 0
2, 44820, Note_on_c, 0, 62, 0
2, 44820, Note_on_c, 0, 74, 100
2, 44820, Note_on_c, 0, 79, 100
2, 44820, Note_on_c, 0, 67, 100
2, 44820, Note_on_c, 0, 62, 100
2, 44820, Note_on_c, 0, 55, 100
2, 44820, Note_on_c, 0, 59, 100
2, 44880, Note_on_c, 0, 59, 0
2, 44880, Note_on_c, 0, 79, 0
2, 44880, Note_on_c, 0, 67, 0
2, 44880, Note_on_c, 0, 74, 0
2, 44880, Note_on_c, 0, 55, 0
2, 44880, Note_on_c, 0, 62, 0
2, 44880, Note_on_c, 0, 57, 100
2, 44880, Note_on_c, 0, 62, 100
2, 44880, Note_on_c, 0, 69, 100
2, 44880, Note_on_c, 0, 74, 100
2, 44880, Note_on_c, 0, 78, 100
2, 44940, Note_on_c, 0, 78, 0
2, 44940, Note_on_c, 0, 69, 0
2, 44940, Note_on_c, 0, 57, 0
2, 44940, Note_on_c, 0, 62, 0
2, 44940, Note_on_c, 0, 74, 0
2, 44940, Note_on_c, 0, 57, 100
2, 44940, Note_on_c, 0, 62, 100
2, 44940, Note_on_c, 0, 69, 100
2, 44940, Note_on_c, 0, 74, 100
2, 44940, Note_on_c, 0, 78, 100
2, 45000, Note_on_c, 0, 78, 0
2, 45000, Note_on_c, 0, 69, 0
2, 45000, Note_on_c, 0, 57, 0
2, 45000, Note_on_c, 0, 62, 0
2, 45000, Note_on_c, 0, 74, 0
2, 45000, Note_on_c, 0, 57, 100
2, 45000, Note_on_c, 0, 62, 100
2, 45000, Note_on_c, 0, 69, 100
2, 45000, Note_on_c, 0, 74, 100
2, 45000, Note_on_c, 0, 78, 100
2, 45060, Note_on_c, 0, 78, 0
2, 45060, Note_on_c, 0, 69, 0
2, 45060, Note_on_c, 0, 57, 0
2, 45060, Note_on_c, 0, 62, 0
2, 45060, Note_on_c, 0, 74, 0
2, 45060, Note_on_c, 0, 57, 100
2, 45060, Note_on_c, 0, 62, 100
2, 45060, Note_on_c, 0, 69, 100
2, 45060, Note_on_c, 0, 74, 100
2, 45060, Note_on_c, 0, 78, 100
2, 45120, Note_on_c, 0, 78, 0
2, 45120, Note_on_c, 0, 69, 0
2, 45120, Note_on_c, 0, 57, 0
2, 45120, Note_on_c, 0, 62, 0
2, 45120, Note_on_c, 0, 74, 0
2, 45120, Note_on_c, 0, 77, 100
2, 45120, Note_on_c, 0, 72, 100
2, 45120, Note_on_c, 0, 69, 100
2, 45120, Note_on_c, 0, 65, 100
2, 45120, Note_on_c, 0, 60, 100
2, 45120, Note_on_c, 0, 53, 100
2, 45240, Note_on_c, 0, 53, 0
2, 45240, Note_on_c, 0, 72, 0
2, 45240, Note_on_c, 0, 69, 0
2, 45240, Note_on_c, 0, 77, 0
2, 45240, Note_on_c, 0, 60, 0
2, 45240, Note_on_c, 0, 65, 0
2, 45420, Note_on_c, 0, 77, 100
2, 45420, Note_on_c, 0, 72, 100
2, 45420, Note_on_c, 0, 69, 100
2, 45420, Note_on_c, 0, 65, 100
2, 45420, Note_on_c, 0, 60, 100
2, 45420, Note_on_c, 0, 53, 100
2, 45480, Note_on_c, 0, 53, 0
2, 45480, Note_on_c, 0, 72, 0
2, 45480, Note_on_c, 0, 69, 0
2, 45480, Note_on_c, 0, 77, 0
2, 45480, Note_on_c, 0, 60, 0
2, 45480, Note_on_c, 0, 65, 0
2, 45480, Note_on_c, 0, 77, 100
2, 45480, Note_on_c, 0, 72, 100
2, 45480, Note_on_c, 0, 69, 100
2, 45480, Note_on_c, 0, 65, 100
2, 45480, Note_on_c, 0, 60, 100
2, 45480, Note_on_c, 0, 53, 100
2, 45540, Note_on_c, 0, 53, 0
2, 45540, Note_on_c, 0, 72, 0
2, 45540, Note_on_c, 0, 69, 0
2, 45540, Note_on_c, 0, 77, 0
2, 45540, Note_on_c, 0, 60, 0
2, 45540, Note_on_c, 0, 65, 0
2, 45540, Note_on_c, 0, 79, 100
2, 45540, Note_on_c, 0, 74, 100
2, 45540, Note_on_c, 0, 67, 100
2, 45540, Note_on_c, 0, 62, 100
2, 45540, Note_on_c, 0, 55, 100
2, 45540, Note_on_c, 0, 59, 100
2, 45600, Note_on_c, 0, 59, 0
2, 45600, Note_on_c, 0, 74, 0
2, 45600, Note_on_c, 0, 67, 0
2, 45600, Note_on_c, 0, 79, 0
2, 45600, Note_on_c, 0, 55, 0
2, 45600, Note_on_c, 0, 62, 0
2, 45660, Note_on_c, 0, 79, 100
2, 45660, Note_on_c, 0, 74, 100
2, 45660, Note_on_c, 0, 67, 100
2, 45660, Note_on_c, 0, 62, 100
2, 45660, Note_on_c, 0, 55, 100
2, 45660, Note_on_c, 0, 59, 100
2, 45780, Note_on_c, 0, 59, 0
2, 45780, Note_on_c, 0, 74, 0
2, 45780, Note_on_c, 0, 67, 0
2, 45780, Note_on_c, 0, 79, 0
2, 45780, Note_on_c, 0, 55, 0
2, 45780, Note_on_c, 0, 62, 0
2, 45780, Note_on_c, 0, 79, 100
2, 45780, Note_on_c, 0, 74, 100
2, 45780, Note_on_c, 0, 67, 100
2, 45780, Note_on_c, 0, 59, 100
2, 45780, Note_on_c, 0, 62, 100
2, 45780, Note_on_c, 0, 55, 100
2, 45900, Note_on_c, 0, 55, 0
2, 45900, Note_on_c, 0, 74, 0
2, 45900, Note_on_c, 0, 67, 0
2, 45900, Note_on_c, 0, 79, 0
2, 45900, Note_on_c, 0, 62, 0
2, 45900, Note_on_c, 0, 59, 0
2, 45900, Note_on_c, 0, 79, 100
2, 45900, Note_on_c, 0, 74, 100
2, 45900, Note_on_c, 0, 67, 100
2, 45900, Note_on_c, 0, 62, 100
2, 45900, Note_on_c, 0, 59, 100
2, 45900, Note_on_c, 0, 55, 100
2, 46020, Note_on_c, 0, 55, 0
2, 46020, Note_on_c, 0, 74, 0
2, 46020, Note_on_c, 0, 67, 0
2, 46020, Note_on_c, 0, 79, 0
2, 46020, Note_on_c, 0, 59, 0
2, 46020, Note_on_c, 0, 62, 0
2, 46020, Note_on_c, 0, 79, 100
2, 46020, Note_on_c, 0, 74, 100
2, 46020, Note_on_c, 0, 67, 100
2, 46020, Note_on_c, 0, 62, 100
2, 46020, Note_on_c, 0, 59, 100
2, 46020, Note_on_c, 0, 55, 100
2, 46080, Note_on_c, 0, 79, 100
2, 46080, Note_on_c, 0, 72, 100
2, 46080, Note_on_c, 0, 67, 100
2, 46080, Note_on_c, 0, 60, 100
2, 46080, Note_on_c, 0, 57, 100
2, 46140, Note_on_c, 0, 55, 0
2, 46140, Note_on_c, 0, 62, 0
2, 46140, Note_on_c, 0, 79, 0
2, 46140, Note_on_c, 0, 67, 0
2, 46140, Note_on_c, 0, 59, 0
2, 46140, Note_on_c, 0, 74, 0
2, 46200, Note_on_c, 0, 72, 0
2, 46200, Note_on_c, 0, 60, 0
2, 46200, Note_on_c, 0, 57, 0
2, 46200, Note_on_c, 0, 79, 0
2, 46200, Note_on_c, 0, 67, 0
2, 46200, Note_on_c, 0, 79, 100
2, 46200, Note_on_c, 0, 72, 100
2, 46200, Note_on_c, 0, 67, 100
2, 46200, Note_on_c, 0, 60, 100
2, 46200, Note_on_c, 0, 57, 100
2, 46290, Note_on_c, 0, 79, 100
2, 46290, Note_on_c, 0, 72, 100
2, 46290, Note_on_c, 0, 67, 100
2, 46290, Note_on_c, 0, 60, 100
2, 46290, Note_on_c, 0, 57, 100
2, 46320, Note_on_c, 0, 57, 0
2, 46320, Note_on_c, 0, 67, 0
2, 46320, Note_on_c, 0, 60, 0
2, 46320, Note_on_c, 0, 79, 0
2, 46320, Note_on_c, 0, 57, 0
2, 46320, Note_on_c, 0, 72, 0
2, 46320, Note_on_c, 0, 67, 0
2, 46320, Note_on_c, 0, 72, 0
2, 46320, Note_on_c, 0, 79, 0
2, 46320, Note_on_c, 0, 60, 0
2, 46320, Note_on_c, 0, 79, 100
2, 46320, Note_on_c, 0, 72, 100
2, 46320, Note_on_c, 0, 67, 100
2, 46320, Note_on_c, 0, 60, 100
2, 46320, Note_on_c, 0, 57, 100
2, 46380, Note_on_c, 0, 57, 0
2, 46380, Note_on_c, 0, 67, 0
2, 46380, Note_on_c, 0, 79, 0
2, 46380, Note_on_c, 0, 72, 0
2, 46380, Note_on_c, 0, 60, 0
2, 46380, Note_on_c, 0, 79, 100
2, 46380, Note_on_c, 0, 72, 100
2, 46380, Note_on_c, 0, 67, 100
2, 46380, Note_on_c, 0, 60, 100
2, 46380, Note_on_c, 0, 57, 100
2, 46500, Note_on_c, 0, 57, 0
2, 46500, Note_on_c, 0, 67, 0
2, 46500, Note_on_c, 0, 79, 0
2, 46500, Note_on_c, 0, 72, 0
2, 46500, Note_on_c, 0, 60, 0
2, 46500, Note_on_c, 0, 79, 100
2, 46500, Note_on_c, 0, 72, 100
2, 46500, Note_on_c, 0, 60, 100
2, 46500, Note_on_c, 0, 67, 100
2, 46500, Note_on_c, 0, 57, 100
2, 46560, Note_on_c, 0, 57, 0
2, 46560, Note_on_c, 0, 60, 0
2, 46560, Note_on_c, 0, 79, 0
2, 46560, Note_on_c, 0, 72, 0
2, 46560, Note_on_c, 0, 67, 0
2, 46560, Note_on_c, 0, 79, 100
2, 46560, Note_on_c, 0, 74, 100
2, 46560, Note_on_c, 0, 67, 100
2, 46560, Note_on_c, 0, 62, 100
2, 46560, Note_on_c, 0, 59, 100
2, 46560, Note_on_c, 0, 55, 100
2, 46620, Note_on_c, 0, 79, 100
2, 46620, Note_on_c, 0, 74, 100
2, 46620, Note_on_c, 0, 67, 100
2, 46620, Note_on_c, 0, 62, 100
2, 46620, Note_on_c, 0, 59, 100
2, 46620, Note_on_c, 0, 55, 100
2, 46680, Note_on_c, 0, 55, 0
2, 46680, Note_on_c, 0, 74, 0
2, 46680, Note_on_c, 0, 74, 0
2, 46680, Note_on_c, 0, 67, 0
2, 46680, Note_on_c, 0, 62, 0
2, 46680, Note_on_c, 0, 79, 0
2, 46680, Note_on_c, 0, 59, 0
2, 46680, Note_on_c, 0, 55, 0
2, 46680, Note_on_c, 0, 67, 0
2, 46680, Note_on_c, 0, 79, 0
2, 46680, Note_on_c, 0, 59, 0
2, 46680, Note_on_c, 0, 62, 0
2, 46680, Note_on_c, 0, 74, 100
2, 46680, Note_on_c, 0, 79, 100
2, 46680, Note_on_c, 0, 67, 100
2, 46680, Note_on_c, 0, 62, 100
2, 46680, Note_on_c, 0, 59, 100
2, 46680, Note_on_c, 0, 55, 100
2, 46740, Note_on_c, 0, 55, 0
2, 46740, Note_on_c, 0, 79, 0
2, 46740, Note_on_c, 0, 67, 0
2, 46740, Note_on_c, 0, 74, 0
2, 46740, Note_on_c, 0, 59, 0
2, 46740, Note_on_c, 0, 62, 0
2, 46740, Note_on_c, 0, 74, 100
2, 46740, Note_on_c, 0, 79, 100
2, 46740, Note_on_c, 0, 67, 100
2, 46740, Note_on_c, 0, 62, 100
2, 46740, Note_on_c, 0, 55, 100
2, 46740, Note_on_c, 0, 59, 100
2, 46800, Note_on_c, 0, 59, 0
2, 46800, Note_on_c, 0, 79, 0
2, 46800, Note_on_c, 0, 67, 0
2, 46800, Note_on_c, 0, 74, 0
2, 46800, Note_on_c, 0, 55, 0
2, 46800, Note_on_c, 0, 62, 0
2, 46800, Note_on_c, 0, 57, 100
2, 46800, Note_on_c, 0, 62, 100
2, 46800, Note_on_c, 0, 69, 100
2, 46800, Note_on_c, 0, 74, 100
2, 46800, Note_on_c, 0, 78, 100
2, 46860, Note_on_c, 0, 78, 0
2, 46860, Note_on_c, 0, 69, 0
2, 46860, Note_on_c, 0, 57, 0
2, 46860, Note_on_c, 0, 62, 0
2, 46860, Note_on_c, 0, 74, 0
2, 46860, Note_on_c, 0, 57, 100
2, 46860, Note_on_c, 0, 62, 100
2, 46860, Note_on_c, 0, 69, 100
2, 46860, Note_on_c, 0, 74, 100
2, 46860, Note_on_c, 0, 78, 100
2, 46920, Note_on_c, 0, 78, 0
2, 46920, Note_on_c, 0, 69, 0
2, 46920, Note_on_c, 0, 57, 0
2, 46920, Note_on_c, 0, 62, 0
2, 46920, Note_on_c, 0, 74, 0
2, 46920, Note_on_c, 0, 57, 100
2, 46920, Note_on_c, 0, 62, 100
2, 46920, Note_on_c, 0, 69, 100
2, 46920, Note_on_c, 0, 74, 100
2, 46920, Note_on_c, 0, 78, 100
2, 46980, Note_on_c, 0, 78, 0
2, 46980, Note_on_c, 0, 69, 0
2, 46980, Note_on_c, 0, 57, 0
2, 46980, Note_on_c, 0, 62, 0
2, 46980, Note_on_c, 0, 74, 0
2, 46980, Note_on_c, 0, 57, 100
2, 46980, Note_on_c, 0, 62, 100
2, 46980, Note_on_c, 0, 69, 100
2, 46980, Note_on_c, 0, 74, 100
2, 46980, Note_on_c, 0, 78, 100
2, 47040, Note_on_c, 0, 78, 0
2, 47040, Note_on_c, 0, 69, 0
2, 47040, Note_on_c, 0, 57, 0
2, 47040, Note_on_c, 0, 62, 0
2, 47040, Note_on_c, 0, 74, 0
2, 47040, Note_on_c, 0, 79, 100
2, 47040, Note_on_c, 0, 72, 100
2, 47040, Note_on_c, 0, 67, 100
2, 47040, Note_on_c, 0, 60, 100
2, 47040, Note_on_c, 0, 57, 100
2, 47160, Note_on_c, 0, 57, 0
2, 47160, Note_on_c, 0, 67, 0
2, 47160, Note_on_c, 0, 79, 0
2, 47160, Note_on_c, 0, 72, 0
2, 47160, Note_on_c, 0, 60, 0
2, 47160, Note_on_c, 0, 79, 100
2, 47160, Note_on_c, 0, 72, 100
2, 47160, Note_on_c, 0, 67, 100
2, 47160, Note_on_c, 0, 60, 100
2, 47160, Note_on_c, 0, 57, 100
2, 47250, Note_on_c, 0, 79, 100
2, 47250, Note_on_c, 0, 72, 100
2, 47250, Note_on_c, 0, 67, 100
2, 47250, Note_on_c, 0, 60, 100
2, 47250, Note_on_c, 0, 57, 100
2, 47280, Note_on_c, 0, 57, 0
2, 47280, Note_on_c, 0, 67, 0
2, 47280, Note_on_c, 0, 60, 0
2, 47280, Note_on_c, 0, 79, 0
2, 47280, Note_on_c, 0, 57, 0
2, 47280, Note_on_c, 0, 72, 0
2, 47280, Note_on_c, 0, 67, 0
2, 47280, Note_on_c, 0, 72, 0
2, 47280, Note_on_c, 0, 79, 0
2, 47280, Note_on_c, 0, 60, 0
2, 47280, Note_on_c, 0, 79, 100
2, 47280, Note_on_c, 0, 72, 100
2, 47280, Note_on_c, 0, 67, 100
2, 47280, Note_on_c, 0, 60, 100
2, 47280, Note_on_c, 0, 57, 100
2, 47340, Note_on_c, 0, 57, 0
2, 47340, Note_on_c, 0, 67, 0
2, 47340, Note_on_c, 0, 79, 0
2, 47340, Note_on_c, 0, 72, 0
2, 47340, Note_on_c, 0, 60, 0
2, 47340, Note_on_c, 0, 79, 100
2, 47340, Note_on_c, 0, 72, 100
2, 47340, Note_on_c, 0, 67, 100
2, 47340, Note_on_c, 0, 60, 100
2, 47340, Note_on_c, 0, 57, 100
2, 47460, Note_on_c, 0, 57, 0
2, 47460, Note_on_c, 0, 67, 0
2, 47460, Note_on_c, 0, 79, 0
2, 47460, Note_on_c, 0, 72, 0
2, 47460, Note_on_c, 0, 60, 0
2, 47460, Note_on_c, 0, 79, 100
2, 47460, Note_on_c, 0, 72, 100
2, 47460, Note_on_c, 0, 60, 100
2, 47460, Note_on_c, 0, 67, 100
2, 47460, Note_on_c, 0, 57, 100
2, 47520, Note_on_c, 0, 57, 0
2, 47520, Note_on_c, 0, 60, 0
2, 47520, Note_on_c, 0, 79, 0
2, 47520, Note_on_c, 0, 72, 0
2, 47520, Note_on_c, 0, 67, 0
2, 47520, Note_on_c, 0, 79, 100
2, 47520, Note_on_c, 0, 74, 100
2, 47520, Note_on_c, 0, 67, 100
2, 47520, Note_on_c, 0, 62, 100
2, 47520, Note_on_c, 0, 59, 100
2, 47520, Note_on_c, 0, 55, 100
2, 47580, Note_on_c, 0, 79, 100
2, 47580, Note_on_c, 0, 74, 100
2, 47580, Note_on_c, 0, 67, 100
2, 47580, Note_on_c, 0, 62, 100
2, 47580, Note_on_c, 0, 59, 100
2, 47580, Note_on_c, 0, 55, 100
2, 47640, Note_on_c, 0, 55, 0
2, 47640, Note_on_c, 0, 74, 0
2, 47640, Note_on_c, 0, 74, 0
2, 47640, Note_on_c, 0, 67, 0
2, 47640, Note_on_c, 0, 62, 0
2, 47640, Note_on_c, 0, 79, 0
2, 47640, Note_on_c, 0, 59, 0
2, 47640, Note_on_c, 0, 55, 0
2, 47640, Note_on_c, 0, 67, 0
2, 47640, Note_on_c, 0, 79, 0
2, 47640, Note_on_c, 0, 59, 0
2, 47640, Note_on_c, 0, 62, 0
2, 47640, Note_on_c, 0, 74, 100
2, 47640, Note_on_c, 0, 79, 100
2, 47640, Note_on_c, 0, 67, 100
2, 47640, Note_on_c, 0, 62, 100
2, 47640, Note_on_c, 0, 59, 100
2, 47640, Note_on_c, 0, 55, 100
2, 47700, Note_on_c, 0, 55, 0
2, 47700, Note_on_c, 0, 79, 0
2, 47700, Note_on_c, 0, 67, 0
2, 47700, Note_on_c, 0, 74, 0
2, 47700, Note_on_c, 0, 59, 0
2, 47700, Note_on_c, 0, 62, 0
2, 47700, Note_on_c, 0, 74, 100
2, 47700, Note_on_c, 0, 79, 100
2, 47700, Note_on_c, 0, 67, 100
2, 47700, Note_on_c, 0, 62, 100
2, 47700, Note_on_c, 0, 55, 100
2, 47700, Note_on_c, 0, 59, 100
2, 47760, Note_on_c, 0, 59, 0
2, 47760, Note_on_c, 0, 79, 0
2, 47760, Note_on_c, 0, 67, 0
2, 47760, Note_on_c, 0, 74, 0
2, 47760, Note_on_c, 0, 55, 0
2, 47760, Note_on_c, 0, 62, 0
2, 47760, Note_on_c, 0, 57, 100
2, 47760, Note_on_c, 0, 62, 100
2, 47760, Note_on_c, 0, 69, 100
2, 47760, Note_on_c, 0, 74, 100
2, 47760, Note_on_c, 0, 78, 100
2, 47820, Note_on_c, 0, 78, 0
2, 47820, Note_on_c, 0, 69, 0
2, 47820, Note_on_c, 0, 57, 0
2, 47820, Note_on_c, 0, 62, 0
2, 47820, Note_on_c, 0, 74, 0
2, 47820, Note_on_c, 0, 57, 100
2, 47820, Note_on_c, 0, 62, 100
2, 47820, Note_on_c, 0, 69, 100
2, 47820, Note_on_c, 0, 74, 100
2, 47820, Note_on_c, 0, 78, 100
2, 47880, Note_on_c, 0, 78, 0
2, 47880, Note_on_c, 0, 69, 0
2, 47880, Note_on_c, 0, 57, 0
2, 47880, Note_on_c, 0, 62, 0
2, 47880, Note_on_c, 0, 74, 0
2, 47880, Note_on_c, 0, 57, 100
2, 47880, Note_on_c, 0, 62, 100
2, 47880, Note_on_c, 0, 69, 100
2, 47880, Note_on_c, 0, 74, 100
2, 47880, Note_on_c, 0, 78, 100
2, 47940, Note_on_c, 0, 78, 0
2, 47940, Note_on_c, 0, 69, 0
2, 47940, Note_on_c, 0, 57, 0
2, 47940, Note_on_c, 0, 62, 0
2, 47940, Note_on_c, 0, 74, 0
2, 47940, Note_on_c, 0, 57, 100
2, 47940, Note_on_c, 0, 62, 100
2, 47940, Note_on_c, 0, 69, 100
2, 47940, Note_on_c, 0, 74, 100
2, 47940, Note_on_c, 0, 78, 100
2, 48000, Note_on_c, 0, 78, 0
2, 48000, Note_on_c, 0, 69, 0
2, 48000, Note_on_c, 0, 57, 0
2, 48000, Note_on_c, 0, 62, 0
2, 48000, Note_on_c, 0, 74, 0
2, 48000, Note_on_c, 0, 79, 100
2, 48000, Note_on_c, 0, 72, 100
2, 48000, Note_on_c, 0, 67, 100
2, 48000, Note_on_c, 0, 60, 100
2, 48000, Note_on_c, 0, 57, 100
2, 48120, Note_on_c, 0, 57, 0
2, 48120, Note_on_c, 0, 67, 0
2, 48120, Note_on_c, 0, 79, 0
2, 48120, Note_on_c, 0, 72, 0
2, 48120, Note_on_c, 0, 60, 0
2, 48120, Note_on_c, 0, 79, 100
2, 48120, Note_on_c, 0, 72, 100
2, 48120, Note_on_c, 0, 67, 100
2, 48120, Note_on_c, 0, 60, 100
2, 48120, Note_on_c, 0, 57, 100
2, 48210, Note_on_c, 0, 79, 100
2, 48210, Note_on_c, 0, 72, 100
2, 48210, Note_on_c, 0, 67, 100
2, 48210, Note_on_c, 0, 60, 100
2, 48210, Note_on_c, 0, 57, 100
2, 48240, Note_on_c, 0, 57, 0
2, 48240, Note_on_c, 0, 67, 0
2, 48240, Note_on_c, 0, 60, 0
2, 48240, Note_on_c, 0, 79, 0
2, 48240, Note_on_c, 0, 57, 0
2, 48240, Note_on_c, 0, 72, 0
2, 48240, Note_on_c, 0, 67, 0
2, 48240, Note_on_c, 0, 72, 0
2, 48240, Note_on_c, 0, 79, 0
2, 48240, Note_on_c, 0, 60, 0
2, 48240, Note_on_c, 0, 79, 100
2, 48240, Note_on_c, 0, 72, 100
2, 48240, Note_on_c, 0, 67, 100
2, 48240, Note_on_c, 0, 60, 100
2, 48240, Note_on_c, 0, 57, 100
2, 48300, Note_on_c, 0, 57, 0
2, 48300, Note_on_c, 0, 67, 0
2, 48300, Note_on_c, 0, 79, 0
2, 48300, Note_on_c, 0, 72, 0
2, 48300, Note_on_c, 0, 60, 0
2, 48300, Note_on_c, 0, 79, 100
2, 48300, Note_on_c, 0, 72, 100
2, 48300, Note_on_c, 0, 67, 100
2, 48300, Note_on_c, 0, 60, 100
2, 48300, Note_on_c, 0, 57, 100
2, 48420, Note_on_c, 0, 57, 0
2, 48420, Note_on_c, 0, 67, 0
2, 48420, Note_on_c, 0, 79, 0
2, 48420, Note_on_c, 0, 72, 0
2, 48420, Note_on_c, 0, 60, 0
2, 48420, Note_on_c, 0, 79, 100
2, 48420, Note_on_c, 0, 72, 100
2, 48420, Note_on_c, 0, 60, 100
2, 48420, Note_on_c, 0, 67, 100
2, 48420, Note_on_c, 0, 57, 100
2, 48480, Note_on_c, 0, 57, 0
2, 48480, Note_on_c, 0, 60, 0
2, 48480, Note_on_c, 0, 79, 0
2, 48480, Note_on_c, 0, 72, 0
2, 48480, Note_on_c, 0, 67, 0
2, 48480, Note_on_c, 0, 79, 100
2, 48480, Note_on_c, 0, 74, 100
2, 48480, Note_on_c, 0, 67, 100
2, 48480, Note_on_c, 0, 62, 100
2, 48480, Note_on_c, 0, 59, 100
2, 48480, Note_on_c, 0, 55, 100
2, 48540, Note_on_c, 0, 79, 100
2, 48540, Note_on_c, 0, 74, 100
2, 48540, Note_on_c, 0, 67, 100
2, 48540, Note_on_c, 0, 62, 100
2, 48540, Note_on_c, 0, 59, 100
2, 48540, Note_on_c, 0, 55, 100
2, 48600, Note_on_c, 0, 55, 0
2, 48600, Note_on_c, 0, 74, 0
2, 48600, Note_on_c, 0, 74, 0
2, 48600, Note_on_c, 0, 67, 0
2, 48600, Note_on_c, 0, 62, 0
2, 48600, Note_on_c, 0, 79, 0
2, 48600, Note_on_c, 0, 59, 0
2, 48600, Note_on_c, 0, 55, 0
2, 48600, Note_on_c, 0, 67, 0
2, 48600, Note_on_c, 0, 79, 0
2, 48600, Note_on_c, 0, 59, 0
2, 48600, Note_on_c, 0, 62, 0
2, 48600, Note_on_c, 0, 74, 100
2, 48600, Note_on_c, 0, 79, 100
2, 48600, Note_on_c, 0, 67, 100
2, 48600, Note_on_c, 0, 62, 100
2, 48600, Note_on_c, 0, 59, 100
2, 48600, Note_on_c, 0, 55, 100
2, 48660, Note_on_c, 0, 55, 0
2, 48660, Note_on_c, 0, 79, 0
2, 48660, Note_on_c, 0, 67, 0
2, 48660, Note_on_c, 0, 74, 0
2, 48660, Note_on_c, 0, 59, 0
2, 48660, Note_on_c, 0, 62, 0
2, 48660, Note_on_c, 0, 74, 100
2, 48660, Note_on_c, 0, 79, 100
2, 48660, Note_on_c, 0, 67, 100
2, 48660, Note_on_c, 0, 62, 100
2, 48660, Note_on_c, 0, 55, 100
2, 48660, Note_on_c, 0, 59, 100
2, 48720, Note_on_c, 0, 59, 0
2, 48720, Note_on_c, 0, 79, 0
2, 48720, Note_on_c, 0, 67, 0
2, 48720, Note_on_c, 0, 74, 0
2, 48720, Note_on_c, 0, 55, 0
2, 48720, Note_on_c, 0, 62, 0
2, 48720, Note_on_c, 0, 57, 100
2, 48720, Note_on_c, 0, 62, 100
2, 48720, Note_on_c, 0, 69, 100
2, 48720, Note_on_c, 0, 74, 100
2, 48720, Note_on_c, 0, 78, 100
2, 48780, Note_on_c, 0, 78, 0
2, 48780, Note_on_c, 0, 69, 0
2, 48780, Note_on_c, 0, 57, 0
2, 48780, Note_on_c, 0, 62, 0
2, 48780, Note_on_c, 0, 74, 0
2, 48780, Note_on_c, 0, 57, 100
2, 48780, Note_on_c, 0, 62, 100
2, 48780, Note_on_c, 0, 69, 100
2, 48780, Note_on_c, 0, 74, 100
2, 48780, Note_on_c, 0, 78, 100
2, 48840, Note_on_c, 0, 78, 0
2, 48840, Note_on_c, 0, 69, 0
2, 48840, Note_on_c, 0, 57, 0
2, 48840, Note_on_c, 0, 62, 0
2, 48840, Note_on_c, 0, 74, 0
2, 48840, Note_on_c, 0, 57, 100
2, 48840, Note_on_c, 0, 62, 100
2, 48840, Note_on_c, 0, 69, 100
2, 48840, Note_on_c, 0, 74, 100
2, 48840, Note_on_c, 0, 78, 100
2, 48900, Note_on_c, 0, 78, 0
2, 48900, Note_on_c, 0, 69, 0
2, 48900, Note_on_c, 0, 57, 0
2, 48900, Note_on_c, 0, 62, 0
2, 48900, Note_on_c, 0, 74, 0
2, 48900, Note_on_c, 0, 57, 100
2, 48900, Note_on_c, 0, 62, 100
2, 48900, Note_on_c, 0, 69, 100
2, 48900, Note_on_c, 0, 74, 100
2, 48900, Note_on_c, 0, 78, 100
2, 48960, Note_on_c, 0, 78, 0
2, 48960, Note_on_c, 0, 69, 0
2, 48960, Note_on_c, 0, 57, 0
2, 48960, Note_on_c, 0, 62, 0
2, 48960, Note_on_c, 0, 74, 0
2, 48960, Note_on_c, 0, 77, 100
2, 48960, Note_on_c, 0, 72, 100
2, 48960, Note_on_c, 0, 69, 100
2, 48960, Note_on_c, 0, 65, 100
2, 48960, Note_on_c, 0, 60, 100
2, 48960, Note_on_c, 0, 53, 100
2, 49080, Note_on_c, 0, 53, 0
2, 49080, Note_on_c, 0, 72, 0
2, 49080, Note_on_c, 0, 69, 0
2, 49080, Note_on_c, 0, 77, 0
2, 49080, Note_on_c, 0, 60, 0
2, 49080, Note_on_c, 0, 65, 0
2, 49260, Note_on_c, 0, 77, 100
2, 49260, Note_on_c, 0, 72, 100
2, 49260, Note_on_c, 0, 69, 100
2, 49260, Note_on_c, 0, 65, 100
2, 49260, Note_on_c, 0, 60, 100
2, 49260, Note_on_c, 0, 53, 100
2, 49320, Note_on_c, 0, 53, 0
2, 49320, Note_on_c, 0, 72, 0
2, 49320, Note_on_c, 0, 69, 0
2, 49320, Note_on_c, 0, 77, 0
2, 49320, Note_on_c, 0, 60, 0
2, 49320, Note_on_c, 0, 65, 0
2, 49320, Note_on_c, 0, 77, 100
2, 49320, Note_on_c, 0, 72, 100
2, 49320, Note_on_c, 0, 69, 100
2, 49320, Note_on_c, 0, 65, 100
2, 49320, Note_on_c, 0, 60, 100
2, 49320, Note_on_c, 0, 53, 100
2, 49380, Note_on_c, 0, 53, 0
2, 49380, Note_on_c, 0, 72, 0
2, 49380, Note_on_c, 0, 69, 0
2, 49380, Note_on_c, 0, 77, 0
2, 49380, Note_on_c, 0, 60, 0
2, 49380, Note_on_c, 0, 65, 0
2, 49380, Note_on_c, 0, 79, 100
2, 49380, Note_on_c, 0, 74, 100
2, 49380, Note_on_c, 0, 67, 100
2, 49380, Note_on_c, 0, 62, 100
2, 49380, Note_on_c, 0, 55, 100
2, 49380, Note_on_c, 0, 59, 100
2, 49440, Note_on_c, 0, 59, 0
2, 49440, Note_on_c, 0, 74, 0
2, 49440, Note_on_c, 0, 67, 0
2, 49440, Note_on_c, 0, 79, 0
2, 49440, Note_on_c, 0, 55, 0
2, 49440, Note_on_c, 0, 62, 0
2, 49500, Note_on_c, 0, 79, 100
2, 49500, Note_on_c, 0, 74, 100
2, 49500, Note_on_c, 0, 67, 100
2, 49500, Note_on_c, 0, 62, 100
2, 49500, Note_on_c, 0, 55, 100
2, 49500, Note_on_c, 0, 59, 100
2, 49620, Note_on_c, 0, 59, 0
2, 49620, Note_on_c, 0, 74, 0
2, 49620, Note_on_c, 0, 67, 0
2, 49620, Note_on_c, 0, 79, 0
2, 49620, Note_on_c, 0, 55, 0
2, 49620, Note_on_c, 0, 62, 0
2, 49620, Note_on_c, 0, 79, 100
2, 49620, Note_on_c, 0, 74, 100
2, 49620, Note_on_c, 0, 67, 100
2, 49620, Note_on_c, 0, 59, 100
2, 49620, Note_on_c, 0, 62, 100
2, 49620, Note_on_c, 0, 55, 100
2, 49740, Note_on_c, 0, 55, 0
2, 49740, Note_on_c, 0, 74, 0
2, 49740, Note_on_c, 0, 67, 0
2, 49740, Note_on_c, 0, 79, 0
2, 49740, Note_on_c, 0, 62, 0
2, 49740, Note_on_c, 0, 59, 0
2, 49740, Note_on_c, 0, 79, 100
2, 49740, Note_on_c, 0, 74, 100
2, 49740, Note_on_c, 0, 67, 100
2, 49740, Note_on_c, 0, 62, 100
2, 49740, Note_on_c, 0, 59, 100
2, 49740, Note_on_c, 0, 55, 100
2, 49860, Note_on_c, 0, 55, 0
2, 49860, Note_on_c, 0, 74, 0
2, 49860, Note_on_c, 0, 67, 0
2, 49860, Note_on_c, 0, 79, 0
2, 49860, Note_on_c, 0, 59, 0
2, 49860, Note_on_c, 0, 62, 0
2, 49860, Note_on_c, 0, 79, 100
2, 49860, Note_on_c, 0, 74, 100
2, 49860, Note_on_c, 0, 67, 100
2, 49860, Note_on_c, 0, 62, 100
2, 49860, Note_on_c, 0, 59, 100
2, 49860, Note_on_c, 0, 55, 100
2, 49920, Note_on_c, 0, 79, 100
2, 49920, Note_on_c, 0, 72, 100
2, 49920, Note_on_c, 0, 67, 100
2, 49920, Note_on_c, 0, 60, 100
2, 49920, Note_on_c, 0, 57, 100
2, 49980, Note_on_c, 0, 55, 0
2, 49980, Note_on_c, 0, 62, 0
2, 49980, Note_on_c, 0, 79, 0
2, 49980, Note_on_c, 0, 67, 0
2, 49980, Note_on_c, 0, 59, 0
2, 49980, Note_on_c, 0, 74, 0
2, 50040, Note_on_c, 0, 72, 0
2, 50040, Note_on_c, 0, 60, 0
2, 50040, Note_on_c, 0, 57, 0
2, 50040, Note_on_c, 0, 79, 0
2, 50040, Note_on_c, 0, 67, 0
2, 50040, Note_on_c, 0, 79, 100
2, 50040, Note_on_c, 0, 72, 100
2, 50040, Note_on_c, 0, 67, 100
2, 50040, Note_on_c, 0, 60, 100
2, 50040, Note_on_c, 0, 57, 100
2, 50130, Note_on_c, 0, 79, 100
2, 50130, Note_on_c, 0, 72, 100
2, 50130, Note_on_c, 0, 67, 100
2, 50130, Note_on_c, 0, 60, 100
2, 50130, Note_on_c, 0, 57, 100
2, 50160, Note_on_c, 0, 57, 0
2, 50160, Note_on_c, 0, 67, 0
2, 50160, Note_on_c, 0, 60, 0
2, 50160, Note_on_c, 0, 79, 0
2, 50160, Note_on_c, 0, 57, 0
2, 50160, Note_on_c, 0, 72, 0
2, 50160, Note_on_c, 0, 67, 0
2, 50160, Note_on_c, 0, 72, 0
2, 50160, Note_on_c, 0, 79, 0
2, 50160, Note_on_c, 0, 60, 0
2, 50160, Note_on_c, 0, 79, 100
2, 50160, Note_on_c, 0, 72, 100
2, 50160, Note_on_c, 0, 67, 100
2, 50160, Note_on_c, 0, 60, 100
2, 50160, Note_on_c, 0, 57, 100
2, 50220, Note_on_c, 0, 57, 0
2, 50220, Note_on_c, 0, 67, 0
2, 50220, Note_on_c, 0, 79, 0
2, 50220, Note_on_c, 0, 72, 0
2, 50220, Note_on_c, 0, 60, 0
2, 50220, Note_on_c, 0, 79, 100
2, 50220, Note_on_c, 0, 72, 100
2, 50220, Note_on_c, 0, 67, 100
2, 50220, Note_on_c, 0, 60, 100
2, 50220, Note_on_c, 0, 57, 100
2, 50340, Note_on_c, 0, 57, 0
2, 50340, Note_on_c, 0, 67, 0
2, 50340, Note_on_c, 0, 79, 0
2, 50340, Note_on_c, 0, 72, 0
2, 50340, Note_on_c, 0, 60, 0
2, 50340, Note_on_c, 0, 79, 100
2, 50340, Note_on_c, 0, 72, 100
2, 50340, Note_on_c, 0, 60, 100
2, 50340, Note_on_c, 0, 67, 100
2, 50340, Note_on_c, 0, 57, 100
2, 50400, Note_on_c, 0, 57, 0
2, 50400, Note_on_c, 0, 60, 0
2, 50400, Note_on_c, 0, 79, 0
2, 50400, Note_on_c, 0, 72, 0
2, 50400, Note_on_c, 0, 67, 0
2, 50400, Note_on_c, 0, 79, 100
2, 50400, Note_on_c, 0, 74, 100
2, 50400, Note_on_c, 0, 67, 100
2, 50400, Note_on_c, 0, 62, 100
2, 50400, Note_on_c, 0, 59, 100
2, 50400, Note_on_c, 0, 55, 100
2, 50460, Note_on_c, 0, 79, 100
2, 50460, Note_on_c, 0, 74, 100
2, 50460, Note_on_c, 0, 67, 100
2, 50460, Note_on_c, 0, 62, 100
2, 50460, Note_on_c, 0, 59, 100
2, 50460, Note_on_c, 0, 55, 100
2, 50520, Note_on_c, 0, 55, 0
2, 50520, Note_on_c, 0, 74, 0
2, 50520, Note_on_c, 0, 74, 0
2, 50520, Note_on_c, 0, 67, 0
2, 50520, Note_on_c, 0, 62, 0
2, 50520, Note_on_c, 0, 79, 0
2, 50520, Note_on_c, 0, 59, 0
2, 50520, Note_on_c, 0, 55, 0
2, 50520, Note_on_c, 0, 67, 0
2, 50520, Note_on_c, 0, 79, 0
2, 50520, Note_on_c, 0, 59, 0
2, 50520, Note_on_c, 0, 62, 0
2, 50520, Note_on_c, 0, 74, 100
2, 50520, Note_on_c, 0, 79, 100
2, 50520, Note_on_c, 0, 67, 100
2, 50520, Note_on_c, 0, 62, 100
2, 50520, Note_on_c, 0, 59, 100
2, 50520, Note_on_c, 0, 55, 100
2, 50580, Note_on_c, 0, 55, 0
2, 50580, Note_on_c, 0, 79, 0
2, 50580, Note_on_c, 0, 67, 0
2, 50580, Note_on_c, 0, 74, 0
2, 50580, Note_on_c, 0, 59, 0
2, 50580, Note_on_c, 0, 62, 0
2, 50580, Note_on_c, 0, 74, 100
2, 50580, Note_on_c, 0, 79, 100
2, 50580, Note_on_c, 0, 67, 100
2, 50580, Note_on_c, 0, 62, 100
2, 50580, Note_on_c, 0, 55, 100
2, 50580, Note_on_c, 0, 59, 100
2, 50640, Note_on_c, 0, 59, 0
2, 50640, Note_on_c, 0, 79, 0
2, 50640, Note_on_c, 0, 67, 0
2, 50640, Note_on_c, 0, 74, 0
2, 50640, Note_on_c, 0, 55, 0
2, 50640, Note_on_c, 0, 62, 0
2, 50640, Note_on_c, 0, 57, 100
2, 50640, Note_on_c, 0, 62, 100
2, 50640, Note_on_c, 0, 69, 100
2, 50640, Note_on_c, 0, 74, 100
2, 50640, Note_on_c, 0, 78, 100
2, 50700, Note_on_c, 0, 78, 0
2, 50700, Note_on_c, 0, 69, 0
2, 50700, Note_on_c, 0, 57, 0
2, 50700, Note_on_c, 0, 62, 0
2, 50700, Note_on_c, 0, 74, 0
2, 50700, Note_on_c, 0, 57, 100
2, 50700, Note_on_c, 0, 62, 100
2, 50700, Note_on_c, 0, 69, 100
2, 50700, Note_on_c, 0, 74, 100
2, 50700, Note_on_c, 0, 78, 100
2, 50760, Note_on_c, 0, 78, 0
2, 50760, Note_on_c, 0, 69, 0
2, 50760, Note_on_c, 0, 57, 0
2, 50760, Note_on_c, 0, 62, 0
2, 50760, Note_on_c, 0, 74, 0
2, 50760, Note_on_c, 0, 57, 100
2, 50760, Note_on_c, 0, 62, 100
2, 50760, Note_on_c, 0, 69, 100
2, 50760, Note_on_c, 0, 74, 100
2, 50760, Note_on_c, 0, 78, 100
2, 50820, Note_on_c, 0, 78, 0
2, 50820, Note_on_c, 0, 69, 0
2, 50820, Note_on_c, 0, 57, 0
2, 50820, Note_on_c, 0, 62, 0
2, 50820, Note_on_c, 0, 74, 0
2, 50820, Note_on_c, 0, 57, 100
2, 50820, Note_on_c, 0, 62, 100
2, 50820, Note_on_c, 0, 69, 100
2, 50820, Note_on_c, 0, 74, 100
2, 50820, Note_on_c, 0, 78, 100
2, 50880, Note_on_c, 0, 78, 0
2, 50880, Note_on_c, 0, 69, 0
2, 50880, Note_on_c, 0, 57, 0
2, 50880, Note_on_c, 0, 62, 0
2, 50880, Note_on_c, 0, 74, 0
2, 50880, Note_on_c, 0, 79, 100
2, 50880, Note_on_c, 0, 72, 100
2, 50880, Note_on_c, 0, 67, 100
2, 50880, Note_on_c, 0, 60, 100
2, 50880, Note_on_c, 0, 57, 100
2, 51000, Note_on_c, 0, 57, 0
2, 51000, Note_on_c, 0, 67, 0
2, 51000, Note_on_c, 0, 79, 0
2, 51000, Note_on_c, 0, 72, 0
2, 51000, Note_on_c, 0, 60, 0
2, 51000, Note_on_c, 0, 79, 100
2, 51000, Note_on_c, 0, 72, 100
2, 51000, Note_on_c, 0, 67, 100
2, 51000, Note_on_c, 0, 60, 100
2, 51000, Note_on_c, 0, 57, 100
2, 51090, Note_on_c, 0, 79, 100
2, 51090, Note_on_c, 0, 72, 100
2, 51090, Note_on_c, 0, 67, 100
2, 51090, Note_on_c, 0, 60, 100
2, 51090, Note_on_c, 0, 57, 100
2, 51120, Note_on_c, 0, 57, 0
2, 51120, Note_on_c, 0, 67, 0
2, 51120, Note_on_c, 0, 60, 0
2, 51120, Note_on_c, 0, 79, 0
2, 51120, Note_on_c, 0, 57, 0
2, 51120, Note_on_c, 0, 72, 0
2, 51120, Note_on_c, 0, 67, 0
2, 51120, Note_on_c, 0, 72, 0
2, 51120, Note_on_c, 0, 79, 0
2, 51120, Note_on_c, 0, 60, 0
2, 51120, Note_on_c, 0, 79, 100
2, 51120, Note_on_c, 0, 72, 100
2, 51120, Note_on_c, 0, 67, 100
2, 51120, Note_on_c, 0, 60, 100
2, 51120, Note_on_c, 0, 57, 100
2, 51180, Note_on_c, 0, 57, 0
2, 51180, Note_on_c, 0, 67, 0
2, 51180, Note_on_c, 0, 79, 0
2, 51180, Note_on_c, 0, 72, 0
2, 51180, Note_on_c, 0, 60, 0
2, 51180, Note_on_c, 0, 79, 100
2, 51180, Note_on_c, 0, 72, 100
2, 51180, Note_on_c, 0, 67, 100
2, 51180, Note_on_c, 0, 60, 100
2, 51180, Note_on_c, 0, 57, 100
2, 51300, Note_on_c, 0, 57, 0
2, 51300, Note_on_c, 0, 67, 0
2, 51300, Note_on_c, 0, 79, 0
2, 51300, Note_on_c, 0, 72, 0
2, 51300, Note_on_c, 0, 60, 0
2, 51300, Note_on_c, 0, 79, 100
2, 51300, Note_on_c, 0, 72, 100
2, 51300, Note_on_c, 0, 60, 100
2, 51300, Note_on_c, 0, 67, 100
2, 51300, Note_on_c, 0, 57, 100
2, 51360, Note_on_c, 0, 57, 0
2, 51360, Note_on_c, 0, 60, 0
2, 51360, Note_on_c, 0, 79, 0
2, 51360, Note_on_c, 0, 72, 0
2, 51360, Note_on_c, 0, 67, 0
2, 51360, Note_on_c, 0, 79, 100
2, 51360, Note_on_c, 0, 74, 100
2, 51360, Note_on_c, 0, 67, 100
2, 51360, Note_on_c, 0, 62, 100
2, 51360, Note_on_c, 0, 59, 100
2, 51360, Note_on_c, 0, 55, 100
2, 51420, Note_on_c, 0, 79, 100
2, 51420, Note_on_c, 0, 74, 100
2, 51420, Note_on_c, 0, 67, 100
2, 51420, Note_on_c, 0, 62, 100
2, 51420, Note_on_c, 0, 59, 100
2, 51420, Note_on_c, 0, 55, 100
2, 51480, Note_on_c, 0, 55, 0
2, 51480, Note_on_c, 0, 74, 0
2, 51480, Note_on_c, 0, 74, 0
2, 51480, Note_on_c, 0, 67, 0
2, 51480, Note_on_c, 0, 62, 0
2, 51480, Note_on_c, 0, 79, 0
2, 51480, Note_on_c, 0, 59, 0
2, 51480, Note_on_c, 0, 55, 0
2, 51480, Note_on_c, 0, 67, 0
2, 51480, Note_on_c, 0, 79, 0
2, 51480, Note_on_c, 0, 59, 0
2, 51480, Note_on_c, 0, 62, 0
2, 51480, Note_on_c, 0, 74, 100
2, 51480, Note_on_c, 0, 79, 100
2, 51480, Note_on_c, 0, 67, 100
2, 51480, Note_on_c, 0, 62, 100
2, 51480, Note_on_c, 0, 59, 100
2, 51480, Note_on_c, 0, 55, 100
2, 51540, Note_on_c, 0, 55, 0
2, 51540, Note_on_c, 0, 79, 0
2, 51540, Note_on_c, 0, 67, 0
2, 51540, Note_on_c, 0, 74, 0
2, 51540, Note_on_c, 0, 59, 0
2, 51540, Note_on_c, 0, 62, 0
2, 51540, Note_on_c, 0, 74, 100
2, 51540, Note_on_c, 0, 79, 100
2, 51540, Note_on_c, 0, 67, 100
2, 51540, Note_on_c, 0, 62, 100
2, 51540, Note_on_c, 0, 55, 100
2, 51540, Note_on_c, 0, 59, 100
2, 51600, Note_on_c, 0, 59, 0
2, 51600, Note_on_c, 0, 79, 0
2, 51600, Note_on_c, 0, 67, 0
2, 51600, Note_on_c, 0, 74, 0
2, 51600, Note_on_c, 0, 55, 0
2, 51600, Note_on_c, 0, 62, 0
2, 51600, Note_on_c, 0, 57, 100
2, 51600, Note_on_c, 0, 62, 100
2, 51600, Note_on_c, 0, 69, 100
2, 51600, Note_on_c, 0, 74, 100
2, 51600, Note_on_c, 0, 78, 100
2, 51660, Note_on_c, 0, 78, 0
2, 51660, Note_on_c, 0, 69, 0
2, 51660, Note_on_c, 0, 57, 0
2, 51660, Note_on_c, 0, 62, 0
2, 51660, Note_on_c, 0, 74, 0
2, 51660, Note_on_c, 0, 57, 100
2, 51660, Note_on_c, 0, 62, 100
2, 51660, Note_on_c, 0, 69, 100
2, 51660, Note_on_c, 0, 74, 100
2, 51660, Note_on_c, 0, 78, 100
2, 51720, Note_on_c, 0, 78, 0
2, 51720, Note_on_c, 0, 69, 0
2, 51720, Note_on_c, 0, 57, 0
2, 51720, Note_on_c, 0, 62, 0
2, 51720, Note_on_c, 0, 74, 0
2, 51720, Note_on_c, 0, 57, 100
2, 51720, Note_on_c, 0, 62, 100
2, 51720, Note_on_c, 0, 69, 100
2, 51720, Note_on_c, 0, 74, 100
2, 51720, Note_on_c, 0, 78, 100
2, 51780, Note_on_c, 0, 78, 0
2, 51780, Note_on_c, 0, 69, 0
2, 51780, Note_on_c, 0, 57, 0
2, 51780, Note_on_c, 0, 62, 0
2, 51780, Note_on_c, 0, 74, 0
2, 51780, Note_on_c, 0, 57, 100
2, 51780, Note_on_c, 0, 62, 100
2, 51780, Note_on_c, 0, 69, 100
2, 51780, Note_on_c, 0, 74, 100
2, 51780, Note_on_c, 0, 78, 100
2, 51840, Note_on_c, 0, 78, 0
2, 51840, Note_on_c, 0, 69, 0
2, 51840, Note_on_c, 0, 57, 0
2, 51840, Note_on_c, 0, 62, 0
2, 51840, Note_on_c, 0, 74, 0
2, 51840, Note_on_c, 0, 79, 100
2, 51840, Note_on_c, 0, 72, 100
2, 51840, Note_on_c, 0, 67, 100
2, 51840, Note_on_c, 0, 60, 100
2, 51840, Note_on_c, 0, 57, 100
2, 51960, Note_on_c, 0, 57, 0
2, 51960, Note_on_c, 0, 67, 0
2, 51960, Note_on_c, 0, 79, 0
2, 51960, Note_on_c, 0, 72, 0
2, 51960, Note_on_c, 0, 60, 0
2, 51960, Note_on_c, 0, 79, 100
2, 51960, Note_on_c, 0, 72, 100
2, 51960, Note_on_c, 0, 67, 100
2, 51960, Note_on_c, 0, 60, 100
2, 51960, Note_on_c, 0, 57, 100
2, 52050, Note_on_c, 0, 79, 100
2, 52050, Note_on_c, 0, 72, 100
2, 52050, Note_on_c, 0, 67, 100
2, 52050, Note_on_c, 0, 60, 100
2, 52050, Note_on_c, 0, 57, 100
2, 52080, Note_on_c, 0, 57, 0
2, 52080, Note_on_c, 0, 67, 0
2, 52080, Note_on_c, 0, 60, 0
2, 52080, Note_on_c, 0, 79, 0
2, 52080, Note_on_c, 0, 57, 0
2, 52080, Note_on_c, 0, 72, 0
2, 52080, Note_on_c, 0, 67, 0
2, 52080, Note_on_c, 0, 72, 0
2, 52080, Note_on_c, 0, 79, 0
2, 52080, Note_on_c, 0, 60, 0
2, 52080, Note_on_c, 0, 79, 100
2, 52080, Note_on_c, 0, 72, 100
2, 52080, Note_on_c, 0, 67, 100
2, 52080, Note_on_c, 0, 60, 100
2, 52080, Note_on_c, 0, 57, 100
2, 52140, Note_on_c, 0, 57, 0
2, 52140, Note_on_c, 0, 67, 0
2, 52140, Note_on_c, 0, 79, 0
2, 52140, Note_on_c, 0, 72, 0
2, 52140, Note_on_c, 0, 60, 0
2, 52140, Note_on_c, 0, 79, 100
2, 52140, Note_on_c, 0, 72, 100
2, 52140, Note_on_c, 0, 67, 100
2, 52140, Note_on_c, 0, 60, 100
2, 52140, Note_on_c, 0, 57, 100
2, 52260, Note_on_c, 0, 57, 0
2, 52260, Note_on_c, 0, 67, 0
2, 52260, Note_on_c, 0, 79, 0
2, 52260, Note_on_c, 0, 72, 0
2, 52260, Note_on_c, 0, 60, 0
2, 52260, Note_on_c, 0, 79, 100
2, 52260, Note_on_c, 0, 72, 100
2, 52260, Note_on_c, 0, 60, 100
2, 52260, Note_on_c, 0, 67, 100
2, 52260, Note_on_c, 0, 57, 100
2, 52320, Note_on_c, 0, 57, 0
2, 52320, Note_on_c, 0, 60, 0
2, 52320, Note_on_c, 0, 79, 0
2, 52320, Note_on_c, 0, 72, 0
2, 52320, Note_on_c, 0, 67, 0
2, 52320, Note_on_c, 0, 79, 100
2, 52320, Note_on_c, 0, 74, 100
2, 52320, Note_on_c, 0, 67, 100
2, 52320, Note_on_c, 0, 62, 100
2, 52320, Note_on_c, 0, 59, 100
2, 52320, Note_on_c, 0, 55, 100
2, 52380, Note_on_c, 0, 79, 100
2, 52380, Note_on_c, 0, 74, 100
2, 52380, Note_on_c, 0, 67, 100
2, 52380, Note_on_c, 0, 62, 100
2, 52380, Note_on_c, 0, 59, 100
2, 52380, Note_on_c, 0, 55, 100
2, 52440, Note_on_c, 0, 55, 0
2, 52440, Note_on_c, 0, 74, 0
2, 52440, Note_on_c, 0, 74, 0
2, 52440, Note_on_c, 0, 67, 0
2, 52440, Note_on_c, 0, 62, 0
2, 52440, Note_on_c, 0, 79, 0
2, 52440, Note_on_c, 0, 59, 0
2, 52440, Note_on_c, 0, 55, 0
2, 52440, Note_on_c, 0, 67, 0
2, 52440, Note_on_c, 0, 79, 0
2, 52440, Note_on_c, 0, 59, 0
2, 52440, Note_on_c, 0, 62, 0
2, 52440, Note_on_c, 0, 74, 100
2, 52440, Note_on_c, 0, 79, 100
2, 52440, Note_on_c, 0, 67, 100
2, 52440, Note_on_c, 0, 62, 100
2, 52440, Note_on_c, 0, 59, 100
2, 52440, Note_on_c, 0, 55, 100
2, 52500, Note_on_c, 0, 55, 0
2, 52500, Note_on_c, 0, 79, 0
2, 52500, Note_on_c, 0, 67, 0
2, 52500, Note_on_c, 0, 74, 0
2, 52500, Note_on_c, 0, 59, 0
2, 52500, Note_on_c, 0, 62, 0
2, 52500, Note_on_c, 0, 74, 100
2, 52500, Note_on_c, 0, 79, 100
2, 52500, Note_on_c, 0, 67, 100
2, 52500, Note_on_c, 0, 62, 100
2, 52500, Note_on_c, 0, 55, 100
2, 52500, Note_on_c, 0, 59, 100
2, 52560, Note_on_c, 0, 59, 0
2, 52560, Note_on_c, 0, 79, 0
2, 52560, Note_on_c, 0, 67, 0
2, 52560, Note_on_c, 0, 74, 0
2, 52560, Note_on_c, 0, 55, 0
2, 52560, Note_on_c, 0, 62, 0
2, 52560, Note_on_c, 0, 57, 100
2, 52560, Note_on_c, 0, 62, 100
2, 52560, Note_on_c, 0, 69, 100
2, 52560, Note_on_c, 0, 74, 100
2, 52560, Note_on_c, 0, 78, 100
2, 52620, Note_on_c, 0, 78, 0
2, 52620, Note_on_c, 0, 69, 0
2, 52620, Note_on_c, 0, 57, 0
2, 52620, Note_on_c, 0, 62, 0
2, 52620, Note_on_c, 0, 74, 0
2, 52620, Note_on_c, 0, 57, 100
2, 52620, Note_on_c, 0, 62, 100
2, 52620, Note_on_c, 0, 69, 100
2, 52620, Note_on_c, 0, 74, 100
2, 52620, Note_on_c, 0, 78, 100
2, 52680, Note_on_c, 0, 78, 0
2, 52680, Note_on_c, 0, 69, 0
2, 52680, Note_on_c, 0, 57, 0
2, 52680, Note_on_c, 0, 62, 0
2, 52680, Note_on_c, 0, 74, 0
2, 52680, Note_on_c, 0, 57, 100
2, 52680, Note_on_c, 0, 62, 100
2, 52680, Note_on_c, 0, 69, 100
2, 52680, Note_on_c, 0, 74, 100
2, 52680, Note_on_c, 0, 78, 100
2, 52740, Note_on_c, 0, 78, 0
2, 52740, Note_on_c, 0, 69, 0
2, 52740, Note_on_c, 0, 57, 0
2, 52740, Note_on_c, 0, 62, 0
2, 52740, Note_on_c, 0, 74, 0
2, 52740, Note_on_c, 0, 57, 100
2, 52740, Note_on_c, 0, 62, 100
2, 52740, Note_on_c, 0, 69, 100
2, 52740, Note_on_c, 0, 74, 100
2, 52740, Note_on_c, 0, 78, 100
2, 52800, Note_on_c, 0, 78, 0
2, 52800, Note_on_c, 0, 69, 0
2, 52800, Note_on_c, 0, 57, 0
2, 52800, Note_on_c, 0, 62, 0
2, 52800, Note_on_c, 0, 74, 0
2, 52800, Note_on_c, 0, 77, 100
2, 52800, Note_on_c, 0, 72, 100
2, 52800, Note_on_c, 0, 69, 100
2, 52800, Note_on_c, 0, 65, 100
2, 52800, Note_on_c, 0, 60, 100
2, 52800, Note_on_c, 0, 53, 100
2, 52920, Note_on_c, 0, 53, 0
2, 52920, Note_on_c, 0, 72, 0
2, 52920, Note_on_c, 0, 69, 0
2, 52920, Note_on_c, 0, 77, 0
2, 52920, Note_on_c, 0, 60, 0
2, 52920, Note_on_c, 0, 65, 0
2, 53100, Note_on_c, 0, 77, 100
2, 53100, Note_on_c, 0, 72, 100
2, 53100, Note_on_c, 0, 69, 100
2, 53100, Note_on_c, 0, 65, 100
2, 53100, Note_on_c, 0, 60, 100
2, 53100, Note_on_c, 0, 53, 100
2, 53160, Note_on_c, 0, 53, 0
2, 53160, Note_on_c, 0, 72, 0
2, 53160, Note_on_c, 0, 69, 0
2, 53160, Note_on_c, 0, 77, 0
2, 53160, Note_on_c, 0, 60, 0
2, 53160, Note_on_c, 0, 65, 0
2, 53160, Note_on_c, 0, 77, 100
2, 53160, Note_on_c, 0, 72, 100
2, 53160, Note_on_c, 0, 69, 100
2, 53160, Note_on_c, 0, 65, 100
2, 53160, Note_on_c, 0, 60, 100
2, 53160, Note_on_c, 0, 53, 100
2, 53220, Note_on_c, 0, 53, 0
2, 53220, Note_on_c, 0, 72, 0
2, 53220, Note_on_c, 0, 69, 0
2, 53220, Note_on_c, 0, 77, 0
2, 53220, Note_on_c, 0, 60, 0
2, 53220, Note_on_c, 0, 65, 0
2, 53220, Note_on_c, 0, 79, 100
2, 53220, Note_on_c, 0, 74, 100
2, 53220, Note_on_c, 0, 67, 100
2, 53220, Note_on_c, 0, 62, 100
2, 53220, Note_on_c, 0, 55, 100
2, 53220, Note_on_c, 0, 59, 100
2, 53280, Note_on_c, 0, 59, 0
2, 53280, Note_on_c, 0, 74, 0
2, 53280, Note_on_c, 0, 67, 0
2, 53280, Note_on_c, 0, 79, 0
2, 53280, Note_on_c, 0, 55, 0
2, 53280, Note_on_c, 0, 62, 0
2, 53340, Note_on_c, 0, 79, 100
2, 53340, Note_on_c, 0, 74, 100
2, 53340, Note_on_c, 0, 67, 100
2, 53340, Note_on_c, 0, 62, 100
2, 53340, Note_on_c, 0, 55, 100
2, 53340, Note_on_c, 0, 59, 100
2, 53460, Note_on_c, 0, 59, 0
2, 53460, Note_on_c, 0, 74, 0
2, 53460, Note_on_c, 0, 67, 0
2, 53460, Note_on_c, 0, 79, 0
2, 53460, Note_on_c, 0, 55, 0
2, 53460, Note_on_c, 0, 62, 0
2, 53460, Note_on_c, 0, 79, 100
2, 53460, Note_on_c, 0, 74, 100
2, 53460, Note_on_c, 0, 67, 100
2, 53460, Note_on_c, 0, 59, 100
2, 53460, Note_on_c, 0, 62, 100
2, 53460, Note_on_c, 0, 55, 100
2, 53580, Note_on_c, 0, 55, 0
2, 53580, Note_on_c, 0, 74, 0
2, 53580, Note_on_c, 0, 67, 0
2, 53580, Note_on_c, 0, 79, 0
2, 53580, Note_on_c, 0, 62, 0
2, 53580, Note_on_c, 0, 59, 0
2, 53580, Note_on_c, 0, 79, 100
2, 53580, Note_on_c, 0, 74, 100
2, 53580, Note_on_c, 0, 67, 100
2, 53580, Note_on_c, 0, 62, 100
2, 53580, Note_on_c, 0, 59, 100
2, 53580, Note_on_c, 0, 55, 100
2, 53700, Note_on_c, 0, 55, 0
2, 53700, Note_on_c, 0, 74, 0
2, 53700, Note_on_c, 0, 67, 0
2, 53700, Note_on_c, 0, 79, 0
2, 53700, Note_on_c, 0, 59, 0
2, 53700, Note_on_c, 0, 62, 0
2, 53700, Note_on_c, 0, 79, 100
2, 53700, Note_on_c, 0, 74, 100
2, 53700, Note_on_c, 0, 67, 100
2, 53700, Note_on_c, 0, 62, 100
2, 53700, Note_on_c, 0, 59, 100
2, 53700, Note_on_c, 0, 55, 100
2, 53760, Note_on_c, 0, 79, 100
2, 53760, Note_on_c, 0, 72, 100
2, 53760, Note_on_c, 0, 67, 100
2, 53760, Note_on_c, 0, 60, 100
2, 53760, Note_on_c, 0, 57, 100
2, 53820, Note_on_c, 0, 55, 0
2, 53820, Note_on_c, 0, 62, 0
2, 53820, Note_on_c, 0, 79, 0
2, 53820, Note_on_c, 0, 67, 0
2, 53820, Note_on_c, 0, 59, 0
2, 53820, Note_on_c, 0, 74, 0
2, 53880, Note_on_c, 0, 72, 0
2, 53880, Note_on_c, 0, 60, 0
2, 53880, Note_on_c, 0, 57, 0
2, 53880, Note_on_c, 0, 79, 0
2, 53880, Note_on_c, 0, 67, 0
2, 53880, Note_on_c, 0, 79, 100
2, 53880, Note_on_c, 0, 72, 100
2, 53880, Note_on_c, 0, 67, 100
2, 53880, Note_on_c, 0, 60, 100
2, 53880, Note_on_c, 0, 57, 100
2, 53970, Note_on_c, 0, 79, 100
2, 53970, Note_on_c, 0, 72, 100
2, 53970, Note_on_c, 0, 67, 100
2, 53970, Note_on_c, 0, 60, 100
2, 53970, Note_on_c, 0, 57, 100
2, 54000, Note_on_c, 0, 57, 0
2, 54000, Note_on_c, 0, 67, 0
2, 54000, Note_on_c, 0, 60, 0
2, 54000, Note_on_c, 0, 79, 0
2, 54000, Note_on_c, 0, 57, 0
2, 54000, Note_on_c, 0, 72, 0
2, 54000, Note_on_c, 0, 67, 0
2, 54000, Note_on_c, 0, 72, 0
2, 54000, Note_on_c, 0, 79, 0
2, 54000, Note_on_c, 0, 60, 0
2, 54000, Note_on_c, 0, 79, 100
2, 54000, Note_on_c, 0, 72, 100
2, 54000, Note_on_c, 0, 67, 100
2, 54000, Note_on_c, 0, 60, 100
2, 54000, Note_on_c, 0, 57, 100
2, 54060, Note_on_c, 0, 57, 0
2, 54060, Note_on_c, 0, 67, 0
2, 54060, Note_on_c, 0, 79, 0
2, 54060, Note_on_c, 0, 72, 0
2, 54060, Note_on_c, 0, 60, 0
2, 54060, Note_on_c, 0, 79, 100
2, 54060, Note_on_c, 0, 72, 100
2, 54060, Note_on_c, 0, 67, 100
2, 54060, Note_on_c, 0, 60, 100
2, 54060, Note_on_c, 0, 57, 100
2, 54180, Note_on_c, 0, 57, 0
2, 54180, Note_on_c, 0, 67, 0
2, 54180, Note_on_c, 0, 79, 0
2, 54180, Note_on_c, 0, 72, 0
2, 54180, Note_on_c, 0, 60, 0
2, 54180, Note_on_c, 0, 79, 100
2, 54180, Note_on_c, 0, 72, 100
2, 54180, Note_on_c, 0, 60, 100
2, 54180, Note_on_c, 0, 67, 100
2, 54180, Note_on_c, 0, 57, 100
2, 54240, Note_on_c, 0, 57, 0
2, 54240, Note_on_c, 0, 60, 0
2, 54240, Note_on_c, 0, 79, 0
2, 54240, Note_on_c, 0, 72, 0
2, 54240, Note_on_c, 0, 67, 0
2, 54240, Note_on_c, 0, 79, 100
2, 54240, Note_on_c, 0, 74, 100
2, 54240, Note_on_c, 0, 67, 100
2, 54240, Note_on_c, 0, 62, 100
2, 54240, Note_on_c, 0, 59, 100
2, 54240, Note_on_c, 0, 55, 100
2, 54300, Note_on_c, 0, 79, 100
2, 54300, Note_on_c, 0, 74, 100
2, 54300, Note_on_c, 0, 67, 100
2, 54300, Note_on_c, 0, 62, 100
2, 54300, Note_on_c, 0, 59, 100
2, 54300, Note_on_c, 0, 55, 100
2, 54360, Note_on_c, 0, 55, 0
2, 54360, Note_on_c, 0, 74, 0
2, 54360, Note_on_c, 0, 74, 0
2, 54360, Note_on_c, 0, 67, 0
2, 54360, Note_on_c, 0, 62, 0
2, 54360, Note_on_c, 0, 79, 0
2, 54360, Note_on_c, 0, 59, 0
2, 54360, Note_on_c, 0, 55, 0
2, 54360, Note_on_c, 0, 67, 0
2, 54360, Note_on_c, 0, 79, 0
2, 54360, Note_on_c, 0, 59, 0
2, 54360, Note_on_c, 0, 62, 0
2, 54360, Note_on_c, 0, 74, 100
2, 54360, Note_on_c, 0, 79, 100
2, 54360, Note_on_c, 0, 67, 100
2, 54360, Note_on_c, 0, 62, 100
2, 54360, Note_on_c, 0, 59, 100
2, 54360, Note_on_c, 0, 55, 100
2, 54420, Note_on_c, 0, 55, 0
2, 54420, Note_on_c, 0, 79, 0
2, 54420, Note_on_c, 0, 67, 0
2, 54420, Note_on_c, 0, 74, 0
2, 54420, Note_on_c, 0, 59, 0
2, 54420, Note_on_c, 0, 62, 0
2, 54420, Note_on_c, 0, 74, 100
2, 54420, Note_on_c, 0, 79, 100
2, 54420, Note_on_c, 0, 67, 100
2, 54420, Note_on_c, 0, 62, 100
2, 54420, Note_on_c, 0, 55, 100
2, 54420, Note_on_c, 0, 59, 100
2, 54480, Note_on_c, 0, 59, 0
2, 54480, Note_on_c, 0, 79, 0
2, 54480, Note_on_c, 0, 67, 0
2, 54480, Note_on_c, 0, 74, 0
2, 54480, Note_on_c, 0, 55, 0
2, 54480, Note_on_c, 0, 62, 0
2, 54480, Note_on_c, 0, 57, 100
2, 54480, Note_on_c, 0, 62, 100
2, 54480, Note_on_c, 0, 69, 100
2, 54480, Note_on_c, 0, 74, 100
2, 54480, Note_on_c, 0, 78, 100
2, 54540, Note_on_c, 0, 78, 0
2, 54540, Note_on_c, 0, 69, 0
2, 54540, Note_on_c, 0, 57, 0
2, 54540, Note_on_c, 0, 62, 0
2, 54540, Note_on_c, 0, 74, 0
2, 54540, Note_on_c, 0, 57, 100
2, 54540, Note_on_c, 0, 62, 100
2, 54540, Note_on_c, 0, 69, 100
2, 54540, Note_on_c, 0, 74, 100
2, 54540, Note_on_c, 0, 78, 100
2, 54600, Note_on_c, 0, 78, 0
2, 54600, Note_on_c, 0, 69, 0
2, 54600, Note_on_c, 0, 57, 0
2, 54600, Note_on_c, 0, 62, 0
2, 54600, Note_on_c, 0, 74, 0
2, 54600, Note_on_c, 0, 57, 100
2, 54600, Note_on_c, 0, 62, 100
2, 54600, Note_on_c, 0, 69, 100
2, 54600, Note_on_c, 0, 74, 100
2, 54600, Note_on_c, 0, 78, 100
2, 54660, Note_on_c, 0, 78, 0
2, 54660, Note_on_c, 0, 69, 0
2, 54660, Note_on_c, 0, 57, 0
2, 54660, Note_on_c, 0, 62, 0
2, 54660, Note_on_c, 0, 74, 0
2, 54660, Note_on_c, 0, 57, 100
2, 54660, Note_on_c, 0, 62, 100
2, 54660, Note_on_c, 0, 69, 100
2, 54660, Note_on_c, 0, 74, 100
2, 54660, Note_on_c, 0, 78, 100
2, 54720, Note_on_c, 0, 78, 0
2, 54720, Note_on_c, 0, 69, 0
2, 54720, Note_on_c, 0, 57, 0
2, 54720, Note_on_c, 0, 62, 0
2, 54720, Note_on_c, 0, 74, 0
2, 54720, Note_on_c, 0, 79, 100
2, 54720, Note_on_c, 0, 72, 100
2, 54720, Note_on_c, 0, 67, 100
2, 54720, Note_on_c, 0, 60, 100
2, 54720, Note_on_c, 0, 57, 100
2, 54840, Note_on_c, 0, 57, 0
2, 54840, Note_on_c, 0, 67, 0
2, 54840, Note_on_c, 0, 79, 0
2, 54840, Note_on_c, 0, 72, 0
2, 54840, Note_on_c, 0, 60, 0
2, 54840, Note_on_c, 0, 79, 100
2, 54840, Note_on_c, 0, 72, 100
2, 54840, Note_on_c, 0, 67, 100
2, 54840, Note_on_c, 0, 60, 100
2, 54840, Note_on_c, 0, 57, 100
2, 54930, Note_on_c, 0, 79, 100
2, 54930, Note_on_c, 0, 72, 100
2, 54930, Note_on_c, 0, 67, 100
2, 54930, Note_on_c, 0, 60, 100
2, 54930, Note_on_c, 0, 57, 100
2, 54960, Note_on_c, 0, 57, 0
2, 54960, Note_on_c, 0, 67, 0
2, 54960, Note_on_c, 0, 60, 0
2, 54960, Note_on_c, 0, 79, 0
2, 54960, Note_on_c, 0, 57, 0
2, 54960, Note_on_c, 0, 72, 0
2, 54960, Note_on_c, 0, 67, 0
2, 54960, Note_on_c, 0, 72, 0
2, 54960, Note_on_c, 0, 79, 0
2, 54960, Note_on_c, 0, 60, 0
2, 54960, Note_on_c, 0, 79, 100
2, 54960, Note_on_c, 0, 72, 100
2, 54960, Note_on_c, 0, 67, 100
2, 54960, Note_on_c, 0, 60, 100
2, 54960, Note_on_c, 0, 57, 100
2, 55020, Note_on_c, 0, 57, 0
2, 55020, Note_on_c, 0, 67, 0
2, 55020, Note_on_c, 0, 79, 0
2, 55020, Note_on_c, 0, 72, 0
2, 55020, Note_on_c, 0, 60, 0
2, 55020, Note_on_c, 0, 79, 100
2, 55020, Note_on_c, 0, 72, 100
2, 55020, Note_on_c, 0, 67, 100
2, 55020, Note_on_c, 0, 60, 100
2, 55020, Note_on_c, 0, 57, 100
2, 55140, Note_on_c, 0, 57, 0
2, 55140, Note_on_c, 0, 67, 0
2, 55140, Note_on_c, 0, 79, 0
2, 55140, Note_on_c, 0, 72, 0
2, 55140, Note_on_c, 0, 60, 0
2, 55140, Note_on_c, 0, 79, 100
2, 55140, Note_on_c, 0, 72, 100
2, 55140, Note_on_c, 0, 60, 100
2, 55140, Note_on_c, 0, 67, 100
2, 55140, Note_on_c, 0, 57, 100
2, 55200, Note_on_c, 0, 57, 0
2, 55200, Note_on_c, 0, 60, 0
2, 55200, Note_on_c, 0, 79, 0
2, 55200, Note_on_c, 0, 72, 0
2, 55200, Note_on_c, 0, 67, 0
2, 55200, Note_on_c, 0, 79, 100
2, 55200, Note_on_c, 0, 74, 100
2, 55200, Note_on_c, 0, 67, 100
2, 55200, Note_on_c, 0, 62, 100
2, 55200, Note_on_c, 0, 59, 100
2, 55200, Note_on_c, 0, 55, 100
2, 55260, Note_on_c, 0, 79, 100
2, 55260, Note_on_c, 0, 74, 100
2, 55260, Note_on_c, 0, 67, 100
2, 55260, Note_on_c, 0, 62, 100
2, 55260, Note_on_c, 0, 59, 100
2, 55260, Note_on_c, 0, 55, 100
2, 55320, Note_on_c, 0, 55, 0
2, 55320, Note_on_c, 0, 74, 0
2, 55320, Note_on_c, 0, 74, 0
2, 55320, Note_on_c, 0, 67, 0
2, 55320, Note_on_c, 0, 62, 0
2, 55320, Note_on_c, 0, 79, 0
2, 55320, Note_on_c, 0, 59, 0
2, 55320, Note_on_c, 0, 55, 0
2, 55320, Note_on_c, 0, 67, 0
2, 55320, Note_on_c, 0, 79, 0
2, 55320, Note_on_c, 0, 59, 0
2, 55320, Note_on_c, 0, 62, 0
2, 55320, Note_on_c, 0, 74, 100
2, 55320, Note_on_c, 0, 79, 100
2, 55320, Note_on_c, 0, 67, 100
2, 55320, Note_on_c, 0, 62, 100
2, 55320, Note_on_c, 0, 59, 100
2, 55320, Note_on_c, 0, 55, 100
2, 55380, Note_on_c, 0, 55, 0
2, 55380, Note_on_c, 0, 79, 0
2, 55380, Note_on_c, 0, 67, 0
2, 55380, Note_on_c, 0, 74, 0
2, 55380, Note_on_c, 0, 59, 0
2, 55380, Note_on_c, 0, 62, 0
2, 55380, Note_on_c, 0, 74, 100
2, 55380, Note_on_c, 0, 79, 100
2, 55380, Note_on_c, 0, 67, 100
2, 55380, Note_on_c, 0, 62, 100
2, 55380, Note_on_c, 0, 55, 100
2, 55380, Note_on_c, 0, 59, 100
2, 55440, Note_on_c, 0, 59, 0
2, 55440, Note_on_c, 0, 79, 0
2, 55440, Note_on_c, 0, 67, 0
2, 55440, Note_on_c, 0, 74, 0
2, 55440, Note_on_c, 0, 55, 0
2, 55440, Note_on_c, 0, 62, 0
2, 55440, Note_on_c, 0, 57, 100
2, 55440, Note_on_c, 0, 62, 100
2, 55440, Note_on_c, 0, 69, 100
2, 55440, Note_on_c, 0, 74, 100
2, 55440, Note_on_c, 0, 78, 100
2, 55500, Note_on_c, 0, 78, 0
2, 55500, Note_on_c, 0, 69, 0
2, 55500, Note_on_c, 0, 57, 0
2, 55500, Note_on_c, 0, 62, 0
2, 55500, Note_on_c, 0, 74, 0
2, 55500, Note_on_c, 0, 57, 100
2, 55500, Note_on_c, 0, 62, 100
2, 55500, Note_on_c, 0, 69, 100
2, 55500, Note_on_c, 0, 74, 100
2, 55500, Note_on_c, 0, 78, 100
2, 55560, Note_on_c, 0, 78, 0
2, 55560, Note_on_c, 0, 69, 0
2, 55560, Note_on_c, 0, 57, 0
2, 55560, Note_on_c, 0, 62, 0
2, 55560, Note_on_c, 0, 74, 0
2, 55560, Note_on_c, 0, 57, 100
2, 55560, Note_on_c, 0, 62, 100
2, 55560, Note_on_c, 0, 69, 100
2, 55560, Note_on_c, 0, 74, 100
2, 55560, Note_on_c, 0, 78, 100
2, 55620, Note_on_c, 0, 78, 0
2, 55620, Note_on_c, 0, 69, 0
2, 55620, Note_on_c, 0, 57, 0
2, 55620, Note_on_c, 0, 62, 0
2, 55620, Note_on_c, 0, 74, 0
2, 55620, Note_on_c, 0, 57, 100
2, 55620, Note_on_c, 0, 62, 100
2, 55620, Note_on_c, 0, 69, 100
2, 55620, Note_on_c, 0, 74, 100
2, 55620, Note_on_c, 0, 78, 100
2, 55680, Note_on_c, 0, 78, 0
2, 55680, Note_on_c, 0, 69, 0
2, 55680, Note_on_c, 0, 57, 0
2, 55680, Note_on_c, 0, 62, 0
2, 55680, Note_on_c, 0, 74, 0
2, 55680, Note_on_c, 0, 79, 100
2, 55680, Note_on_c, 0, 72, 100
2, 55680, Note_on_c, 0, 67, 100
2, 55680, Note_on_c, 0, 60, 100
2, 55680, Note_on_c, 0, 57, 100
2, 55800, Note_on_c, 0, 57, 0
2, 55800, Note_on_c, 0, 67, 0
2, 55800, Note_on_c, 0, 79, 0
2, 55800, Note_on_c, 0, 72, 0
2, 55800, Note_on_c, 0, 60, 0
2, 55800, Note_on_c, 0, 79, 100
2, 55800, Note_on_c, 0, 72, 100
2, 55800, Note_on_c, 0, 67, 100
2, 55800, Note_on_c, 0, 60, 100
2, 55800, Note_on_c, 0, 57, 100
2, 55890, Note_on_c, 0, 79, 100
2, 55890, Note_on_c, 0, 72, 100
2, 55890, Note_on_c, 0, 67, 100
2, 55890, Note_on_c, 0, 60, 100
2, 55890, Note_on_c, 0, 57, 100
2, 55920, Note_on_c, 0, 57, 0
2, 55920, Note_on_c, 0, 67, 0
2, 55920, Note_on_c, 0, 60, 0
2, 55920, Note_on_c, 0, 79, 0
2, 55920, Note_on_c, 0, 57, 0
2, 55920, Note_on_c, 0, 72, 0
2, 55920, Note_on_c, 0, 67, 0
2, 55920, Note_on_c, 0, 72, 0
2, 55920, Note_on_c, 0, 79, 0
2, 55920, Note_on_c, 0, 60, 0
2, 55920, Note_on_c, 0, 79, 100
2, 55920, Note_on_c, 0, 72, 100
2, 55920, Note_on_c, 0, 67, 100
2, 55920, Note_on_c, 0, 60, 100
2, 55920, Note_on_c, 0, 57, 100
2, 55980, Note_on_c, 0, 57, 0
2, 55980, Note_on_c, 0, 67, 0
2, 55980, Note_on_c, 0, 79, 0
2, 55980, Note_on_c, 0, 72, 0
2, 55980, Note_on_c, 0, 60, 0
2, 55980, Note_on_c, 0, 79, 100
2, 55980, Note_on_c, 0, 72, 100
2, 55980, Note_on_c, 0, 67, 100
2, 55980, Note_on_c, 0, 60, 100
2, 55980, Note_on_c, 0, 57, 100
2, 56100, Note_on_c, 0, 57, 0
2, 56100, Note_on_c, 0, 67, 0
2, 56100, Note_on_c, 0, 79, 0
2, 56100, Note_on_c, 0, 72, 0
2, 56100, Note_on_c, 0, 60, 0
2, 56100, Note_on_c, 0, 79, 100
2, 56100, Note_on_c, 0, 72, 100
2, 56100, Note_on_c, 0, 60, 100
2, 56100, Note_on_c, 0, 67, 100
2, 56100, Note_on_c, 0, 57, 100
2, 56160, Note_on_c, 0, 57, 0
2, 56160, Note_on_c, 0, 60, 0
2, 56160, Note_on_c, 0, 79, 0
2, 56160, Note_on_c, 0, 72, 0
2, 56160, Note_on_c, 0, 67, 0
2, 56160, Note_on_c, 0, 79, 100
2, 56160, Note_on_c, 0, 74, 100
2, 56160, Note_on_c, 0, 67, 100
2, 56160, Note_on_c, 0, 62, 100
2, 56160, Note_on_c, 0, 59, 100
2, 56160, Note_on_c, 0, 55, 100
2, 56220, Note_on_c, 0, 79, 100
2, 56220, Note_on_c, 0, 74, 100
2, 56220, Note_on_c, 0, 67, 100
2, 56220, Note_on_c, 0, 62, 100
2, 56220, Note_on_c, 0, 59, 100
2, 56220, Note_on_c, 0, 55, 100
2, 56280, Note_on_c, 0, 55, 0
2, 56280, Note_on_c, 0, 74, 0
2, 56280, Note_on_c, 0, 74, 0
2, 56280, Note_on_c, 0, 67, 0
2, 56280, Note_on_c, 0, 62, 0
2, 56280, Note_on_c, 0, 79, 0
2, 56280, Note_on_c, 0, 59, 0
2, 56280, Note_on_c, 0, 55, 0
2, 56280, Note_on_c, 0, 67, 0
2, 56280, Note_on_c, 0, 79, 0
2, 56280, Note_on_c, 0, 59, 0
2, 56280, Note_on_c, 0, 62, 0
2, 56280, Note_on_c, 0, 74, 100
2, 56280, Note_on_c, 0, 79, 100
2, 56280, Note_on_c, 0, 67, 100
2, 56280, Note_on_c, 0, 62, 100
2, 56280, Note_on_c, 0, 59, 100
2, 56280, Note_on_c, 0, 55, 100
2, 56340, Note_on_c, 0, 55, 0
2, 56340, Note_on_c, 0, 79, 0
2, 56340, Note_on_c, 0, 67, 0
2, 56340, Note_on_c, 0, 74, 0
2, 56340, Note_on_c, 0, 59, 0
2, 56340, Note_on_c, 0, 62, 0
2, 56340, Note_on_c, 0, 74, 100
2, 56340, Note_on_c, 0, 79, 100
2, 56340, Note_on_c, 0, 67, 100
2, 56340, Note_on_c, 0, 62, 100
2, 56340, Note_on_c, 0, 55, 100
2, 56340, Note_on_c, 0, 59, 100
2, 56400, Note_on_c, 0, 59, 0
2, 56400, Note_on_c, 0, 79, 0
2, 56400, Note_on_c, 0, 67, 0
2, 56400, Note_on_c, 0, 74, 0
2, 56400, Note_on_c, 0, 55, 0
2, 56400, Note_on_c, 0, 62, 0
2, 56400, Note_on_c, 0, 57, 100
2, 56400, Note_on_c, 0, 62, 100
2, 56400, Note_on_c, 0, 69, 100
2, 56400, Note_on_c, 0, 74, 100
2, 56400, Note_on_c, 0, 78, 100
2, 56460, Note_on_c, 0, 78, 0
2, 56460, Note_on_c, 0, 69, 0
2, 56460, Note_on_c, 0, 57, 0
2, 56460, Note_on_c, 0, 62, 0
2, 56460, Note_on_c, 0, 74, 0
2, 56460, Note_on_c, 0, 57, 100
2, 56460, Note_on_c, 0, 62, 100
2, 56460, Note_on_c, 0, 69, 100
2, 56460, Note_on_c, 0, 74, 100
2, 56460, Note_on_c, 0, 78, 100
2, 56520, Note_on_c, 0, 78, 0
2, 56520, Note_on_c, 0, 69, 0
2, 56520, Note_on_c, 0, 57, 0
2, 56520, Note_on_c, 0, 62, 0
2, 56520, Note_on_c, 0, 74, 0
2, 56520, Note_on_c, 0, 57, 100
2, 56520, Note_on_c, 0, 62, 100
2, 56520, Note_on_c, 0, 69, 100
2, 56520, Note_on_c, 0, 74, 100
2, 56520, Note_on_c, 0, 78, 100
2, 56580, Note_on_c, 0, 78, 0
2, 56580, Note_on_c, 0, 69, 0
2, 56580, Note_on_c, 0, 57, 0
2, 56580, Note_on_c, 0, 62, 0
2, 56580, Note_on_c, 0, 74, 0
2, 56580, Note_on_c, 0, 57, 100
2, 56580, Note_on_c, 0, 62, 100
2, 56580, Note_on_c, 0, 69, 100
2, 56580, Note_on_c, 0, 74, 100
2, 56580, Note_on_c, 0, 78, 100
2, 56640, Note_on_c, 0, 78, 0
2, 56640, Note_on_c, 0, 69, 0
2, 56640, Note_on_c, 0, 57, 0
2, 56640, Note_on_c, 0, 62, 0
2, 56640, Note_on_c, 0, 74, 0
2, 56640, Note_on_c, 0, 77, 100
2, 56640, Note_on_c, 0, 72, 100
2, 56640, Note_on_c, 0, 69, 100
2, 56640, Note_on_c, 0, 65, 100
2, 56640, Note_on_c, 0, 60, 100
2, 56640, Note_on_c, 0, 53, 100
2, 56760, Note_on_c, 0, 53, 0
2, 56760, Note_on_c, 0, 72, 0
2, 56760, Note_on_c, 0, 69, 0
2, 56760, Note_on_c, 0, 77, 0
2, 56760, Note_on_c, 0, 60, 0
2, 56760, Note_on_c, 0, 65, 0
2, 56940, Note_on_c, 0, 77, 100
2, 56940, Note_on_c, 0, 72, 100
2, 56940, Note_on_c, 0, 69, 100
2, 56940, Note_on_c, 0, 65, 100
2, 56940, Note_on_c, 0, 60, 100
2, 56940, Note_on_c, 0, 53, 100
2, 57000, Note_on_c, 0, 53, 0
2, 57000, Note_on_c, 0, 72, 0
2, 57000, Note_on_c, 0, 69, 0
2, 57000, Note_on_c, 0, 77, 0
2, 57000, Note_on_c, 0, 60, 0
2, 57000, Note_on_c, 0, 65, 0
2, 57000, Note_on_c, 0, 77, 100
2, 57000, Note_on_c, 0, 72, 100
2, 57000, Note_on_c, 0, 69, 100
2, 57000, Note_on_c, 0, 65, 100
2, 57000, Note_on_c, 0, 60, 100
2, 57000, Note_on_c, 0, 53, 100
2, 57060, Note_on_c, 0, 53, 0
2, 57060, Note_on_c, 0, 72, 0
2, 57060, Note_on_c, 0, 69, 0
2, 57060, Note_on_c, 0, 77, 0
2, 57060, Note_on_c, 0, 60, 0
2, 57060, Note_on_c, 0, 65, 0
2, 57060, Note_on_c, 0, 79, 100
2, 57060, Note_on_c, 0, 74, 100
2, 57060, Note_on_c, 0, 67, 100
2, 57060, Note_on_c, 0, 62, 100
2, 57060, Note_on_c, 0, 55, 100
2, 57060, Note_on_c, 0, 59, 100
2, 57120, Note_on_c, 0, 59, 0
2, 57120, Note_on_c, 0, 74, 0
2, 57120, Note_on_c, 0, 67, 0
2, 57120, Note_on_c, 0, 79, 0
2, 57120, Note_on_c, 0, 55, 0
2, 57120, Note_on_c, 0, 62, 0
2, 57180, Note_on_c, 0, 79, 100
2, 57180, Note_on_c, 0, 74, 100
2, 57180, Note_on_c, 0, 67, 100
2, 57180, Note_on_c, 0, 62, 100
2, 57180, Note_on_c, 0, 55, 100
2, 57180, Note_on_c, 0, 59, 100
2, 57300, Note_on_c, 0, 59, 0
2, 57300, Note_on_c, 0, 74, 0
2, 57300, Note_on_c, 0, 67, 0
2, 57300, Note_on_c, 0, 79, 0
2, 57300, Note_on_c, 0, 55, 0
2, 57300, Note_on_c, 0, 62, 0
2, 57300, Note_on_c, 0, 79, 100
2, 57300, Note_on_c, 0, 74, 100
2, 57300, Note_on_c, 0, 67, 100
2, 57300, Note_on_c, 0, 59, 100
2, 57300, Note_on_c, 0, 62, 100
2, 57300, Note_on_c, 0, 55, 100
2, 57420, Note_on_c, 0, 55, 0
2, 57420, Note_on_c, 0, 74, 0
2, 57420, Note_on_c, 0, 67, 0
2, 57420, Note_on_c, 0, 79, 0
2, 57420, Note_on_c, 0, 62, 0
2, 57420, Note_on_c, 0, 59, 0
2, 57420, Note_on_c, 0, 79, 100
2, 57420, Note_on_c, 0, 74, 100
2, 57420, Note_on_c, 0, 67, 100
2, 57420, Note_on_c, 0, 62, 100
2, 57420, Note_on_c, 0, 59, 100
2, 57420, Note_on_c, 0, 55, 100
2, 57540, Note_on_c, 0, 55, 0
2, 57540, Note_on_c, 0, 74, 0
2, 57540, Note_on_c, 0, 67, 0
2, 57540, Note_on_c, 0, 79, 0
2, 57540, Note_on_c, 0, 59, 0
2, 57540, Note_on_c, 0, 62, 0
2, 57540, Note_on_c, 0, 79, 100
2, 57540, Note_on_c, 0, 74, 100
2, 57540, Note_on_c, 0, 67, 100
2, 57540, Note_on_c, 0, 62, 100
2, 57540, Note_on_c, 0, 59, 100
2, 57540, Note_on_c, 0, 55, 100
2, 57600, Note_on_c, 0, 79, 100
2, 57600, Note_on_c, 0, 72, 100
2, 57600, Note_on_c, 0, 67, 100
2, 57600, Note_on_c, 0, 60, 100
2, 57600, Note_on_c, 0, 57, 100
2, 57660, Note_on_c, 0, 55, 0
2, 57660, Note_on_c, 0, 62, 0
2, 57660, Note_on_c, 0, 79, 0
2, 57660, Note_on_c, 0, 67, 0
2, 57660, Note_on_c, 0, 59, 0
2, 57660, Note_on_c, 0, 74, 0
2, 57720, Note_on_c, 0, 72, 0
2, 57720, Note_on_c, 0, 60, 0
2, 57720, Note_on_c, 0, 57, 0
2, 57720, Note_on_c, 0, 79, 0
2, 57720, Note_on_c, 0, 67, 0
2, 57720, Note_on_c, 0, 79, 100
2, 57720, Note_on_c, 0, 72, 100
2, 57720, Note_on_c, 0, 67, 100
2, 57720, Note_on_c, 0, 60, 100
2, 57720, Note_on_c, 0, 57, 100
2, 57810, Note_on_c, 0, 79, 100
2, 57810, Note_on_c, 0, 72, 100
2, 57810, Note_on_c, 0, 67, 100
2, 57810, Note_on_c, 0, 60, 100
2, 57810, Note_on_c, 0, 57, 100
2, 57840, Note_on_c, 0, 57, 0
2, 57840, Note_on_c, 0, 67, 0
2, 57840, Note_on_c, 0, 60, 0
2, 57840, Note_on_c, 0, 79, 0
2, 57840, Note_on_c, 0, 57, 0
2, 57840, Note_on_c, 0, 72, 0
2, 57840, Note_on_c, 0, 67, 0
2, 57840, Note_on_c, 0, 72, 0
2, 57840, Note_on_c, 0, 79, 0
2, 57840, Note_on_c, 0, 60, 0
2, 57840, Note_on_c, 0, 79, 100
2, 57840, Note_on_c, 0, 72, 100
2, 57840, Note_on_c, 0, 67, 100
2, 57840, Note_on_c, 0, 60, 100
2, 57840, Note_on_c, 0, 57, 100
2, 57900, Note_on_c, 0, 57, 0
2, 57900, Note_on_c, 0, 67, 0
2, 57900, Note_on_c, 0, 79, 0
2, 57900, Note_on_c, 0, 72, 0
2, 57900, Note_on_c, 0, 60, 0
2, 57900, Note_on_c, 0, 79, 100
2, 57900, Note_on_c, 0, 72, 100
2, 57900, Note_on_c, 0, 67, 100
2, 57900, Note_on_c, 0, 60, 100
2, 57900, Note_on_c, 0, 57, 100
2, 58020, Note_on_c, 0, 57, 0
2, 58020, Note_on_c, 0, 67, 0
2, 58020, Note_on_c, 0, 79, 0
2, 58020, Note_on_c, 0, 72, 0
2, 58020, Note_on_c, 0, 60, 0
2, 58020, Note_on_c, 0, 79, 100
2, 58020, Note_on_c, 0, 72, 100
2, 58020, Note_on_c, 0, 60, 100
2, 58020, Note_on_c, 0, 67, 100
2, 58020, Note_on_c, 0, 57, 100
2, 58080, Note_on_c, 0, 57, 0
2, 58080, Note_on_c, 0, 60, 0
2, 58080, Note_on_c, 0, 79, 0
2, 58080, Note_on_c, 0, 72, 0
2, 58080, Note_on_c, 0, 67, 0
2, 58080, Note_on_c, 0, 79, 100
2, 58080, Note_on_c, 0, 74, 100
2, 58080, Note_on_c, 0, 67, 100
2, 58080, Note_on_c, 0, 62, 100
2, 58080, Note_on_c, 0, 59, 100
2, 58080, Note_on_c, 0, 55, 100
2, 58140, Note_on_c, 0, 79, 100
2, 58140, Note_on_c, 0, 74, 100
2, 58140, Note_on_c, 0, 67, 100
2, 58140, Note_on_c, 0, 62, 100
2, 58140, Note_on_c, 0, 59, 100
2, 58140, Note_on_c, 0, 55, 100
2, 58200, Note_on_c, 0, 55, 0
2, 58200, Note_on_c, 0, 74, 0
2, 58200, Note_on_c, 0, 74, 0
2, 58200, Note_on_c, 0, 67, 0
2, 58200, Note_on_c, 0, 62, 0
2, 58200, Note_on_c, 0, 79, 0
2, 58200, Note_on_c, 0, 59, 0
2, 58200, Note_on_c, 0, 55, 0
2, 58200, Note_on_c, 0, 67, 0
2, 58200, Note_on_c, 0, 79, 0
2, 58200, Note_on_c, 0, 59, 0
2, 58200, Note_on_c, 0, 62, 0
2, 58200, Note_on_c, 0, 74, 100
2, 58200, Note_on_c, 0, 79, 100
2, 58200, Note_on_c, 0, 67, 100
2, 58200, Note_on_c, 0, 62, 100
2, 58200, Note_on_c, 0, 59, 100
2, 58200, Note_on_c, 0, 55, 100
2, 58260, Note_on_c, 0, 55, 0
2, 58260, Note_on_c, 0, 79, 0
2, 58260, Note_on_c, 0, 67, 0
2, 58260, Note_on_c, 0, 74, 0
2, 58260, Note_on_c, 0, 59, 0
2, 58260, Note_on_c, 0, 62, 0
2, 58260, Note_on_c, 0, 74, 100
2, 58260, Note_on_c, 0, 79, 100
2, 58260, Note_on_c, 0, 67, 100
2, 58260, Note_on_c, 0, 62, 100
2, 58260, Note_on_c, 0, 55, 100
2, 58260, Note_on_c, 0, 59, 100
2, 58320, Note_on_c, 0, 59, 0
2, 58320, Note_on_c, 0, 79, 0
2, 58320, Note_on_c, 0, 67, 0
2, 58320, Note_on_c, 0, 74, 0
2, 58320, Note_on_c, 0, 55, 0
2, 58320, Note_on_c, 0, 62, 0
2, 58320, Note_on_c, 0, 57, 100
2, 58320, Note_on_c, 0, 62, 100
2, 58320, Note_on_c, 0, 69, 100
2, 58320, Note_on_c, 0, 74, 100
2, 58320, Note_on_c, 0, 78, 100
2, 58380, Note_on_c, 0, 78, 0
2, 58380, Note_on_c, 0, 69, 0
2, 58380, Note_on_c, 0, 57, 0
2, 58380, Note_on_c, 0, 62, 0
2, 58380, Note_on_c, 0, 74, 0
2, 58380, Note_on_c, 0, 57, 100
2, 58380, Note_on_c, 0, 62, 100
2, 58380, Note_on_c, 0, 69, 100
2, 58380, Note_on_c, 0, 74, 100
2, 58380, Note_on_c, 0, 78, 100
2, 58440, Note_on_c, 0, 78, 0
2, 58440, Note_on_c, 0, 69, 0
2, 58440, Note_on_c, 0, 57, 0
2, 58440, Note_on_c, 0, 62, 0
2, 58440, Note_on_c, 0, 74, 0
2, 58440, Note_on_c, 0, 57, 100
2, 58440, Note_on_c, 0, 62, 100
2, 58440, Note_on_c, 0, 69, 100
2, 58440, Note_on_c, 0, 74, 100
2, 58440, Note_on_c, 0, 78, 100
2, 58500, Note_on_c, 0, 78, 0
2, 58500, Note_on_c, 0, 69, 0
2, 58500, Note_on_c, 0, 57, 0
2, 58500, Note_on_c, 0, 62, 0
2, 58500, Note_on_c, 0, 74, 0
2, 58500, Note_on_c, 0, 57, 100
2, 58500, Note_on_c, 0, 62, 100
2, 58500, Note_on_c, 0, 69, 100
2, 58500, Note_on_c, 0, 74, 100
2, 58500, Note_on_c, 0, 78, 100
2, 58560, Note_on_c, 0, 78, 0
2, 58560, Note_on_c, 0, 69, 0
2, 58560, Note_on_c, 0, 57, 0
2, 58560, Note_on_c, 0, 62, 0
2, 58560, Note_on_c, 0, 74, 0
2, 58560, Note_on_c, 0, 79, 100
2, 58560, Note_on_c, 0, 72, 100
2, 58560, Note_on_c, 0, 67, 100
2, 58560, Note_on_c, 0, 60, 100
2, 58560, Note_on_c, 0, 57, 100
2, 58680, Note_on_c, 0, 57, 0
2, 58680, Note_on_c, 0, 67, 0
2, 58680, Note_on_c, 0, 79, 0
2, 58680, Note_on_c, 0, 72, 0
2, 58680, Note_on_c, 0, 60, 0
2, 58680, Note_on_c, 0, 79, 100
2, 58680, Note_on_c, 0, 72, 100
2, 58680, Note_on_c, 0, 67, 100
2, 58680, Note_on_c, 0, 60, 100
2, 58680, Note_on_c, 0, 57, 100
2, 58770, Note_on_c, 0, 79, 100
2, 58770, Note_on_c, 0, 72, 100
2, 58770, Note_on_c, 0, 67, 100
2, 58770, Note_on_c, 0, 60, 100
2, 58770, Note_on_c, 0, 57, 100
2, 58800, Note_on_c, 0, 57, 0
2, 58800, Note_on_c, 0, 67, 0
2, 58800, Note_on_c, 0, 60, 0
2, 58800, Note_on_c, 0, 79, 0
2, 58800, Note_on_c, 0, 57, 0
2, 58800, Note_on_c, 0, 72, 0
2, 58800, Note_on_c, 0, 67, 0
2, 58800, Note_on_c, 0, 72, 0
2, 58800, Note_on_c, 0, 79, 0
2, 58800, Note_on_c, 0, 60, 0
2, 58800, Note_on_c, 0, 79, 100
2, 58800, Note_on_c, 0, 72, 100
2, 58800, Note_on_c, 0, 67, 100
2, 58800, Note_on_c, 0, 60, 100
2, 58800, Note_on_c, 0, 57, 100
2, 58860, Note_on_c, 0, 57, 0
2, 58860, Note_on_c, 0, 67, 0
2, 58860, Note_on_c, 0, 79, 0
2, 58860, Note_on_c, 0, 72, 0
2, 58860, Note_on_c, 0, 60, 0
2, 58860, Note_on_c, 0, 79, 100
2, 58860, Note_on_c, 0, 72, 100
2, 58860, Note_on_c, 0, 67, 100
2, 58860, Note_on_c, 0, 60, 100
2, 58860, Note_on_c, 0, 57, 100
2, 58980, Note_on_c, 0, 57, 0
2, 58980, Note_on_c, 0, 67, 0
2, 58980, Note_on_c, 0, 79, 0
2, 58980, Note_on_c, 0, 72, 0
2, 58980, Note_on_c, 0, 60, 0
2, 58980, Note_on_c, 0, 79, 100
2, 58980, Note_on_c, 0, 72, 100
2, 58980, Note_on_c, 0, 60, 100
2, 58980, Note_on_c, 0, 67, 100
2, 58980, Note_on_c, 0, 57, 100
2, 59040, Note_on_c, 0, 57, 0
2, 59040, Note_on_c, 0, 60, 0
2, 59040, Note_on_c, 0, 79, 0
2, 59040, Note_on_c, 0, 72, 0
2, 59040, Note_on_c, 0, 67, 0
2, 59040, Note_on_c, 0, 79, 100
2, 59040, Note_on_c, 0, 74, 100
2, 59040, Note_on_c, 0, 67, 100
2, 59040, Note_on_c, 0, 62, 100
2, 59040, Note_on_c, 0, 59, 100
2, 59040, Note_on_c, 0, 55, 100
2, 59100, Note_on_c, 0, 79, 100
2, 59100, Note_on_c, 0, 74, 100
2, 59100, Note_on_c, 0, 67, 100
2, 59100, Note_on_c, 0, 62, 100
2, 59100, Note_on_c, 0, 59, 100
2, 59100, Note_on_c, 0, 55, 100
2, 59160, Note_on_c, 0, 55, 0
2, 59160, Note_on_c, 0, 74, 0
2, 59160, Note_on_c, 0, 74, 0
2, 59160, Note_on_c, 0, 67, 0
2, 59160, Note_on_c, 0, 62, 0
2, 59160, Note_on_c, 0, 79, 0
2, 59160, Note_on_c, 0, 59, 0
2, 59160, Note_on_c, 0, 55, 0
2, 59160, Note_on_c, 0, 67, 0
2, 59160, Note_on_c, 0, 79, 0
2, 59160, Note_on_c, 0, 59, 0
2, 59160, Note_on_c, 0, 62, 0
2, 59160, Note_on_c, 0, 74, 100
2, 59160, Note_on_c, 0, 79, 100
2, 59160, Note_on_c, 0, 67, 100
2, 59160, Note_on_c, 0, 62, 100
2, 59160, Note_on_c, 0, 59, 100
2, 59160, Note_on_c, 0, 55, 100
2, 59220, Note_on_c, 0, 55, 0
2, 59220, Note_on_c, 0, 79, 0
2, 59220, Note_on_c, 0, 67, 0
2, 59220, Note_on_c, 0, 74, 0
2, 59220, Note_on_c, 0, 59, 0
2, 59220, Note_on_c, 0, 62, 0
2, 59220, Note_on_c, 0, 74, 100
2, 59220, Note_on_c, 0, 79, 100
2, 59220, Note_on_c, 0, 67, 100
2, 59220, Note_on_c, 0, 62, 100
2, 59220, Note_on_c, 0, 55, 100
2, 59220, Note_on_c, 0, 59, 100
2, 59280, Note_on_c, 0, 59, 0
2, 59280, Note_on_c, 0, 79, 0
2, 59280, Note_on_c, 0, 67, 0
2, 59280, Note_on_c, 0, 74, 0
2, 59280, Note_on_c, 0, 55, 0
2, 59280, Note_on_c, 0, 62, 0
2, 59280, Note_on_c, 0, 57, 100
2, 59280, Note_on_c, 0, 62, 100
2, 59280, Note_on_c, 0, 69, 100
2, 59280, Note_on_c, 0, 74, 100
2, 59280, Note_on_c, 0, 78, 100
2, 59340, Note_on_c, 0, 78, 0
2, 59340, Note_on_c, 0, 69, 0
2, 59340, Note_on_c, 0, 57, 0
2, 59340, Note_on_c, 0, 62, 0
2, 59340, Note_on_c, 0, 74, 0
2, 59340, Note_on_c, 0, 57, 100
2, 59340, Note_on_c, 0, 62, 100
2, 59340, Note_on_c, 0, 69, 100
2, 59340, Note_on_c, 0, 74, 100
2, 59340, Note_on_c, 0, 78, 100
2, 59400, Note_on_c, 0, 78, 0
2, 59400, Note_on_c, 0, 69, 0
2, 59400, Note_on_c, 0, 57, 0
2, 59400, Note_on_c, 0, 62, 0
2, 59400, Note_on_c, 0, 74, 0
2, 59400, Note_on_c, 0, 57, 100
2, 59400, Note_on_c, 0, 62, 100
2, 59400, Note_on_c, 0, 69, 100
2, 59400, Note_on_c, 0, 74, 100
2, 59400, Note_on_c, 0, 78, 100
2, 59460, Note_on_c, 0, 78, 0
2, 59460, Note_on_c, 0, 69, 0
2, 59460, Note_on_c, 0, 57, 0
2, 59460, Note_on_c, 0, 62, 0
2, 59460, Note_on_c, 0, 74, 0
2, 59460, Note_on_c, 0, 57, 100
2, 59460, Note_on_c, 0, 62, 100
2, 59460, Note_on_c, 0, 69, 100
2, 59460, Note_on_c, 0, 74, 100
2, 59460, Note_on_c, 0, 78, 100
2, 59520, Note_on_c, 0, 78, 0
2, 59520, Note_on_c, 0, 69, 0
2, 59520, Note_on_c, 0, 57, 0
2, 59520, Note_on_c, 0, 62, 0
2, 59520, Note_on_c, 0, 74, 0
2, 59520, Note_on_c, 0, 79, 100
2, 59520, Note_on_c, 0, 72, 100
2, 59520, Note_on_c, 0, 67, 100
2, 59520, Note_on_c, 0, 60, 100
2, 59520, Note_on_c, 0, 57, 100
2, 59640, Note_on_c, 0, 57, 0
2, 59640, Note_on_c, 0, 67, 0
2, 59640, Note_on_c, 0, 79, 0
2, 59640, Note_on_c, 0, 72, 0
2, 59640, Note_on_c, 0, 60, 0
2, 59640, Note_on_c, 0, 79, 100
2, 59640, Note_on_c, 0, 72, 100
2, 59640, Note_on_c, 0, 67, 100
2, 59640, Note_on_c, 0, 60, 100
2, 59640, Note_on_c, 0, 57, 100
2, 59730, Note_on_c, 0, 79, 100
2, 59730, Note_on_c, 0, 72, 100
2, 59730, Note_on_c, 0, 67, 100
2, 59730, Note_on_c, 0, 60, 100
2, 59730, Note_on_c, 0, 57, 100
2, 59760, Note_on_c, 0, 57, 0
2, 59760, Note_on_c, 0, 67, 0
2, 59760, Note_on_c, 0, 60, 0
2, 59760, Note_on_c, 0, 79, 0
2, 59760, Note_on_c, 0, 57, 0
2, 59760, Note_on_c, 0, 72, 0
2, 59760, Note_on_c, 0, 67, 0
2, 59760, Note_on_c, 0, 72, 0
2, 59760, Note_on_c, 0, 79, 0
2, 59760, Note_on_c, 0, 60, 0
2, 59760, Note_on_c, 0, 79, 100
2, 59760, Note_on_c, 0, 72, 100
2, 59760, Note_on_c, 0, 67, 100
2, 59760, Note_on_c, 0, 60, 100
2, 59760, Note_on_c, 0, 57, 100
2, 59820, Note_on_c, 0, 57, 0
2, 59820, Note_on_c, 0, 67, 0
2, 59820, Note_on_c, 0, 79, 0
2, 59820, Note_on_c, 0, 72, 0
2, 59820, Note_on_c, 0, 60, 0
2, 59820, Note_on_c, 0, 79, 100
2, 59820, Note_on_c, 0, 72, 100
2, 59820, Note_on_c, 0, 67, 100
2, 59820, Note_on_c, 0, 60, 100
2, 59820, Note_on_c, 0, 57, 100
2, 59940, Note_on_c, 0, 57, 0
2, 59940, Note_on_c, 0, 67, 0
2, 59940, Note_on_c, 0, 79, 0
2, 59940, Note_on_c, 0, 72, 0
2, 59940, Note_on_c, 0, 60, 0
2, 59940, Note_on_c, 0, 79, 100
2, 59940, Note_on_c, 0, 72, 100
2, 59940, Note_on_c, 0, 60, 100
2, 59940, Note_on_c, 0, 67, 100
2, 59940, Note_on_c, 0, 57, 100
2, 60000, Note_on_c, 0, 57, 0
2, 60000, Note_on_c, 0, 60, 0
2, 60000, Note_on_c, 0, 79, 0
2, 60000, Note_on_c, 0, 72, 0
2, 60000, Note_on_c, 0, 67, 0
2, 60000, Note_on_c, 0, 79, 100
2, 60000, Note_on_c, 0, 74, 100
2, 60000, Note_on_c, 0, 67, 100
2, 60000, Note_on_c, 0, 62, 100
2, 60000, Note_on_c, 0, 59, 100
2, 60000, Note_on_c, 0, 55, 100
2, 60060, Note_on_c, 0, 79, 100
2, 60060, Note_on_c, 0, 74, 100
2, 60060, Note_on_c, 0, 67, 100
2, 60060, Note_on_c, 0, 62, 100
2, 60060, Note_on_c, 0, 59, 100
2, 60060, Note_on_c, 0, 55, 100
2, 60120, Note_on_c, 0, 55, 0
2, 60120, Note_on_c, 0, 74, 0
2, 60120, Note_on_c, 0, 74, 0
2, 60120, Note_on_c, 0, 67, 0
2, 60120, Note_on_c, 0, 62, 0
2, 60120, Note_on_c, 0, 79, 0
2, 60120, Note_on_c, 0, 59, 0
2, 60120, Note_on_c, 0, 55, 0
2, 60120, Note_on_c, 0, 67, 0
2, 60120, Note_on_c, 0, 79, 0
2, 60120, Note_on_c, 0, 59, 0
2, 60120, Note_on_c, 0, 62, 0
2, 60120, Note_on_c, 0, 74, 100
2, 60120, Note_on_c, 0, 79, 100
2, 60120, Note_on_c, 0, 67, 100
2, 60120, Note_on_c, 0, 62, 100
2, 60120, Note_on_c, 0, 59, 100
2, 60120, Note_on_c, 0, 55, 100
2, 60180, Note_on_c, 0, 55, 0
2, 60180, Note_on_c, 0, 79, 0
2, 60180, Note_on_c, 0, 67, 0
2, 60180, Note_on_c, 0, 74, 0
2, 60180, Note_on_c, 0, 59, 0
2, 60180, Note_on_c, 0, 62, 0
2, 60180, Note_on_c, 0, 74, 100
2, 60180, Note_on_c, 0, 79, 100
2, 60180, Note_on_c, 0, 67, 100
2, 60180, Note_on_c, 0, 62, 100
2, 60180, Note_on_c, 0, 55, 100
2, 60180, Note_on_c, 0, 59, 100
2, 60240, Note_on_c, 0, 59, 0
2, 60240, Note_on_c, 0, 79, 0
2, 60240, Note_on_c, 0, 67, 0
2, 60240, Note_on_c, 0, 74, 0
2, 60240, Note_on_c, 0, 55, 0
2, 60240, Note_on_c, 0, 62, 0
2, 60240, Note_on_c, 0, 57, 100
2, 60240, Note_on_c, 0, 62, 100
2, 60240, Note_on_c, 0, 69, 100
2, 60240, Note_on_c, 0, 74, 100
2, 60240, Note_on_c, 0, 78, 100
2, 60300, Note_on_c, 0, 78, 0
2, 60300, Note_on_c, 0, 69, 0
2, 60300, Note_on_c, 0, 57, 0
2, 60300, Note_on_c, 0, 62, 0
2, 60300, Note_on_c, 0, 74, 0
2, 60300, Note_on_c, 0, 57, 100
2, 60300, Note_on_c, 0, 62, 100
2, 60300, Note_on_c, 0, 69, 100
2, 60300, Note_on_c, 0, 74, 100
2, 60300, Note_on_c, 0, 78, 100
2, 60360, Note_on_c, 0, 78, 0
2, 60360, Note_on_c, 0, 69, 0
2, 60360, Note_on_c, 0, 57, 0
2, 60360, Note_on_c, 0, 62, 0
2, 60360, Note_on_c, 0, 74, 0
2, 60360, Note_on_c, 0, 57, 100
2, 60360, Note_on_c, 0, 62, 100
2, 60360, Note_on_c, 0, 69, 100
2, 60360, Note_on_c, 0, 74, 100
2, 60360, Note_on_c, 0, 78, 100
2, 60420, Note_on_c, 0, 78, 0
2, 60420, Note_on_c, 0, 69, 0
2, 60420, Note_on_c, 0, 57, 0
2, 60420, Note_on_c, 0, 62, 0
2, 60420, Note_on_c, 0, 74, 0
2, 60420, Note_on_c, 0, 57, 100
2, 60420, Note_on_c, 0, 62, 100
2, 60420, Note_on_c, 0, 69, 100
2, 60420, Note_on_c, 0, 74, 100
2, 60420, Note_on_c, 0, 78, 100
2, 60480, Note_on_c, 0, 78, 0
2, 60480, Note_on_c, 0, 69, 0
2, 60480, Note_on_c, 0, 57, 0
2, 60480, Note_on_c, 0, 62, 0
2, 60480, Note_on_c, 0, 74, 0
2, 60480, Note_on_c, 0, 77, 100
2, 60480, Note_on_c, 0, 72, 100
2, 60480, Note_on_c, 0, 69, 100
2, 60480, Note_on_c, 0, 65, 100
2, 60480, Note_on_c, 0, 60, 100
2, 60480, Note_on_c, 0, 53, 100
2, 60600, Note_on_c, 0, 53, 0
2, 60600, Note_on_c, 0, 72, 0
2, 60600, Note_on_c, 0, 69, 0
2, 60600, Note_on_c, 0, 77, 0
2, 60600, Note_on_c, 0, 60, 0
2, 60600, Note_on_c, 0, 65, 0
2, 60780, Note_on_c, 0, 77, 100
2, 60780, Note_on_c, 0, 72, 100
2, 60780, Note_on_c, 0, 69, 100
2, 60780, Note_on_c, 0, 65, 100
2, 60780, Note_on_c, 0, 60, 100
2, 60780, Note_on_c, 0, 53, 100
2, 60840, Note_on_c, 0, 53, 0
2, 60840, Note_on_c, 0, 72, 0
2, 60840, Note_on_c, 0, 69, 0
2, 60840, Note_on_c, 0, 77, 0
2, 60840, Note_on_c, 0, 60, 0
2, 60840, Note_on_c, 0, 65, 0
2, 60840, Note_on_c, 0, 77, 100
2, 60840, Note_on_c, 0, 72, 100
2, 60840, Note_on_c, 0, 69, 100
2, 60840, Note_on_c, 0, 65, 100
2, 60840, Note_on_c, 0, 60, 100
2, 60840, Note_on_c, 0, 53, 100
2, 60900, Note_on_c, 0, 53, 0
2, 60900, Note_on_c, 0, 72, 0
2, 60900, Note_on_c, 0, 69, 0
2, 60900, Note_on_c, 0, 77, 0
2, 60900, Note_on_c, 0, 60, 0
2, 60900, Note_on_c, 0, 65, 0
2, 60900, Note_on_c, 0, 79, 100
2, 60900, Note_on_c, 0, 74, 100
2, 60900, Note_on_c, 0, 67, 100
2, 60900, Note_on_c, 0, 62, 100
2, 60900, Note_on_c, 0, 55, 100
2, 60900, Note_on_c, 0, 59, 100
2, 60960, Note_on_c, 0, 59, 0
2, 60960, Note_on_c, 0, 74, 0
2, 60960, Note_on_c, 0, 67, 0
2, 60960, Note_on_c, 0, 79, 0
2, 60960, Note_on_c, 0, 55, 0
2, 60960, Note_on_c, 0, 62, 0
2, 61020, Note_on_c, 0, 79, 100
2, 61020, Note_on_c, 0, 74, 100
2, 61020, Note_on_c, 0, 67, 100
2, 61020, Note_on_c, 0, 62, 100
2, 61020, Note_on_c, 0, 55, 100
2, 61020, Note_on_c, 0, 59, 100
2, 61140, Note_on_c, 0, 59, 0
2, 61140, Note_on_c, 0, 74, 0
2, 61140, Note_on_c, 0, 67, 0
2, 61140, Note_on_c, 0, 79, 0
2, 61140, Note_on_c, 0, 55, 0
2, 61140, Note_on_c, 0, 62, 0
2, 61140, Note_on_c, 0, 79, 100
2, 61140, Note_on_c, 0, 74, 100
2, 61140, Note_on_c, 0, 67, 100
2, 61140, Note_on_c, 0, 59, 100
2, 61140, Note_on_c, 0, 62, 100
2, 61140, Note_on_c, 0, 55, 100
2, 61260, Note_on_c, 0, 55, 0
2, 61260, Note_on_c, 0, 74, 0
2, 61260, Note_on_c, 0, 67, 0
2, 61260, Note_on_c, 0, 79, 0
2, 61260, Note_on_c, 0, 62, 0
2, 61260, Note_on_c, 0, 59, 0
2, 61260, Note_on_c, 0, 79, 100
2, 61260, Note_on_c, 0, 74, 100
2, 61260, Note_on_c, 0, 67, 100
2, 61260, Note_on_c, 0, 62, 100
2, 61260, Note_on_c, 0, 59, 100
2, 61260, Note_on_c, 0, 55, 100
2, 61380, Note_on_c, 0, 55, 0
2, 61380, Note_on_c, 0, 74, 0
2, 61380, Note_on_c, 0, 67, 0
2, 61380, Note_on_c, 0, 79, 0
2, 61380, Note_on_c, 0, 59, 0
2, 61380, Note_on_c, 0, 62, 0
2, 61380, Note_on_c, 0, 79, 100
2, 61380, Note_on_c, 0, 74, 100
2, 61380, Note_on_c, 0, 67, 100
2, 61380, Note_on_c, 0, 62, 100
2, 61380, Note_on_c, 0, 59, 100
2, 61380, Note_on_c, 0, 55, 100
2, 61440, Note_on_c, 0, 79, 100
2, 61440, Note_on_c, 0, 72, 100
2, 61440, Note_on_c, 0, 67, 100
2, 61440, Note_on_c, 0, 60, 100
2, 61440, Note_on_c, 0, 57, 100
2, 61500, Note_on_c, 0, 55, 0
2, 61500, Note_on_c, 0, 62, 0
2, 61500, Note_on_c, 0, 79, 0
2, 61500, Note_on_c, 0, 67, 0
2, 61500, Note_on_c, 0, 59, 0
2, 61500, Note_on_c, 0, 74, 0
2, 61560, Note_on_c, 0, 72, 0
2, 61560, Note_on_c, 0, 60, 0
2, 61560, Note_on_c, 0, 57, 0
2, 61560, Note_on_c, 0, 79, 0
2, 61560, Note_on_c, 0, 67, 0
2, 61560, Note_on_c, 0, 79, 100
2, 61560, Note_on_c, 0, 72, 100
2, 61560, Note_on_c, 0, 67, 100
2, 61560, Note_on_c, 0, 60, 100
2, 61560, Note_on_c, 0, 57, 100
2, 61650, Note_on_c, 0, 79, 100
2, 61650, Note_on_c, 0, 72, 100
2, 61650, Note_on_c, 0, 67, 100
2, 61650, Note_on_c, 0, 60, 100
2, 61650, Note_on_c, 0, 57, 100
2, 61680, Note_on_c, 0, 57, 0
2, 61680, Note_on_c, 0, 67, 0
2, 61680, Note_on_c, 0, 60, 0
2, 61680, Note_on_c, 0, 79, 0
2, 61680, Note_on_c, 0, 57, 0
2, 61680, Note_on_c, 0, 72, 0
2, 61680, Note_on_c, 0, 67, 0
2, 61680, Note_on_c, 0, 72, 0
2, 61680, Note_on_c, 0, 79, 0
2, 61680, Note_on_c, 0, 60, 0
2, 61680, Note_on_c, 0, 79, 100
2, 61680, Note_on_c, 0, 72, 100
2, 61680, Note_on_c, 0, 67, 100
2, 61680, Note_on_c, 0, 60, 100
2, 61680, Note_on_c, 0, 57, 100
2, 61740, Note_on_c, 0, 57, 0
2, 61740, Note_on_c, 0, 67, 0
2, 61740, Note_on_c, 0, 79, 0
2, 61740, Note_on_c, 0, 72, 0
2, 61740, Note_on_c, 0, 60, 0
2, 61740, Note_on_c, 0, 79, 100
2, 61740, Note_on_c, 0, 72, 100
2, 61740, Note_on_c, 0, 67, 100
2, 61740, Note_on_c, 0, 60, 100
2, 61740, Note_on_c, 0, 57, 100
2, 61860, Note_on_c, 0, 57, 0
2, 61860, Note_on_c, 0, 67, 0
2, 61860, Note_on_c, 0, 79, 0
2, 61860, Note_on_c, 0, 72, 0
2, 61860, Note_on_c, 0, 60, 0
2, 61860, Note_on_c, 0, 79, 100
2, 61860, Note_on_c, 0, 72, 100
2, 61860, Note_on_c, 0, 60, 100
2, 61860, Note_on_c, 0, 67, 100
2, 61860, Note_on_c, 0, 57, 100
2, 61920, Note_on_c, 0, 57, 0
2, 61920, Note_on_c, 0, 60, 0
2, 61920, Note_on_c, 0, 79, 0
2, 61920, Note_on_c, 0, 72, 0
2, 61920, Note_on_c, 0, 67, 0
2, 61920, Note_on_c, 0, 79, 100
2, 61920, Note_on_c, 0, 74, 100
2, 61920, Note_on_c, 0, 67, 100
2, 61920, Note_on_c, 0, 62, 100
2, 61920, Note_on_c, 0, 59, 100
2, 61920, Note_on_c, 0, 55, 100
2, 61980, Note_on_c, 0, 79, 100
2, 61980, Note_on_c, 0, 74, 100
2, 61980, Note_on_c, 0, 67, 100
2, 61980, Note_on_c, 0, 62, 100
2, 61980, Note_on_c, 0, 59, 100
2, 61980, Note_on_c, 0, 55, 100
2, 62040, Note_on_c, 0, 55, 0
2, 62040, Note_on_c, 0, 74, 0
2, 62040, Note_on_c, 0, 74, 0
2, 62040, Note_on_c, 0, 67, 0
2, 62040, Note_on_c, 0, 62, 0
2, 62040, Note_on_c, 0, 79, 0
2, 62040, Note_on_c, 0, 59, 0
2, 62040, Note_on_c, 0, 55, 0
2, 62040, Note_on_c, 0, 67, 0
2, 62040, Note_on_c, 0, 79, 0
2, 62040, Note_on_c, 0, 59, 0
2, 62040, Note_on_c, 0, 62, 0
2, 62040, Note_on_c, 0, 74, 100
2, 62040, Note_on_c, 0, 79, 100
2, 62040, Note_on_c, 0, 67, 100
2, 62040, Note_on_c, 0, 62, 100
2, 62040, Note_on_c, 0, 59, 100
2, 62040, Note_on_c, 0, 55, 100
2, 62100, Note_on_c, 0, 55, 0
2, 62100, Note_on_c, 0, 79, 0
2, 62100, Note_on_c, 0, 67, 0
2, 62100, Note_on_c, 0, 74, 0
2, 62100, Note_on_c, 0, 59, 0
2, 62100, Note_on_c, 0, 62, 0
2, 62100, Note_on_c, 0, 74, 100
2, 62100, Note_on_c, 0, 79, 100
2, 62100, Note_on_c, 0, 67, 100
2, 62100, Note_on_c, 0, 62, 100
2, 62100, Note_on_c, 0, 55, 100
2, 62100, Note_on_c, 0, 59, 100
2, 62160, Note_on_c, 0, 59, 0
2, 62160, Note_on_c, 0, 79, 0
2, 62160, Note_on_c, 0, 67, 0
2, 62160, Note_on_c, 0, 74, 0
2, 62160, Note_on_c, 0, 55, 0
2, 62160, Note_on_c, 0, 62, 0
2, 62160, Note_on_c, 0, 57, 100
2, 62160, Note_on_c, 0, 62, 100
2, 62160, Note_on_c, 0, 69, 100
2, 62160, Note_on_c, 0, 74, 100
2, 62160, Note_on_c, 0, 78, 100
2, 62220, Note_on_c, 0, 78, 0
2, 62220, Note_on_c, 0, 69, 0
2, 62220, Note_on_c, 0, 57, 0
2, 62220, Note_on_c, 0, 62, 0
2, 62220, Note_on_c, 0, 74, 0
2, 62220, Note_on_c, 0, 57, 100
2, 62220, Note_on_c, 0, 62, 100
2, 62220, Note_on_c, 0, 69, 100
2, 62220, Note_on_c, 0, 74, 100
2, 62220, Note_on_c, 0, 78, 100
2, 62280, Note_on_c, 0, 78, 0
2, 62280, Note_on_c, 0, 69, 0
2, 62280, Note_on_c, 0, 57, 0
2, 62280, Note_on_c, 0, 62, 0
2, 62280, Note_on_c, 0, 74, 0
2, 62280, Note_on_c, 0, 57, 100
2, 62280, Note_on_c, 0, 62, 100
2, 62280, Note_on_c, 0, 69, 100
2, 62280, Note_on_c, 0, 74, 100
2, 62280, Note_on_c, 0, 78, 100
2, 62340, Note_on_c, 0, 78, 0
2, 62340, Note_on_c, 0, 69, 0
2, 62340, Note_on_c, 0, 57, 0
2, 62340, Note_on_c, 0, 62, 0
2, 62340, Note_on_c, 0, 74, 0
2, 62340, Note_on_c, 0, 57, 100
2, 62340, Note_on_c, 0, 62, 100
2, 62340, Note_on_c, 0, 69, 100
2, 62340, Note_on_c, 0, 74, 100
2, 62340, Note_on_c, 0, 78, 100
2, 62400, Note_on_c, 0, 78, 0
2, 62400, Note_on_c, 0, 69, 0
2, 62400, Note_on_c, 0, 57, 0
2, 62400, Note_on_c, 0, 62, 0
2, 62400, Note_on_c, 0, 74, 0
2, 62400, Note_on_c, 0, 79, 100
2, 62400, Note_on_c, 0, 72, 100
2, 62400, Note_on_c, 0, 67, 100
2, 62400, Note_on_c, 0, 60, 100
2, 62400, Note_on_c, 0, 57, 100
2, 62520, Note_on_c, 0, 57, 0
2, 62520, Note_on_c, 0, 67, 0
2, 62520, Note_on_c, 0, 79, 0
2, 62520, Note_on_c, 0, 72, 0
2, 62520, Note_on_c, 0, 60, 0
2, 62520, Note_on_c, 0, 79, 100
2, 62520, Note_on_c, 0, 72, 100
2, 62520, Note_on_c, 0, 67, 100
2, 62520, Note_on_c, 0, 60, 100
2, 62520, Note_on_c, 0, 57, 100
2, 62610, Note_on_c, 0, 79, 100
2, 62610, Note_on_c, 0, 72, 100
2, 62610, Note_on_c, 0, 67, 100
2, 62610, Note_on_c, 0, 60, 100
2, 62610, Note_on_c, 0, 57, 100
2, 62640, Note_on_c, 0, 57, 0
2, 62640, Note_on_c, 0, 67, 0
2, 62640, Note_on_c, 0, 60, 0
2, 62640, Note_on_c, 0, 79, 0
2, 62640, Note_on_c, 0, 57, 0
2, 62640, Note_on_c, 0, 72, 0
2, 62640, Note_on_c, 0, 67, 0
2, 62640, Note_on_c, 0, 72, 0
2, 62640, Note_on_c, 0, 79, 0
2, 62640, Note_on_c, 0, 60, 0
2, 62640, Note_on_c, 0, 79, 100
2, 62640, Note_on_c, 0, 72, 100
2, 62640, Note_on_c, 0, 67, 100
2, 62640, Note_on_c, 0, 60, 100
2, 62640, Note_on_c, 0, 57, 100
2, 62700, Note_on_c, 0, 57, 0
2, 62700, Note_on_c, 0, 67, 0
2, 62700, Note_on_c, 0, 79, 0
2, 62700, Note_on_c, 0, 72, 0
2, 62700, Note_on_c, 0, 60, 0
2, 62700, Note_on_c, 0, 79, 100
2, 62700, Note_on_c, 0, 72, 100
2, 62700, Note_on_c, 0, 67, 100
2, 62700, Note_on_c, 0, 60, 100
2, 62700, Note_on_c, 0, 57, 100
2, 62820, Note_on_c, 0, 57, 0
2, 62820, Note_on_c, 0, 67, 0
2, 62820, Note_on_c, 0, 79, 0
2, 62820, Note_on_c, 0, 72, 0
2, 62820, Note_on_c, 0, 60, 0
2, 62820, Note_on_c, 0, 79, 100
2, 62820, Note_on_c, 0, 72, 100
2, 62820, Note_on_c, 0, 60, 100
2, 62820, Note_on_c, 0, 67, 100
2, 62820, Note_on_c, 0, 57, 100
2, 62880, Note_on_c, 0, 57, 0
2, 62880, Note_on_c, 0, 60, 0
2, 62880, Note_on_c, 0, 79, 0
2, 62880, Note_on_c, 0, 72, 0
2, 62880, Note_on_c, 0, 67, 0
2, 62880, Note_on_c, 0, 79, 100
2, 62880, Note_on_c, 0, 74, 100
2, 62880, Note_on_c, 0, 67, 100
2, 62880, Note_on_c, 0, 62, 100
2, 62880, Note_on_c, 0, 59, 100
2, 62880, Note_on_c, 0, 55, 100
2, 62940, Note_on_c, 0, 79, 100
2, 62940, Note_on_c, 0, 74, 100
2, 62940, Note_on_c, 0, 67, 100
2, 62940, Note_on_c, 0, 62, 100
2, 62940, Note_on_c, 0, 59, 100
2, 62940, Note_on_c, 0, 55, 100
2, 63000, Note_on_c, 0, 55, 0
2, 63000, Note_on_c, 0, 74, 0
2, 63000, Note_on_c, 0, 74, 0
2, 63000, Note_on_c, 0, 67, 0
2, 63000, Note_on_c, 0, 62, 0
2, 63000, Note_on_c, 0, 79, 0
2, 63000, Note_on_c, 0, 59, 0
2, 63000, Note_on_c, 0, 55, 0
2, 63000, Note_on_c, 0, 67, 0
2, 63000, Note_on_c, 0, 79, 0
2, 63000, Note_on_c, 0, 59, 0
2, 63000, Note_on_c, 0, 62, 0
2, 63000, Note_on_c, 0, 74, 100
2, 63000, Note_on_c, 0, 79, 100
2, 63000, Note_on_c, 0, 67, 100
2, 63000, Note_on_c, 0, 62, 100
2, 63000, Note_on_c, 0, 59, 100
2, 63000, Note_on_c, 0, 55, 100
2, 63060, Note_on_c, 0, 55, 0
2, 63060, Note_on_c, 0, 79, 0
2, 63060, Note_on_c, 0, 67, 0
2, 63060, Note_on_c, 0, 74, 0
2, 63060, Note_on_c, 0, 59, 0
2, 63060, Note_on_c, 0, 62, 0
2, 63060, Note_on_c, 0, 74, 100
2, 63060, Note_on_c, 0, 79, 100
2, 63060, Note_on_c, 0, 67, 100
2, 63060, Note_on_c, 0, 62, 100
2, 63060, Note_on_c, 0, 55, 100
2, 63060, Note_on_c, 0, 59, 100
2, 63120, Note_on_c, 0, 59, 0
2, 63120, Note_on_c, 0, 79, 0
2, 63120, Note_on_c, 0, 67, 0
2, 63120, Note_on_c, 0, 74, 0
2, 63120, Note_on_c, 0, 55, 0
2, 63120, Note_on_c, 0, 62, 0
2, 63120, Note_on_c, 0, 57, 100
2, 63120, Note_on_c, 0, 62, 100
2, 63120, Note_on_c, 0, 69, 100
2, 63120, Note_on_c, 0, 74, 100
2, 63120, Note_on_c, 0, 78, 100
2, 63180, Note_on_c, 0, 78, 0
2, 63180, Note_on_c, 0, 69, 0
2, 63180, Note_on_c, 0, 57, 0
2, 63180, Note_on_c, 0, 62, 0
2, 63180, Note_on_c, 0, 74, 0
2, 63180, Note_on_c, 0, 57, 100
2, 63180, Note_on_c, 0, 62, 100
2, 63180, Note_on_c, 0, 69, 100
2, 63180, Note_on_c, 0, 74, 100
2, 63180, Note_on_c, 0, 78, 100
2, 63240, Note_on_c, 0, 78, 0
2, 63240, Note_on_c, 0, 69, 0
2, 63240, Note_on_c, 0, 57, 0
2, 63240, Note_on_c, 0, 62, 0
2, 63240, Note_on_c, 0, 74, 0
2, 63240, Note_on_c, 0, 57, 100
2, 63240, Note_on_c, 0, 62, 100
2, 63240, Note_on_c, 0, 69, 100
2, 63240, Note_on_c, 0, 74, 100
2, 63240, Note_on_c, 0, 78, 100
2, 63300, Note_on_c, 0, 78, 0
2, 63300, Note_on_c, 0, 69, 0
2, 63300, Note_on_c, 0, 57, 0
2, 63300, Note_on_c, 0, 62, 0
2, 63300, Note_on_c, 0, 74, 0
2, 63300, Note_on_c, 0, 57, 100
2, 63300, Note_on_c, 0, 62, 100
2, 63300, Note_on_c, 0, 69, 100
2, 63300, Note_on_c, 0, 74, 100
2, 63300, Note_on_c, 0, 78, 100
2, 63360, Note_on_c, 0, 78, 0
2, 63360, Note_on_c, 0, 69, 0
2, 63360, Note_on_c, 0, 57, 0
2, 63360, Note_on_c, 0, 62, 0
2, 63360, Note_on_c, 0, 74, 0
2, 63360, Note_on_c, 0, 79, 100
2, 63360, Note_on_c, 0, 72, 100
2, 63360, Note_on_c, 0, 67, 100
2, 63360, Note_on_c, 0, 60, 100
2, 63360, Note_on_c, 0, 57, 100
2, 63480, Note_on_c, 0, 57, 0
2, 63480, Note_on_c, 0, 67, 0
2, 63480, Note_on_c, 0, 79, 0
2, 63480, Note_on_c, 0, 72, 0
2, 63480, Note_on_c, 0, 60, 0
2, 63480, Note_on_c, 0, 79, 100
2, 63480, Note_on_c, 0, 72, 100
2, 63480, Note_on_c, 0, 67, 100
2, 63480, Note_on_c, 0, 60, 100
2, 63480, Note_on_c, 0, 57, 100
2, 63570, Note_on_c, 0, 79, 100
2, 63570, Note_on_c, 0, 72, 100
2, 63570, Note_on_c, 0, 67, 100
2, 63570, Note_on_c, 0, 60, 100
2, 63570, Note_on_c, 0, 57, 100
2, 63600, Note_on_c, 0, 57, 0
2, 63600, Note_on_c, 0, 67, 0
2, 63600, Note_on_c, 0, 60, 0
2, 63600, Note_on_c, 0, 79, 0
2, 63600, Note_on_c, 0, 57, 0
2, 63600, Note_on_c, 0, 72, 0
2, 63600, Note_on_c, 0, 67, 0
2, 63600, Note_on_c, 0, 72, 0
2, 63600, Note_on_c, 0, 79, 0
2, 63600, Note_on_c, 0, 60, 0
2, 63600, Note_on_c, 0, 79, 100
2, 63600, Note_on_c, 0, 72, 100
2, 63600, Note_on_c, 0, 67, 100
2, 63600, Note_on_c, 0, 60, 100
2, 63600, Note_on_c, 0, 57, 100
2, 63660, Note_on_c, 0, 57, 0
2, 63660, Note_on_c, 0, 67, 0
2, 63660, Note_on_c, 0, 79, 0
2, 63660, Note_on_c, 0, 72, 0
2, 63660, Note_on_c, 0, 60, 0
2, 63660, Note_on_c, 0, 79, 100
2, 63660, Note_on_c, 0, 72, 100
2, 63660, Note_on_c, 0, 67, 100
2, 63660, Note_on_c, 0, 60, 100
2, 63660, Note_on_c, 0, 57, 100
2, 63780, Note_on_c, 0, 57, 0
2, 63780, Note_on_c, 0, 67, 0
2, 63780, Note_on_c, 0, 79, 0
2, 63780, Note_on_c, 0, 72, 0
2, 63780, Note_on_c, 0, 60, 0
2, 63780, Note_on_c, 0, 79, 100
2, 63780, Note_on_c, 0, 72, 100
2, 63780, Note_on_c, 0, 60, 100
2, 63780, Note_on_c, 0, 67, 100
2, 63780, Note_on_c, 0, 57, 100
2, 63840, Note_on_c, 0, 57, 0
2, 63840, Note_on_c, 0, 60, 0
2, 63840, Note_on_c, 0, 79, 0
2, 63840, Note_on_c, 0, 72, 0
2, 63840, Note_on_c, 0, 67, 0
2, 63840, Note_on_c, 0, 79, 100
2, 63840, Note_on_c, 0, 74, 100
2, 63840, Note_on_c, 0, 67, 100
2, 63840, Note_on_c, 0, 62, 100
2, 63840, Note_on_c, 0, 59, 100
2, 63840, Note_on_c, 0, 55, 100
2, 63900, Note_on_c, 0, 79, 100
2, 63900, Note_on_c, 0, 74, 100
2, 63900, Note_on_c, 0, 67, 100
2, 63900, Note_on_c, 0, 62, 100
2, 63900, Note_on_c, 0, 59, 100
2, 63900, Note_on_c, 0, 55, 100
2, 63960, Note_on_c, 0, 55, 0
2, 63960, Note_on_c, 0, 74, 0
2, 63960, Note_on_c, 0, 74, 0
2, 63960, Note_on_c, 0, 67, 0
2, 63960, Note_on_c, 0, 62, 0
2, 63960, Note_on_c, 0, 79, 0
2, 63960, Note_on_c, 0, 59, 0
2, 63960, Note_on_c, 0, 55, 0
2, 63960, Note_on_c, 0, 67, 0
2, 63960, Note_on_c, 0, 79, 0
2, 63960, Note_on_c, 0, 59, 0
2, 63960, Note_on_c, 0, 62, 0
2, 63960, Note_on_c, 0, 74, 100
2, 63960, Note_on_c, 0, 79, 100
2, 63960, Note_on_c, 0, 67, 100
2, 63960, Note_on_c, 0, 62, 100
2, 63960, Note_on_c, 0, 59, 100
2, 63960, Note_on_c, 0, 55, 100
2, 64020, Note_on_c, 0, 55, 0
2, 64020, Note_on_c, 0, 79, 0
2, 64020, Note_on_c, 0, 67, 0
2, 64020, Note_on_c, 0, 74, 0
2, 64020, Note_on_c, 0, 59, 0
2, 64020, Note_on_c, 0, 62, 0
2, 64020, Note_on_c, 0, 74, 100
2, 64020, Note_on_c, 0, 79, 100
2, 64020, Note_on_c, 0, 67, 100
2, 64020, Note_on_c, 0, 62, 100
2, 64020, Note_on_c, 0, 55, 100
2, 64020, Note_on_c, 0, 59, 100
2, 64080, Note_on_c, 0, 59, 0
2, 64080, Note_on_c, 0, 79, 0
2, 64080, Note_on_c, 0, 67, 0
2, 64080, Note_on_c, 0, 74, 0
2, 64080, Note_on_c, 0, 55, 0
2, 64080, Note_on_c, 0, 62, 0
2, 64080, Note_on_c, 0, 57, 100
2, 64080, Note_on_c, 0, 62, 100
2, 64080, Note_on_c, 0, 69, 100
2, 64080, Note_on_c, 0, 74, 100
2, 64080, Note_on_c, 0, 78, 100
2, 64140, Note_on_c, 0, 78, 0
2, 64140, Note_on_c, 0, 69, 0
2, 64140, Note_on_c, 0, 57, 0
2, 64140, Note_on_c, 0, 62, 0
2, 64140, Note_on_c, 0, 74, 0
2, 64140, Note_on_c, 0, 57, 100
2, 64140, Note_on_c, 0, 62, 100
2, 64140, Note_on_c, 0, 69, 100
2, 64140, Note_on_c, 0, 74, 100
2, 64140, Note_on_c, 0, 78, 100
2, 64200, Note_on_c, 0, 78, 0
2, 64200, Note_on_c, 0, 69, 0
2, 64200, Note_on_c, 0, 57, 0
2, 64200, Note_on_c, 0, 62, 0
2, 64200, Note_on_c, 0, 74, 0
2, 64200, Note_on_c, 0, 57, 100
2, 64200, Note_on_c, 0, 62, 100
2, 64200, Note_on_c, 0, 69, 100
2, 64200, Note_on_c, 0, 74, 100
2, 64200, Note_on_c, 0, 78, 100
2, 64260, Note_on_c, 0, 78, 0
2, 64260, Note_on_c, 0, 69, 0
2, 64260, Note_on_c, 0, 57, 0
2, 64260, Note_on_c, 0, 62, 0
2, 64260, Note_on_c, 0, 74, 0
2, 64260, Note_on_c, 0, 57, 100
2, 64260, Note_on_c, 0, 62, 100
2, 64260, Note_on_c, 0, 69, 100
2, 64260, Note_on_c, 0, 74, 100
2, 64260, Note_on_c, 0, 78, 100
2, 64320, Note_on_c, 0, 78, 0
2, 64320, Note_on_c, 0, 69, 0
2, 64320, Note_on_c, 0, 57, 0
2, 64320, Note_on_c, 0, 62, 0
2, 64320, Note_on_c, 0, 74, 0
2, 64320, Note_on_c, 0, 77, 100
2, 64320, Note_on_c, 0, 72, 100
2, 64320, Note_on_c, 0, 69, 100
2, 64320, Note_on_c, 0, 65, 100
2, 64320, Note_on_c, 0, 60, 100
2, 64320, Note_on_c, 0, 53, 100
2, 64440, Note_on_c, 0, 53, 0
2, 64440, Note_on_c, 0, 72, 0
2, 64440, Note_on_c, 0, 69, 0
2, 64440, Note_on_c, 0, 77, 0
2, 64440, Note_on_c, 0, 60, 0
2, 64440, Note_on_c, 0, 65, 0
2, 64620, Note_on_c, 0, 77, 100
2, 64620, Note_on_c, 0, 72, 100
2, 64620, Note_on_c, 0, 69, 100
2, 64620, Note_on_c, 0, 65, 100
2, 64620, Note_on_c, 0, 60, 100
2, 64620, Note_on_c, 0, 53, 100
2, 64680, Note_on_c, 0, 53, 0
2, 64680, Note_on_c, 0, 72, 0
2, 64680, Note_on_c, 0, 69, 0
2, 64680, Note_on_c, 0, 77, 0
2, 64680, Note_on_c, 0, 60, 0
2, 64680, Note_on_c, 0, 65, 0
2, 64680, Note_on_c, 0, 77, 100
2, 64680, Note_on_c, 0, 72, 100
2, 64680, Note_on_c, 0, 69, 100
2, 64680, Note_on_c, 0, 65, 100
2, 64680, Note_on_c, 0, 60, 100
2, 64680, Note_on_c, 0, 53, 100
2, 64740, Note_on_c, 0, 53, 0
2, 64740, Note_on_c, 0, 72, 0
2, 64740, Note_on_c, 0, 69, 0
2, 64740, Note_on_c, 0, 77, 0
2, 64740, Note_on_c, 0, 60, 0
2, 64740, Note_on_c, 0, 65, 0
2, 64740, Note_on_c, 0, 79, 100
2, 64740, Note_on_c, 0, 74, 100
2, 64740, Note_on_c, 0, 67, 100
2, 64740, Note_on_c, 0, 62, 100
2, 64740, Note_on_c, 0, 55, 100
2, 64740, Note_on_c, 0, 59, 100
2, 64800, Note_on_c, 0, 59, 0
2, 64800, Note_on_c, 0, 74, 0
2, 64800, Note_on_c, 0, 67, 0
2, 64800, Note_on_c, 0, 79, 0
2, 64800, Note_on_c, 0, 55, 0
2, 64800, Note_on_c, 0, 62, 0
2, 64860, Note_on_c, 0, 79, 100
2, 64860, Note_on_c, 0, 74, 100
2, 64860, Note_on_c, 0, 67, 100
2, 64860, Note_on_c, 0, 62, 100
2, 64860, Note_on_c, 0, 55, 100
2, 64860, Note_on_c, 0, 59, 100
2, 64980, Note_on_c, 0, 59, 0
2, 64980, Note_on_c, 0, 74, 0
2, 64980, Note_on_c, 0, 67, 0
2, 64980, Note_on_c, 0, 79, 0
2, 64980, Note_on_c, 0, 55, 0
2, 64980, Note_on_c, 0, 62, 0
2, 64980, Note_on_c, 0, 79, 100
2, 64980, Note_on_c, 0, 74, 100
2, 64980, Note_on_c, 0, 67, 100
2, 64980, Note_on_c, 0, 59, 100
2, 64980, Note_on_c, 0, 62, 100
2, 64980, Note_on_c, 0, 55, 100
2, 65100, Note_on_c, 0, 55, 0
2, 65100, Note_on_c, 0, 74, 0
2, 65100, Note_on_c, 0, 67, 0
2, 65100, Note_on_c, 0, 79, 0
2, 65100, Note_on_c, 0, 62, 0
2, 65100, Note_on_c, 0, 59, 0
2, 65100, Note_on_c, 0, 79, 100
2, 65100, Note_on_c, 0, 74, 100
2, 65100, Note_on_c, 0, 67, 100
2, 65100, Note_on_c, 0, 62, 100
2, 65100, Note_on_c, 0, 59, 100
2, 65100, Note_on_c, 0, 55, 100
2, 65220, Note_on_c, 0, 55, 0
2, 65220, Note_on_c, 0, 74, 0
2, 65220, Note_on_c, 0, 67, 0
2, 65220, Note_on_c, 0, 79, 0
2, 65220, Note_on_c, 0, 59, 0
2, 65220, Note_on_c, 0, 62, 0
2, 65220, Note_on_c, 0, 79, 100
2, 65220, Note_on_c, 0, 74, 100
2, 65220, Note_on_c, 0, 67, 100
2, 65220, Note_on_c, 0, 62, 100
2, 65220, Note_on_c, 0, 59, 100
2, 65220, Note_on_c, 0, 55, 100
2, 65280, Note_on_c, 0, 79, 100
2, 65280, Note_on_c, 0, 72, 100
2, 65280, Note_on_c, 0, 67, 100
2, 65280, Note_on_c, 0, 60, 100
2, 65280, Note_on_c, 0, 57, 100
2, 65290, Control_c, 0, 7, 126
2, 65298, Control_c, 0, 7, 125
2, 65303, Control_c, 0, 7, 122
2, 65303, Control_c, 0, 7, 123
2, 65308, Control_c, 0, 7, 118
2, 65308, Control_c, 0, 7, 120
2, 65313, Control_c, 0, 7, 117
2, 65316, Control_c, 0, 7, 113
2, 65316, Control_c, 0, 7, 115
2, 65321, Control_c, 0, 7, 108
2, 65340, Note_on_c, 0, 55, 0
2, 65340, Note_on_c, 0, 62, 0
2, 65340, Note_on_c, 0, 79, 0
2, 65340, Note_on_c, 0, 67, 0
2, 65340, Note_on_c, 0, 59, 0
2, 65340, Note_on_c, 0, 74, 0
2, 65348, Control_c, 0, 7, 107
2, 65371, Control_c, 0, 7, 106
2, 65395, Control_c, 0, 7, 105
2, 65400, Note_on_c, 0, 72, 0
2, 65400, Note_on_c, 0, 60, 0
2, 65400, Note_on_c, 0, 57, 0
2, 65400, Note_on_c, 0, 79, 0
2, 65400, Note_on_c, 0, 67, 0
2, 65400, Note_on_c, 0, 79, 100
2, 65400, Note_on_c, 0, 72, 100
2, 65400, Note_on_c, 0, 67, 100
2, 65400, Note_on_c, 0, 60, 100
2, 65400, Note_on_c, 0, 57, 100
2, 65418, Control_c, 0, 7, 104
2, 65441, Control_c, 0, 7, 103
2, 65468, Control_c, 0, 7, 102
2, 65490, Note_on_c, 0, 79, 100
2, 65490, Note_on_c, 0, 72, 100
2, 65490, Note_on_c, 0, 67, 100
2, 65490, Note_on_c, 0, 60, 100
2, 65490, Note_on_c, 0, 57, 100
2, 65491, Control_c, 0, 7, 101
2, 65515, Control_c, 0, 7, 100
2, 65520, Note_on_c, 0, 57, 0
2, 65520, Note_on_c, 0, 67, 0
2, 65520, Note_on_c, 0, 60, 0
2, 65520, Note_on_c, 0, 79, 0
2, 65520, Note_on_c, 0, 57, 0
2, 65520, Note_on_c, 0, 72, 0
2, 65520, Note_on_c, 0, 67, 0
2, 65520, Note_on_c, 0, 72, 0
2, 65520, Note_on_c, 0, 79, 0
2, 65520, Note_on_c, 0, 60, 0
2, 65520, Note_on_c, 0, 79, 100
2, 65520, Note_on_c, 0, 72, 100
2, 65520, Note_on_c, 0, 67, 100
2, 65520, Note_on_c, 0, 60, 100
2, 65520, Note_on_c, 0, 57, 100
2, 65538, Control_c, 0, 7, 99
2, 65561, Control_c, 0, 7, 98
2, 65580, Note_on_c, 0, 57, 0
2, 65580, Note_on_c, 0, 67, 0
2, 65580, Note_on_c, 0, 79, 0
2, 65580, Note_on_c, 0, 72, 0
2, 65580, Note_on_c, 0, 60, 0
2, 65580, Note_on_c, 0, 79, 100
2, 65580, Note_on_c, 0, 72, 100
2, 65580, Note_on_c, 0, 67, 100
2, 65580, Note_on_c, 0, 60, 100
2, 65580, Note_on_c, 0, 57, 100
2, 65588, Control_c, 0, 7, 97
2, 65611, Control_c, 0, 7, 96
2, 65635, Control_c, 0, 7, 95
2, 65658, Control_c, 0, 7, 94
2, 65681, Control_c, 0, 7, 93
2, 65700, Note_on_c, 0, 57, 0
2, 65700, Note_on_c, 0, 67, 0
2, 65700, Note_on_c, 0, 79, 0
2, 65700, Note_on_c, 0, 72, 0
2, 65700, Note_on_c, 0, 60, 0
2, 65700, Note_on_c, 0, 79, 100
2, 65700, Note_on_c, 0, 72, 100
2, 65700, Note_on_c, 0, 60, 100
2, 65700, Note_on_c, 0, 67, 100
2, 65700, Note_on_c, 0, 57, 100
2, 65708, Control_c, 0, 7, 92
2, 65731, Control_c, 0, 7, 91
2, 65755, Control_c, 0, 7, 90
2, 65760, Note_on_c, 0, 57, 0
2, 65760, Note_on_c, 0, 60, 0
2, 65760, Note_on_c, 0, 79, 0
2, 65760, Note_on_c, 0, 72, 0
2, 65760, Note_on_c, 0, 67, 0
2, 65760, Note_on_c, 0, 79, 100
2, 65760, Note_on_c, 0, 74, 100
2, 65760, Note_on_c, 0, 67, 100
2, 65760, Note_on_c, 0, 62, 100
2, 65760, Note_on_c, 0, 59, 100
2, 65760, Note_on_c, 0, 55, 100
2, 65778, Control_c, 0, 7, 89
2, 65801, Control_c, 0, 7, 88
2, 65820, Note_on_c, 0, 79, 100
2, 65820, Note_on_c, 0, 74, 100
2, 65820, Note_on_c, 0, 67, 100
2, 65820, Note_on_c, 0, 62, 100
2, 65820, Note_on_c, 0, 59, 100
2, 65820, Note_on_c, 0, 55, 100
2, 65828, Control_c, 0, 7, 87
2, 65851, Control_c, 0, 7, 86
2, 65875, Control_c, 0, 7, 85
2, 65880, Note_on_c, 0, 55, 0
2, 65880, Note_on_c, 0, 74, 0
2, 65880, Note_on_c, 0, 74, 0
2, 65880, Note_on_c, 0, 67, 0
2, 65880, Note_on_c, 0, 62, 0
2, 65880, Note_on_c, 0, 79, 0
2, 65880, Note_on_c, 0, 59, 0
2, 65880, Note_on_c, 0, 55, 0
2, 65880, Note_on_c, 0, 67, 0
2, 65880, Note_on_c, 0, 79, 0
2, 65880, Note_on_c, 0, 59, 0
2, 65880, Note_on_c, 0, 62, 0
2, 65880, Note_on_c, 0, 74, 100
2, 65880, Note_on_c, 0, 79, 100
2, 65880, Note_on_c, 0, 67, 100
2, 65880, Note_on_c, 0, 62, 100
2, 65880, Note_on_c, 0, 59, 100
2, 65880, Note_on_c, 0, 55, 100
2, 65898, Control_c, 0, 7, 84
2, 65921, Control_c, 0, 7, 83
2, 65940, Note_on_c, 0, 55, 0
2, 65940, Note_on_c, 0, 79, 0
2, 65940, Note_on_c, 0, 67, 0
2, 65940, Note_on_c, 0, 74, 0
2, 65940, Note_on_c, 0, 59, 0
2, 65940, Note_on_c, 0, 62, 0
2, 65940, Note_on_c, 0, 74, 100
2, 65940, Note_on_c, 0, 79, 100
2, 65940, Note_on_c, 0, 67, 100
2, 65940, Note_on_c, 0, 62, 100
2, 65940, Note_on_c, 0, 55, 100
2, 65940, Note_on_c, 0, 59, 100
2, 65948, Control_c, 0, 7, 82
2, 65971, Control_c, 0, 7, 81
2, 65995, Control_c, 0, 7, 80
2, 66000, Note_on_c, 0, 59, 0
2, 66000, Note_on_c, 0, 79, 0
2, 66000, Note_on_c, 0, 67, 0
2, 66000, Note_on_c, 0, 74, 0
2, 66000, Note_on_c, 0, 55, 0
2, 66000, Note_on_c, 0, 62, 0
2, 66000, Note_on_c, 0, 57, 100
2, 66000, Note_on_c, 0, 62, 100
2, 66000, Note_on_c, 0, 69, 100
2, 66000, Note_on_c, 0, 74, 100
2, 66000, Note_on_c, 0, 78, 100
2, 66018, Control_c, 0, 7, 79
2, 66041, Control_c, 0, 7, 78
2, 66060, Note_on_c, 0, 78, 0
2, 66060, Note_on_c, 0, 69, 0
2, 66060, Note_on_c, 0, 57, 0
2, 66060, Note_on_c, 0, 62, 0
2, 66060, Note_on_c, 0, 74, 0
2, 66060, Note_on_c, 0, 57, 100
2, 66060, Note_on_c, 0, 62, 100
2, 66060, Note_on_c, 0, 69, 100
2, 66060, Note_on_c, 0, 74, 100
2, 66060, Note_on_c, 0, 78, 100
2, 66068, Control_c, 0, 7, 77
2, 66091, Control_c, 0, 7, 76
2, 66115, Control_c, 0, 7, 75
2, 66120, Note_on_c, 0, 78, 0
2, 66120, Note_on_c, 0, 69, 0
2, 66120, Note_on_c, 0, 57, 0
2, 66120, Note_on_c, 0, 62, 0
2, 66120, Note_on_c, 0, 74, 0
2, 66120, Note_on_c, 0, 57, 100
2, 66120, Note_on_c, 0, 62, 100
2, 66120, Note_on_c, 0, 69, 100
2, 66120, Note_on_c, 0, 74, 100
2, 66120, Note_on_c, 0, 78, 100
2, 66138, Control_c, 0, 7, 74
2, 66161, Control_c, 0, 7, 73
2, 66180, Note_on_c, 0, 78, 0
2, 66180, Note_on_c, 0, 69, 0
2, 66180, Note_on_c, 0, 57, 0
2, 66180, Note_on_c, 0, 62, 0
2, 66180, Note_on_c, 0, 74, 0
2, 66180, Note_on_c, 0, 57, 100
2, 66180, Note_on_c, 0, 62, 100
2, 66180, Note_on_c, 0, 69, 100
2, 66180, Note_on_c, 0, 74, 100
2, 66180, Note_on_c, 0, 78, 100
2, 66185, Control_c, 0, 7, 72
2, 66211, Control_c, 0, 7, 71
2, 66235, Control_c, 0, 7, 70
2, 66240, Note_on_c, 0, 78, 0
2, 66240, Note_on_c, 0, 69, 0
2, 66240, Note_on_c, 0, 57, 0
2, 66240, Note_on_c, 0, 62, 0
2, 66240, Note_on_c, 0, 74, 0
2, 66240, Note_on_c, 0, 79, 100
2, 66240, Note_on_c, 0, 72, 100
2, 66240, Note_on_c, 0, 67, 100
2, 66240, Note_on_c, 0, 60, 100
2, 66240, Note_on_c, 0, 57, 100
2, 66258, Control_c, 0, 7, 69
2, 66281, Control_c, 0, 7, 68
2, 66305, Control_c, 0, 7, 67
2, 66331, Control_c, 0, 7, 66
2, 66355, Control_c, 0, 7, 65
2, 66360, Note_on_c, 0, 57, 0
2, 66360, Note_on_c, 0, 67, 0
2, 66360, Note_on_c, 0, 79, 0
2, 66360, Note_on_c, 0, 72, 0
2, 66360, Note_on_c, 0, 60, 0
2, 66360, Note_on_c, 0, 79, 100
2, 66360, Note_on_c, 0, 72, 100
2, 66360, Note_on_c, 0, 67, 100
2, 66360, Note_on_c, 0, 60, 100
2, 66360, Note_on_c, 0, 57, 100
2, 66378, Control_c, 0, 7, 64
2, 66401, Control_c, 0, 7, 63
2, 66425, Control_c, 0, 7, 62
2, 66450, Note_on_c, 0, 79, 100
2, 66450, Note_on_c, 0, 72, 100
2, 66450, Note_on_c, 0, 67, 100
2, 66450, Note_on_c, 0, 60, 100
2, 66450, Note_on_c, 0, 57, 100
2, 66451, Control_c, 0, 7, 61
2, 66475, Control_c, 0, 7, 60
2, 66480, Note_on_c, 0, 57, 0
2, 66480, Note_on_c, 0, 67, 0
2, 66480, Note_on_c, 0, 60, 0
2, 66480, Note_on_c, 0, 79, 0
2, 66480, Note_on_c, 0, 57, 0
2, 66480, Note_on_c, 0, 72, 0
2, 66480, Note_on_c, 0, 67, 0
2, 66480, Note_on_c, 0, 72, 0
2, 66480, Note_on_c, 0, 79, 0
2, 66480, Note_on_c, 0, 60, 0
2, 66480, Note_on_c, 0, 79, 100
2, 66480, Note_on_c, 0, 72, 100
2, 66480, Note_on_c, 0, 67, 100
2, 66480, Note_on_c, 0, 60, 100
2, 66480, Note_on_c, 0, 57, 100
2, 66498, Control_c, 0, 7, 59
2, 66521, Control_c, 0, 7, 58
2, 66540, Note_on_c, 0, 57, 0
2, 66540, Note_on_c, 0, 67, 0
2, 66540, Note_on_c, 0, 79, 0
2, 66540, Note_on_c, 0, 72, 0
2, 66540, Note_on_c, 0, 60, 0
2, 66540, Note_on_c, 0, 79, 100
2, 66540, Note_on_c, 0, 72, 100
2, 66540, Note_on_c, 0, 67, 100
2, 66540, Note_on_c, 0, 60, 100
2, 66540, Note_on_c, 0, 57, 100
2, 66545, Control_c, 0, 7, 57
2, 66571, Control_c, 0, 7, 56
2, 66595, Control_c, 0, 7, 55
2, 66618, Control_c, 0, 7, 54
2, 66641, Control_c, 0, 7, 53
2, 66660, Note_on_c, 0, 57, 0
2, 66660, Note_on_c, 0, 67, 0
2, 66660, Note_on_c, 0, 79, 0
2, 66660, Note_on_c, 0, 72, 0
2, 66660, Note_on_c, 0, 60, 0
2, 66660, Note_on_c, 0, 79, 100
2, 66660, Note_on_c, 0, 72, 100
2, 66660, Note_on_c, 0, 60, 100
2, 66660, Note_on_c, 0, 67, 100
2, 66660, Note_on_c, 0, 57, 100
2, 66665, Control_c, 0, 7, 52
2, 66691, Control_c, 0, 7, 51
2, 66715, Control_c, 0, 7, 50
2, 66720, Note_on_c, 0, 57, 0
2, 66720, Note_on_c, 0, 60, 0
2, 66720, Note_on_c, 0, 79, 0
2, 66720, Note_on_c, 0, 72, 0
2, 66720, Note_on_c, 0, 67, 0
2, 66720, Note_on_c, 0, 79, 100
2, 66720, Note_on_c, 0, 74, 100
2, 66720, Note_on_c, 0, 67, 100
2, 66720, Note_on_c, 0, 62, 100
2, 66720, Note_on_c, 0, 59, 100
2, 66720, Note_on_c, 0, 55, 100
2, 66738, Control_c, 0, 7, 49
2, 66761, Control_c, 0, 7, 48
2, 66780, Note_on_c, 0, 79, 100
2, 66780, Note_on_c, 0, 74, 100
2, 66780, Note_on_c, 0, 67, 100
2, 66780, Note_on_c, 0, 62, 100
2, 66780, Note_on_c, 0, 59, 100
2, 66780, Note_on_c, 0, 55, 100
2, 66785, Control_c, 0, 7, 47
2, 66811, Control_c, 0, 7, 46
2, 66835, Control_c, 0, 7, 45
2, 66840, Note_on_c, 0, 55, 0
2, 66840, Note_on_c, 0, 74, 0
2, 66840, Note_on_c, 0, 74, 0
2, 66840, Note_on_c, 0, 67, 0
2, 66840, Note_on_c, 0, 62, 0
2, 66840, Note_on_c, 0, 79, 0
2, 66840, Note_on_c, 0, 59, 0
2, 66840, Note_on_c, 0, 55, 0
2, 66840, Note_on_c, 0, 67, 0
2, 66840, Note_on_c, 0, 79, 0
2, 66840, Note_on_c, 0, 59, 0
2, 66840, Note_on_c, 0, 62, 0
2, 66840, Note_on_c, 0, 74, 100
2, 66840, Note_on_c, 0, 79, 100
2, 66840, Note_on_c, 0, 67, 100
2, 66840, Note_on_c, 0, 62, 100
2, 66840, Note_on_c, 0, 59, 100
2, 66840, Note_on_c, 0, 55, 100
2, 66858, Control_c, 0, 7, 44
2, 66881, Control_c, 0, 7, 43
2, 66900, Note_on_c, 0, 55, 0
2, 66900, Note_on_c, 0, 79, 0
2, 66900, Note_on_c, 0, 67, 0
2, 66900, Note_on_c, 0, 74, 0
2, 66900, Note_on_c, 0, 59, 0
2, 66900, Note_on_c, 0, 62, 0
2, 66900, Note_on_c, 0, 74, 100
2, 66900, Note_on_c, 0, 79, 100
2, 66900, Note_on_c, 0, 67, 100
2, 66900, Note_on_c, 0, 62, 100
2, 66900, Note_on_c, 0, 55, 100
2, 66900, Note_on_c, 0, 59, 100
2, 66905, Control_c, 0, 7, 42
2, 66931, Control_c, 0, 7, 41
2, 66955, Control_c, 0, 7, 40
2, 66960, Note_on_c, 0, 59, 0
2, 66960, Note_on_c, 0, 79, 0
2, 66960, Note_on_c, 0, 67, 0
2, 66960, Note_on_c, 0, 74, 0
2, 66960, Note_on_c, 0, 55, 0
2, 66960, Note_on_c, 0, 62, 0
2, 66960, Note_on_c, 0, 57, 100
2, 66960, Note_on_c, 0, 62, 100
2, 66960, Note_on_c, 0, 69, 100
2, 66960, Note_on_c, 0, 74, 100
2, 66960, Note_on_c, 0, 78, 100
2, 66978, Control_c, 0, 7, 39
2, 67001, Control_c, 0, 7, 38
2, 67020, Note_on_c, 0, 78, 0
2, 67020, Note_on_c, 0, 69, 0
2, 67020, Note_on_c, 0, 57, 0
2, 67020, Note_on_c, 0, 62, 0
2, 67020, Note_on_c, 0, 74, 0
2, 67020, Note_on_c, 0, 57, 100
2, 67020, Note_on_c, 0, 62, 100
2, 67020, Note_on_c, 0, 69, 100
2, 67020, Note_on_c, 0, 74, 100
2, 67020, Note_on_c, 0, 78, 100
2, 67025, Control_c, 0, 7, 37
2, 67048, Control_c, 0, 7, 36
2, 67075, Control_c, 0, 7, 35
2, 67080, Note_on_c, 0, 78, 0
2, 67080, Note_on_c, 0, 69, 0
2, 67080, Note_on_c, 0, 57, 0
2, 67080, Note_on_c, 0, 62, 0
2, 67080, Note_on_c, 0, 74, 0
2, 67080, Note_on_c, 0, 57, 100
2, 67080, Note_on_c, 0, 62, 100
2, 67080, Note_on_c, 0, 69, 100
2, 67080, Note_on_c, 0, 74, 100
2, 67080, Note_on_c, 0, 78, 100
2, 67098, Control_c, 0, 7, 34
2, 67121, Control_c, 0, 7, 33
2, 67140, Note_on_c, 0, 78, 0
2, 67140, Note_on_c, 0, 69, 0
2, 67140, Note_on_c, 0, 57, 0
2, 67140, Note_on_c, 0, 62, 0
2, 67140, Note_on_c, 0, 74, 0
2, 67140, Note_on_c, 0, 57, 100
2, 67140, Note_on_c, 0, 62, 100
2, 67140, Note_on_c, 0, 69, 100
2, 67140, Note_on_c, 0, 74, 100
2, 67140, Note_on_c, 0, 78, 100
2, 67145, Control_c, 0, 7, 32
2, 67168, Control_c, 0, 7, 31
2, 67195, Control_c, 0, 7, 30
2, 67200, Note_on_c, 0, 78, 0
2, 67200, Note_on_c, 0, 69, 0
2, 67200, Note_on_c, 0, 57, 0
2, 67200, Note_on_c, 0, 62, 0
2, 67200, Note_on_c, 0, 74, 0
2, 67200, Note_on_c, 0, 79, 100
2, 67200, Note_on_c, 0, 72, 100
2, 67200, Note_on_c, 0, 67, 100
2, 67200, Note_on_c, 0, 60, 100
2, 67200, Note_on_c, 0, 57, 100
2, 67218, Control_c, 0, 7, 29
2, 67241, Control_c, 0, 7, 28
2, 67265, Control_c, 0, 7, 27
2, 67288, Control_c, 0, 7, 26
2, 67315, Control_c, 0, 7, 25
2, 67320, Note_on_c, 0, 57, 0
2, 67320, Note_on_c, 0, 67, 0
2, 67320, Note_on_c, 0, 79, 0
2, 67320, Note_on_c, 0, 72, 0
2, 67320, Note_on_c, 0, 60, 0
2, 67320, Note_on_c, 0, 79, 100
2, 67320, Note_on_c, 0, 72, 100
2, 67320, Note_on_c, 0, 67, 100
2, 67320, Note_on_c, 0, 60, 100
2, 67320, Note_on_c, 0, 57, 100
2, 67338, Control_c, 0, 7, 24
2, 67361, Control_c, 0, 7, 23
2, 67385, Control_c, 0, 7, 22
2, 67408, Control_c, 0, 7, 21
2, 67410, Note_on_c, 0, 79, 100
2, 67410, Note_on_c, 0, 72, 100
2, 67410, Note_on_c, 0, 67, 100
2, 67410, Note_on_c, 0, 60, 100
2, 67410, Note_on_c, 0, 57, 100
2, 67435, Control_c, 0, 7, 20
2, 67440, Note_on_c, 0, 57, 0
2, 67440, Note_on_c, 0, 67, 0
2, 67440, Note_on_c, 0, 60, 0
2, 67440, Note_on_c, 0, 79, 0
2, 67440, Note_on_c, 0, 57, 0
2, 67440, Note_on_c, 0, 72, 0
2, 67440, Note_on_c, 0, 67, 0
2, 67440, Note_on_c, 0, 72, 0
2, 67440, Note_on_c, 0, 79, 0
2, 67440, Note_on_c, 0, 60, 0
2, 67440, Note_on_c, 0, 79, 100
2, 67440, Note_on_c, 0, 72, 100
2, 67440, Note_on_c, 0, 67, 100
2, 67440, Note_on_c, 0, 60, 100
2, 67440, Note_on_c, 0, 57, 100
2, 67458, Control_c, 0, 7, 19
2, 67481, Control_c, 0, 7, 18
2, 67500, Note_on_c, 0, 57, 0
2, 67500, Note_on_c, 0, 67, 0
2, 67500, Note_on_c, 0, 79, 0
2, 67500, Note_on_c, 0, 72, 0
2, 67500, Note_on_c, 0, 60, 0
2, 67500, Note_on_c, 0, 79, 100
2, 67500, Note_on_c, 0, 72, 100
2, 67500, Note_on_c, 0, 67, 100
2, 67500, Note_on_c, 0, 60, 100
2, 67500, Note_on_c, 0, 57, 100
2, 67505, Control_c, 0, 7, 17
2, 67528, Control_c, 0, 7, 16
2, 67555, Control_c, 0, 7, 15
2, 67578, Control_c, 0, 7, 14
2, 67601, Control_c, 0, 7, 13
2, 67620, Note_on_c, 0, 57, 0
2, 67620, Note_on_c, 0, 67, 0
2, 67620, Note_on_c, 0, 79, 0
2, 67620, Note_on_c, 0, 72, 0
2, 67620, Note_on_c, 0, 60, 0
2, 67620, Note_on_c, 0, 79, 100
2, 67620, Note_on_c, 0, 72, 100
2, 67620, Note_on_c, 0, 60, 100
2, 67620, Note_on_c, 0, 67, 100
2, 67620, Note_on_c, 0, 57, 100
2, 67625, Control_c, 0, 7, 12
2, 67648, Control_c, 0, 7, 11
2, 67675, Control_c, 0, 7, 10
2, 67680, Note_on_c, 0, 57, 0
2, 67680, Note_on_c, 0, 60, 0
2, 67680, Note_on_c, 0, 79, 0
2, 67680, Note_on_c, 0, 72, 0
2, 67680, Note_on_c, 0, 67, 0
2, 67680, Note_on_c, 0, 79, 100
2, 67680, Note_on_c, 0, 74, 100
2, 67680, Note_on_c, 0, 67, 100
2, 67680, Note_on_c, 0, 62, 100
2, 67680, Note_on_c, 0, 59, 100
2, 67680, Note_on_c, 0, 55, 100
2, 67698, Control_c, 0, 7, 9
2, 67721, Control_c, 0, 7, 8
2, 67740, Note_on_c, 0, 79, 100
2, 67740, Note_on_c, 0, 74, 100
2, 67740, Note_on_c, 0, 67, 100
2, 67740, Note_on_c, 0, 62, 100
2, 67740, Note_on_c, 0, 59, 100
2, 67740, Note_on_c, 0, 55, 100
2, 67745, Control_c, 0, 7, 7
2, 67768, Control_c, 0, 7, 6
2, 67795, Control_c, 0, 7, 5
2, 67800, Note_on_c, 0, 55, 0
2, 67800, Note_on_c, 0, 74, 0
2, 67800, Note_on_c, 0, 74, 0
2, 67800, Note_on_c, 0, 67, 0
2, 67800, Note_on_c, 0, 62, 0
2, 67800, Note_on_c, 0, 79, 0
2, 67800, Note_on_c, 0, 59, 0
2, 67800, Note_on_c, 0, 55, 0
2, 67800, Note_on_c, 0, 67, 0
2, 67800, Note_on_c, 0, 79, 0
2, 67800, Note_on_c, 0, 59, 0
2, 67800, Note_on_c, 0, 62, 0
2, 67800, Note_on_c, 0, 74, 100
2, 67800, Note_on_c, 0, 79, 100
2, 67800, Note_on_c, 0, 67, 100
2, 67800, Note_on_c, 0, 62, 100
2, 67800, Note_on_c, 0, 59, 100
2, 67800, Note_on_c, 0, 55, 100
2, 67818, Control_c, 0, 7, 4
2, 67841, Control_c, 0, 7, 3
2, 67860, Note_on_c, 0, 55, 0
2, 67860, Note_on_c, 0, 79, 0
2, 67860, Note_on_c, 0, 67, 0
2, 67860, Note_on_c, 0, 74, 0
2, 67860, Note_on_c, 0, 59, 0
2, 67860, Note_on_c, 0, 62, 0
2, 67860, Note_on_c, 0, 74, 100
2, 67860, Note_on_c, 0, 79, 100
2, 67860, Note_on_c, 0, 67, 100
2, 67860, Note_on_c, 0, 62, 100
2, 67860, Note_on_c, 0, 55, 100
2, 67860, Note_on_c, 0, 59, 100
2, 67865, Control_c, 0, 7, 2
2, 67888, Control_c, 0, 7, 1
2, 67911, Control_c, 0, 7, 0
2, 67920, Note_on_c, 0, 59, 0
2, 67920, Note_on_c, 0, 79, 0
2, 67920, Note_on_c, 0, 67, 0
2, 67920, Note_on_c, 0, 74, 0
2, 67920, Note_on_c, 0, 55, 0
2, 67920, Note_on_c, 0, 62, 0
2, 67920, Note_on_c, 0, 57, 100
2, 67920, Note_on_c, 0, 62, 100
2, 67920, Note_on_c, 0, 69, 100
2, 67920, Note_on_c, 0, 74, 100
2, 67920, Note_on_c, 0, 78, 100
2, 67980, Note_on_c, 0, 78, 0
2, 67980, Note_on_c, 0, 69, 0
2, 67980, Note_on_c, 0, 57, 0
2, 67980, Note_on_c, 0, 62, 0
2, 67980, Note_on_c, 0, 74, 0
2, 67980, Note_on_c, 0, 57, 100
2, 67980, Note_on_c, 0, 62, 100
2, 67980, Note_on_c, 0, 69, 100
2, 67980, Note_on_c, 0, 74, 100
2, 67980, Note_on_c, 0, 78, 100
2, 68040, Note_on_c, 0, 78, 0
2, 68040, Note_on_c, 0, 69, 0
2, 68040, Note_on_c, 0, 57, 0
2, 68040, Note_on_c, 0, 62, 0
2, 68040, Note_on_c, 0, 74, 0
2, 68040, Note_on_c, 0, 57, 100
2, 68040, Note_on_c, 0, 62, 100
2, 68040, Note_on_c, 0, 69, 100
2, 68040, Note_on_c, 0, 74, 100
2, 68040, Note_on_c, 0, 78, 100
2, 68100, Note_on_c, 0, 78, 0
2, 68100, Note_on_c, 0, 69, 0
2, 68100, Note_on_c, 0, 57, 0
2, 68100, Note_on_c, 0, 62, 0
2, 68100, Note_on_c, 0, 74, 0
2, 68100, Note_on_c, 0, 57, 100
2, 68100, Note_on_c, 0, 62, 100
2, 68100, Note_on_c, 0, 69, 100
2, 68100, Note_on_c, 0, 74, 100
2, 68100, Note_on_c, 0, 78, 100
2, 68160, Note_on_c, 0, 78, 0
2, 68160, Note_on_c, 0, 69, 0
2, 68160, Note_on_c, 0, 57, 0
2, 68160, Note_on_c, 0, 62, 0
2, 68160, Note_on_c, 0, 74, 0
2, 68160, Note_on_c, 0, 77, 100
2, 68160, Note_on_c, 0, 72, 100
2, 68160, Note_on_c, 0, 69, 100
2, 68160, Note_on_c, 0, 65, 100
2, 68160, Note_on_c, 0, 60, 100
2, 68160, Note_on_c, 0, 53, 100
2, 68280, Note_on_c, 0, 53, 0
2, 68280, Note_on_c, 0, 72, 0
2, 68280, Note_on_c, 0, 69, 0
2, 68280, Note_on_c, 0, 77, 0
2, 68280, Note_on_c, 0, 60, 0
2, 68280, Note_on_c, 0, 65, 0
2, 68460, Note_on_c, 0, 77, 100
2, 68460, Note_on_c, 0, 72, 100
2, 68460, Note_on_c, 0, 69, 100
2, 68460, Note_on_c, 0, 65, 100
2, 68460, Note_on_c, 0, 60, 100
2, 68460, Note_on_c, 0, 53, 100
2, 68520, Note_on_c, 0, 53, 0
2, 68520, Note_on_c, 0, 72, 0
2, 68520, Note_on_c, 0, 69, 0
2, 68520, Note_on_c, 0, 77, 0
2, 68520, Note_on_c, 0, 60, 0
2, 68520, Note_on_c, 0, 65, 0
2, 68520, Note_on_c, 0, 77, 100
2, 68520, Note_on_c, 0, 72, 100
2, 68520, Note_on_c, 0, 69, 100
2, 68520, Note_on_c, 0, 65, 100
2, 68520, Note_on_c, 0, 60, 100
2, 68520, Note_on_c, 0, 53, 100
2, 68580, Note_on_c, 0, 53, 0
2, 68580, Note_on_c, 0, 72, 0
2, 68580, Note_on_c, 0, 69, 0
2, 68580, Note_on_c, 0, 77, 0
2, 68580, Note_on_c, 0, 60, 0
2, 68580, Note_on_c, 0, 65, 0
2, 68580, Note_on_c, 0, 79, 100
2, 68580, Note_on_c, 0, 74, 100
2, 68580, Note_on_c, 0, 67, 100
2, 68580, Note_on_c, 0, 62, 100
2, 68580, Note_on_c, 0, 55, 100
2, 68580, Note_on_c, 0, 59, 100
2, 68640, Note_on_c, 0, 59, 0
2, 68640, Note_on_c, 0, 74, 0
2, 68640, Note_on_c, 0, 67, 0
2, 68640, Note_on_c, 0, 79, 0
2, 68640, Note_on_c, 0, 55, 0
2, 68640, Note_on_c, 0, 62, 0
2, 68700, Note_on_c, 0, 79, 100
2, 68700, Note_on_c, 0, 74, 100
2, 68700, Note_on_c, 0, 67, 100
2, 68700, Note_on_c, 0, 62, 100
2, 68700, Note_on_c, 0, 55, 100
2, 68700, Note_on_c, 0, 59, 100
2, 68820, Note_on_c, 0, 59, 0
2, 68820, Note_on_c, 0, 74, 0
2, 68820, Note_on_c, 0, 67, 0
2, 68820, Note_on_c, 0, 79, 0
2, 68820, Note_on_c, 0, 55, 0
2, 68820, Note_on_c, 0, 62, 0
2, 68820, Note_on_c, 0, 79, 100
2, 68820, Note_on_c, 0, 74, 100
2, 68820, Note_on_c, 0, 67, 100
2, 68820, Note_on_c, 0, 59, 100
2, 68820, Note_on_c, 0, 62, 100
2, 68820, Note_on_c, 0, 55, 100
2, 68940, Note_on_c, 0, 55, 0
2, 68940, Note_on_c, 0, 74, 0
2, 68940, Note_on_c, 0, 67, 0
2, 68940, Note_on_c, 0, 79, 0
2, 68940, Note_on_c, 0, 62, 0
2, 68940, Note_on_c, 0, 59, 0
2, 68940, Note_on_c, 0, 79, 100
2, 68940, Note_on_c, 0, 74, 100
2, 68940, Note_on_c, 0, 67, 100
2, 68940, Note_on_c, 0, 62, 100
2, 68940, Note_on_c, 0, 59, 100
2, 68940, Note_on_c, 0, 55, 100
2, 69060, Note_on_c, 0, 55, 0
2, 69060, Note_on_c, 0, 74, 0
2, 69060, Note_on_c, 0, 67, 0
2, 69060, Note_on_c, 0, 79, 0
2, 69060, Note_on_c, 0, 59, 0
2, 69060, Note_on_c, 0, 62, 0
2, 69060, Note_on_c, 0, 79, 100
2, 69060, Note_on_c, 0, 74, 100
2, 69060, Note_on_c, 0, 67, 100
2, 69060, Note_on_c, 0, 62, 100
2, 69060, Note_on_c, 0, 59, 100
2, 69060, Note_on_c, 0, 55, 100
2, 69180, Note_on_c, 0, 55, 0
2, 69180, Note_on_c, 0, 74, 0
2, 69180, Note_on_c, 0, 67, 0
2, 69180, Note_on_c, 0, 79, 0
2, 69180, Note_on_c, 0, 59, 0
2, 69180, Note_on_c, 0, 62, 0
2, 69180, End_track
3, 0, Start_track
3, 0, MIDI_port, 0
3, 0, Title_t, "Vocals"
3, 0, Control_c, 1, 0, 0
3, 0, Control_c, 1, 32, 0
3, 0, Program_c, 1, 66
3, 0, Control_c, 1, 7, 127
3, 653, Control_c, 1, 7, 120
3, 653, Control_c, 1, 10, 87
3, 1080, Note_on_c, 1, 76, 127
3, 1080, Lyric_t, "He's "
3, 1140, Note_on_c, 1, 76, 0
3, 1140, Note_on_c, 1, 78, 127
3, 1140, Lyric_t, "a "
3, 1200, Note_on_c, 1, 78, 0
3, 1200, Note_on_c, 1, 75, 127
3, 1200, Lyric_t, "twent "
3, 1260, Note_on_c, 1, 75, 0
3, 1260, Note_on_c, 1, 71, 127
3, 1260, Lyric_t, "ieth "
3, 1290, Note_on_c, 1, 71, 0
3, 1290, Note_on_c, 1, 71, 127
3, 1290, Lyric_t, "Cen "
3, 1320, Note_on_c, 1, 71, 0
3, 1320, Note_on_c, 1, 71, 127
3, 1320, Lyric_t, "tur "
3, 1380, Note_on_c, 1, 71, 0
3, 1380, Note_on_c, 1, 68, 127
3, 1380, Lyric_t, "y "
3, 1385, Control_c, 1, 7, 126
3, 1440, Note_on_c, 1, 68, 0
3, 1440, Note_on_c, 1, 73, 127
3, 1440, Lyric_t, "boy "
3, 1680, Note_on_c, 1, 73, 0
3, 2040, Note_on_c, 1, 71, 127
3, 2040, Lyric_t, "With "
3, 2100, Note_on_c, 1, 71, 0
3, 2100, Note_on_c, 1, 71, 127
3, 2100, Lyric_t, "his "
3, 2160, Note_on_c, 1, 71, 0
3, 2160, Note_on_c, 1, 71, 127
3, 2160, Lyric_t, "hands "
3, 2220, Note_on_c, 1, 71, 0
3, 2220, Note_on_c, 1, 73, 127
3, 2220, Lyric_t, "on "
3, 2280, Note_on_c, 1, 73, 0
3, 2280, Note_on_c, 1, 75, 127
3, 2280, Lyric_t, "the "
3, 2340, Note_on_c, 1, 75, 0
3, 2340, Note_on_c, 1, 74, 127
3, 2340, Lyric_t, "rails "
3, 2580, Note_on_c, 1, 74, 0
3, 3000, Note_on_c, 1, 72, 127
3, 3000, Lyric_t, "Try "
3, 3060, Note_on_c, 1, 72, 0
3, 3060, Note_on_c, 1, 72, 127
3, 3060, Lyric_t, "ing "
3, 3120, Note_on_c, 1, 72, 0
3, 3120, Note_on_c, 1, 74, 127
3, 3120, Lyric_t, "not "
3, 3180, Note_on_c, 1, 74, 0
3, 3180, Note_on_c, 1, 72, 127
3, 3180, Lyric_t, "to "
3, 3240, Note_on_c, 1, 72, 0
3, 3240, Note_on_c, 1, 69, 127
3, 3240, Lyric_t, "be "
3, 3300, Note_on_c, 1, 69, 0
3, 3300, Note_on_c, 1, 74, 127
3, 3300, Lyric_t, "sick "
3, 3330, Note_on_c, 1, 74, 0
3, 3330, Note_on_c, 1, 76, 127
3, 3330, Lyric_t, "ag "
3, 3360, Note_on_c, 1, 76, 0
3, 3360, Note_on_c, 1, 74, 127
3, 3360, Lyric_t, "ain "
3, 3480, Note_on_c, 1, 74, 0
3, 3900, Note_on_c, 1, 72, 127
3, 3900, Lyric_t, "And "
3, 3960, Note_on_c, 1, 72, 0
3, 3960, Note_on_c, 1, 72, 127
3, 3960, Lyric_t, "hold "
3, 4020, Note_on_c, 1, 72, 0
3, 4020, Note_on_c, 1, 72, 127
3, 4020, Lyric_t, "ing "
3, 4080, Note_on_c, 1, 72, 0
3, 4080, Note_on_c, 1, 74, 127
3, 4080, Lyric_t, "on "
3, 4140, Note_on_c, 1, 74, 0
3, 4140, Note_on_c, 1, 72, 127
3, 4140, Lyric_t, "for "
3, 4200, Note_on_c, 1, 72, 0
3, 4200, Note_on_c, 1, 69, 127
3, 4200, Lyric_t, "to "
3, 4260, Note_on_c, 1, 69, 0
3, 4260, Note_on_c, 1, 74, 127
3, 4260, Lyric_t, "mor "
3, 4290, Note_on_c, 1, 74, 0
3, 4290, Note_on_c, 1, 76, 127
3, 4290, Lyric_t, "row "
3, 4530, Note_on_c, 1, 76, 0
3, 4920, Note_on_c, 1, 76, 127
3, 4920, Lyric_t, "Lon "
3, 4980, Note_on_c, 1, 76, 0
3, 4980, Note_on_c, 1, 74, 127
3, 4980, Lyric_t, "don "
3, 5010, Note_on_c, 1, 74, 0
3, 5010, Note_on_c, 1, 75, 127
3, 5010, Lyric_t, "ice "
3, 5070, Note_on_c, 1, 75, 0
3, 5100, Note_on_c, 1, 73, 127
3, 5100, Lyric_t, "cracks "
3, 5160, Note_on_c, 1, 73, 0
3, 5160, Note_on_c, 1, 71, 127
3, 5160, Lyric_t, "on "
3, 5220, Note_on_c, 1, 71, 0
3, 5220, Note_on_c, 1, 68, 127
3, 5220, Lyric_t, "a "
3, 5250, Note_on_c, 1, 68, 0
3, 5250, Note_on_c, 1, 73, 127
3, 5250, Lyric_t, "seem "
3, 5340, Note_on_c, 1, 75, 127
3, 5340, Lyric_t, "less "
3, 5370, Note_on_c, 1, 73, 0
3, 5370, Note_on_c, 1, 73, 127
3, 5370, Lyric_t, "line "
3, 5400, Note_on_c, 1, 75, 0
3, 5520, Note_on_c, 1, 73, 0
3, 5820, Note_on_c, 1, 71, 127
3, 5820, Lyric_t, "We're "
3, 5880, Note_on_c, 1, 71, 0
3, 5880, Note_on_c, 1, 71, 127
3, 5880, Lyric_t, "hold "
3, 5940, Note_on_c, 1, 71, 0
3, 5940, Note_on_c, 1, 71, 127
3, 5940, Lyric_t, "ing "
3, 6000, Note_on_c, 1, 71, 0
3, 6000, Note_on_c, 1, 71, 127
3, 6000, Lyric_t, "on "
3, 6060, Note_on_c, 1, 71, 0
3, 6060, Note_on_c, 1, 73, 127
3, 6060, Lyric_t, "to "
3, 6120, Note_on_c, 1, 73, 0
3, 6120, Note_on_c, 1, 75, 127
3, 6120, Lyric_t, "the "
3, 6180, Note_on_c, 1, 75, 0
3, 6180, Note_on_c, 1, 74, 127
3, 6180, Lyric_t, "westway "
3, 6300, Note_on_c, 1, 74, 0
3, 6780, Note_on_c, 1, 72, 127
3, 6780, Lyric_t, "And "
3, 6840, Note_on_c, 1, 72, 0
3, 6840, Note_on_c, 1, 72, 127
3, 6840, Lyric_t, "so "
3, 6900, Note_on_c, 1, 72, 0
3, 6900, Note_on_c, 1, 72, 127
3, 6900, Lyric_t, "we "
3, 6960, Note_on_c, 1, 72, 0
3, 6960, Note_on_c, 1, 74, 127
3, 6960, Lyric_t, "hold "
3, 7020, Note_on_c, 1, 74, 0
3, 7020, Note_on_c, 1, 72, 127
3, 7020, Lyric_t, "each "
3, 7080, Note_on_c, 1, 72, 0
3, 7080, Note_on_c, 1, 72, 127
3, 7080, Lyric_t, "oth "
3, 7140, Note_on_c, 1, 72, 0
3, 7140, Note_on_c, 1, 69, 127
3, 7140, Lyric_t, "er "
3, 7200, Note_on_c, 1, 69, 0
3, 7200, Note_on_c, 1, 74, 127
3, 7200, Lyric_t, "tight "
3, 7320, Note_on_c, 1, 74, 0
3, 7320, Note_on_c, 1, 76, 127
3, 7320, Lyric_t, "ly "
3, 7560, Note_on_c, 1, 76, 0
3, 7740, Note_on_c, 1, 72, 127
3, 7740, Lyric_t, "And "
3, 7800, Note_on_c, 1, 72, 0
3, 7800, Note_on_c, 1, 72, 127
3, 7800, Lyric_t, "hold "
3, 7860, Note_on_c, 1, 72, 0
3, 7860, Note_on_c, 1, 72, 127
3, 7860, Lyric_t, "on "
3, 7980, Note_on_c, 1, 72, 0
3, 7980, Note_on_c, 1, 72, 127
3, 7980, Lyric_t, "for "
3, 8040, Note_on_c, 1, 72, 0
3, 8040, Note_on_c, 1, 69, 127
3, 8040, Lyric_t, "tom "
3, 8100, Note_on_c, 1, 69, 0
3, 8100, Note_on_c, 1, 74, 127
3, 8100, Lyric_t, "or "
3, 8400, Note_on_c, 1, 74, 0
3, 8400, Note_on_c, 1, 74, 127
3, 8400, Lyric_t, "row "
3, 8520, Note_on_c, 1, 74, 0
3, 8520, Note_on_c, 1, 74, 127
3, 8520, Lyric_t, "sing "
3, 8550, Note_on_c, 1, 74, 0
3, 8550, Note_on_c, 1, 74, 127
3, 8550, Lyric_t, "ing "
3, 8580, Note_on_c, 1, 74, 0
3, 8640, Note_on_c, 1, 64, 127
3, 8640, Lyric_t, "La "
3, 8760, Note_on_c, 1, 64, 0
3, 8760, Note_on_c, 1, 67, 127
3, 8760, Lyric_t, "la "
3, 8880, Note_on_c, 1, 67, 0
3, 8880, Note_on_c, 1, 69, 127
3, 8880, Lyric_t, "la "
3, 8940, Note_on_c, 1, 69, 0
3, 8940, Note_on_c, 1, 71, 127
3, 8940, Lyric_t, "la "
3, 8970, Note_on_c, 1, 71, 0
3, 8970, Note_on_c, 1, 69, 127
3, 8970, Lyric_t, "la "
3, 9060, Note_on_c, 1, 69, 0
3, 9120, Note_on_c, 1, 62, 127
3, 9120, Lyric_t, "la "
3, 9180, Note_on_c, 1, 62, 0
3, 9180, Note_on_c, 1, 67, 127
3, 9180, Lyric_t, "la "
3, 9240, Note_on_c, 1, 67, 0
3, 9240, Note_on_c, 1, 67, 127
3, 9240, Lyric_t, "la "
3, 9300, Note_on_c, 1, 67, 0
3, 9300, Note_on_c, 1, 69, 127
3, 9300, Lyric_t, "la "
3, 9360, Note_on_c, 1, 69, 0
3, 9360, Note_on_c, 1, 69, 127
3, 9360, Lyric_t, "la "
3, 9420, Note_on_c, 1, 69, 0
3, 9420, Note_on_c, 1, 71, 127
3, 9420, Lyric_t, "la "
3, 9480, Note_on_c, 1, 71, 0
3, 9480, Note_on_c, 1, 69, 127
3, 9480, Lyric_t, "la "
3, 9510, Note_on_c, 1, 67, 127
3, 9510, Lyric_t, "la "
3, 9540, Note_on_c, 1, 67, 0
3, 9540, Note_on_c, 1, 69, 0
3, 9540, Note_on_c, 1, 64, 127
3, 9540, Lyric_t, "la "
3, 9600, Note_on_c, 1, 64, 0
3, 9600, Note_on_c, 1, 64, 127
3, 9600, Lyric_t, "la "
3, 9720, Note_on_c, 1, 64, 0
3, 9720, Note_on_c, 1, 67, 127
3, 9720, Lyric_t, "la "
3, 9840, Note_on_c, 1, 67, 0
3, 9840, Note_on_c, 1, 69, 127
3, 9840, Lyric_t, "la "
3, 9900, Note_on_c, 1, 69, 0
3, 9900, Note_on_c, 1, 71, 127
3, 9900, Lyric_t, "la "
3, 9930, Note_on_c, 1, 71, 0
3, 9930, Note_on_c, 1, 69, 127
3, 9930, Lyric_t, "la "
3, 10020, Note_on_c, 1, 69, 0
3, 10080, Note_on_c, 1, 62, 127
3, 10080, Lyric_t, "la "
3, 10140, Note_on_c, 1, 62, 0
3, 10140, Note_on_c, 1, 67, 127
3, 10140, Lyric_t, "la "
3, 10200, Note_on_c, 1, 67, 0
3, 10200, Note_on_c, 1, 67, 127
3, 10200, Lyric_t, "la "
3, 10260, Note_on_c, 1, 67, 0
3, 10260, Note_on_c, 1, 69, 127
3, 10260, Lyric_t, "la "
3, 10320, Note_on_c, 1, 69, 0
3, 10320, Note_on_c, 1, 69, 127
3, 10320, Lyric_t, "la "
3, 10380, Note_on_c, 1, 69, 0
3, 10380, Note_on_c, 1, 71, 127
3, 10380, Lyric_t, "la "
3, 10440, Note_on_c, 1, 71, 0
3, 10440, Note_on_c, 1, 69, 127
3, 10440, Lyric_t, "la "
3, 10470, Note_on_c, 1, 67, 127
3, 10470, Lyric_t, "la "
3, 10500, Note_on_c, 1, 67, 0
3, 10500, Note_on_c, 1, 69, 0
3, 10500, Note_on_c, 1, 64, 127
3, 10500, Lyric_t, "la "
3, 10560, Note_on_c, 1, 64, 0
3, 10560, Note_on_c, 1, 64, 127
3, 10560, Lyric_t, "la "
3, 10680, Note_on_c, 1, 64, 0
3, 10680, Note_on_c, 1, 67, 127
3, 10680, Lyric_t, "la "
3, 10800, Note_on_c, 1, 67, 0
3, 10800, Note_on_c, 1, 69, 127
3, 10800, Lyric_t, "la "
3, 10860, Note_on_c, 1, 69, 0
3, 10860, Note_on_c, 1, 71, 127
3, 10890, Note_on_c, 1, 71, 0
3, 10890, Note_on_c, 1, 69, 127
3, 10980, Note_on_c, 1, 69, 0
3, 11040, Note_on_c, 1, 62, 127
3, 11040, Lyric_t, "la "
3, 11100, Note_on_c, 1, 62, 0
3, 11100, Note_on_c, 1, 67, 127
3, 11100, Lyric_t, "la "
3, 11160, Note_on_c, 1, 67, 0
3, 11160, Note_on_c, 1, 67, 127
3, 11160, Lyric_t, "la "
3, 11220, Note_on_c, 1, 67, 0
3, 11220, Note_on_c, 1, 69, 127
3, 11220, Lyric_t, "la "
3, 11280, Note_on_c, 1, 69, 0
3, 11280, Note_on_c, 1, 69, 127
3, 11280, Lyric_t, "la "
3, 11340, Note_on_c, 1, 69, 0
3, 11340, Note_on_c, 1, 71, 127
3, 11340, Lyric_t, "la "
3, 11400, Note_on_c, 1, 71, 0
3, 11400, Note_on_c, 1, 69, 127
3, 11400, Lyric_t, "la "
3, 11430, Note_on_c, 1, 67, 127
3, 11430, Lyric_t, "la "
3, 11460, Note_on_c, 1, 67, 0
3, 11460, Note_on_c, 1, 69, 0
3, 11460, Note_on_c, 1, 64, 127
3, 11460, Lyric_t, "la "
3, 11520, Note_on_c, 1, 64, 0
3, 11640, Note_on_c, 1, 72, 127
3, 11640, Lyric_t, "Hold "
3, 11700, Note_on_c, 1, 72, 0
3, 11700, Note_on_c, 1, 72, 127
3, 11700, Lyric_t, "ing "
3, 11760, Note_on_c, 1, 72, 0
3, 11760, Note_on_c, 1, 74, 127
3, 11760, Lyric_t, "on "
3, 11820, Note_on_c, 1, 74, 0
3, 11820, Note_on_c, 1, 72, 127
3, 11820, Lyric_t, "for "
3, 11880, Note_on_c, 1, 72, 0
3, 11880, Note_on_c, 1, 69, 127
3, 11880, Lyric_t, "to "
3, 11940, Note_on_c, 1, 69, 0
3, 11940, Note_on_c, 1, 76, 127
3, 11940, Lyric_t, "morrow "
3, 12240, Note_on_c, 1, 76, 0
3, 13080, Note_on_c, 1, 76, 127
3, 13080, Lyric_t, "She's "
3, 13140, Note_on_c, 1, 76, 0
3, 13140, Note_on_c, 1, 78, 127
3, 13140, Lyric_t, "a "
3, 13200, Note_on_c, 1, 78, 0
3, 13200, Note_on_c, 1, 75, 127
3, 13200, Lyric_t, "twent "
3, 13260, Note_on_c, 1, 75, 0
3, 13260, Note_on_c, 1, 71, 127
3, 13260, Lyric_t, "ieth "
3, 13290, Note_on_c, 1, 71, 0
3, 13290, Note_on_c, 1, 71, 127
3, 13290, Lyric_t, "cen "
3, 13320, Note_on_c, 1, 71, 0
3, 13320, Note_on_c, 1, 71, 127
3, 13320, Lyric_t, "tur "
3, 13380, Note_on_c, 1, 71, 0
3, 13380, Note_on_c, 1, 68, 127
3, 13380, Lyric_t, "y "
3, 13440, Note_on_c, 1, 68, 0
3, 13440, Note_on_c, 1, 73, 127
3, 13440, Lyric_t, "Girl "
3, 13680, Note_on_c, 1, 73, 0
3, 14040, Note_on_c, 1, 71, 127
3, 14040, Lyric_t, "With "
3, 14100, Note_on_c, 1, 71, 0
3, 14100, Note_on_c, 1, 71, 127
3, 14100, Lyric_t, "her "
3, 14160, Note_on_c, 1, 71, 0
3, 14160, Note_on_c, 1, 71, 127
3, 14160, Lyric_t, "hands "
3, 14220, Note_on_c, 1, 71, 0
3, 14220, Note_on_c, 1, 73, 127
3, 14220, Lyric_t, "on "
3, 14280, Note_on_c, 1, 73, 0
3, 14280, Note_on_c, 1, 75, 127
3, 14280, Lyric_t, "the "
3, 14340, Note_on_c, 1, 75, 0
3, 14340, Note_on_c, 1, 74, 127
3, 14340, Lyric_t, "wheel "
3, 14580, Note_on_c, 1, 74, 0
3, 15000, Note_on_c, 1, 72, 127
3, 15000, Lyric_t, "Try "
3, 15060, Note_on_c, 1, 72, 0
3, 15060, Note_on_c, 1, 72, 127
3, 15060, Lyric_t, "ing "
3, 15120, Note_on_c, 1, 72, 0
3, 15120, Note_on_c, 1, 74, 127
3, 15120, Lyric_t, "not "
3, 15180, Note_on_c, 1, 74, 0
3, 15180, Note_on_c, 1, 72, 127
3, 15180, Lyric_t, "to "
3, 15240, Note_on_c, 1, 72, 0
3, 15240, Note_on_c, 1, 69, 127
3, 15240, Lyric_t, "make "
3, 15300, Note_on_c, 1, 69, 0
3, 15300, Note_on_c, 1, 74, 127
3, 15300, Lyric_t, "him "
3, 15360, Note_on_c, 1, 74, 0
3, 15360, Note_on_c, 1, 74, 127
3, 15360, Lyric_t, "sick "
3, 15390, Note_on_c, 1, 76, 127
3, 15390, Lyric_t, "a "
3, 15420, Note_on_c, 1, 76, 0
3, 15420, Note_on_c, 1, 74, 127
3, 15420, Lyric_t, "gain "
3, 15480, Note_on_c, 1, 74, 0
3, 15540, Note_on_c, 1, 74, 0
3, 15960, Note_on_c, 1, 72, 127
3, 15960, Lyric_t, "see "
3, 16020, Note_on_c, 1, 72, 0
3, 16020, Note_on_c, 1, 72, 127
3, 16020, Lyric_t, "ing "
3, 16080, Note_on_c, 1, 72, 0
3, 16080, Note_on_c, 1, 74, 127
3, 16080, Lyric_t, "what "
3, 16140, Note_on_c, 1, 74, 0
3, 16140, Note_on_c, 1, 72, 127
3, 16140, Lyric_t, "she "
3, 16200, Note_on_c, 1, 72, 0
3, 16200, Note_on_c, 1, 69, 127
3, 16200, Lyric_t, "can "
3, 16260, Note_on_c, 1, 69, 0
3, 16260, Note_on_c, 1, 74, 127
3, 16260, Lyric_t, "bor "
3, 16290, Note_on_c, 1, 74, 0
3, 16290, Note_on_c, 1, 76, 127
3, 16290, Lyric_t, "row "
3, 16530, Note_on_c, 1, 76, 0
3, 16920, Note_on_c, 1, 76, 127
3, 16980, Note_on_c, 1, 76, 0
3, 16980, Note_on_c, 1, 74, 127
3, 17010, Note_on_c, 1, 74, 0
3, 17010, Note_on_c, 1, 75, 127
3, 17070, Note_on_c, 1, 75, 0
3, 17100, Note_on_c, 1, 73, 127
3, 17160, Note_on_c, 1, 73, 0
3, 17160, Note_on_c, 1, 71, 127
3, 17220, Note_on_c, 1, 71, 0
3, 17220, Note_on_c, 1, 68, 127
3, 17250, Note_on_c, 1, 68, 0
3, 17250, Note_on_c, 1, 73, 127
3, 17340, Note_on_c, 1, 75, 127
3, 17370, Note_on_c, 1, 73, 0
3, 17370, Note_on_c, 1, 73, 127
3, 17400, Note_on_c, 1, 75, 0
3, 17520, Note_on_c, 1, 73, 0
3, 17820, Note_on_c, 1, 71, 127
3, 17880, Note_on_c, 1, 71, 0
3, 17880, Note_on_c, 1, 71, 127
3, 17940, Note_on_c, 1, 71, 0
3, 17940, Note_on_c, 1, 71, 127
3, 18000, Note_on_c, 1, 71, 0
3, 18000, Note_on_c, 1, 71, 127
3, 18060, Note_on_c, 1, 71, 0
3, 18060, Note_on_c, 1, 73, 127
3, 18120, Note_on_c, 1, 73, 0
3, 18120, Note_on_c, 1, 75, 127
3, 18180, Note_on_c, 1, 75, 0
3, 18180, Note_on_c, 1, 74, 127
3, 18300, Note_on_c, 1, 74, 0
3, 18780, Note_on_c, 1, 72, 127
3, 18840, Note_on_c, 1, 72, 0
3, 18840, Note_on_c, 1, 72, 127
3, 18900, Note_on_c, 1, 72, 0
3, 18900, Note_on_c, 1, 72, 127
3, 18960, Note_on_c, 1, 72, 0
3, 18960, Note_on_c, 1, 74, 127
3, 19020, Note_on_c, 1, 74, 0
3, 19020, Note_on_c, 1, 72, 127
3, 19080, Note_on_c, 1, 72, 0
3, 19080, Note_on_c, 1, 72, 127
3, 19140, Note_on_c, 1, 72, 0
3, 19140, Note_on_c, 1, 69, 127
3, 19200, Note_on_c, 1, 69, 0
3, 19200, Note_on_c, 1, 74, 127
3, 19320, Note_on_c, 1, 74, 0
3, 19320, Note_on_c, 1, 76, 127
3, 19560, Note_on_c, 1, 76, 0
3, 19740, Note_on_c, 1, 72, 127
3, 19800, Note_on_c, 1, 72, 0
3, 19800, Note_on_c, 1, 72, 127
3, 19860, Note_on_c, 1, 72, 0
3, 19860, Note_on_c, 1, 72, 127
3, 19980, Note_on_c, 1, 72, 0
3, 19980, Note_on_c, 1, 72, 127
3, 20040, Note_on_c, 1, 72, 0
3, 20040, Note_on_c, 1, 69, 127
3, 20100, Note_on_c, 1, 69, 0
3, 20100, Note_on_c, 1, 74, 127
3, 20400, Note_on_c, 1, 74, 0
3, 20400, Note_on_c, 1, 74, 127
3, 20520, Note_on_c, 1, 74, 0
3, 20520, Note_on_c, 1, 74, 127
3, 20550, Note_on_c, 1, 74, 0
3, 20550, Note_on_c, 1, 74, 127
3, 20580, Note_on_c, 1, 74, 0
3, 20640, Note_on_c, 1, 64, 127
3, 20760, Note_on_c, 1, 64, 0
3, 20760, Note_on_c, 1, 67, 127
3, 20880, Note_on_c, 1, 67, 0
3, 20880, Note_on_c, 1, 69, 127
3, 20940, Note_on_c, 1, 69, 0
3, 20940, Note_on_c, 1, 71, 127
3, 20970, Note_on_c, 1, 71, 0
3, 20970, Note_on_c, 1, 69, 127
3, 21060, Note_on_c, 1, 69, 0
3, 21120, Note_on_c, 1, 62, 127
3, 21180, Note_on_c, 1, 62, 0
3, 21180, Note_on_c, 1, 67, 127
3, 21240, Note_on_c, 1, 67, 0
3, 21240, Note_on_c, 1, 67, 127
3, 21300, Note_on_c, 1, 67, 0
3, 21300, Note_on_c, 1, 69, 127
3, 21360, Note_on_c, 1, 69, 0
3, 21360, Note_on_c, 1, 69, 127
3, 21420, Note_on_c, 1, 69, 0
3, 21420, Note_on_c, 1, 71, 127
3, 21480, Note_on_c, 1, 71, 0
3, 21480, Note_on_c, 1, 69, 127
3, 21510, Note_on_c, 1, 67, 127
3, 21540, Note_on_c, 1, 67, 0
3, 21540, Note_on_c, 1, 69, 0
3, 21540, Note_on_c, 1, 64, 127
3, 21600, Note_on_c, 1, 64, 0
3, 21600, Note_on_c, 1, 64, 127
3, 21720, Note_on_c, 1, 64, 0
3, 21720, Note_on_c, 1, 67, 127
3, 21840, Note_on_c, 1, 67, 0
3, 21840, Note_on_c, 1, 69, 127
3, 21900, Note_on_c, 1, 69, 0
3, 21900, Note_on_c, 1, 71, 127
3, 21930, Note_on_c, 1, 71, 0
3, 21930, Note_on_c, 1, 69, 127
3, 22020, Note_on_c, 1, 69, 0
3, 22080, Note_on_c, 1, 62, 127
3, 22140, Note_on_c, 1, 62, 0
3, 22140, Note_on_c, 1, 67, 127
3, 22200, Note_on_c, 1, 67, 0
3, 22200, Note_on_c, 1, 67, 127
3, 22260, Note_on_c, 1, 67, 0
3, 22260, Note_on_c, 1, 69, 127
3, 22320, Note_on_c, 1, 69, 0
3, 22320, Note_on_c, 1, 69, 127
3, 22380, Note_on_c, 1, 69, 0
3, 22380, Note_on_c, 1, 71, 127
3, 22440, Note_on_c, 1, 71, 0
3, 22440, Note_on_c, 1, 69, 127
3, 22470, Note_on_c, 1, 67, 127
3, 22500, Note_on_c, 1, 67, 0
3, 22500, Note_on_c, 1, 69, 0
3, 22500, Note_on_c, 1, 64, 127
3, 22560, Note_on_c, 1, 64, 0
3, 22560, Note_on_c, 1, 64, 127
3, 22680, Note_on_c, 1, 64, 0
3, 22680, Note_on_c, 1, 67, 127
3, 22800, Note_on_c, 1, 67, 0
3, 22800, Note_on_c, 1, 69, 127
3, 22860, Note_on_c, 1, 69, 0
3, 22860, Note_on_c, 1, 71, 127
3, 22890, Note_on_c, 1, 71, 0
3, 22890, Note_on_c, 1, 69, 127
3, 22980, Note_on_c, 1, 69, 0
3, 23040, Note_on_c, 1, 62, 127
3, 23100, Note_on_c, 1, 62, 0
3, 23100, Note_on_c, 1, 67, 127
3, 23160, Note_on_c, 1, 67, 0
3, 23160, Note_on_c, 1, 67, 127
3, 23220, Note_on_c, 1, 67, 0
3, 23220, Note_on_c, 1, 69, 127
3, 23280, Note_on_c, 1, 69, 0
3, 23280, Note_on_c, 1, 69, 127
3, 23340, Note_on_c, 1, 69, 0
3, 23340, Note_on_c, 1, 71, 127
3, 23400, Note_on_c, 1, 71, 0
3, 23400, Note_on_c, 1, 69, 127
3, 23430, Note_on_c, 1, 67, 127
3, 23460, Note_on_c, 1, 67, 0
3, 23460, Note_on_c, 1, 69, 0
3, 23460, Note_on_c, 1, 64, 127
3, 23520, Note_on_c, 1, 64, 0
3, 23640, Note_on_c, 1, 72, 127
3, 23700, Note_on_c, 1, 72, 0
3, 23700, Note_on_c, 1, 72, 127
3, 23760, Note_on_c, 1, 72, 0
3, 23760, Note_on_c, 1, 74, 127
3, 23820, Note_on_c, 1, 74, 0
3, 23820, Note_on_c, 1, 72, 127
3, 23880, Note_on_c, 1, 72, 0
3, 23880, Note_on_c, 1, 69, 127
3, 23940, Note_on_c, 1, 69, 0
3, 23940, Note_on_c, 1, 76, 127
3, 24240, Note_on_c, 1, 76, 0
3, 28860, Note_on_c, 1, 72, 127
3, 28920, Note_on_c, 1, 72, 0
3, 28920, Note_on_c, 1, 72, 127
3, 28980, Note_on_c, 1, 72, 0
3, 28980, Note_on_c, 1, 72, 127
3, 29040, Note_on_c, 1, 72, 0
3, 29040, Note_on_c, 1, 74, 127
3, 29100, Note_on_c, 1, 74, 0
3, 29100, Note_on_c, 1, 72, 127
3, 29160, Note_on_c, 1, 72, 0
3, 29160, Note_on_c, 1, 72, 127
3, 29220, Note_on_c, 1, 72, 0
3, 29220, Note_on_c, 1, 69, 127
3, 29280, Note_on_c, 1, 69, 0
3, 29280, Note_on_c, 1, 74, 127
3, 29395, Control_c, 1, 7, 125
3, 29400, Note_on_c, 1, 74, 0
3, 29400, Note_on_c, 1, 76, 127
3, 29415, Control_c, 1, 7, 126
3, 29420, Control_c, 1, 7, 127
3, 29640, Note_on_c, 1, 76, 0
3, 29820, Note_on_c, 1, 72, 127
3, 29880, Note_on_c, 1, 72, 0
3, 29880, Note_on_c, 1, 72, 127
3, 29940, Note_on_c, 1, 72, 0
3, 29940, Note_on_c, 1, 72, 127
3, 30060, Note_on_c, 1, 72, 0
3, 30060, Note_on_c, 1, 72, 127
3, 30120, Note_on_c, 1, 72, 0
3, 30120, Note_on_c, 1, 69, 127
3, 30180, Note_on_c, 1, 69, 0
3, 30180, Note_on_c, 1, 74, 127
3, 30480, Note_on_c, 1, 74, 0
3, 30480, Note_on_c, 1, 74, 127
3, 30600, Note_on_c, 1, 74, 0
3, 30600, Note_on_c, 1, 74, 127
3, 30630, Note_on_c, 1, 74, 0
3, 30630, Note_on_c, 1, 74, 127
3, 30660, Note_on_c, 1, 74, 0
3, 30720, Note_on_c, 1, 64, 127
3, 30840, Note_on_c, 1, 64, 0
3, 30840, Note_on_c, 1, 67, 127
3, 30960, Note_on_c, 1, 67, 0
3, 30960, Note_on_c, 1, 69, 127
3, 31020, Note_on_c, 1, 69, 0
3, 31020, Note_on_c, 1, 71, 127
3, 31050, Note_on_c, 1, 71, 0
3, 31050, Note_on_c, 1, 69, 127
3, 31140, Note_on_c, 1, 69, 0
3, 31200, Note_on_c, 1, 62, 127
3, 31260, Note_on_c, 1, 62, 0
3, 31260, Note_on_c, 1, 67, 127
3, 31320, Note_on_c, 1, 67, 0
3, 31320, Note_on_c, 1, 67, 127
3, 31380, Note_on_c, 1, 67, 0
3, 31380, Note_on_c, 1, 69, 127
3, 31440, Note_on_c, 1, 69, 0
3, 31440, Note_on_c, 1, 69, 127
3, 31500, Note_on_c, 1, 69, 0
3, 31500, Note_on_c, 1, 71, 127
3, 31560, Note_on_c, 1, 71, 0
3, 31560, Note_on_c, 1, 69, 127
3, 31590, Note_on_c, 1, 67, 127
3, 31620, Note_on_c, 1, 67, 0
3, 31620, Note_on_c, 1, 69, 0
3, 31620, Note_on_c, 1, 64, 127
3, 31680, Note_on_c, 1, 64, 0
3, 31680, Note_on_c, 1, 64, 127
3, 31800, Note_on_c, 1, 64, 0
3, 31800, Note_on_c, 1, 67, 127
3, 31920, Note_on_c, 1, 67, 0
3, 31920, Note_on_c, 1, 69, 127
3, 31980, Note_on_c, 1, 69, 0
3, 31980, Note_on_c, 1, 71, 127
3, 32010, Note_on_c, 1, 71, 0
3, 32010, Note_on_c, 1, 69, 127
3, 32100, Note_on_c, 1, 69, 0
3, 32160, Note_on_c, 1, 62, 127
3, 32220, Note_on_c, 1, 62, 0
3, 32220, Note_on_c, 1, 67, 127
3, 32280, Note_on_c, 1, 67, 0
3, 32280, Note_on_c, 1, 67, 127
3, 32340, Note_on_c, 1, 67, 0
3, 32340, Note_on_c, 1, 69, 127
3, 32400, Note_on_c, 1, 69, 0
3, 32400, Note_on_c, 1, 69, 127
3, 32460, Note_on_c, 1, 69, 0
3, 32460, Note_on_c, 1, 71, 127
3, 32520, Note_on_c, 1, 71, 0
3, 32520, Note_on_c, 1, 69, 127
3, 32550, Note_on_c, 1, 67, 127
3, 32580, Note_on_c, 1, 67, 0
3, 32580, Note_on_c, 1, 69, 0
3, 32580, Note_on_c, 1, 64, 127
3, 32640, Note_on_c, 1, 64, 0
3, 32640, Note_on_c, 1, 64, 127
3, 32760, Note_on_c, 1, 64, 0
3, 32760, Note_on_c, 1, 67, 127
3, 32880, Note_on_c, 1, 67, 0
3, 32880, Note_on_c, 1, 69, 127
3, 32940, Note_on_c, 1, 69, 0
3, 32940, Note_on_c, 1, 71, 127
3, 32970, Note_on_c, 1, 71, 0
3, 32970, Note_on_c, 1, 69, 127
3, 33060, Note_on_c, 1, 69, 0
3, 33120, Note_on_c, 1, 62, 127
3, 33180, Note_on_c, 1, 62, 0
3, 33180, Note_on_c, 1, 67, 127
3, 33240, Note_on_c, 1, 67, 0
3, 33240, Note_on_c, 1, 67, 127
3, 33300, Note_on_c, 1, 67, 0
3, 33300, Note_on_c, 1, 69, 127
3, 33360, Note_on_c, 1, 69, 0
3, 33360, Note_on_c, 1, 69, 127
3, 33420, Note_on_c, 1, 69, 0
3, 33420, Note_on_c, 1, 71, 127
3, 33480, Note_on_c, 1, 71, 0
3, 33480, Note_on_c, 1, 69, 127
3, 33510, Note_on_c, 1, 67, 127
3, 33540, Note_on_c, 1, 67, 0
3, 33540, Note_on_c, 1, 69, 0
3, 33540, Note_on_c, 1, 64, 127
3, 33600, Note_on_c, 1, 64, 0
3, 33720, Note_on_c, 1, 72, 127
3, 33780, Note_on_c, 1, 72, 0
3, 33780, Note_on_c, 1, 72, 127
3, 33840, Note_on_c, 1, 72, 0
3, 33840, Note_on_c, 1, 74, 127
3, 33900, Note_on_c, 1, 74, 0
3, 33900, Note_on_c, 1, 72, 127
3, 33960, Note_on_c, 1, 72, 0
3, 33960, Note_on_c, 1, 69, 127
3, 34020, Note_on_c, 1, 69, 0
3, 34020, Note_on_c, 1, 76, 127
3, 34320, Note_on_c, 1, 76, 0
3, 49080, Note_on_c, 1, 72, 100
3, 49140, Note_on_c, 1, 72, 0
3, 49140, Note_on_c, 1, 72, 100
3, 49200, Note_on_c, 1, 72, 0
3, 49200, Note_on_c, 1, 74, 100
3, 49260, Note_on_c, 1, 74, 0
3, 49260, Note_on_c, 1, 72, 100
3, 49320, Note_on_c, 1, 72, 0
3, 49320, Note_on_c, 1, 69, 100
3, 49380, Note_on_c, 1, 69, 0
3, 49380, Note_on_c, 1, 74, 100
3, 49410, Note_on_c, 1, 74, 0
3, 49410, Note_on_c, 1, 76, 100
3, 49560, Note_on_c, 1, 76, 0
3, 49560, Note_on_c, 1, 76, 100
3, 49680, Note_on_c, 1, 76, 0
3, 49680, Note_on_c, 1, 76, 100
3, 49800, Note_on_c, 1, 76, 0
3, 49800, Note_on_c, 1, 71, 100
3, 49800, Note_on_c, 1, 64, 100
3, 49920, Note_on_c, 1, 64, 0
3, 49920, Note_on_c, 1, 71, 0
3, 56760, Note_on_c, 1, 72, 100
3, 56820, Note_on_c, 1, 72, 0
3, 56820, Note_on_c, 1, 72, 100
3, 56880, Note_on_c, 1, 72, 0
3, 56880, Note_on_c, 1, 74, 100
3, 56940, Note_on_c, 1, 74, 0
3, 56940, Note_on_c, 1, 72, 100
3, 57000, Note_on_c, 1, 72, 0
3, 57000, Note_on_c, 1, 69, 100
3, 57060, Note_on_c, 1, 69, 0
3, 57060, Note_on_c, 1, 74, 100
3, 57090, Note_on_c, 1, 74, 0
3, 57090, Note_on_c, 1, 76, 100
3, 57240, Note_on_c, 1, 76, 0
3, 57240, Note_on_c, 1, 76, 100
3, 57360, Note_on_c, 1, 76, 0
3, 57360, Note_on_c, 1, 76, 100
3, 57480, Note_on_c, 1, 76, 0
3, 57480, Note_on_c, 1, 71, 100
3, 57480, Note_on_c, 1, 64, 100
3, 57600, Note_on_c, 1, 64, 0
3, 57600, Note_on_c, 1, 71, 0
3, 57600, Note_on_c, 1, 79, 127
3, 57660, Note_on_c, 1, 79, 0
3, 57660, Note_on_c, 1, 79, 127
3, 57720, Note_on_c, 1, 79, 0
3, 57720, Note_on_c, 1, 76, 127
3, 57780, Note_on_c, 1, 76, 0
3, 57780, Note_on_c, 1, 76, 127
3, 57840, Note_on_c, 1, 76, 0
3, 57840, Note_on_c, 1, 72, 127
3, 57900, Note_on_c, 1, 72, 0
3, 57900, Note_on_c, 1, 72, 127
3, 57930, Note_on_c, 1, 72, 0
3, 57930, Note_on_c, 1, 69, 127
3, 57990, Note_on_c, 1, 69, 0
3, 58020, Note_on_c, 1, 69, 127
3, 58080, Note_on_c, 1, 69, 0
3, 58080, Note_on_c, 1, 71, 127
3, 58140, Note_on_c, 1, 71, 0
3, 58140, Note_on_c, 1, 71, 127
3, 58170, Note_on_c, 1, 71, 0
3, 58200, Note_on_c, 1, 71, 127
3, 58260, Note_on_c, 1, 71, 0
3, 58260, Note_on_c, 1, 71, 127
3, 58320, Note_on_c, 1, 71, 0
3, 58320, Note_on_c, 1, 72, 127
3, 58380, Note_on_c, 1, 72, 0
3, 58380, Note_on_c, 1, 72, 127
3, 58440, Note_on_c, 1, 72, 0
3, 58440, Note_on_c, 1, 69, 127
3, 58560, Note_on_c, 1, 69, 0
3, 58560, Note_on_c, 1, 79, 127
3, 58620, Note_on_c, 1, 79, 0
3, 58620, Note_on_c, 1, 79, 127
3, 58650, Note_on_c, 1, 79, 0
3, 58650, Note_on_c, 1, 76, 127
3, 58710, Note_on_c, 1, 76, 0
3, 58740, Note_on_c, 1, 76, 127
3, 58800, Note_on_c, 1, 76, 0
3, 58800, Note_on_c, 1, 72, 127
3, 58860, Note_on_c, 1, 72, 0
3, 58860, Note_on_c, 1, 72, 127
3, 58890, Note_on_c, 1, 72, 0
3, 58890, Note_on_c, 1, 69, 127
3, 59040, Note_on_c, 1, 69, 0
3, 59040, Note_on_c, 1, 71, 127
3, 59100, Note_on_c, 1, 71, 0
3, 59100, Note_on_c, 1, 71, 127
3, 59160, Note_on_c, 1, 71, 0
3, 59160, Note_on_c, 1, 71, 127
3, 59220, Note_on_c, 1, 71, 0
3, 59220, Note_on_c, 1, 72, 127
3, 59280, Note_on_c, 1, 72, 0
3, 59280, Note_on_c, 1, 74, 127
3, 59340, Note_on_c, 1, 74, 0
3, 59340, Note_on_c, 1, 72, 127
3, 59400, Note_on_c, 1, 72, 0
3, 59400, Note_on_c, 1, 69, 127
3, 59520, Note_on_c, 1, 69, 0
3, 59520, Note_on_c, 1, 79, 127
3, 59580, Note_on_c, 1, 79, 0
3, 59580, Note_on_c, 1, 79, 127
3, 59610, Note_on_c, 1, 79, 0
3, 59610, Note_on_c, 1, 76, 127
3, 59670, Note_on_c, 1, 76, 0
3, 59700, Note_on_c, 1, 76, 127
3, 59760, Note_on_c, 1, 76, 0
3, 59760, Note_on_c, 1, 72, 127
3, 59820, Note_on_c, 1, 72, 0
3, 59820, Note_on_c, 1, 72, 127
3, 59880, Note_on_c, 1, 72, 0
3, 59880, Note_on_c, 1, 69, 127
3, 59940, Note_on_c, 1, 69, 0
3, 59940, Note_on_c, 1, 69, 127
3, 60000, Note_on_c, 1, 69, 0
3, 60000, Note_on_c, 1, 71, 127
3, 60060, Note_on_c, 1, 71, 0
3, 60060, Note_on_c, 1, 71, 127
3, 60120, Note_on_c, 1, 71, 0
3, 60120, Note_on_c, 1, 71, 127
3, 60180, Note_on_c, 1, 71, 0
3, 60180, Note_on_c, 1, 72, 127
3, 60240, Note_on_c, 1, 72, 0
3, 60240, Note_on_c, 1, 74, 127
3, 60300, Note_on_c, 1, 74, 0
3, 60300, Note_on_c, 1, 69, 127
3, 60360, Note_on_c, 1, 69, 0
3, 60360, Note_on_c, 1, 69, 127
3, 60420, Note_on_c, 1, 69, 0
3, 60420, Note_on_c, 1, 69, 127
3, 60480, Note_on_c, 1, 69, 0
3, 60600, Note_on_c, 1, 69, 127
3, 60600, Note_on_c, 1, 72, 127
3, 60660, Note_on_c, 1, 72, 0
3, 60660, Note_on_c, 1, 69, 0
3, 60660, Note_on_c, 1, 69, 127
3, 60660, Note_on_c, 1, 72, 127
3, 60720, Note_on_c, 1, 72, 0
3, 60720, Note_on_c, 1, 69, 0
3, 60720, Note_on_c, 1, 71, 127
3, 60720, Note_on_c, 1, 74, 127
3, 60780, Note_on_c, 1, 74, 0
3, 60780, Note_on_c, 1, 71, 0
3, 60780, Note_on_c, 1, 69, 127
3, 60780, Note_on_c, 1, 72, 127
3, 60840, Note_on_c, 1, 72, 0
3, 60840, Note_on_c, 1, 69, 0
3, 60840, Note_on_c, 1, 67, 127
3, 60840, Note_on_c, 1, 71, 127
3, 60900, Note_on_c, 1, 71, 0
3, 60900, Note_on_c, 1, 67, 0
3, 60900, Note_on_c, 1, 71, 127
3, 60900, Note_on_c, 1, 74, 127
3, 60930, Note_on_c, 1, 74, 0
3, 60930, Note_on_c, 1, 76, 127
3, 60960, Note_on_c, 1, 71, 0
3, 61140, Note_on_c, 1, 74, 127
3, 61200, Note_on_c, 1, 74, 0
3, 61200, Note_on_c, 1, 71, 127
3, 61320, Note_on_c, 1, 71, 0
3, 61320, Note_on_c, 1, 76, 0
3, 61380, Note_on_c, 1, 79, 127
3, 61440, Note_on_c, 1, 79, 0
3, 61440, Note_on_c, 1, 79, 127
3, 61500, Note_on_c, 1, 79, 0
3, 61500, Note_on_c, 1, 79, 127
3, 61560, Note_on_c, 1, 79, 0
3, 61560, Note_on_c, 1, 76, 127
3, 61620, Note_on_c, 1, 76, 0
3, 61620, Note_on_c, 1, 76, 127
3, 61680, Note_on_c, 1, 76, 0
3, 61680, Note_on_c, 1, 72, 127
3, 61740, Note_on_c, 1, 72, 0
3, 61740, Note_on_c, 1, 72, 127
3, 61770, Note_on_c, 1, 72, 0
3, 61770, Note_on_c, 1, 69, 127
3, 61830, Note_on_c, 1, 69, 0
3, 61860, Note_on_c, 1, 69, 127
3, 61920, Note_on_c, 1, 69, 0
3, 61920, Note_on_c, 1, 71, 127
3, 61980, Note_on_c, 1, 71, 0
3, 61980, Note_on_c, 1, 71, 127
3, 62010, Note_on_c, 1, 71, 0
3, 62040, Note_on_c, 1, 71, 127
3, 62100, Note_on_c, 1, 71, 0
3, 62100, Note_on_c, 1, 71, 127
3, 62160, Note_on_c, 1, 71, 0
3, 62160, Note_on_c, 1, 72, 127
3, 62220, Note_on_c, 1, 72, 0
3, 62220, Note_on_c, 1, 72, 127
3, 62280, Note_on_c, 1, 72, 0
3, 62280, Note_on_c, 1, 69, 127
3, 62400, Note_on_c, 1, 69, 0
3, 62400, Note_on_c, 1, 79, 127
3, 62460, Note_on_c, 1, 79, 0
3, 62460, Note_on_c, 1, 79, 127
3, 62490, Note_on_c, 1, 79, 0
3, 62490, Note_on_c, 1, 76, 127
3, 62550, Note_on_c, 1, 76, 0
3, 62580, Note_on_c, 1, 76, 127
3, 62640, Note_on_c, 1, 76, 0
3, 62640, Note_on_c, 1, 72, 127
3, 62700, Note_on_c, 1, 72, 0
3, 62700, Note_on_c, 1, 72, 127
3, 62730, Note_on_c, 1, 72, 0
3, 62730, Note_on_c, 1, 69, 127
3, 62880, Note_on_c, 1, 69, 0
3, 62880, Note_on_c, 1, 71, 127
3, 62940, Note_on_c, 1, 71, 0
3, 62940, Note_on_c, 1, 71, 127
3, 63000, Note_on_c, 1, 71, 0
3, 63000, Note_on_c, 1, 71, 127
3, 63060, Note_on_c, 1, 71, 0
3, 63060, Note_on_c, 1, 72, 127
3, 63120, Note_on_c, 1, 72, 0
3, 63120, Note_on_c, 1, 74, 127
3, 63180, Note_on_c, 1, 74, 0
3, 63180, Note_on_c, 1, 72, 127
3, 63240, Note_on_c, 1, 72, 0
3, 63240, Note_on_c, 1, 69, 127
3, 63360, Note_on_c, 1, 69, 0
3, 63360, Note_on_c, 1, 79, 127
3, 63420, Note_on_c, 1, 79, 0
3, 63420, Note_on_c, 1, 79, 127
3, 63450, Note_on_c, 1, 79, 0
3, 63450, Note_on_c, 1, 76, 127
3, 63510, Note_on_c, 1, 76, 0
3, 63540, Note_on_c, 1, 76, 127
3, 63600, Note_on_c, 1, 76, 0
3, 63600, Note_on_c, 1, 72, 127
3, 63660, Note_on_c, 1, 72, 0
3, 63660, Note_on_c, 1, 72, 127
3, 63720, Note_on_c, 1, 72, 0
3, 63720, Note_on_c, 1, 69, 127
3, 63780, Note_on_c, 1, 69, 0
3, 63780, Note_on_c, 1, 69, 127
3, 63840, Note_on_c, 1, 69, 0
3, 63840, Note_on_c, 1, 71, 127
3, 63900, Note_on_c, 1, 71, 0
3, 63900, Note_on_c, 1, 71, 127
3, 63960, Note_on_c, 1, 71, 0
3, 63960, Note_on_c, 1, 71, 127
3, 64020, Note_on_c, 1, 71, 0
3, 64020, Note_on_c, 1, 72, 127
3, 64080, Note_on_c, 1, 72, 0
3, 64080, Note_on_c, 1, 74, 127
3, 64140, Note_on_c, 1, 74, 0
3, 64140, Note_on_c, 1, 69, 127
3, 64200, Note_on_c, 1, 69, 0
3, 64200, Note_on_c, 1, 69, 127
3, 64260, Note_on_c, 1, 69, 0
3, 64260, Note_on_c, 1, 69, 127
3, 64320, Note_on_c, 1, 69, 0
3, 64440, Note_on_c, 1, 69, 127
3, 64440, Note_on_c, 1, 72, 127
3, 64500, Note_on_c, 1, 72, 0
3, 64500, Note_on_c, 1, 69, 0
3, 64500, Note_on_c, 1, 69, 127
3, 64500, Note_on_c, 1, 72, 127
3, 64560, Note_on_c, 1, 72, 0
3, 64560, Note_on_c, 1, 69, 0
3, 64560, Note_on_c, 1, 71, 127
3, 64560, Note_on_c, 1, 74, 127
3, 64620, Note_on_c, 1, 74, 0
3, 64620, Note_on_c, 1, 71, 0
3, 64620, Note_on_c, 1, 69, 127
3, 64620, Note_on_c, 1, 72, 127
3, 64680, Note_on_c, 1, 72, 0
3, 64680, Note_on_c, 1, 69, 0
3, 64680, Note_on_c, 1, 67, 127
3, 64680, Note_on_c, 1, 71, 127
3, 64740, Note_on_c, 1, 71, 0
3, 64740, Note_on_c, 1, 67, 0
3, 64740, Note_on_c, 1, 71, 127
3, 64740, Note_on_c, 1, 74, 127
3, 64770, Note_on_c, 1, 74, 0
3, 64770, Note_on_c, 1, 76, 127
3, 64800, Note_on_c, 1, 71, 0
3, 64980, Note_on_c, 1, 74, 127
3, 65040, Note_on_c, 1, 74, 0
3, 65040, Note_on_c, 1, 74, 127
3, 65160, Note_on_c, 1, 74, 0
3, 65160, Note_on_c, 1, 76, 0
3, 65160, Note_on_c, 1, 69, 127
3, 65280, Note_on_c, 1, 69, 0
3, 65280, End_track
4, 0, Start_track
4, 0, MIDI_port, 0
4, 0, Title_t, "Bass"
4, 0, Control_c, 2, 0, 0
4, 0, Control_c, 2, 32, 0
4, 0, Program_c, 2, 34
4, 0, Control_c, 2, 7, 120
4, 653, Control_c, 2, 7, 108
4, 653, Control_c, 2, 10, 64
4, 960, Note_on_c, 2, 49, 100
4, 1200, Note_on_c, 2, 49, 0
4, 1200, Note_on_c, 2, 47, 100
4, 1320, Note_on_c, 2, 47, 0
4, 1380, Note_on_c, 2, 45, 100
4, 1560, Note_on_c, 2, 45, 0
4, 1740, Note_on_c, 2, 35, 100
4, 1800, Note_on_c, 2, 35, 0
4, 1800, Note_on_c, 2, 35, 100
4, 1860, Note_on_c, 2, 35, 0
4, 1860, Note_on_c, 2, 35, 100
4, 1920, Note_on_c, 2, 35, 0
4, 1920, Note_on_c, 2, 32, 100
4, 2040, Note_on_c, 2, 32, 0
4, 2040, Note_on_c, 2, 32, 100
4, 2100, Note_on_c, 2, 32, 0
4, 2100, Note_on_c, 2, 32, 100
4, 2160, Note_on_c, 2, 32, 0
4, 2160, Note_on_c, 2, 32, 100
4, 2220, Note_on_c, 2, 32, 0
4, 2220, Note_on_c, 2, 37, 100
4, 2280, Note_on_c, 2, 37, 0
4, 2280, Note_on_c, 2, 36, 100
4, 2340, Note_on_c, 2, 36, 0
4, 2340, Note_on_c, 2, 31, 100
4, 2400, Note_on_c, 2, 31, 0
4, 2400, Note_on_c, 2, 31, 100
4, 2460, Note_on_c, 2, 31, 0
4, 2520, Note_on_c, 2, 31, 100
4, 2640, Note_on_c, 2, 31, 0
4, 2640, Note_on_c, 2, 31, 100
4, 2700, Note_on_c, 2, 31, 0
4, 2700, Note_on_c, 2, 31, 100
4, 2760, Note_on_c, 2, 31, 0
4, 2760, Note_on_c, 2, 38, 100
4, 2820, Note_on_c, 2, 38, 0
4, 2820, Note_on_c, 2, 36, 100
4, 2880, Note_on_c, 2, 36, 0
4, 2880, Note_on_c, 2, 29, 100
4, 2940, Note_on_c, 2, 29, 0
4, 2940, Note_on_c, 2, 29, 100
4, 3000, Note_on_c, 2, 29, 0
4, 3000, Note_on_c, 2, 31, 100
4, 3060, Note_on_c, 2, 31, 0
4, 3060, Note_on_c, 2, 36, 100
4, 3120, Note_on_c, 2, 36, 0
4, 3120, Note_on_c, 2, 31, 100
4, 3180, Note_on_c, 2, 31, 0
4, 3180, Note_on_c, 2, 31, 100
4, 3240, Note_on_c, 2, 31, 0
4, 3240, Note_on_c, 2, 36, 100
4, 3300, Note_on_c, 2, 36, 0
4, 3300, Note_on_c, 2, 40, 100
4, 3360, Note_on_c, 2, 40, 0
4, 3360, Note_on_c, 2, 38, 100
4, 3480, Note_on_c, 2, 38, 0
4, 3480, Note_on_c, 2, 38, 100
4, 3600, Note_on_c, 2, 38, 0
4, 3600, Note_on_c, 2, 38, 100
4, 3720, Note_on_c, 2, 38, 0
4, 3720, Note_on_c, 2, 38, 100
4, 3780, Note_on_c, 2, 38, 0
4, 3780, Note_on_c, 2, 36, 100
4, 3840, Note_on_c, 2, 36, 0
4, 3840, Note_on_c, 2, 29, 100
4, 3900, Note_on_c, 2, 29, 100
4, 3960, Note_on_c, 2, 29, 0
4, 3960, Note_on_c, 2, 29, 0
4, 3960, Note_on_c, 2, 29, 100
4, 4020, Note_on_c, 2, 29, 0
4, 4020, Note_on_c, 2, 29, 100
4, 4080, Note_on_c, 2, 29, 0
4, 4080, Note_on_c, 2, 29, 100
4, 4140, Note_on_c, 2, 29, 0
4, 4140, Note_on_c, 2, 29, 100
4, 4200, Note_on_c, 2, 29, 0
4, 4200, Note_on_c, 2, 28, 100
4, 4260, Note_on_c, 2, 28, 0
4, 4260, Note_on_c, 2, 28, 100
4, 4320, Note_on_c, 2, 28, 0
4, 4320, Note_on_c, 2, 31, 100
4, 4380, Note_on_c, 2, 31, 0
4, 4380, Note_on_c, 2, 31, 100
4, 4440, Note_on_c, 2, 31, 0
4, 4440, Note_on_c, 2, 31, 100
4, 4500, Note_on_c, 2, 31, 0
4, 4500, Note_on_c, 2, 31, 100
4, 4560, Note_on_c, 2, 31, 0
4, 4560, Note_on_c, 2, 31, 100
4, 4620, Note_on_c, 2, 31, 0
4, 4620, Note_on_c, 2, 31, 100
4, 4680, Note_on_c, 2, 31, 0
4, 4680, Note_on_c, 2, 35, 100
4, 4740, Note_on_c, 2, 35, 0
4, 4740, Note_on_c, 2, 38, 100
4, 4800, Note_on_c, 2, 38, 0
4, 4800, Note_on_c, 2, 37, 100
4, 4920, Note_on_c, 2, 37, 0
4, 4920, Note_on_c, 2, 37, 100
4, 5040, Note_on_c, 2, 37, 0
4, 5040, Note_on_c, 2, 35, 100
4, 5100, Note_on_c, 2, 35, 0
4, 5100, Note_on_c, 2, 35, 100
4, 5160, Note_on_c, 2, 35, 0
4, 5160, Note_on_c, 2, 35, 100
4, 5220, Note_on_c, 2, 35, 0
4, 5220, Note_on_c, 2, 33, 100
4, 5280, Note_on_c, 2, 33, 0
4, 5280, Note_on_c, 2, 33, 100
4, 5340, Note_on_c, 2, 33, 0
4, 5340, Note_on_c, 2, 33, 100
4, 5400, Note_on_c, 2, 33, 0
4, 5400, Note_on_c, 2, 33, 100
4, 5460, Note_on_c, 2, 33, 0
4, 5460, Note_on_c, 2, 33, 100
4, 5520, Note_on_c, 2, 33, 0
4, 5520, Note_on_c, 2, 33, 100
4, 5580, Note_on_c, 2, 33, 0
4, 5580, Note_on_c, 2, 35, 100
4, 5640, Note_on_c, 2, 35, 0
4, 5640, Note_on_c, 2, 35, 100
4, 5700, Note_on_c, 2, 35, 0
4, 5700, Note_on_c, 2, 35, 100
4, 5760, Note_on_c, 2, 35, 0
4, 5760, Note_on_c, 2, 32, 100
4, 5880, Note_on_c, 2, 32, 0
4, 5880, Note_on_c, 2, 32, 100
4, 5940, Note_on_c, 2, 32, 0
4, 5940, Note_on_c, 2, 32, 100
4, 6000, Note_on_c, 2, 32, 0
4, 6000, Note_on_c, 2, 32, 100
4, 6060, Note_on_c, 2, 32, 0
4, 6060, Note_on_c, 2, 37, 100
4, 6120, Note_on_c, 2, 37, 0
4, 6120, Note_on_c, 2, 36, 100
4, 6180, Note_on_c, 2, 36, 0
4, 6180, Note_on_c, 2, 31, 100
4, 6240, Note_on_c, 2, 31, 0
4, 6240, Note_on_c, 2, 31, 100
4, 6360, Note_on_c, 2, 31, 0
4, 6360, Note_on_c, 2, 31, 100
4, 6480, Note_on_c, 2, 31, 0
4, 6480, Note_on_c, 2, 31, 100
4, 6540, Note_on_c, 2, 31, 0
4, 6540, Note_on_c, 2, 31, 100
4, 6600, Note_on_c, 2, 31, 0
4, 6600, Note_on_c, 2, 38, 100
4, 6660, Note_on_c, 2, 38, 0
4, 6660, Note_on_c, 2, 36, 100
4, 6720, Note_on_c, 2, 36, 0
4, 6720, Note_on_c, 2, 29, 100
4, 6780, Note_on_c, 2, 29, 0
4, 6780, Note_on_c, 2, 29, 100
4, 6840, Note_on_c, 2, 29, 0
4, 6840, Note_on_c, 2, 31, 100
4, 6900, Note_on_c, 2, 31, 0
4, 6900, Note_on_c, 2, 36, 100
4, 6960, Note_on_c, 2, 36, 0
4, 6960, Note_on_c, 2, 31, 100
4, 7020, Note_on_c, 2, 31, 0
4, 7020, Note_on_c, 2, 31, 100
4, 7080, Note_on_c, 2, 31, 0
4, 7080, Note_on_c, 2, 36, 100
4, 7140, Note_on_c, 2, 36, 0
4, 7140, Note_on_c, 2, 40, 100
4, 7200, Note_on_c, 2, 40, 0
4, 7200, Note_on_c, 2, 38, 100
4, 7320, Note_on_c, 2, 38, 0
4, 7320, Note_on_c, 2, 38, 100
4, 7440, Note_on_c, 2, 38, 0
4, 7440, Note_on_c, 2, 38, 100
4, 7560, Note_on_c, 2, 38, 0
4, 7560, Note_on_c, 2, 38, 100
4, 7620, Note_on_c, 2, 38, 0
4, 7620, Note_on_c, 2, 36, 100
4, 7680, Note_on_c, 2, 36, 0
4, 7680, Note_on_c, 2, 29, 100
4, 7740, Note_on_c, 2, 29, 100
4, 7800, Note_on_c, 2, 29, 0
4, 7800, Note_on_c, 2, 29, 0
4, 7800, Note_on_c, 2, 29, 100
4, 7860, Note_on_c, 2, 29, 0
4, 7860, Note_on_c, 2, 29, 100
4, 7920, Note_on_c, 2, 29, 0
4, 7920, Note_on_c, 2, 29, 100
4, 7980, Note_on_c, 2, 29, 0
4, 7980, Note_on_c, 2, 29, 100
4, 8040, Note_on_c, 2, 29, 0
4, 8040, Note_on_c, 2, 28, 100
4, 8100, Note_on_c, 2, 28, 0
4, 8100, Note_on_c, 2, 28, 100
4, 8160, Note_on_c, 2, 28, 0
4, 8160, Note_on_c, 2, 31, 100
4, 8220, Note_on_c, 2, 31, 0
4, 8220, Note_on_c, 2, 31, 100
4, 8280, Note_on_c, 2, 31, 0
4, 8280, Note_on_c, 2, 31, 100
4, 8340, Note_on_c, 2, 31, 0
4, 8340, Note_on_c, 2, 31, 100
4, 8400, Note_on_c, 2, 31, 0
4, 8400, Note_on_c, 2, 31, 100
4, 8460, Note_on_c, 2, 31, 0
4, 8460, Note_on_c, 2, 31, 100
4, 8520, Note_on_c, 2, 31, 0
4, 8520, Note_on_c, 2, 35, 100
4, 8580, Note_on_c, 2, 35, 0
4, 8580, Note_on_c, 2, 38, 100
4, 8640, Note_on_c, 2, 38, 0
4, 8640, Note_on_c, 2, 33, 100
4, 8760, Note_on_c, 2, 33, 0
4, 8760, Note_on_c, 2, 40, 100
4, 8880, Note_on_c, 2, 40, 0
4, 8880, Note_on_c, 2, 33, 100
4, 8940, Note_on_c, 2, 33, 0
4, 8940, Note_on_c, 2, 33, 100
4, 9000, Note_on_c, 2, 33, 0
4, 9000, Note_on_c, 2, 40, 100
4, 9120, Note_on_c, 2, 40, 0
4, 9120, Note_on_c, 2, 31, 100
4, 9180, Note_on_c, 2, 31, 100
4, 9240, Note_on_c, 2, 31, 0
4, 9240, Note_on_c, 2, 31, 0
4, 9240, Note_on_c, 2, 35, 100
4, 9300, Note_on_c, 2, 35, 0
4, 9300, Note_on_c, 2, 38, 100
4, 9360, Note_on_c, 2, 38, 0
4, 9360, Note_on_c, 2, 38, 100
4, 9420, Note_on_c, 2, 38, 0
4, 9420, Note_on_c, 2, 38, 100
4, 9480, Note_on_c, 2, 38, 0
4, 9480, Note_on_c, 2, 45, 100
4, 9540, Note_on_c, 2, 45, 100
4, 9600, Note_on_c, 2, 45, 0
4, 9600, Note_on_c, 2, 45, 0
4, 9600, Note_on_c, 2, 33, 100
4, 9720, Note_on_c, 2, 33, 0
4, 9720, Note_on_c, 2, 40, 100
4, 9840, Note_on_c, 2, 40, 0
4, 9840, Note_on_c, 2, 33, 100
4, 9900, Note_on_c, 2, 33, 0
4, 9900, Note_on_c, 2, 33, 100
4, 9960, Note_on_c, 2, 33, 0
4, 9960, Note_on_c, 2, 40, 100
4, 10080, Note_on_c, 2, 40, 0
4, 10080, Note_on_c, 2, 31, 100
4, 10140, Note_on_c, 2, 31, 100
4, 10200, Note_on_c, 2, 31, 0
4, 10200, Note_on_c, 2, 31, 0
4, 10200, Note_on_c, 2, 35, 100
4, 10260, Note_on_c, 2, 35, 0
4, 10260, Note_on_c, 2, 38, 100
4, 10320, Note_on_c, 2, 38, 0
4, 10320, Note_on_c, 2, 38, 100
4, 10380, Note_on_c, 2, 38, 0
4, 10380, Note_on_c, 2, 38, 100
4, 10440, Note_on_c, 2, 38, 0
4, 10440, Note_on_c, 2, 45, 100
4, 10500, Note_on_c, 2, 45, 100
4, 10560, Note_on_c, 2, 45, 0
4, 10560, Note_on_c, 2, 45, 0
4, 10560, Note_on_c, 2, 33, 100
4, 10680, Note_on_c, 2, 33, 0
4, 10680, Note_on_c, 2, 40, 100
4, 10800, Note_on_c, 2, 40, 0
4, 10800, Note_on_c, 2, 33, 100
4, 10860, Note_on_c, 2, 33, 0
4, 10860, Note_on_c, 2, 33, 100
4, 10920, Note_on_c, 2, 33, 0
4, 10920, Note_on_c, 2, 40, 100
4, 11040, Note_on_c, 2, 40, 0
4, 11040, Note_on_c, 2, 31, 100
4, 11100, Note_on_c, 2, 31, 100
4, 11160, Note_on_c, 2, 31, 0
4, 11160, Note_on_c, 2, 31, 0
4, 11160, Note_on_c, 2, 35, 100
4, 11220, Note_on_c, 2, 35, 0
4, 11220, Note_on_c, 2, 38, 100
4, 11280, Note_on_c, 2, 38, 0
4, 11280, Note_on_c, 2, 38, 100
4, 11340, Note_on_c, 2, 38, 0
4, 11340, Note_on_c, 2, 38, 100
4, 11400, Note_on_c, 2, 38, 0
4, 11400, Note_on_c, 2, 45, 100
4, 11460, Note_on_c, 2, 45, 100
4, 11520, Note_on_c, 2, 45, 0
4, 11520, Note_on_c, 2, 45, 0
4, 11520, Note_on_c, 2, 29, 100
4, 11700, Note_on_c, 2, 29, 100
4, 11760, Note_on_c, 2, 29, 0
4, 11760, Note_on_c, 2, 29, 100
4, 11820, Note_on_c, 2, 29, 0
4, 11820, Note_on_c, 2, 29, 100
4, 11880, Note_on_c, 2, 29, 0
4, 11880, Note_on_c, 2, 29, 100
4, 11940, Note_on_c, 2, 29, 0
4, 11940, Note_on_c, 2, 31, 100
4, 12000, Note_on_c, 2, 29, 0
4, 12300, Note_on_c, 2, 31, 0
4, 12960, Note_on_c, 2, 49, 100
4, 13200, Note_on_c, 2, 49, 0
4, 13200, Note_on_c, 2, 47, 100
4, 13320, Note_on_c, 2, 47, 0
4, 13380, Note_on_c, 2, 45, 100
4, 13560, Note_on_c, 2, 45, 0
4, 13740, Note_on_c, 2, 35, 100
4, 13800, Note_on_c, 2, 35, 0
4, 13800, Note_on_c, 2, 35, 100
4, 13860, Note_on_c, 2, 35, 0
4, 13860, Note_on_c, 2, 35, 100
4, 13920, Note_on_c, 2, 35, 0
4, 13920, Note_on_c, 2, 32, 100
4, 14040, Note_on_c, 2, 32, 0
4, 14040, Note_on_c, 2, 32, 100
4, 14100, Note_on_c, 2, 32, 0
4, 14100, Note_on_c, 2, 32, 100
4, 14160, Note_on_c, 2, 32, 0
4, 14160, Note_on_c, 2, 32, 100
4, 14220, Note_on_c, 2, 32, 0
4, 14220, Note_on_c, 2, 37, 100
4, 14280, Note_on_c, 2, 37, 0
4, 14280, Note_on_c, 2, 36, 100
4, 14340, Note_on_c, 2, 36, 0
4, 14340, Note_on_c, 2, 31, 100
4, 14400, Note_on_c, 2, 31, 0
4, 14400, Note_on_c, 2, 31, 100
4, 14460, Note_on_c, 2, 31, 0
4, 14520, Note_on_c, 2, 31, 100
4, 14640, Note_on_c, 2, 31, 0
4, 14640, Note_on_c, 2, 31, 100
4, 14700, Note_on_c, 2, 31, 0
4, 14700, Note_on_c, 2, 31, 100
4, 14760, Note_on_c, 2, 31, 0
4, 14760, Note_on_c, 2, 38, 100
4, 14820, Note_on_c, 2, 38, 0
4, 14820, Note_on_c, 2, 36, 100
4, 14880, Note_on_c, 2, 36, 0
4, 14880, Note_on_c, 2, 29, 100
4, 14940, Note_on_c, 2, 29, 0
4, 14940, Note_on_c, 2, 29, 100
4, 15000, Note_on_c, 2, 29, 0
4, 15000, Note_on_c, 2, 31, 100
4, 15060, Note_on_c, 2, 31, 0
4, 15060, Note_on_c, 2, 36, 100
4, 15120, Note_on_c, 2, 36, 0
4, 15120, Note_on_c, 2, 31, 100
4, 15180, Note_on_c, 2, 31, 0
4, 15180, Note_on_c, 2, 31, 100
4, 15240, Note_on_c, 2, 31, 0
4, 15240, Note_on_c, 2, 36, 100
4, 15300, Note_on_c, 2, 36, 0
4, 15300, Note_on_c, 2, 40, 100
4, 15360, Note_on_c, 2, 40, 0
4, 15360, Note_on_c, 2, 38, 100
4, 15480, Note_on_c, 2, 38, 0
4, 15480, Note_on_c, 2, 38, 100
4, 15600, Note_on_c, 2, 38, 0
4, 15600, Note_on_c, 2, 38, 100
4, 15720, Note_on_c, 2, 38, 0
4, 15720, Note_on_c, 2, 38, 100
4, 15780, Note_on_c, 2, 38, 0
4, 15780, Note_on_c, 2, 36, 100
4, 15840, Note_on_c, 2, 36, 0
4, 15840, Note_on_c, 2, 29, 100
4, 15900, Note_on_c, 2, 29, 100
4, 15960, Note_on_c, 2, 29, 0
4, 15960, Note_on_c, 2, 29, 0
4, 15960, Note_on_c, 2, 29, 100
4, 16020, Note_on_c, 2, 29, 0
4, 16020, Note_on_c, 2, 29, 100
4, 16080, Note_on_c, 2, 29, 0
4, 16080, Note_on_c, 2, 29, 100
4, 16140, Note_on_c, 2, 29, 0
4, 16140, Note_on_c, 2, 29, 100
4, 16200, Note_on_c, 2, 29, 0
4, 16200, Note_on_c, 2, 28, 100
4, 16260, Note_on_c, 2, 28, 0
4, 16260, Note_on_c, 2, 28, 100
4, 16320, Note_on_c, 2, 28, 0
4, 16320, Note_on_c, 2, 31, 100
4, 16380, Note_on_c, 2, 31, 0
4, 16380, Note_on_c, 2, 31, 100
4, 16440, Note_on_c, 2, 31, 0
4, 16440, Note_on_c, 2, 31, 100
4, 16500, Note_on_c, 2, 31, 0
4, 16500, Note_on_c, 2, 31, 100
4, 16560, Note_on_c, 2, 31, 0
4, 16560, Note_on_c, 2, 31, 100
4, 16620, Note_on_c, 2, 31, 0
4, 16620, Note_on_c, 2, 31, 100
4, 16680, Note_on_c, 2, 31, 0
4, 16680, Note_on_c, 2, 35, 100
4, 16740, Note_on_c, 2, 35, 0
4, 16740, Note_on_c, 2, 38, 100
4, 16800, Note_on_c, 2, 38, 0
4, 16800, Note_on_c, 2, 37, 100
4, 16920, Note_on_c, 2, 37, 0
4, 16920, Note_on_c, 2, 37, 100
4, 17040, Note_on_c, 2, 37, 0
4, 17040, Note_on_c, 2, 35, 100
4, 17100, Note_on_c, 2, 35, 0
4, 17100, Note_on_c, 2, 35, 100
4, 17160, Note_on_c, 2, 35, 0
4, 17160, Note_on_c, 2, 35, 100
4, 17220, Note_on_c, 2, 35, 0
4, 17220, Note_on_c, 2, 33, 100
4, 17280, Note_on_c, 2, 33, 0
4, 17280, Note_on_c, 2, 33, 100
4, 17340, Note_on_c, 2, 33, 0
4, 17340, Note_on_c, 2, 33, 100
4, 17400, Note_on_c, 2, 33, 0
4, 17400, Note_on_c, 2, 33, 100
4, 17460, Note_on_c, 2, 33, 0
4, 17460, Note_on_c, 2, 33, 100
4, 17520, Note_on_c, 2, 33, 0
4, 17520, Note_on_c, 2, 33, 100
4, 17580, Note_on_c, 2, 33, 0
4, 17580, Note_on_c, 2, 35, 100
4, 17640, Note_on_c, 2, 35, 0
4, 17640, Note_on_c, 2, 35, 100
4, 17700, Note_on_c, 2, 35, 0
4, 17700, Note_on_c, 2, 35, 100
4, 17760, Note_on_c, 2, 35, 0
4, 17760, Note_on_c, 2, 32, 100
4, 17880, Note_on_c, 2, 32, 0
4, 17880, Note_on_c, 2, 32, 100
4, 17940, Note_on_c, 2, 32, 0
4, 17940, Note_on_c, 2, 32, 100
4, 18000, Note_on_c, 2, 32, 0
4, 18000, Note_on_c, 2, 32, 100
4, 18060, Note_on_c, 2, 32, 0
4, 18060, Note_on_c, 2, 37, 100
4, 18120, Note_on_c, 2, 37, 0
4, 18120, Note_on_c, 2, 36, 100
4, 18180, Note_on_c, 2, 36, 0
4, 18180, Note_on_c, 2, 31, 100
4, 18240, Note_on_c, 2, 31, 0
4, 18240, Note_on_c, 2, 31, 100
4, 18360, Note_on_c, 2, 31, 0
4, 18360, Note_on_c, 2, 31, 100
4, 18480, Note_on_c, 2, 31, 0
4, 18480, Note_on_c, 2, 31, 100
4, 18540, Note_on_c, 2, 31, 0
4, 18540, Note_on_c, 2, 31, 100
4, 18600, Note_on_c, 2, 31, 0
4, 18600, Note_on_c, 2, 38, 100
4, 18660, Note_on_c, 2, 38, 0
4, 18660, Note_on_c, 2, 36, 100
4, 18720, Note_on_c, 2, 36, 0
4, 18720, Note_on_c, 2, 29, 100
4, 18780, Note_on_c, 2, 29, 0
4, 18780, Note_on_c, 2, 29, 100
4, 18840, Note_on_c, 2, 29, 0
4, 18840, Note_on_c, 2, 31, 100
4, 18900, Note_on_c, 2, 31, 0
4, 18900, Note_on_c, 2, 36, 100
4, 18960, Note_on_c, 2, 36, 0
4, 18960, Note_on_c, 2, 31, 100
4, 19020, Note_on_c, 2, 31, 0
4, 19020, Note_on_c, 2, 31, 100
4, 19080, Note_on_c, 2, 31, 0
4, 19080, Note_on_c, 2, 36, 100
4, 19140, Note_on_c, 2, 36, 0
4, 19140, Note_on_c, 2, 40, 100
4, 19200, Note_on_c, 2, 40, 0
4, 19200, Note_on_c, 2, 38, 100
4, 19320, Note_on_c, 2, 38, 0
4, 19320, Note_on_c, 2, 38, 100
4, 19440, Note_on_c, 2, 38, 0
4, 19440, Note_on_c, 2, 38, 100
4, 19560, Note_on_c, 2, 38, 0
4, 19560, Note_on_c, 2, 38, 100
4, 19620, Note_on_c, 2, 38, 0
4, 19620, Note_on_c, 2, 36, 100
4, 19680, Note_on_c, 2, 36, 0
4, 19680, Note_on_c, 2, 29, 100
4, 19740, Note_on_c, 2, 29, 100
4, 19800, Note_on_c, 2, 29, 0
4, 19800, Note_on_c, 2, 29, 0
4, 19800, Note_on_c, 2, 29, 100
4, 19860, Note_on_c, 2, 29, 0
4, 19860, Note_on_c, 2, 29, 100
4, 19920, Note_on_c, 2, 29, 0
4, 19920, Note_on_c, 2, 29, 100
4, 19980, Note_on_c, 2, 29, 0
4, 19980, Note_on_c, 2, 29, 100
4, 20040, Note_on_c, 2, 29, 0
4, 20040, Note_on_c, 2, 28, 100
4, 20100, Note_on_c, 2, 28, 0
4, 20100, Note_on_c, 2, 28, 100
4, 20160, Note_on_c, 2, 28, 0
4, 20160, Note_on_c, 2, 31, 100
4, 20220, Note_on_c, 2, 31, 0
4, 20220, Note_on_c, 2, 31, 100
4, 20280, Note_on_c, 2, 31, 0
4, 20280, Note_on_c, 2, 31, 100
4, 20340, Note_on_c, 2, 31, 0
4, 20340, Note_on_c, 2, 31, 100
4, 20400, Note_on_c, 2, 31, 0
4, 20400, Note_on_c, 2, 31, 100
4, 20460, Note_on_c, 2, 31, 0
4, 20460, Note_on_c, 2, 31, 100
4, 20520, Note_on_c, 2, 31, 0
4, 20520, Note_on_c, 2, 35, 100
4, 20580, Note_on_c, 2, 35, 0
4, 20580, Note_on_c, 2, 38, 100
4, 20640, Note_on_c, 2, 38, 0
4, 20640, Note_on_c, 2, 33, 100
4, 20760, Note_on_c, 2, 33, 0
4, 20760, Note_on_c, 2, 40, 100
4, 20880, Note_on_c, 2, 40, 0
4, 20880, Note_on_c, 2, 33, 100
4, 20940, Note_on_c, 2, 33, 0
4, 20940, Note_on_c, 2, 33, 100
4, 21000, Note_on_c, 2, 33, 0
4, 21000, Note_on_c, 2, 40, 100
4, 21120, Note_on_c, 2, 40, 0
4, 21120, Note_on_c, 2, 31, 100
4, 21180, Note_on_c, 2, 31, 100
4, 21240, Note_on_c, 2, 31, 0
4, 21240, Note_on_c, 2, 31, 0
4, 21240, Note_on_c, 2, 35, 100
4, 21300, Note_on_c, 2, 35, 0
4, 21300, Note_on_c, 2, 38, 100
4, 21360, Note_on_c, 2, 38, 0
4, 21360, Note_on_c, 2, 38, 100
4, 21420, Note_on_c, 2, 38, 0
4, 21420, Note_on_c, 2, 38, 100
4, 21480, Note_on_c, 2, 38, 0
4, 21480, Note_on_c, 2, 45, 100
4, 21540, Note_on_c, 2, 45, 100
4, 21600, Note_on_c, 2, 45, 0
4, 21600, Note_on_c, 2, 45, 0
4, 21600, Note_on_c, 2, 33, 100
4, 21720, Note_on_c, 2, 33, 0
4, 21720, Note_on_c, 2, 40, 100
4, 21840, Note_on_c, 2, 40, 0
4, 21840, Note_on_c, 2, 33, 100
4, 21900, Note_on_c, 2, 33, 0
4, 21900, Note_on_c, 2, 33, 100
4, 21960, Note_on_c, 2, 33, 0
4, 21960, Note_on_c, 2, 40, 100
4, 22080, Note_on_c, 2, 40, 0
4, 22080, Note_on_c, 2, 31, 100
4, 22140, Note_on_c, 2, 31, 100
4, 22200, Note_on_c, 2, 31, 0
4, 22200, Note_on_c, 2, 31, 0
4, 22200, Note_on_c, 2, 35, 100
4, 22260, Note_on_c, 2, 35, 0
4, 22260, Note_on_c, 2, 38, 100
4, 22320, Note_on_c, 2, 38, 0
4, 22320, Note_on_c, 2, 38, 100
4, 22380, Note_on_c, 2, 38, 0
4, 22380, Note_on_c, 2, 38, 100
4, 22440, Note_on_c, 2, 38, 0
4, 22440, Note_on_c, 2, 45, 100
4, 22500, Note_on_c, 2, 45, 100
4, 22560, Note_on_c, 2, 45, 0
4, 22560, Note_on_c, 2, 45, 0
4, 22560, Note_on_c, 2, 33, 100
4, 22680, Note_on_c, 2, 33, 0
4, 22680, Note_on_c, 2, 40, 100
4, 22800, Note_on_c, 2, 40, 0
4, 22800, Note_on_c, 2, 33, 100
4, 22860, Note_on_c, 2, 33, 0
4, 22860, Note_on_c, 2, 33, 100
4, 22920, Note_on_c, 2, 33, 0
4, 22920, Note_on_c, 2, 40, 100
4, 23040, Note_on_c, 2, 40, 0
4, 23040, Note_on_c, 2, 31, 100
4, 23100, Note_on_c, 2, 31, 100
4, 23160, Note_on_c, 2, 31, 0
4, 23160, Note_on_c, 2, 31, 0
4, 23160, Note_on_c, 2, 35, 100
4, 23220, Note_on_c, 2, 35, 0
4, 23220, Note_on_c, 2, 38, 100
4, 23280, Note_on_c, 2, 38, 0
4, 23280, Note_on_c, 2, 38, 100
4, 23340, Note_on_c, 2, 38, 0
4, 23340, Note_on_c, 2, 38, 100
4, 23400, Note_on_c, 2, 38, 0
4, 23400, Note_on_c, 2, 45, 100
4, 23460, Note_on_c, 2, 45, 100
4, 23520, Note_on_c, 2, 45, 0
4, 23520, Note_on_c, 2, 45, 0
4, 23520, Note_on_c, 2, 29, 100
4, 23700, Note_on_c, 2, 29, 100
4, 23760, Note_on_c, 2, 29, 0
4, 23760, Note_on_c, 2, 29, 100
4, 23820, Note_on_c, 2, 29, 0
4, 23820, Note_on_c, 2, 29, 100
4, 23880, Note_on_c, 2, 29, 0
4, 23880, Note_on_c, 2, 29, 100
4, 23940, Note_on_c, 2, 29, 0
4, 23940, Note_on_c, 2, 31, 100
4, 24000, Note_on_c, 2, 29, 0
4, 24300, Note_on_c, 2, 31, 0
4, 24960, Note_on_c, 2, 49, 100
4, 25200, Note_on_c, 2, 49, 0
4, 25200, Note_on_c, 2, 47, 100
4, 25320, Note_on_c, 2, 47, 0
4, 25380, Note_on_c, 2, 45, 100
4, 25560, Note_on_c, 2, 45, 0
4, 25740, Note_on_c, 2, 35, 100
4, 25800, Note_on_c, 2, 35, 0
4, 25800, Note_on_c, 2, 35, 100
4, 25860, Note_on_c, 2, 35, 0
4, 25860, Note_on_c, 2, 35, 100
4, 25920, Note_on_c, 2, 35, 0
4, 25920, Note_on_c, 2, 32, 100
4, 26040, Note_on_c, 2, 32, 0
4, 26040, Note_on_c, 2, 32, 100
4, 26100, Note_on_c, 2, 32, 0
4, 26100, Note_on_c, 2, 32, 100
4, 26160, Note_on_c, 2, 32, 0
4, 26160, Note_on_c, 2, 32, 100
4, 26220, Note_on_c, 2, 32, 0
4, 26220, Note_on_c, 2, 37, 100
4, 26280, Note_on_c, 2, 37, 0
4, 26280, Note_on_c, 2, 36, 100
4, 26340, Note_on_c, 2, 36, 0
4, 26340, Note_on_c, 2, 31, 100
4, 26400, Note_on_c, 2, 31, 0
4, 26400, Note_on_c, 2, 31, 100
4, 26460, Note_on_c, 2, 31, 0
4, 26520, Note_on_c, 2, 31, 100
4, 26640, Note_on_c, 2, 31, 0
4, 26640, Note_on_c, 2, 31, 100
4, 26700, Note_on_c, 2, 31, 0
4, 26700, Note_on_c, 2, 31, 100
4, 26760, Note_on_c, 2, 31, 0
4, 26760, Note_on_c, 2, 38, 100
4, 26820, Note_on_c, 2, 38, 0
4, 26820, Note_on_c, 2, 36, 100
4, 26880, Note_on_c, 2, 36, 0
4, 26880, Note_on_c, 2, 49, 100
4, 27120, Note_on_c, 2, 49, 0
4, 27120, Note_on_c, 2, 47, 100
4, 27240, Note_on_c, 2, 47, 0
4, 27300, Note_on_c, 2, 45, 100
4, 27480, Note_on_c, 2, 45, 0
4, 27660, Note_on_c, 2, 35, 100
4, 27720, Note_on_c, 2, 35, 0
4, 27720, Note_on_c, 2, 35, 100
4, 27780, Note_on_c, 2, 35, 0
4, 27780, Note_on_c, 2, 35, 100
4, 27840, Note_on_c, 2, 35, 0
4, 27840, Note_on_c, 2, 32, 100
4, 27960, Note_on_c, 2, 32, 0
4, 27960, Note_on_c, 2, 32, 100
4, 28020, Note_on_c, 2, 32, 0
4, 28020, Note_on_c, 2, 32, 100
4, 28080, Note_on_c, 2, 32, 0
4, 28080, Note_on_c, 2, 32, 100
4, 28140, Note_on_c, 2, 32, 0
4, 28140, Note_on_c, 2, 37, 100
4, 28200, Note_on_c, 2, 37, 0
4, 28200, Note_on_c, 2, 36, 100
4, 28260, Note_on_c, 2, 36, 0
4, 28260, Note_on_c, 2, 31, 100
4, 28320, Note_on_c, 2, 31, 0
4, 28320, Note_on_c, 2, 31, 100
4, 28380, Note_on_c, 2, 31, 0
4, 28440, Note_on_c, 2, 31, 100
4, 28560, Note_on_c, 2, 31, 0
4, 28560, Note_on_c, 2, 31, 100
4, 28620, Note_on_c, 2, 31, 0
4, 28620, Note_on_c, 2, 31, 100
4, 28680, Note_on_c, 2, 31, 0
4, 28680, Note_on_c, 2, 38, 100
4, 28740, Note_on_c, 2, 38, 0
4, 28740, Note_on_c, 2, 36, 100
4, 28800, Note_on_c, 2, 36, 0
4, 28800, Note_on_c, 2, 29, 100
4, 28860, Note_on_c, 2, 29, 0
4, 28860, Note_on_c, 2, 29, 100
4, 28920, Note_on_c, 2, 29, 0
4, 28920, Note_on_c, 2, 31, 100
4, 28980, Note_on_c, 2, 31, 0
4, 28980, Note_on_c, 2, 36, 100
4, 29040, Note_on_c, 2, 36, 0
4, 29040, Note_on_c, 2, 31, 100
4, 29100, Note_on_c, 2, 31, 0
4, 29100, Note_on_c, 2, 31, 100
4, 29160, Note_on_c, 2, 31, 0
4, 29160, Note_on_c, 2, 36, 100
4, 29220, Note_on_c, 2, 36, 0
4, 29220, Note_on_c, 2, 40, 100
4, 29280, Note_on_c, 2, 40, 0
4, 29280, Note_on_c, 2, 38, 100
4, 29400, Note_on_c, 2, 38, 0
4, 29400, Note_on_c, 2, 38, 100
4, 29520, Note_on_c, 2, 38, 0
4, 29520, Note_on_c, 2, 38, 100
4, 29640, Note_on_c, 2, 38, 0
4, 29640, Note_on_c, 2, 38, 100
4, 29700, Note_on_c, 2, 38, 0
4, 29700, Note_on_c, 2, 36, 100
4, 29760, Note_on_c, 2, 36, 0
4, 29760, Note_on_c, 2, 29, 100
4, 29820, Note_on_c, 2, 29, 100
4, 29880, Note_on_c, 2, 29, 0
4, 29880, Note_on_c, 2, 29, 0
4, 29880, Note_on_c, 2, 29, 100
4, 29940, Note_on_c, 2, 29, 0
4, 29940, Note_on_c, 2, 29, 100
4, 30000, Note_on_c, 2, 29, 0
4, 30000, Note_on_c, 2, 29, 100
4, 30060, Note_on_c, 2, 29, 0
4, 30060, Note_on_c, 2, 29, 100
4, 30120, Note_on_c, 2, 29, 0
4, 30120, Note_on_c, 2, 28, 100
4, 30180, Note_on_c, 2, 28, 0
4, 30180, Note_on_c, 2, 28, 100
4, 30240, Note_on_c, 2, 28, 0
4, 30240, Note_on_c, 2, 31, 100
4, 30300, Note_on_c, 2, 31, 0
4, 30300, Note_on_c, 2, 31, 100
4, 30360, Note_on_c, 2, 31, 0
4, 30360, Note_on_c, 2, 31, 100
4, 30420, Note_on_c, 2, 31, 0
4, 30420, Note_on_c, 2, 31, 100
4, 30480, Note_on_c, 2, 31, 0
4, 30480, Note_on_c, 2, 31, 100
4, 30540, Note_on_c, 2, 31, 0
4, 30540, Note_on_c, 2, 31, 100
4, 30600, Note_on_c, 2, 31, 0
4, 30600, Note_on_c, 2, 35, 100
4, 30660, Note_on_c, 2, 35, 0
4, 30660, Note_on_c, 2, 38, 100
4, 30720, Note_on_c, 2, 38, 0
4, 30720, Note_on_c, 2, 33, 100
4, 30840, Note_on_c, 2, 33, 0
4, 30840, Note_on_c, 2, 40, 100
4, 30960, Note_on_c, 2, 40, 0
4, 30960, Note_on_c, 2, 33, 100
4, 31020, Note_on_c, 2, 33, 0
4, 31020, Note_on_c, 2, 33, 100
4, 31080, Note_on_c, 2, 33, 0
4, 31080, Note_on_c, 2, 40, 100
4, 31200, Note_on_c, 2, 40, 0
4, 31200, Note_on_c, 2, 31, 100
4, 31260, Note_on_c, 2, 31, 100
4, 31320, Note_on_c, 2, 31, 0
4, 31320, Note_on_c, 2, 31, 0
4, 31320, Note_on_c, 2, 35, 100
4, 31380, Note_on_c, 2, 35, 0
4, 31380, Note_on_c, 2, 38, 100
4, 31440, Note_on_c, 2, 38, 0
4, 31440, Note_on_c, 2, 38, 100
4, 31500, Note_on_c, 2, 38, 0
4, 31500, Note_on_c, 2, 38, 100
4, 31560, Note_on_c, 2, 38, 0
4, 31560, Note_on_c, 2, 45, 100
4, 31620, Note_on_c, 2, 45, 100
4, 31680, Note_on_c, 2, 45, 0
4, 31680, Note_on_c, 2, 45, 0
4, 31680, Note_on_c, 2, 33, 100
4, 31800, Note_on_c, 2, 33, 0
4, 31800, Note_on_c, 2, 40, 100
4, 31920, Note_on_c, 2, 40, 0
4, 31920, Note_on_c, 2, 33, 100
4, 31980, Note_on_c, 2, 33, 0
4, 31980, Note_on_c, 2, 33, 100
4, 32040, Note_on_c, 2, 33, 0
4, 32040, Note_on_c, 2, 40, 100
4, 32160, Note_on_c, 2, 40, 0
4, 32160, Note_on_c, 2, 31, 100
4, 32220, Note_on_c, 2, 31, 100
4, 32280, Note_on_c, 2, 31, 0
4, 32280, Note_on_c, 2, 31, 0
4, 32280, Note_on_c, 2, 35, 100
4, 32340, Note_on_c, 2, 35, 0
4, 32340, Note_on_c, 2, 38, 100
4, 32400, Note_on_c, 2, 38, 0
4, 32400, Note_on_c, 2, 38, 100
4, 32460, Note_on_c, 2, 38, 0
4, 32460, Note_on_c, 2, 38, 100
4, 32520, Note_on_c, 2, 38, 0
4, 32520, Note_on_c, 2, 45, 100
4, 32580, Note_on_c, 2, 45, 100
4, 32640, Note_on_c, 2, 45, 0
4, 32640, Note_on_c, 2, 45, 0
4, 32640, Note_on_c, 2, 33, 100
4, 32760, Note_on_c, 2, 33, 0
4, 32760, Note_on_c, 2, 40, 100
4, 32880, Note_on_c, 2, 40, 0
4, 32880, Note_on_c, 2, 33, 100
4, 32940, Note_on_c, 2, 33, 0
4, 32940, Note_on_c, 2, 33, 100
4, 33000, Note_on_c, 2, 33, 0
4, 33000, Note_on_c, 2, 40, 100
4, 33120, Note_on_c, 2, 40, 0
4, 33120, Note_on_c, 2, 31, 100
4, 33180, Note_on_c, 2, 31, 100
4, 33240, Note_on_c, 2, 31, 0
4, 33240, Note_on_c, 2, 31, 0
4, 33240, Note_on_c, 2, 35, 100
4, 33300, Note_on_c, 2, 35, 0
4, 33300, Note_on_c, 2, 38, 100
4, 33360, Note_on_c, 2, 38, 0
4, 33360, Note_on_c, 2, 38, 100
4, 33420, Note_on_c, 2, 38, 0
4, 33420, Note_on_c, 2, 38, 100
4, 33480, Note_on_c, 2, 38, 0
4, 33480, Note_on_c, 2, 45, 100
4, 33540, Note_on_c, 2, 45, 100
4, 33600, Note_on_c, 2, 45, 0
4, 33600, Note_on_c, 2, 45, 0
4, 33600, Note_on_c, 2, 29, 100
4, 33780, Note_on_c, 2, 29, 100
4, 33840, Note_on_c, 2, 29, 0
4, 33840, Note_on_c, 2, 29, 100
4, 33900, Note_on_c, 2, 29, 0
4, 33900, Note_on_c, 2, 29, 100
4, 33960, Note_on_c, 2, 29, 0
4, 33960, Note_on_c, 2, 29, 100
4, 34020, Note_on_c, 2, 29, 0
4, 34020, Note_on_c, 2, 31, 100
4, 34080, Note_on_c, 2, 29, 0
4, 34380, Note_on_c, 2, 31, 0
4, 34560, Note_on_c, 2, 33, 100
4, 34680, Note_on_c, 2, 33, 0
4, 34680, Note_on_c, 2, 40, 100
4, 34800, Note_on_c, 2, 40, 0
4, 34800, Note_on_c, 2, 33, 100
4, 34860, Note_on_c, 2, 33, 0
4, 34860, Note_on_c, 2, 33, 100
4, 34920, Note_on_c, 2, 33, 0
4, 34920, Note_on_c, 2, 40, 100
4, 35040, Note_on_c, 2, 40, 0
4, 35040, Note_on_c, 2, 31, 100
4, 35100, Note_on_c, 2, 31, 100
4, 35160, Note_on_c, 2, 31, 0
4, 35160, Note_on_c, 2, 31, 0
4, 35160, Note_on_c, 2, 35, 100
4, 35220, Note_on_c, 2, 35, 0
4, 35220, Note_on_c, 2, 38, 100
4, 35280, Note_on_c, 2, 38, 0
4, 35280, Note_on_c, 2, 38, 100
4, 35340, Note_on_c, 2, 38, 0
4, 35340, Note_on_c, 2, 38, 100
4, 35400, Note_on_c, 2, 38, 0
4, 35400, Note_on_c, 2, 45, 100
4, 35460, Note_on_c, 2, 45, 100
4, 35520, Note_on_c, 2, 45, 0
4, 35520, Note_on_c, 2, 45, 0
4, 35520, Note_on_c, 2, 33, 100
4, 35640, Note_on_c, 2, 33, 0
4, 35640, Note_on_c, 2, 40, 100
4, 35760, Note_on_c, 2, 40, 0
4, 35760, Note_on_c, 2, 33, 100
4, 35820, Note_on_c, 2, 33, 0
4, 35820, Note_on_c, 2, 33, 100
4, 35880, Note_on_c, 2, 33, 0
4, 35880, Note_on_c, 2, 40, 100
4, 36000, Note_on_c, 2, 40, 0
4, 36000, Note_on_c, 2, 31, 100
4, 36060, Note_on_c, 2, 31, 100
4, 36120, Note_on_c, 2, 31, 0
4, 36120, Note_on_c, 2, 31, 0
4, 36120, Note_on_c, 2, 35, 100
4, 36180, Note_on_c, 2, 35, 0
4, 36180, Note_on_c, 2, 38, 100
4, 36240, Note_on_c, 2, 38, 0
4, 36240, Note_on_c, 2, 38, 100
4, 36300, Note_on_c, 2, 38, 0
4, 36300, Note_on_c, 2, 38, 100
4, 36360, Note_on_c, 2, 38, 0
4, 36360, Note_on_c, 2, 45, 100
4, 36420, Note_on_c, 2, 45, 100
4, 36480, Note_on_c, 2, 45, 0
4, 36480, Note_on_c, 2, 45, 0
4, 36480, Note_on_c, 2, 33, 100
4, 36600, Note_on_c, 2, 33, 0
4, 36600, Note_on_c, 2, 40, 100
4, 36720, Note_on_c, 2, 40, 0
4, 36720, Note_on_c, 2, 33, 100
4, 36780, Note_on_c, 2, 33, 0
4, 36780, Note_on_c, 2, 33, 100
4, 36840, Note_on_c, 2, 33, 0
4, 36840, Note_on_c, 2, 40, 100
4, 36960, Note_on_c, 2, 40, 0
4, 36960, Note_on_c, 2, 31, 100
4, 37020, Note_on_c, 2, 31, 100
4, 37080, Note_on_c, 2, 31, 0
4, 37080, Note_on_c, 2, 31, 0
4, 37080, Note_on_c, 2, 35, 100
4, 37140, Note_on_c, 2, 35, 0
4, 37140, Note_on_c, 2, 38, 100
4, 37200, Note_on_c, 2, 38, 0
4, 37200, Note_on_c, 2, 38, 100
4, 37260, Note_on_c, 2, 38, 0
4, 37260, Note_on_c, 2, 38, 100
4, 37320, Note_on_c, 2, 38, 0
4, 37320, Note_on_c, 2, 45, 100
4, 37380, Note_on_c, 2, 45, 100
4, 37440, Note_on_c, 2, 45, 0
4, 37440, Note_on_c, 2, 45, 0
4, 37440, Note_on_c, 2, 29, 100
4, 37620, Note_on_c, 2, 29, 100
4, 37680, Note_on_c, 2, 29, 0
4, 37680, Note_on_c, 2, 29, 100
4, 37740, Note_on_c, 2, 29, 0
4, 37740, Note_on_c, 2, 29, 100
4, 37800, Note_on_c, 2, 29, 0
4, 37800, Note_on_c, 2, 29, 100
4, 37860, Note_on_c, 2, 29, 0
4, 37860, Note_on_c, 2, 31, 100
4, 37920, Note_on_c, 2, 29, 0
4, 38220, Note_on_c, 2, 31, 0
4, 38400, Note_on_c, 2, 33, 100
4, 38520, Note_on_c, 2, 33, 0
4, 38520, Note_on_c, 2, 40, 100
4, 38640, Note_on_c, 2, 40, 0
4, 38640, Note_on_c, 2, 33, 100
4, 38700, Note_on_c, 2, 33, 0
4, 38700, Note_on_c, 2, 33, 100
4, 38760, Note_on_c, 2, 33, 0
4, 38760, Note_on_c, 2, 40, 100
4, 38880, Note_on_c, 2, 40, 0
4, 38880, Note_on_c, 2, 31, 100
4, 38940, Note_on_c, 2, 31, 100
4, 39000, Note_on_c, 2, 31, 0
4, 39000, Note_on_c, 2, 31, 0
4, 39000, Note_on_c, 2, 35, 100
4, 39060, Note_on_c, 2, 35, 0
4, 39060, Note_on_c, 2, 38, 100
4, 39120, Note_on_c, 2, 38, 0
4, 39120, Note_on_c, 2, 38, 100
4, 39180, Note_on_c, 2, 38, 0
4, 39180, Note_on_c, 2, 38, 100
4, 39240, Note_on_c, 2, 38, 0
4, 39240, Note_on_c, 2, 45, 100
4, 39300, Note_on_c, 2, 45, 100
4, 39360, Note_on_c, 2, 45, 0
4, 39360, Note_on_c, 2, 45, 0
4, 39360, Note_on_c, 2, 33, 100
4, 39480, Note_on_c, 2, 33, 0
4, 39480, Note_on_c, 2, 40, 100
4, 39600, Note_on_c, 2, 40, 0
4, 39600, Note_on_c, 2, 33, 100
4, 39660, Note_on_c, 2, 33, 0
4, 39660, Note_on_c, 2, 33, 100
4, 39720, Note_on_c, 2, 33, 0
4, 39720, Note_on_c, 2, 40, 100
4, 39840, Note_on_c, 2, 40, 0
4, 39840, Note_on_c, 2, 31, 100
4, 39900, Note_on_c, 2, 31, 100
4, 39960, Note_on_c, 2, 31, 0
4, 39960, Note_on_c, 2, 31, 0
4, 39960, Note_on_c, 2, 35, 100
4, 40020, Note_on_c, 2, 35, 0
4, 40020, Note_on_c, 2, 38, 100
4, 40080, Note_on_c, 2, 38, 0
4, 40080, Note_on_c, 2, 38, 100
4, 40140, Note_on_c, 2, 38, 0
4, 40140, Note_on_c, 2, 38, 100
4, 40200, Note_on_c, 2, 38, 0
4, 40200, Note_on_c, 2, 45, 100
4, 40260, Note_on_c, 2, 45, 100
4, 40320, Note_on_c, 2, 45, 0
4, 40320, Note_on_c, 2, 45, 0
4, 40320, Note_on_c, 2, 33, 100
4, 40440, Note_on_c, 2, 33, 0
4, 40440, Note_on_c, 2, 40, 100
4, 40560, Note_on_c, 2, 40, 0
4, 40560, Note_on_c, 2, 33, 100
4, 40620, Note_on_c, 2, 33, 0
4, 40620, Note_on_c, 2, 33, 100
4, 40680, Note_on_c, 2, 33, 0
4, 40680, Note_on_c, 2, 40, 100
4, 40800, Note_on_c, 2, 40, 0
4, 40800, Note_on_c, 2, 31, 100
4, 40860, Note_on_c, 2, 31, 100
4, 40920, Note_on_c, 2, 31, 0
4, 40920, Note_on_c, 2, 31, 0
4, 40920, Note_on_c, 2, 35, 100
4, 40980, Note_on_c, 2, 35, 0
4, 40980, Note_on_c, 2, 38, 100
4, 41040, Note_on_c, 2, 38, 0
4, 41040, Note_on_c, 2, 38, 100
4, 41100, Note_on_c, 2, 38, 0
4, 41100, Note_on_c, 2, 38, 100
4, 41160, Note_on_c, 2, 38, 0
4, 41160, Note_on_c, 2, 45, 100
4, 41220, Note_on_c, 2, 45, 100
4, 41280, Note_on_c, 2, 45, 0
4, 41280, Note_on_c, 2, 45, 0
4, 41280, Note_on_c, 2, 29, 100
4, 41460, Note_on_c, 2, 29, 100
4, 41520, Note_on_c, 2, 29, 0
4, 41520, Note_on_c, 2, 29, 100
4, 41580, Note_on_c, 2, 29, 0
4, 41580, Note_on_c, 2, 29, 100
4, 41640, Note_on_c, 2, 29, 0
4, 41640, Note_on_c, 2, 29, 100
4, 41700, Note_on_c, 2, 29, 0
4, 41700, Note_on_c, 2, 31, 100
4, 41760, Note_on_c, 2, 29, 0
4, 42060, Note_on_c, 2, 31, 0
4, 42240, Note_on_c, 2, 33, 100
4, 42360, Note_on_c, 2, 33, 0
4, 42360, Note_on_c, 2, 40, 100
4, 42480, Note_on_c, 2, 40, 0
4, 42480, Note_on_c, 2, 33, 100
4, 42540, Note_on_c, 2, 33, 0
4, 42540, Note_on_c, 2, 33, 100
4, 42600, Note_on_c, 2, 33, 0
4, 42600, Note_on_c, 2, 40, 100
4, 42720, Note_on_c, 2, 40, 0
4, 42720, Note_on_c, 2, 31, 100
4, 42780, Note_on_c, 2, 31, 100
4, 42840, Note_on_c, 2, 31, 0
4, 42840, Note_on_c, 2, 31, 0
4, 42840, Note_on_c, 2, 35, 100
4, 42900, Note_on_c, 2, 35, 0
4, 42900, Note_on_c, 2, 38, 100
4, 42960, Note_on_c, 2, 38, 0
4, 42960, Note_on_c, 2, 38, 100
4, 43020, Note_on_c, 2, 38, 0
4, 43020, Note_on_c, 2, 38, 100
4, 43080, Note_on_c, 2, 38, 0
4, 43080, Note_on_c, 2, 45, 100
4, 43140, Note_on_c, 2, 45, 100
4, 43200, Note_on_c, 2, 45, 0
4, 43200, Note_on_c, 2, 45, 0
4, 43200, Note_on_c, 2, 33, 100
4, 43320, Note_on_c, 2, 33, 0
4, 43320, Note_on_c, 2, 40, 100
4, 43440, Note_on_c, 2, 40, 0
4, 43440, Note_on_c, 2, 33, 100
4, 43500, Note_on_c, 2, 33, 0
4, 43500, Note_on_c, 2, 33, 100
4, 43560, Note_on_c, 2, 33, 0
4, 43560, Note_on_c, 2, 40, 100
4, 43680, Note_on_c, 2, 40, 0
4, 43680, Note_on_c, 2, 31, 100
4, 43740, Note_on_c, 2, 31, 100
4, 43800, Note_on_c, 2, 31, 0
4, 43800, Note_on_c, 2, 31, 0
4, 43800, Note_on_c, 2, 35, 100
4, 43860, Note_on_c, 2, 35, 0
4, 43860, Note_on_c, 2, 38, 100
4, 43920, Note_on_c, 2, 38, 0
4, 43920, Note_on_c, 2, 38, 100
4, 43980, Note_on_c, 2, 38, 0
4, 43980, Note_on_c, 2, 38, 100
4, 44040, Note_on_c, 2, 38, 0
4, 44040, Note_on_c, 2, 45, 100
4, 44100, Note_on_c, 2, 45, 100
4, 44160, Note_on_c, 2, 45, 0
4, 44160, Note_on_c, 2, 45, 0
4, 44160, Note_on_c, 2, 33, 100
4, 44280, Note_on_c, 2, 33, 0
4, 44280, Note_on_c, 2, 40, 100
4, 44400, Note_on_c, 2, 40, 0
4, 44400, Note_on_c, 2, 33, 100
4, 44460, Note_on_c, 2, 33, 0
4, 44460, Note_on_c, 2, 33, 100
4, 44520, Note_on_c, 2, 33, 0
4, 44520, Note_on_c, 2, 40, 100
4, 44640, Note_on_c, 2, 40, 0
4, 44640, Note_on_c, 2, 31, 100
4, 44700, Note_on_c, 2, 31, 100
4, 44760, Note_on_c, 2, 31, 0
4, 44760, Note_on_c, 2, 31, 0
4, 44760, Note_on_c, 2, 35, 100
4, 44820, Note_on_c, 2, 35, 0
4, 44820, Note_on_c, 2, 38, 100
4, 44880, Note_on_c, 2, 38, 0
4, 44880, Note_on_c, 2, 38, 100
4, 44940, Note_on_c, 2, 38, 0
4, 44940, Note_on_c, 2, 38, 100
4, 45000, Note_on_c, 2, 38, 0
4, 45000, Note_on_c, 2, 45, 100
4, 45060, Note_on_c, 2, 45, 100
4, 45120, Note_on_c, 2, 45, 0
4, 45120, Note_on_c, 2, 45, 0
4, 45120, Note_on_c, 2, 29, 100
4, 45300, Note_on_c, 2, 29, 100
4, 45360, Note_on_c, 2, 29, 0
4, 45360, Note_on_c, 2, 29, 100
4, 45420, Note_on_c, 2, 29, 0
4, 45420, Note_on_c, 2, 29, 100
4, 45480, Note_on_c, 2, 29, 0
4, 45480, Note_on_c, 2, 29, 100
4, 45540, Note_on_c, 2, 29, 0
4, 45540, Note_on_c, 2, 31, 100
4, 45600, Note_on_c, 2, 29, 0
4, 45900, Note_on_c, 2, 31, 0
4, 46080, Note_on_c, 2, 33, 100
4, 46200, Note_on_c, 2, 33, 0
4, 46200, Note_on_c, 2, 40, 100
4, 46320, Note_on_c, 2, 40, 0
4, 46320, Note_on_c, 2, 33, 100
4, 46380, Note_on_c, 2, 33, 0
4, 46380, Note_on_c, 2, 33, 100
4, 46440, Note_on_c, 2, 33, 0
4, 46440, Note_on_c, 2, 40, 100
4, 46560, Note_on_c, 2, 40, 0
4, 46560, Note_on_c, 2, 31, 100
4, 46620, Note_on_c, 2, 31, 100
4, 46680, Note_on_c, 2, 31, 0
4, 46680, Note_on_c, 2, 31, 0
4, 46680, Note_on_c, 2, 35, 100
4, 46740, Note_on_c, 2, 35, 0
4, 46740, Note_on_c, 2, 38, 100
4, 46800, Note_on_c, 2, 38, 0
4, 46800, Note_on_c, 2, 38, 100
4, 46860, Note_on_c, 2, 38, 0
4, 46860, Note_on_c, 2, 38, 100
4, 46920, Note_on_c, 2, 38, 0
4, 46920, Note_on_c, 2, 45, 100
4, 46980, Note_on_c, 2, 45, 100
4, 47040, Note_on_c, 2, 45, 0
4, 47040, Note_on_c, 2, 45, 0
4, 47040, Note_on_c, 2, 33, 100
4, 47160, Note_on_c, 2, 33, 0
4, 47160, Note_on_c, 2, 40, 100
4, 47280, Note_on_c, 2, 40, 0
4, 47280, Note_on_c, 2, 33, 100
4, 47340, Note_on_c, 2, 33, 0
4, 47340, Note_on_c, 2, 33, 100
4, 47400, Note_on_c, 2, 33, 0
4, 47400, Note_on_c, 2, 40, 100
4, 47520, Note_on_c, 2, 40, 0
4, 47520, Note_on_c, 2, 31, 100
4, 47580, Note_on_c, 2, 31, 100
4, 47640, Note_on_c, 2, 31, 0
4, 47640, Note_on_c, 2, 31, 0
4, 47640, Note_on_c, 2, 35, 100
4, 47700, Note_on_c, 2, 35, 0
4, 47700, Note_on_c, 2, 38, 100
4, 47760, Note_on_c, 2, 38, 0
4, 47760, Note_on_c, 2, 38, 100
4, 47820, Note_on_c, 2, 38, 0
4, 47820, Note_on_c, 2, 38, 100
4, 47880, Note_on_c, 2, 38, 0
4, 47880, Note_on_c, 2, 45, 100
4, 47940, Note_on_c, 2, 45, 100
4, 48000, Note_on_c, 2, 45, 0
4, 48000, Note_on_c, 2, 45, 0
4, 48000, Note_on_c, 2, 33, 100
4, 48120, Note_on_c, 2, 33, 0
4, 48120, Note_on_c, 2, 40, 100
4, 48240, Note_on_c, 2, 40, 0
4, 48240, Note_on_c, 2, 33, 100
4, 48300, Note_on_c, 2, 33, 0
4, 48300, Note_on_c, 2, 33, 100
4, 48360, Note_on_c, 2, 33, 0
4, 48360, Note_on_c, 2, 40, 100
4, 48480, Note_on_c, 2, 40, 0
4, 48480, Note_on_c, 2, 31, 100
4, 48540, Note_on_c, 2, 31, 100
4, 48600, Note_on_c, 2, 31, 0
4, 48600, Note_on_c, 2, 31, 0
4, 48600, Note_on_c, 2, 35, 100
4, 48660, Note_on_c, 2, 35, 0
4, 48660, Note_on_c, 2, 38, 100
4, 48720, Note_on_c, 2, 38, 0
4, 48720, Note_on_c, 2, 38, 100
4, 48780, Note_on_c, 2, 38, 0
4, 48780, Note_on_c, 2, 38, 100
4, 48840, Note_on_c, 2, 38, 0
4, 48840, Note_on_c, 2, 45, 100
4, 48900, Note_on_c, 2, 45, 100
4, 48960, Note_on_c, 2, 45, 0
4, 48960, Note_on_c, 2, 45, 0
4, 48960, Note_on_c, 2, 29, 100
4, 49140, Note_on_c, 2, 29, 100
4, 49200, Note_on_c, 2, 29, 0
4, 49200, Note_on_c, 2, 29, 100
4, 49260, Note_on_c, 2, 29, 0
4, 49260, Note_on_c, 2, 29, 100
4, 49320, Note_on_c, 2, 29, 0
4, 49320, Note_on_c, 2, 29, 100
4, 49380, Note_on_c, 2, 29, 0
4, 49380, Note_on_c, 2, 31, 100
4, 49440, Note_on_c, 2, 29, 0
4, 49740, Note_on_c, 2, 31, 0
4, 49920, Note_on_c, 2, 33, 100
4, 50040, Note_on_c, 2, 33, 0
4, 50040, Note_on_c, 2, 40, 100
4, 50160, Note_on_c, 2, 40, 0
4, 50160, Note_on_c, 2, 33, 100
4, 50220, Note_on_c, 2, 33, 0
4, 50220, Note_on_c, 2, 33, 100
4, 50280, Note_on_c, 2, 33, 0
4, 50280, Note_on_c, 2, 40, 100
4, 50400, Note_on_c, 2, 40, 0
4, 50400, Note_on_c, 2, 31, 100
4, 50460, Note_on_c, 2, 31, 100
4, 50520, Note_on_c, 2, 31, 0
4, 50520, Note_on_c, 2, 31, 0
4, 50520, Note_on_c, 2, 35, 100
4, 50580, Note_on_c, 2, 35, 0
4, 50580, Note_on_c, 2, 38, 100
4, 50640, Note_on_c, 2, 38, 0
4, 50640, Note_on_c, 2, 38, 100
4, 50700, Note_on_c, 2, 38, 0
4, 50700, Note_on_c, 2, 38, 100
4, 50760, Note_on_c, 2, 38, 0
4, 50760, Note_on_c, 2, 45, 100
4, 50820, Note_on_c, 2, 45, 100
4, 50880, Note_on_c, 2, 45, 0
4, 50880, Note_on_c, 2, 45, 0
4, 50880, Note_on_c, 2, 33, 100
4, 51000, Note_on_c, 2, 33, 0
4, 51000, Note_on_c, 2, 40, 100
4, 51120, Note_on_c, 2, 40, 0
4, 51120, Note_on_c, 2, 33, 100
4, 51180, Note_on_c, 2, 33, 0
4, 51180, Note_on_c, 2, 33, 100
4, 51240, Note_on_c, 2, 33, 0
4, 51240, Note_on_c, 2, 40, 100
4, 51360, Note_on_c, 2, 40, 0
4, 51360, Note_on_c, 2, 31, 100
4, 51420, Note_on_c, 2, 31, 100
4, 51480, Note_on_c, 2, 31, 0
4, 51480, Note_on_c, 2, 31, 0
4, 51480, Note_on_c, 2, 35, 100
4, 51540, Note_on_c, 2, 35, 0
4, 51540, Note_on_c, 2, 38, 100
4, 51600, Note_on_c, 2, 38, 0
4, 51600, Note_on_c, 2, 38, 100
4, 51660, Note_on_c, 2, 38, 0
4, 51660, Note_on_c, 2, 38, 100
4, 51720, Note_on_c, 2, 38, 0
4, 51720, Note_on_c, 2, 45, 100
4, 51780, Note_on_c, 2, 45, 100
4, 51840, Note_on_c, 2, 45, 0
4, 51840, Note_on_c, 2, 45, 0
4, 51840, Note_on_c, 2, 33, 100
4, 51960, Note_on_c, 2, 33, 0
4, 51960, Note_on_c, 2, 40, 100
4, 52080, Note_on_c, 2, 40, 0
4, 52080, Note_on_c, 2, 33, 100
4, 52140, Note_on_c, 2, 33, 0
4, 52140, Note_on_c, 2, 33, 100
4, 52200, Note_on_c, 2, 33, 0
4, 52200, Note_on_c, 2, 40, 100
4, 52320, Note_on_c, 2, 40, 0
4, 52320, Note_on_c, 2, 31, 100
4, 52380, Note_on_c, 2, 31, 100
4, 52440, Note_on_c, 2, 31, 0
4, 52440, Note_on_c, 2, 31, 0
4, 52440, Note_on_c, 2, 35, 100
4, 52500, Note_on_c, 2, 35, 0
4, 52500, Note_on_c, 2, 38, 100
4, 52560, Note_on_c, 2, 38, 0
4, 52560, Note_on_c, 2, 38, 100
4, 52620, Note_on_c, 2, 38, 0
4, 52620, Note_on_c, 2, 38, 100
4, 52680, Note_on_c, 2, 38, 0
4, 52680, Note_on_c, 2, 45, 100
4, 52740, Note_on_c, 2, 45, 100
4, 52800, Note_on_c, 2, 45, 0
4, 52800, Note_on_c, 2, 45, 0
4, 52800, Note_on_c, 2, 29, 100
4, 52980, Note_on_c, 2, 29, 100
4, 53040, Note_on_c, 2, 29, 0
4, 53040, Note_on_c, 2, 29, 100
4, 53100, Note_on_c, 2, 29, 0
4, 53100, Note_on_c, 2, 29, 100
4, 53160, Note_on_c, 2, 29, 0
4, 53160, Note_on_c, 2, 29, 100
4, 53220, Note_on_c, 2, 29, 0
4, 53220, Note_on_c, 2, 31, 100
4, 53280, Note_on_c, 2, 29, 0
4, 53580, Note_on_c, 2, 31, 0
4, 53760, Note_on_c, 2, 33, 100
4, 53880, Note_on_c, 2, 33, 0
4, 53880, Note_on_c, 2, 40, 100
4, 54000, Note_on_c, 2, 40, 0
4, 54000, Note_on_c, 2, 33, 100
4, 54060, Note_on_c, 2, 33, 0
4, 54060, Note_on_c, 2, 33, 100
4, 54120, Note_on_c, 2, 33, 0
4, 54120, Note_on_c, 2, 40, 100
4, 54240, Note_on_c, 2, 40, 0
4, 54240, Note_on_c, 2, 31, 100
4, 54300, Note_on_c, 2, 31, 100
4, 54360, Note_on_c, 2, 31, 0
4, 54360, Note_on_c, 2, 31, 0
4, 54360, Note_on_c, 2, 35, 100
4, 54420, Note_on_c, 2, 35, 0
4, 54420, Note_on_c, 2, 38, 100
4, 54480, Note_on_c, 2, 38, 0
4, 54480, Note_on_c, 2, 38, 100
4, 54540, Note_on_c, 2, 38, 0
4, 54540, Note_on_c, 2, 38, 100
4, 54600, Note_on_c, 2, 38, 0
4, 54600, Note_on_c, 2, 45, 100
4, 54660, Note_on_c, 2, 45, 100
4, 54720, Note_on_c, 2, 45, 0
4, 54720, Note_on_c, 2, 45, 0
4, 54720, Note_on_c, 2, 33, 100
4, 54840, Note_on_c, 2, 33, 0
4, 54840, Note_on_c, 2, 40, 100
4, 54960, Note_on_c, 2, 40, 0
4, 54960, Note_on_c, 2, 33, 100
4, 55020, Note_on_c, 2, 33, 0
4, 55020, Note_on_c, 2, 33, 100
4, 55080, Note_on_c, 2, 33, 0
4, 55080, Note_on_c, 2, 40, 100
4, 55200, Note_on_c, 2, 40, 0
4, 55200, Note_on_c, 2, 31, 100
4, 55260, Note_on_c, 2, 31, 100
4, 55320, Note_on_c, 2, 31, 0
4, 55320, Note_on_c, 2, 31, 0
4, 55320, Note_on_c, 2, 35, 100
4, 55380, Note_on_c, 2, 35, 0
4, 55380, Note_on_c, 2, 38, 100
4, 55440, Note_on_c, 2, 38, 0
4, 55440, Note_on_c, 2, 38, 100
4, 55500, Note_on_c, 2, 38, 0
4, 55500, Note_on_c, 2, 38, 100
4, 55560, Note_on_c, 2, 38, 0
4, 55560, Note_on_c, 2, 45, 100
4, 55620, Note_on_c, 2, 45, 100
4, 55680, Note_on_c, 2, 45, 0
4, 55680, Note_on_c, 2, 45, 0
4, 55680, Note_on_c, 2, 33, 100
4, 55800, Note_on_c, 2, 33, 0
4, 55800, Note_on_c, 2, 40, 100
4, 55920, Note_on_c, 2, 40, 0
4, 55920, Note_on_c, 2, 33, 100
4, 55980, Note_on_c, 2, 33, 0
4, 55980, Note_on_c, 2, 33, 100
4, 56040, Note_on_c, 2, 33, 0
4, 56040, Note_on_c, 2, 40, 100
4, 56160, Note_on_c, 2, 40, 0
4, 56160, Note_on_c, 2, 31, 100
4, 56220, Note_on_c, 2, 31, 100
4, 56280, Note_on_c, 2, 31, 0
4, 56280, Note_on_c, 2, 31, 0
4, 56280, Note_on_c, 2, 35, 100
4, 56340, Note_on_c, 2, 35, 0
4, 56340, Note_on_c, 2, 38, 100
4, 56400, Note_on_c, 2, 38, 0
4, 56400, Note_on_c, 2, 38, 100
4, 56460, Note_on_c, 2, 38, 0
4, 56460, Note_on_c, 2, 38, 100
4, 56520, Note_on_c, 2, 38, 0
4, 56520, Note_on_c, 2, 45, 100
4, 56580, Note_on_c, 2, 45, 100
4, 56640, Note_on_c, 2, 45, 0
4, 56640, Note_on_c, 2, 45, 0
4, 56640, Note_on_c, 2, 29, 100
4, 56820, Note_on_c, 2, 29, 100
4, 56880, Note_on_c, 2, 29, 0
4, 56880, Note_on_c, 2, 29, 100
4, 56940, Note_on_c, 2, 29, 0
4, 56940, Note_on_c, 2, 29, 100
4, 57000, Note_on_c, 2, 29, 0
4, 57000, Note_on_c, 2, 29, 100
4, 57060, Note_on_c, 2, 29, 0
4, 57060, Note_on_c, 2, 31, 100
4, 57120, Note_on_c, 2, 29, 0
4, 57420, Note_on_c, 2, 31, 0
4, 57600, Note_on_c, 2, 33, 100
4, 57720, Note_on_c, 2, 33, 0
4, 57720, Note_on_c, 2, 40, 100
4, 57840, Note_on_c, 2, 40, 0
4, 57840, Note_on_c, 2, 33, 100
4, 57900, Note_on_c, 2, 33, 0
4, 57900, Note_on_c, 2, 33, 100
4, 57960, Note_on_c, 2, 33, 0
4, 57960, Note_on_c, 2, 40, 100
4, 58080, Note_on_c, 2, 40, 0
4, 58080, Note_on_c, 2, 31, 100
4, 58140, Note_on_c, 2, 31, 100
4, 58200, Note_on_c, 2, 31, 0
4, 58200, Note_on_c, 2, 31, 0
4, 58200, Note_on_c, 2, 35, 100
4, 58260, Note_on_c, 2, 35, 0
4, 58260, Note_on_c, 2, 38, 100
4, 58320, Note_on_c, 2, 38, 0
4, 58320, Note_on_c, 2, 38, 100
4, 58380, Note_on_c, 2, 38, 0
4, 58380, Note_on_c, 2, 38, 100
4, 58440, Note_on_c, 2, 38, 0
4, 58440, Note_on_c, 2, 45, 100
4, 58500, Note_on_c, 2, 45, 100
4, 58560, Note_on_c, 2, 45, 0
4, 58560, Note_on_c, 2, 45, 0
4, 58560, Note_on_c, 2, 33, 100
4, 58680, Note_on_c, 2, 33, 0
4, 58680, Note_on_c, 2, 40, 100
4, 58800, Note_on_c, 2, 40, 0
4, 58800, Note_on_c, 2, 33, 100
4, 58860, Note_on_c, 2, 33, 0
4, 58860, Note_on_c, 2, 33, 100
4, 58920, Note_on_c, 2, 33, 0
4, 58920, Note_on_c, 2, 40, 100
4, 59040, Note_on_c, 2, 40, 0
4, 59040, Note_on_c, 2, 31, 100
4, 59100, Note_on_c, 2, 31, 100
4, 59160, Note_on_c, 2, 31, 0
4, 59160, Note_on_c, 2, 31, 0
4, 59160, Note_on_c, 2, 35, 100
4, 59220, Note_on_c, 2, 35, 0
4, 59220, Note_on_c, 2, 38, 100
4, 59280, Note_on_c, 2, 38, 0
4, 59280, Note_on_c, 2, 38, 100
4, 59340, Note_on_c, 2, 38, 0
4, 59340, Note_on_c, 2, 38, 100
4, 59400, Note_on_c, 2, 38, 0
4, 59400, Note_on_c, 2, 45, 100
4, 59460, Note_on_c, 2, 45, 100
4, 59520, Note_on_c, 2, 45, 0
4, 59520, Note_on_c, 2, 45, 0
4, 59520, Note_on_c, 2, 33, 100
4, 59640, Note_on_c, 2, 33, 0
4, 59640, Note_on_c, 2, 40, 100
4, 59760, Note_on_c, 2, 40, 0
4, 59760, Note_on_c, 2, 33, 100
4, 59820, Note_on_c, 2, 33, 0
4, 59820, Note_on_c, 2, 33, 100
4, 59880, Note_on_c, 2, 33, 0
4, 59880, Note_on_c, 2, 40, 100
4, 60000, Note_on_c, 2, 40, 0
4, 60000, Note_on_c, 2, 31, 100
4, 60060, Note_on_c, 2, 31, 100
4, 60120, Note_on_c, 2, 31, 0
4, 60120, Note_on_c, 2, 31, 0
4, 60120, Note_on_c, 2, 35, 100
4, 60180, Note_on_c, 2, 35, 0
4, 60180, Note_on_c, 2, 38, 100
4, 60240, Note_on_c, 2, 38, 0
4, 60240, Note_on_c, 2, 38, 100
4, 60300, Note_on_c, 2, 38, 0
4, 60300, Note_on_c, 2, 38, 100
4, 60360, Note_on_c, 2, 38, 0
4, 60360, Note_on_c, 2, 45, 100
4, 60420, Note_on_c, 2, 45, 100
4, 60480, Note_on_c, 2, 45, 0
4, 60480, Note_on_c, 2, 45, 0
4, 60480, Note_on_c, 2, 29, 100
4, 60660, Note_on_c, 2, 29, 100
4, 60720, Note_on_c, 2, 29, 0
4, 60720, Note_on_c, 2, 29, 100
4, 60780, Note_on_c, 2, 29, 0
4, 60780, Note_on_c, 2, 29, 100
4, 60840, Note_on_c, 2, 29, 0
4, 60840, Note_on_c, 2, 29, 100
4, 60900, Note_on_c, 2, 29, 0
4, 60900, Note_on_c, 2, 31, 100
4, 60960, Note_on_c, 2, 29, 0
4, 61260, Note_on_c, 2, 31, 0
4, 61440, Note_on_c, 2, 33, 100
4, 61560, Note_on_c, 2, 33, 0
4, 61560, Note_on_c, 2, 40, 100
4, 61680, Note_on_c, 2, 40, 0
4, 61680, Note_on_c, 2, 33, 100
4, 61740, Note_on_c, 2, 33, 0
4, 61740, Note_on_c, 2, 33, 100
4, 61800, Note_on_c, 2, 33, 0
4, 61800, Note_on_c, 2, 40, 100
4, 61920, Note_on_c, 2, 40, 0
4, 61920, Note_on_c, 2, 31, 100
4, 61980, Note_on_c, 2, 31, 100
4, 62040, Note_on_c, 2, 31, 0
4, 62040, Note_on_c, 2, 31, 0
4, 62040, Note_on_c, 2, 35, 100
4, 62100, Note_on_c, 2, 35, 0
4, 62100, Note_on_c, 2, 38, 100
4, 62160, Note_on_c, 2, 38, 0
4, 62160, Note_on_c, 2, 38, 100
4, 62220, Note_on_c, 2, 38, 0
4, 62220, Note_on_c, 2, 38, 100
4, 62280, Note_on_c, 2, 38, 0
4, 62280, Note_on_c, 2, 45, 100
4, 62340, Note_on_c, 2, 45, 100
4, 62400, Note_on_c, 2, 45, 0
4, 62400, Note_on_c, 2, 45, 0
4, 62400, Note_on_c, 2, 33, 100
4, 62520, Note_on_c, 2, 33, 0
4, 62520, Note_on_c, 2, 40, 100
4, 62640, Note_on_c, 2, 40, 0
4, 62640, Note_on_c, 2, 33, 100
4, 62700, Note_on_c, 2, 33, 0
4, 62700, Note_on_c, 2, 33, 100
4, 62760, Note_on_c, 2, 33, 0
4, 62760, Note_on_c, 2, 40, 100
4, 62880, Note_on_c, 2, 40, 0
4, 62880, Note_on_c, 2, 31, 100
4, 62940, Note_on_c, 2, 31, 100
4, 63000, Note_on_c, 2, 31, 0
4, 63000, Note_on_c, 2, 31, 0
4, 63000, Note_on_c, 2, 35, 100
4, 63060, Note_on_c, 2, 35, 0
4, 63060, Note_on_c, 2, 38, 100
4, 63120, Note_on_c, 2, 38, 0
4, 63120, Note_on_c, 2, 38, 100
4, 63180, Note_on_c, 2, 38, 0
4, 63180, Note_on_c, 2, 38, 100
4, 63240, Note_on_c, 2, 38, 0
4, 63240, Note_on_c, 2, 45, 100
4, 63300, Note_on_c, 2, 45, 100
4, 63360, Note_on_c, 2, 45, 0
4, 63360, Note_on_c, 2, 45, 0
4, 63360, Note_on_c, 2, 33, 100
4, 63480, Note_on_c, 2, 33, 0
4, 63480, Note_on_c, 2, 40, 100
4, 63600, Note_on_c, 2, 40, 0
4, 63600, Note_on_c, 2, 33, 100
4, 63660, Note_on_c, 2, 33, 0
4, 63660, Note_on_c, 2, 33, 100
4, 63720, Note_on_c, 2, 33, 0
4, 63720, Note_on_c, 2, 40, 100
4, 63840, Note_on_c, 2, 40, 0
4, 63840, Note_on_c, 2, 31, 100
4, 63900, Note_on_c, 2, 31, 100
4, 63960, Note_on_c, 2, 31, 0
4, 63960, Note_on_c, 2, 31, 0
4, 63960, Note_on_c, 2, 35, 100
4, 64020, Note_on_c, 2, 35, 0
4, 64020, Note_on_c, 2, 38, 100
4, 64080, Note_on_c, 2, 38, 0
4, 64080, Note_on_c, 2, 38, 100
4, 64140, Note_on_c, 2, 38, 0
4, 64140, Note_on_c, 2, 38, 100
4, 64200, Note_on_c, 2, 38, 0
4, 64200, Note_on_c, 2, 45, 100
4, 64260, Note_on_c, 2, 45, 100
4, 64320, Note_on_c, 2, 45, 0
4, 64320, Note_on_c, 2, 45, 0
4, 64320, Note_on_c, 2, 29, 100
4, 64500, Note_on_c, 2, 29, 100
4, 64560, Note_on_c, 2, 29, 0
4, 64560, Note_on_c, 2, 29, 100
4, 64620, Note_on_c, 2, 29, 0
4, 64620, Note_on_c, 2, 29, 100
4, 64680, Note_on_c, 2, 29, 0
4, 64680, Note_on_c, 2, 29, 100
4, 64740, Note_on_c, 2, 29, 0
4, 64740, Note_on_c, 2, 31, 100
4, 64800, Note_on_c, 2, 29, 0
4, 65100, Note_on_c, 2, 31, 0
4, 65280, Note_on_c, 2, 33, 100
4, 65283, Control_c, 2, 7, 115
4, 65306, Control_c, 2, 7, 114
4, 65330, Control_c, 2, 7, 113
4, 65353, Control_c, 2, 7, 112
4, 65376, Control_c, 2, 7, 111
4, 65400, Note_on_c, 2, 33, 0
4, 65400, Control_c, 2, 7, 110
4, 65400, Note_on_c, 2, 40, 100
4, 65423, Control_c, 2, 7, 109
4, 65446, Control_c, 2, 7, 108
4, 65470, Control_c, 2, 7, 107
4, 65493, Control_c, 2, 7, 106
4, 65516, Control_c, 2, 7, 105
4, 65520, Note_on_c, 2, 40, 0
4, 65520, Note_on_c, 2, 33, 100
4, 65540, Control_c, 2, 7, 104
4, 65563, Control_c, 2, 7, 103
4, 65580, Note_on_c, 2, 33, 0
4, 65580, Note_on_c, 2, 33, 100
4, 65586, Control_c, 2, 7, 102
4, 65610, Control_c, 2, 7, 101
4, 65633, Control_c, 2, 7, 100
4, 65640, Note_on_c, 2, 33, 0
4, 65640, Note_on_c, 2, 40, 100
4, 65656, Control_c, 2, 7, 99
4, 65680, Control_c, 2, 7, 98
4, 65703, Control_c, 2, 7, 97
4, 65726, Control_c, 2, 7, 96
4, 65750, Control_c, 2, 7, 95
4, 65760, Note_on_c, 2, 40, 0
4, 65760, Note_on_c, 2, 31, 100
4, 65773, Control_c, 2, 7, 94
4, 65796, Control_c, 2, 7, 93
4, 65820, Control_c, 2, 7, 92
4, 65820, Note_on_c, 2, 31, 100
4, 65843, Control_c, 2, 7, 91
4, 65866, Control_c, 2, 7, 90
4, 65880, Note_on_c, 2, 31, 0
4, 65880, Note_on_c, 2, 31, 0
4, 65880, Note_on_c, 2, 35, 100
4, 65890, Control_c, 2, 7, 89
4, 65913, Control_c, 2, 7, 88
4, 65936, Control_c, 2, 7, 87
4, 65940, Note_on_c, 2, 35, 0
4, 65940, Note_on_c, 2, 38, 100
4, 65960, Control_c, 2, 7, 86
4, 65983, Control_c, 2, 7, 85
4, 66000, Note_on_c, 2, 38, 0
4, 66000, Note_on_c, 2, 38, 100
4, 66006, Control_c, 2, 7, 84
4, 66030, Control_c, 2, 7, 83
4, 66053, Control_c, 2, 7, 82
4, 66060, Note_on_c, 2, 38, 0
4, 66060, Note_on_c, 2, 38, 100
4, 66076, Control_c, 2, 7, 81
4, 66100, Control_c, 2, 7, 80
4, 66120, Note_on_c, 2, 38, 0
4, 66120, Note_on_c, 2, 45, 100
4, 66123, Control_c, 2, 7, 79
4, 66146, Control_c, 2, 7, 78
4, 66170, Control_c, 2, 7, 77
4, 66180, Note_on_c, 2, 45, 100
4, 66193, Control_c, 2, 7, 76
4, 66216, Control_c, 2, 7, 75
4, 66240, Note_on_c, 2, 45, 0
4, 66240, Note_on_c, 2, 45, 0
4, 66240, Control_c, 2, 7, 74
4, 66240, Note_on_c, 2, 33, 100
4, 66263, Control_c, 2, 7, 73
4, 66286, Control_c, 2, 7, 72
4, 66310, Control_c, 2, 7, 71
4, 66333, Control_c, 2, 7, 70
4, 66356, Control_c, 2, 7, 69
4, 66360, Note_on_c, 2, 33, 0
4, 66360, Note_on_c, 2, 40, 100
4, 66380, Control_c, 2, 7, 68
4, 66403, Control_c, 2, 7, 67
4, 66426, Control_c, 2, 7, 66
4, 66450, Control_c, 2, 7, 65
4, 66473, Control_c, 2, 7, 64
4, 66480, Note_on_c, 2, 40, 0
4, 66480, Note_on_c, 2, 33, 100
4, 66496, Control_c, 2, 7, 63
4, 66520, Control_c, 2, 7, 62
4, 66540, Note_on_c, 2, 33, 0
4, 66540, Note_on_c, 2, 33, 100
4, 66543, Control_c, 2, 7, 61
4, 66566, Control_c, 2, 7, 60
4, 66590, Control_c, 2, 7, 59
4, 66600, Note_on_c, 2, 33, 0
4, 66600, Note_on_c, 2, 40, 100
4, 66613, Control_c, 2, 7, 58
4, 66636, Control_c, 2, 7, 57
4, 66660, Control_c, 2, 7, 56
4, 66683, Control_c, 2, 7, 55
4, 66706, Control_c, 2, 7, 54
4, 66720, Note_on_c, 2, 40, 0
4, 66720, Note_on_c, 2, 31, 100
4, 66730, Control_c, 2, 7, 53
4, 66753, Control_c, 2, 7, 52
4, 66776, Control_c, 2, 7, 51
4, 66780, Note_on_c, 2, 31, 100
4, 66800, Control_c, 2, 7, 50
4, 66823, Control_c, 2, 7, 49
4, 66840, Note_on_c, 2, 31, 0
4, 66840, Note_on_c, 2, 31, 0
4, 66840, Note_on_c, 2, 35, 100
4, 66846, Control_c, 2, 7, 48
4, 66870, Control_c, 2, 7, 47
4, 66893, Control_c, 2, 7, 46
4, 66900, Note_on_c, 2, 35, 0
4, 66900, Note_on_c, 2, 38, 100
4, 66916, Control_c, 2, 7, 45
4, 66940, Control_c, 2, 7, 44
4, 66960, Note_on_c, 2, 38, 0
4, 66960, Note_on_c, 2, 38, 100
4, 66963, Control_c, 2, 7, 43
4, 66986, Control_c, 2, 7, 42
4, 67010, Control_c, 2, 7, 41
4, 67020, Note_on_c, 2, 38, 0
4, 67020, Note_on_c, 2, 38, 100
4, 67033, Control_c, 2, 7, 40
4, 67056, Control_c, 2, 7, 39
4, 67080, Note_on_c, 2, 38, 0
4, 67080, Control_c, 2, 7, 38
4, 67080, Note_on_c, 2, 45, 100
4, 67103, Control_c, 2, 7, 37
4, 67126, Control_c, 2, 7, 36
4, 67140, Note_on_c, 2, 45, 100
4, 67150, Control_c, 2, 7, 35
4, 67173, Control_c, 2, 7, 34
4, 67196, Control_c, 2, 7, 33
4, 67200, Note_on_c, 2, 45, 0
4, 67200, Note_on_c, 2, 45, 0
4, 67200, Note_on_c, 2, 33, 100
4, 67220, Control_c, 2, 7, 32
4, 67243, Control_c, 2, 7, 31
4, 67266, Control_c, 2, 7, 30
4, 67290, Control_c, 2, 7, 29
4, 67313, Control_c, 2, 7, 28
4, 67320, Note_on_c, 2, 33, 0
4, 67320, Note_on_c, 2, 40, 100
4, 67336, Control_c, 2, 7, 27
4, 67360, Control_c, 2, 7, 26
4, 67383, Control_c, 2, 7, 25
4, 67406, Control_c, 2, 7, 24
4, 67430, Control_c, 2, 7, 23
4, 67440, Note_on_c, 2, 40, 0
4, 67440, Note_on_c, 2, 33, 100
4, 67453, Control_c, 2, 7, 22
4, 67476, Control_c, 2, 7, 21
4, 67500, Note_on_c, 2, 33, 0
4, 67500, Control_c, 2, 7, 20
4, 67500, Note_on_c, 2, 33, 100
4, 67523, Control_c, 2, 7, 19
4, 67546, Control_c, 2, 7, 18
4, 67560, Note_on_c, 2, 33, 0
4, 67560, Note_on_c, 2, 40, 100
4, 67570, Control_c, 2, 7, 17
4, 67593, Control_c, 2, 7, 16
4, 67616, Control_c, 2, 7, 15
4, 67640, Control_c, 2, 7, 14
4, 67663, Control_c, 2, 7, 13
4, 67680, Note_on_c, 2, 40, 0
4, 67680, Note_on_c, 2, 31, 100
4, 67686, Control_c, 2, 7, 12
4, 67710, Control_c, 2, 7, 11
4, 67733, Control_c, 2, 7, 10
4, 67740, Note_on_c, 2, 31, 100
4, 67756, Control_c, 2, 7, 9
4, 67780, Control_c, 2, 7, 8
4, 67800, Note_on_c, 2, 31, 0
4, 67800, Note_on_c, 2, 31, 0
4, 67800, Note_on_c, 2, 35, 100
4, 67803, Control_c, 2, 7, 7
4, 67826, Control_c, 2, 7, 6
4, 67850, Control_c, 2, 7, 5
4, 67860, Note_on_c, 2, 35, 0
4, 67860, Note_on_c, 2, 38, 100
4, 67873, Control_c, 2, 7, 4
4, 67896, Control_c, 2, 7, 3
4, 67920, Note_on_c, 2, 38, 0
4, 67920, Control_c, 2, 7, 2
4, 67920, Note_on_c, 2, 38, 100
4, 67943, Control_c, 2, 7, 1
4, 67966, Control_c, 2, 7, 0
4, 67980, Note_on_c, 2, 38, 0
4, 67980, Note_on_c, 2, 38, 100
4, 68040, Note_on_c, 2, 38, 0
4, 68040, Note_on_c, 2, 45, 100
4, 68100, Note_on_c, 2, 45, 100
4, 68160, Note_on_c, 2, 45, 0
4, 68160, Note_on_c, 2, 45, 0
4, 68160, Note_on_c, 2, 29, 100
4, 68340, Note_on_c, 2, 29, 100
4, 68400, Note_on_c, 2, 29, 0
4, 68400, Note_on_c, 2, 29, 100
4, 68460, Note_on_c, 2, 29, 0
4, 68460, Note_on_c, 2, 29, 100
4, 68520, Note_on_c, 2, 29, 0
4, 68520, Note_on_c, 2, 29, 100
4, 68580, Note_on_c, 2, 29, 0
4, 68580, Note_on_c, 2, 31, 100
4, 68640, Note_on_c, 2, 29, 0
4, 68940, Note_on_c, 2, 31, 0
4, 68940, End_track
5, 0, Start_track
5, 0, MIDI_port, 0
5, 0, Title_t, "Lead guitar"
5, 0, Control_c, 3, 0, 0
5, 0, Control_c, 3, 32, 0
5, 0, Program_c, 3, 29
5, 0, Control_c, 3, 7, 127
5, 42240, Note_on_c, 3, 57, 127
5, 42360, Note_on_c, 3, 57, 0
5, 42360, Note_on_c, 3, 69, 127
5, 42480, Note_on_c, 3, 69, 0
5, 42480, Note_on_c, 3, 69, 127
5, 42540, Note_on_c, 3, 69, 0
5, 42540, Note_on_c, 3, 78, 127
5, 42600, Note_on_c, 3, 79, 127
5, 42660, Note_on_c, 3, 79, 0
5, 42660, Note_on_c, 3, 78, 0
5, 42660, Note_on_c, 3, 78, 127
5, 42720, Note_on_c, 3, 78, 0
5, 42720, Note_on_c, 3, 74, 127
5, 42840, Note_on_c, 3, 74, 0
5, 42840, Note_on_c, 3, 71, 127
5, 42900, Note_on_c, 3, 71, 0
5, 42900, Note_on_c, 3, 67, 127
5, 42960, Note_on_c, 3, 67, 0
5, 42960, Note_on_c, 3, 74, 127
5, 42960, Note_on_c, 3, 69, 127
5, 42960, Note_on_c, 3, 62, 127
5, 43080, Note_on_c, 3, 62, 0
5, 43080, Note_on_c, 3, 69, 0
5, 43080, Note_on_c, 3, 74, 0
5, 43080, Note_on_c, 3, 69, 127
5, 43110, Note_on_c, 3, 72, 127
5, 43140, Note_on_c, 3, 72, 0
5, 43140, Note_on_c, 3, 69, 0
5, 43140, Note_on_c, 3, 69, 127
5, 43170, Note_on_c, 3, 69, 0
5, 43170, Note_on_c, 3, 67, 127
5, 43200, Note_on_c, 3, 67, 0
5, 43200, Note_on_c, 3, 57, 127
5, 43320, Note_on_c, 3, 57, 0
5, 43320, Note_on_c, 3, 69, 127
5, 43440, Note_on_c, 3, 69, 0
5, 43440, Note_on_c, 3, 69, 127
5, 43500, Note_on_c, 3, 69, 0
5, 43500, Note_on_c, 3, 78, 127
5, 43560, Note_on_c, 3, 79, 127
5, 43620, Note_on_c, 3, 79, 0
5, 43620, Note_on_c, 3, 78, 0
5, 43620, Note_on_c, 3, 78, 127
5, 43680, Note_on_c, 3, 78, 0
5, 43680, Note_on_c, 3, 74, 127
5, 43800, Note_on_c, 3, 74, 0
5, 43800, Note_on_c, 3, 71, 127
5, 43860, Note_on_c, 3, 71, 0
5, 43860, Note_on_c, 3, 67, 127
5, 43920, Note_on_c, 3, 67, 0
5, 43920, Note_on_c, 3, 74, 127
5, 43920, Note_on_c, 3, 69, 127
5, 43920, Note_on_c, 3, 62, 127
5, 44040, Note_on_c, 3, 62, 0
5, 44040, Note_on_c, 3, 69, 0
5, 44040, Note_on_c, 3, 74, 0
5, 44040, Note_on_c, 3, 69, 127
5, 44070, Note_on_c, 3, 72, 127
5, 44100, Note_on_c, 3, 72, 0
5, 44100, Note_on_c, 3, 69, 0
5, 44100, Note_on_c, 3, 69, 127
5, 44130, Note_on_c, 3, 69, 0
5, 44130, Note_on_c, 3, 67, 127
5, 44160, Note_on_c, 3, 67, 0
5, 44160, Note_on_c, 3, 57, 127
5, 44280, Note_on_c, 3, 57, 0
5, 44280, Note_on_c, 3, 69, 127
5, 44400, Note_on_c, 3, 69, 0
5, 44400, Note_on_c, 3, 69, 127
5, 44460, Note_on_c, 3, 69, 0
5, 44460, Note_on_c, 3, 78, 127
5, 44520, Note_on_c, 3, 79, 127
5, 44580, Note_on_c, 3, 79, 0
5, 44580, Note_on_c, 3, 78, 0
5, 44580, Note_on_c, 3, 78, 127
5, 44640, Note_on_c, 3, 78, 0
5, 44640, Note_on_c, 3, 74, 127
5, 44760, Note_on_c, 3, 74, 0
5, 44760, Note_on_c, 3, 71, 127
5, 44820, Note_on_c, 3, 71, 0
5, 44820, Note_on_c, 3, 67, 127
5, 44880, Note_on_c, 3, 67, 0
5, 44880, Note_on_c, 3, 74, 127
5, 44880, Note_on_c, 3, 69, 127
5, 44880, Note_on_c, 3, 62, 127
5, 45000, Note_on_c, 3, 62, 0
5, 45000, Note_on_c, 3, 69, 0
5, 45000, Note_on_c, 3, 74, 0
5, 45000, Note_on_c, 3, 69, 127
5, 45030, Note_on_c, 3, 72, 127
5, 45060, Note_on_c, 3, 72, 0
5, 45060, Note_on_c, 3, 69, 0
5, 45060, Note_on_c, 3, 69, 127
5, 45090, Note_on_c, 3, 69, 0
5, 45090, Note_on_c, 3, 67, 127
5, 45120, Note_on_c, 3, 67, 0
5, 45120, Note_on_c, 3, 69, 127
5, 45120, Note_on_c, 3, 65, 127
5, 45120, Note_on_c, 3, 60, 127
5, 45120, Note_on_c, 3, 53, 127
5, 45420, Note_on_c, 3, 53, 0
5, 45420, Note_on_c, 3, 69, 0
5, 45420, Note_on_c, 3, 65, 0
5, 45420, Note_on_c, 3, 60, 0
5, 45420, Note_on_c, 3, 71, 127
5, 45420, Note_on_c, 3, 67, 127
5, 45420, Note_on_c, 3, 62, 127
5, 45480, Note_on_c, 3, 62, 0
5, 45480, Note_on_c, 3, 67, 0
5, 45480, Note_on_c, 3, 71, 0
5, 45480, Note_on_c, 3, 72, 127
5, 45480, Note_on_c, 3, 69, 127
5, 45480, Note_on_c, 3, 65, 127
5, 45540, Note_on_c, 3, 65, 0
5, 45540, Note_on_c, 3, 69, 0
5, 45540, Note_on_c, 3, 72, 0
5, 45540, Note_on_c, 3, 74, 127
5, 45540, Note_on_c, 3, 71, 127
5, 45540, Note_on_c, 3, 67, 127
5, 45960, Note_on_c, 3, 67, 0
5, 45960, Note_on_c, 3, 71, 0
5, 45960, Note_on_c, 3, 74, 0
5, 46080, Note_on_c, 3, 57, 127
5, 46200, Note_on_c, 3, 57, 0
5, 46200, Note_on_c, 3, 69, 127
5, 46320, Note_on_c, 3, 69, 0
5, 46320, Note_on_c, 3, 69, 127
5, 46380, Note_on_c, 3, 69, 0
5, 46380, Note_on_c, 3, 78, 127
5, 46440, Note_on_c, 3, 79, 127
5, 46500, Note_on_c, 3, 79, 0
5, 46500, Note_on_c, 3, 78, 0
5, 46500, Note_on_c, 3, 78, 127
5, 46560, Note_on_c, 3, 78, 0
5, 46560, Note_on_c, 3, 74, 127
5, 46680, Note_on_c, 3, 74, 0
5, 46680, Note_on_c, 3, 71, 127
5, 46740, Note_on_c, 3, 71, 0
5, 46740, Note_on_c, 3, 67, 127
5, 46800, Note_on_c, 3, 67, 0
5, 46800, Note_on_c, 3, 74, 127
5, 46800, Note_on_c, 3, 69, 127
5, 46800, Note_on_c, 3, 62, 127
5, 46920, Note_on_c, 3, 62, 0
5, 46920, Note_on_c, 3, 69, 0
5, 46920, Note_on_c, 3, 74, 0
5, 46920, Note_on_c, 3, 69, 127
5, 46950, Note_on_c, 3, 72, 127
5, 46980, Note_on_c, 3, 72, 0
5, 46980, Note_on_c, 3, 69, 0
5, 46980, Note_on_c, 3, 69, 127
5, 47010, Note_on_c, 3, 69, 0
5, 47010, Note_on_c, 3, 67, 127
5, 47040, Note_on_c, 3, 67, 0
5, 47040, Note_on_c, 3, 57, 127
5, 47160, Note_on_c, 3, 57, 0
5, 47160, Note_on_c, 3, 69, 127
5, 47280, Note_on_c, 3, 69, 0
5, 47280, Note_on_c, 3, 69, 127
5, 47340, Note_on_c, 3, 69, 0
5, 47340, Note_on_c, 3, 78, 127
5, 47400, Note_on_c, 3, 79, 127
5, 47460, Note_on_c, 3, 79, 0
5, 47460, Note_on_c, 3, 78, 0
5, 47460, Note_on_c, 3, 78, 127
5, 47520, Note_on_c, 3, 78, 0
5, 47520, Note_on_c, 3, 74, 127
5, 47640, Note_on_c, 3, 74, 0
5, 47640, Note_on_c, 3, 71, 127
5, 47700, Note_on_c, 3, 71, 0
5, 47700, Note_on_c, 3, 67, 127
5, 47760, Note_on_c, 3, 67, 0
5, 47760, Note_on_c, 3, 74, 127
5, 47760, Note_on_c, 3, 69, 127
5, 47760, Note_on_c, 3, 62, 127
5, 47880, Note_on_c, 3, 62, 0
5, 47880, Note_on_c, 3, 69, 0
5, 47880, Note_on_c, 3, 74, 0
5, 47880, Note_on_c, 3, 69, 127
5, 47910, Note_on_c, 3, 72, 127
5, 47940, Note_on_c, 3, 72, 0
5, 47940, Note_on_c, 3, 69, 0
5, 47940, Note_on_c, 3, 69, 127
5, 47970, Note_on_c, 3, 69, 0
5, 47970, Note_on_c, 3, 67, 127
5, 48000, Note_on_c, 3, 67, 0
5, 48000, Note_on_c, 3, 57, 127
5, 48120, Note_on_c, 3, 57, 0
5, 48120, Note_on_c, 3, 69, 127
5, 48240, Note_on_c, 3, 69, 0
5, 48240, Note_on_c, 3, 69, 127
5, 48300, Note_on_c, 3, 69, 0
5, 48300, Note_on_c, 3, 78, 127
5, 48360, Note_on_c, 3, 79, 127
5, 48420, Note_on_c, 3, 79, 0
5, 48420, Note_on_c, 3, 78, 0
5, 48420, Note_on_c, 3, 78, 127
5, 48480, Note_on_c, 3, 78, 0
5, 48480, Note_on_c, 3, 74, 127
5, 48600, Note_on_c, 3, 74, 0
5, 48600, Note_on_c, 3, 71, 127
5, 48660, Note_on_c, 3, 71, 0
5, 48660, Note_on_c, 3, 67, 127
5, 48720, Note_on_c, 3, 67, 0
5, 48720, Note_on_c, 3, 74, 127
5, 48720, Note_on_c, 3, 69, 127
5, 48720, Note_on_c, 3, 62, 127
5, 48840, Note_on_c, 3, 62, 0
5, 48840, Note_on_c, 3, 69, 0
5, 48840, Note_on_c, 3, 74, 0
5, 48840, Note_on_c, 3, 69, 127
5, 48870, Note_on_c, 3, 72, 127
5, 48900, Note_on_c, 3, 72, 0
5, 48900, Note_on_c, 3, 69, 0
5, 48900, Note_on_c, 3, 69, 127
5, 48930, Note_on_c, 3, 69, 0
5, 48930, Note_on_c, 3, 67, 127
5, 48960, Note_on_c, 3, 67, 0
5, 48960, Note_on_c, 3, 69, 127
5, 48960, Note_on_c, 3, 65, 127
5, 48960, Note_on_c, 3, 60, 127
5, 48960, Note_on_c, 3, 53, 127
5, 49260, Note_on_c, 3, 53, 0
5, 49260, Note_on_c, 3, 69, 0
5, 49260, Note_on_c, 3, 65, 0
5, 49260, Note_on_c, 3, 60, 0
5, 49260, Note_on_c, 3, 71, 127
5, 49260, Note_on_c, 3, 67, 127
5, 49260, Note_on_c, 3, 62, 127
5, 49320, Note_on_c, 3, 62, 0
5, 49320, Note_on_c, 3, 67, 0
5, 49320, Note_on_c, 3, 71, 0
5, 49320, Note_on_c, 3, 72, 127
5, 49320, Note_on_c, 3, 69, 127
5, 49320, Note_on_c, 3, 65, 127
5, 49380, Note_on_c, 3, 65, 0
5, 49380, Note_on_c, 3, 69, 0
5, 49380, Note_on_c, 3, 72, 0
5, 49380, Note_on_c, 3, 74, 127
5, 49380, Note_on_c, 3, 71, 127
5, 49380, Note_on_c, 3, 67, 127
5, 49800, Note_on_c, 3, 67, 0
5, 49800, Note_on_c, 3, 71, 0
5, 49800, Note_on_c, 3, 74, 0
5, 49920, Note_on_c, 3, 57, 127
5, 50040, Note_on_c, 3, 57, 0
5, 50040, Note_on_c, 3, 69, 127
5, 50160, Note_on_c, 3, 69, 0
5, 50160, Note_on_c, 3, 69, 127
5, 50220, Note_on_c, 3, 69, 0
5, 50220, Note_on_c, 3, 78, 127
5, 50280, Note_on_c, 3, 79, 127
5, 50340, Note_on_c, 3, 79, 0
5, 50340, Note_on_c, 3, 78, 0
5, 50340, Note_on_c, 3, 78, 127
5, 50400, Note_on_c, 3, 78, 0
5, 50400, Note_on_c, 3, 74, 127
5, 50520, Note_on_c, 3, 74, 0
5, 50520, Note_on_c, 3, 71, 127
5, 50580, Note_on_c, 3, 71, 0
5, 50580, Note_on_c, 3, 67, 127
5, 50640, Note_on_c, 3, 67, 0
5, 50640, Note_on_c, 3, 74, 127
5, 50640, Note_on_c, 3, 69, 127
5, 50640, Note_on_c, 3, 62, 127
5, 50760, Note_on_c, 3, 62, 0
5, 50760, Note_on_c, 3, 69, 0
5, 50760, Note_on_c, 3, 74, 0
5, 50760, Note_on_c, 3, 69, 127
5, 50790, Note_on_c, 3, 72, 127
5, 50820, Note_on_c, 3, 72, 0
5, 50820, Note_on_c, 3, 69, 0
5, 50820, Note_on_c, 3, 69, 127
5, 50850, Note_on_c, 3, 69, 0
5, 50850, Note_on_c, 3, 67, 127
5, 50880, Note_on_c, 3, 67, 0
5, 50880, Note_on_c, 3, 57, 127
5, 51000, Note_on_c, 3, 57, 0
5, 51000, Note_on_c, 3, 69, 127
5, 51120, Note_on_c, 3, 69, 0
5, 51120, Note_on_c, 3, 69, 127
5, 51180, Note_on_c, 3, 69, 0
5, 51180, Note_on_c, 3, 78, 127
5, 51240, Note_on_c, 3, 79, 127
5, 51300, Note_on_c, 3, 79, 0
5, 51300, Note_on_c, 3, 78, 0
5, 51300, Note_on_c, 3, 78, 127
5, 51360, Note_on_c, 3, 78, 0
5, 51360, Note_on_c, 3, 74, 127
5, 51480, Note_on_c, 3, 74, 0
5, 51480, Note_on_c, 3, 71, 127
5, 51540, Note_on_c, 3, 71, 0
5, 51540, Note_on_c, 3, 67, 127
5, 51600, Note_on_c, 3, 67, 0
5, 51600, Note_on_c, 3, 74, 127
5, 51600, Note_on_c, 3, 69, 127
5, 51600, Note_on_c, 3, 62, 127
5, 51720, Note_on_c, 3, 62, 0
5, 51720, Note_on_c, 3, 69, 0
5, 51720, Note_on_c, 3, 74, 0
5, 51720, Note_on_c, 3, 69, 127
5, 51750, Note_on_c, 3, 72, 127
5, 51780, Note_on_c, 3, 72, 0
5, 51780, Note_on_c, 3, 69, 0
5, 51780, Note_on_c, 3, 69, 127
5, 51810, Note_on_c, 3, 69, 0
5, 51810, Note_on_c, 3, 67, 127
5, 51840, Note_on_c, 3, 67, 0
5, 51840, Note_on_c, 3, 57, 127
5, 51960, Note_on_c, 3, 57, 0
5, 51960, Note_on_c, 3, 69, 127
5, 52080, Note_on_c, 3, 69, 0
5, 52080, Note_on_c, 3, 69, 127
5, 52140, Note_on_c, 3, 69, 0
5, 52140, Note_on_c, 3, 78, 127
5, 52200, Note_on_c, 3, 79, 127
5, 52260, Note_on_c, 3, 79, 0
5, 52260, Note_on_c, 3, 78, 0
5, 52260, Note_on_c, 3, 78, 127
5, 52320, Note_on_c, 3, 78, 0
5, 52320, Note_on_c, 3, 74, 127
5, 52440, Note_on_c, 3, 74, 0
5, 52440, Note_on_c, 3, 71, 127
5, 52500, Note_on_c, 3, 71, 0
5, 52500, Note_on_c, 3, 67, 127
5, 52560, Note_on_c, 3, 67, 0
5, 52560, Note_on_c, 3, 74, 127
5, 52560, Note_on_c, 3, 69, 127
5, 52560, Note_on_c, 3, 62, 127
5, 52680, Note_on_c, 3, 62, 0
5, 52680, Note_on_c, 3, 69, 0
5, 52680, Note_on_c, 3, 74, 0
5, 52680, Note_on_c, 3, 69, 127
5, 52710, Note_on_c, 3, 72, 127
5, 52740, Note_on_c, 3, 72, 0
5, 52740, Note_on_c, 3, 69, 0
5, 52740, Note_on_c, 3, 69, 127
5, 52770, Note_on_c, 3, 69, 0
5, 52770, Note_on_c, 3, 67, 127
5, 52800, Note_on_c, 3, 67, 0
5, 52800, Note_on_c, 3, 69, 127
5, 52800, Note_on_c, 3, 65, 127
5, 52800, Note_on_c, 3, 60, 127
5, 52800, Note_on_c, 3, 53, 127
5, 53100, Note_on_c, 3, 53, 0
5, 53100, Note_on_c, 3, 69, 0
5, 53100, Note_on_c, 3, 65, 0
5, 53100, Note_on_c, 3, 60, 0
5, 53100, Note_on_c, 3, 71, 127
5, 53100, Note_on_c, 3, 67, 127
5, 53100, Note_on_c, 3, 62, 127
5, 53160, Note_on_c, 3, 62, 0
5, 53160, Note_on_c, 3, 67, 0
5, 53160, Note_on_c, 3, 71, 0
5, 53160, Note_on_c, 3, 72, 127
5, 53160, Note_on_c, 3, 69, 127
5, 53160, Note_on_c, 3, 65, 127
5, 53220, Note_on_c, 3, 65, 0
5, 53220, Note_on_c, 3, 69, 0
5, 53220, Note_on_c, 3, 72, 0
5, 53220, Note_on_c, 3, 74, 127
5, 53220, Note_on_c, 3, 71, 127
5, 53220, Note_on_c, 3, 67, 127
5, 53640, Note_on_c, 3, 67, 0
5, 53640, Note_on_c, 3, 71, 0
5, 53640, Note_on_c, 3, 74, 0
5, 53760, Note_on_c, 3, 57, 127
5, 53880, Note_on_c, 3, 57, 0
5, 53880, Note_on_c, 3, 69, 127
5, 54000, Note_on_c, 3, 69, 0
5, 54000, Note_on_c, 3, 69, 127
5, 54060, Note_on_c, 3, 69, 0
5, 54060, Note_on_c, 3, 78, 127
5, 54120, Note_on_c, 3, 79, 127
5, 54180, Note_on_c, 3, 79, 0
5, 54180, Note_on_c, 3, 78, 0
5, 54180, Note_on_c, 3, 78, 127
5, 54240, Note_on_c, 3, 78, 0
5, 54240, Note_on_c, 3, 74, 127
5, 54360, Note_on_c, 3, 74, 0
5, 54360, Note_on_c, 3, 71, 127
5, 54420, Note_on_c, 3, 71, 0
5, 54420, Note_on_c, 3, 67, 127
5, 54480, Note_on_c, 3, 67, 0
5, 54480, Note_on_c, 3, 74, 127
5, 54480, Note_on_c, 3, 69, 127
5, 54480, Note_on_c, 3, 62, 127
5, 54600, Note_on_c, 3, 62, 0
5, 54600, Note_on_c, 3, 69, 0
5, 54600, Note_on_c, 3, 74, 0
5, 54600, Note_on_c, 3, 69, 127
5, 54630, Note_on_c, 3, 72, 127
5, 54660, Note_on_c, 3, 72, 0
5, 54660, Note_on_c, 3, 69, 0
5, 54660, Note_on_c, 3, 69, 127
5, 54690, Note_on_c, 3, 69, 0
5, 54690, Note_on_c, 3, 67, 127
5, 54720, Note_on_c, 3, 67, 0
5, 54720, Note_on_c, 3, 57, 127
5, 54840, Note_on_c, 3, 57, 0
5, 54840, Note_on_c, 3, 69, 127
5, 54960, Note_on_c, 3, 69, 0
5, 54960, Note_on_c, 3, 69, 127
5, 55020, Note_on_c, 3, 69, 0
5, 55020, Note_on_c, 3, 78, 127
5, 55080, Note_on_c, 3, 79, 127
5, 55140, Note_on_c, 3, 79, 0
5, 55140, Note_on_c, 3, 78, 0
5, 55140, Note_on_c, 3, 78, 127
5, 55200, Note_on_c, 3, 78, 0
5, 55200, Note_on_c, 3, 74, 127
5, 55320, Note_on_c, 3, 74, 0
5, 55320, Note_on_c, 3, 71, 127
5, 55380, Note_on_c, 3, 71, 0
5, 55380, Note_on_c, 3, 67, 127
5, 55440, Note_on_c, 3, 67, 0
5, 55440, Note_on_c, 3, 74, 127
5, 55440, Note_on_c, 3, 69, 127
5, 55440, Note_on_c, 3, 62, 127
5, 55560, Note_on_c, 3, 62, 0
5, 55560, Note_on_c, 3, 69, 0
5, 55560, Note_on_c, 3, 74, 0
5, 55560, Note_on_c, 3, 69, 127
5, 55590, Note_on_c, 3, 72, 127
5, 55620, Note_on_c, 3, 72, 0
5, 55620, Note_on_c, 3, 69, 0
5, 55620, Note_on_c, 3, 69, 127
5, 55650, Note_on_c, 3, 69, 0
5, 55650, Note_on_c, 3, 67, 127
5, 55680, Note_on_c, 3, 67, 0
5, 55680, Note_on_c, 3, 57, 127
5, 55800, Note_on_c, 3, 57, 0
5, 55800, Note_on_c, 3, 69, 127
5, 55920, Note_on_c, 3, 69, 0
5, 55920, Note_on_c, 3, 69, 127
5, 55980, Note_on_c, 3, 69, 0
5, 55980, Note_on_c, 3, 78, 127
5, 56040, Note_on_c, 3, 79, 127
5, 56100, Note_on_c, 3, 79, 0
5, 56100, Note_on_c, 3, 78, 0
5, 56100, Note_on_c, 3, 78, 127
5, 56160, Note_on_c, 3, 78, 0
5, 56160, Note_on_c, 3, 74, 127
5, 56280, Note_on_c, 3, 74, 0
5, 56280, Note_on_c, 3, 71, 127
5, 56340, Note_on_c, 3, 71, 0
5, 56340, Note_on_c, 3, 67, 127
5, 56400, Note_on_c, 3, 67, 0
5, 56400, Note_on_c, 3, 74, 127
5, 56400, Note_on_c, 3, 69, 127
5, 56400, Note_on_c, 3, 62, 127
5, 56520, Note_on_c, 3, 62, 0
5, 56520, Note_on_c, 3, 69, 0
5, 56520, Note_on_c, 3, 74, 0
5, 56520, Note_on_c, 3, 69, 127
5, 56550, Note_on_c, 3, 72, 127
5, 56580, Note_on_c, 3, 72, 0
5, 56580, Note_on_c, 3, 69, 0
5, 56580, Note_on_c, 3, 69, 127
5, 56610, Note_on_c, 3, 69, 0
5, 56610, Note_on_c, 3, 67, 127
5, 56640, Note_on_c, 3, 67, 0
5, 56640, Note_on_c, 3, 69, 127
5, 56640, Note_on_c, 3, 65, 127
5, 56640, Note_on_c, 3, 60, 127
5, 56640, Note_on_c, 3, 53, 127
5, 56940, Note_on_c, 3, 53, 0
5, 56940, Note_on_c, 3, 69, 0
5, 56940, Note_on_c, 3, 65, 0
5, 56940, Note_on_c, 3, 60, 0
5, 56940, Note_on_c, 3, 71, 127
5, 56940, Note_on_c, 3, 67, 127
5, 56940, Note_on_c, 3, 62, 127
5, 57000, Note_on_c, 3, 62, 0
5, 57000, Note_on_c, 3, 67, 0
5, 57000, Note_on_c, 3, 71, 0
5, 57000, Note_on_c, 3, 72, 127
5, 57000, Note_on_c, 3, 69, 127
5, 57000, Note_on_c, 3, 65, 127
5, 57060, Note_on_c, 3, 65, 0
5, 57060, Note_on_c, 3, 69, 0
5, 57060, Note_on_c, 3, 72, 0
5, 57060, Note_on_c, 3, 74, 127
5, 57060, Note_on_c, 3, 71, 127
5, 57060, Note_on_c, 3, 67, 127
5, 57480, Note_on_c, 3, 67, 0
5, 57480, Note_on_c, 3, 71, 0
5, 57480, Note_on_c, 3, 74, 0
5, 57600, Note_on_c, 3, 57, 127
5, 57720, Note_on_c, 3, 57, 0
5, 57720, Note_on_c, 3, 69, 127
5, 57840, Note_on_c, 3, 69, 0
5, 57840, Note_on_c, 3, 69, 127
5, 57900, Note_on_c, 3, 69, 0
5, 57900, Note_on_c, 3, 78, 127
5, 57960, Note_on_c, 3, 79, 127
5, 58020, Note_on_c, 3, 79, 0
5, 58020, Note_on_c, 3, 78, 0
5, 58020, Note_on_c, 3, 78, 127
5, 58080, Note_on_c, 3, 78, 0
5, 58080, Note_on_c, 3, 74, 127
5, 58200, Note_on_c, 3, 74, 0
5, 58200, Note_on_c, 3, 71, 127
5, 58260, Note_on_c, 3, 71, 0
5, 58260, Note_on_c, 3, 67, 127
5, 58320, Note_on_c, 3, 67, 0
5, 58320, Note_on_c, 3, 74, 127
5, 58320, Note_on_c, 3, 69, 127
5, 58320, Note_on_c, 3, 62, 127
5, 58440, Note_on_c, 3, 62, 0
5, 58440, Note_on_c, 3, 69, 0
5, 58440, Note_on_c, 3, 74, 0
5, 58440, Note_on_c, 3, 69, 127
5, 58470, Note_on_c, 3, 72, 127
5, 58500, Note_on_c, 3, 72, 0
5, 58500, Note_on_c, 3, 69, 0
5, 58500, Note_on_c, 3, 69, 127
5, 58530, Note_on_c, 3, 69, 0
5, 58530, Note_on_c, 3, 67, 127
5, 58560, Note_on_c, 3, 67, 0
5, 58560, Note_on_c, 3, 57, 127
5, 58680, Note_on_c, 3, 57, 0
5, 58680, Note_on_c, 3, 69, 127
5, 58800, Note_on_c, 3, 69, 0
5, 58800, Note_on_c, 3, 69, 127
5, 58860, Note_on_c, 3, 69, 0
5, 58860, Note_on_c, 3, 78, 127
5, 58920, Note_on_c, 3, 79, 127
5, 58980, Note_on_c, 3, 79, 0
5, 58980, Note_on_c, 3, 78, 0
5, 58980, Note_on_c, 3, 78, 127
5, 59040, Note_on_c, 3, 78, 0
5, 59040, Note_on_c, 3, 74, 127
5, 59160, Note_on_c, 3, 74, 0
5, 59160, Note_on_c, 3, 71, 127
5, 59220, Note_on_c, 3, 71, 0
5, 59220, Note_on_c, 3, 67, 127
5, 59280, Note_on_c, 3, 67, 0
5, 59280, Note_on_c, 3, 74, 127
5, 59280, Note_on_c, 3, 69, 127
5, 59280, Note_on_c, 3, 62, 127
5, 59400, Note_on_c, 3, 62, 0
5, 59400, Note_on_c, 3, 69, 0
5, 59400, Note_on_c, 3, 74, 0
5, 59400, Note_on_c, 3, 69, 127
5, 59430, Note_on_c, 3, 72, 127
5, 59460, Note_on_c, 3, 72, 0
5, 59460, Note_on_c, 3, 69, 0
5, 59460, Note_on_c, 3, 69, 127
5, 59490, Note_on_c, 3, 69, 0
5, 59490, Note_on_c, 3, 67, 127
5, 59520, Note_on_c, 3, 67, 0
5, 59520, Note_on_c, 3, 57, 127
5, 59640, Note_on_c, 3, 57, 0
5, 59640, Note_on_c, 3, 69, 127
5, 59760, Note_on_c, 3, 69, 0
5, 59760, Note_on_c, 3, 69, 127
5, 59820, Note_on_c, 3, 69, 0
5, 59820, Note_on_c, 3, 78, 127
5, 59880, Note_on_c, 3, 79, 127
5, 59940, Note_on_c, 3, 79, 0
5, 59940, Note_on_c, 3, 78, 0
5, 59940, Note_on_c, 3, 78, 127
5, 60000, Note_on_c, 3, 78, 0
5, 60000, Note_on_c, 3, 74, 127
5, 60120, Note_on_c, 3, 74, 0
5, 60120, Note_on_c, 3, 71, 127
5, 60180, Note_on_c, 3, 71, 0
5, 60180, Note_on_c, 3, 67, 127
5, 60240, Note_on_c, 3, 67, 0
5, 60240, Note_on_c, 3, 74, 127
5, 60240, Note_on_c, 3, 69, 127
5, 60240, Note_on_c, 3, 62, 127
5, 60360, Note_on_c, 3, 62, 0
5, 60360, Note_on_c, 3, 69, 0
5, 60360, Note_on_c, 3, 74, 0
5, 60360, Note_on_c, 3, 69, 127
5, 60390, Note_on_c, 3, 72, 127
5, 60420, Note_on_c, 3, 72, 0
5, 60420, Note_on_c, 3, 69, 0
5, 60420, Note_on_c, 3, 69, 127
5, 60450, Note_on_c, 3, 69, 0
5, 60450, Note_on_c, 3, 67, 127
5, 60480, Note_on_c, 3, 67, 0
5, 60480, Note_on_c, 3, 69, 127
5, 60480, Note_on_c, 3, 65, 127
5, 60480, Note_on_c, 3, 60, 127
5, 60480, Note_on_c, 3, 53, 127
5, 60780, Note_on_c, 3, 53, 0
5, 60780, Note_on_c, 3, 69, 0
5, 60780, Note_on_c, 3, 65, 0
5, 60780, Note_on_c, 3, 60, 0
5, 60780, Note_on_c, 3, 71, 127
5, 60780, Note_on_c, 3, 67, 127
5, 60780, Note_on_c, 3, 62, 127
5, 60840, Note_on_c, 3, 62, 0
5, 60840, Note_on_c, 3, 67, 0
5, 60840, Note_on_c, 3, 71, 0
5, 60840, Note_on_c, 3, 72, 127
5, 60840, Note_on_c, 3, 69, 127
5, 60840, Note_on_c, 3, 65, 127
5, 60900, Note_on_c, 3, 65, 0
5, 60900, Note_on_c, 3, 69, 0
5, 60900, Note_on_c, 3, 72, 0
5, 60900, Note_on_c, 3, 74, 127
5, 60900, Note_on_c, 3, 71, 127
5, 60900, Note_on_c, 3, 67, 127
5, 61320, Note_on_c, 3, 67, 0
5, 61320, Note_on_c, 3, 71, 0
5, 61320, Note_on_c, 3, 74, 0
5, 61440, Note_on_c, 3, 57, 127
5, 61560, Note_on_c, 3, 57, 0
5, 61560, Note_on_c, 3, 69, 127
5, 61680, Note_on_c, 3, 69, 0
5, 61680, Note_on_c, 3, 69, 127
5, 61740, Note_on_c, 3, 69, 0
5, 61740, Note_on_c, 3, 78, 127
5, 61800, Note_on_c, 3, 79, 127
5, 61860, Note_on_c, 3, 79, 0
5, 61860, Note_on_c, 3, 78, 0
5, 61860, Note_on_c, 3, 78, 127
5, 61920, Note_on_c, 3, 78, 0
5, 61920, Note_on_c, 3, 74, 127
5, 62040, Note_on_c, 3, 74, 0
5, 62040, Note_on_c, 3, 71, 127
5, 62100, Note_on_c, 3, 71, 0
5, 62100, Note_on_c, 3, 67, 127
5, 62160, Note_on_c, 3, 67, 0
5, 62160, Note_on_c, 3, 74, 127
5, 62160, Note_on_c, 3, 69, 127
5, 62160, Note_on_c, 3, 62, 127
5, 62280, Note_on_c, 3, 62, 0
5, 62280, Note_on_c, 3, 69, 0
5, 62280, Note_on_c, 3, 74, 0
5, 62280, Note_on_c, 3, 69, 127
5, 62310, Note_on_c, 3, 72, 127
5, 62340, Note_on_c, 3, 72, 0
5, 62340, Note_on_c, 3, 69, 0
5, 62340, Note_on_c, 3, 69, 127
5, 62370, Note_on_c, 3, 69, 0
5, 62370, Note_on_c, 3, 67, 127
5, 62400, Note_on_c, 3, 67, 0
5, 62400, Note_on_c, 3, 57, 127
5, 62520, Note_on_c, 3, 57, 0
5, 62520, Note_on_c, 3, 69, 127
5, 62640, Note_on_c, 3, 69, 0
5, 62640, Note_on_c, 3, 69, 127
5, 62700, Note_on_c, 3, 69, 0
5, 62700, Note_on_c, 3, 78, 127
5, 62760, Note_on_c, 3, 79, 127
5, 62820, Note_on_c, 3, 79, 0
5, 62820, Note_on_c, 3, 78, 0
5, 62820, Note_on_c, 3, 78, 127
5, 62880, Note_on_c, 3, 78, 0
5, 62880, Note_on_c, 3, 74, 127
5, 63000, Note_on_c, 3, 74, 0
5, 63000, Note_on_c, 3, 71, 127
5, 63060, Note_on_c, 3, 71, 0
5, 63060, Note_on_c, 3, 67, 127
5, 63120, Note_on_c, 3, 67, 0
5, 63120, Note_on_c, 3, 74, 127
5, 63120, Note_on_c, 3, 69, 127
5, 63120, Note_on_c, 3, 62, 127
5, 63240, Note_on_c, 3, 62, 0
5, 63240, Note_on_c, 3, 69, 0
5, 63240, Note_on_c, 3, 74, 0
5, 63240, Note_on_c, 3, 69, 127
5, 63270, Note_on_c, 3, 72, 127
5, 63300, Note_on_c, 3, 72, 0
5, 63300, Note_on_c, 3, 69, 0
5, 63300, Note_on_c, 3, 69, 127
5, 63330, Note_on_c, 3, 69, 0
5, 63330, Note_on_c, 3, 67, 127
5, 63360, Note_on_c, 3, 67, 0
5, 63360, Note_on_c, 3, 57, 127
5, 63480, Note_on_c, 3, 57, 0
5, 63480, Note_on_c, 3, 69, 127
5, 63600, Note_on_c, 3, 69, 0
5, 63600, Note_on_c, 3, 69, 127
5, 63660, Note_on_c, 3, 69, 0
5, 63660, Note_on_c, 3, 78, 127
5, 63720, Note_on_c, 3, 79, 127
5, 63780, Note_on_c, 3, 79, 0
5, 63780, Note_on_c, 3, 78, 0
5, 63780, Note_on_c, 3, 78, 127
5, 63840, Note_on_c, 3, 78, 0
5, 63840, Note_on_c, 3, 74, 127
5, 63960, Note_on_c, 3, 74, 0
5, 63960, Note_on_c, 3, 71, 127
5, 64020, Note_on_c, 3, 71, 0
5, 64020, Note_on_c, 3, 67, 127
5, 64080, Note_on_c, 3, 67, 0
5, 64080, Note_on_c, 3, 74, 127
5, 64080, Note_on_c, 3, 69, 127
5, 64080, Note_on_c, 3, 62, 127
5, 64200, Note_on_c, 3, 62, 0
5, 64200, Note_on_c, 3, 69, 0
5, 64200, Note_on_c, 3, 74, 0
5, 64200, Note_on_c, 3, 69, 127
5, 64230, Note_on_c, 3, 72, 127
5, 64260, Note_on_c, 3, 72, 0
5, 64260, Note_on_c, 3, 69, 0
5, 64260, Note_on_c, 3, 69, 127
5, 64290, Note_on_c, 3, 69, 0
5, 64290, Note_on_c, 3, 67, 127
5, 64320, Note_on_c, 3, 67, 0
5, 64320, Note_on_c, 3, 69, 127
5, 64320, Note_on_c, 3, 65, 127
5, 64320, Note_on_c, 3, 60, 127
5, 64320, Note_on_c, 3, 53, 127
5, 64620, Note_on_c, 3, 53, 0
5, 64620, Note_on_c, 3, 69, 0
5, 64620, Note_on_c, 3, 65, 0
5, 64620, Note_on_c, 3, 60, 0
5, 64620, Note_on_c, 3, 71, 127
5, 64620, Note_on_c, 3, 67, 127
5, 64620, Note_on_c, 3, 62, 127
5, 64680, Note_on_c, 3, 62, 0
5, 64680, Note_on_c, 3, 67, 0
5, 64680, Note_on_c, 3, 71, 0
5, 64680, Note_on_c, 3, 72, 127
5, 64680, Note_on_c, 3, 69, 127
5, 64680, Note_on_c, 3, 65, 127
5, 64740, Note_on_c, 3, 65, 0
5, 64740, Note_on_c, 3, 69, 0
5, 64740, Note_on_c, 3, 72, 0
5, 64740, Note_on_c, 3, 74, 127
5, 64740, Note_on_c, 3, 71, 127
5, 64740, Note_on_c, 3, 67, 127
5, 65160, Note_on_c, 3, 67, 0
5, 65160, Note_on_c, 3, 71, 0
5, 65160, Note_on_c, 3, 74, 0
5, 65160, End_track
6, 0, Start_track
6, 0, MIDI_port, 0
6, 0, Title_t, "Electric guitar"
6, 0, Control_c, 4, 0, 0
6, 0, Control_c, 4, 32, 0
6, 0, Program_c, 4, 30
6, 0, Control_c, 4, 7, 127
6, 653, Control_c, 4, 7, 111
6, 653, Control_c, 4, 10, 64
6, 960, Note_on_c, 4, 68, 127
6, 960, Note_on_c, 4, 61, 127
6, 1200, Note_on_c, 4, 61, 0
6, 1200, Note_on_c, 4, 68, 0
6, 1200, Note_on_c, 4, 59, 127
6, 1200, Note_on_c, 4, 66, 127
6, 1380, Note_on_c, 4, 66, 0
6, 1380, Note_on_c, 4, 59, 0
6, 1380, Note_on_c, 4, 64, 127
6, 1380, Note_on_c, 4, 57, 127
6, 1680, Note_on_c, 4, 57, 0
6, 1680, Note_on_c, 4, 64, 0
6, 1740, Note_on_c, 4, 71, 127
6, 1740, Note_on_c, 4, 75, 127
6, 1740, Note_on_c, 4, 78, 127
6, 1740, Note_on_c, 4, 83, 127
6, 1800, Note_on_c, 4, 83, 0
6, 1800, Note_on_c, 4, 71, 0
6, 1800, Note_on_c, 4, 75, 0
6, 1800, Note_on_c, 4, 78, 0
6, 1800, Note_on_c, 4, 83, 127
6, 1800, Note_on_c, 4, 78, 127
6, 1800, Note_on_c, 4, 75, 127
6, 1800, Note_on_c, 4, 71, 127
6, 1860, Note_on_c, 4, 71, 0
6, 1860, Note_on_c, 4, 83, 0
6, 1860, Note_on_c, 4, 78, 0
6, 1860, Note_on_c, 4, 75, 0
6, 1860, Note_on_c, 4, 83, 127
6, 1860, Note_on_c, 4, 78, 127
6, 1860, Note_on_c, 4, 75, 127
6, 1860, Note_on_c, 4, 71, 127
6, 1920, Note_on_c, 4, 71, 0
6, 1920, Note_on_c, 4, 83, 0
6, 1920, Note_on_c, 4, 78, 0
6, 1920, Note_on_c, 4, 75, 0
6, 1920, Note_on_c, 4, 71, 127
6, 1920, Note_on_c, 4, 68, 127
6, 1920, Note_on_c, 4, 63, 127
6, 1920, Note_on_c, 4, 56, 127
6, 2040, Note_on_c, 4, 56, 0
6, 2040, Note_on_c, 4, 71, 0
6, 2040, Note_on_c, 4, 68, 0
6, 2040, Note_on_c, 4, 63, 0
6, 2040, Note_on_c, 4, 75, 127
6, 2040, Note_on_c, 4, 80, 127
6, 2040, Note_on_c, 4, 71, 127
6, 2100, Note_on_c, 4, 71, 0
6, 2100, Note_on_c, 4, 80, 0
6, 2100, Note_on_c, 4, 75, 0
6, 2220, Note_on_c, 4, 75, 127
6, 2220, Note_on_c, 4, 71, 127
6, 2220, Note_on_c, 4, 80, 127
6, 2220, Note_on_c, 4, 68, 127
6, 2280, Note_on_c, 4, 68, 0
6, 2280, Note_on_c, 4, 75, 0
6, 2280, Note_on_c, 4, 71, 0
6, 2280, Note_on_c, 4, 80, 0
6, 2340, Note_on_c, 4, 67, 127
6, 2340, Note_on_c, 4, 62, 127
6, 2340, Note_on_c, 4, 71, 127
6, 2340, Note_on_c, 4, 55, 127
6, 2520, Note_on_c, 4, 79, 127
6, 2520, Note_on_c, 4, 74, 127
6, 2520, Note_on_c, 4, 71, 127
6, 2580, Note_on_c, 4, 74, 0
6, 2580, Note_on_c, 4, 71, 0
6, 2580, Note_on_c, 4, 79, 0
6, 2700, Note_on_c, 4, 55, 0
6, 2700, Note_on_c, 4, 67, 0
6, 2700, Note_on_c, 4, 62, 0
6, 2700, Note_on_c, 4, 71, 0
6, 2700, Note_on_c, 4, 79, 127
6, 2700, Note_on_c, 4, 74, 127
6, 2700, Note_on_c, 4, 71, 127
6, 2760, Note_on_c, 4, 71, 0
6, 2760, Note_on_c, 4, 74, 0
6, 2760, Note_on_c, 4, 79, 0
6, 2820, Note_on_c, 4, 79, 127
6, 2820, Note_on_c, 4, 74, 127
6, 2820, Note_on_c, 4, 71, 127
6, 2880, Note_on_c, 4, 71, 0
6, 2880, Note_on_c, 4, 74, 0
6, 2880, Note_on_c, 4, 79, 0
6, 3000, Note_on_c, 4, 84, 127
6, 3000, Note_on_c, 4, 77, 127
6, 3000, Note_on_c, 4, 81, 127
6, 3060, Note_on_c, 4, 81, 0
6, 3060, Note_on_c, 4, 77, 0
6, 3060, Note_on_c, 4, 84, 0
6, 3240, Note_on_c, 4, 84, 127
6, 3240, Note_on_c, 4, 79, 127
6, 3240, Note_on_c, 4, 76, 127
6, 3300, Note_on_c, 4, 76, 0
6, 3300, Note_on_c, 4, 79, 0
6, 3300, Note_on_c, 4, 84, 0
6, 3480, Note_on_c, 4, 78, 127
6, 3480, Note_on_c, 4, 81, 127
6, 3480, Note_on_c, 4, 86, 127
6, 3540, Note_on_c, 4, 86, 0
6, 3540, Note_on_c, 4, 81, 0
6, 3540, Note_on_c, 4, 78, 0
6, 3660, Note_on_c, 4, 86, 127
6, 3660, Note_on_c, 4, 78, 127
6, 3660, Note_on_c, 4, 81, 127
6, 3720, Note_on_c, 4, 81, 0
6, 3720, Note_on_c, 4, 78, 0
6, 3720, Note_on_c, 4, 86, 0
6, 3780, Note_on_c, 4, 81, 127
6, 3780, Note_on_c, 4, 78, 127
6, 3780, Note_on_c, 4, 86, 127
6, 3840, Note_on_c, 4, 86, 0
6, 3840, Note_on_c, 4, 78, 0
6, 3840, Note_on_c, 4, 81, 0
6, 3960, Note_on_c, 4, 81, 127
6, 3960, Note_on_c, 4, 77, 127
6, 3960, Note_on_c, 4, 72, 127
6, 4020, Note_on_c, 4, 72, 0
6, 4020, Note_on_c, 4, 77, 0
6, 4020, Note_on_c, 4, 81, 0
6, 4140, Note_on_c, 4, 81, 127
6, 4140, Note_on_c, 4, 77, 127
6, 4140, Note_on_c, 4, 72, 127
6, 4200, Note_on_c, 4, 72, 0
6, 4200, Note_on_c, 4, 77, 0
6, 4200, Note_on_c, 4, 81, 0
6, 4440, Note_on_c, 4, 83, 127
6, 4440, Note_on_c, 4, 79, 127
6, 4440, Note_on_c, 4, 74, 127
6, 4500, Note_on_c, 4, 74, 0
6, 4500, Note_on_c, 4, 79, 0
6, 4500, Note_on_c, 4, 83, 0
6, 4620, Note_on_c, 4, 83, 127
6, 4620, Note_on_c, 4, 79, 127
6, 4620, Note_on_c, 4, 74, 127
6, 4680, Note_on_c, 4, 74, 0
6, 4680, Note_on_c, 4, 79, 0
6, 4680, Note_on_c, 4, 83, 0
6, 4740, Note_on_c, 4, 83, 127
6, 4740, Note_on_c, 4, 79, 127
6, 4740, Note_on_c, 4, 74, 127
6, 4800, Note_on_c, 4, 74, 0
6, 4800, Note_on_c, 4, 79, 0
6, 4800, Note_on_c, 4, 83, 0
6, 4800, Note_on_c, 4, 68, 127
6, 4800, Note_on_c, 4, 61, 127
6, 5040, Note_on_c, 4, 61, 0
6, 5040, Note_on_c, 4, 68, 0
6, 5040, Note_on_c, 4, 59, 127
6, 5040, Note_on_c, 4, 66, 127
6, 5220, Note_on_c, 4, 66, 0
6, 5220, Note_on_c, 4, 59, 0
6, 5220, Note_on_c, 4, 64, 127
6, 5220, Note_on_c, 4, 57, 127
6, 5520, Note_on_c, 4, 57, 0
6, 5520, Note_on_c, 4, 64, 0
6, 5580, Note_on_c, 4, 71, 127
6, 5580, Note_on_c, 4, 75, 127
6, 5580, Note_on_c, 4, 78, 127
6, 5580, Note_on_c, 4, 83, 127
6, 5640, Note_on_c, 4, 83, 0
6, 5640, Note_on_c, 4, 71, 0
6, 5640, Note_on_c, 4, 75, 0
6, 5640, Note_on_c, 4, 78, 0
6, 5640, Note_on_c, 4, 83, 127
6, 5640, Note_on_c, 4, 78, 127
6, 5640, Note_on_c, 4, 75, 127
6, 5640, Note_on_c, 4, 71, 127
6, 5700, Note_on_c, 4, 71, 0
6, 5700, Note_on_c, 4, 83, 0
6, 5700, Note_on_c, 4, 78, 0
6, 5700, Note_on_c, 4, 75, 0
6, 5700, Note_on_c, 4, 83, 127
6, 5700, Note_on_c, 4, 78, 127
6, 5700, Note_on_c, 4, 75, 127
6, 5700, Note_on_c, 4, 71, 127
6, 5760, Note_on_c, 4, 71, 0
6, 5760, Note_on_c, 4, 83, 0
6, 5760, Note_on_c, 4, 78, 0
6, 5760, Note_on_c, 4, 75, 0
6, 5760, Note_on_c, 4, 71, 127
6, 5760, Note_on_c, 4, 68, 127
6, 5760, Note_on_c, 4, 63, 127
6, 5760, Note_on_c, 4, 56, 127
6, 5880, Note_on_c, 4, 56, 0
6, 5880, Note_on_c, 4, 71, 0
6, 5880, Note_on_c, 4, 68, 0
6, 5880, Note_on_c, 4, 63, 0
6, 5880, Note_on_c, 4, 75, 127
6, 5880, Note_on_c, 4, 80, 127
6, 5880, Note_on_c, 4, 71, 127
6, 5940, Note_on_c, 4, 71, 0
6, 5940, Note_on_c, 4, 80, 0
6, 5940, Note_on_c, 4, 75, 0
6, 6060, Note_on_c, 4, 75, 127
6, 6060, Note_on_c, 4, 71, 127
6, 6060, Note_on_c, 4, 80, 127
6, 6060, Note_on_c, 4, 68, 127
6, 6120, Note_on_c, 4, 68, 0
6, 6120, Note_on_c, 4, 75, 0
6, 6120, Note_on_c, 4, 71, 0
6, 6120, Note_on_c, 4, 80, 0
6, 6180, Note_on_c, 4, 67, 127
6, 6180, Note_on_c, 4, 62, 127
6, 6180, Note_on_c, 4, 71, 127
6, 6180, Note_on_c, 4, 55, 127
6, 6360, Note_on_c, 4, 79, 127
6, 6360, Note_on_c, 4, 74, 127
6, 6360, Note_on_c, 4, 71, 127
6, 6420, Note_on_c, 4, 74, 0
6, 6420, Note_on_c, 4, 71, 0
6, 6420, Note_on_c, 4, 79, 0
6, 6540, Note_on_c, 4, 55, 0
6, 6540, Note_on_c, 4, 67, 0
6, 6540, Note_on_c, 4, 62, 0
6, 6540, Note_on_c, 4, 71, 0
6, 6540, Note_on_c, 4, 79, 127
6, 6540, Note_on_c, 4, 74, 127
6, 6540, Note_on_c, 4, 71, 127
6, 6600, Note_on_c, 4, 71, 0
6, 6600, Note_on_c, 4, 74, 0
6, 6600, Note_on_c, 4, 79, 0
6, 6660, Note_on_c, 4, 79, 127
6, 6660, Note_on_c, 4, 74, 127
6, 6660, Note_on_c, 4, 71, 127
6, 6720, Note_on_c, 4, 71, 0
6, 6720, Note_on_c, 4, 74, 0
6, 6720, Note_on_c, 4, 79, 0
6, 6840, Note_on_c, 4, 84, 127
6, 6840, Note_on_c, 4, 77, 127
6, 6840, Note_on_c, 4, 81, 127
6, 6900, Note_on_c, 4, 81, 0
6, 6900, Note_on_c, 4, 77, 0
6, 6900, Note_on_c, 4, 84, 0
6, 7080, Note_on_c, 4, 84, 127
6, 7080, Note_on_c, 4, 79, 127
6, 7080, Note_on_c, 4, 76, 127
6, 7140, Note_on_c, 4, 76, 0
6, 7140, Note_on_c, 4, 79, 0
6, 7140, Note_on_c, 4, 84, 0
6, 7320, Note_on_c, 4, 78, 127
6, 7320, Note_on_c, 4, 81, 127
6, 7320, Note_on_c, 4, 86, 127
6, 7380, Note_on_c, 4, 86, 0
6, 7380, Note_on_c, 4, 81, 0
6, 7380, Note_on_c, 4, 78, 0
6, 7500, Note_on_c, 4, 86, 127
6, 7500, Note_on_c, 4, 78, 127
6, 7500, Note_on_c, 4, 81, 127
6, 7560, Note_on_c, 4, 81, 0
6, 7560, Note_on_c, 4, 78, 0
6, 7560, Note_on_c, 4, 86, 0
6, 7620, Note_on_c, 4, 81, 127
6, 7620, Note_on_c, 4, 78, 127
6, 7620, Note_on_c, 4, 86, 127
6, 7680, Note_on_c, 4, 86, 0
6, 7680, Note_on_c, 4, 78, 0
6, 7680, Note_on_c, 4, 81, 0
6, 7800, Note_on_c, 4, 81, 127
6, 7800, Note_on_c, 4, 77, 127
6, 7800, Note_on_c, 4, 72, 127
6, 7860, Note_on_c, 4, 72, 0
6, 7860, Note_on_c, 4, 77, 0
6, 7860, Note_on_c, 4, 81, 0
6, 7980, Note_on_c, 4, 81, 127
6, 7980, Note_on_c, 4, 77, 127
6, 7980, Note_on_c, 4, 72, 127
6, 8040, Note_on_c, 4, 72, 0
6, 8040, Note_on_c, 4, 77, 0
6, 8040, Note_on_c, 4, 81, 0
6, 8280, Note_on_c, 4, 83, 127
6, 8280, Note_on_c, 4, 79, 127
6, 8280, Note_on_c, 4, 74, 127
6, 8340, Note_on_c, 4, 74, 0
6, 8340, Note_on_c, 4, 79, 0
6, 8340, Note_on_c, 4, 83, 0
6, 8460, Note_on_c, 4, 83, 127
6, 8460, Note_on_c, 4, 79, 127
6, 8460, Note_on_c, 4, 74, 127
6, 8520, Note_on_c, 4, 74, 0
6, 8520, Note_on_c, 4, 79, 0
6, 8520, Note_on_c, 4, 83, 0
6, 8580, Note_on_c, 4, 83, 127
6, 8580, Note_on_c, 4, 79, 127
6, 8580, Note_on_c, 4, 74, 127
6, 8640, Note_on_c, 4, 74, 0
6, 8640, Note_on_c, 4, 79, 0
6, 8640, Note_on_c, 4, 83, 0
6, 8640, Note_on_c, 4, 57, 127
6, 8640, Note_on_c, 4, 69, 127
6, 8640, Note_on_c, 4, 64, 127
6, 8760, Note_on_c, 4, 64, 0
6, 8760, Note_on_c, 4, 69, 0
6, 8760, Note_on_c, 4, 57, 0
6, 8760, Note_on_c, 4, 79, 127
6, 8760, Note_on_c, 4, 72, 127
6, 8760, Note_on_c, 4, 57, 127
6, 8760, Note_on_c, 4, 69, 127
6, 8760, Note_on_c, 4, 64, 127
6, 8850, Note_on_c, 4, 79, 127
6, 8850, Note_on_c, 4, 69, 127
6, 8850, Note_on_c, 4, 72, 127
6, 8880, Note_on_c, 4, 72, 0
6, 8880, Note_on_c, 4, 79, 0
6, 8880, Note_on_c, 4, 64, 0
6, 8880, Note_on_c, 4, 72, 0
6, 8880, Note_on_c, 4, 57, 0
6, 8880, Note_on_c, 4, 69, 0
6, 8880, Note_on_c, 4, 79, 0
6, 8880, Note_on_c, 4, 69, 0
6, 8880, Note_on_c, 4, 79, 127
6, 8880, Note_on_c, 4, 72, 127
6, 8880, Note_on_c, 4, 69, 127
6, 8940, Note_on_c, 4, 69, 0
6, 8940, Note_on_c, 4, 79, 127
6, 8940, Note_on_c, 4, 71, 127
6, 8940, Note_on_c, 4, 69, 127
6, 9000, Note_on_c, 4, 69, 0
6, 9000, Note_on_c, 4, 79, 0
6, 9000, Note_on_c, 4, 79, 0
6, 9000, Note_on_c, 4, 72, 0
6, 9000, Note_on_c, 4, 71, 0
6, 9000, Note_on_c, 4, 69, 127
6, 9060, Note_on_c, 4, 69, 0
6, 9060, Note_on_c, 4, 67, 127
6, 9120, Note_on_c, 4, 67, 0
6, 9120, Note_on_c, 4, 55, 127
6, 9180, Note_on_c, 4, 55, 0
6, 9180, Note_on_c, 4, 57, 127
6, 9210, Note_on_c, 4, 59, 127
6, 9240, Note_on_c, 4, 59, 0
6, 9240, Note_on_c, 4, 57, 0
6, 9240, Note_on_c, 4, 60, 127
6, 9300, Note_on_c, 4, 60, 0
6, 9300, Note_on_c, 4, 59, 127
6, 9360, Note_on_c, 4, 59, 0
6, 9360, Note_on_c, 4, 69, 127
6, 9360, Note_on_c, 4, 62, 127
6, 9375, Control_c, 4, 7, 113
6, 9390, Control_c, 4, 7, 114
6, 9410, Control_c, 4, 7, 115
6, 9420, Note_on_c, 4, 62, 0
6, 9420, Note_on_c, 4, 69, 0
6, 9420, Note_on_c, 4, 69, 127
6, 9420, Note_on_c, 4, 62, 127
6, 9425, Control_c, 4, 7, 116
6, 9435, Control_c, 4, 7, 117
6, 9450, Control_c, 4, 7, 118
6, 9465, Control_c, 4, 7, 119
6, 9480, Note_on_c, 4, 62, 0
6, 9480, Note_on_c, 4, 69, 0
6, 9480, Note_on_c, 4, 69, 127
6, 9510, Note_on_c, 4, 67, 127
6, 9510, Control_c, 4, 7, 120
6, 9520, Control_c, 4, 7, 121
6, 9533, Control_c, 4, 7, 122
6, 9540, Note_on_c, 4, 67, 0
6, 9540, Note_on_c, 4, 69, 0
6, 9540, Note_on_c, 4, 64, 127
6, 9550, Control_c, 4, 7, 123
6, 9560, Control_c, 4, 7, 124
6, 9570, Note_on_c, 4, 62, 127
6, 9580, Control_c, 4, 7, 125
6, 9595, Control_c, 4, 7, 126
6, 9600, Note_on_c, 4, 62, 0
6, 9600, Note_on_c, 4, 64, 0
6, 9600, Control_c, 4, 7, 127
6, 9600, Note_on_c, 4, 57, 127
6, 9600, Note_on_c, 4, 69, 127
6, 9600, Note_on_c, 4, 64, 127
6, 9720, Note_on_c, 4, 64, 0
6, 9720, Note_on_c, 4, 69, 0
6, 9720, Note_on_c, 4, 57, 0
6, 9720, Note_on_c, 4, 79, 127
6, 9720, Note_on_c, 4, 72, 127
6, 9720, Note_on_c, 4, 57, 127
6, 9720, Note_on_c, 4, 69, 127
6, 9720, Note_on_c, 4, 64, 127
6, 9810, Note_on_c, 4, 79, 127
6, 9810, Note_on_c, 4, 69, 127
6, 9810, Note_on_c, 4, 72, 127
6, 9840, Note_on_c, 4, 72, 0
6, 9840, Note_on_c, 4, 79, 0
6, 9840, Note_on_c, 4, 64, 0
6, 9840, Note_on_c, 4, 72, 0
6, 9840, Note_on_c, 4, 57, 0
6, 9840, Note_on_c, 4, 69, 0
6, 9840, Note_on_c, 4, 79, 0
6, 9840, Note_on_c, 4, 69, 0
6, 9840, Note_on_c, 4, 79, 127
6, 9840, Note_on_c, 4, 72, 127
6, 9840, Note_on_c, 4, 69, 127
6, 9900, Note_on_c, 4, 69, 0
6, 9900, Note_on_c, 4, 79, 127
6, 9900, Note_on_c, 4, 71, 127
6, 9900, Note_on_c, 4, 69, 127
6, 9960, Note_on_c, 4, 69, 0
6, 9960, Note_on_c, 4, 79, 0
6, 9960, Note_on_c, 4, 79, 0
6, 9960, Note_on_c, 4, 72, 0
6, 9960, Note_on_c, 4, 71, 0
6, 9960, Note_on_c, 4, 69, 127
6, 10020, Note_on_c, 4, 69, 0
6, 10020, Note_on_c, 4, 67, 127
6, 10080, Note_on_c, 4, 67, 0
6, 10080, Note_on_c, 4, 55, 127
6, 10140, Note_on_c, 4, 55, 0
6, 10140, Note_on_c, 4, 57, 127
6, 10170, Note_on_c, 4, 59, 127
6, 10200, Note_on_c, 4, 59, 0
6, 10200, Note_on_c, 4, 57, 0
6, 10200, Note_on_c, 4, 60, 127
6, 10260, Note_on_c, 4, 60, 0
6, 10260, Note_on_c, 4, 59, 127
6, 10320, Note_on_c, 4, 59, 0
6, 10320, Note_on_c, 4, 69, 127
6, 10320, Note_on_c, 4, 62, 127
6, 10380, Note_on_c, 4, 62, 0
6, 10380, Note_on_c, 4, 69, 0
6, 10380, Note_on_c, 4, 69, 127
6, 10380, Note_on_c, 4, 62, 127
6, 10440, Note_on_c, 4, 62, 0
6, 10440, Note_on_c, 4, 69, 0
6, 10440, Note_on_c, 4, 69, 127
6, 10470, Note_on_c, 4, 67, 127
6, 10500, Note_on_c, 4, 67, 0
6, 10500, Note_on_c, 4, 69, 0
6, 10500, Note_on_c, 4, 64, 127
6, 10530, Note_on_c, 4, 62, 127
6, 10560, Note_on_c, 4, 62, 0
6, 10560, Note_on_c, 4, 64, 0
6, 10560, Note_on_c, 4, 57, 127
6, 10560, Note_on_c, 4, 69, 127
6, 10560, Note_on_c, 4, 64, 127
6, 10680, Note_on_c, 4, 64, 0
6, 10680, Note_on_c, 4, 69, 0
6, 10680, Note_on_c, 4, 57, 0
6, 10680, Note_on_c, 4, 79, 127
6, 10680, Note_on_c, 4, 72, 127
6, 10680, Note_on_c, 4, 57, 127
6, 10680, Note_on_c, 4, 69, 127
6, 10680, Note_on_c, 4, 64, 127
6, 10770, Note_on_c, 4, 79, 127
6, 10770, Note_on_c, 4, 69, 127
6, 10770, Note_on_c, 4, 72, 127
6, 10800, Note_on_c, 4, 72, 0
6, 10800, Note_on_c, 4, 79, 0
6, 10800, Note_on_c, 4, 64, 0
6, 10800, Note_on_c, 4, 72, 0
6, 10800, Note_on_c, 4, 57, 0
6, 10800, Note_on_c, 4, 69, 0
6, 10800, Note_on_c, 4, 79, 0
6, 10800, Note_on_c, 4, 69, 0
6, 10800, Note_on_c, 4, 79, 127
6, 10800, Note_on_c, 4, 72, 127
6, 10800, Note_on_c, 4, 69, 127
6, 10860, Note_on_c, 4, 69, 0
6, 10860, Note_on_c, 4, 79, 127
6, 10860, Note_on_c, 4, 71, 127
6, 10860, Note_on_c, 4, 69, 127
6, 10920, Note_on_c, 4, 69, 0
6, 10920, Note_on_c, 4, 79, 0
6, 10920, Note_on_c, 4, 79, 0
6, 10920, Note_on_c, 4, 72, 0
6, 10920, Note_on_c, 4, 71, 0
6, 10920, Note_on_c, 4, 69, 127
6, 10980, Note_on_c, 4, 69, 0
6, 10980, Note_on_c, 4, 67, 127
6, 11040, Note_on_c, 4, 67, 0
6, 11040, Note_on_c, 4, 55, 127
6, 11100, Note_on_c, 4, 55, 0
6, 11100, Note_on_c, 4, 57, 127
6, 11130, Note_on_c, 4, 59, 127
6, 11160, Note_on_c, 4, 59, 0
6, 11160, Note_on_c, 4, 57, 0
6, 11160, Note_on_c, 4, 60, 127
6, 11220, Note_on_c, 4, 60, 0
6, 11220, Note_on_c, 4, 59, 127
6, 11280, Note_on_c, 4, 59, 0
6, 11280, Note_on_c, 4, 69, 127
6, 11280, Note_on_c, 4, 62, 127
6, 11340, Note_on_c, 4, 62, 0
6, 11340, Note_on_c, 4, 69, 0
6, 11340, Note_on_c, 4, 69, 127
6, 11340, Note_on_c, 4, 62, 127
6, 11400, Note_on_c, 4, 62, 0
6, 11400, Note_on_c, 4, 69, 0
6, 11400, Note_on_c, 4, 69, 127
6, 11430, Note_on_c, 4, 67, 127
6, 11460, Note_on_c, 4, 67, 0
6, 11460, Note_on_c, 4, 69, 0
6, 11460, Note_on_c, 4, 64, 127
6, 11490, Note_on_c, 4, 62, 127
6, 11520, Note_on_c, 4, 62, 0
6, 11520, Note_on_c, 4, 64, 0
6, 11520, Note_on_c, 4, 77, 127
6, 11520, Note_on_c, 4, 72, 127
6, 11520, Note_on_c, 4, 69, 127
6, 11520, Note_on_c, 4, 65, 127
6, 11520, Note_on_c, 4, 60, 127
6, 11520, Note_on_c, 4, 53, 127
6, 11640, Note_on_c, 4, 53, 0
6, 11640, Note_on_c, 4, 72, 0
6, 11640, Note_on_c, 4, 69, 0
6, 11640, Note_on_c, 4, 77, 0
6, 11640, Note_on_c, 4, 60, 0
6, 11640, Note_on_c, 4, 65, 0
6, 11640, Note_on_c, 4, 53, 127
6, 11700, Note_on_c, 4, 53, 0
6, 11700, Note_on_c, 4, 52, 127
6, 11760, Note_on_c, 4, 52, 0
6, 11760, Note_on_c, 4, 53, 127
6, 11820, Note_on_c, 4, 53, 0
6, 11820, Note_on_c, 4, 52, 127
6, 11880, Note_on_c, 4, 52, 0
6, 11880, Note_on_c, 4, 53, 127
6, 11940, Note_on_c, 4, 53, 0
6, 11940, Note_on_c, 4, 71, 127
6, 11940, Note_on_c, 4, 67, 127
6, 11940, Note_on_c, 4, 55, 127
6, 11940, Note_on_c, 4, 59, 127
6, 11940, Note_on_c, 4, 62, 127
6, 12480, Note_on_c, 4, 62, 0
6, 12480, Note_on_c, 4, 55, 0
6, 12480, Note_on_c, 4, 71, 0
6, 12480, Note_on_c, 4, 67, 0
6, 12480, Note_on_c, 4, 59, 0
6, 12720, Note_on_c, 4, 55, 127
6, 12780, Note_on_c, 4, 55, 0
6, 12780, Note_on_c, 4, 59, 127
6, 12840, Note_on_c, 4, 59, 0
6, 12840, Note_on_c, 4, 62, 127
6, 12890, Control_c, 4, 7, 124
6, 12900, Note_on_c, 4, 62, 0
6, 12900, Note_on_c, 4, 64, 127
6, 12910, Control_c, 4, 7, 123
6, 12915, Control_c, 4, 7, 122
6, 12936, Control_c, 4, 7, 121
6, 12940, Control_c, 4, 7, 120
6, 12946, Control_c, 4, 7, 119
6, 12953, Control_c, 4, 7, 118
6, 12960, Note_on_c, 4, 64, 0
6, 12960, Control_c, 4, 7, 117
6, 12960, Note_on_c, 4, 68, 127
6, 12960, Note_on_c, 4, 61, 127
6, 12966, Control_c, 4, 7, 114
6, 12966, Control_c, 4, 7, 116
6, 12971, Control_c, 4, 7, 113
6, 12976, Control_c, 4, 7, 112
6, 12991, Control_c, 4, 7, 111
6, 13045, Control_c, 4, 7, 112
6, 13050, Control_c, 4, 7, 113
6, 13055, Control_c, 4, 7, 114
6, 13060, Control_c, 4, 7, 115
6, 13065, Control_c, 4, 7, 116
6, 13075, Control_c, 4, 7, 117
6, 13200, Note_on_c, 4, 61, 0
6, 13200, Note_on_c, 4, 68, 0
6, 13200, Note_on_c, 4, 59, 127
6, 13200, Note_on_c, 4, 66, 127
6, 13380, Note_on_c, 4, 66, 0
6, 13380, Note_on_c, 4, 59, 0
6, 13380, Note_on_c, 4, 64, 127
6, 13380, Note_on_c, 4, 57, 127
6, 13680, Note_on_c, 4, 57, 0
6, 13680, Note_on_c, 4, 64, 0
6, 13740, Note_on_c, 4, 71, 127
6, 13740, Note_on_c, 4, 75, 127
6, 13740, Note_on_c, 4, 78, 127
6, 13740, Note_on_c, 4, 83, 127
6, 13800, Note_on_c, 4, 83, 0
6, 13800, Note_on_c, 4, 71, 0
6, 13800, Note_on_c, 4, 75, 0
6, 13800, Note_on_c, 4, 78, 0
6, 13800, Note_on_c, 4, 83, 127
6, 13800, Note_on_c, 4, 78, 127
6, 13800, Note_on_c, 4, 75, 127
6, 13800, Note_on_c, 4, 71, 127
6, 13860, Note_on_c, 4, 71, 0
6, 13860, Note_on_c, 4, 83, 0
6, 13860, Note_on_c, 4, 78, 0
6, 13860, Note_on_c, 4, 75, 0
6, 13860, Note_on_c, 4, 83, 127
6, 13860, Note_on_c, 4, 78, 127
6, 13860, Note_on_c, 4, 75, 127
6, 13860, Note_on_c, 4, 71, 127
6, 13920, Note_on_c, 4, 71, 0
6, 13920, Note_on_c, 4, 83, 0
6, 13920, Note_on_c, 4, 78, 0
6, 13920, Note_on_c, 4, 75, 0
6, 13920, Note_on_c, 4, 71, 127
6, 13920, Note_on_c, 4, 68, 127
6, 13920, Note_on_c, 4, 63, 127
6, 13920, Note_on_c, 4, 56, 127
6, 14040, Note_on_c, 4, 56, 0
6, 14040, Note_on_c, 4, 71, 0
6, 14040, Note_on_c, 4, 68, 0
6, 14040, Note_on_c, 4, 63, 0
6, 14040, Note_on_c, 4, 75, 127
6, 14040, Note_on_c, 4, 80, 127
6, 14040, Note_on_c, 4, 71, 127
6, 14100, Note_on_c, 4, 71, 0
6, 14100, Note_on_c, 4, 80, 0
6, 14100, Note_on_c, 4, 75, 0
6, 14220, Note_on_c, 4, 75, 127
6, 14220, Note_on_c, 4, 71, 127
6, 14220, Note_on_c, 4, 80, 127
6, 14220, Note_on_c, 4, 68, 127
6, 14280, Note_on_c, 4, 68, 0
6, 14280, Note_on_c, 4, 75, 0
6, 14280, Note_on_c, 4, 71, 0
6, 14280, Note_on_c, 4, 80, 0
6, 14340, Note_on_c, 4, 67, 127
6, 14340, Note_on_c, 4, 62, 127
6, 14340, Note_on_c, 4, 71, 127
6, 14340, Note_on_c, 4, 55, 127
6, 14520, Note_on_c, 4, 79, 127
6, 14520, Note_on_c, 4, 74, 127
6, 14520, Note_on_c, 4, 71, 127
6, 14580, Note_on_c, 4, 74, 0
6, 14580, Note_on_c, 4, 71, 0
6, 14580, Note_on_c, 4, 79, 0
6, 14700, Note_on_c, 4, 55, 0
6, 14700, Note_on_c, 4, 67, 0
6, 14700, Note_on_c, 4, 62, 0
6, 14700, Note_on_c, 4, 71, 0
6, 14700, Note_on_c, 4, 79, 127
6, 14700, Note_on_c, 4, 74, 127
6, 14700, Note_on_c, 4, 71, 127
6, 14760, Note_on_c, 4, 71, 0
6, 14760, Note_on_c, 4, 74, 0
6, 14760, Note_on_c, 4, 79, 0
6, 14820, Note_on_c, 4, 79, 127
6, 14820, Note_on_c, 4, 74, 127
6, 14820, Note_on_c, 4, 71, 127
6, 14880, Note_on_c, 4, 71, 0
6, 14880, Note_on_c, 4, 74, 0
6, 14880, Note_on_c, 4, 79, 0
6, 15000, Note_on_c, 4, 84, 127
6, 15000, Note_on_c, 4, 77, 127
6, 15000, Note_on_c, 4, 81, 127
6, 15060, Note_on_c, 4, 81, 0
6, 15060, Note_on_c, 4, 77, 0
6, 15060, Note_on_c, 4, 84, 0
6, 15240, Note_on_c, 4, 84, 127
6, 15240, Note_on_c, 4, 79, 127
6, 15240, Note_on_c, 4, 76, 127
6, 15300, Note_on_c, 4, 76, 0
6, 15300, Note_on_c, 4, 79, 0
6, 15300, Note_on_c, 4, 84, 0
6, 15480, Note_on_c, 4, 78, 127
6, 15480, Note_on_c, 4, 81, 127
6, 15480, Note_on_c, 4, 86, 127
6, 15540, Note_on_c, 4, 86, 0
6, 15540, Note_on_c, 4, 81, 0
6, 15540, Note_on_c, 4, 78, 0
6, 15660, Note_on_c, 4, 86, 127
6, 15660, Note_on_c, 4, 78, 127
6, 15660, Note_on_c, 4, 81, 127
6, 15720, Note_on_c, 4, 81, 0
6, 15720, Note_on_c, 4, 78, 0
6, 15720, Note_on_c, 4, 86, 0
6, 15780, Note_on_c, 4, 81, 127
6, 15780, Note_on_c, 4, 78, 127
6, 15780, Note_on_c, 4, 86, 127
6, 15840, Note_on_c, 4, 86, 0
6, 15840, Note_on_c, 4, 78, 0
6, 15840, Note_on_c, 4, 81, 0
6, 15960, Note_on_c, 4, 81, 127
6, 15960, Note_on_c, 4, 77, 127
6, 15960, Note_on_c, 4, 72, 127
6, 16020, Note_on_c, 4, 72, 0
6, 16020, Note_on_c, 4, 77, 0
6, 16020, Note_on_c, 4, 81, 0
6, 16140, Note_on_c, 4, 81, 127
6, 16140, Note_on_c, 4, 77, 127
6, 16140, Note_on_c, 4, 72, 127
6, 16200, Note_on_c, 4, 72, 0
6, 16200, Note_on_c, 4, 77, 0
6, 16200, Note_on_c, 4, 81, 0
6, 16440, Note_on_c, 4, 83, 127
6, 16440, Note_on_c, 4, 79, 127
6, 16440, Note_on_c, 4, 74, 127
6, 16500, Note_on_c, 4, 74, 0
6, 16500, Note_on_c, 4, 79, 0
6, 16500, Note_on_c, 4, 83, 0
6, 16620, Note_on_c, 4, 83, 127
6, 16620, Note_on_c, 4, 79, 127
6, 16620, Note_on_c, 4, 74, 127
6, 16680, Note_on_c, 4, 74, 0
6, 16680, Note_on_c, 4, 79, 0
6, 16680, Note_on_c, 4, 83, 0
6, 16740, Note_on_c, 4, 83, 127
6, 16740, Note_on_c, 4, 79, 127
6, 16740, Note_on_c, 4, 74, 127
6, 16800, Note_on_c, 4, 74, 0
6, 16800, Note_on_c, 4, 79, 0
6, 16800, Note_on_c, 4, 83, 0
6, 16800, Note_on_c, 4, 68, 127
6, 16800, Note_on_c, 4, 61, 127
6, 17040, Note_on_c, 4, 61, 0
6, 17040, Note_on_c, 4, 68, 0
6, 17040, Note_on_c, 4, 59, 127
6, 17040, Note_on_c, 4, 66, 127
6, 17220, Note_on_c, 4, 66, 0
6, 17220, Note_on_c, 4, 59, 0
6, 17220, Note_on_c, 4, 64, 127
6, 17220, Note_on_c, 4, 57, 127
6, 17520, Note_on_c, 4, 57, 0
6, 17520, Note_on_c, 4, 64, 0
6, 17580, Note_on_c, 4, 71, 127
6, 17580, Note_on_c, 4, 75, 127
6, 17580, Note_on_c, 4, 78, 127
6, 17580, Note_on_c, 4, 83, 127
6, 17640, Note_on_c, 4, 83, 0
6, 17640, Note_on_c, 4, 71, 0
6, 17640, Note_on_c, 4, 75, 0
6, 17640, Note_on_c, 4, 78, 0
6, 17640, Note_on_c, 4, 83, 127
6, 17640, Note_on_c, 4, 78, 127
6, 17640, Note_on_c, 4, 75, 127
6, 17640, Note_on_c, 4, 71, 127
6, 17680, Control_c, 4, 10, 51
6, 17700, Note_on_c, 4, 71, 0
6, 17700, Note_on_c, 4, 83, 0
6, 17700, Note_on_c, 4, 78, 0
6, 17700, Note_on_c, 4, 75, 0
6, 17700, Note_on_c, 4, 83, 127
6, 17700, Note_on_c, 4, 78, 127
6, 17700, Note_on_c, 4, 75, 127
6, 17700, Note_on_c, 4, 71, 127
6, 17740, Control_c, 4, 10, 54
6, 17760, Note_on_c, 4, 71, 0
6, 17760, Note_on_c, 4, 83, 0
6, 17760, Note_on_c, 4, 78, 0
6, 17760, Note_on_c, 4, 75, 0
6, 17760, Note_on_c, 4, 71, 127
6, 17760, Note_on_c, 4, 68, 127
6, 17760, Note_on_c, 4, 63, 127
6, 17760, Note_on_c, 4, 56, 127
6, 17880, Note_on_c, 4, 56, 0
6, 17880, Note_on_c, 4, 71, 0
6, 17880, Note_on_c, 4, 68, 0
6, 17880, Note_on_c, 4, 63, 0
6, 17880, Note_on_c, 4, 75, 127
6, 17880, Note_on_c, 4, 80, 127
6, 17880, Note_on_c, 4, 71, 127
6, 17940, Note_on_c, 4, 71, 0
6, 17940, Note_on_c, 4, 80, 0
6, 17940, Note_on_c, 4, 75, 0
6, 18060, Note_on_c, 4, 75, 127
6, 18060, Note_on_c, 4, 71, 127
6, 18060, Note_on_c, 4, 80, 127
6, 18060, Note_on_c, 4, 68, 127
6, 18120, Note_on_c, 4, 68, 0
6, 18120, Note_on_c, 4, 75, 0
6, 18120, Note_on_c, 4, 71, 0
6, 18120, Note_on_c, 4, 80, 0
6, 18180, Note_on_c, 4, 67, 127
6, 18180, Note_on_c, 4, 62, 127
6, 18180, Note_on_c, 4, 71, 127
6, 18180, Note_on_c, 4, 55, 127
6, 18360, Note_on_c, 4, 79, 127
6, 18360, Note_on_c, 4, 74, 127
6, 18360, Note_on_c, 4, 71, 127
6, 18420, Note_on_c, 4, 74, 0
6, 18420, Note_on_c, 4, 71, 0
6, 18420, Note_on_c, 4, 79, 0
6, 18540, Note_on_c, 4, 55, 0
6, 18540, Note_on_c, 4, 67, 0
6, 18540, Note_on_c, 4, 62, 0
6, 18540, Note_on_c, 4, 71, 0
6, 18540, Note_on_c, 4, 79, 127
6, 18540, Note_on_c, 4, 74, 127
6, 18540, Note_on_c, 4, 71, 127
6, 18600, Note_on_c, 4, 71, 0
6, 18600, Note_on_c, 4, 74, 0
6, 18600, Note_on_c, 4, 79, 0
6, 18660, Note_on_c, 4, 79, 127
6, 18660, Note_on_c, 4, 74, 127
6, 18660, Note_on_c, 4, 71, 127
6, 18720, Note_on_c, 4, 71, 0
6, 18720, Note_on_c, 4, 74, 0
6, 18720, Note_on_c, 4, 79, 0
6, 18840, Note_on_c, 4, 84, 127
6, 18840, Note_on_c, 4, 77, 127
6, 18840, Note_on_c, 4, 81, 127
6, 18900, Note_on_c, 4, 81, 0
6, 18900, Note_on_c, 4, 77, 0
6, 18900, Note_on_c, 4, 84, 0
6, 19080, Note_on_c, 4, 84, 127
6, 19080, Note_on_c, 4, 79, 127
6, 19080, Note_on_c, 4, 76, 127
6, 19140, Note_on_c, 4, 76, 0
6, 19140, Note_on_c, 4, 79, 0
6, 19140, Note_on_c, 4, 84, 0
6, 19320, Note_on_c, 4, 78, 127
6, 19320, Note_on_c, 4, 81, 127
6, 19320, Note_on_c, 4, 86, 127
6, 19380, Note_on_c, 4, 86, 0
6, 19380, Note_on_c, 4, 81, 0
6, 19380, Note_on_c, 4, 78, 0
6, 19500, Note_on_c, 4, 86, 127
6, 19500, Note_on_c, 4, 78, 127
6, 19500, Note_on_c, 4, 81, 127
6, 19560, Note_on_c, 4, 81, 0
6, 19560, Note_on_c, 4, 78, 0
6, 19560, Note_on_c, 4, 86, 0
6, 19620, Note_on_c, 4, 81, 127
6, 19620, Note_on_c, 4, 78, 127
6, 19620, Note_on_c, 4, 86, 127
6, 19680, Note_on_c, 4, 86, 0
6, 19680, Note_on_c, 4, 78, 0
6, 19680, Note_on_c, 4, 81, 0
6, 19800, Note_on_c, 4, 81, 127
6, 19800, Note_on_c, 4, 77, 127
6, 19800, Note_on_c, 4, 72, 127
6, 19860, Note_on_c, 4, 72, 0
6, 19860, Note_on_c, 4, 77, 0
6, 19860, Note_on_c, 4, 81, 0
6, 19980, Note_on_c, 4, 81, 127
6, 19980, Note_on_c, 4, 77, 127
6, 19980, Note_on_c, 4, 72, 127
6, 20040, Note_on_c, 4, 72, 0
6, 20040, Note_on_c, 4, 77, 0
6, 20040, Note_on_c, 4, 81, 0
6, 20280, Note_on_c, 4, 83, 127
6, 20280, Note_on_c, 4, 79, 127
6, 20280, Note_on_c, 4, 74, 127
6, 20340, Note_on_c, 4, 74, 0
6, 20340, Note_on_c, 4, 79, 0
6, 20340, Note_on_c, 4, 83, 0
6, 20460, Note_on_c, 4, 83, 127
6, 20460, Note_on_c, 4, 79, 127
6, 20460, Note_on_c, 4, 74, 127
6, 20520, Note_on_c, 4, 74, 0
6, 20520, Note_on_c, 4, 79, 0
6, 20520, Note_on_c, 4, 83, 0
6, 20580, Note_on_c, 4, 83, 127
6, 20580, Note_on_c, 4, 79, 127
6, 20580, Note_on_c, 4, 74, 127
6, 20640, Note_on_c, 4, 74, 0
6, 20640, Note_on_c, 4, 79, 0
6, 20640, Note_on_c, 4, 83, 0
6, 20640, Note_on_c, 4, 57, 127
6, 20640, Note_on_c, 4, 69, 127
6, 20640, Note_on_c, 4, 64, 127
6, 20760, Note_on_c, 4, 64, 0
6, 20760, Note_on_c, 4, 69, 0
6, 20760, Note_on_c, 4, 57, 0
6, 20760, Note_on_c, 4, 79, 127
6, 20760, Note_on_c, 4, 72, 127
6, 20760, Note_on_c, 4, 57, 127
6, 20760, Note_on_c, 4, 69, 127
6, 20760, Note_on_c, 4, 64, 127
6, 20850, Note_on_c, 4, 79, 127
6, 20850, Note_on_c, 4, 69, 127
6, 20850, Note_on_c, 4, 72, 127
6, 20880, Note_on_c, 4, 72, 0
6, 20880, Note_on_c, 4, 79, 0
6, 20880, Note_on_c, 4, 64, 0
6, 20880, Note_on_c, 4, 72, 0
6, 20880, Note_on_c, 4, 57, 0
6, 20880, Note_on_c, 4, 69, 0
6, 20880, Note_on_c, 4, 79, 0
6, 20880, Note_on_c, 4, 69, 0
6, 20880, Note_on_c, 4, 79, 127
6, 20880, Note_on_c, 4, 72, 127
6, 20880, Note_on_c, 4, 69, 127
6, 20940, Note_on_c, 4, 69, 0
6, 20940, Note_on_c, 4, 79, 127
6, 20940, Note_on_c, 4, 71, 127
6, 20940, Note_on_c, 4, 69, 127
6, 20995, Control_c, 4, 7, 118
6, 21000, Note_on_c, 4, 69, 0
6, 21000, Note_on_c, 4, 79, 0
6, 21000, Note_on_c, 4, 79, 0
6, 21000, Note_on_c, 4, 72, 0
6, 21000, Note_on_c, 4, 71, 0
6, 21000, Note_on_c, 4, 69, 127
6, 21000, Control_c, 4, 7, 119
6, 21015, Control_c, 4, 7, 120
6, 21020, Control_c, 4, 7, 123
6, 21020, Control_c, 4, 7, 121
6, 21025, Control_c, 4, 7, 124
6, 21053, Control_c, 4, 7, 125
6, 21060, Note_on_c, 4, 69, 0
6, 21060, Note_on_c, 4, 67, 127
6, 21120, Note_on_c, 4, 67, 0
6, 21120, Note_on_c, 4, 55, 127
6, 21180, Note_on_c, 4, 55, 0
6, 21180, Note_on_c, 4, 57, 127
6, 21210, Note_on_c, 4, 59, 127
6, 21225, Control_c, 4, 7, 124
6, 21240, Note_on_c, 4, 59, 0
6, 21240, Note_on_c, 4, 57, 0
6, 21240, Note_on_c, 4, 60, 127
6, 21255, Control_c, 4, 7, 125
6, 21270, Control_c, 4, 7, 126
6, 21275, Control_c, 4, 7, 127
6, 21300, Note_on_c, 4, 60, 0
6, 21300, Note_on_c, 4, 59, 127
6, 21360, Note_on_c, 4, 59, 0
6, 21360, Note_on_c, 4, 69, 127
6, 21360, Note_on_c, 4, 62, 127
6, 21420, Note_on_c, 4, 62, 0
6, 21420, Note_on_c, 4, 69, 0
6, 21420, Note_on_c, 4, 69, 127
6, 21420, Note_on_c, 4, 62, 127
6, 21480, Note_on_c, 4, 62, 0
6, 21480, Note_on_c, 4, 69, 0
6, 21480, Note_on_c, 4, 69, 127
6, 21510, Note_on_c, 4, 67, 127
6, 21540, Note_on_c, 4, 67, 0
6, 21540, Note_on_c, 4, 69, 0
6, 21540, Note_on_c, 4, 64, 127
6, 21570, Note_on_c, 4, 62, 127
6, 21600, Note_on_c, 4, 62, 0
6, 21600, Note_on_c, 4, 64, 0
6, 21600, Note_on_c, 4, 57, 127
6, 21600, Note_on_c, 4, 69, 127
6, 21600, Note_on_c, 4, 64, 127
6, 21720, Note_on_c, 4, 64, 0
6, 21720, Note_on_c, 4, 69, 0
6, 21720, Note_on_c, 4, 57, 0
6, 21720, Note_on_c, 4, 79, 127
6, 21720, Note_on_c, 4, 72, 127
6, 21720, Note_on_c, 4, 57, 127
6, 21720, Note_on_c, 4, 69, 127
6, 21720, Note_on_c, 4, 64, 127
6, 21810, Note_on_c, 4, 79, 127
6, 21810, Note_on_c, 4, 69, 127
6, 21810, Note_on_c, 4, 72, 127
6, 21840, Note_on_c, 4, 72, 0
6, 21840, Note_on_c, 4, 79, 0
6, 21840, Note_on_c, 4, 64, 0
6, 21840, Note_on_c, 4, 72, 0
6, 21840, Note_on_c, 4, 57, 0
6, 21840, Note_on_c, 4, 69, 0
6, 21840, Note_on_c, 4, 79, 0
6, 21840, Note_on_c, 4, 69, 0
6, 21840, Note_on_c, 4, 79, 127
6, 21840, Note_on_c, 4, 72, 127
6, 21840, Note_on_c, 4, 69, 127
6, 21900, Note_on_c, 4, 69, 0
6, 21900, Note_on_c, 4, 79, 127
6, 21900, Note_on_c, 4, 71, 127
6, 21900, Note_on_c, 4, 69, 127
6, 21960, Note_on_c, 4, 69, 0
6, 21960, Note_on_c, 4, 79, 0
6, 21960, Note_on_c, 4, 79, 0
6, 21960, Note_on_c, 4, 72, 0
6, 21960, Note_on_c, 4, 71, 0
6, 21960, Note_on_c, 4, 69, 127
6, 22020, Note_on_c, 4, 69, 0
6, 22020, Note_on_c, 4, 67, 127
6, 22080, Note_on_c, 4, 67, 0
6, 22080, Note_on_c, 4, 55, 127
6, 22140, Note_on_c, 4, 55, 0
6, 22140, Note_on_c, 4, 57, 127
6, 22170, Note_on_c, 4, 59, 127
6, 22200, Note_on_c, 4, 59, 0
6, 22200, Note_on_c, 4, 57, 0
6, 22200, Note_on_c, 4, 60, 127
6, 22260, Note_on_c, 4, 60, 0
6, 22260, Note_on_c, 4, 59, 127
6, 22320, Note_on_c, 4, 59, 0
6, 22320, Note_on_c, 4, 69, 127
6, 22320, Note_on_c, 4, 62, 127
6, 22380, Note_on_c, 4, 62, 0
6, 22380, Note_on_c, 4, 69, 0
6, 22380, Note_on_c, 4, 69, 127
6, 22380, Note_on_c, 4, 62, 127
6, 22440, Note_on_c, 4, 62, 0
6, 22440, Note_on_c, 4, 69, 0
6, 22440, Note_on_c, 4, 69, 127
6, 22470, Note_on_c, 4, 67, 127
6, 22500, Note_on_c, 4, 67, 0
6, 22500, Note_on_c, 4, 69, 0
6, 22500, Note_on_c, 4, 64, 127
6, 22530, Note_on_c, 4, 62, 127
6, 22560, Note_on_c, 4, 62, 0
6, 22560, Note_on_c, 4, 64, 0
6, 22560, Note_on_c, 4, 57, 127
6, 22560, Note_on_c, 4, 69, 127
6, 22560, Note_on_c, 4, 64, 127
6, 22680, Note_on_c, 4, 64, 0
6, 22680, Note_on_c, 4, 69, 0
6, 22680, Note_on_c, 4, 57, 0
6, 22680, Note_on_c, 4, 79, 127
6, 22680, Note_on_c, 4, 72, 127
6, 22680, Note_on_c, 4, 57, 127
6, 22680, Note_on_c, 4, 69, 127
6, 22680, Note_on_c, 4, 64, 127
6, 22770, Note_on_c, 4, 79, 127
6, 22770, Note_on_c, 4, 69, 127
6, 22770, Note_on_c, 4, 72, 127
6, 22800, Note_on_c, 4, 72, 0
6, 22800, Note_on_c, 4, 79, 0
6, 22800, Note_on_c, 4, 64, 0
6, 22800, Note_on_c, 4, 72, 0
6, 22800, Note_on_c, 4, 57, 0
6, 22800, Note_on_c, 4, 69, 0
6, 22800, Note_on_c, 4, 79, 0
6, 22800, Note_on_c, 4, 69, 0
6, 22800, Note_on_c, 4, 79, 127
6, 22800, Note_on_c, 4, 72, 127
6, 22800, Note_on_c, 4, 69, 127
6, 22860, Note_on_c, 4, 69, 0
6, 22860, Note_on_c, 4, 79, 127
6, 22860, Note_on_c, 4, 71, 127
6, 22860, Note_on_c, 4, 69, 127
6, 22920, Note_on_c, 4, 69, 0
6, 22920, Note_on_c, 4, 79, 0
6, 22920, Note_on_c, 4, 79, 0
6, 22920, Note_on_c, 4, 72, 0
6, 22920, Note_on_c, 4, 71, 0
6, 22920, Note_on_c, 4, 69, 127
6, 22980, Note_on_c, 4, 69, 0
6, 22980, Note_on_c, 4, 67, 127
6, 23040, Note_on_c, 4, 67, 0
6, 23040, Note_on_c, 4, 55, 127
6, 23100, Note_on_c, 4, 55, 0
6, 23100, Note_on_c, 4, 57, 127
6, 23130, Note_on_c, 4, 59, 127
6, 23160, Note_on_c, 4, 59, 0
6, 23160, Note_on_c, 4, 57, 0
6, 23160, Note_on_c, 4, 60, 127
6, 23220, Note_on_c, 4, 60, 0
6, 23220, Note_on_c, 4, 59, 127
6, 23280, Note_on_c, 4, 59, 0
6, 23280, Note_on_c, 4, 69, 127
6, 23280, Note_on_c, 4, 62, 127
6, 23340, Note_on_c, 4, 62, 0
6, 23340, Note_on_c, 4, 69, 0
6, 23340, Note_on_c, 4, 69, 127
6, 23340, Note_on_c, 4, 62, 127
6, 23400, Note_on_c, 4, 62, 0
6, 23400, Note_on_c, 4, 69, 0
6, 23400, Note_on_c, 4, 69, 127
6, 23430, Note_on_c, 4, 67, 127
6, 23460, Note_on_c, 4, 67, 0
6, 23460, Note_on_c, 4, 69, 0
6, 23460, Note_on_c, 4, 64, 127
6, 23490, Note_on_c, 4, 62, 127
6, 23520, Note_on_c, 4, 62, 0
6, 23520, Note_on_c, 4, 64, 0
6, 23520, Note_on_c, 4, 77, 127
6, 23520, Note_on_c, 4, 72, 127
6, 23520, Note_on_c, 4, 69, 127
6, 23520, Note_on_c, 4, 65, 127
6, 23520, Note_on_c, 4, 60, 127
6, 23520, Note_on_c, 4, 53, 127
6, 23640, Note_on_c, 4, 53, 0
6, 23640, Note_on_c, 4, 72, 0
6, 23640, Note_on_c, 4, 69, 0
6, 23640, Note_on_c, 4, 77, 0
6, 23640, Note_on_c, 4, 60, 0
6, 23640, Note_on_c, 4, 65, 0
6, 23640, Note_on_c, 4, 53, 127
6, 23700, Note_on_c, 4, 53, 0
6, 23700, Note_on_c, 4, 52, 127
6, 23760, Note_on_c, 4, 52, 0
6, 23760, Note_on_c, 4, 53, 127
6, 23820, Note_on_c, 4, 53, 0
6, 23820, Note_on_c, 4, 52, 127
6, 23880, Note_on_c, 4, 52, 0
6, 23880, Note_on_c, 4, 53, 127
6, 23940, Note_on_c, 4, 53, 0
6, 23940, Note_on_c, 4, 71, 127
6, 23940, Note_on_c, 4, 67, 127
6, 23940, Note_on_c, 4, 55, 127
6, 23940, Note_on_c, 4, 59, 127
6, 23940, Note_on_c, 4, 62, 127
6, 24480, Note_on_c, 4, 62, 0
6, 24480, Note_on_c, 4, 55, 0
6, 24480, Note_on_c, 4, 71, 0
6, 24480, Note_on_c, 4, 67, 0
6, 24480, Note_on_c, 4, 59, 0
6, 24720, Note_on_c, 4, 55, 127
6, 24780, Note_on_c, 4, 55, 0
6, 24780, Note_on_c, 4, 59, 127
6, 24840, Note_on_c, 4, 59, 0
6, 24840, Note_on_c, 4, 62, 127
6, 24900, Note_on_c, 4, 62, 0
6, 24900, Note_on_c, 4, 64, 127
6, 24960, Note_on_c, 4, 64, 0
6, 24960, Note_on_c, 4, 68, 127
6, 24960, Note_on_c, 4, 61, 127
6, 25200, Note_on_c, 4, 61, 0
6, 25200, Note_on_c, 4, 68, 0
6, 25200, Note_on_c, 4, 59, 127
6, 25200, Note_on_c, 4, 66, 127
6, 25380, Note_on_c, 4, 66, 0
6, 25380, Note_on_c, 4, 59, 0
6, 25380, Note_on_c, 4, 64, 127
6, 25380, Note_on_c, 4, 57, 127
6, 25680, Note_on_c, 4, 57, 0
6, 25680, Note_on_c, 4, 64, 0
6, 25740, Note_on_c, 4, 71, 127
6, 25740, Note_on_c, 4, 75, 127
6, 25740, Note_on_c, 4, 78, 127
6, 25740, Note_on_c, 4, 83, 127
6, 25800, Note_on_c, 4, 83, 0
6, 25800, Note_on_c, 4, 71, 0
6, 25800, Note_on_c, 4, 75, 0
6, 25800, Note_on_c, 4, 78, 0
6, 25800, Note_on_c, 4, 83, 127
6, 25800, Note_on_c, 4, 78, 127
6, 25800, Note_on_c, 4, 75, 127
6, 25800, Note_on_c, 4, 71, 127
6, 25860, Note_on_c, 4, 71, 0
6, 25860, Note_on_c, 4, 83, 0
6, 25860, Note_on_c, 4, 78, 0
6, 25860, Note_on_c, 4, 75, 0
6, 25860, Note_on_c, 4, 83, 127
6, 25860, Note_on_c, 4, 78, 127
6, 25860, Note_on_c, 4, 75, 127
6, 25860, Note_on_c, 4, 71, 127
6, 25920, Note_on_c, 4, 71, 0
6, 25920, Note_on_c, 4, 83, 0
6, 25920, Note_on_c, 4, 78, 0
6, 25920, Note_on_c, 4, 75, 0
6, 25920, Note_on_c, 4, 71, 127
6, 25920, Note_on_c, 4, 68, 127
6, 25920, Note_on_c, 4, 63, 127
6, 25920, Note_on_c, 4, 56, 127
6, 26040, Note_on_c, 4, 56, 0
6, 26040, Note_on_c, 4, 71, 0
6, 26040, Note_on_c, 4, 68, 0
6, 26040, Note_on_c, 4, 63, 0
6, 26040, Note_on_c, 4, 75, 127
6, 26040, Note_on_c, 4, 80, 127
6, 26040, Note_on_c, 4, 71, 127
6, 26100, Note_on_c, 4, 71, 0
6, 26100, Note_on_c, 4, 80, 0
6, 26100, Note_on_c, 4, 75, 0
6, 26220, Note_on_c, 4, 75, 127
6, 26220, Note_on_c, 4, 71, 127
6, 26220, Note_on_c, 4, 80, 127
6, 26220, Note_on_c, 4, 68, 127
6, 26280, Note_on_c, 4, 68, 0
6, 26280, Note_on_c, 4, 75, 0
6, 26280, Note_on_c, 4, 71, 0
6, 26280, Note_on_c, 4, 80, 0
6, 26340, Note_on_c, 4, 67, 127
6, 26340, Note_on_c, 4, 62, 127
6, 26340, Note_on_c, 4, 71, 127
6, 26340, Note_on_c, 4, 55, 127
6, 26520, Note_on_c, 4, 79, 127
6, 26520, Note_on_c, 4, 74, 127
6, 26520, Note_on_c, 4, 71, 127
6, 26580, Note_on_c, 4, 74, 0
6, 26580, Note_on_c, 4, 71, 0
6, 26580, Note_on_c, 4, 79, 0
6, 26700, Note_on_c, 4, 55, 0
6, 26700, Note_on_c, 4, 67, 0
6, 26700, Note_on_c, 4, 62, 0
6, 26700, Note_on_c, 4, 71, 0
6, 26700, Note_on_c, 4, 79, 127
6, 26700, Note_on_c, 4, 74, 127
6, 26700, Note_on_c, 4, 71, 127
6, 26760, Note_on_c, 4, 71, 0
6, 26760, Note_on_c, 4, 74, 0
6, 26760, Note_on_c, 4, 79, 0
6, 26820, Note_on_c, 4, 79, 127
6, 26820, Note_on_c, 4, 74, 127
6, 26820, Note_on_c, 4, 71, 127
6, 26880, Note_on_c, 4, 71, 0
6, 26880, Note_on_c, 4, 74, 0
6, 26880, Note_on_c, 4, 79, 0
6, 26880, Note_on_c, 4, 68, 127
6, 26880, Note_on_c, 4, 61, 127
6, 26895, Control_c, 4, 7, 126
6, 26905, Control_c, 4, 7, 125
6, 26910, Control_c, 4, 7, 124
6, 26915, Control_c, 4, 7, 123
6, 26920, Control_c, 4, 7, 122
6, 26925, Control_c, 4, 7, 121
6, 26955, Control_c, 4, 7, 120
6, 26960, Control_c, 4, 7, 119
6, 27120, Note_on_c, 4, 61, 0
6, 27120, Note_on_c, 4, 68, 0
6, 27120, Note_on_c, 4, 59, 127
6, 27120, Note_on_c, 4, 66, 127
6, 27300, Note_on_c, 4, 66, 0
6, 27300, Note_on_c, 4, 59, 0
6, 27300, Note_on_c, 4, 64, 127
6, 27300, Note_on_c, 4, 57, 127
6, 27600, Note_on_c, 4, 57, 0
6, 27600, Note_on_c, 4, 64, 0
6, 27660, Note_on_c, 4, 71, 127
6, 27660, Note_on_c, 4, 75, 127
6, 27660, Note_on_c, 4, 78, 127
6, 27660, Note_on_c, 4, 83, 127
6, 27720, Note_on_c, 4, 83, 0
6, 27720, Note_on_c, 4, 71, 0
6, 27720, Note_on_c, 4, 75, 0
6, 27720, Note_on_c, 4, 78, 0
6, 27720, Note_on_c, 4, 83, 127
6, 27720, Note_on_c, 4, 78, 127
6, 27720, Note_on_c, 4, 75, 127
6, 27720, Note_on_c, 4, 71, 127
6, 27780, Note_on_c, 4, 71, 0
6, 27780, Note_on_c, 4, 83, 0
6, 27780, Note_on_c, 4, 78, 0
6, 27780, Note_on_c, 4, 75, 0
6, 27780, Note_on_c, 4, 83, 127
6, 27780, Note_on_c, 4, 78, 127
6, 27780, Note_on_c, 4, 75, 127
6, 27780, Note_on_c, 4, 71, 127
6, 27840, Note_on_c, 4, 71, 0
6, 27840, Note_on_c, 4, 83, 0
6, 27840, Note_on_c, 4, 78, 0
6, 27840, Note_on_c, 4, 75, 0
6, 27840, Note_on_c, 4, 71, 127
6, 27840, Note_on_c, 4, 68, 127
6, 27840, Note_on_c, 4, 63, 127
6, 27840, Note_on_c, 4, 56, 127
6, 27960, Note_on_c, 4, 56, 0
6, 27960, Note_on_c, 4, 71, 0
6, 27960, Note_on_c, 4, 68, 0
6, 27960, Note_on_c, 4, 63, 0
6, 27960, Note_on_c, 4, 75, 127
6, 27960, Note_on_c, 4, 80, 127
6, 27960, Note_on_c, 4, 71, 127
6, 28020, Note_on_c, 4, 71, 0
6, 28020, Note_on_c, 4, 80, 0
6, 28020, Note_on_c, 4, 75, 0
6, 28140, Note_on_c, 4, 75, 127
6, 28140, Note_on_c, 4, 71, 127
6, 28140, Note_on_c, 4, 80, 127
6, 28140, Note_on_c, 4, 68, 127
6, 28200, Note_on_c, 4, 68, 0
6, 28200, Note_on_c, 4, 75, 0
6, 28200, Note_on_c, 4, 71, 0
6, 28200, Note_on_c, 4, 80, 0
6, 28245, Control_c, 4, 7, 121
6, 28252, Control_c, 4, 7, 120
6, 28258, Control_c, 4, 7, 119
6, 28260, Note_on_c, 4, 67, 127
6, 28260, Note_on_c, 4, 62, 127
6, 28260, Note_on_c, 4, 71, 127
6, 28260, Note_on_c, 4, 55, 127
6, 28265, Control_c, 4, 7, 118
6, 28270, Control_c, 4, 7, 117
6, 28280, Control_c, 4, 7, 116
6, 28285, Control_c, 4, 7, 115
6, 28300, Control_c, 4, 7, 114
6, 28310, Control_c, 4, 7, 113
6, 28315, Control_c, 4, 7, 112
6, 28325, Control_c, 4, 7, 111
6, 28355, Control_c, 4, 7, 110
6, 28365, Control_c, 4, 7, 109
6, 28440, Note_on_c, 4, 79, 127
6, 28440, Note_on_c, 4, 74, 127
6, 28440, Note_on_c, 4, 71, 127
6, 28500, Note_on_c, 4, 74, 0
6, 28500, Note_on_c, 4, 71, 0
6, 28500, Note_on_c, 4, 79, 0
6, 28620, Note_on_c, 4, 55, 0
6, 28620, Note_on_c, 4, 67, 0
6, 28620, Note_on_c, 4, 62, 0
6, 28620, Note_on_c, 4, 71, 0
6, 28620, Note_on_c, 4, 79, 127
6, 28620, Note_on_c, 4, 74, 127
6, 28620, Note_on_c, 4, 71, 127
6, 28680, Note_on_c, 4, 71, 0
6, 28680, Note_on_c, 4, 74, 0
6, 28680, Note_on_c, 4, 79, 0
6, 28740, Note_on_c, 4, 79, 127
6, 28740, Note_on_c, 4, 74, 127
6, 28740, Note_on_c, 4, 71, 127
6, 28800, Note_on_c, 4, 71, 0
6, 28800, Note_on_c, 4, 74, 0
6, 28800, Note_on_c, 4, 79, 0
6, 28920, Note_on_c, 4, 84, 127
6, 28920, Note_on_c, 4, 77, 127
6, 28920, Note_on_c, 4, 81, 127
6, 28980, Note_on_c, 4, 81, 0
6, 28980, Note_on_c, 4, 77, 0
6, 28980, Note_on_c, 4, 84, 0
6, 29160, Note_on_c, 4, 84, 127
6, 29160, Note_on_c, 4, 79, 127
6, 29160, Note_on_c, 4, 76, 127
6, 29220, Note_on_c, 4, 76, 0
6, 29220, Note_on_c, 4, 79, 0
6, 29220, Note_on_c, 4, 84, 0
6, 29400, Note_on_c, 4, 78, 127
6, 29400, Note_on_c, 4, 81, 127
6, 29400, Note_on_c, 4, 86, 127
6, 29460, Note_on_c, 4, 86, 0
6, 29460, Note_on_c, 4, 81, 0
6, 29460, Note_on_c, 4, 78, 0
6, 29580, Note_on_c, 4, 86, 127
6, 29580, Note_on_c, 4, 78, 127
6, 29580, Note_on_c, 4, 81, 127
6, 29640, Note_on_c, 4, 81, 0
6, 29640, Note_on_c, 4, 78, 0
6, 29640, Note_on_c, 4, 86, 0
6, 29700, Note_on_c, 4, 81, 127
6, 29700, Note_on_c, 4, 78, 127
6, 29700, Note_on_c, 4, 86, 127
6, 29760, Note_on_c, 4, 86, 0
6, 29760, Note_on_c, 4, 78, 0
6, 29760, Note_on_c, 4, 81, 0
6, 29880, Note_on_c, 4, 81, 127
6, 29880, Note_on_c, 4, 77, 127
6, 29880, Note_on_c, 4, 72, 127
6, 29940, Note_on_c, 4, 72, 0
6, 29940, Note_on_c, 4, 77, 0
6, 29940, Note_on_c, 4, 81, 0
6, 30060, Note_on_c, 4, 81, 127
6, 30060, Note_on_c, 4, 77, 127
6, 30060, Note_on_c, 4, 72, 127
6, 30120, Note_on_c, 4, 72, 0
6, 30120, Note_on_c, 4, 77, 0
6, 30120, Note_on_c, 4, 81, 0
6, 30360, Note_on_c, 4, 83, 127
6, 30360, Note_on_c, 4, 79, 127
6, 30360, Note_on_c, 4, 74, 127
6, 30420, Note_on_c, 4, 74, 0
6, 30420, Note_on_c, 4, 79, 0
6, 30420, Note_on_c, 4, 83, 0
6, 30540, Note_on_c, 4, 83, 127
6, 30540, Note_on_c, 4, 79, 127
6, 30540, Note_on_c, 4, 74, 127
6, 30600, Note_on_c, 4, 74, 0
6, 30600, Note_on_c, 4, 79, 0
6, 30600, Note_on_c, 4, 83, 0
6, 30660, Note_on_c, 4, 83, 127
6, 30660, Note_on_c, 4, 79, 127
6, 30660, Note_on_c, 4, 74, 127
6, 30720, Note_on_c, 4, 74, 0
6, 30720, Note_on_c, 4, 79, 0
6, 30720, Note_on_c, 4, 83, 0
6, 30720, Note_on_c, 4, 57, 127
6, 30720, Note_on_c, 4, 69, 127
6, 30720, Note_on_c, 4, 64, 127
6, 30840, Note_on_c, 4, 64, 0
6, 30840, Note_on_c, 4, 69, 0
6, 30840, Note_on_c, 4, 57, 0
6, 30840, Note_on_c, 4, 79, 127
6, 30840, Note_on_c, 4, 72, 127
6, 30840, Note_on_c, 4, 57, 127
6, 30840, Note_on_c, 4, 69, 127
6, 30840, Note_on_c, 4, 64, 127
6, 30930, Note_on_c, 4, 79, 127
6, 30930, Note_on_c, 4, 69, 127
6, 30930, Note_on_c, 4, 72, 127
6, 30960, Note_on_c, 4, 72, 0
6, 30960, Note_on_c, 4, 79, 0
6, 30960, Note_on_c, 4, 64, 0
6, 30960, Note_on_c, 4, 72, 0
6, 30960, Note_on_c, 4, 57, 0
6, 30960, Note_on_c, 4, 69, 0
6, 30960, Note_on_c, 4, 79, 0
6, 30960, Note_on_c, 4, 69, 0
6, 30960, Note_on_c, 4, 79, 127
6, 30960, Note_on_c, 4, 72, 127
6, 30960, Note_on_c, 4, 69, 127
6, 31020, Note_on_c, 4, 69, 0
6, 31020, Note_on_c, 4, 79, 127
6, 31020, Note_on_c, 4, 71, 127
6, 31020, Note_on_c, 4, 69, 127
6, 31080, Note_on_c, 4, 69, 0
6, 31080, Note_on_c, 4, 79, 0
6, 31080, Note_on_c, 4, 79, 0
6, 31080, Note_on_c, 4, 72, 0
6, 31080, Note_on_c, 4, 71, 0
6, 31080, Note_on_c, 4, 69, 127
6, 31140, Note_on_c, 4, 69, 0
6, 31140, Note_on_c, 4, 67, 127
6, 31200, Note_on_c, 4, 67, 0
6, 31200, Note_on_c, 4, 55, 127
6, 31260, Note_on_c, 4, 55, 0
6, 31260, Note_on_c, 4, 57, 127
6, 31290, Note_on_c, 4, 59, 127
6, 31320, Note_on_c, 4, 59, 0
6, 31320, Note_on_c, 4, 57, 0
6, 31320, Note_on_c, 4, 60, 127
6, 31380, Note_on_c, 4, 60, 0
6, 31380, Note_on_c, 4, 59, 127
6, 31440, Note_on_c, 4, 59, 0
6, 31440, Note_on_c, 4, 69, 127
6, 31440, Note_on_c, 4, 62, 127
6, 31455, Control_c, 4, 7, 113
6, 31470, Control_c, 4, 7, 114
6, 31490, Control_c, 4, 7, 115
6, 31500, Note_on_c, 4, 62, 0
6, 31500, Note_on_c, 4, 69, 0
6, 31500, Note_on_c, 4, 69, 127
6, 31500, Note_on_c, 4, 62, 127
6, 31505, Control_c, 4, 7, 116
6, 31515, Control_c, 4, 7, 117
6, 31530, Control_c, 4, 7, 118
6, 31545, Control_c, 4, 7, 119
6, 31560, Note_on_c, 4, 62, 0
6, 31560, Note_on_c, 4, 69, 0
6, 31560, Note_on_c, 4, 69, 127
6, 31590, Note_on_c, 4, 67, 127
6, 31590, Control_c, 4, 7, 120
6, 31600, Control_c, 4, 7, 121
6, 31613, Control_c, 4, 7, 122
6, 31620, Note_on_c, 4, 67, 0
6, 31620, Note_on_c, 4, 69, 0
6, 31620, Note_on_c, 4, 64, 127
6, 31630, Control_c, 4, 7, 123
6, 31640, Control_c, 4, 7, 124
6, 31650, Note_on_c, 4, 62, 127
6, 31660, Control_c, 4, 7, 125
6, 31675, Control_c, 4, 7, 126
6, 31680, Note_on_c, 4, 62, 0
6, 31680, Note_on_c, 4, 64, 0
6, 31680, Control_c, 4, 7, 127
6, 31680, Note_on_c, 4, 57, 127
6, 31680, Note_on_c, 4, 69, 127
6, 31680, Note_on_c, 4, 64, 127
6, 31800, Note_on_c, 4, 64, 0
6, 31800, Note_on_c, 4, 69, 0
6, 31800, Note_on_c, 4, 57, 0
6, 31800, Note_on_c, 4, 79, 127
6, 31800, Note_on_c, 4, 72, 127
6, 31800, Note_on_c, 4, 57, 127
6, 31800, Note_on_c, 4, 69, 127
6, 31800, Note_on_c, 4, 64, 127
6, 31890, Note_on_c, 4, 79, 127
6, 31890, Note_on_c, 4, 69, 127
6, 31890, Note_on_c, 4, 72, 127
6, 31920, Note_on_c, 4, 72, 0
6, 31920, Note_on_c, 4, 79, 0
6, 31920, Note_on_c, 4, 64, 0
6, 31920, Note_on_c, 4, 72, 0
6, 31920, Note_on_c, 4, 57, 0
6, 31920, Note_on_c, 4, 69, 0
6, 31920, Note_on_c, 4, 79, 0
6, 31920, Note_on_c, 4, 69, 0
6, 31920, Note_on_c, 4, 79, 127
6, 31920, Note_on_c, 4, 72, 127
6, 31920, Note_on_c, 4, 69, 127
6, 31980, Note_on_c, 4, 69, 0
6, 31980, Note_on_c, 4, 79, 127
6, 31980, Note_on_c, 4, 71, 127
6, 31980, Note_on_c, 4, 69, 127
6, 32040, Note_on_c, 4, 69, 0
6, 32040, Note_on_c, 4, 79, 0
6, 32040, Note_on_c, 4, 79, 0
6, 32040, Note_on_c, 4, 72, 0
6, 32040, Note_on_c, 4, 71, 0
6, 32040, Note_on_c, 4, 69, 127
6, 32100, Note_on_c, 4, 69, 0
6, 32100, Note_on_c, 4, 67, 127
6, 32160, Note_on_c, 4, 67, 0
6, 32160, Note_on_c, 4, 55, 127
6, 32220, Note_on_c, 4, 55, 0
6, 32220, Note_on_c, 4, 57, 127
6, 32250, Note_on_c, 4, 59, 127
6, 32280, Note_on_c, 4, 59, 0
6, 32280, Note_on_c, 4, 57, 0
6, 32280, Note_on_c, 4, 60, 127
6, 32340, Note_on_c, 4, 60, 0
6, 32340, Note_on_c, 4, 59, 127
6, 32400, Note_on_c, 4, 59, 0
6, 32400, Note_on_c, 4, 69, 127
6, 32400, Note_on_c, 4, 62, 127
6, 32460, Note_on_c, 4, 62, 0
6, 32460, Note_on_c, 4, 69, 0
6, 32460, Note_on_c, 4, 69, 127
6, 32460, Note_on_c, 4, 62, 127
6, 32520, Note_on_c, 4, 62, 0
6, 32520, Note_on_c, 4, 69, 0
6, 32520, Note_on_c, 4, 69, 127
6, 32550, Note_on_c, 4, 67, 127
6, 32580, Note_on_c, 4, 67, 0
6, 32580, Note_on_c, 4, 69, 0
6, 32580, Note_on_c, 4, 64, 127
6, 32610, Note_on_c, 4, 62, 127
6, 32640, Note_on_c, 4, 62, 0
6, 32640, Note_on_c, 4, 64, 0
6, 32640, Note_on_c, 4, 57, 127
6, 32640, Note_on_c, 4, 69, 127
6, 32640, Note_on_c, 4, 64, 127
6, 32760, Note_on_c, 4, 64, 0
6, 32760, Note_on_c, 4, 69, 0
6, 32760, Note_on_c, 4, 57, 0
6, 32760, Note_on_c, 4, 79, 127
6, 32760, Note_on_c, 4, 72, 127
6, 32760, Note_on_c, 4, 57, 127
6, 32760, Note_on_c, 4, 69, 127
6, 32760, Note_on_c, 4, 64, 127
6, 32850, Note_on_c, 4, 79, 127
6, 32850, Note_on_c, 4, 69, 127
6, 32850, Note_on_c, 4, 72, 127
6, 32880, Note_on_c, 4, 72, 0
6, 32880, Note_on_c, 4, 79, 0
6, 32880, Note_on_c, 4, 64, 0
6, 32880, Note_on_c, 4, 72, 0
6, 32880, Note_on_c, 4, 57, 0
6, 32880, Note_on_c, 4, 69, 0
6, 32880, Note_on_c, 4, 79, 0
6, 32880, Note_on_c, 4, 69, 0
6, 32880, Note_on_c, 4, 79, 127
6, 32880, Note_on_c, 4, 72, 127
6, 32880, Note_on_c, 4, 69, 127
6, 32940, Note_on_c, 4, 69, 0
6, 32940, Note_on_c, 4, 79, 127
6, 32940, Note_on_c, 4, 71, 127
6, 32940, Note_on_c, 4, 69, 127
6, 33000, Note_on_c, 4, 69, 0
6, 33000, Note_on_c, 4, 79, 0
6, 33000, Note_on_c, 4, 79, 0
6, 33000, Note_on_c, 4, 72, 0
6, 33000, Note_on_c, 4, 71, 0
6, 33000, Note_on_c, 4, 69, 127
6, 33060, Note_on_c, 4, 69, 0
6, 33060, Note_on_c, 4, 67, 127
6, 33120, Note_on_c, 4, 67, 0
6, 33120, Note_on_c, 4, 55, 127
6, 33180, Note_on_c, 4, 55, 0
6, 33180, Note_on_c, 4, 57, 127
6, 33210, Note_on_c, 4, 59, 127
6, 33240, Note_on_c, 4, 59, 0
6, 33240, Note_on_c, 4, 57, 0
6, 33240, Note_on_c, 4, 60, 127
6, 33300, Note_on_c, 4, 60, 0
6, 33300, Note_on_c, 4, 59, 127
6, 33360, Note_on_c, 4, 59, 0
6, 33360, Note_on_c, 4, 69, 127
6, 33360, Note_on_c, 4, 62, 127
6, 33420, Note_on_c, 4, 62, 0
6, 33420, Note_on_c, 4, 69, 0
6, 33420, Note_on_c, 4, 69, 127
6, 33420, Note_on_c, 4, 62, 127
6, 33480, Note_on_c, 4, 62, 0
6, 33480, Note_on_c, 4, 69, 0
6, 33480, Note_on_c, 4, 69, 127
6, 33510, Note_on_c, 4, 67, 127
6, 33540, Note_on_c, 4, 67, 0
6, 33540, Note_on_c, 4, 69, 0
6, 33540, Note_on_c, 4, 64, 127
6, 33570, Note_on_c, 4, 62, 127
6, 33600, Note_on_c, 4, 62, 0
6, 33600, Note_on_c, 4, 64, 0
6, 33600, Note_on_c, 4, 77, 127
6, 33600, Note_on_c, 4, 72, 127
6, 33600, Note_on_c, 4, 69, 127
6, 33600, Note_on_c, 4, 65, 127
6, 33600, Note_on_c, 4, 60, 127
6, 33600, Note_on_c, 4, 53, 127
6, 33720, Note_on_c, 4, 53, 0
6, 33720, Note_on_c, 4, 72, 0
6, 33720, Note_on_c, 4, 69, 0
6, 33720, Note_on_c, 4, 77, 0
6, 33720, Note_on_c, 4, 60, 0
6, 33720, Note_on_c, 4, 65, 0
6, 33720, Note_on_c, 4, 53, 127
6, 33780, Note_on_c, 4, 53, 0
6, 33780, Note_on_c, 4, 52, 127
6, 33840, Note_on_c, 4, 52, 0
6, 33840, Note_on_c, 4, 53, 127
6, 33900, Note_on_c, 4, 53, 0
6, 33900, Note_on_c, 4, 52, 127
6, 33960, Note_on_c, 4, 52, 0
6, 33960, Note_on_c, 4, 53, 127
6, 34020, Note_on_c, 4, 53, 0
6, 34020, Note_on_c, 4, 71, 127
6, 34020, Note_on_c, 4, 67, 127
6, 34020, Note_on_c, 4, 55, 127
6, 34020, Note_on_c, 4, 59, 127
6, 34020, Note_on_c, 4, 62, 127
6, 34560, Note_on_c, 4, 62, 0
6, 34560, Note_on_c, 4, 55, 0
6, 34560, Note_on_c, 4, 71, 0
6, 34560, Note_on_c, 4, 67, 0
6, 34560, Note_on_c, 4, 59, 0
6, 45170, Control_c, 4, 7, 81
6, 45216, Control_c, 4, 7, 82
6, 45260, Control_c, 4, 7, 83
6, 45306, Control_c, 4, 7, 84
6, 45350, Control_c, 4, 7, 85
6, 45396, Control_c, 4, 7, 86
6, 45440, Control_c, 4, 7, 87
6, 45486, Control_c, 4, 7, 88
6, 45530, Control_c, 4, 7, 89
6, 46080, Note_on_c, 4, 57, 127
6, 46080, Note_on_c, 4, 69, 127
6, 46080, Note_on_c, 4, 64, 127
6, 46200, Note_on_c, 4, 64, 0
6, 46200, Note_on_c, 4, 69, 0
6, 46200, Note_on_c, 4, 57, 0
6, 46200, Note_on_c, 4, 79, 127
6, 46200, Note_on_c, 4, 72, 127
6, 46200, Note_on_c, 4, 57, 127
6, 46200, Note_on_c, 4, 69, 127
6, 46200, Note_on_c, 4, 64, 127
6, 46290, Note_on_c, 4, 79, 127
6, 46290, Note_on_c, 4, 69, 127
6, 46290, Note_on_c, 4, 72, 127
6, 46320, Note_on_c, 4, 72, 0
6, 46320, Note_on_c, 4, 79, 0
6, 46320, Note_on_c, 4, 64, 0
6, 46320, Note_on_c, 4, 72, 0
6, 46320, Note_on_c, 4, 57, 0
6, 46320, Note_on_c, 4, 69, 0
6, 46320, Note_on_c, 4, 79, 0
6, 46320, Note_on_c, 4, 69, 0
6, 46320, Note_on_c, 4, 79, 127
6, 46320, Note_on_c, 4, 72, 127
6, 46320, Note_on_c, 4, 69, 127
6, 46380, Note_on_c, 4, 69, 0
6, 46380, Note_on_c, 4, 79, 127
6, 46380, Note_on_c, 4, 71, 127
6, 46380, Note_on_c, 4, 69, 127
6, 46440, Note_on_c, 4, 69, 0
6, 46440, Note_on_c, 4, 79, 0
6, 46440, Note_on_c, 4, 79, 0
6, 46440, Note_on_c, 4, 72, 0
6, 46440, Note_on_c, 4, 71, 0
6, 46440, Note_on_c, 4, 69, 127
6, 46500, Note_on_c, 4, 69, 0
6, 46500, Note_on_c, 4, 67, 127
6, 46560, Note_on_c, 4, 67, 0
6, 46560, Note_on_c, 4, 55, 127
6, 46620, Note_on_c, 4, 55, 0
6, 46620, Note_on_c, 4, 57, 127
6, 46650, Note_on_c, 4, 59, 127
6, 46680, Note_on_c, 4, 59, 0
6, 46680, Note_on_c, 4, 57, 0
6, 46680, Note_on_c, 4, 60, 127
6, 46740, Note_on_c, 4, 60, 0
6, 46740, Note_on_c, 4, 59, 127
6, 46800, Note_on_c, 4, 59, 0
6, 46800, Note_on_c, 4, 69, 127
6, 46800, Note_on_c, 4, 62, 127
6, 46860, Note_on_c, 4, 62, 0
6, 46860, Note_on_c, 4, 69, 0
6, 46860, Note_on_c, 4, 69, 127
6, 46860, Note_on_c, 4, 62, 127
6, 46920, Note_on_c, 4, 62, 0
6, 46920, Note_on_c, 4, 69, 0
6, 46920, Note_on_c, 4, 69, 127
6, 46950, Note_on_c, 4, 67, 127
6, 46980, Note_on_c, 4, 67, 0
6, 46980, Note_on_c, 4, 69, 0
6, 46980, Note_on_c, 4, 64, 127
6, 47010, Note_on_c, 4, 62, 127
6, 47040, Note_on_c, 4, 62, 0
6, 47040, Note_on_c, 4, 64, 0
6, 47040, Note_on_c, 4, 57, 127
6, 47040, Note_on_c, 4, 69, 127
6, 47040, Note_on_c, 4, 64, 127
6, 47160, Note_on_c, 4, 64, 0
6, 47160, Note_on_c, 4, 69, 0
6, 47160, Note_on_c, 4, 57, 0
6, 47160, Note_on_c, 4, 79, 127
6, 47160, Note_on_c, 4, 72, 127
6, 47160, Note_on_c, 4, 57, 127
6, 47160, Note_on_c, 4, 69, 127
6, 47160, Note_on_c, 4, 64, 127
6, 47250, Note_on_c, 4, 79, 127
6, 47250, Note_on_c, 4, 69, 127
6, 47250, Note_on_c, 4, 72, 127
6, 47280, Note_on_c, 4, 72, 0
6, 47280, Note_on_c, 4, 79, 0
6, 47280, Note_on_c, 4, 64, 0
6, 47280, Note_on_c, 4, 72, 0
6, 47280, Note_on_c, 4, 57, 0
6, 47280, Note_on_c, 4, 69, 0
6, 47280, Note_on_c, 4, 79, 0
6, 47280, Note_on_c, 4, 69, 0
6, 47280, Note_on_c, 4, 79, 127
6, 47280, Note_on_c, 4, 72, 127
6, 47280, Note_on_c, 4, 69, 127
6, 47340, Note_on_c, 4, 69, 0
6, 47340, Note_on_c, 4, 79, 127
6, 47340, Note_on_c, 4, 71, 127
6, 47340, Note_on_c, 4, 69, 127
6, 47400, Note_on_c, 4, 69, 0
6, 47400, Note_on_c, 4, 79, 0
6, 47400, Note_on_c, 4, 79, 0
6, 47400, Note_on_c, 4, 72, 0
6, 47400, Note_on_c, 4, 71, 0
6, 47400, Note_on_c, 4, 69, 127
6, 47460, Note_on_c, 4, 69, 0
6, 47460, Note_on_c, 4, 67, 127
6, 47520, Note_on_c, 4, 67, 0
6, 47520, Note_on_c, 4, 55, 127
6, 47580, Note_on_c, 4, 55, 0
6, 47580, Note_on_c, 4, 57, 127
6, 47610, Note_on_c, 4, 59, 127
6, 47640, Note_on_c, 4, 59, 0
6, 47640, Note_on_c, 4, 57, 0
6, 47640, Note_on_c, 4, 60, 127
6, 47700, Note_on_c, 4, 60, 0
6, 47700, Note_on_c, 4, 59, 127
6, 47760, Note_on_c, 4, 59, 0
6, 47760, Note_on_c, 4, 69, 127
6, 47760, Note_on_c, 4, 62, 127
6, 47820, Note_on_c, 4, 62, 0
6, 47820, Note_on_c, 4, 69, 0
6, 47820, Note_on_c, 4, 69, 127
6, 47820, Note_on_c, 4, 62, 127
6, 47880, Note_on_c, 4, 62, 0
6, 47880, Note_on_c, 4, 69, 0
6, 47880, Note_on_c, 4, 69, 127
6, 47910, Note_on_c, 4, 67, 127
6, 47940, Note_on_c, 4, 67, 0
6, 47940, Note_on_c, 4, 69, 0
6, 47940, Note_on_c, 4, 64, 127
6, 47970, Note_on_c, 4, 62, 127
6, 48000, Note_on_c, 4, 62, 0
6, 48000, Note_on_c, 4, 64, 0
6, 48000, Note_on_c, 4, 57, 127
6, 48000, Note_on_c, 4, 69, 127
6, 48000, Note_on_c, 4, 64, 127
6, 48120, Note_on_c, 4, 64, 0
6, 48120, Note_on_c, 4, 69, 0
6, 48120, Note_on_c, 4, 57, 0
6, 48120, Note_on_c, 4, 79, 127
6, 48120, Note_on_c, 4, 72, 127
6, 48120, Note_on_c, 4, 57, 127
6, 48120, Note_on_c, 4, 69, 127
6, 48120, Note_on_c, 4, 64, 127
6, 48210, Note_on_c, 4, 79, 127
6, 48210, Note_on_c, 4, 69, 127
6, 48210, Note_on_c, 4, 72, 127
6, 48240, Note_on_c, 4, 72, 0
6, 48240, Note_on_c, 4, 79, 0
6, 48240, Note_on_c, 4, 64, 0
6, 48240, Note_on_c, 4, 72, 0
6, 48240, Note_on_c, 4, 57, 0
6, 48240, Note_on_c, 4, 69, 0
6, 48240, Note_on_c, 4, 79, 0
6, 48240, Note_on_c, 4, 69, 0
6, 48240, Note_on_c, 4, 79, 127
6, 48240, Note_on_c, 4, 72, 127
6, 48240, Note_on_c, 4, 69, 127
6, 48300, Note_on_c, 4, 69, 0
6, 48300, Note_on_c, 4, 79, 127
6, 48300, Note_on_c, 4, 71, 127
6, 48300, Note_on_c, 4, 69, 127
6, 48360, Note_on_c, 4, 69, 0
6, 48360, Note_on_c, 4, 79, 0
6, 48360, Note_on_c, 4, 79, 0
6, 48360, Note_on_c, 4, 72, 0
6, 48360, Note_on_c, 4, 71, 0
6, 48360, Note_on_c, 4, 69, 127
6, 48420, Note_on_c, 4, 69, 0
6, 48420, Note_on_c, 4, 67, 127
6, 48480, Note_on_c, 4, 67, 0
6, 48480, Note_on_c, 4, 55, 127
6, 48540, Note_on_c, 4, 55, 0
6, 48540, Note_on_c, 4, 57, 127
6, 48570, Note_on_c, 4, 59, 127
6, 48600, Note_on_c, 4, 59, 0
6, 48600, Note_on_c, 4, 57, 0
6, 48600, Note_on_c, 4, 60, 127
6, 48660, Note_on_c, 4, 60, 0
6, 48660, Note_on_c, 4, 59, 127
6, 48720, Note_on_c, 4, 59, 0
6, 48720, Note_on_c, 4, 69, 127
6, 48720, Note_on_c, 4, 62, 127
6, 48780, Note_on_c, 4, 62, 0
6, 48780, Note_on_c, 4, 69, 0
6, 48780, Note_on_c, 4, 69, 127
6, 48780, Note_on_c, 4, 62, 127
6, 48840, Note_on_c, 4, 62, 0
6, 48840, Note_on_c, 4, 69, 0
6, 48840, Note_on_c, 4, 69, 127
6, 48870, Note_on_c, 4, 67, 127
6, 48900, Note_on_c, 4, 67, 0
6, 48900, Note_on_c, 4, 69, 0
6, 48900, Note_on_c, 4, 64, 127
6, 48930, Note_on_c, 4, 62, 127
6, 48960, Note_on_c, 4, 62, 0
6, 48960, Note_on_c, 4, 64, 0
6, 48960, Note_on_c, 4, 77, 127
6, 48960, Note_on_c, 4, 72, 127
6, 48960, Note_on_c, 4, 69, 127
6, 48960, Note_on_c, 4, 65, 127
6, 48960, Note_on_c, 4, 60, 127
6, 48960, Note_on_c, 4, 53, 127
6, 49080, Note_on_c, 4, 53, 0
6, 49080, Note_on_c, 4, 72, 0
6, 49080, Note_on_c, 4, 69, 0
6, 49080, Note_on_c, 4, 77, 0
6, 49080, Note_on_c, 4, 60, 0
6, 49080, Note_on_c, 4, 65, 0
6, 49080, Note_on_c, 4, 53, 127
6, 49140, Note_on_c, 4, 53, 0
6, 49140, Note_on_c, 4, 52, 127
6, 49200, Note_on_c, 4, 52, 0
6, 49200, Note_on_c, 4, 53, 127
6, 49260, Note_on_c, 4, 53, 0
6, 49260, Note_on_c, 4, 52, 127
6, 49320, Note_on_c, 4, 52, 0
6, 49320, Note_on_c, 4, 53, 127
6, 49380, Note_on_c, 4, 53, 0
6, 49380, Note_on_c, 4, 71, 127
6, 49380, Note_on_c, 4, 67, 127
6, 49380, Note_on_c, 4, 55, 127
6, 49380, Note_on_c, 4, 59, 127
6, 49380, Note_on_c, 4, 62, 127
6, 49920, Note_on_c, 4, 62, 0
6, 49920, Note_on_c, 4, 55, 0
6, 49920, Note_on_c, 4, 71, 0
6, 49920, Note_on_c, 4, 67, 0
6, 49920, Note_on_c, 4, 59, 0
6, 49920, Note_on_c, 4, 57, 127
6, 49920, Note_on_c, 4, 69, 127
6, 49920, Note_on_c, 4, 64, 127
6, 50040, Note_on_c, 4, 64, 0
6, 50040, Note_on_c, 4, 69, 0
6, 50040, Note_on_c, 4, 57, 0
6, 50040, Note_on_c, 4, 79, 127
6, 50040, Note_on_c, 4, 72, 127
6, 50040, Note_on_c, 4, 57, 127
6, 50040, Note_on_c, 4, 69, 127
6, 50040, Note_on_c, 4, 64, 127
6, 50130, Note_on_c, 4, 79, 127
6, 50130, Note_on_c, 4, 69, 127
6, 50130, Note_on_c, 4, 72, 127
6, 50160, Note_on_c, 4, 72, 0
6, 50160, Note_on_c, 4, 79, 0
6, 50160, Note_on_c, 4, 64, 0
6, 50160, Note_on_c, 4, 72, 0
6, 50160, Note_on_c, 4, 57, 0
6, 50160, Note_on_c, 4, 69, 0
6, 50160, Note_on_c, 4, 79, 0
6, 50160, Note_on_c, 4, 69, 0
6, 50160, Note_on_c, 4, 79, 127
6, 50160, Note_on_c, 4, 72, 127
6, 50160, Note_on_c, 4, 69, 127
6, 50220, Note_on_c, 4, 69, 0
6, 50220, Note_on_c, 4, 79, 127
6, 50220, Note_on_c, 4, 71, 127
6, 50220, Note_on_c, 4, 69, 127
6, 50280, Note_on_c, 4, 69, 0
6, 50280, Note_on_c, 4, 79, 0
6, 50280, Note_on_c, 4, 79, 0
6, 50280, Note_on_c, 4, 72, 0
6, 50280, Note_on_c, 4, 71, 0
6, 50280, Note_on_c, 4, 69, 127
6, 50340, Note_on_c, 4, 69, 0
6, 50340, Note_on_c, 4, 67, 127
6, 50400, Note_on_c, 4, 67, 0
6, 50400, Note_on_c, 4, 55, 127
6, 50460, Note_on_c, 4, 55, 0
6, 50460, Note_on_c, 4, 57, 127
6, 50490, Note_on_c, 4, 59, 127
6, 50520, Note_on_c, 4, 59, 0
6, 50520, Note_on_c, 4, 57, 0
6, 50520, Note_on_c, 4, 60, 127
6, 50580, Note_on_c, 4, 60, 0
6, 50580, Note_on_c, 4, 59, 127
6, 50640, Note_on_c, 4, 59, 0
6, 50640, Note_on_c, 4, 69, 127
6, 50640, Note_on_c, 4, 62, 127
6, 50700, Note_on_c, 4, 62, 0
6, 50700, Note_on_c, 4, 69, 0
6, 50700, Note_on_c, 4, 69, 127
6, 50700, Note_on_c, 4, 62, 127
6, 50760, Note_on_c, 4, 62, 0
6, 50760, Note_on_c, 4, 69, 0
6, 50760, Note_on_c, 4, 69, 127
6, 50790, Note_on_c, 4, 67, 127
6, 50820, Note_on_c, 4, 67, 0
6, 50820, Note_on_c, 4, 69, 0
6, 50820, Note_on_c, 4, 64, 127
6, 50850, Note_on_c, 4, 62, 127
6, 50880, Note_on_c, 4, 62, 0
6, 50880, Note_on_c, 4, 64, 0
6, 50880, Note_on_c, 4, 57, 127
6, 50880, Note_on_c, 4, 69, 127
6, 50880, Note_on_c, 4, 64, 127
6, 51000, Note_on_c, 4, 64, 0
6, 51000, Note_on_c, 4, 69, 0
6, 51000, Note_on_c, 4, 57, 0
6, 51000, Note_on_c, 4, 79, 127
6, 51000, Note_on_c, 4, 72, 127
6, 51000, Note_on_c, 4, 57, 127
6, 51000, Note_on_c, 4, 69, 127
6, 51000, Note_on_c, 4, 64, 127
6, 51090, Note_on_c, 4, 79, 127
6, 51090, Note_on_c, 4, 69, 127
6, 51090, Note_on_c, 4, 72, 127
6, 51120, Note_on_c, 4, 72, 0
6, 51120, Note_on_c, 4, 79, 0
6, 51120, Note_on_c, 4, 64, 0
6, 51120, Note_on_c, 4, 72, 0
6, 51120, Note_on_c, 4, 57, 0
6, 51120, Note_on_c, 4, 69, 0
6, 51120, Note_on_c, 4, 79, 0
6, 51120, Note_on_c, 4, 69, 0
6, 51120, Note_on_c, 4, 79, 127
6, 51120, Note_on_c, 4, 72, 127
6, 51120, Note_on_c, 4, 69, 127
6, 51180, Note_on_c, 4, 69, 0
6, 51180, Note_on_c, 4, 79, 127
6, 51180, Note_on_c, 4, 71, 127
6, 51180, Note_on_c, 4, 69, 127
6, 51240, Note_on_c, 4, 69, 0
6, 51240, Note_on_c, 4, 79, 0
6, 51240, Note_on_c, 4, 79, 0
6, 51240, Note_on_c, 4, 72, 0
6, 51240, Note_on_c, 4, 71, 0
6, 51240, Note_on_c, 4, 69, 127
6, 51300, Note_on_c, 4, 69, 0
6, 51300, Note_on_c, 4, 67, 127
6, 51360, Note_on_c, 4, 67, 0
6, 51360, Note_on_c, 4, 55, 127
6, 51420, Note_on_c, 4, 55, 0
6, 51420, Note_on_c, 4, 57, 127
6, 51450, Note_on_c, 4, 59, 127
6, 51480, Note_on_c, 4, 59, 0
6, 51480, Note_on_c, 4, 57, 0
6, 51480, Note_on_c, 4, 60, 127
6, 51540, Note_on_c, 4, 60, 0
6, 51540, Note_on_c, 4, 59, 127
6, 51600, Note_on_c, 4, 59, 0
6, 51600, Note_on_c, 4, 69, 127
6, 51600, Note_on_c, 4, 62, 127
6, 51660, Note_on_c, 4, 62, 0
6, 51660, Note_on_c, 4, 69, 0
6, 51660, Note_on_c, 4, 69, 127
6, 51660, Note_on_c, 4, 62, 127
6, 51720, Note_on_c, 4, 62, 0
6, 51720, Note_on_c, 4, 69, 0
6, 51720, Note_on_c, 4, 69, 127
6, 51750, Note_on_c, 4, 67, 127
6, 51780, Note_on_c, 4, 67, 0
6, 51780, Note_on_c, 4, 69, 0
6, 51780, Note_on_c, 4, 64, 127
6, 51810, Note_on_c, 4, 62, 127
6, 51840, Note_on_c, 4, 62, 0
6, 51840, Note_on_c, 4, 64, 0
6, 51840, Note_on_c, 4, 57, 127
6, 51840, Note_on_c, 4, 69, 127
6, 51840, Note_on_c, 4, 64, 127
6, 51960, Note_on_c, 4, 64, 0
6, 51960, Note_on_c, 4, 69, 0
6, 51960, Note_on_c, 4, 57, 0
6, 51960, Note_on_c, 4, 79, 127
6, 51960, Note_on_c, 4, 72, 127
6, 51960, Note_on_c, 4, 57, 127
6, 51960, Note_on_c, 4, 69, 127
6, 51960, Note_on_c, 4, 64, 127
6, 52050, Note_on_c, 4, 79, 127
6, 52050, Note_on_c, 4, 69, 127
6, 52050, Note_on_c, 4, 72, 127
6, 52080, Note_on_c, 4, 72, 0
6, 52080, Note_on_c, 4, 79, 0
6, 52080, Note_on_c, 4, 64, 0
6, 52080, Note_on_c, 4, 72, 0
6, 52080, Note_on_c, 4, 57, 0
6, 52080, Note_on_c, 4, 69, 0
6, 52080, Note_on_c, 4, 79, 0
6, 52080, Note_on_c, 4, 69, 0
6, 52080, Note_on_c, 4, 79, 127
6, 52080, Note_on_c, 4, 72, 127
6, 52080, Note_on_c, 4, 69, 127
6, 52140, Note_on_c, 4, 69, 0
6, 52140, Note_on_c, 4, 79, 127
6, 52140, Note_on_c, 4, 71, 127
6, 52140, Note_on_c, 4, 69, 127
6, 52200, Note_on_c, 4, 69, 0
6, 52200, Note_on_c, 4, 79, 0
6, 52200, Note_on_c, 4, 79, 0
6, 52200, Note_on_c, 4, 72, 0
6, 52200, Note_on_c, 4, 71, 0
6, 52200, Note_on_c, 4, 69, 127
6, 52260, Note_on_c, 4, 69, 0
6, 52260, Note_on_c, 4, 67, 127
6, 52320, Note_on_c, 4, 67, 0
6, 52320, Note_on_c, 4, 55, 127
6, 52380, Note_on_c, 4, 55, 0
6, 52380, Note_on_c, 4, 57, 127
6, 52410, Note_on_c, 4, 59, 127
6, 52440, Note_on_c, 4, 59, 0
6, 52440, Note_on_c, 4, 57, 0
6, 52440, Note_on_c, 4, 60, 127
6, 52500, Note_on_c, 4, 60, 0
6, 52500, Note_on_c, 4, 59, 127
6, 52560, Note_on_c, 4, 59, 0
6, 52560, Note_on_c, 4, 69, 127
6, 52560, Note_on_c, 4, 62, 127
6, 52620, Note_on_c, 4, 62, 0
6, 52620, Note_on_c, 4, 69, 0
6, 52620, Note_on_c, 4, 69, 127
6, 52620, Note_on_c, 4, 62, 127
6, 52680, Note_on_c, 4, 62, 0
6, 52680, Note_on_c, 4, 69, 0
6, 52680, Note_on_c, 4, 69, 127
6, 52710, Note_on_c, 4, 67, 127
6, 52740, Note_on_c, 4, 67, 0
6, 52740, Note_on_c, 4, 69, 0
6, 52740, Note_on_c, 4, 64, 127
6, 52770, Note_on_c, 4, 62, 127
6, 52800, Note_on_c, 4, 62, 0
6, 52800, Note_on_c, 4, 64, 0
6, 52800, Note_on_c, 4, 77, 127
6, 52800, Note_on_c, 4, 72, 127
6, 52800, Note_on_c, 4, 69, 127
6, 52800, Note_on_c, 4, 65, 127
6, 52800, Note_on_c, 4, 60, 127
6, 52800, Note_on_c, 4, 53, 127
6, 52920, Note_on_c, 4, 53, 0
6, 52920, Note_on_c, 4, 72, 0
6, 52920, Note_on_c, 4, 69, 0
6, 52920, Note_on_c, 4, 77, 0
6, 52920, Note_on_c, 4, 60, 0
6, 52920, Note_on_c, 4, 65, 0
6, 52920, Note_on_c, 4, 53, 127
6, 52980, Note_on_c, 4, 53, 0
6, 52980, Note_on_c, 4, 52, 127
6, 53040, Note_on_c, 4, 52, 0
6, 53040, Note_on_c, 4, 53, 127
6, 53100, Note_on_c, 4, 53, 0
6, 53100, Note_on_c, 4, 52, 127
6, 53160, Note_on_c, 4, 52, 0
6, 53160, Note_on_c, 4, 53, 127
6, 53220, Note_on_c, 4, 53, 0
6, 53220, Note_on_c, 4, 71, 127
6, 53220, Note_on_c, 4, 67, 127
6, 53220, Note_on_c, 4, 55, 127
6, 53220, Note_on_c, 4, 59, 127
6, 53220, Note_on_c, 4, 62, 127
6, 53760, Note_on_c, 4, 62, 0
6, 53760, Note_on_c, 4, 55, 0
6, 53760, Note_on_c, 4, 71, 0
6, 53760, Note_on_c, 4, 67, 0
6, 53760, Note_on_c, 4, 59, 0
6, 53760, Note_on_c, 4, 57, 127
6, 53760, Note_on_c, 4, 69, 127
6, 53760, Note_on_c, 4, 64, 127
6, 53880, Note_on_c, 4, 64, 0
6, 53880, Note_on_c, 4, 69, 0
6, 53880, Note_on_c, 4, 57, 0
6, 53880, Note_on_c, 4, 79, 127
6, 53880, Note_on_c, 4, 72, 127
6, 53880, Note_on_c, 4, 57, 127
6, 53880, Note_on_c, 4, 69, 127
6, 53880, Note_on_c, 4, 64, 127
6, 53970, Note_on_c, 4, 79, 127
6, 53970, Note_on_c, 4, 69, 127
6, 53970, Note_on_c, 4, 72, 127
6, 54000, Note_on_c, 4, 72, 0
6, 54000, Note_on_c, 4, 79, 0
6, 54000, Note_on_c, 4, 64, 0
6, 54000, Note_on_c, 4, 72, 0
6, 54000, Note_on_c, 4, 57, 0
6, 54000, Note_on_c, 4, 69, 0
6, 54000, Note_on_c, 4, 79, 0
6, 54000, Note_on_c, 4, 69, 0
6, 54000, Note_on_c, 4, 79, 127
6, 54000, Note_on_c, 4, 72, 127
6, 54000, Note_on_c, 4, 69, 127
6, 54060, Note_on_c, 4, 69, 0
6, 54060, Note_on_c, 4, 79, 127
6, 54060, Note_on_c, 4, 71, 127
6, 54060, Note_on_c, 4, 69, 127
6, 54120, Note_on_c, 4, 69, 0
6, 54120, Note_on_c, 4, 79, 0
6, 54120, Note_on_c, 4, 79, 0
6, 54120, Note_on_c, 4, 72, 0
6, 54120, Note_on_c, 4, 71, 0
6, 54120, Note_on_c, 4, 69, 127
6, 54180, Note_on_c, 4, 69, 0
6, 54180, Note_on_c, 4, 67, 127
6, 54240, Note_on_c, 4, 67, 0
6, 54240, Note_on_c, 4, 55, 127
6, 54300, Note_on_c, 4, 55, 0
6, 54300, Note_on_c, 4, 57, 127
6, 54330, Note_on_c, 4, 59, 127
6, 54360, Note_on_c, 4, 59, 0
6, 54360, Note_on_c, 4, 57, 0
6, 54360, Note_on_c, 4, 60, 127
6, 54420, Note_on_c, 4, 60, 0
6, 54420, Note_on_c, 4, 59, 127
6, 54480, Note_on_c, 4, 59, 0
6, 54480, Note_on_c, 4, 69, 127
6, 54480, Note_on_c, 4, 62, 127
6, 54540, Note_on_c, 4, 62, 0
6, 54540, Note_on_c, 4, 69, 0
6, 54540, Note_on_c, 4, 69, 127
6, 54540, Note_on_c, 4, 62, 127
6, 54600, Note_on_c, 4, 62, 0
6, 54600, Note_on_c, 4, 69, 0
6, 54600, Note_on_c, 4, 69, 127
6, 54630, Note_on_c, 4, 67, 127
6, 54660, Note_on_c, 4, 67, 0
6, 54660, Note_on_c, 4, 69, 0
6, 54660, Note_on_c, 4, 64, 127
6, 54690, Note_on_c, 4, 62, 127
6, 54720, Note_on_c, 4, 62, 0
6, 54720, Note_on_c, 4, 64, 0
6, 54720, Note_on_c, 4, 57, 127
6, 54720, Note_on_c, 4, 69, 127
6, 54720, Note_on_c, 4, 64, 127
6, 54840, Note_on_c, 4, 64, 0
6, 54840, Note_on_c, 4, 69, 0
6, 54840, Note_on_c, 4, 57, 0
6, 54840, Note_on_c, 4, 79, 127
6, 54840, Note_on_c, 4, 72, 127
6, 54840, Note_on_c, 4, 57, 127
6, 54840, Note_on_c, 4, 69, 127
6, 54840, Note_on_c, 4, 64, 127
6, 54930, Note_on_c, 4, 79, 127
6, 54930, Note_on_c, 4, 69, 127
6, 54930, Note_on_c, 4, 72, 127
6, 54960, Note_on_c, 4, 72, 0
6, 54960, Note_on_c, 4, 79, 0
6, 54960, Note_on_c, 4, 64, 0
6, 54960, Note_on_c, 4, 72, 0
6, 54960, Note_on_c, 4, 57, 0
6, 54960, Note_on_c, 4, 69, 0
6, 54960, Note_on_c, 4, 79, 0
6, 54960, Note_on_c, 4, 69, 0
6, 54960, Note_on_c, 4, 79, 127
6, 54960, Note_on_c, 4, 72, 127
6, 54960, Note_on_c, 4, 69, 127
6, 55020, Note_on_c, 4, 69, 0
6, 55020, Note_on_c, 4, 79, 127
6, 55020, Note_on_c, 4, 71, 127
6, 55020, Note_on_c, 4, 69, 127
6, 55080, Note_on_c, 4, 69, 0
6, 55080, Note_on_c, 4, 79, 0
6, 55080, Note_on_c, 4, 79, 0
6, 55080, Note_on_c, 4, 72, 0
6, 55080, Note_on_c, 4, 71, 0
6, 55080, Note_on_c, 4, 69, 127
6, 55140, Note_on_c, 4, 69, 0
6, 55140, Note_on_c, 4, 67, 127
6, 55200, Note_on_c, 4, 67, 0
6, 55200, Note_on_c, 4, 55, 127
6, 55260, Note_on_c, 4, 55, 0
6, 55260, Note_on_c, 4, 57, 127
6, 55290, Note_on_c, 4, 59, 127
6, 55320, Note_on_c, 4, 59, 0
6, 55320, Note_on_c, 4, 57, 0
6, 55320, Note_on_c, 4, 60, 127
6, 55380, Note_on_c, 4, 60, 0
6, 55380, Note_on_c, 4, 59, 127
6, 55440, Note_on_c, 4, 59, 0
6, 55440, Note_on_c, 4, 69, 127
6, 55440, Note_on_c, 4, 62, 127
6, 55500, Note_on_c, 4, 62, 0
6, 55500, Note_on_c, 4, 69, 0
6, 55500, Note_on_c, 4, 69, 127
6, 55500, Note_on_c, 4, 62, 127
6, 55560, Note_on_c, 4, 62, 0
6, 55560, Note_on_c, 4, 69, 0
6, 55560, Note_on_c, 4, 69, 127
6, 55590, Note_on_c, 4, 67, 127
6, 55620, Note_on_c, 4, 67, 0
6, 55620, Note_on_c, 4, 69, 0
6, 55620, Note_on_c, 4, 64, 127
6, 55650, Note_on_c, 4, 62, 127
6, 55680, Note_on_c, 4, 62, 0
6, 55680, Note_on_c, 4, 64, 0
6, 55680, Note_on_c, 4, 57, 127
6, 55680, Note_on_c, 4, 69, 127
6, 55680, Note_on_c, 4, 64, 127
6, 55800, Note_on_c, 4, 64, 0
6, 55800, Note_on_c, 4, 69, 0
6, 55800, Note_on_c, 4, 57, 0
6, 55800, Note_on_c, 4, 79, 127
6, 55800, Note_on_c, 4, 72, 127
6, 55800, Note_on_c, 4, 57, 127
6, 55800, Note_on_c, 4, 69, 127
6, 55800, Note_on_c, 4, 64, 127
6, 55890, Note_on_c, 4, 79, 127
6, 55890, Note_on_c, 4, 69, 127
6, 55890, Note_on_c, 4, 72, 127
6, 55920, Note_on_c, 4, 72, 0
6, 55920, Note_on_c, 4, 79, 0
6, 55920, Note_on_c, 4, 64, 0
6, 55920, Note_on_c, 4, 72, 0
6, 55920, Note_on_c, 4, 57, 0
6, 55920, Note_on_c, 4, 69, 0
6, 55920, Note_on_c, 4, 79, 0
6, 55920, Note_on_c, 4, 69, 0
6, 55920, Note_on_c, 4, 79, 127
6, 55920, Note_on_c, 4, 72, 127
6, 55920, Note_on_c, 4, 69, 127
6, 55980, Note_on_c, 4, 69, 0
6, 55980, Note_on_c, 4, 79, 127
6, 55980, Note_on_c, 4, 71, 127
6, 55980, Note_on_c, 4, 69, 127
6, 56040, Note_on_c, 4, 69, 0
6, 56040, Note_on_c, 4, 79, 0
6, 56040, Note_on_c, 4, 79, 0
6, 56040, Note_on_c, 4, 72, 0
6, 56040, Note_on_c, 4, 71, 0
6, 56040, Note_on_c, 4, 69, 127
6, 56100, Note_on_c, 4, 69, 0
6, 56100, Note_on_c, 4, 67, 127
6, 56160, Note_on_c, 4, 67, 0
6, 56160, Note_on_c, 4, 55, 127
6, 56220, Note_on_c, 4, 55, 0
6, 56220, Note_on_c, 4, 57, 127
6, 56250, Note_on_c, 4, 59, 127
6, 56280, Note_on_c, 4, 59, 0
6, 56280, Note_on_c, 4, 57, 0
6, 56280, Note_on_c, 4, 60, 127
6, 56340, Note_on_c, 4, 60, 0
6, 56340, Note_on_c, 4, 59, 127
6, 56400, Note_on_c, 4, 59, 0
6, 56400, Note_on_c, 4, 69, 127
6, 56400, Note_on_c, 4, 62, 127
6, 56460, Note_on_c, 4, 62, 0
6, 56460, Note_on_c, 4, 69, 0
6, 56460, Note_on_c, 4, 69, 127
6, 56460, Note_on_c, 4, 62, 127
6, 56520, Note_on_c, 4, 62, 0
6, 56520, Note_on_c, 4, 69, 0
6, 56520, Note_on_c, 4, 69, 127
6, 56550, Note_on_c, 4, 67, 127
6, 56580, Note_on_c, 4, 67, 0
6, 56580, Note_on_c, 4, 69, 0
6, 56580, Note_on_c, 4, 64, 127
6, 56610, Note_on_c, 4, 62, 127
6, 56640, Note_on_c, 4, 62, 0
6, 56640, Note_on_c, 4, 64, 0
6, 56640, Note_on_c, 4, 77, 127
6, 56640, Note_on_c, 4, 72, 127
6, 56640, Note_on_c, 4, 69, 127
6, 56640, Note_on_c, 4, 65, 127
6, 56640, Note_on_c, 4, 60, 127
6, 56640, Note_on_c, 4, 53, 127
6, 56760, Note_on_c, 4, 53, 0
6, 56760, Note_on_c, 4, 72, 0
6, 56760, Note_on_c, 4, 69, 0
6, 56760, Note_on_c, 4, 77, 0
6, 56760, Note_on_c, 4, 60, 0
6, 56760, Note_on_c, 4, 65, 0
6, 56760, Note_on_c, 4, 53, 127
6, 56820, Note_on_c, 4, 53, 0
6, 56820, Note_on_c, 4, 52, 127
6, 56880, Note_on_c, 4, 52, 0
6, 56880, Note_on_c, 4, 53, 127
6, 56940, Note_on_c, 4, 53, 0
6, 56940, Note_on_c, 4, 52, 127
6, 57000, Note_on_c, 4, 52, 0
6, 57000, Note_on_c, 4, 53, 127
6, 57060, Note_on_c, 4, 53, 0
6, 57060, Note_on_c, 4, 71, 127
6, 57060, Note_on_c, 4, 67, 127
6, 57060, Note_on_c, 4, 55, 127
6, 57060, Note_on_c, 4, 59, 127
6, 57060, Note_on_c, 4, 62, 127
6, 57600, Note_on_c, 4, 62, 0
6, 57600, Note_on_c, 4, 55, 0
6, 57600, Note_on_c, 4, 71, 0
6, 57600, Note_on_c, 4, 67, 0
6, 57600, Note_on_c, 4, 59, 0
6, 57600, Note_on_c, 4, 57, 127
6, 57600, Note_on_c, 4, 69, 127
6, 57600, Note_on_c, 4, 64, 127
6, 57720, Note_on_c, 4, 64, 0
6, 57720, Note_on_c, 4, 69, 0
6, 57720, Note_on_c, 4, 57, 0
6, 57720, Note_on_c, 4, 79, 127
6, 57720, Note_on_c, 4, 72, 127
6, 57720, Note_on_c, 4, 57, 127
6, 57720, Note_on_c, 4, 69, 127
6, 57720, Note_on_c, 4, 64, 127
6, 57810, Note_on_c, 4, 79, 127
6, 57810, Note_on_c, 4, 69, 127
6, 57810, Note_on_c, 4, 72, 127
6, 57840, Note_on_c, 4, 72, 0
6, 57840, Note_on_c, 4, 79, 0
6, 57840, Note_on_c, 4, 64, 0
6, 57840, Note_on_c, 4, 72, 0
6, 57840, Note_on_c, 4, 57, 0
6, 57840, Note_on_c, 4, 69, 0
6, 57840, Note_on_c, 4, 79, 0
6, 57840, Note_on_c, 4, 69, 0
6, 57840, Note_on_c, 4, 79, 127
6, 57840, Note_on_c, 4, 72, 127
6, 57840, Note_on_c, 4, 69, 127
6, 57900, Note_on_c, 4, 69, 0
6, 57900, Note_on_c, 4, 79, 127
6, 57900, Note_on_c, 4, 71, 127
6, 57900, Note_on_c, 4, 69, 127
6, 57960, Note_on_c, 4, 69, 0
6, 57960, Note_on_c, 4, 79, 0
6, 57960, Note_on_c, 4, 79, 0
6, 57960, Note_on_c, 4, 72, 0
6, 57960, Note_on_c, 4, 71, 0
6, 57960, Note_on_c, 4, 69, 127
6, 58020, Note_on_c, 4, 69, 0
6, 58020, Note_on_c, 4, 67, 127
6, 58080, Note_on_c, 4, 67, 0
6, 58080, Note_on_c, 4, 55, 127
6, 58140, Note_on_c, 4, 55, 0
6, 58140, Note_on_c, 4, 57, 127
6, 58170, Note_on_c, 4, 59, 127
6, 58200, Note_on_c, 4, 59, 0
6, 58200, Note_on_c, 4, 57, 0
6, 58200, Note_on_c, 4, 60, 127
6, 58260, Note_on_c, 4, 60, 0
6, 58260, Note_on_c, 4, 59, 127
6, 58320, Note_on_c, 4, 59, 0
6, 58320, Note_on_c, 4, 69, 127
6, 58320, Note_on_c, 4, 62, 127
6, 58380, Note_on_c, 4, 62, 0
6, 58380, Note_on_c, 4, 69, 0
6, 58380, Note_on_c, 4, 69, 127
6, 58380, Note_on_c, 4, 62, 127
6, 58440, Note_on_c, 4, 62, 0
6, 58440, Note_on_c, 4, 69, 0
6, 58440, Note_on_c, 4, 69, 127
6, 58470, Note_on_c, 4, 67, 127
6, 58500, Note_on_c, 4, 67, 0
6, 58500, Note_on_c, 4, 69, 0
6, 58500, Note_on_c, 4, 64, 127
6, 58530, Note_on_c, 4, 62, 127
6, 58560, Note_on_c, 4, 62, 0
6, 58560, Note_on_c, 4, 64, 0
6, 58560, Note_on_c, 4, 57, 127
6, 58560, Note_on_c, 4, 69, 127
6, 58560, Note_on_c, 4, 64, 127
6, 58680, Note_on_c, 4, 64, 0
6, 58680, Note_on_c, 4, 69, 0
6, 58680, Note_on_c, 4, 57, 0
6, 58680, Note_on_c, 4, 79, 127
6, 58680, Note_on_c, 4, 72, 127
6, 58680, Note_on_c, 4, 57, 127
6, 58680, Note_on_c, 4, 69, 127
6, 58680, Note_on_c, 4, 64, 127
6, 58770, Note_on_c, 4, 79, 127
6, 58770, Note_on_c, 4, 69, 127
6, 58770, Note_on_c, 4, 72, 127
6, 58800, Note_on_c, 4, 72, 0
6, 58800, Note_on_c, 4, 79, 0
6, 58800, Note_on_c, 4, 64, 0
6, 58800, Note_on_c, 4, 72, 0
6, 58800, Note_on_c, 4, 57, 0
6, 58800, Note_on_c, 4, 69, 0
6, 58800, Note_on_c, 4, 79, 0
6, 58800, Note_on_c, 4, 69, 0
6, 58800, Note_on_c, 4, 79, 127
6, 58800, Note_on_c, 4, 72, 127
6, 58800, Note_on_c, 4, 69, 127
6, 58860, Note_on_c, 4, 69, 0
6, 58860, Note_on_c, 4, 79, 127
6, 58860, Note_on_c, 4, 71, 127
6, 58860, Note_on_c, 4, 69, 127
6, 58920, Note_on_c, 4, 69, 0
6, 58920, Note_on_c, 4, 79, 0
6, 58920, Note_on_c, 4, 79, 0
6, 58920, Note_on_c, 4, 72, 0
6, 58920, Note_on_c, 4, 71, 0
6, 58920, Note_on_c, 4, 69, 127
6, 58980, Note_on_c, 4, 69, 0
6, 58980, Note_on_c, 4, 67, 127
6, 59040, Note_on_c, 4, 67, 0
6, 59040, Note_on_c, 4, 55, 127
6, 59100, Note_on_c, 4, 55, 0
6, 59100, Note_on_c, 4, 57, 127
6, 59130, Note_on_c, 4, 59, 127
6, 59160, Note_on_c, 4, 59, 0
6, 59160, Note_on_c, 4, 57, 0
6, 59160, Note_on_c, 4, 60, 127
6, 59220, Note_on_c, 4, 60, 0
6, 59220, Note_on_c, 4, 59, 127
6, 59280, Note_on_c, 4, 59, 0
6, 59280, Note_on_c, 4, 69, 127
6, 59280, Note_on_c, 4, 62, 127
6, 59340, Note_on_c, 4, 62, 0
6, 59340, Note_on_c, 4, 69, 0
6, 59340, Note_on_c, 4, 69, 127
6, 59340, Note_on_c, 4, 62, 127
6, 59400, Note_on_c, 4, 62, 0
6, 59400, Note_on_c, 4, 69, 0
6, 59400, Note_on_c, 4, 69, 127
6, 59430, Note_on_c, 4, 67, 127
6, 59460, Note_on_c, 4, 67, 0
6, 59460, Note_on_c, 4, 69, 0
6, 59460, Note_on_c, 4, 64, 127
6, 59490, Note_on_c, 4, 62, 127
6, 59520, Note_on_c, 4, 62, 0
6, 59520, Note_on_c, 4, 64, 0
6, 59520, Note_on_c, 4, 57, 127
6, 59520, Note_on_c, 4, 69, 127
6, 59520, Note_on_c, 4, 64, 127
6, 59640, Note_on_c, 4, 64, 0
6, 59640, Note_on_c, 4, 69, 0
6, 59640, Note_on_c, 4, 57, 0
6, 59640, Note_on_c, 4, 79, 127
6, 59640, Note_on_c, 4, 72, 127
6, 59640, Note_on_c, 4, 57, 127
6, 59640, Note_on_c, 4, 69, 127
6, 59640, Note_on_c, 4, 64, 127
6, 59730, Note_on_c, 4, 79, 127
6, 59730, Note_on_c, 4, 69, 127
6, 59730, Note_on_c, 4, 72, 127
6, 59760, Note_on_c, 4, 72, 0
6, 59760, Note_on_c, 4, 79, 0
6, 59760, Note_on_c, 4, 64, 0
6, 59760, Note_on_c, 4, 72, 0
6, 59760, Note_on_c, 4, 57, 0
6, 59760, Note_on_c, 4, 69, 0
6, 59760, Note_on_c, 4, 79, 0
6, 59760, Note_on_c, 4, 69, 0
6, 59760, Note_on_c, 4, 79, 127
6, 59760, Note_on_c, 4, 72, 127
6, 59760, Note_on_c, 4, 69, 127
6, 59820, Note_on_c, 4, 69, 0
6, 59820, Note_on_c, 4, 79, 127
6, 59820, Note_on_c, 4, 71, 127
6, 59820, Note_on_c, 4, 69, 127
6, 59880, Note_on_c, 4, 69, 0
6, 59880, Note_on_c, 4, 79, 0
6, 59880, Note_on_c, 4, 79, 0
6, 59880, Note_on_c, 4, 72, 0
6, 59880, Note_on_c, 4, 71, 0
6, 59880, Note_on_c, 4, 69, 127
6, 59940, Note_on_c, 4, 69, 0
6, 59940, Note_on_c, 4, 67, 127
6, 60000, Note_on_c, 4, 67, 0
6, 60000, Note_on_c, 4, 55, 127
6, 60060, Note_on_c, 4, 55, 0
6, 60060, Note_on_c, 4, 57, 127
6, 60090, Note_on_c, 4, 59, 127
6, 60120, Note_on_c, 4, 59, 0
6, 60120, Note_on_c, 4, 57, 0
6, 60120, Note_on_c, 4, 60, 127
6, 60180, Note_on_c, 4, 60, 0
6, 60180, Note_on_c, 4, 59, 127
6, 60240, Note_on_c, 4, 59, 0
6, 60240, Note_on_c, 4, 69, 127
6, 60240, Note_on_c, 4, 62, 127
6, 60300, Note_on_c, 4, 62, 0
6, 60300, Note_on_c, 4, 69, 0
6, 60300, Note_on_c, 4, 69, 127
6, 60300, Note_on_c, 4, 62, 127
6, 60360, Note_on_c, 4, 62, 0
6, 60360, Note_on_c, 4, 69, 0
6, 60360, Note_on_c, 4, 69, 127
6, 60390, Note_on_c, 4, 67, 127
6, 60420, Note_on_c, 4, 67, 0
6, 60420, Note_on_c, 4, 69, 0
6, 60420, Note_on_c, 4, 64, 127
6, 60450, Note_on_c, 4, 62, 127
6, 60480, Note_on_c, 4, 62, 0
6, 60480, Note_on_c, 4, 64, 0
6, 60480, Note_on_c, 4, 77, 127
6, 60480, Note_on_c, 4, 72, 127
6, 60480, Note_on_c, 4, 69, 127
6, 60480, Note_on_c, 4, 65, 127
6, 60480, Note_on_c, 4, 60, 127
6, 60480, Note_on_c, 4, 53, 127
6, 60600, Note_on_c, 4, 53, 0
6, 60600, Note_on_c, 4, 72, 0
6, 60600, Note_on_c, 4, 69, 0
6, 60600, Note_on_c, 4, 77, 0
6, 60600, Note_on_c, 4, 60, 0
6, 60600, Note_on_c, 4, 65, 0
6, 60600, Note_on_c, 4, 53, 127
6, 60660, Note_on_c, 4, 53, 0
6, 60660, Note_on_c, 4, 52, 127
6, 60720, Note_on_c, 4, 52, 0
6, 60720, Note_on_c, 4, 53, 127
6, 60780, Note_on_c, 4, 53, 0
6, 60780, Note_on_c, 4, 52, 127
6, 60840, Note_on_c, 4, 52, 0
6, 60840, Note_on_c, 4, 53, 127
6, 60900, Note_on_c, 4, 53, 0
6, 60900, Note_on_c, 4, 71, 127
6, 60900, Note_on_c, 4, 67, 127
6, 60900, Note_on_c, 4, 55, 127
6, 60900, Note_on_c, 4, 59, 127
6, 60900, Note_on_c, 4, 62, 127
6, 61440, Note_on_c, 4, 62, 0
6, 61440, Note_on_c, 4, 55, 0
6, 61440, Note_on_c, 4, 71, 0
6, 61440, Note_on_c, 4, 67, 0
6, 61440, Note_on_c, 4, 59, 0
6, 61440, End_track
7, 0, Start_track
7, 0, MIDI_port, 0
7, 0, Title_t, "Solina organ"
7, 0, Control_c, 5, 0, 0
7, 0, Control_c, 5, 32, 0
7, 0, Program_c, 5, 21
7, 0, Control_c, 5, 7, 60
7, 653, Control_c, 5, 7, 60
7, 653, Control_c, 5, 10, 64
7, 8760, Note_on_c, 5, 69, 100
7, 8760, Note_on_c, 5, 76, 100
7, 8760, Note_on_c, 5, 72, 100
7, 8760, Note_on_c, 5, 79, 100
7, 8880, Note_on_c, 5, 79, 0
7, 8880, Note_on_c, 5, 69, 0
7, 8880, Note_on_c, 5, 76, 0
7, 8880, Note_on_c, 5, 72, 0
7, 9000, Note_on_c, 5, 79, 100
7, 9000, Note_on_c, 5, 76, 100
7, 9000, Note_on_c, 5, 72, 100
7, 9000, Note_on_c, 5, 69, 100
7, 9120, Note_on_c, 5, 69, 0
7, 9120, Note_on_c, 5, 79, 0
7, 9120, Note_on_c, 5, 76, 0
7, 9120, Note_on_c, 5, 72, 0
7, 9120, Note_on_c, 5, 74, 100
7, 9120, Note_on_c, 5, 71, 100
7, 9120, Note_on_c, 5, 67, 100
7, 9360, Note_on_c, 5, 67, 0
7, 9360, Note_on_c, 5, 71, 0
7, 9360, Note_on_c, 5, 74, 0
7, 9360, Note_on_c, 5, 69, 100
7, 9420, Note_on_c, 5, 69, 0
7, 9420, Note_on_c, 5, 69, 100
7, 9480, Note_on_c, 5, 69, 0
7, 9480, Note_on_c, 5, 74, 100
7, 9540, Note_on_c, 5, 74, 0
7, 9540, Note_on_c, 5, 78, 100
7, 9600, Note_on_c, 5, 78, 0
7, 9720, Note_on_c, 5, 69, 100
7, 9720, Note_on_c, 5, 76, 100
7, 9720, Note_on_c, 5, 72, 100
7, 9720, Note_on_c, 5, 79, 100
7, 9840, Note_on_c, 5, 79, 0
7, 9840, Note_on_c, 5, 69, 0
7, 9840, Note_on_c, 5, 76, 0
7, 9840, Note_on_c, 5, 72, 0
7, 9960, Note_on_c, 5, 79, 100
7, 9960, Note_on_c, 5, 76, 100
7, 9960, Note_on_c, 5, 72, 100
7, 9960, Note_on_c, 5, 69, 100
7, 10080, Note_on_c, 5, 69, 0
7, 10080, Note_on_c, 5, 79, 0
7, 10080, Note_on_c, 5, 76, 0
7, 10080, Note_on_c, 5, 72, 0
7, 10080, Note_on_c, 5, 74, 100
7, 10080, Note_on_c, 5, 71, 100
7, 10080, Note_on_c, 5, 67, 100
7, 10320, Note_on_c, 5, 67, 0
7, 10320, Note_on_c, 5, 71, 0
7, 10320, Note_on_c, 5, 74, 0
7, 10320, Note_on_c, 5, 69, 100
7, 10380, Note_on_c, 5, 69, 0
7, 10380, Note_on_c, 5, 69, 100
7, 10440, Note_on_c, 5, 69, 0
7, 10440, Note_on_c, 5, 74, 100
7, 10500, Note_on_c, 5, 74, 0
7, 10500, Note_on_c, 5, 78, 100
7, 10560, Note_on_c, 5, 78, 0
7, 10680, Note_on_c, 5, 69, 100
7, 10680, Note_on_c, 5, 76, 100
7, 10680, Note_on_c, 5, 72, 100
7, 10680, Note_on_c, 5, 79, 100
7, 10800, Note_on_c, 5, 79, 0
7, 10800, Note_on_c, 5, 69, 0
7, 10800, Note_on_c, 5, 76, 0
7, 10800, Note_on_c, 5, 72, 0
7, 10920, Note_on_c, 5, 79, 100
7, 10920, Note_on_c, 5, 76, 100
7, 10920, Note_on_c, 5, 72, 100
7, 10920, Note_on_c, 5, 69, 100
7, 11040, Note_on_c, 5, 69, 0
7, 11040, Note_on_c, 5, 79, 0
7, 11040, Note_on_c, 5, 76, 0
7, 11040, Note_on_c, 5, 72, 0
7, 11040, Note_on_c, 5, 74, 100
7, 11040, Note_on_c, 5, 71, 100
7, 11040, Note_on_c, 5, 67, 100
7, 11280, Note_on_c, 5, 67, 0
7, 11280, Note_on_c, 5, 71, 0
7, 11280, Note_on_c, 5, 74, 0
7, 11280, Note_on_c, 5, 69, 100
7, 11340, Note_on_c, 5, 69, 0
7, 11340, Note_on_c, 5, 69, 100
7, 11400, Note_on_c, 5, 69, 0
7, 11400, Note_on_c, 5, 74, 100
7, 11460, Note_on_c, 5, 74, 0
7, 11460, Note_on_c, 5, 78, 100
7, 11520, Note_on_c, 5, 78, 0
7, 11520, Note_on_c, 5, 72, 100
7, 11520, Note_on_c, 5, 69, 100
7, 11520, Note_on_c, 5, 65, 100
7, 11760, Note_on_c, 5, 65, 0
7, 11760, Note_on_c, 5, 69, 0
7, 11760, Note_on_c, 5, 72, 0
7, 11760, Note_on_c, 5, 72, 100
7, 11820, Note_on_c, 5, 72, 0
7, 11820, Note_on_c, 5, 72, 100
7, 11880, Note_on_c, 5, 72, 0
7, 11880, Note_on_c, 5, 69, 100
7, 11940, Note_on_c, 5, 69, 0
7, 11940, Note_on_c, 5, 71, 100
7, 12000, Note_on_c, 5, 71, 0
7, 12000, Note_on_c, 5, 74, 100
7, 12000, Note_on_c, 5, 71, 100
7, 12000, Note_on_c, 5, 67, 100
7, 12003, Control_c, 5, 7, 99
7, 12010, Control_c, 5, 7, 98
7, 12013, Control_c, 5, 7, 97
7, 12020, Control_c, 5, 7, 96
7, 12023, Control_c, 5, 7, 95
7, 12030, Control_c, 5, 7, 94
7, 12033, Control_c, 5, 7, 93
7, 12040, Control_c, 5, 7, 92
7, 12043, Control_c, 5, 7, 91
7, 12046, Control_c, 5, 7, 90
7, 12053, Control_c, 5, 7, 89
7, 12056, Control_c, 5, 7, 88
7, 12063, Control_c, 5, 7, 87
7, 12066, Control_c, 5, 7, 86
7, 12073, Control_c, 5, 7, 85
7, 12076, Control_c, 5, 7, 84
7, 12083, Control_c, 5, 7, 83
7, 12086, Control_c, 5, 7, 82
7, 12090, Control_c, 5, 7, 81
7, 12096, Control_c, 5, 7, 80
7, 12100, Control_c, 5, 7, 79
7, 12106, Control_c, 5, 7, 78
7, 12110, Control_c, 5, 7, 77
7, 12116, Control_c, 5, 7, 76
7, 12120, Control_c, 5, 7, 75
7, 12126, Control_c, 5, 7, 74
7, 12130, Control_c, 5, 7, 73
7, 12133, Control_c, 5, 7, 72
7, 12140, Control_c, 5, 7, 71
7, 12143, Control_c, 5, 7, 70
7, 12150, Control_c, 5, 7, 69
7, 12153, Control_c, 5, 7, 68
7, 12160, Control_c, 5, 7, 67
7, 12163, Control_c, 5, 7, 66
7, 12170, Control_c, 5, 7, 65
7, 12173, Control_c, 5, 7, 64
7, 12176, Control_c, 5, 7, 63
7, 12183, Control_c, 5, 7, 62
7, 12186, Control_c, 5, 7, 61
7, 12193, Control_c, 5, 7, 60
7, 12196, Control_c, 5, 7, 59
7, 12203, Control_c, 5, 7, 58
7, 12206, Control_c, 5, 7, 57
7, 12213, Control_c, 5, 7, 56
7, 12216, Control_c, 5, 7, 55
7, 12220, Control_c, 5, 7, 54
7, 12226, Control_c, 5, 7, 53
7, 12230, Control_c, 5, 7, 52
7, 12236, Control_c, 5, 7, 51
7, 12240, Control_c, 5, 7, 50
7, 12246, Control_c, 5, 7, 49
7, 12250, Control_c, 5, 7, 48
7, 12256, Control_c, 5, 7, 47
7, 12260, Control_c, 5, 7, 46
7, 12263, Control_c, 5, 7, 45
7, 12270, Control_c, 5, 7, 44
7, 12273, Control_c, 5, 7, 43
7, 12280, Control_c, 5, 7, 42
7, 12283, Control_c, 5, 7, 41
7, 12290, Control_c, 5, 7, 40
7, 12293, Control_c, 5, 7, 39
7, 12300, Control_c, 5, 7, 38
7, 12303, Control_c, 5, 7, 37
7, 12306, Control_c, 5, 7, 36
7, 12313, Control_c, 5, 7, 35
7, 12316, Control_c, 5, 7, 34
7, 12323, Control_c, 5, 7, 33
7, 12326, Control_c, 5, 7, 32
7, 12333, Control_c, 5, 7, 31
7, 12336, Control_c, 5, 7, 30
7, 12343, Control_c, 5, 7, 29
7, 12346, Control_c, 5, 7, 28
7, 12350, Control_c, 5, 7, 27
7, 12356, Control_c, 5, 7, 26
7, 12360, Control_c, 5, 7, 25
7, 12366, Control_c, 5, 7, 24
7, 12370, Control_c, 5, 7, 23
7, 12376, Control_c, 5, 7, 22
7, 12380, Control_c, 5, 7, 21
7, 12386, Control_c, 5, 7, 20
7, 12390, Control_c, 5, 7, 19
7, 12393, Control_c, 5, 7, 18
7, 12400, Control_c, 5, 7, 17
7, 12403, Control_c, 5, 7, 16
7, 12410, Control_c, 5, 7, 15
7, 12413, Control_c, 5, 7, 14
7, 12420, Control_c, 5, 7, 13
7, 12423, Control_c, 5, 7, 12
7, 12430, Control_c, 5, 7, 11
7, 12433, Control_c, 5, 7, 10
7, 12436, Control_c, 5, 7, 9
7, 12443, Control_c, 5, 7, 8
7, 12446, Control_c, 5, 7, 7
7, 12453, Control_c, 5, 7, 6
7, 12456, Control_c, 5, 7, 5
7, 12463, Control_c, 5, 7, 4
7, 12466, Control_c, 5, 7, 3
7, 12473, Control_c, 5, 7, 2
7, 12476, Control_c, 5, 7, 1
7, 12480, Note_on_c, 5, 67, 0
7, 12480, Note_on_c, 5, 71, 0
7, 12480, Note_on_c, 5, 74, 0
7, 12480, Control_c, 5, 7, 0
7, 12503, Control_c, 5, 7, 96
7, 18160, Control_c, 5, 10, 70
7, 18300, Control_c, 5, 10, 73
7, 18380, Control_c, 5, 10, 75
7, 18435, Control_c, 5, 10, 77
7, 20760, Note_on_c, 5, 69, 100
7, 20760, Note_on_c, 5, 76, 100
7, 20760, Note_on_c, 5, 72, 100
7, 20760, Note_on_c, 5, 79, 100
7, 20880, Note_on_c, 5, 79, 0
7, 20880, Note_on_c, 5, 69, 0
7, 20880, Note_on_c, 5, 76, 0
7, 20880, Note_on_c, 5, 72, 0
7, 21000, Note_on_c, 5, 79, 100
7, 21000, Note_on_c, 5, 76, 100
7, 21000, Note_on_c, 5, 72, 100
7, 21000, Note_on_c, 5, 69, 100
7, 21120, Note_on_c, 5, 69, 0
7, 21120, Note_on_c, 5, 79, 0
7, 21120, Note_on_c, 5, 76, 0
7, 21120, Note_on_c, 5, 72, 0
7, 21120, Note_on_c, 5, 74, 100
7, 21120, Note_on_c, 5, 71, 100
7, 21120, Note_on_c, 5, 67, 100
7, 21360, Note_on_c, 5, 67, 0
7, 21360, Note_on_c, 5, 71, 0
7, 21360, Note_on_c, 5, 74, 0
7, 21360, Note_on_c, 5, 69, 100
7, 21420, Note_on_c, 5, 69, 0
7, 21420, Note_on_c, 5, 69, 100
7, 21480, Note_on_c, 5, 69, 0
7, 21480, Note_on_c, 5, 74, 100
7, 21540, Note_on_c, 5, 74, 0
7, 21540, Note_on_c, 5, 78, 100
7, 21600, Note_on_c, 5, 78, 0
7, 21720, Note_on_c, 5, 69, 100
7, 21720, Note_on_c, 5, 76, 100
7, 21720, Note_on_c, 5, 72, 100
7, 21720, Note_on_c, 5, 79, 100
7, 21840, Note_on_c, 5, 79, 0
7, 21840, Note_on_c, 5, 69, 0
7, 21840, Note_on_c, 5, 76, 0
7, 21840, Note_on_c, 5, 72, 0
7, 21960, Note_on_c, 5, 79, 100
7, 21960, Note_on_c, 5, 76, 100
7, 21960, Note_on_c, 5, 72, 100
7, 21960, Note_on_c, 5, 69, 100
7, 22080, Note_on_c, 5, 69, 0
7, 22080, Note_on_c, 5, 79, 0
7, 22080, Note_on_c, 5, 76, 0
7, 22080, Note_on_c, 5, 72, 0
7, 22080, Note_on_c, 5, 74, 100
7, 22080, Note_on_c, 5, 71, 100
7, 22080, Note_on_c, 5, 67, 100
7, 22320, Note_on_c, 5, 67, 0
7, 22320, Note_on_c, 5, 71, 0
7, 22320, Note_on_c, 5, 74, 0
7, 22320, Note_on_c, 5, 69, 100
7, 22380, Note_on_c, 5, 69, 0
7, 22380, Note_on_c, 5, 69, 100
7, 22440, Note_on_c, 5, 69, 0
7, 22440, Note_on_c, 5, 74, 100
7, 22500, Note_on_c, 5, 74, 0
7, 22500, Note_on_c, 5, 78, 100
7, 22560, Note_on_c, 5, 78, 0
7, 22680, Note_on_c, 5, 69, 100
7, 22680, Note_on_c, 5, 76, 100
7, 22680, Note_on_c, 5, 72, 100
7, 22680, Note_on_c, 5, 79, 100
7, 22800, Note_on_c, 5, 79, 0
7, 22800, Note_on_c, 5, 69, 0
7, 22800, Note_on_c, 5, 76, 0
7, 22800, Note_on_c, 5, 72, 0
7, 22920, Note_on_c, 5, 79, 100
7, 22920, Note_on_c, 5, 76, 100
7, 22920, Note_on_c, 5, 72, 100
7, 22920, Note_on_c, 5, 69, 100
7, 23040, Note_on_c, 5, 69, 0
7, 23040, Note_on_c, 5, 79, 0
7, 23040, Note_on_c, 5, 76, 0
7, 23040, Note_on_c, 5, 72, 0
7, 23040, Note_on_c, 5, 74, 100
7, 23040, Note_on_c, 5, 71, 100
7, 23040, Note_on_c, 5, 67, 100
7, 23280, Note_on_c, 5, 67, 0
7, 23280, Note_on_c, 5, 71, 0
7, 23280, Note_on_c, 5, 74, 0
7, 23280, Note_on_c, 5, 69, 100
7, 23340, Note_on_c, 5, 69, 0
7, 23340, Note_on_c, 5, 69, 100
7, 23400, Note_on_c, 5, 69, 0
7, 23400, Note_on_c, 5, 74, 100
7, 23460, Note_on_c, 5, 74, 0
7, 23460, Note_on_c, 5, 78, 100
7, 23520, Note_on_c, 5, 78, 0
7, 23520, Note_on_c, 5, 72, 100
7, 23520, Note_on_c, 5, 69, 100
7, 23520, Note_on_c, 5, 65, 100
7, 23760, Note_on_c, 5, 65, 0
7, 23760, Note_on_c, 5, 69, 0
7, 23760, Note_on_c, 5, 72, 0
7, 23760, Note_on_c, 5, 72, 100
7, 23820, Note_on_c, 5, 72, 0
7, 23820, Note_on_c, 5, 72, 100
7, 23880, Note_on_c, 5, 72, 0
7, 23880, Note_on_c, 5, 69, 100
7, 23940, Note_on_c, 5, 69, 0
7, 23940, Note_on_c, 5, 71, 100
7, 24000, Note_on_c, 5, 71, 0
7, 24000, Note_on_c, 5, 74, 100
7, 24000, Note_on_c, 5, 71, 100
7, 24000, Note_on_c, 5, 67, 100
7, 24480, Note_on_c, 5, 67, 0
7, 24480, Note_on_c, 5, 71, 0
7, 24480, Note_on_c, 5, 74, 0
7, 30840, Note_on_c, 5, 69, 100
7, 30840, Note_on_c, 5, 76, 100
7, 30840, Note_on_c, 5, 72, 100
7, 30840, Note_on_c, 5, 79, 100
7, 30960, Note_on_c, 5, 79, 0
7, 30960, Note_on_c, 5, 69, 0
7, 30960, Note_on_c, 5, 76, 0
7, 30960, Note_on_c, 5, 72, 0
7, 31080, Note_on_c, 5, 79, 100
7, 31080, Note_on_c, 5, 76, 100
7, 31080, Note_on_c, 5, 72, 100
7, 31080, Note_on_c, 5, 69, 100
7, 31200, Note_on_c, 5, 69, 0
7, 31200, Note_on_c, 5, 79, 0
7, 31200, Note_on_c, 5, 76, 0
7, 31200, Note_on_c, 5, 72, 0
7, 31200, Note_on_c, 5, 74, 100
7, 31200, Note_on_c, 5, 71, 100
7, 31200, Note_on_c, 5, 67, 100
7, 31440, Note_on_c, 5, 67, 0
7, 31440, Note_on_c, 5, 71, 0
7, 31440, Note_on_c, 5, 74, 0
7, 31440, Note_on_c, 5, 69, 100
7, 31500, Note_on_c, 5, 69, 0
7, 31500, Note_on_c, 5, 69, 100
7, 31560, Note_on_c, 5, 69, 0
7, 31560, Note_on_c, 5, 74, 100
7, 31620, Note_on_c, 5, 74, 0
7, 31620, Note_on_c, 5, 78, 100
7, 31680, Note_on_c, 5, 78, 0
7, 31800, Note_on_c, 5, 69, 100
7, 31800, Note_on_c, 5, 76, 100
7, 31800, Note_on_c, 5, 72, 100
7, 31800, Note_on_c, 5, 79, 100
7, 31920, Note_on_c, 5, 79, 0
7, 31920, Note_on_c, 5, 69, 0
7, 31920, Note_on_c, 5, 76, 0
7, 31920, Note_on_c, 5, 72, 0
7, 32040, Note_on_c, 5, 79, 100
7, 32040, Note_on_c, 5, 76, 100
7, 32040, Note_on_c, 5, 72, 100
7, 32040, Note_on_c, 5, 69, 100
7, 32160, Note_on_c, 5, 69, 0
7, 32160, Note_on_c, 5, 79, 0
7, 32160, Note_on_c, 5, 76, 0
7, 32160, Note_on_c, 5, 72, 0
7, 32160, Note_on_c, 5, 74, 100
7, 32160, Note_on_c, 5, 71, 100
7, 32160, Note_on_c, 5, 67, 100
7, 32400, Note_on_c, 5, 67, 0
7, 32400, Note_on_c, 5, 71, 0
7, 32400, Note_on_c, 5, 74, 0
7, 32400, Note_on_c, 5, 69, 100
7, 32460, Note_on_c, 5, 69, 0
7, 32460, Note_on_c, 5, 69, 100
7, 32520, Note_on_c, 5, 69, 0
7, 32520, Note_on_c, 5, 74, 100
7, 32580, Note_on_c, 5, 74, 0
7, 32580, Note_on_c, 5, 78, 100
7, 32640, Note_on_c, 5, 78, 0
7, 32760, Note_on_c, 5, 69, 100
7, 32760, Note_on_c, 5, 76, 100
7, 32760, Note_on_c, 5, 72, 100
7, 32760, Note_on_c, 5, 79, 100
7, 32880, Note_on_c, 5, 79, 0
7, 32880, Note_on_c, 5, 69, 0
7, 32880, Note_on_c, 5, 76, 0
7, 32880, Note_on_c, 5, 72, 0
7, 33000, Note_on_c, 5, 79, 100
7, 33000, Note_on_c, 5, 76, 100
7, 33000, Note_on_c, 5, 72, 100
7, 33000, Note_on_c, 5, 69, 100
7, 33120, Note_on_c, 5, 69, 0
7, 33120, Note_on_c, 5, 79, 0
7, 33120, Note_on_c, 5, 76, 0
7, 33120, Note_on_c, 5, 72, 0
7, 33120, Note_on_c, 5, 74, 100
7, 33120, Note_on_c, 5, 71, 100
7, 33120, Note_on_c, 5, 67, 100
7, 33360, Note_on_c, 5, 67, 0
7, 33360, Note_on_c, 5, 71, 0
7, 33360, Note_on_c, 5, 74, 0
7, 33360, Note_on_c, 5, 69, 100
7, 33420, Note_on_c, 5, 69, 0
7, 33420, Note_on_c, 5, 69, 100
7, 33480, Note_on_c, 5, 69, 0
7, 33480, Note_on_c, 5, 74, 100
7, 33540, Note_on_c, 5, 74, 0
7, 33540, Note_on_c, 5, 78, 100
7, 33600, Note_on_c, 5, 78, 0
7, 33600, Note_on_c, 5, 72, 100
7, 33600, Note_on_c, 5, 69, 100
7, 33600, Note_on_c, 5, 65, 100
7, 33840, Note_on_c, 5, 65, 0
7, 33840, Note_on_c, 5, 69, 0
7, 33840, Note_on_c, 5, 72, 0
7, 33840, Note_on_c, 5, 72, 100
7, 33900, Note_on_c, 5, 72, 0
7, 33900, Note_on_c, 5, 72, 100
7, 33960, Note_on_c, 5, 72, 0
7, 33960, Note_on_c, 5, 69, 100
7, 34020, Note_on_c, 5, 69, 0
7, 34020, Note_on_c, 5, 71, 100
7, 34080, Note_on_c, 5, 71, 0
7, 34080, Note_on_c, 5, 74, 100
7, 34080, Note_on_c, 5, 71, 100
7, 34080, Note_on_c, 5, 67, 100
7, 34560, Note_on_c, 5, 67, 0
7, 34560, Note_on_c, 5, 71, 0
7, 34560, Note_on_c, 5, 74, 0
7, 34680, Note_on_c, 5, 69, 100
7, 34680, Note_on_c, 5, 64, 100
7, 34680, Note_on_c, 5, 72, 100
7, 34680, Note_on_c, 5, 67, 100
7, 34800, Note_on_c, 5, 67, 0
7, 34800, Note_on_c, 5, 69, 0
7, 34800, Note_on_c, 5, 64, 0
7, 34800, Note_on_c, 5, 72, 0
7, 34920, Note_on_c, 5, 64, 100
7, 34920, Note_on_c, 5, 67, 100
7, 34920, Note_on_c, 5, 72, 100
7, 34920, Note_on_c, 5, 69, 100
7, 35040, Note_on_c, 5, 69, 0
7, 35040, Note_on_c, 5, 64, 0
7, 35040, Note_on_c, 5, 67, 0
7, 35040, Note_on_c, 5, 72, 0
7, 35040, Note_on_c, 5, 74, 100
7, 35040, Note_on_c, 5, 71, 100
7, 35040, Note_on_c, 5, 67, 100
7, 35280, Note_on_c, 5, 67, 0
7, 35280, Note_on_c, 5, 71, 0
7, 35280, Note_on_c, 5, 74, 0
7, 35280, Note_on_c, 5, 69, 100
7, 35340, Note_on_c, 5, 69, 0
7, 35340, Note_on_c, 5, 69, 100
7, 35400, Note_on_c, 5, 69, 0
7, 35400, Note_on_c, 5, 74, 100
7, 35460, Note_on_c, 5, 74, 0
7, 35460, Note_on_c, 5, 78, 100
7, 35520, Note_on_c, 5, 78, 0
7, 35640, Note_on_c, 5, 69, 100
7, 35640, Note_on_c, 5, 67, 100
7, 35640, Note_on_c, 5, 72, 100
7, 35640, Note_on_c, 5, 64, 100
7, 35760, Note_on_c, 5, 64, 0
7, 35760, Note_on_c, 5, 69, 0
7, 35760, Note_on_c, 5, 67, 0
7, 35760, Note_on_c, 5, 72, 0
7, 35880, Note_on_c, 5, 64, 100
7, 35880, Note_on_c, 5, 67, 100
7, 35880, Note_on_c, 5, 72, 100
7, 35880, Note_on_c, 5, 69, 100
7, 36000, Note_on_c, 5, 69, 0
7, 36000, Note_on_c, 5, 64, 0
7, 36000, Note_on_c, 5, 67, 0
7, 36000, Note_on_c, 5, 72, 0
7, 36000, Note_on_c, 5, 74, 100
7, 36000, Note_on_c, 5, 71, 100
7, 36000, Note_on_c, 5, 67, 100
7, 36240, Note_on_c, 5, 67, 0
7, 36240, Note_on_c, 5, 71, 0
7, 36240, Note_on_c, 5, 74, 0
7, 36240, Note_on_c, 5, 69, 100
7, 36300, Note_on_c, 5, 69, 0
7, 36300, Note_on_c, 5, 69, 100
7, 36360, Note_on_c, 5, 69, 0
7, 36360, Note_on_c, 5, 74, 100
7, 36420, Note_on_c, 5, 74, 0
7, 36420, Note_on_c, 5, 78, 100
7, 36480, Note_on_c, 5, 78, 0
7, 36600, Note_on_c, 5, 69, 100
7, 36600, Note_on_c, 5, 64, 100
7, 36600, Note_on_c, 5, 72, 100
7, 36600, Note_on_c, 5, 67, 100
7, 36720, Note_on_c, 5, 67, 0
7, 36720, Note_on_c, 5, 69, 0
7, 36720, Note_on_c, 5, 64, 0
7, 36720, Note_on_c, 5, 72, 0
7, 36840, Note_on_c, 5, 64, 100
7, 36840, Note_on_c, 5, 67, 100
7, 36840, Note_on_c, 5, 72, 100
7, 36840, Note_on_c, 5, 69, 100
7, 36960, Note_on_c, 5, 69, 0
7, 36960, Note_on_c, 5, 64, 0
7, 36960, Note_on_c, 5, 67, 0
7, 36960, Note_on_c, 5, 72, 0
7, 36960, Note_on_c, 5, 74, 100
7, 36960, Note_on_c, 5, 71, 100
7, 36960, Note_on_c, 5, 67, 100
7, 37200, Note_on_c, 5, 67, 0
7, 37200, Note_on_c, 5, 71, 0
7, 37200, Note_on_c, 5, 74, 0
7, 37200, Note_on_c, 5, 69, 100
7, 37260, Note_on_c, 5, 69, 0
7, 37260, Note_on_c, 5, 69, 100
7, 37320, Note_on_c, 5, 69, 0
7, 37320, Note_on_c, 5, 74, 100
7, 37380, Note_on_c, 5, 74, 0
7, 37380, Note_on_c, 5, 78, 100
7, 37440, Note_on_c, 5, 78, 0
7, 37440, Note_on_c, 5, 72, 100
7, 37440, Note_on_c, 5, 69, 100
7, 37440, Note_on_c, 5, 65, 100
7, 37680, Note_on_c, 5, 65, 0
7, 37680, Note_on_c, 5, 69, 0
7, 37680, Note_on_c, 5, 72, 0
7, 37680, Note_on_c, 5, 72, 100
7, 37740, Note_on_c, 5, 72, 0
7, 37740, Note_on_c, 5, 72, 100
7, 37800, Note_on_c, 5, 72, 0
7, 37800, Note_on_c, 5, 69, 100
7, 37860, Note_on_c, 5, 69, 0
7, 37860, Note_on_c, 5, 71, 100
7, 37920, Note_on_c, 5, 71, 0
7, 37920, Note_on_c, 5, 74, 100
7, 37920, Note_on_c, 5, 71, 100
7, 37920, Note_on_c, 5, 67, 100
7, 38400, Note_on_c, 5, 67, 0
7, 38400, Note_on_c, 5, 71, 0
7, 38400, Note_on_c, 5, 74, 0
7, 38520, Note_on_c, 5, 69, 100
7, 38520, Note_on_c, 5, 72, 100
7, 38520, Note_on_c, 5, 67, 100
7, 38640, Note_on_c, 5, 67, 0
7, 38640, Note_on_c, 5, 72, 0
7, 38640, Note_on_c, 5, 69, 0
7, 38760, Note_on_c, 5, 67, 100
7, 38760, Note_on_c, 5, 72, 100
7, 38760, Note_on_c, 5, 69, 100
7, 38880, Note_on_c, 5, 69, 0
7, 38880, Note_on_c, 5, 72, 0
7, 38880, Note_on_c, 5, 67, 0
7, 38880, Note_on_c, 5, 74, 100
7, 38880, Note_on_c, 5, 71, 100
7, 39120, Note_on_c, 5, 71, 0
7, 39120, Note_on_c, 5, 74, 0
7, 39120, Note_on_c, 5, 69, 100
7, 39180, Note_on_c, 5, 69, 0
7, 39180, Note_on_c, 5, 69, 100
7, 39240, Note_on_c, 5, 69, 0
7, 39240, Note_on_c, 5, 74, 100
7, 39300, Note_on_c, 5, 74, 0
7, 39300, Note_on_c, 5, 78, 100
7, 39360, Note_on_c, 5, 78, 0
7, 39480, Note_on_c, 5, 69, 100
7, 39480, Note_on_c, 5, 72, 100
7, 39600, Note_on_c, 5, 72, 0
7, 39600, Note_on_c, 5, 69, 0
7, 39720, Note_on_c, 5, 72, 100
7, 39720, Note_on_c, 5, 69, 100
7, 39840, Note_on_c, 5, 69, 0
7, 39840, Note_on_c, 5, 72, 0
7, 39840, Note_on_c, 5, 74, 100
7, 39840, Note_on_c, 5, 71, 100
7, 39840, Note_on_c, 5, 67, 100
7, 40080, Note_on_c, 5, 67, 0
7, 40080, Note_on_c, 5, 71, 0
7, 40080, Note_on_c, 5, 74, 0
7, 40080, Note_on_c, 5, 69, 100
7, 40140, Note_on_c, 5, 69, 0
7, 40140, Note_on_c, 5, 69, 100
7, 40200, Note_on_c, 5, 69, 0
7, 40200, Note_on_c, 5, 74, 100
7, 40260, Note_on_c, 5, 74, 0
7, 40260, Note_on_c, 5, 78, 100
7, 40320, Note_on_c, 5, 78, 0
7, 40440, Note_on_c, 5, 69, 100
7, 40440, Note_on_c, 5, 72, 100
7, 40560, Note_on_c, 5, 72, 0
7, 40560, Note_on_c, 5, 69, 0
7, 40680, Note_on_c, 5, 72, 100
7, 40680, Note_on_c, 5, 69, 100
7, 40800, Note_on_c, 5, 69, 0
7, 40800, Note_on_c, 5, 72, 0
7, 40800, Note_on_c, 5, 74, 100
7, 40800, Note_on_c, 5, 71, 100
7, 40800, Note_on_c, 5, 67, 100
7, 41040, Note_on_c, 5, 67, 0
7, 41040, Note_on_c, 5, 71, 0
7, 41040, Note_on_c, 5, 74, 0
7, 41040, Note_on_c, 5, 69, 100
7, 41100, Note_on_c, 5, 69, 0
7, 41100, Note_on_c, 5, 69, 100
7, 41160, Note_on_c, 5, 69, 0
7, 41160, Note_on_c, 5, 74, 100
7, 41220, Note_on_c, 5, 74, 0
7, 41220, Note_on_c, 5, 78, 100
7, 41280, Note_on_c, 5, 78, 0
7, 41280, Note_on_c, 5, 72, 100
7, 41280, Note_on_c, 5, 69, 100
7, 41280, Note_on_c, 5, 65, 100
7, 41520, Note_on_c, 5, 65, 0
7, 41520, Note_on_c, 5, 69, 0
7, 41520, Note_on_c, 5, 72, 0
7, 41520, Note_on_c, 5, 72, 100
7, 41580, Note_on_c, 5, 72, 0
7, 41580, Note_on_c, 5, 72, 100
7, 41640, Note_on_c, 5, 72, 0
7, 41640, Note_on_c, 5, 69, 100
7, 41700, Note_on_c, 5, 69, 0
7, 41700, Note_on_c, 5, 71, 100
7, 41760, Note_on_c, 5, 71, 0
7, 41760, Note_on_c, 5, 74, 100
7, 41760, Note_on_c, 5, 71, 100
7, 41760, Note_on_c, 5, 67, 100
7, 42240, Note_on_c, 5, 67, 0
7, 42240, Note_on_c, 5, 71, 0
7, 42240, Note_on_c, 5, 74, 0
7, 42360, Note_on_c, 5, 69, 100
7, 42360, Note_on_c, 5, 64, 100
7, 42360, Note_on_c, 5, 72, 100
7, 42360, Note_on_c, 5, 67, 100
7, 42480, Note_on_c, 5, 67, 0
7, 42480, Note_on_c, 5, 69, 0
7, 42480, Note_on_c, 5, 64, 0
7, 42480, Note_on_c, 5, 72, 0
7, 42600, Note_on_c, 5, 64, 100
7, 42600, Note_on_c, 5, 67, 100
7, 42600, Note_on_c, 5, 72, 100
7, 42600, Note_on_c, 5, 69, 100
7, 42720, Note_on_c, 5, 69, 0
7, 42720, Note_on_c, 5, 64, 0
7, 42720, Note_on_c, 5, 67, 0
7, 42720, Note_on_c, 5, 72, 0
7, 42720, Note_on_c, 5, 74, 100
7, 42720, Note_on_c, 5, 71, 100
7, 42720, Note_on_c, 5, 67, 100
7, 42960, Note_on_c, 5, 67, 0
7, 42960, Note_on_c, 5, 71, 0
7, 42960, Note_on_c, 5, 74, 0
7, 42960, Note_on_c, 5, 69, 100
7, 43020, Note_on_c, 5, 69, 0
7, 43020, Note_on_c, 5, 69, 100
7, 43080, Note_on_c, 5, 69, 0
7, 43080, Note_on_c, 5, 74, 100
7, 43140, Note_on_c, 5, 74, 0
7, 43140, Note_on_c, 5, 78, 100
7, 43200, Note_on_c, 5, 78, 0
7, 43320, Note_on_c, 5, 69, 100
7, 43320, Note_on_c, 5, 67, 100
7, 43320, Note_on_c, 5, 72, 100
7, 43320, Note_on_c, 5, 64, 100
7, 43440, Note_on_c, 5, 64, 0
7, 43440, Note_on_c, 5, 69, 0
7, 43440, Note_on_c, 5, 67, 0
7, 43440, Note_on_c, 5, 72, 0
7, 43560, Note_on_c, 5, 64, 100
7, 43560, Note_on_c, 5, 67, 100
7, 43560, Note_on_c, 5, 72, 100
7, 43560, Note_on_c, 5, 69, 100
7, 43680, Note_on_c, 5, 69, 0
7, 43680, Note_on_c, 5, 64, 0
7, 43680, Note_on_c, 5, 67, 0
7, 43680, Note_on_c, 5, 72, 0
7, 43680, Note_on_c, 5, 74, 100
7, 43680, Note_on_c, 5, 71, 100
7, 43680, Note_on_c, 5, 67, 100
7, 43920, Note_on_c, 5, 67, 0
7, 43920, Note_on_c, 5, 71, 0
7, 43920, Note_on_c, 5, 74, 0
7, 43920, Note_on_c, 5, 69, 100
7, 43980, Note_on_c, 5, 69, 0
7, 43980, Note_on_c, 5, 69, 100
7, 44040, Note_on_c, 5, 69, 0
7, 44040, Note_on_c, 5, 74, 100
7, 44100, Note_on_c, 5, 74, 0
7, 44100, Note_on_c, 5, 78, 100
7, 44160, Note_on_c, 5, 78, 0
7, 44280, Note_on_c, 5, 69, 100
7, 44280, Note_on_c, 5, 64, 100
7, 44280, Note_on_c, 5, 72, 100
7, 44280, Note_on_c, 5, 67, 100
7, 44400, Note_on_c, 5, 67, 0
7, 44400, Note_on_c, 5, 69, 0
7, 44400, Note_on_c, 5, 64, 0
7, 44400, Note_on_c, 5, 72, 0
7, 44520, Note_on_c, 5, 64, 100
7, 44520, Note_on_c, 5, 67, 100
7, 44520, Note_on_c, 5, 72, 100
7, 44520, Note_on_c, 5, 69, 100
7, 44640, Note_on_c, 5, 69, 0
7, 44640, Note_on_c, 5, 64, 0
7, 44640, Note_on_c, 5, 67, 0
7, 44640, Note_on_c, 5, 72, 0
7, 44640, Note_on_c, 5, 74, 100
7, 44640, Note_on_c, 5, 71, 100
7, 44640, Note_on_c, 5, 67, 100
7, 44880, Note_on_c, 5, 67, 0
7, 44880, Note_on_c, 5, 71, 0
7, 44880, Note_on_c, 5, 74, 0
7, 44880, Note_on_c, 5, 69, 100
7, 44940, Note_on_c, 5, 69, 0
7, 44940, Note_on_c, 5, 69, 100
7, 45000, Note_on_c, 5, 69, 0
7, 45000, Note_on_c, 5, 74, 100
7, 45060, Note_on_c, 5, 74, 0
7, 45060, Note_on_c, 5, 78, 100
7, 45120, Note_on_c, 5, 78, 0
7, 45120, Note_on_c, 5, 72, 100
7, 45120, Note_on_c, 5, 69, 100
7, 45120, Note_on_c, 5, 65, 100
7, 45360, Note_on_c, 5, 65, 0
7, 45360, Note_on_c, 5, 69, 0
7, 45360, Note_on_c, 5, 72, 0
7, 45360, Note_on_c, 5, 72, 100
7, 45420, Note_on_c, 5, 72, 0
7, 45420, Note_on_c, 5, 72, 100
7, 45480, Note_on_c, 5, 72, 0
7, 45480, Note_on_c, 5, 69, 100
7, 45540, Note_on_c, 5, 69, 0
7, 45540, Note_on_c, 5, 71, 100
7, 45600, Note_on_c, 5, 71, 0
7, 45600, Note_on_c, 5, 74, 100
7, 45600, Note_on_c, 5, 71, 100
7, 45600, Note_on_c, 5, 67, 100
7, 45855, Control_c, 5, 7, 97
7, 45910, Control_c, 5, 7, 98
7, 45955, Control_c, 5, 7, 99
7, 45970, Control_c, 5, 7, 100
7, 45990, Control_c, 5, 7, 101
7, 46080, Note_on_c, 5, 67, 0
7, 46080, Note_on_c, 5, 71, 0
7, 46080, Note_on_c, 5, 74, 0
7, 46200, Note_on_c, 5, 69, 100
7, 46200, Note_on_c, 5, 72, 100
7, 46200, Note_on_c, 5, 67, 100
7, 46320, Note_on_c, 5, 67, 0
7, 46320, Note_on_c, 5, 72, 0
7, 46320, Note_on_c, 5, 69, 0
7, 46440, Note_on_c, 5, 67, 100
7, 46440, Note_on_c, 5, 72, 100
7, 46440, Note_on_c, 5, 69, 100
7, 46560, Note_on_c, 5, 69, 0
7, 46560, Note_on_c, 5, 72, 0
7, 46560, Note_on_c, 5, 67, 0
7, 46560, Note_on_c, 5, 74, 100
7, 46560, Note_on_c, 5, 71, 100
7, 46800, Note_on_c, 5, 71, 0
7, 46800, Note_on_c, 5, 74, 0
7, 46800, Note_on_c, 5, 69, 100
7, 46860, Note_on_c, 5, 69, 0
7, 46860, Note_on_c, 5, 69, 100
7, 46920, Note_on_c, 5, 69, 0
7, 46920, Note_on_c, 5, 74, 100
7, 46980, Note_on_c, 5, 74, 0
7, 46980, Note_on_c, 5, 78, 100
7, 47040, Note_on_c, 5, 78, 0
7, 47160, Note_on_c, 5, 69, 100
7, 47160, Note_on_c, 5, 72, 100
7, 47280, Note_on_c, 5, 72, 0
7, 47280, Note_on_c, 5, 69, 0
7, 47400, Note_on_c, 5, 72, 100
7, 47400, Note_on_c, 5, 69, 100
7, 47520, Note_on_c, 5, 69, 0
7, 47520, Note_on_c, 5, 72, 0
7, 47520, Note_on_c, 5, 74, 100
7, 47520, Note_on_c, 5, 71, 100
7, 47520, Note_on_c, 5, 67, 100
7, 47760, Note_on_c, 5, 67, 0
7, 47760, Note_on_c, 5, 71, 0
7, 47760, Note_on_c, 5, 74, 0
7, 47760, Note_on_c, 5, 69, 100
7, 47820, Note_on_c, 5, 69, 0
7, 47820, Note_on_c, 5, 69, 100
7, 47880, Note_on_c, 5, 69, 0
7, 47880, Note_on_c, 5, 74, 100
7, 47940, Note_on_c, 5, 74, 0
7, 47940, Note_on_c, 5, 78, 100
7, 48000, Note_on_c, 5, 78, 0
7, 48120, Note_on_c, 5, 69, 100
7, 48120, Note_on_c, 5, 72, 100
7, 48240, Note_on_c, 5, 72, 0
7, 48240, Note_on_c, 5, 69, 0
7, 48360, Note_on_c, 5, 72, 100
7, 48360, Note_on_c, 5, 69, 100
7, 48480, Note_on_c, 5, 69, 0
7, 48480, Note_on_c, 5, 72, 0
7, 48480, Note_on_c, 5, 74, 100
7, 48480, Note_on_c, 5, 71, 100
7, 48480, Note_on_c, 5, 67, 100
7, 48720, Note_on_c, 5, 67, 0
7, 48720, Note_on_c, 5, 71, 0
7, 48720, Note_on_c, 5, 74, 0
7, 48720, Note_on_c, 5, 69, 100
7, 48780, Note_on_c, 5, 69, 0
7, 48780, Note_on_c, 5, 69, 100
7, 48840, Note_on_c, 5, 69, 0
7, 48840, Note_on_c, 5, 74, 100
7, 48900, Note_on_c, 5, 74, 0
7, 48900, Note_on_c, 5, 78, 100
7, 48960, Note_on_c, 5, 78, 0
7, 48960, Note_on_c, 5, 72, 100
7, 48960, Note_on_c, 5, 69, 100
7, 48960, Note_on_c, 5, 65, 100
7, 49200, Note_on_c, 5, 65, 0
7, 49200, Note_on_c, 5, 69, 0
7, 49200, Note_on_c, 5, 72, 0
7, 49200, Note_on_c, 5, 72, 100
7, 49260, Note_on_c, 5, 72, 0
7, 49260, Note_on_c, 5, 72, 100
7, 49320, Note_on_c, 5, 72, 0
7, 49320, Note_on_c, 5, 69, 100
7, 49380, Note_on_c, 5, 69, 0
7, 49380, Note_on_c, 5, 71, 100
7, 49440, Note_on_c, 5, 71, 0
7, 49440, Note_on_c, 5, 74, 100
7, 49440, Note_on_c, 5, 71, 100
7, 49440, Note_on_c, 5, 67, 100
7, 49920, Note_on_c, 5, 67, 0
7, 49920, Note_on_c, 5, 71, 0
7, 49920, Note_on_c, 5, 74, 0
7, 50040, Note_on_c, 5, 69, 100
7, 50040, Note_on_c, 5, 72, 100
7, 50040, Note_on_c, 5, 67, 100
7, 50160, Note_on_c, 5, 67, 0
7, 50160, Note_on_c, 5, 72, 0
7, 50160, Note_on_c, 5, 69, 0
7, 50280, Note_on_c, 5, 67, 100
7, 50280, Note_on_c, 5, 72, 100
7, 50280, Note_on_c, 5, 69, 100
7, 50400, Note_on_c, 5, 69, 0
7, 50400, Note_on_c, 5, 72, 0
7, 50400, Note_on_c, 5, 67, 0
7, 50400, Note_on_c, 5, 74, 100
7, 50400, Note_on_c, 5, 71, 100
7, 50640, Note_on_c, 5, 71, 0
7, 50640, Note_on_c, 5, 74, 0
7, 50640, Note_on_c, 5, 69, 100
7, 50700, Note_on_c, 5, 69, 0
7, 50700, Note_on_c, 5, 69, 100
7, 50760, Note_on_c, 5, 69, 0
7, 50760, Note_on_c, 5, 74, 100
7, 50820, Note_on_c, 5, 74, 0
7, 50820, Note_on_c, 5, 78, 100
7, 50880, Note_on_c, 5, 78, 0
7, 51000, Note_on_c, 5, 69, 100
7, 51000, Note_on_c, 5, 72, 100
7, 51120, Note_on_c, 5, 72, 0
7, 51120, Note_on_c, 5, 69, 0
7, 51240, Note_on_c, 5, 72, 100
7, 51240, Note_on_c, 5, 69, 100
7, 51360, Note_on_c, 5, 69, 0
7, 51360, Note_on_c, 5, 72, 0
7, 51360, Note_on_c, 5, 74, 100
7, 51360, Note_on_c, 5, 71, 100
7, 51360, Note_on_c, 5, 67, 100
7, 51600, Note_on_c, 5, 67, 0
7, 51600, Note_on_c, 5, 71, 0
7, 51600, Note_on_c, 5, 74, 0
7, 51600, Note_on_c, 5, 69, 100
7, 51660, Note_on_c, 5, 69, 0
7, 51660, Note_on_c, 5, 69, 100
7, 51720, Note_on_c, 5, 69, 0
7, 51720, Note_on_c, 5, 74, 100
7, 51780, Note_on_c, 5, 74, 0
7, 51780, Note_on_c, 5, 78, 100
7, 51840, Note_on_c, 5, 78, 0
7, 51960, Note_on_c, 5, 69, 100
7, 51960, Note_on_c, 5, 72, 100
7, 52080, Note_on_c, 5, 72, 0
7, 52080, Note_on_c, 5, 69, 0
7, 52200, Note_on_c, 5, 72, 100
7, 52200, Note_on_c, 5, 69, 100
7, 52320, Note_on_c, 5, 69, 0
7, 52320, Note_on_c, 5, 72, 0
7, 52320, Note_on_c, 5, 74, 100
7, 52320, Note_on_c, 5, 71, 100
7, 52320, Note_on_c, 5, 67, 100
7, 52560, Note_on_c, 5, 67, 0
7, 52560, Note_on_c, 5, 71, 0
7, 52560, Note_on_c, 5, 74, 0
7, 52560, Note_on_c, 5, 69, 100
7, 52620, Note_on_c, 5, 69, 0
7, 52620, Note_on_c, 5, 69, 100
7, 52680, Note_on_c, 5, 69, 0
7, 52680, Note_on_c, 5, 74, 100
7, 52740, Note_on_c, 5, 74, 0
7, 52740, Note_on_c, 5, 78, 100
7, 52800, Note_on_c, 5, 78, 0
7, 52800, Note_on_c, 5, 72, 100
7, 52800, Note_on_c, 5, 69, 100
7, 52800, Note_on_c, 5, 65, 100
7, 53040, Note_on_c, 5, 65, 0
7, 53040, Note_on_c, 5, 69, 0
7, 53040, Note_on_c, 5, 72, 0
7, 53040, Note_on_c, 5, 72, 100
7, 53100, Note_on_c, 5, 72, 0
7, 53100, Note_on_c, 5, 72, 100
7, 53160, Note_on_c, 5, 72, 0
7, 53160, Note_on_c, 5, 69, 100
7, 53220, Note_on_c, 5, 69, 0
7, 53220, Note_on_c, 5, 71, 100
7, 53280, Note_on_c, 5, 71, 0
7, 53280, Note_on_c, 5, 74, 100
7, 53280, Note_on_c, 5, 71, 100
7, 53280, Note_on_c, 5, 67, 100
7, 53760, Note_on_c, 5, 67, 0
7, 53760, Note_on_c, 5, 71, 0
7, 53760, Note_on_c, 5, 74, 0
7, 53880, Note_on_c, 5, 69, 100
7, 53880, Note_on_c, 5, 72, 100
7, 53880, Note_on_c, 5, 67, 100
7, 54000, Note_on_c, 5, 67, 0
7, 54000, Note_on_c, 5, 72, 0
7, 54000, Note_on_c, 5, 69, 0
7, 54120, Note_on_c, 5, 67, 100
7, 54120, Note_on_c, 5, 72, 100
7, 54120, Note_on_c, 5, 69, 100
7, 54240, Note_on_c, 5, 69, 0
7, 54240, Note_on_c, 5, 72, 0
7, 54240, Note_on_c, 5, 67, 0
7, 54240, Note_on_c, 5, 74, 100
7, 54240, Note_on_c, 5, 71, 100
7, 54480, Note_on_c, 5, 71, 0
7, 54480, Note_on_c, 5, 74, 0
7, 54480, Note_on_c, 5, 69, 100
7, 54540, Note_on_c, 5, 69, 0
7, 54540, Note_on_c, 5, 69, 100
7, 54600, Note_on_c, 5, 69, 0
7, 54600, Note_on_c, 5, 74, 100
7, 54660, Note_on_c, 5, 74, 0
7, 54660, Note_on_c, 5, 78, 100
7, 54720, Note_on_c, 5, 78, 0
7, 54840, Note_on_c, 5, 69, 100
7, 54840, Note_on_c, 5, 72, 100
7, 54960, Note_on_c, 5, 72, 0
7, 54960, Note_on_c, 5, 69, 0
7, 55080, Note_on_c, 5, 72, 100
7, 55080, Note_on_c, 5, 69, 100
7, 55200, Note_on_c, 5, 69, 0
7, 55200, Note_on_c, 5, 72, 0
7, 55200, Note_on_c, 5, 74, 100
7, 55200, Note_on_c, 5, 71, 100
7, 55200, Note_on_c, 5, 67, 100
7, 55440, Note_on_c, 5, 67, 0
7, 55440, Note_on_c, 5, 71, 0
7, 55440, Note_on_c, 5, 74, 0
7, 55440, Note_on_c, 5, 69, 100
7, 55500, Note_on_c, 5, 69, 0
7, 55500, Note_on_c, 5, 69, 100
7, 55560, Note_on_c, 5, 69, 0
7, 55560, Note_on_c, 5, 74, 100
7, 55620, Note_on_c, 5, 74, 0
7, 55620, Note_on_c, 5, 78, 100
7, 55680, Note_on_c, 5, 78, 0
7, 55800, Note_on_c, 5, 69, 100
7, 55800, Note_on_c, 5, 72, 100
7, 55920, Note_on_c, 5, 72, 0
7, 55920, Note_on_c, 5, 69, 0
7, 56040, Note_on_c, 5, 72, 100
7, 56040, Note_on_c, 5, 69, 100
7, 56160, Note_on_c, 5, 69, 0
7, 56160, Note_on_c, 5, 72, 0
7, 56160, Note_on_c, 5, 74, 100
7, 56160, Note_on_c, 5, 71, 100
7, 56160, Note_on_c, 5, 67, 100
7, 56400, Note_on_c, 5, 67, 0
7, 56400, Note_on_c, 5, 71, 0
7, 56400, Note_on_c, 5, 74, 0
7, 56400, Note_on_c, 5, 69, 100
7, 56460, Note_on_c, 5, 69, 0
7, 56460, Note_on_c, 5, 69, 100
7, 56520, Note_on_c, 5, 69, 0
7, 56520, Note_on_c, 5, 74, 100
7, 56580, Note_on_c, 5, 74, 0
7, 56580, Note_on_c, 5, 78, 100
7, 56640, Note_on_c, 5, 78, 0
7, 56640, Note_on_c, 5, 72, 100
7, 56640, Note_on_c, 5, 69, 100
7, 56640, Note_on_c, 5, 65, 100
7, 56880, Note_on_c, 5, 65, 0
7, 56880, Note_on_c, 5, 69, 0
7, 56880, Note_on_c, 5, 72, 0
7, 56880, Note_on_c, 5, 72, 100
7, 56940, Note_on_c, 5, 72, 0
7, 56940, Note_on_c, 5, 72, 100
7, 57000, Note_on_c, 5, 72, 0
7, 57000, Note_on_c, 5, 69, 100
7, 57060, Note_on_c, 5, 69, 0
7, 57060, Note_on_c, 5, 71, 100
7, 57120, Note_on_c, 5, 71, 0
7, 57120, Note_on_c, 5, 74, 100
7, 57120, Note_on_c, 5, 71, 100
7, 57120, Note_on_c, 5, 67, 100
7, 57600, Note_on_c, 5, 67, 0
7, 57600, Note_on_c, 5, 71, 0
7, 57600, Note_on_c, 5, 74, 0
7, 57720, Note_on_c, 5, 69, 100
7, 57720, Note_on_c, 5, 72, 100
7, 57720, Note_on_c, 5, 67, 100
7, 57840, Note_on_c, 5, 67, 0
7, 57840, Note_on_c, 5, 72, 0
7, 57840, Note_on_c, 5, 69, 0
7, 57960, Note_on_c, 5, 67, 100
7, 57960, Note_on_c, 5, 72, 100
7, 57960, Note_on_c, 5, 69, 100
7, 58080, Note_on_c, 5, 69, 0
7, 58080, Note_on_c, 5, 72, 0
7, 58080, Note_on_c, 5, 67, 0
7, 58080, Note_on_c, 5, 74, 100
7, 58080, Note_on_c, 5, 71, 100
7, 58320, Note_on_c, 5, 71, 0
7, 58320, Note_on_c, 5, 74, 0
7, 58320, Note_on_c, 5, 69, 100
7, 58380, Note_on_c, 5, 69, 0
7, 58380, Note_on_c, 5, 69, 100
7, 58440, Note_on_c, 5, 69, 0
7, 58440, Note_on_c, 5, 74, 100
7, 58500, Note_on_c, 5, 74, 0
7, 58500, Note_on_c, 5, 78, 100
7, 58560, Note_on_c, 5, 78, 0
7, 58680, Note_on_c, 5, 69, 100
7, 58680, Note_on_c, 5, 72, 100
7, 58800, Note_on_c, 5, 72, 0
7, 58800, Note_on_c, 5, 69, 0
7, 58920, Note_on_c, 5, 72, 100
7, 58920, Note_on_c, 5, 69, 100
7, 59040, Note_on_c, 5, 69, 0
7, 59040, Note_on_c, 5, 72, 0
7, 59040, Note_on_c, 5, 74, 100
7, 59040, Note_on_c, 5, 71, 100
7, 59040, Note_on_c, 5, 67, 100
7, 59280, Note_on_c, 5, 67, 0
7, 59280, Note_on_c, 5, 71, 0
7, 59280, Note_on_c, 5, 74, 0
7, 59280, Note_on_c, 5, 69, 100
7, 59340, Note_on_c, 5, 69, 0
7, 59340, Note_on_c, 5, 69, 100
7, 59400, Note_on_c, 5, 69, 0
7, 59400, Note_on_c, 5, 74, 100
7, 59460, Note_on_c, 5, 74, 0
7, 59460, Note_on_c, 5, 78, 100
7, 59520, Note_on_c, 5, 78, 0
7, 59640, Note_on_c, 5, 69, 100
7, 59640, Note_on_c, 5, 72, 100
7, 59760, Note_on_c, 5, 72, 0
7, 59760, Note_on_c, 5, 69, 0
7, 59880, Note_on_c, 5, 72, 100
7, 59880, Note_on_c, 5, 69, 100
7, 60000, Note_on_c, 5, 69, 0
7, 60000, Note_on_c, 5, 72, 0
7, 60000, Note_on_c, 5, 74, 100
7, 60000, Note_on_c, 5, 71, 100
7, 60000, Note_on_c, 5, 67, 100
7, 60240, Note_on_c, 5, 67, 0
7, 60240, Note_on_c, 5, 71, 0
7, 60240, Note_on_c, 5, 74, 0
7, 60240, Note_on_c, 5, 69, 100
7, 60300, Note_on_c, 5, 69, 0
7, 60300, Note_on_c, 5, 69, 100
7, 60360, Note_on_c, 5, 69, 0
7, 60360, Note_on_c, 5, 74, 100
7, 60420, Note_on_c, 5, 74, 0
7, 60420, Note_on_c, 5, 78, 100
7, 60480, Note_on_c, 5, 78, 0
7, 60480, Note_on_c, 5, 72, 100
7, 60480, Note_on_c, 5, 69, 100
7, 60480, Note_on_c, 5, 65, 100
7, 60720, Note_on_c, 5, 65, 0
7, 60720, Note_on_c, 5, 69, 0
7, 60720, Note_on_c, 5, 72, 0
7, 60720, Note_on_c, 5, 72, 100
7, 60780, Note_on_c, 5, 72, 0
7, 60780, Note_on_c, 5, 72, 100
7, 60840, Note_on_c, 5, 72, 0
7, 60840, Note_on_c, 5, 69, 100
7, 60900, Note_on_c, 5, 69, 0
7, 60900, Note_on_c, 5, 71, 100
7, 60960, Note_on_c, 5, 71, 0
7, 60960, Note_on_c, 5, 74, 100
7, 60960, Note_on_c, 5, 71, 100
7, 60960, Note_on_c, 5, 67, 100
7, 61440, Note_on_c, 5, 67, 0
7, 61440, Note_on_c, 5, 71, 0
7, 61440, Note_on_c, 5, 74, 0
7, 61560, Note_on_c, 5, 69, 100
7, 61560, Note_on_c, 5, 72, 100
7, 61560, Note_on_c, 5, 67, 100
7, 61680, Note_on_c, 5, 67, 0
7, 61680, Note_on_c, 5, 72, 0
7, 61680, Note_on_c, 5, 69, 0
7, 61800, Note_on_c, 5, 67, 100
7, 61800, Note_on_c, 5, 72, 100
7, 61800, Note_on_c, 5, 69, 100
7, 61920, Note_on_c, 5, 69, 0
7, 61920, Note_on_c, 5, 72, 0
7, 61920, Note_on_c, 5, 67, 0
7, 61920, Note_on_c, 5, 74, 100
7, 61920, Note_on_c, 5, 71, 100
7, 62160, Note_on_c, 5, 71, 0
7, 62160, Note_on_c, 5, 74, 0
7, 62160, Note_on_c, 5, 69, 100
7, 62220, Note_on_c, 5, 69, 0
7, 62220, Note_on_c, 5, 69, 100
7, 62280, Note_on_c, 5, 69, 0
7, 62280, Note_on_c, 5, 74, 100
7, 62340, Note_on_c, 5, 74, 0
7, 62340, Note_on_c, 5, 78, 100
7, 62400, Note_on_c, 5, 78, 0
7, 62520, Note_on_c, 5, 69, 100
7, 62520, Note_on_c, 5, 72, 100
7, 62640, Note_on_c, 5, 72, 0
7, 62640, Note_on_c, 5, 69, 0
7, 62760, Note_on_c, 5, 72, 100
7, 62760, Note_on_c, 5, 69, 100
7, 62880, Note_on_c, 5, 69, 0
7, 62880, Note_on_c, 5, 72, 0
7, 62880, Note_on_c, 5, 74, 100
7, 62880, Note_on_c, 5, 71, 100
7, 62880, Note_on_c, 5, 67, 100
7, 63120, Note_on_c, 5, 67, 0
7, 63120, Note_on_c, 5, 71, 0
7, 63120, Note_on_c, 5, 74, 0
7, 63120, Note_on_c, 5, 69, 100
7, 63180, Note_on_c, 5, 69, 0
7, 63180, Note_on_c, 5, 69, 100
7, 63240, Note_on_c, 5, 69, 0
7, 63240, Note_on_c, 5, 74, 100
7, 63300, Note_on_c, 5, 74, 0
7, 63300, Note_on_c, 5, 78, 100
7, 63360, Note_on_c, 5, 78, 0
7, 63480, Note_on_c, 5, 69, 100
7, 63480, Note_on_c, 5, 72, 100
7, 63600, Note_on_c, 5, 72, 0
7, 63600, Note_on_c, 5, 69, 0
7, 63720, Note_on_c, 5, 72, 100
7, 63720, Note_on_c, 5, 69, 100
7, 63840, Note_on_c, 5, 69, 0
7, 63840, Note_on_c, 5, 72, 0
7, 63840, Note_on_c, 5, 74, 100
7, 63840, Note_on_c, 5, 71, 100
7, 63840, Note_on_c, 5, 67, 100
7, 64080, Note_on_c, 5, 67, 0
7, 64080, Note_on_c, 5, 71, 0
7, 64080, Note_on_c, 5, 74, 0
7, 64080, Note_on_c, 5, 69, 100
7, 64140, Note_on_c, 5, 69, 0
7, 64140, Note_on_c, 5, 69, 100
7, 64200, Note_on_c, 5, 69, 0
7, 64200, Note_on_c, 5, 74, 100
7, 64260, Note_on_c, 5, 74, 0
7, 64260, Note_on_c, 5, 78, 100
7, 64320, Note_on_c, 5, 78, 0
7, 64320, Note_on_c, 5, 72, 100
7, 64320, Note_on_c, 5, 69, 100
7, 64320, Note_on_c, 5, 65, 100
7, 64560, Note_on_c, 5, 65, 0
7, 64560, Note_on_c, 5, 69, 0
7, 64560, Note_on_c, 5, 72, 0
7, 64560, Note_on_c, 5, 72, 100
7, 64620, Note_on_c, 5, 72, 0
7, 64620, Note_on_c, 5, 72, 100
7, 64680, Note_on_c, 5, 72, 0
7, 64680, Note_on_c, 5, 69, 100
7, 64740, Note_on_c, 5, 69, 0
7, 64740, Note_on_c, 5, 71, 100
7, 64800, Note_on_c, 5, 71, 0
7, 64800, Note_on_c, 5, 74, 100
7, 64800, Note_on_c, 5, 71, 100
7, 64800, Note_on_c, 5, 67, 100
7, 65280, Note_on_c, 5, 67, 0
7, 65280, Note_on_c, 5, 71, 0
7, 65280, Note_on_c, 5, 74, 0
7, 65286, Control_c, 5, 7, 116
7, 65306, Control_c, 5, 7, 115
7, 65326, Control_c, 5, 7, 114
7, 65346, Control_c, 5, 7, 113
7, 65363, Control_c, 5, 7, 112
7, 65383, Control_c, 5, 7, 111
7, 65400, Note_on_c, 5, 69, 100
7, 65400, Note_on_c, 5, 64, 100
7, 65400, Note_on_c, 5, 72, 100
7, 65400, Note_on_c, 5, 67, 100
7, 65403, Control_c, 5, 7, 110
7, 65420, Control_c, 5, 7, 109
7, 65440, Control_c, 5, 7, 108
7, 65460, Control_c, 5, 7, 107
7, 65476, Control_c, 5, 7, 106
7, 65496, Control_c, 5, 7, 105
7, 65516, Control_c, 5, 7, 104
7, 65520, Note_on_c, 5, 67, 0
7, 65520, Note_on_c, 5, 69, 0
7, 65520, Note_on_c, 5, 64, 0
7, 65520, Note_on_c, 5, 72, 0
7, 65533, Control_c, 5, 7, 103
7, 65553, Control_c, 5, 7, 102
7, 65573, Control_c, 5, 7, 101
7, 65593, Control_c, 5, 7, 100
7, 65610, Control_c, 5, 7, 99
7, 65630, Control_c, 5, 7, 98
7, 65640, Note_on_c, 5, 64, 100
7, 65640, Note_on_c, 5, 67, 100
7, 65640, Note_on_c, 5, 72, 100
7, 65640, Note_on_c, 5, 69, 100
7, 65650, Control_c, 5, 7, 97
7, 65666, Control_c, 5, 7, 96
7, 65686, Control_c, 5, 7, 95
7, 65706, Control_c, 5, 7, 94
7, 65723, Control_c, 5, 7, 93
7, 65743, Control_c, 5, 7, 92
7, 65760, Note_on_c, 5, 69, 0
7, 65760, Note_on_c, 5, 64, 0
7, 65760, Note_on_c, 5, 67, 0
7, 65760, Note_on_c, 5, 72, 0
7, 65760, Note_on_c, 5, 74, 100
7, 65760, Note_on_c, 5, 71, 100
7, 65760, Note_on_c, 5, 67, 100
7, 65763, Control_c, 5, 7, 91
7, 65780, Control_c, 5, 7, 90
7, 65800, Control_c, 5, 7, 89
7, 65820, Control_c, 5, 7, 88
7, 65836, Control_c, 5, 7, 87
7, 65856, Control_c, 5, 7, 86
7, 65876, Control_c, 5, 7, 85
7, 65896, Control_c, 5, 7, 84
7, 65913, Control_c, 5, 7, 83
7, 65933, Control_c, 5, 7, 82
7, 65953, Control_c, 5, 7, 81
7, 65970, Control_c, 5, 7, 80
7, 65990, Control_c, 5, 7, 79
7, 66000, Note_on_c, 5, 67, 0
7, 66000, Note_on_c, 5, 71, 0
7, 66000, Note_on_c, 5, 74, 0
7, 66000, Note_on_c, 5, 69, 100
7, 66010, Control_c, 5, 7, 78
7, 66026, Control_c, 5, 7, 77
7, 66046, Control_c, 5, 7, 76
7, 66060, Note_on_c, 5, 69, 0
7, 66060, Note_on_c, 5, 69, 100
7, 66066, Control_c, 5, 7, 75
7, 66083, Control_c, 5, 7, 74
7, 66103, Control_c, 5, 7, 73
7, 66120, Note_on_c, 5, 69, 0
7, 66120, Note_on_c, 5, 74, 100
7, 66123, Control_c, 5, 7, 72
7, 66143, Control_c, 5, 7, 71
7, 66160, Control_c, 5, 7, 70
7, 66180, Note_on_c, 5, 74, 0
7, 66180, Control_c, 5, 7, 69
7, 66180, Note_on_c, 5, 78, 100
7, 66200, Control_c, 5, 7, 68
7, 66216, Control_c, 5, 7, 67
7, 66236, Control_c, 5, 7, 66
7, 66240, Note_on_c, 5, 78, 0
7, 66256, Control_c, 5, 7, 65
7, 66273, Control_c, 5, 7, 64
7, 66293, Control_c, 5, 7, 63
7, 66313, Control_c, 5, 7, 62
7, 66330, Control_c, 5, 7, 61
7, 66350, Control_c, 5, 7, 60
7, 66360, Note_on_c, 5, 69, 100
7, 66360, Note_on_c, 5, 67, 100
7, 66360, Note_on_c, 5, 72, 100
7, 66360, Note_on_c, 5, 64, 100
7, 66370, Control_c, 5, 7, 59
7, 66386, Control_c, 5, 7, 58
7, 66406, Control_c, 5, 7, 57
7, 66426, Control_c, 5, 7, 56
7, 66446, Control_c, 5, 7, 55
7, 66463, Control_c, 5, 7, 54
7, 66480, Note_on_c, 5, 64, 0
7, 66480, Note_on_c, 5, 69, 0
7, 66480, Note_on_c, 5, 67, 0
7, 66480, Note_on_c, 5, 72, 0
7, 66483, Control_c, 5, 7, 53
7, 66503, Control_c, 5, 7, 52
7, 66520, Control_c, 5, 7, 51
7, 66540, Control_c, 5, 7, 50
7, 66560, Control_c, 5, 7, 49
7, 66576, Control_c, 5, 7, 48
7, 66596, Control_c, 5, 7, 47
7, 66600, Note_on_c, 5, 64, 100
7, 66600, Note_on_c, 5, 67, 100
7, 66600, Note_on_c, 5, 72, 100
7, 66600, Note_on_c, 5, 69, 100
7, 66616, Control_c, 5, 7, 46
7, 66633, Control_c, 5, 7, 45
7, 66653, Control_c, 5, 7, 44
7, 66673, Control_c, 5, 7, 43
7, 66693, Control_c, 5, 7, 42
7, 66710, Control_c, 5, 7, 41
7, 66720, Note_on_c, 5, 69, 0
7, 66720, Note_on_c, 5, 64, 0
7, 66720, Note_on_c, 5, 67, 0
7, 66720, Note_on_c, 5, 72, 0
7, 66720, Note_on_c, 5, 74, 100
7, 66720, Note_on_c, 5, 71, 100
7, 66720, Note_on_c, 5, 67, 100
7, 66730, Control_c, 5, 7, 40
7, 66750, Control_c, 5, 7, 39
7, 66766, Control_c, 5, 7, 38
7, 66786, Control_c, 5, 7, 37
7, 66806, Control_c, 5, 7, 36
7, 66823, Control_c, 5, 7, 35
7, 66843, Control_c, 5, 7, 34
7, 66863, Control_c, 5, 7, 33
7, 66880, Control_c, 5, 7, 32
7, 66900, Control_c, 5, 7, 31
7, 66920, Control_c, 5, 7, 30
7, 66936, Control_c, 5, 7, 29
7, 66956, Control_c, 5, 7, 28
7, 66960, Note_on_c, 5, 67, 0
7, 66960, Note_on_c, 5, 71, 0
7, 66960, Note_on_c, 5, 74, 0
7, 66960, Note_on_c, 5, 69, 100
7, 66976, Control_c, 5, 7, 27
7, 66996, Control_c, 5, 7, 26
7, 67013, Control_c, 5, 7, 25
7, 67020, Note_on_c, 5, 69, 0
7, 67020, Note_on_c, 5, 69, 100
7, 67033, Control_c, 5, 7, 24
7, 67053, Control_c, 5, 7, 23
7, 67070, Control_c, 5, 7, 22
7, 67080, Note_on_c, 5, 69, 0
7, 67080, Note_on_c, 5, 74, 100
7, 67090, Control_c, 5, 7, 21
7, 67110, Control_c, 5, 7, 20
7, 67126, Control_c, 5, 7, 19
7, 67140, Note_on_c, 5, 74, 0
7, 67140, Note_on_c, 5, 78, 100
7, 67146, Control_c, 5, 7, 18
7, 67166, Control_c, 5, 7, 17
7, 67183, Control_c, 5, 7, 16
7, 67200, Note_on_c, 5, 78, 0
7, 67203, Control_c, 5, 7, 15
7, 67223, Control_c, 5, 7, 14
7, 67243, Control_c, 5, 7, 13
7, 67260, Control_c, 5, 7, 12
7, 67280, Control_c, 5, 7, 11
7, 67300, Control_c, 5, 7, 10
7, 67316, Control_c, 5, 7, 9
7, 67320, Note_on_c, 5, 69, 100
7, 67320, Note_on_c, 5, 64, 100
7, 67320, Note_on_c, 5, 72, 100
7, 67320, Note_on_c, 5, 67, 100
7, 67336, Control_c, 5, 7, 8
7, 67356, Control_c, 5, 7, 7
7, 67373, Control_c, 5, 7, 6
7, 67393, Control_c, 5, 7, 5
7, 67413, Control_c, 5, 7, 4
7, 67430, Control_c, 5, 7, 3
7, 67440, Note_on_c, 5, 67, 0
7, 67440, Note_on_c, 5, 69, 0
7, 67440, Note_on_c, 5, 64, 0
7, 67440, Note_on_c, 5, 72, 0
7, 67450, Control_c, 5, 7, 2
7, 67470, Control_c, 5, 7, 1
7, 67486, Control_c, 5, 7, 0
7, 67560, Note_on_c, 5, 64, 100
7, 67560, Note_on_c, 5, 67, 100
7, 67560, Note_on_c, 5, 72, 100
7, 67560, Note_on_c, 5, 69, 100
7, 67680, Note_on_c, 5, 69, 0
7, 67680, Note_on_c, 5, 64, 0
7, 67680, Note_on_c, 5, 67, 0
7, 67680, Note_on_c, 5, 72, 0
7, 67680, Note_on_c, 5, 74, 100
7, 67680, Note_on_c, 5, 71, 100
7, 67680, Note_on_c, 5, 67, 100
7, 67920, Note_on_c, 5, 67, 0
7, 67920, Note_on_c, 5, 71, 0
7, 67920, Note_on_c, 5, 74, 0
7, 67920, Note_on_c, 5, 69, 100
7, 67980, Note_on_c, 5, 69, 0
7, 67980, Note_on_c, 5, 69, 100
7, 68040, Note_on_c, 5, 69, 0
7, 68040, Note_on_c, 5, 74, 100
7, 68100, Note_on_c, 5, 74, 0
7, 68100, Note_on_c, 5, 78, 100
7, 68160, Note_on_c, 5, 78, 0
7, 68160, Note_on_c, 5, 72, 100
7, 68160, Note_on_c, 5, 69, 100
7, 68160, Note_on_c, 5, 65, 100
7, 68400, Note_on_c, 5, 65, 0
7, 68400, Note_on_c, 5, 69, 0
7, 68400, Note_on_c, 5, 72, 0
7, 68400, Note_on_c, 5, 72, 100
7, 68460, Note_on_c, 5, 72, 0
7, 68460, Note_on_c, 5, 72, 100
7, 68520, Note_on_c, 5, 72, 0
7, 68520, Note_on_c, 5, 69, 100
7, 68580, Note_on_c, 5, 69, 0
7, 68580, Note_on_c, 5, 71, 100
7, 68640, Note_on_c, 5, 71, 0
7, 68640, Note_on_c, 5, 74, 100
7, 68640, Note_on_c, 5, 71, 100
7, 68640, Note_on_c, 5, 67, 100
7, 69120, Note_on_c, 5, 67, 0
7, 69120, Note_on_c, 5, 71, 0
7, 69120, Note_on_c, 5, 74, 0
7, 69120, End_track
8, 0, Start_track
8, 0, MIDI_port, 0
8, 0, Title_t, "Lala/Backing vocals"
8, 0, Control_c, 6, 0, 0
8, 0, Control_c, 6, 32, 0
8, 0, Program_c, 6, 52
8, 0, Control_c, 6, 7, 120
8, 653, Control_c, 6, 7, 110
8, 653, Control_c, 6, 10, 64
8, 8640, Note_on_c, 6, 84, 100
8, 8760, Note_on_c, 6, 84, 0
8, 8760, Note_on_c, 6, 81, 100
8, 8880, Note_on_c, 6, 81, 0
8, 8880, Note_on_c, 6, 81, 100
8, 8940, Note_on_c, 6, 81, 0
8, 8940, Note_on_c, 6, 84, 100
8, 8970, Note_on_c, 6, 84, 0
8, 8970, Note_on_c, 6, 81, 100
8, 9120, Note_on_c, 6, 81, 0
8, 9120, Note_on_c, 6, 83, 100
8, 9180, Note_on_c, 6, 83, 0
8, 9180, Note_on_c, 6, 83, 100
8, 9240, Note_on_c, 6, 83, 0
8, 9240, Note_on_c, 6, 83, 100
8, 9300, Note_on_c, 6, 83, 0
8, 9300, Note_on_c, 6, 84, 100
8, 9360, Note_on_c, 6, 84, 0
8, 9360, Note_on_c, 6, 86, 100
8, 9420, Note_on_c, 6, 86, 0
8, 9420, Note_on_c, 6, 84, 100
8, 9480, Note_on_c, 6, 84, 0
8, 9480, Note_on_c, 6, 81, 100
8, 9600, Note_on_c, 6, 81, 0
8, 9600, Note_on_c, 6, 84, 100
8, 9720, Note_on_c, 6, 84, 0
8, 9720, Note_on_c, 6, 81, 100
8, 9840, Note_on_c, 6, 81, 0
8, 9840, Note_on_c, 6, 81, 100
8, 9900, Note_on_c, 6, 81, 0
8, 9900, Note_on_c, 6, 84, 100
8, 9930, Note_on_c, 6, 84, 0
8, 9930, Note_on_c, 6, 81, 100
8, 10080, Note_on_c, 6, 81, 0
8, 10080, Note_on_c, 6, 83, 100
8, 10140, Note_on_c, 6, 83, 0
8, 10140, Note_on_c, 6, 83, 100
8, 10200, Note_on_c, 6, 83, 0
8, 10200, Note_on_c, 6, 83, 100
8, 10260, Note_on_c, 6, 83, 0
8, 10260, Note_on_c, 6, 84, 100
8, 10320, Note_on_c, 6, 84, 0
8, 10320, Note_on_c, 6, 86, 100
8, 10380, Note_on_c, 6, 86, 0
8, 10380, Note_on_c, 6, 84, 100
8, 10440, Note_on_c, 6, 84, 0
8, 10440, Note_on_c, 6, 81, 100
8, 10560, Note_on_c, 6, 81, 0
8, 10560, Note_on_c, 6, 84, 100
8, 10680, Note_on_c, 6, 84, 0
8, 10680, Note_on_c, 6, 81, 100
8, 10800, Note_on_c, 6, 81, 0
8, 10800, Note_on_c, 6, 81, 100
8, 10860, Note_on_c, 6, 81, 0
8, 10860, Note_on_c, 6, 84, 100
8, 10890, Note_on_c, 6, 84, 0
8, 10890, Note_on_c, 6, 81, 100
8, 11040, Note_on_c, 6, 81, 0
8, 11040, Note_on_c, 6, 83, 100
8, 11100, Note_on_c, 6, 83, 0
8, 11100, Note_on_c, 6, 83, 100
8, 11160, Note_on_c, 6, 83, 0
8, 11160, Note_on_c, 6, 83, 100
8, 11220, Note_on_c, 6, 83, 0
8, 11220, Note_on_c, 6, 84, 100
8, 11280, Note_on_c, 6, 84, 0
8, 11280, Note_on_c, 6, 86, 100
8, 11340, Note_on_c, 6, 86, 0
8, 11340, Note_on_c, 6, 84, 100
8, 11400, Note_on_c, 6, 84, 0
8, 11400, Note_on_c, 6, 81, 100
8, 11520, Note_on_c, 6, 81, 0
8, 11640, Note_on_c, 6, 69, 100
8, 11700, Note_on_c, 6, 69, 0
8, 11700, Note_on_c, 6, 69, 100
8, 11760, Note_on_c, 6, 69, 0
8, 11760, Note_on_c, 6, 71, 100
8, 11820, Note_on_c, 6, 71, 0
8, 11820, Note_on_c, 6, 69, 100
8, 11880, Note_on_c, 6, 69, 0
8, 11880, Note_on_c, 6, 65, 100
8, 11940, Note_on_c, 6, 65, 0
8, 11940, Note_on_c, 6, 69, 100
8, 12240, Note_on_c, 6, 69, 0
8, 20640, Note_on_c, 6, 84, 100
8, 20760, Note_on_c, 6, 84, 0
8, 20760, Note_on_c, 6, 81, 100
8, 20880, Note_on_c, 6, 81, 0
8, 20880, Note_on_c, 6, 81, 100
8, 20940, Note_on_c, 6, 81, 0
8, 20940, Note_on_c, 6, 84, 100
8, 20970, Note_on_c, 6, 84, 0
8, 20970, Note_on_c, 6, 81, 100
8, 21120, Note_on_c, 6, 81, 0
8, 21120, Note_on_c, 6, 83, 100
8, 21180, Note_on_c, 6, 83, 0
8, 21180, Note_on_c, 6, 83, 100
8, 21240, Note_on_c, 6, 83, 0
8, 21240, Note_on_c, 6, 83, 100
8, 21300, Note_on_c, 6, 83, 0
8, 21300, Note_on_c, 6, 84, 100
8, 21360, Note_on_c, 6, 84, 0
8, 21360, Note_on_c, 6, 86, 100
8, 21420, Note_on_c, 6, 86, 0
8, 21420, Note_on_c, 6, 84, 100
8, 21480, Note_on_c, 6, 84, 0
8, 21480, Note_on_c, 6, 81, 100
8, 21600, Note_on_c, 6, 81, 0
8, 21600, Note_on_c, 6, 84, 100
8, 21720, Note_on_c, 6, 84, 0
8, 21720, Note_on_c, 6, 81, 100
8, 21840, Note_on_c, 6, 81, 0
8, 21840, Note_on_c, 6, 81, 100
8, 21900, Note_on_c, 6, 81, 0
8, 21900, Note_on_c, 6, 84, 100
8, 21930, Note_on_c, 6, 84, 0
8, 21930, Note_on_c, 6, 81, 100
8, 22080, Note_on_c, 6, 81, 0
8, 22080, Note_on_c, 6, 83, 100
8, 22140, Note_on_c, 6, 83, 0
8, 22140, Note_on_c, 6, 83, 100
8, 22200, Note_on_c, 6, 83, 0
8, 22200, Note_on_c, 6, 83, 100
8, 22260, Note_on_c, 6, 83, 0
8, 22260, Note_on_c, 6, 84, 100
8, 22320, Note_on_c, 6, 84, 0
8, 22320, Note_on_c, 6, 86, 100
8, 22380, Note_on_c, 6, 86, 0
8, 22380, Note_on_c, 6, 84, 100
8, 22440, Note_on_c, 6, 84, 0
8, 22440, Note_on_c, 6, 81, 100
8, 22560, Note_on_c, 6, 81, 0
8, 22560, Note_on_c, 6, 84, 100
8, 22680, Note_on_c, 6, 84, 0
8, 22680, Note_on_c, 6, 81, 100
8, 22800, Note_on_c, 6, 81, 0
8, 22800, Note_on_c, 6, 81, 100
8, 22860, Note_on_c, 6, 81, 0
8, 22860, Note_on_c, 6, 84, 100
8, 22890, Note_on_c, 6, 84, 0
8, 22890, Note_on_c, 6, 81, 100
8, 23040, Note_on_c, 6, 81, 0
8, 23040, Note_on_c, 6, 83, 100
8, 23100, Note_on_c, 6, 83, 0
8, 23100, Note_on_c, 6, 83, 100
8, 23160, Note_on_c, 6, 83, 0
8, 23160, Note_on_c, 6, 83, 100
8, 23220, Note_on_c, 6, 83, 0
8, 23220, Note_on_c, 6, 84, 100
8, 23280, Note_on_c, 6, 84, 0
8, 23280, Note_on_c, 6, 86, 100
8, 23340, Note_on_c, 6, 86, 0
8, 23340, Note_on_c, 6, 84, 100
8, 23400, Note_on_c, 6, 84, 0
8, 23400, Note_on_c, 6, 81, 100
8, 23520, Note_on_c, 6, 81, 0
8, 23640, Note_on_c, 6, 69, 100
8, 23700, Note_on_c, 6, 69, 0
8, 23700, Note_on_c, 6, 69, 100
8, 23760, Note_on_c, 6, 69, 0
8, 23760, Note_on_c, 6, 71, 100
8, 23820, Note_on_c, 6, 71, 0
8, 23820, Note_on_c, 6, 69, 100
8, 23880, Note_on_c, 6, 69, 0
8, 23880, Note_on_c, 6, 65, 100
8, 23940, Note_on_c, 6, 65, 0
8, 23940, Note_on_c, 6, 69, 100
8, 24240, Note_on_c, 6, 69, 0
8, 24916, Control_c, 6, 7, 1
8, 24916, Control_c, 6, 1, 2
8, 24920, Control_c, 6, 7, 8
8, 24920, Control_c, 6, 1, 4
8, 24923, Control_c, 6, 7, 15
8, 24923, Control_c, 6, 1, 6
8, 24926, Control_c, 6, 7, 23
8, 24926, Control_c, 6, 1, 8
8, 24930, Control_c, 6, 7, 30
8, 24930, Control_c, 6, 1, 10
8, 24933, Control_c, 6, 7, 38
8, 24933, Control_c, 6, 1, 12
8, 24936, Control_c, 6, 7, 45
8, 24936, Control_c, 6, 1, 14
8, 24940, Control_c, 6, 7, 52
8, 24940, Control_c, 6, 1, 16
8, 24943, Control_c, 6, 7, 60
8, 24943, Control_c, 6, 1, 18
8, 24946, Control_c, 6, 7, 67
8, 24946, Control_c, 6, 1, 20
8, 24950, Control_c, 6, 7, 75
8, 24950, Control_c, 6, 1, 22
8, 24953, Control_c, 6, 7, 82
8, 24956, Control_c, 6, 7, 89
8, 24960, Control_c, 6, 7, 97
8, 24960, Note_on_c, 6, 92, 100
8, 24963, Control_c, 6, 7, 104
8, 24966, Control_c, 6, 7, 112
8, 24970, Control_c, 6, 7, 119
8, 24973, Control_c, 6, 7, 127
8, 25200, Note_on_c, 6, 92, 0
8, 25200, Note_on_c, 6, 90, 100
8, 25380, Note_on_c, 6, 87, 100
8, 25440, Note_on_c, 6, 90, 0
8, 25500, Note_on_c, 6, 87, 0
8, 25500, Note_on_c, 6, 85, 100
8, 25800, Note_on_c, 6, 85, 0
8, 25920, Note_on_c, 6, 87, 100
8, 26280, Note_on_c, 6, 90, 100
8, 26400, Note_on_c, 6, 90, 0
8, 26400, Note_on_c, 6, 87, 0
8, 26400, Note_on_c, 6, 86, 100
8, 26880, Note_on_c, 6, 86, 0
8, 26880, Note_on_c, 6, 92, 100
8, 27120, Note_on_c, 6, 92, 0
8, 27120, Note_on_c, 6, 90, 100
8, 27300, Note_on_c, 6, 87, 100
8, 27360, Note_on_c, 6, 90, 0
8, 27420, Note_on_c, 6, 87, 0
8, 27420, Note_on_c, 6, 85, 100
8, 27720, Note_on_c, 6, 85, 0
8, 27840, Note_on_c, 6, 87, 100
8, 28200, Note_on_c, 6, 90, 100
8, 28320, Note_on_c, 6, 90, 0
8, 28320, Note_on_c, 6, 87, 0
8, 28320, Note_on_c, 6, 86, 100
8, 28795, Control_c, 6, 7, 124
8, 28800, Note_on_c, 6, 86, 0
8, 28805, Control_c, 6, 7, 123
8, 28815, Control_c, 6, 7, 122
8, 28825, Control_c, 6, 7, 121
8, 28835, Control_c, 6, 7, 120
8, 28841, Control_c, 6, 7, 119
8, 30720, Note_on_c, 6, 84, 100
8, 30840, Note_on_c, 6, 84, 0
8, 30840, Note_on_c, 6, 81, 100
8, 30960, Note_on_c, 6, 81, 0
8, 30960, Note_on_c, 6, 81, 100
8, 31020, Note_on_c, 6, 81, 0
8, 31020, Note_on_c, 6, 84, 100
8, 31050, Note_on_c, 6, 84, 0
8, 31050, Note_on_c, 6, 81, 100
8, 31200, Note_on_c, 6, 81, 0
8, 31200, Note_on_c, 6, 83, 100
8, 31260, Note_on_c, 6, 83, 0
8, 31260, Note_on_c, 6, 83, 100
8, 31320, Note_on_c, 6, 83, 0
8, 31320, Note_on_c, 6, 83, 100
8, 31380, Note_on_c, 6, 83, 0
8, 31380, Note_on_c, 6, 84, 100
8, 31440, Note_on_c, 6, 84, 0
8, 31440, Note_on_c, 6, 86, 100
8, 31500, Note_on_c, 6, 86, 0
8, 31500, Note_on_c, 6, 84, 100
8, 31560, Note_on_c, 6, 84, 0
8, 31560, Note_on_c, 6, 81, 100
8, 31680, Note_on_c, 6, 81, 0
8, 31680, Note_on_c, 6, 84, 100
8, 31800, Note_on_c, 6, 84, 0
8, 31800, Note_on_c, 6, 81, 100
8, 31920, Note_on_c, 6, 81, 0
8, 31920, Note_on_c, 6, 81, 100
8, 31980, Note_on_c, 6, 81, 0
8, 31980, Note_on_c, 6, 84, 100
8, 32010, Note_on_c, 6, 84, 0
8, 32010, Note_on_c, 6, 81, 100
8, 32160, Note_on_c, 6, 81, 0
8, 32160, Note_on_c, 6, 83, 100
8, 32220, Note_on_c, 6, 83, 0
8, 32220, Note_on_c, 6, 83, 100
8, 32280, Note_on_c, 6, 83, 0
8, 32280, Note_on_c, 6, 83, 100
8, 32340, Note_on_c, 6, 83, 0
8, 32340, Note_on_c, 6, 84, 100
8, 32400, Note_on_c, 6, 84, 0
8, 32400, Note_on_c, 6, 86, 100
8, 32460, Note_on_c, 6, 86, 0
8, 32460, Note_on_c, 6, 84, 100
8, 32520, Note_on_c, 6, 84, 0
8, 32520, Note_on_c, 6, 81, 100
8, 32640, Note_on_c, 6, 81, 0
8, 32640, Note_on_c, 6, 84, 100
8, 32760, Note_on_c, 6, 84, 0
8, 32760, Note_on_c, 6, 81, 100
8, 32880, Note_on_c, 6, 81, 0
8, 32880, Note_on_c, 6, 81, 100
8, 32940, Note_on_c, 6, 81, 0
8, 32940, Note_on_c, 6, 84, 100
8, 32970, Note_on_c, 6, 84, 0
8, 32970, Note_on_c, 6, 81, 100
8, 33120, Note_on_c, 6, 81, 0
8, 33120, Note_on_c, 6, 83, 100
8, 33180, Note_on_c, 6, 83, 0
8, 33180, Note_on_c, 6, 83, 100
8, 33240, Note_on_c, 6, 83, 0
8, 33240, Note_on_c, 6, 83, 100
8, 33300, Note_on_c, 6, 83, 0
8, 33300, Note_on_c, 6, 84, 100
8, 33360, Note_on_c, 6, 84, 0
8, 33360, Note_on_c, 6, 86, 100
8, 33420, Note_on_c, 6, 86, 0
8, 33420, Note_on_c, 6, 84, 100
8, 33480, Note_on_c, 6, 84, 0
8, 33480, Note_on_c, 6, 81, 100
8, 33600, Note_on_c, 6, 81, 0
8, 33720, Note_on_c, 6, 69, 100
8, 33780, Note_on_c, 6, 69, 0
8, 33780, Note_on_c, 6, 69, 100
8, 33840, Note_on_c, 6, 69, 0
8, 33840, Note_on_c, 6, 71, 100
8, 33900, Note_on_c, 6, 71, 0
8, 33900, Note_on_c, 6, 69, 100
8, 33960, Note_on_c, 6, 69, 0
8, 33960, Note_on_c, 6, 65, 100
8, 34020, Note_on_c, 6, 65, 0
8, 34020, Note_on_c, 6, 69, 100
8, 34320, Note_on_c, 6, 69, 0
8, 47825, Control_c, 6, 7, 100
8, 47830, Control_c, 6, 7, 101
8, 47840, Control_c, 6, 7, 100
8, 47850, Control_c, 6, 7, 98
8, 47850, Control_c, 6, 7, 99
8, 49920, Note_on_c, 6, 84, 100
8, 49920, Note_on_c, 6, 81, 100
8, 49920, Note_on_c, 6, 76, 100
8, 50040, Note_on_c, 6, 76, 0
8, 50040, Note_on_c, 6, 81, 0
8, 50040, Note_on_c, 6, 84, 0
8, 50040, Note_on_c, 6, 81, 100
8, 50040, Note_on_c, 6, 76, 100
8, 50040, Note_on_c, 6, 72, 100
8, 50160, Note_on_c, 6, 72, 0
8, 50160, Note_on_c, 6, 76, 0
8, 50160, Note_on_c, 6, 81, 0
8, 50400, Note_on_c, 6, 83, 100
8, 50400, Note_on_c, 6, 79, 100
8, 50400, Note_on_c, 6, 74, 100
8, 50460, Note_on_c, 6, 74, 0
8, 50460, Note_on_c, 6, 79, 0
8, 50460, Note_on_c, 6, 83, 0
8, 50460, Note_on_c, 6, 83, 100
8, 50460, Note_on_c, 6, 79, 100
8, 50460, Note_on_c, 6, 74, 100
8, 50520, Note_on_c, 6, 74, 0
8, 50520, Note_on_c, 6, 79, 0
8, 50520, Note_on_c, 6, 83, 0
8, 50520, Note_on_c, 6, 83, 100
8, 50520, Note_on_c, 6, 79, 100
8, 50520, Note_on_c, 6, 74, 100
8, 50580, Note_on_c, 6, 74, 0
8, 50580, Note_on_c, 6, 79, 0
8, 50580, Note_on_c, 6, 83, 0
8, 50580, Note_on_c, 6, 84, 100
8, 50580, Note_on_c, 6, 79, 100
8, 50580, Note_on_c, 6, 76, 100
8, 50640, Note_on_c, 6, 76, 0
8, 50640, Note_on_c, 6, 79, 0
8, 50640, Note_on_c, 6, 84, 0
8, 50640, Note_on_c, 6, 86, 100
8, 50640, Note_on_c, 6, 81, 100
8, 50640, Note_on_c, 6, 78, 100
8, 50700, Note_on_c, 6, 78, 0
8, 50700, Note_on_c, 6, 81, 0
8, 50700, Note_on_c, 6, 86, 0
8, 50700, Note_on_c, 6, 84, 100
8, 50700, Note_on_c, 6, 79, 100
8, 50700, Note_on_c, 6, 76, 100
8, 50760, Note_on_c, 6, 76, 0
8, 50760, Note_on_c, 6, 79, 0
8, 50760, Note_on_c, 6, 84, 0
8, 50760, Note_on_c, 6, 81, 100
8, 50760, Note_on_c, 6, 78, 100
8, 50760, Note_on_c, 6, 74, 100
8, 50880, Note_on_c, 6, 74, 0
8, 50880, Note_on_c, 6, 78, 0
8, 50880, Note_on_c, 6, 81, 0
8, 50880, Note_on_c, 6, 84, 100
8, 50880, Note_on_c, 6, 81, 100
8, 50880, Note_on_c, 6, 76, 100
8, 51000, Note_on_c, 6, 76, 0
8, 51000, Note_on_c, 6, 81, 0
8, 51000, Note_on_c, 6, 84, 0
8, 51000, Note_on_c, 6, 81, 100
8, 51000, Note_on_c, 6, 76, 100
8, 51000, Note_on_c, 6, 72, 100
8, 51120, Note_on_c, 6, 72, 0
8, 51120, Note_on_c, 6, 76, 0
8, 51120, Note_on_c, 6, 81, 0
8, 51360, Note_on_c, 6, 83, 100
8, 51360, Note_on_c, 6, 79, 100
8, 51360, Note_on_c, 6, 74, 100
8, 51420, Note_on_c, 6, 74, 0
8, 51420, Note_on_c, 6, 79, 0
8, 51420, Note_on_c, 6, 83, 0
8, 51420, Note_on_c, 6, 83, 100
8, 51420, Note_on_c, 6, 79, 100
8, 51420, Note_on_c, 6, 74, 100
8, 51480, Note_on_c, 6, 74, 0
8, 51480, Note_on_c, 6, 79, 0
8, 51480, Note_on_c, 6, 83, 0
8, 51480, Note_on_c, 6, 83, 100
8, 51480, Note_on_c, 6, 79, 100
8, 51480, Note_on_c, 6, 74, 100
8, 51540, Note_on_c, 6, 74, 0
8, 51540, Note_on_c, 6, 79, 0
8, 51540, Note_on_c, 6, 83, 0
8, 51540, Note_on_c, 6, 84, 100
8, 51540, Note_on_c, 6, 79, 100
8, 51540, Note_on_c, 6, 76, 100
8, 51600, Note_on_c, 6, 76, 0
8, 51600, Note_on_c, 6, 79, 0
8, 51600, Note_on_c, 6, 84, 0
8, 51600, Note_on_c, 6, 86, 100
8, 51600, Note_on_c, 6, 81, 100
8, 51600, Note_on_c, 6, 78, 100
8, 51660, Note_on_c, 6, 78, 0
8, 51660, Note_on_c, 6, 81, 0
8, 51660, Note_on_c, 6, 86, 0
8, 51660, Note_on_c, 6, 84, 100
8, 51660, Note_on_c, 6, 79, 100
8, 51660, Note_on_c, 6, 76, 100
8, 51720, Note_on_c, 6, 76, 0
8, 51720, Note_on_c, 6, 79, 0
8, 51720, Note_on_c, 6, 84, 0
8, 51720, Note_on_c, 6, 81, 100
8, 51720, Note_on_c, 6, 78, 100
8, 51720, Note_on_c, 6, 74, 100
8, 51840, Note_on_c, 6, 74, 0
8, 51840, Note_on_c, 6, 78, 0
8, 51840, Note_on_c, 6, 81, 0
8, 51840, Note_on_c, 6, 84, 100
8, 51840, Note_on_c, 6, 81, 100
8, 51840, Note_on_c, 6, 76, 100
8, 51960, Note_on_c, 6, 76, 0
8, 51960, Note_on_c, 6, 81, 0
8, 51960, Note_on_c, 6, 84, 0
8, 51960, Note_on_c, 6, 81, 100
8, 51960, Note_on_c, 6, 76, 100
8, 51960, Note_on_c, 6, 72, 100
8, 52080, Note_on_c, 6, 72, 0
8, 52080, Note_on_c, 6, 76, 0
8, 52080, Note_on_c, 6, 81, 0
8, 52320, Note_on_c, 6, 83, 100
8, 52320, Note_on_c, 6, 79, 100
8, 52320, Note_on_c, 6, 74, 100
8, 52380, Note_on_c, 6, 74, 0
8, 52380, Note_on_c, 6, 79, 0
8, 52380, Note_on_c, 6, 83, 0
8, 52380, Note_on_c, 6, 83, 100
8, 52380, Note_on_c, 6, 79, 100
8, 52380, Note_on_c, 6, 74, 100
8, 52440, Note_on_c, 6, 74, 0
8, 52440, Note_on_c, 6, 79, 0
8, 52440, Note_on_c, 6, 83, 0
8, 52440, Note_on_c, 6, 83, 100
8, 52440, Note_on_c, 6, 79, 100
8, 52440, Note_on_c, 6, 74, 100
8, 52500, Note_on_c, 6, 74, 0
8, 52500, Note_on_c, 6, 79, 0
8, 52500, Note_on_c, 6, 83, 0
8, 52500, Note_on_c, 6, 84, 100
8, 52500, Note_on_c, 6, 79, 100
8, 52500, Note_on_c, 6, 76, 100
8, 52560, Note_on_c, 6, 76, 0
8, 52560, Note_on_c, 6, 79, 0
8, 52560, Note_on_c, 6, 84, 0
8, 52560, Note_on_c, 6, 86, 100
8, 52560, Note_on_c, 6, 81, 100
8, 52560, Note_on_c, 6, 78, 100
8, 52620, Note_on_c, 6, 78, 0
8, 52620, Note_on_c, 6, 81, 0
8, 52620, Note_on_c, 6, 86, 0
8, 52620, Note_on_c, 6, 84, 100
8, 52620, Note_on_c, 6, 79, 100
8, 52620, Note_on_c, 6, 76, 100
8, 52680, Note_on_c, 6, 76, 0
8, 52680, Note_on_c, 6, 79, 0
8, 52680, Note_on_c, 6, 84, 0
8, 52680, Note_on_c, 6, 81, 100
8, 52680, Note_on_c, 6, 78, 100
8, 52680, Note_on_c, 6, 74, 100
8, 52800, Note_on_c, 6, 74, 0
8, 52800, Note_on_c, 6, 78, 0
8, 52800, Note_on_c, 6, 81, 0
8, 53760, Note_on_c, 6, 84, 100
8, 53760, Note_on_c, 6, 81, 100
8, 53760, Note_on_c, 6, 76, 100
8, 53880, Note_on_c, 6, 76, 0
8, 53880, Note_on_c, 6, 81, 0
8, 53880, Note_on_c, 6, 84, 0
8, 53880, Note_on_c, 6, 81, 100
8, 53880, Note_on_c, 6, 76, 100
8, 53880, Note_on_c, 6, 72, 100
8, 54000, Note_on_c, 6, 72, 0
8, 54000, Note_on_c, 6, 76, 0
8, 54000, Note_on_c, 6, 81, 0
8, 54240, Note_on_c, 6, 83, 100
8, 54240, Note_on_c, 6, 79, 100
8, 54240, Note_on_c, 6, 74, 100
8, 54300, Note_on_c, 6, 74, 0
8, 54300, Note_on_c, 6, 79, 0
8, 54300, Note_on_c, 6, 83, 0
8, 54300, Note_on_c, 6, 83, 100
8, 54300, Note_on_c, 6, 79, 100
8, 54300, Note_on_c, 6, 74, 100
8, 54360, Note_on_c, 6, 74, 0
8, 54360, Note_on_c, 6, 79, 0
8, 54360, Note_on_c, 6, 83, 0
8, 54360, Note_on_c, 6, 83, 100
8, 54360, Note_on_c, 6, 79, 100
8, 54360, Note_on_c, 6, 74, 100
8, 54420, Note_on_c, 6, 74, 0
8, 54420, Note_on_c, 6, 79, 0
8, 54420, Note_on_c, 6, 83, 0
8, 54420, Note_on_c, 6, 84, 100
8, 54420, Note_on_c, 6, 79, 100
8, 54420, Note_on_c, 6, 76, 100
8, 54480, Note_on_c, 6, 76, 0
8, 54480, Note_on_c, 6, 79, 0
8, 54480, Note_on_c, 6, 84, 0
8, 54480, Note_on_c, 6, 86, 100
8, 54480, Note_on_c, 6, 81, 100
8, 54480, Note_on_c, 6, 78, 100
8, 54540, Note_on_c, 6, 78, 0
8, 54540, Note_on_c, 6, 81, 0
8, 54540, Note_on_c, 6, 86, 0
8, 54540, Note_on_c, 6, 84, 100
8, 54540, Note_on_c, 6, 79, 100
8, 54540, Note_on_c, 6, 76, 100
8, 54600, Note_on_c, 6, 76, 0
8, 54600, Note_on_c, 6, 79, 0
8, 54600, Note_on_c, 6, 84, 0
8, 54600, Note_on_c, 6, 81, 100
8, 54600, Note_on_c, 6, 78, 100
8, 54600, Note_on_c, 6, 74, 100
8, 54665, Control_c, 6, 7, 99
8, 54670, Control_c, 6, 7, 100
8, 54675, Control_c, 6, 7, 101
8, 54680, Control_c, 6, 7, 102
8, 54685, Control_c, 6, 7, 103
8, 54690, Control_c, 6, 7, 104
8, 54700, Control_c, 6, 7, 105
8, 54710, Control_c, 6, 7, 106
8, 54720, Note_on_c, 6, 74, 0
8, 54720, Note_on_c, 6, 78, 0
8, 54720, Note_on_c, 6, 81, 0
8, 54720, Note_on_c, 6, 84, 100
8, 54720, Note_on_c, 6, 81, 100
8, 54720, Note_on_c, 6, 76, 100
8, 54720, Control_c, 6, 7, 107
8, 54725, Control_c, 6, 7, 108
8, 54840, Note_on_c, 6, 76, 0
8, 54840, Note_on_c, 6, 81, 0
8, 54840, Note_on_c, 6, 84, 0
8, 54840, Note_on_c, 6, 81, 100
8, 54840, Note_on_c, 6, 76, 100
8, 54840, Note_on_c, 6, 72, 100
8, 54960, Note_on_c, 6, 72, 0
8, 54960, Note_on_c, 6, 76, 0
8, 54960, Note_on_c, 6, 81, 0
8, 55185, Control_c, 6, 7, 109
8, 55200, Note_on_c, 6, 83, 100
8, 55200, Note_on_c, 6, 79, 100
8, 55200, Note_on_c, 6, 74, 100
8, 55205, Control_c, 6, 7, 110
8, 55210, Control_c, 6, 7, 111
8, 55260, Note_on_c, 6, 74, 0
8, 55260, Note_on_c, 6, 79, 0
8, 55260, Note_on_c, 6, 83, 0
8, 55260, Note_on_c, 6, 83, 100
8, 55260, Note_on_c, 6, 79, 100
8, 55260, Note_on_c, 6, 74, 100
8, 55320, Note_on_c, 6, 74, 0
8, 55320, Note_on_c, 6, 79, 0
8, 55320, Note_on_c, 6, 83, 0
8, 55320, Note_on_c, 6, 83, 100
8, 55320, Note_on_c, 6, 79, 100
8, 55320, Note_on_c, 6, 74, 100
8, 55380, Note_on_c, 6, 74, 0
8, 55380, Note_on_c, 6, 79, 0
8, 55380, Note_on_c, 6, 83, 0
8, 55380, Note_on_c, 6, 84, 100
8, 55380, Note_on_c, 6, 79, 100
8, 55380, Note_on_c, 6, 76, 100
8, 55440, Note_on_c, 6, 76, 0
8, 55440, Note_on_c, 6, 79, 0
8, 55440, Note_on_c, 6, 84, 0
8, 55440, Note_on_c, 6, 86, 100
8, 55440, Note_on_c, 6, 81, 100
8, 55440, Note_on_c, 6, 78, 100
8, 55500, Note_on_c, 6, 78, 0
8, 55500, Note_on_c, 6, 81, 0
8, 55500, Note_on_c, 6, 86, 0
8, 55500, Note_on_c, 6, 84, 100
8, 55500, Note_on_c, 6, 79, 100
8, 55500, Note_on_c, 6, 76, 100
8, 55560, Note_on_c, 6, 76, 0
8, 55560, Note_on_c, 6, 79, 0
8, 55560, Note_on_c, 6, 84, 0
8, 55560, Note_on_c, 6, 81, 100
8, 55560, Note_on_c, 6, 78, 100
8, 55560, Note_on_c, 6, 74, 100
8, 55680, Note_on_c, 6, 74, 0
8, 55680, Note_on_c, 6, 78, 0
8, 55680, Note_on_c, 6, 81, 0
8, 55680, Note_on_c, 6, 84, 100
8, 55680, Note_on_c, 6, 81, 100
8, 55680, Note_on_c, 6, 76, 100
8, 55800, Note_on_c, 6, 76, 0
8, 55800, Note_on_c, 6, 81, 0
8, 55800, Note_on_c, 6, 84, 0
8, 55800, Note_on_c, 6, 81, 100
8, 55800, Note_on_c, 6, 76, 100
8, 55800, Note_on_c, 6, 72, 100
8, 55920, Note_on_c, 6, 72, 0
8, 55920, Note_on_c, 6, 76, 0
8, 55920, Note_on_c, 6, 81, 0
8, 56160, Note_on_c, 6, 83, 100
8, 56160, Note_on_c, 6, 79, 100
8, 56160, Note_on_c, 6, 74, 100
8, 56220, Note_on_c, 6, 74, 0
8, 56220, Note_on_c, 6, 79, 0
8, 56220, Note_on_c, 6, 83, 0
8, 56220, Note_on_c, 6, 83, 100
8, 56220, Note_on_c, 6, 79, 100
8, 56220, Note_on_c, 6, 74, 100
8, 56280, Note_on_c, 6, 74, 0
8, 56280, Note_on_c, 6, 79, 0
8, 56280, Note_on_c, 6, 83, 0
8, 56280, Note_on_c, 6, 83, 100
8, 56280, Note_on_c, 6, 79, 100
8, 56280, Note_on_c, 6, 74, 100
8, 56340, Note_on_c, 6, 74, 0
8, 56340, Note_on_c, 6, 79, 0
8, 56340, Note_on_c, 6, 83, 0
8, 56340, Note_on_c, 6, 84, 100
8, 56340, Note_on_c, 6, 79, 100
8, 56340, Note_on_c, 6, 76, 100
8, 56400, Note_on_c, 6, 76, 0
8, 56400, Note_on_c, 6, 79, 0
8, 56400, Note_on_c, 6, 84, 0
8, 56400, Note_on_c, 6, 86, 100
8, 56400, Note_on_c, 6, 81, 100
8, 56400, Note_on_c, 6, 78, 100
8, 56460, Note_on_c, 6, 78, 0
8, 56460, Note_on_c, 6, 81, 0
8, 56460, Note_on_c, 6, 86, 0
8, 56460, Note_on_c, 6, 84, 100
8, 56460, Note_on_c, 6, 79, 100
8, 56460, Note_on_c, 6, 76, 100
8, 56520, Note_on_c, 6, 76, 0
8, 56520, Note_on_c, 6, 79, 0
8, 56520, Note_on_c, 6, 84, 0
8, 56520, Note_on_c, 6, 81, 100
8, 56520, Note_on_c, 6, 78, 100
8, 56520, Note_on_c, 6, 74, 100
8, 56640, Note_on_c, 6, 74, 0
8, 56640, Note_on_c, 6, 78, 0
8, 56640, Note_on_c, 6, 81, 0
8, 57600, Note_on_c, 6, 84, 100
8, 57600, Note_on_c, 6, 81, 100
8, 57600, Note_on_c, 6, 76, 100
8, 57720, Note_on_c, 6, 76, 0
8, 57720, Note_on_c, 6, 81, 0
8, 57720, Note_on_c, 6, 84, 0
8, 57720, Note_on_c, 6, 81, 100
8, 57720, Note_on_c, 6, 76, 100
8, 57720, Note_on_c, 6, 72, 100
8, 57840, Note_on_c, 6, 72, 0
8, 57840, Note_on_c, 6, 76, 0
8, 57840, Note_on_c, 6, 81, 0
8, 58080, Note_on_c, 6, 83, 100
8, 58080, Note_on_c, 6, 79, 100
8, 58080, Note_on_c, 6, 74, 100
8, 58140, Note_on_c, 6, 74, 0
8, 58140, Note_on_c, 6, 79, 0
8, 58140, Note_on_c, 6, 83, 0
8, 58140, Note_on_c, 6, 83, 100
8, 58140, Note_on_c, 6, 79, 100
8, 58140, Note_on_c, 6, 74, 100
8, 58200, Note_on_c, 6, 74, 0
8, 58200, Note_on_c, 6, 79, 0
8, 58200, Note_on_c, 6, 83, 0
8, 58200, Note_on_c, 6, 83, 100
8, 58200, Note_on_c, 6, 79, 100
8, 58200, Note_on_c, 6, 74, 100
8, 58260, Note_on_c, 6, 74, 0
8, 58260, Note_on_c, 6, 79, 0
8, 58260, Note_on_c, 6, 83, 0
8, 58260, Note_on_c, 6, 84, 100
8, 58260, Note_on_c, 6, 79, 100
8, 58260, Note_on_c, 6, 76, 100
8, 58320, Note_on_c, 6, 76, 0
8, 58320, Note_on_c, 6, 79, 0
8, 58320, Note_on_c, 6, 84, 0
8, 58320, Note_on_c, 6, 86, 100
8, 58320, Note_on_c, 6, 81, 100
8, 58320, Note_on_c, 6, 78, 100
8, 58380, Note_on_c, 6, 78, 0
8, 58380, Note_on_c, 6, 81, 0
8, 58380, Note_on_c, 6, 86, 0
8, 58380, Note_on_c, 6, 84, 100
8, 58380, Note_on_c, 6, 79, 100
8, 58380, Note_on_c, 6, 76, 100
8, 58440, Note_on_c, 6, 76, 0
8, 58440, Note_on_c, 6, 79, 0
8, 58440, Note_on_c, 6, 84, 0
8, 58440, Note_on_c, 6, 81, 100
8, 58440, Note_on_c, 6, 78, 100
8, 58440, Note_on_c, 6, 74, 100
8, 58505, Control_c, 6, 7, 99
8, 58510, Control_c, 6, 7, 100
8, 58515, Control_c, 6, 7, 101
8, 58520, Control_c, 6, 7, 102
8, 58525, Control_c, 6, 7, 103
8, 58530, Control_c, 6, 7, 104
8, 58540, Control_c, 6, 7, 105
8, 58550, Control_c, 6, 7, 106
8, 58560, Note_on_c, 6, 74, 0
8, 58560, Note_on_c, 6, 78, 0
8, 58560, Note_on_c, 6, 81, 0
8, 58560, Note_on_c, 6, 84, 100
8, 58560, Note_on_c, 6, 81, 100
8, 58560, Note_on_c, 6, 76, 100
8, 58680, Note_on_c, 6, 76, 0
8, 58680, Note_on_c, 6, 81, 0
8, 58680, Note_on_c, 6, 84, 0
8, 58680, Note_on_c, 6, 81, 100
8, 58680, Note_on_c, 6, 76, 100
8, 58680, Note_on_c, 6, 72, 100
8, 58800, Note_on_c, 6, 72, 0
8, 58800, Note_on_c, 6, 76, 0
8, 58800, Note_on_c, 6, 81, 0
8, 59040, Note_on_c, 6, 83, 100
8, 59040, Note_on_c, 6, 79, 100
8, 59040, Note_on_c, 6, 74, 100
8, 59100, Note_on_c, 6, 74, 0
8, 59100, Note_on_c, 6, 79, 0
8, 59100, Note_on_c, 6, 83, 0
8, 59100, Note_on_c, 6, 83, 100
8, 59100, Note_on_c, 6, 79, 100
8, 59100, Note_on_c, 6, 74, 100
8, 59160, Note_on_c, 6, 74, 0
8, 59160, Note_on_c, 6, 79, 0
8, 59160, Note_on_c, 6, 83, 0
8, 59160, Note_on_c, 6, 83, 100
8, 59160, Note_on_c, 6, 79, 100
8, 59160, Note_on_c, 6, 74, 100
8, 59220, Note_on_c, 6, 74, 0
8, 59220, Note_on_c, 6, 79, 0
8, 59220, Note_on_c, 6, 83, 0
8, 59220, Note_on_c, 6, 84, 100
8, 59220, Note_on_c, 6, 79, 100
8, 59220, Note_on_c, 6, 76, 100
8, 59280, Note_on_c, 6, 76, 0
8, 59280, Note_on_c, 6, 79, 0
8, 59280, Note_on_c, 6, 84, 0
8, 59280, Note_on_c, 6, 86, 100
8, 59280, Note_on_c, 6, 81, 100
8, 59280, Note_on_c, 6, 78, 100
8, 59340, Note_on_c, 6, 78, 0
8, 59340, Note_on_c, 6, 81, 0
8, 59340, Note_on_c, 6, 86, 0
8, 59340, Note_on_c, 6, 84, 100
8, 59340, Note_on_c, 6, 79, 100
8, 59340, Note_on_c, 6, 76, 100
8, 59400, Note_on_c, 6, 76, 0
8, 59400, Note_on_c, 6, 79, 0
8, 59400, Note_on_c, 6, 84, 0
8, 59400, Note_on_c, 6, 81, 100
8, 59400, Note_on_c, 6, 78, 100
8, 59400, Note_on_c, 6, 74, 100
8, 59520, Note_on_c, 6, 74, 0
8, 59520, Note_on_c, 6, 78, 0
8, 59520, Note_on_c, 6, 81, 0
8, 59520, Note_on_c, 6, 84, 100
8, 59520, Note_on_c, 6, 81, 100
8, 59520, Note_on_c, 6, 76, 100
8, 59640, Note_on_c, 6, 76, 0
8, 59640, Note_on_c, 6, 81, 0
8, 59640, Note_on_c, 6, 84, 0
8, 59640, Note_on_c, 6, 81, 100
8, 59640, Note_on_c, 6, 76, 100
8, 59640, Note_on_c, 6, 72, 100
8, 59760, Note_on_c, 6, 72, 0
8, 59760, Note_on_c, 6, 76, 0
8, 59760, Note_on_c, 6, 81, 0
8, 60000, Note_on_c, 6, 83, 100
8, 60000, Note_on_c, 6, 79, 100
8, 60000, Note_on_c, 6, 74, 100
8, 60060, Note_on_c, 6, 74, 0
8, 60060, Note_on_c, 6, 79, 0
8, 60060, Note_on_c, 6, 83, 0
8, 60060, Note_on_c, 6, 83, 100
8, 60060, Note_on_c, 6, 79, 100
8, 60060, Note_on_c, 6, 74, 100
8, 60120, Note_on_c, 6, 74, 0
8, 60120, Note_on_c, 6, 79, 0
8, 60120, Note_on_c, 6, 83, 0
8, 60120, Note_on_c, 6, 83, 100
8, 60120, Note_on_c, 6, 79, 100
8, 60120, Note_on_c, 6, 74, 100
8, 60180, Note_on_c, 6, 74, 0
8, 60180, Note_on_c, 6, 79, 0
8, 60180, Note_on_c, 6, 83, 0
8, 60180, Note_on_c, 6, 84, 100
8, 60180, Note_on_c, 6, 79, 100
8, 60180, Note_on_c, 6, 76, 100
8, 60240, Note_on_c, 6, 76, 0
8, 60240, Note_on_c, 6, 79, 0
8, 60240, Note_on_c, 6, 84, 0
8, 60240, Note_on_c, 6, 86, 100
8, 60240, Note_on_c, 6, 81, 100
8, 60240, Note_on_c, 6, 78, 100
8, 60300, Note_on_c, 6, 78, 0
8, 60300, Note_on_c, 6, 81, 0
8, 60300, Note_on_c, 6, 86, 0
8, 60300, Note_on_c, 6, 84, 100
8, 60300, Note_on_c, 6, 79, 100
8, 60300, Note_on_c, 6, 76, 100
8, 60360, Note_on_c, 6, 76, 0
8, 60360, Note_on_c, 6, 79, 0
8, 60360, Note_on_c, 6, 84, 0
8, 60360, Note_on_c, 6, 81, 100
8, 60360, Note_on_c, 6, 78, 100
8, 60360, Note_on_c, 6, 74, 100
8, 60480, Note_on_c, 6, 74, 0
8, 60480, Note_on_c, 6, 78, 0
8, 60480, Note_on_c, 6, 81, 0
8, 61440, Note_on_c, 6, 84, 100
8, 61440, Note_on_c, 6, 81, 100
8, 61440, Note_on_c, 6, 76, 100
8, 61560, Note_on_c, 6, 76, 0
8, 61560, Note_on_c, 6, 81, 0
8, 61560, Note_on_c, 6, 84, 0
8, 61560, Note_on_c, 6, 81, 100
8, 61560, Note_on_c, 6, 76, 100
8, 61560, Note_on_c, 6, 72, 100
8, 61680, Note_on_c, 6, 72, 0
8, 61680, Note_on_c, 6, 76, 0
8, 61680, Note_on_c, 6, 81, 0
8, 61920, Note_on_c, 6, 83, 100
8, 61920, Note_on_c, 6, 79, 100
8, 61920, Note_on_c, 6, 74, 100
8, 61980, Note_on_c, 6, 74, 0
8, 61980, Note_on_c, 6, 79, 0
8, 61980, Note_on_c, 6, 83, 0
8, 61980, Note_on_c, 6, 83, 100
8, 61980, Note_on_c, 6, 79, 100
8, 61980, Note_on_c, 6, 74, 100
8, 62040, Note_on_c, 6, 74, 0
8, 62040, Note_on_c, 6, 79, 0
8, 62040, Note_on_c, 6, 83, 0
8, 62040, Note_on_c, 6, 83, 100
8, 62040, Note_on_c, 6, 79, 100
8, 62040, Note_on_c, 6, 74, 100
8, 62100, Note_on_c, 6, 74, 0
8, 62100, Note_on_c, 6, 79, 0
8, 62100, Note_on_c, 6, 83, 0
8, 62100, Note_on_c, 6, 84, 100
8, 62100, Note_on_c, 6, 79, 100
8, 62100, Note_on_c, 6, 76, 100
8, 62160, Note_on_c, 6, 76, 0
8, 62160, Note_on_c, 6, 79, 0
8, 62160, Note_on_c, 6, 84, 0
8, 62160, Note_on_c, 6, 86, 100
8, 62160, Note_on_c, 6, 81, 100
8, 62160, Note_on_c, 6, 78, 100
8, 62220, Note_on_c, 6, 78, 0
8, 62220, Note_on_c, 6, 81, 0
8, 62220, Note_on_c, 6, 86, 0
8, 62220, Note_on_c, 6, 84, 100
8, 62220, Note_on_c, 6, 79, 100
8, 62220, Note_on_c, 6, 76, 100
8, 62280, Note_on_c, 6, 76, 0
8, 62280, Note_on_c, 6, 79, 0
8, 62280, Note_on_c, 6, 84, 0
8, 62280, Note_on_c, 6, 81, 100
8, 62280, Note_on_c, 6, 78, 100
8, 62280, Note_on_c, 6, 74, 100
8, 62345, Control_c, 6, 7, 99
8, 62345, Control_c, 6, 7, 99
8, 62350, Control_c, 6, 7, 100
8, 62350, Control_c, 6, 7, 100
8, 62355, Control_c, 6, 7, 101
8, 62355, Control_c, 6, 7, 101
8, 62360, Control_c, 6, 7, 102
8, 62360, Control_c, 6, 7, 102
8, 62365, Control_c, 6, 7, 103
8, 62365, Control_c, 6, 7, 103
8, 62370, Control_c, 6, 7, 104
8, 62370, Control_c, 6, 7, 104
8, 62380, Control_c, 6, 7, 105
8, 62380, Control_c, 6, 7, 105
8, 62390, Control_c, 6, 7, 106
8, 62390, Control_c, 6, 7, 106
8, 62400, Note_on_c, 6, 74, 0
8, 62400, Note_on_c, 6, 78, 0
8, 62400, Note_on_c, 6, 81, 0
8, 62400, Note_on_c, 6, 84, 100
8, 62400, Note_on_c, 6, 81, 100
8, 62400, Note_on_c, 6, 76, 100
8, 62520, Note_on_c, 6, 76, 0
8, 62520, Note_on_c, 6, 81, 0
8, 62520, Note_on_c, 6, 84, 0
8, 62520, Note_on_c, 6, 81, 100
8, 62520, Note_on_c, 6, 76, 100
8, 62520, Note_on_c, 6, 72, 100
8, 62640, Note_on_c, 6, 72, 0
8, 62640, Note_on_c, 6, 76, 0
8, 62640, Note_on_c, 6, 81, 0
8, 62880, Note_on_c, 6, 83, 100
8, 62880, Note_on_c, 6, 79, 100
8, 62880, Note_on_c, 6, 74, 100
8, 62940, Note_on_c, 6, 74, 0
8, 62940, Note_on_c, 6, 79, 0
8, 62940, Note_on_c, 6, 83, 0
8, 62940, Note_on_c, 6, 83, 100
8, 62940, Note_on_c, 6, 79, 100
8, 62940, Note_on_c, 6, 74, 100
8, 63000, Note_on_c, 6, 74, 0
8, 63000, Note_on_c, 6, 79, 0
8, 63000, Note_on_c, 6, 83, 0
8, 63000, Note_on_c, 6, 83, 100
8, 63000, Note_on_c, 6, 79, 100
8, 63000, Note_on_c, 6, 74, 100
8, 63060, Note_on_c, 6, 74, 0
8, 63060, Note_on_c, 6, 79, 0
8, 63060, Note_on_c, 6, 83, 0
8, 63060, Note_on_c, 6, 84, 100
8, 63060, Note_on_c, 6, 79, 100
8, 63060, Note_on_c, 6, 76, 100
8, 63120, Note_on_c, 6, 76, 0
8, 63120, Note_on_c, 6, 79, 0
8, 63120, Note_on_c, 6, 84, 0
8, 63120, Note_on_c, 6, 86, 100
8, 63120, Note_on_c, 6, 81, 100
8, 63120, Note_on_c, 6, 78, 100
8, 63180, Note_on_c, 6, 78, 0
8, 63180, Note_on_c, 6, 81, 0
8, 63180, Note_on_c, 6, 86, 0
8, 63180, Note_on_c, 6, 84, 100
8, 63180, Note_on_c, 6, 79, 100
8, 63180, Note_on_c, 6, 76, 100
8, 63240, Note_on_c, 6, 76, 0
8, 63240, Note_on_c, 6, 79, 0
8, 63240, Note_on_c, 6, 84, 0
8, 63240, Note_on_c, 6, 81, 100
8, 63240, Note_on_c, 6, 78, 100
8, 63240, Note_on_c, 6, 74, 100
8, 63360, Note_on_c, 6, 74, 0
8, 63360, Note_on_c, 6, 78, 0
8, 63360, Note_on_c, 6, 81, 0
8, 63360, Note_on_c, 6, 84, 100
8, 63360, Note_on_c, 6, 81, 100
8, 63360, Note_on_c, 6, 76, 100
8, 63480, Note_on_c, 6, 76, 0
8, 63480, Note_on_c, 6, 81, 0
8, 63480, Note_on_c, 6, 84, 0
8, 63480, Note_on_c, 6, 81, 100
8, 63480, Note_on_c, 6, 76, 100
8, 63480, Note_on_c, 6, 72, 100
8, 63600, Note_on_c, 6, 72, 0
8, 63600, Note_on_c, 6, 76, 0
8, 63600, Note_on_c, 6, 81, 0
8, 63840, Note_on_c, 6, 83, 100
8, 63840, Note_on_c, 6, 79, 100
8, 63840, Note_on_c, 6, 74, 100
8, 63900, Note_on_c, 6, 74, 0
8, 63900, Note_on_c, 6, 79, 0
8, 63900, Note_on_c, 6, 83, 0
8, 63900, Note_on_c, 6, 83, 100
8, 63900, Note_on_c, 6, 79, 100
8, 63900, Note_on_c, 6, 74, 100
8, 63960, Note_on_c, 6, 74, 0
8, 63960, Note_on_c, 6, 79, 0
8, 63960, Note_on_c, 6, 83, 0
8, 63960, Note_on_c, 6, 83, 100
8, 63960, Note_on_c, 6, 79, 100
8, 63960, Note_on_c, 6, 74, 100
8, 64020, Note_on_c, 6, 74, 0
8, 64020, Note_on_c, 6, 79, 0
8, 64020, Note_on_c, 6, 83, 0
8, 64020, Note_on_c, 6, 84, 100
8, 64020, Note_on_c, 6, 79, 100
8, 64020, Note_on_c, 6, 76, 100
8, 64080, Note_on_c, 6, 76, 0
8, 64080, Note_on_c, 6, 79, 0
8, 64080, Note_on_c, 6, 84, 0
8, 64080, Note_on_c, 6, 86, 100
8, 64080, Note_on_c, 6, 81, 100
8, 64080, Note_on_c, 6, 78, 100
8, 64140, Note_on_c, 6, 78, 0
8, 64140, Note_on_c, 6, 81, 0
8, 64140, Note_on_c, 6, 86, 0
8, 64140, Note_on_c, 6, 84, 100
8, 64140, Note_on_c, 6, 79, 100
8, 64140, Note_on_c, 6, 76, 100
8, 64200, Note_on_c, 6, 76, 0
8, 64200, Note_on_c, 6, 79, 0
8, 64200, Note_on_c, 6, 84, 0
8, 64200, Note_on_c, 6, 81, 100
8, 64200, Note_on_c, 6, 78, 100
8, 64200, Note_on_c, 6, 74, 100
8, 64320, Note_on_c, 6, 74, 0
8, 64320, Note_on_c, 6, 78, 0
8, 64320, Note_on_c, 6, 81, 0
8, 64320, End_track
9, 0, Start_track
9, 0, MIDI_port, 0
9, 0, Title_t, "Violins (x2)"
9, 0, Control_c, 7, 0, 0
9, 0, Control_c, 7, 32, 0
9, 0, Program_c, 7, 40
9, 0, Control_c, 7, 7, 127
9, 0, Control_c, 7, 0, 0
9, 0, Control_c, 7, 32, 0
9, 0, Control_c, 7, 7, 90
9, 0, Control_c, 7, 0, 0
9, 0, Control_c, 7, 32, 0
9, 653, Control_c, 7, 7, 103
9, 653, Control_c, 7, 10, 64
9, 653, Control_c, 7, 7, 99
9, 653, Control_c, 7, 10, 64
9, 653, Control_c, 7, 7, 92
9, 653, Control_c, 7, 10, 64
9, 2830, Control_c, 7, 7, 104
9, 2835, Control_c, 7, 7, 105
9, 2845, Control_c, 7, 7, 106
9, 2875, Control_c, 7, 7, 105
9, 2885, Control_c, 7, 7, 104
9, 2935, Control_c, 7, 7, 103
9, 3005, Control_c, 7, 7, 102
9, 11705, Control_c, 7, 7, 106
9, 11730, Control_c, 7, 7, 107
9, 11955, Control_c, 7, 7, 104
9, 12933, Control_c, 7, 1, 0
9, 12936, Control_c, 7, 1, 3
9, 12940, Control_c, 7, 1, 5
9, 12943, Control_c, 7, 1, 7
9, 12946, Control_c, 7, 1, 9
9, 12950, Control_c, 7, 1, 11
9, 12953, Control_c, 7, 1, 13
9, 12956, Control_c, 7, 1, 15
9, 12960, Note_on_c, 7, 73, 100
9, 12960, Note_on_c, 7, 85, 100
9, 12960, Note_on_c, 7, 73, 100
9, 12966, Control_c, 7, 1, 43
9, 13200, Note_on_c, 7, 85, 0
9, 13200, Note_on_c, 7, 83, 100
9, 13200, Note_on_c, 7, 71, 100
9, 13365, Control_c, 7, 7, 110
9, 13380, Note_on_c, 7, 83, 100
9, 13380, Note_on_c, 7, 69, 100
9, 13385, Control_c, 7, 7, 111
9, 13400, Control_c, 7, 7, 112
9, 13410, Control_c, 7, 7, 113
9, 13420, Control_c, 7, 7, 114
9, 13440, Note_on_c, 7, 71, 0
9, 13440, Note_on_c, 7, 83, 0
9, 13440, Note_on_c, 7, 73, 0
9, 13525, Control_c, 7, 7, 114
9, 13595, Control_c, 7, 7, 110
9, 13680, Note_on_c, 7, 73, 0
9, 13740, Note_on_c, 7, 83, 0
9, 13740, Note_on_c, 7, 69, 0
9, 13920, Note_on_c, 7, 80, 100
9, 13920, Note_on_c, 7, 80, 100
9, 13920, Note_on_c, 7, 68, 100
9, 14340, Note_on_c, 7, 68, 0
9, 14340, Note_on_c, 7, 80, 0
9, 14340, Note_on_c, 7, 79, 100
9, 14340, Note_on_c, 7, 67, 100
9, 14400, Note_on_c, 7, 80, 0
9, 14400, Note_on_c, 7, 79, 100
9, 14700, Note_on_c, 7, 67, 0
9, 14700, Note_on_c, 7, 79, 0
9, 14880, Note_on_c, 7, 79, 0
9, 14880, Note_on_c, 7, 65, 100
9, 14880, Note_on_c, 7, 89, 100
9, 14880, Note_on_c, 7, 65, 100
9, 15120, Note_on_c, 7, 65, 0
9, 15120, Note_on_c, 7, 89, 0
9, 15120, Note_on_c, 7, 65, 0
9, 15120, Note_on_c, 7, 72, 100
9, 15120, Note_on_c, 7, 84, 100
9, 15120, Note_on_c, 7, 72, 100
9, 15360, Note_on_c, 7, 72, 0
9, 15360, Note_on_c, 7, 84, 0
9, 15360, Note_on_c, 7, 72, 0
9, 15360, Note_on_c, 7, 74, 100
9, 15360, Note_on_c, 7, 86, 100
9, 15360, Note_on_c, 7, 74, 100
9, 15600, Note_on_c, 7, 78, 100
9, 15660, Note_on_c, 7, 78, 0
9, 15660, Note_on_c, 7, 74, 100
9, 15720, Note_on_c, 7, 74, 0
9, 15720, Note_on_c, 7, 69, 100
9, 15780, Note_on_c, 7, 69, 0
9, 15780, Note_on_c, 7, 66, 100
9, 15840, Note_on_c, 7, 66, 0
9, 15840, Note_on_c, 7, 86, 0
9, 15840, Note_on_c, 7, 74, 0
9, 15840, Note_on_c, 7, 74, 0
9, 15840, Note_on_c, 7, 77, 100
9, 15840, Note_on_c, 7, 89, 100
9, 15840, Note_on_c, 7, 77, 100
9, 16140, Note_on_c, 7, 77, 100
9, 16200, Note_on_c, 7, 77, 0
9, 16200, Note_on_c, 7, 76, 100
9, 16260, Note_on_c, 7, 76, 0
9, 16260, Note_on_c, 7, 77, 100
9, 16320, Note_on_c, 7, 77, 0
9, 16320, Note_on_c, 7, 89, 0
9, 16320, Note_on_c, 7, 77, 0
9, 16320, Note_on_c, 7, 77, 0
9, 16320, Note_on_c, 7, 79, 100
9, 16320, Note_on_c, 7, 91, 100
9, 16320, Note_on_c, 7, 79, 100
9, 16800, Note_on_c, 7, 79, 0
9, 16800, Note_on_c, 7, 91, 0
9, 16800, Note_on_c, 7, 79, 0
9, 16800, Note_on_c, 7, 73, 100
9, 16800, Control_c, 7, 1, 14
9, 16800, Note_on_c, 7, 85, 100
9, 16800, Note_on_c, 7, 73, 100
9, 16803, Control_c, 7, 1, 19
9, 16806, Control_c, 7, 1, 43
9, 16806, Control_c, 7, 1, 24
9, 16810, Control_c, 7, 1, 29
9, 16813, Control_c, 7, 1, 33
9, 16816, Control_c, 7, 1, 38
9, 16820, Control_c, 7, 1, 43
9, 16823, Control_c, 7, 1, 47
9, 17040, Note_on_c, 7, 85, 0
9, 17040, Note_on_c, 7, 83, 100
9, 17040, Note_on_c, 7, 71, 100
9, 17220, Note_on_c, 7, 83, 100
9, 17220, Note_on_c, 7, 69, 100
9, 17280, Note_on_c, 7, 71, 0
9, 17280, Note_on_c, 7, 83, 0
9, 17280, Note_on_c, 7, 73, 0
9, 17520, Note_on_c, 7, 73, 0
9, 17580, Note_on_c, 7, 83, 0
9, 17580, Note_on_c, 7, 69, 0
9, 17760, Note_on_c, 7, 80, 100
9, 17760, Note_on_c, 7, 80, 100
9, 17760, Note_on_c, 7, 68, 100
9, 18180, Note_on_c, 7, 68, 0
9, 18180, Note_on_c, 7, 80, 0
9, 18180, Note_on_c, 7, 79, 100
9, 18180, Note_on_c, 7, 67, 100
9, 18240, Note_on_c, 7, 80, 0
9, 18240, Note_on_c, 7, 79, 100
9, 18540, Note_on_c, 7, 67, 0
9, 18540, Note_on_c, 7, 79, 0
9, 18720, Note_on_c, 7, 79, 0
9, 18720, Note_on_c, 7, 65, 100
9, 18720, Note_on_c, 7, 89, 100
9, 18720, Note_on_c, 7, 65, 100
9, 18960, Note_on_c, 7, 65, 0
9, 18960, Note_on_c, 7, 89, 0
9, 18960, Note_on_c, 7, 65, 0
9, 18960, Note_on_c, 7, 72, 100
9, 18960, Note_on_c, 7, 84, 100
9, 18960, Note_on_c, 7, 72, 100
9, 19200, Note_on_c, 7, 72, 0
9, 19200, Note_on_c, 7, 84, 0
9, 19200, Note_on_c, 7, 72, 0
9, 19200, Note_on_c, 7, 74, 100
9, 19200, Note_on_c, 7, 86, 100
9, 19200, Note_on_c, 7, 74, 100
9, 19440, Note_on_c, 7, 78, 100
9, 19500, Note_on_c, 7, 78, 0
9, 19500, Note_on_c, 7, 74, 100
9, 19560, Note_on_c, 7, 74, 0
9, 19560, Note_on_c, 7, 69, 100
9, 19620, Note_on_c, 7, 69, 0
9, 19620, Note_on_c, 7, 66, 100
9, 19680, Note_on_c, 7, 66, 0
9, 19680, Note_on_c, 7, 86, 0
9, 19680, Note_on_c, 7, 74, 0
9, 19680, Note_on_c, 7, 74, 0
9, 19680, Note_on_c, 7, 77, 100
9, 19680, Note_on_c, 7, 89, 100
9, 19680, Note_on_c, 7, 77, 100
9, 20160, Note_on_c, 7, 77, 0
9, 20160, Note_on_c, 7, 89, 0
9, 20160, Note_on_c, 7, 77, 0
9, 20160, Note_on_c, 7, 79, 100
9, 20160, Note_on_c, 7, 91, 100
9, 20160, Note_on_c, 7, 79, 100
9, 20640, Note_on_c, 7, 79, 0
9, 20640, Note_on_c, 7, 91, 0
9, 20640, Note_on_c, 7, 79, 0
9, 24960, Note_on_c, 7, 85, 100
9, 24960, Note_on_c, 7, 73, 100
9, 24960, Note_on_c, 7, 73, 100
9, 25200, Note_on_c, 7, 73, 0
9, 25200, Note_on_c, 7, 71, 100
9, 25200, Note_on_c, 7, 71, 100
9, 25380, Note_on_c, 7, 71, 100
9, 25380, Note_on_c, 7, 69, 100
9, 25440, Note_on_c, 7, 71, 0
9, 25440, Note_on_c, 7, 71, 0
9, 25440, Note_on_c, 7, 73, 0
9, 25680, Note_on_c, 7, 85, 0
9, 25740, Note_on_c, 7, 71, 0
9, 25740, Note_on_c, 7, 69, 0
9, 25790, Control_c, 7, 7, 122
9, 25815, Control_c, 7, 7, 123
9, 25820, Control_c, 7, 7, 124
9, 25858, Control_c, 7, 7, 123
9, 25865, Control_c, 7, 7, 122
9, 25890, Control_c, 7, 7, 121
9, 25920, Note_on_c, 7, 92, 100
9, 25920, Note_on_c, 7, 68, 100
9, 25920, Note_on_c, 7, 68, 100
9, 25925, Control_c, 7, 7, 121
9, 26340, Note_on_c, 7, 68, 0
9, 26340, Note_on_c, 7, 92, 0
9, 26340, Note_on_c, 7, 91, 100
9, 26340, Note_on_c, 7, 67, 100
9, 26400, Note_on_c, 7, 68, 0
9, 26400, Note_on_c, 7, 67, 100
9, 26700, Note_on_c, 7, 67, 0
9, 26700, Note_on_c, 7, 91, 0
9, 26880, Note_on_c, 7, 67, 0
9, 26880, Note_on_c, 7, 85, 100
9, 26880, Note_on_c, 7, 73, 100
9, 26880, Note_on_c, 7, 73, 100
9, 27120, Note_on_c, 7, 73, 0
9, 27120, Note_on_c, 7, 71, 100
9, 27120, Note_on_c, 7, 71, 100
9, 27300, Note_on_c, 7, 71, 100
9, 27300, Note_on_c, 7, 69, 100
9, 27360, Note_on_c, 7, 71, 0
9, 27360, Note_on_c, 7, 71, 0
9, 27360, Note_on_c, 7, 73, 0
9, 27600, Note_on_c, 7, 85, 0
9, 27660, Note_on_c, 7, 71, 0
9, 27660, Note_on_c, 7, 69, 0
9, 27840, Note_on_c, 7, 92, 100
9, 27840, Note_on_c, 7, 68, 100
9, 27840, Note_on_c, 7, 68, 100
9, 28260, Note_on_c, 7, 68, 0
9, 28260, Note_on_c, 7, 92, 0
9, 28260, Note_on_c, 7, 91, 100
9, 28260, Note_on_c, 7, 67, 100
9, 28320, Note_on_c, 7, 68, 0
9, 28320, Note_on_c, 7, 67, 100
9, 28620, Note_on_c, 7, 67, 0
9, 28620, Note_on_c, 7, 91, 0
9, 28720, Control_c, 7, 7, 110
9, 28733, Control_c, 7, 7, 109
9, 28755, Control_c, 7, 7, 108
9, 28800, Note_on_c, 7, 67, 0
9, 28800, Note_on_c, 7, 77, 100
9, 28800, Note_on_c, 7, 77, 100
9, 28800, Note_on_c, 7, 65, 100
9, 28820, Control_c, 7, 7, 108
9, 29040, Note_on_c, 7, 65, 0
9, 29040, Note_on_c, 7, 77, 0
9, 29040, Note_on_c, 7, 77, 0
9, 29040, Note_on_c, 7, 84, 100
9, 29040, Note_on_c, 7, 72, 100
9, 29040, Note_on_c, 7, 72, 100
9, 29280, Note_on_c, 7, 72, 0
9, 29280, Note_on_c, 7, 72, 0
9, 29280, Note_on_c, 7, 84, 0
9, 29280, Note_on_c, 7, 86, 100
9, 29280, Note_on_c, 7, 74, 100
9, 29280, Note_on_c, 7, 74, 100
9, 29520, Note_on_c, 7, 90, 100
9, 29580, Note_on_c, 7, 90, 0
9, 29580, Note_on_c, 7, 86, 100
9, 29640, Note_on_c, 7, 86, 0
9, 29640, Note_on_c, 7, 81, 100
9, 29700, Note_on_c, 7, 81, 0
9, 29700, Note_on_c, 7, 78, 100
9, 29760, Note_on_c, 7, 78, 0
9, 29760, Note_on_c, 7, 74, 0
9, 29760, Note_on_c, 7, 74, 0
9, 29760, Note_on_c, 7, 86, 0
9, 29760, Note_on_c, 7, 89, 100
9, 29760, Note_on_c, 7, 77, 100
9, 29760, Note_on_c, 7, 77, 100
9, 30240, Note_on_c, 7, 77, 0
9, 30240, Note_on_c, 7, 77, 0
9, 30240, Note_on_c, 7, 89, 0
9, 30240, Note_on_c, 7, 91, 100
9, 30240, Note_on_c, 7, 79, 100
9, 30240, Note_on_c, 7, 79, 100
9, 30720, Note_on_c, 7, 79, 0
9, 30720, Note_on_c, 7, 79, 0
9, 30720, Note_on_c, 7, 91, 0
9, 36615, Control_c, 7, 7, 107
9, 36680, Control_c, 7, 7, 108
9, 36690, Control_c, 7, 7, 109
9, 36715, Control_c, 7, 7, 110
9, 36760, Control_c, 7, 7, 109
9, 36810, Control_c, 7, 7, 108
9, 36840, Control_c, 7, 7, 107
9, 36850, Control_c, 7, 7, 106
9, 36860, Control_c, 7, 7, 105
9, 36870, Control_c, 7, 7, 104
9, 36880, Control_c, 7, 7, 103
9, 36910, Control_c, 7, 7, 102
9, 36935, Control_c, 7, 7, 103
9, 36940, Control_c, 7, 7, 104
9, 36960, Control_c, 7, 7, 105
9, 36970, Control_c, 7, 7, 106
9, 37020, Control_c, 7, 7, 107
9, 37040, Control_c, 7, 7, 108
9, 47915, Control_c, 7, 7, 99
9, 47935, Control_c, 7, 7, 98
9, 48090, Control_c, 7, 7, 93
9, 48320, Control_c, 7, 7, 100
9, 52195, Control_c, 7, 7, 88
9, 52435, Control_c, 7, 7, 91
9, 52435, Control_c, 7, 7, 90
9, 52435, Control_c, 7, 7, 89
9, 52440, Control_c, 7, 7, 93
9, 52440, Control_c, 7, 7, 92
9, 52445, Control_c, 7, 7, 94
9, 52450, Control_c, 7, 7, 95
9, 52455, Control_c, 7, 7, 96
9, 52490, Control_c, 7, 7, 97
9, 52500, Control_c, 7, 7, 98
9, 52535, Control_c, 7, 7, 99
9, 53760, Note_on_c, 7, 93, 127
9, 53763, Control_c, 7, 7, 0
9, 53766, Control_c, 7, 7, 12
9, 53770, Control_c, 7, 7, 25
9, 53773, Control_c, 7, 7, 38
9, 53776, Control_c, 7, 7, 50
9, 53780, Control_c, 7, 7, 63
9, 53783, Control_c, 7, 7, 76
9, 53786, Control_c, 7, 7, 88
9, 53790, Control_c, 7, 7, 101
9, 53793, Control_c, 7, 7, 114
9, 53796, Control_c, 7, 7, 127
9, 54240, Note_on_c, 7, 93, 0
9, 54240, Note_on_c, 7, 91, 127
9, 54480, Note_on_c, 7, 91, 0
9, 54480, Note_on_c, 7, 86, 127
9, 54720, Note_on_c, 7, 86, 0
9, 54720, Note_on_c, 7, 93, 127
9, 55200, Note_on_c, 7, 93, 0
9, 55200, Note_on_c, 7, 91, 127
9, 55440, Note_on_c, 7, 91, 0
9, 55440, Note_on_c, 7, 86, 127
9, 55680, Note_on_c, 7, 86, 0
9, 55680, Note_on_c, 7, 93, 127
9, 56160, Note_on_c, 7, 93, 0
9, 56160, Note_on_c, 7, 91, 127
9, 56400, Note_on_c, 7, 91, 0
9, 56400, Note_on_c, 7, 86, 127
9, 56640, Note_on_c, 7, 86, 0
9, 56640, Note_on_c, 7, 89, 127
9, 57120, Note_on_c, 7, 89, 0
9, 57120, Note_on_c, 7, 91, 127
9, 57600, Note_on_c, 7, 91, 0
9, 57600, Note_on_c, 7, 93, 127
9, 58080, Note_on_c, 7, 93, 0
9, 58080, Note_on_c, 7, 91, 127
9, 58320, Note_on_c, 7, 91, 0
9, 58320, Note_on_c, 7, 86, 127
9, 58560, Note_on_c, 7, 86, 0
9, 58560, Note_on_c, 7, 93, 127
9, 59040, Note_on_c, 7, 93, 0
9, 59040, Note_on_c, 7, 91, 127
9, 59280, Note_on_c, 7, 91, 0
9, 59280, Note_on_c, 7, 86, 127
9, 59520, Note_on_c, 7, 86, 0
9, 59520, Note_on_c, 7, 93, 127
9, 60000, Note_on_c, 7, 93, 0
9, 60000, Note_on_c, 7, 91, 127
9, 60240, Note_on_c, 7, 91, 0
9, 60240, Note_on_c, 7, 86, 127
9, 60480, Note_on_c, 7, 86, 0
9, 60480, Note_on_c, 7, 89, 127
9, 60960, Note_on_c, 7, 89, 0
9, 60960, Note_on_c, 7, 91, 127
9, 61440, Note_on_c, 7, 91, 0
9, 61440, Note_on_c, 7, 93, 127
9, 61920, Note_on_c, 7, 93, 0
9, 61920, Note_on_c, 7, 91, 127
9, 62160, Note_on_c, 7, 91, 0
9, 62160, Note_on_c, 7, 86, 127
9, 62400, Note_on_c, 7, 86, 0
9, 62400, Note_on_c, 7, 93, 127
9, 62880, Note_on_c, 7, 93, 0
9, 62880, Note_on_c, 7, 91, 127
9, 63120, Note_on_c, 7, 91, 0
9, 63120, Note_on_c, 7, 86, 127
9, 63360, Note_on_c, 7, 86, 0
9, 63360, Note_on_c, 7, 93, 127
9, 63840, Note_on_c, 7, 93, 0
9, 63840, Note_on_c, 7, 91, 127
9, 64080, Note_on_c, 7, 91, 0
9, 64080, Note_on_c, 7, 86, 127
9, 64320, Note_on_c, 7, 86, 0
9, 64320, Note_on_c, 7, 89, 127
9, 64800, Note_on_c, 7, 89, 0
9, 64800, Note_on_c, 7, 86, 127
9, 65280, Note_on_c, 7, 86, 0
9, 65280, End_track
10, 0, Start_track
10, 0, MIDI_port, 0
10, 0, Title_t, "Viola"
10, 0, Control_c, 8, 0, 0
10, 0, Control_c, 8, 32, 0
10, 0, Program_c, 8, 41
10, 0, Control_c, 8, 7, 80
10, 653, Control_c, 8, 7, 80
10, 653, Control_c, 8, 10, 64
10, 2305, Control_c, 8, 7, 81
10, 2310, Control_c, 8, 7, 84
10, 2310, Control_c, 8, 7, 82
10, 2315, Control_c, 8, 7, 86
10, 2320, Control_c, 8, 7, 88
10, 2320, Control_c, 8, 7, 87
10, 2325, Control_c, 8, 7, 90
10, 2325, Control_c, 8, 7, 89
10, 2355, Control_c, 8, 7, 91
10, 3160, Control_c, 8, 7, 93
10, 11500, Control_c, 8, 7, 94
10, 11505, Control_c, 8, 7, 95
10, 11515, Control_c, 8, 7, 96
10, 12960, Note_on_c, 8, 73, 100
10, 13200, Note_on_c, 8, 71, 100
10, 13380, Note_on_c, 8, 71, 100
10, 13440, Note_on_c, 8, 71, 0
10, 13440, Note_on_c, 8, 73, 0
10, 13440, Note_on_c, 8, 69, 100
10, 13720, Control_c, 8, 7, 106
10, 13740, Note_on_c, 8, 71, 0
10, 13800, Note_on_c, 8, 69, 0
10, 13920, Note_on_c, 8, 68, 100
10, 14340, Note_on_c, 8, 68, 0
10, 14340, Note_on_c, 8, 67, 100
10, 14700, Note_on_c, 8, 67, 0
10, 14880, Note_on_c, 8, 65, 100
10, 15120, Note_on_c, 8, 65, 0
10, 15120, Note_on_c, 8, 60, 100
10, 15360, Note_on_c, 8, 60, 0
10, 15360, Note_on_c, 8, 62, 100
10, 15600, Note_on_c, 8, 74, 100
10, 15660, Note_on_c, 8, 74, 0
10, 15660, Note_on_c, 8, 69, 100
10, 15720, Note_on_c, 8, 69, 0
10, 15720, Note_on_c, 8, 66, 100
10, 15780, Note_on_c, 8, 66, 0
10, 15780, Note_on_c, 8, 62, 100
10, 15840, Note_on_c, 8, 62, 0
10, 15840, Note_on_c, 8, 62, 0
10, 15840, Note_on_c, 8, 65, 100
10, 16140, Note_on_c, 8, 65, 100
10, 16200, Note_on_c, 8, 65, 0
10, 16200, Note_on_c, 8, 64, 100
10, 16260, Note_on_c, 8, 64, 0
10, 16260, Note_on_c, 8, 65, 100
10, 16320, Note_on_c, 8, 65, 0
10, 16320, Note_on_c, 8, 65, 0
10, 16320, Note_on_c, 8, 67, 100
10, 16800, Note_on_c, 8, 67, 0
10, 16800, Note_on_c, 8, 73, 100
10, 17040, Note_on_c, 8, 71, 100
10, 17220, Note_on_c, 8, 71, 100
10, 17280, Note_on_c, 8, 71, 0
10, 17280, Note_on_c, 8, 73, 0
10, 17280, Note_on_c, 8, 69, 100
10, 17580, Note_on_c, 8, 71, 0
10, 17640, Note_on_c, 8, 69, 0
10, 17760, Note_on_c, 8, 68, 100
10, 18180, Note_on_c, 8, 68, 0
10, 18180, Note_on_c, 8, 67, 100
10, 18540, Note_on_c, 8, 67, 0
10, 18720, Note_on_c, 8, 65, 100
10, 18960, Note_on_c, 8, 65, 0
10, 18960, Note_on_c, 8, 60, 100
10, 19200, Note_on_c, 8, 60, 0
10, 19200, Note_on_c, 8, 62, 100
10, 19680, Note_on_c, 8, 62, 0
10, 19680, Note_on_c, 8, 65, 100
10, 20160, Note_on_c, 8, 65, 0
10, 20160, Note_on_c, 8, 67, 100
10, 20640, Note_on_c, 8, 67, 0
10, 24960, Note_on_c, 8, 73, 100
10, 25200, Note_on_c, 8, 71, 100
10, 25380, Note_on_c, 8, 71, 100
10, 25440, Note_on_c, 8, 71, 0
10, 25440, Note_on_c, 8, 73, 0
10, 25500, Note_on_c, 8, 69, 100
10, 25740, Note_on_c, 8, 71, 0
10, 25860, Note_on_c, 8, 69, 0
10, 25920, Note_on_c, 8, 68, 100
10, 26340, Note_on_c, 8, 68, 0
10, 26340, Note_on_c, 8, 67, 100
10, 26700, Note_on_c, 8, 67, 0
10, 26880, Note_on_c, 8, 73, 100
10, 27120, Note_on_c, 8, 71, 100
10, 27300, Note_on_c, 8, 71, 100
10, 27360, Note_on_c, 8, 71, 0
10, 27360, Note_on_c, 8, 73, 0
10, 27420, Note_on_c, 8, 69, 100
10, 27660, Note_on_c, 8, 71, 0
10, 27780, Note_on_c, 8, 69, 0
10, 27840, Note_on_c, 8, 68, 100
10, 28260, Note_on_c, 8, 68, 0
10, 28260, Note_on_c, 8, 67, 100
10, 28620, Note_on_c, 8, 67, 0
10, 28800, Note_on_c, 8, 65, 100
10, 29040, Note_on_c, 8, 65, 0
10, 29040, Note_on_c, 8, 60, 100
10, 29280, Note_on_c, 8, 60, 0
10, 29280, Note_on_c, 8, 62, 100
10, 29760, Note_on_c, 8, 62, 0
10, 29760, Note_on_c, 8, 65, 100
10, 30240, Note_on_c, 8, 65, 0
10, 30240, Note_on_c, 8, 67, 100
10, 30720, Note_on_c, 8, 67, 0
10, 47975, Control_c, 8, 7, 96
10, 53760, Note_on_c, 8, 81, 100
10, 54240, Note_on_c, 8, 81, 0
10, 54240, Note_on_c, 8, 79, 100
10, 54480, Note_on_c, 8, 79, 0
10, 54480, Note_on_c, 8, 74, 100
10, 54720, Note_on_c, 8, 74, 0
10, 54720, Note_on_c, 8, 81, 100
10, 55200, Note_on_c, 8, 81, 0
10, 55200, Note_on_c, 8, 79, 100
10, 55440, Note_on_c, 8, 79, 0
10, 55440, Note_on_c, 8, 74, 100
10, 55680, Note_on_c, 8, 74, 0
10, 55680, Note_on_c, 8, 81, 100
10, 56160, Note_on_c, 8, 81, 0
10, 56160, Note_on_c, 8, 79, 100
10, 56400, Note_on_c, 8, 79, 0
10, 56400, Note_on_c, 8, 74, 100
10, 56640, Note_on_c, 8, 74, 0
10, 56640, Note_on_c, 8, 77, 100
10, 57120, Note_on_c, 8, 77, 0
10, 57120, Note_on_c, 8, 79, 100
10, 57600, Note_on_c, 8, 79, 0
10, 57600, Note_on_c, 8, 81, 100
10, 58080, Note_on_c, 8, 81, 0
10, 58080, Note_on_c, 8, 79, 100
10, 58320, Note_on_c, 8, 79, 0
10, 58320, Note_on_c, 8, 74, 100
10, 58560, Note_on_c, 8, 74, 0
10, 58560, Note_on_c, 8, 81, 100
10, 59040, Note_on_c, 8, 81, 0
10, 59040, Note_on_c, 8, 79, 100
10, 59280, Note_on_c, 8, 79, 0
10, 59280, Note_on_c, 8, 74, 100
10, 59520, Note_on_c, 8, 74, 0
10, 59520, Note_on_c, 8, 81, 100
10, 60000, Note_on_c, 8, 81, 0
10, 60000, Note_on_c, 8, 79, 100
10, 60240, Note_on_c, 8, 79, 0
10, 60240, Note_on_c, 8, 74, 100
10, 60480, Note_on_c, 8, 74, 0
10, 60480, Note_on_c, 8, 77, 100
10, 60960, Note_on_c, 8, 77, 0
10, 60960, Note_on_c, 8, 79, 100
10, 61440, Note_on_c, 8, 79, 0
10, 61440, Note_on_c, 8, 81, 100
10, 61920, Note_on_c, 8, 81, 0
10, 61920, Note_on_c, 8, 79, 100
10, 62160, Note_on_c, 8, 79, 0
10, 62160, Note_on_c, 8, 74, 100
10, 62400, Note_on_c, 8, 74, 0
10, 62400, Note_on_c, 8, 81, 100
10, 62880, Note_on_c, 8, 81, 0
10, 62880, Note_on_c, 8, 79, 100
10, 63120, Note_on_c, 8, 79, 0
10, 63120, Note_on_c, 8, 74, 100
10, 63360, Note_on_c, 8, 74, 0
10, 63360, Note_on_c, 8, 81, 100
10, 63840, Note_on_c, 8, 81, 0
10, 63840, Note_on_c, 8, 79, 100
10, 64080, Note_on_c, 8, 79, 0
10, 64080, Note_on_c, 8, 74, 100
10, 64320, Note_on_c, 8, 74, 0
10, 64320, Note_on_c, 8, 77, 100
10, 64800, Note_on_c, 8, 77, 0
10, 64800, Note_on_c, 8, 79, 100
10, 65280, Note_on_c, 8, 79, 0
10, 65280, End_track
11, 0, Start_track
11, 0, MIDI_port, 0
11, 0, Title_t, "Drums"
11, 0, Control_c, 9, 0, 0
11, 0, Control_c, 9, 32, 0
11, 0, Program_c, 9, 0
11, 0, Control_c, 9, 7, 127
11, 653, Control_c, 9, 7, 103
11, 653, Control_c, 9, 10, 64
11, 1740, Note_on_c, 9, 54, 100
11, 1740, Note_on_c, 9, 35, 100
11, 1740, Note_on_c, 9, 38, 100
11, 1800, Note_on_c, 9, 38, 0
11, 1800, Note_on_c, 9, 35, 0
11, 1800, Note_on_c, 9, 54, 0
11, 1800, Note_on_c, 9, 54, 100
11, 1800, Note_on_c, 9, 35, 100
11, 1800, Note_on_c, 9, 38, 100
11, 1860, Note_on_c, 9, 38, 0
11, 1860, Note_on_c, 9, 35, 0
11, 1860, Note_on_c, 9, 54, 0
11, 1860, Note_on_c, 9, 54, 100
11, 1860, Note_on_c, 9, 35, 100
11, 1860, Note_on_c, 9, 38, 100
11, 1920, Note_on_c, 9, 38, 0
11, 1920, Note_on_c, 9, 35, 0
11, 1920, Note_on_c, 9, 54, 0
11, 1920, Note_on_c, 9, 44, 100
11, 1920, Note_on_c, 9, 35, 100
11, 1920, Note_on_c, 9, 49, 100
11, 1980, Note_on_c, 9, 49, 0
11, 1980, Note_on_c, 9, 35, 0
11, 1980, Note_on_c, 9, 44, 0
11, 1980, Note_on_c, 9, 44, 100
11, 2040, Note_on_c, 9, 44, 0
11, 2040, Note_on_c, 9, 38, 100
11, 2040, Note_on_c, 9, 44, 100
11, 2100, Note_on_c, 9, 44, 0
11, 2100, Note_on_c, 9, 38, 0
11, 2100, Note_on_c, 9, 44, 100
11, 2160, Note_on_c, 9, 44, 0
11, 2160, Note_on_c, 9, 35, 100
11, 2160, Note_on_c, 9, 44, 100
11, 2220, Note_on_c, 9, 44, 0
11, 2220, Note_on_c, 9, 35, 0
11, 2220, Note_on_c, 9, 35, 100
11, 2220, Note_on_c, 9, 44, 100
11, 2280, Note_on_c, 9, 44, 0
11, 2280, Note_on_c, 9, 35, 0
11, 2280, Note_on_c, 9, 38, 100
11, 2280, Note_on_c, 9, 44, 100
11, 2340, Note_on_c, 9, 44, 0
11, 2340, Note_on_c, 9, 38, 0
11, 2340, Note_on_c, 9, 44, 100
11, 2400, Note_on_c, 9, 44, 0
11, 2400, Note_on_c, 9, 44, 100
11, 2400, Note_on_c, 9, 35, 100
11, 2460, Note_on_c, 9, 35, 0
11, 2460, Note_on_c, 9, 44, 0
11, 2460, Note_on_c, 9, 44, 100
11, 2520, Note_on_c, 9, 44, 0
11, 2520, Note_on_c, 9, 38, 100
11, 2520, Note_on_c, 9, 44, 100
11, 2580, Note_on_c, 9, 44, 0
11, 2580, Note_on_c, 9, 38, 0
11, 2580, Note_on_c, 9, 44, 100
11, 2640, Note_on_c, 9, 44, 0
11, 2640, Note_on_c, 9, 35, 100
11, 2640, Note_on_c, 9, 44, 100
11, 2700, Note_on_c, 9, 44, 0
11, 2700, Note_on_c, 9, 35, 0
11, 2700, Note_on_c, 9, 35, 100
11, 2700, Note_on_c, 9, 44, 100
11, 2760, Note_on_c, 9, 44, 0
11, 2760, Note_on_c, 9, 35, 0
11, 2760, Note_on_c, 9, 38, 100
11, 2760, Note_on_c, 9, 44, 100
11, 2820, Note_on_c, 9, 44, 0
11, 2820, Note_on_c, 9, 38, 0
11, 2820, Note_on_c, 9, 44, 100
11, 2880, Note_on_c, 9, 44, 0
11, 2880, Note_on_c, 9, 44, 100
11, 2880, Note_on_c, 9, 35, 100
11, 2940, Note_on_c, 9, 35, 0
11, 2940, Note_on_c, 9, 44, 0
11, 2940, Note_on_c, 9, 44, 100
11, 3000, Note_on_c, 9, 44, 0
11, 3000, Note_on_c, 9, 38, 100
11, 3000, Note_on_c, 9, 44, 100
11, 3060, Note_on_c, 9, 44, 0
11, 3060, Note_on_c, 9, 38, 0
11, 3060, Note_on_c, 9, 44, 100
11, 3120, Note_on_c, 9, 44, 0
11, 3120, Note_on_c, 9, 35, 100
11, 3120, Note_on_c, 9, 44, 100
11, 3180, Note_on_c, 9, 44, 0
11, 3180, Note_on_c, 9, 35, 0
11, 3180, Note_on_c, 9, 35, 100
11, 3180, Note_on_c, 9, 44, 100
11, 3240, Note_on_c, 9, 44, 0
11, 3240, Note_on_c, 9, 35, 0
11, 3240, Note_on_c, 9, 38, 100
11, 3240, Note_on_c, 9, 44, 100
11, 3300, Note_on_c, 9, 44, 0
11, 3300, Note_on_c, 9, 38, 0
11, 3300, Note_on_c, 9, 44, 100
11, 3360, Note_on_c, 9, 44, 0
11, 3360, Note_on_c, 9, 44, 100
11, 3360, Note_on_c, 9, 35, 100
11, 3420, Note_on_c, 9, 35, 0
11, 3420, Note_on_c, 9, 44, 0
11, 3420, Note_on_c, 9, 44, 100
11, 3480, Note_on_c, 9, 44, 0
11, 3480, Note_on_c, 9, 38, 100
11, 3480, Note_on_c, 9, 44, 100
11, 3540, Note_on_c, 9, 44, 0
11, 3540, Note_on_c, 9, 38, 0
11, 3540, Note_on_c, 9, 44, 100
11, 3600, Note_on_c, 9, 44, 0
11, 3600, Note_on_c, 9, 35, 100
11, 3600, Note_on_c, 9, 44, 100
11, 3660, Note_on_c, 9, 44, 0
11, 3660, Note_on_c, 9, 35, 0
11, 3660, Note_on_c, 9, 35, 100
11, 3660, Note_on_c, 9, 44, 100
11, 3720, Note_on_c, 9, 44, 0
11, 3720, Note_on_c, 9, 35, 0
11, 3720, Note_on_c, 9, 38, 100
11, 3720, Note_on_c, 9, 44, 100
11, 3780, Note_on_c, 9, 44, 0
11, 3780, Note_on_c, 9, 38, 0
11, 3780, Note_on_c, 9, 44, 100
11, 3840, Note_on_c, 9, 44, 0
11, 3840, Note_on_c, 9, 44, 100
11, 3840, Note_on_c, 9, 35, 100
11, 3900, Note_on_c, 9, 35, 0
11, 3900, Note_on_c, 9, 44, 0
11, 3900, Note_on_c, 9, 44, 100
11, 3960, Note_on_c, 9, 44, 0
11, 3960, Note_on_c, 9, 38, 100
11, 3960, Note_on_c, 9, 44, 100
11, 4020, Note_on_c, 9, 44, 0
11, 4020, Note_on_c, 9, 38, 0
11, 4020, Note_on_c, 9, 44, 100
11, 4080, Note_on_c, 9, 44, 0
11, 4080, Note_on_c, 9, 35, 100
11, 4080, Note_on_c, 9, 44, 100
11, 4140, Note_on_c, 9, 44, 0
11, 4140, Note_on_c, 9, 35, 0
11, 4140, Note_on_c, 9, 35, 100
11, 4140, Note_on_c, 9, 44, 100
11, 4200, Note_on_c, 9, 44, 0
11, 4200, Note_on_c, 9, 35, 0
11, 4200, Note_on_c, 9, 38, 100
11, 4200, Note_on_c, 9, 44, 100
11, 4260, Note_on_c, 9, 44, 0
11, 4260, Note_on_c, 9, 38, 0
11, 4260, Note_on_c, 9, 44, 100
11, 4320, Note_on_c, 9, 44, 0
11, 4320, Note_on_c, 9, 44, 100
11, 4320, Note_on_c, 9, 35, 100
11, 4380, Note_on_c, 9, 35, 0
11, 4380, Note_on_c, 9, 44, 0
11, 4380, Note_on_c, 9, 44, 100
11, 4440, Note_on_c, 9, 44, 0
11, 4440, Note_on_c, 9, 38, 100
11, 4440, Note_on_c, 9, 44, 100
11, 4500, Note_on_c, 9, 44, 0
11, 4500, Note_on_c, 9, 38, 0
11, 4500, Note_on_c, 9, 44, 100
11, 4560, Note_on_c, 9, 44, 0
11, 4560, Note_on_c, 9, 35, 100
11, 4560, Note_on_c, 9, 44, 100
11, 4620, Note_on_c, 9, 44, 0
11, 4620, Note_on_c, 9, 35, 0
11, 4620, Note_on_c, 9, 35, 100
11, 4620, Note_on_c, 9, 44, 100
11, 4680, Note_on_c, 9, 44, 0
11, 4680, Note_on_c, 9, 35, 0
11, 4680, Note_on_c, 9, 38, 100
11, 4680, Note_on_c, 9, 44, 100
11, 4740, Note_on_c, 9, 44, 0
11, 4740, Note_on_c, 9, 38, 0
11, 4740, Note_on_c, 9, 44, 100
11, 4800, Note_on_c, 9, 44, 0
11, 4800, Note_on_c, 9, 49, 100
11, 4800, Note_on_c, 9, 44, 100
11, 4800, Note_on_c, 9, 35, 100
11, 4860, Note_on_c, 9, 35, 0
11, 4860, Note_on_c, 9, 44, 0
11, 4860, Note_on_c, 9, 44, 100
11, 4920, Note_on_c, 9, 44, 0
11, 4920, Note_on_c, 9, 49, 0
11, 4920, Note_on_c, 9, 38, 100
11, 4920, Note_on_c, 9, 44, 100
11, 4980, Note_on_c, 9, 44, 0
11, 4980, Note_on_c, 9, 38, 0
11, 4980, Note_on_c, 9, 44, 100
11, 5040, Note_on_c, 9, 44, 0
11, 5040, Note_on_c, 9, 35, 100
11, 5040, Note_on_c, 9, 44, 100
11, 5100, Note_on_c, 9, 44, 0
11, 5100, Note_on_c, 9, 35, 0
11, 5100, Note_on_c, 9, 35, 100
11, 5100, Note_on_c, 9, 44, 100
11, 5160, Note_on_c, 9, 44, 0
11, 5160, Note_on_c, 9, 35, 0
11, 5160, Note_on_c, 9, 38, 100
11, 5160, Note_on_c, 9, 44, 100
11, 5220, Note_on_c, 9, 44, 0
11, 5220, Note_on_c, 9, 38, 0
11, 5220, Note_on_c, 9, 44, 100
11, 5280, Note_on_c, 9, 44, 0
11, 5280, Note_on_c, 9, 44, 100
11, 5280, Note_on_c, 9, 35, 100
11, 5340, Note_on_c, 9, 35, 0
11, 5340, Note_on_c, 9, 44, 0
11, 5340, Note_on_c, 9, 44, 100
11, 5400, Note_on_c, 9, 44, 0
11, 5400, Note_on_c, 9, 38, 100
11, 5400, Note_on_c, 9, 44, 100
11, 5460, Note_on_c, 9, 44, 0
11, 5460, Note_on_c, 9, 38, 0
11, 5460, Note_on_c, 9, 44, 100
11, 5520, Note_on_c, 9, 44, 0
11, 5520, Note_on_c, 9, 35, 100
11, 5520, Note_on_c, 9, 44, 100
11, 5580, Note_on_c, 9, 44, 0
11, 5580, Note_on_c, 9, 35, 0
11, 5580, Note_on_c, 9, 54, 100
11, 5580, Note_on_c, 9, 38, 100
11, 5580, Note_on_c, 9, 44, 100
11, 5640, Note_on_c, 9, 44, 0
11, 5640, Note_on_c, 9, 38, 0
11, 5640, Note_on_c, 9, 54, 0
11, 5640, Note_on_c, 9, 54, 100
11, 5640, Note_on_c, 9, 38, 100
11, 5640, Note_on_c, 9, 44, 100
11, 5700, Note_on_c, 9, 44, 0
11, 5700, Note_on_c, 9, 38, 0
11, 5700, Note_on_c, 9, 54, 0
11, 5700, Note_on_c, 9, 54, 100
11, 5700, Note_on_c, 9, 38, 100
11, 5700, Note_on_c, 9, 44, 100
11, 5760, Note_on_c, 9, 44, 0
11, 5760, Note_on_c, 9, 38, 0
11, 5760, Note_on_c, 9, 54, 0
11, 5760, Note_on_c, 9, 49, 100
11, 5765, Note_on_c, 9, 44, 100
11, 5765, Note_on_c, 9, 35, 100
11, 5820, Note_on_c, 9, 49, 0
11, 5825, Note_on_c, 9, 35, 0
11, 5825, Note_on_c, 9, 44, 0
11, 5825, Note_on_c, 9, 44, 100
11, 5885, Note_on_c, 9, 44, 0
11, 5885, Note_on_c, 9, 38, 100
11, 5885, Note_on_c, 9, 44, 100
11, 5945, Note_on_c, 9, 44, 0
11, 5945, Note_on_c, 9, 38, 0
11, 5945, Note_on_c, 9, 44, 100
11, 6005, Note_on_c, 9, 44, 0
11, 6005, Note_on_c, 9, 35, 100
11, 6005, Note_on_c, 9, 44, 100
11, 6065, Note_on_c, 9, 44, 0
11, 6065, Note_on_c, 9, 35, 0
11, 6065, Note_on_c, 9, 35, 100
11, 6065, Note_on_c, 9, 44, 100
11, 6125, Note_on_c, 9, 44, 0
11, 6125, Note_on_c, 9, 35, 0
11, 6125, Note_on_c, 9, 38, 100
11, 6125, Note_on_c, 9, 44, 100
11, 6185, Note_on_c, 9, 44, 0
11, 6185, Note_on_c, 9, 38, 0
11, 6185, Note_on_c, 9, 44, 100
11, 6240, Note_on_c, 9, 44, 100
11, 6240, Note_on_c, 9, 35, 100
11, 6245, Note_on_c, 9, 44, 0
11, 6300, Note_on_c, 9, 35, 0
11, 6300, Note_on_c, 9, 44, 0
11, 6300, Note_on_c, 9, 44, 100
11, 6360, Note_on_c, 9, 44, 0
11, 6360, Note_on_c, 9, 38, 100
11, 6360, Note_on_c, 9, 44, 100
11, 6420, Note_on_c, 9, 44, 0
11, 6420, Note_on_c, 9, 38, 0
11, 6420, Note_on_c, 9, 44, 100
11, 6480, Note_on_c, 9, 44, 0
11, 6480, Note_on_c, 9, 35, 100
11, 6480, Note_on_c, 9, 44, 100
11, 6540, Note_on_c, 9, 44, 0
11, 6540, Note_on_c, 9, 35, 0
11, 6540, Note_on_c, 9, 35, 100
11, 6540, Note_on_c, 9, 44, 100
11, 6600, Note_on_c, 9, 44, 0
11, 6600, Note_on_c, 9, 35, 0
11, 6600, Note_on_c, 9, 38, 100
11, 6600, Note_on_c, 9, 44, 100
11, 6660, Note_on_c, 9, 44, 0
11, 6660, Note_on_c, 9, 38, 0
11, 6660, Note_on_c, 9, 44, 100
11, 6720, Note_on_c, 9, 44, 0
11, 6720, Note_on_c, 9, 44, 100
11, 6720, Note_on_c, 9, 35, 100
11, 6780, Note_on_c, 9, 35, 0
11, 6780, Note_on_c, 9, 44, 0
11, 6780, Note_on_c, 9, 44, 100
11, 6840, Note_on_c, 9, 44, 0
11, 6840, Note_on_c, 9, 38, 100
11, 6840, Note_on_c, 9, 44, 100
11, 6900, Note_on_c, 9, 44, 0
11, 6900, Note_on_c, 9, 38, 0
11, 6900, Note_on_c, 9, 44, 100
11, 6960, Note_on_c, 9, 44, 0
11, 6960, Note_on_c, 9, 35, 100
11, 6960, Note_on_c, 9, 44, 100
11, 7020, Note_on_c, 9, 44, 0
11, 7020, Note_on_c, 9, 35, 0
11, 7020, Note_on_c, 9, 35, 100
11, 7020, Note_on_c, 9, 44, 100
11, 7080, Note_on_c, 9, 44, 0
11, 7080, Note_on_c, 9, 35, 0
11, 7080, Note_on_c, 9, 38, 100
11, 7080, Note_on_c, 9, 44, 100
11, 7140, Note_on_c, 9, 44, 0
11, 7140, Note_on_c, 9, 38, 0
11, 7140, Note_on_c, 9, 44, 100
11, 7200, Note_on_c, 9, 44, 0
11, 7200, Note_on_c, 9, 44, 100
11, 7200, Note_on_c, 9, 35, 100
11, 7260, Note_on_c, 9, 35, 0
11, 7260, Note_on_c, 9, 44, 0
11, 7260, Note_on_c, 9, 44, 100
11, 7320, Note_on_c, 9, 44, 0
11, 7320, Note_on_c, 9, 38, 100
11, 7320, Note_on_c, 9, 44, 100
11, 7380, Note_on_c, 9, 44, 0
11, 7380, Note_on_c, 9, 38, 0
11, 7380, Note_on_c, 9, 44, 100
11, 7440, Note_on_c, 9, 44, 0
11, 7440, Note_on_c, 9, 35, 100
11, 7440, Note_on_c, 9, 44, 100
11, 7500, Note_on_c, 9, 44, 0
11, 7500, Note_on_c, 9, 35, 0
11, 7500, Note_on_c, 9, 35, 100
11, 7500, Note_on_c, 9, 44, 100
11, 7560, Note_on_c, 9, 44, 0
11, 7560, Note_on_c, 9, 35, 0
11, 7560, Note_on_c, 9, 38, 100
11, 7560, Note_on_c, 9, 44, 100
11, 7620, Note_on_c, 9, 44, 0
11, 7620, Note_on_c, 9, 38, 0
11, 7620, Note_on_c, 9, 44, 100
11, 7675, Note_on_c, 9, 44, 100
11, 7675, Note_on_c, 9, 35, 100
11, 7680, Note_on_c, 9, 44, 0
11, 7735, Note_on_c, 9, 35, 0
11, 7735, Note_on_c, 9, 44, 0
11, 7735, Note_on_c, 9, 44, 100
11, 7795, Note_on_c, 9, 44, 0
11, 7795, Note_on_c, 9, 38, 100
11, 7795, Note_on_c, 9, 44, 100
11, 7855, Note_on_c, 9, 44, 0
11, 7855, Note_on_c, 9, 38, 0
11, 7855, Note_on_c, 9, 44, 100
11, 7915, Note_on_c, 9, 44, 0
11, 7915, Note_on_c, 9, 35, 100
11, 7915, Note_on_c, 9, 44, 100
11, 7975, Note_on_c, 9, 44, 0
11, 7975, Note_on_c, 9, 35, 0
11, 7975, Note_on_c, 9, 35, 100
11, 7975, Note_on_c, 9, 44, 100
11, 8035, Note_on_c, 9, 44, 0
11, 8035, Note_on_c, 9, 35, 0
11, 8035, Note_on_c, 9, 38, 100
11, 8035, Note_on_c, 9, 44, 100
11, 8095, Note_on_c, 9, 44, 0
11, 8095, Note_on_c, 9, 38, 0
11, 8095, Note_on_c, 9, 44, 100
11, 8155, Note_on_c, 9, 44, 0
11, 8155, Note_on_c, 9, 44, 100
11, 8155, Note_on_c, 9, 35, 100
11, 8215, Note_on_c, 9, 35, 0
11, 8215, Note_on_c, 9, 44, 0
11, 8215, Note_on_c, 9, 44, 100
11, 8275, Note_on_c, 9, 44, 0
11, 8275, Note_on_c, 9, 38, 100
11, 8275, Note_on_c, 9, 44, 100
11, 8335, Note_on_c, 9, 44, 0
11, 8335, Note_on_c, 9, 38, 0
11, 8335, Note_on_c, 9, 44, 100
11, 8395, Note_on_c, 9, 44, 0
11, 8395, Note_on_c, 9, 35, 100
11, 8395, Note_on_c, 9, 44, 100
11, 8455, Note_on_c, 9, 44, 0
11, 8455, Note_on_c, 9, 35, 0
11, 8455, Note_on_c, 9, 35, 100
11, 8455, Note_on_c, 9, 44, 100
11, 8515, Note_on_c, 9, 44, 0
11, 8515, Note_on_c, 9, 35, 0
11, 8515, Note_on_c, 9, 44, 100
11, 8520, Note_on_c, 9, 38, 100
11, 8575, Note_on_c, 9, 44, 0
11, 8575, Note_on_c, 9, 44, 100
11, 8580, Note_on_c, 9, 38, 0
11, 8635, Note_on_c, 9, 44, 0
11, 8640, Note_on_c, 9, 49, 100
11, 8640, Note_on_c, 9, 44, 100
11, 8640, Note_on_c, 9, 35, 100
11, 8700, Note_on_c, 9, 35, 0
11, 8700, Note_on_c, 9, 44, 0
11, 8700, Note_on_c, 9, 49, 0
11, 8700, Note_on_c, 9, 44, 100
11, 8760, Note_on_c, 9, 44, 0
11, 8760, Note_on_c, 9, 50, 100
11, 8760, Note_on_c, 9, 38, 100
11, 8760, Note_on_c, 9, 44, 100
11, 8820, Note_on_c, 9, 44, 0
11, 8820, Note_on_c, 9, 38, 0
11, 8820, Note_on_c, 9, 50, 0
11, 8820, Note_on_c, 9, 44, 100
11, 8880, Note_on_c, 9, 44, 0
11, 8880, Note_on_c, 9, 35, 100
11, 8880, Note_on_c, 9, 44, 100
11, 8940, Note_on_c, 9, 44, 0
11, 8940, Note_on_c, 9, 35, 0
11, 8940, Note_on_c, 9, 35, 100
11, 8940, Note_on_c, 9, 44, 100
11, 9000, Note_on_c, 9, 44, 0
11, 9000, Note_on_c, 9, 35, 0
11, 9000, Note_on_c, 9, 50, 100
11, 9000, Note_on_c, 9, 38, 100
11, 9000, Note_on_c, 9, 44, 100
11, 9060, Note_on_c, 9, 44, 0
11, 9060, Note_on_c, 9, 38, 0
11, 9060, Note_on_c, 9, 50, 0
11, 9060, Note_on_c, 9, 44, 100
11, 9115, Note_on_c, 9, 44, 100
11, 9115, Note_on_c, 9, 35, 100
11, 9120, Note_on_c, 9, 44, 0
11, 9175, Note_on_c, 9, 35, 0
11, 9175, Note_on_c, 9, 44, 0
11, 9175, Note_on_c, 9, 44, 100
11, 9235, Note_on_c, 9, 44, 0
11, 9235, Note_on_c, 9, 38, 100
11, 9235, Note_on_c, 9, 44, 100
11, 9240, Note_on_c, 9, 50, 100
11, 9295, Note_on_c, 9, 44, 0
11, 9295, Note_on_c, 9, 38, 0
11, 9295, Note_on_c, 9, 44, 100
11, 9300, Note_on_c, 9, 50, 0
11, 9355, Note_on_c, 9, 44, 0
11, 9355, Note_on_c, 9, 35, 100
11, 9355, Note_on_c, 9, 44, 100
11, 9415, Note_on_c, 9, 44, 0
11, 9415, Note_on_c, 9, 35, 0
11, 9415, Note_on_c, 9, 35, 100
11, 9415, Note_on_c, 9, 44, 100
11, 9475, Note_on_c, 9, 44, 0
11, 9475, Note_on_c, 9, 35, 0
11, 9475, Note_on_c, 9, 38, 100
11, 9475, Note_on_c, 9, 44, 100
11, 9480, Note_on_c, 9, 50, 100
11, 9535, Note_on_c, 9, 44, 0
11, 9535, Note_on_c, 9, 38, 0
11, 9535, Note_on_c, 9, 44, 100
11, 9540, Note_on_c, 9, 50, 0
11, 9595, Note_on_c, 9, 44, 0
11, 9595, Note_on_c, 9, 44, 100
11, 9595, Note_on_c, 9, 35, 100
11, 9655, Note_on_c, 9, 35, 0
11, 9655, Note_on_c, 9, 44, 0
11, 9655, Note_on_c, 9, 44, 100
11, 9715, Note_on_c, 9, 44, 0
11, 9715, Note_on_c, 9, 38, 100
11, 9715, Note_on_c, 9, 44, 100
11, 9720, Note_on_c, 9, 50, 100
11, 9775, Note_on_c, 9, 44, 0
11, 9775, Note_on_c, 9, 38, 0
11, 9775, Note_on_c, 9, 44, 100
11, 9780, Note_on_c, 9, 50, 0
11, 9835, Note_on_c, 9, 44, 0
11, 9835, Note_on_c, 9, 35, 100
11, 9835, Note_on_c, 9, 44, 100
11, 9895, Note_on_c, 9, 44, 0
11, 9895, Note_on_c, 9, 35, 0
11, 9895, Note_on_c, 9, 35, 100
11, 9895, Note_on_c, 9, 44, 100
11, 9955, Note_on_c, 9, 44, 0
11, 9955, Note_on_c, 9, 35, 0
11, 9955, Note_on_c, 9, 38, 100
11, 9955, Note_on_c, 9, 44, 100
11, 9960, Note_on_c, 9, 50, 100
11, 10015, Note_on_c, 9, 44, 0
11, 10015, Note_on_c, 9, 38, 0
11, 10015, Note_on_c, 9, 44, 100
11, 10020, Note_on_c, 9, 50, 0
11, 10075, Note_on_c, 9, 44, 0
11, 10075, Note_on_c, 9, 44, 100
11, 10075, Note_on_c, 9, 35, 100
11, 10135, Note_on_c, 9, 35, 0
11, 10135, Note_on_c, 9, 44, 0
11, 10135, Note_on_c, 9, 44, 100
11, 10195, Note_on_c, 9, 44, 0
11, 10195, Note_on_c, 9, 38, 100
11, 10195, Note_on_c, 9, 44, 100
11, 10200, Note_on_c, 9, 50, 100
11, 10255, Note_on_c, 9, 44, 0
11, 10255, Note_on_c, 9, 38, 0
11, 10255, Note_on_c, 9, 44, 100
11, 10260, Note_on_c, 9, 50, 0
11, 10315, Note_on_c, 9, 44, 0
11, 10315, Note_on_c, 9, 35, 100
11, 10315, Note_on_c, 9, 44, 100
11, 10375, Note_on_c, 9, 44, 0
11, 10375, Note_on_c, 9, 35, 0
11, 10375, Note_on_c, 9, 35, 100
11, 10375, Note_on_c, 9, 44, 100
11, 10435, Note_on_c, 9, 44, 0
11, 10435, Note_on_c, 9, 35, 0
11, 10435, Note_on_c, 9, 38, 100
11, 10435, Note_on_c, 9, 44, 100
11, 10440, Note_on_c, 9, 50, 100
11, 10495, Note_on_c, 9, 44, 0
11, 10495, Note_on_c, 9, 38, 0
11, 10495, Note_on_c, 9, 44, 100
11, 10500, Note_on_c, 9, 50, 0
11, 10555, Note_on_c, 9, 44, 0
11, 10560, Note_on_c, 9, 49, 100
11, 10560, Note_on_c, 9, 44, 100
11, 10560, Note_on_c, 9, 35, 100
11, 10620, Note_on_c, 9, 35, 0
11, 10620, Note_on_c, 9, 44, 0
11, 10620, Note_on_c, 9, 49, 0
11, 10620, Note_on_c, 9, 44, 100
11, 10680, Note_on_c, 9, 44, 0
11, 10680, Note_on_c, 9, 50, 100
11, 10680, Note_on_c, 9, 38, 100
11, 10680, Note_on_c, 9, 44, 100
11, 10740, Note_on_c, 9, 44, 0
11, 10740, Note_on_c, 9, 38, 0
11, 10740, Note_on_c, 9, 50, 0
11, 10740, Note_on_c, 9, 44, 100
11, 10800, Note_on_c, 9, 44, 0
11, 10800, Note_on_c, 9, 35, 100
11, 10800, Note_on_c, 9, 44, 100
11, 10860, Note_on_c, 9, 44, 0
11, 10860, Note_on_c, 9, 35, 0
11, 10860, Note_on_c, 9, 35, 100
11, 10860, Note_on_c, 9, 44, 100
11, 10920, Note_on_c, 9, 44, 0
11, 10920, Note_on_c, 9, 35, 0
11, 10920, Note_on_c, 9, 50, 100
11, 10920, Note_on_c, 9, 38, 100
11, 10920, Note_on_c, 9, 44, 100
11, 10980, Note_on_c, 9, 44, 0
11, 10980, Note_on_c, 9, 38, 0
11, 10980, Note_on_c, 9, 50, 0
11, 10980, Note_on_c, 9, 44, 100
11, 11040, Note_on_c, 9, 44, 0
11, 11040, Note_on_c, 9, 44, 100
11, 11040, Note_on_c, 9, 35, 100
11, 11100, Note_on_c, 9, 35, 0
11, 11100, Note_on_c, 9, 44, 0
11, 11100, Note_on_c, 9, 44, 100
11, 11160, Note_on_c, 9, 44, 0
11, 11160, Note_on_c, 9, 50, 100
11, 11160, Note_on_c, 9, 38, 100
11, 11160, Note_on_c, 9, 44, 100
11, 11220, Note_on_c, 9, 44, 0
11, 11220, Note_on_c, 9, 38, 0
11, 11220, Note_on_c, 9, 50, 0
11, 11220, Note_on_c, 9, 44, 100
11, 11280, Note_on_c, 9, 44, 0
11, 11280, Note_on_c, 9, 35, 100
11, 11280, Note_on_c, 9, 44, 100
11, 11340, Note_on_c, 9, 44, 0
11, 11340, Note_on_c, 9, 35, 0
11, 11340, Note_on_c, 9, 35, 100
11, 11340, Note_on_c, 9, 44, 100
11, 11400, Note_on_c, 9, 44, 0
11, 11400, Note_on_c, 9, 35, 0
11, 11400, Note_on_c, 9, 50, 100
11, 11400, Note_on_c, 9, 38, 100
11, 11400, Note_on_c, 9, 44, 100
11, 11460, Note_on_c, 9, 44, 0
11, 11460, Note_on_c, 9, 38, 0
11, 11460, Note_on_c, 9, 50, 0
11, 11460, Note_on_c, 9, 35, 100
11, 11460, Note_on_c, 9, 44, 100
11, 11520, Note_on_c, 9, 44, 0
11, 11520, Note_on_c, 9, 35, 0
11, 11520, Note_on_c, 9, 49, 100
11, 11520, Note_on_c, 9, 44, 100
11, 11520, Note_on_c, 9, 35, 100
11, 11580, Note_on_c, 9, 35, 0
11, 11580, Note_on_c, 9, 44, 0
11, 11580, Note_on_c, 9, 44, 100
11, 11640, Note_on_c, 9, 44, 0
11, 11640, Note_on_c, 9, 49, 0
11, 11640, Note_on_c, 9, 38, 100
11, 11640, Note_on_c, 9, 44, 100
11, 11700, Note_on_c, 9, 44, 0
11, 11700, Note_on_c, 9, 38, 0
11, 11700, Note_on_c, 9, 44, 100
11, 11760, Note_on_c, 9, 44, 0
11, 11760, Note_on_c, 9, 44, 100
11, 11760, Note_on_c, 9, 35, 100
11, 11820, Note_on_c, 9, 35, 0
11, 11820, Note_on_c, 9, 44, 0
11, 11820, Note_on_c, 9, 35, 100
11, 11820, Note_on_c, 9, 44, 100
11, 11880, Note_on_c, 9, 44, 0
11, 11880, Note_on_c, 9, 35, 0
11, 11880, Note_on_c, 9, 35, 100
11, 11880, Note_on_c, 9, 40, 100
11, 11940, Note_on_c, 9, 40, 0
11, 11940, Note_on_c, 9, 35, 0
11, 11940, Note_on_c, 9, 35, 100
11, 11940, Note_on_c, 9, 49, 100
11, 12000, Note_on_c, 9, 49, 0
11, 12000, Note_on_c, 9, 35, 0
11, 12960, Note_on_c, 9, 44, 100
11, 12960, Note_on_c, 9, 35, 100
11, 12960, Note_on_c, 9, 49, 100
11, 13020, Note_on_c, 9, 49, 0
11, 13020, Note_on_c, 9, 35, 0
11, 13020, Note_on_c, 9, 44, 0
11, 13020, Note_on_c, 9, 44, 100
11, 13080, Note_on_c, 9, 44, 0
11, 13080, Note_on_c, 9, 38, 100
11, 13080, Note_on_c, 9, 44, 100
11, 13140, Note_on_c, 9, 44, 0
11, 13140, Note_on_c, 9, 38, 0
11, 13140, Note_on_c, 9, 44, 100
11, 13200, Note_on_c, 9, 44, 0
11, 13200, Note_on_c, 9, 35, 100
11, 13200, Note_on_c, 9, 44, 100
11, 13260, Note_on_c, 9, 44, 0
11, 13260, Note_on_c, 9, 35, 0
11, 13260, Note_on_c, 9, 35, 100
11, 13260, Note_on_c, 9, 44, 100
11, 13320, Note_on_c, 9, 44, 0
11, 13320, Note_on_c, 9, 35, 0
11, 13320, Note_on_c, 9, 38, 100
11, 13320, Note_on_c, 9, 44, 100
11, 13380, Note_on_c, 9, 44, 0
11, 13380, Note_on_c, 9, 38, 0
11, 13380, Note_on_c, 9, 44, 100
11, 13440, Note_on_c, 9, 44, 0
11, 13440, Note_on_c, 9, 44, 100
11, 13440, Note_on_c, 9, 35, 100
11, 13500, Note_on_c, 9, 35, 0
11, 13500, Note_on_c, 9, 44, 0
11, 13500, Note_on_c, 9, 44, 100
11, 13560, Note_on_c, 9, 44, 0
11, 13560, Note_on_c, 9, 38, 100
11, 13560, Note_on_c, 9, 44, 100
11, 13620, Note_on_c, 9, 44, 0
11, 13620, Note_on_c, 9, 38, 0
11, 13620, Note_on_c, 9, 44, 100
11, 13680, Note_on_c, 9, 44, 0
11, 13680, Note_on_c, 9, 35, 100
11, 13680, Note_on_c, 9, 44, 100
11, 13740, Note_on_c, 9, 44, 0
11, 13740, Note_on_c, 9, 35, 0
11, 13740, Note_on_c, 9, 44, 100
11, 13740, Note_on_c, 9, 54, 100
11, 13740, Note_on_c, 9, 35, 100
11, 13740, Note_on_c, 9, 38, 100
11, 13800, Note_on_c, 9, 38, 0
11, 13800, Note_on_c, 9, 44, 0
11, 13800, Note_on_c, 9, 54, 0
11, 13800, Note_on_c, 9, 35, 0
11, 13800, Note_on_c, 9, 44, 100
11, 13800, Note_on_c, 9, 54, 100
11, 13800, Note_on_c, 9, 35, 100
11, 13800, Note_on_c, 9, 38, 100
11, 13860, Note_on_c, 9, 38, 0
11, 13860, Note_on_c, 9, 44, 0
11, 13860, Note_on_c, 9, 54, 0
11, 13860, Note_on_c, 9, 35, 0
11, 13860, Note_on_c, 9, 44, 100
11, 13860, Note_on_c, 9, 54, 100
11, 13860, Note_on_c, 9, 35, 100
11, 13860, Note_on_c, 9, 38, 100
11, 13920, Note_on_c, 9, 38, 0
11, 13920, Note_on_c, 9, 44, 0
11, 13920, Note_on_c, 9, 54, 0
11, 13920, Note_on_c, 9, 35, 0
11, 13920, Note_on_c, 9, 44, 100
11, 13920, Note_on_c, 9, 35, 100
11, 13920, Note_on_c, 9, 49, 100
11, 13980, Note_on_c, 9, 49, 0
11, 13980, Note_on_c, 9, 35, 0
11, 13980, Note_on_c, 9, 44, 0
11, 13980, Note_on_c, 9, 44, 100
11, 14040, Note_on_c, 9, 44, 0
11, 14040, Note_on_c, 9, 38, 100
11, 14040, Note_on_c, 9, 44, 100
11, 14100, Note_on_c, 9, 44, 0
11, 14100, Note_on_c, 9, 38, 0
11, 14100, Note_on_c, 9, 44, 100
11, 14160, Note_on_c, 9, 44, 0
11, 14160, Note_on_c, 9, 35, 100
11, 14160, Note_on_c, 9, 44, 100
11, 14220, Note_on_c, 9, 44, 0
11, 14220, Note_on_c, 9, 35, 0
11, 14220, Note_on_c, 9, 35, 100
11, 14220, Note_on_c, 9, 44, 100
11, 14280, Note_on_c, 9, 44, 0
11, 14280, Note_on_c, 9, 35, 0
11, 14280, Note_on_c, 9, 38, 100
11, 14280, Note_on_c, 9, 44, 100
11, 14340, Note_on_c, 9, 44, 0
11, 14340, Note_on_c, 9, 38, 0
11, 14340, Note_on_c, 9, 44, 100
11, 14400, Note_on_c, 9, 44, 0
11, 14400, Note_on_c, 9, 44, 100
11, 14400, Note_on_c, 9, 35, 100
11, 14460, Note_on_c, 9, 35, 0
11, 14460, Note_on_c, 9, 44, 0
11, 14460, Note_on_c, 9, 44, 100
11, 14520, Note_on_c, 9, 44, 0
11, 14520, Note_on_c, 9, 38, 100
11, 14520, Note_on_c, 9, 44, 100
11, 14580, Note_on_c, 9, 44, 0
11, 14580, Note_on_c, 9, 38, 0
11, 14580, Note_on_c, 9, 44, 100
11, 14640, Note_on_c, 9, 44, 0
11, 14640, Note_on_c, 9, 35, 100
11, 14640, Note_on_c, 9, 44, 100
11, 14700, Note_on_c, 9, 44, 0
11, 14700, Note_on_c, 9, 35, 0
11, 14700, Note_on_c, 9, 35, 100
11, 14700, Note_on_c, 9, 44, 100
11, 14760, Note_on_c, 9, 44, 0
11, 14760, Note_on_c, 9, 35, 0
11, 14760, Note_on_c, 9, 38, 100
11, 14760, Note_on_c, 9, 44, 100
11, 14820, Note_on_c, 9, 44, 0
11, 14820, Note_on_c, 9, 38, 0
11, 14820, Note_on_c, 9, 44, 100
11, 14880, Note_on_c, 9, 44, 0
11, 14880, Note_on_c, 9, 44, 100
11, 14880, Note_on_c, 9, 35, 100
11, 14940, Note_on_c, 9, 35, 0
11, 14940, Note_on_c, 9, 44, 0
11, 14940, Note_on_c, 9, 44, 100
11, 15000, Note_on_c, 9, 44, 0
11, 15000, Note_on_c, 9, 38, 100
11, 15000, Note_on_c, 9, 44, 100
11, 15060, Note_on_c, 9, 44, 0
11, 15060, Note_on_c, 9, 38, 0
11, 15060, Note_on_c, 9, 44, 100
11, 15120, Note_on_c, 9, 44, 0
11, 15120, Note_on_c, 9, 35, 100
11, 15120, Note_on_c, 9, 44, 100
11, 15180, Note_on_c, 9, 44, 0
11, 15180, Note_on_c, 9, 35, 0
11, 15180, Note_on_c, 9, 35, 100
11, 15180, Note_on_c, 9, 44, 100
11, 15240, Note_on_c, 9, 44, 0
11, 15240, Note_on_c, 9, 35, 0
11, 15240, Note_on_c, 9, 38, 100
11, 15240, Note_on_c, 9, 44, 100
11, 15300, Note_on_c, 9, 44, 0
11, 15300, Note_on_c, 9, 38, 0
11, 15300, Note_on_c, 9, 44, 100
11, 15360, Note_on_c, 9, 44, 0
11, 15360, Note_on_c, 9, 44, 100
11, 15360, Note_on_c, 9, 35, 100
11, 15420, Note_on_c, 9, 35, 0
11, 15420, Note_on_c, 9, 44, 0
11, 15420, Note_on_c, 9, 44, 100
11, 15480, Note_on_c, 9, 44, 0
11, 15480, Note_on_c, 9, 38, 100
11, 15480, Note_on_c, 9, 44, 100
11, 15540, Note_on_c, 9, 44, 0
11, 15540, Note_on_c, 9, 38, 0
11, 15540, Note_on_c, 9, 44, 100
11, 15600, Note_on_c, 9, 44, 0
11, 15600, Note_on_c, 9, 35, 100
11, 15600, Note_on_c, 9, 44, 100
11, 15660, Note_on_c, 9, 44, 0
11, 15660, Note_on_c, 9, 35, 0
11, 15660, Note_on_c, 9, 35, 100
11, 15660, Note_on_c, 9, 44, 100
11, 15720, Note_on_c, 9, 44, 0
11, 15720, Note_on_c, 9, 35, 0
11, 15720, Note_on_c, 9, 38, 100
11, 15720, Note_on_c, 9, 44, 100
11, 15780, Note_on_c, 9, 44, 0
11, 15780, Note_on_c, 9, 38, 0
11, 15780, Note_on_c, 9, 44, 100
11, 15840, Note_on_c, 9, 44, 0
11, 15840, Note_on_c, 9, 44, 100
11, 15840, Note_on_c, 9, 35, 100
11, 15900, Note_on_c, 9, 35, 0
11, 15900, Note_on_c, 9, 44, 0
11, 15900, Note_on_c, 9, 44, 100
11, 15960, Note_on_c, 9, 44, 0
11, 15960, Note_on_c, 9, 38, 100
11, 15960, Note_on_c, 9, 44, 100
11, 16020, Note_on_c, 9, 44, 0
11, 16020, Note_on_c, 9, 38, 0
11, 16020, Note_on_c, 9, 44, 100
11, 16080, Note_on_c, 9, 44, 0
11, 16080, Note_on_c, 9, 35, 100
11, 16080, Note_on_c, 9, 44, 100
11, 16140, Note_on_c, 9, 44, 0
11, 16140, Note_on_c, 9, 35, 0
11, 16140, Note_on_c, 9, 35, 100
11, 16140, Note_on_c, 9, 44, 100
11, 16200, Note_on_c, 9, 44, 0
11, 16200, Note_on_c, 9, 35, 0
11, 16200, Note_on_c, 9, 38, 100
11, 16200, Note_on_c, 9, 44, 100
11, 16260, Note_on_c, 9, 44, 0
11, 16260, Note_on_c, 9, 38, 0
11, 16260, Note_on_c, 9, 44, 100
11, 16320, Note_on_c, 9, 44, 0
11, 16320, Note_on_c, 9, 44, 100
11, 16320, Note_on_c, 9, 35, 100
11, 16380, Note_on_c, 9, 35, 0
11, 16380, Note_on_c, 9, 44, 0
11, 16380, Note_on_c, 9, 44, 100
11, 16440, Note_on_c, 9, 44, 0
11, 16440, Note_on_c, 9, 38, 100
11, 16440, Note_on_c, 9, 44, 100
11, 16500, Note_on_c, 9, 44, 0
11, 16500, Note_on_c, 9, 38, 0
11, 16500, Note_on_c, 9, 44, 100
11, 16560, Note_on_c, 9, 44, 0
11, 16560, Note_on_c, 9, 35, 100
11, 16560, Note_on_c, 9, 44, 100
11, 16620, Note_on_c, 9, 44, 0
11, 16620, Note_on_c, 9, 35, 0
11, 16620, Note_on_c, 9, 35, 100
11, 16620, Note_on_c, 9, 44, 100
11, 16680, Note_on_c, 9, 44, 0
11, 16680, Note_on_c, 9, 35, 0
11, 16680, Note_on_c, 9, 38, 100
11, 16680, Note_on_c, 9, 44, 100
11, 16740, Note_on_c, 9, 44, 0
11, 16740, Note_on_c, 9, 38, 0
11, 16740, Note_on_c, 9, 44, 100
11, 16800, Note_on_c, 9, 44, 0
11, 16800, Note_on_c, 9, 49, 100
11, 16800, Note_on_c, 9, 44, 100
11, 16800, Note_on_c, 9, 35, 100
11, 16860, Note_on_c, 9, 35, 0
11, 16860, Note_on_c, 9, 44, 0
11, 16860, Note_on_c, 9, 44, 100
11, 16920, Note_on_c, 9, 44, 0
11, 16920, Note_on_c, 9, 49, 0
11, 16920, Note_on_c, 9, 38, 100
11, 16920, Note_on_c, 9, 44, 100
11, 16980, Note_on_c, 9, 44, 0
11, 16980, Note_on_c, 9, 38, 0
11, 16980, Note_on_c, 9, 44, 100
11, 17040, Note_on_c, 9, 44, 0
11, 17040, Note_on_c, 9, 35, 100
11, 17040, Note_on_c, 9, 44, 100
11, 17100, Note_on_c, 9, 44, 0
11, 17100, Note_on_c, 9, 35, 0
11, 17100, Note_on_c, 9, 35, 100
11, 17100, Note_on_c, 9, 44, 100
11, 17160, Note_on_c, 9, 44, 0
11, 17160, Note_on_c, 9, 35, 0
11, 17160, Note_on_c, 9, 38, 100
11, 17160, Note_on_c, 9, 44, 100
11, 17220, Note_on_c, 9, 44, 0
11, 17220, Note_on_c, 9, 38, 0
11, 17220, Note_on_c, 9, 44, 100
11, 17280, Note_on_c, 9, 44, 0
11, 17280, Note_on_c, 9, 44, 100
11, 17280, Note_on_c, 9, 35, 100
11, 17340, Note_on_c, 9, 35, 0
11, 17340, Note_on_c, 9, 44, 0
11, 17340, Note_on_c, 9, 44, 100
11, 17400, Note_on_c, 9, 44, 0
11, 17400, Note_on_c, 9, 38, 100
11, 17400, Note_on_c, 9, 44, 100
11, 17460, Note_on_c, 9, 44, 0
11, 17460, Note_on_c, 9, 38, 0
11, 17460, Note_on_c, 9, 44, 100
11, 17520, Note_on_c, 9, 44, 0
11, 17520, Note_on_c, 9, 35, 100
11, 17520, Note_on_c, 9, 44, 100
11, 17580, Note_on_c, 9, 44, 0
11, 17580, Note_on_c, 9, 35, 0
11, 17580, Note_on_c, 9, 54, 100
11, 17580, Note_on_c, 9, 38, 100
11, 17580, Note_on_c, 9, 44, 100
11, 17640, Note_on_c, 9, 44, 0
11, 17640, Note_on_c, 9, 38, 0
11, 17640, Note_on_c, 9, 54, 0
11, 17640, Note_on_c, 9, 54, 100
11, 17640, Note_on_c, 9, 38, 100
11, 17640, Note_on_c, 9, 44, 100
11, 17700, Note_on_c, 9, 44, 0
11, 17700, Note_on_c, 9, 38, 0
11, 17700, Note_on_c, 9, 54, 0
11, 17700, Note_on_c, 9, 54, 100
11, 17700, Note_on_c, 9, 38, 100
11, 17700, Note_on_c, 9, 44, 100
11, 17760, Note_on_c, 9, 44, 0
11, 17760, Note_on_c, 9, 38, 0
11, 17760, Note_on_c, 9, 54, 0
11, 17760, Note_on_c, 9, 49, 100
11, 17765, Note_on_c, 9, 44, 100
11, 17765, Note_on_c, 9, 35, 100
11, 17820, Note_on_c, 9, 49, 0
11, 17825, Note_on_c, 9, 35, 0
11, 17825, Note_on_c, 9, 44, 0
11, 17825, Note_on_c, 9, 44, 100
11, 17885, Note_on_c, 9, 44, 0
11, 17885, Note_on_c, 9, 38, 100
11, 17885, Note_on_c, 9, 44, 100
11, 17945, Note_on_c, 9, 44, 0
11, 17945, Note_on_c, 9, 38, 0
11, 17945, Note_on_c, 9, 44, 100
11, 18005, Note_on_c, 9, 44, 0
11, 18005, Note_on_c, 9, 35, 100
11, 18005, Note_on_c, 9, 44, 100
11, 18065, Note_on_c, 9, 44, 0
11, 18065, Note_on_c, 9, 35, 0
11, 18065, Note_on_c, 9, 35, 100
11, 18065, Note_on_c, 9, 44, 100
11, 18125, Note_on_c, 9, 44, 0
11, 18125, Note_on_c, 9, 35, 0
11, 18125, Note_on_c, 9, 38, 100
11, 18125, Note_on_c, 9, 44, 100
11, 18185, Note_on_c, 9, 44, 0
11, 18185, Note_on_c, 9, 38, 0
11, 18185, Note_on_c, 9, 44, 100
11, 18240, Note_on_c, 9, 44, 100
11, 18240, Note_on_c, 9, 35, 100
11, 18245, Note_on_c, 9, 44, 0
11, 18300, Note_on_c, 9, 35, 0
11, 18300, Note_on_c, 9, 44, 0
11, 18300, Note_on_c, 9, 44, 100
11, 18360, Note_on_c, 9, 44, 0
11, 18360, Note_on_c, 9, 38, 100
11, 18360, Note_on_c, 9, 44, 100
11, 18420, Note_on_c, 9, 44, 0
11, 18420, Note_on_c, 9, 38, 0
11, 18420, Note_on_c, 9, 44, 100
11, 18480, Note_on_c, 9, 44, 0
11, 18480, Note_on_c, 9, 35, 100
11, 18480, Note_on_c, 9, 44, 100
11, 18540, Note_on_c, 9, 44, 0
11, 18540, Note_on_c, 9, 35, 0
11, 18540, Note_on_c, 9, 35, 100
11, 18540, Note_on_c, 9, 44, 100
11, 18600, Note_on_c, 9, 44, 0
11, 18600, Note_on_c, 9, 35, 0
11, 18600, Note_on_c, 9, 38, 100
11, 18600, Note_on_c, 9, 44, 100
11, 18660, Note_on_c, 9, 44, 0
11, 18660, Note_on_c, 9, 38, 0
11, 18660, Note_on_c, 9, 44, 100
11, 18720, Note_on_c, 9, 44, 0
11, 18720, Note_on_c, 9, 44, 100
11, 18720, Note_on_c, 9, 35, 100
11, 18780, Note_on_c, 9, 35, 0
11, 18780, Note_on_c, 9, 44, 0
11, 18780, Note_on_c, 9, 44, 100
11, 18840, Note_on_c, 9, 44, 0
11, 18840, Note_on_c, 9, 38, 100
11, 18840, Note_on_c, 9, 44, 100
11, 18900, Note_on_c, 9, 44, 0
11, 18900, Note_on_c, 9, 38, 0
11, 18900, Note_on_c, 9, 44, 100
11, 18960, Note_on_c, 9, 44, 0
11, 18960, Note_on_c, 9, 35, 100
11, 18960, Note_on_c, 9, 44, 100
11, 19020, Note_on_c, 9, 44, 0
11, 19020, Note_on_c, 9, 35, 0
11, 19020, Note_on_c, 9, 35, 100
11, 19020, Note_on_c, 9, 44, 100
11, 19080, Note_on_c, 9, 44, 0
11, 19080, Note_on_c, 9, 35, 0
11, 19080, Note_on_c, 9, 38, 100
11, 19080, Note_on_c, 9, 44, 100
11, 19140, Note_on_c, 9, 44, 0
11, 19140, Note_on_c, 9, 38, 0
11, 19140, Note_on_c, 9, 44, 100
11, 19200, Note_on_c, 9, 44, 0
11, 19200, Note_on_c, 9, 44, 100
11, 19200, Note_on_c, 9, 35, 100
11, 19260, Note_on_c, 9, 35, 0
11, 19260, Note_on_c, 9, 44, 0
11, 19260, Note_on_c, 9, 44, 100
11, 19320, Note_on_c, 9, 44, 0
11, 19320, Note_on_c, 9, 38, 100
11, 19320, Note_on_c, 9, 44, 100
11, 19380, Note_on_c, 9, 44, 0
11, 19380, Note_on_c, 9, 38, 0
11, 19380, Note_on_c, 9, 44, 100
11, 19440, Note_on_c, 9, 44, 0
11, 19440, Note_on_c, 9, 35, 100
11, 19440, Note_on_c, 9, 44, 100
11, 19500, Note_on_c, 9, 44, 0
11, 19500, Note_on_c, 9, 35, 0
11, 19500, Note_on_c, 9, 35, 100
11, 19500, Note_on_c, 9, 44, 100
11, 19560, Note_on_c, 9, 44, 0
11, 19560, Note_on_c, 9, 35, 0
11, 19560, Note_on_c, 9, 38, 100
11, 19560, Note_on_c, 9, 44, 100
11, 19620, Note_on_c, 9, 44, 0
11, 19620, Note_on_c, 9, 38, 0
11, 19620, Note_on_c, 9, 44, 100
11, 19675, Note_on_c, 9, 44, 100
11, 19675, Note_on_c, 9, 35, 100
11, 19680, Note_on_c, 9, 44, 0
11, 19735, Note_on_c, 9, 35, 0
11, 19735, Note_on_c, 9, 44, 0
11, 19735, Note_on_c, 9, 44, 100
11, 19795, Note_on_c, 9, 44, 0
11, 19795, Note_on_c, 9, 38, 100
11, 19795, Note_on_c, 9, 44, 100
11, 19855, Note_on_c, 9, 44, 0
11, 19855, Note_on_c, 9, 38, 0
11, 19855, Note_on_c, 9, 44, 100
11, 19915, Note_on_c, 9, 44, 0
11, 19915, Note_on_c, 9, 35, 100
11, 19915, Note_on_c, 9, 44, 100
11, 19975, Note_on_c, 9, 44, 0
11, 19975, Note_on_c, 9, 35, 0
11, 19975, Note_on_c, 9, 35, 100
11, 19975, Note_on_c, 9, 44, 100
11, 20035, Note_on_c, 9, 44, 0
11, 20035, Note_on_c, 9, 35, 0
11, 20035, Note_on_c, 9, 38, 100
11, 20035, Note_on_c, 9, 44, 100
11, 20095, Note_on_c, 9, 44, 0
11, 20095, Note_on_c, 9, 38, 0
11, 20095, Note_on_c, 9, 44, 100
11, 20155, Note_on_c, 9, 44, 0
11, 20155, Note_on_c, 9, 44, 100
11, 20155, Note_on_c, 9, 35, 100
11, 20215, Note_on_c, 9, 35, 0
11, 20215, Note_on_c, 9, 44, 0
11, 20215, Note_on_c, 9, 44, 100
11, 20275, Note_on_c, 9, 44, 0
11, 20275, Note_on_c, 9, 38, 100
11, 20275, Note_on_c, 9, 44, 100
11, 20335, Note_on_c, 9, 44, 0
11, 20335, Note_on_c, 9, 38, 0
11, 20335, Note_on_c, 9, 44, 100
11, 20395, Note_on_c, 9, 44, 0
11, 20395, Note_on_c, 9, 35, 100
11, 20395, Note_on_c, 9, 44, 100
11, 20455, Note_on_c, 9, 44, 0
11, 20455, Note_on_c, 9, 35, 0
11, 20455, Note_on_c, 9, 35, 100
11, 20455, Note_on_c, 9, 44, 100
11, 20515, Note_on_c, 9, 44, 0
11, 20515, Note_on_c, 9, 35, 0
11, 20515, Note_on_c, 9, 38, 100
11, 20515, Note_on_c, 9, 44, 100
11, 20575, Note_on_c, 9, 44, 0
11, 20575, Note_on_c, 9, 38, 0
11, 20575, Note_on_c, 9, 44, 100
11, 20635, Note_on_c, 9, 44, 0
11, 20640, Note_on_c, 9, 49, 100
11, 20640, Note_on_c, 9, 44, 100
11, 20640, Note_on_c, 9, 35, 100
11, 20700, Note_on_c, 9, 35, 0
11, 20700, Note_on_c, 9, 44, 0
11, 20700, Note_on_c, 9, 49, 0
11, 20700, Note_on_c, 9, 44, 100
11, 20760, Note_on_c, 9, 44, 0
11, 20760, Note_on_c, 9, 50, 100
11, 20760, Note_on_c, 9, 38, 100
11, 20760, Note_on_c, 9, 44, 100
11, 20820, Note_on_c, 9, 44, 0
11, 20820, Note_on_c, 9, 38, 0
11, 20820, Note_on_c, 9, 50, 0
11, 20820, Note_on_c, 9, 44, 100
11, 20880, Note_on_c, 9, 44, 0
11, 20880, Note_on_c, 9, 35, 100
11, 20880, Note_on_c, 9, 44, 100
11, 20940, Note_on_c, 9, 44, 0
11, 20940, Note_on_c, 9, 35, 0
11, 20940, Note_on_c, 9, 35, 100
11, 20940, Note_on_c, 9, 44, 100
11, 21000, Note_on_c, 9, 44, 0
11, 21000, Note_on_c, 9, 35, 0
11, 21000, Note_on_c, 9, 50, 100
11, 21000, Note_on_c, 9, 38, 100
11, 21000, Note_on_c, 9, 44, 100
11, 21060, Note_on_c, 9, 44, 0
11, 21060, Note_on_c, 9, 38, 0
11, 21060, Note_on_c, 9, 50, 0
11, 21060, Note_on_c, 9, 44, 100
11, 21115, Note_on_c, 9, 44, 100
11, 21115, Note_on_c, 9, 35, 100
11, 21120, Note_on_c, 9, 44, 0
11, 21175, Note_on_c, 9, 35, 0
11, 21175, Note_on_c, 9, 44, 0
11, 21175, Note_on_c, 9, 44, 100
11, 21235, Note_on_c, 9, 44, 0
11, 21235, Note_on_c, 9, 38, 100
11, 21235, Note_on_c, 9, 44, 100
11, 21240, Note_on_c, 9, 50, 100
11, 21295, Note_on_c, 9, 44, 0
11, 21295, Note_on_c, 9, 38, 0
11, 21295, Note_on_c, 9, 44, 100
11, 21300, Note_on_c, 9, 50, 0
11, 21355, Note_on_c, 9, 44, 0
11, 21355, Note_on_c, 9, 35, 100
11, 21355, Note_on_c, 9, 44, 100
11, 21415, Note_on_c, 9, 44, 0
11, 21415, Note_on_c, 9, 35, 0
11, 21415, Note_on_c, 9, 35, 100
11, 21415, Note_on_c, 9, 44, 100
11, 21475, Note_on_c, 9, 44, 0
11, 21475, Note_on_c, 9, 35, 0
11, 21475, Note_on_c, 9, 38, 100
11, 21475, Note_on_c, 9, 44, 100
11, 21480, Note_on_c, 9, 50, 100
11, 21535, Note_on_c, 9, 44, 0
11, 21535, Note_on_c, 9, 38, 0
11, 21535, Note_on_c, 9, 44, 100
11, 21540, Note_on_c, 9, 50, 0
11, 21595, Note_on_c, 9, 44, 0
11, 21595, Note_on_c, 9, 44, 100
11, 21595, Note_on_c, 9, 35, 100
11, 21655, Note_on_c, 9, 35, 0
11, 21655, Note_on_c, 9, 44, 0
11, 21655, Note_on_c, 9, 44, 100
11, 21715, Note_on_c, 9, 44, 0
11, 21715, Note_on_c, 9, 38, 100
11, 21715, Note_on_c, 9, 44, 100
11, 21720, Note_on_c, 9, 50, 100
11, 21775, Note_on_c, 9, 44, 0
11, 21775, Note_on_c, 9, 38, 0
11, 21775, Note_on_c, 9, 44, 100
11, 21780, Note_on_c, 9, 50, 0
11, 21835, Note_on_c, 9, 44, 0
11, 21835, Note_on_c, 9, 35, 100
11, 21835, Note_on_c, 9, 44, 100
11, 21895, Note_on_c, 9, 44, 0
11, 21895, Note_on_c, 9, 35, 0
11, 21895, Note_on_c, 9, 35, 100
11, 21895, Note_on_c, 9, 44, 100
11, 21955, Note_on_c, 9, 44, 0
11, 21955, Note_on_c, 9, 35, 0
11, 21955, Note_on_c, 9, 38, 100
11, 21955, Note_on_c, 9, 44, 100
11, 21960, Note_on_c, 9, 50, 100
11, 22015, Note_on_c, 9, 44, 0
11, 22015, Note_on_c, 9, 38, 0
11, 22015, Note_on_c, 9, 44, 100
11, 22020, Note_on_c, 9, 50, 0
11, 22075, Note_on_c, 9, 44, 0
11, 22075, Note_on_c, 9, 44, 100
11, 22075, Note_on_c, 9, 35, 100
11, 22135, Note_on_c, 9, 35, 0
11, 22135, Note_on_c, 9, 44, 0
11, 22135, Note_on_c, 9, 44, 100
11, 22195, Note_on_c, 9, 44, 0
11, 22195, Note_on_c, 9, 38, 100
11, 22195, Note_on_c, 9, 44, 100
11, 22200, Note_on_c, 9, 50, 100
11, 22255, Note_on_c, 9, 44, 0
11, 22255, Note_on_c, 9, 38, 0
11, 22255, Note_on_c, 9, 44, 100
11, 22260, Note_on_c, 9, 50, 0
11, 22315, Note_on_c, 9, 44, 0
11, 22315, Note_on_c, 9, 35, 100
11, 22315, Note_on_c, 9, 44, 100
11, 22375, Note_on_c, 9, 44, 0
11, 22375, Note_on_c, 9, 35, 0
11, 22375, Note_on_c, 9, 35, 100
11, 22375, Note_on_c, 9, 44, 100
11, 22435, Note_on_c, 9, 44, 0
11, 22435, Note_on_c, 9, 35, 0
11, 22435, Note_on_c, 9, 38, 100
11, 22435, Note_on_c, 9, 44, 100
11, 22440, Note_on_c, 9, 50, 100
11, 22495, Note_on_c, 9, 44, 0
11, 22495, Note_on_c, 9, 38, 0
11, 22495, Note_on_c, 9, 44, 100
11, 22500, Note_on_c, 9, 50, 0
11, 22555, Note_on_c, 9, 44, 0
11, 22560, Note_on_c, 9, 49, 100
11, 22560, Note_on_c, 9, 44, 100
11, 22560, Note_on_c, 9, 35, 100
11, 22620, Note_on_c, 9, 35, 0
11, 22620, Note_on_c, 9, 44, 0
11, 22620, Note_on_c, 9, 49, 0
11, 22620, Note_on_c, 9, 44, 100
11, 22680, Note_on_c, 9, 44, 0
11, 22680, Note_on_c, 9, 50, 100
11, 22680, Note_on_c, 9, 38, 100
11, 22680, Note_on_c, 9, 44, 100
11, 22740, Note_on_c, 9, 44, 0
11, 22740, Note_on_c, 9, 38, 0
11, 22740, Note_on_c, 9, 50, 0
11, 22740, Note_on_c, 9, 44, 100
11, 22800, Note_on_c, 9, 44, 0
11, 22800, Note_on_c, 9, 35, 100
11, 22800, Note_on_c, 9, 44, 100
11, 22860, Note_on_c, 9, 44, 0
11, 22860, Note_on_c, 9, 35, 0
11, 22860, Note_on_c, 9, 35, 100
11, 22860, Note_on_c, 9, 44, 100
11, 22920, Note_on_c, 9, 44, 0
11, 22920, Note_on_c, 9, 35, 0
11, 22920, Note_on_c, 9, 50, 100
11, 22920, Note_on_c, 9, 38, 100
11, 22920, Note_on_c, 9, 44, 100
11, 22980, Note_on_c, 9, 44, 0
11, 22980, Note_on_c, 9, 38, 0
11, 22980, Note_on_c, 9, 50, 0
11, 22980, Note_on_c, 9, 44, 100
11, 23040, Note_on_c, 9, 44, 0
11, 23040, Note_on_c, 9, 44, 100
11, 23040, Note_on_c, 9, 35, 100
11, 23100, Note_on_c, 9, 35, 0
11, 23100, Note_on_c, 9, 44, 0
11, 23100, Note_on_c, 9, 44, 100
11, 23160, Note_on_c, 9, 44, 0
11, 23160, Note_on_c, 9, 50, 100
11, 23160, Note_on_c, 9, 38, 100
11, 23160, Note_on_c, 9, 44, 100
11, 23220, Note_on_c, 9, 44, 0
11, 23220, Note_on_c, 9, 38, 0
11, 23220, Note_on_c, 9, 50, 0
11, 23220, Note_on_c, 9, 44, 100
11, 23280, Note_on_c, 9, 44, 0
11, 23280, Note_on_c, 9, 35, 100
11, 23280, Note_on_c, 9, 44, 100
11, 23340, Note_on_c, 9, 44, 0
11, 23340, Note_on_c, 9, 35, 0
11, 23340, Note_on_c, 9, 35, 100
11, 23340, Note_on_c, 9, 44, 100
11, 23400, Note_on_c, 9, 44, 0
11, 23400, Note_on_c, 9, 35, 0
11, 23400, Note_on_c, 9, 50, 100
11, 23400, Note_on_c, 9, 38, 100
11, 23400, Note_on_c, 9, 44, 100
11, 23460, Note_on_c, 9, 44, 0
11, 23460, Note_on_c, 9, 38, 0
11, 23460, Note_on_c, 9, 50, 0
11, 23460, Note_on_c, 9, 35, 100
11, 23460, Note_on_c, 9, 44, 100
11, 23520, Note_on_c, 9, 44, 0
11, 23520, Note_on_c, 9, 35, 0
11, 23520, Note_on_c, 9, 49, 100
11, 23520, Note_on_c, 9, 44, 100
11, 23520, Note_on_c, 9, 35, 100
11, 23580, Note_on_c, 9, 35, 0
11, 23580, Note_on_c, 9, 44, 0
11, 23580, Note_on_c, 9, 44, 100
11, 23640, Note_on_c, 9, 44, 0
11, 23640, Note_on_c, 9, 49, 0
11, 23640, Note_on_c, 9, 38, 100
11, 23640, Note_on_c, 9, 44, 100
11, 23700, Note_on_c, 9, 44, 0
11, 23700, Note_on_c, 9, 38, 0
11, 23700, Note_on_c, 9, 44, 100
11, 23760, Note_on_c, 9, 44, 0
11, 23760, Note_on_c, 9, 44, 100
11, 23760, Note_on_c, 9, 35, 100
11, 23820, Note_on_c, 9, 35, 0
11, 23820, Note_on_c, 9, 44, 0
11, 23820, Note_on_c, 9, 35, 100
11, 23820, Note_on_c, 9, 44, 100
11, 23880, Note_on_c, 9, 44, 0
11, 23880, Note_on_c, 9, 35, 0
11, 23880, Note_on_c, 9, 35, 100
11, 23880, Note_on_c, 9, 40, 100
11, 23940, Note_on_c, 9, 40, 0
11, 23940, Note_on_c, 9, 35, 0
11, 23940, Note_on_c, 9, 35, 100
11, 23940, Note_on_c, 9, 49, 100
11, 24000, Note_on_c, 9, 49, 0
11, 24000, Note_on_c, 9, 35, 0
11, 24960, Note_on_c, 9, 35, 100
11, 24960, Note_on_c, 9, 49, 100
11, 24960, Note_on_c, 9, 59, 100
11, 25020, Note_on_c, 9, 59, 0
11, 25020, Note_on_c, 9, 49, 0
11, 25020, Note_on_c, 9, 35, 0
11, 25020, Note_on_c, 9, 59, 100
11, 25080, Note_on_c, 9, 59, 0
11, 25080, Note_on_c, 9, 38, 100
11, 25080, Note_on_c, 9, 59, 100
11, 25140, Note_on_c, 9, 59, 0
11, 25140, Note_on_c, 9, 38, 0
11, 25140, Note_on_c, 9, 59, 100
11, 25200, Note_on_c, 9, 59, 0
11, 25200, Note_on_c, 9, 35, 100
11, 25200, Note_on_c, 9, 59, 100
11, 25260, Note_on_c, 9, 59, 0
11, 25260, Note_on_c, 9, 35, 0
11, 25260, Note_on_c, 9, 59, 100
11, 25260, Note_on_c, 9, 35, 100
11, 25320, Note_on_c, 9, 35, 0
11, 25320, Note_on_c, 9, 59, 0
11, 25320, Note_on_c, 9, 38, 100
11, 25320, Note_on_c, 9, 59, 100
11, 25380, Note_on_c, 9, 59, 0
11, 25380, Note_on_c, 9, 38, 0
11, 25380, Note_on_c, 9, 59, 100
11, 25440, Note_on_c, 9, 59, 0
11, 25440, Note_on_c, 9, 35, 100
11, 25440, Note_on_c, 9, 59, 100
11, 25500, Note_on_c, 9, 59, 0
11, 25500, Note_on_c, 9, 35, 0
11, 25500, Note_on_c, 9, 59, 100
11, 25560, Note_on_c, 9, 59, 0
11, 25560, Note_on_c, 9, 38, 100
11, 25560, Note_on_c, 9, 59, 100
11, 25620, Note_on_c, 9, 59, 0
11, 25620, Note_on_c, 9, 38, 0
11, 25620, Note_on_c, 9, 59, 100
11, 25680, Note_on_c, 9, 59, 0
11, 25680, Note_on_c, 9, 35, 100
11, 25680, Note_on_c, 9, 59, 100
11, 25740, Note_on_c, 9, 59, 0
11, 25740, Note_on_c, 9, 35, 0
11, 25740, Note_on_c, 9, 54, 100
11, 25740, Note_on_c, 9, 38, 100
11, 25740, Note_on_c, 9, 35, 100
11, 25740, Note_on_c, 9, 59, 100
11, 25800, Note_on_c, 9, 59, 0
11, 25800, Note_on_c, 9, 54, 0
11, 25800, Note_on_c, 9, 38, 0
11, 25800, Note_on_c, 9, 35, 0
11, 25800, Note_on_c, 9, 59, 100
11, 25800, Note_on_c, 9, 35, 100
11, 25800, Note_on_c, 9, 54, 100
11, 25800, Note_on_c, 9, 38, 100
11, 25860, Note_on_c, 9, 38, 0
11, 25860, Note_on_c, 9, 59, 0
11, 25860, Note_on_c, 9, 35, 0
11, 25860, Note_on_c, 9, 54, 0
11, 25860, Note_on_c, 9, 59, 100
11, 25860, Note_on_c, 9, 54, 100
11, 25860, Note_on_c, 9, 35, 100
11, 25860, Note_on_c, 9, 38, 100
11, 25920, Note_on_c, 9, 38, 0
11, 25920, Note_on_c, 9, 59, 0
11, 25920, Note_on_c, 9, 54, 0
11, 25920, Note_on_c, 9, 35, 0
11, 25920, Note_on_c, 9, 35, 100
11, 25920, Note_on_c, 9, 49, 100
11, 25920, Note_on_c, 9, 59, 100
11, 25980, Note_on_c, 9, 59, 0
11, 25980, Note_on_c, 9, 49, 0
11, 25980, Note_on_c, 9, 35, 0
11, 25980, Note_on_c, 9, 59, 100
11, 26040, Note_on_c, 9, 59, 0
11, 26040, Note_on_c, 9, 59, 100
11, 26040, Note_on_c, 9, 38, 100
11, 26100, Note_on_c, 9, 38, 0
11, 26100, Note_on_c, 9, 59, 0
11, 26100, Note_on_c, 9, 59, 100
11, 26160, Note_on_c, 9, 59, 0
11, 26160, Note_on_c, 9, 35, 100
11, 26160, Note_on_c, 9, 59, 100
11, 26220, Note_on_c, 9, 59, 0
11, 26220, Note_on_c, 9, 35, 0
11, 26220, Note_on_c, 9, 59, 100
11, 26220, Note_on_c, 9, 35, 100
11, 26280, Note_on_c, 9, 35, 0
11, 26280, Note_on_c, 9, 59, 0
11, 26280, Note_on_c, 9, 38, 100
11, 26280, Note_on_c, 9, 59, 100
11, 26340, Note_on_c, 9, 59, 0
11, 26340, Note_on_c, 9, 38, 0
11, 26340, Note_on_c, 9, 59, 100
11, 26400, Note_on_c, 9, 59, 0
11, 26400, Note_on_c, 9, 35, 100
11, 26400, Note_on_c, 9, 59, 100
11, 26460, Note_on_c, 9, 59, 0
11, 26460, Note_on_c, 9, 35, 0
11, 26460, Note_on_c, 9, 59, 100
11, 26520, Note_on_c, 9, 59, 0
11, 26520, Note_on_c, 9, 38, 100
11, 26520, Note_on_c, 9, 59, 100
11, 26580, Note_on_c, 9, 59, 0
11, 26580, Note_on_c, 9, 38, 0
11, 26580, Note_on_c, 9, 59, 100
11, 26640, Note_on_c, 9, 59, 0
11, 26640, Note_on_c, 9, 35, 100
11, 26640, Note_on_c, 9, 59, 100
11, 26700, Note_on_c, 9, 59, 0
11, 26700, Note_on_c, 9, 35, 0
11, 26700, Note_on_c, 9, 35, 100
11, 26700, Note_on_c, 9, 59, 100
11, 26760, Note_on_c, 9, 59, 0
11, 26760, Note_on_c, 9, 35, 0
11, 26760, Note_on_c, 9, 59, 100
11, 26760, Note_on_c, 9, 38, 100
11, 26820, Note_on_c, 9, 38, 0
11, 26820, Note_on_c, 9, 59, 0
11, 26820, Note_on_c, 9, 59, 100
11, 26880, Note_on_c, 9, 59, 0
11, 26880, Note_on_c, 9, 35, 100
11, 26880, Note_on_c, 9, 49, 100
11, 26880, Note_on_c, 9, 59, 100
11, 26940, Note_on_c, 9, 59, 0
11, 26940, Note_on_c, 9, 49, 0
11, 26940, Note_on_c, 9, 35, 0
11, 26940, Note_on_c, 9, 59, 100
11, 27000, Note_on_c, 9, 59, 0
11, 27000, Note_on_c, 9, 38, 100
11, 27000, Note_on_c, 9, 59, 100
11, 27060, Note_on_c, 9, 59, 0
11, 27060, Note_on_c, 9, 38, 0
11, 27060, Note_on_c, 9, 59, 100
11, 27120, Note_on_c, 9, 59, 0
11, 27120, Note_on_c, 9, 35, 100
11, 27120, Note_on_c, 9, 59, 100
11, 27180, Note_on_c, 9, 59, 0
11, 27180, Note_on_c, 9, 35, 0
11, 27180, Note_on_c, 9, 35, 100
11, 27180, Note_on_c, 9, 59, 100
11, 27240, Note_on_c, 9, 59, 0
11, 27240, Note_on_c, 9, 35, 0
11, 27240, Note_on_c, 9, 38, 100
11, 27240, Note_on_c, 9, 59, 100
11, 27300, Note_on_c, 9, 59, 0
11, 27300, Note_on_c, 9, 38, 0
11, 27300, Note_on_c, 9, 59, 100
11, 27360, Note_on_c, 9, 59, 0
11, 27360, Note_on_c, 9, 35, 100
11, 27360, Note_on_c, 9, 59, 100
11, 27420, Note_on_c, 9, 59, 0
11, 27420, Note_on_c, 9, 35, 0
11, 27420, Note_on_c, 9, 59, 100
11, 27480, Note_on_c, 9, 59, 0
11, 27480, Note_on_c, 9, 59, 100
11, 27480, Note_on_c, 9, 38, 100
11, 27540, Note_on_c, 9, 38, 0
11, 27540, Note_on_c, 9, 59, 0
11, 27540, Note_on_c, 9, 59, 100
11, 27600, Note_on_c, 9, 59, 0
11, 27600, Note_on_c, 9, 35, 100
11, 27600, Note_on_c, 9, 59, 100
11, 27660, Note_on_c, 9, 59, 0
11, 27660, Note_on_c, 9, 35, 0
11, 27660, Note_on_c, 9, 35, 100
11, 27660, Note_on_c, 9, 54, 100
11, 27660, Note_on_c, 9, 59, 100
11, 27660, Note_on_c, 9, 38, 100
11, 27720, Note_on_c, 9, 38, 0
11, 27720, Note_on_c, 9, 35, 0
11, 27720, Note_on_c, 9, 54, 0
11, 27720, Note_on_c, 9, 59, 0
11, 27720, Note_on_c, 9, 38, 100
11, 27720, Note_on_c, 9, 35, 100
11, 27720, Note_on_c, 9, 54, 100
11, 27720, Note_on_c, 9, 59, 100
11, 27780, Note_on_c, 9, 59, 0
11, 27780, Note_on_c, 9, 38, 0
11, 27780, Note_on_c, 9, 35, 0
11, 27780, Note_on_c, 9, 54, 0
11, 27780, Note_on_c, 9, 59, 100
11, 27780, Note_on_c, 9, 38, 100
11, 27780, Note_on_c, 9, 35, 100
11, 27780, Note_on_c, 9, 54, 100
11, 27840, Note_on_c, 9, 54, 0
11, 27840, Note_on_c, 9, 59, 0
11, 27840, Note_on_c, 9, 38, 0
11, 27840, Note_on_c, 9, 35, 0
11, 27840, Note_on_c, 9, 35, 100
11, 27840, Note_on_c, 9, 59, 100
11, 27840, Note_on_c, 9, 49, 100
11, 27900, Note_on_c, 9, 49, 0
11, 27900, Note_on_c, 9, 59, 0
11, 27900, Note_on_c, 9, 35, 0
11, 27900, Note_on_c, 9, 59, 100
11, 27960, Note_on_c, 9, 59, 0
11, 27960, Note_on_c, 9, 38, 100
11, 27960, Note_on_c, 9, 59, 100
11, 28020, Note_on_c, 9, 59, 0
11, 28020, Note_on_c, 9, 38, 0
11, 28020, Note_on_c, 9, 59, 100
11, 28080, Note_on_c, 9, 59, 0
11, 28080, Note_on_c, 9, 35, 100
11, 28080, Note_on_c, 9, 59, 100
11, 28140, Note_on_c, 9, 59, 0
11, 28140, Note_on_c, 9, 35, 0
11, 28140, Note_on_c, 9, 35, 100
11, 28140, Note_on_c, 9, 59, 100
11, 28200, Note_on_c, 9, 59, 0
11, 28200, Note_on_c, 9, 35, 0
11, 28200, Note_on_c, 9, 59, 100
11, 28200, Note_on_c, 9, 38, 100
11, 28260, Note_on_c, 9, 38, 0
11, 28260, Note_on_c, 9, 59, 0
11, 28260, Note_on_c, 9, 59, 100
11, 28320, Note_on_c, 9, 59, 0
11, 28320, Note_on_c, 9, 35, 100
11, 28320, Note_on_c, 9, 59, 100
11, 28380, Note_on_c, 9, 59, 0
11, 28380, Note_on_c, 9, 35, 0
11, 28380, Note_on_c, 9, 59, 100
11, 28440, Note_on_c, 9, 59, 0
11, 28440, Note_on_c, 9, 38, 100
11, 28440, Note_on_c, 9, 59, 100
11, 28500, Note_on_c, 9, 59, 0
11, 28500, Note_on_c, 9, 38, 0
11, 28500, Note_on_c, 9, 59, 100
11, 28560, Note_on_c, 9, 59, 0
11, 28560, Note_on_c, 9, 35, 100
11, 28560, Note_on_c, 9, 59, 100
11, 28620, Note_on_c, 9, 59, 0
11, 28620, Note_on_c, 9, 35, 0
11, 28620, Note_on_c, 9, 59, 100
11, 28620, Note_on_c, 9, 35, 100
11, 28680, Note_on_c, 9, 35, 0
11, 28680, Note_on_c, 9, 59, 0
11, 28680, Note_on_c, 9, 38, 100
11, 28680, Note_on_c, 9, 59, 100
11, 28740, Note_on_c, 9, 59, 0
11, 28740, Note_on_c, 9, 38, 0
11, 28740, Note_on_c, 9, 59, 100
11, 28800, Note_on_c, 9, 59, 0
11, 28800, Note_on_c, 9, 59, 100
11, 28800, Note_on_c, 9, 35, 100
11, 28860, Note_on_c, 9, 35, 0
11, 28860, Note_on_c, 9, 59, 0
11, 28860, Note_on_c, 9, 59, 100
11, 28920, Note_on_c, 9, 59, 0
11, 28920, Note_on_c, 9, 38, 100
11, 28920, Note_on_c, 9, 59, 100
11, 28980, Note_on_c, 9, 59, 0
11, 28980, Note_on_c, 9, 38, 0
11, 28980, Note_on_c, 9, 59, 100
11, 29040, Note_on_c, 9, 59, 0
11, 29040, Note_on_c, 9, 59, 100
11, 29040, Note_on_c, 9, 35, 100
11, 29100, Note_on_c, 9, 35, 0
11, 29100, Note_on_c, 9, 59, 0
11, 29100, Note_on_c, 9, 59, 100
11, 29100, Note_on_c, 9, 35, 100
11, 29160, Note_on_c, 9, 35, 0
11, 29160, Note_on_c, 9, 59, 0
11, 29160, Note_on_c, 9, 38, 100
11, 29160, Note_on_c, 9, 59, 100
11, 29220, Note_on_c, 9, 59, 0
11, 29220, Note_on_c, 9, 38, 0
11, 29220, Note_on_c, 9, 59, 100
11, 29280, Note_on_c, 9, 59, 0
11, 29280, Note_on_c, 9, 35, 100
11, 29280, Note_on_c, 9, 59, 100
11, 29340, Note_on_c, 9, 59, 0
11, 29340, Note_on_c, 9, 35, 0
11, 29340, Note_on_c, 9, 59, 100
11, 29400, Note_on_c, 9, 59, 0
11, 29400, Note_on_c, 9, 38, 100
11, 29400, Note_on_c, 9, 59, 100
11, 29460, Note_on_c, 9, 59, 0
11, 29460, Note_on_c, 9, 38, 0
11, 29460, Note_on_c, 9, 59, 100
11, 29520, Note_on_c, 9, 59, 0
11, 29520, Note_on_c, 9, 35, 100
11, 29520, Note_on_c, 9, 59, 100
11, 29580, Note_on_c, 9, 59, 0
11, 29580, Note_on_c, 9, 35, 0
11, 29580, Note_on_c, 9, 59, 100
11, 29580, Note_on_c, 9, 35, 100
11, 29640, Note_on_c, 9, 35, 0
11, 29640, Note_on_c, 9, 59, 0
11, 29640, Note_on_c, 9, 38, 100
11, 29640, Note_on_c, 9, 59, 100
11, 29700, Note_on_c, 9, 59, 0
11, 29700, Note_on_c, 9, 38, 0
11, 29700, Note_on_c, 9, 59, 100
11, 29755, Note_on_c, 9, 59, 100
11, 29755, Note_on_c, 9, 35, 100
11, 29760, Note_on_c, 9, 59, 0
11, 29815, Note_on_c, 9, 35, 0
11, 29815, Note_on_c, 9, 59, 0
11, 29815, Note_on_c, 9, 59, 100
11, 29875, Note_on_c, 9, 59, 0
11, 29875, Note_on_c, 9, 38, 100
11, 29875, Note_on_c, 9, 59, 100
11, 29935, Note_on_c, 9, 59, 0
11, 29935, Note_on_c, 9, 38, 0
11, 29935, Note_on_c, 9, 59, 100
11, 29995, Note_on_c, 9, 59, 0
11, 29995, Note_on_c, 9, 35, 100
11, 29995, Note_on_c, 9, 59, 100
11, 30055, Note_on_c, 9, 59, 0
11, 30055, Note_on_c, 9, 35, 0
11, 30055, Note_on_c, 9, 35, 100
11, 30055, Note_on_c, 9, 59, 100
11, 30090, Control_c, 9, 7, 104
11, 30115, Note_on_c, 9, 59, 0
11, 30115, Note_on_c, 9, 35, 0
11, 30115, Note_on_c, 9, 38, 100
11, 30115, Note_on_c, 9, 59, 100
11, 30175, Note_on_c, 9, 59, 0
11, 30175, Note_on_c, 9, 38, 0
11, 30175, Note_on_c, 9, 59, 100
11, 30180, Control_c, 9, 7, 105
11, 30200, Control_c, 9, 7, 106
11, 30235, Note_on_c, 9, 59, 0
11, 30235, Note_on_c, 9, 59, 100
11, 30235, Note_on_c, 9, 35, 100
11, 30295, Note_on_c, 9, 35, 0
11, 30295, Note_on_c, 9, 59, 0
11, 30295, Note_on_c, 9, 59, 100
11, 30355, Note_on_c, 9, 59, 0
11, 30355, Note_on_c, 9, 38, 100
11, 30355, Note_on_c, 9, 59, 100
11, 30415, Note_on_c, 9, 59, 0
11, 30415, Note_on_c, 9, 38, 0
11, 30415, Note_on_c, 9, 59, 100
11, 30475, Note_on_c, 9, 59, 0
11, 30475, Note_on_c, 9, 59, 100
11, 30475, Note_on_c, 9, 35, 100
11, 30535, Note_on_c, 9, 35, 0
11, 30535, Note_on_c, 9, 59, 0
11, 30535, Note_on_c, 9, 59, 100
11, 30535, Note_on_c, 9, 35, 100
11, 30595, Note_on_c, 9, 35, 0
11, 30595, Note_on_c, 9, 59, 0
11, 30595, Note_on_c, 9, 59, 100
11, 30595, Note_on_c, 9, 38, 100
11, 30655, Note_on_c, 9, 38, 0
11, 30655, Note_on_c, 9, 59, 0
11, 30655, Note_on_c, 9, 59, 100
11, 30715, Note_on_c, 9, 59, 0
11, 30720, Note_on_c, 9, 35, 100
11, 30720, Note_on_c, 9, 44, 100
11, 30720, Note_on_c, 9, 49, 100
11, 30780, Note_on_c, 9, 49, 0
11, 30780, Note_on_c, 9, 44, 0
11, 30780, Note_on_c, 9, 35, 0
11, 30780, Note_on_c, 9, 44, 100
11, 30840, Note_on_c, 9, 44, 0
11, 30840, Note_on_c, 9, 44, 100
11, 30840, Note_on_c, 9, 38, 100
11, 30840, Note_on_c, 9, 50, 100
11, 30900, Note_on_c, 9, 50, 0
11, 30900, Note_on_c, 9, 38, 0
11, 30900, Note_on_c, 9, 44, 0
11, 30900, Note_on_c, 9, 44, 100
11, 30960, Note_on_c, 9, 44, 0
11, 30960, Note_on_c, 9, 35, 100
11, 30960, Note_on_c, 9, 44, 100
11, 31020, Note_on_c, 9, 44, 0
11, 31020, Note_on_c, 9, 35, 0
11, 31020, Note_on_c, 9, 35, 100
11, 31020, Note_on_c, 9, 44, 100
11, 31080, Note_on_c, 9, 44, 0
11, 31080, Note_on_c, 9, 35, 0
11, 31080, Note_on_c, 9, 44, 100
11, 31080, Note_on_c, 9, 38, 100
11, 31080, Note_on_c, 9, 50, 100
11, 31140, Note_on_c, 9, 50, 0
11, 31140, Note_on_c, 9, 38, 0
11, 31140, Note_on_c, 9, 44, 0
11, 31140, Note_on_c, 9, 44, 100
11, 31195, Note_on_c, 9, 44, 100
11, 31195, Note_on_c, 9, 35, 100
11, 31200, Note_on_c, 9, 44, 0
11, 31255, Note_on_c, 9, 35, 0
11, 31255, Note_on_c, 9, 44, 0
11, 31255, Note_on_c, 9, 44, 100
11, 31315, Note_on_c, 9, 44, 0
11, 31315, Note_on_c, 9, 38, 100
11, 31315, Note_on_c, 9, 44, 100
11, 31320, Note_on_c, 9, 50, 100
11, 31375, Note_on_c, 9, 44, 0
11, 31375, Note_on_c, 9, 38, 0
11, 31375, Note_on_c, 9, 44, 100
11, 31380, Note_on_c, 9, 50, 0
11, 31435, Note_on_c, 9, 44, 0
11, 31435, Note_on_c, 9, 35, 100
11, 31435, Note_on_c, 9, 44, 100
11, 31495, Note_on_c, 9, 44, 0
11, 31495, Note_on_c, 9, 35, 0
11, 31495, Note_on_c, 9, 35, 100
11, 31495, Note_on_c, 9, 44, 100
11, 31555, Note_on_c, 9, 44, 0
11, 31555, Note_on_c, 9, 35, 0
11, 31555, Note_on_c, 9, 38, 100
11, 31555, Note_on_c, 9, 44, 100
11, 31560, Note_on_c, 9, 50, 100
11, 31615, Note_on_c, 9, 44, 0
11, 31615, Note_on_c, 9, 38, 0
11, 31615, Note_on_c, 9, 44, 100
11, 31620, Note_on_c, 9, 50, 0
11, 31675, Note_on_c, 9, 44, 0
11, 31675, Note_on_c, 9, 44, 100
11, 31675, Note_on_c, 9, 35, 100
11, 31735, Note_on_c, 9, 35, 0
11, 31735, Note_on_c, 9, 44, 0
11, 31735, Note_on_c, 9, 44, 100
11, 31795, Note_on_c, 9, 44, 0
11, 31795, Note_on_c, 9, 38, 100
11, 31795, Note_on_c, 9, 44, 100
11, 31800, Note_on_c, 9, 50, 100
11, 31855, Note_on_c, 9, 44, 0
11, 31855, Note_on_c, 9, 38, 0
11, 31855, Note_on_c, 9, 44, 100
11, 31860, Note_on_c, 9, 50, 0
11, 31915, Note_on_c, 9, 44, 0
11, 31915, Note_on_c, 9, 35, 100
11, 31915, Note_on_c, 9, 44, 100
11, 31975, Note_on_c, 9, 44, 0
11, 31975, Note_on_c, 9, 35, 0
11, 31975, Note_on_c, 9, 35, 100
11, 31975, Note_on_c, 9, 44, 100
11, 32035, Note_on_c, 9, 44, 0
11, 32035, Note_on_c, 9, 35, 0
11, 32035, Note_on_c, 9, 38, 100
11, 32035, Note_on_c, 9, 44, 100
11, 32040, Note_on_c, 9, 50, 100
11, 32095, Note_on_c, 9, 44, 0
11, 32095, Note_on_c, 9, 38, 0
11, 32095, Note_on_c, 9, 44, 100
11, 32100, Note_on_c, 9, 50, 0
11, 32155, Note_on_c, 9, 44, 0
11, 32155, Note_on_c, 9, 44, 100
11, 32155, Note_on_c, 9, 35, 100
11, 32215, Note_on_c, 9, 35, 0
11, 32215, Note_on_c, 9, 44, 0
11, 32215, Note_on_c, 9, 44, 100
11, 32275, Note_on_c, 9, 44, 0
11, 32275, Note_on_c, 9, 38, 100
11, 32275, Note_on_c, 9, 44, 100
11, 32280, Note_on_c, 9, 50, 100
11, 32335, Note_on_c, 9, 44, 0
11, 32335, Note_on_c, 9, 38, 0
11, 32335, Note_on_c, 9, 44, 100
11, 32340, Note_on_c, 9, 50, 0
11, 32395, Note_on_c, 9, 44, 0
11, 32395, Note_on_c, 9, 35, 100
11, 32395, Note_on_c, 9, 44, 100
11, 32455, Note_on_c, 9, 44, 0
11, 32455, Note_on_c, 9, 35, 0
11, 32455, Note_on_c, 9, 35, 100
11, 32455, Note_on_c, 9, 44, 100
11, 32515, Note_on_c, 9, 44, 0
11, 32515, Note_on_c, 9, 35, 0
11, 32515, Note_on_c, 9, 44, 100
11, 32515, Note_on_c, 9, 38, 100
11, 32520, Note_on_c, 9, 50, 100
11, 32575, Note_on_c, 9, 38, 0
11, 32575, Note_on_c, 9, 44, 0
11, 32575, Note_on_c, 9, 44, 100
11, 32580, Note_on_c, 9, 50, 0
11, 32635, Note_on_c, 9, 44, 0
11, 32640, Note_on_c, 9, 49, 100
11, 32640, Note_on_c, 9, 44, 100
11, 32640, Note_on_c, 9, 35, 100
11, 32700, Note_on_c, 9, 35, 0
11, 32700, Note_on_c, 9, 44, 0
11, 32700, Note_on_c, 9, 49, 0
11, 32700, Note_on_c, 9, 44, 100
11, 32760, Note_on_c, 9, 44, 0
11, 32760, Note_on_c, 9, 50, 100
11, 32760, Note_on_c, 9, 38, 100
11, 32760, Note_on_c, 9, 44, 100
11, 32820, Note_on_c, 9, 44, 0
11, 32820, Note_on_c, 9, 38, 0
11, 32820, Note_on_c, 9, 50, 0
11, 32820, Note_on_c, 9, 44, 100
11, 32880, Note_on_c, 9, 44, 0
11, 32880, Note_on_c, 9, 35, 100
11, 32880, Note_on_c, 9, 44, 100
11, 32940, Note_on_c, 9, 44, 0
11, 32940, Note_on_c, 9, 35, 0
11, 32940, Note_on_c, 9, 35, 100
11, 32940, Note_on_c, 9, 44, 100
11, 33000, Note_on_c, 9, 44, 0
11, 33000, Note_on_c, 9, 35, 0
11, 33000, Note_on_c, 9, 50, 100
11, 33000, Note_on_c, 9, 38, 100
11, 33000, Note_on_c, 9, 44, 100
11, 33060, Note_on_c, 9, 44, 0
11, 33060, Note_on_c, 9, 38, 0
11, 33060, Note_on_c, 9, 50, 0
11, 33060, Note_on_c, 9, 44, 100
11, 33120, Note_on_c, 9, 44, 0
11, 33120, Note_on_c, 9, 44, 100
11, 33120, Note_on_c, 9, 35, 100
11, 33180, Note_on_c, 9, 35, 0
11, 33180, Note_on_c, 9, 44, 0
11, 33180, Note_on_c, 9, 44, 100
11, 33240, Note_on_c, 9, 44, 0
11, 33240, Note_on_c, 9, 50, 100
11, 33240, Note_on_c, 9, 38, 100
11, 33240, Note_on_c, 9, 44, 100
11, 33300, Note_on_c, 9, 44, 0
11, 33300, Note_on_c, 9, 38, 0
11, 33300, Note_on_c, 9, 50, 0
11, 33300, Note_on_c, 9, 44, 100
11, 33360, Note_on_c, 9, 44, 0
11, 33360, Note_on_c, 9, 35, 100
11, 33360, Note_on_c, 9, 44, 100
11, 33420, Note_on_c, 9, 44, 0
11, 33420, Note_on_c, 9, 35, 0
11, 33420, Note_on_c, 9, 35, 100
11, 33420, Note_on_c, 9, 44, 100
11, 33480, Note_on_c, 9, 44, 0
11, 33480, Note_on_c, 9, 35, 0
11, 33480, Note_on_c, 9, 50, 100
11, 33480, Note_on_c, 9, 38, 100
11, 33480, Note_on_c, 9, 44, 100
11, 33540, Note_on_c, 9, 44, 0
11, 33540, Note_on_c, 9, 38, 0
11, 33540, Note_on_c, 9, 50, 0
11, 33540, Note_on_c, 9, 35, 100
11, 33540, Note_on_c, 9, 44, 100
11, 33600, Note_on_c, 9, 44, 0
11, 33600, Note_on_c, 9, 35, 0
11, 33600, Note_on_c, 9, 44, 100
11, 33600, Note_on_c, 9, 49, 100
11, 33600, Note_on_c, 9, 35, 100
11, 33660, Note_on_c, 9, 35, 0
11, 33660, Note_on_c, 9, 44, 0
11, 33660, Note_on_c, 9, 44, 100
11, 33720, Note_on_c, 9, 44, 0
11, 33720, Note_on_c, 9, 49, 0
11, 33720, Note_on_c, 9, 44, 100
11, 33720, Note_on_c, 9, 38, 100
11, 33780, Note_on_c, 9, 38, 0
11, 33780, Note_on_c, 9, 44, 0
11, 33780, Note_on_c, 9, 44, 100
11, 33840, Note_on_c, 9, 44, 0
11, 33840, Note_on_c, 9, 44, 100
11, 33840, Note_on_c, 9, 35, 100
11, 33900, Note_on_c, 9, 35, 0
11, 33900, Note_on_c, 9, 44, 0
11, 33900, Note_on_c, 9, 35, 100
11, 33900, Note_on_c, 9, 44, 100
11, 33960, Note_on_c, 9, 44, 0
11, 33960, Note_on_c, 9, 35, 0
11, 33960, Note_on_c, 9, 35, 100
11, 33960, Note_on_c, 9, 40, 100
11, 34020, Note_on_c, 9, 40, 0
11, 34020, Note_on_c, 9, 35, 0
11, 34020, Note_on_c, 9, 35, 100
11, 34020, Note_on_c, 9, 49, 100
11, 34080, Note_on_c, 9, 49, 0
11, 34080, Note_on_c, 9, 35, 0
11, 34140, Note_on_c, 9, 38, 100
11, 34200, Note_on_c, 9, 38, 0
11, 34260, Note_on_c, 9, 38, 100
11, 34320, Note_on_c, 9, 38, 0
11, 34380, Note_on_c, 9, 38, 100
11, 34440, Note_on_c, 9, 38, 0
11, 34440, Note_on_c, 9, 38, 100
11, 34500, Note_on_c, 9, 38, 0
11, 34500, Note_on_c, 9, 36, 100
11, 34560, Note_on_c, 9, 36, 0
11, 34560, Note_on_c, 9, 44, 100
11, 34560, Note_on_c, 9, 49, 100
11, 34560, Note_on_c, 9, 35, 100
11, 34620, Note_on_c, 9, 35, 0
11, 34620, Note_on_c, 9, 49, 0
11, 34620, Note_on_c, 9, 44, 0
11, 34620, Note_on_c, 9, 44, 100
11, 34680, Note_on_c, 9, 44, 0
11, 34680, Note_on_c, 9, 38, 100
11, 34680, Note_on_c, 9, 50, 100
11, 34680, Note_on_c, 9, 44, 100
11, 34740, Note_on_c, 9, 44, 0
11, 34740, Note_on_c, 9, 50, 0
11, 34740, Note_on_c, 9, 38, 0
11, 34740, Note_on_c, 9, 44, 100
11, 34800, Note_on_c, 9, 44, 0
11, 34800, Note_on_c, 9, 44, 100
11, 34800, Note_on_c, 9, 35, 100
11, 34860, Note_on_c, 9, 35, 0
11, 34860, Note_on_c, 9, 44, 0
11, 34860, Note_on_c, 9, 44, 100
11, 34860, Note_on_c, 9, 35, 100
11, 34920, Note_on_c, 9, 35, 0
11, 34920, Note_on_c, 9, 44, 0
11, 34920, Note_on_c, 9, 38, 100
11, 34920, Note_on_c, 9, 50, 100
11, 34920, Note_on_c, 9, 44, 100
11, 34980, Note_on_c, 9, 44, 0
11, 34980, Note_on_c, 9, 50, 0
11, 34980, Note_on_c, 9, 38, 0
11, 34980, Note_on_c, 9, 44, 100
11, 35035, Note_on_c, 9, 35, 100
11, 35035, Note_on_c, 9, 44, 100
11, 35040, Note_on_c, 9, 44, 0
11, 35095, Note_on_c, 9, 44, 0
11, 35095, Note_on_c, 9, 35, 0
11, 35095, Note_on_c, 9, 44, 100
11, 35155, Note_on_c, 9, 44, 0
11, 35155, Note_on_c, 9, 38, 100
11, 35155, Note_on_c, 9, 44, 100
11, 35160, Note_on_c, 9, 50, 100
11, 35215, Note_on_c, 9, 44, 0
11, 35215, Note_on_c, 9, 38, 0
11, 35215, Note_on_c, 9, 44, 100
11, 35220, Note_on_c, 9, 50, 0
11, 35275, Note_on_c, 9, 44, 0
11, 35275, Note_on_c, 9, 35, 100
11, 35275, Note_on_c, 9, 44, 100
11, 35335, Note_on_c, 9, 44, 0
11, 35335, Note_on_c, 9, 35, 0
11, 35335, Note_on_c, 9, 35, 100
11, 35335, Note_on_c, 9, 44, 100
11, 35395, Note_on_c, 9, 44, 0
11, 35395, Note_on_c, 9, 35, 0
11, 35395, Note_on_c, 9, 38, 100
11, 35395, Note_on_c, 9, 44, 100
11, 35400, Note_on_c, 9, 50, 100
11, 35455, Note_on_c, 9, 44, 0
11, 35455, Note_on_c, 9, 38, 0
11, 35455, Note_on_c, 9, 44, 100
11, 35460, Note_on_c, 9, 50, 0
11, 35515, Note_on_c, 9, 44, 0
11, 35515, Note_on_c, 9, 44, 100
11, 35515, Note_on_c, 9, 35, 100
11, 35575, Note_on_c, 9, 35, 0
11, 35575, Note_on_c, 9, 44, 0
11, 35575, Note_on_c, 9, 44, 100
11, 35635, Note_on_c, 9, 44, 0
11, 35635, Note_on_c, 9, 44, 100
11, 35635, Note_on_c, 9, 38, 100
11, 35640, Note_on_c, 9, 50, 100
11, 35695, Note_on_c, 9, 38, 0
11, 35695, Note_on_c, 9, 44, 0
11, 35695, Note_on_c, 9, 44, 100
11, 35700, Note_on_c, 9, 50, 0
11, 35755, Note_on_c, 9, 44, 0
11, 35755, Note_on_c, 9, 44, 100
11, 35755, Note_on_c, 9, 35, 100
11, 35815, Note_on_c, 9, 35, 0
11, 35815, Note_on_c, 9, 44, 0
11, 35815, Note_on_c, 9, 44, 100
11, 35815, Note_on_c, 9, 35, 100
11, 35875, Note_on_c, 9, 35, 0
11, 35875, Note_on_c, 9, 44, 0
11, 35875, Note_on_c, 9, 44, 100
11, 35875, Note_on_c, 9, 38, 100
11, 35880, Note_on_c, 9, 50, 100
11, 35935, Note_on_c, 9, 38, 0
11, 35935, Note_on_c, 9, 44, 0
11, 35935, Note_on_c, 9, 44, 100
11, 35940, Note_on_c, 9, 50, 0
11, 35995, Note_on_c, 9, 44, 0
11, 35995, Note_on_c, 9, 35, 100
11, 35995, Note_on_c, 9, 44, 100
11, 36055, Note_on_c, 9, 44, 0
11, 36055, Note_on_c, 9, 35, 0
11, 36055, Note_on_c, 9, 44, 100
11, 36115, Note_on_c, 9, 44, 0
11, 36115, Note_on_c, 9, 38, 100
11, 36115, Note_on_c, 9, 44, 100
11, 36120, Note_on_c, 9, 50, 100
11, 36175, Note_on_c, 9, 44, 0
11, 36175, Note_on_c, 9, 38, 0
11, 36175, Note_on_c, 9, 44, 100
11, 36180, Note_on_c, 9, 50, 0
11, 36235, Note_on_c, 9, 44, 0
11, 36235, Note_on_c, 9, 35, 100
11, 36235, Note_on_c, 9, 44, 100
11, 36295, Note_on_c, 9, 44, 0
11, 36295, Note_on_c, 9, 35, 0
11, 36295, Note_on_c, 9, 35, 100
11, 36295, Note_on_c, 9, 44, 100
11, 36355, Note_on_c, 9, 44, 0
11, 36355, Note_on_c, 9, 35, 0
11, 36355, Note_on_c, 9, 38, 100
11, 36355, Note_on_c, 9, 44, 100
11, 36360, Note_on_c, 9, 50, 100
11, 36415, Note_on_c, 9, 44, 0
11, 36415, Note_on_c, 9, 38, 0
11, 36415, Note_on_c, 9, 44, 100
11, 36420, Note_on_c, 9, 50, 0
11, 36475, Note_on_c, 9, 44, 0
11, 36480, Note_on_c, 9, 35, 100
11, 36480, Note_on_c, 9, 49, 100
11, 36480, Note_on_c, 9, 44, 100
11, 36540, Note_on_c, 9, 44, 0
11, 36540, Note_on_c, 9, 49, 0
11, 36540, Note_on_c, 9, 35, 0
11, 36540, Note_on_c, 9, 44, 100
11, 36600, Note_on_c, 9, 44, 0
11, 36600, Note_on_c, 9, 44, 100
11, 36600, Note_on_c, 9, 50, 100
11, 36600, Note_on_c, 9, 38, 100
11, 36660, Note_on_c, 9, 38, 0
11, 36660, Note_on_c, 9, 50, 0
11, 36660, Note_on_c, 9, 44, 0
11, 36660, Note_on_c, 9, 44, 100
11, 36720, Note_on_c, 9, 44, 0
11, 36720, Note_on_c, 9, 35, 100
11, 36720, Note_on_c, 9, 44, 100
11, 36780, Note_on_c, 9, 44, 0
11, 36780, Note_on_c, 9, 35, 0
11, 36780, Note_on_c, 9, 35, 100
11, 36780, Note_on_c, 9, 44, 100
11, 36840, Note_on_c, 9, 44, 0
11, 36840, Note_on_c, 9, 35, 0
11, 36840, Note_on_c, 9, 44, 100
11, 36840, Note_on_c, 9, 50, 100
11, 36840, Note_on_c, 9, 38, 100
11, 36900, Note_on_c, 9, 38, 0
11, 36900, Note_on_c, 9, 50, 0
11, 36900, Note_on_c, 9, 44, 0
11, 36900, Note_on_c, 9, 44, 100
11, 36960, Note_on_c, 9, 44, 0
11, 36960, Note_on_c, 9, 44, 100
11, 36960, Note_on_c, 9, 35, 100
11, 37020, Note_on_c, 9, 35, 0
11, 37020, Note_on_c, 9, 44, 0
11, 37020, Note_on_c, 9, 44, 100
11, 37080, Note_on_c, 9, 44, 0
11, 37080, Note_on_c, 9, 50, 100
11, 37080, Note_on_c, 9, 38, 100
11, 37080, Note_on_c, 9, 44, 100
11, 37140, Note_on_c, 9, 44, 0
11, 37140, Note_on_c, 9, 38, 0
11, 37140, Note_on_c, 9, 50, 0
11, 37140, Note_on_c, 9, 44, 100
11, 37200, Note_on_c, 9, 44, 0
11, 37200, Note_on_c, 9, 35, 100
11, 37200, Note_on_c, 9, 44, 100
11, 37260, Note_on_c, 9, 44, 0
11, 37260, Note_on_c, 9, 35, 0
11, 37260, Note_on_c, 9, 35, 100
11, 37260, Note_on_c, 9, 44, 100
11, 37320, Note_on_c, 9, 44, 0
11, 37320, Note_on_c, 9, 35, 0
11, 37320, Note_on_c, 9, 50, 100
11, 37320, Note_on_c, 9, 38, 100
11, 37320, Note_on_c, 9, 44, 100
11, 37380, Note_on_c, 9, 44, 0
11, 37380, Note_on_c, 9, 38, 0
11, 37380, Note_on_c, 9, 50, 0
11, 37380, Note_on_c, 9, 35, 100
11, 37380, Note_on_c, 9, 44, 100
11, 37440, Note_on_c, 9, 44, 0
11, 37440, Note_on_c, 9, 35, 0
11, 37440, Note_on_c, 9, 49, 100
11, 37440, Note_on_c, 9, 44, 100
11, 37440, Note_on_c, 9, 35, 100
11, 37500, Note_on_c, 9, 35, 0
11, 37500, Note_on_c, 9, 44, 0
11, 37500, Note_on_c, 9, 44, 100
11, 37560, Note_on_c, 9, 44, 0
11, 37560, Note_on_c, 9, 49, 0
11, 37560, Note_on_c, 9, 38, 100
11, 37560, Note_on_c, 9, 44, 100
11, 37620, Note_on_c, 9, 44, 0
11, 37620, Note_on_c, 9, 38, 0
11, 37620, Note_on_c, 9, 44, 100
11, 37680, Note_on_c, 9, 44, 0
11, 37680, Note_on_c, 9, 44, 100
11, 37680, Note_on_c, 9, 35, 100
11, 37740, Note_on_c, 9, 35, 0
11, 37740, Note_on_c, 9, 44, 0
11, 37740, Note_on_c, 9, 35, 100
11, 37740, Note_on_c, 9, 44, 100
11, 37800, Note_on_c, 9, 44, 0
11, 37800, Note_on_c, 9, 35, 0
11, 37800, Note_on_c, 9, 35, 100
11, 37800, Note_on_c, 9, 40, 100
11, 37860, Note_on_c, 9, 40, 0
11, 37860, Note_on_c, 9, 35, 0
11, 37860, Note_on_c, 9, 35, 100
11, 37860, Note_on_c, 9, 49, 100
11, 37920, Note_on_c, 9, 49, 0
11, 37920, Note_on_c, 9, 35, 0
11, 37980, Note_on_c, 9, 38, 100
11, 38040, Note_on_c, 9, 38, 0
11, 38100, Note_on_c, 9, 38, 100
11, 38160, Note_on_c, 9, 38, 0
11, 38220, Note_on_c, 9, 38, 100
11, 38280, Note_on_c, 9, 38, 0
11, 38280, Note_on_c, 9, 38, 100
11, 38340, Note_on_c, 9, 38, 0
11, 38340, Note_on_c, 9, 36, 100
11, 38400, Note_on_c, 9, 36, 0
11, 38400, Note_on_c, 9, 44, 100
11, 38400, Note_on_c, 9, 35, 100
11, 38400, Note_on_c, 9, 49, 100
11, 38460, Note_on_c, 9, 49, 0
11, 38460, Note_on_c, 9, 35, 0
11, 38460, Note_on_c, 9, 44, 0
11, 38460, Note_on_c, 9, 44, 100
11, 38520, Note_on_c, 9, 44, 0
11, 38520, Note_on_c, 9, 38, 100
11, 38520, Note_on_c, 9, 44, 100
11, 38520, Note_on_c, 9, 50, 100
11, 38580, Note_on_c, 9, 50, 0
11, 38580, Note_on_c, 9, 44, 0
11, 38580, Note_on_c, 9, 38, 0
11, 38580, Note_on_c, 9, 44, 100
11, 38640, Note_on_c, 9, 44, 0
11, 38640, Note_on_c, 9, 44, 100
11, 38640, Note_on_c, 9, 35, 100
11, 38700, Note_on_c, 9, 35, 0
11, 38700, Note_on_c, 9, 44, 0
11, 38700, Note_on_c, 9, 44, 100
11, 38700, Note_on_c, 9, 35, 100
11, 38760, Note_on_c, 9, 35, 0
11, 38760, Note_on_c, 9, 44, 0
11, 38760, Note_on_c, 9, 38, 100
11, 38760, Note_on_c, 9, 44, 100
11, 38760, Note_on_c, 9, 50, 100
11, 38820, Note_on_c, 9, 50, 0
11, 38820, Note_on_c, 9, 44, 0
11, 38820, Note_on_c, 9, 38, 0
11, 38820, Note_on_c, 9, 44, 100
11, 38875, Note_on_c, 9, 35, 100
11, 38875, Note_on_c, 9, 44, 100
11, 38880, Note_on_c, 9, 44, 0
11, 38935, Note_on_c, 9, 44, 0
11, 38935, Note_on_c, 9, 35, 0
11, 38935, Note_on_c, 9, 44, 100
11, 38995, Note_on_c, 9, 44, 0
11, 38995, Note_on_c, 9, 38, 100
11, 38995, Note_on_c, 9, 44, 100
11, 39000, Note_on_c, 9, 50, 100
11, 39055, Note_on_c, 9, 44, 0
11, 39055, Note_on_c, 9, 38, 0
11, 39055, Note_on_c, 9, 44, 100
11, 39060, Note_on_c, 9, 50, 0
11, 39115, Note_on_c, 9, 44, 0
11, 39115, Note_on_c, 9, 35, 100
11, 39115, Note_on_c, 9, 44, 100
11, 39175, Note_on_c, 9, 44, 0
11, 39175, Note_on_c, 9, 35, 0
11, 39175, Note_on_c, 9, 35, 100
11, 39175, Note_on_c, 9, 44, 100
11, 39235, Note_on_c, 9, 44, 0
11, 39235, Note_on_c, 9, 35, 0
11, 39235, Note_on_c, 9, 38, 100
11, 39235, Note_on_c, 9, 44, 100
11, 39240, Note_on_c, 9, 50, 100
11, 39295, Note_on_c, 9, 44, 0
11, 39295, Note_on_c, 9, 38, 0
11, 39295, Note_on_c, 9, 44, 100
11, 39300, Note_on_c, 9, 50, 0
11, 39355, Note_on_c, 9, 44, 0
11, 39355, Note_on_c, 9, 44, 100
11, 39355, Note_on_c, 9, 35, 100
11, 39415, Note_on_c, 9, 35, 0
11, 39415, Note_on_c, 9, 44, 0
11, 39415, Note_on_c, 9, 44, 100
11, 39475, Note_on_c, 9, 44, 0
11, 39475, Note_on_c, 9, 44, 100
11, 39475, Note_on_c, 9, 38, 100
11, 39480, Note_on_c, 9, 50, 100
11, 39535, Note_on_c, 9, 38, 0
11, 39535, Note_on_c, 9, 44, 0
11, 39535, Note_on_c, 9, 44, 100
11, 39540, Note_on_c, 9, 50, 0
11, 39595, Note_on_c, 9, 44, 0
11, 39595, Note_on_c, 9, 44, 100
11, 39595, Note_on_c, 9, 35, 100
11, 39655, Note_on_c, 9, 35, 0
11, 39655, Note_on_c, 9, 44, 0
11, 39655, Note_on_c, 9, 44, 100
11, 39655, Note_on_c, 9, 35, 100
11, 39715, Note_on_c, 9, 35, 0
11, 39715, Note_on_c, 9, 44, 0
11, 39715, Note_on_c, 9, 44, 100
11, 39715, Note_on_c, 9, 38, 100
11, 39720, Note_on_c, 9, 50, 100
11, 39775, Note_on_c, 9, 38, 0
11, 39775, Note_on_c, 9, 44, 0
11, 39775, Note_on_c, 9, 44, 100
11, 39780, Note_on_c, 9, 50, 0
11, 39835, Note_on_c, 9, 44, 0
11, 39835, Note_on_c, 9, 35, 100
11, 39835, Note_on_c, 9, 44, 100
11, 39895, Note_on_c, 9, 44, 0
11, 39895, Note_on_c, 9, 35, 0
11, 39895, Note_on_c, 9, 44, 100
11, 39955, Note_on_c, 9, 44, 0
11, 39955, Note_on_c, 9, 38, 100
11, 39955, Note_on_c, 9, 44, 100
11, 39960, Note_on_c, 9, 50, 100
11, 40015, Note_on_c, 9, 44, 0
11, 40015, Note_on_c, 9, 38, 0
11, 40015, Note_on_c, 9, 44, 100
11, 40020, Note_on_c, 9, 50, 0
11, 40075, Note_on_c, 9, 44, 0
11, 40075, Note_on_c, 9, 35, 100
11, 40075, Note_on_c, 9, 44, 100
11, 40135, Note_on_c, 9, 44, 0
11, 40135, Note_on_c, 9, 35, 0
11, 40135, Note_on_c, 9, 35, 100
11, 40135, Note_on_c, 9, 44, 100
11, 40195, Note_on_c, 9, 44, 0
11, 40195, Note_on_c, 9, 35, 0
11, 40195, Note_on_c, 9, 38, 100
11, 40195, Note_on_c, 9, 44, 100
11, 40200, Note_on_c, 9, 50, 100
11, 40255, Note_on_c, 9, 44, 0
11, 40255, Note_on_c, 9, 38, 0
11, 40255, Note_on_c, 9, 44, 100
11, 40260, Note_on_c, 9, 50, 0
11, 40315, Note_on_c, 9, 44, 0
11, 40320, Note_on_c, 9, 49, 100
11, 40320, Note_on_c, 9, 35, 100
11, 40320, Note_on_c, 9, 44, 100
11, 40380, Note_on_c, 9, 44, 0
11, 40380, Note_on_c, 9, 35, 0
11, 40380, Note_on_c, 9, 49, 0
11, 40380, Note_on_c, 9, 44, 100
11, 40440, Note_on_c, 9, 44, 0
11, 40440, Note_on_c, 9, 50, 100
11, 40440, Note_on_c, 9, 44, 100
11, 40440, Note_on_c, 9, 38, 100
11, 40500, Note_on_c, 9, 38, 0
11, 40500, Note_on_c, 9, 44, 0
11, 40500, Note_on_c, 9, 50, 0
11, 40500, Note_on_c, 9, 44, 100
11, 40560, Note_on_c, 9, 44, 0
11, 40560, Note_on_c, 9, 35, 100
11, 40560, Note_on_c, 9, 44, 100
11, 40620, Note_on_c, 9, 44, 0
11, 40620, Note_on_c, 9, 35, 0
11, 40620, Note_on_c, 9, 35, 100
11, 40620, Note_on_c, 9, 44, 100
11, 40680, Note_on_c, 9, 44, 0
11, 40680, Note_on_c, 9, 35, 0
11, 40680, Note_on_c, 9, 50, 100
11, 40680, Note_on_c, 9, 44, 100
11, 40680, Note_on_c, 9, 38, 100
11, 40740, Note_on_c, 9, 38, 0
11, 40740, Note_on_c, 9, 44, 0
11, 40740, Note_on_c, 9, 50, 0
11, 40740, Note_on_c, 9, 44, 100
11, 40800, Note_on_c, 9, 44, 0
11, 40800, Note_on_c, 9, 44, 100
11, 40800, Note_on_c, 9, 35, 100
11, 40860, Note_on_c, 9, 35, 0
11, 40860, Note_on_c, 9, 44, 0
11, 40860, Note_on_c, 9, 44, 100
11, 40920, Note_on_c, 9, 44, 0
11, 40920, Note_on_c, 9, 38, 100
11, 40920, Note_on_c, 9, 44, 100
11, 40920, Note_on_c, 9, 50, 100
11, 40980, Note_on_c, 9, 50, 0
11, 40980, Note_on_c, 9, 44, 0
11, 40980, Note_on_c, 9, 38, 0
11, 40980, Note_on_c, 9, 44, 100
11, 41040, Note_on_c, 9, 44, 0
11, 41040, Note_on_c, 9, 44, 100
11, 41040, Note_on_c, 9, 35, 100
11, 41100, Note_on_c, 9, 35, 0
11, 41100, Note_on_c, 9, 44, 0
11, 41100, Note_on_c, 9, 44, 100
11, 41100, Note_on_c, 9, 35, 100
11, 41160, Note_on_c, 9, 35, 0
11, 41160, Note_on_c, 9, 44, 0
11, 41160, Note_on_c, 9, 44, 100
11, 41160, Note_on_c, 9, 50, 100
11, 41160, Note_on_c, 9, 38, 100
11, 41220, Note_on_c, 9, 38, 0
11, 41220, Note_on_c, 9, 50, 0
11, 41220, Note_on_c, 9, 44, 0
11, 41220, Note_on_c, 9, 35, 100
11, 41220, Note_on_c, 9, 44, 100
11, 41280, Note_on_c, 9, 44, 0
11, 41280, Note_on_c, 9, 35, 0
11, 41280, Note_on_c, 9, 44, 100
11, 41280, Note_on_c, 9, 49, 100
11, 41280, Note_on_c, 9, 35, 100
11, 41340, Note_on_c, 9, 35, 0
11, 41340, Note_on_c, 9, 44, 0
11, 41340, Note_on_c, 9, 44, 100
11, 41400, Note_on_c, 9, 44, 0
11, 41400, Note_on_c, 9, 49, 0
11, 41400, Note_on_c, 9, 38, 100
11, 41400, Note_on_c, 9, 44, 100
11, 41460, Note_on_c, 9, 44, 0
11, 41460, Note_on_c, 9, 38, 0
11, 41460, Note_on_c, 9, 44, 100
11, 41520, Note_on_c, 9, 44, 0
11, 41520, Note_on_c, 9, 44, 100
11, 41520, Note_on_c, 9, 35, 100
11, 41580, Note_on_c, 9, 35, 0
11, 41580, Note_on_c, 9, 44, 0
11, 41580, Note_on_c, 9, 35, 100
11, 41580, Note_on_c, 9, 44, 100
11, 41640, Note_on_c, 9, 44, 0
11, 41640, Note_on_c, 9, 35, 0
11, 41640, Note_on_c, 9, 35, 100
11, 41640, Note_on_c, 9, 40, 100
11, 41700, Note_on_c, 9, 40, 0
11, 41700, Note_on_c, 9, 35, 0
11, 41700, Note_on_c, 9, 35, 100
11, 41700, Note_on_c, 9, 49, 100
11, 41760, Note_on_c, 9, 49, 0
11, 41760, Note_on_c, 9, 35, 0
11, 41820, Note_on_c, 9, 38, 100
11, 41880, Note_on_c, 9, 38, 0
11, 41940, Note_on_c, 9, 38, 100
11, 42000, Note_on_c, 9, 38, 0
11, 42060, Note_on_c, 9, 38, 100
11, 42120, Note_on_c, 9, 38, 0
11, 42120, Note_on_c, 9, 38, 100
11, 42180, Note_on_c, 9, 38, 0
11, 42180, Note_on_c, 9, 36, 100
11, 42240, Note_on_c, 9, 36, 0
11, 42240, Note_on_c, 9, 49, 100
11, 42240, Note_on_c, 9, 44, 100
11, 42240, Note_on_c, 9, 35, 100
11, 42250, Control_c, 9, 7, 109
11, 42265, Control_c, 9, 7, 110
11, 42275, Control_c, 9, 7, 111
11, 42300, Note_on_c, 9, 35, 0
11, 42300, Note_on_c, 9, 44, 0
11, 42300, Note_on_c, 9, 49, 0
11, 42300, Note_on_c, 9, 44, 100
11, 42360, Note_on_c, 9, 44, 0
11, 42360, Note_on_c, 9, 50, 100
11, 42360, Note_on_c, 9, 38, 100
11, 42360, Note_on_c, 9, 44, 100
11, 42420, Note_on_c, 9, 44, 0
11, 42420, Note_on_c, 9, 38, 0
11, 42420, Note_on_c, 9, 50, 0
11, 42420, Note_on_c, 9, 44, 100
11, 42480, Note_on_c, 9, 44, 0
11, 42480, Note_on_c, 9, 35, 100
11, 42480, Note_on_c, 9, 44, 100
11, 42540, Note_on_c, 9, 44, 0
11, 42540, Note_on_c, 9, 35, 0
11, 42540, Note_on_c, 9, 35, 100
11, 42540, Note_on_c, 9, 44, 100
11, 42600, Note_on_c, 9, 44, 0
11, 42600, Note_on_c, 9, 35, 0
11, 42600, Note_on_c, 9, 44, 100
11, 42600, Note_on_c, 9, 50, 100
11, 42600, Note_on_c, 9, 38, 100
11, 42660, Note_on_c, 9, 38, 0
11, 42660, Note_on_c, 9, 50, 0
11, 42660, Note_on_c, 9, 44, 0
11, 42660, Note_on_c, 9, 44, 100
11, 42715, Note_on_c, 9, 44, 100
11, 42715, Note_on_c, 9, 35, 100
11, 42720, Note_on_c, 9, 44, 0
11, 42775, Note_on_c, 9, 35, 0
11, 42775, Note_on_c, 9, 44, 0
11, 42775, Note_on_c, 9, 44, 100
11, 42835, Note_on_c, 9, 44, 0
11, 42835, Note_on_c, 9, 44, 100
11, 42835, Note_on_c, 9, 38, 100
11, 42840, Note_on_c, 9, 50, 100
11, 42895, Note_on_c, 9, 38, 0
11, 42895, Note_on_c, 9, 44, 0
11, 42895, Note_on_c, 9, 44, 100
11, 42900, Note_on_c, 9, 50, 0
11, 42955, Note_on_c, 9, 44, 0
11, 42955, Note_on_c, 9, 44, 100
11, 42955, Note_on_c, 9, 35, 100
11, 43015, Note_on_c, 9, 35, 0
11, 43015, Note_on_c, 9, 44, 0
11, 43015, Note_on_c, 9, 44, 100
11, 43015, Note_on_c, 9, 35, 100
11, 43075, Note_on_c, 9, 35, 0
11, 43075, Note_on_c, 9, 44, 0
11, 43075, Note_on_c, 9, 44, 100
11, 43075, Note_on_c, 9, 38, 100
11, 43080, Note_on_c, 9, 50, 100
11, 43135, Note_on_c, 9, 38, 0
11, 43135, Note_on_c, 9, 44, 0
11, 43135, Note_on_c, 9, 44, 100
11, 43140, Note_on_c, 9, 50, 0
11, 43195, Note_on_c, 9, 44, 0
11, 43195, Note_on_c, 9, 35, 100
11, 43195, Note_on_c, 9, 44, 100
11, 43255, Note_on_c, 9, 44, 0
11, 43255, Note_on_c, 9, 35, 0
11, 43255, Note_on_c, 9, 44, 100
11, 43315, Note_on_c, 9, 44, 0
11, 43315, Note_on_c, 9, 38, 100
11, 43315, Note_on_c, 9, 44, 100
11, 43320, Note_on_c, 9, 50, 100
11, 43375, Note_on_c, 9, 44, 0
11, 43375, Note_on_c, 9, 38, 0
11, 43375, Note_on_c, 9, 44, 100
11, 43380, Note_on_c, 9, 50, 0
11, 43435, Note_on_c, 9, 44, 0
11, 43435, Note_on_c, 9, 35, 100
11, 43435, Note_on_c, 9, 44, 100
11, 43495, Note_on_c, 9, 44, 0
11, 43495, Note_on_c, 9, 35, 0
11, 43495, Note_on_c, 9, 35, 100
11, 43495, Note_on_c, 9, 44, 100
11, 43555, Note_on_c, 9, 44, 0
11, 43555, Note_on_c, 9, 35, 0
11, 43555, Note_on_c, 9, 38, 100
11, 43555, Note_on_c, 9, 44, 100
11, 43560, Note_on_c, 9, 50, 100
11, 43615, Note_on_c, 9, 44, 0
11, 43615, Note_on_c, 9, 38, 0
11, 43615, Note_on_c, 9, 44, 100
11, 43620, Note_on_c, 9, 50, 0
11, 43675, Note_on_c, 9, 44, 0
11, 43675, Note_on_c, 9, 44, 100
11, 43675, Note_on_c, 9, 35, 100
11, 43735, Note_on_c, 9, 35, 0
11, 43735, Note_on_c, 9, 44, 0
11, 43735, Note_on_c, 9, 44, 100
11, 43795, Note_on_c, 9, 44, 0
11, 43795, Note_on_c, 9, 44, 100
11, 43795, Note_on_c, 9, 38, 100
11, 43800, Note_on_c, 9, 50, 100
11, 43855, Note_on_c, 9, 38, 0
11, 43855, Note_on_c, 9, 44, 0
11, 43855, Note_on_c, 9, 44, 100
11, 43860, Note_on_c, 9, 50, 0
11, 43915, Note_on_c, 9, 44, 0
11, 43915, Note_on_c, 9, 44, 100
11, 43915, Note_on_c, 9, 35, 100
11, 43975, Note_on_c, 9, 35, 0
11, 43975, Note_on_c, 9, 44, 0
11, 43975, Note_on_c, 9, 44, 100
11, 43975, Note_on_c, 9, 35, 100
11, 44035, Note_on_c, 9, 35, 0
11, 44035, Note_on_c, 9, 44, 0
11, 44035, Note_on_c, 9, 44, 100
11, 44035, Note_on_c, 9, 38, 100
11, 44040, Note_on_c, 9, 50, 100
11, 44095, Note_on_c, 9, 38, 0
11, 44095, Note_on_c, 9, 44, 0
11, 44095, Note_on_c, 9, 44, 100
11, 44100, Note_on_c, 9, 50, 0
11, 44155, Note_on_c, 9, 44, 0
11, 44160, Note_on_c, 9, 44, 100
11, 44160, Note_on_c, 9, 49, 100
11, 44160, Note_on_c, 9, 35, 100
11, 44220, Note_on_c, 9, 35, 0
11, 44220, Note_on_c, 9, 49, 0
11, 44220, Note_on_c, 9, 44, 0
11, 44220, Note_on_c, 9, 44, 100
11, 44280, Note_on_c, 9, 44, 0
11, 44280, Note_on_c, 9, 38, 100
11, 44280, Note_on_c, 9, 50, 100
11, 44280, Note_on_c, 9, 44, 100
11, 44340, Note_on_c, 9, 44, 0
11, 44340, Note_on_c, 9, 50, 0
11, 44340, Note_on_c, 9, 38, 0
11, 44340, Note_on_c, 9, 44, 100
11, 44400, Note_on_c, 9, 44, 0
11, 44400, Note_on_c, 9, 44, 100
11, 44400, Note_on_c, 9, 35, 100
11, 44460, Note_on_c, 9, 35, 0
11, 44460, Note_on_c, 9, 44, 0
11, 44460, Note_on_c, 9, 44, 100
11, 44460, Note_on_c, 9, 35, 100
11, 44520, Note_on_c, 9, 35, 0
11, 44520, Note_on_c, 9, 44, 0
11, 44520, Note_on_c, 9, 38, 100
11, 44520, Note_on_c, 9, 50, 100
11, 44520, Note_on_c, 9, 44, 100
11, 44580, Note_on_c, 9, 44, 0
11, 44580, Note_on_c, 9, 50, 0
11, 44580, Note_on_c, 9, 38, 0
11, 44580, Note_on_c, 9, 44, 100
11, 44640, Note_on_c, 9, 44, 0
11, 44640, Note_on_c, 9, 35, 100
11, 44640, Note_on_c, 9, 44, 100
11, 44700, Note_on_c, 9, 44, 0
11, 44700, Note_on_c, 9, 35, 0
11, 44700, Note_on_c, 9, 44, 100
11, 44760, Note_on_c, 9, 44, 0
11, 44760, Note_on_c, 9, 44, 100
11, 44760, Note_on_c, 9, 50, 100
11, 44760, Note_on_c, 9, 38, 100
11, 44820, Note_on_c, 9, 38, 0
11, 44820, Note_on_c, 9, 50, 0
11, 44820, Note_on_c, 9, 44, 0
11, 44820, Note_on_c, 9, 44, 100
11, 44880, Note_on_c, 9, 44, 0
11, 44880, Note_on_c, 9, 35, 100
11, 44880, Note_on_c, 9, 44, 100
11, 44940, Note_on_c, 9, 44, 0
11, 44940, Note_on_c, 9, 35, 0
11, 44940, Note_on_c, 9, 35, 100
11, 44940, Note_on_c, 9, 44, 100
11, 45000, Note_on_c, 9, 44, 0
11, 45000, Note_on_c, 9, 35, 0
11, 45000, Note_on_c, 9, 44, 100
11, 45000, Note_on_c, 9, 50, 100
11, 45000, Note_on_c, 9, 38, 100
11, 45060, Note_on_c, 9, 38, 0
11, 45060, Note_on_c, 9, 50, 0
11, 45060, Note_on_c, 9, 44, 0
11, 45060, Note_on_c, 9, 44, 100
11, 45060, Note_on_c, 9, 35, 100
11, 45120, Note_on_c, 9, 35, 0
11, 45120, Note_on_c, 9, 44, 0
11, 45120, Note_on_c, 9, 44, 100
11, 45120, Note_on_c, 9, 49, 100
11, 45120, Note_on_c, 9, 35, 100
11, 45180, Note_on_c, 9, 35, 0
11, 45180, Note_on_c, 9, 44, 0
11, 45180, Note_on_c, 9, 44, 100
11, 45240, Note_on_c, 9, 44, 0
11, 45240, Note_on_c, 9, 49, 0
11, 45240, Note_on_c, 9, 44, 100
11, 45240, Note_on_c, 9, 38, 100
11, 45300, Note_on_c, 9, 38, 0
11, 45300, Note_on_c, 9, 44, 0
11, 45300, Note_on_c, 9, 44, 100
11, 45360, Note_on_c, 9, 44, 0
11, 45360, Note_on_c, 9, 44, 100
11, 45360, Note_on_c, 9, 35, 100
11, 45420, Note_on_c, 9, 35, 0
11, 45420, Note_on_c, 9, 44, 0
11, 45420, Note_on_c, 9, 35, 100
11, 45420, Note_on_c, 9, 44, 100
11, 45480, Note_on_c, 9, 44, 0
11, 45480, Note_on_c, 9, 35, 0
11, 45480, Note_on_c, 9, 35, 100
11, 45480, Note_on_c, 9, 40, 100
11, 45540, Note_on_c, 9, 40, 0
11, 45540, Note_on_c, 9, 35, 0
11, 45540, Note_on_c, 9, 49, 100
11, 45540, Note_on_c, 9, 35, 100
11, 45600, Note_on_c, 9, 35, 0
11, 45600, Note_on_c, 9, 49, 0
11, 45660, Note_on_c, 9, 38, 100
11, 45720, Note_on_c, 9, 38, 0
11, 45780, Note_on_c, 9, 38, 100
11, 45840, Note_on_c, 9, 38, 0
11, 45900, Note_on_c, 9, 38, 100
11, 45960, Note_on_c, 9, 38, 0
11, 45960, Note_on_c, 9, 38, 100
11, 46020, Note_on_c, 9, 38, 0
11, 46020, Note_on_c, 9, 36, 100
11, 46080, Note_on_c, 9, 36, 0
11, 46080, Note_on_c, 9, 49, 100
11, 46080, Note_on_c, 9, 44, 100
11, 46080, Note_on_c, 9, 35, 100
11, 46140, Note_on_c, 9, 35, 0
11, 46140, Note_on_c, 9, 44, 0
11, 46140, Note_on_c, 9, 49, 0
11, 46140, Note_on_c, 9, 44, 100
11, 46200, Note_on_c, 9, 44, 0
11, 46200, Note_on_c, 9, 50, 100
11, 46200, Note_on_c, 9, 38, 100
11, 46200, Note_on_c, 9, 44, 100
11, 46260, Note_on_c, 9, 44, 0
11, 46260, Note_on_c, 9, 38, 0
11, 46260, Note_on_c, 9, 50, 0
11, 46260, Note_on_c, 9, 44, 100
11, 46320, Note_on_c, 9, 44, 0
11, 46320, Note_on_c, 9, 35, 100
11, 46320, Note_on_c, 9, 44, 100
11, 46380, Note_on_c, 9, 44, 0
11, 46380, Note_on_c, 9, 35, 0
11, 46380, Note_on_c, 9, 35, 100
11, 46380, Note_on_c, 9, 44, 100
11, 46440, Note_on_c, 9, 44, 0
11, 46440, Note_on_c, 9, 35, 0
11, 46440, Note_on_c, 9, 50, 100
11, 46440, Note_on_c, 9, 38, 100
11, 46440, Note_on_c, 9, 44, 100
11, 46500, Note_on_c, 9, 44, 0
11, 46500, Note_on_c, 9, 38, 0
11, 46500, Note_on_c, 9, 50, 0
11, 46500, Note_on_c, 9, 44, 100
11, 46555, Note_on_c, 9, 44, 100
11, 46555, Note_on_c, 9, 35, 100
11, 46560, Note_on_c, 9, 44, 0
11, 46615, Note_on_c, 9, 35, 0
11, 46615, Note_on_c, 9, 44, 0
11, 46615, Note_on_c, 9, 44, 100
11, 46675, Note_on_c, 9, 44, 0
11, 46675, Note_on_c, 9, 38, 100
11, 46675, Note_on_c, 9, 44, 100
11, 46680, Note_on_c, 9, 50, 100
11, 46735, Note_on_c, 9, 44, 0
11, 46735, Note_on_c, 9, 38, 0
11, 46735, Note_on_c, 9, 44, 100
11, 46740, Note_on_c, 9, 50, 0
11, 46795, Note_on_c, 9, 44, 0
11, 46795, Note_on_c, 9, 35, 100
11, 46795, Note_on_c, 9, 44, 100
11, 46855, Note_on_c, 9, 44, 0
11, 46855, Note_on_c, 9, 35, 0
11, 46855, Note_on_c, 9, 35, 100
11, 46855, Note_on_c, 9, 44, 100
11, 46915, Note_on_c, 9, 44, 0
11, 46915, Note_on_c, 9, 35, 0
11, 46915, Note_on_c, 9, 38, 100
11, 46915, Note_on_c, 9, 44, 100
11, 46920, Note_on_c, 9, 50, 100
11, 46975, Note_on_c, 9, 44, 0
11, 46975, Note_on_c, 9, 38, 0
11, 46975, Note_on_c, 9, 44, 100
11, 46980, Note_on_c, 9, 50, 0
11, 47035, Note_on_c, 9, 44, 0
11, 47035, Note_on_c, 9, 44, 100
11, 47035, Note_on_c, 9, 35, 100
11, 47095, Note_on_c, 9, 35, 0
11, 47095, Note_on_c, 9, 44, 0
11, 47095, Note_on_c, 9, 44, 100
11, 47155, Note_on_c, 9, 44, 0
11, 47155, Note_on_c, 9, 38, 100
11, 47155, Note_on_c, 9, 44, 100
11, 47160, Note_on_c, 9, 50, 100
11, 47215, Note_on_c, 9, 44, 0
11, 47215, Note_on_c, 9, 38, 0
11, 47215, Note_on_c, 9, 44, 100
11, 47220, Note_on_c, 9, 50, 0
11, 47275, Note_on_c, 9, 44, 0
11, 47275, Note_on_c, 9, 35, 100
11, 47275, Note_on_c, 9, 44, 100
11, 47335, Note_on_c, 9, 44, 0
11, 47335, Note_on_c, 9, 35, 0
11, 47335, Note_on_c, 9, 35, 100
11, 47335, Note_on_c, 9, 44, 100
11, 47395, Note_on_c, 9, 44, 0
11, 47395, Note_on_c, 9, 35, 0
11, 47395, Note_on_c, 9, 38, 100
11, 47395, Note_on_c, 9, 44, 100
11, 47400, Note_on_c, 9, 50, 100
11, 47455, Note_on_c, 9, 44, 0
11, 47455, Note_on_c, 9, 38, 0
11, 47455, Note_on_c, 9, 44, 100
11, 47460, Note_on_c, 9, 50, 0
11, 47515, Note_on_c, 9, 44, 0
11, 47515, Note_on_c, 9, 44, 100
11, 47515, Note_on_c, 9, 35, 100
11, 47575, Note_on_c, 9, 35, 0
11, 47575, Note_on_c, 9, 44, 0
11, 47575, Note_on_c, 9, 44, 100
11, 47635, Note_on_c, 9, 44, 0
11, 47635, Note_on_c, 9, 38, 100
11, 47635, Note_on_c, 9, 44, 100
11, 47640, Note_on_c, 9, 50, 100
11, 47695, Note_on_c, 9, 44, 0
11, 47695, Note_on_c, 9, 38, 0
11, 47695, Note_on_c, 9, 44, 100
11, 47700, Note_on_c, 9, 50, 0
11, 47755, Note_on_c, 9, 44, 0
11, 47755, Note_on_c, 9, 35, 100
11, 47755, Note_on_c, 9, 44, 100
11, 47815, Note_on_c, 9, 44, 0
11, 47815, Note_on_c, 9, 35, 0
11, 47815, Note_on_c, 9, 35, 100
11, 47815, Note_on_c, 9, 44, 100
11, 47875, Note_on_c, 9, 44, 0
11, 47875, Note_on_c, 9, 35, 0
11, 47875, Note_on_c, 9, 38, 100
11, 47875, Note_on_c, 9, 44, 100
11, 47880, Note_on_c, 9, 50, 100
11, 47935, Note_on_c, 9, 44, 0
11, 47935, Note_on_c, 9, 38, 0
11, 47935, Note_on_c, 9, 44, 100
11, 47940, Note_on_c, 9, 50, 0
11, 47995, Note_on_c, 9, 44, 0
11, 48000, Note_on_c, 9, 49, 100
11, 48000, Note_on_c, 9, 44, 100
11, 48000, Note_on_c, 9, 35, 100
11, 48060, Note_on_c, 9, 35, 0
11, 48060, Note_on_c, 9, 44, 0
11, 48060, Note_on_c, 9, 49, 0
11, 48060, Note_on_c, 9, 44, 100
11, 48120, Note_on_c, 9, 44, 0
11, 48120, Note_on_c, 9, 50, 100
11, 48120, Note_on_c, 9, 38, 100
11, 48120, Note_on_c, 9, 44, 100
11, 48180, Note_on_c, 9, 44, 0
11, 48180, Note_on_c, 9, 38, 0
11, 48180, Note_on_c, 9, 50, 0
11, 48180, Note_on_c, 9, 44, 100
11, 48240, Note_on_c, 9, 44, 0
11, 48240, Note_on_c, 9, 35, 100
11, 48240, Note_on_c, 9, 44, 100
11, 48300, Note_on_c, 9, 44, 0
11, 48300, Note_on_c, 9, 35, 0
11, 48300, Note_on_c, 9, 35, 100
11, 48300, Note_on_c, 9, 44, 100
11, 48360, Note_on_c, 9, 44, 0
11, 48360, Note_on_c, 9, 35, 0
11, 48360, Note_on_c, 9, 50, 100
11, 48360, Note_on_c, 9, 38, 100
11, 48360, Note_on_c, 9, 44, 100
11, 48420, Note_on_c, 9, 44, 0
11, 48420, Note_on_c, 9, 38, 0
11, 48420, Note_on_c, 9, 50, 0
11, 48420, Note_on_c, 9, 44, 100
11, 48480, Note_on_c, 9, 44, 0
11, 48480, Note_on_c, 9, 44, 100
11, 48480, Note_on_c, 9, 35, 100
11, 48540, Note_on_c, 9, 35, 0
11, 48540, Note_on_c, 9, 44, 0
11, 48540, Note_on_c, 9, 44, 100
11, 48600, Note_on_c, 9, 44, 0
11, 48600, Note_on_c, 9, 44, 100
11, 48600, Note_on_c, 9, 38, 100
11, 48600, Note_on_c, 9, 50, 100
11, 48660, Note_on_c, 9, 50, 0
11, 48660, Note_on_c, 9, 38, 0
11, 48660, Note_on_c, 9, 44, 0
11, 48660, Note_on_c, 9, 44, 100
11, 48720, Note_on_c, 9, 44, 0
11, 48720, Note_on_c, 9, 35, 100
11, 48720, Note_on_c, 9, 44, 100
11, 48780, Note_on_c, 9, 44, 0
11, 48780, Note_on_c, 9, 35, 0
11, 48780, Note_on_c, 9, 35, 100
11, 48780, Note_on_c, 9, 44, 100
11, 48840, Note_on_c, 9, 44, 0
11, 48840, Note_on_c, 9, 35, 0
11, 48840, Note_on_c, 9, 44, 100
11, 48840, Note_on_c, 9, 38, 100
11, 48840, Note_on_c, 9, 50, 100
11, 48900, Note_on_c, 9, 50, 0
11, 48900, Note_on_c, 9, 38, 0
11, 48900, Note_on_c, 9, 44, 0
11, 48900, Note_on_c, 9, 35, 100
11, 48900, Note_on_c, 9, 44, 100
11, 48960, Note_on_c, 9, 44, 0
11, 48960, Note_on_c, 9, 35, 0
11, 48960, Note_on_c, 9, 49, 100
11, 48960, Note_on_c, 9, 44, 100
11, 48960, Note_on_c, 9, 35, 100
11, 49020, Note_on_c, 9, 35, 0
11, 49020, Note_on_c, 9, 44, 0
11, 49020, Note_on_c, 9, 44, 100
11, 49080, Note_on_c, 9, 44, 0
11, 49080, Note_on_c, 9, 49, 0
11, 49080, Note_on_c, 9, 38, 100
11, 49080, Note_on_c, 9, 44, 100
11, 49140, Note_on_c, 9, 44, 0
11, 49140, Note_on_c, 9, 38, 0
11, 49140, Note_on_c, 9, 44, 100
11, 49200, Note_on_c, 9, 44, 0
11, 49200, Note_on_c, 9, 44, 100
11, 49200, Note_on_c, 9, 35, 100
11, 49260, Note_on_c, 9, 35, 0
11, 49260, Note_on_c, 9, 44, 0
11, 49260, Note_on_c, 9, 35, 100
11, 49260, Note_on_c, 9, 44, 100
11, 49320, Note_on_c, 9, 44, 0
11, 49320, Note_on_c, 9, 35, 0
11, 49320, Note_on_c, 9, 35, 100
11, 49320, Note_on_c, 9, 40, 100
11, 49380, Note_on_c, 9, 40, 0
11, 49380, Note_on_c, 9, 35, 0
11, 49380, Note_on_c, 9, 35, 100
11, 49380, Note_on_c, 9, 49, 100
11, 49440, Note_on_c, 9, 49, 0
11, 49440, Note_on_c, 9, 35, 0
11, 49500, Note_on_c, 9, 38, 100
11, 49560, Note_on_c, 9, 38, 0
11, 49620, Note_on_c, 9, 38, 100
11, 49680, Note_on_c, 9, 38, 0
11, 49740, Note_on_c, 9, 38, 100
11, 49800, Note_on_c, 9, 38, 0
11, 49800, Note_on_c, 9, 38, 100
11, 49830, Note_on_c, 9, 38, 100
11, 49860, Note_on_c, 9, 38, 0
11, 49860, Note_on_c, 9, 38, 0
11, 49860, Note_on_c, 9, 36, 100
11, 49860, Note_on_c, 9, 41, 100
11, 49920, Note_on_c, 9, 41, 0
11, 49920, Note_on_c, 9, 36, 0
11, 49920, Note_on_c, 9, 35, 100
11, 49920, Note_on_c, 9, 44, 100
11, 49920, Note_on_c, 9, 49, 100
11, 49980, Note_on_c, 9, 49, 0
11, 49980, Note_on_c, 9, 44, 0
11, 49980, Note_on_c, 9, 35, 0
11, 49980, Note_on_c, 9, 44, 100
11, 50040, Note_on_c, 9, 44, 0
11, 50040, Note_on_c, 9, 44, 100
11, 50040, Note_on_c, 9, 38, 100
11, 50040, Note_on_c, 9, 50, 100
11, 50100, Note_on_c, 9, 50, 0
11, 50100, Note_on_c, 9, 38, 0
11, 50100, Note_on_c, 9, 44, 0
11, 50100, Note_on_c, 9, 44, 100
11, 50160, Note_on_c, 9, 44, 0
11, 50160, Note_on_c, 9, 44, 100
11, 50160, Note_on_c, 9, 35, 100
11, 50220, Note_on_c, 9, 35, 0
11, 50220, Note_on_c, 9, 44, 0
11, 50220, Note_on_c, 9, 35, 100
11, 50220, Note_on_c, 9, 44, 100
11, 50280, Note_on_c, 9, 44, 0
11, 50280, Note_on_c, 9, 35, 0
11, 50280, Note_on_c, 9, 50, 100
11, 50280, Note_on_c, 9, 38, 100
11, 50280, Note_on_c, 9, 44, 100
11, 50340, Note_on_c, 9, 44, 0
11, 50340, Note_on_c, 9, 38, 0
11, 50340, Note_on_c, 9, 50, 0
11, 50340, Note_on_c, 9, 44, 100
11, 50395, Note_on_c, 9, 44, 100
11, 50395, Note_on_c, 9, 35, 100
11, 50400, Note_on_c, 9, 44, 0
11, 50455, Note_on_c, 9, 35, 0
11, 50455, Note_on_c, 9, 44, 0
11, 50455, Note_on_c, 9, 44, 100
11, 50515, Note_on_c, 9, 44, 0
11, 50515, Note_on_c, 9, 38, 100
11, 50515, Note_on_c, 9, 44, 100
11, 50520, Note_on_c, 9, 50, 100
11, 50575, Note_on_c, 9, 44, 0
11, 50575, Note_on_c, 9, 38, 0
11, 50575, Note_on_c, 9, 44, 100
11, 50580, Note_on_c, 9, 50, 0
11, 50635, Note_on_c, 9, 44, 0
11, 50635, Note_on_c, 9, 35, 100
11, 50635, Note_on_c, 9, 44, 100
11, 50695, Note_on_c, 9, 44, 0
11, 50695, Note_on_c, 9, 35, 0
11, 50695, Note_on_c, 9, 35, 100
11, 50695, Note_on_c, 9, 44, 100
11, 50755, Note_on_c, 9, 44, 0
11, 50755, Note_on_c, 9, 35, 0
11, 50755, Note_on_c, 9, 38, 100
11, 50755, Note_on_c, 9, 44, 100
11, 50760, Note_on_c, 9, 50, 100
11, 50815, Note_on_c, 9, 44, 0
11, 50815, Note_on_c, 9, 38, 0
11, 50815, Note_on_c, 9, 44, 100
11, 50820, Note_on_c, 9, 50, 0
11, 50875, Note_on_c, 9, 44, 0
11, 50875, Note_on_c, 9, 44, 100
11, 50875, Note_on_c, 9, 35, 100
11, 50880, Note_on_c, 9, 49, 100
11, 50935, Note_on_c, 9, 35, 0
11, 50935, Note_on_c, 9, 44, 0
11, 50935, Note_on_c, 9, 44, 100
11, 50995, Note_on_c, 9, 44, 0
11, 50995, Note_on_c, 9, 38, 100
11, 50995, Note_on_c, 9, 44, 100
11, 51000, Note_on_c, 9, 49, 0
11, 51000, Note_on_c, 9, 50, 100
11, 51055, Note_on_c, 9, 44, 0
11, 51055, Note_on_c, 9, 38, 0
11, 51055, Note_on_c, 9, 44, 100
11, 51060, Note_on_c, 9, 50, 0
11, 51115, Note_on_c, 9, 44, 0
11, 51115, Note_on_c, 9, 35, 100
11, 51115, Note_on_c, 9, 44, 100
11, 51175, Note_on_c, 9, 44, 0
11, 51175, Note_on_c, 9, 35, 0
11, 51175, Note_on_c, 9, 35, 100
11, 51175, Note_on_c, 9, 44, 100
11, 51235, Note_on_c, 9, 44, 0
11, 51235, Note_on_c, 9, 35, 0
11, 51235, Note_on_c, 9, 38, 100
11, 51235, Note_on_c, 9, 44, 100
11, 51240, Note_on_c, 9, 50, 100
11, 51295, Note_on_c, 9, 44, 0
11, 51295, Note_on_c, 9, 38, 0
11, 51295, Note_on_c, 9, 44, 100
11, 51300, Note_on_c, 9, 50, 0
11, 51355, Note_on_c, 9, 44, 0
11, 51355, Note_on_c, 9, 44, 100
11, 51355, Note_on_c, 9, 35, 100
11, 51415, Note_on_c, 9, 35, 0
11, 51415, Note_on_c, 9, 44, 0
11, 51415, Note_on_c, 9, 44, 100
11, 51475, Note_on_c, 9, 44, 0
11, 51475, Note_on_c, 9, 44, 100
11, 51475, Note_on_c, 9, 38, 100
11, 51480, Note_on_c, 9, 50, 100
11, 51535, Note_on_c, 9, 38, 0
11, 51535, Note_on_c, 9, 44, 0
11, 51535, Note_on_c, 9, 44, 100
11, 51540, Note_on_c, 9, 50, 0
11, 51595, Note_on_c, 9, 44, 0
11, 51595, Note_on_c, 9, 44, 100
11, 51595, Note_on_c, 9, 35, 100
11, 51655, Note_on_c, 9, 35, 0
11, 51655, Note_on_c, 9, 44, 0
11, 51655, Note_on_c, 9, 44, 100
11, 51655, Note_on_c, 9, 35, 100
11, 51715, Note_on_c, 9, 35, 0
11, 51715, Note_on_c, 9, 44, 0
11, 51715, Note_on_c, 9, 44, 100
11, 51715, Note_on_c, 9, 38, 100
11, 51720, Note_on_c, 9, 50, 100
11, 51775, Note_on_c, 9, 38, 0
11, 51775, Note_on_c, 9, 44, 0
11, 51775, Note_on_c, 9, 44, 100
11, 51780, Note_on_c, 9, 50, 0
11, 51835, Note_on_c, 9, 44, 0
11, 51840, Note_on_c, 9, 44, 100
11, 51840, Note_on_c, 9, 49, 100
11, 51840, Note_on_c, 9, 35, 100
11, 51900, Note_on_c, 9, 35, 0
11, 51900, Note_on_c, 9, 49, 0
11, 51900, Note_on_c, 9, 44, 0
11, 51900, Note_on_c, 9, 44, 100
11, 51960, Note_on_c, 9, 44, 0
11, 51960, Note_on_c, 9, 38, 100
11, 51960, Note_on_c, 9, 50, 100
11, 51960, Note_on_c, 9, 44, 100
11, 52020, Note_on_c, 9, 44, 0
11, 52020, Note_on_c, 9, 50, 0
11, 52020, Note_on_c, 9, 38, 0
11, 52020, Note_on_c, 9, 44, 100
11, 52080, Note_on_c, 9, 44, 0
11, 52080, Note_on_c, 9, 44, 100
11, 52080, Note_on_c, 9, 35, 100
11, 52140, Note_on_c, 9, 35, 0
11, 52140, Note_on_c, 9, 44, 0
11, 52140, Note_on_c, 9, 44, 100
11, 52140, Note_on_c, 9, 35, 100
11, 52200, Note_on_c, 9, 35, 0
11, 52200, Note_on_c, 9, 44, 0
11, 52200, Note_on_c, 9, 38, 100
11, 52200, Note_on_c, 9, 50, 100
11, 52200, Note_on_c, 9, 44, 100
11, 52260, Note_on_c, 9, 44, 0
11, 52260, Note_on_c, 9, 50, 0
11, 52260, Note_on_c, 9, 38, 0
11, 52260, Note_on_c, 9, 44, 100
11, 52320, Note_on_c, 9, 44, 0
11, 52320, Note_on_c, 9, 35, 100
11, 52320, Note_on_c, 9, 44, 100
11, 52380, Note_on_c, 9, 44, 0
11, 52380, Note_on_c, 9, 35, 0
11, 52380, Note_on_c, 9, 44, 100
11, 52440, Note_on_c, 9, 44, 0
11, 52440, Note_on_c, 9, 50, 100
11, 52440, Note_on_c, 9, 44, 100
11, 52440, Note_on_c, 9, 38, 100
11, 52500, Note_on_c, 9, 38, 0
11, 52500, Note_on_c, 9, 44, 0
11, 52500, Note_on_c, 9, 50, 0
11, 52500, Note_on_c, 9, 44, 100
11, 52560, Note_on_c, 9, 44, 0
11, 52560, Note_on_c, 9, 35, 100
11, 52560, Note_on_c, 9, 44, 100
11, 52620, Note_on_c, 9, 44, 0
11, 52620, Note_on_c, 9, 35, 0
11, 52620, Note_on_c, 9, 35, 100
11, 52620, Note_on_c, 9, 44, 100
11, 52680, Note_on_c, 9, 44, 0
11, 52680, Note_on_c, 9, 35, 0
11, 52680, Note_on_c, 9, 50, 100
11, 52680, Note_on_c, 9, 44, 100
11, 52680, Note_on_c, 9, 38, 100
11, 52740, Note_on_c, 9, 38, 0
11, 52740, Note_on_c, 9, 44, 0
11, 52740, Note_on_c, 9, 50, 0
11, 52740, Note_on_c, 9, 44, 100
11, 52740, Note_on_c, 9, 35, 100
11, 52800, Note_on_c, 9, 35, 0
11, 52800, Note_on_c, 9, 44, 0
11, 52800, Note_on_c, 9, 44, 100
11, 52800, Note_on_c, 9, 49, 100
11, 52800, Note_on_c, 9, 35, 100
11, 52860, Note_on_c, 9, 35, 0
11, 52860, Note_on_c, 9, 44, 0
11, 52860, Note_on_c, 9, 44, 100
11, 52920, Note_on_c, 9, 44, 0
11, 52920, Note_on_c, 9, 49, 0
11, 52920, Note_on_c, 9, 44, 100
11, 52920, Note_on_c, 9, 38, 100
11, 52980, Note_on_c, 9, 38, 0
11, 52980, Note_on_c, 9, 44, 0
11, 52980, Note_on_c, 9, 44, 100
11, 53040, Note_on_c, 9, 44, 0
11, 53040, Note_on_c, 9, 44, 100
11, 53040, Note_on_c, 9, 35, 100
11, 53100, Note_on_c, 9, 35, 0
11, 53100, Note_on_c, 9, 44, 0
11, 53100, Note_on_c, 9, 35, 100
11, 53100, Note_on_c, 9, 44, 100
11, 53160, Note_on_c, 9, 44, 0
11, 53160, Note_on_c, 9, 35, 0
11, 53160, Note_on_c, 9, 35, 100
11, 53160, Note_on_c, 9, 40, 100
11, 53220, Note_on_c, 9, 40, 0
11, 53220, Note_on_c, 9, 35, 0
11, 53220, Note_on_c, 9, 35, 100
11, 53220, Note_on_c, 9, 49, 100
11, 53280, Note_on_c, 9, 49, 0
11, 53280, Note_on_c, 9, 35, 0
11, 53340, Note_on_c, 9, 38, 100
11, 53400, Note_on_c, 9, 38, 0
11, 53460, Note_on_c, 9, 38, 100
11, 53520, Note_on_c, 9, 38, 0
11, 53580, Note_on_c, 9, 38, 100
11, 53640, Note_on_c, 9, 38, 0
11, 53640, Note_on_c, 9, 38, 100
11, 53670, Note_on_c, 9, 38, 100
11, 53700, Note_on_c, 9, 38, 0
11, 53700, Note_on_c, 9, 38, 0
11, 53700, Note_on_c, 9, 36, 100
11, 53760, Note_on_c, 9, 36, 0
11, 53760, Note_on_c, 9, 35, 100
11, 53760, Note_on_c, 9, 49, 100
11, 53760, Note_on_c, 9, 44, 100
11, 53820, Note_on_c, 9, 44, 0
11, 53820, Note_on_c, 9, 49, 0
11, 53820, Note_on_c, 9, 35, 0
11, 53820, Note_on_c, 9, 44, 100
11, 53880, Note_on_c, 9, 44, 0
11, 53880, Note_on_c, 9, 44, 100
11, 53880, Note_on_c, 9, 50, 100
11, 53880, Note_on_c, 9, 38, 100
11, 53940, Note_on_c, 9, 38, 0
11, 53940, Note_on_c, 9, 50, 0
11, 53940, Note_on_c, 9, 44, 0
11, 53940, Note_on_c, 9, 44, 100
11, 54000, Note_on_c, 9, 44, 0
11, 54000, Note_on_c, 9, 35, 100
11, 54000, Note_on_c, 9, 44, 100
11, 54060, Note_on_c, 9, 44, 0
11, 54060, Note_on_c, 9, 35, 0
11, 54060, Note_on_c, 9, 35, 100
11, 54060, Note_on_c, 9, 44, 100
11, 54120, Note_on_c, 9, 44, 0
11, 54120, Note_on_c, 9, 35, 0
11, 54120, Note_on_c, 9, 44, 100
11, 54120, Note_on_c, 9, 50, 100
11, 54120, Note_on_c, 9, 38, 100
11, 54180, Note_on_c, 9, 38, 0
11, 54180, Note_on_c, 9, 50, 0
11, 54180, Note_on_c, 9, 44, 0
11, 54180, Note_on_c, 9, 44, 100
11, 54235, Note_on_c, 9, 44, 100
11, 54235, Note_on_c, 9, 35, 100
11, 54240, Note_on_c, 9, 44, 0
11, 54295, Note_on_c, 9, 35, 0
11, 54295, Note_on_c, 9, 44, 0
11, 54295, Note_on_c, 9, 44, 100
11, 54355, Note_on_c, 9, 44, 0
11, 54355, Note_on_c, 9, 44, 100
11, 54355, Note_on_c, 9, 38, 100
11, 54360, Note_on_c, 9, 50, 100
11, 54415, Note_on_c, 9, 38, 0
11, 54415, Note_on_c, 9, 44, 0
11, 54415, Note_on_c, 9, 44, 100
11, 54420, Note_on_c, 9, 50, 0
11, 54475, Note_on_c, 9, 44, 0
11, 54475, Note_on_c, 9, 35, 100
11, 54475, Note_on_c, 9, 44, 100
11, 54535, Note_on_c, 9, 44, 0
11, 54535, Note_on_c, 9, 35, 0
11, 54535, Note_on_c, 9, 35, 100
11, 54535, Note_on_c, 9, 44, 100
11, 54595, Note_on_c, 9, 44, 0
11, 54595, Note_on_c, 9, 35, 0
11, 54595, Note_on_c, 9, 38, 100
11, 54595, Note_on_c, 9, 44, 100
11, 54600, Note_on_c, 9, 50, 100
11, 54655, Note_on_c, 9, 44, 0
11, 54655, Note_on_c, 9, 38, 0
11, 54655, Note_on_c, 9, 44, 100
11, 54660, Note_on_c, 9, 50, 0
11, 54715, Note_on_c, 9, 44, 0
11, 54715, Note_on_c, 9, 44, 100
11, 54715, Note_on_c, 9, 35, 100
11, 54720, Note_on_c, 9, 49, 100
11, 54775, Note_on_c, 9, 35, 0
11, 54775, Note_on_c, 9, 44, 0
11, 54775, Note_on_c, 9, 44, 100
11, 54835, Note_on_c, 9, 44, 0
11, 54835, Note_on_c, 9, 38, 100
11, 54835, Note_on_c, 9, 44, 100
11, 54840, Note_on_c, 9, 49, 0
11, 54840, Note_on_c, 9, 50, 100
11, 54895, Note_on_c, 9, 44, 0
11, 54895, Note_on_c, 9, 38, 0
11, 54895, Note_on_c, 9, 44, 100
11, 54900, Note_on_c, 9, 50, 0
11, 54955, Note_on_c, 9, 44, 0
11, 54955, Note_on_c, 9, 35, 100
11, 54955, Note_on_c, 9, 44, 100
11, 55015, Note_on_c, 9, 44, 0
11, 55015, Note_on_c, 9, 35, 0
11, 55015, Note_on_c, 9, 35, 100
11, 55015, Note_on_c, 9, 44, 100
11, 55075, Note_on_c, 9, 44, 0
11, 55075, Note_on_c, 9, 35, 0
11, 55075, Note_on_c, 9, 38, 100
11, 55075, Note_on_c, 9, 44, 100
11, 55080, Note_on_c, 9, 50, 100
11, 55135, Note_on_c, 9, 44, 0
11, 55135, Note_on_c, 9, 38, 0
11, 55135, Note_on_c, 9, 44, 100
11, 55140, Note_on_c, 9, 50, 0
11, 55195, Note_on_c, 9, 44, 0
11, 55195, Note_on_c, 9, 44, 100
11, 55195, Note_on_c, 9, 35, 100
11, 55255, Note_on_c, 9, 35, 0
11, 55255, Note_on_c, 9, 44, 0
11, 55255, Note_on_c, 9, 44, 100
11, 55315, Note_on_c, 9, 44, 0
11, 55315, Note_on_c, 9, 38, 100
11, 55315, Note_on_c, 9, 44, 100
11, 55320, Note_on_c, 9, 50, 100
11, 55375, Note_on_c, 9, 44, 0
11, 55375, Note_on_c, 9, 38, 0
11, 55375, Note_on_c, 9, 44, 100
11, 55380, Note_on_c, 9, 50, 0
11, 55435, Note_on_c, 9, 44, 0
11, 55435, Note_on_c, 9, 35, 100
11, 55435, Note_on_c, 9, 44, 100
11, 55495, Note_on_c, 9, 44, 0
11, 55495, Note_on_c, 9, 35, 0
11, 55495, Note_on_c, 9, 35, 100
11, 55495, Note_on_c, 9, 44, 100
11, 55555, Note_on_c, 9, 44, 0
11, 55555, Note_on_c, 9, 35, 0
11, 55555, Note_on_c, 9, 38, 100
11, 55555, Note_on_c, 9, 44, 100
11, 55560, Note_on_c, 9, 50, 100
11, 55615, Note_on_c, 9, 44, 0
11, 55615, Note_on_c, 9, 38, 0
11, 55615, Note_on_c, 9, 44, 100
11, 55620, Note_on_c, 9, 50, 0
11, 55675, Note_on_c, 9, 44, 0
11, 55680, Note_on_c, 9, 49, 100
11, 55680, Note_on_c, 9, 44, 100
11, 55680, Note_on_c, 9, 35, 100
11, 55740, Note_on_c, 9, 35, 0
11, 55740, Note_on_c, 9, 44, 0
11, 55740, Note_on_c, 9, 49, 0
11, 55740, Note_on_c, 9, 44, 100
11, 55800, Note_on_c, 9, 44, 0
11, 55800, Note_on_c, 9, 50, 100
11, 55800, Note_on_c, 9, 38, 100
11, 55800, Note_on_c, 9, 44, 100
11, 55860, Note_on_c, 9, 44, 0
11, 55860, Note_on_c, 9, 38, 0
11, 55860, Note_on_c, 9, 50, 0
11, 55860, Note_on_c, 9, 44, 100
11, 55920, Note_on_c, 9, 44, 0
11, 55920, Note_on_c, 9, 35, 100
11, 55920, Note_on_c, 9, 44, 100
11, 55980, Note_on_c, 9, 44, 0
11, 55980, Note_on_c, 9, 35, 0
11, 55980, Note_on_c, 9, 35, 100
11, 55980, Note_on_c, 9, 44, 100
11, 56040, Note_on_c, 9, 44, 0
11, 56040, Note_on_c, 9, 35, 0
11, 56040, Note_on_c, 9, 50, 100
11, 56040, Note_on_c, 9, 38, 100
11, 56040, Note_on_c, 9, 44, 100
11, 56100, Note_on_c, 9, 44, 0
11, 56100, Note_on_c, 9, 38, 0
11, 56100, Note_on_c, 9, 50, 0
11, 56100, Note_on_c, 9, 44, 100
11, 56160, Note_on_c, 9, 44, 0
11, 56160, Note_on_c, 9, 44, 100
11, 56160, Note_on_c, 9, 35, 100
11, 56220, Note_on_c, 9, 35, 0
11, 56220, Note_on_c, 9, 44, 0
11, 56220, Note_on_c, 9, 44, 100
11, 56280, Note_on_c, 9, 44, 0
11, 56280, Note_on_c, 9, 44, 100
11, 56280, Note_on_c, 9, 38, 100
11, 56280, Note_on_c, 9, 50, 100
11, 56340, Note_on_c, 9, 50, 0
11, 56340, Note_on_c, 9, 38, 0
11, 56340, Note_on_c, 9, 44, 0
11, 56340, Note_on_c, 9, 44, 100
11, 56400, Note_on_c, 9, 44, 0
11, 56400, Note_on_c, 9, 35, 100
11, 56400, Note_on_c, 9, 44, 100
11, 56460, Note_on_c, 9, 44, 0
11, 56460, Note_on_c, 9, 35, 0
11, 56460, Note_on_c, 9, 35, 100
11, 56460, Note_on_c, 9, 44, 100
11, 56520, Note_on_c, 9, 44, 0
11, 56520, Note_on_c, 9, 35, 0
11, 56520, Note_on_c, 9, 44, 100
11, 56520, Note_on_c, 9, 38, 100
11, 56520, Note_on_c, 9, 50, 100
11, 56580, Note_on_c, 9, 50, 0
11, 56580, Note_on_c, 9, 38, 0
11, 56580, Note_on_c, 9, 44, 0
11, 56580, Note_on_c, 9, 35, 100
11, 56580, Note_on_c, 9, 44, 100
11, 56640, Note_on_c, 9, 44, 0
11, 56640, Note_on_c, 9, 35, 0
11, 56640, Note_on_c, 9, 49, 100
11, 56640, Note_on_c, 9, 44, 100
11, 56640, Note_on_c, 9, 35, 100
11, 56700, Note_on_c, 9, 35, 0
11, 56700, Note_on_c, 9, 44, 0
11, 56700, Note_on_c, 9, 44, 100
11, 56760, Note_on_c, 9, 44, 0
11, 56760, Note_on_c, 9, 49, 0
11, 56760, Note_on_c, 9, 38, 100
11, 56760, Note_on_c, 9, 44, 100
11, 56820, Note_on_c, 9, 44, 0
11, 56820, Note_on_c, 9, 38, 0
11, 56820, Note_on_c, 9, 44, 100
11, 56880, Note_on_c, 9, 44, 0
11, 56880, Note_on_c, 9, 44, 100
11, 56880, Note_on_c, 9, 35, 100
11, 56940, Note_on_c, 9, 35, 0
11, 56940, Note_on_c, 9, 44, 0
11, 56940, Note_on_c, 9, 35, 100
11, 56940, Note_on_c, 9, 44, 100
11, 57000, Note_on_c, 9, 44, 0
11, 57000, Note_on_c, 9, 35, 0
11, 57000, Note_on_c, 9, 35, 100
11, 57000, Note_on_c, 9, 40, 100
11, 57060, Note_on_c, 9, 40, 0
11, 57060, Note_on_c, 9, 35, 0
11, 57060, Note_on_c, 9, 35, 100
11, 57060, Note_on_c, 9, 49, 100
11, 57120, Note_on_c, 9, 49, 0
11, 57120, Note_on_c, 9, 35, 0
11, 57180, Note_on_c, 9, 38, 100
11, 57240, Note_on_c, 9, 38, 0
11, 57300, Note_on_c, 9, 38, 100
11, 57360, Note_on_c, 9, 38, 0
11, 57420, Note_on_c, 9, 38, 100
11, 57480, Note_on_c, 9, 38, 0
11, 57480, Note_on_c, 9, 38, 100
11, 57510, Note_on_c, 9, 38, 100
11, 57540, Note_on_c, 9, 38, 0
11, 57540, Note_on_c, 9, 38, 0
11, 57540, Note_on_c, 9, 36, 100
11, 57600, Note_on_c, 9, 36, 0
11, 57600, Note_on_c, 9, 49, 100
11, 57600, Note_on_c, 9, 44, 100
11, 57600, Note_on_c, 9, 35, 100
11, 57660, Note_on_c, 9, 35, 0
11, 57660, Note_on_c, 9, 44, 0
11, 57660, Note_on_c, 9, 49, 0
11, 57660, Note_on_c, 9, 44, 100
11, 57720, Note_on_c, 9, 44, 0
11, 57720, Note_on_c, 9, 50, 100
11, 57720, Note_on_c, 9, 38, 100
11, 57720, Note_on_c, 9, 44, 100
11, 57780, Note_on_c, 9, 44, 0
11, 57780, Note_on_c, 9, 38, 0
11, 57780, Note_on_c, 9, 50, 0
11, 57780, Note_on_c, 9, 44, 100
11, 57840, Note_on_c, 9, 44, 0
11, 57840, Note_on_c, 9, 35, 100
11, 57840, Note_on_c, 9, 44, 100
11, 57900, Note_on_c, 9, 44, 0
11, 57900, Note_on_c, 9, 35, 0
11, 57900, Note_on_c, 9, 35, 100
11, 57900, Note_on_c, 9, 44, 100
11, 57960, Note_on_c, 9, 44, 0
11, 57960, Note_on_c, 9, 35, 0
11, 57960, Note_on_c, 9, 50, 100
11, 57960, Note_on_c, 9, 38, 100
11, 57960, Note_on_c, 9, 44, 100
11, 58020, Note_on_c, 9, 44, 0
11, 58020, Note_on_c, 9, 38, 0
11, 58020, Note_on_c, 9, 50, 0
11, 58020, Note_on_c, 9, 44, 100
11, 58075, Note_on_c, 9, 44, 100
11, 58075, Note_on_c, 9, 35, 100
11, 58080, Note_on_c, 9, 44, 0
11, 58135, Note_on_c, 9, 35, 0
11, 58135, Note_on_c, 9, 44, 0
11, 58135, Note_on_c, 9, 44, 100
11, 58195, Note_on_c, 9, 44, 0
11, 58195, Note_on_c, 9, 38, 100
11, 58195, Note_on_c, 9, 44, 100
11, 58200, Note_on_c, 9, 50, 100
11, 58255, Note_on_c, 9, 44, 0
11, 58255, Note_on_c, 9, 38, 0
11, 58255, Note_on_c, 9, 44, 100
11, 58260, Note_on_c, 9, 50, 0
11, 58315, Note_on_c, 9, 44, 0
11, 58315, Note_on_c, 9, 35, 100
11, 58315, Note_on_c, 9, 44, 100
11, 58375, Note_on_c, 9, 44, 0
11, 58375, Note_on_c, 9, 35, 0
11, 58375, Note_on_c, 9, 35, 100
11, 58375, Note_on_c, 9, 44, 100
11, 58435, Note_on_c, 9, 44, 0
11, 58435, Note_on_c, 9, 35, 0
11, 58435, Note_on_c, 9, 38, 100
11, 58435, Note_on_c, 9, 44, 100
11, 58440, Note_on_c, 9, 50, 100
11, 58495, Note_on_c, 9, 44, 0
11, 58495, Note_on_c, 9, 38, 0
11, 58495, Note_on_c, 9, 44, 100
11, 58500, Note_on_c, 9, 50, 0
11, 58555, Note_on_c, 9, 44, 0
11, 58555, Note_on_c, 9, 44, 100
11, 58555, Note_on_c, 9, 35, 100
11, 58560, Note_on_c, 9, 49, 100
11, 58615, Note_on_c, 9, 35, 0
11, 58615, Note_on_c, 9, 44, 0
11, 58615, Note_on_c, 9, 44, 100
11, 58675, Note_on_c, 9, 44, 0
11, 58675, Note_on_c, 9, 44, 100
11, 58675, Note_on_c, 9, 38, 100
11, 58680, Note_on_c, 9, 49, 0
11, 58680, Note_on_c, 9, 50, 100
11, 58735, Note_on_c, 9, 38, 0
11, 58735, Note_on_c, 9, 44, 0
11, 58735, Note_on_c, 9, 44, 100
11, 58740, Note_on_c, 9, 50, 0
11, 58795, Note_on_c, 9, 44, 0
11, 58795, Note_on_c, 9, 35, 100
11, 58795, Note_on_c, 9, 44, 100
11, 58855, Note_on_c, 9, 44, 0
11, 58855, Note_on_c, 9, 35, 0
11, 58855, Note_on_c, 9, 35, 100
11, 58855, Note_on_c, 9, 44, 100
11, 58915, Note_on_c, 9, 44, 0
11, 58915, Note_on_c, 9, 35, 0
11, 58915, Note_on_c, 9, 38, 100
11, 58915, Note_on_c, 9, 44, 100
11, 58920, Note_on_c, 9, 50, 100
11, 58975, Note_on_c, 9, 44, 0
11, 58975, Note_on_c, 9, 38, 0
11, 58975, Note_on_c, 9, 44, 100
11, 58980, Note_on_c, 9, 50, 0
11, 59035, Note_on_c, 9, 44, 0
11, 59035, Note_on_c, 9, 44, 100
11, 59035, Note_on_c, 9, 35, 100
11, 59095, Note_on_c, 9, 35, 0
11, 59095, Note_on_c, 9, 44, 0
11, 59095, Note_on_c, 9, 44, 100
11, 59155, Note_on_c, 9, 44, 0
11, 59155, Note_on_c, 9, 38, 100
11, 59155, Note_on_c, 9, 44, 100
11, 59160, Note_on_c, 9, 50, 100
11, 59215, Note_on_c, 9, 44, 0
11, 59215, Note_on_c, 9, 38, 0
11, 59215, Note_on_c, 9, 44, 100
11, 59220, Note_on_c, 9, 50, 0
11, 59275, Note_on_c, 9, 44, 0
11, 59275, Note_on_c, 9, 35, 100
11, 59275, Note_on_c, 9, 44, 100
11, 59335, Note_on_c, 9, 44, 0
11, 59335, Note_on_c, 9, 35, 0
11, 59335, Note_on_c, 9, 35, 100
11, 59335, Note_on_c, 9, 44, 100
11, 59395, Note_on_c, 9, 44, 0
11, 59395, Note_on_c, 9, 35, 0
11, 59395, Note_on_c, 9, 38, 100
11, 59395, Note_on_c, 9, 44, 100
11, 59400, Note_on_c, 9, 50, 100
11, 59455, Note_on_c, 9, 44, 0
11, 59455, Note_on_c, 9, 38, 0
11, 59455, Note_on_c, 9, 44, 100
11, 59460, Note_on_c, 9, 50, 0
11, 59515, Note_on_c, 9, 44, 0
11, 59520, Note_on_c, 9, 49, 100
11, 59520, Note_on_c, 9, 44, 100
11, 59520, Note_on_c, 9, 35, 100
11, 59580, Note_on_c, 9, 35, 0
11, 59580, Note_on_c, 9, 44, 0
11, 59580, Note_on_c, 9, 49, 0
11, 59580, Note_on_c, 9, 44, 100
11, 59640, Note_on_c, 9, 44, 0
11, 59640, Note_on_c, 9, 50, 100
11, 59640, Note_on_c, 9, 38, 100
11, 59640, Note_on_c, 9, 44, 100
11, 59700, Note_on_c, 9, 44, 0
11, 59700, Note_on_c, 9, 38, 0
11, 59700, Note_on_c, 9, 50, 0
11, 59700, Note_on_c, 9, 44, 100
11, 59760, Note_on_c, 9, 44, 0
11, 59760, Note_on_c, 9, 35, 100
11, 59760, Note_on_c, 9, 44, 100
11, 59820, Note_on_c, 9, 44, 0
11, 59820, Note_on_c, 9, 35, 0
11, 59820, Note_on_c, 9, 35, 100
11, 59820, Note_on_c, 9, 44, 100
11, 59880, Note_on_c, 9, 44, 0
11, 59880, Note_on_c, 9, 35, 0
11, 59880, Note_on_c, 9, 50, 100
11, 59880, Note_on_c, 9, 44, 100
11, 59880, Note_on_c, 9, 38, 100
11, 59940, Note_on_c, 9, 38, 0
11, 59940, Note_on_c, 9, 44, 0
11, 59940, Note_on_c, 9, 50, 0
11, 59940, Note_on_c, 9, 44, 100
11, 60000, Note_on_c, 9, 44, 0
11, 60000, Note_on_c, 9, 44, 100
11, 60000, Note_on_c, 9, 35, 100
11, 60060, Note_on_c, 9, 35, 0
11, 60060, Note_on_c, 9, 44, 0
11, 60060, Note_on_c, 9, 44, 100
11, 60120, Note_on_c, 9, 44, 0
11, 60120, Note_on_c, 9, 38, 100
11, 60120, Note_on_c, 9, 50, 100
11, 60120, Note_on_c, 9, 44, 100
11, 60180, Note_on_c, 9, 44, 0
11, 60180, Note_on_c, 9, 50, 0
11, 60180, Note_on_c, 9, 38, 0
11, 60180, Note_on_c, 9, 44, 100
11, 60240, Note_on_c, 9, 44, 0
11, 60240, Note_on_c, 9, 44, 100
11, 60240, Note_on_c, 9, 35, 100
11, 60300, Note_on_c, 9, 35, 0
11, 60300, Note_on_c, 9, 44, 0
11, 60300, Note_on_c, 9, 44, 100
11, 60300, Note_on_c, 9, 35, 100
11, 60360, Note_on_c, 9, 35, 0
11, 60360, Note_on_c, 9, 44, 0
11, 60360, Note_on_c, 9, 38, 100
11, 60360, Note_on_c, 9, 50, 100
11, 60360, Note_on_c, 9, 44, 100
11, 60420, Note_on_c, 9, 44, 0
11, 60420, Note_on_c, 9, 50, 0
11, 60420, Note_on_c, 9, 38, 0
11, 60420, Note_on_c, 9, 35, 100
11, 60420, Note_on_c, 9, 44, 100
11, 60480, Note_on_c, 9, 44, 0
11, 60480, Note_on_c, 9, 35, 0
11, 60480, Note_on_c, 9, 49, 100
11, 60480, Note_on_c, 9, 35, 100
11, 60480, Note_on_c, 9, 44, 100
11, 60540, Note_on_c, 9, 44, 0
11, 60540, Note_on_c, 9, 35, 0
11, 60540, Note_on_c, 9, 44, 100
11, 60600, Note_on_c, 9, 44, 0
11, 60600, Note_on_c, 9, 49, 0
11, 60600, Note_on_c, 9, 38, 100
11, 60600, Note_on_c, 9, 44, 100
11, 60660, Note_on_c, 9, 44, 0
11, 60660, Note_on_c, 9, 38, 0
11, 60660, Note_on_c, 9, 44, 100
11, 60720, Note_on_c, 9, 44, 0
11, 60720, Note_on_c, 9, 35, 100
11, 60720, Note_on_c, 9, 44, 100
11, 60780, Note_on_c, 9, 44, 0
11, 60780, Note_on_c, 9, 35, 0
11, 60780, Note_on_c, 9, 44, 100
11, 60780, Note_on_c, 9, 35, 100
11, 60840, Note_on_c, 9, 35, 0
11, 60840, Note_on_c, 9, 44, 0
11, 60840, Note_on_c, 9, 40, 100
11, 60840, Note_on_c, 9, 35, 100
11, 60900, Note_on_c, 9, 35, 0
11, 60900, Note_on_c, 9, 40, 0
11, 60900, Note_on_c, 9, 49, 100
11, 60900, Note_on_c, 9, 35, 100
11, 60960, Note_on_c, 9, 35, 0
11, 60960, Note_on_c, 9, 49, 0
11, 61020, Note_on_c, 9, 38, 100
11, 61080, Note_on_c, 9, 38, 0
11, 61140, Note_on_c, 9, 38, 100
11, 61200, Note_on_c, 9, 38, 0
11, 61260, Note_on_c, 9, 38, 100
11, 61320, Note_on_c, 9, 38, 0
11, 61320, Note_on_c, 9, 38, 100
11, 61350, Note_on_c, 9, 38, 100
11, 61380, Note_on_c, 9, 38, 0
11, 61380, Note_on_c, 9, 38, 0
11, 61380, Note_on_c, 9, 36, 100
11, 61440, Note_on_c, 9, 36, 0
11, 61440, Note_on_c, 9, 44, 100
11, 61440, Note_on_c, 9, 49, 100
11, 61440, Note_on_c, 9, 35, 100
11, 61500, Note_on_c, 9, 35, 0
11, 61500, Note_on_c, 9, 49, 0
11, 61500, Note_on_c, 9, 44, 0
11, 61500, Note_on_c, 9, 44, 100
11, 61560, Note_on_c, 9, 44, 0
11, 61560, Note_on_c, 9, 38, 100
11, 61560, Note_on_c, 9, 50, 100
11, 61560, Note_on_c, 9, 44, 100
11, 61620, Note_on_c, 9, 44, 0
11, 61620, Note_on_c, 9, 50, 0
11, 61620, Note_on_c, 9, 38, 0
11, 61620, Note_on_c, 9, 44, 100
11, 61680, Note_on_c, 9, 44, 0
11, 61680, Note_on_c, 9, 44, 100
11, 61680, Note_on_c, 9, 35, 100
11, 61740, Note_on_c, 9, 35, 0
11, 61740, Note_on_c, 9, 44, 0
11, 61740, Note_on_c, 9, 44, 100
11, 61740, Note_on_c, 9, 35, 100
11, 61800, Note_on_c, 9, 35, 0
11, 61800, Note_on_c, 9, 44, 0
11, 61800, Note_on_c, 9, 38, 100
11, 61800, Note_on_c, 9, 50, 100
11, 61800, Note_on_c, 9, 44, 100
11, 61860, Note_on_c, 9, 44, 0
11, 61860, Note_on_c, 9, 50, 0
11, 61860, Note_on_c, 9, 38, 0
11, 61860, Note_on_c, 9, 44, 100
11, 61915, Note_on_c, 9, 35, 100
11, 61915, Note_on_c, 9, 44, 100
11, 61920, Note_on_c, 9, 44, 0
11, 61975, Note_on_c, 9, 44, 0
11, 61975, Note_on_c, 9, 35, 0
11, 61975, Note_on_c, 9, 44, 100
11, 62035, Note_on_c, 9, 44, 0
11, 62035, Note_on_c, 9, 38, 100
11, 62035, Note_on_c, 9, 44, 100
11, 62040, Note_on_c, 9, 50, 100
11, 62095, Note_on_c, 9, 44, 0
11, 62095, Note_on_c, 9, 38, 0
11, 62095, Note_on_c, 9, 44, 100
11, 62100, Note_on_c, 9, 50, 0
11, 62155, Note_on_c, 9, 44, 0
11, 62155, Note_on_c, 9, 35, 100
11, 62155, Note_on_c, 9, 44, 100
11, 62215, Note_on_c, 9, 44, 0
11, 62215, Note_on_c, 9, 35, 0
11, 62215, Note_on_c, 9, 35, 100
11, 62215, Note_on_c, 9, 44, 100
11, 62275, Note_on_c, 9, 44, 0
11, 62275, Note_on_c, 9, 35, 0
11, 62275, Note_on_c, 9, 38, 100
11, 62275, Note_on_c, 9, 44, 100
11, 62280, Note_on_c, 9, 50, 100
11, 62335, Note_on_c, 9, 44, 0
11, 62335, Note_on_c, 9, 38, 0
11, 62335, Note_on_c, 9, 44, 100
11, 62340, Note_on_c, 9, 50, 0
11, 62395, Note_on_c, 9, 44, 0
11, 62395, Note_on_c, 9, 44, 100
11, 62395, Note_on_c, 9, 35, 100
11, 62400, Note_on_c, 9, 49, 100
11, 62455, Note_on_c, 9, 35, 0
11, 62455, Note_on_c, 9, 44, 0
11, 62455, Note_on_c, 9, 44, 100
11, 62515, Note_on_c, 9, 44, 0
11, 62515, Note_on_c, 9, 38, 100
11, 62515, Note_on_c, 9, 44, 100
11, 62520, Note_on_c, 9, 49, 0
11, 62520, Note_on_c, 9, 50, 100
11, 62575, Note_on_c, 9, 44, 0
11, 62575, Note_on_c, 9, 38, 0
11, 62575, Note_on_c, 9, 44, 100
11, 62580, Note_on_c, 9, 50, 0
11, 62635, Note_on_c, 9, 44, 0
11, 62635, Note_on_c, 9, 35, 100
11, 62635, Note_on_c, 9, 44, 100
11, 62695, Note_on_c, 9, 44, 0
11, 62695, Note_on_c, 9, 35, 0
11, 62695, Note_on_c, 9, 35, 100
11, 62695, Note_on_c, 9, 44, 100
11, 62755, Note_on_c, 9, 44, 0
11, 62755, Note_on_c, 9, 35, 0
11, 62755, Note_on_c, 9, 38, 100
11, 62755, Note_on_c, 9, 44, 100
11, 62760, Note_on_c, 9, 50, 100
11, 62815, Note_on_c, 9, 44, 0
11, 62815, Note_on_c, 9, 38, 0
11, 62815, Note_on_c, 9, 44, 100
11, 62820, Note_on_c, 9, 50, 0
11, 62875, Note_on_c, 9, 44, 0
11, 62875, Note_on_c, 9, 44, 100
11, 62875, Note_on_c, 9, 35, 100
11, 62935, Note_on_c, 9, 35, 0
11, 62935, Note_on_c, 9, 44, 0
11, 62935, Note_on_c, 9, 44, 100
11, 62995, Note_on_c, 9, 44, 0
11, 62995, Note_on_c, 9, 44, 100
11, 62995, Note_on_c, 9, 38, 100
11, 63000, Note_on_c, 9, 50, 100
11, 63055, Note_on_c, 9, 38, 0
11, 63055, Note_on_c, 9, 44, 0
11, 63055, Note_on_c, 9, 44, 100
11, 63060, Note_on_c, 9, 50, 0
11, 63115, Note_on_c, 9, 44, 0
11, 63115, Note_on_c, 9, 35, 100
11, 63115, Note_on_c, 9, 44, 100
11, 63175, Note_on_c, 9, 44, 0
11, 63175, Note_on_c, 9, 35, 0
11, 63175, Note_on_c, 9, 35, 100
11, 63175, Note_on_c, 9, 44, 100
11, 63235, Note_on_c, 9, 44, 0
11, 63235, Note_on_c, 9, 35, 0
11, 63235, Note_on_c, 9, 38, 100
11, 63235, Note_on_c, 9, 44, 100
11, 63240, Note_on_c, 9, 50, 100
11, 63295, Note_on_c, 9, 44, 0
11, 63295, Note_on_c, 9, 38, 0
11, 63295, Note_on_c, 9, 44, 100
11, 63300, Note_on_c, 9, 50, 0
11, 63355, Note_on_c, 9, 44, 0
11, 63360, Note_on_c, 9, 49, 100
11, 63360, Note_on_c, 9, 44, 100
11, 63360, Note_on_c, 9, 35, 100
11, 63420, Note_on_c, 9, 35, 0
11, 63420, Note_on_c, 9, 44, 0
11, 63420, Note_on_c, 9, 49, 0
11, 63420, Note_on_c, 9, 44, 100
11, 63480, Note_on_c, 9, 44, 0
11, 63480, Note_on_c, 9, 50, 100
11, 63480, Note_on_c, 9, 38, 100
11, 63480, Note_on_c, 9, 44, 100
11, 63540, Note_on_c, 9, 44, 0
11, 63540, Note_on_c, 9, 38, 0
11, 63540, Note_on_c, 9, 50, 0
11, 63540, Note_on_c, 9, 44, 100
11, 63600, Note_on_c, 9, 44, 0
11, 63600, Note_on_c, 9, 35, 100
11, 63600, Note_on_c, 9, 44, 100
11, 63660, Note_on_c, 9, 44, 0
11, 63660, Note_on_c, 9, 35, 0
11, 63660, Note_on_c, 9, 35, 100
11, 63660, Note_on_c, 9, 44, 100
11, 63720, Note_on_c, 9, 44, 0
11, 63720, Note_on_c, 9, 35, 0
11, 63720, Note_on_c, 9, 50, 100
11, 63720, Note_on_c, 9, 38, 100
11, 63720, Note_on_c, 9, 44, 100
11, 63780, Note_on_c, 9, 44, 0
11, 63780, Note_on_c, 9, 38, 0
11, 63780, Note_on_c, 9, 50, 0
11, 63780, Note_on_c, 9, 44, 100
11, 63840, Note_on_c, 9, 44, 0
11, 63840, Note_on_c, 9, 44, 100
11, 63840, Note_on_c, 9, 35, 100
11, 63900, Note_on_c, 9, 35, 0
11, 63900, Note_on_c, 9, 44, 0
11, 63900, Note_on_c, 9, 44, 100
11, 63960, Note_on_c, 9, 44, 0
11, 63960, Note_on_c, 9, 50, 100
11, 63960, Note_on_c, 9, 38, 100
11, 63960, Note_on_c, 9, 44, 100
11, 64020, Note_on_c, 9, 44, 0
11, 64020, Note_on_c, 9, 38, 0
11, 64020, Note_on_c, 9, 50, 0
11, 64020, Note_on_c, 9, 44, 100
11, 64080, Note_on_c, 9, 44, 0
11, 64080, Note_on_c, 9, 35, 100
11, 64080, Note_on_c, 9, 44, 100
11, 64140, Note_on_c, 9, 44, 0
11, 64140, Note_on_c, 9, 35, 0
11, 64140, Note_on_c, 9, 35, 100
11, 64140, Note_on_c, 9, 44, 100
11, 64200, Note_on_c, 9, 44, 0
11, 64200, Note_on_c, 9, 35, 0
11, 64200, Note_on_c, 9, 44, 100
11, 64200, Note_on_c, 9, 38, 100
11, 64200, Note_on_c, 9, 50, 100
11, 64260, Note_on_c, 9, 50, 0
11, 64260, Note_on_c, 9, 38, 0
11, 64260, Note_on_c, 9, 44, 0
11, 64260, Note_on_c, 9, 35, 100
11, 64260, Note_on_c, 9, 44, 100
11, 64320, Note_on_c, 9, 44, 0
11, 64320, Note_on_c, 9, 35, 0
11, 64320, Note_on_c, 9, 35, 100
11, 64320, Note_on_c, 9, 44, 100
11, 64320, Note_on_c, 9, 49, 100
11, 64380, Note_on_c, 9, 44, 0
11, 64380, Note_on_c, 9, 35, 0
11, 64380, Note_on_c, 9, 44, 100
11, 64440, Note_on_c, 9, 44, 0
11, 64440, Note_on_c, 9, 49, 0
11, 64440, Note_on_c, 9, 38, 100
11, 64440, Note_on_c, 9, 44, 100
11, 64500, Note_on_c, 9, 44, 0
11, 64500, Note_on_c, 9, 38, 0
11, 64500, Note_on_c, 9, 44, 100
11, 64560, Note_on_c, 9, 44, 0
11, 64560, Note_on_c, 9, 44, 100
11, 64560, Note_on_c, 9, 35, 100
11, 64620, Note_on_c, 9, 35, 0
11, 64620, Note_on_c, 9, 44, 0
11, 64620, Note_on_c, 9, 35, 100
11, 64620, Note_on_c, 9, 44, 100
11, 64680, Note_on_c, 9, 44, 0
11, 64680, Note_on_c, 9, 35, 0
11, 64680, Note_on_c, 9, 35, 100
11, 64680, Note_on_c, 9, 40, 100
11, 64740, Note_on_c, 9, 40, 0
11, 64740, Note_on_c, 9, 35, 0
11, 64740, Note_on_c, 9, 35, 100
11, 64740, Note_on_c, 9, 49, 100
11, 64800, Note_on_c, 9, 49, 0
11, 64800, Note_on_c, 9, 35, 0
11, 64860, Note_on_c, 9, 38, 100
11, 64920, Note_on_c, 9, 38, 0
11, 64960, Control_c, 9, 7, 115
11, 64980, Note_on_c, 9, 38, 100
11, 64986, Control_c, 9, 7, 114
11, 65013, Control_c, 9, 7, 113
11, 65036, Control_c, 9, 7, 112
11, 65040, Note_on_c, 9, 38, 0
11, 65063, Control_c, 9, 7, 111
11, 65090, Control_c, 9, 7, 110
11, 65100, Note_on_c, 9, 38, 100
11, 65113, Control_c, 9, 7, 109
11, 65140, Control_c, 9, 7, 108
11, 65160, Note_on_c, 9, 38, 0
11, 65160, Note_on_c, 9, 38, 100
11, 65163, Control_c, 9, 7, 107
11, 65190, Control_c, 9, 7, 106
11, 65190, Note_on_c, 9, 38, 100
11, 65216, Control_c, 9, 7, 105
11, 65220, Note_on_c, 9, 38, 0
11, 65220, Note_on_c, 9, 38, 0
11, 65220, Note_on_c, 9, 36, 100
11, 65240, Control_c, 9, 7, 104
11, 65266, Control_c, 9, 7, 103
11, 65280, Note_on_c, 9, 36, 0
11, 65280, Note_on_c, 9, 49, 100
11, 65280, Note_on_c, 9, 44, 100
11, 65280, Note_on_c, 9, 35, 100
11, 65293, Control_c, 9, 7, 102
11, 65316, Control_c, 9, 7, 101
11, 65340, Note_on_c, 9, 35, 0
11, 65340, Note_on_c, 9, 44, 0
11, 65340, Note_on_c, 9, 49, 0
11, 65340, Note_on_c, 9, 44, 100
11, 65343, Control_c, 9, 7, 100
11, 65366, Control_c, 9, 7, 99
11, 65393, Control_c, 9, 7, 98
11, 65400, Note_on_c, 9, 44, 0
11, 65400, Note_on_c, 9, 44, 100
11, 65400, Note_on_c, 9, 38, 100
11, 65400, Note_on_c, 9, 50, 100
11, 65420, Control_c, 9, 7, 97
11, 65443, Control_c, 9, 7, 96
11, 65460, Note_on_c, 9, 50, 0
11, 65460, Note_on_c, 9, 38, 0
11, 65460, Note_on_c, 9, 44, 0
11, 65460, Note_on_c, 9, 44, 100
11, 65470, Control_c, 9, 7, 95
11, 65493, Control_c, 9, 7, 94
11, 65520, Note_on_c, 9, 44, 0
11, 65520, Note_on_c, 9, 44, 100
11, 65520, Note_on_c, 9, 35, 100
11, 65520, Control_c, 9, 7, 93
11, 65546, Control_c, 9, 7, 92
11, 65570, Control_c, 9, 7, 91
11, 65580, Note_on_c, 9, 35, 0
11, 65580, Note_on_c, 9, 44, 0
11, 65580, Note_on_c, 9, 35, 100
11, 65580, Note_on_c, 9, 44, 100
11, 65596, Control_c, 9, 7, 90
11, 65623, Control_c, 9, 7, 89
11, 65640, Note_on_c, 9, 44, 0
11, 65640, Note_on_c, 9, 35, 0
11, 65640, Note_on_c, 9, 44, 100
11, 65640, Note_on_c, 9, 38, 100
11, 65640, Note_on_c, 9, 50, 100
11, 65646, Control_c, 9, 7, 88
11, 65673, Control_c, 9, 7, 87
11, 65696, Control_c, 9, 7, 86
11, 65700, Note_on_c, 9, 50, 0
11, 65700, Note_on_c, 9, 38, 0
11, 65700, Note_on_c, 9, 44, 0
11, 65700, Note_on_c, 9, 44, 100
11, 65723, Control_c, 9, 7, 85
11, 65750, Control_c, 9, 7, 84
11, 65755, Note_on_c, 9, 44, 100
11, 65755, Note_on_c, 9, 35, 100
11, 65760, Note_on_c, 9, 44, 0
11, 65773, Control_c, 9, 7, 83
11, 65800, Control_c, 9, 7, 82
11, 65815, Note_on_c, 9, 35, 0
11, 65815, Note_on_c, 9, 44, 0
11, 65815, Note_on_c, 9, 44, 100
11, 65823, Control_c, 9, 7, 81
11, 65850, Control_c, 9, 7, 80
11, 65875, Note_on_c, 9, 44, 0
11, 65875, Note_on_c, 9, 38, 100
11, 65875, Note_on_c, 9, 44, 100
11, 65876, Control_c, 9, 7, 79
11, 65880, Note_on_c, 9, 50, 100
11, 65900, Control_c, 9, 7, 78
11, 65926, Control_c, 9, 7, 77
11, 65935, Note_on_c, 9, 44, 0
11, 65935, Note_on_c, 9, 38, 0
11, 65935, Note_on_c, 9, 44, 100
11, 65940, Note_on_c, 9, 50, 0
11, 65953, Control_c, 9, 7, 76
11, 65976, Control_c, 9, 7, 75
11, 65995, Note_on_c, 9, 44, 0
11, 65995, Note_on_c, 9, 44, 100
11, 65995, Note_on_c, 9, 35, 100
11, 66003, Control_c, 9, 7, 74
11, 66026, Control_c, 9, 7, 73
11, 66053, Control_c, 9, 7, 72
11, 66055, Note_on_c, 9, 35, 0
11, 66055, Note_on_c, 9, 44, 0
11, 66055, Note_on_c, 9, 35, 100
11, 66055, Note_on_c, 9, 44, 100
11, 66080, Control_c, 9, 7, 71
11, 66103, Control_c, 9, 7, 70
11, 66115, Note_on_c, 9, 44, 0
11, 66115, Note_on_c, 9, 35, 0
11, 66115, Note_on_c, 9, 38, 100
11, 66115, Note_on_c, 9, 44, 100
11, 66120, Note_on_c, 9, 50, 100
11, 66130, Control_c, 9, 7, 69
11, 66156, Control_c, 9, 7, 68
11, 66175, Note_on_c, 9, 44, 0
11, 66175, Note_on_c, 9, 38, 0
11, 66175, Note_on_c, 9, 44, 100
11, 66180, Note_on_c, 9, 50, 0
11, 66180, Control_c, 9, 7, 67
11, 66206, Control_c, 9, 7, 66
11, 66230, Control_c, 9, 7, 65
11, 66235, Note_on_c, 9, 44, 0
11, 66235, Note_on_c, 9, 44, 100
11, 66235, Note_on_c, 9, 35, 100
11, 66256, Control_c, 9, 7, 64
11, 66283, Control_c, 9, 7, 63
11, 66295, Note_on_c, 9, 35, 0
11, 66295, Note_on_c, 9, 44, 0
11, 66295, Note_on_c, 9, 44, 100
11, 66306, Control_c, 9, 7, 62
11, 66333, Control_c, 9, 7, 61
11, 66355, Note_on_c, 9, 44, 0
11, 66355, Note_on_c, 9, 38, 100
11, 66355, Note_on_c, 9, 44, 100
11, 66356, Control_c, 9, 7, 60
11, 66360, Note_on_c, 9, 50, 100
11, 66383, Control_c, 9, 7, 59
11, 66410, Control_c, 9, 7, 58
11, 66415, Note_on_c, 9, 44, 0
11, 66415, Note_on_c, 9, 38, 0
11, 66415, Note_on_c, 9, 44, 100
11, 66420, Note_on_c, 9, 50, 0
11, 66433, Control_c, 9, 7, 57
11, 66460, Control_c, 9, 7, 56
11, 66475, Note_on_c, 9, 44, 0
11, 66475, Note_on_c, 9, 35, 100
11, 66475, Note_on_c, 9, 44, 100
11, 66486, Control_c, 9, 7, 55
11, 66510, Control_c, 9, 7, 54
11, 66535, Note_on_c, 9, 44, 0
11, 66535, Note_on_c, 9, 35, 0
11, 66535, Note_on_c, 9, 44, 100
11, 66535, Note_on_c, 9, 35, 100
11, 66536, Control_c, 9, 7, 53
11, 66560, Control_c, 9, 7, 52
11, 66586, Control_c, 9, 7, 51
11, 66595, Note_on_c, 9, 35, 0
11, 66595, Note_on_c, 9, 44, 0
11, 66595, Note_on_c, 9, 38, 100
11, 66595, Note_on_c, 9, 44, 100
11, 66600, Note_on_c, 9, 50, 100
11, 66613, Control_c, 9, 7, 50
11, 66636, Control_c, 9, 7, 49
11, 66655, Note_on_c, 9, 44, 0
11, 66655, Note_on_c, 9, 38, 0
11, 66655, Note_on_c, 9, 44, 100
11, 66660, Note_on_c, 9, 50, 0
11, 66663, Control_c, 9, 7, 48
11, 66686, Control_c, 9, 7, 47
11, 66713, Control_c, 9, 7, 46
11, 66715, Note_on_c, 9, 44, 0
11, 66715, Note_on_c, 9, 35, 100
11, 66715, Note_on_c, 9, 44, 100
11, 66740, Control_c, 9, 7, 45
11, 66763, Control_c, 9, 7, 44
11, 66775, Note_on_c, 9, 44, 0
11, 66775, Note_on_c, 9, 35, 0
11, 66775, Note_on_c, 9, 44, 100
11, 66790, Control_c, 9, 7, 43
11, 66816, Control_c, 9, 7, 42
11, 66835, Note_on_c, 9, 44, 0
11, 66835, Note_on_c, 9, 38, 100
11, 66835, Note_on_c, 9, 44, 100
11, 66840, Control_c, 9, 7, 41
11, 66840, Note_on_c, 9, 50, 100
11, 66866, Control_c, 9, 7, 40
11, 66890, Control_c, 9, 7, 39
11, 66895, Note_on_c, 9, 44, 0
11, 66895, Note_on_c, 9, 38, 0
11, 66895, Note_on_c, 9, 44, 100
11, 66900, Note_on_c, 9, 50, 0
11, 66916, Control_c, 9, 7, 38
11, 66943, Control_c, 9, 7, 37
11, 66955, Note_on_c, 9, 44, 0
11, 66955, Note_on_c, 9, 44, 100
11, 66955, Note_on_c, 9, 35, 100
11, 66966, Control_c, 9, 7, 36
11, 66993, Control_c, 9, 7, 35
11, 67015, Note_on_c, 9, 35, 0
11, 67015, Note_on_c, 9, 44, 0
11, 67015, Note_on_c, 9, 44, 100
11, 67015, Note_on_c, 9, 35, 100
11, 67020, Control_c, 9, 7, 34
11, 67043, Control_c, 9, 7, 33
11, 67070, Control_c, 9, 7, 32
11, 67075, Note_on_c, 9, 35, 0
11, 67075, Note_on_c, 9, 44, 0
11, 67075, Note_on_c, 9, 38, 100
11, 67075, Note_on_c, 9, 44, 100
11, 67080, Note_on_c, 9, 50, 100
11, 67093, Control_c, 9, 7, 31
11, 67120, Control_c, 9, 7, 30
11, 67135, Note_on_c, 9, 44, 0
11, 67135, Note_on_c, 9, 38, 0
11, 67135, Note_on_c, 9, 44, 100
11, 67140, Note_on_c, 9, 50, 0
11, 67146, Control_c, 9, 7, 29
11, 67170, Control_c, 9, 7, 28
11, 67195, Note_on_c, 9, 44, 0
11, 67196, Control_c, 9, 7, 27
11, 67200, Note_on_c, 9, 44, 100
11, 67200, Note_on_c, 9, 49, 100
11, 67200, Note_on_c, 9, 35, 100
11, 67220, Control_c, 9, 7, 26
11, 67246, Control_c, 9, 7, 25
11, 67260, Note_on_c, 9, 35, 0
11, 67260, Note_on_c, 9, 49, 0
11, 67260, Note_on_c, 9, 44, 0
11, 67260, Note_on_c, 9, 44, 100
11, 67273, Control_c, 9, 7, 24
11, 67296, Control_c, 9, 7, 23
11, 67320, Note_on_c, 9, 44, 0
11, 67320, Note_on_c, 9, 38, 100
11, 67320, Note_on_c, 9, 50, 100
11, 67320, Note_on_c, 9, 44, 100
11, 67323, Control_c, 9, 7, 22
11, 67350, Control_c, 9, 7, 21
11, 67373, Control_c, 9, 7, 20
11, 67380, Note_on_c, 9, 44, 0
11, 67380, Note_on_c, 9, 50, 0
11, 67380, Note_on_c, 9, 38, 0
11, 67380, Note_on_c, 9, 44, 100
11, 67400, Control_c, 9, 7, 19
11, 67423, Control_c, 9, 7, 18
11, 67440, Note_on_c, 9, 44, 0
11, 67440, Note_on_c, 9, 35, 100
11, 67440, Note_on_c, 9, 44, 100
11, 67450, Control_c, 9, 7, 17
11, 67476, Control_c, 9, 7, 16
11, 67500, Note_on_c, 9, 44, 0
11, 67500, Note_on_c, 9, 35, 0
11, 67500, Control_c, 9, 7, 15
11, 67500, Note_on_c, 9, 44, 100
11, 67500, Note_on_c, 9, 35, 100
11, 67526, Control_c, 9, 7, 14
11, 67550, Control_c, 9, 7, 13
11, 67560, Note_on_c, 9, 35, 0
11, 67560, Note_on_c, 9, 44, 0
11, 67560, Note_on_c, 9, 38, 100
11, 67560, Note_on_c, 9, 50, 100
11, 67560, Note_on_c, 9, 44, 100
11, 67576, Control_c, 9, 7, 12
11, 67603, Control_c, 9, 7, 11
11, 67620, Note_on_c, 9, 44, 0
11, 67620, Note_on_c, 9, 50, 0
11, 67620, Note_on_c, 9, 38, 0
11, 67620, Note_on_c, 9, 44, 100
11, 67626, Control_c, 9, 7, 10
11, 67653, Control_c, 9, 7, 9
11, 67680, Note_on_c, 9, 44, 0
11, 67680, Note_on_c, 9, 44, 100
11, 67680, Control_c, 9, 7, 8
11, 67680, Note_on_c, 9, 35, 100
11, 67703, Control_c, 9, 7, 7
11, 67730, Control_c, 9, 7, 6
11, 67740, Note_on_c, 9, 35, 0
11, 67740, Note_on_c, 9, 44, 0
11, 67740, Note_on_c, 9, 44, 100
11, 67753, Control_c, 9, 7, 5
11, 67780, Control_c, 9, 7, 4
11, 67800, Note_on_c, 9, 44, 0
11, 67800, Note_on_c, 9, 38, 100
11, 67800, Note_on_c, 9, 50, 100
11, 67800, Note_on_c, 9, 44, 100
11, 67806, Control_c, 9, 7, 3
11, 67830, Control_c, 9, 7, 2
11, 67856, Control_c, 9, 7, 1
11, 67860, Note_on_c, 9, 44, 0
11, 67860, Note_on_c, 9, 50, 0
11, 67860, Note_on_c, 9, 38, 0
11, 67860, Note_on_c, 9, 44, 100
11, 67880, Control_c, 9, 7, 0
11, 67920, Note_on_c, 9, 44, 0
11, 67920, Note_on_c, 9, 35, 100
11, 67920, Note_on_c, 9, 44, 100
11, 67980, Note_on_c, 9, 44, 0
11, 67980, Note_on_c, 9, 35, 0
11, 67980, Note_on_c, 9, 35, 100
11, 67980, Note_on_c, 9, 44, 100
11, 68040, Note_on_c, 9, 44, 0
11, 68040, Note_on_c, 9, 35, 0
11, 68040, Note_on_c, 9, 50, 100
11, 68040, Note_on_c, 9, 38, 100
11, 68040, Note_on_c, 9, 44, 100
11, 68100, Note_on_c, 9, 44, 0
11, 68100, Note_on_c, 9, 38, 0
11, 68100, Note_on_c, 9, 50, 0
11, 68100, Note_on_c, 9, 35, 100
11, 68100, Note_on_c, 9, 44, 100
11, 68160, Note_on_c, 9, 44, 0
11, 68160, Note_on_c, 9, 35, 0
11, 68160, Note_on_c, 9, 49, 100
11, 68160, Note_on_c, 9, 44, 100
11, 68160, Note_on_c, 9, 35, 100
11, 68220, Note_on_c, 9, 35, 0
11, 68220, Note_on_c, 9, 44, 0
11, 68220, Note_on_c, 9, 44, 100
11, 68280, Note_on_c, 9, 44, 0
11, 68280, Note_on_c, 9, 49, 0
11, 68280, Note_on_c, 9, 38, 100
11, 68280, Note_on_c, 9, 44, 100
11, 68340, Note_on_c, 9, 44, 0
11, 68340, Note_on_c, 9, 38, 0
11, 68340, Note_on_c, 9, 44, 100
11, 68400, Note_on_c, 9, 44, 0
11, 68400, Note_on_c, 9, 44, 100
11, 68400, Note_on_c, 9, 35, 100
11, 68460, Note_on_c, 9, 35, 0
11, 68460, Note_on_c, 9, 44, 0
11, 68460, Note_on_c, 9, 35, 100
11, 68460, Note_on_c, 9, 44, 100
11, 68520, Note_on_c, 9, 44, 0
11, 68520, Note_on_c, 9, 35, 0
11, 68520, Note_on_c, 9, 35, 100
11, 68520, Note_on_c, 9, 40, 100
11, 68580, Note_on_c, 9, 40, 0
11, 68580, Note_on_c, 9, 35, 0
11, 68580, Note_on_c, 9, 35, 100
11, 68580, Note_on_c, 9, 49, 100
11, 68640, Note_on_c, 9, 49, 0
11, 68640, Note_on_c, 9, 35, 0
11, 68700, Note_on_c, 9, 38, 100
11, 68760, Note_on_c, 9, 38, 0
11, 68820, Note_on_c, 9, 38, 100
11, 68880, Note_on_c, 9, 38, 0
11, 68940, Note_on_c, 9, 38, 100
11, 69000, Note_on_c, 9, 38, 0
11, 69000, Note_on_c, 9, 38, 100
11, 69060, Note_on_c, 9, 38, 0
11, 69060, Note_on_c, 9, 36, 100
11, 69120, Note_on_c, 9, 36, 0
11, 69120, End_track
12, 0, Start_track
12, 0, MIDI_port, 0
12, 0, Title_t, "Cello"
12, 0, Control_c, 10, 0, 0
12, 0, Control_c, 10, 32, 0
12, 0, Program_c, 10, 42
12, 0, Control_c, 10, 7, 89
12, 653, Control_c, 10, 7, 89
12, 653, Control_c, 10, 10, 64
12, 2550, Control_c, 10, 7, 88
12, 2565, Control_c, 10, 7, 87
12, 2580, Control_c, 10, 7, 86
12, 2595, Control_c, 10, 7, 85
12, 2610, Control_c, 10, 7, 84
12, 2615, Control_c, 10, 7, 83
12, 12960, Note_on_c, 10, 49, 100
12, 13200, Note_on_c, 10, 49, 0
12, 13200, Note_on_c, 10, 47, 100
12, 13380, Note_on_c, 10, 45, 100
12, 13440, Note_on_c, 10, 47, 0
12, 13740, Note_on_c, 10, 45, 0
12, 13920, Note_on_c, 10, 44, 100
12, 13925, Control_c, 10, 7, 84
12, 13930, Control_c, 10, 7, 85
12, 13940, Control_c, 10, 7, 86
12, 13945, Control_c, 10, 7, 87
12, 13950, Control_c, 10, 7, 88
12, 13975, Control_c, 10, 7, 89
12, 13985, Control_c, 10, 7, 90
12, 13990, Control_c, 10, 7, 91
12, 14020, Control_c, 10, 7, 92
12, 14340, Note_on_c, 10, 44, 0
12, 14340, Note_on_c, 10, 43, 100
12, 14640, Note_on_c, 10, 43, 0
12, 14880, Note_on_c, 10, 41, 100
12, 15120, Note_on_c, 10, 41, 0
12, 15120, Note_on_c, 10, 48, 100
12, 15360, Note_on_c, 10, 48, 0
12, 15360, Note_on_c, 10, 50, 100
12, 15840, Note_on_c, 10, 50, 0
12, 15840, Note_on_c, 10, 41, 100
12, 16320, Note_on_c, 10, 41, 0
12, 16320, Note_on_c, 10, 43, 100
12, 16800, Note_on_c, 10, 43, 0
12, 16800, Note_on_c, 10, 49, 100
12, 17040, Note_on_c, 10, 49, 0
12, 17040, Note_on_c, 10, 47, 100
12, 17220, Note_on_c, 10, 45, 100
12, 17280, Note_on_c, 10, 47, 0
12, 17580, Note_on_c, 10, 45, 0
12, 17760, Note_on_c, 10, 44, 100
12, 18180, Note_on_c, 10, 44, 0
12, 18180, Note_on_c, 10, 43, 100
12, 18480, Note_on_c, 10, 43, 0
12, 18720, Note_on_c, 10, 41, 100
12, 18960, Note_on_c, 10, 41, 0
12, 18960, Note_on_c, 10, 48, 100
12, 19200, Note_on_c, 10, 48, 0
12, 19200, Note_on_c, 10, 50, 100
12, 19680, Note_on_c, 10, 50, 0
12, 19680, Note_on_c, 10, 41, 100
12, 20160, Note_on_c, 10, 41, 0
12, 20160, Note_on_c, 10, 43, 100
12, 20640, Note_on_c, 10, 43, 0
12, 24960, Note_on_c, 10, 49, 100
12, 25200, Note_on_c, 10, 49, 0
12, 25200, Note_on_c, 10, 47, 100
12, 25380, Note_on_c, 10, 45, 100
12, 25440, Note_on_c, 10, 47, 0
12, 25740, Note_on_c, 10, 45, 0
12, 25920, Note_on_c, 10, 44, 100
12, 26340, Note_on_c, 10, 44, 0
12, 26340, Note_on_c, 10, 43, 100
12, 26640, Note_on_c, 10, 43, 0
12, 26880, Note_on_c, 10, 49, 100
12, 27120, Note_on_c, 10, 49, 0
12, 27120, Note_on_c, 10, 47, 100
12, 27300, Note_on_c, 10, 45, 100
12, 27360, Note_on_c, 10, 47, 0
12, 27660, Note_on_c, 10, 45, 0
12, 27840, Note_on_c, 10, 44, 100
12, 28260, Note_on_c, 10, 44, 0
12, 28260, Note_on_c, 10, 43, 100
12, 28560, Note_on_c, 10, 43, 0
12, 28800, Note_on_c, 10, 41, 100
12, 29040, Note_on_c, 10, 41, 0
12, 29040, Note_on_c, 10, 48, 100
12, 29280, Note_on_c, 10, 48, 0
12, 29280, Note_on_c, 10, 50, 100
12, 29760, Note_on_c, 10, 50, 0
12, 29760, Note_on_c, 10, 41, 100
12, 30240, Note_on_c, 10, 41, 0
12, 30240, Note_on_c, 10, 43, 100
12, 30595, Control_c, 10, 7, 109
12, 30720, Note_on_c, 10, 43, 0
12, 51835, Control_c, 10, 7, 108
12, 51855, Control_c, 10, 7, 107
12, 51860, Control_c, 10, 7, 106
12, 51870, Control_c, 10, 7, 104
12, 51870, Control_c, 10, 7, 105
12, 51880, Control_c, 10, 7, 102
12, 51880, Control_c, 10, 7, 103
12, 51885, Control_c, 10, 7, 101
12, 51900, Control_c, 10, 7, 100
12, 51905, Control_c, 10, 7, 99
12, 51910, Control_c, 10, 7, 98
12, 51925, Control_c, 10, 7, 97
12, 51930, Control_c, 10, 7, 95
12, 51930, Control_c, 10, 7, 96
12, 51935, Control_c, 10, 7, 94
12, 51935, End_track
13, 0, Start_track
13, 0, MIDI_port, 0
13, 0, Title_t, "Lead saxophone"
13, 0, Control_c, 11, 0, 0
13, 0, Control_c, 11, 32, 0
13, 0, Program_c, 11, 67
13, 0, Control_c, 11, 7, 105
13, 653, Control_c, 11, 7, 105
13, 653, Control_c, 11, 10, 64
13, 20640, Note_on_c, 11, 45, 127
13, 20760, Note_on_c, 11, 45, 0
13, 20880, Note_on_c, 11, 45, 127
13, 21000, Note_on_c, 11, 45, 0
13, 21120, Note_on_c, 11, 43, 127
13, 21176, Note_on_c, 11, 43, 0
13, 21180, Note_on_c, 11, 43, 127
13, 21236, Note_on_c, 11, 43, 0
13, 21240, Note_on_c, 11, 47, 127
13, 21296, Note_on_c, 11, 47, 0
13, 21300, Note_on_c, 11, 50, 127
13, 21356, Note_on_c, 11, 50, 0
13, 21360, Note_on_c, 11, 38, 127
13, 21416, Note_on_c, 11, 38, 0
13, 21420, Note_on_c, 11, 38, 127
13, 21476, Note_on_c, 11, 38, 0
13, 21480, Note_on_c, 11, 42, 127
13, 21536, Note_on_c, 11, 42, 0
13, 21540, Note_on_c, 11, 45, 127
13, 21596, Note_on_c, 11, 45, 0
13, 21600, Note_on_c, 11, 45, 127
13, 21720, Note_on_c, 11, 45, 0
13, 21840, Note_on_c, 11, 45, 127
13, 21940, Control_c, 11, 7, 106
13, 21955, Control_c, 11, 7, 107
13, 21960, Note_on_c, 11, 45, 0
13, 21960, Control_c, 11, 7, 108
13, 21965, Control_c, 11, 7, 109
13, 21975, Control_c, 11, 7, 110
13, 21980, Control_c, 11, 7, 111
13, 22080, Note_on_c, 11, 43, 127
13, 22136, Note_on_c, 11, 43, 0
13, 22140, Note_on_c, 11, 43, 127
13, 22196, Note_on_c, 11, 43, 0
13, 22200, Note_on_c, 11, 47, 127
13, 22256, Note_on_c, 11, 47, 0
13, 22260, Note_on_c, 11, 50, 127
13, 22316, Note_on_c, 11, 50, 0
13, 22320, Note_on_c, 11, 38, 127
13, 22376, Note_on_c, 11, 38, 0
13, 22380, Note_on_c, 11, 38, 127
13, 22436, Note_on_c, 11, 38, 0
13, 22440, Note_on_c, 11, 42, 127
13, 22496, Note_on_c, 11, 42, 0
13, 22500, Note_on_c, 11, 45, 127
13, 22556, Note_on_c, 11, 45, 0
13, 22560, Note_on_c, 11, 45, 127
13, 22670, Note_on_c, 11, 45, 0
13, 22800, Note_on_c, 11, 45, 127
13, 22910, Note_on_c, 11, 45, 0
13, 23040, Note_on_c, 11, 43, 127
13, 23096, Note_on_c, 11, 43, 0
13, 23100, Note_on_c, 11, 43, 127
13, 23156, Note_on_c, 11, 43, 0
13, 23160, Note_on_c, 11, 47, 127
13, 23216, Note_on_c, 11, 47, 0
13, 23220, Note_on_c, 11, 50, 127
13, 23276, Note_on_c, 11, 50, 0
13, 23280, Note_on_c, 11, 38, 127
13, 23336, Note_on_c, 11, 38, 0
13, 23340, Note_on_c, 11, 38, 127
13, 23396, Note_on_c, 11, 38, 0
13, 23400, Note_on_c, 11, 42, 127
13, 23456, Note_on_c, 11, 42, 0
13, 23460, Note_on_c, 11, 45, 127
13, 23516, Note_on_c, 11, 45, 0
13, 30720, Note_on_c, 11, 45, 127
13, 30840, Note_on_c, 11, 45, 0
13, 30960, Note_on_c, 11, 45, 127
13, 31080, Note_on_c, 11, 45, 0
13, 31200, Note_on_c, 11, 43, 127
13, 31254, Note_on_c, 11, 43, 0
13, 31260, Note_on_c, 11, 43, 127
13, 31314, Note_on_c, 11, 43, 0
13, 31320, Note_on_c, 11, 47, 127
13, 31374, Note_on_c, 11, 47, 0
13, 31380, Note_on_c, 11, 50, 127
13, 31434, Note_on_c, 11, 50, 0
13, 31440, Note_on_c, 11, 38, 127
13, 31494, Note_on_c, 11, 38, 0
13, 31500, Note_on_c, 11, 38, 127
13, 31554, Note_on_c, 11, 38, 0
13, 31560, Note_on_c, 11, 42, 127
13, 31614, Note_on_c, 11, 42, 0
13, 31620, Note_on_c, 11, 45, 127
13, 31674, Note_on_c, 11, 45, 0
13, 31680, Note_on_c, 11, 45, 127
13, 31800, Note_on_c, 11, 45, 0
13, 31920, Note_on_c, 11, 45, 127
13, 32040, Note_on_c, 11, 45, 0
13, 32160, Note_on_c, 11, 43, 127
13, 32214, Note_on_c, 11, 43, 0
13, 32220, Note_on_c, 11, 43, 127
13, 32274, Note_on_c, 11, 43, 0
13, 32280, Note_on_c, 11, 47, 127
13, 32334, Note_on_c, 11, 47, 0
13, 32340, Note_on_c, 11, 50, 127
13, 32394, Note_on_c, 11, 50, 0
13, 32400, Note_on_c, 11, 38, 127
13, 32454, Note_on_c, 11, 38, 0
13, 32460, Note_on_c, 11, 38, 127
13, 32514, Note_on_c, 11, 38, 0
13, 32520, Note_on_c, 11, 42, 127
13, 32574, Note_on_c, 11, 42, 0
13, 32580, Note_on_c, 11, 45, 127
13, 32634, Note_on_c, 11, 45, 0
13, 32640, Note_on_c, 11, 45, 127
13, 32760, Note_on_c, 11, 45, 0
13, 32880, Note_on_c, 11, 45, 127
13, 32930, Control_c, 11, 10, 63
13, 32985, Control_c, 11, 10, 67
13, 33000, Note_on_c, 11, 45, 0
13, 33015, Control_c, 11, 10, 72
13, 33120, Note_on_c, 11, 43, 127
13, 33174, Note_on_c, 11, 43, 0
13, 33180, Note_on_c, 11, 43, 127
13, 33234, Note_on_c, 11, 43, 0
13, 33240, Note_on_c, 11, 47, 127
13, 33294, Note_on_c, 11, 47, 0
13, 33300, Note_on_c, 11, 50, 127
13, 33354, Note_on_c, 11, 50, 0
13, 33360, Note_on_c, 11, 38, 127
13, 33414, Note_on_c, 11, 38, 0
13, 33420, Note_on_c, 11, 38, 127
13, 33474, Note_on_c, 11, 38, 0
13, 33480, Note_on_c, 11, 42, 127
13, 33534, Note_on_c, 11, 42, 0
13, 33540, Note_on_c, 11, 45, 127
13, 33594, Note_on_c, 11, 45, 0
13, 34025, Control_c, 11, 7, 112
13, 34030, Control_c, 11, 7, 114
13, 34035, Control_c, 11, 7, 116
13, 34040, Control_c, 11, 7, 118
13, 34040, Control_c, 11, 7, 117
13, 34045, Control_c, 11, 7, 121
13, 34045, Control_c, 11, 7, 119
13, 34050, Control_c, 11, 7, 123
13, 34050, Control_c, 11, 7, 122
13, 34055, Control_c, 11, 7, 124
13, 34060, Control_c, 11, 7, 125
13, 34065, Control_c, 11, 7, 126
13, 34070, Control_c, 11, 7, 127
13, 34560, Note_on_c, 11, 45, 127
13, 34680, Note_on_c, 11, 45, 0
13, 34800, Note_on_c, 11, 45, 127
13, 34920, Note_on_c, 11, 45, 0
13, 35040, Note_on_c, 11, 43, 127
13, 35093, Note_on_c, 11, 43, 0
13, 35100, Note_on_c, 11, 43, 127
13, 35153, Note_on_c, 11, 43, 0
13, 35160, Note_on_c, 11, 47, 127
13, 35213, Note_on_c, 11, 47, 0
13, 35220, Note_on_c, 11, 50, 127
13, 35273, Note_on_c, 11, 50, 0
13, 35280, Note_on_c, 11, 38, 127
13, 35333, Note_on_c, 11, 38, 0
13, 35340, Note_on_c, 11, 38, 127
13, 35393, Note_on_c, 11, 38, 0
13, 35400, Note_on_c, 11, 42, 127
13, 35453, Note_on_c, 11, 42, 0
13, 35460, Note_on_c, 11, 45, 127
13, 35513, Note_on_c, 11, 45, 0
13, 35520, Note_on_c, 11, 45, 127
13, 35627, Note_on_c, 11, 45, 0
13, 35760, Note_on_c, 11, 45, 127
13, 35867, Note_on_c, 11, 45, 0
13, 36000, Note_on_c, 11, 43, 127
13, 36053, Note_on_c, 11, 43, 0
13, 36060, Note_on_c, 11, 43, 127
13, 36113, Note_on_c, 11, 43, 0
13, 36120, Note_on_c, 11, 47, 127
13, 36173, Note_on_c, 11, 47, 0
13, 36180, Note_on_c, 11, 50, 127
13, 36233, Note_on_c, 11, 50, 0
13, 36240, Note_on_c, 11, 38, 127
13, 36293, Note_on_c, 11, 38, 0
13, 36300, Note_on_c, 11, 38, 127
13, 36353, Note_on_c, 11, 38, 0
13, 36360, Note_on_c, 11, 42, 127
13, 36413, Note_on_c, 11, 42, 0
13, 36420, Note_on_c, 11, 45, 127
13, 36473, Note_on_c, 11, 45, 0
13, 36480, Note_on_c, 11, 45, 127
13, 36587, Note_on_c, 11, 45, 0
13, 36720, Note_on_c, 11, 45, 127
13, 36827, Note_on_c, 11, 45, 0
13, 36960, Note_on_c, 11, 43, 127
13, 37013, Note_on_c, 11, 43, 0
13, 37020, Note_on_c, 11, 43, 127
13, 37073, Note_on_c, 11, 43, 0
13, 37080, Note_on_c, 11, 47, 127
13, 37133, Note_on_c, 11, 47, 0
13, 37140, Note_on_c, 11, 50, 127
13, 37193, Note_on_c, 11, 50, 0
13, 37200, Note_on_c, 11, 38, 127
13, 37253, Note_on_c, 11, 38, 0
13, 37260, Note_on_c, 11, 38, 127
13, 37313, Note_on_c, 11, 38, 0
13, 37320, Note_on_c, 11, 42, 127
13, 37373, Note_on_c, 11, 42, 0
13, 37380, Note_on_c, 11, 45, 127
13, 37433, Note_on_c, 11, 45, 0
13, 37440, Note_on_c, 11, 41, 127
13, 37654, Note_on_c, 11, 41, 0
13, 37680, Note_on_c, 11, 41, 127
13, 37733, Note_on_c, 11, 41, 0
13, 37740, Note_on_c, 11, 40, 127
13, 37793, Note_on_c, 11, 40, 0
13, 37800, Note_on_c, 11, 41, 127
13, 37853, Note_on_c, 11, 41, 0
13, 37860, Note_on_c, 11, 43, 127
13, 38234, Note_on_c, 11, 43, 0
13, 38395, Control_c, 11, 7, 121
13, 38400, Note_on_c, 11, 45, 127
13, 38507, Note_on_c, 11, 45, 0
13, 38640, Note_on_c, 11, 45, 127
13, 38747, Note_on_c, 11, 45, 0
13, 38880, Note_on_c, 11, 43, 127
13, 38933, Note_on_c, 11, 43, 0
13, 38940, Note_on_c, 11, 43, 127
13, 38993, Note_on_c, 11, 43, 0
13, 39000, Note_on_c, 11, 47, 127
13, 39053, Note_on_c, 11, 47, 0
13, 39060, Note_on_c, 11, 50, 127
13, 39113, Note_on_c, 11, 50, 0
13, 39120, Note_on_c, 11, 38, 127
13, 39173, Note_on_c, 11, 38, 0
13, 39180, Note_on_c, 11, 38, 127
13, 39233, Note_on_c, 11, 38, 0
13, 39240, Note_on_c, 11, 42, 127
13, 39293, Note_on_c, 11, 42, 0
13, 39300, Note_on_c, 11, 45, 127
13, 39353, Note_on_c, 11, 45, 0
13, 39360, Note_on_c, 11, 45, 127
13, 39467, Note_on_c, 11, 45, 0
13, 39600, Note_on_c, 11, 45, 127
13, 39707, Note_on_c, 11, 45, 0
13, 39840, Note_on_c, 11, 43, 127
13, 39893, Note_on_c, 11, 43, 0
13, 39900, Note_on_c, 11, 43, 127
13, 39953, Note_on_c, 11, 43, 0
13, 39960, Note_on_c, 11, 47, 127
13, 40013, Note_on_c, 11, 47, 0
13, 40020, Note_on_c, 11, 50, 127
13, 40073, Note_on_c, 11, 50, 0
13, 40080, Note_on_c, 11, 38, 127
13, 40133, Note_on_c, 11, 38, 0
13, 40140, Note_on_c, 11, 38, 127
13, 40193, Note_on_c, 11, 38, 0
13, 40200, Note_on_c, 11, 42, 127
13, 40253, Note_on_c, 11, 42, 0
13, 40260, Note_on_c, 11, 45, 127
13, 40313, Note_on_c, 11, 45, 0
13, 40320, Note_on_c, 11, 45, 127
13, 40427, Note_on_c, 11, 45, 0
13, 40560, Note_on_c, 11, 45, 127
13, 40667, Note_on_c, 11, 45, 0
13, 40800, Note_on_c, 11, 43, 127
13, 40853, Note_on_c, 11, 43, 0
13, 40860, Note_on_c, 11, 43, 127
13, 40913, Note_on_c, 11, 43, 0
13, 40920, Note_on_c, 11, 47, 127
13, 40973, Note_on_c, 11, 47, 0
13, 40980, Note_on_c, 11, 50, 127
13, 41033, Note_on_c, 11, 50, 0
13, 41040, Note_on_c, 11, 38, 127
13, 41093, Note_on_c, 11, 38, 0
13, 41100, Note_on_c, 11, 38, 127
13, 41153, Note_on_c, 11, 38, 0
13, 41160, Note_on_c, 11, 42, 127
13, 41213, Note_on_c, 11, 42, 0
13, 41220, Note_on_c, 11, 45, 127
13, 41273, Note_on_c, 11, 45, 0
13, 41280, Note_on_c, 11, 41, 127
13, 41494, Note_on_c, 11, 41, 0
13, 41520, Note_on_c, 11, 41, 127
13, 41573, Note_on_c, 11, 41, 0
13, 41580, Note_on_c, 11, 40, 127
13, 41633, Note_on_c, 11, 40, 0
13, 41640, Note_on_c, 11, 41, 127
13, 41693, Note_on_c, 11, 41, 0
13, 41700, Note_on_c, 11, 43, 127
13, 42074, Note_on_c, 11, 43, 0
13, 42240, Note_on_c, 11, 45, 127
13, 42347, Note_on_c, 11, 45, 0
13, 42480, Note_on_c, 11, 45, 127
13, 42587, Note_on_c, 11, 45, 0
13, 42720, Note_on_c, 11, 43, 127
13, 42773, Note_on_c, 11, 43, 0
13, 42780, Note_on_c, 11, 43, 127
13, 42833, Note_on_c, 11, 43, 0
13, 42840, Note_on_c, 11, 47, 127
13, 42893, Note_on_c, 11, 47, 0
13, 42900, Note_on_c, 11, 50, 127
13, 42953, Note_on_c, 11, 50, 0
13, 42960, Note_on_c, 11, 38, 127
13, 43013, Note_on_c, 11, 38, 0
13, 43020, Note_on_c, 11, 38, 127
13, 43073, Note_on_c, 11, 38, 0
13, 43080, Note_on_c, 11, 42, 127
13, 43133, Note_on_c, 11, 42, 0
13, 43140, Note_on_c, 11, 45, 127
13, 43193, Note_on_c, 11, 45, 0
13, 43200, Note_on_c, 11, 45, 127
13, 43307, Note_on_c, 11, 45, 0
13, 43440, Note_on_c, 11, 45, 127
13, 43547, Note_on_c, 11, 45, 0
13, 43680, Note_on_c, 11, 43, 127
13, 43733, Note_on_c, 11, 43, 0
13, 43740, Note_on_c, 11, 43, 127
13, 43793, Note_on_c, 11, 43, 0
13, 43800, Note_on_c, 11, 47, 127
13, 43853, Note_on_c, 11, 47, 0
13, 43860, Note_on_c, 11, 50, 127
13, 43913, Note_on_c, 11, 50, 0
13, 43920, Note_on_c, 11, 38, 127
13, 43973, Note_on_c, 11, 38, 0
13, 43980, Note_on_c, 11, 38, 127
13, 44033, Note_on_c, 11, 38, 0
13, 44040, Note_on_c, 11, 42, 127
13, 44093, Note_on_c, 11, 42, 0
13, 44100, Note_on_c, 11, 45, 127
13, 44153, Note_on_c, 11, 45, 0
13, 44160, Note_on_c, 11, 45, 127
13, 44267, Note_on_c, 11, 45, 0
13, 44400, Note_on_c, 11, 45, 127
13, 44507, Note_on_c, 11, 45, 0
13, 44640, Note_on_c, 11, 43, 127
13, 44693, Note_on_c, 11, 43, 0
13, 44700, Note_on_c, 11, 43, 127
13, 44753, Note_on_c, 11, 43, 0
13, 44760, Note_on_c, 11, 47, 127
13, 44813, Note_on_c, 11, 47, 0
13, 44820, Note_on_c, 11, 50, 127
13, 44873, Note_on_c, 11, 50, 0
13, 44880, Note_on_c, 11, 38, 127
13, 44933, Note_on_c, 11, 38, 0
13, 44940, Note_on_c, 11, 38, 127
13, 44993, Note_on_c, 11, 38, 0
13, 45000, Note_on_c, 11, 42, 127
13, 45053, Note_on_c, 11, 42, 0
13, 45060, Note_on_c, 11, 45, 127
13, 45113, Note_on_c, 11, 45, 0
13, 45120, Note_on_c, 11, 41, 127
13, 45334, Note_on_c, 11, 41, 0
13, 45360, Note_on_c, 11, 41, 127
13, 45413, Note_on_c, 11, 41, 0
13, 45420, Note_on_c, 11, 40, 127
13, 45473, Note_on_c, 11, 40, 0
13, 45480, Note_on_c, 11, 41, 127
13, 45533, Note_on_c, 11, 41, 0
13, 45540, Note_on_c, 11, 43, 127
13, 45914, Note_on_c, 11, 43, 0
13, 46080, Note_on_c, 11, 45, 127
13, 46187, Note_on_c, 11, 45, 0
13, 46320, Note_on_c, 11, 45, 127
13, 46427, Note_on_c, 11, 45, 0
13, 46560, Note_on_c, 11, 43, 127
13, 46613, Note_on_c, 11, 43, 0
13, 46620, Note_on_c, 11, 43, 127
13, 46673, Note_on_c, 11, 43, 0
13, 46680, Note_on_c, 11, 47, 127
13, 46733, Note_on_c, 11, 47, 0
13, 46740, Note_on_c, 11, 50, 127
13, 46793, Note_on_c, 11, 50, 0
13, 46800, Note_on_c, 11, 38, 127
13, 46853, Note_on_c, 11, 38, 0
13, 46860, Note_on_c, 11, 38, 127
13, 46913, Note_on_c, 11, 38, 0
13, 46920, Note_on_c, 11, 42, 127
13, 46973, Note_on_c, 11, 42, 0
13, 46980, Note_on_c, 11, 45, 127
13, 47033, Note_on_c, 11, 45, 0
13, 47040, Note_on_c, 11, 45, 127
13, 47147, Note_on_c, 11, 45, 0
13, 47280, Note_on_c, 11, 45, 127
13, 47387, Note_on_c, 11, 45, 0
13, 47520, Note_on_c, 11, 43, 127
13, 47573, Note_on_c, 11, 43, 0
13, 47580, Note_on_c, 11, 43, 127
13, 47633, Note_on_c, 11, 43, 0
13, 47640, Note_on_c, 11, 47, 127
13, 47693, Note_on_c, 11, 47, 0
13, 47700, Note_on_c, 11, 50, 127
13, 47753, Note_on_c, 11, 50, 0
13, 47760, Note_on_c, 11, 38, 127
13, 47813, Note_on_c, 11, 38, 0
13, 47820, Note_on_c, 11, 38, 127
13, 47873, Note_on_c, 11, 38, 0
13, 47880, Note_on_c, 11, 42, 127
13, 47933, Note_on_c, 11, 42, 0
13, 47940, Note_on_c, 11, 45, 127
13, 47993, Note_on_c, 11, 45, 0
13, 48000, Note_on_c, 11, 45, 127
13, 48120, Note_on_c, 11, 45, 0
13, 48240, Note_on_c, 11, 45, 127
13, 48360, Note_on_c, 11, 45, 0
13, 48480, Note_on_c, 11, 43, 127
13, 48533, Note_on_c, 11, 43, 0
13, 48540, Note_on_c, 11, 43, 127
13, 48593, Note_on_c, 11, 43, 0
13, 48600, Note_on_c, 11, 47, 127
13, 48653, Note_on_c, 11, 47, 0
13, 48660, Note_on_c, 11, 50, 127
13, 48713, Note_on_c, 11, 50, 0
13, 48720, Note_on_c, 11, 38, 127
13, 48773, Note_on_c, 11, 38, 0
13, 48780, Note_on_c, 11, 38, 127
13, 48833, Note_on_c, 11, 38, 0
13, 48840, Note_on_c, 11, 42, 127
13, 48893, Note_on_c, 11, 42, 0
13, 48900, Note_on_c, 11, 45, 127
13, 48953, Note_on_c, 11, 45, 0
13, 48960, Note_on_c, 11, 41, 127
13, 49200, Note_on_c, 11, 41, 0
13, 49200, Note_on_c, 11, 41, 127
13, 49260, Note_on_c, 11, 41, 0
13, 49260, Note_on_c, 11, 40, 127
13, 49320, Note_on_c, 11, 40, 0
13, 49320, Note_on_c, 11, 41, 127
13, 49380, Note_on_c, 11, 41, 0
13, 49380, Note_on_c, 11, 43, 127
13, 49800, Note_on_c, 11, 43, 0
13, 49920, Note_on_c, 11, 45, 127
13, 50040, Note_on_c, 11, 45, 0
13, 50160, Note_on_c, 11, 45, 127
13, 50280, Note_on_c, 11, 45, 0
13, 50400, Note_on_c, 11, 43, 127
13, 50453, Note_on_c, 11, 43, 0
13, 50460, Note_on_c, 11, 43, 127
13, 50513, Note_on_c, 11, 43, 0
13, 50520, Note_on_c, 11, 47, 127
13, 50573, Note_on_c, 11, 47, 0
13, 50580, Note_on_c, 11, 50, 127
13, 50633, Note_on_c, 11, 50, 0
13, 50640, Note_on_c, 11, 38, 127
13, 50693, Note_on_c, 11, 38, 0
13, 50700, Note_on_c, 11, 38, 127
13, 50753, Note_on_c, 11, 38, 0
13, 50760, Note_on_c, 11, 42, 127
13, 50813, Note_on_c, 11, 42, 0
13, 50820, Note_on_c, 11, 45, 127
13, 50873, Note_on_c, 11, 45, 0
13, 50880, Note_on_c, 11, 45, 127
13, 51000, Note_on_c, 11, 45, 0
13, 51120, Note_on_c, 11, 45, 127
13, 51240, Note_on_c, 11, 45, 0
13, 51360, Note_on_c, 11, 43, 127
13, 51413, Note_on_c, 11, 43, 0
13, 51420, Note_on_c, 11, 43, 127
13, 51473, Note_on_c, 11, 43, 0
13, 51480, Note_on_c, 11, 47, 127
13, 51533, Note_on_c, 11, 47, 0
13, 51540, Note_on_c, 11, 50, 127
13, 51593, Note_on_c, 11, 50, 0
13, 51600, Note_on_c, 11, 38, 127
13, 51653, Note_on_c, 11, 38, 0
13, 51660, Note_on_c, 11, 38, 127
13, 51713, Note_on_c, 11, 38, 0
13, 51720, Note_on_c, 11, 42, 127
13, 51773, Note_on_c, 11, 42, 0
13, 51780, Note_on_c, 11, 45, 127
13, 51833, Note_on_c, 11, 45, 0
13, 51840, Note_on_c, 11, 45, 127
13, 51960, Note_on_c, 11, 45, 0
13, 52080, Note_on_c, 11, 45, 127
13, 52200, Note_on_c, 11, 45, 0
13, 52320, Note_on_c, 11, 43, 127
13, 52373, Note_on_c, 11, 43, 0
13, 52380, Note_on_c, 11, 43, 127
13, 52433, Note_on_c, 11, 43, 0
13, 52440, Note_on_c, 11, 47, 127
13, 52493, Note_on_c, 11, 47, 0
13, 52500, Note_on_c, 11, 50, 127
13, 52553, Note_on_c, 11, 50, 0
13, 52560, Note_on_c, 11, 38, 127
13, 52613, Note_on_c, 11, 38, 0
13, 52620, Note_on_c, 11, 38, 127
13, 52673, Note_on_c, 11, 38, 0
13, 52680, Note_on_c, 11, 42, 127
13, 52733, Note_on_c, 11, 42, 0
13, 52740, Note_on_c, 11, 45, 127
13, 52793, Note_on_c, 11, 45, 0
13, 52800, Note_on_c, 11, 41, 127
13, 53040, Note_on_c, 11, 41, 0
13, 53040, Note_on_c, 11, 41, 127
13, 53100, Note_on_c, 11, 41, 0
13, 53100, Note_on_c, 11, 40, 127
13, 53160, Note_on_c, 11, 40, 0
13, 53160, Note_on_c, 11, 41, 127
13, 53220, Note_on_c, 11, 41, 0
13, 53220, Note_on_c, 11, 43, 127
13, 53640, Note_on_c, 11, 43, 0
13, 53760, Note_on_c, 11, 45, 127
13, 53880, Note_on_c, 11, 45, 0
13, 54000, Note_on_c, 11, 45, 127
13, 54120, Note_on_c, 11, 45, 0
13, 54240, Note_on_c, 11, 43, 127
13, 54293, Note_on_c, 11, 43, 0
13, 54300, Note_on_c, 11, 43, 127
13, 54353, Note_on_c, 11, 43, 0
13, 54360, Note_on_c, 11, 47, 127
13, 54413, Note_on_c, 11, 47, 0
13, 54420, Note_on_c, 11, 50, 127
13, 54473, Note_on_c, 11, 50, 0
13, 54480, Note_on_c, 11, 38, 127
13, 54533, Note_on_c, 11, 38, 0
13, 54540, Note_on_c, 11, 38, 127
13, 54593, Note_on_c, 11, 38, 0
13, 54600, Note_on_c, 11, 42, 127
13, 54653, Note_on_c, 11, 42, 0
13, 54660, Note_on_c, 11, 45, 127
13, 54713, Note_on_c, 11, 45, 0
13, 54720, Note_on_c, 11, 45, 127
13, 54840, Note_on_c, 11, 45, 0
13, 54960, Note_on_c, 11, 45, 127
13, 55080, Note_on_c, 11, 45, 0
13, 55200, Note_on_c, 11, 43, 127
13, 55253, Note_on_c, 11, 43, 0
13, 55260, Note_on_c, 11, 43, 127
13, 55313, Note_on_c, 11, 43, 0
13, 55320, Note_on_c, 11, 47, 127
13, 55373, Note_on_c, 11, 47, 0
13, 55380, Note_on_c, 11, 50, 127
13, 55433, Note_on_c, 11, 50, 0
13, 55440, Note_on_c, 11, 38, 127
13, 55493, Note_on_c, 11, 38, 0
13, 55500, Note_on_c, 11, 38, 127
13, 55553, Note_on_c, 11, 38, 0
13, 55560, Note_on_c, 11, 42, 127
13, 55613, Note_on_c, 11, 42, 0
13, 55620, Note_on_c, 11, 45, 127
13, 55673, Note_on_c, 11, 45, 0
13, 55680, Note_on_c, 11, 45, 127
13, 55800, Note_on_c, 11, 45, 0
13, 55920, Note_on_c, 11, 45, 127
13, 56040, Note_on_c, 11, 45, 0
13, 56160, Note_on_c, 11, 43, 127
13, 56213, Note_on_c, 11, 43, 0
13, 56220, Note_on_c, 11, 43, 127
13, 56273, Note_on_c, 11, 43, 0
13, 56280, Note_on_c, 11, 47, 127
13, 56333, Note_on_c, 11, 47, 0
13, 56340, Note_on_c, 11, 50, 127
13, 56393, Note_on_c, 11, 50, 0
13, 56400, Note_on_c, 11, 38, 127
13, 56453, Note_on_c, 11, 38, 0
13, 56460, Note_on_c, 11, 38, 127
13, 56513, Note_on_c, 11, 38, 0
13, 56520, Note_on_c, 11, 42, 127
13, 56573, Note_on_c, 11, 42, 0
13, 56580, Note_on_c, 11, 45, 127
13, 56633, Note_on_c, 11, 45, 0
13, 56640, Note_on_c, 11, 41, 127
13, 56880, Note_on_c, 11, 41, 0
13, 56880, Note_on_c, 11, 41, 127
13, 56940, Note_on_c, 11, 41, 0
13, 56940, Note_on_c, 11, 40, 127
13, 57000, Note_on_c, 11, 40, 0
13, 57000, Note_on_c, 11, 41, 127
13, 57060, Note_on_c, 11, 41, 0
13, 57060, Note_on_c, 11, 43, 127
13, 57480, Note_on_c, 11, 43, 0
13, 57600, Note_on_c, 11, 45, 127
13, 57720, Note_on_c, 11, 45, 0
13, 57840, Note_on_c, 11, 45, 127
13, 57960, Note_on_c, 11, 45, 0
13, 58080, Note_on_c, 11, 43, 127
13, 58133, Note_on_c, 11, 43, 0
13, 58140, Note_on_c, 11, 43, 127
13, 58193, Note_on_c, 11, 43, 0
13, 58200, Note_on_c, 11, 47, 127
13, 58253, Note_on_c, 11, 47, 0
13, 58260, Note_on_c, 11, 50, 127
13, 58313, Note_on_c, 11, 50, 0
13, 58320, Note_on_c, 11, 38, 127
13, 58373, Note_on_c, 11, 38, 0
13, 58380, Note_on_c, 11, 38, 127
13, 58433, Note_on_c, 11, 38, 0
13, 58440, Note_on_c, 11, 42, 127
13, 58493, Note_on_c, 11, 42, 0
13, 58500, Note_on_c, 11, 45, 127
13, 58553, Note_on_c, 11, 45, 0
13, 58560, Note_on_c, 11, 45, 127
13, 58680, Note_on_c, 11, 45, 0
13, 58800, Note_on_c, 11, 45, 127
13, 58920, Note_on_c, 11, 45, 0
13, 59040, Note_on_c, 11, 43, 127
13, 59093, Note_on_c, 11, 43, 0
13, 59100, Note_on_c, 11, 43, 127
13, 59153, Note_on_c, 11, 43, 0
13, 59160, Note_on_c, 11, 47, 127
13, 59213, Note_on_c, 11, 47, 0
13, 59220, Note_on_c, 11, 50, 127
13, 59273, Note_on_c, 11, 50, 0
13, 59280, Note_on_c, 11, 38, 127
13, 59333, Note_on_c, 11, 38, 0
13, 59340, Note_on_c, 11, 38, 127
13, 59393, Note_on_c, 11, 38, 0
13, 59400, Note_on_c, 11, 42, 127
13, 59453, Note_on_c, 11, 42, 0
13, 59460, Note_on_c, 11, 45, 127
13, 59513, Note_on_c, 11, 45, 0
13, 59520, Note_on_c, 11, 45, 127
13, 59640, Note_on_c, 11, 45, 0
13, 59760, Note_on_c, 11, 45, 127
13, 59880, Note_on_c, 11, 45, 0
13, 60000, Note_on_c, 11, 43, 127
13, 60053, Note_on_c, 11, 43, 0
13, 60060, Note_on_c, 11, 43, 127
13, 60113, Note_on_c, 11, 43, 0
13, 60120, Note_on_c, 11, 47, 127
13, 60173, Note_on_c, 11, 47, 0
13, 60180, Note_on_c, 11, 50, 127
13, 60233, Note_on_c, 11, 50, 0
13, 60240, Note_on_c, 11, 38, 127
13, 60293, Note_on_c, 11, 38, 0
13, 60300, Note_on_c, 11, 38, 127
13, 60353, Note_on_c, 11, 38, 0
13, 60360, Note_on_c, 11, 42, 127
13, 60413, Note_on_c, 11, 42, 0
13, 60420, Note_on_c, 11, 45, 127
13, 60473, Note_on_c, 11, 45, 0
13, 60480, Note_on_c, 11, 41, 127
13, 60720, Note_on_c, 11, 41, 0
13, 60720, Note_on_c, 11, 41, 127
13, 60780, Note_on_c, 11, 41, 0
13, 60780, Note_on_c, 11, 40, 127
13, 60840, Note_on_c, 11, 40, 0
13, 60840, Note_on_c, 11, 41, 127
13, 60900, Note_on_c, 11, 41, 0
13, 60900, Note_on_c, 11, 43, 127
13, 61320, Note_on_c, 11, 43, 0
13, 61440, Note_on_c, 11, 45, 127
13, 61560, Note_on_c, 11, 45, 0
13, 61680, Note_on_c, 11, 45, 127
13, 61800, Note_on_c, 11, 45, 0
13, 61920, Note_on_c, 11, 43, 127
13, 61973, Note_on_c, 11, 43, 0
13, 61980, Note_on_c, 11, 43, 127
13, 62033, Note_on_c, 11, 43, 0
13, 62040, Note_on_c, 11, 47, 127
13, 62093, Note_on_c, 11, 47, 0
13, 62100, Note_on_c, 11, 50, 127
13, 62153, Note_on_c, 11, 50, 0
13, 62160, Note_on_c, 11, 38, 127
13, 62213, Note_on_c, 11, 38, 0
13, 62220, Note_on_c, 11, 38, 127
13, 62273, Note_on_c, 11, 38, 0
13, 62280, Note_on_c, 11, 42, 127
13, 62333, Note_on_c, 11, 42, 0
13, 62340, Note_on_c, 11, 45, 127
13, 62393, Note_on_c, 11, 45, 0
13, 62400, Note_on_c, 11, 45, 127
13, 62520, Note_on_c, 11, 45, 0
13, 62640, Note_on_c, 11, 45, 127
13, 62760, Note_on_c, 11, 45, 0
13, 62880, Note_on_c, 11, 43, 127
13, 62933, Note_on_c, 11, 43, 0
13, 62940, Note_on_c, 11, 43, 127
13, 62993, Note_on_c, 11, 43, 0
13, 63000, Note_on_c, 11, 47, 127
13, 63053, Note_on_c, 11, 47, 0
13, 63060, Note_on_c, 11, 50, 127
13, 63113, Note_on_c, 11, 50, 0
13, 63120, Note_on_c, 11, 38, 127
13, 63173, Note_on_c, 11, 38, 0
13, 63180, Note_on_c, 11, 38, 127
13, 63233, Note_on_c, 11, 38, 0
13, 63240, Note_on_c, 11, 42, 127
13, 63293, Note_on_c, 11, 42, 0
13, 63300, Note_on_c, 11, 45, 127
13, 63353, Note_on_c, 11, 45, 0
13, 63360, Note_on_c, 11, 45, 127
13, 63480, Note_on_c, 11, 45, 0
13, 63600, Note_on_c, 11, 45, 127
13, 63720, Note_on_c, 11, 45, 0
13, 63840, Note_on_c, 11, 43, 127
13, 63893, Note_on_c, 11, 43, 0
13, 63900, Note_on_c, 11, 43, 127
13, 63953, Note_on_c, 11, 43, 0
13, 63960, Note_on_c, 11, 47, 127
13, 64013, Note_on_c, 11, 47, 0
13, 64020, Note_on_c, 11, 50, 127
13, 64073, Note_on_c, 11, 50, 0
13, 64080, Note_on_c, 11, 38, 127
13, 64133, Note_on_c, 11, 38, 0
13, 64140, Note_on_c, 11, 38, 127
13, 64193, Note_on_c, 11, 38, 0
13, 64200, Note_on_c, 11, 42, 127
13, 64253, Note_on_c, 11, 42, 0
13, 64260, Note_on_c, 11, 45, 127
13, 64313, Note_on_c, 11, 45, 0
13, 64320, Note_on_c, 11, 41, 127
13, 64560, Note_on_c, 11, 41, 0
13, 64560, Note_on_c, 11, 41, 127
13, 64620, Note_on_c, 11, 41, 0
13, 64620, Note_on_c, 11, 40, 127
13, 64680, Note_on_c, 11, 40, 0
13, 64680, Note_on_c, 11, 41, 127
13, 64740, Note_on_c, 11, 41, 0
13, 64740, Note_on_c, 11, 43, 127
13, 65160, Note_on_c, 11, 43, 0
13, 65280, Control_c, 11, 7, 117
13, 65280, Note_on_c, 11, 45, 127
13, 65303, Control_c, 11, 7, 116
13, 65326, Control_c, 11, 7, 115
13, 65350, Control_c, 11, 7, 114
13, 65373, Control_c, 11, 7, 113
13, 65396, Control_c, 11, 7, 112
13, 65400, Note_on_c, 11, 45, 0
13, 65420, Control_c, 11, 7, 111
13, 65443, Control_c, 11, 7, 110
13, 65466, Control_c, 11, 7, 109
13, 65486, Control_c, 11, 7, 108
13, 65510, Control_c, 11, 7, 107
13, 65520, Note_on_c, 11, 45, 127
13, 65533, Control_c, 11, 7, 106
13, 65556, Control_c, 11, 7, 105
13, 65580, Control_c, 11, 7, 104
13, 65603, Control_c, 11, 7, 103
13, 65626, Control_c, 11, 7, 102
13, 65640, Note_on_c, 11, 45, 0
13, 65650, Control_c, 11, 7, 101
13, 65673, Control_c, 11, 7, 100
13, 65693, Control_c, 11, 7, 99
13, 65716, Control_c, 11, 7, 98
13, 65740, Control_c, 11, 7, 97
13, 65760, Note_on_c, 11, 43, 127
13, 65763, Control_c, 11, 7, 96
13, 65786, Control_c, 11, 7, 95
13, 65810, Control_c, 11, 7, 94
13, 65813, Note_on_c, 11, 43, 0
13, 65820, Note_on_c, 11, 43, 127
13, 65833, Control_c, 11, 7, 93
13, 65856, Control_c, 11, 7, 92
13, 65873, Note_on_c, 11, 43, 0
13, 65880, Control_c, 11, 7, 91
13, 65880, Note_on_c, 11, 47, 127
13, 65900, Control_c, 11, 7, 90
13, 65923, Control_c, 11, 7, 89
13, 65933, Note_on_c, 11, 47, 0
13, 65940, Note_on_c, 11, 50, 127
13, 65946, Control_c, 11, 7, 88
13, 65970, Control_c, 11, 7, 87
13, 65993, Note_on_c, 11, 50, 0
13, 65993, Control_c, 11, 7, 86
13, 66000, Note_on_c, 11, 38, 127
13, 66016, Control_c, 11, 7, 85
13, 66040, Control_c, 11, 7, 84
13, 66053, Note_on_c, 11, 38, 0
13, 66060, Note_on_c, 11, 38, 127
13, 66063, Control_c, 11, 7, 83
13, 66086, Control_c, 11, 7, 82
13, 66106, Control_c, 11, 7, 81
13, 66113, Note_on_c, 11, 38, 0
13, 66120, Note_on_c, 11, 42, 127
13, 66130, Control_c, 11, 7, 80
13, 66153, Control_c, 11, 7, 79
13, 66173, Note_on_c, 11, 42, 0
13, 66176, Control_c, 11, 7, 78
13, 66180, Note_on_c, 11, 45, 127
13, 66200, Control_c, 11, 7, 77
13, 66223, Control_c, 11, 7, 76
13, 66233, Note_on_c, 11, 45, 0
13, 66240, Note_on_c, 11, 45, 127
13, 66246, Control_c, 11, 7, 75
13, 66270, Control_c, 11, 7, 74
13, 66293, Control_c, 11, 7, 73
13, 66313, Control_c, 11, 7, 72
13, 66336, Control_c, 11, 7, 71
13, 66347, Note_on_c, 11, 45, 0
13, 66360, Control_c, 11, 7, 70
13, 66383, Control_c, 11, 7, 69
13, 66406, Control_c, 11, 7, 68
13, 66430, Control_c, 11, 7, 67
13, 66453, Control_c, 11, 7, 66
13, 66476, Control_c, 11, 7, 65
13, 66480, Note_on_c, 11, 45, 127
13, 66500, Control_c, 11, 7, 64
13, 66520, Control_c, 11, 7, 63
13, 66543, Control_c, 11, 7, 62
13, 66566, Control_c, 11, 7, 61
13, 66587, Note_on_c, 11, 45, 0
13, 66590, Control_c, 11, 7, 60
13, 66613, Control_c, 11, 7, 59
13, 66636, Control_c, 11, 7, 58
13, 66660, Control_c, 11, 7, 57
13, 66683, Control_c, 11, 7, 56
13, 66706, Control_c, 11, 7, 55
13, 66720, Note_on_c, 11, 43, 127
13, 66726, Control_c, 11, 7, 54
13, 66750, Control_c, 11, 7, 53
13, 66773, Note_on_c, 11, 43, 0
13, 66773, Control_c, 11, 7, 52
13, 66780, Note_on_c, 11, 43, 127
13, 66796, Control_c, 11, 7, 51
13, 66820, Control_c, 11, 7, 50
13, 66833, Note_on_c, 11, 43, 0
13, 66840, Note_on_c, 11, 47, 127
13, 66843, Control_c, 11, 7, 49
13, 66866, Control_c, 11, 7, 48
13, 66890, Control_c, 11, 7, 47
13, 66893, Note_on_c, 11, 47, 0
13, 66900, Note_on_c, 11, 50, 127
13, 66913, Control_c, 11, 7, 46
13, 66933, Control_c, 11, 7, 45
13, 66953, Note_on_c, 11, 50, 0
13, 66956, Control_c, 11, 7, 44
13, 66960, Note_on_c, 11, 38, 127
13, 66980, Control_c, 11, 7, 43
13, 67003, Control_c, 11, 7, 42
13, 67013, Note_on_c, 11, 38, 0
13, 67020, Note_on_c, 11, 38, 127
13, 67026, Control_c, 11, 7, 41
13, 67050, Control_c, 11, 7, 40
13, 67073, Note_on_c, 11, 38, 0
13, 67073, Control_c, 11, 7, 39
13, 67080, Note_on_c, 11, 42, 127
13, 67096, Control_c, 11, 7, 38
13, 67120, Control_c, 11, 7, 37
13, 67133, Note_on_c, 11, 42, 0
13, 67140, Control_c, 11, 7, 36
13, 67140, Note_on_c, 11, 45, 127
13, 67163, Control_c, 11, 7, 35
13, 67186, Control_c, 11, 7, 34
13, 67193, Note_on_c, 11, 45, 0
13, 67200, Note_on_c, 11, 45, 127
13, 67210, Control_c, 11, 7, 33
13, 67233, Control_c, 11, 7, 32
13, 67256, Control_c, 11, 7, 31
13, 67280, Control_c, 11, 7, 30
13, 67303, Control_c, 11, 7, 29
13, 67307, Note_on_c, 11, 45, 0
13, 67326, Control_c, 11, 7, 28
13, 67346, Control_c, 11, 7, 27
13, 67370, Control_c, 11, 7, 26
13, 67393, Control_c, 11, 7, 25
13, 67416, Control_c, 11, 7, 24
13, 67440, Control_c, 11, 7, 23
13, 67440, Note_on_c, 11, 45, 127
13, 67463, Control_c, 11, 7, 22
13, 67486, Control_c, 11, 7, 21
13, 67510, Control_c, 11, 7, 20
13, 67533, Control_c, 11, 7, 19
13, 67547, Note_on_c, 11, 45, 0
13, 67553, Control_c, 11, 7, 18
13, 67576, Control_c, 11, 7, 17
13, 67600, Control_c, 11, 7, 16
13, 67623, Control_c, 11, 7, 15
13, 67646, Control_c, 11, 7, 14
13, 67670, Control_c, 11, 7, 13
13, 67680, Note_on_c, 11, 43, 127
13, 67693, Control_c, 11, 7, 12
13, 67716, Control_c, 11, 7, 11
13, 67733, Note_on_c, 11, 43, 0
13, 67740, Control_c, 11, 7, 10
13, 67740, Note_on_c, 11, 43, 127
13, 67760, Control_c, 11, 7, 9
13, 67783, Control_c, 11, 7, 8
13, 67793, Note_on_c, 11, 43, 0
13, 67800, Note_on_c, 11, 47, 127
13, 67806, Control_c, 11, 7, 7
13, 67830, Control_c, 11, 7, 6
13, 67853, Note_on_c, 11, 47, 0
13, 67853, Control_c, 11, 7, 5
13, 67860, Note_on_c, 11, 50, 127
13, 67876, Control_c, 11, 7, 4
13, 67900, Control_c, 11, 7, 3
13, 67913, Note_on_c, 11, 50, 0
13, 67920, Note_on_c, 11, 38, 127
13, 67923, Control_c, 11, 7, 2
13, 67946, Control_c, 11, 7, 1
13, 67966, Control_c, 11, 7, 0
13, 67973, Note_on_c, 11, 38, 0
13, 67980, Note_on_c, 11, 38, 127
13, 68033, Note_on_c, 11, 38, 0
13, 68040, Note_on_c, 11, 42, 127
13, 68093, Note_on_c, 11, 42, 0
13, 68100, Note_on_c, 11, 45, 127
13, 68153, Note_on_c, 11, 45, 0
13, 68160, Note_on_c, 11, 41, 127
13, 68374, Note_on_c, 11, 41, 0
13, 68400, Note_on_c, 11, 41, 127
13, 68453, Note_on_c, 11, 41, 0
13, 68460, Note_on_c, 11, 40, 127
13, 68513, Note_on_c, 11, 40, 0
13, 68520, Note_on_c, 11, 41, 127
13, 68573, Note_on_c, 11, 41, 0
13, 68580, Note_on_c, 11, 43, 127
13, 68954, Note_on_c, 11, 43, 0
13, 68954, End_track
14, 0, Start_track
14, 0, MIDI_port, 0
14, 0, Title_t, "Timpani"
14, 0, Control_c, 12, 0, 0
14, 0, Control_c, 12, 32, 0
14, 0, Program_c, 12, 47
14, 0, Control_c, 12, 7, 90
14, 653, Control_c, 12, 7, 90
14, 653, Control_c, 12, 10, 64
14, 4745, Control_c, 12, 7, 91
14, 4755, Control_c, 12, 7, 92
14, 4765, Control_c, 12, 7, 93
14, 4775, Control_c, 12, 7, 94
14, 4780, Control_c, 12, 7, 95
14, 21420, Note_on_c, 12, 38, 100
14, 21480, Note_on_c, 12, 38, 0
14, 21480, Note_on_c, 12, 38, 100
14, 21540, Note_on_c, 12, 38, 0
14, 21540, Note_on_c, 12, 38, 100
14, 21600, Note_on_c, 12, 38, 0
14, 21600, Note_on_c, 12, 45, 100
14, 21660, Note_on_c, 12, 45, 0
14, 23340, Note_on_c, 12, 38, 100
14, 23400, Note_on_c, 12, 38, 0
14, 23400, Note_on_c, 12, 41, 100
14, 23460, Note_on_c, 12, 41, 0
14, 23460, Note_on_c, 12, 38, 100
14, 23520, Note_on_c, 12, 38, 0
14, 23520, Note_on_c, 12, 45, 100
14, 23580, Note_on_c, 12, 45, 0
14, 25800, Note_on_c, 12, 35, 100
14, 25860, Note_on_c, 12, 35, 0
14, 25860, Note_on_c, 12, 35, 100
14, 25920, Note_on_c, 12, 35, 0
14, 30540, Note_on_c, 12, 38, 100
14, 30600, Note_on_c, 12, 38, 0
14, 30600, Note_on_c, 12, 38, 100
14, 30660, Note_on_c, 12, 38, 0
14, 30660, Note_on_c, 12, 38, 100
14, 30720, Note_on_c, 12, 38, 0
14, 30720, Note_on_c, 12, 33, 100
14, 30780, Note_on_c, 12, 33, 0
14, 38660, Control_c, 12, 7, 110
14, 45900, Note_on_c, 12, 41, 100
14, 45960, Note_on_c, 12, 41, 0
14, 45960, Note_on_c, 12, 43, 100
14, 46020, Note_on_c, 12, 43, 0
14, 46020, Note_on_c, 12, 43, 100
14, 46080, Note_on_c, 12, 43, 0
14, 49740, Note_on_c, 12, 38, 100
14, 49800, Note_on_c, 12, 38, 0
14, 49800, Note_on_c, 12, 38, 100
14, 49800, Note_on_c, 12, 41, 100
14, 49860, Note_on_c, 12, 41, 0
14, 49860, Note_on_c, 12, 38, 0
14, 49860, Note_on_c, 12, 47, 100
14, 49860, Note_on_c, 12, 43, 100
14, 49920, Note_on_c, 12, 43, 0
14, 49920, Note_on_c, 12, 47, 0
14, 51720, Note_on_c, 12, 38, 100
14, 51780, Note_on_c, 12, 38, 0
14, 51780, Note_on_c, 12, 38, 100
14, 51840, Note_on_c, 12, 38, 0
14, 51840, Note_on_c, 12, 33, 100
14, 51900, Note_on_c, 12, 33, 0
14, 52800, Note_on_c, 12, 41, 100
14, 52860, Note_on_c, 12, 41, 0
14, 53580, Note_on_c, 12, 38, 100
14, 53640, Note_on_c, 12, 38, 0
14, 53640, Note_on_c, 12, 40, 100
14, 53700, Note_on_c, 12, 40, 0
14, 53700, Note_on_c, 12, 38, 100
14, 53760, Note_on_c, 12, 38, 0
14, 57420, Note_on_c, 12, 36, 100
14, 57480, Note_on_c, 12, 36, 0
14, 57480, Note_on_c, 12, 40, 100
14, 57510, Note_on_c, 12, 40, 100
14, 57540, Note_on_c, 12, 40, 0
14, 57540, Note_on_c, 12, 40, 0
14, 57540, Note_on_c, 12, 36, 100
14, 57600, Note_on_c, 12, 36, 0
14, 57600, Note_on_c, 12, 33, 100
14, 57630, Note_on_c, 12, 33, 0
14, 61260, Note_on_c, 12, 36, 100
14, 61320, Note_on_c, 12, 36, 0
14, 61320, Note_on_c, 12, 35, 100
14, 61380, Note_on_c, 12, 35, 0
14, 61380, Note_on_c, 12, 36, 100
14, 61440, Note_on_c, 12, 36, 0
14, 61440, End_track
15, 0, Start_track
15, 0, MIDI_port, 0
15, 0, Title_t, "Brass Section trumpet"
15, 0, Control_c, 13, 0, 0
15, 0, Control_c, 13, 32, 0
15, 0, Program_c, 13, 56
15, 0, Control_c, 13, 7, 127
15, 653, Control_c, 13, 7, 100
15, 653, Control_c, 13, 10, 64
15, 36760, Control_c, 13, 7, 111
15, 38520, Note_on_c, 13, 74, 100
15, 38580, Note_on_c, 13, 74, 0
15, 38580, Note_on_c, 13, 72, 100
15, 38640, Note_on_c, 13, 72, 0
15, 38760, Note_on_c, 13, 74, 100
15, 38820, Note_on_c, 13, 74, 0
15, 38820, Note_on_c, 13, 72, 100
15, 38880, Note_on_c, 13, 72, 0
15, 38985, Control_c, 13, 7, 115
15, 39000, Note_on_c, 13, 71, 100
15, 39060, Note_on_c, 13, 71, 0
15, 39060, Note_on_c, 13, 69, 100
15, 39300, Note_on_c, 13, 69, 0
15, 39480, Note_on_c, 13, 74, 100
15, 39540, Note_on_c, 13, 74, 0
15, 39540, Note_on_c, 13, 72, 100
15, 39600, Note_on_c, 13, 72, 0
15, 39635, Control_c, 13, 10, 78
15, 39645, Control_c, 13, 10, 73
15, 39665, Control_c, 13, 10, 67
15, 39685, Control_c, 13, 10, 63
15, 39705, Control_c, 13, 10, 59
15, 39715, Control_c, 13, 10, 55
15, 39720, Control_c, 13, 10, 52
15, 39720, Note_on_c, 13, 74, 100
15, 39725, Control_c, 13, 10, 49
15, 39780, Note_on_c, 13, 74, 0
15, 39780, Note_on_c, 13, 72, 100
15, 39840, Note_on_c, 13, 72, 0
15, 39960, Note_on_c, 13, 71, 100
15, 40020, Note_on_c, 13, 71, 0
15, 40020, Note_on_c, 13, 69, 100
15, 40260, Note_on_c, 13, 69, 0
15, 40440, Note_on_c, 13, 74, 100
15, 40500, Note_on_c, 13, 74, 0
15, 40500, Note_on_c, 13, 72, 100
15, 40560, Note_on_c, 13, 72, 0
15, 40680, Note_on_c, 13, 74, 100
15, 40685, Control_c, 13, 7, 116
15, 40690, Control_c, 13, 7, 117
15, 40695, Control_c, 13, 7, 119
15, 40700, Control_c, 13, 7, 122
15, 40700, Control_c, 13, 7, 120
15, 40705, Control_c, 13, 7, 124
15, 40705, Control_c, 13, 7, 127
15, 40740, Note_on_c, 13, 74, 0
15, 40740, Note_on_c, 13, 72, 100
15, 40800, Note_on_c, 13, 72, 0
15, 40920, Note_on_c, 13, 71, 100
15, 40980, Note_on_c, 13, 71, 0
15, 40980, Note_on_c, 13, 69, 100
15, 41220, Note_on_c, 13, 69, 0
15, 42360, Note_on_c, 13, 74, 100
15, 42420, Note_on_c, 13, 74, 0
15, 42420, Note_on_c, 13, 72, 100
15, 42480, Note_on_c, 13, 72, 0
15, 42600, Note_on_c, 13, 74, 100
15, 42660, Note_on_c, 13, 74, 0
15, 42660, Note_on_c, 13, 72, 100
15, 42720, Note_on_c, 13, 72, 0
15, 42840, Note_on_c, 13, 71, 100
15, 42900, Note_on_c, 13, 71, 0
15, 42900, Note_on_c, 13, 69, 100
15, 43140, Note_on_c, 13, 69, 0
15, 43320, Note_on_c, 13, 74, 100
15, 43380, Note_on_c, 13, 74, 0
15, 43380, Note_on_c, 13, 72, 100
15, 43440, Note_on_c, 13, 72, 0
15, 43560, Note_on_c, 13, 74, 100
15, 43620, Note_on_c, 13, 74, 0
15, 43620, Note_on_c, 13, 72, 100
15, 43680, Note_on_c, 13, 72, 0
15, 43800, Note_on_c, 13, 71, 100
15, 43860, Note_on_c, 13, 71, 0
15, 43860, Note_on_c, 13, 69, 100
15, 44100, Note_on_c, 13, 69, 0
15, 44280, Note_on_c, 13, 74, 100
15, 44340, Note_on_c, 13, 74, 0
15, 44340, Note_on_c, 13, 72, 100
15, 44400, Note_on_c, 13, 72, 0
15, 44520, Note_on_c, 13, 74, 100
15, 44580, Note_on_c, 13, 74, 0
15, 44580, Note_on_c, 13, 72, 100
15, 44640, Note_on_c, 13, 72, 0
15, 44760, Note_on_c, 13, 71, 100
15, 44820, Note_on_c, 13, 71, 0
15, 44820, Note_on_c, 13, 69, 100
15, 45060, Note_on_c, 13, 69, 0
15, 46200, Note_on_c, 13, 74, 100
15, 46260, Note_on_c, 13, 74, 0
15, 46260, Note_on_c, 13, 72, 100
15, 46320, Note_on_c, 13, 72, 0
15, 46440, Note_on_c, 13, 74, 100
15, 46500, Note_on_c, 13, 74, 0
15, 46500, Note_on_c, 13, 72, 100
15, 46560, Note_on_c, 13, 72, 0
15, 46680, Note_on_c, 13, 71, 100
15, 46740, Note_on_c, 13, 71, 0
15, 46740, Note_on_c, 13, 69, 100
15, 46980, Note_on_c, 13, 69, 0
15, 47160, Note_on_c, 13, 74, 100
15, 47220, Note_on_c, 13, 74, 0
15, 47220, Note_on_c, 13, 72, 100
15, 47280, Note_on_c, 13, 72, 0
15, 47400, Note_on_c, 13, 74, 100
15, 47460, Note_on_c, 13, 74, 0
15, 47460, Note_on_c, 13, 72, 100
15, 47520, Note_on_c, 13, 72, 0
15, 47640, Note_on_c, 13, 71, 100
15, 47700, Note_on_c, 13, 71, 0
15, 47700, Note_on_c, 13, 69, 100
15, 47940, Note_on_c, 13, 69, 0
15, 48120, Note_on_c, 13, 74, 100
15, 48180, Note_on_c, 13, 74, 0
15, 48180, Note_on_c, 13, 72, 100
15, 48240, Note_on_c, 13, 72, 0
15, 48360, Note_on_c, 13, 74, 100
15, 48420, Note_on_c, 13, 74, 0
15, 48420, Note_on_c, 13, 72, 100
15, 48480, Note_on_c, 13, 72, 0
15, 48600, Note_on_c, 13, 71, 100
15, 48660, Note_on_c, 13, 71, 0
15, 48660, Note_on_c, 13, 69, 100
15, 48900, Note_on_c, 13, 69, 0
15, 50040, Note_on_c, 13, 74, 100
15, 50100, Note_on_c, 13, 74, 0
15, 50100, Note_on_c, 13, 72, 100
15, 50160, Note_on_c, 13, 72, 0
15, 50280, Note_on_c, 13, 74, 100
15, 50340, Note_on_c, 13, 74, 0
15, 50340, Note_on_c, 13, 72, 100
15, 50400, Note_on_c, 13, 72, 0
15, 50440, Control_c, 13, 7, 104
15, 50520, Note_on_c, 13, 71, 100
15, 50580, Note_on_c, 13, 71, 0
15, 50580, Note_on_c, 13, 69, 100
15, 50820, Note_on_c, 13, 69, 0
15, 51000, Note_on_c, 13, 74, 100
15, 51060, Note_on_c, 13, 74, 0
15, 51060, Note_on_c, 13, 72, 100
15, 51120, Note_on_c, 13, 72, 0
15, 51240, Note_on_c, 13, 74, 100
15, 51300, Note_on_c, 13, 74, 0
15, 51300, Note_on_c, 13, 72, 100
15, 51360, Note_on_c, 13, 72, 0
15, 51480, Note_on_c, 13, 71, 100
15, 51540, Note_on_c, 13, 71, 0
15, 51540, Note_on_c, 13, 69, 100
15, 51780, Note_on_c, 13, 69, 0
15, 51960, Note_on_c, 13, 74, 100
15, 52020, Note_on_c, 13, 74, 0
15, 52020, Note_on_c, 13, 72, 100
15, 52080, Note_on_c, 13, 72, 0
15, 52200, Note_on_c, 13, 74, 100
15, 52260, Note_on_c, 13, 74, 0
15, 52260, Note_on_c, 13, 72, 100
15, 52320, Note_on_c, 13, 72, 0
15, 52440, Note_on_c, 13, 71, 100
15, 52500, Note_on_c, 13, 71, 0
15, 52500, Note_on_c, 13, 69, 100
15, 52740, Note_on_c, 13, 69, 0
15, 53880, Note_on_c, 13, 74, 100
15, 53940, Note_on_c, 13, 74, 0
15, 53940, Note_on_c, 13, 72, 100
15, 54000, Note_on_c, 13, 72, 0
15, 54120, Note_on_c, 13, 74, 100
15, 54180, Note_on_c, 13, 74, 0
15, 54180, Note_on_c, 13, 72, 100
15, 54240, Note_on_c, 13, 72, 0
15, 54360, Note_on_c, 13, 71, 100
15, 54420, Note_on_c, 13, 71, 0
15, 54420, Note_on_c, 13, 69, 100
15, 54660, Note_on_c, 13, 69, 0
15, 54840, Note_on_c, 13, 74, 100
15, 54900, Note_on_c, 13, 74, 0
15, 54900, Note_on_c, 13, 72, 100
15, 54960, Note_on_c, 13, 72, 0
15, 55080, Note_on_c, 13, 74, 100
15, 55140, Note_on_c, 13, 74, 0
15, 55140, Note_on_c, 13, 72, 100
15, 55200, Note_on_c, 13, 72, 0
15, 55320, Note_on_c, 13, 71, 100
15, 55380, Note_on_c, 13, 71, 0
15, 55380, Note_on_c, 13, 69, 100
15, 55620, Note_on_c, 13, 69, 0
15, 55800, Note_on_c, 13, 74, 100
15, 55860, Note_on_c, 13, 74, 0
15, 55860, Note_on_c, 13, 72, 100
15, 55920, Note_on_c, 13, 72, 0
15, 56040, Note_on_c, 13, 74, 100
15, 56100, Note_on_c, 13, 74, 0
15, 56100, Note_on_c, 13, 72, 100
15, 56160, Note_on_c, 13, 72, 0
15, 56280, Note_on_c, 13, 71, 100
15, 56340, Note_on_c, 13, 71, 0
15, 56340, Note_on_c, 13, 69, 100
15, 56580, Note_on_c, 13, 69, 0
15, 57720, Note_on_c, 13, 74, 100
15, 57780, Note_on_c, 13, 74, 0
15, 57780, Note_on_c, 13, 72, 100
15, 57840, Note_on_c, 13, 72, 0
15, 57960, Note_on_c, 13, 74, 100
15, 58020, Note_on_c, 13, 74, 0
15, 58020, Note_on_c, 13, 72, 100
15, 58080, Note_on_c, 13, 72, 0
15, 58200, Note_on_c, 13, 71, 100
15, 58260, Note_on_c, 13, 71, 0
15, 58260, Note_on_c, 13, 69, 100
15, 58500, Note_on_c, 13, 69, 0
15, 58680, Note_on_c, 13, 74, 100
15, 58740, Note_on_c, 13, 74, 0
15, 58740, Note_on_c, 13, 72, 100
15, 58800, Note_on_c, 13, 72, 0
15, 58920, Note_on_c, 13, 74, 100
15, 58980, Note_on_c, 13, 74, 0
15, 58980, Note_on_c, 13, 72, 100
15, 59040, Note_on_c, 13, 72, 0
15, 59160, Note_on_c, 13, 71, 100
15, 59220, Note_on_c, 13, 71, 0
15, 59220, Note_on_c, 13, 69, 100
15, 59460, Note_on_c, 13, 69, 0
15, 59640, Note_on_c, 13, 74, 100
15, 59700, Note_on_c, 13, 74, 0
15, 59700, Note_on_c, 13, 72, 100
15, 59760, Note_on_c, 13, 72, 0
15, 59880, Note_on_c, 13, 74, 100
15, 59940, Note_on_c, 13, 74, 0
15, 59940, Note_on_c, 13, 72, 100
15, 60000, Note_on_c, 13, 72, 0
15, 60120, Note_on_c, 13, 71, 100
15, 60180, Note_on_c, 13, 71, 0
15, 60180, Note_on_c, 13, 69, 100
15, 60420, Note_on_c, 13, 69, 0
15, 61560, Note_on_c, 13, 74, 100
15, 61620, Note_on_c, 13, 74, 0
15, 61620, Note_on_c, 13, 72, 100
15, 61680, Note_on_c, 13, 72, 0
15, 61800, Note_on_c, 13, 74, 100
15, 61860, Note_on_c, 13, 74, 0
15, 61860, Note_on_c, 13, 72, 100
15, 61920, Note_on_c, 13, 72, 0
15, 62040, Note_on_c, 13, 71, 100
15, 62100, Note_on_c, 13, 71, 0
15, 62100, Note_on_c, 13, 69, 100
15, 62340, Note_on_c, 13, 69, 0
15, 62520, Note_on_c, 13, 74, 100
15, 62580, Note_on_c, 13, 74, 0
15, 62580, Note_on_c, 13, 72, 100
15, 62640, Note_on_c, 13, 72, 0
15, 62760, Note_on_c, 13, 74, 100
15, 62820, Note_on_c, 13, 74, 0
15, 62820, Note_on_c, 13, 72, 100
15, 62880, Note_on_c, 13, 72, 0
15, 63000, Note_on_c, 13, 71, 100
15, 63060, Note_on_c, 13, 71, 0
15, 63060, Note_on_c, 13, 69, 100
15, 63300, Note_on_c, 13, 69, 0
15, 63480, Note_on_c, 13, 74, 100
15, 63540, Note_on_c, 13, 74, 0
15, 63540, Note_on_c, 13, 72, 100
15, 63600, Note_on_c, 13, 72, 0
15, 63720, Note_on_c, 13, 74, 100
15, 63780, Note_on_c, 13, 74, 0
15, 63780, Note_on_c, 13, 72, 100
15, 63840, Note_on_c, 13, 72, 0
15, 63960, Note_on_c, 13, 71, 100
15, 64020, Note_on_c, 13, 71, 0
15, 64020, Note_on_c, 13, 69, 100
15, 64260, Note_on_c, 13, 69, 0
15, 64260, End_track
16, 0, Start_track
16, 0, MIDI_port, 0
16, 0, Title_t, "Brass Section Saxophone"
16, 0, Control_c, 14, 0, 0
16, 0, Control_c, 14, 32, 0
16, 0, Program_c, 14, 66
16, 0, Control_c, 14, 7, 127
16, 653, Control_c, 14, 7, 105
16, 653, Control_c, 14, 10, 64
16, 38520, Note_on_c, 14, 71, 100
16, 38580, Note_on_c, 14, 71, 0
16, 38580, Note_on_c, 14, 69, 100
16, 38640, Note_on_c, 14, 69, 0
16, 38760, Note_on_c, 14, 71, 100
16, 38820, Note_on_c, 14, 71, 0
16, 38820, Note_on_c, 14, 69, 100
16, 38880, Note_on_c, 14, 69, 0
16, 39000, Note_on_c, 14, 67, 100
16, 39060, Note_on_c, 14, 67, 0
16, 39060, Note_on_c, 14, 66, 100
16, 39090, Control_c, 14, 7, 115
16, 39300, Note_on_c, 14, 66, 0
16, 39480, Note_on_c, 14, 71, 100
16, 39540, Note_on_c, 14, 71, 0
16, 39540, Note_on_c, 14, 69, 100
16, 39600, Note_on_c, 14, 69, 0
16, 39720, Note_on_c, 14, 71, 100
16, 39780, Note_on_c, 14, 71, 0
16, 39780, Note_on_c, 14, 69, 100
16, 39840, Note_on_c, 14, 69, 0
16, 39855, Control_c, 14, 10, 68
16, 39905, Control_c, 14, 10, 71
16, 39930, Control_c, 14, 10, 73
16, 39960, Note_on_c, 14, 67, 100
16, 40020, Note_on_c, 14, 67, 0
16, 40020, Note_on_c, 14, 66, 100
16, 40260, Note_on_c, 14, 66, 0
16, 40440, Note_on_c, 14, 71, 100
16, 40500, Note_on_c, 14, 71, 0
16, 40500, Note_on_c, 14, 69, 100
16, 40560, Note_on_c, 14, 69, 0
16, 40680, Note_on_c, 14, 71, 100
16, 40740, Note_on_c, 14, 71, 0
16, 40740, Note_on_c, 14, 69, 100
16, 40800, Note_on_c, 14, 69, 0
16, 40920, Note_on_c, 14, 67, 100
16, 40980, Note_on_c, 14, 67, 0
16, 40980, Note_on_c, 14, 66, 100
16, 41220, Note_on_c, 14, 66, 0
16, 42360, Note_on_c, 14, 71, 100
16, 42420, Note_on_c, 14, 71, 0
16, 42420, Note_on_c, 14, 69, 100
16, 42480, Note_on_c, 14, 69, 0
16, 42600, Note_on_c, 14, 71, 100
16, 42660, Note_on_c, 14, 71, 0
16, 42660, Note_on_c, 14, 69, 100
16, 42720, Note_on_c, 14, 69, 0
16, 42840, Note_on_c, 14, 67, 100
16, 42900, Note_on_c, 14, 67, 0
16, 42900, Note_on_c, 14, 66, 100
16, 43140, Note_on_c, 14, 66, 0
16, 43320, Note_on_c, 14, 71, 100
16, 43380, Note_on_c, 14, 71, 0
16, 43380, Note_on_c, 14, 69, 100
16, 43440, Note_on_c, 14, 69, 0
16, 43560, Note_on_c, 14, 71, 100
16, 43620, Note_on_c, 14, 71, 0
16, 43620, Note_on_c, 14, 69, 100
16, 43680, Note_on_c, 14, 69, 0
16, 43800, Note_on_c, 14, 67, 100
16, 43860, Note_on_c, 14, 67, 0
16, 43860, Note_on_c, 14, 66, 100
16, 44100, Note_on_c, 14, 66, 0
16, 44280, Note_on_c, 14, 71, 100
16, 44340, Note_on_c, 14, 71, 0
16, 44340, Note_on_c, 14, 69, 100
16, 44400, Note_on_c, 14, 69, 0
16, 44520, Note_on_c, 14, 71, 100
16, 44580, Note_on_c, 14, 71, 0
16, 44580, Note_on_c, 14, 69, 100
16, 44640, Note_on_c, 14, 69, 0
16, 44760, Note_on_c, 14, 67, 100
16, 44820, Note_on_c, 14, 67, 0
16, 44820, Note_on_c, 14, 66, 100
16, 45060, Note_on_c, 14, 66, 0
16, 46200, Note_on_c, 14, 71, 100
16, 46260, Note_on_c, 14, 71, 0
16, 46260, Note_on_c, 14, 69, 100
16, 46320, Note_on_c, 14, 69, 0
16, 46440, Note_on_c, 14, 71, 100
16, 46500, Note_on_c, 14, 71, 0
16, 46500, Note_on_c, 14, 69, 100
16, 46560, Note_on_c, 14, 69, 0
16, 46680, Note_on_c, 14, 67, 100
16, 46740, Note_on_c, 14, 67, 0
16, 46740, Note_on_c, 14, 66, 100
16, 46980, Note_on_c, 14, 66, 0
16, 47160, Note_on_c, 14, 71, 100
16, 47220, Note_on_c, 14, 71, 0
16, 47220, Note_on_c, 14, 69, 100
16, 47280, Note_on_c, 14, 69, 0
16, 47400, Note_on_c, 14, 71, 100
16, 47460, Note_on_c, 14, 71, 0
16, 47460, Note_on_c, 14, 69, 100
16, 47520, Note_on_c, 14, 69, 0
16, 47640, Note_on_c, 14, 67, 100
16, 47700, Note_on_c, 14, 67, 0
16, 47700, Note_on_c, 14, 66, 100
16, 47940, Note_on_c, 14, 66, 0
16, 48120, Note_on_c, 14, 71, 100
16, 48180, Note_on_c, 14, 71, 0
16, 48180, Note_on_c, 14, 69, 100
16, 48240, Note_on_c, 14, 69, 0
16, 48360, Note_on_c, 14, 71, 100
16, 48420, Note_on_c, 14, 71, 0
16, 48420, Note_on_c, 14, 69, 100
16, 48480, Note_on_c, 14, 69, 0
16, 48600, Note_on_c, 14, 67, 100
16, 48660, Note_on_c, 14, 67, 0
16, 48660, Note_on_c, 14, 66, 100
16, 48900, Note_on_c, 14, 66, 0
16, 49935, Control_c, 14, 7, 116
16, 49940, Control_c, 14, 7, 117
16, 49945, Control_c, 14, 7, 122
16, 49945, Control_c, 14, 7, 119
16, 49950, Control_c, 14, 7, 127
16, 50040, Note_on_c, 14, 71, 100
16, 50100, Note_on_c, 14, 71, 0
16, 50100, Note_on_c, 14, 69, 100
16, 50160, Note_on_c, 14, 69, 0
16, 50280, Note_on_c, 14, 71, 100
16, 50340, Note_on_c, 14, 71, 0
16, 50340, Note_on_c, 14, 69, 100
16, 50400, Note_on_c, 14, 69, 0
16, 50515, Control_c, 14, 7, 104
16, 50520, Note_on_c, 14, 67, 100
16, 50580, Note_on_c, 14, 67, 0
16, 50580, Note_on_c, 14, 66, 100
16, 50820, Note_on_c, 14, 66, 0
16, 51000, Note_on_c, 14, 71, 100
16, 51060, Note_on_c, 14, 71, 0
16, 51060, Note_on_c, 14, 69, 100
16, 51120, Note_on_c, 14, 69, 0
16, 51240, Note_on_c, 14, 71, 100
16, 51300, Note_on_c, 14, 71, 0
16, 51300, Note_on_c, 14, 69, 100
16, 51360, Note_on_c, 14, 69, 0
16, 51480, Note_on_c, 14, 67, 100
16, 51540, Note_on_c, 14, 67, 0
16, 51540, Note_on_c, 14, 66, 100
16, 51780, Note_on_c, 14, 66, 0
16, 51960, Note_on_c, 14, 71, 100
16, 52020, Note_on_c, 14, 71, 0
16, 52020, Note_on_c, 14, 69, 100
16, 52080, Note_on_c, 14, 69, 0
16, 52200, Note_on_c, 14, 71, 100
16, 52260, Note_on_c, 14, 71, 0
16, 52260, Note_on_c, 14, 69, 100
16, 52320, Note_on_c, 14, 69, 0
16, 52440, Note_on_c, 14, 67, 100
16, 52500, Note_on_c, 14, 67, 0
16, 52500, Note_on_c, 14, 66, 100
16, 52740, Note_on_c, 14, 66, 0
16, 53880, Note_on_c, 14, 71, 100
16, 53940, Note_on_c, 14, 71, 0
16, 53940, Note_on_c, 14, 69, 100
16, 54000, Note_on_c, 14, 69, 0
16, 54120, Note_on_c, 14, 71, 100
16, 54180, Note_on_c, 14, 71, 0
16, 54180, Note_on_c, 14, 69, 100
16, 54240, Note_on_c, 14, 69, 0
16, 54360, Note_on_c, 14, 67, 100
16, 54420, Note_on_c, 14, 67, 0
16, 54420, Note_on_c, 14, 66, 100
16, 54660, Note_on_c, 14, 66, 0
16, 54840, Note_on_c, 14, 71, 100
16, 54900, Note_on_c, 14, 71, 0
16, 54900, Note_on_c, 14, 69, 100
16, 54960, Note_on_c, 14, 69, 0
16, 55080, Note_on_c, 14, 71, 100
16, 55140, Note_on_c, 14, 71, 0
16, 55140, Note_on_c, 14, 69, 100
16, 55200, Note_on_c, 14, 69, 0
16, 55320, Note_on_c, 14, 67, 100
16, 55380, Note_on_c, 14, 67, 0
16, 55380, Note_on_c, 14, 66, 100
16, 55620, Note_on_c, 14, 66, 0
16, 55800, Note_on_c, 14, 71, 100
16, 55860, Note_on_c, 14, 71, 0
16, 55860, Note_on_c, 14, 69, 100
16, 55920, Note_on_c, 14, 69, 0
16, 56040, Note_on_c, 14, 71, 100
16, 56100, Note_on_c, 14, 71, 0
16, 56100, Note_on_c, 14, 69, 100
16, 56160, Note_on_c, 14, 69, 0
16, 56280, Note_on_c, 14, 67, 100
16, 56340, Note_on_c, 14, 67, 0
16, 56340, Note_on_c, 14, 66, 100
16, 56580, Note_on_c, 14, 66, 0
16, 57720, Note_on_c, 14, 71, 100
16, 57780, Note_on_c, 14, 71, 0
16, 57780, Note_on_c, 14, 69, 100
16, 57840, Note_on_c, 14, 69, 0
16, 57960, Note_on_c, 14, 71, 100
16, 58020, Note_on_c, 14, 71, 0
16, 58020, Note_on_c, 14, 69, 100
16, 58080, Note_on_c, 14, 69, 0
16, 58200, Note_on_c, 14, 67, 100
16, 58260, Note_on_c, 14, 67, 0
16, 58260, Note_on_c, 14, 66, 100
16, 58500, Note_on_c, 14, 66, 0
16, 58680, Note_on_c, 14, 71, 100
16, 58740, Note_on_c, 14, 71, 0
16, 58740, Note_on_c, 14, 69, 100
16, 58800, Note_on_c, 14, 69, 0
16, 58920, Note_on_c, 14, 71, 100
16, 58980, Note_on_c, 14, 71, 0
16, 58980, Note_on_c, 14, 69, 100
16, 59040, Note_on_c, 14, 69, 0
16, 59160, Note_on_c, 14, 67, 100
16, 59220, Note_on_c, 14, 67, 0
16, 59220, Note_on_c, 14, 66, 100
16, 59460, Note_on_c, 14, 66, 0
16, 59640, Note_on_c, 14, 71, 100
16, 59700, Note_on_c, 14, 71, 0
16, 59700, Note_on_c, 14, 69, 100
16, 59760, Note_on_c, 14, 69, 0
16, 59880, Note_on_c, 14, 71, 100
16, 59940, Note_on_c, 14, 71, 0
16, 59940, Note_on_c, 14, 69, 100
16, 60000, Note_on_c, 14, 69, 0
16, 60120, Note_on_c, 14, 67, 100
16, 60180, Note_on_c, 14, 67, 0
16, 60180, Note_on_c, 14, 66, 100
16, 60420, Note_on_c, 14, 66, 0
16, 61560, Note_on_c, 14, 71, 100
16, 61620, Note_on_c, 14, 71, 0
16, 61620, Note_on_c, 14, 69, 100
16, 61680, Note_on_c, 14, 69, 0
16, 61800, Note_on_c, 14, 71, 100
16, 61860, Note_on_c, 14, 71, 0
16, 61860, Note_on_c, 14, 69, 100
16, 61920, Note_on_c, 14, 69, 0
16, 62040, Note_on_c, 14, 67, 100
16, 62100, Note_on_c, 14, 67, 0
16, 62100, Note_on_c, 14, 66, 100
16, 62340, Note_on_c, 14, 66, 0
16, 62520, Note_on_c, 14, 71, 100
16, 62580, Note_on_c, 14, 71, 0
16, 62580, Note_on_c, 14, 69, 100
16, 62640, Note_on_c, 14, 69, 0
16, 62760, Note_on_c, 14, 71, 100
16, 62820, Note_on_c, 14, 71, 0
16, 62820, Note_on_c, 14, 69, 100
16, 62880, Note_on_c, 14, 69, 0
16, 63000, Note_on_c, 14, 67, 100
16, 63060, Note_on_c, 14, 67, 0
16, 63060, Note_on_c, 14, 66, 100
16, 63300, Note_on_c, 14, 66, 0
16, 63480, Note_on_c, 14, 71, 100
16, 63540, Note_on_c, 14, 71, 0
16, 63540, Note_on_c, 14, 69, 100
16, 63600, Note_on_c, 14, 69, 0
16, 63720, Note_on_c, 14, 71, 100
16, 63780, Note_on_c, 14, 71, 0
16, 63780, Note_on_c, 14, 69, 100
16, 63840, Note_on_c, 14, 69, 0
16, 63960, Note_on_c, 14, 67, 100
16, 64020, Note_on_c, 14, 67, 0
16, 64020, Note_on_c, 14, 66, 100
16, 64260, Note_on_c, 14, 66, 0
16, 64260, End_track
17, 0, Start_track
17, 0, MIDI_port, 0
17, 0, Title_t, "Brass Section Saxophone 2"
17, 0, Control_c, 15, 0, 0
17, 0, Control_c, 15, 32, 0
17, 0, Program_c, 15, 66
17, 0, Control_c, 15, 7, 105
17, 653, Control_c, 15, 7, 105
17, 653, Control_c, 15, 10, 64
17, 38400, Note_on_c, 15, 57, 100
17, 38520, Note_on_c, 15, 57, 0
17, 38640, Note_on_c, 15, 57, 100
17, 38760, Note_on_c, 15, 57, 0
17, 38880, Note_on_c, 15, 55, 100
17, 38940, Note_on_c, 15, 55, 0
17, 38940, Note_on_c, 15, 55, 100
17, 39000, Note_on_c, 15, 55, 0
17, 39000, Note_on_c, 15, 59, 100
17, 39060, Note_on_c, 15, 59, 0
17, 39060, Note_on_c, 15, 62, 100
17, 39120, Note_on_c, 15, 62, 0
17, 39120, Note_on_c, 15, 50, 100
17, 39160, Control_c, 15, 7, 111
17, 39180, Note_on_c, 15, 50, 0
17, 39180, Note_on_c, 15, 50, 100
17, 39240, Note_on_c, 15, 50, 0
17, 39240, Note_on_c, 15, 54, 100
17, 39300, Note_on_c, 15, 54, 0
17, 39300, Note_on_c, 15, 57, 100
17, 39360, Note_on_c, 15, 57, 0
17, 39360, Note_on_c, 15, 57, 100
17, 39480, Note_on_c, 15, 57, 0
17, 39600, Note_on_c, 15, 57, 100
17, 39720, Note_on_c, 15, 57, 0
17, 39840, Note_on_c, 15, 55, 100
17, 39900, Note_on_c, 15, 55, 0
17, 39900, Note_on_c, 15, 55, 100
17, 39960, Note_on_c, 15, 55, 0
17, 39960, Note_on_c, 15, 59, 100
17, 40020, Note_on_c, 15, 59, 0
17, 40020, Note_on_c, 15, 62, 100
17, 40080, Note_on_c, 15, 62, 0
17, 40080, Note_on_c, 15, 50, 100
17, 40140, Note_on_c, 15, 50, 0
17, 40140, Note_on_c, 15, 50, 100
17, 40200, Note_on_c, 15, 50, 0
17, 40200, Note_on_c, 15, 54, 100
17, 40240, Control_c, 15, 7, 110
17, 40245, Control_c, 15, 7, 111
17, 40250, Control_c, 15, 7, 112
17, 40255, Control_c, 15, 7, 114
17, 40255, Control_c, 15, 7, 113
17, 40260, Note_on_c, 15, 54, 0
17, 40260, Control_c, 15, 7, 116
17, 40260, Control_c, 15, 7, 115
17, 40260, Note_on_c, 15, 57, 100
17, 40265, Control_c, 15, 7, 118
17, 40265, Control_c, 15, 7, 117
17, 40270, Control_c, 15, 7, 120
17, 40270, Control_c, 15, 7, 119
17, 40275, Control_c, 15, 7, 121
17, 40280, Control_c, 15, 7, 122
17, 40285, Control_c, 15, 7, 124
17, 40300, Control_c, 15, 7, 125
17, 40305, Control_c, 15, 7, 126
17, 40310, Control_c, 15, 7, 127
17, 40320, Note_on_c, 15, 57, 0
17, 40320, Note_on_c, 15, 57, 100
17, 40440, Note_on_c, 15, 57, 0
17, 40560, Note_on_c, 15, 57, 100
17, 40680, Note_on_c, 15, 57, 0
17, 40800, Note_on_c, 15, 55, 100
17, 40860, Note_on_c, 15, 55, 0
17, 40860, Control_c, 15, 7, 126
17, 40860, Note_on_c, 15, 55, 100
17, 40865, Control_c, 15, 7, 125
17, 40870, Control_c, 15, 7, 122
17, 40870, Control_c, 15, 7, 124
17, 40875, Control_c, 15, 7, 120
17, 40875, Control_c, 15, 7, 121
17, 40880, Control_c, 15, 7, 119
17, 40885, Control_c, 15, 7, 117
17, 40885, Control_c, 15, 7, 118
17, 40895, Control_c, 15, 7, 116
17, 40905, Control_c, 15, 7, 115
17, 40910, Control_c, 15, 7, 114
17, 40915, Control_c, 15, 7, 113
17, 40920, Note_on_c, 15, 55, 0
17, 40920, Control_c, 15, 7, 112
17, 40920, Note_on_c, 15, 59, 100
17, 40980, Note_on_c, 15, 59, 0
17, 40980, Note_on_c, 15, 62, 100
17, 41040, Note_on_c, 15, 62, 0
17, 41040, Note_on_c, 15, 50, 100
17, 41100, Note_on_c, 15, 50, 0
17, 41100, Note_on_c, 15, 50, 100
17, 41160, Note_on_c, 15, 50, 0
17, 41160, Note_on_c, 15, 54, 100
17, 41220, Note_on_c, 15, 54, 0
17, 41220, Note_on_c, 15, 57, 100
17, 41280, Note_on_c, 15, 57, 0
17, 42240, Note_on_c, 15, 57, 100
17, 42360, Note_on_c, 15, 57, 0
17, 42480, Note_on_c, 15, 57, 100
17, 42600, Note_on_c, 15, 57, 0
17, 42720, Note_on_c, 15, 55, 100
17, 42780, Note_on_c, 15, 55, 0
17, 42780, Note_on_c, 15, 55, 100
17, 42840, Note_on_c, 15, 55, 0
17, 42840, Note_on_c, 15, 59, 100
17, 42900, Note_on_c, 15, 59, 0
17, 42900, Note_on_c, 15, 62, 100
17, 42960, Note_on_c, 15, 62, 0
17, 42960, Note_on_c, 15, 50, 100
17, 43020, Note_on_c, 15, 50, 0
17, 43020, Note_on_c, 15, 50, 100
17, 43080, Note_on_c, 15, 50, 0
17, 43080, Note_on_c, 15, 54, 100
17, 43140, Note_on_c, 15, 54, 0
17, 43140, Note_on_c, 15, 57, 100
17, 43200, Note_on_c, 15, 57, 0
17, 43200, Note_on_c, 15, 57, 100
17, 43320, Note_on_c, 15, 57, 0
17, 43440, Note_on_c, 15, 57, 100
17, 43560, Note_on_c, 15, 57, 0
17, 43680, Note_on_c, 15, 55, 100
17, 43740, Note_on_c, 15, 55, 0
17, 43740, Note_on_c, 15, 55, 100
17, 43800, Note_on_c, 15, 55, 0
17, 43800, Note_on_c, 15, 59, 100
17, 43860, Note_on_c, 15, 59, 0
17, 43860, Note_on_c, 15, 62, 100
17, 43920, Note_on_c, 15, 62, 0
17, 43920, Note_on_c, 15, 50, 100
17, 43980, Note_on_c, 15, 50, 0
17, 43980, Note_on_c, 15, 50, 100
17, 44040, Note_on_c, 15, 50, 0
17, 44040, Note_on_c, 15, 54, 100
17, 44100, Note_on_c, 15, 54, 0
17, 44100, Note_on_c, 15, 57, 100
17, 44160, Note_on_c, 15, 57, 0
17, 44160, Note_on_c, 15, 57, 100
17, 44280, Note_on_c, 15, 57, 0
17, 44400, Note_on_c, 15, 57, 100
17, 44520, Note_on_c, 15, 57, 0
17, 44640, Note_on_c, 15, 55, 100
17, 44700, Note_on_c, 15, 55, 0
17, 44700, Note_on_c, 15, 55, 100
17, 44760, Note_on_c, 15, 55, 0
17, 44760, Note_on_c, 15, 59, 100
17, 44820, Note_on_c, 15, 59, 0
17, 44820, Note_on_c, 15, 62, 100
17, 44880, Note_on_c, 15, 62, 0
17, 44880, Note_on_c, 15, 50, 100
17, 44940, Note_on_c, 15, 50, 0
17, 44940, Note_on_c, 15, 50, 100
17, 45000, Note_on_c, 15, 50, 0
17, 45000, Note_on_c, 15, 54, 100
17, 45060, Note_on_c, 15, 54, 0
17, 45060, Note_on_c, 15, 57, 100
17, 45120, Note_on_c, 15, 57, 0
17, 46080, Note_on_c, 15, 57, 100
17, 46200, Note_on_c, 15, 57, 0
17, 46320, Note_on_c, 15, 57, 100
17, 46440, Note_on_c, 15, 57, 0
17, 46560, Note_on_c, 15, 55, 100
17, 46620, Note_on_c, 15, 55, 0
17, 46620, Note_on_c, 15, 55, 100
17, 46680, Note_on_c, 15, 55, 0
17, 46680, Note_on_c, 15, 59, 100
17, 46740, Note_on_c, 15, 59, 0
17, 46740, Note_on_c, 15, 62, 100
17, 46800, Note_on_c, 15, 62, 0
17, 46800, Note_on_c, 15, 50, 100
17, 46860, Note_on_c, 15, 50, 0
17, 46860, Note_on_c, 15, 50, 100
17, 46920, Note_on_c, 15, 50, 0
17, 46920, Note_on_c, 15, 54, 100
17, 46980, Note_on_c, 15, 54, 0
17, 46980, Note_on_c, 15, 57, 100
17, 47040, Note_on_c, 15, 57, 0
17, 47040, Note_on_c, 15, 57, 100
17, 47160, Note_on_c, 15, 57, 0
17, 47280, Note_on_c, 15, 57, 100
17, 47400, Note_on_c, 15, 57, 0
17, 47520, Note_on_c, 15, 55, 100
17, 47580, Note_on_c, 15, 55, 0
17, 47580, Note_on_c, 15, 55, 100
17, 47640, Note_on_c, 15, 55, 0
17, 47640, Note_on_c, 15, 59, 100
17, 47700, Note_on_c, 15, 59, 0
17, 47700, Note_on_c, 15, 62, 100
17, 47760, Note_on_c, 15, 62, 0
17, 47760, Note_on_c, 15, 50, 100
17, 47820, Note_on_c, 15, 50, 0
17, 47820, Note_on_c, 15, 50, 100
17, 47880, Note_on_c, 15, 50, 0
17, 47880, Note_on_c, 15, 54, 100
17, 47940, Note_on_c, 15, 54, 0
17, 47940, Note_on_c, 15, 57, 100
17, 48000, Note_on_c, 15, 57, 0
17, 48000, Note_on_c, 15, 57, 100
17, 48120, Note_on_c, 15, 57, 0
17, 48240, Note_on_c, 15, 57, 100
17, 48360, Note_on_c, 15, 57, 0
17, 48480, Note_on_c, 15, 55, 100
17, 48540, Note_on_c, 15, 55, 0
17, 48540, Note_on_c, 15, 55, 100
17, 48600, Note_on_c, 15, 55, 0
17, 48600, Note_on_c, 15, 59, 100
17, 48660, Note_on_c, 15, 59, 0
17, 48660, Note_on_c, 15, 62, 100
17, 48720, Note_on_c, 15, 62, 0
17, 48720, Note_on_c, 15, 50, 100
17, 48780, Note_on_c, 15, 50, 0
17, 48780, Note_on_c, 15, 50, 100
17, 48840, Note_on_c, 15, 50, 0
17, 48840, Note_on_c, 15, 54, 100
17, 48900, Note_on_c, 15, 54, 0
17, 48900, Note_on_c, 15, 57, 100
17, 48960, Note_on_c, 15, 57, 0
17, 49825, Control_c, 15, 7, 117
17, 49825, Control_c, 15, 7, 114
17, 49830, Control_c, 15, 7, 126
17, 49830, Control_c, 15, 7, 121
17, 49835, Control_c, 15, 7, 127
17, 49920, Note_on_c, 15, 57, 100
17, 50040, Note_on_c, 15, 57, 0
17, 50160, Note_on_c, 15, 57, 100
17, 50280, Note_on_c, 15, 57, 0
17, 50400, Note_on_c, 15, 55, 100
17, 50460, Note_on_c, 15, 55, 0
17, 50460, Note_on_c, 15, 55, 100
17, 50520, Note_on_c, 15, 55, 0
17, 50520, Note_on_c, 15, 59, 100
17, 50575, Control_c, 15, 7, 102
17, 50580, Note_on_c, 15, 59, 0
17, 50580, Note_on_c, 15, 62, 100
17, 50640, Note_on_c, 15, 62, 0
17, 50640, Note_on_c, 15, 50, 100
17, 50700, Note_on_c, 15, 50, 0
17, 50700, Note_on_c, 15, 50, 100
17, 50760, Note_on_c, 15, 50, 0
17, 50760, Note_on_c, 15, 54, 100
17, 50820, Note_on_c, 15, 54, 0
17, 50820, Note_on_c, 15, 57, 100
17, 50880, Note_on_c, 15, 57, 0
17, 50880, Note_on_c, 15, 57, 100
17, 51000, Note_on_c, 15, 57, 0
17, 51120, Note_on_c, 15, 57, 100
17, 51240, Note_on_c, 15, 57, 0
17, 51360, Note_on_c, 15, 55, 100
17, 51420, Note_on_c, 15, 55, 0
17, 51420, Note_on_c, 15, 55, 100
17, 51480, Note_on_c, 15, 55, 0
17, 51480, Note_on_c, 15, 59, 100
17, 51540, Note_on_c, 15, 59, 0
17, 51540, Note_on_c, 15, 62, 100
17, 51600, Note_on_c, 15, 62, 0
17, 51600, Note_on_c, 15, 50, 100
17, 51660, Note_on_c, 15, 50, 0
17, 51660, Note_on_c, 15, 50, 100
17, 51720, Note_on_c, 15, 50, 0
17, 51720, Note_on_c, 15, 54, 100
17, 51780, Note_on_c, 15, 54, 0
17, 51780, Note_on_c, 15, 57, 100
17, 51840, Note_on_c, 15, 57, 0
17, 51840, Note_on_c, 15, 57, 100
17, 51960, Note_on_c, 15, 57, 0
17, 52080, Note_on_c, 15, 57, 100
17, 52200, Note_on_c, 15, 57, 0
17, 52320, Note_on_c, 15, 55, 100
17, 52380, Note_on_c, 15, 55, 0
17, 52380, Note_on_c, 15, 55, 100
17, 52440, Note_on_c, 15, 55, 0
17, 52440, Note_on_c, 15, 59, 100
17, 52500, Note_on_c, 15, 59, 0
17, 52500, Note_on_c, 15, 62, 100
17, 52560, Note_on_c, 15, 62, 0
17, 52560, Note_on_c, 15, 50, 100
17, 52620, Note_on_c, 15, 50, 0
17, 52620, Note_on_c, 15, 50, 100
17, 52680, Note_on_c, 15, 50, 0
17, 52680, Note_on_c, 15, 54, 100
17, 52740, Note_on_c, 15, 54, 0
17, 52740, Note_on_c, 15, 57, 100
17, 52800, Note_on_c, 15, 57, 0
17, 53760, Note_on_c, 15, 57, 100
17, 53880, Note_on_c, 15, 57, 0
17, 54000, Note_on_c, 15, 57, 100
17, 54120, Note_on_c, 15, 57, 0
17, 54240, Note_on_c, 15, 55, 100
17, 54300, Note_on_c, 15, 55, 0
17, 54300, Note_on_c, 15, 55, 100
17, 54360, Note_on_c, 15, 55, 0
17, 54360, Note_on_c, 15, 59, 100
17, 54420, Note_on_c, 15, 59, 0
17, 54420, Note_on_c, 15, 62, 100
17, 54480, Note_on_c, 15, 62, 0
17, 54480, Note_on_c, 15, 50, 100
17, 54540, Note_on_c, 15, 50, 0
17, 54540, Note_on_c, 15, 50, 100
17, 54600, Note_on_c, 15, 50, 0
17, 54600, Note_on_c, 15, 54, 100
17, 54660, Note_on_c, 15, 54, 0
17, 54660, Note_on_c, 15, 57, 100
17, 54720, Note_on_c, 15, 57, 0
17, 54720, Note_on_c, 15, 57, 100
17, 54840, Note_on_c, 15, 57, 0
17, 54960, Note_on_c, 15, 57, 100
17, 55080, Note_on_c, 15, 57, 0
17, 55200, Note_on_c, 15, 55, 100
17, 55260, Note_on_c, 15, 55, 0
17, 55260, Note_on_c, 15, 55, 100
17, 55320, Note_on_c, 15, 55, 0
17, 55320, Note_on_c, 15, 59, 100
17, 55380, Note_on_c, 15, 59, 0
17, 55380, Note_on_c, 15, 62, 100
17, 55440, Note_on_c, 15, 62, 0
17, 55440, Note_on_c, 15, 50, 100
17, 55500, Note_on_c, 15, 50, 0
17, 55500, Note_on_c, 15, 50, 100
17, 55560, Note_on_c, 15, 50, 0
17, 55560, Note_on_c, 15, 54, 100
17, 55620, Note_on_c, 15, 54, 0
17, 55620, Note_on_c, 15, 57, 100
17, 55680, Note_on_c, 15, 57, 0
17, 55680, Note_on_c, 15, 57, 100
17, 55800, Note_on_c, 15, 57, 0
17, 55920, Note_on_c, 15, 57, 100
17, 56040, Note_on_c, 15, 57, 0
17, 56160, Note_on_c, 15, 55, 100
17, 56220, Note_on_c, 15, 55, 0
17, 56220, Note_on_c, 15, 55, 100
17, 56280, Note_on_c, 15, 55, 0
17, 56280, Note_on_c, 15, 59, 100
17, 56340, Note_on_c, 15, 59, 0
17, 56340, Note_on_c, 15, 62, 100
17, 56400, Note_on_c, 15, 62, 0
17, 56400, Note_on_c, 15, 50, 100
17, 56460, Note_on_c, 15, 50, 0
17, 56460, Note_on_c, 15, 50, 100
17, 56520, Note_on_c, 15, 50, 0
17, 56520, Note_on_c, 15, 54, 100
17, 56580, Note_on_c, 15, 54, 0
17, 56580, Note_on_c, 15, 57, 100
17, 56640, Note_on_c, 15, 57, 0
17, 57600, Note_on_c, 15, 57, 100
17, 57720, Note_on_c, 15, 57, 0
17, 57840, Note_on_c, 15, 57, 100
17, 57960, Note_on_c, 15, 57, 0
17, 58080, Note_on_c, 15, 55, 100
17, 58140, Note_on_c, 15, 55, 0
17, 58140, Note_on_c, 15, 55, 100
17, 58200, Note_on_c, 15, 55, 0
17, 58200, Note_on_c, 15, 59, 100
17, 58260, Note_on_c, 15, 59, 0
17, 58260, Note_on_c, 15, 62, 100
17, 58320, Note_on_c, 15, 62, 0
17, 58320, Note_on_c, 15, 50, 100
17, 58380, Note_on_c, 15, 50, 0
17, 58380, Note_on_c, 15, 50, 100
17, 58440, Note_on_c, 15, 50, 0
17, 58440, Note_on_c, 15, 54, 100
17, 58500, Note_on_c, 15, 54, 0
17, 58500, Note_on_c, 15, 57, 100
17, 58560, Note_on_c, 15, 57, 0
17, 58560, Note_on_c, 15, 57, 100
17, 58680, Note_on_c, 15, 57, 0
17, 58800, Note_on_c, 15, 57, 100
17, 58920, Note_on_c, 15, 57, 0
17, 59040, Note_on_c, 15, 55, 100
17, 59100, Note_on_c, 15, 55, 0
17, 59100, Note_on_c, 15, 55, 100
17, 59160, Note_on_c, 15, 55, 0
17, 59160, Note_on_c, 15, 59, 100
17, 59220, Note_on_c, 15, 59, 0
17, 59220, Note_on_c, 15, 62, 100
17, 59280, Note_on_c, 15, 62, 0
17, 59280, Note_on_c, 15, 50, 100
17, 59340, Note_on_c, 15, 50, 0
17, 59340, Note_on_c, 15, 50, 100
17, 59400, Note_on_c, 15, 50, 0
17, 59400, Note_on_c, 15, 54, 100
17, 59460, Note_on_c, 15, 54, 0
17, 59460, Note_on_c, 15, 57, 100
17, 59520, Note_on_c, 15, 57, 0
17, 59520, Note_on_c, 15, 57, 100
17, 59640, Note_on_c, 15, 57, 0
17, 59760, Note_on_c, 15, 57, 100
17, 59880, Note_on_c, 15, 57, 0
17, 60000, Note_on_c, 15, 55, 100
17, 60060, Note_on_c, 15, 55, 0
17, 60060, Note_on_c, 15, 55, 100
17, 60120, Note_on_c, 15, 55, 0
17, 60120, Note_on_c, 15, 59, 100
17, 60180, Note_on_c, 15, 59, 0
17, 60180, Note_on_c, 15, 62, 100
17, 60240, Note_on_c, 15, 62, 0
17, 60240, Note_on_c, 15, 50, 100
17, 60300, Note_on_c, 15, 50, 0
17, 60300, Note_on_c, 15, 50, 100
17, 60360, Note_on_c, 15, 50, 0
17, 60360, Note_on_c, 15, 54, 100
17, 60420, Note_on_c, 15, 54, 0
17, 60420, Note_on_c, 15, 57, 100
17, 60480, Note_on_c, 15, 57, 0
17, 61440, Note_on_c, 15, 57, 100
17, 61560, Note_on_c, 15, 57, 0
17, 61680, Note_on_c, 15, 57, 100
17, 61800, Note_on_c, 15, 57, 0
17, 61920, Note_on_c, 15, 55, 100
17, 61980, Note_on_c, 15, 55, 0
17, 61980, Note_on_c, 15, 55, 100
17, 62040, Note_on_c, 15, 55, 0
17, 62040, Note_on_c, 15, 59, 100
17, 62100, Note_on_c, 15, 59, 0
17, 62100, Note_on_c, 15, 62, 100
17, 62160, Note_on_c, 15, 62, 0
17, 62160, Note_on_c, 15, 50, 100
17, 62220, Note_on_c, 15, 50, 0
17, 62220, Note_on_c, 15, 50, 100
17, 62280, Note_on_c, 15, 50, 0
17, 62280, Note_on_c, 15, 54, 100
17, 62340, Note_on_c, 15, 54, 0
17, 62340, Note_on_c, 15, 57, 100
17, 62400, Note_on_c, 15, 57, 0
17, 62400, Note_on_c, 15, 57, 100
17, 62520, Note_on_c, 15, 57, 0
17, 62640, Note_on_c, 15, 57, 100
17, 62760, Note_on_c, 15, 57, 0
17, 62880, Note_on_c, 15, 55, 100
17, 62940, Note_on_c, 15, 55, 0
17, 62940, Note_on_c, 15, 55, 100
17, 63000, Note_on_c, 15, 55, 0
17, 63000, Note_on_c, 15, 59, 100
17, 63060, Note_on_c, 15, 59, 0
17, 63060, Note_on_c, 15, 62, 100
17, 63120, Note_on_c, 15, 62, 0
17, 63120, Note_on_c, 15, 50, 100
17, 63180, Note_on_c, 15, 50, 0
17, 63180, Note_on_c, 15, 50, 100
17, 63240, Note_on_c, 15, 50, 0
17, 63240, Note_on_c, 15, 54, 100
17, 63300, Note_on_c, 15, 54, 0
17, 63300, Note_on_c, 15, 57, 100
17, 63360, Note_on_c, 15, 57, 0
17, 63360, Note_on_c, 15, 57, 100
17, 63480, Note_on_c, 15, 57, 0
17, 63600, Note_on_c, 15, 57, 100
17, 63720, Note_on_c, 15, 57, 0
17, 63840, Note_on_c, 15, 55, 100
17, 63900, Note_on_c, 15, 55, 0
17, 63900, Note_on_c, 15, 55, 100
17, 63960, Note_on_c, 15, 55, 0
17, 63960, Note_on_c, 15, 59, 100
17, 64020, Note_on_c, 15, 59, 0
17, 64020, Note_on_c, 15, 62, 100
17, 64080, Note_on_c, 15, 62, 0
17, 64080, Note_on_c, 15, 50, 100
17, 64140, Note_on_c, 15, 50, 0
17, 64140, Note_on_c, 15, 50, 100
17, 64200, Note_on_c, 15, 50, 0
17, 64200, Note_on_c, 15, 54, 100
17, 64260, Note_on_c, 15, 54, 0
17, 64260, Note_on_c, 15, 57, 100
17, 64320, Note_on_c, 15, 57, 0
17, 64320, End_track
0, 0, End_of_file
