0, 0, Header, 1, 7, 960
1, 0, Start_track
1, 0, Control_c, 0, 101, 0
1, 0, Control_c, 0, 100, 0
1, 0, Control_c, 0, 6, 12
1, 0, Control_c, 0, 38, 0
1, 0, Control_c, 1, 101, 0
1, 0, Control_c, 1, 100, 0
1, 0, Control_c, 1, 6, 12
1, 0, Control_c, 1, 38, 0
1, 0, Control_c, 2, 101, 0
1, 0, Control_c, 2, 100, 0
1, 0, Control_c, 2, 6, 12
1, 0, Control_c, 2, 38, 0
1, 0, Control_c, 3, 101, 0
1, 0, Control_c, 3, 100, 0
1, 0, Control_c, 3, 6, 12
1, 0, Control_c, 3, 38, 0
1, 0, Control_c, 4, 101, 0
1, 0, Control_c, 4, 100, 0
1, 0, Control_c, 4, 6, 12
1, 0, Control_c, 4, 38, 0
1, 0, Control_c, 5, 101, 0
1, 0, Control_c, 5, 100, 0
1, 0, Control_c, 5, 6, 12
1, 0, Control_c, 5, 38, 0
1, 0, Control_c, 6, 101, 0
1, 0, Control_c, 6, 100, 0
1, 0, Control_c, 6, 6, 12
1, 0, Control_c, 6, 38, 0
1, 0, Control_c, 7, 101, 0
1, 0, Control_c, 7, 100, 0
1, 0, Control_c, 7, 6, 12
1, 0, Control_c, 7, 38, 0
1, 0, Control_c, 8, 101, 0
1, 0, Control_c, 8, 100, 0
1, 0, Control_c, 8, 6, 12
1, 0, Control_c, 8, 38, 0
1, 0, Control_c, 9, 101, 0
1, 0, Control_c, 9, 100, 0
1, 0, Control_c, 9, 6, 12
1, 0, Control_c, 9, 38, 0
1, 0, Control_c, 10, 101, 0
1, 0, Control_c, 10, 100, 0
1, 0, Control_c, 10, 6, 12
1, 0, Control_c, 10, 38, 0
1, 0, Control_c, 11, 101, 0
1, 0, Control_c, 11, 100, 0
1, 0, Control_c, 11, 6, 12
1, 0, Control_c, 11, 38, 0
1, 0, Control_c, 12, 101, 0
1, 0, Control_c, 12, 100, 0
1, 0, Control_c, 12, 6, 12
1, 0, Control_c, 12, 38, 0
1, 0, Control_c, 13, 101, 0
1, 0, Control_c, 13, 100, 0
1, 0, Control_c, 13, 6, 12
1, 0, Control_c, 13, 38, 0
1, 0, Control_c, 14, 101, 0
1, 0, Control_c, 14, 100, 0
1, 0, Control_c, 14, 6, 12
1, 0, Control_c, 14, 38, 0
1, 0, Control_c, 15, 101, 0
1, 0, Control_c, 15, 100, 0
1, 0, Control_c, 15, 6, 12
1, 0, Control_c, 15, 38, 0
1, 0, Time_signature, 4, 2, 24, 8
1, 0, Tempo, 508474
1, 549120, Tempo, 600000
1, 549120, End_track
2, 0, Start_track
2, 0, Pitch_bend_c, 0, 8192
2, 0, Control_c, 0, 7, 111
2, 0, Control_c, 0, 10, 23
2, 0, Control_c, 0, 93, 87
2, 0, Control_c, 0, 91, 23
2, 0, Control_c, 0, 95, 0
2, 0, Control_c, 0, 92, 0
2, 0, Control_c, 0, 11, 127
2, 0, Program_c, 0, 30
2, 0, Control_c, 1, 7, 111
2, 0, Control_c, 1, 10, 23
2, 0, Control_c, 1, 93, 87
2, 0, Control_c, 1, 91, 23
2, 0, Control_c, 1, 95, 0
2, 0, Control_c, 1, 92, 0
2, 0, Control_c, 1, 11, 127
2, 0, Program_c, 1, 30
2, 13920, Note_on_c, 0, 71, 95
2, 14400, Note_off_c, 0, 71, 95
2, 14400, Note_on_c, 0, 73, 95
2, 14880, Note_off_c, 0, 73, 95
2, 14880, Note_on_c, 0, 73, 95
2, 17760, Note_off_c, 0, 73, 95
2, 17760, Note_on_c, 0, 73, 95
2, 18240, Note_off_c, 0, 73, 95
2, 18240, Note_on_c, 0, 71, 95
2, 18720, Note_off_c, 0, 71, 95
2, 18720, Note_on_c, 0, 68, 95
2, 22080, Note_off_c, 0, 68, 95
2, 22080, Note_on_c, 0, 68, 95
2, 22560, Note_off_c, 0, 68, 95
2, 22560, Note_on_c, 0, 69, 95
2, 26880, Note_off_c, 0, 69, 95
2, 26880, Note_on_c, 0, 66, 95
2, 27360, Note_off_c, 0, 66, 95
2, 27360, Note_on_c, 0, 68, 95
2, 28320, Note_off_c, 0, 68, 95
2, 28800, Note_on_c, 0, 64, 95
2, 29280, Note_off_c, 0, 64, 95
2, 29280, Note_on_c, 0, 71, 95
2, 29760, Note_off_c, 0, 71, 95
2, 29760, Note_on_c, 0, 73, 95
2, 30240, Note_off_c, 0, 73, 95
2, 30240, Note_on_c, 0, 73, 95
2, 33600, Note_off_c, 0, 73, 95
2, 33600, Pitch_bend_c, 1, 8192
2, 33600, Note_on_c, 1, 68, 95
2, 33648, Pitch_bend_c, 1, 8320
2, 33696, Pitch_bend_c, 1, 8448
2, 33744, Pitch_bend_c, 1, 8576
2, 33792, Pitch_bend_c, 1, 8704
2, 33840, Pitch_bend_c, 1, 8832
2, 33840, Pitch_bend_c, 1, 8832
2, 34080, Pitch_bend_c, 1, 8832
2, 34560, Pitch_bend_c, 1, 8832
2, 34560, Pitch_bend_c, 1, 8192
2, 34560, Note_off_c, 1, 68, 95
2, 34560, Pitch_bend_c, 1, 8192
2, 34560, Note_on_c, 1, 68, 95
2, 34589, Pitch_bend_c, 1, 8320
2, 34618, Pitch_bend_c, 1, 8448
2, 34647, Pitch_bend_c, 1, 8576
2, 34676, Pitch_bend_c, 1, 8704
2, 34705, Pitch_bend_c, 1, 8832
2, 34734, Pitch_bend_c, 1, 8960
2, 34763, Pitch_bend_c, 1, 9088
2, 34792, Pitch_bend_c, 1, 9216
2, 34821, Pitch_bend_c, 1, 9344
2, 34850, Pitch_bend_c, 1, 9472
2, 34879, Pitch_bend_c, 1, 9600
2, 34880, Pitch_bend_c, 1, 9600
2, 35200, Pitch_bend_c, 1, 9600
2, 35229, Pitch_bend_c, 1, 9472
2, 35258, Pitch_bend_c, 1, 9344
2, 35287, Pitch_bend_c, 1, 9216
2, 35316, Pitch_bend_c, 1, 9088
2, 35345, Pitch_bend_c, 1, 8960
2, 35374, Pitch_bend_c, 1, 8832
2, 35403, Pitch_bend_c, 1, 8704
2, 35432, Pitch_bend_c, 1, 8576
2, 35461, Pitch_bend_c, 1, 8448
2, 35490, Pitch_bend_c, 1, 8320
2, 35519, Pitch_bend_c, 1, 8192
2, 35520, Pitch_bend_c, 1, 8192
2, 38400, Pitch_bend_c, 1, 8192
2, 38400, Pitch_bend_c, 1, 8192
2, 38400, Note_off_c, 1, 68, 95
2, 38400, Note_on_c, 0, 71, 95
2, 38880, Note_off_c, 0, 71, 95
2, 38880, Note_on_c, 0, 73, 95
2, 40320, Note_off_c, 0, 73, 95
2, 40320, Note_on_c, 0, 71, 95
2, 40800, Note_off_c, 0, 71, 95
2, 40800, Note_on_c, 0, 73, 95
2, 41760, Note_off_c, 0, 73, 95
2, 41760, Pitch_bend_c, 1, 8192
2, 41760, Note_on_c, 1, 68, 95
2, 41840, Pitch_bend_c, 1, 8320
2, 41920, Pitch_bend_c, 1, 8448
2, 42000, Pitch_bend_c, 1, 8576
2, 42080, Pitch_bend_c, 1, 8704
2, 42160, Pitch_bend_c, 1, 8832
2, 42160, Pitch_bend_c, 1, 8832
2, 44160, Pitch_bend_c, 1, 8832
2, 44160, Pitch_bend_c, 1, 8192
2, 44160, Note_off_c, 1, 68, 95
2, 44160, Note_on_c, 0, 64, 95
2, 44640, Note_off_c, 0, 64, 95
2, 44640, Note_on_c, 0, 71, 95
2, 45120, Note_off_c, 0, 71, 95
2, 45120, Note_on_c, 0, 73, 95
2, 45600, Note_off_c, 0, 73, 95
2, 45600, Note_on_c, 0, 73, 95
2, 48960, Note_off_c, 0, 73, 95
2, 48960, Note_on_c, 0, 68, 95
2, 49440, Note_off_c, 0, 68, 95
2, 49440, Pitch_bend_c, 1, 8192
2, 49440, Note_on_c, 1, 68, 95
2, 49512, Pitch_bend_c, 1, 8320
2, 49584, Pitch_bend_c, 1, 8448
2, 49656, Pitch_bend_c, 1, 8576
2, 49728, Pitch_bend_c, 1, 8704
2, 49800, Pitch_bend_c, 1, 8832
2, 49800, Pitch_bend_c, 1, 8832
2, 49800, Pitch_bend_c, 1, 8832
2, 49872, Pitch_bend_c, 1, 8704
2, 49944, Pitch_bend_c, 1, 8576
2, 50016, Pitch_bend_c, 1, 8448
2, 50088, Pitch_bend_c, 1, 8320
2, 50160, Pitch_bend_c, 1, 8192
2, 50160, Pitch_bend_c, 1, 8192
2, 53760, Pitch_bend_c, 1, 8192
2, 53760, Pitch_bend_c, 1, 8192
2, 53760, Note_off_c, 1, 68, 95
2, 53760, Note_on_c, 0, 64, 95
2, 54240, Note_off_c, 0, 64, 95
2, 54240, Note_on_c, 0, 71, 95
2, 55680, Note_off_c, 0, 71, 95
2, 55680, Note_on_c, 0, 73, 95
2, 57600, Note_off_c, 0, 73, 95
2, 57600, Note_on_c, 0, 64, 95
2, 58080, Note_off_c, 0, 64, 95
2, 58080, Note_on_c, 0, 71, 95
2, 58560, Note_off_c, 0, 71, 95
2, 58560, Note_on_c, 0, 73, 95
2, 59040, Note_off_c, 0, 73, 95
2, 59040, Note_on_c, 0, 68, 95
2, 59520, Note_off_c, 0, 68, 95
2, 59520, Pitch_bend_c, 1, 8192
2, 59520, Note_on_c, 1, 68, 95
2, 59616, Pitch_bend_c, 1, 8320
2, 59712, Pitch_bend_c, 1, 8448
2, 59808, Pitch_bend_c, 1, 8576
2, 59904, Pitch_bend_c, 1, 8704
2, 60000, Pitch_bend_c, 1, 8832
2, 60000, Pitch_bend_c, 1, 8832
2, 60480, Pitch_bend_c, 1, 8832
2, 60480, Pitch_bend_c, 1, 8192
2, 60480, Note_off_c, 1, 68, 95
2, 60480, Pitch_bend_c, 1, 8192
2, 60480, Note_on_c, 1, 68, 95
2, 60576, Pitch_bend_c, 1, 8320
2, 60672, Pitch_bend_c, 1, 8448
2, 60768, Pitch_bend_c, 1, 8576
2, 60864, Pitch_bend_c, 1, 8704
2, 60960, Pitch_bend_c, 1, 8832
2, 60960, Pitch_bend_c, 1, 8832
2, 61440, Pitch_bend_c, 1, 8832
2, 61440, Pitch_bend_c, 1, 8192
2, 61440, Note_off_c, 1, 68, 95
2, 61440, Pitch_bend_c, 1, 8192
2, 61440, Note_on_c, 1, 68, 95
2, 61504, Pitch_bend_c, 1, 8320
2, 61568, Pitch_bend_c, 1, 8448
2, 61632, Pitch_bend_c, 1, 8576
2, 61696, Pitch_bend_c, 1, 8704
2, 61760, Pitch_bend_c, 1, 8832
2, 61760, Pitch_bend_c, 1, 8832
2, 62080, Pitch_bend_c, 1, 8832
2, 62144, Pitch_bend_c, 1, 8704
2, 62208, Pitch_bend_c, 1, 8576
2, 62272, Pitch_bend_c, 1, 8448
2, 62336, Pitch_bend_c, 1, 8320
2, 62400, Pitch_bend_c, 1, 8192
2, 62400, Pitch_bend_c, 1, 8192
2, 65280, Pitch_bend_c, 1, 8192
2, 65280, Pitch_bend_c, 1, 8192
2, 65280, Note_off_c, 1, 68, 95
2, 65280, Note_on_c, 0, 68, 95
2, 65760, Note_off_c, 0, 68, 95
2, 65760, Note_on_c, 0, 66, 95
2, 67680, Note_off_c, 0, 66, 95
2, 67680, Note_on_c, 0, 68, 95
2, 68160, Note_off_c, 0, 68, 95
2, 68160, Note_on_c, 0, 64, 95
2, 68640, Note_off_c, 0, 64, 95
2, 68640, Note_on_c, 0, 71, 95
2, 69120, Note_off_c, 0, 71, 95
2, 69120, Note_on_c, 0, 73, 95
2, 69600, Note_off_c, 0, 73, 95
2, 69600, Note_on_c, 0, 71, 95
2, 71520, Note_off_c, 0, 71, 95
2, 71520, Note_on_c, 0, 66, 95
2, 72000, Note_off_c, 0, 66, 95
2, 72000, Note_on_c, 0, 68, 95
2, 72960, Note_off_c, 0, 68, 95
2, 73440, Note_on_c, 0, 66, 95
2, 73920, Note_off_c, 0, 66, 95
2, 73920, Note_on_c, 0, 68, 95
2, 74880, Note_off_c, 0, 68, 95
2, 74880, Note_on_c, 0, 71, 95
2, 75360, Note_off_c, 0, 71, 95
2, 75360, Note_on_c, 0, 73, 95
2, 75840, Note_off_c, 0, 73, 95
2, 75840, Note_on_c, 0, 71, 95
2, 76320, Note_off_c, 0, 71, 95
2, 76320, Note_on_c, 0, 73, 95
2, 78240, Note_off_c, 0, 73, 95
2, 78240, Note_on_c, 0, 64, 95
2, 78720, Note_off_c, 0, 64, 95
2, 78720, Note_on_c, 0, 68, 95
2, 79200, Note_off_c, 0, 68, 95
2, 79200, Note_on_c, 0, 66, 95
2, 79680, Note_off_c, 0, 66, 95
2, 79680, Note_on_c, 0, 64, 95
2, 80160, Note_off_c, 0, 64, 95
2, 80160, Note_on_c, 0, 71, 95
2, 80640, Note_off_c, 0, 71, 95
2, 80640, Note_on_c, 0, 73, 95
2, 81120, Note_off_c, 0, 73, 95
2, 81120, Note_on_c, 0, 71, 95
2, 82560, Note_off_c, 0, 71, 95
2, 82560, Pitch_bend_c, 1, 8192
2, 82560, Note_on_c, 1, 68, 95
2, 82592, Pitch_bend_c, 1, 8320
2, 82624, Pitch_bend_c, 1, 8448
2, 82656, Pitch_bend_c, 1, 8576
2, 82688, Pitch_bend_c, 1, 8704
2, 82720, Pitch_bend_c, 1, 8832
2, 82720, Pitch_bend_c, 1, 8832
2, 84480, Pitch_bend_c, 1, 8832
2, 84480, Pitch_bend_c, 1, 8192
2, 84480, Note_off_c, 1, 68, 95
2, 84480, Pitch_bend_c, 1, 8192
2, 84480, Note_on_c, 1, 68, 95
2, 84544, Pitch_bend_c, 1, 8320
2, 84608, Pitch_bend_c, 1, 8448
2, 84672, Pitch_bend_c, 1, 8576
2, 84736, Pitch_bend_c, 1, 8704
2, 84800, Pitch_bend_c, 1, 8832
2, 84800, Pitch_bend_c, 1, 8832
2, 86400, Pitch_bend_c, 1, 8832
2, 86400, Pitch_bend_c, 1, 8192
2, 86400, Note_off_c, 1, 68, 95
2, 86400, Note_on_c, 0, 66, 95
2, 86880, Note_off_c, 0, 66, 95
2, 86880, Note_on_c, 0, 68, 95
2, 87360, Note_off_c, 0, 68, 95
2, 87360, Note_on_c, 0, 66, 95
2, 87840, Note_off_c, 0, 66, 95
2, 87840, Note_on_c, 0, 64, 95
2, 88320, Note_off_c, 0, 64, 95
2, 88320, Note_on_c, 0, 71, 95
2, 88800, Note_off_c, 0, 71, 95
2, 88800, Note_on_c, 0, 73, 95
2, 89280, Note_off_c, 0, 73, 95
2, 89280, Note_on_c, 0, 71, 95
2, 89760, Note_off_c, 0, 71, 95
2, 89760, Note_on_c, 0, 64, 95
2, 90240, Note_off_c, 0, 64, 95
2, 90240, Note_on_c, 0, 64, 95
2, 90720, Note_off_c, 0, 64, 95
2, 90720, Pitch_bend_c, 1, 8192
2, 90720, Note_on_c, 1, 66, 95
2, 90730, Pitch_bend_c, 1, 8320
2, 90740, Pitch_bend_c, 1, 8448
2, 90750, Pitch_bend_c, 1, 8576
2, 90760, Pitch_bend_c, 1, 8704
2, 90770, Pitch_bend_c, 1, 8832
2, 90780, Pitch_bend_c, 1, 8960
2, 90790, Pitch_bend_c, 1, 9088
2, 90800, Pitch_bend_c, 1, 9216
2, 90810, Pitch_bend_c, 1, 9344
2, 90820, Pitch_bend_c, 1, 9472
2, 90830, Pitch_bend_c, 1, 9600
2, 90840, Pitch_bend_c, 1, 9600
2, 90960, Pitch_bend_c, 1, 9600
2, 90970, Pitch_bend_c, 1, 9472
2, 90980, Pitch_bend_c, 1, 9344
2, 90990, Pitch_bend_c, 1, 9216
2, 91000, Pitch_bend_c, 1, 9088
2, 91010, Pitch_bend_c, 1, 8960
2, 91020, Pitch_bend_c, 1, 8832
2, 91030, Pitch_bend_c, 1, 8704
2, 91040, Pitch_bend_c, 1, 8576
2, 91050, Pitch_bend_c, 1, 8448
2, 91060, Pitch_bend_c, 1, 8320
2, 91070, Pitch_bend_c, 1, 8192
2, 91080, Pitch_bend_c, 1, 8192
2, 91200, Pitch_bend_c, 1, 8192
2, 91200, Pitch_bend_c, 1, 8192
2, 91200, Note_off_c, 1, 66, 95
2, 91200, Note_on_c, 0, 66, 95
2, 91440, Note_off_c, 0, 66, 95
2, 91440, Note_on_c, 0, 64, 70
2, 91680, Note_off_c, 0, 64, 70
2, 91680, Note_on_c, 0, 61, 95
2, 92160, Note_off_c, 0, 61, 95
2, 92160, Note_on_c, 0, 61, 95
2, 96000, Note_off_c, 0, 61, 95
2, 109920, Note_on_c, 0, 59, 95
2, 110400, Note_off_c, 0, 59, 95
2, 110400, Note_on_c, 0, 61, 95
2, 110880, Note_off_c, 0, 61, 95
2, 110880, Note_on_c, 0, 64, 95
2, 111360, Note_off_c, 0, 64, 95
2, 111360, Pitch_bend_c, 1, 8192
2, 111360, Note_on_c, 1, 66, 95
2, 111381, Pitch_bend_c, 1, 8320
2, 111402, Pitch_bend_c, 1, 8448
2, 111423, Pitch_bend_c, 1, 8576
2, 111444, Pitch_bend_c, 1, 8704
2, 111465, Pitch_bend_c, 1, 8832
2, 111486, Pitch_bend_c, 1, 8960
2, 111507, Pitch_bend_c, 1, 9088
2, 111528, Pitch_bend_c, 1, 9216
2, 111549, Pitch_bend_c, 1, 9344
2, 111570, Pitch_bend_c, 1, 9472
2, 111591, Pitch_bend_c, 1, 9600
2, 111600, Pitch_bend_c, 1, 9600
2, 111840, Pitch_bend_c, 1, 9600
2, 111840, Pitch_bend_c, 1, 8192
2, 111840, Note_off_c, 1, 66, 95
2, 112320, Note_on_c, 0, 64, 95
2, 113280, Note_off_c, 0, 64, 95
2, 113280, Note_on_c, 0, 61, 95
2, 113760, Note_off_c, 0, 61, 95
2, 113760, Note_on_c, 0, 59, 95
2, 114240, Note_off_c, 0, 59, 95
2, 114240, Note_on_c, 0, 61, 95
2, 114720, Note_off_c, 0, 61, 95
2, 114720, Note_on_c, 0, 61, 95
2, 119040, Note_off_c, 0, 61, 95
2, 125280, Note_on_c, 0, 61, 95
2, 125760, Note_off_c, 0, 61, 95
2, 125760, Note_on_c, 0, 64, 95
2, 126240, Note_off_c, 0, 64, 95
2, 126240, Pitch_bend_c, 1, 8192
2, 126240, Note_on_c, 1, 66, 95
2, 126267, Pitch_bend_c, 1, 8320
2, 126294, Pitch_bend_c, 1, 8448
2, 126321, Pitch_bend_c, 1, 8576
2, 126348, Pitch_bend_c, 1, 8704
2, 126375, Pitch_bend_c, 1, 8832
2, 126402, Pitch_bend_c, 1, 8960
2, 126429, Pitch_bend_c, 1, 9088
2, 126456, Pitch_bend_c, 1, 9216
2, 126483, Pitch_bend_c, 1, 9344
2, 126510, Pitch_bend_c, 1, 9472
2, 126537, Pitch_bend_c, 1, 9600
2, 126540, Pitch_bend_c, 1, 9600
2, 127440, Pitch_bend_c, 1, 9600
2, 127440, Pitch_bend_c, 1, 8192
2, 127440, Note_off_c, 1, 66, 95
2, 127440, Note_on_c, 0, 59, 95
2, 127680, Note_off_c, 0, 59, 95
2, 127680, Note_on_c, 0, 59, 95
2, 128640, Note_off_c, 0, 59, 95
2, 131040, Note_on_c, 0, 61, 95
2, 131520, Note_off_c, 0, 61, 95
2, 131520, Note_on_c, 0, 64, 95
2, 132000, Note_off_c, 0, 64, 95
2, 132000, Note_on_c, 0, 61, 95
2, 132480, Note_off_c, 0, 61, 95
2, 132480, Pitch_bend_c, 1, 8192
2, 132480, Note_on_c, 1, 66, 95
2, 132501, Pitch_bend_c, 1, 8320
2, 132522, Pitch_bend_c, 1, 8448
2, 132543, Pitch_bend_c, 1, 8576
2, 132564, Pitch_bend_c, 1, 8704
2, 132585, Pitch_bend_c, 1, 8832
2, 132606, Pitch_bend_c, 1, 8960
2, 132627, Pitch_bend_c, 1, 9088
2, 132648, Pitch_bend_c, 1, 9216
2, 132669, Pitch_bend_c, 1, 9344
2, 132690, Pitch_bend_c, 1, 9472
2, 132711, Pitch_bend_c, 1, 9600
2, 132720, Pitch_bend_c, 1, 9600
2, 132960, Pitch_bend_c, 1, 9600
2, 132960, Pitch_bend_c, 1, 8192
2, 132960, Note_off_c, 1, 66, 95
2, 132960, Note_on_c, 0, 64, 95
2, 133440, Note_off_c, 0, 64, 95
2, 133440, Note_on_c, 0, 61, 95
2, 133680, Note_off_c, 0, 61, 95
2, 133680, Note_on_c, 0, 59, 70
2, 133920, Note_off_c, 0, 59, 70
2, 133920, Note_on_c, 0, 56, 95
2, 134400, Note_off_c, 0, 56, 95
2, 135360, Pitch_bend_c, 1, 8192
2, 135360, Note_on_c, 1, 66, 95
2, 135381, Pitch_bend_c, 1, 8320
2, 135402, Pitch_bend_c, 1, 8448
2, 135423, Pitch_bend_c, 1, 8576
2, 135444, Pitch_bend_c, 1, 8704
2, 135465, Pitch_bend_c, 1, 8832
2, 135486, Pitch_bend_c, 1, 8960
2, 135507, Pitch_bend_c, 1, 9088
2, 135528, Pitch_bend_c, 1, 9216
2, 135549, Pitch_bend_c, 1, 9344
2, 135570, Pitch_bend_c, 1, 9472
2, 135591, Pitch_bend_c, 1, 9600
2, 135600, Pitch_bend_c, 1, 9600
2, 135840, Pitch_bend_c, 1, 9600
2, 135840, Pitch_bend_c, 1, 8192
2, 135840, Note_off_c, 1, 66, 95
2, 135840, Pitch_bend_c, 1, 8192
2, 135840, Note_on_c, 1, 66, 95
2, 135861, Pitch_bend_c, 1, 8320
2, 135882, Pitch_bend_c, 1, 8448
2, 135903, Pitch_bend_c, 1, 8576
2, 135924, Pitch_bend_c, 1, 8704
2, 135945, Pitch_bend_c, 1, 8832
2, 135966, Pitch_bend_c, 1, 8960
2, 135987, Pitch_bend_c, 1, 9088
2, 136008, Pitch_bend_c, 1, 9216
2, 136029, Pitch_bend_c, 1, 9344
2, 136050, Pitch_bend_c, 1, 9472
2, 136071, Pitch_bend_c, 1, 9600
2, 136080, Pitch_bend_c, 1, 9600
2, 136320, Pitch_bend_c, 1, 9600
2, 136320, Pitch_bend_c, 1, 8192
2, 136320, Note_off_c, 1, 66, 95
2, 136320, Note_on_c, 0, 66, 95
2, 136800, Note_off_c, 0, 66, 95
2, 136800, Note_on_c, 0, 64, 95
2, 137280, Note_off_c, 0, 64, 95
2, 137280, Note_on_c, 0, 61, 95
2, 137760, Note_off_c, 0, 61, 95
2, 137760, Note_on_c, 0, 61, 95
2, 140160, Note_off_c, 0, 61, 95
2, 144000, Note_on_c, 0, 59, 95
2, 144480, Note_off_c, 0, 59, 95
2, 144480, Note_on_c, 0, 61, 95
2, 144960, Note_off_c, 0, 61, 95
2, 144960, Note_on_c, 0, 64, 95
2, 145440, Note_off_c, 0, 64, 95
2, 145440, Pitch_bend_c, 1, 8192
2, 145440, Note_on_c, 1, 66, 95
2, 145483, Pitch_bend_c, 1, 8320
2, 145526, Pitch_bend_c, 1, 8448
2, 145569, Pitch_bend_c, 1, 8576
2, 145612, Pitch_bend_c, 1, 8704
2, 145655, Pitch_bend_c, 1, 8832
2, 145698, Pitch_bend_c, 1, 8960
2, 145741, Pitch_bend_c, 1, 9088
2, 145784, Pitch_bend_c, 1, 9216
2, 145827, Pitch_bend_c, 1, 9344
2, 145870, Pitch_bend_c, 1, 9472
2, 145913, Pitch_bend_c, 1, 9600
2, 145920, Pitch_bend_c, 1, 9600
2, 146400, Pitch_bend_c, 1, 9600
2, 146400, Pitch_bend_c, 1, 8192
2, 146400, Note_off_c, 1, 66, 95
2, 146400, Note_on_c, 0, 61, 95
2, 147840, Note_off_c, 0, 61, 95
2, 147840, Note_on_c, 0, 64, 95
2, 147840, Note_on_c, 0, 59, 95
2, 148320, Note_off_c, 0, 64, 95
2, 148320, Note_off_c, 0, 59, 95
2, 148320, Note_on_c, 0, 61, 95
2, 148800, Note_off_c, 0, 61, 95
2, 150240, Pitch_bend_c, 1, 8192
2, 150240, Note_on_c, 1, 66, 95
2, 150288, Pitch_bend_c, 1, 8320
2, 150336, Pitch_bend_c, 1, 8448
2, 150384, Pitch_bend_c, 1, 8576
2, 150432, Pitch_bend_c, 1, 8704
2, 150480, Pitch_bend_c, 1, 8832
2, 150480, Pitch_bend_c, 1, 8832
2, 150720, Pitch_bend_c, 1, 8832
2, 150720, Pitch_bend_c, 1, 8192
2, 150720, Note_off_c, 1, 66, 95
2, 150720, Pitch_bend_c, 1, 8192
2, 150720, Note_on_c, 1, 66, 95
2, 150768, Pitch_bend_c, 1, 8320
2, 150816, Pitch_bend_c, 1, 8448
2, 150864, Pitch_bend_c, 1, 8576
2, 150912, Pitch_bend_c, 1, 8704
2, 150960, Pitch_bend_c, 1, 8832
2, 150960, Pitch_bend_c, 1, 8832
2, 151200, Pitch_bend_c, 1, 8832
2, 151200, Pitch_bend_c, 1, 8192
2, 151200, Note_off_c, 1, 66, 95
2, 151200, Pitch_bend_c, 1, 8192
2, 151200, Note_on_c, 1, 66, 95
2, 151248, Pitch_bend_c, 1, 8320
2, 151296, Pitch_bend_c, 1, 8448
2, 151344, Pitch_bend_c, 1, 8576
2, 151392, Pitch_bend_c, 1, 8704
2, 151440, Pitch_bend_c, 1, 8832
2, 151440, Pitch_bend_c, 1, 8832
2, 151680, Pitch_bend_c, 1, 8832
2, 151680, Pitch_bend_c, 1, 8192
2, 151680, Note_off_c, 1, 66, 95
2, 151680, Pitch_bend_c, 1, 8192
2, 151680, Note_on_c, 1, 66, 95
2, 151728, Pitch_bend_c, 1, 8320
2, 151776, Pitch_bend_c, 1, 8448
2, 151824, Pitch_bend_c, 1, 8576
2, 151872, Pitch_bend_c, 1, 8704
2, 151920, Pitch_bend_c, 1, 8832
2, 151920, Pitch_bend_c, 1, 8832
2, 152160, Pitch_bend_c, 1, 8832
2, 152160, Pitch_bend_c, 1, 8192
2, 152160, Note_off_c, 1, 66, 95
2, 152160, Note_on_c, 0, 64, 95
2, 152640, Note_off_c, 0, 64, 95
2, 152640, Note_on_c, 0, 61, 95
2, 153120, Note_off_c, 0, 61, 95
2, 153120, Note_on_c, 0, 61, 95
2, 155520, Note_off_c, 0, 61, 95
2, 159840, Pitch_bend_c, 1, 8192
2, 159840, Note_on_c, 1, 71, 95
2, 159861, Pitch_bend_c, 1, 8320
2, 159882, Pitch_bend_c, 1, 8448
2, 159903, Pitch_bend_c, 1, 8576
2, 159924, Pitch_bend_c, 1, 8704
2, 159945, Pitch_bend_c, 1, 8832
2, 159966, Pitch_bend_c, 1, 8960
2, 159987, Pitch_bend_c, 1, 9088
2, 160008, Pitch_bend_c, 1, 9216
2, 160029, Pitch_bend_c, 1, 9344
2, 160050, Pitch_bend_c, 1, 9472
2, 160071, Pitch_bend_c, 1, 9600
2, 160080, Pitch_bend_c, 1, 9600
2, 160320, Pitch_bend_c, 1, 9600
2, 160320, Pitch_bend_c, 1, 8192
2, 160320, Note_off_c, 1, 71, 95
2, 160320, Pitch_bend_c, 1, 8192
2, 160320, Note_on_c, 1, 71, 95
2, 160341, Pitch_bend_c, 1, 8320
2, 160362, Pitch_bend_c, 1, 8448
2, 160383, Pitch_bend_c, 1, 8576
2, 160404, Pitch_bend_c, 1, 8704
2, 160425, Pitch_bend_c, 1, 8832
2, 160446, Pitch_bend_c, 1, 8960
2, 160467, Pitch_bend_c, 1, 9088
2, 160488, Pitch_bend_c, 1, 9216
2, 160509, Pitch_bend_c, 1, 9344
2, 160530, Pitch_bend_c, 1, 9472
2, 160551, Pitch_bend_c, 1, 9600
2, 160560, Pitch_bend_c, 1, 9600
2, 160800, Pitch_bend_c, 1, 9600
2, 160800, Pitch_bend_c, 1, 8192
2, 160800, Note_off_c, 1, 71, 95
2, 160800, Pitch_bend_c, 1, 8192
2, 160800, Note_on_c, 1, 71, 95
2, 160821, Pitch_bend_c, 1, 8320
2, 160842, Pitch_bend_c, 1, 8448
2, 160863, Pitch_bend_c, 1, 8576
2, 160884, Pitch_bend_c, 1, 8704
2, 160905, Pitch_bend_c, 1, 8832
2, 160926, Pitch_bend_c, 1, 8960
2, 160947, Pitch_bend_c, 1, 9088
2, 160968, Pitch_bend_c, 1, 9216
2, 160989, Pitch_bend_c, 1, 9344
2, 161010, Pitch_bend_c, 1, 9472
2, 161031, Pitch_bend_c, 1, 9600
2, 161040, Pitch_bend_c, 1, 9600
2, 161280, Pitch_bend_c, 1, 9600
2, 161280, Pitch_bend_c, 1, 8192
2, 161280, Note_off_c, 1, 71, 95
2, 161280, Pitch_bend_c, 1, 8192
2, 161280, Note_on_c, 1, 71, 95
2, 161301, Pitch_bend_c, 1, 8320
2, 161322, Pitch_bend_c, 1, 8448
2, 161343, Pitch_bend_c, 1, 8576
2, 161364, Pitch_bend_c, 1, 8704
2, 161385, Pitch_bend_c, 1, 8832
2, 161406, Pitch_bend_c, 1, 8960
2, 161427, Pitch_bend_c, 1, 9088
2, 161448, Pitch_bend_c, 1, 9216
2, 161469, Pitch_bend_c, 1, 9344
2, 161490, Pitch_bend_c, 1, 9472
2, 161511, Pitch_bend_c, 1, 9600
2, 161520, Pitch_bend_c, 1, 9600
2, 161760, Pitch_bend_c, 1, 9600
2, 161781, Pitch_bend_c, 1, 9472
2, 161802, Pitch_bend_c, 1, 9344
2, 161823, Pitch_bend_c, 1, 9216
2, 161844, Pitch_bend_c, 1, 9088
2, 161865, Pitch_bend_c, 1, 8960
2, 161886, Pitch_bend_c, 1, 8832
2, 161907, Pitch_bend_c, 1, 8704
2, 161928, Pitch_bend_c, 1, 8576
2, 161949, Pitch_bend_c, 1, 8448
2, 161970, Pitch_bend_c, 1, 8320
2, 161991, Pitch_bend_c, 1, 8192
2, 162000, Pitch_bend_c, 1, 8192
2, 162240, Pitch_bend_c, 1, 8192
2, 162240, Pitch_bend_c, 1, 8192
2, 162240, Note_off_c, 1, 71, 95
2, 162240, Note_on_c, 0, 66, 95
2, 162720, Note_off_c, 0, 66, 95
2, 163200, Pitch_bend_c, 1, 8192
2, 163200, Note_on_c, 1, 64, 95
2, 163248, Pitch_bend_c, 1, 8320
2, 163296, Pitch_bend_c, 1, 8448
2, 163344, Pitch_bend_c, 1, 8576
2, 163392, Pitch_bend_c, 1, 8704
2, 163440, Pitch_bend_c, 1, 8832
2, 163440, Pitch_bend_c, 1, 8832
2, 163680, Pitch_bend_c, 1, 8832
2, 163680, Pitch_bend_c, 1, 8192
2, 163680, Note_off_c, 1, 64, 95
2, 163680, Note_on_c, 0, 61, 95
2, 165120, Note_off_c, 0, 61, 95
2, 165120, Pitch_bend_c, 1, 8192
2, 165120, Note_on_c, 1, 66, 95
2, 165141, Pitch_bend_c, 1, 8320
2, 165162, Pitch_bend_c, 1, 8448
2, 165183, Pitch_bend_c, 1, 8576
2, 165204, Pitch_bend_c, 1, 8704
2, 165225, Pitch_bend_c, 1, 8832
2, 165246, Pitch_bend_c, 1, 8960
2, 165267, Pitch_bend_c, 1, 9088
2, 165288, Pitch_bend_c, 1, 9216
2, 165309, Pitch_bend_c, 1, 9344
2, 165330, Pitch_bend_c, 1, 9472
2, 165351, Pitch_bend_c, 1, 9600
2, 165360, Pitch_bend_c, 1, 9600
2, 165600, Pitch_bend_c, 1, 9600
2, 165621, Pitch_bend_c, 1, 9472
2, 165642, Pitch_bend_c, 1, 9344
2, 165663, Pitch_bend_c, 1, 9216
2, 165684, Pitch_bend_c, 1, 9088
2, 165705, Pitch_bend_c, 1, 8960
2, 165726, Pitch_bend_c, 1, 8832
2, 165747, Pitch_bend_c, 1, 8704
2, 165768, Pitch_bend_c, 1, 8576
2, 165789, Pitch_bend_c, 1, 8448
2, 165810, Pitch_bend_c, 1, 8320
2, 165831, Pitch_bend_c, 1, 8192
2, 165840, Pitch_bend_c, 1, 8192
2, 166080, Pitch_bend_c, 1, 8192
2, 166080, Pitch_bend_c, 1, 8192
2, 166080, Note_off_c, 1, 66, 95
2, 166080, Note_on_c, 0, 59, 95
2, 166560, Note_off_c, 0, 59, 95
2, 166560, Note_on_c, 0, 61, 95
2, 168960, Note_off_c, 0, 61, 95
2, 168960, Note_on_c, 0, 61, 95
2, 172800, Note_off_c, 0, 61, 95
2, 186720, Note_on_c, 0, 59, 95
2, 187200, Note_off_c, 0, 59, 95
2, 187200, Note_on_c, 0, 61, 95
2, 187680, Note_off_c, 0, 61, 95
2, 187680, Note_on_c, 0, 64, 95
2, 188160, Note_off_c, 0, 64, 95
2, 188160, Pitch_bend_c, 1, 8192
2, 188160, Note_on_c, 1, 66, 95
2, 188181, Pitch_bend_c, 1, 8320
2, 188202, Pitch_bend_c, 1, 8448
2, 188223, Pitch_bend_c, 1, 8576
2, 188244, Pitch_bend_c, 1, 8704
2, 188265, Pitch_bend_c, 1, 8832
2, 188286, Pitch_bend_c, 1, 8960
2, 188307, Pitch_bend_c, 1, 9088
2, 188328, Pitch_bend_c, 1, 9216
2, 188349, Pitch_bend_c, 1, 9344
2, 188370, Pitch_bend_c, 1, 9472
2, 188391, Pitch_bend_c, 1, 9600
2, 188400, Pitch_bend_c, 1, 9600
2, 188640, Pitch_bend_c, 1, 9600
2, 188640, Pitch_bend_c, 1, 8192
2, 188640, Note_off_c, 1, 66, 95
2, 189120, Note_on_c, 0, 64, 95
2, 190080, Note_off_c, 0, 64, 95
2, 190080, Note_on_c, 0, 61, 95
2, 190560, Note_off_c, 0, 61, 95
2, 190560, Note_on_c, 0, 59, 95
2, 191040, Note_off_c, 0, 59, 95
2, 191040, Note_on_c, 0, 61, 95
2, 191520, Note_off_c, 0, 61, 95
2, 191520, Note_on_c, 0, 61, 95
2, 195840, Note_off_c, 0, 61, 95
2, 202080, Note_on_c, 0, 61, 95
2, 202560, Note_off_c, 0, 61, 95
2, 202560, Note_on_c, 0, 64, 95
2, 203040, Note_off_c, 0, 64, 95
2, 203040, Pitch_bend_c, 1, 8192
2, 203040, Note_on_c, 1, 66, 95
2, 203076, Pitch_bend_c, 1, 8320
2, 203112, Pitch_bend_c, 1, 8448
2, 203148, Pitch_bend_c, 1, 8576
2, 203184, Pitch_bend_c, 1, 8704
2, 203220, Pitch_bend_c, 1, 8832
2, 203256, Pitch_bend_c, 1, 8960
2, 203292, Pitch_bend_c, 1, 9088
2, 203328, Pitch_bend_c, 1, 9216
2, 203364, Pitch_bend_c, 1, 9344
2, 203400, Pitch_bend_c, 1, 9472
2, 203436, Pitch_bend_c, 1, 9600
2, 203440, Pitch_bend_c, 1, 9600
2, 204240, Pitch_bend_c, 1, 9600
2, 204240, Pitch_bend_c, 1, 8192
2, 204240, Note_off_c, 1, 66, 95
2, 204240, Note_on_c, 0, 59, 95
2, 204480, Note_off_c, 0, 59, 95
2, 204480, Note_on_c, 0, 59, 95
2, 205440, Note_off_c, 0, 59, 95
2, 207840, Note_on_c, 0, 61, 95
2, 208320, Note_off_c, 0, 61, 95
2, 208320, Note_on_c, 0, 64, 95
2, 208800, Note_off_c, 0, 64, 95
2, 208800, Note_on_c, 0, 61, 95
2, 209280, Note_off_c, 0, 61, 95
2, 209280, Pitch_bend_c, 1, 8192
2, 209280, Note_on_c, 1, 66, 95
2, 209301, Pitch_bend_c, 1, 8320
2, 209322, Pitch_bend_c, 1, 8448
2, 209343, Pitch_bend_c, 1, 8576
2, 209364, Pitch_bend_c, 1, 8704
2, 209385, Pitch_bend_c, 1, 8832
2, 209406, Pitch_bend_c, 1, 8960
2, 209427, Pitch_bend_c, 1, 9088
2, 209448, Pitch_bend_c, 1, 9216
2, 209469, Pitch_bend_c, 1, 9344
2, 209490, Pitch_bend_c, 1, 9472
2, 209511, Pitch_bend_c, 1, 9600
2, 209520, Pitch_bend_c, 1, 9600
2, 209760, Pitch_bend_c, 1, 9600
2, 209760, Pitch_bend_c, 1, 8192
2, 209760, Note_off_c, 1, 66, 95
2, 209760, Note_on_c, 0, 64, 95
2, 210240, Note_off_c, 0, 64, 95
2, 210240, Note_on_c, 0, 61, 95
2, 210480, Note_off_c, 0, 61, 95
2, 210480, Note_on_c, 0, 59, 70
2, 210720, Note_off_c, 0, 59, 70
2, 210720, Note_on_c, 0, 56, 95
2, 211200, Note_off_c, 0, 56, 95
2, 212160, Pitch_bend_c, 1, 8192
2, 212160, Note_on_c, 1, 66, 95
2, 212181, Pitch_bend_c, 1, 8320
2, 212202, Pitch_bend_c, 1, 8448
2, 212223, Pitch_bend_c, 1, 8576
2, 212244, Pitch_bend_c, 1, 8704
2, 212265, Pitch_bend_c, 1, 8832
2, 212286, Pitch_bend_c, 1, 8960
2, 212307, Pitch_bend_c, 1, 9088
2, 212328, Pitch_bend_c, 1, 9216
2, 212349, Pitch_bend_c, 1, 9344
2, 212370, Pitch_bend_c, 1, 9472
2, 212391, Pitch_bend_c, 1, 9600
2, 212400, Pitch_bend_c, 1, 9600
2, 212640, Pitch_bend_c, 1, 9600
2, 212640, Pitch_bend_c, 1, 8192
2, 212640, Note_off_c, 1, 66, 95
2, 212640, Pitch_bend_c, 1, 8192
2, 212640, Note_on_c, 1, 66, 95
2, 212661, Pitch_bend_c, 1, 8320
2, 212682, Pitch_bend_c, 1, 8448
2, 212703, Pitch_bend_c, 1, 8576
2, 212724, Pitch_bend_c, 1, 8704
2, 212745, Pitch_bend_c, 1, 8832
2, 212766, Pitch_bend_c, 1, 8960
2, 212787, Pitch_bend_c, 1, 9088
2, 212808, Pitch_bend_c, 1, 9216
2, 212829, Pitch_bend_c, 1, 9344
2, 212850, Pitch_bend_c, 1, 9472
2, 212871, Pitch_bend_c, 1, 9600
2, 212880, Pitch_bend_c, 1, 9600
2, 213120, Pitch_bend_c, 1, 9600
2, 213120, Pitch_bend_c, 1, 8192
2, 213120, Note_off_c, 1, 66, 95
2, 213120, Note_on_c, 0, 66, 95
2, 213600, Note_off_c, 0, 66, 95
2, 213600, Note_on_c, 0, 64, 95
2, 214080, Note_off_c, 0, 64, 95
2, 214080, Note_on_c, 0, 61, 95
2, 214560, Note_off_c, 0, 61, 95
2, 214560, Note_on_c, 0, 61, 95
2, 216960, Note_off_c, 0, 61, 95
2, 220800, Note_on_c, 0, 59, 95
2, 221280, Note_off_c, 0, 59, 95
2, 221280, Note_on_c, 0, 61, 95
2, 221760, Note_off_c, 0, 61, 95
2, 221760, Note_on_c, 0, 64, 95
2, 222240, Note_off_c, 0, 64, 95
2, 222240, Pitch_bend_c, 1, 8192
2, 222240, Note_on_c, 1, 66, 95
2, 222283, Pitch_bend_c, 1, 8320
2, 222326, Pitch_bend_c, 1, 8448
2, 222369, Pitch_bend_c, 1, 8576
2, 222412, Pitch_bend_c, 1, 8704
2, 222455, Pitch_bend_c, 1, 8832
2, 222498, Pitch_bend_c, 1, 8960
2, 222541, Pitch_bend_c, 1, 9088
2, 222584, Pitch_bend_c, 1, 9216
2, 222627, Pitch_bend_c, 1, 9344
2, 222670, Pitch_bend_c, 1, 9472
2, 222713, Pitch_bend_c, 1, 9600
2, 222720, Pitch_bend_c, 1, 9600
2, 223200, Pitch_bend_c, 1, 9600
2, 223200, Pitch_bend_c, 1, 8192
2, 223200, Note_off_c, 1, 66, 95
2, 223200, Note_on_c, 0, 61, 95
2, 224640, Note_off_c, 0, 61, 95
2, 224640, Note_on_c, 0, 64, 95
2, 224640, Note_on_c, 0, 59, 95
2, 225120, Note_off_c, 0, 64, 95
2, 225120, Note_off_c, 0, 59, 95
2, 225120, Note_on_c, 0, 61, 95
2, 225600, Note_off_c, 0, 61, 95
2, 227040, Pitch_bend_c, 1, 8192
2, 227040, Note_on_c, 1, 66, 95
2, 227088, Pitch_bend_c, 1, 8320
2, 227136, Pitch_bend_c, 1, 8448
2, 227184, Pitch_bend_c, 1, 8576
2, 227232, Pitch_bend_c, 1, 8704
2, 227280, Pitch_bend_c, 1, 8832
2, 227280, Pitch_bend_c, 1, 8832
2, 227520, Pitch_bend_c, 1, 8832
2, 227520, Pitch_bend_c, 1, 8192
2, 227520, Note_off_c, 1, 66, 95
2, 227520, Pitch_bend_c, 1, 8192
2, 227520, Note_on_c, 1, 66, 95
2, 227568, Pitch_bend_c, 1, 8320
2, 227616, Pitch_bend_c, 1, 8448
2, 227664, Pitch_bend_c, 1, 8576
2, 227712, Pitch_bend_c, 1, 8704
2, 227760, Pitch_bend_c, 1, 8832
2, 227760, Pitch_bend_c, 1, 8832
2, 228000, Pitch_bend_c, 1, 8832
2, 228000, Pitch_bend_c, 1, 8192
2, 228000, Note_off_c, 1, 66, 95
2, 228000, Pitch_bend_c, 1, 8192
2, 228000, Note_on_c, 1, 66, 95
2, 228048, Pitch_bend_c, 1, 8320
2, 228096, Pitch_bend_c, 1, 8448
2, 228144, Pitch_bend_c, 1, 8576
2, 228192, Pitch_bend_c, 1, 8704
2, 228240, Pitch_bend_c, 1, 8832
2, 228240, Pitch_bend_c, 1, 8832
2, 228480, Pitch_bend_c, 1, 8832
2, 228480, Pitch_bend_c, 1, 8192
2, 228480, Note_off_c, 1, 66, 95
2, 228480, Pitch_bend_c, 1, 8192
2, 228480, Note_on_c, 1, 66, 95
2, 228528, Pitch_bend_c, 1, 8320
2, 228576, Pitch_bend_c, 1, 8448
2, 228624, Pitch_bend_c, 1, 8576
2, 228672, Pitch_bend_c, 1, 8704
2, 228720, Pitch_bend_c, 1, 8832
2, 228720, Pitch_bend_c, 1, 8832
2, 228960, Pitch_bend_c, 1, 8832
2, 228960, Pitch_bend_c, 1, 8192
2, 228960, Note_off_c, 1, 66, 95
2, 228960, Note_on_c, 0, 64, 95
2, 229440, Note_off_c, 0, 64, 95
2, 229440, Note_on_c, 0, 61, 95
2, 229920, Note_off_c, 0, 61, 95
2, 229920, Note_on_c, 0, 61, 95
2, 234240, Note_off_c, 0, 61, 95
2, 234240, Note_on_c, 0, 64, 95
2, 234240, Note_on_c, 0, 59, 95
2, 234720, Note_off_c, 0, 64, 95
2, 234720, Note_off_c, 0, 59, 95
2, 234720, Note_on_c, 0, 61, 95
2, 235200, Note_off_c, 0, 61, 95
2, 235200, Note_on_c, 0, 64, 95
2, 235680, Note_off_c, 0, 64, 95
2, 235680, Note_on_c, 0, 61, 95
2, 237600, Note_off_c, 0, 61, 95
2, 239040, Note_on_c, 0, 61, 95
2, 239520, Note_off_c, 0, 61, 95
2, 240000, Note_on_c, 0, 64, 95
2, 240000, Note_on_c, 0, 59, 95
2, 240480, Note_off_c, 0, 64, 95
2, 240480, Note_off_c, 0, 59, 95
2, 240480, Note_on_c, 0, 61, 95
2, 240960, Note_off_c, 0, 61, 95
2, 240960, Note_on_c, 0, 64, 95
2, 241440, Note_off_c, 0, 64, 95
2, 241440, Pitch_bend_c, 1, 8192
2, 241440, Note_on_c, 1, 66, 95
2, 241483, Pitch_bend_c, 1, 8320
2, 241526, Pitch_bend_c, 1, 8448
2, 241569, Pitch_bend_c, 1, 8576
2, 241612, Pitch_bend_c, 1, 8704
2, 241655, Pitch_bend_c, 1, 8832
2, 241698, Pitch_bend_c, 1, 8960
2, 241741, Pitch_bend_c, 1, 9088
2, 241784, Pitch_bend_c, 1, 9216
2, 241827, Pitch_bend_c, 1, 9344
2, 241870, Pitch_bend_c, 1, 9472
2, 241913, Pitch_bend_c, 1, 9600
2, 241920, Pitch_bend_c, 1, 9600
2, 242400, Pitch_bend_c, 1, 9600
2, 242400, Pitch_bend_c, 1, 8192
2, 242400, Note_off_c, 1, 66, 95
2, 242400, Note_on_c, 0, 71, 95
2, 242880, Note_off_c, 0, 71, 95
2, 242880, Pitch_bend_c, 1, 8192
2, 242880, Note_on_c, 1, 66, 95
2, 242901, Pitch_bend_c, 1, 8320
2, 242922, Pitch_bend_c, 1, 8448
2, 242943, Pitch_bend_c, 1, 8576
2, 242964, Pitch_bend_c, 1, 8704
2, 242985, Pitch_bend_c, 1, 8832
2, 243006, Pitch_bend_c, 1, 8960
2, 243027, Pitch_bend_c, 1, 9088
2, 243048, Pitch_bend_c, 1, 9216
2, 243069, Pitch_bend_c, 1, 9344
2, 243090, Pitch_bend_c, 1, 9472
2, 243111, Pitch_bend_c, 1, 9600
2, 243120, Pitch_bend_c, 1, 9600
2, 243360, Pitch_bend_c, 1, 9600
2, 243381, Pitch_bend_c, 1, 9472
2, 243402, Pitch_bend_c, 1, 9344
2, 243423, Pitch_bend_c, 1, 9216
2, 243444, Pitch_bend_c, 1, 9088
2, 243465, Pitch_bend_c, 1, 8960
2, 243486, Pitch_bend_c, 1, 8832
2, 243507, Pitch_bend_c, 1, 8704
2, 243528, Pitch_bend_c, 1, 8576
2, 243549, Pitch_bend_c, 1, 8448
2, 243570, Pitch_bend_c, 1, 8320
2, 243591, Pitch_bend_c, 1, 8192
2, 243600, Pitch_bend_c, 1, 8192
2, 243840, Pitch_bend_c, 1, 8192
2, 243840, Pitch_bend_c, 1, 8192
2, 243840, Note_off_c, 1, 66, 95
2, 243840, Note_on_c, 0, 64, 95
2, 244320, Note_off_c, 0, 64, 95
2, 244320, Note_on_c, 0, 66, 95
2, 244800, Note_off_c, 0, 66, 95
2, 244800, Note_on_c, 0, 64, 95
2, 245280, Note_off_c, 0, 64, 95
2, 245280, Note_on_c, 0, 61, 95
2, 247680, Note_off_c, 0, 61, 95
2, 249120, Pitch_bend_c, 1, 8192
2, 249120, Note_on_c, 1, 66, 95
2, 249163, Pitch_bend_c, 1, 8320
2, 249206, Pitch_bend_c, 1, 8448
2, 249249, Pitch_bend_c, 1, 8576
2, 249292, Pitch_bend_c, 1, 8704
2, 249335, Pitch_bend_c, 1, 8832
2, 249378, Pitch_bend_c, 1, 8960
2, 249421, Pitch_bend_c, 1, 9088
2, 249464, Pitch_bend_c, 1, 9216
2, 249507, Pitch_bend_c, 1, 9344
2, 249550, Pitch_bend_c, 1, 9472
2, 249593, Pitch_bend_c, 1, 9600
2, 249600, Pitch_bend_c, 1, 9600
2, 250080, Pitch_bend_c, 1, 9600
2, 250080, Pitch_bend_c, 1, 8192
2, 250080, Note_off_c, 1, 66, 95
2, 250080, Note_on_c, 0, 71, 95
2, 250560, Note_off_c, 0, 71, 95
2, 250560, Pitch_bend_c, 1, 8192
2, 250560, Note_on_c, 1, 66, 95
2, 250581, Pitch_bend_c, 1, 8320
2, 250602, Pitch_bend_c, 1, 8448
2, 250623, Pitch_bend_c, 1, 8576
2, 250644, Pitch_bend_c, 1, 8704
2, 250665, Pitch_bend_c, 1, 8832
2, 250686, Pitch_bend_c, 1, 8960
2, 250707, Pitch_bend_c, 1, 9088
2, 250728, Pitch_bend_c, 1, 9216
2, 250749, Pitch_bend_c, 1, 9344
2, 250770, Pitch_bend_c, 1, 9472
2, 250791, Pitch_bend_c, 1, 9600
2, 250800, Pitch_bend_c, 1, 9600
2, 251040, Pitch_bend_c, 1, 9600
2, 251061, Pitch_bend_c, 1, 9472
2, 251082, Pitch_bend_c, 1, 9344
2, 251103, Pitch_bend_c, 1, 9216
2, 251124, Pitch_bend_c, 1, 9088
2, 251145, Pitch_bend_c, 1, 8960
2, 251166, Pitch_bend_c, 1, 8832
2, 251187, Pitch_bend_c, 1, 8704
2, 251208, Pitch_bend_c, 1, 8576
2, 251229, Pitch_bend_c, 1, 8448
2, 251250, Pitch_bend_c, 1, 8320
2, 251271, Pitch_bend_c, 1, 8192
2, 251280, Pitch_bend_c, 1, 8192
2, 251520, Pitch_bend_c, 1, 8192
2, 251520, Pitch_bend_c, 1, 8192
2, 251520, Note_off_c, 1, 66, 95
2, 251520, Note_on_c, 0, 64, 95
2, 252000, Note_off_c, 0, 64, 95
2, 252000, Note_on_c, 0, 61, 95
2, 253440, Note_off_c, 0, 61, 95
2, 253920, Pitch_bend_c, 1, 8192
2, 253920, Note_on_c, 1, 66, 95
2, 253963, Pitch_bend_c, 1, 8320
2, 254006, Pitch_bend_c, 1, 8448
2, 254049, Pitch_bend_c, 1, 8576
2, 254092, Pitch_bend_c, 1, 8704
2, 254135, Pitch_bend_c, 1, 8832
2, 254178, Pitch_bend_c, 1, 8960
2, 254221, Pitch_bend_c, 1, 9088
2, 254264, Pitch_bend_c, 1, 9216
2, 254307, Pitch_bend_c, 1, 9344
2, 254350, Pitch_bend_c, 1, 9472
2, 254393, Pitch_bend_c, 1, 9600
2, 254400, Pitch_bend_c, 1, 9600
2, 254880, Pitch_bend_c, 1, 9600
2, 254880, Pitch_bend_c, 1, 8192
2, 254880, Note_off_c, 1, 66, 95
2, 254880, Note_on_c, 0, 71, 95
2, 255360, Note_off_c, 0, 71, 95
2, 255360, Pitch_bend_c, 1, 8192
2, 255360, Note_on_c, 1, 66, 95
2, 255381, Pitch_bend_c, 1, 8320
2, 255402, Pitch_bend_c, 1, 8448
2, 255423, Pitch_bend_c, 1, 8576
2, 255444, Pitch_bend_c, 1, 8704
2, 255465, Pitch_bend_c, 1, 8832
2, 255486, Pitch_bend_c, 1, 8960
2, 255507, Pitch_bend_c, 1, 9088
2, 255528, Pitch_bend_c, 1, 9216
2, 255549, Pitch_bend_c, 1, 9344
2, 255570, Pitch_bend_c, 1, 9472
2, 255591, Pitch_bend_c, 1, 9600
2, 255600, Pitch_bend_c, 1, 9600
2, 255840, Pitch_bend_c, 1, 9600
2, 255840, Pitch_bend_c, 1, 8192
2, 255840, Note_off_c, 1, 66, 95
2, 255840, Note_on_c, 0, 71, 95
2, 256320, Note_off_c, 0, 71, 95
2, 256800, Pitch_bend_c, 1, 8192
2, 256800, Note_on_c, 1, 66, 95
2, 256843, Pitch_bend_c, 1, 8320
2, 256886, Pitch_bend_c, 1, 8448
2, 256929, Pitch_bend_c, 1, 8576
2, 256972, Pitch_bend_c, 1, 8704
2, 257015, Pitch_bend_c, 1, 8832
2, 257058, Pitch_bend_c, 1, 8960
2, 257101, Pitch_bend_c, 1, 9088
2, 257144, Pitch_bend_c, 1, 9216
2, 257187, Pitch_bend_c, 1, 9344
2, 257230, Pitch_bend_c, 1, 9472
2, 257273, Pitch_bend_c, 1, 9600
2, 257280, Pitch_bend_c, 1, 9600
2, 257760, Pitch_bend_c, 1, 9600
2, 257760, Pitch_bend_c, 1, 8192
2, 257760, Note_off_c, 1, 66, 95
2, 257760, Note_on_c, 0, 71, 95
2, 258240, Note_off_c, 0, 71, 95
2, 258240, Pitch_bend_c, 1, 8192
2, 258240, Note_on_c, 1, 64, 95
2, 258336, Pitch_bend_c, 1, 8320
2, 258432, Pitch_bend_c, 1, 8448
2, 258528, Pitch_bend_c, 1, 8576
2, 258624, Pitch_bend_c, 1, 8704
2, 258720, Pitch_bend_c, 1, 8832
2, 258720, Pitch_bend_c, 1, 8832
2, 259200, Pitch_bend_c, 1, 8832
2, 259200, Pitch_bend_c, 1, 8192
2, 259200, Note_off_c, 1, 64, 95
2, 259200, Note_on_c, 0, 61, 95
2, 261120, Note_off_c, 0, 61, 95
2, 262080, Pitch_bend_c, 1, 8192
2, 262080, Note_on_c, 1, 66, 95
2, 262101, Pitch_bend_c, 1, 8320
2, 262122, Pitch_bend_c, 1, 8448
2, 262143, Pitch_bend_c, 1, 8576
2, 262164, Pitch_bend_c, 1, 8704
2, 262185, Pitch_bend_c, 1, 8832
2, 262206, Pitch_bend_c, 1, 8960
2, 262227, Pitch_bend_c, 1, 9088
2, 262248, Pitch_bend_c, 1, 9216
2, 262269, Pitch_bend_c, 1, 9344
2, 262290, Pitch_bend_c, 1, 9472
2, 262311, Pitch_bend_c, 1, 9600
2, 262320, Pitch_bend_c, 1, 9600
2, 262560, Pitch_bend_c, 1, 9600
2, 262560, Pitch_bend_c, 1, 8192
2, 262560, Note_off_c, 1, 66, 95
2, 263040, Pitch_bend_c, 1, 8192
2, 263040, Note_on_c, 1, 64, 95
2, 263088, Pitch_bend_c, 1, 8320
2, 263136, Pitch_bend_c, 1, 8448
2, 263184, Pitch_bend_c, 1, 8576
2, 263232, Pitch_bend_c, 1, 8704
2, 263280, Pitch_bend_c, 1, 8832
2, 263280, Pitch_bend_c, 1, 8832
2, 263520, Pitch_bend_c, 1, 8832
2, 263520, Pitch_bend_c, 1, 8192
2, 263520, Note_off_c, 1, 64, 95
2, 263520, Note_on_c, 0, 61, 95
2, 264000, Note_off_c, 0, 61, 95
2, 264000, Note_on_c, 0, 59, 95
2, 264480, Note_off_c, 0, 59, 95
2, 264480, Note_on_c, 0, 61, 95
2, 264960, Note_off_c, 0, 61, 95
2, 264960, Pitch_bend_c, 1, 8192
2, 264960, Note_on_c, 1, 64, 95
2, 265008, Pitch_bend_c, 1, 8320
2, 265056, Pitch_bend_c, 1, 8448
2, 265104, Pitch_bend_c, 1, 8576
2, 265152, Pitch_bend_c, 1, 8704
2, 265200, Pitch_bend_c, 1, 8832
2, 265200, Pitch_bend_c, 1, 8832
2, 265440, Pitch_bend_c, 1, 8832
2, 265440, Pitch_bend_c, 1, 8192
2, 265440, Note_off_c, 1, 64, 95
2, 265440, Note_on_c, 0, 61, 95
2, 265920, Note_off_c, 0, 61, 95
2, 265920, Note_on_c, 0, 59, 95
2, 266400, Note_off_c, 0, 59, 95
2, 266400, Note_on_c, 0, 61, 95
2, 267360, Note_off_c, 0, 61, 95
2, 267360, Note_on_c, 0, 64, 95
2, 267840, Note_off_c, 0, 64, 95
2, 267840, Note_on_c, 0, 61, 95
2, 268320, Note_off_c, 0, 61, 95
2, 268320, Note_on_c, 0, 64, 95
2, 268800, Note_off_c, 0, 64, 95
2, 268800, Pitch_bend_c, 1, 8192
2, 268800, Note_on_c, 1, 66, 95
2, 268821, Pitch_bend_c, 1, 8320
2, 268842, Pitch_bend_c, 1, 8448
2, 268863, Pitch_bend_c, 1, 8576
2, 268884, Pitch_bend_c, 1, 8704
2, 268905, Pitch_bend_c, 1, 8832
2, 268926, Pitch_bend_c, 1, 8960
2, 268947, Pitch_bend_c, 1, 9088
2, 268968, Pitch_bend_c, 1, 9216
2, 268989, Pitch_bend_c, 1, 9344
2, 269010, Pitch_bend_c, 1, 9472
2, 269031, Pitch_bend_c, 1, 9600
2, 269040, Pitch_bend_c, 1, 9600
2, 269280, Pitch_bend_c, 1, 9600
2, 269280, Pitch_bend_c, 1, 8192
2, 269280, Note_off_c, 1, 66, 95
2, 269280, Note_on_c, 0, 73, 95
2, 269760, Note_off_c, 0, 73, 95
2, 269760, Pitch_bend_c, 1, 8192
2, 269760, Note_on_c, 1, 66, 95
2, 269781, Pitch_bend_c, 1, 8320
2, 269802, Pitch_bend_c, 1, 8448
2, 269823, Pitch_bend_c, 1, 8576
2, 269844, Pitch_bend_c, 1, 8704
2, 269865, Pitch_bend_c, 1, 8832
2, 269886, Pitch_bend_c, 1, 8960
2, 269907, Pitch_bend_c, 1, 9088
2, 269928, Pitch_bend_c, 1, 9216
2, 269949, Pitch_bend_c, 1, 9344
2, 269970, Pitch_bend_c, 1, 9472
2, 269991, Pitch_bend_c, 1, 9600
2, 270000, Pitch_bend_c, 1, 9600
2, 270240, Pitch_bend_c, 1, 9600
2, 270261, Pitch_bend_c, 1, 9472
2, 270282, Pitch_bend_c, 1, 9344
2, 270303, Pitch_bend_c, 1, 9216
2, 270324, Pitch_bend_c, 1, 9088
2, 270345, Pitch_bend_c, 1, 8960
2, 270366, Pitch_bend_c, 1, 8832
2, 270387, Pitch_bend_c, 1, 8704
2, 270408, Pitch_bend_c, 1, 8576
2, 270429, Pitch_bend_c, 1, 8448
2, 270450, Pitch_bend_c, 1, 8320
2, 270471, Pitch_bend_c, 1, 8192
2, 270480, Pitch_bend_c, 1, 8192
2, 270720, Pitch_bend_c, 1, 8192
2, 270720, Pitch_bend_c, 1, 8192
2, 270720, Note_off_c, 1, 66, 95
2, 270720, Note_on_c, 0, 64, 95
2, 271200, Note_off_c, 0, 64, 95
2, 271200, Note_on_c, 0, 66, 95
2, 271680, Note_off_c, 0, 66, 95
2, 271680, Note_on_c, 0, 64, 95
2, 272160, Note_off_c, 0, 64, 95
2, 272160, Pitch_bend_c, 1, 8192
2, 272160, Note_on_c, 1, 66, 95
2, 272203, Pitch_bend_c, 1, 8320
2, 272246, Pitch_bend_c, 1, 8448
2, 272289, Pitch_bend_c, 1, 8576
2, 272332, Pitch_bend_c, 1, 8704
2, 272375, Pitch_bend_c, 1, 8832
2, 272418, Pitch_bend_c, 1, 8960
2, 272461, Pitch_bend_c, 1, 9088
2, 272504, Pitch_bend_c, 1, 9216
2, 272547, Pitch_bend_c, 1, 9344
2, 272590, Pitch_bend_c, 1, 9472
2, 272633, Pitch_bend_c, 1, 9600
2, 272640, Pitch_bend_c, 1, 9600
2, 273120, Pitch_bend_c, 1, 9600
2, 273120, Pitch_bend_c, 1, 8192
2, 273120, Note_off_c, 1, 66, 95
2, 273120, Pitch_bend_c, 1, 8192
2, 273120, Note_on_c, 1, 66, 95
2, 273168, Pitch_bend_c, 1, 8320
2, 273216, Pitch_bend_c, 1, 8448
2, 273264, Pitch_bend_c, 1, 8576
2, 273312, Pitch_bend_c, 1, 8704
2, 273360, Pitch_bend_c, 1, 8832
2, 273360, Pitch_bend_c, 1, 8832
2, 273600, Pitch_bend_c, 1, 8832
2, 273600, Pitch_bend_c, 1, 8192
2, 273600, Note_off_c, 1, 66, 95
2, 273600, Pitch_bend_c, 1, 8192
2, 273600, Note_on_c, 1, 66, 95
2, 273648, Pitch_bend_c, 1, 8320
2, 273696, Pitch_bend_c, 1, 8448
2, 273744, Pitch_bend_c, 1, 8576
2, 273792, Pitch_bend_c, 1, 8704
2, 273840, Pitch_bend_c, 1, 8832
2, 273840, Pitch_bend_c, 1, 8832
2, 274080, Pitch_bend_c, 1, 8832
2, 274080, Pitch_bend_c, 1, 8192
2, 274080, Note_off_c, 1, 66, 95
2, 274080, Pitch_bend_c, 1, 8192
2, 274080, Note_on_c, 1, 66, 95
2, 274128, Pitch_bend_c, 1, 8320
2, 274176, Pitch_bend_c, 1, 8448
2, 274224, Pitch_bend_c, 1, 8576
2, 274272, Pitch_bend_c, 1, 8704
2, 274320, Pitch_bend_c, 1, 8832
2, 274320, Pitch_bend_c, 1, 8832
2, 274440, Note_on_c, 1, 64, 95
2, 274560, Pitch_bend_c, 1, 8832
2, 274560, Pitch_bend_c, 1, 8192
2, 274560, Note_off_c, 1, 66, 95
2, 274560, Note_off_c, 1, 64, 95
2, 274560, Note_on_c, 1, 66, 95
2, 275040, Note_off_c, 1, 66, 95
2, 275040, Note_on_c, 0, 64, 95
2, 275520, Note_off_c, 0, 64, 95
2, 275520, Note_on_c, 0, 61, 95
2, 276000, Note_off_c, 0, 61, 95
2, 276000, Note_on_c, 0, 61, 95
2, 280320, Note_off_c, 0, 61, 95
2, 280800, Note_on_c, 0, 59, 95
2, 281280, Note_off_c, 0, 59, 95
2, 281280, Note_on_c, 0, 61, 95
2, 281760, Note_off_c, 0, 61, 95
2, 282240, Pitch_bend_c, 1, 8192
2, 282240, Note_on_c, 1, 64, 95
2, 282288, Pitch_bend_c, 1, 8320
2, 282336, Pitch_bend_c, 1, 8448
2, 282384, Pitch_bend_c, 1, 8576
2, 282432, Pitch_bend_c, 1, 8704
2, 282480, Pitch_bend_c, 1, 8832
2, 282480, Pitch_bend_c, 1, 8832
2, 282720, Pitch_bend_c, 1, 8832
2, 282720, Pitch_bend_c, 1, 8192
2, 282720, Note_off_c, 1, 64, 95
2, 282720, Note_on_c, 0, 61, 95
2, 286080, Note_off_c, 0, 61, 95
2, 288480, Pitch_bend_c, 1, 8192
2, 288480, Note_on_c, 1, 66, 95
2, 288528, Pitch_bend_c, 1, 8320
2, 288576, Pitch_bend_c, 1, 8448
2, 288624, Pitch_bend_c, 1, 8576
2, 288672, Pitch_bend_c, 1, 8704
2, 288720, Pitch_bend_c, 1, 8832
2, 288720, Pitch_bend_c, 1, 8832
2, 288960, Pitch_bend_c, 1, 8832
2, 288960, Pitch_bend_c, 1, 8192
2, 288960, Note_off_c, 1, 66, 95
2, 288960, Pitch_bend_c, 1, 8192
2, 288960, Note_on_c, 1, 66, 95
2, 289008, Pitch_bend_c, 1, 8320
2, 289056, Pitch_bend_c, 1, 8448
2, 289104, Pitch_bend_c, 1, 8576
2, 289152, Pitch_bend_c, 1, 8704
2, 289200, Pitch_bend_c, 1, 8832
2, 289200, Pitch_bend_c, 1, 8832
2, 289440, Pitch_bend_c, 1, 8832
2, 289440, Pitch_bend_c, 1, 8192
2, 289440, Note_off_c, 1, 66, 95
2, 289440, Pitch_bend_c, 1, 8192
2, 289440, Note_on_c, 1, 66, 95
2, 289488, Pitch_bend_c, 1, 8320
2, 289536, Pitch_bend_c, 1, 8448
2, 289584, Pitch_bend_c, 1, 8576
2, 289632, Pitch_bend_c, 1, 8704
2, 289680, Pitch_bend_c, 1, 8832
2, 289680, Pitch_bend_c, 1, 8832
2, 289920, Pitch_bend_c, 1, 8832
2, 289920, Pitch_bend_c, 1, 8192
2, 289920, Note_off_c, 1, 66, 95
2, 289920, Pitch_bend_c, 1, 8192
2, 289920, Note_on_c, 1, 66, 95
2, 289968, Pitch_bend_c, 1, 8320
2, 290016, Pitch_bend_c, 1, 8448
2, 290064, Pitch_bend_c, 1, 8576
2, 290112, Pitch_bend_c, 1, 8704
2, 290160, Pitch_bend_c, 1, 8832
2, 290160, Pitch_bend_c, 1, 8832
2, 290400, Pitch_bend_c, 1, 8832
2, 290400, Pitch_bend_c, 1, 8192
2, 290400, Note_off_c, 1, 66, 95
2, 290400, Note_on_c, 0, 66, 95
2, 290880, Note_off_c, 0, 66, 95
2, 290880, Pitch_bend_c, 1, 8192
2, 290880, Note_on_c, 1, 64, 95
2, 290928, Pitch_bend_c, 1, 8320
2, 290976, Pitch_bend_c, 1, 8448
2, 291024, Pitch_bend_c, 1, 8576
2, 291072, Pitch_bend_c, 1, 8704
2, 291120, Pitch_bend_c, 1, 8832
2, 291120, Pitch_bend_c, 1, 8832
2, 291360, Pitch_bend_c, 1, 8832
2, 291360, Pitch_bend_c, 1, 8192
2, 291360, Note_off_c, 1, 64, 95
2, 291360, Note_on_c, 0, 61, 95
2, 291840, Note_off_c, 0, 61, 95
2, 291840, Note_on_c, 0, 61, 95
2, 295680, Note_off_c, 0, 61, 95
2, 295680, Pitch_bend_c, 1, 8192
2, 295680, Note_on_c, 1, 71, 95
2, 295701, Pitch_bend_c, 1, 8320
2, 295722, Pitch_bend_c, 1, 8448
2, 295743, Pitch_bend_c, 1, 8576
2, 295764, Pitch_bend_c, 1, 8704
2, 295785, Pitch_bend_c, 1, 8832
2, 295806, Pitch_bend_c, 1, 8960
2, 295827, Pitch_bend_c, 1, 9088
2, 295848, Pitch_bend_c, 1, 9216
2, 295869, Pitch_bend_c, 1, 9344
2, 295890, Pitch_bend_c, 1, 9472
2, 295911, Pitch_bend_c, 1, 9600
2, 295920, Pitch_bend_c, 1, 9600
2, 296160, Pitch_bend_c, 1, 9600
2, 296160, Pitch_bend_c, 1, 8192
2, 296160, Note_off_c, 1, 71, 95
2, 296160, Pitch_bend_c, 1, 8192
2, 296160, Note_on_c, 1, 71, 95
2, 296181, Pitch_bend_c, 1, 8320
2, 296202, Pitch_bend_c, 1, 8448
2, 296223, Pitch_bend_c, 1, 8576
2, 296244, Pitch_bend_c, 1, 8704
2, 296265, Pitch_bend_c, 1, 8832
2, 296286, Pitch_bend_c, 1, 8960
2, 296307, Pitch_bend_c, 1, 9088
2, 296328, Pitch_bend_c, 1, 9216
2, 296349, Pitch_bend_c, 1, 9344
2, 296370, Pitch_bend_c, 1, 9472
2, 296391, Pitch_bend_c, 1, 9600
2, 296400, Pitch_bend_c, 1, 9600
2, 296640, Pitch_bend_c, 1, 9600
2, 296640, Pitch_bend_c, 1, 8192
2, 296640, Note_off_c, 1, 71, 95
2, 296640, Pitch_bend_c, 1, 8192
2, 296640, Note_on_c, 1, 71, 95
2, 296661, Pitch_bend_c, 1, 8320
2, 296682, Pitch_bend_c, 1, 8448
2, 296703, Pitch_bend_c, 1, 8576
2, 296724, Pitch_bend_c, 1, 8704
2, 296745, Pitch_bend_c, 1, 8832
2, 296766, Pitch_bend_c, 1, 8960
2, 296787, Pitch_bend_c, 1, 9088
2, 296808, Pitch_bend_c, 1, 9216
2, 296829, Pitch_bend_c, 1, 9344
2, 296850, Pitch_bend_c, 1, 9472
2, 296871, Pitch_bend_c, 1, 9600
2, 296880, Pitch_bend_c, 1, 9600
2, 297120, Pitch_bend_c, 1, 9600
2, 297120, Pitch_bend_c, 1, 8192
2, 297120, Note_off_c, 1, 71, 95
2, 297120, Pitch_bend_c, 1, 8192
2, 297120, Note_on_c, 1, 71, 95
2, 297141, Pitch_bend_c, 1, 8320
2, 297162, Pitch_bend_c, 1, 8448
2, 297183, Pitch_bend_c, 1, 8576
2, 297204, Pitch_bend_c, 1, 8704
2, 297225, Pitch_bend_c, 1, 8832
2, 297246, Pitch_bend_c, 1, 8960
2, 297267, Pitch_bend_c, 1, 9088
2, 297288, Pitch_bend_c, 1, 9216
2, 297309, Pitch_bend_c, 1, 9344
2, 297330, Pitch_bend_c, 1, 9472
2, 297351, Pitch_bend_c, 1, 9600
2, 297360, Pitch_bend_c, 1, 9600
2, 297600, Pitch_bend_c, 1, 9600
2, 297600, Pitch_bend_c, 1, 8192
2, 297600, Note_off_c, 1, 71, 95
2, 297600, Pitch_bend_c, 1, 8192
2, 297600, Note_on_c, 1, 71, 95
2, 297621, Pitch_bend_c, 1, 8320
2, 297642, Pitch_bend_c, 1, 8448
2, 297663, Pitch_bend_c, 1, 8576
2, 297684, Pitch_bend_c, 1, 8704
2, 297705, Pitch_bend_c, 1, 8832
2, 297726, Pitch_bend_c, 1, 8960
2, 297747, Pitch_bend_c, 1, 9088
2, 297768, Pitch_bend_c, 1, 9216
2, 297789, Pitch_bend_c, 1, 9344
2, 297810, Pitch_bend_c, 1, 9472
2, 297831, Pitch_bend_c, 1, 9600
2, 297840, Pitch_bend_c, 1, 9600
2, 298080, Pitch_bend_c, 1, 9600
2, 298101, Pitch_bend_c, 1, 9472
2, 298122, Pitch_bend_c, 1, 9344
2, 298143, Pitch_bend_c, 1, 9216
2, 298164, Pitch_bend_c, 1, 9088
2, 298185, Pitch_bend_c, 1, 8960
2, 298206, Pitch_bend_c, 1, 8832
2, 298227, Pitch_bend_c, 1, 8704
2, 298248, Pitch_bend_c, 1, 8576
2, 298269, Pitch_bend_c, 1, 8448
2, 298290, Pitch_bend_c, 1, 8320
2, 298311, Pitch_bend_c, 1, 8192
2, 298320, Pitch_bend_c, 1, 8192
2, 298560, Pitch_bend_c, 1, 8192
2, 298560, Pitch_bend_c, 1, 8192
2, 298560, Note_off_c, 1, 71, 95
2, 298560, Note_on_c, 0, 66, 95
2, 299040, Note_off_c, 0, 66, 95
2, 299040, Note_on_c, 0, 64, 95
2, 299520, Note_off_c, 0, 64, 95
2, 299520, Note_on_c, 0, 61, 95
2, 301440, Note_off_c, 0, 61, 95
2, 301440, Note_on_c, 0, 59, 95
2, 301920, Note_off_c, 0, 59, 95
2, 301920, Note_on_c, 0, 61, 95
2, 302400, Note_off_c, 0, 61, 95
2, 302400, Note_on_c, 0, 64, 95
2, 302880, Note_off_c, 0, 64, 95
2, 302880, Pitch_bend_c, 1, 8192
2, 302880, Note_on_c, 1, 66, 95
2, 302901, Pitch_bend_c, 1, 8320
2, 302922, Pitch_bend_c, 1, 8448
2, 302943, Pitch_bend_c, 1, 8576
2, 302964, Pitch_bend_c, 1, 8704
2, 302985, Pitch_bend_c, 1, 8832
2, 303006, Pitch_bend_c, 1, 8960
2, 303027, Pitch_bend_c, 1, 9088
2, 303048, Pitch_bend_c, 1, 9216
2, 303069, Pitch_bend_c, 1, 9344
2, 303090, Pitch_bend_c, 1, 9472
2, 303111, Pitch_bend_c, 1, 9600
2, 303120, Pitch_bend_c, 1, 9600
2, 303360, Pitch_bend_c, 1, 9600
2, 303360, Pitch_bend_c, 1, 8192
2, 303360, Note_off_c, 1, 66, 95
2, 304320, Note_on_c, 0, 61, 95
2, 304800, Note_off_c, 0, 61, 95
2, 305280, Note_on_c, 0, 59, 95
2, 305760, Note_off_c, 0, 59, 95
2, 305760, Note_on_c, 0, 61, 95
2, 306240, Note_off_c, 0, 61, 95
2, 306240, Note_on_c, 0, 64, 95
2, 306720, Note_off_c, 0, 64, 95
2, 306720, Pitch_bend_c, 1, 8192
2, 306720, Note_on_c, 1, 66, 95
2, 306741, Pitch_bend_c, 1, 8320
2, 306762, Pitch_bend_c, 1, 8448
2, 306783, Pitch_bend_c, 1, 8576
2, 306804, Pitch_bend_c, 1, 8704
2, 306825, Pitch_bend_c, 1, 8832
2, 306846, Pitch_bend_c, 1, 8960
2, 306867, Pitch_bend_c, 1, 9088
2, 306888, Pitch_bend_c, 1, 9216
2, 306909, Pitch_bend_c, 1, 9344
2, 306930, Pitch_bend_c, 1, 9472
2, 306951, Pitch_bend_c, 1, 9600
2, 306960, Pitch_bend_c, 1, 9600
2, 307200, Pitch_bend_c, 1, 9600
2, 307200, Pitch_bend_c, 1, 8192
2, 307200, Note_off_c, 1, 66, 95
2, 307680, Note_on_c, 0, 73, 95
2, 307680, Note_on_c, 0, 68, 95
2, 308160, Note_off_c, 0, 73, 95
2, 308160, Note_off_c, 0, 68, 95
2, 308160, Pitch_bend_c, 1, 8192
2, 308160, Note_on_c, 1, 66, 95
2, 308181, Pitch_bend_c, 1, 8320
2, 308202, Pitch_bend_c, 1, 8448
2, 308223, Pitch_bend_c, 1, 8576
2, 308244, Pitch_bend_c, 1, 8704
2, 308265, Pitch_bend_c, 1, 8832
2, 308286, Pitch_bend_c, 1, 8960
2, 308307, Pitch_bend_c, 1, 9088
2, 308328, Pitch_bend_c, 1, 9216
2, 308349, Pitch_bend_c, 1, 9344
2, 308370, Pitch_bend_c, 1, 9472
2, 308391, Pitch_bend_c, 1, 9600
2, 308400, Pitch_bend_c, 1, 9600
2, 308640, Pitch_bend_c, 1, 9600
2, 308640, Pitch_bend_c, 1, 8192
2, 308640, Note_off_c, 1, 66, 95
2, 309120, Note_on_c, 0, 73, 95
2, 309120, Note_on_c, 0, 68, 95
2, 309600, Note_off_c, 0, 73, 95
2, 309600, Note_off_c, 0, 68, 95
2, 309600, Pitch_bend_c, 1, 8192
2, 309600, Note_on_c, 1, 66, 95
2, 309621, Pitch_bend_c, 1, 8320
2, 309642, Pitch_bend_c, 1, 8448
2, 309663, Pitch_bend_c, 1, 8576
2, 309684, Pitch_bend_c, 1, 8704
2, 309705, Pitch_bend_c, 1, 8832
2, 309726, Pitch_bend_c, 1, 8960
2, 309747, Pitch_bend_c, 1, 9088
2, 309768, Pitch_bend_c, 1, 9216
2, 309789, Pitch_bend_c, 1, 9344
2, 309810, Pitch_bend_c, 1, 9472
2, 309831, Pitch_bend_c, 1, 9600
2, 309840, Pitch_bend_c, 1, 9600
2, 310080, Pitch_bend_c, 1, 9600
2, 310080, Pitch_bend_c, 1, 8192
2, 310080, Note_off_c, 1, 66, 95
2, 310080, Note_on_c, 0, 73, 95
2, 310080, Note_on_c, 0, 68, 95
2, 310560, Note_off_c, 0, 73, 95
2, 310560, Note_off_c, 0, 68, 95
2, 310560, Pitch_bend_c, 1, 8192
2, 310560, Note_on_c, 1, 66, 95
2, 310581, Pitch_bend_c, 1, 8320
2, 310602, Pitch_bend_c, 1, 8448
2, 310623, Pitch_bend_c, 1, 8576
2, 310644, Pitch_bend_c, 1, 8704
2, 310665, Pitch_bend_c, 1, 8832
2, 310686, Pitch_bend_c, 1, 8960
2, 310707, Pitch_bend_c, 1, 9088
2, 310728, Pitch_bend_c, 1, 9216
2, 310749, Pitch_bend_c, 1, 9344
2, 310770, Pitch_bend_c, 1, 9472
2, 310791, Pitch_bend_c, 1, 9600
2, 310800, Pitch_bend_c, 1, 9600
2, 311040, Pitch_bend_c, 1, 9600
2, 311040, Pitch_bend_c, 1, 8192
2, 311040, Note_off_c, 1, 66, 95
2, 311520, Note_on_c, 0, 64, 95
2, 312000, Note_off_c, 0, 64, 95
2, 312480, Note_on_c, 0, 61, 95
2, 313920, Note_off_c, 0, 61, 95
2, 313920, Note_on_c, 0, 59, 95
2, 314400, Note_off_c, 0, 59, 95
2, 314400, Note_on_c, 0, 61, 95
2, 314880, Note_off_c, 0, 61, 95
2, 314880, Note_on_c, 0, 64, 95
2, 315360, Note_off_c, 0, 64, 95
2, 315360, Note_on_c, 0, 61, 95
2, 317760, Note_off_c, 0, 61, 95
2, 327360, Pitch_bend_c, 1, 8192
2, 327360, Note_on_c, 1, 66, 95
2, 327381, Pitch_bend_c, 1, 8320
2, 327402, Pitch_bend_c, 1, 8448
2, 327423, Pitch_bend_c, 1, 8576
2, 327444, Pitch_bend_c, 1, 8704
2, 327465, Pitch_bend_c, 1, 8832
2, 327486, Pitch_bend_c, 1, 8960
2, 327507, Pitch_bend_c, 1, 9088
2, 327528, Pitch_bend_c, 1, 9216
2, 327549, Pitch_bend_c, 1, 9344
2, 327570, Pitch_bend_c, 1, 9472
2, 327591, Pitch_bend_c, 1, 9600
2, 327600, Pitch_bend_c, 1, 9600
2, 327840, Pitch_bend_c, 1, 9600
2, 327861, Pitch_bend_c, 1, 9472
2, 327882, Pitch_bend_c, 1, 9344
2, 327903, Pitch_bend_c, 1, 9216
2, 327924, Pitch_bend_c, 1, 9088
2, 327945, Pitch_bend_c, 1, 8960
2, 327966, Pitch_bend_c, 1, 8832
2, 327987, Pitch_bend_c, 1, 8704
2, 328008, Pitch_bend_c, 1, 8576
2, 328029, Pitch_bend_c, 1, 8448
2, 328050, Pitch_bend_c, 1, 8320
2, 328071, Pitch_bend_c, 1, 8192
2, 328080, Pitch_bend_c, 1, 8192
2, 328320, Pitch_bend_c, 1, 8192
2, 328320, Pitch_bend_c, 1, 8192
2, 328320, Note_off_c, 1, 66, 95
2, 328320, Note_on_c, 0, 64, 95
2, 328800, Note_off_c, 0, 64, 95
2, 328800, Note_on_c, 0, 61, 95
2, 330240, Note_off_c, 0, 61, 95
2, 331200, Pitch_bend_c, 1, 8192
2, 331200, Note_on_c, 1, 66, 95
2, 331243, Pitch_bend_c, 1, 8320
2, 331286, Pitch_bend_c, 1, 8448
2, 331329, Pitch_bend_c, 1, 8576
2, 331372, Pitch_bend_c, 1, 8704
2, 331415, Pitch_bend_c, 1, 8832
2, 331458, Pitch_bend_c, 1, 8960
2, 331501, Pitch_bend_c, 1, 9088
2, 331544, Pitch_bend_c, 1, 9216
2, 331587, Pitch_bend_c, 1, 9344
2, 331630, Pitch_bend_c, 1, 9472
2, 331673, Pitch_bend_c, 1, 9600
2, 331680, Pitch_bend_c, 1, 9600
2, 332160, Pitch_bend_c, 1, 9600
2, 332160, Pitch_bend_c, 1, 8192
2, 332160, Note_off_c, 1, 66, 95
2, 332160, Pitch_bend_c, 1, 9600
2, 332160, Note_on_c, 1, 66, 95
2, 332320, Pitch_bend_c, 1, 9600
2, 332334, Pitch_bend_c, 1, 9472
2, 332348, Pitch_bend_c, 1, 9344
2, 332362, Pitch_bend_c, 1, 9216
2, 332376, Pitch_bend_c, 1, 9088
2, 332390, Pitch_bend_c, 1, 8960
2, 332404, Pitch_bend_c, 1, 8832
2, 332418, Pitch_bend_c, 1, 8704
2, 332432, Pitch_bend_c, 1, 8576
2, 332446, Pitch_bend_c, 1, 8448
2, 332460, Pitch_bend_c, 1, 8320
2, 332474, Pitch_bend_c, 1, 8192
2, 332480, Pitch_bend_c, 1, 8192
2, 332640, Pitch_bend_c, 1, 8192
2, 332640, Pitch_bend_c, 1, 8192
2, 332640, Note_off_c, 1, 66, 95
2, 332640, Note_on_c, 0, 64, 95
2, 333120, Note_off_c, 0, 64, 95
2, 333600, Pitch_bend_c, 1, 8192
2, 333600, Note_on_c, 1, 66, 95
2, 333643, Pitch_bend_c, 1, 8320
2, 333686, Pitch_bend_c, 1, 8448
2, 333729, Pitch_bend_c, 1, 8576
2, 333772, Pitch_bend_c, 1, 8704
2, 333815, Pitch_bend_c, 1, 8832
2, 333858, Pitch_bend_c, 1, 8960
2, 333901, Pitch_bend_c, 1, 9088
2, 333944, Pitch_bend_c, 1, 9216
2, 333987, Pitch_bend_c, 1, 9344
2, 334030, Pitch_bend_c, 1, 9472
2, 334073, Pitch_bend_c, 1, 9600
2, 334080, Pitch_bend_c, 1, 9600
2, 334560, Pitch_bend_c, 1, 9600
2, 334560, Pitch_bend_c, 1, 8192
2, 334560, Note_off_c, 1, 66, 95
2, 334560, Note_on_c, 0, 71, 95
2, 335040, Note_off_c, 0, 71, 95
2, 335040, Pitch_bend_c, 1, 9600
2, 335040, Note_on_c, 1, 66, 95
2, 335360, Pitch_bend_c, 1, 9600
2, 335389, Pitch_bend_c, 1, 9472
2, 335418, Pitch_bend_c, 1, 9344
2, 335447, Pitch_bend_c, 1, 9216
2, 335476, Pitch_bend_c, 1, 9088
2, 335505, Pitch_bend_c, 1, 8960
2, 335534, Pitch_bend_c, 1, 8832
2, 335563, Pitch_bend_c, 1, 8704
2, 335592, Pitch_bend_c, 1, 8576
2, 335621, Pitch_bend_c, 1, 8448
2, 335650, Pitch_bend_c, 1, 8320
2, 335679, Pitch_bend_c, 1, 8192
2, 335680, Pitch_bend_c, 1, 8192
2, 336000, Pitch_bend_c, 1, 8192
2, 336000, Pitch_bend_c, 1, 8192
2, 336000, Note_off_c, 1, 66, 95
2, 336000, Note_on_c, 0, 64, 95
2, 336480, Note_off_c, 0, 64, 95
2, 336480, Note_on_c, 0, 66, 95
2, 336960, Note_off_c, 0, 66, 95
2, 336960, Note_on_c, 0, 64, 95
2, 337440, Note_off_c, 0, 64, 95
2, 337440, Note_on_c, 0, 61, 95
2, 340800, Note_off_c, 0, 61, 95
2, 340800, Note_on_c, 0, 59, 95
2, 341280, Note_off_c, 0, 59, 95
2, 341280, Note_on_c, 0, 61, 95
2, 341760, Note_off_c, 0, 61, 95
2, 341760, Note_on_c, 0, 64, 95
2, 342240, Note_off_c, 0, 64, 95
2, 342240, Note_on_c, 0, 61, 95
2, 342720, Note_off_c, 0, 61, 95
2, 342720, Note_on_c, 0, 61, 95
2, 344640, Note_off_c, 0, 61, 95
2, 346080, Pitch_bend_c, 1, 8192
2, 346080, Note_on_c, 1, 66, 95
2, 346123, Pitch_bend_c, 1, 8320
2, 346166, Pitch_bend_c, 1, 8448
2, 346209, Pitch_bend_c, 1, 8576
2, 346252, Pitch_bend_c, 1, 8704
2, 346295, Pitch_bend_c, 1, 8832
2, 346338, Pitch_bend_c, 1, 8960
2, 346381, Pitch_bend_c, 1, 9088
2, 346424, Pitch_bend_c, 1, 9216
2, 346467, Pitch_bend_c, 1, 9344
2, 346510, Pitch_bend_c, 1, 9472
2, 346553, Pitch_bend_c, 1, 9600
2, 346560, Pitch_bend_c, 1, 9600
2, 347040, Pitch_bend_c, 1, 9600
2, 347040, Pitch_bend_c, 1, 8192
2, 347040, Note_off_c, 1, 66, 95
2, 347040, Note_on_c, 0, 71, 95
2, 347520, Note_off_c, 0, 71, 95
2, 347520, Pitch_bend_c, 1, 8192
2, 347520, Note_on_c, 1, 66, 95
2, 347541, Pitch_bend_c, 1, 8320
2, 347562, Pitch_bend_c, 1, 8448
2, 347583, Pitch_bend_c, 1, 8576
2, 347604, Pitch_bend_c, 1, 8704
2, 347625, Pitch_bend_c, 1, 8832
2, 347646, Pitch_bend_c, 1, 8960
2, 347667, Pitch_bend_c, 1, 9088
2, 347688, Pitch_bend_c, 1, 9216
2, 347709, Pitch_bend_c, 1, 9344
2, 347730, Pitch_bend_c, 1, 9472
2, 347751, Pitch_bend_c, 1, 9600
2, 347760, Pitch_bend_c, 1, 9600
2, 348000, Pitch_bend_c, 1, 9600
2, 348000, Pitch_bend_c, 1, 8192
2, 348000, Note_off_c, 1, 66, 95
2, 348000, Note_on_c, 0, 64, 95
2, 348480, Note_off_c, 0, 64, 95
2, 348480, Note_on_c, 0, 61, 95
2, 348960, Note_off_c, 0, 61, 95
2, 349440, Pitch_bend_c, 1, 8192
2, 349440, Note_on_c, 1, 66, 95
2, 349461, Pitch_bend_c, 1, 8320
2, 349482, Pitch_bend_c, 1, 8448
2, 349503, Pitch_bend_c, 1, 8576
2, 349524, Pitch_bend_c, 1, 8704
2, 349545, Pitch_bend_c, 1, 8832
2, 349566, Pitch_bend_c, 1, 8960
2, 349587, Pitch_bend_c, 1, 9088
2, 349608, Pitch_bend_c, 1, 9216
2, 349629, Pitch_bend_c, 1, 9344
2, 349650, Pitch_bend_c, 1, 9472
2, 349671, Pitch_bend_c, 1, 9600
2, 349680, Pitch_bend_c, 1, 9600
2, 349920, Pitch_bend_c, 1, 9600
2, 349920, Pitch_bend_c, 1, 8192
2, 349920, Note_off_c, 1, 66, 95
2, 349920, Pitch_bend_c, 1, 9600
2, 349920, Note_on_c, 1, 66, 95
2, 350400, Pitch_bend_c, 1, 9600
2, 350400, Pitch_bend_c, 1, 8192
2, 350400, Note_off_c, 1, 66, 95
2, 350400, Pitch_bend_c, 1, 8192
2, 350400, Note_on_c, 1, 66, 95
2, 350421, Pitch_bend_c, 1, 8320
2, 350442, Pitch_bend_c, 1, 8448
2, 350463, Pitch_bend_c, 1, 8576
2, 350484, Pitch_bend_c, 1, 8704
2, 350505, Pitch_bend_c, 1, 8832
2, 350526, Pitch_bend_c, 1, 8960
2, 350547, Pitch_bend_c, 1, 9088
2, 350568, Pitch_bend_c, 1, 9216
2, 350589, Pitch_bend_c, 1, 9344
2, 350610, Pitch_bend_c, 1, 9472
2, 350631, Pitch_bend_c, 1, 9600
2, 350640, Pitch_bend_c, 1, 9600
2, 350880, Pitch_bend_c, 1, 9600
2, 350880, Pitch_bend_c, 1, 8192
2, 350880, Note_off_c, 1, 66, 95
2, 350880, Pitch_bend_c, 1, 9600
2, 350880, Note_on_c, 1, 66, 95
2, 351360, Pitch_bend_c, 1, 9600
2, 351360, Pitch_bend_c, 1, 8192
2, 351360, Note_off_c, 1, 66, 95
2, 351360, Pitch_bend_c, 1, 8192
2, 351360, Note_on_c, 1, 66, 95
2, 351381, Pitch_bend_c, 1, 8320
2, 351402, Pitch_bend_c, 1, 8448
2, 351423, Pitch_bend_c, 1, 8576
2, 351444, Pitch_bend_c, 1, 8704
2, 351465, Pitch_bend_c, 1, 8832
2, 351486, Pitch_bend_c, 1, 8960
2, 351507, Pitch_bend_c, 1, 9088
2, 351528, Pitch_bend_c, 1, 9216
2, 351549, Pitch_bend_c, 1, 9344
2, 351570, Pitch_bend_c, 1, 9472
2, 351591, Pitch_bend_c, 1, 9600
2, 351600, Pitch_bend_c, 1, 9600
2, 351840, Pitch_bend_c, 1, 9600
2, 351840, Pitch_bend_c, 1, 8192
2, 351840, Note_off_c, 1, 66, 95
2, 351840, Note_on_c, 0, 66, 95
2, 352320, Note_off_c, 0, 66, 95
2, 352320, Note_on_c, 0, 64, 95
2, 352800, Note_off_c, 0, 64, 95
2, 352800, Note_on_c, 0, 66, 95
2, 353760, Note_off_c, 0, 66, 95
2, 353760, Pitch_bend_c, 1, 8192
2, 353760, Note_on_c, 1, 64, 95
2, 353872, Pitch_bend_c, 1, 8320
2, 353984, Pitch_bend_c, 1, 8448
2, 354096, Pitch_bend_c, 1, 8576
2, 354208, Pitch_bend_c, 1, 8704
2, 354320, Pitch_bend_c, 1, 8832
2, 354320, Pitch_bend_c, 1, 8832
2, 354600, Pitch_bend_c, 1, 8832
2, 355440, Pitch_bend_c, 1, 8832
2, 357120, Pitch_bend_c, 1, 8832
2, 357120, Pitch_bend_c, 1, 8192
2, 357120, Note_off_c, 1, 64, 95
2, 357120, Note_on_c, 0, 59, 95
2, 357600, Note_off_c, 0, 59, 95
2, 357600, Note_on_c, 0, 61, 70
2, 358080, Note_off_c, 0, 61, 70
2, 358080, Note_on_c, 0, 64, 95
2, 358560, Note_off_c, 0, 64, 95
2, 358560, Note_on_c, 0, 61, 95
2, 360480, Note_off_c, 0, 61, 95
2, 364800, Pitch_bend_c, 1, 8192
2, 364800, Note_on_c, 1, 66, 95
2, 364821, Pitch_bend_c, 1, 8320
2, 364842, Pitch_bend_c, 1, 8448
2, 364863, Pitch_bend_c, 1, 8576
2, 364884, Pitch_bend_c, 1, 8704
2, 364905, Pitch_bend_c, 1, 8832
2, 364926, Pitch_bend_c, 1, 8960
2, 364947, Pitch_bend_c, 1, 9088
2, 364968, Pitch_bend_c, 1, 9216
2, 364989, Pitch_bend_c, 1, 9344
2, 365010, Pitch_bend_c, 1, 9472
2, 365031, Pitch_bend_c, 1, 9600
2, 365040, Pitch_bend_c, 1, 9600
2, 365280, Pitch_bend_c, 1, 9600
2, 365280, Pitch_bend_c, 1, 8192
2, 365280, Note_off_c, 1, 66, 95
2, 365280, Pitch_bend_c, 1, 8192
2, 365280, Note_on_c, 1, 66, 95
2, 365301, Pitch_bend_c, 1, 8320
2, 365322, Pitch_bend_c, 1, 8448
2, 365343, Pitch_bend_c, 1, 8576
2, 365364, Pitch_bend_c, 1, 8704
2, 365385, Pitch_bend_c, 1, 8832
2, 365406, Pitch_bend_c, 1, 8960
2, 365427, Pitch_bend_c, 1, 9088
2, 365448, Pitch_bend_c, 1, 9216
2, 365469, Pitch_bend_c, 1, 9344
2, 365490, Pitch_bend_c, 1, 9472
2, 365511, Pitch_bend_c, 1, 9600
2, 365520, Pitch_bend_c, 1, 9600
2, 365760, Pitch_bend_c, 1, 9600
2, 365760, Pitch_bend_c, 1, 8192
2, 365760, Note_off_c, 1, 66, 95
2, 365760, Pitch_bend_c, 1, 8192
2, 365760, Note_on_c, 1, 66, 95
2, 365781, Pitch_bend_c, 1, 8320
2, 365802, Pitch_bend_c, 1, 8448
2, 365823, Pitch_bend_c, 1, 8576
2, 365844, Pitch_bend_c, 1, 8704
2, 365865, Pitch_bend_c, 1, 8832
2, 365886, Pitch_bend_c, 1, 8960
2, 365907, Pitch_bend_c, 1, 9088
2, 365928, Pitch_bend_c, 1, 9216
2, 365949, Pitch_bend_c, 1, 9344
2, 365970, Pitch_bend_c, 1, 9472
2, 365991, Pitch_bend_c, 1, 9600
2, 366000, Pitch_bend_c, 1, 9600
2, 366240, Pitch_bend_c, 1, 9600
2, 366240, Pitch_bend_c, 1, 8192
2, 366240, Note_off_c, 1, 66, 95
2, 366240, Pitch_bend_c, 1, 8192
2, 366240, Note_on_c, 1, 66, 95
2, 366288, Pitch_bend_c, 1, 8320
2, 366336, Pitch_bend_c, 1, 8448
2, 366384, Pitch_bend_c, 1, 8576
2, 366432, Pitch_bend_c, 1, 8704
2, 366480, Pitch_bend_c, 1, 8832
2, 366480, Pitch_bend_c, 1, 8832
2, 366720, Pitch_bend_c, 1, 8832
2, 366720, Pitch_bend_c, 1, 8192
2, 366720, Note_off_c, 1, 66, 95
2, 366720, Note_on_c, 0, 66, 95
2, 367200, Note_off_c, 0, 66, 95
2, 367200, Note_on_c, 0, 64, 95
2, 367680, Note_off_c, 0, 64, 95
2, 367680, Note_on_c, 0, 61, 95
2, 368160, Note_off_c, 0, 61, 95
2, 368160, Note_on_c, 0, 61, 95
2, 368640, Note_off_c, 0, 61, 95
2, 368640, Note_on_c, 0, 61, 95
2, 372480, Note_off_c, 0, 61, 95
2, 386400, Note_on_c, 0, 59, 95
2, 386880, Note_off_c, 0, 59, 95
2, 386880, Note_on_c, 0, 61, 95
2, 387360, Note_off_c, 0, 61, 95
2, 387360, Note_on_c, 0, 64, 95
2, 387840, Note_off_c, 0, 64, 95
2, 387840, Pitch_bend_c, 1, 8192
2, 387840, Note_on_c, 1, 66, 95
2, 387861, Pitch_bend_c, 1, 8320
2, 387882, Pitch_bend_c, 1, 8448
2, 387903, Pitch_bend_c, 1, 8576
2, 387924, Pitch_bend_c, 1, 8704
2, 387945, Pitch_bend_c, 1, 8832
2, 387966, Pitch_bend_c, 1, 8960
2, 387987, Pitch_bend_c, 1, 9088
2, 388008, Pitch_bend_c, 1, 9216
2, 388029, Pitch_bend_c, 1, 9344
2, 388050, Pitch_bend_c, 1, 9472
2, 388071, Pitch_bend_c, 1, 9600
2, 388080, Pitch_bend_c, 1, 9600
2, 388320, Pitch_bend_c, 1, 9600
2, 388320, Pitch_bend_c, 1, 8192
2, 388320, Note_off_c, 1, 66, 95
2, 388800, Note_on_c, 0, 64, 95
2, 389760, Note_off_c, 0, 64, 95
2, 389760, Note_on_c, 0, 61, 95
2, 390240, Note_off_c, 0, 61, 95
2, 390240, Note_on_c, 0, 59, 95
2, 390720, Note_off_c, 0, 59, 95
2, 390720, Note_on_c, 0, 61, 95
2, 391200, Note_off_c, 0, 61, 95
2, 391200, Note_on_c, 0, 61, 95
2, 395520, Note_off_c, 0, 61, 95
2, 401760, Note_on_c, 0, 61, 95
2, 402240, Note_off_c, 0, 61, 95
2, 402240, Note_on_c, 0, 64, 95
2, 402720, Note_off_c, 0, 64, 95
2, 402720, Pitch_bend_c, 1, 8192
2, 402720, Note_on_c, 1, 66, 95
2, 402774, Pitch_bend_c, 1, 8320
2, 402828, Pitch_bend_c, 1, 8448
2, 402882, Pitch_bend_c, 1, 8576
2, 402936, Pitch_bend_c, 1, 8704
2, 402990, Pitch_bend_c, 1, 8832
2, 403044, Pitch_bend_c, 1, 8960
2, 403098, Pitch_bend_c, 1, 9088
2, 403152, Pitch_bend_c, 1, 9216
2, 403206, Pitch_bend_c, 1, 9344
2, 403260, Pitch_bend_c, 1, 9472
2, 403314, Pitch_bend_c, 1, 9600
2, 403320, Pitch_bend_c, 1, 9600
2, 403920, Pitch_bend_c, 1, 9600
2, 403920, Pitch_bend_c, 1, 8192
2, 403920, Note_off_c, 1, 66, 95
2, 403920, Note_on_c, 0, 59, 95
2, 404160, Note_off_c, 0, 59, 95
2, 404160, Note_on_c, 0, 59, 95
2, 405120, Note_off_c, 0, 59, 95
2, 407520, Note_on_c, 0, 61, 95
2, 408000, Note_off_c, 0, 61, 95
2, 408000, Note_on_c, 0, 64, 95
2, 408480, Note_off_c, 0, 64, 95
2, 408480, Note_on_c, 0, 61, 95
2, 408960, Note_off_c, 0, 61, 95
2, 408960, Pitch_bend_c, 1, 8192
2, 408960, Note_on_c, 1, 66, 95
2, 408981, Pitch_bend_c, 1, 8320
2, 409002, Pitch_bend_c, 1, 8448
2, 409023, Pitch_bend_c, 1, 8576
2, 409044, Pitch_bend_c, 1, 8704
2, 409065, Pitch_bend_c, 1, 8832
2, 409086, Pitch_bend_c, 1, 8960
2, 409107, Pitch_bend_c, 1, 9088
2, 409128, Pitch_bend_c, 1, 9216
2, 409149, Pitch_bend_c, 1, 9344
2, 409170, Pitch_bend_c, 1, 9472
2, 409191, Pitch_bend_c, 1, 9600
2, 409200, Pitch_bend_c, 1, 9600
2, 409440, Pitch_bend_c, 1, 9600
2, 409440, Pitch_bend_c, 1, 8192
2, 409440, Note_off_c, 1, 66, 95
2, 409440, Note_on_c, 0, 64, 95
2, 409920, Note_off_c, 0, 64, 95
2, 409920, Note_on_c, 0, 61, 95
2, 410160, Note_off_c, 0, 61, 95
2, 410160, Note_on_c, 0, 59, 70
2, 410400, Note_off_c, 0, 59, 70
2, 410400, Note_on_c, 0, 56, 95
2, 410880, Note_off_c, 0, 56, 95
2, 411840, Pitch_bend_c, 1, 8192
2, 411840, Note_on_c, 1, 66, 95
2, 411861, Pitch_bend_c, 1, 8320
2, 411882, Pitch_bend_c, 1, 8448
2, 411903, Pitch_bend_c, 1, 8576
2, 411924, Pitch_bend_c, 1, 8704
2, 411945, Pitch_bend_c, 1, 8832
2, 411966, Pitch_bend_c, 1, 8960
2, 411987, Pitch_bend_c, 1, 9088
2, 412008, Pitch_bend_c, 1, 9216
2, 412029, Pitch_bend_c, 1, 9344
2, 412050, Pitch_bend_c, 1, 9472
2, 412071, Pitch_bend_c, 1, 9600
2, 412080, Pitch_bend_c, 1, 9600
2, 412320, Pitch_bend_c, 1, 9600
2, 412320, Pitch_bend_c, 1, 8192
2, 412320, Note_off_c, 1, 66, 95
2, 412320, Pitch_bend_c, 1, 8192
2, 412320, Note_on_c, 1, 66, 95
2, 412341, Pitch_bend_c, 1, 8320
2, 412362, Pitch_bend_c, 1, 8448
2, 412383, Pitch_bend_c, 1, 8576
2, 412404, Pitch_bend_c, 1, 8704
2, 412425, Pitch_bend_c, 1, 8832
2, 412446, Pitch_bend_c, 1, 8960
2, 412467, Pitch_bend_c, 1, 9088
2, 412488, Pitch_bend_c, 1, 9216
2, 412509, Pitch_bend_c, 1, 9344
2, 412530, Pitch_bend_c, 1, 9472
2, 412551, Pitch_bend_c, 1, 9600
2, 412560, Pitch_bend_c, 1, 9600
2, 412800, Pitch_bend_c, 1, 9600
2, 412800, Pitch_bend_c, 1, 8192
2, 412800, Note_off_c, 1, 66, 95
2, 412800, Note_on_c, 0, 66, 95
2, 413280, Note_off_c, 0, 66, 95
2, 413280, Note_on_c, 0, 64, 95
2, 413760, Note_off_c, 0, 64, 95
2, 413760, Note_on_c, 0, 61, 95
2, 414240, Note_off_c, 0, 61, 95
2, 414240, Note_on_c, 0, 61, 95
2, 416640, Note_off_c, 0, 61, 95
2, 418080, Pitch_bend_c, 1, 8192
2, 418080, Note_on_c, 1, 75, 95
2, 418128, Pitch_bend_c, 1, 8320
2, 418176, Pitch_bend_c, 1, 8448
2, 418224, Pitch_bend_c, 1, 8576
2, 418272, Pitch_bend_c, 1, 8704
2, 418320, Pitch_bend_c, 1, 8832
2, 418320, Pitch_bend_c, 1, 8832
2, 418560, Pitch_bend_c, 1, 8832
2, 418608, Pitch_bend_c, 1, 8704
2, 418656, Pitch_bend_c, 1, 8576
2, 418704, Pitch_bend_c, 1, 8448
2, 418752, Pitch_bend_c, 1, 8320
2, 418800, Pitch_bend_c, 1, 8192
2, 418800, Pitch_bend_c, 1, 8192
2, 419040, Pitch_bend_c, 1, 8192
2, 419040, Pitch_bend_c, 1, 8192
2, 419040, Note_off_c, 1, 75, 95
2, 419040, Note_on_c, 0, 73, 95
2, 419520, Note_off_c, 0, 73, 95
2, 421440, Note_on_c, 0, 64, 95
2, 421920, Note_off_c, 0, 64, 95
2, 421920, Note_on_c, 0, 61, 95
2, 426240, Note_off_c, 0, 61, 95
2, 426240, Pitch_bend_c, 1, 8192
2, 426240, Note_on_c, 1, 59, 95
2, 426261, Pitch_bend_c, 1, 8320
2, 426282, Pitch_bend_c, 1, 8448
2, 426303, Pitch_bend_c, 1, 8576
2, 426324, Pitch_bend_c, 1, 8704
2, 426345, Pitch_bend_c, 1, 8832
2, 426366, Pitch_bend_c, 1, 8960
2, 426387, Pitch_bend_c, 1, 9088
2, 426408, Pitch_bend_c, 1, 9216
2, 426429, Pitch_bend_c, 1, 9344
2, 426450, Pitch_bend_c, 1, 9472
2, 426471, Pitch_bend_c, 1, 9600
2, 426480, Pitch_bend_c, 1, 9600
2, 426720, Pitch_bend_c, 1, 9600
2, 426720, Pitch_bend_c, 1, 8192
2, 426720, Note_off_c, 1, 59, 95
2, 426720, Note_on_c, 0, 57, 95
2, 427200, Note_off_c, 0, 57, 95
2, 427200, Pitch_bend_c, 1, 8192
2, 427200, Note_on_c, 1, 59, 95
2, 427221, Pitch_bend_c, 1, 8320
2, 427242, Pitch_bend_c, 1, 8448
2, 427263, Pitch_bend_c, 1, 8576
2, 427284, Pitch_bend_c, 1, 8704
2, 427305, Pitch_bend_c, 1, 8832
2, 427326, Pitch_bend_c, 1, 8960
2, 427347, Pitch_bend_c, 1, 9088
2, 427368, Pitch_bend_c, 1, 9216
2, 427389, Pitch_bend_c, 1, 9344
2, 427410, Pitch_bend_c, 1, 9472
2, 427431, Pitch_bend_c, 1, 9600
2, 427440, Pitch_bend_c, 1, 9600
2, 427680, Pitch_bend_c, 1, 9600
2, 427680, Pitch_bend_c, 1, 8192
2, 427680, Note_off_c, 1, 59, 95
2, 427680, Note_on_c, 0, 57, 95
2, 428160, Note_off_c, 0, 57, 95
2, 428160, Pitch_bend_c, 1, 8192
2, 428160, Note_on_c, 1, 59, 95
2, 428181, Pitch_bend_c, 1, 8320
2, 428202, Pitch_bend_c, 1, 8448
2, 428223, Pitch_bend_c, 1, 8576
2, 428244, Pitch_bend_c, 1, 8704
2, 428265, Pitch_bend_c, 1, 8832
2, 428286, Pitch_bend_c, 1, 8960
2, 428307, Pitch_bend_c, 1, 9088
2, 428328, Pitch_bend_c, 1, 9216
2, 428349, Pitch_bend_c, 1, 9344
2, 428370, Pitch_bend_c, 1, 9472
2, 428391, Pitch_bend_c, 1, 9600
2, 428400, Pitch_bend_c, 1, 9600
2, 428640, Pitch_bend_c, 1, 9600
2, 428640, Pitch_bend_c, 1, 8192
2, 428640, Note_off_c, 1, 59, 95
2, 428640, Note_on_c, 0, 57, 95
2, 429120, Note_off_c, 0, 57, 95
2, 429120, Note_on_c, 0, 59, 95
2, 429600, Note_off_c, 0, 59, 95
2, 429600, Note_on_c, 0, 59, 95
2, 430080, Note_off_c, 0, 59, 95
2, 431040, Pitch_bend_c, 1, 8192
2, 431040, Note_on_c, 1, 66, 95
2, 431072, Pitch_bend_c, 1, 8320
2, 431104, Pitch_bend_c, 1, 8448
2, 431136, Pitch_bend_c, 1, 8576
2, 431168, Pitch_bend_c, 1, 8704
2, 431200, Pitch_bend_c, 1, 8832
2, 431232, Pitch_bend_c, 1, 8960
2, 431264, Pitch_bend_c, 1, 9088
2, 431296, Pitch_bend_c, 1, 9216
2, 431328, Pitch_bend_c, 1, 9344
2, 431360, Pitch_bend_c, 1, 9472
2, 431392, Pitch_bend_c, 1, 9600
2, 431400, Pitch_bend_c, 1, 9600
2, 431760, Pitch_bend_c, 1, 9600
2, 431760, Pitch_bend_c, 1, 8192
2, 431760, Note_off_c, 1, 66, 95
2, 431760, Note_on_c, 0, 61, 95
2, 432000, Note_off_c, 0, 61, 95
2, 432000, Note_on_c, 0, 61, 95
2, 432960, Note_off_c, 0, 61, 95
2, 432960, Note_on_c, 0, 61, 95
2, 433440, Note_off_c, 0, 61, 95
2, 433440, Note_on_c, 0, 61, 95
2, 433920, Note_off_c, 0, 61, 95
2, 433920, Pitch_bend_c, 1, 8192
2, 433920, Note_on_c, 1, 64, 95
2, 433968, Pitch_bend_c, 1, 8320
2, 434016, Pitch_bend_c, 1, 8448
2, 434064, Pitch_bend_c, 1, 8576
2, 434112, Pitch_bend_c, 1, 8704
2, 434160, Pitch_bend_c, 1, 8832
2, 434160, Pitch_bend_c, 1, 8832
2, 434400, Pitch_bend_c, 1, 8832
2, 434400, Pitch_bend_c, 1, 8192
2, 434400, Note_off_c, 1, 64, 95
2, 434400, Note_on_c, 0, 61, 95
2, 435840, Note_off_c, 0, 61, 95
2, 435840, Note_on_c, 0, 59, 95
2, 436320, Note_off_c, 0, 59, 95
2, 436320, Note_on_c, 0, 61, 95
2, 436800, Note_off_c, 0, 61, 95
2, 436800, Note_on_c, 0, 64, 95
2, 437280, Note_off_c, 0, 64, 95
2, 437280, Pitch_bend_c, 1, 8192
2, 437280, Note_on_c, 1, 66, 95
2, 437301, Pitch_bend_c, 1, 8320
2, 437322, Pitch_bend_c, 1, 8448
2, 437343, Pitch_bend_c, 1, 8576
2, 437364, Pitch_bend_c, 1, 8704
2, 437385, Pitch_bend_c, 1, 8832
2, 437406, Pitch_bend_c, 1, 8960
2, 437427, Pitch_bend_c, 1, 9088
2, 437448, Pitch_bend_c, 1, 9216
2, 437469, Pitch_bend_c, 1, 9344
2, 437490, Pitch_bend_c, 1, 9472
2, 437511, Pitch_bend_c, 1, 9600
2, 437520, Pitch_bend_c, 1, 9600
2, 437760, Pitch_bend_c, 1, 9600
2, 437760, Pitch_bend_c, 1, 8192
2, 437760, Note_off_c, 1, 66, 95
2, 438240, Pitch_bend_c, 1, 8192
2, 438240, Note_on_c, 1, 66, 95
2, 438261, Pitch_bend_c, 1, 8320
2, 438282, Pitch_bend_c, 1, 8448
2, 438303, Pitch_bend_c, 1, 8576
2, 438324, Pitch_bend_c, 1, 8704
2, 438345, Pitch_bend_c, 1, 8832
2, 438366, Pitch_bend_c, 1, 8960
2, 438387, Pitch_bend_c, 1, 9088
2, 438408, Pitch_bend_c, 1, 9216
2, 438429, Pitch_bend_c, 1, 9344
2, 438450, Pitch_bend_c, 1, 9472
2, 438471, Pitch_bend_c, 1, 9600
2, 438480, Pitch_bend_c, 1, 9600
2, 438720, Pitch_bend_c, 1, 9600
2, 438720, Pitch_bend_c, 1, 8192
2, 438720, Note_off_c, 1, 66, 95
2, 438720, Pitch_bend_c, 1, 8192
2, 438720, Note_on_c, 1, 66, 95
2, 438741, Pitch_bend_c, 1, 8320
2, 438762, Pitch_bend_c, 1, 8448
2, 438783, Pitch_bend_c, 1, 8576
2, 438804, Pitch_bend_c, 1, 8704
2, 438825, Pitch_bend_c, 1, 8832
2, 438846, Pitch_bend_c, 1, 8960
2, 438867, Pitch_bend_c, 1, 9088
2, 438888, Pitch_bend_c, 1, 9216
2, 438909, Pitch_bend_c, 1, 9344
2, 438930, Pitch_bend_c, 1, 9472
2, 438951, Pitch_bend_c, 1, 9600
2, 438960, Pitch_bend_c, 1, 9600
2, 439200, Pitch_bend_c, 1, 9600
2, 439200, Pitch_bend_c, 1, 8192
2, 439200, Note_off_c, 1, 66, 95
2, 439200, Pitch_bend_c, 1, 8192
2, 439200, Note_on_c, 1, 66, 95
2, 439221, Pitch_bend_c, 1, 8320
2, 439242, Pitch_bend_c, 1, 8448
2, 439263, Pitch_bend_c, 1, 8576
2, 439284, Pitch_bend_c, 1, 8704
2, 439305, Pitch_bend_c, 1, 8832
2, 439326, Pitch_bend_c, 1, 8960
2, 439347, Pitch_bend_c, 1, 9088
2, 439368, Pitch_bend_c, 1, 9216
2, 439389, Pitch_bend_c, 1, 9344
2, 439410, Pitch_bend_c, 1, 9472
2, 439431, Pitch_bend_c, 1, 9600
2, 439440, Pitch_bend_c, 1, 9600
2, 439680, Pitch_bend_c, 1, 9600
2, 439680, Pitch_bend_c, 1, 8192
2, 439680, Note_off_c, 1, 66, 95
2, 439680, Note_on_c, 0, 66, 95
2, 440160, Note_off_c, 0, 66, 95
2, 440160, Note_on_c, 0, 64, 95
2, 440640, Note_off_c, 0, 64, 95
2, 440640, Note_on_c, 0, 61, 95
2, 441600, Note_off_c, 0, 61, 95
2, 442080, Pitch_bend_c, 1, 8192
2, 442080, Note_on_c, 1, 66, 95
2, 442101, Pitch_bend_c, 1, 8320
2, 442122, Pitch_bend_c, 1, 8448
2, 442143, Pitch_bend_c, 1, 8576
2, 442164, Pitch_bend_c, 1, 8704
2, 442185, Pitch_bend_c, 1, 8832
2, 442206, Pitch_bend_c, 1, 8960
2, 442227, Pitch_bend_c, 1, 9088
2, 442248, Pitch_bend_c, 1, 9216
2, 442269, Pitch_bend_c, 1, 9344
2, 442290, Pitch_bend_c, 1, 9472
2, 442311, Pitch_bend_c, 1, 9600
2, 442320, Pitch_bend_c, 1, 9600
2, 442560, Pitch_bend_c, 1, 9600
2, 442560, Pitch_bend_c, 1, 8192
2, 442560, Note_off_c, 1, 66, 95
2, 443040, Pitch_bend_c, 1, 8192
2, 443040, Note_on_c, 1, 66, 95
2, 443061, Pitch_bend_c, 1, 8320
2, 443082, Pitch_bend_c, 1, 8448
2, 443103, Pitch_bend_c, 1, 8576
2, 443124, Pitch_bend_c, 1, 8704
2, 443145, Pitch_bend_c, 1, 8832
2, 443166, Pitch_bend_c, 1, 8960
2, 443187, Pitch_bend_c, 1, 9088
2, 443208, Pitch_bend_c, 1, 9216
2, 443229, Pitch_bend_c, 1, 9344
2, 443250, Pitch_bend_c, 1, 9472
2, 443271, Pitch_bend_c, 1, 9600
2, 443280, Pitch_bend_c, 1, 9600
2, 443520, Pitch_bend_c, 1, 9600
2, 443520, Pitch_bend_c, 1, 8192
2, 443520, Note_off_c, 1, 66, 95
2, 444000, Pitch_bend_c, 1, 8192
2, 444000, Note_on_c, 1, 66, 95
2, 444021, Pitch_bend_c, 1, 8320
2, 444042, Pitch_bend_c, 1, 8448
2, 444063, Pitch_bend_c, 1, 8576
2, 444084, Pitch_bend_c, 1, 8704
2, 444105, Pitch_bend_c, 1, 8832
2, 444126, Pitch_bend_c, 1, 8960
2, 444147, Pitch_bend_c, 1, 9088
2, 444168, Pitch_bend_c, 1, 9216
2, 444189, Pitch_bend_c, 1, 9344
2, 444210, Pitch_bend_c, 1, 9472
2, 444231, Pitch_bend_c, 1, 9600
2, 444240, Pitch_bend_c, 1, 9600
2, 444480, Pitch_bend_c, 1, 9600
2, 444480, Pitch_bend_c, 1, 8192
2, 444480, Note_off_c, 1, 66, 95
2, 444480, Pitch_bend_c, 1, 9600
2, 444480, Note_on_c, 1, 66, 95
2, 444960, Pitch_bend_c, 1, 9600
2, 444960, Pitch_bend_c, 1, 8192
2, 444960, Note_off_c, 1, 66, 95
2, 444960, Pitch_bend_c, 1, 9600
2, 444960, Note_on_c, 1, 66, 95
2, 445440, Pitch_bend_c, 1, 9600
2, 445440, Pitch_bend_c, 1, 8192
2, 445440, Note_off_c, 1, 66, 95
2, 445920, Pitch_bend_c, 1, 9600
2, 445920, Note_on_c, 1, 66, 95
2, 446400, Pitch_bend_c, 1, 9600
2, 446400, Pitch_bend_c, 1, 8192
2, 446400, Note_off_c, 1, 66, 95
2, 446400, Pitch_bend_c, 1, 9600
2, 446400, Note_on_c, 1, 66, 95
2, 446880, Pitch_bend_c, 1, 9600
2, 446880, Pitch_bend_c, 1, 8192
2, 446880, Note_off_c, 1, 66, 95
2, 446880, Pitch_bend_c, 1, 9600
2, 446880, Note_on_c, 1, 66, 95
2, 447120, Pitch_bend_c, 1, 9600
2, 447141, Pitch_bend_c, 1, 9472
2, 447162, Pitch_bend_c, 1, 9344
2, 447183, Pitch_bend_c, 1, 9216
2, 447204, Pitch_bend_c, 1, 9088
2, 447225, Pitch_bend_c, 1, 8960
2, 447246, Pitch_bend_c, 1, 8832
2, 447267, Pitch_bend_c, 1, 8704
2, 447288, Pitch_bend_c, 1, 8576
2, 447309, Pitch_bend_c, 1, 8448
2, 447330, Pitch_bend_c, 1, 8320
2, 447351, Pitch_bend_c, 1, 8192
2, 447360, Pitch_bend_c, 1, 8192
2, 447840, Pitch_bend_c, 1, 8192
2, 448320, Pitch_bend_c, 1, 8192
2, 448320, Pitch_bend_c, 1, 8192
2, 448320, Note_off_c, 1, 66, 95
2, 448320, Note_on_c, 0, 61, 95
2, 449760, Note_off_c, 0, 61, 95
2, 449760, Note_on_c, 0, 64, 95
2, 450240, Note_off_c, 0, 64, 95
2, 450240, Note_on_c, 0, 61, 95
2, 450720, Note_off_c, 0, 61, 95
2, 450720, Note_on_c, 0, 64, 95
2, 451200, Note_off_c, 0, 64, 95
2, 451200, Note_on_c, 0, 64, 95
2, 451680, Note_off_c, 0, 64, 95
2, 451680, Note_on_c, 0, 61, 95
2, 453120, Note_off_c, 0, 61, 95
2, 453600, Pitch_bend_c, 1, 8192
2, 453600, Note_on_c, 1, 66, 95
2, 453621, Pitch_bend_c, 1, 8320
2, 453642, Pitch_bend_c, 1, 8448
2, 453663, Pitch_bend_c, 1, 8576
2, 453684, Pitch_bend_c, 1, 8704
2, 453705, Pitch_bend_c, 1, 8832
2, 453726, Pitch_bend_c, 1, 8960
2, 453747, Pitch_bend_c, 1, 9088
2, 453768, Pitch_bend_c, 1, 9216
2, 453789, Pitch_bend_c, 1, 9344
2, 453810, Pitch_bend_c, 1, 9472
2, 453831, Pitch_bend_c, 1, 9600
2, 453840, Pitch_bend_c, 1, 9600
2, 454080, Pitch_bend_c, 1, 9600
2, 454080, Pitch_bend_c, 1, 8192
2, 454080, Note_off_c, 1, 66, 95
2, 454080, Pitch_bend_c, 1, 9600
2, 454080, Note_on_c, 1, 66, 95
2, 454560, Pitch_bend_c, 1, 9600
2, 454560, Pitch_bend_c, 1, 8192
2, 454560, Note_off_c, 1, 66, 95
2, 454560, Pitch_bend_c, 1, 9600
2, 454560, Note_on_c, 1, 66, 95
2, 455040, Pitch_bend_c, 1, 9600
2, 455040, Pitch_bend_c, 1, 8192
2, 455040, Note_off_c, 1, 66, 95
2, 455040, Note_on_c, 0, 66, 95
2, 455520, Note_off_c, 0, 66, 95
2, 455520, Note_on_c, 0, 64, 95
2, 456000, Note_off_c, 0, 64, 95
2, 456000, Note_on_c, 0, 61, 95
2, 456480, Note_off_c, 0, 61, 95
2, 456480, Pitch_bend_c, 1, 8192
2, 456480, Note_on_c, 1, 66, 95
2, 456523, Pitch_bend_c, 1, 8320
2, 456566, Pitch_bend_c, 1, 8448
2, 456609, Pitch_bend_c, 1, 8576
2, 456652, Pitch_bend_c, 1, 8704
2, 456695, Pitch_bend_c, 1, 8832
2, 456738, Pitch_bend_c, 1, 8960
2, 456781, Pitch_bend_c, 1, 9088
2, 456824, Pitch_bend_c, 1, 9216
2, 456867, Pitch_bend_c, 1, 9344
2, 456910, Pitch_bend_c, 1, 9472
2, 456953, Pitch_bend_c, 1, 9600
2, 456960, Pitch_bend_c, 1, 9600
2, 457440, Pitch_bend_c, 1, 9600
2, 457440, Pitch_bend_c, 1, 8192
2, 457440, Note_off_c, 1, 66, 95
2, 457440, Pitch_bend_c, 1, 8192
2, 457440, Note_on_c, 1, 66, 95
2, 457461, Pitch_bend_c, 1, 8320
2, 457482, Pitch_bend_c, 1, 8448
2, 457503, Pitch_bend_c, 1, 8576
2, 457524, Pitch_bend_c, 1, 8704
2, 457545, Pitch_bend_c, 1, 8832
2, 457566, Pitch_bend_c, 1, 8960
2, 457587, Pitch_bend_c, 1, 9088
2, 457608, Pitch_bend_c, 1, 9216
2, 457629, Pitch_bend_c, 1, 9344
2, 457650, Pitch_bend_c, 1, 9472
2, 457671, Pitch_bend_c, 1, 9600
2, 457680, Pitch_bend_c, 1, 9600
2, 457920, Pitch_bend_c, 1, 9600
2, 457920, Pitch_bend_c, 1, 8192
2, 457920, Note_off_c, 1, 66, 95
2, 457920, Pitch_bend_c, 1, 9600
2, 457920, Note_on_c, 1, 66, 95
2, 458400, Pitch_bend_c, 1, 9600
2, 458400, Pitch_bend_c, 1, 8192
2, 458400, Note_off_c, 1, 66, 95
2, 458400, Pitch_bend_c, 1, 8192
2, 458400, Note_on_c, 1, 66, 95
2, 458448, Pitch_bend_c, 1, 8320
2, 458496, Pitch_bend_c, 1, 8448
2, 458544, Pitch_bend_c, 1, 8576
2, 458592, Pitch_bend_c, 1, 8704
2, 458640, Pitch_bend_c, 1, 8832
2, 458640, Pitch_bend_c, 1, 8832
2, 458880, Pitch_bend_c, 1, 8832
2, 458880, Pitch_bend_c, 1, 8192
2, 458880, Note_off_c, 1, 66, 95
2, 458880, Note_on_c, 0, 66, 95
2, 459360, Note_off_c, 0, 66, 95
2, 459360, Note_on_c, 0, 64, 95
2, 459840, Note_off_c, 0, 64, 95
2, 459840, Note_on_c, 0, 61, 95
2, 460320, Note_off_c, 0, 61, 95
2, 460320, Note_on_c, 0, 61, 95
2, 462720, Note_off_c, 0, 61, 95
2, 462720, Note_on_c, 0, 59, 95
2, 463200, Note_off_c, 0, 59, 95
2, 463200, Note_on_c, 0, 61, 95
2, 463680, Note_off_c, 0, 61, 95
2, 463680, Note_on_c, 0, 64, 95
2, 464160, Note_off_c, 0, 64, 95
2, 464160, Note_on_c, 0, 59, 95
2, 464640, Note_off_c, 0, 59, 95
2, 464640, Note_on_c, 0, 61, 70
2, 465120, Note_off_c, 0, 61, 70
2, 465120, Note_on_c, 0, 64, 95
2, 465600, Note_off_c, 0, 64, 95
2, 465600, Note_on_c, 0, 61, 95
2, 466080, Note_off_c, 0, 61, 95
2, 466080, Note_on_c, 0, 61, 95
2, 466560, Note_off_c, 0, 61, 95
2, 466560, Note_on_c, 0, 64, 95
2, 467040, Note_off_c, 0, 64, 95
2, 467040, Note_on_c, 0, 61, 95
2, 467520, Note_off_c, 0, 61, 95
2, 467520, Note_on_c, 0, 64, 95
2, 468000, Note_off_c, 0, 64, 95
2, 468000, Pitch_bend_c, 1, 8192
2, 468000, Note_on_c, 1, 66, 95
2, 468021, Pitch_bend_c, 1, 8320
2, 468042, Pitch_bend_c, 1, 8448
2, 468063, Pitch_bend_c, 1, 8576
2, 468084, Pitch_bend_c, 1, 8704
2, 468105, Pitch_bend_c, 1, 8832
2, 468126, Pitch_bend_c, 1, 8960
2, 468147, Pitch_bend_c, 1, 9088
2, 468168, Pitch_bend_c, 1, 9216
2, 468189, Pitch_bend_c, 1, 9344
2, 468210, Pitch_bend_c, 1, 9472
2, 468231, Pitch_bend_c, 1, 9600
2, 468240, Pitch_bend_c, 1, 9600
2, 468960, Pitch_bend_c, 1, 9600
2, 468960, Pitch_bend_c, 1, 8192
2, 468960, Note_off_c, 1, 66, 95
2, 468960, Pitch_bend_c, 1, 9600
2, 468960, Note_on_c, 1, 66, 95
2, 469200, Pitch_bend_c, 1, 9600
2, 469221, Pitch_bend_c, 1, 9472
2, 469242, Pitch_bend_c, 1, 9344
2, 469263, Pitch_bend_c, 1, 9216
2, 469284, Pitch_bend_c, 1, 9088
2, 469305, Pitch_bend_c, 1, 8960
2, 469326, Pitch_bend_c, 1, 8832
2, 469347, Pitch_bend_c, 1, 8704
2, 469368, Pitch_bend_c, 1, 8576
2, 469389, Pitch_bend_c, 1, 8448
2, 469410, Pitch_bend_c, 1, 8320
2, 469431, Pitch_bend_c, 1, 8192
2, 469440, Pitch_bend_c, 1, 8192
2, 469920, Pitch_bend_c, 1, 8192
2, 470400, Pitch_bend_c, 1, 8192
2, 470400, Pitch_bend_c, 1, 8192
2, 470400, Note_off_c, 1, 66, 95
2, 470400, Note_on_c, 0, 64, 95
2, 470880, Note_off_c, 0, 64, 95
2, 470880, Note_on_c, 0, 61, 95
2, 471840, Note_off_c, 0, 61, 95
2, 471840, Note_on_c, 0, 59, 95
2, 472320, Note_off_c, 0, 59, 95
2, 472800, Pitch_bend_c, 1, 8192
2, 472800, Note_on_c, 1, 71, 95
2, 472821, Pitch_bend_c, 1, 8320
2, 472842, Pitch_bend_c, 1, 8448
2, 472863, Pitch_bend_c, 1, 8576
2, 472884, Pitch_bend_c, 1, 8704
2, 472905, Pitch_bend_c, 1, 8832
2, 472926, Pitch_bend_c, 1, 8960
2, 472947, Pitch_bend_c, 1, 9088
2, 472968, Pitch_bend_c, 1, 9216
2, 472989, Pitch_bend_c, 1, 9344
2, 473010, Pitch_bend_c, 1, 9472
2, 473031, Pitch_bend_c, 1, 9600
2, 473040, Pitch_bend_c, 1, 9600
2, 473280, Pitch_bend_c, 1, 9600
2, 473280, Pitch_bend_c, 1, 8192
2, 473280, Note_off_c, 1, 71, 95
2, 473280, Pitch_bend_c, 1, 9600
2, 473280, Note_on_c, 1, 71, 95
2, 473760, Pitch_bend_c, 1, 9600
2, 473760, Pitch_bend_c, 1, 8192
2, 473760, Note_off_c, 1, 71, 95
2, 473760, Pitch_bend_c, 1, 9600
2, 473760, Note_on_c, 1, 71, 95
2, 474240, Pitch_bend_c, 1, 9600
2, 474240, Pitch_bend_c, 1, 8192
2, 474240, Note_off_c, 1, 71, 95
2, 474240, Pitch_bend_c, 1, 9600
2, 474240, Note_on_c, 1, 71, 95
2, 474720, Pitch_bend_c, 1, 9600
2, 474720, Pitch_bend_c, 1, 8192
2, 474720, Note_off_c, 1, 71, 95
2, 474720, Pitch_bend_c, 1, 9600
2, 474720, Note_on_c, 1, 71, 95
2, 475200, Pitch_bend_c, 1, 9600
2, 475200, Pitch_bend_c, 1, 8192
2, 475200, Note_off_c, 1, 71, 95
2, 475200, Note_on_c, 0, 71, 95
2, 475680, Note_off_c, 0, 71, 95
2, 475680, Pitch_bend_c, 1, 8192
2, 475680, Note_on_c, 1, 71, 95
2, 475701, Pitch_bend_c, 1, 8320
2, 475722, Pitch_bend_c, 1, 8448
2, 475743, Pitch_bend_c, 1, 8576
2, 475764, Pitch_bend_c, 1, 8704
2, 475785, Pitch_bend_c, 1, 8832
2, 475806, Pitch_bend_c, 1, 8960
2, 475827, Pitch_bend_c, 1, 9088
2, 475848, Pitch_bend_c, 1, 9216
2, 475869, Pitch_bend_c, 1, 9344
2, 475890, Pitch_bend_c, 1, 9472
2, 475911, Pitch_bend_c, 1, 9600
2, 475920, Pitch_bend_c, 1, 9600
2, 476160, Pitch_bend_c, 1, 9600
2, 476160, Pitch_bend_c, 1, 8192
2, 476160, Note_off_c, 1, 71, 95
2, 476160, Pitch_bend_c, 1, 9600
2, 476160, Note_on_c, 1, 71, 95
2, 476640, Pitch_bend_c, 1, 9600
2, 476640, Pitch_bend_c, 1, 8192
2, 476640, Note_off_c, 1, 71, 95
2, 476640, Note_on_c, 0, 66, 95
2, 477120, Note_off_c, 0, 66, 95
2, 477120, Note_on_c, 0, 64, 95
2, 477600, Note_off_c, 0, 64, 95
2, 477600, Note_on_c, 0, 61, 95
2, 480000, Note_off_c, 0, 61, 95
2, 480000, Note_on_c, 0, 64, 95
2, 480480, Note_off_c, 0, 64, 95
2, 480480, Note_on_c, 0, 64, 95
2, 481440, Note_off_c, 0, 64, 95
2, 481440, Note_on_c, 0, 66, 95
2, 481680, Note_off_c, 0, 66, 95
2, 481680, Note_on_c, 0, 64, 70
2, 481920, Note_off_c, 0, 64, 70
2, 481920, Note_on_c, 0, 61, 95
2, 484320, Note_off_c, 0, 61, 95
2, 484320, Note_on_c, 0, 59, 95
2, 484560, Note_off_c, 0, 59, 95
2, 484560, Note_on_c, 0, 61, 70
2, 484800, Note_off_c, 0, 61, 70
2, 484800, Note_on_c, 0, 64, 95
2, 485280, Note_off_c, 0, 64, 95
2, 485280, Note_on_c, 0, 61, 95
2, 485760, Note_off_c, 0, 61, 95
2, 485760, Note_on_c, 0, 61, 95
2, 487680, Note_off_c, 0, 61, 95
2, 487680, Note_on_c, 0, 59, 95
2, 488160, Note_off_c, 0, 59, 95
2, 488160, Note_on_c, 0, 61, 95
2, 488640, Note_off_c, 0, 61, 95
2, 488640, Pitch_bend_c, 1, 8192
2, 488640, Note_on_c, 1, 64, 95
2, 488688, Pitch_bend_c, 1, 8320
2, 488736, Pitch_bend_c, 1, 8448
2, 488784, Pitch_bend_c, 1, 8576
2, 488832, Pitch_bend_c, 1, 8704
2, 488880, Pitch_bend_c, 1, 8832
2, 488880, Pitch_bend_c, 1, 8832
2, 489120, Pitch_bend_c, 1, 8832
2, 489120, Pitch_bend_c, 1, 8192
2, 489120, Note_off_c, 1, 64, 95
2, 489120, Note_on_c, 0, 61, 95
2, 489600, Note_off_c, 0, 61, 95
2, 489600, Note_on_c, 0, 59, 95
2, 490080, Note_off_c, 0, 59, 95
2, 490080, Note_on_c, 0, 61, 95
2, 490560, Note_off_c, 0, 61, 95
2, 490560, Pitch_bend_c, 1, 8192
2, 490560, Note_on_c, 1, 64, 95
2, 490608, Pitch_bend_c, 1, 8320
2, 490656, Pitch_bend_c, 1, 8448
2, 490704, Pitch_bend_c, 1, 8576
2, 490752, Pitch_bend_c, 1, 8704
2, 490800, Pitch_bend_c, 1, 8832
2, 490800, Pitch_bend_c, 1, 8832
2, 491040, Pitch_bend_c, 1, 8832
2, 491040, Pitch_bend_c, 1, 8192
2, 491040, Note_off_c, 1, 64, 95
2, 491040, Note_on_c, 0, 61, 95
2, 491520, Note_off_c, 0, 61, 95
2, 493440, Note_on_c, 0, 59, 95
2, 493920, Note_off_c, 0, 59, 95
2, 493920, Note_on_c, 0, 61, 95
2, 494400, Note_off_c, 0, 61, 95
2, 494400, Note_on_c, 0, 64, 95
2, 494880, Note_off_c, 0, 64, 95
2, 494880, Note_on_c, 0, 59, 95
2, 495360, Note_off_c, 0, 59, 95
2, 495360, Note_on_c, 0, 61, 70
2, 495840, Note_off_c, 0, 61, 70
2, 495840, Note_on_c, 0, 64, 95
2, 496320, Note_off_c, 0, 64, 95
2, 496320, Note_on_c, 0, 61, 95
2, 496800, Note_off_c, 0, 61, 95
2, 496800, Note_on_c, 0, 61, 95
2, 497280, Note_off_c, 0, 61, 95
2, 497280, Note_on_c, 0, 64, 95
2, 497760, Note_off_c, 0, 64, 95
2, 497760, Note_on_c, 0, 61, 95
2, 498240, Note_off_c, 0, 61, 95
2, 498240, Note_on_c, 0, 64, 95
2, 498720, Note_off_c, 0, 64, 95
2, 498720, Pitch_bend_c, 1, 8192
2, 498720, Note_on_c, 1, 66, 95
2, 498741, Pitch_bend_c, 1, 8320
2, 498762, Pitch_bend_c, 1, 8448
2, 498783, Pitch_bend_c, 1, 8576
2, 498804, Pitch_bend_c, 1, 8704
2, 498825, Pitch_bend_c, 1, 8832
2, 498846, Pitch_bend_c, 1, 8960
2, 498867, Pitch_bend_c, 1, 9088
2, 498888, Pitch_bend_c, 1, 9216
2, 498909, Pitch_bend_c, 1, 9344
2, 498930, Pitch_bend_c, 1, 9472
2, 498951, Pitch_bend_c, 1, 9600
2, 498960, Pitch_bend_c, 1, 9600
2, 499680, Pitch_bend_c, 1, 9600
2, 499680, Pitch_bend_c, 1, 8192
2, 499680, Note_off_c, 1, 66, 95
2, 499680, Pitch_bend_c, 1, 9600
2, 499680, Note_on_c, 1, 66, 95
2, 499920, Pitch_bend_c, 1, 9600
2, 499941, Pitch_bend_c, 1, 9472
2, 499962, Pitch_bend_c, 1, 9344
2, 499983, Pitch_bend_c, 1, 9216
2, 500004, Pitch_bend_c, 1, 9088
2, 500025, Pitch_bend_c, 1, 8960
2, 500046, Pitch_bend_c, 1, 8832
2, 500067, Pitch_bend_c, 1, 8704
2, 500088, Pitch_bend_c, 1, 8576
2, 500109, Pitch_bend_c, 1, 8448
2, 500130, Pitch_bend_c, 1, 8320
2, 500151, Pitch_bend_c, 1, 8192
2, 500160, Pitch_bend_c, 1, 8192
2, 500640, Pitch_bend_c, 1, 8192
2, 501120, Pitch_bend_c, 1, 8192
2, 501120, Pitch_bend_c, 1, 8192
2, 501120, Note_off_c, 1, 66, 95
2, 501120, Note_on_c, 0, 64, 95
2, 501600, Note_off_c, 0, 64, 95
2, 501600, Note_on_c, 0, 61, 95
2, 502560, Note_off_c, 0, 61, 95
2, 502560, Note_on_c, 0, 59, 95
2, 503040, Note_off_c, 0, 59, 95
2, 503520, Pitch_bend_c, 1, 8192
2, 503520, Note_on_c, 1, 71, 95
2, 503541, Pitch_bend_c, 1, 8320
2, 503562, Pitch_bend_c, 1, 8448
2, 503583, Pitch_bend_c, 1, 8576
2, 503604, Pitch_bend_c, 1, 8704
2, 503625, Pitch_bend_c, 1, 8832
2, 503646, Pitch_bend_c, 1, 8960
2, 503667, Pitch_bend_c, 1, 9088
2, 503688, Pitch_bend_c, 1, 9216
2, 503709, Pitch_bend_c, 1, 9344
2, 503730, Pitch_bend_c, 1, 9472
2, 503751, Pitch_bend_c, 1, 9600
2, 503760, Pitch_bend_c, 1, 9600
2, 504000, Pitch_bend_c, 1, 9600
2, 504000, Pitch_bend_c, 1, 8192
2, 504000, Note_off_c, 1, 71, 95
2, 504000, Pitch_bend_c, 1, 9600
2, 504000, Note_on_c, 1, 71, 95
2, 504480, Pitch_bend_c, 1, 9600
2, 504480, Pitch_bend_c, 1, 8192
2, 504480, Note_off_c, 1, 71, 95
2, 504480, Pitch_bend_c, 1, 9600
2, 504480, Note_on_c, 1, 71, 95
2, 504960, Pitch_bend_c, 1, 9600
2, 504960, Pitch_bend_c, 1, 8192
2, 504960, Note_off_c, 1, 71, 95
2, 504960, Pitch_bend_c, 1, 9600
2, 504960, Note_on_c, 1, 71, 95
2, 505440, Pitch_bend_c, 1, 9600
2, 505440, Pitch_bend_c, 1, 8192
2, 505440, Note_off_c, 1, 71, 95
2, 505440, Pitch_bend_c, 1, 9600
2, 505440, Note_on_c, 1, 71, 95
2, 505920, Pitch_bend_c, 1, 9600
2, 505920, Pitch_bend_c, 1, 8192
2, 505920, Note_off_c, 1, 71, 95
2, 505920, Note_on_c, 0, 71, 95
2, 506400, Note_off_c, 0, 71, 95
2, 506400, Pitch_bend_c, 1, 8192
2, 506400, Note_on_c, 1, 71, 95
2, 506421, Pitch_bend_c, 1, 8320
2, 506442, Pitch_bend_c, 1, 8448
2, 506463, Pitch_bend_c, 1, 8576
2, 506484, Pitch_bend_c, 1, 8704
2, 506505, Pitch_bend_c, 1, 8832
2, 506526, Pitch_bend_c, 1, 8960
2, 506547, Pitch_bend_c, 1, 9088
2, 506568, Pitch_bend_c, 1, 9216
2, 506589, Pitch_bend_c, 1, 9344
2, 506610, Pitch_bend_c, 1, 9472
2, 506631, Pitch_bend_c, 1, 9600
2, 506640, Pitch_bend_c, 1, 9600
2, 506880, Pitch_bend_c, 1, 9600
2, 506880, Pitch_bend_c, 1, 8192
2, 506880, Note_off_c, 1, 71, 95
2, 506880, Pitch_bend_c, 1, 9600
2, 506880, Note_on_c, 1, 71, 95
2, 507360, Pitch_bend_c, 1, 9600
2, 507360, Pitch_bend_c, 1, 8192
2, 507360, Note_off_c, 1, 71, 95
2, 507360, Note_on_c, 0, 66, 95
2, 507840, Note_off_c, 0, 66, 95
2, 507840, Note_on_c, 0, 64, 95
2, 508320, Note_off_c, 0, 64, 95
2, 508320, Note_on_c, 0, 61, 95
2, 510720, Note_off_c, 0, 61, 95
2, 510720, Note_on_c, 0, 64, 95
2, 511200, Note_off_c, 0, 64, 95
2, 511200, Note_on_c, 0, 64, 95
2, 512160, Note_off_c, 0, 64, 95
2, 512160, Note_on_c, 0, 66, 95
2, 512400, Note_off_c, 0, 66, 95
2, 512400, Note_on_c, 0, 64, 70
2, 512640, Note_off_c, 0, 64, 70
2, 512640, Note_on_c, 0, 61, 95
2, 515040, Note_off_c, 0, 61, 95
2, 515040, Note_on_c, 0, 59, 95
2, 515280, Note_off_c, 0, 59, 95
2, 515280, Note_on_c, 0, 61, 70
2, 515520, Note_off_c, 0, 61, 70
2, 515520, Note_on_c, 0, 64, 95
2, 516000, Note_off_c, 0, 64, 95
2, 516000, Note_on_c, 0, 61, 95
2, 516480, Note_off_c, 0, 61, 95
2, 516480, Note_on_c, 0, 61, 95
2, 518400, Note_off_c, 0, 61, 95
2, 518400, Note_on_c, 0, 59, 95
2, 518880, Note_off_c, 0, 59, 95
2, 518880, Note_on_c, 0, 61, 95
2, 519360, Note_off_c, 0, 61, 95
2, 519360, Pitch_bend_c, 1, 8192
2, 519360, Note_on_c, 1, 64, 95
2, 519408, Pitch_bend_c, 1, 8320
2, 519456, Pitch_bend_c, 1, 8448
2, 519504, Pitch_bend_c, 1, 8576
2, 519552, Pitch_bend_c, 1, 8704
2, 519600, Pitch_bend_c, 1, 8832
2, 519600, Pitch_bend_c, 1, 8832
2, 519840, Pitch_bend_c, 1, 8832
2, 519840, Pitch_bend_c, 1, 8192
2, 519840, Note_off_c, 1, 64, 95
2, 519840, Note_on_c, 0, 61, 95
2, 520320, Note_off_c, 0, 61, 95
2, 520320, Note_on_c, 0, 59, 95
2, 520800, Note_off_c, 0, 59, 95
2, 520800, Note_on_c, 0, 61, 95
2, 521280, Note_off_c, 0, 61, 95
2, 521280, Pitch_bend_c, 1, 8192
2, 521280, Note_on_c, 1, 64, 95
2, 521328, Pitch_bend_c, 1, 8320
2, 521376, Pitch_bend_c, 1, 8448
2, 521424, Pitch_bend_c, 1, 8576
2, 521472, Pitch_bend_c, 1, 8704
2, 521520, Pitch_bend_c, 1, 8832
2, 521520, Pitch_bend_c, 1, 8832
2, 521760, Pitch_bend_c, 1, 8832
2, 521760, Pitch_bend_c, 1, 8192
2, 521760, Note_off_c, 1, 64, 95
2, 521760, Note_on_c, 0, 61, 95
2, 522240, Note_off_c, 0, 61, 95
2, 524160, Note_on_c, 0, 59, 95
2, 524640, Note_off_c, 0, 59, 95
2, 524640, Note_on_c, 0, 61, 95
2, 525120, Note_off_c, 0, 61, 95
2, 525120, Note_on_c, 0, 64, 95
2, 525600, Note_off_c, 0, 64, 95
2, 525600, Note_on_c, 0, 59, 95
2, 526080, Note_off_c, 0, 59, 95
2, 526080, Note_on_c, 0, 61, 70
2, 526560, Note_off_c, 0, 61, 70
2, 526560, Note_on_c, 0, 64, 95
2, 527040, Note_off_c, 0, 64, 95
2, 527040, Note_on_c, 0, 61, 95
2, 527520, Note_off_c, 0, 61, 95
2, 527520, Note_on_c, 0, 61, 95
2, 528000, Note_off_c, 0, 61, 95
2, 528000, Note_on_c, 0, 64, 95
2, 528480, Note_off_c, 0, 64, 95
2, 528480, Note_on_c, 0, 61, 95
2, 528960, Note_off_c, 0, 61, 95
2, 528960, Note_on_c, 0, 64, 95
2, 529440, Note_off_c, 0, 64, 95
2, 529440, Pitch_bend_c, 1, 8192
2, 529440, Note_on_c, 1, 66, 95
2, 529461, Pitch_bend_c, 1, 8320
2, 529482, Pitch_bend_c, 1, 8448
2, 529503, Pitch_bend_c, 1, 8576
2, 529524, Pitch_bend_c, 1, 8704
2, 529545, Pitch_bend_c, 1, 8832
2, 529566, Pitch_bend_c, 1, 8960
2, 529587, Pitch_bend_c, 1, 9088
2, 529608, Pitch_bend_c, 1, 9216
2, 529629, Pitch_bend_c, 1, 9344
2, 529650, Pitch_bend_c, 1, 9472
2, 529671, Pitch_bend_c, 1, 9600
2, 529680, Pitch_bend_c, 1, 9600
2, 530400, Pitch_bend_c, 1, 9600
2, 530400, Pitch_bend_c, 1, 8192
2, 530400, Note_off_c, 1, 66, 95
2, 530400, Pitch_bend_c, 1, 9600
2, 530400, Note_on_c, 1, 66, 95
2, 530640, Pitch_bend_c, 1, 9600
2, 530661, Pitch_bend_c, 1, 9472
2, 530682, Pitch_bend_c, 1, 9344
2, 530703, Pitch_bend_c, 1, 9216
2, 530724, Pitch_bend_c, 1, 9088
2, 530745, Pitch_bend_c, 1, 8960
2, 530766, Pitch_bend_c, 1, 8832
2, 530787, Pitch_bend_c, 1, 8704
2, 530808, Pitch_bend_c, 1, 8576
2, 530829, Pitch_bend_c, 1, 8448
2, 530850, Pitch_bend_c, 1, 8320
2, 530871, Pitch_bend_c, 1, 8192
2, 530880, Pitch_bend_c, 1, 8192
2, 531360, Pitch_bend_c, 1, 8192
2, 531840, Pitch_bend_c, 1, 8192
2, 531840, Pitch_bend_c, 1, 8192
2, 531840, Note_off_c, 1, 66, 95
2, 531840, Note_on_c, 0, 64, 95
2, 532320, Note_off_c, 0, 64, 95
2, 532320, Note_on_c, 0, 61, 95
2, 533280, Note_off_c, 0, 61, 95
2, 533280, Note_on_c, 0, 59, 95
2, 533760, Note_off_c, 0, 59, 95
2, 534240, Pitch_bend_c, 1, 8192
2, 534240, Note_on_c, 1, 71, 95
2, 534261, Pitch_bend_c, 1, 8320
2, 534282, Pitch_bend_c, 1, 8448
2, 534303, Pitch_bend_c, 1, 8576
2, 534324, Pitch_bend_c, 1, 8704
2, 534345, Pitch_bend_c, 1, 8832
2, 534366, Pitch_bend_c, 1, 8960
2, 534387, Pitch_bend_c, 1, 9088
2, 534408, Pitch_bend_c, 1, 9216
2, 534429, Pitch_bend_c, 1, 9344
2, 534450, Pitch_bend_c, 1, 9472
2, 534471, Pitch_bend_c, 1, 9600
2, 534480, Pitch_bend_c, 1, 9600
2, 534720, Pitch_bend_c, 1, 9600
2, 534720, Pitch_bend_c, 1, 8192
2, 534720, Note_off_c, 1, 71, 95
2, 534720, Pitch_bend_c, 1, 9600
2, 534720, Note_on_c, 1, 71, 95
2, 535200, Pitch_bend_c, 1, 9600
2, 535200, Pitch_bend_c, 1, 8192
2, 535200, Note_off_c, 1, 71, 95
2, 535200, Pitch_bend_c, 1, 9600
2, 535200, Note_on_c, 1, 71, 95
2, 535680, Pitch_bend_c, 1, 9600
2, 535680, Pitch_bend_c, 1, 8192
2, 535680, Note_off_c, 1, 71, 95
2, 535680, Pitch_bend_c, 1, 9600
2, 535680, Note_on_c, 1, 71, 95
2, 536160, Pitch_bend_c, 1, 9600
2, 536160, Pitch_bend_c, 1, 8192
2, 536160, Note_off_c, 1, 71, 95
2, 536160, Pitch_bend_c, 1, 9600
2, 536160, Note_on_c, 1, 71, 95
2, 536640, Pitch_bend_c, 1, 9600
2, 536640, Pitch_bend_c, 1, 8192
2, 536640, Note_off_c, 1, 71, 95
2, 536640, Note_on_c, 0, 71, 95
2, 537120, Note_off_c, 0, 71, 95
2, 537120, Pitch_bend_c, 1, 8192
2, 537120, Note_on_c, 1, 71, 95
2, 537141, Pitch_bend_c, 1, 8320
2, 537162, Pitch_bend_c, 1, 8448
2, 537183, Pitch_bend_c, 1, 8576
2, 537204, Pitch_bend_c, 1, 8704
2, 537225, Pitch_bend_c, 1, 8832
2, 537246, Pitch_bend_c, 1, 8960
2, 537267, Pitch_bend_c, 1, 9088
2, 537288, Pitch_bend_c, 1, 9216
2, 537309, Pitch_bend_c, 1, 9344
2, 537330, Pitch_bend_c, 1, 9472
2, 537351, Pitch_bend_c, 1, 9600
2, 537360, Pitch_bend_c, 1, 9600
2, 537600, Pitch_bend_c, 1, 9600
2, 537600, Pitch_bend_c, 1, 8192
2, 537600, Note_off_c, 1, 71, 95
2, 537600, Pitch_bend_c, 1, 9600
2, 537600, Note_on_c, 1, 71, 95
2, 538080, Pitch_bend_c, 1, 9600
2, 538080, Pitch_bend_c, 1, 8192
2, 538080, Note_off_c, 1, 71, 95
2, 538080, Note_on_c, 0, 66, 95
2, 538560, Note_off_c, 0, 66, 95
2, 538560, Note_on_c, 0, 64, 95
2, 539040, Note_off_c, 0, 64, 95
2, 539040, Note_on_c, 0, 61, 95
2, 541440, Note_off_c, 0, 61, 95
2, 541440, Note_on_c, 0, 64, 95
2, 541920, Note_off_c, 0, 64, 95
2, 541920, Note_on_c, 0, 64, 95
2, 542880, Note_off_c, 0, 64, 95
2, 542880, Note_on_c, 0, 66, 95
2, 543120, Note_off_c, 0, 66, 95
2, 543120, Note_on_c, 0, 64, 70
2, 543360, Note_off_c, 0, 64, 70
2, 543360, Note_on_c, 0, 61, 95
2, 545760, Note_off_c, 0, 61, 95
2, 545760, Note_on_c, 0, 59, 95
2, 546000, Note_off_c, 0, 59, 95
2, 546000, Note_on_c, 0, 61, 70
2, 546240, Note_off_c, 0, 61, 70
2, 546240, Note_on_c, 0, 64, 95
2, 546720, Note_off_c, 0, 64, 95
2, 546720, Note_on_c, 0, 61, 95
2, 547200, Note_off_c, 0, 61, 95
2, 547200, Note_on_c, 0, 61, 95
2, 549120, Note_off_c, 0, 61, 95
2, 549120, Note_on_c, 0, 59, 95
2, 549600, Note_off_c, 0, 59, 95
2, 549600, Note_on_c, 0, 61, 95
2, 550080, Note_off_c, 0, 61, 95
2, 550080, Pitch_bend_c, 1, 8192
2, 550080, Note_on_c, 1, 64, 95
2, 550128, Pitch_bend_c, 1, 8320
2, 550176, Pitch_bend_c, 1, 8448
2, 550224, Pitch_bend_c, 1, 8576
2, 550272, Pitch_bend_c, 1, 8704
2, 550320, Pitch_bend_c, 1, 8832
2, 550320, Pitch_bend_c, 1, 8832
2, 550560, Pitch_bend_c, 1, 8832
2, 550560, Pitch_bend_c, 1, 8192
2, 550560, Note_off_c, 1, 64, 95
2, 550560, Note_on_c, 0, 61, 95
2, 551040, Note_off_c, 0, 61, 95
2, 551040, Note_on_c, 0, 59, 95
2, 551520, Note_off_c, 0, 59, 95
2, 551520, Note_on_c, 0, 61, 95
2, 552000, Note_off_c, 0, 61, 95
2, 552000, Pitch_bend_c, 1, 8192
2, 552000, Note_on_c, 1, 64, 95
2, 552048, Pitch_bend_c, 1, 8320
2, 552096, Pitch_bend_c, 1, 8448
2, 552144, Pitch_bend_c, 1, 8576
2, 552192, Pitch_bend_c, 1, 8704
2, 552240, Pitch_bend_c, 1, 8832
2, 552240, Pitch_bend_c, 1, 8832
2, 552480, Pitch_bend_c, 1, 8832
2, 552480, Pitch_bend_c, 1, 8192
2, 552480, Note_off_c, 1, 64, 95
2, 552480, Note_on_c, 0, 61, 95
2, 556800, Note_off_c, 0, 61, 95
2, 556800, End_track
3, 0, Start_track
3, 0, Pitch_bend_c, 2, 8192
3, 0, Control_c, 2, 7, 103
3, 0, Control_c, 2, 10, 63
3, 0, Control_c, 2, 93, 15
3, 0, Control_c, 2, 91, 63
3, 0, Control_c, 2, 95, 0
3, 0, Control_c, 2, 92, 0
3, 0, Control_c, 2, 11, 127
3, 0, Program_c, 2, 27
3, 0, Control_c, 3, 7, 103
3, 0, Control_c, 3, 10, 63
3, 0, Control_c, 3, 93, 15
3, 0, Control_c, 3, 91, 63
3, 0, Control_c, 3, 95, 0
3, 0, Control_c, 3, 92, 0
3, 0, Control_c, 3, 11, 127
3, 0, Program_c, 3, 27
3, 0, Note_on_c, 2, 56, 95
3, 480, Note_off_c, 2, 56, 95
3, 480, Note_on_c, 2, 61, 95
3, 960, Note_off_c, 2, 61, 95
3, 960, Note_on_c, 2, 66, 95
3, 960, Note_on_c, 2, 63, 95
3, 1440, Note_off_c, 2, 66, 95
3, 1440, Note_off_c, 2, 63, 95
3, 1440, Note_on_c, 2, 63, 95
3, 1920, Note_off_c, 2, 63, 95
3, 1920, Note_on_c, 2, 66, 95
3, 1920, Note_on_c, 2, 63, 95
3, 2400, Note_off_c, 2, 66, 95
3, 2400, Note_off_c, 2, 63, 95
3, 2400, Note_on_c, 2, 56, 95
3, 2880, Note_off_c, 2, 56, 95
3, 2880, Note_on_c, 2, 66, 95
3, 2880, Note_on_c, 2, 61, 95
3, 3360, Note_off_c, 2, 66, 95
3, 3360, Note_off_c, 2, 61, 95
3, 3360, Note_on_c, 2, 66, 95
3, 3360, Note_on_c, 2, 61, 95
3, 3840, Note_off_c, 2, 66, 95
3, 3840, Note_off_c, 2, 61, 95
3, 3840, Note_on_c, 2, 54, 95
3, 4320, Note_off_c, 2, 54, 95
3, 4320, Note_on_c, 2, 63, 95
3, 4320, Note_on_c, 2, 59, 95
3, 4800, Note_off_c, 2, 63, 95
3, 4800, Note_off_c, 2, 59, 95
3, 4800, Note_on_c, 2, 64, 95
3, 4800, Note_on_c, 2, 61, 95
3, 5280, Note_off_c, 2, 64, 95
3, 5280, Note_off_c, 2, 61, 95
3, 5280, Note_on_c, 2, 54, 95
3, 5760, Note_off_c, 2, 54, 95
3, 5760, Note_on_c, 2, 64, 95
3, 5760, Note_on_c, 2, 61, 95
3, 6240, Note_off_c, 2, 64, 95
3, 6240, Note_off_c, 2, 61, 95
3, 6240, Note_on_c, 2, 54, 95
3, 6720, Note_off_c, 2, 54, 95
3, 6720, Note_on_c, 2, 64, 95
3, 6720, Note_on_c, 2, 61, 95
3, 7200, Note_off_c, 2, 64, 95
3, 7200, Note_off_c, 2, 61, 95
3, 7200, Note_on_c, 2, 64, 95
3, 7200, Note_on_c, 2, 59, 95
3, 7680, Note_off_c, 2, 64, 95
3, 7680, Note_off_c, 2, 59, 95
3, 7680, Note_on_c, 2, 57, 95
3, 7680, Note_on_c, 2, 52, 95
3, 8160, Note_off_c, 2, 57, 95
3, 8160, Note_off_c, 2, 52, 95
3, 8160, Note_on_c, 2, 57, 95
3, 8640, Note_off_c, 2, 57, 95
3, 8640, Note_on_c, 2, 63, 95
3, 8640, Note_on_c, 2, 59, 95
3, 9120, Note_off_c, 2, 63, 95
3, 9120, Note_off_c, 2, 59, 95
3, 9120, Note_on_c, 2, 57, 95
3, 9600, Note_off_c, 2, 57, 95
3, 9600, Note_on_c, 2, 52, 95
3, 10080, Note_off_c, 2, 52, 95
3, 10080, Note_on_c, 2, 63, 95
3, 10080, Note_on_c, 2, 59, 95
3, 10560, Note_off_c, 2, 63, 95
3, 10560, Note_off_c, 2, 59, 95
3, 10560, Note_on_c, 2, 61, 95
3, 10560, Note_on_c, 2, 57, 95
3, 11040, Note_off_c, 2, 61, 95
3, 11040, Note_off_c, 2, 57, 95
3, 11040, Note_on_c, 2, 52, 95
3, 11520, Note_off_c, 2, 52, 95
3, 11520, Note_on_c, 2, 63, 95
3, 11520, Note_on_c, 2, 59, 95
3, 12000, Note_off_c, 2, 63, 95
3, 12000, Note_off_c, 2, 59, 95
3, 12000, Note_on_c, 2, 61, 95
3, 12000, Note_on_c, 2, 57, 95
3, 12480, Note_off_c, 2, 61, 95
3, 12480, Note_off_c, 2, 57, 95
3, 12480, Note_on_c, 2, 52, 95
3, 12960, Note_off_c, 2, 52, 95
3, 12960, Note_on_c, 2, 61, 95
3, 12960, Note_on_c, 2, 57, 95
3, 13440, Note_off_c, 2, 61, 95
3, 13440, Note_off_c, 2, 57, 95
3, 13440, Note_on_c, 2, 64, 95
3, 13440, Note_on_c, 2, 61, 95
3, 13920, Note_off_c, 2, 64, 95
3, 13920, Note_off_c, 2, 61, 95
3, 13920, Note_on_c, 2, 64, 95
3, 13920, Note_on_c, 2, 61, 95
3, 14400, Note_off_c, 2, 64, 95
3, 14400, Note_off_c, 2, 61, 95
3, 14400, Note_on_c, 2, 63, 95
3, 14400, Note_on_c, 2, 59, 95
3, 14880, Note_off_c, 2, 63, 95
3, 14880, Note_off_c, 2, 59, 95
3, 14880, Note_on_c, 2, 59, 95
3, 14880, Note_on_c, 2, 54, 95
3, 15360, Note_off_c, 2, 59, 95
3, 15360, Note_off_c, 2, 54, 95
3, 15360, Note_on_c, 2, 56, 95
3, 15840, Note_off_c, 2, 56, 95
3, 15840, Note_on_c, 2, 65, 95
3, 15840, Note_on_c, 2, 61, 95
3, 16320, Note_off_c, 2, 65, 95
3, 16320, Note_off_c, 2, 61, 95
3, 16320, Note_on_c, 2, 66, 95
3, 16320, Note_on_c, 2, 63, 95
3, 16800, Note_off_c, 2, 66, 95
3, 16800, Note_off_c, 2, 63, 95
3, 16800, Note_on_c, 2, 66, 95
3, 17280, Note_off_c, 2, 66, 95
3, 17280, Note_on_c, 2, 66, 95
3, 17280, Note_on_c, 2, 63, 95
3, 17760, Note_off_c, 2, 66, 95
3, 17760, Note_off_c, 2, 63, 95
3, 17760, Note_on_c, 2, 66, 95
3, 17760, Note_on_c, 2, 61, 95
3, 18240, Note_off_c, 2, 66, 95
3, 18240, Note_off_c, 2, 61, 95
3, 18240, Note_on_c, 2, 66, 95
3, 18240, Note_on_c, 2, 61, 95
3, 18720, Note_off_c, 2, 66, 95
3, 18720, Note_off_c, 2, 61, 95
3, 18720, Note_on_c, 2, 65, 95
3, 18720, Note_on_c, 2, 61, 95
3, 19200, Note_off_c, 2, 65, 95
3, 19200, Note_off_c, 2, 61, 95
3, 19200, Note_on_c, 2, 54, 95
3, 19680, Note_off_c, 2, 54, 95
3, 19680, Note_on_c, 2, 64, 95
3, 19680, Note_on_c, 2, 59, 95
3, 20160, Note_off_c, 2, 64, 95
3, 20160, Note_off_c, 2, 59, 95
3, 20160, Note_on_c, 2, 61, 95
3, 20640, Note_off_c, 2, 61, 95
3, 20640, Note_on_c, 2, 61, 95
3, 21120, Note_off_c, 2, 61, 95
3, 21120, Note_on_c, 2, 64, 95
3, 21120, Note_on_c, 2, 61, 95
3, 21600, Note_off_c, 2, 64, 95
3, 21600, Note_off_c, 2, 61, 95
3, 21600, Note_on_c, 2, 64, 95
3, 21600, Note_on_c, 2, 61, 95
3, 22080, Note_off_c, 2, 64, 95
3, 22080, Note_off_c, 2, 61, 95
3, 22080, Note_on_c, 2, 64, 95
3, 22080, Note_on_c, 2, 61, 95
3, 22560, Note_off_c, 2, 64, 95
3, 22560, Note_off_c, 2, 61, 95
3, 22560, Note_on_c, 2, 64, 95
3, 22560, Note_on_c, 2, 59, 95
3, 23040, Note_off_c, 2, 64, 95
3, 23040, Note_off_c, 2, 59, 95
3, 23040, Note_on_c, 2, 52, 95
3, 23520, Note_off_c, 2, 52, 95
3, 23520, Note_on_c, 2, 61, 95
3, 23520, Note_on_c, 2, 57, 95
3, 24000, Note_off_c, 2, 61, 95
3, 24000, Note_off_c, 2, 57, 95
3, 24000, Note_on_c, 2, 63, 95
3, 24000, Note_on_c, 2, 59, 95
3, 24480, Note_off_c, 2, 63, 95
3, 24480, Note_off_c, 2, 59, 95
3, 24480, Note_on_c, 2, 61, 95
3, 24480, Note_on_c, 2, 57, 95
3, 24960, Note_off_c, 2, 61, 95
3, 24960, Note_off_c, 2, 57, 95
3, 24960, Note_on_c, 2, 52, 95
3, 25440, Note_off_c, 2, 52, 95
3, 25440, Note_on_c, 2, 63, 95
3, 25440, Note_on_c, 2, 59, 95
3, 25920, Note_off_c, 2, 63, 95
3, 25920, Note_off_c, 2, 59, 95
3, 25920, Note_on_c, 2, 61, 95
3, 25920, Note_on_c, 2, 57, 95
3, 26400, Note_off_c, 2, 61, 95
3, 26400, Note_off_c, 2, 57, 95
3, 26400, Note_on_c, 2, 52, 95
3, 26880, Note_off_c, 2, 52, 95
3, 26880, Note_on_c, 2, 63, 95
3, 26880, Note_on_c, 2, 59, 95
3, 27360, Note_off_c, 2, 63, 95
3, 27360, Note_off_c, 2, 59, 95
3, 27360, Note_on_c, 2, 61, 95
3, 27360, Note_on_c, 2, 57, 95
3, 27840, Note_off_c, 2, 61, 95
3, 27840, Note_off_c, 2, 57, 95
3, 27840, Note_on_c, 2, 52, 95
3, 28320, Note_off_c, 2, 52, 95
3, 28320, Note_on_c, 2, 61, 95
3, 28320, Note_on_c, 2, 57, 95
3, 28800, Note_off_c, 2, 61, 95
3, 28800, Note_off_c, 2, 57, 95
3, 28800, Note_on_c, 2, 64, 95
3, 28800, Note_on_c, 2, 61, 95
3, 29280, Note_off_c, 2, 64, 95
3, 29280, Note_off_c, 2, 61, 95
3, 29280, Note_on_c, 2, 64, 95
3, 29280, Note_on_c, 2, 61, 95
3, 29760, Note_off_c, 2, 64, 95
3, 29760, Note_off_c, 2, 61, 95
3, 29760, Note_on_c, 2, 63, 95
3, 29760, Note_on_c, 2, 59, 95
3, 30240, Note_off_c, 2, 63, 95
3, 30240, Note_off_c, 2, 59, 95
3, 30240, Note_on_c, 2, 59, 95
3, 30240, Note_on_c, 2, 54, 95
3, 30720, Note_off_c, 2, 59, 95
3, 30720, Note_off_c, 2, 54, 95
3, 30720, Note_on_c, 2, 56, 95
3, 31200, Note_off_c, 2, 56, 95
3, 31200, Note_on_c, 2, 65, 95
3, 31200, Note_on_c, 2, 61, 95
3, 31680, Note_off_c, 2, 65, 95
3, 31680, Note_off_c, 2, 61, 95
3, 31680, Note_on_c, 2, 66, 95
3, 31680, Note_on_c, 2, 63, 95
3, 32160, Note_off_c, 2, 66, 95
3, 32160, Note_off_c, 2, 63, 95
3, 32160, Note_on_c, 2, 56, 95
3, 32640, Note_off_c, 2, 56, 95
3, 32640, Note_on_c, 2, 66, 95
3, 32640, Note_on_c, 2, 63, 95
3, 33120, Note_off_c, 2, 66, 95
3, 33120, Note_off_c, 2, 63, 95
3, 33120, Note_on_c, 2, 66, 95
3, 33120, Note_on_c, 2, 61, 95
3, 33600, Note_off_c, 2, 66, 95
3, 33600, Note_off_c, 2, 61, 95
3, 33600, Note_on_c, 2, 66, 95
3, 33600, Note_on_c, 2, 61, 95
3, 34080, Note_off_c, 2, 66, 95
3, 34080, Note_off_c, 2, 61, 95
3, 34080, Note_on_c, 2, 65, 95
3, 34080, Note_on_c, 2, 61, 95
3, 34560, Note_off_c, 2, 65, 95
3, 34560, Note_off_c, 2, 61, 95
3, 34560, Note_on_c, 2, 54, 95
3, 35040, Note_off_c, 2, 54, 95
3, 35040, Note_on_c, 2, 63, 95
3, 35040, Note_on_c, 2, 59, 95
3, 35520, Note_off_c, 2, 63, 95
3, 35520, Note_off_c, 2, 59, 95
3, 35520, Note_on_c, 2, 64, 95
3, 35520, Note_on_c, 2, 61, 95
3, 36000, Note_off_c, 2, 64, 95
3, 36000, Note_off_c, 2, 61, 95
3, 36000, Note_on_c, 2, 54, 95
3, 36480, Note_off_c, 2, 54, 95
3, 36480, Note_on_c, 2, 64, 95
3, 36480, Note_on_c, 2, 61, 95
3, 36960, Note_off_c, 2, 64, 95
3, 36960, Note_off_c, 2, 61, 95
3, 36960, Note_on_c, 2, 64, 95
3, 36960, Note_on_c, 2, 61, 95
3, 37440, Note_off_c, 2, 64, 95
3, 37440, Note_off_c, 2, 61, 95
3, 37440, Note_on_c, 2, 64, 95
3, 37440, Note_on_c, 2, 61, 95
3, 37920, Note_off_c, 2, 64, 95
3, 37920, Note_off_c, 2, 61, 95
3, 37920, Note_on_c, 2, 64, 95
3, 37920, Note_on_c, 2, 59, 95
3, 38400, Note_off_c, 2, 64, 95
3, 38400, Note_off_c, 2, 59, 95
3, 38400, Note_on_c, 2, 52, 95
3, 38880, Note_off_c, 2, 52, 95
3, 38880, Note_on_c, 2, 61, 95
3, 38880, Note_on_c, 2, 57, 95
3, 39360, Note_off_c, 2, 61, 95
3, 39360, Note_off_c, 2, 57, 95
3, 39360, Note_on_c, 2, 63, 95
3, 39360, Note_on_c, 2, 59, 95
3, 39840, Note_off_c, 2, 63, 95
3, 39840, Note_off_c, 2, 59, 95
3, 39840, Note_on_c, 2, 61, 95
3, 39840, Note_on_c, 2, 57, 95
3, 40320, Note_off_c, 2, 61, 95
3, 40320, Note_off_c, 2, 57, 95
3, 40320, Note_on_c, 2, 52, 95
3, 40800, Note_off_c, 2, 52, 95
3, 40800, Note_on_c, 2, 63, 95
3, 40800, Note_on_c, 2, 59, 95
3, 41280, Note_off_c, 2, 63, 95
3, 41280, Note_off_c, 2, 59, 95
3, 41280, Note_on_c, 2, 61, 95
3, 41280, Note_on_c, 2, 57, 95
3, 41760, Note_off_c, 2, 61, 95
3, 41760, Note_off_c, 2, 57, 95
3, 41760, Note_on_c, 2, 52, 95
3, 42240, Note_off_c, 2, 52, 95
3, 42240, Note_on_c, 2, 63, 95
3, 42240, Note_on_c, 2, 59, 95
3, 42720, Note_off_c, 2, 63, 95
3, 42720, Note_off_c, 2, 59, 95
3, 42720, Note_on_c, 2, 61, 95
3, 42720, Note_on_c, 2, 57, 95
3, 43200, Note_off_c, 2, 61, 95
3, 43200, Note_off_c, 2, 57, 95
3, 43200, Note_on_c, 2, 52, 95
3, 43680, Note_off_c, 2, 52, 95
3, 43680, Note_on_c, 2, 61, 95
3, 43680, Note_on_c, 2, 57, 95
3, 44160, Note_off_c, 2, 61, 95
3, 44160, Note_off_c, 2, 57, 95
3, 44160, Note_on_c, 2, 64, 95
3, 44160, Note_on_c, 2, 61, 95
3, 44640, Note_off_c, 2, 64, 95
3, 44640, Note_off_c, 2, 61, 95
3, 44640, Note_on_c, 2, 64, 95
3, 44640, Note_on_c, 2, 61, 95
3, 45120, Note_off_c, 2, 64, 95
3, 45120, Note_off_c, 2, 61, 95
3, 45120, Note_on_c, 2, 63, 95
3, 45120, Note_on_c, 2, 59, 95
3, 45600, Note_off_c, 2, 63, 95
3, 45600, Note_off_c, 2, 59, 95
3, 45600, Note_on_c, 2, 59, 95
3, 45600, Note_on_c, 2, 54, 95
3, 46080, Note_off_c, 2, 59, 95
3, 46080, Note_off_c, 2, 54, 95
3, 46080, Note_on_c, 2, 65, 95
3, 46080, Note_on_c, 2, 61, 95
3, 46560, Note_off_c, 2, 65, 95
3, 46560, Note_off_c, 2, 61, 95
3, 46560, Note_on_c, 2, 65, 95
3, 47040, Note_off_c, 2, 65, 95
3, 47040, Note_on_c, 2, 66, 95
3, 47520, Note_off_c, 2, 66, 95
3, 47520, Note_on_c, 2, 66, 95
3, 47520, Note_on_c, 2, 61, 95
3, 48000, Note_off_c, 2, 66, 95
3, 48000, Note_off_c, 2, 61, 95
3, 48000, Note_on_c, 2, 68, 95
3, 48480, Note_off_c, 2, 68, 95
3, 48480, Note_on_c, 2, 68, 95
3, 48480, Note_on_c, 2, 66, 95
3, 48960, Note_off_c, 2, 68, 95
3, 48960, Note_off_c, 2, 66, 95
3, 48960, Note_on_c, 2, 68, 95
3, 48960, Note_on_c, 2, 65, 95
3, 49440, Note_off_c, 2, 68, 95
3, 49440, Note_off_c, 2, 65, 95
3, 49440, Note_on_c, 2, 68, 95
3, 49440, Note_on_c, 2, 61, 95
3, 49920, Note_off_c, 2, 68, 95
3, 49920, Note_off_c, 2, 61, 95
3, 49920, Note_on_c, 2, 59, 95
3, 50400, Note_off_c, 2, 59, 95
3, 50400, Note_on_c, 2, 63, 95
3, 50880, Note_off_c, 2, 63, 95
3, 50880, Note_on_c, 2, 66, 95
3, 50880, Note_on_c, 2, 64, 95
3, 51360, Note_off_c, 2, 66, 95
3, 51360, Note_off_c, 2, 64, 95
3, 51360, Note_on_c, 2, 59, 95
3, 51840, Note_off_c, 2, 59, 95
3, 51840, Note_on_c, 2, 66, 95
3, 51840, Note_on_c, 2, 66, 95
3, 52320, Note_off_c, 2, 66, 95
3, 52320, Note_off_c, 2, 66, 95
3, 52320, Note_on_c, 2, 66, 95
3, 52320, Note_on_c, 2, 64, 95
3, 52800, Note_off_c, 2, 66, 95
3, 52800, Note_off_c, 2, 64, 95
3, 52800, Note_on_c, 2, 66, 95
3, 52800, Note_on_c, 2, 63, 95
3, 53280, Note_off_c, 2, 66, 95
3, 53280, Note_off_c, 2, 63, 95
3, 53280, Note_on_c, 2, 66, 95
3, 53280, Note_on_c, 2, 59, 95
3, 53760, Note_off_c, 2, 66, 95
3, 53760, Note_off_c, 2, 59, 95
3, 53760, Note_on_c, 2, 57, 95
3, 54240, Note_off_c, 2, 57, 95
3, 54240, Note_on_c, 2, 64, 95
3, 54240, Note_on_c, 2, 61, 95
3, 54720, Note_off_c, 2, 64, 95
3, 54720, Note_off_c, 2, 61, 95
3, 54720, Note_on_c, 2, 66, 95
3, 54720, Note_on_c, 2, 63, 95
3, 55200, Note_off_c, 2, 66, 95
3, 55200, Note_off_c, 2, 63, 95
3, 55200, Note_on_c, 2, 64, 95
3, 55200, Note_on_c, 2, 61, 95
3, 55680, Note_off_c, 2, 64, 95
3, 55680, Note_off_c, 2, 61, 95
3, 55680, Note_on_c, 2, 57, 95
3, 56160, Note_off_c, 2, 57, 95
3, 56160, Note_on_c, 2, 66, 95
3, 56160, Note_on_c, 2, 63, 95
3, 56640, Note_off_c, 2, 66, 95
3, 56640, Note_off_c, 2, 63, 95
3, 56640, Note_on_c, 2, 64, 95
3, 56640, Note_on_c, 2, 61, 95
3, 57120, Note_off_c, 2, 64, 95
3, 57120, Note_off_c, 2, 61, 95
3, 57120, Note_on_c, 2, 57, 95
3, 57600, Note_off_c, 2, 57, 95
3, 57600, Note_on_c, 2, 66, 95
3, 57600, Note_on_c, 2, 63, 95
3, 58080, Note_off_c, 2, 66, 95
3, 58080, Note_off_c, 2, 63, 95
3, 58080, Note_on_c, 2, 64, 95
3, 58080, Note_on_c, 2, 61, 95
3, 58560, Note_off_c, 2, 64, 95
3, 58560, Note_off_c, 2, 61, 95
3, 58560, Note_on_c, 2, 57, 95
3, 59040, Note_off_c, 2, 57, 95
3, 59040, Note_on_c, 2, 64, 95
3, 59040, Note_on_c, 2, 61, 95
3, 59520, Note_off_c, 2, 64, 95
3, 59520, Note_off_c, 2, 61, 95
3, 59520, Note_on_c, 2, 66, 95
3, 59520, Note_on_c, 2, 63, 95
3, 60000, Note_off_c, 2, 66, 95
3, 60000, Note_off_c, 2, 63, 95
3, 60000, Note_on_c, 2, 66, 95
3, 60000, Note_on_c, 2, 64, 95
3, 60480, Note_off_c, 2, 66, 95
3, 60480, Note_off_c, 2, 64, 95
3, 60480, Note_on_c, 2, 66, 95
3, 60480, Note_on_c, 2, 63, 95
3, 60960, Note_off_c, 2, 66, 95
3, 60960, Note_off_c, 2, 63, 95
3, 60960, Note_on_c, 2, 63, 95
3, 60960, Note_on_c, 2, 59, 95
3, 61440, Note_off_c, 2, 63, 95
3, 61440, Note_off_c, 2, 59, 95
3, 61440, Note_on_c, 2, 65, 95
3, 61440, Note_on_c, 2, 61, 95
3, 61920, Note_off_c, 2, 65, 95
3, 61920, Note_off_c, 2, 61, 95
3, 61920, Note_on_c, 2, 65, 95
3, 62400, Note_off_c, 2, 65, 95
3, 62400, Note_on_c, 2, 66, 95
3, 62880, Note_off_c, 2, 66, 95
3, 62880, Note_on_c, 2, 66, 95
3, 62880, Note_on_c, 2, 61, 95
3, 63360, Note_off_c, 2, 66, 95
3, 63360, Note_off_c, 2, 61, 95
3, 63360, Note_on_c, 2, 68, 95
3, 63840, Note_off_c, 2, 68, 95
3, 63840, Note_on_c, 2, 68, 95
3, 63840, Note_on_c, 2, 66, 95
3, 64320, Note_off_c, 2, 68, 95
3, 64320, Note_off_c, 2, 66, 95
3, 64320, Note_on_c, 2, 68, 95
3, 64320, Note_on_c, 2, 65, 95
3, 64800, Note_off_c, 2, 68, 95
3, 64800, Note_off_c, 2, 65, 95
3, 64800, Note_on_c, 2, 68, 95
3, 64800, Note_on_c, 2, 61, 95
3, 65280, Note_off_c, 2, 68, 95
3, 65280, Note_off_c, 2, 61, 95
3, 65280, Note_on_c, 2, 59, 95
3, 65760, Note_off_c, 2, 59, 95
3, 65760, Note_on_c, 2, 63, 95
3, 66240, Note_off_c, 2, 63, 95
3, 66240, Note_on_c, 2, 66, 95
3, 66240, Note_on_c, 2, 64, 95
3, 66720, Note_off_c, 2, 66, 95
3, 66720, Note_off_c, 2, 64, 95
3, 66720, Note_on_c, 2, 59, 95
3, 67200, Note_off_c, 2, 59, 95
3, 67200, Note_on_c, 2, 66, 95
3, 67200, Note_on_c, 2, 66, 95
3, 67680, Note_off_c, 2, 66, 95
3, 67680, Note_off_c, 2, 66, 95
3, 67680, Note_on_c, 2, 66, 95
3, 67680, Note_on_c, 2, 64, 95
3, 68160, Note_off_c, 2, 66, 95
3, 68160, Note_off_c, 2, 64, 95
3, 68160, Note_on_c, 2, 66, 95
3, 68160, Note_on_c, 2, 63, 95
3, 68640, Note_off_c, 2, 66, 95
3, 68640, Note_off_c, 2, 63, 95
3, 68640, Note_on_c, 2, 66, 95
3, 68640, Note_on_c, 2, 59, 95
3, 69120, Note_off_c, 2, 66, 95
3, 69120, Note_off_c, 2, 59, 95
3, 69120, Note_on_c, 2, 57, 95
3, 69600, Note_off_c, 2, 57, 95
3, 69600, Note_on_c, 2, 64, 95
3, 69600, Note_on_c, 2, 61, 95
3, 70080, Note_off_c, 2, 64, 95
3, 70080, Note_off_c, 2, 61, 95
3, 70080, Note_on_c, 2, 66, 95
3, 70080, Note_on_c, 2, 63, 95
3, 70560, Note_off_c, 2, 66, 95
3, 70560, Note_off_c, 2, 63, 95
3, 70560, Note_on_c, 2, 64, 95
3, 70560, Note_on_c, 2, 61, 95
3, 71040, Note_off_c, 2, 64, 95
3, 71040, Note_off_c, 2, 61, 95
3, 71040, Note_on_c, 2, 57, 95
3, 71520, Note_off_c, 2, 57, 95
3, 71520, Note_on_c, 2, 66, 95
3, 71520, Note_on_c, 2, 63, 95
3, 72000, Note_off_c, 2, 66, 95
3, 72000, Note_off_c, 2, 63, 95
3, 72000, Note_on_c, 2, 64, 95
3, 72000, Note_on_c, 2, 61, 95
3, 72480, Note_off_c, 2, 64, 95
3, 72480, Note_off_c, 2, 61, 95
3, 72480, Note_on_c, 2, 57, 95
3, 72960, Note_off_c, 2, 57, 95
3, 72960, Note_on_c, 2, 66, 95
3, 72960, Note_on_c, 2, 63, 95
3, 73440, Note_off_c, 2, 66, 95
3, 73440, Note_off_c, 2, 63, 95
3, 73440, Note_on_c, 2, 64, 95
3, 73440, Note_on_c, 2, 61, 95
3, 73920, Note_off_c, 2, 64, 95
3, 73920, Note_off_c, 2, 61, 95
3, 73920, Note_on_c, 2, 57, 95
3, 74400, Note_off_c, 2, 57, 95
3, 74400, Note_on_c, 2, 64, 95
3, 74400, Note_on_c, 2, 61, 95
3, 74880, Note_off_c, 2, 64, 95
3, 74880, Note_off_c, 2, 61, 95
3, 74880, Note_on_c, 2, 66, 95
3, 74880, Note_on_c, 2, 63, 95
3, 75360, Note_off_c, 2, 66, 95
3, 75360, Note_off_c, 2, 63, 95
3, 75360, Note_on_c, 2, 66, 95
3, 75360, Note_on_c, 2, 64, 95
3, 75840, Note_off_c, 2, 66, 95
3, 75840, Note_off_c, 2, 64, 95
3, 75840, Note_on_c, 2, 66, 95
3, 75840, Note_on_c, 2, 63, 95
3, 76320, Note_off_c, 2, 66, 95
3, 76320, Note_off_c, 2, 63, 95
3, 76320, Note_on_c, 2, 63, 95
3, 76320, Note_on_c, 2, 59, 95
3, 76800, Note_off_c, 2, 63, 95
3, 76800, Note_off_c, 2, 59, 95
3, 77280, Note_on_c, 2, 61, 95
3, 77760, Note_off_c, 2, 61, 95
3, 77760, Note_on_c, 2, 66, 95
3, 78720, Note_off_c, 2, 66, 95
3, 78720, Note_on_c, 2, 68, 95
3, 78720, Note_on_c, 2, 66, 95
3, 79200, Note_off_c, 2, 68, 95
3, 79200, Note_off_c, 2, 66, 95
3, 79200, Note_on_c, 2, 66, 95
3, 79680, Note_off_c, 2, 66, 95
3, 79680, Note_on_c, 2, 64, 95
3, 80160, Note_off_c, 2, 64, 95
3, 80160, Note_on_c, 2, 61, 95
3, 80640, Note_off_c, 2, 61, 95
3, 81120, Note_on_c, 2, 59, 95
3, 81600, Note_off_c, 2, 59, 95
3, 81600, Note_on_c, 2, 64, 95
3, 82560, Note_off_c, 2, 64, 95
3, 82560, Note_on_c, 2, 66, 95
3, 82560, Note_on_c, 2, 64, 95
3, 83040, Note_off_c, 2, 66, 95
3, 83040, Note_off_c, 2, 64, 95
3, 83040, Note_on_c, 2, 64, 95
3, 83520, Note_off_c, 2, 64, 95
3, 83520, Note_on_c, 2, 63, 95
3, 84000, Note_off_c, 2, 63, 95
3, 84000, Note_on_c, 2, 59, 95
3, 84480, Note_off_c, 2, 59, 95
3, 84480, Note_on_c, 2, 45, 95
3, 85440, Note_off_c, 2, 45, 95
3, 85440, Note_on_c, 2, 63, 95
3, 85440, Note_on_c, 2, 59, 95
3, 85920, Note_off_c, 2, 63, 95
3, 85920, Note_off_c, 2, 59, 95
3, 85920, Note_on_c, 2, 61, 95
3, 85920, Note_on_c, 2, 57, 95
3, 86400, Note_off_c, 2, 61, 95
3, 86400, Note_off_c, 2, 57, 95
3, 86400, Note_on_c, 2, 45, 95
3, 86880, Note_off_c, 2, 45, 95
3, 86880, Note_on_c, 2, 63, 95
3, 86880, Note_on_c, 2, 59, 95
3, 87360, Note_off_c, 2, 63, 95
3, 87360, Note_off_c, 2, 59, 95
3, 87360, Note_on_c, 2, 61, 95
3, 87360, Note_on_c, 2, 57, 95
3, 87840, Note_off_c, 2, 61, 95
3, 87840, Note_off_c, 2, 57, 95
3, 87840, Note_on_c, 2, 45, 95
3, 88320, Note_off_c, 2, 45, 95
3, 88320, Note_on_c, 2, 59, 95
3, 88320, Note_on_c, 2, 56, 95
3, 88320, Note_on_c, 2, 52, 95
3, 88320, Note_on_c, 2, 47, 95
3, 88800, Note_off_c, 2, 59, 95
3, 88800, Note_off_c, 2, 56, 95
3, 88800, Note_off_c, 2, 52, 95
3, 88800, Note_off_c, 2, 47, 95
3, 88800, Note_on_c, 2, 61, 95
3, 88800, Note_on_c, 2, 57, 95
3, 88800, Note_on_c, 2, 52, 95
3, 88800, Note_on_c, 2, 45, 95
3, 89280, Note_off_c, 2, 61, 95
3, 89280, Note_off_c, 2, 57, 95
3, 89280, Note_off_c, 2, 52, 95
3, 89280, Note_off_c, 2, 45, 95
3, 89280, Note_on_c, 2, 59, 95
3, 89280, Note_on_c, 2, 56, 95
3, 89280, Note_on_c, 2, 52, 95
3, 89280, Note_on_c, 2, 47, 95
3, 89760, Note_off_c, 2, 59, 95
3, 89760, Note_off_c, 2, 56, 95
3, 89760, Note_off_c, 2, 52, 95
3, 89760, Note_off_c, 2, 47, 95
3, 89760, Note_on_c, 2, 61, 95
3, 89760, Note_on_c, 2, 57, 95
3, 89760, Note_on_c, 2, 52, 95
3, 89760, Note_on_c, 2, 45, 95
3, 90240, Note_off_c, 2, 61, 95
3, 90240, Note_off_c, 2, 57, 95
3, 90240, Note_off_c, 2, 52, 95
3, 90240, Note_off_c, 2, 45, 95
3, 90240, Note_on_c, 2, 59, 95
3, 90240, Note_on_c, 2, 56, 95
3, 90240, Note_on_c, 2, 52, 95
3, 90240, Note_on_c, 2, 47, 95
3, 90720, Note_off_c, 2, 59, 95
3, 90720, Note_off_c, 2, 56, 95
3, 90720, Note_off_c, 2, 52, 95
3, 90720, Note_off_c, 2, 47, 95
3, 90720, Note_on_c, 2, 63, 95
3, 90720, Note_on_c, 2, 59, 95
3, 90720, Note_on_c, 2, 54, 95
3, 90720, Note_on_c, 2, 47, 95
3, 91200, Note_off_c, 2, 63, 95
3, 91200, Note_off_c, 2, 59, 95
3, 91200, Note_off_c, 2, 54, 95
3, 91200, Note_off_c, 2, 47, 95
3, 91200, Note_on_c, 2, 63, 95
3, 91200, Note_on_c, 2, 59, 95
3, 91200, Note_on_c, 2, 54, 95
3, 91200, Note_on_c, 2, 47, 95
3, 91680, Note_off_c, 2, 63, 95
3, 91680, Note_off_c, 2, 59, 95
3, 91680, Note_off_c, 2, 54, 95
3, 91680, Note_off_c, 2, 47, 95
3, 91680, Note_on_c, 2, 63, 95
3, 91680, Note_on_c, 2, 59, 95
3, 91680, Note_on_c, 2, 54, 95
3, 91680, Note_on_c, 2, 47, 95
3, 92160, Note_off_c, 2, 63, 95
3, 92160, Note_off_c, 2, 59, 95
3, 92160, Note_off_c, 2, 54, 95
3, 92160, Note_off_c, 2, 47, 95
3, 92160, Note_on_c, 2, 61, 95
3, 92160, Note_on_c, 2, 56, 95
3, 92160, Note_on_c, 2, 49, 95
3, 93120, Note_off_c, 2, 61, 95
3, 93120, Note_off_c, 2, 56, 95
3, 93120, Note_off_c, 2, 49, 95
3, 93120, Note_on_c, 2, 61, 95
3, 93120, Note_on_c, 2, 56, 95
3, 93120, Note_on_c, 2, 49, 95
3, 94560, Note_off_c, 2, 61, 95
3, 94560, Note_off_c, 2, 56, 95
3, 94560, Note_off_c, 2, 49, 95
3, 94560, Note_on_c, 2, 61, 95
3, 94560, Note_on_c, 2, 56, 95
3, 94560, Note_on_c, 2, 49, 95
3, 96000, Note_off_c, 2, 61, 95
3, 96000, Note_off_c, 2, 56, 95
3, 96000, Note_off_c, 2, 49, 95
3, 96000, Note_on_c, 2, 64, 95
3, 96000, Note_on_c, 2, 59, 95
3, 96000, Note_on_c, 2, 49, 95
3, 96480, Note_off_c, 2, 64, 95
3, 96480, Note_off_c, 2, 59, 95
3, 96480, Note_off_c, 2, 49, 95
3, 96480, Note_on_c, 2, 61, 95
3, 96480, Note_on_c, 2, 56, 95
3, 96480, Note_on_c, 2, 49, 95
3, 96960, Note_off_c, 2, 61, 95
3, 96960, Note_off_c, 2, 56, 95
3, 96960, Note_off_c, 2, 49, 95
3, 96960, Note_on_c, 2, 66, 95
3, 96960, Note_on_c, 2, 61, 95
3, 96960, Note_on_c, 2, 58, 95
3, 96960, Note_on_c, 2, 49, 95
3, 97440, Note_off_c, 2, 66, 95
3, 97440, Note_off_c, 2, 61, 95
3, 97440, Note_off_c, 2, 58, 95
3, 97440, Note_off_c, 2, 49, 95
3, 97440, Note_on_c, 2, 65, 63
3, 97440, Note_on_c, 2, 61, 95
3, 97440, Note_on_c, 2, 56, 95
3, 97440, Note_on_c, 2, 49, 95
3, 98400, Note_off_c, 2, 65, 63
3, 98400, Note_off_c, 2, 61, 95
3, 98400, Note_off_c, 2, 56, 95
3, 98400, Note_off_c, 2, 49, 95
3, 98400, Note_on_c, 2, 56, 95
3, 98400, Note_on_c, 2, 49, 95
3, 98880, Note_off_c, 2, 56, 95
3, 98880, Note_off_c, 2, 49, 95
3, 98880, Note_on_c, 2, 59, 95
3, 98880, Note_on_c, 2, 49, 95
3, 99360, Note_off_c, 2, 59, 95
3, 99360, Note_off_c, 2, 49, 95
3, 99360, Note_on_c, 2, 61, 95
3, 99360, Note_on_c, 2, 56, 95
3, 99360, Note_on_c, 2, 49, 95
3, 100320, Note_off_c, 2, 61, 95
3, 100320, Note_off_c, 2, 56, 95
3, 100320, Note_off_c, 2, 49, 95
3, 100320, Note_on_c, 2, 61, 95
3, 100320, Note_on_c, 2, 56, 95
3, 100320, Note_on_c, 2, 49, 95
3, 100800, Note_off_c, 2, 61, 95
3, 100800, Note_off_c, 2, 56, 95
3, 100800, Note_off_c, 2, 49, 95
3, 100800, Note_on_c, 2, 61, 95
3, 100800, Note_on_c, 2, 56, 95
3, 100800, Note_on_c, 2, 49, 95
3, 102240, Note_off_c, 2, 61, 95
3, 102240, Note_off_c, 2, 56, 95
3, 102240, Note_off_c, 2, 49, 95
3, 102240, Note_on_c, 2, 61, 95
3, 102240, Note_on_c, 2, 56, 95
3, 102240, Note_on_c, 2, 49, 95
3, 103680, Note_off_c, 2, 61, 95
3, 103680, Note_off_c, 2, 56, 95
3, 103680, Note_off_c, 2, 49, 95
3, 103680, Note_on_c, 2, 64, 95
3, 103680, Note_on_c, 2, 59, 95
3, 103680, Note_on_c, 2, 49, 95
3, 104160, Note_off_c, 2, 64, 95
3, 104160, Note_off_c, 2, 59, 95
3, 104160, Note_off_c, 2, 49, 95
3, 104160, Note_on_c, 2, 61, 95
3, 104160, Note_on_c, 2, 56, 95
3, 104160, Note_on_c, 2, 49, 95
3, 104640, Note_off_c, 2, 61, 95
3, 104640, Note_off_c, 2, 56, 95
3, 104640, Note_off_c, 2, 49, 95
3, 104640, Note_on_c, 2, 66, 95
3, 104640, Note_on_c, 2, 61, 95
3, 104640, Note_on_c, 2, 58, 95
3, 104640, Note_on_c, 2, 49, 95
3, 105120, Note_off_c, 2, 66, 95
3, 105120, Note_off_c, 2, 61, 95
3, 105120, Note_off_c, 2, 58, 95
3, 105120, Note_off_c, 2, 49, 95
3, 105120, Note_on_c, 2, 65, 63
3, 105120, Note_on_c, 2, 61, 95
3, 105120, Note_on_c, 2, 56, 95
3, 105120, Note_on_c, 2, 49, 95
3, 106080, Note_off_c, 2, 65, 63
3, 106080, Note_off_c, 2, 61, 95
3, 106080, Note_off_c, 2, 56, 95
3, 106080, Note_off_c, 2, 49, 95
3, 106080, Note_on_c, 2, 61, 95
3, 106080, Note_on_c, 2, 56, 95
3, 106080, Note_on_c, 2, 49, 95
3, 106560, Note_off_c, 2, 61, 95
3, 106560, Note_off_c, 2, 56, 95
3, 106560, Note_off_c, 2, 49, 95
3, 106560, Note_on_c, 2, 61, 95
3, 106560, Note_on_c, 2, 56, 95
3, 106560, Note_on_c, 2, 49, 95
3, 107040, Note_off_c, 2, 61, 95
3, 107040, Note_off_c, 2, 56, 95
3, 107040, Note_off_c, 2, 49, 95
3, 107040, Note_on_c, 2, 59, 95
3, 107040, Note_on_c, 2, 49, 95
3, 107520, Note_off_c, 2, 59, 95
3, 107520, Note_off_c, 2, 49, 95
3, 107520, Note_on_c, 2, 61, 95
3, 107520, Note_on_c, 2, 56, 95
3, 107520, Note_on_c, 2, 49, 95
3, 108480, Note_off_c, 2, 61, 95
3, 108480, Note_off_c, 2, 56, 95
3, 108480, Note_off_c, 2, 49, 95
3, 108480, Note_on_c, 2, 61, 95
3, 108480, Note_on_c, 2, 56, 95
3, 108480, Note_on_c, 2, 49, 95
3, 109200, Note_off_c, 2, 61, 95
3, 109200, Note_off_c, 2, 56, 95
3, 109200, Note_off_c, 2, 49, 95
3, 109200, Note_on_c, 2, 61, 95
3, 109200, Note_on_c, 2, 56, 95
3, 109200, Note_on_c, 2, 49, 95
3, 109440, Note_off_c, 2, 61, 95
3, 109440, Note_off_c, 2, 56, 95
3, 109440, Note_off_c, 2, 49, 95
3, 109440, Note_on_c, 2, 61, 95
3, 109440, Note_on_c, 2, 56, 95
3, 109440, Note_on_c, 2, 49, 95
3, 109920, Note_off_c, 2, 61, 95
3, 109920, Note_off_c, 2, 56, 95
3, 109920, Note_off_c, 2, 49, 95
3, 109920, Note_on_c, 2, 61, 95
3, 109920, Note_on_c, 2, 56, 95
3, 109920, Note_on_c, 2, 49, 95
3, 111360, Note_off_c, 2, 61, 95
3, 111360, Note_off_c, 2, 56, 95
3, 111360, Note_off_c, 2, 49, 95
3, 111360, Note_on_c, 2, 64, 95
3, 111360, Note_on_c, 2, 59, 95
3, 111360, Note_on_c, 2, 49, 95
3, 111840, Note_off_c, 2, 64, 95
3, 111840, Note_off_c, 2, 59, 95
3, 111840, Note_off_c, 2, 49, 95
3, 111840, Note_on_c, 2, 61, 95
3, 111840, Note_on_c, 2, 56, 95
3, 111840, Note_on_c, 2, 49, 95
3, 112320, Note_off_c, 2, 61, 95
3, 112320, Note_off_c, 2, 56, 95
3, 112320, Note_off_c, 2, 49, 95
3, 112320, Note_on_c, 2, 66, 95
3, 112320, Note_on_c, 2, 61, 95
3, 112320, Note_on_c, 2, 59, 95
3, 112320, Note_on_c, 2, 49, 95
3, 112800, Note_off_c, 2, 66, 95
3, 112800, Note_off_c, 2, 61, 95
3, 112800, Note_off_c, 2, 59, 95
3, 112800, Note_off_c, 2, 49, 95
3, 112800, Note_on_c, 2, 66, 95
3, 112800, Note_on_c, 2, 61, 95
3, 112800, Note_on_c, 2, 56, 95
3, 112800, Note_on_c, 2, 49, 95
3, 113760, Note_off_c, 2, 66, 95
3, 113760, Note_off_c, 2, 61, 95
3, 113760, Note_off_c, 2, 56, 95
3, 113760, Note_off_c, 2, 49, 95
3, 113760, Note_on_c, 2, 56, 95
3, 113760, Note_on_c, 2, 49, 95
3, 114240, Note_off_c, 2, 56, 95
3, 114240, Note_off_c, 2, 49, 95
3, 114240, Note_on_c, 2, 59, 95
3, 114240, Note_on_c, 2, 49, 95
3, 114720, Note_off_c, 2, 59, 95
3, 114720, Note_off_c, 2, 49, 95
3, 114720, Note_on_c, 2, 61, 95
3, 114720, Note_on_c, 2, 56, 95
3, 114720, Note_on_c, 2, 49, 95
3, 115680, Note_off_c, 2, 61, 95
3, 115680, Note_off_c, 2, 56, 95
3, 115680, Note_off_c, 2, 49, 95
3, 115680, Note_on_c, 2, 61, 95
3, 115680, Note_on_c, 2, 56, 95
3, 115680, Note_on_c, 2, 49, 95
3, 116160, Note_off_c, 2, 61, 95
3, 116160, Note_off_c, 2, 56, 95
3, 116160, Note_off_c, 2, 49, 95
3, 116160, Note_on_c, 2, 61, 95
3, 116160, Note_on_c, 2, 56, 95
3, 116160, Note_on_c, 2, 49, 95
3, 116880, Note_off_c, 2, 61, 95
3, 116880, Note_off_c, 2, 56, 95
3, 116880, Note_off_c, 2, 49, 95
3, 116880, Note_on_c, 2, 61, 95
3, 116880, Note_on_c, 2, 56, 95
3, 116880, Note_on_c, 2, 49, 95
3, 117120, Note_off_c, 2, 61, 95
3, 117120, Note_off_c, 2, 56, 95
3, 117120, Note_off_c, 2, 49, 95
3, 117120, Note_on_c, 2, 61, 95
3, 117120, Note_on_c, 2, 56, 95
3, 117120, Note_on_c, 2, 49, 95
3, 117600, Note_off_c, 2, 61, 95
3, 117600, Note_off_c, 2, 56, 95
3, 117600, Note_off_c, 2, 49, 95
3, 117600, Note_on_c, 2, 61, 95
3, 117600, Note_on_c, 2, 56, 95
3, 117600, Note_on_c, 2, 49, 95
3, 118080, Note_off_c, 2, 61, 95
3, 118080, Note_off_c, 2, 56, 95
3, 118080, Note_off_c, 2, 49, 95
3, 118080, Note_on_c, 2, 61, 95
3, 118080, Note_on_c, 2, 56, 95
3, 118080, Note_on_c, 2, 49, 95
3, 118560, Note_off_c, 2, 61, 95
3, 118560, Note_off_c, 2, 56, 95
3, 118560, Note_off_c, 2, 49, 95
3, 118560, Note_on_c, 2, 61, 95
3, 118560, Note_on_c, 2, 56, 95
3, 118560, Note_on_c, 2, 49, 95
3, 119040, Note_off_c, 2, 61, 95
3, 119040, Note_off_c, 2, 56, 95
3, 119040, Note_off_c, 2, 49, 95
3, 119040, Note_on_c, 2, 64, 95
3, 119040, Note_on_c, 2, 59, 95
3, 119040, Note_on_c, 2, 49, 95
3, 119520, Note_off_c, 2, 64, 95
3, 119520, Note_off_c, 2, 59, 95
3, 119520, Note_off_c, 2, 49, 95
3, 119520, Note_on_c, 2, 61, 95
3, 119520, Note_on_c, 2, 56, 95
3, 119520, Note_on_c, 2, 49, 95
3, 120000, Note_off_c, 2, 61, 95
3, 120000, Note_off_c, 2, 56, 95
3, 120000, Note_off_c, 2, 49, 95
3, 120000, Note_on_c, 2, 66, 95
3, 120000, Note_on_c, 2, 61, 95
3, 120000, Note_on_c, 2, 58, 95
3, 120000, Note_on_c, 2, 49, 95
3, 120480, Note_off_c, 2, 66, 95
3, 120480, Note_off_c, 2, 61, 95
3, 120480, Note_off_c, 2, 58, 95
3, 120480, Note_off_c, 2, 49, 95
3, 120480, Note_on_c, 2, 65, 63
3, 120480, Note_on_c, 2, 61, 95
3, 120480, Note_on_c, 2, 56, 95
3, 120480, Note_on_c, 2, 49, 95
3, 121440, Note_off_c, 2, 65, 63
3, 121440, Note_off_c, 2, 61, 95
3, 121440, Note_off_c, 2, 56, 95
3, 121440, Note_off_c, 2, 49, 95
3, 121440, Note_on_c, 2, 56, 95
3, 121440, Note_on_c, 2, 49, 95
3, 121920, Note_off_c, 2, 56, 95
3, 121920, Note_off_c, 2, 49, 95
3, 121920, Note_on_c, 2, 59, 95
3, 121920, Note_on_c, 2, 49, 95
3, 122400, Note_off_c, 2, 59, 95
3, 122400, Note_off_c, 2, 49, 95
3, 122400, Note_on_c, 2, 59, 95
3, 122400, Note_on_c, 2, 49, 95
3, 122880, Note_off_c, 2, 59, 95
3, 122880, Note_off_c, 2, 49, 95
3, 122880, Note_on_c, 2, 61, 95
3, 122880, Note_on_c, 2, 56, 95
3, 122880, Note_on_c, 2, 49, 95
3, 123840, Note_off_c, 2, 61, 95
3, 123840, Note_off_c, 2, 56, 95
3, 123840, Note_off_c, 2, 49, 95
3, 123840, Note_on_c, 2, 61, 95
3, 123840, Note_on_c, 2, 56, 95
3, 123840, Note_on_c, 2, 49, 95
3, 124560, Note_off_c, 2, 61, 95
3, 124560, Note_off_c, 2, 56, 95
3, 124560, Note_off_c, 2, 49, 95
3, 124560, Note_on_c, 2, 61, 95
3, 124560, Note_on_c, 2, 56, 95
3, 124560, Note_on_c, 2, 49, 95
3, 124800, Note_off_c, 2, 61, 95
3, 124800, Note_off_c, 2, 56, 95
3, 124800, Note_off_c, 2, 49, 95
3, 124800, Note_on_c, 2, 61, 95
3, 124800, Note_on_c, 2, 56, 95
3, 124800, Note_on_c, 2, 49, 95
3, 125280, Note_off_c, 2, 61, 95
3, 125280, Note_off_c, 2, 56, 95
3, 125280, Note_off_c, 2, 49, 95
3, 125280, Note_on_c, 2, 61, 95
3, 125280, Note_on_c, 2, 56, 95
3, 125280, Note_on_c, 2, 49, 95
3, 125760, Note_off_c, 2, 61, 95
3, 125760, Note_off_c, 2, 56, 95
3, 125760, Note_off_c, 2, 49, 95
3, 125760, Note_on_c, 2, 61, 95
3, 125760, Note_on_c, 2, 56, 95
3, 125760, Note_on_c, 2, 49, 95
3, 126240, Note_off_c, 2, 61, 95
3, 126240, Note_off_c, 2, 56, 95
3, 126240, Note_off_c, 2, 49, 95
3, 126720, Note_on_c, 2, 63, 95
3, 126720, Note_on_c, 2, 59, 95
3, 126720, Note_on_c, 2, 54, 95
3, 126720, Note_on_c, 2, 47, 95
3, 127680, Note_off_c, 2, 63, 95
3, 127680, Note_off_c, 2, 59, 95
3, 127680, Note_off_c, 2, 54, 95
3, 127680, Note_off_c, 2, 47, 95
3, 127680, Note_on_c, 2, 63, 95
3, 127680, Note_on_c, 2, 59, 95
3, 127680, Note_on_c, 2, 54, 95
3, 127680, Note_on_c, 2, 47, 95
3, 128400, Note_off_c, 2, 63, 95
3, 128400, Note_off_c, 2, 59, 95
3, 128400, Note_off_c, 2, 54, 95
3, 128400, Note_off_c, 2, 47, 95
3, 128400, Note_on_c, 2, 63, 95
3, 128400, Note_on_c, 2, 59, 95
3, 128400, Note_on_c, 2, 54, 95
3, 128400, Note_on_c, 2, 47, 95
3, 128640, Note_off_c, 2, 63, 95
3, 128640, Note_off_c, 2, 59, 95
3, 128640, Note_off_c, 2, 54, 95
3, 128640, Note_off_c, 2, 47, 95
3, 128640, Note_on_c, 2, 63, 95
3, 128640, Note_on_c, 2, 59, 95
3, 128640, Note_on_c, 2, 54, 95
3, 128640, Note_on_c, 2, 47, 95
3, 129120, Note_off_c, 2, 63, 95
3, 129120, Note_off_c, 2, 59, 95
3, 129120, Note_off_c, 2, 54, 95
3, 129120, Note_off_c, 2, 47, 95
3, 129120, Note_on_c, 2, 63, 95
3, 129120, Note_on_c, 2, 59, 95
3, 129120, Note_on_c, 2, 54, 95
3, 129120, Note_on_c, 2, 47, 95
3, 129600, Note_off_c, 2, 63, 95
3, 129600, Note_off_c, 2, 59, 95
3, 129600, Note_off_c, 2, 54, 95
3, 129600, Note_off_c, 2, 47, 95
3, 129600, Note_on_c, 2, 63, 95
3, 129600, Note_on_c, 2, 59, 95
3, 129600, Note_on_c, 2, 54, 95
3, 129600, Note_on_c, 2, 47, 95
3, 130080, Note_off_c, 2, 63, 95
3, 130080, Note_off_c, 2, 59, 95
3, 130080, Note_off_c, 2, 54, 95
3, 130080, Note_off_c, 2, 47, 95
3, 130080, Note_on_c, 2, 63, 95
3, 130080, Note_on_c, 2, 59, 95
3, 130080, Note_on_c, 2, 54, 95
3, 130080, Note_on_c, 2, 47, 95
3, 130560, Note_off_c, 2, 63, 95
3, 130560, Note_off_c, 2, 59, 95
3, 130560, Note_off_c, 2, 54, 95
3, 130560, Note_off_c, 2, 47, 95
3, 130560, Note_on_c, 2, 61, 95
3, 130560, Note_on_c, 2, 57, 95
3, 130560, Note_on_c, 2, 52, 95
3, 130560, Note_on_c, 2, 45, 95
3, 131520, Note_off_c, 2, 61, 95
3, 131520, Note_off_c, 2, 57, 95
3, 131520, Note_off_c, 2, 52, 95
3, 131520, Note_off_c, 2, 45, 95
3, 131520, Note_on_c, 2, 61, 95
3, 131520, Note_on_c, 2, 57, 95
3, 131520, Note_on_c, 2, 52, 95
3, 131520, Note_on_c, 2, 45, 95
3, 132240, Note_off_c, 2, 61, 95
3, 132240, Note_off_c, 2, 57, 95
3, 132240, Note_off_c, 2, 52, 95
3, 132240, Note_off_c, 2, 45, 95
3, 132240, Note_on_c, 2, 61, 95
3, 132240, Note_on_c, 2, 57, 95
3, 132240, Note_on_c, 2, 52, 95
3, 132240, Note_on_c, 2, 45, 95
3, 132480, Note_off_c, 2, 61, 95
3, 132480, Note_off_c, 2, 57, 95
3, 132480, Note_off_c, 2, 52, 95
3, 132480, Note_off_c, 2, 45, 95
3, 132480, Note_on_c, 2, 61, 95
3, 132480, Note_on_c, 2, 57, 95
3, 132480, Note_on_c, 2, 52, 95
3, 132480, Note_on_c, 2, 45, 95
3, 132960, Note_off_c, 2, 61, 95
3, 132960, Note_off_c, 2, 57, 95
3, 132960, Note_off_c, 2, 52, 95
3, 132960, Note_off_c, 2, 45, 95
3, 132960, Note_on_c, 2, 61, 95
3, 132960, Note_on_c, 2, 57, 95
3, 132960, Note_on_c, 2, 52, 95
3, 132960, Note_on_c, 2, 45, 95
3, 133440, Note_off_c, 2, 61, 95
3, 133440, Note_off_c, 2, 57, 95
3, 133440, Note_off_c, 2, 52, 95
3, 133440, Note_off_c, 2, 45, 95
3, 133440, Note_on_c, 2, 61, 95
3, 133440, Note_on_c, 2, 57, 95
3, 133440, Note_on_c, 2, 52, 95
3, 133440, Note_on_c, 2, 45, 95
3, 133920, Note_off_c, 2, 61, 95
3, 133920, Note_off_c, 2, 57, 95
3, 133920, Note_off_c, 2, 52, 95
3, 133920, Note_off_c, 2, 45, 95
3, 133920, Note_on_c, 2, 61, 95
3, 133920, Note_on_c, 2, 57, 95
3, 133920, Note_on_c, 2, 52, 95
3, 133920, Note_on_c, 2, 45, 95
3, 134400, Note_off_c, 2, 61, 95
3, 134400, Note_off_c, 2, 57, 95
3, 134400, Note_off_c, 2, 52, 95
3, 134400, Note_off_c, 2, 45, 95
3, 134400, Note_on_c, 2, 59, 95
3, 134400, Note_on_c, 2, 56, 95
3, 134400, Note_on_c, 2, 52, 95
3, 134400, Note_on_c, 2, 47, 95
3, 134880, Note_off_c, 2, 59, 95
3, 134880, Note_off_c, 2, 56, 95
3, 134880, Note_off_c, 2, 52, 95
3, 134880, Note_off_c, 2, 47, 95
3, 134880, Note_on_c, 2, 61, 95
3, 134880, Note_on_c, 2, 57, 95
3, 134880, Note_on_c, 2, 52, 95
3, 134880, Note_on_c, 2, 45, 95
3, 135360, Note_off_c, 2, 61, 95
3, 135360, Note_off_c, 2, 57, 95
3, 135360, Note_off_c, 2, 52, 95
3, 135360, Note_off_c, 2, 45, 95
3, 135360, Note_on_c, 2, 59, 95
3, 135360, Note_on_c, 2, 56, 95
3, 135360, Note_on_c, 2, 52, 95
3, 135360, Note_on_c, 2, 47, 95
3, 135840, Note_off_c, 2, 59, 95
3, 135840, Note_off_c, 2, 56, 95
3, 135840, Note_off_c, 2, 52, 95
3, 135840, Note_off_c, 2, 47, 95
3, 135840, Note_on_c, 2, 61, 95
3, 135840, Note_on_c, 2, 57, 95
3, 135840, Note_on_c, 2, 52, 95
3, 135840, Note_on_c, 2, 45, 95
3, 136320, Note_off_c, 2, 61, 95
3, 136320, Note_off_c, 2, 57, 95
3, 136320, Note_off_c, 2, 52, 95
3, 136320, Note_off_c, 2, 45, 95
3, 136320, Note_on_c, 2, 59, 95
3, 136320, Note_on_c, 2, 56, 95
3, 136320, Note_on_c, 2, 52, 95
3, 136320, Note_on_c, 2, 47, 95
3, 136800, Note_off_c, 2, 59, 95
3, 136800, Note_off_c, 2, 56, 95
3, 136800, Note_off_c, 2, 52, 95
3, 136800, Note_off_c, 2, 47, 95
3, 136800, Note_on_c, 2, 63, 95
3, 136800, Note_on_c, 2, 59, 95
3, 136800, Note_on_c, 2, 54, 95
3, 136800, Note_on_c, 2, 47, 95
3, 137280, Note_off_c, 2, 63, 95
3, 137280, Note_off_c, 2, 59, 95
3, 137280, Note_off_c, 2, 54, 95
3, 137280, Note_off_c, 2, 47, 95
3, 137280, Note_on_c, 2, 63, 95
3, 137280, Note_on_c, 2, 59, 95
3, 137280, Note_on_c, 2, 54, 95
3, 137280, Note_on_c, 2, 47, 95
3, 137760, Note_off_c, 2, 63, 95
3, 137760, Note_off_c, 2, 59, 95
3, 137760, Note_off_c, 2, 54, 95
3, 137760, Note_off_c, 2, 47, 95
3, 137760, Note_on_c, 2, 63, 95
3, 137760, Note_on_c, 2, 59, 95
3, 137760, Note_on_c, 2, 54, 95
3, 137760, Note_on_c, 2, 47, 95
3, 138240, Note_off_c, 2, 63, 95
3, 138240, Note_off_c, 2, 59, 95
3, 138240, Note_off_c, 2, 54, 95
3, 138240, Note_off_c, 2, 47, 95
3, 138720, Note_on_c, 2, 61, 95
3, 138720, Note_on_c, 2, 56, 95
3, 138720, Note_on_c, 2, 49, 95
3, 139200, Note_off_c, 2, 61, 95
3, 139200, Note_off_c, 2, 56, 95
3, 139200, Note_off_c, 2, 49, 95
3, 139200, Note_on_c, 2, 61, 95
3, 139200, Note_on_c, 2, 56, 95
3, 139200, Note_on_c, 2, 49, 95
3, 139920, Note_off_c, 2, 61, 95
3, 139920, Note_off_c, 2, 56, 95
3, 139920, Note_off_c, 2, 49, 95
3, 139920, Note_on_c, 2, 61, 95
3, 139920, Note_on_c, 2, 56, 95
3, 139920, Note_on_c, 2, 49, 95
3, 140160, Note_off_c, 2, 61, 95
3, 140160, Note_off_c, 2, 56, 95
3, 140160, Note_off_c, 2, 49, 95
3, 140160, Note_on_c, 2, 61, 95
3, 140160, Note_on_c, 2, 56, 95
3, 140160, Note_on_c, 2, 49, 95
3, 140640, Note_off_c, 2, 61, 95
3, 140640, Note_off_c, 2, 56, 95
3, 140640, Note_off_c, 2, 49, 95
3, 140640, Note_on_c, 2, 61, 95
3, 140640, Note_on_c, 2, 56, 95
3, 140640, Note_on_c, 2, 49, 95
3, 141120, Note_off_c, 2, 61, 95
3, 141120, Note_off_c, 2, 56, 95
3, 141120, Note_off_c, 2, 49, 95
3, 141120, Note_on_c, 2, 61, 95
3, 141120, Note_on_c, 2, 56, 95
3, 141120, Note_on_c, 2, 49, 95
3, 141600, Note_off_c, 2, 61, 95
3, 141600, Note_off_c, 2, 56, 95
3, 141600, Note_off_c, 2, 49, 95
3, 141600, Note_on_c, 2, 61, 95
3, 141600, Note_on_c, 2, 56, 95
3, 141600, Note_on_c, 2, 49, 95
3, 142080, Note_off_c, 2, 61, 95
3, 142080, Note_off_c, 2, 56, 95
3, 142080, Note_off_c, 2, 49, 95
3, 142560, Note_on_c, 2, 64, 95
3, 142560, Note_on_c, 2, 59, 95
3, 142560, Note_on_c, 2, 54, 95
3, 142560, Note_on_c, 2, 47, 95
3, 143040, Note_off_c, 2, 64, 95
3, 143040, Note_off_c, 2, 59, 95
3, 143040, Note_off_c, 2, 54, 95
3, 143040, Note_off_c, 2, 47, 95
3, 143040, Note_on_c, 2, 64, 95
3, 143040, Note_on_c, 2, 59, 95
3, 143040, Note_on_c, 2, 54, 95
3, 143040, Note_on_c, 2, 47, 95
3, 143760, Note_off_c, 2, 64, 95
3, 143760, Note_off_c, 2, 59, 95
3, 143760, Note_off_c, 2, 54, 95
3, 143760, Note_off_c, 2, 47, 95
3, 143760, Note_on_c, 2, 64, 95
3, 143760, Note_on_c, 2, 59, 95
3, 143760, Note_on_c, 2, 54, 95
3, 143760, Note_on_c, 2, 47, 95
3, 144000, Note_off_c, 2, 64, 95
3, 144000, Note_off_c, 2, 59, 95
3, 144000, Note_off_c, 2, 54, 95
3, 144000, Note_off_c, 2, 47, 95
3, 144000, Note_on_c, 2, 64, 95
3, 144000, Note_on_c, 2, 59, 95
3, 144000, Note_on_c, 2, 54, 95
3, 144000, Note_on_c, 2, 47, 95
3, 144480, Note_off_c, 2, 64, 95
3, 144480, Note_off_c, 2, 59, 95
3, 144480, Note_off_c, 2, 54, 95
3, 144480, Note_off_c, 2, 47, 95
3, 144480, Note_on_c, 2, 64, 95
3, 144480, Note_on_c, 2, 59, 95
3, 144480, Note_on_c, 2, 54, 95
3, 144480, Note_on_c, 2, 47, 95
3, 144960, Note_off_c, 2, 64, 95
3, 144960, Note_off_c, 2, 59, 95
3, 144960, Note_off_c, 2, 54, 95
3, 144960, Note_off_c, 2, 47, 95
3, 144960, Note_on_c, 2, 64, 95
3, 144960, Note_on_c, 2, 59, 95
3, 144960, Note_on_c, 2, 54, 95
3, 144960, Note_on_c, 2, 47, 95
3, 145440, Note_off_c, 2, 64, 95
3, 145440, Note_off_c, 2, 59, 95
3, 145440, Note_off_c, 2, 54, 95
3, 145440, Note_off_c, 2, 47, 95
3, 145440, Note_on_c, 2, 64, 95
3, 145440, Note_on_c, 2, 59, 95
3, 145440, Note_on_c, 2, 54, 95
3, 145440, Note_on_c, 2, 47, 95
3, 145920, Note_off_c, 2, 64, 95
3, 145920, Note_off_c, 2, 59, 95
3, 145920, Note_off_c, 2, 54, 95
3, 145920, Note_off_c, 2, 47, 95
3, 145920, Note_on_c, 2, 61, 95
3, 145920, Note_on_c, 2, 57, 95
3, 145920, Note_on_c, 2, 52, 95
3, 145920, Note_on_c, 2, 45, 95
3, 146880, Note_off_c, 2, 61, 95
3, 146880, Note_off_c, 2, 57, 95
3, 146880, Note_off_c, 2, 52, 95
3, 146880, Note_off_c, 2, 45, 95
3, 146880, Note_on_c, 2, 61, 95
3, 146880, Note_on_c, 2, 57, 95
3, 146880, Note_on_c, 2, 52, 95
3, 146880, Note_on_c, 2, 45, 95
3, 147600, Note_off_c, 2, 61, 95
3, 147600, Note_off_c, 2, 57, 95
3, 147600, Note_off_c, 2, 52, 95
3, 147600, Note_off_c, 2, 45, 95
3, 147600, Note_on_c, 2, 61, 95
3, 147600, Note_on_c, 2, 57, 95
3, 147600, Note_on_c, 2, 52, 95
3, 147600, Note_on_c, 2, 45, 95
3, 147840, Note_off_c, 2, 61, 95
3, 147840, Note_off_c, 2, 57, 95
3, 147840, Note_off_c, 2, 52, 95
3, 147840, Note_off_c, 2, 45, 95
3, 147840, Note_on_c, 2, 61, 95
3, 147840, Note_on_c, 2, 57, 95
3, 147840, Note_on_c, 2, 52, 95
3, 147840, Note_on_c, 2, 45, 95
3, 148320, Note_off_c, 2, 61, 95
3, 148320, Note_off_c, 2, 57, 95
3, 148320, Note_off_c, 2, 52, 95
3, 148320, Note_off_c, 2, 45, 95
3, 148320, Note_on_c, 2, 61, 95
3, 148320, Note_on_c, 2, 57, 95
3, 148320, Note_on_c, 2, 52, 95
3, 148320, Note_on_c, 2, 45, 95
3, 148800, Note_off_c, 2, 61, 95
3, 148800, Note_off_c, 2, 57, 95
3, 148800, Note_off_c, 2, 52, 95
3, 148800, Note_off_c, 2, 45, 95
3, 149280, Note_on_c, 2, 63, 95
3, 149280, Note_on_c, 2, 59, 95
3, 149760, Note_off_c, 2, 63, 95
3, 149760, Note_off_c, 2, 59, 95
3, 149760, Note_on_c, 2, 61, 95
3, 149760, Note_on_c, 2, 57, 95
3, 150240, Note_off_c, 2, 61, 95
3, 150240, Note_off_c, 2, 57, 95
3, 150240, Note_on_c, 2, 52, 95
3, 150720, Note_off_c, 2, 52, 95
3, 150720, Note_on_c, 2, 63, 95
3, 150720, Note_on_c, 2, 59, 95
3, 151200, Note_off_c, 2, 63, 95
3, 151200, Note_off_c, 2, 59, 95
3, 151200, Note_on_c, 2, 61, 95
3, 151200, Note_on_c, 2, 57, 95
3, 151680, Note_off_c, 2, 61, 95
3, 151680, Note_off_c, 2, 57, 95
3, 151680, Note_on_c, 2, 63, 95
3, 151680, Note_on_c, 2, 59, 95
3, 151680, Note_on_c, 2, 54, 95
3, 151680, Note_on_c, 2, 47, 95
3, 152160, Note_off_c, 2, 63, 95
3, 152160, Note_off_c, 2, 59, 95
3, 152160, Note_off_c, 2, 54, 95
3, 152160, Note_off_c, 2, 47, 95
3, 152160, Note_on_c, 2, 63, 95
3, 152160, Note_on_c, 2, 59, 95
3, 152160, Note_on_c, 2, 54, 95
3, 152160, Note_on_c, 2, 47, 95
3, 152640, Note_off_c, 2, 63, 95
3, 152640, Note_off_c, 2, 59, 95
3, 152640, Note_off_c, 2, 54, 95
3, 152640, Note_off_c, 2, 47, 95
3, 152640, Note_on_c, 2, 63, 95
3, 152640, Note_on_c, 2, 59, 95
3, 152640, Note_on_c, 2, 54, 95
3, 152640, Note_on_c, 2, 47, 95
3, 153120, Note_off_c, 2, 63, 95
3, 153120, Note_off_c, 2, 59, 95
3, 153120, Note_off_c, 2, 54, 95
3, 153120, Note_off_c, 2, 47, 95
3, 153120, Note_on_c, 2, 63, 95
3, 153120, Note_on_c, 2, 59, 95
3, 153120, Note_on_c, 2, 54, 95
3, 153120, Note_on_c, 2, 47, 95
3, 153600, Note_off_c, 2, 63, 95
3, 153600, Note_off_c, 2, 59, 95
3, 153600, Note_off_c, 2, 54, 95
3, 153600, Note_off_c, 2, 47, 95
3, 153600, Note_on_c, 2, 61, 95
3, 153600, Note_on_c, 2, 56, 95
3, 153600, Note_on_c, 2, 49, 95
3, 154560, Note_off_c, 2, 61, 95
3, 154560, Note_off_c, 2, 56, 95
3, 154560, Note_off_c, 2, 49, 95
3, 154560, Note_on_c, 2, 61, 95
3, 154560, Note_on_c, 2, 56, 95
3, 154560, Note_on_c, 2, 49, 95
3, 156000, Note_off_c, 2, 61, 95
3, 156000, Note_off_c, 2, 56, 95
3, 156000, Note_off_c, 2, 49, 95
3, 156000, Note_on_c, 2, 61, 95
3, 156000, Note_on_c, 2, 56, 95
3, 156000, Note_on_c, 2, 49, 95
3, 157440, Note_off_c, 2, 61, 95
3, 157440, Note_off_c, 2, 56, 95
3, 157440, Note_off_c, 2, 49, 95
3, 157440, Note_on_c, 2, 64, 95
3, 157440, Note_on_c, 2, 59, 95
3, 157440, Note_on_c, 2, 49, 95
3, 157920, Note_off_c, 2, 64, 95
3, 157920, Note_off_c, 2, 59, 95
3, 157920, Note_off_c, 2, 49, 95
3, 157920, Note_on_c, 2, 61, 95
3, 157920, Note_on_c, 2, 56, 95
3, 157920, Note_on_c, 2, 49, 95
3, 158400, Note_off_c, 2, 61, 95
3, 158400, Note_off_c, 2, 56, 95
3, 158400, Note_off_c, 2, 49, 95
3, 158400, Note_on_c, 2, 66, 95
3, 158400, Note_on_c, 2, 61, 95
3, 158400, Note_on_c, 2, 58, 95
3, 158400, Note_on_c, 2, 49, 95
3, 158880, Note_off_c, 2, 66, 95
3, 158880, Note_off_c, 2, 61, 95
3, 158880, Note_off_c, 2, 58, 95
3, 158880, Note_off_c, 2, 49, 95
3, 158880, Note_on_c, 2, 65, 63
3, 158880, Note_on_c, 2, 61, 95
3, 158880, Note_on_c, 2, 56, 95
3, 158880, Note_on_c, 2, 49, 95
3, 159840, Note_off_c, 2, 65, 63
3, 159840, Note_off_c, 2, 61, 95
3, 159840, Note_off_c, 2, 56, 95
3, 159840, Note_off_c, 2, 49, 95
3, 159840, Note_on_c, 2, 56, 95
3, 159840, Note_on_c, 2, 49, 95
3, 160320, Note_off_c, 2, 56, 95
3, 160320, Note_off_c, 2, 49, 95
3, 160320, Note_on_c, 2, 59, 95
3, 160320, Note_on_c, 2, 49, 95
3, 160800, Note_off_c, 2, 59, 95
3, 160800, Note_off_c, 2, 49, 95
3, 160800, Note_on_c, 2, 61, 95
3, 160800, Note_on_c, 2, 56, 95
3, 160800, Note_on_c, 2, 49, 95
3, 162240, Note_off_c, 2, 61, 95
3, 162240, Note_off_c, 2, 56, 95
3, 162240, Note_off_c, 2, 49, 95
3, 162240, Note_on_c, 2, 61, 95
3, 162240, Note_on_c, 2, 56, 95
3, 162240, Note_on_c, 2, 49, 95
3, 162960, Note_off_c, 2, 61, 95
3, 162960, Note_off_c, 2, 56, 95
3, 162960, Note_off_c, 2, 49, 95
3, 162960, Note_on_c, 2, 61, 95
3, 162960, Note_on_c, 2, 56, 95
3, 162960, Note_on_c, 2, 49, 95
3, 163200, Note_off_c, 2, 61, 95
3, 163200, Note_off_c, 2, 56, 95
3, 163200, Note_off_c, 2, 49, 95
3, 163200, Note_on_c, 2, 61, 95
3, 163200, Note_on_c, 2, 56, 95
3, 163200, Note_on_c, 2, 49, 95
3, 163680, Note_off_c, 2, 61, 95
3, 163680, Note_off_c, 2, 56, 95
3, 163680, Note_off_c, 2, 49, 95
3, 163680, Note_on_c, 2, 61, 95
3, 163680, Note_on_c, 2, 56, 95
3, 163680, Note_on_c, 2, 49, 95
3, 165120, Note_off_c, 2, 61, 95
3, 165120, Note_off_c, 2, 56, 95
3, 165120, Note_off_c, 2, 49, 95
3, 165120, Note_on_c, 2, 64, 95
3, 165120, Note_on_c, 2, 59, 95
3, 165120, Note_on_c, 2, 49, 95
3, 165600, Note_off_c, 2, 64, 95
3, 165600, Note_off_c, 2, 59, 95
3, 165600, Note_off_c, 2, 49, 95
3, 165600, Note_on_c, 2, 61, 95
3, 165600, Note_on_c, 2, 56, 95
3, 165600, Note_on_c, 2, 49, 95
3, 166080, Note_off_c, 2, 61, 95
3, 166080, Note_off_c, 2, 56, 95
3, 166080, Note_off_c, 2, 49, 95
3, 166080, Note_on_c, 2, 66, 95
3, 166080, Note_on_c, 2, 61, 95
3, 166080, Note_on_c, 2, 58, 95
3, 166080, Note_on_c, 2, 49, 95
3, 166560, Note_off_c, 2, 66, 95
3, 166560, Note_off_c, 2, 61, 95
3, 166560, Note_off_c, 2, 58, 95
3, 166560, Note_off_c, 2, 49, 95
3, 166560, Note_on_c, 2, 65, 63
3, 166560, Note_on_c, 2, 61, 95
3, 166560, Note_on_c, 2, 56, 95
3, 166560, Note_on_c, 2, 49, 95
3, 167520, Note_off_c, 2, 65, 63
3, 167520, Note_off_c, 2, 61, 95
3, 167520, Note_off_c, 2, 56, 95
3, 167520, Note_off_c, 2, 49, 95
3, 167520, Note_on_c, 2, 76, 95
3, 167520, Note_on_c, 2, 71, 95
3, 168000, Note_off_c, 2, 76, 95
3, 168000, Note_off_c, 2, 71, 95
3, 168000, Note_on_c, 2, 76, 95
3, 168000, Note_on_c, 2, 71, 95
3, 168480, Note_off_c, 2, 76, 95
3, 168480, Note_off_c, 2, 71, 95
3, 168480, Note_on_c, 2, 73, 95
3, 168480, Note_on_c, 2, 68, 95
3, 168960, Note_off_c, 2, 73, 95
3, 168960, Note_off_c, 2, 68, 95
3, 168960, Note_on_c, 2, 61, 95
3, 168960, Note_on_c, 2, 56, 95
3, 168960, Note_on_c, 2, 49, 95
3, 169920, Note_off_c, 2, 61, 95
3, 169920, Note_off_c, 2, 56, 95
3, 169920, Note_off_c, 2, 49, 95
3, 169920, Note_on_c, 2, 61, 95
3, 169920, Note_on_c, 2, 56, 95
3, 169920, Note_on_c, 2, 49, 95
3, 171360, Note_off_c, 2, 61, 95
3, 171360, Note_off_c, 2, 56, 95
3, 171360, Note_off_c, 2, 49, 95
3, 171360, Note_on_c, 2, 61, 95
3, 171360, Note_on_c, 2, 56, 95
3, 171360, Note_on_c, 2, 49, 95
3, 172800, Note_off_c, 2, 61, 95
3, 172800, Note_off_c, 2, 56, 95
3, 172800, Note_off_c, 2, 49, 95
3, 172800, Note_on_c, 2, 64, 95
3, 172800, Note_on_c, 2, 59, 95
3, 172800, Note_on_c, 2, 49, 95
3, 173280, Note_off_c, 2, 64, 95
3, 173280, Note_off_c, 2, 59, 95
3, 173280, Note_off_c, 2, 49, 95
3, 173280, Note_on_c, 2, 61, 95
3, 173280, Note_on_c, 2, 56, 95
3, 173280, Note_on_c, 2, 49, 95
3, 173760, Note_off_c, 2, 61, 95
3, 173760, Note_off_c, 2, 56, 95
3, 173760, Note_off_c, 2, 49, 95
3, 173760, Note_on_c, 2, 66, 95
3, 173760, Note_on_c, 2, 61, 95
3, 173760, Note_on_c, 2, 58, 95
3, 173760, Note_on_c, 2, 49, 95
3, 174240, Note_off_c, 2, 66, 95
3, 174240, Note_off_c, 2, 61, 95
3, 174240, Note_off_c, 2, 58, 95
3, 174240, Note_off_c, 2, 49, 95
3, 174240, Note_on_c, 2, 65, 63
3, 174240, Note_on_c, 2, 61, 95
3, 174240, Note_on_c, 2, 56, 95
3, 174240, Note_on_c, 2, 49, 95
3, 175200, Note_off_c, 2, 65, 63
3, 175200, Note_off_c, 2, 61, 95
3, 175200, Note_off_c, 2, 56, 95
3, 175200, Note_off_c, 2, 49, 95
3, 175200, Note_on_c, 2, 56, 95
3, 175200, Note_on_c, 2, 49, 95
3, 175680, Note_off_c, 2, 56, 95
3, 175680, Note_off_c, 2, 49, 95
3, 175680, Note_on_c, 2, 59, 95
3, 175680, Note_on_c, 2, 49, 95
3, 176160, Note_off_c, 2, 59, 95
3, 176160, Note_off_c, 2, 49, 95
3, 176160, Note_on_c, 2, 61, 95
3, 176160, Note_on_c, 2, 56, 95
3, 176160, Note_on_c, 2, 49, 95
3, 177120, Note_off_c, 2, 61, 95
3, 177120, Note_off_c, 2, 56, 95
3, 177120, Note_off_c, 2, 49, 95
3, 177120, Note_on_c, 2, 61, 95
3, 177120, Note_on_c, 2, 56, 95
3, 177120, Note_on_c, 2, 49, 95
3, 177600, Note_off_c, 2, 61, 95
3, 177600, Note_off_c, 2, 56, 95
3, 177600, Note_off_c, 2, 49, 95
3, 177600, Note_on_c, 2, 61, 95
3, 177600, Note_on_c, 2, 56, 95
3, 177600, Note_on_c, 2, 49, 95
3, 179040, Note_off_c, 2, 61, 95
3, 179040, Note_off_c, 2, 56, 95
3, 179040, Note_off_c, 2, 49, 95
3, 179040, Note_on_c, 2, 61, 95
3, 179040, Note_on_c, 2, 56, 95
3, 179040, Note_on_c, 2, 49, 95
3, 180480, Note_off_c, 2, 61, 95
3, 180480, Note_off_c, 2, 56, 95
3, 180480, Note_off_c, 2, 49, 95
3, 180480, Note_on_c, 2, 64, 95
3, 180480, Note_on_c, 2, 59, 95
3, 180480, Note_on_c, 2, 49, 95
3, 180960, Note_off_c, 2, 64, 95
3, 180960, Note_off_c, 2, 59, 95
3, 180960, Note_off_c, 2, 49, 95
3, 180960, Note_on_c, 2, 61, 95
3, 180960, Note_on_c, 2, 56, 95
3, 180960, Note_on_c, 2, 49, 95
3, 181440, Note_off_c, 2, 61, 95
3, 181440, Note_off_c, 2, 56, 95
3, 181440, Note_off_c, 2, 49, 95
3, 181440, Note_on_c, 2, 66, 95
3, 181440, Note_on_c, 2, 61, 95
3, 181440, Note_on_c, 2, 58, 95
3, 181440, Note_on_c, 2, 49, 95
3, 181920, Note_off_c, 2, 66, 95
3, 181920, Note_off_c, 2, 61, 95
3, 181920, Note_off_c, 2, 58, 95
3, 181920, Note_off_c, 2, 49, 95
3, 181920, Note_on_c, 2, 65, 63
3, 181920, Note_on_c, 2, 61, 95
3, 181920, Note_on_c, 2, 56, 95
3, 181920, Note_on_c, 2, 49, 95
3, 182880, Note_off_c, 2, 65, 63
3, 182880, Note_off_c, 2, 61, 95
3, 182880, Note_off_c, 2, 56, 95
3, 182880, Note_off_c, 2, 49, 95
3, 182880, Note_on_c, 2, 61, 95
3, 182880, Note_on_c, 2, 56, 95
3, 182880, Note_on_c, 2, 49, 95
3, 183360, Note_off_c, 2, 61, 95
3, 183360, Note_off_c, 2, 56, 95
3, 183360, Note_off_c, 2, 49, 95
3, 183360, Note_on_c, 2, 61, 95
3, 183360, Note_on_c, 2, 56, 95
3, 183360, Note_on_c, 2, 49, 95
3, 183840, Note_off_c, 2, 61, 95
3, 183840, Note_off_c, 2, 56, 95
3, 183840, Note_off_c, 2, 49, 95
3, 183840, Note_on_c, 2, 59, 95
3, 183840, Note_on_c, 2, 49, 95
3, 184320, Note_off_c, 2, 59, 95
3, 184320, Note_off_c, 2, 49, 95
3, 184320, Note_on_c, 2, 61, 95
3, 184320, Note_on_c, 2, 56, 95
3, 184320, Note_on_c, 2, 49, 95
3, 185280, Note_off_c, 2, 61, 95
3, 185280, Note_off_c, 2, 56, 95
3, 185280, Note_off_c, 2, 49, 95
3, 185280, Note_on_c, 2, 61, 95
3, 185280, Note_on_c, 2, 56, 95
3, 185280, Note_on_c, 2, 49, 95
3, 186000, Note_off_c, 2, 61, 95
3, 186000, Note_off_c, 2, 56, 95
3, 186000, Note_off_c, 2, 49, 95
3, 186000, Note_on_c, 2, 61, 95
3, 186000, Note_on_c, 2, 56, 95
3, 186000, Note_on_c, 2, 49, 95
3, 186240, Note_off_c, 2, 61, 95
3, 186240, Note_off_c, 2, 56, 95
3, 186240, Note_off_c, 2, 49, 95
3, 186240, Note_on_c, 2, 61, 95
3, 186240, Note_on_c, 2, 56, 95
3, 186240, Note_on_c, 2, 49, 95
3, 186720, Note_off_c, 2, 61, 95
3, 186720, Note_off_c, 2, 56, 95
3, 186720, Note_off_c, 2, 49, 95
3, 186720, Note_on_c, 2, 61, 95
3, 186720, Note_on_c, 2, 56, 95
3, 186720, Note_on_c, 2, 49, 95
3, 188160, Note_off_c, 2, 61, 95
3, 188160, Note_off_c, 2, 56, 95
3, 188160, Note_off_c, 2, 49, 95
3, 188160, Note_on_c, 2, 64, 95
3, 188160, Note_on_c, 2, 59, 95
3, 188160, Note_on_c, 2, 49, 95
3, 188640, Note_off_c, 2, 64, 95
3, 188640, Note_off_c, 2, 59, 95
3, 188640, Note_off_c, 2, 49, 95
3, 188640, Note_on_c, 2, 61, 95
3, 188640, Note_on_c, 2, 56, 95
3, 188640, Note_on_c, 2, 49, 95
3, 189120, Note_off_c, 2, 61, 95
3, 189120, Note_off_c, 2, 56, 95
3, 189120, Note_off_c, 2, 49, 95
3, 189120, Note_on_c, 2, 66, 95
3, 189120, Note_on_c, 2, 61, 95
3, 189120, Note_on_c, 2, 59, 95
3, 189120, Note_on_c, 2, 49, 95
3, 189600, Note_off_c, 2, 66, 95
3, 189600, Note_off_c, 2, 61, 95
3, 189600, Note_off_c, 2, 59, 95
3, 189600, Note_off_c, 2, 49, 95
3, 189600, Note_on_c, 2, 66, 95
3, 189600, Note_on_c, 2, 61, 95
3, 189600, Note_on_c, 2, 56, 95
3, 189600, Note_on_c, 2, 49, 95
3, 190560, Note_off_c, 2, 66, 95
3, 190560, Note_off_c, 2, 61, 95
3, 190560, Note_off_c, 2, 56, 95
3, 190560, Note_off_c, 2, 49, 95
3, 190560, Note_on_c, 2, 56, 95
3, 190560, Note_on_c, 2, 49, 95
3, 191040, Note_off_c, 2, 56, 95
3, 191040, Note_off_c, 2, 49, 95
3, 191040, Note_on_c, 2, 59, 95
3, 191040, Note_on_c, 2, 49, 95
3, 191520, Note_off_c, 2, 59, 95
3, 191520, Note_off_c, 2, 49, 95
3, 191520, Note_on_c, 2, 61, 95
3, 191520, Note_on_c, 2, 56, 95
3, 191520, Note_on_c, 2, 49, 95
3, 192480, Note_off_c, 2, 61, 95
3, 192480, Note_off_c, 2, 56, 95
3, 192480, Note_off_c, 2, 49, 95
3, 192480, Note_on_c, 2, 61, 95
3, 192480, Note_on_c, 2, 56, 95
3, 192480, Note_on_c, 2, 49, 95
3, 192960, Note_off_c, 2, 61, 95
3, 192960, Note_off_c, 2, 56, 95
3, 192960, Note_off_c, 2, 49, 95
3, 192960, Note_on_c, 2, 61, 95
3, 192960, Note_on_c, 2, 56, 95
3, 192960, Note_on_c, 2, 49, 95
3, 193680, Note_off_c, 2, 61, 95
3, 193680, Note_off_c, 2, 56, 95
3, 193680, Note_off_c, 2, 49, 95
3, 193680, Note_on_c, 2, 61, 95
3, 193680, Note_on_c, 2, 56, 95
3, 193680, Note_on_c, 2, 49, 95
3, 193920, Note_off_c, 2, 61, 95
3, 193920, Note_off_c, 2, 56, 95
3, 193920, Note_off_c, 2, 49, 95
3, 193920, Note_on_c, 2, 61, 95
3, 193920, Note_on_c, 2, 56, 95
3, 193920, Note_on_c, 2, 49, 95
3, 194400, Note_off_c, 2, 61, 95
3, 194400, Note_off_c, 2, 56, 95
3, 194400, Note_off_c, 2, 49, 95
3, 194400, Note_on_c, 2, 61, 95
3, 194400, Note_on_c, 2, 56, 95
3, 194400, Note_on_c, 2, 49, 95
3, 194880, Note_off_c, 2, 61, 95
3, 194880, Note_off_c, 2, 56, 95
3, 194880, Note_off_c, 2, 49, 95
3, 194880, Note_on_c, 2, 61, 95
3, 194880, Note_on_c, 2, 56, 95
3, 194880, Note_on_c, 2, 49, 95
3, 195360, Note_off_c, 2, 61, 95
3, 195360, Note_off_c, 2, 56, 95
3, 195360, Note_off_c, 2, 49, 95
3, 195360, Note_on_c, 2, 61, 95
3, 195360, Note_on_c, 2, 56, 95
3, 195360, Note_on_c, 2, 49, 95
3, 195840, Note_off_c, 2, 61, 95
3, 195840, Note_off_c, 2, 56, 95
3, 195840, Note_off_c, 2, 49, 95
3, 195840, Note_on_c, 2, 64, 95
3, 195840, Note_on_c, 2, 59, 95
3, 195840, Note_on_c, 2, 49, 95
3, 196320, Note_off_c, 2, 64, 95
3, 196320, Note_off_c, 2, 59, 95
3, 196320, Note_off_c, 2, 49, 95
3, 196320, Note_on_c, 2, 61, 95
3, 196320, Note_on_c, 2, 56, 95
3, 196320, Note_on_c, 2, 49, 95
3, 196800, Note_off_c, 2, 61, 95
3, 196800, Note_off_c, 2, 56, 95
3, 196800, Note_off_c, 2, 49, 95
3, 196800, Note_on_c, 2, 66, 95
3, 196800, Note_on_c, 2, 61, 95
3, 196800, Note_on_c, 2, 58, 95
3, 196800, Note_on_c, 2, 49, 95
3, 197280, Note_off_c, 2, 66, 95
3, 197280, Note_off_c, 2, 61, 95
3, 197280, Note_off_c, 2, 58, 95
3, 197280, Note_off_c, 2, 49, 95
3, 197280, Note_on_c, 2, 65, 63
3, 197280, Note_on_c, 2, 61, 95
3, 197280, Note_on_c, 2, 56, 95
3, 197280, Note_on_c, 2, 49, 95
3, 198240, Note_off_c, 2, 65, 63
3, 198240, Note_off_c, 2, 61, 95
3, 198240, Note_off_c, 2, 56, 95
3, 198240, Note_off_c, 2, 49, 95
3, 198240, Note_on_c, 2, 56, 95
3, 198240, Note_on_c, 2, 49, 95
3, 198720, Note_off_c, 2, 56, 95
3, 198720, Note_off_c, 2, 49, 95
3, 198720, Note_on_c, 2, 59, 95
3, 198720, Note_on_c, 2, 49, 95
3, 199200, Note_off_c, 2, 59, 95
3, 199200, Note_off_c, 2, 49, 95
3, 199200, Note_on_c, 2, 59, 95
3, 199200, Note_on_c, 2, 49, 95
3, 199680, Note_off_c, 2, 59, 95
3, 199680, Note_off_c, 2, 49, 95
3, 199680, Note_on_c, 2, 61, 95
3, 199680, Note_on_c, 2, 56, 95
3, 199680, Note_on_c, 2, 49, 95
3, 200640, Note_off_c, 2, 61, 95
3, 200640, Note_off_c, 2, 56, 95
3, 200640, Note_off_c, 2, 49, 95
3, 200640, Note_on_c, 2, 61, 95
3, 200640, Note_on_c, 2, 56, 95
3, 200640, Note_on_c, 2, 49, 95
3, 201360, Note_off_c, 2, 61, 95
3, 201360, Note_off_c, 2, 56, 95
3, 201360, Note_off_c, 2, 49, 95
3, 201360, Note_on_c, 2, 61, 95
3, 201360, Note_on_c, 2, 56, 95
3, 201360, Note_on_c, 2, 49, 95
3, 201600, Note_off_c, 2, 61, 95
3, 201600, Note_off_c, 2, 56, 95
3, 201600, Note_off_c, 2, 49, 95
3, 201600, Note_on_c, 2, 61, 95
3, 201600, Note_on_c, 2, 56, 95
3, 201600, Note_on_c, 2, 49, 95
3, 202080, Note_off_c, 2, 61, 95
3, 202080, Note_off_c, 2, 56, 95
3, 202080, Note_off_c, 2, 49, 95
3, 202080, Note_on_c, 2, 61, 95
3, 202080, Note_on_c, 2, 56, 95
3, 202080, Note_on_c, 2, 49, 95
3, 202560, Note_off_c, 2, 61, 95
3, 202560, Note_off_c, 2, 56, 95
3, 202560, Note_off_c, 2, 49, 95
3, 202560, Note_on_c, 2, 61, 95
3, 202560, Note_on_c, 2, 56, 95
3, 202560, Note_on_c, 2, 49, 95
3, 203040, Note_off_c, 2, 61, 95
3, 203040, Note_off_c, 2, 56, 95
3, 203040, Note_off_c, 2, 49, 95
3, 203520, Note_on_c, 2, 63, 95
3, 203520, Note_on_c, 2, 59, 95
3, 203520, Note_on_c, 2, 54, 95
3, 203520, Note_on_c, 2, 47, 95
3, 204480, Note_off_c, 2, 63, 95
3, 204480, Note_off_c, 2, 59, 95
3, 204480, Note_off_c, 2, 54, 95
3, 204480, Note_off_c, 2, 47, 95
3, 204480, Note_on_c, 2, 63, 95
3, 204480, Note_on_c, 2, 59, 95
3, 204480, Note_on_c, 2, 54, 95
3, 204480, Note_on_c, 2, 47, 95
3, 205200, Note_off_c, 2, 63, 95
3, 205200, Note_off_c, 2, 59, 95
3, 205200, Note_off_c, 2, 54, 95
3, 205200, Note_off_c, 2, 47, 95
3, 205200, Note_on_c, 2, 63, 95
3, 205200, Note_on_c, 2, 59, 95
3, 205200, Note_on_c, 2, 54, 95
3, 205200, Note_on_c, 2, 47, 95
3, 205440, Note_off_c, 2, 63, 95
3, 205440, Note_off_c, 2, 59, 95
3, 205440, Note_off_c, 2, 54, 95
3, 205440, Note_off_c, 2, 47, 95
3, 205440, Note_on_c, 2, 63, 95
3, 205440, Note_on_c, 2, 59, 95
3, 205440, Note_on_c, 2, 54, 95
3, 205440, Note_on_c, 2, 47, 95
3, 205920, Note_off_c, 2, 63, 95
3, 205920, Note_off_c, 2, 59, 95
3, 205920, Note_off_c, 2, 54, 95
3, 205920, Note_off_c, 2, 47, 95
3, 205920, Note_on_c, 2, 63, 95
3, 205920, Note_on_c, 2, 59, 95
3, 205920, Note_on_c, 2, 54, 95
3, 205920, Note_on_c, 2, 47, 95
3, 206400, Note_off_c, 2, 63, 95
3, 206400, Note_off_c, 2, 59, 95
3, 206400, Note_off_c, 2, 54, 95
3, 206400, Note_off_c, 2, 47, 95
3, 206400, Note_on_c, 2, 63, 95
3, 206400, Note_on_c, 2, 59, 95
3, 206400, Note_on_c, 2, 54, 95
3, 206400, Note_on_c, 2, 47, 95
3, 206880, Note_off_c, 2, 63, 95
3, 206880, Note_off_c, 2, 59, 95
3, 206880, Note_off_c, 2, 54, 95
3, 206880, Note_off_c, 2, 47, 95
3, 206880, Note_on_c, 2, 63, 95
3, 206880, Note_on_c, 2, 59, 95
3, 206880, Note_on_c, 2, 54, 95
3, 206880, Note_on_c, 2, 47, 95
3, 207360, Note_off_c, 2, 63, 95
3, 207360, Note_off_c, 2, 59, 95
3, 207360, Note_off_c, 2, 54, 95
3, 207360, Note_off_c, 2, 47, 95
3, 207360, Note_on_c, 2, 61, 95
3, 207360, Note_on_c, 2, 57, 95
3, 207360, Note_on_c, 2, 52, 95
3, 207360, Note_on_c, 2, 45, 95
3, 208320, Note_off_c, 2, 61, 95
3, 208320, Note_off_c, 2, 57, 95
3, 208320, Note_off_c, 2, 52, 95
3, 208320, Note_off_c, 2, 45, 95
3, 208320, Note_on_c, 2, 61, 95
3, 208320, Note_on_c, 2, 57, 95
3, 208320, Note_on_c, 2, 52, 95
3, 208320, Note_on_c, 2, 45, 95
3, 209040, Note_off_c, 2, 61, 95
3, 209040, Note_off_c, 2, 57, 95
3, 209040, Note_off_c, 2, 52, 95
3, 209040, Note_off_c, 2, 45, 95
3, 209040, Note_on_c, 2, 61, 95
3, 209040, Note_on_c, 2, 57, 95
3, 209040, Note_on_c, 2, 52, 95
3, 209040, Note_on_c, 2, 45, 95
3, 209280, Note_off_c, 2, 61, 95
3, 209280, Note_off_c, 2, 57, 95
3, 209280, Note_off_c, 2, 52, 95
3, 209280, Note_off_c, 2, 45, 95
3, 209280, Note_on_c, 2, 61, 95
3, 209280, Note_on_c, 2, 57, 95
3, 209280, Note_on_c, 2, 52, 95
3, 209280, Note_on_c, 2, 45, 95
3, 209760, Note_off_c, 2, 61, 95
3, 209760, Note_off_c, 2, 57, 95
3, 209760, Note_off_c, 2, 52, 95
3, 209760, Note_off_c, 2, 45, 95
3, 209760, Note_on_c, 2, 61, 95
3, 209760, Note_on_c, 2, 57, 95
3, 209760, Note_on_c, 2, 52, 95
3, 209760, Note_on_c, 2, 45, 95
3, 210240, Note_off_c, 2, 61, 95
3, 210240, Note_off_c, 2, 57, 95
3, 210240, Note_off_c, 2, 52, 95
3, 210240, Note_off_c, 2, 45, 95
3, 210240, Note_on_c, 2, 61, 95
3, 210240, Note_on_c, 2, 57, 95
3, 210240, Note_on_c, 2, 52, 95
3, 210240, Note_on_c, 2, 45, 95
3, 210720, Note_off_c, 2, 61, 95
3, 210720, Note_off_c, 2, 57, 95
3, 210720, Note_off_c, 2, 52, 95
3, 210720, Note_off_c, 2, 45, 95
3, 210720, Note_on_c, 2, 61, 95
3, 210720, Note_on_c, 2, 57, 95
3, 210720, Note_on_c, 2, 52, 95
3, 210720, Note_on_c, 2, 45, 95
3, 211200, Note_off_c, 2, 61, 95
3, 211200, Note_off_c, 2, 57, 95
3, 211200, Note_off_c, 2, 52, 95
3, 211200, Note_off_c, 2, 45, 95
3, 211200, Note_on_c, 2, 59, 95
3, 211200, Note_on_c, 2, 56, 95
3, 211200, Note_on_c, 2, 52, 95
3, 211200, Note_on_c, 2, 47, 95
3, 211680, Note_off_c, 2, 59, 95
3, 211680, Note_off_c, 2, 56, 95
3, 211680, Note_off_c, 2, 52, 95
3, 211680, Note_off_c, 2, 47, 95
3, 211680, Note_on_c, 2, 61, 95
3, 211680, Note_on_c, 2, 57, 95
3, 211680, Note_on_c, 2, 52, 95
3, 211680, Note_on_c, 2, 45, 95
3, 212160, Note_off_c, 2, 61, 95
3, 212160, Note_off_c, 2, 57, 95
3, 212160, Note_off_c, 2, 52, 95
3, 212160, Note_off_c, 2, 45, 95
3, 212160, Note_on_c, 2, 59, 95
3, 212160, Note_on_c, 2, 56, 95
3, 212160, Note_on_c, 2, 52, 95
3, 212160, Note_on_c, 2, 47, 95
3, 212640, Note_off_c, 2, 59, 95
3, 212640, Note_off_c, 2, 56, 95
3, 212640, Note_off_c, 2, 52, 95
3, 212640, Note_off_c, 2, 47, 95
3, 212640, Note_on_c, 2, 61, 95
3, 212640, Note_on_c, 2, 57, 95
3, 212640, Note_on_c, 2, 52, 95
3, 212640, Note_on_c, 2, 45, 95
3, 213120, Note_off_c, 2, 61, 95
3, 213120, Note_off_c, 2, 57, 95
3, 213120, Note_off_c, 2, 52, 95
3, 213120, Note_off_c, 2, 45, 95
3, 213120, Note_on_c, 2, 59, 95
3, 213120, Note_on_c, 2, 56, 95
3, 213120, Note_on_c, 2, 52, 95
3, 213120, Note_on_c, 2, 47, 95
3, 213600, Note_off_c, 2, 59, 95
3, 213600, Note_off_c, 2, 56, 95
3, 213600, Note_off_c, 2, 52, 95
3, 213600, Note_off_c, 2, 47, 95
3, 213600, Note_on_c, 2, 63, 95
3, 213600, Note_on_c, 2, 59, 95
3, 213600, Note_on_c, 2, 54, 95
3, 213600, Note_on_c, 2, 47, 95
3, 214080, Note_off_c, 2, 63, 95
3, 214080, Note_off_c, 2, 59, 95
3, 214080, Note_off_c, 2, 54, 95
3, 214080, Note_off_c, 2, 47, 95
3, 214080, Note_on_c, 2, 63, 95
3, 214080, Note_on_c, 2, 59, 95
3, 214080, Note_on_c, 2, 54, 95
3, 214080, Note_on_c, 2, 47, 95
3, 214560, Note_off_c, 2, 63, 95
3, 214560, Note_off_c, 2, 59, 95
3, 214560, Note_off_c, 2, 54, 95
3, 214560, Note_off_c, 2, 47, 95
3, 214560, Note_on_c, 2, 63, 95
3, 214560, Note_on_c, 2, 59, 95
3, 214560, Note_on_c, 2, 54, 95
3, 214560, Note_on_c, 2, 47, 95
3, 215040, Note_off_c, 2, 63, 95
3, 215040, Note_off_c, 2, 59, 95
3, 215040, Note_off_c, 2, 54, 95
3, 215040, Note_off_c, 2, 47, 95
3, 215520, Note_on_c, 2, 61, 95
3, 215520, Note_on_c, 2, 56, 95
3, 215520, Note_on_c, 2, 49, 95
3, 216000, Note_off_c, 2, 61, 95
3, 216000, Note_off_c, 2, 56, 95
3, 216000, Note_off_c, 2, 49, 95
3, 216000, Note_on_c, 2, 61, 95
3, 216000, Note_on_c, 2, 56, 95
3, 216000, Note_on_c, 2, 49, 95
3, 216720, Note_off_c, 2, 61, 95
3, 216720, Note_off_c, 2, 56, 95
3, 216720, Note_off_c, 2, 49, 95
3, 216720, Note_on_c, 2, 61, 95
3, 216720, Note_on_c, 2, 56, 95
3, 216720, Note_on_c, 2, 49, 95
3, 216960, Note_off_c, 2, 61, 95
3, 216960, Note_off_c, 2, 56, 95
3, 216960, Note_off_c, 2, 49, 95
3, 216960, Note_on_c, 2, 61, 95
3, 216960, Note_on_c, 2, 56, 95
3, 216960, Note_on_c, 2, 49, 95
3, 217440, Note_off_c, 2, 61, 95
3, 217440, Note_off_c, 2, 56, 95
3, 217440, Note_off_c, 2, 49, 95
3, 217440, Note_on_c, 2, 61, 95
3, 217440, Note_on_c, 2, 56, 95
3, 217440, Note_on_c, 2, 49, 95
3, 217920, Note_off_c, 2, 61, 95
3, 217920, Note_off_c, 2, 56, 95
3, 217920, Note_off_c, 2, 49, 95
3, 217920, Note_on_c, 2, 61, 95
3, 217920, Note_on_c, 2, 56, 95
3, 217920, Note_on_c, 2, 49, 95
3, 218400, Note_off_c, 2, 61, 95
3, 218400, Note_off_c, 2, 56, 95
3, 218400, Note_off_c, 2, 49, 95
3, 218400, Note_on_c, 2, 61, 95
3, 218400, Note_on_c, 2, 56, 95
3, 218400, Note_on_c, 2, 49, 95
3, 218880, Note_off_c, 2, 61, 95
3, 218880, Note_off_c, 2, 56, 95
3, 218880, Note_off_c, 2, 49, 95
3, 219360, Note_on_c, 2, 64, 95
3, 219360, Note_on_c, 2, 59, 95
3, 219360, Note_on_c, 2, 54, 95
3, 219360, Note_on_c, 2, 47, 95
3, 219840, Note_off_c, 2, 64, 95
3, 219840, Note_off_c, 2, 59, 95
3, 219840, Note_off_c, 2, 54, 95
3, 219840, Note_off_c, 2, 47, 95
3, 219840, Note_on_c, 2, 64, 95
3, 219840, Note_on_c, 2, 59, 95
3, 219840, Note_on_c, 2, 54, 95
3, 219840, Note_on_c, 2, 47, 95
3, 220560, Note_off_c, 2, 64, 95
3, 220560, Note_off_c, 2, 59, 95
3, 220560, Note_off_c, 2, 54, 95
3, 220560, Note_off_c, 2, 47, 95
3, 220560, Note_on_c, 2, 64, 95
3, 220560, Note_on_c, 2, 59, 95
3, 220560, Note_on_c, 2, 54, 95
3, 220560, Note_on_c, 2, 47, 95
3, 220800, Note_off_c, 2, 64, 95
3, 220800, Note_off_c, 2, 59, 95
3, 220800, Note_off_c, 2, 54, 95
3, 220800, Note_off_c, 2, 47, 95
3, 220800, Note_on_c, 2, 64, 95
3, 220800, Note_on_c, 2, 59, 95
3, 220800, Note_on_c, 2, 54, 95
3, 220800, Note_on_c, 2, 47, 95
3, 221280, Note_off_c, 2, 64, 95
3, 221280, Note_off_c, 2, 59, 95
3, 221280, Note_off_c, 2, 54, 95
3, 221280, Note_off_c, 2, 47, 95
3, 221280, Note_on_c, 2, 64, 95
3, 221280, Note_on_c, 2, 59, 95
3, 221280, Note_on_c, 2, 54, 95
3, 221280, Note_on_c, 2, 47, 95
3, 221760, Note_off_c, 2, 64, 95
3, 221760, Note_off_c, 2, 59, 95
3, 221760, Note_off_c, 2, 54, 95
3, 221760, Note_off_c, 2, 47, 95
3, 221760, Note_on_c, 2, 64, 95
3, 221760, Note_on_c, 2, 59, 95
3, 221760, Note_on_c, 2, 54, 95
3, 221760, Note_on_c, 2, 47, 95
3, 222240, Note_off_c, 2, 64, 95
3, 222240, Note_off_c, 2, 59, 95
3, 222240, Note_off_c, 2, 54, 95
3, 222240, Note_off_c, 2, 47, 95
3, 222240, Note_on_c, 2, 64, 95
3, 222240, Note_on_c, 2, 59, 95
3, 222240, Note_on_c, 2, 54, 95
3, 222240, Note_on_c, 2, 47, 95
3, 222720, Note_off_c, 2, 64, 95
3, 222720, Note_off_c, 2, 59, 95
3, 222720, Note_off_c, 2, 54, 95
3, 222720, Note_off_c, 2, 47, 95
3, 222720, Note_on_c, 2, 61, 95
3, 222720, Note_on_c, 2, 57, 95
3, 222720, Note_on_c, 2, 52, 95
3, 222720, Note_on_c, 2, 45, 95
3, 223680, Note_off_c, 2, 61, 95
3, 223680, Note_off_c, 2, 57, 95
3, 223680, Note_off_c, 2, 52, 95
3, 223680, Note_off_c, 2, 45, 95
3, 223680, Note_on_c, 2, 61, 95
3, 223680, Note_on_c, 2, 57, 95
3, 223680, Note_on_c, 2, 52, 95
3, 223680, Note_on_c, 2, 45, 95
3, 224400, Note_off_c, 2, 61, 95
3, 224400, Note_off_c, 2, 57, 95
3, 224400, Note_off_c, 2, 52, 95
3, 224400, Note_off_c, 2, 45, 95
3, 224400, Note_on_c, 2, 61, 95
3, 224400, Note_on_c, 2, 57, 95
3, 224400, Note_on_c, 2, 52, 95
3, 224400, Note_on_c, 2, 45, 95
3, 224640, Note_off_c, 2, 61, 95
3, 224640, Note_off_c, 2, 57, 95
3, 224640, Note_off_c, 2, 52, 95
3, 224640, Note_off_c, 2, 45, 95
3, 224640, Note_on_c, 2, 61, 95
3, 224640, Note_on_c, 2, 57, 95
3, 224640, Note_on_c, 2, 52, 95
3, 224640, Note_on_c, 2, 45, 95
3, 225120, Note_off_c, 2, 61, 95
3, 225120, Note_off_c, 2, 57, 95
3, 225120, Note_off_c, 2, 52, 95
3, 225120, Note_off_c, 2, 45, 95
3, 225120, Note_on_c, 2, 61, 95
3, 225120, Note_on_c, 2, 57, 95
3, 225120, Note_on_c, 2, 52, 95
3, 225120, Note_on_c, 2, 45, 95
3, 225600, Note_off_c, 2, 61, 95
3, 225600, Note_off_c, 2, 57, 95
3, 225600, Note_off_c, 2, 52, 95
3, 225600, Note_off_c, 2, 45, 95
3, 226080, Note_on_c, 2, 63, 95
3, 226080, Note_on_c, 2, 59, 95
3, 226560, Note_off_c, 2, 63, 95
3, 226560, Note_off_c, 2, 59, 95
3, 226560, Note_on_c, 2, 61, 95
3, 226560, Note_on_c, 2, 57, 95
3, 227040, Note_off_c, 2, 61, 95
3, 227040, Note_off_c, 2, 57, 95
3, 227040, Note_on_c, 2, 52, 95
3, 227520, Note_off_c, 2, 52, 95
3, 227520, Note_on_c, 2, 63, 95
3, 227520, Note_on_c, 2, 59, 95
3, 228000, Note_off_c, 2, 63, 95
3, 228000, Note_off_c, 2, 59, 95
3, 228000, Note_on_c, 2, 61, 95
3, 228000, Note_on_c, 2, 57, 95
3, 228480, Note_off_c, 2, 61, 95
3, 228480, Note_off_c, 2, 57, 95
3, 228480, Note_on_c, 2, 63, 95
3, 228480, Note_on_c, 2, 59, 95
3, 228480, Note_on_c, 2, 54, 95
3, 228480, Note_on_c, 2, 47, 95
3, 228960, Note_off_c, 2, 63, 95
3, 228960, Note_off_c, 2, 59, 95
3, 228960, Note_off_c, 2, 54, 95
3, 228960, Note_off_c, 2, 47, 95
3, 228960, Note_on_c, 2, 63, 95
3, 228960, Note_on_c, 2, 59, 95
3, 228960, Note_on_c, 2, 54, 95
3, 228960, Note_on_c, 2, 47, 95
3, 229440, Note_off_c, 2, 63, 95
3, 229440, Note_off_c, 2, 59, 95
3, 229440, Note_off_c, 2, 54, 95
3, 229440, Note_off_c, 2, 47, 95
3, 229440, Note_on_c, 2, 63, 95
3, 229440, Note_on_c, 2, 59, 95
3, 229440, Note_on_c, 2, 54, 95
3, 229440, Note_on_c, 2, 47, 95
3, 229920, Note_off_c, 2, 63, 95
3, 229920, Note_off_c, 2, 59, 95
3, 229920, Note_off_c, 2, 54, 95
3, 229920, Note_off_c, 2, 47, 95
3, 229920, Note_on_c, 2, 63, 95
3, 229920, Note_on_c, 2, 59, 95
3, 229920, Note_on_c, 2, 54, 95
3, 229920, Note_on_c, 2, 47, 95
3, 230400, Note_off_c, 2, 63, 95
3, 230400, Note_off_c, 2, 59, 95
3, 230400, Note_off_c, 2, 54, 95
3, 230400, Note_off_c, 2, 47, 95
3, 230400, Note_on_c, 2, 61, 95
3, 230400, Note_on_c, 2, 56, 95
3, 230400, Note_on_c, 2, 49, 95
3, 231360, Note_off_c, 2, 61, 95
3, 231360, Note_off_c, 2, 56, 95
3, 231360, Note_off_c, 2, 49, 95
3, 231360, Note_on_c, 2, 61, 95
3, 231360, Note_on_c, 2, 56, 95
3, 231360, Note_on_c, 2, 49, 95
3, 232800, Note_off_c, 2, 61, 95
3, 232800, Note_off_c, 2, 56, 95
3, 232800, Note_off_c, 2, 49, 95
3, 232800, Note_on_c, 2, 61, 95
3, 232800, Note_on_c, 2, 56, 95
3, 232800, Note_on_c, 2, 49, 95
3, 234240, Note_off_c, 2, 61, 95
3, 234240, Note_off_c, 2, 56, 95
3, 234240, Note_off_c, 2, 49, 95
3, 234240, Note_on_c, 2, 64, 95
3, 234240, Note_on_c, 2, 59, 95
3, 234240, Note_on_c, 2, 49, 95
3, 234720, Note_off_c, 2, 64, 95
3, 234720, Note_off_c, 2, 59, 95
3, 234720, Note_off_c, 2, 49, 95
3, 234720, Note_on_c, 2, 61, 95
3, 234720, Note_on_c, 2, 56, 95
3, 234720, Note_on_c, 2, 49, 95
3, 235200, Note_off_c, 2, 61, 95
3, 235200, Note_off_c, 2, 56, 95
3, 235200, Note_off_c, 2, 49, 95
3, 235200, Note_on_c, 2, 66, 95
3, 235200, Note_on_c, 2, 61, 95
3, 235200, Note_on_c, 2, 58, 95
3, 235200, Note_on_c, 2, 49, 95
3, 235680, Note_off_c, 2, 66, 95
3, 235680, Note_off_c, 2, 61, 95
3, 235680, Note_off_c, 2, 58, 95
3, 235680, Note_off_c, 2, 49, 95
3, 235680, Note_on_c, 2, 65, 63
3, 235680, Note_on_c, 2, 61, 95
3, 235680, Note_on_c, 2, 56, 95
3, 235680, Note_on_c, 2, 49, 95
3, 236640, Note_off_c, 2, 65, 63
3, 236640, Note_off_c, 2, 61, 95
3, 236640, Note_off_c, 2, 56, 95
3, 236640, Note_off_c, 2, 49, 95
3, 236640, Note_on_c, 2, 56, 95
3, 236640, Note_on_c, 2, 49, 95
3, 237120, Note_off_c, 2, 56, 95
3, 237120, Note_off_c, 2, 49, 95
3, 237120, Note_on_c, 2, 59, 95
3, 237120, Note_on_c, 2, 49, 95
3, 237600, Note_off_c, 2, 59, 95
3, 237600, Note_off_c, 2, 49, 95
3, 237600, Note_on_c, 2, 61, 95
3, 237600, Note_on_c, 2, 56, 95
3, 237600, Note_on_c, 2, 49, 95
3, 238560, Note_off_c, 2, 61, 95
3, 238560, Note_off_c, 2, 56, 95
3, 238560, Note_off_c, 2, 49, 95
3, 238560, Note_on_c, 2, 61, 95
3, 238560, Note_on_c, 2, 56, 95
3, 238560, Note_on_c, 2, 49, 95
3, 239040, Note_off_c, 2, 61, 95
3, 239040, Note_off_c, 2, 56, 95
3, 239040, Note_off_c, 2, 49, 95
3, 239040, Note_on_c, 2, 61, 95
3, 239040, Note_on_c, 2, 56, 95
3, 239040, Note_on_c, 2, 49, 95
3, 240480, Note_off_c, 2, 61, 95
3, 240480, Note_off_c, 2, 56, 95
3, 240480, Note_off_c, 2, 49, 95
3, 240480, Note_on_c, 2, 61, 95
3, 240480, Note_on_c, 2, 56, 95
3, 240480, Note_on_c, 2, 49, 95
3, 241920, Note_off_c, 2, 61, 95
3, 241920, Note_off_c, 2, 56, 95
3, 241920, Note_off_c, 2, 49, 95
3, 241920, Note_on_c, 2, 64, 95
3, 241920, Note_on_c, 2, 59, 95
3, 241920, Note_on_c, 2, 49, 95
3, 242400, Note_off_c, 2, 64, 95
3, 242400, Note_off_c, 2, 59, 95
3, 242400, Note_off_c, 2, 49, 95
3, 242400, Note_on_c, 2, 61, 95
3, 242400, Note_on_c, 2, 56, 95
3, 242400, Note_on_c, 2, 49, 95
3, 242880, Note_off_c, 2, 61, 95
3, 242880, Note_off_c, 2, 56, 95
3, 242880, Note_off_c, 2, 49, 95
3, 242880, Note_on_c, 2, 66, 95
3, 242880, Note_on_c, 2, 61, 95
3, 242880, Note_on_c, 2, 58, 95
3, 242880, Note_on_c, 2, 49, 95
3, 243360, Note_off_c, 2, 66, 95
3, 243360, Note_off_c, 2, 61, 95
3, 243360, Note_off_c, 2, 58, 95
3, 243360, Note_off_c, 2, 49, 95
3, 243360, Note_on_c, 2, 65, 63
3, 243360, Note_on_c, 2, 61, 95
3, 243360, Note_on_c, 2, 56, 95
3, 243360, Note_on_c, 2, 49, 95
3, 244320, Note_off_c, 2, 65, 63
3, 244320, Note_off_c, 2, 61, 95
3, 244320, Note_off_c, 2, 56, 95
3, 244320, Note_off_c, 2, 49, 95
3, 244320, Note_on_c, 2, 61, 95
3, 244320, Note_on_c, 2, 56, 95
3, 244320, Note_on_c, 2, 49, 95
3, 244800, Note_off_c, 2, 61, 95
3, 244800, Note_off_c, 2, 56, 95
3, 244800, Note_off_c, 2, 49, 95
3, 244800, Note_on_c, 2, 61, 95
3, 244800, Note_on_c, 2, 56, 95
3, 244800, Note_on_c, 2, 49, 95
3, 245280, Note_off_c, 2, 61, 95
3, 245280, Note_off_c, 2, 56, 95
3, 245280, Note_off_c, 2, 49, 95
3, 245280, Note_on_c, 2, 59, 95
3, 245280, Note_on_c, 2, 49, 95
3, 245760, Note_off_c, 2, 59, 95
3, 245760, Note_off_c, 2, 49, 95
3, 245760, Note_on_c, 2, 61, 95
3, 245760, Note_on_c, 2, 56, 95
3, 245760, Note_on_c, 2, 49, 95
3, 246720, Note_off_c, 2, 61, 95
3, 246720, Note_off_c, 2, 56, 95
3, 246720, Note_off_c, 2, 49, 95
3, 246720, Note_on_c, 2, 61, 95
3, 246720, Note_on_c, 2, 56, 95
3, 246720, Note_on_c, 2, 49, 95
3, 247440, Note_off_c, 2, 61, 95
3, 247440, Note_off_c, 2, 56, 95
3, 247440, Note_off_c, 2, 49, 95
3, 247440, Note_on_c, 2, 61, 95
3, 247440, Note_on_c, 2, 56, 95
3, 247440, Note_on_c, 2, 49, 95
3, 247680, Note_off_c, 2, 61, 95
3, 247680, Note_off_c, 2, 56, 95
3, 247680, Note_off_c, 2, 49, 95
3, 247680, Note_on_c, 2, 61, 95
3, 247680, Note_on_c, 2, 56, 95
3, 247680, Note_on_c, 2, 49, 95
3, 248160, Note_off_c, 2, 61, 95
3, 248160, Note_off_c, 2, 56, 95
3, 248160, Note_off_c, 2, 49, 95
3, 248160, Note_on_c, 2, 61, 95
3, 248160, Note_on_c, 2, 56, 95
3, 248160, Note_on_c, 2, 49, 95
3, 249600, Note_off_c, 2, 61, 95
3, 249600, Note_off_c, 2, 56, 95
3, 249600, Note_off_c, 2, 49, 95
3, 249600, Note_on_c, 2, 64, 95
3, 249600, Note_on_c, 2, 59, 95
3, 249600, Note_on_c, 2, 49, 95
3, 250080, Note_off_c, 2, 64, 95
3, 250080, Note_off_c, 2, 59, 95
3, 250080, Note_off_c, 2, 49, 95
3, 250080, Note_on_c, 2, 61, 95
3, 250080, Note_on_c, 2, 56, 95
3, 250080, Note_on_c, 2, 49, 95
3, 250560, Note_off_c, 2, 61, 95
3, 250560, Note_off_c, 2, 56, 95
3, 250560, Note_off_c, 2, 49, 95
3, 250560, Note_on_c, 2, 66, 95
3, 250560, Note_on_c, 2, 61, 95
3, 250560, Note_on_c, 2, 59, 95
3, 250560, Note_on_c, 2, 49, 95
3, 251040, Note_off_c, 2, 66, 95
3, 251040, Note_off_c, 2, 61, 95
3, 251040, Note_off_c, 2, 59, 95
3, 251040, Note_off_c, 2, 49, 95
3, 251040, Note_on_c, 2, 66, 95
3, 251040, Note_on_c, 2, 61, 95
3, 251040, Note_on_c, 2, 56, 95
3, 251040, Note_on_c, 2, 49, 95
3, 252000, Note_off_c, 2, 66, 95
3, 252000, Note_off_c, 2, 61, 95
3, 252000, Note_off_c, 2, 56, 95
3, 252000, Note_off_c, 2, 49, 95
3, 252000, Note_on_c, 2, 56, 95
3, 252000, Note_on_c, 2, 49, 95
3, 252480, Note_off_c, 2, 56, 95
3, 252480, Note_off_c, 2, 49, 95
3, 252480, Note_on_c, 2, 59, 95
3, 252480, Note_on_c, 2, 49, 95
3, 252960, Note_off_c, 2, 59, 95
3, 252960, Note_off_c, 2, 49, 95
3, 252960, Note_on_c, 2, 61, 95
3, 252960, Note_on_c, 2, 56, 95
3, 252960, Note_on_c, 2, 49, 95
3, 253920, Note_off_c, 2, 61, 95
3, 253920, Note_off_c, 2, 56, 95
3, 253920, Note_off_c, 2, 49, 95
3, 253920, Note_on_c, 2, 61, 95
3, 253920, Note_on_c, 2, 56, 95
3, 253920, Note_on_c, 2, 49, 95
3, 254400, Note_off_c, 2, 61, 95
3, 254400, Note_off_c, 2, 56, 95
3, 254400, Note_off_c, 2, 49, 95
3, 254400, Note_on_c, 2, 61, 95
3, 254400, Note_on_c, 2, 56, 95
3, 254400, Note_on_c, 2, 49, 95
3, 255120, Note_off_c, 2, 61, 95
3, 255120, Note_off_c, 2, 56, 95
3, 255120, Note_off_c, 2, 49, 95
3, 255120, Note_on_c, 2, 61, 95
3, 255120, Note_on_c, 2, 56, 95
3, 255120, Note_on_c, 2, 49, 95
3, 255360, Note_off_c, 2, 61, 95
3, 255360, Note_off_c, 2, 56, 95
3, 255360, Note_off_c, 2, 49, 95
3, 255360, Note_on_c, 2, 61, 95
3, 255360, Note_on_c, 2, 56, 95
3, 255360, Note_on_c, 2, 49, 95
3, 255840, Note_off_c, 2, 61, 95
3, 255840, Note_off_c, 2, 56, 95
3, 255840, Note_off_c, 2, 49, 95
3, 255840, Note_on_c, 2, 61, 95
3, 255840, Note_on_c, 2, 56, 95
3, 255840, Note_on_c, 2, 49, 95
3, 256320, Note_off_c, 2, 61, 95
3, 256320, Note_off_c, 2, 56, 95
3, 256320, Note_off_c, 2, 49, 95
3, 256320, Note_on_c, 2, 61, 95
3, 256320, Note_on_c, 2, 56, 95
3, 256320, Note_on_c, 2, 49, 95
3, 256800, Note_off_c, 2, 61, 95
3, 256800, Note_off_c, 2, 56, 95
3, 256800, Note_off_c, 2, 49, 95
3, 256800, Note_on_c, 2, 61, 95
3, 256800, Note_on_c, 2, 56, 95
3, 256800, Note_on_c, 2, 49, 95
3, 257280, Note_off_c, 2, 61, 95
3, 257280, Note_off_c, 2, 56, 95
3, 257280, Note_off_c, 2, 49, 95
3, 257280, Note_on_c, 2, 64, 95
3, 257280, Note_on_c, 2, 59, 95
3, 257280, Note_on_c, 2, 49, 95
3, 257760, Note_off_c, 2, 64, 95
3, 257760, Note_off_c, 2, 59, 95
3, 257760, Note_off_c, 2, 49, 95
3, 257760, Note_on_c, 2, 61, 95
3, 257760, Note_on_c, 2, 56, 95
3, 257760, Note_on_c, 2, 49, 95
3, 258240, Note_off_c, 2, 61, 95
3, 258240, Note_off_c, 2, 56, 95
3, 258240, Note_off_c, 2, 49, 95
3, 258240, Note_on_c, 2, 66, 95
3, 258240, Note_on_c, 2, 61, 95
3, 258240, Note_on_c, 2, 58, 95
3, 258240, Note_on_c, 2, 49, 95
3, 258720, Note_off_c, 2, 66, 95
3, 258720, Note_off_c, 2, 61, 95
3, 258720, Note_off_c, 2, 58, 95
3, 258720, Note_off_c, 2, 49, 95
3, 258720, Note_on_c, 2, 65, 63
3, 258720, Note_on_c, 2, 61, 95
3, 258720, Note_on_c, 2, 56, 95
3, 258720, Note_on_c, 2, 49, 95
3, 259680, Note_off_c, 2, 65, 63
3, 259680, Note_off_c, 2, 61, 95
3, 259680, Note_off_c, 2, 56, 95
3, 259680, Note_off_c, 2, 49, 95
3, 259680, Note_on_c, 2, 56, 95
3, 259680, Note_on_c, 2, 49, 95
3, 260160, Note_off_c, 2, 56, 95
3, 260160, Note_off_c, 2, 49, 95
3, 260160, Note_on_c, 2, 59, 95
3, 260160, Note_on_c, 2, 49, 95
3, 260640, Note_off_c, 2, 59, 95
3, 260640, Note_off_c, 2, 49, 95
3, 260640, Note_on_c, 2, 59, 95
3, 260640, Note_on_c, 2, 49, 95
3, 261120, Note_off_c, 2, 59, 95
3, 261120, Note_off_c, 2, 49, 95
3, 261120, Note_on_c, 2, 61, 95
3, 261120, Note_on_c, 2, 56, 95
3, 261120, Note_on_c, 2, 49, 95
3, 262080, Note_off_c, 2, 61, 95
3, 262080, Note_off_c, 2, 56, 95
3, 262080, Note_off_c, 2, 49, 95
3, 262080, Note_on_c, 2, 65, 95
3, 262080, Note_on_c, 2, 61, 95
3, 262080, Note_on_c, 2, 56, 95
3, 262080, Note_on_c, 2, 49, 95
3, 262800, Note_off_c, 2, 65, 95
3, 262800, Note_off_c, 2, 61, 95
3, 262800, Note_off_c, 2, 56, 95
3, 262800, Note_off_c, 2, 49, 95
3, 262800, Note_on_c, 2, 65, 95
3, 262800, Note_on_c, 2, 61, 95
3, 262800, Note_on_c, 2, 56, 95
3, 262800, Note_on_c, 2, 49, 95
3, 263040, Note_off_c, 2, 65, 95
3, 263040, Note_off_c, 2, 61, 95
3, 263040, Note_off_c, 2, 56, 95
3, 263040, Note_off_c, 2, 49, 95
3, 263040, Note_on_c, 2, 65, 95
3, 263040, Note_on_c, 2, 61, 95
3, 263040, Note_on_c, 2, 56, 95
3, 263040, Note_on_c, 2, 49, 95
3, 263520, Note_off_c, 2, 65, 95
3, 263520, Note_off_c, 2, 61, 95
3, 263520, Note_off_c, 2, 56, 95
3, 263520, Note_off_c, 2, 49, 95
3, 263520, Note_on_c, 2, 65, 95
3, 263520, Note_on_c, 2, 61, 95
3, 263520, Note_on_c, 2, 56, 95
3, 263520, Note_on_c, 2, 49, 95
3, 264000, Note_off_c, 2, 65, 95
3, 264000, Note_off_c, 2, 61, 95
3, 264000, Note_off_c, 2, 56, 95
3, 264000, Note_off_c, 2, 49, 95
3, 264000, Note_on_c, 2, 65, 95
3, 264000, Note_on_c, 2, 61, 95
3, 264000, Note_on_c, 2, 56, 95
3, 264000, Note_on_c, 2, 49, 95
3, 264480, Note_off_c, 2, 65, 95
3, 264480, Note_off_c, 2, 61, 95
3, 264480, Note_off_c, 2, 56, 95
3, 264480, Note_off_c, 2, 49, 95
3, 264480, Note_on_c, 2, 56, 95
3, 264480, Note_on_c, 2, 52, 95
3, 264480, Note_on_c, 2, 47, 95
3, 264480, Note_on_c, 2, 40, 95
3, 264539, Note_off_c, 2, 56, 95
3, 264539, Note_off_c, 2, 52, 95
3, 264539, Note_off_c, 2, 47, 95
3, 264539, Note_off_c, 2, 40, 95
3, 264960, Note_on_c, 2, 63, 95
3, 264960, Note_on_c, 2, 59, 95
3, 264960, Note_on_c, 2, 54, 95
3, 264960, Note_on_c, 2, 47, 95
3, 265920, Note_off_c, 2, 63, 95
3, 265920, Note_off_c, 2, 59, 95
3, 265920, Note_off_c, 2, 54, 95
3, 265920, Note_off_c, 2, 47, 95
3, 265920, Note_on_c, 2, 63, 95
3, 265920, Note_on_c, 2, 59, 95
3, 265920, Note_on_c, 2, 54, 95
3, 265920, Note_on_c, 2, 47, 95
3, 266640, Note_off_c, 2, 63, 95
3, 266640, Note_off_c, 2, 59, 95
3, 266640, Note_off_c, 2, 54, 95
3, 266640, Note_off_c, 2, 47, 95
3, 266640, Note_on_c, 2, 63, 95
3, 266640, Note_on_c, 2, 59, 95
3, 266640, Note_on_c, 2, 54, 95
3, 266640, Note_on_c, 2, 47, 95
3, 266880, Note_off_c, 2, 63, 95
3, 266880, Note_off_c, 2, 59, 95
3, 266880, Note_off_c, 2, 54, 95
3, 266880, Note_off_c, 2, 47, 95
3, 266880, Note_on_c, 2, 63, 95
3, 266880, Note_on_c, 2, 59, 95
3, 266880, Note_on_c, 2, 54, 95
3, 266880, Note_on_c, 2, 47, 95
3, 267360, Note_off_c, 2, 63, 95
3, 267360, Note_off_c, 2, 59, 95
3, 267360, Note_off_c, 2, 54, 95
3, 267360, Note_off_c, 2, 47, 95
3, 267360, Note_on_c, 2, 63, 95
3, 267360, Note_on_c, 2, 59, 95
3, 267360, Note_on_c, 2, 54, 95
3, 267360, Note_on_c, 2, 47, 95
3, 267840, Note_off_c, 2, 63, 95
3, 267840, Note_off_c, 2, 59, 95
3, 267840, Note_off_c, 2, 54, 95
3, 267840, Note_off_c, 2, 47, 95
3, 267840, Note_on_c, 2, 63, 95
3, 267840, Note_on_c, 2, 59, 95
3, 267840, Note_on_c, 2, 54, 95
3, 267840, Note_on_c, 2, 47, 95
3, 268320, Note_off_c, 2, 63, 95
3, 268320, Note_off_c, 2, 59, 95
3, 268320, Note_off_c, 2, 54, 95
3, 268320, Note_off_c, 2, 47, 95
3, 268320, Note_on_c, 2, 56, 95
3, 268320, Note_on_c, 2, 52, 95
3, 268320, Note_on_c, 2, 47, 95
3, 268320, Note_on_c, 2, 40, 95
3, 268379, Note_off_c, 2, 56, 95
3, 268379, Note_off_c, 2, 52, 95
3, 268379, Note_off_c, 2, 47, 95
3, 268379, Note_off_c, 2, 40, 95
3, 268800, Note_on_c, 2, 61, 95
3, 268800, Note_on_c, 2, 57, 95
3, 268800, Note_on_c, 2, 52, 95
3, 268800, Note_on_c, 2, 45, 95
3, 269280, Note_off_c, 2, 61, 95
3, 269280, Note_off_c, 2, 57, 95
3, 269280, Note_off_c, 2, 52, 95
3, 269280, Note_off_c, 2, 45, 95
3, 269280, Note_on_c, 2, 61, 95
3, 269280, Note_on_c, 2, 57, 95
3, 269280, Note_on_c, 2, 52, 95
3, 269280, Note_on_c, 2, 45, 95
3, 269760, Note_off_c, 2, 61, 95
3, 269760, Note_off_c, 2, 57, 95
3, 269760, Note_off_c, 2, 52, 95
3, 269760, Note_off_c, 2, 45, 95
3, 269760, Note_on_c, 2, 61, 95
3, 269760, Note_on_c, 2, 57, 95
3, 269760, Note_on_c, 2, 52, 95
3, 269760, Note_on_c, 2, 45, 95
3, 270480, Note_off_c, 2, 61, 95
3, 270480, Note_off_c, 2, 57, 95
3, 270480, Note_off_c, 2, 52, 95
3, 270480, Note_off_c, 2, 45, 95
3, 270480, Note_on_c, 2, 61, 95
3, 270480, Note_on_c, 2, 57, 95
3, 270480, Note_on_c, 2, 52, 95
3, 270480, Note_on_c, 2, 45, 95
3, 270720, Note_off_c, 2, 61, 95
3, 270720, Note_off_c, 2, 57, 95
3, 270720, Note_off_c, 2, 52, 95
3, 270720, Note_off_c, 2, 45, 95
3, 270720, Note_on_c, 2, 61, 95
3, 270720, Note_on_c, 2, 57, 95
3, 270720, Note_on_c, 2, 52, 95
3, 270720, Note_on_c, 2, 45, 95
3, 271200, Note_off_c, 2, 61, 95
3, 271200, Note_off_c, 2, 57, 95
3, 271200, Note_off_c, 2, 52, 95
3, 271200, Note_off_c, 2, 45, 95
3, 271200, Note_on_c, 2, 61, 95
3, 271200, Note_on_c, 2, 57, 95
3, 271200, Note_on_c, 2, 52, 95
3, 271200, Note_on_c, 2, 45, 95
3, 271680, Note_off_c, 2, 61, 95
3, 271680, Note_off_c, 2, 57, 95
3, 271680, Note_off_c, 2, 52, 95
3, 271680, Note_off_c, 2, 45, 95
3, 271680, Note_on_c, 2, 61, 95
3, 271680, Note_on_c, 2, 57, 95
3, 271680, Note_on_c, 2, 52, 95
3, 271680, Note_on_c, 2, 45, 95
3, 272160, Note_off_c, 2, 61, 95
3, 272160, Note_off_c, 2, 57, 95
3, 272160, Note_off_c, 2, 52, 95
3, 272160, Note_off_c, 2, 45, 95
3, 272160, Note_on_c, 2, 61, 95
3, 272160, Note_on_c, 2, 57, 95
3, 272160, Note_on_c, 2, 52, 95
3, 272160, Note_on_c, 2, 45, 95
3, 272640, Note_off_c, 2, 61, 95
3, 272640, Note_off_c, 2, 57, 95
3, 272640, Note_off_c, 2, 52, 95
3, 272640, Note_off_c, 2, 45, 95
3, 272640, Note_on_c, 2, 59, 95
3, 272640, Note_on_c, 2, 56, 95
3, 272640, Note_on_c, 2, 52, 95
3, 272640, Note_on_c, 2, 47, 95
3, 273120, Note_off_c, 2, 59, 95
3, 273120, Note_off_c, 2, 56, 95
3, 273120, Note_off_c, 2, 52, 95
3, 273120, Note_off_c, 2, 47, 95
3, 273120, Note_on_c, 2, 61, 95
3, 273120, Note_on_c, 2, 57, 95
3, 273120, Note_on_c, 2, 52, 95
3, 273120, Note_on_c, 2, 45, 95
3, 273600, Note_off_c, 2, 61, 95
3, 273600, Note_off_c, 2, 57, 95
3, 273600, Note_off_c, 2, 52, 95
3, 273600, Note_off_c, 2, 45, 95
3, 273600, Note_on_c, 2, 59, 95
3, 273600, Note_on_c, 2, 56, 95
3, 273600, Note_on_c, 2, 52, 95
3, 273600, Note_on_c, 2, 47, 95
3, 274080, Note_off_c, 2, 59, 95
3, 274080, Note_off_c, 2, 56, 95
3, 274080, Note_off_c, 2, 52, 95
3, 274080, Note_off_c, 2, 47, 95
3, 274080, Note_on_c, 2, 61, 95
3, 274080, Note_on_c, 2, 57, 95
3, 274080, Note_on_c, 2, 52, 95
3, 274080, Note_on_c, 2, 45, 95
3, 274560, Note_off_c, 2, 61, 95
3, 274560, Note_off_c, 2, 57, 95
3, 274560, Note_off_c, 2, 52, 95
3, 274560, Note_off_c, 2, 45, 95
3, 274560, Note_on_c, 2, 59, 95
3, 274560, Note_on_c, 2, 56, 95
3, 274560, Note_on_c, 2, 52, 95
3, 274560, Note_on_c, 2, 47, 95
3, 275040, Note_off_c, 2, 59, 95
3, 275040, Note_off_c, 2, 56, 95
3, 275040, Note_off_c, 2, 52, 95
3, 275040, Note_off_c, 2, 47, 95
3, 275040, Note_on_c, 2, 63, 95
3, 275040, Note_on_c, 2, 59, 95
3, 275040, Note_on_c, 2, 54, 95
3, 275040, Note_on_c, 2, 47, 95
3, 275520, Note_off_c, 2, 63, 95
3, 275520, Note_off_c, 2, 59, 95
3, 275520, Note_off_c, 2, 54, 95
3, 275520, Note_off_c, 2, 47, 95
3, 275520, Note_on_c, 2, 63, 95
3, 275520, Note_on_c, 2, 59, 95
3, 275520, Note_on_c, 2, 54, 95
3, 275520, Note_on_c, 2, 47, 95
3, 276000, Note_off_c, 2, 63, 95
3, 276000, Note_off_c, 2, 59, 95
3, 276000, Note_off_c, 2, 54, 95
3, 276000, Note_off_c, 2, 47, 95
3, 276000, Note_on_c, 2, 63, 95
3, 276000, Note_on_c, 2, 59, 95
3, 276000, Note_on_c, 2, 54, 95
3, 276000, Note_on_c, 2, 47, 95
3, 276480, Note_off_c, 2, 63, 95
3, 276480, Note_off_c, 2, 59, 95
3, 276480, Note_off_c, 2, 54, 95
3, 276480, Note_off_c, 2, 47, 95
3, 276480, Note_on_c, 2, 61, 95
3, 276480, Note_on_c, 2, 56, 95
3, 276480, Note_on_c, 2, 49, 95
3, 276960, Note_off_c, 2, 61, 95
3, 276960, Note_off_c, 2, 56, 95
3, 276960, Note_off_c, 2, 49, 95
3, 276960, Note_on_c, 2, 65, 95
3, 276960, Note_on_c, 2, 61, 95
3, 276960, Note_on_c, 2, 56, 95
3, 276960, Note_on_c, 2, 49, 95
3, 277440, Note_off_c, 2, 65, 95
3, 277440, Note_off_c, 2, 61, 95
3, 277440, Note_off_c, 2, 56, 95
3, 277440, Note_off_c, 2, 49, 95
3, 277440, Note_on_c, 2, 65, 95
3, 277440, Note_on_c, 2, 61, 95
3, 277440, Note_on_c, 2, 56, 95
3, 277440, Note_on_c, 2, 49, 95
3, 278160, Note_off_c, 2, 65, 95
3, 278160, Note_off_c, 2, 61, 95
3, 278160, Note_off_c, 2, 56, 95
3, 278160, Note_off_c, 2, 49, 95
3, 278160, Note_on_c, 2, 65, 95
3, 278160, Note_on_c, 2, 61, 95
3, 278160, Note_on_c, 2, 56, 95
3, 278160, Note_on_c, 2, 49, 95
3, 278400, Note_off_c, 2, 65, 95
3, 278400, Note_off_c, 2, 61, 95
3, 278400, Note_off_c, 2, 56, 95
3, 278400, Note_off_c, 2, 49, 95
3, 278400, Note_on_c, 2, 65, 95
3, 278400, Note_on_c, 2, 61, 95
3, 278400, Note_on_c, 2, 56, 95
3, 278400, Note_on_c, 2, 49, 95
3, 278880, Note_off_c, 2, 65, 95
3, 278880, Note_off_c, 2, 61, 95
3, 278880, Note_off_c, 2, 56, 95
3, 278880, Note_off_c, 2, 49, 95
3, 278880, Note_on_c, 2, 65, 95
3, 278880, Note_on_c, 2, 61, 95
3, 278880, Note_on_c, 2, 56, 95
3, 278880, Note_on_c, 2, 49, 95
3, 279360, Note_off_c, 2, 65, 95
3, 279360, Note_off_c, 2, 61, 95
3, 279360, Note_off_c, 2, 56, 95
3, 279360, Note_off_c, 2, 49, 95
3, 279360, Note_on_c, 2, 65, 95
3, 279360, Note_on_c, 2, 61, 95
3, 279360, Note_on_c, 2, 56, 95
3, 279360, Note_on_c, 2, 49, 95
3, 279840, Note_off_c, 2, 65, 95
3, 279840, Note_off_c, 2, 61, 95
3, 279840, Note_off_c, 2, 56, 95
3, 279840, Note_off_c, 2, 49, 95
3, 279840, Note_on_c, 2, 65, 95
3, 279840, Note_on_c, 2, 61, 95
3, 279840, Note_on_c, 2, 56, 95
3, 279840, Note_on_c, 2, 49, 95
3, 280320, Note_off_c, 2, 65, 95
3, 280320, Note_off_c, 2, 61, 95
3, 280320, Note_off_c, 2, 56, 95
3, 280320, Note_off_c, 2, 49, 95
3, 280320, Note_on_c, 2, 63, 95
3, 280320, Note_on_c, 2, 59, 95
3, 280320, Note_on_c, 2, 54, 95
3, 280320, Note_on_c, 2, 47, 95
3, 280800, Note_off_c, 2, 63, 95
3, 280800, Note_off_c, 2, 59, 95
3, 280800, Note_off_c, 2, 54, 95
3, 280800, Note_off_c, 2, 47, 95
3, 280800, Note_on_c, 2, 63, 95
3, 280800, Note_on_c, 2, 59, 95
3, 280800, Note_on_c, 2, 54, 95
3, 280800, Note_on_c, 2, 47, 95
3, 281280, Note_off_c, 2, 63, 95
3, 281280, Note_off_c, 2, 59, 95
3, 281280, Note_off_c, 2, 54, 95
3, 281280, Note_off_c, 2, 47, 95
3, 281280, Note_on_c, 2, 63, 95
3, 281280, Note_on_c, 2, 59, 95
3, 281280, Note_on_c, 2, 54, 95
3, 281280, Note_on_c, 2, 47, 95
3, 282000, Note_off_c, 2, 63, 95
3, 282000, Note_off_c, 2, 59, 95
3, 282000, Note_off_c, 2, 54, 95
3, 282000, Note_off_c, 2, 47, 95
3, 282000, Note_on_c, 2, 63, 95
3, 282000, Note_on_c, 2, 59, 95
3, 282000, Note_on_c, 2, 54, 95
3, 282000, Note_on_c, 2, 47, 95
3, 282240, Note_off_c, 2, 63, 95
3, 282240, Note_off_c, 2, 59, 95
3, 282240, Note_off_c, 2, 54, 95
3, 282240, Note_off_c, 2, 47, 95
3, 282240, Note_on_c, 2, 63, 95
3, 282240, Note_on_c, 2, 59, 95
3, 282240, Note_on_c, 2, 54, 95
3, 282240, Note_on_c, 2, 47, 95
3, 282720, Note_off_c, 2, 63, 95
3, 282720, Note_off_c, 2, 59, 95
3, 282720, Note_off_c, 2, 54, 95
3, 282720, Note_off_c, 2, 47, 95
3, 282720, Note_on_c, 2, 63, 95
3, 282720, Note_on_c, 2, 59, 95
3, 282720, Note_on_c, 2, 54, 95
3, 282720, Note_on_c, 2, 47, 95
3, 283200, Note_off_c, 2, 63, 95
3, 283200, Note_off_c, 2, 59, 95
3, 283200, Note_off_c, 2, 54, 95
3, 283200, Note_off_c, 2, 47, 95
3, 283200, Note_on_c, 2, 63, 95
3, 283200, Note_on_c, 2, 59, 95
3, 283200, Note_on_c, 2, 54, 95
3, 283200, Note_on_c, 2, 47, 95
3, 283680, Note_off_c, 2, 63, 95
3, 283680, Note_off_c, 2, 59, 95
3, 283680, Note_off_c, 2, 54, 95
3, 283680, Note_off_c, 2, 47, 95
3, 283680, Note_on_c, 2, 63, 95
3, 283680, Note_on_c, 2, 59, 95
3, 283680, Note_on_c, 2, 54, 95
3, 283680, Note_on_c, 2, 47, 95
3, 284160, Note_off_c, 2, 63, 95
3, 284160, Note_off_c, 2, 59, 95
3, 284160, Note_off_c, 2, 54, 95
3, 284160, Note_off_c, 2, 47, 95
3, 284160, Note_on_c, 2, 61, 95
3, 284160, Note_on_c, 2, 57, 95
3, 284160, Note_on_c, 2, 52, 95
3, 284160, Note_on_c, 2, 45, 95
3, 284640, Note_off_c, 2, 61, 95
3, 284640, Note_off_c, 2, 57, 95
3, 284640, Note_off_c, 2, 52, 95
3, 284640, Note_off_c, 2, 45, 95
3, 284640, Note_on_c, 2, 61, 95
3, 284640, Note_on_c, 2, 57, 95
3, 284640, Note_on_c, 2, 52, 95
3, 284640, Note_on_c, 2, 45, 95
3, 285120, Note_off_c, 2, 61, 95
3, 285120, Note_off_c, 2, 57, 95
3, 285120, Note_off_c, 2, 52, 95
3, 285120, Note_off_c, 2, 45, 95
3, 285120, Note_on_c, 2, 61, 95
3, 285120, Note_on_c, 2, 57, 95
3, 285120, Note_on_c, 2, 52, 95
3, 285120, Note_on_c, 2, 45, 95
3, 285840, Note_off_c, 2, 61, 95
3, 285840, Note_off_c, 2, 57, 95
3, 285840, Note_off_c, 2, 52, 95
3, 285840, Note_off_c, 2, 45, 95
3, 285840, Note_on_c, 2, 61, 95
3, 285840, Note_on_c, 2, 57, 95
3, 285840, Note_on_c, 2, 52, 95
3, 285840, Note_on_c, 2, 45, 95
3, 286080, Note_off_c, 2, 61, 95
3, 286080, Note_off_c, 2, 57, 95
3, 286080, Note_off_c, 2, 52, 95
3, 286080, Note_off_c, 2, 45, 95
3, 286080, Note_on_c, 2, 61, 95
3, 286080, Note_on_c, 2, 57, 95
3, 286080, Note_on_c, 2, 52, 95
3, 286080, Note_on_c, 2, 45, 95
3, 286560, Note_off_c, 2, 61, 95
3, 286560, Note_off_c, 2, 57, 95
3, 286560, Note_off_c, 2, 52, 95
3, 286560, Note_off_c, 2, 45, 95
3, 286560, Note_on_c, 2, 61, 95
3, 286560, Note_on_c, 2, 57, 95
3, 286560, Note_on_c, 2, 52, 95
3, 286560, Note_on_c, 2, 45, 95
3, 287040, Note_off_c, 2, 61, 95
3, 287040, Note_off_c, 2, 57, 95
3, 287040, Note_off_c, 2, 52, 95
3, 287040, Note_off_c, 2, 45, 95
3, 287040, Note_on_c, 2, 61, 95
3, 287040, Note_on_c, 2, 57, 95
3, 287040, Note_on_c, 2, 52, 95
3, 287040, Note_on_c, 2, 45, 95
3, 287520, Note_off_c, 2, 61, 95
3, 287520, Note_off_c, 2, 57, 95
3, 287520, Note_off_c, 2, 52, 95
3, 287520, Note_off_c, 2, 45, 95
3, 287520, Note_on_c, 2, 61, 95
3, 287520, Note_on_c, 2, 57, 95
3, 287520, Note_on_c, 2, 52, 95
3, 287520, Note_on_c, 2, 45, 95
3, 288000, Note_off_c, 2, 61, 95
3, 288000, Note_off_c, 2, 57, 95
3, 288000, Note_off_c, 2, 52, 95
3, 288000, Note_off_c, 2, 45, 95
3, 288000, Note_on_c, 2, 59, 95
3, 288000, Note_on_c, 2, 56, 95
3, 288000, Note_on_c, 2, 52, 95
3, 288000, Note_on_c, 2, 47, 95
3, 288480, Note_off_c, 2, 59, 95
3, 288480, Note_off_c, 2, 56, 95
3, 288480, Note_off_c, 2, 52, 95
3, 288480, Note_off_c, 2, 47, 95
3, 288480, Note_on_c, 2, 61, 95
3, 288480, Note_on_c, 2, 57, 95
3, 288480, Note_on_c, 2, 52, 95
3, 288480, Note_on_c, 2, 45, 95
3, 288960, Note_off_c, 2, 61, 95
3, 288960, Note_off_c, 2, 57, 95
3, 288960, Note_off_c, 2, 52, 95
3, 288960, Note_off_c, 2, 45, 95
3, 288960, Note_on_c, 2, 59, 95
3, 288960, Note_on_c, 2, 56, 95
3, 288960, Note_on_c, 2, 52, 95
3, 288960, Note_on_c, 2, 47, 95
3, 289440, Note_off_c, 2, 59, 95
3, 289440, Note_off_c, 2, 56, 95
3, 289440, Note_off_c, 2, 52, 95
3, 289440, Note_off_c, 2, 47, 95
3, 289440, Note_on_c, 2, 61, 95
3, 289440, Note_on_c, 2, 57, 95
3, 289440, Note_on_c, 2, 52, 95
3, 289440, Note_on_c, 2, 45, 95
3, 289920, Note_off_c, 2, 61, 95
3, 289920, Note_off_c, 2, 57, 95
3, 289920, Note_off_c, 2, 52, 95
3, 289920, Note_off_c, 2, 45, 95
3, 289920, Note_on_c, 2, 59, 95
3, 289920, Note_on_c, 2, 56, 95
3, 289920, Note_on_c, 2, 52, 95
3, 289920, Note_on_c, 2, 47, 95
3, 290400, Note_off_c, 2, 59, 95
3, 290400, Note_off_c, 2, 56, 95
3, 290400, Note_off_c, 2, 52, 95
3, 290400, Note_off_c, 2, 47, 95
3, 290400, Note_on_c, 2, 63, 95
3, 290400, Note_on_c, 2, 59, 95
3, 290400, Note_on_c, 2, 54, 95
3, 290400, Note_on_c, 2, 47, 95
3, 290880, Note_off_c, 2, 63, 95
3, 290880, Note_off_c, 2, 59, 95
3, 290880, Note_off_c, 2, 54, 95
3, 290880, Note_off_c, 2, 47, 95
3, 290880, Note_on_c, 2, 63, 95
3, 290880, Note_on_c, 2, 59, 95
3, 290880, Note_on_c, 2, 54, 95
3, 290880, Note_on_c, 2, 47, 95
3, 291360, Note_off_c, 2, 63, 95
3, 291360, Note_off_c, 2, 59, 95
3, 291360, Note_off_c, 2, 54, 95
3, 291360, Note_off_c, 2, 47, 95
3, 291360, Note_on_c, 2, 63, 95
3, 291360, Note_on_c, 2, 59, 95
3, 291360, Note_on_c, 2, 54, 95
3, 291360, Note_on_c, 2, 47, 95
3, 291840, Note_off_c, 2, 63, 95
3, 291840, Note_off_c, 2, 59, 95
3, 291840, Note_off_c, 2, 54, 95
3, 291840, Note_off_c, 2, 47, 95
3, 291840, Note_on_c, 2, 61, 95
3, 291840, Note_on_c, 2, 56, 95
3, 291840, Note_on_c, 2, 49, 95
3, 292320, Note_off_c, 2, 61, 95
3, 292320, Note_off_c, 2, 56, 95
3, 292320, Note_off_c, 2, 49, 95
3, 292320, Note_on_c, 2, 65, 95
3, 292320, Note_on_c, 2, 61, 95
3, 292320, Note_on_c, 2, 56, 95
3, 292320, Note_on_c, 2, 49, 95
3, 292800, Note_off_c, 2, 65, 95
3, 292800, Note_off_c, 2, 61, 95
3, 292800, Note_off_c, 2, 56, 95
3, 292800, Note_off_c, 2, 49, 95
3, 292800, Note_on_c, 2, 65, 95
3, 292800, Note_on_c, 2, 61, 95
3, 292800, Note_on_c, 2, 56, 95
3, 292800, Note_on_c, 2, 49, 95
3, 293520, Note_off_c, 2, 65, 95
3, 293520, Note_off_c, 2, 61, 95
3, 293520, Note_off_c, 2, 56, 95
3, 293520, Note_off_c, 2, 49, 95
3, 293520, Note_on_c, 2, 65, 95
3, 293520, Note_on_c, 2, 61, 95
3, 293520, Note_on_c, 2, 56, 95
3, 293520, Note_on_c, 2, 49, 95
3, 293760, Note_off_c, 2, 65, 95
3, 293760, Note_off_c, 2, 61, 95
3, 293760, Note_off_c, 2, 56, 95
3, 293760, Note_off_c, 2, 49, 95
3, 293760, Note_on_c, 2, 65, 95
3, 293760, Note_on_c, 2, 61, 95
3, 293760, Note_on_c, 2, 56, 95
3, 293760, Note_on_c, 2, 49, 95
3, 294240, Note_off_c, 2, 65, 95
3, 294240, Note_off_c, 2, 61, 95
3, 294240, Note_off_c, 2, 56, 95
3, 294240, Note_off_c, 2, 49, 95
3, 294240, Note_on_c, 2, 65, 95
3, 294240, Note_on_c, 2, 61, 95
3, 294240, Note_on_c, 2, 56, 95
3, 294240, Note_on_c, 2, 49, 95
3, 294720, Note_off_c, 2, 65, 95
3, 294720, Note_off_c, 2, 61, 95
3, 294720, Note_off_c, 2, 56, 95
3, 294720, Note_off_c, 2, 49, 95
3, 294720, Note_on_c, 2, 65, 95
3, 294720, Note_on_c, 2, 61, 95
3, 294720, Note_on_c, 2, 56, 95
3, 294720, Note_on_c, 2, 49, 95
3, 295200, Note_off_c, 2, 65, 95
3, 295200, Note_off_c, 2, 61, 95
3, 295200, Note_off_c, 2, 56, 95
3, 295200, Note_off_c, 2, 49, 95
3, 295200, Note_on_c, 2, 65, 95
3, 295200, Note_on_c, 2, 61, 95
3, 295200, Note_on_c, 2, 56, 95
3, 295200, Note_on_c, 2, 49, 95
3, 295680, Note_off_c, 2, 65, 95
3, 295680, Note_off_c, 2, 61, 95
3, 295680, Note_off_c, 2, 56, 95
3, 295680, Note_off_c, 2, 49, 95
3, 295680, Note_on_c, 2, 63, 95
3, 295680, Note_on_c, 2, 59, 95
3, 295680, Note_on_c, 2, 54, 95
3, 295680, Note_on_c, 2, 47, 95
3, 296160, Note_off_c, 2, 63, 95
3, 296160, Note_off_c, 2, 59, 95
3, 296160, Note_off_c, 2, 54, 95
3, 296160, Note_off_c, 2, 47, 95
3, 296160, Note_on_c, 2, 63, 95
3, 296160, Note_on_c, 2, 59, 95
3, 296160, Note_on_c, 2, 54, 95
3, 296160, Note_on_c, 2, 47, 95
3, 296640, Note_off_c, 2, 63, 95
3, 296640, Note_off_c, 2, 59, 95
3, 296640, Note_off_c, 2, 54, 95
3, 296640, Note_off_c, 2, 47, 95
3, 296640, Note_on_c, 2, 63, 95
3, 296640, Note_on_c, 2, 59, 95
3, 296640, Note_on_c, 2, 54, 95
3, 296640, Note_on_c, 2, 47, 95
3, 297360, Note_off_c, 2, 63, 95
3, 297360, Note_off_c, 2, 59, 95
3, 297360, Note_off_c, 2, 54, 95
3, 297360, Note_off_c, 2, 47, 95
3, 297360, Note_on_c, 2, 63, 95
3, 297360, Note_on_c, 2, 59, 95
3, 297360, Note_on_c, 2, 54, 95
3, 297360, Note_on_c, 2, 47, 95
3, 297600, Note_off_c, 2, 63, 95
3, 297600, Note_off_c, 2, 59, 95
3, 297600, Note_off_c, 2, 54, 95
3, 297600, Note_off_c, 2, 47, 95
3, 297600, Note_on_c, 2, 63, 95
3, 297600, Note_on_c, 2, 59, 95
3, 297600, Note_on_c, 2, 54, 95
3, 297600, Note_on_c, 2, 47, 95
3, 298080, Note_off_c, 2, 63, 95
3, 298080, Note_off_c, 2, 59, 95
3, 298080, Note_off_c, 2, 54, 95
3, 298080, Note_off_c, 2, 47, 95
3, 298080, Note_on_c, 2, 63, 95
3, 298080, Note_on_c, 2, 59, 95
3, 298080, Note_on_c, 2, 54, 95
3, 298080, Note_on_c, 2, 47, 95
3, 298560, Note_off_c, 2, 63, 95
3, 298560, Note_off_c, 2, 59, 95
3, 298560, Note_off_c, 2, 54, 95
3, 298560, Note_off_c, 2, 47, 95
3, 298560, Note_on_c, 2, 63, 95
3, 298560, Note_on_c, 2, 59, 95
3, 298560, Note_on_c, 2, 54, 95
3, 298560, Note_on_c, 2, 47, 95
3, 299040, Note_off_c, 2, 63, 95
3, 299040, Note_off_c, 2, 59, 95
3, 299040, Note_off_c, 2, 54, 95
3, 299040, Note_off_c, 2, 47, 95
3, 299040, Note_on_c, 2, 63, 95
3, 299040, Note_on_c, 2, 59, 95
3, 299040, Note_on_c, 2, 54, 95
3, 299040, Note_on_c, 2, 47, 95
3, 299520, Note_off_c, 2, 63, 95
3, 299520, Note_off_c, 2, 59, 95
3, 299520, Note_off_c, 2, 54, 95
3, 299520, Note_off_c, 2, 47, 95
3, 299520, Note_on_c, 2, 61, 95
3, 299520, Note_on_c, 2, 57, 95
3, 299520, Note_on_c, 2, 52, 95
3, 299520, Note_on_c, 2, 45, 95
3, 300000, Note_off_c, 2, 61, 95
3, 300000, Note_off_c, 2, 57, 95
3, 300000, Note_off_c, 2, 52, 95
3, 300000, Note_off_c, 2, 45, 95
3, 300000, Note_on_c, 2, 61, 95
3, 300000, Note_on_c, 2, 57, 95
3, 300000, Note_on_c, 2, 52, 95
3, 300000, Note_on_c, 2, 45, 95
3, 300480, Note_off_c, 2, 61, 95
3, 300480, Note_off_c, 2, 57, 95
3, 300480, Note_off_c, 2, 52, 95
3, 300480, Note_off_c, 2, 45, 95
3, 300480, Note_on_c, 2, 61, 95
3, 300480, Note_on_c, 2, 57, 95
3, 300480, Note_on_c, 2, 52, 95
3, 300480, Note_on_c, 2, 45, 95
3, 301200, Note_off_c, 2, 61, 95
3, 301200, Note_off_c, 2, 57, 95
3, 301200, Note_off_c, 2, 52, 95
3, 301200, Note_off_c, 2, 45, 95
3, 301200, Note_on_c, 2, 61, 95
3, 301200, Note_on_c, 2, 57, 95
3, 301200, Note_on_c, 2, 52, 95
3, 301200, Note_on_c, 2, 45, 95
3, 301440, Note_off_c, 2, 61, 95
3, 301440, Note_off_c, 2, 57, 95
3, 301440, Note_off_c, 2, 52, 95
3, 301440, Note_off_c, 2, 45, 95
3, 301440, Note_on_c, 2, 61, 95
3, 301440, Note_on_c, 2, 57, 95
3, 301440, Note_on_c, 2, 52, 95
3, 301440, Note_on_c, 2, 45, 95
3, 301920, Note_off_c, 2, 61, 95
3, 301920, Note_off_c, 2, 57, 95
3, 301920, Note_off_c, 2, 52, 95
3, 301920, Note_off_c, 2, 45, 95
3, 301920, Note_on_c, 2, 61, 95
3, 301920, Note_on_c, 2, 57, 95
3, 301920, Note_on_c, 2, 52, 95
3, 301920, Note_on_c, 2, 45, 95
3, 302400, Note_off_c, 2, 61, 95
3, 302400, Note_off_c, 2, 57, 95
3, 302400, Note_off_c, 2, 52, 95
3, 302400, Note_off_c, 2, 45, 95
3, 302400, Note_on_c, 2, 61, 95
3, 302400, Note_on_c, 2, 57, 95
3, 302400, Note_on_c, 2, 52, 95
3, 302400, Note_on_c, 2, 45, 95
3, 302880, Note_off_c, 2, 61, 95
3, 302880, Note_off_c, 2, 57, 95
3, 302880, Note_off_c, 2, 52, 95
3, 302880, Note_off_c, 2, 45, 95
3, 302880, Note_on_c, 2, 61, 95
3, 302880, Note_on_c, 2, 57, 95
3, 302880, Note_on_c, 2, 52, 95
3, 302880, Note_on_c, 2, 45, 95
3, 303360, Note_off_c, 2, 61, 95
3, 303360, Note_off_c, 2, 57, 95
3, 303360, Note_off_c, 2, 52, 95
3, 303360, Note_off_c, 2, 45, 95
3, 303360, Note_on_c, 2, 59, 95
3, 303360, Note_on_c, 2, 56, 95
3, 303360, Note_on_c, 2, 52, 95
3, 303360, Note_on_c, 2, 47, 95
3, 303840, Note_off_c, 2, 59, 95
3, 303840, Note_off_c, 2, 56, 95
3, 303840, Note_off_c, 2, 52, 95
3, 303840, Note_off_c, 2, 47, 95
3, 303840, Note_on_c, 2, 61, 95
3, 303840, Note_on_c, 2, 57, 95
3, 303840, Note_on_c, 2, 52, 95
3, 303840, Note_on_c, 2, 45, 95
3, 304320, Note_off_c, 2, 61, 95
3, 304320, Note_off_c, 2, 57, 95
3, 304320, Note_off_c, 2, 52, 95
3, 304320, Note_off_c, 2, 45, 95
3, 304320, Note_on_c, 2, 59, 95
3, 304320, Note_on_c, 2, 56, 95
3, 304320, Note_on_c, 2, 52, 95
3, 304320, Note_on_c, 2, 47, 95
3, 304800, Note_off_c, 2, 59, 95
3, 304800, Note_off_c, 2, 56, 95
3, 304800, Note_off_c, 2, 52, 95
3, 304800, Note_off_c, 2, 47, 95
3, 304800, Note_on_c, 2, 61, 95
3, 304800, Note_on_c, 2, 57, 95
3, 304800, Note_on_c, 2, 52, 95
3, 304800, Note_on_c, 2, 45, 95
3, 305280, Note_off_c, 2, 61, 95
3, 305280, Note_off_c, 2, 57, 95
3, 305280, Note_off_c, 2, 52, 95
3, 305280, Note_off_c, 2, 45, 95
3, 305280, Note_on_c, 2, 59, 95
3, 305280, Note_on_c, 2, 56, 95
3, 305280, Note_on_c, 2, 52, 95
3, 305280, Note_on_c, 2, 47, 95
3, 305760, Note_off_c, 2, 59, 95
3, 305760, Note_off_c, 2, 56, 95
3, 305760, Note_off_c, 2, 52, 95
3, 305760, Note_off_c, 2, 47, 95
3, 305760, Note_on_c, 2, 63, 95
3, 305760, Note_on_c, 2, 59, 95
3, 305760, Note_on_c, 2, 54, 95
3, 305760, Note_on_c, 2, 47, 95
3, 306240, Note_off_c, 2, 63, 95
3, 306240, Note_off_c, 2, 59, 95
3, 306240, Note_off_c, 2, 54, 95
3, 306240, Note_off_c, 2, 47, 95
3, 306240, Note_on_c, 2, 63, 95
3, 306240, Note_on_c, 2, 59, 95
3, 306240, Note_on_c, 2, 54, 95
3, 306240, Note_on_c, 2, 47, 95
3, 306720, Note_off_c, 2, 63, 95
3, 306720, Note_off_c, 2, 59, 95
3, 306720, Note_off_c, 2, 54, 95
3, 306720, Note_off_c, 2, 47, 95
3, 306720, Note_on_c, 2, 63, 95
3, 306720, Note_on_c, 2, 59, 95
3, 306720, Note_on_c, 2, 54, 95
3, 306720, Note_on_c, 2, 47, 95
3, 307200, Note_off_c, 2, 63, 95
3, 307200, Note_off_c, 2, 59, 95
3, 307200, Note_off_c, 2, 54, 95
3, 307200, Note_off_c, 2, 47, 95
3, 307200, Note_on_c, 2, 61, 95
3, 307200, Note_on_c, 2, 56, 95
3, 307200, Note_on_c, 2, 49, 95
3, 307680, Note_off_c, 2, 61, 95
3, 307680, Note_off_c, 2, 56, 95
3, 307680, Note_off_c, 2, 49, 95
3, 307680, Note_on_c, 2, 65, 95
3, 307680, Note_on_c, 2, 61, 95
3, 307680, Note_on_c, 2, 56, 95
3, 307680, Note_on_c, 2, 49, 95
3, 308160, Note_off_c, 2, 65, 95
3, 308160, Note_off_c, 2, 61, 95
3, 308160, Note_off_c, 2, 56, 95
3, 308160, Note_off_c, 2, 49, 95
3, 308160, Note_on_c, 2, 65, 95
3, 308160, Note_on_c, 2, 61, 95
3, 308160, Note_on_c, 2, 56, 95
3, 308160, Note_on_c, 2, 49, 95
3, 308880, Note_off_c, 2, 65, 95
3, 308880, Note_off_c, 2, 61, 95
3, 308880, Note_off_c, 2, 56, 95
3, 308880, Note_off_c, 2, 49, 95
3, 308880, Note_on_c, 2, 65, 95
3, 308880, Note_on_c, 2, 61, 95
3, 308880, Note_on_c, 2, 56, 95
3, 308880, Note_on_c, 2, 49, 95
3, 309120, Note_off_c, 2, 65, 95
3, 309120, Note_off_c, 2, 61, 95
3, 309120, Note_off_c, 2, 56, 95
3, 309120, Note_off_c, 2, 49, 95
3, 309120, Note_on_c, 2, 65, 95
3, 309120, Note_on_c, 2, 61, 95
3, 309120, Note_on_c, 2, 56, 95
3, 309120, Note_on_c, 2, 49, 95
3, 309600, Note_off_c, 2, 65, 95
3, 309600, Note_off_c, 2, 61, 95
3, 309600, Note_off_c, 2, 56, 95
3, 309600, Note_off_c, 2, 49, 95
3, 309600, Note_on_c, 2, 65, 95
3, 309600, Note_on_c, 2, 61, 95
3, 309600, Note_on_c, 2, 56, 95
3, 309600, Note_on_c, 2, 49, 95
3, 310080, Note_off_c, 2, 65, 95
3, 310080, Note_off_c, 2, 61, 95
3, 310080, Note_off_c, 2, 56, 95
3, 310080, Note_off_c, 2, 49, 95
3, 310080, Note_on_c, 2, 65, 95
3, 310080, Note_on_c, 2, 61, 95
3, 310080, Note_on_c, 2, 56, 95
3, 310080, Note_on_c, 2, 49, 95
3, 310560, Note_off_c, 2, 65, 95
3, 310560, Note_off_c, 2, 61, 95
3, 310560, Note_off_c, 2, 56, 95
3, 310560, Note_off_c, 2, 49, 95
3, 310560, Note_on_c, 2, 65, 95
3, 310560, Note_on_c, 2, 61, 95
3, 310560, Note_on_c, 2, 56, 95
3, 310560, Note_on_c, 2, 49, 95
3, 311040, Note_off_c, 2, 65, 95
3, 311040, Note_off_c, 2, 61, 95
3, 311040, Note_off_c, 2, 56, 95
3, 311040, Note_off_c, 2, 49, 95
3, 311040, Note_on_c, 2, 63, 95
3, 311040, Note_on_c, 2, 59, 95
3, 311040, Note_on_c, 2, 54, 95
3, 311040, Note_on_c, 2, 47, 95
3, 311520, Note_off_c, 2, 63, 95
3, 311520, Note_off_c, 2, 59, 95
3, 311520, Note_off_c, 2, 54, 95
3, 311520, Note_off_c, 2, 47, 95
3, 311520, Note_on_c, 2, 63, 95
3, 311520, Note_on_c, 2, 59, 95
3, 311520, Note_on_c, 2, 54, 95
3, 311520, Note_on_c, 2, 47, 95
3, 312000, Note_off_c, 2, 63, 95
3, 312000, Note_off_c, 2, 59, 95
3, 312000, Note_off_c, 2, 54, 95
3, 312000, Note_off_c, 2, 47, 95
3, 312000, Note_on_c, 2, 63, 95
3, 312000, Note_on_c, 2, 59, 95
3, 312000, Note_on_c, 2, 54, 95
3, 312000, Note_on_c, 2, 47, 95
3, 312720, Note_off_c, 2, 63, 95
3, 312720, Note_off_c, 2, 59, 95
3, 312720, Note_off_c, 2, 54, 95
3, 312720, Note_off_c, 2, 47, 95
3, 312720, Note_on_c, 2, 63, 95
3, 312720, Note_on_c, 2, 59, 95
3, 312720, Note_on_c, 2, 54, 95
3, 312720, Note_on_c, 2, 47, 95
3, 312960, Note_off_c, 2, 63, 95
3, 312960, Note_off_c, 2, 59, 95
3, 312960, Note_off_c, 2, 54, 95
3, 312960, Note_off_c, 2, 47, 95
3, 312960, Note_on_c, 2, 63, 95
3, 312960, Note_on_c, 2, 59, 95
3, 312960, Note_on_c, 2, 54, 95
3, 312960, Note_on_c, 2, 47, 95
3, 313440, Note_off_c, 2, 63, 95
3, 313440, Note_off_c, 2, 59, 95
3, 313440, Note_off_c, 2, 54, 95
3, 313440, Note_off_c, 2, 47, 95
3, 313440, Note_on_c, 2, 63, 95
3, 313440, Note_on_c, 2, 59, 95
3, 313440, Note_on_c, 2, 54, 95
3, 313440, Note_on_c, 2, 47, 95
3, 313920, Note_off_c, 2, 63, 95
3, 313920, Note_off_c, 2, 59, 95
3, 313920, Note_off_c, 2, 54, 95
3, 313920, Note_off_c, 2, 47, 95
3, 313920, Note_on_c, 2, 63, 95
3, 313920, Note_on_c, 2, 59, 95
3, 313920, Note_on_c, 2, 54, 95
3, 313920, Note_on_c, 2, 47, 95
3, 314400, Note_off_c, 2, 63, 95
3, 314400, Note_off_c, 2, 59, 95
3, 314400, Note_off_c, 2, 54, 95
3, 314400, Note_off_c, 2, 47, 95
3, 314400, Note_on_c, 2, 63, 95
3, 314400, Note_on_c, 2, 59, 95
3, 314400, Note_on_c, 2, 54, 95
3, 314400, Note_on_c, 2, 47, 95
3, 314880, Note_off_c, 2, 63, 95
3, 314880, Note_off_c, 2, 59, 95
3, 314880, Note_off_c, 2, 54, 95
3, 314880, Note_off_c, 2, 47, 95
3, 314880, Note_on_c, 2, 61, 95
3, 314880, Note_on_c, 2, 57, 95
3, 314880, Note_on_c, 2, 52, 95
3, 314880, Note_on_c, 2, 45, 95
3, 315360, Note_off_c, 2, 61, 95
3, 315360, Note_off_c, 2, 57, 95
3, 315360, Note_off_c, 2, 52, 95
3, 315360, Note_off_c, 2, 45, 95
3, 315360, Note_on_c, 2, 61, 95
3, 315360, Note_on_c, 2, 57, 95
3, 315360, Note_on_c, 2, 52, 95
3, 315360, Note_on_c, 2, 45, 95
3, 315840, Note_off_c, 2, 61, 95
3, 315840, Note_off_c, 2, 57, 95
3, 315840, Note_off_c, 2, 52, 95
3, 315840, Note_off_c, 2, 45, 95
3, 315840, Note_on_c, 2, 61, 95
3, 315840, Note_on_c, 2, 57, 95
3, 315840, Note_on_c, 2, 52, 95
3, 315840, Note_on_c, 2, 45, 95
3, 316560, Note_off_c, 2, 61, 95
3, 316560, Note_off_c, 2, 57, 95
3, 316560, Note_off_c, 2, 52, 95
3, 316560, Note_off_c, 2, 45, 95
3, 316560, Note_on_c, 2, 61, 95
3, 316560, Note_on_c, 2, 57, 95
3, 316560, Note_on_c, 2, 52, 95
3, 316560, Note_on_c, 2, 45, 95
3, 316800, Note_off_c, 2, 61, 95
3, 316800, Note_off_c, 2, 57, 95
3, 316800, Note_off_c, 2, 52, 95
3, 316800, Note_off_c, 2, 45, 95
3, 316800, Note_on_c, 2, 61, 95
3, 316800, Note_on_c, 2, 57, 95
3, 316800, Note_on_c, 2, 52, 95
3, 316800, Note_on_c, 2, 45, 95
3, 317280, Note_off_c, 2, 61, 95
3, 317280, Note_off_c, 2, 57, 95
3, 317280, Note_off_c, 2, 52, 95
3, 317280, Note_off_c, 2, 45, 95
3, 317280, Note_on_c, 2, 61, 95
3, 317280, Note_on_c, 2, 57, 95
3, 317280, Note_on_c, 2, 52, 95
3, 317280, Note_on_c, 2, 45, 95
3, 317760, Note_off_c, 2, 61, 95
3, 317760, Note_off_c, 2, 57, 95
3, 317760, Note_off_c, 2, 52, 95
3, 317760, Note_off_c, 2, 45, 95
3, 317760, Note_on_c, 2, 61, 95
3, 317760, Note_on_c, 2, 57, 95
3, 317760, Note_on_c, 2, 52, 95
3, 317760, Note_on_c, 2, 45, 95
3, 318240, Note_off_c, 2, 61, 95
3, 318240, Note_off_c, 2, 57, 95
3, 318240, Note_off_c, 2, 52, 95
3, 318240, Note_off_c, 2, 45, 95
3, 318240, Note_on_c, 2, 61, 95
3, 318240, Note_on_c, 2, 57, 95
3, 318240, Note_on_c, 2, 52, 95
3, 318240, Note_on_c, 2, 45, 95
3, 318720, Note_off_c, 2, 61, 95
3, 318720, Note_off_c, 2, 57, 95
3, 318720, Note_off_c, 2, 52, 95
3, 318720, Note_off_c, 2, 45, 95
3, 318720, Note_on_c, 2, 59, 95
3, 318720, Note_on_c, 2, 56, 95
3, 318720, Note_on_c, 2, 52, 95
3, 318720, Note_on_c, 2, 47, 95
3, 319200, Note_off_c, 2, 59, 95
3, 319200, Note_off_c, 2, 56, 95
3, 319200, Note_off_c, 2, 52, 95
3, 319200, Note_off_c, 2, 47, 95
3, 319200, Note_on_c, 2, 61, 95
3, 319200, Note_on_c, 2, 57, 95
3, 319200, Note_on_c, 2, 52, 95
3, 319200, Note_on_c, 2, 45, 95
3, 319680, Note_off_c, 2, 61, 95
3, 319680, Note_off_c, 2, 57, 95
3, 319680, Note_off_c, 2, 52, 95
3, 319680, Note_off_c, 2, 45, 95
3, 319680, Note_on_c, 2, 59, 95
3, 319680, Note_on_c, 2, 56, 95
3, 319680, Note_on_c, 2, 52, 95
3, 319680, Note_on_c, 2, 47, 95
3, 320160, Note_off_c, 2, 59, 95
3, 320160, Note_off_c, 2, 56, 95
3, 320160, Note_off_c, 2, 52, 95
3, 320160, Note_off_c, 2, 47, 95
3, 320160, Note_on_c, 2, 61, 95
3, 320160, Note_on_c, 2, 57, 95
3, 320160, Note_on_c, 2, 52, 95
3, 320160, Note_on_c, 2, 45, 95
3, 320640, Note_off_c, 2, 61, 95
3, 320640, Note_off_c, 2, 57, 95
3, 320640, Note_off_c, 2, 52, 95
3, 320640, Note_off_c, 2, 45, 95
3, 320640, Note_on_c, 2, 59, 95
3, 320640, Note_on_c, 2, 56, 95
3, 320640, Note_on_c, 2, 52, 95
3, 320640, Note_on_c, 2, 47, 95
3, 321120, Note_off_c, 2, 59, 95
3, 321120, Note_off_c, 2, 56, 95
3, 321120, Note_off_c, 2, 52, 95
3, 321120, Note_off_c, 2, 47, 95
3, 321120, Note_on_c, 2, 63, 95
3, 321120, Note_on_c, 2, 59, 95
3, 321120, Note_on_c, 2, 54, 95
3, 321120, Note_on_c, 2, 47, 95
3, 321600, Note_off_c, 2, 63, 95
3, 321600, Note_off_c, 2, 59, 95
3, 321600, Note_off_c, 2, 54, 95
3, 321600, Note_off_c, 2, 47, 95
3, 321600, Note_on_c, 2, 63, 95
3, 321600, Note_on_c, 2, 59, 95
3, 321600, Note_on_c, 2, 54, 95
3, 321600, Note_on_c, 2, 47, 95
3, 322080, Note_off_c, 2, 63, 95
3, 322080, Note_off_c, 2, 59, 95
3, 322080, Note_off_c, 2, 54, 95
3, 322080, Note_off_c, 2, 47, 95
3, 322080, Note_on_c, 2, 63, 95
3, 322080, Note_on_c, 2, 59, 95
3, 322080, Note_on_c, 2, 54, 95
3, 322080, Note_on_c, 2, 47, 95
3, 322560, Note_off_c, 2, 63, 95
3, 322560, Note_off_c, 2, 59, 95
3, 322560, Note_off_c, 2, 54, 95
3, 322560, Note_off_c, 2, 47, 95
3, 322560, Note_on_c, 2, 61, 95
3, 322560, Note_on_c, 2, 56, 95
3, 322560, Note_on_c, 2, 49, 95
3, 323520, Note_off_c, 2, 61, 95
3, 323520, Note_off_c, 2, 56, 95
3, 323520, Note_off_c, 2, 49, 95
3, 323520, Note_on_c, 2, 65, 95
3, 323520, Note_on_c, 2, 61, 95
3, 323520, Note_on_c, 2, 56, 95
3, 323520, Note_on_c, 2, 49, 95
3, 324240, Note_off_c, 2, 65, 95
3, 324240, Note_off_c, 2, 61, 95
3, 324240, Note_off_c, 2, 56, 95
3, 324240, Note_off_c, 2, 49, 95
3, 324240, Note_on_c, 2, 66, 95
3, 324240, Note_on_c, 2, 61, 95
3, 324240, Note_on_c, 2, 56, 95
3, 324240, Note_on_c, 2, 49, 95
3, 324480, Note_off_c, 2, 66, 95
3, 324480, Note_off_c, 2, 61, 95
3, 324480, Note_off_c, 2, 56, 95
3, 324480, Note_off_c, 2, 49, 95
3, 324480, Note_on_c, 2, 66, 95
3, 324480, Note_on_c, 2, 61, 95
3, 324480, Note_on_c, 2, 56, 95
3, 324480, Note_on_c, 2, 49, 95
3, 324960, Note_off_c, 2, 66, 95
3, 324960, Note_off_c, 2, 61, 95
3, 324960, Note_off_c, 2, 56, 95
3, 324960, Note_off_c, 2, 49, 95
3, 324960, Note_on_c, 2, 66, 95
3, 324960, Note_on_c, 2, 61, 95
3, 324960, Note_on_c, 2, 56, 95
3, 324960, Note_on_c, 2, 49, 95
3, 325440, Note_off_c, 2, 66, 95
3, 325440, Note_off_c, 2, 61, 95
3, 325440, Note_off_c, 2, 56, 95
3, 325440, Note_off_c, 2, 49, 95
3, 325440, Note_on_c, 2, 66, 95
3, 325440, Note_on_c, 2, 61, 95
3, 325440, Note_on_c, 2, 56, 95
3, 325440, Note_on_c, 2, 49, 95
3, 325920, Note_off_c, 2, 66, 95
3, 325920, Note_off_c, 2, 61, 95
3, 325920, Note_off_c, 2, 56, 95
3, 325920, Note_off_c, 2, 49, 95
3, 325920, Note_on_c, 2, 56, 95
3, 325920, Note_on_c, 2, 52, 95
3, 325920, Note_on_c, 2, 47, 95
3, 325920, Note_on_c, 2, 40, 95
3, 325979, Note_off_c, 2, 56, 95
3, 325979, Note_off_c, 2, 52, 95
3, 325979, Note_off_c, 2, 47, 95
3, 325979, Note_off_c, 2, 40, 95
3, 326400, Note_on_c, 2, 59, 95
3, 326400, Note_on_c, 2, 54, 95
3, 326400, Note_on_c, 2, 47, 95
3, 327360, Note_off_c, 2, 59, 95
3, 327360, Note_off_c, 2, 54, 95
3, 327360, Note_off_c, 2, 47, 95
3, 327360, Note_on_c, 2, 64, 95
3, 327360, Note_on_c, 2, 59, 95
3, 327360, Note_on_c, 2, 54, 95
3, 327360, Note_on_c, 2, 47, 95
3, 328080, Note_off_c, 2, 64, 95
3, 328080, Note_off_c, 2, 59, 95
3, 328080, Note_off_c, 2, 54, 95
3, 328080, Note_off_c, 2, 47, 95
3, 328080, Note_on_c, 2, 64, 95
3, 328080, Note_on_c, 2, 59, 95
3, 328080, Note_on_c, 2, 54, 95
3, 328080, Note_on_c, 2, 47, 95
3, 328320, Note_off_c, 2, 64, 95
3, 328320, Note_off_c, 2, 59, 95
3, 328320, Note_off_c, 2, 54, 95
3, 328320, Note_off_c, 2, 47, 95
3, 328320, Note_on_c, 2, 64, 95
3, 328320, Note_on_c, 2, 59, 95
3, 328320, Note_on_c, 2, 54, 95
3, 328320, Note_on_c, 2, 47, 95
3, 328800, Note_off_c, 2, 64, 95
3, 328800, Note_off_c, 2, 59, 95
3, 328800, Note_off_c, 2, 54, 95
3, 328800, Note_off_c, 2, 47, 95
3, 328800, Note_on_c, 2, 64, 95
3, 328800, Note_on_c, 2, 59, 95
3, 328800, Note_on_c, 2, 54, 95
3, 328800, Note_on_c, 2, 47, 95
3, 329280, Note_off_c, 2, 64, 95
3, 329280, Note_off_c, 2, 59, 95
3, 329280, Note_off_c, 2, 54, 95
3, 329280, Note_off_c, 2, 47, 95
3, 329280, Note_on_c, 2, 64, 95
3, 329280, Note_on_c, 2, 59, 95
3, 329280, Note_on_c, 2, 54, 95
3, 329280, Note_on_c, 2, 47, 95
3, 329760, Note_off_c, 2, 64, 95
3, 329760, Note_off_c, 2, 59, 95
3, 329760, Note_off_c, 2, 54, 95
3, 329760, Note_off_c, 2, 47, 95
3, 329760, Note_on_c, 2, 56, 95
3, 329760, Note_on_c, 2, 52, 95
3, 329760, Note_on_c, 2, 47, 95
3, 329760, Note_on_c, 2, 40, 95
3, 329819, Note_off_c, 2, 56, 95
3, 329819, Note_off_c, 2, 52, 95
3, 329819, Note_off_c, 2, 47, 95
3, 329819, Note_off_c, 2, 40, 95
3, 330240, Note_on_c, 2, 61, 95
3, 330240, Note_on_c, 2, 57, 95
3, 330240, Note_on_c, 2, 52, 95
3, 330240, Note_on_c, 2, 45, 95
3, 330720, Note_off_c, 2, 61, 95
3, 330720, Note_off_c, 2, 57, 95
3, 330720, Note_off_c, 2, 52, 95
3, 330720, Note_off_c, 2, 45, 95
3, 330720, Note_on_c, 2, 61, 95
3, 330720, Note_on_c, 2, 57, 95
3, 330720, Note_on_c, 2, 52, 95
3, 330720, Note_on_c, 2, 45, 95
3, 331200, Note_off_c, 2, 61, 95
3, 331200, Note_off_c, 2, 57, 95
3, 331200, Note_off_c, 2, 52, 95
3, 331200, Note_off_c, 2, 45, 95
3, 331200, Note_on_c, 2, 61, 95
3, 331200, Note_on_c, 2, 57, 95
3, 331200, Note_on_c, 2, 52, 95
3, 331200, Note_on_c, 2, 45, 95
3, 331920, Note_off_c, 2, 61, 95
3, 331920, Note_off_c, 2, 57, 95
3, 331920, Note_off_c, 2, 52, 95
3, 331920, Note_off_c, 2, 45, 95
3, 331920, Note_on_c, 2, 61, 95
3, 331920, Note_on_c, 2, 57, 95
3, 331920, Note_on_c, 2, 52, 95
3, 331920, Note_on_c, 2, 45, 95
3, 332160, Note_off_c, 2, 61, 95
3, 332160, Note_off_c, 2, 57, 95
3, 332160, Note_off_c, 2, 52, 95
3, 332160, Note_off_c, 2, 45, 95
3, 332160, Note_on_c, 2, 61, 95
3, 332160, Note_on_c, 2, 57, 95
3, 332160, Note_on_c, 2, 52, 95
3, 332160, Note_on_c, 2, 45, 95
3, 332640, Note_off_c, 2, 61, 95
3, 332640, Note_off_c, 2, 57, 95
3, 332640, Note_off_c, 2, 52, 95
3, 332640, Note_off_c, 2, 45, 95
3, 332640, Note_on_c, 2, 61, 95
3, 332640, Note_on_c, 2, 57, 95
3, 332640, Note_on_c, 2, 52, 95
3, 332640, Note_on_c, 2, 45, 95
3, 333120, Note_off_c, 2, 61, 95
3, 333120, Note_off_c, 2, 57, 95
3, 333120, Note_off_c, 2, 52, 95
3, 333120, Note_off_c, 2, 45, 95
3, 333120, Note_on_c, 2, 61, 95
3, 333120, Note_on_c, 2, 57, 95
3, 333120, Note_on_c, 2, 52, 95
3, 333120, Note_on_c, 2, 45, 95
3, 333600, Note_off_c, 2, 61, 95
3, 333600, Note_off_c, 2, 57, 95
3, 333600, Note_off_c, 2, 52, 95
3, 333600, Note_off_c, 2, 45, 95
3, 333600, Note_on_c, 2, 56, 95
3, 333600, Note_on_c, 2, 52, 95
3, 333600, Note_on_c, 2, 47, 95
3, 333600, Note_on_c, 2, 40, 95
3, 333659, Note_off_c, 2, 56, 95
3, 333659, Note_off_c, 2, 52, 95
3, 333659, Note_off_c, 2, 47, 95
3, 333659, Note_off_c, 2, 40, 95
3, 334080, Note_on_c, 2, 59, 95
3, 334080, Note_on_c, 2, 56, 95
3, 334080, Note_on_c, 2, 52, 95
3, 334080, Note_on_c, 2, 47, 95
3, 334560, Note_off_c, 2, 59, 95
3, 334560, Note_off_c, 2, 56, 95
3, 334560, Note_off_c, 2, 52, 95
3, 334560, Note_off_c, 2, 47, 95
3, 334560, Note_on_c, 2, 61, 95
3, 334560, Note_on_c, 2, 57, 95
3, 334560, Note_on_c, 2, 52, 95
3, 334560, Note_on_c, 2, 45, 95
3, 335040, Note_off_c, 2, 61, 95
3, 335040, Note_off_c, 2, 57, 95
3, 335040, Note_off_c, 2, 52, 95
3, 335040, Note_off_c, 2, 45, 95
3, 335040, Note_on_c, 2, 59, 95
3, 335040, Note_on_c, 2, 56, 95
3, 335040, Note_on_c, 2, 52, 95
3, 335040, Note_on_c, 2, 47, 95
3, 335520, Note_off_c, 2, 59, 95
3, 335520, Note_off_c, 2, 56, 95
3, 335520, Note_off_c, 2, 52, 95
3, 335520, Note_off_c, 2, 47, 95
3, 335520, Note_on_c, 2, 61, 95
3, 335520, Note_on_c, 2, 57, 95
3, 335520, Note_on_c, 2, 52, 95
3, 335520, Note_on_c, 2, 45, 95
3, 336000, Note_off_c, 2, 61, 95
3, 336000, Note_off_c, 2, 57, 95
3, 336000, Note_off_c, 2, 52, 95
3, 336000, Note_off_c, 2, 45, 95
3, 336000, Note_on_c, 2, 64, 95
3, 336000, Note_on_c, 2, 59, 95
3, 336000, Note_on_c, 2, 54, 95
3, 336000, Note_on_c, 2, 47, 95
3, 336480, Note_off_c, 2, 64, 95
3, 336480, Note_off_c, 2, 59, 95
3, 336480, Note_off_c, 2, 54, 95
3, 336480, Note_off_c, 2, 47, 95
3, 336480, Note_on_c, 2, 64, 95
3, 336480, Note_on_c, 2, 59, 95
3, 336480, Note_on_c, 2, 54, 95
3, 336480, Note_on_c, 2, 47, 95
3, 336960, Note_off_c, 2, 64, 95
3, 336960, Note_off_c, 2, 59, 95
3, 336960, Note_off_c, 2, 54, 95
3, 336960, Note_off_c, 2, 47, 95
3, 336960, Note_on_c, 2, 64, 95
3, 336960, Note_on_c, 2, 59, 95
3, 336960, Note_on_c, 2, 54, 95
3, 336960, Note_on_c, 2, 47, 95
3, 337440, Note_off_c, 2, 64, 95
3, 337440, Note_off_c, 2, 59, 95
3, 337440, Note_off_c, 2, 54, 95
3, 337440, Note_off_c, 2, 47, 95
3, 337440, Note_on_c, 2, 61, 95
3, 337440, Note_on_c, 2, 56, 95
3, 337440, Note_on_c, 2, 49, 95
3, 337920, Note_off_c, 2, 61, 95
3, 337920, Note_off_c, 2, 56, 95
3, 337920, Note_off_c, 2, 49, 95
3, 337920, Note_on_c, 2, 61, 95
3, 337920, Note_on_c, 2, 56, 95
3, 337920, Note_on_c, 2, 49, 95
3, 338880, Note_off_c, 2, 61, 95
3, 338880, Note_off_c, 2, 56, 95
3, 338880, Note_off_c, 2, 49, 95
3, 338880, Note_on_c, 2, 65, 95
3, 338880, Note_on_c, 2, 61, 95
3, 338880, Note_on_c, 2, 56, 95
3, 338880, Note_on_c, 2, 49, 95
3, 339600, Note_off_c, 2, 65, 95
3, 339600, Note_off_c, 2, 61, 95
3, 339600, Note_off_c, 2, 56, 95
3, 339600, Note_off_c, 2, 49, 95
3, 339600, Note_on_c, 2, 66, 95
3, 339600, Note_on_c, 2, 61, 95
3, 339600, Note_on_c, 2, 56, 95
3, 339600, Note_on_c, 2, 49, 95
3, 339840, Note_off_c, 2, 66, 95
3, 339840, Note_off_c, 2, 61, 95
3, 339840, Note_off_c, 2, 56, 95
3, 339840, Note_off_c, 2, 49, 95
3, 339840, Note_on_c, 2, 66, 95
3, 339840, Note_on_c, 2, 61, 95
3, 339840, Note_on_c, 2, 56, 95
3, 339840, Note_on_c, 2, 49, 95
3, 340320, Note_off_c, 2, 66, 95
3, 340320, Note_off_c, 2, 61, 95
3, 340320, Note_off_c, 2, 56, 95
3, 340320, Note_off_c, 2, 49, 95
3, 340320, Note_on_c, 2, 66, 95
3, 340320, Note_on_c, 2, 61, 95
3, 340320, Note_on_c, 2, 56, 95
3, 340320, Note_on_c, 2, 49, 95
3, 340800, Note_off_c, 2, 66, 95
3, 340800, Note_off_c, 2, 61, 95
3, 340800, Note_off_c, 2, 56, 95
3, 340800, Note_off_c, 2, 49, 95
3, 340800, Note_on_c, 2, 66, 95
3, 340800, Note_on_c, 2, 61, 95
3, 340800, Note_on_c, 2, 56, 95
3, 340800, Note_on_c, 2, 49, 95
3, 341280, Note_off_c, 2, 66, 95
3, 341280, Note_off_c, 2, 61, 95
3, 341280, Note_off_c, 2, 56, 95
3, 341280, Note_off_c, 2, 49, 95
3, 341280, Note_on_c, 2, 56, 95
3, 341280, Note_on_c, 2, 52, 95
3, 341280, Note_on_c, 2, 47, 95
3, 341280, Note_on_c, 2, 40, 95
3, 341339, Note_off_c, 2, 56, 95
3, 341339, Note_off_c, 2, 52, 95
3, 341339, Note_off_c, 2, 47, 95
3, 341339, Note_off_c, 2, 40, 95
3, 341760, Note_on_c, 2, 59, 95
3, 341760, Note_on_c, 2, 54, 95
3, 341760, Note_on_c, 2, 47, 95
3, 342720, Note_off_c, 2, 59, 95
3, 342720, Note_off_c, 2, 54, 95
3, 342720, Note_off_c, 2, 47, 95
3, 342720, Note_on_c, 2, 64, 95
3, 342720, Note_on_c, 2, 59, 95
3, 342720, Note_on_c, 2, 54, 95
3, 342720, Note_on_c, 2, 47, 95
3, 343440, Note_off_c, 2, 64, 95
3, 343440, Note_off_c, 2, 59, 95
3, 343440, Note_off_c, 2, 54, 95
3, 343440, Note_off_c, 2, 47, 95
3, 343440, Note_on_c, 2, 64, 95
3, 343440, Note_on_c, 2, 59, 95
3, 343440, Note_on_c, 2, 54, 95
3, 343440, Note_on_c, 2, 47, 95
3, 343680, Note_off_c, 2, 64, 95
3, 343680, Note_off_c, 2, 59, 95
3, 343680, Note_off_c, 2, 54, 95
3, 343680, Note_off_c, 2, 47, 95
3, 343680, Note_on_c, 2, 64, 95
3, 343680, Note_on_c, 2, 59, 95
3, 343680, Note_on_c, 2, 54, 95
3, 343680, Note_on_c, 2, 47, 95
3, 344160, Note_off_c, 2, 64, 95
3, 344160, Note_off_c, 2, 59, 95
3, 344160, Note_off_c, 2, 54, 95
3, 344160, Note_off_c, 2, 47, 95
3, 344160, Note_on_c, 2, 64, 95
3, 344160, Note_on_c, 2, 59, 95
3, 344160, Note_on_c, 2, 54, 95
3, 344160, Note_on_c, 2, 47, 95
3, 344640, Note_off_c, 2, 64, 95
3, 344640, Note_off_c, 2, 59, 95
3, 344640, Note_off_c, 2, 54, 95
3, 344640, Note_off_c, 2, 47, 95
3, 344640, Note_on_c, 2, 64, 95
3, 344640, Note_on_c, 2, 59, 95
3, 344640, Note_on_c, 2, 54, 95
3, 344640, Note_on_c, 2, 47, 95
3, 345120, Note_off_c, 2, 64, 95
3, 345120, Note_off_c, 2, 59, 95
3, 345120, Note_off_c, 2, 54, 95
3, 345120, Note_off_c, 2, 47, 95
3, 345120, Note_on_c, 2, 56, 95
3, 345120, Note_on_c, 2, 52, 95
3, 345120, Note_on_c, 2, 47, 95
3, 345120, Note_on_c, 2, 40, 95
3, 345179, Note_off_c, 2, 56, 95
3, 345179, Note_off_c, 2, 52, 95
3, 345179, Note_off_c, 2, 47, 95
3, 345179, Note_off_c, 2, 40, 95
3, 345600, Note_on_c, 2, 61, 95
3, 345600, Note_on_c, 2, 57, 95
3, 345600, Note_on_c, 2, 52, 95
3, 345600, Note_on_c, 2, 45, 95
3, 346080, Note_off_c, 2, 61, 95
3, 346080, Note_off_c, 2, 57, 95
3, 346080, Note_off_c, 2, 52, 95
3, 346080, Note_off_c, 2, 45, 95
3, 346080, Note_on_c, 2, 61, 95
3, 346080, Note_on_c, 2, 57, 95
3, 346080, Note_on_c, 2, 52, 95
3, 346080, Note_on_c, 2, 45, 95
3, 346560, Note_off_c, 2, 61, 95
3, 346560, Note_off_c, 2, 57, 95
3, 346560, Note_off_c, 2, 52, 95
3, 346560, Note_off_c, 2, 45, 95
3, 346560, Note_on_c, 2, 61, 95
3, 346560, Note_on_c, 2, 57, 95
3, 346560, Note_on_c, 2, 52, 95
3, 346560, Note_on_c, 2, 45, 95
3, 347280, Note_off_c, 2, 61, 95
3, 347280, Note_off_c, 2, 57, 95
3, 347280, Note_off_c, 2, 52, 95
3, 347280, Note_off_c, 2, 45, 95
3, 347280, Note_on_c, 2, 61, 95
3, 347280, Note_on_c, 2, 57, 95
3, 347280, Note_on_c, 2, 52, 95
3, 347280, Note_on_c, 2, 45, 95
3, 347520, Note_off_c, 2, 61, 95
3, 347520, Note_off_c, 2, 57, 95
3, 347520, Note_off_c, 2, 52, 95
3, 347520, Note_off_c, 2, 45, 95
3, 347520, Note_on_c, 2, 61, 95
3, 347520, Note_on_c, 2, 57, 95
3, 347520, Note_on_c, 2, 52, 95
3, 347520, Note_on_c, 2, 45, 95
3, 348000, Note_off_c, 2, 61, 95
3, 348000, Note_off_c, 2, 57, 95
3, 348000, Note_off_c, 2, 52, 95
3, 348000, Note_off_c, 2, 45, 95
3, 348000, Note_on_c, 2, 61, 95
3, 348000, Note_on_c, 2, 57, 95
3, 348000, Note_on_c, 2, 52, 95
3, 348000, Note_on_c, 2, 45, 95
3, 348480, Note_off_c, 2, 61, 95
3, 348480, Note_off_c, 2, 57, 95
3, 348480, Note_off_c, 2, 52, 95
3, 348480, Note_off_c, 2, 45, 95
3, 348480, Note_on_c, 2, 61, 95
3, 348480, Note_on_c, 2, 57, 95
3, 348480, Note_on_c, 2, 52, 95
3, 348480, Note_on_c, 2, 45, 95
3, 348960, Note_off_c, 2, 61, 95
3, 348960, Note_off_c, 2, 57, 95
3, 348960, Note_off_c, 2, 52, 95
3, 348960, Note_off_c, 2, 45, 95
3, 348960, Note_on_c, 2, 56, 95
3, 348960, Note_on_c, 2, 52, 95
3, 348960, Note_on_c, 2, 47, 95
3, 348960, Note_on_c, 2, 40, 95
3, 349019, Note_off_c, 2, 56, 95
3, 349019, Note_off_c, 2, 52, 95
3, 349019, Note_off_c, 2, 47, 95
3, 349019, Note_off_c, 2, 40, 95
3, 349440, Note_on_c, 2, 59, 95
3, 349440, Note_on_c, 2, 56, 95
3, 349440, Note_on_c, 2, 52, 95
3, 349440, Note_on_c, 2, 47, 95
3, 349920, Note_off_c, 2, 59, 95
3, 349920, Note_off_c, 2, 56, 95
3, 349920, Note_off_c, 2, 52, 95
3, 349920, Note_off_c, 2, 47, 95
3, 349920, Note_on_c, 2, 61, 95
3, 349920, Note_on_c, 2, 57, 95
3, 349920, Note_on_c, 2, 52, 95
3, 349920, Note_on_c, 2, 45, 95
3, 350400, Note_off_c, 2, 61, 95
3, 350400, Note_off_c, 2, 57, 95
3, 350400, Note_off_c, 2, 52, 95
3, 350400, Note_off_c, 2, 45, 95
3, 350400, Note_on_c, 2, 59, 95
3, 350400, Note_on_c, 2, 56, 95
3, 350400, Note_on_c, 2, 52, 95
3, 350400, Note_on_c, 2, 47, 95
3, 350880, Note_off_c, 2, 59, 95
3, 350880, Note_off_c, 2, 56, 95
3, 350880, Note_off_c, 2, 52, 95
3, 350880, Note_off_c, 2, 47, 95
3, 350880, Note_on_c, 2, 61, 95
3, 350880, Note_on_c, 2, 57, 95
3, 350880, Note_on_c, 2, 52, 95
3, 350880, Note_on_c, 2, 45, 95
3, 351360, Note_off_c, 2, 61, 95
3, 351360, Note_off_c, 2, 57, 95
3, 351360, Note_off_c, 2, 52, 95
3, 351360, Note_off_c, 2, 45, 95
3, 351360, Note_on_c, 2, 64, 95
3, 351360, Note_on_c, 2, 59, 95
3, 351360, Note_on_c, 2, 54, 95
3, 351360, Note_on_c, 2, 47, 95
3, 351840, Note_off_c, 2, 64, 95
3, 351840, Note_off_c, 2, 59, 95
3, 351840, Note_off_c, 2, 54, 95
3, 351840, Note_off_c, 2, 47, 95
3, 351840, Note_on_c, 2, 64, 95
3, 351840, Note_on_c, 2, 59, 95
3, 351840, Note_on_c, 2, 54, 95
3, 351840, Note_on_c, 2, 47, 95
3, 352320, Note_off_c, 2, 64, 95
3, 352320, Note_off_c, 2, 59, 95
3, 352320, Note_off_c, 2, 54, 95
3, 352320, Note_off_c, 2, 47, 95
3, 352320, Note_on_c, 2, 64, 95
3, 352320, Note_on_c, 2, 59, 95
3, 352320, Note_on_c, 2, 54, 95
3, 352320, Note_on_c, 2, 47, 95
3, 352800, Note_off_c, 2, 64, 95
3, 352800, Note_off_c, 2, 59, 95
3, 352800, Note_off_c, 2, 54, 95
3, 352800, Note_off_c, 2, 47, 95
3, 352800, Note_on_c, 2, 61, 95
3, 352800, Note_on_c, 2, 56, 95
3, 352800, Note_on_c, 2, 49, 95
3, 353280, Note_off_c, 2, 61, 95
3, 353280, Note_off_c, 2, 56, 95
3, 353280, Note_off_c, 2, 49, 95
3, 353280, Note_on_c, 2, 61, 95
3, 353280, Note_on_c, 2, 56, 95
3, 353280, Note_on_c, 2, 49, 95
3, 354240, Note_off_c, 2, 61, 95
3, 354240, Note_off_c, 2, 56, 95
3, 354240, Note_off_c, 2, 49, 95
3, 354240, Note_on_c, 2, 61, 95
3, 354240, Note_on_c, 2, 56, 95
3, 354240, Note_on_c, 2, 49, 95
3, 355680, Note_off_c, 2, 61, 95
3, 355680, Note_off_c, 2, 56, 95
3, 355680, Note_off_c, 2, 49, 95
3, 355680, Note_on_c, 2, 61, 95
3, 355680, Note_on_c, 2, 56, 95
3, 355680, Note_on_c, 2, 49, 95
3, 357120, Note_off_c, 2, 61, 95
3, 357120, Note_off_c, 2, 56, 95
3, 357120, Note_off_c, 2, 49, 95
3, 357120, Note_on_c, 2, 64, 95
3, 357120, Note_on_c, 2, 59, 95
3, 357120, Note_on_c, 2, 49, 95
3, 357600, Note_off_c, 2, 64, 95
3, 357600, Note_off_c, 2, 59, 95
3, 357600, Note_off_c, 2, 49, 95
3, 357600, Note_on_c, 2, 61, 95
3, 357600, Note_on_c, 2, 56, 95
3, 357600, Note_on_c, 2, 49, 95
3, 358080, Note_off_c, 2, 61, 95
3, 358080, Note_off_c, 2, 56, 95
3, 358080, Note_off_c, 2, 49, 95
3, 358080, Note_on_c, 2, 66, 95
3, 358080, Note_on_c, 2, 61, 95
3, 358080, Note_on_c, 2, 58, 95
3, 358080, Note_on_c, 2, 49, 95
3, 358560, Note_off_c, 2, 66, 95
3, 358560, Note_off_c, 2, 61, 95
3, 358560, Note_off_c, 2, 58, 95
3, 358560, Note_off_c, 2, 49, 95
3, 358560, Note_on_c, 2, 65, 63
3, 358560, Note_on_c, 2, 61, 95
3, 358560, Note_on_c, 2, 56, 95
3, 358560, Note_on_c, 2, 49, 95
3, 359520, Note_off_c, 2, 65, 63
3, 359520, Note_off_c, 2, 61, 95
3, 359520, Note_off_c, 2, 56, 95
3, 359520, Note_off_c, 2, 49, 95
3, 359520, Note_on_c, 2, 56, 95
3, 359520, Note_on_c, 2, 49, 95
3, 360000, Note_off_c, 2, 56, 95
3, 360000, Note_off_c, 2, 49, 95
3, 360000, Note_on_c, 2, 59, 95
3, 360000, Note_on_c, 2, 49, 95
3, 360480, Note_off_c, 2, 59, 95
3, 360480, Note_off_c, 2, 49, 95
3, 360480, Note_on_c, 2, 61, 95
3, 360480, Note_on_c, 2, 56, 95
3, 360480, Note_on_c, 2, 49, 95
3, 361440, Note_off_c, 2, 61, 95
3, 361440, Note_off_c, 2, 56, 95
3, 361440, Note_off_c, 2, 49, 95
3, 361440, Note_on_c, 2, 61, 95
3, 361440, Note_on_c, 2, 56, 95
3, 361440, Note_on_c, 2, 49, 95
3, 361920, Note_off_c, 2, 61, 95
3, 361920, Note_off_c, 2, 56, 95
3, 361920, Note_off_c, 2, 49, 95
3, 361920, Note_on_c, 2, 61, 95
3, 361920, Note_on_c, 2, 56, 95
3, 361920, Note_on_c, 2, 49, 95
3, 363360, Note_off_c, 2, 61, 95
3, 363360, Note_off_c, 2, 56, 95
3, 363360, Note_off_c, 2, 49, 95
3, 363360, Note_on_c, 2, 61, 95
3, 363360, Note_on_c, 2, 56, 95
3, 363360, Note_on_c, 2, 49, 95
3, 364800, Note_off_c, 2, 61, 95
3, 364800, Note_off_c, 2, 56, 95
3, 364800, Note_off_c, 2, 49, 95
3, 364800, Note_on_c, 2, 64, 95
3, 364800, Note_on_c, 2, 59, 95
3, 364800, Note_on_c, 2, 49, 95
3, 365280, Note_off_c, 2, 64, 95
3, 365280, Note_off_c, 2, 59, 95
3, 365280, Note_off_c, 2, 49, 95
3, 365280, Note_on_c, 2, 61, 95
3, 365280, Note_on_c, 2, 56, 95
3, 365280, Note_on_c, 2, 49, 95
3, 365760, Note_off_c, 2, 61, 95
3, 365760, Note_off_c, 2, 56, 95
3, 365760, Note_off_c, 2, 49, 95
3, 365760, Note_on_c, 2, 66, 95
3, 365760, Note_on_c, 2, 61, 95
3, 365760, Note_on_c, 2, 58, 95
3, 365760, Note_on_c, 2, 49, 95
3, 366240, Note_off_c, 2, 66, 95
3, 366240, Note_off_c, 2, 61, 95
3, 366240, Note_off_c, 2, 58, 95
3, 366240, Note_off_c, 2, 49, 95
3, 366240, Note_on_c, 2, 65, 63
3, 366240, Note_on_c, 2, 61, 95
3, 366240, Note_on_c, 2, 56, 95
3, 366240, Note_on_c, 2, 49, 95
3, 367200, Note_off_c, 2, 65, 63
3, 367200, Note_off_c, 2, 61, 95
3, 367200, Note_off_c, 2, 56, 95
3, 367200, Note_off_c, 2, 49, 95
3, 367200, Note_on_c, 2, 61, 95
3, 367200, Note_on_c, 2, 56, 95
3, 367200, Note_on_c, 2, 49, 95
3, 367680, Note_off_c, 2, 61, 95
3, 367680, Note_off_c, 2, 56, 95
3, 367680, Note_off_c, 2, 49, 95
3, 367680, Note_on_c, 2, 61, 95
3, 367680, Note_on_c, 2, 56, 95
3, 367680, Note_on_c, 2, 49, 95
3, 368160, Note_off_c, 2, 61, 95
3, 368160, Note_off_c, 2, 56, 95
3, 368160, Note_off_c, 2, 49, 95
3, 368160, Note_on_c, 2, 59, 95
3, 368160, Note_on_c, 2, 49, 95
3, 368640, Note_off_c, 2, 59, 95
3, 368640, Note_off_c, 2, 49, 95
3, 368640, Note_on_c, 2, 61, 95
3, 368640, Note_on_c, 2, 56, 95
3, 368640, Note_on_c, 2, 49, 95
3, 369600, Note_off_c, 2, 61, 95
3, 369600, Note_off_c, 2, 56, 95
3, 369600, Note_off_c, 2, 49, 95
3, 369600, Note_on_c, 2, 61, 95
3, 369600, Note_on_c, 2, 56, 95
3, 369600, Note_on_c, 2, 49, 95
3, 371040, Note_off_c, 2, 61, 95
3, 371040, Note_off_c, 2, 56, 95
3, 371040, Note_off_c, 2, 49, 95
3, 371040, Note_on_c, 2, 61, 95
3, 371040, Note_on_c, 2, 56, 95
3, 371040, Note_on_c, 2, 49, 95
3, 372480, Note_off_c, 2, 61, 95
3, 372480, Note_off_c, 2, 56, 95
3, 372480, Note_off_c, 2, 49, 95
3, 372480, Note_on_c, 2, 64, 95
3, 372480, Note_on_c, 2, 59, 95
3, 372480, Note_on_c, 2, 49, 95
3, 372960, Note_off_c, 2, 64, 95
3, 372960, Note_off_c, 2, 59, 95
3, 372960, Note_off_c, 2, 49, 95
3, 372960, Note_on_c, 2, 61, 95
3, 372960, Note_on_c, 2, 56, 95
3, 372960, Note_on_c, 2, 49, 95
3, 373440, Note_off_c, 2, 61, 95
3, 373440, Note_off_c, 2, 56, 95
3, 373440, Note_off_c, 2, 49, 95
3, 373440, Note_on_c, 2, 66, 95
3, 373440, Note_on_c, 2, 61, 95
3, 373440, Note_on_c, 2, 58, 95
3, 373440, Note_on_c, 2, 49, 95
3, 373920, Note_off_c, 2, 66, 95
3, 373920, Note_off_c, 2, 61, 95
3, 373920, Note_off_c, 2, 58, 95
3, 373920, Note_off_c, 2, 49, 95
3, 373920, Note_on_c, 2, 65, 63
3, 373920, Note_on_c, 2, 61, 95
3, 373920, Note_on_c, 2, 56, 95
3, 373920, Note_on_c, 2, 49, 95
3, 374880, Note_off_c, 2, 65, 63
3, 374880, Note_off_c, 2, 61, 95
3, 374880, Note_off_c, 2, 56, 95
3, 374880, Note_off_c, 2, 49, 95
3, 374880, Note_on_c, 2, 56, 95
3, 374880, Note_on_c, 2, 49, 95
3, 375360, Note_off_c, 2, 56, 95
3, 375360, Note_off_c, 2, 49, 95
3, 375360, Note_on_c, 2, 59, 95
3, 375360, Note_on_c, 2, 49, 95
3, 375840, Note_off_c, 2, 59, 95
3, 375840, Note_off_c, 2, 49, 95
3, 375840, Note_on_c, 2, 61, 95
3, 375840, Note_on_c, 2, 56, 95
3, 375840, Note_on_c, 2, 49, 95
3, 376800, Note_off_c, 2, 61, 95
3, 376800, Note_off_c, 2, 56, 95
3, 376800, Note_off_c, 2, 49, 95
3, 376800, Note_on_c, 2, 61, 95
3, 376800, Note_on_c, 2, 56, 95
3, 376800, Note_on_c, 2, 49, 95
3, 377280, Note_off_c, 2, 61, 95
3, 377280, Note_off_c, 2, 56, 95
3, 377280, Note_off_c, 2, 49, 95
3, 377280, Note_on_c, 2, 61, 95
3, 377280, Note_on_c, 2, 56, 95
3, 377280, Note_on_c, 2, 49, 95
3, 378720, Note_off_c, 2, 61, 95
3, 378720, Note_off_c, 2, 56, 95
3, 378720, Note_off_c, 2, 49, 95
3, 378720, Note_on_c, 2, 61, 95
3, 378720, Note_on_c, 2, 56, 95
3, 378720, Note_on_c, 2, 49, 95
3, 380160, Note_off_c, 2, 61, 95
3, 380160, Note_off_c, 2, 56, 95
3, 380160, Note_off_c, 2, 49, 95
3, 380160, Note_on_c, 2, 64, 95
3, 380160, Note_on_c, 2, 59, 95
3, 380160, Note_on_c, 2, 49, 95
3, 380640, Note_off_c, 2, 64, 95
3, 380640, Note_off_c, 2, 59, 95
3, 380640, Note_off_c, 2, 49, 95
3, 380640, Note_on_c, 2, 61, 95
3, 380640, Note_on_c, 2, 56, 95
3, 380640, Note_on_c, 2, 49, 95
3, 381120, Note_off_c, 2, 61, 95
3, 381120, Note_off_c, 2, 56, 95
3, 381120, Note_off_c, 2, 49, 95
3, 381120, Note_on_c, 2, 66, 95
3, 381120, Note_on_c, 2, 61, 95
3, 381120, Note_on_c, 2, 58, 95
3, 381120, Note_on_c, 2, 49, 95
3, 381600, Note_off_c, 2, 66, 95
3, 381600, Note_off_c, 2, 61, 95
3, 381600, Note_off_c, 2, 58, 95
3, 381600, Note_off_c, 2, 49, 95
3, 381600, Note_on_c, 2, 65, 63
3, 381600, Note_on_c, 2, 61, 95
3, 381600, Note_on_c, 2, 56, 95
3, 381600, Note_on_c, 2, 49, 95
3, 382560, Note_off_c, 2, 65, 63
3, 382560, Note_off_c, 2, 61, 95
3, 382560, Note_off_c, 2, 56, 95
3, 382560, Note_off_c, 2, 49, 95
3, 382560, Note_on_c, 2, 61, 95
3, 382560, Note_on_c, 2, 56, 95
3, 382560, Note_on_c, 2, 49, 95
3, 383040, Note_off_c, 2, 61, 95
3, 383040, Note_off_c, 2, 56, 95
3, 383040, Note_off_c, 2, 49, 95
3, 383040, Note_on_c, 2, 61, 95
3, 383040, Note_on_c, 2, 56, 95
3, 383040, Note_on_c, 2, 49, 95
3, 383520, Note_off_c, 2, 61, 95
3, 383520, Note_off_c, 2, 56, 95
3, 383520, Note_off_c, 2, 49, 95
3, 383520, Note_on_c, 2, 59, 95
3, 383520, Note_on_c, 2, 49, 95
3, 384000, Note_off_c, 2, 59, 95
3, 384000, Note_off_c, 2, 49, 95
3, 384000, Note_on_c, 2, 61, 95
3, 384000, Note_on_c, 2, 56, 95
3, 384000, Note_on_c, 2, 49, 95
3, 384960, Note_off_c, 2, 61, 95
3, 384960, Note_off_c, 2, 56, 95
3, 384960, Note_off_c, 2, 49, 95
3, 384960, Note_on_c, 2, 61, 95
3, 384960, Note_on_c, 2, 56, 95
3, 384960, Note_on_c, 2, 49, 95
3, 385680, Note_off_c, 2, 61, 95
3, 385680, Note_off_c, 2, 56, 95
3, 385680, Note_off_c, 2, 49, 95
3, 385680, Note_on_c, 2, 61, 95
3, 385680, Note_on_c, 2, 56, 95
3, 385680, Note_on_c, 2, 49, 95
3, 385920, Note_off_c, 2, 61, 95
3, 385920, Note_off_c, 2, 56, 95
3, 385920, Note_off_c, 2, 49, 95
3, 385920, Note_on_c, 2, 61, 95
3, 385920, Note_on_c, 2, 56, 95
3, 385920, Note_on_c, 2, 49, 95
3, 386400, Note_off_c, 2, 61, 95
3, 386400, Note_off_c, 2, 56, 95
3, 386400, Note_off_c, 2, 49, 95
3, 386400, Note_on_c, 2, 61, 95
3, 386400, Note_on_c, 2, 56, 95
3, 386400, Note_on_c, 2, 49, 95
3, 387840, Note_off_c, 2, 61, 95
3, 387840, Note_off_c, 2, 56, 95
3, 387840, Note_off_c, 2, 49, 95
3, 387840, Note_on_c, 2, 64, 95
3, 387840, Note_on_c, 2, 59, 95
3, 387840, Note_on_c, 2, 49, 95
3, 388320, Note_off_c, 2, 64, 95
3, 388320, Note_off_c, 2, 59, 95
3, 388320, Note_off_c, 2, 49, 95
3, 388320, Note_on_c, 2, 61, 95
3, 388320, Note_on_c, 2, 56, 95
3, 388320, Note_on_c, 2, 49, 95
3, 388800, Note_off_c, 2, 61, 95
3, 388800, Note_off_c, 2, 56, 95
3, 388800, Note_off_c, 2, 49, 95
3, 388800, Note_on_c, 2, 66, 95
3, 388800, Note_on_c, 2, 61, 95
3, 388800, Note_on_c, 2, 59, 95
3, 388800, Note_on_c, 2, 49, 95
3, 389280, Note_off_c, 2, 66, 95
3, 389280, Note_off_c, 2, 61, 95
3, 389280, Note_off_c, 2, 59, 95
3, 389280, Note_off_c, 2, 49, 95
3, 389280, Note_on_c, 2, 66, 95
3, 389280, Note_on_c, 2, 61, 95
3, 389280, Note_on_c, 2, 56, 95
3, 389280, Note_on_c, 2, 49, 95
3, 390240, Note_off_c, 2, 66, 95
3, 390240, Note_off_c, 2, 61, 95
3, 390240, Note_off_c, 2, 56, 95
3, 390240, Note_off_c, 2, 49, 95
3, 390240, Note_on_c, 2, 56, 95
3, 390240, Note_on_c, 2, 49, 95
3, 390720, Note_off_c, 2, 56, 95
3, 390720, Note_off_c, 2, 49, 95
3, 390720, Note_on_c, 2, 59, 95
3, 390720, Note_on_c, 2, 49, 95
3, 391200, Note_off_c, 2, 59, 95
3, 391200, Note_off_c, 2, 49, 95
3, 391200, Note_on_c, 2, 61, 95
3, 391200, Note_on_c, 2, 56, 95
3, 391200, Note_on_c, 2, 49, 95
3, 392160, Note_off_c, 2, 61, 95
3, 392160, Note_off_c, 2, 56, 95
3, 392160, Note_off_c, 2, 49, 95
3, 392160, Note_on_c, 2, 61, 95
3, 392160, Note_on_c, 2, 56, 95
3, 392160, Note_on_c, 2, 49, 95
3, 392640, Note_off_c, 2, 61, 95
3, 392640, Note_off_c, 2, 56, 95
3, 392640, Note_off_c, 2, 49, 95
3, 392640, Note_on_c, 2, 61, 95
3, 392640, Note_on_c, 2, 56, 95
3, 392640, Note_on_c, 2, 49, 95
3, 393360, Note_off_c, 2, 61, 95
3, 393360, Note_off_c, 2, 56, 95
3, 393360, Note_off_c, 2, 49, 95
3, 393360, Note_on_c, 2, 61, 95
3, 393360, Note_on_c, 2, 56, 95
3, 393360, Note_on_c, 2, 49, 95
3, 393600, Note_off_c, 2, 61, 95
3, 393600, Note_off_c, 2, 56, 95
3, 393600, Note_off_c, 2, 49, 95
3, 393600, Note_on_c, 2, 61, 95
3, 393600, Note_on_c, 2, 56, 95
3, 393600, Note_on_c, 2, 49, 95
3, 394080, Note_off_c, 2, 61, 95
3, 394080, Note_off_c, 2, 56, 95
3, 394080, Note_off_c, 2, 49, 95
3, 394080, Note_on_c, 2, 61, 95
3, 394080, Note_on_c, 2, 56, 95
3, 394080, Note_on_c, 2, 49, 95
3, 394560, Note_off_c, 2, 61, 95
3, 394560, Note_off_c, 2, 56, 95
3, 394560, Note_off_c, 2, 49, 95
3, 394560, Note_on_c, 2, 61, 95
3, 394560, Note_on_c, 2, 56, 95
3, 394560, Note_on_c, 2, 49, 95
3, 395040, Note_off_c, 2, 61, 95
3, 395040, Note_off_c, 2, 56, 95
3, 395040, Note_off_c, 2, 49, 95
3, 395040, Note_on_c, 2, 61, 95
3, 395040, Note_on_c, 2, 56, 95
3, 395040, Note_on_c, 2, 49, 95
3, 395520, Note_off_c, 2, 61, 95
3, 395520, Note_off_c, 2, 56, 95
3, 395520, Note_off_c, 2, 49, 95
3, 395520, Note_on_c, 2, 64, 95
3, 395520, Note_on_c, 2, 59, 95
3, 395520, Note_on_c, 2, 49, 95
3, 396000, Note_off_c, 2, 64, 95
3, 396000, Note_off_c, 2, 59, 95
3, 396000, Note_off_c, 2, 49, 95
3, 396000, Note_on_c, 2, 61, 95
3, 396000, Note_on_c, 2, 56, 95
3, 396000, Note_on_c, 2, 49, 95
3, 396480, Note_off_c, 2, 61, 95
3, 396480, Note_off_c, 2, 56, 95
3, 396480, Note_off_c, 2, 49, 95
3, 396480, Note_on_c, 2, 66, 95
3, 396480, Note_on_c, 2, 61, 95
3, 396480, Note_on_c, 2, 58, 95
3, 396480, Note_on_c, 2, 49, 95
3, 396960, Note_off_c, 2, 66, 95
3, 396960, Note_off_c, 2, 61, 95
3, 396960, Note_off_c, 2, 58, 95
3, 396960, Note_off_c, 2, 49, 95
3, 396960, Note_on_c, 2, 65, 63
3, 396960, Note_on_c, 2, 61, 95
3, 396960, Note_on_c, 2, 56, 95
3, 396960, Note_on_c, 2, 49, 95
3, 397920, Note_off_c, 2, 65, 63
3, 397920, Note_off_c, 2, 61, 95
3, 397920, Note_off_c, 2, 56, 95
3, 397920, Note_off_c, 2, 49, 95
3, 397920, Note_on_c, 2, 56, 95
3, 397920, Note_on_c, 2, 49, 95
3, 398400, Note_off_c, 2, 56, 95
3, 398400, Note_off_c, 2, 49, 95
3, 398400, Note_on_c, 2, 59, 95
3, 398400, Note_on_c, 2, 49, 95
3, 398880, Note_off_c, 2, 59, 95
3, 398880, Note_off_c, 2, 49, 95
3, 398880, Note_on_c, 2, 59, 95
3, 398880, Note_on_c, 2, 49, 95
3, 399360, Note_off_c, 2, 59, 95
3, 399360, Note_off_c, 2, 49, 95
3, 399360, Note_on_c, 2, 61, 95
3, 399360, Note_on_c, 2, 56, 95
3, 399360, Note_on_c, 2, 49, 95
3, 400320, Note_off_c, 2, 61, 95
3, 400320, Note_off_c, 2, 56, 95
3, 400320, Note_off_c, 2, 49, 95
3, 400320, Note_on_c, 2, 61, 95
3, 400320, Note_on_c, 2, 56, 95
3, 400320, Note_on_c, 2, 49, 95
3, 401040, Note_off_c, 2, 61, 95
3, 401040, Note_off_c, 2, 56, 95
3, 401040, Note_off_c, 2, 49, 95
3, 401040, Note_on_c, 2, 61, 95
3, 401040, Note_on_c, 2, 56, 95
3, 401040, Note_on_c, 2, 49, 95
3, 401280, Note_off_c, 2, 61, 95
3, 401280, Note_off_c, 2, 56, 95
3, 401280, Note_off_c, 2, 49, 95
3, 401280, Note_on_c, 2, 61, 95
3, 401280, Note_on_c, 2, 56, 95
3, 401280, Note_on_c, 2, 49, 95
3, 401760, Note_off_c, 2, 61, 95
3, 401760, Note_off_c, 2, 56, 95
3, 401760, Note_off_c, 2, 49, 95
3, 401760, Note_on_c, 2, 61, 95
3, 401760, Note_on_c, 2, 56, 95
3, 401760, Note_on_c, 2, 49, 95
3, 402240, Note_off_c, 2, 61, 95
3, 402240, Note_off_c, 2, 56, 95
3, 402240, Note_off_c, 2, 49, 95
3, 402240, Note_on_c, 2, 61, 95
3, 402240, Note_on_c, 2, 56, 95
3, 402240, Note_on_c, 2, 49, 95
3, 402720, Note_off_c, 2, 61, 95
3, 402720, Note_off_c, 2, 56, 95
3, 402720, Note_off_c, 2, 49, 95
3, 403200, Note_on_c, 2, 63, 95
3, 403200, Note_on_c, 2, 59, 95
3, 403200, Note_on_c, 2, 54, 95
3, 403200, Note_on_c, 2, 47, 95
3, 404160, Note_off_c, 2, 63, 95
3, 404160, Note_off_c, 2, 59, 95
3, 404160, Note_off_c, 2, 54, 95
3, 404160, Note_off_c, 2, 47, 95
3, 404160, Note_on_c, 2, 63, 95
3, 404160, Note_on_c, 2, 59, 95
3, 404160, Note_on_c, 2, 54, 95
3, 404160, Note_on_c, 2, 47, 95
3, 404880, Note_off_c, 2, 63, 95
3, 404880, Note_off_c, 2, 59, 95
3, 404880, Note_off_c, 2, 54, 95
3, 404880, Note_off_c, 2, 47, 95
3, 404880, Note_on_c, 2, 63, 95
3, 404880, Note_on_c, 2, 59, 95
3, 404880, Note_on_c, 2, 54, 95
3, 404880, Note_on_c, 2, 47, 95
3, 405120, Note_off_c, 2, 63, 95
3, 405120, Note_off_c, 2, 59, 95
3, 405120, Note_off_c, 2, 54, 95
3, 405120, Note_off_c, 2, 47, 95
3, 405120, Note_on_c, 2, 63, 95
3, 405120, Note_on_c, 2, 59, 95
3, 405120, Note_on_c, 2, 54, 95
3, 405120, Note_on_c, 2, 47, 95
3, 405600, Note_off_c, 2, 63, 95
3, 405600, Note_off_c, 2, 59, 95
3, 405600, Note_off_c, 2, 54, 95
3, 405600, Note_off_c, 2, 47, 95
3, 405600, Note_on_c, 2, 63, 95
3, 405600, Note_on_c, 2, 59, 95
3, 405600, Note_on_c, 2, 54, 95
3, 405600, Note_on_c, 2, 47, 95
3, 406080, Note_off_c, 2, 63, 95
3, 406080, Note_off_c, 2, 59, 95
3, 406080, Note_off_c, 2, 54, 95
3, 406080, Note_off_c, 2, 47, 95
3, 406080, Note_on_c, 2, 63, 95
3, 406080, Note_on_c, 2, 59, 95
3, 406080, Note_on_c, 2, 54, 95
3, 406080, Note_on_c, 2, 47, 95
3, 406560, Note_off_c, 2, 63, 95
3, 406560, Note_off_c, 2, 59, 95
3, 406560, Note_off_c, 2, 54, 95
3, 406560, Note_off_c, 2, 47, 95
3, 406560, Note_on_c, 2, 63, 95
3, 406560, Note_on_c, 2, 59, 95
3, 406560, Note_on_c, 2, 54, 95
3, 406560, Note_on_c, 2, 47, 95
3, 407040, Note_off_c, 2, 63, 95
3, 407040, Note_off_c, 2, 59, 95
3, 407040, Note_off_c, 2, 54, 95
3, 407040, Note_off_c, 2, 47, 95
3, 407040, Note_on_c, 2, 61, 95
3, 407040, Note_on_c, 2, 57, 95
3, 407040, Note_on_c, 2, 52, 95
3, 407040, Note_on_c, 2, 45, 95
3, 408000, Note_off_c, 2, 61, 95
3, 408000, Note_off_c, 2, 57, 95
3, 408000, Note_off_c, 2, 52, 95
3, 408000, Note_off_c, 2, 45, 95
3, 408000, Note_on_c, 2, 61, 95
3, 408000, Note_on_c, 2, 57, 95
3, 408000, Note_on_c, 2, 52, 95
3, 408000, Note_on_c, 2, 45, 95
3, 408720, Note_off_c, 2, 61, 95
3, 408720, Note_off_c, 2, 57, 95
3, 408720, Note_off_c, 2, 52, 95
3, 408720, Note_off_c, 2, 45, 95
3, 408720, Note_on_c, 2, 61, 95
3, 408720, Note_on_c, 2, 57, 95
3, 408720, Note_on_c, 2, 52, 95
3, 408720, Note_on_c, 2, 45, 95
3, 408960, Note_off_c, 2, 61, 95
3, 408960, Note_off_c, 2, 57, 95
3, 408960, Note_off_c, 2, 52, 95
3, 408960, Note_off_c, 2, 45, 95
3, 408960, Note_on_c, 2, 61, 95
3, 408960, Note_on_c, 2, 57, 95
3, 408960, Note_on_c, 2, 52, 95
3, 408960, Note_on_c, 2, 45, 95
3, 409440, Note_off_c, 2, 61, 95
3, 409440, Note_off_c, 2, 57, 95
3, 409440, Note_off_c, 2, 52, 95
3, 409440, Note_off_c, 2, 45, 95
3, 409440, Note_on_c, 2, 61, 95
3, 409440, Note_on_c, 2, 57, 95
3, 409440, Note_on_c, 2, 52, 95
3, 409440, Note_on_c, 2, 45, 95
3, 409920, Note_off_c, 2, 61, 95
3, 409920, Note_off_c, 2, 57, 95
3, 409920, Note_off_c, 2, 52, 95
3, 409920, Note_off_c, 2, 45, 95
3, 409920, Note_on_c, 2, 61, 95
3, 409920, Note_on_c, 2, 57, 95
3, 409920, Note_on_c, 2, 52, 95
3, 409920, Note_on_c, 2, 45, 95
3, 410400, Note_off_c, 2, 61, 95
3, 410400, Note_off_c, 2, 57, 95
3, 410400, Note_off_c, 2, 52, 95
3, 410400, Note_off_c, 2, 45, 95
3, 410400, Note_on_c, 2, 61, 95
3, 410400, Note_on_c, 2, 57, 95
3, 410400, Note_on_c, 2, 52, 95
3, 410400, Note_on_c, 2, 45, 95
3, 410880, Note_off_c, 2, 61, 95
3, 410880, Note_off_c, 2, 57, 95
3, 410880, Note_off_c, 2, 52, 95
3, 410880, Note_off_c, 2, 45, 95
3, 410880, Note_on_c, 2, 59, 95
3, 410880, Note_on_c, 2, 56, 95
3, 410880, Note_on_c, 2, 52, 95
3, 410880, Note_on_c, 2, 47, 95
3, 411360, Note_off_c, 2, 59, 95
3, 411360, Note_off_c, 2, 56, 95
3, 411360, Note_off_c, 2, 52, 95
3, 411360, Note_off_c, 2, 47, 95
3, 411360, Note_on_c, 2, 61, 95
3, 411360, Note_on_c, 2, 57, 95
3, 411360, Note_on_c, 2, 52, 95
3, 411360, Note_on_c, 2, 45, 95
3, 411840, Note_off_c, 2, 61, 95
3, 411840, Note_off_c, 2, 57, 95
3, 411840, Note_off_c, 2, 52, 95
3, 411840, Note_off_c, 2, 45, 95
3, 411840, Note_on_c, 2, 59, 95
3, 411840, Note_on_c, 2, 56, 95
3, 411840, Note_on_c, 2, 52, 95
3, 411840, Note_on_c, 2, 47, 95
3, 412320, Note_off_c, 2, 59, 95
3, 412320, Note_off_c, 2, 56, 95
3, 412320, Note_off_c, 2, 52, 95
3, 412320, Note_off_c, 2, 47, 95
3, 412320, Note_on_c, 2, 61, 95
3, 412320, Note_on_c, 2, 57, 95
3, 412320, Note_on_c, 2, 52, 95
3, 412320, Note_on_c, 2, 45, 95
3, 412800, Note_off_c, 2, 61, 95
3, 412800, Note_off_c, 2, 57, 95
3, 412800, Note_off_c, 2, 52, 95
3, 412800, Note_off_c, 2, 45, 95
3, 412800, Note_on_c, 2, 59, 95
3, 412800, Note_on_c, 2, 56, 95
3, 412800, Note_on_c, 2, 52, 95
3, 412800, Note_on_c, 2, 47, 95
3, 413280, Note_off_c, 2, 59, 95
3, 413280, Note_off_c, 2, 56, 95
3, 413280, Note_off_c, 2, 52, 95
3, 413280, Note_off_c, 2, 47, 95
3, 413280, Note_on_c, 2, 63, 95
3, 413280, Note_on_c, 2, 59, 95
3, 413280, Note_on_c, 2, 54, 95
3, 413280, Note_on_c, 2, 47, 95
3, 413760, Note_off_c, 2, 63, 95
3, 413760, Note_off_c, 2, 59, 95
3, 413760, Note_off_c, 2, 54, 95
3, 413760, Note_off_c, 2, 47, 95
3, 413760, Note_on_c, 2, 63, 95
3, 413760, Note_on_c, 2, 59, 95
3, 413760, Note_on_c, 2, 54, 95
3, 413760, Note_on_c, 2, 47, 95
3, 414240, Note_off_c, 2, 63, 95
3, 414240, Note_off_c, 2, 59, 95
3, 414240, Note_off_c, 2, 54, 95
3, 414240, Note_off_c, 2, 47, 95
3, 414240, Note_on_c, 2, 63, 95
3, 414240, Note_on_c, 2, 59, 95
3, 414240, Note_on_c, 2, 54, 95
3, 414240, Note_on_c, 2, 47, 95
3, 414720, Note_off_c, 2, 63, 95
3, 414720, Note_off_c, 2, 59, 95
3, 414720, Note_off_c, 2, 54, 95
3, 414720, Note_off_c, 2, 47, 95
3, 414720, Note_on_c, 2, 61, 95
3, 414720, Note_on_c, 2, 56, 95
3, 414720, Note_on_c, 2, 49, 95
3, 415200, Note_off_c, 2, 61, 95
3, 415200, Note_off_c, 2, 56, 95
3, 415200, Note_off_c, 2, 49, 95
3, 415200, Note_on_c, 2, 61, 95
3, 415200, Note_on_c, 2, 56, 95
3, 415200, Note_on_c, 2, 49, 95
3, 415680, Note_off_c, 2, 61, 95
3, 415680, Note_off_c, 2, 56, 95
3, 415680, Note_off_c, 2, 49, 95
3, 415680, Note_on_c, 2, 61, 95
3, 415680, Note_on_c, 2, 56, 95
3, 415680, Note_on_c, 2, 49, 95
3, 416400, Note_off_c, 2, 61, 95
3, 416400, Note_off_c, 2, 56, 95
3, 416400, Note_off_c, 2, 49, 95
3, 416400, Note_on_c, 2, 61, 95
3, 416400, Note_on_c, 2, 56, 95
3, 416400, Note_on_c, 2, 49, 95
3, 416640, Note_off_c, 2, 61, 95
3, 416640, Note_off_c, 2, 56, 95
3, 416640, Note_off_c, 2, 49, 95
3, 416640, Note_on_c, 2, 61, 95
3, 416640, Note_on_c, 2, 56, 95
3, 416640, Note_on_c, 2, 49, 95
3, 417120, Note_off_c, 2, 61, 95
3, 417120, Note_off_c, 2, 56, 95
3, 417120, Note_off_c, 2, 49, 95
3, 417120, Note_on_c, 2, 61, 95
3, 417120, Note_on_c, 2, 56, 95
3, 417120, Note_on_c, 2, 49, 95
3, 417600, Note_off_c, 2, 61, 95
3, 417600, Note_off_c, 2, 56, 95
3, 417600, Note_off_c, 2, 49, 95
3, 417600, Note_on_c, 2, 61, 95
3, 417600, Note_on_c, 2, 56, 95
3, 417600, Note_on_c, 2, 49, 95
3, 418080, Note_off_c, 2, 61, 95
3, 418080, Note_off_c, 2, 56, 95
3, 418080, Note_off_c, 2, 49, 95
3, 418080, Note_on_c, 2, 61, 95
3, 418080, Note_on_c, 2, 56, 95
3, 418080, Note_on_c, 2, 49, 95
3, 418560, Note_off_c, 2, 61, 95
3, 418560, Note_off_c, 2, 56, 95
3, 418560, Note_off_c, 2, 49, 95
3, 418560, Note_on_c, 2, 63, 95
3, 418560, Note_on_c, 2, 59, 95
3, 418560, Note_on_c, 2, 54, 95
3, 418560, Note_on_c, 2, 47, 95
3, 419040, Note_off_c, 2, 63, 95
3, 419040, Note_off_c, 2, 59, 95
3, 419040, Note_off_c, 2, 54, 95
3, 419040, Note_off_c, 2, 47, 95
3, 419040, Note_on_c, 2, 63, 95
3, 419040, Note_on_c, 2, 59, 95
3, 419040, Note_on_c, 2, 54, 95
3, 419040, Note_on_c, 2, 47, 95
3, 419520, Note_off_c, 2, 63, 95
3, 419520, Note_off_c, 2, 59, 95
3, 419520, Note_off_c, 2, 54, 95
3, 419520, Note_off_c, 2, 47, 95
3, 419520, Note_on_c, 2, 63, 95
3, 419520, Note_on_c, 2, 59, 95
3, 419520, Note_on_c, 2, 54, 95
3, 419520, Note_on_c, 2, 47, 95
3, 420240, Note_off_c, 2, 63, 95
3, 420240, Note_off_c, 2, 59, 95
3, 420240, Note_off_c, 2, 54, 95
3, 420240, Note_off_c, 2, 47, 95
3, 420240, Note_on_c, 2, 63, 95
3, 420240, Note_on_c, 2, 59, 95
3, 420240, Note_on_c, 2, 54, 95
3, 420240, Note_on_c, 2, 47, 95
3, 420480, Note_off_c, 2, 63, 95
3, 420480, Note_off_c, 2, 59, 95
3, 420480, Note_off_c, 2, 54, 95
3, 420480, Note_off_c, 2, 47, 95
3, 420480, Note_on_c, 2, 63, 95
3, 420480, Note_on_c, 2, 59, 95
3, 420480, Note_on_c, 2, 54, 95
3, 420480, Note_on_c, 2, 47, 95
3, 420960, Note_off_c, 2, 63, 95
3, 420960, Note_off_c, 2, 59, 95
3, 420960, Note_off_c, 2, 54, 95
3, 420960, Note_off_c, 2, 47, 95
3, 420960, Note_on_c, 2, 63, 95
3, 420960, Note_on_c, 2, 59, 95
3, 420960, Note_on_c, 2, 54, 95
3, 420960, Note_on_c, 2, 47, 95
3, 421440, Note_off_c, 2, 63, 95
3, 421440, Note_off_c, 2, 59, 95
3, 421440, Note_off_c, 2, 54, 95
3, 421440, Note_off_c, 2, 47, 95
3, 421440, Note_on_c, 2, 63, 95
3, 421440, Note_on_c, 2, 59, 95
3, 421440, Note_on_c, 2, 54, 95
3, 421440, Note_on_c, 2, 47, 95
3, 421920, Note_off_c, 2, 63, 95
3, 421920, Note_off_c, 2, 59, 95
3, 421920, Note_off_c, 2, 54, 95
3, 421920, Note_off_c, 2, 47, 95
3, 421920, Note_on_c, 2, 63, 95
3, 421920, Note_on_c, 2, 59, 95
3, 421920, Note_on_c, 2, 54, 95
3, 421920, Note_on_c, 2, 47, 95
3, 422400, Note_off_c, 2, 63, 95
3, 422400, Note_off_c, 2, 59, 95
3, 422400, Note_off_c, 2, 54, 95
3, 422400, Note_off_c, 2, 47, 95
3, 422400, Note_on_c, 2, 61, 95
3, 422400, Note_on_c, 2, 57, 95
3, 422400, Note_on_c, 2, 52, 95
3, 422400, Note_on_c, 2, 45, 95
3, 422880, Note_off_c, 2, 61, 95
3, 422880, Note_off_c, 2, 57, 95
3, 422880, Note_off_c, 2, 52, 95
3, 422880, Note_off_c, 2, 45, 95
3, 422880, Note_on_c, 2, 61, 95
3, 422880, Note_on_c, 2, 57, 95
3, 422880, Note_on_c, 2, 52, 95
3, 422880, Note_on_c, 2, 45, 95
3, 423360, Note_off_c, 2, 61, 95
3, 423360, Note_off_c, 2, 57, 95
3, 423360, Note_off_c, 2, 52, 95
3, 423360, Note_off_c, 2, 45, 95
3, 423360, Note_on_c, 2, 61, 95
3, 423360, Note_on_c, 2, 57, 95
3, 423360, Note_on_c, 2, 52, 95
3, 423360, Note_on_c, 2, 45, 95
3, 424080, Note_off_c, 2, 61, 95
3, 424080, Note_off_c, 2, 57, 95
3, 424080, Note_off_c, 2, 52, 95
3, 424080, Note_off_c, 2, 45, 95
3, 424080, Note_on_c, 2, 61, 95
3, 424080, Note_on_c, 2, 57, 95
3, 424080, Note_on_c, 2, 52, 95
3, 424080, Note_on_c, 2, 45, 95
3, 424320, Note_off_c, 2, 61, 95
3, 424320, Note_off_c, 2, 57, 95
3, 424320, Note_off_c, 2, 52, 95
3, 424320, Note_off_c, 2, 45, 95
3, 424320, Note_on_c, 2, 61, 95
3, 424320, Note_on_c, 2, 57, 95
3, 424320, Note_on_c, 2, 52, 95
3, 424320, Note_on_c, 2, 45, 95
3, 424800, Note_off_c, 2, 61, 95
3, 424800, Note_off_c, 2, 57, 95
3, 424800, Note_off_c, 2, 52, 95
3, 424800, Note_off_c, 2, 45, 95
3, 424800, Note_on_c, 2, 61, 95
3, 424800, Note_on_c, 2, 57, 95
3, 424800, Note_on_c, 2, 52, 95
3, 424800, Note_on_c, 2, 45, 95
3, 425280, Note_off_c, 2, 61, 95
3, 425280, Note_off_c, 2, 57, 95
3, 425280, Note_off_c, 2, 52, 95
3, 425280, Note_off_c, 2, 45, 95
3, 425280, Note_on_c, 2, 61, 95
3, 425280, Note_on_c, 2, 57, 95
3, 425280, Note_on_c, 2, 52, 95
3, 425280, Note_on_c, 2, 45, 95
3, 425760, Note_off_c, 2, 61, 95
3, 425760, Note_off_c, 2, 57, 95
3, 425760, Note_off_c, 2, 52, 95
3, 425760, Note_off_c, 2, 45, 95
3, 425760, Note_on_c, 2, 61, 95
3, 425760, Note_on_c, 2, 57, 95
3, 425760, Note_on_c, 2, 52, 95
3, 425760, Note_on_c, 2, 45, 95
3, 426240, Note_off_c, 2, 61, 95
3, 426240, Note_off_c, 2, 57, 95
3, 426240, Note_off_c, 2, 52, 95
3, 426240, Note_off_c, 2, 45, 95
3, 426240, Note_on_c, 2, 59, 95
3, 426240, Note_on_c, 2, 56, 95
3, 426240, Note_on_c, 2, 52, 95
3, 426240, Note_on_c, 2, 47, 95
3, 426720, Note_off_c, 2, 59, 95
3, 426720, Note_off_c, 2, 56, 95
3, 426720, Note_off_c, 2, 52, 95
3, 426720, Note_off_c, 2, 47, 95
3, 426720, Note_on_c, 2, 61, 95
3, 426720, Note_on_c, 2, 57, 95
3, 426720, Note_on_c, 2, 52, 95
3, 426720, Note_on_c, 2, 45, 95
3, 427200, Note_off_c, 2, 61, 95
3, 427200, Note_off_c, 2, 57, 95
3, 427200, Note_off_c, 2, 52, 95
3, 427200, Note_off_c, 2, 45, 95
3, 427200, Note_on_c, 2, 59, 95
3, 427200, Note_on_c, 2, 56, 95
3, 427200, Note_on_c, 2, 52, 95
3, 427200, Note_on_c, 2, 47, 95
3, 427680, Note_off_c, 2, 59, 95
3, 427680, Note_off_c, 2, 56, 95
3, 427680, Note_off_c, 2, 52, 95
3, 427680, Note_off_c, 2, 47, 95
3, 427680, Note_on_c, 2, 61, 95
3, 427680, Note_on_c, 2, 57, 95
3, 427680, Note_on_c, 2, 52, 95
3, 427680, Note_on_c, 2, 45, 95
3, 428160, Note_off_c, 2, 61, 95
3, 428160, Note_off_c, 2, 57, 95
3, 428160, Note_off_c, 2, 52, 95
3, 428160, Note_off_c, 2, 45, 95
3, 428160, Note_on_c, 2, 59, 95
3, 428160, Note_on_c, 2, 56, 95
3, 428160, Note_on_c, 2, 52, 95
3, 428160, Note_on_c, 2, 47, 95
3, 428640, Note_off_c, 2, 59, 95
3, 428640, Note_off_c, 2, 56, 95
3, 428640, Note_off_c, 2, 52, 95
3, 428640, Note_off_c, 2, 47, 95
3, 428640, Note_on_c, 2, 63, 95
3, 428640, Note_on_c, 2, 59, 95
3, 428640, Note_on_c, 2, 54, 95
3, 428640, Note_on_c, 2, 47, 95
3, 429120, Note_off_c, 2, 63, 95
3, 429120, Note_off_c, 2, 59, 95
3, 429120, Note_off_c, 2, 54, 95
3, 429120, Note_off_c, 2, 47, 95
3, 429120, Note_on_c, 2, 63, 95
3, 429120, Note_on_c, 2, 59, 95
3, 429120, Note_on_c, 2, 54, 95
3, 429120, Note_on_c, 2, 47, 95
3, 429600, Note_off_c, 2, 63, 95
3, 429600, Note_off_c, 2, 59, 95
3, 429600, Note_off_c, 2, 54, 95
3, 429600, Note_off_c, 2, 47, 95
3, 429600, Note_on_c, 2, 63, 95
3, 429600, Note_on_c, 2, 59, 95
3, 429600, Note_on_c, 2, 54, 95
3, 429600, Note_on_c, 2, 47, 95
3, 430080, Note_off_c, 2, 63, 95
3, 430080, Note_off_c, 2, 59, 95
3, 430080, Note_off_c, 2, 54, 95
3, 430080, Note_off_c, 2, 47, 95
3, 430080, Note_on_c, 2, 61, 95
3, 430080, Note_on_c, 2, 56, 95
3, 430080, Note_on_c, 2, 49, 95
3, 430560, Note_off_c, 2, 61, 95
3, 430560, Note_off_c, 2, 56, 95
3, 430560, Note_off_c, 2, 49, 95
3, 430560, Note_on_c, 2, 61, 95
3, 430560, Note_on_c, 2, 56, 95
3, 430560, Note_on_c, 2, 49, 95
3, 431040, Note_off_c, 2, 61, 95
3, 431040, Note_off_c, 2, 56, 95
3, 431040, Note_off_c, 2, 49, 95
3, 431040, Note_on_c, 2, 61, 95
3, 431040, Note_on_c, 2, 56, 95
3, 431040, Note_on_c, 2, 49, 95
3, 431760, Note_off_c, 2, 61, 95
3, 431760, Note_off_c, 2, 56, 95
3, 431760, Note_off_c, 2, 49, 95
3, 431760, Note_on_c, 2, 61, 95
3, 431760, Note_on_c, 2, 56, 95
3, 431760, Note_on_c, 2, 49, 95
3, 432000, Note_off_c, 2, 61, 95
3, 432000, Note_off_c, 2, 56, 95
3, 432000, Note_off_c, 2, 49, 95
3, 432000, Note_on_c, 2, 61, 95
3, 432000, Note_on_c, 2, 56, 95
3, 432000, Note_on_c, 2, 49, 95
3, 432480, Note_off_c, 2, 61, 95
3, 432480, Note_off_c, 2, 56, 95
3, 432480, Note_off_c, 2, 49, 95
3, 432480, Note_on_c, 2, 61, 95
3, 432480, Note_on_c, 2, 56, 95
3, 432480, Note_on_c, 2, 49, 95
3, 432960, Note_off_c, 2, 61, 95
3, 432960, Note_off_c, 2, 56, 95
3, 432960, Note_off_c, 2, 49, 95
3, 432960, Note_on_c, 2, 61, 95
3, 432960, Note_on_c, 2, 56, 95
3, 432960, Note_on_c, 2, 49, 95
3, 433440, Note_off_c, 2, 61, 95
3, 433440, Note_off_c, 2, 56, 95
3, 433440, Note_off_c, 2, 49, 95
3, 433440, Note_on_c, 2, 61, 95
3, 433440, Note_on_c, 2, 56, 95
3, 433440, Note_on_c, 2, 49, 95
3, 433920, Note_off_c, 2, 61, 95
3, 433920, Note_off_c, 2, 56, 95
3, 433920, Note_off_c, 2, 49, 95
3, 433920, Note_on_c, 2, 63, 95
3, 433920, Note_on_c, 2, 59, 95
3, 433920, Note_on_c, 2, 54, 95
3, 433920, Note_on_c, 2, 47, 95
3, 434400, Note_off_c, 2, 63, 95
3, 434400, Note_off_c, 2, 59, 95
3, 434400, Note_off_c, 2, 54, 95
3, 434400, Note_off_c, 2, 47, 95
3, 434400, Note_on_c, 2, 63, 95
3, 434400, Note_on_c, 2, 59, 95
3, 434400, Note_on_c, 2, 54, 95
3, 434400, Note_on_c, 2, 47, 95
3, 434880, Note_off_c, 2, 63, 95
3, 434880, Note_off_c, 2, 59, 95
3, 434880, Note_off_c, 2, 54, 95
3, 434880, Note_off_c, 2, 47, 95
3, 434880, Note_on_c, 2, 63, 95
3, 434880, Note_on_c, 2, 59, 95
3, 434880, Note_on_c, 2, 54, 95
3, 434880, Note_on_c, 2, 47, 95
3, 435600, Note_off_c, 2, 63, 95
3, 435600, Note_off_c, 2, 59, 95
3, 435600, Note_off_c, 2, 54, 95
3, 435600, Note_off_c, 2, 47, 95
3, 435600, Note_on_c, 2, 63, 95
3, 435600, Note_on_c, 2, 59, 95
3, 435600, Note_on_c, 2, 54, 95
3, 435600, Note_on_c, 2, 47, 95
3, 435840, Note_off_c, 2, 63, 95
3, 435840, Note_off_c, 2, 59, 95
3, 435840, Note_off_c, 2, 54, 95
3, 435840, Note_off_c, 2, 47, 95
3, 435840, Note_on_c, 2, 63, 95
3, 435840, Note_on_c, 2, 59, 95
3, 435840, Note_on_c, 2, 54, 95
3, 435840, Note_on_c, 2, 47, 95
3, 436320, Note_off_c, 2, 63, 95
3, 436320, Note_off_c, 2, 59, 95
3, 436320, Note_off_c, 2, 54, 95
3, 436320, Note_off_c, 2, 47, 95
3, 436320, Note_on_c, 2, 63, 95
3, 436320, Note_on_c, 2, 59, 95
3, 436320, Note_on_c, 2, 54, 95
3, 436320, Note_on_c, 2, 47, 95
3, 436800, Note_off_c, 2, 63, 95
3, 436800, Note_off_c, 2, 59, 95
3, 436800, Note_off_c, 2, 54, 95
3, 436800, Note_off_c, 2, 47, 95
3, 436800, Note_on_c, 2, 63, 95
3, 436800, Note_on_c, 2, 59, 95
3, 436800, Note_on_c, 2, 54, 95
3, 436800, Note_on_c, 2, 47, 95
3, 437280, Note_off_c, 2, 63, 95
3, 437280, Note_off_c, 2, 59, 95
3, 437280, Note_off_c, 2, 54, 95
3, 437280, Note_off_c, 2, 47, 95
3, 437280, Note_on_c, 2, 63, 95
3, 437280, Note_on_c, 2, 59, 95
3, 437280, Note_on_c, 2, 54, 95
3, 437280, Note_on_c, 2, 47, 95
3, 437760, Note_off_c, 2, 63, 95
3, 437760, Note_off_c, 2, 59, 95
3, 437760, Note_off_c, 2, 54, 95
3, 437760, Note_off_c, 2, 47, 95
3, 437760, Note_on_c, 2, 61, 95
3, 437760, Note_on_c, 2, 57, 95
3, 437760, Note_on_c, 2, 52, 95
3, 437760, Note_on_c, 2, 45, 95
3, 438240, Note_off_c, 2, 61, 95
3, 438240, Note_off_c, 2, 57, 95
3, 438240, Note_off_c, 2, 52, 95
3, 438240, Note_off_c, 2, 45, 95
3, 438240, Note_on_c, 2, 61, 95
3, 438240, Note_on_c, 2, 57, 95
3, 438240, Note_on_c, 2, 52, 95
3, 438240, Note_on_c, 2, 45, 95
3, 438720, Note_off_c, 2, 61, 95
3, 438720, Note_off_c, 2, 57, 95
3, 438720, Note_off_c, 2, 52, 95
3, 438720, Note_off_c, 2, 45, 95
3, 438720, Note_on_c, 2, 61, 95
3, 438720, Note_on_c, 2, 57, 95
3, 438720, Note_on_c, 2, 52, 95
3, 438720, Note_on_c, 2, 45, 95
3, 439440, Note_off_c, 2, 61, 95
3, 439440, Note_off_c, 2, 57, 95
3, 439440, Note_off_c, 2, 52, 95
3, 439440, Note_off_c, 2, 45, 95
3, 439440, Note_on_c, 2, 61, 95
3, 439440, Note_on_c, 2, 57, 95
3, 439440, Note_on_c, 2, 52, 95
3, 439440, Note_on_c, 2, 45, 95
3, 439680, Note_off_c, 2, 61, 95
3, 439680, Note_off_c, 2, 57, 95
3, 439680, Note_off_c, 2, 52, 95
3, 439680, Note_off_c, 2, 45, 95
3, 439680, Note_on_c, 2, 61, 95
3, 439680, Note_on_c, 2, 57, 95
3, 439680, Note_on_c, 2, 52, 95
3, 439680, Note_on_c, 2, 45, 95
3, 440160, Note_off_c, 2, 61, 95
3, 440160, Note_off_c, 2, 57, 95
3, 440160, Note_off_c, 2, 52, 95
3, 440160, Note_off_c, 2, 45, 95
3, 440160, Note_on_c, 2, 61, 95
3, 440160, Note_on_c, 2, 57, 95
3, 440160, Note_on_c, 2, 52, 95
3, 440160, Note_on_c, 2, 45, 95
3, 440640, Note_off_c, 2, 61, 95
3, 440640, Note_off_c, 2, 57, 95
3, 440640, Note_off_c, 2, 52, 95
3, 440640, Note_off_c, 2, 45, 95
3, 440640, Note_on_c, 2, 61, 95
3, 440640, Note_on_c, 2, 57, 95
3, 440640, Note_on_c, 2, 52, 95
3, 440640, Note_on_c, 2, 45, 95
3, 441120, Note_off_c, 2, 61, 95
3, 441120, Note_off_c, 2, 57, 95
3, 441120, Note_off_c, 2, 52, 95
3, 441120, Note_off_c, 2, 45, 95
3, 441120, Note_on_c, 2, 61, 95
3, 441120, Note_on_c, 2, 57, 95
3, 441120, Note_on_c, 2, 52, 95
3, 441120, Note_on_c, 2, 45, 95
3, 441600, Note_off_c, 2, 61, 95
3, 441600, Note_off_c, 2, 57, 95
3, 441600, Note_off_c, 2, 52, 95
3, 441600, Note_off_c, 2, 45, 95
3, 441600, Note_on_c, 2, 59, 95
3, 441600, Note_on_c, 2, 56, 95
3, 441600, Note_on_c, 2, 52, 95
3, 441600, Note_on_c, 2, 47, 95
3, 442080, Note_off_c, 2, 59, 95
3, 442080, Note_off_c, 2, 56, 95
3, 442080, Note_off_c, 2, 52, 95
3, 442080, Note_off_c, 2, 47, 95
3, 442080, Note_on_c, 2, 61, 95
3, 442080, Note_on_c, 2, 57, 95
3, 442080, Note_on_c, 2, 52, 95
3, 442080, Note_on_c, 2, 45, 95
3, 442560, Note_off_c, 2, 61, 95
3, 442560, Note_off_c, 2, 57, 95
3, 442560, Note_off_c, 2, 52, 95
3, 442560, Note_off_c, 2, 45, 95
3, 442560, Note_on_c, 2, 59, 95
3, 442560, Note_on_c, 2, 56, 95
3, 442560, Note_on_c, 2, 52, 95
3, 442560, Note_on_c, 2, 47, 95
3, 443040, Note_off_c, 2, 59, 95
3, 443040, Note_off_c, 2, 56, 95
3, 443040, Note_off_c, 2, 52, 95
3, 443040, Note_off_c, 2, 47, 95
3, 443040, Note_on_c, 2, 61, 95
3, 443040, Note_on_c, 2, 57, 95
3, 443040, Note_on_c, 2, 52, 95
3, 443040, Note_on_c, 2, 45, 95
3, 443520, Note_off_c, 2, 61, 95
3, 443520, Note_off_c, 2, 57, 95
3, 443520, Note_off_c, 2, 52, 95
3, 443520, Note_off_c, 2, 45, 95
3, 443520, Note_on_c, 2, 59, 95
3, 443520, Note_on_c, 2, 56, 95
3, 443520, Note_on_c, 2, 52, 95
3, 443520, Note_on_c, 2, 47, 95
3, 444000, Note_off_c, 2, 59, 95
3, 444000, Note_off_c, 2, 56, 95
3, 444000, Note_off_c, 2, 52, 95
3, 444000, Note_off_c, 2, 47, 95
3, 444000, Note_on_c, 2, 63, 95
3, 444000, Note_on_c, 2, 59, 95
3, 444000, Note_on_c, 2, 54, 95
3, 444000, Note_on_c, 2, 47, 95
3, 444480, Note_off_c, 2, 63, 95
3, 444480, Note_off_c, 2, 59, 95
3, 444480, Note_off_c, 2, 54, 95
3, 444480, Note_off_c, 2, 47, 95
3, 444480, Note_on_c, 2, 63, 95
3, 444480, Note_on_c, 2, 59, 95
3, 444480, Note_on_c, 2, 54, 95
3, 444480, Note_on_c, 2, 47, 95
3, 444960, Note_off_c, 2, 63, 95
3, 444960, Note_off_c, 2, 59, 95
3, 444960, Note_off_c, 2, 54, 95
3, 444960, Note_off_c, 2, 47, 95
3, 444960, Note_on_c, 2, 63, 95
3, 444960, Note_on_c, 2, 59, 95
3, 444960, Note_on_c, 2, 54, 95
3, 444960, Note_on_c, 2, 47, 95
3, 445440, Note_off_c, 2, 63, 95
3, 445440, Note_off_c, 2, 59, 95
3, 445440, Note_off_c, 2, 54, 95
3, 445440, Note_off_c, 2, 47, 95
3, 445440, Note_on_c, 2, 61, 95
3, 445440, Note_on_c, 2, 56, 95
3, 445440, Note_on_c, 2, 49, 95
3, 445920, Note_off_c, 2, 61, 95
3, 445920, Note_off_c, 2, 56, 95
3, 445920, Note_off_c, 2, 49, 95
3, 445920, Note_on_c, 2, 65, 95
3, 445920, Note_on_c, 2, 61, 95
3, 445920, Note_on_c, 2, 56, 95
3, 445920, Note_on_c, 2, 49, 95
3, 446400, Note_off_c, 2, 65, 95
3, 446400, Note_off_c, 2, 61, 95
3, 446400, Note_off_c, 2, 56, 95
3, 446400, Note_off_c, 2, 49, 95
3, 446400, Note_on_c, 2, 65, 95
3, 446400, Note_on_c, 2, 61, 95
3, 446400, Note_on_c, 2, 56, 95
3, 446400, Note_on_c, 2, 49, 95
3, 447120, Note_off_c, 2, 65, 95
3, 447120, Note_off_c, 2, 61, 95
3, 447120, Note_off_c, 2, 56, 95
3, 447120, Note_off_c, 2, 49, 95
3, 447120, Note_on_c, 2, 65, 95
3, 447120, Note_on_c, 2, 61, 95
3, 447120, Note_on_c, 2, 56, 95
3, 447120, Note_on_c, 2, 49, 95
3, 447360, Note_off_c, 2, 65, 95
3, 447360, Note_off_c, 2, 61, 95
3, 447360, Note_off_c, 2, 56, 95
3, 447360, Note_off_c, 2, 49, 95
3, 447360, Note_on_c, 2, 65, 95
3, 447360, Note_on_c, 2, 61, 95
3, 447360, Note_on_c, 2, 56, 95
3, 447360, Note_on_c, 2, 49, 95
3, 447840, Note_off_c, 2, 65, 95
3, 447840, Note_off_c, 2, 61, 95
3, 447840, Note_off_c, 2, 56, 95
3, 447840, Note_off_c, 2, 49, 95
3, 447840, Note_on_c, 2, 65, 95
3, 447840, Note_on_c, 2, 61, 95
3, 447840, Note_on_c, 2, 56, 95
3, 447840, Note_on_c, 2, 49, 95
3, 448320, Note_off_c, 2, 65, 95
3, 448320, Note_off_c, 2, 61, 95
3, 448320, Note_off_c, 2, 56, 95
3, 448320, Note_off_c, 2, 49, 95
3, 448320, Note_on_c, 2, 65, 95
3, 448320, Note_on_c, 2, 61, 95
3, 448320, Note_on_c, 2, 56, 95
3, 448320, Note_on_c, 2, 49, 95
3, 448800, Note_off_c, 2, 65, 95
3, 448800, Note_off_c, 2, 61, 95
3, 448800, Note_off_c, 2, 56, 95
3, 448800, Note_off_c, 2, 49, 95
3, 448800, Note_on_c, 2, 65, 95
3, 448800, Note_on_c, 2, 61, 95
3, 448800, Note_on_c, 2, 56, 95
3, 448800, Note_on_c, 2, 49, 95
3, 449280, Note_off_c, 2, 65, 95
3, 449280, Note_off_c, 2, 61, 95
3, 449280, Note_off_c, 2, 56, 95
3, 449280, Note_off_c, 2, 49, 95
3, 449280, Note_on_c, 2, 63, 95
3, 449280, Note_on_c, 2, 59, 95
3, 449280, Note_on_c, 2, 54, 95
3, 449280, Note_on_c, 2, 47, 95
3, 449760, Note_off_c, 2, 63, 95
3, 449760, Note_off_c, 2, 59, 95
3, 449760, Note_off_c, 2, 54, 95
3, 449760, Note_off_c, 2, 47, 95
3, 449760, Note_on_c, 2, 63, 95
3, 449760, Note_on_c, 2, 59, 95
3, 449760, Note_on_c, 2, 54, 95
3, 449760, Note_on_c, 2, 47, 95
3, 450240, Note_off_c, 2, 63, 95
3, 450240, Note_off_c, 2, 59, 95
3, 450240, Note_off_c, 2, 54, 95
3, 450240, Note_off_c, 2, 47, 95
3, 450240, Note_on_c, 2, 63, 95
3, 450240, Note_on_c, 2, 59, 95
3, 450240, Note_on_c, 2, 54, 95
3, 450240, Note_on_c, 2, 47, 95
3, 450960, Note_off_c, 2, 63, 95
3, 450960, Note_off_c, 2, 59, 95
3, 450960, Note_off_c, 2, 54, 95
3, 450960, Note_off_c, 2, 47, 95
3, 450960, Note_on_c, 2, 63, 95
3, 450960, Note_on_c, 2, 59, 95
3, 450960, Note_on_c, 2, 54, 95
3, 450960, Note_on_c, 2, 47, 95
3, 451200, Note_off_c, 2, 63, 95
3, 451200, Note_off_c, 2, 59, 95
3, 451200, Note_off_c, 2, 54, 95
3, 451200, Note_off_c, 2, 47, 95
3, 451200, Note_on_c, 2, 63, 95
3, 451200, Note_on_c, 2, 59, 95
3, 451200, Note_on_c, 2, 54, 95
3, 451200, Note_on_c, 2, 47, 95
3, 451680, Note_off_c, 2, 63, 95
3, 451680, Note_off_c, 2, 59, 95
3, 451680, Note_off_c, 2, 54, 95
3, 451680, Note_off_c, 2, 47, 95
3, 451680, Note_on_c, 2, 63, 95
3, 451680, Note_on_c, 2, 59, 95
3, 451680, Note_on_c, 2, 54, 95
3, 451680, Note_on_c, 2, 47, 95
3, 452160, Note_off_c, 2, 63, 95
3, 452160, Note_off_c, 2, 59, 95
3, 452160, Note_off_c, 2, 54, 95
3, 452160, Note_off_c, 2, 47, 95
3, 452160, Note_on_c, 2, 63, 95
3, 452160, Note_on_c, 2, 59, 95
3, 452160, Note_on_c, 2, 54, 95
3, 452160, Note_on_c, 2, 47, 95
3, 452640, Note_off_c, 2, 63, 95
3, 452640, Note_off_c, 2, 59, 95
3, 452640, Note_off_c, 2, 54, 95
3, 452640, Note_off_c, 2, 47, 95
3, 452640, Note_on_c, 2, 63, 95
3, 452640, Note_on_c, 2, 59, 95
3, 452640, Note_on_c, 2, 54, 95
3, 452640, Note_on_c, 2, 47, 95
3, 453120, Note_off_c, 2, 63, 95
3, 453120, Note_off_c, 2, 59, 95
3, 453120, Note_off_c, 2, 54, 95
3, 453120, Note_off_c, 2, 47, 95
3, 453120, Note_on_c, 2, 61, 95
3, 453120, Note_on_c, 2, 57, 95
3, 453120, Note_on_c, 2, 52, 95
3, 453120, Note_on_c, 2, 45, 95
3, 453600, Note_off_c, 2, 61, 95
3, 453600, Note_off_c, 2, 57, 95
3, 453600, Note_off_c, 2, 52, 95
3, 453600, Note_off_c, 2, 45, 95
3, 453600, Note_on_c, 2, 61, 95
3, 453600, Note_on_c, 2, 57, 95
3, 453600, Note_on_c, 2, 52, 95
3, 453600, Note_on_c, 2, 45, 95
3, 454080, Note_off_c, 2, 61, 95
3, 454080, Note_off_c, 2, 57, 95
3, 454080, Note_off_c, 2, 52, 95
3, 454080, Note_off_c, 2, 45, 95
3, 454080, Note_on_c, 2, 61, 95
3, 454080, Note_on_c, 2, 57, 95
3, 454080, Note_on_c, 2, 52, 95
3, 454080, Note_on_c, 2, 45, 95
3, 454800, Note_off_c, 2, 61, 95
3, 454800, Note_off_c, 2, 57, 95
3, 454800, Note_off_c, 2, 52, 95
3, 454800, Note_off_c, 2, 45, 95
3, 454800, Note_on_c, 2, 61, 95
3, 454800, Note_on_c, 2, 57, 95
3, 454800, Note_on_c, 2, 52, 95
3, 454800, Note_on_c, 2, 45, 95
3, 455040, Note_off_c, 2, 61, 95
3, 455040, Note_off_c, 2, 57, 95
3, 455040, Note_off_c, 2, 52, 95
3, 455040, Note_off_c, 2, 45, 95
3, 455040, Note_on_c, 2, 61, 95
3, 455040, Note_on_c, 2, 57, 95
3, 455040, Note_on_c, 2, 52, 95
3, 455040, Note_on_c, 2, 45, 95
3, 455520, Note_off_c, 2, 61, 95
3, 455520, Note_off_c, 2, 57, 95
3, 455520, Note_off_c, 2, 52, 95
3, 455520, Note_off_c, 2, 45, 95
3, 455520, Note_on_c, 2, 61, 95
3, 455520, Note_on_c, 2, 57, 95
3, 455520, Note_on_c, 2, 52, 95
3, 455520, Note_on_c, 2, 45, 95
3, 456000, Note_off_c, 2, 61, 95
3, 456000, Note_off_c, 2, 57, 95
3, 456000, Note_off_c, 2, 52, 95
3, 456000, Note_off_c, 2, 45, 95
3, 456000, Note_on_c, 2, 61, 95
3, 456000, Note_on_c, 2, 57, 95
3, 456000, Note_on_c, 2, 52, 95
3, 456000, Note_on_c, 2, 45, 95
3, 456480, Note_off_c, 2, 61, 95
3, 456480, Note_off_c, 2, 57, 95
3, 456480, Note_off_c, 2, 52, 95
3, 456480, Note_off_c, 2, 45, 95
3, 456480, Note_on_c, 2, 61, 95
3, 456480, Note_on_c, 2, 57, 95
3, 456480, Note_on_c, 2, 52, 95
3, 456480, Note_on_c, 2, 45, 95
3, 456960, Note_off_c, 2, 61, 95
3, 456960, Note_off_c, 2, 57, 95
3, 456960, Note_off_c, 2, 52, 95
3, 456960, Note_off_c, 2, 45, 95
3, 456960, Note_on_c, 2, 59, 95
3, 456960, Note_on_c, 2, 56, 95
3, 456960, Note_on_c, 2, 52, 95
3, 456960, Note_on_c, 2, 47, 95
3, 457440, Note_off_c, 2, 59, 95
3, 457440, Note_off_c, 2, 56, 95
3, 457440, Note_off_c, 2, 52, 95
3, 457440, Note_off_c, 2, 47, 95
3, 457440, Note_on_c, 2, 61, 95
3, 457440, Note_on_c, 2, 57, 95
3, 457440, Note_on_c, 2, 52, 95
3, 457440, Note_on_c, 2, 45, 95
3, 457920, Note_off_c, 2, 61, 95
3, 457920, Note_off_c, 2, 57, 95
3, 457920, Note_off_c, 2, 52, 95
3, 457920, Note_off_c, 2, 45, 95
3, 457920, Note_on_c, 2, 59, 95
3, 457920, Note_on_c, 2, 56, 95
3, 457920, Note_on_c, 2, 52, 95
3, 457920, Note_on_c, 2, 47, 95
3, 458400, Note_off_c, 2, 59, 95
3, 458400, Note_off_c, 2, 56, 95
3, 458400, Note_off_c, 2, 52, 95
3, 458400, Note_off_c, 2, 47, 95
3, 458400, Note_on_c, 2, 61, 95
3, 458400, Note_on_c, 2, 57, 95
3, 458400, Note_on_c, 2, 52, 95
3, 458400, Note_on_c, 2, 45, 95
3, 458880, Note_off_c, 2, 61, 95
3, 458880, Note_off_c, 2, 57, 95
3, 458880, Note_off_c, 2, 52, 95
3, 458880, Note_off_c, 2, 45, 95
3, 458880, Note_on_c, 2, 59, 95
3, 458880, Note_on_c, 2, 56, 95
3, 458880, Note_on_c, 2, 52, 95
3, 458880, Note_on_c, 2, 47, 95
3, 459360, Note_off_c, 2, 59, 95
3, 459360, Note_off_c, 2, 56, 95
3, 459360, Note_off_c, 2, 52, 95
3, 459360, Note_off_c, 2, 47, 95
3, 459360, Note_on_c, 2, 63, 95
3, 459360, Note_on_c, 2, 59, 95
3, 459360, Note_on_c, 2, 54, 95
3, 459360, Note_on_c, 2, 47, 95
3, 459840, Note_off_c, 2, 63, 95
3, 459840, Note_off_c, 2, 59, 95
3, 459840, Note_off_c, 2, 54, 95
3, 459840, Note_off_c, 2, 47, 95
3, 459840, Note_on_c, 2, 63, 95
3, 459840, Note_on_c, 2, 59, 95
3, 459840, Note_on_c, 2, 54, 95
3, 459840, Note_on_c, 2, 47, 95
3, 460320, Note_off_c, 2, 63, 95
3, 460320, Note_off_c, 2, 59, 95
3, 460320, Note_off_c, 2, 54, 95
3, 460320, Note_off_c, 2, 47, 95
3, 460320, Note_on_c, 2, 63, 95
3, 460320, Note_on_c, 2, 59, 95
3, 460320, Note_on_c, 2, 54, 95
3, 460320, Note_on_c, 2, 47, 95
3, 460800, Note_off_c, 2, 63, 95
3, 460800, Note_off_c, 2, 59, 95
3, 460800, Note_off_c, 2, 54, 95
3, 460800, Note_off_c, 2, 47, 95
3, 460800, Note_on_c, 2, 61, 95
3, 460800, Note_on_c, 2, 56, 95
3, 460800, Note_on_c, 2, 49, 95
3, 461280, Note_off_c, 2, 61, 95
3, 461280, Note_off_c, 2, 56, 95
3, 461280, Note_off_c, 2, 49, 95
3, 461280, Note_on_c, 2, 65, 95
3, 461280, Note_on_c, 2, 61, 95
3, 461280, Note_on_c, 2, 56, 95
3, 461280, Note_on_c, 2, 49, 95
3, 461760, Note_off_c, 2, 65, 95
3, 461760, Note_off_c, 2, 61, 95
3, 461760, Note_off_c, 2, 56, 95
3, 461760, Note_off_c, 2, 49, 95
3, 461760, Note_on_c, 2, 65, 95
3, 461760, Note_on_c, 2, 61, 95
3, 461760, Note_on_c, 2, 56, 95
3, 461760, Note_on_c, 2, 49, 95
3, 462480, Note_off_c, 2, 65, 95
3, 462480, Note_off_c, 2, 61, 95
3, 462480, Note_off_c, 2, 56, 95
3, 462480, Note_off_c, 2, 49, 95
3, 462480, Note_on_c, 2, 66, 95
3, 462480, Note_on_c, 2, 61, 95
3, 462480, Note_on_c, 2, 56, 95
3, 462480, Note_on_c, 2, 49, 95
3, 462720, Note_off_c, 2, 66, 95
3, 462720, Note_off_c, 2, 61, 95
3, 462720, Note_off_c, 2, 56, 95
3, 462720, Note_off_c, 2, 49, 95
3, 462720, Note_on_c, 2, 66, 95
3, 462720, Note_on_c, 2, 61, 95
3, 462720, Note_on_c, 2, 56, 95
3, 462720, Note_on_c, 2, 49, 95
3, 463200, Note_off_c, 2, 66, 95
3, 463200, Note_off_c, 2, 61, 95
3, 463200, Note_off_c, 2, 56, 95
3, 463200, Note_off_c, 2, 49, 95
3, 463200, Note_on_c, 2, 66, 95
3, 463200, Note_on_c, 2, 61, 95
3, 463200, Note_on_c, 2, 56, 95
3, 463200, Note_on_c, 2, 49, 95
3, 463680, Note_off_c, 2, 66, 95
3, 463680, Note_off_c, 2, 61, 95
3, 463680, Note_off_c, 2, 56, 95
3, 463680, Note_off_c, 2, 49, 95
3, 463680, Note_on_c, 2, 66, 95
3, 463680, Note_on_c, 2, 61, 95
3, 463680, Note_on_c, 2, 56, 95
3, 463680, Note_on_c, 2, 49, 95
3, 464160, Note_off_c, 2, 66, 95
3, 464160, Note_off_c, 2, 61, 95
3, 464160, Note_off_c, 2, 56, 95
3, 464160, Note_off_c, 2, 49, 95
3, 464160, Note_on_c, 2, 56, 95
3, 464160, Note_on_c, 2, 52, 95
3, 464160, Note_on_c, 2, 47, 95
3, 464160, Note_on_c, 2, 40, 95
3, 464219, Note_off_c, 2, 56, 95
3, 464219, Note_off_c, 2, 52, 95
3, 464219, Note_off_c, 2, 47, 95
3, 464219, Note_off_c, 2, 40, 95
3, 464640, Note_on_c, 2, 59, 95
3, 464640, Note_on_c, 2, 54, 95
3, 464640, Note_on_c, 2, 47, 95
3, 465120, Note_off_c, 2, 59, 95
3, 465120, Note_off_c, 2, 54, 95
3, 465120, Note_off_c, 2, 47, 95
3, 465120, Note_on_c, 2, 64, 95
3, 465120, Note_on_c, 2, 59, 95
3, 465120, Note_on_c, 2, 54, 95
3, 465120, Note_on_c, 2, 47, 95
3, 465600, Note_off_c, 2, 64, 95
3, 465600, Note_off_c, 2, 59, 95
3, 465600, Note_off_c, 2, 54, 95
3, 465600, Note_off_c, 2, 47, 95
3, 465600, Note_on_c, 2, 64, 95
3, 465600, Note_on_c, 2, 59, 95
3, 465600, Note_on_c, 2, 54, 95
3, 465600, Note_on_c, 2, 47, 95
3, 466320, Note_off_c, 2, 64, 95
3, 466320, Note_off_c, 2, 59, 95
3, 466320, Note_off_c, 2, 54, 95
3, 466320, Note_off_c, 2, 47, 95
3, 466320, Note_on_c, 2, 64, 95
3, 466320, Note_on_c, 2, 59, 95
3, 466320, Note_on_c, 2, 54, 95
3, 466320, Note_on_c, 2, 47, 95
3, 466560, Note_off_c, 2, 64, 95
3, 466560, Note_off_c, 2, 59, 95
3, 466560, Note_off_c, 2, 54, 95
3, 466560, Note_off_c, 2, 47, 95
3, 466560, Note_on_c, 2, 64, 95
3, 466560, Note_on_c, 2, 59, 95
3, 466560, Note_on_c, 2, 54, 95
3, 466560, Note_on_c, 2, 47, 95
3, 467040, Note_off_c, 2, 64, 95
3, 467040, Note_off_c, 2, 59, 95
3, 467040, Note_off_c, 2, 54, 95
3, 467040, Note_off_c, 2, 47, 95
3, 467040, Note_on_c, 2, 64, 95
3, 467040, Note_on_c, 2, 59, 95
3, 467040, Note_on_c, 2, 54, 95
3, 467040, Note_on_c, 2, 47, 95
3, 467520, Note_off_c, 2, 64, 95
3, 467520, Note_off_c, 2, 59, 95
3, 467520, Note_off_c, 2, 54, 95
3, 467520, Note_off_c, 2, 47, 95
3, 467520, Note_on_c, 2, 64, 95
3, 467520, Note_on_c, 2, 59, 95
3, 467520, Note_on_c, 2, 54, 95
3, 467520, Note_on_c, 2, 47, 95
3, 468000, Note_off_c, 2, 64, 95
3, 468000, Note_off_c, 2, 59, 95
3, 468000, Note_off_c, 2, 54, 95
3, 468000, Note_off_c, 2, 47, 95
3, 468000, Note_on_c, 2, 56, 95
3, 468000, Note_on_c, 2, 52, 95
3, 468000, Note_on_c, 2, 47, 95
3, 468000, Note_on_c, 2, 40, 95
3, 468059, Note_off_c, 2, 56, 95
3, 468059, Note_off_c, 2, 52, 95
3, 468059, Note_off_c, 2, 47, 95
3, 468059, Note_off_c, 2, 40, 95
3, 468480, Note_on_c, 2, 61, 95
3, 468480, Note_on_c, 2, 57, 95
3, 468480, Note_on_c, 2, 52, 95
3, 468480, Note_on_c, 2, 45, 95
3, 468960, Note_off_c, 2, 61, 95
3, 468960, Note_off_c, 2, 57, 95
3, 468960, Note_off_c, 2, 52, 95
3, 468960, Note_off_c, 2, 45, 95
3, 468960, Note_on_c, 2, 61, 95
3, 468960, Note_on_c, 2, 57, 95
3, 468960, Note_on_c, 2, 52, 95
3, 468960, Note_on_c, 2, 45, 95
3, 469440, Note_off_c, 2, 61, 95
3, 469440, Note_off_c, 2, 57, 95
3, 469440, Note_off_c, 2, 52, 95
3, 469440, Note_off_c, 2, 45, 95
3, 469440, Note_on_c, 2, 61, 95
3, 469440, Note_on_c, 2, 57, 95
3, 469440, Note_on_c, 2, 52, 95
3, 469440, Note_on_c, 2, 45, 95
3, 470160, Note_off_c, 2, 61, 95
3, 470160, Note_off_c, 2, 57, 95
3, 470160, Note_off_c, 2, 52, 95
3, 470160, Note_off_c, 2, 45, 95
3, 470160, Note_on_c, 2, 61, 95
3, 470160, Note_on_c, 2, 57, 95
3, 470160, Note_on_c, 2, 52, 95
3, 470160, Note_on_c, 2, 45, 95
3, 470400, Note_off_c, 2, 61, 95
3, 470400, Note_off_c, 2, 57, 95
3, 470400, Note_off_c, 2, 52, 95
3, 470400, Note_off_c, 2, 45, 95
3, 470400, Note_on_c, 2, 61, 95
3, 470400, Note_on_c, 2, 57, 95
3, 470400, Note_on_c, 2, 52, 95
3, 470400, Note_on_c, 2, 45, 95
3, 470880, Note_off_c, 2, 61, 95
3, 470880, Note_off_c, 2, 57, 95
3, 470880, Note_off_c, 2, 52, 95
3, 470880, Note_off_c, 2, 45, 95
3, 470880, Note_on_c, 2, 61, 95
3, 470880, Note_on_c, 2, 57, 95
3, 470880, Note_on_c, 2, 52, 95
3, 470880, Note_on_c, 2, 45, 95
3, 471360, Note_off_c, 2, 61, 95
3, 471360, Note_off_c, 2, 57, 95
3, 471360, Note_off_c, 2, 52, 95
3, 471360, Note_off_c, 2, 45, 95
3, 471360, Note_on_c, 2, 61, 95
3, 471360, Note_on_c, 2, 57, 95
3, 471360, Note_on_c, 2, 52, 95
3, 471360, Note_on_c, 2, 45, 95
3, 471840, Note_off_c, 2, 61, 95
3, 471840, Note_off_c, 2, 57, 95
3, 471840, Note_off_c, 2, 52, 95
3, 471840, Note_off_c, 2, 45, 95
3, 471840, Note_on_c, 2, 56, 95
3, 471840, Note_on_c, 2, 52, 95
3, 471840, Note_on_c, 2, 47, 95
3, 471840, Note_on_c, 2, 40, 95
3, 471899, Note_off_c, 2, 56, 95
3, 471899, Note_off_c, 2, 52, 95
3, 471899, Note_off_c, 2, 47, 95
3, 471899, Note_off_c, 2, 40, 95
3, 472320, Note_on_c, 2, 59, 95
3, 472320, Note_on_c, 2, 56, 95
3, 472320, Note_on_c, 2, 52, 95
3, 472320, Note_on_c, 2, 47, 95
3, 472800, Note_off_c, 2, 59, 95
3, 472800, Note_off_c, 2, 56, 95
3, 472800, Note_off_c, 2, 52, 95
3, 472800, Note_off_c, 2, 47, 95
3, 472800, Note_on_c, 2, 61, 95
3, 472800, Note_on_c, 2, 57, 95
3, 472800, Note_on_c, 2, 52, 95
3, 472800, Note_on_c, 2, 45, 95
3, 473280, Note_off_c, 2, 61, 95
3, 473280, Note_off_c, 2, 57, 95
3, 473280, Note_off_c, 2, 52, 95
3, 473280, Note_off_c, 2, 45, 95
3, 473280, Note_on_c, 2, 59, 95
3, 473280, Note_on_c, 2, 56, 95
3, 473280, Note_on_c, 2, 52, 95
3, 473280, Note_on_c, 2, 47, 95
3, 473760, Note_off_c, 2, 59, 95
3, 473760, Note_off_c, 2, 56, 95
3, 473760, Note_off_c, 2, 52, 95
3, 473760, Note_off_c, 2, 47, 95
3, 473760, Note_on_c, 2, 61, 95
3, 473760, Note_on_c, 2, 57, 95
3, 473760, Note_on_c, 2, 52, 95
3, 473760, Note_on_c, 2, 45, 95
3, 474240, Note_off_c, 2, 61, 95
3, 474240, Note_off_c, 2, 57, 95
3, 474240, Note_off_c, 2, 52, 95
3, 474240, Note_off_c, 2, 45, 95
3, 474240, Note_on_c, 2, 64, 95
3, 474240, Note_on_c, 2, 59, 95
3, 474240, Note_on_c, 2, 54, 95
3, 474240, Note_on_c, 2, 47, 95
3, 474720, Note_off_c, 2, 64, 95
3, 474720, Note_off_c, 2, 59, 95
3, 474720, Note_off_c, 2, 54, 95
3, 474720, Note_off_c, 2, 47, 95
3, 474720, Note_on_c, 2, 64, 95
3, 474720, Note_on_c, 2, 59, 95
3, 474720, Note_on_c, 2, 54, 95
3, 474720, Note_on_c, 2, 47, 95
3, 475200, Note_off_c, 2, 64, 95
3, 475200, Note_off_c, 2, 59, 95
3, 475200, Note_off_c, 2, 54, 95
3, 475200, Note_off_c, 2, 47, 95
3, 475200, Note_on_c, 2, 64, 95
3, 475200, Note_on_c, 2, 59, 95
3, 475200, Note_on_c, 2, 54, 95
3, 475200, Note_on_c, 2, 47, 95
3, 475680, Note_off_c, 2, 64, 95
3, 475680, Note_off_c, 2, 59, 95
3, 475680, Note_off_c, 2, 54, 95
3, 475680, Note_off_c, 2, 47, 95
3, 475680, Note_on_c, 2, 61, 95
3, 475680, Note_on_c, 2, 56, 95
3, 475680, Note_on_c, 2, 49, 95
3, 476160, Note_off_c, 2, 61, 95
3, 476160, Note_off_c, 2, 56, 95
3, 476160, Note_off_c, 2, 49, 95
3, 476160, Note_on_c, 2, 61, 95
3, 476160, Note_on_c, 2, 56, 95
3, 476160, Note_on_c, 2, 49, 95
3, 476640, Note_off_c, 2, 61, 95
3, 476640, Note_off_c, 2, 56, 95
3, 476640, Note_off_c, 2, 49, 95
3, 476640, Note_on_c, 2, 65, 95
3, 476640, Note_on_c, 2, 61, 95
3, 476640, Note_on_c, 2, 56, 95
3, 476640, Note_on_c, 2, 49, 95
3, 477120, Note_off_c, 2, 65, 95
3, 477120, Note_off_c, 2, 61, 95
3, 477120, Note_off_c, 2, 56, 95
3, 477120, Note_off_c, 2, 49, 95
3, 477120, Note_on_c, 2, 65, 95
3, 477120, Note_on_c, 2, 61, 95
3, 477120, Note_on_c, 2, 56, 95
3, 477120, Note_on_c, 2, 49, 95
3, 477840, Note_off_c, 2, 65, 95
3, 477840, Note_off_c, 2, 61, 95
3, 477840, Note_off_c, 2, 56, 95
3, 477840, Note_off_c, 2, 49, 95
3, 477840, Note_on_c, 2, 66, 95
3, 477840, Note_on_c, 2, 61, 95
3, 477840, Note_on_c, 2, 56, 95
3, 477840, Note_on_c, 2, 49, 95
3, 478080, Note_off_c, 2, 66, 95
3, 478080, Note_off_c, 2, 61, 95
3, 478080, Note_off_c, 2, 56, 95
3, 478080, Note_off_c, 2, 49, 95
3, 478080, Note_on_c, 2, 66, 95
3, 478080, Note_on_c, 2, 61, 95
3, 478080, Note_on_c, 2, 56, 95
3, 478080, Note_on_c, 2, 49, 95
3, 478560, Note_off_c, 2, 66, 95
3, 478560, Note_off_c, 2, 61, 95
3, 478560, Note_off_c, 2, 56, 95
3, 478560, Note_off_c, 2, 49, 95
3, 478560, Note_on_c, 2, 66, 95
3, 478560, Note_on_c, 2, 61, 95
3, 478560, Note_on_c, 2, 56, 95
3, 478560, Note_on_c, 2, 49, 95
3, 479040, Note_off_c, 2, 66, 95
3, 479040, Note_off_c, 2, 61, 95
3, 479040, Note_off_c, 2, 56, 95
3, 479040, Note_off_c, 2, 49, 95
3, 479040, Note_on_c, 2, 66, 95
3, 479040, Note_on_c, 2, 61, 95
3, 479040, Note_on_c, 2, 56, 95
3, 479040, Note_on_c, 2, 49, 95
3, 479520, Note_off_c, 2, 66, 95
3, 479520, Note_off_c, 2, 61, 95
3, 479520, Note_off_c, 2, 56, 95
3, 479520, Note_off_c, 2, 49, 95
3, 479520, Note_on_c, 2, 56, 95
3, 479520, Note_on_c, 2, 52, 95
3, 479520, Note_on_c, 2, 47, 95
3, 479520, Note_on_c, 2, 40, 95
3, 479579, Note_off_c, 2, 56, 95
3, 479579, Note_off_c, 2, 52, 95
3, 479579, Note_off_c, 2, 47, 95
3, 479579, Note_off_c, 2, 40, 95
3, 480000, Note_on_c, 2, 59, 95
3, 480000, Note_on_c, 2, 54, 95
3, 480000, Note_on_c, 2, 47, 95
3, 480480, Note_off_c, 2, 59, 95
3, 480480, Note_off_c, 2, 54, 95
3, 480480, Note_off_c, 2, 47, 95
3, 480480, Note_on_c, 2, 64, 95
3, 480480, Note_on_c, 2, 59, 95
3, 480480, Note_on_c, 2, 54, 95
3, 480480, Note_on_c, 2, 47, 95
3, 480960, Note_off_c, 2, 64, 95
3, 480960, Note_off_c, 2, 59, 95
3, 480960, Note_off_c, 2, 54, 95
3, 480960, Note_off_c, 2, 47, 95
3, 480960, Note_on_c, 2, 64, 95
3, 480960, Note_on_c, 2, 59, 95
3, 480960, Note_on_c, 2, 54, 95
3, 480960, Note_on_c, 2, 47, 95
3, 481680, Note_off_c, 2, 64, 95
3, 481680, Note_off_c, 2, 59, 95
3, 481680, Note_off_c, 2, 54, 95
3, 481680, Note_off_c, 2, 47, 95
3, 481680, Note_on_c, 2, 64, 95
3, 481680, Note_on_c, 2, 59, 95
3, 481680, Note_on_c, 2, 54, 95
3, 481680, Note_on_c, 2, 47, 95
3, 481920, Note_off_c, 2, 64, 95
3, 481920, Note_off_c, 2, 59, 95
3, 481920, Note_off_c, 2, 54, 95
3, 481920, Note_off_c, 2, 47, 95
3, 481920, Note_on_c, 2, 64, 95
3, 481920, Note_on_c, 2, 59, 95
3, 481920, Note_on_c, 2, 54, 95
3, 481920, Note_on_c, 2, 47, 95
3, 482400, Note_off_c, 2, 64, 95
3, 482400, Note_off_c, 2, 59, 95
3, 482400, Note_off_c, 2, 54, 95
3, 482400, Note_off_c, 2, 47, 95
3, 482400, Note_on_c, 2, 64, 95
3, 482400, Note_on_c, 2, 59, 95
3, 482400, Note_on_c, 2, 54, 95
3, 482400, Note_on_c, 2, 47, 95
3, 482880, Note_off_c, 2, 64, 95
3, 482880, Note_off_c, 2, 59, 95
3, 482880, Note_off_c, 2, 54, 95
3, 482880, Note_off_c, 2, 47, 95
3, 482880, Note_on_c, 2, 64, 95
3, 482880, Note_on_c, 2, 59, 95
3, 482880, Note_on_c, 2, 54, 95
3, 482880, Note_on_c, 2, 47, 95
3, 483360, Note_off_c, 2, 64, 95
3, 483360, Note_off_c, 2, 59, 95
3, 483360, Note_off_c, 2, 54, 95
3, 483360, Note_off_c, 2, 47, 95
3, 483360, Note_on_c, 2, 56, 95
3, 483360, Note_on_c, 2, 52, 95
3, 483360, Note_on_c, 2, 47, 95
3, 483360, Note_on_c, 2, 40, 95
3, 483419, Note_off_c, 2, 56, 95
3, 483419, Note_off_c, 2, 52, 95
3, 483419, Note_off_c, 2, 47, 95
3, 483419, Note_off_c, 2, 40, 95
3, 483840, Note_on_c, 2, 61, 95
3, 483840, Note_on_c, 2, 57, 95
3, 483840, Note_on_c, 2, 52, 95
3, 483840, Note_on_c, 2, 45, 95
3, 484320, Note_off_c, 2, 61, 95
3, 484320, Note_off_c, 2, 57, 95
3, 484320, Note_off_c, 2, 52, 95
3, 484320, Note_off_c, 2, 45, 95
3, 484320, Note_on_c, 2, 61, 95
3, 484320, Note_on_c, 2, 57, 95
3, 484320, Note_on_c, 2, 52, 95
3, 484320, Note_on_c, 2, 45, 95
3, 484800, Note_off_c, 2, 61, 95
3, 484800, Note_off_c, 2, 57, 95
3, 484800, Note_off_c, 2, 52, 95
3, 484800, Note_off_c, 2, 45, 95
3, 484800, Note_on_c, 2, 61, 95
3, 484800, Note_on_c, 2, 57, 95
3, 484800, Note_on_c, 2, 52, 95
3, 484800, Note_on_c, 2, 45, 95
3, 485520, Note_off_c, 2, 61, 95
3, 485520, Note_off_c, 2, 57, 95
3, 485520, Note_off_c, 2, 52, 95
3, 485520, Note_off_c, 2, 45, 95
3, 485520, Note_on_c, 2, 61, 95
3, 485520, Note_on_c, 2, 57, 95
3, 485520, Note_on_c, 2, 52, 95
3, 485520, Note_on_c, 2, 45, 95
3, 485760, Note_off_c, 2, 61, 95
3, 485760, Note_off_c, 2, 57, 95
3, 485760, Note_off_c, 2, 52, 95
3, 485760, Note_off_c, 2, 45, 95
3, 485760, Note_on_c, 2, 61, 95
3, 485760, Note_on_c, 2, 57, 95
3, 485760, Note_on_c, 2, 52, 95
3, 485760, Note_on_c, 2, 45, 95
3, 486240, Note_off_c, 2, 61, 95
3, 486240, Note_off_c, 2, 57, 95
3, 486240, Note_off_c, 2, 52, 95
3, 486240, Note_off_c, 2, 45, 95
3, 486240, Note_on_c, 2, 61, 95
3, 486240, Note_on_c, 2, 57, 95
3, 486240, Note_on_c, 2, 52, 95
3, 486240, Note_on_c, 2, 45, 95
3, 486720, Note_off_c, 2, 61, 95
3, 486720, Note_off_c, 2, 57, 95
3, 486720, Note_off_c, 2, 52, 95
3, 486720, Note_off_c, 2, 45, 95
3, 486720, Note_on_c, 2, 61, 95
3, 486720, Note_on_c, 2, 57, 95
3, 486720, Note_on_c, 2, 52, 95
3, 486720, Note_on_c, 2, 45, 95
3, 487200, Note_off_c, 2, 61, 95
3, 487200, Note_off_c, 2, 57, 95
3, 487200, Note_off_c, 2, 52, 95
3, 487200, Note_off_c, 2, 45, 95
3, 487200, Note_on_c, 2, 56, 95
3, 487200, Note_on_c, 2, 52, 95
3, 487200, Note_on_c, 2, 47, 95
3, 487200, Note_on_c, 2, 40, 95
3, 487259, Note_off_c, 2, 56, 95
3, 487259, Note_off_c, 2, 52, 95
3, 487259, Note_off_c, 2, 47, 95
3, 487259, Note_off_c, 2, 40, 95
3, 487680, Note_on_c, 2, 59, 95
3, 487680, Note_on_c, 2, 56, 95
3, 487680, Note_on_c, 2, 52, 95
3, 487680, Note_on_c, 2, 47, 95
3, 488160, Note_off_c, 2, 59, 95
3, 488160, Note_off_c, 2, 56, 95
3, 488160, Note_off_c, 2, 52, 95
3, 488160, Note_off_c, 2, 47, 95
3, 488160, Note_on_c, 2, 61, 95
3, 488160, Note_on_c, 2, 57, 95
3, 488160, Note_on_c, 2, 52, 95
3, 488160, Note_on_c, 2, 45, 95
3, 488640, Note_off_c, 2, 61, 95
3, 488640, Note_off_c, 2, 57, 95
3, 488640, Note_off_c, 2, 52, 95
3, 488640, Note_off_c, 2, 45, 95
3, 488640, Note_on_c, 2, 59, 95
3, 488640, Note_on_c, 2, 56, 95
3, 488640, Note_on_c, 2, 52, 95
3, 488640, Note_on_c, 2, 47, 95
3, 489120, Note_off_c, 2, 59, 95
3, 489120, Note_off_c, 2, 56, 95
3, 489120, Note_off_c, 2, 52, 95
3, 489120, Note_off_c, 2, 47, 95
3, 489120, Note_on_c, 2, 61, 95
3, 489120, Note_on_c, 2, 57, 95
3, 489120, Note_on_c, 2, 52, 95
3, 489120, Note_on_c, 2, 45, 95
3, 489600, Note_off_c, 2, 61, 95
3, 489600, Note_off_c, 2, 57, 95
3, 489600, Note_off_c, 2, 52, 95
3, 489600, Note_off_c, 2, 45, 95
3, 489600, Note_on_c, 2, 64, 95
3, 489600, Note_on_c, 2, 59, 95
3, 489600, Note_on_c, 2, 54, 95
3, 489600, Note_on_c, 2, 47, 95
3, 490080, Note_off_c, 2, 64, 95
3, 490080, Note_off_c, 2, 59, 95
3, 490080, Note_off_c, 2, 54, 95
3, 490080, Note_off_c, 2, 47, 95
3, 490080, Note_on_c, 2, 64, 95
3, 490080, Note_on_c, 2, 59, 95
3, 490080, Note_on_c, 2, 54, 95
3, 490080, Note_on_c, 2, 47, 95
3, 490560, Note_off_c, 2, 64, 95
3, 490560, Note_off_c, 2, 59, 95
3, 490560, Note_off_c, 2, 54, 95
3, 490560, Note_off_c, 2, 47, 95
3, 490560, Note_on_c, 2, 64, 95
3, 490560, Note_on_c, 2, 59, 95
3, 490560, Note_on_c, 2, 54, 95
3, 490560, Note_on_c, 2, 47, 95
3, 491040, Note_off_c, 2, 64, 95
3, 491040, Note_off_c, 2, 59, 95
3, 491040, Note_off_c, 2, 54, 95
3, 491040, Note_off_c, 2, 47, 95
3, 491040, Note_on_c, 2, 61, 95
3, 491040, Note_on_c, 2, 56, 95
3, 491040, Note_on_c, 2, 49, 95
3, 491520, Note_off_c, 2, 61, 95
3, 491520, Note_off_c, 2, 56, 95
3, 491520, Note_off_c, 2, 49, 95
3, 491520, Note_on_c, 2, 61, 95
3, 491520, Note_on_c, 2, 56, 95
3, 491520, Note_on_c, 2, 49, 95
3, 492000, Note_off_c, 2, 61, 95
3, 492000, Note_off_c, 2, 56, 95
3, 492000, Note_off_c, 2, 49, 95
3, 492000, Note_on_c, 2, 65, 95
3, 492000, Note_on_c, 2, 61, 95
3, 492000, Note_on_c, 2, 56, 95
3, 492000, Note_on_c, 2, 49, 95
3, 492480, Note_off_c, 2, 65, 95
3, 492480, Note_off_c, 2, 61, 95
3, 492480, Note_off_c, 2, 56, 95
3, 492480, Note_off_c, 2, 49, 95
3, 492480, Note_on_c, 2, 65, 95
3, 492480, Note_on_c, 2, 61, 95
3, 492480, Note_on_c, 2, 56, 95
3, 492480, Note_on_c, 2, 49, 95
3, 493200, Note_off_c, 2, 65, 95
3, 493200, Note_off_c, 2, 61, 95
3, 493200, Note_off_c, 2, 56, 95
3, 493200, Note_off_c, 2, 49, 95
3, 493200, Note_on_c, 2, 66, 95
3, 493200, Note_on_c, 2, 61, 95
3, 493200, Note_on_c, 2, 56, 95
3, 493200, Note_on_c, 2, 49, 95
3, 493440, Note_off_c, 2, 66, 95
3, 493440, Note_off_c, 2, 61, 95
3, 493440, Note_off_c, 2, 56, 95
3, 493440, Note_off_c, 2, 49, 95
3, 493440, Note_on_c, 2, 66, 95
3, 493440, Note_on_c, 2, 61, 95
3, 493440, Note_on_c, 2, 56, 95
3, 493440, Note_on_c, 2, 49, 95
3, 493920, Note_off_c, 2, 66, 95
3, 493920, Note_off_c, 2, 61, 95
3, 493920, Note_off_c, 2, 56, 95
3, 493920, Note_off_c, 2, 49, 95
3, 493920, Note_on_c, 2, 66, 95
3, 493920, Note_on_c, 2, 61, 95
3, 493920, Note_on_c, 2, 56, 95
3, 493920, Note_on_c, 2, 49, 95
3, 494400, Note_off_c, 2, 66, 95
3, 494400, Note_off_c, 2, 61, 95
3, 494400, Note_off_c, 2, 56, 95
3, 494400, Note_off_c, 2, 49, 95
3, 494400, Note_on_c, 2, 66, 95
3, 494400, Note_on_c, 2, 61, 95
3, 494400, Note_on_c, 2, 56, 95
3, 494400, Note_on_c, 2, 49, 95
3, 494880, Note_off_c, 2, 66, 95
3, 494880, Note_off_c, 2, 61, 95
3, 494880, Note_off_c, 2, 56, 95
3, 494880, Note_off_c, 2, 49, 95
3, 494880, Note_on_c, 2, 56, 95
3, 494880, Note_on_c, 2, 52, 95
3, 494880, Note_on_c, 2, 47, 95
3, 494880, Note_on_c, 2, 40, 95
3, 494939, Note_off_c, 2, 56, 95
3, 494939, Note_off_c, 2, 52, 95
3, 494939, Note_off_c, 2, 47, 95
3, 494939, Note_off_c, 2, 40, 95
3, 495360, Note_on_c, 2, 59, 95
3, 495360, Note_on_c, 2, 54, 95
3, 495360, Note_on_c, 2, 47, 95
3, 495840, Note_off_c, 2, 59, 95
3, 495840, Note_off_c, 2, 54, 95
3, 495840, Note_off_c, 2, 47, 95
3, 495840, Note_on_c, 2, 64, 95
3, 495840, Note_on_c, 2, 59, 95
3, 495840, Note_on_c, 2, 54, 95
3, 495840, Note_on_c, 2, 47, 95
3, 496320, Note_off_c, 2, 64, 95
3, 496320, Note_off_c, 2, 59, 95
3, 496320, Note_off_c, 2, 54, 95
3, 496320, Note_off_c, 2, 47, 95
3, 496320, Note_on_c, 2, 64, 95
3, 496320, Note_on_c, 2, 59, 95
3, 496320, Note_on_c, 2, 54, 95
3, 496320, Note_on_c, 2, 47, 95
3, 497040, Note_off_c, 2, 64, 95
3, 497040, Note_off_c, 2, 59, 95
3, 497040, Note_off_c, 2, 54, 95
3, 497040, Note_off_c, 2, 47, 95
3, 497040, Note_on_c, 2, 64, 95
3, 497040, Note_on_c, 2, 59, 95
3, 497040, Note_on_c, 2, 54, 95
3, 497040, Note_on_c, 2, 47, 95
3, 497280, Note_off_c, 2, 64, 95
3, 497280, Note_off_c, 2, 59, 95
3, 497280, Note_off_c, 2, 54, 95
3, 497280, Note_off_c, 2, 47, 95
3, 497280, Note_on_c, 2, 64, 95
3, 497280, Note_on_c, 2, 59, 95
3, 497280, Note_on_c, 2, 54, 95
3, 497280, Note_on_c, 2, 47, 95
3, 497760, Note_off_c, 2, 64, 95
3, 497760, Note_off_c, 2, 59, 95
3, 497760, Note_off_c, 2, 54, 95
3, 497760, Note_off_c, 2, 47, 95
3, 497760, Note_on_c, 2, 64, 95
3, 497760, Note_on_c, 2, 59, 95
3, 497760, Note_on_c, 2, 54, 95
3, 497760, Note_on_c, 2, 47, 95
3, 498240, Note_off_c, 2, 64, 95
3, 498240, Note_off_c, 2, 59, 95
3, 498240, Note_off_c, 2, 54, 95
3, 498240, Note_off_c, 2, 47, 95
3, 498240, Note_on_c, 2, 64, 95
3, 498240, Note_on_c, 2, 59, 95
3, 498240, Note_on_c, 2, 54, 95
3, 498240, Note_on_c, 2, 47, 95
3, 498720, Note_off_c, 2, 64, 95
3, 498720, Note_off_c, 2, 59, 95
3, 498720, Note_off_c, 2, 54, 95
3, 498720, Note_off_c, 2, 47, 95
3, 498720, Note_on_c, 2, 56, 95
3, 498720, Note_on_c, 2, 52, 95
3, 498720, Note_on_c, 2, 47, 95
3, 498720, Note_on_c, 2, 40, 95
3, 498779, Note_off_c, 2, 56, 95
3, 498779, Note_off_c, 2, 52, 95
3, 498779, Note_off_c, 2, 47, 95
3, 498779, Note_off_c, 2, 40, 95
3, 499200, Note_on_c, 2, 61, 95
3, 499200, Note_on_c, 2, 57, 95
3, 499200, Note_on_c, 2, 52, 95
3, 499200, Note_on_c, 2, 45, 95
3, 499680, Note_off_c, 2, 61, 95
3, 499680, Note_off_c, 2, 57, 95
3, 499680, Note_off_c, 2, 52, 95
3, 499680, Note_off_c, 2, 45, 95
3, 499680, Note_on_c, 2, 61, 95
3, 499680, Note_on_c, 2, 57, 95
3, 499680, Note_on_c, 2, 52, 95
3, 499680, Note_on_c, 2, 45, 95
3, 500160, Note_off_c, 2, 61, 95
3, 500160, Note_off_c, 2, 57, 95
3, 500160, Note_off_c, 2, 52, 95
3, 500160, Note_off_c, 2, 45, 95
3, 500160, Note_on_c, 2, 61, 95
3, 500160, Note_on_c, 2, 57, 95
3, 500160, Note_on_c, 2, 52, 95
3, 500160, Note_on_c, 2, 45, 95
3, 500880, Note_off_c, 2, 61, 95
3, 500880, Note_off_c, 2, 57, 95
3, 500880, Note_off_c, 2, 52, 95
3, 500880, Note_off_c, 2, 45, 95
3, 500880, Note_on_c, 2, 61, 95
3, 500880, Note_on_c, 2, 57, 95
3, 500880, Note_on_c, 2, 52, 95
3, 500880, Note_on_c, 2, 45, 95
3, 501120, Note_off_c, 2, 61, 95
3, 501120, Note_off_c, 2, 57, 95
3, 501120, Note_off_c, 2, 52, 95
3, 501120, Note_off_c, 2, 45, 95
3, 501120, Note_on_c, 2, 61, 95
3, 501120, Note_on_c, 2, 57, 95
3, 501120, Note_on_c, 2, 52, 95
3, 501120, Note_on_c, 2, 45, 95
3, 501600, Note_off_c, 2, 61, 95
3, 501600, Note_off_c, 2, 57, 95
3, 501600, Note_off_c, 2, 52, 95
3, 501600, Note_off_c, 2, 45, 95
3, 501600, Note_on_c, 2, 61, 95
3, 501600, Note_on_c, 2, 57, 95
3, 501600, Note_on_c, 2, 52, 95
3, 501600, Note_on_c, 2, 45, 95
3, 502080, Note_off_c, 2, 61, 95
3, 502080, Note_off_c, 2, 57, 95
3, 502080, Note_off_c, 2, 52, 95
3, 502080, Note_off_c, 2, 45, 95
3, 502080, Note_on_c, 2, 61, 95
3, 502080, Note_on_c, 2, 57, 95
3, 502080, Note_on_c, 2, 52, 95
3, 502080, Note_on_c, 2, 45, 95
3, 502560, Note_off_c, 2, 61, 95
3, 502560, Note_off_c, 2, 57, 95
3, 502560, Note_off_c, 2, 52, 95
3, 502560, Note_off_c, 2, 45, 95
3, 502560, Note_on_c, 2, 56, 95
3, 502560, Note_on_c, 2, 52, 95
3, 502560, Note_on_c, 2, 47, 95
3, 502560, Note_on_c, 2, 40, 95
3, 502619, Note_off_c, 2, 56, 95
3, 502619, Note_off_c, 2, 52, 95
3, 502619, Note_off_c, 2, 47, 95
3, 502619, Note_off_c, 2, 40, 95
3, 503040, Note_on_c, 2, 59, 95
3, 503040, Note_on_c, 2, 56, 95
3, 503040, Note_on_c, 2, 52, 95
3, 503040, Note_on_c, 2, 47, 95
3, 503520, Note_off_c, 2, 59, 95
3, 503520, Note_off_c, 2, 56, 95
3, 503520, Note_off_c, 2, 52, 95
3, 503520, Note_off_c, 2, 47, 95
3, 503520, Note_on_c, 2, 61, 95
3, 503520, Note_on_c, 2, 57, 95
3, 503520, Note_on_c, 2, 52, 95
3, 503520, Note_on_c, 2, 45, 95
3, 504000, Note_off_c, 2, 61, 95
3, 504000, Note_off_c, 2, 57, 95
3, 504000, Note_off_c, 2, 52, 95
3, 504000, Note_off_c, 2, 45, 95
3, 504000, Note_on_c, 2, 59, 95
3, 504000, Note_on_c, 2, 56, 95
3, 504000, Note_on_c, 2, 52, 95
3, 504000, Note_on_c, 2, 47, 95
3, 504480, Note_off_c, 2, 59, 95
3, 504480, Note_off_c, 2, 56, 95
3, 504480, Note_off_c, 2, 52, 95
3, 504480, Note_off_c, 2, 47, 95
3, 504480, Note_on_c, 2, 61, 95
3, 504480, Note_on_c, 2, 57, 95
3, 504480, Note_on_c, 2, 52, 95
3, 504480, Note_on_c, 2, 45, 95
3, 504960, Note_off_c, 2, 61, 95
3, 504960, Note_off_c, 2, 57, 95
3, 504960, Note_off_c, 2, 52, 95
3, 504960, Note_off_c, 2, 45, 95
3, 504960, Note_on_c, 2, 64, 95
3, 504960, Note_on_c, 2, 59, 95
3, 504960, Note_on_c, 2, 54, 95
3, 504960, Note_on_c, 2, 47, 95
3, 505440, Note_off_c, 2, 64, 95
3, 505440, Note_off_c, 2, 59, 95
3, 505440, Note_off_c, 2, 54, 95
3, 505440, Note_off_c, 2, 47, 95
3, 505440, Note_on_c, 2, 64, 95
3, 505440, Note_on_c, 2, 59, 95
3, 505440, Note_on_c, 2, 54, 95
3, 505440, Note_on_c, 2, 47, 95
3, 505920, Note_off_c, 2, 64, 95
3, 505920, Note_off_c, 2, 59, 95
3, 505920, Note_off_c, 2, 54, 95
3, 505920, Note_off_c, 2, 47, 95
3, 505920, Note_on_c, 2, 64, 95
3, 505920, Note_on_c, 2, 59, 95
3, 505920, Note_on_c, 2, 54, 95
3, 505920, Note_on_c, 2, 47, 95
3, 506400, Note_off_c, 2, 64, 95
3, 506400, Note_off_c, 2, 59, 95
3, 506400, Note_off_c, 2, 54, 95
3, 506400, Note_off_c, 2, 47, 95
3, 506400, Note_on_c, 2, 61, 95
3, 506400, Note_on_c, 2, 56, 95
3, 506400, Note_on_c, 2, 49, 95
3, 506880, Note_off_c, 2, 61, 95
3, 506880, Note_off_c, 2, 56, 95
3, 506880, Note_off_c, 2, 49, 95
3, 506880, Note_on_c, 2, 61, 95
3, 506880, Note_on_c, 2, 56, 95
3, 506880, Note_on_c, 2, 49, 95
3, 507360, Note_off_c, 2, 61, 95
3, 507360, Note_off_c, 2, 56, 95
3, 507360, Note_off_c, 2, 49, 95
3, 507360, Note_on_c, 2, 65, 95
3, 507360, Note_on_c, 2, 61, 95
3, 507360, Note_on_c, 2, 56, 95
3, 507360, Note_on_c, 2, 49, 95
3, 507840, Note_off_c, 2, 65, 95
3, 507840, Note_off_c, 2, 61, 95
3, 507840, Note_off_c, 2, 56, 95
3, 507840, Note_off_c, 2, 49, 95
3, 507840, Note_on_c, 2, 65, 95
3, 507840, Note_on_c, 2, 61, 95
3, 507840, Note_on_c, 2, 56, 95
3, 507840, Note_on_c, 2, 49, 95
3, 508560, Note_off_c, 2, 65, 95
3, 508560, Note_off_c, 2, 61, 95
3, 508560, Note_off_c, 2, 56, 95
3, 508560, Note_off_c, 2, 49, 95
3, 508560, Note_on_c, 2, 66, 95
3, 508560, Note_on_c, 2, 61, 95
3, 508560, Note_on_c, 2, 56, 95
3, 508560, Note_on_c, 2, 49, 95
3, 508800, Note_off_c, 2, 66, 95
3, 508800, Note_off_c, 2, 61, 95
3, 508800, Note_off_c, 2, 56, 95
3, 508800, Note_off_c, 2, 49, 95
3, 508800, Note_on_c, 2, 66, 95
3, 508800, Note_on_c, 2, 61, 95
3, 508800, Note_on_c, 2, 56, 95
3, 508800, Note_on_c, 2, 49, 95
3, 509280, Note_off_c, 2, 66, 95
3, 509280, Note_off_c, 2, 61, 95
3, 509280, Note_off_c, 2, 56, 95
3, 509280, Note_off_c, 2, 49, 95
3, 509280, Note_on_c, 2, 66, 95
3, 509280, Note_on_c, 2, 61, 95
3, 509280, Note_on_c, 2, 56, 95
3, 509280, Note_on_c, 2, 49, 95
3, 509760, Note_off_c, 2, 66, 95
3, 509760, Note_off_c, 2, 61, 95
3, 509760, Note_off_c, 2, 56, 95
3, 509760, Note_off_c, 2, 49, 95
3, 509760, Note_on_c, 2, 66, 95
3, 509760, Note_on_c, 2, 61, 95
3, 509760, Note_on_c, 2, 56, 95
3, 509760, Note_on_c, 2, 49, 95
3, 510240, Note_off_c, 2, 66, 95
3, 510240, Note_off_c, 2, 61, 95
3, 510240, Note_off_c, 2, 56, 95
3, 510240, Note_off_c, 2, 49, 95
3, 510240, Note_on_c, 2, 56, 95
3, 510240, Note_on_c, 2, 52, 95
3, 510240, Note_on_c, 2, 47, 95
3, 510240, Note_on_c, 2, 40, 95
3, 510299, Note_off_c, 2, 56, 95
3, 510299, Note_off_c, 2, 52, 95
3, 510299, Note_off_c, 2, 47, 95
3, 510299, Note_off_c, 2, 40, 95
3, 510720, Note_on_c, 2, 59, 95
3, 510720, Note_on_c, 2, 54, 95
3, 510720, Note_on_c, 2, 47, 95
3, 511200, Note_off_c, 2, 59, 95
3, 511200, Note_off_c, 2, 54, 95
3, 511200, Note_off_c, 2, 47, 95
3, 511200, Note_on_c, 2, 64, 95
3, 511200, Note_on_c, 2, 59, 95
3, 511200, Note_on_c, 2, 54, 95
3, 511200, Note_on_c, 2, 47, 95
3, 511680, Note_off_c, 2, 64, 95
3, 511680, Note_off_c, 2, 59, 95
3, 511680, Note_off_c, 2, 54, 95
3, 511680, Note_off_c, 2, 47, 95
3, 511680, Note_on_c, 2, 64, 95
3, 511680, Note_on_c, 2, 59, 95
3, 511680, Note_on_c, 2, 54, 95
3, 511680, Note_on_c, 2, 47, 95
3, 512400, Note_off_c, 2, 64, 95
3, 512400, Note_off_c, 2, 59, 95
3, 512400, Note_off_c, 2, 54, 95
3, 512400, Note_off_c, 2, 47, 95
3, 512400, Note_on_c, 2, 64, 95
3, 512400, Note_on_c, 2, 59, 95
3, 512400, Note_on_c, 2, 54, 95
3, 512400, Note_on_c, 2, 47, 95
3, 512640, Note_off_c, 2, 64, 95
3, 512640, Note_off_c, 2, 59, 95
3, 512640, Note_off_c, 2, 54, 95
3, 512640, Note_off_c, 2, 47, 95
3, 512640, Note_on_c, 2, 64, 95
3, 512640, Note_on_c, 2, 59, 95
3, 512640, Note_on_c, 2, 54, 95
3, 512640, Note_on_c, 2, 47, 95
3, 513120, Note_off_c, 2, 64, 95
3, 513120, Note_off_c, 2, 59, 95
3, 513120, Note_off_c, 2, 54, 95
3, 513120, Note_off_c, 2, 47, 95
3, 513120, Note_on_c, 2, 64, 95
3, 513120, Note_on_c, 2, 59, 95
3, 513120, Note_on_c, 2, 54, 95
3, 513120, Note_on_c, 2, 47, 95
3, 513600, Note_off_c, 2, 64, 95
3, 513600, Note_off_c, 2, 59, 95
3, 513600, Note_off_c, 2, 54, 95
3, 513600, Note_off_c, 2, 47, 95
3, 513600, Note_on_c, 2, 64, 95
3, 513600, Note_on_c, 2, 59, 95
3, 513600, Note_on_c, 2, 54, 95
3, 513600, Note_on_c, 2, 47, 95
3, 514080, Note_off_c, 2, 64, 95
3, 514080, Note_off_c, 2, 59, 95
3, 514080, Note_off_c, 2, 54, 95
3, 514080, Note_off_c, 2, 47, 95
3, 514080, Note_on_c, 2, 56, 95
3, 514080, Note_on_c, 2, 52, 95
3, 514080, Note_on_c, 2, 47, 95
3, 514080, Note_on_c, 2, 40, 95
3, 514139, Note_off_c, 2, 56, 95
3, 514139, Note_off_c, 2, 52, 95
3, 514139, Note_off_c, 2, 47, 95
3, 514139, Note_off_c, 2, 40, 95
3, 514560, Note_on_c, 2, 61, 95
3, 514560, Note_on_c, 2, 57, 95
3, 514560, Note_on_c, 2, 52, 95
3, 514560, Note_on_c, 2, 45, 95
3, 515040, Note_off_c, 2, 61, 95
3, 515040, Note_off_c, 2, 57, 95
3, 515040, Note_off_c, 2, 52, 95
3, 515040, Note_off_c, 2, 45, 95
3, 515040, Note_on_c, 2, 61, 95
3, 515040, Note_on_c, 2, 57, 95
3, 515040, Note_on_c, 2, 52, 95
3, 515040, Note_on_c, 2, 45, 95
3, 515520, Note_off_c, 2, 61, 95
3, 515520, Note_off_c, 2, 57, 95
3, 515520, Note_off_c, 2, 52, 95
3, 515520, Note_off_c, 2, 45, 95
3, 515520, Note_on_c, 2, 61, 95
3, 515520, Note_on_c, 2, 57, 95
3, 515520, Note_on_c, 2, 52, 95
3, 515520, Note_on_c, 2, 45, 95
3, 516240, Note_off_c, 2, 61, 95
3, 516240, Note_off_c, 2, 57, 95
3, 516240, Note_off_c, 2, 52, 95
3, 516240, Note_off_c, 2, 45, 95
3, 516240, Note_on_c, 2, 61, 95
3, 516240, Note_on_c, 2, 57, 95
3, 516240, Note_on_c, 2, 52, 95
3, 516240, Note_on_c, 2, 45, 95
3, 516480, Note_off_c, 2, 61, 95
3, 516480, Note_off_c, 2, 57, 95
3, 516480, Note_off_c, 2, 52, 95
3, 516480, Note_off_c, 2, 45, 95
3, 516480, Note_on_c, 2, 61, 95
3, 516480, Note_on_c, 2, 57, 95
3, 516480, Note_on_c, 2, 52, 95
3, 516480, Note_on_c, 2, 45, 95
3, 516960, Note_off_c, 2, 61, 95
3, 516960, Note_off_c, 2, 57, 95
3, 516960, Note_off_c, 2, 52, 95
3, 516960, Note_off_c, 2, 45, 95
3, 516960, Note_on_c, 2, 61, 95
3, 516960, Note_on_c, 2, 57, 95
3, 516960, Note_on_c, 2, 52, 95
3, 516960, Note_on_c, 2, 45, 95
3, 517440, Note_off_c, 2, 61, 95
3, 517440, Note_off_c, 2, 57, 95
3, 517440, Note_off_c, 2, 52, 95
3, 517440, Note_off_c, 2, 45, 95
3, 517440, Note_on_c, 2, 61, 95
3, 517440, Note_on_c, 2, 57, 95
3, 517440, Note_on_c, 2, 52, 95
3, 517440, Note_on_c, 2, 45, 95
3, 517920, Note_off_c, 2, 61, 95
3, 517920, Note_off_c, 2, 57, 95
3, 517920, Note_off_c, 2, 52, 95
3, 517920, Note_off_c, 2, 45, 95
3, 517920, Note_on_c, 2, 56, 95
3, 517920, Note_on_c, 2, 52, 95
3, 517920, Note_on_c, 2, 47, 95
3, 517920, Note_on_c, 2, 40, 95
3, 517979, Note_off_c, 2, 56, 95
3, 517979, Note_off_c, 2, 52, 95
3, 517979, Note_off_c, 2, 47, 95
3, 517979, Note_off_c, 2, 40, 95
3, 518400, Note_on_c, 2, 59, 95
3, 518400, Note_on_c, 2, 56, 95
3, 518400, Note_on_c, 2, 52, 95
3, 518400, Note_on_c, 2, 47, 95
3, 518880, Note_off_c, 2, 59, 95
3, 518880, Note_off_c, 2, 56, 95
3, 518880, Note_off_c, 2, 52, 95
3, 518880, Note_off_c, 2, 47, 95
3, 518880, Note_on_c, 2, 61, 95
3, 518880, Note_on_c, 2, 57, 95
3, 518880, Note_on_c, 2, 52, 95
3, 518880, Note_on_c, 2, 45, 95
3, 519360, Note_off_c, 2, 61, 95
3, 519360, Note_off_c, 2, 57, 95
3, 519360, Note_off_c, 2, 52, 95
3, 519360, Note_off_c, 2, 45, 95
3, 519360, Note_on_c, 2, 59, 95
3, 519360, Note_on_c, 2, 56, 95
3, 519360, Note_on_c, 2, 52, 95
3, 519360, Note_on_c, 2, 47, 95
3, 519840, Note_off_c, 2, 59, 95
3, 519840, Note_off_c, 2, 56, 95
3, 519840, Note_off_c, 2, 52, 95
3, 519840, Note_off_c, 2, 47, 95
3, 519840, Note_on_c, 2, 61, 95
3, 519840, Note_on_c, 2, 57, 95
3, 519840, Note_on_c, 2, 52, 95
3, 519840, Note_on_c, 2, 45, 95
3, 520320, Note_off_c, 2, 61, 95
3, 520320, Note_off_c, 2, 57, 95
3, 520320, Note_off_c, 2, 52, 95
3, 520320, Note_off_c, 2, 45, 95
3, 520320, Note_on_c, 2, 64, 95
3, 520320, Note_on_c, 2, 59, 95
3, 520320, Note_on_c, 2, 54, 95
3, 520320, Note_on_c, 2, 47, 95
3, 520800, Note_off_c, 2, 64, 95
3, 520800, Note_off_c, 2, 59, 95
3, 520800, Note_off_c, 2, 54, 95
3, 520800, Note_off_c, 2, 47, 95
3, 520800, Note_on_c, 2, 64, 95
3, 520800, Note_on_c, 2, 59, 95
3, 520800, Note_on_c, 2, 54, 95
3, 520800, Note_on_c, 2, 47, 95
3, 521280, Note_off_c, 2, 64, 95
3, 521280, Note_off_c, 2, 59, 95
3, 521280, Note_off_c, 2, 54, 95
3, 521280, Note_off_c, 2, 47, 95
3, 521280, Note_on_c, 2, 64, 95
3, 521280, Note_on_c, 2, 59, 95
3, 521280, Note_on_c, 2, 54, 95
3, 521280, Note_on_c, 2, 47, 95
3, 521760, Note_off_c, 2, 64, 95
3, 521760, Note_off_c, 2, 59, 95
3, 521760, Note_off_c, 2, 54, 95
3, 521760, Note_off_c, 2, 47, 95
3, 521760, Note_on_c, 2, 61, 95
3, 521760, Note_on_c, 2, 56, 95
3, 521760, Note_on_c, 2, 49, 95
3, 522240, Note_off_c, 2, 61, 95
3, 522240, Note_off_c, 2, 56, 95
3, 522240, Note_off_c, 2, 49, 95
3, 522240, Note_on_c, 2, 61, 95
3, 522240, Note_on_c, 2, 56, 95
3, 522240, Note_on_c, 2, 49, 95
3, 522720, Note_off_c, 2, 61, 95
3, 522720, Note_off_c, 2, 56, 95
3, 522720, Note_off_c, 2, 49, 95
3, 522720, Note_on_c, 2, 65, 95
3, 522720, Note_on_c, 2, 61, 95
3, 522720, Note_on_c, 2, 56, 95
3, 522720, Note_on_c, 2, 49, 95
3, 523200, Note_off_c, 2, 65, 95
3, 523200, Note_off_c, 2, 61, 95
3, 523200, Note_off_c, 2, 56, 95
3, 523200, Note_off_c, 2, 49, 95
3, 523200, Note_on_c, 2, 65, 95
3, 523200, Note_on_c, 2, 61, 95
3, 523200, Note_on_c, 2, 56, 95
3, 523200, Note_on_c, 2, 49, 95
3, 523920, Note_off_c, 2, 65, 95
3, 523920, Note_off_c, 2, 61, 95
3, 523920, Note_off_c, 2, 56, 95
3, 523920, Note_off_c, 2, 49, 95
3, 523920, Note_on_c, 2, 66, 95
3, 523920, Note_on_c, 2, 61, 95
3, 523920, Note_on_c, 2, 56, 95
3, 523920, Note_on_c, 2, 49, 95
3, 524160, Note_off_c, 2, 66, 95
3, 524160, Note_off_c, 2, 61, 95
3, 524160, Note_off_c, 2, 56, 95
3, 524160, Note_off_c, 2, 49, 95
3, 524160, Note_on_c, 2, 66, 95
3, 524160, Note_on_c, 2, 61, 95
3, 524160, Note_on_c, 2, 56, 95
3, 524160, Note_on_c, 2, 49, 95
3, 524640, Note_off_c, 2, 66, 95
3, 524640, Note_off_c, 2, 61, 95
3, 524640, Note_off_c, 2, 56, 95
3, 524640, Note_off_c, 2, 49, 95
3, 524640, Note_on_c, 2, 66, 95
3, 524640, Note_on_c, 2, 61, 95
3, 524640, Note_on_c, 2, 56, 95
3, 524640, Note_on_c, 2, 49, 95
3, 525120, Note_off_c, 2, 66, 95
3, 525120, Note_off_c, 2, 61, 95
3, 525120, Note_off_c, 2, 56, 95
3, 525120, Note_off_c, 2, 49, 95
3, 525120, Note_on_c, 2, 66, 95
3, 525120, Note_on_c, 2, 61, 95
3, 525120, Note_on_c, 2, 56, 95
3, 525120, Note_on_c, 2, 49, 95
3, 525600, Note_off_c, 2, 66, 95
3, 525600, Note_off_c, 2, 61, 95
3, 525600, Note_off_c, 2, 56, 95
3, 525600, Note_off_c, 2, 49, 95
3, 525600, Note_on_c, 2, 56, 95
3, 525600, Note_on_c, 2, 52, 95
3, 525600, Note_on_c, 2, 47, 95
3, 525600, Note_on_c, 2, 40, 95
3, 525659, Note_off_c, 2, 56, 95
3, 525659, Note_off_c, 2, 52, 95
3, 525659, Note_off_c, 2, 47, 95
3, 525659, Note_off_c, 2, 40, 95
3, 526080, Note_on_c, 2, 59, 95
3, 526080, Note_on_c, 2, 54, 95
3, 526080, Note_on_c, 2, 47, 95
3, 526560, Note_off_c, 2, 59, 95
3, 526560, Note_off_c, 2, 54, 95
3, 526560, Note_off_c, 2, 47, 95
3, 526560, Note_on_c, 2, 64, 95
3, 526560, Note_on_c, 2, 59, 95
3, 526560, Note_on_c, 2, 54, 95
3, 526560, Note_on_c, 2, 47, 95
3, 527040, Note_off_c, 2, 64, 95
3, 527040, Note_off_c, 2, 59, 95
3, 527040, Note_off_c, 2, 54, 95
3, 527040, Note_off_c, 2, 47, 95
3, 527040, Note_on_c, 2, 64, 95
3, 527040, Note_on_c, 2, 59, 95
3, 527040, Note_on_c, 2, 54, 95
3, 527040, Note_on_c, 2, 47, 95
3, 527760, Note_off_c, 2, 64, 95
3, 527760, Note_off_c, 2, 59, 95
3, 527760, Note_off_c, 2, 54, 95
3, 527760, Note_off_c, 2, 47, 95
3, 527760, Note_on_c, 2, 64, 95
3, 527760, Note_on_c, 2, 59, 95
3, 527760, Note_on_c, 2, 54, 95
3, 527760, Note_on_c, 2, 47, 95
3, 528000, Note_off_c, 2, 64, 95
3, 528000, Note_off_c, 2, 59, 95
3, 528000, Note_off_c, 2, 54, 95
3, 528000, Note_off_c, 2, 47, 95
3, 528000, Note_on_c, 2, 64, 95
3, 528000, Note_on_c, 2, 59, 95
3, 528000, Note_on_c, 2, 54, 95
3, 528000, Note_on_c, 2, 47, 95
3, 528480, Note_off_c, 2, 64, 95
3, 528480, Note_off_c, 2, 59, 95
3, 528480, Note_off_c, 2, 54, 95
3, 528480, Note_off_c, 2, 47, 95
3, 528480, Note_on_c, 2, 64, 95
3, 528480, Note_on_c, 2, 59, 95
3, 528480, Note_on_c, 2, 54, 95
3, 528480, Note_on_c, 2, 47, 95
3, 528960, Note_off_c, 2, 64, 95
3, 528960, Note_off_c, 2, 59, 95
3, 528960, Note_off_c, 2, 54, 95
3, 528960, Note_off_c, 2, 47, 95
3, 528960, Note_on_c, 2, 64, 95
3, 528960, Note_on_c, 2, 59, 95
3, 528960, Note_on_c, 2, 54, 95
3, 528960, Note_on_c, 2, 47, 95
3, 529440, Note_off_c, 2, 64, 95
3, 529440, Note_off_c, 2, 59, 95
3, 529440, Note_off_c, 2, 54, 95
3, 529440, Note_off_c, 2, 47, 95
3, 529440, Note_on_c, 2, 56, 95
3, 529440, Note_on_c, 2, 52, 95
3, 529440, Note_on_c, 2, 47, 95
3, 529440, Note_on_c, 2, 40, 95
3, 529499, Note_off_c, 2, 56, 95
3, 529499, Note_off_c, 2, 52, 95
3, 529499, Note_off_c, 2, 47, 95
3, 529499, Note_off_c, 2, 40, 95
3, 529920, Note_on_c, 2, 61, 95
3, 529920, Note_on_c, 2, 57, 95
3, 529920, Note_on_c, 2, 52, 95
3, 529920, Note_on_c, 2, 45, 95
3, 530400, Note_off_c, 2, 61, 95
3, 530400, Note_off_c, 2, 57, 95
3, 530400, Note_off_c, 2, 52, 95
3, 530400, Note_off_c, 2, 45, 95
3, 530400, Note_on_c, 2, 61, 95
3, 530400, Note_on_c, 2, 57, 95
3, 530400, Note_on_c, 2, 52, 95
3, 530400, Note_on_c, 2, 45, 95
3, 530880, Note_off_c, 2, 61, 95
3, 530880, Note_off_c, 2, 57, 95
3, 530880, Note_off_c, 2, 52, 95
3, 530880, Note_off_c, 2, 45, 95
3, 530880, Note_on_c, 2, 61, 95
3, 530880, Note_on_c, 2, 57, 95
3, 530880, Note_on_c, 2, 52, 95
3, 530880, Note_on_c, 2, 45, 95
3, 531600, Note_off_c, 2, 61, 95
3, 531600, Note_off_c, 2, 57, 95
3, 531600, Note_off_c, 2, 52, 95
3, 531600, Note_off_c, 2, 45, 95
3, 531600, Note_on_c, 2, 61, 95
3, 531600, Note_on_c, 2, 57, 95
3, 531600, Note_on_c, 2, 52, 95
3, 531600, Note_on_c, 2, 45, 95
3, 531840, Note_off_c, 2, 61, 95
3, 531840, Note_off_c, 2, 57, 95
3, 531840, Note_off_c, 2, 52, 95
3, 531840, Note_off_c, 2, 45, 95
3, 531840, Note_on_c, 2, 61, 95
3, 531840, Note_on_c, 2, 57, 95
3, 531840, Note_on_c, 2, 52, 95
3, 531840, Note_on_c, 2, 45, 95
3, 532320, Note_off_c, 2, 61, 95
3, 532320, Note_off_c, 2, 57, 95
3, 532320, Note_off_c, 2, 52, 95
3, 532320, Note_off_c, 2, 45, 95
3, 532320, Note_on_c, 2, 61, 95
3, 532320, Note_on_c, 2, 57, 95
3, 532320, Note_on_c, 2, 52, 95
3, 532320, Note_on_c, 2, 45, 95
3, 532800, Note_off_c, 2, 61, 95
3, 532800, Note_off_c, 2, 57, 95
3, 532800, Note_off_c, 2, 52, 95
3, 532800, Note_off_c, 2, 45, 95
3, 532800, Note_on_c, 2, 61, 95
3, 532800, Note_on_c, 2, 57, 95
3, 532800, Note_on_c, 2, 52, 95
3, 532800, Note_on_c, 2, 45, 95
3, 533280, Note_off_c, 2, 61, 95
3, 533280, Note_off_c, 2, 57, 95
3, 533280, Note_off_c, 2, 52, 95
3, 533280, Note_off_c, 2, 45, 95
3, 533280, Note_on_c, 2, 56, 95
3, 533280, Note_on_c, 2, 52, 95
3, 533280, Note_on_c, 2, 47, 95
3, 533280, Note_on_c, 2, 40, 95
3, 533339, Note_off_c, 2, 56, 95
3, 533339, Note_off_c, 2, 52, 95
3, 533339, Note_off_c, 2, 47, 95
3, 533339, Note_off_c, 2, 40, 95
3, 533760, Note_on_c, 2, 59, 95
3, 533760, Note_on_c, 2, 56, 95
3, 533760, Note_on_c, 2, 52, 95
3, 533760, Note_on_c, 2, 47, 95
3, 534240, Note_off_c, 2, 59, 95
3, 534240, Note_off_c, 2, 56, 95
3, 534240, Note_off_c, 2, 52, 95
3, 534240, Note_off_c, 2, 47, 95
3, 534240, Note_on_c, 2, 61, 95
3, 534240, Note_on_c, 2, 57, 95
3, 534240, Note_on_c, 2, 52, 95
3, 534240, Note_on_c, 2, 45, 95
3, 534720, Note_off_c, 2, 61, 95
3, 534720, Note_off_c, 2, 57, 95
3, 534720, Note_off_c, 2, 52, 95
3, 534720, Note_off_c, 2, 45, 95
3, 534720, Note_on_c, 2, 59, 95
3, 534720, Note_on_c, 2, 56, 95
3, 534720, Note_on_c, 2, 52, 95
3, 534720, Note_on_c, 2, 47, 95
3, 535200, Note_off_c, 2, 59, 95
3, 535200, Note_off_c, 2, 56, 95
3, 535200, Note_off_c, 2, 52, 95
3, 535200, Note_off_c, 2, 47, 95
3, 535200, Note_on_c, 2, 61, 95
3, 535200, Note_on_c, 2, 57, 95
3, 535200, Note_on_c, 2, 52, 95
3, 535200, Note_on_c, 2, 45, 95
3, 535680, Note_off_c, 2, 61, 95
3, 535680, Note_off_c, 2, 57, 95
3, 535680, Note_off_c, 2, 52, 95
3, 535680, Note_off_c, 2, 45, 95
3, 535680, Note_on_c, 2, 64, 95
3, 535680, Note_on_c, 2, 59, 95
3, 535680, Note_on_c, 2, 54, 95
3, 535680, Note_on_c, 2, 47, 95
3, 536160, Note_off_c, 2, 64, 95
3, 536160, Note_off_c, 2, 59, 95
3, 536160, Note_off_c, 2, 54, 95
3, 536160, Note_off_c, 2, 47, 95
3, 536160, Note_on_c, 2, 64, 95
3, 536160, Note_on_c, 2, 59, 95
3, 536160, Note_on_c, 2, 54, 95
3, 536160, Note_on_c, 2, 47, 95
3, 536640, Note_off_c, 2, 64, 95
3, 536640, Note_off_c, 2, 59, 95
3, 536640, Note_off_c, 2, 54, 95
3, 536640, Note_off_c, 2, 47, 95
3, 536640, Note_on_c, 2, 64, 95
3, 536640, Note_on_c, 2, 59, 95
3, 536640, Note_on_c, 2, 54, 95
3, 536640, Note_on_c, 2, 47, 95
3, 537120, Note_off_c, 2, 64, 95
3, 537120, Note_off_c, 2, 59, 95
3, 537120, Note_off_c, 2, 54, 95
3, 537120, Note_off_c, 2, 47, 95
3, 537120, Note_on_c, 2, 61, 95
3, 537120, Note_on_c, 2, 56, 95
3, 537120, Note_on_c, 2, 49, 95
3, 537600, Note_off_c, 2, 61, 95
3, 537600, Note_off_c, 2, 56, 95
3, 537600, Note_off_c, 2, 49, 95
3, 537600, Note_on_c, 2, 61, 95
3, 537600, Note_on_c, 2, 56, 95
3, 537600, Note_on_c, 2, 49, 95
3, 538080, Note_off_c, 2, 61, 95
3, 538080, Note_off_c, 2, 56, 95
3, 538080, Note_off_c, 2, 49, 95
3, 538080, Note_on_c, 2, 65, 95
3, 538080, Note_on_c, 2, 61, 95
3, 538080, Note_on_c, 2, 56, 95
3, 538080, Note_on_c, 2, 49, 95
3, 538560, Note_off_c, 2, 65, 95
3, 538560, Note_off_c, 2, 61, 95
3, 538560, Note_off_c, 2, 56, 95
3, 538560, Note_off_c, 2, 49, 95
3, 538560, Note_on_c, 2, 65, 95
3, 538560, Note_on_c, 2, 61, 95
3, 538560, Note_on_c, 2, 56, 95
3, 538560, Note_on_c, 2, 49, 95
3, 539280, Note_off_c, 2, 65, 95
3, 539280, Note_off_c, 2, 61, 95
3, 539280, Note_off_c, 2, 56, 95
3, 539280, Note_off_c, 2, 49, 95
3, 539280, Note_on_c, 2, 66, 95
3, 539280, Note_on_c, 2, 61, 95
3, 539280, Note_on_c, 2, 56, 95
3, 539280, Note_on_c, 2, 49, 95
3, 539520, Note_off_c, 2, 66, 95
3, 539520, Note_off_c, 2, 61, 95
3, 539520, Note_off_c, 2, 56, 95
3, 539520, Note_off_c, 2, 49, 95
3, 539520, Note_on_c, 2, 66, 95
3, 539520, Note_on_c, 2, 61, 95
3, 539520, Note_on_c, 2, 56, 95
3, 539520, Note_on_c, 2, 49, 95
3, 540000, Note_off_c, 2, 66, 95
3, 540000, Note_off_c, 2, 61, 95
3, 540000, Note_off_c, 2, 56, 95
3, 540000, Note_off_c, 2, 49, 95
3, 540000, Note_on_c, 2, 66, 95
3, 540000, Note_on_c, 2, 61, 95
3, 540000, Note_on_c, 2, 56, 95
3, 540000, Note_on_c, 2, 49, 95
3, 540480, Note_off_c, 2, 66, 95
3, 540480, Note_off_c, 2, 61, 95
3, 540480, Note_off_c, 2, 56, 95
3, 540480, Note_off_c, 2, 49, 95
3, 540480, Note_on_c, 2, 66, 95
3, 540480, Note_on_c, 2, 61, 95
3, 540480, Note_on_c, 2, 56, 95
3, 540480, Note_on_c, 2, 49, 95
3, 540960, Note_off_c, 2, 66, 95
3, 540960, Note_off_c, 2, 61, 95
3, 540960, Note_off_c, 2, 56, 95
3, 540960, Note_off_c, 2, 49, 95
3, 540960, Note_on_c, 2, 56, 95
3, 540960, Note_on_c, 2, 52, 95
3, 540960, Note_on_c, 2, 47, 95
3, 540960, Note_on_c, 2, 40, 95
3, 541019, Note_off_c, 2, 56, 95
3, 541019, Note_off_c, 2, 52, 95
3, 541019, Note_off_c, 2, 47, 95
3, 541019, Note_off_c, 2, 40, 95
3, 541440, Note_on_c, 2, 59, 95
3, 541440, Note_on_c, 2, 54, 95
3, 541440, Note_on_c, 2, 47, 95
3, 541920, Note_off_c, 2, 59, 95
3, 541920, Note_off_c, 2, 54, 95
3, 541920, Note_off_c, 2, 47, 95
3, 541920, Note_on_c, 2, 64, 95
3, 541920, Note_on_c, 2, 59, 95
3, 541920, Note_on_c, 2, 54, 95
3, 541920, Note_on_c, 2, 47, 95
3, 542400, Note_off_c, 2, 64, 95
3, 542400, Note_off_c, 2, 59, 95
3, 542400, Note_off_c, 2, 54, 95
3, 542400, Note_off_c, 2, 47, 95
3, 542400, Note_on_c, 2, 64, 95
3, 542400, Note_on_c, 2, 59, 95
3, 542400, Note_on_c, 2, 54, 95
3, 542400, Note_on_c, 2, 47, 95
3, 543120, Note_off_c, 2, 64, 95
3, 543120, Note_off_c, 2, 59, 95
3, 543120, Note_off_c, 2, 54, 95
3, 543120, Note_off_c, 2, 47, 95
3, 543120, Note_on_c, 2, 64, 95
3, 543120, Note_on_c, 2, 59, 95
3, 543120, Note_on_c, 2, 54, 95
3, 543120, Note_on_c, 2, 47, 95
3, 543360, Note_off_c, 2, 64, 95
3, 543360, Note_off_c, 2, 59, 95
3, 543360, Note_off_c, 2, 54, 95
3, 543360, Note_off_c, 2, 47, 95
3, 543360, Note_on_c, 2, 64, 95
3, 543360, Note_on_c, 2, 59, 95
3, 543360, Note_on_c, 2, 54, 95
3, 543360, Note_on_c, 2, 47, 95
3, 543840, Note_off_c, 2, 64, 95
3, 543840, Note_off_c, 2, 59, 95
3, 543840, Note_off_c, 2, 54, 95
3, 543840, Note_off_c, 2, 47, 95
3, 543840, Note_on_c, 2, 64, 95
3, 543840, Note_on_c, 2, 59, 95
3, 543840, Note_on_c, 2, 54, 95
3, 543840, Note_on_c, 2, 47, 95
3, 544320, Note_off_c, 2, 64, 95
3, 544320, Note_off_c, 2, 59, 95
3, 544320, Note_off_c, 2, 54, 95
3, 544320, Note_off_c, 2, 47, 95
3, 544320, Note_on_c, 2, 64, 95
3, 544320, Note_on_c, 2, 59, 95
3, 544320, Note_on_c, 2, 54, 95
3, 544320, Note_on_c, 2, 47, 95
3, 544800, Note_off_c, 2, 64, 95
3, 544800, Note_off_c, 2, 59, 95
3, 544800, Note_off_c, 2, 54, 95
3, 544800, Note_off_c, 2, 47, 95
3, 544800, Note_on_c, 2, 56, 95
3, 544800, Note_on_c, 2, 52, 95
3, 544800, Note_on_c, 2, 47, 95
3, 544800, Note_on_c, 2, 40, 95
3, 544859, Note_off_c, 2, 56, 95
3, 544859, Note_off_c, 2, 52, 95
3, 544859, Note_off_c, 2, 47, 95
3, 544859, Note_off_c, 2, 40, 95
3, 545280, Note_on_c, 2, 61, 95
3, 545280, Note_on_c, 2, 57, 95
3, 545280, Note_on_c, 2, 52, 95
3, 545280, Note_on_c, 2, 45, 95
3, 545760, Note_off_c, 2, 61, 95
3, 545760, Note_off_c, 2, 57, 95
3, 545760, Note_off_c, 2, 52, 95
3, 545760, Note_off_c, 2, 45, 95
3, 545760, Note_on_c, 2, 61, 95
3, 545760, Note_on_c, 2, 57, 95
3, 545760, Note_on_c, 2, 52, 95
3, 545760, Note_on_c, 2, 45, 95
3, 546240, Note_off_c, 2, 61, 95
3, 546240, Note_off_c, 2, 57, 95
3, 546240, Note_off_c, 2, 52, 95
3, 546240, Note_off_c, 2, 45, 95
3, 546240, Note_on_c, 2, 61, 95
3, 546240, Note_on_c, 2, 57, 95
3, 546240, Note_on_c, 2, 52, 95
3, 546240, Note_on_c, 2, 45, 95
3, 546960, Note_off_c, 2, 61, 95
3, 546960, Note_off_c, 2, 57, 95
3, 546960, Note_off_c, 2, 52, 95
3, 546960, Note_off_c, 2, 45, 95
3, 546960, Note_on_c, 2, 61, 95
3, 546960, Note_on_c, 2, 57, 95
3, 546960, Note_on_c, 2, 52, 95
3, 546960, Note_on_c, 2, 45, 95
3, 547200, Note_off_c, 2, 61, 95
3, 547200, Note_off_c, 2, 57, 95
3, 547200, Note_off_c, 2, 52, 95
3, 547200, Note_off_c, 2, 45, 95
3, 547200, Note_on_c, 2, 61, 95
3, 547200, Note_on_c, 2, 57, 95
3, 547200, Note_on_c, 2, 52, 95
3, 547200, Note_on_c, 2, 45, 95
3, 547680, Note_off_c, 2, 61, 95
3, 547680, Note_off_c, 2, 57, 95
3, 547680, Note_off_c, 2, 52, 95
3, 547680, Note_off_c, 2, 45, 95
3, 547680, Note_on_c, 2, 61, 95
3, 547680, Note_on_c, 2, 57, 95
3, 547680, Note_on_c, 2, 52, 95
3, 547680, Note_on_c, 2, 45, 95
3, 548160, Note_off_c, 2, 61, 95
3, 548160, Note_off_c, 2, 57, 95
3, 548160, Note_off_c, 2, 52, 95
3, 548160, Note_off_c, 2, 45, 95
3, 548160, Note_on_c, 2, 61, 95
3, 548160, Note_on_c, 2, 57, 95
3, 548160, Note_on_c, 2, 52, 95
3, 548160, Note_on_c, 2, 45, 95
3, 548640, Note_off_c, 2, 61, 95
3, 548640, Note_off_c, 2, 57, 95
3, 548640, Note_off_c, 2, 52, 95
3, 548640, Note_off_c, 2, 45, 95
3, 548640, Note_on_c, 2, 56, 95
3, 548640, Note_on_c, 2, 52, 95
3, 548640, Note_on_c, 2, 47, 95
3, 548640, Note_on_c, 2, 40, 95
3, 548699, Note_off_c, 2, 56, 95
3, 548699, Note_off_c, 2, 52, 95
3, 548699, Note_off_c, 2, 47, 95
3, 548699, Note_off_c, 2, 40, 95
3, 549120, Note_on_c, 2, 59, 95
3, 549120, Note_on_c, 2, 56, 95
3, 549120, Note_on_c, 2, 52, 95
3, 549120, Note_on_c, 2, 47, 95
3, 549600, Note_off_c, 2, 59, 95
3, 549600, Note_off_c, 2, 56, 95
3, 549600, Note_off_c, 2, 52, 95
3, 549600, Note_off_c, 2, 47, 95
3, 549600, Note_on_c, 2, 61, 95
3, 549600, Note_on_c, 2, 57, 95
3, 549600, Note_on_c, 2, 52, 95
3, 549600, Note_on_c, 2, 45, 95
3, 550080, Note_off_c, 2, 61, 95
3, 550080, Note_off_c, 2, 57, 95
3, 550080, Note_off_c, 2, 52, 95
3, 550080, Note_off_c, 2, 45, 95
3, 550080, Note_on_c, 2, 59, 95
3, 550080, Note_on_c, 2, 56, 95
3, 550080, Note_on_c, 2, 52, 95
3, 550080, Note_on_c, 2, 47, 95
3, 550560, Note_off_c, 2, 59, 95
3, 550560, Note_off_c, 2, 56, 95
3, 550560, Note_off_c, 2, 52, 95
3, 550560, Note_off_c, 2, 47, 95
3, 550560, Note_on_c, 2, 61, 95
3, 550560, Note_on_c, 2, 57, 95
3, 550560, Note_on_c, 2, 52, 95
3, 550560, Note_on_c, 2, 45, 95
3, 551040, Note_off_c, 2, 61, 95
3, 551040, Note_off_c, 2, 57, 95
3, 551040, Note_off_c, 2, 52, 95
3, 551040, Note_off_c, 2, 45, 95
3, 551040, Note_on_c, 2, 64, 95
3, 551040, Note_on_c, 2, 59, 95
3, 551040, Note_on_c, 2, 54, 95
3, 551040, Note_on_c, 2, 47, 95
3, 551520, Note_off_c, 2, 64, 95
3, 551520, Note_off_c, 2, 59, 95
3, 551520, Note_off_c, 2, 54, 95
3, 551520, Note_off_c, 2, 47, 95
3, 551520, Note_on_c, 2, 64, 95
3, 551520, Note_on_c, 2, 59, 95
3, 551520, Note_on_c, 2, 54, 95
3, 551520, Note_on_c, 2, 47, 95
3, 552000, Note_off_c, 2, 64, 95
3, 552000, Note_off_c, 2, 59, 95
3, 552000, Note_off_c, 2, 54, 95
3, 552000, Note_off_c, 2, 47, 95
3, 552000, Note_on_c, 2, 64, 95
3, 552000, Note_on_c, 2, 59, 95
3, 552000, Note_on_c, 2, 54, 95
3, 552000, Note_on_c, 2, 47, 95
3, 552480, Note_off_c, 2, 64, 95
3, 552480, Note_off_c, 2, 59, 95
3, 552480, Note_off_c, 2, 54, 95
3, 552480, Note_off_c, 2, 47, 95
3, 552480, Note_on_c, 2, 61, 95
3, 552480, Note_on_c, 2, 56, 95
3, 552480, Note_on_c, 2, 49, 95
3, 552960, Note_off_c, 2, 61, 95
3, 552960, Note_off_c, 2, 56, 95
3, 552960, Note_off_c, 2, 49, 95
3, 552960, Note_on_c, 2, 61, 95
3, 552960, Note_on_c, 2, 56, 95
3, 552960, Note_on_c, 2, 49, 95
3, 556800, Note_off_c, 2, 61, 95
3, 556800, Note_off_c, 2, 56, 95
3, 556800, Note_off_c, 2, 49, 95
3, 556800, End_track
4, 0, Start_track
4, 0, Pitch_bend_c, 6, 8192
4, 0, Control_c, 6, 7, 63
4, 0, Control_c, 6, 10, 127
4, 0, Control_c, 6, 93, 87
4, 0, Control_c, 6, 91, 87
4, 0, Control_c, 6, 95, 0
4, 0, Control_c, 6, 92, 0
4, 0, Control_c, 6, 11, 127
4, 0, Program_c, 6, 26
4, 0, Control_c, 7, 7, 63
4, 0, Control_c, 7, 10, 127
4, 0, Control_c, 7, 93, 87
4, 0, Control_c, 7, 91, 87
4, 0, Control_c, 7, 95, 0
4, 0, Control_c, 7, 92, 0
4, 0, Control_c, 7, 11, 127
4, 0, Program_c, 7, 26
4, 0, Note_on_c, 6, 56, 95
4, 480, Note_off_c, 6, 56, 95
4, 480, Note_on_c, 6, 61, 95
4, 960, Note_off_c, 6, 61, 95
4, 960, Note_on_c, 6, 66, 95
4, 960, Note_on_c, 6, 63, 95
4, 1440, Note_off_c, 6, 66, 95
4, 1440, Note_off_c, 6, 63, 95
4, 1440, Note_on_c, 6, 63, 95
4, 1920, Note_off_c, 6, 63, 95
4, 1920, Note_on_c, 6, 66, 95
4, 1920, Note_on_c, 6, 63, 95
4, 2400, Note_off_c, 6, 66, 95
4, 2400, Note_off_c, 6, 63, 95
4, 2400, Note_on_c, 6, 56, 95
4, 2880, Note_off_c, 6, 56, 95
4, 2880, Note_on_c, 6, 66, 95
4, 2880, Note_on_c, 6, 61, 95
4, 3360, Note_off_c, 6, 66, 95
4, 3360, Note_off_c, 6, 61, 95
4, 3360, Note_on_c, 6, 66, 95
4, 3360, Note_on_c, 6, 61, 95
4, 3840, Note_off_c, 6, 66, 95
4, 3840, Note_off_c, 6, 61, 95
4, 3840, Note_on_c, 6, 54, 95
4, 4320, Note_off_c, 6, 54, 95
4, 4320, Note_on_c, 6, 63, 95
4, 4320, Note_on_c, 6, 59, 95
4, 4800, Note_off_c, 6, 63, 95
4, 4800, Note_off_c, 6, 59, 95
4, 4800, Note_on_c, 6, 64, 95
4, 4800, Note_on_c, 6, 61, 95
4, 5280, Note_off_c, 6, 64, 95
4, 5280, Note_off_c, 6, 61, 95
4, 5280, Note_on_c, 6, 54, 95
4, 5760, Note_off_c, 6, 54, 95
4, 5760, Note_on_c, 6, 64, 95
4, 5760, Note_on_c, 6, 61, 95
4, 6240, Note_off_c, 6, 64, 95
4, 6240, Note_off_c, 6, 61, 95
4, 6240, Note_on_c, 6, 54, 95
4, 6720, Note_off_c, 6, 54, 95
4, 6720, Note_on_c, 6, 64, 95
4, 6720, Note_on_c, 6, 61, 95
4, 7200, Note_off_c, 6, 64, 95
4, 7200, Note_off_c, 6, 61, 95
4, 7200, Note_on_c, 6, 64, 95
4, 7200, Note_on_c, 6, 59, 95
4, 7680, Note_off_c, 6, 64, 95
4, 7680, Note_off_c, 6, 59, 95
4, 7680, Note_on_c, 6, 57, 95
4, 7680, Note_on_c, 6, 52, 95
4, 8160, Note_off_c, 6, 57, 95
4, 8160, Note_off_c, 6, 52, 95
4, 8160, Note_on_c, 6, 57, 95
4, 8640, Note_off_c, 6, 57, 95
4, 8640, Note_on_c, 6, 63, 95
4, 8640, Note_on_c, 6, 59, 95
4, 9120, Note_off_c, 6, 63, 95
4, 9120, Note_off_c, 6, 59, 95
4, 9120, Note_on_c, 6, 57, 95
4, 9600, Note_off_c, 6, 57, 95
4, 9600, Note_on_c, 6, 52, 95
4, 10080, Note_off_c, 6, 52, 95
4, 10080, Note_on_c, 6, 63, 95
4, 10080, Note_on_c, 6, 59, 95
4, 10560, Note_off_c, 6, 63, 95
4, 10560, Note_off_c, 6, 59, 95
4, 10560, Note_on_c, 6, 61, 95
4, 10560, Note_on_c, 6, 57, 95
4, 11040, Note_off_c, 6, 61, 95
4, 11040, Note_off_c, 6, 57, 95
4, 11040, Note_on_c, 6, 52, 95
4, 11520, Note_off_c, 6, 52, 95
4, 11520, Note_on_c, 6, 63, 95
4, 11520, Note_on_c, 6, 59, 95
4, 12000, Note_off_c, 6, 63, 95
4, 12000, Note_off_c, 6, 59, 95
4, 12000, Note_on_c, 6, 61, 95
4, 12000, Note_on_c, 6, 57, 95
4, 12480, Note_off_c, 6, 61, 95
4, 12480, Note_off_c, 6, 57, 95
4, 12480, Note_on_c, 6, 52, 95
4, 12960, Note_off_c, 6, 52, 95
4, 12960, Note_on_c, 6, 61, 95
4, 12960, Note_on_c, 6, 57, 95
4, 13440, Note_off_c, 6, 61, 95
4, 13440, Note_off_c, 6, 57, 95
4, 13440, Note_on_c, 6, 64, 95
4, 13440, Note_on_c, 6, 61, 95
4, 13920, Note_off_c, 6, 64, 95
4, 13920, Note_off_c, 6, 61, 95
4, 13920, Note_on_c, 6, 64, 95
4, 13920, Note_on_c, 6, 61, 95
4, 14400, Note_off_c, 6, 64, 95
4, 14400, Note_off_c, 6, 61, 95
4, 14400, Note_on_c, 6, 63, 95
4, 14400, Note_on_c, 6, 59, 95
4, 14880, Note_off_c, 6, 63, 95
4, 14880, Note_off_c, 6, 59, 95
4, 14880, Note_on_c, 6, 59, 95
4, 14880, Note_on_c, 6, 54, 95
4, 15360, Note_off_c, 6, 59, 95
4, 15360, Note_off_c, 6, 54, 95
4, 15360, Note_on_c, 6, 56, 95
4, 15840, Note_off_c, 6, 56, 95
4, 15840, Note_on_c, 6, 65, 95
4, 15840, Note_on_c, 6, 61, 95
4, 16320, Note_off_c, 6, 65, 95
4, 16320, Note_off_c, 6, 61, 95
4, 16320, Note_on_c, 6, 66, 95
4, 16320, Note_on_c, 6, 63, 95
4, 16800, Note_off_c, 6, 66, 95
4, 16800, Note_off_c, 6, 63, 95
4, 16800, Note_on_c, 6, 66, 95
4, 17280, Note_off_c, 6, 66, 95
4, 17280, Note_on_c, 6, 66, 95
4, 17280, Note_on_c, 6, 63, 95
4, 17760, Note_off_c, 6, 66, 95
4, 17760, Note_off_c, 6, 63, 95
4, 17760, Note_on_c, 6, 66, 95
4, 17760, Note_on_c, 6, 61, 95
4, 18240, Note_off_c, 6, 66, 95
4, 18240, Note_off_c, 6, 61, 95
4, 18240, Note_on_c, 6, 66, 95
4, 18240, Note_on_c, 6, 61, 95
4, 18720, Note_off_c, 6, 66, 95
4, 18720, Note_off_c, 6, 61, 95
4, 18720, Note_on_c, 6, 65, 95
4, 18720, Note_on_c, 6, 61, 95
4, 19200, Note_off_c, 6, 65, 95
4, 19200, Note_off_c, 6, 61, 95
4, 19200, Note_on_c, 6, 54, 95
4, 19680, Note_off_c, 6, 54, 95
4, 19680, Note_on_c, 6, 64, 95
4, 19680, Note_on_c, 6, 59, 95
4, 20160, Note_off_c, 6, 64, 95
4, 20160, Note_off_c, 6, 59, 95
4, 20160, Note_on_c, 6, 61, 95
4, 20640, Note_off_c, 6, 61, 95
4, 20640, Note_on_c, 6, 61, 95
4, 21120, Note_off_c, 6, 61, 95
4, 21120, Note_on_c, 6, 64, 95
4, 21120, Note_on_c, 6, 61, 95
4, 21600, Note_off_c, 6, 64, 95
4, 21600, Note_off_c, 6, 61, 95
4, 21600, Note_on_c, 6, 64, 95
4, 21600, Note_on_c, 6, 61, 95
4, 22080, Note_off_c, 6, 64, 95
4, 22080, Note_off_c, 6, 61, 95
4, 22080, Note_on_c, 6, 64, 95
4, 22080, Note_on_c, 6, 61, 95
4, 22560, Note_off_c, 6, 64, 95
4, 22560, Note_off_c, 6, 61, 95
4, 22560, Note_on_c, 6, 64, 95
4, 22560, Note_on_c, 6, 59, 95
4, 23040, Note_off_c, 6, 64, 95
4, 23040, Note_off_c, 6, 59, 95
4, 23040, Note_on_c, 6, 52, 95
4, 23520, Note_off_c, 6, 52, 95
4, 23520, Note_on_c, 6, 61, 95
4, 23520, Note_on_c, 6, 57, 95
4, 24000, Note_off_c, 6, 61, 95
4, 24000, Note_off_c, 6, 57, 95
4, 24000, Note_on_c, 6, 63, 95
4, 24000, Note_on_c, 6, 59, 95
4, 24480, Note_off_c, 6, 63, 95
4, 24480, Note_off_c, 6, 59, 95
4, 24480, Note_on_c, 6, 61, 95
4, 24480, Note_on_c, 6, 57, 95
4, 24960, Note_off_c, 6, 61, 95
4, 24960, Note_off_c, 6, 57, 95
4, 24960, Note_on_c, 6, 52, 95
4, 25440, Note_off_c, 6, 52, 95
4, 25440, Note_on_c, 6, 63, 95
4, 25440, Note_on_c, 6, 59, 95
4, 25920, Note_off_c, 6, 63, 95
4, 25920, Note_off_c, 6, 59, 95
4, 25920, Note_on_c, 6, 61, 95
4, 25920, Note_on_c, 6, 57, 95
4, 26400, Note_off_c, 6, 61, 95
4, 26400, Note_off_c, 6, 57, 95
4, 26400, Note_on_c, 6, 52, 95
4, 26880, Note_off_c, 6, 52, 95
4, 26880, Note_on_c, 6, 63, 95
4, 26880, Note_on_c, 6, 59, 95
4, 27360, Note_off_c, 6, 63, 95
4, 27360, Note_off_c, 6, 59, 95
4, 27360, Note_on_c, 6, 61, 95
4, 27360, Note_on_c, 6, 57, 95
4, 27840, Note_off_c, 6, 61, 95
4, 27840, Note_off_c, 6, 57, 95
4, 27840, Note_on_c, 6, 52, 95
4, 28320, Note_off_c, 6, 52, 95
4, 28320, Note_on_c, 6, 61, 95
4, 28320, Note_on_c, 6, 57, 95
4, 28800, Note_off_c, 6, 61, 95
4, 28800, Note_off_c, 6, 57, 95
4, 28800, Note_on_c, 6, 64, 95
4, 28800, Note_on_c, 6, 61, 95
4, 29280, Note_off_c, 6, 64, 95
4, 29280, Note_off_c, 6, 61, 95
4, 29280, Note_on_c, 6, 64, 95
4, 29280, Note_on_c, 6, 61, 95
4, 29760, Note_off_c, 6, 64, 95
4, 29760, Note_off_c, 6, 61, 95
4, 29760, Note_on_c, 6, 63, 95
4, 29760, Note_on_c, 6, 59, 95
4, 30240, Note_off_c, 6, 63, 95
4, 30240, Note_off_c, 6, 59, 95
4, 30240, Note_on_c, 6, 59, 95
4, 30240, Note_on_c, 6, 54, 95
4, 30720, Note_off_c, 6, 59, 95
4, 30720, Note_off_c, 6, 54, 95
4, 30720, Note_on_c, 6, 56, 95
4, 31200, Note_off_c, 6, 56, 95
4, 31200, Note_on_c, 6, 65, 95
4, 31200, Note_on_c, 6, 61, 95
4, 31680, Note_off_c, 6, 65, 95
4, 31680, Note_off_c, 6, 61, 95
4, 31680, Note_on_c, 6, 66, 95
4, 31680, Note_on_c, 6, 63, 95
4, 32160, Note_off_c, 6, 66, 95
4, 32160, Note_off_c, 6, 63, 95
4, 32160, Note_on_c, 6, 56, 95
4, 32640, Note_off_c, 6, 56, 95
4, 32640, Note_on_c, 6, 66, 95
4, 32640, Note_on_c, 6, 63, 95
4, 33120, Note_off_c, 6, 66, 95
4, 33120, Note_off_c, 6, 63, 95
4, 33120, Note_on_c, 6, 66, 95
4, 33120, Note_on_c, 6, 61, 95
4, 33600, Note_off_c, 6, 66, 95
4, 33600, Note_off_c, 6, 61, 95
4, 33600, Note_on_c, 6, 66, 95
4, 33600, Note_on_c, 6, 61, 95
4, 34080, Note_off_c, 6, 66, 95
4, 34080, Note_off_c, 6, 61, 95
4, 34080, Note_on_c, 6, 65, 95
4, 34080, Note_on_c, 6, 61, 95
4, 34560, Note_off_c, 6, 65, 95
4, 34560, Note_off_c, 6, 61, 95
4, 34560, Note_on_c, 6, 54, 95
4, 35040, Note_off_c, 6, 54, 95
4, 35040, Note_on_c, 6, 63, 95
4, 35040, Note_on_c, 6, 59, 95
4, 35520, Note_off_c, 6, 63, 95
4, 35520, Note_off_c, 6, 59, 95
4, 35520, Note_on_c, 6, 64, 95
4, 35520, Note_on_c, 6, 61, 95
4, 36000, Note_off_c, 6, 64, 95
4, 36000, Note_off_c, 6, 61, 95
4, 36000, Note_on_c, 6, 54, 95
4, 36480, Note_off_c, 6, 54, 95
4, 36480, Note_on_c, 6, 64, 95
4, 36480, Note_on_c, 6, 61, 95
4, 36960, Note_off_c, 6, 64, 95
4, 36960, Note_off_c, 6, 61, 95
4, 36960, Note_on_c, 6, 64, 95
4, 36960, Note_on_c, 6, 61, 95
4, 37440, Note_off_c, 6, 64, 95
4, 37440, Note_off_c, 6, 61, 95
4, 37440, Note_on_c, 6, 64, 95
4, 37440, Note_on_c, 6, 61, 95
4, 37920, Note_off_c, 6, 64, 95
4, 37920, Note_off_c, 6, 61, 95
4, 37920, Note_on_c, 6, 64, 95
4, 37920, Note_on_c, 6, 59, 95
4, 38400, Note_off_c, 6, 64, 95
4, 38400, Note_off_c, 6, 59, 95
4, 38400, Note_on_c, 6, 52, 95
4, 38880, Note_off_c, 6, 52, 95
4, 38880, Note_on_c, 6, 61, 95
4, 38880, Note_on_c, 6, 57, 95
4, 39360, Note_off_c, 6, 61, 95
4, 39360, Note_off_c, 6, 57, 95
4, 39360, Note_on_c, 6, 63, 95
4, 39360, Note_on_c, 6, 59, 95
4, 39840, Note_off_c, 6, 63, 95
4, 39840, Note_off_c, 6, 59, 95
4, 39840, Note_on_c, 6, 61, 95
4, 39840, Note_on_c, 6, 57, 95
4, 40320, Note_off_c, 6, 61, 95
4, 40320, Note_off_c, 6, 57, 95
4, 40320, Note_on_c, 6, 52, 95
4, 40800, Note_off_c, 6, 52, 95
4, 40800, Note_on_c, 6, 63, 95
4, 40800, Note_on_c, 6, 59, 95
4, 41280, Note_off_c, 6, 63, 95
4, 41280, Note_off_c, 6, 59, 95
4, 41280, Note_on_c, 6, 61, 95
4, 41280, Note_on_c, 6, 57, 95
4, 41760, Note_off_c, 6, 61, 95
4, 41760, Note_off_c, 6, 57, 95
4, 41760, Note_on_c, 6, 52, 95
4, 42240, Note_off_c, 6, 52, 95
4, 42240, Note_on_c, 6, 63, 95
4, 42240, Note_on_c, 6, 59, 95
4, 42720, Note_off_c, 6, 63, 95
4, 42720, Note_off_c, 6, 59, 95
4, 42720, Note_on_c, 6, 61, 95
4, 42720, Note_on_c, 6, 57, 95
4, 43200, Note_off_c, 6, 61, 95
4, 43200, Note_off_c, 6, 57, 95
4, 43200, Note_on_c, 6, 52, 95
4, 43680, Note_off_c, 6, 52, 95
4, 43680, Note_on_c, 6, 61, 95
4, 43680, Note_on_c, 6, 57, 95
4, 44160, Note_off_c, 6, 61, 95
4, 44160, Note_off_c, 6, 57, 95
4, 44160, Note_on_c, 6, 64, 95
4, 44160, Note_on_c, 6, 61, 95
4, 44640, Note_off_c, 6, 64, 95
4, 44640, Note_off_c, 6, 61, 95
4, 44640, Note_on_c, 6, 64, 95
4, 44640, Note_on_c, 6, 61, 95
4, 45120, Note_off_c, 6, 64, 95
4, 45120, Note_off_c, 6, 61, 95
4, 45120, Note_on_c, 6, 63, 95
4, 45120, Note_on_c, 6, 59, 95
4, 45600, Note_off_c, 6, 63, 95
4, 45600, Note_off_c, 6, 59, 95
4, 45600, Note_on_c, 6, 59, 95
4, 45600, Note_on_c, 6, 54, 95
4, 46080, Note_off_c, 6, 59, 95
4, 46080, Note_off_c, 6, 54, 95
4, 46080, Note_on_c, 6, 65, 95
4, 46080, Note_on_c, 6, 61, 95
4, 46560, Note_off_c, 6, 65, 95
4, 46560, Note_off_c, 6, 61, 95
4, 46560, Note_on_c, 6, 65, 95
4, 47040, Note_off_c, 6, 65, 95
4, 47040, Note_on_c, 6, 66, 95
4, 47520, Note_off_c, 6, 66, 95
4, 47520, Note_on_c, 6, 66, 95
4, 47520, Note_on_c, 6, 61, 95
4, 48000, Note_off_c, 6, 66, 95
4, 48000, Note_off_c, 6, 61, 95
4, 48000, Note_on_c, 6, 68, 95
4, 48480, Note_off_c, 6, 68, 95
4, 48480, Note_on_c, 6, 68, 95
4, 48480, Note_on_c, 6, 66, 95
4, 48960, Note_off_c, 6, 68, 95
4, 48960, Note_off_c, 6, 66, 95
4, 48960, Note_on_c, 6, 68, 95
4, 48960, Note_on_c, 6, 65, 95
4, 49440, Note_off_c, 6, 68, 95
4, 49440, Note_off_c, 6, 65, 95
4, 49440, Note_on_c, 6, 68, 95
4, 49440, Note_on_c, 6, 61, 95
4, 49920, Note_off_c, 6, 68, 95
4, 49920, Note_off_c, 6, 61, 95
4, 49920, Note_on_c, 6, 59, 95
4, 50400, Note_off_c, 6, 59, 95
4, 50400, Note_on_c, 6, 63, 95
4, 50880, Note_off_c, 6, 63, 95
4, 50880, Note_on_c, 6, 66, 95
4, 50880, Note_on_c, 6, 64, 95
4, 51360, Note_off_c, 6, 66, 95
4, 51360, Note_off_c, 6, 64, 95
4, 51360, Note_on_c, 6, 59, 95
4, 51840, Note_off_c, 6, 59, 95
4, 51840, Note_on_c, 6, 66, 95
4, 51840, Note_on_c, 6, 66, 95
4, 52320, Note_off_c, 6, 66, 95
4, 52320, Note_off_c, 6, 66, 95
4, 52320, Note_on_c, 6, 66, 95
4, 52320, Note_on_c, 6, 64, 95
4, 52800, Note_off_c, 6, 66, 95
4, 52800, Note_off_c, 6, 64, 95
4, 52800, Note_on_c, 6, 66, 95
4, 52800, Note_on_c, 6, 63, 95
4, 53280, Note_off_c, 6, 66, 95
4, 53280, Note_off_c, 6, 63, 95
4, 53280, Note_on_c, 6, 66, 95
4, 53280, Note_on_c, 6, 59, 95
4, 53760, Note_off_c, 6, 66, 95
4, 53760, Note_off_c, 6, 59, 95
4, 53760, Note_on_c, 6, 57, 95
4, 54240, Note_off_c, 6, 57, 95
4, 54240, Note_on_c, 6, 64, 95
4, 54240, Note_on_c, 6, 61, 95
4, 54720, Note_off_c, 6, 64, 95
4, 54720, Note_off_c, 6, 61, 95
4, 54720, Note_on_c, 6, 66, 95
4, 54720, Note_on_c, 6, 63, 95
4, 55200, Note_off_c, 6, 66, 95
4, 55200, Note_off_c, 6, 63, 95
4, 55200, Note_on_c, 6, 64, 95
4, 55200, Note_on_c, 6, 61, 95
4, 55680, Note_off_c, 6, 64, 95
4, 55680, Note_off_c, 6, 61, 95
4, 55680, Note_on_c, 6, 57, 95
4, 56160, Note_off_c, 6, 57, 95
4, 56160, Note_on_c, 6, 66, 95
4, 56160, Note_on_c, 6, 63, 95
4, 56640, Note_off_c, 6, 66, 95
4, 56640, Note_off_c, 6, 63, 95
4, 56640, Note_on_c, 6, 64, 95
4, 56640, Note_on_c, 6, 61, 95
4, 57120, Note_off_c, 6, 64, 95
4, 57120, Note_off_c, 6, 61, 95
4, 57120, Note_on_c, 6, 57, 95
4, 57600, Note_off_c, 6, 57, 95
4, 57600, Note_on_c, 6, 66, 95
4, 57600, Note_on_c, 6, 63, 95
4, 58080, Note_off_c, 6, 66, 95
4, 58080, Note_off_c, 6, 63, 95
4, 58080, Note_on_c, 6, 64, 95
4, 58080, Note_on_c, 6, 61, 95
4, 58560, Note_off_c, 6, 64, 95
4, 58560, Note_off_c, 6, 61, 95
4, 58560, Note_on_c, 6, 57, 95
4, 59040, Note_off_c, 6, 57, 95
4, 59040, Note_on_c, 6, 64, 95
4, 59040, Note_on_c, 6, 61, 95
4, 59520, Note_off_c, 6, 64, 95
4, 59520, Note_off_c, 6, 61, 95
4, 59520, Note_on_c, 6, 66, 95
4, 59520, Note_on_c, 6, 63, 95
4, 60000, Note_off_c, 6, 66, 95
4, 60000, Note_off_c, 6, 63, 95
4, 60000, Note_on_c, 6, 66, 95
4, 60000, Note_on_c, 6, 64, 95
4, 60480, Note_off_c, 6, 66, 95
4, 60480, Note_off_c, 6, 64, 95
4, 60480, Note_on_c, 6, 66, 95
4, 60480, Note_on_c, 6, 63, 95
4, 60960, Note_off_c, 6, 66, 95
4, 60960, Note_off_c, 6, 63, 95
4, 60960, Note_on_c, 6, 63, 95
4, 60960, Note_on_c, 6, 59, 95
4, 61440, Note_off_c, 6, 63, 95
4, 61440, Note_off_c, 6, 59, 95
4, 61440, Note_on_c, 6, 65, 95
4, 61440, Note_on_c, 6, 61, 95
4, 61920, Note_off_c, 6, 65, 95
4, 61920, Note_off_c, 6, 61, 95
4, 61920, Note_on_c, 6, 65, 95
4, 62400, Note_off_c, 6, 65, 95
4, 62400, Note_on_c, 6, 66, 95
4, 62880, Note_off_c, 6, 66, 95
4, 62880, Note_on_c, 6, 66, 95
4, 62880, Note_on_c, 6, 61, 95
4, 63360, Note_off_c, 6, 66, 95
4, 63360, Note_off_c, 6, 61, 95
4, 63360, Note_on_c, 6, 68, 95
4, 63840, Note_off_c, 6, 68, 95
4, 63840, Note_on_c, 6, 68, 95
4, 63840, Note_on_c, 6, 66, 95
4, 64320, Note_off_c, 6, 68, 95
4, 64320, Note_off_c, 6, 66, 95
4, 64320, Note_on_c, 6, 68, 95
4, 64320, Note_on_c, 6, 65, 95
4, 64800, Note_off_c, 6, 68, 95
4, 64800, Note_off_c, 6, 65, 95
4, 64800, Note_on_c, 6, 68, 95
4, 64800, Note_on_c, 6, 61, 95
4, 65280, Note_off_c, 6, 68, 95
4, 65280, Note_off_c, 6, 61, 95
4, 65280, Note_on_c, 6, 59, 95
4, 65760, Note_off_c, 6, 59, 95
4, 65760, Note_on_c, 6, 63, 95
4, 66240, Note_off_c, 6, 63, 95
4, 66240, Note_on_c, 6, 66, 95
4, 66240, Note_on_c, 6, 64, 95
4, 66720, Note_off_c, 6, 66, 95
4, 66720, Note_off_c, 6, 64, 95
4, 66720, Note_on_c, 6, 59, 95
4, 67200, Note_off_c, 6, 59, 95
4, 67200, Note_on_c, 6, 66, 95
4, 67200, Note_on_c, 6, 66, 95
4, 67680, Note_off_c, 6, 66, 95
4, 67680, Note_off_c, 6, 66, 95
4, 67680, Note_on_c, 6, 66, 95
4, 67680, Note_on_c, 6, 64, 95
4, 68160, Note_off_c, 6, 66, 95
4, 68160, Note_off_c, 6, 64, 95
4, 68160, Note_on_c, 6, 66, 95
4, 68160, Note_on_c, 6, 63, 95
4, 68640, Note_off_c, 6, 66, 95
4, 68640, Note_off_c, 6, 63, 95
4, 68640, Note_on_c, 6, 66, 95
4, 68640, Note_on_c, 6, 59, 95
4, 69120, Note_off_c, 6, 66, 95
4, 69120, Note_off_c, 6, 59, 95
4, 69120, Note_on_c, 6, 57, 95
4, 69600, Note_off_c, 6, 57, 95
4, 69600, Note_on_c, 6, 64, 95
4, 69600, Note_on_c, 6, 61, 95
4, 70080, Note_off_c, 6, 64, 95
4, 70080, Note_off_c, 6, 61, 95
4, 70080, Note_on_c, 6, 66, 95
4, 70080, Note_on_c, 6, 63, 95
4, 70560, Note_off_c, 6, 66, 95
4, 70560, Note_off_c, 6, 63, 95
4, 70560, Note_on_c, 6, 64, 95
4, 70560, Note_on_c, 6, 61, 95
4, 71040, Note_off_c, 6, 64, 95
4, 71040, Note_off_c, 6, 61, 95
4, 71040, Note_on_c, 6, 57, 95
4, 71520, Note_off_c, 6, 57, 95
4, 71520, Note_on_c, 6, 66, 95
4, 71520, Note_on_c, 6, 63, 95
4, 72000, Note_off_c, 6, 66, 95
4, 72000, Note_off_c, 6, 63, 95
4, 72000, Note_on_c, 6, 64, 95
4, 72000, Note_on_c, 6, 61, 95
4, 72480, Note_off_c, 6, 64, 95
4, 72480, Note_off_c, 6, 61, 95
4, 72480, Note_on_c, 6, 57, 95
4, 72960, Note_off_c, 6, 57, 95
4, 72960, Note_on_c, 6, 66, 95
4, 72960, Note_on_c, 6, 63, 95
4, 73440, Note_off_c, 6, 66, 95
4, 73440, Note_off_c, 6, 63, 95
4, 73440, Note_on_c, 6, 64, 95
4, 73440, Note_on_c, 6, 61, 95
4, 73920, Note_off_c, 6, 64, 95
4, 73920, Note_off_c, 6, 61, 95
4, 73920, Note_on_c, 6, 57, 95
4, 74400, Note_off_c, 6, 57, 95
4, 74400, Note_on_c, 6, 64, 95
4, 74400, Note_on_c, 6, 61, 95
4, 74880, Note_off_c, 6, 64, 95
4, 74880, Note_off_c, 6, 61, 95
4, 74880, Note_on_c, 6, 66, 95
4, 74880, Note_on_c, 6, 63, 95
4, 75360, Note_off_c, 6, 66, 95
4, 75360, Note_off_c, 6, 63, 95
4, 75360, Note_on_c, 6, 66, 95
4, 75360, Note_on_c, 6, 64, 95
4, 75840, Note_off_c, 6, 66, 95
4, 75840, Note_off_c, 6, 64, 95
4, 75840, Note_on_c, 6, 66, 95
4, 75840, Note_on_c, 6, 63, 95
4, 76320, Note_off_c, 6, 66, 95
4, 76320, Note_off_c, 6, 63, 95
4, 76320, Note_on_c, 6, 63, 95
4, 76320, Note_on_c, 6, 59, 95
4, 76800, Note_off_c, 6, 63, 95
4, 76800, Note_off_c, 6, 59, 95
4, 77280, Note_on_c, 6, 61, 95
4, 77760, Note_off_c, 6, 61, 95
4, 77760, Note_on_c, 6, 66, 95
4, 78720, Note_off_c, 6, 66, 95
4, 78720, Note_on_c, 6, 68, 95
4, 78720, Note_on_c, 6, 66, 95
4, 79200, Note_off_c, 6, 68, 95
4, 79200, Note_off_c, 6, 66, 95
4, 79200, Note_on_c, 6, 66, 95
4, 79680, Note_off_c, 6, 66, 95
4, 79680, Note_on_c, 6, 64, 95
4, 80160, Note_off_c, 6, 64, 95
4, 80160, Note_on_c, 6, 61, 95
4, 80640, Note_off_c, 6, 61, 95
4, 81120, Note_on_c, 6, 59, 95
4, 81600, Note_off_c, 6, 59, 95
4, 81600, Note_on_c, 6, 64, 95
4, 82560, Note_off_c, 6, 64, 95
4, 82560, Note_on_c, 6, 66, 95
4, 82560, Note_on_c, 6, 64, 95
4, 83040, Note_off_c, 6, 66, 95
4, 83040, Note_off_c, 6, 64, 95
4, 83040, Note_on_c, 6, 64, 95
4, 83520, Note_off_c, 6, 64, 95
4, 83520, Note_on_c, 6, 63, 95
4, 84000, Note_off_c, 6, 63, 95
4, 84000, Note_on_c, 6, 59, 95
4, 84480, Note_off_c, 6, 59, 95
4, 84480, Note_on_c, 6, 45, 95
4, 85440, Note_off_c, 6, 45, 95
4, 85440, Note_on_c, 6, 63, 95
4, 85440, Note_on_c, 6, 59, 95
4, 85920, Note_off_c, 6, 63, 95
4, 85920, Note_off_c, 6, 59, 95
4, 85920, Note_on_c, 6, 61, 95
4, 85920, Note_on_c, 6, 57, 95
4, 86400, Note_off_c, 6, 61, 95
4, 86400, Note_off_c, 6, 57, 95
4, 86400, Note_on_c, 6, 45, 95
4, 86880, Note_off_c, 6, 45, 95
4, 86880, Note_on_c, 6, 63, 95
4, 86880, Note_on_c, 6, 59, 95
4, 87360, Note_off_c, 6, 63, 95
4, 87360, Note_off_c, 6, 59, 95
4, 87360, Note_on_c, 6, 61, 95
4, 87360, Note_on_c, 6, 57, 95
4, 87840, Note_off_c, 6, 61, 95
4, 87840, Note_off_c, 6, 57, 95
4, 87840, Note_on_c, 6, 45, 95
4, 88320, Note_off_c, 6, 45, 95
4, 88320, Note_on_c, 6, 59, 95
4, 88320, Note_on_c, 6, 56, 95
4, 88320, Note_on_c, 6, 52, 95
4, 88320, Note_on_c, 6, 47, 95
4, 88800, Note_off_c, 6, 59, 95
4, 88800, Note_off_c, 6, 56, 95
4, 88800, Note_off_c, 6, 52, 95
4, 88800, Note_off_c, 6, 47, 95
4, 88800, Note_on_c, 6, 61, 95
4, 88800, Note_on_c, 6, 57, 95
4, 88800, Note_on_c, 6, 52, 95
4, 88800, Note_on_c, 6, 45, 95
4, 89280, Note_off_c, 6, 61, 95
4, 89280, Note_off_c, 6, 57, 95
4, 89280, Note_off_c, 6, 52, 95
4, 89280, Note_off_c, 6, 45, 95
4, 89280, Note_on_c, 6, 59, 95
4, 89280, Note_on_c, 6, 56, 95
4, 89280, Note_on_c, 6, 52, 95
4, 89280, Note_on_c, 6, 47, 95
4, 89760, Note_off_c, 6, 59, 95
4, 89760, Note_off_c, 6, 56, 95
4, 89760, Note_off_c, 6, 52, 95
4, 89760, Note_off_c, 6, 47, 95
4, 89760, Note_on_c, 6, 61, 95
4, 89760, Note_on_c, 6, 57, 95
4, 89760, Note_on_c, 6, 52, 95
4, 89760, Note_on_c, 6, 45, 95
4, 90240, Note_off_c, 6, 61, 95
4, 90240, Note_off_c, 6, 57, 95
4, 90240, Note_off_c, 6, 52, 95
4, 90240, Note_off_c, 6, 45, 95
4, 90240, Note_on_c, 6, 59, 95
4, 90240, Note_on_c, 6, 56, 95
4, 90240, Note_on_c, 6, 52, 95
4, 90240, Note_on_c, 6, 47, 95
4, 90720, Note_off_c, 6, 59, 95
4, 90720, Note_off_c, 6, 56, 95
4, 90720, Note_off_c, 6, 52, 95
4, 90720, Note_off_c, 6, 47, 95
4, 90720, Note_on_c, 6, 63, 95
4, 90720, Note_on_c, 6, 59, 95
4, 90720, Note_on_c, 6, 54, 95
4, 90720, Note_on_c, 6, 47, 95
4, 91200, Note_off_c, 6, 63, 95
4, 91200, Note_off_c, 6, 59, 95
4, 91200, Note_off_c, 6, 54, 95
4, 91200, Note_off_c, 6, 47, 95
4, 91200, Note_on_c, 6, 63, 95
4, 91200, Note_on_c, 6, 59, 95
4, 91200, Note_on_c, 6, 54, 95
4, 91200, Note_on_c, 6, 47, 95
4, 91680, Note_off_c, 6, 63, 95
4, 91680, Note_off_c, 6, 59, 95
4, 91680, Note_off_c, 6, 54, 95
4, 91680, Note_off_c, 6, 47, 95
4, 91680, Note_on_c, 6, 63, 95
4, 91680, Note_on_c, 6, 59, 95
4, 91680, Note_on_c, 6, 54, 95
4, 91680, Note_on_c, 6, 47, 95
4, 92160, Note_off_c, 6, 63, 95
4, 92160, Note_off_c, 6, 59, 95
4, 92160, Note_off_c, 6, 54, 95
4, 92160, Note_off_c, 6, 47, 95
4, 92160, Note_on_c, 6, 61, 95
4, 92160, Note_on_c, 6, 56, 95
4, 92160, Note_on_c, 6, 49, 95
4, 93120, Note_off_c, 6, 61, 95
4, 93120, Note_off_c, 6, 56, 95
4, 93120, Note_off_c, 6, 49, 95
4, 93120, Note_on_c, 6, 61, 95
4, 93120, Note_on_c, 6, 56, 95
4, 93120, Note_on_c, 6, 49, 95
4, 94560, Note_off_c, 6, 61, 95
4, 94560, Note_off_c, 6, 56, 95
4, 94560, Note_off_c, 6, 49, 95
4, 94560, Note_on_c, 6, 61, 95
4, 94560, Note_on_c, 6, 56, 95
4, 94560, Note_on_c, 6, 49, 95
4, 96000, Note_off_c, 6, 61, 95
4, 96000, Note_off_c, 6, 56, 95
4, 96000, Note_off_c, 6, 49, 95
4, 96000, Note_on_c, 6, 64, 95
4, 96000, Note_on_c, 6, 59, 95
4, 96000, Note_on_c, 6, 49, 95
4, 96480, Note_off_c, 6, 64, 95
4, 96480, Note_off_c, 6, 59, 95
4, 96480, Note_off_c, 6, 49, 95
4, 96480, Note_on_c, 6, 61, 95
4, 96480, Note_on_c, 6, 56, 95
4, 96480, Note_on_c, 6, 49, 95
4, 96960, Note_off_c, 6, 61, 95
4, 96960, Note_off_c, 6, 56, 95
4, 96960, Note_off_c, 6, 49, 95
4, 96960, Note_on_c, 6, 66, 95
4, 96960, Note_on_c, 6, 61, 95
4, 96960, Note_on_c, 6, 58, 95
4, 96960, Note_on_c, 6, 49, 95
4, 97440, Note_off_c, 6, 66, 95
4, 97440, Note_off_c, 6, 61, 95
4, 97440, Note_off_c, 6, 58, 95
4, 97440, Note_off_c, 6, 49, 95
4, 97440, Note_on_c, 6, 61, 95
4, 97440, Note_on_c, 6, 56, 95
4, 97440, Note_on_c, 6, 49, 95
4, 98400, Note_off_c, 6, 61, 95
4, 98400, Note_off_c, 6, 56, 95
4, 98400, Note_off_c, 6, 49, 95
4, 98400, Note_on_c, 6, 56, 95
4, 98400, Note_on_c, 6, 49, 95
4, 98880, Note_off_c, 6, 56, 95
4, 98880, Note_off_c, 6, 49, 95
4, 98880, Note_on_c, 6, 59, 95
4, 98880, Note_on_c, 6, 49, 95
4, 99360, Note_off_c, 6, 59, 95
4, 99360, Note_off_c, 6, 49, 95
4, 99360, Note_on_c, 6, 61, 95
4, 99360, Note_on_c, 6, 56, 95
4, 99360, Note_on_c, 6, 49, 95
4, 100320, Note_off_c, 6, 61, 95
4, 100320, Note_off_c, 6, 56, 95
4, 100320, Note_off_c, 6, 49, 95
4, 100320, Note_on_c, 6, 61, 95
4, 100320, Note_on_c, 6, 56, 95
4, 100320, Note_on_c, 6, 49, 95
4, 100800, Note_off_c, 6, 61, 95
4, 100800, Note_off_c, 6, 56, 95
4, 100800, Note_off_c, 6, 49, 95
4, 100800, Note_on_c, 6, 61, 95
4, 100800, Note_on_c, 6, 56, 95
4, 100800, Note_on_c, 6, 49, 95
4, 102240, Note_off_c, 6, 61, 95
4, 102240, Note_off_c, 6, 56, 95
4, 102240, Note_off_c, 6, 49, 95
4, 102240, Note_on_c, 6, 61, 95
4, 102240, Note_on_c, 6, 56, 95
4, 102240, Note_on_c, 6, 49, 95
4, 103680, Note_off_c, 6, 61, 95
4, 103680, Note_off_c, 6, 56, 95
4, 103680, Note_off_c, 6, 49, 95
4, 103680, Note_on_c, 6, 64, 95
4, 103680, Note_on_c, 6, 59, 95
4, 103680, Note_on_c, 6, 49, 95
4, 104160, Note_off_c, 6, 64, 95
4, 104160, Note_off_c, 6, 59, 95
4, 104160, Note_off_c, 6, 49, 95
4, 104160, Note_on_c, 6, 61, 95
4, 104160, Note_on_c, 6, 56, 95
4, 104160, Note_on_c, 6, 49, 95
4, 104640, Note_off_c, 6, 61, 95
4, 104640, Note_off_c, 6, 56, 95
4, 104640, Note_off_c, 6, 49, 95
4, 104640, Note_on_c, 6, 66, 95
4, 104640, Note_on_c, 6, 61, 95
4, 104640, Note_on_c, 6, 58, 95
4, 104640, Note_on_c, 6, 49, 95
4, 105120, Note_off_c, 6, 66, 95
4, 105120, Note_off_c, 6, 61, 95
4, 105120, Note_off_c, 6, 58, 95
4, 105120, Note_off_c, 6, 49, 95
4, 105120, Note_on_c, 6, 61, 95
4, 105120, Note_on_c, 6, 56, 95
4, 105120, Note_on_c, 6, 49, 95
4, 106080, Note_off_c, 6, 61, 95
4, 106080, Note_off_c, 6, 56, 95
4, 106080, Note_off_c, 6, 49, 95
4, 106080, Note_on_c, 6, 61, 95
4, 106080, Note_on_c, 6, 56, 95
4, 106080, Note_on_c, 6, 49, 95
4, 106560, Note_off_c, 6, 61, 95
4, 106560, Note_off_c, 6, 56, 95
4, 106560, Note_off_c, 6, 49, 95
4, 106560, Note_on_c, 6, 61, 95
4, 106560, Note_on_c, 6, 56, 95
4, 106560, Note_on_c, 6, 49, 95
4, 107040, Note_off_c, 6, 61, 95
4, 107040, Note_off_c, 6, 56, 95
4, 107040, Note_off_c, 6, 49, 95
4, 107040, Note_on_c, 6, 59, 95
4, 107040, Note_on_c, 6, 49, 95
4, 107520, Note_off_c, 6, 59, 95
4, 107520, Note_off_c, 6, 49, 95
4, 107520, Note_on_c, 6, 61, 95
4, 107520, Note_on_c, 6, 56, 95
4, 107520, Note_on_c, 6, 49, 95
4, 108480, Note_off_c, 6, 61, 95
4, 108480, Note_off_c, 6, 56, 95
4, 108480, Note_off_c, 6, 49, 95
4, 108480, Note_on_c, 6, 61, 95
4, 108480, Note_on_c, 6, 56, 95
4, 108480, Note_on_c, 6, 49, 95
4, 109200, Note_off_c, 6, 61, 95
4, 109200, Note_off_c, 6, 56, 95
4, 109200, Note_off_c, 6, 49, 95
4, 109200, Note_on_c, 6, 61, 95
4, 109200, Note_on_c, 6, 56, 95
4, 109200, Note_on_c, 6, 49, 95
4, 109440, Note_off_c, 6, 61, 95
4, 109440, Note_off_c, 6, 56, 95
4, 109440, Note_off_c, 6, 49, 95
4, 109440, Note_on_c, 6, 61, 95
4, 109440, Note_on_c, 6, 56, 95
4, 109440, Note_on_c, 6, 49, 95
4, 109920, Note_off_c, 6, 61, 95
4, 109920, Note_off_c, 6, 56, 95
4, 109920, Note_off_c, 6, 49, 95
4, 109920, Note_on_c, 6, 61, 95
4, 109920, Note_on_c, 6, 56, 95
4, 109920, Note_on_c, 6, 49, 95
4, 111360, Note_off_c, 6, 61, 95
4, 111360, Note_off_c, 6, 56, 95
4, 111360, Note_off_c, 6, 49, 95
4, 111360, Note_on_c, 6, 64, 95
4, 111360, Note_on_c, 6, 59, 95
4, 111360, Note_on_c, 6, 49, 95
4, 111840, Note_off_c, 6, 64, 95
4, 111840, Note_off_c, 6, 59, 95
4, 111840, Note_off_c, 6, 49, 95
4, 111840, Note_on_c, 6, 61, 95
4, 111840, Note_on_c, 6, 56, 95
4, 111840, Note_on_c, 6, 49, 95
4, 112320, Note_off_c, 6, 61, 95
4, 112320, Note_off_c, 6, 56, 95
4, 112320, Note_off_c, 6, 49, 95
4, 112320, Note_on_c, 6, 66, 95
4, 112320, Note_on_c, 6, 61, 95
4, 112320, Note_on_c, 6, 59, 95
4, 112320, Note_on_c, 6, 49, 95
4, 112800, Note_off_c, 6, 66, 95
4, 112800, Note_off_c, 6, 61, 95
4, 112800, Note_off_c, 6, 59, 95
4, 112800, Note_off_c, 6, 49, 95
4, 112800, Note_on_c, 6, 66, 95
4, 112800, Note_on_c, 6, 61, 95
4, 112800, Note_on_c, 6, 56, 95
4, 112800, Note_on_c, 6, 49, 95
4, 113760, Note_off_c, 6, 66, 95
4, 113760, Note_off_c, 6, 61, 95
4, 113760, Note_off_c, 6, 56, 95
4, 113760, Note_off_c, 6, 49, 95
4, 113760, Note_on_c, 6, 56, 95
4, 113760, Note_on_c, 6, 49, 95
4, 114240, Note_off_c, 6, 56, 95
4, 114240, Note_off_c, 6, 49, 95
4, 114240, Note_on_c, 6, 59, 95
4, 114240, Note_on_c, 6, 49, 95
4, 114720, Note_off_c, 6, 59, 95
4, 114720, Note_off_c, 6, 49, 95
4, 114720, Note_on_c, 6, 61, 95
4, 114720, Note_on_c, 6, 56, 95
4, 114720, Note_on_c, 6, 49, 95
4, 115680, Note_off_c, 6, 61, 95
4, 115680, Note_off_c, 6, 56, 95
4, 115680, Note_off_c, 6, 49, 95
4, 115680, Note_on_c, 6, 61, 95
4, 115680, Note_on_c, 6, 56, 95
4, 115680, Note_on_c, 6, 49, 95
4, 116160, Note_off_c, 6, 61, 95
4, 116160, Note_off_c, 6, 56, 95
4, 116160, Note_off_c, 6, 49, 95
4, 116160, Note_on_c, 6, 61, 95
4, 116160, Note_on_c, 6, 56, 95
4, 116160, Note_on_c, 6, 49, 95
4, 116880, Note_off_c, 6, 61, 95
4, 116880, Note_off_c, 6, 56, 95
4, 116880, Note_off_c, 6, 49, 95
4, 116880, Note_on_c, 6, 61, 95
4, 116880, Note_on_c, 6, 56, 95
4, 116880, Note_on_c, 6, 49, 95
4, 117120, Note_off_c, 6, 61, 95
4, 117120, Note_off_c, 6, 56, 95
4, 117120, Note_off_c, 6, 49, 95
4, 117120, Note_on_c, 6, 61, 95
4, 117120, Note_on_c, 6, 56, 95
4, 117120, Note_on_c, 6, 49, 95
4, 117600, Note_off_c, 6, 61, 95
4, 117600, Note_off_c, 6, 56, 95
4, 117600, Note_off_c, 6, 49, 95
4, 117600, Note_on_c, 6, 61, 95
4, 117600, Note_on_c, 6, 56, 95
4, 117600, Note_on_c, 6, 49, 95
4, 118080, Note_off_c, 6, 61, 95
4, 118080, Note_off_c, 6, 56, 95
4, 118080, Note_off_c, 6, 49, 95
4, 118080, Note_on_c, 6, 61, 95
4, 118080, Note_on_c, 6, 56, 95
4, 118080, Note_on_c, 6, 49, 95
4, 118560, Note_off_c, 6, 61, 95
4, 118560, Note_off_c, 6, 56, 95
4, 118560, Note_off_c, 6, 49, 95
4, 118560, Note_on_c, 6, 61, 95
4, 118560, Note_on_c, 6, 56, 95
4, 118560, Note_on_c, 6, 49, 95
4, 119040, Note_off_c, 6, 61, 95
4, 119040, Note_off_c, 6, 56, 95
4, 119040, Note_off_c, 6, 49, 95
4, 119040, Note_on_c, 6, 64, 95
4, 119040, Note_on_c, 6, 59, 95
4, 119040, Note_on_c, 6, 49, 95
4, 119520, Note_off_c, 6, 64, 95
4, 119520, Note_off_c, 6, 59, 95
4, 119520, Note_off_c, 6, 49, 95
4, 119520, Note_on_c, 6, 61, 95
4, 119520, Note_on_c, 6, 56, 95
4, 119520, Note_on_c, 6, 49, 95
4, 120000, Note_off_c, 6, 61, 95
4, 120000, Note_off_c, 6, 56, 95
4, 120000, Note_off_c, 6, 49, 95
4, 120000, Note_on_c, 6, 66, 95
4, 120000, Note_on_c, 6, 61, 95
4, 120000, Note_on_c, 6, 58, 95
4, 120000, Note_on_c, 6, 49, 95
4, 120480, Note_off_c, 6, 66, 95
4, 120480, Note_off_c, 6, 61, 95
4, 120480, Note_off_c, 6, 58, 95
4, 120480, Note_off_c, 6, 49, 95
4, 120480, Note_on_c, 6, 61, 95
4, 120480, Note_on_c, 6, 56, 95
4, 120480, Note_on_c, 6, 49, 95
4, 121440, Note_off_c, 6, 61, 95
4, 121440, Note_off_c, 6, 56, 95
4, 121440, Note_off_c, 6, 49, 95
4, 121440, Note_on_c, 6, 56, 95
4, 121440, Note_on_c, 6, 49, 95
4, 121920, Note_off_c, 6, 56, 95
4, 121920, Note_off_c, 6, 49, 95
4, 121920, Note_on_c, 6, 59, 95
4, 121920, Note_on_c, 6, 49, 95
4, 122400, Note_off_c, 6, 59, 95
4, 122400, Note_off_c, 6, 49, 95
4, 122400, Note_on_c, 6, 59, 95
4, 122400, Note_on_c, 6, 49, 95
4, 122880, Note_off_c, 6, 59, 95
4, 122880, Note_off_c, 6, 49, 95
4, 122880, Note_on_c, 6, 61, 95
4, 122880, Note_on_c, 6, 56, 95
4, 122880, Note_on_c, 6, 49, 95
4, 123840, Note_off_c, 6, 61, 95
4, 123840, Note_off_c, 6, 56, 95
4, 123840, Note_off_c, 6, 49, 95
4, 123840, Note_on_c, 6, 61, 95
4, 123840, Note_on_c, 6, 56, 95
4, 123840, Note_on_c, 6, 49, 95
4, 124560, Note_off_c, 6, 61, 95
4, 124560, Note_off_c, 6, 56, 95
4, 124560, Note_off_c, 6, 49, 95
4, 124560, Note_on_c, 6, 61, 95
4, 124560, Note_on_c, 6, 56, 95
4, 124560, Note_on_c, 6, 49, 95
4, 124800, Note_off_c, 6, 61, 95
4, 124800, Note_off_c, 6, 56, 95
4, 124800, Note_off_c, 6, 49, 95
4, 124800, Note_on_c, 6, 61, 95
4, 124800, Note_on_c, 6, 56, 95
4, 124800, Note_on_c, 6, 49, 95
4, 125280, Note_off_c, 6, 61, 95
4, 125280, Note_off_c, 6, 56, 95
4, 125280, Note_off_c, 6, 49, 95
4, 125280, Note_on_c, 6, 61, 95
4, 125280, Note_on_c, 6, 56, 95
4, 125280, Note_on_c, 6, 49, 95
4, 125760, Note_off_c, 6, 61, 95
4, 125760, Note_off_c, 6, 56, 95
4, 125760, Note_off_c, 6, 49, 95
4, 125760, Note_on_c, 6, 61, 95
4, 125760, Note_on_c, 6, 56, 95
4, 125760, Note_on_c, 6, 49, 95
4, 126240, Note_off_c, 6, 61, 95
4, 126240, Note_off_c, 6, 56, 95
4, 126240, Note_off_c, 6, 49, 95
4, 126720, Note_on_c, 6, 63, 95
4, 126720, Note_on_c, 6, 59, 95
4, 126720, Note_on_c, 6, 54, 95
4, 126720, Note_on_c, 6, 47, 95
4, 127680, Note_off_c, 6, 63, 95
4, 127680, Note_off_c, 6, 59, 95
4, 127680, Note_off_c, 6, 54, 95
4, 127680, Note_off_c, 6, 47, 95
4, 127680, Note_on_c, 6, 63, 95
4, 127680, Note_on_c, 6, 59, 95
4, 127680, Note_on_c, 6, 54, 95
4, 127680, Note_on_c, 6, 47, 95
4, 128400, Note_off_c, 6, 63, 95
4, 128400, Note_off_c, 6, 59, 95
4, 128400, Note_off_c, 6, 54, 95
4, 128400, Note_off_c, 6, 47, 95
4, 128400, Note_on_c, 6, 63, 95
4, 128400, Note_on_c, 6, 59, 95
4, 128400, Note_on_c, 6, 54, 95
4, 128400, Note_on_c, 6, 47, 95
4, 128640, Note_off_c, 6, 63, 95
4, 128640, Note_off_c, 6, 59, 95
4, 128640, Note_off_c, 6, 54, 95
4, 128640, Note_off_c, 6, 47, 95
4, 128640, Note_on_c, 6, 63, 95
4, 128640, Note_on_c, 6, 59, 95
4, 128640, Note_on_c, 6, 54, 95
4, 128640, Note_on_c, 6, 47, 95
4, 129120, Note_off_c, 6, 63, 95
4, 129120, Note_off_c, 6, 59, 95
4, 129120, Note_off_c, 6, 54, 95
4, 129120, Note_off_c, 6, 47, 95
4, 129120, Note_on_c, 6, 63, 95
4, 129120, Note_on_c, 6, 59, 95
4, 129120, Note_on_c, 6, 54, 95
4, 129120, Note_on_c, 6, 47, 95
4, 129600, Note_off_c, 6, 63, 95
4, 129600, Note_off_c, 6, 59, 95
4, 129600, Note_off_c, 6, 54, 95
4, 129600, Note_off_c, 6, 47, 95
4, 129600, Note_on_c, 6, 63, 95
4, 129600, Note_on_c, 6, 59, 95
4, 129600, Note_on_c, 6, 54, 95
4, 129600, Note_on_c, 6, 47, 95
4, 130080, Note_off_c, 6, 63, 95
4, 130080, Note_off_c, 6, 59, 95
4, 130080, Note_off_c, 6, 54, 95
4, 130080, Note_off_c, 6, 47, 95
4, 130080, Note_on_c, 6, 63, 95
4, 130080, Note_on_c, 6, 59, 95
4, 130080, Note_on_c, 6, 54, 95
4, 130080, Note_on_c, 6, 47, 95
4, 130560, Note_off_c, 6, 63, 95
4, 130560, Note_off_c, 6, 59, 95
4, 130560, Note_off_c, 6, 54, 95
4, 130560, Note_off_c, 6, 47, 95
4, 130560, Note_on_c, 6, 61, 95
4, 130560, Note_on_c, 6, 57, 95
4, 130560, Note_on_c, 6, 52, 95
4, 130560, Note_on_c, 6, 45, 95
4, 131520, Note_off_c, 6, 61, 95
4, 131520, Note_off_c, 6, 57, 95
4, 131520, Note_off_c, 6, 52, 95
4, 131520, Note_off_c, 6, 45, 95
4, 131520, Note_on_c, 6, 61, 95
4, 131520, Note_on_c, 6, 57, 95
4, 131520, Note_on_c, 6, 52, 95
4, 131520, Note_on_c, 6, 45, 95
4, 132240, Note_off_c, 6, 61, 95
4, 132240, Note_off_c, 6, 57, 95
4, 132240, Note_off_c, 6, 52, 95
4, 132240, Note_off_c, 6, 45, 95
4, 132240, Note_on_c, 6, 61, 95
4, 132240, Note_on_c, 6, 57, 95
4, 132240, Note_on_c, 6, 52, 95
4, 132240, Note_on_c, 6, 45, 95
4, 132480, Note_off_c, 6, 61, 95
4, 132480, Note_off_c, 6, 57, 95
4, 132480, Note_off_c, 6, 52, 95
4, 132480, Note_off_c, 6, 45, 95
4, 132480, Note_on_c, 6, 61, 95
4, 132480, Note_on_c, 6, 57, 95
4, 132480, Note_on_c, 6, 52, 95
4, 132480, Note_on_c, 6, 45, 95
4, 132960, Note_off_c, 6, 61, 95
4, 132960, Note_off_c, 6, 57, 95
4, 132960, Note_off_c, 6, 52, 95
4, 132960, Note_off_c, 6, 45, 95
4, 132960, Note_on_c, 6, 61, 95
4, 132960, Note_on_c, 6, 57, 95
4, 132960, Note_on_c, 6, 52, 95
4, 132960, Note_on_c, 6, 45, 95
4, 133440, Note_off_c, 6, 61, 95
4, 133440, Note_off_c, 6, 57, 95
4, 133440, Note_off_c, 6, 52, 95
4, 133440, Note_off_c, 6, 45, 95
4, 133440, Note_on_c, 6, 61, 95
4, 133440, Note_on_c, 6, 57, 95
4, 133440, Note_on_c, 6, 52, 95
4, 133440, Note_on_c, 6, 45, 95
4, 133920, Note_off_c, 6, 61, 95
4, 133920, Note_off_c, 6, 57, 95
4, 133920, Note_off_c, 6, 52, 95
4, 133920, Note_off_c, 6, 45, 95
4, 133920, Note_on_c, 6, 61, 95
4, 133920, Note_on_c, 6, 57, 95
4, 133920, Note_on_c, 6, 52, 95
4, 133920, Note_on_c, 6, 45, 95
4, 134400, Note_off_c, 6, 61, 95
4, 134400, Note_off_c, 6, 57, 95
4, 134400, Note_off_c, 6, 52, 95
4, 134400, Note_off_c, 6, 45, 95
4, 134400, Note_on_c, 6, 59, 95
4, 134400, Note_on_c, 6, 56, 95
4, 134400, Note_on_c, 6, 52, 95
4, 134400, Note_on_c, 6, 47, 95
4, 134880, Note_off_c, 6, 59, 95
4, 134880, Note_off_c, 6, 56, 95
4, 134880, Note_off_c, 6, 52, 95
4, 134880, Note_off_c, 6, 47, 95
4, 134880, Note_on_c, 6, 61, 95
4, 134880, Note_on_c, 6, 57, 95
4, 134880, Note_on_c, 6, 52, 95
4, 134880, Note_on_c, 6, 45, 95
4, 135360, Note_off_c, 6, 61, 95
4, 135360, Note_off_c, 6, 57, 95
4, 135360, Note_off_c, 6, 52, 95
4, 135360, Note_off_c, 6, 45, 95
4, 135360, Note_on_c, 6, 59, 95
4, 135360, Note_on_c, 6, 56, 95
4, 135360, Note_on_c, 6, 52, 95
4, 135360, Note_on_c, 6, 47, 95
4, 135840, Note_off_c, 6, 59, 95
4, 135840, Note_off_c, 6, 56, 95
4, 135840, Note_off_c, 6, 52, 95
4, 135840, Note_off_c, 6, 47, 95
4, 135840, Note_on_c, 6, 61, 95
4, 135840, Note_on_c, 6, 57, 95
4, 135840, Note_on_c, 6, 52, 95
4, 135840, Note_on_c, 6, 45, 95
4, 136320, Note_off_c, 6, 61, 95
4, 136320, Note_off_c, 6, 57, 95
4, 136320, Note_off_c, 6, 52, 95
4, 136320, Note_off_c, 6, 45, 95
4, 136320, Note_on_c, 6, 59, 95
4, 136320, Note_on_c, 6, 56, 95
4, 136320, Note_on_c, 6, 52, 95
4, 136320, Note_on_c, 6, 47, 95
4, 136800, Note_off_c, 6, 59, 95
4, 136800, Note_off_c, 6, 56, 95
4, 136800, Note_off_c, 6, 52, 95
4, 136800, Note_off_c, 6, 47, 95
4, 136800, Note_on_c, 6, 63, 95
4, 136800, Note_on_c, 6, 59, 95
4, 136800, Note_on_c, 6, 54, 95
4, 136800, Note_on_c, 6, 47, 95
4, 137280, Note_off_c, 6, 63, 95
4, 137280, Note_off_c, 6, 59, 95
4, 137280, Note_off_c, 6, 54, 95
4, 137280, Note_off_c, 6, 47, 95
4, 137280, Note_on_c, 6, 63, 95
4, 137280, Note_on_c, 6, 59, 95
4, 137280, Note_on_c, 6, 54, 95
4, 137280, Note_on_c, 6, 47, 95
4, 137760, Note_off_c, 6, 63, 95
4, 137760, Note_off_c, 6, 59, 95
4, 137760, Note_off_c, 6, 54, 95
4, 137760, Note_off_c, 6, 47, 95
4, 137760, Note_on_c, 6, 63, 95
4, 137760, Note_on_c, 6, 59, 95
4, 137760, Note_on_c, 6, 54, 95
4, 137760, Note_on_c, 6, 47, 95
4, 138240, Note_off_c, 6, 63, 95
4, 138240, Note_off_c, 6, 59, 95
4, 138240, Note_off_c, 6, 54, 95
4, 138240, Note_off_c, 6, 47, 95
4, 138720, Note_on_c, 6, 61, 95
4, 138720, Note_on_c, 6, 56, 95
4, 138720, Note_on_c, 6, 49, 95
4, 139200, Note_off_c, 6, 61, 95
4, 139200, Note_off_c, 6, 56, 95
4, 139200, Note_off_c, 6, 49, 95
4, 139200, Note_on_c, 6, 61, 95
4, 139200, Note_on_c, 6, 56, 95
4, 139200, Note_on_c, 6, 49, 95
4, 139920, Note_off_c, 6, 61, 95
4, 139920, Note_off_c, 6, 56, 95
4, 139920, Note_off_c, 6, 49, 95
4, 139920, Note_on_c, 6, 61, 95
4, 139920, Note_on_c, 6, 56, 95
4, 139920, Note_on_c, 6, 49, 95
4, 140160, Note_off_c, 6, 61, 95
4, 140160, Note_off_c, 6, 56, 95
4, 140160, Note_off_c, 6, 49, 95
4, 140160, Note_on_c, 6, 61, 95
4, 140160, Note_on_c, 6, 56, 95
4, 140160, Note_on_c, 6, 49, 95
4, 140640, Note_off_c, 6, 61, 95
4, 140640, Note_off_c, 6, 56, 95
4, 140640, Note_off_c, 6, 49, 95
4, 140640, Note_on_c, 6, 61, 95
4, 140640, Note_on_c, 6, 56, 95
4, 140640, Note_on_c, 6, 49, 95
4, 141120, Note_off_c, 6, 61, 95
4, 141120, Note_off_c, 6, 56, 95
4, 141120, Note_off_c, 6, 49, 95
4, 141120, Note_on_c, 6, 61, 95
4, 141120, Note_on_c, 6, 56, 95
4, 141120, Note_on_c, 6, 49, 95
4, 141600, Note_off_c, 6, 61, 95
4, 141600, Note_off_c, 6, 56, 95
4, 141600, Note_off_c, 6, 49, 95
4, 141600, Note_on_c, 6, 61, 95
4, 141600, Note_on_c, 6, 56, 95
4, 141600, Note_on_c, 6, 49, 95
4, 142080, Note_off_c, 6, 61, 95
4, 142080, Note_off_c, 6, 56, 95
4, 142080, Note_off_c, 6, 49, 95
4, 142560, Note_on_c, 6, 64, 95
4, 142560, Note_on_c, 6, 59, 95
4, 142560, Note_on_c, 6, 54, 95
4, 142560, Note_on_c, 6, 47, 95
4, 143040, Note_off_c, 6, 64, 95
4, 143040, Note_off_c, 6, 59, 95
4, 143040, Note_off_c, 6, 54, 95
4, 143040, Note_off_c, 6, 47, 95
4, 143040, Note_on_c, 6, 64, 95
4, 143040, Note_on_c, 6, 59, 95
4, 143040, Note_on_c, 6, 54, 95
4, 143040, Note_on_c, 6, 47, 95
4, 143760, Note_off_c, 6, 64, 95
4, 143760, Note_off_c, 6, 59, 95
4, 143760, Note_off_c, 6, 54, 95
4, 143760, Note_off_c, 6, 47, 95
4, 143760, Note_on_c, 6, 64, 95
4, 143760, Note_on_c, 6, 59, 95
4, 143760, Note_on_c, 6, 54, 95
4, 143760, Note_on_c, 6, 47, 95
4, 144000, Note_off_c, 6, 64, 95
4, 144000, Note_off_c, 6, 59, 95
4, 144000, Note_off_c, 6, 54, 95
4, 144000, Note_off_c, 6, 47, 95
4, 144000, Note_on_c, 6, 64, 95
4, 144000, Note_on_c, 6, 59, 95
4, 144000, Note_on_c, 6, 54, 95
4, 144000, Note_on_c, 6, 47, 95
4, 144480, Note_off_c, 6, 64, 95
4, 144480, Note_off_c, 6, 59, 95
4, 144480, Note_off_c, 6, 54, 95
4, 144480, Note_off_c, 6, 47, 95
4, 144480, Note_on_c, 6, 64, 95
4, 144480, Note_on_c, 6, 59, 95
4, 144480, Note_on_c, 6, 54, 95
4, 144480, Note_on_c, 6, 47, 95
4, 144960, Note_off_c, 6, 64, 95
4, 144960, Note_off_c, 6, 59, 95
4, 144960, Note_off_c, 6, 54, 95
4, 144960, Note_off_c, 6, 47, 95
4, 144960, Note_on_c, 6, 64, 95
4, 144960, Note_on_c, 6, 59, 95
4, 144960, Note_on_c, 6, 54, 95
4, 144960, Note_on_c, 6, 47, 95
4, 145440, Note_off_c, 6, 64, 95
4, 145440, Note_off_c, 6, 59, 95
4, 145440, Note_off_c, 6, 54, 95
4, 145440, Note_off_c, 6, 47, 95
4, 145440, Note_on_c, 6, 64, 95
4, 145440, Note_on_c, 6, 59, 95
4, 145440, Note_on_c, 6, 54, 95
4, 145440, Note_on_c, 6, 47, 95
4, 145920, Note_off_c, 6, 64, 95
4, 145920, Note_off_c, 6, 59, 95
4, 145920, Note_off_c, 6, 54, 95
4, 145920, Note_off_c, 6, 47, 95
4, 145920, Note_on_c, 6, 61, 95
4, 145920, Note_on_c, 6, 57, 95
4, 145920, Note_on_c, 6, 52, 95
4, 145920, Note_on_c, 6, 45, 95
4, 146880, Note_off_c, 6, 61, 95
4, 146880, Note_off_c, 6, 57, 95
4, 146880, Note_off_c, 6, 52, 95
4, 146880, Note_off_c, 6, 45, 95
4, 146880, Note_on_c, 6, 61, 95
4, 146880, Note_on_c, 6, 57, 95
4, 146880, Note_on_c, 6, 52, 95
4, 146880, Note_on_c, 6, 45, 95
4, 147600, Note_off_c, 6, 61, 95
4, 147600, Note_off_c, 6, 57, 95
4, 147600, Note_off_c, 6, 52, 95
4, 147600, Note_off_c, 6, 45, 95
4, 147600, Note_on_c, 6, 61, 95
4, 147600, Note_on_c, 6, 57, 95
4, 147600, Note_on_c, 6, 52, 95
4, 147600, Note_on_c, 6, 45, 95
4, 147840, Note_off_c, 6, 61, 95
4, 147840, Note_off_c, 6, 57, 95
4, 147840, Note_off_c, 6, 52, 95
4, 147840, Note_off_c, 6, 45, 95
4, 147840, Note_on_c, 6, 61, 95
4, 147840, Note_on_c, 6, 57, 95
4, 147840, Note_on_c, 6, 52, 95
4, 147840, Note_on_c, 6, 45, 95
4, 148320, Note_off_c, 6, 61, 95
4, 148320, Note_off_c, 6, 57, 95
4, 148320, Note_off_c, 6, 52, 95
4, 148320, Note_off_c, 6, 45, 95
4, 148320, Note_on_c, 6, 61, 95
4, 148320, Note_on_c, 6, 57, 95
4, 148320, Note_on_c, 6, 52, 95
4, 148320, Note_on_c, 6, 45, 95
4, 148800, Note_off_c, 6, 61, 95
4, 148800, Note_off_c, 6, 57, 95
4, 148800, Note_off_c, 6, 52, 95
4, 148800, Note_off_c, 6, 45, 95
4, 149280, Note_on_c, 6, 63, 95
4, 149280, Note_on_c, 6, 59, 95
4, 149760, Note_off_c, 6, 63, 95
4, 149760, Note_off_c, 6, 59, 95
4, 149760, Note_on_c, 6, 61, 95
4, 149760, Note_on_c, 6, 57, 95
4, 150240, Note_off_c, 6, 61, 95
4, 150240, Note_off_c, 6, 57, 95
4, 150240, Note_on_c, 6, 52, 95
4, 150720, Note_off_c, 6, 52, 95
4, 150720, Note_on_c, 6, 63, 95
4, 150720, Note_on_c, 6, 59, 95
4, 151200, Note_off_c, 6, 63, 95
4, 151200, Note_off_c, 6, 59, 95
4, 151200, Note_on_c, 6, 61, 95
4, 151200, Note_on_c, 6, 57, 95
4, 151680, Note_off_c, 6, 61, 95
4, 151680, Note_off_c, 6, 57, 95
4, 151680, Note_on_c, 6, 63, 95
4, 151680, Note_on_c, 6, 59, 95
4, 151680, Note_on_c, 6, 54, 95
4, 151680, Note_on_c, 6, 47, 95
4, 152160, Note_off_c, 6, 63, 95
4, 152160, Note_off_c, 6, 59, 95
4, 152160, Note_off_c, 6, 54, 95
4, 152160, Note_off_c, 6, 47, 95
4, 152160, Note_on_c, 6, 63, 95
4, 152160, Note_on_c, 6, 59, 95
4, 152160, Note_on_c, 6, 54, 95
4, 152160, Note_on_c, 6, 47, 95
4, 152640, Note_off_c, 6, 63, 95
4, 152640, Note_off_c, 6, 59, 95
4, 152640, Note_off_c, 6, 54, 95
4, 152640, Note_off_c, 6, 47, 95
4, 152640, Note_on_c, 6, 63, 95
4, 152640, Note_on_c, 6, 59, 95
4, 152640, Note_on_c, 6, 54, 95
4, 152640, Note_on_c, 6, 47, 95
4, 153120, Note_off_c, 6, 63, 95
4, 153120, Note_off_c, 6, 59, 95
4, 153120, Note_off_c, 6, 54, 95
4, 153120, Note_off_c, 6, 47, 95
4, 153120, Note_on_c, 6, 63, 95
4, 153120, Note_on_c, 6, 59, 95
4, 153120, Note_on_c, 6, 54, 95
4, 153120, Note_on_c, 6, 47, 95
4, 153600, Note_off_c, 6, 63, 95
4, 153600, Note_off_c, 6, 59, 95
4, 153600, Note_off_c, 6, 54, 95
4, 153600, Note_off_c, 6, 47, 95
4, 153600, Note_on_c, 6, 61, 95
4, 153600, Note_on_c, 6, 56, 95
4, 153600, Note_on_c, 6, 49, 95
4, 154560, Note_off_c, 6, 61, 95
4, 154560, Note_off_c, 6, 56, 95
4, 154560, Note_off_c, 6, 49, 95
4, 154560, Note_on_c, 6, 61, 95
4, 154560, Note_on_c, 6, 56, 95
4, 154560, Note_on_c, 6, 49, 95
4, 156000, Note_off_c, 6, 61, 95
4, 156000, Note_off_c, 6, 56, 95
4, 156000, Note_off_c, 6, 49, 95
4, 156000, Note_on_c, 6, 61, 95
4, 156000, Note_on_c, 6, 56, 95
4, 156000, Note_on_c, 6, 49, 95
4, 157440, Note_off_c, 6, 61, 95
4, 157440, Note_off_c, 6, 56, 95
4, 157440, Note_off_c, 6, 49, 95
4, 157440, Note_on_c, 6, 64, 95
4, 157440, Note_on_c, 6, 59, 95
4, 157440, Note_on_c, 6, 49, 95
4, 157920, Note_off_c, 6, 64, 95
4, 157920, Note_off_c, 6, 59, 95
4, 157920, Note_off_c, 6, 49, 95
4, 157920, Note_on_c, 6, 61, 95
4, 157920, Note_on_c, 6, 56, 95
4, 157920, Note_on_c, 6, 49, 95
4, 158400, Note_off_c, 6, 61, 95
4, 158400, Note_off_c, 6, 56, 95
4, 158400, Note_off_c, 6, 49, 95
4, 158400, Note_on_c, 6, 66, 95
4, 158400, Note_on_c, 6, 61, 95
4, 158400, Note_on_c, 6, 58, 95
4, 158400, Note_on_c, 6, 49, 95
4, 158880, Note_off_c, 6, 66, 95
4, 158880, Note_off_c, 6, 61, 95
4, 158880, Note_off_c, 6, 58, 95
4, 158880, Note_off_c, 6, 49, 95
4, 158880, Note_on_c, 6, 61, 95
4, 158880, Note_on_c, 6, 56, 95
4, 158880, Note_on_c, 6, 49, 95
4, 159840, Note_off_c, 6, 61, 95
4, 159840, Note_off_c, 6, 56, 95
4, 159840, Note_off_c, 6, 49, 95
4, 159840, Note_on_c, 6, 56, 95
4, 159840, Note_on_c, 6, 49, 95
4, 160320, Note_off_c, 6, 56, 95
4, 160320, Note_off_c, 6, 49, 95
4, 160320, Note_on_c, 6, 59, 95
4, 160320, Note_on_c, 6, 49, 95
4, 160800, Note_off_c, 6, 59, 95
4, 160800, Note_off_c, 6, 49, 95
4, 160800, Note_on_c, 6, 61, 95
4, 160800, Note_on_c, 6, 56, 95
4, 160800, Note_on_c, 6, 49, 95
4, 162240, Note_off_c, 6, 61, 95
4, 162240, Note_off_c, 6, 56, 95
4, 162240, Note_off_c, 6, 49, 95
4, 162240, Note_on_c, 6, 61, 95
4, 162240, Note_on_c, 6, 56, 95
4, 162240, Note_on_c, 6, 49, 95
4, 162960, Note_off_c, 6, 61, 95
4, 162960, Note_off_c, 6, 56, 95
4, 162960, Note_off_c, 6, 49, 95
4, 162960, Note_on_c, 6, 61, 95
4, 162960, Note_on_c, 6, 56, 95
4, 162960, Note_on_c, 6, 49, 95
4, 163200, Note_off_c, 6, 61, 95
4, 163200, Note_off_c, 6, 56, 95
4, 163200, Note_off_c, 6, 49, 95
4, 163200, Note_on_c, 6, 61, 95
4, 163200, Note_on_c, 6, 56, 95
4, 163200, Note_on_c, 6, 49, 95
4, 163680, Note_off_c, 6, 61, 95
4, 163680, Note_off_c, 6, 56, 95
4, 163680, Note_off_c, 6, 49, 95
4, 163680, Note_on_c, 6, 61, 95
4, 163680, Note_on_c, 6, 56, 95
4, 163680, Note_on_c, 6, 49, 95
4, 165120, Note_off_c, 6, 61, 95
4, 165120, Note_off_c, 6, 56, 95
4, 165120, Note_off_c, 6, 49, 95
4, 165120, Note_on_c, 6, 64, 95
4, 165120, Note_on_c, 6, 59, 95
4, 165120, Note_on_c, 6, 49, 95
4, 165600, Note_off_c, 6, 64, 95
4, 165600, Note_off_c, 6, 59, 95
4, 165600, Note_off_c, 6, 49, 95
4, 165600, Note_on_c, 6, 61, 95
4, 165600, Note_on_c, 6, 56, 95
4, 165600, Note_on_c, 6, 49, 95
4, 166080, Note_off_c, 6, 61, 95
4, 166080, Note_off_c, 6, 56, 95
4, 166080, Note_off_c, 6, 49, 95
4, 166080, Note_on_c, 6, 66, 95
4, 166080, Note_on_c, 6, 61, 95
4, 166080, Note_on_c, 6, 58, 95
4, 166080, Note_on_c, 6, 49, 95
4, 166560, Note_off_c, 6, 66, 95
4, 166560, Note_off_c, 6, 61, 95
4, 166560, Note_off_c, 6, 58, 95
4, 166560, Note_off_c, 6, 49, 95
4, 166560, Note_on_c, 6, 61, 95
4, 166560, Note_on_c, 6, 56, 95
4, 166560, Note_on_c, 6, 49, 95
4, 167520, Note_off_c, 6, 61, 95
4, 167520, Note_off_c, 6, 56, 95
4, 167520, Note_off_c, 6, 49, 95
4, 167520, Note_on_c, 6, 76, 95
4, 167520, Note_on_c, 6, 71, 95
4, 168000, Note_off_c, 6, 76, 95
4, 168000, Note_off_c, 6, 71, 95
4, 168000, Note_on_c, 6, 76, 95
4, 168000, Note_on_c, 6, 71, 95
4, 168480, Note_off_c, 6, 76, 95
4, 168480, Note_off_c, 6, 71, 95
4, 168480, Note_on_c, 6, 73, 95
4, 168480, Note_on_c, 6, 68, 95
4, 168960, Note_off_c, 6, 73, 95
4, 168960, Note_off_c, 6, 68, 95
4, 168960, Note_on_c, 6, 61, 95
4, 168960, Note_on_c, 6, 56, 95
4, 168960, Note_on_c, 6, 49, 95
4, 169920, Note_off_c, 6, 61, 95
4, 169920, Note_off_c, 6, 56, 95
4, 169920, Note_off_c, 6, 49, 95
4, 169920, Note_on_c, 6, 61, 95
4, 169920, Note_on_c, 6, 56, 95
4, 169920, Note_on_c, 6, 49, 95
4, 171360, Note_off_c, 6, 61, 95
4, 171360, Note_off_c, 6, 56, 95
4, 171360, Note_off_c, 6, 49, 95
4, 171360, Note_on_c, 6, 61, 95
4, 171360, Note_on_c, 6, 56, 95
4, 171360, Note_on_c, 6, 49, 95
4, 172800, Note_off_c, 6, 61, 95
4, 172800, Note_off_c, 6, 56, 95
4, 172800, Note_off_c, 6, 49, 95
4, 172800, Note_on_c, 6, 64, 95
4, 172800, Note_on_c, 6, 59, 95
4, 172800, Note_on_c, 6, 49, 95
4, 173280, Note_off_c, 6, 64, 95
4, 173280, Note_off_c, 6, 59, 95
4, 173280, Note_off_c, 6, 49, 95
4, 173280, Note_on_c, 6, 61, 95
4, 173280, Note_on_c, 6, 56, 95
4, 173280, Note_on_c, 6, 49, 95
4, 173760, Note_off_c, 6, 61, 95
4, 173760, Note_off_c, 6, 56, 95
4, 173760, Note_off_c, 6, 49, 95
4, 173760, Note_on_c, 6, 66, 95
4, 173760, Note_on_c, 6, 61, 95
4, 173760, Note_on_c, 6, 58, 95
4, 173760, Note_on_c, 6, 49, 95
4, 174240, Note_off_c, 6, 66, 95
4, 174240, Note_off_c, 6, 61, 95
4, 174240, Note_off_c, 6, 58, 95
4, 174240, Note_off_c, 6, 49, 95
4, 174240, Note_on_c, 6, 61, 95
4, 174240, Note_on_c, 6, 56, 95
4, 174240, Note_on_c, 6, 49, 95
4, 175200, Note_off_c, 6, 61, 95
4, 175200, Note_off_c, 6, 56, 95
4, 175200, Note_off_c, 6, 49, 95
4, 175200, Note_on_c, 6, 56, 95
4, 175200, Note_on_c, 6, 49, 95
4, 175680, Note_off_c, 6, 56, 95
4, 175680, Note_off_c, 6, 49, 95
4, 175680, Note_on_c, 6, 59, 95
4, 175680, Note_on_c, 6, 49, 95
4, 176160, Note_off_c, 6, 59, 95
4, 176160, Note_off_c, 6, 49, 95
4, 176160, Note_on_c, 6, 61, 95
4, 176160, Note_on_c, 6, 56, 95
4, 176160, Note_on_c, 6, 49, 95
4, 177120, Note_off_c, 6, 61, 95
4, 177120, Note_off_c, 6, 56, 95
4, 177120, Note_off_c, 6, 49, 95
4, 177120, Note_on_c, 6, 61, 95
4, 177120, Note_on_c, 6, 56, 95
4, 177120, Note_on_c, 6, 49, 95
4, 177600, Note_off_c, 6, 61, 95
4, 177600, Note_off_c, 6, 56, 95
4, 177600, Note_off_c, 6, 49, 95
4, 177600, Note_on_c, 6, 61, 95
4, 177600, Note_on_c, 6, 56, 95
4, 177600, Note_on_c, 6, 49, 95
4, 179040, Note_off_c, 6, 61, 95
4, 179040, Note_off_c, 6, 56, 95
4, 179040, Note_off_c, 6, 49, 95
4, 179040, Note_on_c, 6, 61, 95
4, 179040, Note_on_c, 6, 56, 95
4, 179040, Note_on_c, 6, 49, 95
4, 180480, Note_off_c, 6, 61, 95
4, 180480, Note_off_c, 6, 56, 95
4, 180480, Note_off_c, 6, 49, 95
4, 180480, Note_on_c, 6, 64, 95
4, 180480, Note_on_c, 6, 59, 95
4, 180480, Note_on_c, 6, 49, 95
4, 180960, Note_off_c, 6, 64, 95
4, 180960, Note_off_c, 6, 59, 95
4, 180960, Note_off_c, 6, 49, 95
4, 180960, Note_on_c, 6, 61, 95
4, 180960, Note_on_c, 6, 56, 95
4, 180960, Note_on_c, 6, 49, 95
4, 181440, Note_off_c, 6, 61, 95
4, 181440, Note_off_c, 6, 56, 95
4, 181440, Note_off_c, 6, 49, 95
4, 181440, Note_on_c, 6, 66, 95
4, 181440, Note_on_c, 6, 61, 95
4, 181440, Note_on_c, 6, 58, 95
4, 181440, Note_on_c, 6, 49, 95
4, 181920, Note_off_c, 6, 66, 95
4, 181920, Note_off_c, 6, 61, 95
4, 181920, Note_off_c, 6, 58, 95
4, 181920, Note_off_c, 6, 49, 95
4, 181920, Note_on_c, 6, 61, 95
4, 181920, Note_on_c, 6, 56, 95
4, 181920, Note_on_c, 6, 49, 95
4, 182880, Note_off_c, 6, 61, 95
4, 182880, Note_off_c, 6, 56, 95
4, 182880, Note_off_c, 6, 49, 95
4, 182880, Note_on_c, 6, 61, 95
4, 182880, Note_on_c, 6, 56, 95
4, 182880, Note_on_c, 6, 49, 95
4, 183360, Note_off_c, 6, 61, 95
4, 183360, Note_off_c, 6, 56, 95
4, 183360, Note_off_c, 6, 49, 95
4, 183360, Note_on_c, 6, 61, 95
4, 183360, Note_on_c, 6, 56, 95
4, 183360, Note_on_c, 6, 49, 95
4, 183840, Note_off_c, 6, 61, 95
4, 183840, Note_off_c, 6, 56, 95
4, 183840, Note_off_c, 6, 49, 95
4, 183840, Note_on_c, 6, 59, 95
4, 183840, Note_on_c, 6, 49, 95
4, 184320, Note_off_c, 6, 59, 95
4, 184320, Note_off_c, 6, 49, 95
4, 184320, Note_on_c, 6, 61, 95
4, 184320, Note_on_c, 6, 56, 95
4, 184320, Note_on_c, 6, 49, 95
4, 185280, Note_off_c, 6, 61, 95
4, 185280, Note_off_c, 6, 56, 95
4, 185280, Note_off_c, 6, 49, 95
4, 185280, Note_on_c, 6, 61, 95
4, 185280, Note_on_c, 6, 56, 95
4, 185280, Note_on_c, 6, 49, 95
4, 186000, Note_off_c, 6, 61, 95
4, 186000, Note_off_c, 6, 56, 95
4, 186000, Note_off_c, 6, 49, 95
4, 186000, Note_on_c, 6, 61, 95
4, 186000, Note_on_c, 6, 56, 95
4, 186000, Note_on_c, 6, 49, 95
4, 186240, Note_off_c, 6, 61, 95
4, 186240, Note_off_c, 6, 56, 95
4, 186240, Note_off_c, 6, 49, 95
4, 186240, Note_on_c, 6, 61, 95
4, 186240, Note_on_c, 6, 56, 95
4, 186240, Note_on_c, 6, 49, 95
4, 186720, Note_off_c, 6, 61, 95
4, 186720, Note_off_c, 6, 56, 95
4, 186720, Note_off_c, 6, 49, 95
4, 186720, Note_on_c, 6, 61, 95
4, 186720, Note_on_c, 6, 56, 95
4, 186720, Note_on_c, 6, 49, 95
4, 188160, Note_off_c, 6, 61, 95
4, 188160, Note_off_c, 6, 56, 95
4, 188160, Note_off_c, 6, 49, 95
4, 188160, Note_on_c, 6, 64, 95
4, 188160, Note_on_c, 6, 59, 95
4, 188160, Note_on_c, 6, 49, 95
4, 188640, Note_off_c, 6, 64, 95
4, 188640, Note_off_c, 6, 59, 95
4, 188640, Note_off_c, 6, 49, 95
4, 188640, Note_on_c, 6, 61, 95
4, 188640, Note_on_c, 6, 56, 95
4, 188640, Note_on_c, 6, 49, 95
4, 189120, Note_off_c, 6, 61, 95
4, 189120, Note_off_c, 6, 56, 95
4, 189120, Note_off_c, 6, 49, 95
4, 189120, Note_on_c, 6, 66, 95
4, 189120, Note_on_c, 6, 61, 95
4, 189120, Note_on_c, 6, 59, 95
4, 189120, Note_on_c, 6, 49, 95
4, 189600, Note_off_c, 6, 66, 95
4, 189600, Note_off_c, 6, 61, 95
4, 189600, Note_off_c, 6, 59, 95
4, 189600, Note_off_c, 6, 49, 95
4, 189600, Note_on_c, 6, 66, 95
4, 189600, Note_on_c, 6, 61, 95
4, 189600, Note_on_c, 6, 56, 95
4, 189600, Note_on_c, 6, 49, 95
4, 190560, Note_off_c, 6, 66, 95
4, 190560, Note_off_c, 6, 61, 95
4, 190560, Note_off_c, 6, 56, 95
4, 190560, Note_off_c, 6, 49, 95
4, 190560, Note_on_c, 6, 56, 95
4, 190560, Note_on_c, 6, 49, 95
4, 191040, Note_off_c, 6, 56, 95
4, 191040, Note_off_c, 6, 49, 95
4, 191040, Note_on_c, 6, 59, 95
4, 191040, Note_on_c, 6, 49, 95
4, 191520, Note_off_c, 6, 59, 95
4, 191520, Note_off_c, 6, 49, 95
4, 191520, Note_on_c, 6, 61, 95
4, 191520, Note_on_c, 6, 56, 95
4, 191520, Note_on_c, 6, 49, 95
4, 192480, Note_off_c, 6, 61, 95
4, 192480, Note_off_c, 6, 56, 95
4, 192480, Note_off_c, 6, 49, 95
4, 192480, Note_on_c, 6, 61, 95
4, 192480, Note_on_c, 6, 56, 95
4, 192480, Note_on_c, 6, 49, 95
4, 192960, Note_off_c, 6, 61, 95
4, 192960, Note_off_c, 6, 56, 95
4, 192960, Note_off_c, 6, 49, 95
4, 192960, Note_on_c, 6, 61, 95
4, 192960, Note_on_c, 6, 56, 95
4, 192960, Note_on_c, 6, 49, 95
4, 193680, Note_off_c, 6, 61, 95
4, 193680, Note_off_c, 6, 56, 95
4, 193680, Note_off_c, 6, 49, 95
4, 193680, Note_on_c, 6, 61, 95
4, 193680, Note_on_c, 6, 56, 95
4, 193680, Note_on_c, 6, 49, 95
4, 193920, Note_off_c, 6, 61, 95
4, 193920, Note_off_c, 6, 56, 95
4, 193920, Note_off_c, 6, 49, 95
4, 193920, Note_on_c, 6, 61, 95
4, 193920, Note_on_c, 6, 56, 95
4, 193920, Note_on_c, 6, 49, 95
4, 194400, Note_off_c, 6, 61, 95
4, 194400, Note_off_c, 6, 56, 95
4, 194400, Note_off_c, 6, 49, 95
4, 194400, Note_on_c, 6, 61, 95
4, 194400, Note_on_c, 6, 56, 95
4, 194400, Note_on_c, 6, 49, 95
4, 194880, Note_off_c, 6, 61, 95
4, 194880, Note_off_c, 6, 56, 95
4, 194880, Note_off_c, 6, 49, 95
4, 194880, Note_on_c, 6, 61, 95
4, 194880, Note_on_c, 6, 56, 95
4, 194880, Note_on_c, 6, 49, 95
4, 195360, Note_off_c, 6, 61, 95
4, 195360, Note_off_c, 6, 56, 95
4, 195360, Note_off_c, 6, 49, 95
4, 195360, Note_on_c, 6, 61, 95
4, 195360, Note_on_c, 6, 56, 95
4, 195360, Note_on_c, 6, 49, 95
4, 195840, Note_off_c, 6, 61, 95
4, 195840, Note_off_c, 6, 56, 95
4, 195840, Note_off_c, 6, 49, 95
4, 195840, Note_on_c, 6, 64, 95
4, 195840, Note_on_c, 6, 59, 95
4, 195840, Note_on_c, 6, 49, 95
4, 196320, Note_off_c, 6, 64, 95
4, 196320, Note_off_c, 6, 59, 95
4, 196320, Note_off_c, 6, 49, 95
4, 196320, Note_on_c, 6, 61, 95
4, 196320, Note_on_c, 6, 56, 95
4, 196320, Note_on_c, 6, 49, 95
4, 196800, Note_off_c, 6, 61, 95
4, 196800, Note_off_c, 6, 56, 95
4, 196800, Note_off_c, 6, 49, 95
4, 196800, Note_on_c, 6, 66, 95
4, 196800, Note_on_c, 6, 61, 95
4, 196800, Note_on_c, 6, 58, 95
4, 196800, Note_on_c, 6, 49, 95
4, 197280, Note_off_c, 6, 66, 95
4, 197280, Note_off_c, 6, 61, 95
4, 197280, Note_off_c, 6, 58, 95
4, 197280, Note_off_c, 6, 49, 95
4, 197280, Note_on_c, 6, 61, 95
4, 197280, Note_on_c, 6, 56, 95
4, 197280, Note_on_c, 6, 49, 95
4, 198240, Note_off_c, 6, 61, 95
4, 198240, Note_off_c, 6, 56, 95
4, 198240, Note_off_c, 6, 49, 95
4, 198240, Note_on_c, 6, 56, 95
4, 198240, Note_on_c, 6, 49, 95
4, 198720, Note_off_c, 6, 56, 95
4, 198720, Note_off_c, 6, 49, 95
4, 198720, Note_on_c, 6, 59, 95
4, 198720, Note_on_c, 6, 49, 95
4, 199200, Note_off_c, 6, 59, 95
4, 199200, Note_off_c, 6, 49, 95
4, 199200, Note_on_c, 6, 59, 95
4, 199200, Note_on_c, 6, 49, 95
4, 199680, Note_off_c, 6, 59, 95
4, 199680, Note_off_c, 6, 49, 95
4, 199680, Note_on_c, 6, 61, 95
4, 199680, Note_on_c, 6, 56, 95
4, 199680, Note_on_c, 6, 49, 95
4, 200640, Note_off_c, 6, 61, 95
4, 200640, Note_off_c, 6, 56, 95
4, 200640, Note_off_c, 6, 49, 95
4, 200640, Note_on_c, 6, 61, 95
4, 200640, Note_on_c, 6, 56, 95
4, 200640, Note_on_c, 6, 49, 95
4, 201360, Note_off_c, 6, 61, 95
4, 201360, Note_off_c, 6, 56, 95
4, 201360, Note_off_c, 6, 49, 95
4, 201360, Note_on_c, 6, 61, 95
4, 201360, Note_on_c, 6, 56, 95
4, 201360, Note_on_c, 6, 49, 95
4, 201600, Note_off_c, 6, 61, 95
4, 201600, Note_off_c, 6, 56, 95
4, 201600, Note_off_c, 6, 49, 95
4, 201600, Note_on_c, 6, 61, 95
4, 201600, Note_on_c, 6, 56, 95
4, 201600, Note_on_c, 6, 49, 95
4, 202080, Note_off_c, 6, 61, 95
4, 202080, Note_off_c, 6, 56, 95
4, 202080, Note_off_c, 6, 49, 95
4, 202080, Note_on_c, 6, 61, 95
4, 202080, Note_on_c, 6, 56, 95
4, 202080, Note_on_c, 6, 49, 95
4, 202560, Note_off_c, 6, 61, 95
4, 202560, Note_off_c, 6, 56, 95
4, 202560, Note_off_c, 6, 49, 95
4, 202560, Note_on_c, 6, 61, 95
4, 202560, Note_on_c, 6, 56, 95
4, 202560, Note_on_c, 6, 49, 95
4, 203040, Note_off_c, 6, 61, 95
4, 203040, Note_off_c, 6, 56, 95
4, 203040, Note_off_c, 6, 49, 95
4, 203520, Note_on_c, 6, 63, 95
4, 203520, Note_on_c, 6, 59, 95
4, 203520, Note_on_c, 6, 54, 95
4, 203520, Note_on_c, 6, 47, 95
4, 204480, Note_off_c, 6, 63, 95
4, 204480, Note_off_c, 6, 59, 95
4, 204480, Note_off_c, 6, 54, 95
4, 204480, Note_off_c, 6, 47, 95
4, 204480, Note_on_c, 6, 63, 95
4, 204480, Note_on_c, 6, 59, 95
4, 204480, Note_on_c, 6, 54, 95
4, 204480, Note_on_c, 6, 47, 95
4, 205200, Note_off_c, 6, 63, 95
4, 205200, Note_off_c, 6, 59, 95
4, 205200, Note_off_c, 6, 54, 95
4, 205200, Note_off_c, 6, 47, 95
4, 205200, Note_on_c, 6, 63, 95
4, 205200, Note_on_c, 6, 59, 95
4, 205200, Note_on_c, 6, 54, 95
4, 205200, Note_on_c, 6, 47, 95
4, 205440, Note_off_c, 6, 63, 95
4, 205440, Note_off_c, 6, 59, 95
4, 205440, Note_off_c, 6, 54, 95
4, 205440, Note_off_c, 6, 47, 95
4, 205440, Note_on_c, 6, 63, 95
4, 205440, Note_on_c, 6, 59, 95
4, 205440, Note_on_c, 6, 54, 95
4, 205440, Note_on_c, 6, 47, 95
4, 205920, Note_off_c, 6, 63, 95
4, 205920, Note_off_c, 6, 59, 95
4, 205920, Note_off_c, 6, 54, 95
4, 205920, Note_off_c, 6, 47, 95
4, 205920, Note_on_c, 6, 63, 95
4, 205920, Note_on_c, 6, 59, 95
4, 205920, Note_on_c, 6, 54, 95
4, 205920, Note_on_c, 6, 47, 95
4, 206400, Note_off_c, 6, 63, 95
4, 206400, Note_off_c, 6, 59, 95
4, 206400, Note_off_c, 6, 54, 95
4, 206400, Note_off_c, 6, 47, 95
4, 206400, Note_on_c, 6, 63, 95
4, 206400, Note_on_c, 6, 59, 95
4, 206400, Note_on_c, 6, 54, 95
4, 206400, Note_on_c, 6, 47, 95
4, 206880, Note_off_c, 6, 63, 95
4, 206880, Note_off_c, 6, 59, 95
4, 206880, Note_off_c, 6, 54, 95
4, 206880, Note_off_c, 6, 47, 95
4, 206880, Note_on_c, 6, 63, 95
4, 206880, Note_on_c, 6, 59, 95
4, 206880, Note_on_c, 6, 54, 95
4, 206880, Note_on_c, 6, 47, 95
4, 207360, Note_off_c, 6, 63, 95
4, 207360, Note_off_c, 6, 59, 95
4, 207360, Note_off_c, 6, 54, 95
4, 207360, Note_off_c, 6, 47, 95
4, 207360, Note_on_c, 6, 61, 95
4, 207360, Note_on_c, 6, 57, 95
4, 207360, Note_on_c, 6, 52, 95
4, 207360, Note_on_c, 6, 45, 95
4, 208320, Note_off_c, 6, 61, 95
4, 208320, Note_off_c, 6, 57, 95
4, 208320, Note_off_c, 6, 52, 95
4, 208320, Note_off_c, 6, 45, 95
4, 208320, Note_on_c, 6, 61, 95
4, 208320, Note_on_c, 6, 57, 95
4, 208320, Note_on_c, 6, 52, 95
4, 208320, Note_on_c, 6, 45, 95
4, 209040, Note_off_c, 6, 61, 95
4, 209040, Note_off_c, 6, 57, 95
4, 209040, Note_off_c, 6, 52, 95
4, 209040, Note_off_c, 6, 45, 95
4, 209040, Note_on_c, 6, 61, 95
4, 209040, Note_on_c, 6, 57, 95
4, 209040, Note_on_c, 6, 52, 95
4, 209040, Note_on_c, 6, 45, 95
4, 209280, Note_off_c, 6, 61, 95
4, 209280, Note_off_c, 6, 57, 95
4, 209280, Note_off_c, 6, 52, 95
4, 209280, Note_off_c, 6, 45, 95
4, 209280, Note_on_c, 6, 61, 95
4, 209280, Note_on_c, 6, 57, 95
4, 209280, Note_on_c, 6, 52, 95
4, 209280, Note_on_c, 6, 45, 95
4, 209760, Note_off_c, 6, 61, 95
4, 209760, Note_off_c, 6, 57, 95
4, 209760, Note_off_c, 6, 52, 95
4, 209760, Note_off_c, 6, 45, 95
4, 209760, Note_on_c, 6, 61, 95
4, 209760, Note_on_c, 6, 57, 95
4, 209760, Note_on_c, 6, 52, 95
4, 209760, Note_on_c, 6, 45, 95
4, 210240, Note_off_c, 6, 61, 95
4, 210240, Note_off_c, 6, 57, 95
4, 210240, Note_off_c, 6, 52, 95
4, 210240, Note_off_c, 6, 45, 95
4, 210240, Note_on_c, 6, 61, 95
4, 210240, Note_on_c, 6, 57, 95
4, 210240, Note_on_c, 6, 52, 95
4, 210240, Note_on_c, 6, 45, 95
4, 210720, Note_off_c, 6, 61, 95
4, 210720, Note_off_c, 6, 57, 95
4, 210720, Note_off_c, 6, 52, 95
4, 210720, Note_off_c, 6, 45, 95
4, 210720, Note_on_c, 6, 61, 95
4, 210720, Note_on_c, 6, 57, 95
4, 210720, Note_on_c, 6, 52, 95
4, 210720, Note_on_c, 6, 45, 95
4, 211200, Note_off_c, 6, 61, 95
4, 211200, Note_off_c, 6, 57, 95
4, 211200, Note_off_c, 6, 52, 95
4, 211200, Note_off_c, 6, 45, 95
4, 211200, Note_on_c, 6, 59, 95
4, 211200, Note_on_c, 6, 56, 95
4, 211200, Note_on_c, 6, 52, 95
4, 211200, Note_on_c, 6, 47, 95
4, 211680, Note_off_c, 6, 59, 95
4, 211680, Note_off_c, 6, 56, 95
4, 211680, Note_off_c, 6, 52, 95
4, 211680, Note_off_c, 6, 47, 95
4, 211680, Note_on_c, 6, 61, 95
4, 211680, Note_on_c, 6, 57, 95
4, 211680, Note_on_c, 6, 52, 95
4, 211680, Note_on_c, 6, 45, 95
4, 212160, Note_off_c, 6, 61, 95
4, 212160, Note_off_c, 6, 57, 95
4, 212160, Note_off_c, 6, 52, 95
4, 212160, Note_off_c, 6, 45, 95
4, 212160, Note_on_c, 6, 59, 95
4, 212160, Note_on_c, 6, 56, 95
4, 212160, Note_on_c, 6, 52, 95
4, 212160, Note_on_c, 6, 47, 95
4, 212640, Note_off_c, 6, 59, 95
4, 212640, Note_off_c, 6, 56, 95
4, 212640, Note_off_c, 6, 52, 95
4, 212640, Note_off_c, 6, 47, 95
4, 212640, Note_on_c, 6, 61, 95
4, 212640, Note_on_c, 6, 57, 95
4, 212640, Note_on_c, 6, 52, 95
4, 212640, Note_on_c, 6, 45, 95
4, 213120, Note_off_c, 6, 61, 95
4, 213120, Note_off_c, 6, 57, 95
4, 213120, Note_off_c, 6, 52, 95
4, 213120, Note_off_c, 6, 45, 95
4, 213120, Note_on_c, 6, 59, 95
4, 213120, Note_on_c, 6, 56, 95
4, 213120, Note_on_c, 6, 52, 95
4, 213120, Note_on_c, 6, 47, 95
4, 213600, Note_off_c, 6, 59, 95
4, 213600, Note_off_c, 6, 56, 95
4, 213600, Note_off_c, 6, 52, 95
4, 213600, Note_off_c, 6, 47, 95
4, 213600, Note_on_c, 6, 63, 95
4, 213600, Note_on_c, 6, 59, 95
4, 213600, Note_on_c, 6, 54, 95
4, 213600, Note_on_c, 6, 47, 95
4, 214080, Note_off_c, 6, 63, 95
4, 214080, Note_off_c, 6, 59, 95
4, 214080, Note_off_c, 6, 54, 95
4, 214080, Note_off_c, 6, 47, 95
4, 214080, Note_on_c, 6, 63, 95
4, 214080, Note_on_c, 6, 59, 95
4, 214080, Note_on_c, 6, 54, 95
4, 214080, Note_on_c, 6, 47, 95
4, 214560, Note_off_c, 6, 63, 95
4, 214560, Note_off_c, 6, 59, 95
4, 214560, Note_off_c, 6, 54, 95
4, 214560, Note_off_c, 6, 47, 95
4, 214560, Note_on_c, 6, 63, 95
4, 214560, Note_on_c, 6, 59, 95
4, 214560, Note_on_c, 6, 54, 95
4, 214560, Note_on_c, 6, 47, 95
4, 215040, Note_off_c, 6, 63, 95
4, 215040, Note_off_c, 6, 59, 95
4, 215040, Note_off_c, 6, 54, 95
4, 215040, Note_off_c, 6, 47, 95
4, 215520, Note_on_c, 6, 61, 95
4, 215520, Note_on_c, 6, 56, 95
4, 215520, Note_on_c, 6, 49, 95
4, 216000, Note_off_c, 6, 61, 95
4, 216000, Note_off_c, 6, 56, 95
4, 216000, Note_off_c, 6, 49, 95
4, 216000, Note_on_c, 6, 61, 95
4, 216000, Note_on_c, 6, 56, 95
4, 216000, Note_on_c, 6, 49, 95
4, 216720, Note_off_c, 6, 61, 95
4, 216720, Note_off_c, 6, 56, 95
4, 216720, Note_off_c, 6, 49, 95
4, 216720, Note_on_c, 6, 61, 95
4, 216720, Note_on_c, 6, 56, 95
4, 216720, Note_on_c, 6, 49, 95
4, 216960, Note_off_c, 6, 61, 95
4, 216960, Note_off_c, 6, 56, 95
4, 216960, Note_off_c, 6, 49, 95
4, 216960, Note_on_c, 6, 61, 95
4, 216960, Note_on_c, 6, 56, 95
4, 216960, Note_on_c, 6, 49, 95
4, 217440, Note_off_c, 6, 61, 95
4, 217440, Note_off_c, 6, 56, 95
4, 217440, Note_off_c, 6, 49, 95
4, 217440, Note_on_c, 6, 61, 95
4, 217440, Note_on_c, 6, 56, 95
4, 217440, Note_on_c, 6, 49, 95
4, 217920, Note_off_c, 6, 61, 95
4, 217920, Note_off_c, 6, 56, 95
4, 217920, Note_off_c, 6, 49, 95
4, 217920, Note_on_c, 6, 61, 95
4, 217920, Note_on_c, 6, 56, 95
4, 217920, Note_on_c, 6, 49, 95
4, 218400, Note_off_c, 6, 61, 95
4, 218400, Note_off_c, 6, 56, 95
4, 218400, Note_off_c, 6, 49, 95
4, 218400, Note_on_c, 6, 61, 95
4, 218400, Note_on_c, 6, 56, 95
4, 218400, Note_on_c, 6, 49, 95
4, 218880, Note_off_c, 6, 61, 95
4, 218880, Note_off_c, 6, 56, 95
4, 218880, Note_off_c, 6, 49, 95
4, 219360, Note_on_c, 6, 64, 95
4, 219360, Note_on_c, 6, 59, 95
4, 219360, Note_on_c, 6, 54, 95
4, 219360, Note_on_c, 6, 47, 95
4, 219840, Note_off_c, 6, 64, 95
4, 219840, Note_off_c, 6, 59, 95
4, 219840, Note_off_c, 6, 54, 95
4, 219840, Note_off_c, 6, 47, 95
4, 219840, Note_on_c, 6, 64, 95
4, 219840, Note_on_c, 6, 59, 95
4, 219840, Note_on_c, 6, 54, 95
4, 219840, Note_on_c, 6, 47, 95
4, 220560, Note_off_c, 6, 64, 95
4, 220560, Note_off_c, 6, 59, 95
4, 220560, Note_off_c, 6, 54, 95
4, 220560, Note_off_c, 6, 47, 95
4, 220560, Note_on_c, 6, 64, 95
4, 220560, Note_on_c, 6, 59, 95
4, 220560, Note_on_c, 6, 54, 95
4, 220560, Note_on_c, 6, 47, 95
4, 220800, Note_off_c, 6, 64, 95
4, 220800, Note_off_c, 6, 59, 95
4, 220800, Note_off_c, 6, 54, 95
4, 220800, Note_off_c, 6, 47, 95
4, 220800, Note_on_c, 6, 64, 95
4, 220800, Note_on_c, 6, 59, 95
4, 220800, Note_on_c, 6, 54, 95
4, 220800, Note_on_c, 6, 47, 95
4, 221280, Note_off_c, 6, 64, 95
4, 221280, Note_off_c, 6, 59, 95
4, 221280, Note_off_c, 6, 54, 95
4, 221280, Note_off_c, 6, 47, 95
4, 221280, Note_on_c, 6, 64, 95
4, 221280, Note_on_c, 6, 59, 95
4, 221280, Note_on_c, 6, 54, 95
4, 221280, Note_on_c, 6, 47, 95
4, 221760, Note_off_c, 6, 64, 95
4, 221760, Note_off_c, 6, 59, 95
4, 221760, Note_off_c, 6, 54, 95
4, 221760, Note_off_c, 6, 47, 95
4, 221760, Note_on_c, 6, 64, 95
4, 221760, Note_on_c, 6, 59, 95
4, 221760, Note_on_c, 6, 54, 95
4, 221760, Note_on_c, 6, 47, 95
4, 222240, Note_off_c, 6, 64, 95
4, 222240, Note_off_c, 6, 59, 95
4, 222240, Note_off_c, 6, 54, 95
4, 222240, Note_off_c, 6, 47, 95
4, 222240, Note_on_c, 6, 64, 95
4, 222240, Note_on_c, 6, 59, 95
4, 222240, Note_on_c, 6, 54, 95
4, 222240, Note_on_c, 6, 47, 95
4, 222720, Note_off_c, 6, 64, 95
4, 222720, Note_off_c, 6, 59, 95
4, 222720, Note_off_c, 6, 54, 95
4, 222720, Note_off_c, 6, 47, 95
4, 222720, Note_on_c, 6, 61, 95
4, 222720, Note_on_c, 6, 57, 95
4, 222720, Note_on_c, 6, 52, 95
4, 222720, Note_on_c, 6, 45, 95
4, 223680, Note_off_c, 6, 61, 95
4, 223680, Note_off_c, 6, 57, 95
4, 223680, Note_off_c, 6, 52, 95
4, 223680, Note_off_c, 6, 45, 95
4, 223680, Note_on_c, 6, 61, 95
4, 223680, Note_on_c, 6, 57, 95
4, 223680, Note_on_c, 6, 52, 95
4, 223680, Note_on_c, 6, 45, 95
4, 224400, Note_off_c, 6, 61, 95
4, 224400, Note_off_c, 6, 57, 95
4, 224400, Note_off_c, 6, 52, 95
4, 224400, Note_off_c, 6, 45, 95
4, 224400, Note_on_c, 6, 61, 95
4, 224400, Note_on_c, 6, 57, 95
4, 224400, Note_on_c, 6, 52, 95
4, 224400, Note_on_c, 6, 45, 95
4, 224640, Note_off_c, 6, 61, 95
4, 224640, Note_off_c, 6, 57, 95
4, 224640, Note_off_c, 6, 52, 95
4, 224640, Note_off_c, 6, 45, 95
4, 224640, Note_on_c, 6, 61, 95
4, 224640, Note_on_c, 6, 57, 95
4, 224640, Note_on_c, 6, 52, 95
4, 224640, Note_on_c, 6, 45, 95
4, 225120, Note_off_c, 6, 61, 95
4, 225120, Note_off_c, 6, 57, 95
4, 225120, Note_off_c, 6, 52, 95
4, 225120, Note_off_c, 6, 45, 95
4, 225120, Note_on_c, 6, 61, 95
4, 225120, Note_on_c, 6, 57, 95
4, 225120, Note_on_c, 6, 52, 95
4, 225120, Note_on_c, 6, 45, 95
4, 225600, Note_off_c, 6, 61, 95
4, 225600, Note_off_c, 6, 57, 95
4, 225600, Note_off_c, 6, 52, 95
4, 225600, Note_off_c, 6, 45, 95
4, 226080, Note_on_c, 6, 63, 95
4, 226080, Note_on_c, 6, 59, 95
4, 226560, Note_off_c, 6, 63, 95
4, 226560, Note_off_c, 6, 59, 95
4, 226560, Note_on_c, 6, 61, 95
4, 226560, Note_on_c, 6, 57, 95
4, 227040, Note_off_c, 6, 61, 95
4, 227040, Note_off_c, 6, 57, 95
4, 227040, Note_on_c, 6, 52, 95
4, 227520, Note_off_c, 6, 52, 95
4, 227520, Note_on_c, 6, 63, 95
4, 227520, Note_on_c, 6, 59, 95
4, 228000, Note_off_c, 6, 63, 95
4, 228000, Note_off_c, 6, 59, 95
4, 228000, Note_on_c, 6, 61, 95
4, 228000, Note_on_c, 6, 57, 95
4, 228480, Note_off_c, 6, 61, 95
4, 228480, Note_off_c, 6, 57, 95
4, 228480, Note_on_c, 6, 63, 95
4, 228480, Note_on_c, 6, 59, 95
4, 228480, Note_on_c, 6, 54, 95
4, 228480, Note_on_c, 6, 47, 95
4, 228960, Note_off_c, 6, 63, 95
4, 228960, Note_off_c, 6, 59, 95
4, 228960, Note_off_c, 6, 54, 95
4, 228960, Note_off_c, 6, 47, 95
4, 228960, Note_on_c, 6, 63, 95
4, 228960, Note_on_c, 6, 59, 95
4, 228960, Note_on_c, 6, 54, 95
4, 228960, Note_on_c, 6, 47, 95
4, 229440, Note_off_c, 6, 63, 95
4, 229440, Note_off_c, 6, 59, 95
4, 229440, Note_off_c, 6, 54, 95
4, 229440, Note_off_c, 6, 47, 95
4, 229440, Note_on_c, 6, 63, 95
4, 229440, Note_on_c, 6, 59, 95
4, 229440, Note_on_c, 6, 54, 95
4, 229440, Note_on_c, 6, 47, 95
4, 229920, Note_off_c, 6, 63, 95
4, 229920, Note_off_c, 6, 59, 95
4, 229920, Note_off_c, 6, 54, 95
4, 229920, Note_off_c, 6, 47, 95
4, 229920, Note_on_c, 6, 63, 95
4, 229920, Note_on_c, 6, 59, 95
4, 229920, Note_on_c, 6, 54, 95
4, 229920, Note_on_c, 6, 47, 95
4, 230400, Note_off_c, 6, 63, 95
4, 230400, Note_off_c, 6, 59, 95
4, 230400, Note_off_c, 6, 54, 95
4, 230400, Note_off_c, 6, 47, 95
4, 230400, Note_on_c, 6, 61, 95
4, 230400, Note_on_c, 6, 56, 95
4, 230400, Note_on_c, 6, 49, 95
4, 231360, Note_off_c, 6, 61, 95
4, 231360, Note_off_c, 6, 56, 95
4, 231360, Note_off_c, 6, 49, 95
4, 231360, Note_on_c, 6, 61, 95
4, 231360, Note_on_c, 6, 56, 95
4, 231360, Note_on_c, 6, 49, 95
4, 232800, Note_off_c, 6, 61, 95
4, 232800, Note_off_c, 6, 56, 95
4, 232800, Note_off_c, 6, 49, 95
4, 232800, Note_on_c, 6, 61, 95
4, 232800, Note_on_c, 6, 56, 95
4, 232800, Note_on_c, 6, 49, 95
4, 234240, Note_off_c, 6, 61, 95
4, 234240, Note_off_c, 6, 56, 95
4, 234240, Note_off_c, 6, 49, 95
4, 234240, Note_on_c, 6, 64, 95
4, 234240, Note_on_c, 6, 59, 95
4, 234240, Note_on_c, 6, 49, 95
4, 234720, Note_off_c, 6, 64, 95
4, 234720, Note_off_c, 6, 59, 95
4, 234720, Note_off_c, 6, 49, 95
4, 234720, Note_on_c, 6, 61, 95
4, 234720, Note_on_c, 6, 56, 95
4, 234720, Note_on_c, 6, 49, 95
4, 235200, Note_off_c, 6, 61, 95
4, 235200, Note_off_c, 6, 56, 95
4, 235200, Note_off_c, 6, 49, 95
4, 235200, Note_on_c, 6, 66, 95
4, 235200, Note_on_c, 6, 61, 95
4, 235200, Note_on_c, 6, 58, 95
4, 235200, Note_on_c, 6, 49, 95
4, 235680, Note_off_c, 6, 66, 95
4, 235680, Note_off_c, 6, 61, 95
4, 235680, Note_off_c, 6, 58, 95
4, 235680, Note_off_c, 6, 49, 95
4, 235680, Note_on_c, 6, 61, 95
4, 235680, Note_on_c, 6, 56, 95
4, 235680, Note_on_c, 6, 49, 95
4, 236640, Note_off_c, 6, 61, 95
4, 236640, Note_off_c, 6, 56, 95
4, 236640, Note_off_c, 6, 49, 95
4, 236640, Note_on_c, 6, 56, 95
4, 236640, Note_on_c, 6, 49, 95
4, 237120, Note_off_c, 6, 56, 95
4, 237120, Note_off_c, 6, 49, 95
4, 237120, Note_on_c, 6, 59, 95
4, 237120, Note_on_c, 6, 49, 95
4, 237600, Note_off_c, 6, 59, 95
4, 237600, Note_off_c, 6, 49, 95
4, 237600, Note_on_c, 6, 61, 95
4, 237600, Note_on_c, 6, 56, 95
4, 237600, Note_on_c, 6, 49, 95
4, 238560, Note_off_c, 6, 61, 95
4, 238560, Note_off_c, 6, 56, 95
4, 238560, Note_off_c, 6, 49, 95
4, 238560, Note_on_c, 6, 61, 95
4, 238560, Note_on_c, 6, 56, 95
4, 238560, Note_on_c, 6, 49, 95
4, 239040, Note_off_c, 6, 61, 95
4, 239040, Note_off_c, 6, 56, 95
4, 239040, Note_off_c, 6, 49, 95
4, 239040, Note_on_c, 6, 61, 95
4, 239040, Note_on_c, 6, 56, 95
4, 239040, Note_on_c, 6, 49, 95
4, 240480, Note_off_c, 6, 61, 95
4, 240480, Note_off_c, 6, 56, 95
4, 240480, Note_off_c, 6, 49, 95
4, 240480, Note_on_c, 6, 61, 95
4, 240480, Note_on_c, 6, 56, 95
4, 240480, Note_on_c, 6, 49, 95
4, 241920, Note_off_c, 6, 61, 95
4, 241920, Note_off_c, 6, 56, 95
4, 241920, Note_off_c, 6, 49, 95
4, 241920, Note_on_c, 6, 64, 95
4, 241920, Note_on_c, 6, 59, 95
4, 241920, Note_on_c, 6, 49, 95
4, 242400, Note_off_c, 6, 64, 95
4, 242400, Note_off_c, 6, 59, 95
4, 242400, Note_off_c, 6, 49, 95
4, 242400, Note_on_c, 6, 61, 95
4, 242400, Note_on_c, 6, 56, 95
4, 242400, Note_on_c, 6, 49, 95
4, 242880, Note_off_c, 6, 61, 95
4, 242880, Note_off_c, 6, 56, 95
4, 242880, Note_off_c, 6, 49, 95
4, 242880, Note_on_c, 6, 66, 95
4, 242880, Note_on_c, 6, 61, 95
4, 242880, Note_on_c, 6, 58, 95
4, 242880, Note_on_c, 6, 49, 95
4, 243360, Note_off_c, 6, 66, 95
4, 243360, Note_off_c, 6, 61, 95
4, 243360, Note_off_c, 6, 58, 95
4, 243360, Note_off_c, 6, 49, 95
4, 243360, Note_on_c, 6, 61, 95
4, 243360, Note_on_c, 6, 56, 95
4, 243360, Note_on_c, 6, 49, 95
4, 244320, Note_off_c, 6, 61, 95
4, 244320, Note_off_c, 6, 56, 95
4, 244320, Note_off_c, 6, 49, 95
4, 244320, Note_on_c, 6, 61, 95
4, 244320, Note_on_c, 6, 56, 95
4, 244320, Note_on_c, 6, 49, 95
4, 244800, Note_off_c, 6, 61, 95
4, 244800, Note_off_c, 6, 56, 95
4, 244800, Note_off_c, 6, 49, 95
4, 244800, Note_on_c, 6, 61, 95
4, 244800, Note_on_c, 6, 56, 95
4, 244800, Note_on_c, 6, 49, 95
4, 245280, Note_off_c, 6, 61, 95
4, 245280, Note_off_c, 6, 56, 95
4, 245280, Note_off_c, 6, 49, 95
4, 245280, Note_on_c, 6, 59, 95
4, 245280, Note_on_c, 6, 49, 95
4, 245760, Note_off_c, 6, 59, 95
4, 245760, Note_off_c, 6, 49, 95
4, 245760, Note_on_c, 6, 61, 95
4, 245760, Note_on_c, 6, 56, 95
4, 245760, Note_on_c, 6, 49, 95
4, 246720, Note_off_c, 6, 61, 95
4, 246720, Note_off_c, 6, 56, 95
4, 246720, Note_off_c, 6, 49, 95
4, 246720, Note_on_c, 6, 61, 95
4, 246720, Note_on_c, 6, 56, 95
4, 246720, Note_on_c, 6, 49, 95
4, 247440, Note_off_c, 6, 61, 95
4, 247440, Note_off_c, 6, 56, 95
4, 247440, Note_off_c, 6, 49, 95
4, 247440, Note_on_c, 6, 61, 95
4, 247440, Note_on_c, 6, 56, 95
4, 247440, Note_on_c, 6, 49, 95
4, 247680, Note_off_c, 6, 61, 95
4, 247680, Note_off_c, 6, 56, 95
4, 247680, Note_off_c, 6, 49, 95
4, 247680, Note_on_c, 6, 61, 95
4, 247680, Note_on_c, 6, 56, 95
4, 247680, Note_on_c, 6, 49, 95
4, 248160, Note_off_c, 6, 61, 95
4, 248160, Note_off_c, 6, 56, 95
4, 248160, Note_off_c, 6, 49, 95
4, 248160, Note_on_c, 6, 61, 95
4, 248160, Note_on_c, 6, 56, 95
4, 248160, Note_on_c, 6, 49, 95
4, 249600, Note_off_c, 6, 61, 95
4, 249600, Note_off_c, 6, 56, 95
4, 249600, Note_off_c, 6, 49, 95
4, 249600, Note_on_c, 6, 64, 95
4, 249600, Note_on_c, 6, 59, 95
4, 249600, Note_on_c, 6, 49, 95
4, 250080, Note_off_c, 6, 64, 95
4, 250080, Note_off_c, 6, 59, 95
4, 250080, Note_off_c, 6, 49, 95
4, 250080, Note_on_c, 6, 61, 95
4, 250080, Note_on_c, 6, 56, 95
4, 250080, Note_on_c, 6, 49, 95
4, 250560, Note_off_c, 6, 61, 95
4, 250560, Note_off_c, 6, 56, 95
4, 250560, Note_off_c, 6, 49, 95
4, 250560, Note_on_c, 6, 66, 95
4, 250560, Note_on_c, 6, 61, 95
4, 250560, Note_on_c, 6, 59, 95
4, 250560, Note_on_c, 6, 49, 95
4, 251040, Note_off_c, 6, 66, 95
4, 251040, Note_off_c, 6, 61, 95
4, 251040, Note_off_c, 6, 59, 95
4, 251040, Note_off_c, 6, 49, 95
4, 251040, Note_on_c, 6, 66, 95
4, 251040, Note_on_c, 6, 61, 95
4, 251040, Note_on_c, 6, 56, 95
4, 251040, Note_on_c, 6, 49, 95
4, 252000, Note_off_c, 6, 66, 95
4, 252000, Note_off_c, 6, 61, 95
4, 252000, Note_off_c, 6, 56, 95
4, 252000, Note_off_c, 6, 49, 95
4, 252000, Note_on_c, 6, 56, 95
4, 252000, Note_on_c, 6, 49, 95
4, 252480, Note_off_c, 6, 56, 95
4, 252480, Note_off_c, 6, 49, 95
4, 252480, Note_on_c, 6, 59, 95
4, 252480, Note_on_c, 6, 49, 95
4, 252960, Note_off_c, 6, 59, 95
4, 252960, Note_off_c, 6, 49, 95
4, 252960, Note_on_c, 6, 61, 95
4, 252960, Note_on_c, 6, 56, 95
4, 252960, Note_on_c, 6, 49, 95
4, 253920, Note_off_c, 6, 61, 95
4, 253920, Note_off_c, 6, 56, 95
4, 253920, Note_off_c, 6, 49, 95
4, 253920, Note_on_c, 6, 61, 95
4, 253920, Note_on_c, 6, 56, 95
4, 253920, Note_on_c, 6, 49, 95
4, 254400, Note_off_c, 6, 61, 95
4, 254400, Note_off_c, 6, 56, 95
4, 254400, Note_off_c, 6, 49, 95
4, 254400, Note_on_c, 6, 61, 95
4, 254400, Note_on_c, 6, 56, 95
4, 254400, Note_on_c, 6, 49, 95
4, 255120, Note_off_c, 6, 61, 95
4, 255120, Note_off_c, 6, 56, 95
4, 255120, Note_off_c, 6, 49, 95
4, 255120, Note_on_c, 6, 61, 95
4, 255120, Note_on_c, 6, 56, 95
4, 255120, Note_on_c, 6, 49, 95
4, 255360, Note_off_c, 6, 61, 95
4, 255360, Note_off_c, 6, 56, 95
4, 255360, Note_off_c, 6, 49, 95
4, 255360, Note_on_c, 6, 61, 95
4, 255360, Note_on_c, 6, 56, 95
4, 255360, Note_on_c, 6, 49, 95
4, 255840, Note_off_c, 6, 61, 95
4, 255840, Note_off_c, 6, 56, 95
4, 255840, Note_off_c, 6, 49, 95
4, 255840, Note_on_c, 6, 61, 95
4, 255840, Note_on_c, 6, 56, 95
4, 255840, Note_on_c, 6, 49, 95
4, 256320, Note_off_c, 6, 61, 95
4, 256320, Note_off_c, 6, 56, 95
4, 256320, Note_off_c, 6, 49, 95
4, 256320, Note_on_c, 6, 61, 95
4, 256320, Note_on_c, 6, 56, 95
4, 256320, Note_on_c, 6, 49, 95
4, 256800, Note_off_c, 6, 61, 95
4, 256800, Note_off_c, 6, 56, 95
4, 256800, Note_off_c, 6, 49, 95
4, 256800, Note_on_c, 6, 61, 95
4, 256800, Note_on_c, 6, 56, 95
4, 256800, Note_on_c, 6, 49, 95
4, 257280, Note_off_c, 6, 61, 95
4, 257280, Note_off_c, 6, 56, 95
4, 257280, Note_off_c, 6, 49, 95
4, 257280, Note_on_c, 6, 64, 95
4, 257280, Note_on_c, 6, 59, 95
4, 257280, Note_on_c, 6, 49, 95
4, 257760, Note_off_c, 6, 64, 95
4, 257760, Note_off_c, 6, 59, 95
4, 257760, Note_off_c, 6, 49, 95
4, 257760, Note_on_c, 6, 61, 95
4, 257760, Note_on_c, 6, 56, 95
4, 257760, Note_on_c, 6, 49, 95
4, 258240, Note_off_c, 6, 61, 95
4, 258240, Note_off_c, 6, 56, 95
4, 258240, Note_off_c, 6, 49, 95
4, 258240, Note_on_c, 6, 66, 95
4, 258240, Note_on_c, 6, 61, 95
4, 258240, Note_on_c, 6, 58, 95
4, 258240, Note_on_c, 6, 49, 95
4, 258720, Note_off_c, 6, 66, 95
4, 258720, Note_off_c, 6, 61, 95
4, 258720, Note_off_c, 6, 58, 95
4, 258720, Note_off_c, 6, 49, 95
4, 258720, Note_on_c, 6, 61, 95
4, 258720, Note_on_c, 6, 56, 95
4, 258720, Note_on_c, 6, 49, 95
4, 259680, Note_off_c, 6, 61, 95
4, 259680, Note_off_c, 6, 56, 95
4, 259680, Note_off_c, 6, 49, 95
4, 259680, Note_on_c, 6, 56, 95
4, 259680, Note_on_c, 6, 49, 95
4, 260160, Note_off_c, 6, 56, 95
4, 260160, Note_off_c, 6, 49, 95
4, 260160, Note_on_c, 6, 59, 95
4, 260160, Note_on_c, 6, 49, 95
4, 260640, Note_off_c, 6, 59, 95
4, 260640, Note_off_c, 6, 49, 95
4, 260640, Note_on_c, 6, 59, 95
4, 260640, Note_on_c, 6, 49, 95
4, 261120, Note_off_c, 6, 59, 95
4, 261120, Note_off_c, 6, 49, 95
4, 261120, Note_on_c, 6, 61, 95
4, 261120, Note_on_c, 6, 56, 95
4, 261120, Note_on_c, 6, 49, 95
4, 262080, Note_off_c, 6, 61, 95
4, 262080, Note_off_c, 6, 56, 95
4, 262080, Note_off_c, 6, 49, 95
4, 262080, Note_on_c, 6, 65, 95
4, 262080, Note_on_c, 6, 61, 95
4, 262080, Note_on_c, 6, 56, 95
4, 262080, Note_on_c, 6, 49, 95
4, 262800, Note_off_c, 6, 65, 95
4, 262800, Note_off_c, 6, 61, 95
4, 262800, Note_off_c, 6, 56, 95
4, 262800, Note_off_c, 6, 49, 95
4, 262800, Note_on_c, 6, 65, 95
4, 262800, Note_on_c, 6, 61, 95
4, 262800, Note_on_c, 6, 56, 95
4, 262800, Note_on_c, 6, 49, 95
4, 263040, Note_off_c, 6, 65, 95
4, 263040, Note_off_c, 6, 61, 95
4, 263040, Note_off_c, 6, 56, 95
4, 263040, Note_off_c, 6, 49, 95
4, 263040, Note_on_c, 6, 65, 95
4, 263040, Note_on_c, 6, 61, 95
4, 263040, Note_on_c, 6, 56, 95
4, 263040, Note_on_c, 6, 49, 95
4, 263520, Note_off_c, 6, 65, 95
4, 263520, Note_off_c, 6, 61, 95
4, 263520, Note_off_c, 6, 56, 95
4, 263520, Note_off_c, 6, 49, 95
4, 263520, Note_on_c, 6, 65, 95
4, 263520, Note_on_c, 6, 61, 95
4, 263520, Note_on_c, 6, 56, 95
4, 263520, Note_on_c, 6, 49, 95
4, 264000, Note_off_c, 6, 65, 95
4, 264000, Note_off_c, 6, 61, 95
4, 264000, Note_off_c, 6, 56, 95
4, 264000, Note_off_c, 6, 49, 95
4, 264000, Note_on_c, 6, 65, 95
4, 264000, Note_on_c, 6, 61, 95
4, 264000, Note_on_c, 6, 56, 95
4, 264000, Note_on_c, 6, 49, 95
4, 264480, Note_off_c, 6, 65, 95
4, 264480, Note_off_c, 6, 61, 95
4, 264480, Note_off_c, 6, 56, 95
4, 264480, Note_off_c, 6, 49, 95
4, 264480, Note_on_c, 6, 56, 95
4, 264480, Note_on_c, 6, 52, 95
4, 264480, Note_on_c, 6, 47, 95
4, 264480, Note_on_c, 6, 40, 95
4, 264539, Note_off_c, 6, 56, 95
4, 264539, Note_off_c, 6, 52, 95
4, 264539, Note_off_c, 6, 47, 95
4, 264539, Note_off_c, 6, 40, 95
4, 264960, Note_on_c, 6, 63, 95
4, 264960, Note_on_c, 6, 59, 95
4, 264960, Note_on_c, 6, 54, 95
4, 264960, Note_on_c, 6, 47, 95
4, 265920, Note_off_c, 6, 63, 95
4, 265920, Note_off_c, 6, 59, 95
4, 265920, Note_off_c, 6, 54, 95
4, 265920, Note_off_c, 6, 47, 95
4, 265920, Note_on_c, 6, 63, 95
4, 265920, Note_on_c, 6, 59, 95
4, 265920, Note_on_c, 6, 54, 95
4, 265920, Note_on_c, 6, 47, 95
4, 266640, Note_off_c, 6, 63, 95
4, 266640, Note_off_c, 6, 59, 95
4, 266640, Note_off_c, 6, 54, 95
4, 266640, Note_off_c, 6, 47, 95
4, 266640, Note_on_c, 6, 63, 95
4, 266640, Note_on_c, 6, 59, 95
4, 266640, Note_on_c, 6, 54, 95
4, 266640, Note_on_c, 6, 47, 95
4, 266880, Note_off_c, 6, 63, 95
4, 266880, Note_off_c, 6, 59, 95
4, 266880, Note_off_c, 6, 54, 95
4, 266880, Note_off_c, 6, 47, 95
4, 266880, Note_on_c, 6, 63, 95
4, 266880, Note_on_c, 6, 59, 95
4, 266880, Note_on_c, 6, 54, 95
4, 266880, Note_on_c, 6, 47, 95
4, 267360, Note_off_c, 6, 63, 95
4, 267360, Note_off_c, 6, 59, 95
4, 267360, Note_off_c, 6, 54, 95
4, 267360, Note_off_c, 6, 47, 95
4, 267360, Note_on_c, 6, 63, 95
4, 267360, Note_on_c, 6, 59, 95
4, 267360, Note_on_c, 6, 54, 95
4, 267360, Note_on_c, 6, 47, 95
4, 267840, Note_off_c, 6, 63, 95
4, 267840, Note_off_c, 6, 59, 95
4, 267840, Note_off_c, 6, 54, 95
4, 267840, Note_off_c, 6, 47, 95
4, 267840, Note_on_c, 6, 63, 95
4, 267840, Note_on_c, 6, 59, 95
4, 267840, Note_on_c, 6, 54, 95
4, 267840, Note_on_c, 6, 47, 95
4, 268320, Note_off_c, 6, 63, 95
4, 268320, Note_off_c, 6, 59, 95
4, 268320, Note_off_c, 6, 54, 95
4, 268320, Note_off_c, 6, 47, 95
4, 268320, Note_on_c, 6, 56, 95
4, 268320, Note_on_c, 6, 52, 95
4, 268320, Note_on_c, 6, 47, 95
4, 268320, Note_on_c, 6, 40, 95
4, 268379, Note_off_c, 6, 56, 95
4, 268379, Note_off_c, 6, 52, 95
4, 268379, Note_off_c, 6, 47, 95
4, 268379, Note_off_c, 6, 40, 95
4, 268800, Note_on_c, 6, 61, 95
4, 268800, Note_on_c, 6, 57, 95
4, 268800, Note_on_c, 6, 52, 95
4, 268800, Note_on_c, 6, 45, 95
4, 269280, Note_off_c, 6, 61, 95
4, 269280, Note_off_c, 6, 57, 95
4, 269280, Note_off_c, 6, 52, 95
4, 269280, Note_off_c, 6, 45, 95
4, 269280, Note_on_c, 6, 61, 95
4, 269280, Note_on_c, 6, 57, 95
4, 269280, Note_on_c, 6, 52, 95
4, 269280, Note_on_c, 6, 45, 95
4, 269760, Note_off_c, 6, 61, 95
4, 269760, Note_off_c, 6, 57, 95
4, 269760, Note_off_c, 6, 52, 95
4, 269760, Note_off_c, 6, 45, 95
4, 269760, Note_on_c, 6, 61, 95
4, 269760, Note_on_c, 6, 57, 95
4, 269760, Note_on_c, 6, 52, 95
4, 269760, Note_on_c, 6, 45, 95
4, 270480, Note_off_c, 6, 61, 95
4, 270480, Note_off_c, 6, 57, 95
4, 270480, Note_off_c, 6, 52, 95
4, 270480, Note_off_c, 6, 45, 95
4, 270480, Note_on_c, 6, 61, 95
4, 270480, Note_on_c, 6, 57, 95
4, 270480, Note_on_c, 6, 52, 95
4, 270480, Note_on_c, 6, 45, 95
4, 270720, Note_off_c, 6, 61, 95
4, 270720, Note_off_c, 6, 57, 95
4, 270720, Note_off_c, 6, 52, 95
4, 270720, Note_off_c, 6, 45, 95
4, 270720, Note_on_c, 6, 61, 95
4, 270720, Note_on_c, 6, 57, 95
4, 270720, Note_on_c, 6, 52, 95
4, 270720, Note_on_c, 6, 45, 95
4, 271200, Note_off_c, 6, 61, 95
4, 271200, Note_off_c, 6, 57, 95
4, 271200, Note_off_c, 6, 52, 95
4, 271200, Note_off_c, 6, 45, 95
4, 271200, Note_on_c, 6, 61, 95
4, 271200, Note_on_c, 6, 57, 95
4, 271200, Note_on_c, 6, 52, 95
4, 271200, Note_on_c, 6, 45, 95
4, 271680, Note_off_c, 6, 61, 95
4, 271680, Note_off_c, 6, 57, 95
4, 271680, Note_off_c, 6, 52, 95
4, 271680, Note_off_c, 6, 45, 95
4, 271680, Note_on_c, 6, 61, 95
4, 271680, Note_on_c, 6, 57, 95
4, 271680, Note_on_c, 6, 52, 95
4, 271680, Note_on_c, 6, 45, 95
4, 272160, Note_off_c, 6, 61, 95
4, 272160, Note_off_c, 6, 57, 95
4, 272160, Note_off_c, 6, 52, 95
4, 272160, Note_off_c, 6, 45, 95
4, 272160, Note_on_c, 6, 61, 95
4, 272160, Note_on_c, 6, 57, 95
4, 272160, Note_on_c, 6, 52, 95
4, 272160, Note_on_c, 6, 45, 95
4, 272640, Note_off_c, 6, 61, 95
4, 272640, Note_off_c, 6, 57, 95
4, 272640, Note_off_c, 6, 52, 95
4, 272640, Note_off_c, 6, 45, 95
4, 272640, Note_on_c, 6, 59, 95
4, 272640, Note_on_c, 6, 56, 95
4, 272640, Note_on_c, 6, 52, 95
4, 272640, Note_on_c, 6, 47, 95
4, 273120, Note_off_c, 6, 59, 95
4, 273120, Note_off_c, 6, 56, 95
4, 273120, Note_off_c, 6, 52, 95
4, 273120, Note_off_c, 6, 47, 95
4, 273120, Note_on_c, 6, 61, 95
4, 273120, Note_on_c, 6, 57, 95
4, 273120, Note_on_c, 6, 52, 95
4, 273120, Note_on_c, 6, 45, 95
4, 273600, Note_off_c, 6, 61, 95
4, 273600, Note_off_c, 6, 57, 95
4, 273600, Note_off_c, 6, 52, 95
4, 273600, Note_off_c, 6, 45, 95
4, 273600, Note_on_c, 6, 59, 95
4, 273600, Note_on_c, 6, 56, 95
4, 273600, Note_on_c, 6, 52, 95
4, 273600, Note_on_c, 6, 47, 95
4, 274080, Note_off_c, 6, 59, 95
4, 274080, Note_off_c, 6, 56, 95
4, 274080, Note_off_c, 6, 52, 95
4, 274080, Note_off_c, 6, 47, 95
4, 274080, Note_on_c, 6, 61, 95
4, 274080, Note_on_c, 6, 57, 95
4, 274080, Note_on_c, 6, 52, 95
4, 274080, Note_on_c, 6, 45, 95
4, 274560, Note_off_c, 6, 61, 95
4, 274560, Note_off_c, 6, 57, 95
4, 274560, Note_off_c, 6, 52, 95
4, 274560, Note_off_c, 6, 45, 95
4, 274560, Note_on_c, 6, 59, 95
4, 274560, Note_on_c, 6, 56, 95
4, 274560, Note_on_c, 6, 52, 95
4, 274560, Note_on_c, 6, 47, 95
4, 275040, Note_off_c, 6, 59, 95
4, 275040, Note_off_c, 6, 56, 95
4, 275040, Note_off_c, 6, 52, 95
4, 275040, Note_off_c, 6, 47, 95
4, 275040, Note_on_c, 6, 63, 95
4, 275040, Note_on_c, 6, 59, 95
4, 275040, Note_on_c, 6, 54, 95
4, 275040, Note_on_c, 6, 47, 95
4, 275520, Note_off_c, 6, 63, 95
4, 275520, Note_off_c, 6, 59, 95
4, 275520, Note_off_c, 6, 54, 95
4, 275520, Note_off_c, 6, 47, 95
4, 275520, Note_on_c, 6, 63, 95
4, 275520, Note_on_c, 6, 59, 95
4, 275520, Note_on_c, 6, 54, 95
4, 275520, Note_on_c, 6, 47, 95
4, 276000, Note_off_c, 6, 63, 95
4, 276000, Note_off_c, 6, 59, 95
4, 276000, Note_off_c, 6, 54, 95
4, 276000, Note_off_c, 6, 47, 95
4, 276000, Note_on_c, 6, 63, 95
4, 276000, Note_on_c, 6, 59, 95
4, 276000, Note_on_c, 6, 54, 95
4, 276000, Note_on_c, 6, 47, 95
4, 276480, Note_off_c, 6, 63, 95
4, 276480, Note_off_c, 6, 59, 95
4, 276480, Note_off_c, 6, 54, 95
4, 276480, Note_off_c, 6, 47, 95
4, 276480, Note_on_c, 6, 61, 95
4, 276480, Note_on_c, 6, 56, 95
4, 276480, Note_on_c, 6, 49, 95
4, 276960, Note_off_c, 6, 61, 95
4, 276960, Note_off_c, 6, 56, 95
4, 276960, Note_off_c, 6, 49, 95
4, 276960, Note_on_c, 6, 65, 95
4, 276960, Note_on_c, 6, 61, 95
4, 276960, Note_on_c, 6, 56, 95
4, 276960, Note_on_c, 6, 49, 95
4, 277440, Note_off_c, 6, 65, 95
4, 277440, Note_off_c, 6, 61, 95
4, 277440, Note_off_c, 6, 56, 95
4, 277440, Note_off_c, 6, 49, 95
4, 277440, Note_on_c, 6, 65, 95
4, 277440, Note_on_c, 6, 61, 95
4, 277440, Note_on_c, 6, 56, 95
4, 277440, Note_on_c, 6, 49, 95
4, 278160, Note_off_c, 6, 65, 95
4, 278160, Note_off_c, 6, 61, 95
4, 278160, Note_off_c, 6, 56, 95
4, 278160, Note_off_c, 6, 49, 95
4, 278160, Note_on_c, 6, 65, 95
4, 278160, Note_on_c, 6, 61, 95
4, 278160, Note_on_c, 6, 56, 95
4, 278160, Note_on_c, 6, 49, 95
4, 278400, Note_off_c, 6, 65, 95
4, 278400, Note_off_c, 6, 61, 95
4, 278400, Note_off_c, 6, 56, 95
4, 278400, Note_off_c, 6, 49, 95
4, 278400, Note_on_c, 6, 65, 95
4, 278400, Note_on_c, 6, 61, 95
4, 278400, Note_on_c, 6, 56, 95
4, 278400, Note_on_c, 6, 49, 95
4, 278880, Note_off_c, 6, 65, 95
4, 278880, Note_off_c, 6, 61, 95
4, 278880, Note_off_c, 6, 56, 95
4, 278880, Note_off_c, 6, 49, 95
4, 278880, Note_on_c, 6, 65, 95
4, 278880, Note_on_c, 6, 61, 95
4, 278880, Note_on_c, 6, 56, 95
4, 278880, Note_on_c, 6, 49, 95
4, 279360, Note_off_c, 6, 65, 95
4, 279360, Note_off_c, 6, 61, 95
4, 279360, Note_off_c, 6, 56, 95
4, 279360, Note_off_c, 6, 49, 95
4, 279360, Note_on_c, 6, 65, 95
4, 279360, Note_on_c, 6, 61, 95
4, 279360, Note_on_c, 6, 56, 95
4, 279360, Note_on_c, 6, 49, 95
4, 279840, Note_off_c, 6, 65, 95
4, 279840, Note_off_c, 6, 61, 95
4, 279840, Note_off_c, 6, 56, 95
4, 279840, Note_off_c, 6, 49, 95
4, 279840, Note_on_c, 6, 65, 95
4, 279840, Note_on_c, 6, 61, 95
4, 279840, Note_on_c, 6, 56, 95
4, 279840, Note_on_c, 6, 49, 95
4, 280320, Note_off_c, 6, 65, 95
4, 280320, Note_off_c, 6, 61, 95
4, 280320, Note_off_c, 6, 56, 95
4, 280320, Note_off_c, 6, 49, 95
4, 280320, Note_on_c, 6, 63, 95
4, 280320, Note_on_c, 6, 59, 95
4, 280320, Note_on_c, 6, 54, 95
4, 280320, Note_on_c, 6, 47, 95
4, 280800, Note_off_c, 6, 63, 95
4, 280800, Note_off_c, 6, 59, 95
4, 280800, Note_off_c, 6, 54, 95
4, 280800, Note_off_c, 6, 47, 95
4, 280800, Note_on_c, 6, 63, 95
4, 280800, Note_on_c, 6, 59, 95
4, 280800, Note_on_c, 6, 54, 95
4, 280800, Note_on_c, 6, 47, 95
4, 281280, Note_off_c, 6, 63, 95
4, 281280, Note_off_c, 6, 59, 95
4, 281280, Note_off_c, 6, 54, 95
4, 281280, Note_off_c, 6, 47, 95
4, 281280, Note_on_c, 6, 63, 95
4, 281280, Note_on_c, 6, 59, 95
4, 281280, Note_on_c, 6, 54, 95
4, 281280, Note_on_c, 6, 47, 95
4, 282000, Note_off_c, 6, 63, 95
4, 282000, Note_off_c, 6, 59, 95
4, 282000, Note_off_c, 6, 54, 95
4, 282000, Note_off_c, 6, 47, 95
4, 282000, Note_on_c, 6, 63, 95
4, 282000, Note_on_c, 6, 59, 95
4, 282000, Note_on_c, 6, 54, 95
4, 282000, Note_on_c, 6, 47, 95
4, 282240, Note_off_c, 6, 63, 95
4, 282240, Note_off_c, 6, 59, 95
4, 282240, Note_off_c, 6, 54, 95
4, 282240, Note_off_c, 6, 47, 95
4, 282240, Note_on_c, 6, 63, 95
4, 282240, Note_on_c, 6, 59, 95
4, 282240, Note_on_c, 6, 54, 95
4, 282240, Note_on_c, 6, 47, 95
4, 282720, Note_off_c, 6, 63, 95
4, 282720, Note_off_c, 6, 59, 95
4, 282720, Note_off_c, 6, 54, 95
4, 282720, Note_off_c, 6, 47, 95
4, 282720, Note_on_c, 6, 63, 95
4, 282720, Note_on_c, 6, 59, 95
4, 282720, Note_on_c, 6, 54, 95
4, 282720, Note_on_c, 6, 47, 95
4, 283200, Note_off_c, 6, 63, 95
4, 283200, Note_off_c, 6, 59, 95
4, 283200, Note_off_c, 6, 54, 95
4, 283200, Note_off_c, 6, 47, 95
4, 283200, Note_on_c, 6, 63, 95
4, 283200, Note_on_c, 6, 59, 95
4, 283200, Note_on_c, 6, 54, 95
4, 283200, Note_on_c, 6, 47, 95
4, 283680, Note_off_c, 6, 63, 95
4, 283680, Note_off_c, 6, 59, 95
4, 283680, Note_off_c, 6, 54, 95
4, 283680, Note_off_c, 6, 47, 95
4, 283680, Note_on_c, 6, 63, 95
4, 283680, Note_on_c, 6, 59, 95
4, 283680, Note_on_c, 6, 54, 95
4, 283680, Note_on_c, 6, 47, 95
4, 284160, Note_off_c, 6, 63, 95
4, 284160, Note_off_c, 6, 59, 95
4, 284160, Note_off_c, 6, 54, 95
4, 284160, Note_off_c, 6, 47, 95
4, 284160, Note_on_c, 6, 61, 95
4, 284160, Note_on_c, 6, 57, 95
4, 284160, Note_on_c, 6, 52, 95
4, 284160, Note_on_c, 6, 45, 95
4, 284640, Note_off_c, 6, 61, 95
4, 284640, Note_off_c, 6, 57, 95
4, 284640, Note_off_c, 6, 52, 95
4, 284640, Note_off_c, 6, 45, 95
4, 284640, Note_on_c, 6, 61, 95
4, 284640, Note_on_c, 6, 57, 95
4, 284640, Note_on_c, 6, 52, 95
4, 284640, Note_on_c, 6, 45, 95
4, 285120, Note_off_c, 6, 61, 95
4, 285120, Note_off_c, 6, 57, 95
4, 285120, Note_off_c, 6, 52, 95
4, 285120, Note_off_c, 6, 45, 95
4, 285120, Note_on_c, 6, 61, 95
4, 285120, Note_on_c, 6, 57, 95
4, 285120, Note_on_c, 6, 52, 95
4, 285120, Note_on_c, 6, 45, 95
4, 285840, Note_off_c, 6, 61, 95
4, 285840, Note_off_c, 6, 57, 95
4, 285840, Note_off_c, 6, 52, 95
4, 285840, Note_off_c, 6, 45, 95
4, 285840, Note_on_c, 6, 61, 95
4, 285840, Note_on_c, 6, 57, 95
4, 285840, Note_on_c, 6, 52, 95
4, 285840, Note_on_c, 6, 45, 95
4, 286080, Note_off_c, 6, 61, 95
4, 286080, Note_off_c, 6, 57, 95
4, 286080, Note_off_c, 6, 52, 95
4, 286080, Note_off_c, 6, 45, 95
4, 286080, Note_on_c, 6, 61, 95
4, 286080, Note_on_c, 6, 57, 95
4, 286080, Note_on_c, 6, 52, 95
4, 286080, Note_on_c, 6, 45, 95
4, 286560, Note_off_c, 6, 61, 95
4, 286560, Note_off_c, 6, 57, 95
4, 286560, Note_off_c, 6, 52, 95
4, 286560, Note_off_c, 6, 45, 95
4, 286560, Note_on_c, 6, 61, 95
4, 286560, Note_on_c, 6, 57, 95
4, 286560, Note_on_c, 6, 52, 95
4, 286560, Note_on_c, 6, 45, 95
4, 287040, Note_off_c, 6, 61, 95
4, 287040, Note_off_c, 6, 57, 95
4, 287040, Note_off_c, 6, 52, 95
4, 287040, Note_off_c, 6, 45, 95
4, 287040, Note_on_c, 6, 61, 95
4, 287040, Note_on_c, 6, 57, 95
4, 287040, Note_on_c, 6, 52, 95
4, 287040, Note_on_c, 6, 45, 95
4, 287520, Note_off_c, 6, 61, 95
4, 287520, Note_off_c, 6, 57, 95
4, 287520, Note_off_c, 6, 52, 95
4, 287520, Note_off_c, 6, 45, 95
4, 287520, Note_on_c, 6, 61, 95
4, 287520, Note_on_c, 6, 57, 95
4, 287520, Note_on_c, 6, 52, 95
4, 287520, Note_on_c, 6, 45, 95
4, 288000, Note_off_c, 6, 61, 95
4, 288000, Note_off_c, 6, 57, 95
4, 288000, Note_off_c, 6, 52, 95
4, 288000, Note_off_c, 6, 45, 95
4, 288000, Note_on_c, 6, 59, 95
4, 288000, Note_on_c, 6, 56, 95
4, 288000, Note_on_c, 6, 52, 95
4, 288000, Note_on_c, 6, 47, 95
4, 288480, Note_off_c, 6, 59, 95
4, 288480, Note_off_c, 6, 56, 95
4, 288480, Note_off_c, 6, 52, 95
4, 288480, Note_off_c, 6, 47, 95
4, 288480, Note_on_c, 6, 61, 95
4, 288480, Note_on_c, 6, 57, 95
4, 288480, Note_on_c, 6, 52, 95
4, 288480, Note_on_c, 6, 45, 95
4, 288960, Note_off_c, 6, 61, 95
4, 288960, Note_off_c, 6, 57, 95
4, 288960, Note_off_c, 6, 52, 95
4, 288960, Note_off_c, 6, 45, 95
4, 288960, Note_on_c, 6, 59, 95
4, 288960, Note_on_c, 6, 56, 95
4, 288960, Note_on_c, 6, 52, 95
4, 288960, Note_on_c, 6, 47, 95
4, 289440, Note_off_c, 6, 59, 95
4, 289440, Note_off_c, 6, 56, 95
4, 289440, Note_off_c, 6, 52, 95
4, 289440, Note_off_c, 6, 47, 95
4, 289440, Note_on_c, 6, 61, 95
4, 289440, Note_on_c, 6, 57, 95
4, 289440, Note_on_c, 6, 52, 95
4, 289440, Note_on_c, 6, 45, 95
4, 289920, Note_off_c, 6, 61, 95
4, 289920, Note_off_c, 6, 57, 95
4, 289920, Note_off_c, 6, 52, 95
4, 289920, Note_off_c, 6, 45, 95
4, 289920, Note_on_c, 6, 59, 95
4, 289920, Note_on_c, 6, 56, 95
4, 289920, Note_on_c, 6, 52, 95
4, 289920, Note_on_c, 6, 47, 95
4, 290400, Note_off_c, 6, 59, 95
4, 290400, Note_off_c, 6, 56, 95
4, 290400, Note_off_c, 6, 52, 95
4, 290400, Note_off_c, 6, 47, 95
4, 290400, Note_on_c, 6, 63, 95
4, 290400, Note_on_c, 6, 59, 95
4, 290400, Note_on_c, 6, 54, 95
4, 290400, Note_on_c, 6, 47, 95
4, 290880, Note_off_c, 6, 63, 95
4, 290880, Note_off_c, 6, 59, 95
4, 290880, Note_off_c, 6, 54, 95
4, 290880, Note_off_c, 6, 47, 95
4, 290880, Note_on_c, 6, 63, 95
4, 290880, Note_on_c, 6, 59, 95
4, 290880, Note_on_c, 6, 54, 95
4, 290880, Note_on_c, 6, 47, 95
4, 291360, Note_off_c, 6, 63, 95
4, 291360, Note_off_c, 6, 59, 95
4, 291360, Note_off_c, 6, 54, 95
4, 291360, Note_off_c, 6, 47, 95
4, 291360, Note_on_c, 6, 63, 95
4, 291360, Note_on_c, 6, 59, 95
4, 291360, Note_on_c, 6, 54, 95
4, 291360, Note_on_c, 6, 47, 95
4, 291840, Note_off_c, 6, 63, 95
4, 291840, Note_off_c, 6, 59, 95
4, 291840, Note_off_c, 6, 54, 95
4, 291840, Note_off_c, 6, 47, 95
4, 291840, Note_on_c, 6, 61, 95
4, 291840, Note_on_c, 6, 56, 95
4, 291840, Note_on_c, 6, 49, 95
4, 292320, Note_off_c, 6, 61, 95
4, 292320, Note_off_c, 6, 56, 95
4, 292320, Note_off_c, 6, 49, 95
4, 292320, Note_on_c, 6, 65, 95
4, 292320, Note_on_c, 6, 61, 95
4, 292320, Note_on_c, 6, 56, 95
4, 292320, Note_on_c, 6, 49, 95
4, 292800, Note_off_c, 6, 65, 95
4, 292800, Note_off_c, 6, 61, 95
4, 292800, Note_off_c, 6, 56, 95
4, 292800, Note_off_c, 6, 49, 95
4, 292800, Note_on_c, 6, 65, 95
4, 292800, Note_on_c, 6, 61, 95
4, 292800, Note_on_c, 6, 56, 95
4, 292800, Note_on_c, 6, 49, 95
4, 293520, Note_off_c, 6, 65, 95
4, 293520, Note_off_c, 6, 61, 95
4, 293520, Note_off_c, 6, 56, 95
4, 293520, Note_off_c, 6, 49, 95
4, 293520, Note_on_c, 6, 65, 95
4, 293520, Note_on_c, 6, 61, 95
4, 293520, Note_on_c, 6, 56, 95
4, 293520, Note_on_c, 6, 49, 95
4, 293760, Note_off_c, 6, 65, 95
4, 293760, Note_off_c, 6, 61, 95
4, 293760, Note_off_c, 6, 56, 95
4, 293760, Note_off_c, 6, 49, 95
4, 293760, Note_on_c, 6, 65, 95
4, 293760, Note_on_c, 6, 61, 95
4, 293760, Note_on_c, 6, 56, 95
4, 293760, Note_on_c, 6, 49, 95
4, 294240, Note_off_c, 6, 65, 95
4, 294240, Note_off_c, 6, 61, 95
4, 294240, Note_off_c, 6, 56, 95
4, 294240, Note_off_c, 6, 49, 95
4, 294240, Note_on_c, 6, 65, 95
4, 294240, Note_on_c, 6, 61, 95
4, 294240, Note_on_c, 6, 56, 95
4, 294240, Note_on_c, 6, 49, 95
4, 294720, Note_off_c, 6, 65, 95
4, 294720, Note_off_c, 6, 61, 95
4, 294720, Note_off_c, 6, 56, 95
4, 294720, Note_off_c, 6, 49, 95
4, 294720, Note_on_c, 6, 65, 95
4, 294720, Note_on_c, 6, 61, 95
4, 294720, Note_on_c, 6, 56, 95
4, 294720, Note_on_c, 6, 49, 95
4, 295200, Note_off_c, 6, 65, 95
4, 295200, Note_off_c, 6, 61, 95
4, 295200, Note_off_c, 6, 56, 95
4, 295200, Note_off_c, 6, 49, 95
4, 295200, Note_on_c, 6, 65, 95
4, 295200, Note_on_c, 6, 61, 95
4, 295200, Note_on_c, 6, 56, 95
4, 295200, Note_on_c, 6, 49, 95
4, 295680, Note_off_c, 6, 65, 95
4, 295680, Note_off_c, 6, 61, 95
4, 295680, Note_off_c, 6, 56, 95
4, 295680, Note_off_c, 6, 49, 95
4, 295680, Note_on_c, 6, 63, 95
4, 295680, Note_on_c, 6, 59, 95
4, 295680, Note_on_c, 6, 54, 95
4, 295680, Note_on_c, 6, 47, 95
4, 296160, Note_off_c, 6, 63, 95
4, 296160, Note_off_c, 6, 59, 95
4, 296160, Note_off_c, 6, 54, 95
4, 296160, Note_off_c, 6, 47, 95
4, 296160, Note_on_c, 6, 63, 95
4, 296160, Note_on_c, 6, 59, 95
4, 296160, Note_on_c, 6, 54, 95
4, 296160, Note_on_c, 6, 47, 95
4, 296640, Note_off_c, 6, 63, 95
4, 296640, Note_off_c, 6, 59, 95
4, 296640, Note_off_c, 6, 54, 95
4, 296640, Note_off_c, 6, 47, 95
4, 296640, Note_on_c, 6, 63, 95
4, 296640, Note_on_c, 6, 59, 95
4, 296640, Note_on_c, 6, 54, 95
4, 296640, Note_on_c, 6, 47, 95
4, 297360, Note_off_c, 6, 63, 95
4, 297360, Note_off_c, 6, 59, 95
4, 297360, Note_off_c, 6, 54, 95
4, 297360, Note_off_c, 6, 47, 95
4, 297360, Note_on_c, 6, 63, 95
4, 297360, Note_on_c, 6, 59, 95
4, 297360, Note_on_c, 6, 54, 95
4, 297360, Note_on_c, 6, 47, 95
4, 297600, Note_off_c, 6, 63, 95
4, 297600, Note_off_c, 6, 59, 95
4, 297600, Note_off_c, 6, 54, 95
4, 297600, Note_off_c, 6, 47, 95
4, 297600, Note_on_c, 6, 63, 95
4, 297600, Note_on_c, 6, 59, 95
4, 297600, Note_on_c, 6, 54, 95
4, 297600, Note_on_c, 6, 47, 95
4, 298080, Note_off_c, 6, 63, 95
4, 298080, Note_off_c, 6, 59, 95
4, 298080, Note_off_c, 6, 54, 95
4, 298080, Note_off_c, 6, 47, 95
4, 298080, Note_on_c, 6, 63, 95
4, 298080, Note_on_c, 6, 59, 95
4, 298080, Note_on_c, 6, 54, 95
4, 298080, Note_on_c, 6, 47, 95
4, 298560, Note_off_c, 6, 63, 95
4, 298560, Note_off_c, 6, 59, 95
4, 298560, Note_off_c, 6, 54, 95
4, 298560, Note_off_c, 6, 47, 95
4, 298560, Note_on_c, 6, 63, 95
4, 298560, Note_on_c, 6, 59, 95
4, 298560, Note_on_c, 6, 54, 95
4, 298560, Note_on_c, 6, 47, 95
4, 299040, Note_off_c, 6, 63, 95
4, 299040, Note_off_c, 6, 59, 95
4, 299040, Note_off_c, 6, 54, 95
4, 299040, Note_off_c, 6, 47, 95
4, 299040, Note_on_c, 6, 63, 95
4, 299040, Note_on_c, 6, 59, 95
4, 299040, Note_on_c, 6, 54, 95
4, 299040, Note_on_c, 6, 47, 95
4, 299520, Note_off_c, 6, 63, 95
4, 299520, Note_off_c, 6, 59, 95
4, 299520, Note_off_c, 6, 54, 95
4, 299520, Note_off_c, 6, 47, 95
4, 299520, Note_on_c, 6, 61, 95
4, 299520, Note_on_c, 6, 57, 95
4, 299520, Note_on_c, 6, 52, 95
4, 299520, Note_on_c, 6, 45, 95
4, 300000, Note_off_c, 6, 61, 95
4, 300000, Note_off_c, 6, 57, 95
4, 300000, Note_off_c, 6, 52, 95
4, 300000, Note_off_c, 6, 45, 95
4, 300000, Note_on_c, 6, 61, 95
4, 300000, Note_on_c, 6, 57, 95
4, 300000, Note_on_c, 6, 52, 95
4, 300000, Note_on_c, 6, 45, 95
4, 300480, Note_off_c, 6, 61, 95
4, 300480, Note_off_c, 6, 57, 95
4, 300480, Note_off_c, 6, 52, 95
4, 300480, Note_off_c, 6, 45, 95
4, 300480, Note_on_c, 6, 61, 95
4, 300480, Note_on_c, 6, 57, 95
4, 300480, Note_on_c, 6, 52, 95
4, 300480, Note_on_c, 6, 45, 95
4, 301200, Note_off_c, 6, 61, 95
4, 301200, Note_off_c, 6, 57, 95
4, 301200, Note_off_c, 6, 52, 95
4, 301200, Note_off_c, 6, 45, 95
4, 301200, Note_on_c, 6, 61, 95
4, 301200, Note_on_c, 6, 57, 95
4, 301200, Note_on_c, 6, 52, 95
4, 301200, Note_on_c, 6, 45, 95
4, 301440, Note_off_c, 6, 61, 95
4, 301440, Note_off_c, 6, 57, 95
4, 301440, Note_off_c, 6, 52, 95
4, 301440, Note_off_c, 6, 45, 95
4, 301440, Note_on_c, 6, 61, 95
4, 301440, Note_on_c, 6, 57, 95
4, 301440, Note_on_c, 6, 52, 95
4, 301440, Note_on_c, 6, 45, 95
4, 301920, Note_off_c, 6, 61, 95
4, 301920, Note_off_c, 6, 57, 95
4, 301920, Note_off_c, 6, 52, 95
4, 301920, Note_off_c, 6, 45, 95
4, 301920, Note_on_c, 6, 61, 95
4, 301920, Note_on_c, 6, 57, 95
4, 301920, Note_on_c, 6, 52, 95
4, 301920, Note_on_c, 6, 45, 95
4, 302400, Note_off_c, 6, 61, 95
4, 302400, Note_off_c, 6, 57, 95
4, 302400, Note_off_c, 6, 52, 95
4, 302400, Note_off_c, 6, 45, 95
4, 302400, Note_on_c, 6, 61, 95
4, 302400, Note_on_c, 6, 57, 95
4, 302400, Note_on_c, 6, 52, 95
4, 302400, Note_on_c, 6, 45, 95
4, 302880, Note_off_c, 6, 61, 95
4, 302880, Note_off_c, 6, 57, 95
4, 302880, Note_off_c, 6, 52, 95
4, 302880, Note_off_c, 6, 45, 95
4, 302880, Note_on_c, 6, 61, 95
4, 302880, Note_on_c, 6, 57, 95
4, 302880, Note_on_c, 6, 52, 95
4, 302880, Note_on_c, 6, 45, 95
4, 303360, Note_off_c, 6, 61, 95
4, 303360, Note_off_c, 6, 57, 95
4, 303360, Note_off_c, 6, 52, 95
4, 303360, Note_off_c, 6, 45, 95
4, 303360, Note_on_c, 6, 59, 95
4, 303360, Note_on_c, 6, 56, 95
4, 303360, Note_on_c, 6, 52, 95
4, 303360, Note_on_c, 6, 47, 95
4, 303840, Note_off_c, 6, 59, 95
4, 303840, Note_off_c, 6, 56, 95
4, 303840, Note_off_c, 6, 52, 95
4, 303840, Note_off_c, 6, 47, 95
4, 303840, Note_on_c, 6, 61, 95
4, 303840, Note_on_c, 6, 57, 95
4, 303840, Note_on_c, 6, 52, 95
4, 303840, Note_on_c, 6, 45, 95
4, 304320, Note_off_c, 6, 61, 95
4, 304320, Note_off_c, 6, 57, 95
4, 304320, Note_off_c, 6, 52, 95
4, 304320, Note_off_c, 6, 45, 95
4, 304320, Note_on_c, 6, 59, 95
4, 304320, Note_on_c, 6, 56, 95
4, 304320, Note_on_c, 6, 52, 95
4, 304320, Note_on_c, 6, 47, 95
4, 304800, Note_off_c, 6, 59, 95
4, 304800, Note_off_c, 6, 56, 95
4, 304800, Note_off_c, 6, 52, 95
4, 304800, Note_off_c, 6, 47, 95
4, 304800, Note_on_c, 6, 61, 95
4, 304800, Note_on_c, 6, 57, 95
4, 304800, Note_on_c, 6, 52, 95
4, 304800, Note_on_c, 6, 45, 95
4, 305280, Note_off_c, 6, 61, 95
4, 305280, Note_off_c, 6, 57, 95
4, 305280, Note_off_c, 6, 52, 95
4, 305280, Note_off_c, 6, 45, 95
4, 305280, Note_on_c, 6, 59, 95
4, 305280, Note_on_c, 6, 56, 95
4, 305280, Note_on_c, 6, 52, 95
4, 305280, Note_on_c, 6, 47, 95
4, 305760, Note_off_c, 6, 59, 95
4, 305760, Note_off_c, 6, 56, 95
4, 305760, Note_off_c, 6, 52, 95
4, 305760, Note_off_c, 6, 47, 95
4, 305760, Note_on_c, 6, 63, 95
4, 305760, Note_on_c, 6, 59, 95
4, 305760, Note_on_c, 6, 54, 95
4, 305760, Note_on_c, 6, 47, 95
4, 306240, Note_off_c, 6, 63, 95
4, 306240, Note_off_c, 6, 59, 95
4, 306240, Note_off_c, 6, 54, 95
4, 306240, Note_off_c, 6, 47, 95
4, 306240, Note_on_c, 6, 63, 95
4, 306240, Note_on_c, 6, 59, 95
4, 306240, Note_on_c, 6, 54, 95
4, 306240, Note_on_c, 6, 47, 95
4, 306720, Note_off_c, 6, 63, 95
4, 306720, Note_off_c, 6, 59, 95
4, 306720, Note_off_c, 6, 54, 95
4, 306720, Note_off_c, 6, 47, 95
4, 306720, Note_on_c, 6, 63, 95
4, 306720, Note_on_c, 6, 59, 95
4, 306720, Note_on_c, 6, 54, 95
4, 306720, Note_on_c, 6, 47, 95
4, 307200, Note_off_c, 6, 63, 95
4, 307200, Note_off_c, 6, 59, 95
4, 307200, Note_off_c, 6, 54, 95
4, 307200, Note_off_c, 6, 47, 95
4, 307200, Note_on_c, 6, 61, 95
4, 307200, Note_on_c, 6, 56, 95
4, 307200, Note_on_c, 6, 49, 95
4, 307680, Note_off_c, 6, 61, 95
4, 307680, Note_off_c, 6, 56, 95
4, 307680, Note_off_c, 6, 49, 95
4, 307680, Note_on_c, 6, 65, 95
4, 307680, Note_on_c, 6, 61, 95
4, 307680, Note_on_c, 6, 56, 95
4, 307680, Note_on_c, 6, 49, 95
4, 308160, Note_off_c, 6, 65, 95
4, 308160, Note_off_c, 6, 61, 95
4, 308160, Note_off_c, 6, 56, 95
4, 308160, Note_off_c, 6, 49, 95
4, 308160, Note_on_c, 6, 65, 95
4, 308160, Note_on_c, 6, 61, 95
4, 308160, Note_on_c, 6, 56, 95
4, 308160, Note_on_c, 6, 49, 95
4, 308880, Note_off_c, 6, 65, 95
4, 308880, Note_off_c, 6, 61, 95
4, 308880, Note_off_c, 6, 56, 95
4, 308880, Note_off_c, 6, 49, 95
4, 308880, Note_on_c, 6, 65, 95
4, 308880, Note_on_c, 6, 61, 95
4, 308880, Note_on_c, 6, 56, 95
4, 308880, Note_on_c, 6, 49, 95
4, 309120, Note_off_c, 6, 65, 95
4, 309120, Note_off_c, 6, 61, 95
4, 309120, Note_off_c, 6, 56, 95
4, 309120, Note_off_c, 6, 49, 95
4, 309120, Note_on_c, 6, 65, 95
4, 309120, Note_on_c, 6, 61, 95
4, 309120, Note_on_c, 6, 56, 95
4, 309120, Note_on_c, 6, 49, 95
4, 309600, Note_off_c, 6, 65, 95
4, 309600, Note_off_c, 6, 61, 95
4, 309600, Note_off_c, 6, 56, 95
4, 309600, Note_off_c, 6, 49, 95
4, 309600, Note_on_c, 6, 65, 95
4, 309600, Note_on_c, 6, 61, 95
4, 309600, Note_on_c, 6, 56, 95
4, 309600, Note_on_c, 6, 49, 95
4, 310080, Note_off_c, 6, 65, 95
4, 310080, Note_off_c, 6, 61, 95
4, 310080, Note_off_c, 6, 56, 95
4, 310080, Note_off_c, 6, 49, 95
4, 310080, Note_on_c, 6, 65, 95
4, 310080, Note_on_c, 6, 61, 95
4, 310080, Note_on_c, 6, 56, 95
4, 310080, Note_on_c, 6, 49, 95
4, 310560, Note_off_c, 6, 65, 95
4, 310560, Note_off_c, 6, 61, 95
4, 310560, Note_off_c, 6, 56, 95
4, 310560, Note_off_c, 6, 49, 95
4, 310560, Note_on_c, 6, 65, 95
4, 310560, Note_on_c, 6, 61, 95
4, 310560, Note_on_c, 6, 56, 95
4, 310560, Note_on_c, 6, 49, 95
4, 311040, Note_off_c, 6, 65, 95
4, 311040, Note_off_c, 6, 61, 95
4, 311040, Note_off_c, 6, 56, 95
4, 311040, Note_off_c, 6, 49, 95
4, 311040, Note_on_c, 6, 63, 95
4, 311040, Note_on_c, 6, 59, 95
4, 311040, Note_on_c, 6, 54, 95
4, 311040, Note_on_c, 6, 47, 95
4, 311520, Note_off_c, 6, 63, 95
4, 311520, Note_off_c, 6, 59, 95
4, 311520, Note_off_c, 6, 54, 95
4, 311520, Note_off_c, 6, 47, 95
4, 311520, Note_on_c, 6, 63, 95
4, 311520, Note_on_c, 6, 59, 95
4, 311520, Note_on_c, 6, 54, 95
4, 311520, Note_on_c, 6, 47, 95
4, 312000, Note_off_c, 6, 63, 95
4, 312000, Note_off_c, 6, 59, 95
4, 312000, Note_off_c, 6, 54, 95
4, 312000, Note_off_c, 6, 47, 95
4, 312000, Note_on_c, 6, 63, 95
4, 312000, Note_on_c, 6, 59, 95
4, 312000, Note_on_c, 6, 54, 95
4, 312000, Note_on_c, 6, 47, 95
4, 312720, Note_off_c, 6, 63, 95
4, 312720, Note_off_c, 6, 59, 95
4, 312720, Note_off_c, 6, 54, 95
4, 312720, Note_off_c, 6, 47, 95
4, 312720, Note_on_c, 6, 63, 95
4, 312720, Note_on_c, 6, 59, 95
4, 312720, Note_on_c, 6, 54, 95
4, 312720, Note_on_c, 6, 47, 95
4, 312960, Note_off_c, 6, 63, 95
4, 312960, Note_off_c, 6, 59, 95
4, 312960, Note_off_c, 6, 54, 95
4, 312960, Note_off_c, 6, 47, 95
4, 312960, Note_on_c, 6, 63, 95
4, 312960, Note_on_c, 6, 59, 95
4, 312960, Note_on_c, 6, 54, 95
4, 312960, Note_on_c, 6, 47, 95
4, 313440, Note_off_c, 6, 63, 95
4, 313440, Note_off_c, 6, 59, 95
4, 313440, Note_off_c, 6, 54, 95
4, 313440, Note_off_c, 6, 47, 95
4, 313440, Note_on_c, 6, 63, 95
4, 313440, Note_on_c, 6, 59, 95
4, 313440, Note_on_c, 6, 54, 95
4, 313440, Note_on_c, 6, 47, 95
4, 313920, Note_off_c, 6, 63, 95
4, 313920, Note_off_c, 6, 59, 95
4, 313920, Note_off_c, 6, 54, 95
4, 313920, Note_off_c, 6, 47, 95
4, 313920, Note_on_c, 6, 63, 95
4, 313920, Note_on_c, 6, 59, 95
4, 313920, Note_on_c, 6, 54, 95
4, 313920, Note_on_c, 6, 47, 95
4, 314400, Note_off_c, 6, 63, 95
4, 314400, Note_off_c, 6, 59, 95
4, 314400, Note_off_c, 6, 54, 95
4, 314400, Note_off_c, 6, 47, 95
4, 314400, Note_on_c, 6, 63, 95
4, 314400, Note_on_c, 6, 59, 95
4, 314400, Note_on_c, 6, 54, 95
4, 314400, Note_on_c, 6, 47, 95
4, 314880, Note_off_c, 6, 63, 95
4, 314880, Note_off_c, 6, 59, 95
4, 314880, Note_off_c, 6, 54, 95
4, 314880, Note_off_c, 6, 47, 95
4, 314880, Note_on_c, 6, 61, 95
4, 314880, Note_on_c, 6, 57, 95
4, 314880, Note_on_c, 6, 52, 95
4, 314880, Note_on_c, 6, 45, 95
4, 315360, Note_off_c, 6, 61, 95
4, 315360, Note_off_c, 6, 57, 95
4, 315360, Note_off_c, 6, 52, 95
4, 315360, Note_off_c, 6, 45, 95
4, 315360, Note_on_c, 6, 61, 95
4, 315360, Note_on_c, 6, 57, 95
4, 315360, Note_on_c, 6, 52, 95
4, 315360, Note_on_c, 6, 45, 95
4, 315840, Note_off_c, 6, 61, 95
4, 315840, Note_off_c, 6, 57, 95
4, 315840, Note_off_c, 6, 52, 95
4, 315840, Note_off_c, 6, 45, 95
4, 315840, Note_on_c, 6, 61, 95
4, 315840, Note_on_c, 6, 57, 95
4, 315840, Note_on_c, 6, 52, 95
4, 315840, Note_on_c, 6, 45, 95
4, 316560, Note_off_c, 6, 61, 95
4, 316560, Note_off_c, 6, 57, 95
4, 316560, Note_off_c, 6, 52, 95
4, 316560, Note_off_c, 6, 45, 95
4, 316560, Note_on_c, 6, 61, 95
4, 316560, Note_on_c, 6, 57, 95
4, 316560, Note_on_c, 6, 52, 95
4, 316560, Note_on_c, 6, 45, 95
4, 316800, Note_off_c, 6, 61, 95
4, 316800, Note_off_c, 6, 57, 95
4, 316800, Note_off_c, 6, 52, 95
4, 316800, Note_off_c, 6, 45, 95
4, 316800, Note_on_c, 6, 61, 95
4, 316800, Note_on_c, 6, 57, 95
4, 316800, Note_on_c, 6, 52, 95
4, 316800, Note_on_c, 6, 45, 95
4, 317280, Note_off_c, 6, 61, 95
4, 317280, Note_off_c, 6, 57, 95
4, 317280, Note_off_c, 6, 52, 95
4, 317280, Note_off_c, 6, 45, 95
4, 317280, Note_on_c, 6, 61, 95
4, 317280, Note_on_c, 6, 57, 95
4, 317280, Note_on_c, 6, 52, 95
4, 317280, Note_on_c, 6, 45, 95
4, 317760, Note_off_c, 6, 61, 95
4, 317760, Note_off_c, 6, 57, 95
4, 317760, Note_off_c, 6, 52, 95
4, 317760, Note_off_c, 6, 45, 95
4, 317760, Note_on_c, 6, 61, 95
4, 317760, Note_on_c, 6, 57, 95
4, 317760, Note_on_c, 6, 52, 95
4, 317760, Note_on_c, 6, 45, 95
4, 318240, Note_off_c, 6, 61, 95
4, 318240, Note_off_c, 6, 57, 95
4, 318240, Note_off_c, 6, 52, 95
4, 318240, Note_off_c, 6, 45, 95
4, 318240, Note_on_c, 6, 61, 95
4, 318240, Note_on_c, 6, 57, 95
4, 318240, Note_on_c, 6, 52, 95
4, 318240, Note_on_c, 6, 45, 95
4, 318720, Note_off_c, 6, 61, 95
4, 318720, Note_off_c, 6, 57, 95
4, 318720, Note_off_c, 6, 52, 95
4, 318720, Note_off_c, 6, 45, 95
4, 318720, Note_on_c, 6, 59, 95
4, 318720, Note_on_c, 6, 56, 95
4, 318720, Note_on_c, 6, 52, 95
4, 318720, Note_on_c, 6, 47, 95
4, 319200, Note_off_c, 6, 59, 95
4, 319200, Note_off_c, 6, 56, 95
4, 319200, Note_off_c, 6, 52, 95
4, 319200, Note_off_c, 6, 47, 95
4, 319200, Note_on_c, 6, 61, 95
4, 319200, Note_on_c, 6, 57, 95
4, 319200, Note_on_c, 6, 52, 95
4, 319200, Note_on_c, 6, 45, 95
4, 319680, Note_off_c, 6, 61, 95
4, 319680, Note_off_c, 6, 57, 95
4, 319680, Note_off_c, 6, 52, 95
4, 319680, Note_off_c, 6, 45, 95
4, 319680, Note_on_c, 6, 59, 95
4, 319680, Note_on_c, 6, 56, 95
4, 319680, Note_on_c, 6, 52, 95
4, 319680, Note_on_c, 6, 47, 95
4, 320160, Note_off_c, 6, 59, 95
4, 320160, Note_off_c, 6, 56, 95
4, 320160, Note_off_c, 6, 52, 95
4, 320160, Note_off_c, 6, 47, 95
4, 320160, Note_on_c, 6, 61, 95
4, 320160, Note_on_c, 6, 57, 95
4, 320160, Note_on_c, 6, 52, 95
4, 320160, Note_on_c, 6, 45, 95
4, 320640, Note_off_c, 6, 61, 95
4, 320640, Note_off_c, 6, 57, 95
4, 320640, Note_off_c, 6, 52, 95
4, 320640, Note_off_c, 6, 45, 95
4, 320640, Note_on_c, 6, 59, 95
4, 320640, Note_on_c, 6, 56, 95
4, 320640, Note_on_c, 6, 52, 95
4, 320640, Note_on_c, 6, 47, 95
4, 321120, Note_off_c, 6, 59, 95
4, 321120, Note_off_c, 6, 56, 95
4, 321120, Note_off_c, 6, 52, 95
4, 321120, Note_off_c, 6, 47, 95
4, 321120, Note_on_c, 6, 63, 95
4, 321120, Note_on_c, 6, 59, 95
4, 321120, Note_on_c, 6, 54, 95
4, 321120, Note_on_c, 6, 47, 95
4, 321600, Note_off_c, 6, 63, 95
4, 321600, Note_off_c, 6, 59, 95
4, 321600, Note_off_c, 6, 54, 95
4, 321600, Note_off_c, 6, 47, 95
4, 321600, Note_on_c, 6, 63, 95
4, 321600, Note_on_c, 6, 59, 95
4, 321600, Note_on_c, 6, 54, 95
4, 321600, Note_on_c, 6, 47, 95
4, 322080, Note_off_c, 6, 63, 95
4, 322080, Note_off_c, 6, 59, 95
4, 322080, Note_off_c, 6, 54, 95
4, 322080, Note_off_c, 6, 47, 95
4, 322080, Note_on_c, 6, 63, 95
4, 322080, Note_on_c, 6, 59, 95
4, 322080, Note_on_c, 6, 54, 95
4, 322080, Note_on_c, 6, 47, 95
4, 322560, Note_off_c, 6, 63, 95
4, 322560, Note_off_c, 6, 59, 95
4, 322560, Note_off_c, 6, 54, 95
4, 322560, Note_off_c, 6, 47, 95
4, 322560, Note_on_c, 6, 61, 95
4, 322560, Note_on_c, 6, 56, 95
4, 322560, Note_on_c, 6, 49, 95
4, 323520, Note_off_c, 6, 61, 95
4, 323520, Note_off_c, 6, 56, 95
4, 323520, Note_off_c, 6, 49, 95
4, 323520, Note_on_c, 6, 65, 95
4, 323520, Note_on_c, 6, 61, 95
4, 323520, Note_on_c, 6, 56, 95
4, 323520, Note_on_c, 6, 49, 95
4, 324240, Note_off_c, 6, 65, 95
4, 324240, Note_off_c, 6, 61, 95
4, 324240, Note_off_c, 6, 56, 95
4, 324240, Note_off_c, 6, 49, 95
4, 324240, Note_on_c, 6, 66, 95
4, 324240, Note_on_c, 6, 61, 95
4, 324240, Note_on_c, 6, 56, 95
4, 324240, Note_on_c, 6, 49, 95
4, 324480, Note_off_c, 6, 66, 95
4, 324480, Note_off_c, 6, 61, 95
4, 324480, Note_off_c, 6, 56, 95
4, 324480, Note_off_c, 6, 49, 95
4, 324480, Note_on_c, 6, 66, 95
4, 324480, Note_on_c, 6, 61, 95
4, 324480, Note_on_c, 6, 56, 95
4, 324480, Note_on_c, 6, 49, 95
4, 324960, Note_off_c, 6, 66, 95
4, 324960, Note_off_c, 6, 61, 95
4, 324960, Note_off_c, 6, 56, 95
4, 324960, Note_off_c, 6, 49, 95
4, 324960, Note_on_c, 6, 66, 95
4, 324960, Note_on_c, 6, 61, 95
4, 324960, Note_on_c, 6, 56, 95
4, 324960, Note_on_c, 6, 49, 95
4, 325440, Note_off_c, 6, 66, 95
4, 325440, Note_off_c, 6, 61, 95
4, 325440, Note_off_c, 6, 56, 95
4, 325440, Note_off_c, 6, 49, 95
4, 325440, Note_on_c, 6, 66, 95
4, 325440, Note_on_c, 6, 61, 95
4, 325440, Note_on_c, 6, 56, 95
4, 325440, Note_on_c, 6, 49, 95
4, 325920, Note_off_c, 6, 66, 95
4, 325920, Note_off_c, 6, 61, 95
4, 325920, Note_off_c, 6, 56, 95
4, 325920, Note_off_c, 6, 49, 95
4, 325920, Note_on_c, 6, 56, 95
4, 325920, Note_on_c, 6, 52, 95
4, 325920, Note_on_c, 6, 47, 95
4, 325920, Note_on_c, 6, 40, 95
4, 325979, Note_off_c, 6, 56, 95
4, 325979, Note_off_c, 6, 52, 95
4, 325979, Note_off_c, 6, 47, 95
4, 325979, Note_off_c, 6, 40, 95
4, 326400, Note_on_c, 6, 59, 95
4, 326400, Note_on_c, 6, 54, 95
4, 326400, Note_on_c, 6, 47, 95
4, 327360, Note_off_c, 6, 59, 95
4, 327360, Note_off_c, 6, 54, 95
4, 327360, Note_off_c, 6, 47, 95
4, 327360, Note_on_c, 6, 64, 95
4, 327360, Note_on_c, 6, 59, 95
4, 327360, Note_on_c, 6, 54, 95
4, 327360, Note_on_c, 6, 47, 95
4, 328080, Note_off_c, 6, 64, 95
4, 328080, Note_off_c, 6, 59, 95
4, 328080, Note_off_c, 6, 54, 95
4, 328080, Note_off_c, 6, 47, 95
4, 328080, Note_on_c, 6, 64, 95
4, 328080, Note_on_c, 6, 59, 95
4, 328080, Note_on_c, 6, 54, 95
4, 328080, Note_on_c, 6, 47, 95
4, 328320, Note_off_c, 6, 64, 95
4, 328320, Note_off_c, 6, 59, 95
4, 328320, Note_off_c, 6, 54, 95
4, 328320, Note_off_c, 6, 47, 95
4, 328320, Note_on_c, 6, 64, 95
4, 328320, Note_on_c, 6, 59, 95
4, 328320, Note_on_c, 6, 54, 95
4, 328320, Note_on_c, 6, 47, 95
4, 328800, Note_off_c, 6, 64, 95
4, 328800, Note_off_c, 6, 59, 95
4, 328800, Note_off_c, 6, 54, 95
4, 328800, Note_off_c, 6, 47, 95
4, 328800, Note_on_c, 6, 64, 95
4, 328800, Note_on_c, 6, 59, 95
4, 328800, Note_on_c, 6, 54, 95
4, 328800, Note_on_c, 6, 47, 95
4, 329280, Note_off_c, 6, 64, 95
4, 329280, Note_off_c, 6, 59, 95
4, 329280, Note_off_c, 6, 54, 95
4, 329280, Note_off_c, 6, 47, 95
4, 329280, Note_on_c, 6, 64, 95
4, 329280, Note_on_c, 6, 59, 95
4, 329280, Note_on_c, 6, 54, 95
4, 329280, Note_on_c, 6, 47, 95
4, 329760, Note_off_c, 6, 64, 95
4, 329760, Note_off_c, 6, 59, 95
4, 329760, Note_off_c, 6, 54, 95
4, 329760, Note_off_c, 6, 47, 95
4, 329760, Note_on_c, 6, 56, 95
4, 329760, Note_on_c, 6, 52, 95
4, 329760, Note_on_c, 6, 47, 95
4, 329760, Note_on_c, 6, 40, 95
4, 329819, Note_off_c, 6, 56, 95
4, 329819, Note_off_c, 6, 52, 95
4, 329819, Note_off_c, 6, 47, 95
4, 329819, Note_off_c, 6, 40, 95
4, 330240, Note_on_c, 6, 61, 95
4, 330240, Note_on_c, 6, 57, 95
4, 330240, Note_on_c, 6, 52, 95
4, 330240, Note_on_c, 6, 45, 95
4, 330720, Note_off_c, 6, 61, 95
4, 330720, Note_off_c, 6, 57, 95
4, 330720, Note_off_c, 6, 52, 95
4, 330720, Note_off_c, 6, 45, 95
4, 330720, Note_on_c, 6, 61, 95
4, 330720, Note_on_c, 6, 57, 95
4, 330720, Note_on_c, 6, 52, 95
4, 330720, Note_on_c, 6, 45, 95
4, 331200, Note_off_c, 6, 61, 95
4, 331200, Note_off_c, 6, 57, 95
4, 331200, Note_off_c, 6, 52, 95
4, 331200, Note_off_c, 6, 45, 95
4, 331200, Note_on_c, 6, 61, 95
4, 331200, Note_on_c, 6, 57, 95
4, 331200, Note_on_c, 6, 52, 95
4, 331200, Note_on_c, 6, 45, 95
4, 331920, Note_off_c, 6, 61, 95
4, 331920, Note_off_c, 6, 57, 95
4, 331920, Note_off_c, 6, 52, 95
4, 331920, Note_off_c, 6, 45, 95
4, 331920, Note_on_c, 6, 61, 95
4, 331920, Note_on_c, 6, 57, 95
4, 331920, Note_on_c, 6, 52, 95
4, 331920, Note_on_c, 6, 45, 95
4, 332160, Note_off_c, 6, 61, 95
4, 332160, Note_off_c, 6, 57, 95
4, 332160, Note_off_c, 6, 52, 95
4, 332160, Note_off_c, 6, 45, 95
4, 332160, Note_on_c, 6, 61, 95
4, 332160, Note_on_c, 6, 57, 95
4, 332160, Note_on_c, 6, 52, 95
4, 332160, Note_on_c, 6, 45, 95
4, 332640, Note_off_c, 6, 61, 95
4, 332640, Note_off_c, 6, 57, 95
4, 332640, Note_off_c, 6, 52, 95
4, 332640, Note_off_c, 6, 45, 95
4, 332640, Note_on_c, 6, 61, 95
4, 332640, Note_on_c, 6, 57, 95
4, 332640, Note_on_c, 6, 52, 95
4, 332640, Note_on_c, 6, 45, 95
4, 333120, Note_off_c, 6, 61, 95
4, 333120, Note_off_c, 6, 57, 95
4, 333120, Note_off_c, 6, 52, 95
4, 333120, Note_off_c, 6, 45, 95
4, 333120, Note_on_c, 6, 61, 95
4, 333120, Note_on_c, 6, 57, 95
4, 333120, Note_on_c, 6, 52, 95
4, 333120, Note_on_c, 6, 45, 95
4, 333600, Note_off_c, 6, 61, 95
4, 333600, Note_off_c, 6, 57, 95
4, 333600, Note_off_c, 6, 52, 95
4, 333600, Note_off_c, 6, 45, 95
4, 333600, Note_on_c, 6, 56, 95
4, 333600, Note_on_c, 6, 52, 95
4, 333600, Note_on_c, 6, 47, 95
4, 333600, Note_on_c, 6, 40, 95
4, 333659, Note_off_c, 6, 56, 95
4, 333659, Note_off_c, 6, 52, 95
4, 333659, Note_off_c, 6, 47, 95
4, 333659, Note_off_c, 6, 40, 95
4, 334080, Note_on_c, 6, 59, 95
4, 334080, Note_on_c, 6, 56, 95
4, 334080, Note_on_c, 6, 52, 95
4, 334080, Note_on_c, 6, 47, 95
4, 334560, Note_off_c, 6, 59, 95
4, 334560, Note_off_c, 6, 56, 95
4, 334560, Note_off_c, 6, 52, 95
4, 334560, Note_off_c, 6, 47, 95
4, 334560, Note_on_c, 6, 61, 95
4, 334560, Note_on_c, 6, 57, 95
4, 334560, Note_on_c, 6, 52, 95
4, 334560, Note_on_c, 6, 45, 95
4, 335040, Note_off_c, 6, 61, 95
4, 335040, Note_off_c, 6, 57, 95
4, 335040, Note_off_c, 6, 52, 95
4, 335040, Note_off_c, 6, 45, 95
4, 335040, Note_on_c, 6, 59, 95
4, 335040, Note_on_c, 6, 56, 95
4, 335040, Note_on_c, 6, 52, 95
4, 335040, Note_on_c, 6, 47, 95
4, 335520, Note_off_c, 6, 59, 95
4, 335520, Note_off_c, 6, 56, 95
4, 335520, Note_off_c, 6, 52, 95
4, 335520, Note_off_c, 6, 47, 95
4, 335520, Note_on_c, 6, 61, 95
4, 335520, Note_on_c, 6, 57, 95
4, 335520, Note_on_c, 6, 52, 95
4, 335520, Note_on_c, 6, 45, 95
4, 336000, Note_off_c, 6, 61, 95
4, 336000, Note_off_c, 6, 57, 95
4, 336000, Note_off_c, 6, 52, 95
4, 336000, Note_off_c, 6, 45, 95
4, 336000, Note_on_c, 6, 64, 95
4, 336000, Note_on_c, 6, 59, 95
4, 336000, Note_on_c, 6, 54, 95
4, 336000, Note_on_c, 6, 47, 95
4, 336480, Note_off_c, 6, 64, 95
4, 336480, Note_off_c, 6, 59, 95
4, 336480, Note_off_c, 6, 54, 95
4, 336480, Note_off_c, 6, 47, 95
4, 336480, Note_on_c, 6, 64, 95
4, 336480, Note_on_c, 6, 59, 95
4, 336480, Note_on_c, 6, 54, 95
4, 336480, Note_on_c, 6, 47, 95
4, 336960, Note_off_c, 6, 64, 95
4, 336960, Note_off_c, 6, 59, 95
4, 336960, Note_off_c, 6, 54, 95
4, 336960, Note_off_c, 6, 47, 95
4, 336960, Note_on_c, 6, 64, 95
4, 336960, Note_on_c, 6, 59, 95
4, 336960, Note_on_c, 6, 54, 95
4, 336960, Note_on_c, 6, 47, 95
4, 337440, Note_off_c, 6, 64, 95
4, 337440, Note_off_c, 6, 59, 95
4, 337440, Note_off_c, 6, 54, 95
4, 337440, Note_off_c, 6, 47, 95
4, 337440, Note_on_c, 6, 61, 95
4, 337440, Note_on_c, 6, 56, 95
4, 337440, Note_on_c, 6, 49, 95
4, 337920, Note_off_c, 6, 61, 95
4, 337920, Note_off_c, 6, 56, 95
4, 337920, Note_off_c, 6, 49, 95
4, 337920, Note_on_c, 6, 61, 95
4, 337920, Note_on_c, 6, 56, 95
4, 337920, Note_on_c, 6, 49, 95
4, 338880, Note_off_c, 6, 61, 95
4, 338880, Note_off_c, 6, 56, 95
4, 338880, Note_off_c, 6, 49, 95
4, 338880, Note_on_c, 6, 65, 95
4, 338880, Note_on_c, 6, 61, 95
4, 338880, Note_on_c, 6, 56, 95
4, 338880, Note_on_c, 6, 49, 95
4, 339600, Note_off_c, 6, 65, 95
4, 339600, Note_off_c, 6, 61, 95
4, 339600, Note_off_c, 6, 56, 95
4, 339600, Note_off_c, 6, 49, 95
4, 339600, Note_on_c, 6, 66, 95
4, 339600, Note_on_c, 6, 61, 95
4, 339600, Note_on_c, 6, 56, 95
4, 339600, Note_on_c, 6, 49, 95
4, 339840, Note_off_c, 6, 66, 95
4, 339840, Note_off_c, 6, 61, 95
4, 339840, Note_off_c, 6, 56, 95
4, 339840, Note_off_c, 6, 49, 95
4, 339840, Note_on_c, 6, 66, 95
4, 339840, Note_on_c, 6, 61, 95
4, 339840, Note_on_c, 6, 56, 95
4, 339840, Note_on_c, 6, 49, 95
4, 340320, Note_off_c, 6, 66, 95
4, 340320, Note_off_c, 6, 61, 95
4, 340320, Note_off_c, 6, 56, 95
4, 340320, Note_off_c, 6, 49, 95
4, 340320, Note_on_c, 6, 66, 95
4, 340320, Note_on_c, 6, 61, 95
4, 340320, Note_on_c, 6, 56, 95
4, 340320, Note_on_c, 6, 49, 95
4, 340800, Note_off_c, 6, 66, 95
4, 340800, Note_off_c, 6, 61, 95
4, 340800, Note_off_c, 6, 56, 95
4, 340800, Note_off_c, 6, 49, 95
4, 340800, Note_on_c, 6, 66, 95
4, 340800, Note_on_c, 6, 61, 95
4, 340800, Note_on_c, 6, 56, 95
4, 340800, Note_on_c, 6, 49, 95
4, 341280, Note_off_c, 6, 66, 95
4, 341280, Note_off_c, 6, 61, 95
4, 341280, Note_off_c, 6, 56, 95
4, 341280, Note_off_c, 6, 49, 95
4, 341280, Note_on_c, 6, 56, 95
4, 341280, Note_on_c, 6, 52, 95
4, 341280, Note_on_c, 6, 47, 95
4, 341280, Note_on_c, 6, 40, 95
4, 341339, Note_off_c, 6, 56, 95
4, 341339, Note_off_c, 6, 52, 95
4, 341339, Note_off_c, 6, 47, 95
4, 341339, Note_off_c, 6, 40, 95
4, 341760, Note_on_c, 6, 59, 95
4, 341760, Note_on_c, 6, 54, 95
4, 341760, Note_on_c, 6, 47, 95
4, 342720, Note_off_c, 6, 59, 95
4, 342720, Note_off_c, 6, 54, 95
4, 342720, Note_off_c, 6, 47, 95
4, 342720, Note_on_c, 6, 64, 95
4, 342720, Note_on_c, 6, 59, 95
4, 342720, Note_on_c, 6, 54, 95
4, 342720, Note_on_c, 6, 47, 95
4, 343440, Note_off_c, 6, 64, 95
4, 343440, Note_off_c, 6, 59, 95
4, 343440, Note_off_c, 6, 54, 95
4, 343440, Note_off_c, 6, 47, 95
4, 343440, Note_on_c, 6, 64, 95
4, 343440, Note_on_c, 6, 59, 95
4, 343440, Note_on_c, 6, 54, 95
4, 343440, Note_on_c, 6, 47, 95
4, 343680, Note_off_c, 6, 64, 95
4, 343680, Note_off_c, 6, 59, 95
4, 343680, Note_off_c, 6, 54, 95
4, 343680, Note_off_c, 6, 47, 95
4, 343680, Note_on_c, 6, 64, 95
4, 343680, Note_on_c, 6, 59, 95
4, 343680, Note_on_c, 6, 54, 95
4, 343680, Note_on_c, 6, 47, 95
4, 344160, Note_off_c, 6, 64, 95
4, 344160, Note_off_c, 6, 59, 95
4, 344160, Note_off_c, 6, 54, 95
4, 344160, Note_off_c, 6, 47, 95
4, 344160, Note_on_c, 6, 64, 95
4, 344160, Note_on_c, 6, 59, 95
4, 344160, Note_on_c, 6, 54, 95
4, 344160, Note_on_c, 6, 47, 95
4, 344640, Note_off_c, 6, 64, 95
4, 344640, Note_off_c, 6, 59, 95
4, 344640, Note_off_c, 6, 54, 95
4, 344640, Note_off_c, 6, 47, 95
4, 344640, Note_on_c, 6, 64, 95
4, 344640, Note_on_c, 6, 59, 95
4, 344640, Note_on_c, 6, 54, 95
4, 344640, Note_on_c, 6, 47, 95
4, 345120, Note_off_c, 6, 64, 95
4, 345120, Note_off_c, 6, 59, 95
4, 345120, Note_off_c, 6, 54, 95
4, 345120, Note_off_c, 6, 47, 95
4, 345120, Note_on_c, 6, 56, 95
4, 345120, Note_on_c, 6, 52, 95
4, 345120, Note_on_c, 6, 47, 95
4, 345120, Note_on_c, 6, 40, 95
4, 345179, Note_off_c, 6, 56, 95
4, 345179, Note_off_c, 6, 52, 95
4, 345179, Note_off_c, 6, 47, 95
4, 345179, Note_off_c, 6, 40, 95
4, 345600, Note_on_c, 6, 61, 95
4, 345600, Note_on_c, 6, 57, 95
4, 345600, Note_on_c, 6, 52, 95
4, 345600, Note_on_c, 6, 45, 95
4, 346080, Note_off_c, 6, 61, 95
4, 346080, Note_off_c, 6, 57, 95
4, 346080, Note_off_c, 6, 52, 95
4, 346080, Note_off_c, 6, 45, 95
4, 346080, Note_on_c, 6, 61, 95
4, 346080, Note_on_c, 6, 57, 95
4, 346080, Note_on_c, 6, 52, 95
4, 346080, Note_on_c, 6, 45, 95
4, 346560, Note_off_c, 6, 61, 95
4, 346560, Note_off_c, 6, 57, 95
4, 346560, Note_off_c, 6, 52, 95
4, 346560, Note_off_c, 6, 45, 95
4, 346560, Note_on_c, 6, 61, 95
4, 346560, Note_on_c, 6, 57, 95
4, 346560, Note_on_c, 6, 52, 95
4, 346560, Note_on_c, 6, 45, 95
4, 347280, Note_off_c, 6, 61, 95
4, 347280, Note_off_c, 6, 57, 95
4, 347280, Note_off_c, 6, 52, 95
4, 347280, Note_off_c, 6, 45, 95
4, 347280, Note_on_c, 6, 61, 95
4, 347280, Note_on_c, 6, 57, 95
4, 347280, Note_on_c, 6, 52, 95
4, 347280, Note_on_c, 6, 45, 95
4, 347520, Note_off_c, 6, 61, 95
4, 347520, Note_off_c, 6, 57, 95
4, 347520, Note_off_c, 6, 52, 95
4, 347520, Note_off_c, 6, 45, 95
4, 347520, Note_on_c, 6, 61, 95
4, 347520, Note_on_c, 6, 57, 95
4, 347520, Note_on_c, 6, 52, 95
4, 347520, Note_on_c, 6, 45, 95
4, 348000, Note_off_c, 6, 61, 95
4, 348000, Note_off_c, 6, 57, 95
4, 348000, Note_off_c, 6, 52, 95
4, 348000, Note_off_c, 6, 45, 95
4, 348000, Note_on_c, 6, 61, 95
4, 348000, Note_on_c, 6, 57, 95
4, 348000, Note_on_c, 6, 52, 95
4, 348000, Note_on_c, 6, 45, 95
4, 348480, Note_off_c, 6, 61, 95
4, 348480, Note_off_c, 6, 57, 95
4, 348480, Note_off_c, 6, 52, 95
4, 348480, Note_off_c, 6, 45, 95
4, 348480, Note_on_c, 6, 61, 95
4, 348480, Note_on_c, 6, 57, 95
4, 348480, Note_on_c, 6, 52, 95
4, 348480, Note_on_c, 6, 45, 95
4, 348960, Note_off_c, 6, 61, 95
4, 348960, Note_off_c, 6, 57, 95
4, 348960, Note_off_c, 6, 52, 95
4, 348960, Note_off_c, 6, 45, 95
4, 348960, Note_on_c, 6, 56, 95
4, 348960, Note_on_c, 6, 52, 95
4, 348960, Note_on_c, 6, 47, 95
4, 348960, Note_on_c, 6, 40, 95
4, 349019, Note_off_c, 6, 56, 95
4, 349019, Note_off_c, 6, 52, 95
4, 349019, Note_off_c, 6, 47, 95
4, 349019, Note_off_c, 6, 40, 95
4, 349440, Note_on_c, 6, 59, 95
4, 349440, Note_on_c, 6, 56, 95
4, 349440, Note_on_c, 6, 52, 95
4, 349440, Note_on_c, 6, 47, 95
4, 349920, Note_off_c, 6, 59, 95
4, 349920, Note_off_c, 6, 56, 95
4, 349920, Note_off_c, 6, 52, 95
4, 349920, Note_off_c, 6, 47, 95
4, 349920, Note_on_c, 6, 61, 95
4, 349920, Note_on_c, 6, 57, 95
4, 349920, Note_on_c, 6, 52, 95
4, 349920, Note_on_c, 6, 45, 95
4, 350400, Note_off_c, 6, 61, 95
4, 350400, Note_off_c, 6, 57, 95
4, 350400, Note_off_c, 6, 52, 95
4, 350400, Note_off_c, 6, 45, 95
4, 350400, Note_on_c, 6, 59, 95
4, 350400, Note_on_c, 6, 56, 95
4, 350400, Note_on_c, 6, 52, 95
4, 350400, Note_on_c, 6, 47, 95
4, 350880, Note_off_c, 6, 59, 95
4, 350880, Note_off_c, 6, 56, 95
4, 350880, Note_off_c, 6, 52, 95
4, 350880, Note_off_c, 6, 47, 95
4, 350880, Note_on_c, 6, 61, 95
4, 350880, Note_on_c, 6, 57, 95
4, 350880, Note_on_c, 6, 52, 95
4, 350880, Note_on_c, 6, 45, 95
4, 351360, Note_off_c, 6, 61, 95
4, 351360, Note_off_c, 6, 57, 95
4, 351360, Note_off_c, 6, 52, 95
4, 351360, Note_off_c, 6, 45, 95
4, 351360, Note_on_c, 6, 64, 95
4, 351360, Note_on_c, 6, 59, 95
4, 351360, Note_on_c, 6, 54, 95
4, 351360, Note_on_c, 6, 47, 95
4, 351840, Note_off_c, 6, 64, 95
4, 351840, Note_off_c, 6, 59, 95
4, 351840, Note_off_c, 6, 54, 95
4, 351840, Note_off_c, 6, 47, 95
4, 351840, Note_on_c, 6, 64, 95
4, 351840, Note_on_c, 6, 59, 95
4, 351840, Note_on_c, 6, 54, 95
4, 351840, Note_on_c, 6, 47, 95
4, 352320, Note_off_c, 6, 64, 95
4, 352320, Note_off_c, 6, 59, 95
4, 352320, Note_off_c, 6, 54, 95
4, 352320, Note_off_c, 6, 47, 95
4, 352320, Note_on_c, 6, 64, 95
4, 352320, Note_on_c, 6, 59, 95
4, 352320, Note_on_c, 6, 54, 95
4, 352320, Note_on_c, 6, 47, 95
4, 352800, Note_off_c, 6, 64, 95
4, 352800, Note_off_c, 6, 59, 95
4, 352800, Note_off_c, 6, 54, 95
4, 352800, Note_off_c, 6, 47, 95
4, 352800, Note_on_c, 6, 61, 95
4, 352800, Note_on_c, 6, 56, 95
4, 352800, Note_on_c, 6, 49, 95
4, 353280, Note_off_c, 6, 61, 95
4, 353280, Note_off_c, 6, 56, 95
4, 353280, Note_off_c, 6, 49, 95
4, 353280, Note_on_c, 6, 61, 95
4, 353280, Note_on_c, 6, 56, 95
4, 353280, Note_on_c, 6, 49, 95
4, 354240, Note_off_c, 6, 61, 95
4, 354240, Note_off_c, 6, 56, 95
4, 354240, Note_off_c, 6, 49, 95
4, 354240, Note_on_c, 6, 61, 95
4, 354240, Note_on_c, 6, 56, 95
4, 354240, Note_on_c, 6, 49, 95
4, 355680, Note_off_c, 6, 61, 95
4, 355680, Note_off_c, 6, 56, 95
4, 355680, Note_off_c, 6, 49, 95
4, 355680, Note_on_c, 6, 61, 95
4, 355680, Note_on_c, 6, 56, 95
4, 355680, Note_on_c, 6, 49, 95
4, 357120, Note_off_c, 6, 61, 95
4, 357120, Note_off_c, 6, 56, 95
4, 357120, Note_off_c, 6, 49, 95
4, 357120, Note_on_c, 6, 64, 95
4, 357120, Note_on_c, 6, 59, 95
4, 357120, Note_on_c, 6, 49, 95
4, 357600, Note_off_c, 6, 64, 95
4, 357600, Note_off_c, 6, 59, 95
4, 357600, Note_off_c, 6, 49, 95
4, 357600, Note_on_c, 6, 61, 95
4, 357600, Note_on_c, 6, 56, 95
4, 357600, Note_on_c, 6, 49, 95
4, 358080, Note_off_c, 6, 61, 95
4, 358080, Note_off_c, 6, 56, 95
4, 358080, Note_off_c, 6, 49, 95
4, 358080, Note_on_c, 6, 66, 95
4, 358080, Note_on_c, 6, 61, 95
4, 358080, Note_on_c, 6, 58, 95
4, 358080, Note_on_c, 6, 49, 95
4, 358560, Note_off_c, 6, 66, 95
4, 358560, Note_off_c, 6, 61, 95
4, 358560, Note_off_c, 6, 58, 95
4, 358560, Note_off_c, 6, 49, 95
4, 358560, Note_on_c, 6, 61, 95
4, 358560, Note_on_c, 6, 56, 95
4, 358560, Note_on_c, 6, 49, 95
4, 359520, Note_off_c, 6, 61, 95
4, 359520, Note_off_c, 6, 56, 95
4, 359520, Note_off_c, 6, 49, 95
4, 359520, Note_on_c, 6, 56, 95
4, 359520, Note_on_c, 6, 49, 95
4, 360000, Note_off_c, 6, 56, 95
4, 360000, Note_off_c, 6, 49, 95
4, 360000, Note_on_c, 6, 59, 95
4, 360000, Note_on_c, 6, 49, 95
4, 360480, Note_off_c, 6, 59, 95
4, 360480, Note_off_c, 6, 49, 95
4, 360480, Note_on_c, 6, 61, 95
4, 360480, Note_on_c, 6, 56, 95
4, 360480, Note_on_c, 6, 49, 95
4, 361440, Note_off_c, 6, 61, 95
4, 361440, Note_off_c, 6, 56, 95
4, 361440, Note_off_c, 6, 49, 95
4, 361440, Note_on_c, 6, 61, 95
4, 361440, Note_on_c, 6, 56, 95
4, 361440, Note_on_c, 6, 49, 95
4, 361920, Note_off_c, 6, 61, 95
4, 361920, Note_off_c, 6, 56, 95
4, 361920, Note_off_c, 6, 49, 95
4, 361920, Note_on_c, 6, 61, 95
4, 361920, Note_on_c, 6, 56, 95
4, 361920, Note_on_c, 6, 49, 95
4, 363360, Note_off_c, 6, 61, 95
4, 363360, Note_off_c, 6, 56, 95
4, 363360, Note_off_c, 6, 49, 95
4, 363360, Note_on_c, 6, 61, 95
4, 363360, Note_on_c, 6, 56, 95
4, 363360, Note_on_c, 6, 49, 95
4, 364800, Note_off_c, 6, 61, 95
4, 364800, Note_off_c, 6, 56, 95
4, 364800, Note_off_c, 6, 49, 95
4, 364800, Note_on_c, 6, 64, 95
4, 364800, Note_on_c, 6, 59, 95
4, 364800, Note_on_c, 6, 49, 95
4, 365280, Note_off_c, 6, 64, 95
4, 365280, Note_off_c, 6, 59, 95
4, 365280, Note_off_c, 6, 49, 95
4, 365280, Note_on_c, 6, 61, 95
4, 365280, Note_on_c, 6, 56, 95
4, 365280, Note_on_c, 6, 49, 95
4, 365760, Note_off_c, 6, 61, 95
4, 365760, Note_off_c, 6, 56, 95
4, 365760, Note_off_c, 6, 49, 95
4, 365760, Note_on_c, 6, 66, 95
4, 365760, Note_on_c, 6, 61, 95
4, 365760, Note_on_c, 6, 58, 95
4, 365760, Note_on_c, 6, 49, 95
4, 366240, Note_off_c, 6, 66, 95
4, 366240, Note_off_c, 6, 61, 95
4, 366240, Note_off_c, 6, 58, 95
4, 366240, Note_off_c, 6, 49, 95
4, 366240, Note_on_c, 6, 61, 95
4, 366240, Note_on_c, 6, 56, 95
4, 366240, Note_on_c, 6, 49, 95
4, 367200, Note_off_c, 6, 61, 95
4, 367200, Note_off_c, 6, 56, 95
4, 367200, Note_off_c, 6, 49, 95
4, 367200, Note_on_c, 6, 61, 95
4, 367200, Note_on_c, 6, 56, 95
4, 367200, Note_on_c, 6, 49, 95
4, 367680, Note_off_c, 6, 61, 95
4, 367680, Note_off_c, 6, 56, 95
4, 367680, Note_off_c, 6, 49, 95
4, 367680, Note_on_c, 6, 61, 95
4, 367680, Note_on_c, 6, 56, 95
4, 367680, Note_on_c, 6, 49, 95
4, 368160, Note_off_c, 6, 61, 95
4, 368160, Note_off_c, 6, 56, 95
4, 368160, Note_off_c, 6, 49, 95
4, 368160, Note_on_c, 6, 59, 95
4, 368160, Note_on_c, 6, 49, 95
4, 368640, Note_off_c, 6, 59, 95
4, 368640, Note_off_c, 6, 49, 95
4, 368640, Note_on_c, 6, 61, 95
4, 368640, Note_on_c, 6, 56, 95
4, 368640, Note_on_c, 6, 49, 95
4, 369600, Note_off_c, 6, 61, 95
4, 369600, Note_off_c, 6, 56, 95
4, 369600, Note_off_c, 6, 49, 95
4, 369600, Note_on_c, 6, 61, 95
4, 369600, Note_on_c, 6, 56, 95
4, 369600, Note_on_c, 6, 49, 95
4, 371040, Note_off_c, 6, 61, 95
4, 371040, Note_off_c, 6, 56, 95
4, 371040, Note_off_c, 6, 49, 95
4, 371040, Note_on_c, 6, 61, 95
4, 371040, Note_on_c, 6, 56, 95
4, 371040, Note_on_c, 6, 49, 95
4, 372480, Note_off_c, 6, 61, 95
4, 372480, Note_off_c, 6, 56, 95
4, 372480, Note_off_c, 6, 49, 95
4, 372480, Note_on_c, 6, 64, 95
4, 372480, Note_on_c, 6, 59, 95
4, 372480, Note_on_c, 6, 49, 95
4, 372960, Note_off_c, 6, 64, 95
4, 372960, Note_off_c, 6, 59, 95
4, 372960, Note_off_c, 6, 49, 95
4, 372960, Note_on_c, 6, 61, 95
4, 372960, Note_on_c, 6, 56, 95
4, 372960, Note_on_c, 6, 49, 95
4, 373440, Note_off_c, 6, 61, 95
4, 373440, Note_off_c, 6, 56, 95
4, 373440, Note_off_c, 6, 49, 95
4, 373440, Note_on_c, 6, 66, 95
4, 373440, Note_on_c, 6, 61, 95
4, 373440, Note_on_c, 6, 58, 95
4, 373440, Note_on_c, 6, 49, 95
4, 373920, Note_off_c, 6, 66, 95
4, 373920, Note_off_c, 6, 61, 95
4, 373920, Note_off_c, 6, 58, 95
4, 373920, Note_off_c, 6, 49, 95
4, 373920, Note_on_c, 6, 61, 95
4, 373920, Note_on_c, 6, 56, 95
4, 373920, Note_on_c, 6, 49, 95
4, 374880, Note_off_c, 6, 61, 95
4, 374880, Note_off_c, 6, 56, 95
4, 374880, Note_off_c, 6, 49, 95
4, 374880, Note_on_c, 6, 56, 95
4, 374880, Note_on_c, 6, 49, 95
4, 375360, Note_off_c, 6, 56, 95
4, 375360, Note_off_c, 6, 49, 95
4, 375360, Note_on_c, 6, 59, 95
4, 375360, Note_on_c, 6, 49, 95
4, 375840, Note_off_c, 6, 59, 95
4, 375840, Note_off_c, 6, 49, 95
4, 375840, Note_on_c, 6, 61, 95
4, 375840, Note_on_c, 6, 56, 95
4, 375840, Note_on_c, 6, 49, 95
4, 376800, Note_off_c, 6, 61, 95
4, 376800, Note_off_c, 6, 56, 95
4, 376800, Note_off_c, 6, 49, 95
4, 376800, Note_on_c, 6, 61, 95
4, 376800, Note_on_c, 6, 56, 95
4, 376800, Note_on_c, 6, 49, 95
4, 377280, Note_off_c, 6, 61, 95
4, 377280, Note_off_c, 6, 56, 95
4, 377280, Note_off_c, 6, 49, 95
4, 377280, Note_on_c, 6, 61, 95
4, 377280, Note_on_c, 6, 56, 95
4, 377280, Note_on_c, 6, 49, 95
4, 378720, Note_off_c, 6, 61, 95
4, 378720, Note_off_c, 6, 56, 95
4, 378720, Note_off_c, 6, 49, 95
4, 378720, Note_on_c, 6, 61, 95
4, 378720, Note_on_c, 6, 56, 95
4, 378720, Note_on_c, 6, 49, 95
4, 380160, Note_off_c, 6, 61, 95
4, 380160, Note_off_c, 6, 56, 95
4, 380160, Note_off_c, 6, 49, 95
4, 380160, Note_on_c, 6, 64, 95
4, 380160, Note_on_c, 6, 59, 95
4, 380160, Note_on_c, 6, 49, 95
4, 380640, Note_off_c, 6, 64, 95
4, 380640, Note_off_c, 6, 59, 95
4, 380640, Note_off_c, 6, 49, 95
4, 380640, Note_on_c, 6, 61, 95
4, 380640, Note_on_c, 6, 56, 95
4, 380640, Note_on_c, 6, 49, 95
4, 381120, Note_off_c, 6, 61, 95
4, 381120, Note_off_c, 6, 56, 95
4, 381120, Note_off_c, 6, 49, 95
4, 381120, Note_on_c, 6, 66, 95
4, 381120, Note_on_c, 6, 61, 95
4, 381120, Note_on_c, 6, 58, 95
4, 381120, Note_on_c, 6, 49, 95
4, 381600, Note_off_c, 6, 66, 95
4, 381600, Note_off_c, 6, 61, 95
4, 381600, Note_off_c, 6, 58, 95
4, 381600, Note_off_c, 6, 49, 95
4, 381600, Note_on_c, 6, 61, 95
4, 381600, Note_on_c, 6, 56, 95
4, 381600, Note_on_c, 6, 49, 95
4, 382560, Note_off_c, 6, 61, 95
4, 382560, Note_off_c, 6, 56, 95
4, 382560, Note_off_c, 6, 49, 95
4, 382560, Note_on_c, 6, 61, 95
4, 382560, Note_on_c, 6, 56, 95
4, 382560, Note_on_c, 6, 49, 95
4, 383040, Note_off_c, 6, 61, 95
4, 383040, Note_off_c, 6, 56, 95
4, 383040, Note_off_c, 6, 49, 95
4, 383040, Note_on_c, 6, 61, 95
4, 383040, Note_on_c, 6, 56, 95
4, 383040, Note_on_c, 6, 49, 95
4, 383520, Note_off_c, 6, 61, 95
4, 383520, Note_off_c, 6, 56, 95
4, 383520, Note_off_c, 6, 49, 95
4, 383520, Note_on_c, 6, 59, 95
4, 383520, Note_on_c, 6, 49, 95
4, 384000, Note_off_c, 6, 59, 95
4, 384000, Note_off_c, 6, 49, 95
4, 384000, Note_on_c, 6, 61, 95
4, 384000, Note_on_c, 6, 56, 95
4, 384000, Note_on_c, 6, 49, 95
4, 384960, Note_off_c, 6, 61, 95
4, 384960, Note_off_c, 6, 56, 95
4, 384960, Note_off_c, 6, 49, 95
4, 384960, Note_on_c, 6, 61, 95
4, 384960, Note_on_c, 6, 56, 95
4, 384960, Note_on_c, 6, 49, 95
4, 385680, Note_off_c, 6, 61, 95
4, 385680, Note_off_c, 6, 56, 95
4, 385680, Note_off_c, 6, 49, 95
4, 385680, Note_on_c, 6, 61, 95
4, 385680, Note_on_c, 6, 56, 95
4, 385680, Note_on_c, 6, 49, 95
4, 385920, Note_off_c, 6, 61, 95
4, 385920, Note_off_c, 6, 56, 95
4, 385920, Note_off_c, 6, 49, 95
4, 385920, Note_on_c, 6, 61, 95
4, 385920, Note_on_c, 6, 56, 95
4, 385920, Note_on_c, 6, 49, 95
4, 386400, Note_off_c, 6, 61, 95
4, 386400, Note_off_c, 6, 56, 95
4, 386400, Note_off_c, 6, 49, 95
4, 386400, Note_on_c, 6, 61, 95
4, 386400, Note_on_c, 6, 56, 95
4, 386400, Note_on_c, 6, 49, 95
4, 387840, Note_off_c, 6, 61, 95
4, 387840, Note_off_c, 6, 56, 95
4, 387840, Note_off_c, 6, 49, 95
4, 387840, Note_on_c, 6, 64, 95
4, 387840, Note_on_c, 6, 59, 95
4, 387840, Note_on_c, 6, 49, 95
4, 388320, Note_off_c, 6, 64, 95
4, 388320, Note_off_c, 6, 59, 95
4, 388320, Note_off_c, 6, 49, 95
4, 388320, Note_on_c, 6, 61, 95
4, 388320, Note_on_c, 6, 56, 95
4, 388320, Note_on_c, 6, 49, 95
4, 388800, Note_off_c, 6, 61, 95
4, 388800, Note_off_c, 6, 56, 95
4, 388800, Note_off_c, 6, 49, 95
4, 388800, Note_on_c, 6, 66, 95
4, 388800, Note_on_c, 6, 61, 95
4, 388800, Note_on_c, 6, 59, 95
4, 388800, Note_on_c, 6, 49, 95
4, 389280, Note_off_c, 6, 66, 95
4, 389280, Note_off_c, 6, 61, 95
4, 389280, Note_off_c, 6, 59, 95
4, 389280, Note_off_c, 6, 49, 95
4, 389280, Note_on_c, 6, 66, 95
4, 389280, Note_on_c, 6, 61, 95
4, 389280, Note_on_c, 6, 56, 95
4, 389280, Note_on_c, 6, 49, 95
4, 390240, Note_off_c, 6, 66, 95
4, 390240, Note_off_c, 6, 61, 95
4, 390240, Note_off_c, 6, 56, 95
4, 390240, Note_off_c, 6, 49, 95
4, 390240, Note_on_c, 6, 56, 95
4, 390240, Note_on_c, 6, 49, 95
4, 390720, Note_off_c, 6, 56, 95
4, 390720, Note_off_c, 6, 49, 95
4, 390720, Note_on_c, 6, 59, 95
4, 390720, Note_on_c, 6, 49, 95
4, 391200, Note_off_c, 6, 59, 95
4, 391200, Note_off_c, 6, 49, 95
4, 391200, Note_on_c, 6, 61, 95
4, 391200, Note_on_c, 6, 56, 95
4, 391200, Note_on_c, 6, 49, 95
4, 392160, Note_off_c, 6, 61, 95
4, 392160, Note_off_c, 6, 56, 95
4, 392160, Note_off_c, 6, 49, 95
4, 392160, Note_on_c, 6, 61, 95
4, 392160, Note_on_c, 6, 56, 95
4, 392160, Note_on_c, 6, 49, 95
4, 392640, Note_off_c, 6, 61, 95
4, 392640, Note_off_c, 6, 56, 95
4, 392640, Note_off_c, 6, 49, 95
4, 392640, Note_on_c, 6, 61, 95
4, 392640, Note_on_c, 6, 56, 95
4, 392640, Note_on_c, 6, 49, 95
4, 393360, Note_off_c, 6, 61, 95
4, 393360, Note_off_c, 6, 56, 95
4, 393360, Note_off_c, 6, 49, 95
4, 393360, Note_on_c, 6, 61, 95
4, 393360, Note_on_c, 6, 56, 95
4, 393360, Note_on_c, 6, 49, 95
4, 393600, Note_off_c, 6, 61, 95
4, 393600, Note_off_c, 6, 56, 95
4, 393600, Note_off_c, 6, 49, 95
4, 393600, Note_on_c, 6, 61, 95
4, 393600, Note_on_c, 6, 56, 95
4, 393600, Note_on_c, 6, 49, 95
4, 394080, Note_off_c, 6, 61, 95
4, 394080, Note_off_c, 6, 56, 95
4, 394080, Note_off_c, 6, 49, 95
4, 394080, Note_on_c, 6, 61, 95
4, 394080, Note_on_c, 6, 56, 95
4, 394080, Note_on_c, 6, 49, 95
4, 394560, Note_off_c, 6, 61, 95
4, 394560, Note_off_c, 6, 56, 95
4, 394560, Note_off_c, 6, 49, 95
4, 394560, Note_on_c, 6, 61, 95
4, 394560, Note_on_c, 6, 56, 95
4, 394560, Note_on_c, 6, 49, 95
4, 395040, Note_off_c, 6, 61, 95
4, 395040, Note_off_c, 6, 56, 95
4, 395040, Note_off_c, 6, 49, 95
4, 395040, Note_on_c, 6, 61, 95
4, 395040, Note_on_c, 6, 56, 95
4, 395040, Note_on_c, 6, 49, 95
4, 395520, Note_off_c, 6, 61, 95
4, 395520, Note_off_c, 6, 56, 95
4, 395520, Note_off_c, 6, 49, 95
4, 395520, Note_on_c, 6, 64, 95
4, 395520, Note_on_c, 6, 59, 95
4, 395520, Note_on_c, 6, 49, 95
4, 396000, Note_off_c, 6, 64, 95
4, 396000, Note_off_c, 6, 59, 95
4, 396000, Note_off_c, 6, 49, 95
4, 396000, Note_on_c, 6, 61, 95
4, 396000, Note_on_c, 6, 56, 95
4, 396000, Note_on_c, 6, 49, 95
4, 396480, Note_off_c, 6, 61, 95
4, 396480, Note_off_c, 6, 56, 95
4, 396480, Note_off_c, 6, 49, 95
4, 396480, Note_on_c, 6, 66, 95
4, 396480, Note_on_c, 6, 61, 95
4, 396480, Note_on_c, 6, 58, 95
4, 396480, Note_on_c, 6, 49, 95
4, 396960, Note_off_c, 6, 66, 95
4, 396960, Note_off_c, 6, 61, 95
4, 396960, Note_off_c, 6, 58, 95
4, 396960, Note_off_c, 6, 49, 95
4, 396960, Note_on_c, 6, 61, 95
4, 396960, Note_on_c, 6, 56, 95
4, 396960, Note_on_c, 6, 49, 95
4, 397920, Note_off_c, 6, 61, 95
4, 397920, Note_off_c, 6, 56, 95
4, 397920, Note_off_c, 6, 49, 95
4, 397920, Note_on_c, 6, 56, 95
4, 397920, Note_on_c, 6, 49, 95
4, 398400, Note_off_c, 6, 56, 95
4, 398400, Note_off_c, 6, 49, 95
4, 398400, Note_on_c, 6, 59, 95
4, 398400, Note_on_c, 6, 49, 95
4, 398880, Note_off_c, 6, 59, 95
4, 398880, Note_off_c, 6, 49, 95
4, 398880, Note_on_c, 6, 59, 95
4, 398880, Note_on_c, 6, 49, 95
4, 399360, Note_off_c, 6, 59, 95
4, 399360, Note_off_c, 6, 49, 95
4, 399360, Note_on_c, 6, 61, 95
4, 399360, Note_on_c, 6, 56, 95
4, 399360, Note_on_c, 6, 49, 95
4, 400320, Note_off_c, 6, 61, 95
4, 400320, Note_off_c, 6, 56, 95
4, 400320, Note_off_c, 6, 49, 95
4, 400320, Note_on_c, 6, 61, 95
4, 400320, Note_on_c, 6, 56, 95
4, 400320, Note_on_c, 6, 49, 95
4, 401040, Note_off_c, 6, 61, 95
4, 401040, Note_off_c, 6, 56, 95
4, 401040, Note_off_c, 6, 49, 95
4, 401040, Note_on_c, 6, 61, 95
4, 401040, Note_on_c, 6, 56, 95
4, 401040, Note_on_c, 6, 49, 95
4, 401280, Note_off_c, 6, 61, 95
4, 401280, Note_off_c, 6, 56, 95
4, 401280, Note_off_c, 6, 49, 95
4, 401280, Note_on_c, 6, 61, 95
4, 401280, Note_on_c, 6, 56, 95
4, 401280, Note_on_c, 6, 49, 95
4, 401760, Note_off_c, 6, 61, 95
4, 401760, Note_off_c, 6, 56, 95
4, 401760, Note_off_c, 6, 49, 95
4, 401760, Note_on_c, 6, 61, 95
4, 401760, Note_on_c, 6, 56, 95
4, 401760, Note_on_c, 6, 49, 95
4, 402240, Note_off_c, 6, 61, 95
4, 402240, Note_off_c, 6, 56, 95
4, 402240, Note_off_c, 6, 49, 95
4, 402240, Note_on_c, 6, 61, 95
4, 402240, Note_on_c, 6, 56, 95
4, 402240, Note_on_c, 6, 49, 95
4, 402720, Note_off_c, 6, 61, 95
4, 402720, Note_off_c, 6, 56, 95
4, 402720, Note_off_c, 6, 49, 95
4, 403200, Note_on_c, 6, 63, 95
4, 403200, Note_on_c, 6, 59, 95
4, 403200, Note_on_c, 6, 54, 95
4, 403200, Note_on_c, 6, 47, 95
4, 404160, Note_off_c, 6, 63, 95
4, 404160, Note_off_c, 6, 59, 95
4, 404160, Note_off_c, 6, 54, 95
4, 404160, Note_off_c, 6, 47, 95
4, 404160, Note_on_c, 6, 63, 95
4, 404160, Note_on_c, 6, 59, 95
4, 404160, Note_on_c, 6, 54, 95
4, 404160, Note_on_c, 6, 47, 95
4, 404880, Note_off_c, 6, 63, 95
4, 404880, Note_off_c, 6, 59, 95
4, 404880, Note_off_c, 6, 54, 95
4, 404880, Note_off_c, 6, 47, 95
4, 404880, Note_on_c, 6, 63, 95
4, 404880, Note_on_c, 6, 59, 95
4, 404880, Note_on_c, 6, 54, 95
4, 404880, Note_on_c, 6, 47, 95
4, 405120, Note_off_c, 6, 63, 95
4, 405120, Note_off_c, 6, 59, 95
4, 405120, Note_off_c, 6, 54, 95
4, 405120, Note_off_c, 6, 47, 95
4, 405120, Note_on_c, 6, 63, 95
4, 405120, Note_on_c, 6, 59, 95
4, 405120, Note_on_c, 6, 54, 95
4, 405120, Note_on_c, 6, 47, 95
4, 405600, Note_off_c, 6, 63, 95
4, 405600, Note_off_c, 6, 59, 95
4, 405600, Note_off_c, 6, 54, 95
4, 405600, Note_off_c, 6, 47, 95
4, 405600, Note_on_c, 6, 63, 95
4, 405600, Note_on_c, 6, 59, 95
4, 405600, Note_on_c, 6, 54, 95
4, 405600, Note_on_c, 6, 47, 95
4, 406080, Note_off_c, 6, 63, 95
4, 406080, Note_off_c, 6, 59, 95
4, 406080, Note_off_c, 6, 54, 95
4, 406080, Note_off_c, 6, 47, 95
4, 406080, Note_on_c, 6, 63, 95
4, 406080, Note_on_c, 6, 59, 95
4, 406080, Note_on_c, 6, 54, 95
4, 406080, Note_on_c, 6, 47, 95
4, 406560, Note_off_c, 6, 63, 95
4, 406560, Note_off_c, 6, 59, 95
4, 406560, Note_off_c, 6, 54, 95
4, 406560, Note_off_c, 6, 47, 95
4, 406560, Note_on_c, 6, 63, 95
4, 406560, Note_on_c, 6, 59, 95
4, 406560, Note_on_c, 6, 54, 95
4, 406560, Note_on_c, 6, 47, 95
4, 407040, Note_off_c, 6, 63, 95
4, 407040, Note_off_c, 6, 59, 95
4, 407040, Note_off_c, 6, 54, 95
4, 407040, Note_off_c, 6, 47, 95
4, 407040, Note_on_c, 6, 61, 95
4, 407040, Note_on_c, 6, 57, 95
4, 407040, Note_on_c, 6, 52, 95
4, 407040, Note_on_c, 6, 45, 95
4, 408000, Note_off_c, 6, 61, 95
4, 408000, Note_off_c, 6, 57, 95
4, 408000, Note_off_c, 6, 52, 95
4, 408000, Note_off_c, 6, 45, 95
4, 408000, Note_on_c, 6, 61, 95
4, 408000, Note_on_c, 6, 57, 95
4, 408000, Note_on_c, 6, 52, 95
4, 408000, Note_on_c, 6, 45, 95
4, 408720, Note_off_c, 6, 61, 95
4, 408720, Note_off_c, 6, 57, 95
4, 408720, Note_off_c, 6, 52, 95
4, 408720, Note_off_c, 6, 45, 95
4, 408720, Note_on_c, 6, 61, 95
4, 408720, Note_on_c, 6, 57, 95
4, 408720, Note_on_c, 6, 52, 95
4, 408720, Note_on_c, 6, 45, 95
4, 408960, Note_off_c, 6, 61, 95
4, 408960, Note_off_c, 6, 57, 95
4, 408960, Note_off_c, 6, 52, 95
4, 408960, Note_off_c, 6, 45, 95
4, 408960, Note_on_c, 6, 61, 95
4, 408960, Note_on_c, 6, 57, 95
4, 408960, Note_on_c, 6, 52, 95
4, 408960, Note_on_c, 6, 45, 95
4, 409440, Note_off_c, 6, 61, 95
4, 409440, Note_off_c, 6, 57, 95
4, 409440, Note_off_c, 6, 52, 95
4, 409440, Note_off_c, 6, 45, 95
4, 409440, Note_on_c, 6, 61, 95
4, 409440, Note_on_c, 6, 57, 95
4, 409440, Note_on_c, 6, 52, 95
4, 409440, Note_on_c, 6, 45, 95
4, 409920, Note_off_c, 6, 61, 95
4, 409920, Note_off_c, 6, 57, 95
4, 409920, Note_off_c, 6, 52, 95
4, 409920, Note_off_c, 6, 45, 95
4, 409920, Note_on_c, 6, 61, 95
4, 409920, Note_on_c, 6, 57, 95
4, 409920, Note_on_c, 6, 52, 95
4, 409920, Note_on_c, 6, 45, 95
4, 410400, Note_off_c, 6, 61, 95
4, 410400, Note_off_c, 6, 57, 95
4, 410400, Note_off_c, 6, 52, 95
4, 410400, Note_off_c, 6, 45, 95
4, 410400, Note_on_c, 6, 61, 95
4, 410400, Note_on_c, 6, 57, 95
4, 410400, Note_on_c, 6, 52, 95
4, 410400, Note_on_c, 6, 45, 95
4, 410880, Note_off_c, 6, 61, 95
4, 410880, Note_off_c, 6, 57, 95
4, 410880, Note_off_c, 6, 52, 95
4, 410880, Note_off_c, 6, 45, 95
4, 410880, Note_on_c, 6, 59, 95
4, 410880, Note_on_c, 6, 56, 95
4, 410880, Note_on_c, 6, 52, 95
4, 410880, Note_on_c, 6, 47, 95
4, 411360, Note_off_c, 6, 59, 95
4, 411360, Note_off_c, 6, 56, 95
4, 411360, Note_off_c, 6, 52, 95
4, 411360, Note_off_c, 6, 47, 95
4, 411360, Note_on_c, 6, 61, 95
4, 411360, Note_on_c, 6, 57, 95
4, 411360, Note_on_c, 6, 52, 95
4, 411360, Note_on_c, 6, 45, 95
4, 411840, Note_off_c, 6, 61, 95
4, 411840, Note_off_c, 6, 57, 95
4, 411840, Note_off_c, 6, 52, 95
4, 411840, Note_off_c, 6, 45, 95
4, 411840, Note_on_c, 6, 59, 95
4, 411840, Note_on_c, 6, 56, 95
4, 411840, Note_on_c, 6, 52, 95
4, 411840, Note_on_c, 6, 47, 95
4, 412320, Note_off_c, 6, 59, 95
4, 412320, Note_off_c, 6, 56, 95
4, 412320, Note_off_c, 6, 52, 95
4, 412320, Note_off_c, 6, 47, 95
4, 412320, Note_on_c, 6, 61, 95
4, 412320, Note_on_c, 6, 57, 95
4, 412320, Note_on_c, 6, 52, 95
4, 412320, Note_on_c, 6, 45, 95
4, 412800, Note_off_c, 6, 61, 95
4, 412800, Note_off_c, 6, 57, 95
4, 412800, Note_off_c, 6, 52, 95
4, 412800, Note_off_c, 6, 45, 95
4, 412800, Note_on_c, 6, 59, 95
4, 412800, Note_on_c, 6, 56, 95
4, 412800, Note_on_c, 6, 52, 95
4, 412800, Note_on_c, 6, 47, 95
4, 413280, Note_off_c, 6, 59, 95
4, 413280, Note_off_c, 6, 56, 95
4, 413280, Note_off_c, 6, 52, 95
4, 413280, Note_off_c, 6, 47, 95
4, 413280, Note_on_c, 6, 63, 95
4, 413280, Note_on_c, 6, 59, 95
4, 413280, Note_on_c, 6, 54, 95
4, 413280, Note_on_c, 6, 47, 95
4, 413760, Note_off_c, 6, 63, 95
4, 413760, Note_off_c, 6, 59, 95
4, 413760, Note_off_c, 6, 54, 95
4, 413760, Note_off_c, 6, 47, 95
4, 413760, Note_on_c, 6, 63, 95
4, 413760, Note_on_c, 6, 59, 95
4, 413760, Note_on_c, 6, 54, 95
4, 413760, Note_on_c, 6, 47, 95
4, 414240, Note_off_c, 6, 63, 95
4, 414240, Note_off_c, 6, 59, 95
4, 414240, Note_off_c, 6, 54, 95
4, 414240, Note_off_c, 6, 47, 95
4, 414240, Note_on_c, 6, 63, 95
4, 414240, Note_on_c, 6, 59, 95
4, 414240, Note_on_c, 6, 54, 95
4, 414240, Note_on_c, 6, 47, 95
4, 414720, Note_off_c, 6, 63, 95
4, 414720, Note_off_c, 6, 59, 95
4, 414720, Note_off_c, 6, 54, 95
4, 414720, Note_off_c, 6, 47, 95
4, 414720, Note_on_c, 6, 61, 95
4, 414720, Note_on_c, 6, 56, 95
4, 414720, Note_on_c, 6, 49, 95
4, 415200, Note_off_c, 6, 61, 95
4, 415200, Note_off_c, 6, 56, 95
4, 415200, Note_off_c, 6, 49, 95
4, 415200, Note_on_c, 6, 61, 95
4, 415200, Note_on_c, 6, 56, 95
4, 415200, Note_on_c, 6, 49, 95
4, 415680, Note_off_c, 6, 61, 95
4, 415680, Note_off_c, 6, 56, 95
4, 415680, Note_off_c, 6, 49, 95
4, 415680, Note_on_c, 6, 61, 95
4, 415680, Note_on_c, 6, 56, 95
4, 415680, Note_on_c, 6, 49, 95
4, 416400, Note_off_c, 6, 61, 95
4, 416400, Note_off_c, 6, 56, 95
4, 416400, Note_off_c, 6, 49, 95
4, 416400, Note_on_c, 6, 61, 95
4, 416400, Note_on_c, 6, 56, 95
4, 416400, Note_on_c, 6, 49, 95
4, 416640, Note_off_c, 6, 61, 95
4, 416640, Note_off_c, 6, 56, 95
4, 416640, Note_off_c, 6, 49, 95
4, 416640, Note_on_c, 6, 61, 95
4, 416640, Note_on_c, 6, 56, 95
4, 416640, Note_on_c, 6, 49, 95
4, 417120, Note_off_c, 6, 61, 95
4, 417120, Note_off_c, 6, 56, 95
4, 417120, Note_off_c, 6, 49, 95
4, 417120, Note_on_c, 6, 61, 95
4, 417120, Note_on_c, 6, 56, 95
4, 417120, Note_on_c, 6, 49, 95
4, 417600, Note_off_c, 6, 61, 95
4, 417600, Note_off_c, 6, 56, 95
4, 417600, Note_off_c, 6, 49, 95
4, 417600, Note_on_c, 6, 61, 95
4, 417600, Note_on_c, 6, 56, 95
4, 417600, Note_on_c, 6, 49, 95
4, 418080, Note_off_c, 6, 61, 95
4, 418080, Note_off_c, 6, 56, 95
4, 418080, Note_off_c, 6, 49, 95
4, 418080, Note_on_c, 6, 61, 95
4, 418080, Note_on_c, 6, 56, 95
4, 418080, Note_on_c, 6, 49, 95
4, 418560, Note_off_c, 6, 61, 95
4, 418560, Note_off_c, 6, 56, 95
4, 418560, Note_off_c, 6, 49, 95
4, 418560, Note_on_c, 6, 63, 95
4, 418560, Note_on_c, 6, 59, 95
4, 418560, Note_on_c, 6, 54, 95
4, 418560, Note_on_c, 6, 47, 95
4, 419040, Note_off_c, 6, 63, 95
4, 419040, Note_off_c, 6, 59, 95
4, 419040, Note_off_c, 6, 54, 95
4, 419040, Note_off_c, 6, 47, 95
4, 419040, Note_on_c, 6, 63, 95
4, 419040, Note_on_c, 6, 59, 95
4, 419040, Note_on_c, 6, 54, 95
4, 419040, Note_on_c, 6, 47, 95
4, 419520, Note_off_c, 6, 63, 95
4, 419520, Note_off_c, 6, 59, 95
4, 419520, Note_off_c, 6, 54, 95
4, 419520, Note_off_c, 6, 47, 95
4, 419520, Note_on_c, 6, 63, 95
4, 419520, Note_on_c, 6, 59, 95
4, 419520, Note_on_c, 6, 54, 95
4, 419520, Note_on_c, 6, 47, 95
4, 420240, Note_off_c, 6, 63, 95
4, 420240, Note_off_c, 6, 59, 95
4, 420240, Note_off_c, 6, 54, 95
4, 420240, Note_off_c, 6, 47, 95
4, 420240, Note_on_c, 6, 63, 95
4, 420240, Note_on_c, 6, 59, 95
4, 420240, Note_on_c, 6, 54, 95
4, 420240, Note_on_c, 6, 47, 95
4, 420480, Note_off_c, 6, 63, 95
4, 420480, Note_off_c, 6, 59, 95
4, 420480, Note_off_c, 6, 54, 95
4, 420480, Note_off_c, 6, 47, 95
4, 420480, Note_on_c, 6, 63, 95
4, 420480, Note_on_c, 6, 59, 95
4, 420480, Note_on_c, 6, 54, 95
4, 420480, Note_on_c, 6, 47, 95
4, 420960, Note_off_c, 6, 63, 95
4, 420960, Note_off_c, 6, 59, 95
4, 420960, Note_off_c, 6, 54, 95
4, 420960, Note_off_c, 6, 47, 95
4, 420960, Note_on_c, 6, 63, 95
4, 420960, Note_on_c, 6, 59, 95
4, 420960, Note_on_c, 6, 54, 95
4, 420960, Note_on_c, 6, 47, 95
4, 421440, Note_off_c, 6, 63, 95
4, 421440, Note_off_c, 6, 59, 95
4, 421440, Note_off_c, 6, 54, 95
4, 421440, Note_off_c, 6, 47, 95
4, 421440, Note_on_c, 6, 63, 95
4, 421440, Note_on_c, 6, 59, 95
4, 421440, Note_on_c, 6, 54, 95
4, 421440, Note_on_c, 6, 47, 95
4, 421920, Note_off_c, 6, 63, 95
4, 421920, Note_off_c, 6, 59, 95
4, 421920, Note_off_c, 6, 54, 95
4, 421920, Note_off_c, 6, 47, 95
4, 421920, Note_on_c, 6, 63, 95
4, 421920, Note_on_c, 6, 59, 95
4, 421920, Note_on_c, 6, 54, 95
4, 421920, Note_on_c, 6, 47, 95
4, 422400, Note_off_c, 6, 63, 95
4, 422400, Note_off_c, 6, 59, 95
4, 422400, Note_off_c, 6, 54, 95
4, 422400, Note_off_c, 6, 47, 95
4, 422400, Note_on_c, 6, 61, 95
4, 422400, Note_on_c, 6, 57, 95
4, 422400, Note_on_c, 6, 52, 95
4, 422400, Note_on_c, 6, 45, 95
4, 422880, Note_off_c, 6, 61, 95
4, 422880, Note_off_c, 6, 57, 95
4, 422880, Note_off_c, 6, 52, 95
4, 422880, Note_off_c, 6, 45, 95
4, 422880, Note_on_c, 6, 61, 95
4, 422880, Note_on_c, 6, 57, 95
4, 422880, Note_on_c, 6, 52, 95
4, 422880, Note_on_c, 6, 45, 95
4, 423360, Note_off_c, 6, 61, 95
4, 423360, Note_off_c, 6, 57, 95
4, 423360, Note_off_c, 6, 52, 95
4, 423360, Note_off_c, 6, 45, 95
4, 423360, Note_on_c, 6, 61, 95
4, 423360, Note_on_c, 6, 57, 95
4, 423360, Note_on_c, 6, 52, 95
4, 423360, Note_on_c, 6, 45, 95
4, 424080, Note_off_c, 6, 61, 95
4, 424080, Note_off_c, 6, 57, 95
4, 424080, Note_off_c, 6, 52, 95
4, 424080, Note_off_c, 6, 45, 95
4, 424080, Note_on_c, 6, 61, 95
4, 424080, Note_on_c, 6, 57, 95
4, 424080, Note_on_c, 6, 52, 95
4, 424080, Note_on_c, 6, 45, 95
4, 424320, Note_off_c, 6, 61, 95
4, 424320, Note_off_c, 6, 57, 95
4, 424320, Note_off_c, 6, 52, 95
4, 424320, Note_off_c, 6, 45, 95
4, 424320, Note_on_c, 6, 61, 95
4, 424320, Note_on_c, 6, 57, 95
4, 424320, Note_on_c, 6, 52, 95
4, 424320, Note_on_c, 6, 45, 95
4, 424800, Note_off_c, 6, 61, 95
4, 424800, Note_off_c, 6, 57, 95
4, 424800, Note_off_c, 6, 52, 95
4, 424800, Note_off_c, 6, 45, 95
4, 424800, Note_on_c, 6, 61, 95
4, 424800, Note_on_c, 6, 57, 95
4, 424800, Note_on_c, 6, 52, 95
4, 424800, Note_on_c, 6, 45, 95
4, 425280, Note_off_c, 6, 61, 95
4, 425280, Note_off_c, 6, 57, 95
4, 425280, Note_off_c, 6, 52, 95
4, 425280, Note_off_c, 6, 45, 95
4, 425280, Note_on_c, 6, 61, 95
4, 425280, Note_on_c, 6, 57, 95
4, 425280, Note_on_c, 6, 52, 95
4, 425280, Note_on_c, 6, 45, 95
4, 425760, Note_off_c, 6, 61, 95
4, 425760, Note_off_c, 6, 57, 95
4, 425760, Note_off_c, 6, 52, 95
4, 425760, Note_off_c, 6, 45, 95
4, 425760, Note_on_c, 6, 61, 95
4, 425760, Note_on_c, 6, 57, 95
4, 425760, Note_on_c, 6, 52, 95
4, 425760, Note_on_c, 6, 45, 95
4, 426240, Note_off_c, 6, 61, 95
4, 426240, Note_off_c, 6, 57, 95
4, 426240, Note_off_c, 6, 52, 95
4, 426240, Note_off_c, 6, 45, 95
4, 426240, Note_on_c, 6, 59, 95
4, 426240, Note_on_c, 6, 56, 95
4, 426240, Note_on_c, 6, 52, 95
4, 426240, Note_on_c, 6, 47, 95
4, 426720, Note_off_c, 6, 59, 95
4, 426720, Note_off_c, 6, 56, 95
4, 426720, Note_off_c, 6, 52, 95
4, 426720, Note_off_c, 6, 47, 95
4, 426720, Note_on_c, 6, 61, 95
4, 426720, Note_on_c, 6, 57, 95
4, 426720, Note_on_c, 6, 52, 95
4, 426720, Note_on_c, 6, 45, 95
4, 427200, Note_off_c, 6, 61, 95
4, 427200, Note_off_c, 6, 57, 95
4, 427200, Note_off_c, 6, 52, 95
4, 427200, Note_off_c, 6, 45, 95
4, 427200, Note_on_c, 6, 59, 95
4, 427200, Note_on_c, 6, 56, 95
4, 427200, Note_on_c, 6, 52, 95
4, 427200, Note_on_c, 6, 47, 95
4, 427680, Note_off_c, 6, 59, 95
4, 427680, Note_off_c, 6, 56, 95
4, 427680, Note_off_c, 6, 52, 95
4, 427680, Note_off_c, 6, 47, 95
4, 427680, Note_on_c, 6, 61, 95
4, 427680, Note_on_c, 6, 57, 95
4, 427680, Note_on_c, 6, 52, 95
4, 427680, Note_on_c, 6, 45, 95
4, 428160, Note_off_c, 6, 61, 95
4, 428160, Note_off_c, 6, 57, 95
4, 428160, Note_off_c, 6, 52, 95
4, 428160, Note_off_c, 6, 45, 95
4, 428160, Note_on_c, 6, 59, 95
4, 428160, Note_on_c, 6, 56, 95
4, 428160, Note_on_c, 6, 52, 95
4, 428160, Note_on_c, 6, 47, 95
4, 428640, Note_off_c, 6, 59, 95
4, 428640, Note_off_c, 6, 56, 95
4, 428640, Note_off_c, 6, 52, 95
4, 428640, Note_off_c, 6, 47, 95
4, 428640, Note_on_c, 6, 63, 95
4, 428640, Note_on_c, 6, 59, 95
4, 428640, Note_on_c, 6, 54, 95
4, 428640, Note_on_c, 6, 47, 95
4, 429120, Note_off_c, 6, 63, 95
4, 429120, Note_off_c, 6, 59, 95
4, 429120, Note_off_c, 6, 54, 95
4, 429120, Note_off_c, 6, 47, 95
4, 429120, Note_on_c, 6, 63, 95
4, 429120, Note_on_c, 6, 59, 95
4, 429120, Note_on_c, 6, 54, 95
4, 429120, Note_on_c, 6, 47, 95
4, 429600, Note_off_c, 6, 63, 95
4, 429600, Note_off_c, 6, 59, 95
4, 429600, Note_off_c, 6, 54, 95
4, 429600, Note_off_c, 6, 47, 95
4, 429600, Note_on_c, 6, 63, 95
4, 429600, Note_on_c, 6, 59, 95
4, 429600, Note_on_c, 6, 54, 95
4, 429600, Note_on_c, 6, 47, 95
4, 430080, Note_off_c, 6, 63, 95
4, 430080, Note_off_c, 6, 59, 95
4, 430080, Note_off_c, 6, 54, 95
4, 430080, Note_off_c, 6, 47, 95
4, 430080, Note_on_c, 6, 61, 95
4, 430080, Note_on_c, 6, 56, 95
4, 430080, Note_on_c, 6, 49, 95
4, 430560, Note_off_c, 6, 61, 95
4, 430560, Note_off_c, 6, 56, 95
4, 430560, Note_off_c, 6, 49, 95
4, 430560, Note_on_c, 6, 61, 95
4, 430560, Note_on_c, 6, 56, 95
4, 430560, Note_on_c, 6, 49, 95
4, 431040, Note_off_c, 6, 61, 95
4, 431040, Note_off_c, 6, 56, 95
4, 431040, Note_off_c, 6, 49, 95
4, 431040, Note_on_c, 6, 61, 95
4, 431040, Note_on_c, 6, 56, 95
4, 431040, Note_on_c, 6, 49, 95
4, 431760, Note_off_c, 6, 61, 95
4, 431760, Note_off_c, 6, 56, 95
4, 431760, Note_off_c, 6, 49, 95
4, 431760, Note_on_c, 6, 61, 95
4, 431760, Note_on_c, 6, 56, 95
4, 431760, Note_on_c, 6, 49, 95
4, 432000, Note_off_c, 6, 61, 95
4, 432000, Note_off_c, 6, 56, 95
4, 432000, Note_off_c, 6, 49, 95
4, 432000, Note_on_c, 6, 61, 95
4, 432000, Note_on_c, 6, 56, 95
4, 432000, Note_on_c, 6, 49, 95
4, 432480, Note_off_c, 6, 61, 95
4, 432480, Note_off_c, 6, 56, 95
4, 432480, Note_off_c, 6, 49, 95
4, 432480, Note_on_c, 6, 61, 95
4, 432480, Note_on_c, 6, 56, 95
4, 432480, Note_on_c, 6, 49, 95
4, 432960, Note_off_c, 6, 61, 95
4, 432960, Note_off_c, 6, 56, 95
4, 432960, Note_off_c, 6, 49, 95
4, 432960, Note_on_c, 6, 61, 95
4, 432960, Note_on_c, 6, 56, 95
4, 432960, Note_on_c, 6, 49, 95
4, 433440, Note_off_c, 6, 61, 95
4, 433440, Note_off_c, 6, 56, 95
4, 433440, Note_off_c, 6, 49, 95
4, 433440, Note_on_c, 6, 61, 95
4, 433440, Note_on_c, 6, 56, 95
4, 433440, Note_on_c, 6, 49, 95
4, 433920, Note_off_c, 6, 61, 95
4, 433920, Note_off_c, 6, 56, 95
4, 433920, Note_off_c, 6, 49, 95
4, 433920, Note_on_c, 6, 63, 95
4, 433920, Note_on_c, 6, 59, 95
4, 433920, Note_on_c, 6, 54, 95
4, 433920, Note_on_c, 6, 47, 95
4, 434400, Note_off_c, 6, 63, 95
4, 434400, Note_off_c, 6, 59, 95
4, 434400, Note_off_c, 6, 54, 95
4, 434400, Note_off_c, 6, 47, 95
4, 434400, Note_on_c, 6, 63, 95
4, 434400, Note_on_c, 6, 59, 95
4, 434400, Note_on_c, 6, 54, 95
4, 434400, Note_on_c, 6, 47, 95
4, 434880, Note_off_c, 6, 63, 95
4, 434880, Note_off_c, 6, 59, 95
4, 434880, Note_off_c, 6, 54, 95
4, 434880, Note_off_c, 6, 47, 95
4, 434880, Note_on_c, 6, 63, 95
4, 434880, Note_on_c, 6, 59, 95
4, 434880, Note_on_c, 6, 54, 95
4, 434880, Note_on_c, 6, 47, 95
4, 435600, Note_off_c, 6, 63, 95
4, 435600, Note_off_c, 6, 59, 95
4, 435600, Note_off_c, 6, 54, 95
4, 435600, Note_off_c, 6, 47, 95
4, 435600, Note_on_c, 6, 63, 95
4, 435600, Note_on_c, 6, 59, 95
4, 435600, Note_on_c, 6, 54, 95
4, 435600, Note_on_c, 6, 47, 95
4, 435840, Note_off_c, 6, 63, 95
4, 435840, Note_off_c, 6, 59, 95
4, 435840, Note_off_c, 6, 54, 95
4, 435840, Note_off_c, 6, 47, 95
4, 435840, Note_on_c, 6, 63, 95
4, 435840, Note_on_c, 6, 59, 95
4, 435840, Note_on_c, 6, 54, 95
4, 435840, Note_on_c, 6, 47, 95
4, 436320, Note_off_c, 6, 63, 95
4, 436320, Note_off_c, 6, 59, 95
4, 436320, Note_off_c, 6, 54, 95
4, 436320, Note_off_c, 6, 47, 95
4, 436320, Note_on_c, 6, 63, 95
4, 436320, Note_on_c, 6, 59, 95
4, 436320, Note_on_c, 6, 54, 95
4, 436320, Note_on_c, 6, 47, 95
4, 436800, Note_off_c, 6, 63, 95
4, 436800, Note_off_c, 6, 59, 95
4, 436800, Note_off_c, 6, 54, 95
4, 436800, Note_off_c, 6, 47, 95
4, 436800, Note_on_c, 6, 63, 95
4, 436800, Note_on_c, 6, 59, 95
4, 436800, Note_on_c, 6, 54, 95
4, 436800, Note_on_c, 6, 47, 95
4, 437280, Note_off_c, 6, 63, 95
4, 437280, Note_off_c, 6, 59, 95
4, 437280, Note_off_c, 6, 54, 95
4, 437280, Note_off_c, 6, 47, 95
4, 437280, Note_on_c, 6, 63, 95
4, 437280, Note_on_c, 6, 59, 95
4, 437280, Note_on_c, 6, 54, 95
4, 437280, Note_on_c, 6, 47, 95
4, 437760, Note_off_c, 6, 63, 95
4, 437760, Note_off_c, 6, 59, 95
4, 437760, Note_off_c, 6, 54, 95
4, 437760, Note_off_c, 6, 47, 95
4, 437760, Note_on_c, 6, 61, 95
4, 437760, Note_on_c, 6, 57, 95
4, 437760, Note_on_c, 6, 52, 95
4, 437760, Note_on_c, 6, 45, 95
4, 438240, Note_off_c, 6, 61, 95
4, 438240, Note_off_c, 6, 57, 95
4, 438240, Note_off_c, 6, 52, 95
4, 438240, Note_off_c, 6, 45, 95
4, 438240, Note_on_c, 6, 61, 95
4, 438240, Note_on_c, 6, 57, 95
4, 438240, Note_on_c, 6, 52, 95
4, 438240, Note_on_c, 6, 45, 95
4, 438720, Note_off_c, 6, 61, 95
4, 438720, Note_off_c, 6, 57, 95
4, 438720, Note_off_c, 6, 52, 95
4, 438720, Note_off_c, 6, 45, 95
4, 438720, Note_on_c, 6, 61, 95
4, 438720, Note_on_c, 6, 57, 95
4, 438720, Note_on_c, 6, 52, 95
4, 438720, Note_on_c, 6, 45, 95
4, 439440, Note_off_c, 6, 61, 95
4, 439440, Note_off_c, 6, 57, 95
4, 439440, Note_off_c, 6, 52, 95
4, 439440, Note_off_c, 6, 45, 95
4, 439440, Note_on_c, 6, 61, 95
4, 439440, Note_on_c, 6, 57, 95
4, 439440, Note_on_c, 6, 52, 95
4, 439440, Note_on_c, 6, 45, 95
4, 439680, Note_off_c, 6, 61, 95
4, 439680, Note_off_c, 6, 57, 95
4, 439680, Note_off_c, 6, 52, 95
4, 439680, Note_off_c, 6, 45, 95
4, 439680, Note_on_c, 6, 61, 95
4, 439680, Note_on_c, 6, 57, 95
4, 439680, Note_on_c, 6, 52, 95
4, 439680, Note_on_c, 6, 45, 95
4, 440160, Note_off_c, 6, 61, 95
4, 440160, Note_off_c, 6, 57, 95
4, 440160, Note_off_c, 6, 52, 95
4, 440160, Note_off_c, 6, 45, 95
4, 440160, Note_on_c, 6, 61, 95
4, 440160, Note_on_c, 6, 57, 95
4, 440160, Note_on_c, 6, 52, 95
4, 440160, Note_on_c, 6, 45, 95
4, 440640, Note_off_c, 6, 61, 95
4, 440640, Note_off_c, 6, 57, 95
4, 440640, Note_off_c, 6, 52, 95
4, 440640, Note_off_c, 6, 45, 95
4, 440640, Note_on_c, 6, 61, 95
4, 440640, Note_on_c, 6, 57, 95
4, 440640, Note_on_c, 6, 52, 95
4, 440640, Note_on_c, 6, 45, 95
4, 441120, Note_off_c, 6, 61, 95
4, 441120, Note_off_c, 6, 57, 95
4, 441120, Note_off_c, 6, 52, 95
4, 441120, Note_off_c, 6, 45, 95
4, 441120, Note_on_c, 6, 61, 95
4, 441120, Note_on_c, 6, 57, 95
4, 441120, Note_on_c, 6, 52, 95
4, 441120, Note_on_c, 6, 45, 95
4, 441600, Note_off_c, 6, 61, 95
4, 441600, Note_off_c, 6, 57, 95
4, 441600, Note_off_c, 6, 52, 95
4, 441600, Note_off_c, 6, 45, 95
4, 441600, Note_on_c, 6, 59, 95
4, 441600, Note_on_c, 6, 56, 95
4, 441600, Note_on_c, 6, 52, 95
4, 441600, Note_on_c, 6, 47, 95
4, 442080, Note_off_c, 6, 59, 95
4, 442080, Note_off_c, 6, 56, 95
4, 442080, Note_off_c, 6, 52, 95
4, 442080, Note_off_c, 6, 47, 95
4, 442080, Note_on_c, 6, 61, 95
4, 442080, Note_on_c, 6, 57, 95
4, 442080, Note_on_c, 6, 52, 95
4, 442080, Note_on_c, 6, 45, 95
4, 442560, Note_off_c, 6, 61, 95
4, 442560, Note_off_c, 6, 57, 95
4, 442560, Note_off_c, 6, 52, 95
4, 442560, Note_off_c, 6, 45, 95
4, 442560, Note_on_c, 6, 59, 95
4, 442560, Note_on_c, 6, 56, 95
4, 442560, Note_on_c, 6, 52, 95
4, 442560, Note_on_c, 6, 47, 95
4, 443040, Note_off_c, 6, 59, 95
4, 443040, Note_off_c, 6, 56, 95
4, 443040, Note_off_c, 6, 52, 95
4, 443040, Note_off_c, 6, 47, 95
4, 443040, Note_on_c, 6, 61, 95
4, 443040, Note_on_c, 6, 57, 95
4, 443040, Note_on_c, 6, 52, 95
4, 443040, Note_on_c, 6, 45, 95
4, 443520, Note_off_c, 6, 61, 95
4, 443520, Note_off_c, 6, 57, 95
4, 443520, Note_off_c, 6, 52, 95
4, 443520, Note_off_c, 6, 45, 95
4, 443520, Note_on_c, 6, 59, 95
4, 443520, Note_on_c, 6, 56, 95
4, 443520, Note_on_c, 6, 52, 95
4, 443520, Note_on_c, 6, 47, 95
4, 444000, Note_off_c, 6, 59, 95
4, 444000, Note_off_c, 6, 56, 95
4, 444000, Note_off_c, 6, 52, 95
4, 444000, Note_off_c, 6, 47, 95
4, 444000, Note_on_c, 6, 63, 95
4, 444000, Note_on_c, 6, 59, 95
4, 444000, Note_on_c, 6, 54, 95
4, 444000, Note_on_c, 6, 47, 95
4, 444480, Note_off_c, 6, 63, 95
4, 444480, Note_off_c, 6, 59, 95
4, 444480, Note_off_c, 6, 54, 95
4, 444480, Note_off_c, 6, 47, 95
4, 444480, Note_on_c, 6, 63, 95
4, 444480, Note_on_c, 6, 59, 95
4, 444480, Note_on_c, 6, 54, 95
4, 444480, Note_on_c, 6, 47, 95
4, 444960, Note_off_c, 6, 63, 95
4, 444960, Note_off_c, 6, 59, 95
4, 444960, Note_off_c, 6, 54, 95
4, 444960, Note_off_c, 6, 47, 95
4, 444960, Note_on_c, 6, 63, 95
4, 444960, Note_on_c, 6, 59, 95
4, 444960, Note_on_c, 6, 54, 95
4, 444960, Note_on_c, 6, 47, 95
4, 445440, Note_off_c, 6, 63, 95
4, 445440, Note_off_c, 6, 59, 95
4, 445440, Note_off_c, 6, 54, 95
4, 445440, Note_off_c, 6, 47, 95
4, 445440, Note_on_c, 6, 61, 95
4, 445440, Note_on_c, 6, 56, 95
4, 445440, Note_on_c, 6, 49, 95
4, 445920, Note_off_c, 6, 61, 95
4, 445920, Note_off_c, 6, 56, 95
4, 445920, Note_off_c, 6, 49, 95
4, 445920, Note_on_c, 6, 65, 95
4, 445920, Note_on_c, 6, 61, 95
4, 445920, Note_on_c, 6, 56, 95
4, 445920, Note_on_c, 6, 49, 95
4, 446400, Note_off_c, 6, 65, 95
4, 446400, Note_off_c, 6, 61, 95
4, 446400, Note_off_c, 6, 56, 95
4, 446400, Note_off_c, 6, 49, 95
4, 446400, Note_on_c, 6, 65, 95
4, 446400, Note_on_c, 6, 61, 95
4, 446400, Note_on_c, 6, 56, 95
4, 446400, Note_on_c, 6, 49, 95
4, 447120, Note_off_c, 6, 65, 95
4, 447120, Note_off_c, 6, 61, 95
4, 447120, Note_off_c, 6, 56, 95
4, 447120, Note_off_c, 6, 49, 95
4, 447120, Note_on_c, 6, 65, 95
4, 447120, Note_on_c, 6, 61, 95
4, 447120, Note_on_c, 6, 56, 95
4, 447120, Note_on_c, 6, 49, 95
4, 447360, Note_off_c, 6, 65, 95
4, 447360, Note_off_c, 6, 61, 95
4, 447360, Note_off_c, 6, 56, 95
4, 447360, Note_off_c, 6, 49, 95
4, 447360, Note_on_c, 6, 65, 95
4, 447360, Note_on_c, 6, 61, 95
4, 447360, Note_on_c, 6, 56, 95
4, 447360, Note_on_c, 6, 49, 95
4, 447840, Note_off_c, 6, 65, 95
4, 447840, Note_off_c, 6, 61, 95
4, 447840, Note_off_c, 6, 56, 95
4, 447840, Note_off_c, 6, 49, 95
4, 447840, Note_on_c, 6, 65, 95
4, 447840, Note_on_c, 6, 61, 95
4, 447840, Note_on_c, 6, 56, 95
4, 447840, Note_on_c, 6, 49, 95
4, 448320, Note_off_c, 6, 65, 95
4, 448320, Note_off_c, 6, 61, 95
4, 448320, Note_off_c, 6, 56, 95
4, 448320, Note_off_c, 6, 49, 95
4, 448320, Note_on_c, 6, 65, 95
4, 448320, Note_on_c, 6, 61, 95
4, 448320, Note_on_c, 6, 56, 95
4, 448320, Note_on_c, 6, 49, 95
4, 448800, Note_off_c, 6, 65, 95
4, 448800, Note_off_c, 6, 61, 95
4, 448800, Note_off_c, 6, 56, 95
4, 448800, Note_off_c, 6, 49, 95
4, 448800, Note_on_c, 6, 65, 95
4, 448800, Note_on_c, 6, 61, 95
4, 448800, Note_on_c, 6, 56, 95
4, 448800, Note_on_c, 6, 49, 95
4, 449280, Note_off_c, 6, 65, 95
4, 449280, Note_off_c, 6, 61, 95
4, 449280, Note_off_c, 6, 56, 95
4, 449280, Note_off_c, 6, 49, 95
4, 449280, Note_on_c, 6, 63, 95
4, 449280, Note_on_c, 6, 59, 95
4, 449280, Note_on_c, 6, 54, 95
4, 449280, Note_on_c, 6, 47, 95
4, 449760, Note_off_c, 6, 63, 95
4, 449760, Note_off_c, 6, 59, 95
4, 449760, Note_off_c, 6, 54, 95
4, 449760, Note_off_c, 6, 47, 95
4, 449760, Note_on_c, 6, 63, 95
4, 449760, Note_on_c, 6, 59, 95
4, 449760, Note_on_c, 6, 54, 95
4, 449760, Note_on_c, 6, 47, 95
4, 450240, Note_off_c, 6, 63, 95
4, 450240, Note_off_c, 6, 59, 95
4, 450240, Note_off_c, 6, 54, 95
4, 450240, Note_off_c, 6, 47, 95
4, 450240, Note_on_c, 6, 63, 95
4, 450240, Note_on_c, 6, 59, 95
4, 450240, Note_on_c, 6, 54, 95
4, 450240, Note_on_c, 6, 47, 95
4, 450960, Note_off_c, 6, 63, 95
4, 450960, Note_off_c, 6, 59, 95
4, 450960, Note_off_c, 6, 54, 95
4, 450960, Note_off_c, 6, 47, 95
4, 450960, Note_on_c, 6, 63, 95
4, 450960, Note_on_c, 6, 59, 95
4, 450960, Note_on_c, 6, 54, 95
4, 450960, Note_on_c, 6, 47, 95
4, 451200, Note_off_c, 6, 63, 95
4, 451200, Note_off_c, 6, 59, 95
4, 451200, Note_off_c, 6, 54, 95
4, 451200, Note_off_c, 6, 47, 95
4, 451200, Note_on_c, 6, 63, 95
4, 451200, Note_on_c, 6, 59, 95
4, 451200, Note_on_c, 6, 54, 95
4, 451200, Note_on_c, 6, 47, 95
4, 451680, Note_off_c, 6, 63, 95
4, 451680, Note_off_c, 6, 59, 95
4, 451680, Note_off_c, 6, 54, 95
4, 451680, Note_off_c, 6, 47, 95
4, 451680, Note_on_c, 6, 63, 95
4, 451680, Note_on_c, 6, 59, 95
4, 451680, Note_on_c, 6, 54, 95
4, 451680, Note_on_c, 6, 47, 95
4, 452160, Note_off_c, 6, 63, 95
4, 452160, Note_off_c, 6, 59, 95
4, 452160, Note_off_c, 6, 54, 95
4, 452160, Note_off_c, 6, 47, 95
4, 452160, Note_on_c, 6, 63, 95
4, 452160, Note_on_c, 6, 59, 95
4, 452160, Note_on_c, 6, 54, 95
4, 452160, Note_on_c, 6, 47, 95
4, 452640, Note_off_c, 6, 63, 95
4, 452640, Note_off_c, 6, 59, 95
4, 452640, Note_off_c, 6, 54, 95
4, 452640, Note_off_c, 6, 47, 95
4, 452640, Note_on_c, 6, 63, 95
4, 452640, Note_on_c, 6, 59, 95
4, 452640, Note_on_c, 6, 54, 95
4, 452640, Note_on_c, 6, 47, 95
4, 453120, Note_off_c, 6, 63, 95
4, 453120, Note_off_c, 6, 59, 95
4, 453120, Note_off_c, 6, 54, 95
4, 453120, Note_off_c, 6, 47, 95
4, 453120, Note_on_c, 6, 61, 95
4, 453120, Note_on_c, 6, 57, 95
4, 453120, Note_on_c, 6, 52, 95
4, 453120, Note_on_c, 6, 45, 95
4, 453600, Note_off_c, 6, 61, 95
4, 453600, Note_off_c, 6, 57, 95
4, 453600, Note_off_c, 6, 52, 95
4, 453600, Note_off_c, 6, 45, 95
4, 453600, Note_on_c, 6, 61, 95
4, 453600, Note_on_c, 6, 57, 95
4, 453600, Note_on_c, 6, 52, 95
4, 453600, Note_on_c, 6, 45, 95
4, 454080, Note_off_c, 6, 61, 95
4, 454080, Note_off_c, 6, 57, 95
4, 454080, Note_off_c, 6, 52, 95
4, 454080, Note_off_c, 6, 45, 95
4, 454080, Note_on_c, 6, 61, 95
4, 454080, Note_on_c, 6, 57, 95
4, 454080, Note_on_c, 6, 52, 95
4, 454080, Note_on_c, 6, 45, 95
4, 454800, Note_off_c, 6, 61, 95
4, 454800, Note_off_c, 6, 57, 95
4, 454800, Note_off_c, 6, 52, 95
4, 454800, Note_off_c, 6, 45, 95
4, 454800, Note_on_c, 6, 61, 95
4, 454800, Note_on_c, 6, 57, 95
4, 454800, Note_on_c, 6, 52, 95
4, 454800, Note_on_c, 6, 45, 95
4, 455040, Note_off_c, 6, 61, 95
4, 455040, Note_off_c, 6, 57, 95
4, 455040, Note_off_c, 6, 52, 95
4, 455040, Note_off_c, 6, 45, 95
4, 455040, Note_on_c, 6, 61, 95
4, 455040, Note_on_c, 6, 57, 95
4, 455040, Note_on_c, 6, 52, 95
4, 455040, Note_on_c, 6, 45, 95
4, 455520, Note_off_c, 6, 61, 95
4, 455520, Note_off_c, 6, 57, 95
4, 455520, Note_off_c, 6, 52, 95
4, 455520, Note_off_c, 6, 45, 95
4, 455520, Note_on_c, 6, 61, 95
4, 455520, Note_on_c, 6, 57, 95
4, 455520, Note_on_c, 6, 52, 95
4, 455520, Note_on_c, 6, 45, 95
4, 456000, Note_off_c, 6, 61, 95
4, 456000, Note_off_c, 6, 57, 95
4, 456000, Note_off_c, 6, 52, 95
4, 456000, Note_off_c, 6, 45, 95
4, 456000, Note_on_c, 6, 61, 95
4, 456000, Note_on_c, 6, 57, 95
4, 456000, Note_on_c, 6, 52, 95
4, 456000, Note_on_c, 6, 45, 95
4, 456480, Note_off_c, 6, 61, 95
4, 456480, Note_off_c, 6, 57, 95
4, 456480, Note_off_c, 6, 52, 95
4, 456480, Note_off_c, 6, 45, 95
4, 456480, Note_on_c, 6, 61, 95
4, 456480, Note_on_c, 6, 57, 95
4, 456480, Note_on_c, 6, 52, 95
4, 456480, Note_on_c, 6, 45, 95
4, 456960, Note_off_c, 6, 61, 95
4, 456960, Note_off_c, 6, 57, 95
4, 456960, Note_off_c, 6, 52, 95
4, 456960, Note_off_c, 6, 45, 95
4, 456960, Note_on_c, 6, 59, 95
4, 456960, Note_on_c, 6, 56, 95
4, 456960, Note_on_c, 6, 52, 95
4, 456960, Note_on_c, 6, 47, 95
4, 457440, Note_off_c, 6, 59, 95
4, 457440, Note_off_c, 6, 56, 95
4, 457440, Note_off_c, 6, 52, 95
4, 457440, Note_off_c, 6, 47, 95
4, 457440, Note_on_c, 6, 61, 95
4, 457440, Note_on_c, 6, 57, 95
4, 457440, Note_on_c, 6, 52, 95
4, 457440, Note_on_c, 6, 45, 95
4, 457920, Note_off_c, 6, 61, 95
4, 457920, Note_off_c, 6, 57, 95
4, 457920, Note_off_c, 6, 52, 95
4, 457920, Note_off_c, 6, 45, 95
4, 457920, Note_on_c, 6, 59, 95
4, 457920, Note_on_c, 6, 56, 95
4, 457920, Note_on_c, 6, 52, 95
4, 457920, Note_on_c, 6, 47, 95
4, 458400, Note_off_c, 6, 59, 95
4, 458400, Note_off_c, 6, 56, 95
4, 458400, Note_off_c, 6, 52, 95
4, 458400, Note_off_c, 6, 47, 95
4, 458400, Note_on_c, 6, 61, 95
4, 458400, Note_on_c, 6, 57, 95
4, 458400, Note_on_c, 6, 52, 95
4, 458400, Note_on_c, 6, 45, 95
4, 458880, Note_off_c, 6, 61, 95
4, 458880, Note_off_c, 6, 57, 95
4, 458880, Note_off_c, 6, 52, 95
4, 458880, Note_off_c, 6, 45, 95
4, 458880, Note_on_c, 6, 59, 95
4, 458880, Note_on_c, 6, 56, 95
4, 458880, Note_on_c, 6, 52, 95
4, 458880, Note_on_c, 6, 47, 95
4, 459360, Note_off_c, 6, 59, 95
4, 459360, Note_off_c, 6, 56, 95
4, 459360, Note_off_c, 6, 52, 95
4, 459360, Note_off_c, 6, 47, 95
4, 459360, Note_on_c, 6, 63, 95
4, 459360, Note_on_c, 6, 59, 95
4, 459360, Note_on_c, 6, 54, 95
4, 459360, Note_on_c, 6, 47, 95
4, 459840, Note_off_c, 6, 63, 95
4, 459840, Note_off_c, 6, 59, 95
4, 459840, Note_off_c, 6, 54, 95
4, 459840, Note_off_c, 6, 47, 95
4, 459840, Note_on_c, 6, 63, 95
4, 459840, Note_on_c, 6, 59, 95
4, 459840, Note_on_c, 6, 54, 95
4, 459840, Note_on_c, 6, 47, 95
4, 460320, Note_off_c, 6, 63, 95
4, 460320, Note_off_c, 6, 59, 95
4, 460320, Note_off_c, 6, 54, 95
4, 460320, Note_off_c, 6, 47, 95
4, 460320, Note_on_c, 6, 63, 95
4, 460320, Note_on_c, 6, 59, 95
4, 460320, Note_on_c, 6, 54, 95
4, 460320, Note_on_c, 6, 47, 95
4, 460800, Note_off_c, 6, 63, 95
4, 460800, Note_off_c, 6, 59, 95
4, 460800, Note_off_c, 6, 54, 95
4, 460800, Note_off_c, 6, 47, 95
4, 460800, Note_on_c, 6, 61, 95
4, 460800, Note_on_c, 6, 56, 95
4, 460800, Note_on_c, 6, 49, 95
4, 461280, Note_off_c, 6, 61, 95
4, 461280, Note_off_c, 6, 56, 95
4, 461280, Note_off_c, 6, 49, 95
4, 461280, Note_on_c, 6, 65, 95
4, 461280, Note_on_c, 6, 61, 95
4, 461280, Note_on_c, 6, 56, 95
4, 461280, Note_on_c, 6, 49, 95
4, 461760, Note_off_c, 6, 65, 95
4, 461760, Note_off_c, 6, 61, 95
4, 461760, Note_off_c, 6, 56, 95
4, 461760, Note_off_c, 6, 49, 95
4, 461760, Note_on_c, 6, 65, 95
4, 461760, Note_on_c, 6, 61, 95
4, 461760, Note_on_c, 6, 56, 95
4, 461760, Note_on_c, 6, 49, 95
4, 462480, Note_off_c, 6, 65, 95
4, 462480, Note_off_c, 6, 61, 95
4, 462480, Note_off_c, 6, 56, 95
4, 462480, Note_off_c, 6, 49, 95
4, 462480, Note_on_c, 6, 66, 95
4, 462480, Note_on_c, 6, 61, 95
4, 462480, Note_on_c, 6, 56, 95
4, 462480, Note_on_c, 6, 49, 95
4, 462720, Note_off_c, 6, 66, 95
4, 462720, Note_off_c, 6, 61, 95
4, 462720, Note_off_c, 6, 56, 95
4, 462720, Note_off_c, 6, 49, 95
4, 462720, Note_on_c, 6, 66, 95
4, 462720, Note_on_c, 6, 61, 95
4, 462720, Note_on_c, 6, 56, 95
4, 462720, Note_on_c, 6, 49, 95
4, 463200, Note_off_c, 6, 66, 95
4, 463200, Note_off_c, 6, 61, 95
4, 463200, Note_off_c, 6, 56, 95
4, 463200, Note_off_c, 6, 49, 95
4, 463200, Note_on_c, 6, 66, 95
4, 463200, Note_on_c, 6, 61, 95
4, 463200, Note_on_c, 6, 56, 95
4, 463200, Note_on_c, 6, 49, 95
4, 463680, Note_off_c, 6, 66, 95
4, 463680, Note_off_c, 6, 61, 95
4, 463680, Note_off_c, 6, 56, 95
4, 463680, Note_off_c, 6, 49, 95
4, 463680, Note_on_c, 6, 66, 95
4, 463680, Note_on_c, 6, 61, 95
4, 463680, Note_on_c, 6, 56, 95
4, 463680, Note_on_c, 6, 49, 95
4, 464160, Note_off_c, 6, 66, 95
4, 464160, Note_off_c, 6, 61, 95
4, 464160, Note_off_c, 6, 56, 95
4, 464160, Note_off_c, 6, 49, 95
4, 464160, Note_on_c, 6, 56, 95
4, 464160, Note_on_c, 6, 52, 95
4, 464160, Note_on_c, 6, 47, 95
4, 464160, Note_on_c, 6, 40, 95
4, 464219, Note_off_c, 6, 56, 95
4, 464219, Note_off_c, 6, 52, 95
4, 464219, Note_off_c, 6, 47, 95
4, 464219, Note_off_c, 6, 40, 95
4, 464640, Note_on_c, 6, 59, 95
4, 464640, Note_on_c, 6, 54, 95
4, 464640, Note_on_c, 6, 47, 95
4, 465120, Note_off_c, 6, 59, 95
4, 465120, Note_off_c, 6, 54, 95
4, 465120, Note_off_c, 6, 47, 95
4, 465120, Note_on_c, 6, 64, 95
4, 465120, Note_on_c, 6, 59, 95
4, 465120, Note_on_c, 6, 54, 95
4, 465120, Note_on_c, 6, 47, 95
4, 465600, Note_off_c, 6, 64, 95
4, 465600, Note_off_c, 6, 59, 95
4, 465600, Note_off_c, 6, 54, 95
4, 465600, Note_off_c, 6, 47, 95
4, 465600, Note_on_c, 6, 64, 95
4, 465600, Note_on_c, 6, 59, 95
4, 465600, Note_on_c, 6, 54, 95
4, 465600, Note_on_c, 6, 47, 95
4, 466320, Note_off_c, 6, 64, 95
4, 466320, Note_off_c, 6, 59, 95
4, 466320, Note_off_c, 6, 54, 95
4, 466320, Note_off_c, 6, 47, 95
4, 466320, Note_on_c, 6, 64, 95
4, 466320, Note_on_c, 6, 59, 95
4, 466320, Note_on_c, 6, 54, 95
4, 466320, Note_on_c, 6, 47, 95
4, 466560, Note_off_c, 6, 64, 95
4, 466560, Note_off_c, 6, 59, 95
4, 466560, Note_off_c, 6, 54, 95
4, 466560, Note_off_c, 6, 47, 95
4, 466560, Note_on_c, 6, 64, 95
4, 466560, Note_on_c, 6, 59, 95
4, 466560, Note_on_c, 6, 54, 95
4, 466560, Note_on_c, 6, 47, 95
4, 467040, Note_off_c, 6, 64, 95
4, 467040, Note_off_c, 6, 59, 95
4, 467040, Note_off_c, 6, 54, 95
4, 467040, Note_off_c, 6, 47, 95
4, 467040, Note_on_c, 6, 64, 95
4, 467040, Note_on_c, 6, 59, 95
4, 467040, Note_on_c, 6, 54, 95
4, 467040, Note_on_c, 6, 47, 95
4, 467520, Note_off_c, 6, 64, 95
4, 467520, Note_off_c, 6, 59, 95
4, 467520, Note_off_c, 6, 54, 95
4, 467520, Note_off_c, 6, 47, 95
4, 467520, Note_on_c, 6, 64, 95
4, 467520, Note_on_c, 6, 59, 95
4, 467520, Note_on_c, 6, 54, 95
4, 467520, Note_on_c, 6, 47, 95
4, 468000, Note_off_c, 6, 64, 95
4, 468000, Note_off_c, 6, 59, 95
4, 468000, Note_off_c, 6, 54, 95
4, 468000, Note_off_c, 6, 47, 95
4, 468000, Note_on_c, 6, 56, 95
4, 468000, Note_on_c, 6, 52, 95
4, 468000, Note_on_c, 6, 47, 95
4, 468000, Note_on_c, 6, 40, 95
4, 468059, Note_off_c, 6, 56, 95
4, 468059, Note_off_c, 6, 52, 95
4, 468059, Note_off_c, 6, 47, 95
4, 468059, Note_off_c, 6, 40, 95
4, 468480, Note_on_c, 6, 61, 95
4, 468480, Note_on_c, 6, 57, 95
4, 468480, Note_on_c, 6, 52, 95
4, 468480, Note_on_c, 6, 45, 95
4, 468960, Note_off_c, 6, 61, 95
4, 468960, Note_off_c, 6, 57, 95
4, 468960, Note_off_c, 6, 52, 95
4, 468960, Note_off_c, 6, 45, 95
4, 468960, Note_on_c, 6, 61, 95
4, 468960, Note_on_c, 6, 57, 95
4, 468960, Note_on_c, 6, 52, 95
4, 468960, Note_on_c, 6, 45, 95
4, 469440, Note_off_c, 6, 61, 95
4, 469440, Note_off_c, 6, 57, 95
4, 469440, Note_off_c, 6, 52, 95
4, 469440, Note_off_c, 6, 45, 95
4, 469440, Note_on_c, 6, 61, 95
4, 469440, Note_on_c, 6, 57, 95
4, 469440, Note_on_c, 6, 52, 95
4, 469440, Note_on_c, 6, 45, 95
4, 470160, Note_off_c, 6, 61, 95
4, 470160, Note_off_c, 6, 57, 95
4, 470160, Note_off_c, 6, 52, 95
4, 470160, Note_off_c, 6, 45, 95
4, 470160, Note_on_c, 6, 61, 95
4, 470160, Note_on_c, 6, 57, 95
4, 470160, Note_on_c, 6, 52, 95
4, 470160, Note_on_c, 6, 45, 95
4, 470400, Note_off_c, 6, 61, 95
4, 470400, Note_off_c, 6, 57, 95
4, 470400, Note_off_c, 6, 52, 95
4, 470400, Note_off_c, 6, 45, 95
4, 470400, Note_on_c, 6, 61, 95
4, 470400, Note_on_c, 6, 57, 95
4, 470400, Note_on_c, 6, 52, 95
4, 470400, Note_on_c, 6, 45, 95
4, 470880, Note_off_c, 6, 61, 95
4, 470880, Note_off_c, 6, 57, 95
4, 470880, Note_off_c, 6, 52, 95
4, 470880, Note_off_c, 6, 45, 95
4, 470880, Note_on_c, 6, 61, 95
4, 470880, Note_on_c, 6, 57, 95
4, 470880, Note_on_c, 6, 52, 95
4, 470880, Note_on_c, 6, 45, 95
4, 471360, Note_off_c, 6, 61, 95
4, 471360, Note_off_c, 6, 57, 95
4, 471360, Note_off_c, 6, 52, 95
4, 471360, Note_off_c, 6, 45, 95
4, 471360, Note_on_c, 6, 61, 95
4, 471360, Note_on_c, 6, 57, 95
4, 471360, Note_on_c, 6, 52, 95
4, 471360, Note_on_c, 6, 45, 95
4, 471840, Note_off_c, 6, 61, 95
4, 471840, Note_off_c, 6, 57, 95
4, 471840, Note_off_c, 6, 52, 95
4, 471840, Note_off_c, 6, 45, 95
4, 471840, Note_on_c, 6, 56, 95
4, 471840, Note_on_c, 6, 52, 95
4, 471840, Note_on_c, 6, 47, 95
4, 471840, Note_on_c, 6, 40, 95
4, 471899, Note_off_c, 6, 56, 95
4, 471899, Note_off_c, 6, 52, 95
4, 471899, Note_off_c, 6, 47, 95
4, 471899, Note_off_c, 6, 40, 95
4, 472320, Note_on_c, 6, 59, 95
4, 472320, Note_on_c, 6, 56, 95
4, 472320, Note_on_c, 6, 52, 95
4, 472320, Note_on_c, 6, 47, 95
4, 472800, Note_off_c, 6, 59, 95
4, 472800, Note_off_c, 6, 56, 95
4, 472800, Note_off_c, 6, 52, 95
4, 472800, Note_off_c, 6, 47, 95
4, 472800, Note_on_c, 6, 61, 95
4, 472800, Note_on_c, 6, 57, 95
4, 472800, Note_on_c, 6, 52, 95
4, 472800, Note_on_c, 6, 45, 95
4, 473280, Note_off_c, 6, 61, 95
4, 473280, Note_off_c, 6, 57, 95
4, 473280, Note_off_c, 6, 52, 95
4, 473280, Note_off_c, 6, 45, 95
4, 473280, Note_on_c, 6, 59, 95
4, 473280, Note_on_c, 6, 56, 95
4, 473280, Note_on_c, 6, 52, 95
4, 473280, Note_on_c, 6, 47, 95
4, 473760, Note_off_c, 6, 59, 95
4, 473760, Note_off_c, 6, 56, 95
4, 473760, Note_off_c, 6, 52, 95
4, 473760, Note_off_c, 6, 47, 95
4, 473760, Note_on_c, 6, 61, 95
4, 473760, Note_on_c, 6, 57, 95
4, 473760, Note_on_c, 6, 52, 95
4, 473760, Note_on_c, 6, 45, 95
4, 474240, Note_off_c, 6, 61, 95
4, 474240, Note_off_c, 6, 57, 95
4, 474240, Note_off_c, 6, 52, 95
4, 474240, Note_off_c, 6, 45, 95
4, 474240, Note_on_c, 6, 64, 95
4, 474240, Note_on_c, 6, 59, 95
4, 474240, Note_on_c, 6, 54, 95
4, 474240, Note_on_c, 6, 47, 95
4, 474720, Note_off_c, 6, 64, 95
4, 474720, Note_off_c, 6, 59, 95
4, 474720, Note_off_c, 6, 54, 95
4, 474720, Note_off_c, 6, 47, 95
4, 474720, Note_on_c, 6, 64, 95
4, 474720, Note_on_c, 6, 59, 95
4, 474720, Note_on_c, 6, 54, 95
4, 474720, Note_on_c, 6, 47, 95
4, 475200, Note_off_c, 6, 64, 95
4, 475200, Note_off_c, 6, 59, 95
4, 475200, Note_off_c, 6, 54, 95
4, 475200, Note_off_c, 6, 47, 95
4, 475200, Note_on_c, 6, 64, 95
4, 475200, Note_on_c, 6, 59, 95
4, 475200, Note_on_c, 6, 54, 95
4, 475200, Note_on_c, 6, 47, 95
4, 475680, Note_off_c, 6, 64, 95
4, 475680, Note_off_c, 6, 59, 95
4, 475680, Note_off_c, 6, 54, 95
4, 475680, Note_off_c, 6, 47, 95
4, 475680, Note_on_c, 6, 61, 95
4, 475680, Note_on_c, 6, 56, 95
4, 475680, Note_on_c, 6, 49, 95
4, 476160, Note_off_c, 6, 61, 95
4, 476160, Note_off_c, 6, 56, 95
4, 476160, Note_off_c, 6, 49, 95
4, 476160, Note_on_c, 6, 61, 95
4, 476160, Note_on_c, 6, 56, 95
4, 476160, Note_on_c, 6, 49, 95
4, 476640, Note_off_c, 6, 61, 95
4, 476640, Note_off_c, 6, 56, 95
4, 476640, Note_off_c, 6, 49, 95
4, 476640, Note_on_c, 6, 65, 95
4, 476640, Note_on_c, 6, 61, 95
4, 476640, Note_on_c, 6, 56, 95
4, 476640, Note_on_c, 6, 49, 95
4, 477120, Note_off_c, 6, 65, 95
4, 477120, Note_off_c, 6, 61, 95
4, 477120, Note_off_c, 6, 56, 95
4, 477120, Note_off_c, 6, 49, 95
4, 477120, Note_on_c, 6, 65, 95
4, 477120, Note_on_c, 6, 61, 95
4, 477120, Note_on_c, 6, 56, 95
4, 477120, Note_on_c, 6, 49, 95
4, 477840, Note_off_c, 6, 65, 95
4, 477840, Note_off_c, 6, 61, 95
4, 477840, Note_off_c, 6, 56, 95
4, 477840, Note_off_c, 6, 49, 95
4, 477840, Note_on_c, 6, 66, 95
4, 477840, Note_on_c, 6, 61, 95
4, 477840, Note_on_c, 6, 56, 95
4, 477840, Note_on_c, 6, 49, 95
4, 478080, Note_off_c, 6, 66, 95
4, 478080, Note_off_c, 6, 61, 95
4, 478080, Note_off_c, 6, 56, 95
4, 478080, Note_off_c, 6, 49, 95
4, 478080, Note_on_c, 6, 66, 95
4, 478080, Note_on_c, 6, 61, 95
4, 478080, Note_on_c, 6, 56, 95
4, 478080, Note_on_c, 6, 49, 95
4, 478560, Note_off_c, 6, 66, 95
4, 478560, Note_off_c, 6, 61, 95
4, 478560, Note_off_c, 6, 56, 95
4, 478560, Note_off_c, 6, 49, 95
4, 478560, Note_on_c, 6, 66, 95
4, 478560, Note_on_c, 6, 61, 95
4, 478560, Note_on_c, 6, 56, 95
4, 478560, Note_on_c, 6, 49, 95
4, 479040, Note_off_c, 6, 66, 95
4, 479040, Note_off_c, 6, 61, 95
4, 479040, Note_off_c, 6, 56, 95
4, 479040, Note_off_c, 6, 49, 95
4, 479040, Note_on_c, 6, 66, 95
4, 479040, Note_on_c, 6, 61, 95
4, 479040, Note_on_c, 6, 56, 95
4, 479040, Note_on_c, 6, 49, 95
4, 479520, Note_off_c, 6, 66, 95
4, 479520, Note_off_c, 6, 61, 95
4, 479520, Note_off_c, 6, 56, 95
4, 479520, Note_off_c, 6, 49, 95
4, 479520, Note_on_c, 6, 56, 95
4, 479520, Note_on_c, 6, 52, 95
4, 479520, Note_on_c, 6, 47, 95
4, 479520, Note_on_c, 6, 40, 95
4, 479579, Note_off_c, 6, 56, 95
4, 479579, Note_off_c, 6, 52, 95
4, 479579, Note_off_c, 6, 47, 95
4, 479579, Note_off_c, 6, 40, 95
4, 480000, Note_on_c, 6, 59, 95
4, 480000, Note_on_c, 6, 54, 95
4, 480000, Note_on_c, 6, 47, 95
4, 480480, Note_off_c, 6, 59, 95
4, 480480, Note_off_c, 6, 54, 95
4, 480480, Note_off_c, 6, 47, 95
4, 480480, Note_on_c, 6, 64, 95
4, 480480, Note_on_c, 6, 59, 95
4, 480480, Note_on_c, 6, 54, 95
4, 480480, Note_on_c, 6, 47, 95
4, 480960, Note_off_c, 6, 64, 95
4, 480960, Note_off_c, 6, 59, 95
4, 480960, Note_off_c, 6, 54, 95
4, 480960, Note_off_c, 6, 47, 95
4, 480960, Note_on_c, 6, 64, 95
4, 480960, Note_on_c, 6, 59, 95
4, 480960, Note_on_c, 6, 54, 95
4, 480960, Note_on_c, 6, 47, 95
4, 481680, Note_off_c, 6, 64, 95
4, 481680, Note_off_c, 6, 59, 95
4, 481680, Note_off_c, 6, 54, 95
4, 481680, Note_off_c, 6, 47, 95
4, 481680, Note_on_c, 6, 64, 95
4, 481680, Note_on_c, 6, 59, 95
4, 481680, Note_on_c, 6, 54, 95
4, 481680, Note_on_c, 6, 47, 95
4, 481920, Note_off_c, 6, 64, 95
4, 481920, Note_off_c, 6, 59, 95
4, 481920, Note_off_c, 6, 54, 95
4, 481920, Note_off_c, 6, 47, 95
4, 481920, Note_on_c, 6, 64, 95
4, 481920, Note_on_c, 6, 59, 95
4, 481920, Note_on_c, 6, 54, 95
4, 481920, Note_on_c, 6, 47, 95
4, 482400, Note_off_c, 6, 64, 95
4, 482400, Note_off_c, 6, 59, 95
4, 482400, Note_off_c, 6, 54, 95
4, 482400, Note_off_c, 6, 47, 95
4, 482400, Note_on_c, 6, 64, 95
4, 482400, Note_on_c, 6, 59, 95
4, 482400, Note_on_c, 6, 54, 95
4, 482400, Note_on_c, 6, 47, 95
4, 482880, Note_off_c, 6, 64, 95
4, 482880, Note_off_c, 6, 59, 95
4, 482880, Note_off_c, 6, 54, 95
4, 482880, Note_off_c, 6, 47, 95
4, 482880, Note_on_c, 6, 64, 95
4, 482880, Note_on_c, 6, 59, 95
4, 482880, Note_on_c, 6, 54, 95
4, 482880, Note_on_c, 6, 47, 95
4, 483360, Note_off_c, 6, 64, 95
4, 483360, Note_off_c, 6, 59, 95
4, 483360, Note_off_c, 6, 54, 95
4, 483360, Note_off_c, 6, 47, 95
4, 483360, Note_on_c, 6, 56, 95
4, 483360, Note_on_c, 6, 52, 95
4, 483360, Note_on_c, 6, 47, 95
4, 483360, Note_on_c, 6, 40, 95
4, 483419, Note_off_c, 6, 56, 95
4, 483419, Note_off_c, 6, 52, 95
4, 483419, Note_off_c, 6, 47, 95
4, 483419, Note_off_c, 6, 40, 95
4, 483840, Note_on_c, 6, 61, 95
4, 483840, Note_on_c, 6, 57, 95
4, 483840, Note_on_c, 6, 52, 95
4, 483840, Note_on_c, 6, 45, 95
4, 484320, Note_off_c, 6, 61, 95
4, 484320, Note_off_c, 6, 57, 95
4, 484320, Note_off_c, 6, 52, 95
4, 484320, Note_off_c, 6, 45, 95
4, 484320, Note_on_c, 6, 61, 95
4, 484320, Note_on_c, 6, 57, 95
4, 484320, Note_on_c, 6, 52, 95
4, 484320, Note_on_c, 6, 45, 95
4, 484800, Note_off_c, 6, 61, 95
4, 484800, Note_off_c, 6, 57, 95
4, 484800, Note_off_c, 6, 52, 95
4, 484800, Note_off_c, 6, 45, 95
4, 484800, Note_on_c, 6, 61, 95
4, 484800, Note_on_c, 6, 57, 95
4, 484800, Note_on_c, 6, 52, 95
4, 484800, Note_on_c, 6, 45, 95
4, 485520, Note_off_c, 6, 61, 95
4, 485520, Note_off_c, 6, 57, 95
4, 485520, Note_off_c, 6, 52, 95
4, 485520, Note_off_c, 6, 45, 95
4, 485520, Note_on_c, 6, 61, 95
4, 485520, Note_on_c, 6, 57, 95
4, 485520, Note_on_c, 6, 52, 95
4, 485520, Note_on_c, 6, 45, 95
4, 485760, Note_off_c, 6, 61, 95
4, 485760, Note_off_c, 6, 57, 95
4, 485760, Note_off_c, 6, 52, 95
4, 485760, Note_off_c, 6, 45, 95
4, 485760, Note_on_c, 6, 61, 95
4, 485760, Note_on_c, 6, 57, 95
4, 485760, Note_on_c, 6, 52, 95
4, 485760, Note_on_c, 6, 45, 95
4, 486240, Note_off_c, 6, 61, 95
4, 486240, Note_off_c, 6, 57, 95
4, 486240, Note_off_c, 6, 52, 95
4, 486240, Note_off_c, 6, 45, 95
4, 486240, Note_on_c, 6, 61, 95
4, 486240, Note_on_c, 6, 57, 95
4, 486240, Note_on_c, 6, 52, 95
4, 486240, Note_on_c, 6, 45, 95
4, 486720, Note_off_c, 6, 61, 95
4, 486720, Note_off_c, 6, 57, 95
4, 486720, Note_off_c, 6, 52, 95
4, 486720, Note_off_c, 6, 45, 95
4, 486720, Note_on_c, 6, 61, 95
4, 486720, Note_on_c, 6, 57, 95
4, 486720, Note_on_c, 6, 52, 95
4, 486720, Note_on_c, 6, 45, 95
4, 487200, Note_off_c, 6, 61, 95
4, 487200, Note_off_c, 6, 57, 95
4, 487200, Note_off_c, 6, 52, 95
4, 487200, Note_off_c, 6, 45, 95
4, 487200, Note_on_c, 6, 56, 95
4, 487200, Note_on_c, 6, 52, 95
4, 487200, Note_on_c, 6, 47, 95
4, 487200, Note_on_c, 6, 40, 95
4, 487259, Note_off_c, 6, 56, 95
4, 487259, Note_off_c, 6, 52, 95
4, 487259, Note_off_c, 6, 47, 95
4, 487259, Note_off_c, 6, 40, 95
4, 487680, Note_on_c, 6, 59, 95
4, 487680, Note_on_c, 6, 56, 95
4, 487680, Note_on_c, 6, 52, 95
4, 487680, Note_on_c, 6, 47, 95
4, 488160, Note_off_c, 6, 59, 95
4, 488160, Note_off_c, 6, 56, 95
4, 488160, Note_off_c, 6, 52, 95
4, 488160, Note_off_c, 6, 47, 95
4, 488160, Note_on_c, 6, 61, 95
4, 488160, Note_on_c, 6, 57, 95
4, 488160, Note_on_c, 6, 52, 95
4, 488160, Note_on_c, 6, 45, 95
4, 488640, Note_off_c, 6, 61, 95
4, 488640, Note_off_c, 6, 57, 95
4, 488640, Note_off_c, 6, 52, 95
4, 488640, Note_off_c, 6, 45, 95
4, 488640, Note_on_c, 6, 59, 95
4, 488640, Note_on_c, 6, 56, 95
4, 488640, Note_on_c, 6, 52, 95
4, 488640, Note_on_c, 6, 47, 95
4, 489120, Note_off_c, 6, 59, 95
4, 489120, Note_off_c, 6, 56, 95
4, 489120, Note_off_c, 6, 52, 95
4, 489120, Note_off_c, 6, 47, 95
4, 489120, Note_on_c, 6, 61, 95
4, 489120, Note_on_c, 6, 57, 95
4, 489120, Note_on_c, 6, 52, 95
4, 489120, Note_on_c, 6, 45, 95
4, 489600, Note_off_c, 6, 61, 95
4, 489600, Note_off_c, 6, 57, 95
4, 489600, Note_off_c, 6, 52, 95
4, 489600, Note_off_c, 6, 45, 95
4, 489600, Note_on_c, 6, 64, 95
4, 489600, Note_on_c, 6, 59, 95
4, 489600, Note_on_c, 6, 54, 95
4, 489600, Note_on_c, 6, 47, 95
4, 490080, Note_off_c, 6, 64, 95
4, 490080, Note_off_c, 6, 59, 95
4, 490080, Note_off_c, 6, 54, 95
4, 490080, Note_off_c, 6, 47, 95
4, 490080, Note_on_c, 6, 64, 95
4, 490080, Note_on_c, 6, 59, 95
4, 490080, Note_on_c, 6, 54, 95
4, 490080, Note_on_c, 6, 47, 95
4, 490560, Note_off_c, 6, 64, 95
4, 490560, Note_off_c, 6, 59, 95
4, 490560, Note_off_c, 6, 54, 95
4, 490560, Note_off_c, 6, 47, 95
4, 490560, Note_on_c, 6, 64, 95
4, 490560, Note_on_c, 6, 59, 95
4, 490560, Note_on_c, 6, 54, 95
4, 490560, Note_on_c, 6, 47, 95
4, 491040, Note_off_c, 6, 64, 95
4, 491040, Note_off_c, 6, 59, 95
4, 491040, Note_off_c, 6, 54, 95
4, 491040, Note_off_c, 6, 47, 95
4, 491040, Note_on_c, 6, 61, 95
4, 491040, Note_on_c, 6, 56, 95
4, 491040, Note_on_c, 6, 49, 95
4, 491520, Note_off_c, 6, 61, 95
4, 491520, Note_off_c, 6, 56, 95
4, 491520, Note_off_c, 6, 49, 95
4, 491520, Note_on_c, 6, 61, 95
4, 491520, Note_on_c, 6, 56, 95
4, 491520, Note_on_c, 6, 49, 95
4, 492000, Note_off_c, 6, 61, 95
4, 492000, Note_off_c, 6, 56, 95
4, 492000, Note_off_c, 6, 49, 95
4, 492000, Note_on_c, 6, 65, 95
4, 492000, Note_on_c, 6, 61, 95
4, 492000, Note_on_c, 6, 56, 95
4, 492000, Note_on_c, 6, 49, 95
4, 492480, Note_off_c, 6, 65, 95
4, 492480, Note_off_c, 6, 61, 95
4, 492480, Note_off_c, 6, 56, 95
4, 492480, Note_off_c, 6, 49, 95
4, 492480, Note_on_c, 6, 65, 95
4, 492480, Note_on_c, 6, 61, 95
4, 492480, Note_on_c, 6, 56, 95
4, 492480, Note_on_c, 6, 49, 95
4, 493200, Note_off_c, 6, 65, 95
4, 493200, Note_off_c, 6, 61, 95
4, 493200, Note_off_c, 6, 56, 95
4, 493200, Note_off_c, 6, 49, 95
4, 493200, Note_on_c, 6, 66, 95
4, 493200, Note_on_c, 6, 61, 95
4, 493200, Note_on_c, 6, 56, 95
4, 493200, Note_on_c, 6, 49, 95
4, 493440, Note_off_c, 6, 66, 95
4, 493440, Note_off_c, 6, 61, 95
4, 493440, Note_off_c, 6, 56, 95
4, 493440, Note_off_c, 6, 49, 95
4, 493440, Note_on_c, 6, 66, 95
4, 493440, Note_on_c, 6, 61, 95
4, 493440, Note_on_c, 6, 56, 95
4, 493440, Note_on_c, 6, 49, 95
4, 493920, Note_off_c, 6, 66, 95
4, 493920, Note_off_c, 6, 61, 95
4, 493920, Note_off_c, 6, 56, 95
4, 493920, Note_off_c, 6, 49, 95
4, 493920, Note_on_c, 6, 66, 95
4, 493920, Note_on_c, 6, 61, 95
4, 493920, Note_on_c, 6, 56, 95
4, 493920, Note_on_c, 6, 49, 95
4, 494400, Note_off_c, 6, 66, 95
4, 494400, Note_off_c, 6, 61, 95
4, 494400, Note_off_c, 6, 56, 95
4, 494400, Note_off_c, 6, 49, 95
4, 494400, Note_on_c, 6, 66, 95
4, 494400, Note_on_c, 6, 61, 95
4, 494400, Note_on_c, 6, 56, 95
4, 494400, Note_on_c, 6, 49, 95
4, 494880, Note_off_c, 6, 66, 95
4, 494880, Note_off_c, 6, 61, 95
4, 494880, Note_off_c, 6, 56, 95
4, 494880, Note_off_c, 6, 49, 95
4, 494880, Note_on_c, 6, 56, 95
4, 494880, Note_on_c, 6, 52, 95
4, 494880, Note_on_c, 6, 47, 95
4, 494880, Note_on_c, 6, 40, 95
4, 494939, Note_off_c, 6, 56, 95
4, 494939, Note_off_c, 6, 52, 95
4, 494939, Note_off_c, 6, 47, 95
4, 494939, Note_off_c, 6, 40, 95
4, 495360, Note_on_c, 6, 59, 95
4, 495360, Note_on_c, 6, 54, 95
4, 495360, Note_on_c, 6, 47, 95
4, 495840, Note_off_c, 6, 59, 95
4, 495840, Note_off_c, 6, 54, 95
4, 495840, Note_off_c, 6, 47, 95
4, 495840, Note_on_c, 6, 64, 95
4, 495840, Note_on_c, 6, 59, 95
4, 495840, Note_on_c, 6, 54, 95
4, 495840, Note_on_c, 6, 47, 95
4, 496320, Note_off_c, 6, 64, 95
4, 496320, Note_off_c, 6, 59, 95
4, 496320, Note_off_c, 6, 54, 95
4, 496320, Note_off_c, 6, 47, 95
4, 496320, Note_on_c, 6, 64, 95
4, 496320, Note_on_c, 6, 59, 95
4, 496320, Note_on_c, 6, 54, 95
4, 496320, Note_on_c, 6, 47, 95
4, 497040, Note_off_c, 6, 64, 95
4, 497040, Note_off_c, 6, 59, 95
4, 497040, Note_off_c, 6, 54, 95
4, 497040, Note_off_c, 6, 47, 95
4, 497040, Note_on_c, 6, 64, 95
4, 497040, Note_on_c, 6, 59, 95
4, 497040, Note_on_c, 6, 54, 95
4, 497040, Note_on_c, 6, 47, 95
4, 497280, Note_off_c, 6, 64, 95
4, 497280, Note_off_c, 6, 59, 95
4, 497280, Note_off_c, 6, 54, 95
4, 497280, Note_off_c, 6, 47, 95
4, 497280, Note_on_c, 6, 64, 95
4, 497280, Note_on_c, 6, 59, 95
4, 497280, Note_on_c, 6, 54, 95
4, 497280, Note_on_c, 6, 47, 95
4, 497760, Note_off_c, 6, 64, 95
4, 497760, Note_off_c, 6, 59, 95
4, 497760, Note_off_c, 6, 54, 95
4, 497760, Note_off_c, 6, 47, 95
4, 497760, Note_on_c, 6, 64, 95
4, 497760, Note_on_c, 6, 59, 95
4, 497760, Note_on_c, 6, 54, 95
4, 497760, Note_on_c, 6, 47, 95
4, 498240, Note_off_c, 6, 64, 95
4, 498240, Note_off_c, 6, 59, 95
4, 498240, Note_off_c, 6, 54, 95
4, 498240, Note_off_c, 6, 47, 95
4, 498240, Note_on_c, 6, 64, 95
4, 498240, Note_on_c, 6, 59, 95
4, 498240, Note_on_c, 6, 54, 95
4, 498240, Note_on_c, 6, 47, 95
4, 498720, Note_off_c, 6, 64, 95
4, 498720, Note_off_c, 6, 59, 95
4, 498720, Note_off_c, 6, 54, 95
4, 498720, Note_off_c, 6, 47, 95
4, 498720, Note_on_c, 6, 56, 95
4, 498720, Note_on_c, 6, 52, 95
4, 498720, Note_on_c, 6, 47, 95
4, 498720, Note_on_c, 6, 40, 95
4, 498779, Note_off_c, 6, 56, 95
4, 498779, Note_off_c, 6, 52, 95
4, 498779, Note_off_c, 6, 47, 95
4, 498779, Note_off_c, 6, 40, 95
4, 499200, Note_on_c, 6, 61, 95
4, 499200, Note_on_c, 6, 57, 95
4, 499200, Note_on_c, 6, 52, 95
4, 499200, Note_on_c, 6, 45, 95
4, 499680, Note_off_c, 6, 61, 95
4, 499680, Note_off_c, 6, 57, 95
4, 499680, Note_off_c, 6, 52, 95
4, 499680, Note_off_c, 6, 45, 95
4, 499680, Note_on_c, 6, 61, 95
4, 499680, Note_on_c, 6, 57, 95
4, 499680, Note_on_c, 6, 52, 95
4, 499680, Note_on_c, 6, 45, 95
4, 500160, Note_off_c, 6, 61, 95
4, 500160, Note_off_c, 6, 57, 95
4, 500160, Note_off_c, 6, 52, 95
4, 500160, Note_off_c, 6, 45, 95
4, 500160, Note_on_c, 6, 61, 95
4, 500160, Note_on_c, 6, 57, 95
4, 500160, Note_on_c, 6, 52, 95
4, 500160, Note_on_c, 6, 45, 95
4, 500880, Note_off_c, 6, 61, 95
4, 500880, Note_off_c, 6, 57, 95
4, 500880, Note_off_c, 6, 52, 95
4, 500880, Note_off_c, 6, 45, 95
4, 500880, Note_on_c, 6, 61, 95
4, 500880, Note_on_c, 6, 57, 95
4, 500880, Note_on_c, 6, 52, 95
4, 500880, Note_on_c, 6, 45, 95
4, 501120, Note_off_c, 6, 61, 95
4, 501120, Note_off_c, 6, 57, 95
4, 501120, Note_off_c, 6, 52, 95
4, 501120, Note_off_c, 6, 45, 95
4, 501120, Note_on_c, 6, 61, 95
4, 501120, Note_on_c, 6, 57, 95
4, 501120, Note_on_c, 6, 52, 95
4, 501120, Note_on_c, 6, 45, 95
4, 501600, Note_off_c, 6, 61, 95
4, 501600, Note_off_c, 6, 57, 95
4, 501600, Note_off_c, 6, 52, 95
4, 501600, Note_off_c, 6, 45, 95
4, 501600, Note_on_c, 6, 61, 95
4, 501600, Note_on_c, 6, 57, 95
4, 501600, Note_on_c, 6, 52, 95
4, 501600, Note_on_c, 6, 45, 95
4, 502080, Note_off_c, 6, 61, 95
4, 502080, Note_off_c, 6, 57, 95
4, 502080, Note_off_c, 6, 52, 95
4, 502080, Note_off_c, 6, 45, 95
4, 502080, Note_on_c, 6, 61, 95
4, 502080, Note_on_c, 6, 57, 95
4, 502080, Note_on_c, 6, 52, 95
4, 502080, Note_on_c, 6, 45, 95
4, 502560, Note_off_c, 6, 61, 95
4, 502560, Note_off_c, 6, 57, 95
4, 502560, Note_off_c, 6, 52, 95
4, 502560, Note_off_c, 6, 45, 95
4, 502560, Note_on_c, 6, 56, 95
4, 502560, Note_on_c, 6, 52, 95
4, 502560, Note_on_c, 6, 47, 95
4, 502560, Note_on_c, 6, 40, 95
4, 502619, Note_off_c, 6, 56, 95
4, 502619, Note_off_c, 6, 52, 95
4, 502619, Note_off_c, 6, 47, 95
4, 502619, Note_off_c, 6, 40, 95
4, 503040, Note_on_c, 6, 59, 95
4, 503040, Note_on_c, 6, 56, 95
4, 503040, Note_on_c, 6, 52, 95
4, 503040, Note_on_c, 6, 47, 95
4, 503520, Note_off_c, 6, 59, 95
4, 503520, Note_off_c, 6, 56, 95
4, 503520, Note_off_c, 6, 52, 95
4, 503520, Note_off_c, 6, 47, 95
4, 503520, Note_on_c, 6, 61, 95
4, 503520, Note_on_c, 6, 57, 95
4, 503520, Note_on_c, 6, 52, 95
4, 503520, Note_on_c, 6, 45, 95
4, 504000, Note_off_c, 6, 61, 95
4, 504000, Note_off_c, 6, 57, 95
4, 504000, Note_off_c, 6, 52, 95
4, 504000, Note_off_c, 6, 45, 95
4, 504000, Note_on_c, 6, 59, 95
4, 504000, Note_on_c, 6, 56, 95
4, 504000, Note_on_c, 6, 52, 95
4, 504000, Note_on_c, 6, 47, 95
4, 504480, Note_off_c, 6, 59, 95
4, 504480, Note_off_c, 6, 56, 95
4, 504480, Note_off_c, 6, 52, 95
4, 504480, Note_off_c, 6, 47, 95
4, 504480, Note_on_c, 6, 61, 95
4, 504480, Note_on_c, 6, 57, 95
4, 504480, Note_on_c, 6, 52, 95
4, 504480, Note_on_c, 6, 45, 95
4, 504960, Note_off_c, 6, 61, 95
4, 504960, Note_off_c, 6, 57, 95
4, 504960, Note_off_c, 6, 52, 95
4, 504960, Note_off_c, 6, 45, 95
4, 504960, Note_on_c, 6, 64, 95
4, 504960, Note_on_c, 6, 59, 95
4, 504960, Note_on_c, 6, 54, 95
4, 504960, Note_on_c, 6, 47, 95
4, 505440, Note_off_c, 6, 64, 95
4, 505440, Note_off_c, 6, 59, 95
4, 505440, Note_off_c, 6, 54, 95
4, 505440, Note_off_c, 6, 47, 95
4, 505440, Note_on_c, 6, 64, 95
4, 505440, Note_on_c, 6, 59, 95
4, 505440, Note_on_c, 6, 54, 95
4, 505440, Note_on_c, 6, 47, 95
4, 505920, Note_off_c, 6, 64, 95
4, 505920, Note_off_c, 6, 59, 95
4, 505920, Note_off_c, 6, 54, 95
4, 505920, Note_off_c, 6, 47, 95
4, 505920, Note_on_c, 6, 64, 95
4, 505920, Note_on_c, 6, 59, 95
4, 505920, Note_on_c, 6, 54, 95
4, 505920, Note_on_c, 6, 47, 95
4, 506400, Note_off_c, 6, 64, 95
4, 506400, Note_off_c, 6, 59, 95
4, 506400, Note_off_c, 6, 54, 95
4, 506400, Note_off_c, 6, 47, 95
4, 506400, Note_on_c, 6, 61, 95
4, 506400, Note_on_c, 6, 56, 95
4, 506400, Note_on_c, 6, 49, 95
4, 506880, Note_off_c, 6, 61, 95
4, 506880, Note_off_c, 6, 56, 95
4, 506880, Note_off_c, 6, 49, 95
4, 506880, Note_on_c, 6, 61, 95
4, 506880, Note_on_c, 6, 56, 95
4, 506880, Note_on_c, 6, 49, 95
4, 507360, Note_off_c, 6, 61, 95
4, 507360, Note_off_c, 6, 56, 95
4, 507360, Note_off_c, 6, 49, 95
4, 507360, Note_on_c, 6, 65, 95
4, 507360, Note_on_c, 6, 61, 95
4, 507360, Note_on_c, 6, 56, 95
4, 507360, Note_on_c, 6, 49, 95
4, 507840, Note_off_c, 6, 65, 95
4, 507840, Note_off_c, 6, 61, 95
4, 507840, Note_off_c, 6, 56, 95
4, 507840, Note_off_c, 6, 49, 95
4, 507840, Note_on_c, 6, 65, 95
4, 507840, Note_on_c, 6, 61, 95
4, 507840, Note_on_c, 6, 56, 95
4, 507840, Note_on_c, 6, 49, 95
4, 508560, Note_off_c, 6, 65, 95
4, 508560, Note_off_c, 6, 61, 95
4, 508560, Note_off_c, 6, 56, 95
4, 508560, Note_off_c, 6, 49, 95
4, 508560, Note_on_c, 6, 66, 95
4, 508560, Note_on_c, 6, 61, 95
4, 508560, Note_on_c, 6, 56, 95
4, 508560, Note_on_c, 6, 49, 95
4, 508800, Note_off_c, 6, 66, 95
4, 508800, Note_off_c, 6, 61, 95
4, 508800, Note_off_c, 6, 56, 95
4, 508800, Note_off_c, 6, 49, 95
4, 508800, Note_on_c, 6, 66, 95
4, 508800, Note_on_c, 6, 61, 95
4, 508800, Note_on_c, 6, 56, 95
4, 508800, Note_on_c, 6, 49, 95
4, 509280, Note_off_c, 6, 66, 95
4, 509280, Note_off_c, 6, 61, 95
4, 509280, Note_off_c, 6, 56, 95
4, 509280, Note_off_c, 6, 49, 95
4, 509280, Note_on_c, 6, 66, 95
4, 509280, Note_on_c, 6, 61, 95
4, 509280, Note_on_c, 6, 56, 95
4, 509280, Note_on_c, 6, 49, 95
4, 509760, Note_off_c, 6, 66, 95
4, 509760, Note_off_c, 6, 61, 95
4, 509760, Note_off_c, 6, 56, 95
4, 509760, Note_off_c, 6, 49, 95
4, 509760, Note_on_c, 6, 66, 95
4, 509760, Note_on_c, 6, 61, 95
4, 509760, Note_on_c, 6, 56, 95
4, 509760, Note_on_c, 6, 49, 95
4, 510240, Note_off_c, 6, 66, 95
4, 510240, Note_off_c, 6, 61, 95
4, 510240, Note_off_c, 6, 56, 95
4, 510240, Note_off_c, 6, 49, 95
4, 510240, Note_on_c, 6, 56, 95
4, 510240, Note_on_c, 6, 52, 95
4, 510240, Note_on_c, 6, 47, 95
4, 510240, Note_on_c, 6, 40, 95
4, 510299, Note_off_c, 6, 56, 95
4, 510299, Note_off_c, 6, 52, 95
4, 510299, Note_off_c, 6, 47, 95
4, 510299, Note_off_c, 6, 40, 95
4, 510720, Note_on_c, 6, 59, 95
4, 510720, Note_on_c, 6, 54, 95
4, 510720, Note_on_c, 6, 47, 95
4, 511200, Note_off_c, 6, 59, 95
4, 511200, Note_off_c, 6, 54, 95
4, 511200, Note_off_c, 6, 47, 95
4, 511200, Note_on_c, 6, 64, 95
4, 511200, Note_on_c, 6, 59, 95
4, 511200, Note_on_c, 6, 54, 95
4, 511200, Note_on_c, 6, 47, 95
4, 511680, Note_off_c, 6, 64, 95
4, 511680, Note_off_c, 6, 59, 95
4, 511680, Note_off_c, 6, 54, 95
4, 511680, Note_off_c, 6, 47, 95
4, 511680, Note_on_c, 6, 64, 95
4, 511680, Note_on_c, 6, 59, 95
4, 511680, Note_on_c, 6, 54, 95
4, 511680, Note_on_c, 6, 47, 95
4, 512400, Note_off_c, 6, 64, 95
4, 512400, Note_off_c, 6, 59, 95
4, 512400, Note_off_c, 6, 54, 95
4, 512400, Note_off_c, 6, 47, 95
4, 512400, Note_on_c, 6, 64, 95
4, 512400, Note_on_c, 6, 59, 95
4, 512400, Note_on_c, 6, 54, 95
4, 512400, Note_on_c, 6, 47, 95
4, 512640, Note_off_c, 6, 64, 95
4, 512640, Note_off_c, 6, 59, 95
4, 512640, Note_off_c, 6, 54, 95
4, 512640, Note_off_c, 6, 47, 95
4, 512640, Note_on_c, 6, 64, 95
4, 512640, Note_on_c, 6, 59, 95
4, 512640, Note_on_c, 6, 54, 95
4, 512640, Note_on_c, 6, 47, 95
4, 513120, Note_off_c, 6, 64, 95
4, 513120, Note_off_c, 6, 59, 95
4, 513120, Note_off_c, 6, 54, 95
4, 513120, Note_off_c, 6, 47, 95
4, 513120, Note_on_c, 6, 64, 95
4, 513120, Note_on_c, 6, 59, 95
4, 513120, Note_on_c, 6, 54, 95
4, 513120, Note_on_c, 6, 47, 95
4, 513600, Note_off_c, 6, 64, 95
4, 513600, Note_off_c, 6, 59, 95
4, 513600, Note_off_c, 6, 54, 95
4, 513600, Note_off_c, 6, 47, 95
4, 513600, Note_on_c, 6, 64, 95
4, 513600, Note_on_c, 6, 59, 95
4, 513600, Note_on_c, 6, 54, 95
4, 513600, Note_on_c, 6, 47, 95
4, 514080, Note_off_c, 6, 64, 95
4, 514080, Note_off_c, 6, 59, 95
4, 514080, Note_off_c, 6, 54, 95
4, 514080, Note_off_c, 6, 47, 95
4, 514080, Note_on_c, 6, 56, 95
4, 514080, Note_on_c, 6, 52, 95
4, 514080, Note_on_c, 6, 47, 95
4, 514080, Note_on_c, 6, 40, 95
4, 514139, Note_off_c, 6, 56, 95
4, 514139, Note_off_c, 6, 52, 95
4, 514139, Note_off_c, 6, 47, 95
4, 514139, Note_off_c, 6, 40, 95
4, 514560, Note_on_c, 6, 61, 95
4, 514560, Note_on_c, 6, 57, 95
4, 514560, Note_on_c, 6, 52, 95
4, 514560, Note_on_c, 6, 45, 95
4, 515040, Note_off_c, 6, 61, 95
4, 515040, Note_off_c, 6, 57, 95
4, 515040, Note_off_c, 6, 52, 95
4, 515040, Note_off_c, 6, 45, 95
4, 515040, Note_on_c, 6, 61, 95
4, 515040, Note_on_c, 6, 57, 95
4, 515040, Note_on_c, 6, 52, 95
4, 515040, Note_on_c, 6, 45, 95
4, 515520, Note_off_c, 6, 61, 95
4, 515520, Note_off_c, 6, 57, 95
4, 515520, Note_off_c, 6, 52, 95
4, 515520, Note_off_c, 6, 45, 95
4, 515520, Note_on_c, 6, 61, 95
4, 515520, Note_on_c, 6, 57, 95
4, 515520, Note_on_c, 6, 52, 95
4, 515520, Note_on_c, 6, 45, 95
4, 516240, Note_off_c, 6, 61, 95
4, 516240, Note_off_c, 6, 57, 95
4, 516240, Note_off_c, 6, 52, 95
4, 516240, Note_off_c, 6, 45, 95
4, 516240, Note_on_c, 6, 61, 95
4, 516240, Note_on_c, 6, 57, 95
4, 516240, Note_on_c, 6, 52, 95
4, 516240, Note_on_c, 6, 45, 95
4, 516480, Note_off_c, 6, 61, 95
4, 516480, Note_off_c, 6, 57, 95
4, 516480, Note_off_c, 6, 52, 95
4, 516480, Note_off_c, 6, 45, 95
4, 516480, Note_on_c, 6, 61, 95
4, 516480, Note_on_c, 6, 57, 95
4, 516480, Note_on_c, 6, 52, 95
4, 516480, Note_on_c, 6, 45, 95
4, 516960, Note_off_c, 6, 61, 95
4, 516960, Note_off_c, 6, 57, 95
4, 516960, Note_off_c, 6, 52, 95
4, 516960, Note_off_c, 6, 45, 95
4, 516960, Note_on_c, 6, 61, 95
4, 516960, Note_on_c, 6, 57, 95
4, 516960, Note_on_c, 6, 52, 95
4, 516960, Note_on_c, 6, 45, 95
4, 517440, Note_off_c, 6, 61, 95
4, 517440, Note_off_c, 6, 57, 95
4, 517440, Note_off_c, 6, 52, 95
4, 517440, Note_off_c, 6, 45, 95
4, 517440, Note_on_c, 6, 61, 95
4, 517440, Note_on_c, 6, 57, 95
4, 517440, Note_on_c, 6, 52, 95
4, 517440, Note_on_c, 6, 45, 95
4, 517920, Note_off_c, 6, 61, 95
4, 517920, Note_off_c, 6, 57, 95
4, 517920, Note_off_c, 6, 52, 95
4, 517920, Note_off_c, 6, 45, 95
4, 517920, Note_on_c, 6, 56, 95
4, 517920, Note_on_c, 6, 52, 95
4, 517920, Note_on_c, 6, 47, 95
4, 517920, Note_on_c, 6, 40, 95
4, 517979, Note_off_c, 6, 56, 95
4, 517979, Note_off_c, 6, 52, 95
4, 517979, Note_off_c, 6, 47, 95
4, 517979, Note_off_c, 6, 40, 95
4, 518400, Note_on_c, 6, 59, 95
4, 518400, Note_on_c, 6, 56, 95
4, 518400, Note_on_c, 6, 52, 95
4, 518400, Note_on_c, 6, 47, 95
4, 518880, Note_off_c, 6, 59, 95
4, 518880, Note_off_c, 6, 56, 95
4, 518880, Note_off_c, 6, 52, 95
4, 518880, Note_off_c, 6, 47, 95
4, 518880, Note_on_c, 6, 61, 95
4, 518880, Note_on_c, 6, 57, 95
4, 518880, Note_on_c, 6, 52, 95
4, 518880, Note_on_c, 6, 45, 95
4, 519360, Note_off_c, 6, 61, 95
4, 519360, Note_off_c, 6, 57, 95
4, 519360, Note_off_c, 6, 52, 95
4, 519360, Note_off_c, 6, 45, 95
4, 519360, Note_on_c, 6, 59, 95
4, 519360, Note_on_c, 6, 56, 95
4, 519360, Note_on_c, 6, 52, 95
4, 519360, Note_on_c, 6, 47, 95
4, 519840, Note_off_c, 6, 59, 95
4, 519840, Note_off_c, 6, 56, 95
4, 519840, Note_off_c, 6, 52, 95
4, 519840, Note_off_c, 6, 47, 95
4, 519840, Note_on_c, 6, 61, 95
4, 519840, Note_on_c, 6, 57, 95
4, 519840, Note_on_c, 6, 52, 95
4, 519840, Note_on_c, 6, 45, 95
4, 520320, Note_off_c, 6, 61, 95
4, 520320, Note_off_c, 6, 57, 95
4, 520320, Note_off_c, 6, 52, 95
4, 520320, Note_off_c, 6, 45, 95
4, 520320, Note_on_c, 6, 64, 95
4, 520320, Note_on_c, 6, 59, 95
4, 520320, Note_on_c, 6, 54, 95
4, 520320, Note_on_c, 6, 47, 95
4, 520800, Note_off_c, 6, 64, 95
4, 520800, Note_off_c, 6, 59, 95
4, 520800, Note_off_c, 6, 54, 95
4, 520800, Note_off_c, 6, 47, 95
4, 520800, Note_on_c, 6, 64, 95
4, 520800, Note_on_c, 6, 59, 95
4, 520800, Note_on_c, 6, 54, 95
4, 520800, Note_on_c, 6, 47, 95
4, 521280, Note_off_c, 6, 64, 95
4, 521280, Note_off_c, 6, 59, 95
4, 521280, Note_off_c, 6, 54, 95
4, 521280, Note_off_c, 6, 47, 95
4, 521280, Note_on_c, 6, 64, 95
4, 521280, Note_on_c, 6, 59, 95
4, 521280, Note_on_c, 6, 54, 95
4, 521280, Note_on_c, 6, 47, 95
4, 521760, Note_off_c, 6, 64, 95
4, 521760, Note_off_c, 6, 59, 95
4, 521760, Note_off_c, 6, 54, 95
4, 521760, Note_off_c, 6, 47, 95
4, 521760, Note_on_c, 6, 61, 95
4, 521760, Note_on_c, 6, 56, 95
4, 521760, Note_on_c, 6, 49, 95
4, 522240, Note_off_c, 6, 61, 95
4, 522240, Note_off_c, 6, 56, 95
4, 522240, Note_off_c, 6, 49, 95
4, 522240, Note_on_c, 6, 61, 95
4, 522240, Note_on_c, 6, 56, 95
4, 522240, Note_on_c, 6, 49, 95
4, 522720, Note_off_c, 6, 61, 95
4, 522720, Note_off_c, 6, 56, 95
4, 522720, Note_off_c, 6, 49, 95
4, 522720, Note_on_c, 6, 65, 95
4, 522720, Note_on_c, 6, 61, 95
4, 522720, Note_on_c, 6, 56, 95
4, 522720, Note_on_c, 6, 49, 95
4, 523200, Note_off_c, 6, 65, 95
4, 523200, Note_off_c, 6, 61, 95
4, 523200, Note_off_c, 6, 56, 95
4, 523200, Note_off_c, 6, 49, 95
4, 523200, Note_on_c, 6, 65, 95
4, 523200, Note_on_c, 6, 61, 95
4, 523200, Note_on_c, 6, 56, 95
4, 523200, Note_on_c, 6, 49, 95
4, 523920, Note_off_c, 6, 65, 95
4, 523920, Note_off_c, 6, 61, 95
4, 523920, Note_off_c, 6, 56, 95
4, 523920, Note_off_c, 6, 49, 95
4, 523920, Note_on_c, 6, 66, 95
4, 523920, Note_on_c, 6, 61, 95
4, 523920, Note_on_c, 6, 56, 95
4, 523920, Note_on_c, 6, 49, 95
4, 524160, Note_off_c, 6, 66, 95
4, 524160, Note_off_c, 6, 61, 95
4, 524160, Note_off_c, 6, 56, 95
4, 524160, Note_off_c, 6, 49, 95
4, 524160, Note_on_c, 6, 66, 95
4, 524160, Note_on_c, 6, 61, 95
4, 524160, Note_on_c, 6, 56, 95
4, 524160, Note_on_c, 6, 49, 95
4, 524640, Note_off_c, 6, 66, 95
4, 524640, Note_off_c, 6, 61, 95
4, 524640, Note_off_c, 6, 56, 95
4, 524640, Note_off_c, 6, 49, 95
4, 524640, Note_on_c, 6, 66, 95
4, 524640, Note_on_c, 6, 61, 95
4, 524640, Note_on_c, 6, 56, 95
4, 524640, Note_on_c, 6, 49, 95
4, 525120, Note_off_c, 6, 66, 95
4, 525120, Note_off_c, 6, 61, 95
4, 525120, Note_off_c, 6, 56, 95
4, 525120, Note_off_c, 6, 49, 95
4, 525120, Note_on_c, 6, 66, 95
4, 525120, Note_on_c, 6, 61, 95
4, 525120, Note_on_c, 6, 56, 95
4, 525120, Note_on_c, 6, 49, 95
4, 525600, Note_off_c, 6, 66, 95
4, 525600, Note_off_c, 6, 61, 95
4, 525600, Note_off_c, 6, 56, 95
4, 525600, Note_off_c, 6, 49, 95
4, 525600, Note_on_c, 6, 56, 95
4, 525600, Note_on_c, 6, 52, 95
4, 525600, Note_on_c, 6, 47, 95
4, 525600, Note_on_c, 6, 40, 95
4, 525659, Note_off_c, 6, 56, 95
4, 525659, Note_off_c, 6, 52, 95
4, 525659, Note_off_c, 6, 47, 95
4, 525659, Note_off_c, 6, 40, 95
4, 526080, Note_on_c, 6, 59, 95
4, 526080, Note_on_c, 6, 54, 95
4, 526080, Note_on_c, 6, 47, 95
4, 526560, Note_off_c, 6, 59, 95
4, 526560, Note_off_c, 6, 54, 95
4, 526560, Note_off_c, 6, 47, 95
4, 526560, Note_on_c, 6, 64, 95
4, 526560, Note_on_c, 6, 59, 95
4, 526560, Note_on_c, 6, 54, 95
4, 526560, Note_on_c, 6, 47, 95
4, 527040, Note_off_c, 6, 64, 95
4, 527040, Note_off_c, 6, 59, 95
4, 527040, Note_off_c, 6, 54, 95
4, 527040, Note_off_c, 6, 47, 95
4, 527040, Note_on_c, 6, 64, 95
4, 527040, Note_on_c, 6, 59, 95
4, 527040, Note_on_c, 6, 54, 95
4, 527040, Note_on_c, 6, 47, 95
4, 527760, Note_off_c, 6, 64, 95
4, 527760, Note_off_c, 6, 59, 95
4, 527760, Note_off_c, 6, 54, 95
4, 527760, Note_off_c, 6, 47, 95
4, 527760, Note_on_c, 6, 64, 95
4, 527760, Note_on_c, 6, 59, 95
4, 527760, Note_on_c, 6, 54, 95
4, 527760, Note_on_c, 6, 47, 95
4, 528000, Note_off_c, 6, 64, 95
4, 528000, Note_off_c, 6, 59, 95
4, 528000, Note_off_c, 6, 54, 95
4, 528000, Note_off_c, 6, 47, 95
4, 528000, Note_on_c, 6, 64, 95
4, 528000, Note_on_c, 6, 59, 95
4, 528000, Note_on_c, 6, 54, 95
4, 528000, Note_on_c, 6, 47, 95
4, 528480, Note_off_c, 6, 64, 95
4, 528480, Note_off_c, 6, 59, 95
4, 528480, Note_off_c, 6, 54, 95
4, 528480, Note_off_c, 6, 47, 95
4, 528480, Note_on_c, 6, 64, 95
4, 528480, Note_on_c, 6, 59, 95
4, 528480, Note_on_c, 6, 54, 95
4, 528480, Note_on_c, 6, 47, 95
4, 528960, Note_off_c, 6, 64, 95
4, 528960, Note_off_c, 6, 59, 95
4, 528960, Note_off_c, 6, 54, 95
4, 528960, Note_off_c, 6, 47, 95
4, 528960, Note_on_c, 6, 64, 95
4, 528960, Note_on_c, 6, 59, 95
4, 528960, Note_on_c, 6, 54, 95
4, 528960, Note_on_c, 6, 47, 95
4, 529440, Note_off_c, 6, 64, 95
4, 529440, Note_off_c, 6, 59, 95
4, 529440, Note_off_c, 6, 54, 95
4, 529440, Note_off_c, 6, 47, 95
4, 529440, Note_on_c, 6, 56, 95
4, 529440, Note_on_c, 6, 52, 95
4, 529440, Note_on_c, 6, 47, 95
4, 529440, Note_on_c, 6, 40, 95
4, 529499, Note_off_c, 6, 56, 95
4, 529499, Note_off_c, 6, 52, 95
4, 529499, Note_off_c, 6, 47, 95
4, 529499, Note_off_c, 6, 40, 95
4, 529920, Note_on_c, 6, 61, 95
4, 529920, Note_on_c, 6, 57, 95
4, 529920, Note_on_c, 6, 52, 95
4, 529920, Note_on_c, 6, 45, 95
4, 530400, Note_off_c, 6, 61, 95
4, 530400, Note_off_c, 6, 57, 95
4, 530400, Note_off_c, 6, 52, 95
4, 530400, Note_off_c, 6, 45, 95
4, 530400, Note_on_c, 6, 61, 95
4, 530400, Note_on_c, 6, 57, 95
4, 530400, Note_on_c, 6, 52, 95
4, 530400, Note_on_c, 6, 45, 95
4, 530880, Note_off_c, 6, 61, 95
4, 530880, Note_off_c, 6, 57, 95
4, 530880, Note_off_c, 6, 52, 95
4, 530880, Note_off_c, 6, 45, 95
4, 530880, Note_on_c, 6, 61, 95
4, 530880, Note_on_c, 6, 57, 95
4, 530880, Note_on_c, 6, 52, 95
4, 530880, Note_on_c, 6, 45, 95
4, 531600, Note_off_c, 6, 61, 95
4, 531600, Note_off_c, 6, 57, 95
4, 531600, Note_off_c, 6, 52, 95
4, 531600, Note_off_c, 6, 45, 95
4, 531600, Note_on_c, 6, 61, 95
4, 531600, Note_on_c, 6, 57, 95
4, 531600, Note_on_c, 6, 52, 95
4, 531600, Note_on_c, 6, 45, 95
4, 531840, Note_off_c, 6, 61, 95
4, 531840, Note_off_c, 6, 57, 95
4, 531840, Note_off_c, 6, 52, 95
4, 531840, Note_off_c, 6, 45, 95
4, 531840, Note_on_c, 6, 61, 95
4, 531840, Note_on_c, 6, 57, 95
4, 531840, Note_on_c, 6, 52, 95
4, 531840, Note_on_c, 6, 45, 95
4, 532320, Note_off_c, 6, 61, 95
4, 532320, Note_off_c, 6, 57, 95
4, 532320, Note_off_c, 6, 52, 95
4, 532320, Note_off_c, 6, 45, 95
4, 532320, Note_on_c, 6, 61, 95
4, 532320, Note_on_c, 6, 57, 95
4, 532320, Note_on_c, 6, 52, 95
4, 532320, Note_on_c, 6, 45, 95
4, 532800, Note_off_c, 6, 61, 95
4, 532800, Note_off_c, 6, 57, 95
4, 532800, Note_off_c, 6, 52, 95
4, 532800, Note_off_c, 6, 45, 95
4, 532800, Note_on_c, 6, 61, 95
4, 532800, Note_on_c, 6, 57, 95
4, 532800, Note_on_c, 6, 52, 95
4, 532800, Note_on_c, 6, 45, 95
4, 533280, Note_off_c, 6, 61, 95
4, 533280, Note_off_c, 6, 57, 95
4, 533280, Note_off_c, 6, 52, 95
4, 533280, Note_off_c, 6, 45, 95
4, 533280, Note_on_c, 6, 56, 95
4, 533280, Note_on_c, 6, 52, 95
4, 533280, Note_on_c, 6, 47, 95
4, 533280, Note_on_c, 6, 40, 95
4, 533339, Note_off_c, 6, 56, 95
4, 533339, Note_off_c, 6, 52, 95
4, 533339, Note_off_c, 6, 47, 95
4, 533339, Note_off_c, 6, 40, 95
4, 533760, Note_on_c, 6, 59, 95
4, 533760, Note_on_c, 6, 56, 95
4, 533760, Note_on_c, 6, 52, 95
4, 533760, Note_on_c, 6, 47, 95
4, 534240, Note_off_c, 6, 59, 95
4, 534240, Note_off_c, 6, 56, 95
4, 534240, Note_off_c, 6, 52, 95
4, 534240, Note_off_c, 6, 47, 95
4, 534240, Note_on_c, 6, 61, 95
4, 534240, Note_on_c, 6, 57, 95
4, 534240, Note_on_c, 6, 52, 95
4, 534240, Note_on_c, 6, 45, 95
4, 534720, Note_off_c, 6, 61, 95
4, 534720, Note_off_c, 6, 57, 95
4, 534720, Note_off_c, 6, 52, 95
4, 534720, Note_off_c, 6, 45, 95
4, 534720, Note_on_c, 6, 59, 95
4, 534720, Note_on_c, 6, 56, 95
4, 534720, Note_on_c, 6, 52, 95
4, 534720, Note_on_c, 6, 47, 95
4, 535200, Note_off_c, 6, 59, 95
4, 535200, Note_off_c, 6, 56, 95
4, 535200, Note_off_c, 6, 52, 95
4, 535200, Note_off_c, 6, 47, 95
4, 535200, Note_on_c, 6, 61, 95
4, 535200, Note_on_c, 6, 57, 95
4, 535200, Note_on_c, 6, 52, 95
4, 535200, Note_on_c, 6, 45, 95
4, 535680, Note_off_c, 6, 61, 95
4, 535680, Note_off_c, 6, 57, 95
4, 535680, Note_off_c, 6, 52, 95
4, 535680, Note_off_c, 6, 45, 95
4, 535680, Note_on_c, 6, 64, 95
4, 535680, Note_on_c, 6, 59, 95
4, 535680, Note_on_c, 6, 54, 95
4, 535680, Note_on_c, 6, 47, 95
4, 536160, Note_off_c, 6, 64, 95
4, 536160, Note_off_c, 6, 59, 95
4, 536160, Note_off_c, 6, 54, 95
4, 536160, Note_off_c, 6, 47, 95
4, 536160, Note_on_c, 6, 64, 95
4, 536160, Note_on_c, 6, 59, 95
4, 536160, Note_on_c, 6, 54, 95
4, 536160, Note_on_c, 6, 47, 95
4, 536640, Note_off_c, 6, 64, 95
4, 536640, Note_off_c, 6, 59, 95
4, 536640, Note_off_c, 6, 54, 95
4, 536640, Note_off_c, 6, 47, 95
4, 536640, Note_on_c, 6, 64, 95
4, 536640, Note_on_c, 6, 59, 95
4, 536640, Note_on_c, 6, 54, 95
4, 536640, Note_on_c, 6, 47, 95
4, 537120, Note_off_c, 6, 64, 95
4, 537120, Note_off_c, 6, 59, 95
4, 537120, Note_off_c, 6, 54, 95
4, 537120, Note_off_c, 6, 47, 95
4, 537120, Note_on_c, 6, 61, 95
4, 537120, Note_on_c, 6, 56, 95
4, 537120, Note_on_c, 6, 49, 95
4, 537600, Note_off_c, 6, 61, 95
4, 537600, Note_off_c, 6, 56, 95
4, 537600, Note_off_c, 6, 49, 95
4, 537600, Note_on_c, 6, 61, 95
4, 537600, Note_on_c, 6, 56, 95
4, 537600, Note_on_c, 6, 49, 95
4, 538080, Note_off_c, 6, 61, 95
4, 538080, Note_off_c, 6, 56, 95
4, 538080, Note_off_c, 6, 49, 95
4, 538080, Note_on_c, 6, 65, 95
4, 538080, Note_on_c, 6, 61, 95
4, 538080, Note_on_c, 6, 56, 95
4, 538080, Note_on_c, 6, 49, 95
4, 538560, Note_off_c, 6, 65, 95
4, 538560, Note_off_c, 6, 61, 95
4, 538560, Note_off_c, 6, 56, 95
4, 538560, Note_off_c, 6, 49, 95
4, 538560, Note_on_c, 6, 65, 95
4, 538560, Note_on_c, 6, 61, 95
4, 538560, Note_on_c, 6, 56, 95
4, 538560, Note_on_c, 6, 49, 95
4, 539280, Note_off_c, 6, 65, 95
4, 539280, Note_off_c, 6, 61, 95
4, 539280, Note_off_c, 6, 56, 95
4, 539280, Note_off_c, 6, 49, 95
4, 539280, Note_on_c, 6, 66, 95
4, 539280, Note_on_c, 6, 61, 95
4, 539280, Note_on_c, 6, 56, 95
4, 539280, Note_on_c, 6, 49, 95
4, 539520, Note_off_c, 6, 66, 95
4, 539520, Note_off_c, 6, 61, 95
4, 539520, Note_off_c, 6, 56, 95
4, 539520, Note_off_c, 6, 49, 95
4, 539520, Note_on_c, 6, 66, 95
4, 539520, Note_on_c, 6, 61, 95
4, 539520, Note_on_c, 6, 56, 95
4, 539520, Note_on_c, 6, 49, 95
4, 540000, Note_off_c, 6, 66, 95
4, 540000, Note_off_c, 6, 61, 95
4, 540000, Note_off_c, 6, 56, 95
4, 540000, Note_off_c, 6, 49, 95
4, 540000, Note_on_c, 6, 66, 95
4, 540000, Note_on_c, 6, 61, 95
4, 540000, Note_on_c, 6, 56, 95
4, 540000, Note_on_c, 6, 49, 95
4, 540480, Note_off_c, 6, 66, 95
4, 540480, Note_off_c, 6, 61, 95
4, 540480, Note_off_c, 6, 56, 95
4, 540480, Note_off_c, 6, 49, 95
4, 540480, Note_on_c, 6, 66, 95
4, 540480, Note_on_c, 6, 61, 95
4, 540480, Note_on_c, 6, 56, 95
4, 540480, Note_on_c, 6, 49, 95
4, 540960, Note_off_c, 6, 66, 95
4, 540960, Note_off_c, 6, 61, 95
4, 540960, Note_off_c, 6, 56, 95
4, 540960, Note_off_c, 6, 49, 95
4, 540960, Note_on_c, 6, 56, 95
4, 540960, Note_on_c, 6, 52, 95
4, 540960, Note_on_c, 6, 47, 95
4, 540960, Note_on_c, 6, 40, 95
4, 541019, Note_off_c, 6, 56, 95
4, 541019, Note_off_c, 6, 52, 95
4, 541019, Note_off_c, 6, 47, 95
4, 541019, Note_off_c, 6, 40, 95
4, 541440, Note_on_c, 6, 59, 95
4, 541440, Note_on_c, 6, 54, 95
4, 541440, Note_on_c, 6, 47, 95
4, 541920, Note_off_c, 6, 59, 95
4, 541920, Note_off_c, 6, 54, 95
4, 541920, Note_off_c, 6, 47, 95
4, 541920, Note_on_c, 6, 64, 95
4, 541920, Note_on_c, 6, 59, 95
4, 541920, Note_on_c, 6, 54, 95
4, 541920, Note_on_c, 6, 47, 95
4, 542400, Note_off_c, 6, 64, 95
4, 542400, Note_off_c, 6, 59, 95
4, 542400, Note_off_c, 6, 54, 95
4, 542400, Note_off_c, 6, 47, 95
4, 542400, Note_on_c, 6, 64, 95
4, 542400, Note_on_c, 6, 59, 95
4, 542400, Note_on_c, 6, 54, 95
4, 542400, Note_on_c, 6, 47, 95
4, 543120, Note_off_c, 6, 64, 95
4, 543120, Note_off_c, 6, 59, 95
4, 543120, Note_off_c, 6, 54, 95
4, 543120, Note_off_c, 6, 47, 95
4, 543120, Note_on_c, 6, 64, 95
4, 543120, Note_on_c, 6, 59, 95
4, 543120, Note_on_c, 6, 54, 95
4, 543120, Note_on_c, 6, 47, 95
4, 543360, Note_off_c, 6, 64, 95
4, 543360, Note_off_c, 6, 59, 95
4, 543360, Note_off_c, 6, 54, 95
4, 543360, Note_off_c, 6, 47, 95
4, 543360, Note_on_c, 6, 64, 95
4, 543360, Note_on_c, 6, 59, 95
4, 543360, Note_on_c, 6, 54, 95
4, 543360, Note_on_c, 6, 47, 95
4, 543840, Note_off_c, 6, 64, 95
4, 543840, Note_off_c, 6, 59, 95
4, 543840, Note_off_c, 6, 54, 95
4, 543840, Note_off_c, 6, 47, 95
4, 543840, Note_on_c, 6, 64, 95
4, 543840, Note_on_c, 6, 59, 95
4, 543840, Note_on_c, 6, 54, 95
4, 543840, Note_on_c, 6, 47, 95
4, 544320, Note_off_c, 6, 64, 95
4, 544320, Note_off_c, 6, 59, 95
4, 544320, Note_off_c, 6, 54, 95
4, 544320, Note_off_c, 6, 47, 95
4, 544320, Note_on_c, 6, 64, 95
4, 544320, Note_on_c, 6, 59, 95
4, 544320, Note_on_c, 6, 54, 95
4, 544320, Note_on_c, 6, 47, 95
4, 544800, Note_off_c, 6, 64, 95
4, 544800, Note_off_c, 6, 59, 95
4, 544800, Note_off_c, 6, 54, 95
4, 544800, Note_off_c, 6, 47, 95
4, 544800, Note_on_c, 6, 56, 95
4, 544800, Note_on_c, 6, 52, 95
4, 544800, Note_on_c, 6, 47, 95
4, 544800, Note_on_c, 6, 40, 95
4, 544859, Note_off_c, 6, 56, 95
4, 544859, Note_off_c, 6, 52, 95
4, 544859, Note_off_c, 6, 47, 95
4, 544859, Note_off_c, 6, 40, 95
4, 545280, Note_on_c, 6, 61, 95
4, 545280, Note_on_c, 6, 57, 95
4, 545280, Note_on_c, 6, 52, 95
4, 545280, Note_on_c, 6, 45, 95
4, 545760, Note_off_c, 6, 61, 95
4, 545760, Note_off_c, 6, 57, 95
4, 545760, Note_off_c, 6, 52, 95
4, 545760, Note_off_c, 6, 45, 95
4, 545760, Note_on_c, 6, 61, 95
4, 545760, Note_on_c, 6, 57, 95
4, 545760, Note_on_c, 6, 52, 95
4, 545760, Note_on_c, 6, 45, 95
4, 546240, Note_off_c, 6, 61, 95
4, 546240, Note_off_c, 6, 57, 95
4, 546240, Note_off_c, 6, 52, 95
4, 546240, Note_off_c, 6, 45, 95
4, 546240, Note_on_c, 6, 61, 95
4, 546240, Note_on_c, 6, 57, 95
4, 546240, Note_on_c, 6, 52, 95
4, 546240, Note_on_c, 6, 45, 95
4, 546960, Note_off_c, 6, 61, 95
4, 546960, Note_off_c, 6, 57, 95
4, 546960, Note_off_c, 6, 52, 95
4, 546960, Note_off_c, 6, 45, 95
4, 546960, Note_on_c, 6, 61, 95
4, 546960, Note_on_c, 6, 57, 95
4, 546960, Note_on_c, 6, 52, 95
4, 546960, Note_on_c, 6, 45, 95
4, 547200, Note_off_c, 6, 61, 95
4, 547200, Note_off_c, 6, 57, 95
4, 547200, Note_off_c, 6, 52, 95
4, 547200, Note_off_c, 6, 45, 95
4, 547200, Note_on_c, 6, 61, 95
4, 547200, Note_on_c, 6, 57, 95
4, 547200, Note_on_c, 6, 52, 95
4, 547200, Note_on_c, 6, 45, 95
4, 547680, Note_off_c, 6, 61, 95
4, 547680, Note_off_c, 6, 57, 95
4, 547680, Note_off_c, 6, 52, 95
4, 547680, Note_off_c, 6, 45, 95
4, 547680, Note_on_c, 6, 61, 95
4, 547680, Note_on_c, 6, 57, 95
4, 547680, Note_on_c, 6, 52, 95
4, 547680, Note_on_c, 6, 45, 95
4, 548160, Note_off_c, 6, 61, 95
4, 548160, Note_off_c, 6, 57, 95
4, 548160, Note_off_c, 6, 52, 95
4, 548160, Note_off_c, 6, 45, 95
4, 548160, Note_on_c, 6, 61, 95
4, 548160, Note_on_c, 6, 57, 95
4, 548160, Note_on_c, 6, 52, 95
4, 548160, Note_on_c, 6, 45, 95
4, 548640, Note_off_c, 6, 61, 95
4, 548640, Note_off_c, 6, 57, 95
4, 548640, Note_off_c, 6, 52, 95
4, 548640, Note_off_c, 6, 45, 95
4, 548640, Note_on_c, 6, 56, 95
4, 548640, Note_on_c, 6, 52, 95
4, 548640, Note_on_c, 6, 47, 95
4, 548640, Note_on_c, 6, 40, 95
4, 548699, Note_off_c, 6, 56, 95
4, 548699, Note_off_c, 6, 52, 95
4, 548699, Note_off_c, 6, 47, 95
4, 548699, Note_off_c, 6, 40, 95
4, 549120, Note_on_c, 6, 59, 95
4, 549120, Note_on_c, 6, 56, 95
4, 549120, Note_on_c, 6, 52, 95
4, 549120, Note_on_c, 6, 47, 95
4, 549600, Note_off_c, 6, 59, 95
4, 549600, Note_off_c, 6, 56, 95
4, 549600, Note_off_c, 6, 52, 95
4, 549600, Note_off_c, 6, 47, 95
4, 549600, Note_on_c, 6, 61, 95
4, 549600, Note_on_c, 6, 57, 95
4, 549600, Note_on_c, 6, 52, 95
4, 549600, Note_on_c, 6, 45, 95
4, 550080, Note_off_c, 6, 61, 95
4, 550080, Note_off_c, 6, 57, 95
4, 550080, Note_off_c, 6, 52, 95
4, 550080, Note_off_c, 6, 45, 95
4, 550080, Note_on_c, 6, 59, 95
4, 550080, Note_on_c, 6, 56, 95
4, 550080, Note_on_c, 6, 52, 95
4, 550080, Note_on_c, 6, 47, 95
4, 550560, Note_off_c, 6, 59, 95
4, 550560, Note_off_c, 6, 56, 95
4, 550560, Note_off_c, 6, 52, 95
4, 550560, Note_off_c, 6, 47, 95
4, 550560, Note_on_c, 6, 61, 95
4, 550560, Note_on_c, 6, 57, 95
4, 550560, Note_on_c, 6, 52, 95
4, 550560, Note_on_c, 6, 45, 95
4, 551040, Note_off_c, 6, 61, 95
4, 551040, Note_off_c, 6, 57, 95
4, 551040, Note_off_c, 6, 52, 95
4, 551040, Note_off_c, 6, 45, 95
4, 551040, Note_on_c, 6, 64, 95
4, 551040, Note_on_c, 6, 59, 95
4, 551040, Note_on_c, 6, 54, 95
4, 551040, Note_on_c, 6, 47, 95
4, 551520, Note_off_c, 6, 64, 95
4, 551520, Note_off_c, 6, 59, 95
4, 551520, Note_off_c, 6, 54, 95
4, 551520, Note_off_c, 6, 47, 95
4, 551520, Note_on_c, 6, 64, 95
4, 551520, Note_on_c, 6, 59, 95
4, 551520, Note_on_c, 6, 54, 95
4, 551520, Note_on_c, 6, 47, 95
4, 552000, Note_off_c, 6, 64, 95
4, 552000, Note_off_c, 6, 59, 95
4, 552000, Note_off_c, 6, 54, 95
4, 552000, Note_off_c, 6, 47, 95
4, 552000, Note_on_c, 6, 64, 95
4, 552000, Note_on_c, 6, 59, 95
4, 552000, Note_on_c, 6, 54, 95
4, 552000, Note_on_c, 6, 47, 95
4, 552480, Note_off_c, 6, 64, 95
4, 552480, Note_off_c, 6, 59, 95
4, 552480, Note_off_c, 6, 54, 95
4, 552480, Note_off_c, 6, 47, 95
4, 552480, Note_on_c, 6, 61, 95
4, 552480, Note_on_c, 6, 56, 95
4, 552480, Note_on_c, 6, 49, 95
4, 552960, Note_off_c, 6, 61, 95
4, 552960, Note_off_c, 6, 56, 95
4, 552960, Note_off_c, 6, 49, 95
4, 552960, Note_on_c, 6, 61, 95
4, 552960, Note_on_c, 6, 56, 95
4, 552960, Note_on_c, 6, 49, 95
4, 556800, Note_off_c, 6, 61, 95
4, 556800, Note_off_c, 6, 56, 95
4, 556800, Note_off_c, 6, 49, 95
4, 556800, End_track
5, 0, Start_track
5, 0, Pitch_bend_c, 12, 8192
5, 0, Control_c, 12, 7, 119
5, 0, Control_c, 12, 10, 63
5, 0, Control_c, 12, 93, 79
5, 0, Control_c, 12, 91, 103
5, 0, Control_c, 12, 95, 0
5, 0, Control_c, 12, 92, 0
5, 0, Control_c, 12, 11, 127
5, 0, Program_c, 12, 85
5, 0, Control_c, 13, 7, 119
5, 0, Control_c, 13, 10, 63
5, 0, Control_c, 13, 93, 79
5, 0, Control_c, 13, 91, 103
5, 0, Control_c, 13, 95, 0
5, 0, Control_c, 13, 92, 0
5, 0, Control_c, 13, 11, 127
5, 0, Program_c, 13, 85
5, 93120, Note_on_c, 12, 76, 95
5, 95040, Note_off_c, 12, 76, 95
5, 95040, Note_on_c, 12, 73, 95
5, 95520, Note_off_c, 12, 73, 95
5, 95520, Note_on_c, 12, 76, 95
5, 96480, Note_off_c, 12, 76, 95
5, 96480, Note_on_c, 12, 78, 95
5, 97440, Note_off_c, 12, 78, 95
5, 97440, Note_on_c, 12, 80, 95
5, 98400, Note_off_c, 12, 80, 95
5, 98400, Note_on_c, 12, 73, 95
5, 98880, Note_off_c, 12, 73, 95
5, 100800, Note_on_c, 12, 76, 95
5, 102240, Note_off_c, 12, 76, 95
5, 102240, Note_on_c, 12, 73, 95
5, 102720, Note_off_c, 12, 73, 95
5, 102720, Note_on_c, 12, 73, 95
5, 103200, Note_off_c, 12, 73, 95
5, 103200, Note_on_c, 12, 76, 95
5, 104640, Note_off_c, 12, 76, 95
5, 104640, Note_on_c, 12, 73, 95
5, 105120, Note_off_c, 12, 73, 95
5, 105120, Note_on_c, 12, 73, 95
5, 105840, Note_off_c, 12, 73, 95
5, 105840, Note_on_c, 12, 70, 95
5, 106080, Note_off_c, 12, 70, 95
5, 106080, Note_on_c, 12, 68, 70
5, 106560, Note_off_c, 12, 68, 70
5, 108480, Note_on_c, 12, 73, 95
5, 108960, Note_off_c, 12, 73, 95
5, 108960, Note_on_c, 12, 76, 95
5, 109920, Note_off_c, 12, 76, 95
5, 109920, Note_on_c, 12, 73, 95
5, 111360, Note_off_c, 12, 73, 95
5, 111360, Note_on_c, 12, 76, 95
5, 111840, Note_off_c, 12, 76, 95
5, 111840, Note_on_c, 12, 78, 95
5, 112320, Note_off_c, 12, 78, 95
5, 112320, Note_on_c, 12, 76, 70
5, 112800, Note_off_c, 12, 76, 70
5, 112800, Note_on_c, 12, 78, 95
5, 113760, Note_off_c, 12, 78, 95
5, 113760, Note_on_c, 12, 80, 70
5, 114240, Note_off_c, 12, 80, 70
5, 114240, Note_on_c, 12, 73, 95
5, 115200, Note_off_c, 12, 73, 95
5, 116640, Note_on_c, 12, 76, 95
5, 117120, Note_off_c, 12, 76, 95
5, 117120, Note_on_c, 12, 75, 70
5, 117600, Note_off_c, 12, 75, 70
5, 117600, Note_on_c, 12, 73, 95
5, 118080, Note_off_c, 12, 73, 95
5, 118080, Note_on_c, 12, 73, 95
5, 118560, Note_off_c, 12, 73, 95
5, 118560, Note_on_c, 12, 71, 95
5, 119040, Note_off_c, 12, 71, 95
5, 119040, Note_on_c, 12, 76, 95
5, 119520, Note_off_c, 12, 76, 95
5, 119520, Note_on_c, 12, 73, 70
5, 120000, Note_off_c, 12, 73, 70
5, 120000, Note_on_c, 12, 73, 95
5, 120480, Note_off_c, 12, 73, 95
5, 120480, Note_on_c, 12, 73, 95
5, 121200, Note_off_c, 12, 73, 95
5, 121200, Note_on_c, 12, 70, 95
5, 121440, Note_off_c, 12, 70, 95
5, 121440, Note_on_c, 12, 68, 70
5, 121920, Note_off_c, 12, 68, 70
5, 123840, Note_on_c, 12, 76, 95
5, 125760, Note_off_c, 12, 76, 95
5, 125760, Note_on_c, 12, 73, 70
5, 126240, Note_off_c, 12, 73, 70
5, 126240, Note_on_c, 12, 76, 95
5, 127200, Note_off_c, 12, 76, 95
5, 127200, Note_on_c, 12, 75, 95
5, 127680, Note_off_c, 12, 75, 95
5, 127680, Note_on_c, 12, 73, 70
5, 128640, Note_off_c, 12, 73, 70
5, 131040, Note_on_c, 12, 73, 95
5, 131520, Note_off_c, 12, 73, 95
5, 131520, Note_on_c, 12, 76, 95
5, 132000, Note_off_c, 12, 76, 95
5, 132000, Note_on_c, 12, 73, 95
5, 132480, Note_off_c, 12, 73, 95
5, 132480, Note_on_c, 12, 76, 95
5, 132960, Note_off_c, 12, 76, 95
5, 132960, Note_on_c, 12, 76, 95
5, 133440, Note_off_c, 12, 76, 95
5, 133440, Note_on_c, 12, 73, 95
5, 134400, Note_off_c, 12, 73, 95
5, 134880, Note_on_c, 12, 76, 95
5, 135360, Note_off_c, 12, 76, 95
5, 135360, Note_on_c, 12, 76, 95
5, 135840, Note_off_c, 12, 76, 95
5, 135840, Note_on_c, 12, 73, 95
5, 136320, Note_off_c, 12, 73, 95
5, 136320, Note_on_c, 12, 76, 95
5, 136800, Note_off_c, 12, 76, 95
5, 136800, Note_on_c, 12, 73, 95
5, 137280, Note_off_c, 12, 73, 95
5, 137280, Note_on_c, 12, 73, 95
5, 138240, Note_off_c, 12, 73, 95
5, 139200, Note_on_c, 12, 76, 95
5, 141120, Note_off_c, 12, 76, 95
5, 141120, Note_on_c, 12, 73, 70
5, 141600, Note_off_c, 12, 73, 70
5, 141600, Note_on_c, 12, 76, 95
5, 142560, Note_off_c, 12, 76, 95
5, 142560, Note_on_c, 12, 75, 95
5, 143040, Note_off_c, 12, 75, 95
5, 143040, Note_on_c, 12, 73, 70
5, 144000, Note_off_c, 12, 73, 70
5, 146400, Note_on_c, 12, 73, 95
5, 146880, Note_off_c, 12, 73, 95
5, 146880, Note_on_c, 12, 76, 95
5, 147360, Note_off_c, 12, 76, 95
5, 147360, Note_on_c, 12, 73, 95
5, 147840, Note_off_c, 12, 73, 95
5, 147840, Note_on_c, 12, 76, 95
5, 148320, Note_off_c, 12, 76, 95
5, 148320, Note_on_c, 12, 76, 95
5, 148800, Note_off_c, 12, 76, 95
5, 148800, Note_on_c, 12, 73, 95
5, 149760, Note_off_c, 12, 73, 95
5, 150240, Note_on_c, 12, 76, 95
5, 150720, Note_off_c, 12, 76, 95
5, 150720, Note_on_c, 12, 76, 95
5, 151200, Note_off_c, 12, 76, 95
5, 151200, Note_on_c, 12, 73, 95
5, 151680, Note_off_c, 12, 73, 95
5, 151680, Note_on_c, 12, 76, 95
5, 152160, Note_off_c, 12, 76, 95
5, 152160, Note_on_c, 12, 73, 95
5, 152640, Note_off_c, 12, 73, 95
5, 152640, Note_on_c, 12, 73, 95
5, 153600, Note_off_c, 12, 73, 95
5, 169920, Note_on_c, 12, 76, 95
5, 171840, Note_off_c, 12, 76, 95
5, 171840, Note_on_c, 12, 73, 95
5, 172320, Note_off_c, 12, 73, 95
5, 172320, Note_on_c, 12, 76, 95
5, 173280, Note_off_c, 12, 76, 95
5, 173280, Note_on_c, 12, 78, 95
5, 174240, Note_off_c, 12, 78, 95
5, 174240, Note_on_c, 12, 80, 95
5, 175200, Note_off_c, 12, 80, 95
5, 175200, Note_on_c, 12, 73, 95
5, 175680, Note_off_c, 12, 73, 95
5, 177600, Note_on_c, 12, 76, 95
5, 179040, Note_off_c, 12, 76, 95
5, 179040, Note_on_c, 12, 73, 95
5, 179520, Note_off_c, 12, 73, 95
5, 179520, Note_on_c, 12, 73, 95
5, 180000, Note_off_c, 12, 73, 95
5, 180000, Note_on_c, 12, 76, 95
5, 181440, Note_off_c, 12, 76, 95
5, 181440, Note_on_c, 12, 73, 95
5, 181920, Note_off_c, 12, 73, 95
5, 181920, Note_on_c, 12, 73, 95
5, 182640, Note_off_c, 12, 73, 95
5, 182640, Note_on_c, 12, 70, 95
5, 182880, Note_off_c, 12, 70, 95
5, 182880, Note_on_c, 12, 68, 70
5, 183360, Note_off_c, 12, 68, 70
5, 185280, Note_on_c, 12, 73, 95
5, 185760, Note_off_c, 12, 73, 95
5, 185760, Note_on_c, 12, 76, 95
5, 186720, Note_off_c, 12, 76, 95
5, 186720, Note_on_c, 12, 73, 95
5, 188160, Note_off_c, 12, 73, 95
5, 188160, Note_on_c, 12, 76, 95
5, 188640, Note_off_c, 12, 76, 95
5, 188640, Note_on_c, 12, 78, 95
5, 189120, Note_off_c, 12, 78, 95
5, 189120, Note_on_c, 12, 76, 70
5, 189600, Note_off_c, 12, 76, 70
5, 189600, Note_on_c, 12, 78, 95
5, 190560, Note_off_c, 12, 78, 95
5, 190560, Note_on_c, 12, 80, 70
5, 191040, Note_off_c, 12, 80, 70
5, 191040, Note_on_c, 12, 73, 95
5, 192000, Note_off_c, 12, 73, 95
5, 193440, Note_on_c, 12, 76, 95
5, 193920, Note_off_c, 12, 76, 95
5, 193920, Note_on_c, 12, 75, 70
5, 194400, Note_off_c, 12, 75, 70
5, 194400, Note_on_c, 12, 73, 95
5, 194880, Note_off_c, 12, 73, 95
5, 194880, Note_on_c, 12, 73, 95
5, 195360, Note_off_c, 12, 73, 95
5, 195360, Note_on_c, 12, 71, 95
5, 195840, Note_off_c, 12, 71, 95
5, 195840, Note_on_c, 12, 76, 95
5, 196320, Note_off_c, 12, 76, 95
5, 196320, Note_on_c, 12, 73, 70
5, 196800, Note_off_c, 12, 73, 70
5, 196800, Note_on_c, 12, 73, 95
5, 197280, Note_off_c, 12, 73, 95
5, 197280, Note_on_c, 12, 73, 95
5, 198000, Note_off_c, 12, 73, 95
5, 198000, Note_on_c, 12, 70, 95
5, 198240, Note_off_c, 12, 70, 95
5, 198240, Note_on_c, 12, 68, 70
5, 198720, Note_off_c, 12, 68, 70
5, 200640, Note_on_c, 12, 76, 95
5, 202560, Note_off_c, 12, 76, 95
5, 202560, Note_on_c, 12, 73, 70
5, 203040, Note_off_c, 12, 73, 70
5, 203040, Note_on_c, 12, 76, 95
5, 204000, Note_off_c, 12, 76, 95
5, 204000, Note_on_c, 12, 75, 95
5, 204480, Note_off_c, 12, 75, 95
5, 204480, Note_on_c, 12, 73, 70
5, 205440, Note_off_c, 12, 73, 70
5, 207840, Note_on_c, 12, 73, 95
5, 208320, Note_off_c, 12, 73, 95
5, 208320, Note_on_c, 12, 76, 95
5, 208800, Note_off_c, 12, 76, 95
5, 208800, Note_on_c, 12, 73, 95
5, 209280, Note_off_c, 12, 73, 95
5, 209280, Note_on_c, 12, 76, 95
5, 209760, Note_off_c, 12, 76, 95
5, 209760, Note_on_c, 12, 76, 95
5, 210240, Note_off_c, 12, 76, 95
5, 210240, Note_on_c, 12, 73, 95
5, 211200, Note_off_c, 12, 73, 95
5, 211680, Note_on_c, 12, 76, 95
5, 212160, Note_off_c, 12, 76, 95
5, 212160, Note_on_c, 12, 76, 95
5, 212640, Note_off_c, 12, 76, 95
5, 212640, Note_on_c, 12, 73, 95
5, 213120, Note_off_c, 12, 73, 95
5, 213120, Note_on_c, 12, 76, 95
5, 213600, Note_off_c, 12, 76, 95
5, 213600, Note_on_c, 12, 73, 95
5, 214080, Note_off_c, 12, 73, 95
5, 214080, Note_on_c, 12, 73, 95
5, 215040, Note_off_c, 12, 73, 95
5, 216000, Note_on_c, 12, 76, 95
5, 217920, Note_off_c, 12, 76, 95
5, 217920, Note_on_c, 12, 73, 70
5, 218400, Note_off_c, 12, 73, 70
5, 218400, Note_on_c, 12, 76, 95
5, 219360, Note_off_c, 12, 76, 95
5, 219360, Note_on_c, 12, 75, 95
5, 219840, Note_off_c, 12, 75, 95
5, 219840, Note_on_c, 12, 73, 70
5, 220800, Note_off_c, 12, 73, 70
5, 223200, Note_on_c, 12, 73, 95
5, 223680, Note_off_c, 12, 73, 95
5, 223680, Note_on_c, 12, 76, 95
5, 224160, Note_off_c, 12, 76, 95
5, 224160, Note_on_c, 12, 73, 95
5, 224640, Note_off_c, 12, 73, 95
5, 224640, Note_on_c, 12, 76, 95
5, 225120, Note_off_c, 12, 76, 95
5, 225120, Note_on_c, 12, 76, 95
5, 225600, Note_off_c, 12, 76, 95
5, 225600, Note_on_c, 12, 73, 95
5, 226560, Note_off_c, 12, 73, 95
5, 227040, Note_on_c, 12, 76, 95
5, 227520, Note_off_c, 12, 76, 95
5, 227520, Note_on_c, 12, 76, 95
5, 228000, Note_off_c, 12, 76, 95
5, 228000, Note_on_c, 12, 73, 95
5, 228480, Note_off_c, 12, 73, 95
5, 228480, Note_on_c, 12, 76, 95
5, 228960, Note_off_c, 12, 76, 95
5, 228960, Note_on_c, 12, 73, 95
5, 229440, Note_off_c, 12, 73, 95
5, 229440, Note_on_c, 12, 73, 95
5, 230400, Note_off_c, 12, 73, 95
5, 308160, Note_on_c, 12, 73, 95
5, 310080, Note_off_c, 12, 73, 95
5, 311040, Note_on_c, 12, 76, 95
5, 311520, Note_off_c, 12, 76, 95
5, 311520, Note_on_c, 12, 76, 95
5, 312960, Note_off_c, 12, 76, 95
5, 312960, Note_on_c, 12, 71, 70
5, 313440, Note_off_c, 12, 71, 70
5, 315360, Note_on_c, 12, 71, 95
5, 315840, Note_off_c, 12, 71, 95
5, 315840, Note_on_c, 12, 73, 95
5, 316320, Note_off_c, 12, 73, 95
5, 316320, Note_on_c, 12, 71, 95
5, 316800, Note_off_c, 12, 71, 95
5, 316800, Note_on_c, 12, 73, 95
5, 317280, Note_off_c, 12, 73, 95
5, 317280, Note_on_c, 12, 73, 95
5, 317760, Note_off_c, 12, 73, 95
5, 317760, Note_on_c, 12, 73, 95
5, 318240, Note_off_c, 12, 73, 95
5, 318240, Note_on_c, 12, 71, 70
5, 318720, Note_off_c, 12, 71, 70
5, 319200, Note_on_c, 12, 71, 95
5, 319680, Note_off_c, 12, 71, 95
5, 319680, Note_on_c, 12, 73, 95
5, 320160, Note_off_c, 12, 73, 95
5, 320160, Note_on_c, 12, 71, 95
5, 320640, Note_off_c, 12, 71, 95
5, 320640, Note_on_c, 12, 76, 95
5, 321120, Note_off_c, 12, 76, 95
5, 321120, Note_on_c, 12, 73, 95
5, 321600, Note_off_c, 12, 73, 95
5, 321600, Note_on_c, 12, 73, 95
5, 322080, Note_off_c, 12, 73, 95
5, 322080, Note_on_c, 12, 71, 70
5, 322560, Note_off_c, 12, 71, 70
5, 323520, Note_on_c, 12, 76, 95
5, 324480, Note_off_c, 12, 76, 95
5, 324480, Note_on_c, 12, 73, 70
5, 324960, Note_off_c, 12, 73, 70
5, 325920, Note_on_c, 12, 76, 95
5, 326880, Note_off_c, 12, 76, 95
5, 326880, Note_on_c, 12, 76, 95
5, 327840, Note_off_c, 12, 76, 95
5, 327840, Note_on_c, 12, 71, 70
5, 328320, Note_off_c, 12, 71, 70
5, 328320, Note_on_c, 12, 73, 95
5, 329280, Note_off_c, 12, 73, 95
5, 329280, Note_on_c, 12, 71, 70
5, 329760, Note_off_c, 12, 71, 70
5, 330720, Note_on_c, 12, 71, 95
5, 331200, Note_off_c, 12, 71, 95
5, 331200, Note_on_c, 12, 73, 95
5, 331680, Note_off_c, 12, 73, 95
5, 331680, Note_on_c, 12, 71, 95
5, 332160, Note_off_c, 12, 71, 95
5, 332160, Note_on_c, 12, 73, 95
5, 332640, Note_off_c, 12, 73, 95
5, 332640, Note_on_c, 12, 73, 95
5, 333120, Note_off_c, 12, 73, 95
5, 333120, Note_on_c, 12, 73, 95
5, 333600, Note_off_c, 12, 73, 95
5, 333600, Note_on_c, 12, 71, 70
5, 334080, Note_off_c, 12, 71, 70
5, 334560, Note_on_c, 12, 71, 95
5, 335040, Note_off_c, 12, 71, 95
5, 335040, Note_on_c, 12, 73, 95
5, 335520, Note_off_c, 12, 73, 95
5, 335520, Note_on_c, 12, 71, 95
5, 336000, Note_off_c, 12, 71, 95
5, 336000, Note_on_c, 12, 76, 95
5, 336480, Note_off_c, 12, 76, 95
5, 336480, Note_on_c, 12, 73, 95
5, 336960, Note_off_c, 12, 73, 95
5, 336960, Note_on_c, 12, 73, 95
5, 337920, Note_off_c, 12, 73, 95
5, 338880, Note_on_c, 12, 76, 95
5, 339840, Note_off_c, 12, 76, 95
5, 339840, Note_on_c, 12, 71, 70
5, 341760, Note_off_c, 12, 71, 70
5, 341760, Note_on_c, 12, 76, 95
5, 342240, Note_off_c, 12, 76, 95
5, 342240, Note_on_c, 12, 76, 95
5, 343200, Note_off_c, 12, 76, 95
5, 343200, Note_on_c, 12, 71, 70
5, 343680, Note_off_c, 12, 71, 70
5, 345600, Note_on_c, 12, 73, 95
5, 346080, Note_off_c, 12, 73, 95
5, 346560, Note_on_c, 12, 73, 95
5, 347040, Note_off_c, 12, 73, 95
5, 347040, Note_on_c, 12, 73, 95
5, 347520, Note_off_c, 12, 73, 95
5, 347520, Note_on_c, 12, 73, 95
5, 348000, Note_off_c, 12, 73, 95
5, 348000, Note_on_c, 12, 73, 95
5, 348480, Note_off_c, 12, 73, 95
5, 348480, Note_on_c, 12, 73, 95
5, 348960, Note_off_c, 12, 73, 95
5, 349920, Note_on_c, 12, 71, 95
5, 350400, Note_off_c, 12, 71, 95
5, 350400, Note_on_c, 12, 73, 95
5, 350880, Note_off_c, 12, 73, 95
5, 350880, Note_on_c, 12, 71, 95
5, 351360, Note_off_c, 12, 71, 95
5, 351360, Note_on_c, 12, 76, 95
5, 351840, Note_off_c, 12, 76, 95
5, 351840, Note_on_c, 12, 73, 95
5, 352320, Note_off_c, 12, 73, 95
5, 352320, Note_on_c, 12, 73, 95
5, 352800, Note_off_c, 12, 73, 95
5, 352800, Note_on_c, 12, 71, 70
5, 353280, Note_off_c, 12, 71, 70
5, 353280, Note_on_c, 12, 73, 70
5, 354240, Note_off_c, 12, 73, 70
5, 354240, Note_on_c, 12, 71, 70
5, 354720, Note_off_c, 12, 71, 70
5, 354720, Note_on_c, 12, 71, 95
5, 355200, Note_off_c, 12, 71, 95
5, 355200, Note_on_c, 12, 64, 70
5, 355680, Note_off_c, 12, 64, 70
5, 355680, Note_on_c, 12, 64, 95
5, 356400, Note_off_c, 12, 64, 95
5, 356400, Note_on_c, 12, 61, 95
5, 356640, Note_off_c, 12, 61, 95
5, 356640, Note_on_c, 12, 61, 95
5, 356880, Note_off_c, 12, 61, 95
5, 356880, Note_on_c, 12, 59, 70
5, 357120, Note_off_c, 12, 59, 70
5, 357120, Note_on_c, 12, 56, 95
5, 357600, Note_off_c, 12, 56, 95
5, 357600, Note_on_c, 12, 59, 95
5, 358080, Note_off_c, 12, 59, 95
5, 358080, Note_on_c, 12, 61, 95
5, 358560, Note_off_c, 12, 61, 95
5, 358560, Note_on_c, 12, 61, 95
5, 360960, Note_off_c, 12, 61, 95
5, 371520, Note_on_c, 12, 73, 95
5, 372000, Note_off_c, 12, 73, 95
5, 372000, Note_on_c, 12, 76, 95
5, 372960, Note_off_c, 12, 76, 95
5, 372960, Note_on_c, 12, 78, 95
5, 373920, Note_off_c, 12, 78, 95
5, 373920, Note_on_c, 12, 80, 95
5, 374880, Note_off_c, 12, 80, 95
5, 374880, Note_on_c, 12, 73, 95
5, 375360, Note_off_c, 12, 73, 95
5, 377280, Note_on_c, 12, 76, 95
5, 378720, Note_off_c, 12, 76, 95
5, 378720, Note_on_c, 12, 73, 95
5, 379200, Note_off_c, 12, 73, 95
5, 379200, Note_on_c, 12, 73, 95
5, 379680, Note_off_c, 12, 73, 95
5, 379680, Note_on_c, 12, 76, 95
5, 381120, Note_off_c, 12, 76, 95
5, 381120, Note_on_c, 12, 73, 95
5, 381600, Note_off_c, 12, 73, 95
5, 381600, Note_on_c, 12, 73, 95
5, 382320, Note_off_c, 12, 73, 95
5, 382320, Note_on_c, 12, 70, 95
5, 382560, Note_off_c, 12, 70, 95
5, 382560, Note_on_c, 12, 68, 70
5, 383040, Note_off_c, 12, 68, 70
5, 384960, Note_on_c, 12, 73, 95
5, 385440, Note_off_c, 12, 73, 95
5, 385440, Note_on_c, 12, 76, 95
5, 386400, Note_off_c, 12, 76, 95
5, 386400, Note_on_c, 12, 73, 95
5, 387840, Note_off_c, 12, 73, 95
5, 387840, Note_on_c, 12, 76, 95
5, 388320, Note_off_c, 12, 76, 95
5, 388320, Note_on_c, 12, 78, 95
5, 388800, Note_off_c, 12, 78, 95
5, 388800, Note_on_c, 12, 76, 70
5, 389280, Note_off_c, 12, 76, 70
5, 389280, Note_on_c, 12, 78, 95
5, 390240, Note_off_c, 12, 78, 95
5, 390240, Note_on_c, 12, 80, 70
5, 390720, Note_off_c, 12, 80, 70
5, 390720, Note_on_c, 12, 73, 95
5, 391680, Note_off_c, 12, 73, 95
5, 393120, Note_on_c, 12, 76, 95
5, 393600, Note_off_c, 12, 76, 95
5, 393600, Note_on_c, 12, 75, 70
5, 394080, Note_off_c, 12, 75, 70
5, 394080, Note_on_c, 12, 73, 95
5, 394560, Note_off_c, 12, 73, 95
5, 394560, Note_on_c, 12, 73, 95
5, 395040, Note_off_c, 12, 73, 95
5, 395040, Note_on_c, 12, 71, 95
5, 395520, Note_off_c, 12, 71, 95
5, 395520, Note_on_c, 12, 76, 95
5, 396000, Note_off_c, 12, 76, 95
5, 396000, Note_on_c, 12, 73, 70
5, 396480, Note_off_c, 12, 73, 70
5, 396480, Note_on_c, 12, 73, 95
5, 396960, Note_off_c, 12, 73, 95
5, 396960, Note_on_c, 12, 73, 95
5, 397680, Note_off_c, 12, 73, 95
5, 397680, Note_on_c, 12, 70, 95
5, 397920, Note_off_c, 12, 70, 95
5, 397920, Note_on_c, 12, 68, 70
5, 398400, Note_off_c, 12, 68, 70
5, 400320, Note_on_c, 12, 76, 95
5, 402240, Note_off_c, 12, 76, 95
5, 402240, Note_on_c, 12, 73, 70
5, 402720, Note_off_c, 12, 73, 70
5, 402720, Note_on_c, 12, 76, 95
5, 403680, Note_off_c, 12, 76, 95
5, 403680, Note_on_c, 12, 75, 95
5, 404160, Note_off_c, 12, 75, 95
5, 404160, Note_on_c, 12, 73, 70
5, 405120, Note_off_c, 12, 73, 70
5, 407520, Note_on_c, 12, 73, 95
5, 408000, Note_off_c, 12, 73, 95
5, 408000, Note_on_c, 12, 76, 95
5, 408480, Note_off_c, 12, 76, 95
5, 408480, Note_on_c, 12, 73, 95
5, 408960, Note_off_c, 12, 73, 95
5, 408960, Note_on_c, 12, 76, 95
5, 409440, Note_off_c, 12, 76, 95
5, 409440, Note_on_c, 12, 76, 95
5, 409920, Note_off_c, 12, 76, 95
5, 409920, Note_on_c, 12, 73, 95
5, 410880, Note_off_c, 12, 73, 95
5, 411360, Note_on_c, 12, 76, 95
5, 411840, Note_off_c, 12, 76, 95
5, 411840, Note_on_c, 12, 76, 95
5, 412320, Note_off_c, 12, 76, 95
5, 412320, Note_on_c, 12, 73, 95
5, 412800, Note_off_c, 12, 73, 95
5, 412800, Note_on_c, 12, 76, 95
5, 413280, Note_off_c, 12, 76, 95
5, 413280, Note_on_c, 12, 73, 95
5, 413760, Note_off_c, 12, 73, 95
5, 413760, Note_on_c, 12, 73, 95
5, 414720, Note_off_c, 12, 73, 95
5, 415200, Note_on_c, 12, 71, 95
5, 415680, Note_off_c, 12, 71, 95
5, 415680, Note_on_c, 12, 73, 95
5, 416160, Note_off_c, 12, 73, 95
5, 416160, Note_on_c, 12, 71, 95
5, 416640, Note_off_c, 12, 71, 95
5, 416640, Note_on_c, 12, 73, 95
5, 417120, Note_off_c, 12, 73, 95
5, 417120, Note_on_c, 12, 73, 95
5, 417600, Note_off_c, 12, 73, 95
5, 417600, Note_on_c, 12, 73, 95
5, 418560, Note_off_c, 12, 73, 95
5, 419040, Note_on_c, 12, 71, 95
5, 419520, Note_off_c, 12, 71, 95
5, 419520, Note_on_c, 12, 73, 95
5, 420000, Note_off_c, 12, 73, 95
5, 420000, Note_on_c, 12, 71, 95
5, 420480, Note_off_c, 12, 71, 95
5, 420480, Note_on_c, 12, 76, 95
5, 420960, Note_off_c, 12, 76, 95
5, 420960, Note_on_c, 12, 78, 95
5, 421440, Note_off_c, 12, 78, 95
5, 421440, Note_on_c, 12, 76, 95
5, 421920, Note_off_c, 12, 76, 95
5, 421920, Note_on_c, 12, 73, 70
5, 422400, Note_off_c, 12, 73, 70
5, 422880, Note_on_c, 12, 71, 95
5, 423360, Note_off_c, 12, 71, 95
5, 423360, Note_on_c, 12, 73, 95
5, 423840, Note_off_c, 12, 73, 95
5, 423840, Note_on_c, 12, 71, 95
5, 424320, Note_off_c, 12, 71, 95
5, 424320, Note_on_c, 12, 73, 95
5, 424800, Note_off_c, 12, 73, 95
5, 424800, Note_on_c, 12, 73, 95
5, 425280, Note_off_c, 12, 73, 95
5, 425280, Note_on_c, 12, 73, 95
5, 426240, Note_off_c, 12, 73, 95
5, 428640, Note_on_c, 12, 73, 95
5, 429120, Note_off_c, 12, 73, 95
5, 429120, Note_on_c, 12, 73, 95
5, 429600, Note_off_c, 12, 73, 95
5, 429600, Note_on_c, 12, 73, 95
5, 430080, Note_off_c, 12, 73, 95
5, 430080, Note_on_c, 12, 76, 95
5, 430560, Note_off_c, 12, 76, 95
5, 430560, Note_on_c, 12, 75, 70
5, 431520, Note_off_c, 12, 75, 70
5, 431520, Note_on_c, 12, 73, 70
5, 432960, Note_off_c, 12, 73, 70
5, 433920, Note_on_c, 12, 76, 95
5, 434400, Note_off_c, 12, 76, 95
5, 434400, Note_on_c, 12, 75, 70
5, 435360, Note_off_c, 12, 75, 70
5, 435360, Note_on_c, 12, 73, 70
5, 435840, Note_off_c, 12, 73, 70
5, 435840, Note_on_c, 12, 71, 70
5, 436800, Note_off_c, 12, 71, 70
5, 438240, Note_on_c, 12, 71, 95
5, 438720, Note_off_c, 12, 71, 95
5, 438720, Note_on_c, 12, 73, 95
5, 439200, Note_off_c, 12, 73, 95
5, 439200, Note_on_c, 12, 71, 95
5, 439680, Note_off_c, 12, 71, 95
5, 439680, Note_on_c, 12, 76, 95
5, 440160, Note_off_c, 12, 76, 95
5, 440160, Note_on_c, 12, 73, 95
5, 440640, Note_off_c, 12, 73, 95
5, 440640, Note_on_c, 12, 73, 95
5, 441120, Note_off_c, 12, 73, 95
5, 441120, Note_on_c, 12, 71, 70
5, 441600, Note_off_c, 12, 71, 70
5, 442080, Note_on_c, 12, 71, 95
5, 442560, Note_off_c, 12, 71, 95
5, 442560, Note_on_c, 12, 73, 95
5, 443040, Note_off_c, 12, 73, 95
5, 443040, Note_on_c, 12, 73, 95
5, 443520, Note_off_c, 12, 73, 95
5, 443520, Note_on_c, 12, 76, 95
5, 444000, Note_off_c, 12, 76, 95
5, 444000, Note_on_c, 12, 78, 95
5, 444480, Note_off_c, 12, 78, 95
5, 444480, Note_on_c, 12, 76, 95
5, 444960, Note_off_c, 12, 76, 95
5, 444960, Note_on_c, 12, 73, 70
5, 445440, Note_off_c, 12, 73, 70
5, 445920, Note_on_c, 12, 76, 95
5, 446400, Note_off_c, 12, 76, 95
5, 446400, Note_on_c, 12, 76, 95
5, 446880, Note_off_c, 12, 76, 95
5, 446880, Note_on_c, 12, 76, 95
5, 447360, Note_off_c, 12, 76, 95
5, 447360, Note_on_c, 12, 76, 95
5, 447840, Note_off_c, 12, 76, 95
5, 447840, Note_on_c, 12, 73, 95
5, 448320, Note_off_c, 12, 73, 95
5, 448320, Note_on_c, 12, 73, 95
5, 448800, Note_off_c, 12, 73, 95
5, 448800, Note_on_c, 12, 71, 70
5, 449280, Note_off_c, 12, 71, 70
5, 449760, Note_on_c, 12, 76, 95
5, 450240, Note_off_c, 12, 76, 95
5, 450240, Note_on_c, 12, 76, 95
5, 450720, Note_off_c, 12, 76, 95
5, 450720, Note_on_c, 12, 76, 95
5, 451200, Note_off_c, 12, 76, 95
5, 451200, Note_on_c, 12, 76, 95
5, 451680, Note_off_c, 12, 76, 95
5, 451680, Note_on_c, 12, 73, 95
5, 452160, Note_off_c, 12, 73, 95
5, 452160, Note_on_c, 12, 73, 95
5, 452640, Note_off_c, 12, 73, 95
5, 452640, Note_on_c, 12, 71, 70
5, 453120, Note_off_c, 12, 71, 70
5, 453600, Note_on_c, 12, 71, 95
5, 454080, Note_off_c, 12, 71, 95
5, 454080, Note_on_c, 12, 73, 95
5, 454560, Note_off_c, 12, 73, 95
5, 454560, Note_on_c, 12, 71, 95
5, 455040, Note_off_c, 12, 71, 95
5, 455040, Note_on_c, 12, 76, 95
5, 455520, Note_off_c, 12, 76, 95
5, 455520, Note_on_c, 12, 73, 95
5, 456000, Note_off_c, 12, 73, 95
5, 456000, Note_on_c, 12, 73, 95
5, 456960, Note_off_c, 12, 73, 95
5, 456960, Note_on_c, 12, 76, 95
5, 457440, Note_off_c, 12, 76, 95
5, 457440, Note_on_c, 12, 73, 95
5, 457920, Note_off_c, 12, 73, 95
5, 457920, Note_on_c, 12, 73, 95
5, 458880, Note_off_c, 12, 73, 95
5, 458880, Note_on_c, 12, 76, 95
5, 459360, Note_off_c, 12, 76, 95
5, 459360, Note_on_c, 12, 73, 95
5, 459840, Note_off_c, 12, 73, 95
5, 459840, Note_on_c, 12, 73, 95
5, 462240, Note_off_c, 12, 73, 95
5, 462240, End_track
6, 0, Start_track
6, 0, Pitch_bend_c, 14, 8192
6, 0, Control_c, 14, 7, 79
6, 0, Control_c, 14, 10, 111
6, 0, Control_c, 14, 93, 0
6, 0, Control_c, 14, 91, 23
6, 0, Control_c, 14, 95, 0
6, 0, Control_c, 14, 92, 0
6, 0, Control_c, 14, 11, 127
6, 0, Program_c, 14, 33
6, 0, Control_c, 15, 7, 79
6, 0, Control_c, 15, 10, 111
6, 0, Control_c, 15, 93, 0
6, 0, Control_c, 15, 91, 23
6, 0, Control_c, 15, 95, 0
6, 0, Control_c, 15, 92, 0
6, 0, Control_c, 15, 11, 127
6, 0, Program_c, 15, 33
6, 30720, Note_on_c, 14, 49, 95
6, 33120, Note_off_c, 14, 49, 95
6, 33120, Note_on_c, 14, 49, 95
6, 34080, Note_off_c, 14, 49, 95
6, 34080, Note_on_c, 14, 49, 95
6, 34560, Note_off_c, 14, 49, 95
6, 34560, Note_on_c, 14, 47, 95
6, 36960, Note_off_c, 14, 47, 95
6, 36960, Note_on_c, 14, 47, 95
6, 37920, Note_off_c, 14, 47, 95
6, 37920, Note_on_c, 14, 47, 95
6, 38400, Note_off_c, 14, 47, 95
6, 38400, Note_on_c, 14, 45, 95
6, 40800, Note_off_c, 14, 45, 95
6, 40800, Note_on_c, 14, 45, 95
6, 41760, Note_off_c, 14, 45, 95
6, 41760, Note_on_c, 14, 45, 95
6, 42240, Note_off_c, 14, 45, 95
6, 42240, Note_on_c, 14, 45, 95
6, 44160, Note_off_c, 14, 45, 95
6, 44160, Note_on_c, 14, 42, 95
6, 45120, Note_off_c, 14, 42, 95
6, 45120, Note_on_c, 14, 42, 95
6, 45600, Note_off_c, 14, 42, 95
6, 45600, Note_on_c, 14, 35, 95
6, 46080, Note_off_c, 14, 35, 95
6, 46080, Note_on_c, 14, 37, 95
6, 47520, Note_off_c, 14, 37, 95
6, 47520, Note_on_c, 14, 37, 95
6, 49920, Note_off_c, 14, 37, 95
6, 49920, Note_on_c, 14, 37, 95
6, 51360, Note_off_c, 14, 37, 95
6, 51360, Note_on_c, 14, 37, 95
6, 53280, Note_off_c, 14, 37, 95
6, 53280, Note_on_c, 14, 37, 95
6, 53760, Note_off_c, 14, 37, 95
6, 53760, Note_on_c, 14, 37, 95
6, 55200, Note_off_c, 14, 37, 95
6, 55200, Note_on_c, 14, 37, 95
6, 57600, Note_off_c, 14, 37, 95
6, 57600, Note_on_c, 14, 37, 95
6, 59520, Note_off_c, 14, 37, 95
6, 59520, Note_on_c, 14, 42, 95
6, 60480, Note_off_c, 14, 42, 95
6, 61440, Note_on_c, 14, 37, 95
6, 62880, Note_off_c, 14, 37, 95
6, 62880, Note_on_c, 14, 37, 95
6, 64800, Note_off_c, 14, 37, 95
6, 64800, Note_on_c, 14, 37, 95
6, 65280, Note_off_c, 14, 37, 95
6, 65280, Note_on_c, 14, 37, 95
6, 66240, Note_off_c, 14, 37, 95
6, 66240, Note_on_c, 14, 37, 95
6, 66720, Note_off_c, 14, 37, 95
6, 66720, Note_on_c, 15, 35, 95
6, 66840, Pitch_bend_c, 15, 9600
6, 66840, Pitch_bend_c, 15, 8192
6, 66840, Note_off_c, 15, 35, 95
6, 66840, Note_on_c, 14, 37, 95
6, 68640, Note_off_c, 14, 37, 95
6, 68640, Note_on_c, 14, 37, 95
6, 69120, Note_off_c, 14, 37, 95
6, 69120, Note_on_c, 14, 37, 95
6, 70560, Note_off_c, 14, 37, 95
6, 70560, Note_on_c, 15, 35, 95
6, 70680, Pitch_bend_c, 15, 9600
6, 70680, Pitch_bend_c, 15, 8192
6, 70680, Note_off_c, 15, 35, 95
6, 70680, Note_on_c, 14, 37, 95
6, 72480, Note_off_c, 14, 37, 95
6, 72480, Note_on_c, 14, 37, 95
6, 72960, Note_off_c, 14, 37, 95
6, 72960, Note_on_c, 15, 35, 95
6, 73080, Pitch_bend_c, 15, 9600
6, 73080, Pitch_bend_c, 15, 8192
6, 73080, Note_off_c, 15, 35, 95
6, 73080, Note_on_c, 14, 37, 95
6, 74400, Note_off_c, 14, 37, 95
6, 74400, Note_on_c, 14, 37, 95
6, 74880, Note_off_c, 14, 37, 95
6, 74880, Note_on_c, 14, 33, 95
6, 76320, Note_off_c, 14, 33, 95
6, 76320, Note_on_c, 14, 35, 95
6, 76800, Note_off_c, 14, 35, 95
6, 76800, Note_on_c, 14, 37, 95
6, 77760, Note_off_c, 14, 37, 95
6, 77760, Note_on_c, 14, 37, 95
6, 78240, Note_off_c, 14, 37, 95
6, 78240, Note_on_c, 14, 37, 95
6, 78720, Note_off_c, 14, 37, 95
6, 78720, Note_on_c, 14, 37, 95
6, 79200, Note_off_c, 14, 37, 95
6, 79200, Note_on_c, 14, 37, 95
6, 79680, Note_off_c, 14, 37, 95
6, 79680, Note_on_c, 14, 37, 95
6, 80160, Note_off_c, 14, 37, 95
6, 80160, Note_on_c, 14, 44, 95
6, 80640, Note_off_c, 14, 44, 95
6, 80640, Note_on_c, 14, 35, 95
6, 81120, Note_off_c, 14, 35, 95
6, 81120, Note_on_c, 14, 35, 95
6, 81600, Note_off_c, 14, 35, 95
6, 81600, Note_on_c, 14, 35, 95
6, 82560, Note_off_c, 14, 35, 95
6, 82560, Note_on_c, 14, 42, 95
6, 83040, Note_off_c, 14, 42, 95
6, 83040, Note_on_c, 14, 35, 95
6, 84000, Note_off_c, 14, 35, 95
6, 84000, Note_on_c, 14, 35, 95
6, 84480, Note_off_c, 14, 35, 95
6, 84480, Note_on_c, 14, 33, 95
6, 84960, Note_off_c, 14, 33, 95
6, 84960, Note_on_c, 14, 33, 95
6, 85440, Note_off_c, 14, 33, 95
6, 85440, Note_on_c, 14, 40, 95
6, 85920, Note_off_c, 14, 40, 95
6, 85920, Note_on_c, 14, 33, 95
6, 86400, Note_off_c, 14, 33, 95
6, 86400, Note_on_c, 14, 40, 95
6, 86880, Note_off_c, 14, 40, 95
6, 86880, Note_on_c, 14, 33, 95
6, 87360, Note_off_c, 14, 33, 95
6, 87360, Note_on_c, 14, 33, 95
6, 87840, Note_off_c, 14, 33, 95
6, 87840, Note_on_c, 14, 33, 95
6, 88320, Note_off_c, 14, 33, 95
6, 88320, Note_on_c, 14, 40, 95
6, 88800, Note_off_c, 14, 40, 95
6, 88800, Note_on_c, 14, 33, 95
6, 89280, Note_off_c, 14, 33, 95
6, 89280, Note_on_c, 14, 40, 95
6, 89760, Note_off_c, 14, 40, 95
6, 89760, Note_on_c, 14, 33, 95
6, 90240, Note_off_c, 14, 33, 95
6, 90240, Note_on_c, 14, 40, 95
6, 90720, Note_off_c, 14, 40, 95
6, 90720, Note_on_c, 14, 35, 95
6, 91200, Note_off_c, 14, 35, 95
6, 91200, Note_on_c, 14, 40, 95
6, 91680, Note_off_c, 14, 40, 95
6, 91680, Note_on_c, 14, 35, 95
6, 92160, Note_off_c, 14, 35, 95
6, 92160, Note_on_c, 14, 37, 95
6, 93600, Note_off_c, 14, 37, 95
6, 93600, Note_on_c, 14, 37, 95
6, 94080, Note_off_c, 14, 37, 95
6, 94080, Note_on_c, 14, 37, 95
6, 94560, Note_off_c, 14, 37, 95
6, 94560, Note_on_c, 14, 37, 95
6, 95040, Note_off_c, 14, 37, 95
6, 95040, Note_on_c, 14, 37, 95
6, 95520, Note_off_c, 14, 37, 95
6, 95520, Note_on_c, 14, 28, 95
6, 95579, Note_off_c, 14, 28, 95
6, 96000, Note_on_c, 14, 42, 95
6, 96480, Note_off_c, 14, 42, 95
6, 96480, Note_on_c, 14, 43, 95
6, 96960, Note_off_c, 14, 43, 95
6, 96960, Note_on_c, 14, 43, 95
6, 97440, Note_off_c, 14, 43, 95
6, 97440, Note_on_c, 14, 44, 95
6, 97920, Note_off_c, 14, 44, 95
6, 97920, Note_on_c, 14, 49, 95
6, 98400, Note_off_c, 14, 49, 95
6, 98400, Note_on_c, 14, 49, 95
6, 98880, Note_off_c, 14, 49, 95
6, 98880, Note_on_c, 14, 42, 95
6, 99360, Note_off_c, 14, 42, 95
6, 99360, Note_on_c, 14, 44, 95
6, 99840, Note_off_c, 14, 44, 95
6, 99840, Note_on_c, 14, 37, 95
6, 100320, Note_off_c, 14, 37, 95
6, 100320, Note_on_c, 14, 37, 95
6, 100800, Note_off_c, 14, 37, 95
6, 100800, Note_on_c, 14, 37, 95
6, 101520, Note_off_c, 14, 37, 95
6, 101520, Note_on_c, 14, 37, 95
6, 101760, Note_off_c, 14, 37, 95
6, 101760, Note_on_c, 14, 37, 95
6, 102240, Note_off_c, 14, 37, 95
6, 102240, Note_on_c, 14, 37, 95
6, 102720, Note_off_c, 14, 37, 95
6, 102720, Note_on_c, 14, 37, 95
6, 103200, Note_off_c, 14, 37, 95
6, 103200, Note_on_c, 14, 28, 95
6, 103259, Note_off_c, 14, 28, 95
6, 103680, Note_on_c, 14, 42, 95
6, 104160, Note_off_c, 14, 42, 95
6, 104160, Note_on_c, 14, 43, 95
6, 104640, Note_off_c, 14, 43, 95
6, 104640, Note_on_c, 14, 44, 95
6, 105120, Note_off_c, 14, 44, 95
6, 105120, Note_on_c, 14, 37, 95
6, 106080, Note_off_c, 14, 37, 95
6, 106080, Note_on_c, 14, 37, 95
6, 106560, Note_off_c, 14, 37, 95
6, 106560, Note_on_c, 14, 35, 95
6, 107040, Note_off_c, 14, 35, 95
6, 107040, Note_on_c, 14, 36, 95
6, 107520, Note_off_c, 14, 36, 95
6, 107520, Note_on_c, 14, 37, 95
6, 108000, Note_off_c, 14, 37, 95
6, 108000, Note_on_c, 14, 37, 95
6, 108480, Note_off_c, 14, 37, 95
6, 108480, Note_on_c, 14, 37, 95
6, 108960, Note_off_c, 14, 37, 95
6, 108960, Note_on_c, 14, 37, 95
6, 109440, Note_off_c, 14, 37, 95
6, 109440, Note_on_c, 14, 37, 95
6, 109920, Note_off_c, 14, 37, 95
6, 109920, Note_on_c, 14, 37, 95
6, 110400, Note_off_c, 14, 37, 95
6, 110400, Note_on_c, 14, 37, 95
6, 110880, Note_off_c, 14, 37, 95
6, 110880, Note_on_c, 14, 28, 95
6, 110939, Note_off_c, 14, 28, 95
6, 111360, Note_on_c, 14, 42, 95
6, 111840, Note_off_c, 14, 42, 95
6, 111840, Note_on_c, 14, 44, 95
6, 112320, Note_off_c, 14, 44, 95
6, 112320, Note_on_c, 14, 42, 95
6, 112800, Note_off_c, 14, 42, 95
6, 112800, Note_on_c, 14, 44, 95
6, 113280, Note_off_c, 14, 44, 95
6, 113280, Note_on_c, 14, 49, 95
6, 113760, Note_off_c, 14, 49, 95
6, 113760, Note_on_c, 14, 49, 95
6, 114240, Note_off_c, 14, 49, 95
6, 114240, Note_on_c, 14, 42, 95
6, 114720, Note_off_c, 14, 42, 95
6, 114720, Note_on_c, 14, 44, 95
6, 115200, Note_off_c, 14, 44, 95
6, 115200, Note_on_c, 14, 37, 95
6, 115680, Note_off_c, 14, 37, 95
6, 115680, Note_on_c, 14, 37, 95
6, 116160, Note_off_c, 14, 37, 95
6, 116160, Note_on_c, 14, 37, 95
6, 116880, Note_off_c, 14, 37, 95
6, 116880, Note_on_c, 14, 37, 95
6, 117120, Note_off_c, 14, 37, 95
6, 117120, Note_on_c, 14, 37, 95
6, 117600, Note_off_c, 14, 37, 95
6, 117600, Note_on_c, 14, 37, 95
6, 118080, Note_off_c, 14, 37, 95
6, 118080, Note_on_c, 14, 37, 95
6, 118560, Note_off_c, 14, 37, 95
6, 118560, Note_on_c, 14, 37, 95
6, 119040, Note_off_c, 14, 37, 95
6, 119040, Note_on_c, 14, 42, 95
6, 119520, Note_off_c, 14, 42, 95
6, 119520, Note_on_c, 14, 43, 95
6, 120000, Note_off_c, 14, 43, 95
6, 120000, Note_on_c, 14, 44, 95
6, 120480, Note_off_c, 14, 44, 95
6, 120480, Note_on_c, 14, 37, 95
6, 120960, Note_off_c, 14, 37, 95
6, 120960, Note_on_c, 14, 37, 95
6, 121440, Note_off_c, 14, 37, 95
6, 121440, Note_on_c, 14, 37, 95
6, 121920, Note_off_c, 14, 37, 95
6, 121920, Note_on_c, 14, 35, 95
6, 122400, Note_off_c, 14, 35, 95
6, 122400, Note_on_c, 14, 36, 95
6, 122880, Note_off_c, 14, 36, 95
6, 122880, Note_on_c, 14, 37, 95
6, 123840, Note_off_c, 14, 37, 95
6, 123840, Note_on_c, 14, 37, 95
6, 124560, Note_off_c, 14, 37, 95
6, 124560, Note_on_c, 14, 37, 95
6, 124800, Note_off_c, 14, 37, 95
6, 124800, Note_on_c, 14, 37, 95
6, 125280, Note_off_c, 14, 37, 95
6, 125280, Note_on_c, 14, 37, 95
6, 125760, Note_off_c, 14, 37, 95
6, 125760, Note_on_c, 14, 37, 95
6, 126240, Note_off_c, 14, 37, 95
6, 126240, Note_on_c, 14, 28, 95
6, 126720, Note_off_c, 14, 28, 95
6, 126720, Note_on_c, 14, 35, 95
6, 127200, Note_off_c, 14, 35, 95
6, 127200, Note_on_c, 14, 35, 95
6, 127680, Note_off_c, 14, 35, 95
6, 127680, Note_on_c, 14, 35, 95
6, 128400, Note_off_c, 14, 35, 95
6, 128400, Note_on_c, 14, 35, 95
6, 128640, Note_off_c, 14, 35, 95
6, 128640, Note_on_c, 14, 35, 95
6, 129120, Note_off_c, 14, 35, 95
6, 129120, Note_on_c, 14, 35, 95
6, 129600, Note_off_c, 14, 35, 95
6, 129600, Note_on_c, 14, 35, 95
6, 130080, Note_off_c, 14, 35, 95
6, 130080, Note_on_c, 14, 28, 95
6, 130560, Note_off_c, 14, 28, 95
6, 130560, Note_on_c, 14, 33, 95
6, 131040, Note_off_c, 14, 33, 95
6, 131040, Note_on_c, 14, 33, 95
6, 131520, Note_off_c, 14, 33, 95
6, 131520, Note_on_c, 14, 33, 95
6, 132240, Note_off_c, 14, 33, 95
6, 132240, Note_on_c, 14, 33, 95
6, 132480, Note_off_c, 14, 33, 95
6, 132480, Note_on_c, 14, 33, 95
6, 132960, Note_off_c, 14, 33, 95
6, 132960, Note_on_c, 14, 33, 95
6, 133440, Note_off_c, 14, 33, 95
6, 133440, Note_on_c, 14, 33, 95
6, 133920, Note_off_c, 14, 33, 95
6, 133920, Note_on_c, 14, 28, 95
6, 134400, Note_off_c, 14, 28, 95
6, 134400, Note_on_c, 14, 40, 95
6, 134880, Note_off_c, 14, 40, 95
6, 134880, Note_on_c, 14, 33, 95
6, 135360, Note_off_c, 14, 33, 95
6, 135360, Note_on_c, 14, 40, 95
6, 135840, Note_off_c, 14, 40, 95
6, 135840, Note_on_c, 14, 33, 95
6, 136320, Note_off_c, 14, 33, 95
6, 136320, Note_on_c, 14, 40, 95
6, 136800, Note_off_c, 14, 40, 95
6, 136800, Note_on_c, 14, 35, 95
6, 137280, Note_off_c, 14, 35, 95
6, 137280, Note_on_c, 14, 40, 95
6, 137760, Note_off_c, 14, 40, 95
6, 137760, Note_on_c, 14, 35, 95
6, 138240, Note_off_c, 14, 35, 95
6, 138240, Note_on_c, 14, 37, 95
6, 139200, Note_off_c, 14, 37, 95
6, 139200, Note_on_c, 14, 37, 95
6, 139920, Note_off_c, 14, 37, 95
6, 139920, Note_on_c, 14, 37, 95
6, 140160, Note_off_c, 14, 37, 95
6, 140160, Note_on_c, 14, 37, 95
6, 140640, Note_off_c, 14, 37, 95
6, 140640, Note_on_c, 14, 37, 95
6, 141120, Note_off_c, 14, 37, 95
6, 141120, Note_on_c, 14, 37, 95
6, 141600, Note_off_c, 14, 37, 95
6, 141600, Note_on_c, 14, 28, 95
6, 142080, Note_off_c, 14, 28, 95
6, 142080, Note_on_c, 14, 35, 95
6, 142560, Note_off_c, 14, 35, 95
6, 142560, Note_on_c, 14, 35, 95
6, 143040, Note_off_c, 14, 35, 95
6, 143040, Note_on_c, 14, 35, 95
6, 143760, Note_off_c, 14, 35, 95
6, 143760, Note_on_c, 14, 35, 95
6, 144000, Note_off_c, 14, 35, 95
6, 144000, Note_on_c, 14, 35, 95
6, 144480, Note_off_c, 14, 35, 95
6, 144480, Note_on_c, 14, 35, 95
6, 144960, Note_off_c, 14, 35, 95
6, 144960, Note_on_c, 14, 35, 95
6, 145440, Note_off_c, 14, 35, 95
6, 145440, Note_on_c, 14, 28, 95
6, 145920, Note_off_c, 14, 28, 95
6, 145920, Note_on_c, 14, 33, 95
6, 146400, Note_off_c, 14, 33, 95
6, 146400, Note_on_c, 14, 33, 95
6, 146880, Note_off_c, 14, 33, 95
6, 146880, Note_on_c, 14, 33, 95
6, 147600, Note_off_c, 14, 33, 95
6, 147600, Note_on_c, 14, 33, 95
6, 147840, Note_off_c, 14, 33, 95
6, 147840, Note_on_c, 14, 33, 95
6, 148320, Note_off_c, 14, 33, 95
6, 148320, Note_on_c, 14, 33, 95
6, 148800, Note_off_c, 14, 33, 95
6, 148800, Note_on_c, 14, 33, 95
6, 149280, Note_off_c, 14, 33, 95
6, 149280, Note_on_c, 14, 28, 95
6, 149760, Note_off_c, 14, 28, 95
6, 149760, Note_on_c, 14, 40, 95
6, 150240, Note_off_c, 14, 40, 95
6, 150240, Note_on_c, 14, 33, 95
6, 150720, Note_off_c, 14, 33, 95
6, 150720, Note_on_c, 14, 40, 95
6, 151200, Note_off_c, 14, 40, 95
6, 151200, Note_on_c, 14, 33, 95
6, 151680, Note_off_c, 14, 33, 95
6, 151680, Note_on_c, 14, 40, 95
6, 152160, Note_off_c, 14, 40, 95
6, 152160, Note_on_c, 14, 35, 95
6, 152640, Note_off_c, 14, 35, 95
6, 152640, Note_on_c, 14, 40, 95
6, 153120, Note_off_c, 14, 40, 95
6, 153120, Note_on_c, 14, 35, 95
6, 153600, Note_off_c, 14, 35, 95
6, 153600, Note_on_c, 14, 37, 95
6, 154560, Note_off_c, 14, 37, 95
6, 154560, Note_on_c, 14, 37, 95
6, 155520, Note_off_c, 14, 37, 95
6, 155520, Note_on_c, 14, 37, 95
6, 156000, Note_off_c, 14, 37, 95
6, 156000, Note_on_c, 14, 37, 95
6, 156480, Note_off_c, 14, 37, 95
6, 156480, Note_on_c, 14, 37, 95
6, 156960, Note_off_c, 14, 37, 95
6, 156960, Note_on_c, 14, 37, 95
6, 157440, Note_off_c, 14, 37, 95
6, 157440, Note_on_c, 14, 42, 95
6, 157920, Note_off_c, 14, 42, 95
6, 157920, Note_on_c, 14, 44, 95
6, 158400, Note_off_c, 14, 44, 95
6, 158400, Note_on_c, 14, 42, 95
6, 158880, Note_off_c, 14, 42, 95
6, 158880, Note_on_c, 14, 44, 95
6, 159360, Note_off_c, 14, 44, 95
6, 159360, Note_on_c, 14, 49, 95
6, 159840, Note_off_c, 14, 49, 95
6, 159840, Note_on_c, 14, 49, 95
6, 160320, Note_off_c, 14, 49, 95
6, 160320, Note_on_c, 14, 42, 95
6, 160800, Note_off_c, 14, 42, 95
6, 160800, Note_on_c, 14, 44, 95
6, 161280, Note_off_c, 14, 44, 95
6, 161280, Note_on_c, 14, 37, 95
6, 161760, Note_off_c, 14, 37, 95
6, 161760, Note_on_c, 14, 37, 95
6, 162240, Note_off_c, 14, 37, 95
6, 162240, Note_on_c, 14, 37, 95
6, 163200, Note_off_c, 14, 37, 95
6, 163200, Note_on_c, 14, 37, 95
6, 163680, Note_off_c, 14, 37, 95
6, 163680, Note_on_c, 14, 37, 95
6, 164160, Note_off_c, 14, 37, 95
6, 164160, Note_on_c, 14, 37, 95
6, 164640, Note_off_c, 14, 37, 95
6, 164640, Note_on_c, 14, 37, 95
6, 165120, Note_off_c, 14, 37, 95
6, 165120, Note_on_c, 14, 42, 95
6, 165600, Note_off_c, 14, 42, 95
6, 165600, Note_on_c, 14, 44, 95
6, 166080, Note_off_c, 14, 44, 95
6, 166080, Note_on_c, 14, 42, 95
6, 166560, Note_off_c, 14, 42, 95
6, 166560, Note_on_c, 14, 44, 95
6, 167040, Note_off_c, 14, 44, 95
6, 167040, Note_on_c, 14, 49, 95
6, 167520, Note_off_c, 14, 49, 95
6, 167520, Note_on_c, 14, 44, 95
6, 168000, Note_off_c, 14, 44, 95
6, 168000, Note_on_c, 14, 47, 95
6, 168480, Note_off_c, 14, 47, 95
6, 168480, Note_on_c, 14, 49, 95
6, 168960, Note_off_c, 14, 49, 95
6, 168960, Note_on_c, 14, 37, 95
6, 170400, Note_off_c, 14, 37, 95
6, 170400, Note_on_c, 14, 37, 95
6, 170880, Note_off_c, 14, 37, 95
6, 170880, Note_on_c, 14, 37, 95
6, 171360, Note_off_c, 14, 37, 95
6, 171360, Note_on_c, 14, 37, 95
6, 171840, Note_off_c, 14, 37, 95
6, 171840, Note_on_c, 14, 37, 95
6, 172320, Note_off_c, 14, 37, 95
6, 172320, Note_on_c, 14, 28, 95
6, 172379, Note_off_c, 14, 28, 95
6, 172800, Note_on_c, 14, 42, 95
6, 173280, Note_off_c, 14, 42, 95
6, 173280, Note_on_c, 14, 43, 95
6, 173760, Note_off_c, 14, 43, 95
6, 173760, Note_on_c, 14, 43, 95
6, 174240, Note_off_c, 14, 43, 95
6, 174240, Note_on_c, 14, 44, 95
6, 174720, Note_off_c, 14, 44, 95
6, 174720, Note_on_c, 14, 49, 95
6, 175200, Note_off_c, 14, 49, 95
6, 175200, Note_on_c, 14, 49, 95
6, 175680, Note_off_c, 14, 49, 95
6, 175680, Note_on_c, 14, 42, 95
6, 176160, Note_off_c, 14, 42, 95
6, 176160, Note_on_c, 14, 44, 95
6, 176640, Note_off_c, 14, 44, 95
6, 176640, Note_on_c, 14, 37, 95
6, 177120, Note_off_c, 14, 37, 95
6, 177120, Note_on_c, 14, 37, 95
6, 177600, Note_off_c, 14, 37, 95
6, 177600, Note_on_c, 14, 37, 95
6, 178320, Note_off_c, 14, 37, 95
6, 178320, Note_on_c, 14, 37, 95
6, 178560, Note_off_c, 14, 37, 95
6, 178560, Note_on_c, 14, 37, 95
6, 179040, Note_off_c, 14, 37, 95
6, 179040, Note_on_c, 14, 37, 95
6, 179520, Note_off_c, 14, 37, 95
6, 179520, Note_on_c, 14, 37, 95
6, 180000, Note_off_c, 14, 37, 95
6, 180000, Note_on_c, 14, 28, 95
6, 180059, Note_off_c, 14, 28, 95
6, 180480, Note_on_c, 14, 42, 95
6, 180960, Note_off_c, 14, 42, 95
6, 180960, Note_on_c, 14, 43, 95
6, 181440, Note_off_c, 14, 43, 95
6, 181440, Note_on_c, 14, 44, 95
6, 181920, Note_off_c, 14, 44, 95
6, 181920, Note_on_c, 14, 37, 95
6, 182880, Note_off_c, 14, 37, 95
6, 182880, Note_on_c, 14, 37, 95
6, 183360, Note_off_c, 14, 37, 95
6, 183360, Note_on_c, 14, 35, 95
6, 183840, Note_off_c, 14, 35, 95
6, 183840, Note_on_c, 14, 36, 95
6, 184320, Note_off_c, 14, 36, 95
6, 184320, Note_on_c, 14, 37, 95
6, 184800, Note_off_c, 14, 37, 95
6, 184800, Note_on_c, 14, 37, 95
6, 185280, Note_off_c, 14, 37, 95
6, 185280, Note_on_c, 14, 37, 95
6, 185760, Note_off_c, 14, 37, 95
6, 185760, Note_on_c, 14, 37, 95
6, 186240, Note_off_c, 14, 37, 95
6, 186240, Note_on_c, 14, 37, 95
6, 186720, Note_off_c, 14, 37, 95
6, 186720, Note_on_c, 14, 37, 95
6, 187200, Note_off_c, 14, 37, 95
6, 187200, Note_on_c, 14, 37, 95
6, 187680, Note_off_c, 14, 37, 95
6, 187680, Note_on_c, 14, 28, 95
6, 187739, Note_off_c, 14, 28, 95
6, 188160, Note_on_c, 14, 42, 95
6, 188640, Note_off_c, 14, 42, 95
6, 188640, Note_on_c, 14, 44, 95
6, 189120, Note_off_c, 14, 44, 95
6, 189120, Note_on_c, 14, 42, 95
6, 189600, Note_off_c, 14, 42, 95
6, 189600, Note_on_c, 14, 44, 95
6, 190080, Note_off_c, 14, 44, 95
6, 190080, Note_on_c, 14, 49, 95
6, 190560, Note_off_c, 14, 49, 95
6, 190560, Note_on_c, 14, 49, 95
6, 191040, Note_off_c, 14, 49, 95
6, 191040, Note_on_c, 14, 42, 95
6, 191520, Note_off_c, 14, 42, 95
6, 191520, Note_on_c, 14, 44, 95
6, 192000, Note_off_c, 14, 44, 95
6, 192000, Note_on_c, 14, 37, 95
6, 192480, Note_off_c, 14, 37, 95
6, 192480, Note_on_c, 14, 37, 95
6, 192960, Note_off_c, 14, 37, 95
6, 192960, Note_on_c, 14, 37, 95
6, 193680, Note_off_c, 14, 37, 95
6, 193680, Note_on_c, 14, 37, 95
6, 193920, Note_off_c, 14, 37, 95
6, 193920, Note_on_c, 14, 37, 95
6, 194400, Note_off_c, 14, 37, 95
6, 194400, Note_on_c, 14, 37, 95
6, 194880, Note_off_c, 14, 37, 95
6, 194880, Note_on_c, 14, 37, 95
6, 195360, Note_off_c, 14, 37, 95
6, 195360, Note_on_c, 14, 37, 95
6, 195840, Note_off_c, 14, 37, 95
6, 195840, Note_on_c, 14, 42, 95
6, 196320, Note_off_c, 14, 42, 95
6, 196320, Note_on_c, 14, 43, 95
6, 196800, Note_off_c, 14, 43, 95
6, 196800, Note_on_c, 14, 44, 95
6, 197280, Note_off_c, 14, 44, 95
6, 197280, Note_on_c, 14, 37, 95
6, 197760, Note_off_c, 14, 37, 95
6, 197760, Note_on_c, 14, 37, 95
6, 198240, Note_off_c, 14, 37, 95
6, 198240, Note_on_c, 14, 37, 95
6, 198720, Note_off_c, 14, 37, 95
6, 198720, Note_on_c, 14, 35, 95
6, 199200, Note_off_c, 14, 35, 95
6, 199200, Note_on_c, 14, 36, 95
6, 199680, Note_off_c, 14, 36, 95
6, 199680, Note_on_c, 14, 37, 95
6, 200640, Note_off_c, 14, 37, 95
6, 200640, Note_on_c, 14, 37, 95
6, 201360, Note_off_c, 14, 37, 95
6, 201360, Note_on_c, 14, 37, 95
6, 201600, Note_off_c, 14, 37, 95
6, 201600, Note_on_c, 14, 37, 95
6, 202080, Note_off_c, 14, 37, 95
6, 202080, Note_on_c, 14, 37, 95
6, 202560, Note_off_c, 14, 37, 95
6, 202560, Note_on_c, 14, 37, 95
6, 203040, Note_off_c, 14, 37, 95
6, 203040, Note_on_c, 14, 28, 95
6, 203520, Note_off_c, 14, 28, 95
6, 203520, Note_on_c, 14, 35, 95
6, 204000, Note_off_c, 14, 35, 95
6, 204000, Note_on_c, 14, 35, 95
6, 204480, Note_off_c, 14, 35, 95
6, 204480, Note_on_c, 14, 35, 95
6, 205200, Note_off_c, 14, 35, 95
6, 205200, Note_on_c, 14, 35, 95
6, 205440, Note_off_c, 14, 35, 95
6, 205440, Note_on_c, 14, 35, 95
6, 205920, Note_off_c, 14, 35, 95
6, 205920, Note_on_c, 14, 35, 95
6, 206400, Note_off_c, 14, 35, 95
6, 206400, Note_on_c, 14, 35, 95
6, 206880, Note_off_c, 14, 35, 95
6, 206880, Note_on_c, 14, 28, 95
6, 207360, Note_off_c, 14, 28, 95
6, 207360, Note_on_c, 14, 33, 95
6, 207840, Note_off_c, 14, 33, 95
6, 207840, Note_on_c, 14, 33, 95
6, 208320, Note_off_c, 14, 33, 95
6, 208320, Note_on_c, 14, 33, 95
6, 209040, Note_off_c, 14, 33, 95
6, 209040, Note_on_c, 14, 33, 95
6, 209280, Note_off_c, 14, 33, 95
6, 209280, Note_on_c, 14, 33, 95
6, 209760, Note_off_c, 14, 33, 95
6, 209760, Note_on_c, 14, 33, 95
6, 210240, Note_off_c, 14, 33, 95
6, 210240, Note_on_c, 14, 33, 95
6, 210720, Note_off_c, 14, 33, 95
6, 210720, Note_on_c, 14, 28, 95
6, 211200, Note_off_c, 14, 28, 95
6, 211200, Note_on_c, 14, 40, 95
6, 211680, Note_off_c, 14, 40, 95
6, 211680, Note_on_c, 14, 33, 95
6, 212160, Note_off_c, 14, 33, 95
6, 212160, Note_on_c, 14, 40, 95
6, 212640, Note_off_c, 14, 40, 95
6, 212640, Note_on_c, 14, 33, 95
6, 213120, Note_off_c, 14, 33, 95
6, 213120, Note_on_c, 14, 40, 95
6, 213600, Note_off_c, 14, 40, 95
6, 213600, Note_on_c, 14, 35, 95
6, 214080, Note_off_c, 14, 35, 95
6, 214080, Note_on_c, 14, 40, 95
6, 214560, Note_off_c, 14, 40, 95
6, 214560, Note_on_c, 14, 35, 95
6, 215040, Note_off_c, 14, 35, 95
6, 215040, Note_on_c, 14, 37, 95
6, 216000, Note_off_c, 14, 37, 95
6, 216000, Note_on_c, 14, 37, 95
6, 216720, Note_off_c, 14, 37, 95
6, 216720, Note_on_c, 14, 37, 95
6, 216960, Note_off_c, 14, 37, 95
6, 216960, Note_on_c, 14, 37, 95
6, 217440, Note_off_c, 14, 37, 95
6, 217440, Note_on_c, 14, 37, 95
6, 217920, Note_off_c, 14, 37, 95
6, 217920, Note_on_c, 14, 37, 95
6, 218400, Note_off_c, 14, 37, 95
6, 218400, Note_on_c, 14, 28, 95
6, 218880, Note_off_c, 14, 28, 95
6, 218880, Note_on_c, 14, 35, 95
6, 219360, Note_off_c, 14, 35, 95
6, 219360, Note_on_c, 14, 35, 95
6, 219840, Note_off_c, 14, 35, 95
6, 219840, Note_on_c, 14, 35, 95
6, 220560, Note_off_c, 14, 35, 95
6, 220560, Note_on_c, 14, 35, 95
6, 220800, Note_off_c, 14, 35, 95
6, 220800, Note_on_c, 14, 35, 95
6, 221280, Note_off_c, 14, 35, 95
6, 221280, Note_on_c, 14, 35, 95
6, 221760, Note_off_c, 14, 35, 95
6, 221760, Note_on_c, 14, 35, 95
6, 222240, Note_off_c, 14, 35, 95
6, 222240, Note_on_c, 14, 28, 95
6, 222720, Note_off_c, 14, 28, 95
6, 222720, Note_on_c, 14, 33, 95
6, 223200, Note_off_c, 14, 33, 95
6, 223200, Note_on_c, 14, 33, 95
6, 223680, Note_off_c, 14, 33, 95
6, 223680, Note_on_c, 14, 33, 95
6, 224400, Note_off_c, 14, 33, 95
6, 224400, Note_on_c, 14, 33, 95
6, 224640, Note_off_c, 14, 33, 95
6, 224640, Note_on_c, 14, 33, 95
6, 225120, Note_off_c, 14, 33, 95
6, 225120, Note_on_c, 14, 33, 95
6, 225600, Note_off_c, 14, 33, 95
6, 225600, Note_on_c, 14, 33, 95
6, 226080, Note_off_c, 14, 33, 95
6, 226080, Note_on_c, 14, 28, 95
6, 226560, Note_off_c, 14, 28, 95
6, 226560, Note_on_c, 14, 40, 95
6, 227040, Note_off_c, 14, 40, 95
6, 227040, Note_on_c, 14, 33, 95
6, 227520, Note_off_c, 14, 33, 95
6, 227520, Note_on_c, 14, 40, 95
6, 228000, Note_off_c, 14, 40, 95
6, 228000, Note_on_c, 14, 33, 95
6, 228480, Note_off_c, 14, 33, 95
6, 228480, Note_on_c, 14, 40, 95
6, 228960, Note_off_c, 14, 40, 95
6, 228960, Note_on_c, 14, 35, 95
6, 229440, Note_off_c, 14, 35, 95
6, 229440, Note_on_c, 14, 40, 95
6, 229920, Note_off_c, 14, 40, 95
6, 229920, Note_on_c, 14, 35, 95
6, 230400, Note_off_c, 14, 35, 95
6, 230400, Note_on_c, 14, 37, 95
6, 231360, Note_off_c, 14, 37, 95
6, 231360, Note_on_c, 14, 37, 95
6, 232320, Note_off_c, 14, 37, 95
6, 232320, Note_on_c, 14, 37, 95
6, 232800, Note_off_c, 14, 37, 95
6, 232800, Note_on_c, 14, 37, 95
6, 233280, Note_off_c, 14, 37, 95
6, 233280, Note_on_c, 14, 37, 95
6, 234240, Note_off_c, 14, 37, 95
6, 234240, Note_on_c, 14, 37, 95
6, 234720, Note_off_c, 14, 37, 95
6, 234720, Note_on_c, 14, 37, 95
6, 235200, Note_off_c, 14, 37, 95
6, 235200, Note_on_c, 14, 37, 95
6, 235680, Note_off_c, 14, 37, 95
6, 235680, Note_on_c, 14, 42, 95
6, 236160, Note_off_c, 14, 42, 95
6, 236160, Note_on_c, 14, 37, 95
6, 236640, Note_off_c, 14, 37, 95
6, 236640, Note_on_c, 14, 42, 95
6, 237120, Note_off_c, 14, 42, 95
6, 237120, Note_on_c, 14, 43, 95
6, 237600, Note_off_c, 14, 43, 95
6, 237600, Note_on_c, 14, 44, 95
6, 238080, Note_off_c, 14, 44, 95
6, 238080, Note_on_c, 14, 37, 95
6, 238800, Note_off_c, 14, 37, 95
6, 238800, Note_on_c, 14, 37, 95
6, 239040, Note_off_c, 14, 37, 95
6, 239040, Note_on_c, 14, 37, 95
6, 239760, Note_off_c, 14, 37, 95
6, 239760, Note_on_c, 14, 37, 95
6, 240000, Note_off_c, 14, 37, 95
6, 240000, Note_on_c, 14, 37, 95
6, 240480, Note_off_c, 14, 37, 95
6, 240480, Note_on_c, 14, 37, 95
6, 240960, Note_off_c, 14, 37, 95
6, 240960, Note_on_c, 14, 37, 95
6, 241920, Note_off_c, 14, 37, 95
6, 241920, Note_on_c, 14, 42, 95
6, 242400, Note_off_c, 14, 42, 95
6, 242880, Note_on_c, 14, 43, 95
6, 243360, Note_off_c, 14, 43, 95
6, 243600, Note_on_c, 14, 44, 95
6, 243840, Note_off_c, 14, 44, 95
6, 243840, Note_on_c, 14, 44, 95
6, 244320, Note_off_c, 14, 44, 95
6, 244320, Note_on_c, 14, 44, 95
6, 244800, Note_off_c, 14, 44, 95
6, 244800, Note_on_c, 14, 47, 95
6, 245280, Note_off_c, 14, 47, 95
6, 245280, Note_on_c, 14, 49, 95
6, 245760, Note_off_c, 14, 49, 95
6, 245760, Note_on_c, 14, 37, 95
6, 246480, Note_off_c, 14, 37, 95
6, 246480, Note_on_c, 14, 37, 95
6, 246720, Note_off_c, 14, 37, 95
6, 246720, Note_on_c, 14, 37, 95
6, 247440, Note_off_c, 14, 37, 95
6, 247440, Note_on_c, 14, 37, 95
6, 247680, Note_off_c, 14, 37, 95
6, 247680, Note_on_c, 14, 37, 95
6, 248160, Note_off_c, 14, 37, 95
6, 248160, Note_on_c, 14, 37, 95
6, 248640, Note_off_c, 14, 37, 95
6, 248640, Note_on_c, 14, 37, 95
6, 249600, Note_off_c, 14, 37, 95
6, 249600, Note_on_c, 14, 40, 95
6, 250080, Note_off_c, 14, 40, 95
6, 250080, Note_on_c, 14, 42, 95
6, 250560, Note_off_c, 14, 42, 95
6, 250560, Note_on_c, 14, 43, 95
6, 251040, Note_off_c, 14, 43, 95
6, 251040, Note_on_c, 14, 44, 95
6, 252000, Note_off_c, 14, 44, 95
6, 252000, Note_on_c, 14, 44, 95
6, 252480, Note_off_c, 14, 44, 95
6, 252480, Note_on_c, 14, 40, 95
6, 252960, Note_off_c, 14, 40, 95
6, 252960, Note_on_c, 14, 44, 95
6, 253440, Note_off_c, 14, 44, 95
6, 253440, Note_on_c, 14, 37, 95
6, 253920, Note_off_c, 14, 37, 95
6, 253920, Note_on_c, 14, 37, 95
6, 254400, Note_off_c, 14, 37, 95
6, 254400, Note_on_c, 14, 37, 95
6, 255120, Note_off_c, 14, 37, 95
6, 255120, Note_on_c, 14, 37, 95
6, 255360, Note_off_c, 14, 37, 95
6, 255360, Note_on_c, 14, 37, 95
6, 255840, Note_off_c, 14, 37, 95
6, 255840, Note_on_c, 14, 37, 95
6, 256320, Note_off_c, 14, 37, 95
6, 256320, Note_on_c, 14, 37, 95
6, 257280, Note_off_c, 14, 37, 95
6, 257280, Note_on_c, 14, 42, 95
6, 257760, Note_off_c, 14, 42, 95
6, 257760, Note_on_c, 14, 43, 95
6, 258720, Note_off_c, 14, 43, 95
6, 258720, Note_on_c, 14, 44, 95
6, 259200, Note_off_c, 14, 44, 95
6, 259200, Note_on_c, 14, 49, 95
6, 259680, Note_off_c, 14, 49, 95
6, 259680, Note_on_c, 14, 37, 95
6, 260160, Note_off_c, 14, 37, 95
6, 260160, Note_on_c, 14, 35, 95
6, 260640, Note_off_c, 14, 35, 95
6, 260640, Note_on_c, 14, 36, 95
6, 261120, Note_off_c, 14, 36, 95
6, 261120, Note_on_c, 14, 37, 95
6, 262080, Note_off_c, 14, 37, 95
6, 262080, Note_on_c, 14, 37, 95
6, 262800, Note_off_c, 14, 37, 95
6, 262800, Note_on_c, 14, 37, 95
6, 263040, Note_off_c, 14, 37, 95
6, 263040, Note_on_c, 14, 37, 95
6, 263520, Note_off_c, 14, 37, 95
6, 263520, Note_on_c, 14, 37, 95
6, 264000, Note_off_c, 14, 37, 95
6, 264000, Note_on_c, 14, 37, 95
6, 264480, Note_off_c, 14, 37, 95
6, 264480, Note_on_c, 14, 28, 95
6, 264960, Note_off_c, 14, 28, 95
6, 264960, Note_on_c, 14, 35, 95
6, 265440, Note_off_c, 14, 35, 95
6, 265440, Note_on_c, 14, 35, 95
6, 265920, Note_off_c, 14, 35, 95
6, 265920, Note_on_c, 14, 35, 95
6, 266640, Note_off_c, 14, 35, 95
6, 266640, Note_on_c, 14, 35, 95
6, 266880, Note_off_c, 14, 35, 95
6, 266880, Note_on_c, 14, 35, 95
6, 267360, Note_off_c, 14, 35, 95
6, 267360, Note_on_c, 14, 35, 95
6, 267840, Note_off_c, 14, 35, 95
6, 267840, Note_on_c, 14, 35, 95
6, 268320, Note_off_c, 14, 35, 95
6, 268320, Note_on_c, 14, 28, 95
6, 268800, Note_off_c, 14, 28, 95
6, 268800, Note_on_c, 14, 33, 95
6, 269280, Note_off_c, 14, 33, 95
6, 269280, Note_on_c, 14, 33, 95
6, 269760, Note_off_c, 14, 33, 95
6, 269760, Note_on_c, 14, 33, 95
6, 270480, Note_off_c, 14, 33, 95
6, 270480, Note_on_c, 14, 33, 95
6, 270720, Note_off_c, 14, 33, 95
6, 270720, Note_on_c, 14, 33, 95
6, 271200, Note_off_c, 14, 33, 95
6, 271200, Note_on_c, 14, 33, 95
6, 271680, Note_off_c, 14, 33, 95
6, 271680, Note_on_c, 14, 33, 95
6, 272160, Note_off_c, 14, 33, 95
6, 272160, Note_on_c, 14, 33, 95
6, 272640, Note_off_c, 14, 33, 95
6, 272640, Note_on_c, 14, 40, 95
6, 273120, Note_off_c, 14, 40, 95
6, 273120, Note_on_c, 14, 33, 95
6, 273600, Note_off_c, 14, 33, 95
6, 273600, Note_on_c, 14, 40, 95
6, 274080, Note_off_c, 14, 40, 95
6, 274080, Note_on_c, 14, 33, 95
6, 274560, Note_off_c, 14, 33, 95
6, 274560, Note_on_c, 14, 40, 95
6, 275040, Note_off_c, 14, 40, 95
6, 275040, Note_on_c, 14, 35, 95
6, 275520, Note_off_c, 14, 35, 95
6, 275520, Note_on_c, 14, 40, 95
6, 276000, Note_off_c, 14, 40, 95
6, 276000, Note_on_c, 14, 35, 95
6, 276480, Note_off_c, 14, 35, 95
6, 276480, Note_on_c, 14, 37, 95
6, 277440, Note_off_c, 14, 37, 95
6, 277440, Note_on_c, 14, 37, 95
6, 278160, Note_off_c, 14, 37, 95
6, 278160, Note_on_c, 14, 37, 95
6, 278400, Note_off_c, 14, 37, 95
6, 278400, Note_on_c, 14, 37, 95
6, 278880, Note_off_c, 14, 37, 95
6, 278880, Note_on_c, 14, 37, 95
6, 279360, Note_off_c, 14, 37, 95
6, 279360, Note_on_c, 14, 37, 95
6, 279840, Note_off_c, 14, 37, 95
6, 279840, Note_on_c, 14, 28, 95
6, 280320, Note_off_c, 14, 28, 95
6, 280320, Note_on_c, 14, 35, 95
6, 280800, Note_off_c, 14, 35, 95
6, 280800, Note_on_c, 14, 35, 95
6, 281280, Note_off_c, 14, 35, 95
6, 281280, Note_on_c, 14, 35, 95
6, 282000, Note_off_c, 14, 35, 95
6, 282000, Note_on_c, 14, 35, 95
6, 282240, Note_off_c, 14, 35, 95
6, 282240, Note_on_c, 14, 35, 95
6, 282720, Note_off_c, 14, 35, 95
6, 282720, Note_on_c, 14, 35, 95
6, 283200, Note_off_c, 14, 35, 95
6, 283200, Note_on_c, 14, 35, 95
6, 283680, Note_off_c, 14, 35, 95
6, 283680, Note_on_c, 14, 28, 95
6, 284160, Note_off_c, 14, 28, 95
6, 284160, Note_on_c, 14, 33, 95
6, 284640, Note_off_c, 14, 33, 95
6, 284640, Note_on_c, 14, 33, 95
6, 285120, Note_off_c, 14, 33, 95
6, 285120, Note_on_c, 14, 33, 95
6, 285840, Note_off_c, 14, 33, 95
6, 285840, Note_on_c, 14, 33, 95
6, 286080, Note_off_c, 14, 33, 95
6, 286080, Note_on_c, 14, 33, 95
6, 286560, Note_off_c, 14, 33, 95
6, 286560, Note_on_c, 14, 33, 95
6, 287040, Note_off_c, 14, 33, 95
6, 287040, Note_on_c, 14, 33, 95
6, 287520, Note_off_c, 14, 33, 95
6, 287520, Note_on_c, 14, 33, 95
6, 288000, Note_off_c, 14, 33, 95
6, 288000, Note_on_c, 14, 40, 95
6, 288480, Note_off_c, 14, 40, 95
6, 288480, Note_on_c, 14, 33, 95
6, 288960, Note_off_c, 14, 33, 95
6, 288960, Note_on_c, 14, 40, 95
6, 289440, Note_off_c, 14, 40, 95
6, 289440, Note_on_c, 14, 33, 95
6, 289920, Note_off_c, 14, 33, 95
6, 289920, Note_on_c, 14, 40, 95
6, 290400, Note_off_c, 14, 40, 95
6, 290400, Note_on_c, 14, 35, 95
6, 290880, Note_off_c, 14, 35, 95
6, 290880, Note_on_c, 14, 40, 95
6, 291360, Note_off_c, 14, 40, 95
6, 291360, Note_on_c, 14, 35, 95
6, 291840, Note_off_c, 14, 35, 95
6, 291840, Note_on_c, 14, 37, 95
6, 292800, Note_off_c, 14, 37, 95
6, 292800, Note_on_c, 14, 37, 95
6, 293520, Note_off_c, 14, 37, 95
6, 293520, Note_on_c, 14, 37, 95
6, 293760, Note_off_c, 14, 37, 95
6, 293760, Note_on_c, 14, 37, 95
6, 294240, Note_off_c, 14, 37, 95
6, 294240, Note_on_c, 14, 37, 95
6, 294720, Note_off_c, 14, 37, 95
6, 294720, Note_on_c, 14, 37, 95
6, 295200, Note_off_c, 14, 37, 95
6, 295200, Note_on_c, 14, 28, 95
6, 295680, Note_off_c, 14, 28, 95
6, 295680, Note_on_c, 14, 35, 95
6, 296160, Note_off_c, 14, 35, 95
6, 296160, Note_on_c, 14, 35, 95
6, 296640, Note_off_c, 14, 35, 95
6, 296640, Note_on_c, 14, 35, 95
6, 297360, Note_off_c, 14, 35, 95
6, 297360, Note_on_c, 14, 35, 95
6, 297600, Note_off_c, 14, 35, 95
6, 297600, Note_on_c, 14, 35, 95
6, 298080, Note_off_c, 14, 35, 95
6, 298080, Note_on_c, 14, 35, 95
6, 298560, Note_off_c, 14, 35, 95
6, 298560, Note_on_c, 14, 35, 95
6, 299040, Note_off_c, 14, 35, 95
6, 299040, Note_on_c, 14, 28, 95
6, 299520, Note_off_c, 14, 28, 95
6, 299520, Note_on_c, 14, 33, 95
6, 300000, Note_off_c, 14, 33, 95
6, 300000, Note_on_c, 14, 33, 95
6, 300480, Note_off_c, 14, 33, 95
6, 300480, Note_on_c, 14, 33, 95
6, 301200, Note_off_c, 14, 33, 95
6, 301200, Note_on_c, 14, 33, 95
6, 301440, Note_off_c, 14, 33, 95
6, 301440, Note_on_c, 14, 33, 95
6, 301920, Note_off_c, 14, 33, 95
6, 301920, Note_on_c, 14, 33, 95
6, 302400, Note_off_c, 14, 33, 95
6, 302400, Note_on_c, 14, 33, 95
6, 302880, Note_off_c, 14, 33, 95
6, 302880, Note_on_c, 14, 33, 95
6, 303360, Note_off_c, 14, 33, 95
6, 303360, Note_on_c, 14, 40, 95
6, 303840, Note_off_c, 14, 40, 95
6, 303840, Note_on_c, 14, 33, 95
6, 304320, Note_off_c, 14, 33, 95
6, 304320, Note_on_c, 14, 40, 95
6, 304800, Note_off_c, 14, 40, 95
6, 304800, Note_on_c, 14, 33, 95
6, 305280, Note_off_c, 14, 33, 95
6, 305280, Note_on_c, 14, 40, 95
6, 305760, Note_off_c, 14, 40, 95
6, 305760, Note_on_c, 14, 35, 95
6, 306240, Note_off_c, 14, 35, 95
6, 306240, Note_on_c, 14, 40, 95
6, 306720, Note_off_c, 14, 40, 95
6, 306720, Note_on_c, 14, 35, 95
6, 307200, Note_off_c, 14, 35, 95
6, 307200, Note_on_c, 14, 37, 95
6, 308160, Note_off_c, 14, 37, 95
6, 308160, Note_on_c, 14, 37, 95
6, 308880, Note_off_c, 14, 37, 95
6, 308880, Note_on_c, 14, 37, 95
6, 309120, Note_off_c, 14, 37, 95
6, 309120, Note_on_c, 14, 37, 95
6, 309600, Note_off_c, 14, 37, 95
6, 309600, Note_on_c, 14, 37, 95
6, 310080, Note_off_c, 14, 37, 95
6, 310080, Note_on_c, 14, 37, 95
6, 311040, Note_off_c, 14, 37, 95
6, 311040, Note_on_c, 14, 35, 95
6, 311520, Note_off_c, 14, 35, 95
6, 311520, Note_on_c, 14, 35, 95
6, 312000, Note_off_c, 14, 35, 95
6, 312000, Note_on_c, 14, 35, 95
6, 312720, Note_off_c, 14, 35, 95
6, 312720, Note_on_c, 14, 35, 95
6, 312960, Note_off_c, 14, 35, 95
6, 312960, Note_on_c, 14, 35, 95
6, 313440, Note_off_c, 14, 35, 95
6, 313440, Note_on_c, 14, 35, 95
6, 313920, Note_off_c, 14, 35, 95
6, 313920, Note_on_c, 14, 40, 95
6, 314400, Note_off_c, 14, 40, 95
6, 314400, Note_on_c, 14, 42, 95
6, 314880, Note_off_c, 14, 42, 95
6, 314880, Note_on_c, 14, 33, 95
6, 315360, Note_off_c, 14, 33, 95
6, 315360, Note_on_c, 14, 33, 95
6, 315840, Note_off_c, 14, 33, 95
6, 315840, Note_on_c, 14, 33, 95
6, 316560, Note_off_c, 14, 33, 95
6, 316560, Note_on_c, 14, 33, 95
6, 316800, Note_off_c, 14, 33, 95
6, 316800, Note_on_c, 14, 33, 95
6, 317280, Note_off_c, 14, 33, 95
6, 317280, Note_on_c, 14, 33, 95
6, 317760, Note_off_c, 14, 33, 95
6, 317760, Note_on_c, 14, 40, 95
6, 318240, Note_off_c, 14, 40, 95
6, 318240, Note_on_c, 14, 40, 95
6, 318720, Note_off_c, 14, 40, 95
6, 318720, Note_on_c, 14, 40, 95
6, 319200, Note_off_c, 14, 40, 95
6, 319200, Note_on_c, 14, 33, 95
6, 319680, Note_off_c, 14, 33, 95
6, 319680, Note_on_c, 14, 40, 95
6, 320160, Note_off_c, 14, 40, 95
6, 320160, Note_on_c, 14, 33, 95
6, 320640, Note_off_c, 14, 33, 95
6, 320640, Note_on_c, 14, 40, 95
6, 321120, Note_off_c, 14, 40, 95
6, 321120, Note_on_c, 14, 35, 95
6, 321600, Note_off_c, 14, 35, 95
6, 321600, Note_on_c, 14, 35, 95
6, 322080, Note_off_c, 14, 35, 95
6, 322080, Note_on_c, 14, 35, 95
6, 322560, Note_off_c, 14, 35, 95
6, 322560, Note_on_c, 14, 37, 95
6, 323520, Note_off_c, 14, 37, 95
6, 323520, Note_on_c, 14, 37, 95
6, 324240, Note_off_c, 14, 37, 95
6, 324240, Note_on_c, 14, 37, 95
6, 324480, Note_off_c, 14, 37, 95
6, 324480, Note_on_c, 14, 37, 95
6, 324960, Note_off_c, 14, 37, 95
6, 324960, Note_on_c, 14, 37, 95
6, 325440, Note_off_c, 14, 37, 95
6, 325440, Note_on_c, 14, 42, 95
6, 325920, Note_off_c, 14, 42, 95
6, 325920, Note_on_c, 14, 44, 95
6, 326400, Note_off_c, 14, 44, 95
6, 326400, Note_on_c, 14, 35, 95
6, 327360, Note_off_c, 14, 35, 95
6, 327360, Note_on_c, 14, 35, 95
6, 328080, Note_off_c, 14, 35, 95
6, 328080, Note_on_c, 14, 35, 95
6, 328320, Note_off_c, 14, 35, 95
6, 328320, Note_on_c, 14, 35, 95
6, 328800, Note_off_c, 14, 35, 95
6, 328800, Note_on_c, 14, 35, 95
6, 329280, Note_off_c, 14, 35, 95
6, 329280, Note_on_c, 14, 40, 95
6, 329760, Note_off_c, 14, 40, 95
6, 329760, Note_on_c, 14, 42, 95
6, 330240, Note_off_c, 14, 42, 95
6, 330240, Note_on_c, 14, 33, 95
6, 331200, Note_off_c, 14, 33, 95
6, 331200, Note_on_c, 14, 33, 95
6, 331920, Note_off_c, 14, 33, 95
6, 331920, Note_on_c, 14, 33, 95
6, 332160, Note_off_c, 14, 33, 95
6, 332160, Note_on_c, 14, 33, 95
6, 332640, Note_off_c, 14, 33, 95
6, 332640, Note_on_c, 14, 33, 95
6, 333120, Note_off_c, 14, 33, 95
6, 333120, Note_on_c, 14, 33, 95
6, 333600, Note_off_c, 14, 33, 95
6, 333600, Note_on_c, 14, 33, 95
6, 334080, Note_off_c, 14, 33, 95
6, 334080, Note_on_c, 14, 40, 95
6, 334560, Note_off_c, 14, 40, 95
6, 334560, Note_on_c, 14, 33, 95
6, 335040, Note_off_c, 14, 33, 95
6, 335040, Note_on_c, 14, 40, 95
6, 335520, Note_off_c, 14, 40, 95
6, 335520, Note_on_c, 14, 33, 95
6, 336000, Note_off_c, 14, 33, 95
6, 336000, Note_on_c, 14, 40, 95
6, 336480, Note_off_c, 14, 40, 95
6, 336480, Note_on_c, 14, 35, 95
6, 336960, Note_off_c, 14, 35, 95
6, 336960, Note_on_c, 14, 35, 95
6, 337440, Note_off_c, 14, 35, 95
6, 337440, Note_on_c, 14, 35, 95
6, 337920, Note_off_c, 14, 35, 95
6, 337920, Note_on_c, 14, 37, 95
6, 338880, Note_off_c, 14, 37, 95
6, 338880, Note_on_c, 14, 37, 95
6, 339840, Note_off_c, 14, 37, 95
6, 339840, Note_on_c, 14, 37, 95
6, 340320, Note_off_c, 14, 37, 95
6, 340320, Note_on_c, 14, 37, 95
6, 340800, Note_off_c, 14, 37, 95
6, 340800, Note_on_c, 14, 37, 95
6, 341760, Note_off_c, 14, 37, 95
6, 341760, Note_on_c, 14, 35, 95
6, 342720, Note_off_c, 14, 35, 95
6, 342720, Note_on_c, 14, 42, 95
6, 343680, Note_off_c, 14, 42, 95
6, 343680, Note_on_c, 14, 35, 95
6, 344160, Note_off_c, 14, 35, 95
6, 344160, Note_on_c, 14, 35, 95
6, 344640, Note_off_c, 14, 35, 95
6, 344640, Note_on_c, 14, 35, 95
6, 345120, Note_off_c, 14, 35, 95
6, 345120, Note_on_c, 14, 35, 95
6, 345600, Note_off_c, 14, 35, 95
6, 345600, Note_on_c, 14, 33, 95
6, 346080, Note_off_c, 14, 33, 95
6, 346080, Note_on_c, 14, 33, 95
6, 346560, Note_off_c, 14, 33, 95
6, 346560, Note_on_c, 14, 33, 95
6, 347040, Note_off_c, 14, 33, 95
6, 347040, Note_on_c, 14, 33, 95
6, 347520, Note_off_c, 14, 33, 95
6, 347520, Note_on_c, 14, 33, 95
6, 348000, Note_off_c, 14, 33, 95
6, 348000, Note_on_c, 14, 33, 95
6, 348480, Note_off_c, 14, 33, 95
6, 348480, Note_on_c, 14, 33, 95
6, 348960, Note_off_c, 14, 33, 95
6, 348960, Note_on_c, 14, 33, 95
6, 349440, Note_off_c, 14, 33, 95
6, 349440, Note_on_c, 14, 40, 95
6, 349920, Note_off_c, 14, 40, 95
6, 349920, Note_on_c, 14, 33, 95
6, 350400, Note_off_c, 14, 33, 95
6, 350400, Note_on_c, 14, 40, 95
6, 350880, Note_off_c, 14, 40, 95
6, 350880, Note_on_c, 14, 33, 95
6, 351360, Note_off_c, 14, 33, 95
6, 351360, Note_on_c, 14, 40, 95
6, 351840, Note_off_c, 14, 40, 95
6, 351840, Note_on_c, 14, 35, 95
6, 352320, Note_off_c, 14, 35, 95
6, 352320, Note_on_c, 14, 40, 95
6, 352800, Note_off_c, 14, 40, 95
6, 352800, Note_on_c, 14, 35, 95
6, 353280, Note_off_c, 14, 35, 95
6, 353280, Note_on_c, 14, 37, 95
6, 354240, Note_off_c, 14, 37, 95
6, 354240, Note_on_c, 14, 37, 95
6, 354960, Note_off_c, 14, 37, 95
6, 354960, Note_on_c, 14, 37, 95
6, 355200, Note_off_c, 14, 37, 95
6, 355200, Note_on_c, 14, 37, 95
6, 355680, Note_off_c, 14, 37, 95
6, 355680, Note_on_c, 14, 37, 95
6, 356160, Note_off_c, 14, 37, 95
6, 356160, Note_on_c, 14, 37, 95
6, 356640, Note_off_c, 14, 37, 95
6, 356640, Note_on_c, 14, 28, 95
6, 357120, Note_off_c, 14, 28, 95
6, 357120, Note_on_c, 14, 42, 95
6, 357600, Note_off_c, 14, 42, 95
6, 357600, Note_on_c, 14, 43, 95
6, 358560, Note_off_c, 14, 43, 95
6, 358560, Note_on_c, 14, 44, 95
6, 359520, Note_off_c, 14, 44, 95
6, 359520, Note_on_c, 14, 44, 95
6, 360000, Note_off_c, 14, 44, 95
6, 360000, Note_on_c, 14, 42, 95
6, 360480, Note_off_c, 14, 42, 95
6, 360480, Note_on_c, 14, 44, 95
6, 360960, Note_off_c, 14, 44, 95
6, 360960, Note_on_c, 14, 37, 95
6, 361440, Note_off_c, 14, 37, 95
6, 361440, Note_on_c, 14, 37, 95
6, 361920, Note_off_c, 14, 37, 95
6, 361920, Note_on_c, 14, 37, 95
6, 362640, Note_off_c, 14, 37, 95
6, 362640, Note_on_c, 14, 37, 95
6, 362880, Note_off_c, 14, 37, 95
6, 362880, Note_on_c, 14, 37, 95
6, 363360, Note_off_c, 14, 37, 95
6, 363360, Note_on_c, 14, 37, 95
6, 363840, Note_off_c, 14, 37, 95
6, 363840, Note_on_c, 14, 37, 95
6, 364320, Note_off_c, 14, 37, 95
6, 364320, Note_on_c, 14, 28, 95
6, 364800, Note_off_c, 14, 28, 95
6, 364800, Note_on_c, 14, 42, 95
6, 365760, Note_off_c, 14, 42, 95
6, 365760, Note_on_c, 14, 42, 95
6, 366240, Note_off_c, 14, 42, 95
6, 366240, Note_on_c, 14, 43, 95
6, 366720, Note_off_c, 14, 43, 95
6, 366720, Note_on_c, 14, 43, 95
6, 367200, Note_off_c, 14, 43, 95
6, 367200, Note_on_c, 14, 44, 95
6, 367680, Note_off_c, 14, 44, 95
6, 367680, Note_on_c, 14, 47, 95
6, 368160, Note_off_c, 14, 47, 95
6, 368160, Note_on_c, 14, 49, 95
6, 368640, Note_off_c, 14, 49, 95
6, 368640, Note_on_c, 14, 37, 95
6, 370080, Note_off_c, 14, 37, 95
6, 370080, Note_on_c, 14, 37, 95
6, 370560, Note_off_c, 14, 37, 95
6, 370560, Note_on_c, 14, 37, 95
6, 371040, Note_off_c, 14, 37, 95
6, 371040, Note_on_c, 14, 37, 95
6, 371520, Note_off_c, 14, 37, 95
6, 371520, Note_on_c, 14, 37, 95
6, 372000, Note_off_c, 14, 37, 95
6, 372000, Note_on_c, 14, 28, 95
6, 372059, Note_off_c, 14, 28, 95
6, 372480, Note_on_c, 14, 42, 95
6, 372960, Note_off_c, 14, 42, 95
6, 372960, Note_on_c, 14, 43, 95
6, 373440, Note_off_c, 14, 43, 95
6, 373440, Note_on_c, 14, 43, 95
6, 373920, Note_off_c, 14, 43, 95
6, 373920, Note_on_c, 14, 44, 95
6, 374400, Note_off_c, 14, 44, 95
6, 374400, Note_on_c, 14, 49, 95
6, 374880, Note_off_c, 14, 49, 95
6, 374880, Note_on_c, 14, 49, 95
6, 375360, Note_off_c, 14, 49, 95
6, 375360, Note_on_c, 14, 42, 95
6, 375840, Note_off_c, 14, 42, 95
6, 375840, Note_on_c, 14, 44, 95
6, 376320, Note_off_c, 14, 44, 95
6, 376320, Note_on_c, 14, 37, 95
6, 376800, Note_off_c, 14, 37, 95
6, 376800, Note_on_c, 14, 37, 95
6, 377280, Note_off_c, 14, 37, 95
6, 377280, Note_on_c, 14, 37, 95
6, 378000, Note_off_c, 14, 37, 95
6, 378000, Note_on_c, 14, 37, 95
6, 378240, Note_off_c, 14, 37, 95
6, 378240, Note_on_c, 14, 37, 95
6, 378720, Note_off_c, 14, 37, 95
6, 378720, Note_on_c, 14, 37, 95
6, 379200, Note_off_c, 14, 37, 95
6, 379200, Note_on_c, 14, 37, 95
6, 379680, Note_off_c, 14, 37, 95
6, 379680, Note_on_c, 14, 28, 95
6, 379739, Note_off_c, 14, 28, 95
6, 380160, Note_on_c, 14, 42, 95
6, 380640, Note_off_c, 14, 42, 95
6, 380640, Note_on_c, 14, 43, 95
6, 381120, Note_off_c, 14, 43, 95
6, 381120, Note_on_c, 14, 44, 95
6, 381600, Note_off_c, 14, 44, 95
6, 381600, Note_on_c, 14, 37, 95
6, 382560, Note_off_c, 14, 37, 95
6, 382560, Note_on_c, 14, 37, 95
6, 383040, Note_off_c, 14, 37, 95
6, 383040, Note_on_c, 14, 35, 95
6, 383520, Note_off_c, 14, 35, 95
6, 383520, Note_on_c, 14, 36, 95
6, 384000, Note_off_c, 14, 36, 95
6, 384000, Note_on_c, 14, 37, 95
6, 384480, Note_off_c, 14, 37, 95
6, 384480, Note_on_c, 14, 37, 95
6, 384960, Note_off_c, 14, 37, 95
6, 384960, Note_on_c, 14, 37, 95
6, 385440, Note_off_c, 14, 37, 95
6, 385440, Note_on_c, 14, 37, 95
6, 385920, Note_off_c, 14, 37, 95
6, 385920, Note_on_c, 14, 37, 95
6, 386400, Note_off_c, 14, 37, 95
6, 386400, Note_on_c, 14, 37, 95
6, 386880, Note_off_c, 14, 37, 95
6, 386880, Note_on_c, 14, 37, 95
6, 387360, Note_off_c, 14, 37, 95
6, 387360, Note_on_c, 14, 28, 95
6, 387419, Note_off_c, 14, 28, 95
6, 387840, Note_on_c, 14, 42, 95
6, 388320, Note_off_c, 14, 42, 95
6, 388320, Note_on_c, 14, 44, 95
6, 388800, Note_off_c, 14, 44, 95
6, 388800, Note_on_c, 14, 42, 95
6, 389280, Note_off_c, 14, 42, 95
6, 389280, Note_on_c, 14, 44, 95
6, 389760, Note_off_c, 14, 44, 95
6, 389760, Note_on_c, 14, 49, 95
6, 390240, Note_off_c, 14, 49, 95
6, 390240, Note_on_c, 14, 49, 95
6, 390720, Note_off_c, 14, 49, 95
6, 390720, Note_on_c, 14, 42, 95
6, 391200, Note_off_c, 14, 42, 95
6, 391200, Note_on_c, 14, 44, 95
6, 391680, Note_off_c, 14, 44, 95
6, 391680, Note_on_c, 14, 37, 95
6, 392160, Note_off_c, 14, 37, 95
6, 392160, Note_on_c, 14, 37, 95
6, 392640, Note_off_c, 14, 37, 95
6, 392640, Note_on_c, 14, 37, 95
6, 393360, Note_off_c, 14, 37, 95
6, 393360, Note_on_c, 14, 37, 95
6, 393600, Note_off_c, 14, 37, 95
6, 393600, Note_on_c, 14, 37, 95
6, 394080, Note_off_c, 14, 37, 95
6, 394080, Note_on_c, 14, 37, 95
6, 394560, Note_off_c, 14, 37, 95
6, 394560, Note_on_c, 14, 37, 95
6, 395040, Note_off_c, 14, 37, 95
6, 395040, Note_on_c, 14, 37, 95
6, 395520, Note_off_c, 14, 37, 95
6, 395520, Note_on_c, 14, 42, 95
6, 396000, Note_off_c, 14, 42, 95
6, 396000, Note_on_c, 14, 43, 95
6, 396480, Note_off_c, 14, 43, 95
6, 396480, Note_on_c, 14, 44, 95
6, 396960, Note_off_c, 14, 44, 95
6, 396960, Note_on_c, 14, 37, 95
6, 397440, Note_off_c, 14, 37, 95
6, 397440, Note_on_c, 14, 37, 95
6, 397920, Note_off_c, 14, 37, 95
6, 397920, Note_on_c, 14, 37, 95
6, 398400, Note_off_c, 14, 37, 95
6, 398400, Note_on_c, 14, 35, 95
6, 398880, Note_off_c, 14, 35, 95
6, 398880, Note_on_c, 14, 36, 95
6, 399360, Note_off_c, 14, 36, 95
6, 399360, Note_on_c, 14, 37, 95
6, 400320, Note_off_c, 14, 37, 95
6, 400320, Note_on_c, 14, 37, 95
6, 401040, Note_off_c, 14, 37, 95
6, 401040, Note_on_c, 14, 37, 95
6, 401280, Note_off_c, 14, 37, 95
6, 401280, Note_on_c, 14, 37, 95
6, 401760, Note_off_c, 14, 37, 95
6, 401760, Note_on_c, 14, 37, 95
6, 402240, Note_off_c, 14, 37, 95
6, 402240, Note_on_c, 14, 37, 95
6, 402720, Note_off_c, 14, 37, 95
6, 402720, Note_on_c, 14, 28, 95
6, 403200, Note_off_c, 14, 28, 95
6, 403200, Note_on_c, 14, 35, 95
6, 403680, Note_off_c, 14, 35, 95
6, 403680, Note_on_c, 14, 35, 95
6, 404160, Note_off_c, 14, 35, 95
6, 404160, Note_on_c, 14, 35, 95
6, 404880, Note_off_c, 14, 35, 95
6, 404880, Note_on_c, 14, 35, 95
6, 405120, Note_off_c, 14, 35, 95
6, 405120, Note_on_c, 14, 35, 95
6, 405600, Note_off_c, 14, 35, 95
6, 405600, Note_on_c, 14, 35, 95
6, 406080, Note_off_c, 14, 35, 95
6, 406080, Note_on_c, 14, 35, 95
6, 406560, Note_off_c, 14, 35, 95
6, 406560, Note_on_c, 14, 28, 95
6, 407040, Note_off_c, 14, 28, 95
6, 407040, Note_on_c, 14, 33, 95
6, 407520, Note_off_c, 14, 33, 95
6, 407520, Note_on_c, 14, 33, 95
6, 408000, Note_off_c, 14, 33, 95
6, 408000, Note_on_c, 14, 33, 95
6, 408720, Note_off_c, 14, 33, 95
6, 408720, Note_on_c, 14, 33, 95
6, 408960, Note_off_c, 14, 33, 95
6, 408960, Note_on_c, 14, 33, 95
6, 409440, Note_off_c, 14, 33, 95
6, 409440, Note_on_c, 14, 33, 95
6, 409920, Note_off_c, 14, 33, 95
6, 409920, Note_on_c, 14, 33, 95
6, 410400, Note_off_c, 14, 33, 95
6, 410400, Note_on_c, 14, 28, 95
6, 410880, Note_off_c, 14, 28, 95
6, 410880, Note_on_c, 14, 40, 95
6, 411360, Note_off_c, 14, 40, 95
6, 411360, Note_on_c, 14, 33, 95
6, 411840, Note_off_c, 14, 33, 95
6, 411840, Note_on_c, 14, 40, 95
6, 412320, Note_off_c, 14, 40, 95
6, 412320, Note_on_c, 14, 33, 95
6, 412800, Note_off_c, 14, 33, 95
6, 412800, Note_on_c, 14, 40, 95
6, 413280, Note_off_c, 14, 40, 95
6, 413280, Note_on_c, 14, 35, 95
6, 413760, Note_off_c, 14, 35, 95
6, 413760, Note_on_c, 14, 40, 95
6, 414240, Note_off_c, 14, 40, 95
6, 414240, Note_on_c, 14, 35, 95
6, 414720, Note_off_c, 14, 35, 95
6, 414720, Note_on_c, 14, 37, 95
6, 415680, Note_off_c, 14, 37, 95
6, 415680, Note_on_c, 14, 37, 95
6, 416400, Note_off_c, 14, 37, 95
6, 416400, Note_on_c, 14, 37, 95
6, 416640, Note_off_c, 14, 37, 95
6, 416640, Note_on_c, 14, 37, 95
6, 417120, Note_off_c, 14, 37, 95
6, 417120, Note_on_c, 14, 37, 95
6, 417600, Note_off_c, 14, 37, 95
6, 417600, Note_on_c, 14, 37, 95
6, 418080, Note_off_c, 14, 37, 95
6, 418080, Note_on_c, 14, 28, 95
6, 418560, Note_off_c, 14, 28, 95
6, 418560, Note_on_c, 14, 35, 95
6, 419040, Note_off_c, 14, 35, 95
6, 419040, Note_on_c, 14, 35, 95
6, 419520, Note_off_c, 14, 35, 95
6, 419520, Note_on_c, 14, 35, 95
6, 420240, Note_off_c, 14, 35, 95
6, 420240, Note_on_c, 14, 35, 95
6, 420480, Note_off_c, 14, 35, 95
6, 420480, Note_on_c, 14, 35, 95
6, 420960, Note_off_c, 14, 35, 95
6, 420960, Note_on_c, 14, 35, 95
6, 421440, Note_off_c, 14, 35, 95
6, 421440, Note_on_c, 14, 35, 95
6, 421920, Note_off_c, 14, 35, 95
6, 421920, Note_on_c, 14, 28, 95
6, 422400, Note_off_c, 14, 28, 95
6, 422400, Note_on_c, 14, 33, 95
6, 422880, Note_off_c, 14, 33, 95
6, 422880, Note_on_c, 14, 33, 95
6, 423360, Note_off_c, 14, 33, 95
6, 423360, Note_on_c, 14, 33, 95
6, 424080, Note_off_c, 14, 33, 95
6, 424080, Note_on_c, 14, 33, 95
6, 424320, Note_off_c, 14, 33, 95
6, 424320, Note_on_c, 14, 33, 95
6, 424800, Note_off_c, 14, 33, 95
6, 424800, Note_on_c, 14, 33, 95
6, 425280, Note_off_c, 14, 33, 95
6, 425280, Note_on_c, 14, 33, 95
6, 425760, Note_off_c, 14, 33, 95
6, 425760, Note_on_c, 14, 33, 95
6, 426240, Note_off_c, 14, 33, 95
6, 426240, Note_on_c, 14, 40, 95
6, 426720, Note_off_c, 14, 40, 95
6, 426720, Note_on_c, 14, 33, 95
6, 427200, Note_off_c, 14, 33, 95
6, 427200, Note_on_c, 14, 40, 95
6, 427680, Note_off_c, 14, 40, 95
6, 427680, Note_on_c, 14, 33, 95
6, 428160, Note_off_c, 14, 33, 95
6, 428160, Note_on_c, 14, 40, 95
6, 428640, Note_off_c, 14, 40, 95
6, 428640, Note_on_c, 14, 35, 95
6, 429120, Note_off_c, 14, 35, 95
6, 429120, Note_on_c, 14, 40, 95
6, 429600, Note_off_c, 14, 40, 95
6, 429600, Note_on_c, 14, 35, 95
6, 430080, Note_off_c, 14, 35, 95
6, 430080, Note_on_c, 14, 37, 95
6, 431040, Note_off_c, 14, 37, 95
6, 431040, Note_on_c, 14, 37, 95
6, 431760, Note_off_c, 14, 37, 95
6, 431760, Note_on_c, 14, 37, 95
6, 432000, Note_off_c, 14, 37, 95
6, 432000, Note_on_c, 14, 37, 95
6, 432480, Note_off_c, 14, 37, 95
6, 432480, Note_on_c, 14, 37, 95
6, 432960, Note_off_c, 14, 37, 95
6, 432960, Note_on_c, 14, 37, 95
6, 433440, Note_off_c, 14, 37, 95
6, 433440, Note_on_c, 14, 28, 95
6, 433920, Note_off_c, 14, 28, 95
6, 433920, Note_on_c, 14, 35, 95
6, 434400, Note_off_c, 14, 35, 95
6, 434400, Note_on_c, 14, 35, 95
6, 434880, Note_off_c, 14, 35, 95
6, 434880, Note_on_c, 14, 35, 95
6, 435600, Note_off_c, 14, 35, 95
6, 435600, Note_on_c, 14, 35, 95
6, 435840, Note_off_c, 14, 35, 95
6, 435840, Note_on_c, 14, 35, 95
6, 436320, Note_off_c, 14, 35, 95
6, 436320, Note_on_c, 14, 35, 95
6, 436800, Note_off_c, 14, 35, 95
6, 436800, Note_on_c, 14, 35, 95
6, 437280, Note_off_c, 14, 35, 95
6, 437280, Note_on_c, 14, 28, 95
6, 437760, Note_off_c, 14, 28, 95
6, 437760, Note_on_c, 14, 33, 95
6, 438240, Note_off_c, 14, 33, 95
6, 438240, Note_on_c, 14, 33, 95
6, 438720, Note_off_c, 14, 33, 95
6, 438720, Note_on_c, 14, 33, 95
6, 439440, Note_off_c, 14, 33, 95
6, 439440, Note_on_c, 14, 33, 95
6, 439680, Note_off_c, 14, 33, 95
6, 439680, Note_on_c, 14, 33, 95
6, 440160, Note_off_c, 14, 33, 95
6, 440160, Note_on_c, 14, 33, 95
6, 440640, Note_off_c, 14, 33, 95
6, 440640, Note_on_c, 14, 33, 95
6, 441120, Note_off_c, 14, 33, 95
6, 441120, Note_on_c, 14, 33, 95
6, 441600, Note_off_c, 14, 33, 95
6, 441600, Note_on_c, 14, 40, 95
6, 442080, Note_off_c, 14, 40, 95
6, 442080, Note_on_c, 14, 33, 95
6, 442560, Note_off_c, 14, 33, 95
6, 442560, Note_on_c, 14, 40, 95
6, 443040, Note_off_c, 14, 40, 95
6, 443040, Note_on_c, 14, 33, 95
6, 443520, Note_off_c, 14, 33, 95
6, 443520, Note_on_c, 14, 40, 95
6, 444000, Note_off_c, 14, 40, 95
6, 444000, Note_on_c, 14, 35, 95
6, 444480, Note_off_c, 14, 35, 95
6, 444480, Note_on_c, 14, 40, 95
6, 444960, Note_off_c, 14, 40, 95
6, 444960, Note_on_c, 14, 35, 95
6, 445440, Note_off_c, 14, 35, 95
6, 445440, Note_on_c, 14, 37, 95
6, 446400, Note_off_c, 14, 37, 95
6, 446400, Note_on_c, 14, 37, 95
6, 447120, Note_off_c, 14, 37, 95
6, 447120, Note_on_c, 14, 37, 95
6, 447360, Note_off_c, 14, 37, 95
6, 447360, Note_on_c, 14, 37, 95
6, 447840, Note_off_c, 14, 37, 95
6, 447840, Note_on_c, 14, 37, 95
6, 448320, Note_off_c, 14, 37, 95
6, 448320, Note_on_c, 14, 37, 95
6, 448800, Note_off_c, 14, 37, 95
6, 448800, Note_on_c, 14, 28, 95
6, 449280, Note_off_c, 14, 28, 95
6, 449280, Note_on_c, 14, 35, 95
6, 449760, Note_off_c, 14, 35, 95
6, 449760, Note_on_c, 14, 35, 95
6, 450240, Note_off_c, 14, 35, 95
6, 450240, Note_on_c, 14, 35, 95
6, 450960, Note_off_c, 14, 35, 95
6, 450960, Note_on_c, 14, 35, 95
6, 451200, Note_off_c, 14, 35, 95
6, 451200, Note_on_c, 14, 35, 95
6, 451680, Note_off_c, 14, 35, 95
6, 451680, Note_on_c, 14, 35, 95
6, 452160, Note_off_c, 14, 35, 95
6, 452160, Note_on_c, 14, 35, 95
6, 452640, Note_off_c, 14, 35, 95
6, 452640, Note_on_c, 14, 28, 95
6, 453120, Note_off_c, 14, 28, 95
6, 453120, Note_on_c, 14, 33, 95
6, 453600, Note_off_c, 14, 33, 95
6, 453600, Note_on_c, 14, 33, 95
6, 454080, Note_off_c, 14, 33, 95
6, 454080, Note_on_c, 14, 33, 95
6, 454800, Note_off_c, 14, 33, 95
6, 454800, Note_on_c, 14, 33, 95
6, 455040, Note_off_c, 14, 33, 95
6, 455040, Note_on_c, 14, 33, 95
6, 455520, Note_off_c, 14, 33, 95
6, 455520, Note_on_c, 14, 33, 95
6, 456000, Note_off_c, 14, 33, 95
6, 456000, Note_on_c, 14, 33, 95
6, 456480, Note_off_c, 14, 33, 95
6, 456480, Note_on_c, 14, 33, 95
6, 456960, Note_off_c, 14, 33, 95
6, 456960, Note_on_c, 14, 40, 95
6, 457440, Note_off_c, 14, 40, 95
6, 457440, Note_on_c, 14, 33, 95
6, 457920, Note_off_c, 14, 33, 95
6, 457920, Note_on_c, 14, 40, 95
6, 458400, Note_off_c, 14, 40, 95
6, 458400, Note_on_c, 14, 33, 95
6, 458880, Note_off_c, 14, 33, 95
6, 458880, Note_on_c, 14, 40, 95
6, 459360, Note_off_c, 14, 40, 95
6, 459360, Note_on_c, 14, 35, 95
6, 459840, Note_off_c, 14, 35, 95
6, 459840, Note_on_c, 14, 40, 95
6, 460320, Note_off_c, 14, 40, 95
6, 460320, Note_on_c, 14, 35, 95
6, 460800, Note_off_c, 14, 35, 95
6, 460800, Note_on_c, 14, 37, 95
6, 461760, Note_off_c, 14, 37, 95
6, 461760, Note_on_c, 14, 37, 95
6, 462480, Note_off_c, 14, 37, 95
6, 462480, Note_on_c, 14, 37, 95
6, 462720, Note_off_c, 14, 37, 95
6, 462720, Note_on_c, 14, 37, 95
6, 463200, Note_off_c, 14, 37, 95
6, 463200, Note_on_c, 14, 37, 95
6, 463680, Note_off_c, 14, 37, 95
6, 463680, Note_on_c, 14, 37, 95
6, 464160, Note_off_c, 14, 37, 95
6, 464160, Note_on_c, 14, 28, 95
6, 464640, Note_off_c, 14, 28, 95
6, 464640, Note_on_c, 14, 35, 95
6, 465120, Note_off_c, 14, 35, 95
6, 465120, Note_on_c, 14, 35, 95
6, 465600, Note_off_c, 14, 35, 95
6, 465600, Note_on_c, 14, 35, 95
6, 466320, Note_off_c, 14, 35, 95
6, 466320, Note_on_c, 14, 35, 95
6, 466560, Note_off_c, 14, 35, 95
6, 466560, Note_on_c, 14, 35, 95
6, 467040, Note_off_c, 14, 35, 95
6, 467040, Note_on_c, 14, 35, 95
6, 467520, Note_off_c, 14, 35, 95
6, 467520, Note_on_c, 14, 35, 95
6, 468000, Note_off_c, 14, 35, 95
6, 468000, Note_on_c, 14, 28, 95
6, 468480, Note_off_c, 14, 28, 95
6, 468480, Note_on_c, 14, 33, 95
6, 468960, Note_off_c, 14, 33, 95
6, 468960, Note_on_c, 14, 33, 95
6, 469440, Note_off_c, 14, 33, 95
6, 469440, Note_on_c, 14, 33, 95
6, 470160, Note_off_c, 14, 33, 95
6, 470160, Note_on_c, 14, 33, 95
6, 470400, Note_off_c, 14, 33, 95
6, 470400, Note_on_c, 14, 33, 95
6, 470880, Note_off_c, 14, 33, 95
6, 470880, Note_on_c, 14, 33, 95
6, 471360, Note_off_c, 14, 33, 95
6, 471360, Note_on_c, 14, 33, 95
6, 471840, Note_off_c, 14, 33, 95
6, 471840, Note_on_c, 14, 33, 95
6, 472320, Note_off_c, 14, 33, 95
6, 472320, Note_on_c, 14, 40, 95
6, 472800, Note_off_c, 14, 40, 95
6, 472800, Note_on_c, 14, 33, 95
6, 473280, Note_off_c, 14, 33, 95
6, 473280, Note_on_c, 14, 40, 95
6, 473760, Note_off_c, 14, 40, 95
6, 473760, Note_on_c, 14, 33, 95
6, 474240, Note_off_c, 14, 33, 95
6, 474240, Note_on_c, 14, 40, 95
6, 474720, Note_off_c, 14, 40, 95
6, 474720, Note_on_c, 14, 35, 95
6, 475200, Note_off_c, 14, 35, 95
6, 475200, Note_on_c, 14, 40, 95
6, 475680, Note_off_c, 14, 40, 95
6, 475680, Note_on_c, 14, 35, 95
6, 476160, Note_off_c, 14, 35, 95
6, 476160, Note_on_c, 14, 37, 95
6, 477120, Note_off_c, 14, 37, 95
6, 477120, Note_on_c, 14, 37, 95
6, 477840, Note_off_c, 14, 37, 95
6, 477840, Note_on_c, 14, 37, 95
6, 478080, Note_off_c, 14, 37, 95
6, 478080, Note_on_c, 14, 37, 95
6, 478560, Note_off_c, 14, 37, 95
6, 478560, Note_on_c, 14, 37, 95
6, 479040, Note_off_c, 14, 37, 95
6, 479040, Note_on_c, 14, 37, 95
6, 479520, Note_off_c, 14, 37, 95
6, 479520, Note_on_c, 14, 28, 95
6, 480000, Note_off_c, 14, 28, 95
6, 480000, Note_on_c, 14, 35, 95
6, 480480, Note_off_c, 14, 35, 95
6, 480480, Note_on_c, 14, 35, 95
6, 480960, Note_off_c, 14, 35, 95
6, 480960, Note_on_c, 14, 35, 95
6, 481680, Note_off_c, 14, 35, 95
6, 481680, Note_on_c, 14, 35, 95
6, 481920, Note_off_c, 14, 35, 95
6, 481920, Note_on_c, 14, 35, 95
6, 482400, Note_off_c, 14, 35, 95
6, 482400, Note_on_c, 14, 35, 95
6, 482880, Note_off_c, 14, 35, 95
6, 482880, Note_on_c, 14, 35, 95
6, 483360, Note_off_c, 14, 35, 95
6, 483360, Note_on_c, 14, 28, 95
6, 483840, Note_off_c, 14, 28, 95
6, 483840, Note_on_c, 14, 33, 95
6, 484320, Note_off_c, 14, 33, 95
6, 484320, Note_on_c, 14, 33, 95
6, 484800, Note_off_c, 14, 33, 95
6, 484800, Note_on_c, 14, 33, 95
6, 485520, Note_off_c, 14, 33, 95
6, 485520, Note_on_c, 14, 33, 95
6, 485760, Note_off_c, 14, 33, 95
6, 485760, Note_on_c, 14, 33, 95
6, 486240, Note_off_c, 14, 33, 95
6, 486240, Note_on_c, 14, 33, 95
6, 486720, Note_off_c, 14, 33, 95
6, 486720, Note_on_c, 14, 33, 95
6, 487200, Note_off_c, 14, 33, 95
6, 487200, Note_on_c, 14, 33, 95
6, 487680, Note_off_c, 14, 33, 95
6, 487680, Note_on_c, 14, 40, 95
6, 488160, Note_off_c, 14, 40, 95
6, 488160, Note_on_c, 14, 33, 95
6, 488640, Note_off_c, 14, 33, 95
6, 488640, Note_on_c, 14, 40, 95
6, 489120, Note_off_c, 14, 40, 95
6, 489120, Note_on_c, 14, 33, 95
6, 489600, Note_off_c, 14, 33, 95
6, 489600, Note_on_c, 14, 40, 95
6, 490080, Note_off_c, 14, 40, 95
6, 490080, Note_on_c, 14, 35, 95
6, 490560, Note_off_c, 14, 35, 95
6, 490560, Note_on_c, 14, 40, 95
6, 491040, Note_off_c, 14, 40, 95
6, 491040, Note_on_c, 14, 35, 95
6, 491520, Note_off_c, 14, 35, 95
6, 491520, Note_on_c, 14, 37, 95
6, 492480, Note_off_c, 14, 37, 95
6, 492480, Note_on_c, 14, 37, 95
6, 493200, Note_off_c, 14, 37, 95
6, 493200, Note_on_c, 14, 37, 95
6, 493440, Note_off_c, 14, 37, 95
6, 493440, Note_on_c, 14, 37, 95
6, 493920, Note_off_c, 14, 37, 95
6, 493920, Note_on_c, 14, 37, 95
6, 494400, Note_off_c, 14, 37, 95
6, 494400, Note_on_c, 14, 37, 95
6, 494880, Note_off_c, 14, 37, 95
6, 494880, Note_on_c, 14, 28, 95
6, 495360, Note_off_c, 14, 28, 95
6, 495360, Note_on_c, 14, 35, 95
6, 495840, Note_off_c, 14, 35, 95
6, 495840, Note_on_c, 14, 35, 95
6, 496320, Note_off_c, 14, 35, 95
6, 496320, Note_on_c, 14, 35, 95
6, 497040, Note_off_c, 14, 35, 95
6, 497040, Note_on_c, 14, 35, 95
6, 497280, Note_off_c, 14, 35, 95
6, 497280, Note_on_c, 14, 35, 95
6, 497760, Note_off_c, 14, 35, 95
6, 497760, Note_on_c, 14, 35, 95
6, 498240, Note_off_c, 14, 35, 95
6, 498240, Note_on_c, 14, 35, 95
6, 498720, Note_off_c, 14, 35, 95
6, 498720, Note_on_c, 14, 28, 95
6, 499200, Note_off_c, 14, 28, 95
6, 499200, Note_on_c, 14, 33, 95
6, 499680, Note_off_c, 14, 33, 95
6, 499680, Note_on_c, 14, 33, 95
6, 500160, Note_off_c, 14, 33, 95
6, 500160, Note_on_c, 14, 33, 95
6, 500880, Note_off_c, 14, 33, 95
6, 500880, Note_on_c, 14, 33, 95
6, 501120, Note_off_c, 14, 33, 95
6, 501120, Note_on_c, 14, 33, 95
6, 501600, Note_off_c, 14, 33, 95
6, 501600, Note_on_c, 14, 33, 95
6, 502080, Note_off_c, 14, 33, 95
6, 502080, Note_on_c, 14, 33, 95
6, 502560, Note_off_c, 14, 33, 95
6, 502560, Note_on_c, 14, 33, 95
6, 503040, Note_off_c, 14, 33, 95
6, 503040, Note_on_c, 14, 40, 95
6, 503520, Note_off_c, 14, 40, 95
6, 503520, Note_on_c, 14, 33, 95
6, 504000, Note_off_c, 14, 33, 95
6, 504000, Note_on_c, 14, 40, 95
6, 504480, Note_off_c, 14, 40, 95
6, 504480, Note_on_c, 14, 33, 95
6, 504960, Note_off_c, 14, 33, 95
6, 504960, Note_on_c, 14, 40, 95
6, 505440, Note_off_c, 14, 40, 95
6, 505440, Note_on_c, 14, 35, 95
6, 505920, Note_off_c, 14, 35, 95
6, 505920, Note_on_c, 14, 40, 95
6, 506400, Note_off_c, 14, 40, 95
6, 506400, Note_on_c, 14, 35, 95
6, 506880, Note_off_c, 14, 35, 95
6, 506880, Note_on_c, 14, 37, 95
6, 507840, Note_off_c, 14, 37, 95
6, 507840, Note_on_c, 14, 37, 95
6, 508560, Note_off_c, 14, 37, 95
6, 508560, Note_on_c, 14, 37, 95
6, 508800, Note_off_c, 14, 37, 95
6, 508800, Note_on_c, 14, 37, 95
6, 509280, Note_off_c, 14, 37, 95
6, 509280, Note_on_c, 14, 37, 95
6, 509760, Note_off_c, 14, 37, 95
6, 509760, Note_on_c, 14, 37, 95
6, 510240, Note_off_c, 14, 37, 95
6, 510240, Note_on_c, 14, 28, 95
6, 510720, Note_off_c, 14, 28, 95
6, 510720, Note_on_c, 14, 35, 95
6, 511200, Note_off_c, 14, 35, 95
6, 511200, Note_on_c, 14, 35, 95
6, 511680, Note_off_c, 14, 35, 95
6, 511680, Note_on_c, 14, 35, 95
6, 512400, Note_off_c, 14, 35, 95
6, 512400, Note_on_c, 14, 35, 95
6, 512640, Note_off_c, 14, 35, 95
6, 512640, Note_on_c, 14, 35, 95
6, 513120, Note_off_c, 14, 35, 95
6, 513120, Note_on_c, 14, 35, 95
6, 513600, Note_off_c, 14, 35, 95
6, 513600, Note_on_c, 14, 35, 95
6, 514080, Note_off_c, 14, 35, 95
6, 514080, Note_on_c, 14, 28, 95
6, 514560, Note_off_c, 14, 28, 95
6, 514560, Note_on_c, 14, 33, 95
6, 515040, Note_off_c, 14, 33, 95
6, 515040, Note_on_c, 14, 33, 95
6, 515520, Note_off_c, 14, 33, 95
6, 515520, Note_on_c, 14, 33, 95
6, 516240, Note_off_c, 14, 33, 95
6, 516240, Note_on_c, 14, 33, 95
6, 516480, Note_off_c, 14, 33, 95
6, 516480, Note_on_c, 14, 33, 95
6, 516960, Note_off_c, 14, 33, 95
6, 516960, Note_on_c, 14, 33, 95
6, 517440, Note_off_c, 14, 33, 95
6, 517440, Note_on_c, 14, 33, 95
6, 517920, Note_off_c, 14, 33, 95
6, 517920, Note_on_c, 14, 33, 95
6, 518400, Note_off_c, 14, 33, 95
6, 518400, Note_on_c, 14, 40, 95
6, 518880, Note_off_c, 14, 40, 95
6, 518880, Note_on_c, 14, 33, 95
6, 519360, Note_off_c, 14, 33, 95
6, 519360, Note_on_c, 14, 40, 95
6, 519840, Note_off_c, 14, 40, 95
6, 519840, Note_on_c, 14, 33, 95
6, 520320, Note_off_c, 14, 33, 95
6, 520320, Note_on_c, 14, 40, 95
6, 520800, Note_off_c, 14, 40, 95
6, 520800, Note_on_c, 14, 35, 95
6, 521280, Note_off_c, 14, 35, 95
6, 521280, Note_on_c, 14, 40, 95
6, 521760, Note_off_c, 14, 40, 95
6, 521760, Note_on_c, 14, 35, 95
6, 522240, Note_off_c, 14, 35, 95
6, 522240, Note_on_c, 14, 37, 95
6, 523200, Note_off_c, 14, 37, 95
6, 523200, Note_on_c, 14, 37, 95
6, 523920, Note_off_c, 14, 37, 95
6, 523920, Note_on_c, 14, 37, 95
6, 524160, Note_off_c, 14, 37, 95
6, 524160, Note_on_c, 14, 37, 95
6, 524640, Note_off_c, 14, 37, 95
6, 524640, Note_on_c, 14, 37, 95
6, 525120, Note_off_c, 14, 37, 95
6, 525120, Note_on_c, 14, 37, 95
6, 525600, Note_off_c, 14, 37, 95
6, 525600, Note_on_c, 14, 28, 95
6, 526080, Note_off_c, 14, 28, 95
6, 526080, Note_on_c, 14, 35, 95
6, 526560, Note_off_c, 14, 35, 95
6, 526560, Note_on_c, 14, 35, 95
6, 527040, Note_off_c, 14, 35, 95
6, 527040, Note_on_c, 14, 35, 95
6, 527760, Note_off_c, 14, 35, 95
6, 527760, Note_on_c, 14, 35, 95
6, 528000, Note_off_c, 14, 35, 95
6, 528000, Note_on_c, 14, 35, 95
6, 528480, Note_off_c, 14, 35, 95
6, 528480, Note_on_c, 14, 35, 95
6, 528960, Note_off_c, 14, 35, 95
6, 528960, Note_on_c, 14, 35, 95
6, 529440, Note_off_c, 14, 35, 95
6, 529440, Note_on_c, 14, 28, 95
6, 529920, Note_off_c, 14, 28, 95
6, 529920, Note_on_c, 14, 33, 95
6, 530400, Note_off_c, 14, 33, 95
6, 530400, Note_on_c, 14, 33, 95
6, 530880, Note_off_c, 14, 33, 95
6, 530880, Note_on_c, 14, 33, 95
6, 531600, Note_off_c, 14, 33, 95
6, 531600, Note_on_c, 14, 33, 95
6, 531840, Note_off_c, 14, 33, 95
6, 531840, Note_on_c, 14, 33, 95
6, 532320, Note_off_c, 14, 33, 95
6, 532320, Note_on_c, 14, 33, 95
6, 532800, Note_off_c, 14, 33, 95
6, 532800, Note_on_c, 14, 33, 95
6, 533280, Note_off_c, 14, 33, 95
6, 533280, Note_on_c, 14, 33, 95
6, 533760, Note_off_c, 14, 33, 95
6, 533760, Note_on_c, 14, 40, 95
6, 534240, Note_off_c, 14, 40, 95
6, 534240, Note_on_c, 14, 33, 95
6, 534720, Note_off_c, 14, 33, 95
6, 534720, Note_on_c, 14, 40, 95
6, 535200, Note_off_c, 14, 40, 95
6, 535200, Note_on_c, 14, 33, 95
6, 535680, Note_off_c, 14, 33, 95
6, 535680, Note_on_c, 14, 40, 95
6, 536160, Note_off_c, 14, 40, 95
6, 536160, Note_on_c, 14, 35, 95
6, 536640, Note_off_c, 14, 35, 95
6, 536640, Note_on_c, 14, 40, 95
6, 537120, Note_off_c, 14, 40, 95
6, 537120, Note_on_c, 14, 35, 95
6, 537600, Note_off_c, 14, 35, 95
6, 537600, Note_on_c, 14, 37, 95
6, 538560, Note_off_c, 14, 37, 95
6, 538560, Note_on_c, 14, 37, 95
6, 539280, Note_off_c, 14, 37, 95
6, 539280, Note_on_c, 14, 37, 95
6, 539520, Note_off_c, 14, 37, 95
6, 539520, Note_on_c, 14, 37, 95
6, 540000, Note_off_c, 14, 37, 95
6, 540000, Note_on_c, 14, 37, 95
6, 540480, Note_off_c, 14, 37, 95
6, 540480, Note_on_c, 14, 37, 95
6, 540960, Note_off_c, 14, 37, 95
6, 540960, Note_on_c, 14, 28, 95
6, 541440, Note_off_c, 14, 28, 95
6, 541440, Note_on_c, 14, 35, 95
6, 541920, Note_off_c, 14, 35, 95
6, 541920, Note_on_c, 14, 35, 95
6, 542400, Note_off_c, 14, 35, 95
6, 542400, Note_on_c, 14, 35, 95
6, 543120, Note_off_c, 14, 35, 95
6, 543120, Note_on_c, 14, 35, 95
6, 543360, Note_off_c, 14, 35, 95
6, 543360, Note_on_c, 14, 35, 95
6, 543840, Note_off_c, 14, 35, 95
6, 543840, Note_on_c, 14, 35, 95
6, 544320, Note_off_c, 14, 35, 95
6, 544320, Note_on_c, 14, 35, 95
6, 544800, Note_off_c, 14, 35, 95
6, 544800, Note_on_c, 14, 28, 95
6, 545280, Note_off_c, 14, 28, 95
6, 545280, Note_on_c, 14, 33, 95
6, 545760, Note_off_c, 14, 33, 95
6, 545760, Note_on_c, 14, 33, 95
6, 546240, Note_off_c, 14, 33, 95
6, 546240, Note_on_c, 14, 33, 95
6, 546960, Note_off_c, 14, 33, 95
6, 546960, Note_on_c, 14, 33, 95
6, 547200, Note_off_c, 14, 33, 95
6, 547200, Note_on_c, 14, 33, 95
6, 547680, Note_off_c, 14, 33, 95
6, 547680, Note_on_c, 14, 33, 95
6, 548160, Note_off_c, 14, 33, 95
6, 548160, Note_on_c, 14, 33, 95
6, 548640, Note_off_c, 14, 33, 95
6, 548640, Note_on_c, 14, 33, 95
6, 549120, Note_off_c, 14, 33, 95
6, 549120, Note_on_c, 14, 40, 95
6, 549600, Note_off_c, 14, 40, 95
6, 549600, Note_on_c, 14, 33, 95
6, 550080, Note_off_c, 14, 33, 95
6, 550080, Note_on_c, 14, 40, 95
6, 550560, Note_off_c, 14, 40, 95
6, 550560, Note_on_c, 14, 33, 95
6, 551040, Note_off_c, 14, 33, 95
6, 551040, Note_on_c, 14, 40, 95
6, 551520, Note_off_c, 14, 40, 95
6, 551520, Note_on_c, 14, 35, 95
6, 552000, Note_off_c, 14, 35, 95
6, 552000, Note_on_c, 14, 40, 95
6, 552480, Note_off_c, 14, 40, 95
6, 552480, Note_on_c, 14, 35, 95
6, 552960, Note_off_c, 14, 35, 95
6, 552960, Note_on_c, 14, 37, 95
6, 556800, Note_off_c, 14, 37, 95
6, 556800, End_track
7, 0, Start_track
7, 0, Pitch_bend_c, 9, 8192
7, 0, Control_c, 9, 7, 119
7, 0, Control_c, 9, 10, 63
7, 0, Control_c, 9, 93, 0
7, 0, Control_c, 9, 91, 0
7, 0, Control_c, 9, 95, 0
7, 0, Control_c, 9, 92, 0
7, 0, Control_c, 9, 11, 127
7, 0, Program_c, 9, 0
7, 13440, Note_on_c, 9, 65, 95
7, 14400, Note_off_c, 9, 65, 95
7, 14400, Note_on_c, 9, 66, 95
7, 15360, Note_off_c, 9, 66, 95
7, 15360, Note_on_c, 9, 74, 95
7, 15360, Note_on_c, 9, 36, 95
7, 16320, Note_off_c, 9, 74, 95
7, 16320, Note_off_c, 9, 36, 95
7, 16320, Note_on_c, 9, 38, 95
7, 16800, Note_off_c, 9, 38, 95
7, 16800, Note_on_c, 9, 69, 95
7, 17280, Note_off_c, 9, 69, 95
7, 17280, Note_on_c, 9, 74, 95
7, 17760, Note_off_c, 9, 74, 95
7, 17760, Note_on_c, 9, 38, 95
7, 18240, Note_off_c, 9, 38, 95
7, 18720, Note_on_c, 9, 69, 95
7, 18720, Note_on_c, 9, 38, 95
7, 19200, Note_off_c, 9, 69, 95
7, 19200, Note_off_c, 9, 38, 95
7, 19200, Note_on_c, 9, 74, 95
7, 19200, Note_on_c, 9, 36, 95
7, 20160, Note_off_c, 9, 74, 95
7, 20160, Note_off_c, 9, 36, 95
7, 20160, Note_on_c, 9, 38, 95
7, 20640, Note_off_c, 9, 38, 95
7, 20640, Note_on_c, 9, 69, 95
7, 21120, Note_off_c, 9, 69, 95
7, 21120, Note_on_c, 9, 74, 95
7, 21600, Note_off_c, 9, 74, 95
7, 21600, Note_on_c, 9, 38, 95
7, 22080, Note_off_c, 9, 38, 95
7, 22560, Note_on_c, 9, 69, 95
7, 22560, Note_on_c, 9, 38, 95
7, 23040, Note_off_c, 9, 69, 95
7, 23040, Note_off_c, 9, 38, 95
7, 23040, Note_on_c, 9, 74, 95
7, 23040, Note_on_c, 9, 36, 95
7, 24000, Note_off_c, 9, 74, 95
7, 24000, Note_off_c, 9, 36, 95
7, 24000, Note_on_c, 9, 38, 95
7, 24480, Note_off_c, 9, 38, 95
7, 24480, Note_on_c, 9, 69, 95
7, 24960, Note_off_c, 9, 69, 95
7, 24960, Note_on_c, 9, 74, 95
7, 25440, Note_off_c, 9, 74, 95
7, 25440, Note_on_c, 9, 38, 95
7, 25920, Note_off_c, 9, 38, 95
7, 26400, Note_on_c, 9, 69, 95
7, 26400, Note_on_c, 9, 38, 95
7, 26880, Note_off_c, 9, 69, 95
7, 26880, Note_off_c, 9, 38, 95
7, 26880, Note_on_c, 9, 74, 95
7, 26880, Note_on_c, 9, 36, 95
7, 27840, Note_off_c, 9, 74, 95
7, 27840, Note_off_c, 9, 36, 95
7, 27840, Note_on_c, 9, 38, 95
7, 28320, Note_off_c, 9, 38, 95
7, 28320, Note_on_c, 9, 69, 95
7, 28800, Note_off_c, 9, 69, 95
7, 28800, Note_on_c, 9, 74, 95
7, 29280, Note_off_c, 9, 74, 95
7, 29280, Note_on_c, 9, 38, 95
7, 29760, Note_off_c, 9, 38, 95
7, 30240, Note_on_c, 9, 69, 95
7, 30240, Note_on_c, 9, 38, 95
7, 30720, Note_off_c, 9, 69, 95
7, 30720, Note_off_c, 9, 38, 95
7, 30720, Note_on_c, 9, 74, 95
7, 30720, Note_on_c, 9, 36, 95
7, 31680, Note_off_c, 9, 74, 95
7, 31680, Note_off_c, 9, 36, 95
7, 31680, Note_on_c, 9, 38, 95
7, 32160, Note_off_c, 9, 38, 95
7, 32160, Note_on_c, 9, 69, 95
7, 32640, Note_off_c, 9, 69, 95
7, 32640, Note_on_c, 9, 74, 95
7, 33120, Note_off_c, 9, 74, 95
7, 33120, Note_on_c, 9, 38, 95
7, 33600, Note_off_c, 9, 38, 95
7, 34080, Note_on_c, 9, 69, 95
7, 34080, Note_on_c, 9, 38, 95
7, 34560, Note_off_c, 9, 69, 95
7, 34560, Note_off_c, 9, 38, 95
7, 34560, Note_on_c, 9, 74, 95
7, 34560, Note_on_c, 9, 36, 95
7, 35520, Note_off_c, 9, 74, 95
7, 35520, Note_off_c, 9, 36, 95
7, 35520, Note_on_c, 9, 38, 95
7, 36000, Note_off_c, 9, 38, 95
7, 36000, Note_on_c, 9, 69, 95
7, 36480, Note_off_c, 9, 69, 95
7, 36480, Note_on_c, 9, 74, 95
7, 36960, Note_off_c, 9, 74, 95
7, 36960, Note_on_c, 9, 38, 95
7, 37440, Note_off_c, 9, 38, 95
7, 37920, Note_on_c, 9, 69, 95
7, 37920, Note_on_c, 9, 38, 95
7, 38400, Note_off_c, 9, 69, 95
7, 38400, Note_off_c, 9, 38, 95
7, 38400, Note_on_c, 9, 74, 95
7, 38400, Note_on_c, 9, 36, 95
7, 39360, Note_off_c, 9, 74, 95
7, 39360, Note_off_c, 9, 36, 95
7, 39360, Note_on_c, 9, 38, 95
7, 39840, Note_off_c, 9, 38, 95
7, 39840, Note_on_c, 9, 69, 95
7, 40320, Note_off_c, 9, 69, 95
7, 40320, Note_on_c, 9, 74, 95
7, 40800, Note_off_c, 9, 74, 95
7, 40800, Note_on_c, 9, 38, 95
7, 41280, Note_off_c, 9, 38, 95
7, 41760, Note_on_c, 9, 69, 95
7, 41760, Note_on_c, 9, 38, 95
7, 42240, Note_off_c, 9, 69, 95
7, 42240, Note_off_c, 9, 38, 95
7, 42240, Note_on_c, 9, 74, 95
7, 42240, Note_on_c, 9, 36, 95
7, 43200, Note_off_c, 9, 74, 95
7, 43200, Note_off_c, 9, 36, 95
7, 43200, Note_on_c, 9, 38, 95
7, 43680, Note_off_c, 9, 38, 95
7, 43680, Note_on_c, 9, 69, 95
7, 44160, Note_off_c, 9, 69, 95
7, 44160, Note_on_c, 9, 74, 95
7, 44640, Note_off_c, 9, 74, 95
7, 44640, Note_on_c, 9, 38, 95
7, 45120, Note_off_c, 9, 38, 95
7, 45600, Note_on_c, 9, 69, 95
7, 45600, Note_on_c, 9, 38, 95
7, 46080, Note_off_c, 9, 69, 95
7, 46080, Note_off_c, 9, 38, 95
7, 46080, Note_on_c, 9, 74, 95
7, 46080, Note_on_c, 9, 36, 95
7, 47040, Note_off_c, 9, 74, 95
7, 47040, Note_off_c, 9, 36, 95
7, 47040, Note_on_c, 9, 38, 95
7, 47520, Note_off_c, 9, 38, 95
7, 47520, Note_on_c, 9, 69, 95
7, 48000, Note_off_c, 9, 69, 95
7, 48000, Note_on_c, 9, 74, 95
7, 48480, Note_off_c, 9, 74, 95
7, 48480, Note_on_c, 9, 38, 95
7, 48960, Note_off_c, 9, 38, 95
7, 49440, Note_on_c, 9, 69, 95
7, 49440, Note_on_c, 9, 38, 95
7, 49920, Note_off_c, 9, 69, 95
7, 49920, Note_off_c, 9, 38, 95
7, 49920, Note_on_c, 9, 74, 95
7, 49920, Note_on_c, 9, 36, 95
7, 50880, Note_off_c, 9, 74, 95
7, 50880, Note_off_c, 9, 36, 95
7, 50880, Note_on_c, 9, 38, 95
7, 51360, Note_off_c, 9, 38, 95
7, 51360, Note_on_c, 9, 69, 95
7, 51840, Note_off_c, 9, 69, 95
7, 51840, Note_on_c, 9, 74, 95
7, 52320, Note_off_c, 9, 74, 95
7, 52320, Note_on_c, 9, 38, 95
7, 52800, Note_off_c, 9, 38, 95
7, 53280, Note_on_c, 9, 69, 95
7, 53280, Note_on_c, 9, 38, 95
7, 53760, Note_off_c, 9, 69, 95
7, 53760, Note_off_c, 9, 38, 95
7, 53760, Note_on_c, 9, 74, 95
7, 53760, Note_on_c, 9, 36, 95
7, 54720, Note_off_c, 9, 74, 95
7, 54720, Note_off_c, 9, 36, 95
7, 54720, Note_on_c, 9, 38, 95
7, 55200, Note_off_c, 9, 38, 95
7, 55200, Note_on_c, 9, 69, 95
7, 55680, Note_off_c, 9, 69, 95
7, 55680, Note_on_c, 9, 74, 95
7, 56160, Note_off_c, 9, 74, 95
7, 56160, Note_on_c, 9, 38, 95
7, 56640, Note_off_c, 9, 38, 95
7, 57120, Note_on_c, 9, 69, 95
7, 57120, Note_on_c, 9, 38, 95
7, 57600, Note_off_c, 9, 69, 95
7, 57600, Note_off_c, 9, 38, 95
7, 57600, Note_on_c, 9, 36, 95
7, 58080, Note_off_c, 9, 36, 95
7, 58080, Note_on_c, 9, 69, 95
7, 58560, Note_off_c, 9, 69, 95
7, 58560, Note_on_c, 9, 38, 95
7, 59040, Note_off_c, 9, 38, 95
7, 59040, Note_on_c, 9, 69, 95
7, 59520, Note_off_c, 9, 69, 95
7, 60000, Note_on_c, 9, 69, 95
7, 60000, Note_on_c, 9, 38, 95
7, 60480, Note_off_c, 9, 69, 95
7, 60480, Note_off_c, 9, 38, 95
7, 60960, Note_on_c, 9, 69, 95
7, 60960, Note_on_c, 9, 38, 95
7, 61440, Note_off_c, 9, 69, 95
7, 61440, Note_off_c, 9, 38, 95
7, 61440, Note_on_c, 9, 74, 95
7, 61440, Note_on_c, 9, 36, 95
7, 61920, Note_off_c, 9, 74, 95
7, 61920, Note_off_c, 9, 36, 95
7, 62400, Note_on_c, 9, 69, 95
7, 62400, Note_on_c, 9, 38, 95
7, 62880, Note_off_c, 9, 69, 95
7, 62880, Note_off_c, 9, 38, 95
7, 62880, Note_on_c, 9, 69, 95
7, 63360, Note_off_c, 9, 69, 95
7, 63360, Note_on_c, 9, 74, 95
7, 63840, Note_off_c, 9, 74, 95
7, 63840, Note_on_c, 9, 69, 95
7, 63840, Note_on_c, 9, 38, 95
7, 64320, Note_off_c, 9, 69, 95
7, 64320, Note_off_c, 9, 38, 95
7, 64800, Note_on_c, 9, 69, 95
7, 64800, Note_on_c, 9, 38, 95
7, 65280, Note_off_c, 9, 69, 95
7, 65280, Note_off_c, 9, 38, 95
7, 65280, Note_on_c, 9, 74, 95
7, 65280, Note_on_c, 9, 36, 95
7, 65760, Note_off_c, 9, 74, 95
7, 65760, Note_off_c, 9, 36, 95
7, 66240, Note_on_c, 9, 69, 95
7, 66240, Note_on_c, 9, 38, 95
7, 66720, Note_off_c, 9, 69, 95
7, 66720, Note_off_c, 9, 38, 95
7, 66720, Note_on_c, 9, 69, 95
7, 67200, Note_off_c, 9, 69, 95
7, 67200, Note_on_c, 9, 74, 95
7, 67680, Note_off_c, 9, 74, 95
7, 67680, Note_on_c, 9, 69, 95
7, 67680, Note_on_c, 9, 38, 95
7, 68160, Note_off_c, 9, 69, 95
7, 68160, Note_off_c, 9, 38, 95
7, 68640, Note_on_c, 9, 69, 95
7, 68640, Note_on_c, 9, 38, 95
7, 69120, Note_off_c, 9, 69, 95
7, 69120, Note_off_c, 9, 38, 95
7, 69120, Note_on_c, 9, 74, 95
7, 69120, Note_on_c, 9, 36, 95
7, 69600, Note_off_c, 9, 74, 95
7, 69600, Note_off_c, 9, 36, 95
7, 69600, Note_on_c, 9, 69, 95
7, 70080, Note_off_c, 9, 69, 95
7, 70080, Note_on_c, 9, 38, 95
7, 70560, Note_off_c, 9, 38, 95
7, 70560, Note_on_c, 9, 69, 95
7, 71040, Note_off_c, 9, 69, 95
7, 71040, Note_on_c, 9, 74, 95
7, 71520, Note_off_c, 9, 74, 95
7, 71520, Note_on_c, 9, 69, 95
7, 71520, Note_on_c, 9, 38, 95
7, 72000, Note_off_c, 9, 69, 95
7, 72000, Note_off_c, 9, 38, 95
7, 72480, Note_on_c, 9, 69, 95
7, 72480, Note_on_c, 9, 38, 95
7, 72960, Note_off_c, 9, 69, 95
7, 72960, Note_off_c, 9, 38, 95
7, 72960, Note_on_c, 9, 36, 95
7, 73440, Note_off_c, 9, 36, 95
7, 73440, Note_on_c, 9, 69, 95
7, 73920, Note_off_c, 9, 69, 95
7, 73920, Note_on_c, 9, 38, 95
7, 74400, Note_off_c, 9, 38, 95
7, 74400, Note_on_c, 9, 69, 95
7, 74880, Note_off_c, 9, 69, 95
7, 74880, Note_on_c, 9, 38, 95
7, 75360, Note_off_c, 9, 38, 95
7, 75360, Note_on_c, 9, 69, 95
7, 75840, Note_off_c, 9, 69, 95
7, 75840, Note_on_c, 9, 38, 95
7, 76320, Note_off_c, 9, 38, 95
7, 76320, Note_on_c, 9, 69, 95
7, 76800, Note_off_c, 9, 69, 95
7, 76800, Note_on_c, 9, 74, 95
7, 76800, Note_on_c, 9, 46, 95
7, 76800, Note_on_c, 9, 36, 95
7, 77760, Note_off_c, 9, 74, 95
7, 77760, Note_off_c, 9, 46, 95
7, 77760, Note_off_c, 9, 36, 95
7, 77760, Note_on_c, 9, 42, 95
7, 77760, Note_on_c, 9, 38, 95
7, 78240, Note_off_c, 9, 42, 95
7, 78240, Note_off_c, 9, 38, 95
7, 78240, Note_on_c, 9, 69, 95
7, 78240, Note_on_c, 9, 42, 95
7, 78720, Note_off_c, 9, 69, 95
7, 78720, Note_off_c, 9, 42, 95
7, 78720, Note_on_c, 9, 74, 95
7, 78720, Note_on_c, 9, 42, 95
7, 78720, Note_on_c, 9, 36, 95
7, 79200, Note_off_c, 9, 74, 95
7, 79200, Note_off_c, 9, 42, 95
7, 79200, Note_off_c, 9, 36, 95
7, 79200, Note_on_c, 9, 42, 95
7, 79200, Note_on_c, 9, 36, 95
7, 79680, Note_off_c, 9, 42, 95
7, 79680, Note_off_c, 9, 36, 95
7, 79680, Note_on_c, 9, 42, 95
7, 79680, Note_on_c, 9, 38, 95
7, 80160, Note_off_c, 9, 42, 95
7, 80160, Note_off_c, 9, 38, 95
7, 80160, Note_on_c, 9, 69, 95
7, 80160, Note_on_c, 9, 42, 95
7, 80640, Note_off_c, 9, 69, 95
7, 80640, Note_off_c, 9, 42, 95
7, 80640, Note_on_c, 9, 74, 95
7, 80640, Note_on_c, 9, 42, 95
7, 80640, Note_on_c, 9, 36, 95
7, 81120, Note_off_c, 9, 74, 95
7, 81120, Note_off_c, 9, 42, 95
7, 81120, Note_off_c, 9, 36, 95
7, 81120, Note_on_c, 9, 42, 95
7, 81120, Note_on_c, 9, 36, 95
7, 81600, Note_off_c, 9, 42, 95
7, 81600, Note_off_c, 9, 36, 95
7, 81600, Note_on_c, 9, 42, 95
7, 81600, Note_on_c, 9, 38, 95
7, 82080, Note_off_c, 9, 42, 95
7, 82080, Note_off_c, 9, 38, 95
7, 82080, Note_on_c, 9, 69, 95
7, 82080, Note_on_c, 9, 42, 95
7, 82560, Note_off_c, 9, 69, 95
7, 82560, Note_off_c, 9, 42, 95
7, 82560, Note_on_c, 9, 74, 95
7, 82560, Note_on_c, 9, 42, 95
7, 82560, Note_on_c, 9, 36, 95
7, 83040, Note_off_c, 9, 74, 95
7, 83040, Note_off_c, 9, 42, 95
7, 83040, Note_off_c, 9, 36, 95
7, 83040, Note_on_c, 9, 42, 95
7, 83040, Note_on_c, 9, 36, 95
7, 83520, Note_off_c, 9, 42, 95
7, 83520, Note_off_c, 9, 36, 95
7, 83520, Note_on_c, 9, 42, 95
7, 83520, Note_on_c, 9, 38, 95
7, 84000, Note_off_c, 9, 42, 95
7, 84000, Note_off_c, 9, 38, 95
7, 84000, Note_on_c, 9, 69, 95
7, 84000, Note_on_c, 9, 42, 95
7, 84480, Note_off_c, 9, 69, 95
7, 84480, Note_off_c, 9, 42, 95
7, 84480, Note_on_c, 9, 74, 95
7, 84480, Note_on_c, 9, 42, 95
7, 84480, Note_on_c, 9, 36, 95
7, 84960, Note_off_c, 9, 74, 95
7, 84960, Note_off_c, 9, 42, 95
7, 84960, Note_off_c, 9, 36, 95
7, 84960, Note_on_c, 9, 42, 95
7, 84960, Note_on_c, 9, 36, 95
7, 85440, Note_off_c, 9, 42, 95
7, 85440, Note_off_c, 9, 36, 95
7, 85440, Note_on_c, 9, 42, 95
7, 85440, Note_on_c, 9, 38, 95
7, 85920, Note_off_c, 9, 42, 95
7, 85920, Note_off_c, 9, 38, 95
7, 85920, Note_on_c, 9, 69, 95
7, 85920, Note_on_c, 9, 42, 95
7, 86400, Note_off_c, 9, 69, 95
7, 86400, Note_off_c, 9, 42, 95
7, 86400, Note_on_c, 9, 74, 95
7, 86400, Note_on_c, 9, 42, 95
7, 86400, Note_on_c, 9, 36, 95
7, 86880, Note_off_c, 9, 74, 95
7, 86880, Note_off_c, 9, 42, 95
7, 86880, Note_off_c, 9, 36, 95
7, 86880, Note_on_c, 9, 42, 95
7, 86880, Note_on_c, 9, 36, 95
7, 87360, Note_off_c, 9, 42, 95
7, 87360, Note_off_c, 9, 36, 95
7, 87360, Note_on_c, 9, 42, 95
7, 87360, Note_on_c, 9, 38, 95
7, 87840, Note_off_c, 9, 42, 95
7, 87840, Note_off_c, 9, 38, 95
7, 87840, Note_on_c, 9, 69, 95
7, 87840, Note_on_c, 9, 42, 95
7, 88320, Note_off_c, 9, 69, 95
7, 88320, Note_off_c, 9, 42, 95
7, 88320, Note_on_c, 9, 50, 127
7, 88800, Note_off_c, 9, 50, 127
7, 88800, Note_on_c, 9, 69, 95
7, 88800, Note_on_c, 9, 36, 111
7, 89280, Note_off_c, 9, 69, 95
7, 89280, Note_off_c, 9, 36, 111
7, 89280, Note_on_c, 9, 50, 127
7, 89760, Note_off_c, 9, 50, 127
7, 89760, Note_on_c, 9, 69, 95
7, 89760, Note_on_c, 9, 36, 111
7, 90240, Note_off_c, 9, 69, 95
7, 90240, Note_off_c, 9, 36, 111
7, 90240, Note_on_c, 9, 47, 127
7, 90720, Note_off_c, 9, 47, 127
7, 90720, Note_on_c, 9, 69, 95
7, 90720, Note_on_c, 9, 36, 111
7, 91200, Note_off_c, 9, 69, 95
7, 91200, Note_off_c, 9, 36, 111
7, 91200, Note_on_c, 9, 45, 127
7, 91680, Note_off_c, 9, 45, 127
7, 91680, Note_on_c, 9, 69, 95
7, 91680, Note_on_c, 9, 36, 111
7, 92160, Note_off_c, 9, 69, 95
7, 92160, Note_off_c, 9, 36, 111
7, 92160, Note_on_c, 9, 74, 95
7, 92160, Note_on_c, 9, 46, 95
7, 92160, Note_on_c, 9, 36, 95
7, 93120, Note_off_c, 9, 74, 95
7, 93120, Note_off_c, 9, 46, 95
7, 93120, Note_off_c, 9, 36, 95
7, 93120, Note_on_c, 9, 42, 95
7, 93120, Note_on_c, 9, 38, 95
7, 93600, Note_off_c, 9, 42, 95
7, 93600, Note_off_c, 9, 38, 95
7, 93600, Note_on_c, 9, 69, 95
7, 93600, Note_on_c, 9, 42, 95
7, 94080, Note_off_c, 9, 69, 95
7, 94080, Note_off_c, 9, 42, 95
7, 94080, Note_on_c, 9, 74, 95
7, 94080, Note_on_c, 9, 42, 95
7, 94560, Note_off_c, 9, 74, 95
7, 94560, Note_off_c, 9, 42, 95
7, 94560, Note_on_c, 9, 42, 95
7, 94560, Note_on_c, 9, 36, 95
7, 95040, Note_off_c, 9, 42, 95
7, 95040, Note_off_c, 9, 36, 95
7, 95040, Note_on_c, 9, 42, 95
7, 95040, Note_on_c, 9, 38, 95
7, 95520, Note_off_c, 9, 42, 95
7, 95520, Note_off_c, 9, 38, 95
7, 95520, Note_on_c, 9, 69, 95
7, 95520, Note_on_c, 9, 42, 95
7, 95520, Note_on_c, 9, 36, 95
7, 96000, Note_off_c, 9, 69, 95
7, 96000, Note_off_c, 9, 42, 95
7, 96000, Note_off_c, 9, 36, 95
7, 96000, Note_on_c, 9, 74, 95
7, 96000, Note_on_c, 9, 42, 95
7, 96000, Note_on_c, 9, 36, 95
7, 96480, Note_off_c, 9, 74, 95
7, 96480, Note_off_c, 9, 42, 95
7, 96480, Note_off_c, 9, 36, 95
7, 96480, Note_on_c, 9, 42, 95
7, 96480, Note_on_c, 9, 36, 95
7, 96960, Note_off_c, 9, 42, 95
7, 96960, Note_off_c, 9, 36, 95
7, 96960, Note_on_c, 9, 42, 95
7, 96960, Note_on_c, 9, 38, 95
7, 97440, Note_off_c, 9, 42, 95
7, 97440, Note_off_c, 9, 38, 95
7, 97440, Note_on_c, 9, 69, 95
7, 97440, Note_on_c, 9, 42, 95
7, 97920, Note_off_c, 9, 69, 95
7, 97920, Note_off_c, 9, 42, 95
7, 97920, Note_on_c, 9, 74, 95
7, 97920, Note_on_c, 9, 42, 95
7, 97920, Note_on_c, 9, 36, 95
7, 98400, Note_off_c, 9, 74, 95
7, 98400, Note_off_c, 9, 42, 95
7, 98400, Note_off_c, 9, 36, 95
7, 98400, Note_on_c, 9, 42, 95
7, 98400, Note_on_c, 9, 36, 95
7, 98880, Note_off_c, 9, 42, 95
7, 98880, Note_off_c, 9, 36, 95
7, 98880, Note_on_c, 9, 42, 95
7, 98880, Note_on_c, 9, 38, 95
7, 99360, Note_off_c, 9, 42, 95
7, 99360, Note_off_c, 9, 38, 95
7, 99360, Note_on_c, 9, 69, 95
7, 99360, Note_on_c, 9, 42, 95
7, 99840, Note_off_c, 9, 69, 95
7, 99840, Note_off_c, 9, 42, 95
7, 99840, Note_on_c, 9, 74, 95
7, 99840, Note_on_c, 9, 42, 95
7, 99840, Note_on_c, 9, 36, 95
7, 100320, Note_off_c, 9, 74, 95
7, 100320, Note_off_c, 9, 42, 95
7, 100320, Note_off_c, 9, 36, 95
7, 100320, Note_on_c, 9, 42, 95
7, 100320, Note_on_c, 9, 36, 95
7, 100800, Note_off_c, 9, 42, 95
7, 100800, Note_off_c, 9, 36, 95
7, 100800, Note_on_c, 9, 42, 95
7, 100800, Note_on_c, 9, 38, 95
7, 101280, Note_off_c, 9, 42, 95
7, 101280, Note_off_c, 9, 38, 95
7, 101280, Note_on_c, 9, 69, 95
7, 101280, Note_on_c, 9, 42, 95
7, 101760, Note_off_c, 9, 69, 95
7, 101760, Note_off_c, 9, 42, 95
7, 101760, Note_on_c, 9, 74, 95
7, 101760, Note_on_c, 9, 42, 95
7, 101760, Note_on_c, 9, 36, 95
7, 102240, Note_off_c, 9, 74, 95
7, 102240, Note_off_c, 9, 42, 95
7, 102240, Note_off_c, 9, 36, 95
7, 102240, Note_on_c, 9, 42, 95
7, 102240, Note_on_c, 9, 36, 95
7, 102720, Note_off_c, 9, 42, 95
7, 102720, Note_off_c, 9, 36, 95
7, 102720, Note_on_c, 9, 42, 95
7, 102720, Note_on_c, 9, 38, 95
7, 103200, Note_off_c, 9, 42, 95
7, 103200, Note_off_c, 9, 38, 95
7, 103200, Note_on_c, 9, 69, 95
7, 103200, Note_on_c, 9, 42, 95
7, 103680, Note_off_c, 9, 69, 95
7, 103680, Note_off_c, 9, 42, 95
7, 103680, Note_on_c, 9, 74, 95
7, 103680, Note_on_c, 9, 42, 95
7, 103680, Note_on_c, 9, 36, 95
7, 104160, Note_off_c, 9, 74, 95
7, 104160, Note_off_c, 9, 42, 95
7, 104160, Note_off_c, 9, 36, 95
7, 104160, Note_on_c, 9, 42, 95
7, 104160, Note_on_c, 9, 36, 95
7, 104640, Note_off_c, 9, 42, 95
7, 104640, Note_off_c, 9, 36, 95
7, 104640, Note_on_c, 9, 42, 95
7, 104640, Note_on_c, 9, 38, 95
7, 105120, Note_off_c, 9, 42, 95
7, 105120, Note_off_c, 9, 38, 95
7, 105120, Note_on_c, 9, 69, 95
7, 105120, Note_on_c, 9, 42, 95
7, 105600, Note_off_c, 9, 69, 95
7, 105600, Note_off_c, 9, 42, 95
7, 105600, Note_on_c, 9, 74, 95
7, 105600, Note_on_c, 9, 42, 95
7, 105600, Note_on_c, 9, 36, 95
7, 106080, Note_off_c, 9, 74, 95
7, 106080, Note_off_c, 9, 42, 95
7, 106080, Note_off_c, 9, 36, 95
7, 106080, Note_on_c, 9, 42, 95
7, 106080, Note_on_c, 9, 36, 95
7, 106560, Note_off_c, 9, 42, 95
7, 106560, Note_off_c, 9, 36, 95
7, 106560, Note_on_c, 9, 42, 95
7, 106560, Note_on_c, 9, 38, 95
7, 107040, Note_off_c, 9, 42, 95
7, 107040, Note_off_c, 9, 38, 95
7, 107040, Note_on_c, 9, 69, 95
7, 107040, Note_on_c, 9, 42, 95
7, 107520, Note_off_c, 9, 69, 95
7, 107520, Note_off_c, 9, 42, 95
7, 107520, Note_on_c, 9, 74, 95
7, 107520, Note_on_c, 9, 42, 95
7, 107520, Note_on_c, 9, 36, 95
7, 108000, Note_off_c, 9, 74, 95
7, 108000, Note_off_c, 9, 42, 95
7, 108000, Note_off_c, 9, 36, 95
7, 108000, Note_on_c, 9, 42, 95
7, 108000, Note_on_c, 9, 36, 95
7, 108480, Note_off_c, 9, 42, 95
7, 108480, Note_off_c, 9, 36, 95
7, 108480, Note_on_c, 9, 42, 95
7, 108480, Note_on_c, 9, 38, 95
7, 108960, Note_off_c, 9, 42, 95
7, 108960, Note_off_c, 9, 38, 95
7, 108960, Note_on_c, 9, 69, 95
7, 108960, Note_on_c, 9, 42, 95
7, 109440, Note_off_c, 9, 69, 95
7, 109440, Note_off_c, 9, 42, 95
7, 109440, Note_on_c, 9, 74, 95
7, 109440, Note_on_c, 9, 42, 95
7, 109440, Note_on_c, 9, 36, 95
7, 109920, Note_off_c, 9, 74, 95
7, 109920, Note_off_c, 9, 42, 95
7, 109920, Note_off_c, 9, 36, 95
7, 109920, Note_on_c, 9, 42, 95
7, 109920, Note_on_c, 9, 36, 95
7, 110400, Note_off_c, 9, 42, 95
7, 110400, Note_off_c, 9, 36, 95
7, 110400, Note_on_c, 9, 42, 95
7, 110400, Note_on_c, 9, 38, 95
7, 110880, Note_off_c, 9, 42, 95
7, 110880, Note_off_c, 9, 38, 95
7, 110880, Note_on_c, 9, 69, 95
7, 110880, Note_on_c, 9, 42, 95
7, 111360, Note_off_c, 9, 69, 95
7, 111360, Note_off_c, 9, 42, 95
7, 111360, Note_on_c, 9, 74, 95
7, 111360, Note_on_c, 9, 42, 95
7, 111360, Note_on_c, 9, 36, 95
7, 111840, Note_off_c, 9, 74, 95
7, 111840, Note_off_c, 9, 42, 95
7, 111840, Note_off_c, 9, 36, 95
7, 111840, Note_on_c, 9, 42, 95
7, 111840, Note_on_c, 9, 36, 95
7, 112320, Note_off_c, 9, 42, 95
7, 112320, Note_off_c, 9, 36, 95
7, 112320, Note_on_c, 9, 42, 95
7, 112320, Note_on_c, 9, 38, 95
7, 112800, Note_off_c, 9, 42, 95
7, 112800, Note_off_c, 9, 38, 95
7, 112800, Note_on_c, 9, 69, 95
7, 112800, Note_on_c, 9, 42, 95
7, 113280, Note_off_c, 9, 69, 95
7, 113280, Note_off_c, 9, 42, 95
7, 113280, Note_on_c, 9, 74, 95
7, 113280, Note_on_c, 9, 42, 95
7, 113280, Note_on_c, 9, 36, 95
7, 113760, Note_off_c, 9, 74, 95
7, 113760, Note_off_c, 9, 42, 95
7, 113760, Note_off_c, 9, 36, 95
7, 113760, Note_on_c, 9, 42, 95
7, 113760, Note_on_c, 9, 36, 95
7, 114240, Note_off_c, 9, 42, 95
7, 114240, Note_off_c, 9, 36, 95
7, 114240, Note_on_c, 9, 42, 95
7, 114240, Note_on_c, 9, 38, 95
7, 114720, Note_off_c, 9, 42, 95
7, 114720, Note_off_c, 9, 38, 95
7, 114720, Note_on_c, 9, 69, 95
7, 114720, Note_on_c, 9, 42, 95
7, 115200, Note_off_c, 9, 69, 95
7, 115200, Note_off_c, 9, 42, 95
7, 115200, Note_on_c, 9, 74, 95
7, 115200, Note_on_c, 9, 42, 95
7, 115200, Note_on_c, 9, 36, 95
7, 115680, Note_off_c, 9, 74, 95
7, 115680, Note_off_c, 9, 42, 95
7, 115680, Note_off_c, 9, 36, 95
7, 115680, Note_on_c, 9, 42, 95
7, 115680, Note_on_c, 9, 36, 95
7, 116160, Note_off_c, 9, 42, 95
7, 116160, Note_off_c, 9, 36, 95
7, 116160, Note_on_c, 9, 42, 95
7, 116160, Note_on_c, 9, 38, 95
7, 116640, Note_off_c, 9, 42, 95
7, 116640, Note_off_c, 9, 38, 95
7, 116640, Note_on_c, 9, 69, 95
7, 116640, Note_on_c, 9, 42, 95
7, 117120, Note_off_c, 9, 69, 95
7, 117120, Note_off_c, 9, 42, 95
7, 117120, Note_on_c, 9, 74, 95
7, 117120, Note_on_c, 9, 42, 95
7, 117120, Note_on_c, 9, 36, 95
7, 117600, Note_off_c, 9, 74, 95
7, 117600, Note_off_c, 9, 42, 95
7, 117600, Note_off_c, 9, 36, 95
7, 117600, Note_on_c, 9, 42, 95
7, 117600, Note_on_c, 9, 36, 95
7, 118080, Note_off_c, 9, 42, 95
7, 118080, Note_off_c, 9, 36, 95
7, 118080, Note_on_c, 9, 42, 95
7, 118080, Note_on_c, 9, 38, 95
7, 118560, Note_off_c, 9, 42, 95
7, 118560, Note_off_c, 9, 38, 95
7, 118560, Note_on_c, 9, 69, 95
7, 118560, Note_on_c, 9, 42, 95
7, 119040, Note_off_c, 9, 69, 95
7, 119040, Note_off_c, 9, 42, 95
7, 119040, Note_on_c, 9, 74, 95
7, 119040, Note_on_c, 9, 42, 95
7, 119040, Note_on_c, 9, 36, 95
7, 119520, Note_off_c, 9, 74, 95
7, 119520, Note_off_c, 9, 42, 95
7, 119520, Note_off_c, 9, 36, 95
7, 119520, Note_on_c, 9, 69, 95
7, 119520, Note_on_c, 9, 42, 95
7, 119520, Note_on_c, 9, 36, 95
7, 120000, Note_off_c, 9, 69, 95
7, 120000, Note_off_c, 9, 42, 95
7, 120000, Note_off_c, 9, 36, 95
7, 120000, Note_on_c, 9, 42, 95
7, 120000, Note_on_c, 9, 38, 95
7, 120480, Note_off_c, 9, 42, 95
7, 120480, Note_off_c, 9, 38, 95
7, 120480, Note_on_c, 9, 69, 95
7, 120480, Note_on_c, 9, 42, 95
7, 120960, Note_off_c, 9, 69, 95
7, 120960, Note_off_c, 9, 42, 95
7, 120960, Note_on_c, 9, 74, 95
7, 120960, Note_on_c, 9, 38, 95
7, 121440, Note_off_c, 9, 74, 95
7, 121440, Note_off_c, 9, 38, 95
7, 121440, Note_on_c, 9, 69, 95
7, 121440, Note_on_c, 9, 36, 95
7, 121920, Note_off_c, 9, 69, 95
7, 121920, Note_off_c, 9, 36, 95
7, 121920, Note_on_c, 9, 38, 95
7, 122400, Note_off_c, 9, 38, 95
7, 122400, Note_on_c, 9, 69, 95
7, 122400, Note_on_c, 9, 36, 95
7, 122880, Note_off_c, 9, 69, 95
7, 122880, Note_off_c, 9, 36, 95
7, 122880, Note_on_c, 9, 74, 95
7, 122880, Note_on_c, 9, 46, 95
7, 122880, Note_on_c, 9, 36, 95
7, 123840, Note_off_c, 9, 74, 95
7, 123840, Note_off_c, 9, 46, 95
7, 123840, Note_off_c, 9, 36, 95
7, 123840, Note_on_c, 9, 42, 95
7, 123840, Note_on_c, 9, 38, 95
7, 124320, Note_off_c, 9, 42, 95
7, 124320, Note_off_c, 9, 38, 95
7, 124320, Note_on_c, 9, 69, 95
7, 124320, Note_on_c, 9, 42, 95
7, 124800, Note_off_c, 9, 69, 95
7, 124800, Note_off_c, 9, 42, 95
7, 124800, Note_on_c, 9, 74, 95
7, 124800, Note_on_c, 9, 42, 95
7, 124800, Note_on_c, 9, 36, 95
7, 125280, Note_off_c, 9, 74, 95
7, 125280, Note_off_c, 9, 42, 95
7, 125280, Note_off_c, 9, 36, 95
7, 125280, Note_on_c, 9, 42, 95
7, 125280, Note_on_c, 9, 36, 95
7, 125760, Note_off_c, 9, 42, 95
7, 125760, Note_off_c, 9, 36, 95
7, 125760, Note_on_c, 9, 42, 95
7, 125760, Note_on_c, 9, 38, 95
7, 126240, Note_off_c, 9, 42, 95
7, 126240, Note_off_c, 9, 38, 95
7, 126240, Note_on_c, 9, 69, 95
7, 126240, Note_on_c, 9, 42, 95
7, 126720, Note_off_c, 9, 69, 95
7, 126720, Note_off_c, 9, 42, 95
7, 126720, Note_on_c, 9, 74, 95
7, 126720, Note_on_c, 9, 42, 95
7, 126720, Note_on_c, 9, 36, 95
7, 127200, Note_off_c, 9, 74, 95
7, 127200, Note_off_c, 9, 42, 95
7, 127200, Note_off_c, 9, 36, 95
7, 127200, Note_on_c, 9, 42, 95
7, 127200, Note_on_c, 9, 36, 95
7, 127680, Note_off_c, 9, 42, 95
7, 127680, Note_off_c, 9, 36, 95
7, 127680, Note_on_c, 9, 42, 95
7, 127680, Note_on_c, 9, 38, 95
7, 128160, Note_off_c, 9, 42, 95
7, 128160, Note_off_c, 9, 38, 95
7, 128160, Note_on_c, 9, 69, 95
7, 128160, Note_on_c, 9, 42, 95
7, 128640, Note_off_c, 9, 69, 95
7, 128640, Note_off_c, 9, 42, 95
7, 128640, Note_on_c, 9, 74, 95
7, 128640, Note_on_c, 9, 42, 95
7, 128640, Note_on_c, 9, 36, 95
7, 129120, Note_off_c, 9, 74, 95
7, 129120, Note_off_c, 9, 42, 95
7, 129120, Note_off_c, 9, 36, 95
7, 129120, Note_on_c, 9, 42, 95
7, 129120, Note_on_c, 9, 36, 95
7, 129600, Note_off_c, 9, 42, 95
7, 129600, Note_off_c, 9, 36, 95
7, 129600, Note_on_c, 9, 42, 95
7, 129600, Note_on_c, 9, 38, 95
7, 130080, Note_off_c, 9, 42, 95
7, 130080, Note_off_c, 9, 38, 95
7, 130080, Note_on_c, 9, 69, 95
7, 130080, Note_on_c, 9, 42, 95
7, 130560, Note_off_c, 9, 69, 95
7, 130560, Note_off_c, 9, 42, 95
7, 130560, Note_on_c, 9, 74, 95
7, 130560, Note_on_c, 9, 42, 95
7, 130560, Note_on_c, 9, 36, 95
7, 131040, Note_off_c, 9, 74, 95
7, 131040, Note_off_c, 9, 42, 95
7, 131040, Note_off_c, 9, 36, 95
7, 131040, Note_on_c, 9, 42, 95
7, 131040, Note_on_c, 9, 36, 95
7, 131520, Note_off_c, 9, 42, 95
7, 131520, Note_off_c, 9, 36, 95
7, 131520, Note_on_c, 9, 42, 95
7, 131520, Note_on_c, 9, 38, 95
7, 132000, Note_off_c, 9, 42, 95
7, 132000, Note_off_c, 9, 38, 95
7, 132000, Note_on_c, 9, 69, 95
7, 132000, Note_on_c, 9, 42, 95
7, 132480, Note_off_c, 9, 69, 95
7, 132480, Note_off_c, 9, 42, 95
7, 132480, Note_on_c, 9, 74, 95
7, 132480, Note_on_c, 9, 42, 95
7, 132480, Note_on_c, 9, 36, 95
7, 132960, Note_off_c, 9, 74, 95
7, 132960, Note_off_c, 9, 42, 95
7, 132960, Note_off_c, 9, 36, 95
7, 132960, Note_on_c, 9, 42, 95
7, 132960, Note_on_c, 9, 36, 95
7, 133440, Note_off_c, 9, 42, 95
7, 133440, Note_off_c, 9, 36, 95
7, 133440, Note_on_c, 9, 42, 95
7, 133440, Note_on_c, 9, 38, 95
7, 133920, Note_off_c, 9, 42, 95
7, 133920, Note_off_c, 9, 38, 95
7, 133920, Note_on_c, 9, 69, 95
7, 133920, Note_on_c, 9, 42, 95
7, 133920, Note_on_c, 9, 36, 95
7, 134400, Note_off_c, 9, 69, 95
7, 134400, Note_off_c, 9, 42, 95
7, 134400, Note_off_c, 9, 36, 95
7, 134400, Note_on_c, 9, 50, 127
7, 134880, Note_off_c, 9, 50, 127
7, 134880, Note_on_c, 9, 69, 95
7, 134880, Note_on_c, 9, 36, 111
7, 135360, Note_off_c, 9, 69, 95
7, 135360, Note_off_c, 9, 36, 111
7, 135360, Note_on_c, 9, 48, 127
7, 135840, Note_off_c, 9, 48, 127
7, 135840, Note_on_c, 9, 69, 95
7, 135840, Note_on_c, 9, 36, 111
7, 136320, Note_off_c, 9, 69, 95
7, 136320, Note_off_c, 9, 36, 111
7, 136320, Note_on_c, 9, 47, 127
7, 136800, Note_off_c, 9, 47, 127
7, 136800, Note_on_c, 9, 69, 95
7, 136800, Note_on_c, 9, 36, 111
7, 137280, Note_off_c, 9, 69, 95
7, 137280, Note_off_c, 9, 36, 111
7, 137280, Note_on_c, 9, 45, 127
7, 137760, Note_off_c, 9, 45, 127
7, 137760, Note_on_c, 9, 69, 95
7, 137760, Note_on_c, 9, 36, 111
7, 138240, Note_off_c, 9, 69, 95
7, 138240, Note_off_c, 9, 36, 111
7, 138240, Note_on_c, 9, 74, 95
7, 138240, Note_on_c, 9, 46, 95
7, 138240, Note_on_c, 9, 36, 95
7, 139200, Note_off_c, 9, 74, 95
7, 139200, Note_off_c, 9, 46, 95
7, 139200, Note_off_c, 9, 36, 95
7, 139200, Note_on_c, 9, 42, 95
7, 139200, Note_on_c, 9, 38, 95
7, 139680, Note_off_c, 9, 42, 95
7, 139680, Note_off_c, 9, 38, 95
7, 139680, Note_on_c, 9, 69, 95
7, 139680, Note_on_c, 9, 42, 95
7, 140160, Note_off_c, 9, 69, 95
7, 140160, Note_off_c, 9, 42, 95
7, 140160, Note_on_c, 9, 74, 95
7, 140160, Note_on_c, 9, 42, 95
7, 140160, Note_on_c, 9, 36, 95
7, 140640, Note_off_c, 9, 74, 95
7, 140640, Note_off_c, 9, 42, 95
7, 140640, Note_off_c, 9, 36, 95
7, 140640, Note_on_c, 9, 42, 95
7, 140640, Note_on_c, 9, 36, 95
7, 141120, Note_off_c, 9, 42, 95
7, 141120, Note_off_c, 9, 36, 95
7, 141120, Note_on_c, 9, 42, 95
7, 141120, Note_on_c, 9, 38, 95
7, 141600, Note_off_c, 9, 42, 95
7, 141600, Note_off_c, 9, 38, 95
7, 141600, Note_on_c, 9, 69, 95
7, 141600, Note_on_c, 9, 42, 95
7, 142080, Note_off_c, 9, 69, 95
7, 142080, Note_off_c, 9, 42, 95
7, 142080, Note_on_c, 9, 74, 95
7, 142080, Note_on_c, 9, 42, 95
7, 142080, Note_on_c, 9, 36, 95
7, 142560, Note_off_c, 9, 74, 95
7, 142560, Note_off_c, 9, 42, 95
7, 142560, Note_off_c, 9, 36, 95
7, 142560, Note_on_c, 9, 42, 95
7, 142560, Note_on_c, 9, 36, 95
7, 143040, Note_off_c, 9, 42, 95
7, 143040, Note_off_c, 9, 36, 95
7, 143040, Note_on_c, 9, 42, 95
7, 143040, Note_on_c, 9, 38, 95
7, 143520, Note_off_c, 9, 42, 95
7, 143520, Note_off_c, 9, 38, 95
7, 143520, Note_on_c, 9, 69, 95
7, 143520, Note_on_c, 9, 42, 95
7, 144000, Note_off_c, 9, 69, 95
7, 144000, Note_off_c, 9, 42, 95
7, 144000, Note_on_c, 9, 74, 95
7, 144000, Note_on_c, 9, 42, 95
7, 144000, Note_on_c, 9, 36, 95
7, 144480, Note_off_c, 9, 74, 95
7, 144480, Note_off_c, 9, 42, 95
7, 144480, Note_off_c, 9, 36, 95
7, 144480, Note_on_c, 9, 42, 95
7, 144480, Note_on_c, 9, 36, 95
7, 144960, Note_off_c, 9, 42, 95
7, 144960, Note_off_c, 9, 36, 95
7, 144960, Note_on_c, 9, 42, 95
7, 144960, Note_on_c, 9, 38, 95
7, 145440, Note_off_c, 9, 42, 95
7, 145440, Note_off_c, 9, 38, 95
7, 145440, Note_on_c, 9, 69, 95
7, 145440, Note_on_c, 9, 42, 95
7, 145920, Note_off_c, 9, 69, 95
7, 145920, Note_off_c, 9, 42, 95
7, 145920, Note_on_c, 9, 74, 95
7, 145920, Note_on_c, 9, 42, 95
7, 145920, Note_on_c, 9, 36, 95
7, 146400, Note_off_c, 9, 74, 95
7, 146400, Note_off_c, 9, 42, 95
7, 146400, Note_off_c, 9, 36, 95
7, 146400, Note_on_c, 9, 42, 95
7, 146400, Note_on_c, 9, 36, 95
7, 146880, Note_off_c, 9, 42, 95
7, 146880, Note_off_c, 9, 36, 95
7, 146880, Note_on_c, 9, 42, 95
7, 146880, Note_on_c, 9, 38, 95
7, 147360, Note_off_c, 9, 42, 95
7, 147360, Note_off_c, 9, 38, 95
7, 147360, Note_on_c, 9, 69, 95
7, 147360, Note_on_c, 9, 42, 95
7, 147840, Note_off_c, 9, 69, 95
7, 147840, Note_off_c, 9, 42, 95
7, 147840, Note_on_c, 9, 74, 95
7, 147840, Note_on_c, 9, 42, 95
7, 147840, Note_on_c, 9, 36, 95
7, 148320, Note_off_c, 9, 74, 95
7, 148320, Note_off_c, 9, 42, 95
7, 148320, Note_off_c, 9, 36, 95
7, 148320, Note_on_c, 9, 42, 95
7, 148320, Note_on_c, 9, 36, 95
7, 148800, Note_off_c, 9, 42, 95
7, 148800, Note_off_c, 9, 36, 95
7, 148800, Note_on_c, 9, 42, 95
7, 148800, Note_on_c, 9, 38, 95
7, 149280, Note_off_c, 9, 42, 95
7, 149280, Note_off_c, 9, 38, 95
7, 149280, Note_on_c, 9, 69, 95
7, 149280, Note_on_c, 9, 42, 95
7, 149280, Note_on_c, 9, 36, 95
7, 149760, Note_off_c, 9, 69, 95
7, 149760, Note_off_c, 9, 42, 95
7, 149760, Note_off_c, 9, 36, 95
7, 149760, Note_on_c, 9, 50, 127
7, 150240, Note_off_c, 9, 50, 127
7, 150240, Note_on_c, 9, 69, 95
7, 150240, Note_on_c, 9, 36, 111
7, 150720, Note_off_c, 9, 69, 95
7, 150720, Note_off_c, 9, 36, 111
7, 150720, Note_on_c, 9, 48, 127
7, 151200, Note_off_c, 9, 48, 127
7, 151200, Note_on_c, 9, 69, 95
7, 151200, Note_on_c, 9, 36, 111
7, 151680, Note_off_c, 9, 69, 95
7, 151680, Note_off_c, 9, 36, 111
7, 151680, Note_on_c, 9, 47, 127
7, 152160, Note_off_c, 9, 47, 127
7, 152160, Note_on_c, 9, 69, 95
7, 152160, Note_on_c, 9, 36, 111
7, 152640, Note_off_c, 9, 69, 95
7, 152640, Note_off_c, 9, 36, 111
7, 152640, Note_on_c, 9, 45, 127
7, 153120, Note_off_c, 9, 45, 127
7, 153120, Note_on_c, 9, 69, 95
7, 153120, Note_on_c, 9, 36, 111
7, 153600, Note_off_c, 9, 69, 95
7, 153600, Note_off_c, 9, 36, 111
7, 153600, Note_on_c, 9, 74, 95
7, 153600, Note_on_c, 9, 46, 95
7, 153600, Note_on_c, 9, 36, 95
7, 154560, Note_off_c, 9, 74, 95
7, 154560, Note_off_c, 9, 46, 95
7, 154560, Note_off_c, 9, 36, 95
7, 154560, Note_on_c, 9, 42, 95
7, 154560, Note_on_c, 9, 38, 95
7, 155040, Note_off_c, 9, 42, 95
7, 155040, Note_off_c, 9, 38, 95
7, 155040, Note_on_c, 9, 69, 95
7, 155040, Note_on_c, 9, 42, 95
7, 155520, Note_off_c, 9, 69, 95
7, 155520, Note_off_c, 9, 42, 95
7, 155520, Note_on_c, 9, 74, 95
7, 155520, Note_on_c, 9, 42, 95
7, 155520, Note_on_c, 9, 36, 95
7, 156000, Note_off_c, 9, 74, 95
7, 156000, Note_off_c, 9, 42, 95
7, 156000, Note_off_c, 9, 36, 95
7, 156000, Note_on_c, 9, 42, 95
7, 156000, Note_on_c, 9, 36, 95
7, 156480, Note_off_c, 9, 42, 95
7, 156480, Note_off_c, 9, 36, 95
7, 156480, Note_on_c, 9, 42, 95
7, 156480, Note_on_c, 9, 38, 95
7, 156960, Note_off_c, 9, 42, 95
7, 156960, Note_off_c, 9, 38, 95
7, 156960, Note_on_c, 9, 69, 95
7, 156960, Note_on_c, 9, 42, 95
7, 157440, Note_off_c, 9, 69, 95
7, 157440, Note_off_c, 9, 42, 95
7, 157440, Note_on_c, 9, 74, 95
7, 157440, Note_on_c, 9, 42, 95
7, 157440, Note_on_c, 9, 36, 95
7, 157920, Note_off_c, 9, 74, 95
7, 157920, Note_off_c, 9, 42, 95
7, 157920, Note_off_c, 9, 36, 95
7, 157920, Note_on_c, 9, 42, 95
7, 157920, Note_on_c, 9, 36, 95
7, 158400, Note_off_c, 9, 42, 95
7, 158400, Note_off_c, 9, 36, 95
7, 158400, Note_on_c, 9, 42, 95
7, 158400, Note_on_c, 9, 38, 95
7, 158880, Note_off_c, 9, 42, 95
7, 158880, Note_off_c, 9, 38, 95
7, 158880, Note_on_c, 9, 69, 95
7, 158880, Note_on_c, 9, 42, 95
7, 159360, Note_off_c, 9, 69, 95
7, 159360, Note_off_c, 9, 42, 95
7, 159360, Note_on_c, 9, 74, 95
7, 159360, Note_on_c, 9, 42, 95
7, 159360, Note_on_c, 9, 36, 95
7, 159840, Note_off_c, 9, 74, 95
7, 159840, Note_off_c, 9, 42, 95
7, 159840, Note_off_c, 9, 36, 95
7, 159840, Note_on_c, 9, 42, 95
7, 159840, Note_on_c, 9, 36, 95
7, 160320, Note_off_c, 9, 42, 95
7, 160320, Note_off_c, 9, 36, 95
7, 160320, Note_on_c, 9, 42, 95
7, 160320, Note_on_c, 9, 38, 95
7, 160800, Note_off_c, 9, 42, 95
7, 160800, Note_off_c, 9, 38, 95
7, 160800, Note_on_c, 9, 69, 95
7, 160800, Note_on_c, 9, 42, 95
7, 161280, Note_off_c, 9, 69, 95
7, 161280, Note_off_c, 9, 42, 95
7, 161280, Note_on_c, 9, 74, 95
7, 161280, Note_on_c, 9, 42, 95
7, 161280, Note_on_c, 9, 36, 95
7, 161760, Note_off_c, 9, 74, 95
7, 161760, Note_off_c, 9, 42, 95
7, 161760, Note_off_c, 9, 36, 95
7, 161760, Note_on_c, 9, 42, 95
7, 161760, Note_on_c, 9, 36, 95
7, 162240, Note_off_c, 9, 42, 95
7, 162240, Note_off_c, 9, 36, 95
7, 162240, Note_on_c, 9, 42, 95
7, 162240, Note_on_c, 9, 38, 95
7, 162720, Note_off_c, 9, 42, 95
7, 162720, Note_off_c, 9, 38, 95
7, 162720, Note_on_c, 9, 69, 95
7, 162720, Note_on_c, 9, 42, 95
7, 163200, Note_off_c, 9, 69, 95
7, 163200, Note_off_c, 9, 42, 95
7, 163200, Note_on_c, 9, 74, 95
7, 163200, Note_on_c, 9, 42, 95
7, 163200, Note_on_c, 9, 36, 95
7, 163680, Note_off_c, 9, 74, 95
7, 163680, Note_off_c, 9, 42, 95
7, 163680, Note_off_c, 9, 36, 95
7, 163680, Note_on_c, 9, 42, 95
7, 163680, Note_on_c, 9, 36, 95
7, 164160, Note_off_c, 9, 42, 95
7, 164160, Note_off_c, 9, 36, 95
7, 164160, Note_on_c, 9, 42, 95
7, 164160, Note_on_c, 9, 38, 95
7, 164640, Note_off_c, 9, 42, 95
7, 164640, Note_off_c, 9, 38, 95
7, 164640, Note_on_c, 9, 69, 95
7, 164640, Note_on_c, 9, 42, 95
7, 164640, Note_on_c, 9, 36, 95
7, 165120, Note_off_c, 9, 69, 95
7, 165120, Note_off_c, 9, 42, 95
7, 165120, Note_off_c, 9, 36, 95
7, 165120, Note_on_c, 9, 74, 95
7, 165120, Note_on_c, 9, 42, 95
7, 165120, Note_on_c, 9, 36, 95
7, 165600, Note_off_c, 9, 74, 95
7, 165600, Note_off_c, 9, 42, 95
7, 165600, Note_off_c, 9, 36, 95
7, 165600, Note_on_c, 9, 42, 95
7, 165600, Note_on_c, 9, 36, 95
7, 166080, Note_off_c, 9, 42, 95
7, 166080, Note_off_c, 9, 36, 95
7, 166080, Note_on_c, 9, 42, 95
7, 166080, Note_on_c, 9, 38, 95
7, 166560, Note_off_c, 9, 42, 95
7, 166560, Note_off_c, 9, 38, 95
7, 166560, Note_on_c, 9, 69, 95
7, 166560, Note_on_c, 9, 42, 95
7, 167040, Note_off_c, 9, 69, 95
7, 167040, Note_off_c, 9, 42, 95
7, 167040, Note_on_c, 9, 74, 95
7, 167040, Note_on_c, 9, 42, 95
7, 167040, Note_on_c, 9, 36, 95
7, 167520, Note_off_c, 9, 74, 95
7, 167520, Note_off_c, 9, 42, 95
7, 167520, Note_off_c, 9, 36, 95
7, 167520, Note_on_c, 9, 42, 95
7, 167520, Note_on_c, 9, 36, 95
7, 168000, Note_off_c, 9, 42, 95
7, 168000, Note_off_c, 9, 36, 95
7, 168000, Note_on_c, 9, 42, 95
7, 168000, Note_on_c, 9, 38, 95
7, 168480, Note_off_c, 9, 42, 95
7, 168480, Note_off_c, 9, 38, 95
7, 168480, Note_on_c, 9, 69, 95
7, 168480, Note_on_c, 9, 42, 95
7, 168480, Note_on_c, 9, 36, 95
7, 168960, Note_off_c, 9, 69, 95
7, 168960, Note_off_c, 9, 42, 95
7, 168960, Note_off_c, 9, 36, 95
7, 168960, Note_on_c, 9, 74, 95
7, 168960, Note_on_c, 9, 46, 95
7, 168960, Note_on_c, 9, 36, 95
7, 169920, Note_off_c, 9, 74, 95
7, 169920, Note_off_c, 9, 46, 95
7, 169920, Note_off_c, 9, 36, 95
7, 169920, Note_on_c, 9, 42, 95
7, 169920, Note_on_c, 9, 38, 95
7, 170400, Note_off_c, 9, 42, 95
7, 170400, Note_off_c, 9, 38, 95
7, 170400, Note_on_c, 9, 69, 95
7, 170400, Note_on_c, 9, 42, 95
7, 170880, Note_off_c, 9, 69, 95
7, 170880, Note_off_c, 9, 42, 95
7, 170880, Note_on_c, 9, 74, 95
7, 170880, Note_on_c, 9, 42, 95
7, 171360, Note_off_c, 9, 74, 95
7, 171360, Note_off_c, 9, 42, 95
7, 171360, Note_on_c, 9, 42, 95
7, 171360, Note_on_c, 9, 36, 95
7, 171840, Note_off_c, 9, 42, 95
7, 171840, Note_off_c, 9, 36, 95
7, 171840, Note_on_c, 9, 42, 95
7, 171840, Note_on_c, 9, 38, 95
7, 172320, Note_off_c, 9, 42, 95
7, 172320, Note_off_c, 9, 38, 95
7, 172320, Note_on_c, 9, 69, 95
7, 172320, Note_on_c, 9, 42, 95
7, 172320, Note_on_c, 9, 36, 95
7, 172800, Note_off_c, 9, 69, 95
7, 172800, Note_off_c, 9, 42, 95
7, 172800, Note_off_c, 9, 36, 95
7, 172800, Note_on_c, 9, 74, 95
7, 172800, Note_on_c, 9, 42, 95
7, 172800, Note_on_c, 9, 36, 95
7, 173280, Note_off_c, 9, 74, 95
7, 173280, Note_off_c, 9, 42, 95
7, 173280, Note_off_c, 9, 36, 95
7, 173280, Note_on_c, 9, 42, 95
7, 173280, Note_on_c, 9, 36, 95
7, 173760, Note_off_c, 9, 42, 95
7, 173760, Note_off_c, 9, 36, 95
7, 173760, Note_on_c, 9, 42, 95
7, 173760, Note_on_c, 9, 38, 95
7, 174240, Note_off_c, 9, 42, 95
7, 174240, Note_off_c, 9, 38, 95
7, 174240, Note_on_c, 9, 69, 95
7, 174240, Note_on_c, 9, 42, 95
7, 174720, Note_off_c, 9, 69, 95
7, 174720, Note_off_c, 9, 42, 95
7, 174720, Note_on_c, 9, 74, 95
7, 174720, Note_on_c, 9, 42, 95
7, 174720, Note_on_c, 9, 36, 95
7, 175200, Note_off_c, 9, 74, 95
7, 175200, Note_off_c, 9, 42, 95
7, 175200, Note_off_c, 9, 36, 95
7, 175200, Note_on_c, 9, 42, 95
7, 175200, Note_on_c, 9, 36, 95
7, 175680, Note_off_c, 9, 42, 95
7, 175680, Note_off_c, 9, 36, 95
7, 175680, Note_on_c, 9, 42, 95
7, 175680, Note_on_c, 9, 38, 95
7, 176160, Note_off_c, 9, 42, 95
7, 176160, Note_off_c, 9, 38, 95
7, 176160, Note_on_c, 9, 69, 95
7, 176160, Note_on_c, 9, 42, 95
7, 176640, Note_off_c, 9, 69, 95
7, 176640, Note_off_c, 9, 42, 95
7, 176640, Note_on_c, 9, 74, 95
7, 176640, Note_on_c, 9, 42, 95
7, 176640, Note_on_c, 9, 36, 95
7, 177120, Note_off_c, 9, 74, 95
7, 177120, Note_off_c, 9, 42, 95
7, 177120, Note_off_c, 9, 36, 95
7, 177120, Note_on_c, 9, 42, 95
7, 177120, Note_on_c, 9, 36, 95
7, 177600, Note_off_c, 9, 42, 95
7, 177600, Note_off_c, 9, 36, 95
7, 177600, Note_on_c, 9, 42, 95
7, 177600, Note_on_c, 9, 38, 95
7, 178080, Note_off_c, 9, 42, 95
7, 178080, Note_off_c, 9, 38, 95
7, 178080, Note_on_c, 9, 69, 95
7, 178080, Note_on_c, 9, 42, 95
7, 178560, Note_off_c, 9, 69, 95
7, 178560, Note_off_c, 9, 42, 95
7, 178560, Note_on_c, 9, 74, 95
7, 178560, Note_on_c, 9, 42, 95
7, 178560, Note_on_c, 9, 36, 95
7, 179040, Note_off_c, 9, 74, 95
7, 179040, Note_off_c, 9, 42, 95
7, 179040, Note_off_c, 9, 36, 95
7, 179040, Note_on_c, 9, 42, 95
7, 179040, Note_on_c, 9, 36, 95
7, 179520, Note_off_c, 9, 42, 95
7, 179520, Note_off_c, 9, 36, 95
7, 179520, Note_on_c, 9, 42, 95
7, 179520, Note_on_c, 9, 38, 95
7, 180000, Note_off_c, 9, 42, 95
7, 180000, Note_off_c, 9, 38, 95
7, 180000, Note_on_c, 9, 69, 95
7, 180000, Note_on_c, 9, 42, 95
7, 180480, Note_off_c, 9, 69, 95
7, 180480, Note_off_c, 9, 42, 95
7, 180480, Note_on_c, 9, 74, 95
7, 180480, Note_on_c, 9, 42, 95
7, 180480, Note_on_c, 9, 36, 95
7, 180960, Note_off_c, 9, 74, 95
7, 180960, Note_off_c, 9, 42, 95
7, 180960, Note_off_c, 9, 36, 95
7, 180960, Note_on_c, 9, 42, 95
7, 180960, Note_on_c, 9, 36, 95
7, 181440, Note_off_c, 9, 42, 95
7, 181440, Note_off_c, 9, 36, 95
7, 181440, Note_on_c, 9, 42, 95
7, 181440, Note_on_c, 9, 38, 95
7, 181920, Note_off_c, 9, 42, 95
7, 181920, Note_off_c, 9, 38, 95
7, 181920, Note_on_c, 9, 69, 95
7, 181920, Note_on_c, 9, 42, 95
7, 182400, Note_off_c, 9, 69, 95
7, 182400, Note_off_c, 9, 42, 95
7, 182400, Note_on_c, 9, 74, 95
7, 182400, Note_on_c, 9, 42, 95
7, 182400, Note_on_c, 9, 36, 95
7, 182880, Note_off_c, 9, 74, 95
7, 182880, Note_off_c, 9, 42, 95
7, 182880, Note_off_c, 9, 36, 95
7, 182880, Note_on_c, 9, 42, 95
7, 182880, Note_on_c, 9, 36, 95
7, 183360, Note_off_c, 9, 42, 95
7, 183360, Note_off_c, 9, 36, 95
7, 183360, Note_on_c, 9, 42, 95
7, 183360, Note_on_c, 9, 38, 95
7, 183840, Note_off_c, 9, 42, 95
7, 183840, Note_off_c, 9, 38, 95
7, 183840, Note_on_c, 9, 69, 95
7, 183840, Note_on_c, 9, 42, 95
7, 184320, Note_off_c, 9, 69, 95
7, 184320, Note_off_c, 9, 42, 95
7, 184320, Note_on_c, 9, 74, 95
7, 184320, Note_on_c, 9, 42, 95
7, 184320, Note_on_c, 9, 36, 95
7, 184800, Note_off_c, 9, 74, 95
7, 184800, Note_off_c, 9, 42, 95
7, 184800, Note_off_c, 9, 36, 95
7, 184800, Note_on_c, 9, 42, 95
7, 184800, Note_on_c, 9, 36, 95
7, 185280, Note_off_c, 9, 42, 95
7, 185280, Note_off_c, 9, 36, 95
7, 185280, Note_on_c, 9, 42, 95
7, 185280, Note_on_c, 9, 38, 95
7, 185760, Note_off_c, 9, 42, 95
7, 185760, Note_off_c, 9, 38, 95
7, 185760, Note_on_c, 9, 69, 95
7, 185760, Note_on_c, 9, 42, 95
7, 186240, Note_off_c, 9, 69, 95
7, 186240, Note_off_c, 9, 42, 95
7, 186240, Note_on_c, 9, 74, 95
7, 186240, Note_on_c, 9, 42, 95
7, 186240, Note_on_c, 9, 36, 95
7, 186720, Note_off_c, 9, 74, 95
7, 186720, Note_off_c, 9, 42, 95
7, 186720, Note_off_c, 9, 36, 95
7, 186720, Note_on_c, 9, 42, 95
7, 186720, Note_on_c, 9, 36, 95
7, 187200, Note_off_c, 9, 42, 95
7, 187200, Note_off_c, 9, 36, 95
7, 187200, Note_on_c, 9, 42, 95
7, 187200, Note_on_c, 9, 38, 95
7, 187680, Note_off_c, 9, 42, 95
7, 187680, Note_off_c, 9, 38, 95
7, 187680, Note_on_c, 9, 69, 95
7, 187680, Note_on_c, 9, 42, 95
7, 188160, Note_off_c, 9, 69, 95
7, 188160, Note_off_c, 9, 42, 95
7, 188160, Note_on_c, 9, 74, 95
7, 188160, Note_on_c, 9, 42, 95
7, 188160, Note_on_c, 9, 36, 95
7, 188640, Note_off_c, 9, 74, 95
7, 188640, Note_off_c, 9, 42, 95
7, 188640, Note_off_c, 9, 36, 95
7, 188640, Note_on_c, 9, 42, 95
7, 188640, Note_on_c, 9, 36, 95
7, 189120, Note_off_c, 9, 42, 95
7, 189120, Note_off_c, 9, 36, 95
7, 189120, Note_on_c, 9, 42, 95
7, 189120, Note_on_c, 9, 38, 95
7, 189600, Note_off_c, 9, 42, 95
7, 189600, Note_off_c, 9, 38, 95
7, 189600, Note_on_c, 9, 69, 95
7, 189600, Note_on_c, 9, 42, 95
7, 190080, Note_off_c, 9, 69, 95
7, 190080, Note_off_c, 9, 42, 95
7, 190080, Note_on_c, 9, 74, 95
7, 190080, Note_on_c, 9, 42, 95
7, 190080, Note_on_c, 9, 36, 95
7, 190560, Note_off_c, 9, 74, 95
7, 190560, Note_off_c, 9, 42, 95
7, 190560, Note_off_c, 9, 36, 95
7, 190560, Note_on_c, 9, 42, 95
7, 190560, Note_on_c, 9, 36, 95
7, 191040, Note_off_c, 9, 42, 95
7, 191040, Note_off_c, 9, 36, 95
7, 191040, Note_on_c, 9, 42, 95
7, 191040, Note_on_c, 9, 38, 95
7, 191520, Note_off_c, 9, 42, 95
7, 191520, Note_off_c, 9, 38, 95
7, 191520, Note_on_c, 9, 69, 95
7, 191520, Note_on_c, 9, 42, 95
7, 192000, Note_off_c, 9, 69, 95
7, 192000, Note_off_c, 9, 42, 95
7, 192000, Note_on_c, 9, 74, 95
7, 192000, Note_on_c, 9, 42, 95
7, 192000, Note_on_c, 9, 36, 95
7, 192480, Note_off_c, 9, 74, 95
7, 192480, Note_off_c, 9, 42, 95
7, 192480, Note_off_c, 9, 36, 95
7, 192480, Note_on_c, 9, 42, 95
7, 192480, Note_on_c, 9, 36, 95
7, 192960, Note_off_c, 9, 42, 95
7, 192960, Note_off_c, 9, 36, 95
7, 192960, Note_on_c, 9, 42, 95
7, 192960, Note_on_c, 9, 38, 95
7, 193440, Note_off_c, 9, 42, 95
7, 193440, Note_off_c, 9, 38, 95
7, 193440, Note_on_c, 9, 69, 95
7, 193440, Note_on_c, 9, 42, 95
7, 193920, Note_off_c, 9, 69, 95
7, 193920, Note_off_c, 9, 42, 95
7, 193920, Note_on_c, 9, 74, 95
7, 193920, Note_on_c, 9, 42, 95
7, 193920, Note_on_c, 9, 36, 95
7, 194400, Note_off_c, 9, 74, 95
7, 194400, Note_off_c, 9, 42, 95
7, 194400, Note_off_c, 9, 36, 95
7, 194400, Note_on_c, 9, 42, 95
7, 194400, Note_on_c, 9, 36, 95
7, 194880, Note_off_c, 9, 42, 95
7, 194880, Note_off_c, 9, 36, 95
7, 194880, Note_on_c, 9, 42, 95
7, 194880, Note_on_c, 9, 38, 95
7, 195360, Note_off_c, 9, 42, 95
7, 195360, Note_off_c, 9, 38, 95
7, 195360, Note_on_c, 9, 69, 95
7, 195360, Note_on_c, 9, 42, 95
7, 195840, Note_off_c, 9, 69, 95
7, 195840, Note_off_c, 9, 42, 95
7, 195840, Note_on_c, 9, 74, 95
7, 195840, Note_on_c, 9, 42, 95
7, 195840, Note_on_c, 9, 36, 95
7, 196320, Note_off_c, 9, 74, 95
7, 196320, Note_off_c, 9, 42, 95
7, 196320, Note_off_c, 9, 36, 95
7, 196320, Note_on_c, 9, 69, 95
7, 196320, Note_on_c, 9, 42, 95
7, 196320, Note_on_c, 9, 36, 95
7, 196800, Note_off_c, 9, 69, 95
7, 196800, Note_off_c, 9, 42, 95
7, 196800, Note_off_c, 9, 36, 95
7, 196800, Note_on_c, 9, 42, 95
7, 196800, Note_on_c, 9, 38, 95
7, 197280, Note_off_c, 9, 42, 95
7, 197280, Note_off_c, 9, 38, 95
7, 197280, Note_on_c, 9, 69, 95
7, 197280, Note_on_c, 9, 42, 95
7, 197760, Note_off_c, 9, 69, 95
7, 197760, Note_off_c, 9, 42, 95
7, 197760, Note_on_c, 9, 74, 95
7, 197760, Note_on_c, 9, 38, 95
7, 198240, Note_off_c, 9, 74, 95
7, 198240, Note_off_c, 9, 38, 95
7, 198240, Note_on_c, 9, 69, 95
7, 198240, Note_on_c, 9, 36, 95
7, 198720, Note_off_c, 9, 69, 95
7, 198720, Note_off_c, 9, 36, 95
7, 198720, Note_on_c, 9, 38, 95
7, 199200, Note_off_c, 9, 38, 95
7, 199200, Note_on_c, 9, 69, 95
7, 199200, Note_on_c, 9, 36, 95
7, 199680, Note_off_c, 9, 69, 95
7, 199680, Note_off_c, 9, 36, 95
7, 199680, Note_on_c, 9, 74, 95
7, 199680, Note_on_c, 9, 46, 95
7, 199680, Note_on_c, 9, 36, 95
7, 200640, Note_off_c, 9, 74, 95
7, 200640, Note_off_c, 9, 46, 95
7, 200640, Note_off_c, 9, 36, 95
7, 200640, Note_on_c, 9, 42, 95
7, 200640, Note_on_c, 9, 38, 95
7, 201120, Note_off_c, 9, 42, 95
7, 201120, Note_off_c, 9, 38, 95
7, 201120, Note_on_c, 9, 69, 95
7, 201120, Note_on_c, 9, 42, 95
7, 201600, Note_off_c, 9, 69, 95
7, 201600, Note_off_c, 9, 42, 95
7, 201600, Note_on_c, 9, 74, 95
7, 201600, Note_on_c, 9, 42, 95
7, 201600, Note_on_c, 9, 36, 95
7, 202080, Note_off_c, 9, 74, 95
7, 202080, Note_off_c, 9, 42, 95
7, 202080, Note_off_c, 9, 36, 95
7, 202080, Note_on_c, 9, 42, 95
7, 202080, Note_on_c, 9, 36, 95
7, 202560, Note_off_c, 9, 42, 95
7, 202560, Note_off_c, 9, 36, 95
7, 202560, Note_on_c, 9, 42, 95
7, 202560, Note_on_c, 9, 38, 95
7, 203040, Note_off_c, 9, 42, 95
7, 203040, Note_off_c, 9, 38, 95
7, 203040, Note_on_c, 9, 69, 95
7, 203040, Note_on_c, 9, 42, 95
7, 203520, Note_off_c, 9, 69, 95
7, 203520, Note_off_c, 9, 42, 95
7, 203520, Note_on_c, 9, 74, 95
7, 203520, Note_on_c, 9, 42, 95
7, 203520, Note_on_c, 9, 36, 95
7, 204000, Note_off_c, 9, 74, 95
7, 204000, Note_off_c, 9, 42, 95
7, 204000, Note_off_c, 9, 36, 95
7, 204000, Note_on_c, 9, 42, 95
7, 204000, Note_on_c, 9, 36, 95
7, 204480, Note_off_c, 9, 42, 95
7, 204480, Note_off_c, 9, 36, 95
7, 204480, Note_on_c, 9, 42, 95
7, 204480, Note_on_c, 9, 38, 95
7, 204960, Note_off_c, 9, 42, 95
7, 204960, Note_off_c, 9, 38, 95
7, 204960, Note_on_c, 9, 69, 95
7, 204960, Note_on_c, 9, 42, 95
7, 205440, Note_off_c, 9, 69, 95
7, 205440, Note_off_c, 9, 42, 95
7, 205440, Note_on_c, 9, 74, 95
7, 205440, Note_on_c, 9, 42, 95
7, 205440, Note_on_c, 9, 36, 95
7, 205920, Note_off_c, 9, 74, 95
7, 205920, Note_off_c, 9, 42, 95
7, 205920, Note_off_c, 9, 36, 95
7, 205920, Note_on_c, 9, 42, 95
7, 205920, Note_on_c, 9, 36, 95
7, 206400, Note_off_c, 9, 42, 95
7, 206400, Note_off_c, 9, 36, 95
7, 206400, Note_on_c, 9, 42, 95
7, 206400, Note_on_c, 9, 38, 95
7, 206880, Note_off_c, 9, 42, 95
7, 206880, Note_off_c, 9, 38, 95
7, 206880, Note_on_c, 9, 69, 95
7, 206880, Note_on_c, 9, 42, 95
7, 207360, Note_off_c, 9, 69, 95
7, 207360, Note_off_c, 9, 42, 95
7, 207360, Note_on_c, 9, 74, 95
7, 207360, Note_on_c, 9, 42, 95
7, 207360, Note_on_c, 9, 36, 95
7, 207840, Note_off_c, 9, 74, 95
7, 207840, Note_off_c, 9, 42, 95
7, 207840, Note_off_c, 9, 36, 95
7, 207840, Note_on_c, 9, 42, 95
7, 207840, Note_on_c, 9, 36, 95
7, 208320, Note_off_c, 9, 42, 95
7, 208320, Note_off_c, 9, 36, 95
7, 208320, Note_on_c, 9, 42, 95
7, 208320, Note_on_c, 9, 38, 95
7, 208800, Note_off_c, 9, 42, 95
7, 208800, Note_off_c, 9, 38, 95
7, 208800, Note_on_c, 9, 69, 95
7, 208800, Note_on_c, 9, 42, 95
7, 209280, Note_off_c, 9, 69, 95
7, 209280, Note_off_c, 9, 42, 95
7, 209280, Note_on_c, 9, 74, 95
7, 209280, Note_on_c, 9, 42, 95
7, 209280, Note_on_c, 9, 36, 95
7, 209760, Note_off_c, 9, 74, 95
7, 209760, Note_off_c, 9, 42, 95
7, 209760, Note_off_c, 9, 36, 95
7, 209760, Note_on_c, 9, 42, 95
7, 209760, Note_on_c, 9, 36, 95
7, 210240, Note_off_c, 9, 42, 95
7, 210240, Note_off_c, 9, 36, 95
7, 210240, Note_on_c, 9, 42, 95
7, 210240, Note_on_c, 9, 38, 95
7, 210720, Note_off_c, 9, 42, 95
7, 210720, Note_off_c, 9, 38, 95
7, 210720, Note_on_c, 9, 69, 95
7, 210720, Note_on_c, 9, 42, 95
7, 210720, Note_on_c, 9, 36, 95
7, 211200, Note_off_c, 9, 69, 95
7, 211200, Note_off_c, 9, 42, 95
7, 211200, Note_off_c, 9, 36, 95
7, 211200, Note_on_c, 9, 50, 127
7, 211680, Note_off_c, 9, 50, 127
7, 211680, Note_on_c, 9, 69, 95
7, 211680, Note_on_c, 9, 36, 111
7, 212160, Note_off_c, 9, 69, 95
7, 212160, Note_off_c, 9, 36, 111
7, 212160, Note_on_c, 9, 48, 127
7, 212640, Note_off_c, 9, 48, 127
7, 212640, Note_on_c, 9, 69, 95
7, 212640, Note_on_c, 9, 36, 111
7, 213120, Note_off_c, 9, 69, 95
7, 213120, Note_off_c, 9, 36, 111
7, 213120, Note_on_c, 9, 47, 127
7, 213600, Note_off_c, 9, 47, 127
7, 213600, Note_on_c, 9, 69, 95
7, 213600, Note_on_c, 9, 36, 111
7, 214080, Note_off_c, 9, 69, 95
7, 214080, Note_off_c, 9, 36, 111
7, 214080, Note_on_c, 9, 45, 127
7, 214560, Note_off_c, 9, 45, 127
7, 214560, Note_on_c, 9, 69, 95
7, 214560, Note_on_c, 9, 36, 111
7, 215040, Note_off_c, 9, 69, 95
7, 215040, Note_off_c, 9, 36, 111
7, 215040, Note_on_c, 9, 74, 95
7, 215040, Note_on_c, 9, 46, 95
7, 215040, Note_on_c, 9, 36, 95
7, 216000, Note_off_c, 9, 74, 95
7, 216000, Note_off_c, 9, 46, 95
7, 216000, Note_off_c, 9, 36, 95
7, 216000, Note_on_c, 9, 42, 95
7, 216000, Note_on_c, 9, 38, 95
7, 216480, Note_off_c, 9, 42, 95
7, 216480, Note_off_c, 9, 38, 95
7, 216480, Note_on_c, 9, 69, 95
7, 216480, Note_on_c, 9, 42, 95
7, 216960, Note_off_c, 9, 69, 95
7, 216960, Note_off_c, 9, 42, 95
7, 216960, Note_on_c, 9, 74, 95
7, 216960, Note_on_c, 9, 42, 95
7, 216960, Note_on_c, 9, 36, 95
7, 217440, Note_off_c, 9, 74, 95
7, 217440, Note_off_c, 9, 42, 95
7, 217440, Note_off_c, 9, 36, 95
7, 217440, Note_on_c, 9, 42, 95
7, 217440, Note_on_c, 9, 36, 95
7, 217920, Note_off_c, 9, 42, 95
7, 217920, Note_off_c, 9, 36, 95
7, 217920, Note_on_c, 9, 42, 95
7, 217920, Note_on_c, 9, 38, 95
7, 218400, Note_off_c, 9, 42, 95
7, 218400, Note_off_c, 9, 38, 95
7, 218400, Note_on_c, 9, 69, 95
7, 218400, Note_on_c, 9, 42, 95
7, 218880, Note_off_c, 9, 69, 95
7, 218880, Note_off_c, 9, 42, 95
7, 218880, Note_on_c, 9, 74, 95
7, 218880, Note_on_c, 9, 42, 95
7, 218880, Note_on_c, 9, 36, 95
7, 219360, Note_off_c, 9, 74, 95
7, 219360, Note_off_c, 9, 42, 95
7, 219360, Note_off_c, 9, 36, 95
7, 219360, Note_on_c, 9, 42, 95
7, 219360, Note_on_c, 9, 36, 95
7, 219840, Note_off_c, 9, 42, 95
7, 219840, Note_off_c, 9, 36, 95
7, 219840, Note_on_c, 9, 42, 95
7, 219840, Note_on_c, 9, 38, 95
7, 220320, Note_off_c, 9, 42, 95
7, 220320, Note_off_c, 9, 38, 95
7, 220320, Note_on_c, 9, 69, 95
7, 220320, Note_on_c, 9, 42, 95
7, 220800, Note_off_c, 9, 69, 95
7, 220800, Note_off_c, 9, 42, 95
7, 220800, Note_on_c, 9, 74, 95
7, 220800, Note_on_c, 9, 42, 95
7, 220800, Note_on_c, 9, 36, 95
7, 221280, Note_off_c, 9, 74, 95
7, 221280, Note_off_c, 9, 42, 95
7, 221280, Note_off_c, 9, 36, 95
7, 221280, Note_on_c, 9, 42, 95
7, 221280, Note_on_c, 9, 36, 95
7, 221760, Note_off_c, 9, 42, 95
7, 221760, Note_off_c, 9, 36, 95
7, 221760, Note_on_c, 9, 42, 95
7, 221760, Note_on_c, 9, 38, 95
7, 222240, Note_off_c, 9, 42, 95
7, 222240, Note_off_c, 9, 38, 95
7, 222240, Note_on_c, 9, 69, 95
7, 222240, Note_on_c, 9, 42, 95
7, 222720, Note_off_c, 9, 69, 95
7, 222720, Note_off_c, 9, 42, 95
7, 222720, Note_on_c, 9, 74, 95
7, 222720, Note_on_c, 9, 42, 95
7, 222720, Note_on_c, 9, 36, 95
7, 223200, Note_off_c, 9, 74, 95
7, 223200, Note_off_c, 9, 42, 95
7, 223200, Note_off_c, 9, 36, 95
7, 223200, Note_on_c, 9, 42, 95
7, 223200, Note_on_c, 9, 36, 95
7, 223680, Note_off_c, 9, 42, 95
7, 223680, Note_off_c, 9, 36, 95
7, 223680, Note_on_c, 9, 42, 95
7, 223680, Note_on_c, 9, 38, 95
7, 224160, Note_off_c, 9, 42, 95
7, 224160, Note_off_c, 9, 38, 95
7, 224160, Note_on_c, 9, 69, 95
7, 224160, Note_on_c, 9, 42, 95
7, 224640, Note_off_c, 9, 69, 95
7, 224640, Note_off_c, 9, 42, 95
7, 224640, Note_on_c, 9, 74, 95
7, 224640, Note_on_c, 9, 42, 95
7, 224640, Note_on_c, 9, 36, 95
7, 225120, Note_off_c, 9, 74, 95
7, 225120, Note_off_c, 9, 42, 95
7, 225120, Note_off_c, 9, 36, 95
7, 225120, Note_on_c, 9, 42, 95
7, 225120, Note_on_c, 9, 36, 95
7, 225600, Note_off_c, 9, 42, 95
7, 225600, Note_off_c, 9, 36, 95
7, 225600, Note_on_c, 9, 42, 95
7, 225600, Note_on_c, 9, 38, 95
7, 226080, Note_off_c, 9, 42, 95
7, 226080, Note_off_c, 9, 38, 95
7, 226080, Note_on_c, 9, 69, 95
7, 226080, Note_on_c, 9, 42, 95
7, 226080, Note_on_c, 9, 36, 95
7, 226560, Note_off_c, 9, 69, 95
7, 226560, Note_off_c, 9, 42, 95
7, 226560, Note_off_c, 9, 36, 95
7, 226560, Note_on_c, 9, 50, 127
7, 227040, Note_off_c, 9, 50, 127
7, 227040, Note_on_c, 9, 69, 95
7, 227040, Note_on_c, 9, 36, 111
7, 227520, Note_off_c, 9, 69, 95
7, 227520, Note_off_c, 9, 36, 111
7, 227520, Note_on_c, 9, 48, 127
7, 228000, Note_off_c, 9, 48, 127
7, 228000, Note_on_c, 9, 69, 95
7, 228000, Note_on_c, 9, 36, 111
7, 228480, Note_off_c, 9, 69, 95
7, 228480, Note_off_c, 9, 36, 111
7, 228480, Note_on_c, 9, 47, 127
7, 228960, Note_off_c, 9, 47, 127
7, 228960, Note_on_c, 9, 69, 95
7, 228960, Note_on_c, 9, 36, 111
7, 229440, Note_off_c, 9, 69, 95
7, 229440, Note_off_c, 9, 36, 111
7, 229440, Note_on_c, 9, 45, 127
7, 229920, Note_off_c, 9, 45, 127
7, 229920, Note_on_c, 9, 69, 95
7, 229920, Note_on_c, 9, 36, 111
7, 230400, Note_off_c, 9, 69, 95
7, 230400, Note_off_c, 9, 36, 111
7, 230400, Note_on_c, 9, 74, 95
7, 230400, Note_on_c, 9, 70, 95
7, 230400, Note_on_c, 9, 46, 95
7, 230400, Note_on_c, 9, 36, 95
7, 230640, Note_off_c, 9, 74, 95
7, 230640, Note_off_c, 9, 70, 95
7, 230640, Note_off_c, 9, 46, 95
7, 230640, Note_off_c, 9, 36, 95
7, 230640, Note_on_c, 9, 70, 95
7, 230880, Note_off_c, 9, 70, 95
7, 230880, Note_on_c, 9, 70, 95
7, 231120, Note_off_c, 9, 70, 95
7, 231120, Note_on_c, 9, 70, 95
7, 231360, Note_off_c, 9, 70, 95
7, 231360, Note_on_c, 9, 70, 95
7, 231360, Note_on_c, 9, 42, 95
7, 231360, Note_on_c, 9, 38, 95
7, 231600, Note_off_c, 9, 70, 95
7, 231600, Note_off_c, 9, 42, 95
7, 231600, Note_off_c, 9, 38, 95
7, 231600, Note_on_c, 9, 70, 95
7, 231840, Note_off_c, 9, 70, 95
7, 231840, Note_on_c, 9, 70, 95
7, 231840, Note_on_c, 9, 42, 95
7, 232080, Note_off_c, 9, 70, 95
7, 232080, Note_off_c, 9, 42, 95
7, 232080, Note_on_c, 9, 70, 95
7, 232320, Note_off_c, 9, 70, 95
7, 232320, Note_on_c, 9, 74, 95
7, 232320, Note_on_c, 9, 70, 95
7, 232320, Note_on_c, 9, 42, 95
7, 232320, Note_on_c, 9, 36, 95
7, 232560, Note_off_c, 9, 74, 95
7, 232560, Note_off_c, 9, 70, 95
7, 232560, Note_off_c, 9, 42, 95
7, 232560, Note_off_c, 9, 36, 95
7, 232560, Note_on_c, 9, 70, 95
7, 232800, Note_off_c, 9, 70, 95
7, 232800, Note_on_c, 9, 70, 95
7, 232800, Note_on_c, 9, 42, 95
7, 232800, Note_on_c, 9, 36, 95
7, 233040, Note_off_c, 9, 70, 95
7, 233040, Note_off_c, 9, 42, 95
7, 233040, Note_off_c, 9, 36, 95
7, 233040, Note_on_c, 9, 70, 95
7, 233280, Note_off_c, 9, 70, 95
7, 233280, Note_on_c, 9, 70, 95
7, 233280, Note_on_c, 9, 42, 95
7, 233280, Note_on_c, 9, 38, 95
7, 233520, Note_off_c, 9, 70, 95
7, 233520, Note_off_c, 9, 42, 95
7, 233520, Note_off_c, 9, 38, 95
7, 233520, Note_on_c, 9, 70, 95
7, 233760, Note_off_c, 9, 70, 95
7, 233760, Note_on_c, 9, 70, 95
7, 233760, Note_on_c, 9, 42, 95
7, 234000, Note_off_c, 9, 70, 95
7, 234000, Note_off_c, 9, 42, 95
7, 234000, Note_on_c, 9, 70, 95
7, 234240, Note_off_c, 9, 70, 95
7, 234240, Note_on_c, 9, 74, 95
7, 234240, Note_on_c, 9, 70, 95
7, 234240, Note_on_c, 9, 42, 95
7, 234240, Note_on_c, 9, 36, 95
7, 234480, Note_off_c, 9, 74, 95
7, 234480, Note_off_c, 9, 70, 95
7, 234480, Note_off_c, 9, 42, 95
7, 234480, Note_off_c, 9, 36, 95
7, 234480, Note_on_c, 9, 70, 95
7, 234720, Note_off_c, 9, 70, 95
7, 234720, Note_on_c, 9, 70, 95
7, 234720, Note_on_c, 9, 42, 95
7, 234720, Note_on_c, 9, 36, 95
7, 234960, Note_off_c, 9, 70, 95
7, 234960, Note_off_c, 9, 42, 95
7, 234960, Note_off_c, 9, 36, 95
7, 234960, Note_on_c, 9, 70, 95
7, 235200, Note_off_c, 9, 70, 95
7, 235200, Note_on_c, 9, 70, 95
7, 235200, Note_on_c, 9, 42, 95
7, 235200, Note_on_c, 9, 38, 95
7, 235440, Note_off_c, 9, 70, 95
7, 235440, Note_off_c, 9, 42, 95
7, 235440, Note_off_c, 9, 38, 95
7, 235440, Note_on_c, 9, 70, 95
7, 235680, Note_off_c, 9, 70, 95
7, 235680, Note_on_c, 9, 70, 95
7, 235680, Note_on_c, 9, 42, 95
7, 235920, Note_off_c, 9, 70, 95
7, 235920, Note_off_c, 9, 42, 95
7, 235920, Note_on_c, 9, 70, 95
7, 236160, Note_off_c, 9, 70, 95
7, 236160, Note_on_c, 9, 74, 95
7, 236160, Note_on_c, 9, 70, 95
7, 236160, Note_on_c, 9, 42, 95
7, 236160, Note_on_c, 9, 36, 95
7, 236400, Note_off_c, 9, 74, 95
7, 236400, Note_off_c, 9, 70, 95
7, 236400, Note_off_c, 9, 42, 95
7, 236400, Note_off_c, 9, 36, 95
7, 236400, Note_on_c, 9, 70, 95
7, 236640, Note_off_c, 9, 70, 95
7, 236640, Note_on_c, 9, 70, 95
7, 236640, Note_on_c, 9, 42, 95
7, 236640, Note_on_c, 9, 36, 95
7, 236880, Note_off_c, 9, 70, 95
7, 236880, Note_off_c, 9, 42, 95
7, 236880, Note_off_c, 9, 36, 95
7, 236880, Note_on_c, 9, 70, 95
7, 237120, Note_off_c, 9, 70, 95
7, 237120, Note_on_c, 9, 70, 95
7, 237120, Note_on_c, 9, 42, 95
7, 237120, Note_on_c, 9, 38, 95
7, 237360, Note_off_c, 9, 70, 95
7, 237360, Note_off_c, 9, 42, 95
7, 237360, Note_off_c, 9, 38, 95
7, 237360, Note_on_c, 9, 70, 95
7, 237600, Note_off_c, 9, 70, 95
7, 237600, Note_on_c, 9, 70, 95
7, 237600, Note_on_c, 9, 42, 95
7, 237600, Note_on_c, 9, 36, 95
7, 237840, Note_off_c, 9, 70, 95
7, 237840, Note_off_c, 9, 42, 95
7, 237840, Note_off_c, 9, 36, 95
7, 237840, Note_on_c, 9, 70, 95
7, 238080, Note_off_c, 9, 70, 95
7, 238080, Note_on_c, 9, 74, 95
7, 238080, Note_on_c, 9, 70, 95
7, 238080, Note_on_c, 9, 42, 95
7, 238080, Note_on_c, 9, 36, 95
7, 238320, Note_off_c, 9, 74, 95
7, 238320, Note_off_c, 9, 70, 95
7, 238320, Note_off_c, 9, 42, 95
7, 238320, Note_off_c, 9, 36, 95
7, 238320, Note_on_c, 9, 70, 95
7, 238560, Note_off_c, 9, 70, 95
7, 238560, Note_on_c, 9, 70, 95
7, 238560, Note_on_c, 9, 42, 95
7, 238800, Note_off_c, 9, 70, 95
7, 238800, Note_off_c, 9, 42, 95
7, 238800, Note_on_c, 9, 70, 95
7, 239040, Note_off_c, 9, 70, 95
7, 239040, Note_on_c, 9, 70, 95
7, 239040, Note_on_c, 9, 42, 95
7, 239040, Note_on_c, 9, 38, 95
7, 239280, Note_off_c, 9, 70, 95
7, 239280, Note_off_c, 9, 42, 95
7, 239280, Note_off_c, 9, 38, 95
7, 239280, Note_on_c, 9, 70, 95
7, 239520, Note_off_c, 9, 70, 95
7, 239520, Note_on_c, 9, 70, 95
7, 239520, Note_on_c, 9, 42, 95
7, 239760, Note_off_c, 9, 70, 95
7, 239760, Note_off_c, 9, 42, 95
7, 239760, Note_on_c, 9, 70, 95
7, 240000, Note_off_c, 9, 70, 95
7, 240000, Note_on_c, 9, 74, 95
7, 240000, Note_on_c, 9, 70, 95
7, 240000, Note_on_c, 9, 42, 95
7, 240000, Note_on_c, 9, 36, 95
7, 240240, Note_off_c, 9, 74, 95
7, 240240, Note_off_c, 9, 70, 95
7, 240240, Note_off_c, 9, 42, 95
7, 240240, Note_off_c, 9, 36, 95
7, 240240, Note_on_c, 9, 70, 95
7, 240480, Note_off_c, 9, 70, 95
7, 240480, Note_on_c, 9, 70, 95
7, 240480, Note_on_c, 9, 42, 95
7, 240480, Note_on_c, 9, 36, 95
7, 240720, Note_off_c, 9, 70, 95
7, 240720, Note_off_c, 9, 42, 95
7, 240720, Note_off_c, 9, 36, 95
7, 240720, Note_on_c, 9, 70, 95
7, 240960, Note_off_c, 9, 70, 95
7, 240960, Note_on_c, 9, 70, 95
7, 240960, Note_on_c, 9, 42, 95
7, 240960, Note_on_c, 9, 38, 95
7, 241200, Note_off_c, 9, 70, 95
7, 241200, Note_off_c, 9, 42, 95
7, 241200, Note_off_c, 9, 38, 95
7, 241200, Note_on_c, 9, 70, 95
7, 241440, Note_off_c, 9, 70, 95
7, 241440, Note_on_c, 9, 70, 95
7, 241440, Note_on_c, 9, 42, 95
7, 241680, Note_off_c, 9, 70, 95
7, 241680, Note_off_c, 9, 42, 95
7, 241680, Note_on_c, 9, 70, 95
7, 241920, Note_off_c, 9, 70, 95
7, 241920, Note_on_c, 9, 74, 95
7, 241920, Note_on_c, 9, 70, 95
7, 241920, Note_on_c, 9, 42, 95
7, 241920, Note_on_c, 9, 36, 95
7, 242160, Note_off_c, 9, 74, 95
7, 242160, Note_off_c, 9, 70, 95
7, 242160, Note_off_c, 9, 42, 95
7, 242160, Note_off_c, 9, 36, 95
7, 242160, Note_on_c, 9, 70, 95
7, 242400, Note_off_c, 9, 70, 95
7, 242400, Note_on_c, 9, 70, 95
7, 242400, Note_on_c, 9, 42, 95
7, 242640, Note_off_c, 9, 70, 95
7, 242640, Note_off_c, 9, 42, 95
7, 242640, Note_on_c, 9, 70, 95
7, 242880, Note_off_c, 9, 70, 95
7, 242880, Note_on_c, 9, 70, 95
7, 242880, Note_on_c, 9, 42, 95
7, 242880, Note_on_c, 9, 38, 95
7, 243120, Note_off_c, 9, 70, 95
7, 243120, Note_off_c, 9, 42, 95
7, 243120, Note_off_c, 9, 38, 95
7, 243120, Note_on_c, 9, 70, 95
7, 243360, Note_off_c, 9, 70, 95
7, 243360, Note_on_c, 9, 70, 95
7, 243360, Note_on_c, 9, 42, 95
7, 243600, Note_off_c, 9, 70, 95
7, 243600, Note_off_c, 9, 42, 95
7, 243600, Note_on_c, 9, 70, 95
7, 243840, Note_off_c, 9, 70, 95
7, 243840, Note_on_c, 9, 74, 95
7, 243840, Note_on_c, 9, 70, 95
7, 243840, Note_on_c, 9, 42, 95
7, 243840, Note_on_c, 9, 36, 95
7, 244080, Note_off_c, 9, 74, 95
7, 244080, Note_off_c, 9, 70, 95
7, 244080, Note_off_c, 9, 42, 95
7, 244080, Note_off_c, 9, 36, 95
7, 244080, Note_on_c, 9, 70, 95
7, 244320, Note_off_c, 9, 70, 95
7, 244320, Note_on_c, 9, 70, 95
7, 244320, Note_on_c, 9, 42, 95
7, 244320, Note_on_c, 9, 36, 95
7, 244560, Note_off_c, 9, 70, 95
7, 244560, Note_off_c, 9, 42, 95
7, 244560, Note_off_c, 9, 36, 95
7, 244560, Note_on_c, 9, 70, 95
7, 244800, Note_off_c, 9, 70, 95
7, 244800, Note_on_c, 9, 70, 95
7, 244800, Note_on_c, 9, 42, 95
7, 244800, Note_on_c, 9, 38, 95
7, 245040, Note_off_c, 9, 70, 95
7, 245040, Note_off_c, 9, 42, 95
7, 245040, Note_off_c, 9, 38, 95
7, 245040, Note_on_c, 9, 70, 95
7, 245280, Note_off_c, 9, 70, 95
7, 245280, Note_on_c, 9, 70, 95
7, 245280, Note_on_c, 9, 42, 95
7, 245280, Note_on_c, 9, 36, 95
7, 245520, Note_off_c, 9, 70, 95
7, 245520, Note_off_c, 9, 42, 95
7, 245520, Note_off_c, 9, 36, 95
7, 245520, Note_on_c, 9, 70, 95
7, 245760, Note_off_c, 9, 70, 95
7, 245760, Note_on_c, 9, 74, 95
7, 245760, Note_on_c, 9, 70, 95
7, 245760, Note_on_c, 9, 42, 95
7, 245760, Note_on_c, 9, 36, 95
7, 246000, Note_off_c, 9, 74, 95
7, 246000, Note_off_c, 9, 70, 95
7, 246000, Note_off_c, 9, 42, 95
7, 246000, Note_off_c, 9, 36, 95
7, 246000, Note_on_c, 9, 70, 95
7, 246240, Note_off_c, 9, 70, 95
7, 246240, Note_on_c, 9, 70, 95
7, 246240, Note_on_c, 9, 42, 95
7, 246480, Note_off_c, 9, 70, 95
7, 246480, Note_off_c, 9, 42, 95
7, 246480, Note_on_c, 9, 70, 95
7, 246720, Note_off_c, 9, 70, 95
7, 246720, Note_on_c, 9, 70, 95
7, 246720, Note_on_c, 9, 42, 95
7, 246720, Note_on_c, 9, 38, 95
7, 246960, Note_off_c, 9, 70, 95
7, 246960, Note_off_c, 9, 42, 95
7, 246960, Note_off_c, 9, 38, 95
7, 246960, Note_on_c, 9, 70, 95
7, 247200, Note_off_c, 9, 70, 95
7, 247200, Note_on_c, 9, 70, 95
7, 247200, Note_on_c, 9, 42, 95
7, 247440, Note_off_c, 9, 70, 95
7, 247440, Note_off_c, 9, 42, 95
7, 247440, Note_on_c, 9, 70, 95
7, 247680, Note_off_c, 9, 70, 95
7, 247680, Note_on_c, 9, 74, 95
7, 247680, Note_on_c, 9, 70, 95
7, 247680, Note_on_c, 9, 42, 95
7, 247680, Note_on_c, 9, 36, 95
7, 247920, Note_off_c, 9, 74, 95
7, 247920, Note_off_c, 9, 70, 95
7, 247920, Note_off_c, 9, 42, 95
7, 247920, Note_off_c, 9, 36, 95
7, 247920, Note_on_c, 9, 70, 95
7, 248160, Note_off_c, 9, 70, 95
7, 248160, Note_on_c, 9, 70, 95
7, 248160, Note_on_c, 9, 42, 95
7, 248160, Note_on_c, 9, 36, 95
7, 248400, Note_off_c, 9, 70, 95
7, 248400, Note_off_c, 9, 42, 95
7, 248400, Note_off_c, 9, 36, 95
7, 248400, Note_on_c, 9, 70, 95
7, 248640, Note_off_c, 9, 70, 95
7, 248640, Note_on_c, 9, 70, 95
7, 248640, Note_on_c, 9, 42, 95
7, 248640, Note_on_c, 9, 38, 95
7, 248880, Note_off_c, 9, 70, 95
7, 248880, Note_off_c, 9, 42, 95
7, 248880, Note_off_c, 9, 38, 95
7, 248880, Note_on_c, 9, 70, 95
7, 249120, Note_off_c, 9, 70, 95
7, 249120, Note_on_c, 9, 70, 95
7, 249120, Note_on_c, 9, 42, 95
7, 249360, Note_off_c, 9, 70, 95
7, 249360, Note_off_c, 9, 42, 95
7, 249360, Note_on_c, 9, 70, 95
7, 249600, Note_off_c, 9, 70, 95
7, 249600, Note_on_c, 9, 74, 95
7, 249600, Note_on_c, 9, 70, 95
7, 249600, Note_on_c, 9, 42, 95
7, 249600, Note_on_c, 9, 36, 95
7, 249840, Note_off_c, 9, 74, 95
7, 249840, Note_off_c, 9, 70, 95
7, 249840, Note_off_c, 9, 42, 95
7, 249840, Note_off_c, 9, 36, 95
7, 249840, Note_on_c, 9, 70, 95
7, 250080, Note_off_c, 9, 70, 95
7, 250080, Note_on_c, 9, 70, 95
7, 250080, Note_on_c, 9, 42, 95
7, 250080, Note_on_c, 9, 36, 95
7, 250320, Note_off_c, 9, 70, 95
7, 250320, Note_off_c, 9, 42, 95
7, 250320, Note_off_c, 9, 36, 95
7, 250320, Note_on_c, 9, 70, 95
7, 250560, Note_off_c, 9, 70, 95
7, 250560, Note_on_c, 9, 70, 95
7, 250560, Note_on_c, 9, 42, 95
7, 250560, Note_on_c, 9, 38, 95
7, 250800, Note_off_c, 9, 70, 95
7, 250800, Note_off_c, 9, 42, 95
7, 250800, Note_off_c, 9, 38, 95
7, 250800, Note_on_c, 9, 70, 95
7, 251040, Note_off_c, 9, 70, 95
7, 251040, Note_on_c, 9, 70, 95
7, 251040, Note_on_c, 9, 42, 95
7, 251280, Note_off_c, 9, 70, 95
7, 251280, Note_off_c, 9, 42, 95
7, 251280, Note_on_c, 9, 70, 95
7, 251520, Note_off_c, 9, 70, 95
7, 251520, Note_on_c, 9, 74, 95
7, 251520, Note_on_c, 9, 70, 95
7, 251520, Note_on_c, 9, 42, 95
7, 251520, Note_on_c, 9, 36, 95
7, 251760, Note_off_c, 9, 74, 95
7, 251760, Note_off_c, 9, 70, 95
7, 251760, Note_off_c, 9, 42, 95
7, 251760, Note_off_c, 9, 36, 95
7, 251760, Note_on_c, 9, 70, 95
7, 252000, Note_off_c, 9, 70, 95
7, 252000, Note_on_c, 9, 70, 95
7, 252000, Note_on_c, 9, 42, 95
7, 252000, Note_on_c, 9, 36, 95
7, 252240, Note_off_c, 9, 70, 95
7, 252240, Note_off_c, 9, 42, 95
7, 252240, Note_off_c, 9, 36, 95
7, 252240, Note_on_c, 9, 70, 95
7, 252480, Note_off_c, 9, 70, 95
7, 252480, Note_on_c, 9, 70, 95
7, 252480, Note_on_c, 9, 42, 95
7, 252480, Note_on_c, 9, 38, 95
7, 252720, Note_off_c, 9, 70, 95
7, 252720, Note_off_c, 9, 42, 95
7, 252720, Note_off_c, 9, 38, 95
7, 252720, Note_on_c, 9, 70, 95
7, 252960, Note_off_c, 9, 70, 95
7, 252960, Note_on_c, 9, 70, 95
7, 252960, Note_on_c, 9, 42, 95
7, 252960, Note_on_c, 9, 36, 95
7, 253200, Note_off_c, 9, 70, 95
7, 253200, Note_off_c, 9, 42, 95
7, 253200, Note_off_c, 9, 36, 95
7, 253200, Note_on_c, 9, 70, 95
7, 253440, Note_off_c, 9, 70, 95
7, 253440, Note_on_c, 9, 74, 95
7, 253440, Note_on_c, 9, 70, 95
7, 253440, Note_on_c, 9, 42, 95
7, 253440, Note_on_c, 9, 36, 95
7, 253680, Note_off_c, 9, 74, 95
7, 253680, Note_off_c, 9, 70, 95
7, 253680, Note_off_c, 9, 42, 95
7, 253680, Note_off_c, 9, 36, 95
7, 253680, Note_on_c, 9, 70, 95
7, 253920, Note_off_c, 9, 70, 95
7, 253920, Note_on_c, 9, 70, 95
7, 253920, Note_on_c, 9, 42, 95
7, 254160, Note_off_c, 9, 70, 95
7, 254160, Note_off_c, 9, 42, 95
7, 254160, Note_on_c, 9, 70, 95
7, 254400, Note_off_c, 9, 70, 95
7, 254400, Note_on_c, 9, 70, 95
7, 254400, Note_on_c, 9, 42, 95
7, 254400, Note_on_c, 9, 38, 95
7, 254640, Note_off_c, 9, 70, 95
7, 254640, Note_off_c, 9, 42, 95
7, 254640, Note_off_c, 9, 38, 95
7, 254640, Note_on_c, 9, 70, 95
7, 254880, Note_off_c, 9, 70, 95
7, 254880, Note_on_c, 9, 70, 95
7, 254880, Note_on_c, 9, 42, 95
7, 255120, Note_off_c, 9, 70, 95
7, 255120, Note_off_c, 9, 42, 95
7, 255120, Note_on_c, 9, 70, 95
7, 255360, Note_off_c, 9, 70, 95
7, 255360, Note_on_c, 9, 74, 95
7, 255360, Note_on_c, 9, 70, 95
7, 255360, Note_on_c, 9, 42, 95
7, 255360, Note_on_c, 9, 36, 95
7, 255600, Note_off_c, 9, 74, 95
7, 255600, Note_off_c, 9, 70, 95
7, 255600, Note_off_c, 9, 42, 95
7, 255600, Note_off_c, 9, 36, 95
7, 255600, Note_on_c, 9, 70, 95
7, 255840, Note_off_c, 9, 70, 95
7, 255840, Note_on_c, 9, 70, 95
7, 255840, Note_on_c, 9, 42, 95
7, 255840, Note_on_c, 9, 36, 95
7, 256080, Note_off_c, 9, 70, 95
7, 256080, Note_off_c, 9, 42, 95
7, 256080, Note_off_c, 9, 36, 95
7, 256080, Note_on_c, 9, 70, 95
7, 256320, Note_off_c, 9, 70, 95
7, 256320, Note_on_c, 9, 70, 95
7, 256320, Note_on_c, 9, 42, 95
7, 256320, Note_on_c, 9, 38, 95
7, 256560, Note_off_c, 9, 70, 95
7, 256560, Note_off_c, 9, 42, 95
7, 256560, Note_off_c, 9, 38, 95
7, 256560, Note_on_c, 9, 70, 95
7, 256800, Note_off_c, 9, 70, 95
7, 256800, Note_on_c, 9, 70, 95
7, 256800, Note_on_c, 9, 42, 95
7, 256800, Note_on_c, 9, 36, 95
7, 257040, Note_off_c, 9, 70, 95
7, 257040, Note_off_c, 9, 42, 95
7, 257040, Note_off_c, 9, 36, 95
7, 257040, Note_on_c, 9, 70, 95
7, 257280, Note_off_c, 9, 70, 95
7, 257280, Note_on_c, 9, 74, 95
7, 257280, Note_on_c, 9, 70, 95
7, 257280, Note_on_c, 9, 42, 95
7, 257280, Note_on_c, 9, 36, 95
7, 257520, Note_off_c, 9, 74, 95
7, 257520, Note_off_c, 9, 70, 95
7, 257520, Note_off_c, 9, 42, 95
7, 257520, Note_off_c, 9, 36, 95
7, 257520, Note_on_c, 9, 70, 95
7, 257760, Note_off_c, 9, 70, 95
7, 257760, Note_on_c, 9, 70, 95
7, 257760, Note_on_c, 9, 42, 95
7, 257760, Note_on_c, 9, 36, 95
7, 258000, Note_off_c, 9, 70, 95
7, 258000, Note_off_c, 9, 42, 95
7, 258000, Note_off_c, 9, 36, 95
7, 258000, Note_on_c, 9, 70, 95
7, 258240, Note_off_c, 9, 70, 95
7, 258240, Note_on_c, 9, 70, 95
7, 258240, Note_on_c, 9, 42, 95
7, 258240, Note_on_c, 9, 38, 95
7, 258480, Note_off_c, 9, 70, 95
7, 258480, Note_off_c, 9, 42, 95
7, 258480, Note_off_c, 9, 38, 95
7, 258480, Note_on_c, 9, 70, 95
7, 258720, Note_off_c, 9, 70, 95
7, 258720, Note_on_c, 9, 70, 95
7, 258720, Note_on_c, 9, 42, 95
7, 258720, Note_on_c, 9, 36, 95
7, 258960, Note_off_c, 9, 70, 95
7, 258960, Note_off_c, 9, 42, 95
7, 258960, Note_off_c, 9, 36, 95
7, 258960, Note_on_c, 9, 70, 95
7, 259200, Note_off_c, 9, 70, 95
7, 259200, Note_on_c, 9, 74, 95
7, 259200, Note_on_c, 9, 70, 95
7, 259200, Note_on_c, 9, 38, 95
7, 259200, Note_on_c, 9, 38, 95
7, 259440, Note_off_c, 9, 74, 95
7, 259440, Note_off_c, 9, 70, 95
7, 259440, Note_off_c, 9, 38, 95
7, 259440, Note_off_c, 9, 38, 95
7, 259440, Note_on_c, 9, 70, 95
7, 259680, Note_off_c, 9, 70, 95
7, 259680, Note_on_c, 9, 70, 95
7, 259680, Note_on_c, 9, 36, 95
7, 259920, Note_off_c, 9, 70, 95
7, 259920, Note_off_c, 9, 36, 95
7, 259920, Note_on_c, 9, 70, 95
7, 260160, Note_off_c, 9, 70, 95
7, 260160, Note_on_c, 9, 70, 95
7, 260160, Note_on_c, 9, 38, 95
7, 260160, Note_on_c, 9, 38, 95
7, 260400, Note_off_c, 9, 70, 95
7, 260400, Note_off_c, 9, 38, 95
7, 260400, Note_off_c, 9, 38, 95
7, 260400, Note_on_c, 9, 70, 95
7, 260640, Note_off_c, 9, 70, 95
7, 260640, Note_on_c, 9, 70, 95
7, 260640, Note_on_c, 9, 36, 95
7, 260880, Note_off_c, 9, 70, 95
7, 260880, Note_off_c, 9, 36, 95
7, 260880, Note_on_c, 9, 70, 95
7, 261120, Note_off_c, 9, 70, 95
7, 261120, Note_on_c, 9, 74, 95
7, 261120, Note_on_c, 9, 70, 95
7, 261120, Note_on_c, 9, 46, 95
7, 261120, Note_on_c, 9, 36, 95
7, 261360, Note_off_c, 9, 74, 95
7, 261360, Note_off_c, 9, 70, 95
7, 261360, Note_off_c, 9, 46, 95
7, 261360, Note_off_c, 9, 36, 95
7, 261360, Note_on_c, 9, 70, 95
7, 261600, Note_off_c, 9, 70, 95
7, 261600, Note_on_c, 9, 70, 95
7, 261840, Note_off_c, 9, 70, 95
7, 261840, Note_on_c, 9, 70, 95
7, 262080, Note_off_c, 9, 70, 95
7, 262080, Note_on_c, 9, 70, 95
7, 262080, Note_on_c, 9, 42, 95
7, 262080, Note_on_c, 9, 38, 95
7, 262320, Note_off_c, 9, 70, 95
7, 262320, Note_off_c, 9, 42, 95
7, 262320, Note_off_c, 9, 38, 95
7, 262320, Note_on_c, 9, 70, 95
7, 262560, Note_off_c, 9, 70, 95
7, 262560, Note_on_c, 9, 70, 95
7, 262560, Note_on_c, 9, 42, 95
7, 262800, Note_off_c, 9, 70, 95
7, 262800, Note_off_c, 9, 42, 95
7, 262800, Note_on_c, 9, 70, 95
7, 263040, Note_off_c, 9, 70, 95
7, 263040, Note_on_c, 9, 74, 95
7, 263040, Note_on_c, 9, 70, 95
7, 263040, Note_on_c, 9, 42, 95
7, 263040, Note_on_c, 9, 36, 95
7, 263280, Note_off_c, 9, 74, 95
7, 263280, Note_off_c, 9, 70, 95
7, 263280, Note_off_c, 9, 42, 95
7, 263280, Note_off_c, 9, 36, 95
7, 263280, Note_on_c, 9, 70, 95
7, 263520, Note_off_c, 9, 70, 95
7, 263520, Note_on_c, 9, 70, 95
7, 263520, Note_on_c, 9, 42, 95
7, 263520, Note_on_c, 9, 36, 95
7, 263760, Note_off_c, 9, 70, 95
7, 263760, Note_off_c, 9, 42, 95
7, 263760, Note_off_c, 9, 36, 95
7, 263760, Note_on_c, 9, 70, 95
7, 264000, Note_off_c, 9, 70, 95
7, 264000, Note_on_c, 9, 70, 95
7, 264000, Note_on_c, 9, 42, 95
7, 264000, Note_on_c, 9, 38, 95
7, 264240, Note_off_c, 9, 70, 95
7, 264240, Note_off_c, 9, 42, 95
7, 264240, Note_off_c, 9, 38, 95
7, 264240, Note_on_c, 9, 70, 95
7, 264480, Note_off_c, 9, 70, 95
7, 264480, Note_on_c, 9, 70, 95
7, 264480, Note_on_c, 9, 42, 95
7, 264720, Note_off_c, 9, 70, 95
7, 264720, Note_off_c, 9, 42, 95
7, 264720, Note_on_c, 9, 70, 95
7, 264960, Note_off_c, 9, 70, 95
7, 264960, Note_on_c, 9, 74, 95
7, 264960, Note_on_c, 9, 70, 95
7, 264960, Note_on_c, 9, 42, 95
7, 264960, Note_on_c, 9, 36, 95
7, 265200, Note_off_c, 9, 74, 95
7, 265200, Note_off_c, 9, 70, 95
7, 265200, Note_off_c, 9, 42, 95
7, 265200, Note_off_c, 9, 36, 95
7, 265200, Note_on_c, 9, 70, 95
7, 265440, Note_off_c, 9, 70, 95
7, 265440, Note_on_c, 9, 70, 95
7, 265440, Note_on_c, 9, 42, 95
7, 265440, Note_on_c, 9, 36, 95
7, 265680, Note_off_c, 9, 70, 95
7, 265680, Note_off_c, 9, 42, 95
7, 265680, Note_off_c, 9, 36, 95
7, 265680, Note_on_c, 9, 70, 95
7, 265920, Note_off_c, 9, 70, 95
7, 265920, Note_on_c, 9, 70, 95
7, 265920, Note_on_c, 9, 42, 95
7, 265920, Note_on_c, 9, 38, 95
7, 266160, Note_off_c, 9, 70, 95
7, 266160, Note_off_c, 9, 42, 95
7, 266160, Note_off_c, 9, 38, 95
7, 266160, Note_on_c, 9, 70, 95
7, 266400, Note_off_c, 9, 70, 95
7, 266400, Note_on_c, 9, 70, 95
7, 266400, Note_on_c, 9, 42, 95
7, 266640, Note_off_c, 9, 70, 95
7, 266640, Note_off_c, 9, 42, 95
7, 266640, Note_on_c, 9, 70, 95
7, 266880, Note_off_c, 9, 70, 95
7, 266880, Note_on_c, 9, 74, 95
7, 266880, Note_on_c, 9, 70, 95
7, 266880, Note_on_c, 9, 42, 95
7, 266880, Note_on_c, 9, 36, 95
7, 267120, Note_off_c, 9, 74, 95
7, 267120, Note_off_c, 9, 70, 95
7, 267120, Note_off_c, 9, 42, 95
7, 267120, Note_off_c, 9, 36, 95
7, 267120, Note_on_c, 9, 70, 95
7, 267360, Note_off_c, 9, 70, 95
7, 267360, Note_on_c, 9, 70, 95
7, 267360, Note_on_c, 9, 42, 95
7, 267360, Note_on_c, 9, 36, 95
7, 267600, Note_off_c, 9, 70, 95
7, 267600, Note_off_c, 9, 42, 95
7, 267600, Note_off_c, 9, 36, 95
7, 267600, Note_on_c, 9, 70, 95
7, 267840, Note_off_c, 9, 70, 95
7, 267840, Note_on_c, 9, 70, 95
7, 267840, Note_on_c, 9, 42, 95
7, 267840, Note_on_c, 9, 38, 95
7, 268080, Note_off_c, 9, 70, 95
7, 268080, Note_off_c, 9, 42, 95
7, 268080, Note_off_c, 9, 38, 95
7, 268080, Note_on_c, 9, 70, 95
7, 268320, Note_off_c, 9, 70, 95
7, 268320, Note_on_c, 9, 70, 95
7, 268320, Note_on_c, 9, 42, 95
7, 268560, Note_off_c, 9, 70, 95
7, 268560, Note_off_c, 9, 42, 95
7, 268560, Note_on_c, 9, 70, 95
7, 268800, Note_off_c, 9, 70, 95
7, 268800, Note_on_c, 9, 74, 95
7, 268800, Note_on_c, 9, 70, 95
7, 268800, Note_on_c, 9, 42, 95
7, 268800, Note_on_c, 9, 36, 95
7, 269040, Note_off_c, 9, 74, 95
7, 269040, Note_off_c, 9, 70, 95
7, 269040, Note_off_c, 9, 42, 95
7, 269040, Note_off_c, 9, 36, 95
7, 269040, Note_on_c, 9, 70, 95
7, 269280, Note_off_c, 9, 70, 95
7, 269280, Note_on_c, 9, 70, 95
7, 269280, Note_on_c, 9, 42, 95
7, 269280, Note_on_c, 9, 36, 95
7, 269520, Note_off_c, 9, 70, 95
7, 269520, Note_off_c, 9, 42, 95
7, 269520, Note_off_c, 9, 36, 95
7, 269520, Note_on_c, 9, 70, 95
7, 269760, Note_off_c, 9, 70, 95
7, 269760, Note_on_c, 9, 70, 95
7, 269760, Note_on_c, 9, 42, 95
7, 269760, Note_on_c, 9, 38, 95
7, 270000, Note_off_c, 9, 70, 95
7, 270000, Note_off_c, 9, 42, 95
7, 270000, Note_off_c, 9, 38, 95
7, 270000, Note_on_c, 9, 70, 95
7, 270240, Note_off_c, 9, 70, 95
7, 270240, Note_on_c, 9, 70, 95
7, 270240, Note_on_c, 9, 42, 95
7, 270480, Note_off_c, 9, 70, 95
7, 270480, Note_off_c, 9, 42, 95
7, 270480, Note_on_c, 9, 70, 95
7, 270720, Note_off_c, 9, 70, 95
7, 270720, Note_on_c, 9, 74, 95
7, 270720, Note_on_c, 9, 70, 95
7, 270720, Note_on_c, 9, 42, 95
7, 270720, Note_on_c, 9, 36, 95
7, 270960, Note_off_c, 9, 74, 95
7, 270960, Note_off_c, 9, 70, 95
7, 270960, Note_off_c, 9, 42, 95
7, 270960, Note_off_c, 9, 36, 95
7, 270960, Note_on_c, 9, 70, 95
7, 271200, Note_off_c, 9, 70, 95
7, 271200, Note_on_c, 9, 70, 95
7, 271200, Note_on_c, 9, 42, 95
7, 271200, Note_on_c, 9, 36, 95
7, 271440, Note_off_c, 9, 70, 95
7, 271440, Note_off_c, 9, 42, 95
7, 271440, Note_off_c, 9, 36, 95
7, 271440, Note_on_c, 9, 70, 95
7, 271680, Note_off_c, 9, 70, 95
7, 271680, Note_on_c, 9, 70, 95
7, 271680, Note_on_c, 9, 42, 95
7, 271680, Note_on_c, 9, 38, 95
7, 271920, Note_off_c, 9, 70, 95
7, 271920, Note_off_c, 9, 42, 95
7, 271920, Note_off_c, 9, 38, 95
7, 271920, Note_on_c, 9, 70, 95
7, 272160, Note_off_c, 9, 70, 95
7, 272160, Note_on_c, 9, 70, 95
7, 272160, Note_on_c, 9, 42, 95
7, 272160, Note_on_c, 9, 36, 95
7, 272400, Note_off_c, 9, 70, 95
7, 272400, Note_off_c, 9, 42, 95
7, 272400, Note_off_c, 9, 36, 95
7, 272400, Note_on_c, 9, 70, 95
7, 272640, Note_off_c, 9, 70, 95
7, 272640, Note_on_c, 9, 74, 95
7, 272640, Note_on_c, 9, 70, 95
7, 272640, Note_on_c, 9, 38, 111
7, 272640, Note_on_c, 9, 38, 111
7, 272880, Note_off_c, 9, 74, 95
7, 272880, Note_off_c, 9, 70, 95
7, 272880, Note_off_c, 9, 38, 111
7, 272880, Note_off_c, 9, 38, 111
7, 272880, Note_on_c, 9, 70, 95
7, 273120, Note_off_c, 9, 70, 95
7, 273120, Note_on_c, 9, 70, 95
7, 273120, Note_on_c, 9, 36, 95
7, 273360, Note_off_c, 9, 70, 95
7, 273360, Note_off_c, 9, 36, 95
7, 273360, Note_on_c, 9, 70, 95
7, 273600, Note_off_c, 9, 70, 95
7, 273600, Note_on_c, 9, 70, 95
7, 273600, Note_on_c, 9, 50, 127
7, 273840, Note_off_c, 9, 70, 95
7, 273840, Note_off_c, 9, 50, 127
7, 273840, Note_on_c, 9, 70, 95
7, 274080, Note_off_c, 9, 70, 95
7, 274080, Note_on_c, 9, 70, 95
7, 274080, Note_on_c, 9, 36, 95
7, 274320, Note_off_c, 9, 70, 95
7, 274320, Note_off_c, 9, 36, 95
7, 274320, Note_on_c, 9, 70, 95
7, 274560, Note_off_c, 9, 70, 95
7, 274560, Note_on_c, 9, 74, 95
7, 274560, Note_on_c, 9, 70, 95
7, 274560, Note_on_c, 9, 47, 127
7, 274800, Note_off_c, 9, 74, 95
7, 274800, Note_off_c, 9, 70, 95
7, 274800, Note_off_c, 9, 47, 127
7, 274800, Note_on_c, 9, 70, 95
7, 275040, Note_off_c, 9, 70, 95
7, 275040, Note_on_c, 9, 70, 95
7, 275040, Note_on_c, 9, 36, 95
7, 275280, Note_off_c, 9, 70, 95
7, 275280, Note_off_c, 9, 36, 95
7, 275280, Note_on_c, 9, 70, 95
7, 275520, Note_off_c, 9, 70, 95
7, 275520, Note_on_c, 9, 70, 95
7, 275520, Note_on_c, 9, 45, 127
7, 275760, Note_off_c, 9, 70, 95
7, 275760, Note_off_c, 9, 45, 127
7, 275760, Note_on_c, 9, 70, 95
7, 276000, Note_off_c, 9, 70, 95
7, 276000, Note_on_c, 9, 70, 95
7, 276000, Note_on_c, 9, 36, 95
7, 276240, Note_off_c, 9, 70, 95
7, 276240, Note_off_c, 9, 36, 95
7, 276240, Note_on_c, 9, 70, 95
7, 276480, Note_off_c, 9, 70, 95
7, 276480, Note_on_c, 9, 74, 95
7, 276480, Note_on_c, 9, 70, 95
7, 276480, Note_on_c, 9, 46, 95
7, 276480, Note_on_c, 9, 36, 95
7, 276720, Note_off_c, 9, 74, 95
7, 276720, Note_off_c, 9, 70, 95
7, 276720, Note_off_c, 9, 46, 95
7, 276720, Note_off_c, 9, 36, 95
7, 276720, Note_on_c, 9, 70, 95
7, 276960, Note_off_c, 9, 70, 95
7, 276960, Note_on_c, 9, 70, 95
7, 277200, Note_off_c, 9, 70, 95
7, 277200, Note_on_c, 9, 70, 95
7, 277440, Note_off_c, 9, 70, 95
7, 277440, Note_on_c, 9, 70, 95
7, 277440, Note_on_c, 9, 42, 95
7, 277440, Note_on_c, 9, 38, 95
7, 277680, Note_off_c, 9, 70, 95
7, 277680, Note_off_c, 9, 42, 95
7, 277680, Note_off_c, 9, 38, 95
7, 277680, Note_on_c, 9, 70, 95
7, 277920, Note_off_c, 9, 70, 95
7, 277920, Note_on_c, 9, 70, 95
7, 277920, Note_on_c, 9, 42, 95
7, 278160, Note_off_c, 9, 70, 95
7, 278160, Note_off_c, 9, 42, 95
7, 278160, Note_on_c, 9, 70, 95
7, 278400, Note_off_c, 9, 70, 95
7, 278400, Note_on_c, 9, 74, 95
7, 278400, Note_on_c, 9, 70, 95
7, 278400, Note_on_c, 9, 42, 95
7, 278400, Note_on_c, 9, 36, 95
7, 278640, Note_off_c, 9, 74, 95
7, 278640, Note_off_c, 9, 70, 95
7, 278640, Note_off_c, 9, 42, 95
7, 278640, Note_off_c, 9, 36, 95
7, 278640, Note_on_c, 9, 70, 95
7, 278880, Note_off_c, 9, 70, 95
7, 278880, Note_on_c, 9, 70, 95
7, 278880, Note_on_c, 9, 42, 95
7, 278880, Note_on_c, 9, 36, 95
7, 279120, Note_off_c, 9, 70, 95
7, 279120, Note_off_c, 9, 42, 95
7, 279120, Note_off_c, 9, 36, 95
7, 279120, Note_on_c, 9, 70, 95
7, 279360, Note_off_c, 9, 70, 95
7, 279360, Note_on_c, 9, 70, 95
7, 279360, Note_on_c, 9, 42, 95
7, 279360, Note_on_c, 9, 38, 95
7, 279600, Note_off_c, 9, 70, 95
7, 279600, Note_off_c, 9, 42, 95
7, 279600, Note_off_c, 9, 38, 95
7, 279600, Note_on_c, 9, 70, 95
7, 279840, Note_off_c, 9, 70, 95
7, 279840, Note_on_c, 9, 70, 95
7, 279840, Note_on_c, 9, 42, 95
7, 280080, Note_off_c, 9, 70, 95
7, 280080, Note_off_c, 9, 42, 95
7, 280080, Note_on_c, 9, 70, 95
7, 280320, Note_off_c, 9, 70, 95
7, 280320, Note_on_c, 9, 74, 95
7, 280320, Note_on_c, 9, 70, 95
7, 280320, Note_on_c, 9, 42, 95
7, 280320, Note_on_c, 9, 36, 95
7, 280560, Note_off_c, 9, 74, 95
7, 280560, Note_off_c, 9, 70, 95
7, 280560, Note_off_c, 9, 42, 95
7, 280560, Note_off_c, 9, 36, 95
7, 280560, Note_on_c, 9, 70, 95
7, 280800, Note_off_c, 9, 70, 95
7, 280800, Note_on_c, 9, 70, 95
7, 280800, Note_on_c, 9, 42, 95
7, 280800, Note_on_c, 9, 36, 95
7, 281040, Note_off_c, 9, 70, 95
7, 281040, Note_off_c, 9, 42, 95
7, 281040, Note_off_c, 9, 36, 95
7, 281040, Note_on_c, 9, 70, 95
7, 281280, Note_off_c, 9, 70, 95
7, 281280, Note_on_c, 9, 70, 95
7, 281280, Note_on_c, 9, 42, 95
7, 281280, Note_on_c, 9, 38, 95
7, 281520, Note_off_c, 9, 70, 95
7, 281520, Note_off_c, 9, 42, 95
7, 281520, Note_off_c, 9, 38, 95
7, 281520, Note_on_c, 9, 70, 95
7, 281760, Note_off_c, 9, 70, 95
7, 281760, Note_on_c, 9, 70, 95
7, 281760, Note_on_c, 9, 42, 95
7, 282000, Note_off_c, 9, 70, 95
7, 282000, Note_off_c, 9, 42, 95
7, 282000, Note_on_c, 9, 70, 95
7, 282240, Note_off_c, 9, 70, 95
7, 282240, Note_on_c, 9, 74, 95
7, 282240, Note_on_c, 9, 70, 95
7, 282240, Note_on_c, 9, 42, 95
7, 282240, Note_on_c, 9, 36, 95
7, 282480, Note_off_c, 9, 74, 95
7, 282480, Note_off_c, 9, 70, 95
7, 282480, Note_off_c, 9, 42, 95
7, 282480, Note_off_c, 9, 36, 95
7, 282480, Note_on_c, 9, 70, 95
7, 282720, Note_off_c, 9, 70, 95
7, 282720, Note_on_c, 9, 70, 95
7, 282720, Note_on_c, 9, 42, 95
7, 282720, Note_on_c, 9, 36, 95
7, 282960, Note_off_c, 9, 70, 95
7, 282960, Note_off_c, 9, 42, 95
7, 282960, Note_off_c, 9, 36, 95
7, 282960, Note_on_c, 9, 70, 95
7, 283200, Note_off_c, 9, 70, 95
7, 283200, Note_on_c, 9, 70, 95
7, 283200, Note_on_c, 9, 42, 95
7, 283200, Note_on_c, 9, 38, 95
7, 283440, Note_off_c, 9, 70, 95
7, 283440, Note_off_c, 9, 42, 95
7, 283440, Note_off_c, 9, 38, 95
7, 283440, Note_on_c, 9, 70, 95
7, 283680, Note_off_c, 9, 70, 95
7, 283680, Note_on_c, 9, 70, 95
7, 283680, Note_on_c, 9, 42, 95
7, 283920, Note_off_c, 9, 70, 95
7, 283920, Note_off_c, 9, 42, 95
7, 283920, Note_on_c, 9, 70, 95
7, 284160, Note_off_c, 9, 70, 95
7, 284160, Note_on_c, 9, 74, 95
7, 284160, Note_on_c, 9, 70, 95
7, 284160, Note_on_c, 9, 42, 95
7, 284160, Note_on_c, 9, 36, 95
7, 284400, Note_off_c, 9, 74, 95
7, 284400, Note_off_c, 9, 70, 95
7, 284400, Note_off_c, 9, 42, 95
7, 284400, Note_off_c, 9, 36, 95
7, 284400, Note_on_c, 9, 70, 95
7, 284640, Note_off_c, 9, 70, 95
7, 284640, Note_on_c, 9, 70, 95
7, 284640, Note_on_c, 9, 42, 95
7, 284640, Note_on_c, 9, 36, 95
7, 284880, Note_off_c, 9, 70, 95
7, 284880, Note_off_c, 9, 42, 95
7, 284880, Note_off_c, 9, 36, 95
7, 284880, Note_on_c, 9, 70, 95
7, 285120, Note_off_c, 9, 70, 95
7, 285120, Note_on_c, 9, 70, 95
7, 285120, Note_on_c, 9, 42, 95
7, 285120, Note_on_c, 9, 38, 95
7, 285360, Note_off_c, 9, 70, 95
7, 285360, Note_off_c, 9, 42, 95
7, 285360, Note_off_c, 9, 38, 95
7, 285360, Note_on_c, 9, 70, 95
7, 285600, Note_off_c, 9, 70, 95
7, 285600, Note_on_c, 9, 70, 95
7, 285600, Note_on_c, 9, 42, 95
7, 285840, Note_off_c, 9, 70, 95
7, 285840, Note_off_c, 9, 42, 95
7, 285840, Note_on_c, 9, 70, 95
7, 286080, Note_off_c, 9, 70, 95
7, 286080, Note_on_c, 9, 74, 95
7, 286080, Note_on_c, 9, 70, 95
7, 286080, Note_on_c, 9, 42, 95
7, 286080, Note_on_c, 9, 36, 95
7, 286320, Note_off_c, 9, 74, 95
7, 286320, Note_off_c, 9, 70, 95
7, 286320, Note_off_c, 9, 42, 95
7, 286320, Note_off_c, 9, 36, 95
7, 286320, Note_on_c, 9, 70, 95
7, 286560, Note_off_c, 9, 70, 95
7, 286560, Note_on_c, 9, 70, 95
7, 286560, Note_on_c, 9, 42, 95
7, 286560, Note_on_c, 9, 36, 95
7, 286800, Note_off_c, 9, 70, 95
7, 286800, Note_off_c, 9, 42, 95
7, 286800, Note_off_c, 9, 36, 95
7, 286800, Note_on_c, 9, 70, 95
7, 287040, Note_off_c, 9, 70, 95
7, 287040, Note_on_c, 9, 70, 95
7, 287040, Note_on_c, 9, 42, 95
7, 287040, Note_on_c, 9, 38, 95
7, 287280, Note_off_c, 9, 70, 95
7, 287280, Note_off_c, 9, 42, 95
7, 287280, Note_off_c, 9, 38, 95
7, 287280, Note_on_c, 9, 70, 95
7, 287520, Note_off_c, 9, 70, 95
7, 287520, Note_on_c, 9, 70, 95
7, 287520, Note_on_c, 9, 42, 95
7, 287520, Note_on_c, 9, 36, 95
7, 287760, Note_off_c, 9, 70, 95
7, 287760, Note_off_c, 9, 42, 95
7, 287760, Note_off_c, 9, 36, 95
7, 287760, Note_on_c, 9, 70, 95
7, 288000, Note_off_c, 9, 70, 95
7, 288000, Note_on_c, 9, 74, 95
7, 288000, Note_on_c, 9, 70, 95
7, 288000, Note_on_c, 9, 38, 111
7, 288000, Note_on_c, 9, 38, 111
7, 288240, Note_off_c, 9, 74, 95
7, 288240, Note_off_c, 9, 70, 95
7, 288240, Note_off_c, 9, 38, 111
7, 288240, Note_off_c, 9, 38, 111
7, 288240, Note_on_c, 9, 70, 95
7, 288480, Note_off_c, 9, 70, 95
7, 288480, Note_on_c, 9, 70, 95
7, 288480, Note_on_c, 9, 36, 95
7, 288720, Note_off_c, 9, 70, 95
7, 288720, Note_off_c, 9, 36, 95
7, 288720, Note_on_c, 9, 70, 95
7, 288960, Note_off_c, 9, 70, 95
7, 288960, Note_on_c, 9, 70, 95
7, 288960, Note_on_c, 9, 50, 127
7, 289200, Note_off_c, 9, 70, 95
7, 289200, Note_off_c, 9, 50, 127
7, 289200, Note_on_c, 9, 70, 95
7, 289440, Note_off_c, 9, 70, 95
7, 289440, Note_on_c, 9, 70, 95
7, 289440, Note_on_c, 9, 36, 95
7, 289680, Note_off_c, 9, 70, 95
7, 289680, Note_off_c, 9, 36, 95
7, 289680, Note_on_c, 9, 70, 95
7, 289920, Note_off_c, 9, 70, 95
7, 289920, Note_on_c, 9, 74, 95
7, 289920, Note_on_c, 9, 70, 95
7, 289920, Note_on_c, 9, 47, 127
7, 290160, Note_off_c, 9, 74, 95
7, 290160, Note_off_c, 9, 70, 95
7, 290160, Note_off_c, 9, 47, 127
7, 290160, Note_on_c, 9, 70, 95
7, 290400, Note_off_c, 9, 70, 95
7, 290400, Note_on_c, 9, 70, 95
7, 290400, Note_on_c, 9, 36, 95
7, 290640, Note_off_c, 9, 70, 95
7, 290640, Note_off_c, 9, 36, 95
7, 290640, Note_on_c, 9, 70, 95
7, 290880, Note_off_c, 9, 70, 95
7, 290880, Note_on_c, 9, 70, 95
7, 290880, Note_on_c, 9, 45, 127
7, 291120, Note_off_c, 9, 70, 95
7, 291120, Note_off_c, 9, 45, 127
7, 291120, Note_on_c, 9, 70, 95
7, 291360, Note_off_c, 9, 70, 95
7, 291360, Note_on_c, 9, 70, 95
7, 291360, Note_on_c, 9, 36, 95
7, 291600, Note_off_c, 9, 70, 95
7, 291600, Note_off_c, 9, 36, 95
7, 291600, Note_on_c, 9, 70, 95
7, 291840, Note_off_c, 9, 70, 95
7, 291840, Note_on_c, 9, 74, 95
7, 291840, Note_on_c, 9, 70, 95
7, 291840, Note_on_c, 9, 46, 95
7, 291840, Note_on_c, 9, 36, 95
7, 292080, Note_off_c, 9, 74, 95
7, 292080, Note_off_c, 9, 70, 95
7, 292080, Note_off_c, 9, 46, 95
7, 292080, Note_off_c, 9, 36, 95
7, 292080, Note_on_c, 9, 70, 95
7, 292320, Note_off_c, 9, 70, 95
7, 292320, Note_on_c, 9, 70, 95
7, 292560, Note_off_c, 9, 70, 95
7, 292560, Note_on_c, 9, 70, 95
7, 292800, Note_off_c, 9, 70, 95
7, 292800, Note_on_c, 9, 70, 95
7, 292800, Note_on_c, 9, 42, 95
7, 292800, Note_on_c, 9, 38, 95
7, 293040, Note_off_c, 9, 70, 95
7, 293040, Note_off_c, 9, 42, 95
7, 293040, Note_off_c, 9, 38, 95
7, 293040, Note_on_c, 9, 70, 95
7, 293280, Note_off_c, 9, 70, 95
7, 293280, Note_on_c, 9, 70, 95
7, 293280, Note_on_c, 9, 42, 95
7, 293520, Note_off_c, 9, 70, 95
7, 293520, Note_off_c, 9, 42, 95
7, 293520, Note_on_c, 9, 70, 95
7, 293760, Note_off_c, 9, 70, 95
7, 293760, Note_on_c, 9, 74, 95
7, 293760, Note_on_c, 9, 70, 95
7, 293760, Note_on_c, 9, 42, 95
7, 293760, Note_on_c, 9, 36, 95
7, 294000, Note_off_c, 9, 74, 95
7, 294000, Note_off_c, 9, 70, 95
7, 294000, Note_off_c, 9, 42, 95
7, 294000, Note_off_c, 9, 36, 95
7, 294000, Note_on_c, 9, 70, 95
7, 294240, Note_off_c, 9, 70, 95
7, 294240, Note_on_c, 9, 70, 95
7, 294240, Note_on_c, 9, 42, 95
7, 294240, Note_on_c, 9, 36, 95
7, 294480, Note_off_c, 9, 70, 95
7, 294480, Note_off_c, 9, 42, 95
7, 294480, Note_off_c, 9, 36, 95
7, 294480, Note_on_c, 9, 70, 95
7, 294720, Note_off_c, 9, 70, 95
7, 294720, Note_on_c, 9, 70, 95
7, 294720, Note_on_c, 9, 42, 95
7, 294720, Note_on_c, 9, 38, 95
7, 294960, Note_off_c, 9, 70, 95
7, 294960, Note_off_c, 9, 42, 95
7, 294960, Note_off_c, 9, 38, 95
7, 294960, Note_on_c, 9, 70, 95
7, 295200, Note_off_c, 9, 70, 95
7, 295200, Note_on_c, 9, 70, 95
7, 295200, Note_on_c, 9, 42, 95
7, 295440, Note_off_c, 9, 70, 95
7, 295440, Note_off_c, 9, 42, 95
7, 295440, Note_on_c, 9, 70, 95
7, 295680, Note_off_c, 9, 70, 95
7, 295680, Note_on_c, 9, 74, 95
7, 295680, Note_on_c, 9, 70, 95
7, 295680, Note_on_c, 9, 42, 95
7, 295680, Note_on_c, 9, 36, 95
7, 295920, Note_off_c, 9, 74, 95
7, 295920, Note_off_c, 9, 70, 95
7, 295920, Note_off_c, 9, 42, 95
7, 295920, Note_off_c, 9, 36, 95
7, 295920, Note_on_c, 9, 70, 95
7, 296160, Note_off_c, 9, 70, 95
7, 296160, Note_on_c, 9, 70, 95
7, 296160, Note_on_c, 9, 42, 95
7, 296160, Note_on_c, 9, 36, 95
7, 296400, Note_off_c, 9, 70, 95
7, 296400, Note_off_c, 9, 42, 95
7, 296400, Note_off_c, 9, 36, 95
7, 296400, Note_on_c, 9, 70, 95
7, 296640, Note_off_c, 9, 70, 95
7, 296640, Note_on_c, 9, 70, 95
7, 296640, Note_on_c, 9, 42, 95
7, 296640, Note_on_c, 9, 38, 95
7, 296880, Note_off_c, 9, 70, 95
7, 296880, Note_off_c, 9, 42, 95
7, 296880, Note_off_c, 9, 38, 95
7, 296880, Note_on_c, 9, 70, 95
7, 297120, Note_off_c, 9, 70, 95
7, 297120, Note_on_c, 9, 70, 95
7, 297120, Note_on_c, 9, 42, 95
7, 297360, Note_off_c, 9, 70, 95
7, 297360, Note_off_c, 9, 42, 95
7, 297360, Note_on_c, 9, 70, 95
7, 297600, Note_off_c, 9, 70, 95
7, 297600, Note_on_c, 9, 74, 95
7, 297600, Note_on_c, 9, 70, 95
7, 297600, Note_on_c, 9, 42, 95
7, 297600, Note_on_c, 9, 36, 95
7, 297840, Note_off_c, 9, 74, 95
7, 297840, Note_off_c, 9, 70, 95
7, 297840, Note_off_c, 9, 42, 95
7, 297840, Note_off_c, 9, 36, 95
7, 297840, Note_on_c, 9, 70, 95
7, 298080, Note_off_c, 9, 70, 95
7, 298080, Note_on_c, 9, 70, 95
7, 298080, Note_on_c, 9, 42, 95
7, 298080, Note_on_c, 9, 36, 95
7, 298320, Note_off_c, 9, 70, 95
7, 298320, Note_off_c, 9, 42, 95
7, 298320, Note_off_c, 9, 36, 95
7, 298320, Note_on_c, 9, 70, 95
7, 298560, Note_off_c, 9, 70, 95
7, 298560, Note_on_c, 9, 70, 95
7, 298560, Note_on_c, 9, 42, 95
7, 298560, Note_on_c, 9, 38, 95
7, 298800, Note_off_c, 9, 70, 95
7, 298800, Note_off_c, 9, 42, 95
7, 298800, Note_off_c, 9, 38, 95
7, 298800, Note_on_c, 9, 70, 95
7, 299040, Note_off_c, 9, 70, 95
7, 299040, Note_on_c, 9, 70, 95
7, 299040, Note_on_c, 9, 42, 95
7, 299280, Note_off_c, 9, 70, 95
7, 299280, Note_off_c, 9, 42, 95
7, 299280, Note_on_c, 9, 70, 95
7, 299520, Note_off_c, 9, 70, 95
7, 299520, Note_on_c, 9, 74, 95
7, 299520, Note_on_c, 9, 70, 95
7, 299520, Note_on_c, 9, 42, 95
7, 299520, Note_on_c, 9, 36, 95
7, 299760, Note_off_c, 9, 74, 95
7, 299760, Note_off_c, 9, 70, 95
7, 299760, Note_off_c, 9, 42, 95
7, 299760, Note_off_c, 9, 36, 95
7, 299760, Note_on_c, 9, 70, 95
7, 300000, Note_off_c, 9, 70, 95
7, 300000, Note_on_c, 9, 70, 95
7, 300000, Note_on_c, 9, 42, 95
7, 300000, Note_on_c, 9, 36, 95
7, 300240, Note_off_c, 9, 70, 95
7, 300240, Note_off_c, 9, 42, 95
7, 300240, Note_off_c, 9, 36, 95
7, 300240, Note_on_c, 9, 70, 95
7, 300480, Note_off_c, 9, 70, 95
7, 300480, Note_on_c, 9, 70, 95
7, 300480, Note_on_c, 9, 42, 95
7, 300480, Note_on_c, 9, 38, 95
7, 300720, Note_off_c, 9, 70, 95
7, 300720, Note_off_c, 9, 42, 95
7, 300720, Note_off_c, 9, 38, 95
7, 300720, Note_on_c, 9, 70, 95
7, 300960, Note_off_c, 9, 70, 95
7, 300960, Note_on_c, 9, 70, 95
7, 300960, Note_on_c, 9, 42, 95
7, 301200, Note_off_c, 9, 70, 95
7, 301200, Note_off_c, 9, 42, 95
7, 301200, Note_on_c, 9, 70, 95
7, 301440, Note_off_c, 9, 70, 95
7, 301440, Note_on_c, 9, 74, 95
7, 301440, Note_on_c, 9, 70, 95
7, 301440, Note_on_c, 9, 42, 95
7, 301440, Note_on_c, 9, 36, 95
7, 301680, Note_off_c, 9, 74, 95
7, 301680, Note_off_c, 9, 70, 95
7, 301680, Note_off_c, 9, 42, 95
7, 301680, Note_off_c, 9, 36, 95
7, 301680, Note_on_c, 9, 70, 95
7, 301920, Note_off_c, 9, 70, 95
7, 301920, Note_on_c, 9, 70, 95
7, 301920, Note_on_c, 9, 42, 95
7, 301920, Note_on_c, 9, 36, 95
7, 302160, Note_off_c, 9, 70, 95
7, 302160, Note_off_c, 9, 42, 95
7, 302160, Note_off_c, 9, 36, 95
7, 302160, Note_on_c, 9, 70, 95
7, 302400, Note_off_c, 9, 70, 95
7, 302400, Note_on_c, 9, 70, 95
7, 302400, Note_on_c, 9, 42, 95
7, 302400, Note_on_c, 9, 38, 95
7, 302640, Note_off_c, 9, 70, 95
7, 302640, Note_off_c, 9, 42, 95
7, 302640, Note_off_c, 9, 38, 95
7, 302640, Note_on_c, 9, 70, 95
7, 302880, Note_off_c, 9, 70, 95
7, 302880, Note_on_c, 9, 70, 95
7, 302880, Note_on_c, 9, 42, 95
7, 302880, Note_on_c, 9, 36, 95
7, 303120, Note_off_c, 9, 70, 95
7, 303120, Note_off_c, 9, 42, 95
7, 303120, Note_off_c, 9, 36, 95
7, 303120, Note_on_c, 9, 70, 95
7, 303360, Note_off_c, 9, 70, 95
7, 303360, Note_on_c, 9, 74, 95
7, 303360, Note_on_c, 9, 70, 95
7, 303360, Note_on_c, 9, 38, 111
7, 303360, Note_on_c, 9, 38, 111
7, 303600, Note_off_c, 9, 74, 95
7, 303600, Note_off_c, 9, 70, 95
7, 303600, Note_off_c, 9, 38, 111
7, 303600, Note_off_c, 9, 38, 111
7, 303600, Note_on_c, 9, 70, 95
7, 303840, Note_off_c, 9, 70, 95
7, 303840, Note_on_c, 9, 70, 95
7, 303840, Note_on_c, 9, 36, 95
7, 304080, Note_off_c, 9, 70, 95
7, 304080, Note_off_c, 9, 36, 95
7, 304080, Note_on_c, 9, 70, 95
7, 304320, Note_off_c, 9, 70, 95
7, 304320, Note_on_c, 9, 70, 95
7, 304320, Note_on_c, 9, 50, 127
7, 304560, Note_off_c, 9, 70, 95
7, 304560, Note_off_c, 9, 50, 127
7, 304560, Note_on_c, 9, 70, 95
7, 304800, Note_off_c, 9, 70, 95
7, 304800, Note_on_c, 9, 70, 95
7, 304800, Note_on_c, 9, 36, 95
7, 305040, Note_off_c, 9, 70, 95
7, 305040, Note_off_c, 9, 36, 95
7, 305040, Note_on_c, 9, 70, 95
7, 305280, Note_off_c, 9, 70, 95
7, 305280, Note_on_c, 9, 74, 95
7, 305280, Note_on_c, 9, 70, 95
7, 305280, Note_on_c, 9, 47, 127
7, 305520, Note_off_c, 9, 74, 95
7, 305520, Note_off_c, 9, 70, 95
7, 305520, Note_off_c, 9, 47, 127
7, 305520, Note_on_c, 9, 70, 95
7, 305760, Note_off_c, 9, 70, 95
7, 305760, Note_on_c, 9, 70, 95
7, 305760, Note_on_c, 9, 36, 95
7, 306000, Note_off_c, 9, 70, 95
7, 306000, Note_off_c, 9, 36, 95
7, 306000, Note_on_c, 9, 70, 95
7, 306240, Note_off_c, 9, 70, 95
7, 306240, Note_on_c, 9, 70, 95
7, 306240, Note_on_c, 9, 45, 127
7, 306480, Note_off_c, 9, 70, 95
7, 306480, Note_off_c, 9, 45, 127
7, 306480, Note_on_c, 9, 70, 95
7, 306720, Note_off_c, 9, 70, 95
7, 306720, Note_on_c, 9, 70, 95
7, 306720, Note_on_c, 9, 36, 95
7, 306960, Note_off_c, 9, 70, 95
7, 306960, Note_off_c, 9, 36, 95
7, 306960, Note_on_c, 9, 70, 95
7, 307200, Note_off_c, 9, 70, 95
7, 307200, Note_on_c, 9, 74, 95
7, 307200, Note_on_c, 9, 70, 95
7, 307200, Note_on_c, 9, 46, 95
7, 307200, Note_on_c, 9, 36, 95
7, 307440, Note_off_c, 9, 74, 95
7, 307440, Note_off_c, 9, 70, 95
7, 307440, Note_off_c, 9, 46, 95
7, 307440, Note_off_c, 9, 36, 95
7, 307440, Note_on_c, 9, 70, 95
7, 307680, Note_off_c, 9, 70, 95
7, 307680, Note_on_c, 9, 70, 95
7, 307920, Note_off_c, 9, 70, 95
7, 307920, Note_on_c, 9, 70, 95
7, 308160, Note_off_c, 9, 70, 95
7, 308160, Note_on_c, 9, 70, 95
7, 308160, Note_on_c, 9, 42, 95
7, 308160, Note_on_c, 9, 38, 95
7, 308400, Note_off_c, 9, 70, 95
7, 308400, Note_off_c, 9, 42, 95
7, 308400, Note_off_c, 9, 38, 95
7, 308400, Note_on_c, 9, 70, 95
7, 308640, Note_off_c, 9, 70, 95
7, 308640, Note_on_c, 9, 70, 95
7, 308640, Note_on_c, 9, 42, 95
7, 308880, Note_off_c, 9, 70, 95
7, 308880, Note_off_c, 9, 42, 95
7, 308880, Note_on_c, 9, 70, 95
7, 309120, Note_off_c, 9, 70, 95
7, 309120, Note_on_c, 9, 74, 95
7, 309120, Note_on_c, 9, 70, 95
7, 309120, Note_on_c, 9, 42, 95
7, 309120, Note_on_c, 9, 36, 95
7, 309360, Note_off_c, 9, 74, 95
7, 309360, Note_off_c, 9, 70, 95
7, 309360, Note_off_c, 9, 42, 95
7, 309360, Note_off_c, 9, 36, 95
7, 309360, Note_on_c, 9, 70, 95
7, 309600, Note_off_c, 9, 70, 95
7, 309600, Note_on_c, 9, 70, 95
7, 309600, Note_on_c, 9, 42, 95
7, 309600, Note_on_c, 9, 36, 95
7, 309840, Note_off_c, 9, 70, 95
7, 309840, Note_off_c, 9, 42, 95
7, 309840, Note_off_c, 9, 36, 95
7, 309840, Note_on_c, 9, 70, 95
7, 310080, Note_off_c, 9, 70, 95
7, 310080, Note_on_c, 9, 70, 95
7, 310080, Note_on_c, 9, 42, 95
7, 310080, Note_on_c, 9, 38, 95
7, 310320, Note_off_c, 9, 70, 95
7, 310320, Note_off_c, 9, 42, 95
7, 310320, Note_off_c, 9, 38, 95
7, 310320, Note_on_c, 9, 70, 95
7, 310560, Note_off_c, 9, 70, 95
7, 310560, Note_on_c, 9, 70, 95
7, 310560, Note_on_c, 9, 42, 95
7, 310800, Note_off_c, 9, 70, 95
7, 310800, Note_off_c, 9, 42, 95
7, 310800, Note_on_c, 9, 70, 95
7, 311040, Note_off_c, 9, 70, 95
7, 311040, Note_on_c, 9, 74, 95
7, 311040, Note_on_c, 9, 70, 95
7, 311040, Note_on_c, 9, 42, 95
7, 311040, Note_on_c, 9, 36, 95
7, 311280, Note_off_c, 9, 74, 95
7, 311280, Note_off_c, 9, 70, 95
7, 311280, Note_off_c, 9, 42, 95
7, 311280, Note_off_c, 9, 36, 95
7, 311280, Note_on_c, 9, 70, 95
7, 311520, Note_off_c, 9, 70, 95
7, 311520, Note_on_c, 9, 70, 95
7, 311520, Note_on_c, 9, 42, 95
7, 311520, Note_on_c, 9, 36, 95
7, 311760, Note_off_c, 9, 70, 95
7, 311760, Note_off_c, 9, 42, 95
7, 311760, Note_off_c, 9, 36, 95
7, 311760, Note_on_c, 9, 70, 95
7, 312000, Note_off_c, 9, 70, 95
7, 312000, Note_on_c, 9, 70, 95
7, 312000, Note_on_c, 9, 42, 95
7, 312000, Note_on_c, 9, 38, 95
7, 312240, Note_off_c, 9, 70, 95
7, 312240, Note_off_c, 9, 42, 95
7, 312240, Note_off_c, 9, 38, 95
7, 312240, Note_on_c, 9, 70, 95
7, 312480, Note_off_c, 9, 70, 95
7, 312480, Note_on_c, 9, 70, 95
7, 312480, Note_on_c, 9, 42, 95
7, 312720, Note_off_c, 9, 70, 95
7, 312720, Note_off_c, 9, 42, 95
7, 312720, Note_on_c, 9, 70, 95
7, 312960, Note_off_c, 9, 70, 95
7, 312960, Note_on_c, 9, 74, 95
7, 312960, Note_on_c, 9, 70, 95
7, 312960, Note_on_c, 9, 42, 95
7, 312960, Note_on_c, 9, 36, 95
7, 313200, Note_off_c, 9, 74, 95
7, 313200, Note_off_c, 9, 70, 95
7, 313200, Note_off_c, 9, 42, 95
7, 313200, Note_off_c, 9, 36, 95
7, 313200, Note_on_c, 9, 70, 95
7, 313440, Note_off_c, 9, 70, 95
7, 313440, Note_on_c, 9, 70, 95
7, 313440, Note_on_c, 9, 42, 95
7, 313440, Note_on_c, 9, 36, 95
7, 313680, Note_off_c, 9, 70, 95
7, 313680, Note_off_c, 9, 42, 95
7, 313680, Note_off_c, 9, 36, 95
7, 313680, Note_on_c, 9, 70, 95
7, 313920, Note_off_c, 9, 70, 95
7, 313920, Note_on_c, 9, 70, 95
7, 313920, Note_on_c, 9, 42, 95
7, 313920, Note_on_c, 9, 38, 95
7, 314160, Note_off_c, 9, 70, 95
7, 314160, Note_off_c, 9, 42, 95
7, 314160, Note_off_c, 9, 38, 95
7, 314160, Note_on_c, 9, 70, 95
7, 314400, Note_off_c, 9, 70, 95
7, 314400, Note_on_c, 9, 70, 95
7, 314400, Note_on_c, 9, 42, 95
7, 314640, Note_off_c, 9, 70, 95
7, 314640, Note_off_c, 9, 42, 95
7, 314640, Note_on_c, 9, 70, 95
7, 314880, Note_off_c, 9, 70, 95
7, 314880, Note_on_c, 9, 74, 95
7, 314880, Note_on_c, 9, 70, 95
7, 314880, Note_on_c, 9, 42, 95
7, 314880, Note_on_c, 9, 36, 95
7, 315120, Note_off_c, 9, 74, 95
7, 315120, Note_off_c, 9, 70, 95
7, 315120, Note_off_c, 9, 42, 95
7, 315120, Note_off_c, 9, 36, 95
7, 315120, Note_on_c, 9, 70, 95
7, 315360, Note_off_c, 9, 70, 95
7, 315360, Note_on_c, 9, 70, 95
7, 315360, Note_on_c, 9, 42, 95
7, 315360, Note_on_c, 9, 36, 95
7, 315600, Note_off_c, 9, 70, 95
7, 315600, Note_off_c, 9, 42, 95
7, 315600, Note_off_c, 9, 36, 95
7, 315600, Note_on_c, 9, 70, 95
7, 315840, Note_off_c, 9, 70, 95
7, 315840, Note_on_c, 9, 70, 95
7, 315840, Note_on_c, 9, 42, 95
7, 315840, Note_on_c, 9, 38, 95
7, 316080, Note_off_c, 9, 70, 95
7, 316080, Note_off_c, 9, 42, 95
7, 316080, Note_off_c, 9, 38, 95
7, 316080, Note_on_c, 9, 70, 95
7, 316320, Note_off_c, 9, 70, 95
7, 316320, Note_on_c, 9, 70, 95
7, 316320, Note_on_c, 9, 42, 95
7, 316560, Note_off_c, 9, 70, 95
7, 316560, Note_off_c, 9, 42, 95
7, 316560, Note_on_c, 9, 70, 95
7, 316800, Note_off_c, 9, 70, 95
7, 316800, Note_on_c, 9, 74, 95
7, 316800, Note_on_c, 9, 70, 95
7, 316800, Note_on_c, 9, 42, 95
7, 316800, Note_on_c, 9, 36, 95
7, 317040, Note_off_c, 9, 74, 95
7, 317040, Note_off_c, 9, 70, 95
7, 317040, Note_off_c, 9, 42, 95
7, 317040, Note_off_c, 9, 36, 95
7, 317040, Note_on_c, 9, 70, 95
7, 317280, Note_off_c, 9, 70, 95
7, 317280, Note_on_c, 9, 70, 95
7, 317280, Note_on_c, 9, 42, 95
7, 317280, Note_on_c, 9, 36, 95
7, 317520, Note_off_c, 9, 70, 95
7, 317520, Note_off_c, 9, 42, 95
7, 317520, Note_off_c, 9, 36, 95
7, 317520, Note_on_c, 9, 70, 95
7, 317760, Note_off_c, 9, 70, 95
7, 317760, Note_on_c, 9, 70, 95
7, 317760, Note_on_c, 9, 42, 95
7, 317760, Note_on_c, 9, 38, 95
7, 318000, Note_off_c, 9, 70, 95
7, 318000, Note_off_c, 9, 42, 95
7, 318000, Note_off_c, 9, 38, 95
7, 318000, Note_on_c, 9, 70, 95
7, 318240, Note_off_c, 9, 70, 95
7, 318240, Note_on_c, 9, 70, 95
7, 318240, Note_on_c, 9, 42, 95
7, 318240, Note_on_c, 9, 36, 95
7, 318480, Note_off_c, 9, 70, 95
7, 318480, Note_off_c, 9, 42, 95
7, 318480, Note_off_c, 9, 36, 95
7, 318480, Note_on_c, 9, 70, 95
7, 318720, Note_off_c, 9, 70, 95
7, 318720, Note_on_c, 9, 74, 95
7, 318720, Note_on_c, 9, 70, 95
7, 318720, Note_on_c, 9, 38, 111
7, 318720, Note_on_c, 9, 38, 111
7, 318960, Note_off_c, 9, 74, 95
7, 318960, Note_off_c, 9, 70, 95
7, 318960, Note_off_c, 9, 38, 111
7, 318960, Note_off_c, 9, 38, 111
7, 318960, Note_on_c, 9, 70, 95
7, 319200, Note_off_c, 9, 70, 95
7, 319200, Note_on_c, 9, 70, 95
7, 319200, Note_on_c, 9, 36, 95
7, 319440, Note_off_c, 9, 70, 95
7, 319440, Note_off_c, 9, 36, 95
7, 319440, Note_on_c, 9, 70, 95
7, 319680, Note_off_c, 9, 70, 95
7, 319680, Note_on_c, 9, 70, 95
7, 319680, Note_on_c, 9, 50, 127
7, 319920, Note_off_c, 9, 70, 95
7, 319920, Note_off_c, 9, 50, 127
7, 319920, Note_on_c, 9, 70, 95
7, 320160, Note_off_c, 9, 70, 95
7, 320160, Note_on_c, 9, 70, 95
7, 320160, Note_on_c, 9, 36, 95
7, 320400, Note_off_c, 9, 70, 95
7, 320400, Note_off_c, 9, 36, 95
7, 320400, Note_on_c, 9, 70, 95
7, 320640, Note_off_c, 9, 70, 95
7, 320640, Note_on_c, 9, 74, 95
7, 320640, Note_on_c, 9, 70, 95
7, 320640, Note_on_c, 9, 47, 127
7, 320880, Note_off_c, 9, 74, 95
7, 320880, Note_off_c, 9, 70, 95
7, 320880, Note_off_c, 9, 47, 127
7, 320880, Note_on_c, 9, 70, 95
7, 321120, Note_off_c, 9, 70, 95
7, 321120, Note_on_c, 9, 70, 95
7, 321120, Note_on_c, 9, 36, 95
7, 321360, Note_off_c, 9, 70, 95
7, 321360, Note_off_c, 9, 36, 95
7, 321360, Note_on_c, 9, 70, 95
7, 321600, Note_off_c, 9, 70, 95
7, 321600, Note_on_c, 9, 70, 95
7, 321600, Note_on_c, 9, 45, 127
7, 321840, Note_off_c, 9, 70, 95
7, 321840, Note_off_c, 9, 45, 127
7, 321840, Note_on_c, 9, 70, 95
7, 322080, Note_off_c, 9, 70, 95
7, 322080, Note_on_c, 9, 70, 95
7, 322080, Note_on_c, 9, 36, 95
7, 322320, Note_off_c, 9, 70, 95
7, 322320, Note_off_c, 9, 36, 95
7, 322320, Note_on_c, 9, 70, 95
7, 322560, Note_off_c, 9, 70, 95
7, 322560, Note_on_c, 9, 74, 95
7, 322560, Note_on_c, 9, 70, 95
7, 322560, Note_on_c, 9, 46, 95
7, 322560, Note_on_c, 9, 36, 95
7, 322800, Note_off_c, 9, 74, 95
7, 322800, Note_off_c, 9, 70, 95
7, 322800, Note_off_c, 9, 46, 95
7, 322800, Note_off_c, 9, 36, 95
7, 322800, Note_on_c, 9, 70, 95
7, 323040, Note_off_c, 9, 70, 95
7, 323040, Note_on_c, 9, 70, 95
7, 323280, Note_off_c, 9, 70, 95
7, 323280, Note_on_c, 9, 70, 95
7, 323520, Note_off_c, 9, 70, 95
7, 323520, Note_on_c, 9, 70, 95
7, 323520, Note_on_c, 9, 42, 95
7, 323520, Note_on_c, 9, 38, 95
7, 323760, Note_off_c, 9, 70, 95
7, 323760, Note_off_c, 9, 42, 95
7, 323760, Note_off_c, 9, 38, 95
7, 323760, Note_on_c, 9, 70, 95
7, 324000, Note_off_c, 9, 70, 95
7, 324000, Note_on_c, 9, 70, 95
7, 324000, Note_on_c, 9, 42, 95
7, 324240, Note_off_c, 9, 70, 95
7, 324240, Note_off_c, 9, 42, 95
7, 324240, Note_on_c, 9, 70, 95
7, 324480, Note_off_c, 9, 70, 95
7, 324480, Note_on_c, 9, 74, 95
7, 324480, Note_on_c, 9, 70, 95
7, 324480, Note_on_c, 9, 42, 95
7, 324480, Note_on_c, 9, 36, 95
7, 324720, Note_off_c, 9, 74, 95
7, 324720, Note_off_c, 9, 70, 95
7, 324720, Note_off_c, 9, 42, 95
7, 324720, Note_off_c, 9, 36, 95
7, 324720, Note_on_c, 9, 70, 95
7, 324960, Note_off_c, 9, 70, 95
7, 324960, Note_on_c, 9, 70, 95
7, 324960, Note_on_c, 9, 42, 95
7, 324960, Note_on_c, 9, 36, 95
7, 325200, Note_off_c, 9, 70, 95
7, 325200, Note_off_c, 9, 42, 95
7, 325200, Note_off_c, 9, 36, 95
7, 325200, Note_on_c, 9, 70, 95
7, 325440, Note_off_c, 9, 70, 95
7, 325440, Note_on_c, 9, 70, 95
7, 325440, Note_on_c, 9, 42, 95
7, 325440, Note_on_c, 9, 38, 95
7, 325680, Note_off_c, 9, 70, 95
7, 325680, Note_off_c, 9, 42, 95
7, 325680, Note_off_c, 9, 38, 95
7, 325680, Note_on_c, 9, 70, 95
7, 325920, Note_off_c, 9, 70, 95
7, 325920, Note_on_c, 9, 70, 95
7, 325920, Note_on_c, 9, 42, 95
7, 326160, Note_off_c, 9, 70, 95
7, 326160, Note_off_c, 9, 42, 95
7, 326160, Note_on_c, 9, 70, 95
7, 326400, Note_off_c, 9, 70, 95
7, 326400, Note_on_c, 9, 74, 95
7, 326400, Note_on_c, 9, 70, 95
7, 326400, Note_on_c, 9, 42, 95
7, 326400, Note_on_c, 9, 36, 95
7, 326640, Note_off_c, 9, 74, 95
7, 326640, Note_off_c, 9, 70, 95
7, 326640, Note_off_c, 9, 42, 95
7, 326640, Note_off_c, 9, 36, 95
7, 326640, Note_on_c, 9, 70, 95
7, 326880, Note_off_c, 9, 70, 95
7, 326880, Note_on_c, 9, 70, 95
7, 326880, Note_on_c, 9, 42, 95
7, 326880, Note_on_c, 9, 36, 95
7, 327120, Note_off_c, 9, 70, 95
7, 327120, Note_off_c, 9, 42, 95
7, 327120, Note_off_c, 9, 36, 95
7, 327120, Note_on_c, 9, 70, 95
7, 327360, Note_off_c, 9, 70, 95
7, 327360, Note_on_c, 9, 70, 95
7, 327360, Note_on_c, 9, 42, 95
7, 327360, Note_on_c, 9, 38, 95
7, 327600, Note_off_c, 9, 70, 95
7, 327600, Note_off_c, 9, 42, 95
7, 327600, Note_off_c, 9, 38, 95
7, 327600, Note_on_c, 9, 70, 95
7, 327840, Note_off_c, 9, 70, 95
7, 327840, Note_on_c, 9, 70, 95
7, 327840, Note_on_c, 9, 42, 95
7, 328080, Note_off_c, 9, 70, 95
7, 328080, Note_off_c, 9, 42, 95
7, 328080, Note_on_c, 9, 70, 95
7, 328320, Note_off_c, 9, 70, 95
7, 328320, Note_on_c, 9, 74, 95
7, 328320, Note_on_c, 9, 70, 95
7, 328320, Note_on_c, 9, 42, 95
7, 328320, Note_on_c, 9, 36, 95
7, 328560, Note_off_c, 9, 74, 95
7, 328560, Note_off_c, 9, 70, 95
7, 328560, Note_off_c, 9, 42, 95
7, 328560, Note_off_c, 9, 36, 95
7, 328560, Note_on_c, 9, 70, 95
7, 328800, Note_off_c, 9, 70, 95
7, 328800, Note_on_c, 9, 70, 95
7, 328800, Note_on_c, 9, 42, 95
7, 328800, Note_on_c, 9, 36, 95
7, 329040, Note_off_c, 9, 70, 95
7, 329040, Note_off_c, 9, 42, 95
7, 329040, Note_off_c, 9, 36, 95
7, 329040, Note_on_c, 9, 70, 95
7, 329280, Note_off_c, 9, 70, 95
7, 329280, Note_on_c, 9, 70, 95
7, 329280, Note_on_c, 9, 42, 95
7, 329280, Note_on_c, 9, 38, 95
7, 329520, Note_off_c, 9, 70, 95
7, 329520, Note_off_c, 9, 42, 95
7, 329520, Note_off_c, 9, 38, 95
7, 329520, Note_on_c, 9, 70, 95
7, 329760, Note_off_c, 9, 70, 95
7, 329760, Note_on_c, 9, 70, 95
7, 329760, Note_on_c, 9, 42, 95
7, 330000, Note_off_c, 9, 70, 95
7, 330000, Note_off_c, 9, 42, 95
7, 330000, Note_on_c, 9, 70, 95
7, 330240, Note_off_c, 9, 70, 95
7, 330240, Note_on_c, 9, 74, 95
7, 330240, Note_on_c, 9, 70, 95
7, 330240, Note_on_c, 9, 42, 95
7, 330240, Note_on_c, 9, 36, 95
7, 330480, Note_off_c, 9, 74, 95
7, 330480, Note_off_c, 9, 70, 95
7, 330480, Note_off_c, 9, 42, 95
7, 330480, Note_off_c, 9, 36, 95
7, 330480, Note_on_c, 9, 70, 95
7, 330720, Note_off_c, 9, 70, 95
7, 330720, Note_on_c, 9, 70, 95
7, 330720, Note_on_c, 9, 42, 95
7, 330720, Note_on_c, 9, 36, 95
7, 330960, Note_off_c, 9, 70, 95
7, 330960, Note_off_c, 9, 42, 95
7, 330960, Note_off_c, 9, 36, 95
7, 330960, Note_on_c, 9, 70, 95
7, 331200, Note_off_c, 9, 70, 95
7, 331200, Note_on_c, 9, 70, 95
7, 331200, Note_on_c, 9, 42, 95
7, 331200, Note_on_c, 9, 38, 95
7, 331440, Note_off_c, 9, 70, 95
7, 331440, Note_off_c, 9, 42, 95
7, 331440, Note_off_c, 9, 38, 95
7, 331440, Note_on_c, 9, 70, 95
7, 331680, Note_off_c, 9, 70, 95
7, 331680, Note_on_c, 9, 70, 95
7, 331680, Note_on_c, 9, 42, 95
7, 331920, Note_off_c, 9, 70, 95
7, 331920, Note_off_c, 9, 42, 95
7, 331920, Note_on_c, 9, 70, 95
7, 332160, Note_off_c, 9, 70, 95
7, 332160, Note_on_c, 9, 74, 95
7, 332160, Note_on_c, 9, 70, 95
7, 332160, Note_on_c, 9, 42, 95
7, 332160, Note_on_c, 9, 36, 95
7, 332400, Note_off_c, 9, 74, 95
7, 332400, Note_off_c, 9, 70, 95
7, 332400, Note_off_c, 9, 42, 95
7, 332400, Note_off_c, 9, 36, 95
7, 332400, Note_on_c, 9, 70, 95
7, 332640, Note_off_c, 9, 70, 95
7, 332640, Note_on_c, 9, 70, 95
7, 332640, Note_on_c, 9, 42, 95
7, 332640, Note_on_c, 9, 36, 95
7, 332880, Note_off_c, 9, 70, 95
7, 332880, Note_off_c, 9, 42, 95
7, 332880, Note_off_c, 9, 36, 95
7, 332880, Note_on_c, 9, 70, 95
7, 333120, Note_off_c, 9, 70, 95
7, 333120, Note_on_c, 9, 70, 95
7, 333120, Note_on_c, 9, 42, 95
7, 333120, Note_on_c, 9, 38, 95
7, 333360, Note_off_c, 9, 70, 95
7, 333360, Note_off_c, 9, 42, 95
7, 333360, Note_off_c, 9, 38, 95
7, 333360, Note_on_c, 9, 70, 95
7, 333600, Note_off_c, 9, 70, 95
7, 333600, Note_on_c, 9, 70, 95
7, 333600, Note_on_c, 9, 42, 95
7, 333600, Note_on_c, 9, 36, 95
7, 333840, Note_off_c, 9, 70, 95
7, 333840, Note_off_c, 9, 42, 95
7, 333840, Note_off_c, 9, 36, 95
7, 333840, Note_on_c, 9, 70, 95
7, 334080, Note_off_c, 9, 70, 95
7, 334080, Note_on_c, 9, 74, 95
7, 334080, Note_on_c, 9, 70, 95
7, 334080, Note_on_c, 9, 38, 111
7, 334080, Note_on_c, 9, 38, 111
7, 334320, Note_off_c, 9, 74, 95
7, 334320, Note_off_c, 9, 70, 95
7, 334320, Note_off_c, 9, 38, 111
7, 334320, Note_off_c, 9, 38, 111
7, 334320, Note_on_c, 9, 70, 95
7, 334560, Note_off_c, 9, 70, 95
7, 334560, Note_on_c, 9, 70, 95
7, 334560, Note_on_c, 9, 36, 95
7, 334800, Note_off_c, 9, 70, 95
7, 334800, Note_off_c, 9, 36, 95
7, 334800, Note_on_c, 9, 70, 95
7, 335040, Note_off_c, 9, 70, 95
7, 335040, Note_on_c, 9, 70, 95
7, 335040, Note_on_c, 9, 50, 127
7, 335280, Note_off_c, 9, 70, 95
7, 335280, Note_off_c, 9, 50, 127
7, 335280, Note_on_c, 9, 70, 95
7, 335520, Note_off_c, 9, 70, 95
7, 335520, Note_on_c, 9, 70, 95
7, 335520, Note_on_c, 9, 36, 95
7, 335760, Note_off_c, 9, 70, 95
7, 335760, Note_off_c, 9, 36, 95
7, 335760, Note_on_c, 9, 70, 95
7, 336000, Note_off_c, 9, 70, 95
7, 336000, Note_on_c, 9, 74, 95
7, 336000, Note_on_c, 9, 70, 95
7, 336000, Note_on_c, 9, 47, 127
7, 336240, Note_off_c, 9, 74, 95
7, 336240, Note_off_c, 9, 70, 95
7, 336240, Note_off_c, 9, 47, 127
7, 336240, Note_on_c, 9, 70, 95
7, 336480, Note_off_c, 9, 70, 95
7, 336480, Note_on_c, 9, 70, 95
7, 336480, Note_on_c, 9, 36, 95
7, 336720, Note_off_c, 9, 70, 95
7, 336720, Note_off_c, 9, 36, 95
7, 336720, Note_on_c, 9, 70, 95
7, 336960, Note_off_c, 9, 70, 95
7, 336960, Note_on_c, 9, 70, 95
7, 336960, Note_on_c, 9, 45, 127
7, 337200, Note_off_c, 9, 70, 95
7, 337200, Note_off_c, 9, 45, 127
7, 337200, Note_on_c, 9, 70, 95
7, 337440, Note_off_c, 9, 70, 95
7, 337440, Note_on_c, 9, 70, 95
7, 337440, Note_on_c, 9, 36, 95
7, 337680, Note_off_c, 9, 70, 95
7, 337680, Note_off_c, 9, 36, 95
7, 337680, Note_on_c, 9, 70, 95
7, 337920, Note_off_c, 9, 70, 95
7, 337920, Note_on_c, 9, 74, 95
7, 337920, Note_on_c, 9, 70, 95
7, 337920, Note_on_c, 9, 46, 95
7, 337920, Note_on_c, 9, 36, 95
7, 338160, Note_off_c, 9, 74, 95
7, 338160, Note_off_c, 9, 70, 95
7, 338160, Note_off_c, 9, 46, 95
7, 338160, Note_off_c, 9, 36, 95
7, 338160, Note_on_c, 9, 70, 95
7, 338400, Note_off_c, 9, 70, 95
7, 338400, Note_on_c, 9, 70, 95
7, 338640, Note_off_c, 9, 70, 95
7, 338640, Note_on_c, 9, 70, 95
7, 338880, Note_off_c, 9, 70, 95
7, 338880, Note_on_c, 9, 70, 95
7, 338880, Note_on_c, 9, 42, 95
7, 338880, Note_on_c, 9, 38, 95
7, 339120, Note_off_c, 9, 70, 95
7, 339120, Note_off_c, 9, 42, 95
7, 339120, Note_off_c, 9, 38, 95
7, 339120, Note_on_c, 9, 70, 95
7, 339360, Note_off_c, 9, 70, 95
7, 339360, Note_on_c, 9, 70, 95
7, 339360, Note_on_c, 9, 42, 95
7, 339600, Note_off_c, 9, 70, 95
7, 339600, Note_off_c, 9, 42, 95
7, 339600, Note_on_c, 9, 70, 95
7, 339840, Note_off_c, 9, 70, 95
7, 339840, Note_on_c, 9, 74, 95
7, 339840, Note_on_c, 9, 70, 95
7, 339840, Note_on_c, 9, 42, 95
7, 339840, Note_on_c, 9, 36, 95
7, 340080, Note_off_c, 9, 74, 95
7, 340080, Note_off_c, 9, 70, 95
7, 340080, Note_off_c, 9, 42, 95
7, 340080, Note_off_c, 9, 36, 95
7, 340080, Note_on_c, 9, 70, 95
7, 340320, Note_off_c, 9, 70, 95
7, 340320, Note_on_c, 9, 70, 95
7, 340320, Note_on_c, 9, 42, 95
7, 340320, Note_on_c, 9, 36, 95
7, 340560, Note_off_c, 9, 70, 95
7, 340560, Note_off_c, 9, 42, 95
7, 340560, Note_off_c, 9, 36, 95
7, 340560, Note_on_c, 9, 70, 95
7, 340800, Note_off_c, 9, 70, 95
7, 340800, Note_on_c, 9, 70, 95
7, 340800, Note_on_c, 9, 42, 95
7, 340800, Note_on_c, 9, 38, 95
7, 341040, Note_off_c, 9, 70, 95
7, 341040, Note_off_c, 9, 42, 95
7, 341040, Note_off_c, 9, 38, 95
7, 341040, Note_on_c, 9, 70, 95
7, 341280, Note_off_c, 9, 70, 95
7, 341280, Note_on_c, 9, 70, 95
7, 341280, Note_on_c, 9, 42, 95
7, 341520, Note_off_c, 9, 70, 95
7, 341520, Note_off_c, 9, 42, 95
7, 341520, Note_on_c, 9, 70, 95
7, 341760, Note_off_c, 9, 70, 95
7, 341760, Note_on_c, 9, 74, 95
7, 341760, Note_on_c, 9, 70, 95
7, 341760, Note_on_c, 9, 42, 95
7, 341760, Note_on_c, 9, 36, 95
7, 342000, Note_off_c, 9, 74, 95
7, 342000, Note_off_c, 9, 70, 95
7, 342000, Note_off_c, 9, 42, 95
7, 342000, Note_off_c, 9, 36, 95
7, 342000, Note_on_c, 9, 70, 95
7, 342240, Note_off_c, 9, 70, 95
7, 342240, Note_on_c, 9, 70, 95
7, 342240, Note_on_c, 9, 42, 95
7, 342240, Note_on_c, 9, 36, 95
7, 342480, Note_off_c, 9, 70, 95
7, 342480, Note_off_c, 9, 42, 95
7, 342480, Note_off_c, 9, 36, 95
7, 342480, Note_on_c, 9, 70, 95
7, 342720, Note_off_c, 9, 70, 95
7, 342720, Note_on_c, 9, 70, 95
7, 342720, Note_on_c, 9, 42, 95
7, 342720, Note_on_c, 9, 38, 95
7, 342960, Note_off_c, 9, 70, 95
7, 342960, Note_off_c, 9, 42, 95
7, 342960, Note_off_c, 9, 38, 95
7, 342960, Note_on_c, 9, 70, 95
7, 343200, Note_off_c, 9, 70, 95
7, 343200, Note_on_c, 9, 70, 95
7, 343200, Note_on_c, 9, 42, 95
7, 343440, Note_off_c, 9, 70, 95
7, 343440, Note_off_c, 9, 42, 95
7, 343440, Note_on_c, 9, 70, 95
7, 343680, Note_off_c, 9, 70, 95
7, 343680, Note_on_c, 9, 74, 95
7, 343680, Note_on_c, 9, 70, 95
7, 343680, Note_on_c, 9, 42, 95
7, 343680, Note_on_c, 9, 36, 95
7, 343920, Note_off_c, 9, 74, 95
7, 343920, Note_off_c, 9, 70, 95
7, 343920, Note_off_c, 9, 42, 95
7, 343920, Note_off_c, 9, 36, 95
7, 343920, Note_on_c, 9, 70, 95
7, 344160, Note_off_c, 9, 70, 95
7, 344160, Note_on_c, 9, 70, 95
7, 344160, Note_on_c, 9, 42, 95
7, 344160, Note_on_c, 9, 36, 95
7, 344400, Note_off_c, 9, 70, 95
7, 344400, Note_off_c, 9, 42, 95
7, 344400, Note_off_c, 9, 36, 95
7, 344400, Note_on_c, 9, 70, 95
7, 344640, Note_off_c, 9, 70, 95
7, 344640, Note_on_c, 9, 70, 95
7, 344640, Note_on_c, 9, 42, 95
7, 344640, Note_on_c, 9, 38, 95
7, 344880, Note_off_c, 9, 70, 95
7, 344880, Note_off_c, 9, 42, 95
7, 344880, Note_off_c, 9, 38, 95
7, 344880, Note_on_c, 9, 70, 95
7, 345120, Note_off_c, 9, 70, 95
7, 345120, Note_on_c, 9, 70, 95
7, 345120, Note_on_c, 9, 42, 95
7, 345360, Note_off_c, 9, 70, 95
7, 345360, Note_off_c, 9, 42, 95
7, 345360, Note_on_c, 9, 70, 95
7, 345600, Note_off_c, 9, 70, 95
7, 345600, Note_on_c, 9, 74, 95
7, 345600, Note_on_c, 9, 70, 95
7, 345600, Note_on_c, 9, 42, 95
7, 345600, Note_on_c, 9, 36, 95
7, 345840, Note_off_c, 9, 74, 95
7, 345840, Note_off_c, 9, 70, 95
7, 345840, Note_off_c, 9, 42, 95
7, 345840, Note_off_c, 9, 36, 95
7, 345840, Note_on_c, 9, 70, 95
7, 346080, Note_off_c, 9, 70, 95
7, 346080, Note_on_c, 9, 70, 95
7, 346080, Note_on_c, 9, 42, 95
7, 346080, Note_on_c, 9, 36, 95
7, 346320, Note_off_c, 9, 70, 95
7, 346320, Note_off_c, 9, 42, 95
7, 346320, Note_off_c, 9, 36, 95
7, 346320, Note_on_c, 9, 70, 95
7, 346560, Note_off_c, 9, 70, 95
7, 346560, Note_on_c, 9, 70, 95
7, 346560, Note_on_c, 9, 42, 95
7, 346560, Note_on_c, 9, 38, 95
7, 346800, Note_off_c, 9, 70, 95
7, 346800, Note_off_c, 9, 42, 95
7, 346800, Note_off_c, 9, 38, 95
7, 346800, Note_on_c, 9, 70, 95
7, 347040, Note_off_c, 9, 70, 95
7, 347040, Note_on_c, 9, 70, 95
7, 347040, Note_on_c, 9, 42, 95
7, 347280, Note_off_c, 9, 70, 95
7, 347280, Note_off_c, 9, 42, 95
7, 347280, Note_on_c, 9, 70, 95
7, 347520, Note_off_c, 9, 70, 95
7, 347520, Note_on_c, 9, 74, 95
7, 347520, Note_on_c, 9, 70, 95
7, 347520, Note_on_c, 9, 42, 95
7, 347520, Note_on_c, 9, 36, 95
7, 347760, Note_off_c, 9, 74, 95
7, 347760, Note_off_c, 9, 70, 95
7, 347760, Note_off_c, 9, 42, 95
7, 347760, Note_off_c, 9, 36, 95
7, 347760, Note_on_c, 9, 70, 95
7, 348000, Note_off_c, 9, 70, 95
7, 348000, Note_on_c, 9, 70, 95
7, 348000, Note_on_c, 9, 42, 95
7, 348000, Note_on_c, 9, 36, 95
7, 348240, Note_off_c, 9, 70, 95
7, 348240, Note_off_c, 9, 42, 95
7, 348240, Note_off_c, 9, 36, 95
7, 348240, Note_on_c, 9, 70, 95
7, 348480, Note_off_c, 9, 70, 95
7, 348480, Note_on_c, 9, 70, 95
7, 348480, Note_on_c, 9, 42, 95
7, 348480, Note_on_c, 9, 38, 95
7, 348720, Note_off_c, 9, 70, 95
7, 348720, Note_off_c, 9, 42, 95
7, 348720, Note_off_c, 9, 38, 95
7, 348720, Note_on_c, 9, 70, 95
7, 348960, Note_off_c, 9, 70, 95
7, 348960, Note_on_c, 9, 70, 95
7, 348960, Note_on_c, 9, 42, 95
7, 348960, Note_on_c, 9, 36, 95
7, 349200, Note_off_c, 9, 70, 95
7, 349200, Note_off_c, 9, 42, 95
7, 349200, Note_off_c, 9, 36, 95
7, 349200, Note_on_c, 9, 70, 95
7, 349440, Note_off_c, 9, 70, 95
7, 349440, Note_on_c, 9, 74, 95
7, 349440, Note_on_c, 9, 70, 95
7, 349440, Note_on_c, 9, 38, 111
7, 349440, Note_on_c, 9, 38, 111
7, 349680, Note_off_c, 9, 74, 95
7, 349680, Note_off_c, 9, 70, 95
7, 349680, Note_off_c, 9, 38, 111
7, 349680, Note_off_c, 9, 38, 111
7, 349680, Note_on_c, 9, 70, 95
7, 349920, Note_off_c, 9, 70, 95
7, 349920, Note_on_c, 9, 70, 95
7, 349920, Note_on_c, 9, 36, 95
7, 350160, Note_off_c, 9, 70, 95
7, 350160, Note_off_c, 9, 36, 95
7, 350160, Note_on_c, 9, 70, 95
7, 350400, Note_off_c, 9, 70, 95
7, 350400, Note_on_c, 9, 70, 95
7, 350400, Note_on_c, 9, 38, 111
7, 350400, Note_on_c, 9, 38, 111
7, 350640, Note_off_c, 9, 70, 95
7, 350640, Note_off_c, 9, 38, 111
7, 350640, Note_off_c, 9, 38, 111
7, 350640, Note_on_c, 9, 70, 95
7, 350880, Note_off_c, 9, 70, 95
7, 350880, Note_on_c, 9, 70, 95
7, 350880, Note_on_c, 9, 36, 95
7, 351120, Note_off_c, 9, 70, 95
7, 351120, Note_off_c, 9, 36, 95
7, 351120, Note_on_c, 9, 70, 95
7, 351360, Note_off_c, 9, 70, 95
7, 351360, Note_on_c, 9, 74, 95
7, 351360, Note_on_c, 9, 70, 95
7, 351360, Note_on_c, 9, 38, 111
7, 351360, Note_on_c, 9, 38, 111
7, 351600, Note_off_c, 9, 74, 95
7, 351600, Note_off_c, 9, 70, 95
7, 351600, Note_off_c, 9, 38, 111
7, 351600, Note_off_c, 9, 38, 111
7, 351600, Note_on_c, 9, 70, 95
7, 351840, Note_off_c, 9, 70, 95
7, 351840, Note_on_c, 9, 70, 95
7, 351840, Note_on_c, 9, 36, 95
7, 352080, Note_off_c, 9, 70, 95
7, 352080, Note_off_c, 9, 36, 95
7, 352080, Note_on_c, 9, 70, 95
7, 352320, Note_off_c, 9, 70, 95
7, 352320, Note_on_c, 9, 70, 95
7, 352320, Note_on_c, 9, 45, 111
7, 352320, Note_on_c, 9, 45, 111
7, 352560, Note_off_c, 9, 70, 95
7, 352560, Note_off_c, 9, 45, 111
7, 352560, Note_off_c, 9, 45, 111
7, 352560, Note_on_c, 9, 70, 95
7, 352800, Note_off_c, 9, 70, 95
7, 352800, Note_on_c, 9, 70, 95
7, 352800, Note_on_c, 9, 36, 95
7, 353040, Note_off_c, 9, 70, 95
7, 353040, Note_off_c, 9, 36, 95
7, 353040, Note_on_c, 9, 70, 95
7, 353280, Note_off_c, 9, 70, 95
7, 353280, Note_on_c, 9, 74, 95
7, 353280, Note_on_c, 9, 70, 95
7, 353280, Note_on_c, 9, 46, 95
7, 353280, Note_on_c, 9, 36, 95
7, 353520, Note_off_c, 9, 74, 95
7, 353520, Note_off_c, 9, 70, 95
7, 353520, Note_off_c, 9, 46, 95
7, 353520, Note_off_c, 9, 36, 95
7, 353520, Note_on_c, 9, 70, 95
7, 353760, Note_off_c, 9, 70, 95
7, 353760, Note_on_c, 9, 70, 95
7, 354000, Note_off_c, 9, 70, 95
7, 354000, Note_on_c, 9, 70, 95
7, 354240, Note_off_c, 9, 70, 95
7, 354240, Note_on_c, 9, 70, 95
7, 354240, Note_on_c, 9, 42, 95
7, 354240, Note_on_c, 9, 38, 95
7, 354480, Note_off_c, 9, 70, 95
7, 354480, Note_off_c, 9, 42, 95
7, 354480, Note_off_c, 9, 38, 95
7, 354480, Note_on_c, 9, 70, 95
7, 354720, Note_off_c, 9, 70, 95
7, 354720, Note_on_c, 9, 70, 95
7, 354720, Note_on_c, 9, 42, 95
7, 354960, Note_off_c, 9, 70, 95
7, 354960, Note_off_c, 9, 42, 95
7, 354960, Note_on_c, 9, 70, 95
7, 355200, Note_off_c, 9, 70, 95
7, 355200, Note_on_c, 9, 74, 95
7, 355200, Note_on_c, 9, 70, 95
7, 355200, Note_on_c, 9, 42, 95
7, 355200, Note_on_c, 9, 36, 95
7, 355440, Note_off_c, 9, 74, 95
7, 355440, Note_off_c, 9, 70, 95
7, 355440, Note_off_c, 9, 42, 95
7, 355440, Note_off_c, 9, 36, 95
7, 355440, Note_on_c, 9, 70, 95
7, 355680, Note_off_c, 9, 70, 95
7, 355680, Note_on_c, 9, 70, 95
7, 355680, Note_on_c, 9, 42, 95
7, 355680, Note_on_c, 9, 36, 95
7, 355920, Note_off_c, 9, 70, 95
7, 355920, Note_off_c, 9, 42, 95
7, 355920, Note_off_c, 9, 36, 95
7, 355920, Note_on_c, 9, 70, 95
7, 356160, Note_off_c, 9, 70, 95
7, 356160, Note_on_c, 9, 70, 95
7, 356160, Note_on_c, 9, 42, 95
7, 356160, Note_on_c, 9, 38, 95
7, 356400, Note_off_c, 9, 70, 95
7, 356400, Note_off_c, 9, 42, 95
7, 356400, Note_off_c, 9, 38, 95
7, 356400, Note_on_c, 9, 70, 95
7, 356640, Note_off_c, 9, 70, 95
7, 356640, Note_on_c, 9, 70, 95
7, 356640, Note_on_c, 9, 42, 95
7, 356880, Note_off_c, 9, 70, 95
7, 356880, Note_off_c, 9, 42, 95
7, 356880, Note_on_c, 9, 70, 95
7, 357120, Note_off_c, 9, 70, 95
7, 357120, Note_on_c, 9, 74, 95
7, 357120, Note_on_c, 9, 70, 95
7, 357120, Note_on_c, 9, 42, 95
7, 357120, Note_on_c, 9, 36, 95
7, 357360, Note_off_c, 9, 74, 95
7, 357360, Note_off_c, 9, 70, 95
7, 357360, Note_off_c, 9, 42, 95
7, 357360, Note_off_c, 9, 36, 95
7, 357360, Note_on_c, 9, 70, 95
7, 357600, Note_off_c, 9, 70, 95
7, 357600, Note_on_c, 9, 70, 95
7, 357600, Note_on_c, 9, 42, 95
7, 357600, Note_on_c, 9, 36, 95
7, 357840, Note_off_c, 9, 70, 95
7, 357840, Note_off_c, 9, 42, 95
7, 357840, Note_off_c, 9, 36, 95
7, 357840, Note_on_c, 9, 70, 95
7, 358080, Note_off_c, 9, 70, 95
7, 358080, Note_on_c, 9, 70, 95
7, 358080, Note_on_c, 9, 42, 95
7, 358080, Note_on_c, 9, 38, 95
7, 358320, Note_off_c, 9, 70, 95
7, 358320, Note_off_c, 9, 42, 95
7, 358320, Note_off_c, 9, 38, 95
7, 358320, Note_on_c, 9, 70, 95
7, 358560, Note_off_c, 9, 70, 95
7, 358560, Note_on_c, 9, 70, 95
7, 358560, Note_on_c, 9, 42, 95
7, 358800, Note_off_c, 9, 70, 95
7, 358800, Note_off_c, 9, 42, 95
7, 358800, Note_on_c, 9, 70, 95
7, 359040, Note_off_c, 9, 70, 95
7, 359040, Note_on_c, 9, 74, 95
7, 359040, Note_on_c, 9, 70, 95
7, 359040, Note_on_c, 9, 42, 95
7, 359040, Note_on_c, 9, 36, 95
7, 359280, Note_off_c, 9, 74, 95
7, 359280, Note_off_c, 9, 70, 95
7, 359280, Note_off_c, 9, 42, 95
7, 359280, Note_off_c, 9, 36, 95
7, 359280, Note_on_c, 9, 70, 95
7, 359520, Note_off_c, 9, 70, 95
7, 359520, Note_on_c, 9, 70, 95
7, 359520, Note_on_c, 9, 42, 95
7, 359520, Note_on_c, 9, 36, 95
7, 359760, Note_off_c, 9, 70, 95
7, 359760, Note_off_c, 9, 42, 95
7, 359760, Note_off_c, 9, 36, 95
7, 359760, Note_on_c, 9, 70, 95
7, 360000, Note_off_c, 9, 70, 95
7, 360000, Note_on_c, 9, 70, 95
7, 360000, Note_on_c, 9, 42, 95
7, 360000, Note_on_c, 9, 38, 95
7, 360240, Note_off_c, 9, 70, 95
7, 360240, Note_off_c, 9, 42, 95
7, 360240, Note_off_c, 9, 38, 95
7, 360240, Note_on_c, 9, 70, 95
7, 360480, Note_off_c, 9, 70, 95
7, 360480, Note_on_c, 9, 70, 95
7, 360480, Note_on_c, 9, 42, 95
7, 360720, Note_off_c, 9, 70, 95
7, 360720, Note_off_c, 9, 42, 95
7, 360720, Note_on_c, 9, 70, 95
7, 360960, Note_off_c, 9, 70, 95
7, 360960, Note_on_c, 9, 74, 95
7, 360960, Note_on_c, 9, 70, 95
7, 360960, Note_on_c, 9, 42, 95
7, 360960, Note_on_c, 9, 36, 95
7, 361200, Note_off_c, 9, 74, 95
7, 361200, Note_off_c, 9, 70, 95
7, 361200, Note_off_c, 9, 42, 95
7, 361200, Note_off_c, 9, 36, 95
7, 361200, Note_on_c, 9, 70, 95
7, 361440, Note_off_c, 9, 70, 95
7, 361440, Note_on_c, 9, 70, 95
7, 361440, Note_on_c, 9, 42, 95
7, 361440, Note_on_c, 9, 36, 95
7, 361680, Note_off_c, 9, 70, 95
7, 361680, Note_off_c, 9, 42, 95
7, 361680, Note_off_c, 9, 36, 95
7, 361680, Note_on_c, 9, 70, 95
7, 361920, Note_off_c, 9, 70, 95
7, 361920, Note_on_c, 9, 70, 95
7, 361920, Note_on_c, 9, 42, 95
7, 361920, Note_on_c, 9, 38, 95
7, 362160, Note_off_c, 9, 70, 95
7, 362160, Note_off_c, 9, 42, 95
7, 362160, Note_off_c, 9, 38, 95
7, 362160, Note_on_c, 9, 70, 95
7, 362400, Note_off_c, 9, 70, 95
7, 362400, Note_on_c, 9, 70, 95
7, 362400, Note_on_c, 9, 42, 95
7, 362640, Note_off_c, 9, 70, 95
7, 362640, Note_off_c, 9, 42, 95
7, 362640, Note_on_c, 9, 70, 95
7, 362880, Note_off_c, 9, 70, 95
7, 362880, Note_on_c, 9, 74, 95
7, 362880, Note_on_c, 9, 70, 95
7, 362880, Note_on_c, 9, 42, 95
7, 362880, Note_on_c, 9, 36, 95
7, 363120, Note_off_c, 9, 74, 95
7, 363120, Note_off_c, 9, 70, 95
7, 363120, Note_off_c, 9, 42, 95
7, 363120, Note_off_c, 9, 36, 95
7, 363120, Note_on_c, 9, 70, 95
7, 363360, Note_off_c, 9, 70, 95
7, 363360, Note_on_c, 9, 70, 95
7, 363360, Note_on_c, 9, 42, 95
7, 363360, Note_on_c, 9, 36, 95
7, 363600, Note_off_c, 9, 70, 95
7, 363600, Note_off_c, 9, 42, 95
7, 363600, Note_off_c, 9, 36, 95
7, 363600, Note_on_c, 9, 70, 95
7, 363840, Note_off_c, 9, 70, 95
7, 363840, Note_on_c, 9, 70, 95
7, 363840, Note_on_c, 9, 42, 95
7, 363840, Note_on_c, 9, 38, 95
7, 364080, Note_off_c, 9, 70, 95
7, 364080, Note_off_c, 9, 42, 95
7, 364080, Note_off_c, 9, 38, 95
7, 364080, Note_on_c, 9, 70, 95
7, 364320, Note_off_c, 9, 70, 95
7, 364320, Note_on_c, 9, 70, 95
7, 364320, Note_on_c, 9, 42, 95
7, 364320, Note_on_c, 9, 36, 95
7, 364560, Note_off_c, 9, 70, 95
7, 364560, Note_off_c, 9, 42, 95
7, 364560, Note_off_c, 9, 36, 95
7, 364560, Note_on_c, 9, 70, 95
7, 364800, Note_off_c, 9, 70, 95
7, 364800, Note_on_c, 9, 74, 95
7, 364800, Note_on_c, 9, 70, 95
7, 364800, Note_on_c, 9, 42, 95
7, 364800, Note_on_c, 9, 36, 95
7, 365040, Note_off_c, 9, 74, 95
7, 365040, Note_off_c, 9, 70, 95
7, 365040, Note_off_c, 9, 42, 95
7, 365040, Note_off_c, 9, 36, 95
7, 365040, Note_on_c, 9, 70, 95
7, 365280, Note_off_c, 9, 70, 95
7, 365280, Note_on_c, 9, 70, 95
7, 365280, Note_on_c, 9, 42, 95
7, 365280, Note_on_c, 9, 36, 95
7, 365520, Note_off_c, 9, 70, 95
7, 365520, Note_off_c, 9, 42, 95
7, 365520, Note_off_c, 9, 36, 95
7, 365520, Note_on_c, 9, 70, 95
7, 365760, Note_off_c, 9, 70, 95
7, 365760, Note_on_c, 9, 70, 95
7, 365760, Note_on_c, 9, 42, 95
7, 365760, Note_on_c, 9, 38, 95
7, 366000, Note_off_c, 9, 70, 95
7, 366000, Note_off_c, 9, 42, 95
7, 366000, Note_off_c, 9, 38, 95
7, 366000, Note_on_c, 9, 70, 95
7, 366240, Note_off_c, 9, 70, 95
7, 366240, Note_on_c, 9, 70, 95
7, 366240, Note_on_c, 9, 42, 95
7, 366480, Note_off_c, 9, 70, 95
7, 366480, Note_off_c, 9, 42, 95
7, 366480, Note_on_c, 9, 70, 95
7, 366720, Note_off_c, 9, 70, 95
7, 366720, Note_on_c, 9, 74, 95
7, 366720, Note_on_c, 9, 70, 95
7, 366720, Note_on_c, 9, 42, 95
7, 366720, Note_on_c, 9, 36, 95
7, 366960, Note_off_c, 9, 74, 95
7, 366960, Note_off_c, 9, 70, 95
7, 366960, Note_off_c, 9, 42, 95
7, 366960, Note_off_c, 9, 36, 95
7, 366960, Note_on_c, 9, 70, 95
7, 367200, Note_off_c, 9, 70, 95
7, 367200, Note_on_c, 9, 70, 95
7, 367200, Note_on_c, 9, 38, 95
7, 367200, Note_on_c, 9, 38, 95
7, 367440, Note_off_c, 9, 70, 95
7, 367440, Note_off_c, 9, 38, 95
7, 367440, Note_off_c, 9, 38, 95
7, 367440, Note_on_c, 9, 70, 95
7, 367680, Note_off_c, 9, 70, 95
7, 367680, Note_on_c, 9, 70, 95
7, 367680, Note_on_c, 9, 66, 95
7, 367920, Note_off_c, 9, 70, 95
7, 367920, Note_off_c, 9, 66, 95
7, 367920, Note_on_c, 9, 70, 95
7, 368160, Note_off_c, 9, 70, 95
7, 368160, Note_on_c, 9, 70, 95
7, 368160, Note_on_c, 9, 38, 95
7, 368160, Note_on_c, 9, 38, 95
7, 368400, Note_off_c, 9, 70, 95
7, 368400, Note_off_c, 9, 38, 95
7, 368400, Note_off_c, 9, 38, 95
7, 368400, Note_on_c, 9, 70, 95
7, 368640, Note_off_c, 9, 70, 95
7, 368640, Note_on_c, 9, 74, 95
7, 368640, Note_on_c, 9, 46, 95
7, 368640, Note_on_c, 9, 36, 95
7, 369600, Note_off_c, 9, 74, 95
7, 369600, Note_off_c, 9, 46, 95
7, 369600, Note_off_c, 9, 36, 95
7, 369600, Note_on_c, 9, 42, 95
7, 369600, Note_on_c, 9, 38, 95
7, 370080, Note_off_c, 9, 42, 95
7, 370080, Note_off_c, 9, 38, 95
7, 370080, Note_on_c, 9, 69, 95
7, 370080, Note_on_c, 9, 42, 95
7, 370560, Note_off_c, 9, 69, 95
7, 370560, Note_off_c, 9, 42, 95
7, 370560, Note_on_c, 9, 74, 95
7, 370560, Note_on_c, 9, 42, 95
7, 371040, Note_off_c, 9, 74, 95
7, 371040, Note_off_c, 9, 42, 95
7, 371040, Note_on_c, 9, 42, 95
7, 371040, Note_on_c, 9, 36, 95
7, 371520, Note_off_c, 9, 42, 95
7, 371520, Note_off_c, 9, 36, 95
7, 371520, Note_on_c, 9, 42, 95
7, 371520, Note_on_c, 9, 38, 95
7, 372000, Note_off_c, 9, 42, 95
7, 372000, Note_off_c, 9, 38, 95
7, 372000, Note_on_c, 9, 69, 95
7, 372000, Note_on_c, 9, 42, 95
7, 372000, Note_on_c, 9, 36, 95
7, 372480, Note_off_c, 9, 69, 95
7, 372480, Note_off_c, 9, 42, 95
7, 372480, Note_off_c, 9, 36, 95
7, 372480, Note_on_c, 9, 74, 95
7, 372480, Note_on_c, 9, 42, 95
7, 372480, Note_on_c, 9, 36, 95
7, 372960, Note_off_c, 9, 74, 95
7, 372960, Note_off_c, 9, 42, 95
7, 372960, Note_off_c, 9, 36, 95
7, 372960, Note_on_c, 9, 42, 95
7, 372960, Note_on_c, 9, 36, 95
7, 373440, Note_off_c, 9, 42, 95
7, 373440, Note_off_c, 9, 36, 95
7, 373440, Note_on_c, 9, 42, 95
7, 373440, Note_on_c, 9, 38, 95
7, 373920, Note_off_c, 9, 42, 95
7, 373920, Note_off_c, 9, 38, 95
7, 373920, Note_on_c, 9, 69, 95
7, 373920, Note_on_c, 9, 42, 95
7, 374400, Note_off_c, 9, 69, 95
7, 374400, Note_off_c, 9, 42, 95
7, 374400, Note_on_c, 9, 74, 95
7, 374400, Note_on_c, 9, 42, 95
7, 374400, Note_on_c, 9, 36, 95
7, 374880, Note_off_c, 9, 74, 95
7, 374880, Note_off_c, 9, 42, 95
7, 374880, Note_off_c, 9, 36, 95
7, 374880, Note_on_c, 9, 42, 95
7, 374880, Note_on_c, 9, 36, 95
7, 375360, Note_off_c, 9, 42, 95
7, 375360, Note_off_c, 9, 36, 95
7, 375360, Note_on_c, 9, 42, 95
7, 375360, Note_on_c, 9, 38, 95
7, 375840, Note_off_c, 9, 42, 95
7, 375840, Note_off_c, 9, 38, 95
7, 375840, Note_on_c, 9, 69, 95
7, 375840, Note_on_c, 9, 42, 95
7, 376320, Note_off_c, 9, 69, 95
7, 376320, Note_off_c, 9, 42, 95
7, 376320, Note_on_c, 9, 74, 95
7, 376320, Note_on_c, 9, 42, 95
7, 376320, Note_on_c, 9, 36, 95
7, 376800, Note_off_c, 9, 74, 95
7, 376800, Note_off_c, 9, 42, 95
7, 376800, Note_off_c, 9, 36, 95
7, 376800, Note_on_c, 9, 42, 95
7, 376800, Note_on_c, 9, 36, 95
7, 377280, Note_off_c, 9, 42, 95
7, 377280, Note_off_c, 9, 36, 95
7, 377280, Note_on_c, 9, 42, 95
7, 377280, Note_on_c, 9, 38, 95
7, 377760, Note_off_c, 9, 42, 95
7, 377760, Note_off_c, 9, 38, 95
7, 377760, Note_on_c, 9, 69, 95
7, 377760, Note_on_c, 9, 42, 95
7, 378240, Note_off_c, 9, 69, 95
7, 378240, Note_off_c, 9, 42, 95
7, 378240, Note_on_c, 9, 74, 95
7, 378240, Note_on_c, 9, 42, 95
7, 378240, Note_on_c, 9, 36, 95
7, 378720, Note_off_c, 9, 74, 95
7, 378720, Note_off_c, 9, 42, 95
7, 378720, Note_off_c, 9, 36, 95
7, 378720, Note_on_c, 9, 42, 95
7, 378720, Note_on_c, 9, 36, 95
7, 379200, Note_off_c, 9, 42, 95
7, 379200, Note_off_c, 9, 36, 95
7, 379200, Note_on_c, 9, 42, 95
7, 379200, Note_on_c, 9, 38, 95
7, 379680, Note_off_c, 9, 42, 95
7, 379680, Note_off_c, 9, 38, 95
7, 379680, Note_on_c, 9, 69, 95
7, 379680, Note_on_c, 9, 42, 95
7, 380160, Note_off_c, 9, 69, 95
7, 380160, Note_off_c, 9, 42, 95
7, 380160, Note_on_c, 9, 74, 95
7, 380160, Note_on_c, 9, 42, 95
7, 380160, Note_on_c, 9, 36, 95
7, 380640, Note_off_c, 9, 74, 95
7, 380640, Note_off_c, 9, 42, 95
7, 380640, Note_off_c, 9, 36, 95
7, 380640, Note_on_c, 9, 42, 95
7, 380640, Note_on_c, 9, 36, 95
7, 381120, Note_off_c, 9, 42, 95
7, 381120, Note_off_c, 9, 36, 95
7, 381120, Note_on_c, 9, 42, 95
7, 381120, Note_on_c, 9, 38, 95
7, 381600, Note_off_c, 9, 42, 95
7, 381600, Note_off_c, 9, 38, 95
7, 381600, Note_on_c, 9, 69, 95
7, 381600, Note_on_c, 9, 42, 95
7, 382080, Note_off_c, 9, 69, 95
7, 382080, Note_off_c, 9, 42, 95
7, 382080, Note_on_c, 9, 74, 95
7, 382080, Note_on_c, 9, 42, 95
7, 382080, Note_on_c, 9, 36, 95
7, 382560, Note_off_c, 9, 74, 95
7, 382560, Note_off_c, 9, 42, 95
7, 382560, Note_off_c, 9, 36, 95
7, 382560, Note_on_c, 9, 42, 95
7, 382560, Note_on_c, 9, 36, 95
7, 383040, Note_off_c, 9, 42, 95
7, 383040, Note_off_c, 9, 36, 95
7, 383040, Note_on_c, 9, 42, 95
7, 383040, Note_on_c, 9, 38, 95
7, 383520, Note_off_c, 9, 42, 95
7, 383520, Note_off_c, 9, 38, 95
7, 383520, Note_on_c, 9, 69, 95
7, 383520, Note_on_c, 9, 42, 95
7, 384000, Note_off_c, 9, 69, 95
7, 384000, Note_off_c, 9, 42, 95
7, 384000, Note_on_c, 9, 74, 95
7, 384000, Note_on_c, 9, 42, 95
7, 384000, Note_on_c, 9, 36, 95
7, 384480, Note_off_c, 9, 74, 95
7, 384480, Note_off_c, 9, 42, 95
7, 384480, Note_off_c, 9, 36, 95
7, 384480, Note_on_c, 9, 42, 95
7, 384480, Note_on_c, 9, 36, 95
7, 384960, Note_off_c, 9, 42, 95
7, 384960, Note_off_c, 9, 36, 95
7, 384960, Note_on_c, 9, 42, 95
7, 384960, Note_on_c, 9, 38, 95
7, 385440, Note_off_c, 9, 42, 95
7, 385440, Note_off_c, 9, 38, 95
7, 385440, Note_on_c, 9, 69, 95
7, 385440, Note_on_c, 9, 42, 95
7, 385920, Note_off_c, 9, 69, 95
7, 385920, Note_off_c, 9, 42, 95
7, 385920, Note_on_c, 9, 74, 95
7, 385920, Note_on_c, 9, 42, 95
7, 385920, Note_on_c, 9, 36, 95
7, 386400, Note_off_c, 9, 74, 95
7, 386400, Note_off_c, 9, 42, 95
7, 386400, Note_off_c, 9, 36, 95
7, 386400, Note_on_c, 9, 42, 95
7, 386400, Note_on_c, 9, 36, 95
7, 386880, Note_off_c, 9, 42, 95
7, 386880, Note_off_c, 9, 36, 95
7, 386880, Note_on_c, 9, 42, 95
7, 386880, Note_on_c, 9, 38, 95
7, 387360, Note_off_c, 9, 42, 95
7, 387360, Note_off_c, 9, 38, 95
7, 387360, Note_on_c, 9, 69, 95
7, 387360, Note_on_c, 9, 42, 95
7, 387840, Note_off_c, 9, 69, 95
7, 387840, Note_off_c, 9, 42, 95
7, 387840, Note_on_c, 9, 74, 95
7, 387840, Note_on_c, 9, 42, 95
7, 387840, Note_on_c, 9, 36, 95
7, 388320, Note_off_c, 9, 74, 95
7, 388320, Note_off_c, 9, 42, 95
7, 388320, Note_off_c, 9, 36, 95
7, 388320, Note_on_c, 9, 42, 95
7, 388320, Note_on_c, 9, 36, 95
7, 388800, Note_off_c, 9, 42, 95
7, 388800, Note_off_c, 9, 36, 95
7, 388800, Note_on_c, 9, 42, 95
7, 388800, Note_on_c, 9, 38, 95
7, 389280, Note_off_c, 9, 42, 95
7, 389280, Note_off_c, 9, 38, 95
7, 389280, Note_on_c, 9, 69, 95
7, 389280, Note_on_c, 9, 42, 95
7, 389760, Note_off_c, 9, 69, 95
7, 389760, Note_off_c, 9, 42, 95
7, 389760, Note_on_c, 9, 74, 95
7, 389760, Note_on_c, 9, 42, 95
7, 389760, Note_on_c, 9, 36, 95
7, 390240, Note_off_c, 9, 74, 95
7, 390240, Note_off_c, 9, 42, 95
7, 390240, Note_off_c, 9, 36, 95
7, 390240, Note_on_c, 9, 42, 95
7, 390240, Note_on_c, 9, 36, 95
7, 390720, Note_off_c, 9, 42, 95
7, 390720, Note_off_c, 9, 36, 95
7, 390720, Note_on_c, 9, 42, 95
7, 390720, Note_on_c, 9, 38, 95
7, 391200, Note_off_c, 9, 42, 95
7, 391200, Note_off_c, 9, 38, 95
7, 391200, Note_on_c, 9, 69, 95
7, 391200, Note_on_c, 9, 42, 95
7, 391680, Note_off_c, 9, 69, 95
7, 391680, Note_off_c, 9, 42, 95
7, 391680, Note_on_c, 9, 74, 95
7, 391680, Note_on_c, 9, 42, 95
7, 391680, Note_on_c, 9, 36, 95
7, 392160, Note_off_c, 9, 74, 95
7, 392160, Note_off_c, 9, 42, 95
7, 392160, Note_off_c, 9, 36, 95
7, 392160, Note_on_c, 9, 42, 95
7, 392160, Note_on_c, 9, 36, 95
7, 392640, Note_off_c, 9, 42, 95
7, 392640, Note_off_c, 9, 36, 95
7, 392640, Note_on_c, 9, 42, 95
7, 392640, Note_on_c, 9, 38, 95
7, 393120, Note_off_c, 9, 42, 95
7, 393120, Note_off_c, 9, 38, 95
7, 393120, Note_on_c, 9, 69, 95
7, 393120, Note_on_c, 9, 42, 95
7, 393600, Note_off_c, 9, 69, 95
7, 393600, Note_off_c, 9, 42, 95
7, 393600, Note_on_c, 9, 74, 95
7, 393600, Note_on_c, 9, 42, 95
7, 393600, Note_on_c, 9, 36, 95
7, 394080, Note_off_c, 9, 74, 95
7, 394080, Note_off_c, 9, 42, 95
7, 394080, Note_off_c, 9, 36, 95
7, 394080, Note_on_c, 9, 42, 95
7, 394080, Note_on_c, 9, 36, 95
7, 394560, Note_off_c, 9, 42, 95
7, 394560, Note_off_c, 9, 36, 95
7, 394560, Note_on_c, 9, 42, 95
7, 394560, Note_on_c, 9, 38, 95
7, 395040, Note_off_c, 9, 42, 95
7, 395040, Note_off_c, 9, 38, 95
7, 395040, Note_on_c, 9, 69, 95
7, 395040, Note_on_c, 9, 42, 95
7, 395520, Note_off_c, 9, 69, 95
7, 395520, Note_off_c, 9, 42, 95
7, 395520, Note_on_c, 9, 74, 95
7, 395520, Note_on_c, 9, 42, 95
7, 395520, Note_on_c, 9, 36, 95
7, 396000, Note_off_c, 9, 74, 95
7, 396000, Note_off_c, 9, 42, 95
7, 396000, Note_off_c, 9, 36, 95
7, 396000, Note_on_c, 9, 69, 95
7, 396000, Note_on_c, 9, 42, 95
7, 396000, Note_on_c, 9, 36, 95
7, 396480, Note_off_c, 9, 69, 95
7, 396480, Note_off_c, 9, 42, 95
7, 396480, Note_off_c, 9, 36, 95
7, 396480, Note_on_c, 9, 42, 95
7, 396480, Note_on_c, 9, 38, 95
7, 396960, Note_off_c, 9, 42, 95
7, 396960, Note_off_c, 9, 38, 95
7, 396960, Note_on_c, 9, 69, 95
7, 396960, Note_on_c, 9, 42, 95
7, 397440, Note_off_c, 9, 69, 95
7, 397440, Note_off_c, 9, 42, 95
7, 397440, Note_on_c, 9, 74, 95
7, 397440, Note_on_c, 9, 38, 95
7, 397920, Note_off_c, 9, 74, 95
7, 397920, Note_off_c, 9, 38, 95
7, 397920, Note_on_c, 9, 69, 95
7, 397920, Note_on_c, 9, 36, 95
7, 398400, Note_off_c, 9, 69, 95
7, 398400, Note_off_c, 9, 36, 95
7, 398400, Note_on_c, 9, 38, 95
7, 398880, Note_off_c, 9, 38, 95
7, 398880, Note_on_c, 9, 69, 95
7, 398880, Note_on_c, 9, 36, 95
7, 399360, Note_off_c, 9, 69, 95
7, 399360, Note_off_c, 9, 36, 95
7, 399360, Note_on_c, 9, 74, 95
7, 399360, Note_on_c, 9, 46, 95
7, 399360, Note_on_c, 9, 36, 95
7, 400320, Note_off_c, 9, 74, 95
7, 400320, Note_off_c, 9, 46, 95
7, 400320, Note_off_c, 9, 36, 95
7, 400320, Note_on_c, 9, 42, 95
7, 400320, Note_on_c, 9, 38, 95
7, 400800, Note_off_c, 9, 42, 95
7, 400800, Note_off_c, 9, 38, 95
7, 400800, Note_on_c, 9, 69, 95
7, 400800, Note_on_c, 9, 42, 95
7, 401280, Note_off_c, 9, 69, 95
7, 401280, Note_off_c, 9, 42, 95
7, 401280, Note_on_c, 9, 74, 95
7, 401280, Note_on_c, 9, 42, 95
7, 401280, Note_on_c, 9, 36, 95
7, 401760, Note_off_c, 9, 74, 95
7, 401760, Note_off_c, 9, 42, 95
7, 401760, Note_off_c, 9, 36, 95
7, 401760, Note_on_c, 9, 42, 95
7, 401760, Note_on_c, 9, 36, 95
7, 402240, Note_off_c, 9, 42, 95
7, 402240, Note_off_c, 9, 36, 95
7, 402240, Note_on_c, 9, 42, 95
7, 402240, Note_on_c, 9, 38, 95
7, 402720, Note_off_c, 9, 42, 95
7, 402720, Note_off_c, 9, 38, 95
7, 402720, Note_on_c, 9, 69, 95
7, 402720, Note_on_c, 9, 42, 95
7, 403200, Note_off_c, 9, 69, 95
7, 403200, Note_off_c, 9, 42, 95
7, 403200, Note_on_c, 9, 74, 95
7, 403200, Note_on_c, 9, 42, 95
7, 403200, Note_on_c, 9, 36, 95
7, 403680, Note_off_c, 9, 74, 95
7, 403680, Note_off_c, 9, 42, 95
7, 403680, Note_off_c, 9, 36, 95
7, 403680, Note_on_c, 9, 42, 95
7, 403680, Note_on_c, 9, 36, 95
7, 404160, Note_off_c, 9, 42, 95
7, 404160, Note_off_c, 9, 36, 95
7, 404160, Note_on_c, 9, 42, 95
7, 404160, Note_on_c, 9, 38, 95
7, 404640, Note_off_c, 9, 42, 95
7, 404640, Note_off_c, 9, 38, 95
7, 404640, Note_on_c, 9, 69, 95
7, 404640, Note_on_c, 9, 42, 95
7, 405120, Note_off_c, 9, 69, 95
7, 405120, Note_off_c, 9, 42, 95
7, 405120, Note_on_c, 9, 74, 95
7, 405120, Note_on_c, 9, 42, 95
7, 405120, Note_on_c, 9, 36, 95
7, 405600, Note_off_c, 9, 74, 95
7, 405600, Note_off_c, 9, 42, 95
7, 405600, Note_off_c, 9, 36, 95
7, 405600, Note_on_c, 9, 42, 95
7, 405600, Note_on_c, 9, 36, 95
7, 406080, Note_off_c, 9, 42, 95
7, 406080, Note_off_c, 9, 36, 95
7, 406080, Note_on_c, 9, 42, 95
7, 406080, Note_on_c, 9, 38, 95
7, 406560, Note_off_c, 9, 42, 95
7, 406560, Note_off_c, 9, 38, 95
7, 406560, Note_on_c, 9, 69, 95
7, 406560, Note_on_c, 9, 42, 95
7, 407040, Note_off_c, 9, 69, 95
7, 407040, Note_off_c, 9, 42, 95
7, 407040, Note_on_c, 9, 74, 95
7, 407040, Note_on_c, 9, 42, 95
7, 407040, Note_on_c, 9, 36, 95
7, 407520, Note_off_c, 9, 74, 95
7, 407520, Note_off_c, 9, 42, 95
7, 407520, Note_off_c, 9, 36, 95
7, 407520, Note_on_c, 9, 42, 95
7, 407520, Note_on_c, 9, 36, 95
7, 408000, Note_off_c, 9, 42, 95
7, 408000, Note_off_c, 9, 36, 95
7, 408000, Note_on_c, 9, 42, 95
7, 408000, Note_on_c, 9, 38, 95
7, 408480, Note_off_c, 9, 42, 95
7, 408480, Note_off_c, 9, 38, 95
7, 408480, Note_on_c, 9, 69, 95
7, 408480, Note_on_c, 9, 42, 95
7, 408960, Note_off_c, 9, 69, 95
7, 408960, Note_off_c, 9, 42, 95
7, 408960, Note_on_c, 9, 74, 95
7, 408960, Note_on_c, 9, 42, 95
7, 408960, Note_on_c, 9, 36, 95
7, 409440, Note_off_c, 9, 74, 95
7, 409440, Note_off_c, 9, 42, 95
7, 409440, Note_off_c, 9, 36, 95
7, 409440, Note_on_c, 9, 42, 95
7, 409440, Note_on_c, 9, 36, 95
7, 409920, Note_off_c, 9, 42, 95
7, 409920, Note_off_c, 9, 36, 95
7, 409920, Note_on_c, 9, 42, 95
7, 409920, Note_on_c, 9, 38, 95
7, 410400, Note_off_c, 9, 42, 95
7, 410400, Note_off_c, 9, 38, 95
7, 410400, Note_on_c, 9, 69, 95
7, 410400, Note_on_c, 9, 42, 95
7, 410400, Note_on_c, 9, 36, 95
7, 410880, Note_off_c, 9, 69, 95
7, 410880, Note_off_c, 9, 42, 95
7, 410880, Note_off_c, 9, 36, 95
7, 410880, Note_on_c, 9, 50, 127
7, 411360, Note_off_c, 9, 50, 127
7, 411360, Note_on_c, 9, 69, 95
7, 411360, Note_on_c, 9, 36, 111
7, 411840, Note_off_c, 9, 69, 95
7, 411840, Note_off_c, 9, 36, 111
7, 411840, Note_on_c, 9, 48, 127
7, 412320, Note_off_c, 9, 48, 127
7, 412320, Note_on_c, 9, 69, 95
7, 412320, Note_on_c, 9, 36, 111
7, 412800, Note_off_c, 9, 69, 95
7, 412800, Note_off_c, 9, 36, 111
7, 412800, Note_on_c, 9, 47, 127
7, 413280, Note_off_c, 9, 47, 127
7, 413280, Note_on_c, 9, 69, 95
7, 413280, Note_on_c, 9, 36, 111
7, 413760, Note_off_c, 9, 69, 95
7, 413760, Note_off_c, 9, 36, 111
7, 413760, Note_on_c, 9, 45, 127
7, 414240, Note_off_c, 9, 45, 127
7, 414240, Note_on_c, 9, 69, 95
7, 414240, Note_on_c, 9, 36, 111
7, 414720, Note_off_c, 9, 69, 95
7, 414720, Note_off_c, 9, 36, 111
7, 414720, Note_on_c, 9, 74, 95
7, 414720, Note_on_c, 9, 70, 95
7, 414720, Note_on_c, 9, 46, 95
7, 414720, Note_on_c, 9, 36, 95
7, 414960, Note_off_c, 9, 74, 95
7, 414960, Note_off_c, 9, 70, 95
7, 414960, Note_off_c, 9, 46, 95
7, 414960, Note_off_c, 9, 36, 95
7, 414960, Note_on_c, 9, 70, 95
7, 415200, Note_off_c, 9, 70, 95
7, 415200, Note_on_c, 9, 70, 95
7, 415440, Note_off_c, 9, 70, 95
7, 415440, Note_on_c, 9, 70, 95
7, 415680, Note_off_c, 9, 70, 95
7, 415680, Note_on_c, 9, 70, 95
7, 415680, Note_on_c, 9, 42, 95
7, 415680, Note_on_c, 9, 38, 95
7, 415920, Note_off_c, 9, 70, 95
7, 415920, Note_off_c, 9, 42, 95
7, 415920, Note_off_c, 9, 38, 95
7, 415920, Note_on_c, 9, 70, 95
7, 416160, Note_off_c, 9, 70, 95
7, 416160, Note_on_c, 9, 70, 95
7, 416160, Note_on_c, 9, 42, 95
7, 416400, Note_off_c, 9, 70, 95
7, 416400, Note_off_c, 9, 42, 95
7, 416400, Note_on_c, 9, 70, 95
7, 416640, Note_off_c, 9, 70, 95
7, 416640, Note_on_c, 9, 74, 95
7, 416640, Note_on_c, 9, 70, 95
7, 416640, Note_on_c, 9, 42, 95
7, 416640, Note_on_c, 9, 36, 95
7, 416880, Note_off_c, 9, 74, 95
7, 416880, Note_off_c, 9, 70, 95
7, 416880, Note_off_c, 9, 42, 95
7, 416880, Note_off_c, 9, 36, 95
7, 416880, Note_on_c, 9, 70, 95
7, 417120, Note_off_c, 9, 70, 95
7, 417120, Note_on_c, 9, 70, 95
7, 417120, Note_on_c, 9, 42, 95
7, 417120, Note_on_c, 9, 36, 95
7, 417360, Note_off_c, 9, 70, 95
7, 417360, Note_off_c, 9, 42, 95
7, 417360, Note_off_c, 9, 36, 95
7, 417360, Note_on_c, 9, 70, 95
7, 417600, Note_off_c, 9, 70, 95
7, 417600, Note_on_c, 9, 70, 95
7, 417600, Note_on_c, 9, 42, 95
7, 417600, Note_on_c, 9, 38, 95
7, 417840, Note_off_c, 9, 70, 95
7, 417840, Note_off_c, 9, 42, 95
7, 417840, Note_off_c, 9, 38, 95
7, 417840, Note_on_c, 9, 70, 95
7, 418080, Note_off_c, 9, 70, 95
7, 418080, Note_on_c, 9, 70, 95
7, 418080, Note_on_c, 9, 42, 95
7, 418320, Note_off_c, 9, 70, 95
7, 418320, Note_off_c, 9, 42, 95
7, 418320, Note_on_c, 9, 70, 95
7, 418560, Note_off_c, 9, 70, 95
7, 418560, Note_on_c, 9, 74, 95
7, 418560, Note_on_c, 9, 70, 95
7, 418560, Note_on_c, 9, 42, 95
7, 418560, Note_on_c, 9, 36, 95
7, 418800, Note_off_c, 9, 74, 95
7, 418800, Note_off_c, 9, 70, 95
7, 418800, Note_off_c, 9, 42, 95
7, 418800, Note_off_c, 9, 36, 95
7, 418800, Note_on_c, 9, 70, 95
7, 419040, Note_off_c, 9, 70, 95
7, 419040, Note_on_c, 9, 70, 95
7, 419040, Note_on_c, 9, 42, 95
7, 419040, Note_on_c, 9, 36, 95
7, 419280, Note_off_c, 9, 70, 95
7, 419280, Note_off_c, 9, 42, 95
7, 419280, Note_off_c, 9, 36, 95
7, 419280, Note_on_c, 9, 70, 95
7, 419520, Note_off_c, 9, 70, 95
7, 419520, Note_on_c, 9, 70, 95
7, 419520, Note_on_c, 9, 42, 95
7, 419520, Note_on_c, 9, 38, 95
7, 419760, Note_off_c, 9, 70, 95
7, 419760, Note_off_c, 9, 42, 95
7, 419760, Note_off_c, 9, 38, 95
7, 419760, Note_on_c, 9, 70, 95
7, 420000, Note_off_c, 9, 70, 95
7, 420000, Note_on_c, 9, 70, 95
7, 420000, Note_on_c, 9, 42, 95
7, 420240, Note_off_c, 9, 70, 95
7, 420240, Note_off_c, 9, 42, 95
7, 420240, Note_on_c, 9, 70, 95
7, 420480, Note_off_c, 9, 70, 95
7, 420480, Note_on_c, 9, 74, 95
7, 420480, Note_on_c, 9, 70, 95
7, 420480, Note_on_c, 9, 42, 95
7, 420480, Note_on_c, 9, 36, 95
7, 420720, Note_off_c, 9, 74, 95
7, 420720, Note_off_c, 9, 70, 95
7, 420720, Note_off_c, 9, 42, 95
7, 420720, Note_off_c, 9, 36, 95
7, 420720, Note_on_c, 9, 70, 95
7, 420960, Note_off_c, 9, 70, 95
7, 420960, Note_on_c, 9, 70, 95
7, 420960, Note_on_c, 9, 42, 95
7, 420960, Note_on_c, 9, 36, 95
7, 421200, Note_off_c, 9, 70, 95
7, 421200, Note_off_c, 9, 42, 95
7, 421200, Note_off_c, 9, 36, 95
7, 421200, Note_on_c, 9, 70, 95
7, 421440, Note_off_c, 9, 70, 95
7, 421440, Note_on_c, 9, 70, 95
7, 421440, Note_on_c, 9, 42, 95
7, 421440, Note_on_c, 9, 38, 95
7, 421680, Note_off_c, 9, 70, 95
7, 421680, Note_off_c, 9, 42, 95
7, 421680, Note_off_c, 9, 38, 95
7, 421680, Note_on_c, 9, 70, 95
7, 421920, Note_off_c, 9, 70, 95
7, 421920, Note_on_c, 9, 70, 95
7, 421920, Note_on_c, 9, 42, 95
7, 422160, Note_off_c, 9, 70, 95
7, 422160, Note_off_c, 9, 42, 95
7, 422160, Note_on_c, 9, 70, 95
7, 422400, Note_off_c, 9, 70, 95
7, 422400, Note_on_c, 9, 74, 95
7, 422400, Note_on_c, 9, 70, 95
7, 422400, Note_on_c, 9, 42, 95
7, 422400, Note_on_c, 9, 36, 95
7, 422640, Note_off_c, 9, 74, 95
7, 422640, Note_off_c, 9, 70, 95
7, 422640, Note_off_c, 9, 42, 95
7, 422640, Note_off_c, 9, 36, 95
7, 422640, Note_on_c, 9, 70, 95
7, 422880, Note_off_c, 9, 70, 95
7, 422880, Note_on_c, 9, 70, 95
7, 422880, Note_on_c, 9, 42, 95
7, 422880, Note_on_c, 9, 36, 95
7, 423120, Note_off_c, 9, 70, 95
7, 423120, Note_off_c, 9, 42, 95
7, 423120, Note_off_c, 9, 36, 95
7, 423120, Note_on_c, 9, 70, 95
7, 423360, Note_off_c, 9, 70, 95
7, 423360, Note_on_c, 9, 70, 95
7, 423360, Note_on_c, 9, 42, 95
7, 423360, Note_on_c, 9, 38, 95
7, 423600, Note_off_c, 9, 70, 95
7, 423600, Note_off_c, 9, 42, 95
7, 423600, Note_off_c, 9, 38, 95
7, 423600, Note_on_c, 9, 70, 95
7, 423840, Note_off_c, 9, 70, 95
7, 423840, Note_on_c, 9, 70, 95
7, 423840, Note_on_c, 9, 42, 95
7, 424080, Note_off_c, 9, 70, 95
7, 424080, Note_off_c, 9, 42, 95
7, 424080, Note_on_c, 9, 70, 95
7, 424320, Note_off_c, 9, 70, 95
7, 424320, Note_on_c, 9, 74, 95
7, 424320, Note_on_c, 9, 70, 95
7, 424320, Note_on_c, 9, 42, 95
7, 424320, Note_on_c, 9, 36, 95
7, 424560, Note_off_c, 9, 74, 95
7, 424560, Note_off_c, 9, 70, 95
7, 424560, Note_off_c, 9, 42, 95
7, 424560, Note_off_c, 9, 36, 95
7, 424560, Note_on_c, 9, 70, 95
7, 424800, Note_off_c, 9, 70, 95
7, 424800, Note_on_c, 9, 70, 95
7, 424800, Note_on_c, 9, 42, 95
7, 424800, Note_on_c, 9, 36, 95
7, 425040, Note_off_c, 9, 70, 95
7, 425040, Note_off_c, 9, 42, 95
7, 425040, Note_off_c, 9, 36, 95
7, 425040, Note_on_c, 9, 70, 95
7, 425280, Note_off_c, 9, 70, 95
7, 425280, Note_on_c, 9, 70, 95
7, 425280, Note_on_c, 9, 42, 95
7, 425280, Note_on_c, 9, 38, 95
7, 425520, Note_off_c, 9, 70, 95
7, 425520, Note_off_c, 9, 42, 95
7, 425520, Note_off_c, 9, 38, 95
7, 425520, Note_on_c, 9, 70, 95
7, 425760, Note_off_c, 9, 70, 95
7, 425760, Note_on_c, 9, 70, 95
7, 425760, Note_on_c, 9, 42, 95
7, 425760, Note_on_c, 9, 36, 95
7, 426000, Note_off_c, 9, 70, 95
7, 426000, Note_off_c, 9, 42, 95
7, 426000, Note_off_c, 9, 36, 95
7, 426000, Note_on_c, 9, 70, 95
7, 426240, Note_off_c, 9, 70, 95
7, 426240, Note_on_c, 9, 74, 95
7, 426240, Note_on_c, 9, 70, 95
7, 426240, Note_on_c, 9, 38, 111
7, 426240, Note_on_c, 9, 38, 111
7, 426480, Note_off_c, 9, 74, 95
7, 426480, Note_off_c, 9, 70, 95
7, 426480, Note_off_c, 9, 38, 111
7, 426480, Note_off_c, 9, 38, 111
7, 426480, Note_on_c, 9, 70, 95
7, 426720, Note_off_c, 9, 70, 95
7, 426720, Note_on_c, 9, 70, 95
7, 426720, Note_on_c, 9, 36, 111
7, 426960, Note_off_c, 9, 70, 95
7, 426960, Note_off_c, 9, 36, 111
7, 426960, Note_on_c, 9, 70, 95
7, 427200, Note_off_c, 9, 70, 95
7, 427200, Note_on_c, 9, 70, 95
7, 427200, Note_on_c, 9, 50, 127
7, 427440, Note_off_c, 9, 70, 95
7, 427440, Note_off_c, 9, 50, 127
7, 427440, Note_on_c, 9, 70, 95
7, 427680, Note_off_c, 9, 70, 95
7, 427680, Note_on_c, 9, 70, 95
7, 427680, Note_on_c, 9, 36, 111
7, 427920, Note_off_c, 9, 70, 95
7, 427920, Note_off_c, 9, 36, 111
7, 427920, Note_on_c, 9, 70, 95
7, 428160, Note_off_c, 9, 70, 95
7, 428160, Note_on_c, 9, 74, 95
7, 428160, Note_on_c, 9, 70, 95
7, 428160, Note_on_c, 9, 47, 127
7, 428400, Note_off_c, 9, 74, 95
7, 428400, Note_off_c, 9, 70, 95
7, 428400, Note_off_c, 9, 47, 127
7, 428400, Note_on_c, 9, 70, 95
7, 428640, Note_off_c, 9, 70, 95
7, 428640, Note_on_c, 9, 70, 95
7, 428640, Note_on_c, 9, 36, 111
7, 428880, Note_off_c, 9, 70, 95
7, 428880, Note_off_c, 9, 36, 111
7, 428880, Note_on_c, 9, 70, 95
7, 429120, Note_off_c, 9, 70, 95
7, 429120, Note_on_c, 9, 70, 95
7, 429120, Note_on_c, 9, 45, 127
7, 429360, Note_off_c, 9, 70, 95
7, 429360, Note_off_c, 9, 45, 127
7, 429360, Note_on_c, 9, 70, 95
7, 429600, Note_off_c, 9, 70, 95
7, 429600, Note_on_c, 9, 70, 95
7, 429600, Note_on_c, 9, 36, 111
7, 429840, Note_off_c, 9, 70, 95
7, 429840, Note_off_c, 9, 36, 111
7, 429840, Note_on_c, 9, 70, 95
7, 430080, Note_off_c, 9, 70, 95
7, 430080, Note_on_c, 9, 74, 95
7, 430080, Note_on_c, 9, 70, 95
7, 430080, Note_on_c, 9, 46, 95
7, 430080, Note_on_c, 9, 36, 95
7, 430320, Note_off_c, 9, 74, 95
7, 430320, Note_off_c, 9, 70, 95
7, 430320, Note_off_c, 9, 46, 95
7, 430320, Note_off_c, 9, 36, 95
7, 430320, Note_on_c, 9, 70, 95
7, 430560, Note_off_c, 9, 70, 95
7, 430560, Note_on_c, 9, 70, 95
7, 430800, Note_off_c, 9, 70, 95
7, 430800, Note_on_c, 9, 70, 95
7, 431040, Note_off_c, 9, 70, 95
7, 431040, Note_on_c, 9, 70, 95
7, 431040, Note_on_c, 9, 42, 95
7, 431040, Note_on_c, 9, 38, 95
7, 431280, Note_off_c, 9, 70, 95
7, 431280, Note_off_c, 9, 42, 95
7, 431280, Note_off_c, 9, 38, 95
7, 431280, Note_on_c, 9, 70, 95
7, 431520, Note_off_c, 9, 70, 95
7, 431520, Note_on_c, 9, 70, 95
7, 431520, Note_on_c, 9, 42, 95
7, 431760, Note_off_c, 9, 70, 95
7, 431760, Note_off_c, 9, 42, 95
7, 431760, Note_on_c, 9, 70, 95
7, 432000, Note_off_c, 9, 70, 95
7, 432000, Note_on_c, 9, 74, 95
7, 432000, Note_on_c, 9, 70, 95
7, 432000, Note_on_c, 9, 42, 95
7, 432000, Note_on_c, 9, 36, 95
7, 432240, Note_off_c, 9, 74, 95
7, 432240, Note_off_c, 9, 70, 95
7, 432240, Note_off_c, 9, 42, 95
7, 432240, Note_off_c, 9, 36, 95
7, 432240, Note_on_c, 9, 70, 95
7, 432480, Note_off_c, 9, 70, 95
7, 432480, Note_on_c, 9, 70, 95
7, 432480, Note_on_c, 9, 42, 95
7, 432480, Note_on_c, 9, 36, 95
7, 432720, Note_off_c, 9, 70, 95
7, 432720, Note_off_c, 9, 42, 95
7, 432720, Note_off_c, 9, 36, 95
7, 432720, Note_on_c, 9, 70, 95
7, 432960, Note_off_c, 9, 70, 95
7, 432960, Note_on_c, 9, 70, 95
7, 432960, Note_on_c, 9, 42, 95
7, 432960, Note_on_c, 9, 38, 95
7, 433200, Note_off_c, 9, 70, 95
7, 433200, Note_off_c, 9, 42, 95
7, 433200, Note_off_c, 9, 38, 95
7, 433200, Note_on_c, 9, 70, 95
7, 433440, Note_off_c, 9, 70, 95
7, 433440, Note_on_c, 9, 70, 95
7, 433440, Note_on_c, 9, 42, 95
7, 433680, Note_off_c, 9, 70, 95
7, 433680, Note_off_c, 9, 42, 95
7, 433680, Note_on_c, 9, 70, 95
7, 433920, Note_off_c, 9, 70, 95
7, 433920, Note_on_c, 9, 74, 95
7, 433920, Note_on_c, 9, 70, 95
7, 433920, Note_on_c, 9, 42, 95
7, 433920, Note_on_c, 9, 36, 95
7, 434160, Note_off_c, 9, 74, 95
7, 434160, Note_off_c, 9, 70, 95
7, 434160, Note_off_c, 9, 42, 95
7, 434160, Note_off_c, 9, 36, 95
7, 434160, Note_on_c, 9, 70, 95
7, 434400, Note_off_c, 9, 70, 95
7, 434400, Note_on_c, 9, 70, 95
7, 434400, Note_on_c, 9, 42, 95
7, 434400, Note_on_c, 9, 36, 95
7, 434640, Note_off_c, 9, 70, 95
7, 434640, Note_off_c, 9, 42, 95
7, 434640, Note_off_c, 9, 36, 95
7, 434640, Note_on_c, 9, 70, 95
7, 434880, Note_off_c, 9, 70, 95
7, 434880, Note_on_c, 9, 70, 95
7, 434880, Note_on_c, 9, 42, 95
7, 434880, Note_on_c, 9, 38, 95
7, 435120, Note_off_c, 9, 70, 95
7, 435120, Note_off_c, 9, 42, 95
7, 435120, Note_off_c, 9, 38, 95
7, 435120, Note_on_c, 9, 70, 95
7, 435360, Note_off_c, 9, 70, 95
7, 435360, Note_on_c, 9, 70, 95
7, 435360, Note_on_c, 9, 42, 95
7, 435600, Note_off_c, 9, 70, 95
7, 435600, Note_off_c, 9, 42, 95
7, 435600, Note_on_c, 9, 70, 95
7, 435840, Note_off_c, 9, 70, 95
7, 435840, Note_on_c, 9, 74, 95
7, 435840, Note_on_c, 9, 70, 95
7, 435840, Note_on_c, 9, 42, 95
7, 435840, Note_on_c, 9, 36, 95
7, 436080, Note_off_c, 9, 74, 95
7, 436080, Note_off_c, 9, 70, 95
7, 436080, Note_off_c, 9, 42, 95
7, 436080, Note_off_c, 9, 36, 95
7, 436080, Note_on_c, 9, 70, 95
7, 436320, Note_off_c, 9, 70, 95
7, 436320, Note_on_c, 9, 70, 95
7, 436320, Note_on_c, 9, 42, 95
7, 436320, Note_on_c, 9, 36, 95
7, 436560, Note_off_c, 9, 70, 95
7, 436560, Note_off_c, 9, 42, 95
7, 436560, Note_off_c, 9, 36, 95
7, 436560, Note_on_c, 9, 70, 95
7, 436800, Note_off_c, 9, 70, 95
7, 436800, Note_on_c, 9, 70, 95
7, 436800, Note_on_c, 9, 42, 95
7, 436800, Note_on_c, 9, 38, 95
7, 437040, Note_off_c, 9, 70, 95
7, 437040, Note_off_c, 9, 42, 95
7, 437040, Note_off_c, 9, 38, 95
7, 437040, Note_on_c, 9, 70, 95
7, 437280, Note_off_c, 9, 70, 95
7, 437280, Note_on_c, 9, 70, 95
7, 437280, Note_on_c, 9, 42, 95
7, 437520, Note_off_c, 9, 70, 95
7, 437520, Note_off_c, 9, 42, 95
7, 437520, Note_on_c, 9, 70, 95
7, 437760, Note_off_c, 9, 70, 95
7, 437760, Note_on_c, 9, 74, 95
7, 437760, Note_on_c, 9, 70, 95
7, 437760, Note_on_c, 9, 42, 95
7, 437760, Note_on_c, 9, 36, 95
7, 438000, Note_off_c, 9, 74, 95
7, 438000, Note_off_c, 9, 70, 95
7, 438000, Note_off_c, 9, 42, 95
7, 438000, Note_off_c, 9, 36, 95
7, 438000, Note_on_c, 9, 70, 95
7, 438240, Note_off_c, 9, 70, 95
7, 438240, Note_on_c, 9, 70, 95
7, 438240, Note_on_c, 9, 42, 95
7, 438240, Note_on_c, 9, 36, 95
7, 438480, Note_off_c, 9, 70, 95
7, 438480, Note_off_c, 9, 42, 95
7, 438480, Note_off_c, 9, 36, 95
7, 438480, Note_on_c, 9, 70, 95
7, 438720, Note_off_c, 9, 70, 95
7, 438720, Note_on_c, 9, 70, 95
7, 438720, Note_on_c, 9, 42, 95
7, 438720, Note_on_c, 9, 38, 95
7, 438960, Note_off_c, 9, 70, 95
7, 438960, Note_off_c, 9, 42, 95
7, 438960, Note_off_c, 9, 38, 95
7, 438960, Note_on_c, 9, 70, 95
7, 439200, Note_off_c, 9, 70, 95
7, 439200, Note_on_c, 9, 70, 95
7, 439200, Note_on_c, 9, 42, 95
7, 439440, Note_off_c, 9, 70, 95
7, 439440, Note_off_c, 9, 42, 95
7, 439440, Note_on_c, 9, 70, 95
7, 439680, Note_off_c, 9, 70, 95
7, 439680, Note_on_c, 9, 74, 95
7, 439680, Note_on_c, 9, 70, 95
7, 439680, Note_on_c, 9, 42, 95
7, 439680, Note_on_c, 9, 36, 95
7, 439920, Note_off_c, 9, 74, 95
7, 439920, Note_off_c, 9, 70, 95
7, 439920, Note_off_c, 9, 42, 95
7, 439920, Note_off_c, 9, 36, 95
7, 439920, Note_on_c, 9, 70, 95
7, 440160, Note_off_c, 9, 70, 95
7, 440160, Note_on_c, 9, 70, 95
7, 440160, Note_on_c, 9, 42, 95
7, 440160, Note_on_c, 9, 36, 95
7, 440400, Note_off_c, 9, 70, 95
7, 440400, Note_off_c, 9, 42, 95
7, 440400, Note_off_c, 9, 36, 95
7, 440400, Note_on_c, 9, 70, 95
7, 440640, Note_off_c, 9, 70, 95
7, 440640, Note_on_c, 9, 70, 95
7, 440640, Note_on_c, 9, 42, 95
7, 440640, Note_on_c, 9, 38, 95
7, 440880, Note_off_c, 9, 70, 95
7, 440880, Note_off_c, 9, 42, 95
7, 440880, Note_off_c, 9, 38, 95
7, 440880, Note_on_c, 9, 70, 95
7, 441120, Note_off_c, 9, 70, 95
7, 441120, Note_on_c, 9, 70, 95
7, 441120, Note_on_c, 9, 42, 95
7, 441120, Note_on_c, 9, 36, 95
7, 441360, Note_off_c, 9, 70, 95
7, 441360, Note_off_c, 9, 42, 95
7, 441360, Note_off_c, 9, 36, 95
7, 441360, Note_on_c, 9, 70, 95
7, 441600, Note_off_c, 9, 70, 95
7, 441600, Note_on_c, 9, 74, 95
7, 441600, Note_on_c, 9, 70, 95
7, 441600, Note_on_c, 9, 38, 95
7, 441600, Note_on_c, 9, 38, 95
7, 441840, Note_off_c, 9, 74, 95
7, 441840, Note_off_c, 9, 70, 95
7, 441840, Note_off_c, 9, 38, 95
7, 441840, Note_off_c, 9, 38, 95
7, 441840, Note_on_c, 9, 70, 95
7, 442080, Note_off_c, 9, 70, 95
7, 442080, Note_on_c, 9, 70, 95
7, 442080, Note_on_c, 9, 36, 95
7, 442320, Note_off_c, 9, 70, 95
7, 442320, Note_off_c, 9, 36, 95
7, 442320, Note_on_c, 9, 70, 95
7, 442560, Note_off_c, 9, 70, 95
7, 442560, Note_on_c, 9, 70, 95
7, 442560, Note_on_c, 9, 50, 95
7, 442800, Note_off_c, 9, 70, 95
7, 442800, Note_off_c, 9, 50, 95
7, 442800, Note_on_c, 9, 70, 95
7, 443040, Note_off_c, 9, 70, 95
7, 443040, Note_on_c, 9, 70, 95
7, 443040, Note_on_c, 9, 36, 95
7, 443280, Note_off_c, 9, 70, 95
7, 443280, Note_off_c, 9, 36, 95
7, 443280, Note_on_c, 9, 70, 95
7, 443520, Note_off_c, 9, 70, 95
7, 443520, Note_on_c, 9, 74, 95
7, 443520, Note_on_c, 9, 70, 95
7, 443520, Note_on_c, 9, 47, 95
7, 443760, Note_off_c, 9, 74, 95
7, 443760, Note_off_c, 9, 70, 95
7, 443760, Note_off_c, 9, 47, 95
7, 443760, Note_on_c, 9, 70, 95
7, 444000, Note_off_c, 9, 70, 95
7, 444000, Note_on_c, 9, 70, 95
7, 444000, Note_on_c, 9, 36, 95
7, 444240, Note_off_c, 9, 70, 95
7, 444240, Note_off_c, 9, 36, 95
7, 444240, Note_on_c, 9, 70, 95
7, 444480, Note_off_c, 9, 70, 95
7, 444480, Note_on_c, 9, 70, 95
7, 444480, Note_on_c, 9, 45, 95
7, 444720, Note_off_c, 9, 70, 95
7, 444720, Note_off_c, 9, 45, 95
7, 444720, Note_on_c, 9, 70, 95
7, 444960, Note_off_c, 9, 70, 95
7, 444960, Note_on_c, 9, 70, 95
7, 444960, Note_on_c, 9, 36, 95
7, 445200, Note_off_c, 9, 70, 95
7, 445200, Note_off_c, 9, 36, 95
7, 445200, Note_on_c, 9, 70, 95
7, 445440, Note_off_c, 9, 70, 95
7, 445440, Note_on_c, 9, 74, 95
7, 445440, Note_on_c, 9, 70, 95
7, 445440, Note_on_c, 9, 46, 95
7, 445440, Note_on_c, 9, 36, 95
7, 445680, Note_off_c, 9, 74, 95
7, 445680, Note_off_c, 9, 70, 95
7, 445680, Note_off_c, 9, 46, 95
7, 445680, Note_off_c, 9, 36, 95
7, 445680, Note_on_c, 9, 70, 95
7, 445920, Note_off_c, 9, 70, 95
7, 445920, Note_on_c, 9, 70, 95
7, 446160, Note_off_c, 9, 70, 95
7, 446160, Note_on_c, 9, 70, 95
7, 446400, Note_off_c, 9, 70, 95
7, 446400, Note_on_c, 9, 70, 95
7, 446400, Note_on_c, 9, 42, 95
7, 446400, Note_on_c, 9, 38, 95
7, 446640, Note_off_c, 9, 70, 95
7, 446640, Note_off_c, 9, 42, 95
7, 446640, Note_off_c, 9, 38, 95
7, 446640, Note_on_c, 9, 70, 95
7, 446880, Note_off_c, 9, 70, 95
7, 446880, Note_on_c, 9, 70, 95
7, 446880, Note_on_c, 9, 42, 95
7, 447120, Note_off_c, 9, 70, 95
7, 447120, Note_off_c, 9, 42, 95
7, 447120, Note_on_c, 9, 70, 95
7, 447360, Note_off_c, 9, 70, 95
7, 447360, Note_on_c, 9, 74, 95
7, 447360, Note_on_c, 9, 70, 95
7, 447360, Note_on_c, 9, 42, 95
7, 447360, Note_on_c, 9, 36, 95
7, 447600, Note_off_c, 9, 74, 95
7, 447600, Note_off_c, 9, 70, 95
7, 447600, Note_off_c, 9, 42, 95
7, 447600, Note_off_c, 9, 36, 95
7, 447600, Note_on_c, 9, 70, 95
7, 447840, Note_off_c, 9, 70, 95
7, 447840, Note_on_c, 9, 70, 95
7, 447840, Note_on_c, 9, 42, 95
7, 447840, Note_on_c, 9, 36, 95
7, 448080, Note_off_c, 9, 70, 95
7, 448080, Note_off_c, 9, 42, 95
7, 448080, Note_off_c, 9, 36, 95
7, 448080, Note_on_c, 9, 70, 95
7, 448320, Note_off_c, 9, 70, 95
7, 448320, Note_on_c, 9, 70, 95
7, 448320, Note_on_c, 9, 42, 95
7, 448320, Note_on_c, 9, 38, 95
7, 448560, Note_off_c, 9, 70, 95
7, 448560, Note_off_c, 9, 42, 95
7, 448560, Note_off_c, 9, 38, 95
7, 448560, Note_on_c, 9, 70, 95
7, 448800, Note_off_c, 9, 70, 95
7, 448800, Note_on_c, 9, 70, 95
7, 448800, Note_on_c, 9, 42, 95
7, 449040, Note_off_c, 9, 70, 95
7, 449040, Note_off_c, 9, 42, 95
7, 449040, Note_on_c, 9, 70, 95
7, 449280, Note_off_c, 9, 70, 95
7, 449280, Note_on_c, 9, 74, 95
7, 449280, Note_on_c, 9, 70, 95
7, 449280, Note_on_c, 9, 42, 95
7, 449280, Note_on_c, 9, 38, 95
7, 449280, Note_on_c, 9, 36, 95
7, 449520, Note_off_c, 9, 74, 95
7, 449520, Note_off_c, 9, 70, 95
7, 449520, Note_off_c, 9, 42, 95
7, 449520, Note_off_c, 9, 38, 95
7, 449520, Note_off_c, 9, 36, 95
7, 449520, Note_on_c, 9, 70, 95
7, 449760, Note_off_c, 9, 70, 95
7, 449760, Note_on_c, 9, 70, 95
7, 449760, Note_on_c, 9, 42, 95
7, 449760, Note_on_c, 9, 36, 95
7, 450000, Note_off_c, 9, 70, 95
7, 450000, Note_off_c, 9, 42, 95
7, 450000, Note_off_c, 9, 36, 95
7, 450000, Note_on_c, 9, 70, 95
7, 450240, Note_off_c, 9, 70, 95
7, 450240, Note_on_c, 9, 70, 95
7, 450240, Note_on_c, 9, 42, 95
7, 450240, Note_on_c, 9, 38, 95
7, 450480, Note_off_c, 9, 70, 95
7, 450480, Note_off_c, 9, 42, 95
7, 450480, Note_off_c, 9, 38, 95
7, 450480, Note_on_c, 9, 70, 95
7, 450720, Note_off_c, 9, 70, 95
7, 450720, Note_on_c, 9, 70, 95
7, 450720, Note_on_c, 9, 42, 95
7, 450960, Note_off_c, 9, 70, 95
7, 450960, Note_off_c, 9, 42, 95
7, 450960, Note_on_c, 9, 70, 95
7, 451200, Note_off_c, 9, 70, 95
7, 451200, Note_on_c, 9, 74, 95
7, 451200, Note_on_c, 9, 70, 95
7, 451200, Note_on_c, 9, 42, 95
7, 451200, Note_on_c, 9, 38, 95
7, 451200, Note_on_c, 9, 36, 95
7, 451440, Note_off_c, 9, 74, 95
7, 451440, Note_off_c, 9, 70, 95
7, 451440, Note_off_c, 9, 42, 95
7, 451440, Note_off_c, 9, 38, 95
7, 451440, Note_off_c, 9, 36, 95
7, 451440, Note_on_c, 9, 70, 95
7, 451680, Note_off_c, 9, 70, 95
7, 451680, Note_on_c, 9, 70, 95
7, 451680, Note_on_c, 9, 42, 95
7, 451680, Note_on_c, 9, 36, 95
7, 451920, Note_off_c, 9, 70, 95
7, 451920, Note_off_c, 9, 42, 95
7, 451920, Note_off_c, 9, 36, 95
7, 451920, Note_on_c, 9, 70, 95
7, 452160, Note_off_c, 9, 70, 95
7, 452160, Note_on_c, 9, 70, 95
7, 452160, Note_on_c, 9, 42, 95
7, 452160, Note_on_c, 9, 38, 95
7, 452400, Note_off_c, 9, 70, 95
7, 452400, Note_off_c, 9, 42, 95
7, 452400, Note_off_c, 9, 38, 95
7, 452400, Note_on_c, 9, 70, 95
7, 452640, Note_off_c, 9, 70, 95
7, 452640, Note_on_c, 9, 70, 95
7, 452640, Note_on_c, 9, 42, 95
7, 452640, Note_on_c, 9, 36, 95
7, 452880, Note_off_c, 9, 70, 95
7, 452880, Note_off_c, 9, 42, 95
7, 452880, Note_off_c, 9, 36, 95
7, 452880, Note_on_c, 9, 70, 95
7, 453120, Note_off_c, 9, 70, 95
7, 453120, Note_on_c, 9, 74, 95
7, 453120, Note_on_c, 9, 70, 95
7, 453120, Note_on_c, 9, 42, 95
7, 453120, Note_on_c, 9, 38, 95
7, 453120, Note_on_c, 9, 36, 95
7, 453360, Note_off_c, 9, 74, 95
7, 453360, Note_off_c, 9, 70, 95
7, 453360, Note_off_c, 9, 42, 95
7, 453360, Note_off_c, 9, 38, 95
7, 453360, Note_off_c, 9, 36, 95
7, 453360, Note_on_c, 9, 70, 95
7, 453600, Note_off_c, 9, 70, 95
7, 453600, Note_on_c, 9, 70, 95
7, 453600, Note_on_c, 9, 42, 95
7, 453600, Note_on_c, 9, 36, 95
7, 453840, Note_off_c, 9, 70, 95
7, 453840, Note_off_c, 9, 42, 95
7, 453840, Note_off_c, 9, 36, 95
7, 453840, Note_on_c, 9, 70, 95
7, 454080, Note_off_c, 9, 70, 95
7, 454080, Note_on_c, 9, 70, 95
7, 454080, Note_on_c, 9, 42, 95
7, 454080, Note_on_c, 9, 38, 95
7, 454320, Note_off_c, 9, 70, 95
7, 454320, Note_off_c, 9, 42, 95
7, 454320, Note_off_c, 9, 38, 95
7, 454320, Note_on_c, 9, 70, 95
7, 454560, Note_off_c, 9, 70, 95
7, 454560, Note_on_c, 9, 70, 95
7, 454560, Note_on_c, 9, 42, 95
7, 454800, Note_off_c, 9, 70, 95
7, 454800, Note_off_c, 9, 42, 95
7, 454800, Note_on_c, 9, 70, 95
7, 455040, Note_off_c, 9, 70, 95
7, 455040, Note_on_c, 9, 74, 95
7, 455040, Note_on_c, 9, 70, 95
7, 455040, Note_on_c, 9, 42, 95
7, 455040, Note_on_c, 9, 38, 95
7, 455040, Note_on_c, 9, 36, 95
7, 455280, Note_off_c, 9, 74, 95
7, 455280, Note_off_c, 9, 70, 95
7, 455280, Note_off_c, 9, 42, 95
7, 455280, Note_off_c, 9, 38, 95
7, 455280, Note_off_c, 9, 36, 95
7, 455280, Note_on_c, 9, 70, 95
7, 455520, Note_off_c, 9, 70, 95
7, 455520, Note_on_c, 9, 70, 95
7, 455520, Note_on_c, 9, 42, 95
7, 455520, Note_on_c, 9, 36, 95
7, 455760, Note_off_c, 9, 70, 95
7, 455760, Note_off_c, 9, 42, 95
7, 455760, Note_off_c, 9, 36, 95
7, 455760, Note_on_c, 9, 70, 95
7, 456000, Note_off_c, 9, 70, 95
7, 456000, Note_on_c, 9, 70, 95
7, 456000, Note_on_c, 9, 42, 95
7, 456000, Note_on_c, 9, 38, 95
7, 456240, Note_off_c, 9, 70, 95
7, 456240, Note_off_c, 9, 42, 95
7, 456240, Note_off_c, 9, 38, 95
7, 456240, Note_on_c, 9, 70, 95
7, 456480, Note_off_c, 9, 70, 95
7, 456480, Note_on_c, 9, 70, 95
7, 456480, Note_on_c, 9, 42, 95
7, 456480, Note_on_c, 9, 36, 95
7, 456720, Note_off_c, 9, 70, 95
7, 456720, Note_off_c, 9, 42, 95
7, 456720, Note_off_c, 9, 36, 95
7, 456720, Note_on_c, 9, 70, 95
7, 456960, Note_off_c, 9, 70, 95
7, 456960, Note_on_c, 9, 74, 95
7, 456960, Note_on_c, 9, 70, 95
7, 456960, Note_on_c, 9, 38, 111
7, 456960, Note_on_c, 9, 43, 111
7, 457200, Note_off_c, 9, 74, 95
7, 457200, Note_off_c, 9, 70, 95
7, 457200, Note_off_c, 9, 38, 111
7, 457200, Note_off_c, 9, 43, 111
7, 457200, Note_on_c, 9, 70, 95
7, 457440, Note_off_c, 9, 70, 95
7, 457440, Note_on_c, 9, 70, 95
7, 457440, Note_on_c, 9, 43, 111
7, 457440, Note_on_c, 9, 36, 111
7, 457680, Note_off_c, 9, 70, 95
7, 457680, Note_off_c, 9, 43, 111
7, 457680, Note_off_c, 9, 36, 111
7, 457680, Note_on_c, 9, 70, 95
7, 457920, Note_off_c, 9, 70, 95
7, 457920, Note_on_c, 9, 70, 95
7, 457920, Note_on_c, 9, 50, 127
7, 457920, Note_on_c, 9, 43, 111
7, 458160, Note_off_c, 9, 70, 95
7, 458160, Note_off_c, 9, 50, 127
7, 458160, Note_off_c, 9, 43, 111
7, 458160, Note_on_c, 9, 70, 95
7, 458400, Note_off_c, 9, 70, 95
7, 458400, Note_on_c, 9, 70, 95
7, 458400, Note_on_c, 9, 43, 111
7, 458400, Note_on_c, 9, 36, 111
7, 458640, Note_off_c, 9, 70, 95
7, 458640, Note_off_c, 9, 43, 111
7, 458640, Note_off_c, 9, 36, 111
7, 458640, Note_on_c, 9, 70, 95
7, 458880, Note_off_c, 9, 70, 95
7, 458880, Note_on_c, 9, 74, 95
7, 458880, Note_on_c, 9, 70, 95
7, 458880, Note_on_c, 9, 47, 127
7, 458880, Note_on_c, 9, 43, 111
7, 459120, Note_off_c, 9, 74, 95
7, 459120, Note_off_c, 9, 70, 95
7, 459120, Note_off_c, 9, 47, 127
7, 459120, Note_off_c, 9, 43, 111
7, 459120, Note_on_c, 9, 70, 95
7, 459360, Note_off_c, 9, 70, 95
7, 459360, Note_on_c, 9, 70, 95
7, 459360, Note_on_c, 9, 43, 111
7, 459360, Note_on_c, 9, 36, 111
7, 459600, Note_off_c, 9, 70, 95
7, 459600, Note_off_c, 9, 43, 111
7, 459600, Note_off_c, 9, 36, 111
7, 459600, Note_on_c, 9, 70, 95
7, 459840, Note_off_c, 9, 70, 95
7, 459840, Note_on_c, 9, 70, 95
7, 459840, Note_on_c, 9, 45, 127
7, 459840, Note_on_c, 9, 43, 111
7, 460080, Note_off_c, 9, 70, 95
7, 460080, Note_off_c, 9, 45, 127
7, 460080, Note_off_c, 9, 43, 111
7, 460080, Note_on_c, 9, 70, 95
7, 460320, Note_off_c, 9, 70, 95
7, 460320, Note_on_c, 9, 70, 95
7, 460320, Note_on_c, 9, 43, 111
7, 460320, Note_on_c, 9, 36, 111
7, 460560, Note_off_c, 9, 70, 95
7, 460560, Note_off_c, 9, 43, 111
7, 460560, Note_off_c, 9, 36, 111
7, 460560, Note_on_c, 9, 70, 95
7, 460800, Note_off_c, 9, 70, 95
7, 460800, Note_on_c, 9, 74, 95
7, 460800, Note_on_c, 9, 70, 95
7, 460800, Note_on_c, 9, 46, 95
7, 460800, Note_on_c, 9, 36, 95
7, 461040, Note_off_c, 9, 74, 95
7, 461040, Note_off_c, 9, 70, 95
7, 461040, Note_off_c, 9, 46, 95
7, 461040, Note_off_c, 9, 36, 95
7, 461040, Note_on_c, 9, 70, 95
7, 461280, Note_off_c, 9, 70, 95
7, 461280, Note_on_c, 9, 70, 95
7, 461520, Note_off_c, 9, 70, 95
7, 461520, Note_on_c, 9, 70, 95
7, 461760, Note_off_c, 9, 70, 95
7, 461760, Note_on_c, 9, 70, 95
7, 461760, Note_on_c, 9, 42, 95
7, 461760, Note_on_c, 9, 38, 95
7, 462000, Note_off_c, 9, 70, 95
7, 462000, Note_off_c, 9, 42, 95
7, 462000, Note_off_c, 9, 38, 95
7, 462000, Note_on_c, 9, 70, 95
7, 462240, Note_off_c, 9, 70, 95
7, 462240, Note_on_c, 9, 70, 95
7, 462240, Note_on_c, 9, 42, 95
7, 462480, Note_off_c, 9, 70, 95
7, 462480, Note_off_c, 9, 42, 95
7, 462480, Note_on_c, 9, 70, 95
7, 462720, Note_off_c, 9, 70, 95
7, 462720, Note_on_c, 9, 74, 95
7, 462720, Note_on_c, 9, 70, 95
7, 462720, Note_on_c, 9, 42, 95
7, 462960, Note_off_c, 9, 74, 95
7, 462960, Note_off_c, 9, 70, 95
7, 462960, Note_off_c, 9, 42, 95
7, 462960, Note_on_c, 9, 70, 95
7, 463200, Note_off_c, 9, 70, 95
7, 463200, Note_on_c, 9, 70, 95
7, 463200, Note_on_c, 9, 42, 95
7, 463200, Note_on_c, 9, 36, 95
7, 463440, Note_off_c, 9, 70, 95
7, 463440, Note_off_c, 9, 42, 95
7, 463440, Note_off_c, 9, 36, 95
7, 463440, Note_on_c, 9, 70, 95
7, 463680, Note_off_c, 9, 70, 95
7, 463680, Note_on_c, 9, 70, 95
7, 463680, Note_on_c, 9, 42, 95
7, 463680, Note_on_c, 9, 38, 95
7, 463920, Note_off_c, 9, 70, 95
7, 463920, Note_off_c, 9, 42, 95
7, 463920, Note_off_c, 9, 38, 95
7, 463920, Note_on_c, 9, 70, 95
7, 464160, Note_off_c, 9, 70, 95
7, 464160, Note_on_c, 9, 70, 95
7, 464160, Note_on_c, 9, 42, 95
7, 464400, Note_off_c, 9, 70, 95
7, 464400, Note_off_c, 9, 42, 95
7, 464400, Note_on_c, 9, 70, 95
7, 464640, Note_off_c, 9, 70, 95
7, 464640, Note_on_c, 9, 74, 95
7, 464640, Note_on_c, 9, 70, 95
7, 464640, Note_on_c, 9, 42, 95
7, 464640, Note_on_c, 9, 36, 95
7, 464880, Note_off_c, 9, 74, 95
7, 464880, Note_off_c, 9, 70, 95
7, 464880, Note_off_c, 9, 42, 95
7, 464880, Note_off_c, 9, 36, 95
7, 464880, Note_on_c, 9, 70, 95
7, 465120, Note_off_c, 9, 70, 95
7, 465120, Note_on_c, 9, 70, 95
7, 465120, Note_on_c, 9, 42, 95
7, 465120, Note_on_c, 9, 36, 95
7, 465360, Note_off_c, 9, 70, 95
7, 465360, Note_off_c, 9, 42, 95
7, 465360, Note_off_c, 9, 36, 95
7, 465360, Note_on_c, 9, 70, 95
7, 465600, Note_off_c, 9, 70, 95
7, 465600, Note_on_c, 9, 70, 95
7, 465600, Note_on_c, 9, 42, 95
7, 465600, Note_on_c, 9, 38, 95
7, 465840, Note_off_c, 9, 70, 95
7, 465840, Note_off_c, 9, 42, 95
7, 465840, Note_off_c, 9, 38, 95
7, 465840, Note_on_c, 9, 70, 95
7, 466080, Note_off_c, 9, 70, 95
7, 466080, Note_on_c, 9, 70, 95
7, 466080, Note_on_c, 9, 42, 95
7, 466320, Note_off_c, 9, 70, 95
7, 466320, Note_off_c, 9, 42, 95
7, 466320, Note_on_c, 9, 70, 95
7, 466560, Note_off_c, 9, 70, 95
7, 466560, Note_on_c, 9, 74, 95
7, 466560, Note_on_c, 9, 70, 95
7, 466560, Note_on_c, 9, 42, 95
7, 466560, Note_on_c, 9, 36, 95
7, 466800, Note_off_c, 9, 74, 95
7, 466800, Note_off_c, 9, 70, 95
7, 466800, Note_off_c, 9, 42, 95
7, 466800, Note_off_c, 9, 36, 95
7, 466800, Note_on_c, 9, 70, 95
7, 467040, Note_off_c, 9, 70, 95
7, 467040, Note_on_c, 9, 70, 95
7, 467040, Note_on_c, 9, 42, 95
7, 467040, Note_on_c, 9, 36, 95
7, 467280, Note_off_c, 9, 70, 95
7, 467280, Note_off_c, 9, 42, 95
7, 467280, Note_off_c, 9, 36, 95
7, 467280, Note_on_c, 9, 70, 95
7, 467520, Note_off_c, 9, 70, 95
7, 467520, Note_on_c, 9, 70, 95
7, 467520, Note_on_c, 9, 42, 95
7, 467520, Note_on_c, 9, 38, 95
7, 467760, Note_off_c, 9, 70, 95
7, 467760, Note_off_c, 9, 42, 95
7, 467760, Note_off_c, 9, 38, 95
7, 467760, Note_on_c, 9, 70, 95
7, 468000, Note_off_c, 9, 70, 95
7, 468000, Note_on_c, 9, 70, 95
7, 468000, Note_on_c, 9, 42, 95
7, 468240, Note_off_c, 9, 70, 95
7, 468240, Note_off_c, 9, 42, 95
7, 468240, Note_on_c, 9, 70, 95
7, 468480, Note_off_c, 9, 70, 95
7, 468480, Note_on_c, 9, 74, 95
7, 468480, Note_on_c, 9, 70, 95
7, 468480, Note_on_c, 9, 42, 95
7, 468480, Note_on_c, 9, 36, 95
7, 468720, Note_off_c, 9, 74, 95
7, 468720, Note_off_c, 9, 70, 95
7, 468720, Note_off_c, 9, 42, 95
7, 468720, Note_off_c, 9, 36, 95
7, 468720, Note_on_c, 9, 70, 95
7, 468960, Note_off_c, 9, 70, 95
7, 468960, Note_on_c, 9, 70, 95
7, 468960, Note_on_c, 9, 42, 95
7, 468960, Note_on_c, 9, 36, 95
7, 469200, Note_off_c, 9, 70, 95
7, 469200, Note_off_c, 9, 42, 95
7, 469200, Note_off_c, 9, 36, 95
7, 469200, Note_on_c, 9, 70, 95
7, 469440, Note_off_c, 9, 70, 95
7, 469440, Note_on_c, 9, 70, 95
7, 469440, Note_on_c, 9, 42, 95
7, 469440, Note_on_c, 9, 38, 95
7, 469680, Note_off_c, 9, 70, 95
7, 469680, Note_off_c, 9, 42, 95
7, 469680, Note_off_c, 9, 38, 95
7, 469680, Note_on_c, 9, 70, 95
7, 469920, Note_off_c, 9, 70, 95
7, 469920, Note_on_c, 9, 70, 95
7, 469920, Note_on_c, 9, 42, 95
7, 470160, Note_off_c, 9, 70, 95
7, 470160, Note_off_c, 9, 42, 95
7, 470160, Note_on_c, 9, 70, 95
7, 470400, Note_off_c, 9, 70, 95
7, 470400, Note_on_c, 9, 74, 95
7, 470400, Note_on_c, 9, 70, 95
7, 470400, Note_on_c, 9, 42, 95
7, 470400, Note_on_c, 9, 36, 95
7, 470640, Note_off_c, 9, 74, 95
7, 470640, Note_off_c, 9, 70, 95
7, 470640, Note_off_c, 9, 42, 95
7, 470640, Note_off_c, 9, 36, 95
7, 470640, Note_on_c, 9, 70, 95
7, 470880, Note_off_c, 9, 70, 95
7, 470880, Note_on_c, 9, 70, 95
7, 470880, Note_on_c, 9, 42, 95
7, 470880, Note_on_c, 9, 36, 95
7, 471120, Note_off_c, 9, 70, 95
7, 471120, Note_off_c, 9, 42, 95
7, 471120, Note_off_c, 9, 36, 95
7, 471120, Note_on_c, 9, 70, 95
7, 471360, Note_off_c, 9, 70, 95
7, 471360, Note_on_c, 9, 70, 95
7, 471360, Note_on_c, 9, 42, 95
7, 471360, Note_on_c, 9, 38, 95
7, 471600, Note_off_c, 9, 70, 95
7, 471600, Note_off_c, 9, 42, 95
7, 471600, Note_off_c, 9, 38, 95
7, 471600, Note_on_c, 9, 70, 95
7, 471840, Note_off_c, 9, 70, 95
7, 471840, Note_on_c, 9, 70, 95
7, 471840, Note_on_c, 9, 42, 95
7, 471840, Note_on_c, 9, 36, 95
7, 472080, Note_off_c, 9, 70, 95
7, 472080, Note_off_c, 9, 42, 95
7, 472080, Note_off_c, 9, 36, 95
7, 472080, Note_on_c, 9, 70, 95
7, 472320, Note_off_c, 9, 70, 95
7, 472320, Note_on_c, 9, 74, 95
7, 472320, Note_on_c, 9, 70, 95
7, 472320, Note_on_c, 9, 38, 111
7, 472320, Note_on_c, 9, 38, 111
7, 472560, Note_off_c, 9, 74, 95
7, 472560, Note_off_c, 9, 70, 95
7, 472560, Note_off_c, 9, 38, 111
7, 472560, Note_off_c, 9, 38, 111
7, 472560, Note_on_c, 9, 70, 95
7, 472800, Note_off_c, 9, 70, 95
7, 472800, Note_on_c, 9, 70, 95
7, 472800, Note_on_c, 9, 36, 111
7, 473040, Note_off_c, 9, 70, 95
7, 473040, Note_off_c, 9, 36, 111
7, 473040, Note_on_c, 9, 70, 95
7, 473280, Note_off_c, 9, 70, 95
7, 473280, Note_on_c, 9, 70, 95
7, 473280, Note_on_c, 9, 50, 127
7, 473520, Note_off_c, 9, 70, 95
7, 473520, Note_off_c, 9, 50, 127
7, 473520, Note_on_c, 9, 70, 95
7, 473760, Note_off_c, 9, 70, 95
7, 473760, Note_on_c, 9, 70, 95
7, 473760, Note_on_c, 9, 36, 111
7, 474000, Note_off_c, 9, 70, 95
7, 474000, Note_off_c, 9, 36, 111
7, 474000, Note_on_c, 9, 70, 95
7, 474240, Note_off_c, 9, 70, 95
7, 474240, Note_on_c, 9, 74, 95
7, 474240, Note_on_c, 9, 70, 95
7, 474240, Note_on_c, 9, 47, 127
7, 474480, Note_off_c, 9, 74, 95
7, 474480, Note_off_c, 9, 70, 95
7, 474480, Note_off_c, 9, 47, 127
7, 474480, Note_on_c, 9, 70, 95
7, 474720, Note_off_c, 9, 70, 95
7, 474720, Note_on_c, 9, 70, 95
7, 474720, Note_on_c, 9, 36, 111
7, 474960, Note_off_c, 9, 70, 95
7, 474960, Note_off_c, 9, 36, 111
7, 474960, Note_on_c, 9, 70, 95
7, 475200, Note_off_c, 9, 70, 95
7, 475200, Note_on_c, 9, 70, 95
7, 475200, Note_on_c, 9, 45, 127
7, 475440, Note_off_c, 9, 70, 95
7, 475440, Note_off_c, 9, 45, 127
7, 475440, Note_on_c, 9, 70, 95
7, 475680, Note_off_c, 9, 70, 95
7, 475680, Note_on_c, 9, 70, 95
7, 475680, Note_on_c, 9, 36, 111
7, 475920, Note_off_c, 9, 70, 95
7, 475920, Note_off_c, 9, 36, 111
7, 475920, Note_on_c, 9, 70, 95
7, 476160, Note_off_c, 9, 70, 95
7, 476160, Note_on_c, 9, 74, 95
7, 476160, Note_on_c, 9, 70, 95
7, 476160, Note_on_c, 9, 46, 95
7, 476160, Note_on_c, 9, 36, 95
7, 476400, Note_off_c, 9, 74, 95
7, 476400, Note_off_c, 9, 70, 95
7, 476400, Note_off_c, 9, 46, 95
7, 476400, Note_off_c, 9, 36, 95
7, 476400, Note_on_c, 9, 70, 95
7, 476640, Note_off_c, 9, 70, 95
7, 476640, Note_on_c, 9, 70, 95
7, 476880, Note_off_c, 9, 70, 95
7, 476880, Note_on_c, 9, 70, 95
7, 477120, Note_off_c, 9, 70, 95
7, 477120, Note_on_c, 9, 70, 95
7, 477120, Note_on_c, 9, 42, 95
7, 477120, Note_on_c, 9, 38, 95
7, 477360, Note_off_c, 9, 70, 95
7, 477360, Note_off_c, 9, 42, 95
7, 477360, Note_off_c, 9, 38, 95
7, 477360, Note_on_c, 9, 70, 95
7, 477600, Note_off_c, 9, 70, 95
7, 477600, Note_on_c, 9, 70, 95
7, 477600, Note_on_c, 9, 42, 95
7, 477840, Note_off_c, 9, 70, 95
7, 477840, Note_off_c, 9, 42, 95
7, 477840, Note_on_c, 9, 70, 95
7, 478080, Note_off_c, 9, 70, 95
7, 478080, Note_on_c, 9, 74, 95
7, 478080, Note_on_c, 9, 70, 95
7, 478080, Note_on_c, 9, 42, 95
7, 478320, Note_off_c, 9, 74, 95
7, 478320, Note_off_c, 9, 70, 95
7, 478320, Note_off_c, 9, 42, 95
7, 478320, Note_on_c, 9, 70, 95
7, 478560, Note_off_c, 9, 70, 95
7, 478560, Note_on_c, 9, 70, 95
7, 478560, Note_on_c, 9, 42, 95
7, 478560, Note_on_c, 9, 36, 95
7, 478800, Note_off_c, 9, 70, 95
7, 478800, Note_off_c, 9, 42, 95
7, 478800, Note_off_c, 9, 36, 95
7, 478800, Note_on_c, 9, 70, 95
7, 479040, Note_off_c, 9, 70, 95
7, 479040, Note_on_c, 9, 70, 95
7, 479040, Note_on_c, 9, 42, 95
7, 479040, Note_on_c, 9, 38, 95
7, 479280, Note_off_c, 9, 70, 95
7, 479280, Note_off_c, 9, 42, 95
7, 479280, Note_off_c, 9, 38, 95
7, 479280, Note_on_c, 9, 70, 95
7, 479520, Note_off_c, 9, 70, 95
7, 479520, Note_on_c, 9, 70, 95
7, 479520, Note_on_c, 9, 42, 95
7, 479760, Note_off_c, 9, 70, 95
7, 479760, Note_off_c, 9, 42, 95
7, 479760, Note_on_c, 9, 70, 95
7, 480000, Note_off_c, 9, 70, 95
7, 480000, Note_on_c, 9, 74, 95
7, 480000, Note_on_c, 9, 70, 95
7, 480000, Note_on_c, 9, 42, 95
7, 480000, Note_on_c, 9, 36, 95
7, 480240, Note_off_c, 9, 74, 95
7, 480240, Note_off_c, 9, 70, 95
7, 480240, Note_off_c, 9, 42, 95
7, 480240, Note_off_c, 9, 36, 95
7, 480240, Note_on_c, 9, 70, 95
7, 480480, Note_off_c, 9, 70, 95
7, 480480, Note_on_c, 9, 70, 95
7, 480480, Note_on_c, 9, 42, 95
7, 480480, Note_on_c, 9, 36, 95
7, 480720, Note_off_c, 9, 70, 95
7, 480720, Note_off_c, 9, 42, 95
7, 480720, Note_off_c, 9, 36, 95
7, 480720, Note_on_c, 9, 70, 95
7, 480960, Note_off_c, 9, 70, 95
7, 480960, Note_on_c, 9, 70, 95
7, 480960, Note_on_c, 9, 42, 95
7, 480960, Note_on_c, 9, 38, 95
7, 481200, Note_off_c, 9, 70, 95
7, 481200, Note_off_c, 9, 42, 95
7, 481200, Note_off_c, 9, 38, 95
7, 481200, Note_on_c, 9, 70, 95
7, 481440, Note_off_c, 9, 70, 95
7, 481440, Note_on_c, 9, 70, 95
7, 481440, Note_on_c, 9, 42, 95
7, 481680, Note_off_c, 9, 70, 95
7, 481680, Note_off_c, 9, 42, 95
7, 481680, Note_on_c, 9, 70, 95
7, 481920, Note_off_c, 9, 70, 95
7, 481920, Note_on_c, 9, 74, 95
7, 481920, Note_on_c, 9, 70, 95
7, 481920, Note_on_c, 9, 42, 95
7, 481920, Note_on_c, 9, 36, 95
7, 482160, Note_off_c, 9, 74, 95
7, 482160, Note_off_c, 9, 70, 95
7, 482160, Note_off_c, 9, 42, 95
7, 482160, Note_off_c, 9, 36, 95
7, 482160, Note_on_c, 9, 70, 95
7, 482400, Note_off_c, 9, 70, 95
7, 482400, Note_on_c, 9, 70, 95
7, 482400, Note_on_c, 9, 42, 95
7, 482400, Note_on_c, 9, 36, 95
7, 482640, Note_off_c, 9, 70, 95
7, 482640, Note_off_c, 9, 42, 95
7, 482640, Note_off_c, 9, 36, 95
7, 482640, Note_on_c, 9, 70, 95
7, 482880, Note_off_c, 9, 70, 95
7, 482880, Note_on_c, 9, 70, 95
7, 482880, Note_on_c, 9, 42, 95
7, 482880, Note_on_c, 9, 38, 95
7, 483120, Note_off_c, 9, 70, 95
7, 483120, Note_off_c, 9, 42, 95
7, 483120, Note_off_c, 9, 38, 95
7, 483120, Note_on_c, 9, 70, 95
7, 483360, Note_off_c, 9, 70, 95
7, 483360, Note_on_c, 9, 70, 95
7, 483360, Note_on_c, 9, 42, 95
7, 483600, Note_off_c, 9, 70, 95
7, 483600, Note_off_c, 9, 42, 95
7, 483600, Note_on_c, 9, 70, 95
7, 483840, Note_off_c, 9, 70, 95
7, 483840, Note_on_c, 9, 74, 95
7, 483840, Note_on_c, 9, 70, 95
7, 483840, Note_on_c, 9, 42, 95
7, 483840, Note_on_c, 9, 36, 95
7, 484080, Note_off_c, 9, 74, 95
7, 484080, Note_off_c, 9, 70, 95
7, 484080, Note_off_c, 9, 42, 95
7, 484080, Note_off_c, 9, 36, 95
7, 484080, Note_on_c, 9, 70, 95
7, 484320, Note_off_c, 9, 70, 95
7, 484320, Note_on_c, 9, 70, 95
7, 484320, Note_on_c, 9, 42, 95
7, 484560, Note_off_c, 9, 70, 95
7, 484560, Note_off_c, 9, 42, 95
7, 484560, Note_on_c, 9, 70, 95
7, 484800, Note_off_c, 9, 70, 95
7, 484800, Note_on_c, 9, 70, 95
7, 484800, Note_on_c, 9, 42, 95
7, 484800, Note_on_c, 9, 38, 95
7, 485040, Note_off_c, 9, 70, 95
7, 485040, Note_off_c, 9, 42, 95
7, 485040, Note_off_c, 9, 38, 95
7, 485040, Note_on_c, 9, 70, 95
7, 485280, Note_off_c, 9, 70, 95
7, 485280, Note_on_c, 9, 70, 95
7, 485280, Note_on_c, 9, 42, 95
7, 485520, Note_off_c, 9, 70, 95
7, 485520, Note_off_c, 9, 42, 95
7, 485520, Note_on_c, 9, 70, 95
7, 485760, Note_off_c, 9, 70, 95
7, 485760, Note_on_c, 9, 74, 95
7, 485760, Note_on_c, 9, 70, 95
7, 485760, Note_on_c, 9, 42, 95
7, 485760, Note_on_c, 9, 36, 95
7, 486000, Note_off_c, 9, 74, 95
7, 486000, Note_off_c, 9, 70, 95
7, 486000, Note_off_c, 9, 42, 95
7, 486000, Note_off_c, 9, 36, 95
7, 486000, Note_on_c, 9, 70, 95
7, 486240, Note_off_c, 9, 70, 95
7, 486240, Note_on_c, 9, 70, 95
7, 486240, Note_on_c, 9, 42, 95
7, 486240, Note_on_c, 9, 36, 95
7, 486480, Note_off_c, 9, 70, 95
7, 486480, Note_off_c, 9, 42, 95
7, 486480, Note_off_c, 9, 36, 95
7, 486480, Note_on_c, 9, 70, 95
7, 486720, Note_off_c, 9, 70, 95
7, 486720, Note_on_c, 9, 70, 95
7, 486720, Note_on_c, 9, 42, 95
7, 486720, Note_on_c, 9, 38, 95
7, 486960, Note_off_c, 9, 70, 95
7, 486960, Note_off_c, 9, 42, 95
7, 486960, Note_off_c, 9, 38, 95
7, 486960, Note_on_c, 9, 70, 95
7, 487200, Note_off_c, 9, 70, 95
7, 487200, Note_on_c, 9, 70, 95
7, 487200, Note_on_c, 9, 42, 95
7, 487440, Note_off_c, 9, 70, 95
7, 487440, Note_off_c, 9, 42, 95
7, 487440, Note_on_c, 9, 70, 95
7, 487680, Note_off_c, 9, 70, 95
7, 487680, Note_on_c, 9, 74, 95
7, 487680, Note_on_c, 9, 70, 95
7, 487680, Note_on_c, 9, 38, 111
7, 487680, Note_on_c, 9, 38, 95
7, 487920, Note_off_c, 9, 74, 95
7, 487920, Note_off_c, 9, 70, 95
7, 487920, Note_off_c, 9, 38, 111
7, 487920, Note_off_c, 9, 38, 95
7, 487920, Note_on_c, 9, 70, 95
7, 488160, Note_off_c, 9, 70, 95
7, 488160, Note_on_c, 9, 70, 95
7, 488160, Note_on_c, 9, 36, 111
7, 488400, Note_off_c, 9, 70, 95
7, 488400, Note_off_c, 9, 36, 111
7, 488400, Note_on_c, 9, 70, 95
7, 488640, Note_off_c, 9, 70, 95
7, 488640, Note_on_c, 9, 70, 95
7, 488640, Note_on_c, 9, 50, 111
7, 488640, Note_on_c, 9, 50, 111
7, 488880, Note_off_c, 9, 70, 95
7, 488880, Note_off_c, 9, 50, 111
7, 488880, Note_off_c, 9, 50, 111
7, 488880, Note_on_c, 9, 70, 95
7, 489120, Note_off_c, 9, 70, 95
7, 489120, Note_on_c, 9, 70, 95
7, 489120, Note_on_c, 9, 38, 111
7, 489120, Note_on_c, 9, 38, 111
7, 489360, Note_off_c, 9, 70, 95
7, 489360, Note_off_c, 9, 38, 111
7, 489360, Note_off_c, 9, 38, 111
7, 489360, Note_on_c, 9, 70, 95
7, 489600, Note_off_c, 9, 70, 95
7, 489600, Note_on_c, 9, 74, 95
7, 489600, Note_on_c, 9, 70, 95
7, 489600, Note_on_c, 9, 38, 111
7, 489600, Note_on_c, 9, 36, 111
7, 489840, Note_off_c, 9, 74, 95
7, 489840, Note_off_c, 9, 70, 95
7, 489840, Note_off_c, 9, 38, 111
7, 489840, Note_off_c, 9, 36, 111
7, 489840, Note_on_c, 9, 70, 95
7, 490080, Note_off_c, 9, 70, 95
7, 490080, Note_on_c, 9, 70, 95
7, 490080, Note_on_c, 9, 38, 111
7, 490080, Note_on_c, 9, 38, 111
7, 490320, Note_off_c, 9, 70, 95
7, 490320, Note_off_c, 9, 38, 111
7, 490320, Note_off_c, 9, 38, 111
7, 490320, Note_on_c, 9, 70, 95
7, 490560, Note_off_c, 9, 70, 95
7, 490560, Note_on_c, 9, 70, 95
7, 490560, Note_on_c, 9, 38, 111
7, 490560, Note_on_c, 9, 36, 111
7, 490800, Note_off_c, 9, 70, 95
7, 490800, Note_off_c, 9, 38, 111
7, 490800, Note_off_c, 9, 36, 111
7, 490800, Note_on_c, 9, 70, 95
7, 491040, Note_off_c, 9, 70, 95
7, 491040, Note_on_c, 9, 70, 95
7, 491040, Note_on_c, 9, 38, 111
7, 491040, Note_on_c, 9, 38, 111
7, 491280, Note_off_c, 9, 70, 95
7, 491280, Note_off_c, 9, 38, 111
7, 491280, Note_off_c, 9, 38, 111
7, 491280, Note_on_c, 9, 70, 95
7, 491520, Note_off_c, 9, 70, 95
7, 491520, Note_on_c, 9, 74, 95
7, 491520, Note_on_c, 9, 70, 95
7, 491520, Note_on_c, 9, 46, 95
7, 491520, Note_on_c, 9, 36, 95
7, 491760, Note_off_c, 9, 74, 95
7, 491760, Note_off_c, 9, 70, 95
7, 491760, Note_off_c, 9, 46, 95
7, 491760, Note_off_c, 9, 36, 95
7, 491760, Note_on_c, 9, 70, 95
7, 492000, Note_off_c, 9, 70, 95
7, 492000, Note_on_c, 9, 70, 95
7, 492240, Note_off_c, 9, 70, 95
7, 492240, Note_on_c, 9, 70, 95
7, 492480, Note_off_c, 9, 70, 95
7, 492480, Note_on_c, 9, 70, 95
7, 492480, Note_on_c, 9, 42, 95
7, 492480, Note_on_c, 9, 38, 95
7, 492720, Note_off_c, 9, 70, 95
7, 492720, Note_off_c, 9, 42, 95
7, 492720, Note_off_c, 9, 38, 95
7, 492720, Note_on_c, 9, 70, 95
7, 492960, Note_off_c, 9, 70, 95
7, 492960, Note_on_c, 9, 70, 95
7, 492960, Note_on_c, 9, 42, 95
7, 493200, Note_off_c, 9, 70, 95
7, 493200, Note_off_c, 9, 42, 95
7, 493200, Note_on_c, 9, 70, 95
7, 493440, Note_off_c, 9, 70, 95
7, 493440, Note_on_c, 9, 74, 95
7, 493440, Note_on_c, 9, 70, 95
7, 493440, Note_on_c, 9, 42, 95
7, 493680, Note_off_c, 9, 74, 95
7, 493680, Note_off_c, 9, 70, 95
7, 493680, Note_off_c, 9, 42, 95
7, 493680, Note_on_c, 9, 70, 95
7, 493920, Note_off_c, 9, 70, 95
7, 493920, Note_on_c, 9, 70, 95
7, 493920, Note_on_c, 9, 42, 95
7, 493920, Note_on_c, 9, 36, 95
7, 494160, Note_off_c, 9, 70, 95
7, 494160, Note_off_c, 9, 42, 95
7, 494160, Note_off_c, 9, 36, 95
7, 494160, Note_on_c, 9, 70, 95
7, 494400, Note_off_c, 9, 70, 95
7, 494400, Note_on_c, 9, 70, 95
7, 494400, Note_on_c, 9, 42, 95
7, 494400, Note_on_c, 9, 38, 95
7, 494640, Note_off_c, 9, 70, 95
7, 494640, Note_off_c, 9, 42, 95
7, 494640, Note_off_c, 9, 38, 95
7, 494640, Note_on_c, 9, 70, 95
7, 494880, Note_off_c, 9, 70, 95
7, 494880, Note_on_c, 9, 70, 95
7, 494880, Note_on_c, 9, 42, 95
7, 495120, Note_off_c, 9, 70, 95
7, 495120, Note_off_c, 9, 42, 95
7, 495120, Note_on_c, 9, 70, 95
7, 495360, Note_off_c, 9, 70, 95
7, 495360, Note_on_c, 9, 74, 95
7, 495360, Note_on_c, 9, 70, 95
7, 495360, Note_on_c, 9, 42, 95
7, 495360, Note_on_c, 9, 36, 95
7, 495600, Note_off_c, 9, 74, 95
7, 495600, Note_off_c, 9, 70, 95
7, 495600, Note_off_c, 9, 42, 95
7, 495600, Note_off_c, 9, 36, 95
7, 495600, Note_on_c, 9, 70, 95
7, 495840, Note_off_c, 9, 70, 95
7, 495840, Note_on_c, 9, 70, 95
7, 495840, Note_on_c, 9, 42, 95
7, 495840, Note_on_c, 9, 36, 95
7, 496080, Note_off_c, 9, 70, 95
7, 496080, Note_off_c, 9, 42, 95
7, 496080, Note_off_c, 9, 36, 95
7, 496080, Note_on_c, 9, 70, 95
7, 496320, Note_off_c, 9, 70, 95
7, 496320, Note_on_c, 9, 70, 95
7, 496320, Note_on_c, 9, 42, 95
7, 496320, Note_on_c, 9, 38, 95
7, 496560, Note_off_c, 9, 70, 95
7, 496560, Note_off_c, 9, 42, 95
7, 496560, Note_off_c, 9, 38, 95
7, 496560, Note_on_c, 9, 70, 95
7, 496800, Note_off_c, 9, 70, 95
7, 496800, Note_on_c, 9, 70, 95
7, 496800, Note_on_c, 9, 42, 95
7, 497040, Note_off_c, 9, 70, 95
7, 497040, Note_off_c, 9, 42, 95
7, 497040, Note_on_c, 9, 70, 95
7, 497280, Note_off_c, 9, 70, 95
7, 497280, Note_on_c, 9, 74, 95
7, 497280, Note_on_c, 9, 70, 95
7, 497280, Note_on_c, 9, 42, 95
7, 497280, Note_on_c, 9, 36, 95
7, 497520, Note_off_c, 9, 74, 95
7, 497520, Note_off_c, 9, 70, 95
7, 497520, Note_off_c, 9, 42, 95
7, 497520, Note_off_c, 9, 36, 95
7, 497520, Note_on_c, 9, 70, 95
7, 497760, Note_off_c, 9, 70, 95
7, 497760, Note_on_c, 9, 70, 95
7, 497760, Note_on_c, 9, 42, 95
7, 497760, Note_on_c, 9, 36, 95
7, 498000, Note_off_c, 9, 70, 95
7, 498000, Note_off_c, 9, 42, 95
7, 498000, Note_off_c, 9, 36, 95
7, 498000, Note_on_c, 9, 70, 95
7, 498240, Note_off_c, 9, 70, 95
7, 498240, Note_on_c, 9, 70, 95
7, 498240, Note_on_c, 9, 42, 95
7, 498240, Note_on_c, 9, 38, 95
7, 498480, Note_off_c, 9, 70, 95
7, 498480, Note_off_c, 9, 42, 95
7, 498480, Note_off_c, 9, 38, 95
7, 498480, Note_on_c, 9, 70, 95
7, 498720, Note_off_c, 9, 70, 95
7, 498720, Note_on_c, 9, 70, 95
7, 498720, Note_on_c, 9, 42, 95
7, 498960, Note_off_c, 9, 70, 95
7, 498960, Note_off_c, 9, 42, 95
7, 498960, Note_on_c, 9, 70, 95
7, 499200, Note_off_c, 9, 70, 95
7, 499200, Note_on_c, 9, 74, 95
7, 499200, Note_on_c, 9, 70, 95
7, 499200, Note_on_c, 9, 42, 95
7, 499200, Note_on_c, 9, 36, 95
7, 499440, Note_off_c, 9, 74, 95
7, 499440, Note_off_c, 9, 70, 95
7, 499440, Note_off_c, 9, 42, 95
7, 499440, Note_off_c, 9, 36, 95
7, 499440, Note_on_c, 9, 70, 95
7, 499680, Note_off_c, 9, 70, 95
7, 499680, Note_on_c, 9, 70, 95
7, 499680, Note_on_c, 9, 42, 95
7, 499680, Note_on_c, 9, 36, 95
7, 499920, Note_off_c, 9, 70, 95
7, 499920, Note_off_c, 9, 42, 95
7, 499920, Note_off_c, 9, 36, 95
7, 499920, Note_on_c, 9, 70, 95
7, 500160, Note_off_c, 9, 70, 95
7, 500160, Note_on_c, 9, 70, 95
7, 500160, Note_on_c, 9, 42, 95
7, 500160, Note_on_c, 9, 38, 95
7, 500400, Note_off_c, 9, 70, 95
7, 500400, Note_off_c, 9, 42, 95
7, 500400, Note_off_c, 9, 38, 95
7, 500400, Note_on_c, 9, 70, 95
7, 500640, Note_off_c, 9, 70, 95
7, 500640, Note_on_c, 9, 70, 95
7, 500640, Note_on_c, 9, 42, 95
7, 500880, Note_off_c, 9, 70, 95
7, 500880, Note_off_c, 9, 42, 95
7, 500880, Note_on_c, 9, 70, 95
7, 501120, Note_off_c, 9, 70, 95
7, 501120, Note_on_c, 9, 74, 95
7, 501120, Note_on_c, 9, 70, 95
7, 501120, Note_on_c, 9, 42, 95
7, 501120, Note_on_c, 9, 36, 95
7, 501360, Note_off_c, 9, 74, 95
7, 501360, Note_off_c, 9, 70, 95
7, 501360, Note_off_c, 9, 42, 95
7, 501360, Note_off_c, 9, 36, 95
7, 501360, Note_on_c, 9, 70, 95
7, 501600, Note_off_c, 9, 70, 95
7, 501600, Note_on_c, 9, 70, 95
7, 501600, Note_on_c, 9, 42, 95
7, 501600, Note_on_c, 9, 36, 95
7, 501840, Note_off_c, 9, 70, 95
7, 501840, Note_off_c, 9, 42, 95
7, 501840, Note_off_c, 9, 36, 95
7, 501840, Note_on_c, 9, 70, 95
7, 502080, Note_off_c, 9, 70, 95
7, 502080, Note_on_c, 9, 70, 95
7, 502080, Note_on_c, 9, 42, 95
7, 502080, Note_on_c, 9, 38, 95
7, 502320, Note_off_c, 9, 70, 95
7, 502320, Note_off_c, 9, 42, 95
7, 502320, Note_off_c, 9, 38, 95
7, 502320, Note_on_c, 9, 70, 95
7, 502560, Note_off_c, 9, 70, 95
7, 502560, Note_on_c, 9, 70, 95
7, 502560, Note_on_c, 9, 42, 95
7, 502560, Note_on_c, 9, 36, 95
7, 502800, Note_off_c, 9, 70, 95
7, 502800, Note_off_c, 9, 42, 95
7, 502800, Note_off_c, 9, 36, 95
7, 502800, Note_on_c, 9, 70, 95
7, 503040, Note_off_c, 9, 70, 95
7, 503040, Note_on_c, 9, 74, 95
7, 503040, Note_on_c, 9, 70, 95
7, 503040, Note_on_c, 9, 38, 111
7, 503040, Note_on_c, 9, 38, 111
7, 503280, Note_off_c, 9, 74, 95
7, 503280, Note_off_c, 9, 70, 95
7, 503280, Note_off_c, 9, 38, 111
7, 503280, Note_off_c, 9, 38, 111
7, 503280, Note_on_c, 9, 70, 95
7, 503520, Note_off_c, 9, 70, 95
7, 503520, Note_on_c, 9, 70, 95
7, 503520, Note_on_c, 9, 36, 111
7, 503760, Note_off_c, 9, 70, 95
7, 503760, Note_off_c, 9, 36, 111
7, 503760, Note_on_c, 9, 70, 95
7, 504000, Note_off_c, 9, 70, 95
7, 504000, Note_on_c, 9, 70, 95
7, 504000, Note_on_c, 9, 50, 127
7, 504240, Note_off_c, 9, 70, 95
7, 504240, Note_off_c, 9, 50, 127
7, 504240, Note_on_c, 9, 70, 95
7, 504480, Note_off_c, 9, 70, 95
7, 504480, Note_on_c, 9, 70, 95
7, 504480, Note_on_c, 9, 36, 111
7, 504720, Note_off_c, 9, 70, 95
7, 504720, Note_off_c, 9, 36, 111
7, 504720, Note_on_c, 9, 70, 95
7, 504960, Note_off_c, 9, 70, 95
7, 504960, Note_on_c, 9, 74, 95
7, 504960, Note_on_c, 9, 70, 95
7, 504960, Note_on_c, 9, 47, 127
7, 505200, Note_off_c, 9, 74, 95
7, 505200, Note_off_c, 9, 70, 95
7, 505200, Note_off_c, 9, 47, 127
7, 505200, Note_on_c, 9, 70, 95
7, 505440, Note_off_c, 9, 70, 95
7, 505440, Note_on_c, 9, 70, 95
7, 505440, Note_on_c, 9, 36, 111
7, 505680, Note_off_c, 9, 70, 95
7, 505680, Note_off_c, 9, 36, 111
7, 505680, Note_on_c, 9, 70, 95
7, 505920, Note_off_c, 9, 70, 95
7, 505920, Note_on_c, 9, 70, 95
7, 505920, Note_on_c, 9, 45, 127
7, 506160, Note_off_c, 9, 70, 95
7, 506160, Note_off_c, 9, 45, 127
7, 506160, Note_on_c, 9, 70, 95
7, 506400, Note_off_c, 9, 70, 95
7, 506400, Note_on_c, 9, 70, 95
7, 506400, Note_on_c, 9, 36, 111
7, 506640, Note_off_c, 9, 70, 95
7, 506640, Note_off_c, 9, 36, 111
7, 506640, Note_on_c, 9, 70, 95
7, 506880, Note_off_c, 9, 70, 95
7, 506880, Note_on_c, 9, 74, 95
7, 506880, Note_on_c, 9, 70, 95
7, 506880, Note_on_c, 9, 46, 95
7, 506880, Note_on_c, 9, 36, 95
7, 507120, Note_off_c, 9, 74, 95
7, 507120, Note_off_c, 9, 70, 95
7, 507120, Note_off_c, 9, 46, 95
7, 507120, Note_off_c, 9, 36, 95
7, 507120, Note_on_c, 9, 70, 95
7, 507360, Note_off_c, 9, 70, 95
7, 507360, Note_on_c, 9, 70, 95
7, 507600, Note_off_c, 9, 70, 95
7, 507600, Note_on_c, 9, 70, 95
7, 507840, Note_off_c, 9, 70, 95
7, 507840, Note_on_c, 9, 70, 95
7, 507840, Note_on_c, 9, 42, 95
7, 507840, Note_on_c, 9, 38, 95
7, 508080, Note_off_c, 9, 70, 95
7, 508080, Note_off_c, 9, 42, 95
7, 508080, Note_off_c, 9, 38, 95
7, 508080, Note_on_c, 9, 70, 95
7, 508320, Note_off_c, 9, 70, 95
7, 508320, Note_on_c, 9, 70, 95
7, 508320, Note_on_c, 9, 42, 95
7, 508560, Note_off_c, 9, 70, 95
7, 508560, Note_off_c, 9, 42, 95
7, 508560, Note_on_c, 9, 70, 95
7, 508800, Note_off_c, 9, 70, 95
7, 508800, Note_on_c, 9, 74, 95
7, 508800, Note_on_c, 9, 70, 95
7, 508800, Note_on_c, 9, 42, 95
7, 509040, Note_off_c, 9, 74, 95
7, 509040, Note_off_c, 9, 70, 95
7, 509040, Note_off_c, 9, 42, 95
7, 509040, Note_on_c, 9, 70, 95
7, 509280, Note_off_c, 9, 70, 95
7, 509280, Note_on_c, 9, 70, 95
7, 509280, Note_on_c, 9, 42, 95
7, 509280, Note_on_c, 9, 36, 95
7, 509520, Note_off_c, 9, 70, 95
7, 509520, Note_off_c, 9, 42, 95
7, 509520, Note_off_c, 9, 36, 95
7, 509520, Note_on_c, 9, 70, 95
7, 509760, Note_off_c, 9, 70, 95
7, 509760, Note_on_c, 9, 70, 95
7, 509760, Note_on_c, 9, 42, 95
7, 509760, Note_on_c, 9, 38, 95
7, 510000, Note_off_c, 9, 70, 95
7, 510000, Note_off_c, 9, 42, 95
7, 510000, Note_off_c, 9, 38, 95
7, 510000, Note_on_c, 9, 70, 95
7, 510240, Note_off_c, 9, 70, 95
7, 510240, Note_on_c, 9, 70, 95
7, 510240, Note_on_c, 9, 42, 95
7, 510480, Note_off_c, 9, 70, 95
7, 510480, Note_off_c, 9, 42, 95
7, 510480, Note_on_c, 9, 70, 95
7, 510720, Note_off_c, 9, 70, 95
7, 510720, Note_on_c, 9, 74, 95
7, 510720, Note_on_c, 9, 70, 95
7, 510720, Note_on_c, 9, 42, 95
7, 510720, Note_on_c, 9, 36, 95
7, 510960, Note_off_c, 9, 74, 95
7, 510960, Note_off_c, 9, 70, 95
7, 510960, Note_off_c, 9, 42, 95
7, 510960, Note_off_c, 9, 36, 95
7, 510960, Note_on_c, 9, 70, 95
7, 511200, Note_off_c, 9, 70, 95
7, 511200, Note_on_c, 9, 70, 95
7, 511200, Note_on_c, 9, 42, 95
7, 511200, Note_on_c, 9, 36, 95
7, 511440, Note_off_c, 9, 70, 95
7, 511440, Note_off_c, 9, 42, 95
7, 511440, Note_off_c, 9, 36, 95
7, 511440, Note_on_c, 9, 70, 95
7, 511680, Note_off_c, 9, 70, 95
7, 511680, Note_on_c, 9, 70, 95
7, 511680, Note_on_c, 9, 42, 95
7, 511680, Note_on_c, 9, 38, 95
7, 511920, Note_off_c, 9, 70, 95
7, 511920, Note_off_c, 9, 42, 95
7, 511920, Note_off_c, 9, 38, 95
7, 511920, Note_on_c, 9, 70, 95
7, 512160, Note_off_c, 9, 70, 95
7, 512160, Note_on_c, 9, 70, 95
7, 512160, Note_on_c, 9, 42, 95
7, 512400, Note_off_c, 9, 70, 95
7, 512400, Note_off_c, 9, 42, 95
7, 512400, Note_on_c, 9, 70, 95
7, 512640, Note_off_c, 9, 70, 95
7, 512640, Note_on_c, 9, 74, 95
7, 512640, Note_on_c, 9, 70, 95
7, 512640, Note_on_c, 9, 42, 95
7, 512640, Note_on_c, 9, 36, 95
7, 512880, Note_off_c, 9, 74, 95
7, 512880, Note_off_c, 9, 70, 95
7, 512880, Note_off_c, 9, 42, 95
7, 512880, Note_off_c, 9, 36, 95
7, 512880, Note_on_c, 9, 70, 95
7, 513120, Note_off_c, 9, 70, 95
7, 513120, Note_on_c, 9, 70, 95
7, 513120, Note_on_c, 9, 42, 95
7, 513120, Note_on_c, 9, 36, 95
7, 513360, Note_off_c, 9, 70, 95
7, 513360, Note_off_c, 9, 42, 95
7, 513360, Note_off_c, 9, 36, 95
7, 513360, Note_on_c, 9, 70, 95
7, 513600, Note_off_c, 9, 70, 95
7, 513600, Note_on_c, 9, 70, 95
7, 513600, Note_on_c, 9, 42, 95
7, 513600, Note_on_c, 9, 38, 95
7, 513840, Note_off_c, 9, 70, 95
7, 513840, Note_off_c, 9, 42, 95
7, 513840, Note_off_c, 9, 38, 95
7, 513840, Note_on_c, 9, 70, 95
7, 514080, Note_off_c, 9, 70, 95
7, 514080, Note_on_c, 9, 70, 95
7, 514080, Note_on_c, 9, 42, 95
7, 514320, Note_off_c, 9, 70, 95
7, 514320, Note_off_c, 9, 42, 95
7, 514320, Note_on_c, 9, 70, 95
7, 514560, Note_off_c, 9, 70, 95
7, 514560, Note_on_c, 9, 74, 95
7, 514560, Note_on_c, 9, 70, 95
7, 514560, Note_on_c, 9, 42, 95
7, 514560, Note_on_c, 9, 36, 95
7, 514800, Note_off_c, 9, 74, 95
7, 514800, Note_off_c, 9, 70, 95
7, 514800, Note_off_c, 9, 42, 95
7, 514800, Note_off_c, 9, 36, 95
7, 514800, Note_on_c, 9, 70, 95
7, 515040, Note_off_c, 9, 70, 95
7, 515040, Note_on_c, 9, 70, 95
7, 515040, Note_on_c, 9, 42, 95
7, 515280, Note_off_c, 9, 70, 95
7, 515280, Note_off_c, 9, 42, 95
7, 515280, Note_on_c, 9, 70, 95
7, 515520, Note_off_c, 9, 70, 95
7, 515520, Note_on_c, 9, 70, 95
7, 515520, Note_on_c, 9, 42, 95
7, 515520, Note_on_c, 9, 38, 95
7, 515760, Note_off_c, 9, 70, 95
7, 515760, Note_off_c, 9, 42, 95
7, 515760, Note_off_c, 9, 38, 95
7, 515760, Note_on_c, 9, 70, 95
7, 516000, Note_off_c, 9, 70, 95
7, 516000, Note_on_c, 9, 70, 95
7, 516000, Note_on_c, 9, 42, 95
7, 516240, Note_off_c, 9, 70, 95
7, 516240, Note_off_c, 9, 42, 95
7, 516240, Note_on_c, 9, 70, 95
7, 516480, Note_off_c, 9, 70, 95
7, 516480, Note_on_c, 9, 74, 95
7, 516480, Note_on_c, 9, 70, 95
7, 516480, Note_on_c, 9, 42, 95
7, 516480, Note_on_c, 9, 36, 95
7, 516720, Note_off_c, 9, 74, 95
7, 516720, Note_off_c, 9, 70, 95
7, 516720, Note_off_c, 9, 42, 95
7, 516720, Note_off_c, 9, 36, 95
7, 516720, Note_on_c, 9, 70, 95
7, 516960, Note_off_c, 9, 70, 95
7, 516960, Note_on_c, 9, 70, 95
7, 516960, Note_on_c, 9, 42, 95
7, 516960, Note_on_c, 9, 36, 95
7, 517200, Note_off_c, 9, 70, 95
7, 517200, Note_off_c, 9, 42, 95
7, 517200, Note_off_c, 9, 36, 95
7, 517200, Note_on_c, 9, 70, 95
7, 517440, Note_off_c, 9, 70, 95
7, 517440, Note_on_c, 9, 70, 95
7, 517440, Note_on_c, 9, 42, 95
7, 517440, Note_on_c, 9, 38, 95
7, 517680, Note_off_c, 9, 70, 95
7, 517680, Note_off_c, 9, 42, 95
7, 517680, Note_off_c, 9, 38, 95
7, 517680, Note_on_c, 9, 70, 95
7, 517920, Note_off_c, 9, 70, 95
7, 517920, Note_on_c, 9, 70, 95
7, 517920, Note_on_c, 9, 42, 95
7, 518160, Note_off_c, 9, 70, 95
7, 518160, Note_off_c, 9, 42, 95
7, 518160, Note_on_c, 9, 70, 95
7, 518400, Note_off_c, 9, 70, 95
7, 518400, Note_on_c, 9, 74, 95
7, 518400, Note_on_c, 9, 70, 95
7, 518400, Note_on_c, 9, 38, 111
7, 518400, Note_on_c, 9, 38, 95
7, 518640, Note_off_c, 9, 74, 95
7, 518640, Note_off_c, 9, 70, 95
7, 518640, Note_off_c, 9, 38, 111
7, 518640, Note_off_c, 9, 38, 95
7, 518640, Note_on_c, 9, 70, 95
7, 518880, Note_off_c, 9, 70, 95
7, 518880, Note_on_c, 9, 70, 95
7, 518880, Note_on_c, 9, 36, 111
7, 519120, Note_off_c, 9, 70, 95
7, 519120, Note_off_c, 9, 36, 111
7, 519120, Note_on_c, 9, 70, 95
7, 519360, Note_off_c, 9, 70, 95
7, 519360, Note_on_c, 9, 70, 95
7, 519360, Note_on_c, 9, 50, 111
7, 519360, Note_on_c, 9, 50, 111
7, 519600, Note_off_c, 9, 70, 95
7, 519600, Note_off_c, 9, 50, 111
7, 519600, Note_off_c, 9, 50, 111
7, 519600, Note_on_c, 9, 70, 95
7, 519840, Note_off_c, 9, 70, 95
7, 519840, Note_on_c, 9, 70, 95
7, 519840, Note_on_c, 9, 38, 111
7, 519840, Note_on_c, 9, 38, 111
7, 520080, Note_off_c, 9, 70, 95
7, 520080, Note_off_c, 9, 38, 111
7, 520080, Note_off_c, 9, 38, 111
7, 520080, Note_on_c, 9, 70, 95
7, 520320, Note_off_c, 9, 70, 95
7, 520320, Note_on_c, 9, 74, 95
7, 520320, Note_on_c, 9, 70, 95
7, 520320, Note_on_c, 9, 38, 111
7, 520320, Note_on_c, 9, 36, 111
7, 520560, Note_off_c, 9, 74, 95
7, 520560, Note_off_c, 9, 70, 95
7, 520560, Note_off_c, 9, 38, 111
7, 520560, Note_off_c, 9, 36, 111
7, 520560, Note_on_c, 9, 70, 95
7, 520800, Note_off_c, 9, 70, 95
7, 520800, Note_on_c, 9, 70, 95
7, 520800, Note_on_c, 9, 38, 111
7, 520800, Note_on_c, 9, 38, 111
7, 521040, Note_off_c, 9, 70, 95
7, 521040, Note_off_c, 9, 38, 111
7, 521040, Note_off_c, 9, 38, 111
7, 521040, Note_on_c, 9, 70, 95
7, 521280, Note_off_c, 9, 70, 95
7, 521280, Note_on_c, 9, 70, 95
7, 521280, Note_on_c, 9, 38, 111
7, 521280, Note_on_c, 9, 36, 111
7, 521520, Note_off_c, 9, 70, 95
7, 521520, Note_off_c, 9, 38, 111
7, 521520, Note_off_c, 9, 36, 111
7, 521520, Note_on_c, 9, 70, 95
7, 521760, Note_off_c, 9, 70, 95
7, 521760, Note_on_c, 9, 70, 95
7, 521760, Note_on_c, 9, 38, 111
7, 521760, Note_on_c, 9, 38, 111
7, 522000, Note_off_c, 9, 70, 95
7, 522000, Note_off_c, 9, 38, 111
7, 522000, Note_off_c, 9, 38, 111
7, 522000, Note_on_c, 9, 70, 95
7, 522240, Note_off_c, 9, 70, 95
7, 522240, Note_on_c, 9, 74, 95
7, 522240, Note_on_c, 9, 70, 95
7, 522240, Note_on_c, 9, 46, 95
7, 522240, Note_on_c, 9, 36, 95
7, 522480, Note_off_c, 9, 74, 95
7, 522480, Note_off_c, 9, 70, 95
7, 522480, Note_off_c, 9, 46, 95
7, 522480, Note_off_c, 9, 36, 95
7, 522480, Note_on_c, 9, 70, 95
7, 522720, Note_off_c, 9, 70, 95
7, 522720, Note_on_c, 9, 70, 95
7, 522960, Note_off_c, 9, 70, 95
7, 522960, Note_on_c, 9, 70, 95
7, 523200, Note_off_c, 9, 70, 95
7, 523200, Note_on_c, 9, 70, 95
7, 523200, Note_on_c, 9, 42, 95
7, 523200, Note_on_c, 9, 38, 95
7, 523440, Note_off_c, 9, 70, 95
7, 523440, Note_off_c, 9, 42, 95
7, 523440, Note_off_c, 9, 38, 95
7, 523440, Note_on_c, 9, 70, 95
7, 523680, Note_off_c, 9, 70, 95
7, 523680, Note_on_c, 9, 70, 95
7, 523680, Note_on_c, 9, 42, 95
7, 523920, Note_off_c, 9, 70, 95
7, 523920, Note_off_c, 9, 42, 95
7, 523920, Note_on_c, 9, 70, 95
7, 524160, Note_off_c, 9, 70, 95
7, 524160, Note_on_c, 9, 74, 95
7, 524160, Note_on_c, 9, 70, 95
7, 524160, Note_on_c, 9, 42, 95
7, 524400, Note_off_c, 9, 74, 95
7, 524400, Note_off_c, 9, 70, 95
7, 524400, Note_off_c, 9, 42, 95
7, 524400, Note_on_c, 9, 70, 95
7, 524640, Note_off_c, 9, 70, 95
7, 524640, Note_on_c, 9, 70, 95
7, 524640, Note_on_c, 9, 42, 95
7, 524640, Note_on_c, 9, 36, 95
7, 524880, Note_off_c, 9, 70, 95
7, 524880, Note_off_c, 9, 42, 95
7, 524880, Note_off_c, 9, 36, 95
7, 524880, Note_on_c, 9, 70, 95
7, 525120, Note_off_c, 9, 70, 95
7, 525120, Note_on_c, 9, 70, 95
7, 525120, Note_on_c, 9, 42, 95
7, 525120, Note_on_c, 9, 38, 95
7, 525360, Note_off_c, 9, 70, 95
7, 525360, Note_off_c, 9, 42, 95
7, 525360, Note_off_c, 9, 38, 95
7, 525360, Note_on_c, 9, 70, 95
7, 525600, Note_off_c, 9, 70, 95
7, 525600, Note_on_c, 9, 70, 95
7, 525600, Note_on_c, 9, 42, 95
7, 525840, Note_off_c, 9, 70, 95
7, 525840, Note_off_c, 9, 42, 95
7, 525840, Note_on_c, 9, 70, 95
7, 526080, Note_off_c, 9, 70, 95
7, 526080, Note_on_c, 9, 74, 95
7, 526080, Note_on_c, 9, 70, 95
7, 526080, Note_on_c, 9, 42, 95
7, 526080, Note_on_c, 9, 36, 95
7, 526320, Note_off_c, 9, 74, 95
7, 526320, Note_off_c, 9, 70, 95
7, 526320, Note_off_c, 9, 42, 95
7, 526320, Note_off_c, 9, 36, 95
7, 526320, Note_on_c, 9, 70, 95
7, 526560, Note_off_c, 9, 70, 95
7, 526560, Note_on_c, 9, 70, 95
7, 526560, Note_on_c, 9, 42, 95
7, 526560, Note_on_c, 9, 36, 95
7, 526800, Note_off_c, 9, 70, 95
7, 526800, Note_off_c, 9, 42, 95
7, 526800, Note_off_c, 9, 36, 95
7, 526800, Note_on_c, 9, 70, 95
7, 527040, Note_off_c, 9, 70, 95
7, 527040, Note_on_c, 9, 70, 95
7, 527040, Note_on_c, 9, 42, 95
7, 527040, Note_on_c, 9, 38, 95
7, 527280, Note_off_c, 9, 70, 95
7, 527280, Note_off_c, 9, 42, 95
7, 527280, Note_off_c, 9, 38, 95
7, 527280, Note_on_c, 9, 70, 95
7, 527520, Note_off_c, 9, 70, 95
7, 527520, Note_on_c, 9, 70, 95
7, 527520, Note_on_c, 9, 42, 95
7, 527760, Note_off_c, 9, 70, 95
7, 527760, Note_off_c, 9, 42, 95
7, 527760, Note_on_c, 9, 70, 95
7, 528000, Note_off_c, 9, 70, 95
7, 528000, Note_on_c, 9, 74, 95
7, 528000, Note_on_c, 9, 70, 95
7, 528000, Note_on_c, 9, 42, 95
7, 528000, Note_on_c, 9, 36, 95
7, 528240, Note_off_c, 9, 74, 95
7, 528240, Note_off_c, 9, 70, 95
7, 528240, Note_off_c, 9, 42, 95
7, 528240, Note_off_c, 9, 36, 95
7, 528240, Note_on_c, 9, 70, 95
7, 528480, Note_off_c, 9, 70, 95
7, 528480, Note_on_c, 9, 70, 95
7, 528480, Note_on_c, 9, 42, 95
7, 528480, Note_on_c, 9, 36, 95
7, 528720, Note_off_c, 9, 70, 95
7, 528720, Note_off_c, 9, 42, 95
7, 528720, Note_off_c, 9, 36, 95
7, 528720, Note_on_c, 9, 70, 95
7, 528960, Note_off_c, 9, 70, 95
7, 528960, Note_on_c, 9, 70, 95
7, 528960, Note_on_c, 9, 42, 95
7, 528960, Note_on_c, 9, 38, 95
7, 529200, Note_off_c, 9, 70, 95
7, 529200, Note_off_c, 9, 42, 95
7, 529200, Note_off_c, 9, 38, 95
7, 529200, Note_on_c, 9, 70, 95
7, 529440, Note_off_c, 9, 70, 95
7, 529440, Note_on_c, 9, 70, 95
7, 529440, Note_on_c, 9, 42, 95
7, 529680, Note_off_c, 9, 70, 95
7, 529680, Note_off_c, 9, 42, 95
7, 529680, Note_on_c, 9, 70, 95
7, 529920, Note_off_c, 9, 70, 95
7, 529920, Note_on_c, 9, 74, 95
7, 529920, Note_on_c, 9, 70, 95
7, 529920, Note_on_c, 9, 42, 95
7, 529920, Note_on_c, 9, 36, 95
7, 530160, Note_off_c, 9, 74, 95
7, 530160, Note_off_c, 9, 70, 95
7, 530160, Note_off_c, 9, 42, 95
7, 530160, Note_off_c, 9, 36, 95
7, 530160, Note_on_c, 9, 70, 95
7, 530400, Note_off_c, 9, 70, 95
7, 530400, Note_on_c, 9, 70, 95
7, 530400, Note_on_c, 9, 42, 95
7, 530400, Note_on_c, 9, 36, 95
7, 530640, Note_off_c, 9, 70, 95
7, 530640, Note_off_c, 9, 42, 95
7, 530640, Note_off_c, 9, 36, 95
7, 530640, Note_on_c, 9, 70, 95
7, 530880, Note_off_c, 9, 70, 95
7, 530880, Note_on_c, 9, 70, 95
7, 530880, Note_on_c, 9, 42, 95
7, 530880, Note_on_c, 9, 38, 95
7, 531120, Note_off_c, 9, 70, 95
7, 531120, Note_off_c, 9, 42, 95
7, 531120, Note_off_c, 9, 38, 95
7, 531120, Note_on_c, 9, 70, 95
7, 531360, Note_off_c, 9, 70, 95
7, 531360, Note_on_c, 9, 70, 95
7, 531360, Note_on_c, 9, 42, 95
7, 531600, Note_off_c, 9, 70, 95
7, 531600, Note_off_c, 9, 42, 95
7, 531600, Note_on_c, 9, 70, 95
7, 531840, Note_off_c, 9, 70, 95
7, 531840, Note_on_c, 9, 74, 95
7, 531840, Note_on_c, 9, 70, 95
7, 531840, Note_on_c, 9, 42, 95
7, 531840, Note_on_c, 9, 36, 95
7, 532080, Note_off_c, 9, 74, 95
7, 532080, Note_off_c, 9, 70, 95
7, 532080, Note_off_c, 9, 42, 95
7, 532080, Note_off_c, 9, 36, 95
7, 532080, Note_on_c, 9, 70, 95
7, 532320, Note_off_c, 9, 70, 95
7, 532320, Note_on_c, 9, 70, 95
7, 532320, Note_on_c, 9, 42, 95
7, 532320, Note_on_c, 9, 36, 95
7, 532560, Note_off_c, 9, 70, 95
7, 532560, Note_off_c, 9, 42, 95
7, 532560, Note_off_c, 9, 36, 95
7, 532560, Note_on_c, 9, 70, 95
7, 532800, Note_off_c, 9, 70, 95
7, 532800, Note_on_c, 9, 70, 95
7, 532800, Note_on_c, 9, 42, 95
7, 532800, Note_on_c, 9, 38, 95
7, 533040, Note_off_c, 9, 70, 95
7, 533040, Note_off_c, 9, 42, 95
7, 533040, Note_off_c, 9, 38, 95
7, 533040, Note_on_c, 9, 70, 95
7, 533280, Note_off_c, 9, 70, 95
7, 533280, Note_on_c, 9, 70, 95
7, 533280, Note_on_c, 9, 42, 95
7, 533280, Note_on_c, 9, 36, 95
7, 533520, Note_off_c, 9, 70, 95
7, 533520, Note_off_c, 9, 42, 95
7, 533520, Note_off_c, 9, 36, 95
7, 533520, Note_on_c, 9, 70, 95
7, 533760, Note_off_c, 9, 70, 95
7, 533760, Note_on_c, 9, 74, 95
7, 533760, Note_on_c, 9, 70, 95
7, 533760, Note_on_c, 9, 38, 111
7, 533760, Note_on_c, 9, 38, 111
7, 534000, Note_off_c, 9, 74, 95
7, 534000, Note_off_c, 9, 70, 95
7, 534000, Note_off_c, 9, 38, 111
7, 534000, Note_off_c, 9, 38, 111
7, 534000, Note_on_c, 9, 70, 95
7, 534240, Note_off_c, 9, 70, 95
7, 534240, Note_on_c, 9, 70, 95
7, 534240, Note_on_c, 9, 36, 111
7, 534480, Note_off_c, 9, 70, 95
7, 534480, Note_off_c, 9, 36, 111
7, 534480, Note_on_c, 9, 70, 95
7, 534720, Note_off_c, 9, 70, 95
7, 534720, Note_on_c, 9, 70, 95
7, 534720, Note_on_c, 9, 50, 127
7, 534960, Note_off_c, 9, 70, 95
7, 534960, Note_off_c, 9, 50, 127
7, 534960, Note_on_c, 9, 70, 95
7, 535200, Note_off_c, 9, 70, 95
7, 535200, Note_on_c, 9, 70, 95
7, 535200, Note_on_c, 9, 36, 111
7, 535440, Note_off_c, 9, 70, 95
7, 535440, Note_off_c, 9, 36, 111
7, 535440, Note_on_c, 9, 70, 95
7, 535680, Note_off_c, 9, 70, 95
7, 535680, Note_on_c, 9, 74, 95
7, 535680, Note_on_c, 9, 70, 95
7, 535680, Note_on_c, 9, 47, 127
7, 535920, Note_off_c, 9, 74, 95
7, 535920, Note_off_c, 9, 70, 95
7, 535920, Note_off_c, 9, 47, 127
7, 535920, Note_on_c, 9, 70, 95
7, 536160, Note_off_c, 9, 70, 95
7, 536160, Note_on_c, 9, 70, 95
7, 536160, Note_on_c, 9, 36, 111
7, 536400, Note_off_c, 9, 70, 95
7, 536400, Note_off_c, 9, 36, 111
7, 536400, Note_on_c, 9, 70, 95
7, 536640, Note_off_c, 9, 70, 95
7, 536640, Note_on_c, 9, 70, 95
7, 536640, Note_on_c, 9, 45, 127
7, 536880, Note_off_c, 9, 70, 95
7, 536880, Note_off_c, 9, 45, 127
7, 536880, Note_on_c, 9, 70, 95
7, 537120, Note_off_c, 9, 70, 95
7, 537120, Note_on_c, 9, 70, 95
7, 537120, Note_on_c, 9, 36, 111
7, 537360, Note_off_c, 9, 70, 95
7, 537360, Note_off_c, 9, 36, 111
7, 537360, Note_on_c, 9, 70, 95
7, 537600, Note_off_c, 9, 70, 95
7, 537600, Note_on_c, 9, 74, 95
7, 537600, Note_on_c, 9, 70, 95
7, 537600, Note_on_c, 9, 46, 95
7, 537600, Note_on_c, 9, 36, 95
7, 537840, Note_off_c, 9, 74, 95
7, 537840, Note_off_c, 9, 70, 95
7, 537840, Note_off_c, 9, 46, 95
7, 537840, Note_off_c, 9, 36, 95
7, 537840, Note_on_c, 9, 70, 95
7, 538080, Note_off_c, 9, 70, 95
7, 538080, Note_on_c, 9, 70, 95
7, 538320, Note_off_c, 9, 70, 95
7, 538320, Note_on_c, 9, 70, 95
7, 538560, Note_off_c, 9, 70, 95
7, 538560, Note_on_c, 9, 70, 95
7, 538560, Note_on_c, 9, 42, 95
7, 538560, Note_on_c, 9, 38, 95
7, 538800, Note_off_c, 9, 70, 95
7, 538800, Note_off_c, 9, 42, 95
7, 538800, Note_off_c, 9, 38, 95
7, 538800, Note_on_c, 9, 70, 95
7, 539040, Note_off_c, 9, 70, 95
7, 539040, Note_on_c, 9, 70, 95
7, 539040, Note_on_c, 9, 42, 95
7, 539280, Note_off_c, 9, 70, 95
7, 539280, Note_off_c, 9, 42, 95
7, 539280, Note_on_c, 9, 70, 95
7, 539520, Note_off_c, 9, 70, 95
7, 539520, Note_on_c, 9, 74, 95
7, 539520, Note_on_c, 9, 70, 95
7, 539520, Note_on_c, 9, 42, 95
7, 539760, Note_off_c, 9, 74, 95
7, 539760, Note_off_c, 9, 70, 95
7, 539760, Note_off_c, 9, 42, 95
7, 539760, Note_on_c, 9, 70, 95
7, 540000, Note_off_c, 9, 70, 95
7, 540000, Note_on_c, 9, 70, 95
7, 540000, Note_on_c, 9, 42, 95
7, 540000, Note_on_c, 9, 36, 95
7, 540240, Note_off_c, 9, 70, 95
7, 540240, Note_off_c, 9, 42, 95
7, 540240, Note_off_c, 9, 36, 95
7, 540240, Note_on_c, 9, 70, 95
7, 540480, Note_off_c, 9, 70, 95
7, 540480, Note_on_c, 9, 70, 95
7, 540480, Note_on_c, 9, 42, 95
7, 540480, Note_on_c, 9, 38, 95
7, 540720, Note_off_c, 9, 70, 95
7, 540720, Note_off_c, 9, 42, 95
7, 540720, Note_off_c, 9, 38, 95
7, 540720, Note_on_c, 9, 70, 95
7, 540960, Note_off_c, 9, 70, 95
7, 540960, Note_on_c, 9, 70, 95
7, 540960, Note_on_c, 9, 42, 95
7, 541200, Note_off_c, 9, 70, 95
7, 541200, Note_off_c, 9, 42, 95
7, 541200, Note_on_c, 9, 70, 95
7, 541440, Note_off_c, 9, 70, 95
7, 541440, Note_on_c, 9, 74, 95
7, 541440, Note_on_c, 9, 70, 95
7, 541440, Note_on_c, 9, 42, 95
7, 541440, Note_on_c, 9, 36, 95
7, 541680, Note_off_c, 9, 74, 95
7, 541680, Note_off_c, 9, 70, 95
7, 541680, Note_off_c, 9, 42, 95
7, 541680, Note_off_c, 9, 36, 95
7, 541680, Note_on_c, 9, 70, 95
7, 541920, Note_off_c, 9, 70, 95
7, 541920, Note_on_c, 9, 70, 95
7, 541920, Note_on_c, 9, 42, 95
7, 541920, Note_on_c, 9, 36, 95
7, 542160, Note_off_c, 9, 70, 95
7, 542160, Note_off_c, 9, 42, 95
7, 542160, Note_off_c, 9, 36, 95
7, 542160, Note_on_c, 9, 70, 95
7, 542400, Note_off_c, 9, 70, 95
7, 542400, Note_on_c, 9, 70, 95
7, 542400, Note_on_c, 9, 42, 95
7, 542400, Note_on_c, 9, 38, 95
7, 542640, Note_off_c, 9, 70, 95
7, 542640, Note_off_c, 9, 42, 95
7, 542640, Note_off_c, 9, 38, 95
7, 542640, Note_on_c, 9, 70, 95
7, 542880, Note_off_c, 9, 70, 95
7, 542880, Note_on_c, 9, 70, 95
7, 542880, Note_on_c, 9, 42, 95
7, 543120, Note_off_c, 9, 70, 95
7, 543120, Note_off_c, 9, 42, 95
7, 543120, Note_on_c, 9, 70, 95
7, 543360, Note_off_c, 9, 70, 95
7, 543360, Note_on_c, 9, 74, 95
7, 543360, Note_on_c, 9, 70, 95
7, 543360, Note_on_c, 9, 42, 95
7, 543360, Note_on_c, 9, 36, 95
7, 543600, Note_off_c, 9, 74, 95
7, 543600, Note_off_c, 9, 70, 95
7, 543600, Note_off_c, 9, 42, 95
7, 543600, Note_off_c, 9, 36, 95
7, 543600, Note_on_c, 9, 70, 95
7, 543840, Note_off_c, 9, 70, 95
7, 543840, Note_on_c, 9, 70, 95
7, 543840, Note_on_c, 9, 42, 95
7, 543840, Note_on_c, 9, 36, 95
7, 544080, Note_off_c, 9, 70, 95
7, 544080, Note_off_c, 9, 42, 95
7, 544080, Note_off_c, 9, 36, 95
7, 544080, Note_on_c, 9, 70, 95
7, 544320, Note_off_c, 9, 70, 95
7, 544320, Note_on_c, 9, 70, 95
7, 544320, Note_on_c, 9, 42, 95
7, 544320, Note_on_c, 9, 38, 95
7, 544560, Note_off_c, 9, 70, 95
7, 544560, Note_off_c, 9, 42, 95
7, 544560, Note_off_c, 9, 38, 95
7, 544560, Note_on_c, 9, 70, 95
7, 544800, Note_off_c, 9, 70, 95
7, 544800, Note_on_c, 9, 70, 95
7, 544800, Note_on_c, 9, 42, 95
7, 545040, Note_off_c, 9, 70, 95
7, 545040, Note_off_c, 9, 42, 95
7, 545040, Note_on_c, 9, 70, 95
7, 545280, Note_off_c, 9, 70, 95
7, 545280, Note_on_c, 9, 74, 95
7, 545280, Note_on_c, 9, 70, 95
7, 545280, Note_on_c, 9, 42, 95
7, 545280, Note_on_c, 9, 36, 95
7, 545520, Note_off_c, 9, 74, 95
7, 545520, Note_off_c, 9, 70, 95
7, 545520, Note_off_c, 9, 42, 95
7, 545520, Note_off_c, 9, 36, 95
7, 545520, Note_on_c, 9, 70, 95
7, 545760, Note_off_c, 9, 70, 95
7, 545760, Note_on_c, 9, 70, 95
7, 545760, Note_on_c, 9, 42, 95
7, 546000, Note_off_c, 9, 70, 95
7, 546000, Note_off_c, 9, 42, 95
7, 546000, Note_on_c, 9, 70, 95
7, 546240, Note_off_c, 9, 70, 95
7, 546240, Note_on_c, 9, 70, 95
7, 546240, Note_on_c, 9, 42, 95
7, 546240, Note_on_c, 9, 38, 95
7, 546480, Note_off_c, 9, 70, 95
7, 546480, Note_off_c, 9, 42, 95
7, 546480, Note_off_c, 9, 38, 95
7, 546480, Note_on_c, 9, 70, 95
7, 546720, Note_off_c, 9, 70, 95
7, 546720, Note_on_c, 9, 70, 95
7, 546720, Note_on_c, 9, 42, 95
7, 546960, Note_off_c, 9, 70, 95
7, 546960, Note_off_c, 9, 42, 95
7, 546960, Note_on_c, 9, 70, 95
7, 547200, Note_off_c, 9, 70, 95
7, 547200, Note_on_c, 9, 74, 95
7, 547200, Note_on_c, 9, 70, 95
7, 547200, Note_on_c, 9, 42, 95
7, 547200, Note_on_c, 9, 36, 95
7, 547440, Note_off_c, 9, 74, 95
7, 547440, Note_off_c, 9, 70, 95
7, 547440, Note_off_c, 9, 42, 95
7, 547440, Note_off_c, 9, 36, 95
7, 547440, Note_on_c, 9, 70, 95
7, 547680, Note_off_c, 9, 70, 95
7, 547680, Note_on_c, 9, 70, 95
7, 547680, Note_on_c, 9, 42, 95
7, 547680, Note_on_c, 9, 36, 95
7, 547920, Note_off_c, 9, 70, 95
7, 547920, Note_off_c, 9, 42, 95
7, 547920, Note_off_c, 9, 36, 95
7, 547920, Note_on_c, 9, 70, 95
7, 548160, Note_off_c, 9, 70, 95
7, 548160, Note_on_c, 9, 70, 95
7, 548160, Note_on_c, 9, 42, 95
7, 548160, Note_on_c, 9, 38, 95
7, 548400, Note_off_c, 9, 70, 95
7, 548400, Note_off_c, 9, 42, 95
7, 548400, Note_off_c, 9, 38, 95
7, 548400, Note_on_c, 9, 70, 95
7, 548640, Note_off_c, 9, 70, 95
7, 548640, Note_on_c, 9, 70, 95
7, 548640, Note_on_c, 9, 42, 95
7, 548880, Note_off_c, 9, 70, 95
7, 548880, Note_off_c, 9, 42, 95
7, 548880, Note_on_c, 9, 70, 95
7, 549120, Note_off_c, 9, 70, 95
7, 549120, Note_on_c, 9, 74, 95
7, 549120, Note_on_c, 9, 70, 95
7, 549120, Note_on_c, 9, 38, 111
7, 549120, Note_on_c, 9, 38, 111
7, 549360, Note_off_c, 9, 74, 95
7, 549360, Note_off_c, 9, 70, 95
7, 549360, Note_off_c, 9, 38, 111
7, 549360, Note_off_c, 9, 38, 111
7, 549360, Note_on_c, 9, 70, 95
7, 549600, Note_off_c, 9, 70, 95
7, 549600, Note_on_c, 9, 70, 95
7, 549600, Note_on_c, 9, 36, 111
7, 549840, Note_off_c, 9, 70, 95
7, 549840, Note_off_c, 9, 36, 111
7, 549840, Note_on_c, 9, 70, 95
7, 550080, Note_off_c, 9, 70, 95
7, 550080, Note_on_c, 9, 70, 95
7, 550080, Note_on_c, 9, 50, 111
7, 550080, Note_on_c, 9, 50, 111
7, 550320, Note_off_c, 9, 70, 95
7, 550320, Note_off_c, 9, 50, 111
7, 550320, Note_off_c, 9, 50, 111
7, 550320, Note_on_c, 9, 70, 95
7, 550560, Note_off_c, 9, 70, 95
7, 550560, Note_on_c, 9, 70, 95
7, 550560, Note_on_c, 9, 38, 111
7, 550560, Note_on_c, 9, 38, 111
7, 550800, Note_off_c, 9, 70, 95
7, 550800, Note_off_c, 9, 38, 111
7, 550800, Note_off_c, 9, 38, 111
7, 550800, Note_on_c, 9, 70, 95
7, 551040, Note_off_c, 9, 70, 95
7, 551040, Note_on_c, 9, 74, 95
7, 551040, Note_on_c, 9, 70, 95
7, 551040, Note_on_c, 9, 38, 111
7, 551040, Note_on_c, 9, 36, 111
7, 551280, Note_off_c, 9, 74, 95
7, 551280, Note_off_c, 9, 70, 95
7, 551280, Note_off_c, 9, 38, 111
7, 551280, Note_off_c, 9, 36, 111
7, 551280, Note_on_c, 9, 70, 95
7, 551520, Note_off_c, 9, 70, 95
7, 551520, Note_on_c, 9, 70, 95
7, 551520, Note_on_c, 9, 38, 111
7, 551520, Note_on_c, 9, 38, 111
7, 551760, Note_off_c, 9, 70, 95
7, 551760, Note_off_c, 9, 38, 111
7, 551760, Note_off_c, 9, 38, 111
7, 551760, Note_on_c, 9, 70, 95
7, 552000, Note_off_c, 9, 70, 95
7, 552000, Note_on_c, 9, 70, 95
7, 552000, Note_on_c, 9, 38, 111
7, 552000, Note_on_c, 9, 36, 111
7, 552240, Note_off_c, 9, 70, 95
7, 552240, Note_off_c, 9, 38, 111
7, 552240, Note_off_c, 9, 36, 111
7, 552240, Note_on_c, 9, 70, 95
7, 552480, Note_off_c, 9, 70, 95
7, 552480, Note_on_c, 9, 70, 95
7, 552480, Note_on_c, 9, 38, 111
7, 552480, Note_on_c, 9, 38, 111
7, 552720, Note_off_c, 9, 70, 95
7, 552720, Note_off_c, 9, 38, 111
7, 552720, Note_off_c, 9, 38, 111
7, 552720, Note_on_c, 9, 70, 95
7, 552960, Note_off_c, 9, 70, 95
7, 552960, Note_on_c, 9, 49, 127
7, 552960, Note_on_c, 9, 52, 127
7, 552960, Note_on_c, 9, 55, 127
7, 552960, Note_on_c, 9, 57, 127
7, 552960, Note_on_c, 9, 59, 127
7, 556800, Note_off_c, 9, 49, 127
7, 556800, Note_off_c, 9, 52, 127
7, 556800, Note_off_c, 9, 55, 127
7, 556800, Note_off_c, 9, 57, 127
7, 556800, Note_off_c, 9, 59, 127
7, 556800, End_track
0, 0, End_of_file
