0, 0, Header, 1, 15, 120
1, 0, Start_track
1, 0, Sequencer_specific, 3, 0, 0, 65
1, 0, Time_signature, 4, 2, 24, 8
1, 0, Key_signature, 0, "major"
1, 0, Tempo, 618557
1, 0, End_track
2, 0, Start_track
2, 0, MIDI_port, 0
2, 0, Title_t, "DRUMS"
2, 0, Control_c, 9, 7, 127
2, 0, Note_on_c, 9, 44, 118
2, 18, Note_on_c, 9, 44, 0
2, 240, Note_on_c, 9, 44, 118
2, 258, Note_on_c, 9, 44, 0
2, 480, Note_on_c, 9, 44, 118
2, 498, Note_on_c, 9, 44, 0
2, 600, Note_on_c, 9, 44, 118
2, 618, Note_on_c, 9, 44, 0
2, 720, Note_on_c, 9, 44, 118
2, 738, Note_on_c, 9, 44, 0
2, 840, Note_on_c, 9, 44, 118
2, 858, Note_on_c, 9, 44, 0
2, 960, Note_on_c, 9, 35, 94
2, 978, Note_on_c, 9, 35, 0
2, 1080, Note_on_c, 9, 54, 80
2, 1080, Note_on_c, 9, 40, 94
2, 1080, Note_on_c, 9, 44, 127
2, 1093, Note_on_c, 9, 44, 0
2, 1093, Note_on_c, 9, 40, 0
2, 1098, Note_on_c, 9, 54, 0
2, 1200, Note_on_c, 9, 35, 94
2, 1218, Note_on_c, 9, 35, 0
2, 1320, Note_on_c, 9, 54, 80
2, 1320, Note_on_c, 9, 40, 94
2, 1320, Note_on_c, 9, 44, 127
2, 1333, Note_on_c, 9, 44, 0
2, 1333, Note_on_c, 9, 40, 0
2, 1338, Note_on_c, 9, 54, 0
2, 1440, Note_on_c, 9, 35, 94
2, 1458, Note_on_c, 9, 35, 0
2, 1560, Note_on_c, 9, 54, 80
2, 1560, Note_on_c, 9, 40, 94
2, 1560, Note_on_c, 9, 44, 127
2, 1573, Note_on_c, 9, 44, 0
2, 1573, Note_on_c, 9, 40, 0
2, 1578, Note_on_c, 9, 54, 0
2, 1680, Note_on_c, 9, 35, 94
2, 1698, Note_on_c, 9, 35, 0
2, 1800, Note_on_c, 9, 54, 80
2, 1800, Note_on_c, 9, 40, 94
2, 1800, Note_on_c, 9, 44, 127
2, 1813, Note_on_c, 9, 44, 0
2, 1813, Note_on_c, 9, 40, 0
2, 1818, Note_on_c, 9, 54, 0
2, 1920, Note_on_c, 9, 35, 94
2, 1938, Note_on_c, 9, 35, 0
2, 2040, Note_on_c, 9, 54, 80
2, 2040, Note_on_c, 9, 40, 94
2, 2040, Note_on_c, 9, 44, 127
2, 2053, Note_on_c, 9, 44, 0
2, 2053, Note_on_c, 9, 40, 0
2, 2058, Note_on_c, 9, 54, 0
2, 2160, Note_on_c, 9, 35, 94
2, 2178, Note_on_c, 9, 35, 0
2, 2280, Note_on_c, 9, 54, 80
2, 2280, Note_on_c, 9, 40, 94
2, 2280, Note_on_c, 9, 44, 127
2, 2293, Note_on_c, 9, 44, 0
2, 2293, Note_on_c, 9, 40, 0
2, 2298, Note_on_c, 9, 54, 0
2, 2400, Note_on_c, 9, 35, 94
2, 2418, Note_on_c, 9, 35, 0
2, 2520, Note_on_c, 9, 54, 80
2, 2520, Note_on_c, 9, 40, 94
2, 2520, Note_on_c, 9, 44, 127
2, 2533, Note_on_c, 9, 44, 0
2, 2533, Note_on_c, 9, 40, 0
2, 2538, Note_on_c, 9, 54, 0
2, 2640, Note_on_c, 9, 35, 94
2, 2658, Note_on_c, 9, 35, 0
2, 2760, Note_on_c, 9, 54, 80
2, 2760, Note_on_c, 9, 40, 94
2, 2760, Note_on_c, 9, 44, 127
2, 2773, Note_on_c, 9, 44, 0
2, 2773, Note_on_c, 9, 40, 0
2, 2778, Note_on_c, 9, 54, 0
2, 2880, Note_on_c, 9, 35, 94
2, 2898, Note_on_c, 9, 35, 0
2, 3000, Note_on_c, 9, 54, 80
2, 3000, Note_on_c, 9, 40, 94
2, 3000, Note_on_c, 9, 44, 127
2, 3013, Note_on_c, 9, 44, 0
2, 3013, Note_on_c, 9, 40, 0
2, 3018, Note_on_c, 9, 54, 0
2, 3120, Note_on_c, 9, 35, 94
2, 3138, Note_on_c, 9, 35, 0
2, 3240, Note_on_c, 9, 54, 80
2, 3240, Note_on_c, 9, 40, 94
2, 3240, Note_on_c, 9, 44, 127
2, 3253, Note_on_c, 9, 44, 0
2, 3253, Note_on_c, 9, 40, 0
2, 3258, Note_on_c, 9, 54, 0
2, 3360, Note_on_c, 9, 35, 94
2, 3378, Note_on_c, 9, 35, 0
2, 3480, Note_on_c, 9, 54, 80
2, 3480, Note_on_c, 9, 40, 94
2, 3480, Note_on_c, 9, 44, 127
2, 3493, Note_on_c, 9, 44, 0
2, 3493, Note_on_c, 9, 40, 0
2, 3498, Note_on_c, 9, 54, 0
2, 3600, Note_on_c, 9, 35, 94
2, 3618, Note_on_c, 9, 35, 0
2, 3720, Note_on_c, 9, 54, 80
2, 3720, Note_on_c, 9, 40, 94
2, 3720, Note_on_c, 9, 44, 127
2, 3733, Note_on_c, 9, 44, 0
2, 3733, Note_on_c, 9, 40, 0
2, 3738, Note_on_c, 9, 54, 0
2, 3840, Note_on_c, 9, 35, 94
2, 3858, Note_on_c, 9, 35, 0
2, 3960, Note_on_c, 9, 54, 80
2, 3960, Note_on_c, 9, 40, 94
2, 3960, Note_on_c, 9, 44, 127
2, 3973, Note_on_c, 9, 44, 0
2, 3973, Note_on_c, 9, 40, 0
2, 3978, Note_on_c, 9, 54, 0
2, 4080, Note_on_c, 9, 35, 94
2, 4098, Note_on_c, 9, 35, 0
2, 4200, Note_on_c, 9, 54, 80
2, 4200, Note_on_c, 9, 40, 94
2, 4200, Note_on_c, 9, 44, 127
2, 4213, Note_on_c, 9, 44, 0
2, 4213, Note_on_c, 9, 40, 0
2, 4218, Note_on_c, 9, 54, 0
2, 4320, Note_on_c, 9, 35, 94
2, 4338, Note_on_c, 9, 35, 0
2, 4440, Note_on_c, 9, 54, 80
2, 4440, Note_on_c, 9, 40, 94
2, 4440, Note_on_c, 9, 44, 127
2, 4453, Note_on_c, 9, 44, 0
2, 4453, Note_on_c, 9, 40, 0
2, 4458, Note_on_c, 9, 54, 0
2, 4560, Note_on_c, 9, 35, 94
2, 4578, Note_on_c, 9, 35, 0
2, 4680, Note_on_c, 9, 54, 80
2, 4680, Note_on_c, 9, 40, 94
2, 4680, Note_on_c, 9, 44, 127
2, 4693, Note_on_c, 9, 44, 0
2, 4693, Note_on_c, 9, 40, 0
2, 4698, Note_on_c, 9, 54, 0
2, 4800, Note_on_c, 9, 35, 94
2, 4818, Note_on_c, 9, 35, 0
2, 4920, Note_on_c, 9, 54, 80
2, 4920, Note_on_c, 9, 40, 94
2, 4920, Note_on_c, 9, 44, 127
2, 4933, Note_on_c, 9, 44, 0
2, 4933, Note_on_c, 9, 40, 0
2, 4938, Note_on_c, 9, 54, 0
2, 5040, Note_on_c, 9, 35, 94
2, 5058, Note_on_c, 9, 35, 0
2, 5160, Note_on_c, 9, 54, 80
2, 5160, Note_on_c, 9, 40, 94
2, 5160, Note_on_c, 9, 44, 127
2, 5173, Note_on_c, 9, 44, 0
2, 5173, Note_on_c, 9, 40, 0
2, 5178, Note_on_c, 9, 54, 0
2, 5280, Note_on_c, 9, 35, 94
2, 5298, Note_on_c, 9, 35, 0
2, 5400, Note_on_c, 9, 54, 80
2, 5400, Note_on_c, 9, 40, 94
2, 5400, Note_on_c, 9, 44, 127
2, 5413, Note_on_c, 9, 44, 0
2, 5413, Note_on_c, 9, 40, 0
2, 5418, Note_on_c, 9, 54, 0
2, 5520, Note_on_c, 9, 35, 94
2, 5538, Note_on_c, 9, 35, 0
2, 5640, Note_on_c, 9, 54, 80
2, 5640, Note_on_c, 9, 40, 94
2, 5640, Note_on_c, 9, 44, 127
2, 5653, Note_on_c, 9, 44, 0
2, 5653, Note_on_c, 9, 40, 0
2, 5658, Note_on_c, 9, 54, 0
2, 5760, Note_on_c, 9, 35, 94
2, 5778, Note_on_c, 9, 35, 0
2, 5880, Note_on_c, 9, 54, 80
2, 5880, Note_on_c, 9, 40, 94
2, 5880, Note_on_c, 9, 44, 127
2, 5893, Note_on_c, 9, 44, 0
2, 5893, Note_on_c, 9, 40, 0
2, 5898, Note_on_c, 9, 54, 0
2, 6000, Note_on_c, 9, 35, 94
2, 6018, Note_on_c, 9, 35, 0
2, 6120, Note_on_c, 9, 54, 80
2, 6120, Note_on_c, 9, 40, 94
2, 6120, Note_on_c, 9, 44, 127
2, 6133, Note_on_c, 9, 44, 0
2, 6133, Note_on_c, 9, 40, 0
2, 6138, Note_on_c, 9, 54, 0
2, 6240, Note_on_c, 9, 35, 94
2, 6258, Note_on_c, 9, 35, 0
2, 6360, Note_on_c, 9, 54, 80
2, 6360, Note_on_c, 9, 40, 94
2, 6360, Note_on_c, 9, 44, 127
2, 6373, Note_on_c, 9, 44, 0
2, 6373, Note_on_c, 9, 40, 0
2, 6378, Note_on_c, 9, 54, 0
2, 6480, Note_on_c, 9, 35, 94
2, 6498, Note_on_c, 9, 35, 0
2, 6600, Note_on_c, 9, 54, 80
2, 6600, Note_on_c, 9, 40, 94
2, 6600, Note_on_c, 9, 44, 127
2, 6613, Note_on_c, 9, 44, 0
2, 6613, Note_on_c, 9, 40, 0
2, 6618, Note_on_c, 9, 54, 0
2, 6720, Note_on_c, 9, 35, 94
2, 6738, Note_on_c, 9, 35, 0
2, 6840, Note_on_c, 9, 54, 80
2, 6840, Note_on_c, 9, 40, 94
2, 6840, Note_on_c, 9, 44, 127
2, 6853, Note_on_c, 9, 44, 0
2, 6853, Note_on_c, 9, 40, 0
2, 6858, Note_on_c, 9, 54, 0
2, 6960, Note_on_c, 9, 35, 94
2, 6978, Note_on_c, 9, 35, 0
2, 7080, Note_on_c, 9, 54, 80
2, 7080, Note_on_c, 9, 40, 94
2, 7080, Note_on_c, 9, 44, 127
2, 7093, Note_on_c, 9, 44, 0
2, 7093, Note_on_c, 9, 40, 0
2, 7098, Note_on_c, 9, 54, 0
2, 7200, Note_on_c, 9, 35, 94
2, 7218, Note_on_c, 9, 35, 0
2, 7320, Note_on_c, 9, 54, 80
2, 7320, Note_on_c, 9, 40, 94
2, 7320, Note_on_c, 9, 44, 127
2, 7333, Note_on_c, 9, 44, 0
2, 7333, Note_on_c, 9, 40, 0
2, 7338, Note_on_c, 9, 54, 0
2, 7440, Note_on_c, 9, 35, 94
2, 7458, Note_on_c, 9, 35, 0
2, 7560, Note_on_c, 9, 54, 80
2, 7560, Note_on_c, 9, 40, 94
2, 7560, Note_on_c, 9, 44, 127
2, 7573, Note_on_c, 9, 44, 0
2, 7573, Note_on_c, 9, 40, 0
2, 7578, Note_on_c, 9, 54, 0
2, 7680, Note_on_c, 9, 35, 94
2, 7698, Note_on_c, 9, 35, 0
2, 7800, Note_on_c, 9, 54, 80
2, 7800, Note_on_c, 9, 40, 94
2, 7800, Note_on_c, 9, 44, 127
2, 7813, Note_on_c, 9, 44, 0
2, 7813, Note_on_c, 9, 40, 0
2, 7818, Note_on_c, 9, 54, 0
2, 7920, Note_on_c, 9, 35, 94
2, 7938, Note_on_c, 9, 35, 0
2, 8040, Note_on_c, 9, 54, 80
2, 8040, Note_on_c, 9, 40, 94
2, 8040, Note_on_c, 9, 44, 127
2, 8053, Note_on_c, 9, 44, 0
2, 8053, Note_on_c, 9, 40, 0
2, 8058, Note_on_c, 9, 54, 0
2, 8160, Note_on_c, 9, 35, 94
2, 8178, Note_on_c, 9, 35, 0
2, 8280, Note_on_c, 9, 54, 80
2, 8280, Note_on_c, 9, 40, 94
2, 8280, Note_on_c, 9, 44, 127
2, 8293, Note_on_c, 9, 44, 0
2, 8293, Note_on_c, 9, 40, 0
2, 8298, Note_on_c, 9, 54, 0
2, 8400, Note_on_c, 9, 35, 94
2, 8418, Note_on_c, 9, 35, 0
2, 8520, Note_on_c, 9, 54, 80
2, 8520, Note_on_c, 9, 40, 94
2, 8520, Note_on_c, 9, 44, 127
2, 8533, Note_on_c, 9, 44, 0
2, 8533, Note_on_c, 9, 40, 0
2, 8538, Note_on_c, 9, 54, 0
2, 8640, Note_on_c, 9, 35, 94
2, 8658, Note_on_c, 9, 35, 0
2, 8760, Note_on_c, 9, 54, 80
2, 8760, Note_on_c, 9, 40, 94
2, 8760, Note_on_c, 9, 44, 127
2, 8773, Note_on_c, 9, 44, 0
2, 8773, Note_on_c, 9, 40, 0
2, 8778, Note_on_c, 9, 54, 0
2, 8880, Note_on_c, 9, 35, 94
2, 8898, Note_on_c, 9, 35, 0
2, 9000, Note_on_c, 9, 54, 80
2, 9000, Note_on_c, 9, 40, 94
2, 9000, Note_on_c, 9, 44, 127
2, 9013, Note_on_c, 9, 44, 0
2, 9013, Note_on_c, 9, 40, 0
2, 9018, Note_on_c, 9, 54, 0
2, 9120, Note_on_c, 9, 35, 94
2, 9138, Note_on_c, 9, 35, 0
2, 9240, Note_on_c, 9, 54, 80
2, 9240, Note_on_c, 9, 40, 94
2, 9240, Note_on_c, 9, 44, 127
2, 9253, Note_on_c, 9, 44, 0
2, 9253, Note_on_c, 9, 40, 0
2, 9258, Note_on_c, 9, 54, 0
2, 9360, Note_on_c, 9, 35, 94
2, 9378, Note_on_c, 9, 35, 0
2, 9480, Note_on_c, 9, 54, 80
2, 9480, Note_on_c, 9, 40, 94
2, 9480, Note_on_c, 9, 44, 127
2, 9493, Note_on_c, 9, 44, 0
2, 9493, Note_on_c, 9, 40, 0
2, 9498, Note_on_c, 9, 54, 0
2, 9600, Note_on_c, 9, 35, 94
2, 9618, Note_on_c, 9, 35, 0
2, 9720, Note_on_c, 9, 54, 80
2, 9720, Note_on_c, 9, 40, 94
2, 9720, Note_on_c, 9, 44, 127
2, 9733, Note_on_c, 9, 44, 0
2, 9733, Note_on_c, 9, 40, 0
2, 9738, Note_on_c, 9, 54, 0
2, 9840, Note_on_c, 9, 35, 94
2, 9858, Note_on_c, 9, 35, 0
2, 9960, Note_on_c, 9, 54, 80
2, 9960, Note_on_c, 9, 40, 94
2, 9960, Note_on_c, 9, 44, 127
2, 9973, Note_on_c, 9, 44, 0
2, 9973, Note_on_c, 9, 40, 0
2, 9978, Note_on_c, 9, 54, 0
2, 10080, Note_on_c, 9, 35, 94
2, 10098, Note_on_c, 9, 35, 0
2, 10200, Note_on_c, 9, 54, 80
2, 10200, Note_on_c, 9, 40, 94
2, 10200, Note_on_c, 9, 44, 127
2, 10213, Note_on_c, 9, 44, 0
2, 10213, Note_on_c, 9, 40, 0
2, 10218, Note_on_c, 9, 54, 0
2, 10320, Note_on_c, 9, 35, 94
2, 10338, Note_on_c, 9, 35, 0
2, 10440, Note_on_c, 9, 54, 80
2, 10440, Note_on_c, 9, 40, 94
2, 10440, Note_on_c, 9, 44, 127
2, 10453, Note_on_c, 9, 44, 0
2, 10453, Note_on_c, 9, 40, 0
2, 10458, Note_on_c, 9, 54, 0
2, 10560, Note_on_c, 9, 35, 94
2, 10578, Note_on_c, 9, 35, 0
2, 10680, Note_on_c, 9, 54, 80
2, 10680, Note_on_c, 9, 40, 94
2, 10680, Note_on_c, 9, 44, 127
2, 10693, Note_on_c, 9, 44, 0
2, 10693, Note_on_c, 9, 40, 0
2, 10698, Note_on_c, 9, 54, 0
2, 10800, Note_on_c, 9, 35, 94
2, 10818, Note_on_c, 9, 35, 0
2, 10920, Note_on_c, 9, 54, 80
2, 10920, Note_on_c, 9, 40, 94
2, 10920, Note_on_c, 9, 44, 127
2, 10933, Note_on_c, 9, 44, 0
2, 10933, Note_on_c, 9, 40, 0
2, 10938, Note_on_c, 9, 54, 0
2, 11040, Note_on_c, 9, 35, 94
2, 11058, Note_on_c, 9, 35, 0
2, 11160, Note_on_c, 9, 54, 80
2, 11160, Note_on_c, 9, 40, 94
2, 11160, Note_on_c, 9, 44, 127
2, 11173, Note_on_c, 9, 44, 0
2, 11173, Note_on_c, 9, 40, 0
2, 11178, Note_on_c, 9, 54, 0
2, 11280, Note_on_c, 9, 35, 94
2, 11298, Note_on_c, 9, 35, 0
2, 11400, Note_on_c, 9, 54, 80
2, 11400, Note_on_c, 9, 40, 94
2, 11400, Note_on_c, 9, 44, 127
2, 11413, Note_on_c, 9, 44, 0
2, 11413, Note_on_c, 9, 40, 0
2, 11418, Note_on_c, 9, 54, 0
2, 11520, Note_on_c, 9, 35, 94
2, 11538, Note_on_c, 9, 35, 0
2, 11640, Note_on_c, 9, 54, 80
2, 11640, Note_on_c, 9, 40, 94
2, 11640, Note_on_c, 9, 44, 127
2, 11653, Note_on_c, 9, 44, 0
2, 11653, Note_on_c, 9, 40, 0
2, 11658, Note_on_c, 9, 54, 0
2, 11760, Note_on_c, 9, 35, 94
2, 11778, Note_on_c, 9, 35, 0
2, 11880, Note_on_c, 9, 54, 80
2, 11880, Note_on_c, 9, 40, 94
2, 11880, Note_on_c, 9, 44, 127
2, 11893, Note_on_c, 9, 44, 0
2, 11893, Note_on_c, 9, 40, 0
2, 11898, Note_on_c, 9, 54, 0
2, 12000, Note_on_c, 9, 35, 94
2, 12018, Note_on_c, 9, 35, 0
2, 12120, Note_on_c, 9, 54, 80
2, 12120, Note_on_c, 9, 40, 94
2, 12120, Note_on_c, 9, 44, 127
2, 12133, Note_on_c, 9, 44, 0
2, 12133, Note_on_c, 9, 40, 0
2, 12138, Note_on_c, 9, 54, 0
2, 12240, Note_on_c, 9, 35, 94
2, 12258, Note_on_c, 9, 35, 0
2, 12360, Note_on_c, 9, 54, 80
2, 12360, Note_on_c, 9, 40, 94
2, 12360, Note_on_c, 9, 44, 127
2, 12373, Note_on_c, 9, 44, 0
2, 12373, Note_on_c, 9, 40, 0
2, 12378, Note_on_c, 9, 54, 0
2, 12480, Note_on_c, 9, 59, 127
2, 12480, Note_on_c, 9, 35, 94
2, 12498, Note_on_c, 9, 35, 0
2, 12498, Note_on_c, 9, 59, 0
2, 12600, Note_on_c, 9, 59, 127
2, 12600, Note_on_c, 9, 54, 80
2, 12600, Note_on_c, 9, 40, 94
2, 12600, Note_on_c, 9, 44, 127
2, 12613, Note_on_c, 9, 44, 0
2, 12613, Note_on_c, 9, 40, 0
2, 12618, Note_on_c, 9, 54, 0
2, 12618, Note_on_c, 9, 59, 0
2, 12720, Note_on_c, 9, 59, 127
2, 12720, Note_on_c, 9, 35, 94
2, 12738, Note_on_c, 9, 35, 0
2, 12738, Note_on_c, 9, 59, 0
2, 12840, Note_on_c, 9, 59, 127
2, 12840, Note_on_c, 9, 54, 80
2, 12840, Note_on_c, 9, 40, 94
2, 12840, Note_on_c, 9, 44, 127
2, 12853, Note_on_c, 9, 44, 0
2, 12853, Note_on_c, 9, 40, 0
2, 12858, Note_on_c, 9, 54, 0
2, 12858, Note_on_c, 9, 59, 0
2, 12960, Note_on_c, 9, 59, 127
2, 12960, Note_on_c, 9, 35, 94
2, 12978, Note_on_c, 9, 35, 0
2, 12978, Note_on_c, 9, 59, 0
2, 13080, Note_on_c, 9, 59, 127
2, 13080, Note_on_c, 9, 54, 80
2, 13080, Note_on_c, 9, 40, 94
2, 13080, Note_on_c, 9, 44, 127
2, 13093, Note_on_c, 9, 44, 0
2, 13093, Note_on_c, 9, 40, 0
2, 13098, Note_on_c, 9, 54, 0
2, 13098, Note_on_c, 9, 59, 0
2, 13200, Note_on_c, 9, 59, 127
2, 13200, Note_on_c, 9, 35, 94
2, 13218, Note_on_c, 9, 35, 0
2, 13218, Note_on_c, 9, 59, 0
2, 13320, Note_on_c, 9, 59, 127
2, 13320, Note_on_c, 9, 54, 80
2, 13320, Note_on_c, 9, 40, 94
2, 13320, Note_on_c, 9, 44, 127
2, 13333, Note_on_c, 9, 44, 0
2, 13333, Note_on_c, 9, 40, 0
2, 13338, Note_on_c, 9, 54, 0
2, 13338, Note_on_c, 9, 59, 0
2, 13440, Note_on_c, 9, 59, 127
2, 13440, Note_on_c, 9, 35, 94
2, 13458, Note_on_c, 9, 35, 0
2, 13458, Note_on_c, 9, 59, 0
2, 13560, Note_on_c, 9, 59, 127
2, 13560, Note_on_c, 9, 54, 80
2, 13560, Note_on_c, 9, 40, 94
2, 13560, Note_on_c, 9, 44, 127
2, 13573, Note_on_c, 9, 44, 0
2, 13573, Note_on_c, 9, 40, 0
2, 13578, Note_on_c, 9, 54, 0
2, 13578, Note_on_c, 9, 59, 0
2, 13680, Note_on_c, 9, 59, 127
2, 13680, Note_on_c, 9, 35, 94
2, 13698, Note_on_c, 9, 35, 0
2, 13698, Note_on_c, 9, 59, 0
2, 13800, Note_on_c, 9, 59, 127
2, 13800, Note_on_c, 9, 54, 80
2, 13800, Note_on_c, 9, 40, 94
2, 13800, Note_on_c, 9, 44, 127
2, 13813, Note_on_c, 9, 44, 0
2, 13813, Note_on_c, 9, 40, 0
2, 13818, Note_on_c, 9, 54, 0
2, 13818, Note_on_c, 9, 59, 0
2, 13920, Note_on_c, 9, 59, 127
2, 13920, Note_on_c, 9, 35, 94
2, 13938, Note_on_c, 9, 35, 0
2, 13938, Note_on_c, 9, 59, 0
2, 14040, Note_on_c, 9, 59, 127
2, 14040, Note_on_c, 9, 54, 80
2, 14040, Note_on_c, 9, 40, 94
2, 14040, Note_on_c, 9, 44, 127
2, 14053, Note_on_c, 9, 44, 0
2, 14053, Note_on_c, 9, 40, 0
2, 14058, Note_on_c, 9, 54, 0
2, 14058, Note_on_c, 9, 59, 0
2, 14160, Note_on_c, 9, 59, 127
2, 14160, Note_on_c, 9, 35, 94
2, 14178, Note_on_c, 9, 35, 0
2, 14178, Note_on_c, 9, 59, 0
2, 14280, Note_on_c, 9, 59, 127
2, 14280, Note_on_c, 9, 54, 80
2, 14280, Note_on_c, 9, 40, 94
2, 14280, Note_on_c, 9, 44, 127
2, 14293, Note_on_c, 9, 44, 0
2, 14293, Note_on_c, 9, 40, 0
2, 14298, Note_on_c, 9, 54, 0
2, 14298, Note_on_c, 9, 59, 0
2, 14400, Note_on_c, 9, 59, 127
2, 14400, Note_on_c, 9, 35, 94
2, 14418, Note_on_c, 9, 35, 0
2, 14418, Note_on_c, 9, 59, 0
2, 14520, Note_on_c, 9, 59, 127
2, 14520, Note_on_c, 9, 54, 80
2, 14520, Note_on_c, 9, 40, 94
2, 14520, Note_on_c, 9, 44, 127
2, 14533, Note_on_c, 9, 44, 0
2, 14533, Note_on_c, 9, 40, 0
2, 14538, Note_on_c, 9, 54, 0
2, 14538, Note_on_c, 9, 59, 0
2, 14640, Note_on_c, 9, 59, 127
2, 14640, Note_on_c, 9, 35, 94
2, 14658, Note_on_c, 9, 35, 0
2, 14658, Note_on_c, 9, 59, 0
2, 14760, Note_on_c, 9, 59, 127
2, 14760, Note_on_c, 9, 54, 80
2, 14760, Note_on_c, 9, 40, 94
2, 14760, Note_on_c, 9, 44, 127
2, 14773, Note_on_c, 9, 44, 0
2, 14773, Note_on_c, 9, 40, 0
2, 14778, Note_on_c, 9, 54, 0
2, 14778, Note_on_c, 9, 59, 0
2, 14880, Note_on_c, 9, 59, 127
2, 14880, Note_on_c, 9, 35, 94
2, 14898, Note_on_c, 9, 35, 0
2, 14898, Note_on_c, 9, 59, 0
2, 15000, Note_on_c, 9, 59, 127
2, 15000, Note_on_c, 9, 54, 80
2, 15000, Note_on_c, 9, 40, 94
2, 15000, Note_on_c, 9, 44, 127
2, 15013, Note_on_c, 9, 44, 0
2, 15013, Note_on_c, 9, 40, 0
2, 15018, Note_on_c, 9, 54, 0
2, 15018, Note_on_c, 9, 59, 0
2, 15120, Note_on_c, 9, 59, 127
2, 15120, Note_on_c, 9, 35, 94
2, 15138, Note_on_c, 9, 35, 0
2, 15138, Note_on_c, 9, 59, 0
2, 15240, Note_on_c, 9, 59, 127
2, 15240, Note_on_c, 9, 54, 80
2, 15240, Note_on_c, 9, 40, 94
2, 15240, Note_on_c, 9, 44, 127
2, 15253, Note_on_c, 9, 44, 0
2, 15253, Note_on_c, 9, 40, 0
2, 15258, Note_on_c, 9, 54, 0
2, 15258, Note_on_c, 9, 59, 0
2, 15360, Note_on_c, 9, 59, 127
2, 15360, Note_on_c, 9, 35, 94
2, 15378, Note_on_c, 9, 35, 0
2, 15378, Note_on_c, 9, 59, 0
2, 15480, Note_on_c, 9, 59, 127
2, 15480, Note_on_c, 9, 54, 80
2, 15480, Note_on_c, 9, 40, 94
2, 15480, Note_on_c, 9, 44, 127
2, 15493, Note_on_c, 9, 44, 0
2, 15493, Note_on_c, 9, 40, 0
2, 15498, Note_on_c, 9, 54, 0
2, 15498, Note_on_c, 9, 59, 0
2, 15600, Note_on_c, 9, 59, 127
2, 15600, Note_on_c, 9, 35, 94
2, 15618, Note_on_c, 9, 35, 0
2, 15618, Note_on_c, 9, 59, 0
2, 15720, Note_on_c, 9, 59, 127
2, 15720, Note_on_c, 9, 54, 80
2, 15720, Note_on_c, 9, 40, 94
2, 15720, Note_on_c, 9, 44, 127
2, 15733, Note_on_c, 9, 44, 0
2, 15733, Note_on_c, 9, 40, 0
2, 15738, Note_on_c, 9, 54, 0
2, 15738, Note_on_c, 9, 59, 0
2, 15840, Note_on_c, 9, 59, 127
2, 15840, Note_on_c, 9, 35, 94
2, 15858, Note_on_c, 9, 35, 0
2, 15858, Note_on_c, 9, 59, 0
2, 15960, Note_on_c, 9, 59, 127
2, 15960, Note_on_c, 9, 54, 80
2, 15960, Note_on_c, 9, 40, 94
2, 15960, Note_on_c, 9, 44, 127
2, 15973, Note_on_c, 9, 44, 0
2, 15973, Note_on_c, 9, 40, 0
2, 15978, Note_on_c, 9, 54, 0
2, 15978, Note_on_c, 9, 59, 0
2, 16080, Note_on_c, 9, 59, 127
2, 16080, Note_on_c, 9, 35, 94
2, 16098, Note_on_c, 9, 35, 0
2, 16098, Note_on_c, 9, 59, 0
2, 16200, Note_on_c, 9, 59, 127
2, 16200, Note_on_c, 9, 54, 80
2, 16200, Note_on_c, 9, 40, 94
2, 16200, Note_on_c, 9, 44, 127
2, 16213, Note_on_c, 9, 44, 0
2, 16213, Note_on_c, 9, 40, 0
2, 16218, Note_on_c, 9, 54, 0
2, 16218, Note_on_c, 9, 59, 0
2, 16320, Note_on_c, 9, 35, 94
2, 16338, Note_on_c, 9, 35, 0
2, 16440, Note_on_c, 9, 54, 80
2, 16440, Note_on_c, 9, 40, 94
2, 16440, Note_on_c, 9, 44, 127
2, 16453, Note_on_c, 9, 44, 0
2, 16453, Note_on_c, 9, 40, 0
2, 16458, Note_on_c, 9, 54, 0
2, 16560, Note_on_c, 9, 35, 94
2, 16578, Note_on_c, 9, 35, 0
2, 16680, Note_on_c, 9, 54, 80
2, 16680, Note_on_c, 9, 40, 94
2, 16680, Note_on_c, 9, 44, 127
2, 16693, Note_on_c, 9, 44, 0
2, 16693, Note_on_c, 9, 40, 0
2, 16698, Note_on_c, 9, 54, 0
2, 16800, Note_on_c, 9, 35, 94
2, 16818, Note_on_c, 9, 35, 0
2, 16920, Note_on_c, 9, 54, 80
2, 16920, Note_on_c, 9, 40, 94
2, 16920, Note_on_c, 9, 44, 127
2, 16933, Note_on_c, 9, 44, 0
2, 16933, Note_on_c, 9, 40, 0
2, 16938, Note_on_c, 9, 54, 0
2, 17040, Note_on_c, 9, 35, 94
2, 17058, Note_on_c, 9, 35, 0
2, 17160, Note_on_c, 9, 54, 80
2, 17160, Note_on_c, 9, 40, 94
2, 17160, Note_on_c, 9, 44, 127
2, 17173, Note_on_c, 9, 44, 0
2, 17173, Note_on_c, 9, 40, 0
2, 17178, Note_on_c, 9, 54, 0
2, 17280, Note_on_c, 9, 35, 94
2, 17298, Note_on_c, 9, 35, 0
2, 17400, Note_on_c, 9, 54, 80
2, 17400, Note_on_c, 9, 40, 94
2, 17400, Note_on_c, 9, 44, 127
2, 17413, Note_on_c, 9, 44, 0
2, 17413, Note_on_c, 9, 40, 0
2, 17418, Note_on_c, 9, 54, 0
2, 17520, Note_on_c, 9, 35, 94
2, 17538, Note_on_c, 9, 35, 0
2, 17640, Note_on_c, 9, 54, 80
2, 17640, Note_on_c, 9, 40, 94
2, 17640, Note_on_c, 9, 44, 127
2, 17653, Note_on_c, 9, 44, 0
2, 17653, Note_on_c, 9, 40, 0
2, 17658, Note_on_c, 9, 54, 0
2, 17760, Note_on_c, 9, 35, 94
2, 17778, Note_on_c, 9, 35, 0
2, 17880, Note_on_c, 9, 54, 80
2, 17880, Note_on_c, 9, 40, 94
2, 17880, Note_on_c, 9, 44, 127
2, 17893, Note_on_c, 9, 44, 0
2, 17893, Note_on_c, 9, 40, 0
2, 17898, Note_on_c, 9, 54, 0
2, 18000, Note_on_c, 9, 35, 94
2, 18018, Note_on_c, 9, 35, 0
2, 18120, Note_on_c, 9, 54, 80
2, 18120, Note_on_c, 9, 40, 94
2, 18120, Note_on_c, 9, 44, 127
2, 18133, Note_on_c, 9, 44, 0
2, 18133, Note_on_c, 9, 40, 0
2, 18138, Note_on_c, 9, 54, 0
2, 18240, Note_on_c, 9, 35, 94
2, 18258, Note_on_c, 9, 35, 0
2, 18360, Note_on_c, 9, 54, 80
2, 18360, Note_on_c, 9, 40, 94
2, 18360, Note_on_c, 9, 44, 127
2, 18373, Note_on_c, 9, 44, 0
2, 18373, Note_on_c, 9, 40, 0
2, 18378, Note_on_c, 9, 54, 0
2, 18480, Note_on_c, 9, 35, 94
2, 18498, Note_on_c, 9, 35, 0
2, 18600, Note_on_c, 9, 54, 80
2, 18600, Note_on_c, 9, 40, 94
2, 18600, Note_on_c, 9, 44, 127
2, 18613, Note_on_c, 9, 44, 0
2, 18613, Note_on_c, 9, 40, 0
2, 18618, Note_on_c, 9, 54, 0
2, 18720, Note_on_c, 9, 35, 94
2, 18738, Note_on_c, 9, 35, 0
2, 18840, Note_on_c, 9, 54, 80
2, 18840, Note_on_c, 9, 40, 94
2, 18840, Note_on_c, 9, 44, 127
2, 18853, Note_on_c, 9, 44, 0
2, 18853, Note_on_c, 9, 40, 0
2, 18858, Note_on_c, 9, 54, 0
2, 18960, Note_on_c, 9, 35, 94
2, 18978, Note_on_c, 9, 35, 0
2, 19080, Note_on_c, 9, 54, 80
2, 19080, Note_on_c, 9, 40, 94
2, 19080, Note_on_c, 9, 44, 127
2, 19093, Note_on_c, 9, 44, 0
2, 19093, Note_on_c, 9, 40, 0
2, 19098, Note_on_c, 9, 54, 0
2, 19200, Note_on_c, 9, 35, 94
2, 19218, Note_on_c, 9, 35, 0
2, 19320, Note_on_c, 9, 54, 80
2, 19320, Note_on_c, 9, 40, 94
2, 19320, Note_on_c, 9, 44, 127
2, 19333, Note_on_c, 9, 44, 0
2, 19333, Note_on_c, 9, 40, 0
2, 19338, Note_on_c, 9, 54, 0
2, 19440, Note_on_c, 9, 35, 94
2, 19458, Note_on_c, 9, 35, 0
2, 19560, Note_on_c, 9, 54, 80
2, 19560, Note_on_c, 9, 40, 94
2, 19560, Note_on_c, 9, 44, 127
2, 19573, Note_on_c, 9, 44, 0
2, 19573, Note_on_c, 9, 40, 0
2, 19578, Note_on_c, 9, 54, 0
2, 19680, Note_on_c, 9, 35, 94
2, 19698, Note_on_c, 9, 35, 0
2, 19800, Note_on_c, 9, 54, 80
2, 19800, Note_on_c, 9, 40, 94
2, 19800, Note_on_c, 9, 44, 127
2, 19813, Note_on_c, 9, 44, 0
2, 19813, Note_on_c, 9, 40, 0
2, 19818, Note_on_c, 9, 54, 0
2, 19920, Note_on_c, 9, 35, 94
2, 19938, Note_on_c, 9, 35, 0
2, 20040, Note_on_c, 9, 54, 80
2, 20040, Note_on_c, 9, 40, 94
2, 20040, Note_on_c, 9, 44, 127
2, 20053, Note_on_c, 9, 44, 0
2, 20053, Note_on_c, 9, 40, 0
2, 20058, Note_on_c, 9, 54, 0
2, 20160, Note_on_c, 9, 35, 94
2, 20178, Note_on_c, 9, 35, 0
2, 20280, Note_on_c, 9, 54, 80
2, 20280, Note_on_c, 9, 40, 94
2, 20280, Note_on_c, 9, 44, 127
2, 20293, Note_on_c, 9, 44, 0
2, 20293, Note_on_c, 9, 40, 0
2, 20298, Note_on_c, 9, 54, 0
2, 20400, Note_on_c, 9, 35, 94
2, 20418, Note_on_c, 9, 35, 0
2, 20520, Note_on_c, 9, 54, 80
2, 20520, Note_on_c, 9, 40, 94
2, 20520, Note_on_c, 9, 44, 127
2, 20533, Note_on_c, 9, 44, 0
2, 20533, Note_on_c, 9, 40, 0
2, 20538, Note_on_c, 9, 54, 0
2, 20640, Note_on_c, 9, 35, 94
2, 20658, Note_on_c, 9, 35, 0
2, 20760, Note_on_c, 9, 54, 80
2, 20760, Note_on_c, 9, 40, 94
2, 20760, Note_on_c, 9, 44, 127
2, 20773, Note_on_c, 9, 44, 0
2, 20773, Note_on_c, 9, 40, 0
2, 20778, Note_on_c, 9, 54, 0
2, 20880, Note_on_c, 9, 35, 94
2, 20898, Note_on_c, 9, 35, 0
2, 21000, Note_on_c, 9, 54, 80
2, 21000, Note_on_c, 9, 40, 94
2, 21000, Note_on_c, 9, 44, 127
2, 21013, Note_on_c, 9, 44, 0
2, 21013, Note_on_c, 9, 40, 0
2, 21018, Note_on_c, 9, 54, 0
2, 21120, Note_on_c, 9, 35, 94
2, 21138, Note_on_c, 9, 35, 0
2, 21240, Note_on_c, 9, 54, 80
2, 21240, Note_on_c, 9, 40, 94
2, 21240, Note_on_c, 9, 44, 127
2, 21253, Note_on_c, 9, 44, 0
2, 21253, Note_on_c, 9, 40, 0
2, 21258, Note_on_c, 9, 54, 0
2, 21360, Note_on_c, 9, 35, 94
2, 21378, Note_on_c, 9, 35, 0
2, 21480, Note_on_c, 9, 54, 80
2, 21480, Note_on_c, 9, 40, 94
2, 21480, Note_on_c, 9, 44, 127
2, 21493, Note_on_c, 9, 44, 0
2, 21493, Note_on_c, 9, 40, 0
2, 21498, Note_on_c, 9, 54, 0
2, 21600, Note_on_c, 9, 35, 94
2, 21618, Note_on_c, 9, 35, 0
2, 21720, Note_on_c, 9, 54, 80
2, 21720, Note_on_c, 9, 40, 94
2, 21720, Note_on_c, 9, 44, 127
2, 21733, Note_on_c, 9, 44, 0
2, 21733, Note_on_c, 9, 40, 0
2, 21738, Note_on_c, 9, 54, 0
2, 21840, Note_on_c, 9, 35, 94
2, 21858, Note_on_c, 9, 35, 0
2, 21960, Note_on_c, 9, 54, 80
2, 21960, Note_on_c, 9, 40, 94
2, 21960, Note_on_c, 9, 44, 127
2, 21973, Note_on_c, 9, 44, 0
2, 21973, Note_on_c, 9, 40, 0
2, 21978, Note_on_c, 9, 54, 0
2, 22080, Note_on_c, 9, 35, 94
2, 22098, Note_on_c, 9, 35, 0
2, 22200, Note_on_c, 9, 54, 80
2, 22200, Note_on_c, 9, 40, 94
2, 22200, Note_on_c, 9, 44, 127
2, 22213, Note_on_c, 9, 44, 0
2, 22213, Note_on_c, 9, 40, 0
2, 22218, Note_on_c, 9, 54, 0
2, 22320, Note_on_c, 9, 35, 94
2, 22338, Note_on_c, 9, 35, 0
2, 22440, Note_on_c, 9, 54, 80
2, 22440, Note_on_c, 9, 40, 94
2, 22440, Note_on_c, 9, 44, 127
2, 22453, Note_on_c, 9, 44, 0
2, 22453, Note_on_c, 9, 40, 0
2, 22458, Note_on_c, 9, 54, 0
2, 22560, Note_on_c, 9, 35, 94
2, 22578, Note_on_c, 9, 35, 0
2, 22680, Note_on_c, 9, 54, 80
2, 22680, Note_on_c, 9, 40, 94
2, 22680, Note_on_c, 9, 44, 127
2, 22693, Note_on_c, 9, 44, 0
2, 22693, Note_on_c, 9, 40, 0
2, 22698, Note_on_c, 9, 54, 0
2, 22800, Note_on_c, 9, 35, 94
2, 22818, Note_on_c, 9, 35, 0
2, 22920, Note_on_c, 9, 54, 80
2, 22920, Note_on_c, 9, 40, 94
2, 22920, Note_on_c, 9, 44, 127
2, 22933, Note_on_c, 9, 44, 0
2, 22933, Note_on_c, 9, 40, 0
2, 22938, Note_on_c, 9, 54, 0
2, 23040, Note_on_c, 9, 35, 94
2, 23058, Note_on_c, 9, 35, 0
2, 23160, Note_on_c, 9, 54, 80
2, 23160, Note_on_c, 9, 40, 94
2, 23160, Note_on_c, 9, 44, 127
2, 23173, Note_on_c, 9, 44, 0
2, 23173, Note_on_c, 9, 40, 0
2, 23178, Note_on_c, 9, 54, 0
2, 23280, Note_on_c, 9, 35, 94
2, 23298, Note_on_c, 9, 35, 0
2, 23400, Note_on_c, 9, 54, 80
2, 23400, Note_on_c, 9, 40, 94
2, 23400, Note_on_c, 9, 44, 127
2, 23413, Note_on_c, 9, 44, 0
2, 23413, Note_on_c, 9, 40, 0
2, 23418, Note_on_c, 9, 54, 0
2, 23520, Note_on_c, 9, 35, 94
2, 23538, Note_on_c, 9, 35, 0
2, 23640, Note_on_c, 9, 54, 80
2, 23640, Note_on_c, 9, 40, 94
2, 23640, Note_on_c, 9, 44, 127
2, 23653, Note_on_c, 9, 44, 0
2, 23653, Note_on_c, 9, 40, 0
2, 23658, Note_on_c, 9, 54, 0
2, 23760, Note_on_c, 9, 35, 94
2, 23778, Note_on_c, 9, 35, 0
2, 23880, Note_on_c, 9, 54, 80
2, 23880, Note_on_c, 9, 40, 94
2, 23880, Note_on_c, 9, 44, 127
2, 23893, Note_on_c, 9, 44, 0
2, 23893, Note_on_c, 9, 40, 0
2, 23898, Note_on_c, 9, 54, 0
2, 24000, Note_on_c, 9, 35, 94
2, 24018, Note_on_c, 9, 35, 0
2, 24120, Note_on_c, 9, 57, 88
2, 24120, Note_on_c, 9, 54, 80
2, 24120, Note_on_c, 9, 40, 94
2, 24120, Note_on_c, 9, 44, 127
2, 24133, Note_on_c, 9, 44, 0
2, 24133, Note_on_c, 9, 40, 0
2, 24138, Note_on_c, 9, 54, 0
2, 24240, Note_on_c, 9, 35, 94
2, 24245, Note_on_c, 9, 57, 0
2, 24258, Note_on_c, 9, 35, 0
2, 24356, Note_on_c, 9, 57, 86
2, 24360, Note_on_c, 9, 54, 80
2, 24360, Note_on_c, 9, 40, 94
2, 24360, Note_on_c, 9, 44, 127
2, 24373, Note_on_c, 9, 44, 0
2, 24373, Note_on_c, 9, 40, 0
2, 24378, Note_on_c, 9, 54, 0
2, 24480, Note_on_c, 9, 35, 94
2, 24487, Note_on_c, 9, 57, 0
2, 24498, Note_on_c, 9, 35, 0
2, 24600, Note_on_c, 9, 57, 88
2, 24600, Note_on_c, 9, 54, 80
2, 24600, Note_on_c, 9, 40, 94
2, 24600, Note_on_c, 9, 44, 127
2, 24613, Note_on_c, 9, 44, 0
2, 24613, Note_on_c, 9, 40, 0
2, 24618, Note_on_c, 9, 54, 0
2, 24720, Note_on_c, 9, 35, 94
2, 24731, Note_on_c, 9, 57, 0
2, 24738, Note_on_c, 9, 35, 0
2, 24840, Note_on_c, 9, 54, 80
2, 24840, Note_on_c, 9, 40, 94
2, 24840, Note_on_c, 9, 44, 127
2, 24842, Note_on_c, 9, 57, 88
2, 24853, Note_on_c, 9, 44, 0
2, 24853, Note_on_c, 9, 40, 0
2, 24858, Note_on_c, 9, 54, 0
2, 24960, Note_on_c, 9, 35, 94
2, 24970, Note_on_c, 9, 57, 0
2, 24978, Note_on_c, 9, 35, 0
2, 25080, Note_on_c, 9, 57, 86
2, 25080, Note_on_c, 9, 54, 80
2, 25080, Note_on_c, 9, 40, 94
2, 25080, Note_on_c, 9, 44, 127
2, 25093, Note_on_c, 9, 44, 0
2, 25093, Note_on_c, 9, 40, 0
2, 25098, Note_on_c, 9, 54, 0
2, 25200, Note_on_c, 9, 35, 94
2, 25202, Note_on_c, 9, 57, 0
2, 25218, Note_on_c, 9, 35, 0
2, 25320, Note_on_c, 9, 54, 80
2, 25320, Note_on_c, 9, 40, 94
2, 25320, Note_on_c, 9, 44, 127
2, 25322, Note_on_c, 9, 57, 86
2, 25333, Note_on_c, 9, 44, 0
2, 25333, Note_on_c, 9, 40, 0
2, 25338, Note_on_c, 9, 54, 0
2, 25440, Note_on_c, 9, 35, 94
2, 25445, Note_on_c, 9, 57, 0
2, 25458, Note_on_c, 9, 35, 0
2, 25560, Note_on_c, 9, 54, 80
2, 25560, Note_on_c, 9, 40, 94
2, 25560, Note_on_c, 9, 44, 127
2, 25561, Note_on_c, 9, 57, 82
2, 25573, Note_on_c, 9, 44, 0
2, 25573, Note_on_c, 9, 40, 0
2, 25578, Note_on_c, 9, 54, 0
2, 25680, Note_on_c, 9, 35, 94
2, 25686, Note_on_c, 9, 57, 0
2, 25698, Note_on_c, 9, 35, 0
2, 25800, Note_on_c, 9, 54, 80
2, 25800, Note_on_c, 9, 40, 94
2, 25800, Note_on_c, 9, 44, 127
2, 25803, Note_on_c, 9, 57, 82
2, 25813, Note_on_c, 9, 44, 0
2, 25813, Note_on_c, 9, 40, 0
2, 25818, Note_on_c, 9, 54, 0
2, 25919, Note_on_c, 9, 57, 0
2, 25920, Note_on_c, 9, 35, 94
2, 25938, Note_on_c, 9, 35, 0
2, 26038, Note_on_c, 9, 57, 86
2, 26040, Note_on_c, 9, 54, 80
2, 26040, Note_on_c, 9, 40, 94
2, 26040, Note_on_c, 9, 44, 127
2, 26053, Note_on_c, 9, 44, 0
2, 26053, Note_on_c, 9, 40, 0
2, 26058, Note_on_c, 9, 54, 0
2, 26160, Note_on_c, 9, 35, 94
2, 26167, Note_on_c, 9, 57, 0
2, 26178, Note_on_c, 9, 35, 0
2, 26277, Note_on_c, 9, 57, 86
2, 26280, Note_on_c, 9, 54, 80
2, 26280, Note_on_c, 9, 40, 94
2, 26280, Note_on_c, 9, 44, 127
2, 26293, Note_on_c, 9, 44, 0
2, 26293, Note_on_c, 9, 40, 0
2, 26298, Note_on_c, 9, 54, 0
2, 26400, Note_on_c, 9, 35, 94
2, 26407, Note_on_c, 9, 57, 0
2, 26418, Note_on_c, 9, 35, 0
2, 26512, Note_on_c, 9, 57, 78
2, 26520, Note_on_c, 9, 54, 80
2, 26520, Note_on_c, 9, 40, 94
2, 26520, Note_on_c, 9, 44, 127
2, 26533, Note_on_c, 9, 44, 0
2, 26533, Note_on_c, 9, 40, 0
2, 26538, Note_on_c, 9, 54, 0
2, 26640, Note_on_c, 9, 35, 94
2, 26649, Note_on_c, 9, 57, 0
2, 26658, Note_on_c, 9, 35, 0
2, 26760, Note_on_c, 9, 54, 80
2, 26760, Note_on_c, 9, 40, 94
2, 26760, Note_on_c, 9, 44, 127
2, 26763, Note_on_c, 9, 57, 88
2, 26773, Note_on_c, 9, 44, 0
2, 26773, Note_on_c, 9, 40, 0
2, 26778, Note_on_c, 9, 54, 0
2, 26876, Note_on_c, 9, 57, 0
2, 26880, Note_on_c, 9, 35, 94
2, 26898, Note_on_c, 9, 35, 0
2, 27000, Note_on_c, 9, 54, 80
2, 27000, Note_on_c, 9, 40, 94
2, 27000, Note_on_c, 9, 44, 127
2, 27001, Note_on_c, 9, 57, 88
2, 27013, Note_on_c, 9, 44, 0
2, 27013, Note_on_c, 9, 40, 0
2, 27018, Note_on_c, 9, 54, 0
2, 27120, Note_on_c, 9, 35, 94
2, 27126, Note_on_c, 9, 57, 0
2, 27138, Note_on_c, 9, 35, 0
2, 27240, Note_on_c, 9, 54, 80
2, 27240, Note_on_c, 9, 40, 94
2, 27240, Note_on_c, 9, 44, 127
2, 27247, Note_on_c, 9, 57, 88
2, 27253, Note_on_c, 9, 44, 0
2, 27253, Note_on_c, 9, 40, 0
2, 27258, Note_on_c, 9, 54, 0
2, 27354, Note_on_c, 9, 57, 0
2, 27360, Note_on_c, 9, 35, 94
2, 27378, Note_on_c, 9, 35, 0
2, 27478, Note_on_c, 9, 57, 86
2, 27480, Note_on_c, 9, 54, 80
2, 27480, Note_on_c, 9, 40, 94
2, 27480, Note_on_c, 9, 44, 127
2, 27493, Note_on_c, 9, 44, 0
2, 27493, Note_on_c, 9, 40, 0
2, 27498, Note_on_c, 9, 54, 0
2, 27600, Note_on_c, 9, 35, 94
2, 27611, Note_on_c, 9, 57, 0
2, 27618, Note_on_c, 9, 35, 0
2, 27720, Note_on_c, 9, 54, 80
2, 27720, Note_on_c, 9, 40, 94
2, 27720, Note_on_c, 9, 44, 127
2, 27722, Note_on_c, 9, 57, 92
2, 27733, Note_on_c, 9, 44, 0
2, 27733, Note_on_c, 9, 40, 0
2, 27738, Note_on_c, 9, 54, 0
2, 27819, Note_on_c, 9, 57, 0
2, 27840, Note_on_c, 9, 35, 94
2, 27858, Note_on_c, 9, 35, 0
2, 27960, Note_on_c, 9, 54, 80
2, 27960, Note_on_c, 9, 40, 94
2, 27960, Note_on_c, 9, 44, 127
2, 27973, Note_on_c, 9, 44, 0
2, 27973, Note_on_c, 9, 40, 0
2, 27978, Note_on_c, 9, 54, 0
2, 28080, Note_on_c, 9, 35, 94
2, 28084, Control_c, 9, 11, 127
2, 28098, Note_on_c, 9, 35, 0
2, 28100, Control_c, 9, 11, 126
2, 28116, Control_c, 9, 11, 125
2, 28130, Control_c, 9, 11, 124
2, 28146, Control_c, 9, 11, 123
2, 28160, Control_c, 9, 11, 122
2, 28176, Control_c, 9, 11, 121
2, 28192, Control_c, 9, 11, 120
2, 28200, Note_on_c, 9, 54, 80
2, 28200, Note_on_c, 9, 40, 94
2, 28200, Note_on_c, 9, 44, 127
2, 28206, Control_c, 9, 11, 119
2, 28213, Note_on_c, 9, 44, 0
2, 28213, Note_on_c, 9, 40, 0
2, 28218, Note_on_c, 9, 54, 0
2, 28222, Control_c, 9, 11, 118
2, 28236, Control_c, 9, 11, 117
2, 28252, Control_c, 9, 11, 116
2, 28268, Control_c, 9, 11, 115
2, 28282, Control_c, 9, 11, 114
2, 28298, Control_c, 9, 11, 113
2, 28312, Control_c, 9, 11, 112
2, 28320, Note_on_c, 9, 35, 94
2, 28328, Control_c, 9, 11, 111
2, 28338, Note_on_c, 9, 35, 0
2, 28342, Control_c, 9, 11, 110
2, 28358, Control_c, 9, 11, 109
2, 28374, Control_c, 9, 11, 108
2, 28388, Control_c, 9, 11, 107
2, 28404, Control_c, 9, 11, 106
2, 28418, Control_c, 9, 11, 105
2, 28434, Control_c, 9, 11, 104
2, 28440, Note_on_c, 9, 54, 80
2, 28440, Note_on_c, 9, 40, 94
2, 28440, Note_on_c, 9, 44, 127
2, 28450, Control_c, 9, 11, 103
2, 28453, Note_on_c, 9, 44, 0
2, 28453, Note_on_c, 9, 40, 0
2, 28458, Note_on_c, 9, 54, 0
2, 28464, Control_c, 9, 11, 102
2, 28480, Control_c, 9, 11, 101
2, 28494, Control_c, 9, 11, 100
2, 28510, Control_c, 9, 11, 99
2, 28526, Control_c, 9, 11, 98
2, 28540, Control_c, 9, 11, 97
2, 28556, Control_c, 9, 11, 96
2, 28560, Note_on_c, 9, 35, 94
2, 28570, Control_c, 9, 11, 95
2, 28578, Note_on_c, 9, 35, 0
2, 28586, Control_c, 9, 11, 94
2, 28600, Control_c, 9, 11, 93
2, 28616, Control_c, 9, 11, 92
2, 28632, Control_c, 9, 11, 91
2, 28646, Control_c, 9, 11, 90
2, 28662, Control_c, 9, 11, 89
2, 28676, Control_c, 9, 11, 88
2, 28680, Note_on_c, 9, 54, 80
2, 28680, Note_on_c, 9, 40, 94
2, 28680, Note_on_c, 9, 44, 127
2, 28692, Control_c, 9, 11, 87
2, 28693, Note_on_c, 9, 44, 0
2, 28693, Note_on_c, 9, 40, 0
2, 28698, Note_on_c, 9, 54, 0
2, 28708, Control_c, 9, 11, 86
2, 28722, Control_c, 9, 11, 85
2, 28738, Control_c, 9, 11, 84
2, 28752, Control_c, 9, 11, 83
2, 28768, Control_c, 9, 11, 82
2, 28784, Control_c, 9, 11, 81
2, 28798, Control_c, 9, 11, 80
2, 28800, Note_on_c, 9, 35, 94
2, 28814, Control_c, 9, 11, 79
2, 28818, Note_on_c, 9, 35, 0
2, 28828, Control_c, 9, 11, 78
2, 28844, Control_c, 9, 11, 77
2, 28858, Control_c, 9, 11, 76
2, 28874, Control_c, 9, 11, 75
2, 28890, Control_c, 9, 11, 74
2, 28904, Control_c, 9, 11, 73
2, 28920, Note_on_c, 9, 54, 80
2, 28920, Note_on_c, 9, 40, 94
2, 28920, Note_on_c, 9, 44, 127
2, 28920, Control_c, 9, 11, 72
2, 28933, Note_on_c, 9, 44, 0
2, 28933, Note_on_c, 9, 40, 0
2, 28934, Control_c, 9, 11, 71
2, 28938, Note_on_c, 9, 54, 0
2, 28950, Control_c, 9, 11, 70
2, 28966, Control_c, 9, 11, 69
2, 28980, Control_c, 9, 11, 68
2, 28996, Control_c, 9, 11, 67
2, 29010, Control_c, 9, 11, 66
2, 29026, Control_c, 9, 11, 65
2, 29040, Note_on_c, 9, 35, 94
2, 29040, Control_c, 9, 11, 63
2, 29052, Control_c, 9, 11, 62
2, 29058, Note_on_c, 9, 35, 0
2, 29064, Control_c, 9, 11, 61
2, 29076, Control_c, 9, 11, 60
2, 29088, Control_c, 9, 11, 59
2, 29100, Control_c, 9, 11, 58
2, 29110, Control_c, 9, 11, 57
2, 29122, Control_c, 9, 11, 56
2, 29134, Control_c, 9, 11, 55
2, 29146, Control_c, 9, 11, 54
2, 29158, Control_c, 9, 11, 53
2, 29160, Note_on_c, 9, 54, 80
2, 29160, Note_on_c, 9, 40, 94
2, 29160, Note_on_c, 9, 44, 127
2, 29168, Control_c, 9, 11, 52
2, 29173, Note_on_c, 9, 44, 0
2, 29173, Note_on_c, 9, 40, 0
2, 29178, Note_on_c, 9, 54, 0
2, 29180, Control_c, 9, 11, 51
2, 29192, Control_c, 9, 11, 50
2, 29204, Control_c, 9, 11, 49
2, 29216, Control_c, 9, 11, 48
2, 29226, Control_c, 9, 11, 47
2, 29238, Control_c, 9, 11, 46
2, 29250, Control_c, 9, 11, 45
2, 29262, Control_c, 9, 11, 44
2, 29274, Control_c, 9, 11, 43
2, 29280, Note_on_c, 9, 35, 94
2, 29284, Control_c, 9, 11, 42
2, 29296, Control_c, 9, 11, 41
2, 29298, Note_on_c, 9, 35, 0
2, 29308, Control_c, 9, 11, 40
2, 29320, Control_c, 9, 11, 39
2, 29332, Control_c, 9, 11, 38
2, 29342, Control_c, 9, 11, 37
2, 29354, Control_c, 9, 11, 36
2, 29366, Control_c, 9, 11, 35
2, 29378, Control_c, 9, 11, 34
2, 29390, Control_c, 9, 11, 33
2, 29400, Note_on_c, 9, 54, 80
2, 29400, Note_on_c, 9, 40, 94
2, 29400, Note_on_c, 9, 44, 127
2, 29400, Control_c, 9, 11, 32
2, 29412, Control_c, 9, 11, 31
2, 29413, Note_on_c, 9, 44, 0
2, 29413, Note_on_c, 9, 40, 0
2, 29418, Note_on_c, 9, 54, 0
2, 29424, Control_c, 9, 11, 30
2, 29436, Control_c, 9, 11, 29
2, 29448, Control_c, 9, 11, 28
2, 29460, Control_c, 9, 11, 27
2, 29470, Control_c, 9, 11, 26
2, 29482, Control_c, 9, 11, 25
2, 29494, Control_c, 9, 11, 24
2, 29506, Control_c, 9, 11, 23
2, 29518, Control_c, 9, 11, 22
2, 29520, Note_on_c, 9, 35, 94
2, 29528, Control_c, 9, 11, 21
2, 29538, Note_on_c, 9, 35, 0
2, 29540, Control_c, 9, 11, 20
2, 29552, Control_c, 9, 11, 19
2, 29564, Control_c, 9, 11, 18
2, 29576, Control_c, 9, 11, 17
2, 29586, Control_c, 9, 11, 16
2, 29598, Control_c, 9, 11, 15
2, 29610, Control_c, 9, 11, 14
2, 29622, Control_c, 9, 11, 13
2, 29634, Control_c, 9, 11, 12
2, 29640, Note_on_c, 9, 54, 80
2, 29640, Note_on_c, 9, 40, 94
2, 29640, Note_on_c, 9, 44, 127
2, 29644, Control_c, 9, 11, 11
2, 29653, Note_on_c, 9, 44, 0
2, 29653, Note_on_c, 9, 40, 0
2, 29656, Control_c, 9, 11, 10
2, 29658, Note_on_c, 9, 54, 0
2, 29668, Control_c, 9, 11, 9
2, 29680, Control_c, 9, 11, 8
2, 29692, Control_c, 9, 11, 7
2, 29702, Control_c, 9, 11, 6
2, 29714, Control_c, 9, 11, 5
2, 29726, Control_c, 9, 11, 4
2, 29738, Control_c, 9, 11, 3
2, 29750, Control_c, 9, 11, 2
2, 29760, Control_c, 9, 11, 1
2, 29760, End_track
3, 0, Start_track
3, 0, MIDI_port, 0
3, 0, Title_t, "ACCORDS"
3, 0, Control_c, 0, 7, 127
3, 0, Control_c, 0, 0, 8
3, 0, Control_c, 0, 64, 64
3, 960, Note_on_c, 0, 64, 80
3, 960, Note_on_c, 0, 60, 80
3, 960, Note_on_c, 0, 57, 80
3, 960, Note_on_c, 0, 52, 80
3, 960, Note_on_c, 0, 45, 80
3, 970, Note_on_c, 0, 45, 0
3, 970, Note_on_c, 0, 57, 0
3, 970, Note_on_c, 0, 64, 0
3, 970, Note_on_c, 0, 60, 0
3, 970, Note_on_c, 0, 52, 0
3, 1080, Note_on_c, 0, 57, 80
3, 1080, Note_on_c, 0, 60, 80
3, 1080, Note_on_c, 0, 64, 80
3, 1090, Note_on_c, 0, 64, 0
3, 1090, Note_on_c, 0, 60, 0
3, 1090, Note_on_c, 0, 57, 0
3, 1110, Control_c, 0, 64, 0
3, 1199, Control_c, 0, 64, 64
3, 1200, Note_on_c, 0, 47, 80
3, 1200, Note_on_c, 0, 52, 80
3, 1200, Note_on_c, 0, 56, 80
3, 1200, Note_on_c, 0, 62, 80
3, 1200, Note_on_c, 0, 64, 80
3, 1210, Note_on_c, 0, 64, 0
3, 1210, Note_on_c, 0, 56, 0
3, 1210, Note_on_c, 0, 47, 0
3, 1210, Note_on_c, 0, 52, 0
3, 1210, Note_on_c, 0, 62, 0
3, 1320, Note_on_c, 0, 56, 80
3, 1320, Note_on_c, 0, 62, 80
3, 1320, Note_on_c, 0, 64, 80
3, 1330, Note_on_c, 0, 64, 0
3, 1330, Note_on_c, 0, 62, 0
3, 1330, Note_on_c, 0, 56, 0
3, 1350, Control_c, 0, 64, 0
3, 1439, Control_c, 0, 64, 64
3, 1440, Note_on_c, 0, 64, 80
3, 1440, Note_on_c, 0, 60, 80
3, 1440, Note_on_c, 0, 57, 80
3, 1440, Note_on_c, 0, 52, 80
3, 1440, Note_on_c, 0, 45, 80
3, 1450, Note_on_c, 0, 45, 0
3, 1450, Note_on_c, 0, 57, 0
3, 1450, Note_on_c, 0, 64, 0
3, 1450, Note_on_c, 0, 60, 0
3, 1450, Note_on_c, 0, 52, 0
3, 1560, Note_on_c, 0, 57, 80
3, 1560, Note_on_c, 0, 60, 80
3, 1560, Note_on_c, 0, 64, 80
3, 1570, Note_on_c, 0, 64, 0
3, 1570, Note_on_c, 0, 60, 0
3, 1570, Note_on_c, 0, 57, 0
3, 1590, Control_c, 0, 64, 0
3, 1679, Control_c, 0, 64, 64
3, 1680, Note_on_c, 0, 67, 80
3, 1680, Note_on_c, 0, 60, 80
3, 1680, Note_on_c, 0, 57, 80
3, 1680, Note_on_c, 0, 52, 80
3, 1680, Note_on_c, 0, 45, 80
3, 1690, Note_on_c, 0, 45, 0
3, 1690, Note_on_c, 0, 57, 0
3, 1690, Note_on_c, 0, 67, 0
3, 1690, Note_on_c, 0, 60, 0
3, 1690, Note_on_c, 0, 52, 0
3, 1800, Note_on_c, 0, 57, 80
3, 1800, Note_on_c, 0, 60, 80
3, 1800, Note_on_c, 0, 67, 80
3, 1810, Note_on_c, 0, 67, 0
3, 1810, Note_on_c, 0, 60, 0
3, 1810, Note_on_c, 0, 57, 0
3, 1830, Control_c, 0, 64, 0
3, 1919, Control_c, 0, 64, 64
3, 1920, Note_on_c, 0, 50, 80
3, 1920, Note_on_c, 0, 57, 80
3, 1920, Note_on_c, 0, 62, 80
3, 1920, Note_on_c, 0, 65, 80
3, 1930, Note_on_c, 0, 65, 0
3, 1930, Note_on_c, 0, 50, 0
3, 1930, Note_on_c, 0, 57, 0
3, 1930, Note_on_c, 0, 62, 0
3, 2040, Note_on_c, 0, 57, 80
3, 2040, Note_on_c, 0, 62, 80
3, 2040, Note_on_c, 0, 65, 80
3, 2050, Note_on_c, 0, 65, 0
3, 2050, Note_on_c, 0, 62, 0
3, 2050, Note_on_c, 0, 57, 0
3, 2070, Control_c, 0, 64, 0
3, 2159, Control_c, 0, 64, 64
3, 2160, Note_on_c, 0, 50, 80
3, 2160, Note_on_c, 0, 57, 80
3, 2160, Note_on_c, 0, 62, 80
3, 2160, Note_on_c, 0, 65, 80
3, 2170, Note_on_c, 0, 65, 0
3, 2170, Note_on_c, 0, 50, 0
3, 2170, Note_on_c, 0, 57, 0
3, 2170, Note_on_c, 0, 62, 0
3, 2280, Note_on_c, 0, 57, 80
3, 2280, Note_on_c, 0, 62, 80
3, 2280, Note_on_c, 0, 65, 80
3, 2290, Note_on_c, 0, 65, 0
3, 2290, Note_on_c, 0, 62, 0
3, 2290, Note_on_c, 0, 57, 0
3, 2310, Control_c, 0, 64, 0
3, 2399, Control_c, 0, 64, 64
3, 2400, Note_on_c, 0, 52, 80
3, 2400, Note_on_c, 0, 55, 80
3, 2400, Note_on_c, 0, 60, 80
3, 2400, Note_on_c, 0, 64, 80
3, 2410, Note_on_c, 0, 64, 0
3, 2410, Note_on_c, 0, 52, 0
3, 2410, Note_on_c, 0, 55, 0
3, 2410, Note_on_c, 0, 60, 0
3, 2520, Note_on_c, 0, 55, 80
3, 2520, Note_on_c, 0, 60, 80
3, 2520, Note_on_c, 0, 64, 80
3, 2530, Note_on_c, 0, 64, 0
3, 2530, Note_on_c, 0, 60, 0
3, 2530, Note_on_c, 0, 55, 0
3, 2550, Control_c, 0, 64, 0
3, 2639, Control_c, 0, 64, 64
3, 2640, Note_on_c, 0, 52, 80
3, 2640, Note_on_c, 0, 56, 80
3, 2640, Note_on_c, 0, 62, 80
3, 2640, Note_on_c, 0, 64, 80
3, 2650, Note_on_c, 0, 64, 0
3, 2650, Note_on_c, 0, 52, 0
3, 2650, Note_on_c, 0, 56, 0
3, 2650, Note_on_c, 0, 62, 0
3, 2760, Note_on_c, 0, 56, 80
3, 2760, Note_on_c, 0, 62, 80
3, 2760, Note_on_c, 0, 64, 80
3, 2770, Note_on_c, 0, 64, 0
3, 2770, Note_on_c, 0, 62, 0
3, 2770, Note_on_c, 0, 56, 0
3, 2790, Control_c, 0, 64, 0
3, 2879, Control_c, 0, 64, 64
3, 2880, Note_on_c, 0, 64, 80
3, 2880, Note_on_c, 0, 60, 80
3, 2880, Note_on_c, 0, 57, 80
3, 2880, Note_on_c, 0, 52, 80
3, 2880, Note_on_c, 0, 45, 80
3, 2890, Note_on_c, 0, 45, 0
3, 2890, Note_on_c, 0, 57, 0
3, 2890, Note_on_c, 0, 64, 0
3, 2890, Note_on_c, 0, 60, 0
3, 2890, Note_on_c, 0, 52, 0
3, 3000, Note_on_c, 0, 57, 80
3, 3000, Note_on_c, 0, 60, 80
3, 3000, Note_on_c, 0, 64, 80
3, 3010, Note_on_c, 0, 64, 0
3, 3010, Note_on_c, 0, 60, 0
3, 3010, Note_on_c, 0, 57, 0
3, 3030, Control_c, 0, 64, 0
3, 3119, Control_c, 0, 64, 64
3, 3120, Note_on_c, 0, 47, 80
3, 3120, Note_on_c, 0, 52, 80
3, 3120, Note_on_c, 0, 56, 80
3, 3120, Note_on_c, 0, 62, 80
3, 3120, Note_on_c, 0, 64, 80
3, 3130, Note_on_c, 0, 64, 0
3, 3130, Note_on_c, 0, 56, 0
3, 3130, Note_on_c, 0, 47, 0
3, 3130, Note_on_c, 0, 52, 0
3, 3130, Note_on_c, 0, 62, 0
3, 3240, Note_on_c, 0, 56, 80
3, 3240, Note_on_c, 0, 62, 80
3, 3240, Note_on_c, 0, 64, 80
3, 3250, Note_on_c, 0, 64, 0
3, 3250, Note_on_c, 0, 62, 0
3, 3250, Note_on_c, 0, 56, 0
3, 3270, Control_c, 0, 64, 0
3, 3359, Control_c, 0, 64, 64
3, 3360, Note_on_c, 0, 64, 80
3, 3360, Note_on_c, 0, 60, 80
3, 3360, Note_on_c, 0, 57, 80
3, 3360, Note_on_c, 0, 52, 80
3, 3360, Note_on_c, 0, 45, 80
3, 3370, Note_on_c, 0, 45, 0
3, 3370, Note_on_c, 0, 57, 0
3, 3370, Note_on_c, 0, 64, 0
3, 3370, Note_on_c, 0, 60, 0
3, 3370, Note_on_c, 0, 52, 0
3, 3480, Note_on_c, 0, 57, 80
3, 3480, Note_on_c, 0, 60, 80
3, 3480, Note_on_c, 0, 64, 80
3, 3490, Note_on_c, 0, 64, 0
3, 3490, Note_on_c, 0, 60, 0
3, 3490, Note_on_c, 0, 57, 0
3, 3510, Control_c, 0, 64, 0
3, 3599, Control_c, 0, 64, 64
3, 3600, Note_on_c, 0, 67, 80
3, 3600, Note_on_c, 0, 60, 80
3, 3600, Note_on_c, 0, 57, 80
3, 3600, Note_on_c, 0, 52, 80
3, 3600, Note_on_c, 0, 45, 80
3, 3610, Note_on_c, 0, 45, 0
3, 3610, Note_on_c, 0, 57, 0
3, 3610, Note_on_c, 0, 67, 0
3, 3610, Note_on_c, 0, 60, 0
3, 3610, Note_on_c, 0, 52, 0
3, 3720, Note_on_c, 0, 57, 80
3, 3720, Note_on_c, 0, 60, 80
3, 3720, Note_on_c, 0, 67, 80
3, 3730, Note_on_c, 0, 67, 0
3, 3730, Note_on_c, 0, 60, 0
3, 3730, Note_on_c, 0, 57, 0
3, 3750, Control_c, 0, 64, 0
3, 3839, Control_c, 0, 64, 64
3, 3840, Note_on_c, 0, 50, 80
3, 3840, Note_on_c, 0, 57, 80
3, 3840, Note_on_c, 0, 62, 80
3, 3840, Note_on_c, 0, 65, 80
3, 3850, Note_on_c, 0, 65, 0
3, 3850, Note_on_c, 0, 50, 0
3, 3850, Note_on_c, 0, 57, 0
3, 3850, Note_on_c, 0, 62, 0
3, 3960, Note_on_c, 0, 57, 80
3, 3960, Note_on_c, 0, 62, 80
3, 3960, Note_on_c, 0, 65, 80
3, 3970, Note_on_c, 0, 65, 0
3, 3970, Note_on_c, 0, 62, 0
3, 3970, Note_on_c, 0, 57, 0
3, 3990, Control_c, 0, 64, 0
3, 4079, Control_c, 0, 64, 64
3, 4080, Note_on_c, 0, 50, 80
3, 4080, Note_on_c, 0, 57, 80
3, 4080, Note_on_c, 0, 62, 80
3, 4080, Note_on_c, 0, 65, 80
3, 4090, Note_on_c, 0, 65, 0
3, 4090, Note_on_c, 0, 50, 0
3, 4090, Note_on_c, 0, 57, 0
3, 4090, Note_on_c, 0, 62, 0
3, 4200, Note_on_c, 0, 57, 80
3, 4200, Note_on_c, 0, 62, 80
3, 4200, Note_on_c, 0, 65, 80
3, 4210, Note_on_c, 0, 65, 0
3, 4210, Note_on_c, 0, 62, 0
3, 4210, Note_on_c, 0, 57, 0
3, 4230, Control_c, 0, 64, 0
3, 4319, Control_c, 0, 64, 64
3, 4320, Note_on_c, 0, 52, 80
3, 4320, Note_on_c, 0, 57, 80
3, 4320, Note_on_c, 0, 60, 80
3, 4320, Note_on_c, 0, 64, 80
3, 4330, Note_on_c, 0, 64, 0
3, 4330, Note_on_c, 0, 52, 0
3, 4330, Note_on_c, 0, 57, 0
3, 4330, Note_on_c, 0, 60, 0
3, 4440, Note_on_c, 0, 57, 80
3, 4440, Note_on_c, 0, 60, 80
3, 4440, Note_on_c, 0, 64, 80
3, 4450, Note_on_c, 0, 64, 0
3, 4450, Note_on_c, 0, 60, 0
3, 4450, Note_on_c, 0, 57, 0
3, 4470, Control_c, 0, 64, 0
3, 4559, Control_c, 0, 64, 64
3, 4560, Note_on_c, 0, 52, 80
3, 4560, Note_on_c, 0, 57, 80
3, 4560, Note_on_c, 0, 60, 80
3, 4560, Note_on_c, 0, 64, 80
3, 4570, Note_on_c, 0, 64, 0
3, 4570, Note_on_c, 0, 52, 0
3, 4570, Note_on_c, 0, 57, 0
3, 4570, Note_on_c, 0, 60, 0
3, 4680, Note_on_c, 0, 57, 80
3, 4680, Note_on_c, 0, 60, 80
3, 4680, Note_on_c, 0, 64, 80
3, 4690, Note_on_c, 0, 64, 0
3, 4690, Note_on_c, 0, 60, 0
3, 4690, Note_on_c, 0, 57, 0
3, 4798, Control_c, 0, 64, 0
3, 4799, Control_c, 0, 64, 64
3, 4800, Note_on_c, 0, 52, 80
3, 4800, Note_on_c, 0, 55, 80
3, 4800, Note_on_c, 0, 60, 80
3, 4800, Note_on_c, 0, 64, 80
3, 4810, Note_on_c, 0, 64, 0
3, 4810, Note_on_c, 0, 52, 0
3, 4810, Note_on_c, 0, 55, 0
3, 4810, Note_on_c, 0, 60, 0
3, 4920, Note_on_c, 0, 55, 80
3, 4920, Note_on_c, 0, 60, 80
3, 4920, Note_on_c, 0, 64, 80
3, 4930, Note_on_c, 0, 64, 0
3, 4930, Note_on_c, 0, 60, 0
3, 4930, Note_on_c, 0, 55, 0
3, 4950, Control_c, 0, 64, 0
3, 5039, Control_c, 0, 64, 64
3, 5040, Note_on_c, 0, 52, 80
3, 5040, Note_on_c, 0, 55, 80
3, 5040, Note_on_c, 0, 59, 80
3, 5040, Note_on_c, 0, 64, 80
3, 5050, Note_on_c, 0, 64, 0
3, 5050, Note_on_c, 0, 52, 0
3, 5050, Note_on_c, 0, 55, 0
3, 5050, Note_on_c, 0, 59, 0
3, 5160, Note_on_c, 0, 55, 80
3, 5160, Note_on_c, 0, 59, 80
3, 5160, Note_on_c, 0, 64, 80
3, 5170, Note_on_c, 0, 64, 0
3, 5170, Note_on_c, 0, 59, 0
3, 5170, Note_on_c, 0, 55, 0
3, 5190, Control_c, 0, 64, 0
3, 5279, Control_c, 0, 64, 64
3, 5280, Note_on_c, 0, 50, 80
3, 5280, Note_on_c, 0, 57, 80
3, 5280, Note_on_c, 0, 62, 80
3, 5280, Note_on_c, 0, 65, 80
3, 5290, Note_on_c, 0, 65, 0
3, 5290, Note_on_c, 0, 50, 0
3, 5290, Note_on_c, 0, 57, 0
3, 5290, Note_on_c, 0, 62, 0
3, 5400, Note_on_c, 0, 57, 80
3, 5400, Note_on_c, 0, 62, 80
3, 5400, Note_on_c, 0, 65, 80
3, 5410, Note_on_c, 0, 65, 0
3, 5410, Note_on_c, 0, 62, 0
3, 5410, Note_on_c, 0, 57, 0
3, 5430, Control_c, 0, 64, 0
3, 5519, Control_c, 0, 64, 64
3, 5520, Note_on_c, 0, 50, 80
3, 5520, Note_on_c, 0, 55, 80
3, 5520, Note_on_c, 0, 59, 80
3, 5520, Note_on_c, 0, 65, 80
3, 5530, Note_on_c, 0, 65, 0
3, 5530, Note_on_c, 0, 50, 0
3, 5530, Note_on_c, 0, 55, 0
3, 5530, Note_on_c, 0, 59, 0
3, 5640, Note_on_c, 0, 55, 80
3, 5640, Note_on_c, 0, 59, 80
3, 5640, Note_on_c, 0, 65, 80
3, 5650, Note_on_c, 0, 65, 0
3, 5650, Note_on_c, 0, 59, 0
3, 5650, Note_on_c, 0, 55, 0
3, 5670, Control_c, 0, 64, 0
3, 5759, Control_c, 0, 64, 64
3, 5760, Note_on_c, 0, 52, 80
3, 5760, Note_on_c, 0, 55, 80
3, 5760, Note_on_c, 0, 60, 80
3, 5760, Note_on_c, 0, 64, 80
3, 5770, Note_on_c, 0, 64, 0
3, 5770, Note_on_c, 0, 52, 0
3, 5770, Note_on_c, 0, 55, 0
3, 5770, Note_on_c, 0, 60, 0
3, 5880, Note_on_c, 0, 55, 80
3, 5880, Note_on_c, 0, 60, 80
3, 5880, Note_on_c, 0, 64, 80
3, 5890, Note_on_c, 0, 64, 0
3, 5890, Note_on_c, 0, 60, 0
3, 5890, Note_on_c, 0, 55, 0
3, 5910, Control_c, 0, 64, 0
3, 5999, Control_c, 0, 64, 64
3, 6000, Note_on_c, 0, 52, 80
3, 6000, Note_on_c, 0, 55, 80
3, 6000, Note_on_c, 0, 59, 80
3, 6000, Note_on_c, 0, 64, 80
3, 6010, Note_on_c, 0, 64, 0
3, 6010, Note_on_c, 0, 52, 0
3, 6010, Note_on_c, 0, 55, 0
3, 6010, Note_on_c, 0, 59, 0
3, 6120, Note_on_c, 0, 55, 80
3, 6120, Note_on_c, 0, 59, 80
3, 6120, Note_on_c, 0, 64, 80
3, 6130, Note_on_c, 0, 64, 0
3, 6130, Note_on_c, 0, 59, 0
3, 6130, Note_on_c, 0, 55, 0
3, 6150, Control_c, 0, 64, 0
3, 6239, Control_c, 0, 64, 64
3, 6240, Note_on_c, 0, 50, 80
3, 6240, Note_on_c, 0, 57, 80
3, 6240, Note_on_c, 0, 62, 80
3, 6240, Note_on_c, 0, 65, 80
3, 6250, Note_on_c, 0, 65, 0
3, 6250, Note_on_c, 0, 50, 0
3, 6250, Note_on_c, 0, 57, 0
3, 6250, Note_on_c, 0, 62, 0
3, 6360, Note_on_c, 0, 57, 80
3, 6360, Note_on_c, 0, 62, 80
3, 6360, Note_on_c, 0, 65, 80
3, 6370, Note_on_c, 0, 65, 0
3, 6370, Note_on_c, 0, 62, 0
3, 6370, Note_on_c, 0, 57, 0
3, 6390, Control_c, 0, 64, 0
3, 6479, Control_c, 0, 64, 64
3, 6480, Note_on_c, 0, 50, 80
3, 6480, Note_on_c, 0, 55, 80
3, 6480, Note_on_c, 0, 59, 80
3, 6480, Note_on_c, 0, 65, 80
3, 6490, Note_on_c, 0, 65, 0
3, 6490, Note_on_c, 0, 50, 0
3, 6490, Note_on_c, 0, 55, 0
3, 6490, Note_on_c, 0, 59, 0
3, 6600, Note_on_c, 0, 55, 80
3, 6600, Note_on_c, 0, 59, 80
3, 6600, Note_on_c, 0, 65, 80
3, 6610, Note_on_c, 0, 65, 0
3, 6610, Note_on_c, 0, 59, 0
3, 6610, Note_on_c, 0, 55, 0
3, 6630, Control_c, 0, 64, 0
3, 6719, Control_c, 0, 64, 64
3, 6720, Note_on_c, 0, 64, 80
3, 6720, Note_on_c, 0, 60, 80
3, 6720, Note_on_c, 0, 57, 80
3, 6720, Note_on_c, 0, 52, 80
3, 6720, Note_on_c, 0, 45, 80
3, 6730, Note_on_c, 0, 45, 0
3, 6730, Note_on_c, 0, 57, 0
3, 6730, Note_on_c, 0, 64, 0
3, 6730, Note_on_c, 0, 60, 0
3, 6730, Note_on_c, 0, 52, 0
3, 6840, Note_on_c, 0, 57, 80
3, 6840, Note_on_c, 0, 60, 80
3, 6840, Note_on_c, 0, 64, 80
3, 6850, Note_on_c, 0, 64, 0
3, 6850, Note_on_c, 0, 60, 0
3, 6850, Note_on_c, 0, 57, 0
3, 6870, Control_c, 0, 64, 0
3, 6959, Control_c, 0, 64, 64
3, 6960, Note_on_c, 0, 47, 80
3, 6960, Note_on_c, 0, 52, 80
3, 6960, Note_on_c, 0, 56, 80
3, 6960, Note_on_c, 0, 62, 80
3, 6960, Note_on_c, 0, 64, 80
3, 6970, Note_on_c, 0, 64, 0
3, 6970, Note_on_c, 0, 56, 0
3, 6970, Note_on_c, 0, 47, 0
3, 6970, Note_on_c, 0, 52, 0
3, 6970, Note_on_c, 0, 62, 0
3, 7080, Note_on_c, 0, 56, 80
3, 7080, Note_on_c, 0, 62, 80
3, 7080, Note_on_c, 0, 64, 80
3, 7090, Note_on_c, 0, 64, 0
3, 7090, Note_on_c, 0, 62, 0
3, 7090, Note_on_c, 0, 56, 0
3, 7110, Control_c, 0, 64, 0
3, 7199, Control_c, 0, 64, 64
3, 7200, Note_on_c, 0, 64, 80
3, 7200, Note_on_c, 0, 60, 80
3, 7200, Note_on_c, 0, 57, 80
3, 7200, Note_on_c, 0, 52, 80
3, 7200, Note_on_c, 0, 45, 80
3, 7210, Note_on_c, 0, 45, 0
3, 7210, Note_on_c, 0, 57, 0
3, 7210, Note_on_c, 0, 64, 0
3, 7210, Note_on_c, 0, 60, 0
3, 7210, Note_on_c, 0, 52, 0
3, 7320, Note_on_c, 0, 57, 80
3, 7320, Note_on_c, 0, 60, 80
3, 7320, Note_on_c, 0, 64, 80
3, 7330, Note_on_c, 0, 64, 0
3, 7330, Note_on_c, 0, 60, 0
3, 7330, Note_on_c, 0, 57, 0
3, 7350, Control_c, 0, 64, 0
3, 7439, Control_c, 0, 64, 64
3, 7440, Note_on_c, 0, 67, 80
3, 7440, Note_on_c, 0, 60, 80
3, 7440, Note_on_c, 0, 57, 80
3, 7440, Note_on_c, 0, 52, 80
3, 7440, Note_on_c, 0, 45, 80
3, 7450, Note_on_c, 0, 45, 0
3, 7450, Note_on_c, 0, 57, 0
3, 7450, Note_on_c, 0, 67, 0
3, 7450, Note_on_c, 0, 60, 0
3, 7450, Note_on_c, 0, 52, 0
3, 7560, Note_on_c, 0, 57, 80
3, 7560, Note_on_c, 0, 60, 80
3, 7560, Note_on_c, 0, 67, 80
3, 7570, Note_on_c, 0, 67, 0
3, 7570, Note_on_c, 0, 60, 0
3, 7570, Note_on_c, 0, 57, 0
3, 7590, Control_c, 0, 64, 0
3, 7679, Control_c, 0, 64, 64
3, 7680, Note_on_c, 0, 50, 80
3, 7680, Note_on_c, 0, 57, 80
3, 7680, Note_on_c, 0, 62, 80
3, 7680, Note_on_c, 0, 65, 80
3, 7690, Note_on_c, 0, 65, 0
3, 7690, Note_on_c, 0, 50, 0
3, 7690, Note_on_c, 0, 57, 0
3, 7690, Note_on_c, 0, 62, 0
3, 7800, Note_on_c, 0, 57, 80
3, 7800, Note_on_c, 0, 62, 80
3, 7800, Note_on_c, 0, 65, 80
3, 7810, Note_on_c, 0, 65, 0
3, 7810, Note_on_c, 0, 62, 0
3, 7810, Note_on_c, 0, 57, 0
3, 7830, Control_c, 0, 64, 0
3, 7919, Control_c, 0, 64, 64
3, 7920, Note_on_c, 0, 50, 80
3, 7920, Note_on_c, 0, 57, 80
3, 7920, Note_on_c, 0, 62, 80
3, 7920, Note_on_c, 0, 65, 80
3, 7930, Note_on_c, 0, 65, 0
3, 7930, Note_on_c, 0, 50, 0
3, 7930, Note_on_c, 0, 57, 0
3, 7930, Note_on_c, 0, 62, 0
3, 8040, Note_on_c, 0, 57, 80
3, 8040, Note_on_c, 0, 62, 80
3, 8040, Note_on_c, 0, 65, 80
3, 8050, Note_on_c, 0, 65, 0
3, 8050, Note_on_c, 0, 62, 0
3, 8050, Note_on_c, 0, 57, 0
3, 8070, Control_c, 0, 64, 0
3, 8159, Control_c, 0, 64, 64
3, 8160, Note_on_c, 0, 52, 80
3, 8160, Note_on_c, 0, 55, 80
3, 8160, Note_on_c, 0, 60, 80
3, 8160, Note_on_c, 0, 64, 80
3, 8170, Note_on_c, 0, 64, 0
3, 8170, Note_on_c, 0, 52, 0
3, 8170, Note_on_c, 0, 55, 0
3, 8170, Note_on_c, 0, 60, 0
3, 8280, Note_on_c, 0, 55, 80
3, 8280, Note_on_c, 0, 60, 80
3, 8280, Note_on_c, 0, 64, 80
3, 8290, Note_on_c, 0, 64, 0
3, 8290, Note_on_c, 0, 60, 0
3, 8290, Note_on_c, 0, 55, 0
3, 8310, Control_c, 0, 64, 0
3, 8399, Control_c, 0, 64, 64
3, 8400, Note_on_c, 0, 52, 80
3, 8400, Note_on_c, 0, 56, 80
3, 8400, Note_on_c, 0, 62, 80
3, 8400, Note_on_c, 0, 64, 80
3, 8410, Note_on_c, 0, 64, 0
3, 8410, Note_on_c, 0, 52, 0
3, 8410, Note_on_c, 0, 56, 0
3, 8410, Note_on_c, 0, 62, 0
3, 8520, Note_on_c, 0, 56, 80
3, 8520, Note_on_c, 0, 62, 80
3, 8520, Note_on_c, 0, 64, 80
3, 8530, Note_on_c, 0, 64, 0
3, 8530, Note_on_c, 0, 62, 0
3, 8530, Note_on_c, 0, 56, 0
3, 8550, Control_c, 0, 64, 0
3, 8639, Control_c, 0, 64, 64
3, 8640, Note_on_c, 0, 64, 80
3, 8640, Note_on_c, 0, 60, 80
3, 8640, Note_on_c, 0, 57, 80
3, 8640, Note_on_c, 0, 52, 80
3, 8640, Note_on_c, 0, 45, 80
3, 8650, Note_on_c, 0, 45, 0
3, 8650, Note_on_c, 0, 57, 0
3, 8650, Note_on_c, 0, 64, 0
3, 8650, Note_on_c, 0, 60, 0
3, 8650, Note_on_c, 0, 52, 0
3, 8760, Note_on_c, 0, 57, 80
3, 8760, Note_on_c, 0, 60, 80
3, 8760, Note_on_c, 0, 64, 80
3, 8770, Note_on_c, 0, 64, 0
3, 8770, Note_on_c, 0, 60, 0
3, 8770, Note_on_c, 0, 57, 0
3, 8790, Control_c, 0, 64, 0
3, 8879, Control_c, 0, 64, 64
3, 8880, Note_on_c, 0, 47, 80
3, 8880, Note_on_c, 0, 52, 80
3, 8880, Note_on_c, 0, 56, 80
3, 8880, Note_on_c, 0, 62, 80
3, 8880, Note_on_c, 0, 64, 80
3, 8890, Note_on_c, 0, 64, 0
3, 8890, Note_on_c, 0, 56, 0
3, 8890, Note_on_c, 0, 47, 0
3, 8890, Note_on_c, 0, 52, 0
3, 8890, Note_on_c, 0, 62, 0
3, 9000, Note_on_c, 0, 56, 80
3, 9000, Note_on_c, 0, 62, 80
3, 9000, Note_on_c, 0, 64, 80
3, 9010, Note_on_c, 0, 64, 0
3, 9010, Note_on_c, 0, 62, 0
3, 9010, Note_on_c, 0, 56, 0
3, 9030, Control_c, 0, 64, 0
3, 9119, Control_c, 0, 64, 64
3, 9120, Note_on_c, 0, 64, 80
3, 9120, Note_on_c, 0, 60, 80
3, 9120, Note_on_c, 0, 57, 80
3, 9120, Note_on_c, 0, 52, 80
3, 9120, Note_on_c, 0, 45, 80
3, 9130, Note_on_c, 0, 45, 0
3, 9130, Note_on_c, 0, 57, 0
3, 9130, Note_on_c, 0, 64, 0
3, 9130, Note_on_c, 0, 60, 0
3, 9130, Note_on_c, 0, 52, 0
3, 9240, Note_on_c, 0, 57, 80
3, 9240, Note_on_c, 0, 60, 80
3, 9240, Note_on_c, 0, 64, 80
3, 9250, Note_on_c, 0, 64, 0
3, 9250, Note_on_c, 0, 60, 0
3, 9250, Note_on_c, 0, 57, 0
3, 9270, Control_c, 0, 64, 0
3, 9359, Control_c, 0, 64, 64
3, 9360, Note_on_c, 0, 67, 80
3, 9360, Note_on_c, 0, 60, 80
3, 9360, Note_on_c, 0, 57, 80
3, 9360, Note_on_c, 0, 52, 80
3, 9360, Note_on_c, 0, 45, 80
3, 9370, Note_on_c, 0, 45, 0
3, 9370, Note_on_c, 0, 57, 0
3, 9370, Note_on_c, 0, 67, 0
3, 9370, Note_on_c, 0, 60, 0
3, 9370, Note_on_c, 0, 52, 0
3, 9480, Note_on_c, 0, 57, 80
3, 9480, Note_on_c, 0, 60, 80
3, 9480, Note_on_c, 0, 67, 80
3, 9490, Note_on_c, 0, 67, 0
3, 9490, Note_on_c, 0, 60, 0
3, 9490, Note_on_c, 0, 57, 0
3, 9510, Control_c, 0, 64, 0
3, 9599, Control_c, 0, 64, 64
3, 9600, Note_on_c, 0, 50, 80
3, 9600, Note_on_c, 0, 57, 80
3, 9600, Note_on_c, 0, 62, 80
3, 9600, Note_on_c, 0, 65, 80
3, 9610, Note_on_c, 0, 65, 0
3, 9610, Note_on_c, 0, 50, 0
3, 9610, Note_on_c, 0, 57, 0
3, 9610, Note_on_c, 0, 62, 0
3, 9720, Note_on_c, 0, 57, 80
3, 9720, Note_on_c, 0, 62, 80
3, 9720, Note_on_c, 0, 65, 80
3, 9730, Note_on_c, 0, 65, 0
3, 9730, Note_on_c, 0, 62, 0
3, 9730, Note_on_c, 0, 57, 0
3, 9750, Control_c, 0, 64, 0
3, 9839, Control_c, 0, 64, 64
3, 9840, Note_on_c, 0, 50, 80
3, 9840, Note_on_c, 0, 57, 80
3, 9840, Note_on_c, 0, 62, 80
3, 9840, Note_on_c, 0, 65, 80
3, 9850, Note_on_c, 0, 65, 0
3, 9850, Note_on_c, 0, 50, 0
3, 9850, Note_on_c, 0, 57, 0
3, 9850, Note_on_c, 0, 62, 0
3, 9960, Note_on_c, 0, 57, 80
3, 9960, Note_on_c, 0, 62, 80
3, 9960, Note_on_c, 0, 65, 80
3, 9970, Note_on_c, 0, 65, 0
3, 9970, Note_on_c, 0, 62, 0
3, 9970, Note_on_c, 0, 57, 0
3, 9990, Control_c, 0, 64, 0
3, 10079, Control_c, 0, 64, 64
3, 10080, Note_on_c, 0, 52, 80
3, 10080, Note_on_c, 0, 57, 80
3, 10080, Note_on_c, 0, 60, 80
3, 10080, Note_on_c, 0, 64, 80
3, 10090, Note_on_c, 0, 64, 0
3, 10090, Note_on_c, 0, 52, 0
3, 10090, Note_on_c, 0, 57, 0
3, 10090, Note_on_c, 0, 60, 0
3, 10200, Note_on_c, 0, 57, 80
3, 10200, Note_on_c, 0, 60, 80
3, 10200, Note_on_c, 0, 64, 80
3, 10210, Note_on_c, 0, 64, 0
3, 10210, Note_on_c, 0, 60, 0
3, 10210, Note_on_c, 0, 57, 0
3, 10230, Control_c, 0, 64, 0
3, 10319, Control_c, 0, 64, 64
3, 10320, Note_on_c, 0, 52, 80
3, 10320, Note_on_c, 0, 57, 80
3, 10320, Note_on_c, 0, 60, 80
3, 10320, Note_on_c, 0, 64, 80
3, 10330, Note_on_c, 0, 64, 0
3, 10330, Note_on_c, 0, 52, 0
3, 10330, Note_on_c, 0, 57, 0
3, 10330, Note_on_c, 0, 60, 0
3, 10440, Note_on_c, 0, 57, 80
3, 10440, Note_on_c, 0, 60, 80
3, 10440, Note_on_c, 0, 64, 80
3, 10450, Note_on_c, 0, 64, 0
3, 10450, Note_on_c, 0, 60, 0
3, 10450, Note_on_c, 0, 57, 0
3, 10558, Control_c, 0, 64, 0
3, 10559, Control_c, 0, 64, 64
3, 10560, Note_on_c, 0, 52, 80
3, 10560, Note_on_c, 0, 55, 80
3, 10560, Note_on_c, 0, 60, 80
3, 10560, Note_on_c, 0, 64, 80
3, 10570, Note_on_c, 0, 64, 0
3, 10570, Note_on_c, 0, 52, 0
3, 10570, Note_on_c, 0, 55, 0
3, 10570, Note_on_c, 0, 60, 0
3, 10680, Note_on_c, 0, 55, 80
3, 10680, Note_on_c, 0, 60, 80
3, 10680, Note_on_c, 0, 64, 80
3, 10690, Note_on_c, 0, 64, 0
3, 10690, Note_on_c, 0, 60, 0
3, 10690, Note_on_c, 0, 55, 0
3, 10710, Control_c, 0, 64, 0
3, 10799, Control_c, 0, 64, 64
3, 10800, Note_on_c, 0, 52, 80
3, 10800, Note_on_c, 0, 55, 80
3, 10800, Note_on_c, 0, 59, 80
3, 10800, Note_on_c, 0, 64, 80
3, 10810, Note_on_c, 0, 64, 0
3, 10810, Note_on_c, 0, 52, 0
3, 10810, Note_on_c, 0, 55, 0
3, 10810, Note_on_c, 0, 59, 0
3, 10920, Note_on_c, 0, 55, 80
3, 10920, Note_on_c, 0, 59, 80
3, 10920, Note_on_c, 0, 64, 80
3, 10930, Note_on_c, 0, 64, 0
3, 10930, Note_on_c, 0, 59, 0
3, 10930, Note_on_c, 0, 55, 0
3, 10950, Control_c, 0, 64, 0
3, 11039, Control_c, 0, 64, 64
3, 11040, Note_on_c, 0, 50, 80
3, 11040, Note_on_c, 0, 57, 80
3, 11040, Note_on_c, 0, 62, 80
3, 11040, Note_on_c, 0, 65, 80
3, 11050, Note_on_c, 0, 65, 0
3, 11050, Note_on_c, 0, 50, 0
3, 11050, Note_on_c, 0, 57, 0
3, 11050, Note_on_c, 0, 62, 0
3, 11160, Note_on_c, 0, 57, 80
3, 11160, Note_on_c, 0, 62, 80
3, 11160, Note_on_c, 0, 65, 80
3, 11170, Note_on_c, 0, 65, 0
3, 11170, Note_on_c, 0, 62, 0
3, 11170, Note_on_c, 0, 57, 0
3, 11190, Control_c, 0, 64, 0
3, 11279, Control_c, 0, 64, 64
3, 11280, Note_on_c, 0, 50, 80
3, 11280, Note_on_c, 0, 55, 80
3, 11280, Note_on_c, 0, 59, 80
3, 11280, Note_on_c, 0, 65, 80
3, 11290, Note_on_c, 0, 65, 0
3, 11290, Note_on_c, 0, 50, 0
3, 11290, Note_on_c, 0, 55, 0
3, 11290, Note_on_c, 0, 59, 0
3, 11400, Note_on_c, 0, 55, 80
3, 11400, Note_on_c, 0, 59, 80
3, 11400, Note_on_c, 0, 65, 80
3, 11410, Note_on_c, 0, 65, 0
3, 11410, Note_on_c, 0, 59, 0
3, 11410, Note_on_c, 0, 55, 0
3, 11430, Control_c, 0, 64, 0
3, 11519, Control_c, 0, 64, 64
3, 11520, Note_on_c, 0, 52, 80
3, 11520, Note_on_c, 0, 55, 80
3, 11520, Note_on_c, 0, 60, 80
3, 11520, Note_on_c, 0, 64, 80
3, 11530, Note_on_c, 0, 64, 0
3, 11530, Note_on_c, 0, 52, 0
3, 11530, Note_on_c, 0, 55, 0
3, 11530, Note_on_c, 0, 60, 0
3, 11640, Note_on_c, 0, 55, 80
3, 11640, Note_on_c, 0, 60, 80
3, 11640, Note_on_c, 0, 64, 80
3, 11650, Note_on_c, 0, 64, 0
3, 11650, Note_on_c, 0, 60, 0
3, 11650, Note_on_c, 0, 55, 0
3, 11670, Control_c, 0, 64, 0
3, 11759, Control_c, 0, 64, 64
3, 11760, Note_on_c, 0, 52, 80
3, 11760, Note_on_c, 0, 55, 80
3, 11760, Note_on_c, 0, 59, 80
3, 11760, Note_on_c, 0, 64, 80
3, 11770, Note_on_c, 0, 64, 0
3, 11770, Note_on_c, 0, 52, 0
3, 11770, Note_on_c, 0, 55, 0
3, 11770, Note_on_c, 0, 59, 0
3, 11880, Note_on_c, 0, 55, 80
3, 11880, Note_on_c, 0, 59, 80
3, 11880, Note_on_c, 0, 64, 80
3, 11890, Note_on_c, 0, 64, 0
3, 11890, Note_on_c, 0, 59, 0
3, 11890, Note_on_c, 0, 55, 0
3, 11910, Control_c, 0, 64, 0
3, 11999, Control_c, 0, 64, 64
3, 12000, Note_on_c, 0, 50, 80
3, 12000, Note_on_c, 0, 57, 80
3, 12000, Note_on_c, 0, 62, 80
3, 12000, Note_on_c, 0, 65, 80
3, 12010, Note_on_c, 0, 65, 0
3, 12010, Note_on_c, 0, 50, 0
3, 12010, Note_on_c, 0, 57, 0
3, 12010, Note_on_c, 0, 62, 0
3, 12120, Note_on_c, 0, 57, 80
3, 12120, Note_on_c, 0, 62, 80
3, 12120, Note_on_c, 0, 65, 80
3, 12130, Note_on_c, 0, 65, 0
3, 12130, Note_on_c, 0, 62, 0
3, 12130, Note_on_c, 0, 57, 0
3, 12150, Control_c, 0, 64, 0
3, 12239, Control_c, 0, 64, 64
3, 12240, Note_on_c, 0, 50, 80
3, 12240, Note_on_c, 0, 55, 80
3, 12240, Note_on_c, 0, 59, 80
3, 12240, Note_on_c, 0, 65, 80
3, 12250, Note_on_c, 0, 65, 0
3, 12250, Note_on_c, 0, 50, 0
3, 12250, Note_on_c, 0, 55, 0
3, 12250, Note_on_c, 0, 59, 0
3, 12360, Note_on_c, 0, 55, 80
3, 12360, Note_on_c, 0, 59, 80
3, 12360, Note_on_c, 0, 65, 80
3, 12370, Note_on_c, 0, 65, 0
3, 12370, Note_on_c, 0, 59, 0
3, 12370, Note_on_c, 0, 55, 0
3, 12390, Control_c, 0, 64, 0
3, 12479, Control_c, 0, 64, 64
3, 12480, Note_on_c, 0, 57, 80
3, 12480, Note_on_c, 0, 62, 80
3, 12480, Note_on_c, 0, 65, 80
3, 12490, Note_on_c, 0, 65, 0
3, 12490, Note_on_c, 0, 62, 0
3, 12490, Note_on_c, 0, 57, 0
3, 12598, Control_c, 0, 64, 0
3, 12599, Control_c, 0, 64, 64
3, 12600, Note_on_c, 0, 65, 80
3, 12600, Note_on_c, 0, 62, 80
3, 12600, Note_on_c, 0, 57, 80
3, 12610, Note_on_c, 0, 57, 0
3, 12610, Note_on_c, 0, 62, 0
3, 12610, Note_on_c, 0, 65, 0
3, 12718, Control_c, 0, 64, 0
3, 12719, Control_c, 0, 64, 64
3, 12720, Note_on_c, 0, 57, 80
3, 12720, Note_on_c, 0, 62, 80
3, 12720, Note_on_c, 0, 65, 80
3, 12730, Note_on_c, 0, 65, 0
3, 12730, Note_on_c, 0, 62, 0
3, 12730, Note_on_c, 0, 57, 0
3, 12838, Control_c, 0, 64, 0
3, 12839, Control_c, 0, 64, 64
3, 12840, Note_on_c, 0, 57, 80
3, 12840, Note_on_c, 0, 65, 80
3, 12840, Note_on_c, 0, 62, 80
3, 12850, Note_on_c, 0, 62, 0
3, 12850, Note_on_c, 0, 65, 0
3, 12850, Note_on_c, 0, 57, 0
3, 12958, Control_c, 0, 64, 0
3, 12959, Control_c, 0, 64, 64
3, 12960, Note_on_c, 0, 64, 80
3, 12960, Note_on_c, 0, 57, 80
3, 12960, Note_on_c, 0, 61, 80
3, 12970, Note_on_c, 0, 61, 0
3, 12970, Note_on_c, 0, 57, 0
3, 12970, Note_on_c, 0, 64, 0
3, 13078, Control_c, 0, 64, 0
3, 13079, Control_c, 0, 64, 64
3, 13080, Note_on_c, 0, 64, 80
3, 13080, Note_on_c, 0, 57, 80
3, 13080, Note_on_c, 0, 61, 80
3, 13090, Note_on_c, 0, 61, 0
3, 13090, Note_on_c, 0, 57, 0
3, 13090, Note_on_c, 0, 64, 0
3, 13198, Control_c, 0, 64, 0
3, 13199, Control_c, 0, 64, 64
3, 13200, Note_on_c, 0, 64, 80
3, 13200, Note_on_c, 0, 57, 80
3, 13200, Note_on_c, 0, 61, 80
3, 13210, Note_on_c, 0, 61, 0
3, 13210, Note_on_c, 0, 57, 0
3, 13210, Note_on_c, 0, 64, 0
3, 13318, Control_c, 0, 64, 0
3, 13319, Control_c, 0, 64, 64
3, 13320, Note_on_c, 0, 57, 80
3, 13320, Note_on_c, 0, 64, 80
3, 13320, Note_on_c, 0, 61, 80
3, 13330, Note_on_c, 0, 61, 0
3, 13330, Note_on_c, 0, 64, 0
3, 13330, Note_on_c, 0, 57, 0
3, 13438, Control_c, 0, 64, 0
3, 13439, Control_c, 0, 64, 64
3, 13440, Note_on_c, 0, 57, 80
3, 13440, Note_on_c, 0, 62, 80
3, 13440, Note_on_c, 0, 65, 80
3, 13450, Note_on_c, 0, 65, 0
3, 13450, Note_on_c, 0, 62, 0
3, 13450, Note_on_c, 0, 57, 0
3, 13558, Control_c, 0, 64, 0
3, 13559, Control_c, 0, 64, 64
3, 13560, Note_on_c, 0, 65, 80
3, 13560, Note_on_c, 0, 62, 80
3, 13560, Note_on_c, 0, 57, 80
3, 13570, Note_on_c, 0, 57, 0
3, 13570, Note_on_c, 0, 62, 0
3, 13570, Note_on_c, 0, 65, 0
3, 13678, Control_c, 0, 64, 0
3, 13679, Control_c, 0, 64, 64
3, 13680, Note_on_c, 0, 62, 80
3, 13680, Note_on_c, 0, 65, 80
3, 13680, Note_on_c, 0, 57, 80
3, 13690, Note_on_c, 0, 57, 0
3, 13690, Note_on_c, 0, 65, 0
3, 13690, Note_on_c, 0, 62, 0
3, 13798, Control_c, 0, 64, 0
3, 13799, Control_c, 0, 64, 64
3, 13800, Note_on_c, 0, 62, 80
3, 13800, Note_on_c, 0, 65, 80
3, 13800, Note_on_c, 0, 57, 80
3, 13810, Note_on_c, 0, 57, 0
3, 13810, Note_on_c, 0, 65, 0
3, 13810, Note_on_c, 0, 62, 0
3, 13918, Control_c, 0, 64, 0
3, 13919, Control_c, 0, 64, 64
3, 13920, Note_on_c, 0, 64, 80
3, 13920, Note_on_c, 0, 61, 80
3, 13920, Note_on_c, 0, 57, 80
3, 13930, Note_on_c, 0, 57, 0
3, 13930, Note_on_c, 0, 61, 0
3, 13930, Note_on_c, 0, 64, 0
3, 14038, Control_c, 0, 64, 0
3, 14039, Control_c, 0, 64, 64
3, 14040, Note_on_c, 0, 64, 80
3, 14040, Note_on_c, 0, 61, 80
3, 14040, Note_on_c, 0, 57, 80
3, 14050, Note_on_c, 0, 57, 0
3, 14050, Note_on_c, 0, 61, 0
3, 14050, Note_on_c, 0, 64, 0
3, 14158, Control_c, 0, 64, 0
3, 14159, Control_c, 0, 64, 64
3, 14160, Note_on_c, 0, 57, 80
3, 14160, Note_on_c, 0, 61, 80
3, 14160, Note_on_c, 0, 64, 80
3, 14170, Note_on_c, 0, 64, 0
3, 14170, Note_on_c, 0, 61, 0
3, 14170, Note_on_c, 0, 57, 0
3, 14278, Control_c, 0, 64, 0
3, 14279, Control_c, 0, 64, 64
3, 14280, Note_on_c, 0, 57, 80
3, 14280, Note_on_c, 0, 61, 80
3, 14280, Note_on_c, 0, 64, 80
3, 14290, Note_on_c, 0, 64, 0
3, 14290, Note_on_c, 0, 61, 0
3, 14290, Note_on_c, 0, 57, 0
3, 14398, Control_c, 0, 64, 0
3, 14399, Control_c, 0, 64, 64
3, 14400, Note_on_c, 0, 62, 80
3, 14400, Note_on_c, 0, 65, 80
3, 14400, Note_on_c, 0, 57, 80
3, 14410, Note_on_c, 0, 57, 0
3, 14410, Note_on_c, 0, 65, 0
3, 14410, Note_on_c, 0, 62, 0
3, 14518, Control_c, 0, 64, 0
3, 14519, Control_c, 0, 64, 64
3, 14520, Note_on_c, 0, 65, 80
3, 14520, Note_on_c, 0, 62, 80
3, 14520, Note_on_c, 0, 57, 80
3, 14530, Note_on_c, 0, 57, 0
3, 14530, Note_on_c, 0, 62, 0
3, 14530, Note_on_c, 0, 65, 0
3, 14638, Control_c, 0, 64, 0
3, 14639, Control_c, 0, 64, 64
3, 14640, Note_on_c, 0, 65, 80
3, 14640, Note_on_c, 0, 62, 80
3, 14640, Note_on_c, 0, 57, 80
3, 14650, Note_on_c, 0, 57, 0
3, 14650, Note_on_c, 0, 62, 0
3, 14650, Note_on_c, 0, 65, 0
3, 14758, Control_c, 0, 64, 0
3, 14759, Control_c, 0, 64, 64
3, 14760, Note_on_c, 0, 57, 80
3, 14760, Note_on_c, 0, 65, 80
3, 14760, Note_on_c, 0, 62, 80
3, 14770, Note_on_c, 0, 62, 0
3, 14770, Note_on_c, 0, 65, 0
3, 14770, Note_on_c, 0, 57, 0
3, 14878, Control_c, 0, 64, 0
3, 14879, Control_c, 0, 64, 64
3, 14880, Note_on_c, 0, 64, 80
3, 14880, Note_on_c, 0, 57, 80
3, 14880, Note_on_c, 0, 61, 80
3, 14890, Note_on_c, 0, 61, 0
3, 14890, Note_on_c, 0, 57, 0
3, 14890, Note_on_c, 0, 64, 0
3, 14998, Control_c, 0, 64, 0
3, 14999, Control_c, 0, 64, 64
3, 15000, Note_on_c, 0, 64, 80
3, 15000, Note_on_c, 0, 57, 80
3, 15000, Note_on_c, 0, 61, 80
3, 15010, Note_on_c, 0, 61, 0
3, 15010, Note_on_c, 0, 57, 0
3, 15010, Note_on_c, 0, 64, 0
3, 15118, Control_c, 0, 64, 0
3, 15119, Control_c, 0, 64, 64
3, 15120, Note_on_c, 0, 61, 80
3, 15120, Note_on_c, 0, 64, 80
3, 15120, Note_on_c, 0, 57, 80
3, 15130, Note_on_c, 0, 57, 0
3, 15130, Note_on_c, 0, 64, 0
3, 15130, Note_on_c, 0, 61, 0
3, 15238, Control_c, 0, 64, 0
3, 15239, Control_c, 0, 64, 64
3, 15240, Note_on_c, 0, 64, 80
3, 15240, Note_on_c, 0, 57, 80
3, 15240, Note_on_c, 0, 61, 80
3, 15250, Note_on_c, 0, 61, 0
3, 15250, Note_on_c, 0, 57, 0
3, 15250, Note_on_c, 0, 64, 0
3, 15358, Control_c, 0, 64, 0
3, 15359, Control_c, 0, 64, 64
3, 15360, Note_on_c, 0, 62, 80
3, 15360, Note_on_c, 0, 57, 80
3, 15360, Note_on_c, 0, 60, 80
3, 15370, Note_on_c, 0, 60, 0
3, 15370, Note_on_c, 0, 57, 0
3, 15370, Note_on_c, 0, 62, 0
3, 15478, Control_c, 0, 64, 0
3, 15479, Control_c, 0, 64, 64
3, 15480, Note_on_c, 0, 62, 80
3, 15480, Note_on_c, 0, 60, 80
3, 15480, Note_on_c, 0, 57, 80
3, 15490, Note_on_c, 0, 57, 0
3, 15490, Note_on_c, 0, 60, 0
3, 15490, Note_on_c, 0, 62, 0
3, 15598, Control_c, 0, 64, 0
3, 15599, Control_c, 0, 64, 64
3, 15600, Note_on_c, 0, 62, 80
3, 15600, Note_on_c, 0, 60, 80
3, 15600, Note_on_c, 0, 57, 80
3, 15610, Note_on_c, 0, 57, 0
3, 15610, Note_on_c, 0, 60, 0
3, 15610, Note_on_c, 0, 62, 0
3, 15718, Control_c, 0, 64, 0
3, 15719, Control_c, 0, 64, 64
3, 15720, Note_on_c, 0, 57, 80
3, 15720, Note_on_c, 0, 62, 80
3, 15720, Note_on_c, 0, 60, 80
3, 15730, Note_on_c, 0, 60, 0
3, 15730, Note_on_c, 0, 62, 0
3, 15730, Note_on_c, 0, 57, 0
3, 15838, Control_c, 0, 64, 0
3, 15839, Control_c, 0, 64, 64
3, 15840, Note_on_c, 0, 65, 80
3, 15840, Note_on_c, 0, 57, 80
3, 15840, Note_on_c, 0, 60, 80
3, 15850, Note_on_c, 0, 60, 0
3, 15850, Note_on_c, 0, 57, 0
3, 15850, Note_on_c, 0, 65, 0
3, 15958, Control_c, 0, 64, 0
3, 15959, Control_c, 0, 64, 64
3, 15960, Note_on_c, 0, 60, 80
3, 15960, Note_on_c, 0, 57, 80
3, 15960, Note_on_c, 0, 65, 80
3, 15970, Note_on_c, 0, 65, 0
3, 15970, Note_on_c, 0, 57, 0
3, 15970, Note_on_c, 0, 60, 0
3, 16078, Control_c, 0, 64, 0
3, 16079, Control_c, 0, 64, 64
3, 16080, Note_on_c, 0, 57, 80
3, 16080, Note_on_c, 0, 60, 80
3, 16080, Note_on_c, 0, 65, 80
3, 16090, Note_on_c, 0, 65, 0
3, 16090, Note_on_c, 0, 60, 0
3, 16090, Note_on_c, 0, 57, 0
3, 16198, Control_c, 0, 64, 0
3, 16199, Control_c, 0, 64, 64
3, 16200, Note_on_c, 0, 65, 80
3, 16200, Note_on_c, 0, 60, 80
3, 16200, Note_on_c, 0, 57, 80
3, 16210, Note_on_c, 0, 57, 0
3, 16210, Note_on_c, 0, 60, 0
3, 16210, Note_on_c, 0, 65, 0
3, 16318, Control_c, 0, 64, 0
3, 16319, Control_c, 0, 64, 64
3, 16320, Note_on_c, 0, 52, 80
3, 16320, Note_on_c, 0, 55, 80
3, 16320, Note_on_c, 0, 60, 80
3, 16320, Note_on_c, 0, 64, 80
3, 16330, Note_on_c, 0, 64, 0
3, 16330, Note_on_c, 0, 52, 0
3, 16330, Note_on_c, 0, 55, 0
3, 16330, Note_on_c, 0, 60, 0
3, 16440, Note_on_c, 0, 55, 80
3, 16440, Note_on_c, 0, 60, 80
3, 16440, Note_on_c, 0, 64, 80
3, 16450, Note_on_c, 0, 64, 0
3, 16450, Note_on_c, 0, 60, 0
3, 16450, Note_on_c, 0, 55, 0
3, 16470, Control_c, 0, 64, 0
3, 16559, Control_c, 0, 64, 64
3, 16560, Note_on_c, 0, 52, 80
3, 16560, Note_on_c, 0, 55, 80
3, 16560, Note_on_c, 0, 59, 80
3, 16560, Note_on_c, 0, 64, 80
3, 16570, Note_on_c, 0, 64, 0
3, 16570, Note_on_c, 0, 52, 0
3, 16570, Note_on_c, 0, 55, 0
3, 16570, Note_on_c, 0, 59, 0
3, 16680, Note_on_c, 0, 55, 80
3, 16680, Note_on_c, 0, 59, 80
3, 16680, Note_on_c, 0, 64, 80
3, 16690, Note_on_c, 0, 64, 0
3, 16690, Note_on_c, 0, 59, 0
3, 16690, Note_on_c, 0, 55, 0
3, 16710, Control_c, 0, 64, 0
3, 16799, Control_c, 0, 64, 64
3, 16800, Note_on_c, 0, 50, 80
3, 16800, Note_on_c, 0, 57, 80
3, 16800, Note_on_c, 0, 62, 80
3, 16800, Note_on_c, 0, 65, 80
3, 16810, Note_on_c, 0, 65, 0
3, 16810, Note_on_c, 0, 50, 0
3, 16810, Note_on_c, 0, 57, 0
3, 16810, Note_on_c, 0, 62, 0
3, 16920, Note_on_c, 0, 57, 80
3, 16920, Note_on_c, 0, 62, 80
3, 16920, Note_on_c, 0, 65, 80
3, 16930, Note_on_c, 0, 65, 0
3, 16930, Note_on_c, 0, 62, 0
3, 16930, Note_on_c, 0, 57, 0
3, 16950, Control_c, 0, 64, 0
3, 17039, Control_c, 0, 64, 64
3, 17040, Note_on_c, 0, 50, 80
3, 17040, Note_on_c, 0, 55, 80
3, 17040, Note_on_c, 0, 59, 80
3, 17040, Note_on_c, 0, 65, 80
3, 17050, Note_on_c, 0, 65, 0
3, 17050, Note_on_c, 0, 50, 0
3, 17050, Note_on_c, 0, 55, 0
3, 17050, Note_on_c, 0, 59, 0
3, 17160, Note_on_c, 0, 55, 80
3, 17160, Note_on_c, 0, 59, 80
3, 17160, Note_on_c, 0, 65, 80
3, 17170, Note_on_c, 0, 65, 0
3, 17170, Note_on_c, 0, 59, 0
3, 17170, Note_on_c, 0, 55, 0
3, 17190, Control_c, 0, 64, 0
3, 17279, Control_c, 0, 64, 64
3, 17280, Note_on_c, 0, 52, 80
3, 17280, Note_on_c, 0, 55, 80
3, 17280, Note_on_c, 0, 60, 80
3, 17280, Note_on_c, 0, 64, 80
3, 17290, Note_on_c, 0, 64, 0
3, 17290, Note_on_c, 0, 52, 0
3, 17290, Note_on_c, 0, 55, 0
3, 17290, Note_on_c, 0, 60, 0
3, 17400, Note_on_c, 0, 55, 80
3, 17400, Note_on_c, 0, 60, 80
3, 17400, Note_on_c, 0, 64, 80
3, 17410, Note_on_c, 0, 64, 0
3, 17410, Note_on_c, 0, 60, 0
3, 17410, Note_on_c, 0, 55, 0
3, 17430, Control_c, 0, 64, 0
3, 17519, Control_c, 0, 64, 64
3, 17520, Note_on_c, 0, 52, 80
3, 17520, Note_on_c, 0, 55, 80
3, 17520, Note_on_c, 0, 59, 80
3, 17520, Note_on_c, 0, 64, 80
3, 17530, Note_on_c, 0, 64, 0
3, 17530, Note_on_c, 0, 52, 0
3, 17530, Note_on_c, 0, 55, 0
3, 17530, Note_on_c, 0, 59, 0
3, 17640, Note_on_c, 0, 55, 80
3, 17640, Note_on_c, 0, 59, 80
3, 17640, Note_on_c, 0, 64, 80
3, 17650, Note_on_c, 0, 64, 0
3, 17650, Note_on_c, 0, 59, 0
3, 17650, Note_on_c, 0, 55, 0
3, 17670, Control_c, 0, 64, 0
3, 17759, Control_c, 0, 64, 64
3, 17760, Note_on_c, 0, 50, 80
3, 17760, Note_on_c, 0, 57, 80
3, 17760, Note_on_c, 0, 62, 80
3, 17760, Note_on_c, 0, 65, 80
3, 17770, Note_on_c, 0, 65, 0
3, 17770, Note_on_c, 0, 50, 0
3, 17770, Note_on_c, 0, 57, 0
3, 17770, Note_on_c, 0, 62, 0
3, 17880, Note_on_c, 0, 57, 80
3, 17880, Note_on_c, 0, 62, 80
3, 17880, Note_on_c, 0, 65, 80
3, 17890, Note_on_c, 0, 65, 0
3, 17890, Note_on_c, 0, 62, 0
3, 17890, Note_on_c, 0, 57, 0
3, 17910, Control_c, 0, 64, 0
3, 17999, Control_c, 0, 64, 64
3, 18000, Note_on_c, 0, 50, 80
3, 18000, Note_on_c, 0, 55, 80
3, 18000, Note_on_c, 0, 59, 80
3, 18000, Note_on_c, 0, 65, 80
3, 18010, Note_on_c, 0, 65, 0
3, 18010, Note_on_c, 0, 50, 0
3, 18010, Note_on_c, 0, 55, 0
3, 18010, Note_on_c, 0, 59, 0
3, 18120, Note_on_c, 0, 55, 80
3, 18120, Note_on_c, 0, 59, 80
3, 18120, Note_on_c, 0, 65, 80
3, 18130, Note_on_c, 0, 65, 0
3, 18130, Note_on_c, 0, 59, 0
3, 18130, Note_on_c, 0, 55, 0
3, 18150, Control_c, 0, 64, 0
3, 18239, Control_c, 0, 64, 64
3, 18240, Note_on_c, 0, 64, 80
3, 18240, Note_on_c, 0, 60, 80
3, 18240, Note_on_c, 0, 57, 80
3, 18240, Note_on_c, 0, 52, 80
3, 18240, Note_on_c, 0, 45, 80
3, 18250, Note_on_c, 0, 45, 0
3, 18250, Note_on_c, 0, 57, 0
3, 18250, Note_on_c, 0, 64, 0
3, 18250, Note_on_c, 0, 60, 0
3, 18250, Note_on_c, 0, 52, 0
3, 18360, Note_on_c, 0, 57, 80
3, 18360, Note_on_c, 0, 60, 80
3, 18360, Note_on_c, 0, 64, 80
3, 18370, Note_on_c, 0, 64, 0
3, 18370, Note_on_c, 0, 60, 0
3, 18370, Note_on_c, 0, 57, 0
3, 18390, Control_c, 0, 64, 0
3, 18479, Control_c, 0, 64, 64
3, 18480, Note_on_c, 0, 47, 80
3, 18480, Note_on_c, 0, 52, 80
3, 18480, Note_on_c, 0, 56, 80
3, 18480, Note_on_c, 0, 62, 80
3, 18480, Note_on_c, 0, 64, 80
3, 18490, Note_on_c, 0, 64, 0
3, 18490, Note_on_c, 0, 56, 0
3, 18490, Note_on_c, 0, 47, 0
3, 18490, Note_on_c, 0, 52, 0
3, 18490, Note_on_c, 0, 62, 0
3, 18600, Note_on_c, 0, 56, 80
3, 18600, Note_on_c, 0, 62, 80
3, 18600, Note_on_c, 0, 64, 80
3, 18610, Note_on_c, 0, 64, 0
3, 18610, Note_on_c, 0, 62, 0
3, 18610, Note_on_c, 0, 56, 0
3, 18630, Control_c, 0, 64, 0
3, 18719, Control_c, 0, 64, 64
3, 18720, Note_on_c, 0, 64, 80
3, 18720, Note_on_c, 0, 60, 80
3, 18720, Note_on_c, 0, 57, 80
3, 18720, Note_on_c, 0, 52, 80
3, 18720, Note_on_c, 0, 45, 80
3, 18730, Note_on_c, 0, 45, 0
3, 18730, Note_on_c, 0, 57, 0
3, 18730, Note_on_c, 0, 64, 0
3, 18730, Note_on_c, 0, 60, 0
3, 18730, Note_on_c, 0, 52, 0
3, 18840, Note_on_c, 0, 57, 80
3, 18840, Note_on_c, 0, 60, 80
3, 18840, Note_on_c, 0, 64, 80
3, 18850, Note_on_c, 0, 64, 0
3, 18850, Note_on_c, 0, 60, 0
3, 18850, Note_on_c, 0, 57, 0
3, 18870, Control_c, 0, 64, 0
3, 18959, Control_c, 0, 64, 64
3, 18960, Note_on_c, 0, 67, 80
3, 18960, Note_on_c, 0, 60, 80
3, 18960, Note_on_c, 0, 57, 80
3, 18960, Note_on_c, 0, 52, 80
3, 18960, Note_on_c, 0, 45, 80
3, 18970, Note_on_c, 0, 45, 0
3, 18970, Note_on_c, 0, 57, 0
3, 18970, Note_on_c, 0, 67, 0
3, 18970, Note_on_c, 0, 60, 0
3, 18970, Note_on_c, 0, 52, 0
3, 19080, Note_on_c, 0, 57, 80
3, 19080, Note_on_c, 0, 60, 80
3, 19080, Note_on_c, 0, 67, 80
3, 19090, Note_on_c, 0, 67, 0
3, 19090, Note_on_c, 0, 60, 0
3, 19090, Note_on_c, 0, 57, 0
3, 19110, Control_c, 0, 64, 0
3, 19199, Control_c, 0, 64, 64
3, 19200, Note_on_c, 0, 50, 80
3, 19200, Note_on_c, 0, 57, 80
3, 19200, Note_on_c, 0, 62, 80
3, 19200, Note_on_c, 0, 65, 80
3, 19210, Note_on_c, 0, 65, 0
3, 19210, Note_on_c, 0, 50, 0
3, 19210, Note_on_c, 0, 57, 0
3, 19210, Note_on_c, 0, 62, 0
3, 19320, Note_on_c, 0, 57, 80
3, 19320, Note_on_c, 0, 62, 80
3, 19320, Note_on_c, 0, 65, 80
3, 19330, Note_on_c, 0, 65, 0
3, 19330, Note_on_c, 0, 62, 0
3, 19330, Note_on_c, 0, 57, 0
3, 19350, Control_c, 0, 64, 0
3, 19439, Control_c, 0, 64, 64
3, 19440, Note_on_c, 0, 50, 80
3, 19440, Note_on_c, 0, 57, 80
3, 19440, Note_on_c, 0, 62, 80
3, 19440, Note_on_c, 0, 65, 80
3, 19450, Note_on_c, 0, 65, 0
3, 19450, Note_on_c, 0, 50, 0
3, 19450, Note_on_c, 0, 57, 0
3, 19450, Note_on_c, 0, 62, 0
3, 19560, Note_on_c, 0, 57, 80
3, 19560, Note_on_c, 0, 62, 80
3, 19560, Note_on_c, 0, 65, 80
3, 19570, Note_on_c, 0, 65, 0
3, 19570, Note_on_c, 0, 62, 0
3, 19570, Note_on_c, 0, 57, 0
3, 19590, Control_c, 0, 64, 0
3, 19679, Control_c, 0, 64, 64
3, 19680, Note_on_c, 0, 52, 80
3, 19680, Note_on_c, 0, 55, 80
3, 19680, Note_on_c, 0, 60, 80
3, 19680, Note_on_c, 0, 64, 80
3, 19690, Note_on_c, 0, 64, 0
3, 19690, Note_on_c, 0, 52, 0
3, 19690, Note_on_c, 0, 55, 0
3, 19690, Note_on_c, 0, 60, 0
3, 19800, Note_on_c, 0, 55, 80
3, 19800, Note_on_c, 0, 60, 80
3, 19800, Note_on_c, 0, 64, 80
3, 19810, Note_on_c, 0, 64, 0
3, 19810, Note_on_c, 0, 60, 0
3, 19810, Note_on_c, 0, 55, 0
3, 19830, Control_c, 0, 64, 0
3, 19919, Control_c, 0, 64, 64
3, 19920, Note_on_c, 0, 52, 80
3, 19920, Note_on_c, 0, 56, 80
3, 19920, Note_on_c, 0, 62, 80
3, 19920, Note_on_c, 0, 64, 80
3, 19930, Note_on_c, 0, 64, 0
3, 19930, Note_on_c, 0, 52, 0
3, 19930, Note_on_c, 0, 56, 0
3, 19930, Note_on_c, 0, 62, 0
3, 20040, Note_on_c, 0, 56, 80
3, 20040, Note_on_c, 0, 62, 80
3, 20040, Note_on_c, 0, 64, 80
3, 20050, Note_on_c, 0, 64, 0
3, 20050, Note_on_c, 0, 62, 0
3, 20050, Note_on_c, 0, 56, 0
3, 20070, Control_c, 0, 64, 0
3, 20159, Control_c, 0, 64, 64
3, 20160, Note_on_c, 0, 64, 80
3, 20160, Note_on_c, 0, 60, 80
3, 20160, Note_on_c, 0, 57, 80
3, 20160, Note_on_c, 0, 52, 80
3, 20160, Note_on_c, 0, 45, 80
3, 20170, Note_on_c, 0, 45, 0
3, 20170, Note_on_c, 0, 57, 0
3, 20170, Note_on_c, 0, 64, 0
3, 20170, Note_on_c, 0, 60, 0
3, 20170, Note_on_c, 0, 52, 0
3, 20280, Note_on_c, 0, 57, 80
3, 20280, Note_on_c, 0, 60, 80
3, 20280, Note_on_c, 0, 64, 80
3, 20290, Note_on_c, 0, 64, 0
3, 20290, Note_on_c, 0, 60, 0
3, 20290, Note_on_c, 0, 57, 0
3, 20310, Control_c, 0, 64, 0
3, 20399, Control_c, 0, 64, 64
3, 20400, Note_on_c, 0, 47, 80
3, 20400, Note_on_c, 0, 52, 80
3, 20400, Note_on_c, 0, 56, 80
3, 20400, Note_on_c, 0, 62, 80
3, 20400, Note_on_c, 0, 64, 80
3, 20410, Note_on_c, 0, 64, 0
3, 20410, Note_on_c, 0, 56, 0
3, 20410, Note_on_c, 0, 47, 0
3, 20410, Note_on_c, 0, 52, 0
3, 20410, Note_on_c, 0, 62, 0
3, 20520, Note_on_c, 0, 56, 80
3, 20520, Note_on_c, 0, 62, 80
3, 20520, Note_on_c, 0, 64, 80
3, 20530, Note_on_c, 0, 64, 0
3, 20530, Note_on_c, 0, 62, 0
3, 20530, Note_on_c, 0, 56, 0
3, 20550, Control_c, 0, 64, 0
3, 20639, Control_c, 0, 64, 64
3, 20640, Note_on_c, 0, 64, 80
3, 20640, Note_on_c, 0, 60, 80
3, 20640, Note_on_c, 0, 57, 80
3, 20640, Note_on_c, 0, 52, 80
3, 20640, Note_on_c, 0, 45, 80
3, 20650, Note_on_c, 0, 45, 0
3, 20650, Note_on_c, 0, 57, 0
3, 20650, Note_on_c, 0, 64, 0
3, 20650, Note_on_c, 0, 60, 0
3, 20650, Note_on_c, 0, 52, 0
3, 20760, Note_on_c, 0, 57, 80
3, 20760, Note_on_c, 0, 60, 80
3, 20760, Note_on_c, 0, 64, 80
3, 20770, Note_on_c, 0, 64, 0
3, 20770, Note_on_c, 0, 60, 0
3, 20770, Note_on_c, 0, 57, 0
3, 20790, Control_c, 0, 64, 0
3, 20879, Control_c, 0, 64, 64
3, 20880, Note_on_c, 0, 67, 80
3, 20880, Note_on_c, 0, 60, 80
3, 20880, Note_on_c, 0, 57, 80
3, 20880, Note_on_c, 0, 52, 80
3, 20880, Note_on_c, 0, 45, 80
3, 20890, Note_on_c, 0, 45, 0
3, 20890, Note_on_c, 0, 57, 0
3, 20890, Note_on_c, 0, 67, 0
3, 20890, Note_on_c, 0, 60, 0
3, 20890, Note_on_c, 0, 52, 0
3, 21000, Note_on_c, 0, 57, 80
3, 21000, Note_on_c, 0, 60, 80
3, 21000, Note_on_c, 0, 67, 80
3, 21010, Note_on_c, 0, 67, 0
3, 21010, Note_on_c, 0, 60, 0
3, 21010, Note_on_c, 0, 57, 0
3, 21030, Control_c, 0, 64, 0
3, 21119, Control_c, 0, 64, 64
3, 21120, Note_on_c, 0, 50, 80
3, 21120, Note_on_c, 0, 57, 80
3, 21120, Note_on_c, 0, 62, 80
3, 21120, Note_on_c, 0, 65, 80
3, 21130, Note_on_c, 0, 65, 0
3, 21130, Note_on_c, 0, 50, 0
3, 21130, Note_on_c, 0, 57, 0
3, 21130, Note_on_c, 0, 62, 0
3, 21240, Note_on_c, 0, 57, 80
3, 21240, Note_on_c, 0, 62, 80
3, 21240, Note_on_c, 0, 65, 80
3, 21250, Note_on_c, 0, 65, 0
3, 21250, Note_on_c, 0, 62, 0
3, 21250, Note_on_c, 0, 57, 0
3, 21270, Control_c, 0, 64, 0
3, 21359, Control_c, 0, 64, 64
3, 21360, Note_on_c, 0, 50, 80
3, 21360, Note_on_c, 0, 57, 80
3, 21360, Note_on_c, 0, 62, 80
3, 21360, Note_on_c, 0, 65, 80
3, 21370, Note_on_c, 0, 65, 0
3, 21370, Note_on_c, 0, 50, 0
3, 21370, Note_on_c, 0, 57, 0
3, 21370, Note_on_c, 0, 62, 0
3, 21480, Note_on_c, 0, 57, 80
3, 21480, Note_on_c, 0, 62, 80
3, 21480, Note_on_c, 0, 65, 80
3, 21490, Note_on_c, 0, 65, 0
3, 21490, Note_on_c, 0, 62, 0
3, 21490, Note_on_c, 0, 57, 0
3, 21510, Control_c, 0, 64, 0
3, 21599, Control_c, 0, 64, 64
3, 21600, Note_on_c, 0, 52, 80
3, 21600, Note_on_c, 0, 57, 80
3, 21600, Note_on_c, 0, 60, 80
3, 21600, Note_on_c, 0, 64, 80
3, 21610, Note_on_c, 0, 64, 0
3, 21610, Note_on_c, 0, 52, 0
3, 21610, Note_on_c, 0, 57, 0
3, 21610, Note_on_c, 0, 60, 0
3, 21720, Note_on_c, 0, 57, 80
3, 21720, Note_on_c, 0, 60, 80
3, 21720, Note_on_c, 0, 64, 80
3, 21730, Note_on_c, 0, 64, 0
3, 21730, Note_on_c, 0, 60, 0
3, 21730, Note_on_c, 0, 57, 0
3, 21750, Control_c, 0, 64, 0
3, 21839, Control_c, 0, 64, 64
3, 21840, Note_on_c, 0, 52, 80
3, 21840, Note_on_c, 0, 57, 80
3, 21840, Note_on_c, 0, 60, 80
3, 21840, Note_on_c, 0, 64, 80
3, 21850, Note_on_c, 0, 64, 0
3, 21850, Note_on_c, 0, 52, 0
3, 21850, Note_on_c, 0, 57, 0
3, 21850, Note_on_c, 0, 60, 0
3, 21960, Note_on_c, 0, 57, 80
3, 21960, Note_on_c, 0, 60, 80
3, 21960, Note_on_c, 0, 64, 80
3, 21970, Note_on_c, 0, 64, 0
3, 21970, Note_on_c, 0, 60, 0
3, 21970, Note_on_c, 0, 57, 0
3, 22078, Control_c, 0, 64, 0
3, 22079, Control_c, 0, 64, 64
3, 22080, Note_on_c, 0, 52, 80
3, 22080, Note_on_c, 0, 55, 80
3, 22080, Note_on_c, 0, 60, 80
3, 22080, Note_on_c, 0, 64, 80
3, 22090, Note_on_c, 0, 64, 0
3, 22090, Note_on_c, 0, 52, 0
3, 22090, Note_on_c, 0, 55, 0
3, 22090, Note_on_c, 0, 60, 0
3, 22200, Note_on_c, 0, 55, 80
3, 22200, Note_on_c, 0, 60, 80
3, 22200, Note_on_c, 0, 64, 80
3, 22210, Note_on_c, 0, 64, 0
3, 22210, Note_on_c, 0, 60, 0
3, 22210, Note_on_c, 0, 55, 0
3, 22230, Control_c, 0, 64, 0
3, 22319, Control_c, 0, 64, 64
3, 22320, Note_on_c, 0, 52, 80
3, 22320, Note_on_c, 0, 55, 80
3, 22320, Note_on_c, 0, 59, 80
3, 22320, Note_on_c, 0, 64, 80
3, 22330, Note_on_c, 0, 64, 0
3, 22330, Note_on_c, 0, 52, 0
3, 22330, Note_on_c, 0, 55, 0
3, 22330, Note_on_c, 0, 59, 0
3, 22440, Note_on_c, 0, 55, 80
3, 22440, Note_on_c, 0, 59, 80
3, 22440, Note_on_c, 0, 64, 80
3, 22450, Note_on_c, 0, 64, 0
3, 22450, Note_on_c, 0, 59, 0
3, 22450, Note_on_c, 0, 55, 0
3, 22470, Control_c, 0, 64, 0
3, 22559, Control_c, 0, 64, 64
3, 22560, Note_on_c, 0, 50, 80
3, 22560, Note_on_c, 0, 57, 80
3, 22560, Note_on_c, 0, 62, 80
3, 22560, Note_on_c, 0, 65, 80
3, 22570, Note_on_c, 0, 65, 0
3, 22570, Note_on_c, 0, 50, 0
3, 22570, Note_on_c, 0, 57, 0
3, 22570, Note_on_c, 0, 62, 0
3, 22680, Note_on_c, 0, 57, 80
3, 22680, Note_on_c, 0, 62, 80
3, 22680, Note_on_c, 0, 65, 80
3, 22690, Note_on_c, 0, 65, 0
3, 22690, Note_on_c, 0, 62, 0
3, 22690, Note_on_c, 0, 57, 0
3, 22710, Control_c, 0, 64, 0
3, 22799, Control_c, 0, 64, 64
3, 22800, Note_on_c, 0, 50, 80
3, 22800, Note_on_c, 0, 55, 80
3, 22800, Note_on_c, 0, 59, 80
3, 22800, Note_on_c, 0, 65, 80
3, 22810, Note_on_c, 0, 65, 0
3, 22810, Note_on_c, 0, 50, 0
3, 22810, Note_on_c, 0, 55, 0
3, 22810, Note_on_c, 0, 59, 0
3, 22920, Note_on_c, 0, 55, 80
3, 22920, Note_on_c, 0, 59, 80
3, 22920, Note_on_c, 0, 65, 80
3, 22930, Note_on_c, 0, 65, 0
3, 22930, Note_on_c, 0, 59, 0
3, 22930, Note_on_c, 0, 55, 0
3, 22950, Control_c, 0, 64, 0
3, 23039, Control_c, 0, 64, 64
3, 23040, Note_on_c, 0, 52, 80
3, 23040, Note_on_c, 0, 55, 80
3, 23040, Note_on_c, 0, 60, 80
3, 23040, Note_on_c, 0, 64, 80
3, 23050, Note_on_c, 0, 64, 0
3, 23050, Note_on_c, 0, 52, 0
3, 23050, Note_on_c, 0, 55, 0
3, 23050, Note_on_c, 0, 60, 0
3, 23160, Note_on_c, 0, 55, 80
3, 23160, Note_on_c, 0, 60, 80
3, 23160, Note_on_c, 0, 64, 80
3, 23170, Note_on_c, 0, 64, 0
3, 23170, Note_on_c, 0, 60, 0
3, 23170, Note_on_c, 0, 55, 0
3, 23190, Control_c, 0, 64, 0
3, 23279, Control_c, 0, 64, 64
3, 23280, Note_on_c, 0, 52, 80
3, 23280, Note_on_c, 0, 55, 80
3, 23280, Note_on_c, 0, 59, 80
3, 23280, Note_on_c, 0, 64, 80
3, 23290, Note_on_c, 0, 64, 0
3, 23290, Note_on_c, 0, 52, 0
3, 23290, Note_on_c, 0, 55, 0
3, 23290, Note_on_c, 0, 59, 0
3, 23400, Note_on_c, 0, 55, 80
3, 23400, Note_on_c, 0, 59, 80
3, 23400, Note_on_c, 0, 64, 80
3, 23410, Note_on_c, 0, 64, 0
3, 23410, Note_on_c, 0, 59, 0
3, 23410, Note_on_c, 0, 55, 0
3, 23430, Control_c, 0, 64, 0
3, 23519, Control_c, 0, 64, 64
3, 23520, Note_on_c, 0, 50, 80
3, 23520, Note_on_c, 0, 57, 80
3, 23520, Note_on_c, 0, 62, 80
3, 23520, Note_on_c, 0, 65, 80
3, 23530, Note_on_c, 0, 65, 0
3, 23530, Note_on_c, 0, 50, 0
3, 23530, Note_on_c, 0, 57, 0
3, 23530, Note_on_c, 0, 62, 0
3, 23640, Note_on_c, 0, 57, 80
3, 23640, Note_on_c, 0, 62, 80
3, 23640, Note_on_c, 0, 65, 80
3, 23650, Note_on_c, 0, 65, 0
3, 23650, Note_on_c, 0, 62, 0
3, 23650, Note_on_c, 0, 57, 0
3, 23670, Control_c, 0, 64, 0
3, 23759, Control_c, 0, 64, 64
3, 23760, Note_on_c, 0, 50, 80
3, 23760, Note_on_c, 0, 55, 80
3, 23760, Note_on_c, 0, 59, 80
3, 23760, Note_on_c, 0, 65, 80
3, 23770, Note_on_c, 0, 65, 0
3, 23770, Note_on_c, 0, 50, 0
3, 23770, Note_on_c, 0, 55, 0
3, 23770, Note_on_c, 0, 59, 0
3, 23880, Note_on_c, 0, 55, 80
3, 23880, Note_on_c, 0, 59, 80
3, 23880, Note_on_c, 0, 65, 80
3, 23890, Note_on_c, 0, 65, 0
3, 23890, Note_on_c, 0, 59, 0
3, 23890, Note_on_c, 0, 55, 0
3, 23910, Control_c, 0, 64, 0
3, 23999, Control_c, 0, 64, 64
3, 24000, Note_on_c, 0, 64, 80
3, 24000, Note_on_c, 0, 60, 80
3, 24000, Note_on_c, 0, 57, 80
3, 24000, Note_on_c, 0, 52, 80
3, 24000, Note_on_c, 0, 45, 80
3, 24010, Note_on_c, 0, 45, 0
3, 24010, Note_on_c, 0, 57, 0
3, 24010, Note_on_c, 0, 64, 0
3, 24010, Note_on_c, 0, 60, 0
3, 24010, Note_on_c, 0, 52, 0
3, 24120, Note_on_c, 0, 57, 80
3, 24120, Note_on_c, 0, 60, 80
3, 24120, Note_on_c, 0, 64, 80
3, 24130, Note_on_c, 0, 64, 0
3, 24130, Note_on_c, 0, 60, 0
3, 24130, Note_on_c, 0, 57, 0
3, 24150, Control_c, 0, 64, 0
3, 24239, Control_c, 0, 64, 64
3, 24240, Note_on_c, 0, 47, 80
3, 24240, Note_on_c, 0, 52, 80
3, 24240, Note_on_c, 0, 56, 80
3, 24240, Note_on_c, 0, 62, 80
3, 24240, Note_on_c, 0, 64, 80
3, 24250, Note_on_c, 0, 64, 0
3, 24250, Note_on_c, 0, 56, 0
3, 24250, Note_on_c, 0, 47, 0
3, 24250, Note_on_c, 0, 52, 0
3, 24250, Note_on_c, 0, 62, 0
3, 24360, Note_on_c, 0, 56, 80
3, 24360, Note_on_c, 0, 62, 80
3, 24360, Note_on_c, 0, 64, 80
3, 24370, Note_on_c, 0, 64, 0
3, 24370, Note_on_c, 0, 62, 0
3, 24370, Note_on_c, 0, 56, 0
3, 24390, Control_c, 0, 64, 0
3, 24479, Control_c, 0, 64, 64
3, 24480, Note_on_c, 0, 64, 80
3, 24480, Note_on_c, 0, 60, 80
3, 24480, Note_on_c, 0, 57, 80
3, 24480, Note_on_c, 0, 52, 80
3, 24480, Note_on_c, 0, 45, 80
3, 24490, Note_on_c, 0, 45, 0
3, 24490, Note_on_c, 0, 57, 0
3, 24490, Note_on_c, 0, 64, 0
3, 24490, Note_on_c, 0, 60, 0
3, 24490, Note_on_c, 0, 52, 0
3, 24600, Note_on_c, 0, 57, 80
3, 24600, Note_on_c, 0, 60, 80
3, 24600, Note_on_c, 0, 64, 80
3, 24610, Note_on_c, 0, 64, 0
3, 24610, Note_on_c, 0, 60, 0
3, 24610, Note_on_c, 0, 57, 0
3, 24630, Control_c, 0, 64, 0
3, 24719, Control_c, 0, 64, 64
3, 24720, Note_on_c, 0, 67, 80
3, 24720, Note_on_c, 0, 60, 80
3, 24720, Note_on_c, 0, 57, 80
3, 24720, Note_on_c, 0, 52, 80
3, 24720, Note_on_c, 0, 45, 80
3, 24730, Note_on_c, 0, 45, 0
3, 24730, Note_on_c, 0, 57, 0
3, 24730, Note_on_c, 0, 67, 0
3, 24730, Note_on_c, 0, 60, 0
3, 24730, Note_on_c, 0, 52, 0
3, 24840, Note_on_c, 0, 57, 80
3, 24840, Note_on_c, 0, 60, 80
3, 24840, Note_on_c, 0, 67, 80
3, 24850, Note_on_c, 0, 67, 0
3, 24850, Note_on_c, 0, 60, 0
3, 24850, Note_on_c, 0, 57, 0
3, 24870, Control_c, 0, 64, 0
3, 24959, Control_c, 0, 64, 64
3, 24960, Note_on_c, 0, 50, 80
3, 24960, Note_on_c, 0, 57, 80
3, 24960, Note_on_c, 0, 62, 80
3, 24960, Note_on_c, 0, 65, 80
3, 24970, Note_on_c, 0, 65, 0
3, 24970, Note_on_c, 0, 50, 0
3, 24970, Note_on_c, 0, 57, 0
3, 24970, Note_on_c, 0, 62, 0
3, 25080, Note_on_c, 0, 57, 80
3, 25080, Note_on_c, 0, 62, 80
3, 25080, Note_on_c, 0, 65, 80
3, 25090, Note_on_c, 0, 65, 0
3, 25090, Note_on_c, 0, 62, 0
3, 25090, Note_on_c, 0, 57, 0
3, 25110, Control_c, 0, 64, 0
3, 25199, Control_c, 0, 64, 64
3, 25200, Note_on_c, 0, 50, 80
3, 25200, Note_on_c, 0, 57, 80
3, 25200, Note_on_c, 0, 62, 80
3, 25200, Note_on_c, 0, 65, 80
3, 25210, Note_on_c, 0, 65, 0
3, 25210, Note_on_c, 0, 50, 0
3, 25210, Note_on_c, 0, 57, 0
3, 25210, Note_on_c, 0, 62, 0
3, 25320, Note_on_c, 0, 57, 80
3, 25320, Note_on_c, 0, 62, 80
3, 25320, Note_on_c, 0, 65, 80
3, 25330, Note_on_c, 0, 65, 0
3, 25330, Note_on_c, 0, 62, 0
3, 25330, Note_on_c, 0, 57, 0
3, 25350, Control_c, 0, 64, 0
3, 25439, Control_c, 0, 64, 64
3, 25440, Note_on_c, 0, 52, 80
3, 25440, Note_on_c, 0, 55, 80
3, 25440, Note_on_c, 0, 60, 80
3, 25440, Note_on_c, 0, 64, 80
3, 25450, Note_on_c, 0, 64, 0
3, 25450, Note_on_c, 0, 52, 0
3, 25450, Note_on_c, 0, 55, 0
3, 25450, Note_on_c, 0, 60, 0
3, 25560, Note_on_c, 0, 55, 80
3, 25560, Note_on_c, 0, 60, 80
3, 25560, Note_on_c, 0, 64, 80
3, 25570, Note_on_c, 0, 64, 0
3, 25570, Note_on_c, 0, 60, 0
3, 25570, Note_on_c, 0, 55, 0
3, 25590, Control_c, 0, 64, 0
3, 25679, Control_c, 0, 64, 64
3, 25680, Note_on_c, 0, 52, 80
3, 25680, Note_on_c, 0, 56, 80
3, 25680, Note_on_c, 0, 62, 80
3, 25680, Note_on_c, 0, 64, 80
3, 25690, Note_on_c, 0, 64, 0
3, 25690, Note_on_c, 0, 52, 0
3, 25690, Note_on_c, 0, 56, 0
3, 25690, Note_on_c, 0, 62, 0
3, 25800, Note_on_c, 0, 56, 80
3, 25800, Note_on_c, 0, 62, 80
3, 25800, Note_on_c, 0, 64, 80
3, 25810, Note_on_c, 0, 64, 0
3, 25810, Note_on_c, 0, 62, 0
3, 25810, Note_on_c, 0, 56, 0
3, 25830, Control_c, 0, 64, 0
3, 25919, Control_c, 0, 64, 64
3, 25920, Note_on_c, 0, 64, 80
3, 25920, Note_on_c, 0, 60, 80
3, 25920, Note_on_c, 0, 57, 80
3, 25920, Note_on_c, 0, 52, 80
3, 25920, Note_on_c, 0, 45, 80
3, 25930, Note_on_c, 0, 45, 0
3, 25930, Note_on_c, 0, 57, 0
3, 25930, Note_on_c, 0, 64, 0
3, 25930, Note_on_c, 0, 60, 0
3, 25930, Note_on_c, 0, 52, 0
3, 26040, Note_on_c, 0, 57, 80
3, 26040, Note_on_c, 0, 60, 80
3, 26040, Note_on_c, 0, 64, 80
3, 26050, Note_on_c, 0, 64, 0
3, 26050, Note_on_c, 0, 60, 0
3, 26050, Note_on_c, 0, 57, 0
3, 26070, Control_c, 0, 64, 0
3, 26159, Control_c, 0, 64, 64
3, 26160, Note_on_c, 0, 47, 80
3, 26160, Note_on_c, 0, 52, 80
3, 26160, Note_on_c, 0, 56, 80
3, 26160, Note_on_c, 0, 62, 80
3, 26160, Note_on_c, 0, 64, 80
3, 26170, Note_on_c, 0, 64, 0
3, 26170, Note_on_c, 0, 56, 0
3, 26170, Note_on_c, 0, 47, 0
3, 26170, Note_on_c, 0, 52, 0
3, 26170, Note_on_c, 0, 62, 0
3, 26280, Note_on_c, 0, 56, 80
3, 26280, Note_on_c, 0, 62, 80
3, 26280, Note_on_c, 0, 64, 80
3, 26290, Note_on_c, 0, 64, 0
3, 26290, Note_on_c, 0, 62, 0
3, 26290, Note_on_c, 0, 56, 0
3, 26310, Control_c, 0, 64, 0
3, 26399, Control_c, 0, 64, 64
3, 26400, Note_on_c, 0, 64, 80
3, 26400, Note_on_c, 0, 60, 80
3, 26400, Note_on_c, 0, 57, 80
3, 26400, Note_on_c, 0, 52, 80
3, 26400, Note_on_c, 0, 45, 80
3, 26410, Note_on_c, 0, 45, 0
3, 26410, Note_on_c, 0, 57, 0
3, 26410, Note_on_c, 0, 64, 0
3, 26410, Note_on_c, 0, 60, 0
3, 26410, Note_on_c, 0, 52, 0
3, 26520, Note_on_c, 0, 57, 80
3, 26520, Note_on_c, 0, 60, 80
3, 26520, Note_on_c, 0, 64, 80
3, 26530, Note_on_c, 0, 64, 0
3, 26530, Note_on_c, 0, 60, 0
3, 26530, Note_on_c, 0, 57, 0
3, 26550, Control_c, 0, 64, 0
3, 26639, Control_c, 0, 64, 64
3, 26640, Note_on_c, 0, 67, 80
3, 26640, Note_on_c, 0, 60, 80
3, 26640, Note_on_c, 0, 57, 80
3, 26640, Note_on_c, 0, 52, 80
3, 26640, Note_on_c, 0, 45, 80
3, 26650, Note_on_c, 0, 45, 0
3, 26650, Note_on_c, 0, 57, 0
3, 26650, Note_on_c, 0, 67, 0
3, 26650, Note_on_c, 0, 60, 0
3, 26650, Note_on_c, 0, 52, 0
3, 26760, Note_on_c, 0, 57, 80
3, 26760, Note_on_c, 0, 60, 80
3, 26760, Note_on_c, 0, 67, 80
3, 26770, Note_on_c, 0, 67, 0
3, 26770, Note_on_c, 0, 60, 0
3, 26770, Note_on_c, 0, 57, 0
3, 26790, Control_c, 0, 64, 0
3, 26879, Control_c, 0, 64, 64
3, 26880, Note_on_c, 0, 50, 80
3, 26880, Note_on_c, 0, 57, 80
3, 26880, Note_on_c, 0, 62, 80
3, 26880, Note_on_c, 0, 65, 80
3, 26890, Note_on_c, 0, 65, 0
3, 26890, Note_on_c, 0, 50, 0
3, 26890, Note_on_c, 0, 57, 0
3, 26890, Note_on_c, 0, 62, 0
3, 27000, Note_on_c, 0, 57, 80
3, 27000, Note_on_c, 0, 62, 80
3, 27000, Note_on_c, 0, 65, 80
3, 27010, Note_on_c, 0, 65, 0
3, 27010, Note_on_c, 0, 62, 0
3, 27010, Note_on_c, 0, 57, 0
3, 27030, Control_c, 0, 64, 0
3, 27119, Control_c, 0, 64, 64
3, 27120, Note_on_c, 0, 50, 80
3, 27120, Note_on_c, 0, 57, 80
3, 27120, Note_on_c, 0, 62, 80
3, 27120, Note_on_c, 0, 65, 80
3, 27130, Note_on_c, 0, 65, 0
3, 27130, Note_on_c, 0, 50, 0
3, 27130, Note_on_c, 0, 57, 0
3, 27130, Note_on_c, 0, 62, 0
3, 27240, Note_on_c, 0, 57, 80
3, 27240, Note_on_c, 0, 62, 80
3, 27240, Note_on_c, 0, 65, 80
3, 27250, Note_on_c, 0, 65, 0
3, 27250, Note_on_c, 0, 62, 0
3, 27250, Note_on_c, 0, 57, 0
3, 27270, Control_c, 0, 64, 0
3, 27359, Control_c, 0, 64, 64
3, 27360, Note_on_c, 0, 52, 80
3, 27360, Note_on_c, 0, 57, 80
3, 27360, Note_on_c, 0, 60, 80
3, 27360, Note_on_c, 0, 64, 80
3, 27370, Note_on_c, 0, 64, 0
3, 27370, Note_on_c, 0, 52, 0
3, 27370, Note_on_c, 0, 57, 0
3, 27370, Note_on_c, 0, 60, 0
3, 27480, Note_on_c, 0, 57, 80
3, 27480, Note_on_c, 0, 60, 80
3, 27480, Note_on_c, 0, 64, 80
3, 27490, Note_on_c, 0, 64, 0
3, 27490, Note_on_c, 0, 60, 0
3, 27490, Note_on_c, 0, 57, 0
3, 27510, Control_c, 0, 64, 0
3, 27599, Control_c, 0, 64, 64
3, 27600, Note_on_c, 0, 52, 80
3, 27600, Note_on_c, 0, 57, 80
3, 27600, Note_on_c, 0, 60, 80
3, 27600, Note_on_c, 0, 64, 80
3, 27610, Note_on_c, 0, 64, 0
3, 27610, Note_on_c, 0, 52, 0
3, 27610, Note_on_c, 0, 57, 0
3, 27610, Note_on_c, 0, 60, 0
3, 27720, Note_on_c, 0, 57, 80
3, 27720, Note_on_c, 0, 60, 80
3, 27720, Note_on_c, 0, 64, 80
3, 27730, Note_on_c, 0, 64, 0
3, 27730, Note_on_c, 0, 60, 0
3, 27730, Note_on_c, 0, 57, 0
3, 27838, Control_c, 0, 64, 0
3, 27839, Control_c, 0, 64, 64
3, 27840, Note_on_c, 0, 52, 80
3, 27840, Note_on_c, 0, 55, 80
3, 27840, Note_on_c, 0, 60, 80
3, 27840, Note_on_c, 0, 64, 80
3, 27850, Note_on_c, 0, 64, 0
3, 27850, Note_on_c, 0, 52, 0
3, 27850, Note_on_c, 0, 55, 0
3, 27850, Note_on_c, 0, 60, 0
3, 27960, Note_on_c, 0, 55, 80
3, 27960, Note_on_c, 0, 60, 80
3, 27960, Note_on_c, 0, 64, 80
3, 27970, Note_on_c, 0, 64, 0
3, 27970, Note_on_c, 0, 60, 0
3, 27970, Note_on_c, 0, 55, 0
3, 27990, Control_c, 0, 64, 0
3, 28079, Control_c, 0, 64, 64
3, 28080, Note_on_c, 0, 52, 80
3, 28080, Note_on_c, 0, 55, 80
3, 28080, Note_on_c, 0, 59, 80
3, 28080, Note_on_c, 0, 64, 80
3, 28080, Control_c, 0, 11, 127
3, 28090, Note_on_c, 0, 64, 0
3, 28090, Note_on_c, 0, 52, 0
3, 28090, Note_on_c, 0, 55, 0
3, 28090, Note_on_c, 0, 59, 0
3, 28096, Control_c, 0, 11, 126
3, 28110, Control_c, 0, 11, 125
3, 28126, Control_c, 0, 11, 124
3, 28140, Control_c, 0, 11, 123
3, 28156, Control_c, 0, 11, 122
3, 28170, Control_c, 0, 11, 121
3, 28186, Control_c, 0, 11, 120
3, 28200, Note_on_c, 0, 55, 80
3, 28200, Note_on_c, 0, 59, 80
3, 28200, Note_on_c, 0, 64, 80
3, 28200, Control_c, 0, 11, 119
3, 28210, Note_on_c, 0, 64, 0
3, 28210, Note_on_c, 0, 59, 0
3, 28210, Note_on_c, 0, 55, 0
3, 28216, Control_c, 0, 11, 118
3, 28230, Control_c, 0, 64, 0
3, 28230, Control_c, 0, 11, 117
3, 28246, Control_c, 0, 11, 116
3, 28260, Control_c, 0, 11, 115
3, 28276, Control_c, 0, 11, 114
3, 28290, Control_c, 0, 11, 113
3, 28306, Control_c, 0, 11, 112
3, 28319, Control_c, 0, 64, 64
3, 28320, Note_on_c, 0, 50, 80
3, 28320, Note_on_c, 0, 57, 80
3, 28320, Note_on_c, 0, 62, 80
3, 28320, Note_on_c, 0, 65, 80
3, 28320, Control_c, 0, 11, 111
3, 28330, Note_on_c, 0, 65, 0
3, 28330, Note_on_c, 0, 50, 0
3, 28330, Note_on_c, 0, 57, 0
3, 28330, Note_on_c, 0, 62, 0
3, 28336, Control_c, 0, 11, 110
3, 28350, Control_c, 0, 11, 109
3, 28366, Control_c, 0, 11, 108
3, 28380, Control_c, 0, 11, 107
3, 28396, Control_c, 0, 11, 106
3, 28410, Control_c, 0, 11, 105
3, 28426, Control_c, 0, 11, 104
3, 28440, Note_on_c, 0, 57, 80
3, 28440, Note_on_c, 0, 62, 80
3, 28440, Note_on_c, 0, 65, 80
3, 28440, Control_c, 0, 11, 103
3, 28450, Note_on_c, 0, 65, 0
3, 28450, Note_on_c, 0, 62, 0
3, 28450, Note_on_c, 0, 57, 0
3, 28456, Control_c, 0, 11, 102
3, 28470, Control_c, 0, 64, 0
3, 28470, Control_c, 0, 11, 101
3, 28486, Control_c, 0, 11, 100
3, 28500, Control_c, 0, 11, 99
3, 28516, Control_c, 0, 11, 98
3, 28530, Control_c, 0, 11, 97
3, 28546, Control_c, 0, 11, 96
3, 28559, Control_c, 0, 64, 64
3, 28560, Note_on_c, 0, 50, 80
3, 28560, Note_on_c, 0, 55, 80
3, 28560, Note_on_c, 0, 59, 80
3, 28560, Note_on_c, 0, 65, 80
3, 28560, Control_c, 0, 11, 95
3, 28570, Note_on_c, 0, 65, 0
3, 28570, Note_on_c, 0, 50, 0
3, 28570, Note_on_c, 0, 55, 0
3, 28570, Note_on_c, 0, 59, 0
3, 28576, Control_c, 0, 11, 94
3, 28590, Control_c, 0, 11, 93
3, 28606, Control_c, 0, 11, 92
3, 28620, Control_c, 0, 11, 91
3, 28636, Control_c, 0, 11, 90
3, 28650, Control_c, 0, 11, 89
3, 28666, Control_c, 0, 11, 88
3, 28680, Note_on_c, 0, 55, 80
3, 28680, Note_on_c, 0, 59, 80
3, 28680, Note_on_c, 0, 65, 80
3, 28680, Control_c, 0, 11, 87
3, 28690, Note_on_c, 0, 65, 0
3, 28690, Note_on_c, 0, 59, 0
3, 28690, Note_on_c, 0, 55, 0
3, 28696, Control_c, 0, 11, 86
3, 28710, Control_c, 0, 64, 0
3, 28710, Control_c, 0, 11, 85
3, 28726, Control_c, 0, 11, 84
3, 28740, Control_c, 0, 11, 83
3, 28756, Control_c, 0, 11, 82
3, 28770, Control_c, 0, 11, 81
3, 28786, Control_c, 0, 11, 80
3, 28799, Control_c, 0, 64, 64
3, 28800, Note_on_c, 0, 52, 80
3, 28800, Note_on_c, 0, 55, 80
3, 28800, Note_on_c, 0, 60, 80
3, 28800, Note_on_c, 0, 64, 80
3, 28800, Control_c, 0, 11, 79
3, 28810, Note_on_c, 0, 64, 0
3, 28810, Note_on_c, 0, 52, 0
3, 28810, Note_on_c, 0, 55, 0
3, 28810, Note_on_c, 0, 60, 0
3, 28816, Control_c, 0, 11, 78
3, 28830, Control_c, 0, 11, 77
3, 28846, Control_c, 0, 11, 76
3, 28860, Control_c, 0, 11, 75
3, 28876, Control_c, 0, 11, 74
3, 28890, Control_c, 0, 11, 73
3, 28906, Control_c, 0, 11, 72
3, 28920, Note_on_c, 0, 55, 80
3, 28920, Note_on_c, 0, 60, 80
3, 28920, Note_on_c, 0, 64, 80
3, 28920, Control_c, 0, 11, 71
3, 28930, Note_on_c, 0, 64, 0
3, 28930, Note_on_c, 0, 60, 0
3, 28930, Note_on_c, 0, 55, 0
3, 28936, Control_c, 0, 11, 70
3, 28950, Control_c, 0, 64, 0
3, 28950, Control_c, 0, 11, 69
3, 28966, Control_c, 0, 11, 68
3, 28980, Control_c, 0, 11, 67
3, 28996, Control_c, 0, 11, 66
3, 29010, Control_c, 0, 11, 65
3, 29026, Control_c, 0, 11, 64
3, 29039, Control_c, 0, 64, 64
3, 29040, Note_on_c, 0, 52, 80
3, 29040, Note_on_c, 0, 55, 80
3, 29040, Note_on_c, 0, 59, 80
3, 29040, Note_on_c, 0, 64, 80
3, 29040, Control_c, 0, 11, 62
3, 29050, Note_on_c, 0, 64, 0
3, 29050, Note_on_c, 0, 52, 0
3, 29050, Note_on_c, 0, 55, 0
3, 29050, Note_on_c, 0, 59, 0
3, 29052, Control_c, 0, 11, 61
3, 29064, Control_c, 0, 11, 60
3, 29076, Control_c, 0, 11, 59
3, 29088, Control_c, 0, 11, 58
3, 29100, Control_c, 0, 11, 57
3, 29112, Control_c, 0, 11, 56
3, 29124, Control_c, 0, 11, 55
3, 29136, Control_c, 0, 11, 54
3, 29148, Control_c, 0, 11, 53
3, 29160, Note_on_c, 0, 55, 80
3, 29160, Note_on_c, 0, 59, 80
3, 29160, Note_on_c, 0, 64, 80
3, 29160, Control_c, 0, 11, 52
3, 29170, Note_on_c, 0, 64, 0
3, 29170, Note_on_c, 0, 59, 0
3, 29170, Note_on_c, 0, 55, 0
3, 29172, Control_c, 0, 11, 51
3, 29184, Control_c, 0, 11, 50
3, 29190, Control_c, 0, 64, 0
3, 29196, Control_c, 0, 11, 49
3, 29208, Control_c, 0, 11, 48
3, 29220, Control_c, 0, 11, 47
3, 29232, Control_c, 0, 11, 46
3, 29244, Control_c, 0, 11, 45
3, 29256, Control_c, 0, 11, 44
3, 29268, Control_c, 0, 11, 43
3, 29279, Control_c, 0, 64, 64
3, 29280, Note_on_c, 0, 50, 80
3, 29280, Note_on_c, 0, 57, 80
3, 29280, Note_on_c, 0, 62, 80
3, 29280, Note_on_c, 0, 65, 80
3, 29280, Control_c, 0, 11, 42
3, 29290, Note_on_c, 0, 65, 0
3, 29290, Note_on_c, 0, 50, 0
3, 29290, Note_on_c, 0, 57, 0
3, 29290, Note_on_c, 0, 62, 0
3, 29292, Control_c, 0, 11, 41
3, 29304, Control_c, 0, 11, 40
3, 29316, Control_c, 0, 11, 39
3, 29328, Control_c, 0, 11, 38
3, 29340, Control_c, 0, 11, 37
3, 29352, Control_c, 0, 11, 36
3, 29364, Control_c, 0, 11, 35
3, 29376, Control_c, 0, 11, 34
3, 29388, Control_c, 0, 11, 33
3, 29400, Note_on_c, 0, 57, 80
3, 29400, Note_on_c, 0, 62, 80
3, 29400, Note_on_c, 0, 65, 80
3, 29400, Control_c, 0, 11, 32
3, 29410, Note_on_c, 0, 65, 0
3, 29410, Note_on_c, 0, 62, 0
3, 29410, Note_on_c, 0, 57, 0
3, 29412, Control_c, 0, 11, 31
3, 29424, Control_c, 0, 11, 30
3, 29430, Control_c, 0, 64, 0
3, 29436, Control_c, 0, 11, 29
3, 29448, Control_c, 0, 11, 28
3, 29460, Control_c, 0, 11, 27
3, 29472, Control_c, 0, 11, 26
3, 29484, Control_c, 0, 11, 25
3, 29496, Control_c, 0, 11, 24
3, 29508, Control_c, 0, 11, 23
3, 29519, Control_c, 0, 64, 64
3, 29520, Note_on_c, 0, 50, 80
3, 29520, Note_on_c, 0, 55, 80
3, 29520, Note_on_c, 0, 59, 80
3, 29520, Note_on_c, 0, 65, 80
3, 29520, Control_c, 0, 11, 22
3, 29530, Note_on_c, 0, 65, 0
3, 29530, Note_on_c, 0, 50, 0
3, 29530, Note_on_c, 0, 55, 0
3, 29530, Note_on_c, 0, 59, 0
3, 29532, Control_c, 0, 11, 21
3, 29544, Control_c, 0, 11, 20
3, 29556, Control_c, 0, 11, 19
3, 29568, Control_c, 0, 11, 18
3, 29580, Control_c, 0, 11, 17
3, 29592, Control_c, 0, 11, 16
3, 29604, Control_c, 0, 11, 15
3, 29616, Control_c, 0, 11, 14
3, 29628, Control_c, 0, 11, 13
3, 29640, Note_on_c, 0, 55, 80
3, 29640, Note_on_c, 0, 59, 80
3, 29640, Note_on_c, 0, 65, 80
3, 29640, Control_c, 0, 11, 12
3, 29650, Note_on_c, 0, 65, 0
3, 29650, Note_on_c, 0, 59, 0
3, 29650, Note_on_c, 0, 55, 0
3, 29652, Control_c, 0, 11, 11
3, 29664, Control_c, 0, 11, 10
3, 29670, Control_c, 0, 64, 0
3, 29676, Control_c, 0, 11, 9
3, 29688, Control_c, 0, 11, 8
3, 29700, Control_c, 0, 11, 7
3, 29712, Control_c, 0, 11, 6
3, 29724, Control_c, 0, 11, 5
3, 29736, Control_c, 0, 11, 4
3, 29748, Control_c, 0, 11, 3
3, 29760, Control_c, 0, 11, 2
3, 29760, End_track
4, 0, Start_track
4, 0, MIDI_port, 0
4, 0, Title_t, "CONTRE-ACCORDS"
4, 0, Program_c, 0, 25
4, 0, Control_c, 0, 7, 127
4, 0, Control_c, 0, 0, 8
4, 0, Control_c, 0, 64, 64
4, 1040, Note_on_c, 0, 64, 58
4, 1040, Note_on_c, 0, 60, 58
4, 1050, Note_on_c, 0, 60, 0
4, 1050, Note_on_c, 0, 64, 0
4, 1160, Note_on_c, 0, 60, 58
4, 1160, Note_on_c, 0, 64, 58
4, 1170, Note_on_c, 0, 64, 0
4, 1170, Note_on_c, 0, 60, 0
4, 1190, Control_c, 0, 64, 0
4, 1279, Control_c, 0, 64, 64
4, 1280, Note_on_c, 0, 62, 58
4, 1280, Note_on_c, 0, 64, 58
4, 1290, Note_on_c, 0, 64, 0
4, 1290, Note_on_c, 0, 62, 0
4, 1400, Note_on_c, 0, 62, 58
4, 1400, Note_on_c, 0, 64, 58
4, 1410, Note_on_c, 0, 64, 0
4, 1410, Note_on_c, 0, 62, 0
4, 1670, Control_c, 0, 64, 0
4, 1759, Control_c, 0, 64, 64
4, 1880, Note_on_c, 0, 60, 58
4, 1880, Note_on_c, 0, 67, 58
4, 1890, Note_on_c, 0, 67, 0
4, 1890, Note_on_c, 0, 60, 0
4, 1910, Control_c, 0, 64, 0
4, 1999, Control_c, 0, 64, 64
4, 2000, Note_on_c, 0, 62, 58
4, 2000, Note_on_c, 0, 65, 58
4, 2010, Note_on_c, 0, 65, 0
4, 2010, Note_on_c, 0, 62, 0
4, 2120, Note_on_c, 0, 62, 58
4, 2120, Note_on_c, 0, 65, 58
4, 2130, Note_on_c, 0, 65, 0
4, 2130, Note_on_c, 0, 62, 0
4, 2150, Control_c, 0, 64, 0
4, 2239, Control_c, 0, 64, 64
4, 2240, Note_on_c, 0, 62, 58
4, 2240, Note_on_c, 0, 65, 58
4, 2250, Note_on_c, 0, 65, 0
4, 2250, Note_on_c, 0, 62, 0
4, 2360, Note_on_c, 0, 62, 58
4, 2360, Note_on_c, 0, 65, 58
4, 2370, Note_on_c, 0, 65, 0
4, 2370, Note_on_c, 0, 62, 0
4, 2390, Control_c, 0, 64, 0
4, 2479, Control_c, 0, 64, 64
4, 2480, Note_on_c, 0, 60, 58
4, 2480, Note_on_c, 0, 64, 58
4, 2490, Note_on_c, 0, 64, 0
4, 2490, Note_on_c, 0, 60, 0
4, 2600, Note_on_c, 0, 60, 58
4, 2600, Note_on_c, 0, 64, 58
4, 2610, Note_on_c, 0, 64, 0
4, 2610, Note_on_c, 0, 60, 0
4, 2630, Control_c, 0, 64, 0
4, 2719, Control_c, 0, 64, 64
4, 2720, Note_on_c, 0, 62, 58
4, 2720, Note_on_c, 0, 64, 58
4, 2730, Note_on_c, 0, 64, 0
4, 2730, Note_on_c, 0, 62, 0
4, 2840, Note_on_c, 0, 62, 58
4, 2840, Note_on_c, 0, 64, 58
4, 2850, Note_on_c, 0, 64, 0
4, 2850, Note_on_c, 0, 62, 0
4, 2870, Control_c, 0, 64, 0
4, 2959, Control_c, 0, 64, 64
4, 2960, Note_on_c, 0, 64, 58
4, 2960, Note_on_c, 0, 60, 58
4, 2970, Note_on_c, 0, 60, 0
4, 2970, Note_on_c, 0, 64, 0
4, 3080, Note_on_c, 0, 60, 58
4, 3080, Note_on_c, 0, 64, 58
4, 3090, Note_on_c, 0, 64, 0
4, 3090, Note_on_c, 0, 60, 0
4, 3110, Control_c, 0, 64, 0
4, 3199, Control_c, 0, 64, 64
4, 3200, Note_on_c, 0, 62, 58
4, 3200, Note_on_c, 0, 64, 58
4, 3210, Note_on_c, 0, 64, 0
4, 3210, Note_on_c, 0, 62, 0
4, 3320, Note_on_c, 0, 62, 58
4, 3320, Note_on_c, 0, 64, 58
4, 3330, Note_on_c, 0, 64, 0
4, 3330, Note_on_c, 0, 62, 0
4, 3590, Control_c, 0, 64, 0
4, 3679, Control_c, 0, 64, 64
4, 3800, Note_on_c, 0, 60, 58
4, 3800, Note_on_c, 0, 67, 58
4, 3810, Note_on_c, 0, 67, 0
4, 3810, Note_on_c, 0, 60, 0
4, 3830, Control_c, 0, 64, 0
4, 3919, Control_c, 0, 64, 64
4, 3920, Note_on_c, 0, 62, 58
4, 3920, Note_on_c, 0, 65, 58
4, 3930, Note_on_c, 0, 65, 0
4, 3930, Note_on_c, 0, 62, 0
4, 4040, Note_on_c, 0, 62, 58
4, 4040, Note_on_c, 0, 65, 58
4, 4050, Note_on_c, 0, 65, 0
4, 4050, Note_on_c, 0, 62, 0
4, 4070, Control_c, 0, 64, 0
4, 4159, Control_c, 0, 64, 64
4, 4160, Note_on_c, 0, 62, 58
4, 4160, Note_on_c, 0, 65, 58
4, 4170, Note_on_c, 0, 65, 0
4, 4170, Note_on_c, 0, 62, 0
4, 4280, Note_on_c, 0, 62, 58
4, 4280, Note_on_c, 0, 65, 58
4, 4290, Note_on_c, 0, 65, 0
4, 4290, Note_on_c, 0, 62, 0
4, 4550, Control_c, 0, 64, 0
4, 4639, Control_c, 0, 64, 64
4, 4640, Note_on_c, 0, 60, 58
4, 4640, Note_on_c, 0, 64, 58
4, 4650, Note_on_c, 0, 64, 0
4, 4650, Note_on_c, 0, 60, 0
4, 4760, Note_on_c, 0, 60, 58
4, 4760, Note_on_c, 0, 64, 58
4, 4770, Note_on_c, 0, 64, 0
4, 4770, Note_on_c, 0, 60, 0
4, 4878, Control_c, 0, 64, 0
4, 4879, Control_c, 0, 64, 64
4, 4880, Note_on_c, 0, 60, 58
4, 4880, Note_on_c, 0, 64, 58
4, 4890, Note_on_c, 0, 64, 0
4, 4890, Note_on_c, 0, 60, 0
4, 5000, Note_on_c, 0, 60, 58
4, 5000, Note_on_c, 0, 64, 58
4, 5010, Note_on_c, 0, 64, 0
4, 5010, Note_on_c, 0, 60, 0
4, 5030, Control_c, 0, 64, 0
4, 5119, Control_c, 0, 64, 64
4, 5120, Note_on_c, 0, 59, 58
4, 5120, Note_on_c, 0, 64, 58
4, 5130, Note_on_c, 0, 64, 0
4, 5130, Note_on_c, 0, 59, 0
4, 5240, Note_on_c, 0, 59, 58
4, 5240, Note_on_c, 0, 64, 58
4, 5250, Note_on_c, 0, 64, 0
4, 5250, Note_on_c, 0, 59, 0
4, 5270, Control_c, 0, 64, 0
4, 5359, Control_c, 0, 64, 64
4, 5360, Note_on_c, 0, 62, 58
4, 5360, Note_on_c, 0, 65, 58
4, 5370, Note_on_c, 0, 65, 0
4, 5370, Note_on_c, 0, 62, 0
4, 5480, Note_on_c, 0, 62, 58
4, 5480, Note_on_c, 0, 65, 58
4, 5490, Note_on_c, 0, 65, 0
4, 5490, Note_on_c, 0, 62, 0
4, 5510, Control_c, 0, 64, 0
4, 5599, Control_c, 0, 64, 64
4, 5600, Note_on_c, 0, 59, 58
4, 5600, Note_on_c, 0, 65, 58
4, 5610, Note_on_c, 0, 65, 0
4, 5610, Note_on_c, 0, 59, 0
4, 5720, Note_on_c, 0, 59, 58
4, 5720, Note_on_c, 0, 65, 58
4, 5730, Note_on_c, 0, 65, 0
4, 5730, Note_on_c, 0, 59, 0
4, 5750, Control_c, 0, 64, 0
4, 5839, Control_c, 0, 64, 64
4, 5840, Note_on_c, 0, 60, 58
4, 5840, Note_on_c, 0, 64, 58
4, 5850, Note_on_c, 0, 64, 0
4, 5850, Note_on_c, 0, 60, 0
4, 5960, Note_on_c, 0, 60, 58
4, 5960, Note_on_c, 0, 64, 58
4, 5970, Note_on_c, 0, 64, 0
4, 5970, Note_on_c, 0, 60, 0
4, 5990, Control_c, 0, 64, 0
4, 6079, Control_c, 0, 64, 64
4, 6080, Note_on_c, 0, 59, 58
4, 6080, Note_on_c, 0, 64, 58
4, 6090, Note_on_c, 0, 64, 0
4, 6090, Note_on_c, 0, 59, 0
4, 6200, Note_on_c, 0, 59, 58
4, 6200, Note_on_c, 0, 64, 58
4, 6210, Note_on_c, 0, 64, 0
4, 6210, Note_on_c, 0, 59, 0
4, 6230, Control_c, 0, 64, 0
4, 6319, Control_c, 0, 64, 64
4, 6320, Note_on_c, 0, 62, 58
4, 6320, Note_on_c, 0, 65, 58
4, 6330, Note_on_c, 0, 65, 0
4, 6330, Note_on_c, 0, 62, 0
4, 6440, Note_on_c, 0, 62, 58
4, 6440, Note_on_c, 0, 65, 58
4, 6450, Note_on_c, 0, 65, 0
4, 6450, Note_on_c, 0, 62, 0
4, 6470, Control_c, 0, 64, 0
4, 6559, Control_c, 0, 64, 64
4, 6560, Note_on_c, 0, 59, 58
4, 6560, Note_on_c, 0, 65, 58
4, 6570, Note_on_c, 0, 65, 0
4, 6570, Note_on_c, 0, 59, 0
4, 6680, Note_on_c, 0, 59, 58
4, 6680, Note_on_c, 0, 65, 58
4, 6690, Note_on_c, 0, 65, 0
4, 6690, Note_on_c, 0, 59, 0
4, 6710, Control_c, 0, 64, 0
4, 6799, Control_c, 0, 64, 64
4, 6800, Note_on_c, 0, 64, 58
4, 6800, Note_on_c, 0, 60, 58
4, 6810, Note_on_c, 0, 60, 0
4, 6810, Note_on_c, 0, 64, 0
4, 6920, Note_on_c, 0, 60, 58
4, 6920, Note_on_c, 0, 64, 58
4, 6930, Note_on_c, 0, 64, 0
4, 6930, Note_on_c, 0, 60, 0
4, 6950, Control_c, 0, 64, 0
4, 7039, Control_c, 0, 64, 64
4, 7040, Note_on_c, 0, 62, 58
4, 7040, Note_on_c, 0, 64, 58
4, 7050, Note_on_c, 0, 64, 0
4, 7050, Note_on_c, 0, 62, 0
4, 7160, Note_on_c, 0, 62, 58
4, 7160, Note_on_c, 0, 64, 58
4, 7170, Note_on_c, 0, 64, 0
4, 7170, Note_on_c, 0, 62, 0
4, 7430, Control_c, 0, 64, 0
4, 7519, Control_c, 0, 64, 64
4, 7640, Note_on_c, 0, 60, 58
4, 7640, Note_on_c, 0, 67, 58
4, 7650, Note_on_c, 0, 67, 0
4, 7650, Note_on_c, 0, 60, 0
4, 7670, Control_c, 0, 64, 0
4, 7759, Control_c, 0, 64, 64
4, 7760, Note_on_c, 0, 62, 58
4, 7760, Note_on_c, 0, 65, 58
4, 7770, Note_on_c, 0, 65, 0
4, 7770, Note_on_c, 0, 62, 0
4, 7880, Note_on_c, 0, 62, 58
4, 7880, Note_on_c, 0, 65, 58
4, 7890, Note_on_c, 0, 65, 0
4, 7890, Note_on_c, 0, 62, 0
4, 7910, Control_c, 0, 64, 0
4, 7999, Control_c, 0, 64, 64
4, 8000, Note_on_c, 0, 62, 58
4, 8000, Note_on_c, 0, 65, 58
4, 8010, Note_on_c, 0, 65, 0
4, 8010, Note_on_c, 0, 62, 0
4, 8120, Note_on_c, 0, 62, 58
4, 8120, Note_on_c, 0, 65, 58
4, 8130, Note_on_c, 0, 65, 0
4, 8130, Note_on_c, 0, 62, 0
4, 8150, Control_c, 0, 64, 0
4, 8239, Control_c, 0, 64, 64
4, 8240, Note_on_c, 0, 60, 58
4, 8240, Note_on_c, 0, 64, 58
4, 8250, Note_on_c, 0, 64, 0
4, 8250, Note_on_c, 0, 60, 0
4, 8360, Note_on_c, 0, 60, 58
4, 8360, Note_on_c, 0, 64, 58
4, 8370, Note_on_c, 0, 64, 0
4, 8370, Note_on_c, 0, 60, 0
4, 8390, Control_c, 0, 64, 0
4, 8479, Control_c, 0, 64, 64
4, 8480, Note_on_c, 0, 62, 58
4, 8480, Note_on_c, 0, 64, 58
4, 8490, Note_on_c, 0, 64, 0
4, 8490, Note_on_c, 0, 62, 0
4, 8600, Note_on_c, 0, 62, 58
4, 8600, Note_on_c, 0, 64, 58
4, 8610, Note_on_c, 0, 64, 0
4, 8610, Note_on_c, 0, 62, 0
4, 8630, Control_c, 0, 64, 0
4, 8719, Control_c, 0, 64, 64
4, 8720, Note_on_c, 0, 64, 58
4, 8720, Note_on_c, 0, 60, 58
4, 8730, Note_on_c, 0, 60, 0
4, 8730, Note_on_c, 0, 64, 0
4, 8840, Note_on_c, 0, 60, 58
4, 8840, Note_on_c, 0, 64, 58
4, 8850, Note_on_c, 0, 64, 0
4, 8850, Note_on_c, 0, 60, 0
4, 8870, Control_c, 0, 64, 0
4, 8959, Control_c, 0, 64, 64
4, 8960, Note_on_c, 0, 62, 58
4, 8960, Note_on_c, 0, 64, 58
4, 8970, Note_on_c, 0, 64, 0
4, 8970, Note_on_c, 0, 62, 0
4, 9080, Note_on_c, 0, 62, 58
4, 9080, Note_on_c, 0, 64, 58
4, 9090, Note_on_c, 0, 64, 0
4, 9090, Note_on_c, 0, 62, 0
4, 9350, Control_c, 0, 64, 0
4, 9439, Control_c, 0, 64, 64
4, 9560, Note_on_c, 0, 60, 58
4, 9560, Note_on_c, 0, 67, 58
4, 9570, Note_on_c, 0, 67, 0
4, 9570, Note_on_c, 0, 60, 0
4, 9590, Control_c, 0, 64, 0
4, 9679, Control_c, 0, 64, 64
4, 9680, Note_on_c, 0, 62, 58
4, 9680, Note_on_c, 0, 65, 58
4, 9690, Note_on_c, 0, 65, 0
4, 9690, Note_on_c, 0, 62, 0
4, 9800, Note_on_c, 0, 62, 58
4, 9800, Note_on_c, 0, 65, 58
4, 9810, Note_on_c, 0, 65, 0
4, 9810, Note_on_c, 0, 62, 0
4, 9830, Control_c, 0, 64, 0
4, 9919, Control_c, 0, 64, 64
4, 9920, Note_on_c, 0, 62, 58
4, 9920, Note_on_c, 0, 65, 58
4, 9930, Note_on_c, 0, 65, 0
4, 9930, Note_on_c, 0, 62, 0
4, 10040, Note_on_c, 0, 62, 58
4, 10040, Note_on_c, 0, 65, 58
4, 10050, Note_on_c, 0, 65, 0
4, 10050, Note_on_c, 0, 62, 0
4, 10310, Control_c, 0, 64, 0
4, 10399, Control_c, 0, 64, 64
4, 10400, Note_on_c, 0, 60, 58
4, 10400, Note_on_c, 0, 64, 58
4, 10410, Note_on_c, 0, 64, 0
4, 10410, Note_on_c, 0, 60, 0
4, 10520, Note_on_c, 0, 60, 58
4, 10520, Note_on_c, 0, 64, 58
4, 10530, Note_on_c, 0, 64, 0
4, 10530, Note_on_c, 0, 60, 0
4, 10638, Control_c, 0, 64, 0
4, 10639, Control_c, 0, 64, 64
4, 10640, Note_on_c, 0, 60, 58
4, 10640, Note_on_c, 0, 64, 58
4, 10650, Note_on_c, 0, 64, 0
4, 10650, Note_on_c, 0, 60, 0
4, 10760, Note_on_c, 0, 60, 58
4, 10760, Note_on_c, 0, 64, 58
4, 10770, Note_on_c, 0, 64, 0
4, 10770, Note_on_c, 0, 60, 0
4, 10790, Control_c, 0, 64, 0
4, 10879, Control_c, 0, 64, 64
4, 10880, Note_on_c, 0, 59, 58
4, 10880, Note_on_c, 0, 64, 58
4, 10890, Note_on_c, 0, 64, 0
4, 10890, Note_on_c, 0, 59, 0
4, 11000, Note_on_c, 0, 59, 58
4, 11000, Note_on_c, 0, 64, 58
4, 11010, Note_on_c, 0, 64, 0
4, 11010, Note_on_c, 0, 59, 0
4, 11030, Control_c, 0, 64, 0
4, 11119, Control_c, 0, 64, 64
4, 11120, Note_on_c, 0, 62, 58
4, 11120, Note_on_c, 0, 65, 58
4, 11130, Note_on_c, 0, 65, 0
4, 11130, Note_on_c, 0, 62, 0
4, 11240, Note_on_c, 0, 62, 58
4, 11240, Note_on_c, 0, 65, 58
4, 11250, Note_on_c, 0, 65, 0
4, 11250, Note_on_c, 0, 62, 0
4, 11270, Control_c, 0, 64, 0
4, 11359, Control_c, 0, 64, 64
4, 11360, Note_on_c, 0, 59, 58
4, 11360, Note_on_c, 0, 65, 58
4, 11370, Note_on_c, 0, 65, 0
4, 11370, Note_on_c, 0, 59, 0
4, 11480, Note_on_c, 0, 59, 58
4, 11480, Note_on_c, 0, 65, 58
4, 11490, Note_on_c, 0, 65, 0
4, 11490, Note_on_c, 0, 59, 0
4, 11510, Control_c, 0, 64, 0
4, 11599, Control_c, 0, 64, 64
4, 11600, Note_on_c, 0, 60, 58
4, 11600, Note_on_c, 0, 64, 58
4, 11610, Note_on_c, 0, 64, 0
4, 11610, Note_on_c, 0, 60, 0
4, 11720, Note_on_c, 0, 60, 58
4, 11720, Note_on_c, 0, 64, 58
4, 11730, Note_on_c, 0, 64, 0
4, 11730, Note_on_c, 0, 60, 0
4, 11750, Control_c, 0, 64, 0
4, 11839, Control_c, 0, 64, 64
4, 11840, Note_on_c, 0, 59, 58
4, 11840, Note_on_c, 0, 64, 58
4, 11850, Note_on_c, 0, 64, 0
4, 11850, Note_on_c, 0, 59, 0
4, 11960, Note_on_c, 0, 59, 58
4, 11960, Note_on_c, 0, 64, 58
4, 11970, Note_on_c, 0, 64, 0
4, 11970, Note_on_c, 0, 59, 0
4, 11990, Control_c, 0, 64, 0
4, 12079, Control_c, 0, 64, 64
4, 12080, Note_on_c, 0, 62, 58
4, 12080, Note_on_c, 0, 65, 58
4, 12090, Note_on_c, 0, 65, 0
4, 12090, Note_on_c, 0, 62, 0
4, 12200, Note_on_c, 0, 62, 58
4, 12200, Note_on_c, 0, 65, 58
4, 12210, Note_on_c, 0, 65, 0
4, 12210, Note_on_c, 0, 62, 0
4, 12230, Control_c, 0, 64, 0
4, 12319, Control_c, 0, 64, 64
4, 12320, Note_on_c, 0, 59, 58
4, 12320, Note_on_c, 0, 65, 58
4, 12330, Note_on_c, 0, 65, 0
4, 12330, Note_on_c, 0, 59, 0
4, 12440, Note_on_c, 0, 59, 58
4, 12440, Note_on_c, 0, 65, 58
4, 12450, Note_on_c, 0, 65, 0
4, 12450, Note_on_c, 0, 59, 0
4, 12470, Control_c, 0, 64, 0
4, 12559, Control_c, 0, 64, 64
4, 16399, Control_c, 0, 64, 64
4, 16400, Note_on_c, 0, 60, 58
4, 16400, Note_on_c, 0, 64, 58
4, 16410, Note_on_c, 0, 64, 0
4, 16410, Note_on_c, 0, 60, 0
4, 16520, Note_on_c, 0, 60, 58
4, 16520, Note_on_c, 0, 64, 58
4, 16530, Note_on_c, 0, 64, 0
4, 16530, Note_on_c, 0, 60, 0
4, 16550, Control_c, 0, 64, 0
4, 16639, Control_c, 0, 64, 64
4, 16640, Note_on_c, 0, 59, 58
4, 16640, Note_on_c, 0, 64, 58
4, 16650, Note_on_c, 0, 64, 0
4, 16650, Note_on_c, 0, 59, 0
4, 16760, Note_on_c, 0, 59, 58
4, 16760, Note_on_c, 0, 64, 58
4, 16770, Note_on_c, 0, 64, 0
4, 16770, Note_on_c, 0, 59, 0
4, 16790, Control_c, 0, 64, 0
4, 16879, Control_c, 0, 64, 64
4, 16880, Note_on_c, 0, 62, 58
4, 16880, Note_on_c, 0, 65, 58
4, 16890, Note_on_c, 0, 65, 0
4, 16890, Note_on_c, 0, 62, 0
4, 17000, Note_on_c, 0, 62, 58
4, 17000, Note_on_c, 0, 65, 58
4, 17010, Note_on_c, 0, 65, 0
4, 17010, Note_on_c, 0, 62, 0
4, 17030, Control_c, 0, 64, 0
4, 17119, Control_c, 0, 64, 64
4, 17120, Note_on_c, 0, 59, 58
4, 17120, Note_on_c, 0, 65, 58
4, 17130, Note_on_c, 0, 65, 0
4, 17130, Note_on_c, 0, 59, 0
4, 17240, Note_on_c, 0, 59, 58
4, 17240, Note_on_c, 0, 65, 58
4, 17250, Note_on_c, 0, 65, 0
4, 17250, Note_on_c, 0, 59, 0
4, 17270, Control_c, 0, 64, 0
4, 17359, Control_c, 0, 64, 64
4, 17360, Note_on_c, 0, 60, 58
4, 17360, Note_on_c, 0, 64, 58
4, 17370, Note_on_c, 0, 64, 0
4, 17370, Note_on_c, 0, 60, 0
4, 17480, Note_on_c, 0, 60, 58
4, 17480, Note_on_c, 0, 64, 58
4, 17490, Note_on_c, 0, 64, 0
4, 17490, Note_on_c, 0, 60, 0
4, 17510, Control_c, 0, 64, 0
4, 17599, Control_c, 0, 64, 64
4, 17600, Note_on_c, 0, 59, 58
4, 17600, Note_on_c, 0, 64, 58
4, 17610, Note_on_c, 0, 64, 0
4, 17610, Note_on_c, 0, 59, 0
4, 17720, Note_on_c, 0, 59, 58
4, 17720, Note_on_c, 0, 64, 58
4, 17730, Note_on_c, 0, 64, 0
4, 17730, Note_on_c, 0, 59, 0
4, 17750, Control_c, 0, 64, 0
4, 17839, Control_c, 0, 64, 64
4, 17840, Note_on_c, 0, 62, 58
4, 17840, Note_on_c, 0, 65, 58
4, 17850, Note_on_c, 0, 65, 0
4, 17850, Note_on_c, 0, 62, 0
4, 17960, Note_on_c, 0, 62, 58
4, 17960, Note_on_c, 0, 65, 58
4, 17970, Note_on_c, 0, 65, 0
4, 17970, Note_on_c, 0, 62, 0
4, 17990, Control_c, 0, 64, 0
4, 18079, Control_c, 0, 64, 64
4, 18080, Note_on_c, 0, 59, 58
4, 18080, Note_on_c, 0, 65, 58
4, 18090, Note_on_c, 0, 65, 0
4, 18090, Note_on_c, 0, 59, 0
4, 18200, Note_on_c, 0, 59, 58
4, 18200, Note_on_c, 0, 65, 58
4, 18210, Note_on_c, 0, 65, 0
4, 18210, Note_on_c, 0, 59, 0
4, 18230, Control_c, 0, 64, 0
4, 18319, Control_c, 0, 64, 64
4, 18320, Note_on_c, 0, 64, 58
4, 18320, Note_on_c, 0, 60, 58
4, 18330, Note_on_c, 0, 60, 0
4, 18330, Note_on_c, 0, 64, 0
4, 18440, Note_on_c, 0, 60, 58
4, 18440, Note_on_c, 0, 64, 58
4, 18450, Note_on_c, 0, 64, 0
4, 18450, Note_on_c, 0, 60, 0
4, 18470, Control_c, 0, 64, 0
4, 18559, Control_c, 0, 64, 64
4, 18560, Note_on_c, 0, 62, 58
4, 18560, Note_on_c, 0, 64, 58
4, 18570, Note_on_c, 0, 64, 0
4, 18570, Note_on_c, 0, 62, 0
4, 18680, Note_on_c, 0, 62, 58
4, 18680, Note_on_c, 0, 64, 58
4, 18690, Note_on_c, 0, 64, 0
4, 18690, Note_on_c, 0, 62, 0
4, 18950, Control_c, 0, 64, 0
4, 19039, Control_c, 0, 64, 64
4, 19160, Note_on_c, 0, 60, 58
4, 19160, Note_on_c, 0, 67, 58
4, 19170, Note_on_c, 0, 67, 0
4, 19170, Note_on_c, 0, 60, 0
4, 19190, Control_c, 0, 64, 0
4, 19279, Control_c, 0, 64, 64
4, 19280, Note_on_c, 0, 62, 58
4, 19280, Note_on_c, 0, 65, 58
4, 19290, Note_on_c, 0, 65, 0
4, 19290, Note_on_c, 0, 62, 0
4, 19400, Note_on_c, 0, 62, 58
4, 19400, Note_on_c, 0, 65, 58
4, 19410, Note_on_c, 0, 65, 0
4, 19410, Note_on_c, 0, 62, 0
4, 19430, Control_c, 0, 64, 0
4, 19519, Control_c, 0, 64, 64
4, 19520, Note_on_c, 0, 62, 58
4, 19520, Note_on_c, 0, 65, 58
4, 19530, Note_on_c, 0, 65, 0
4, 19530, Note_on_c, 0, 62, 0
4, 19640, Note_on_c, 0, 62, 58
4, 19640, Note_on_c, 0, 65, 58
4, 19650, Note_on_c, 0, 65, 0
4, 19650, Note_on_c, 0, 62, 0
4, 19670, Control_c, 0, 64, 0
4, 19759, Control_c, 0, 64, 64
4, 19760, Note_on_c, 0, 60, 58
4, 19760, Note_on_c, 0, 64, 58
4, 19770, Note_on_c, 0, 64, 0
4, 19770, Note_on_c, 0, 60, 0
4, 19880, Note_on_c, 0, 60, 58
4, 19880, Note_on_c, 0, 64, 58
4, 19890, Note_on_c, 0, 64, 0
4, 19890, Note_on_c, 0, 60, 0
4, 19910, Control_c, 0, 64, 0
4, 19999, Control_c, 0, 64, 64
4, 20000, Note_on_c, 0, 62, 58
4, 20000, Note_on_c, 0, 64, 58
4, 20010, Note_on_c, 0, 64, 0
4, 20010, Note_on_c, 0, 62, 0
4, 20120, Note_on_c, 0, 62, 58
4, 20120, Note_on_c, 0, 64, 58
4, 20130, Note_on_c, 0, 64, 0
4, 20130, Note_on_c, 0, 62, 0
4, 20150, Control_c, 0, 64, 0
4, 20239, Control_c, 0, 64, 64
4, 20240, Note_on_c, 0, 64, 58
4, 20240, Note_on_c, 0, 60, 58
4, 20250, Note_on_c, 0, 60, 0
4, 20250, Note_on_c, 0, 64, 0
4, 20360, Note_on_c, 0, 60, 58
4, 20360, Note_on_c, 0, 64, 58
4, 20370, Note_on_c, 0, 64, 0
4, 20370, Note_on_c, 0, 60, 0
4, 20390, Control_c, 0, 64, 0
4, 20479, Control_c, 0, 64, 64
4, 20480, Note_on_c, 0, 62, 58
4, 20480, Note_on_c, 0, 64, 58
4, 20490, Note_on_c, 0, 64, 0
4, 20490, Note_on_c, 0, 62, 0
4, 20600, Note_on_c, 0, 62, 58
4, 20600, Note_on_c, 0, 64, 58
4, 20610, Note_on_c, 0, 64, 0
4, 20610, Note_on_c, 0, 62, 0
4, 20870, Control_c, 0, 64, 0
4, 20959, Control_c, 0, 64, 64
4, 21080, Note_on_c, 0, 60, 58
4, 21080, Note_on_c, 0, 67, 58
4, 21090, Note_on_c, 0, 67, 0
4, 21090, Note_on_c, 0, 60, 0
4, 21110, Control_c, 0, 64, 0
4, 21199, Control_c, 0, 64, 64
4, 21200, Note_on_c, 0, 62, 58
4, 21200, Note_on_c, 0, 65, 58
4, 21210, Note_on_c, 0, 65, 0
4, 21210, Note_on_c, 0, 62, 0
4, 21320, Note_on_c, 0, 62, 58
4, 21320, Note_on_c, 0, 65, 58
4, 21330, Note_on_c, 0, 65, 0
4, 21330, Note_on_c, 0, 62, 0
4, 21350, Control_c, 0, 64, 0
4, 21439, Control_c, 0, 64, 64
4, 21440, Note_on_c, 0, 62, 58
4, 21440, Note_on_c, 0, 65, 58
4, 21450, Note_on_c, 0, 65, 0
4, 21450, Note_on_c, 0, 62, 0
4, 21560, Note_on_c, 0, 62, 58
4, 21560, Note_on_c, 0, 65, 58
4, 21570, Note_on_c, 0, 65, 0
4, 21570, Note_on_c, 0, 62, 0
4, 21830, Control_c, 0, 64, 0
4, 21919, Control_c, 0, 64, 64
4, 21920, Note_on_c, 0, 60, 58
4, 21920, Note_on_c, 0, 64, 58
4, 21930, Note_on_c, 0, 64, 0
4, 21930, Note_on_c, 0, 60, 0
4, 22040, Note_on_c, 0, 60, 58
4, 22040, Note_on_c, 0, 64, 58
4, 22050, Note_on_c, 0, 64, 0
4, 22050, Note_on_c, 0, 60, 0
4, 22158, Control_c, 0, 64, 0
4, 22159, Control_c, 0, 64, 64
4, 22160, Note_on_c, 0, 60, 58
4, 22160, Note_on_c, 0, 64, 58
4, 22170, Note_on_c, 0, 64, 0
4, 22170, Note_on_c, 0, 60, 0
4, 22280, Note_on_c, 0, 60, 58
4, 22280, Note_on_c, 0, 64, 58
4, 22290, Note_on_c, 0, 64, 0
4, 22290, Note_on_c, 0, 60, 0
4, 22310, Control_c, 0, 64, 0
4, 22399, Control_c, 0, 64, 64
4, 22400, Note_on_c, 0, 59, 58
4, 22400, Note_on_c, 0, 64, 58
4, 22410, Note_on_c, 0, 64, 0
4, 22410, Note_on_c, 0, 59, 0
4, 22520, Note_on_c, 0, 59, 58
4, 22520, Note_on_c, 0, 64, 58
4, 22530, Note_on_c, 0, 64, 0
4, 22530, Note_on_c, 0, 59, 0
4, 22550, Control_c, 0, 64, 0
4, 22639, Control_c, 0, 64, 64
4, 22640, Note_on_c, 0, 62, 58
4, 22640, Note_on_c, 0, 65, 58
4, 22650, Note_on_c, 0, 65, 0
4, 22650, Note_on_c, 0, 62, 0
4, 22760, Note_on_c, 0, 62, 58
4, 22760, Note_on_c, 0, 65, 58
4, 22770, Note_on_c, 0, 65, 0
4, 22770, Note_on_c, 0, 62, 0
4, 22790, Control_c, 0, 64, 0
4, 22879, Control_c, 0, 64, 64
4, 22880, Note_on_c, 0, 59, 58
4, 22880, Note_on_c, 0, 65, 58
4, 22890, Note_on_c, 0, 65, 0
4, 22890, Note_on_c, 0, 59, 0
4, 23000, Note_on_c, 0, 59, 58
4, 23000, Note_on_c, 0, 65, 58
4, 23010, Note_on_c, 0, 65, 0
4, 23010, Note_on_c, 0, 59, 0
4, 23030, Control_c, 0, 64, 0
4, 23119, Control_c, 0, 64, 64
4, 23120, Note_on_c, 0, 60, 58
4, 23120, Note_on_c, 0, 64, 58
4, 23130, Note_on_c, 0, 64, 0
4, 23130, Note_on_c, 0, 60, 0
4, 23240, Note_on_c, 0, 60, 58
4, 23240, Note_on_c, 0, 64, 58
4, 23250, Note_on_c, 0, 64, 0
4, 23250, Note_on_c, 0, 60, 0
4, 23270, Control_c, 0, 64, 0
4, 23359, Control_c, 0, 64, 64
4, 23360, Note_on_c, 0, 59, 58
4, 23360, Note_on_c, 0, 64, 58
4, 23370, Note_on_c, 0, 64, 0
4, 23370, Note_on_c, 0, 59, 0
4, 23480, Note_on_c, 0, 59, 58
4, 23480, Note_on_c, 0, 64, 58
4, 23490, Note_on_c, 0, 64, 0
4, 23490, Note_on_c, 0, 59, 0
4, 23510, Control_c, 0, 64, 0
4, 23599, Control_c, 0, 64, 64
4, 23600, Note_on_c, 0, 62, 58
4, 23600, Note_on_c, 0, 65, 58
4, 23610, Note_on_c, 0, 65, 0
4, 23610, Note_on_c, 0, 62, 0
4, 23720, Note_on_c, 0, 62, 58
4, 23720, Note_on_c, 0, 65, 58
4, 23730, Note_on_c, 0, 65, 0
4, 23730, Note_on_c, 0, 62, 0
4, 23750, Control_c, 0, 64, 0
4, 23839, Control_c, 0, 64, 64
4, 23840, Note_on_c, 0, 59, 58
4, 23840, Note_on_c, 0, 65, 58
4, 23850, Note_on_c, 0, 65, 0
4, 23850, Note_on_c, 0, 59, 0
4, 23960, Note_on_c, 0, 59, 58
4, 23960, Note_on_c, 0, 65, 58
4, 23970, Note_on_c, 0, 65, 0
4, 23970, Note_on_c, 0, 59, 0
4, 23990, Control_c, 0, 64, 0
4, 24079, Control_c, 0, 64, 64
4, 24080, Note_on_c, 0, 64, 58
4, 24080, Note_on_c, 0, 60, 58
4, 24090, Note_on_c, 0, 60, 0
4, 24090, Note_on_c, 0, 64, 0
4, 24200, Note_on_c, 0, 60, 58
4, 24200, Note_on_c, 0, 64, 58
4, 24210, Note_on_c, 0, 64, 0
4, 24210, Note_on_c, 0, 60, 0
4, 24230, Control_c, 0, 64, 0
4, 24319, Control_c, 0, 64, 64
4, 24320, Note_on_c, 0, 62, 58
4, 24320, Note_on_c, 0, 64, 58
4, 24330, Note_on_c, 0, 64, 0
4, 24330, Note_on_c, 0, 62, 0
4, 24440, Note_on_c, 0, 62, 58
4, 24440, Note_on_c, 0, 64, 58
4, 24450, Note_on_c, 0, 64, 0
4, 24450, Note_on_c, 0, 62, 0
4, 24710, Control_c, 0, 64, 0
4, 24799, Control_c, 0, 64, 64
4, 24920, Note_on_c, 0, 60, 58
4, 24920, Note_on_c, 0, 67, 58
4, 24930, Note_on_c, 0, 67, 0
4, 24930, Note_on_c, 0, 60, 0
4, 24950, Control_c, 0, 64, 0
4, 25039, Control_c, 0, 64, 64
4, 25040, Note_on_c, 0, 62, 58
4, 25040, Note_on_c, 0, 65, 58
4, 25050, Note_on_c, 0, 65, 0
4, 25050, Note_on_c, 0, 62, 0
4, 25160, Note_on_c, 0, 62, 58
4, 25160, Note_on_c, 0, 65, 58
4, 25170, Note_on_c, 0, 65, 0
4, 25170, Note_on_c, 0, 62, 0
4, 25190, Control_c, 0, 64, 0
4, 25279, Control_c, 0, 64, 64
4, 25280, Note_on_c, 0, 62, 58
4, 25280, Note_on_c, 0, 65, 58
4, 25290, Note_on_c, 0, 65, 0
4, 25290, Note_on_c, 0, 62, 0
4, 25400, Note_on_c, 0, 62, 58
4, 25400, Note_on_c, 0, 65, 58
4, 25410, Note_on_c, 0, 65, 0
4, 25410, Note_on_c, 0, 62, 0
4, 25430, Control_c, 0, 64, 0
4, 25519, Control_c, 0, 64, 64
4, 25520, Note_on_c, 0, 60, 58
4, 25520, Note_on_c, 0, 64, 58
4, 25530, Note_on_c, 0, 64, 0
4, 25530, Note_on_c, 0, 60, 0
4, 25640, Note_on_c, 0, 60, 58
4, 25640, Note_on_c, 0, 64, 58
4, 25650, Note_on_c, 0, 64, 0
4, 25650, Note_on_c, 0, 60, 0
4, 25670, Control_c, 0, 64, 0
4, 25759, Control_c, 0, 64, 64
4, 25760, Note_on_c, 0, 62, 58
4, 25760, Note_on_c, 0, 64, 58
4, 25770, Note_on_c, 0, 64, 0
4, 25770, Note_on_c, 0, 62, 0
4, 25880, Note_on_c, 0, 62, 58
4, 25880, Note_on_c, 0, 64, 58
4, 25890, Note_on_c, 0, 64, 0
4, 25890, Note_on_c, 0, 62, 0
4, 25910, Control_c, 0, 64, 0
4, 25999, Control_c, 0, 64, 64
4, 26000, Note_on_c, 0, 64, 58
4, 26000, Note_on_c, 0, 60, 58
4, 26010, Note_on_c, 0, 60, 0
4, 26010, Note_on_c, 0, 64, 0
4, 26120, Note_on_c, 0, 60, 58
4, 26120, Note_on_c, 0, 64, 58
4, 26130, Note_on_c, 0, 64, 0
4, 26130, Note_on_c, 0, 60, 0
4, 26150, Control_c, 0, 64, 0
4, 26239, Control_c, 0, 64, 64
4, 26240, Note_on_c, 0, 62, 58
4, 26240, Note_on_c, 0, 64, 58
4, 26250, Note_on_c, 0, 64, 0
4, 26250, Note_on_c, 0, 62, 0
4, 26360, Note_on_c, 0, 62, 58
4, 26360, Note_on_c, 0, 64, 58
4, 26370, Note_on_c, 0, 64, 0
4, 26370, Note_on_c, 0, 62, 0
4, 26630, Control_c, 0, 64, 0
4, 26719, Control_c, 0, 64, 64
4, 26840, Note_on_c, 0, 60, 58
4, 26840, Note_on_c, 0, 67, 58
4, 26850, Note_on_c, 0, 67, 0
4, 26850, Note_on_c, 0, 60, 0
4, 26870, Control_c, 0, 64, 0
4, 26959, Control_c, 0, 64, 64
4, 26960, Note_on_c, 0, 62, 58
4, 26960, Note_on_c, 0, 65, 58
4, 26970, Note_on_c, 0, 65, 0
4, 26970, Note_on_c, 0, 62, 0
4, 27080, Note_on_c, 0, 62, 58
4, 27080, Note_on_c, 0, 65, 58
4, 27090, Note_on_c, 0, 65, 0
4, 27090, Note_on_c, 0, 62, 0
4, 27110, Control_c, 0, 64, 0
4, 27199, Control_c, 0, 64, 64
4, 27200, Note_on_c, 0, 62, 58
4, 27200, Note_on_c, 0, 65, 58
4, 27210, Note_on_c, 0, 65, 0
4, 27210, Note_on_c, 0, 62, 0
4, 27320, Note_on_c, 0, 62, 58
4, 27320, Note_on_c, 0, 65, 58
4, 27330, Note_on_c, 0, 65, 0
4, 27330, Note_on_c, 0, 62, 0
4, 27590, Control_c, 0, 64, 0
4, 27679, Control_c, 0, 64, 64
4, 27680, Note_on_c, 0, 60, 58
4, 27680, Note_on_c, 0, 64, 58
4, 27690, Note_on_c, 0, 64, 0
4, 27690, Note_on_c, 0, 60, 0
4, 27800, Note_on_c, 0, 60, 58
4, 27800, Note_on_c, 0, 64, 58
4, 27810, Note_on_c, 0, 64, 0
4, 27810, Note_on_c, 0, 60, 0
4, 27918, Control_c, 0, 64, 0
4, 27919, Control_c, 0, 64, 64
4, 27920, Note_on_c, 0, 60, 58
4, 27920, Note_on_c, 0, 64, 58
4, 27930, Note_on_c, 0, 64, 0
4, 27930, Note_on_c, 0, 60, 0
4, 28040, Note_on_c, 0, 60, 58
4, 28040, Note_on_c, 0, 64, 58
4, 28050, Note_on_c, 0, 64, 0
4, 28050, Note_on_c, 0, 60, 0
4, 28070, Control_c, 0, 64, 0
4, 28084, Control_c, 0, 11, 126
4, 28086, Control_c, 0, 11, 125
4, 28102, Control_c, 0, 11, 124
4, 28118, Control_c, 0, 11, 123
4, 28134, Control_c, 0, 11, 122
4, 28148, Control_c, 0, 11, 121
4, 28159, Control_c, 0, 64, 64
4, 28160, Note_on_c, 0, 59, 58
4, 28160, Note_on_c, 0, 64, 58
4, 28164, Control_c, 0, 11, 120
4, 28170, Note_on_c, 0, 64, 0
4, 28170, Note_on_c, 0, 59, 0
4, 28180, Control_c, 0, 11, 119
4, 28194, Control_c, 0, 11, 118
4, 28210, Control_c, 0, 11, 117
4, 28226, Control_c, 0, 11, 116
4, 28242, Control_c, 0, 11, 115
4, 28256, Control_c, 0, 11, 114
4, 28272, Control_c, 0, 11, 113
4, 28280, Note_on_c, 0, 59, 58
4, 28280, Note_on_c, 0, 64, 58
4, 28288, Control_c, 0, 11, 112
4, 28290, Note_on_c, 0, 64, 0
4, 28290, Note_on_c, 0, 59, 0
4, 28302, Control_c, 0, 11, 111
4, 28310, Control_c, 0, 64, 0
4, 28318, Control_c, 0, 11, 110
4, 28334, Control_c, 0, 11, 109
4, 28350, Control_c, 0, 11, 108
4, 28364, Control_c, 0, 11, 107
4, 28380, Control_c, 0, 11, 106
4, 28396, Control_c, 0, 11, 105
4, 28399, Control_c, 0, 64, 64
4, 28400, Note_on_c, 0, 62, 58
4, 28400, Note_on_c, 0, 65, 58
4, 28410, Note_on_c, 0, 65, 0
4, 28410, Note_on_c, 0, 62, 0
4, 28410, Control_c, 0, 11, 104
4, 28426, Control_c, 0, 11, 103
4, 28442, Control_c, 0, 11, 102
4, 28458, Control_c, 0, 11, 101
4, 28472, Control_c, 0, 11, 100
4, 28488, Control_c, 0, 11, 99
4, 28504, Control_c, 0, 11, 98
4, 28518, Control_c, 0, 11, 97
4, 28520, Note_on_c, 0, 62, 58
4, 28520, Note_on_c, 0, 65, 58
4, 28530, Note_on_c, 0, 65, 0
4, 28530, Note_on_c, 0, 62, 0
4, 28534, Control_c, 0, 11, 96
4, 28550, Control_c, 0, 64, 0
4, 28550, Control_c, 0, 11, 95
4, 28564, Control_c, 0, 11, 94
4, 28580, Control_c, 0, 11, 93
4, 28596, Control_c, 0, 11, 92
4, 28612, Control_c, 0, 11, 91
4, 28626, Control_c, 0, 11, 90
4, 28639, Control_c, 0, 64, 64
4, 28640, Note_on_c, 0, 59, 58
4, 28640, Note_on_c, 0, 65, 58
4, 28642, Control_c, 0, 11, 89
4, 28650, Note_on_c, 0, 65, 0
4, 28650, Note_on_c, 0, 59, 0
4, 28658, Control_c, 0, 11, 88
4, 28672, Control_c, 0, 11, 87
4, 28688, Control_c, 0, 11, 86
4, 28704, Control_c, 0, 11, 85
4, 28720, Control_c, 0, 11, 84
4, 28734, Control_c, 0, 11, 83
4, 28750, Control_c, 0, 11, 82
4, 28760, Note_on_c, 0, 59, 58
4, 28760, Note_on_c, 0, 65, 58
4, 28766, Control_c, 0, 11, 81
4, 28770, Note_on_c, 0, 65, 0
4, 28770, Note_on_c, 0, 59, 0
4, 28780, Control_c, 0, 11, 80
4, 28790, Control_c, 0, 64, 0
4, 28796, Control_c, 0, 11, 79
4, 28812, Control_c, 0, 11, 78
4, 28828, Control_c, 0, 11, 77
4, 28842, Control_c, 0, 11, 76
4, 28858, Control_c, 0, 11, 75
4, 28874, Control_c, 0, 11, 74
4, 28879, Control_c, 0, 64, 64
4, 28880, Note_on_c, 0, 60, 58
4, 28880, Note_on_c, 0, 64, 58
4, 28888, Control_c, 0, 11, 73
4, 28890, Note_on_c, 0, 64, 0
4, 28890, Note_on_c, 0, 60, 0
4, 28904, Control_c, 0, 11, 72
4, 28920, Control_c, 0, 11, 71
4, 28936, Control_c, 0, 11, 70
4, 28950, Control_c, 0, 11, 69
4, 28966, Control_c, 0, 11, 68
4, 28982, Control_c, 0, 11, 67
4, 28996, Control_c, 0, 11, 66
4, 29000, Note_on_c, 0, 60, 58
4, 29000, Note_on_c, 0, 64, 58
4, 29010, Note_on_c, 0, 64, 0
4, 29010, Note_on_c, 0, 60, 0
4, 29012, Control_c, 0, 11, 65
4, 29028, Control_c, 0, 11, 64
4, 29030, Control_c, 0, 64, 0
4, 29042, Control_c, 0, 11, 62
4, 29054, Control_c, 0, 11, 61
4, 29066, Control_c, 0, 11, 60
4, 29078, Control_c, 0, 11, 59
4, 29090, Control_c, 0, 11, 58
4, 29102, Control_c, 0, 11, 57
4, 29114, Control_c, 0, 11, 56
4, 29119, Control_c, 0, 64, 64
4, 29120, Note_on_c, 0, 59, 58
4, 29120, Note_on_c, 0, 64, 58
4, 29126, Control_c, 0, 11, 55
4, 29130, Note_on_c, 0, 64, 0
4, 29130, Note_on_c, 0, 59, 0
4, 29138, Control_c, 0, 11, 54
4, 29150, Control_c, 0, 11, 53
4, 29162, Control_c, 0, 11, 52
4, 29174, Control_c, 0, 11, 51
4, 29186, Control_c, 0, 11, 50
4, 29198, Control_c, 0, 11, 49
4, 29210, Control_c, 0, 11, 48
4, 29222, Control_c, 0, 11, 47
4, 29234, Control_c, 0, 11, 46
4, 29240, Note_on_c, 0, 59, 58
4, 29240, Note_on_c, 0, 64, 58
4, 29246, Control_c, 0, 11, 45
4, 29250, Note_on_c, 0, 64, 0
4, 29250, Note_on_c, 0, 59, 0
4, 29258, Control_c, 0, 11, 44
4, 29270, Control_c, 0, 64, 0
4, 29270, Control_c, 0, 11, 43
4, 29282, Control_c, 0, 11, 42
4, 29294, Control_c, 0, 11, 41
4, 29306, Control_c, 0, 11, 40
4, 29318, Control_c, 0, 11, 39
4, 29330, Control_c, 0, 11, 38
4, 29342, Control_c, 0, 11, 37
4, 29354, Control_c, 0, 11, 36
4, 29359, Control_c, 0, 64, 64
4, 29360, Note_on_c, 0, 62, 58
4, 29360, Note_on_c, 0, 65, 58
4, 29366, Control_c, 0, 11, 35
4, 29370, Note_on_c, 0, 65, 0
4, 29370, Note_on_c, 0, 62, 0
4, 29378, Control_c, 0, 11, 34
4, 29390, Control_c, 0, 11, 33
4, 29400, Control_c, 0, 11, 32
4, 29412, Control_c, 0, 11, 31
4, 29424, Control_c, 0, 11, 30
4, 29436, Control_c, 0, 11, 29
4, 29448, Control_c, 0, 11, 28
4, 29460, Control_c, 0, 11, 27
4, 29472, Control_c, 0, 11, 26
4, 29480, Note_on_c, 0, 62, 58
4, 29480, Note_on_c, 0, 65, 58
4, 29484, Control_c, 0, 11, 25
4, 29490, Note_on_c, 0, 65, 0
4, 29490, Note_on_c, 0, 62, 0
4, 29496, Control_c, 0, 11, 24
4, 29508, Control_c, 0, 11, 23
4, 29510, Control_c, 0, 64, 0
4, 29520, Control_c, 0, 11, 22
4, 29532, Control_c, 0, 11, 21
4, 29544, Control_c, 0, 11, 20
4, 29556, Control_c, 0, 11, 19
4, 29568, Control_c, 0, 11, 18
4, 29580, Control_c, 0, 11, 17
4, 29592, Control_c, 0, 11, 16
4, 29599, Control_c, 0, 64, 64
4, 29600, Note_on_c, 0, 59, 58
4, 29600, Note_on_c, 0, 65, 58
4, 29604, Control_c, 0, 11, 15
4, 29610, Note_on_c, 0, 65, 0
4, 29610, Note_on_c, 0, 59, 0
4, 29616, Control_c, 0, 11, 14
4, 29628, Control_c, 0, 11, 13
4, 29640, Control_c, 0, 11, 12
4, 29652, Control_c, 0, 11, 11
4, 29664, Control_c, 0, 11, 10
4, 29676, Control_c, 0, 11, 9
4, 29688, Control_c, 0, 11, 8
4, 29700, Control_c, 0, 11, 7
4, 29712, Control_c, 0, 11, 6
4, 29720, Note_on_c, 0, 59, 58
4, 29720, Note_on_c, 0, 65, 58
4, 29724, Control_c, 0, 11, 5
4, 29730, Note_on_c, 0, 65, 0
4, 29730, Note_on_c, 0, 59, 0
4, 29736, Control_c, 0, 11, 4
4, 29748, Control_c, 0, 11, 3
4, 29750, Control_c, 0, 64, 0
4, 29758, Control_c, 0, 11, 2
4, 29758, End_track
5, 0, Start_track
5, 0, MIDI_port, 0
5, 0, Title_t, "ACCORDS AIGUS"
5, 0, Program_c, 5, 25
5, 0, Control_c, 5, 7, 127
5, 0, Control_c, 5, 0, 0
5, 0, Control_c, 5, 32, 0
5, 960, Note_on_c, 5, 69, 85
5, 960, Note_on_c, 5, 64, 85
5, 1078, Note_on_c, 5, 64, 0
5, 1078, Note_on_c, 5, 69, 0
5, 1080, Note_on_c, 5, 69, 85
5, 1080, Note_on_c, 5, 64, 85
5, 1198, Note_on_c, 5, 64, 0
5, 1198, Note_on_c, 5, 69, 0
5, 1200, Note_on_c, 5, 71, 85
5, 1200, Note_on_c, 5, 64, 85
5, 1318, Note_on_c, 5, 64, 0
5, 1318, Note_on_c, 5, 71, 0
5, 1320, Note_on_c, 5, 71, 85
5, 1320, Note_on_c, 5, 64, 85
5, 1438, Note_on_c, 5, 64, 0
5, 1438, Note_on_c, 5, 71, 0
5, 1440, Note_on_c, 5, 69, 85
5, 1440, Note_on_c, 5, 64, 85
5, 1558, Note_on_c, 5, 64, 0
5, 1558, Note_on_c, 5, 69, 0
5, 1560, Note_on_c, 5, 64, 85
5, 1560, Note_on_c, 5, 69, 85
5, 1678, Note_on_c, 5, 69, 0
5, 1678, Note_on_c, 5, 64, 0
5, 1680, Note_on_c, 5, 64, 85
5, 1798, Note_on_c, 5, 64, 0
5, 1800, Note_on_c, 5, 64, 85
5, 1800, Note_on_c, 5, 69, 85
5, 1878, Note_on_c, 5, 69, 0
5, 1878, Note_on_c, 5, 64, 0
5, 1880, Note_on_c, 5, 64, 85
5, 1940, Note_on_c, 5, 64, 0
5, 2000, Note_on_c, 5, 65, 85
5, 2060, Note_on_c, 5, 65, 0
5, 2120, Note_on_c, 5, 65, 85
5, 2180, Note_on_c, 5, 65, 0
5, 2240, Note_on_c, 5, 65, 85
5, 2300, Note_on_c, 5, 65, 0
5, 2360, Note_on_c, 5, 65, 85
5, 2399, Note_on_c, 5, 65, 0
5, 2400, Note_on_c, 5, 64, 85
5, 2479, Note_on_c, 5, 64, 0
5, 2480, Note_on_c, 5, 67, 85
5, 2519, Note_on_c, 5, 67, 0
5, 2520, Note_on_c, 5, 67, 85
5, 2599, Note_on_c, 5, 67, 0
5, 2600, Note_on_c, 5, 69, 85
5, 2639, Note_on_c, 5, 69, 0
5, 2640, Note_on_c, 5, 71, 85
5, 2719, Note_on_c, 5, 71, 0
5, 2720, Note_on_c, 5, 71, 85
5, 2759, Note_on_c, 5, 71, 0
5, 2760, Note_on_c, 5, 71, 85
5, 2878, Note_on_c, 5, 71, 0
5, 2880, Note_on_c, 5, 69, 85
5, 2880, Note_on_c, 5, 64, 85
5, 2998, Note_on_c, 5, 64, 0
5, 2998, Note_on_c, 5, 69, 0
5, 3000, Note_on_c, 5, 69, 85
5, 3000, Note_on_c, 5, 64, 85
5, 3118, Note_on_c, 5, 64, 0
5, 3118, Note_on_c, 5, 69, 0
5, 3120, Note_on_c, 5, 71, 85
5, 3120, Note_on_c, 5, 64, 85
5, 3238, Note_on_c, 5, 64, 0
5, 3238, Note_on_c, 5, 71, 0
5, 3240, Note_on_c, 5, 71, 85
5, 3240, Note_on_c, 5, 64, 85
5, 3358, Note_on_c, 5, 64, 0
5, 3358, Note_on_c, 5, 71, 0
5, 3360, Note_on_c, 5, 69, 85
5, 3360, Note_on_c, 5, 64, 85
5, 3478, Note_on_c, 5, 64, 0
5, 3478, Note_on_c, 5, 69, 0
5, 3480, Note_on_c, 5, 64, 85
5, 3480, Note_on_c, 5, 69, 85
5, 3598, Note_on_c, 5, 69, 0
5, 3598, Note_on_c, 5, 64, 0
5, 3600, Note_on_c, 5, 64, 85
5, 3718, Note_on_c, 5, 64, 0
5, 3720, Note_on_c, 5, 64, 85
5, 3720, Note_on_c, 5, 69, 85
5, 3798, Note_on_c, 5, 69, 0
5, 3798, Note_on_c, 5, 64, 0
5, 3800, Note_on_c, 5, 64, 85
5, 3839, Note_on_c, 5, 64, 0
5, 3920, Note_on_c, 5, 65, 85
5, 4038, Note_on_c, 5, 65, 0
5, 4040, Note_on_c, 5, 65, 85
5, 4158, Note_on_c, 5, 65, 0
5, 4160, Note_on_c, 5, 65, 85
5, 4278, Note_on_c, 5, 65, 0
5, 4280, Note_on_c, 5, 65, 85
5, 4319, Note_on_c, 5, 65, 0
5, 4320, Note_on_c, 5, 64, 85
5, 4438, Note_on_c, 5, 64, 0
5, 4440, Note_on_c, 5, 69, 85
5, 4558, Note_on_c, 5, 69, 0
5, 4560, Note_on_c, 5, 69, 85
5, 4678, Note_on_c, 5, 69, 0
5, 4680, Note_on_c, 5, 69, 85
5, 4798, Note_on_c, 5, 69, 0
5, 4800, Note_on_c, 5, 67, 85
5, 4879, Note_on_c, 5, 67, 0
5, 4880, Note_on_c, 5, 67, 85
5, 4919, Note_on_c, 5, 67, 0
5, 4920, Note_on_c, 5, 67, 85
5, 4999, Note_on_c, 5, 67, 0
5, 5000, Note_on_c, 5, 67, 85
5, 5039, Note_on_c, 5, 67, 0
5, 5040, Note_on_c, 5, 67, 85
5, 5119, Note_on_c, 5, 67, 0
5, 5120, Note_on_c, 5, 67, 85
5, 5159, Note_on_c, 5, 67, 0
5, 5160, Note_on_c, 5, 67, 85
5, 5278, Note_on_c, 5, 67, 0
5, 5280, Note_on_c, 5, 69, 85
5, 5359, Note_on_c, 5, 69, 0
5, 5360, Note_on_c, 5, 69, 85
5, 5399, Note_on_c, 5, 69, 0
5, 5400, Note_on_c, 5, 69, 85
5, 5479, Note_on_c, 5, 69, 0
5, 5480, Note_on_c, 5, 69, 85
5, 5519, Note_on_c, 5, 69, 0
5, 5520, Note_on_c, 5, 71, 85
5, 5638, Note_on_c, 5, 71, 0
5, 5640, Note_on_c, 5, 71, 85
5, 5758, Note_on_c, 5, 71, 0
5, 5760, Note_on_c, 5, 67, 85
5, 5878, Note_on_c, 5, 67, 0
5, 5880, Note_on_c, 5, 67, 85
5, 5998, Note_on_c, 5, 67, 0
5, 6000, Note_on_c, 5, 67, 85
5, 6118, Note_on_c, 5, 67, 0
5, 6120, Note_on_c, 5, 67, 85
5, 6238, Note_on_c, 5, 67, 0
5, 6240, Note_on_c, 5, 69, 85
5, 6358, Note_on_c, 5, 69, 0
5, 6360, Note_on_c, 5, 69, 85
5, 6478, Note_on_c, 5, 69, 0
5, 6480, Note_on_c, 5, 71, 85
5, 6598, Note_on_c, 5, 71, 0
5, 6600, Note_on_c, 5, 71, 85
5, 6718, Note_on_c, 5, 71, 0
5, 6720, Note_on_c, 5, 69, 85
5, 6720, Note_on_c, 5, 64, 85
5, 6838, Note_on_c, 5, 64, 0
5, 6838, Note_on_c, 5, 69, 0
5, 6840, Note_on_c, 5, 69, 85
5, 6840, Note_on_c, 5, 64, 85
5, 6958, Note_on_c, 5, 64, 0
5, 6958, Note_on_c, 5, 69, 0
5, 6960, Note_on_c, 5, 71, 85
5, 6960, Note_on_c, 5, 64, 85
5, 7078, Note_on_c, 5, 64, 0
5, 7078, Note_on_c, 5, 71, 0
5, 7080, Note_on_c, 5, 71, 85
5, 7080, Note_on_c, 5, 64, 85
5, 7198, Note_on_c, 5, 64, 0
5, 7198, Note_on_c, 5, 71, 0
5, 7200, Note_on_c, 5, 69, 85
5, 7200, Note_on_c, 5, 64, 85
5, 7318, Note_on_c, 5, 64, 0
5, 7318, Note_on_c, 5, 69, 0
5, 7320, Note_on_c, 5, 64, 85
5, 7320, Note_on_c, 5, 69, 85
5, 7438, Note_on_c, 5, 69, 0
5, 7438, Note_on_c, 5, 64, 0
5, 7440, Note_on_c, 5, 64, 85
5, 7558, Note_on_c, 5, 64, 0
5, 7560, Note_on_c, 5, 64, 85
5, 7560, Note_on_c, 5, 69, 85
5, 7638, Note_on_c, 5, 69, 0
5, 7638, Note_on_c, 5, 64, 0
5, 7640, Note_on_c, 5, 64, 85
5, 7700, Note_on_c, 5, 64, 0
5, 7760, Note_on_c, 5, 65, 85
5, 7820, Note_on_c, 5, 65, 0
5, 7880, Note_on_c, 5, 65, 85
5, 7940, Note_on_c, 5, 65, 0
5, 8000, Note_on_c, 5, 65, 85
5, 8060, Note_on_c, 5, 65, 0
5, 8120, Note_on_c, 5, 65, 85
5, 8159, Note_on_c, 5, 65, 0
5, 8160, Note_on_c, 5, 64, 85
5, 8239, Note_on_c, 5, 64, 0
5, 8240, Note_on_c, 5, 64, 85
5, 8279, Note_on_c, 5, 64, 0
5, 8280, Note_on_c, 5, 64, 85
5, 8359, Note_on_c, 5, 64, 0
5, 8360, Note_on_c, 5, 69, 85
5, 8399, Note_on_c, 5, 69, 0
5, 8400, Note_on_c, 5, 71, 85
5, 8479, Note_on_c, 5, 71, 0
5, 8480, Note_on_c, 5, 71, 85
5, 8519, Note_on_c, 5, 71, 0
5, 8520, Note_on_c, 5, 71, 85
5, 8638, Note_on_c, 5, 71, 0
5, 8640, Note_on_c, 5, 69, 85
5, 8640, Note_on_c, 5, 64, 85
5, 8758, Note_on_c, 5, 64, 0
5, 8758, Note_on_c, 5, 69, 0
5, 8760, Note_on_c, 5, 69, 85
5, 8760, Note_on_c, 5, 64, 85
5, 8878, Note_on_c, 5, 64, 0
5, 8878, Note_on_c, 5, 69, 0
5, 8880, Note_on_c, 5, 71, 85
5, 8880, Note_on_c, 5, 64, 85
5, 8998, Note_on_c, 5, 64, 0
5, 8998, Note_on_c, 5, 71, 0
5, 9000, Note_on_c, 5, 71, 85
5, 9000, Note_on_c, 5, 64, 85
5, 9118, Note_on_c, 5, 64, 0
5, 9118, Note_on_c, 5, 71, 0
5, 9120, Note_on_c, 5, 69, 85
5, 9120, Note_on_c, 5, 64, 85
5, 9238, Note_on_c, 5, 64, 0
5, 9238, Note_on_c, 5, 69, 0
5, 9240, Note_on_c, 5, 64, 85
5, 9240, Note_on_c, 5, 69, 85
5, 9358, Note_on_c, 5, 69, 0
5, 9358, Note_on_c, 5, 64, 0
5, 9360, Note_on_c, 5, 64, 85
5, 9478, Note_on_c, 5, 64, 0
5, 9480, Note_on_c, 5, 64, 85
5, 9480, Note_on_c, 5, 69, 85
5, 9558, Note_on_c, 5, 69, 0
5, 9558, Note_on_c, 5, 64, 0
5, 9560, Note_on_c, 5, 64, 85
5, 9599, Note_on_c, 5, 64, 0
5, 9680, Note_on_c, 5, 65, 85
5, 9798, Note_on_c, 5, 65, 0
5, 9800, Note_on_c, 5, 65, 85
5, 9918, Note_on_c, 5, 65, 0
5, 9920, Note_on_c, 5, 65, 85
5, 10038, Note_on_c, 5, 65, 0
5, 10040, Note_on_c, 5, 65, 85
5, 10079, Note_on_c, 5, 65, 0
5, 10080, Note_on_c, 5, 64, 85
5, 10198, Note_on_c, 5, 64, 0
5, 10200, Note_on_c, 5, 69, 85
5, 10318, Note_on_c, 5, 69, 0
5, 10320, Note_on_c, 5, 69, 85
5, 10438, Note_on_c, 5, 69, 0
5, 10440, Note_on_c, 5, 69, 85
5, 10558, Note_on_c, 5, 69, 0
5, 10560, Note_on_c, 5, 67, 85
5, 10639, Note_on_c, 5, 67, 0
5, 10640, Note_on_c, 5, 67, 85
5, 10679, Note_on_c, 5, 67, 0
5, 10680, Note_on_c, 5, 67, 85
5, 10759, Note_on_c, 5, 67, 0
5, 10760, Note_on_c, 5, 67, 85
5, 10799, Note_on_c, 5, 67, 0
5, 10800, Note_on_c, 5, 67, 85
5, 10879, Note_on_c, 5, 67, 0
5, 10880, Note_on_c, 5, 67, 85
5, 10919, Note_on_c, 5, 67, 0
5, 10920, Note_on_c, 5, 67, 85
5, 11038, Note_on_c, 5, 67, 0
5, 11040, Note_on_c, 5, 69, 85
5, 11119, Note_on_c, 5, 69, 0
5, 11120, Note_on_c, 5, 69, 85
5, 11159, Note_on_c, 5, 69, 0
5, 11160, Note_on_c, 5, 69, 85
5, 11239, Note_on_c, 5, 69, 0
5, 11240, Note_on_c, 5, 69, 85
5, 11279, Note_on_c, 5, 69, 0
5, 11280, Note_on_c, 5, 71, 85
5, 11398, Note_on_c, 5, 71, 0
5, 11400, Note_on_c, 5, 71, 85
5, 11518, Note_on_c, 5, 71, 0
5, 11520, Note_on_c, 5, 67, 85
5, 11638, Note_on_c, 5, 67, 0
5, 11640, Note_on_c, 5, 67, 85
5, 11758, Note_on_c, 5, 67, 0
5, 11760, Note_on_c, 5, 67, 85
5, 11878, Note_on_c, 5, 67, 0
5, 11880, Note_on_c, 5, 67, 85
5, 11998, Note_on_c, 5, 67, 0
5, 12000, Note_on_c, 5, 69, 85
5, 12118, Note_on_c, 5, 69, 0
5, 12120, Note_on_c, 5, 69, 85
5, 12238, Note_on_c, 5, 69, 0
5, 12240, Note_on_c, 5, 71, 85
5, 12358, Note_on_c, 5, 71, 0
5, 12360, Note_on_c, 5, 71, 85
5, 12478, Note_on_c, 5, 71, 0
5, 16320, Note_on_c, 5, 67, 85
5, 16399, Note_on_c, 5, 67, 0
5, 16400, Note_on_c, 5, 67, 85
5, 16439, Note_on_c, 5, 67, 0
5, 16440, Note_on_c, 5, 67, 85
5, 16519, Note_on_c, 5, 67, 0
5, 16520, Note_on_c, 5, 67, 85
5, 16559, Note_on_c, 5, 67, 0
5, 16560, Note_on_c, 5, 67, 85
5, 16639, Note_on_c, 5, 67, 0
5, 16640, Note_on_c, 5, 67, 85
5, 16679, Note_on_c, 5, 67, 0
5, 16680, Note_on_c, 5, 67, 85
5, 16798, Note_on_c, 5, 67, 0
5, 16800, Note_on_c, 5, 69, 85
5, 16879, Note_on_c, 5, 69, 0
5, 16880, Note_on_c, 5, 69, 85
5, 16919, Note_on_c, 5, 69, 0
5, 16920, Note_on_c, 5, 69, 85
5, 16999, Note_on_c, 5, 69, 0
5, 17000, Note_on_c, 5, 69, 85
5, 17039, Note_on_c, 5, 69, 0
5, 17040, Note_on_c, 5, 71, 85
5, 17158, Note_on_c, 5, 71, 0
5, 17160, Note_on_c, 5, 71, 85
5, 17278, Note_on_c, 5, 71, 0
5, 17280, Note_on_c, 5, 67, 85
5, 17398, Note_on_c, 5, 67, 0
5, 17400, Note_on_c, 5, 67, 85
5, 17518, Note_on_c, 5, 67, 0
5, 17520, Note_on_c, 5, 67, 85
5, 17638, Note_on_c, 5, 67, 0
5, 17640, Note_on_c, 5, 67, 85
5, 17758, Note_on_c, 5, 67, 0
5, 17760, Note_on_c, 5, 69, 85
5, 17878, Note_on_c, 5, 69, 0
5, 17880, Note_on_c, 5, 69, 85
5, 17998, Note_on_c, 5, 69, 0
5, 18000, Note_on_c, 5, 71, 85
5, 18118, Note_on_c, 5, 71, 0
5, 18120, Note_on_c, 5, 71, 85
5, 18238, Note_on_c, 5, 71, 0
5, 18240, Note_on_c, 5, 69, 85
5, 18240, Note_on_c, 5, 64, 85
5, 18358, Note_on_c, 5, 64, 0
5, 18358, Note_on_c, 5, 69, 0
5, 18360, Note_on_c, 5, 69, 85
5, 18360, Note_on_c, 5, 64, 85
5, 18478, Note_on_c, 5, 64, 0
5, 18478, Note_on_c, 5, 69, 0
5, 18480, Note_on_c, 5, 71, 85
5, 18480, Note_on_c, 5, 64, 85
5, 18598, Note_on_c, 5, 64, 0
5, 18598, Note_on_c, 5, 71, 0
5, 18600, Note_on_c, 5, 71, 85
5, 18600, Note_on_c, 5, 64, 85
5, 18718, Note_on_c, 5, 64, 0
5, 18718, Note_on_c, 5, 71, 0
5, 18720, Note_on_c, 5, 69, 85
5, 18720, Note_on_c, 5, 64, 85
5, 18838, Note_on_c, 5, 64, 0
5, 18838, Note_on_c, 5, 69, 0
5, 18840, Note_on_c, 5, 64, 85
5, 18840, Note_on_c, 5, 69, 85
5, 18958, Note_on_c, 5, 69, 0
5, 18958, Note_on_c, 5, 64, 0
5, 18960, Note_on_c, 5, 64, 85
5, 19078, Note_on_c, 5, 64, 0
5, 19080, Note_on_c, 5, 64, 85
5, 19080, Note_on_c, 5, 69, 85
5, 19158, Note_on_c, 5, 69, 0
5, 19158, Note_on_c, 5, 64, 0
5, 19160, Note_on_c, 5, 64, 85
5, 19220, Note_on_c, 5, 64, 0
5, 19280, Note_on_c, 5, 65, 85
5, 19340, Note_on_c, 5, 65, 0
5, 19400, Note_on_c, 5, 65, 85
5, 19460, Note_on_c, 5, 65, 0
5, 19520, Note_on_c, 5, 65, 85
5, 19580, Note_on_c, 5, 65, 0
5, 19640, Note_on_c, 5, 65, 85
5, 19679, Note_on_c, 5, 65, 0
5, 19680, Note_on_c, 5, 64, 85
5, 19759, Note_on_c, 5, 64, 0
5, 19760, Note_on_c, 5, 64, 85
5, 19799, Note_on_c, 5, 64, 0
5, 19800, Note_on_c, 5, 64, 85
5, 19879, Note_on_c, 5, 64, 0
5, 19880, Note_on_c, 5, 69, 85
5, 19919, Note_on_c, 5, 69, 0
5, 19920, Note_on_c, 5, 71, 85
5, 19999, Note_on_c, 5, 71, 0
5, 20000, Note_on_c, 5, 71, 85
5, 20039, Note_on_c, 5, 71, 0
5, 20040, Note_on_c, 5, 71, 85
5, 20158, Note_on_c, 5, 71, 0
5, 20160, Note_on_c, 5, 69, 85
5, 20160, Note_on_c, 5, 64, 85
5, 20278, Note_on_c, 5, 64, 0
5, 20278, Note_on_c, 5, 69, 0
5, 20280, Note_on_c, 5, 69, 85
5, 20280, Note_on_c, 5, 64, 85
5, 20398, Note_on_c, 5, 64, 0
5, 20398, Note_on_c, 5, 69, 0
5, 20400, Note_on_c, 5, 71, 85
5, 20400, Note_on_c, 5, 64, 85
5, 20518, Note_on_c, 5, 64, 0
5, 20518, Note_on_c, 5, 71, 0
5, 20520, Note_on_c, 5, 71, 85
5, 20520, Note_on_c, 5, 64, 85
5, 20638, Note_on_c, 5, 64, 0
5, 20638, Note_on_c, 5, 71, 0
5, 20640, Note_on_c, 5, 69, 85
5, 20640, Note_on_c, 5, 64, 85
5, 20758, Note_on_c, 5, 64, 0
5, 20758, Note_on_c, 5, 69, 0
5, 20760, Note_on_c, 5, 64, 85
5, 20760, Note_on_c, 5, 69, 85
5, 20878, Note_on_c, 5, 69, 0
5, 20878, Note_on_c, 5, 64, 0
5, 20880, Note_on_c, 5, 64, 85
5, 20998, Note_on_c, 5, 64, 0
5, 21000, Note_on_c, 5, 64, 85
5, 21000, Note_on_c, 5, 69, 85
5, 21078, Note_on_c, 5, 69, 0
5, 21078, Note_on_c, 5, 64, 0
5, 21080, Note_on_c, 5, 64, 85
5, 21119, Note_on_c, 5, 64, 0
5, 21200, Note_on_c, 5, 65, 85
5, 21318, Note_on_c, 5, 65, 0
5, 21320, Note_on_c, 5, 65, 85
5, 21438, Note_on_c, 5, 65, 0
5, 21440, Note_on_c, 5, 65, 85
5, 21558, Note_on_c, 5, 65, 0
5, 21560, Note_on_c, 5, 65, 85
5, 21599, Note_on_c, 5, 65, 0
5, 21600, Note_on_c, 5, 64, 85
5, 21718, Note_on_c, 5, 64, 0
5, 21720, Note_on_c, 5, 69, 85
5, 21838, Note_on_c, 5, 69, 0
5, 21840, Note_on_c, 5, 69, 85
5, 21958, Note_on_c, 5, 69, 0
5, 21960, Note_on_c, 5, 69, 85
5, 22078, Note_on_c, 5, 69, 0
5, 22080, Note_on_c, 5, 67, 85
5, 22159, Note_on_c, 5, 67, 0
5, 22160, Note_on_c, 5, 67, 85
5, 22199, Note_on_c, 5, 67, 0
5, 22200, Note_on_c, 5, 67, 85
5, 22279, Note_on_c, 5, 67, 0
5, 22280, Note_on_c, 5, 67, 85
5, 22319, Note_on_c, 5, 67, 0
5, 22320, Note_on_c, 5, 67, 85
5, 22399, Note_on_c, 5, 67, 0
5, 22400, Note_on_c, 5, 67, 85
5, 22439, Note_on_c, 5, 67, 0
5, 22440, Note_on_c, 5, 67, 85
5, 22558, Note_on_c, 5, 67, 0
5, 22560, Note_on_c, 5, 69, 85
5, 22639, Note_on_c, 5, 69, 0
5, 22640, Note_on_c, 5, 69, 85
5, 22679, Note_on_c, 5, 69, 0
5, 22680, Note_on_c, 5, 69, 85
5, 22759, Note_on_c, 5, 69, 0
5, 22760, Note_on_c, 5, 69, 85
5, 22799, Note_on_c, 5, 69, 0
5, 22800, Note_on_c, 5, 71, 85
5, 22918, Note_on_c, 5, 71, 0
5, 22920, Note_on_c, 5, 71, 85
5, 23038, Note_on_c, 5, 71, 0
5, 23040, Note_on_c, 5, 67, 85
5, 23158, Note_on_c, 5, 67, 0
5, 23160, Note_on_c, 5, 67, 85
5, 23278, Note_on_c, 5, 67, 0
5, 23280, Note_on_c, 5, 67, 85
5, 23398, Note_on_c, 5, 67, 0
5, 23400, Note_on_c, 5, 67, 85
5, 23518, Note_on_c, 5, 67, 0
5, 23520, Note_on_c, 5, 69, 85
5, 23638, Note_on_c, 5, 69, 0
5, 23640, Note_on_c, 5, 69, 85
5, 23758, Note_on_c, 5, 69, 0
5, 23760, Note_on_c, 5, 71, 85
5, 23878, Note_on_c, 5, 71, 0
5, 23880, Note_on_c, 5, 71, 85
5, 23998, Note_on_c, 5, 71, 0
5, 27840, Note_on_c, 5, 67, 85
5, 27919, Note_on_c, 5, 67, 0
5, 27920, Note_on_c, 5, 67, 85
5, 27959, Note_on_c, 5, 67, 0
5, 27960, Note_on_c, 5, 67, 85
5, 28039, Note_on_c, 5, 67, 0
5, 28040, Note_on_c, 5, 67, 85
5, 28079, Note_on_c, 5, 67, 0
5, 28080, Note_on_c, 5, 67, 85
5, 28080, Control_c, 5, 11, 127
5, 28096, Control_c, 5, 11, 126
5, 28110, Control_c, 5, 11, 125
5, 28126, Control_c, 5, 11, 124
5, 28140, Control_c, 5, 11, 123
5, 28156, Control_c, 5, 11, 122
5, 28159, Note_on_c, 5, 67, 0
5, 28160, Note_on_c, 5, 67, 85
5, 28170, Control_c, 5, 11, 121
5, 28186, Control_c, 5, 11, 120
5, 28199, Note_on_c, 5, 67, 0
5, 28200, Note_on_c, 5, 67, 85
5, 28200, Control_c, 5, 11, 119
5, 28216, Control_c, 5, 11, 118
5, 28230, Control_c, 5, 11, 117
5, 28246, Control_c, 5, 11, 116
5, 28260, Control_c, 5, 11, 115
5, 28276, Control_c, 5, 11, 114
5, 28290, Control_c, 5, 11, 113
5, 28306, Control_c, 5, 11, 112
5, 28318, Note_on_c, 5, 67, 0
5, 28320, Note_on_c, 5, 69, 85
5, 28320, Control_c, 5, 11, 111
5, 28336, Control_c, 5, 11, 110
5, 28350, Control_c, 5, 11, 109
5, 28366, Control_c, 5, 11, 108
5, 28380, Control_c, 5, 11, 107
5, 28396, Control_c, 5, 11, 106
5, 28399, Note_on_c, 5, 69, 0
5, 28400, Note_on_c, 5, 69, 85
5, 28410, Control_c, 5, 11, 105
5, 28426, Control_c, 5, 11, 104
5, 28439, Note_on_c, 5, 69, 0
5, 28440, Note_on_c, 5, 69, 85
5, 28440, Control_c, 5, 11, 103
5, 28456, Control_c, 5, 11, 102
5, 28470, Control_c, 5, 11, 101
5, 28486, Control_c, 5, 11, 100
5, 28500, Control_c, 5, 11, 99
5, 28516, Control_c, 5, 11, 98
5, 28519, Note_on_c, 5, 69, 0
5, 28520, Note_on_c, 5, 69, 85
5, 28530, Control_c, 5, 11, 97
5, 28546, Control_c, 5, 11, 96
5, 28559, Note_on_c, 5, 69, 0
5, 28560, Note_on_c, 5, 71, 85
5, 28560, Control_c, 5, 11, 95
5, 28574, Control_c, 5, 11, 94
5, 28590, Control_c, 5, 11, 93
5, 28604, Control_c, 5, 11, 92
5, 28620, Control_c, 5, 11, 91
5, 28634, Control_c, 5, 11, 90
5, 28650, Control_c, 5, 11, 89
5, 28664, Control_c, 5, 11, 88
5, 28678, Note_on_c, 5, 71, 0
5, 28680, Note_on_c, 5, 71, 85
5, 28680, Control_c, 5, 11, 87
5, 28694, Control_c, 5, 11, 86
5, 28710, Control_c, 5, 11, 85
5, 28724, Control_c, 5, 11, 84
5, 28740, Control_c, 5, 11, 83
5, 28754, Control_c, 5, 11, 82
5, 28770, Control_c, 5, 11, 81
5, 28784, Control_c, 5, 11, 80
5, 28798, Note_on_c, 5, 71, 0
5, 28800, Note_on_c, 5, 67, 85
5, 28800, Control_c, 5, 11, 79
5, 28814, Control_c, 5, 11, 78
5, 28830, Control_c, 5, 11, 77
5, 28844, Control_c, 5, 11, 76
5, 28860, Control_c, 5, 11, 75
5, 28874, Control_c, 5, 11, 74
5, 28890, Control_c, 5, 11, 73
5, 28904, Control_c, 5, 11, 72
5, 28918, Note_on_c, 5, 67, 0
5, 28920, Note_on_c, 5, 67, 85
5, 28920, Control_c, 5, 11, 71
5, 28934, Control_c, 5, 11, 70
5, 28950, Control_c, 5, 11, 69
5, 28964, Control_c, 5, 11, 68
5, 28980, Control_c, 5, 11, 67
5, 28994, Control_c, 5, 11, 66
5, 29010, Control_c, 5, 11, 65
5, 29024, Control_c, 5, 11, 64
5, 29038, Note_on_c, 5, 67, 0
5, 29038, Control_c, 5, 11, 63
5, 29040, Note_on_c, 5, 67, 85
5, 29050, Control_c, 5, 11, 62
5, 29062, Control_c, 5, 11, 61
5, 29074, Control_c, 5, 11, 60
5, 29084, Control_c, 5, 11, 59
5, 29096, Control_c, 5, 11, 58
5, 29108, Control_c, 5, 11, 57
5, 29120, Control_c, 5, 11, 56
5, 29130, Control_c, 5, 11, 55
5, 29142, Control_c, 5, 11, 54
5, 29154, Control_c, 5, 11, 53
5, 29158, Note_on_c, 5, 67, 0
5, 29160, Note_on_c, 5, 67, 85
5, 29166, Control_c, 5, 11, 52
5, 29176, Control_c, 5, 11, 51
5, 29188, Control_c, 5, 11, 50
5, 29200, Control_c, 5, 11, 49
5, 29210, Control_c, 5, 11, 48
5, 29222, Control_c, 5, 11, 47
5, 29234, Control_c, 5, 11, 46
5, 29246, Control_c, 5, 11, 45
5, 29256, Control_c, 5, 11, 44
5, 29268, Control_c, 5, 11, 43
5, 29278, Note_on_c, 5, 67, 0
5, 29280, Note_on_c, 5, 69, 85
5, 29280, Control_c, 5, 11, 42
5, 29292, Control_c, 5, 11, 41
5, 29302, Control_c, 5, 11, 40
5, 29314, Control_c, 5, 11, 39
5, 29326, Control_c, 5, 11, 38
5, 29336, Control_c, 5, 11, 37
5, 29348, Control_c, 5, 11, 36
5, 29360, Control_c, 5, 11, 35
5, 29372, Control_c, 5, 11, 34
5, 29382, Control_c, 5, 11, 33
5, 29394, Control_c, 5, 11, 32
5, 29398, Note_on_c, 5, 69, 0
5, 29400, Note_on_c, 5, 69, 85
5, 29406, Control_c, 5, 11, 31
5, 29418, Control_c, 5, 11, 30
5, 29428, Control_c, 5, 11, 29
5, 29440, Control_c, 5, 11, 28
5, 29452, Control_c, 5, 11, 27
5, 29464, Control_c, 5, 11, 26
5, 29474, Control_c, 5, 11, 25
5, 29486, Control_c, 5, 11, 24
5, 29498, Control_c, 5, 11, 23
5, 29508, Control_c, 5, 11, 22
5, 29518, Note_on_c, 5, 69, 0
5, 29520, Note_on_c, 5, 71, 85
5, 29520, Control_c, 5, 11, 21
5, 29532, Control_c, 5, 11, 20
5, 29544, Control_c, 5, 11, 19
5, 29554, Control_c, 5, 11, 18
5, 29566, Control_c, 5, 11, 17
5, 29578, Control_c, 5, 11, 16
5, 29590, Control_c, 5, 11, 15
5, 29600, Control_c, 5, 11, 14
5, 29612, Control_c, 5, 11, 13
5, 29624, Control_c, 5, 11, 12
5, 29634, Control_c, 5, 11, 11
5, 29638, Note_on_c, 5, 71, 0
5, 29640, Note_on_c, 5, 71, 85
5, 29646, Control_c, 5, 11, 10
5, 29658, Control_c, 5, 11, 9
5, 29670, Control_c, 5, 11, 8
5, 29680, Control_c, 5, 11, 7
5, 29692, Control_c, 5, 11, 6
5, 29704, Control_c, 5, 11, 5
5, 29716, Control_c, 5, 11, 4
5, 29726, Control_c, 5, 11, 3
5, 29738, Control_c, 5, 11, 2
5, 29750, Control_c, 5, 11, 1
5, 29758, Note_on_c, 5, 71, 0
5, 29760, Control_c, 5, 11, 0
5, 29760, End_track
6, 0, Start_track
6, 0, MIDI_port, 0
6, 0, Title_t, "SOLO 1"
6, 0, Program_c, 0, 25
6, 0, Control_c, 0, 7, 127
6, 0, Control_c, 0, 0, 8
6, 18239, Control_c, 0, 64, 0
6, 18240, Note_on_c, 0, 60, 95
6, 18350, Note_on_c, 0, 60, 0
6, 18360, Note_on_c, 0, 57, 95
6, 18470, Note_on_c, 0, 57, 0
6, 18480, Note_on_c, 0, 62, 95
6, 18590, Note_on_c, 0, 62, 0
6, 18600, Note_on_c, 0, 59, 95
6, 18710, Note_on_c, 0, 59, 0
6, 18720, Note_on_c, 0, 64, 95
6, 18830, Note_on_c, 0, 64, 0
6, 18840, Note_on_c, 0, 60, 95
6, 18950, Note_on_c, 0, 60, 0
6, 18960, Note_on_c, 0, 65, 95
6, 19070, Note_on_c, 0, 65, 0
6, 19080, Note_on_c, 0, 64, 95
6, 19190, Note_on_c, 0, 64, 0
6, 19200, Note_on_c, 0, 62, 95
6, 19310, Note_on_c, 0, 62, 0
6, 19320, Note_on_c, 0, 65, 95
6, 19430, Note_on_c, 0, 65, 0
6, 19440, Note_on_c, 0, 64, 95
6, 19550, Note_on_c, 0, 64, 0
6, 19560, Note_on_c, 0, 62, 95
6, 19670, Note_on_c, 0, 62, 0
6, 19680, Note_on_c, 0, 60, 95
6, 19790, Note_on_c, 0, 60, 0
6, 19800, Note_on_c, 0, 62, 95
6, 19910, Note_on_c, 0, 62, 0
6, 19920, Note_on_c, 0, 60, 95
6, 20030, Note_on_c, 0, 60, 0
6, 20040, Note_on_c, 0, 59, 95
6, 20150, Note_on_c, 0, 59, 0
6, 20160, Note_on_c, 0, 60, 95
6, 20270, Note_on_c, 0, 60, 0
6, 20280, Note_on_c, 0, 57, 95
6, 20390, Note_on_c, 0, 57, 0
6, 20400, Note_on_c, 0, 62, 95
6, 20510, Note_on_c, 0, 62, 0
6, 20520, Note_on_c, 0, 59, 95
6, 20630, Note_on_c, 0, 59, 0
6, 20640, Note_on_c, 0, 64, 95
6, 20750, Note_on_c, 0, 64, 0
6, 20760, Note_on_c, 0, 60, 95
6, 20870, Note_on_c, 0, 60, 0
6, 20880, Note_on_c, 0, 65, 95
6, 20990, Note_on_c, 0, 65, 0
6, 21000, Note_on_c, 0, 64, 95
6, 21110, Note_on_c, 0, 64, 0
6, 21120, Note_on_c, 0, 62, 95
6, 21230, Note_on_c, 0, 62, 0
6, 21240, Note_on_c, 0, 65, 95
6, 21350, Note_on_c, 0, 65, 0
6, 21360, Note_on_c, 0, 64, 95
6, 21470, Note_on_c, 0, 64, 0
6, 21480, Note_on_c, 0, 62, 95
6, 21590, Note_on_c, 0, 62, 0
6, 21600, Note_on_c, 0, 60, 95
6, 21710, Note_on_c, 0, 60, 0
6, 21720, Note_on_c, 0, 62, 95
6, 21830, Note_on_c, 0, 62, 0
6, 21840, Note_on_c, 0, 60, 95
6, 21950, Note_on_c, 0, 60, 0
6, 21960, Note_on_c, 0, 57, 95
6, 22070, Note_on_c, 0, 57, 0
6, 24000, Note_on_c, 0, 60, 121
6, 24110, Note_on_c, 0, 60, 0
6, 24120, Note_on_c, 0, 57, 121
6, 24230, Note_on_c, 0, 57, 0
6, 24240, Note_on_c, 0, 62, 121
6, 24350, Note_on_c, 0, 62, 0
6, 24360, Note_on_c, 0, 59, 121
6, 24470, Note_on_c, 0, 59, 0
6, 24480, Note_on_c, 0, 64, 121
6, 24590, Note_on_c, 0, 64, 0
6, 24600, Note_on_c, 0, 60, 121
6, 24710, Note_on_c, 0, 60, 0
6, 24720, Note_on_c, 0, 65, 121
6, 24830, Note_on_c, 0, 65, 0
6, 24840, Note_on_c, 0, 64, 121
6, 24950, Note_on_c, 0, 64, 0
6, 24960, Note_on_c, 0, 62, 121
6, 25070, Note_on_c, 0, 62, 0
6, 25080, Note_on_c, 0, 65, 121
6, 25190, Note_on_c, 0, 65, 0
6, 25200, Note_on_c, 0, 64, 121
6, 25310, Note_on_c, 0, 64, 0
6, 25320, Note_on_c, 0, 62, 121
6, 25430, Note_on_c, 0, 62, 0
6, 25440, Note_on_c, 0, 60, 121
6, 25550, Note_on_c, 0, 60, 0
6, 25560, Note_on_c, 0, 62, 121
6, 25670, Note_on_c, 0, 62, 0
6, 25680, Note_on_c, 0, 60, 121
6, 25790, Note_on_c, 0, 60, 0
6, 25800, Note_on_c, 0, 59, 121
6, 25910, Note_on_c, 0, 59, 0
6, 25920, Note_on_c, 0, 60, 121
6, 26030, Note_on_c, 0, 60, 0
6, 26040, Note_on_c, 0, 57, 121
6, 26150, Note_on_c, 0, 57, 0
6, 26160, Note_on_c, 0, 62, 121
6, 26270, Note_on_c, 0, 62, 0
6, 26280, Note_on_c, 0, 59, 121
6, 26390, Note_on_c, 0, 59, 0
6, 26400, Note_on_c, 0, 64, 121
6, 26510, Note_on_c, 0, 64, 0
6, 26520, Note_on_c, 0, 60, 121
6, 26630, Note_on_c, 0, 60, 0
6, 26640, Note_on_c, 0, 65, 121
6, 26750, Note_on_c, 0, 65, 0
6, 26760, Note_on_c, 0, 64, 121
6, 26870, Note_on_c, 0, 64, 0
6, 26880, Note_on_c, 0, 62, 121
6, 26990, Note_on_c, 0, 62, 0
6, 27000, Note_on_c, 0, 65, 121
6, 27110, Note_on_c, 0, 65, 0
6, 27120, Note_on_c, 0, 64, 121
6, 27230, Note_on_c, 0, 64, 0
6, 27240, Note_on_c, 0, 62, 121
6, 27350, Note_on_c, 0, 62, 0
6, 27360, Note_on_c, 0, 60, 121
6, 27470, Note_on_c, 0, 60, 0
6, 27480, Note_on_c, 0, 62, 121
6, 27590, Note_on_c, 0, 62, 0
6, 27600, Note_on_c, 0, 60, 121
6, 27710, Note_on_c, 0, 60, 0
6, 27720, Note_on_c, 0, 57, 121
6, 27830, Note_on_c, 0, 57, 0
6, 28080, Control_c, 0, 11, 126
6, 28096, Control_c, 0, 11, 125
6, 28112, Control_c, 0, 11, 124
6, 28126, Control_c, 0, 11, 123
6, 28142, Control_c, 0, 11, 122
6, 28158, Control_c, 0, 11, 121
6, 28172, Control_c, 0, 11, 120
6, 28188, Control_c, 0, 11, 119
6, 28204, Control_c, 0, 11, 118
6, 28218, Control_c, 0, 11, 117
6, 28234, Control_c, 0, 11, 116
6, 28248, Control_c, 0, 11, 115
6, 28264, Control_c, 0, 11, 114
6, 28280, Control_c, 0, 11, 113
6, 28294, Control_c, 0, 11, 112
6, 28310, Control_c, 0, 11, 111
6, 28326, Control_c, 0, 11, 110
6, 28340, Control_c, 0, 11, 109
6, 28356, Control_c, 0, 11, 108
6, 28372, Control_c, 0, 11, 107
6, 28386, Control_c, 0, 11, 106
6, 28402, Control_c, 0, 11, 105
6, 28416, Control_c, 0, 11, 104
6, 28432, Control_c, 0, 11, 103
6, 28448, Control_c, 0, 11, 102
6, 28462, Control_c, 0, 11, 101
6, 28478, Control_c, 0, 11, 100
6, 28494, Control_c, 0, 11, 99
6, 28508, Control_c, 0, 11, 98
6, 28524, Control_c, 0, 11, 97
6, 28540, Control_c, 0, 11, 96
6, 28554, Control_c, 0, 11, 95
6, 28570, Control_c, 0, 11, 94
6, 28584, Control_c, 0, 11, 93
6, 28600, Control_c, 0, 11, 92
6, 28616, Control_c, 0, 11, 91
6, 28630, Control_c, 0, 11, 90
6, 28646, Control_c, 0, 11, 89
6, 28662, Control_c, 0, 11, 88
6, 28676, Control_c, 0, 11, 87
6, 28692, Control_c, 0, 11, 86
6, 28708, Control_c, 0, 11, 85
6, 28722, Control_c, 0, 11, 84
6, 28738, Control_c, 0, 11, 83
6, 28752, Control_c, 0, 11, 82
6, 28768, Control_c, 0, 11, 81
6, 28784, Control_c, 0, 11, 80
6, 28798, Control_c, 0, 11, 79
6, 28814, Control_c, 0, 11, 78
6, 28830, Control_c, 0, 11, 77
6, 28844, Control_c, 0, 11, 76
6, 28860, Control_c, 0, 11, 75
6, 28876, Control_c, 0, 11, 74
6, 28890, Control_c, 0, 11, 73
6, 28906, Control_c, 0, 11, 72
6, 28920, Control_c, 0, 11, 71
6, 28936, Control_c, 0, 11, 70
6, 28952, Control_c, 0, 11, 69
6, 28966, Control_c, 0, 11, 68
6, 28982, Control_c, 0, 11, 67
6, 28998, Control_c, 0, 11, 66
6, 29012, Control_c, 0, 11, 65
6, 29028, Control_c, 0, 11, 64
6, 29042, Control_c, 0, 11, 63
6, 29044, Control_c, 0, 11, 62
6, 29056, Control_c, 0, 11, 61
6, 29068, Control_c, 0, 11, 60
6, 29080, Control_c, 0, 11, 59
6, 29092, Control_c, 0, 11, 58
6, 29104, Control_c, 0, 11, 57
6, 29116, Control_c, 0, 11, 56
6, 29128, Control_c, 0, 11, 55
6, 29140, Control_c, 0, 11, 54
6, 29152, Control_c, 0, 11, 53
6, 29164, Control_c, 0, 11, 52
6, 29176, Control_c, 0, 11, 51
6, 29188, Control_c, 0, 11, 50
6, 29200, Control_c, 0, 11, 49
6, 29212, Control_c, 0, 11, 48
6, 29224, Control_c, 0, 11, 47
6, 29236, Control_c, 0, 11, 46
6, 29248, Control_c, 0, 11, 45
6, 29260, Control_c, 0, 11, 44
6, 29272, Control_c, 0, 11, 43
6, 29282, Control_c, 0, 11, 42
6, 29294, Control_c, 0, 11, 41
6, 29306, Control_c, 0, 11, 40
6, 29318, Control_c, 0, 11, 39
6, 29330, Control_c, 0, 11, 38
6, 29342, Control_c, 0, 11, 37
6, 29354, Control_c, 0, 11, 36
6, 29366, Control_c, 0, 11, 35
6, 29378, Control_c, 0, 11, 34
6, 29390, Control_c, 0, 11, 33
6, 29402, Control_c, 0, 11, 32
6, 29414, Control_c, 0, 11, 31
6, 29426, Control_c, 0, 11, 30
6, 29438, Control_c, 0, 11, 29
6, 29450, Control_c, 0, 11, 28
6, 29462, Control_c, 0, 11, 27
6, 29474, Control_c, 0, 11, 26
6, 29486, Control_c, 0, 11, 25
6, 29498, Control_c, 0, 11, 24
6, 29510, Control_c, 0, 11, 23
6, 29520, Control_c, 0, 11, 22
6, 29532, Control_c, 0, 11, 21
6, 29544, Control_c, 0, 11, 20
6, 29556, Control_c, 0, 11, 19
6, 29568, Control_c, 0, 11, 18
6, 29580, Control_c, 0, 11, 17
6, 29592, Control_c, 0, 11, 16
6, 29604, Control_c, 0, 11, 15
6, 29616, Control_c, 0, 11, 14
6, 29628, Control_c, 0, 11, 13
6, 29640, Control_c, 0, 11, 12
6, 29652, Control_c, 0, 11, 11
6, 29664, Control_c, 0, 11, 10
6, 29676, Control_c, 0, 11, 9
6, 29688, Control_c, 0, 11, 8
6, 29700, Control_c, 0, 11, 7
6, 29712, Control_c, 0, 11, 6
6, 29724, Control_c, 0, 11, 5
6, 29736, Control_c, 0, 11, 4
6, 29748, Control_c, 0, 11, 3
6, 29758, Control_c, 0, 11, 2
6, 29758, End_track
7, 0, Start_track
7, 0, MIDI_port, 0
7, 0, Title_t, "SOLO 2"
7, 0, Program_c, 4, 25
7, 0, Control_c, 4, 7, 127
7, 0, Control_c, 4, 0, 8
7, 23999, Control_c, 4, 64, 0
7, 24000, Note_on_c, 4, 64, 106
7, 24015, Note_on_c, 4, 64, 0
7, 24060, Note_on_c, 4, 64, 106
7, 24075, Note_on_c, 4, 64, 0
7, 24120, Note_on_c, 4, 60, 106
7, 24135, Note_on_c, 4, 60, 0
7, 24180, Note_on_c, 4, 60, 106
7, 24195, Note_on_c, 4, 60, 0
7, 24240, Note_on_c, 4, 65, 106
7, 24255, Note_on_c, 4, 65, 0
7, 24300, Note_on_c, 4, 65, 106
7, 24315, Note_on_c, 4, 65, 0
7, 24360, Note_on_c, 4, 62, 106
7, 24375, Note_on_c, 4, 62, 0
7, 24420, Note_on_c, 4, 62, 106
7, 24435, Note_on_c, 4, 62, 0
7, 24480, Note_on_c, 4, 67, 106
7, 24495, Note_on_c, 4, 67, 0
7, 24540, Note_on_c, 4, 67, 106
7, 24555, Note_on_c, 4, 67, 0
7, 24600, Note_on_c, 4, 64, 106
7, 24615, Note_on_c, 4, 64, 0
7, 24660, Note_on_c, 4, 64, 106
7, 24675, Note_on_c, 4, 64, 0
7, 24720, Note_on_c, 4, 69, 106
7, 24735, Note_on_c, 4, 69, 0
7, 24780, Note_on_c, 4, 69, 106
7, 24795, Note_on_c, 4, 69, 0
7, 24840, Note_on_c, 4, 67, 106
7, 24855, Note_on_c, 4, 67, 0
7, 24900, Note_on_c, 4, 67, 106
7, 24915, Note_on_c, 4, 67, 0
7, 24960, Note_on_c, 4, 65, 106
7, 24975, Note_on_c, 4, 65, 0
7, 25020, Note_on_c, 4, 65, 106
7, 25035, Note_on_c, 4, 65, 0
7, 25080, Note_on_c, 4, 69, 106
7, 25095, Note_on_c, 4, 69, 0
7, 25140, Note_on_c, 4, 69, 106
7, 25155, Note_on_c, 4, 69, 0
7, 25200, Note_on_c, 4, 67, 106
7, 25215, Note_on_c, 4, 67, 0
7, 25260, Note_on_c, 4, 67, 106
7, 25275, Note_on_c, 4, 67, 0
7, 25320, Note_on_c, 4, 65, 106
7, 25335, Note_on_c, 4, 65, 0
7, 25380, Note_on_c, 4, 65, 106
7, 25395, Note_on_c, 4, 65, 0
7, 25440, Note_on_c, 4, 64, 106
7, 25455, Note_on_c, 4, 64, 0
7, 25500, Note_on_c, 4, 64, 106
7, 25515, Note_on_c, 4, 64, 0
7, 25560, Note_on_c, 4, 65, 106
7, 25575, Note_on_c, 4, 65, 0
7, 25620, Note_on_c, 4, 65, 106
7, 25635, Note_on_c, 4, 65, 0
7, 25680, Note_on_c, 4, 64, 106
7, 25695, Note_on_c, 4, 64, 0
7, 25740, Note_on_c, 4, 64, 106
7, 25755, Note_on_c, 4, 64, 0
7, 25800, Note_on_c, 4, 62, 106
7, 25815, Note_on_c, 4, 62, 0
7, 25860, Note_on_c, 4, 62, 106
7, 25875, Note_on_c, 4, 62, 0
7, 25920, Note_on_c, 4, 64, 106
7, 25935, Note_on_c, 4, 64, 0
7, 25980, Note_on_c, 4, 64, 106
7, 25995, Note_on_c, 4, 64, 0
7, 26040, Note_on_c, 4, 60, 106
7, 26055, Note_on_c, 4, 60, 0
7, 26100, Note_on_c, 4, 60, 106
7, 26115, Note_on_c, 4, 60, 0
7, 26160, Note_on_c, 4, 65, 106
7, 26175, Note_on_c, 4, 65, 0
7, 26220, Note_on_c, 4, 65, 106
7, 26235, Note_on_c, 4, 65, 0
7, 26280, Note_on_c, 4, 62, 106
7, 26295, Note_on_c, 4, 62, 0
7, 26340, Note_on_c, 4, 62, 106
7, 26355, Note_on_c, 4, 62, 0
7, 26400, Note_on_c, 4, 67, 106
7, 26415, Note_on_c, 4, 67, 0
7, 26460, Note_on_c, 4, 67, 106
7, 26475, Note_on_c, 4, 67, 0
7, 26520, Note_on_c, 4, 64, 106
7, 26535, Note_on_c, 4, 64, 0
7, 26580, Note_on_c, 4, 64, 106
7, 26595, Note_on_c, 4, 64, 0
7, 26640, Note_on_c, 4, 69, 106
7, 26655, Note_on_c, 4, 69, 0
7, 26700, Note_on_c, 4, 69, 106
7, 26715, Note_on_c, 4, 69, 0
7, 26760, Note_on_c, 4, 67, 106
7, 26775, Note_on_c, 4, 67, 0
7, 26820, Note_on_c, 4, 67, 106
7, 26835, Note_on_c, 4, 67, 0
7, 26880, Note_on_c, 4, 65, 106
7, 26895, Note_on_c, 4, 65, 0
7, 26940, Note_on_c, 4, 65, 106
7, 26955, Note_on_c, 4, 65, 0
7, 27000, Note_on_c, 4, 69, 106
7, 27015, Note_on_c, 4, 69, 0
7, 27060, Note_on_c, 4, 69, 106
7, 27075, Note_on_c, 4, 69, 0
7, 27120, Note_on_c, 4, 67, 106
7, 27135, Note_on_c, 4, 67, 0
7, 27180, Note_on_c, 4, 67, 106
7, 27195, Note_on_c, 4, 67, 0
7, 27240, Note_on_c, 4, 65, 106
7, 27255, Note_on_c, 4, 65, 0
7, 27300, Note_on_c, 4, 65, 106
7, 27315, Note_on_c, 4, 65, 0
7, 27360, Note_on_c, 4, 64, 106
7, 27375, Note_on_c, 4, 64, 0
7, 27420, Note_on_c, 4, 64, 106
7, 27435, Note_on_c, 4, 64, 0
7, 27480, Note_on_c, 4, 65, 106
7, 27495, Note_on_c, 4, 65, 0
7, 27540, Note_on_c, 4, 65, 106
7, 27555, Note_on_c, 4, 65, 0
7, 27600, Note_on_c, 4, 64, 106
7, 27615, Note_on_c, 4, 64, 0
7, 27660, Note_on_c, 4, 64, 106
7, 27675, Note_on_c, 4, 64, 0
7, 27720, Note_on_c, 4, 62, 106
7, 27735, Note_on_c, 4, 62, 0
7, 27780, Note_on_c, 4, 62, 106
7, 27795, Note_on_c, 4, 62, 0
7, 28080, Control_c, 4, 11, 127
7, 28096, Control_c, 4, 11, 126
7, 28110, Control_c, 4, 11, 125
7, 28126, Control_c, 4, 11, 124
7, 28140, Control_c, 4, 11, 123
7, 28156, Control_c, 4, 11, 122
7, 28170, Control_c, 4, 11, 121
7, 28186, Control_c, 4, 11, 120
7, 28200, Control_c, 4, 11, 119
7, 28216, Control_c, 4, 11, 118
7, 28230, Control_c, 4, 11, 117
7, 28246, Control_c, 4, 11, 116
7, 28260, Control_c, 4, 11, 115
7, 28276, Control_c, 4, 11, 114
7, 28290, Control_c, 4, 11, 113
7, 28306, Control_c, 4, 11, 112
7, 28320, Control_c, 4, 11, 111
7, 28336, Control_c, 4, 11, 110
7, 28350, Control_c, 4, 11, 109
7, 28366, Control_c, 4, 11, 108
7, 28380, Control_c, 4, 11, 107
7, 28396, Control_c, 4, 11, 106
7, 28410, Control_c, 4, 11, 105
7, 28426, Control_c, 4, 11, 104
7, 28440, Control_c, 4, 11, 103
7, 28456, Control_c, 4, 11, 102
7, 28470, Control_c, 4, 11, 101
7, 28486, Control_c, 4, 11, 100
7, 28500, Control_c, 4, 11, 99
7, 28516, Control_c, 4, 11, 98
7, 28530, Control_c, 4, 11, 97
7, 28546, Control_c, 4, 11, 96
7, 28560, Control_c, 4, 11, 95
7, 28576, Control_c, 4, 11, 94
7, 28590, Control_c, 4, 11, 93
7, 28606, Control_c, 4, 11, 92
7, 28620, Control_c, 4, 11, 91
7, 28636, Control_c, 4, 11, 90
7, 28650, Control_c, 4, 11, 89
7, 28666, Control_c, 4, 11, 88
7, 28680, Control_c, 4, 11, 87
7, 28696, Control_c, 4, 11, 86
7, 28710, Control_c, 4, 11, 85
7, 28726, Control_c, 4, 11, 84
7, 28740, Control_c, 4, 11, 83
7, 28756, Control_c, 4, 11, 82
7, 28770, Control_c, 4, 11, 81
7, 28786, Control_c, 4, 11, 80
7, 28800, Control_c, 4, 11, 79
7, 28816, Control_c, 4, 11, 78
7, 28830, Control_c, 4, 11, 77
7, 28846, Control_c, 4, 11, 76
7, 28860, Control_c, 4, 11, 75
7, 28876, Control_c, 4, 11, 74
7, 28890, Control_c, 4, 11, 73
7, 28906, Control_c, 4, 11, 72
7, 28920, Control_c, 4, 11, 71
7, 28936, Control_c, 4, 11, 70
7, 28950, Control_c, 4, 11, 69
7, 28966, Control_c, 4, 11, 68
7, 28980, Control_c, 4, 11, 67
7, 28996, Control_c, 4, 11, 66
7, 29010, Control_c, 4, 11, 65
7, 29026, Control_c, 4, 11, 64
7, 29040, Control_c, 4, 11, 63
7, 29042, Control_c, 4, 11, 62
7, 29054, Control_c, 4, 11, 61
7, 29066, Control_c, 4, 11, 60
7, 29078, Control_c, 4, 11, 59
7, 29090, Control_c, 4, 11, 58
7, 29102, Control_c, 4, 11, 57
7, 29114, Control_c, 4, 11, 56
7, 29126, Control_c, 4, 11, 55
7, 29138, Control_c, 4, 11, 54
7, 29150, Control_c, 4, 11, 53
7, 29162, Control_c, 4, 11, 52
7, 29174, Control_c, 4, 11, 51
7, 29186, Control_c, 4, 11, 50
7, 29198, Control_c, 4, 11, 49
7, 29210, Control_c, 4, 11, 48
7, 29222, Control_c, 4, 11, 47
7, 29234, Control_c, 4, 11, 46
7, 29246, Control_c, 4, 11, 45
7, 29258, Control_c, 4, 11, 44
7, 29270, Control_c, 4, 11, 43
7, 29282, Control_c, 4, 11, 42
7, 29294, Control_c, 4, 11, 41
7, 29306, Control_c, 4, 11, 40
7, 29318, Control_c, 4, 11, 39
7, 29330, Control_c, 4, 11, 38
7, 29342, Control_c, 4, 11, 37
7, 29354, Control_c, 4, 11, 36
7, 29366, Control_c, 4, 11, 35
7, 29378, Control_c, 4, 11, 34
7, 29390, Control_c, 4, 11, 33
7, 29400, Control_c, 4, 11, 32
7, 29412, Control_c, 4, 11, 31
7, 29424, Control_c, 4, 11, 30
7, 29436, Control_c, 4, 11, 29
7, 29448, Control_c, 4, 11, 28
7, 29460, Control_c, 4, 11, 27
7, 29472, Control_c, 4, 11, 26
7, 29484, Control_c, 4, 11, 25
7, 29496, Control_c, 4, 11, 24
7, 29508, Control_c, 4, 11, 23
7, 29520, Control_c, 4, 11, 22
7, 29532, Control_c, 4, 11, 21
7, 29544, Control_c, 4, 11, 20
7, 29556, Control_c, 4, 11, 19
7, 29568, Control_c, 4, 11, 18
7, 29580, Control_c, 4, 11, 17
7, 29592, Control_c, 4, 11, 16
7, 29604, Control_c, 4, 11, 15
7, 29616, Control_c, 4, 11, 14
7, 29628, Control_c, 4, 11, 13
7, 29640, Control_c, 4, 11, 12
7, 29652, Control_c, 4, 11, 11
7, 29664, Control_c, 4, 11, 10
7, 29676, Control_c, 4, 11, 9
7, 29688, Control_c, 4, 11, 8
7, 29700, Control_c, 4, 11, 7
7, 29712, Control_c, 4, 11, 6
7, 29724, Control_c, 4, 11, 5
7, 29736, Control_c, 4, 11, 4
7, 29748, Control_c, 4, 11, 3
7, 29758, Control_c, 4, 11, 2
7, 29758, End_track
8, 0, Start_track
8, 0, MIDI_port, 0
8, 0, Title_t, "BASSE"
8, 0, Program_c, 1, 32
8, 0, Control_c, 1, 7, 127
8, 959, Control_c, 1, 64, 64
8, 960, Note_on_c, 1, 33, 90
8, 970, Note_on_c, 1, 33, 0
8, 1198, Control_c, 1, 64, 0
8, 1199, Control_c, 1, 64, 64
8, 1200, Note_on_c, 1, 40, 90
8, 1210, Note_on_c, 1, 40, 0
8, 1438, Control_c, 1, 64, 0
8, 1439, Control_c, 1, 64, 64
8, 1440, Note_on_c, 1, 33, 90
8, 1450, Note_on_c, 1, 33, 0
8, 1678, Control_c, 1, 64, 0
8, 1679, Control_c, 1, 64, 64
8, 1680, Note_on_c, 1, 33, 90
8, 1690, Note_on_c, 1, 33, 0
8, 1798, Control_c, 1, 64, 0
8, 1799, Control_c, 1, 64, 64
8, 1800, Note_on_c, 1, 43, 90
8, 1810, Note_on_c, 1, 43, 0
8, 1918, Control_c, 1, 64, 0
8, 1919, Control_c, 1, 64, 64
8, 1920, Note_on_c, 1, 38, 90
8, 1930, Note_on_c, 1, 38, 0
8, 2158, Control_c, 1, 64, 0
8, 2159, Control_c, 1, 64, 64
8, 2160, Note_on_c, 1, 38, 90
8, 2170, Note_on_c, 1, 38, 0
8, 2398, Control_c, 1, 64, 0
8, 2399, Control_c, 1, 64, 64
8, 2400, Note_on_c, 1, 36, 90
8, 2410, Note_on_c, 1, 36, 0
8, 2638, Control_c, 1, 64, 0
8, 2639, Control_c, 1, 64, 64
8, 2640, Note_on_c, 1, 40, 90
8, 2650, Note_on_c, 1, 40, 0
8, 2878, Control_c, 1, 64, 0
8, 2879, Control_c, 1, 64, 64
8, 2880, Note_on_c, 1, 33, 90
8, 2890, Note_on_c, 1, 33, 0
8, 3118, Control_c, 1, 64, 0
8, 3119, Control_c, 1, 64, 64
8, 3120, Note_on_c, 1, 40, 90
8, 3130, Note_on_c, 1, 40, 0
8, 3358, Control_c, 1, 64, 0
8, 3359, Control_c, 1, 64, 64
8, 3360, Note_on_c, 1, 33, 90
8, 3370, Note_on_c, 1, 33, 0
8, 3598, Control_c, 1, 64, 0
8, 3599, Control_c, 1, 64, 64
8, 3600, Note_on_c, 1, 33, 90
8, 3610, Note_on_c, 1, 33, 0
8, 3718, Control_c, 1, 64, 0
8, 3719, Control_c, 1, 64, 64
8, 3720, Note_on_c, 1, 43, 90
8, 3730, Note_on_c, 1, 43, 0
8, 3838, Control_c, 1, 64, 0
8, 3839, Control_c, 1, 64, 64
8, 3840, Note_on_c, 1, 38, 90
8, 3850, Note_on_c, 1, 38, 0
8, 4078, Control_c, 1, 64, 0
8, 4079, Control_c, 1, 64, 64
8, 4080, Note_on_c, 1, 38, 90
8, 4090, Note_on_c, 1, 38, 0
8, 4318, Control_c, 1, 64, 0
8, 4319, Control_c, 1, 64, 64
8, 4320, Note_on_c, 1, 36, 90
8, 4330, Note_on_c, 1, 36, 0
8, 4438, Control_c, 1, 64, 0
8, 4439, Control_c, 1, 64, 64
8, 4440, Note_on_c, 1, 38, 90
8, 4450, Note_on_c, 1, 38, 0
8, 4558, Control_c, 1, 64, 0
8, 4559, Control_c, 1, 64, 64
8, 4560, Note_on_c, 1, 36, 90
8, 4570, Note_on_c, 1, 36, 0
8, 4678, Control_c, 1, 64, 0
8, 4679, Control_c, 1, 64, 64
8, 4680, Note_on_c, 1, 33, 90
8, 4690, Note_on_c, 1, 33, 0
8, 4798, Control_c, 1, 64, 0
8, 4799, Control_c, 1, 64, 64
8, 4800, Note_on_c, 1, 36, 90
8, 4810, Note_on_c, 1, 36, 0
8, 5038, Control_c, 1, 64, 0
8, 5039, Control_c, 1, 64, 64
8, 5040, Note_on_c, 1, 28, 90
8, 5050, Note_on_c, 1, 28, 0
8, 5278, Control_c, 1, 64, 0
8, 5279, Control_c, 1, 64, 64
8, 5280, Note_on_c, 1, 38, 90
8, 5290, Note_on_c, 1, 38, 0
8, 5518, Control_c, 1, 64, 0
8, 5519, Control_c, 1, 64, 64
8, 5520, Note_on_c, 1, 43, 90
8, 5530, Note_on_c, 1, 43, 0
8, 5758, Control_c, 1, 64, 0
8, 5759, Control_c, 1, 64, 64
8, 5760, Note_on_c, 1, 36, 90
8, 5770, Note_on_c, 1, 36, 0
8, 5998, Control_c, 1, 64, 0
8, 5999, Control_c, 1, 64, 64
8, 6000, Note_on_c, 1, 28, 90
8, 6010, Note_on_c, 1, 28, 0
8, 6238, Control_c, 1, 64, 0
8, 6239, Control_c, 1, 64, 64
8, 6240, Note_on_c, 1, 38, 90
8, 6250, Note_on_c, 1, 38, 0
8, 6478, Control_c, 1, 64, 0
8, 6479, Control_c, 1, 64, 64
8, 6480, Note_on_c, 1, 43, 90
8, 6490, Note_on_c, 1, 43, 0
8, 6718, Control_c, 1, 64, 0
8, 6719, Control_c, 1, 64, 64
8, 6720, Note_on_c, 1, 33, 90
8, 6730, Note_on_c, 1, 33, 0
8, 6958, Control_c, 1, 64, 0
8, 6959, Control_c, 1, 64, 64
8, 6960, Note_on_c, 1, 40, 90
8, 6970, Note_on_c, 1, 40, 0
8, 7198, Control_c, 1, 64, 0
8, 7199, Control_c, 1, 64, 64
8, 7200, Note_on_c, 1, 33, 90
8, 7210, Note_on_c, 1, 33, 0
8, 7438, Control_c, 1, 64, 0
8, 7439, Control_c, 1, 64, 64
8, 7440, Note_on_c, 1, 33, 90
8, 7450, Note_on_c, 1, 33, 0
8, 7558, Control_c, 1, 64, 0
8, 7559, Control_c, 1, 64, 64
8, 7560, Note_on_c, 1, 43, 90
8, 7570, Note_on_c, 1, 43, 0
8, 7678, Control_c, 1, 64, 0
8, 7679, Control_c, 1, 64, 64
8, 7680, Note_on_c, 1, 38, 90
8, 7690, Note_on_c, 1, 38, 0
8, 7918, Control_c, 1, 64, 0
8, 7919, Control_c, 1, 64, 64
8, 7920, Note_on_c, 1, 38, 90
8, 7930, Note_on_c, 1, 38, 0
8, 8158, Control_c, 1, 64, 0
8, 8159, Control_c, 1, 64, 64
8, 8160, Note_on_c, 1, 36, 90
8, 8170, Note_on_c, 1, 36, 0
8, 8398, Control_c, 1, 64, 0
8, 8399, Control_c, 1, 64, 64
8, 8400, Note_on_c, 1, 40, 90
8, 8410, Note_on_c, 1, 40, 0
8, 8638, Control_c, 1, 64, 0
8, 8639, Control_c, 1, 64, 64
8, 8640, Note_on_c, 1, 33, 90
8, 8650, Note_on_c, 1, 33, 0
8, 8878, Control_c, 1, 64, 0
8, 8879, Control_c, 1, 64, 64
8, 8880, Note_on_c, 1, 40, 90
8, 8890, Note_on_c, 1, 40, 0
8, 9118, Control_c, 1, 64, 0
8, 9119, Control_c, 1, 64, 64
8, 9120, Note_on_c, 1, 33, 90
8, 9130, Note_on_c, 1, 33, 0
8, 9358, Control_c, 1, 64, 0
8, 9359, Control_c, 1, 64, 64
8, 9360, Note_on_c, 1, 33, 90
8, 9370, Note_on_c, 1, 33, 0
8, 9478, Control_c, 1, 64, 0
8, 9479, Control_c, 1, 64, 64
8, 9480, Note_on_c, 1, 43, 90
8, 9490, Note_on_c, 1, 43, 0
8, 9598, Control_c, 1, 64, 0
8, 9599, Control_c, 1, 64, 64
8, 9600, Note_on_c, 1, 38, 90
8, 9610, Note_on_c, 1, 38, 0
8, 9838, Control_c, 1, 64, 0
8, 9839, Control_c, 1, 64, 64
8, 9840, Note_on_c, 1, 38, 90
8, 9850, Note_on_c, 1, 38, 0
8, 10078, Control_c, 1, 64, 0
8, 10079, Control_c, 1, 64, 64
8, 10080, Note_on_c, 1, 36, 90
8, 10090, Note_on_c, 1, 36, 0
8, 10198, Control_c, 1, 64, 0
8, 10199, Control_c, 1, 64, 64
8, 10200, Note_on_c, 1, 38, 90
8, 10210, Note_on_c, 1, 38, 0
8, 10318, Control_c, 1, 64, 0
8, 10319, Control_c, 1, 64, 64
8, 10320, Note_on_c, 1, 36, 90
8, 10330, Note_on_c, 1, 36, 0
8, 10438, Control_c, 1, 64, 0
8, 10439, Control_c, 1, 64, 64
8, 10440, Note_on_c, 1, 33, 90
8, 10450, Note_on_c, 1, 33, 0
8, 10558, Control_c, 1, 64, 0
8, 10559, Control_c, 1, 64, 64
8, 10560, Note_on_c, 1, 36, 90
8, 10570, Note_on_c, 1, 36, 0
8, 10798, Control_c, 1, 64, 0
8, 10799, Control_c, 1, 64, 64
8, 10800, Note_on_c, 1, 28, 90
8, 10810, Note_on_c, 1, 28, 0
8, 11038, Control_c, 1, 64, 0
8, 11039, Control_c, 1, 64, 64
8, 11040, Note_on_c, 1, 38, 90
8, 11050, Note_on_c, 1, 38, 0
8, 11278, Control_c, 1, 64, 0
8, 11279, Control_c, 1, 64, 64
8, 11280, Note_on_c, 1, 43, 90
8, 11290, Note_on_c, 1, 43, 0
8, 11518, Control_c, 1, 64, 0
8, 11519, Control_c, 1, 64, 64
8, 11520, Note_on_c, 1, 36, 90
8, 11530, Note_on_c, 1, 36, 0
8, 11758, Control_c, 1, 64, 0
8, 11759, Control_c, 1, 64, 64
8, 11760, Note_on_c, 1, 28, 90
8, 11770, Note_on_c, 1, 28, 0
8, 11998, Control_c, 1, 64, 0
8, 11999, Control_c, 1, 64, 64
8, 12000, Note_on_c, 1, 38, 90
8, 12010, Note_on_c, 1, 38, 0
8, 12238, Control_c, 1, 64, 0
8, 12239, Control_c, 1, 64, 64
8, 12240, Note_on_c, 1, 43, 90
8, 12250, Note_on_c, 1, 43, 0
8, 12478, Control_c, 1, 64, 0
8, 12479, Control_c, 1, 64, 64
8, 12480, Note_on_c, 1, 38, 90
8, 12552, Note_on_c, 1, 38, 0
8, 12598, Control_c, 1, 64, 0
8, 12600, Note_on_c, 1, 38, 90
8, 12668, Note_on_c, 1, 38, 0
8, 12720, Note_on_c, 1, 38, 90
8, 12790, Note_on_c, 1, 38, 0
8, 12840, Note_on_c, 1, 38, 90
8, 12878, Note_on_c, 1, 38, 0
8, 12920, Note_on_c, 1, 38, 90
8, 12947, Note_on_c, 1, 38, 0
8, 12960, Note_on_c, 1, 33, 90
8, 13043, Note_on_c, 1, 33, 0
8, 13080, Note_on_c, 1, 33, 90
8, 13136, Note_on_c, 1, 33, 0
8, 13200, Note_on_c, 1, 33, 90
8, 13244, Note_on_c, 1, 33, 0
8, 13320, Note_on_c, 1, 33, 90
8, 13354, Note_on_c, 1, 33, 0
8, 13400, Note_on_c, 1, 33, 90
8, 13422, Note_on_c, 1, 33, 0
8, 13440, Note_on_c, 1, 38, 90
8, 13514, Note_on_c, 1, 38, 0
8, 13560, Note_on_c, 1, 38, 90
8, 13627, Note_on_c, 1, 38, 0
8, 13680, Note_on_c, 1, 38, 90
8, 13736, Note_on_c, 1, 38, 0
8, 13800, Note_on_c, 1, 38, 90
8, 13837, Note_on_c, 1, 38, 0
8, 13880, Note_on_c, 1, 38, 90
8, 13906, Note_on_c, 1, 38, 0
8, 13920, Note_on_c, 1, 33, 90
8, 13973, Note_on_c, 1, 33, 0
8, 14040, Note_on_c, 1, 33, 90
8, 14078, Note_on_c, 1, 33, 0
8, 14160, Note_on_c, 1, 33, 90
8, 14197, Note_on_c, 1, 33, 0
8, 14280, Note_on_c, 1, 33, 90
8, 14309, Note_on_c, 1, 33, 0
8, 14360, Note_on_c, 1, 33, 90
8, 14380, Note_on_c, 1, 33, 0
8, 14400, Note_on_c, 1, 38, 90
8, 14456, Note_on_c, 1, 38, 0
8, 14520, Note_on_c, 1, 38, 90
8, 14560, Note_on_c, 1, 38, 0
8, 14640, Note_on_c, 1, 38, 90
8, 14673, Note_on_c, 1, 38, 0
8, 14760, Note_on_c, 1, 38, 90
8, 14788, Note_on_c, 1, 38, 0
8, 14840, Note_on_c, 1, 38, 90
8, 14862, Note_on_c, 1, 38, 0
8, 14880, Note_on_c, 1, 33, 90
8, 14930, Note_on_c, 1, 33, 0
8, 15000, Note_on_c, 1, 33, 90
8, 15038, Note_on_c, 1, 33, 0
8, 15120, Note_on_c, 1, 33, 90
8, 15154, Note_on_c, 1, 33, 0
8, 15240, Note_on_c, 1, 33, 90
8, 15267, Note_on_c, 1, 33, 0
8, 15360, Note_on_c, 1, 38, 90
8, 15430, Note_on_c, 1, 38, 0
8, 15480, Note_on_c, 1, 36, 90
8, 15525, Note_on_c, 1, 36, 0
8, 15600, Note_on_c, 1, 38, 90
8, 15635, Note_on_c, 1, 38, 0
8, 15720, Note_on_c, 1, 36, 90
8, 15757, Note_on_c, 1, 36, 0
8, 15840, Note_on_c, 1, 38, 90
8, 15868, Note_on_c, 1, 38, 0
8, 15960, Note_on_c, 1, 36, 90
8, 15993, Note_on_c, 1, 36, 0
8, 16080, Note_on_c, 1, 41, 90
8, 16115, Note_on_c, 1, 41, 0
8, 16200, Note_on_c, 1, 41, 90
8, 16227, Note_on_c, 1, 41, 0
8, 16319, Control_c, 1, 64, 64
8, 16320, Note_on_c, 1, 36, 90
8, 16330, Note_on_c, 1, 36, 0
8, 16558, Control_c, 1, 64, 0
8, 16559, Control_c, 1, 64, 64
8, 16560, Note_on_c, 1, 28, 90
8, 16570, Note_on_c, 1, 28, 0
8, 16798, Control_c, 1, 64, 0
8, 16799, Control_c, 1, 64, 64
8, 16800, Note_on_c, 1, 38, 90
8, 16810, Note_on_c, 1, 38, 0
8, 17038, Control_c, 1, 64, 0
8, 17039, Control_c, 1, 64, 64
8, 17040, Note_on_c, 1, 43, 90
8, 17050, Note_on_c, 1, 43, 0
8, 17278, Control_c, 1, 64, 0
8, 17279, Control_c, 1, 64, 64
8, 17280, Note_on_c, 1, 36, 90
8, 17290, Note_on_c, 1, 36, 0
8, 17518, Control_c, 1, 64, 0
8, 17519, Control_c, 1, 64, 64
8, 17520, Note_on_c, 1, 28, 90
8, 17530, Note_on_c, 1, 28, 0
8, 17758, Control_c, 1, 64, 0
8, 17759, Control_c, 1, 64, 64
8, 17760, Note_on_c, 1, 38, 90
8, 17770, Note_on_c, 1, 38, 0
8, 17998, Control_c, 1, 64, 0
8, 17999, Control_c, 1, 64, 64
8, 18000, Note_on_c, 1, 43, 90
8, 18010, Note_on_c, 1, 43, 0
8, 18238, Control_c, 1, 64, 0
8, 18239, Control_c, 1, 64, 64
8, 18240, Note_on_c, 1, 33, 90
8, 18250, Note_on_c, 1, 33, 0
8, 18478, Control_c, 1, 64, 0
8, 18479, Control_c, 1, 64, 64
8, 18480, Note_on_c, 1, 40, 90
8, 18490, Note_on_c, 1, 40, 0
8, 18718, Control_c, 1, 64, 0
8, 18719, Control_c, 1, 64, 64
8, 18720, Note_on_c, 1, 33, 90
8, 18730, Note_on_c, 1, 33, 0
8, 18958, Control_c, 1, 64, 0
8, 18959, Control_c, 1, 64, 64
8, 18960, Note_on_c, 1, 33, 90
8, 18970, Note_on_c, 1, 33, 0
8, 19078, Control_c, 1, 64, 0
8, 19079, Control_c, 1, 64, 64
8, 19080, Note_on_c, 1, 43, 90
8, 19090, Note_on_c, 1, 43, 0
8, 19198, Control_c, 1, 64, 0
8, 19199, Control_c, 1, 64, 64
8, 19200, Note_on_c, 1, 38, 90
8, 19210, Note_on_c, 1, 38, 0
8, 19438, Control_c, 1, 64, 0
8, 19439, Control_c, 1, 64, 64
8, 19440, Note_on_c, 1, 38, 90
8, 19450, Note_on_c, 1, 38, 0
8, 19678, Control_c, 1, 64, 0
8, 19679, Control_c, 1, 64, 64
8, 19680, Note_on_c, 1, 36, 90
8, 19690, Note_on_c, 1, 36, 0
8, 19918, Control_c, 1, 64, 0
8, 19919, Control_c, 1, 64, 64
8, 19920, Note_on_c, 1, 40, 90
8, 19930, Note_on_c, 1, 40, 0
8, 20158, Control_c, 1, 64, 0
8, 20159, Control_c, 1, 64, 64
8, 20160, Note_on_c, 1, 33, 90
8, 20170, Note_on_c, 1, 33, 0
8, 20398, Control_c, 1, 64, 0
8, 20399, Control_c, 1, 64, 64
8, 20400, Note_on_c, 1, 40, 90
8, 20410, Note_on_c, 1, 40, 0
8, 20638, Control_c, 1, 64, 0
8, 20639, Control_c, 1, 64, 64
8, 20640, Note_on_c, 1, 33, 90
8, 20650, Note_on_c, 1, 33, 0
8, 20878, Control_c, 1, 64, 0
8, 20879, Control_c, 1, 64, 64
8, 20880, Note_on_c, 1, 33, 90
8, 20890, Note_on_c, 1, 33, 0
8, 20998, Control_c, 1, 64, 0
8, 20999, Control_c, 1, 64, 64
8, 21000, Note_on_c, 1, 43, 90
8, 21010, Note_on_c, 1, 43, 0
8, 21118, Control_c, 1, 64, 0
8, 21119, Control_c, 1, 64, 64
8, 21120, Note_on_c, 1, 38, 90
8, 21130, Note_on_c, 1, 38, 0
8, 21358, Control_c, 1, 64, 0
8, 21359, Control_c, 1, 64, 64
8, 21360, Note_on_c, 1, 38, 90
8, 21370, Note_on_c, 1, 38, 0
8, 21598, Control_c, 1, 64, 0
8, 21599, Control_c, 1, 64, 64
8, 21600, Note_on_c, 1, 36, 90
8, 21610, Note_on_c, 1, 36, 0
8, 21718, Control_c, 1, 64, 0
8, 21719, Control_c, 1, 64, 64
8, 21720, Note_on_c, 1, 38, 90
8, 21730, Note_on_c, 1, 38, 0
8, 21838, Control_c, 1, 64, 0
8, 21839, Control_c, 1, 64, 64
8, 21840, Note_on_c, 1, 36, 90
8, 21850, Note_on_c, 1, 36, 0
8, 21958, Control_c, 1, 64, 0
8, 21959, Control_c, 1, 64, 64
8, 21960, Note_on_c, 1, 33, 90
8, 21970, Note_on_c, 1, 33, 0
8, 22078, Control_c, 1, 64, 0
8, 22079, Control_c, 1, 64, 64
8, 22080, Note_on_c, 1, 36, 90
8, 22090, Note_on_c, 1, 36, 0
8, 22318, Control_c, 1, 64, 0
8, 22319, Control_c, 1, 64, 64
8, 22320, Note_on_c, 1, 28, 90
8, 22330, Note_on_c, 1, 28, 0
8, 22558, Control_c, 1, 64, 0
8, 22559, Control_c, 1, 64, 64
8, 22560, Note_on_c, 1, 38, 90
8, 22570, Note_on_c, 1, 38, 0
8, 22798, Control_c, 1, 64, 0
8, 22799, Control_c, 1, 64, 64
8, 22800, Note_on_c, 1, 43, 90
8, 22810, Note_on_c, 1, 43, 0
8, 23038, Control_c, 1, 64, 0
8, 23039, Control_c, 1, 64, 64
8, 23040, Note_on_c, 1, 36, 90
8, 23050, Note_on_c, 1, 36, 0
8, 23278, Control_c, 1, 64, 0
8, 23279, Control_c, 1, 64, 64
8, 23280, Note_on_c, 1, 28, 90
8, 23290, Note_on_c, 1, 28, 0
8, 23518, Control_c, 1, 64, 0
8, 23519, Control_c, 1, 64, 64
8, 23520, Note_on_c, 1, 38, 90
8, 23530, Note_on_c, 1, 38, 0
8, 23758, Control_c, 1, 64, 0
8, 23759, Control_c, 1, 64, 64
8, 23760, Note_on_c, 1, 43, 90
8, 23770, Note_on_c, 1, 43, 0
8, 23998, Control_c, 1, 64, 0
8, 23999, Control_c, 1, 64, 64
8, 24000, Note_on_c, 1, 33, 90
8, 24010, Note_on_c, 1, 33, 0
8, 24238, Control_c, 1, 64, 0
8, 24239, Control_c, 1, 64, 64
8, 24240, Note_on_c, 1, 40, 90
8, 24250, Note_on_c, 1, 40, 0
8, 24478, Control_c, 1, 64, 0
8, 24479, Control_c, 1, 64, 64
8, 24480, Note_on_c, 1, 33, 90
8, 24490, Note_on_c, 1, 33, 0
8, 24718, Control_c, 1, 64, 0
8, 24719, Control_c, 1, 64, 64
8, 24720, Note_on_c, 1, 33, 90
8, 24730, Note_on_c, 1, 33, 0
8, 24838, Control_c, 1, 64, 0
8, 24839, Control_c, 1, 64, 64
8, 24840, Note_on_c, 1, 43, 90
8, 24850, Note_on_c, 1, 43, 0
8, 24958, Control_c, 1, 64, 0
8, 24959, Control_c, 1, 64, 64
8, 24960, Note_on_c, 1, 38, 90
8, 24970, Note_on_c, 1, 38, 0
8, 25198, Control_c, 1, 64, 0
8, 25199, Control_c, 1, 64, 64
8, 25200, Note_on_c, 1, 38, 90
8, 25210, Note_on_c, 1, 38, 0
8, 25438, Control_c, 1, 64, 0
8, 25439, Control_c, 1, 64, 64
8, 25440, Note_on_c, 1, 36, 90
8, 25450, Note_on_c, 1, 36, 0
8, 25678, Control_c, 1, 64, 0
8, 25679, Control_c, 1, 64, 64
8, 25680, Note_on_c, 1, 40, 90
8, 25690, Note_on_c, 1, 40, 0
8, 25918, Control_c, 1, 64, 0
8, 25919, Control_c, 1, 64, 64
8, 25920, Note_on_c, 1, 33, 90
8, 25930, Note_on_c, 1, 33, 0
8, 26158, Control_c, 1, 64, 0
8, 26159, Control_c, 1, 64, 64
8, 26160, Note_on_c, 1, 40, 90
8, 26170, Note_on_c, 1, 40, 0
8, 26398, Control_c, 1, 64, 0
8, 26399, Control_c, 1, 64, 64
8, 26400, Note_on_c, 1, 33, 90
8, 26410, Note_on_c, 1, 33, 0
8, 26638, Control_c, 1, 64, 0
8, 26639, Control_c, 1, 64, 64
8, 26640, Note_on_c, 1, 33, 90
8, 26650, Note_on_c, 1, 33, 0
8, 26758, Control_c, 1, 64, 0
8, 26759, Control_c, 1, 64, 64
8, 26760, Note_on_c, 1, 43, 90
8, 26770, Note_on_c, 1, 43, 0
8, 26878, Control_c, 1, 64, 0
8, 26879, Control_c, 1, 64, 64
8, 26880, Note_on_c, 1, 38, 90
8, 26890, Note_on_c, 1, 38, 0
8, 27118, Control_c, 1, 64, 0
8, 27119, Control_c, 1, 64, 64
8, 27120, Note_on_c, 1, 38, 90
8, 27130, Note_on_c, 1, 38, 0
8, 27358, Control_c, 1, 64, 0
8, 27359, Control_c, 1, 64, 64
8, 27360, Note_on_c, 1, 36, 90
8, 27370, Note_on_c, 1, 36, 0
8, 27478, Control_c, 1, 64, 0
8, 27479, Control_c, 1, 64, 64
8, 27480, Note_on_c, 1, 38, 90
8, 27490, Note_on_c, 1, 38, 0
8, 27598, Control_c, 1, 64, 0
8, 27599, Control_c, 1, 64, 64
8, 27600, Note_on_c, 1, 36, 90
8, 27610, Note_on_c, 1, 36, 0
8, 27718, Control_c, 1, 64, 0
8, 27719, Control_c, 1, 64, 64
8, 27720, Note_on_c, 1, 33, 90
8, 27730, Note_on_c, 1, 33, 0
8, 27838, Control_c, 1, 64, 0
8, 27839, Control_c, 1, 64, 64
8, 27840, Note_on_c, 1, 36, 90
8, 27850, Note_on_c, 1, 36, 0
8, 28078, Control_c, 1, 64, 0
8, 28079, Control_c, 1, 64, 64
8, 28080, Note_on_c, 1, 28, 90
8, 28080, Control_c, 1, 11, 126
8, 28090, Note_on_c, 1, 28, 0
8, 28096, Control_c, 1, 11, 125
8, 28112, Control_c, 1, 11, 124
8, 28128, Control_c, 1, 11, 123
8, 28142, Control_c, 1, 11, 122
8, 28158, Control_c, 1, 11, 121
8, 28174, Control_c, 1, 11, 120
8, 28190, Control_c, 1, 11, 119
8, 28204, Control_c, 1, 11, 118
8, 28220, Control_c, 1, 11, 117
8, 28236, Control_c, 1, 11, 116
8, 28252, Control_c, 1, 11, 115
8, 28266, Control_c, 1, 11, 114
8, 28282, Control_c, 1, 11, 113
8, 28298, Control_c, 1, 11, 112
8, 28314, Control_c, 1, 11, 111
8, 28318, Control_c, 1, 64, 0
8, 28319, Control_c, 1, 64, 64
8, 28320, Note_on_c, 1, 38, 90
8, 28328, Control_c, 1, 11, 110
8, 28330, Note_on_c, 1, 38, 0
8, 28344, Control_c, 1, 11, 109
8, 28360, Control_c, 1, 11, 108
8, 28376, Control_c, 1, 11, 107
8, 28390, Control_c, 1, 11, 106
8, 28406, Control_c, 1, 11, 105
8, 28422, Control_c, 1, 11, 104
8, 28438, Control_c, 1, 11, 103
8, 28452, Control_c, 1, 11, 102
8, 28468, Control_c, 1, 11, 101
8, 28484, Control_c, 1, 11, 100
8, 28500, Control_c, 1, 11, 99
8, 28514, Control_c, 1, 11, 98
8, 28530, Control_c, 1, 11, 97
8, 28546, Control_c, 1, 11, 96
8, 28558, Control_c, 1, 64, 0
8, 28559, Control_c, 1, 64, 64
8, 28560, Note_on_c, 1, 43, 90
8, 28560, Control_c, 1, 11, 95
8, 28570, Note_on_c, 1, 43, 0
8, 28576, Control_c, 1, 11, 94
8, 28592, Control_c, 1, 11, 93
8, 28608, Control_c, 1, 11, 92
8, 28622, Control_c, 1, 11, 91
8, 28638, Control_c, 1, 11, 90
8, 28654, Control_c, 1, 11, 89
8, 28670, Control_c, 1, 11, 88
8, 28684, Control_c, 1, 11, 87
8, 28700, Control_c, 1, 11, 86
8, 28716, Control_c, 1, 11, 85
8, 28732, Control_c, 1, 11, 84
8, 28746, Control_c, 1, 11, 83
8, 28762, Control_c, 1, 11, 82
8, 28778, Control_c, 1, 11, 81
8, 28794, Control_c, 1, 11, 80
8, 28798, Control_c, 1, 64, 0
8, 28799, Control_c, 1, 64, 64
8, 28800, Note_on_c, 1, 36, 90
8, 28808, Control_c, 1, 11, 79
8, 28810, Note_on_c, 1, 36, 0
8, 28824, Control_c, 1, 11, 78
8, 28840, Control_c, 1, 11, 77
8, 28856, Control_c, 1, 11, 76
8, 28870, Control_c, 1, 11, 75
8, 28886, Control_c, 1, 11, 74
8, 28902, Control_c, 1, 11, 73
8, 28918, Control_c, 1, 11, 72
8, 28932, Control_c, 1, 11, 71
8, 28948, Control_c, 1, 11, 70
8, 28964, Control_c, 1, 11, 69
8, 28980, Control_c, 1, 11, 68
8, 28994, Control_c, 1, 11, 67
8, 29010, Control_c, 1, 11, 66
8, 29026, Control_c, 1, 11, 65
8, 29038, Control_c, 1, 64, 0
8, 29039, Control_c, 1, 64, 64
8, 29040, Note_on_c, 1, 28, 90
8, 29040, Control_c, 1, 11, 63
8, 29050, Note_on_c, 1, 28, 0
8, 29052, Control_c, 1, 11, 62
8, 29064, Control_c, 1, 11, 61
8, 29076, Control_c, 1, 11, 60
8, 29088, Control_c, 1, 11, 59
8, 29100, Control_c, 1, 11, 58
8, 29110, Control_c, 1, 11, 57
8, 29122, Control_c, 1, 11, 56
8, 29134, Control_c, 1, 11, 55
8, 29146, Control_c, 1, 11, 54
8, 29158, Control_c, 1, 11, 53
8, 29168, Control_c, 1, 11, 52
8, 29180, Control_c, 1, 11, 51
8, 29192, Control_c, 1, 11, 50
8, 29204, Control_c, 1, 11, 49
8, 29216, Control_c, 1, 11, 48
8, 29226, Control_c, 1, 11, 47
8, 29238, Control_c, 1, 11, 46
8, 29250, Control_c, 1, 11, 45
8, 29262, Control_c, 1, 11, 44
8, 29274, Control_c, 1, 11, 43
8, 29278, Control_c, 1, 64, 0
8, 29279, Control_c, 1, 64, 64
8, 29280, Note_on_c, 1, 38, 90
8, 29284, Control_c, 1, 11, 42
8, 29290, Note_on_c, 1, 38, 0
8, 29296, Control_c, 1, 11, 41
8, 29308, Control_c, 1, 11, 40
8, 29320, Control_c, 1, 11, 39
8, 29332, Control_c, 1, 11, 38
8, 29342, Control_c, 1, 11, 37
8, 29354, Control_c, 1, 11, 36
8, 29366, Control_c, 1, 11, 35
8, 29378, Control_c, 1, 11, 34
8, 29390, Control_c, 1, 11, 33
8, 29400, Control_c, 1, 11, 32
8, 29412, Control_c, 1, 11, 31
8, 29424, Control_c, 1, 11, 30
8, 29436, Control_c, 1, 11, 29
8, 29448, Control_c, 1, 11, 28
8, 29460, Control_c, 1, 11, 27
8, 29470, Control_c, 1, 11, 26
8, 29482, Control_c, 1, 11, 25
8, 29494, Control_c, 1, 11, 24
8, 29506, Control_c, 1, 11, 23
8, 29518, Control_c, 1, 64, 0
8, 29518, Control_c, 1, 11, 22
8, 29519, Control_c, 1, 64, 64
8, 29520, Note_on_c, 1, 43, 90
8, 29528, Control_c, 1, 11, 21
8, 29530, Note_on_c, 1, 43, 0
8, 29540, Control_c, 1, 11, 20
8, 29552, Control_c, 1, 11, 19
8, 29564, Control_c, 1, 11, 18
8, 29576, Control_c, 1, 11, 17
8, 29586, Control_c, 1, 11, 16
8, 29598, Control_c, 1, 11, 15
8, 29610, Control_c, 1, 11, 14
8, 29622, Control_c, 1, 11, 13
8, 29634, Control_c, 1, 11, 12
8, 29644, Control_c, 1, 11, 11
8, 29656, Control_c, 1, 11, 10
8, 29668, Control_c, 1, 11, 9
8, 29680, Control_c, 1, 11, 8
8, 29692, Control_c, 1, 11, 7
8, 29702, Control_c, 1, 11, 6
8, 29714, Control_c, 1, 11, 5
8, 29726, Control_c, 1, 11, 4
8, 29738, Control_c, 1, 11, 3
8, 29750, Control_c, 1, 11, 2
8, 29758, Control_c, 1, 64, 0
8, 29760, Control_c, 1, 11, 1
8, 29760, End_track
9, 0, Start_track
9, 0, MIDI_port, 0
9, 0, Title_t, "VOIX"
9, 0, Program_c, 2, 63
9, 0, Control_c, 2, 7, 127
9, 12480, Note_on_c, 2, 62, 102
9, 12480, Note_on_c, 2, 65, 88
9, 12504, Note_on_c, 2, 62, 0
9, 12506, Note_on_c, 2, 65, 0
9, 12540, Note_on_c, 2, 65, 88
9, 12540, Note_on_c, 2, 62, 92
9, 12561, Note_on_c, 2, 62, 0
9, 12561, Note_on_c, 2, 65, 0
9, 12600, Note_on_c, 2, 62, 106
9, 12600, Note_on_c, 2, 65, 98
9, 12618, Note_on_c, 2, 62, 0
9, 12619, Note_on_c, 2, 65, 0
9, 12660, Note_on_c, 2, 65, 86
9, 12660, Note_on_c, 2, 62, 98
9, 12679, Note_on_c, 2, 62, 0
9, 12681, Note_on_c, 2, 65, 0
9, 12720, Note_on_c, 2, 65, 94
9, 12720, Note_on_c, 2, 62, 102
9, 12738, Note_on_c, 2, 62, 0
9, 12740, Note_on_c, 2, 65, 0
9, 12780, Note_on_c, 2, 65, 90
9, 12780, Note_on_c, 2, 62, 100
9, 12797, Note_on_c, 2, 62, 0
9, 12799, Note_on_c, 2, 65, 0
9, 12840, Note_on_c, 2, 65, 96
9, 12840, Note_on_c, 2, 62, 106
9, 12857, Note_on_c, 2, 62, 0
9, 12859, Note_on_c, 2, 65, 0
9, 12900, Note_on_c, 2, 65, 88
9, 12900, Note_on_c, 2, 62, 100
9, 12919, Note_on_c, 2, 62, 0
9, 12919, Note_on_c, 2, 65, 0
9, 12960, Note_on_c, 2, 61, 106
9, 12960, Note_on_c, 2, 64, 98
9, 12986, Note_on_c, 2, 64, 0
9, 12989, Note_on_c, 2, 61, 0
9, 13020, Note_on_c, 2, 64, 90
9, 13020, Note_on_c, 2, 61, 106
9, 13040, Note_on_c, 2, 61, 0
9, 13040, Note_on_c, 2, 64, 0
9, 13080, Note_on_c, 2, 64, 90
9, 13080, Note_on_c, 2, 61, 106
9, 13098, Note_on_c, 2, 61, 0
9, 13098, Note_on_c, 2, 64, 0
9, 13140, Note_on_c, 2, 61, 108
9, 13140, Note_on_c, 2, 64, 90
9, 13158, Note_on_c, 2, 64, 0
9, 13158, Note_on_c, 2, 61, 0
9, 13200, Note_on_c, 2, 61, 106
9, 13200, Note_on_c, 2, 64, 88
9, 13217, Note_on_c, 2, 64, 0
9, 13217, Note_on_c, 2, 61, 0
9, 13260, Note_on_c, 2, 64, 88
9, 13260, Note_on_c, 2, 61, 108
9, 13279, Note_on_c, 2, 61, 0
9, 13279, Note_on_c, 2, 64, 0
9, 13320, Note_on_c, 2, 64, 90
9, 13320, Note_on_c, 2, 61, 110
9, 13335, Note_on_c, 2, 61, 0
9, 13336, Note_on_c, 2, 64, 0
9, 13380, Note_on_c, 2, 61, 61
9, 13380, Note_on_c, 2, 64, 92
9, 13393, Note_on_c, 2, 61, 0
9, 13394, Note_on_c, 2, 64, 0
9, 13440, Note_on_c, 2, 62, 102
9, 13440, Note_on_c, 2, 65, 88
9, 13464, Note_on_c, 2, 62, 0
9, 13466, Note_on_c, 2, 65, 0
9, 13500, Note_on_c, 2, 65, 88
9, 13500, Note_on_c, 2, 62, 92
9, 13521, Note_on_c, 2, 62, 0
9, 13521, Note_on_c, 2, 65, 0
9, 13560, Note_on_c, 2, 62, 106
9, 13560, Note_on_c, 2, 65, 98
9, 13578, Note_on_c, 2, 62, 0
9, 13579, Note_on_c, 2, 65, 0
9, 13620, Note_on_c, 2, 65, 86
9, 13620, Note_on_c, 2, 62, 98
9, 13639, Note_on_c, 2, 62, 0
9, 13641, Note_on_c, 2, 65, 0
9, 13680, Note_on_c, 2, 65, 94
9, 13680, Note_on_c, 2, 62, 102
9, 13698, Note_on_c, 2, 62, 0
9, 13700, Note_on_c, 2, 65, 0
9, 13740, Note_on_c, 2, 65, 90
9, 13740, Note_on_c, 2, 62, 100
9, 13757, Note_on_c, 2, 62, 0
9, 13759, Note_on_c, 2, 65, 0
9, 13800, Note_on_c, 2, 65, 96
9, 13800, Note_on_c, 2, 62, 106
9, 13817, Note_on_c, 2, 62, 0
9, 13819, Note_on_c, 2, 65, 0
9, 13860, Note_on_c, 2, 65, 88
9, 13860, Note_on_c, 2, 62, 100
9, 13879, Note_on_c, 2, 62, 0
9, 13879, Note_on_c, 2, 65, 0
9, 13920, Note_on_c, 2, 61, 106
9, 13920, Note_on_c, 2, 64, 98
9, 13946, Note_on_c, 2, 64, 0
9, 13949, Note_on_c, 2, 61, 0
9, 13980, Note_on_c, 2, 64, 90
9, 13980, Note_on_c, 2, 61, 106
9, 14000, Note_on_c, 2, 61, 0
9, 14000, Note_on_c, 2, 64, 0
9, 14040, Note_on_c, 2, 64, 90
9, 14040, Note_on_c, 2, 61, 106
9, 14058, Note_on_c, 2, 61, 0
9, 14058, Note_on_c, 2, 64, 0
9, 14100, Note_on_c, 2, 61, 108
9, 14100, Note_on_c, 2, 64, 90
9, 14118, Note_on_c, 2, 64, 0
9, 14118, Note_on_c, 2, 61, 0
9, 14160, Note_on_c, 2, 61, 106
9, 14160, Note_on_c, 2, 64, 88
9, 14177, Note_on_c, 2, 64, 0
9, 14177, Note_on_c, 2, 61, 0
9, 14220, Note_on_c, 2, 64, 88
9, 14220, Note_on_c, 2, 61, 108
9, 14239, Note_on_c, 2, 61, 0
9, 14239, Note_on_c, 2, 64, 0
9, 14280, Note_on_c, 2, 64, 90
9, 14280, Note_on_c, 2, 61, 110
9, 14295, Note_on_c, 2, 61, 0
9, 14296, Note_on_c, 2, 64, 0
9, 14340, Note_on_c, 2, 61, 61
9, 14340, Note_on_c, 2, 64, 92
9, 14353, Note_on_c, 2, 61, 0
9, 14354, Note_on_c, 2, 64, 0
9, 14400, Note_on_c, 2, 62, 102
9, 14400, Note_on_c, 2, 65, 88
9, 14424, Note_on_c, 2, 62, 0
9, 14426, Note_on_c, 2, 65, 0
9, 14460, Note_on_c, 2, 65, 88
9, 14460, Note_on_c, 2, 62, 92
9, 14481, Note_on_c, 2, 62, 0
9, 14481, Note_on_c, 2, 65, 0
9, 14520, Note_on_c, 2, 62, 106
9, 14520, Note_on_c, 2, 65, 98
9, 14538, Note_on_c, 2, 62, 0
9, 14539, Note_on_c, 2, 65, 0
9, 14580, Note_on_c, 2, 65, 86
9, 14580, Note_on_c, 2, 62, 98
9, 14599, Note_on_c, 2, 62, 0
9, 14601, Note_on_c, 2, 65, 0
9, 14640, Note_on_c, 2, 65, 94
9, 14640, Note_on_c, 2, 62, 102
9, 14658, Note_on_c, 2, 62, 0
9, 14660, Note_on_c, 2, 65, 0
9, 14700, Note_on_c, 2, 65, 90
9, 14700, Note_on_c, 2, 62, 100
9, 14717, Note_on_c, 2, 62, 0
9, 14719, Note_on_c, 2, 65, 0
9, 14760, Note_on_c, 2, 65, 96
9, 14760, Note_on_c, 2, 62, 106
9, 14777, Note_on_c, 2, 62, 0
9, 14779, Note_on_c, 2, 65, 0
9, 14820, Note_on_c, 2, 65, 88
9, 14820, Note_on_c, 2, 62, 100
9, 14839, Note_on_c, 2, 62, 0
9, 14839, Note_on_c, 2, 65, 0
9, 14880, Note_on_c, 2, 61, 106
9, 14880, Note_on_c, 2, 64, 98
9, 14906, Note_on_c, 2, 64, 0
9, 14909, Note_on_c, 2, 61, 0
9, 14940, Note_on_c, 2, 64, 90
9, 14940, Note_on_c, 2, 61, 106
9, 14960, Note_on_c, 2, 61, 0
9, 14960, Note_on_c, 2, 64, 0
9, 15000, Note_on_c, 2, 64, 90
9, 15000, Note_on_c, 2, 61, 106
9, 15018, Note_on_c, 2, 61, 0
9, 15018, Note_on_c, 2, 64, 0
9, 15060, Note_on_c, 2, 61, 108
9, 15060, Note_on_c, 2, 64, 90
9, 15078, Note_on_c, 2, 64, 0
9, 15078, Note_on_c, 2, 61, 0
9, 15120, Note_on_c, 2, 61, 106
9, 15120, Note_on_c, 2, 64, 88
9, 15137, Note_on_c, 2, 64, 0
9, 15137, Note_on_c, 2, 61, 0
9, 15180, Note_on_c, 2, 64, 88
9, 15180, Note_on_c, 2, 61, 108
9, 15199, Note_on_c, 2, 61, 0
9, 15199, Note_on_c, 2, 64, 0
9, 15240, Note_on_c, 2, 64, 90
9, 15240, Note_on_c, 2, 61, 110
9, 15255, Note_on_c, 2, 61, 0
9, 15256, Note_on_c, 2, 64, 0
9, 15300, Note_on_c, 2, 61, 61
9, 15300, Note_on_c, 2, 64, 92
9, 15313, Note_on_c, 2, 61, 0
9, 15314, Note_on_c, 2, 64, 0
9, 15366, Note_on_c, 2, 62, 110
9, 15367, Note_on_c, 2, 65, 115
9, 15384, Note_on_c, 2, 65, 0
9, 15388, Note_on_c, 2, 62, 0
9, 15418, Note_on_c, 2, 62, 98
9, 15419, Note_on_c, 2, 65, 108
9, 15435, Note_on_c, 2, 65, 0
9, 15436, Note_on_c, 2, 62, 0
9, 15477, Note_on_c, 2, 62, 112
9, 15478, Note_on_c, 2, 65, 115
9, 15493, Note_on_c, 2, 65, 0
9, 15493, Note_on_c, 2, 62, 0
9, 15534, Note_on_c, 2, 62, 96
9, 15535, Note_on_c, 2, 65, 104
9, 15550, Note_on_c, 2, 65, 0
9, 15551, Note_on_c, 2, 62, 0
9, 15593, Note_on_c, 2, 62, 110
9, 15594, Note_on_c, 2, 65, 115
9, 15608, Note_on_c, 2, 65, 0
9, 15608, Note_on_c, 2, 62, 0
9, 15655, Note_on_c, 2, 62, 104
9, 15655, Note_on_c, 2, 65, 110
9, 15668, Note_on_c, 2, 65, 0
9, 15670, Note_on_c, 2, 62, 0
9, 15713, Note_on_c, 2, 62, 104
9, 15713, Note_on_c, 2, 65, 112
9, 15727, Note_on_c, 2, 65, 0
9, 15727, Note_on_c, 2, 62, 0
9, 15770, Note_on_c, 2, 62, 104
9, 15770, Note_on_c, 2, 65, 110
9, 15786, Note_on_c, 2, 65, 0
9, 15787, Note_on_c, 2, 62, 0
9, 15837, Note_on_c, 2, 60, 114
9, 15838, Note_on_c, 2, 65, 116
9, 15852, Note_on_c, 2, 65, 0
9, 15853, Note_on_c, 2, 60, 0
9, 15896, Note_on_c, 2, 60, 114
9, 15897, Note_on_c, 2, 65, 115
9, 15911, Note_on_c, 2, 65, 0
9, 15912, Note_on_c, 2, 60, 0
9, 15956, Note_on_c, 2, 60, 114
9, 15956, Note_on_c, 2, 65, 115
9, 15971, Note_on_c, 2, 65, 0
9, 15971, Note_on_c, 2, 60, 0
9, 16016, Note_on_c, 2, 60, 110
9, 16016, Note_on_c, 2, 65, 112
9, 16031, Note_on_c, 2, 65, 0
9, 16031, Note_on_c, 2, 60, 0
9, 16076, Note_on_c, 2, 65, 117
9, 16077, Note_on_c, 2, 69, 121
9, 16091, Note_on_c, 2, 69, 0
9, 16091, Note_on_c, 2, 65, 0
9, 16135, Note_on_c, 2, 65, 112
9, 16136, Note_on_c, 2, 69, 116
9, 16149, Note_on_c, 2, 69, 0
9, 16150, Note_on_c, 2, 65, 0
9, 16193, Note_on_c, 2, 65, 112
9, 16194, Note_on_c, 2, 69, 117
9, 16208, Note_on_c, 2, 69, 0
9, 16208, Note_on_c, 2, 65, 0
9, 16255, Note_on_c, 2, 65, 108
9, 16255, Note_on_c, 2, 69, 116
9, 16268, Note_on_c, 2, 69, 0
9, 16268, Note_on_c, 2, 65, 0
9, 16268, End_track
10, 0, Start_track
10, 0, MIDI_port, 0
10, 0, Title_t, "REV. CYMBAL"
10, 0, Program_c, 3, 119
10, 0, Control_c, 3, 7, 127
10, 4799, Control_c, 3, 64, 64
10, 4860, Note_on_c, 3, 43, 85
10, 4870, Note_on_c, 3, 43, 0
10, 5100, Control_c, 3, 64, 0
10, 10559, Control_c, 3, 64, 64
10, 10620, Note_on_c, 3, 43, 85
10, 10630, Note_on_c, 3, 43, 0
10, 10860, Control_c, 3, 64, 0
10, 16319, Control_c, 3, 64, 64
10, 16380, Note_on_c, 3, 43, 85
10, 16390, Note_on_c, 3, 43, 0
10, 16560, Control_c, 3, 64, 0
10, 22079, Control_c, 3, 64, 64
10, 22140, Note_on_c, 3, 43, 85
10, 22150, Note_on_c, 3, 43, 0
10, 22380, Control_c, 3, 64, 0
10, 27839, Control_c, 3, 64, 64
10, 27900, Note_on_c, 3, 43, 85
10, 27910, Note_on_c, 3, 43, 0
10, 28140, Control_c, 3, 64, 0
10, 28140, End_track
11, 0, Start_track
11, 0, MIDI_port, 0
11, 0, Program_c, 6, 73
11, 0, Control_c, 6, 7, 127
11, 875, Note_on_c, 6, 69, 100
11, 907, Note_on_c, 6, 71, 100
11, 917, Note_on_c, 6, 69, 0
11, 945, Note_on_c, 6, 71, 0
11, 949, Note_on_c, 6, 72, 110
11, 1001, Note_on_c, 6, 72, 0
11, 1020, Note_on_c, 6, 72, 110
11, 1104, Note_on_c, 6, 72, 0
11, 1120, Note_on_c, 6, 72, 115
11, 1139, Note_on_c, 6, 72, 0
11, 1157, Note_on_c, 6, 72, 115
11, 1182, Note_on_c, 6, 72, 0
11, 1202, Note_on_c, 6, 74, 114
11, 1260, Note_on_c, 6, 74, 0
11, 1278, Note_on_c, 6, 72, 121
11, 1360, Note_on_c, 6, 72, 0
11, 1371, Note_on_c, 6, 71, 98
11, 1403, Note_on_c, 6, 71, 0
11, 1403, Note_on_c, 6, 69, 102
11, 1431, Note_on_c, 6, 69, 0
11, 1450, Note_on_c, 6, 69, 115
11, 1567, Note_on_c, 6, 64, 118
11, 1575, Note_on_c, 6, 69, 0
11, 1677, Note_on_c, 6, 64, 0
11, 1683, Note_on_c, 6, 69, 118
11, 1792, Note_on_c, 6, 69, 0
11, 1799, Note_on_c, 6, 67, 114
11, 1915, Note_on_c, 6, 67, 0
11, 1918, Note_on_c, 6, 65, 123
11, 1993, Note_on_c, 6, 65, 0
11, 1993, Note_on_c, 6, 69, 110
11, 2080, Note_on_c, 6, 68, 110
11, 2090, Note_on_c, 6, 69, 0
11, 2116, Note_on_c, 6, 69, 114
11, 2121, Note_on_c, 6, 68, 0
11, 2151, Note_on_c, 6, 69, 0
11, 2163, Note_on_c, 6, 71, 110
11, 2234, Note_on_c, 6, 69, 121
11, 2235, Note_on_c, 6, 71, 0
11, 2327, Note_on_c, 6, 67, 116
11, 2336, Note_on_c, 6, 69, 0
11, 2357, Note_on_c, 6, 65, 120
11, 2364, Note_on_c, 6, 67, 0
11, 2405, Note_on_c, 6, 65, 0
11, 2405, Note_on_c, 6, 64, 122
11, 2668, Note_on_c, 6, 64, 0
11, 2795, Note_on_c, 6, 69, 100
11, 2827, Note_on_c, 6, 71, 100
11, 2837, Note_on_c, 6, 69, 0
11, 2865, Note_on_c, 6, 71, 0
11, 2869, Note_on_c, 6, 72, 110
11, 2921, Note_on_c, 6, 72, 0
11, 2940, Note_on_c, 6, 72, 110
11, 3024, Note_on_c, 6, 72, 0
11, 3040, Note_on_c, 6, 72, 115
11, 3059, Note_on_c, 6, 72, 0
11, 3077, Note_on_c, 6, 72, 115
11, 3102, Note_on_c, 6, 72, 0
11, 3122, Note_on_c, 6, 74, 114
11, 3180, Note_on_c, 6, 74, 0
11, 3198, Note_on_c, 6, 72, 121
11, 3280, Note_on_c, 6, 72, 0
11, 3291, Note_on_c, 6, 71, 98
11, 3323, Note_on_c, 6, 71, 0
11, 3323, Note_on_c, 6, 69, 102
11, 3351, Note_on_c, 6, 69, 0
11, 3370, Note_on_c, 6, 69, 115
11, 3487, Note_on_c, 6, 64, 118
11, 3495, Note_on_c, 6, 69, 0
11, 3597, Note_on_c, 6, 64, 0
11, 3603, Note_on_c, 6, 69, 118
11, 3712, Note_on_c, 6, 69, 0
11, 3719, Note_on_c, 6, 67, 114
11, 3835, Note_on_c, 6, 67, 0
11, 3838, Note_on_c, 6, 65, 123
11, 3913, Note_on_c, 6, 65, 0
11, 3913, Note_on_c, 6, 69, 110
11, 4000, Note_on_c, 6, 68, 110
11, 4010, Note_on_c, 6, 69, 0
11, 4036, Note_on_c, 6, 69, 114
11, 4041, Note_on_c, 6, 68, 0
11, 4071, Note_on_c, 6, 69, 0
11, 4083, Note_on_c, 6, 71, 110
11, 4154, Note_on_c, 6, 69, 121
11, 4155, Note_on_c, 6, 71, 0
11, 4247, Note_on_c, 6, 67, 116
11, 4256, Note_on_c, 6, 69, 0
11, 4277, Note_on_c, 6, 65, 120
11, 4284, Note_on_c, 6, 67, 0
11, 4325, Note_on_c, 6, 65, 0
11, 4325, Note_on_c, 6, 64, 122
11, 4588, Note_on_c, 6, 64, 0
11, 4683, Note_on_c, 6, 69, 110
11, 4770, Note_on_c, 6, 69, 0
11, 4795, Note_on_c, 6, 67, 114
11, 5023, Note_on_c, 6, 67, 0
11, 5041, Note_on_c, 6, 69, 104
11, 5072, Note_on_c, 6, 67, 115
11, 5083, Note_on_c, 6, 69, 0
11, 5105, Note_on_c, 6, 64, 115
11, 5108, Note_on_c, 6, 67, 0
11, 5345, Note_on_c, 6, 64, 0
11, 5637, Note_on_c, 6, 69, 94
11, 5749, Note_on_c, 6, 69, 0
11, 5766, Note_on_c, 6, 67, 102
11, 5993, Note_on_c, 6, 67, 0
11, 6014, Note_on_c, 6, 69, 73
11, 6035, Note_on_c, 6, 67, 115
11, 6048, Note_on_c, 6, 69, 0
11, 6076, Note_on_c, 6, 64, 92
11, 6092, Note_on_c, 6, 67, 0
11, 6358, Note_on_c, 6, 64, 0
11, 6635, Note_on_c, 6, 69, 100
11, 6667, Note_on_c, 6, 71, 100
11, 6677, Note_on_c, 6, 69, 0
11, 6705, Note_on_c, 6, 71, 0
11, 6709, Note_on_c, 6, 72, 110
11, 6761, Note_on_c, 6, 72, 0
11, 6780, Note_on_c, 6, 72, 110
11, 6864, Note_on_c, 6, 72, 0
11, 6880, Note_on_c, 6, 72, 115
11, 6899, Note_on_c, 6, 72, 0
11, 6917, Note_on_c, 6, 72, 115
11, 6942, Note_on_c, 6, 72, 0
11, 6962, Note_on_c, 6, 74, 114
11, 7020, Note_on_c, 6, 74, 0
11, 7038, Note_on_c, 6, 72, 121
11, 7120, Note_on_c, 6, 72, 0
11, 7131, Note_on_c, 6, 71, 98
11, 7163, Note_on_c, 6, 71, 0
11, 7163, Note_on_c, 6, 69, 102
11, 7191, Note_on_c, 6, 69, 0
11, 7210, Note_on_c, 6, 69, 115
11, 7327, Note_on_c, 6, 64, 118
11, 7335, Note_on_c, 6, 69, 0
11, 7437, Note_on_c, 6, 64, 0
11, 7443, Note_on_c, 6, 69, 118
11, 7552, Note_on_c, 6, 69, 0
11, 7559, Note_on_c, 6, 67, 114
11, 7675, Note_on_c, 6, 67, 0
11, 7678, Note_on_c, 6, 65, 123
11, 7753, Note_on_c, 6, 65, 0
11, 7753, Note_on_c, 6, 69, 110
11, 7840, Note_on_c, 6, 68, 110
11, 7850, Note_on_c, 6, 69, 0
11, 7876, Note_on_c, 6, 69, 114
11, 7881, Note_on_c, 6, 68, 0
11, 7911, Note_on_c, 6, 69, 0
11, 7923, Note_on_c, 6, 71, 110
11, 7994, Note_on_c, 6, 69, 121
11, 7995, Note_on_c, 6, 71, 0
11, 8087, Note_on_c, 6, 67, 116
11, 8096, Note_on_c, 6, 69, 0
11, 8117, Note_on_c, 6, 65, 120
11, 8124, Note_on_c, 6, 67, 0
11, 8165, Note_on_c, 6, 65, 0
11, 8165, Note_on_c, 6, 64, 122
11, 8428, Note_on_c, 6, 64, 0
11, 8555, Note_on_c, 6, 69, 100
11, 8587, Note_on_c, 6, 71, 100
11, 8597, Note_on_c, 6, 69, 0
11, 8625, Note_on_c, 6, 71, 0
11, 8629, Note_on_c, 6, 72, 110
11, 8681, Note_on_c, 6, 72, 0
11, 8700, Note_on_c, 6, 72, 110
11, 8784, Note_on_c, 6, 72, 0
11, 8800, Note_on_c, 6, 72, 115
11, 8819, Note_on_c, 6, 72, 0
11, 8837, Note_on_c, 6, 72, 115
11, 8862, Note_on_c, 6, 72, 0
11, 8882, Note_on_c, 6, 74, 114
11, 8940, Note_on_c, 6, 74, 0
11, 8958, Note_on_c, 6, 72, 121
11, 9040, Note_on_c, 6, 72, 0
11, 9051, Note_on_c, 6, 71, 98
11, 9083, Note_on_c, 6, 71, 0
11, 9083, Note_on_c, 6, 69, 102
11, 9111, Note_on_c, 6, 69, 0
11, 9130, Note_on_c, 6, 69, 115
11, 9247, Note_on_c, 6, 64, 118
11, 9255, Note_on_c, 6, 69, 0
11, 9357, Note_on_c, 6, 64, 0
11, 9363, Note_on_c, 6, 69, 118
11, 9472, Note_on_c, 6, 69, 0
11, 9479, Note_on_c, 6, 67, 114
11, 9595, Note_on_c, 6, 67, 0
11, 9598, Note_on_c, 6, 65, 123
11, 9673, Note_on_c, 6, 65, 0
11, 9673, Note_on_c, 6, 69, 110
11, 9760, Note_on_c, 6, 68, 110
11, 9770, Note_on_c, 6, 69, 0
11, 9796, Note_on_c, 6, 69, 114
11, 9801, Note_on_c, 6, 68, 0
11, 9831, Note_on_c, 6, 69, 0
11, 9843, Note_on_c, 6, 71, 110
11, 9914, Note_on_c, 6, 69, 121
11, 9915, Note_on_c, 6, 71, 0
11, 10007, Note_on_c, 6, 67, 116
11, 10016, Note_on_c, 6, 69, 0
11, 10037, Note_on_c, 6, 65, 120
11, 10044, Note_on_c, 6, 67, 0
11, 10085, Note_on_c, 6, 65, 0
11, 10085, Note_on_c, 6, 64, 122
11, 10348, Note_on_c, 6, 64, 0
11, 10443, Note_on_c, 6, 69, 110
11, 10530, Note_on_c, 6, 69, 0
11, 10555, Note_on_c, 6, 67, 114
11, 10783, Note_on_c, 6, 67, 0
11, 10801, Note_on_c, 6, 69, 104
11, 10832, Note_on_c, 6, 67, 115
11, 10843, Note_on_c, 6, 69, 0
11, 10865, Note_on_c, 6, 64, 115
11, 10868, Note_on_c, 6, 67, 0
11, 11105, Note_on_c, 6, 64, 0
11, 11397, Note_on_c, 6, 69, 94
11, 11509, Note_on_c, 6, 69, 0
11, 11526, Note_on_c, 6, 67, 102
11, 11753, Note_on_c, 6, 67, 0
11, 11774, Note_on_c, 6, 69, 73
11, 11795, Note_on_c, 6, 67, 115
11, 11808, Note_on_c, 6, 69, 0
11, 11836, Note_on_c, 6, 64, 92
11, 11852, Note_on_c, 6, 67, 0
11, 12118, Note_on_c, 6, 64, 0
11, 12480, Note_on_c, 6, 69, 104
11, 12522, Note_on_c, 6, 69, 0
11, 12541, Note_on_c, 6, 69, 98
11, 12573, Note_on_c, 6, 69, 0
11, 12607, Note_on_c, 6, 69, 112
11, 12639, Note_on_c, 6, 69, 0
11, 12662, Note_on_c, 6, 69, 98
11, 12689, Note_on_c, 6, 69, 0
11, 12723, Note_on_c, 6, 69, 104
11, 12774, Note_on_c, 6, 69, 0
11, 12793, Note_on_c, 6, 69, 102
11, 12820, Note_on_c, 6, 69, 0
11, 12844, Note_on_c, 6, 69, 96
11, 12886, Note_on_c, 6, 69, 0
11, 12911, Note_on_c, 6, 69, 98
11, 12938, Note_on_c, 6, 69, 0
11, 12960, Note_on_c, 6, 69, 98
11, 13011, Note_on_c, 6, 69, 0
11, 13037, Note_on_c, 6, 69, 110
11, 13063, Note_on_c, 6, 69, 0
11, 13083, Note_on_c, 6, 69, 94
11, 13126, Note_on_c, 6, 69, 0
11, 13150, Note_on_c, 6, 69, 106
11, 13175, Note_on_c, 6, 69, 0
11, 13196, Note_on_c, 6, 69, 104
11, 13251, Note_on_c, 6, 69, 0
11, 13269, Note_on_c, 6, 69, 102
11, 13300, Note_on_c, 6, 69, 0
11, 13320, Note_on_c, 6, 69, 108
11, 13364, Note_on_c, 6, 69, 0
11, 13388, Note_on_c, 6, 69, 98
11, 13416, Note_on_c, 6, 69, 0
11, 13442, Note_on_c, 6, 74, 118
11, 13546, Note_on_c, 6, 74, 0
11, 13559, Note_on_c, 6, 72, 114
11, 13648, Note_on_c, 6, 72, 0
11, 13685, Note_on_c, 6, 74, 121
11, 13783, Note_on_c, 6, 74, 0
11, 13798, Note_on_c, 6, 72, 119
11, 13901, Note_on_c, 6, 72, 0
11, 14399, Note_on_c, 6, 69, 110
11, 14459, Note_on_c, 6, 69, 0
11, 14477, Note_on_c, 6, 69, 114
11, 14508, Note_on_c, 6, 69, 0
11, 14526, Note_on_c, 6, 69, 104
11, 14568, Note_on_c, 6, 69, 0
11, 14582, Note_on_c, 6, 69, 104
11, 14620, Note_on_c, 6, 69, 0
11, 14649, Note_on_c, 6, 69, 115
11, 14677, Note_on_c, 6, 69, 0
11, 14690, Note_on_c, 6, 69, 106
11, 14716, Note_on_c, 6, 69, 0
11, 14732, Note_on_c, 6, 69, 106
11, 14813, Note_on_c, 6, 69, 0
11, 14830, Note_on_c, 6, 69, 114
11, 14854, Note_on_c, 6, 69, 0
11, 14876, Note_on_c, 6, 69, 119
11, 14936, Note_on_c, 6, 69, 0
11, 14959, Note_on_c, 6, 69, 114
11, 14980, Note_on_c, 6, 69, 0
11, 15002, Note_on_c, 6, 69, 118
11, 15050, Note_on_c, 6, 69, 0
11, 15068, Note_on_c, 6, 69, 120
11, 15096, Note_on_c, 6, 69, 0
11, 15115, Note_on_c, 6, 69, 114
11, 15137, Note_on_c, 6, 69, 0
11, 15151, Note_on_c, 6, 69, 108
11, 15174, Note_on_c, 6, 69, 0
11, 15191, Note_on_c, 6, 69, 112
11, 15289, Note_on_c, 6, 69, 0
11, 15312, Note_on_c, 6, 69, 114
11, 15342, Note_on_c, 6, 69, 0
11, 15362, Note_on_c, 6, 74, 96
11, 15468, Note_on_c, 6, 74, 0
11, 15486, Note_on_c, 6, 72, 114
11, 15558, Note_on_c, 6, 72, 0
11, 15604, Note_on_c, 6, 74, 118
11, 15704, Note_on_c, 6, 74, 0
11, 15718, Note_on_c, 6, 72, 114
11, 15794, Note_on_c, 6, 72, 0
11, 15842, Note_on_c, 6, 74, 117
11, 15941, Note_on_c, 6, 74, 0
11, 15956, Note_on_c, 6, 72, 118
11, 16041, Note_on_c, 6, 72, 0
11, 16078, Note_on_c, 6, 81, 121
11, 16188, Note_on_c, 6, 69, 116
11, 16288, Note_on_c, 6, 81, 0
11, 16304, Note_on_c, 6, 69, 0
11, 16328, Note_on_c, 6, 67, 120
11, 16545, Note_on_c, 6, 67, 0
11, 16564, Note_on_c, 6, 69, 102
11, 16599, Note_on_c, 6, 67, 120
11, 16606, Note_on_c, 6, 69, 0
11, 16630, Note_on_c, 6, 64, 110
11, 16634, Note_on_c, 6, 67, 0
11, 16870, Note_on_c, 6, 64, 0
11, 17161, Note_on_c, 6, 69, 116
11, 17266, Note_on_c, 6, 69, 0
11, 17282, Note_on_c, 6, 67, 110
11, 17498, Note_on_c, 6, 67, 0
11, 17527, Note_on_c, 6, 69, 100
11, 17560, Note_on_c, 6, 67, 119
11, 17567, Note_on_c, 6, 69, 0
11, 17589, Note_on_c, 6, 64, 112
11, 17594, Note_on_c, 6, 67, 0
11, 17830, Note_on_c, 6, 64, 0
11, 18155, Note_on_c, 6, 69, 100
11, 18187, Note_on_c, 6, 71, 100
11, 18197, Note_on_c, 6, 69, 0
11, 18225, Note_on_c, 6, 71, 0
11, 18229, Note_on_c, 6, 72, 110
11, 18281, Note_on_c, 6, 72, 0
11, 18300, Note_on_c, 6, 72, 110
11, 18384, Note_on_c, 6, 72, 0
11, 18400, Note_on_c, 6, 72, 115
11, 18419, Note_on_c, 6, 72, 0
11, 18437, Note_on_c, 6, 72, 115
11, 18462, Note_on_c, 6, 72, 0
11, 18482, Note_on_c, 6, 74, 114
11, 18540, Note_on_c, 6, 74, 0
11, 18558, Note_on_c, 6, 72, 121
11, 18640, Note_on_c, 6, 72, 0
11, 18651, Note_on_c, 6, 71, 98
11, 18683, Note_on_c, 6, 71, 0
11, 18683, Note_on_c, 6, 69, 102
11, 18711, Note_on_c, 6, 69, 0
11, 18730, Note_on_c, 6, 69, 115
11, 18847, Note_on_c, 6, 64, 118
11, 18855, Note_on_c, 6, 69, 0
11, 18957, Note_on_c, 6, 64, 0
11, 18963, Note_on_c, 6, 69, 118
11, 19072, Note_on_c, 6, 69, 0
11, 19079, Note_on_c, 6, 67, 114
11, 19195, Note_on_c, 6, 67, 0
11, 19198, Note_on_c, 6, 65, 123
11, 19273, Note_on_c, 6, 65, 0
11, 19273, Note_on_c, 6, 69, 110
11, 19360, Note_on_c, 6, 68, 110
11, 19370, Note_on_c, 6, 69, 0
11, 19396, Note_on_c, 6, 69, 114
11, 19401, Note_on_c, 6, 68, 0
11, 19431, Note_on_c, 6, 69, 0
11, 19443, Note_on_c, 6, 71, 110
11, 19514, Note_on_c, 6, 69, 121
11, 19515, Note_on_c, 6, 71, 0
11, 19607, Note_on_c, 6, 67, 116
11, 19616, Note_on_c, 6, 69, 0
11, 19637, Note_on_c, 6, 65, 120
11, 19644, Note_on_c, 6, 67, 0
11, 19685, Note_on_c, 6, 65, 0
11, 19685, Note_on_c, 6, 64, 122
11, 19948, Note_on_c, 6, 64, 0
11, 20075, Note_on_c, 6, 69, 100
11, 20107, Note_on_c, 6, 71, 100
11, 20117, Note_on_c, 6, 69, 0
11, 20145, Note_on_c, 6, 71, 0
11, 20149, Note_on_c, 6, 72, 110
11, 20201, Note_on_c, 6, 72, 0
11, 20220, Note_on_c, 6, 72, 110
11, 20304, Note_on_c, 6, 72, 0
11, 20320, Note_on_c, 6, 72, 115
11, 20339, Note_on_c, 6, 72, 0
11, 20357, Note_on_c, 6, 72, 115
11, 20382, Note_on_c, 6, 72, 0
11, 20402, Note_on_c, 6, 74, 114
11, 20460, Note_on_c, 6, 74, 0
11, 20478, Note_on_c, 6, 72, 121
11, 20560, Note_on_c, 6, 72, 0
11, 20571, Note_on_c, 6, 71, 98
11, 20603, Note_on_c, 6, 71, 0
11, 20603, Note_on_c, 6, 69, 102
11, 20631, Note_on_c, 6, 69, 0
11, 20650, Note_on_c, 6, 69, 115
11, 20767, Note_on_c, 6, 64, 118
11, 20775, Note_on_c, 6, 69, 0
11, 20877, Note_on_c, 6, 64, 0
11, 20883, Note_on_c, 6, 69, 118
11, 20992, Note_on_c, 6, 69, 0
11, 20999, Note_on_c, 6, 67, 114
11, 21115, Note_on_c, 6, 67, 0
11, 21118, Note_on_c, 6, 65, 123
11, 21193, Note_on_c, 6, 65, 0
11, 21193, Note_on_c, 6, 69, 110
11, 21280, Note_on_c, 6, 68, 110
11, 21290, Note_on_c, 6, 69, 0
11, 21316, Note_on_c, 6, 69, 114
11, 21321, Note_on_c, 6, 68, 0
11, 21351, Note_on_c, 6, 69, 0
11, 21363, Note_on_c, 6, 71, 110
11, 21434, Note_on_c, 6, 69, 121
11, 21435, Note_on_c, 6, 71, 0
11, 21527, Note_on_c, 6, 67, 116
11, 21536, Note_on_c, 6, 69, 0
11, 21557, Note_on_c, 6, 65, 120
11, 21564, Note_on_c, 6, 67, 0
11, 21605, Note_on_c, 6, 65, 0
11, 21605, Note_on_c, 6, 64, 122
11, 21868, Note_on_c, 6, 64, 0
11, 21963, Note_on_c, 6, 69, 110
11, 22050, Note_on_c, 6, 69, 0
11, 22075, Note_on_c, 6, 67, 114
11, 22303, Note_on_c, 6, 67, 0
11, 22321, Note_on_c, 6, 69, 104
11, 22352, Note_on_c, 6, 67, 115
11, 22363, Note_on_c, 6, 69, 0
11, 22385, Note_on_c, 6, 64, 115
11, 22388, Note_on_c, 6, 67, 0
11, 22625, Note_on_c, 6, 64, 0
11, 22917, Note_on_c, 6, 69, 94
11, 23029, Note_on_c, 6, 69, 0
11, 23046, Note_on_c, 6, 67, 102
11, 23273, Note_on_c, 6, 67, 0
11, 23294, Note_on_c, 6, 69, 73
11, 23315, Note_on_c, 6, 67, 115
11, 23328, Note_on_c, 6, 69, 0
11, 23356, Note_on_c, 6, 64, 92
11, 23372, Note_on_c, 6, 67, 0
11, 23638, Note_on_c, 6, 64, 0
11, 27718, Note_on_c, 6, 69, 115
11, 27834, Note_on_c, 6, 69, 0
11, 27850, Note_on_c, 6, 67, 110
11, 28064, Note_on_c, 6, 67, 0
11, 28080, Control_c, 6, 11, 126
11, 28088, Note_on_c, 6, 69, 63
11, 28098, Control_c, 6, 11, 125
11, 28114, Control_c, 6, 11, 124
11, 28121, Note_on_c, 6, 67, 114
11, 28130, Control_c, 6, 11, 123
11, 28132, Note_on_c, 6, 69, 0
11, 28148, Control_c, 6, 11, 122
11, 28152, Note_on_c, 6, 64, 94
11, 28155, Note_on_c, 6, 67, 0
11, 28164, Control_c, 6, 11, 121
11, 28180, Control_c, 6, 11, 120
11, 28196, Control_c, 6, 11, 119
11, 28214, Control_c, 6, 11, 118
11, 28230, Control_c, 6, 11, 117
11, 28246, Control_c, 6, 11, 116
11, 28264, Control_c, 6, 11, 115
11, 28280, Control_c, 6, 11, 114
11, 28296, Control_c, 6, 11, 113
11, 28312, Control_c, 6, 11, 112
11, 28330, Control_c, 6, 11, 111
11, 28346, Control_c, 6, 11, 110
11, 28362, Control_c, 6, 11, 109
11, 28378, Control_c, 6, 11, 108
11, 28396, Control_c, 6, 11, 107
11, 28412, Control_c, 6, 11, 106
11, 28428, Control_c, 6, 11, 105
11, 28446, Control_c, 6, 11, 104
11, 28448, Note_on_c, 6, 64, 0
11, 28462, Control_c, 6, 11, 103
11, 28478, Control_c, 6, 11, 102
11, 28494, Control_c, 6, 11, 101
11, 28512, Control_c, 6, 11, 100
11, 28528, Control_c, 6, 11, 99
11, 28544, Control_c, 6, 11, 98
11, 28560, Control_c, 6, 11, 95
11, 28576, Control_c, 6, 11, 94
11, 28592, Control_c, 6, 11, 93
11, 28608, Control_c, 6, 11, 92
11, 28624, Control_c, 6, 11, 91
11, 28640, Control_c, 6, 11, 90
11, 28656, Control_c, 6, 11, 89
11, 28672, Control_c, 6, 11, 88
11, 28684, Note_on_c, 6, 69, 86
11, 28688, Control_c, 6, 11, 87
11, 28704, Control_c, 6, 11, 86
11, 28720, Control_c, 6, 11, 85
11, 28736, Control_c, 6, 11, 84
11, 28752, Control_c, 6, 11, 83
11, 28768, Control_c, 6, 11, 82
11, 28784, Control_c, 6, 11, 81
11, 28786, Note_on_c, 6, 69, 0
11, 28800, Control_c, 6, 11, 80
11, 28803, Note_on_c, 6, 67, 69
11, 28816, Control_c, 6, 11, 79
11, 28832, Control_c, 6, 11, 78
11, 28848, Control_c, 6, 11, 77
11, 28864, Control_c, 6, 11, 76
11, 28880, Control_c, 6, 11, 75
11, 28896, Control_c, 6, 11, 74
11, 28912, Control_c, 6, 11, 73
11, 28928, Control_c, 6, 11, 72
11, 28944, Control_c, 6, 11, 71
11, 28960, Control_c, 6, 11, 70
11, 28976, Control_c, 6, 11, 69
11, 28992, Control_c, 6, 11, 68
11, 29008, Control_c, 6, 11, 67
11, 29024, Control_c, 6, 11, 66
11, 29035, Note_on_c, 6, 67, 0
11, 29040, Control_c, 6, 11, 65
11, 29042, Control_c, 6, 11, 64
11, 29050, Note_on_c, 6, 69, 82
11, 29058, Control_c, 6, 11, 63
11, 29072, Control_c, 6, 11, 62
11, 29082, Note_on_c, 6, 67, 104
11, 29088, Note_on_c, 6, 69, 0
11, 29088, Control_c, 6, 11, 61
11, 29102, Control_c, 6, 11, 60
11, 29112, Note_on_c, 6, 64, 71
11, 29116, Note_on_c, 6, 67, 0
11, 29118, Control_c, 6, 11, 59
11, 29132, Control_c, 6, 11, 58
11, 29148, Control_c, 6, 11, 57
11, 29162, Control_c, 6, 11, 56
11, 29176, Control_c, 6, 11, 55
11, 29192, Control_c, 6, 11, 54
11, 29206, Control_c, 6, 11, 53
11, 29222, Control_c, 6, 11, 52
11, 29236, Control_c, 6, 11, 51
11, 29252, Control_c, 6, 11, 50
11, 29266, Control_c, 6, 11, 49
11, 29280, Control_c, 6, 11, 48
11, 29296, Control_c, 6, 11, 47
11, 29310, Control_c, 6, 11, 46
11, 29326, Control_c, 6, 11, 45
11, 29340, Control_c, 6, 11, 44
11, 29356, Control_c, 6, 11, 43
11, 29370, Control_c, 6, 11, 42
11, 29386, Control_c, 6, 11, 41
11, 29400, Control_c, 6, 11, 40
11, 29414, Control_c, 6, 11, 39
11, 29430, Control_c, 6, 11, 38
11, 29444, Control_c, 6, 11, 37
11, 29460, Control_c, 6, 11, 36
11, 29474, Control_c, 6, 11, 35
11, 29485, Note_on_c, 6, 64, 0
11, 29490, Control_c, 6, 11, 34
11, 29504, Control_c, 6, 11, 33
11, 29518, Control_c, 6, 11, 31
11, 29528, Control_c, 6, 11, 30
11, 29536, Control_c, 6, 11, 29
11, 29544, Control_c, 6, 11, 28
11, 29552, Control_c, 6, 11, 27
11, 29560, Control_c, 6, 11, 26
11, 29570, Control_c, 6, 11, 25
11, 29578, Control_c, 6, 11, 24
11, 29586, Control_c, 6, 11, 23
11, 29594, Control_c, 6, 11, 22
11, 29602, Control_c, 6, 11, 21
11, 29610, Control_c, 6, 11, 20
11, 29620, Control_c, 6, 11, 19
11, 29628, Control_c, 6, 11, 18
11, 29636, Control_c, 6, 11, 17
11, 29644, Control_c, 6, 11, 16
11, 29652, Control_c, 6, 11, 15
11, 29660, Control_c, 6, 11, 14
11, 29670, Control_c, 6, 11, 13
11, 29678, Control_c, 6, 11, 12
11, 29686, Control_c, 6, 11, 11
11, 29694, Control_c, 6, 11, 10
11, 29702, Control_c, 6, 11, 9
11, 29710, Control_c, 6, 11, 8
11, 29720, Control_c, 6, 11, 7
11, 29728, Control_c, 6, 11, 6
11, 29736, Control_c, 6, 11, 5
11, 29744, Control_c, 6, 11, 4
11, 29752, Control_c, 6, 11, 3
11, 29760, Control_c, 6, 11, 2
11, 29760, End_track
12, 0, Start_track
12, 0, MIDI_port, 0
12, 0, Title_t, "Beatles"
12, 0, End_track
13, 0, Start_track
13, 0, MIDI_port, 0
13, 0, Title_t, "Girl"
13, 0, End_track
14, 0, Start_track
14, 0, MIDI_port, 0
14, 0, Title_t, "Marc Pellerin"
14, 0, End_track
15, 0, Start_track
15, 0, MIDI_port, 0
15, 0, Title_t, "Qubec, Can."
15, 0, End_track
0, 0, End_of_file
