0, 0, Header, 1, 8, 480
1, 0, Start_track
1, 0, Tempo, 480000
1, 0, Title_t, "Gouge Away"
1, 0, Time_signature, 4, 2, 7, 83
1, 38400, Marker_t, "refrain"
1, 48000, Marker_t, "couplet"
1, 86400, Marker_t, "refrain"
1, 96000, Marker_t, "couplet"
1, 134400, Marker_t, "refrain"
1, 144000, Marker_t, "refrain"
1, 144000, End_track
2, 0, Start_track
2, 0, Title_t, "Frank (clean)"
2, 0, Control_c, 1, 100, 0
2, 0, Control_c, 1, 101, 0
2, 0, Control_c, 1, 6, 12
2, 0, Pitch_bend_c, 1, 8192
2, 0, Control_c, 1, 101, 0
2, 0, Control_c, 1, 100, 1
2, 0, Control_c, 1, 6, 64
2, 0, Control_c, 1, 38, 0
2, 0, Control_c, 1, 101, 127
2, 0, Control_c, 1, 100, 127
2, 0, Control_c, 0, 100, 0
2, 0, Control_c, 0, 101, 0
2, 0, Control_c, 0, 6, 12
2, 0, Pitch_bend_c, 0, 8192
2, 0, Control_c, 0, 101, 0
2, 0, Control_c, 0, 100, 1
2, 0, Control_c, 0, 6, 64
2, 0, Control_c, 0, 38, 0
2, 0, Control_c, 0, 101, 127
2, 0, Control_c, 0, 100, 127
2, 0, Control_c, 1, 101, 0
2, 0, Control_c, 1, 100, 2
2, 0, Control_c, 1, 6, 64
2, 0, Control_c, 1, 101, 127
2, 0, Control_c, 1, 100, 127
2, 0, Control_c, 0, 101, 0
2, 0, Control_c, 0, 100, 2
2, 0, Control_c, 0, 6, 64
2, 0, Control_c, 0, 101, 127
2, 0, Control_c, 0, 100, 127
2, 0, Program_c, 1, 28
2, 0, Program_c, 0, 28
2, 0, Control_c, 1, 0, 0
2, 0, Control_c, 0, 0, 0
2, 0, Control_c, 1, 7, 104
2, 0, Control_c, 0, 7, 104
2, 0, Control_c, 1, 10, 64
2, 0, Control_c, 0, 10, 64
2, 0, Control_c, 1, 93, 0
2, 0, Control_c, 0, 93, 0
2, 0, Control_c, 1, 91, 0
2, 0, Control_c, 0, 91, 0
2, 0, Control_c, 1, 92, 0
2, 0, Control_c, 0, 92, 0
2, 0, Control_c, 1, 95, 0
2, 0, Control_c, 0, 95, 0
2, 15360, Note_on_c, 0, 56, 76
2, 15540, Note_off_c, 0, 56, 80
2, 15600, Note_on_c, 0, 56, 76
2, 15780, Note_off_c, 0, 56, 80
2, 15840, Note_on_c, 0, 56, 76
2, 16020, Note_off_c, 0, 56, 80
2, 16080, Note_on_c, 0, 56, 76
2, 16260, Note_off_c, 0, 56, 80
2, 16320, Note_on_c, 0, 56, 76
2, 16500, Note_off_c, 0, 56, 80
2, 16560, Note_on_c, 0, 56, 76
2, 16740, Note_off_c, 0, 56, 80
2, 16800, Note_on_c, 0, 56, 76
2, 16980, Note_off_c, 0, 56, 80
2, 17040, Note_on_c, 0, 56, 76
2, 17220, Note_off_c, 0, 56, 80
2, 17280, Note_on_c, 0, 56, 76
2, 17460, Note_off_c, 0, 56, 80
2, 17520, Note_on_c, 0, 56, 76
2, 17700, Note_off_c, 0, 56, 80
2, 17760, Note_on_c, 0, 56, 76
2, 17940, Note_off_c, 0, 56, 80
2, 18000, Note_on_c, 0, 56, 76
2, 18180, Note_off_c, 0, 56, 80
2, 18240, Note_on_c, 0, 56, 76
2, 18420, Note_off_c, 0, 56, 80
2, 18480, Note_on_c, 0, 56, 76
2, 18660, Note_off_c, 0, 56, 80
2, 18720, Note_on_c, 0, 56, 76
2, 18900, Note_off_c, 0, 56, 80
2, 18960, Note_on_c, 0, 56, 76
2, 19140, Note_off_c, 0, 56, 80
2, 19200, Note_on_c, 0, 56, 76
2, 19380, Note_off_c, 0, 56, 80
2, 19440, Note_on_c, 0, 56, 76
2, 19620, Note_off_c, 0, 56, 80
2, 19680, Note_on_c, 0, 56, 76
2, 19860, Note_off_c, 0, 56, 80
2, 19920, Note_on_c, 0, 56, 76
2, 20100, Note_off_c, 0, 56, 80
2, 20160, Note_on_c, 0, 56, 76
2, 20340, Note_off_c, 0, 56, 80
2, 20400, Note_on_c, 0, 56, 76
2, 20580, Note_off_c, 0, 56, 80
2, 20640, Note_on_c, 0, 56, 76
2, 20820, Note_off_c, 0, 56, 80
2, 20880, Note_on_c, 0, 56, 76
2, 21060, Note_off_c, 0, 56, 80
2, 21120, Note_on_c, 0, 54, 76
2, 21300, Note_off_c, 0, 54, 80
2, 21360, Note_on_c, 0, 54, 76
2, 21540, Note_off_c, 0, 54, 80
2, 21600, Note_on_c, 0, 54, 76
2, 21780, Note_off_c, 0, 54, 80
2, 21840, Note_on_c, 0, 54, 76
2, 22020, Note_off_c, 0, 54, 80
2, 22080, Note_on_c, 0, 54, 76
2, 22260, Note_off_c, 0, 54, 80
2, 22320, Note_on_c, 0, 54, 76
2, 22500, Note_off_c, 0, 54, 80
2, 22560, Note_on_c, 0, 54, 76
2, 22740, Note_off_c, 0, 54, 80
2, 22800, Note_on_c, 0, 54, 76
2, 22980, Note_off_c, 0, 54, 80
2, 23040, Note_on_c, 0, 52, 76
2, 23220, Note_off_c, 0, 52, 80
2, 23280, Note_on_c, 0, 52, 76
2, 23460, Note_off_c, 0, 52, 80
2, 23520, Note_on_c, 0, 52, 76
2, 23700, Note_off_c, 0, 52, 80
2, 23760, Note_on_c, 0, 52, 76
2, 23940, Note_off_c, 0, 52, 80
2, 24000, Note_on_c, 0, 52, 76
2, 24180, Note_off_c, 0, 52, 80
2, 24240, Note_on_c, 0, 52, 76
2, 24420, Note_off_c, 0, 52, 80
2, 24480, Note_on_c, 0, 52, 76
2, 24660, Note_off_c, 0, 52, 80
2, 24720, Note_on_c, 0, 52, 76
2, 24900, Note_off_c, 0, 52, 80
2, 24960, Note_on_c, 0, 51, 76
2, 25140, Note_off_c, 0, 51, 80
2, 25200, Note_on_c, 0, 51, 76
2, 25380, Note_off_c, 0, 51, 80
2, 25440, Note_on_c, 0, 51, 76
2, 25620, Note_off_c, 0, 51, 80
2, 25680, Note_on_c, 0, 51, 76
2, 25860, Note_off_c, 0, 51, 80
2, 25920, Note_on_c, 0, 51, 76
2, 26100, Note_off_c, 0, 51, 80
2, 26160, Note_on_c, 0, 51, 76
2, 26340, Note_off_c, 0, 51, 80
2, 26400, Note_on_c, 0, 51, 76
2, 26580, Note_off_c, 0, 51, 80
2, 26640, Note_on_c, 0, 51, 76
2, 26820, Note_off_c, 0, 51, 80
2, 26880, Note_on_c, 0, 49, 76
2, 27060, Note_off_c, 0, 49, 80
2, 27120, Note_on_c, 0, 49, 76
2, 27300, Note_off_c, 0, 49, 80
2, 27360, Note_on_c, 0, 49, 76
2, 27540, Note_off_c, 0, 49, 80
2, 27600, Note_on_c, 0, 49, 76
2, 27780, Note_off_c, 0, 49, 80
2, 27840, Note_on_c, 0, 49, 76
2, 28020, Note_off_c, 0, 49, 80
2, 28080, Note_on_c, 0, 49, 76
2, 28260, Note_off_c, 0, 49, 80
2, 28320, Note_on_c, 0, 49, 76
2, 28500, Note_off_c, 0, 49, 80
2, 28560, Note_on_c, 0, 49, 76
2, 28740, Note_off_c, 0, 49, 80
2, 28800, Note_on_c, 0, 44, 76
2, 28980, Note_off_c, 0, 44, 80
2, 29040, Note_on_c, 0, 44, 76
2, 29220, Note_off_c, 0, 44, 80
2, 29280, Note_on_c, 0, 44, 76
2, 29460, Note_off_c, 0, 44, 80
2, 29520, Note_on_c, 0, 44, 76
2, 29700, Note_off_c, 0, 44, 80
2, 29760, Note_on_c, 0, 44, 76
2, 29940, Note_off_c, 0, 44, 80
2, 30000, Note_on_c, 0, 44, 76
2, 30180, Note_off_c, 0, 44, 80
2, 30240, Note_on_c, 0, 44, 76
2, 30420, Note_off_c, 0, 44, 80
2, 30480, Note_on_c, 0, 44, 76
2, 30660, Note_off_c, 0, 44, 80
2, 30720, Note_on_c, 0, 44, 76
2, 30900, Note_off_c, 0, 44, 80
2, 30960, Note_on_c, 0, 44, 76
2, 31140, Note_off_c, 0, 44, 80
2, 31200, Note_on_c, 0, 44, 76
2, 31380, Note_off_c, 0, 44, 80
2, 31440, Note_on_c, 0, 44, 76
2, 31620, Note_off_c, 0, 44, 80
2, 31680, Note_on_c, 0, 44, 76
2, 31860, Note_off_c, 0, 44, 80
2, 31920, Note_on_c, 0, 44, 76
2, 32100, Note_off_c, 0, 44, 80
2, 32160, Note_on_c, 0, 44, 76
2, 32340, Note_off_c, 0, 44, 80
2, 32400, Note_on_c, 0, 44, 76
2, 32580, Note_off_c, 0, 44, 80
2, 32640, Note_on_c, 0, 44, 76
2, 32820, Note_off_c, 0, 44, 80
2, 32880, Note_on_c, 0, 44, 76
2, 33060, Note_off_c, 0, 44, 80
2, 33120, Note_on_c, 0, 44, 76
2, 33300, Note_off_c, 0, 44, 80
2, 33360, Note_on_c, 0, 44, 76
2, 33540, Note_off_c, 0, 44, 80
2, 33600, Note_on_c, 0, 44, 76
2, 33780, Note_off_c, 0, 44, 80
2, 33840, Note_on_c, 0, 44, 76
2, 34020, Note_off_c, 0, 44, 80
2, 34080, Note_on_c, 0, 44, 76
2, 34260, Note_off_c, 0, 44, 80
2, 34320, Note_on_c, 0, 44, 76
2, 34500, Note_off_c, 0, 44, 80
2, 34560, Note_on_c, 0, 44, 76
2, 34740, Note_off_c, 0, 44, 80
2, 34800, Note_on_c, 0, 44, 76
2, 34980, Note_off_c, 0, 44, 80
2, 35040, Note_on_c, 0, 44, 76
2, 35220, Note_off_c, 0, 44, 80
2, 35280, Note_on_c, 0, 44, 76
2, 35460, Note_off_c, 0, 44, 80
2, 35520, Note_on_c, 0, 44, 76
2, 35700, Note_off_c, 0, 44, 80
2, 35760, Note_on_c, 0, 44, 76
2, 35940, Note_off_c, 0, 44, 80
2, 36000, Note_on_c, 0, 44, 76
2, 36180, Note_off_c, 0, 44, 80
2, 36240, Note_on_c, 0, 44, 76
2, 36420, Note_off_c, 0, 44, 80
2, 36480, Note_on_c, 0, 44, 95
2, 36720, Note_off_c, 0, 44, 80
2, 36720, Note_on_c, 0, 44, 95
2, 36960, Note_off_c, 0, 44, 80
2, 36960, Note_on_c, 0, 44, 95
2, 37200, Note_off_c, 0, 44, 80
2, 37200, Note_on_c, 0, 44, 95
2, 37440, Note_off_c, 0, 44, 80
2, 37440, Note_on_c, 0, 44, 95
2, 37680, Note_off_c, 0, 44, 80
2, 37680, Note_on_c, 0, 44, 95
2, 37920, Note_off_c, 0, 44, 80
2, 37920, Note_on_c, 0, 44, 95
2, 38160, Note_off_c, 0, 44, 80
2, 38160, Note_on_c, 0, 44, 95
2, 38400, Note_off_c, 0, 44, 80
2, 63360, Note_on_c, 0, 56, 76
2, 63540, Note_off_c, 0, 56, 80
2, 63600, Note_on_c, 0, 56, 76
2, 63780, Note_off_c, 0, 56, 80
2, 63840, Note_on_c, 0, 56, 76
2, 64020, Note_off_c, 0, 56, 80
2, 64080, Note_on_c, 0, 56, 76
2, 64260, Note_off_c, 0, 56, 80
2, 64320, Note_on_c, 0, 56, 76
2, 64500, Note_off_c, 0, 56, 80
2, 64560, Note_on_c, 0, 56, 76
2, 64740, Note_off_c, 0, 56, 80
2, 64800, Note_on_c, 0, 56, 76
2, 64980, Note_off_c, 0, 56, 80
2, 65040, Note_on_c, 0, 56, 76
2, 65220, Note_off_c, 0, 56, 80
2, 65280, Note_on_c, 0, 56, 76
2, 65460, Note_off_c, 0, 56, 80
2, 65520, Note_on_c, 0, 56, 76
2, 65700, Note_off_c, 0, 56, 80
2, 65760, Note_on_c, 0, 56, 76
2, 65940, Note_off_c, 0, 56, 80
2, 66000, Note_on_c, 0, 56, 76
2, 66180, Note_off_c, 0, 56, 80
2, 66240, Note_on_c, 0, 56, 76
2, 66420, Note_off_c, 0, 56, 80
2, 66480, Note_on_c, 0, 56, 76
2, 66660, Note_off_c, 0, 56, 80
2, 66720, Note_on_c, 0, 56, 76
2, 66900, Note_off_c, 0, 56, 80
2, 66960, Note_on_c, 0, 56, 76
2, 67140, Note_off_c, 0, 56, 80
2, 67200, Note_on_c, 0, 56, 76
2, 67380, Note_off_c, 0, 56, 80
2, 67440, Note_on_c, 0, 56, 76
2, 67620, Note_off_c, 0, 56, 80
2, 67680, Note_on_c, 0, 56, 76
2, 67860, Note_off_c, 0, 56, 80
2, 67920, Note_on_c, 0, 56, 76
2, 68100, Note_off_c, 0, 56, 80
2, 68160, Note_on_c, 0, 56, 76
2, 68340, Note_off_c, 0, 56, 80
2, 68400, Note_on_c, 0, 56, 76
2, 68580, Note_off_c, 0, 56, 80
2, 68640, Note_on_c, 0, 56, 76
2, 68820, Note_off_c, 0, 56, 80
2, 68880, Note_on_c, 0, 56, 76
2, 69060, Note_off_c, 0, 56, 80
2, 69120, Note_on_c, 0, 54, 76
2, 69300, Note_off_c, 0, 54, 80
2, 69360, Note_on_c, 0, 54, 76
2, 69540, Note_off_c, 0, 54, 80
2, 69600, Note_on_c, 0, 54, 76
2, 69780, Note_off_c, 0, 54, 80
2, 69840, Note_on_c, 0, 54, 76
2, 70020, Note_off_c, 0, 54, 80
2, 70080, Note_on_c, 0, 54, 76
2, 70260, Note_off_c, 0, 54, 80
2, 70320, Note_on_c, 0, 54, 76
2, 70500, Note_off_c, 0, 54, 80
2, 70560, Note_on_c, 0, 54, 76
2, 70740, Note_off_c, 0, 54, 80
2, 70800, Note_on_c, 0, 54, 76
2, 70980, Note_off_c, 0, 54, 80
2, 71040, Note_on_c, 0, 52, 76
2, 71220, Note_off_c, 0, 52, 80
2, 71280, Note_on_c, 0, 52, 76
2, 71460, Note_off_c, 0, 52, 80
2, 71520, Note_on_c, 0, 52, 76
2, 71700, Note_off_c, 0, 52, 80
2, 71760, Note_on_c, 0, 52, 76
2, 71940, Note_off_c, 0, 52, 80
2, 72000, Note_on_c, 0, 52, 76
2, 72180, Note_off_c, 0, 52, 80
2, 72240, Note_on_c, 0, 52, 76
2, 72420, Note_off_c, 0, 52, 80
2, 72480, Note_on_c, 0, 52, 76
2, 72660, Note_off_c, 0, 52, 80
2, 72720, Note_on_c, 0, 52, 76
2, 72900, Note_off_c, 0, 52, 80
2, 72960, Note_on_c, 0, 51, 76
2, 73140, Note_off_c, 0, 51, 80
2, 73200, Note_on_c, 0, 51, 76
2, 73380, Note_off_c, 0, 51, 80
2, 73440, Note_on_c, 0, 51, 76
2, 73620, Note_off_c, 0, 51, 80
2, 73680, Note_on_c, 0, 51, 76
2, 73860, Note_off_c, 0, 51, 80
2, 73920, Note_on_c, 0, 51, 76
2, 74100, Note_off_c, 0, 51, 80
2, 74160, Note_on_c, 0, 51, 76
2, 74340, Note_off_c, 0, 51, 80
2, 74400, Note_on_c, 0, 51, 76
2, 74580, Note_off_c, 0, 51, 80
2, 74640, Note_on_c, 0, 51, 76
2, 74820, Note_off_c, 0, 51, 80
2, 74880, Note_on_c, 0, 49, 76
2, 75060, Note_off_c, 0, 49, 80
2, 75120, Note_on_c, 0, 49, 76
2, 75300, Note_off_c, 0, 49, 80
2, 75360, Note_on_c, 0, 49, 76
2, 75540, Note_off_c, 0, 49, 80
2, 75600, Note_on_c, 0, 49, 76
2, 75780, Note_off_c, 0, 49, 80
2, 75840, Note_on_c, 0, 49, 76
2, 76020, Note_off_c, 0, 49, 80
2, 76080, Note_on_c, 0, 49, 76
2, 76260, Note_off_c, 0, 49, 80
2, 76320, Note_on_c, 0, 49, 76
2, 76500, Note_off_c, 0, 49, 80
2, 76560, Note_on_c, 0, 49, 76
2, 76740, Note_off_c, 0, 49, 80
2, 76800, Note_on_c, 0, 44, 76
2, 76980, Note_off_c, 0, 44, 80
2, 77040, Note_on_c, 0, 44, 76
2, 77220, Note_off_c, 0, 44, 80
2, 77280, Note_on_c, 0, 44, 76
2, 77460, Note_off_c, 0, 44, 80
2, 77520, Note_on_c, 0, 44, 76
2, 77700, Note_off_c, 0, 44, 80
2, 77760, Note_on_c, 0, 44, 76
2, 77940, Note_off_c, 0, 44, 80
2, 78000, Note_on_c, 0, 44, 76
2, 78180, Note_off_c, 0, 44, 80
2, 78240, Note_on_c, 0, 44, 76
2, 78420, Note_off_c, 0, 44, 80
2, 78480, Note_on_c, 0, 44, 76
2, 78660, Note_off_c, 0, 44, 80
2, 78720, Note_on_c, 0, 44, 76
2, 78900, Note_off_c, 0, 44, 80
2, 78960, Note_on_c, 0, 44, 76
2, 79140, Note_off_c, 0, 44, 80
2, 79200, Note_on_c, 0, 44, 76
2, 79380, Note_off_c, 0, 44, 80
2, 79440, Note_on_c, 0, 44, 76
2, 79620, Note_off_c, 0, 44, 80
2, 79680, Note_on_c, 0, 44, 76
2, 79860, Note_off_c, 0, 44, 80
2, 79920, Note_on_c, 0, 44, 76
2, 80100, Note_off_c, 0, 44, 80
2, 80160, Note_on_c, 0, 44, 76
2, 80340, Note_off_c, 0, 44, 80
2, 80400, Note_on_c, 0, 44, 76
2, 80580, Note_off_c, 0, 44, 80
2, 80640, Note_on_c, 0, 44, 76
2, 80820, Note_off_c, 0, 44, 80
2, 80880, Note_on_c, 0, 44, 76
2, 81060, Note_off_c, 0, 44, 80
2, 81120, Note_on_c, 0, 44, 76
2, 81300, Note_off_c, 0, 44, 80
2, 81360, Note_on_c, 0, 44, 76
2, 81540, Note_off_c, 0, 44, 80
2, 81600, Note_on_c, 0, 44, 76
2, 81780, Note_off_c, 0, 44, 80
2, 81840, Note_on_c, 0, 44, 76
2, 82020, Note_off_c, 0, 44, 80
2, 82080, Note_on_c, 0, 44, 76
2, 82260, Note_off_c, 0, 44, 80
2, 82320, Note_on_c, 0, 44, 76
2, 82500, Note_off_c, 0, 44, 80
2, 82560, Note_on_c, 0, 44, 76
2, 82740, Note_off_c, 0, 44, 80
2, 82800, Note_on_c, 0, 44, 76
2, 82980, Note_off_c, 0, 44, 80
2, 83040, Note_on_c, 0, 44, 76
2, 83220, Note_off_c, 0, 44, 80
2, 83280, Note_on_c, 0, 44, 76
2, 83460, Note_off_c, 0, 44, 80
2, 83520, Note_on_c, 0, 44, 76
2, 83700, Note_off_c, 0, 44, 80
2, 83760, Note_on_c, 0, 44, 76
2, 83940, Note_off_c, 0, 44, 80
2, 84000, Note_on_c, 0, 44, 76
2, 84180, Note_off_c, 0, 44, 80
2, 84240, Note_on_c, 0, 44, 76
2, 84420, Note_off_c, 0, 44, 80
2, 84480, Note_on_c, 0, 44, 95
2, 84720, Note_off_c, 0, 44, 80
2, 84720, Note_on_c, 0, 44, 95
2, 84960, Note_off_c, 0, 44, 80
2, 84960, Note_on_c, 0, 44, 95
2, 85200, Note_off_c, 0, 44, 80
2, 85200, Note_on_c, 0, 44, 95
2, 85440, Note_off_c, 0, 44, 80
2, 85440, Note_on_c, 0, 44, 95
2, 85680, Note_off_c, 0, 44, 80
2, 85680, Note_on_c, 0, 44, 95
2, 85920, Note_off_c, 0, 44, 80
2, 85920, Note_on_c, 0, 44, 95
2, 86160, Note_off_c, 0, 44, 80
2, 86160, Note_on_c, 0, 44, 95
2, 86400, Note_off_c, 0, 44, 80
2, 111360, Note_on_c, 0, 56, 76
2, 111540, Note_off_c, 0, 56, 80
2, 111600, Note_on_c, 0, 56, 76
2, 111780, Note_off_c, 0, 56, 80
2, 111840, Note_on_c, 0, 56, 76
2, 112020, Note_off_c, 0, 56, 80
2, 112080, Note_on_c, 0, 56, 76
2, 112260, Note_off_c, 0, 56, 80
2, 112320, Note_on_c, 0, 56, 76
2, 112500, Note_off_c, 0, 56, 80
2, 112560, Note_on_c, 0, 56, 76
2, 112740, Note_off_c, 0, 56, 80
2, 112800, Note_on_c, 0, 56, 76
2, 112980, Note_off_c, 0, 56, 80
2, 113040, Note_on_c, 0, 56, 76
2, 113220, Note_off_c, 0, 56, 80
2, 113280, Note_on_c, 0, 56, 76
2, 113460, Note_off_c, 0, 56, 80
2, 113520, Note_on_c, 0, 56, 76
2, 113700, Note_off_c, 0, 56, 80
2, 113760, Note_on_c, 0, 56, 76
2, 113940, Note_off_c, 0, 56, 80
2, 114000, Note_on_c, 0, 56, 76
2, 114180, Note_off_c, 0, 56, 80
2, 114240, Note_on_c, 0, 56, 76
2, 114420, Note_off_c, 0, 56, 80
2, 114480, Note_on_c, 0, 56, 76
2, 114660, Note_off_c, 0, 56, 80
2, 114720, Note_on_c, 0, 56, 76
2, 114900, Note_off_c, 0, 56, 80
2, 114960, Note_on_c, 0, 56, 76
2, 115140, Note_off_c, 0, 56, 80
2, 115200, Note_on_c, 0, 56, 76
2, 115380, Note_off_c, 0, 56, 80
2, 115440, Note_on_c, 0, 56, 76
2, 115620, Note_off_c, 0, 56, 80
2, 115680, Note_on_c, 0, 56, 76
2, 115860, Note_off_c, 0, 56, 80
2, 115920, Note_on_c, 0, 56, 76
2, 116100, Note_off_c, 0, 56, 80
2, 116160, Note_on_c, 0, 56, 76
2, 116340, Note_off_c, 0, 56, 80
2, 116400, Note_on_c, 0, 56, 76
2, 116580, Note_off_c, 0, 56, 80
2, 116640, Note_on_c, 0, 56, 76
2, 116820, Note_off_c, 0, 56, 80
2, 116880, Note_on_c, 0, 56, 76
2, 117060, Note_off_c, 0, 56, 80
2, 117120, Note_on_c, 0, 54, 76
2, 117300, Note_off_c, 0, 54, 80
2, 117360, Note_on_c, 0, 54, 76
2, 117540, Note_off_c, 0, 54, 80
2, 117600, Note_on_c, 0, 54, 76
2, 117780, Note_off_c, 0, 54, 80
2, 117840, Note_on_c, 0, 54, 76
2, 118020, Note_off_c, 0, 54, 80
2, 118080, Note_on_c, 0, 54, 76
2, 118260, Note_off_c, 0, 54, 80
2, 118320, Note_on_c, 0, 54, 76
2, 118500, Note_off_c, 0, 54, 80
2, 118560, Note_on_c, 0, 54, 76
2, 118740, Note_off_c, 0, 54, 80
2, 118800, Note_on_c, 0, 54, 76
2, 118980, Note_off_c, 0, 54, 80
2, 119040, Note_on_c, 0, 52, 76
2, 119220, Note_off_c, 0, 52, 80
2, 119280, Note_on_c, 0, 52, 76
2, 119460, Note_off_c, 0, 52, 80
2, 119520, Note_on_c, 0, 52, 76
2, 119700, Note_off_c, 0, 52, 80
2, 119760, Note_on_c, 0, 52, 76
2, 119940, Note_off_c, 0, 52, 80
2, 120000, Note_on_c, 0, 52, 76
2, 120180, Note_off_c, 0, 52, 80
2, 120240, Note_on_c, 0, 52, 76
2, 120420, Note_off_c, 0, 52, 80
2, 120480, Note_on_c, 0, 52, 76
2, 120660, Note_off_c, 0, 52, 80
2, 120720, Note_on_c, 0, 52, 76
2, 120900, Note_off_c, 0, 52, 80
2, 120960, Note_on_c, 0, 51, 76
2, 121140, Note_off_c, 0, 51, 80
2, 121200, Note_on_c, 0, 51, 76
2, 121380, Note_off_c, 0, 51, 80
2, 121440, Note_on_c, 0, 51, 76
2, 121620, Note_off_c, 0, 51, 80
2, 121680, Note_on_c, 0, 51, 76
2, 121860, Note_off_c, 0, 51, 80
2, 121920, Note_on_c, 0, 51, 76
2, 122100, Note_off_c, 0, 51, 80
2, 122160, Note_on_c, 0, 51, 76
2, 122340, Note_off_c, 0, 51, 80
2, 122400, Note_on_c, 0, 51, 76
2, 122580, Note_off_c, 0, 51, 80
2, 122640, Note_on_c, 0, 51, 76
2, 122820, Note_off_c, 0, 51, 80
2, 122880, Note_on_c, 0, 49, 76
2, 123060, Note_off_c, 0, 49, 80
2, 123120, Note_on_c, 0, 49, 76
2, 123300, Note_off_c, 0, 49, 80
2, 123360, Note_on_c, 0, 49, 76
2, 123540, Note_off_c, 0, 49, 80
2, 123600, Note_on_c, 0, 49, 76
2, 123780, Note_off_c, 0, 49, 80
2, 123840, Note_on_c, 0, 49, 76
2, 124020, Note_off_c, 0, 49, 80
2, 124080, Note_on_c, 0, 49, 76
2, 124260, Note_off_c, 0, 49, 80
2, 124320, Note_on_c, 0, 49, 76
2, 124500, Note_off_c, 0, 49, 80
2, 124560, Note_on_c, 0, 49, 76
2, 124740, Note_off_c, 0, 49, 80
2, 124800, Note_on_c, 0, 44, 76
2, 124980, Note_off_c, 0, 44, 80
2, 125040, Note_on_c, 0, 44, 76
2, 125220, Note_off_c, 0, 44, 80
2, 125280, Note_on_c, 0, 44, 76
2, 125460, Note_off_c, 0, 44, 80
2, 125520, Note_on_c, 0, 44, 76
2, 125700, Note_off_c, 0, 44, 80
2, 125760, Note_on_c, 0, 44, 76
2, 125940, Note_off_c, 0, 44, 80
2, 126000, Note_on_c, 0, 44, 76
2, 126180, Note_off_c, 0, 44, 80
2, 126240, Note_on_c, 0, 44, 76
2, 126420, Note_off_c, 0, 44, 80
2, 126480, Note_on_c, 0, 44, 76
2, 126660, Note_off_c, 0, 44, 80
2, 126720, Note_on_c, 0, 44, 76
2, 126900, Note_off_c, 0, 44, 80
2, 126960, Note_on_c, 0, 44, 76
2, 127140, Note_off_c, 0, 44, 80
2, 127200, Note_on_c, 0, 44, 76
2, 127380, Note_off_c, 0, 44, 80
2, 127440, Note_on_c, 0, 44, 76
2, 127620, Note_off_c, 0, 44, 80
2, 127680, Note_on_c, 0, 44, 76
2, 127860, Note_off_c, 0, 44, 80
2, 127920, Note_on_c, 0, 44, 76
2, 128100, Note_off_c, 0, 44, 80
2, 128160, Note_on_c, 0, 44, 76
2, 128340, Note_off_c, 0, 44, 80
2, 128400, Note_on_c, 0, 44, 76
2, 128580, Note_off_c, 0, 44, 80
2, 128640, Note_on_c, 0, 44, 76
2, 128820, Note_off_c, 0, 44, 80
2, 128880, Note_on_c, 0, 44, 76
2, 129060, Note_off_c, 0, 44, 80
2, 129120, Note_on_c, 0, 44, 76
2, 129300, Note_off_c, 0, 44, 80
2, 129360, Note_on_c, 0, 44, 76
2, 129540, Note_off_c, 0, 44, 80
2, 129600, Note_on_c, 0, 44, 76
2, 129780, Note_off_c, 0, 44, 80
2, 129840, Note_on_c, 0, 44, 76
2, 130020, Note_off_c, 0, 44, 80
2, 130080, Note_on_c, 0, 44, 76
2, 130260, Note_off_c, 0, 44, 80
2, 130320, Note_on_c, 0, 44, 76
2, 130500, Note_off_c, 0, 44, 80
2, 130560, Note_on_c, 0, 44, 76
2, 130740, Note_off_c, 0, 44, 80
2, 130800, Note_on_c, 0, 44, 76
2, 130980, Note_off_c, 0, 44, 80
2, 131040, Note_on_c, 0, 44, 76
2, 131220, Note_off_c, 0, 44, 80
2, 131280, Note_on_c, 0, 44, 76
2, 131460, Note_off_c, 0, 44, 80
2, 131520, Note_on_c, 0, 44, 76
2, 131700, Note_off_c, 0, 44, 80
2, 131760, Note_on_c, 0, 44, 76
2, 131940, Note_off_c, 0, 44, 80
2, 132000, Note_on_c, 0, 44, 76
2, 132180, Note_off_c, 0, 44, 80
2, 132240, Note_on_c, 0, 44, 76
2, 132420, Note_off_c, 0, 44, 80
2, 132480, Note_on_c, 0, 44, 95
2, 132720, Note_off_c, 0, 44, 80
2, 132720, Note_on_c, 0, 44, 95
2, 132960, Note_off_c, 0, 44, 80
2, 132960, Note_on_c, 0, 44, 95
2, 133200, Note_off_c, 0, 44, 80
2, 133200, Note_on_c, 0, 44, 95
2, 133440, Note_off_c, 0, 44, 80
2, 133440, Note_on_c, 0, 44, 95
2, 133680, Note_off_c, 0, 44, 80
2, 133680, Note_on_c, 0, 44, 95
2, 133920, Note_off_c, 0, 44, 80
2, 133920, Note_on_c, 0, 44, 95
2, 134160, Note_off_c, 0, 44, 80
2, 134160, Note_on_c, 0, 44, 95
2, 134400, Note_off_c, 0, 44, 80
2, 134400, End_track
3, 0, Start_track
3, 0, Title_t, "Frank (OD)"
3, 0, Control_c, 12, 100, 0
3, 0, Control_c, 12, 101, 0
3, 0, Control_c, 12, 6, 12
3, 0, Pitch_bend_c, 12, 8192
3, 0, Control_c, 12, 101, 0
3, 0, Control_c, 12, 100, 1
3, 0, Control_c, 12, 6, 64
3, 0, Control_c, 12, 38, 0
3, 0, Control_c, 12, 101, 127
3, 0, Control_c, 12, 100, 127
3, 0, Control_c, 11, 100, 0
3, 0, Control_c, 11, 101, 0
3, 0, Control_c, 11, 6, 12
3, 0, Pitch_bend_c, 11, 8192
3, 0, Control_c, 11, 101, 0
3, 0, Control_c, 11, 100, 1
3, 0, Control_c, 11, 6, 64
3, 0, Control_c, 11, 38, 0
3, 0, Control_c, 11, 101, 127
3, 0, Control_c, 11, 100, 127
3, 0, Control_c, 12, 101, 0
3, 0, Control_c, 12, 100, 2
3, 0, Control_c, 12, 6, 64
3, 0, Control_c, 12, 101, 127
3, 0, Control_c, 12, 100, 127
3, 0, Control_c, 11, 101, 0
3, 0, Control_c, 11, 100, 2
3, 0, Control_c, 11, 6, 64
3, 0, Control_c, 11, 101, 127
3, 0, Control_c, 11, 100, 127
3, 0, Program_c, 12, 27
3, 0, Program_c, 11, 27
3, 0, Control_c, 12, 0, 0
3, 0, Control_c, 11, 0, 0
3, 0, Control_c, 12, 7, 88
3, 0, Control_c, 11, 7, 88
3, 0, Control_c, 12, 10, 64
3, 0, Control_c, 11, 10, 64
3, 0, Control_c, 12, 93, 0
3, 0, Control_c, 11, 93, 0
3, 0, Control_c, 12, 91, 0
3, 0, Control_c, 11, 91, 0
3, 0, Control_c, 12, 92, 0
3, 0, Control_c, 11, 92, 0
3, 0, Control_c, 12, 95, 0
3, 0, Control_c, 11, 95, 0
3, 38400, Note_on_c, 11, 68, 79
3, 38400, Note_on_c, 11, 63, 79
3, 38400, Note_on_c, 11, 60, 95
3, 38400, Note_on_c, 11, 56, 95
3, 38400, Note_on_c, 11, 51, 95
3, 38400, Note_on_c, 11, 44, 95
3, 38880, Note_off_c, 11, 68, 80
3, 38880, Note_off_c, 11, 63, 80
3, 38880, Note_off_c, 11, 60, 80
3, 38880, Note_off_c, 11, 56, 80
3, 38880, Note_off_c, 11, 51, 80
3, 38880, Note_off_c, 11, 44, 80
3, 38880, Note_on_c, 11, 68, 79
3, 38880, Note_on_c, 11, 63, 79
3, 38880, Note_on_c, 11, 60, 95
3, 38880, Note_on_c, 11, 56, 95
3, 38880, Note_on_c, 11, 51, 95
3, 38880, Note_on_c, 11, 44, 95
3, 39120, Note_off_c, 11, 68, 80
3, 39120, Note_off_c, 11, 63, 80
3, 39120, Note_off_c, 11, 60, 80
3, 39120, Note_off_c, 11, 56, 80
3, 39120, Note_off_c, 11, 51, 80
3, 39120, Note_off_c, 11, 44, 80
3, 39120, Note_on_c, 11, 68, 79
3, 39120, Note_on_c, 11, 63, 79
3, 39120, Note_on_c, 11, 60, 95
3, 39120, Note_on_c, 11, 56, 95
3, 39120, Note_on_c, 11, 51, 95
3, 39120, Note_on_c, 11, 44, 95
3, 39360, Note_off_c, 11, 68, 80
3, 39360, Note_off_c, 11, 63, 80
3, 39360, Note_off_c, 11, 60, 80
3, 39360, Note_off_c, 11, 56, 80
3, 39360, Note_off_c, 11, 51, 80
3, 39360, Note_off_c, 11, 44, 80
3, 39360, Note_on_c, 11, 68, 79
3, 39360, Note_on_c, 11, 63, 79
3, 39360, Note_on_c, 11, 60, 95
3, 39360, Note_on_c, 11, 56, 95
3, 39360, Note_on_c, 11, 51, 95
3, 39360, Note_on_c, 11, 44, 95
3, 39600, Note_off_c, 11, 68, 80
3, 39600, Note_off_c, 11, 63, 80
3, 39600, Note_off_c, 11, 60, 80
3, 39600, Note_off_c, 11, 56, 80
3, 39600, Note_off_c, 11, 51, 80
3, 39600, Note_off_c, 11, 44, 80
3, 39600, Note_on_c, 11, 68, 79
3, 39600, Note_on_c, 11, 63, 79
3, 39600, Note_on_c, 11, 60, 95
3, 39600, Note_on_c, 11, 56, 95
3, 39600, Note_on_c, 11, 51, 95
3, 39600, Note_on_c, 11, 44, 95
3, 39840, Note_off_c, 11, 68, 80
3, 39840, Note_off_c, 11, 63, 80
3, 39840, Note_off_c, 11, 60, 80
3, 39840, Note_off_c, 11, 56, 80
3, 39840, Note_off_c, 11, 51, 80
3, 39840, Note_off_c, 11, 44, 80
3, 39840, Note_on_c, 11, 68, 79
3, 39840, Note_on_c, 11, 63, 79
3, 39840, Note_on_c, 11, 60, 95
3, 39840, Note_on_c, 11, 56, 95
3, 39840, Note_on_c, 11, 51, 95
3, 39840, Note_on_c, 11, 44, 95
3, 40080, Note_off_c, 11, 68, 80
3, 40080, Note_off_c, 11, 63, 80
3, 40080, Note_off_c, 11, 60, 80
3, 40080, Note_off_c, 11, 56, 80
3, 40080, Note_off_c, 11, 51, 80
3, 40080, Note_off_c, 11, 44, 80
3, 40080, Note_on_c, 11, 63, 95
3, 40080, Note_on_c, 11, 59, 95
3, 40080, Note_on_c, 11, 54, 95
3, 40080, Note_on_c, 11, 47, 95
3, 40200, Note_off_c, 11, 63, 80
3, 40200, Note_off_c, 11, 59, 80
3, 40200, Note_off_c, 11, 54, 80
3, 40200, Note_off_c, 11, 47, 80
3, 40200, Note_on_c, 11, 63, 95
3, 40200, Note_on_c, 11, 59, 95
3, 40200, Note_on_c, 11, 54, 95
3, 40200, Note_on_c, 11, 47, 95
3, 40320, Note_off_c, 11, 63, 80
3, 40320, Note_off_c, 11, 59, 80
3, 40320, Note_off_c, 11, 54, 80
3, 40320, Note_off_c, 11, 47, 80
3, 40320, Note_on_c, 11, 71, 79
3, 40320, Note_on_c, 11, 66, 79
3, 40320, Note_on_c, 11, 63, 95
3, 40320, Note_on_c, 11, 59, 95
3, 40320, Note_on_c, 11, 54, 95
3, 40320, Note_on_c, 11, 47, 95
3, 40800, Note_off_c, 11, 71, 80
3, 40800, Note_off_c, 11, 66, 80
3, 40800, Note_off_c, 11, 63, 80
3, 40800, Note_off_c, 11, 59, 80
3, 40800, Note_off_c, 11, 54, 80
3, 40800, Note_off_c, 11, 47, 80
3, 40800, Note_on_c, 11, 71, 79
3, 40800, Note_on_c, 11, 66, 79
3, 40800, Note_on_c, 11, 63, 95
3, 40800, Note_on_c, 11, 59, 95
3, 40800, Note_on_c, 11, 54, 95
3, 40800, Note_on_c, 11, 47, 95
3, 41040, Note_off_c, 11, 71, 80
3, 41040, Note_off_c, 11, 66, 80
3, 41040, Note_off_c, 11, 63, 80
3, 41040, Note_off_c, 11, 59, 80
3, 41040, Note_off_c, 11, 54, 80
3, 41040, Note_off_c, 11, 47, 80
3, 41040, Note_on_c, 11, 71, 79
3, 41040, Note_on_c, 11, 66, 79
3, 41040, Note_on_c, 11, 63, 95
3, 41040, Note_on_c, 11, 59, 95
3, 41040, Note_on_c, 11, 54, 95
3, 41040, Note_on_c, 11, 47, 95
3, 41280, Note_off_c, 11, 71, 80
3, 41280, Note_off_c, 11, 66, 80
3, 41280, Note_off_c, 11, 63, 80
3, 41280, Note_off_c, 11, 59, 80
3, 41280, Note_off_c, 11, 54, 80
3, 41280, Note_off_c, 11, 47, 80
3, 41280, Note_on_c, 11, 71, 79
3, 41280, Note_on_c, 11, 66, 79
3, 41280, Note_on_c, 11, 63, 95
3, 41280, Note_on_c, 11, 59, 95
3, 41280, Note_on_c, 11, 54, 95
3, 41280, Note_on_c, 11, 47, 95
3, 41520, Note_off_c, 11, 71, 80
3, 41520, Note_off_c, 11, 66, 80
3, 41520, Note_off_c, 11, 63, 80
3, 41520, Note_off_c, 11, 59, 80
3, 41520, Note_off_c, 11, 54, 80
3, 41520, Note_off_c, 11, 47, 80
3, 41520, Note_on_c, 11, 71, 79
3, 41520, Note_on_c, 11, 66, 79
3, 41520, Note_on_c, 11, 63, 95
3, 41520, Note_on_c, 11, 59, 95
3, 41520, Note_on_c, 11, 54, 95
3, 41520, Note_on_c, 11, 47, 95
3, 41760, Note_off_c, 11, 71, 80
3, 41760, Note_off_c, 11, 66, 80
3, 41760, Note_off_c, 11, 63, 80
3, 41760, Note_off_c, 11, 59, 80
3, 41760, Note_off_c, 11, 54, 80
3, 41760, Note_off_c, 11, 47, 80
3, 41760, Note_on_c, 11, 71, 79
3, 41760, Note_on_c, 11, 66, 79
3, 41760, Note_on_c, 11, 63, 95
3, 41760, Note_on_c, 11, 59, 95
3, 41760, Note_on_c, 11, 54, 95
3, 41760, Note_on_c, 11, 47, 95
3, 42000, Note_off_c, 11, 71, 80
3, 42000, Note_off_c, 11, 66, 80
3, 42000, Note_off_c, 11, 63, 80
3, 42000, Note_off_c, 11, 59, 80
3, 42000, Note_off_c, 11, 54, 80
3, 42000, Note_off_c, 11, 47, 80
3, 42000, Note_on_c, 11, 64, 95
3, 42000, Note_on_c, 11, 59, 95
3, 42000, Note_on_c, 11, 52, 95
3, 42120, Note_off_c, 11, 64, 80
3, 42120, Note_off_c, 11, 59, 80
3, 42120, Note_off_c, 11, 52, 80
3, 42120, Note_on_c, 11, 64, 95
3, 42120, Note_on_c, 11, 59, 95
3, 42120, Note_on_c, 11, 52, 95
3, 42240, Note_off_c, 11, 64, 80
3, 42240, Note_off_c, 11, 59, 80
3, 42240, Note_off_c, 11, 52, 80
3, 42240, Note_on_c, 11, 71, 95
3, 42240, Note_on_c, 11, 68, 95
3, 42240, Note_on_c, 11, 64, 95
3, 42240, Note_on_c, 11, 59, 95
3, 42240, Note_on_c, 11, 52, 95
3, 42720, Note_off_c, 11, 71, 80
3, 42720, Note_off_c, 11, 68, 80
3, 42720, Note_off_c, 11, 64, 80
3, 42720, Note_off_c, 11, 59, 80
3, 42720, Note_off_c, 11, 52, 80
3, 42720, Note_on_c, 11, 71, 95
3, 42720, Note_on_c, 11, 68, 95
3, 42720, Note_on_c, 11, 64, 95
3, 42720, Note_on_c, 11, 59, 95
3, 42720, Note_on_c, 11, 52, 95
3, 42960, Note_off_c, 11, 71, 80
3, 42960, Note_off_c, 11, 68, 80
3, 42960, Note_off_c, 11, 64, 80
3, 42960, Note_off_c, 11, 59, 80
3, 42960, Note_off_c, 11, 52, 80
3, 42960, Note_on_c, 11, 71, 95
3, 42960, Note_on_c, 11, 68, 95
3, 42960, Note_on_c, 11, 64, 95
3, 42960, Note_on_c, 11, 59, 95
3, 42960, Note_on_c, 11, 52, 95
3, 43200, Note_off_c, 11, 71, 80
3, 43200, Note_off_c, 11, 68, 80
3, 43200, Note_off_c, 11, 64, 80
3, 43200, Note_off_c, 11, 59, 80
3, 43200, Note_off_c, 11, 52, 80
3, 43200, Note_on_c, 11, 71, 95
3, 43200, Note_on_c, 11, 68, 95
3, 43200, Note_on_c, 11, 64, 95
3, 43200, Note_on_c, 11, 59, 95
3, 43200, Note_on_c, 11, 52, 95
3, 43440, Note_off_c, 11, 71, 80
3, 43440, Note_off_c, 11, 68, 80
3, 43440, Note_off_c, 11, 64, 80
3, 43440, Note_off_c, 11, 59, 80
3, 43440, Note_off_c, 11, 52, 80
3, 43440, Note_on_c, 11, 71, 95
3, 43440, Note_on_c, 11, 68, 95
3, 43440, Note_on_c, 11, 64, 95
3, 43440, Note_on_c, 11, 59, 95
3, 43440, Note_on_c, 11, 52, 95
3, 43680, Note_off_c, 11, 71, 80
3, 43680, Note_off_c, 11, 68, 80
3, 43680, Note_off_c, 11, 64, 80
3, 43680, Note_off_c, 11, 59, 80
3, 43680, Note_off_c, 11, 52, 80
3, 43680, Note_on_c, 11, 71, 95
3, 43680, Note_on_c, 11, 68, 95
3, 43680, Note_on_c, 11, 64, 95
3, 43680, Note_on_c, 11, 59, 95
3, 43680, Note_on_c, 11, 52, 95
3, 43920, Note_off_c, 11, 71, 80
3, 43920, Note_off_c, 11, 68, 80
3, 43920, Note_off_c, 11, 64, 80
3, 43920, Note_off_c, 11, 59, 80
3, 43920, Note_off_c, 11, 52, 80
3, 43920, Note_on_c, 11, 71, 95
3, 43920, Note_on_c, 11, 68, 95
3, 43920, Note_on_c, 11, 64, 95
3, 43920, Note_on_c, 11, 59, 95
3, 43920, Note_on_c, 11, 52, 95
3, 44160, Note_off_c, 11, 71, 80
3, 44160, Note_off_c, 11, 68, 80
3, 44160, Note_off_c, 11, 64, 80
3, 44160, Note_off_c, 11, 59, 80
3, 44160, Note_off_c, 11, 52, 80
3, 44400, Note_on_c, 11, 68, 79
3, 44400, Note_on_c, 11, 63, 79
3, 44400, Note_on_c, 11, 60, 95
3, 44400, Note_on_c, 11, 56, 95
3, 44400, Note_on_c, 11, 51, 95
3, 44400, Note_on_c, 11, 44, 95
3, 44640, Note_off_c, 11, 68, 80
3, 44640, Note_off_c, 11, 63, 80
3, 44640, Note_off_c, 11, 60, 80
3, 44640, Note_off_c, 11, 56, 80
3, 44640, Note_off_c, 11, 51, 80
3, 44640, Note_off_c, 11, 44, 80
3, 44640, Note_on_c, 11, 68, 79
3, 44640, Note_on_c, 11, 63, 79
3, 44640, Note_on_c, 11, 60, 95
3, 44640, Note_on_c, 11, 56, 95
3, 44640, Note_on_c, 11, 51, 95
3, 44640, Note_on_c, 11, 44, 95
3, 44880, Note_off_c, 11, 68, 80
3, 44880, Note_off_c, 11, 63, 80
3, 44880, Note_off_c, 11, 60, 80
3, 44880, Note_off_c, 11, 56, 80
3, 44880, Note_off_c, 11, 51, 80
3, 44880, Note_off_c, 11, 44, 80
3, 44880, Note_on_c, 11, 68, 79
3, 44880, Note_on_c, 11, 63, 79
3, 44880, Note_on_c, 11, 60, 95
3, 44880, Note_on_c, 11, 56, 95
3, 44880, Note_on_c, 11, 51, 95
3, 44880, Note_on_c, 11, 44, 95
3, 45120, Note_off_c, 11, 68, 80
3, 45120, Note_off_c, 11, 63, 80
3, 45120, Note_off_c, 11, 60, 80
3, 45120, Note_off_c, 11, 56, 80
3, 45120, Note_off_c, 11, 51, 80
3, 45120, Note_off_c, 11, 44, 80
3, 45120, Note_on_c, 11, 68, 79
3, 45120, Note_on_c, 11, 63, 79
3, 45120, Note_on_c, 11, 60, 95
3, 45120, Note_on_c, 11, 56, 95
3, 45120, Note_on_c, 11, 51, 95
3, 45120, Note_on_c, 11, 44, 95
3, 45360, Note_off_c, 11, 68, 80
3, 45360, Note_off_c, 11, 63, 80
3, 45360, Note_off_c, 11, 60, 80
3, 45360, Note_off_c, 11, 56, 80
3, 45360, Note_off_c, 11, 51, 80
3, 45360, Note_off_c, 11, 44, 80
3, 45360, Note_on_c, 11, 68, 79
3, 45360, Note_on_c, 11, 63, 79
3, 45360, Note_on_c, 11, 60, 95
3, 45360, Note_on_c, 11, 56, 95
3, 45360, Note_on_c, 11, 51, 95
3, 45360, Note_on_c, 11, 44, 95
3, 45600, Note_off_c, 11, 68, 80
3, 45600, Note_off_c, 11, 63, 80
3, 45600, Note_off_c, 11, 60, 80
3, 45600, Note_off_c, 11, 56, 80
3, 45600, Note_off_c, 11, 51, 80
3, 45600, Note_off_c, 11, 44, 80
3, 45600, Note_on_c, 11, 68, 79
3, 45600, Note_on_c, 11, 63, 79
3, 45600, Note_on_c, 11, 60, 95
3, 45600, Note_on_c, 11, 56, 95
3, 45600, Note_on_c, 11, 51, 95
3, 45600, Note_on_c, 11, 44, 95
3, 45840, Note_off_c, 11, 68, 80
3, 45840, Note_off_c, 11, 63, 80
3, 45840, Note_off_c, 11, 60, 80
3, 45840, Note_off_c, 11, 56, 80
3, 45840, Note_off_c, 11, 51, 80
3, 45840, Note_off_c, 11, 44, 80
3, 45840, Note_on_c, 11, 68, 79
3, 45840, Note_on_c, 11, 63, 79
3, 45840, Note_on_c, 11, 60, 95
3, 45840, Note_on_c, 11, 56, 95
3, 45840, Note_on_c, 11, 51, 95
3, 45840, Note_on_c, 11, 44, 95
3, 46080, Note_off_c, 11, 68, 80
3, 46080, Note_off_c, 11, 63, 80
3, 46080, Note_off_c, 11, 60, 80
3, 46080, Note_off_c, 11, 56, 80
3, 46080, Note_off_c, 11, 51, 80
3, 46080, Note_off_c, 11, 44, 80
3, 46080, Note_on_c, 11, 71, 79
3, 46080, Note_on_c, 11, 68, 79
3, 46080, Note_on_c, 11, 64, 95
3, 46080, Note_on_c, 11, 59, 95
3, 46080, Note_on_c, 11, 52, 95
3, 46560, Note_off_c, 11, 71, 80
3, 46560, Note_off_c, 11, 68, 80
3, 46560, Note_off_c, 11, 64, 80
3, 46560, Note_off_c, 11, 59, 80
3, 46560, Note_off_c, 11, 52, 80
3, 46560, Note_on_c, 11, 71, 79
3, 46560, Note_on_c, 11, 68, 79
3, 46560, Note_on_c, 11, 64, 95
3, 46560, Note_on_c, 11, 59, 95
3, 46560, Note_on_c, 11, 52, 95
3, 46800, Note_off_c, 11, 71, 80
3, 46800, Note_off_c, 11, 68, 80
3, 46800, Note_off_c, 11, 64, 80
3, 46800, Note_off_c, 11, 59, 80
3, 46800, Note_off_c, 11, 52, 80
3, 46800, Note_on_c, 11, 71, 79
3, 46800, Note_on_c, 11, 68, 79
3, 46800, Note_on_c, 11, 64, 95
3, 46800, Note_on_c, 11, 59, 95
3, 46800, Note_on_c, 11, 52, 95
3, 47040, Note_off_c, 11, 71, 80
3, 47040, Note_off_c, 11, 68, 80
3, 47040, Note_off_c, 11, 64, 80
3, 47040, Note_off_c, 11, 59, 80
3, 47040, Note_off_c, 11, 52, 80
3, 47040, Note_on_c, 11, 71, 79
3, 47040, Note_on_c, 11, 68, 79
3, 47040, Note_on_c, 11, 64, 95
3, 47040, Note_on_c, 11, 59, 95
3, 47040, Note_on_c, 11, 52, 95
3, 47280, Note_off_c, 11, 71, 80
3, 47280, Note_off_c, 11, 68, 80
3, 47280, Note_off_c, 11, 64, 80
3, 47280, Note_off_c, 11, 59, 80
3, 47280, Note_off_c, 11, 52, 80
3, 47280, Note_on_c, 11, 71, 79
3, 47280, Note_on_c, 11, 68, 79
3, 47280, Note_on_c, 11, 64, 95
3, 47280, Note_on_c, 11, 59, 95
3, 47280, Note_on_c, 11, 52, 95
3, 47520, Note_off_c, 11, 71, 80
3, 47520, Note_off_c, 11, 68, 80
3, 47520, Note_off_c, 11, 64, 80
3, 47520, Note_off_c, 11, 59, 80
3, 47520, Note_off_c, 11, 52, 80
3, 47520, Note_on_c, 11, 71, 79
3, 47520, Note_on_c, 11, 68, 79
3, 47520, Note_on_c, 11, 64, 95
3, 47520, Note_on_c, 11, 59, 95
3, 47520, Note_on_c, 11, 52, 95
3, 47760, Note_off_c, 11, 71, 80
3, 47760, Note_off_c, 11, 68, 80
3, 47760, Note_off_c, 11, 64, 80
3, 47760, Note_off_c, 11, 59, 80
3, 47760, Note_off_c, 11, 52, 80
3, 47760, Note_on_c, 11, 60, 95
3, 47760, Note_on_c, 11, 56, 95
3, 47760, Note_on_c, 11, 51, 95
3, 47760, Note_on_c, 11, 44, 95
3, 47880, Note_off_c, 11, 60, 80
3, 47880, Note_off_c, 11, 56, 80
3, 47880, Note_off_c, 11, 51, 80
3, 47880, Note_off_c, 11, 44, 80
3, 47880, Note_on_c, 11, 60, 95
3, 47880, Note_on_c, 11, 56, 95
3, 47880, Note_on_c, 11, 51, 95
3, 47880, Note_on_c, 11, 44, 95
3, 48000, Note_off_c, 11, 60, 80
3, 48000, Note_off_c, 11, 56, 80
3, 48000, Note_off_c, 11, 51, 80
3, 48000, Note_off_c, 11, 44, 80
3, 48000, Note_on_c, 11, 68, 79
3, 48000, Note_on_c, 11, 63, 79
3, 48000, Note_on_c, 11, 60, 95
3, 48000, Note_on_c, 11, 56, 95
3, 48000, Note_on_c, 11, 51, 95
3, 48000, Note_on_c, 11, 44, 95
3, 48480, Note_off_c, 11, 68, 80
3, 48480, Note_off_c, 11, 63, 80
3, 48480, Note_off_c, 11, 60, 80
3, 48480, Note_off_c, 11, 56, 80
3, 48480, Note_off_c, 11, 51, 80
3, 48480, Note_off_c, 11, 44, 80
3, 86400, Note_on_c, 11, 68, 79
3, 86400, Note_on_c, 11, 63, 79
3, 86400, Note_on_c, 11, 60, 95
3, 86400, Note_on_c, 11, 56, 95
3, 86400, Note_on_c, 11, 51, 95
3, 86400, Note_on_c, 11, 44, 95
3, 86880, Note_off_c, 11, 68, 80
3, 86880, Note_off_c, 11, 63, 80
3, 86880, Note_off_c, 11, 60, 80
3, 86880, Note_off_c, 11, 56, 80
3, 86880, Note_off_c, 11, 51, 80
3, 86880, Note_off_c, 11, 44, 80
3, 86880, Note_on_c, 11, 68, 79
3, 86880, Note_on_c, 11, 63, 79
3, 86880, Note_on_c, 11, 60, 95
3, 86880, Note_on_c, 11, 56, 95
3, 86880, Note_on_c, 11, 51, 95
3, 86880, Note_on_c, 11, 44, 95
3, 87120, Note_off_c, 11, 68, 80
3, 87120, Note_off_c, 11, 63, 80
3, 87120, Note_off_c, 11, 60, 80
3, 87120, Note_off_c, 11, 56, 80
3, 87120, Note_off_c, 11, 51, 80
3, 87120, Note_off_c, 11, 44, 80
3, 87120, Note_on_c, 11, 68, 79
3, 87120, Note_on_c, 11, 63, 79
3, 87120, Note_on_c, 11, 60, 95
3, 87120, Note_on_c, 11, 56, 95
3, 87120, Note_on_c, 11, 51, 95
3, 87120, Note_on_c, 11, 44, 95
3, 87360, Note_off_c, 11, 68, 80
3, 87360, Note_off_c, 11, 63, 80
3, 87360, Note_off_c, 11, 60, 80
3, 87360, Note_off_c, 11, 56, 80
3, 87360, Note_off_c, 11, 51, 80
3, 87360, Note_off_c, 11, 44, 80
3, 87360, Note_on_c, 11, 68, 79
3, 87360, Note_on_c, 11, 63, 79
3, 87360, Note_on_c, 11, 60, 95
3, 87360, Note_on_c, 11, 56, 95
3, 87360, Note_on_c, 11, 51, 95
3, 87360, Note_on_c, 11, 44, 95
3, 87600, Note_off_c, 11, 68, 80
3, 87600, Note_off_c, 11, 63, 80
3, 87600, Note_off_c, 11, 60, 80
3, 87600, Note_off_c, 11, 56, 80
3, 87600, Note_off_c, 11, 51, 80
3, 87600, Note_off_c, 11, 44, 80
3, 87600, Note_on_c, 11, 68, 79
3, 87600, Note_on_c, 11, 63, 79
3, 87600, Note_on_c, 11, 60, 95
3, 87600, Note_on_c, 11, 56, 95
3, 87600, Note_on_c, 11, 51, 95
3, 87600, Note_on_c, 11, 44, 95
3, 87840, Note_off_c, 11, 68, 80
3, 87840, Note_off_c, 11, 63, 80
3, 87840, Note_off_c, 11, 60, 80
3, 87840, Note_off_c, 11, 56, 80
3, 87840, Note_off_c, 11, 51, 80
3, 87840, Note_off_c, 11, 44, 80
3, 87840, Note_on_c, 11, 68, 79
3, 87840, Note_on_c, 11, 63, 79
3, 87840, Note_on_c, 11, 60, 95
3, 87840, Note_on_c, 11, 56, 95
3, 87840, Note_on_c, 11, 51, 95
3, 87840, Note_on_c, 11, 44, 95
3, 88080, Note_off_c, 11, 68, 80
3, 88080, Note_off_c, 11, 63, 80
3, 88080, Note_off_c, 11, 60, 80
3, 88080, Note_off_c, 11, 56, 80
3, 88080, Note_off_c, 11, 51, 80
3, 88080, Note_off_c, 11, 44, 80
3, 88080, Note_on_c, 11, 63, 95
3, 88080, Note_on_c, 11, 59, 95
3, 88080, Note_on_c, 11, 54, 95
3, 88080, Note_on_c, 11, 47, 95
3, 88200, Note_off_c, 11, 63, 80
3, 88200, Note_off_c, 11, 59, 80
3, 88200, Note_off_c, 11, 54, 80
3, 88200, Note_off_c, 11, 47, 80
3, 88200, Note_on_c, 11, 63, 95
3, 88200, Note_on_c, 11, 59, 95
3, 88200, Note_on_c, 11, 54, 95
3, 88200, Note_on_c, 11, 47, 95
3, 88320, Note_off_c, 11, 63, 80
3, 88320, Note_off_c, 11, 59, 80
3, 88320, Note_off_c, 11, 54, 80
3, 88320, Note_off_c, 11, 47, 80
3, 88320, Note_on_c, 11, 71, 79
3, 88320, Note_on_c, 11, 66, 79
3, 88320, Note_on_c, 11, 63, 95
3, 88320, Note_on_c, 11, 59, 95
3, 88320, Note_on_c, 11, 54, 95
3, 88320, Note_on_c, 11, 47, 95
3, 88800, Note_off_c, 11, 71, 80
3, 88800, Note_off_c, 11, 66, 80
3, 88800, Note_off_c, 11, 63, 80
3, 88800, Note_off_c, 11, 59, 80
3, 88800, Note_off_c, 11, 54, 80
3, 88800, Note_off_c, 11, 47, 80
3, 88800, Note_on_c, 11, 71, 79
3, 88800, Note_on_c, 11, 66, 79
3, 88800, Note_on_c, 11, 63, 95
3, 88800, Note_on_c, 11, 59, 95
3, 88800, Note_on_c, 11, 54, 95
3, 88800, Note_on_c, 11, 47, 95
3, 89040, Note_off_c, 11, 71, 80
3, 89040, Note_off_c, 11, 66, 80
3, 89040, Note_off_c, 11, 63, 80
3, 89040, Note_off_c, 11, 59, 80
3, 89040, Note_off_c, 11, 54, 80
3, 89040, Note_off_c, 11, 47, 80
3, 89040, Note_on_c, 11, 71, 79
3, 89040, Note_on_c, 11, 66, 79
3, 89040, Note_on_c, 11, 63, 95
3, 89040, Note_on_c, 11, 59, 95
3, 89040, Note_on_c, 11, 54, 95
3, 89040, Note_on_c, 11, 47, 95
3, 89280, Note_off_c, 11, 71, 80
3, 89280, Note_off_c, 11, 66, 80
3, 89280, Note_off_c, 11, 63, 80
3, 89280, Note_off_c, 11, 59, 80
3, 89280, Note_off_c, 11, 54, 80
3, 89280, Note_off_c, 11, 47, 80
3, 89280, Note_on_c, 11, 71, 79
3, 89280, Note_on_c, 11, 66, 79
3, 89280, Note_on_c, 11, 63, 95
3, 89280, Note_on_c, 11, 59, 95
3, 89280, Note_on_c, 11, 54, 95
3, 89280, Note_on_c, 11, 47, 95
3, 89520, Note_off_c, 11, 71, 80
3, 89520, Note_off_c, 11, 66, 80
3, 89520, Note_off_c, 11, 63, 80
3, 89520, Note_off_c, 11, 59, 80
3, 89520, Note_off_c, 11, 54, 80
3, 89520, Note_off_c, 11, 47, 80
3, 89520, Note_on_c, 11, 71, 79
3, 89520, Note_on_c, 11, 66, 79
3, 89520, Note_on_c, 11, 63, 95
3, 89520, Note_on_c, 11, 59, 95
3, 89520, Note_on_c, 11, 54, 95
3, 89520, Note_on_c, 11, 47, 95
3, 89760, Note_off_c, 11, 71, 80
3, 89760, Note_off_c, 11, 66, 80
3, 89760, Note_off_c, 11, 63, 80
3, 89760, Note_off_c, 11, 59, 80
3, 89760, Note_off_c, 11, 54, 80
3, 89760, Note_off_c, 11, 47, 80
3, 89760, Note_on_c, 11, 71, 79
3, 89760, Note_on_c, 11, 66, 79
3, 89760, Note_on_c, 11, 63, 95
3, 89760, Note_on_c, 11, 59, 95
3, 89760, Note_on_c, 11, 54, 95
3, 89760, Note_on_c, 11, 47, 95
3, 90000, Note_off_c, 11, 71, 80
3, 90000, Note_off_c, 11, 66, 80
3, 90000, Note_off_c, 11, 63, 80
3, 90000, Note_off_c, 11, 59, 80
3, 90000, Note_off_c, 11, 54, 80
3, 90000, Note_off_c, 11, 47, 80
3, 90000, Note_on_c, 11, 64, 95
3, 90000, Note_on_c, 11, 59, 95
3, 90000, Note_on_c, 11, 52, 95
3, 90120, Note_off_c, 11, 64, 80
3, 90120, Note_off_c, 11, 59, 80
3, 90120, Note_off_c, 11, 52, 80
3, 90120, Note_on_c, 11, 64, 95
3, 90120, Note_on_c, 11, 59, 95
3, 90120, Note_on_c, 11, 52, 95
3, 90240, Note_off_c, 11, 64, 80
3, 90240, Note_off_c, 11, 59, 80
3, 90240, Note_off_c, 11, 52, 80
3, 90240, Note_on_c, 11, 71, 95
3, 90240, Note_on_c, 11, 68, 95
3, 90240, Note_on_c, 11, 64, 95
3, 90240, Note_on_c, 11, 59, 95
3, 90240, Note_on_c, 11, 52, 95
3, 90720, Note_off_c, 11, 71, 80
3, 90720, Note_off_c, 11, 68, 80
3, 90720, Note_off_c, 11, 64, 80
3, 90720, Note_off_c, 11, 59, 80
3, 90720, Note_off_c, 11, 52, 80
3, 90720, Note_on_c, 11, 71, 95
3, 90720, Note_on_c, 11, 68, 95
3, 90720, Note_on_c, 11, 64, 95
3, 90720, Note_on_c, 11, 59, 95
3, 90720, Note_on_c, 11, 52, 95
3, 90960, Note_off_c, 11, 71, 80
3, 90960, Note_off_c, 11, 68, 80
3, 90960, Note_off_c, 11, 64, 80
3, 90960, Note_off_c, 11, 59, 80
3, 90960, Note_off_c, 11, 52, 80
3, 90960, Note_on_c, 11, 71, 95
3, 90960, Note_on_c, 11, 68, 95
3, 90960, Note_on_c, 11, 64, 95
3, 90960, Note_on_c, 11, 59, 95
3, 90960, Note_on_c, 11, 52, 95
3, 91200, Note_off_c, 11, 71, 80
3, 91200, Note_off_c, 11, 68, 80
3, 91200, Note_off_c, 11, 64, 80
3, 91200, Note_off_c, 11, 59, 80
3, 91200, Note_off_c, 11, 52, 80
3, 91200, Note_on_c, 11, 71, 95
3, 91200, Note_on_c, 11, 68, 95
3, 91200, Note_on_c, 11, 64, 95
3, 91200, Note_on_c, 11, 59, 95
3, 91200, Note_on_c, 11, 52, 95
3, 91440, Note_off_c, 11, 71, 80
3, 91440, Note_off_c, 11, 68, 80
3, 91440, Note_off_c, 11, 64, 80
3, 91440, Note_off_c, 11, 59, 80
3, 91440, Note_off_c, 11, 52, 80
3, 91440, Note_on_c, 11, 71, 95
3, 91440, Note_on_c, 11, 68, 95
3, 91440, Note_on_c, 11, 64, 95
3, 91440, Note_on_c, 11, 59, 95
3, 91440, Note_on_c, 11, 52, 95
3, 91680, Note_off_c, 11, 71, 80
3, 91680, Note_off_c, 11, 68, 80
3, 91680, Note_off_c, 11, 64, 80
3, 91680, Note_off_c, 11, 59, 80
3, 91680, Note_off_c, 11, 52, 80
3, 91680, Note_on_c, 11, 71, 95
3, 91680, Note_on_c, 11, 68, 95
3, 91680, Note_on_c, 11, 64, 95
3, 91680, Note_on_c, 11, 59, 95
3, 91680, Note_on_c, 11, 52, 95
3, 91920, Note_off_c, 11, 71, 80
3, 91920, Note_off_c, 11, 68, 80
3, 91920, Note_off_c, 11, 64, 80
3, 91920, Note_off_c, 11, 59, 80
3, 91920, Note_off_c, 11, 52, 80
3, 91920, Note_on_c, 11, 71, 95
3, 91920, Note_on_c, 11, 68, 95
3, 91920, Note_on_c, 11, 64, 95
3, 91920, Note_on_c, 11, 59, 95
3, 91920, Note_on_c, 11, 52, 95
3, 92160, Note_off_c, 11, 71, 80
3, 92160, Note_off_c, 11, 68, 80
3, 92160, Note_off_c, 11, 64, 80
3, 92160, Note_off_c, 11, 59, 80
3, 92160, Note_off_c, 11, 52, 80
3, 92400, Note_on_c, 11, 68, 79
3, 92400, Note_on_c, 11, 63, 79
3, 92400, Note_on_c, 11, 60, 95
3, 92400, Note_on_c, 11, 56, 95
3, 92400, Note_on_c, 11, 51, 95
3, 92400, Note_on_c, 11, 44, 95
3, 92640, Note_off_c, 11, 68, 80
3, 92640, Note_off_c, 11, 63, 80
3, 92640, Note_off_c, 11, 60, 80
3, 92640, Note_off_c, 11, 56, 80
3, 92640, Note_off_c, 11, 51, 80
3, 92640, Note_off_c, 11, 44, 80
3, 92640, Note_on_c, 11, 68, 79
3, 92640, Note_on_c, 11, 63, 79
3, 92640, Note_on_c, 11, 60, 95
3, 92640, Note_on_c, 11, 56, 95
3, 92640, Note_on_c, 11, 51, 95
3, 92640, Note_on_c, 11, 44, 95
3, 92880, Note_off_c, 11, 68, 80
3, 92880, Note_off_c, 11, 63, 80
3, 92880, Note_off_c, 11, 60, 80
3, 92880, Note_off_c, 11, 56, 80
3, 92880, Note_off_c, 11, 51, 80
3, 92880, Note_off_c, 11, 44, 80
3, 92880, Note_on_c, 11, 68, 79
3, 92880, Note_on_c, 11, 63, 79
3, 92880, Note_on_c, 11, 60, 95
3, 92880, Note_on_c, 11, 56, 95
3, 92880, Note_on_c, 11, 51, 95
3, 92880, Note_on_c, 11, 44, 95
3, 93120, Note_off_c, 11, 68, 80
3, 93120, Note_off_c, 11, 63, 80
3, 93120, Note_off_c, 11, 60, 80
3, 93120, Note_off_c, 11, 56, 80
3, 93120, Note_off_c, 11, 51, 80
3, 93120, Note_off_c, 11, 44, 80
3, 93120, Note_on_c, 11, 68, 79
3, 93120, Note_on_c, 11, 63, 79
3, 93120, Note_on_c, 11, 60, 95
3, 93120, Note_on_c, 11, 56, 95
3, 93120, Note_on_c, 11, 51, 95
3, 93120, Note_on_c, 11, 44, 95
3, 93360, Note_off_c, 11, 68, 80
3, 93360, Note_off_c, 11, 63, 80
3, 93360, Note_off_c, 11, 60, 80
3, 93360, Note_off_c, 11, 56, 80
3, 93360, Note_off_c, 11, 51, 80
3, 93360, Note_off_c, 11, 44, 80
3, 93360, Note_on_c, 11, 68, 79
3, 93360, Note_on_c, 11, 63, 79
3, 93360, Note_on_c, 11, 60, 95
3, 93360, Note_on_c, 11, 56, 95
3, 93360, Note_on_c, 11, 51, 95
3, 93360, Note_on_c, 11, 44, 95
3, 93600, Note_off_c, 11, 68, 80
3, 93600, Note_off_c, 11, 63, 80
3, 93600, Note_off_c, 11, 60, 80
3, 93600, Note_off_c, 11, 56, 80
3, 93600, Note_off_c, 11, 51, 80
3, 93600, Note_off_c, 11, 44, 80
3, 93600, Note_on_c, 11, 68, 79
3, 93600, Note_on_c, 11, 63, 79
3, 93600, Note_on_c, 11, 60, 95
3, 93600, Note_on_c, 11, 56, 95
3, 93600, Note_on_c, 11, 51, 95
3, 93600, Note_on_c, 11, 44, 95
3, 93840, Note_off_c, 11, 68, 80
3, 93840, Note_off_c, 11, 63, 80
3, 93840, Note_off_c, 11, 60, 80
3, 93840, Note_off_c, 11, 56, 80
3, 93840, Note_off_c, 11, 51, 80
3, 93840, Note_off_c, 11, 44, 80
3, 93840, Note_on_c, 11, 68, 79
3, 93840, Note_on_c, 11, 63, 79
3, 93840, Note_on_c, 11, 60, 95
3, 93840, Note_on_c, 11, 56, 95
3, 93840, Note_on_c, 11, 51, 95
3, 93840, Note_on_c, 11, 44, 95
3, 94080, Note_off_c, 11, 68, 80
3, 94080, Note_off_c, 11, 63, 80
3, 94080, Note_off_c, 11, 60, 80
3, 94080, Note_off_c, 11, 56, 80
3, 94080, Note_off_c, 11, 51, 80
3, 94080, Note_off_c, 11, 44, 80
3, 94080, Note_on_c, 11, 71, 79
3, 94080, Note_on_c, 11, 68, 79
3, 94080, Note_on_c, 11, 64, 95
3, 94080, Note_on_c, 11, 59, 95
3, 94080, Note_on_c, 11, 52, 95
3, 94560, Note_off_c, 11, 71, 80
3, 94560, Note_off_c, 11, 68, 80
3, 94560, Note_off_c, 11, 64, 80
3, 94560, Note_off_c, 11, 59, 80
3, 94560, Note_off_c, 11, 52, 80
3, 94560, Note_on_c, 11, 71, 79
3, 94560, Note_on_c, 11, 68, 79
3, 94560, Note_on_c, 11, 64, 95
3, 94560, Note_on_c, 11, 59, 95
3, 94560, Note_on_c, 11, 52, 95
3, 94800, Note_off_c, 11, 71, 80
3, 94800, Note_off_c, 11, 68, 80
3, 94800, Note_off_c, 11, 64, 80
3, 94800, Note_off_c, 11, 59, 80
3, 94800, Note_off_c, 11, 52, 80
3, 94800, Note_on_c, 11, 71, 79
3, 94800, Note_on_c, 11, 68, 79
3, 94800, Note_on_c, 11, 64, 95
3, 94800, Note_on_c, 11, 59, 95
3, 94800, Note_on_c, 11, 52, 95
3, 95040, Note_off_c, 11, 71, 80
3, 95040, Note_off_c, 11, 68, 80
3, 95040, Note_off_c, 11, 64, 80
3, 95040, Note_off_c, 11, 59, 80
3, 95040, Note_off_c, 11, 52, 80
3, 95040, Note_on_c, 11, 71, 79
3, 95040, Note_on_c, 11, 68, 79
3, 95040, Note_on_c, 11, 64, 95
3, 95040, Note_on_c, 11, 59, 95
3, 95040, Note_on_c, 11, 52, 95
3, 95280, Note_off_c, 11, 71, 80
3, 95280, Note_off_c, 11, 68, 80
3, 95280, Note_off_c, 11, 64, 80
3, 95280, Note_off_c, 11, 59, 80
3, 95280, Note_off_c, 11, 52, 80
3, 95280, Note_on_c, 11, 71, 79
3, 95280, Note_on_c, 11, 68, 79
3, 95280, Note_on_c, 11, 64, 95
3, 95280, Note_on_c, 11, 59, 95
3, 95280, Note_on_c, 11, 52, 95
3, 95520, Note_off_c, 11, 71, 80
3, 95520, Note_off_c, 11, 68, 80
3, 95520, Note_off_c, 11, 64, 80
3, 95520, Note_off_c, 11, 59, 80
3, 95520, Note_off_c, 11, 52, 80
3, 95520, Note_on_c, 11, 71, 79
3, 95520, Note_on_c, 11, 68, 79
3, 95520, Note_on_c, 11, 64, 95
3, 95520, Note_on_c, 11, 59, 95
3, 95520, Note_on_c, 11, 52, 95
3, 95760, Note_off_c, 11, 71, 80
3, 95760, Note_off_c, 11, 68, 80
3, 95760, Note_off_c, 11, 64, 80
3, 95760, Note_off_c, 11, 59, 80
3, 95760, Note_off_c, 11, 52, 80
3, 95760, Note_on_c, 11, 60, 95
3, 95760, Note_on_c, 11, 56, 95
3, 95760, Note_on_c, 11, 51, 95
3, 95760, Note_on_c, 11, 44, 95
3, 95880, Note_off_c, 11, 60, 80
3, 95880, Note_off_c, 11, 56, 80
3, 95880, Note_off_c, 11, 51, 80
3, 95880, Note_off_c, 11, 44, 80
3, 95880, Note_on_c, 11, 60, 95
3, 95880, Note_on_c, 11, 56, 95
3, 95880, Note_on_c, 11, 51, 95
3, 95880, Note_on_c, 11, 44, 95
3, 96000, Note_off_c, 11, 60, 80
3, 96000, Note_off_c, 11, 56, 80
3, 96000, Note_off_c, 11, 51, 80
3, 96000, Note_off_c, 11, 44, 80
3, 96000, Note_on_c, 11, 68, 79
3, 96000, Note_on_c, 11, 63, 79
3, 96000, Note_on_c, 11, 60, 95
3, 96000, Note_on_c, 11, 56, 95
3, 96000, Note_on_c, 11, 51, 95
3, 96000, Note_on_c, 11, 44, 95
3, 96480, Note_off_c, 11, 68, 80
3, 96480, Note_off_c, 11, 63, 80
3, 96480, Note_off_c, 11, 60, 80
3, 96480, Note_off_c, 11, 56, 80
3, 96480, Note_off_c, 11, 51, 80
3, 96480, Note_off_c, 11, 44, 80
3, 134400, Note_on_c, 11, 68, 79
3, 134400, Note_on_c, 11, 63, 79
3, 134400, Note_on_c, 11, 60, 95
3, 134400, Note_on_c, 11, 56, 95
3, 134400, Note_on_c, 11, 51, 95
3, 134400, Note_on_c, 11, 44, 95
3, 134880, Note_off_c, 11, 68, 80
3, 134880, Note_off_c, 11, 63, 80
3, 134880, Note_off_c, 11, 60, 80
3, 134880, Note_off_c, 11, 56, 80
3, 134880, Note_off_c, 11, 51, 80
3, 134880, Note_off_c, 11, 44, 80
3, 134880, Note_on_c, 11, 68, 79
3, 134880, Note_on_c, 11, 63, 79
3, 134880, Note_on_c, 11, 60, 95
3, 134880, Note_on_c, 11, 56, 95
3, 134880, Note_on_c, 11, 51, 95
3, 134880, Note_on_c, 11, 44, 95
3, 135120, Note_off_c, 11, 68, 80
3, 135120, Note_off_c, 11, 63, 80
3, 135120, Note_off_c, 11, 60, 80
3, 135120, Note_off_c, 11, 56, 80
3, 135120, Note_off_c, 11, 51, 80
3, 135120, Note_off_c, 11, 44, 80
3, 135120, Note_on_c, 11, 68, 79
3, 135120, Note_on_c, 11, 63, 79
3, 135120, Note_on_c, 11, 60, 95
3, 135120, Note_on_c, 11, 56, 95
3, 135120, Note_on_c, 11, 51, 95
3, 135120, Note_on_c, 11, 44, 95
3, 135360, Note_off_c, 11, 68, 80
3, 135360, Note_off_c, 11, 63, 80
3, 135360, Note_off_c, 11, 60, 80
3, 135360, Note_off_c, 11, 56, 80
3, 135360, Note_off_c, 11, 51, 80
3, 135360, Note_off_c, 11, 44, 80
3, 135360, Note_on_c, 11, 68, 79
3, 135360, Note_on_c, 11, 63, 79
3, 135360, Note_on_c, 11, 60, 95
3, 135360, Note_on_c, 11, 56, 95
3, 135360, Note_on_c, 11, 51, 95
3, 135360, Note_on_c, 11, 44, 95
3, 135600, Note_off_c, 11, 68, 80
3, 135600, Note_off_c, 11, 63, 80
3, 135600, Note_off_c, 11, 60, 80
3, 135600, Note_off_c, 11, 56, 80
3, 135600, Note_off_c, 11, 51, 80
3, 135600, Note_off_c, 11, 44, 80
3, 135600, Note_on_c, 11, 68, 79
3, 135600, Note_on_c, 11, 63, 79
3, 135600, Note_on_c, 11, 60, 95
3, 135600, Note_on_c, 11, 56, 95
3, 135600, Note_on_c, 11, 51, 95
3, 135600, Note_on_c, 11, 44, 95
3, 135840, Note_off_c, 11, 68, 80
3, 135840, Note_off_c, 11, 63, 80
3, 135840, Note_off_c, 11, 60, 80
3, 135840, Note_off_c, 11, 56, 80
3, 135840, Note_off_c, 11, 51, 80
3, 135840, Note_off_c, 11, 44, 80
3, 135840, Note_on_c, 11, 68, 79
3, 135840, Note_on_c, 11, 63, 79
3, 135840, Note_on_c, 11, 60, 95
3, 135840, Note_on_c, 11, 56, 95
3, 135840, Note_on_c, 11, 51, 95
3, 135840, Note_on_c, 11, 44, 95
3, 136080, Note_off_c, 11, 68, 80
3, 136080, Note_off_c, 11, 63, 80
3, 136080, Note_off_c, 11, 60, 80
3, 136080, Note_off_c, 11, 56, 80
3, 136080, Note_off_c, 11, 51, 80
3, 136080, Note_off_c, 11, 44, 80
3, 136080, Note_on_c, 11, 63, 95
3, 136080, Note_on_c, 11, 59, 95
3, 136080, Note_on_c, 11, 54, 95
3, 136080, Note_on_c, 11, 47, 95
3, 136200, Note_off_c, 11, 63, 80
3, 136200, Note_off_c, 11, 59, 80
3, 136200, Note_off_c, 11, 54, 80
3, 136200, Note_off_c, 11, 47, 80
3, 136200, Note_on_c, 11, 63, 95
3, 136200, Note_on_c, 11, 59, 95
3, 136200, Note_on_c, 11, 54, 95
3, 136200, Note_on_c, 11, 47, 95
3, 136320, Note_off_c, 11, 63, 80
3, 136320, Note_off_c, 11, 59, 80
3, 136320, Note_off_c, 11, 54, 80
3, 136320, Note_off_c, 11, 47, 80
3, 136320, Note_on_c, 11, 71, 79
3, 136320, Note_on_c, 11, 66, 79
3, 136320, Note_on_c, 11, 63, 95
3, 136320, Note_on_c, 11, 59, 95
3, 136320, Note_on_c, 11, 54, 95
3, 136320, Note_on_c, 11, 47, 95
3, 136800, Note_off_c, 11, 71, 80
3, 136800, Note_off_c, 11, 66, 80
3, 136800, Note_off_c, 11, 63, 80
3, 136800, Note_off_c, 11, 59, 80
3, 136800, Note_off_c, 11, 54, 80
3, 136800, Note_off_c, 11, 47, 80
3, 136800, Note_on_c, 11, 71, 79
3, 136800, Note_on_c, 11, 66, 79
3, 136800, Note_on_c, 11, 63, 95
3, 136800, Note_on_c, 11, 59, 95
3, 136800, Note_on_c, 11, 54, 95
3, 136800, Note_on_c, 11, 47, 95
3, 137040, Note_off_c, 11, 71, 80
3, 137040, Note_off_c, 11, 66, 80
3, 137040, Note_off_c, 11, 63, 80
3, 137040, Note_off_c, 11, 59, 80
3, 137040, Note_off_c, 11, 54, 80
3, 137040, Note_off_c, 11, 47, 80
3, 137040, Note_on_c, 11, 71, 79
3, 137040, Note_on_c, 11, 66, 79
3, 137040, Note_on_c, 11, 63, 95
3, 137040, Note_on_c, 11, 59, 95
3, 137040, Note_on_c, 11, 54, 95
3, 137040, Note_on_c, 11, 47, 95
3, 137280, Note_off_c, 11, 71, 80
3, 137280, Note_off_c, 11, 66, 80
3, 137280, Note_off_c, 11, 63, 80
3, 137280, Note_off_c, 11, 59, 80
3, 137280, Note_off_c, 11, 54, 80
3, 137280, Note_off_c, 11, 47, 80
3, 137280, Note_on_c, 11, 71, 79
3, 137280, Note_on_c, 11, 66, 79
3, 137280, Note_on_c, 11, 63, 95
3, 137280, Note_on_c, 11, 59, 95
3, 137280, Note_on_c, 11, 54, 95
3, 137280, Note_on_c, 11, 47, 95
3, 137520, Note_off_c, 11, 71, 80
3, 137520, Note_off_c, 11, 66, 80
3, 137520, Note_off_c, 11, 63, 80
3, 137520, Note_off_c, 11, 59, 80
3, 137520, Note_off_c, 11, 54, 80
3, 137520, Note_off_c, 11, 47, 80
3, 137520, Note_on_c, 11, 71, 79
3, 137520, Note_on_c, 11, 66, 79
3, 137520, Note_on_c, 11, 63, 95
3, 137520, Note_on_c, 11, 59, 95
3, 137520, Note_on_c, 11, 54, 95
3, 137520, Note_on_c, 11, 47, 95
3, 137760, Note_off_c, 11, 71, 80
3, 137760, Note_off_c, 11, 66, 80
3, 137760, Note_off_c, 11, 63, 80
3, 137760, Note_off_c, 11, 59, 80
3, 137760, Note_off_c, 11, 54, 80
3, 137760, Note_off_c, 11, 47, 80
3, 137760, Note_on_c, 11, 71, 79
3, 137760, Note_on_c, 11, 66, 79
3, 137760, Note_on_c, 11, 63, 95
3, 137760, Note_on_c, 11, 59, 95
3, 137760, Note_on_c, 11, 54, 95
3, 137760, Note_on_c, 11, 47, 95
3, 138000, Note_off_c, 11, 71, 80
3, 138000, Note_off_c, 11, 66, 80
3, 138000, Note_off_c, 11, 63, 80
3, 138000, Note_off_c, 11, 59, 80
3, 138000, Note_off_c, 11, 54, 80
3, 138000, Note_off_c, 11, 47, 80
3, 138000, Note_on_c, 11, 64, 95
3, 138000, Note_on_c, 11, 59, 95
3, 138000, Note_on_c, 11, 52, 95
3, 138120, Note_off_c, 11, 64, 80
3, 138120, Note_off_c, 11, 59, 80
3, 138120, Note_off_c, 11, 52, 80
3, 138120, Note_on_c, 11, 64, 95
3, 138120, Note_on_c, 11, 59, 95
3, 138120, Note_on_c, 11, 52, 95
3, 138240, Note_off_c, 11, 64, 80
3, 138240, Note_off_c, 11, 59, 80
3, 138240, Note_off_c, 11, 52, 80
3, 138240, Note_on_c, 11, 71, 95
3, 138240, Note_on_c, 11, 68, 95
3, 138240, Note_on_c, 11, 64, 95
3, 138240, Note_on_c, 11, 59, 95
3, 138240, Note_on_c, 11, 52, 95
3, 138720, Note_off_c, 11, 71, 80
3, 138720, Note_off_c, 11, 68, 80
3, 138720, Note_off_c, 11, 64, 80
3, 138720, Note_off_c, 11, 59, 80
3, 138720, Note_off_c, 11, 52, 80
3, 138720, Note_on_c, 11, 71, 95
3, 138720, Note_on_c, 11, 68, 95
3, 138720, Note_on_c, 11, 64, 95
3, 138720, Note_on_c, 11, 59, 95
3, 138720, Note_on_c, 11, 52, 95
3, 138960, Note_off_c, 11, 71, 80
3, 138960, Note_off_c, 11, 68, 80
3, 138960, Note_off_c, 11, 64, 80
3, 138960, Note_off_c, 11, 59, 80
3, 138960, Note_off_c, 11, 52, 80
3, 138960, Note_on_c, 11, 71, 95
3, 138960, Note_on_c, 11, 68, 95
3, 138960, Note_on_c, 11, 64, 95
3, 138960, Note_on_c, 11, 59, 95
3, 138960, Note_on_c, 11, 52, 95
3, 139200, Note_off_c, 11, 71, 80
3, 139200, Note_off_c, 11, 68, 80
3, 139200, Note_off_c, 11, 64, 80
3, 139200, Note_off_c, 11, 59, 80
3, 139200, Note_off_c, 11, 52, 80
3, 139200, Note_on_c, 11, 71, 95
3, 139200, Note_on_c, 11, 68, 95
3, 139200, Note_on_c, 11, 64, 95
3, 139200, Note_on_c, 11, 59, 95
3, 139200, Note_on_c, 11, 52, 95
3, 139440, Note_off_c, 11, 71, 80
3, 139440, Note_off_c, 11, 68, 80
3, 139440, Note_off_c, 11, 64, 80
3, 139440, Note_off_c, 11, 59, 80
3, 139440, Note_off_c, 11, 52, 80
3, 139440, Note_on_c, 11, 71, 95
3, 139440, Note_on_c, 11, 68, 95
3, 139440, Note_on_c, 11, 64, 95
3, 139440, Note_on_c, 11, 59, 95
3, 139440, Note_on_c, 11, 52, 95
3, 139680, Note_off_c, 11, 71, 80
3, 139680, Note_off_c, 11, 68, 80
3, 139680, Note_off_c, 11, 64, 80
3, 139680, Note_off_c, 11, 59, 80
3, 139680, Note_off_c, 11, 52, 80
3, 139680, Note_on_c, 11, 71, 95
3, 139680, Note_on_c, 11, 68, 95
3, 139680, Note_on_c, 11, 64, 95
3, 139680, Note_on_c, 11, 59, 95
3, 139680, Note_on_c, 11, 52, 95
3, 139920, Note_off_c, 11, 71, 80
3, 139920, Note_off_c, 11, 68, 80
3, 139920, Note_off_c, 11, 64, 80
3, 139920, Note_off_c, 11, 59, 80
3, 139920, Note_off_c, 11, 52, 80
3, 139920, Note_on_c, 11, 71, 95
3, 139920, Note_on_c, 11, 68, 95
3, 139920, Note_on_c, 11, 64, 95
3, 139920, Note_on_c, 11, 59, 95
3, 139920, Note_on_c, 11, 52, 95
3, 140160, Note_off_c, 11, 71, 80
3, 140160, Note_off_c, 11, 68, 80
3, 140160, Note_off_c, 11, 64, 80
3, 140160, Note_off_c, 11, 59, 80
3, 140160, Note_off_c, 11, 52, 80
3, 140400, Note_on_c, 11, 68, 79
3, 140400, Note_on_c, 11, 63, 79
3, 140400, Note_on_c, 11, 60, 95
3, 140400, Note_on_c, 11, 56, 95
3, 140400, Note_on_c, 11, 51, 95
3, 140400, Note_on_c, 11, 44, 95
3, 140640, Note_off_c, 11, 68, 80
3, 140640, Note_off_c, 11, 63, 80
3, 140640, Note_off_c, 11, 60, 80
3, 140640, Note_off_c, 11, 56, 80
3, 140640, Note_off_c, 11, 51, 80
3, 140640, Note_off_c, 11, 44, 80
3, 140640, Note_on_c, 11, 68, 79
3, 140640, Note_on_c, 11, 63, 79
3, 140640, Note_on_c, 11, 60, 95
3, 140640, Note_on_c, 11, 56, 95
3, 140640, Note_on_c, 11, 51, 95
3, 140640, Note_on_c, 11, 44, 95
3, 140880, Note_off_c, 11, 68, 80
3, 140880, Note_off_c, 11, 63, 80
3, 140880, Note_off_c, 11, 60, 80
3, 140880, Note_off_c, 11, 56, 80
3, 140880, Note_off_c, 11, 51, 80
3, 140880, Note_off_c, 11, 44, 80
3, 140880, Note_on_c, 11, 68, 79
3, 140880, Note_on_c, 11, 63, 79
3, 140880, Note_on_c, 11, 60, 95
3, 140880, Note_on_c, 11, 56, 95
3, 140880, Note_on_c, 11, 51, 95
3, 140880, Note_on_c, 11, 44, 95
3, 141120, Note_off_c, 11, 68, 80
3, 141120, Note_off_c, 11, 63, 80
3, 141120, Note_off_c, 11, 60, 80
3, 141120, Note_off_c, 11, 56, 80
3, 141120, Note_off_c, 11, 51, 80
3, 141120, Note_off_c, 11, 44, 80
3, 141120, Note_on_c, 11, 68, 79
3, 141120, Note_on_c, 11, 63, 79
3, 141120, Note_on_c, 11, 60, 95
3, 141120, Note_on_c, 11, 56, 95
3, 141120, Note_on_c, 11, 51, 95
3, 141120, Note_on_c, 11, 44, 95
3, 141360, Note_off_c, 11, 68, 80
3, 141360, Note_off_c, 11, 63, 80
3, 141360, Note_off_c, 11, 60, 80
3, 141360, Note_off_c, 11, 56, 80
3, 141360, Note_off_c, 11, 51, 80
3, 141360, Note_off_c, 11, 44, 80
3, 141360, Note_on_c, 11, 68, 79
3, 141360, Note_on_c, 11, 63, 79
3, 141360, Note_on_c, 11, 60, 95
3, 141360, Note_on_c, 11, 56, 95
3, 141360, Note_on_c, 11, 51, 95
3, 141360, Note_on_c, 11, 44, 95
3, 141600, Note_off_c, 11, 68, 80
3, 141600, Note_off_c, 11, 63, 80
3, 141600, Note_off_c, 11, 60, 80
3, 141600, Note_off_c, 11, 56, 80
3, 141600, Note_off_c, 11, 51, 80
3, 141600, Note_off_c, 11, 44, 80
3, 141600, Note_on_c, 11, 68, 79
3, 141600, Note_on_c, 11, 63, 79
3, 141600, Note_on_c, 11, 60, 95
3, 141600, Note_on_c, 11, 56, 95
3, 141600, Note_on_c, 11, 51, 95
3, 141600, Note_on_c, 11, 44, 95
3, 141840, Note_off_c, 11, 68, 80
3, 141840, Note_off_c, 11, 63, 80
3, 141840, Note_off_c, 11, 60, 80
3, 141840, Note_off_c, 11, 56, 80
3, 141840, Note_off_c, 11, 51, 80
3, 141840, Note_off_c, 11, 44, 80
3, 141840, Note_on_c, 11, 68, 79
3, 141840, Note_on_c, 11, 63, 79
3, 141840, Note_on_c, 11, 60, 95
3, 141840, Note_on_c, 11, 56, 95
3, 141840, Note_on_c, 11, 51, 95
3, 141840, Note_on_c, 11, 44, 95
3, 142080, Note_off_c, 11, 68, 80
3, 142080, Note_off_c, 11, 63, 80
3, 142080, Note_off_c, 11, 60, 80
3, 142080, Note_off_c, 11, 56, 80
3, 142080, Note_off_c, 11, 51, 80
3, 142080, Note_off_c, 11, 44, 80
3, 142080, Note_on_c, 11, 71, 79
3, 142080, Note_on_c, 11, 68, 79
3, 142080, Note_on_c, 11, 64, 95
3, 142080, Note_on_c, 11, 59, 95
3, 142080, Note_on_c, 11, 52, 95
3, 142560, Note_off_c, 11, 71, 80
3, 142560, Note_off_c, 11, 68, 80
3, 142560, Note_off_c, 11, 64, 80
3, 142560, Note_off_c, 11, 59, 80
3, 142560, Note_off_c, 11, 52, 80
3, 142560, Note_on_c, 11, 71, 79
3, 142560, Note_on_c, 11, 68, 79
3, 142560, Note_on_c, 11, 64, 95
3, 142560, Note_on_c, 11, 59, 95
3, 142560, Note_on_c, 11, 52, 95
3, 142800, Note_off_c, 11, 71, 80
3, 142800, Note_off_c, 11, 68, 80
3, 142800, Note_off_c, 11, 64, 80
3, 142800, Note_off_c, 11, 59, 80
3, 142800, Note_off_c, 11, 52, 80
3, 142800, Note_on_c, 11, 71, 79
3, 142800, Note_on_c, 11, 68, 79
3, 142800, Note_on_c, 11, 64, 95
3, 142800, Note_on_c, 11, 59, 95
3, 142800, Note_on_c, 11, 52, 95
3, 143040, Note_off_c, 11, 71, 80
3, 143040, Note_off_c, 11, 68, 80
3, 143040, Note_off_c, 11, 64, 80
3, 143040, Note_off_c, 11, 59, 80
3, 143040, Note_off_c, 11, 52, 80
3, 143040, Note_on_c, 11, 71, 79
3, 143040, Note_on_c, 11, 68, 79
3, 143040, Note_on_c, 11, 64, 95
3, 143040, Note_on_c, 11, 59, 95
3, 143040, Note_on_c, 11, 52, 95
3, 143280, Note_off_c, 11, 71, 80
3, 143280, Note_off_c, 11, 68, 80
3, 143280, Note_off_c, 11, 64, 80
3, 143280, Note_off_c, 11, 59, 80
3, 143280, Note_off_c, 11, 52, 80
3, 143280, Note_on_c, 11, 71, 79
3, 143280, Note_on_c, 11, 68, 79
3, 143280, Note_on_c, 11, 64, 95
3, 143280, Note_on_c, 11, 59, 95
3, 143280, Note_on_c, 11, 52, 95
3, 143520, Note_off_c, 11, 71, 80
3, 143520, Note_off_c, 11, 68, 80
3, 143520, Note_off_c, 11, 64, 80
3, 143520, Note_off_c, 11, 59, 80
3, 143520, Note_off_c, 11, 52, 80
3, 143520, Note_on_c, 11, 71, 79
3, 143520, Note_on_c, 11, 68, 79
3, 143520, Note_on_c, 11, 64, 95
3, 143520, Note_on_c, 11, 59, 95
3, 143520, Note_on_c, 11, 52, 95
3, 143760, Note_off_c, 11, 71, 80
3, 143760, Note_off_c, 11, 68, 80
3, 143760, Note_off_c, 11, 64, 80
3, 143760, Note_off_c, 11, 59, 80
3, 143760, Note_off_c, 11, 52, 80
3, 143760, Note_on_c, 11, 60, 95
3, 143760, Note_on_c, 11, 56, 95
3, 143760, Note_on_c, 11, 51, 95
3, 143760, Note_on_c, 11, 44, 95
3, 143880, Note_off_c, 11, 60, 80
3, 143880, Note_off_c, 11, 56, 80
3, 143880, Note_off_c, 11, 51, 80
3, 143880, Note_off_c, 11, 44, 80
3, 143880, Note_on_c, 11, 60, 95
3, 143880, Note_on_c, 11, 56, 95
3, 143880, Note_on_c, 11, 51, 95
3, 143880, Note_on_c, 11, 44, 95
3, 144000, Note_off_c, 11, 60, 80
3, 144000, Note_off_c, 11, 56, 80
3, 144000, Note_off_c, 11, 51, 80
3, 144000, Note_off_c, 11, 44, 80
3, 144000, Note_on_c, 11, 68, 79
3, 144000, Note_on_c, 11, 63, 79
3, 144000, Note_on_c, 11, 60, 95
3, 144000, Note_on_c, 11, 56, 95
3, 144000, Note_on_c, 11, 51, 95
3, 144000, Note_on_c, 11, 44, 95
3, 144480, Note_off_c, 11, 68, 80
3, 144480, Note_off_c, 11, 63, 80
3, 144480, Note_off_c, 11, 60, 80
3, 144480, Note_off_c, 11, 56, 80
3, 144480, Note_off_c, 11, 51, 80
3, 144480, Note_off_c, 11, 44, 80
3, 144480, Note_on_c, 11, 68, 79
3, 144480, Note_on_c, 11, 63, 79
3, 144480, Note_on_c, 11, 60, 95
3, 144480, Note_on_c, 11, 56, 95
3, 144480, Note_on_c, 11, 51, 95
3, 144480, Note_on_c, 11, 44, 95
3, 144720, Note_off_c, 11, 68, 80
3, 144720, Note_off_c, 11, 63, 80
3, 144720, Note_off_c, 11, 60, 80
3, 144720, Note_off_c, 11, 56, 80
3, 144720, Note_off_c, 11, 51, 80
3, 144720, Note_off_c, 11, 44, 80
3, 144720, Note_on_c, 11, 68, 79
3, 144720, Note_on_c, 11, 63, 79
3, 144720, Note_on_c, 11, 60, 95
3, 144720, Note_on_c, 11, 56, 95
3, 144720, Note_on_c, 11, 51, 95
3, 144720, Note_on_c, 11, 44, 95
3, 144960, Note_off_c, 11, 68, 80
3, 144960, Note_off_c, 11, 63, 80
3, 144960, Note_off_c, 11, 60, 80
3, 144960, Note_off_c, 11, 56, 80
3, 144960, Note_off_c, 11, 51, 80
3, 144960, Note_off_c, 11, 44, 80
3, 144960, Note_on_c, 11, 68, 79
3, 144960, Note_on_c, 11, 63, 79
3, 144960, Note_on_c, 11, 60, 95
3, 144960, Note_on_c, 11, 56, 95
3, 144960, Note_on_c, 11, 51, 95
3, 144960, Note_on_c, 11, 44, 95
3, 145200, Note_off_c, 11, 68, 80
3, 145200, Note_off_c, 11, 63, 80
3, 145200, Note_off_c, 11, 60, 80
3, 145200, Note_off_c, 11, 56, 80
3, 145200, Note_off_c, 11, 51, 80
3, 145200, Note_off_c, 11, 44, 80
3, 145200, Note_on_c, 11, 68, 79
3, 145200, Note_on_c, 11, 63, 79
3, 145200, Note_on_c, 11, 60, 95
3, 145200, Note_on_c, 11, 56, 95
3, 145200, Note_on_c, 11, 51, 95
3, 145200, Note_on_c, 11, 44, 95
3, 145440, Note_off_c, 11, 68, 80
3, 145440, Note_off_c, 11, 63, 80
3, 145440, Note_off_c, 11, 60, 80
3, 145440, Note_off_c, 11, 56, 80
3, 145440, Note_off_c, 11, 51, 80
3, 145440, Note_off_c, 11, 44, 80
3, 145440, Note_on_c, 11, 68, 79
3, 145440, Note_on_c, 11, 63, 79
3, 145440, Note_on_c, 11, 60, 95
3, 145440, Note_on_c, 11, 56, 95
3, 145440, Note_on_c, 11, 51, 95
3, 145440, Note_on_c, 11, 44, 95
3, 145680, Note_off_c, 11, 68, 80
3, 145680, Note_off_c, 11, 63, 80
3, 145680, Note_off_c, 11, 60, 80
3, 145680, Note_off_c, 11, 56, 80
3, 145680, Note_off_c, 11, 51, 80
3, 145680, Note_off_c, 11, 44, 80
3, 145680, Note_on_c, 11, 63, 95
3, 145680, Note_on_c, 11, 59, 95
3, 145680, Note_on_c, 11, 54, 95
3, 145680, Note_on_c, 11, 47, 95
3, 145800, Note_off_c, 11, 63, 80
3, 145800, Note_off_c, 11, 59, 80
3, 145800, Note_off_c, 11, 54, 80
3, 145800, Note_off_c, 11, 47, 80
3, 145800, Note_on_c, 11, 63, 95
3, 145800, Note_on_c, 11, 59, 95
3, 145800, Note_on_c, 11, 54, 95
3, 145800, Note_on_c, 11, 47, 95
3, 145920, Note_off_c, 11, 63, 80
3, 145920, Note_off_c, 11, 59, 80
3, 145920, Note_off_c, 11, 54, 80
3, 145920, Note_off_c, 11, 47, 80
3, 145920, Note_on_c, 11, 71, 79
3, 145920, Note_on_c, 11, 66, 79
3, 145920, Note_on_c, 11, 63, 95
3, 145920, Note_on_c, 11, 59, 95
3, 145920, Note_on_c, 11, 54, 95
3, 145920, Note_on_c, 11, 47, 95
3, 146400, Note_off_c, 11, 71, 80
3, 146400, Note_off_c, 11, 66, 80
3, 146400, Note_off_c, 11, 63, 80
3, 146400, Note_off_c, 11, 59, 80
3, 146400, Note_off_c, 11, 54, 80
3, 146400, Note_off_c, 11, 47, 80
3, 146400, Note_on_c, 11, 71, 79
3, 146400, Note_on_c, 11, 66, 79
3, 146400, Note_on_c, 11, 63, 95
3, 146400, Note_on_c, 11, 59, 95
3, 146400, Note_on_c, 11, 54, 95
3, 146400, Note_on_c, 11, 47, 95
3, 146640, Note_off_c, 11, 71, 80
3, 146640, Note_off_c, 11, 66, 80
3, 146640, Note_off_c, 11, 63, 80
3, 146640, Note_off_c, 11, 59, 80
3, 146640, Note_off_c, 11, 54, 80
3, 146640, Note_off_c, 11, 47, 80
3, 146640, Note_on_c, 11, 71, 79
3, 146640, Note_on_c, 11, 66, 79
3, 146640, Note_on_c, 11, 63, 95
3, 146640, Note_on_c, 11, 59, 95
3, 146640, Note_on_c, 11, 54, 95
3, 146640, Note_on_c, 11, 47, 95
3, 146880, Note_off_c, 11, 71, 80
3, 146880, Note_off_c, 11, 66, 80
3, 146880, Note_off_c, 11, 63, 80
3, 146880, Note_off_c, 11, 59, 80
3, 146880, Note_off_c, 11, 54, 80
3, 146880, Note_off_c, 11, 47, 80
3, 146880, Note_on_c, 11, 71, 79
3, 146880, Note_on_c, 11, 66, 79
3, 146880, Note_on_c, 11, 63, 95
3, 146880, Note_on_c, 11, 59, 95
3, 146880, Note_on_c, 11, 54, 95
3, 146880, Note_on_c, 11, 47, 95
3, 147120, Note_off_c, 11, 71, 80
3, 147120, Note_off_c, 11, 66, 80
3, 147120, Note_off_c, 11, 63, 80
3, 147120, Note_off_c, 11, 59, 80
3, 147120, Note_off_c, 11, 54, 80
3, 147120, Note_off_c, 11, 47, 80
3, 147120, Note_on_c, 11, 71, 79
3, 147120, Note_on_c, 11, 66, 79
3, 147120, Note_on_c, 11, 63, 95
3, 147120, Note_on_c, 11, 59, 95
3, 147120, Note_on_c, 11, 54, 95
3, 147120, Note_on_c, 11, 47, 95
3, 147360, Note_off_c, 11, 71, 80
3, 147360, Note_off_c, 11, 66, 80
3, 147360, Note_off_c, 11, 63, 80
3, 147360, Note_off_c, 11, 59, 80
3, 147360, Note_off_c, 11, 54, 80
3, 147360, Note_off_c, 11, 47, 80
3, 147360, Note_on_c, 11, 71, 79
3, 147360, Note_on_c, 11, 66, 79
3, 147360, Note_on_c, 11, 63, 95
3, 147360, Note_on_c, 11, 59, 95
3, 147360, Note_on_c, 11, 54, 95
3, 147360, Note_on_c, 11, 47, 95
3, 147600, Note_off_c, 11, 71, 80
3, 147600, Note_off_c, 11, 66, 80
3, 147600, Note_off_c, 11, 63, 80
3, 147600, Note_off_c, 11, 59, 80
3, 147600, Note_off_c, 11, 54, 80
3, 147600, Note_off_c, 11, 47, 80
3, 147600, Note_on_c, 11, 64, 95
3, 147600, Note_on_c, 11, 59, 95
3, 147600, Note_on_c, 11, 52, 95
3, 147720, Note_off_c, 11, 64, 80
3, 147720, Note_off_c, 11, 59, 80
3, 147720, Note_off_c, 11, 52, 80
3, 147720, Note_on_c, 11, 64, 95
3, 147720, Note_on_c, 11, 59, 95
3, 147720, Note_on_c, 11, 52, 95
3, 147840, Note_off_c, 11, 64, 80
3, 147840, Note_off_c, 11, 59, 80
3, 147840, Note_off_c, 11, 52, 80
3, 147840, Note_on_c, 11, 71, 95
3, 147840, Note_on_c, 11, 68, 95
3, 147840, Note_on_c, 11, 64, 95
3, 147840, Note_on_c, 11, 59, 95
3, 147840, Note_on_c, 11, 52, 95
3, 148320, Note_off_c, 11, 71, 80
3, 148320, Note_off_c, 11, 68, 80
3, 148320, Note_off_c, 11, 64, 80
3, 148320, Note_off_c, 11, 59, 80
3, 148320, Note_off_c, 11, 52, 80
3, 148320, Note_on_c, 11, 71, 95
3, 148320, Note_on_c, 11, 68, 95
3, 148320, Note_on_c, 11, 64, 95
3, 148320, Note_on_c, 11, 59, 95
3, 148320, Note_on_c, 11, 52, 95
3, 148560, Note_off_c, 11, 71, 80
3, 148560, Note_off_c, 11, 68, 80
3, 148560, Note_off_c, 11, 64, 80
3, 148560, Note_off_c, 11, 59, 80
3, 148560, Note_off_c, 11, 52, 80
3, 148560, Note_on_c, 11, 71, 95
3, 148560, Note_on_c, 11, 68, 95
3, 148560, Note_on_c, 11, 64, 95
3, 148560, Note_on_c, 11, 59, 95
3, 148560, Note_on_c, 11, 52, 95
3, 148800, Note_off_c, 11, 71, 80
3, 148800, Note_off_c, 11, 68, 80
3, 148800, Note_off_c, 11, 64, 80
3, 148800, Note_off_c, 11, 59, 80
3, 148800, Note_off_c, 11, 52, 80
3, 148800, Note_on_c, 11, 71, 95
3, 148800, Note_on_c, 11, 68, 95
3, 148800, Note_on_c, 11, 64, 95
3, 148800, Note_on_c, 11, 59, 95
3, 148800, Note_on_c, 11, 52, 95
3, 149040, Note_off_c, 11, 71, 80
3, 149040, Note_off_c, 11, 68, 80
3, 149040, Note_off_c, 11, 64, 80
3, 149040, Note_off_c, 11, 59, 80
3, 149040, Note_off_c, 11, 52, 80
3, 149040, Note_on_c, 11, 71, 95
3, 149040, Note_on_c, 11, 68, 95
3, 149040, Note_on_c, 11, 64, 95
3, 149040, Note_on_c, 11, 59, 95
3, 149040, Note_on_c, 11, 52, 95
3, 149280, Note_off_c, 11, 71, 80
3, 149280, Note_off_c, 11, 68, 80
3, 149280, Note_off_c, 11, 64, 80
3, 149280, Note_off_c, 11, 59, 80
3, 149280, Note_off_c, 11, 52, 80
3, 149280, Note_on_c, 11, 71, 95
3, 149280, Note_on_c, 11, 68, 95
3, 149280, Note_on_c, 11, 64, 95
3, 149280, Note_on_c, 11, 59, 95
3, 149280, Note_on_c, 11, 52, 95
3, 149520, Note_off_c, 11, 71, 80
3, 149520, Note_off_c, 11, 68, 80
3, 149520, Note_off_c, 11, 64, 80
3, 149520, Note_off_c, 11, 59, 80
3, 149520, Note_off_c, 11, 52, 80
3, 149520, Note_on_c, 11, 71, 95
3, 149520, Note_on_c, 11, 68, 95
3, 149520, Note_on_c, 11, 64, 95
3, 149520, Note_on_c, 11, 59, 95
3, 149520, Note_on_c, 11, 52, 95
3, 149760, Note_off_c, 11, 71, 80
3, 149760, Note_off_c, 11, 68, 80
3, 149760, Note_off_c, 11, 64, 80
3, 149760, Note_off_c, 11, 59, 80
3, 149760, Note_off_c, 11, 52, 80
3, 150000, Note_on_c, 11, 68, 79
3, 150000, Note_on_c, 11, 63, 79
3, 150000, Note_on_c, 11, 60, 95
3, 150000, Note_on_c, 11, 56, 95
3, 150000, Note_on_c, 11, 51, 95
3, 150000, Note_on_c, 11, 44, 95
3, 150240, Note_off_c, 11, 68, 80
3, 150240, Note_off_c, 11, 63, 80
3, 150240, Note_off_c, 11, 60, 80
3, 150240, Note_off_c, 11, 56, 80
3, 150240, Note_off_c, 11, 51, 80
3, 150240, Note_off_c, 11, 44, 80
3, 150240, Note_on_c, 11, 68, 79
3, 150240, Note_on_c, 11, 63, 79
3, 150240, Note_on_c, 11, 60, 95
3, 150240, Note_on_c, 11, 56, 95
3, 150240, Note_on_c, 11, 51, 95
3, 150240, Note_on_c, 11, 44, 95
3, 150480, Note_off_c, 11, 68, 80
3, 150480, Note_off_c, 11, 63, 80
3, 150480, Note_off_c, 11, 60, 80
3, 150480, Note_off_c, 11, 56, 80
3, 150480, Note_off_c, 11, 51, 80
3, 150480, Note_off_c, 11, 44, 80
3, 150480, Note_on_c, 11, 68, 79
3, 150480, Note_on_c, 11, 63, 79
3, 150480, Note_on_c, 11, 60, 95
3, 150480, Note_on_c, 11, 56, 95
3, 150480, Note_on_c, 11, 51, 95
3, 150480, Note_on_c, 11, 44, 95
3, 150720, Note_off_c, 11, 68, 80
3, 150720, Note_off_c, 11, 63, 80
3, 150720, Note_off_c, 11, 60, 80
3, 150720, Note_off_c, 11, 56, 80
3, 150720, Note_off_c, 11, 51, 80
3, 150720, Note_off_c, 11, 44, 80
3, 150720, Note_on_c, 11, 68, 79
3, 150720, Note_on_c, 11, 63, 79
3, 150720, Note_on_c, 11, 60, 95
3, 150720, Note_on_c, 11, 56, 95
3, 150720, Note_on_c, 11, 51, 95
3, 150720, Note_on_c, 11, 44, 95
3, 150960, Note_off_c, 11, 68, 80
3, 150960, Note_off_c, 11, 63, 80
3, 150960, Note_off_c, 11, 60, 80
3, 150960, Note_off_c, 11, 56, 80
3, 150960, Note_off_c, 11, 51, 80
3, 150960, Note_off_c, 11, 44, 80
3, 150960, Note_on_c, 11, 68, 79
3, 150960, Note_on_c, 11, 63, 79
3, 150960, Note_on_c, 11, 60, 95
3, 150960, Note_on_c, 11, 56, 95
3, 150960, Note_on_c, 11, 51, 95
3, 150960, Note_on_c, 11, 44, 95
3, 151200, Note_off_c, 11, 68, 80
3, 151200, Note_off_c, 11, 63, 80
3, 151200, Note_off_c, 11, 60, 80
3, 151200, Note_off_c, 11, 56, 80
3, 151200, Note_off_c, 11, 51, 80
3, 151200, Note_off_c, 11, 44, 80
3, 151200, Note_on_c, 11, 68, 79
3, 151200, Note_on_c, 11, 63, 79
3, 151200, Note_on_c, 11, 60, 95
3, 151200, Note_on_c, 11, 56, 95
3, 151200, Note_on_c, 11, 51, 95
3, 151200, Note_on_c, 11, 44, 95
3, 151440, Note_off_c, 11, 68, 80
3, 151440, Note_off_c, 11, 63, 80
3, 151440, Note_off_c, 11, 60, 80
3, 151440, Note_off_c, 11, 56, 80
3, 151440, Note_off_c, 11, 51, 80
3, 151440, Note_off_c, 11, 44, 80
3, 151440, Note_on_c, 11, 68, 79
3, 151440, Note_on_c, 11, 63, 79
3, 151440, Note_on_c, 11, 60, 95
3, 151440, Note_on_c, 11, 56, 95
3, 151440, Note_on_c, 11, 51, 95
3, 151440, Note_on_c, 11, 44, 95
3, 151680, Note_off_c, 11, 68, 80
3, 151680, Note_off_c, 11, 63, 80
3, 151680, Note_off_c, 11, 60, 80
3, 151680, Note_off_c, 11, 56, 80
3, 151680, Note_off_c, 11, 51, 80
3, 151680, Note_off_c, 11, 44, 80
3, 151680, Note_on_c, 11, 71, 79
3, 151680, Note_on_c, 11, 68, 79
3, 151680, Note_on_c, 11, 64, 95
3, 151680, Note_on_c, 11, 59, 95
3, 151680, Note_on_c, 11, 52, 95
3, 152160, Note_off_c, 11, 71, 80
3, 152160, Note_off_c, 11, 68, 80
3, 152160, Note_off_c, 11, 64, 80
3, 152160, Note_off_c, 11, 59, 80
3, 152160, Note_off_c, 11, 52, 80
3, 152160, Note_on_c, 11, 71, 79
3, 152160, Note_on_c, 11, 68, 79
3, 152160, Note_on_c, 11, 64, 95
3, 152160, Note_on_c, 11, 59, 95
3, 152160, Note_on_c, 11, 52, 95
3, 152400, Note_off_c, 11, 71, 80
3, 152400, Note_off_c, 11, 68, 80
3, 152400, Note_off_c, 11, 64, 80
3, 152400, Note_off_c, 11, 59, 80
3, 152400, Note_off_c, 11, 52, 80
3, 152400, Note_on_c, 11, 71, 79
3, 152400, Note_on_c, 11, 68, 79
3, 152400, Note_on_c, 11, 64, 95
3, 152400, Note_on_c, 11, 59, 95
3, 152400, Note_on_c, 11, 52, 95
3, 152640, Note_off_c, 11, 71, 80
3, 152640, Note_off_c, 11, 68, 80
3, 152640, Note_off_c, 11, 64, 80
3, 152640, Note_off_c, 11, 59, 80
3, 152640, Note_off_c, 11, 52, 80
3, 152640, Note_on_c, 11, 71, 79
3, 152640, Note_on_c, 11, 68, 79
3, 152640, Note_on_c, 11, 64, 95
3, 152640, Note_on_c, 11, 59, 95
3, 152640, Note_on_c, 11, 52, 95
3, 152880, Note_off_c, 11, 71, 80
3, 152880, Note_off_c, 11, 68, 80
3, 152880, Note_off_c, 11, 64, 80
3, 152880, Note_off_c, 11, 59, 80
3, 152880, Note_off_c, 11, 52, 80
3, 152880, Note_on_c, 11, 71, 79
3, 152880, Note_on_c, 11, 68, 79
3, 152880, Note_on_c, 11, 64, 95
3, 152880, Note_on_c, 11, 59, 95
3, 152880, Note_on_c, 11, 52, 95
3, 153120, Note_off_c, 11, 71, 80
3, 153120, Note_off_c, 11, 68, 80
3, 153120, Note_off_c, 11, 64, 80
3, 153120, Note_off_c, 11, 59, 80
3, 153120, Note_off_c, 11, 52, 80
3, 153120, Note_on_c, 11, 71, 79
3, 153120, Note_on_c, 11, 68, 79
3, 153120, Note_on_c, 11, 64, 95
3, 153120, Note_on_c, 11, 59, 95
3, 153120, Note_on_c, 11, 52, 95
3, 153360, Note_off_c, 11, 71, 80
3, 153360, Note_off_c, 11, 68, 80
3, 153360, Note_off_c, 11, 64, 80
3, 153360, Note_off_c, 11, 59, 80
3, 153360, Note_off_c, 11, 52, 80
3, 153360, Note_on_c, 11, 60, 95
3, 153360, Note_on_c, 11, 56, 95
3, 153360, Note_on_c, 11, 51, 95
3, 153360, Note_on_c, 11, 44, 95
3, 153480, Note_off_c, 11, 60, 80
3, 153480, Note_off_c, 11, 56, 80
3, 153480, Note_off_c, 11, 51, 80
3, 153480, Note_off_c, 11, 44, 80
3, 153480, Note_on_c, 11, 60, 95
3, 153480, Note_on_c, 11, 56, 95
3, 153480, Note_on_c, 11, 51, 95
3, 153480, Note_on_c, 11, 44, 95
3, 153600, Note_off_c, 11, 60, 80
3, 153600, Note_off_c, 11, 56, 80
3, 153600, Note_off_c, 11, 51, 80
3, 153600, Note_off_c, 11, 44, 80
3, 153600, Note_on_c, 11, 68, 79
3, 153600, Note_on_c, 11, 63, 79
3, 153600, Note_on_c, 11, 60, 95
3, 153600, Note_on_c, 11, 56, 95
3, 153600, Note_on_c, 11, 51, 95
3, 153600, Note_on_c, 11, 44, 95
3, 154080, Note_off_c, 11, 68, 80
3, 154080, Note_off_c, 11, 63, 80
3, 154080, Note_off_c, 11, 60, 80
3, 154080, Note_off_c, 11, 56, 80
3, 154080, Note_off_c, 11, 51, 80
3, 154080, Note_off_c, 11, 44, 80
3, 154080, Note_on_c, 11, 68, 79
3, 154080, Note_on_c, 11, 63, 79
3, 154080, Note_on_c, 11, 60, 95
3, 154080, Note_on_c, 11, 56, 95
3, 154080, Note_on_c, 11, 51, 95
3, 154080, Note_on_c, 11, 44, 95
3, 154320, Note_off_c, 11, 68, 80
3, 154320, Note_off_c, 11, 63, 80
3, 154320, Note_off_c, 11, 60, 80
3, 154320, Note_off_c, 11, 56, 80
3, 154320, Note_off_c, 11, 51, 80
3, 154320, Note_off_c, 11, 44, 80
3, 154320, Note_on_c, 11, 68, 79
3, 154320, Note_on_c, 11, 63, 79
3, 154320, Note_on_c, 11, 60, 95
3, 154320, Note_on_c, 11, 56, 95
3, 154320, Note_on_c, 11, 51, 95
3, 154320, Note_on_c, 11, 44, 95
3, 154560, Note_off_c, 11, 68, 80
3, 154560, Note_off_c, 11, 63, 80
3, 154560, Note_off_c, 11, 60, 80
3, 154560, Note_off_c, 11, 56, 80
3, 154560, Note_off_c, 11, 51, 80
3, 154560, Note_off_c, 11, 44, 80
3, 154560, Note_on_c, 11, 68, 79
3, 154560, Note_on_c, 11, 63, 79
3, 154560, Note_on_c, 11, 60, 95
3, 154560, Note_on_c, 11, 56, 95
3, 154560, Note_on_c, 11, 51, 95
3, 154560, Note_on_c, 11, 44, 95
3, 154800, Note_off_c, 11, 68, 80
3, 154800, Note_off_c, 11, 63, 80
3, 154800, Note_off_c, 11, 60, 80
3, 154800, Note_off_c, 11, 56, 80
3, 154800, Note_off_c, 11, 51, 80
3, 154800, Note_off_c, 11, 44, 80
3, 154800, Note_on_c, 11, 68, 79
3, 154800, Note_on_c, 11, 63, 79
3, 154800, Note_on_c, 11, 60, 95
3, 154800, Note_on_c, 11, 56, 95
3, 154800, Note_on_c, 11, 51, 95
3, 154800, Note_on_c, 11, 44, 95
3, 155040, Note_off_c, 11, 68, 80
3, 155040, Note_off_c, 11, 63, 80
3, 155040, Note_off_c, 11, 60, 80
3, 155040, Note_off_c, 11, 56, 80
3, 155040, Note_off_c, 11, 51, 80
3, 155040, Note_off_c, 11, 44, 80
3, 155040, Note_on_c, 11, 68, 79
3, 155040, Note_on_c, 11, 63, 79
3, 155040, Note_on_c, 11, 60, 95
3, 155040, Note_on_c, 11, 56, 95
3, 155040, Note_on_c, 11, 51, 95
3, 155040, Note_on_c, 11, 44, 95
3, 155280, Note_off_c, 11, 68, 80
3, 155280, Note_off_c, 11, 63, 80
3, 155280, Note_off_c, 11, 60, 80
3, 155280, Note_off_c, 11, 56, 80
3, 155280, Note_off_c, 11, 51, 80
3, 155280, Note_off_c, 11, 44, 80
3, 155280, Note_on_c, 11, 63, 95
3, 155280, Note_on_c, 11, 59, 95
3, 155280, Note_on_c, 11, 54, 95
3, 155280, Note_on_c, 11, 47, 95
3, 155400, Note_off_c, 11, 63, 80
3, 155400, Note_off_c, 11, 59, 80
3, 155400, Note_off_c, 11, 54, 80
3, 155400, Note_off_c, 11, 47, 80
3, 155400, Note_on_c, 11, 63, 95
3, 155400, Note_on_c, 11, 59, 95
3, 155400, Note_on_c, 11, 54, 95
3, 155400, Note_on_c, 11, 47, 95
3, 155520, Note_off_c, 11, 63, 80
3, 155520, Note_off_c, 11, 59, 80
3, 155520, Note_off_c, 11, 54, 80
3, 155520, Note_off_c, 11, 47, 80
3, 155520, Note_on_c, 11, 71, 79
3, 155520, Note_on_c, 11, 66, 79
3, 155520, Note_on_c, 11, 63, 95
3, 155520, Note_on_c, 11, 59, 95
3, 155520, Note_on_c, 11, 54, 95
3, 155520, Note_on_c, 11, 47, 95
3, 156000, Note_off_c, 11, 71, 80
3, 156000, Note_off_c, 11, 66, 80
3, 156000, Note_off_c, 11, 63, 80
3, 156000, Note_off_c, 11, 59, 80
3, 156000, Note_off_c, 11, 54, 80
3, 156000, Note_off_c, 11, 47, 80
3, 156000, Note_on_c, 11, 71, 79
3, 156000, Note_on_c, 11, 66, 79
3, 156000, Note_on_c, 11, 63, 95
3, 156000, Note_on_c, 11, 59, 95
3, 156000, Note_on_c, 11, 54, 95
3, 156000, Note_on_c, 11, 47, 95
3, 156240, Note_off_c, 11, 71, 80
3, 156240, Note_off_c, 11, 66, 80
3, 156240, Note_off_c, 11, 63, 80
3, 156240, Note_off_c, 11, 59, 80
3, 156240, Note_off_c, 11, 54, 80
3, 156240, Note_off_c, 11, 47, 80
3, 156240, Note_on_c, 11, 71, 79
3, 156240, Note_on_c, 11, 66, 79
3, 156240, Note_on_c, 11, 63, 95
3, 156240, Note_on_c, 11, 59, 95
3, 156240, Note_on_c, 11, 54, 95
3, 156240, Note_on_c, 11, 47, 95
3, 156480, Note_off_c, 11, 71, 80
3, 156480, Note_off_c, 11, 66, 80
3, 156480, Note_off_c, 11, 63, 80
3, 156480, Note_off_c, 11, 59, 80
3, 156480, Note_off_c, 11, 54, 80
3, 156480, Note_off_c, 11, 47, 80
3, 156480, Note_on_c, 11, 71, 79
3, 156480, Note_on_c, 11, 66, 79
3, 156480, Note_on_c, 11, 63, 95
3, 156480, Note_on_c, 11, 59, 95
3, 156480, Note_on_c, 11, 54, 95
3, 156480, Note_on_c, 11, 47, 95
3, 156720, Note_off_c, 11, 71, 80
3, 156720, Note_off_c, 11, 66, 80
3, 156720, Note_off_c, 11, 63, 80
3, 156720, Note_off_c, 11, 59, 80
3, 156720, Note_off_c, 11, 54, 80
3, 156720, Note_off_c, 11, 47, 80
3, 156720, Note_on_c, 11, 71, 79
3, 156720, Note_on_c, 11, 66, 79
3, 156720, Note_on_c, 11, 63, 95
3, 156720, Note_on_c, 11, 59, 95
3, 156720, Note_on_c, 11, 54, 95
3, 156720, Note_on_c, 11, 47, 95
3, 156960, Note_off_c, 11, 71, 80
3, 156960, Note_off_c, 11, 66, 80
3, 156960, Note_off_c, 11, 63, 80
3, 156960, Note_off_c, 11, 59, 80
3, 156960, Note_off_c, 11, 54, 80
3, 156960, Note_off_c, 11, 47, 80
3, 156960, Note_on_c, 11, 71, 79
3, 156960, Note_on_c, 11, 66, 79
3, 156960, Note_on_c, 11, 63, 95
3, 156960, Note_on_c, 11, 59, 95
3, 156960, Note_on_c, 11, 54, 95
3, 156960, Note_on_c, 11, 47, 95
3, 157200, Note_off_c, 11, 71, 80
3, 157200, Note_off_c, 11, 66, 80
3, 157200, Note_off_c, 11, 63, 80
3, 157200, Note_off_c, 11, 59, 80
3, 157200, Note_off_c, 11, 54, 80
3, 157200, Note_off_c, 11, 47, 80
3, 157200, Note_on_c, 11, 64, 95
3, 157200, Note_on_c, 11, 59, 95
3, 157200, Note_on_c, 11, 52, 95
3, 157320, Note_off_c, 11, 64, 80
3, 157320, Note_off_c, 11, 59, 80
3, 157320, Note_off_c, 11, 52, 80
3, 157320, Note_on_c, 11, 64, 95
3, 157320, Note_on_c, 11, 59, 95
3, 157320, Note_on_c, 11, 52, 95
3, 157440, Note_off_c, 11, 64, 80
3, 157440, Note_off_c, 11, 59, 80
3, 157440, Note_off_c, 11, 52, 80
3, 157440, Note_on_c, 11, 71, 95
3, 157440, Note_on_c, 11, 68, 95
3, 157440, Note_on_c, 11, 64, 95
3, 157440, Note_on_c, 11, 59, 95
3, 157440, Note_on_c, 11, 52, 95
3, 157920, Note_off_c, 11, 71, 80
3, 157920, Note_off_c, 11, 68, 80
3, 157920, Note_off_c, 11, 64, 80
3, 157920, Note_off_c, 11, 59, 80
3, 157920, Note_off_c, 11, 52, 80
3, 157920, Note_on_c, 11, 71, 95
3, 157920, Note_on_c, 11, 68, 95
3, 157920, Note_on_c, 11, 64, 95
3, 157920, Note_on_c, 11, 59, 95
3, 157920, Note_on_c, 11, 52, 95
3, 158160, Note_off_c, 11, 71, 80
3, 158160, Note_off_c, 11, 68, 80
3, 158160, Note_off_c, 11, 64, 80
3, 158160, Note_off_c, 11, 59, 80
3, 158160, Note_off_c, 11, 52, 80
3, 158160, Note_on_c, 11, 71, 95
3, 158160, Note_on_c, 11, 68, 95
3, 158160, Note_on_c, 11, 64, 95
3, 158160, Note_on_c, 11, 59, 95
3, 158160, Note_on_c, 11, 52, 95
3, 158400, Note_off_c, 11, 71, 80
3, 158400, Note_off_c, 11, 68, 80
3, 158400, Note_off_c, 11, 64, 80
3, 158400, Note_off_c, 11, 59, 80
3, 158400, Note_off_c, 11, 52, 80
3, 158400, Note_on_c, 11, 71, 95
3, 158400, Note_on_c, 11, 68, 95
3, 158400, Note_on_c, 11, 64, 95
3, 158400, Note_on_c, 11, 59, 95
3, 158400, Note_on_c, 11, 52, 95
3, 158640, Note_off_c, 11, 71, 80
3, 158640, Note_off_c, 11, 68, 80
3, 158640, Note_off_c, 11, 64, 80
3, 158640, Note_off_c, 11, 59, 80
3, 158640, Note_off_c, 11, 52, 80
3, 158640, Note_on_c, 11, 71, 95
3, 158640, Note_on_c, 11, 68, 95
3, 158640, Note_on_c, 11, 64, 95
3, 158640, Note_on_c, 11, 59, 95
3, 158640, Note_on_c, 11, 52, 95
3, 158880, Note_off_c, 11, 71, 80
3, 158880, Note_off_c, 11, 68, 80
3, 158880, Note_off_c, 11, 64, 80
3, 158880, Note_off_c, 11, 59, 80
3, 158880, Note_off_c, 11, 52, 80
3, 158880, Note_on_c, 11, 71, 95
3, 158880, Note_on_c, 11, 68, 95
3, 158880, Note_on_c, 11, 64, 95
3, 158880, Note_on_c, 11, 59, 95
3, 158880, Note_on_c, 11, 52, 95
3, 159120, Note_off_c, 11, 71, 80
3, 159120, Note_off_c, 11, 68, 80
3, 159120, Note_off_c, 11, 64, 80
3, 159120, Note_off_c, 11, 59, 80
3, 159120, Note_off_c, 11, 52, 80
3, 159120, Note_on_c, 11, 71, 95
3, 159120, Note_on_c, 11, 68, 95
3, 159120, Note_on_c, 11, 64, 95
3, 159120, Note_on_c, 11, 59, 95
3, 159120, Note_on_c, 11, 52, 95
3, 159360, Note_off_c, 11, 71, 80
3, 159360, Note_off_c, 11, 68, 80
3, 159360, Note_off_c, 11, 64, 80
3, 159360, Note_off_c, 11, 59, 80
3, 159360, Note_off_c, 11, 52, 80
3, 159600, Note_on_c, 11, 68, 79
3, 159600, Note_on_c, 11, 63, 79
3, 159600, Note_on_c, 11, 60, 95
3, 159600, Note_on_c, 11, 56, 95
3, 159600, Note_on_c, 11, 51, 95
3, 159600, Note_on_c, 11, 44, 95
3, 159840, Note_off_c, 11, 68, 80
3, 159840, Note_off_c, 11, 63, 80
3, 159840, Note_off_c, 11, 60, 80
3, 159840, Note_off_c, 11, 56, 80
3, 159840, Note_off_c, 11, 51, 80
3, 159840, Note_off_c, 11, 44, 80
3, 159840, Note_on_c, 11, 68, 79
3, 159840, Note_on_c, 11, 63, 79
3, 159840, Note_on_c, 11, 60, 95
3, 159840, Note_on_c, 11, 56, 95
3, 159840, Note_on_c, 11, 51, 95
3, 159840, Note_on_c, 11, 44, 95
3, 160080, Note_off_c, 11, 68, 80
3, 160080, Note_off_c, 11, 63, 80
3, 160080, Note_off_c, 11, 60, 80
3, 160080, Note_off_c, 11, 56, 80
3, 160080, Note_off_c, 11, 51, 80
3, 160080, Note_off_c, 11, 44, 80
3, 160080, Note_on_c, 11, 68, 79
3, 160080, Note_on_c, 11, 63, 79
3, 160080, Note_on_c, 11, 60, 95
3, 160080, Note_on_c, 11, 56, 95
3, 160080, Note_on_c, 11, 51, 95
3, 160080, Note_on_c, 11, 44, 95
3, 160320, Note_off_c, 11, 68, 80
3, 160320, Note_off_c, 11, 63, 80
3, 160320, Note_off_c, 11, 60, 80
3, 160320, Note_off_c, 11, 56, 80
3, 160320, Note_off_c, 11, 51, 80
3, 160320, Note_off_c, 11, 44, 80
3, 160320, Note_on_c, 11, 68, 79
3, 160320, Note_on_c, 11, 63, 79
3, 160320, Note_on_c, 11, 60, 95
3, 160320, Note_on_c, 11, 56, 95
3, 160320, Note_on_c, 11, 51, 95
3, 160320, Note_on_c, 11, 44, 95
3, 160560, Note_off_c, 11, 68, 80
3, 160560, Note_off_c, 11, 63, 80
3, 160560, Note_off_c, 11, 60, 80
3, 160560, Note_off_c, 11, 56, 80
3, 160560, Note_off_c, 11, 51, 80
3, 160560, Note_off_c, 11, 44, 80
3, 160560, Note_on_c, 11, 68, 79
3, 160560, Note_on_c, 11, 63, 79
3, 160560, Note_on_c, 11, 60, 95
3, 160560, Note_on_c, 11, 56, 95
3, 160560, Note_on_c, 11, 51, 95
3, 160560, Note_on_c, 11, 44, 95
3, 160800, Note_off_c, 11, 68, 80
3, 160800, Note_off_c, 11, 63, 80
3, 160800, Note_off_c, 11, 60, 80
3, 160800, Note_off_c, 11, 56, 80
3, 160800, Note_off_c, 11, 51, 80
3, 160800, Note_off_c, 11, 44, 80
3, 160800, Note_on_c, 11, 68, 79
3, 160800, Note_on_c, 11, 63, 79
3, 160800, Note_on_c, 11, 60, 95
3, 160800, Note_on_c, 11, 56, 95
3, 160800, Note_on_c, 11, 51, 95
3, 160800, Note_on_c, 11, 44, 95
3, 161040, Note_off_c, 11, 68, 80
3, 161040, Note_off_c, 11, 63, 80
3, 161040, Note_off_c, 11, 60, 80
3, 161040, Note_off_c, 11, 56, 80
3, 161040, Note_off_c, 11, 51, 80
3, 161040, Note_off_c, 11, 44, 80
3, 161040, Note_on_c, 11, 68, 79
3, 161040, Note_on_c, 11, 63, 79
3, 161040, Note_on_c, 11, 60, 95
3, 161040, Note_on_c, 11, 56, 95
3, 161040, Note_on_c, 11, 51, 95
3, 161040, Note_on_c, 11, 44, 95
3, 161280, Note_off_c, 11, 68, 80
3, 161280, Note_off_c, 11, 63, 80
3, 161280, Note_off_c, 11, 60, 80
3, 161280, Note_off_c, 11, 56, 80
3, 161280, Note_off_c, 11, 51, 80
3, 161280, Note_off_c, 11, 44, 80
3, 161280, Note_on_c, 11, 71, 79
3, 161280, Note_on_c, 11, 68, 79
3, 161280, Note_on_c, 11, 64, 95
3, 161280, Note_on_c, 11, 59, 95
3, 161280, Note_on_c, 11, 52, 95
3, 161760, Note_off_c, 11, 71, 80
3, 161760, Note_off_c, 11, 68, 80
3, 161760, Note_off_c, 11, 64, 80
3, 161760, Note_off_c, 11, 59, 80
3, 161760, Note_off_c, 11, 52, 80
3, 161760, Note_on_c, 11, 71, 79
3, 161760, Note_on_c, 11, 68, 79
3, 161760, Note_on_c, 11, 64, 95
3, 161760, Note_on_c, 11, 59, 95
3, 161760, Note_on_c, 11, 52, 95
3, 162000, Note_off_c, 11, 71, 80
3, 162000, Note_off_c, 11, 68, 80
3, 162000, Note_off_c, 11, 64, 80
3, 162000, Note_off_c, 11, 59, 80
3, 162000, Note_off_c, 11, 52, 80
3, 162000, Note_on_c, 11, 71, 79
3, 162000, Note_on_c, 11, 68, 79
3, 162000, Note_on_c, 11, 64, 95
3, 162000, Note_on_c, 11, 59, 95
3, 162000, Note_on_c, 11, 52, 95
3, 162240, Note_off_c, 11, 71, 80
3, 162240, Note_off_c, 11, 68, 80
3, 162240, Note_off_c, 11, 64, 80
3, 162240, Note_off_c, 11, 59, 80
3, 162240, Note_off_c, 11, 52, 80
3, 162240, Note_on_c, 11, 71, 79
3, 162240, Note_on_c, 11, 68, 79
3, 162240, Note_on_c, 11, 64, 95
3, 162240, Note_on_c, 11, 59, 95
3, 162240, Note_on_c, 11, 52, 95
3, 162480, Note_off_c, 11, 71, 80
3, 162480, Note_off_c, 11, 68, 80
3, 162480, Note_off_c, 11, 64, 80
3, 162480, Note_off_c, 11, 59, 80
3, 162480, Note_off_c, 11, 52, 80
3, 162480, Note_on_c, 11, 71, 79
3, 162480, Note_on_c, 11, 68, 79
3, 162480, Note_on_c, 11, 64, 95
3, 162480, Note_on_c, 11, 59, 95
3, 162480, Note_on_c, 11, 52, 95
3, 162720, Note_off_c, 11, 71, 80
3, 162720, Note_off_c, 11, 68, 80
3, 162720, Note_off_c, 11, 64, 80
3, 162720, Note_off_c, 11, 59, 80
3, 162720, Note_off_c, 11, 52, 80
3, 162720, Note_on_c, 11, 71, 79
3, 162720, Note_on_c, 11, 68, 79
3, 162720, Note_on_c, 11, 64, 95
3, 162720, Note_on_c, 11, 59, 95
3, 162720, Note_on_c, 11, 52, 95
3, 162960, Note_off_c, 11, 71, 80
3, 162960, Note_off_c, 11, 68, 80
3, 162960, Note_off_c, 11, 64, 80
3, 162960, Note_off_c, 11, 59, 80
3, 162960, Note_off_c, 11, 52, 80
3, 162960, Note_on_c, 11, 71, 79
3, 162960, Note_on_c, 11, 68, 79
3, 162960, Note_on_c, 11, 64, 95
3, 162960, Note_on_c, 11, 59, 95
3, 162960, Note_on_c, 11, 52, 95
3, 163200, Note_off_c, 11, 71, 80
3, 163200, Note_off_c, 11, 68, 80
3, 163200, Note_off_c, 11, 64, 80
3, 163200, Note_off_c, 11, 59, 80
3, 163200, Note_off_c, 11, 52, 80
3, 163200, Control_c, 11, 7, 83
3, 163200, Control_c, 12, 7, 83
3, 163200, Note_on_c, 11, 68, 95
3, 163200, Note_on_c, 11, 63, 95
3, 163200, Note_on_c, 11, 60, 95
3, 163200, Note_on_c, 11, 56, 95
3, 163200, Note_on_c, 11, 51, 95
3, 163200, Note_on_c, 11, 44, 95
3, 163320, Control_c, 11, 7, 78
3, 163320, Control_c, 12, 7, 78
3, 163440, Control_c, 11, 7, 72
3, 163440, Control_c, 12, 7, 72
3, 163560, Control_c, 11, 7, 67
3, 163560, Control_c, 12, 7, 67
3, 163680, Control_c, 11, 7, 62
3, 163680, Control_c, 12, 7, 62
3, 163800, Control_c, 11, 7, 57
3, 163800, Control_c, 12, 7, 57
3, 163920, Control_c, 11, 7, 52
3, 163920, Control_c, 12, 7, 52
3, 164040, Control_c, 11, 7, 47
3, 164040, Control_c, 12, 7, 47
3, 164160, Control_c, 11, 7, 41
3, 164160, Control_c, 12, 7, 41
3, 164280, Control_c, 11, 7, 36
3, 164280, Control_c, 12, 7, 36
3, 164400, Control_c, 11, 7, 31
3, 164400, Control_c, 12, 7, 31
3, 164520, Control_c, 11, 7, 26
3, 164520, Control_c, 12, 7, 26
3, 164640, Control_c, 11, 7, 21
3, 164640, Control_c, 12, 7, 21
3, 164760, Control_c, 11, 7, 16
3, 164760, Control_c, 12, 7, 16
3, 164880, Control_c, 11, 7, 10
3, 164880, Control_c, 12, 7, 10
3, 165000, Control_c, 11, 7, 5
3, 165000, Control_c, 12, 7, 5
3, 165120, Control_c, 11, 7, 0
3, 165120, Control_c, 12, 7, 0
3, 165120, Note_off_c, 11, 68, 80
3, 165120, Note_off_c, 11, 63, 80
3, 165120, Note_off_c, 11, 60, 80
3, 165120, Note_off_c, 11, 56, 80
3, 165120, Note_off_c, 11, 51, 80
3, 165120, Note_off_c, 11, 44, 80
3, 165120, End_track
4, 0, Start_track
4, 0, Title_t, "Joey"
4, 0, Control_c, 3, 100, 0
4, 0, Control_c, 3, 101, 0
4, 0, Control_c, 3, 6, 12
4, 0, Pitch_bend_c, 3, 8192
4, 0, Control_c, 3, 101, 0
4, 0, Control_c, 3, 100, 1
4, 0, Control_c, 3, 6, 64
4, 0, Control_c, 3, 38, 0
4, 0, Control_c, 3, 101, 127
4, 0, Control_c, 3, 100, 127
4, 0, Control_c, 2, 100, 0
4, 0, Control_c, 2, 101, 0
4, 0, Control_c, 2, 6, 12
4, 0, Pitch_bend_c, 2, 8192
4, 0, Control_c, 2, 101, 0
4, 0, Control_c, 2, 100, 1
4, 0, Control_c, 2, 6, 64
4, 0, Control_c, 2, 38, 0
4, 0, Control_c, 2, 101, 127
4, 0, Control_c, 2, 100, 127
4, 0, Control_c, 3, 101, 0
4, 0, Control_c, 3, 100, 2
4, 0, Control_c, 3, 6, 64
4, 0, Control_c, 3, 101, 127
4, 0, Control_c, 3, 100, 127
4, 0, Control_c, 2, 101, 0
4, 0, Control_c, 2, 100, 2
4, 0, Control_c, 2, 6, 64
4, 0, Control_c, 2, 101, 127
4, 0, Control_c, 2, 100, 127
4, 0, Program_c, 3, 29
4, 0, Program_c, 2, 29
4, 0, Control_c, 3, 0, 0
4, 0, Control_c, 2, 0, 0
4, 0, Control_c, 3, 7, 104
4, 0, Control_c, 2, 7, 104
4, 0, Control_c, 3, 10, 40
4, 0, Control_c, 2, 10, 40
4, 0, Control_c, 3, 93, 0
4, 0, Control_c, 2, 93, 0
4, 0, Control_c, 3, 91, 0
4, 0, Control_c, 2, 91, 0
4, 0, Control_c, 3, 92, 0
4, 0, Control_c, 2, 92, 0
4, 0, Control_c, 3, 95, 0
4, 0, Control_c, 2, 95, 0
4, 28800, Note_on_c, 2, 56, 79
4, 29280, Note_on_c, 2, 60, 95
4, 29760, Note_on_c, 2, 63, 50
4, 30720, Note_off_c, 2, 56, 80
4, 32160, Note_off_c, 2, 60, 80
4, 32160, Note_off_c, 2, 63, 80
4, 32400, Note_on_c, 2, 68, 95
4, 32640, Note_off_c, 2, 68, 80
4, 32640, Note_on_c, 3, 68, 95
4, 32640, Pitch_bend_c, 3, 8192
4, 32768, Pitch_bend_c, 3, 8320
4, 32896, Pitch_bend_c, 3, 8448
4, 32960, Pitch_bend_c, 3, 8576
4, 33024, Pitch_bend_c, 3, 8704
4, 33056, Pitch_bend_c, 3, 8832
4, 33104, Pitch_bend_c, 3, 8960
4, 33168, Pitch_bend_c, 3, 9088
4, 33232, Pitch_bend_c, 3, 9216
4, 34064, Pitch_bend_c, 3, 9088
4, 34224, Pitch_bend_c, 3, 8960
4, 34384, Pitch_bend_c, 3, 8832
4, 34496, Pitch_bend_c, 3, 8704
4, 34592, Pitch_bend_c, 3, 8576
4, 34752, Pitch_bend_c, 3, 8448
4, 34912, Pitch_bend_c, 3, 8320
4, 35232, Pitch_bend_c, 3, 8192
4, 36480, Note_off_c, 3, 68, 80
4, 36480, Pitch_bend_c, 3, 8192
4, 36480, Note_on_c, 2, 68, 95
4, 36960, Note_off_c, 2, 68, 80
4, 36960, Note_on_c, 2, 70, 95
4, 38400, Note_off_c, 2, 70, 80
4, 38400, Note_on_c, 2, 56, 79
4, 38400, Note_on_c, 2, 51, 79
4, 38400, Note_on_c, 2, 44, 79
4, 38880, Note_off_c, 2, 56, 80
4, 38880, Note_off_c, 2, 51, 80
4, 38880, Note_off_c, 2, 44, 80
4, 38880, Note_on_c, 2, 56, 79
4, 38880, Note_on_c, 2, 51, 79
4, 38880, Note_on_c, 2, 44, 79
4, 39120, Note_off_c, 2, 56, 80
4, 39120, Note_off_c, 2, 51, 80
4, 39120, Note_off_c, 2, 44, 80
4, 39120, Note_on_c, 2, 56, 79
4, 39120, Note_on_c, 2, 51, 79
4, 39120, Note_on_c, 2, 44, 79
4, 39360, Note_off_c, 2, 56, 80
4, 39360, Note_off_c, 2, 51, 80
4, 39360, Note_off_c, 2, 44, 80
4, 39360, Note_on_c, 2, 56, 79
4, 39360, Note_on_c, 2, 51, 79
4, 39360, Note_on_c, 2, 44, 79
4, 39600, Note_off_c, 2, 56, 80
4, 39600, Note_off_c, 2, 51, 80
4, 39600, Note_off_c, 2, 44, 80
4, 39600, Note_on_c, 2, 56, 79
4, 39600, Note_on_c, 2, 51, 79
4, 39600, Note_on_c, 2, 44, 79
4, 39840, Note_off_c, 2, 56, 80
4, 39840, Note_off_c, 2, 51, 80
4, 39840, Note_off_c, 2, 44, 80
4, 39840, Note_on_c, 2, 56, 79
4, 39840, Note_on_c, 2, 51, 79
4, 39840, Note_on_c, 2, 44, 79
4, 40080, Note_off_c, 2, 56, 80
4, 40080, Note_off_c, 2, 51, 80
4, 40080, Note_off_c, 2, 44, 80
4, 40080, Note_on_c, 2, 56, 79
4, 40080, Note_on_c, 2, 51, 79
4, 40080, Note_on_c, 2, 44, 79
4, 40320, Note_off_c, 2, 56, 80
4, 40320, Note_off_c, 2, 51, 80
4, 40320, Note_off_c, 2, 44, 80
4, 40320, Note_on_c, 2, 66, 95
4, 40320, Note_on_c, 2, 63, 95
4, 40800, Note_off_c, 2, 66, 80
4, 40800, Note_off_c, 2, 63, 80
4, 40800, Note_on_c, 2, 66, 95
4, 40800, Note_on_c, 2, 64, 95
4, 41040, Note_off_c, 2, 66, 80
4, 41040, Note_off_c, 2, 64, 80
4, 41040, Note_on_c, 2, 66, 95
4, 41040, Note_on_c, 2, 63, 95
4, 41280, Note_off_c, 2, 66, 80
4, 41280, Note_off_c, 2, 63, 80
4, 41280, Note_on_c, 2, 66, 95
4, 41280, Note_on_c, 2, 64, 95
4, 41520, Note_off_c, 2, 66, 80
4, 41520, Note_off_c, 2, 64, 80
4, 41520, Note_on_c, 2, 66, 95
4, 41520, Note_on_c, 2, 63, 95
4, 42000, Note_off_c, 2, 66, 80
4, 42000, Note_off_c, 2, 63, 80
4, 42000, Note_on_c, 2, 68, 95
4, 42000, Note_on_c, 2, 64, 95
4, 42720, Note_off_c, 2, 64, 80
4, 42720, Note_on_c, 2, 64, 79
4, 42720, Note_on_c, 2, 59, 79
4, 42720, Note_on_c, 2, 52, 79
4, 42960, Note_off_c, 2, 64, 80
4, 42960, Note_off_c, 2, 59, 80
4, 42960, Note_off_c, 2, 52, 80
4, 42960, Note_on_c, 2, 64, 79
4, 42960, Note_on_c, 2, 59, 79
4, 42960, Note_on_c, 2, 52, 79
4, 43200, Note_off_c, 2, 64, 80
4, 43200, Note_off_c, 2, 59, 80
4, 43200, Note_off_c, 2, 52, 80
4, 43200, Note_on_c, 2, 64, 79
4, 43200, Note_on_c, 2, 59, 79
4, 43200, Note_on_c, 2, 52, 79
4, 43440, Note_off_c, 2, 64, 80
4, 43440, Note_off_c, 2, 59, 80
4, 43440, Note_off_c, 2, 52, 80
4, 43440, Note_on_c, 2, 64, 79
4, 43440, Note_on_c, 2, 59, 79
4, 43440, Note_on_c, 2, 52, 79
4, 43680, Note_off_c, 2, 64, 80
4, 43680, Note_off_c, 2, 59, 80
4, 43680, Note_off_c, 2, 52, 80
4, 43680, Note_on_c, 2, 64, 79
4, 43680, Note_on_c, 2, 59, 79
4, 43680, Note_on_c, 2, 52, 79
4, 43920, Note_off_c, 2, 68, 80
4, 43920, Note_off_c, 2, 64, 80
4, 43920, Note_off_c, 2, 59, 80
4, 43920, Note_off_c, 2, 52, 80
4, 43920, Note_on_c, 2, 64, 79
4, 43920, Note_on_c, 2, 59, 79
4, 43920, Note_on_c, 2, 52, 79
4, 44160, Note_off_c, 2, 64, 80
4, 44160, Note_off_c, 2, 59, 80
4, 44160, Note_off_c, 2, 52, 80
4, 44640, Note_on_c, 2, 56, 79
4, 44640, Note_on_c, 2, 51, 79
4, 44640, Note_on_c, 2, 44, 79
4, 44880, Note_off_c, 2, 56, 80
4, 44880, Note_off_c, 2, 51, 80
4, 44880, Note_off_c, 2, 44, 80
4, 44880, Note_on_c, 2, 56, 79
4, 44880, Note_on_c, 2, 51, 79
4, 44880, Note_on_c, 2, 44, 79
4, 45120, Note_off_c, 2, 56, 80
4, 45120, Note_off_c, 2, 51, 80
4, 45120, Note_off_c, 2, 44, 80
4, 45120, Note_on_c, 2, 56, 79
4, 45120, Note_on_c, 2, 51, 79
4, 45120, Note_on_c, 2, 44, 79
4, 45360, Note_off_c, 2, 56, 80
4, 45360, Note_off_c, 2, 51, 80
4, 45360, Note_off_c, 2, 44, 80
4, 45360, Note_on_c, 2, 56, 79
4, 45360, Note_on_c, 2, 51, 79
4, 45360, Note_on_c, 2, 44, 79
4, 45600, Note_off_c, 2, 56, 80
4, 45600, Note_off_c, 2, 51, 80
4, 45600, Note_off_c, 2, 44, 80
4, 45600, Note_on_c, 2, 56, 79
4, 45600, Note_on_c, 2, 51, 79
4, 45600, Note_on_c, 2, 44, 79
4, 45840, Note_off_c, 2, 56, 80
4, 45840, Note_off_c, 2, 51, 80
4, 45840, Note_off_c, 2, 44, 80
4, 45840, Note_on_c, 2, 56, 79
4, 45840, Note_on_c, 2, 51, 79
4, 45840, Note_on_c, 2, 44, 79
4, 46080, Note_off_c, 2, 56, 80
4, 46080, Note_off_c, 2, 51, 80
4, 46080, Note_off_c, 2, 44, 80
4, 46080, Note_on_c, 2, 64, 79
4, 46080, Note_on_c, 2, 59, 79
4, 46080, Note_on_c, 2, 52, 79
4, 46560, Note_off_c, 2, 64, 80
4, 46560, Note_off_c, 2, 59, 80
4, 46560, Note_off_c, 2, 52, 80
4, 46560, Note_on_c, 2, 64, 79
4, 46560, Note_on_c, 2, 59, 79
4, 46560, Note_on_c, 2, 52, 79
4, 46800, Note_off_c, 2, 64, 80
4, 46800, Note_off_c, 2, 59, 80
4, 46800, Note_off_c, 2, 52, 80
4, 46800, Note_on_c, 2, 64, 79
4, 46800, Note_on_c, 2, 59, 79
4, 46800, Note_on_c, 2, 52, 79
4, 47040, Note_off_c, 2, 64, 80
4, 47040, Note_off_c, 2, 59, 80
4, 47040, Note_off_c, 2, 52, 80
4, 47040, Note_on_c, 2, 64, 79
4, 47040, Note_on_c, 2, 59, 79
4, 47040, Note_on_c, 2, 52, 79
4, 47280, Note_off_c, 2, 64, 80
4, 47280, Note_off_c, 2, 59, 80
4, 47280, Note_off_c, 2, 52, 80
4, 47280, Note_on_c, 2, 64, 79
4, 47280, Note_on_c, 2, 59, 79
4, 47280, Note_on_c, 2, 52, 79
4, 47520, Note_off_c, 2, 64, 80
4, 47520, Note_off_c, 2, 59, 80
4, 47520, Note_off_c, 2, 52, 80
4, 47520, Note_on_c, 2, 64, 79
4, 47520, Note_on_c, 2, 59, 79
4, 47520, Note_on_c, 2, 52, 79
4, 47760, Note_off_c, 2, 64, 80
4, 47760, Note_off_c, 2, 59, 80
4, 47760, Note_off_c, 2, 52, 80
4, 47760, Note_on_c, 2, 64, 79
4, 47760, Note_on_c, 2, 59, 79
4, 47760, Note_on_c, 2, 52, 79
4, 48000, Note_off_c, 2, 64, 80
4, 48000, Note_off_c, 2, 59, 80
4, 48000, Note_off_c, 2, 52, 80
4, 48000, Note_on_c, 2, 56, 79
4, 48000, Note_on_c, 2, 51, 79
4, 48000, Note_on_c, 2, 44, 79
4, 50400, Note_off_c, 2, 56, 80
4, 50400, Note_off_c, 2, 51, 80
4, 50400, Note_off_c, 2, 44, 80
4, 67200, Note_on_c, 2, 71, 95
4, 67440, Note_off_c, 2, 71, 80
4, 67440, Note_on_c, 2, 70, 95
4, 67680, Note_off_c, 2, 70, 80
4, 67680, Note_on_c, 2, 66, 95
4, 67920, Note_off_c, 2, 66, 80
4, 67920, Note_on_c, 2, 65, 95
4, 71040, Note_off_c, 2, 65, 80
4, 71040, Note_on_c, 2, 64, 50
4, 72960, Note_off_c, 2, 64, 80
4, 72960, Note_on_c, 2, 63, 50
4, 74880, Note_off_c, 2, 63, 80
4, 74880, Note_on_c, 2, 61, 50
4, 76800, Note_off_c, 2, 61, 80
4, 76800, Note_on_c, 2, 56, 79
4, 77280, Note_on_c, 2, 60, 95
4, 77760, Note_on_c, 2, 63, 50
4, 78720, Note_off_c, 2, 56, 80
4, 80160, Note_off_c, 2, 60, 80
4, 80160, Note_off_c, 2, 63, 80
4, 80400, Note_on_c, 2, 68, 95
4, 80640, Note_off_c, 2, 68, 80
4, 80640, Note_on_c, 3, 68, 95
4, 80640, Pitch_bend_c, 3, 8192
4, 80768, Pitch_bend_c, 3, 8320
4, 80896, Pitch_bend_c, 3, 8448
4, 80960, Pitch_bend_c, 3, 8576
4, 81024, Pitch_bend_c, 3, 8704
4, 81056, Pitch_bend_c, 3, 8832
4, 81104, Pitch_bend_c, 3, 8960
4, 81168, Pitch_bend_c, 3, 9088
4, 81232, Pitch_bend_c, 3, 9216
4, 82064, Pitch_bend_c, 3, 9088
4, 82224, Pitch_bend_c, 3, 8960
4, 82384, Pitch_bend_c, 3, 8832
4, 82496, Pitch_bend_c, 3, 8704
4, 82592, Pitch_bend_c, 3, 8576
4, 82752, Pitch_bend_c, 3, 8448
4, 82912, Pitch_bend_c, 3, 8320
4, 83232, Pitch_bend_c, 3, 8192
4, 84480, Note_off_c, 3, 68, 80
4, 84480, Pitch_bend_c, 3, 8192
4, 84480, Note_on_c, 2, 68, 95
4, 84960, Note_off_c, 2, 68, 80
4, 84960, Note_on_c, 2, 70, 95
4, 86400, Note_off_c, 2, 70, 80
4, 86400, Note_on_c, 2, 56, 79
4, 86400, Note_on_c, 2, 51, 79
4, 86400, Note_on_c, 2, 44, 79
4, 86880, Note_off_c, 2, 56, 80
4, 86880, Note_off_c, 2, 51, 80
4, 86880, Note_off_c, 2, 44, 80
4, 86880, Note_on_c, 2, 56, 79
4, 86880, Note_on_c, 2, 51, 79
4, 86880, Note_on_c, 2, 44, 79
4, 87120, Note_off_c, 2, 56, 80
4, 87120, Note_off_c, 2, 51, 80
4, 87120, Note_off_c, 2, 44, 80
4, 87120, Note_on_c, 2, 56, 79
4, 87120, Note_on_c, 2, 51, 79
4, 87120, Note_on_c, 2, 44, 79
4, 87360, Note_off_c, 2, 56, 80
4, 87360, Note_off_c, 2, 51, 80
4, 87360, Note_off_c, 2, 44, 80
4, 87360, Note_on_c, 2, 56, 79
4, 87360, Note_on_c, 2, 51, 79
4, 87360, Note_on_c, 2, 44, 79
4, 87600, Note_off_c, 2, 56, 80
4, 87600, Note_off_c, 2, 51, 80
4, 87600, Note_off_c, 2, 44, 80
4, 87600, Note_on_c, 2, 56, 79
4, 87600, Note_on_c, 2, 51, 79
4, 87600, Note_on_c, 2, 44, 79
4, 87840, Note_off_c, 2, 56, 80
4, 87840, Note_off_c, 2, 51, 80
4, 87840, Note_off_c, 2, 44, 80
4, 87840, Note_on_c, 2, 56, 79
4, 87840, Note_on_c, 2, 51, 79
4, 87840, Note_on_c, 2, 44, 79
4, 88080, Note_off_c, 2, 56, 80
4, 88080, Note_off_c, 2, 51, 80
4, 88080, Note_off_c, 2, 44, 80
4, 88080, Note_on_c, 2, 56, 79
4, 88080, Note_on_c, 2, 51, 79
4, 88080, Note_on_c, 2, 44, 79
4, 88320, Note_off_c, 2, 56, 80
4, 88320, Note_off_c, 2, 51, 80
4, 88320, Note_off_c, 2, 44, 80
4, 88320, Note_on_c, 2, 66, 95
4, 88320, Note_on_c, 2, 63, 95
4, 88800, Note_off_c, 2, 66, 80
4, 88800, Note_off_c, 2, 63, 80
4, 88800, Note_on_c, 2, 66, 95
4, 88800, Note_on_c, 2, 64, 95
4, 89040, Note_off_c, 2, 66, 80
4, 89040, Note_off_c, 2, 64, 80
4, 89040, Note_on_c, 2, 66, 95
4, 89040, Note_on_c, 2, 63, 95
4, 89280, Note_off_c, 2, 66, 80
4, 89280, Note_off_c, 2, 63, 80
4, 89280, Note_on_c, 2, 66, 95
4, 89280, Note_on_c, 2, 64, 95
4, 89520, Note_off_c, 2, 66, 80
4, 89520, Note_off_c, 2, 64, 80
4, 89520, Note_on_c, 2, 66, 95
4, 89520, Note_on_c, 2, 63, 95
4, 90000, Note_off_c, 2, 66, 80
4, 90000, Note_off_c, 2, 63, 80
4, 90000, Note_on_c, 2, 68, 95
4, 90000, Note_on_c, 2, 64, 95
4, 90720, Note_off_c, 2, 64, 80
4, 90720, Note_on_c, 2, 64, 79
4, 90720, Note_on_c, 2, 59, 79
4, 90720, Note_on_c, 2, 52, 79
4, 90960, Note_off_c, 2, 64, 80
4, 90960, Note_off_c, 2, 59, 80
4, 90960, Note_off_c, 2, 52, 80
4, 90960, Note_on_c, 2, 64, 79
4, 90960, Note_on_c, 2, 59, 79
4, 90960, Note_on_c, 2, 52, 79
4, 91200, Note_off_c, 2, 64, 80
4, 91200, Note_off_c, 2, 59, 80
4, 91200, Note_off_c, 2, 52, 80
4, 91200, Note_on_c, 2, 64, 79
4, 91200, Note_on_c, 2, 59, 79
4, 91200, Note_on_c, 2, 52, 79
4, 91440, Note_off_c, 2, 64, 80
4, 91440, Note_off_c, 2, 59, 80
4, 91440, Note_off_c, 2, 52, 80
4, 91440, Note_on_c, 2, 64, 79
4, 91440, Note_on_c, 2, 59, 79
4, 91440, Note_on_c, 2, 52, 79
4, 91680, Note_off_c, 2, 64, 80
4, 91680, Note_off_c, 2, 59, 80
4, 91680, Note_off_c, 2, 52, 80
4, 91680, Note_on_c, 2, 64, 79
4, 91680, Note_on_c, 2, 59, 79
4, 91680, Note_on_c, 2, 52, 79
4, 91920, Note_off_c, 2, 68, 80
4, 91920, Note_off_c, 2, 64, 80
4, 91920, Note_off_c, 2, 59, 80
4, 91920, Note_off_c, 2, 52, 80
4, 91920, Note_on_c, 2, 64, 79
4, 91920, Note_on_c, 2, 59, 79
4, 91920, Note_on_c, 2, 52, 79
4, 92160, Note_off_c, 2, 64, 80
4, 92160, Note_off_c, 2, 59, 80
4, 92160, Note_off_c, 2, 52, 80
4, 92640, Note_on_c, 2, 56, 79
4, 92640, Note_on_c, 2, 51, 79
4, 92640, Note_on_c, 2, 44, 79
4, 92880, Note_off_c, 2, 56, 80
4, 92880, Note_off_c, 2, 51, 80
4, 92880, Note_off_c, 2, 44, 80
4, 92880, Note_on_c, 2, 56, 79
4, 92880, Note_on_c, 2, 51, 79
4, 92880, Note_on_c, 2, 44, 79
4, 93120, Note_off_c, 2, 56, 80
4, 93120, Note_off_c, 2, 51, 80
4, 93120, Note_off_c, 2, 44, 80
4, 93120, Note_on_c, 2, 56, 79
4, 93120, Note_on_c, 2, 51, 79
4, 93120, Note_on_c, 2, 44, 79
4, 93360, Note_off_c, 2, 56, 80
4, 93360, Note_off_c, 2, 51, 80
4, 93360, Note_off_c, 2, 44, 80
4, 93360, Note_on_c, 2, 56, 79
4, 93360, Note_on_c, 2, 51, 79
4, 93360, Note_on_c, 2, 44, 79
4, 93600, Note_off_c, 2, 56, 80
4, 93600, Note_off_c, 2, 51, 80
4, 93600, Note_off_c, 2, 44, 80
4, 93600, Note_on_c, 2, 56, 79
4, 93600, Note_on_c, 2, 51, 79
4, 93600, Note_on_c, 2, 44, 79
4, 93840, Note_off_c, 2, 56, 80
4, 93840, Note_off_c, 2, 51, 80
4, 93840, Note_off_c, 2, 44, 80
4, 93840, Note_on_c, 2, 56, 79
4, 93840, Note_on_c, 2, 51, 79
4, 93840, Note_on_c, 2, 44, 79
4, 94080, Note_off_c, 2, 56, 80
4, 94080, Note_off_c, 2, 51, 80
4, 94080, Note_off_c, 2, 44, 80
4, 94080, Note_on_c, 2, 64, 79
4, 94080, Note_on_c, 2, 59, 79
4, 94080, Note_on_c, 2, 52, 79
4, 94560, Note_off_c, 2, 64, 80
4, 94560, Note_off_c, 2, 59, 80
4, 94560, Note_off_c, 2, 52, 80
4, 94560, Note_on_c, 2, 64, 79
4, 94560, Note_on_c, 2, 59, 79
4, 94560, Note_on_c, 2, 52, 79
4, 94800, Note_off_c, 2, 64, 80
4, 94800, Note_off_c, 2, 59, 80
4, 94800, Note_off_c, 2, 52, 80
4, 94800, Note_on_c, 2, 64, 79
4, 94800, Note_on_c, 2, 59, 79
4, 94800, Note_on_c, 2, 52, 79
4, 95040, Note_off_c, 2, 64, 80
4, 95040, Note_off_c, 2, 59, 80
4, 95040, Note_off_c, 2, 52, 80
4, 95040, Note_on_c, 2, 64, 79
4, 95040, Note_on_c, 2, 59, 79
4, 95040, Note_on_c, 2, 52, 79
4, 95280, Note_off_c, 2, 64, 80
4, 95280, Note_off_c, 2, 59, 80
4, 95280, Note_off_c, 2, 52, 80
4, 95280, Note_on_c, 2, 64, 79
4, 95280, Note_on_c, 2, 59, 79
4, 95280, Note_on_c, 2, 52, 79
4, 95520, Note_off_c, 2, 64, 80
4, 95520, Note_off_c, 2, 59, 80
4, 95520, Note_off_c, 2, 52, 80
4, 95520, Note_on_c, 2, 64, 79
4, 95520, Note_on_c, 2, 59, 79
4, 95520, Note_on_c, 2, 52, 79
4, 95760, Note_off_c, 2, 64, 80
4, 95760, Note_off_c, 2, 59, 80
4, 95760, Note_off_c, 2, 52, 80
4, 95760, Note_on_c, 2, 64, 79
4, 95760, Note_on_c, 2, 59, 79
4, 95760, Note_on_c, 2, 52, 79
4, 96000, Note_off_c, 2, 64, 80
4, 96000, Note_off_c, 2, 59, 80
4, 96000, Note_off_c, 2, 52, 80
4, 96000, Note_on_c, 2, 56, 79
4, 96000, Note_on_c, 2, 51, 79
4, 96000, Note_on_c, 2, 44, 79
4, 96480, Note_off_c, 2, 56, 80
4, 96480, Note_off_c, 2, 51, 80
4, 96480, Note_off_c, 2, 44, 80
4, 124800, Note_on_c, 2, 56, 79
4, 125280, Note_on_c, 2, 60, 95
4, 125760, Note_on_c, 2, 63, 50
4, 126720, Note_off_c, 2, 56, 80
4, 128160, Note_off_c, 2, 60, 80
4, 128160, Note_off_c, 2, 63, 80
4, 128400, Note_on_c, 2, 68, 95
4, 128640, Note_off_c, 2, 68, 80
4, 128640, Note_on_c, 3, 68, 95
4, 128640, Pitch_bend_c, 3, 8192
4, 128768, Pitch_bend_c, 3, 8320
4, 128896, Pitch_bend_c, 3, 8448
4, 128960, Pitch_bend_c, 3, 8576
4, 129024, Pitch_bend_c, 3, 8704
4, 129056, Pitch_bend_c, 3, 8832
4, 129104, Pitch_bend_c, 3, 8960
4, 129168, Pitch_bend_c, 3, 9088
4, 129232, Pitch_bend_c, 3, 9216
4, 130064, Pitch_bend_c, 3, 9088
4, 130224, Pitch_bend_c, 3, 8960
4, 130384, Pitch_bend_c, 3, 8832
4, 130496, Pitch_bend_c, 3, 8704
4, 130592, Pitch_bend_c, 3, 8576
4, 130752, Pitch_bend_c, 3, 8448
4, 130912, Pitch_bend_c, 3, 8320
4, 131232, Pitch_bend_c, 3, 8192
4, 132480, Note_off_c, 3, 68, 80
4, 132480, Pitch_bend_c, 3, 8192
4, 132480, Note_on_c, 2, 68, 95
4, 132960, Note_off_c, 2, 68, 80
4, 132960, Note_on_c, 2, 70, 95
4, 134400, Note_off_c, 2, 70, 80
4, 134400, Note_on_c, 2, 56, 79
4, 134400, Note_on_c, 2, 51, 79
4, 134400, Note_on_c, 2, 44, 79
4, 134880, Note_off_c, 2, 56, 80
4, 134880, Note_off_c, 2, 51, 80
4, 134880, Note_off_c, 2, 44, 80
4, 134880, Note_on_c, 2, 56, 79
4, 134880, Note_on_c, 2, 51, 79
4, 134880, Note_on_c, 2, 44, 79
4, 135120, Note_off_c, 2, 56, 80
4, 135120, Note_off_c, 2, 51, 80
4, 135120, Note_off_c, 2, 44, 80
4, 135120, Note_on_c, 2, 56, 79
4, 135120, Note_on_c, 2, 51, 79
4, 135120, Note_on_c, 2, 44, 79
4, 135360, Note_off_c, 2, 56, 80
4, 135360, Note_off_c, 2, 51, 80
4, 135360, Note_off_c, 2, 44, 80
4, 135360, Note_on_c, 2, 56, 79
4, 135360, Note_on_c, 2, 51, 79
4, 135360, Note_on_c, 2, 44, 79
4, 135600, Note_off_c, 2, 56, 80
4, 135600, Note_off_c, 2, 51, 80
4, 135600, Note_off_c, 2, 44, 80
4, 135600, Note_on_c, 2, 56, 79
4, 135600, Note_on_c, 2, 51, 79
4, 135600, Note_on_c, 2, 44, 79
4, 135840, Note_off_c, 2, 56, 80
4, 135840, Note_off_c, 2, 51, 80
4, 135840, Note_off_c, 2, 44, 80
4, 135840, Note_on_c, 2, 56, 79
4, 135840, Note_on_c, 2, 51, 79
4, 135840, Note_on_c, 2, 44, 79
4, 136080, Note_off_c, 2, 56, 80
4, 136080, Note_off_c, 2, 51, 80
4, 136080, Note_off_c, 2, 44, 80
4, 136080, Note_on_c, 2, 56, 79
4, 136080, Note_on_c, 2, 51, 79
4, 136080, Note_on_c, 2, 44, 79
4, 136320, Note_off_c, 2, 56, 80
4, 136320, Note_off_c, 2, 51, 80
4, 136320, Note_off_c, 2, 44, 80
4, 136320, Note_on_c, 2, 66, 95
4, 136320, Note_on_c, 2, 63, 95
4, 136800, Note_off_c, 2, 66, 80
4, 136800, Note_off_c, 2, 63, 80
4, 136800, Note_on_c, 2, 66, 95
4, 136800, Note_on_c, 2, 64, 95
4, 137040, Note_off_c, 2, 66, 80
4, 137040, Note_off_c, 2, 64, 80
4, 137040, Note_on_c, 2, 66, 95
4, 137040, Note_on_c, 2, 63, 95
4, 137280, Note_off_c, 2, 66, 80
4, 137280, Note_off_c, 2, 63, 80
4, 137280, Note_on_c, 2, 66, 95
4, 137280, Note_on_c, 2, 64, 95
4, 137520, Note_off_c, 2, 66, 80
4, 137520, Note_off_c, 2, 64, 80
4, 137520, Note_on_c, 2, 66, 95
4, 137520, Note_on_c, 2, 63, 95
4, 138000, Note_off_c, 2, 66, 80
4, 138000, Note_off_c, 2, 63, 80
4, 138000, Note_on_c, 2, 68, 95
4, 138000, Note_on_c, 2, 64, 95
4, 138720, Note_off_c, 2, 64, 80
4, 138720, Note_on_c, 2, 64, 79
4, 138720, Note_on_c, 2, 59, 79
4, 138720, Note_on_c, 2, 52, 79
4, 138960, Note_off_c, 2, 64, 80
4, 138960, Note_off_c, 2, 59, 80
4, 138960, Note_off_c, 2, 52, 80
4, 138960, Note_on_c, 2, 64, 79
4, 138960, Note_on_c, 2, 59, 79
4, 138960, Note_on_c, 2, 52, 79
4, 139200, Note_off_c, 2, 64, 80
4, 139200, Note_off_c, 2, 59, 80
4, 139200, Note_off_c, 2, 52, 80
4, 139200, Note_on_c, 2, 64, 79
4, 139200, Note_on_c, 2, 59, 79
4, 139200, Note_on_c, 2, 52, 79
4, 139440, Note_off_c, 2, 64, 80
4, 139440, Note_off_c, 2, 59, 80
4, 139440, Note_off_c, 2, 52, 80
4, 139440, Note_on_c, 2, 64, 79
4, 139440, Note_on_c, 2, 59, 79
4, 139440, Note_on_c, 2, 52, 79
4, 139680, Note_off_c, 2, 64, 80
4, 139680, Note_off_c, 2, 59, 80
4, 139680, Note_off_c, 2, 52, 80
4, 139680, Note_on_c, 2, 64, 79
4, 139680, Note_on_c, 2, 59, 79
4, 139680, Note_on_c, 2, 52, 79
4, 139920, Note_off_c, 2, 68, 80
4, 139920, Note_off_c, 2, 64, 80
4, 139920, Note_off_c, 2, 59, 80
4, 139920, Note_off_c, 2, 52, 80
4, 139920, Note_on_c, 2, 64, 79
4, 139920, Note_on_c, 2, 59, 79
4, 139920, Note_on_c, 2, 52, 79
4, 140160, Note_off_c, 2, 64, 80
4, 140160, Note_off_c, 2, 59, 80
4, 140160, Note_off_c, 2, 52, 80
4, 140640, Note_on_c, 2, 56, 79
4, 140640, Note_on_c, 2, 51, 79
4, 140640, Note_on_c, 2, 44, 79
4, 140880, Note_off_c, 2, 56, 80
4, 140880, Note_off_c, 2, 51, 80
4, 140880, Note_off_c, 2, 44, 80
4, 140880, Note_on_c, 2, 56, 79
4, 140880, Note_on_c, 2, 51, 79
4, 140880, Note_on_c, 2, 44, 79
4, 141120, Note_off_c, 2, 56, 80
4, 141120, Note_off_c, 2, 51, 80
4, 141120, Note_off_c, 2, 44, 80
4, 141120, Note_on_c, 2, 56, 79
4, 141120, Note_on_c, 2, 51, 79
4, 141120, Note_on_c, 2, 44, 79
4, 141360, Note_off_c, 2, 56, 80
4, 141360, Note_off_c, 2, 51, 80
4, 141360, Note_off_c, 2, 44, 80
4, 141360, Note_on_c, 2, 56, 79
4, 141360, Note_on_c, 2, 51, 79
4, 141360, Note_on_c, 2, 44, 79
4, 141600, Note_off_c, 2, 56, 80
4, 141600, Note_off_c, 2, 51, 80
4, 141600, Note_off_c, 2, 44, 80
4, 141600, Note_on_c, 2, 56, 79
4, 141600, Note_on_c, 2, 51, 79
4, 141600, Note_on_c, 2, 44, 79
4, 141840, Note_off_c, 2, 56, 80
4, 141840, Note_off_c, 2, 51, 80
4, 141840, Note_off_c, 2, 44, 80
4, 141840, Note_on_c, 2, 56, 79
4, 141840, Note_on_c, 2, 51, 79
4, 141840, Note_on_c, 2, 44, 79
4, 142080, Note_off_c, 2, 56, 80
4, 142080, Note_off_c, 2, 51, 80
4, 142080, Note_off_c, 2, 44, 80
4, 142080, Note_on_c, 2, 64, 79
4, 142080, Note_on_c, 2, 59, 79
4, 142080, Note_on_c, 2, 52, 79
4, 142560, Note_off_c, 2, 64, 80
4, 142560, Note_off_c, 2, 59, 80
4, 142560, Note_off_c, 2, 52, 80
4, 142560, Note_on_c, 2, 64, 79
4, 142560, Note_on_c, 2, 59, 79
4, 142560, Note_on_c, 2, 52, 79
4, 142800, Note_off_c, 2, 64, 80
4, 142800, Note_off_c, 2, 59, 80
4, 142800, Note_off_c, 2, 52, 80
4, 142800, Note_on_c, 2, 64, 79
4, 142800, Note_on_c, 2, 59, 79
4, 142800, Note_on_c, 2, 52, 79
4, 143040, Note_off_c, 2, 64, 80
4, 143040, Note_off_c, 2, 59, 80
4, 143040, Note_off_c, 2, 52, 80
4, 143040, Note_on_c, 2, 64, 79
4, 143040, Note_on_c, 2, 59, 79
4, 143040, Note_on_c, 2, 52, 79
4, 143280, Note_off_c, 2, 64, 80
4, 143280, Note_off_c, 2, 59, 80
4, 143280, Note_off_c, 2, 52, 80
4, 143280, Note_on_c, 2, 64, 79
4, 143280, Note_on_c, 2, 59, 79
4, 143280, Note_on_c, 2, 52, 79
4, 143520, Note_off_c, 2, 64, 80
4, 143520, Note_off_c, 2, 59, 80
4, 143520, Note_off_c, 2, 52, 80
4, 143520, Note_on_c, 2, 64, 79
4, 143520, Note_on_c, 2, 59, 79
4, 143520, Note_on_c, 2, 52, 79
4, 143760, Note_off_c, 2, 64, 80
4, 143760, Note_off_c, 2, 59, 80
4, 143760, Note_off_c, 2, 52, 80
4, 143760, Note_on_c, 2, 64, 79
4, 143760, Note_on_c, 2, 59, 79
4, 143760, Note_on_c, 2, 52, 79
4, 144000, Note_off_c, 2, 64, 80
4, 144000, Note_off_c, 2, 59, 80
4, 144000, Note_off_c, 2, 52, 80
4, 144000, Note_on_c, 2, 56, 79
4, 144000, Note_on_c, 2, 51, 79
4, 144000, Note_on_c, 2, 44, 79
4, 144480, Note_off_c, 2, 56, 80
4, 144480, Note_off_c, 2, 51, 80
4, 144480, Note_off_c, 2, 44, 80
4, 144480, Note_on_c, 2, 56, 79
4, 144480, Note_on_c, 2, 51, 79
4, 144480, Note_on_c, 2, 44, 79
4, 144720, Note_off_c, 2, 56, 80
4, 144720, Note_off_c, 2, 51, 80
4, 144720, Note_off_c, 2, 44, 80
4, 144720, Note_on_c, 2, 56, 79
4, 144720, Note_on_c, 2, 51, 79
4, 144720, Note_on_c, 2, 44, 79
4, 144960, Note_off_c, 2, 56, 80
4, 144960, Note_off_c, 2, 51, 80
4, 144960, Note_off_c, 2, 44, 80
4, 144960, Note_on_c, 2, 56, 79
4, 144960, Note_on_c, 2, 51, 79
4, 144960, Note_on_c, 2, 44, 79
4, 145200, Note_off_c, 2, 56, 80
4, 145200, Note_off_c, 2, 51, 80
4, 145200, Note_off_c, 2, 44, 80
4, 145200, Note_on_c, 2, 56, 79
4, 145200, Note_on_c, 2, 51, 79
4, 145200, Note_on_c, 2, 44, 79
4, 145440, Note_off_c, 2, 56, 80
4, 145440, Note_off_c, 2, 51, 80
4, 145440, Note_off_c, 2, 44, 80
4, 145440, Note_on_c, 2, 56, 79
4, 145440, Note_on_c, 2, 51, 79
4, 145440, Note_on_c, 2, 44, 79
4, 145680, Note_off_c, 2, 56, 80
4, 145680, Note_off_c, 2, 51, 80
4, 145680, Note_off_c, 2, 44, 80
4, 145680, Note_on_c, 2, 56, 79
4, 145680, Note_on_c, 2, 51, 79
4, 145680, Note_on_c, 2, 44, 79
4, 145920, Note_off_c, 2, 56, 80
4, 145920, Note_off_c, 2, 51, 80
4, 145920, Note_off_c, 2, 44, 80
4, 145920, Note_on_c, 2, 66, 95
4, 145920, Note_on_c, 2, 63, 95
4, 146400, Note_off_c, 2, 66, 80
4, 146400, Note_off_c, 2, 63, 80
4, 146400, Note_on_c, 2, 66, 95
4, 146400, Note_on_c, 2, 64, 95
4, 146640, Note_off_c, 2, 66, 80
4, 146640, Note_off_c, 2, 64, 80
4, 146640, Note_on_c, 2, 66, 95
4, 146640, Note_on_c, 2, 63, 95
4, 146880, Note_off_c, 2, 66, 80
4, 146880, Note_off_c, 2, 63, 80
4, 146880, Note_on_c, 2, 66, 95
4, 146880, Note_on_c, 2, 64, 95
4, 147120, Note_off_c, 2, 66, 80
4, 147120, Note_off_c, 2, 64, 80
4, 147120, Note_on_c, 2, 66, 95
4, 147120, Note_on_c, 2, 63, 95
4, 147600, Note_off_c, 2, 66, 80
4, 147600, Note_off_c, 2, 63, 80
4, 147600, Note_on_c, 2, 68, 95
4, 147600, Note_on_c, 2, 64, 95
4, 148320, Note_off_c, 2, 64, 80
4, 148320, Note_on_c, 2, 64, 79
4, 148320, Note_on_c, 2, 59, 79
4, 148320, Note_on_c, 2, 52, 79
4, 148560, Note_off_c, 2, 64, 80
4, 148560, Note_off_c, 2, 59, 80
4, 148560, Note_off_c, 2, 52, 80
4, 148560, Note_on_c, 2, 64, 79
4, 148560, Note_on_c, 2, 59, 79
4, 148560, Note_on_c, 2, 52, 79
4, 148800, Note_off_c, 2, 64, 80
4, 148800, Note_off_c, 2, 59, 80
4, 148800, Note_off_c, 2, 52, 80
4, 148800, Note_on_c, 2, 64, 79
4, 148800, Note_on_c, 2, 59, 79
4, 148800, Note_on_c, 2, 52, 79
4, 149040, Note_off_c, 2, 64, 80
4, 149040, Note_off_c, 2, 59, 80
4, 149040, Note_off_c, 2, 52, 80
4, 149040, Note_on_c, 2, 64, 79
4, 149040, Note_on_c, 2, 59, 79
4, 149040, Note_on_c, 2, 52, 79
4, 149280, Note_off_c, 2, 64, 80
4, 149280, Note_off_c, 2, 59, 80
4, 149280, Note_off_c, 2, 52, 80
4, 149280, Note_on_c, 2, 64, 79
4, 149280, Note_on_c, 2, 59, 79
4, 149280, Note_on_c, 2, 52, 79
4, 149520, Note_off_c, 2, 68, 80
4, 149520, Note_off_c, 2, 64, 80
4, 149520, Note_off_c, 2, 59, 80
4, 149520, Note_off_c, 2, 52, 80
4, 149520, Note_on_c, 2, 64, 79
4, 149520, Note_on_c, 2, 59, 79
4, 149520, Note_on_c, 2, 52, 79
4, 149760, Note_off_c, 2, 64, 80
4, 149760, Note_off_c, 2, 59, 80
4, 149760, Note_off_c, 2, 52, 80
4, 150240, Note_on_c, 2, 56, 79
4, 150240, Note_on_c, 2, 51, 79
4, 150240, Note_on_c, 2, 44, 79
4, 150480, Note_off_c, 2, 56, 80
4, 150480, Note_off_c, 2, 51, 80
4, 150480, Note_off_c, 2, 44, 80
4, 150480, Note_on_c, 2, 56, 79
4, 150480, Note_on_c, 2, 51, 79
4, 150480, Note_on_c, 2, 44, 79
4, 150720, Note_off_c, 2, 56, 80
4, 150720, Note_off_c, 2, 51, 80
4, 150720, Note_off_c, 2, 44, 80
4, 150720, Note_on_c, 2, 56, 79
4, 150720, Note_on_c, 2, 51, 79
4, 150720, Note_on_c, 2, 44, 79
4, 150960, Note_off_c, 2, 56, 80
4, 150960, Note_off_c, 2, 51, 80
4, 150960, Note_off_c, 2, 44, 80
4, 150960, Note_on_c, 2, 56, 79
4, 150960, Note_on_c, 2, 51, 79
4, 150960, Note_on_c, 2, 44, 79
4, 151200, Note_off_c, 2, 56, 80
4, 151200, Note_off_c, 2, 51, 80
4, 151200, Note_off_c, 2, 44, 80
4, 151200, Note_on_c, 2, 56, 79
4, 151200, Note_on_c, 2, 51, 79
4, 151200, Note_on_c, 2, 44, 79
4, 151440, Note_off_c, 2, 56, 80
4, 151440, Note_off_c, 2, 51, 80
4, 151440, Note_off_c, 2, 44, 80
4, 151440, Note_on_c, 2, 56, 79
4, 151440, Note_on_c, 2, 51, 79
4, 151440, Note_on_c, 2, 44, 79
4, 151680, Note_off_c, 2, 56, 80
4, 151680, Note_off_c, 2, 51, 80
4, 151680, Note_off_c, 2, 44, 80
4, 151680, Note_on_c, 2, 64, 79
4, 151680, Note_on_c, 2, 59, 79
4, 151680, Note_on_c, 2, 52, 79
4, 152160, Note_off_c, 2, 64, 80
4, 152160, Note_off_c, 2, 59, 80
4, 152160, Note_off_c, 2, 52, 80
4, 152160, Note_on_c, 2, 64, 79
4, 152160, Note_on_c, 2, 59, 79
4, 152160, Note_on_c, 2, 52, 79
4, 152400, Note_off_c, 2, 64, 80
4, 152400, Note_off_c, 2, 59, 80
4, 152400, Note_off_c, 2, 52, 80
4, 152400, Note_on_c, 2, 64, 79
4, 152400, Note_on_c, 2, 59, 79
4, 152400, Note_on_c, 2, 52, 79
4, 152640, Note_off_c, 2, 64, 80
4, 152640, Note_off_c, 2, 59, 80
4, 152640, Note_off_c, 2, 52, 80
4, 152640, Note_on_c, 2, 64, 79
4, 152640, Note_on_c, 2, 59, 79
4, 152640, Note_on_c, 2, 52, 79
4, 152880, Note_off_c, 2, 64, 80
4, 152880, Note_off_c, 2, 59, 80
4, 152880, Note_off_c, 2, 52, 80
4, 152880, Note_on_c, 2, 64, 79
4, 152880, Note_on_c, 2, 59, 79
4, 152880, Note_on_c, 2, 52, 79
4, 153120, Note_off_c, 2, 64, 80
4, 153120, Note_off_c, 2, 59, 80
4, 153120, Note_off_c, 2, 52, 80
4, 153120, Note_on_c, 2, 64, 79
4, 153120, Note_on_c, 2, 59, 79
4, 153120, Note_on_c, 2, 52, 79
4, 153360, Note_off_c, 2, 64, 80
4, 153360, Note_off_c, 2, 59, 80
4, 153360, Note_off_c, 2, 52, 80
4, 153360, Note_on_c, 2, 64, 79
4, 153360, Note_on_c, 2, 59, 79
4, 153360, Note_on_c, 2, 52, 79
4, 153600, Note_off_c, 2, 64, 80
4, 153600, Note_off_c, 2, 59, 80
4, 153600, Note_off_c, 2, 52, 80
4, 153600, Note_on_c, 2, 56, 79
4, 153600, Note_on_c, 2, 51, 79
4, 153600, Note_on_c, 2, 44, 79
4, 154080, Note_off_c, 2, 56, 80
4, 154080, Note_off_c, 2, 51, 80
4, 154080, Note_off_c, 2, 44, 80
4, 154080, Note_on_c, 2, 56, 79
4, 154080, Note_on_c, 2, 51, 79
4, 154080, Note_on_c, 2, 44, 79
4, 154320, Note_off_c, 2, 56, 80
4, 154320, Note_off_c, 2, 51, 80
4, 154320, Note_off_c, 2, 44, 80
4, 154320, Note_on_c, 2, 56, 79
4, 154320, Note_on_c, 2, 51, 79
4, 154320, Note_on_c, 2, 44, 79
4, 154560, Note_off_c, 2, 56, 80
4, 154560, Note_off_c, 2, 51, 80
4, 154560, Note_off_c, 2, 44, 80
4, 154560, Note_on_c, 2, 56, 79
4, 154560, Note_on_c, 2, 51, 79
4, 154560, Note_on_c, 2, 44, 79
4, 154800, Note_off_c, 2, 56, 80
4, 154800, Note_off_c, 2, 51, 80
4, 154800, Note_off_c, 2, 44, 80
4, 154800, Note_on_c, 2, 56, 79
4, 154800, Note_on_c, 2, 51, 79
4, 154800, Note_on_c, 2, 44, 79
4, 155040, Note_off_c, 2, 56, 80
4, 155040, Note_off_c, 2, 51, 80
4, 155040, Note_off_c, 2, 44, 80
4, 155040, Note_on_c, 2, 56, 79
4, 155040, Note_on_c, 2, 51, 79
4, 155040, Note_on_c, 2, 44, 79
4, 155280, Note_off_c, 2, 56, 80
4, 155280, Note_off_c, 2, 51, 80
4, 155280, Note_off_c, 2, 44, 80
4, 155280, Note_on_c, 2, 56, 79
4, 155280, Note_on_c, 2, 51, 79
4, 155280, Note_on_c, 2, 44, 79
4, 155520, Note_off_c, 2, 56, 80
4, 155520, Note_off_c, 2, 51, 80
4, 155520, Note_off_c, 2, 44, 80
4, 155520, Note_on_c, 2, 66, 95
4, 155520, Note_on_c, 2, 63, 95
4, 156000, Note_off_c, 2, 66, 80
4, 156000, Note_off_c, 2, 63, 80
4, 156000, Note_on_c, 2, 66, 95
4, 156000, Note_on_c, 2, 64, 95
4, 156240, Note_off_c, 2, 66, 80
4, 156240, Note_off_c, 2, 64, 80
4, 156240, Note_on_c, 2, 66, 95
4, 156240, Note_on_c, 2, 63, 95
4, 156480, Note_off_c, 2, 66, 80
4, 156480, Note_off_c, 2, 63, 80
4, 156480, Note_on_c, 2, 66, 95
4, 156480, Note_on_c, 2, 64, 95
4, 156720, Note_off_c, 2, 66, 80
4, 156720, Note_off_c, 2, 64, 80
4, 156720, Note_on_c, 2, 66, 95
4, 156720, Note_on_c, 2, 63, 95
4, 157200, Note_off_c, 2, 66, 80
4, 157200, Note_off_c, 2, 63, 80
4, 157200, Note_on_c, 2, 68, 95
4, 157200, Note_on_c, 2, 64, 95
4, 157920, Note_off_c, 2, 64, 80
4, 157920, Note_on_c, 2, 64, 79
4, 157920, Note_on_c, 2, 59, 79
4, 157920, Note_on_c, 2, 52, 79
4, 158160, Note_off_c, 2, 64, 80
4, 158160, Note_off_c, 2, 59, 80
4, 158160, Note_off_c, 2, 52, 80
4, 158160, Note_on_c, 2, 64, 79
4, 158160, Note_on_c, 2, 59, 79
4, 158160, Note_on_c, 2, 52, 79
4, 158400, Note_off_c, 2, 64, 80
4, 158400, Note_off_c, 2, 59, 80
4, 158400, Note_off_c, 2, 52, 80
4, 158400, Note_on_c, 2, 64, 79
4, 158400, Note_on_c, 2, 59, 79
4, 158400, Note_on_c, 2, 52, 79
4, 158640, Note_off_c, 2, 64, 80
4, 158640, Note_off_c, 2, 59, 80
4, 158640, Note_off_c, 2, 52, 80
4, 158640, Note_on_c, 2, 64, 79
4, 158640, Note_on_c, 2, 59, 79
4, 158640, Note_on_c, 2, 52, 79
4, 158880, Note_off_c, 2, 64, 80
4, 158880, Note_off_c, 2, 59, 80
4, 158880, Note_off_c, 2, 52, 80
4, 158880, Note_on_c, 2, 64, 79
4, 158880, Note_on_c, 2, 59, 79
4, 158880, Note_on_c, 2, 52, 79
4, 159120, Note_off_c, 2, 68, 80
4, 159120, Note_off_c, 2, 64, 80
4, 159120, Note_off_c, 2, 59, 80
4, 159120, Note_off_c, 2, 52, 80
4, 159120, Note_on_c, 2, 64, 79
4, 159120, Note_on_c, 2, 59, 79
4, 159120, Note_on_c, 2, 52, 79
4, 159360, Note_off_c, 2, 64, 80
4, 159360, Note_off_c, 2, 59, 80
4, 159360, Note_off_c, 2, 52, 80
4, 159840, Note_on_c, 2, 56, 79
4, 159840, Note_on_c, 2, 51, 79
4, 159840, Note_on_c, 2, 44, 79
4, 160080, Note_off_c, 2, 56, 80
4, 160080, Note_off_c, 2, 51, 80
4, 160080, Note_off_c, 2, 44, 80
4, 160080, Note_on_c, 2, 56, 79
4, 160080, Note_on_c, 2, 51, 79
4, 160080, Note_on_c, 2, 44, 79
4, 160320, Note_off_c, 2, 56, 80
4, 160320, Note_off_c, 2, 51, 80
4, 160320, Note_off_c, 2, 44, 80
4, 160320, Note_on_c, 2, 56, 79
4, 160320, Note_on_c, 2, 51, 79
4, 160320, Note_on_c, 2, 44, 79
4, 160560, Note_off_c, 2, 56, 80
4, 160560, Note_off_c, 2, 51, 80
4, 160560, Note_off_c, 2, 44, 80
4, 160560, Note_on_c, 2, 56, 79
4, 160560, Note_on_c, 2, 51, 79
4, 160560, Note_on_c, 2, 44, 79
4, 160800, Note_off_c, 2, 56, 80
4, 160800, Note_off_c, 2, 51, 80
4, 160800, Note_off_c, 2, 44, 80
4, 160800, Note_on_c, 2, 56, 79
4, 160800, Note_on_c, 2, 51, 79
4, 160800, Note_on_c, 2, 44, 79
4, 161040, Note_off_c, 2, 56, 80
4, 161040, Note_off_c, 2, 51, 80
4, 161040, Note_off_c, 2, 44, 80
4, 161040, Note_on_c, 2, 56, 79
4, 161040, Note_on_c, 2, 51, 79
4, 161040, Note_on_c, 2, 44, 79
4, 161280, Note_off_c, 2, 56, 80
4, 161280, Note_off_c, 2, 51, 80
4, 161280, Note_off_c, 2, 44, 80
4, 161280, Note_on_c, 2, 64, 79
4, 161280, Note_on_c, 2, 59, 79
4, 161280, Note_on_c, 2, 52, 79
4, 161760, Note_off_c, 2, 64, 80
4, 161760, Note_off_c, 2, 59, 80
4, 161760, Note_off_c, 2, 52, 80
4, 161760, Note_on_c, 2, 64, 79
4, 161760, Note_on_c, 2, 59, 79
4, 161760, Note_on_c, 2, 52, 79
4, 162000, Note_off_c, 2, 64, 80
4, 162000, Note_off_c, 2, 59, 80
4, 162000, Note_off_c, 2, 52, 80
4, 162000, Note_on_c, 2, 64, 79
4, 162000, Note_on_c, 2, 59, 79
4, 162000, Note_on_c, 2, 52, 79
4, 162240, Note_off_c, 2, 64, 80
4, 162240, Note_off_c, 2, 59, 80
4, 162240, Note_off_c, 2, 52, 80
4, 162240, Note_on_c, 2, 64, 79
4, 162240, Note_on_c, 2, 59, 79
4, 162240, Note_on_c, 2, 52, 79
4, 162480, Note_off_c, 2, 64, 80
4, 162480, Note_off_c, 2, 59, 80
4, 162480, Note_off_c, 2, 52, 80
4, 162480, Note_on_c, 2, 64, 79
4, 162480, Note_on_c, 2, 59, 79
4, 162480, Note_on_c, 2, 52, 79
4, 162720, Note_off_c, 2, 64, 80
4, 162720, Note_off_c, 2, 59, 80
4, 162720, Note_off_c, 2, 52, 80
4, 162720, Note_on_c, 2, 64, 79
4, 162720, Note_on_c, 2, 59, 79
4, 162720, Note_on_c, 2, 52, 79
4, 162960, Note_off_c, 2, 64, 80
4, 162960, Note_off_c, 2, 59, 80
4, 162960, Note_off_c, 2, 52, 80
4, 162960, Note_on_c, 2, 64, 79
4, 162960, Note_on_c, 2, 59, 79
4, 162960, Note_on_c, 2, 52, 79
4, 163200, Note_off_c, 2, 64, 80
4, 163200, Note_off_c, 2, 59, 80
4, 163200, Note_off_c, 2, 52, 80
4, 163200, Note_on_c, 2, 56, 79
4, 163200, Note_on_c, 2, 51, 79
4, 163200, Note_on_c, 2, 44, 79
4, 165120, Note_off_c, 2, 56, 80
4, 165120, Note_off_c, 2, 51, 80
4, 165120, Note_off_c, 2, 44, 80
4, 165120, End_track
5, 0, Start_track
5, 0, Title_t, "Kim (bass)"
5, 0, Control_c, 5, 100, 0
5, 0, Control_c, 5, 101, 0
5, 0, Control_c, 5, 6, 12
5, 0, Pitch_bend_c, 5, 8192
5, 0, Control_c, 5, 101, 0
5, 0, Control_c, 5, 100, 1
5, 0, Control_c, 5, 6, 64
5, 0, Control_c, 5, 38, 0
5, 0, Control_c, 5, 101, 127
5, 0, Control_c, 5, 100, 127
5, 0, Control_c, 4, 100, 0
5, 0, Control_c, 4, 101, 0
5, 0, Control_c, 4, 6, 12
5, 0, Pitch_bend_c, 4, 8192
5, 0, Control_c, 4, 101, 0
5, 0, Control_c, 4, 100, 1
5, 0, Control_c, 4, 6, 64
5, 0, Control_c, 4, 38, 0
5, 0, Control_c, 4, 101, 127
5, 0, Control_c, 4, 100, 127
5, 0, Control_c, 5, 101, 0
5, 0, Control_c, 5, 100, 2
5, 0, Control_c, 5, 6, 64
5, 0, Control_c, 5, 101, 127
5, 0, Control_c, 5, 100, 127
5, 0, Control_c, 4, 101, 0
5, 0, Control_c, 4, 100, 2
5, 0, Control_c, 4, 6, 64
5, 0, Control_c, 4, 101, 127
5, 0, Control_c, 4, 100, 127
5, 0, Program_c, 5, 33
5, 0, Program_c, 4, 33
5, 0, Control_c, 5, 0, 0
5, 0, Control_c, 4, 0, 0
5, 0, Control_c, 5, 7, 96
5, 0, Control_c, 4, 7, 96
5, 0, Control_c, 5, 10, 104
5, 0, Control_c, 4, 10, 104
5, 0, Control_c, 5, 93, 0
5, 0, Control_c, 4, 93, 0
5, 0, Control_c, 5, 91, 0
5, 0, Control_c, 4, 91, 0
5, 0, Control_c, 5, 92, 0
5, 0, Control_c, 4, 92, 0
5, 0, Control_c, 5, 95, 0
5, 0, Control_c, 4, 95, 0
5, 0, Note_on_c, 4, 32, 95
5, 240, Note_off_c, 4, 32, 80
5, 240, Note_on_c, 4, 32, 95
5, 480, Note_off_c, 4, 32, 80
5, 480, Note_on_c, 4, 32, 95
5, 720, Note_off_c, 4, 32, 80
5, 720, Note_on_c, 4, 32, 95
5, 960, Note_off_c, 4, 32, 80
5, 960, Note_on_c, 4, 32, 95
5, 1200, Note_off_c, 4, 32, 80
5, 1200, Note_on_c, 4, 32, 95
5, 1440, Note_off_c, 4, 32, 80
5, 1440, Note_on_c, 4, 32, 95
5, 1680, Note_off_c, 4, 32, 80
5, 1680, Note_on_c, 4, 32, 95
5, 1920, Note_off_c, 4, 32, 80
5, 1920, Note_on_c, 4, 35, 95
5, 2160, Note_off_c, 4, 35, 80
5, 2160, Note_on_c, 4, 35, 95
5, 2400, Note_off_c, 4, 35, 80
5, 2400, Note_on_c, 4, 35, 95
5, 2640, Note_off_c, 4, 35, 80
5, 2640, Note_on_c, 4, 35, 95
5, 2880, Note_off_c, 4, 35, 80
5, 2880, Note_on_c, 4, 35, 95
5, 3120, Note_off_c, 4, 35, 80
5, 3120, Note_on_c, 4, 35, 95
5, 3360, Note_off_c, 4, 35, 80
5, 3360, Note_on_c, 4, 35, 95
5, 3600, Note_off_c, 4, 35, 80
5, 3600, Note_on_c, 5, 35, 95
5, 3780, Pitch_bend_c, 5, 8832
5, 3795, Pitch_bend_c, 5, 9600
5, 3810, Pitch_bend_c, 5, 10240
5, 3825, Pitch_bend_c, 5, 10880
5, 3840, Pitch_bend_c, 5, 11648
5, 4080, Note_off_c, 5, 35, 80
5, 4080, Pitch_bend_c, 5, 8192
5, 4080, Note_on_c, 4, 40, 95
5, 4320, Note_off_c, 4, 40, 80
5, 4320, Note_on_c, 4, 40, 95
5, 4560, Note_off_c, 4, 40, 80
5, 4560, Note_on_c, 4, 40, 95
5, 4800, Note_off_c, 4, 40, 80
5, 4800, Note_on_c, 4, 40, 95
5, 5040, Note_off_c, 4, 40, 80
5, 5040, Note_on_c, 4, 40, 95
5, 5280, Note_off_c, 4, 40, 80
5, 5280, Note_on_c, 4, 40, 95
5, 5520, Note_off_c, 4, 40, 80
5, 5520, Note_on_c, 4, 40, 95
5, 5760, Note_off_c, 4, 40, 80
5, 5760, Note_on_c, 4, 32, 95
5, 6000, Note_off_c, 4, 32, 80
5, 6000, Note_on_c, 4, 32, 95
5, 6240, Note_off_c, 4, 32, 80
5, 6240, Note_on_c, 4, 32, 95
5, 6480, Note_off_c, 4, 32, 80
5, 6480, Note_on_c, 4, 32, 95
5, 6720, Note_off_c, 4, 32, 80
5, 6720, Note_on_c, 4, 32, 95
5, 6960, Note_off_c, 4, 32, 80
5, 6960, Note_on_c, 4, 32, 95
5, 7200, Note_off_c, 4, 32, 80
5, 7200, Note_on_c, 4, 32, 95
5, 7440, Note_off_c, 4, 32, 80
5, 7440, Note_on_c, 4, 32, 95
5, 7680, Note_off_c, 4, 32, 80
5, 7680, Note_on_c, 4, 40, 95
5, 7920, Note_off_c, 4, 40, 80
5, 7920, Note_on_c, 4, 40, 95
5, 8160, Note_off_c, 4, 40, 80
5, 8160, Note_on_c, 4, 40, 95
5, 8400, Note_off_c, 4, 40, 80
5, 8400, Note_on_c, 4, 40, 95
5, 8640, Note_off_c, 4, 40, 80
5, 8640, Note_on_c, 4, 40, 95
5, 8880, Note_off_c, 4, 40, 80
5, 8880, Note_on_c, 4, 40, 95
5, 9120, Note_off_c, 4, 40, 80
5, 9120, Note_on_c, 4, 40, 95
5, 9360, Note_off_c, 4, 40, 80
5, 9360, Note_on_c, 4, 40, 95
5, 9600, Note_off_c, 4, 40, 80
5, 9600, Note_on_c, 4, 32, 95
5, 9840, Note_off_c, 4, 32, 80
5, 9840, Note_on_c, 4, 32, 95
5, 10080, Note_off_c, 4, 32, 80
5, 10080, Note_on_c, 4, 32, 95
5, 10320, Note_off_c, 4, 32, 80
5, 10320, Note_on_c, 4, 32, 95
5, 10560, Note_off_c, 4, 32, 80
5, 10560, Note_on_c, 4, 32, 95
5, 10800, Note_off_c, 4, 32, 80
5, 10800, Note_on_c, 4, 32, 95
5, 11040, Note_off_c, 4, 32, 80
5, 11040, Note_on_c, 4, 32, 95
5, 11280, Note_off_c, 4, 32, 80
5, 11280, Note_on_c, 4, 32, 95
5, 11520, Note_off_c, 4, 32, 80
5, 11520, Note_on_c, 4, 35, 95
5, 11760, Note_off_c, 4, 35, 80
5, 11760, Note_on_c, 4, 35, 95
5, 12000, Note_off_c, 4, 35, 80
5, 12000, Note_on_c, 4, 35, 95
5, 12240, Note_off_c, 4, 35, 80
5, 12240, Note_on_c, 4, 35, 95
5, 12480, Note_off_c, 4, 35, 80
5, 12480, Note_on_c, 4, 35, 95
5, 12720, Note_off_c, 4, 35, 80
5, 12720, Note_on_c, 4, 35, 95
5, 12960, Note_off_c, 4, 35, 80
5, 12960, Note_on_c, 4, 35, 95
5, 13200, Note_off_c, 4, 35, 80
5, 13200, Note_on_c, 5, 35, 95
5, 13380, Pitch_bend_c, 5, 8832
5, 13395, Pitch_bend_c, 5, 9600
5, 13410, Pitch_bend_c, 5, 10240
5, 13425, Pitch_bend_c, 5, 10880
5, 13440, Pitch_bend_c, 5, 11648
5, 13680, Note_off_c, 5, 35, 80
5, 13680, Pitch_bend_c, 5, 8192
5, 13680, Note_on_c, 4, 40, 95
5, 13920, Note_off_c, 4, 40, 80
5, 13920, Note_on_c, 4, 40, 95
5, 14160, Note_off_c, 4, 40, 80
5, 14160, Note_on_c, 4, 40, 95
5, 14400, Note_off_c, 4, 40, 80
5, 14400, Note_on_c, 4, 40, 95
5, 14640, Note_off_c, 4, 40, 80
5, 14640, Note_on_c, 4, 40, 95
5, 14880, Note_off_c, 4, 40, 80
5, 14880, Note_on_c, 4, 40, 95
5, 15120, Note_off_c, 4, 40, 80
5, 15120, Note_on_c, 4, 40, 95
5, 15360, Note_off_c, 4, 40, 80
5, 15360, Note_on_c, 4, 32, 95
5, 15600, Note_off_c, 4, 32, 80
5, 15600, Note_on_c, 4, 32, 95
5, 15840, Note_off_c, 4, 32, 80
5, 15840, Note_on_c, 4, 32, 95
5, 16080, Note_off_c, 4, 32, 80
5, 16080, Note_on_c, 4, 32, 95
5, 16320, Note_off_c, 4, 32, 80
5, 16320, Note_on_c, 4, 32, 95
5, 16560, Note_off_c, 4, 32, 80
5, 16560, Note_on_c, 4, 32, 95
5, 16800, Note_off_c, 4, 32, 80
5, 16800, Note_on_c, 4, 32, 95
5, 17040, Note_off_c, 4, 32, 80
5, 17040, Note_on_c, 4, 32, 95
5, 17280, Note_off_c, 4, 32, 80
5, 17280, Note_on_c, 4, 40, 95
5, 17520, Note_off_c, 4, 40, 80
5, 17520, Note_on_c, 4, 40, 95
5, 17760, Note_off_c, 4, 40, 80
5, 17760, Note_on_c, 4, 40, 95
5, 18000, Note_off_c, 4, 40, 80
5, 18000, Note_on_c, 4, 40, 95
5, 18240, Note_off_c, 4, 40, 80
5, 18240, Note_on_c, 4, 40, 95
5, 18480, Note_off_c, 4, 40, 80
5, 18480, Note_on_c, 4, 40, 95
5, 18720, Note_off_c, 4, 40, 80
5, 18720, Note_on_c, 4, 40, 95
5, 18960, Note_off_c, 4, 40, 80
5, 18960, Note_on_c, 4, 40, 95
5, 19200, Note_off_c, 4, 40, 80
5, 19200, Note_on_c, 4, 32, 95
5, 19440, Note_off_c, 4, 32, 80
5, 19440, Note_on_c, 4, 32, 95
5, 19680, Note_off_c, 4, 32, 80
5, 19680, Note_on_c, 4, 32, 95
5, 19920, Note_off_c, 4, 32, 80
5, 19920, Note_on_c, 4, 32, 95
5, 20160, Note_off_c, 4, 32, 80
5, 20160, Note_on_c, 4, 32, 95
5, 20400, Note_off_c, 4, 32, 80
5, 20400, Note_on_c, 4, 32, 95
5, 20640, Note_off_c, 4, 32, 80
5, 20640, Note_on_c, 4, 32, 95
5, 20880, Note_off_c, 4, 32, 80
5, 20880, Note_on_c, 4, 32, 95
5, 21120, Note_off_c, 4, 32, 80
5, 21120, Note_on_c, 4, 35, 95
5, 21360, Note_off_c, 4, 35, 80
5, 21360, Note_on_c, 4, 35, 95
5, 21600, Note_off_c, 4, 35, 80
5, 21600, Note_on_c, 4, 35, 95
5, 21840, Note_off_c, 4, 35, 80
5, 21840, Note_on_c, 4, 35, 95
5, 22080, Note_off_c, 4, 35, 80
5, 22080, Note_on_c, 4, 35, 95
5, 22320, Note_off_c, 4, 35, 80
5, 22320, Note_on_c, 4, 35, 95
5, 22560, Note_off_c, 4, 35, 80
5, 22560, Note_on_c, 4, 35, 95
5, 22800, Note_off_c, 4, 35, 80
5, 22800, Note_on_c, 5, 35, 95
5, 22980, Pitch_bend_c, 5, 8832
5, 22995, Pitch_bend_c, 5, 9600
5, 23010, Pitch_bend_c, 5, 10240
5, 23025, Pitch_bend_c, 5, 10880
5, 23040, Pitch_bend_c, 5, 11648
5, 23280, Note_off_c, 5, 35, 80
5, 23280, Pitch_bend_c, 5, 8192
5, 23280, Note_on_c, 4, 40, 95
5, 23520, Note_off_c, 4, 40, 80
5, 23520, Note_on_c, 4, 40, 95
5, 23760, Note_off_c, 4, 40, 80
5, 23760, Note_on_c, 4, 40, 95
5, 24000, Note_off_c, 4, 40, 80
5, 24000, Note_on_c, 4, 40, 95
5, 24240, Note_off_c, 4, 40, 80
5, 24240, Note_on_c, 4, 40, 95
5, 24480, Note_off_c, 4, 40, 80
5, 24480, Note_on_c, 4, 40, 95
5, 24720, Note_off_c, 4, 40, 80
5, 24720, Note_on_c, 4, 40, 95
5, 24960, Note_off_c, 4, 40, 80
5, 24960, Note_on_c, 4, 32, 95
5, 25200, Note_off_c, 4, 32, 80
5, 25200, Note_on_c, 4, 32, 95
5, 25440, Note_off_c, 4, 32, 80
5, 25440, Note_on_c, 4, 32, 95
5, 25680, Note_off_c, 4, 32, 80
5, 25680, Note_on_c, 4, 32, 95
5, 25920, Note_off_c, 4, 32, 80
5, 25920, Note_on_c, 4, 32, 95
5, 26160, Note_off_c, 4, 32, 80
5, 26160, Note_on_c, 4, 32, 95
5, 26400, Note_off_c, 4, 32, 80
5, 26400, Note_on_c, 4, 32, 95
5, 26640, Note_off_c, 4, 32, 80
5, 26640, Note_on_c, 4, 32, 95
5, 26880, Note_off_c, 4, 32, 80
5, 26880, Note_on_c, 4, 40, 95
5, 27120, Note_off_c, 4, 40, 80
5, 27120, Note_on_c, 4, 40, 95
5, 27360, Note_off_c, 4, 40, 80
5, 27360, Note_on_c, 4, 40, 95
5, 27600, Note_off_c, 4, 40, 80
5, 27600, Note_on_c, 4, 40, 95
5, 27840, Note_off_c, 4, 40, 80
5, 27840, Note_on_c, 4, 40, 95
5, 28080, Note_off_c, 4, 40, 80
5, 28080, Note_on_c, 4, 40, 95
5, 28320, Note_off_c, 4, 40, 80
5, 28320, Note_on_c, 4, 40, 95
5, 28560, Note_off_c, 4, 40, 80
5, 28560, Note_on_c, 4, 40, 95
5, 28800, Note_off_c, 4, 40, 80
5, 28800, Note_on_c, 4, 32, 95
5, 29040, Note_off_c, 4, 32, 80
5, 29040, Note_on_c, 4, 32, 95
5, 29280, Note_off_c, 4, 32, 80
5, 29280, Note_on_c, 4, 32, 95
5, 29520, Note_off_c, 4, 32, 80
5, 29520, Note_on_c, 4, 32, 95
5, 29760, Note_off_c, 4, 32, 80
5, 29760, Note_on_c, 4, 32, 95
5, 30000, Note_off_c, 4, 32, 80
5, 30000, Note_on_c, 4, 32, 95
5, 30240, Note_off_c, 4, 32, 80
5, 30240, Note_on_c, 4, 32, 95
5, 30480, Note_off_c, 4, 32, 80
5, 30480, Note_on_c, 4, 32, 95
5, 30720, Note_off_c, 4, 32, 80
5, 30720, Note_on_c, 4, 35, 95
5, 30960, Note_off_c, 4, 35, 80
5, 30960, Note_on_c, 4, 35, 95
5, 31200, Note_off_c, 4, 35, 80
5, 31200, Note_on_c, 4, 35, 95
5, 31440, Note_off_c, 4, 35, 80
5, 31440, Note_on_c, 4, 35, 95
5, 31680, Note_off_c, 4, 35, 80
5, 31680, Note_on_c, 4, 35, 95
5, 31920, Note_off_c, 4, 35, 80
5, 31920, Note_on_c, 4, 35, 95
5, 32160, Note_off_c, 4, 35, 80
5, 32160, Note_on_c, 4, 35, 95
5, 32400, Note_off_c, 4, 35, 80
5, 32400, Note_on_c, 5, 35, 95
5, 32580, Pitch_bend_c, 5, 8832
5, 32595, Pitch_bend_c, 5, 9600
5, 32610, Pitch_bend_c, 5, 10240
5, 32625, Pitch_bend_c, 5, 10880
5, 32640, Pitch_bend_c, 5, 11648
5, 32880, Note_off_c, 5, 35, 80
5, 32880, Pitch_bend_c, 5, 8192
5, 32880, Note_on_c, 4, 40, 95
5, 33120, Note_off_c, 4, 40, 80
5, 33120, Note_on_c, 4, 40, 95
5, 33360, Note_off_c, 4, 40, 80
5, 33360, Note_on_c, 4, 40, 95
5, 33600, Note_off_c, 4, 40, 80
5, 33600, Note_on_c, 4, 40, 95
5, 33840, Note_off_c, 4, 40, 80
5, 33840, Note_on_c, 4, 40, 95
5, 34080, Note_off_c, 4, 40, 80
5, 34080, Note_on_c, 4, 40, 95
5, 34320, Note_off_c, 4, 40, 80
5, 34320, Note_on_c, 4, 40, 95
5, 34560, Note_off_c, 4, 40, 80
5, 34560, Note_on_c, 4, 32, 95
5, 34800, Note_off_c, 4, 32, 80
5, 34800, Note_on_c, 4, 32, 95
5, 35040, Note_off_c, 4, 32, 80
5, 35040, Note_on_c, 4, 32, 95
5, 35280, Note_off_c, 4, 32, 80
5, 35280, Note_on_c, 4, 32, 95
5, 35520, Note_off_c, 4, 32, 80
5, 35520, Note_on_c, 4, 32, 95
5, 35760, Note_off_c, 4, 32, 80
5, 35760, Note_on_c, 4, 32, 95
5, 36000, Note_off_c, 4, 32, 80
5, 36000, Note_on_c, 4, 32, 95
5, 36240, Note_off_c, 4, 32, 80
5, 36240, Note_on_c, 4, 32, 95
5, 36480, Note_off_c, 4, 32, 80
5, 36480, Note_on_c, 4, 40, 95
5, 36720, Note_off_c, 4, 40, 80
5, 36720, Note_on_c, 4, 40, 95
5, 36960, Note_off_c, 4, 40, 80
5, 36960, Note_on_c, 4, 40, 95
5, 37200, Note_off_c, 4, 40, 80
5, 37200, Note_on_c, 4, 40, 95
5, 37440, Note_off_c, 4, 40, 80
5, 37440, Note_on_c, 4, 40, 95
5, 37680, Note_off_c, 4, 40, 80
5, 37680, Note_on_c, 4, 40, 95
5, 37920, Note_off_c, 4, 40, 80
5, 37920, Note_on_c, 4, 40, 95
5, 38160, Note_off_c, 4, 40, 80
5, 38160, Note_on_c, 4, 40, 95
5, 38400, Note_off_c, 4, 40, 80
5, 38400, Note_on_c, 4, 32, 95
5, 38640, Note_off_c, 4, 32, 80
5, 38640, Note_on_c, 4, 32, 95
5, 38880, Note_off_c, 4, 32, 80
5, 38880, Note_on_c, 4, 32, 95
5, 39120, Note_off_c, 4, 32, 80
5, 39120, Note_on_c, 4, 32, 95
5, 39360, Note_off_c, 4, 32, 80
5, 39360, Note_on_c, 4, 32, 95
5, 39600, Note_off_c, 4, 32, 80
5, 39600, Note_on_c, 4, 32, 95
5, 39840, Note_off_c, 4, 32, 80
5, 39840, Note_on_c, 4, 32, 95
5, 40080, Note_off_c, 4, 32, 80
5, 40080, Note_on_c, 4, 32, 95
5, 40320, Note_off_c, 4, 32, 80
5, 40320, Note_on_c, 4, 35, 95
5, 40560, Note_off_c, 4, 35, 80
5, 40560, Note_on_c, 4, 35, 95
5, 40800, Note_off_c, 4, 35, 80
5, 40800, Note_on_c, 4, 35, 95
5, 41040, Note_off_c, 4, 35, 80
5, 41040, Note_on_c, 4, 35, 95
5, 41280, Note_off_c, 4, 35, 80
5, 41280, Note_on_c, 4, 35, 95
5, 41520, Note_off_c, 4, 35, 80
5, 41520, Note_on_c, 4, 35, 95
5, 41760, Note_off_c, 4, 35, 80
5, 41760, Note_on_c, 4, 35, 95
5, 42000, Note_off_c, 4, 35, 80
5, 42000, Note_on_c, 4, 35, 95
5, 42240, Note_off_c, 4, 35, 80
5, 42240, Note_on_c, 5, 39, 95
5, 42432, Pitch_bend_c, 5, 8832
5, 42480, Pitch_bend_c, 5, 8832
5, 42720, Note_off_c, 5, 39, 80
5, 42720, Pitch_bend_c, 5, 8192
5, 42720, Note_on_c, 4, 40, 95
5, 42960, Note_off_c, 4, 40, 80
5, 42960, Note_on_c, 4, 40, 95
5, 43200, Note_off_c, 4, 40, 80
5, 43200, Note_on_c, 5, 39, 95
5, 43392, Pitch_bend_c, 5, 8832
5, 43440, Pitch_bend_c, 5, 8832
5, 43680, Note_off_c, 5, 39, 80
5, 43680, Pitch_bend_c, 5, 8192
5, 43680, Note_on_c, 4, 40, 95
5, 43920, Note_off_c, 4, 40, 80
5, 43920, Note_on_c, 4, 40, 95
5, 44160, Note_off_c, 4, 40, 80
5, 44400, Note_on_c, 4, 32, 95
5, 44640, Note_off_c, 4, 32, 80
5, 44640, Note_on_c, 4, 32, 95
5, 44880, Note_off_c, 4, 32, 80
5, 44880, Note_on_c, 4, 32, 95
5, 45120, Note_off_c, 4, 32, 80
5, 45120, Note_on_c, 4, 32, 95
5, 45360, Note_off_c, 4, 32, 80
5, 45360, Note_on_c, 4, 32, 95
5, 45600, Note_off_c, 4, 32, 80
5, 45600, Note_on_c, 4, 32, 95
5, 45840, Note_off_c, 4, 32, 80
5, 45840, Note_on_c, 4, 32, 95
5, 46080, Note_off_c, 4, 32, 80
5, 46080, Note_on_c, 5, 39, 95
5, 46272, Pitch_bend_c, 5, 8832
5, 46320, Pitch_bend_c, 5, 8832
5, 46560, Note_off_c, 5, 39, 80
5, 46560, Pitch_bend_c, 5, 8192
5, 46560, Note_on_c, 4, 40, 95
5, 46800, Note_off_c, 4, 40, 80
5, 46800, Note_on_c, 4, 40, 95
5, 47040, Note_off_c, 4, 40, 80
5, 47040, Note_on_c, 5, 39, 95
5, 47232, Pitch_bend_c, 5, 8832
5, 47280, Pitch_bend_c, 5, 8832
5, 47520, Note_off_c, 5, 39, 80
5, 47520, Pitch_bend_c, 5, 8192
5, 47520, Note_on_c, 4, 40, 95
5, 47760, Note_off_c, 4, 40, 80
5, 47760, Note_on_c, 4, 40, 95
5, 48000, Note_off_c, 4, 40, 80
5, 48000, Note_on_c, 4, 32, 95
5, 48240, Note_off_c, 4, 32, 80
5, 48240, Note_on_c, 4, 32, 95
5, 48480, Note_off_c, 4, 32, 80
5, 48480, Note_on_c, 4, 32, 95
5, 48720, Note_off_c, 4, 32, 80
5, 48720, Note_on_c, 4, 32, 95
5, 48960, Note_off_c, 4, 32, 80
5, 48960, Note_on_c, 4, 32, 95
5, 49200, Note_off_c, 4, 32, 80
5, 49200, Note_on_c, 4, 32, 95
5, 49440, Note_off_c, 4, 32, 80
5, 49440, Note_on_c, 4, 32, 95
5, 49680, Note_off_c, 4, 32, 80
5, 49680, Note_on_c, 4, 32, 95
5, 49920, Note_off_c, 4, 32, 80
5, 49920, Note_on_c, 4, 35, 95
5, 50160, Note_off_c, 4, 35, 80
5, 50160, Note_on_c, 4, 35, 95
5, 50400, Note_off_c, 4, 35, 80
5, 50400, Note_on_c, 4, 35, 95
5, 50640, Note_off_c, 4, 35, 80
5, 50640, Note_on_c, 4, 35, 95
5, 50880, Note_off_c, 4, 35, 80
5, 50880, Note_on_c, 4, 35, 95
5, 51120, Note_off_c, 4, 35, 80
5, 51120, Note_on_c, 4, 35, 95
5, 51360, Note_off_c, 4, 35, 80
5, 51360, Note_on_c, 4, 35, 95
5, 51600, Note_off_c, 4, 35, 80
5, 51600, Note_on_c, 5, 35, 95
5, 51780, Pitch_bend_c, 5, 8832
5, 51795, Pitch_bend_c, 5, 9600
5, 51810, Pitch_bend_c, 5, 10240
5, 51825, Pitch_bend_c, 5, 10880
5, 51840, Pitch_bend_c, 5, 11648
5, 52080, Note_off_c, 5, 35, 80
5, 52080, Pitch_bend_c, 5, 8192
5, 52080, Note_on_c, 4, 40, 95
5, 52320, Note_off_c, 4, 40, 80
5, 52320, Note_on_c, 4, 40, 95
5, 52560, Note_off_c, 4, 40, 80
5, 52560, Note_on_c, 4, 40, 95
5, 52800, Note_off_c, 4, 40, 80
5, 52800, Note_on_c, 4, 40, 95
5, 53040, Note_off_c, 4, 40, 80
5, 53040, Note_on_c, 4, 40, 95
5, 53280, Note_off_c, 4, 40, 80
5, 53280, Note_on_c, 4, 40, 95
5, 53520, Note_off_c, 4, 40, 80
5, 53520, Note_on_c, 4, 40, 95
5, 53760, Note_off_c, 4, 40, 80
5, 53760, Note_on_c, 4, 32, 95
5, 54000, Note_off_c, 4, 32, 80
5, 54000, Note_on_c, 4, 32, 95
5, 54240, Note_off_c, 4, 32, 80
5, 54240, Note_on_c, 4, 32, 95
5, 54480, Note_off_c, 4, 32, 80
5, 54480, Note_on_c, 4, 32, 95
5, 54720, Note_off_c, 4, 32, 80
5, 54720, Note_on_c, 4, 32, 95
5, 54960, Note_off_c, 4, 32, 80
5, 54960, Note_on_c, 4, 32, 95
5, 55200, Note_off_c, 4, 32, 80
5, 55200, Note_on_c, 4, 32, 95
5, 55440, Note_off_c, 4, 32, 80
5, 55440, Note_on_c, 4, 32, 95
5, 55680, Note_off_c, 4, 32, 80
5, 55680, Note_on_c, 4, 40, 95
5, 55920, Note_off_c, 4, 40, 80
5, 55920, Note_on_c, 4, 40, 95
5, 56160, Note_off_c, 4, 40, 80
5, 56160, Note_on_c, 4, 40, 95
5, 56400, Note_off_c, 4, 40, 80
5, 56400, Note_on_c, 4, 40, 95
5, 56640, Note_off_c, 4, 40, 80
5, 56640, Note_on_c, 4, 40, 95
5, 56880, Note_off_c, 4, 40, 80
5, 56880, Note_on_c, 4, 40, 95
5, 57120, Note_off_c, 4, 40, 80
5, 57120, Note_on_c, 4, 40, 95
5, 57360, Note_off_c, 4, 40, 80
5, 57360, Note_on_c, 4, 40, 95
5, 57600, Note_off_c, 4, 40, 80
5, 57600, Note_on_c, 4, 32, 95
5, 57840, Note_off_c, 4, 32, 80
5, 57840, Note_on_c, 4, 32, 95
5, 58080, Note_off_c, 4, 32, 80
5, 58080, Note_on_c, 4, 32, 95
5, 58320, Note_off_c, 4, 32, 80
5, 58320, Note_on_c, 4, 32, 95
5, 58560, Note_off_c, 4, 32, 80
5, 58560, Note_on_c, 4, 32, 95
5, 58800, Note_off_c, 4, 32, 80
5, 58800, Note_on_c, 4, 32, 95
5, 59040, Note_off_c, 4, 32, 80
5, 59040, Note_on_c, 4, 32, 95
5, 59280, Note_off_c, 4, 32, 80
5, 59280, Note_on_c, 4, 32, 95
5, 59520, Note_off_c, 4, 32, 80
5, 59520, Note_on_c, 4, 35, 95
5, 59760, Note_off_c, 4, 35, 80
5, 59760, Note_on_c, 4, 35, 95
5, 60000, Note_off_c, 4, 35, 80
5, 60000, Note_on_c, 4, 35, 95
5, 60240, Note_off_c, 4, 35, 80
5, 60240, Note_on_c, 4, 35, 95
5, 60480, Note_off_c, 4, 35, 80
5, 60480, Note_on_c, 4, 35, 95
5, 60720, Note_off_c, 4, 35, 80
5, 60720, Note_on_c, 4, 35, 95
5, 60960, Note_off_c, 4, 35, 80
5, 60960, Note_on_c, 4, 35, 95
5, 61200, Note_off_c, 4, 35, 80
5, 61200, Note_on_c, 5, 35, 95
5, 61380, Pitch_bend_c, 5, 8832
5, 61395, Pitch_bend_c, 5, 9600
5, 61410, Pitch_bend_c, 5, 10240
5, 61425, Pitch_bend_c, 5, 10880
5, 61440, Pitch_bend_c, 5, 11648
5, 61680, Note_off_c, 5, 35, 80
5, 61680, Pitch_bend_c, 5, 8192
5, 61680, Note_on_c, 4, 40, 95
5, 61920, Note_off_c, 4, 40, 80
5, 61920, Note_on_c, 4, 40, 95
5, 62160, Note_off_c, 4, 40, 80
5, 62160, Note_on_c, 4, 40, 95
5, 62400, Note_off_c, 4, 40, 80
5, 62400, Note_on_c, 4, 40, 95
5, 62640, Note_off_c, 4, 40, 80
5, 62640, Note_on_c, 4, 40, 95
5, 62880, Note_off_c, 4, 40, 80
5, 62880, Note_on_c, 4, 40, 95
5, 63120, Note_off_c, 4, 40, 80
5, 63120, Note_on_c, 4, 40, 95
5, 63360, Note_off_c, 4, 40, 80
5, 63360, Note_on_c, 4, 32, 95
5, 63600, Note_off_c, 4, 32, 80
5, 63600, Note_on_c, 4, 32, 95
5, 63840, Note_off_c, 4, 32, 80
5, 63840, Note_on_c, 4, 32, 95
5, 64080, Note_off_c, 4, 32, 80
5, 64080, Note_on_c, 4, 32, 95
5, 64320, Note_off_c, 4, 32, 80
5, 64320, Note_on_c, 4, 32, 95
5, 64560, Note_off_c, 4, 32, 80
5, 64560, Note_on_c, 4, 32, 95
5, 64800, Note_off_c, 4, 32, 80
5, 64800, Note_on_c, 4, 32, 95
5, 65040, Note_off_c, 4, 32, 80
5, 65040, Note_on_c, 4, 32, 95
5, 65280, Note_off_c, 4, 32, 80
5, 65280, Note_on_c, 4, 40, 95
5, 65520, Note_off_c, 4, 40, 80
5, 65520, Note_on_c, 4, 40, 95
5, 65760, Note_off_c, 4, 40, 80
5, 65760, Note_on_c, 4, 40, 95
5, 66000, Note_off_c, 4, 40, 80
5, 66000, Note_on_c, 4, 40, 95
5, 66240, Note_off_c, 4, 40, 80
5, 66240, Note_on_c, 4, 40, 95
5, 66480, Note_off_c, 4, 40, 80
5, 66480, Note_on_c, 4, 40, 95
5, 66720, Note_off_c, 4, 40, 80
5, 66720, Note_on_c, 4, 40, 95
5, 66960, Note_off_c, 4, 40, 80
5, 66960, Note_on_c, 4, 40, 95
5, 67200, Note_off_c, 4, 40, 80
5, 67200, Note_on_c, 4, 32, 95
5, 67440, Note_off_c, 4, 32, 80
5, 67440, Note_on_c, 4, 32, 95
5, 67680, Note_off_c, 4, 32, 80
5, 67680, Note_on_c, 4, 32, 95
5, 67920, Note_off_c, 4, 32, 80
5, 67920, Note_on_c, 4, 32, 95
5, 68160, Note_off_c, 4, 32, 80
5, 68160, Note_on_c, 4, 32, 95
5, 68400, Note_off_c, 4, 32, 80
5, 68400, Note_on_c, 4, 32, 95
5, 68640, Note_off_c, 4, 32, 80
5, 68640, Note_on_c, 4, 32, 95
5, 68880, Note_off_c, 4, 32, 80
5, 68880, Note_on_c, 4, 32, 95
5, 69120, Note_off_c, 4, 32, 80
5, 69120, Note_on_c, 4, 35, 95
5, 69360, Note_off_c, 4, 35, 80
5, 69360, Note_on_c, 4, 35, 95
5, 69600, Note_off_c, 4, 35, 80
5, 69600, Note_on_c, 4, 35, 95
5, 69840, Note_off_c, 4, 35, 80
5, 69840, Note_on_c, 4, 35, 95
5, 70080, Note_off_c, 4, 35, 80
5, 70080, Note_on_c, 4, 35, 95
5, 70320, Note_off_c, 4, 35, 80
5, 70320, Note_on_c, 4, 35, 95
5, 70560, Note_off_c, 4, 35, 80
5, 70560, Note_on_c, 4, 35, 95
5, 70800, Note_off_c, 4, 35, 80
5, 70800, Note_on_c, 5, 35, 95
5, 70980, Pitch_bend_c, 5, 8832
5, 70995, Pitch_bend_c, 5, 9600
5, 71010, Pitch_bend_c, 5, 10240
5, 71025, Pitch_bend_c, 5, 10880
5, 71040, Pitch_bend_c, 5, 11648
5, 71280, Note_off_c, 5, 35, 80
5, 71280, Pitch_bend_c, 5, 8192
5, 71280, Note_on_c, 4, 40, 95
5, 71520, Note_off_c, 4, 40, 80
5, 71520, Note_on_c, 4, 40, 95
5, 71760, Note_off_c, 4, 40, 80
5, 71760, Note_on_c, 4, 40, 95
5, 72000, Note_off_c, 4, 40, 80
5, 72000, Note_on_c, 4, 40, 95
5, 72240, Note_off_c, 4, 40, 80
5, 72240, Note_on_c, 4, 40, 95
5, 72480, Note_off_c, 4, 40, 80
5, 72480, Note_on_c, 4, 40, 95
5, 72720, Note_off_c, 4, 40, 80
5, 72720, Note_on_c, 4, 40, 95
5, 72960, Note_off_c, 4, 40, 80
5, 72960, Note_on_c, 4, 32, 95
5, 73200, Note_off_c, 4, 32, 80
5, 73200, Note_on_c, 4, 32, 95
5, 73440, Note_off_c, 4, 32, 80
5, 73440, Note_on_c, 4, 32, 95
5, 73680, Note_off_c, 4, 32, 80
5, 73680, Note_on_c, 4, 32, 95
5, 73920, Note_off_c, 4, 32, 80
5, 73920, Note_on_c, 4, 32, 95
5, 74160, Note_off_c, 4, 32, 80
5, 74160, Note_on_c, 4, 32, 95
5, 74400, Note_off_c, 4, 32, 80
5, 74400, Note_on_c, 4, 32, 95
5, 74640, Note_off_c, 4, 32, 80
5, 74640, Note_on_c, 4, 32, 95
5, 74880, Note_off_c, 4, 32, 80
5, 74880, Note_on_c, 4, 40, 95
5, 75120, Note_off_c, 4, 40, 80
5, 75120, Note_on_c, 4, 40, 95
5, 75360, Note_off_c, 4, 40, 80
5, 75360, Note_on_c, 4, 40, 95
5, 75600, Note_off_c, 4, 40, 80
5, 75600, Note_on_c, 4, 40, 95
5, 75840, Note_off_c, 4, 40, 80
5, 75840, Note_on_c, 4, 40, 95
5, 76080, Note_off_c, 4, 40, 80
5, 76080, Note_on_c, 4, 40, 95
5, 76320, Note_off_c, 4, 40, 80
5, 76320, Note_on_c, 4, 40, 95
5, 76560, Note_off_c, 4, 40, 80
5, 76560, Note_on_c, 4, 40, 95
5, 76800, Note_off_c, 4, 40, 80
5, 76800, Note_on_c, 4, 32, 95
5, 77040, Note_off_c, 4, 32, 80
5, 77040, Note_on_c, 4, 32, 95
5, 77280, Note_off_c, 4, 32, 80
5, 77280, Note_on_c, 4, 32, 95
5, 77520, Note_off_c, 4, 32, 80
5, 77520, Note_on_c, 4, 32, 95
5, 77760, Note_off_c, 4, 32, 80
5, 77760, Note_on_c, 4, 32, 95
5, 78000, Note_off_c, 4, 32, 80
5, 78000, Note_on_c, 4, 32, 95
5, 78240, Note_off_c, 4, 32, 80
5, 78240, Note_on_c, 4, 32, 95
5, 78480, Note_off_c, 4, 32, 80
5, 78480, Note_on_c, 4, 32, 95
5, 78720, Note_off_c, 4, 32, 80
5, 78720, Note_on_c, 4, 35, 95
5, 78960, Note_off_c, 4, 35, 80
5, 78960, Note_on_c, 4, 35, 95
5, 79200, Note_off_c, 4, 35, 80
5, 79200, Note_on_c, 4, 35, 95
5, 79440, Note_off_c, 4, 35, 80
5, 79440, Note_on_c, 4, 35, 95
5, 79680, Note_off_c, 4, 35, 80
5, 79680, Note_on_c, 4, 35, 95
5, 79920, Note_off_c, 4, 35, 80
5, 79920, Note_on_c, 4, 35, 95
5, 80160, Note_off_c, 4, 35, 80
5, 80160, Note_on_c, 4, 35, 95
5, 80400, Note_off_c, 4, 35, 80
5, 80400, Note_on_c, 5, 35, 95
5, 80580, Pitch_bend_c, 5, 8832
5, 80595, Pitch_bend_c, 5, 9600
5, 80610, Pitch_bend_c, 5, 10240
5, 80625, Pitch_bend_c, 5, 10880
5, 80640, Pitch_bend_c, 5, 11648
5, 80880, Note_off_c, 5, 35, 80
5, 80880, Pitch_bend_c, 5, 8192
5, 80880, Note_on_c, 4, 40, 95
5, 81120, Note_off_c, 4, 40, 80
5, 81120, Note_on_c, 4, 40, 95
5, 81360, Note_off_c, 4, 40, 80
5, 81360, Note_on_c, 4, 40, 95
5, 81600, Note_off_c, 4, 40, 80
5, 81600, Note_on_c, 4, 40, 95
5, 81840, Note_off_c, 4, 40, 80
5, 81840, Note_on_c, 4, 40, 95
5, 82080, Note_off_c, 4, 40, 80
5, 82080, Note_on_c, 4, 40, 95
5, 82320, Note_off_c, 4, 40, 80
5, 82320, Note_on_c, 4, 40, 95
5, 82560, Note_off_c, 4, 40, 80
5, 82560, Note_on_c, 4, 32, 95
5, 82800, Note_off_c, 4, 32, 80
5, 82800, Note_on_c, 4, 32, 95
5, 83040, Note_off_c, 4, 32, 80
5, 83040, Note_on_c, 4, 32, 95
5, 83280, Note_off_c, 4, 32, 80
5, 83280, Note_on_c, 4, 32, 95
5, 83520, Note_off_c, 4, 32, 80
5, 83520, Note_on_c, 4, 32, 95
5, 83760, Note_off_c, 4, 32, 80
5, 83760, Note_on_c, 4, 32, 95
5, 84000, Note_off_c, 4, 32, 80
5, 84000, Note_on_c, 4, 32, 95
5, 84240, Note_off_c, 4, 32, 80
5, 84240, Note_on_c, 4, 32, 95
5, 84480, Note_off_c, 4, 32, 80
5, 84480, Note_on_c, 4, 40, 95
5, 84720, Note_off_c, 4, 40, 80
5, 84720, Note_on_c, 4, 40, 95
5, 84960, Note_off_c, 4, 40, 80
5, 84960, Note_on_c, 4, 40, 95
5, 85200, Note_off_c, 4, 40, 80
5, 85200, Note_on_c, 4, 40, 95
5, 85440, Note_off_c, 4, 40, 80
5, 85440, Note_on_c, 4, 40, 95
5, 85680, Note_off_c, 4, 40, 80
5, 85680, Note_on_c, 4, 40, 95
5, 85920, Note_off_c, 4, 40, 80
5, 85920, Note_on_c, 4, 40, 95
5, 86160, Note_off_c, 4, 40, 80
5, 86160, Note_on_c, 4, 40, 95
5, 86400, Note_off_c, 4, 40, 80
5, 86400, Note_on_c, 4, 32, 95
5, 86640, Note_off_c, 4, 32, 80
5, 86640, Note_on_c, 4, 32, 95
5, 86880, Note_off_c, 4, 32, 80
5, 86880, Note_on_c, 4, 32, 95
5, 87120, Note_off_c, 4, 32, 80
5, 87120, Note_on_c, 4, 32, 95
5, 87360, Note_off_c, 4, 32, 80
5, 87360, Note_on_c, 4, 32, 95
5, 87600, Note_off_c, 4, 32, 80
5, 87600, Note_on_c, 4, 32, 95
5, 87840, Note_off_c, 4, 32, 80
5, 87840, Note_on_c, 4, 32, 95
5, 88080, Note_off_c, 4, 32, 80
5, 88080, Note_on_c, 4, 32, 95
5, 88320, Note_off_c, 4, 32, 80
5, 88320, Note_on_c, 4, 35, 95
5, 88560, Note_off_c, 4, 35, 80
5, 88560, Note_on_c, 4, 35, 95
5, 88800, Note_off_c, 4, 35, 80
5, 88800, Note_on_c, 4, 35, 95
5, 89040, Note_off_c, 4, 35, 80
5, 89040, Note_on_c, 4, 35, 95
5, 89280, Note_off_c, 4, 35, 80
5, 89280, Note_on_c, 4, 35, 95
5, 89520, Note_off_c, 4, 35, 80
5, 89520, Note_on_c, 4, 35, 95
5, 89760, Note_off_c, 4, 35, 80
5, 89760, Note_on_c, 4, 35, 95
5, 90000, Note_off_c, 4, 35, 80
5, 90000, Note_on_c, 4, 35, 95
5, 90240, Note_off_c, 4, 35, 80
5, 90240, Note_on_c, 5, 39, 95
5, 90432, Pitch_bend_c, 5, 8832
5, 90480, Pitch_bend_c, 5, 8832
5, 90720, Note_off_c, 5, 39, 80
5, 90720, Pitch_bend_c, 5, 8192
5, 90720, Note_on_c, 4, 40, 95
5, 90960, Note_off_c, 4, 40, 80
5, 90960, Note_on_c, 4, 40, 95
5, 91200, Note_off_c, 4, 40, 80
5, 91200, Note_on_c, 5, 39, 95
5, 91392, Pitch_bend_c, 5, 8832
5, 91440, Pitch_bend_c, 5, 8832
5, 91680, Note_off_c, 5, 39, 80
5, 91680, Pitch_bend_c, 5, 8192
5, 91680, Note_on_c, 4, 40, 95
5, 91920, Note_off_c, 4, 40, 80
5, 91920, Note_on_c, 4, 40, 95
5, 92160, Note_off_c, 4, 40, 80
5, 92400, Note_on_c, 4, 32, 95
5, 92640, Note_off_c, 4, 32, 80
5, 92640, Note_on_c, 4, 32, 95
5, 92880, Note_off_c, 4, 32, 80
5, 92880, Note_on_c, 4, 32, 95
5, 93120, Note_off_c, 4, 32, 80
5, 93120, Note_on_c, 4, 32, 95
5, 93360, Note_off_c, 4, 32, 80
5, 93360, Note_on_c, 4, 32, 95
5, 93600, Note_off_c, 4, 32, 80
5, 93600, Note_on_c, 4, 32, 95
5, 93840, Note_off_c, 4, 32, 80
5, 93840, Note_on_c, 4, 32, 95
5, 94080, Note_off_c, 4, 32, 80
5, 94080, Note_on_c, 5, 39, 95
5, 94272, Pitch_bend_c, 5, 8832
5, 94320, Pitch_bend_c, 5, 8832
5, 94560, Note_off_c, 5, 39, 80
5, 94560, Pitch_bend_c, 5, 8192
5, 94560, Note_on_c, 4, 40, 95
5, 94800, Note_off_c, 4, 40, 80
5, 94800, Note_on_c, 4, 40, 95
5, 95040, Note_off_c, 4, 40, 80
5, 95040, Note_on_c, 5, 39, 95
5, 95232, Pitch_bend_c, 5, 8832
5, 95280, Pitch_bend_c, 5, 8832
5, 95520, Note_off_c, 5, 39, 80
5, 95520, Pitch_bend_c, 5, 8192
5, 95520, Note_on_c, 4, 40, 95
5, 95760, Note_off_c, 4, 40, 80
5, 95760, Note_on_c, 4, 40, 95
5, 96000, Note_off_c, 4, 40, 80
5, 96000, Note_on_c, 4, 32, 95
5, 96240, Note_off_c, 4, 32, 80
5, 96240, Note_on_c, 4, 32, 95
5, 96480, Note_off_c, 4, 32, 80
5, 96480, Note_on_c, 4, 32, 95
5, 96720, Note_off_c, 4, 32, 80
5, 96720, Note_on_c, 4, 32, 95
5, 96960, Note_off_c, 4, 32, 80
5, 96960, Note_on_c, 4, 32, 95
5, 97200, Note_off_c, 4, 32, 80
5, 97200, Note_on_c, 4, 32, 95
5, 97440, Note_off_c, 4, 32, 80
5, 97440, Note_on_c, 4, 32, 95
5, 97680, Note_off_c, 4, 32, 80
5, 97680, Note_on_c, 4, 32, 95
5, 97920, Note_off_c, 4, 32, 80
5, 97920, Note_on_c, 4, 35, 95
5, 98160, Note_off_c, 4, 35, 80
5, 98160, Note_on_c, 4, 35, 95
5, 98400, Note_off_c, 4, 35, 80
5, 98400, Note_on_c, 4, 35, 95
5, 98640, Note_off_c, 4, 35, 80
5, 98640, Note_on_c, 4, 35, 95
5, 98880, Note_off_c, 4, 35, 80
5, 98880, Note_on_c, 4, 35, 95
5, 99120, Note_off_c, 4, 35, 80
5, 99120, Note_on_c, 4, 35, 95
5, 99360, Note_off_c, 4, 35, 80
5, 99360, Note_on_c, 4, 35, 95
5, 99600, Note_off_c, 4, 35, 80
5, 99600, Note_on_c, 5, 35, 95
5, 99780, Pitch_bend_c, 5, 8832
5, 99795, Pitch_bend_c, 5, 9600
5, 99810, Pitch_bend_c, 5, 10240
5, 99825, Pitch_bend_c, 5, 10880
5, 99840, Pitch_bend_c, 5, 11648
5, 100080, Note_off_c, 5, 35, 80
5, 100080, Pitch_bend_c, 5, 8192
5, 100080, Note_on_c, 4, 40, 95
5, 100320, Note_off_c, 4, 40, 80
5, 100320, Note_on_c, 4, 40, 95
5, 100560, Note_off_c, 4, 40, 80
5, 100560, Note_on_c, 4, 40, 95
5, 100800, Note_off_c, 4, 40, 80
5, 100800, Note_on_c, 4, 40, 95
5, 101040, Note_off_c, 4, 40, 80
5, 101040, Note_on_c, 4, 40, 95
5, 101280, Note_off_c, 4, 40, 80
5, 101280, Note_on_c, 4, 40, 95
5, 101520, Note_off_c, 4, 40, 80
5, 101520, Note_on_c, 4, 40, 95
5, 101760, Note_off_c, 4, 40, 80
5, 101760, Note_on_c, 4, 32, 95
5, 102000, Note_off_c, 4, 32, 80
5, 102000, Note_on_c, 4, 32, 95
5, 102240, Note_off_c, 4, 32, 80
5, 102240, Note_on_c, 4, 32, 95
5, 102480, Note_off_c, 4, 32, 80
5, 102480, Note_on_c, 4, 32, 95
5, 102720, Note_off_c, 4, 32, 80
5, 102720, Note_on_c, 4, 32, 95
5, 102960, Note_off_c, 4, 32, 80
5, 102960, Note_on_c, 4, 32, 95
5, 103200, Note_off_c, 4, 32, 80
5, 103200, Note_on_c, 4, 32, 95
5, 103440, Note_off_c, 4, 32, 80
5, 103440, Note_on_c, 4, 32, 95
5, 103680, Note_off_c, 4, 32, 80
5, 103680, Note_on_c, 4, 40, 95
5, 103920, Note_off_c, 4, 40, 80
5, 103920, Note_on_c, 4, 40, 95
5, 104160, Note_off_c, 4, 40, 80
5, 104160, Note_on_c, 4, 40, 95
5, 104400, Note_off_c, 4, 40, 80
5, 104400, Note_on_c, 4, 40, 95
5, 104640, Note_off_c, 4, 40, 80
5, 104640, Note_on_c, 4, 40, 95
5, 104880, Note_off_c, 4, 40, 80
5, 104880, Note_on_c, 4, 40, 95
5, 105120, Note_off_c, 4, 40, 80
5, 105120, Note_on_c, 4, 40, 95
5, 105360, Note_off_c, 4, 40, 80
5, 105360, Note_on_c, 4, 40, 95
5, 105600, Note_off_c, 4, 40, 80
5, 105600, Note_on_c, 4, 32, 95
5, 105840, Note_off_c, 4, 32, 80
5, 105840, Note_on_c, 4, 32, 95
5, 106080, Note_off_c, 4, 32, 80
5, 106080, Note_on_c, 4, 32, 95
5, 106320, Note_off_c, 4, 32, 80
5, 106320, Note_on_c, 4, 32, 95
5, 106560, Note_off_c, 4, 32, 80
5, 106560, Note_on_c, 4, 32, 95
5, 106800, Note_off_c, 4, 32, 80
5, 106800, Note_on_c, 4, 32, 95
5, 107040, Note_off_c, 4, 32, 80
5, 107040, Note_on_c, 4, 32, 95
5, 107280, Note_off_c, 4, 32, 80
5, 107280, Note_on_c, 4, 32, 95
5, 107520, Note_off_c, 4, 32, 80
5, 107520, Note_on_c, 4, 35, 95
5, 107760, Note_off_c, 4, 35, 80
5, 107760, Note_on_c, 4, 35, 95
5, 108000, Note_off_c, 4, 35, 80
5, 108000, Note_on_c, 4, 35, 95
5, 108240, Note_off_c, 4, 35, 80
5, 108240, Note_on_c, 4, 35, 95
5, 108480, Note_off_c, 4, 35, 80
5, 108480, Note_on_c, 4, 35, 95
5, 108720, Note_off_c, 4, 35, 80
5, 108720, Note_on_c, 4, 35, 95
5, 108960, Note_off_c, 4, 35, 80
5, 108960, Note_on_c, 4, 35, 95
5, 109200, Note_off_c, 4, 35, 80
5, 109200, Note_on_c, 5, 35, 95
5, 109380, Pitch_bend_c, 5, 8832
5, 109395, Pitch_bend_c, 5, 9600
5, 109410, Pitch_bend_c, 5, 10240
5, 109425, Pitch_bend_c, 5, 10880
5, 109440, Pitch_bend_c, 5, 11648
5, 109680, Note_off_c, 5, 35, 80
5, 109680, Pitch_bend_c, 5, 8192
5, 109680, Note_on_c, 4, 40, 95
5, 109920, Note_off_c, 4, 40, 80
5, 109920, Note_on_c, 4, 40, 95
5, 110160, Note_off_c, 4, 40, 80
5, 110160, Note_on_c, 4, 40, 95
5, 110400, Note_off_c, 4, 40, 80
5, 110400, Note_on_c, 4, 40, 95
5, 110640, Note_off_c, 4, 40, 80
5, 110640, Note_on_c, 4, 40, 95
5, 110880, Note_off_c, 4, 40, 80
5, 110880, Note_on_c, 4, 40, 95
5, 111120, Note_off_c, 4, 40, 80
5, 111120, Note_on_c, 4, 40, 95
5, 111360, Note_off_c, 4, 40, 80
5, 111360, Note_on_c, 4, 32, 95
5, 111600, Note_off_c, 4, 32, 80
5, 111600, Note_on_c, 4, 32, 95
5, 111840, Note_off_c, 4, 32, 80
5, 111840, Note_on_c, 4, 32, 95
5, 112080, Note_off_c, 4, 32, 80
5, 112080, Note_on_c, 4, 32, 95
5, 112320, Note_off_c, 4, 32, 80
5, 112320, Note_on_c, 4, 32, 95
5, 112560, Note_off_c, 4, 32, 80
5, 112560, Note_on_c, 4, 32, 95
5, 112800, Note_off_c, 4, 32, 80
5, 112800, Note_on_c, 4, 32, 95
5, 113040, Note_off_c, 4, 32, 80
5, 113040, Note_on_c, 4, 32, 95
5, 113280, Note_off_c, 4, 32, 80
5, 113280, Note_on_c, 4, 40, 95
5, 113520, Note_off_c, 4, 40, 80
5, 113520, Note_on_c, 4, 40, 95
5, 113760, Note_off_c, 4, 40, 80
5, 113760, Note_on_c, 4, 40, 95
5, 114000, Note_off_c, 4, 40, 80
5, 114000, Note_on_c, 4, 40, 95
5, 114240, Note_off_c, 4, 40, 80
5, 114240, Note_on_c, 4, 40, 95
5, 114480, Note_off_c, 4, 40, 80
5, 114480, Note_on_c, 4, 40, 95
5, 114720, Note_off_c, 4, 40, 80
5, 114720, Note_on_c, 4, 40, 95
5, 114960, Note_off_c, 4, 40, 80
5, 114960, Note_on_c, 4, 40, 95
5, 115200, Note_off_c, 4, 40, 80
5, 115200, Note_on_c, 4, 32, 95
5, 115440, Note_off_c, 4, 32, 80
5, 115440, Note_on_c, 4, 32, 95
5, 115680, Note_off_c, 4, 32, 80
5, 115680, Note_on_c, 4, 32, 95
5, 115920, Note_off_c, 4, 32, 80
5, 115920, Note_on_c, 4, 32, 95
5, 116160, Note_off_c, 4, 32, 80
5, 116160, Note_on_c, 4, 32, 95
5, 116400, Note_off_c, 4, 32, 80
5, 116400, Note_on_c, 4, 32, 95
5, 116640, Note_off_c, 4, 32, 80
5, 116640, Note_on_c, 4, 32, 95
5, 116880, Note_off_c, 4, 32, 80
5, 116880, Note_on_c, 4, 32, 95
5, 117120, Note_off_c, 4, 32, 80
5, 117120, Note_on_c, 4, 35, 95
5, 117360, Note_off_c, 4, 35, 80
5, 117360, Note_on_c, 4, 35, 95
5, 117600, Note_off_c, 4, 35, 80
5, 117600, Note_on_c, 4, 35, 95
5, 117840, Note_off_c, 4, 35, 80
5, 117840, Note_on_c, 4, 35, 95
5, 118080, Note_off_c, 4, 35, 80
5, 118080, Note_on_c, 4, 35, 95
5, 118320, Note_off_c, 4, 35, 80
5, 118320, Note_on_c, 4, 35, 95
5, 118560, Note_off_c, 4, 35, 80
5, 118560, Note_on_c, 4, 35, 95
5, 118800, Note_off_c, 4, 35, 80
5, 118800, Note_on_c, 5, 35, 95
5, 118980, Pitch_bend_c, 5, 8832
5, 118995, Pitch_bend_c, 5, 9600
5, 119010, Pitch_bend_c, 5, 10240
5, 119025, Pitch_bend_c, 5, 10880
5, 119040, Pitch_bend_c, 5, 11648
5, 119280, Note_off_c, 5, 35, 80
5, 119280, Pitch_bend_c, 5, 8192
5, 119280, Note_on_c, 4, 40, 95
5, 119520, Note_off_c, 4, 40, 80
5, 119520, Note_on_c, 4, 40, 95
5, 119760, Note_off_c, 4, 40, 80
5, 119760, Note_on_c, 4, 40, 95
5, 120000, Note_off_c, 4, 40, 80
5, 120000, Note_on_c, 4, 40, 95
5, 120240, Note_off_c, 4, 40, 80
5, 120240, Note_on_c, 4, 40, 95
5, 120480, Note_off_c, 4, 40, 80
5, 120480, Note_on_c, 4, 40, 95
5, 120720, Note_off_c, 4, 40, 80
5, 120720, Note_on_c, 4, 40, 95
5, 120960, Note_off_c, 4, 40, 80
5, 120960, Note_on_c, 4, 32, 95
5, 121200, Note_off_c, 4, 32, 80
5, 121200, Note_on_c, 4, 32, 95
5, 121440, Note_off_c, 4, 32, 80
5, 121440, Note_on_c, 4, 32, 95
5, 121680, Note_off_c, 4, 32, 80
5, 121680, Note_on_c, 4, 32, 95
5, 121920, Note_off_c, 4, 32, 80
5, 121920, Note_on_c, 4, 32, 95
5, 122160, Note_off_c, 4, 32, 80
5, 122160, Note_on_c, 4, 32, 95
5, 122400, Note_off_c, 4, 32, 80
5, 122400, Note_on_c, 4, 32, 95
5, 122640, Note_off_c, 4, 32, 80
5, 122640, Note_on_c, 4, 32, 95
5, 122880, Note_off_c, 4, 32, 80
5, 122880, Note_on_c, 4, 40, 95
5, 123120, Note_off_c, 4, 40, 80
5, 123120, Note_on_c, 4, 40, 95
5, 123360, Note_off_c, 4, 40, 80
5, 123360, Note_on_c, 4, 40, 95
5, 123600, Note_off_c, 4, 40, 80
5, 123600, Note_on_c, 4, 40, 95
5, 123840, Note_off_c, 4, 40, 80
5, 123840, Note_on_c, 4, 40, 95
5, 124080, Note_off_c, 4, 40, 80
5, 124080, Note_on_c, 4, 40, 95
5, 124320, Note_off_c, 4, 40, 80
5, 124320, Note_on_c, 4, 40, 95
5, 124560, Note_off_c, 4, 40, 80
5, 124560, Note_on_c, 4, 40, 95
5, 124800, Note_off_c, 4, 40, 80
5, 124800, Note_on_c, 4, 32, 95
5, 125040, Note_off_c, 4, 32, 80
5, 125040, Note_on_c, 4, 32, 95
5, 125280, Note_off_c, 4, 32, 80
5, 125280, Note_on_c, 4, 32, 95
5, 125520, Note_off_c, 4, 32, 80
5, 125520, Note_on_c, 4, 32, 95
5, 125760, Note_off_c, 4, 32, 80
5, 125760, Note_on_c, 4, 32, 95
5, 126000, Note_off_c, 4, 32, 80
5, 126000, Note_on_c, 4, 32, 95
5, 126240, Note_off_c, 4, 32, 80
5, 126240, Note_on_c, 4, 32, 95
5, 126480, Note_off_c, 4, 32, 80
5, 126480, Note_on_c, 4, 32, 95
5, 126720, Note_off_c, 4, 32, 80
5, 126720, Note_on_c, 4, 35, 95
5, 126960, Note_off_c, 4, 35, 80
5, 126960, Note_on_c, 4, 35, 95
5, 127200, Note_off_c, 4, 35, 80
5, 127200, Note_on_c, 4, 35, 95
5, 127440, Note_off_c, 4, 35, 80
5, 127440, Note_on_c, 4, 35, 95
5, 127680, Note_off_c, 4, 35, 80
5, 127680, Note_on_c, 4, 35, 95
5, 127920, Note_off_c, 4, 35, 80
5, 127920, Note_on_c, 4, 35, 95
5, 128160, Note_off_c, 4, 35, 80
5, 128160, Note_on_c, 4, 35, 95
5, 128400, Note_off_c, 4, 35, 80
5, 128400, Note_on_c, 5, 35, 95
5, 128580, Pitch_bend_c, 5, 8832
5, 128595, Pitch_bend_c, 5, 9600
5, 128610, Pitch_bend_c, 5, 10240
5, 128625, Pitch_bend_c, 5, 10880
5, 128640, Pitch_bend_c, 5, 11648
5, 128880, Note_off_c, 5, 35, 80
5, 128880, Pitch_bend_c, 5, 8192
5, 128880, Note_on_c, 4, 40, 95
5, 129120, Note_off_c, 4, 40, 80
5, 129120, Note_on_c, 4, 40, 95
5, 129360, Note_off_c, 4, 40, 80
5, 129360, Note_on_c, 4, 40, 95
5, 129600, Note_off_c, 4, 40, 80
5, 129600, Note_on_c, 4, 40, 95
5, 129840, Note_off_c, 4, 40, 80
5, 129840, Note_on_c, 4, 40, 95
5, 130080, Note_off_c, 4, 40, 80
5, 130080, Note_on_c, 4, 40, 95
5, 130320, Note_off_c, 4, 40, 80
5, 130320, Note_on_c, 4, 40, 95
5, 130560, Note_off_c, 4, 40, 80
5, 130560, Note_on_c, 4, 32, 95
5, 130800, Note_off_c, 4, 32, 80
5, 130800, Note_on_c, 4, 32, 95
5, 131040, Note_off_c, 4, 32, 80
5, 131040, Note_on_c, 4, 32, 95
5, 131280, Note_off_c, 4, 32, 80
5, 131280, Note_on_c, 4, 32, 95
5, 131520, Note_off_c, 4, 32, 80
5, 131520, Note_on_c, 4, 32, 95
5, 131760, Note_off_c, 4, 32, 80
5, 131760, Note_on_c, 4, 32, 95
5, 132000, Note_off_c, 4, 32, 80
5, 132000, Note_on_c, 4, 32, 95
5, 132240, Note_off_c, 4, 32, 80
5, 132240, Note_on_c, 4, 32, 95
5, 132480, Note_off_c, 4, 32, 80
5, 132480, Note_on_c, 4, 40, 95
5, 132720, Note_off_c, 4, 40, 80
5, 132720, Note_on_c, 4, 40, 95
5, 132960, Note_off_c, 4, 40, 80
5, 132960, Note_on_c, 4, 40, 95
5, 133200, Note_off_c, 4, 40, 80
5, 133200, Note_on_c, 4, 40, 95
5, 133440, Note_off_c, 4, 40, 80
5, 133440, Note_on_c, 4, 40, 95
5, 133680, Note_off_c, 4, 40, 80
5, 133680, Note_on_c, 4, 40, 95
5, 133920, Note_off_c, 4, 40, 80
5, 133920, Note_on_c, 4, 40, 95
5, 134160, Note_off_c, 4, 40, 80
5, 134160, Note_on_c, 4, 40, 95
5, 134400, Note_off_c, 4, 40, 80
5, 134400, Note_on_c, 4, 32, 95
5, 134640, Note_off_c, 4, 32, 80
5, 134640, Note_on_c, 4, 32, 95
5, 134880, Note_off_c, 4, 32, 80
5, 134880, Note_on_c, 4, 32, 95
5, 135120, Note_off_c, 4, 32, 80
5, 135120, Note_on_c, 4, 32, 95
5, 135360, Note_off_c, 4, 32, 80
5, 135360, Note_on_c, 4, 32, 95
5, 135600, Note_off_c, 4, 32, 80
5, 135600, Note_on_c, 4, 32, 95
5, 135840, Note_off_c, 4, 32, 80
5, 135840, Note_on_c, 4, 32, 95
5, 136080, Note_off_c, 4, 32, 80
5, 136080, Note_on_c, 4, 32, 95
5, 136320, Note_off_c, 4, 32, 80
5, 136320, Note_on_c, 4, 35, 95
5, 136560, Note_off_c, 4, 35, 80
5, 136560, Note_on_c, 4, 35, 95
5, 136800, Note_off_c, 4, 35, 80
5, 136800, Note_on_c, 4, 35, 95
5, 137040, Note_off_c, 4, 35, 80
5, 137040, Note_on_c, 4, 35, 95
5, 137280, Note_off_c, 4, 35, 80
5, 137280, Note_on_c, 4, 35, 95
5, 137520, Note_off_c, 4, 35, 80
5, 137520, Note_on_c, 4, 35, 95
5, 137760, Note_off_c, 4, 35, 80
5, 137760, Note_on_c, 4, 35, 95
5, 138000, Note_off_c, 4, 35, 80
5, 138000, Note_on_c, 4, 35, 95
5, 138240, Note_off_c, 4, 35, 80
5, 138240, Note_on_c, 5, 39, 95
5, 138432, Pitch_bend_c, 5, 8832
5, 138480, Pitch_bend_c, 5, 8832
5, 138720, Note_off_c, 5, 39, 80
5, 138720, Pitch_bend_c, 5, 8192
5, 138720, Note_on_c, 4, 40, 95
5, 138960, Note_off_c, 4, 40, 80
5, 138960, Note_on_c, 4, 40, 95
5, 139200, Note_off_c, 4, 40, 80
5, 139200, Note_on_c, 5, 39, 95
5, 139392, Pitch_bend_c, 5, 8832
5, 139440, Pitch_bend_c, 5, 8832
5, 139680, Note_off_c, 5, 39, 80
5, 139680, Pitch_bend_c, 5, 8192
5, 139680, Note_on_c, 4, 40, 95
5, 139920, Note_off_c, 4, 40, 80
5, 139920, Note_on_c, 4, 40, 95
5, 140160, Note_off_c, 4, 40, 80
5, 140400, Note_on_c, 4, 32, 95
5, 140640, Note_off_c, 4, 32, 80
5, 140640, Note_on_c, 4, 32, 95
5, 140880, Note_off_c, 4, 32, 80
5, 140880, Note_on_c, 4, 32, 95
5, 141120, Note_off_c, 4, 32, 80
5, 141120, Note_on_c, 4, 32, 95
5, 141360, Note_off_c, 4, 32, 80
5, 141360, Note_on_c, 4, 32, 95
5, 141600, Note_off_c, 4, 32, 80
5, 141600, Note_on_c, 4, 32, 95
5, 141840, Note_off_c, 4, 32, 80
5, 141840, Note_on_c, 4, 32, 95
5, 142080, Note_off_c, 4, 32, 80
5, 142080, Note_on_c, 5, 39, 95
5, 142272, Pitch_bend_c, 5, 8832
5, 142320, Pitch_bend_c, 5, 8832
5, 142560, Note_off_c, 5, 39, 80
5, 142560, Pitch_bend_c, 5, 8192
5, 142560, Note_on_c, 4, 40, 95
5, 142800, Note_off_c, 4, 40, 80
5, 142800, Note_on_c, 4, 40, 95
5, 143040, Note_off_c, 4, 40, 80
5, 143040, Note_on_c, 5, 39, 95
5, 143232, Pitch_bend_c, 5, 8832
5, 143280, Pitch_bend_c, 5, 8832
5, 143520, Note_off_c, 5, 39, 80
5, 143520, Pitch_bend_c, 5, 8192
5, 143520, Note_on_c, 4, 40, 95
5, 143760, Note_off_c, 4, 40, 80
5, 143760, Note_on_c, 4, 40, 95
5, 144000, Note_off_c, 4, 40, 80
5, 144000, Note_on_c, 4, 32, 95
5, 144240, Note_off_c, 4, 32, 80
5, 144240, Note_on_c, 4, 32, 95
5, 144480, Note_off_c, 4, 32, 80
5, 144480, Note_on_c, 4, 32, 95
5, 144720, Note_off_c, 4, 32, 80
5, 144720, Note_on_c, 4, 32, 95
5, 144960, Note_off_c, 4, 32, 80
5, 144960, Note_on_c, 4, 32, 95
5, 145200, Note_off_c, 4, 32, 80
5, 145200, Note_on_c, 4, 32, 95
5, 145440, Note_off_c, 4, 32, 80
5, 145440, Note_on_c, 4, 32, 95
5, 145680, Note_off_c, 4, 32, 80
5, 145680, Note_on_c, 4, 32, 95
5, 145920, Note_off_c, 4, 32, 80
5, 145920, Note_on_c, 4, 35, 95
5, 146160, Note_off_c, 4, 35, 80
5, 146160, Note_on_c, 4, 35, 95
5, 146400, Note_off_c, 4, 35, 80
5, 146400, Note_on_c, 4, 35, 95
5, 146640, Note_off_c, 4, 35, 80
5, 146640, Note_on_c, 4, 35, 95
5, 146880, Note_off_c, 4, 35, 80
5, 146880, Note_on_c, 4, 35, 95
5, 147120, Note_off_c, 4, 35, 80
5, 147120, Note_on_c, 4, 35, 95
5, 147360, Note_off_c, 4, 35, 80
5, 147360, Note_on_c, 4, 35, 95
5, 147600, Note_off_c, 4, 35, 80
5, 147600, Note_on_c, 4, 35, 95
5, 147840, Note_off_c, 4, 35, 80
5, 147840, Note_on_c, 5, 39, 95
5, 148032, Pitch_bend_c, 5, 8832
5, 148080, Pitch_bend_c, 5, 8832
5, 148320, Note_off_c, 5, 39, 80
5, 148320, Pitch_bend_c, 5, 8192
5, 148320, Note_on_c, 4, 40, 95
5, 148560, Note_off_c, 4, 40, 80
5, 148560, Note_on_c, 4, 40, 95
5, 148800, Note_off_c, 4, 40, 80
5, 148800, Note_on_c, 5, 39, 95
5, 148992, Pitch_bend_c, 5, 8832
5, 149040, Pitch_bend_c, 5, 8832
5, 149280, Note_off_c, 5, 39, 80
5, 149280, Pitch_bend_c, 5, 8192
5, 149280, Note_on_c, 4, 40, 95
5, 149520, Note_off_c, 4, 40, 80
5, 149520, Note_on_c, 4, 40, 95
5, 149760, Note_off_c, 4, 40, 80
5, 150000, Note_on_c, 4, 32, 95
5, 150240, Note_off_c, 4, 32, 80
5, 150240, Note_on_c, 4, 32, 95
5, 150480, Note_off_c, 4, 32, 80
5, 150480, Note_on_c, 4, 32, 95
5, 150720, Note_off_c, 4, 32, 80
5, 150720, Note_on_c, 4, 32, 95
5, 150960, Note_off_c, 4, 32, 80
5, 150960, Note_on_c, 4, 32, 95
5, 151200, Note_off_c, 4, 32, 80
5, 151200, Note_on_c, 4, 32, 95
5, 151440, Note_off_c, 4, 32, 80
5, 151440, Note_on_c, 4, 32, 95
5, 151680, Note_off_c, 4, 32, 80
5, 151680, Note_on_c, 5, 39, 95
5, 151872, Pitch_bend_c, 5, 8832
5, 151920, Pitch_bend_c, 5, 8832
5, 152160, Note_off_c, 5, 39, 80
5, 152160, Pitch_bend_c, 5, 8192
5, 152160, Note_on_c, 4, 40, 95
5, 152400, Note_off_c, 4, 40, 80
5, 152400, Note_on_c, 4, 40, 95
5, 152640, Note_off_c, 4, 40, 80
5, 152640, Note_on_c, 5, 39, 95
5, 152832, Pitch_bend_c, 5, 8832
5, 152880, Pitch_bend_c, 5, 8832
5, 153120, Note_off_c, 5, 39, 80
5, 153120, Pitch_bend_c, 5, 8192
5, 153120, Note_on_c, 4, 40, 95
5, 153360, Note_off_c, 4, 40, 80
5, 153360, Note_on_c, 4, 40, 95
5, 153600, Note_off_c, 4, 40, 80
5, 153600, Note_on_c, 4, 32, 95
5, 153840, Note_off_c, 4, 32, 80
5, 153840, Note_on_c, 4, 32, 95
5, 154080, Note_off_c, 4, 32, 80
5, 154080, Note_on_c, 4, 32, 95
5, 154320, Note_off_c, 4, 32, 80
5, 154320, Note_on_c, 4, 32, 95
5, 154560, Note_off_c, 4, 32, 80
5, 154560, Note_on_c, 4, 32, 95
5, 154800, Note_off_c, 4, 32, 80
5, 154800, Note_on_c, 4, 32, 95
5, 155040, Note_off_c, 4, 32, 80
5, 155040, Note_on_c, 4, 32, 95
5, 155280, Note_off_c, 4, 32, 80
5, 155280, Note_on_c, 4, 32, 95
5, 155520, Note_off_c, 4, 32, 80
5, 155520, Note_on_c, 4, 35, 95
5, 155760, Note_off_c, 4, 35, 80
5, 155760, Note_on_c, 4, 35, 95
5, 156000, Note_off_c, 4, 35, 80
5, 156000, Note_on_c, 4, 35, 95
5, 156240, Note_off_c, 4, 35, 80
5, 156240, Note_on_c, 4, 35, 95
5, 156480, Note_off_c, 4, 35, 80
5, 156480, Note_on_c, 4, 35, 95
5, 156720, Note_off_c, 4, 35, 80
5, 156720, Note_on_c, 4, 35, 95
5, 156960, Note_off_c, 4, 35, 80
5, 156960, Note_on_c, 4, 35, 95
5, 157200, Note_off_c, 4, 35, 80
5, 157200, Note_on_c, 4, 35, 95
5, 157440, Note_off_c, 4, 35, 80
5, 157440, Note_on_c, 5, 39, 95
5, 157632, Pitch_bend_c, 5, 8832
5, 157680, Pitch_bend_c, 5, 8832
5, 157920, Note_off_c, 5, 39, 80
5, 157920, Pitch_bend_c, 5, 8192
5, 157920, Note_on_c, 4, 40, 95
5, 158160, Note_off_c, 4, 40, 80
5, 158160, Note_on_c, 4, 40, 95
5, 158400, Note_off_c, 4, 40, 80
5, 158400, Note_on_c, 5, 39, 95
5, 158592, Pitch_bend_c, 5, 8832
5, 158640, Pitch_bend_c, 5, 8832
5, 158880, Note_off_c, 5, 39, 80
5, 158880, Pitch_bend_c, 5, 8192
5, 158880, Note_on_c, 4, 40, 95
5, 159120, Note_off_c, 4, 40, 80
5, 159120, Note_on_c, 4, 40, 95
5, 159360, Note_off_c, 4, 40, 80
5, 159600, Note_on_c, 4, 32, 95
5, 159840, Note_off_c, 4, 32, 80
5, 159840, Note_on_c, 4, 32, 95
5, 160080, Note_off_c, 4, 32, 80
5, 160080, Note_on_c, 4, 32, 95
5, 160320, Note_off_c, 4, 32, 80
5, 160320, Note_on_c, 4, 32, 95
5, 160560, Note_off_c, 4, 32, 80
5, 160560, Note_on_c, 4, 32, 95
5, 160800, Note_off_c, 4, 32, 80
5, 160800, Note_on_c, 4, 32, 95
5, 161040, Note_off_c, 4, 32, 80
5, 161040, Note_on_c, 4, 32, 95
5, 161280, Note_off_c, 4, 32, 80
5, 161280, Note_on_c, 5, 39, 95
5, 161472, Pitch_bend_c, 5, 8832
5, 161520, Pitch_bend_c, 5, 8832
5, 161760, Note_off_c, 5, 39, 80
5, 161760, Pitch_bend_c, 5, 8192
5, 161760, Note_on_c, 4, 40, 95
5, 162000, Note_off_c, 4, 40, 80
5, 162000, Note_on_c, 4, 40, 95
5, 162240, Note_off_c, 4, 40, 80
5, 162240, Note_on_c, 5, 39, 95
5, 162432, Pitch_bend_c, 5, 8832
5, 162480, Pitch_bend_c, 5, 8832
5, 162720, Note_off_c, 5, 39, 80
5, 162720, Pitch_bend_c, 5, 8192
5, 162720, Note_on_c, 4, 40, 95
5, 162960, Note_off_c, 4, 40, 80
5, 162960, Note_on_c, 4, 40, 95
5, 163200, Note_off_c, 4, 40, 80
5, 163200, Note_on_c, 4, 32, 95
5, 165120, Note_off_c, 4, 32, 80
5, 165120, End_track
6, 0, Start_track
6, 0, Title_t, "Chant (Black Francis)"
6, 0, Control_c, 7, 100, 0
6, 0, Control_c, 7, 101, 0
6, 0, Control_c, 7, 6, 12
6, 0, Pitch_bend_c, 7, 8192
6, 0, Control_c, 7, 101, 0
6, 0, Control_c, 7, 100, 1
6, 0, Control_c, 7, 6, 64
6, 0, Control_c, 7, 38, 0
6, 0, Control_c, 7, 101, 127
6, 0, Control_c, 7, 100, 127
6, 0, Control_c, 6, 100, 0
6, 0, Control_c, 6, 101, 0
6, 0, Control_c, 6, 6, 12
6, 0, Pitch_bend_c, 6, 8192
6, 0, Control_c, 6, 101, 0
6, 0, Control_c, 6, 100, 1
6, 0, Control_c, 6, 6, 64
6, 0, Control_c, 6, 38, 0
6, 0, Control_c, 6, 101, 127
6, 0, Control_c, 6, 100, 127
6, 0, Control_c, 7, 101, 0
6, 0, Control_c, 7, 100, 2
6, 0, Control_c, 7, 6, 64
6, 0, Control_c, 7, 101, 127
6, 0, Control_c, 7, 100, 127
6, 0, Control_c, 6, 101, 0
6, 0, Control_c, 6, 100, 2
6, 0, Control_c, 6, 6, 64
6, 0, Control_c, 6, 101, 127
6, 0, Control_c, 6, 100, 127
6, 0, Program_c, 7, 24
6, 0, Program_c, 6, 24
6, 0, Control_c, 7, 0, 0
6, 0, Control_c, 6, 0, 0
6, 0, Control_c, 7, 7, 0
6, 0, Control_c, 6, 7, 0
6, 0, Control_c, 7, 10, 64
6, 0, Control_c, 6, 10, 64
6, 0, Control_c, 7, 93, 0
6, 0, Control_c, 6, 93, 0
6, 0, Control_c, 7, 91, 0
6, 0, Control_c, 6, 91, 0
6, 0, Control_c, 7, 92, 0
6, 0, Control_c, 6, 92, 0
6, 0, Control_c, 7, 95, 0
6, 0, Control_c, 6, 95, 0
6, 0, End_track
7, 0, Start_track
7, 0, Title_t, "Kim (humming)"
7, 0, Control_c, 10, 100, 0
7, 0, Control_c, 10, 101, 0
7, 0, Control_c, 10, 6, 12
7, 0, Pitch_bend_c, 10, 8192
7, 0, Control_c, 10, 101, 0
7, 0, Control_c, 10, 100, 1
7, 0, Control_c, 10, 6, 64
7, 0, Control_c, 10, 38, 0
7, 0, Control_c, 10, 101, 127
7, 0, Control_c, 10, 100, 127
7, 0, Control_c, 8, 100, 0
7, 0, Control_c, 8, 101, 0
7, 0, Control_c, 8, 6, 12
7, 0, Pitch_bend_c, 8, 8192
7, 0, Control_c, 8, 101, 0
7, 0, Control_c, 8, 100, 1
7, 0, Control_c, 8, 6, 64
7, 0, Control_c, 8, 38, 0
7, 0, Control_c, 8, 101, 127
7, 0, Control_c, 8, 100, 127
7, 0, Control_c, 10, 101, 0
7, 0, Control_c, 10, 100, 2
7, 0, Control_c, 10, 6, 64
7, 0, Control_c, 10, 101, 127
7, 0, Control_c, 10, 100, 127
7, 0, Control_c, 8, 101, 0
7, 0, Control_c, 8, 100, 2
7, 0, Control_c, 8, 6, 64
7, 0, Control_c, 8, 101, 127
7, 0, Control_c, 8, 100, 127
7, 0, Program_c, 10, 54
7, 0, Program_c, 8, 54
7, 0, Control_c, 10, 0, 0
7, 0, Control_c, 8, 0, 0
7, 0, Control_c, 10, 7, 104
7, 0, Control_c, 8, 7, 104
7, 0, Control_c, 10, 10, 104
7, 0, Control_c, 8, 10, 104
7, 0, Control_c, 10, 93, 0
7, 0, Control_c, 8, 93, 0
7, 0, Control_c, 10, 91, 0
7, 0, Control_c, 8, 91, 0
7, 0, Control_c, 10, 92, 0
7, 0, Control_c, 8, 92, 0
7, 0, Control_c, 10, 95, 0
7, 0, Control_c, 8, 95, 0
7, 20160, Note_on_c, 8, 54, 95
7, 20400, Note_off_c, 8, 54, 80
7, 20400, Note_on_c, 8, 56, 95
7, 20880, Note_off_c, 8, 56, 80
7, 20880, Note_on_c, 8, 56, 95
7, 21840, Note_off_c, 8, 56, 80
7, 22080, Note_on_c, 8, 54, 95
7, 22320, Note_off_c, 8, 54, 80
7, 22320, Note_on_c, 8, 56, 95
7, 22800, Note_off_c, 8, 56, 80
7, 22800, Note_on_c, 8, 59, 95
7, 24960, Note_off_c, 8, 59, 80
7, 24960, Note_on_c, 8, 56, 95
7, 25680, Note_off_c, 8, 56, 80
7, 25920, Note_on_c, 8, 54, 95
7, 26160, Note_off_c, 8, 54, 80
7, 26160, Note_on_c, 8, 56, 95
7, 26640, Note_off_c, 8, 56, 80
7, 26640, Note_on_c, 8, 56, 95
7, 27600, Note_off_c, 8, 56, 80
7, 58560, Note_on_c, 8, 56, 95
7, 58800, Note_off_c, 8, 56, 80
7, 58800, Note_on_c, 8, 56, 95
7, 59280, Note_off_c, 8, 56, 80
7, 59280, Note_on_c, 8, 56, 95
7, 60000, Note_off_c, 8, 56, 80
7, 67200, Note_on_c, 8, 68, 95
7, 69120, Note_off_c, 8, 68, 80
7, 69120, Note_on_c, 8, 66, 95
7, 71040, Note_off_c, 8, 66, 80
7, 71040, Note_on_c, 8, 64, 95
7, 72960, Note_off_c, 8, 64, 80
7, 72960, Note_on_c, 8, 63, 95
7, 74880, Note_off_c, 8, 63, 80
7, 74880, Note_on_c, 8, 61, 95
7, 76800, Note_off_c, 8, 61, 80
7, 76800, Note_on_c, 8, 56, 95
7, 78720, Note_off_c, 8, 56, 80
7, 96000, Note_on_c, 8, 63, 95
7, 99840, Note_off_c, 8, 63, 80
7, 99840, Note_on_c, 8, 62, 95
7, 101760, Note_off_c, 8, 62, 80
7, 101760, Note_on_c, 8, 63, 95
7, 103680, Note_off_c, 8, 63, 80
7, 103680, Note_on_c, 8, 62, 95
7, 105600, Note_off_c, 8, 62, 80
7, 105600, Note_on_c, 8, 63, 95
7, 107520, Note_off_c, 8, 63, 80
7, 118080, Note_on_c, 8, 54, 95
7, 118320, Note_off_c, 8, 54, 80
7, 118320, Note_on_c, 8, 56, 95
7, 118800, Note_off_c, 8, 56, 80
7, 118800, Note_on_c, 8, 59, 95
7, 120960, Note_off_c, 8, 59, 80
7, 146880, Note_on_c, 8, 68, 95
7, 147120, Note_off_c, 8, 68, 80
7, 147120, Note_on_c, 8, 68, 95
7, 147600, Note_off_c, 8, 68, 80
7, 147600, Note_on_c, 8, 68, 95
7, 148320, Note_off_c, 8, 68, 80
7, 148320, End_track
8, 0, Start_track
8, 0, Title_t, "David"
8, 0, Control_c, 9, 100, 0
8, 0, Control_c, 9, 101, 0
8, 0, Control_c, 9, 6, 12
8, 0, Pitch_bend_c, 9, 8192
8, 0, Control_c, 9, 101, 0
8, 0, Control_c, 9, 100, 1
8, 0, Control_c, 9, 6, 64
8, 0, Control_c, 9, 38, 0
8, 0, Control_c, 9, 101, 127
8, 0, Control_c, 9, 100, 127
8, 0, Program_c, 9, 0
8, 0, Control_c, 9, 0, 0
8, 0, Control_c, 9, 7, 112
8, 0, Control_c, 9, 10, 72
8, 0, Control_c, 9, 93, 0
8, 0, Control_c, 9, 91, 0
8, 0, Control_c, 9, 92, 0
8, 0, Control_c, 9, 95, 0
8, 0, Note_on_c, 9, 42, 95
8, 0, Note_on_c, 9, 36, 95
8, 240, Note_off_c, 9, 42, 80
8, 240, Note_off_c, 9, 36, 80
8, 240, Note_on_c, 9, 42, 95
8, 480, Note_off_c, 9, 42, 80
8, 480, Note_on_c, 9, 42, 95
8, 480, Note_on_c, 9, 40, 95
8, 720, Note_off_c, 9, 42, 80
8, 720, Note_off_c, 9, 40, 80
8, 720, Note_on_c, 9, 42, 95
8, 960, Note_off_c, 9, 42, 80
8, 960, Note_on_c, 9, 42, 95
8, 960, Note_on_c, 9, 36, 95
8, 1200, Note_off_c, 9, 42, 80
8, 1200, Note_off_c, 9, 36, 80
8, 1200, Note_on_c, 9, 42, 95
8, 1440, Note_off_c, 9, 42, 80
8, 1440, Note_on_c, 9, 42, 95
8, 1440, Note_on_c, 9, 40, 95
8, 1680, Note_off_c, 9, 42, 80
8, 1680, Note_off_c, 9, 40, 80
8, 1680, Note_on_c, 9, 42, 95
8, 1920, Note_off_c, 9, 42, 80
8, 1920, Note_on_c, 9, 42, 95
8, 1920, Note_on_c, 9, 36, 95
8, 2160, Note_off_c, 9, 42, 80
8, 2160, Note_off_c, 9, 36, 80
8, 2160, Note_on_c, 9, 42, 95
8, 2400, Note_off_c, 9, 42, 80
8, 2400, Note_on_c, 9, 42, 95
8, 2400, Note_on_c, 9, 40, 95
8, 2640, Note_off_c, 9, 42, 80
8, 2640, Note_off_c, 9, 40, 80
8, 2640, Note_on_c, 9, 42, 95
8, 2880, Note_off_c, 9, 42, 80
8, 2880, Note_on_c, 9, 42, 95
8, 2880, Note_on_c, 9, 36, 95
8, 3120, Note_off_c, 9, 42, 80
8, 3120, Note_off_c, 9, 36, 80
8, 3120, Note_on_c, 9, 42, 95
8, 3360, Note_off_c, 9, 42, 80
8, 3360, Note_on_c, 9, 42, 95
8, 3360, Note_on_c, 9, 40, 95
8, 3600, Note_off_c, 9, 42, 80
8, 3600, Note_off_c, 9, 40, 80
8, 3600, Note_on_c, 9, 42, 95
8, 3840, Note_off_c, 9, 42, 80
8, 3840, Note_on_c, 9, 42, 95
8, 3840, Note_on_c, 9, 36, 95
8, 4080, Note_off_c, 9, 42, 80
8, 4080, Note_off_c, 9, 36, 80
8, 4080, Note_on_c, 9, 42, 95
8, 4320, Note_off_c, 9, 42, 80
8, 4320, Note_on_c, 9, 42, 95
8, 4320, Note_on_c, 9, 40, 95
8, 4560, Note_off_c, 9, 42, 80
8, 4560, Note_off_c, 9, 40, 80
8, 4560, Note_on_c, 9, 42, 95
8, 4800, Note_off_c, 9, 42, 80
8, 4800, Note_on_c, 9, 42, 95
8, 4800, Note_on_c, 9, 36, 95
8, 5040, Note_off_c, 9, 42, 80
8, 5040, Note_off_c, 9, 36, 80
8, 5040, Note_on_c, 9, 42, 95
8, 5280, Note_off_c, 9, 42, 80
8, 5280, Note_on_c, 9, 42, 95
8, 5280, Note_on_c, 9, 40, 95
8, 5520, Note_off_c, 9, 42, 80
8, 5520, Note_off_c, 9, 40, 80
8, 5520, Note_on_c, 9, 42, 95
8, 5760, Note_off_c, 9, 42, 80
8, 5760, Note_on_c, 9, 42, 95
8, 5760, Note_on_c, 9, 36, 95
8, 6000, Note_off_c, 9, 42, 80
8, 6000, Note_off_c, 9, 36, 80
8, 6000, Note_on_c, 9, 42, 95
8, 6240, Note_off_c, 9, 42, 80
8, 6240, Note_on_c, 9, 42, 95
8, 6240, Note_on_c, 9, 40, 95
8, 6480, Note_off_c, 9, 42, 80
8, 6480, Note_off_c, 9, 40, 80
8, 6480, Note_on_c, 9, 42, 95
8, 6720, Note_off_c, 9, 42, 80
8, 6720, Note_on_c, 9, 42, 95
8, 6720, Note_on_c, 9, 36, 95
8, 6960, Note_off_c, 9, 42, 80
8, 6960, Note_off_c, 9, 36, 80
8, 6960, Note_on_c, 9, 42, 95
8, 7200, Note_off_c, 9, 42, 80
8, 7200, Note_on_c, 9, 42, 95
8, 7200, Note_on_c, 9, 40, 95
8, 7440, Note_off_c, 9, 42, 80
8, 7440, Note_off_c, 9, 40, 80
8, 7440, Note_on_c, 9, 42, 95
8, 7680, Note_off_c, 9, 42, 80
8, 7680, Note_on_c, 9, 42, 95
8, 7680, Note_on_c, 9, 36, 95
8, 7920, Note_off_c, 9, 42, 80
8, 7920, Note_off_c, 9, 36, 80
8, 7920, Note_on_c, 9, 42, 95
8, 8160, Note_off_c, 9, 42, 80
8, 8160, Note_on_c, 9, 42, 95
8, 8160, Note_on_c, 9, 40, 95
8, 8400, Note_off_c, 9, 42, 80
8, 8400, Note_off_c, 9, 40, 80
8, 8400, Note_on_c, 9, 42, 95
8, 8640, Note_off_c, 9, 42, 80
8, 8640, Note_on_c, 9, 42, 95
8, 8640, Note_on_c, 9, 36, 95
8, 8880, Note_off_c, 9, 42, 80
8, 8880, Note_off_c, 9, 36, 80
8, 8880, Note_on_c, 9, 42, 95
8, 9120, Note_off_c, 9, 42, 80
8, 9120, Note_on_c, 9, 42, 95
8, 9120, Note_on_c, 9, 40, 95
8, 9360, Note_off_c, 9, 42, 80
8, 9360, Note_off_c, 9, 40, 80
8, 9360, Note_on_c, 9, 42, 95
8, 9600, Note_off_c, 9, 42, 80
8, 9600, Note_on_c, 9, 51, 95
8, 9600, Note_on_c, 9, 36, 95
8, 9840, Note_off_c, 9, 51, 80
8, 9840, Note_off_c, 9, 36, 80
8, 9840, Note_on_c, 9, 51, 95
8, 10080, Note_off_c, 9, 51, 80
8, 10080, Note_on_c, 9, 51, 95
8, 10080, Note_on_c, 9, 40, 95
8, 10320, Note_off_c, 9, 51, 80
8, 10320, Note_off_c, 9, 40, 80
8, 10320, Note_on_c, 9, 51, 95
8, 10560, Note_off_c, 9, 51, 80
8, 10560, Note_on_c, 9, 51, 95
8, 10560, Note_on_c, 9, 36, 95
8, 10800, Note_off_c, 9, 51, 80
8, 10800, Note_off_c, 9, 36, 80
8, 10800, Note_on_c, 9, 51, 95
8, 11040, Note_off_c, 9, 51, 80
8, 11040, Note_on_c, 9, 51, 95
8, 11040, Note_on_c, 9, 40, 95
8, 11280, Note_off_c, 9, 51, 80
8, 11280, Note_off_c, 9, 40, 80
8, 11280, Note_on_c, 9, 51, 95
8, 11520, Note_off_c, 9, 51, 80
8, 11520, Note_on_c, 9, 51, 95
8, 11520, Note_on_c, 9, 36, 95
8, 11760, Note_off_c, 9, 51, 80
8, 11760, Note_off_c, 9, 36, 80
8, 11760, Note_on_c, 9, 51, 95
8, 12000, Note_off_c, 9, 51, 80
8, 12000, Note_on_c, 9, 51, 95
8, 12000, Note_on_c, 9, 40, 95
8, 12240, Note_off_c, 9, 51, 80
8, 12240, Note_off_c, 9, 40, 80
8, 12240, Note_on_c, 9, 51, 95
8, 12480, Note_off_c, 9, 51, 80
8, 12480, Note_on_c, 9, 51, 95
8, 12480, Note_on_c, 9, 36, 95
8, 12720, Note_off_c, 9, 51, 80
8, 12720, Note_off_c, 9, 36, 80
8, 12720, Note_on_c, 9, 51, 95
8, 12960, Note_off_c, 9, 51, 80
8, 12960, Note_on_c, 9, 51, 95
8, 12960, Note_on_c, 9, 40, 95
8, 13200, Note_off_c, 9, 51, 80
8, 13200, Note_off_c, 9, 40, 80
8, 13200, Note_on_c, 9, 51, 95
8, 13440, Note_off_c, 9, 51, 80
8, 13440, Note_on_c, 9, 51, 95
8, 13440, Note_on_c, 9, 36, 95
8, 13680, Note_off_c, 9, 51, 80
8, 13680, Note_off_c, 9, 36, 80
8, 13680, Note_on_c, 9, 51, 95
8, 13920, Note_off_c, 9, 51, 80
8, 13920, Note_on_c, 9, 51, 95
8, 13920, Note_on_c, 9, 40, 95
8, 14160, Note_off_c, 9, 51, 80
8, 14160, Note_off_c, 9, 40, 80
8, 14160, Note_on_c, 9, 51, 95
8, 14400, Note_off_c, 9, 51, 80
8, 14400, Note_on_c, 9, 51, 95
8, 14400, Note_on_c, 9, 36, 95
8, 14640, Note_off_c, 9, 51, 80
8, 14640, Note_off_c, 9, 36, 80
8, 14640, Note_on_c, 9, 51, 95
8, 14880, Note_off_c, 9, 51, 80
8, 14880, Note_on_c, 9, 51, 95
8, 14880, Note_on_c, 9, 40, 95
8, 15120, Note_off_c, 9, 51, 80
8, 15120, Note_off_c, 9, 40, 80
8, 15120, Note_on_c, 9, 51, 95
8, 15360, Note_off_c, 9, 51, 80
8, 15360, Note_on_c, 9, 51, 95
8, 15360, Note_on_c, 9, 36, 95
8, 15600, Note_off_c, 9, 51, 80
8, 15600, Note_off_c, 9, 36, 80
8, 15600, Note_on_c, 9, 51, 95
8, 15840, Note_off_c, 9, 51, 80
8, 15840, Note_on_c, 9, 51, 95
8, 15840, Note_on_c, 9, 40, 95
8, 16080, Note_off_c, 9, 51, 80
8, 16080, Note_off_c, 9, 40, 80
8, 16080, Note_on_c, 9, 51, 95
8, 16320, Note_off_c, 9, 51, 80
8, 16320, Note_on_c, 9, 51, 95
8, 16320, Note_on_c, 9, 36, 95
8, 16560, Note_off_c, 9, 51, 80
8, 16560, Note_off_c, 9, 36, 80
8, 16560, Note_on_c, 9, 51, 95
8, 16800, Note_off_c, 9, 51, 80
8, 16800, Note_on_c, 9, 51, 95
8, 16800, Note_on_c, 9, 40, 95
8, 17040, Note_off_c, 9, 51, 80
8, 17040, Note_off_c, 9, 40, 80
8, 17040, Note_on_c, 9, 51, 95
8, 17280, Note_off_c, 9, 51, 80
8, 17280, Note_on_c, 9, 51, 95
8, 17280, Note_on_c, 9, 36, 95
8, 17520, Note_off_c, 9, 51, 80
8, 17520, Note_off_c, 9, 36, 80
8, 17520, Note_on_c, 9, 51, 95
8, 17760, Note_off_c, 9, 51, 80
8, 17760, Note_on_c, 9, 51, 95
8, 17760, Note_on_c, 9, 40, 95
8, 18000, Note_off_c, 9, 51, 80
8, 18000, Note_off_c, 9, 40, 80
8, 18000, Note_on_c, 9, 51, 95
8, 18240, Note_off_c, 9, 51, 80
8, 18240, Note_on_c, 9, 51, 95
8, 18240, Note_on_c, 9, 36, 95
8, 18480, Note_off_c, 9, 51, 80
8, 18480, Note_off_c, 9, 36, 80
8, 18480, Note_on_c, 9, 51, 95
8, 18720, Note_off_c, 9, 51, 80
8, 18720, Note_on_c, 9, 51, 95
8, 18720, Note_on_c, 9, 40, 95
8, 18960, Note_off_c, 9, 51, 80
8, 18960, Note_off_c, 9, 40, 80
8, 18960, Note_on_c, 9, 46, 95
8, 19200, Note_off_c, 9, 46, 80
8, 19200, Note_on_c, 9, 44, 95
8, 19200, Note_on_c, 9, 36, 95
8, 19440, Note_off_c, 9, 44, 80
8, 19440, Note_off_c, 9, 36, 80
8, 19440, Note_on_c, 9, 42, 95
8, 19680, Note_off_c, 9, 42, 80
8, 19680, Note_on_c, 9, 42, 95
8, 19680, Note_on_c, 9, 40, 95
8, 19920, Note_off_c, 9, 42, 80
8, 19920, Note_off_c, 9, 40, 80
8, 19920, Note_on_c, 9, 42, 95
8, 20160, Note_off_c, 9, 42, 80
8, 20160, Note_on_c, 9, 42, 95
8, 20160, Note_on_c, 9, 36, 95
8, 20400, Note_off_c, 9, 42, 80
8, 20400, Note_off_c, 9, 36, 80
8, 20400, Note_on_c, 9, 42, 95
8, 20640, Note_off_c, 9, 42, 80
8, 20640, Note_on_c, 9, 42, 95
8, 20640, Note_on_c, 9, 40, 95
8, 20880, Note_off_c, 9, 42, 80
8, 20880, Note_off_c, 9, 40, 80
8, 20880, Note_on_c, 9, 42, 95
8, 21120, Note_off_c, 9, 42, 80
8, 21120, Note_on_c, 9, 42, 95
8, 21120, Note_on_c, 9, 36, 95
8, 21360, Note_off_c, 9, 42, 80
8, 21360, Note_off_c, 9, 36, 80
8, 21360, Note_on_c, 9, 42, 95
8, 21600, Note_off_c, 9, 42, 80
8, 21600, Note_on_c, 9, 42, 95
8, 21600, Note_on_c, 9, 40, 95
8, 21840, Note_off_c, 9, 42, 80
8, 21840, Note_off_c, 9, 40, 80
8, 21840, Note_on_c, 9, 42, 95
8, 22080, Note_off_c, 9, 42, 80
8, 22080, Note_on_c, 9, 42, 95
8, 22080, Note_on_c, 9, 36, 95
8, 22320, Note_off_c, 9, 42, 80
8, 22320, Note_off_c, 9, 36, 80
8, 22320, Note_on_c, 9, 42, 95
8, 22560, Note_off_c, 9, 42, 80
8, 22560, Note_on_c, 9, 42, 95
8, 22560, Note_on_c, 9, 40, 95
8, 22800, Note_off_c, 9, 42, 80
8, 22800, Note_off_c, 9, 40, 80
8, 22800, Note_on_c, 9, 42, 95
8, 23040, Note_off_c, 9, 42, 80
8, 23040, Note_on_c, 9, 42, 95
8, 23040, Note_on_c, 9, 36, 95
8, 23280, Note_off_c, 9, 42, 80
8, 23280, Note_off_c, 9, 36, 80
8, 23280, Note_on_c, 9, 42, 95
8, 23520, Note_off_c, 9, 42, 80
8, 23520, Note_on_c, 9, 42, 95
8, 23520, Note_on_c, 9, 40, 95
8, 23760, Note_off_c, 9, 42, 80
8, 23760, Note_off_c, 9, 40, 80
8, 23760, Note_on_c, 9, 42, 95
8, 24000, Note_off_c, 9, 42, 80
8, 24000, Note_on_c, 9, 42, 95
8, 24000, Note_on_c, 9, 36, 95
8, 24240, Note_off_c, 9, 42, 80
8, 24240, Note_off_c, 9, 36, 80
8, 24240, Note_on_c, 9, 42, 95
8, 24480, Note_off_c, 9, 42, 80
8, 24480, Note_on_c, 9, 42, 95
8, 24480, Note_on_c, 9, 40, 95
8, 24720, Note_off_c, 9, 42, 80
8, 24720, Note_off_c, 9, 40, 80
8, 24720, Note_on_c, 9, 42, 95
8, 24960, Note_off_c, 9, 42, 80
8, 24960, Note_on_c, 9, 42, 95
8, 24960, Note_on_c, 9, 36, 95
8, 25200, Note_off_c, 9, 42, 80
8, 25200, Note_off_c, 9, 36, 80
8, 25200, Note_on_c, 9, 42, 95
8, 25440, Note_off_c, 9, 42, 80
8, 25440, Note_on_c, 9, 42, 95
8, 25440, Note_on_c, 9, 40, 95
8, 25680, Note_off_c, 9, 42, 80
8, 25680, Note_off_c, 9, 40, 80
8, 25680, Note_on_c, 9, 42, 95
8, 25920, Note_off_c, 9, 42, 80
8, 25920, Note_on_c, 9, 42, 95
8, 25920, Note_on_c, 9, 36, 95
8, 26160, Note_off_c, 9, 42, 80
8, 26160, Note_off_c, 9, 36, 80
8, 26160, Note_on_c, 9, 42, 95
8, 26400, Note_off_c, 9, 42, 80
8, 26400, Note_on_c, 9, 42, 95
8, 26400, Note_on_c, 9, 40, 95
8, 26640, Note_off_c, 9, 42, 80
8, 26640, Note_off_c, 9, 40, 80
8, 26640, Note_on_c, 9, 42, 95
8, 26880, Note_off_c, 9, 42, 80
8, 26880, Note_on_c, 9, 42, 95
8, 26880, Note_on_c, 9, 36, 95
8, 27120, Note_off_c, 9, 42, 80
8, 27120, Note_off_c, 9, 36, 80
8, 27120, Note_on_c, 9, 42, 95
8, 27360, Note_off_c, 9, 42, 80
8, 27360, Note_on_c, 9, 42, 95
8, 27360, Note_on_c, 9, 40, 95
8, 27600, Note_off_c, 9, 42, 80
8, 27600, Note_off_c, 9, 40, 80
8, 27600, Note_on_c, 9, 42, 95
8, 27840, Note_off_c, 9, 42, 80
8, 27840, Note_on_c, 9, 42, 95
8, 27840, Note_on_c, 9, 36, 95
8, 28080, Note_off_c, 9, 42, 80
8, 28080, Note_off_c, 9, 36, 80
8, 28080, Note_on_c, 9, 42, 95
8, 28320, Note_off_c, 9, 42, 80
8, 28320, Note_on_c, 9, 42, 95
8, 28320, Note_on_c, 9, 40, 95
8, 28560, Note_off_c, 9, 42, 80
8, 28560, Note_off_c, 9, 40, 80
8, 28560, Note_on_c, 9, 42, 95
8, 28800, Note_off_c, 9, 42, 80
8, 28800, Note_on_c, 9, 51, 95
8, 28800, Note_on_c, 9, 36, 95
8, 29040, Note_off_c, 9, 51, 80
8, 29040, Note_off_c, 9, 36, 80
8, 29040, Note_on_c, 9, 51, 95
8, 29280, Note_off_c, 9, 51, 80
8, 29280, Note_on_c, 9, 51, 95
8, 29280, Note_on_c, 9, 40, 95
8, 29520, Note_off_c, 9, 51, 80
8, 29520, Note_off_c, 9, 40, 80
8, 29520, Note_on_c, 9, 51, 95
8, 29760, Note_off_c, 9, 51, 80
8, 29760, Note_on_c, 9, 51, 95
8, 29760, Note_on_c, 9, 36, 95
8, 30000, Note_off_c, 9, 51, 80
8, 30000, Note_off_c, 9, 36, 80
8, 30000, Note_on_c, 9, 51, 95
8, 30240, Note_off_c, 9, 51, 80
8, 30240, Note_on_c, 9, 51, 95
8, 30240, Note_on_c, 9, 40, 95
8, 30480, Note_off_c, 9, 51, 80
8, 30480, Note_off_c, 9, 40, 80
8, 30480, Note_on_c, 9, 51, 95
8, 30720, Note_off_c, 9, 51, 80
8, 30720, Note_on_c, 9, 51, 95
8, 30720, Note_on_c, 9, 36, 95
8, 30960, Note_off_c, 9, 51, 80
8, 30960, Note_off_c, 9, 36, 80
8, 30960, Note_on_c, 9, 51, 95
8, 31200, Note_off_c, 9, 51, 80
8, 31200, Note_on_c, 9, 51, 95
8, 31200, Note_on_c, 9, 40, 95
8, 31440, Note_off_c, 9, 51, 80
8, 31440, Note_off_c, 9, 40, 80
8, 31440, Note_on_c, 9, 51, 95
8, 31680, Note_off_c, 9, 51, 80
8, 31680, Note_on_c, 9, 51, 95
8, 31680, Note_on_c, 9, 36, 95
8, 31920, Note_off_c, 9, 51, 80
8, 31920, Note_off_c, 9, 36, 80
8, 31920, Note_on_c, 9, 51, 95
8, 32160, Note_off_c, 9, 51, 80
8, 32160, Note_on_c, 9, 51, 95
8, 32160, Note_on_c, 9, 40, 95
8, 32400, Note_off_c, 9, 51, 80
8, 32400, Note_off_c, 9, 40, 80
8, 32400, Note_on_c, 9, 51, 95
8, 32640, Note_off_c, 9, 51, 80
8, 32640, Note_on_c, 9, 51, 95
8, 32640, Note_on_c, 9, 36, 95
8, 32880, Note_off_c, 9, 51, 80
8, 32880, Note_off_c, 9, 36, 80
8, 32880, Note_on_c, 9, 51, 95
8, 33120, Note_off_c, 9, 51, 80
8, 33120, Note_on_c, 9, 51, 95
8, 33120, Note_on_c, 9, 40, 95
8, 33360, Note_off_c, 9, 51, 80
8, 33360, Note_off_c, 9, 40, 80
8, 33360, Note_on_c, 9, 51, 95
8, 33600, Note_off_c, 9, 51, 80
8, 33600, Note_on_c, 9, 51, 95
8, 33600, Note_on_c, 9, 36, 95
8, 33840, Note_off_c, 9, 51, 80
8, 33840, Note_off_c, 9, 36, 80
8, 33840, Note_on_c, 9, 51, 95
8, 34080, Note_off_c, 9, 51, 80
8, 34080, Note_on_c, 9, 51, 95
8, 34080, Note_on_c, 9, 40, 95
8, 34320, Note_off_c, 9, 51, 80
8, 34320, Note_off_c, 9, 40, 80
8, 34320, Note_on_c, 9, 51, 95
8, 34560, Note_off_c, 9, 51, 80
8, 34560, Note_on_c, 9, 51, 95
8, 34560, Note_on_c, 9, 36, 95
8, 34800, Note_off_c, 9, 51, 80
8, 34800, Note_off_c, 9, 36, 80
8, 34800, Note_on_c, 9, 51, 95
8, 35040, Note_off_c, 9, 51, 80
8, 35040, Note_on_c, 9, 51, 95
8, 35040, Note_on_c, 9, 40, 95
8, 35280, Note_off_c, 9, 51, 80
8, 35280, Note_off_c, 9, 40, 80
8, 35280, Note_on_c, 9, 51, 95
8, 35520, Note_off_c, 9, 51, 80
8, 35520, Note_on_c, 9, 51, 95
8, 35520, Note_on_c, 9, 36, 95
8, 35760, Note_off_c, 9, 51, 80
8, 35760, Note_off_c, 9, 36, 80
8, 35760, Note_on_c, 9, 51, 95
8, 36000, Note_off_c, 9, 51, 80
8, 36000, Note_on_c, 9, 51, 95
8, 36000, Note_on_c, 9, 40, 95
8, 36240, Note_off_c, 9, 51, 80
8, 36240, Note_off_c, 9, 40, 80
8, 36240, Note_on_c, 9, 51, 95
8, 36480, Note_off_c, 9, 51, 80
8, 36480, Note_on_c, 9, 51, 95
8, 36480, Note_on_c, 9, 36, 95
8, 36720, Note_off_c, 9, 51, 80
8, 36720, Note_off_c, 9, 36, 80
8, 36720, Note_on_c, 9, 51, 95
8, 36960, Note_off_c, 9, 51, 80
8, 36960, Note_on_c, 9, 51, 95
8, 36960, Note_on_c, 9, 40, 95
8, 37200, Note_off_c, 9, 51, 80
8, 37200, Note_off_c, 9, 40, 80
8, 37200, Note_on_c, 9, 51, 95
8, 37440, Note_off_c, 9, 51, 80
8, 37440, Note_on_c, 9, 51, 95
8, 37440, Note_on_c, 9, 36, 95
8, 37680, Note_off_c, 9, 51, 80
8, 37680, Note_off_c, 9, 36, 80
8, 37680, Note_on_c, 9, 46, 95
8, 37920, Note_off_c, 9, 46, 80
8, 37920, Note_on_c, 9, 44, 95
8, 37920, Note_on_c, 9, 40, 95
8, 38160, Note_off_c, 9, 44, 80
8, 38160, Note_off_c, 9, 40, 80
8, 38160, Note_on_c, 9, 46, 95
8, 38400, Note_off_c, 9, 46, 80
8, 38400, Note_on_c, 9, 44, 95
8, 38400, Note_on_c, 9, 36, 95
8, 38640, Note_off_c, 9, 44, 80
8, 38640, Note_off_c, 9, 36, 80
8, 38640, Note_on_c, 9, 51, 95
8, 38880, Note_off_c, 9, 51, 80
8, 38880, Note_on_c, 9, 51, 95
8, 38880, Note_on_c, 9, 40, 95
8, 39120, Note_off_c, 9, 51, 80
8, 39120, Note_off_c, 9, 40, 80
8, 39120, Note_on_c, 9, 51, 95
8, 39360, Note_off_c, 9, 51, 80
8, 39360, Note_on_c, 9, 51, 95
8, 39360, Note_on_c, 9, 36, 95
8, 39600, Note_off_c, 9, 51, 80
8, 39600, Note_off_c, 9, 36, 80
8, 39600, Note_on_c, 9, 51, 95
8, 39600, Note_on_c, 9, 36, 95
8, 39840, Note_off_c, 9, 51, 80
8, 39840, Note_off_c, 9, 36, 80
8, 39840, Note_on_c, 9, 51, 95
8, 39840, Note_on_c, 9, 40, 95
8, 40080, Note_off_c, 9, 51, 80
8, 40080, Note_off_c, 9, 40, 80
8, 40080, Note_on_c, 9, 51, 95
8, 40320, Note_off_c, 9, 51, 80
8, 40320, Note_on_c, 9, 51, 95
8, 40320, Note_on_c, 9, 36, 95
8, 40560, Note_off_c, 9, 51, 80
8, 40560, Note_off_c, 9, 36, 80
8, 40560, Note_on_c, 9, 51, 95
8, 40800, Note_off_c, 9, 51, 80
8, 40800, Note_on_c, 9, 51, 95
8, 40800, Note_on_c, 9, 40, 95
8, 41040, Note_off_c, 9, 51, 80
8, 41040, Note_off_c, 9, 40, 80
8, 41040, Note_on_c, 9, 51, 95
8, 41280, Note_off_c, 9, 51, 80
8, 41280, Note_on_c, 9, 51, 95
8, 41280, Note_on_c, 9, 36, 95
8, 41520, Note_off_c, 9, 51, 80
8, 41520, Note_off_c, 9, 36, 80
8, 41520, Note_on_c, 9, 51, 95
8, 41520, Note_on_c, 9, 36, 95
8, 41760, Note_off_c, 9, 51, 80
8, 41760, Note_off_c, 9, 36, 80
8, 41760, Note_on_c, 9, 51, 95
8, 41760, Note_on_c, 9, 40, 95
8, 42000, Note_off_c, 9, 51, 80
8, 42000, Note_off_c, 9, 40, 80
8, 42000, Note_on_c, 9, 51, 95
8, 42240, Note_off_c, 9, 51, 80
8, 42240, Note_on_c, 9, 51, 95
8, 42240, Note_on_c, 9, 36, 95
8, 42480, Note_off_c, 9, 51, 80
8, 42480, Note_off_c, 9, 36, 80
8, 42480, Note_on_c, 9, 51, 95
8, 42720, Note_off_c, 9, 51, 80
8, 42720, Note_on_c, 9, 51, 95
8, 42720, Note_on_c, 9, 40, 95
8, 42960, Note_off_c, 9, 51, 80
8, 42960, Note_off_c, 9, 40, 80
8, 42960, Note_on_c, 9, 51, 95
8, 43200, Note_off_c, 9, 51, 80
8, 43200, Note_on_c, 9, 51, 95
8, 43200, Note_on_c, 9, 36, 95
8, 43440, Note_off_c, 9, 51, 80
8, 43440, Note_off_c, 9, 36, 80
8, 43440, Note_on_c, 9, 51, 95
8, 43440, Note_on_c, 9, 36, 95
8, 43680, Note_off_c, 9, 51, 80
8, 43680, Note_off_c, 9, 36, 80
8, 43680, Note_on_c, 9, 51, 95
8, 43680, Note_on_c, 9, 40, 95
8, 43920, Note_off_c, 9, 51, 80
8, 43920, Note_off_c, 9, 40, 80
8, 43920, Note_on_c, 9, 40, 95
8, 43980, Note_off_c, 9, 40, 80
8, 43980, Note_on_c, 9, 40, 63
8, 44040, Note_off_c, 9, 40, 80
8, 44040, Note_on_c, 9, 40, 95
8, 44100, Note_off_c, 9, 40, 80
8, 44100, Note_on_c, 9, 40, 79
8, 44160, Note_off_c, 9, 40, 80
8, 44160, Note_on_c, 9, 40, 95
8, 44400, Note_off_c, 9, 40, 80
8, 44400, Note_on_c, 9, 46, 95
8, 44400, Note_on_c, 9, 41, 63
8, 44400, Note_on_c, 9, 36, 95
8, 44640, Note_off_c, 9, 46, 80
8, 44640, Note_off_c, 9, 41, 80
8, 44640, Note_off_c, 9, 36, 80
8, 44640, Note_on_c, 9, 46, 95
8, 44640, Note_on_c, 9, 41, 63
8, 44640, Note_on_c, 9, 36, 95
8, 44880, Note_off_c, 9, 46, 80
8, 44880, Note_off_c, 9, 41, 80
8, 44880, Note_off_c, 9, 36, 80
8, 44880, Note_on_c, 9, 46, 95
8, 44880, Note_on_c, 9, 41, 63
8, 44880, Note_on_c, 9, 36, 95
8, 45120, Note_off_c, 9, 46, 80
8, 45120, Note_off_c, 9, 41, 80
8, 45120, Note_off_c, 9, 36, 80
8, 45120, Note_on_c, 9, 46, 95
8, 45120, Note_on_c, 9, 41, 63
8, 45120, Note_on_c, 9, 36, 95
8, 45360, Note_off_c, 9, 46, 80
8, 45360, Note_off_c, 9, 41, 80
8, 45360, Note_off_c, 9, 36, 80
8, 45360, Note_on_c, 9, 46, 95
8, 45360, Note_on_c, 9, 41, 63
8, 45360, Note_on_c, 9, 36, 95
8, 45600, Note_off_c, 9, 46, 80
8, 45600, Note_off_c, 9, 41, 80
8, 45600, Note_off_c, 9, 36, 80
8, 45600, Note_on_c, 9, 46, 95
8, 45600, Note_on_c, 9, 41, 63
8, 45600, Note_on_c, 9, 36, 95
8, 45840, Note_off_c, 9, 46, 80
8, 45840, Note_off_c, 9, 41, 80
8, 45840, Note_off_c, 9, 36, 80
8, 45840, Note_on_c, 9, 46, 95
8, 45840, Note_on_c, 9, 41, 63
8, 45840, Note_on_c, 9, 36, 95
8, 46080, Note_off_c, 9, 46, 80
8, 46080, Note_off_c, 9, 41, 80
8, 46080, Note_off_c, 9, 36, 80
8, 46080, Note_on_c, 9, 55, 95
8, 46080, Note_on_c, 9, 36, 95
8, 46320, Note_off_c, 9, 55, 80
8, 46320, Note_off_c, 9, 36, 80
8, 46320, Note_on_c, 9, 51, 95
8, 46560, Note_off_c, 9, 51, 80
8, 46560, Note_on_c, 9, 51, 95
8, 46560, Note_on_c, 9, 40, 95
8, 46800, Note_off_c, 9, 51, 80
8, 46800, Note_off_c, 9, 40, 80
8, 46800, Note_on_c, 9, 51, 95
8, 47040, Note_off_c, 9, 51, 80
8, 47040, Note_on_c, 9, 51, 95
8, 47040, Note_on_c, 9, 36, 95
8, 47280, Note_off_c, 9, 51, 80
8, 47280, Note_off_c, 9, 36, 80
8, 47280, Note_on_c, 9, 51, 95
8, 47520, Note_off_c, 9, 51, 80
8, 47520, Note_on_c, 9, 51, 95
8, 47520, Note_on_c, 9, 40, 95
8, 47760, Note_off_c, 9, 51, 80
8, 47760, Note_off_c, 9, 40, 80
8, 47760, Note_on_c, 9, 46, 95
8, 48000, Note_off_c, 9, 46, 80
8, 48000, Note_on_c, 9, 44, 95
8, 48000, Note_on_c, 9, 36, 95
8, 48240, Note_off_c, 9, 44, 80
8, 48240, Note_off_c, 9, 36, 80
8, 48240, Note_on_c, 9, 42, 95
8, 48480, Note_off_c, 9, 42, 80
8, 48480, Note_on_c, 9, 42, 95
8, 48480, Note_on_c, 9, 40, 95
8, 48720, Note_off_c, 9, 42, 80
8, 48720, Note_off_c, 9, 40, 80
8, 48720, Note_on_c, 9, 42, 95
8, 48960, Note_off_c, 9, 42, 80
8, 48960, Note_on_c, 9, 42, 95
8, 48960, Note_on_c, 9, 36, 95
8, 49200, Note_off_c, 9, 42, 80
8, 49200, Note_off_c, 9, 36, 80
8, 49200, Note_on_c, 9, 42, 95
8, 49440, Note_off_c, 9, 42, 80
8, 49440, Note_on_c, 9, 42, 95
8, 49440, Note_on_c, 9, 40, 95
8, 49680, Note_off_c, 9, 42, 80
8, 49680, Note_off_c, 9, 40, 80
8, 49680, Note_on_c, 9, 42, 95
8, 49920, Note_off_c, 9, 42, 80
8, 49920, Note_on_c, 9, 42, 95
8, 49920, Note_on_c, 9, 36, 95
8, 50160, Note_off_c, 9, 42, 80
8, 50160, Note_off_c, 9, 36, 80
8, 50160, Note_on_c, 9, 42, 95
8, 50400, Note_off_c, 9, 42, 80
8, 50400, Note_on_c, 9, 42, 95
8, 50400, Note_on_c, 9, 40, 95
8, 50640, Note_off_c, 9, 42, 80
8, 50640, Note_off_c, 9, 40, 80
8, 50640, Note_on_c, 9, 42, 95
8, 50880, Note_off_c, 9, 42, 80
8, 50880, Note_on_c, 9, 42, 95
8, 50880, Note_on_c, 9, 36, 95
8, 51120, Note_off_c, 9, 42, 80
8, 51120, Note_off_c, 9, 36, 80
8, 51120, Note_on_c, 9, 42, 95
8, 51360, Note_off_c, 9, 42, 80
8, 51360, Note_on_c, 9, 42, 95
8, 51360, Note_on_c, 9, 40, 95
8, 51600, Note_off_c, 9, 42, 80
8, 51600, Note_off_c, 9, 40, 80
8, 51600, Note_on_c, 9, 42, 95
8, 51840, Note_off_c, 9, 42, 80
8, 51840, Note_on_c, 9, 42, 95
8, 51840, Note_on_c, 9, 36, 95
8, 52080, Note_off_c, 9, 42, 80
8, 52080, Note_off_c, 9, 36, 80
8, 52080, Note_on_c, 9, 42, 95
8, 52320, Note_off_c, 9, 42, 80
8, 52320, Note_on_c, 9, 42, 95
8, 52320, Note_on_c, 9, 40, 95
8, 52560, Note_off_c, 9, 42, 80
8, 52560, Note_off_c, 9, 40, 80
8, 52560, Note_on_c, 9, 42, 95
8, 52800, Note_off_c, 9, 42, 80
8, 52800, Note_on_c, 9, 42, 95
8, 52800, Note_on_c, 9, 36, 95
8, 53040, Note_off_c, 9, 42, 80
8, 53040, Note_off_c, 9, 36, 80
8, 53040, Note_on_c, 9, 42, 95
8, 53280, Note_off_c, 9, 42, 80
8, 53280, Note_on_c, 9, 42, 95
8, 53280, Note_on_c, 9, 40, 95
8, 53520, Note_off_c, 9, 42, 80
8, 53520, Note_off_c, 9, 40, 80
8, 53520, Note_on_c, 9, 42, 95
8, 53760, Note_off_c, 9, 42, 80
8, 53760, Note_on_c, 9, 42, 95
8, 53760, Note_on_c, 9, 36, 95
8, 54000, Note_off_c, 9, 42, 80
8, 54000, Note_off_c, 9, 36, 80
8, 54000, Note_on_c, 9, 42, 95
8, 54240, Note_off_c, 9, 42, 80
8, 54240, Note_on_c, 9, 42, 95
8, 54240, Note_on_c, 9, 40, 95
8, 54480, Note_off_c, 9, 42, 80
8, 54480, Note_off_c, 9, 40, 80
8, 54480, Note_on_c, 9, 42, 95
8, 54720, Note_off_c, 9, 42, 80
8, 54720, Note_on_c, 9, 42, 95
8, 54720, Note_on_c, 9, 36, 95
8, 54960, Note_off_c, 9, 42, 80
8, 54960, Note_off_c, 9, 36, 80
8, 54960, Note_on_c, 9, 42, 95
8, 55200, Note_off_c, 9, 42, 80
8, 55200, Note_on_c, 9, 42, 95
8, 55200, Note_on_c, 9, 40, 95
8, 55440, Note_off_c, 9, 42, 80
8, 55440, Note_off_c, 9, 40, 80
8, 55440, Note_on_c, 9, 42, 95
8, 55680, Note_off_c, 9, 42, 80
8, 55680, Note_on_c, 9, 42, 95
8, 55680, Note_on_c, 9, 36, 95
8, 55920, Note_off_c, 9, 42, 80
8, 55920, Note_off_c, 9, 36, 80
8, 55920, Note_on_c, 9, 42, 95
8, 56160, Note_off_c, 9, 42, 80
8, 56160, Note_on_c, 9, 42, 95
8, 56160, Note_on_c, 9, 40, 95
8, 56400, Note_off_c, 9, 42, 80
8, 56400, Note_off_c, 9, 40, 80
8, 56400, Note_on_c, 9, 42, 95
8, 56640, Note_off_c, 9, 42, 80
8, 56640, Note_on_c, 9, 42, 95
8, 56640, Note_on_c, 9, 36, 95
8, 56880, Note_off_c, 9, 42, 80
8, 56880, Note_off_c, 9, 36, 80
8, 56880, Note_on_c, 9, 42, 95
8, 57120, Note_off_c, 9, 42, 80
8, 57120, Note_on_c, 9, 42, 95
8, 57120, Note_on_c, 9, 40, 95
8, 57360, Note_off_c, 9, 42, 80
8, 57360, Note_off_c, 9, 40, 80
8, 57360, Note_on_c, 9, 42, 95
8, 57600, Note_off_c, 9, 42, 80
8, 57600, Note_on_c, 9, 51, 95
8, 57600, Note_on_c, 9, 36, 95
8, 57840, Note_off_c, 9, 51, 80
8, 57840, Note_off_c, 9, 36, 80
8, 57840, Note_on_c, 9, 51, 95
8, 58080, Note_off_c, 9, 51, 80
8, 58080, Note_on_c, 9, 51, 95
8, 58080, Note_on_c, 9, 40, 95
8, 58320, Note_off_c, 9, 51, 80
8, 58320, Note_off_c, 9, 40, 80
8, 58320, Note_on_c, 9, 51, 95
8, 58560, Note_off_c, 9, 51, 80
8, 58560, Note_on_c, 9, 51, 95
8, 58560, Note_on_c, 9, 36, 95
8, 58800, Note_off_c, 9, 51, 80
8, 58800, Note_off_c, 9, 36, 80
8, 58800, Note_on_c, 9, 51, 95
8, 59040, Note_off_c, 9, 51, 80
8, 59040, Note_on_c, 9, 51, 95
8, 59040, Note_on_c, 9, 40, 95
8, 59280, Note_off_c, 9, 51, 80
8, 59280, Note_off_c, 9, 40, 80
8, 59280, Note_on_c, 9, 51, 95
8, 59520, Note_off_c, 9, 51, 80
8, 59520, Note_on_c, 9, 51, 95
8, 59520, Note_on_c, 9, 36, 95
8, 59760, Note_off_c, 9, 51, 80
8, 59760, Note_off_c, 9, 36, 80
8, 59760, Note_on_c, 9, 51, 95
8, 60000, Note_off_c, 9, 51, 80
8, 60000, Note_on_c, 9, 51, 95
8, 60000, Note_on_c, 9, 40, 95
8, 60240, Note_off_c, 9, 51, 80
8, 60240, Note_off_c, 9, 40, 80
8, 60240, Note_on_c, 9, 51, 95
8, 60480, Note_off_c, 9, 51, 80
8, 60480, Note_on_c, 9, 51, 95
8, 60480, Note_on_c, 9, 36, 95
8, 60720, Note_off_c, 9, 51, 80
8, 60720, Note_off_c, 9, 36, 80
8, 60720, Note_on_c, 9, 51, 95
8, 60960, Note_off_c, 9, 51, 80
8, 60960, Note_on_c, 9, 51, 95
8, 60960, Note_on_c, 9, 40, 95
8, 61200, Note_off_c, 9, 51, 80
8, 61200, Note_off_c, 9, 40, 80
8, 61200, Note_on_c, 9, 51, 95
8, 61440, Note_off_c, 9, 51, 80
8, 61440, Note_on_c, 9, 51, 95
8, 61440, Note_on_c, 9, 36, 95
8, 61680, Note_off_c, 9, 51, 80
8, 61680, Note_off_c, 9, 36, 80
8, 61680, Note_on_c, 9, 51, 95
8, 61920, Note_off_c, 9, 51, 80
8, 61920, Note_on_c, 9, 51, 95
8, 61920, Note_on_c, 9, 40, 95
8, 62160, Note_off_c, 9, 51, 80
8, 62160, Note_off_c, 9, 40, 80
8, 62160, Note_on_c, 9, 51, 95
8, 62400, Note_off_c, 9, 51, 80
8, 62400, Note_on_c, 9, 51, 95
8, 62400, Note_on_c, 9, 36, 95
8, 62640, Note_off_c, 9, 51, 80
8, 62640, Note_off_c, 9, 36, 80
8, 62640, Note_on_c, 9, 51, 95
8, 62880, Note_off_c, 9, 51, 80
8, 62880, Note_on_c, 9, 51, 95
8, 62880, Note_on_c, 9, 40, 95
8, 63120, Note_off_c, 9, 51, 80
8, 63120, Note_off_c, 9, 40, 80
8, 63120, Note_on_c, 9, 51, 95
8, 63360, Note_off_c, 9, 51, 80
8, 63360, Note_on_c, 9, 51, 95
8, 63360, Note_on_c, 9, 36, 95
8, 63600, Note_off_c, 9, 51, 80
8, 63600, Note_off_c, 9, 36, 80
8, 63600, Note_on_c, 9, 51, 95
8, 63840, Note_off_c, 9, 51, 80
8, 63840, Note_on_c, 9, 51, 95
8, 63840, Note_on_c, 9, 40, 95
8, 64080, Note_off_c, 9, 51, 80
8, 64080, Note_off_c, 9, 40, 80
8, 64080, Note_on_c, 9, 51, 95
8, 64320, Note_off_c, 9, 51, 80
8, 64320, Note_on_c, 9, 51, 95
8, 64320, Note_on_c, 9, 36, 95
8, 64560, Note_off_c, 9, 51, 80
8, 64560, Note_off_c, 9, 36, 80
8, 64560, Note_on_c, 9, 51, 95
8, 64800, Note_off_c, 9, 51, 80
8, 64800, Note_on_c, 9, 51, 95
8, 64800, Note_on_c, 9, 40, 95
8, 65040, Note_off_c, 9, 51, 80
8, 65040, Note_off_c, 9, 40, 80
8, 65040, Note_on_c, 9, 51, 95
8, 65280, Note_off_c, 9, 51, 80
8, 65280, Note_on_c, 9, 51, 95
8, 65280, Note_on_c, 9, 36, 95
8, 65520, Note_off_c, 9, 51, 80
8, 65520, Note_off_c, 9, 36, 80
8, 65520, Note_on_c, 9, 51, 95
8, 65760, Note_off_c, 9, 51, 80
8, 65760, Note_on_c, 9, 51, 95
8, 65760, Note_on_c, 9, 40, 95
8, 66000, Note_off_c, 9, 51, 80
8, 66000, Note_off_c, 9, 40, 80
8, 66000, Note_on_c, 9, 51, 95
8, 66240, Note_off_c, 9, 51, 80
8, 66240, Note_on_c, 9, 51, 95
8, 66240, Note_on_c, 9, 36, 95
8, 66480, Note_off_c, 9, 51, 80
8, 66480, Note_off_c, 9, 36, 80
8, 66480, Note_on_c, 9, 51, 95
8, 66720, Note_off_c, 9, 51, 80
8, 66720, Note_on_c, 9, 51, 95
8, 66720, Note_on_c, 9, 40, 95
8, 66960, Note_off_c, 9, 51, 80
8, 66960, Note_off_c, 9, 40, 80
8, 66960, Note_on_c, 9, 46, 95
8, 67200, Note_off_c, 9, 46, 80
8, 67200, Note_on_c, 9, 44, 95
8, 67200, Note_on_c, 9, 36, 95
8, 67440, Note_off_c, 9, 44, 80
8, 67440, Note_off_c, 9, 36, 80
8, 67440, Note_on_c, 9, 42, 95
8, 67680, Note_off_c, 9, 42, 80
8, 67680, Note_on_c, 9, 42, 95
8, 67680, Note_on_c, 9, 40, 95
8, 67920, Note_off_c, 9, 42, 80
8, 67920, Note_off_c, 9, 40, 80
8, 67920, Note_on_c, 9, 42, 95
8, 68160, Note_off_c, 9, 42, 80
8, 68160, Note_on_c, 9, 42, 95
8, 68160, Note_on_c, 9, 36, 95
8, 68400, Note_off_c, 9, 42, 80
8, 68400, Note_off_c, 9, 36, 80
8, 68400, Note_on_c, 9, 42, 95
8, 68640, Note_off_c, 9, 42, 80
8, 68640, Note_on_c, 9, 42, 95
8, 68640, Note_on_c, 9, 40, 95
8, 68880, Note_off_c, 9, 42, 80
8, 68880, Note_off_c, 9, 40, 80
8, 68880, Note_on_c, 9, 42, 95
8, 69120, Note_off_c, 9, 42, 80
8, 69120, Note_on_c, 9, 42, 95
8, 69120, Note_on_c, 9, 36, 95
8, 69360, Note_off_c, 9, 42, 80
8, 69360, Note_off_c, 9, 36, 80
8, 69360, Note_on_c, 9, 42, 95
8, 69600, Note_off_c, 9, 42, 80
8, 69600, Note_on_c, 9, 42, 95
8, 69600, Note_on_c, 9, 40, 95
8, 69840, Note_off_c, 9, 42, 80
8, 69840, Note_off_c, 9, 40, 80
8, 69840, Note_on_c, 9, 42, 95
8, 70080, Note_off_c, 9, 42, 80
8, 70080, Note_on_c, 9, 42, 95
8, 70080, Note_on_c, 9, 36, 95
8, 70320, Note_off_c, 9, 42, 80
8, 70320, Note_off_c, 9, 36, 80
8, 70320, Note_on_c, 9, 42, 95
8, 70560, Note_off_c, 9, 42, 80
8, 70560, Note_on_c, 9, 42, 95
8, 70560, Note_on_c, 9, 40, 95
8, 70800, Note_off_c, 9, 42, 80
8, 70800, Note_off_c, 9, 40, 80
8, 70800, Note_on_c, 9, 42, 95
8, 71040, Note_off_c, 9, 42, 80
8, 71040, Note_on_c, 9, 42, 95
8, 71040, Note_on_c, 9, 36, 95
8, 71280, Note_off_c, 9, 42, 80
8, 71280, Note_off_c, 9, 36, 80
8, 71280, Note_on_c, 9, 42, 95
8, 71520, Note_off_c, 9, 42, 80
8, 71520, Note_on_c, 9, 42, 95
8, 71520, Note_on_c, 9, 40, 95
8, 71760, Note_off_c, 9, 42, 80
8, 71760, Note_off_c, 9, 40, 80
8, 71760, Note_on_c, 9, 42, 95
8, 72000, Note_off_c, 9, 42, 80
8, 72000, Note_on_c, 9, 42, 95
8, 72000, Note_on_c, 9, 36, 95
8, 72240, Note_off_c, 9, 42, 80
8, 72240, Note_off_c, 9, 36, 80
8, 72240, Note_on_c, 9, 42, 95
8, 72480, Note_off_c, 9, 42, 80
8, 72480, Note_on_c, 9, 42, 95
8, 72480, Note_on_c, 9, 40, 95
8, 72720, Note_off_c, 9, 42, 80
8, 72720, Note_off_c, 9, 40, 80
8, 72720, Note_on_c, 9, 42, 95
8, 72960, Note_off_c, 9, 42, 80
8, 72960, Note_on_c, 9, 42, 95
8, 72960, Note_on_c, 9, 36, 95
8, 73200, Note_off_c, 9, 42, 80
8, 73200, Note_off_c, 9, 36, 80
8, 73200, Note_on_c, 9, 42, 95
8, 73440, Note_off_c, 9, 42, 80
8, 73440, Note_on_c, 9, 42, 95
8, 73440, Note_on_c, 9, 40, 95
8, 73680, Note_off_c, 9, 42, 80
8, 73680, Note_off_c, 9, 40, 80
8, 73680, Note_on_c, 9, 42, 95
8, 73920, Note_off_c, 9, 42, 80
8, 73920, Note_on_c, 9, 42, 95
8, 73920, Note_on_c, 9, 36, 95
8, 74160, Note_off_c, 9, 42, 80
8, 74160, Note_off_c, 9, 36, 80
8, 74160, Note_on_c, 9, 42, 95
8, 74400, Note_off_c, 9, 42, 80
8, 74400, Note_on_c, 9, 42, 95
8, 74400, Note_on_c, 9, 40, 95
8, 74640, Note_off_c, 9, 42, 80
8, 74640, Note_off_c, 9, 40, 80
8, 74640, Note_on_c, 9, 42, 95
8, 74880, Note_off_c, 9, 42, 80
8, 74880, Note_on_c, 9, 42, 95
8, 74880, Note_on_c, 9, 36, 95
8, 75120, Note_off_c, 9, 42, 80
8, 75120, Note_off_c, 9, 36, 80
8, 75120, Note_on_c, 9, 42, 95
8, 75360, Note_off_c, 9, 42, 80
8, 75360, Note_on_c, 9, 42, 95
8, 75360, Note_on_c, 9, 40, 95
8, 75600, Note_off_c, 9, 42, 80
8, 75600, Note_off_c, 9, 40, 80
8, 75600, Note_on_c, 9, 42, 95
8, 75840, Note_off_c, 9, 42, 80
8, 75840, Note_on_c, 9, 42, 95
8, 75840, Note_on_c, 9, 36, 95
8, 76080, Note_off_c, 9, 42, 80
8, 76080, Note_off_c, 9, 36, 80
8, 76080, Note_on_c, 9, 42, 95
8, 76320, Note_off_c, 9, 42, 80
8, 76320, Note_on_c, 9, 42, 95
8, 76320, Note_on_c, 9, 40, 95
8, 76560, Note_off_c, 9, 42, 80
8, 76560, Note_off_c, 9, 40, 80
8, 76560, Note_on_c, 9, 42, 95
8, 76800, Note_off_c, 9, 42, 80
8, 76800, Note_on_c, 9, 51, 95
8, 76800, Note_on_c, 9, 36, 95
8, 77040, Note_off_c, 9, 51, 80
8, 77040, Note_off_c, 9, 36, 80
8, 77040, Note_on_c, 9, 51, 95
8, 77280, Note_off_c, 9, 51, 80
8, 77280, Note_on_c, 9, 51, 95
8, 77280, Note_on_c, 9, 40, 95
8, 77520, Note_off_c, 9, 51, 80
8, 77520, Note_off_c, 9, 40, 80
8, 77520, Note_on_c, 9, 51, 95
8, 77760, Note_off_c, 9, 51, 80
8, 77760, Note_on_c, 9, 51, 95
8, 77760, Note_on_c, 9, 36, 95
8, 78000, Note_off_c, 9, 51, 80
8, 78000, Note_off_c, 9, 36, 80
8, 78000, Note_on_c, 9, 51, 95
8, 78240, Note_off_c, 9, 51, 80
8, 78240, Note_on_c, 9, 51, 95
8, 78240, Note_on_c, 9, 40, 95
8, 78480, Note_off_c, 9, 51, 80
8, 78480, Note_off_c, 9, 40, 80
8, 78480, Note_on_c, 9, 51, 95
8, 78720, Note_off_c, 9, 51, 80
8, 78720, Note_on_c, 9, 51, 95
8, 78720, Note_on_c, 9, 36, 95
8, 78960, Note_off_c, 9, 51, 80
8, 78960, Note_off_c, 9, 36, 80
8, 78960, Note_on_c, 9, 51, 95
8, 79200, Note_off_c, 9, 51, 80
8, 79200, Note_on_c, 9, 51, 95
8, 79200, Note_on_c, 9, 40, 95
8, 79440, Note_off_c, 9, 51, 80
8, 79440, Note_off_c, 9, 40, 80
8, 79440, Note_on_c, 9, 51, 95
8, 79680, Note_off_c, 9, 51, 80
8, 79680, Note_on_c, 9, 51, 95
8, 79680, Note_on_c, 9, 36, 95
8, 79920, Note_off_c, 9, 51, 80
8, 79920, Note_off_c, 9, 36, 80
8, 79920, Note_on_c, 9, 51, 95
8, 80160, Note_off_c, 9, 51, 80
8, 80160, Note_on_c, 9, 51, 95
8, 80160, Note_on_c, 9, 40, 95
8, 80400, Note_off_c, 9, 51, 80
8, 80400, Note_off_c, 9, 40, 80
8, 80400, Note_on_c, 9, 51, 95
8, 80640, Note_off_c, 9, 51, 80
8, 80640, Note_on_c, 9, 51, 95
8, 80640, Note_on_c, 9, 36, 95
8, 80880, Note_off_c, 9, 51, 80
8, 80880, Note_off_c, 9, 36, 80
8, 80880, Note_on_c, 9, 51, 95
8, 81120, Note_off_c, 9, 51, 80
8, 81120, Note_on_c, 9, 51, 95
8, 81120, Note_on_c, 9, 40, 95
8, 81360, Note_off_c, 9, 51, 80
8, 81360, Note_off_c, 9, 40, 80
8, 81360, Note_on_c, 9, 51, 95
8, 81600, Note_off_c, 9, 51, 80
8, 81600, Note_on_c, 9, 51, 95
8, 81600, Note_on_c, 9, 36, 95
8, 81840, Note_off_c, 9, 51, 80
8, 81840, Note_off_c, 9, 36, 80
8, 81840, Note_on_c, 9, 51, 95
8, 82080, Note_off_c, 9, 51, 80
8, 82080, Note_on_c, 9, 51, 95
8, 82080, Note_on_c, 9, 40, 95
8, 82320, Note_off_c, 9, 51, 80
8, 82320, Note_off_c, 9, 40, 80
8, 82320, Note_on_c, 9, 51, 95
8, 82560, Note_off_c, 9, 51, 80
8, 82560, Note_on_c, 9, 51, 95
8, 82560, Note_on_c, 9, 36, 95
8, 82800, Note_off_c, 9, 51, 80
8, 82800, Note_off_c, 9, 36, 80
8, 82800, Note_on_c, 9, 51, 95
8, 83040, Note_off_c, 9, 51, 80
8, 83040, Note_on_c, 9, 51, 95
8, 83040, Note_on_c, 9, 40, 95
8, 83280, Note_off_c, 9, 51, 80
8, 83280, Note_off_c, 9, 40, 80
8, 83280, Note_on_c, 9, 51, 95
8, 83520, Note_off_c, 9, 51, 80
8, 83520, Note_on_c, 9, 51, 95
8, 83520, Note_on_c, 9, 36, 95
8, 83760, Note_off_c, 9, 51, 80
8, 83760, Note_off_c, 9, 36, 80
8, 83760, Note_on_c, 9, 51, 95
8, 84000, Note_off_c, 9, 51, 80
8, 84000, Note_on_c, 9, 51, 95
8, 84000, Note_on_c, 9, 40, 95
8, 84240, Note_off_c, 9, 51, 80
8, 84240, Note_off_c, 9, 40, 80
8, 84240, Note_on_c, 9, 51, 95
8, 84480, Note_off_c, 9, 51, 80
8, 84480, Note_on_c, 9, 51, 95
8, 84480, Note_on_c, 9, 36, 95
8, 84720, Note_off_c, 9, 51, 80
8, 84720, Note_off_c, 9, 36, 80
8, 84720, Note_on_c, 9, 51, 95
8, 84960, Note_off_c, 9, 51, 80
8, 84960, Note_on_c, 9, 51, 95
8, 84960, Note_on_c, 9, 40, 95
8, 85200, Note_off_c, 9, 51, 80
8, 85200, Note_off_c, 9, 40, 80
8, 85200, Note_on_c, 9, 51, 95
8, 85440, Note_off_c, 9, 51, 80
8, 85440, Note_on_c, 9, 51, 95
8, 85440, Note_on_c, 9, 36, 95
8, 85680, Note_off_c, 9, 51, 80
8, 85680, Note_off_c, 9, 36, 80
8, 85680, Note_on_c, 9, 46, 95
8, 85920, Note_off_c, 9, 46, 80
8, 85920, Note_on_c, 9, 44, 95
8, 85920, Note_on_c, 9, 40, 95
8, 86160, Note_off_c, 9, 44, 80
8, 86160, Note_off_c, 9, 40, 80
8, 86160, Note_on_c, 9, 46, 95
8, 86400, Note_off_c, 9, 46, 80
8, 86400, Note_on_c, 9, 44, 95
8, 86400, Note_on_c, 9, 36, 95
8, 86640, Note_off_c, 9, 44, 80
8, 86640, Note_off_c, 9, 36, 80
8, 86640, Note_on_c, 9, 51, 95
8, 86880, Note_off_c, 9, 51, 80
8, 86880, Note_on_c, 9, 51, 95
8, 86880, Note_on_c, 9, 40, 95
8, 87120, Note_off_c, 9, 51, 80
8, 87120, Note_off_c, 9, 40, 80
8, 87120, Note_on_c, 9, 51, 95
8, 87360, Note_off_c, 9, 51, 80
8, 87360, Note_on_c, 9, 51, 95
8, 87360, Note_on_c, 9, 36, 95
8, 87600, Note_off_c, 9, 51, 80
8, 87600, Note_off_c, 9, 36, 80
8, 87600, Note_on_c, 9, 51, 95
8, 87600, Note_on_c, 9, 36, 95
8, 87840, Note_off_c, 9, 51, 80
8, 87840, Note_off_c, 9, 36, 80
8, 87840, Note_on_c, 9, 51, 95
8, 87840, Note_on_c, 9, 40, 95
8, 88080, Note_off_c, 9, 51, 80
8, 88080, Note_off_c, 9, 40, 80
8, 88080, Note_on_c, 9, 51, 95
8, 88320, Note_off_c, 9, 51, 80
8, 88320, Note_on_c, 9, 51, 95
8, 88320, Note_on_c, 9, 36, 95
8, 88560, Note_off_c, 9, 51, 80
8, 88560, Note_off_c, 9, 36, 80
8, 88560, Note_on_c, 9, 51, 95
8, 88800, Note_off_c, 9, 51, 80
8, 88800, Note_on_c, 9, 51, 95
8, 88800, Note_on_c, 9, 40, 95
8, 89040, Note_off_c, 9, 51, 80
8, 89040, Note_off_c, 9, 40, 80
8, 89040, Note_on_c, 9, 51, 95
8, 89280, Note_off_c, 9, 51, 80
8, 89280, Note_on_c, 9, 51, 95
8, 89280, Note_on_c, 9, 36, 95
8, 89520, Note_off_c, 9, 51, 80
8, 89520, Note_off_c, 9, 36, 80
8, 89520, Note_on_c, 9, 51, 95
8, 89520, Note_on_c, 9, 36, 95
8, 89760, Note_off_c, 9, 51, 80
8, 89760, Note_off_c, 9, 36, 80
8, 89760, Note_on_c, 9, 51, 95
8, 89760, Note_on_c, 9, 40, 95
8, 90000, Note_off_c, 9, 51, 80
8, 90000, Note_off_c, 9, 40, 80
8, 90000, Note_on_c, 9, 51, 95
8, 90240, Note_off_c, 9, 51, 80
8, 90240, Note_on_c, 9, 51, 95
8, 90240, Note_on_c, 9, 36, 95
8, 90480, Note_off_c, 9, 51, 80
8, 90480, Note_off_c, 9, 36, 80
8, 90480, Note_on_c, 9, 51, 95
8, 90720, Note_off_c, 9, 51, 80
8, 90720, Note_on_c, 9, 51, 95
8, 90720, Note_on_c, 9, 40, 95
8, 90960, Note_off_c, 9, 51, 80
8, 90960, Note_off_c, 9, 40, 80
8, 90960, Note_on_c, 9, 51, 95
8, 91200, Note_off_c, 9, 51, 80
8, 91200, Note_on_c, 9, 51, 95
8, 91200, Note_on_c, 9, 36, 95
8, 91440, Note_off_c, 9, 51, 80
8, 91440, Note_off_c, 9, 36, 80
8, 91440, Note_on_c, 9, 51, 95
8, 91440, Note_on_c, 9, 36, 95
8, 91680, Note_off_c, 9, 51, 80
8, 91680, Note_off_c, 9, 36, 80
8, 91680, Note_on_c, 9, 51, 95
8, 91680, Note_on_c, 9, 40, 95
8, 91920, Note_off_c, 9, 51, 80
8, 91920, Note_off_c, 9, 40, 80
8, 91920, Note_on_c, 9, 40, 95
8, 91980, Note_off_c, 9, 40, 80
8, 91980, Note_on_c, 9, 40, 63
8, 92040, Note_off_c, 9, 40, 80
8, 92040, Note_on_c, 9, 40, 95
8, 92100, Note_off_c, 9, 40, 80
8, 92100, Note_on_c, 9, 40, 79
8, 92160, Note_off_c, 9, 40, 80
8, 92160, Note_on_c, 9, 40, 95
8, 92400, Note_off_c, 9, 40, 80
8, 92400, Note_on_c, 9, 46, 95
8, 92400, Note_on_c, 9, 41, 63
8, 92400, Note_on_c, 9, 36, 95
8, 92640, Note_off_c, 9, 46, 80
8, 92640, Note_off_c, 9, 41, 80
8, 92640, Note_off_c, 9, 36, 80
8, 92640, Note_on_c, 9, 46, 95
8, 92640, Note_on_c, 9, 41, 63
8, 92640, Note_on_c, 9, 36, 95
8, 92880, Note_off_c, 9, 46, 80
8, 92880, Note_off_c, 9, 41, 80
8, 92880, Note_off_c, 9, 36, 80
8, 92880, Note_on_c, 9, 46, 95
8, 92880, Note_on_c, 9, 41, 63
8, 92880, Note_on_c, 9, 36, 95
8, 93120, Note_off_c, 9, 46, 80
8, 93120, Note_off_c, 9, 41, 80
8, 93120, Note_off_c, 9, 36, 80
8, 93120, Note_on_c, 9, 46, 95
8, 93120, Note_on_c, 9, 41, 63
8, 93120, Note_on_c, 9, 36, 95
8, 93360, Note_off_c, 9, 46, 80
8, 93360, Note_off_c, 9, 41, 80
8, 93360, Note_off_c, 9, 36, 80
8, 93360, Note_on_c, 9, 46, 95
8, 93360, Note_on_c, 9, 41, 63
8, 93360, Note_on_c, 9, 36, 95
8, 93600, Note_off_c, 9, 46, 80
8, 93600, Note_off_c, 9, 41, 80
8, 93600, Note_off_c, 9, 36, 80
8, 93600, Note_on_c, 9, 46, 95
8, 93600, Note_on_c, 9, 41, 63
8, 93600, Note_on_c, 9, 36, 95
8, 93840, Note_off_c, 9, 46, 80
8, 93840, Note_off_c, 9, 41, 80
8, 93840, Note_off_c, 9, 36, 80
8, 93840, Note_on_c, 9, 46, 95
8, 93840, Note_on_c, 9, 41, 63
8, 93840, Note_on_c, 9, 36, 95
8, 94080, Note_off_c, 9, 46, 80
8, 94080, Note_off_c, 9, 41, 80
8, 94080, Note_off_c, 9, 36, 80
8, 94080, Note_on_c, 9, 55, 95
8, 94080, Note_on_c, 9, 36, 95
8, 94320, Note_off_c, 9, 55, 80
8, 94320, Note_off_c, 9, 36, 80
8, 94320, Note_on_c, 9, 51, 95
8, 94560, Note_off_c, 9, 51, 80
8, 94560, Note_on_c, 9, 51, 95
8, 94560, Note_on_c, 9, 40, 95
8, 94800, Note_off_c, 9, 51, 80
8, 94800, Note_off_c, 9, 40, 80
8, 94800, Note_on_c, 9, 51, 95
8, 95040, Note_off_c, 9, 51, 80
8, 95040, Note_on_c, 9, 51, 95
8, 95040, Note_on_c, 9, 36, 95
8, 95280, Note_off_c, 9, 51, 80
8, 95280, Note_off_c, 9, 36, 80
8, 95280, Note_on_c, 9, 51, 95
8, 95520, Note_off_c, 9, 51, 80
8, 95520, Note_on_c, 9, 51, 95
8, 95520, Note_on_c, 9, 40, 95
8, 95760, Note_off_c, 9, 51, 80
8, 95760, Note_off_c, 9, 40, 80
8, 95760, Note_on_c, 9, 46, 95
8, 96000, Note_off_c, 9, 46, 80
8, 96000, Note_on_c, 9, 44, 95
8, 96000, Note_on_c, 9, 36, 95
8, 96240, Note_off_c, 9, 44, 80
8, 96240, Note_off_c, 9, 36, 80
8, 96240, Note_on_c, 9, 42, 95
8, 96480, Note_off_c, 9, 42, 80
8, 96480, Note_on_c, 9, 42, 95
8, 96480, Note_on_c, 9, 40, 95
8, 96720, Note_off_c, 9, 42, 80
8, 96720, Note_off_c, 9, 40, 80
8, 96720, Note_on_c, 9, 42, 95
8, 96960, Note_off_c, 9, 42, 80
8, 96960, Note_on_c, 9, 42, 95
8, 96960, Note_on_c, 9, 36, 95
8, 97200, Note_off_c, 9, 42, 80
8, 97200, Note_off_c, 9, 36, 80
8, 97200, Note_on_c, 9, 42, 95
8, 97440, Note_off_c, 9, 42, 80
8, 97440, Note_on_c, 9, 42, 95
8, 97440, Note_on_c, 9, 40, 95
8, 97680, Note_off_c, 9, 42, 80
8, 97680, Note_off_c, 9, 40, 80
8, 97680, Note_on_c, 9, 42, 95
8, 97920, Note_off_c, 9, 42, 80
8, 97920, Note_on_c, 9, 42, 95
8, 97920, Note_on_c, 9, 36, 95
8, 98160, Note_off_c, 9, 42, 80
8, 98160, Note_off_c, 9, 36, 80
8, 98160, Note_on_c, 9, 42, 95
8, 98400, Note_off_c, 9, 42, 80
8, 98400, Note_on_c, 9, 42, 95
8, 98400, Note_on_c, 9, 40, 95
8, 98640, Note_off_c, 9, 42, 80
8, 98640, Note_off_c, 9, 40, 80
8, 98640, Note_on_c, 9, 42, 95
8, 98880, Note_off_c, 9, 42, 80
8, 98880, Note_on_c, 9, 42, 95
8, 98880, Note_on_c, 9, 36, 95
8, 99120, Note_off_c, 9, 42, 80
8, 99120, Note_off_c, 9, 36, 80
8, 99120, Note_on_c, 9, 42, 95
8, 99360, Note_off_c, 9, 42, 80
8, 99360, Note_on_c, 9, 42, 95
8, 99360, Note_on_c, 9, 40, 95
8, 99600, Note_off_c, 9, 42, 80
8, 99600, Note_off_c, 9, 40, 80
8, 99600, Note_on_c, 9, 42, 95
8, 99840, Note_off_c, 9, 42, 80
8, 99840, Note_on_c, 9, 42, 95
8, 99840, Note_on_c, 9, 36, 95
8, 100080, Note_off_c, 9, 42, 80
8, 100080, Note_off_c, 9, 36, 80
8, 100080, Note_on_c, 9, 42, 95
8, 100320, Note_off_c, 9, 42, 80
8, 100320, Note_on_c, 9, 42, 95
8, 100320, Note_on_c, 9, 40, 95
8, 100560, Note_off_c, 9, 42, 80
8, 100560, Note_off_c, 9, 40, 80
8, 100560, Note_on_c, 9, 42, 95
8, 100800, Note_off_c, 9, 42, 80
8, 100800, Note_on_c, 9, 42, 95
8, 100800, Note_on_c, 9, 36, 95
8, 101040, Note_off_c, 9, 42, 80
8, 101040, Note_off_c, 9, 36, 80
8, 101040, Note_on_c, 9, 42, 95
8, 101280, Note_off_c, 9, 42, 80
8, 101280, Note_on_c, 9, 42, 95
8, 101280, Note_on_c, 9, 40, 95
8, 101520, Note_off_c, 9, 42, 80
8, 101520, Note_off_c, 9, 40, 80
8, 101520, Note_on_c, 9, 42, 95
8, 101760, Note_off_c, 9, 42, 80
8, 101760, Note_on_c, 9, 42, 95
8, 101760, Note_on_c, 9, 36, 95
8, 102000, Note_off_c, 9, 42, 80
8, 102000, Note_off_c, 9, 36, 80
8, 102000, Note_on_c, 9, 42, 95
8, 102240, Note_off_c, 9, 42, 80
8, 102240, Note_on_c, 9, 42, 95
8, 102240, Note_on_c, 9, 40, 95
8, 102480, Note_off_c, 9, 42, 80
8, 102480, Note_off_c, 9, 40, 80
8, 102480, Note_on_c, 9, 42, 95
8, 102720, Note_off_c, 9, 42, 80
8, 102720, Note_on_c, 9, 42, 95
8, 102720, Note_on_c, 9, 36, 95
8, 102960, Note_off_c, 9, 42, 80
8, 102960, Note_off_c, 9, 36, 80
8, 102960, Note_on_c, 9, 42, 95
8, 103200, Note_off_c, 9, 42, 80
8, 103200, Note_on_c, 9, 42, 95
8, 103200, Note_on_c, 9, 40, 95
8, 103440, Note_off_c, 9, 42, 80
8, 103440, Note_off_c, 9, 40, 80
8, 103440, Note_on_c, 9, 42, 95
8, 103680, Note_off_c, 9, 42, 80
8, 103680, Note_on_c, 9, 42, 95
8, 103680, Note_on_c, 9, 36, 95
8, 103920, Note_off_c, 9, 42, 80
8, 103920, Note_off_c, 9, 36, 80
8, 103920, Note_on_c, 9, 42, 95
8, 104160, Note_off_c, 9, 42, 80
8, 104160, Note_on_c, 9, 42, 95
8, 104160, Note_on_c, 9, 40, 95
8, 104400, Note_off_c, 9, 42, 80
8, 104400, Note_off_c, 9, 40, 80
8, 104400, Note_on_c, 9, 42, 95
8, 104640, Note_off_c, 9, 42, 80
8, 104640, Note_on_c, 9, 42, 95
8, 104640, Note_on_c, 9, 36, 95
8, 104880, Note_off_c, 9, 42, 80
8, 104880, Note_off_c, 9, 36, 80
8, 104880, Note_on_c, 9, 42, 95
8, 105120, Note_off_c, 9, 42, 80
8, 105120, Note_on_c, 9, 42, 95
8, 105120, Note_on_c, 9, 40, 95
8, 105360, Note_off_c, 9, 42, 80
8, 105360, Note_off_c, 9, 40, 80
8, 105360, Note_on_c, 9, 42, 95
8, 105600, Note_off_c, 9, 42, 80
8, 105600, Note_on_c, 9, 51, 95
8, 105600, Note_on_c, 9, 36, 95
8, 105840, Note_off_c, 9, 51, 80
8, 105840, Note_off_c, 9, 36, 80
8, 105840, Note_on_c, 9, 51, 95
8, 106080, Note_off_c, 9, 51, 80
8, 106080, Note_on_c, 9, 51, 95
8, 106080, Note_on_c, 9, 40, 95
8, 106320, Note_off_c, 9, 51, 80
8, 106320, Note_off_c, 9, 40, 80
8, 106320, Note_on_c, 9, 51, 95
8, 106560, Note_off_c, 9, 51, 80
8, 106560, Note_on_c, 9, 51, 95
8, 106560, Note_on_c, 9, 36, 95
8, 106800, Note_off_c, 9, 51, 80
8, 106800, Note_off_c, 9, 36, 80
8, 106800, Note_on_c, 9, 51, 95
8, 107040, Note_off_c, 9, 51, 80
8, 107040, Note_on_c, 9, 51, 95
8, 107040, Note_on_c, 9, 40, 95
8, 107280, Note_off_c, 9, 51, 80
8, 107280, Note_off_c, 9, 40, 80
8, 107280, Note_on_c, 9, 51, 95
8, 107520, Note_off_c, 9, 51, 80
8, 107520, Note_on_c, 9, 51, 95
8, 107520, Note_on_c, 9, 36, 95
8, 107760, Note_off_c, 9, 51, 80
8, 107760, Note_off_c, 9, 36, 80
8, 107760, Note_on_c, 9, 51, 95
8, 108000, Note_off_c, 9, 51, 80
8, 108000, Note_on_c, 9, 51, 95
8, 108000, Note_on_c, 9, 40, 95
8, 108240, Note_off_c, 9, 51, 80
8, 108240, Note_off_c, 9, 40, 80
8, 108240, Note_on_c, 9, 51, 95
8, 108480, Note_off_c, 9, 51, 80
8, 108480, Note_on_c, 9, 51, 95
8, 108480, Note_on_c, 9, 36, 95
8, 108720, Note_off_c, 9, 51, 80
8, 108720, Note_off_c, 9, 36, 80
8, 108720, Note_on_c, 9, 51, 95
8, 108960, Note_off_c, 9, 51, 80
8, 108960, Note_on_c, 9, 51, 95
8, 108960, Note_on_c, 9, 40, 95
8, 109200, Note_off_c, 9, 51, 80
8, 109200, Note_off_c, 9, 40, 80
8, 109200, Note_on_c, 9, 51, 95
8, 109440, Note_off_c, 9, 51, 80
8, 109440, Note_on_c, 9, 51, 95
8, 109440, Note_on_c, 9, 36, 95
8, 109680, Note_off_c, 9, 51, 80
8, 109680, Note_off_c, 9, 36, 80
8, 109680, Note_on_c, 9, 51, 95
8, 109920, Note_off_c, 9, 51, 80
8, 109920, Note_on_c, 9, 51, 95
8, 109920, Note_on_c, 9, 40, 95
8, 110160, Note_off_c, 9, 51, 80
8, 110160, Note_off_c, 9, 40, 80
8, 110160, Note_on_c, 9, 51, 95
8, 110400, Note_off_c, 9, 51, 80
8, 110400, Note_on_c, 9, 51, 95
8, 110400, Note_on_c, 9, 36, 95
8, 110640, Note_off_c, 9, 51, 80
8, 110640, Note_off_c, 9, 36, 80
8, 110640, Note_on_c, 9, 51, 95
8, 110880, Note_off_c, 9, 51, 80
8, 110880, Note_on_c, 9, 51, 95
8, 110880, Note_on_c, 9, 40, 95
8, 111120, Note_off_c, 9, 51, 80
8, 111120, Note_off_c, 9, 40, 80
8, 111120, Note_on_c, 9, 51, 95
8, 111360, Note_off_c, 9, 51, 80
8, 111360, Note_on_c, 9, 51, 95
8, 111360, Note_on_c, 9, 36, 95
8, 111600, Note_off_c, 9, 51, 80
8, 111600, Note_off_c, 9, 36, 80
8, 111600, Note_on_c, 9, 51, 95
8, 111840, Note_off_c, 9, 51, 80
8, 111840, Note_on_c, 9, 51, 95
8, 111840, Note_on_c, 9, 40, 95
8, 112080, Note_off_c, 9, 51, 80
8, 112080, Note_off_c, 9, 40, 80
8, 112080, Note_on_c, 9, 51, 95
8, 112320, Note_off_c, 9, 51, 80
8, 112320, Note_on_c, 9, 51, 95
8, 112320, Note_on_c, 9, 36, 95
8, 112560, Note_off_c, 9, 51, 80
8, 112560, Note_off_c, 9, 36, 80
8, 112560, Note_on_c, 9, 51, 95
8, 112800, Note_off_c, 9, 51, 80
8, 112800, Note_on_c, 9, 51, 95
8, 112800, Note_on_c, 9, 40, 95
8, 113040, Note_off_c, 9, 51, 80
8, 113040, Note_off_c, 9, 40, 80
8, 113040, Note_on_c, 9, 51, 95
8, 113280, Note_off_c, 9, 51, 80
8, 113280, Note_on_c, 9, 51, 95
8, 113280, Note_on_c, 9, 36, 95
8, 113520, Note_off_c, 9, 51, 80
8, 113520, Note_off_c, 9, 36, 80
8, 113520, Note_on_c, 9, 51, 95
8, 113760, Note_off_c, 9, 51, 80
8, 113760, Note_on_c, 9, 51, 95
8, 113760, Note_on_c, 9, 40, 95
8, 114000, Note_off_c, 9, 51, 80
8, 114000, Note_off_c, 9, 40, 80
8, 114000, Note_on_c, 9, 51, 95
8, 114240, Note_off_c, 9, 51, 80
8, 114240, Note_on_c, 9, 51, 95
8, 114240, Note_on_c, 9, 36, 95
8, 114480, Note_off_c, 9, 51, 80
8, 114480, Note_off_c, 9, 36, 80
8, 114480, Note_on_c, 9, 51, 95
8, 114720, Note_off_c, 9, 51, 80
8, 114720, Note_on_c, 9, 51, 95
8, 114720, Note_on_c, 9, 40, 95
8, 114960, Note_off_c, 9, 51, 80
8, 114960, Note_off_c, 9, 40, 80
8, 114960, Note_on_c, 9, 46, 95
8, 115200, Note_off_c, 9, 46, 80
8, 115200, Note_on_c, 9, 44, 95
8, 115200, Note_on_c, 9, 36, 95
8, 115440, Note_off_c, 9, 44, 80
8, 115440, Note_off_c, 9, 36, 80
8, 115440, Note_on_c, 9, 42, 95
8, 115680, Note_off_c, 9, 42, 80
8, 115680, Note_on_c, 9, 42, 95
8, 115680, Note_on_c, 9, 40, 95
8, 115920, Note_off_c, 9, 42, 80
8, 115920, Note_off_c, 9, 40, 80
8, 115920, Note_on_c, 9, 42, 95
8, 116160, Note_off_c, 9, 42, 80
8, 116160, Note_on_c, 9, 42, 95
8, 116160, Note_on_c, 9, 36, 95
8, 116400, Note_off_c, 9, 42, 80
8, 116400, Note_off_c, 9, 36, 80
8, 116400, Note_on_c, 9, 42, 95
8, 116640, Note_off_c, 9, 42, 80
8, 116640, Note_on_c, 9, 42, 95
8, 116640, Note_on_c, 9, 40, 95
8, 116880, Note_off_c, 9, 42, 80
8, 116880, Note_off_c, 9, 40, 80
8, 116880, Note_on_c, 9, 42, 95
8, 117120, Note_off_c, 9, 42, 80
8, 117120, Note_on_c, 9, 42, 95
8, 117120, Note_on_c, 9, 36, 95
8, 117360, Note_off_c, 9, 42, 80
8, 117360, Note_off_c, 9, 36, 80
8, 117360, Note_on_c, 9, 42, 95
8, 117600, Note_off_c, 9, 42, 80
8, 117600, Note_on_c, 9, 42, 95
8, 117600, Note_on_c, 9, 40, 95
8, 117840, Note_off_c, 9, 42, 80
8, 117840, Note_off_c, 9, 40, 80
8, 117840, Note_on_c, 9, 42, 95
8, 118080, Note_off_c, 9, 42, 80
8, 118080, Note_on_c, 9, 42, 95
8, 118080, Note_on_c, 9, 36, 95
8, 118320, Note_off_c, 9, 42, 80
8, 118320, Note_off_c, 9, 36, 80
8, 118320, Note_on_c, 9, 42, 95
8, 118560, Note_off_c, 9, 42, 80
8, 118560, Note_on_c, 9, 42, 95
8, 118560, Note_on_c, 9, 40, 95
8, 118800, Note_off_c, 9, 42, 80
8, 118800, Note_off_c, 9, 40, 80
8, 118800, Note_on_c, 9, 42, 95
8, 119040, Note_off_c, 9, 42, 80
8, 119040, Note_on_c, 9, 42, 95
8, 119040, Note_on_c, 9, 36, 95
8, 119280, Note_off_c, 9, 42, 80
8, 119280, Note_off_c, 9, 36, 80
8, 119280, Note_on_c, 9, 42, 95
8, 119520, Note_off_c, 9, 42, 80
8, 119520, Note_on_c, 9, 42, 95
8, 119520, Note_on_c, 9, 40, 95
8, 119760, Note_off_c, 9, 42, 80
8, 119760, Note_off_c, 9, 40, 80
8, 119760, Note_on_c, 9, 42, 95
8, 120000, Note_off_c, 9, 42, 80
8, 120000, Note_on_c, 9, 42, 95
8, 120000, Note_on_c, 9, 36, 95
8, 120240, Note_off_c, 9, 42, 80
8, 120240, Note_off_c, 9, 36, 80
8, 120240, Note_on_c, 9, 42, 95
8, 120480, Note_off_c, 9, 42, 80
8, 120480, Note_on_c, 9, 42, 95
8, 120480, Note_on_c, 9, 40, 95
8, 120720, Note_off_c, 9, 42, 80
8, 120720, Note_off_c, 9, 40, 80
8, 120720, Note_on_c, 9, 42, 95
8, 120960, Note_off_c, 9, 42, 80
8, 120960, Note_on_c, 9, 42, 95
8, 120960, Note_on_c, 9, 36, 95
8, 121200, Note_off_c, 9, 42, 80
8, 121200, Note_off_c, 9, 36, 80
8, 121200, Note_on_c, 9, 42, 95
8, 121440, Note_off_c, 9, 42, 80
8, 121440, Note_on_c, 9, 42, 95
8, 121440, Note_on_c, 9, 40, 95
8, 121680, Note_off_c, 9, 42, 80
8, 121680, Note_off_c, 9, 40, 80
8, 121680, Note_on_c, 9, 42, 95
8, 121920, Note_off_c, 9, 42, 80
8, 121920, Note_on_c, 9, 42, 95
8, 121920, Note_on_c, 9, 36, 95
8, 122160, Note_off_c, 9, 42, 80
8, 122160, Note_off_c, 9, 36, 80
8, 122160, Note_on_c, 9, 42, 95
8, 122400, Note_off_c, 9, 42, 80
8, 122400, Note_on_c, 9, 42, 95
8, 122400, Note_on_c, 9, 40, 95
8, 122640, Note_off_c, 9, 42, 80
8, 122640, Note_off_c, 9, 40, 80
8, 122640, Note_on_c, 9, 42, 95
8, 122880, Note_off_c, 9, 42, 80
8, 122880, Note_on_c, 9, 42, 95
8, 122880, Note_on_c, 9, 36, 95
8, 123120, Note_off_c, 9, 42, 80
8, 123120, Note_off_c, 9, 36, 80
8, 123120, Note_on_c, 9, 42, 95
8, 123360, Note_off_c, 9, 42, 80
8, 123360, Note_on_c, 9, 42, 95
8, 123360, Note_on_c, 9, 40, 95
8, 123600, Note_off_c, 9, 42, 80
8, 123600, Note_off_c, 9, 40, 80
8, 123600, Note_on_c, 9, 42, 95
8, 123840, Note_off_c, 9, 42, 80
8, 123840, Note_on_c, 9, 42, 95
8, 123840, Note_on_c, 9, 36, 95
8, 124080, Note_off_c, 9, 42, 80
8, 124080, Note_off_c, 9, 36, 80
8, 124080, Note_on_c, 9, 42, 95
8, 124320, Note_off_c, 9, 42, 80
8, 124320, Note_on_c, 9, 42, 95
8, 124320, Note_on_c, 9, 40, 95
8, 124560, Note_off_c, 9, 42, 80
8, 124560, Note_off_c, 9, 40, 80
8, 124560, Note_on_c, 9, 42, 95
8, 124800, Note_off_c, 9, 42, 80
8, 124800, Note_on_c, 9, 51, 95
8, 124800, Note_on_c, 9, 36, 95
8, 125040, Note_off_c, 9, 51, 80
8, 125040, Note_off_c, 9, 36, 80
8, 125040, Note_on_c, 9, 51, 95
8, 125280, Note_off_c, 9, 51, 80
8, 125280, Note_on_c, 9, 51, 95
8, 125280, Note_on_c, 9, 40, 95
8, 125520, Note_off_c, 9, 51, 80
8, 125520, Note_off_c, 9, 40, 80
8, 125520, Note_on_c, 9, 51, 95
8, 125760, Note_off_c, 9, 51, 80
8, 125760, Note_on_c, 9, 51, 95
8, 125760, Note_on_c, 9, 36, 95
8, 126000, Note_off_c, 9, 51, 80
8, 126000, Note_off_c, 9, 36, 80
8, 126000, Note_on_c, 9, 51, 95
8, 126240, Note_off_c, 9, 51, 80
8, 126240, Note_on_c, 9, 51, 95
8, 126240, Note_on_c, 9, 40, 95
8, 126480, Note_off_c, 9, 51, 80
8, 126480, Note_off_c, 9, 40, 80
8, 126480, Note_on_c, 9, 51, 95
8, 126720, Note_off_c, 9, 51, 80
8, 126720, Note_on_c, 9, 51, 95
8, 126720, Note_on_c, 9, 36, 95
8, 126960, Note_off_c, 9, 51, 80
8, 126960, Note_off_c, 9, 36, 80
8, 126960, Note_on_c, 9, 51, 95
8, 127200, Note_off_c, 9, 51, 80
8, 127200, Note_on_c, 9, 51, 95
8, 127200, Note_on_c, 9, 40, 95
8, 127440, Note_off_c, 9, 51, 80
8, 127440, Note_off_c, 9, 40, 80
8, 127440, Note_on_c, 9, 51, 95
8, 127680, Note_off_c, 9, 51, 80
8, 127680, Note_on_c, 9, 51, 95
8, 127680, Note_on_c, 9, 36, 95
8, 127920, Note_off_c, 9, 51, 80
8, 127920, Note_off_c, 9, 36, 80
8, 127920, Note_on_c, 9, 51, 95
8, 128160, Note_off_c, 9, 51, 80
8, 128160, Note_on_c, 9, 51, 95
8, 128160, Note_on_c, 9, 40, 95
8, 128400, Note_off_c, 9, 51, 80
8, 128400, Note_off_c, 9, 40, 80
8, 128400, Note_on_c, 9, 51, 95
8, 128640, Note_off_c, 9, 51, 80
8, 128640, Note_on_c, 9, 51, 95
8, 128640, Note_on_c, 9, 36, 95
8, 128880, Note_off_c, 9, 51, 80
8, 128880, Note_off_c, 9, 36, 80
8, 128880, Note_on_c, 9, 51, 95
8, 129120, Note_off_c, 9, 51, 80
8, 129120, Note_on_c, 9, 51, 95
8, 129120, Note_on_c, 9, 40, 95
8, 129360, Note_off_c, 9, 51, 80
8, 129360, Note_off_c, 9, 40, 80
8, 129360, Note_on_c, 9, 51, 95
8, 129600, Note_off_c, 9, 51, 80
8, 129600, Note_on_c, 9, 51, 95
8, 129600, Note_on_c, 9, 36, 95
8, 129840, Note_off_c, 9, 51, 80
8, 129840, Note_off_c, 9, 36, 80
8, 129840, Note_on_c, 9, 51, 95
8, 130080, Note_off_c, 9, 51, 80
8, 130080, Note_on_c, 9, 51, 95
8, 130080, Note_on_c, 9, 40, 95
8, 130320, Note_off_c, 9, 51, 80
8, 130320, Note_off_c, 9, 40, 80
8, 130320, Note_on_c, 9, 51, 95
8, 130560, Note_off_c, 9, 51, 80
8, 130560, Note_on_c, 9, 51, 95
8, 130560, Note_on_c, 9, 36, 95
8, 130800, Note_off_c, 9, 51, 80
8, 130800, Note_off_c, 9, 36, 80
8, 130800, Note_on_c, 9, 51, 95
8, 131040, Note_off_c, 9, 51, 80
8, 131040, Note_on_c, 9, 51, 95
8, 131040, Note_on_c, 9, 40, 95
8, 131280, Note_off_c, 9, 51, 80
8, 131280, Note_off_c, 9, 40, 80
8, 131280, Note_on_c, 9, 51, 95
8, 131520, Note_off_c, 9, 51, 80
8, 131520, Note_on_c, 9, 51, 95
8, 131520, Note_on_c, 9, 36, 95
8, 131760, Note_off_c, 9, 51, 80
8, 131760, Note_off_c, 9, 36, 80
8, 131760, Note_on_c, 9, 51, 95
8, 132000, Note_off_c, 9, 51, 80
8, 132000, Note_on_c, 9, 51, 95
8, 132000, Note_on_c, 9, 40, 95
8, 132240, Note_off_c, 9, 51, 80
8, 132240, Note_off_c, 9, 40, 80
8, 132240, Note_on_c, 9, 51, 95
8, 132480, Note_off_c, 9, 51, 80
8, 132480, Note_on_c, 9, 51, 95
8, 132480, Note_on_c, 9, 36, 95
8, 132720, Note_off_c, 9, 51, 80
8, 132720, Note_off_c, 9, 36, 80
8, 132720, Note_on_c, 9, 51, 95
8, 132960, Note_off_c, 9, 51, 80
8, 132960, Note_on_c, 9, 51, 95
8, 132960, Note_on_c, 9, 40, 95
8, 133200, Note_off_c, 9, 51, 80
8, 133200, Note_off_c, 9, 40, 80
8, 133200, Note_on_c, 9, 51, 95
8, 133440, Note_off_c, 9, 51, 80
8, 133440, Note_on_c, 9, 51, 95
8, 133440, Note_on_c, 9, 36, 95
8, 133680, Note_off_c, 9, 51, 80
8, 133680, Note_off_c, 9, 36, 80
8, 133680, Note_on_c, 9, 46, 95
8, 133920, Note_off_c, 9, 46, 80
8, 133920, Note_on_c, 9, 44, 95
8, 133920, Note_on_c, 9, 40, 95
8, 134160, Note_off_c, 9, 44, 80
8, 134160, Note_off_c, 9, 40, 80
8, 134160, Note_on_c, 9, 46, 95
8, 134400, Note_off_c, 9, 46, 80
8, 134400, Note_on_c, 9, 44, 95
8, 134400, Note_on_c, 9, 36, 95
8, 134640, Note_off_c, 9, 44, 80
8, 134640, Note_off_c, 9, 36, 80
8, 134640, Note_on_c, 9, 51, 95
8, 134880, Note_off_c, 9, 51, 80
8, 134880, Note_on_c, 9, 51, 95
8, 134880, Note_on_c, 9, 40, 95
8, 135120, Note_off_c, 9, 51, 80
8, 135120, Note_off_c, 9, 40, 80
8, 135120, Note_on_c, 9, 51, 95
8, 135360, Note_off_c, 9, 51, 80
8, 135360, Note_on_c, 9, 51, 95
8, 135360, Note_on_c, 9, 36, 95
8, 135600, Note_off_c, 9, 51, 80
8, 135600, Note_off_c, 9, 36, 80
8, 135600, Note_on_c, 9, 51, 95
8, 135600, Note_on_c, 9, 36, 95
8, 135840, Note_off_c, 9, 51, 80
8, 135840, Note_off_c, 9, 36, 80
8, 135840, Note_on_c, 9, 51, 95
8, 135840, Note_on_c, 9, 40, 95
8, 136080, Note_off_c, 9, 51, 80
8, 136080, Note_off_c, 9, 40, 80
8, 136080, Note_on_c, 9, 51, 95
8, 136320, Note_off_c, 9, 51, 80
8, 136320, Note_on_c, 9, 51, 95
8, 136320, Note_on_c, 9, 36, 95
8, 136560, Note_off_c, 9, 51, 80
8, 136560, Note_off_c, 9, 36, 80
8, 136560, Note_on_c, 9, 51, 95
8, 136800, Note_off_c, 9, 51, 80
8, 136800, Note_on_c, 9, 51, 95
8, 136800, Note_on_c, 9, 40, 95
8, 137040, Note_off_c, 9, 51, 80
8, 137040, Note_off_c, 9, 40, 80
8, 137040, Note_on_c, 9, 51, 95
8, 137280, Note_off_c, 9, 51, 80
8, 137280, Note_on_c, 9, 51, 95
8, 137280, Note_on_c, 9, 36, 95
8, 137520, Note_off_c, 9, 51, 80
8, 137520, Note_off_c, 9, 36, 80
8, 137520, Note_on_c, 9, 51, 95
8, 137520, Note_on_c, 9, 36, 95
8, 137760, Note_off_c, 9, 51, 80
8, 137760, Note_off_c, 9, 36, 80
8, 137760, Note_on_c, 9, 51, 95
8, 137760, Note_on_c, 9, 40, 95
8, 138000, Note_off_c, 9, 51, 80
8, 138000, Note_off_c, 9, 40, 80
8, 138000, Note_on_c, 9, 51, 95
8, 138240, Note_off_c, 9, 51, 80
8, 138240, Note_on_c, 9, 51, 95
8, 138240, Note_on_c, 9, 36, 95
8, 138480, Note_off_c, 9, 51, 80
8, 138480, Note_off_c, 9, 36, 80
8, 138480, Note_on_c, 9, 51, 95
8, 138720, Note_off_c, 9, 51, 80
8, 138720, Note_on_c, 9, 51, 95
8, 138720, Note_on_c, 9, 40, 95
8, 138960, Note_off_c, 9, 51, 80
8, 138960, Note_off_c, 9, 40, 80
8, 138960, Note_on_c, 9, 51, 95
8, 139200, Note_off_c, 9, 51, 80
8, 139200, Note_on_c, 9, 51, 95
8, 139200, Note_on_c, 9, 36, 95
8, 139440, Note_off_c, 9, 51, 80
8, 139440, Note_off_c, 9, 36, 80
8, 139440, Note_on_c, 9, 51, 95
8, 139440, Note_on_c, 9, 36, 95
8, 139680, Note_off_c, 9, 51, 80
8, 139680, Note_off_c, 9, 36, 80
8, 139680, Note_on_c, 9, 51, 95
8, 139680, Note_on_c, 9, 40, 95
8, 139920, Note_off_c, 9, 51, 80
8, 139920, Note_off_c, 9, 40, 80
8, 139920, Note_on_c, 9, 40, 95
8, 139980, Note_off_c, 9, 40, 80
8, 139980, Note_on_c, 9, 40, 63
8, 140040, Note_off_c, 9, 40, 80
8, 140040, Note_on_c, 9, 40, 95
8, 140100, Note_off_c, 9, 40, 80
8, 140100, Note_on_c, 9, 40, 79
8, 140160, Note_off_c, 9, 40, 80
8, 140160, Note_on_c, 9, 40, 95
8, 140400, Note_off_c, 9, 40, 80
8, 140400, Note_on_c, 9, 46, 95
8, 140400, Note_on_c, 9, 41, 63
8, 140400, Note_on_c, 9, 36, 95
8, 140640, Note_off_c, 9, 46, 80
8, 140640, Note_off_c, 9, 41, 80
8, 140640, Note_off_c, 9, 36, 80
8, 140640, Note_on_c, 9, 46, 95
8, 140640, Note_on_c, 9, 41, 63
8, 140640, Note_on_c, 9, 36, 95
8, 140880, Note_off_c, 9, 46, 80
8, 140880, Note_off_c, 9, 41, 80
8, 140880, Note_off_c, 9, 36, 80
8, 140880, Note_on_c, 9, 46, 95
8, 140880, Note_on_c, 9, 41, 63
8, 140880, Note_on_c, 9, 36, 95
8, 141120, Note_off_c, 9, 46, 80
8, 141120, Note_off_c, 9, 41, 80
8, 141120, Note_off_c, 9, 36, 80
8, 141120, Note_on_c, 9, 46, 95
8, 141120, Note_on_c, 9, 41, 63
8, 141120, Note_on_c, 9, 36, 95
8, 141360, Note_off_c, 9, 46, 80
8, 141360, Note_off_c, 9, 41, 80
8, 141360, Note_off_c, 9, 36, 80
8, 141360, Note_on_c, 9, 46, 95
8, 141360, Note_on_c, 9, 41, 63
8, 141360, Note_on_c, 9, 36, 95
8, 141600, Note_off_c, 9, 46, 80
8, 141600, Note_off_c, 9, 41, 80
8, 141600, Note_off_c, 9, 36, 80
8, 141600, Note_on_c, 9, 46, 95
8, 141600, Note_on_c, 9, 41, 63
8, 141600, Note_on_c, 9, 36, 95
8, 141840, Note_off_c, 9, 46, 80
8, 141840, Note_off_c, 9, 41, 80
8, 141840, Note_off_c, 9, 36, 80
8, 141840, Note_on_c, 9, 46, 95
8, 141840, Note_on_c, 9, 41, 63
8, 141840, Note_on_c, 9, 36, 95
8, 142080, Note_off_c, 9, 46, 80
8, 142080, Note_off_c, 9, 41, 80
8, 142080, Note_off_c, 9, 36, 80
8, 142080, Note_on_c, 9, 55, 95
8, 142080, Note_on_c, 9, 36, 95
8, 142320, Note_off_c, 9, 55, 80
8, 142320, Note_off_c, 9, 36, 80
8, 142320, Note_on_c, 9, 51, 95
8, 142560, Note_off_c, 9, 51, 80
8, 142560, Note_on_c, 9, 51, 95
8, 142560, Note_on_c, 9, 40, 95
8, 142800, Note_off_c, 9, 51, 80
8, 142800, Note_off_c, 9, 40, 80
8, 142800, Note_on_c, 9, 51, 95
8, 143040, Note_off_c, 9, 51, 80
8, 143040, Note_on_c, 9, 51, 95
8, 143040, Note_on_c, 9, 36, 95
8, 143280, Note_off_c, 9, 51, 80
8, 143280, Note_off_c, 9, 36, 80
8, 143280, Note_on_c, 9, 51, 95
8, 143520, Note_off_c, 9, 51, 80
8, 143520, Note_on_c, 9, 51, 95
8, 143520, Note_on_c, 9, 40, 95
8, 143760, Note_off_c, 9, 51, 80
8, 143760, Note_off_c, 9, 40, 80
8, 143760, Note_on_c, 9, 51, 95
8, 144000, Note_off_c, 9, 51, 80
8, 144000, Note_on_c, 9, 49, 95
8, 144000, Note_on_c, 9, 36, 95
8, 144240, Note_off_c, 9, 49, 80
8, 144240, Note_off_c, 9, 36, 80
8, 144240, Note_on_c, 9, 51, 95
8, 144480, Note_off_c, 9, 51, 80
8, 144480, Note_on_c, 9, 51, 95
8, 144480, Note_on_c, 9, 40, 95
8, 144720, Note_off_c, 9, 51, 80
8, 144720, Note_off_c, 9, 40, 80
8, 144720, Note_on_c, 9, 51, 95
8, 144960, Note_off_c, 9, 51, 80
8, 144960, Note_on_c, 9, 51, 95
8, 144960, Note_on_c, 9, 36, 95
8, 145200, Note_off_c, 9, 51, 80
8, 145200, Note_off_c, 9, 36, 80
8, 145200, Note_on_c, 9, 51, 95
8, 145200, Note_on_c, 9, 36, 95
8, 145440, Note_off_c, 9, 51, 80
8, 145440, Note_off_c, 9, 36, 80
8, 145440, Note_on_c, 9, 51, 95
8, 145440, Note_on_c, 9, 40, 95
8, 145680, Note_off_c, 9, 51, 80
8, 145680, Note_off_c, 9, 40, 80
8, 145680, Note_on_c, 9, 51, 95
8, 145920, Note_off_c, 9, 51, 80
8, 145920, Note_on_c, 9, 51, 95
8, 145920, Note_on_c, 9, 36, 95
8, 146160, Note_off_c, 9, 51, 80
8, 146160, Note_off_c, 9, 36, 80
8, 146160, Note_on_c, 9, 51, 95
8, 146400, Note_off_c, 9, 51, 80
8, 146400, Note_on_c, 9, 51, 95
8, 146400, Note_on_c, 9, 40, 95
8, 146640, Note_off_c, 9, 51, 80
8, 146640, Note_off_c, 9, 40, 80
8, 146640, Note_on_c, 9, 51, 95
8, 146880, Note_off_c, 9, 51, 80
8, 146880, Note_on_c, 9, 51, 95
8, 146880, Note_on_c, 9, 36, 95
8, 147120, Note_off_c, 9, 51, 80
8, 147120, Note_off_c, 9, 36, 80
8, 147120, Note_on_c, 9, 51, 95
8, 147120, Note_on_c, 9, 36, 95
8, 147360, Note_off_c, 9, 51, 80
8, 147360, Note_off_c, 9, 36, 80
8, 147360, Note_on_c, 9, 51, 95
8, 147360, Note_on_c, 9, 40, 95
8, 147600, Note_off_c, 9, 51, 80
8, 147600, Note_off_c, 9, 40, 80
8, 147600, Note_on_c, 9, 51, 95
8, 147840, Note_off_c, 9, 51, 80
8, 147840, Note_on_c, 9, 51, 95
8, 147840, Note_on_c, 9, 36, 95
8, 148080, Note_off_c, 9, 51, 80
8, 148080, Note_off_c, 9, 36, 80
8, 148080, Note_on_c, 9, 51, 95
8, 148320, Note_off_c, 9, 51, 80
8, 148320, Note_on_c, 9, 51, 95
8, 148320, Note_on_c, 9, 40, 95
8, 148560, Note_off_c, 9, 51, 80
8, 148560, Note_off_c, 9, 40, 80
8, 148560, Note_on_c, 9, 51, 95
8, 148560, Note_on_c, 9, 36, 127
8, 148800, Note_off_c, 9, 51, 80
8, 148800, Note_off_c, 9, 36, 80
8, 148800, Note_on_c, 9, 51, 95
8, 148800, Note_on_c, 9, 40, 127
8, 149040, Note_off_c, 9, 51, 80
8, 149040, Note_off_c, 9, 40, 80
8, 149040, Note_on_c, 9, 51, 95
8, 149040, Note_on_c, 9, 36, 127
8, 149280, Note_off_c, 9, 51, 80
8, 149280, Note_off_c, 9, 36, 80
8, 149280, Note_on_c, 9, 51, 95
8, 149280, Note_on_c, 9, 40, 127
8, 149520, Note_off_c, 9, 51, 80
8, 149520, Note_off_c, 9, 40, 80
8, 149520, Note_on_c, 9, 40, 95
8, 149580, Note_off_c, 9, 40, 80
8, 149580, Note_on_c, 9, 40, 63
8, 149640, Note_off_c, 9, 40, 80
8, 149640, Note_on_c, 9, 40, 95
8, 149700, Note_off_c, 9, 40, 80
8, 149700, Note_on_c, 9, 40, 79
8, 149760, Note_off_c, 9, 40, 80
8, 149760, Note_on_c, 9, 40, 127
8, 150000, Note_off_c, 9, 40, 80
8, 150000, Note_on_c, 9, 46, 95
8, 150000, Note_on_c, 9, 41, 63
8, 150000, Note_on_c, 9, 36, 95
8, 150240, Note_off_c, 9, 46, 80
8, 150240, Note_off_c, 9, 41, 80
8, 150240, Note_off_c, 9, 36, 80
8, 150240, Note_on_c, 9, 46, 95
8, 150240, Note_on_c, 9, 41, 63
8, 150240, Note_on_c, 9, 36, 95
8, 150480, Note_off_c, 9, 46, 80
8, 150480, Note_off_c, 9, 41, 80
8, 150480, Note_off_c, 9, 36, 80
8, 150480, Note_on_c, 9, 46, 95
8, 150480, Note_on_c, 9, 41, 63
8, 150480, Note_on_c, 9, 36, 95
8, 150720, Note_off_c, 9, 46, 80
8, 150720, Note_off_c, 9, 41, 80
8, 150720, Note_off_c, 9, 36, 80
8, 150720, Note_on_c, 9, 46, 95
8, 150720, Note_on_c, 9, 41, 63
8, 150720, Note_on_c, 9, 36, 95
8, 150960, Note_off_c, 9, 46, 80
8, 150960, Note_off_c, 9, 41, 80
8, 150960, Note_off_c, 9, 36, 80
8, 150960, Note_on_c, 9, 46, 95
8, 150960, Note_on_c, 9, 41, 63
8, 150960, Note_on_c, 9, 36, 95
8, 151200, Note_off_c, 9, 46, 80
8, 151200, Note_off_c, 9, 41, 80
8, 151200, Note_off_c, 9, 36, 80
8, 151200, Note_on_c, 9, 46, 95
8, 151200, Note_on_c, 9, 41, 63
8, 151200, Note_on_c, 9, 36, 95
8, 151440, Note_off_c, 9, 46, 80
8, 151440, Note_off_c, 9, 41, 80
8, 151440, Note_off_c, 9, 36, 80
8, 151440, Note_on_c, 9, 46, 95
8, 151440, Note_on_c, 9, 41, 63
8, 151440, Note_on_c, 9, 36, 95
8, 151680, Note_off_c, 9, 46, 80
8, 151680, Note_off_c, 9, 41, 80
8, 151680, Note_off_c, 9, 36, 80
8, 151680, Note_on_c, 9, 55, 95
8, 151680, Note_on_c, 9, 36, 95
8, 151920, Note_off_c, 9, 55, 80
8, 151920, Note_off_c, 9, 36, 80
8, 151920, Note_on_c, 9, 51, 95
8, 152160, Note_off_c, 9, 51, 80
8, 152160, Note_on_c, 9, 51, 95
8, 152160, Note_on_c, 9, 40, 95
8, 152400, Note_off_c, 9, 51, 80
8, 152400, Note_off_c, 9, 40, 80
8, 152400, Note_on_c, 9, 51, 95
8, 152640, Note_off_c, 9, 51, 80
8, 152640, Note_on_c, 9, 51, 95
8, 152640, Note_on_c, 9, 36, 95
8, 152880, Note_off_c, 9, 51, 80
8, 152880, Note_off_c, 9, 36, 80
8, 152880, Note_on_c, 9, 51, 95
8, 152880, Note_on_c, 9, 36, 95
8, 153120, Note_off_c, 9, 51, 80
8, 153120, Note_off_c, 9, 36, 80
8, 153120, Note_on_c, 9, 51, 95
8, 153120, Note_on_c, 9, 40, 127
8, 153240, Note_off_c, 9, 51, 80
8, 153240, Note_off_c, 9, 40, 80
8, 153240, Note_on_c, 9, 40, 95
8, 153360, Note_off_c, 9, 40, 80
8, 153360, Note_on_c, 9, 51, 95
8, 153360, Note_on_c, 9, 36, 95
8, 153600, Note_off_c, 9, 51, 80
8, 153600, Note_off_c, 9, 36, 80
8, 153600, Note_on_c, 9, 49, 95
8, 153600, Note_on_c, 9, 36, 95
8, 153840, Note_off_c, 9, 49, 80
8, 153840, Note_off_c, 9, 36, 80
8, 153840, Note_on_c, 9, 51, 95
8, 154080, Note_off_c, 9, 51, 80
8, 154080, Note_on_c, 9, 51, 95
8, 154080, Note_on_c, 9, 40, 95
8, 154320, Note_off_c, 9, 51, 80
8, 154320, Note_off_c, 9, 40, 80
8, 154320, Note_on_c, 9, 51, 95
8, 154560, Note_off_c, 9, 51, 80
8, 154560, Note_on_c, 9, 51, 95
8, 154560, Note_on_c, 9, 36, 95
8, 154800, Note_off_c, 9, 51, 80
8, 154800, Note_off_c, 9, 36, 80
8, 154800, Note_on_c, 9, 51, 95
8, 154800, Note_on_c, 9, 36, 95
8, 155040, Note_off_c, 9, 51, 80
8, 155040, Note_off_c, 9, 36, 80
8, 155040, Note_on_c, 9, 51, 95
8, 155040, Note_on_c, 9, 40, 95
8, 155280, Note_off_c, 9, 51, 80
8, 155280, Note_off_c, 9, 40, 80
8, 155280, Note_on_c, 9, 51, 95
8, 155520, Note_off_c, 9, 51, 80
8, 155520, Note_on_c, 9, 51, 95
8, 155520, Note_on_c, 9, 36, 95
8, 155760, Note_off_c, 9, 51, 80
8, 155760, Note_off_c, 9, 36, 80
8, 155760, Note_on_c, 9, 51, 95
8, 156000, Note_off_c, 9, 51, 80
8, 156000, Note_on_c, 9, 51, 95
8, 156000, Note_on_c, 9, 40, 95
8, 156240, Note_off_c, 9, 51, 80
8, 156240, Note_off_c, 9, 40, 80
8, 156240, Note_on_c, 9, 51, 95
8, 156480, Note_off_c, 9, 51, 80
8, 156480, Note_on_c, 9, 51, 95
8, 156480, Note_on_c, 9, 36, 95
8, 156720, Note_off_c, 9, 51, 80
8, 156720, Note_off_c, 9, 36, 80
8, 156720, Note_on_c, 9, 51, 95
8, 156720, Note_on_c, 9, 36, 95
8, 156960, Note_off_c, 9, 51, 80
8, 156960, Note_off_c, 9, 36, 80
8, 156960, Note_on_c, 9, 51, 95
8, 156960, Note_on_c, 9, 40, 95
8, 157200, Note_off_c, 9, 51, 80
8, 157200, Note_off_c, 9, 40, 80
8, 157200, Note_on_c, 9, 51, 95
8, 157440, Note_off_c, 9, 51, 80
8, 157440, Note_on_c, 9, 51, 95
8, 157440, Note_on_c, 9, 36, 95
8, 157680, Note_off_c, 9, 51, 80
8, 157680, Note_off_c, 9, 36, 80
8, 157680, Note_on_c, 9, 51, 95
8, 157920, Note_off_c, 9, 51, 80
8, 157920, Note_on_c, 9, 51, 95
8, 157920, Note_on_c, 9, 40, 95
8, 158160, Note_off_c, 9, 51, 80
8, 158160, Note_off_c, 9, 40, 80
8, 158160, Note_on_c, 9, 51, 95
8, 158160, Note_on_c, 9, 36, 127
8, 158400, Note_off_c, 9, 51, 80
8, 158400, Note_off_c, 9, 36, 80
8, 158400, Note_on_c, 9, 51, 95
8, 158400, Note_on_c, 9, 40, 127
8, 158640, Note_off_c, 9, 51, 80
8, 158640, Note_off_c, 9, 40, 80
8, 158640, Note_on_c, 9, 51, 95
8, 158640, Note_on_c, 9, 36, 127
8, 158880, Note_off_c, 9, 51, 80
8, 158880, Note_off_c, 9, 36, 80
8, 158880, Note_on_c, 9, 51, 95
8, 158880, Note_on_c, 9, 40, 127
8, 159120, Note_off_c, 9, 51, 80
8, 159120, Note_off_c, 9, 40, 80
8, 159120, Note_on_c, 9, 40, 95
8, 159180, Note_off_c, 9, 40, 80
8, 159180, Note_on_c, 9, 40, 63
8, 159240, Note_off_c, 9, 40, 80
8, 159240, Note_on_c, 9, 40, 95
8, 159300, Note_off_c, 9, 40, 80
8, 159300, Note_on_c, 9, 40, 79
8, 159360, Note_off_c, 9, 40, 80
8, 159360, Note_on_c, 9, 40, 127
8, 159600, Note_off_c, 9, 40, 80
8, 159600, Note_on_c, 9, 46, 95
8, 159600, Note_on_c, 9, 41, 63
8, 159600, Note_on_c, 9, 36, 95
8, 159840, Note_off_c, 9, 46, 80
8, 159840, Note_off_c, 9, 41, 80
8, 159840, Note_off_c, 9, 36, 80
8, 159840, Note_on_c, 9, 46, 95
8, 159840, Note_on_c, 9, 41, 63
8, 159840, Note_on_c, 9, 36, 95
8, 160080, Note_off_c, 9, 46, 80
8, 160080, Note_off_c, 9, 41, 80
8, 160080, Note_off_c, 9, 36, 80
8, 160080, Note_on_c, 9, 46, 95
8, 160080, Note_on_c, 9, 41, 63
8, 160080, Note_on_c, 9, 36, 95
8, 160320, Note_off_c, 9, 46, 80
8, 160320, Note_off_c, 9, 41, 80
8, 160320, Note_off_c, 9, 36, 80
8, 160320, Note_on_c, 9, 46, 95
8, 160320, Note_on_c, 9, 41, 63
8, 160320, Note_on_c, 9, 36, 95
8, 160560, Note_off_c, 9, 46, 80
8, 160560, Note_off_c, 9, 41, 80
8, 160560, Note_off_c, 9, 36, 80
8, 160560, Note_on_c, 9, 46, 95
8, 160560, Note_on_c, 9, 41, 63
8, 160560, Note_on_c, 9, 36, 95
8, 160800, Note_off_c, 9, 46, 80
8, 160800, Note_off_c, 9, 41, 80
8, 160800, Note_off_c, 9, 36, 80
8, 160800, Note_on_c, 9, 46, 95
8, 160800, Note_on_c, 9, 41, 63
8, 160800, Note_on_c, 9, 36, 95
8, 161040, Note_off_c, 9, 46, 80
8, 161040, Note_off_c, 9, 41, 80
8, 161040, Note_off_c, 9, 36, 80
8, 161040, Note_on_c, 9, 46, 95
8, 161040, Note_on_c, 9, 41, 63
8, 161040, Note_on_c, 9, 36, 95
8, 161280, Note_off_c, 9, 46, 80
8, 161280, Note_off_c, 9, 41, 80
8, 161280, Note_off_c, 9, 36, 80
8, 161280, Note_on_c, 9, 55, 95
8, 161280, Note_on_c, 9, 36, 95
8, 161520, Note_off_c, 9, 55, 80
8, 161520, Note_off_c, 9, 36, 80
8, 161520, Note_on_c, 9, 51, 95
8, 161760, Note_off_c, 9, 51, 80
8, 161760, Note_on_c, 9, 51, 95
8, 161760, Note_on_c, 9, 40, 95
8, 162000, Note_off_c, 9, 51, 80
8, 162000, Note_off_c, 9, 40, 80
8, 162000, Note_on_c, 9, 51, 95
8, 162240, Note_off_c, 9, 51, 80
8, 162240, Note_on_c, 9, 51, 95
8, 162240, Note_on_c, 9, 36, 95
8, 162480, Note_off_c, 9, 51, 80
8, 162480, Note_off_c, 9, 36, 80
8, 162480, Note_on_c, 9, 51, 95
8, 162480, Note_on_c, 9, 36, 95
8, 162720, Note_off_c, 9, 51, 80
8, 162720, Note_off_c, 9, 36, 80
8, 162720, Note_on_c, 9, 51, 95
8, 162720, Note_on_c, 9, 40, 127
8, 162840, Note_off_c, 9, 51, 80
8, 162840, Note_off_c, 9, 40, 80
8, 162840, Note_on_c, 9, 51, 95
8, 162840, Note_on_c, 9, 40, 63
8, 162960, Note_off_c, 9, 51, 80
8, 162960, Note_off_c, 9, 40, 80
8, 162960, Note_on_c, 9, 51, 95
8, 162960, Note_on_c, 9, 36, 95
8, 163200, Note_off_c, 9, 51, 80
8, 163200, Note_off_c, 9, 36, 80
8, 163200, Note_on_c, 9, 49, 127
8, 163200, Note_on_c, 9, 36, 127
8, 163680, Note_off_c, 9, 49, 80
8, 163680, Note_off_c, 9, 36, 80
8, 163680, End_track
0, 0, End_of_file
