0, 0, Header, 1, 8, 480
1, 0, Start_track
1, 0, Tempo, 461538
1, 0, Title_t, "Here comes your man"
1, 0, Time_signature, 4, 2, 7, 10
1, 13440, Marker_t, "Verse"
1, 44160, Marker_t, ""
1, 49920, Marker_t, "Chorus"
1, 61440, Marker_t, "Riff 1"
1, 69120, Marker_t, "Verse"
1, 84480, Marker_t, ""
1, 90240, Marker_t, "Chorus"
1, 105600, Marker_t, "Riff 2"
1, 120960, Marker_t, ""
1, 136320, Marker_t, ""
1, 142080, Marker_t, "Chorus"
1, 142080, End_track
2, 0, Start_track
2, 0, Title_t, "Franck Black"
2, 0, Control_c, 1, 100, 0
2, 0, Control_c, 1, 101, 0
2, 0, Control_c, 1, 6, 12
2, 0, Pitch_bend_c, 1, 8192
2, 0, Control_c, 1, 101, 0
2, 0, Control_c, 1, 100, 1
2, 0, Control_c, 1, 6, 64
2, 0, Control_c, 1, 38, 0
2, 0, Control_c, 1, 101, 127
2, 0, Control_c, 1, 100, 127
2, 0, Control_c, 0, 100, 0
2, 0, Control_c, 0, 101, 0
2, 0, Control_c, 0, 6, 12
2, 0, Pitch_bend_c, 0, 8192
2, 0, Control_c, 0, 101, 0
2, 0, Control_c, 0, 100, 1
2, 0, Control_c, 0, 6, 64
2, 0, Control_c, 0, 38, 0
2, 0, Control_c, 0, 101, 127
2, 0, Control_c, 0, 100, 127
2, 0, Control_c, 1, 101, 0
2, 0, Control_c, 1, 100, 2
2, 0, Control_c, 1, 6, 64
2, 0, Control_c, 1, 101, 127
2, 0, Control_c, 1, 100, 127
2, 0, Control_c, 0, 101, 0
2, 0, Control_c, 0, 100, 2
2, 0, Control_c, 0, 6, 64
2, 0, Control_c, 0, 101, 127
2, 0, Control_c, 0, 100, 127
2, 0, Program_c, 1, 25
2, 0, Program_c, 0, 25
2, 0, Control_c, 1, 0, 0
2, 0, Control_c, 0, 0, 0
2, 0, Control_c, 1, 7, 80
2, 0, Control_c, 0, 7, 80
2, 0, Control_c, 1, 10, 48
2, 0, Control_c, 0, 10, 48
2, 0, Control_c, 1, 93, 0
2, 0, Control_c, 0, 93, 0
2, 0, Control_c, 1, 91, 0
2, 0, Control_c, 0, 91, 0
2, 0, Control_c, 1, 92, 0
2, 0, Control_c, 0, 92, 0
2, 0, Control_c, 1, 95, 0
2, 0, Control_c, 0, 95, 0
2, 0, Note_on_c, 0, 50, 95
2, 10, Note_on_c, 0, 57, 95
2, 20, Note_on_c, 0, 62, 95
2, 30, Note_on_c, 0, 65, 95
2, 3840, Note_off_c, 0, 50, 80
2, 3840, Note_off_c, 0, 57, 80
2, 3840, Note_off_c, 0, 62, 80
2, 3840, Note_off_c, 0, 65, 80
2, 3840, Note_on_c, 0, 43, 95
2, 3850, Note_on_c, 0, 50, 95
2, 4080, Note_off_c, 0, 50, 80
2, 4080, Note_on_c, 0, 50, 95
2, 4090, Note_on_c, 0, 55, 95
2, 4100, Note_on_c, 0, 62, 95
2, 4320, Note_off_c, 0, 50, 80
2, 4320, Note_off_c, 0, 55, 80
2, 4320, Note_off_c, 0, 62, 80
2, 4320, Note_on_c, 0, 50, 95
2, 4330, Note_on_c, 0, 55, 95
2, 4340, Note_on_c, 0, 62, 95
2, 4560, Note_off_c, 0, 50, 80
2, 4560, Note_off_c, 0, 55, 80
2, 4560, Note_off_c, 0, 62, 80
2, 4560, Note_on_c, 0, 50, 95
2, 4570, Note_on_c, 0, 55, 95
2, 4580, Note_on_c, 0, 62, 95
2, 4800, Note_off_c, 0, 43, 80
2, 4800, Note_off_c, 0, 50, 80
2, 4800, Note_off_c, 0, 55, 80
2, 4800, Note_off_c, 0, 62, 80
2, 4800, Note_on_c, 0, 45, 95
2, 4810, Note_on_c, 0, 52, 95
2, 5040, Note_off_c, 0, 52, 80
2, 5040, Note_on_c, 0, 52, 95
2, 5050, Note_on_c, 0, 57, 95
2, 5280, Note_off_c, 0, 52, 80
2, 5280, Note_off_c, 0, 57, 80
2, 5280, Note_on_c, 0, 52, 95
2, 5290, Note_on_c, 0, 57, 95
2, 5300, Note_on_c, 0, 61, 95
2, 5520, Note_off_c, 0, 52, 80
2, 5520, Note_off_c, 0, 57, 80
2, 5520, Note_off_c, 0, 61, 80
2, 5520, Note_on_c, 0, 52, 95
2, 5530, Note_on_c, 0, 57, 95
2, 5540, Note_on_c, 0, 61, 95
2, 5760, Note_off_c, 0, 45, 80
2, 5760, Note_off_c, 0, 52, 80
2, 5760, Note_off_c, 0, 57, 80
2, 5760, Note_off_c, 0, 61, 80
2, 5760, Note_on_c, 0, 50, 95
2, 5770, Note_on_c, 0, 57, 95
2, 5780, Note_on_c, 0, 62, 95
2, 6480, Note_off_c, 0, 50, 80
2, 6480, Note_off_c, 0, 57, 80
2, 6480, Note_off_c, 0, 62, 80
2, 6480, Note_on_c, 0, 57, 95
2, 6490, Note_on_c, 0, 62, 95
2, 6500, Note_on_c, 0, 66, 95
2, 6960, Note_off_c, 0, 57, 80
2, 6960, Note_off_c, 0, 62, 80
2, 6960, Note_off_c, 0, 66, 80
2, 6960, Note_on_c, 0, 57, 95
2, 6970, Note_on_c, 0, 62, 95
2, 6980, Note_on_c, 0, 66, 95
2, 7200, Note_off_c, 0, 57, 80
2, 7200, Note_off_c, 0, 62, 80
2, 7200, Note_off_c, 0, 66, 80
2, 7200, Note_on_c, 0, 57, 95
2, 7210, Note_on_c, 0, 62, 95
2, 7220, Note_on_c, 0, 66, 95
2, 7440, Note_off_c, 0, 57, 80
2, 7440, Note_off_c, 0, 62, 80
2, 7440, Note_off_c, 0, 66, 80
2, 7440, Note_on_c, 0, 57, 95
2, 7450, Note_on_c, 0, 62, 95
2, 7460, Note_on_c, 0, 66, 95
2, 7680, Note_off_c, 0, 57, 80
2, 7680, Note_off_c, 0, 62, 80
2, 7680, Note_off_c, 0, 66, 80
2, 7680, Note_on_c, 0, 43, 95
2, 7690, Note_on_c, 0, 50, 95
2, 7920, Note_off_c, 0, 50, 80
2, 7920, Note_on_c, 0, 50, 95
2, 7930, Note_on_c, 0, 55, 95
2, 7940, Note_on_c, 0, 62, 95
2, 8160, Note_off_c, 0, 50, 80
2, 8160, Note_off_c, 0, 55, 80
2, 8160, Note_off_c, 0, 62, 80
2, 8160, Note_on_c, 0, 50, 95
2, 8170, Note_on_c, 0, 55, 95
2, 8180, Note_on_c, 0, 62, 95
2, 8400, Note_off_c, 0, 50, 80
2, 8400, Note_off_c, 0, 55, 80
2, 8400, Note_off_c, 0, 62, 80
2, 8400, Note_on_c, 0, 50, 95
2, 8410, Note_on_c, 0, 55, 95
2, 8420, Note_on_c, 0, 62, 95
2, 8640, Note_off_c, 0, 43, 80
2, 8640, Note_off_c, 0, 50, 80
2, 8640, Note_off_c, 0, 55, 80
2, 8640, Note_off_c, 0, 62, 80
2, 8640, Note_on_c, 0, 45, 95
2, 8650, Note_on_c, 0, 52, 95
2, 8880, Note_off_c, 0, 52, 80
2, 8880, Note_on_c, 0, 52, 95
2, 8890, Note_on_c, 0, 57, 95
2, 9120, Note_off_c, 0, 52, 80
2, 9120, Note_off_c, 0, 57, 80
2, 9120, Note_on_c, 0, 52, 95
2, 9130, Note_on_c, 0, 57, 95
2, 9140, Note_on_c, 0, 61, 95
2, 9360, Note_off_c, 0, 52, 80
2, 9360, Note_off_c, 0, 57, 80
2, 9360, Note_off_c, 0, 61, 80
2, 9360, Note_on_c, 0, 52, 95
2, 9370, Note_on_c, 0, 57, 95
2, 9380, Note_on_c, 0, 61, 95
2, 9600, Note_off_c, 0, 45, 80
2, 9600, Note_off_c, 0, 52, 80
2, 9600, Note_off_c, 0, 57, 80
2, 9600, Note_off_c, 0, 61, 80
2, 9600, Note_on_c, 0, 50, 95
2, 9610, Note_on_c, 0, 57, 95
2, 9620, Note_on_c, 0, 62, 95
2, 10320, Note_off_c, 0, 50, 80
2, 10320, Note_off_c, 0, 57, 80
2, 10320, Note_off_c, 0, 62, 80
2, 10320, Note_on_c, 0, 57, 95
2, 10330, Note_on_c, 0, 62, 95
2, 10340, Note_on_c, 0, 66, 95
2, 10800, Note_off_c, 0, 57, 80
2, 10800, Note_off_c, 0, 62, 80
2, 10800, Note_off_c, 0, 66, 80
2, 10800, Note_on_c, 0, 57, 95
2, 10810, Note_on_c, 0, 62, 95
2, 10820, Note_on_c, 0, 66, 95
2, 11040, Note_off_c, 0, 57, 80
2, 11040, Note_off_c, 0, 62, 80
2, 11040, Note_off_c, 0, 66, 80
2, 11040, Note_on_c, 0, 57, 95
2, 11050, Note_on_c, 0, 62, 95
2, 11060, Note_on_c, 0, 66, 95
2, 11280, Note_off_c, 0, 57, 80
2, 11280, Note_off_c, 0, 62, 80
2, 11280, Note_off_c, 0, 66, 80
2, 11280, Note_on_c, 0, 57, 95
2, 11290, Note_on_c, 0, 62, 95
2, 11300, Note_on_c, 0, 66, 95
2, 11520, Note_off_c, 0, 57, 80
2, 11520, Note_off_c, 0, 62, 80
2, 11520, Note_off_c, 0, 66, 80
2, 11520, Note_on_c, 0, 43, 95
2, 11530, Note_on_c, 0, 50, 95
2, 11760, Note_off_c, 0, 50, 80
2, 11760, Note_on_c, 0, 50, 95
2, 11770, Note_on_c, 0, 55, 95
2, 11780, Note_on_c, 0, 62, 95
2, 12000, Note_off_c, 0, 50, 80
2, 12000, Note_off_c, 0, 55, 80
2, 12000, Note_off_c, 0, 62, 80
2, 12000, Note_on_c, 0, 50, 95
2, 12010, Note_on_c, 0, 55, 95
2, 12020, Note_on_c, 0, 62, 95
2, 12240, Note_off_c, 0, 50, 80
2, 12240, Note_off_c, 0, 55, 80
2, 12240, Note_off_c, 0, 62, 80
2, 12240, Note_on_c, 0, 50, 95
2, 12250, Note_on_c, 0, 55, 95
2, 12260, Note_on_c, 0, 62, 95
2, 12480, Note_off_c, 0, 43, 80
2, 12480, Note_off_c, 0, 50, 80
2, 12480, Note_off_c, 0, 55, 80
2, 12480, Note_off_c, 0, 62, 80
2, 12480, Note_on_c, 0, 45, 95
2, 12490, Note_on_c, 0, 52, 95
2, 12720, Note_off_c, 0, 52, 80
2, 12720, Note_on_c, 0, 52, 95
2, 12730, Note_on_c, 0, 57, 95
2, 12960, Note_off_c, 0, 52, 80
2, 12960, Note_off_c, 0, 57, 80
2, 12960, Note_on_c, 0, 52, 95
2, 12970, Note_on_c, 0, 57, 95
2, 12980, Note_on_c, 0, 61, 95
2, 13200, Note_off_c, 0, 52, 80
2, 13200, Note_off_c, 0, 57, 80
2, 13200, Note_off_c, 0, 61, 80
2, 13200, Note_on_c, 0, 52, 95
2, 13210, Note_on_c, 0, 57, 95
2, 13220, Note_on_c, 0, 61, 95
2, 13440, Note_off_c, 0, 45, 80
2, 13440, Note_off_c, 0, 52, 80
2, 13440, Note_off_c, 0, 57, 80
2, 13440, Note_off_c, 0, 61, 80
2, 13440, Note_on_c, 0, 50, 127
2, 13450, Note_on_c, 0, 57, 95
2, 13460, Note_on_c, 0, 62, 95
2, 13470, Note_on_c, 0, 66, 95
2, 15360, Note_off_c, 0, 50, 80
2, 15360, Note_off_c, 0, 57, 80
2, 15360, Note_off_c, 0, 62, 80
2, 15360, Note_off_c, 0, 66, 80
2, 17040, Note_on_c, 0, 45, 127
2, 17050, Note_on_c, 0, 52, 95
2, 17060, Note_on_c, 0, 57, 95
2, 17280, Note_off_c, 0, 45, 80
2, 17280, Note_off_c, 0, 52, 80
2, 17280, Note_off_c, 0, 57, 80
2, 17280, Note_on_c, 0, 55, 95
2, 17290, Note_on_c, 0, 52, 95
2, 17300, Note_on_c, 0, 47, 127
2, 17310, Note_on_c, 0, 40, 95
2, 19200, Note_off_c, 0, 55, 80
2, 19200, Note_off_c, 0, 52, 80
2, 19200, Note_off_c, 0, 47, 80
2, 19200, Note_off_c, 0, 40, 80
2, 20880, Note_on_c, 0, 50, 127
2, 20890, Note_on_c, 0, 57, 95
2, 20900, Note_on_c, 0, 62, 95
2, 21000, Note_off_c, 0, 50, 80
2, 21000, Note_off_c, 0, 57, 80
2, 21000, Note_off_c, 0, 62, 80
2, 21000, Note_on_c, 0, 62, 95
2, 21010, Note_on_c, 0, 57, 95
2, 21020, Note_on_c, 0, 50, 127
2, 21120, Note_off_c, 0, 62, 80
2, 21120, Note_off_c, 0, 57, 80
2, 21120, Note_off_c, 0, 50, 80
2, 21120, Note_on_c, 0, 50, 127
2, 21130, Note_on_c, 0, 57, 95
2, 21140, Note_on_c, 0, 62, 95
2, 23040, Note_off_c, 0, 50, 80
2, 23040, Note_off_c, 0, 57, 80
2, 23040, Note_off_c, 0, 62, 80
2, 24720, Note_on_c, 0, 45, 95
2, 24730, Note_on_c, 0, 52, 127
2, 24740, Note_on_c, 0, 57, 95
2, 24960, Note_off_c, 0, 45, 80
2, 24960, Note_off_c, 0, 52, 80
2, 24960, Note_off_c, 0, 57, 80
2, 24960, Note_on_c, 0, 40, 95
2, 24970, Note_on_c, 0, 47, 95
2, 24980, Note_on_c, 0, 52, 127
2, 24990, Note_on_c, 0, 55, 95
2, 26160, Note_off_c, 0, 40, 80
2, 26160, Note_off_c, 0, 47, 80
2, 26160, Note_off_c, 0, 52, 80
2, 26160, Note_off_c, 0, 55, 80
2, 26160, Note_on_c, 0, 40, 95
2, 26170, Note_on_c, 0, 47, 95
2, 26180, Note_on_c, 0, 52, 127
2, 26190, Note_on_c, 0, 55, 95
2, 26400, Note_off_c, 0, 40, 80
2, 26400, Note_off_c, 0, 47, 80
2, 26400, Note_off_c, 0, 52, 80
2, 26400, Note_off_c, 0, 55, 80
2, 26400, Note_on_c, 0, 40, 95
2, 26410, Note_on_c, 0, 47, 95
2, 26420, Note_on_c, 0, 52, 127
2, 26430, Note_on_c, 0, 55, 95
2, 26640, Note_off_c, 0, 40, 80
2, 26640, Note_off_c, 0, 47, 80
2, 26640, Note_off_c, 0, 52, 80
2, 26640, Note_off_c, 0, 55, 80
2, 26640, Note_on_c, 0, 40, 95
2, 26650, Note_on_c, 0, 47, 95
2, 26660, Note_on_c, 0, 52, 127
2, 26670, Note_on_c, 0, 55, 95
2, 26880, Note_off_c, 0, 40, 80
2, 26880, Note_off_c, 0, 47, 80
2, 26880, Note_off_c, 0, 52, 80
2, 26880, Note_off_c, 0, 55, 80
2, 26880, Note_on_c, 0, 43, 95
2, 26890, Note_on_c, 0, 50, 95
2, 26900, Note_on_c, 0, 55, 95
2, 26910, Note_on_c, 0, 59, 95
2, 27360, Note_off_c, 0, 43, 80
2, 27360, Note_off_c, 0, 50, 80
2, 27360, Note_off_c, 0, 55, 80
2, 27360, Note_off_c, 0, 59, 80
2, 27360, Note_on_c, 0, 43, 95
2, 27370, Note_on_c, 0, 50, 95
2, 27380, Note_on_c, 0, 55, 95
2, 27600, Note_off_c, 0, 43, 80
2, 27600, Note_off_c, 0, 50, 80
2, 27600, Note_off_c, 0, 55, 80
2, 27600, Note_on_c, 0, 55, 95
2, 27610, Note_on_c, 0, 50, 95
2, 27620, Note_on_c, 0, 43, 95
2, 27840, Note_off_c, 0, 55, 80
2, 27840, Note_off_c, 0, 50, 80
2, 27840, Note_off_c, 0, 43, 80
2, 27840, Note_on_c, 0, 43, 95
2, 27850, Note_on_c, 0, 50, 95
2, 27860, Note_on_c, 0, 55, 95
2, 28080, Note_off_c, 0, 43, 80
2, 28080, Note_off_c, 0, 50, 80
2, 28080, Note_off_c, 0, 55, 80
2, 28080, Note_on_c, 0, 55, 95
2, 28090, Note_on_c, 0, 50, 95
2, 28100, Note_on_c, 0, 43, 95
2, 28320, Note_off_c, 0, 55, 80
2, 28320, Note_off_c, 0, 50, 80
2, 28320, Note_off_c, 0, 43, 80
2, 28320, Note_on_c, 0, 43, 95
2, 28330, Note_on_c, 0, 50, 95
2, 28340, Note_on_c, 0, 55, 95
2, 28560, Note_off_c, 0, 43, 80
2, 28560, Note_off_c, 0, 50, 80
2, 28560, Note_off_c, 0, 55, 80
2, 28560, Note_on_c, 0, 43, 95
2, 28570, Note_on_c, 0, 50, 95
2, 28580, Note_on_c, 0, 55, 95
2, 28800, Note_off_c, 0, 43, 80
2, 28800, Note_off_c, 0, 50, 80
2, 28800, Note_off_c, 0, 55, 80
2, 28800, Note_on_c, 0, 50, 95
2, 28810, Note_on_c, 0, 57, 95
2, 28820, Note_on_c, 0, 62, 95
2, 29040, Note_off_c, 0, 50, 80
2, 29040, Note_off_c, 0, 57, 80
2, 29040, Note_off_c, 0, 62, 80
2, 29040, Note_on_c, 0, 62, 95
2, 29050, Note_on_c, 0, 57, 95
2, 29060, Note_on_c, 0, 50, 95
2, 29280, Note_off_c, 0, 62, 80
2, 29280, Note_off_c, 0, 57, 80
2, 29280, Note_off_c, 0, 50, 80
2, 29280, Note_on_c, 0, 50, 95
2, 29290, Note_on_c, 0, 57, 95
2, 29300, Note_on_c, 0, 62, 95
2, 29520, Note_off_c, 0, 50, 80
2, 29520, Note_off_c, 0, 57, 80
2, 29520, Note_off_c, 0, 62, 80
2, 29520, Note_on_c, 0, 62, 95
2, 29530, Note_on_c, 0, 57, 95
2, 29540, Note_on_c, 0, 50, 95
2, 29760, Note_off_c, 0, 62, 80
2, 29760, Note_off_c, 0, 57, 80
2, 29760, Note_off_c, 0, 50, 80
2, 29760, Note_on_c, 0, 50, 95
2, 29770, Note_on_c, 0, 57, 95
2, 29780, Note_on_c, 0, 62, 95
2, 30000, Note_off_c, 0, 50, 80
2, 30000, Note_off_c, 0, 57, 80
2, 30000, Note_off_c, 0, 62, 80
2, 30000, Note_on_c, 0, 62, 95
2, 30010, Note_on_c, 0, 57, 95
2, 30020, Note_on_c, 0, 50, 95
2, 30240, Note_off_c, 0, 62, 80
2, 30240, Note_off_c, 0, 57, 80
2, 30240, Note_off_c, 0, 50, 80
2, 30240, Note_on_c, 0, 50, 95
2, 30250, Note_on_c, 0, 57, 95
2, 30260, Note_on_c, 0, 62, 95
2, 30480, Note_off_c, 0, 50, 80
2, 30480, Note_off_c, 0, 57, 80
2, 30480, Note_off_c, 0, 62, 80
2, 30480, Note_on_c, 0, 62, 95
2, 30490, Note_on_c, 0, 57, 95
2, 30500, Note_on_c, 0, 50, 95
2, 30720, Note_off_c, 0, 62, 80
2, 30720, Note_off_c, 0, 57, 80
2, 30720, Note_off_c, 0, 50, 80
2, 30720, Note_on_c, 0, 45, 95
2, 30730, Note_on_c, 0, 52, 95
2, 30740, Note_on_c, 0, 57, 95
2, 30750, Note_on_c, 0, 61, 95
2, 30960, Note_off_c, 0, 45, 80
2, 30960, Note_off_c, 0, 52, 80
2, 30960, Note_off_c, 0, 57, 80
2, 30960, Note_off_c, 0, 61, 80
2, 30960, Note_on_c, 0, 61, 95
2, 30970, Note_on_c, 0, 57, 95
2, 30980, Note_on_c, 0, 52, 95
2, 30990, Note_on_c, 0, 45, 95
2, 31200, Note_off_c, 0, 61, 80
2, 31200, Note_off_c, 0, 57, 80
2, 31200, Note_off_c, 0, 52, 80
2, 31200, Note_off_c, 0, 45, 80
2, 31200, Note_on_c, 0, 45, 95
2, 31210, Note_on_c, 0, 52, 95
2, 31220, Note_on_c, 0, 57, 95
2, 31230, Note_on_c, 0, 61, 95
2, 31440, Note_off_c, 0, 45, 80
2, 31440, Note_off_c, 0, 52, 80
2, 31440, Note_off_c, 0, 57, 80
2, 31440, Note_off_c, 0, 61, 80
2, 31440, Note_on_c, 0, 61, 95
2, 31450, Note_on_c, 0, 57, 95
2, 31460, Note_on_c, 0, 52, 95
2, 31470, Note_on_c, 0, 45, 95
2, 31680, Note_off_c, 0, 61, 80
2, 31680, Note_off_c, 0, 57, 80
2, 31680, Note_off_c, 0, 52, 80
2, 31680, Note_off_c, 0, 45, 80
2, 31680, Note_on_c, 0, 45, 95
2, 31690, Note_on_c, 0, 52, 95
2, 31700, Note_on_c, 0, 57, 95
2, 31710, Note_on_c, 0, 61, 95
2, 31920, Note_off_c, 0, 45, 80
2, 31920, Note_off_c, 0, 52, 80
2, 31920, Note_off_c, 0, 57, 80
2, 31920, Note_off_c, 0, 61, 80
2, 31920, Note_on_c, 0, 61, 95
2, 31930, Note_on_c, 0, 57, 95
2, 31940, Note_on_c, 0, 52, 95
2, 31950, Note_on_c, 0, 45, 95
2, 32160, Note_off_c, 0, 61, 80
2, 32160, Note_off_c, 0, 57, 80
2, 32160, Note_off_c, 0, 52, 80
2, 32160, Note_off_c, 0, 45, 80
2, 32160, Note_on_c, 0, 45, 95
2, 32170, Note_on_c, 0, 52, 95
2, 32180, Note_on_c, 0, 57, 95
2, 32190, Note_on_c, 0, 61, 95
2, 32400, Note_off_c, 0, 45, 80
2, 32400, Note_off_c, 0, 52, 80
2, 32400, Note_off_c, 0, 57, 80
2, 32400, Note_off_c, 0, 61, 80
2, 32400, Note_on_c, 0, 61, 95
2, 32410, Note_on_c, 0, 57, 95
2, 32420, Note_on_c, 0, 52, 95
2, 32430, Note_on_c, 0, 45, 95
2, 32640, Note_off_c, 0, 61, 80
2, 32640, Note_off_c, 0, 57, 80
2, 32640, Note_off_c, 0, 52, 80
2, 32640, Note_off_c, 0, 45, 80
2, 32640, Note_on_c, 0, 40, 95
2, 32650, Note_on_c, 0, 47, 95
2, 32660, Note_on_c, 0, 52, 95
2, 32670, Note_on_c, 0, 55, 95
2, 32880, Note_off_c, 0, 40, 80
2, 32880, Note_off_c, 0, 47, 80
2, 32880, Note_off_c, 0, 52, 80
2, 32880, Note_off_c, 0, 55, 80
2, 32880, Note_on_c, 0, 55, 95
2, 32890, Note_on_c, 0, 52, 95
2, 32900, Note_on_c, 0, 47, 95
2, 32910, Note_on_c, 0, 40, 95
2, 33120, Note_off_c, 0, 55, 80
2, 33120, Note_off_c, 0, 52, 80
2, 33120, Note_off_c, 0, 47, 80
2, 33120, Note_off_c, 0, 40, 80
2, 33120, Note_on_c, 0, 40, 95
2, 33130, Note_on_c, 0, 47, 95
2, 33140, Note_on_c, 0, 52, 95
2, 33150, Note_on_c, 0, 55, 95
2, 33360, Note_off_c, 0, 40, 80
2, 33360, Note_off_c, 0, 47, 80
2, 33360, Note_off_c, 0, 52, 80
2, 33360, Note_off_c, 0, 55, 80
2, 33360, Note_on_c, 0, 55, 95
2, 33370, Note_on_c, 0, 52, 95
2, 33380, Note_on_c, 0, 47, 95
2, 33390, Note_on_c, 0, 40, 95
2, 33600, Note_off_c, 0, 55, 80
2, 33600, Note_off_c, 0, 52, 80
2, 33600, Note_off_c, 0, 47, 80
2, 33600, Note_off_c, 0, 40, 80
2, 33600, Note_on_c, 0, 40, 95
2, 33610, Note_on_c, 0, 47, 95
2, 33620, Note_on_c, 0, 52, 95
2, 33630, Note_on_c, 0, 55, 95
2, 33840, Note_off_c, 0, 40, 80
2, 33840, Note_off_c, 0, 47, 80
2, 33840, Note_off_c, 0, 52, 80
2, 33840, Note_off_c, 0, 55, 80
2, 33840, Note_on_c, 0, 55, 95
2, 33850, Note_on_c, 0, 52, 95
2, 33860, Note_on_c, 0, 47, 95
2, 33870, Note_on_c, 0, 40, 95
2, 34080, Note_off_c, 0, 55, 80
2, 34080, Note_off_c, 0, 52, 80
2, 34080, Note_off_c, 0, 47, 80
2, 34080, Note_off_c, 0, 40, 80
2, 34080, Note_on_c, 0, 40, 95
2, 34090, Note_on_c, 0, 47, 95
2, 34100, Note_on_c, 0, 52, 95
2, 34110, Note_on_c, 0, 55, 95
2, 34320, Note_off_c, 0, 40, 80
2, 34320, Note_off_c, 0, 47, 80
2, 34320, Note_off_c, 0, 52, 80
2, 34320, Note_off_c, 0, 55, 80
2, 34320, Note_on_c, 0, 55, 95
2, 34330, Note_on_c, 0, 52, 95
2, 34340, Note_on_c, 0, 47, 95
2, 34350, Note_on_c, 0, 40, 95
2, 34560, Note_off_c, 0, 55, 80
2, 34560, Note_off_c, 0, 52, 80
2, 34560, Note_off_c, 0, 47, 80
2, 34560, Note_off_c, 0, 40, 80
2, 34560, Note_on_c, 0, 43, 95
2, 34570, Note_on_c, 0, 50, 95
2, 34580, Note_on_c, 0, 55, 95
2, 34800, Note_off_c, 0, 43, 80
2, 34800, Note_off_c, 0, 50, 80
2, 34800, Note_off_c, 0, 55, 80
2, 34800, Note_on_c, 0, 55, 95
2, 34810, Note_on_c, 0, 50, 95
2, 34820, Note_on_c, 0, 43, 95
2, 35040, Note_off_c, 0, 55, 80
2, 35040, Note_off_c, 0, 50, 80
2, 35040, Note_off_c, 0, 43, 80
2, 35040, Note_on_c, 0, 43, 95
2, 35050, Note_on_c, 0, 50, 95
2, 35060, Note_on_c, 0, 55, 95
2, 35280, Note_off_c, 0, 43, 80
2, 35280, Note_off_c, 0, 50, 80
2, 35280, Note_off_c, 0, 55, 80
2, 35280, Note_on_c, 0, 55, 95
2, 35290, Note_on_c, 0, 50, 95
2, 35300, Note_on_c, 0, 43, 95
2, 35520, Note_off_c, 0, 55, 80
2, 35520, Note_off_c, 0, 50, 80
2, 35520, Note_off_c, 0, 43, 80
2, 35520, Note_on_c, 0, 43, 95
2, 35530, Note_on_c, 0, 50, 95
2, 35540, Note_on_c, 0, 55, 95
2, 35760, Note_off_c, 0, 43, 80
2, 35760, Note_off_c, 0, 50, 80
2, 35760, Note_off_c, 0, 55, 80
2, 35760, Note_on_c, 0, 55, 95
2, 35770, Note_on_c, 0, 50, 95
2, 35780, Note_on_c, 0, 43, 95
2, 36000, Note_off_c, 0, 55, 80
2, 36000, Note_off_c, 0, 50, 80
2, 36000, Note_off_c, 0, 43, 80
2, 36000, Note_on_c, 0, 43, 95
2, 36010, Note_on_c, 0, 50, 95
2, 36020, Note_on_c, 0, 55, 95
2, 36240, Note_off_c, 0, 43, 80
2, 36240, Note_off_c, 0, 50, 80
2, 36240, Note_off_c, 0, 55, 80
2, 36240, Note_on_c, 0, 55, 95
2, 36250, Note_on_c, 0, 50, 95
2, 36260, Note_on_c, 0, 43, 95
2, 36480, Note_off_c, 0, 55, 80
2, 36480, Note_off_c, 0, 50, 80
2, 36480, Note_off_c, 0, 43, 80
2, 36480, Note_on_c, 0, 50, 95
2, 36490, Note_on_c, 0, 57, 95
2, 36500, Note_on_c, 0, 62, 95
2, 36720, Note_off_c, 0, 50, 80
2, 36720, Note_off_c, 0, 57, 80
2, 36720, Note_off_c, 0, 62, 80
2, 36720, Note_on_c, 0, 62, 95
2, 36730, Note_on_c, 0, 57, 95
2, 36740, Note_on_c, 0, 50, 95
2, 36960, Note_off_c, 0, 62, 80
2, 36960, Note_off_c, 0, 57, 80
2, 36960, Note_off_c, 0, 50, 80
2, 36960, Note_on_c, 0, 50, 95
2, 36970, Note_on_c, 0, 57, 95
2, 36980, Note_on_c, 0, 62, 95
2, 37200, Note_off_c, 0, 50, 80
2, 37200, Note_off_c, 0, 57, 80
2, 37200, Note_off_c, 0, 62, 80
2, 37200, Note_on_c, 0, 62, 95
2, 37210, Note_on_c, 0, 57, 95
2, 37220, Note_on_c, 0, 50, 95
2, 37440, Note_off_c, 0, 62, 80
2, 37440, Note_off_c, 0, 57, 80
2, 37440, Note_off_c, 0, 50, 80
2, 37440, Note_on_c, 0, 50, 95
2, 37450, Note_on_c, 0, 57, 95
2, 37460, Note_on_c, 0, 62, 95
2, 37680, Note_off_c, 0, 50, 80
2, 37680, Note_off_c, 0, 57, 80
2, 37680, Note_off_c, 0, 62, 80
2, 37680, Note_on_c, 0, 62, 95
2, 37690, Note_on_c, 0, 57, 95
2, 37700, Note_on_c, 0, 50, 95
2, 37920, Note_off_c, 0, 62, 80
2, 37920, Note_off_c, 0, 57, 80
2, 37920, Note_off_c, 0, 50, 80
2, 37920, Note_on_c, 0, 50, 95
2, 37930, Note_on_c, 0, 57, 95
2, 37940, Note_on_c, 0, 62, 95
2, 38160, Note_off_c, 0, 50, 80
2, 38160, Note_off_c, 0, 57, 80
2, 38160, Note_off_c, 0, 62, 80
2, 38160, Note_on_c, 0, 62, 95
2, 38170, Note_on_c, 0, 57, 95
2, 38180, Note_on_c, 0, 50, 95
2, 38400, Note_off_c, 0, 62, 80
2, 38400, Note_off_c, 0, 57, 80
2, 38400, Note_off_c, 0, 50, 80
2, 38400, Note_on_c, 0, 45, 95
2, 38410, Note_on_c, 0, 52, 95
2, 38420, Note_on_c, 0, 57, 95
2, 38430, Note_on_c, 0, 61, 95
2, 38640, Note_off_c, 0, 45, 80
2, 38640, Note_off_c, 0, 52, 80
2, 38640, Note_off_c, 0, 57, 80
2, 38640, Note_off_c, 0, 61, 80
2, 38640, Note_on_c, 0, 61, 95
2, 38650, Note_on_c, 0, 57, 95
2, 38660, Note_on_c, 0, 52, 95
2, 38670, Note_on_c, 0, 45, 95
2, 38880, Note_off_c, 0, 61, 80
2, 38880, Note_off_c, 0, 57, 80
2, 38880, Note_off_c, 0, 52, 80
2, 38880, Note_off_c, 0, 45, 80
2, 38880, Note_on_c, 0, 45, 95
2, 38890, Note_on_c, 0, 52, 95
2, 38900, Note_on_c, 0, 57, 95
2, 38910, Note_on_c, 0, 61, 95
2, 39120, Note_off_c, 0, 45, 80
2, 39120, Note_off_c, 0, 52, 80
2, 39120, Note_off_c, 0, 57, 80
2, 39120, Note_off_c, 0, 61, 80
2, 39120, Note_on_c, 0, 61, 95
2, 39130, Note_on_c, 0, 57, 95
2, 39140, Note_on_c, 0, 52, 95
2, 39150, Note_on_c, 0, 45, 95
2, 39360, Note_off_c, 0, 61, 80
2, 39360, Note_off_c, 0, 57, 80
2, 39360, Note_off_c, 0, 52, 80
2, 39360, Note_off_c, 0, 45, 80
2, 39360, Note_on_c, 0, 45, 95
2, 39370, Note_on_c, 0, 52, 95
2, 39380, Note_on_c, 0, 57, 95
2, 39390, Note_on_c, 0, 61, 95
2, 39600, Note_off_c, 0, 45, 80
2, 39600, Note_off_c, 0, 52, 80
2, 39600, Note_off_c, 0, 57, 80
2, 39600, Note_off_c, 0, 61, 80
2, 39600, Note_on_c, 0, 61, 95
2, 39610, Note_on_c, 0, 57, 95
2, 39620, Note_on_c, 0, 52, 95
2, 39630, Note_on_c, 0, 45, 95
2, 39840, Note_off_c, 0, 61, 80
2, 39840, Note_off_c, 0, 57, 80
2, 39840, Note_off_c, 0, 52, 80
2, 39840, Note_off_c, 0, 45, 80
2, 39840, Note_on_c, 0, 45, 95
2, 39850, Note_on_c, 0, 52, 95
2, 39860, Note_on_c, 0, 57, 95
2, 39870, Note_on_c, 0, 61, 95
2, 40080, Note_off_c, 0, 45, 80
2, 40080, Note_off_c, 0, 52, 80
2, 40080, Note_off_c, 0, 57, 80
2, 40080, Note_off_c, 0, 61, 80
2, 40080, Note_on_c, 0, 61, 95
2, 40090, Note_on_c, 0, 57, 95
2, 40100, Note_on_c, 0, 52, 95
2, 40110, Note_on_c, 0, 45, 95
2, 40320, Note_off_c, 0, 61, 80
2, 40320, Note_off_c, 0, 57, 80
2, 40320, Note_off_c, 0, 52, 80
2, 40320, Note_off_c, 0, 45, 80
2, 40320, Note_on_c, 0, 40, 95
2, 40330, Note_on_c, 0, 47, 95
2, 40340, Note_on_c, 0, 52, 95
2, 40350, Note_on_c, 0, 55, 95
2, 40560, Note_off_c, 0, 40, 80
2, 40560, Note_off_c, 0, 47, 80
2, 40560, Note_off_c, 0, 52, 80
2, 40560, Note_off_c, 0, 55, 80
2, 40560, Note_on_c, 0, 55, 95
2, 40570, Note_on_c, 0, 52, 95
2, 40580, Note_on_c, 0, 47, 95
2, 40590, Note_on_c, 0, 40, 95
2, 40800, Note_off_c, 0, 55, 80
2, 40800, Note_off_c, 0, 52, 80
2, 40800, Note_off_c, 0, 47, 80
2, 40800, Note_off_c, 0, 40, 80
2, 40800, Note_on_c, 0, 40, 95
2, 40810, Note_on_c, 0, 47, 95
2, 40820, Note_on_c, 0, 52, 95
2, 40830, Note_on_c, 0, 55, 95
2, 41040, Note_off_c, 0, 40, 80
2, 41040, Note_off_c, 0, 47, 80
2, 41040, Note_off_c, 0, 52, 80
2, 41040, Note_off_c, 0, 55, 80
2, 41040, Note_on_c, 0, 55, 95
2, 41050, Note_on_c, 0, 52, 95
2, 41060, Note_on_c, 0, 47, 95
2, 41070, Note_on_c, 0, 40, 95
2, 41280, Note_off_c, 0, 55, 80
2, 41280, Note_off_c, 0, 52, 80
2, 41280, Note_off_c, 0, 47, 80
2, 41280, Note_off_c, 0, 40, 80
2, 41280, Note_on_c, 0, 40, 95
2, 41290, Note_on_c, 0, 47, 95
2, 41300, Note_on_c, 0, 52, 95
2, 41310, Note_on_c, 0, 55, 95
2, 41520, Note_off_c, 0, 40, 80
2, 41520, Note_off_c, 0, 47, 80
2, 41520, Note_off_c, 0, 52, 80
2, 41520, Note_off_c, 0, 55, 80
2, 41520, Note_on_c, 0, 55, 95
2, 41530, Note_on_c, 0, 52, 95
2, 41540, Note_on_c, 0, 47, 95
2, 41550, Note_on_c, 0, 40, 95
2, 41760, Note_off_c, 0, 55, 80
2, 41760, Note_off_c, 0, 52, 80
2, 41760, Note_off_c, 0, 47, 80
2, 41760, Note_off_c, 0, 40, 80
2, 41760, Note_on_c, 0, 40, 95
2, 41770, Note_on_c, 0, 47, 95
2, 41780, Note_on_c, 0, 52, 95
2, 41790, Note_on_c, 0, 55, 95
2, 42000, Note_off_c, 0, 40, 80
2, 42000, Note_off_c, 0, 47, 80
2, 42000, Note_off_c, 0, 52, 80
2, 42000, Note_off_c, 0, 55, 80
2, 42000, Note_on_c, 0, 55, 95
2, 42010, Note_on_c, 0, 52, 95
2, 42020, Note_on_c, 0, 47, 95
2, 42030, Note_on_c, 0, 40, 95
2, 42240, Note_off_c, 0, 55, 80
2, 42240, Note_off_c, 0, 52, 80
2, 42240, Note_off_c, 0, 47, 80
2, 42240, Note_off_c, 0, 40, 80
2, 42240, Note_on_c, 0, 43, 95
2, 42250, Note_on_c, 0, 50, 95
2, 42260, Note_on_c, 0, 55, 95
2, 42480, Note_off_c, 0, 43, 80
2, 42480, Note_off_c, 0, 50, 80
2, 42480, Note_off_c, 0, 55, 80
2, 42480, Note_on_c, 0, 55, 95
2, 42490, Note_on_c, 0, 50, 95
2, 42500, Note_on_c, 0, 43, 95
2, 42720, Note_off_c, 0, 55, 80
2, 42720, Note_off_c, 0, 50, 80
2, 42720, Note_off_c, 0, 43, 80
2, 42720, Note_on_c, 0, 43, 95
2, 42730, Note_on_c, 0, 50, 95
2, 42740, Note_on_c, 0, 55, 95
2, 42960, Note_off_c, 0, 43, 80
2, 42960, Note_off_c, 0, 50, 80
2, 42960, Note_off_c, 0, 55, 80
2, 42960, Note_on_c, 0, 55, 95
2, 42970, Note_on_c, 0, 50, 95
2, 42980, Note_on_c, 0, 43, 95
2, 43200, Note_off_c, 0, 55, 80
2, 43200, Note_off_c, 0, 50, 80
2, 43200, Note_off_c, 0, 43, 80
2, 43200, Note_on_c, 0, 43, 95
2, 43210, Note_on_c, 0, 50, 95
2, 43220, Note_on_c, 0, 55, 95
2, 43440, Note_off_c, 0, 43, 80
2, 43440, Note_off_c, 0, 50, 80
2, 43440, Note_off_c, 0, 55, 80
2, 43440, Note_on_c, 0, 55, 95
2, 43450, Note_on_c, 0, 50, 95
2, 43460, Note_on_c, 0, 43, 95
2, 43680, Note_off_c, 0, 55, 80
2, 43680, Note_off_c, 0, 50, 80
2, 43680, Note_off_c, 0, 43, 80
2, 43680, Note_on_c, 0, 43, 95
2, 43690, Note_on_c, 0, 50, 95
2, 43700, Note_on_c, 0, 55, 95
2, 43920, Note_off_c, 0, 43, 80
2, 43920, Note_off_c, 0, 50, 80
2, 43920, Note_off_c, 0, 55, 80
2, 43920, Note_on_c, 0, 55, 95
2, 43930, Note_on_c, 0, 50, 95
2, 43940, Note_on_c, 0, 43, 95
2, 44160, Note_off_c, 0, 55, 80
2, 44160, Note_off_c, 0, 50, 80
2, 44160, Note_off_c, 0, 43, 80
2, 44160, Note_on_c, 0, 47, 95
2, 44170, Note_on_c, 0, 54, 95
2, 44180, Note_on_c, 0, 59, 95
2, 44190, Note_on_c, 0, 62, 95
2, 46080, Note_off_c, 0, 47, 80
2, 46080, Note_off_c, 0, 54, 80
2, 46080, Note_off_c, 0, 59, 80
2, 46080, Note_off_c, 0, 62, 80
2, 46080, Note_on_c, 0, 43, 95
2, 46090, Note_on_c, 0, 50, 95
2, 46100, Note_on_c, 0, 55, 95
2, 46110, Note_on_c, 0, 59, 95
2, 48000, Note_off_c, 0, 43, 80
2, 48000, Note_off_c, 0, 50, 80
2, 48000, Note_off_c, 0, 55, 80
2, 48000, Note_off_c, 0, 59, 80
2, 48000, Note_on_c, 0, 45, 95
2, 48010, Note_on_c, 0, 52, 95
2, 48020, Note_on_c, 0, 57, 95
2, 48030, Note_on_c, 0, 61, 95
2, 48480, Note_off_c, 0, 45, 80
2, 48480, Note_off_c, 0, 52, 80
2, 48480, Note_off_c, 0, 57, 80
2, 48480, Note_off_c, 0, 61, 80
2, 48480, Note_on_c, 0, 45, 95
2, 48490, Note_on_c, 0, 52, 95
2, 48500, Note_on_c, 0, 57, 95
2, 48510, Note_on_c, 0, 61, 95
2, 48960, Note_off_c, 0, 45, 80
2, 48960, Note_off_c, 0, 52, 80
2, 48960, Note_off_c, 0, 57, 80
2, 48960, Note_off_c, 0, 61, 80
2, 48960, Note_on_c, 0, 45, 95
2, 48970, Note_on_c, 0, 52, 95
2, 48980, Note_on_c, 0, 57, 95
2, 48990, Note_on_c, 0, 61, 95
2, 49440, Note_off_c, 0, 45, 80
2, 49440, Note_off_c, 0, 52, 80
2, 49440, Note_off_c, 0, 57, 80
2, 49440, Note_off_c, 0, 61, 80
2, 49440, Note_on_c, 0, 45, 95
2, 49450, Note_on_c, 0, 52, 95
2, 49460, Note_on_c, 0, 57, 95
2, 49470, Note_on_c, 0, 61, 95
2, 49920, Note_off_c, 0, 45, 80
2, 49920, Note_off_c, 0, 52, 80
2, 49920, Note_off_c, 0, 57, 80
2, 49920, Note_off_c, 0, 61, 80
2, 49920, Note_on_c, 0, 50, 95
2, 49930, Note_on_c, 0, 57, 95
2, 49940, Note_on_c, 0, 62, 95
2, 49950, Note_on_c, 0, 66, 95
2, 50160, Note_off_c, 0, 50, 80
2, 50160, Note_off_c, 0, 57, 80
2, 50160, Note_off_c, 0, 62, 80
2, 50160, Note_off_c, 0, 66, 80
2, 50160, Note_on_c, 0, 66, 95
2, 50170, Note_on_c, 0, 62, 95
2, 50180, Note_on_c, 0, 57, 95
2, 50190, Note_on_c, 0, 50, 95
2, 50400, Note_off_c, 0, 66, 80
2, 50400, Note_off_c, 0, 62, 80
2, 50400, Note_off_c, 0, 57, 80
2, 50400, Note_off_c, 0, 50, 80
2, 50400, Note_on_c, 0, 50, 95
2, 50410, Note_on_c, 0, 57, 95
2, 50420, Note_on_c, 0, 62, 95
2, 50430, Note_on_c, 0, 66, 95
2, 50640, Note_off_c, 0, 50, 80
2, 50640, Note_off_c, 0, 57, 80
2, 50640, Note_off_c, 0, 62, 80
2, 50640, Note_off_c, 0, 66, 80
2, 50640, Note_on_c, 0, 66, 95
2, 50650, Note_on_c, 0, 62, 95
2, 50660, Note_on_c, 0, 57, 95
2, 50670, Note_on_c, 0, 50, 95
2, 50880, Note_off_c, 0, 66, 80
2, 50880, Note_off_c, 0, 62, 80
2, 50880, Note_off_c, 0, 57, 80
2, 50880, Note_off_c, 0, 50, 80
2, 50880, Note_on_c, 0, 50, 95
2, 50890, Note_on_c, 0, 57, 95
2, 50900, Note_on_c, 0, 62, 95
2, 50910, Note_on_c, 0, 66, 95
2, 51120, Note_off_c, 0, 50, 80
2, 51120, Note_off_c, 0, 57, 80
2, 51120, Note_off_c, 0, 62, 80
2, 51120, Note_off_c, 0, 66, 80
2, 51120, Note_on_c, 0, 66, 95
2, 51130, Note_on_c, 0, 62, 95
2, 51140, Note_on_c, 0, 57, 95
2, 51150, Note_on_c, 0, 50, 95
2, 51360, Note_off_c, 0, 66, 80
2, 51360, Note_off_c, 0, 62, 80
2, 51360, Note_off_c, 0, 57, 80
2, 51360, Note_off_c, 0, 50, 80
2, 51360, Note_on_c, 0, 50, 95
2, 51370, Note_on_c, 0, 57, 95
2, 51380, Note_on_c, 0, 62, 95
2, 51390, Note_on_c, 0, 66, 95
2, 51600, Note_off_c, 0, 50, 80
2, 51600, Note_off_c, 0, 57, 80
2, 51600, Note_off_c, 0, 62, 80
2, 51600, Note_off_c, 0, 66, 80
2, 51600, Note_on_c, 0, 66, 95
2, 51610, Note_on_c, 0, 62, 95
2, 51620, Note_on_c, 0, 57, 95
2, 51630, Note_on_c, 0, 50, 95
2, 51840, Note_off_c, 0, 66, 80
2, 51840, Note_off_c, 0, 62, 80
2, 51840, Note_off_c, 0, 57, 80
2, 51840, Note_off_c, 0, 50, 80
2, 51840, Note_on_c, 0, 43, 95
2, 51850, Note_on_c, 0, 50, 95
2, 52080, Note_off_c, 0, 50, 80
2, 52080, Note_on_c, 0, 50, 95
2, 52090, Note_on_c, 0, 55, 95
2, 52100, Note_on_c, 0, 62, 95
2, 52320, Note_off_c, 0, 50, 80
2, 52320, Note_off_c, 0, 55, 80
2, 52320, Note_off_c, 0, 62, 80
2, 52320, Note_on_c, 0, 50, 95
2, 52330, Note_on_c, 0, 55, 95
2, 52340, Note_on_c, 0, 62, 95
2, 52560, Note_off_c, 0, 50, 80
2, 52560, Note_off_c, 0, 55, 80
2, 52560, Note_off_c, 0, 62, 80
2, 52560, Note_on_c, 0, 50, 95
2, 52570, Note_on_c, 0, 55, 95
2, 52580, Note_on_c, 0, 62, 95
2, 52800, Note_off_c, 0, 43, 80
2, 52800, Note_off_c, 0, 50, 80
2, 52800, Note_off_c, 0, 55, 80
2, 52800, Note_off_c, 0, 62, 80
2, 52800, Note_on_c, 0, 45, 95
2, 52810, Note_on_c, 0, 52, 95
2, 53040, Note_off_c, 0, 52, 80
2, 53040, Note_on_c, 0, 52, 95
2, 53050, Note_on_c, 0, 57, 95
2, 53280, Note_off_c, 0, 52, 80
2, 53280, Note_off_c, 0, 57, 80
2, 53280, Note_on_c, 0, 52, 95
2, 53290, Note_on_c, 0, 57, 95
2, 53300, Note_on_c, 0, 61, 95
2, 53520, Note_off_c, 0, 52, 80
2, 53520, Note_off_c, 0, 57, 80
2, 53520, Note_off_c, 0, 61, 80
2, 53520, Note_on_c, 0, 52, 95
2, 53530, Note_on_c, 0, 57, 95
2, 53540, Note_on_c, 0, 61, 95
2, 53760, Note_off_c, 0, 45, 80
2, 53760, Note_off_c, 0, 52, 80
2, 53760, Note_off_c, 0, 57, 80
2, 53760, Note_off_c, 0, 61, 80
2, 53760, Note_on_c, 0, 50, 95
2, 53770, Note_on_c, 0, 57, 95
2, 53780, Note_on_c, 0, 62, 95
2, 54480, Note_off_c, 0, 50, 80
2, 54480, Note_off_c, 0, 57, 80
2, 54480, Note_off_c, 0, 62, 80
2, 54480, Note_on_c, 0, 57, 95
2, 54490, Note_on_c, 0, 62, 95
2, 54500, Note_on_c, 0, 66, 95
2, 54960, Note_off_c, 0, 57, 80
2, 54960, Note_off_c, 0, 62, 80
2, 54960, Note_off_c, 0, 66, 80
2, 54960, Note_on_c, 0, 57, 95
2, 54970, Note_on_c, 0, 62, 95
2, 54980, Note_on_c, 0, 66, 95
2, 55200, Note_off_c, 0, 57, 80
2, 55200, Note_off_c, 0, 62, 80
2, 55200, Note_off_c, 0, 66, 80
2, 55200, Note_on_c, 0, 57, 95
2, 55210, Note_on_c, 0, 62, 95
2, 55220, Note_on_c, 0, 66, 95
2, 55440, Note_off_c, 0, 57, 80
2, 55440, Note_off_c, 0, 62, 80
2, 55440, Note_off_c, 0, 66, 80
2, 55440, Note_on_c, 0, 57, 95
2, 55450, Note_on_c, 0, 62, 95
2, 55460, Note_on_c, 0, 66, 95
2, 55680, Note_off_c, 0, 57, 80
2, 55680, Note_off_c, 0, 62, 80
2, 55680, Note_off_c, 0, 66, 80
2, 55680, Note_on_c, 0, 43, 95
2, 55690, Note_on_c, 0, 50, 95
2, 55920, Note_off_c, 0, 50, 80
2, 55920, Note_on_c, 0, 50, 95
2, 55930, Note_on_c, 0, 55, 95
2, 55940, Note_on_c, 0, 62, 95
2, 56160, Note_off_c, 0, 50, 80
2, 56160, Note_off_c, 0, 55, 80
2, 56160, Note_off_c, 0, 62, 80
2, 56160, Note_on_c, 0, 50, 95
2, 56170, Note_on_c, 0, 55, 95
2, 56180, Note_on_c, 0, 62, 95
2, 56400, Note_off_c, 0, 50, 80
2, 56400, Note_off_c, 0, 55, 80
2, 56400, Note_off_c, 0, 62, 80
2, 56400, Note_on_c, 0, 50, 95
2, 56410, Note_on_c, 0, 55, 95
2, 56420, Note_on_c, 0, 62, 95
2, 56640, Note_off_c, 0, 43, 80
2, 56640, Note_off_c, 0, 50, 80
2, 56640, Note_off_c, 0, 55, 80
2, 56640, Note_off_c, 0, 62, 80
2, 56640, Note_on_c, 0, 45, 95
2, 56650, Note_on_c, 0, 52, 95
2, 56880, Note_off_c, 0, 52, 80
2, 56880, Note_on_c, 0, 52, 95
2, 56890, Note_on_c, 0, 57, 95
2, 57120, Note_off_c, 0, 52, 80
2, 57120, Note_off_c, 0, 57, 80
2, 57120, Note_on_c, 0, 52, 95
2, 57130, Note_on_c, 0, 57, 95
2, 57140, Note_on_c, 0, 61, 95
2, 57360, Note_off_c, 0, 52, 80
2, 57360, Note_off_c, 0, 57, 80
2, 57360, Note_off_c, 0, 61, 80
2, 57360, Note_on_c, 0, 52, 95
2, 57370, Note_on_c, 0, 57, 95
2, 57380, Note_on_c, 0, 61, 95
2, 57600, Note_off_c, 0, 45, 80
2, 57600, Note_off_c, 0, 52, 80
2, 57600, Note_off_c, 0, 57, 80
2, 57600, Note_off_c, 0, 61, 80
2, 57600, Note_on_c, 0, 50, 95
2, 57610, Note_on_c, 0, 57, 95
2, 57620, Note_on_c, 0, 62, 95
2, 58320, Note_off_c, 0, 50, 80
2, 58320, Note_off_c, 0, 57, 80
2, 58320, Note_off_c, 0, 62, 80
2, 58320, Note_on_c, 0, 57, 95
2, 58330, Note_on_c, 0, 62, 95
2, 58340, Note_on_c, 0, 66, 95
2, 58800, Note_off_c, 0, 57, 80
2, 58800, Note_off_c, 0, 62, 80
2, 58800, Note_off_c, 0, 66, 80
2, 58800, Note_on_c, 0, 57, 95
2, 58810, Note_on_c, 0, 62, 95
2, 58820, Note_on_c, 0, 66, 95
2, 59040, Note_off_c, 0, 57, 80
2, 59040, Note_off_c, 0, 62, 80
2, 59040, Note_off_c, 0, 66, 80
2, 59040, Note_on_c, 0, 57, 95
2, 59050, Note_on_c, 0, 62, 95
2, 59060, Note_on_c, 0, 66, 95
2, 59280, Note_off_c, 0, 57, 80
2, 59280, Note_off_c, 0, 62, 80
2, 59280, Note_off_c, 0, 66, 80
2, 59280, Note_on_c, 0, 57, 95
2, 59290, Note_on_c, 0, 62, 95
2, 59300, Note_on_c, 0, 66, 95
2, 59520, Note_off_c, 0, 57, 80
2, 59520, Note_off_c, 0, 62, 80
2, 59520, Note_off_c, 0, 66, 80
2, 59520, Note_on_c, 0, 43, 95
2, 59530, Note_on_c, 0, 50, 95
2, 59760, Note_off_c, 0, 50, 80
2, 59760, Note_on_c, 0, 50, 95
2, 59770, Note_on_c, 0, 55, 95
2, 59780, Note_on_c, 0, 62, 95
2, 60000, Note_off_c, 0, 50, 80
2, 60000, Note_off_c, 0, 55, 80
2, 60000, Note_off_c, 0, 62, 80
2, 60000, Note_on_c, 0, 50, 95
2, 60010, Note_on_c, 0, 55, 95
2, 60020, Note_on_c, 0, 62, 95
2, 60240, Note_off_c, 0, 50, 80
2, 60240, Note_off_c, 0, 55, 80
2, 60240, Note_off_c, 0, 62, 80
2, 60240, Note_on_c, 0, 50, 95
2, 60250, Note_on_c, 0, 55, 95
2, 60260, Note_on_c, 0, 62, 95
2, 60480, Note_off_c, 0, 43, 80
2, 60480, Note_off_c, 0, 50, 80
2, 60480, Note_off_c, 0, 55, 80
2, 60480, Note_off_c, 0, 62, 80
2, 60480, Note_on_c, 0, 45, 95
2, 60490, Note_on_c, 0, 52, 95
2, 60720, Note_off_c, 0, 52, 80
2, 60720, Note_on_c, 0, 52, 95
2, 60730, Note_on_c, 0, 57, 95
2, 60960, Note_off_c, 0, 52, 80
2, 60960, Note_off_c, 0, 57, 80
2, 60960, Note_on_c, 0, 52, 95
2, 60970, Note_on_c, 0, 57, 95
2, 60980, Note_on_c, 0, 61, 95
2, 61200, Note_off_c, 0, 52, 80
2, 61200, Note_off_c, 0, 57, 80
2, 61200, Note_off_c, 0, 61, 80
2, 61200, Note_on_c, 0, 52, 95
2, 61210, Note_on_c, 0, 57, 95
2, 61220, Note_on_c, 0, 61, 95
2, 61440, Note_off_c, 0, 45, 80
2, 61440, Note_off_c, 0, 52, 80
2, 61440, Note_off_c, 0, 57, 80
2, 61440, Note_off_c, 0, 61, 80
2, 69120, Note_on_c, 0, 50, 95
2, 69130, Note_on_c, 0, 57, 95
2, 69140, Note_on_c, 0, 62, 95
2, 69360, Note_off_c, 0, 50, 80
2, 69360, Note_off_c, 0, 57, 80
2, 69360, Note_off_c, 0, 62, 80
2, 69360, Note_on_c, 0, 62, 95
2, 69370, Note_on_c, 0, 57, 95
2, 69380, Note_on_c, 0, 50, 95
2, 69600, Note_off_c, 0, 62, 80
2, 69600, Note_off_c, 0, 57, 80
2, 69600, Note_off_c, 0, 50, 80
2, 69600, Note_on_c, 0, 50, 95
2, 69610, Note_on_c, 0, 57, 95
2, 69620, Note_on_c, 0, 62, 95
2, 69840, Note_off_c, 0, 50, 80
2, 69840, Note_off_c, 0, 57, 80
2, 69840, Note_off_c, 0, 62, 80
2, 69840, Note_on_c, 0, 62, 95
2, 69850, Note_on_c, 0, 57, 95
2, 69860, Note_on_c, 0, 50, 95
2, 70080, Note_off_c, 0, 62, 80
2, 70080, Note_off_c, 0, 57, 80
2, 70080, Note_off_c, 0, 50, 80
2, 70080, Note_on_c, 0, 50, 95
2, 70090, Note_on_c, 0, 57, 95
2, 70100, Note_on_c, 0, 62, 95
2, 70320, Note_off_c, 0, 50, 80
2, 70320, Note_off_c, 0, 57, 80
2, 70320, Note_off_c, 0, 62, 80
2, 70320, Note_on_c, 0, 62, 95
2, 70330, Note_on_c, 0, 57, 95
2, 70340, Note_on_c, 0, 50, 95
2, 70560, Note_off_c, 0, 62, 80
2, 70560, Note_off_c, 0, 57, 80
2, 70560, Note_off_c, 0, 50, 80
2, 70560, Note_on_c, 0, 50, 95
2, 70570, Note_on_c, 0, 57, 95
2, 70580, Note_on_c, 0, 62, 95
2, 70800, Note_off_c, 0, 50, 80
2, 70800, Note_off_c, 0, 57, 80
2, 70800, Note_off_c, 0, 62, 80
2, 70800, Note_on_c, 0, 62, 95
2, 70810, Note_on_c, 0, 57, 95
2, 70820, Note_on_c, 0, 50, 95
2, 71040, Note_off_c, 0, 62, 80
2, 71040, Note_off_c, 0, 57, 80
2, 71040, Note_off_c, 0, 50, 80
2, 71040, Note_on_c, 0, 45, 95
2, 71050, Note_on_c, 0, 52, 95
2, 71060, Note_on_c, 0, 57, 95
2, 71070, Note_on_c, 0, 61, 95
2, 71280, Note_off_c, 0, 45, 80
2, 71280, Note_off_c, 0, 52, 80
2, 71280, Note_off_c, 0, 57, 80
2, 71280, Note_off_c, 0, 61, 80
2, 71280, Note_on_c, 0, 61, 95
2, 71290, Note_on_c, 0, 57, 95
2, 71300, Note_on_c, 0, 52, 95
2, 71310, Note_on_c, 0, 45, 95
2, 71520, Note_off_c, 0, 61, 80
2, 71520, Note_off_c, 0, 57, 80
2, 71520, Note_off_c, 0, 52, 80
2, 71520, Note_off_c, 0, 45, 80
2, 71520, Note_on_c, 0, 45, 95
2, 71530, Note_on_c, 0, 52, 95
2, 71540, Note_on_c, 0, 57, 95
2, 71550, Note_on_c, 0, 61, 95
2, 71760, Note_off_c, 0, 45, 80
2, 71760, Note_off_c, 0, 52, 80
2, 71760, Note_off_c, 0, 57, 80
2, 71760, Note_off_c, 0, 61, 80
2, 71760, Note_on_c, 0, 61, 95
2, 71770, Note_on_c, 0, 57, 95
2, 71780, Note_on_c, 0, 52, 95
2, 71790, Note_on_c, 0, 45, 95
2, 72000, Note_off_c, 0, 61, 80
2, 72000, Note_off_c, 0, 57, 80
2, 72000, Note_off_c, 0, 52, 80
2, 72000, Note_off_c, 0, 45, 80
2, 72000, Note_on_c, 0, 45, 95
2, 72010, Note_on_c, 0, 52, 95
2, 72020, Note_on_c, 0, 57, 95
2, 72030, Note_on_c, 0, 61, 95
2, 72240, Note_off_c, 0, 45, 80
2, 72240, Note_off_c, 0, 52, 80
2, 72240, Note_off_c, 0, 57, 80
2, 72240, Note_off_c, 0, 61, 80
2, 72240, Note_on_c, 0, 61, 95
2, 72250, Note_on_c, 0, 57, 95
2, 72260, Note_on_c, 0, 52, 95
2, 72270, Note_on_c, 0, 45, 95
2, 72480, Note_off_c, 0, 61, 80
2, 72480, Note_off_c, 0, 57, 80
2, 72480, Note_off_c, 0, 52, 80
2, 72480, Note_off_c, 0, 45, 80
2, 72480, Note_on_c, 0, 45, 95
2, 72490, Note_on_c, 0, 52, 95
2, 72500, Note_on_c, 0, 57, 95
2, 72510, Note_on_c, 0, 61, 95
2, 72720, Note_off_c, 0, 45, 80
2, 72720, Note_off_c, 0, 52, 80
2, 72720, Note_off_c, 0, 57, 80
2, 72720, Note_off_c, 0, 61, 80
2, 72720, Note_on_c, 0, 61, 95
2, 72730, Note_on_c, 0, 57, 95
2, 72740, Note_on_c, 0, 52, 95
2, 72750, Note_on_c, 0, 45, 95
2, 72960, Note_off_c, 0, 61, 80
2, 72960, Note_off_c, 0, 57, 80
2, 72960, Note_off_c, 0, 52, 80
2, 72960, Note_off_c, 0, 45, 80
2, 72960, Note_on_c, 0, 40, 95
2, 72970, Note_on_c, 0, 47, 95
2, 72980, Note_on_c, 0, 52, 95
2, 72990, Note_on_c, 0, 55, 95
2, 73200, Note_off_c, 0, 40, 80
2, 73200, Note_off_c, 0, 47, 80
2, 73200, Note_off_c, 0, 52, 80
2, 73200, Note_off_c, 0, 55, 80
2, 73200, Note_on_c, 0, 55, 95
2, 73210, Note_on_c, 0, 52, 95
2, 73220, Note_on_c, 0, 47, 95
2, 73230, Note_on_c, 0, 40, 95
2, 73440, Note_off_c, 0, 55, 80
2, 73440, Note_off_c, 0, 52, 80
2, 73440, Note_off_c, 0, 47, 80
2, 73440, Note_off_c, 0, 40, 80
2, 73440, Note_on_c, 0, 40, 95
2, 73450, Note_on_c, 0, 47, 95
2, 73460, Note_on_c, 0, 52, 95
2, 73470, Note_on_c, 0, 55, 95
2, 73680, Note_off_c, 0, 40, 80
2, 73680, Note_off_c, 0, 47, 80
2, 73680, Note_off_c, 0, 52, 80
2, 73680, Note_off_c, 0, 55, 80
2, 73680, Note_on_c, 0, 55, 95
2, 73690, Note_on_c, 0, 52, 95
2, 73700, Note_on_c, 0, 47, 95
2, 73710, Note_on_c, 0, 40, 95
2, 73920, Note_off_c, 0, 55, 80
2, 73920, Note_off_c, 0, 52, 80
2, 73920, Note_off_c, 0, 47, 80
2, 73920, Note_off_c, 0, 40, 80
2, 73920, Note_on_c, 0, 40, 95
2, 73930, Note_on_c, 0, 47, 95
2, 73940, Note_on_c, 0, 52, 95
2, 73950, Note_on_c, 0, 55, 95
2, 74160, Note_off_c, 0, 40, 80
2, 74160, Note_off_c, 0, 47, 80
2, 74160, Note_off_c, 0, 52, 80
2, 74160, Note_off_c, 0, 55, 80
2, 74160, Note_on_c, 0, 55, 95
2, 74170, Note_on_c, 0, 52, 95
2, 74180, Note_on_c, 0, 47, 95
2, 74190, Note_on_c, 0, 40, 95
2, 74400, Note_off_c, 0, 55, 80
2, 74400, Note_off_c, 0, 52, 80
2, 74400, Note_off_c, 0, 47, 80
2, 74400, Note_off_c, 0, 40, 80
2, 74400, Note_on_c, 0, 40, 95
2, 74410, Note_on_c, 0, 47, 95
2, 74420, Note_on_c, 0, 52, 95
2, 74430, Note_on_c, 0, 55, 95
2, 74640, Note_off_c, 0, 40, 80
2, 74640, Note_off_c, 0, 47, 80
2, 74640, Note_off_c, 0, 52, 80
2, 74640, Note_off_c, 0, 55, 80
2, 74640, Note_on_c, 0, 55, 95
2, 74650, Note_on_c, 0, 52, 95
2, 74660, Note_on_c, 0, 47, 95
2, 74670, Note_on_c, 0, 40, 95
2, 74880, Note_off_c, 0, 55, 80
2, 74880, Note_off_c, 0, 52, 80
2, 74880, Note_off_c, 0, 47, 80
2, 74880, Note_off_c, 0, 40, 80
2, 74880, Note_on_c, 0, 43, 95
2, 74890, Note_on_c, 0, 50, 95
2, 74900, Note_on_c, 0, 55, 95
2, 75120, Note_off_c, 0, 43, 80
2, 75120, Note_off_c, 0, 50, 80
2, 75120, Note_off_c, 0, 55, 80
2, 75120, Note_on_c, 0, 55, 95
2, 75130, Note_on_c, 0, 50, 95
2, 75140, Note_on_c, 0, 43, 95
2, 75360, Note_off_c, 0, 55, 80
2, 75360, Note_off_c, 0, 50, 80
2, 75360, Note_off_c, 0, 43, 80
2, 75360, Note_on_c, 0, 43, 95
2, 75370, Note_on_c, 0, 50, 95
2, 75380, Note_on_c, 0, 55, 95
2, 75600, Note_off_c, 0, 43, 80
2, 75600, Note_off_c, 0, 50, 80
2, 75600, Note_off_c, 0, 55, 80
2, 75600, Note_on_c, 0, 55, 95
2, 75610, Note_on_c, 0, 50, 95
2, 75620, Note_on_c, 0, 43, 95
2, 75840, Note_off_c, 0, 55, 80
2, 75840, Note_off_c, 0, 50, 80
2, 75840, Note_off_c, 0, 43, 80
2, 75840, Note_on_c, 0, 43, 95
2, 75850, Note_on_c, 0, 50, 95
2, 75860, Note_on_c, 0, 55, 95
2, 76080, Note_off_c, 0, 43, 80
2, 76080, Note_off_c, 0, 50, 80
2, 76080, Note_off_c, 0, 55, 80
2, 76080, Note_on_c, 0, 55, 95
2, 76090, Note_on_c, 0, 50, 95
2, 76100, Note_on_c, 0, 43, 95
2, 76320, Note_off_c, 0, 55, 80
2, 76320, Note_off_c, 0, 50, 80
2, 76320, Note_off_c, 0, 43, 80
2, 76320, Note_on_c, 0, 43, 95
2, 76330, Note_on_c, 0, 50, 95
2, 76340, Note_on_c, 0, 55, 95
2, 76560, Note_off_c, 0, 43, 80
2, 76560, Note_off_c, 0, 50, 80
2, 76560, Note_off_c, 0, 55, 80
2, 76560, Note_on_c, 0, 55, 95
2, 76570, Note_on_c, 0, 50, 95
2, 76580, Note_on_c, 0, 43, 95
2, 76800, Note_off_c, 0, 55, 80
2, 76800, Note_off_c, 0, 50, 80
2, 76800, Note_off_c, 0, 43, 80
2, 76800, Note_on_c, 0, 50, 95
2, 76810, Note_on_c, 0, 57, 95
2, 76820, Note_on_c, 0, 62, 95
2, 77040, Note_off_c, 0, 50, 80
2, 77040, Note_off_c, 0, 57, 80
2, 77040, Note_off_c, 0, 62, 80
2, 77040, Note_on_c, 0, 62, 95
2, 77050, Note_on_c, 0, 57, 95
2, 77060, Note_on_c, 0, 50, 95
2, 77280, Note_off_c, 0, 62, 80
2, 77280, Note_off_c, 0, 57, 80
2, 77280, Note_off_c, 0, 50, 80
2, 77280, Note_on_c, 0, 50, 95
2, 77290, Note_on_c, 0, 57, 95
2, 77300, Note_on_c, 0, 62, 95
2, 77520, Note_off_c, 0, 50, 80
2, 77520, Note_off_c, 0, 57, 80
2, 77520, Note_off_c, 0, 62, 80
2, 77520, Note_on_c, 0, 62, 95
2, 77530, Note_on_c, 0, 57, 95
2, 77540, Note_on_c, 0, 50, 95
2, 77760, Note_off_c, 0, 62, 80
2, 77760, Note_off_c, 0, 57, 80
2, 77760, Note_off_c, 0, 50, 80
2, 77760, Note_on_c, 0, 50, 95
2, 77770, Note_on_c, 0, 57, 95
2, 77780, Note_on_c, 0, 62, 95
2, 78000, Note_off_c, 0, 50, 80
2, 78000, Note_off_c, 0, 57, 80
2, 78000, Note_off_c, 0, 62, 80
2, 78000, Note_on_c, 0, 62, 95
2, 78010, Note_on_c, 0, 57, 95
2, 78020, Note_on_c, 0, 50, 95
2, 78240, Note_off_c, 0, 62, 80
2, 78240, Note_off_c, 0, 57, 80
2, 78240, Note_off_c, 0, 50, 80
2, 78240, Note_on_c, 0, 50, 95
2, 78250, Note_on_c, 0, 57, 95
2, 78260, Note_on_c, 0, 62, 95
2, 78480, Note_off_c, 0, 50, 80
2, 78480, Note_off_c, 0, 57, 80
2, 78480, Note_off_c, 0, 62, 80
2, 78480, Note_on_c, 0, 62, 95
2, 78490, Note_on_c, 0, 57, 95
2, 78500, Note_on_c, 0, 50, 95
2, 78720, Note_off_c, 0, 62, 80
2, 78720, Note_off_c, 0, 57, 80
2, 78720, Note_off_c, 0, 50, 80
2, 78720, Note_on_c, 0, 45, 95
2, 78730, Note_on_c, 0, 52, 95
2, 78740, Note_on_c, 0, 57, 95
2, 78750, Note_on_c, 0, 61, 95
2, 78960, Note_off_c, 0, 45, 80
2, 78960, Note_off_c, 0, 52, 80
2, 78960, Note_off_c, 0, 57, 80
2, 78960, Note_off_c, 0, 61, 80
2, 78960, Note_on_c, 0, 61, 95
2, 78970, Note_on_c, 0, 57, 95
2, 78980, Note_on_c, 0, 52, 95
2, 78990, Note_on_c, 0, 45, 95
2, 79200, Note_off_c, 0, 61, 80
2, 79200, Note_off_c, 0, 57, 80
2, 79200, Note_off_c, 0, 52, 80
2, 79200, Note_off_c, 0, 45, 80
2, 79200, Note_on_c, 0, 45, 95
2, 79210, Note_on_c, 0, 52, 95
2, 79220, Note_on_c, 0, 57, 95
2, 79230, Note_on_c, 0, 61, 95
2, 79440, Note_off_c, 0, 45, 80
2, 79440, Note_off_c, 0, 52, 80
2, 79440, Note_off_c, 0, 57, 80
2, 79440, Note_off_c, 0, 61, 80
2, 79440, Note_on_c, 0, 61, 95
2, 79450, Note_on_c, 0, 57, 95
2, 79460, Note_on_c, 0, 52, 95
2, 79470, Note_on_c, 0, 45, 95
2, 79680, Note_off_c, 0, 61, 80
2, 79680, Note_off_c, 0, 57, 80
2, 79680, Note_off_c, 0, 52, 80
2, 79680, Note_off_c, 0, 45, 80
2, 79680, Note_on_c, 0, 45, 95
2, 79690, Note_on_c, 0, 52, 95
2, 79700, Note_on_c, 0, 57, 95
2, 79710, Note_on_c, 0, 61, 95
2, 79920, Note_off_c, 0, 45, 80
2, 79920, Note_off_c, 0, 52, 80
2, 79920, Note_off_c, 0, 57, 80
2, 79920, Note_off_c, 0, 61, 80
2, 79920, Note_on_c, 0, 61, 95
2, 79930, Note_on_c, 0, 57, 95
2, 79940, Note_on_c, 0, 52, 95
2, 79950, Note_on_c, 0, 45, 95
2, 80160, Note_off_c, 0, 61, 80
2, 80160, Note_off_c, 0, 57, 80
2, 80160, Note_off_c, 0, 52, 80
2, 80160, Note_off_c, 0, 45, 80
2, 80160, Note_on_c, 0, 45, 95
2, 80170, Note_on_c, 0, 52, 95
2, 80180, Note_on_c, 0, 57, 95
2, 80190, Note_on_c, 0, 61, 95
2, 80400, Note_off_c, 0, 45, 80
2, 80400, Note_off_c, 0, 52, 80
2, 80400, Note_off_c, 0, 57, 80
2, 80400, Note_off_c, 0, 61, 80
2, 80400, Note_on_c, 0, 61, 95
2, 80410, Note_on_c, 0, 57, 95
2, 80420, Note_on_c, 0, 52, 95
2, 80430, Note_on_c, 0, 45, 95
2, 80640, Note_off_c, 0, 61, 80
2, 80640, Note_off_c, 0, 57, 80
2, 80640, Note_off_c, 0, 52, 80
2, 80640, Note_off_c, 0, 45, 80
2, 80640, Note_on_c, 0, 40, 95
2, 80650, Note_on_c, 0, 47, 95
2, 80660, Note_on_c, 0, 52, 95
2, 80670, Note_on_c, 0, 55, 95
2, 80880, Note_off_c, 0, 40, 80
2, 80880, Note_off_c, 0, 47, 80
2, 80880, Note_off_c, 0, 52, 80
2, 80880, Note_off_c, 0, 55, 80
2, 80880, Note_on_c, 0, 55, 95
2, 80890, Note_on_c, 0, 52, 95
2, 80900, Note_on_c, 0, 47, 95
2, 80910, Note_on_c, 0, 40, 95
2, 81120, Note_off_c, 0, 55, 80
2, 81120, Note_off_c, 0, 52, 80
2, 81120, Note_off_c, 0, 47, 80
2, 81120, Note_off_c, 0, 40, 80
2, 81120, Note_on_c, 0, 40, 95
2, 81130, Note_on_c, 0, 47, 95
2, 81140, Note_on_c, 0, 52, 95
2, 81150, Note_on_c, 0, 55, 95
2, 81360, Note_off_c, 0, 40, 80
2, 81360, Note_off_c, 0, 47, 80
2, 81360, Note_off_c, 0, 52, 80
2, 81360, Note_off_c, 0, 55, 80
2, 81360, Note_on_c, 0, 55, 95
2, 81370, Note_on_c, 0, 52, 95
2, 81380, Note_on_c, 0, 47, 95
2, 81390, Note_on_c, 0, 40, 95
2, 81600, Note_off_c, 0, 55, 80
2, 81600, Note_off_c, 0, 52, 80
2, 81600, Note_off_c, 0, 47, 80
2, 81600, Note_off_c, 0, 40, 80
2, 81600, Note_on_c, 0, 40, 95
2, 81610, Note_on_c, 0, 47, 95
2, 81620, Note_on_c, 0, 52, 95
2, 81630, Note_on_c, 0, 55, 95
2, 81840, Note_off_c, 0, 40, 80
2, 81840, Note_off_c, 0, 47, 80
2, 81840, Note_off_c, 0, 52, 80
2, 81840, Note_off_c, 0, 55, 80
2, 81840, Note_on_c, 0, 55, 95
2, 81850, Note_on_c, 0, 52, 95
2, 81860, Note_on_c, 0, 47, 95
2, 81870, Note_on_c, 0, 40, 95
2, 82080, Note_off_c, 0, 55, 80
2, 82080, Note_off_c, 0, 52, 80
2, 82080, Note_off_c, 0, 47, 80
2, 82080, Note_off_c, 0, 40, 80
2, 82080, Note_on_c, 0, 40, 95
2, 82090, Note_on_c, 0, 47, 95
2, 82100, Note_on_c, 0, 52, 95
2, 82110, Note_on_c, 0, 55, 95
2, 82320, Note_off_c, 0, 40, 80
2, 82320, Note_off_c, 0, 47, 80
2, 82320, Note_off_c, 0, 52, 80
2, 82320, Note_off_c, 0, 55, 80
2, 82320, Note_on_c, 0, 55, 95
2, 82330, Note_on_c, 0, 52, 95
2, 82340, Note_on_c, 0, 47, 95
2, 82350, Note_on_c, 0, 40, 95
2, 82560, Note_off_c, 0, 55, 80
2, 82560, Note_off_c, 0, 52, 80
2, 82560, Note_off_c, 0, 47, 80
2, 82560, Note_off_c, 0, 40, 80
2, 82560, Note_on_c, 0, 43, 95
2, 82570, Note_on_c, 0, 50, 95
2, 82580, Note_on_c, 0, 55, 95
2, 82800, Note_off_c, 0, 43, 80
2, 82800, Note_off_c, 0, 50, 80
2, 82800, Note_off_c, 0, 55, 80
2, 82800, Note_on_c, 0, 55, 95
2, 82810, Note_on_c, 0, 50, 95
2, 82820, Note_on_c, 0, 43, 95
2, 83040, Note_off_c, 0, 55, 80
2, 83040, Note_off_c, 0, 50, 80
2, 83040, Note_off_c, 0, 43, 80
2, 83040, Note_on_c, 0, 43, 95
2, 83050, Note_on_c, 0, 50, 95
2, 83060, Note_on_c, 0, 55, 95
2, 83280, Note_off_c, 0, 43, 80
2, 83280, Note_off_c, 0, 50, 80
2, 83280, Note_off_c, 0, 55, 80
2, 83280, Note_on_c, 0, 55, 95
2, 83290, Note_on_c, 0, 50, 95
2, 83300, Note_on_c, 0, 43, 95
2, 83520, Note_off_c, 0, 55, 80
2, 83520, Note_off_c, 0, 50, 80
2, 83520, Note_off_c, 0, 43, 80
2, 83520, Note_on_c, 0, 43, 95
2, 83530, Note_on_c, 0, 50, 95
2, 83540, Note_on_c, 0, 55, 95
2, 83760, Note_off_c, 0, 43, 80
2, 83760, Note_off_c, 0, 50, 80
2, 83760, Note_off_c, 0, 55, 80
2, 83760, Note_on_c, 0, 55, 95
2, 83770, Note_on_c, 0, 50, 95
2, 83780, Note_on_c, 0, 43, 95
2, 84000, Note_off_c, 0, 55, 80
2, 84000, Note_off_c, 0, 50, 80
2, 84000, Note_off_c, 0, 43, 80
2, 84000, Note_on_c, 0, 43, 95
2, 84010, Note_on_c, 0, 50, 95
2, 84020, Note_on_c, 0, 55, 95
2, 84240, Note_off_c, 0, 43, 80
2, 84240, Note_off_c, 0, 50, 80
2, 84240, Note_off_c, 0, 55, 80
2, 84240, Note_on_c, 0, 55, 95
2, 84250, Note_on_c, 0, 50, 95
2, 84260, Note_on_c, 0, 43, 95
2, 84480, Note_off_c, 0, 55, 80
2, 84480, Note_off_c, 0, 50, 80
2, 84480, Note_off_c, 0, 43, 80
2, 84480, Note_on_c, 0, 47, 95
2, 84490, Note_on_c, 0, 54, 95
2, 84500, Note_on_c, 0, 59, 95
2, 84510, Note_on_c, 0, 62, 95
2, 86400, Note_off_c, 0, 47, 80
2, 86400, Note_off_c, 0, 54, 80
2, 86400, Note_off_c, 0, 59, 80
2, 86400, Note_off_c, 0, 62, 80
2, 86400, Note_on_c, 0, 43, 95
2, 86410, Note_on_c, 0, 50, 95
2, 86420, Note_on_c, 0, 55, 95
2, 86430, Note_on_c, 0, 59, 95
2, 88320, Note_off_c, 0, 43, 80
2, 88320, Note_off_c, 0, 50, 80
2, 88320, Note_off_c, 0, 55, 80
2, 88320, Note_off_c, 0, 59, 80
2, 88320, Note_on_c, 0, 45, 95
2, 88330, Note_on_c, 0, 52, 95
2, 88340, Note_on_c, 0, 57, 95
2, 88350, Note_on_c, 0, 61, 95
2, 88800, Note_off_c, 0, 45, 80
2, 88800, Note_off_c, 0, 52, 80
2, 88800, Note_off_c, 0, 57, 80
2, 88800, Note_off_c, 0, 61, 80
2, 88800, Note_on_c, 0, 45, 95
2, 88810, Note_on_c, 0, 52, 95
2, 88820, Note_on_c, 0, 57, 95
2, 88830, Note_on_c, 0, 61, 95
2, 89280, Note_off_c, 0, 45, 80
2, 89280, Note_off_c, 0, 52, 80
2, 89280, Note_off_c, 0, 57, 80
2, 89280, Note_off_c, 0, 61, 80
2, 89280, Note_on_c, 0, 45, 95
2, 89290, Note_on_c, 0, 52, 95
2, 89300, Note_on_c, 0, 57, 95
2, 89310, Note_on_c, 0, 61, 95
2, 89760, Note_off_c, 0, 45, 80
2, 89760, Note_off_c, 0, 52, 80
2, 89760, Note_off_c, 0, 57, 80
2, 89760, Note_off_c, 0, 61, 80
2, 89760, Note_on_c, 0, 45, 95
2, 89770, Note_on_c, 0, 52, 95
2, 89780, Note_on_c, 0, 57, 95
2, 89790, Note_on_c, 0, 61, 95
2, 90240, Note_off_c, 0, 45, 80
2, 90240, Note_off_c, 0, 52, 80
2, 90240, Note_off_c, 0, 57, 80
2, 90240, Note_off_c, 0, 61, 80
2, 90240, Note_on_c, 0, 50, 95
2, 90250, Note_on_c, 0, 57, 95
2, 90260, Note_on_c, 0, 62, 95
2, 90270, Note_on_c, 0, 66, 95
2, 90480, Note_off_c, 0, 50, 80
2, 90480, Note_off_c, 0, 57, 80
2, 90480, Note_off_c, 0, 62, 80
2, 90480, Note_off_c, 0, 66, 80
2, 90480, Note_on_c, 0, 66, 95
2, 90490, Note_on_c, 0, 62, 95
2, 90500, Note_on_c, 0, 57, 95
2, 90510, Note_on_c, 0, 50, 95
2, 90720, Note_off_c, 0, 66, 80
2, 90720, Note_off_c, 0, 62, 80
2, 90720, Note_off_c, 0, 57, 80
2, 90720, Note_off_c, 0, 50, 80
2, 90720, Note_on_c, 0, 50, 95
2, 90730, Note_on_c, 0, 57, 95
2, 90740, Note_on_c, 0, 62, 95
2, 90750, Note_on_c, 0, 66, 95
2, 90960, Note_off_c, 0, 50, 80
2, 90960, Note_off_c, 0, 57, 80
2, 90960, Note_off_c, 0, 62, 80
2, 90960, Note_off_c, 0, 66, 80
2, 90960, Note_on_c, 0, 66, 95
2, 90970, Note_on_c, 0, 62, 95
2, 90980, Note_on_c, 0, 57, 95
2, 90990, Note_on_c, 0, 50, 95
2, 91200, Note_off_c, 0, 66, 80
2, 91200, Note_off_c, 0, 62, 80
2, 91200, Note_off_c, 0, 57, 80
2, 91200, Note_off_c, 0, 50, 80
2, 91200, Note_on_c, 0, 50, 95
2, 91210, Note_on_c, 0, 57, 95
2, 91220, Note_on_c, 0, 62, 95
2, 91230, Note_on_c, 0, 66, 95
2, 91440, Note_off_c, 0, 50, 80
2, 91440, Note_off_c, 0, 57, 80
2, 91440, Note_off_c, 0, 62, 80
2, 91440, Note_off_c, 0, 66, 80
2, 91440, Note_on_c, 0, 66, 95
2, 91450, Note_on_c, 0, 62, 95
2, 91460, Note_on_c, 0, 57, 95
2, 91470, Note_on_c, 0, 50, 95
2, 91680, Note_off_c, 0, 66, 80
2, 91680, Note_off_c, 0, 62, 80
2, 91680, Note_off_c, 0, 57, 80
2, 91680, Note_off_c, 0, 50, 80
2, 91680, Note_on_c, 0, 50, 95
2, 91690, Note_on_c, 0, 57, 95
2, 91700, Note_on_c, 0, 62, 95
2, 91710, Note_on_c, 0, 66, 95
2, 91920, Note_off_c, 0, 50, 80
2, 91920, Note_off_c, 0, 57, 80
2, 91920, Note_off_c, 0, 62, 80
2, 91920, Note_off_c, 0, 66, 80
2, 91920, Note_on_c, 0, 66, 95
2, 91930, Note_on_c, 0, 62, 95
2, 91940, Note_on_c, 0, 57, 95
2, 91950, Note_on_c, 0, 50, 95
2, 92160, Note_off_c, 0, 66, 80
2, 92160, Note_off_c, 0, 62, 80
2, 92160, Note_off_c, 0, 57, 80
2, 92160, Note_off_c, 0, 50, 80
2, 92160, Note_on_c, 0, 43, 95
2, 92170, Note_on_c, 0, 50, 95
2, 92400, Note_off_c, 0, 50, 80
2, 92400, Note_on_c, 0, 50, 95
2, 92410, Note_on_c, 0, 55, 95
2, 92420, Note_on_c, 0, 62, 95
2, 92640, Note_off_c, 0, 50, 80
2, 92640, Note_off_c, 0, 55, 80
2, 92640, Note_off_c, 0, 62, 80
2, 92640, Note_on_c, 0, 50, 95
2, 92650, Note_on_c, 0, 55, 95
2, 92660, Note_on_c, 0, 62, 95
2, 92880, Note_off_c, 0, 50, 80
2, 92880, Note_off_c, 0, 55, 80
2, 92880, Note_off_c, 0, 62, 80
2, 92880, Note_on_c, 0, 50, 95
2, 92890, Note_on_c, 0, 55, 95
2, 92900, Note_on_c, 0, 62, 95
2, 93120, Note_off_c, 0, 43, 80
2, 93120, Note_off_c, 0, 50, 80
2, 93120, Note_off_c, 0, 55, 80
2, 93120, Note_off_c, 0, 62, 80
2, 93120, Note_on_c, 0, 45, 95
2, 93130, Note_on_c, 0, 52, 95
2, 93360, Note_off_c, 0, 52, 80
2, 93360, Note_on_c, 0, 52, 95
2, 93370, Note_on_c, 0, 57, 95
2, 93600, Note_off_c, 0, 52, 80
2, 93600, Note_off_c, 0, 57, 80
2, 93600, Note_on_c, 0, 52, 95
2, 93610, Note_on_c, 0, 57, 95
2, 93620, Note_on_c, 0, 61, 95
2, 93840, Note_off_c, 0, 52, 80
2, 93840, Note_off_c, 0, 57, 80
2, 93840, Note_off_c, 0, 61, 80
2, 93840, Note_on_c, 0, 52, 95
2, 93850, Note_on_c, 0, 57, 95
2, 93860, Note_on_c, 0, 61, 95
2, 94080, Note_off_c, 0, 45, 80
2, 94080, Note_off_c, 0, 52, 80
2, 94080, Note_off_c, 0, 57, 80
2, 94080, Note_off_c, 0, 61, 80
2, 94080, Note_on_c, 0, 50, 95
2, 94090, Note_on_c, 0, 57, 95
2, 94100, Note_on_c, 0, 62, 95
2, 94800, Note_off_c, 0, 50, 80
2, 94800, Note_off_c, 0, 57, 80
2, 94800, Note_off_c, 0, 62, 80
2, 94800, Note_on_c, 0, 57, 95
2, 94810, Note_on_c, 0, 62, 95
2, 94820, Note_on_c, 0, 66, 95
2, 95280, Note_off_c, 0, 57, 80
2, 95280, Note_off_c, 0, 62, 80
2, 95280, Note_off_c, 0, 66, 80
2, 95280, Note_on_c, 0, 57, 95
2, 95290, Note_on_c, 0, 62, 95
2, 95300, Note_on_c, 0, 66, 95
2, 95520, Note_off_c, 0, 57, 80
2, 95520, Note_off_c, 0, 62, 80
2, 95520, Note_off_c, 0, 66, 80
2, 95520, Note_on_c, 0, 57, 95
2, 95530, Note_on_c, 0, 62, 95
2, 95540, Note_on_c, 0, 66, 95
2, 95760, Note_off_c, 0, 57, 80
2, 95760, Note_off_c, 0, 62, 80
2, 95760, Note_off_c, 0, 66, 80
2, 95760, Note_on_c, 0, 57, 95
2, 95770, Note_on_c, 0, 62, 95
2, 95780, Note_on_c, 0, 66, 95
2, 96000, Note_off_c, 0, 57, 80
2, 96000, Note_off_c, 0, 62, 80
2, 96000, Note_off_c, 0, 66, 80
2, 96000, Note_on_c, 0, 43, 95
2, 96010, Note_on_c, 0, 50, 95
2, 96240, Note_off_c, 0, 50, 80
2, 96240, Note_on_c, 0, 50, 95
2, 96250, Note_on_c, 0, 55, 95
2, 96260, Note_on_c, 0, 62, 95
2, 96480, Note_off_c, 0, 50, 80
2, 96480, Note_off_c, 0, 55, 80
2, 96480, Note_off_c, 0, 62, 80
2, 96480, Note_on_c, 0, 50, 95
2, 96490, Note_on_c, 0, 55, 95
2, 96500, Note_on_c, 0, 62, 95
2, 96720, Note_off_c, 0, 50, 80
2, 96720, Note_off_c, 0, 55, 80
2, 96720, Note_off_c, 0, 62, 80
2, 96720, Note_on_c, 0, 50, 95
2, 96730, Note_on_c, 0, 55, 95
2, 96740, Note_on_c, 0, 62, 95
2, 96960, Note_off_c, 0, 43, 80
2, 96960, Note_off_c, 0, 50, 80
2, 96960, Note_off_c, 0, 55, 80
2, 96960, Note_off_c, 0, 62, 80
2, 96960, Note_on_c, 0, 45, 95
2, 96970, Note_on_c, 0, 52, 95
2, 97200, Note_off_c, 0, 52, 80
2, 97200, Note_on_c, 0, 52, 95
2, 97210, Note_on_c, 0, 57, 95
2, 97440, Note_off_c, 0, 52, 80
2, 97440, Note_off_c, 0, 57, 80
2, 97440, Note_on_c, 0, 52, 95
2, 97450, Note_on_c, 0, 57, 95
2, 97460, Note_on_c, 0, 61, 95
2, 97680, Note_off_c, 0, 52, 80
2, 97680, Note_off_c, 0, 57, 80
2, 97680, Note_off_c, 0, 61, 80
2, 97680, Note_on_c, 0, 52, 95
2, 97690, Note_on_c, 0, 57, 95
2, 97700, Note_on_c, 0, 61, 95
2, 97920, Note_off_c, 0, 45, 80
2, 97920, Note_off_c, 0, 52, 80
2, 97920, Note_off_c, 0, 57, 80
2, 97920, Note_off_c, 0, 61, 80
2, 97920, Note_on_c, 0, 50, 95
2, 97930, Note_on_c, 0, 57, 95
2, 97940, Note_on_c, 0, 62, 95
2, 98640, Note_off_c, 0, 50, 80
2, 98640, Note_off_c, 0, 57, 80
2, 98640, Note_off_c, 0, 62, 80
2, 98640, Note_on_c, 0, 57, 95
2, 98650, Note_on_c, 0, 62, 95
2, 98660, Note_on_c, 0, 66, 95
2, 99120, Note_off_c, 0, 57, 80
2, 99120, Note_off_c, 0, 62, 80
2, 99120, Note_off_c, 0, 66, 80
2, 99120, Note_on_c, 0, 57, 95
2, 99130, Note_on_c, 0, 62, 95
2, 99140, Note_on_c, 0, 66, 95
2, 99360, Note_off_c, 0, 57, 80
2, 99360, Note_off_c, 0, 62, 80
2, 99360, Note_off_c, 0, 66, 80
2, 99360, Note_on_c, 0, 57, 95
2, 99370, Note_on_c, 0, 62, 95
2, 99380, Note_on_c, 0, 66, 95
2, 99600, Note_off_c, 0, 57, 80
2, 99600, Note_off_c, 0, 62, 80
2, 99600, Note_off_c, 0, 66, 80
2, 99600, Note_on_c, 0, 57, 95
2, 99610, Note_on_c, 0, 62, 95
2, 99620, Note_on_c, 0, 66, 95
2, 99840, Note_off_c, 0, 57, 80
2, 99840, Note_off_c, 0, 62, 80
2, 99840, Note_off_c, 0, 66, 80
2, 99840, Note_on_c, 0, 43, 95
2, 99850, Note_on_c, 0, 50, 95
2, 100080, Note_off_c, 0, 50, 80
2, 100080, Note_on_c, 0, 50, 95
2, 100090, Note_on_c, 0, 55, 95
2, 100100, Note_on_c, 0, 62, 95
2, 100320, Note_off_c, 0, 50, 80
2, 100320, Note_off_c, 0, 55, 80
2, 100320, Note_off_c, 0, 62, 80
2, 100320, Note_on_c, 0, 50, 95
2, 100330, Note_on_c, 0, 55, 95
2, 100340, Note_on_c, 0, 62, 95
2, 100560, Note_off_c, 0, 50, 80
2, 100560, Note_off_c, 0, 55, 80
2, 100560, Note_off_c, 0, 62, 80
2, 100560, Note_on_c, 0, 50, 95
2, 100570, Note_on_c, 0, 55, 95
2, 100580, Note_on_c, 0, 62, 95
2, 100800, Note_off_c, 0, 43, 80
2, 100800, Note_off_c, 0, 50, 80
2, 100800, Note_off_c, 0, 55, 80
2, 100800, Note_off_c, 0, 62, 80
2, 100800, Note_on_c, 0, 45, 95
2, 100810, Note_on_c, 0, 52, 95
2, 101040, Note_off_c, 0, 52, 80
2, 101040, Note_on_c, 0, 52, 95
2, 101050, Note_on_c, 0, 57, 95
2, 101280, Note_off_c, 0, 52, 80
2, 101280, Note_off_c, 0, 57, 80
2, 101280, Note_on_c, 0, 52, 95
2, 101290, Note_on_c, 0, 57, 95
2, 101300, Note_on_c, 0, 61, 95
2, 101520, Note_off_c, 0, 52, 80
2, 101520, Note_off_c, 0, 57, 80
2, 101520, Note_off_c, 0, 61, 80
2, 101520, Note_on_c, 0, 52, 95
2, 101530, Note_on_c, 0, 57, 95
2, 101540, Note_on_c, 0, 61, 95
2, 101760, Note_off_c, 0, 45, 80
2, 101760, Note_off_c, 0, 52, 80
2, 101760, Note_off_c, 0, 57, 80
2, 101760, Note_off_c, 0, 61, 80
2, 101760, Note_on_c, 0, 50, 95
2, 101770, Note_on_c, 0, 57, 95
2, 101780, Note_on_c, 0, 62, 95
2, 102480, Note_off_c, 0, 50, 80
2, 102480, Note_off_c, 0, 57, 80
2, 102480, Note_off_c, 0, 62, 80
2, 102480, Note_on_c, 0, 57, 95
2, 102490, Note_on_c, 0, 62, 95
2, 102500, Note_on_c, 0, 66, 95
2, 102960, Note_off_c, 0, 57, 80
2, 102960, Note_off_c, 0, 62, 80
2, 102960, Note_off_c, 0, 66, 80
2, 102960, Note_on_c, 0, 57, 95
2, 102970, Note_on_c, 0, 62, 95
2, 102980, Note_on_c, 0, 66, 95
2, 103200, Note_off_c, 0, 57, 80
2, 103200, Note_off_c, 0, 62, 80
2, 103200, Note_off_c, 0, 66, 80
2, 103200, Note_on_c, 0, 57, 95
2, 103210, Note_on_c, 0, 62, 95
2, 103220, Note_on_c, 0, 66, 95
2, 103440, Note_off_c, 0, 57, 80
2, 103440, Note_off_c, 0, 62, 80
2, 103440, Note_off_c, 0, 66, 80
2, 103440, Note_on_c, 0, 57, 95
2, 103450, Note_on_c, 0, 62, 95
2, 103460, Note_on_c, 0, 66, 95
2, 103680, Note_off_c, 0, 57, 80
2, 103680, Note_off_c, 0, 62, 80
2, 103680, Note_off_c, 0, 66, 80
2, 103680, Note_on_c, 0, 43, 95
2, 103690, Note_on_c, 0, 50, 95
2, 103920, Note_off_c, 0, 50, 80
2, 103920, Note_on_c, 0, 50, 95
2, 103930, Note_on_c, 0, 55, 95
2, 103940, Note_on_c, 0, 62, 95
2, 104160, Note_off_c, 0, 50, 80
2, 104160, Note_off_c, 0, 55, 80
2, 104160, Note_off_c, 0, 62, 80
2, 104160, Note_on_c, 0, 50, 95
2, 104170, Note_on_c, 0, 55, 95
2, 104180, Note_on_c, 0, 62, 95
2, 104400, Note_off_c, 0, 50, 80
2, 104400, Note_off_c, 0, 55, 80
2, 104400, Note_off_c, 0, 62, 80
2, 104400, Note_on_c, 0, 50, 95
2, 104410, Note_on_c, 0, 55, 95
2, 104420, Note_on_c, 0, 62, 95
2, 104640, Note_off_c, 0, 43, 80
2, 104640, Note_off_c, 0, 50, 80
2, 104640, Note_off_c, 0, 55, 80
2, 104640, Note_off_c, 0, 62, 80
2, 104640, Note_on_c, 0, 45, 95
2, 104650, Note_on_c, 0, 52, 95
2, 104880, Note_off_c, 0, 52, 80
2, 104880, Note_on_c, 0, 52, 95
2, 104890, Note_on_c, 0, 57, 95
2, 105120, Note_off_c, 0, 52, 80
2, 105120, Note_off_c, 0, 57, 80
2, 105120, Note_on_c, 0, 52, 95
2, 105130, Note_on_c, 0, 57, 95
2, 105140, Note_on_c, 0, 61, 95
2, 105360, Note_off_c, 0, 52, 80
2, 105360, Note_off_c, 0, 57, 80
2, 105360, Note_off_c, 0, 61, 80
2, 105360, Note_on_c, 0, 52, 95
2, 105370, Note_on_c, 0, 57, 95
2, 105380, Note_on_c, 0, 61, 95
2, 105600, Note_off_c, 0, 45, 80
2, 105600, Note_off_c, 0, 52, 80
2, 105600, Note_off_c, 0, 57, 80
2, 105600, Note_off_c, 0, 61, 80
2, 105600, Control_c, 0, 7, 104
2, 105600, Control_c, 1, 7, 104
2, 106080, Note_on_c, 0, 69, 95
2, 106080, Note_on_c, 0, 62, 95
2, 106320, Note_off_c, 0, 69, 80
2, 106320, Note_off_c, 0, 62, 80
2, 106320, Note_on_c, 0, 69, 95
2, 106320, Note_on_c, 0, 62, 95
2, 106560, Note_off_c, 0, 69, 80
2, 106560, Note_off_c, 0, 62, 80
2, 106800, Note_on_c, 0, 69, 95
2, 106800, Note_on_c, 0, 62, 95
2, 107040, Note_off_c, 0, 69, 80
2, 107040, Note_off_c, 0, 62, 80
2, 107280, Note_on_c, 0, 69, 95
2, 107280, Note_on_c, 0, 62, 95
2, 107520, Note_off_c, 0, 69, 80
2, 107520, Note_off_c, 0, 62, 80
2, 108000, Note_on_c, 0, 69, 95
2, 108000, Note_on_c, 0, 64, 95
2, 108240, Note_off_c, 0, 69, 80
2, 108240, Note_off_c, 0, 64, 80
2, 108240, Note_on_c, 0, 69, 95
2, 108240, Note_on_c, 0, 64, 95
2, 108480, Note_off_c, 0, 69, 80
2, 108480, Note_off_c, 0, 64, 80
2, 108720, Note_on_c, 0, 69, 95
2, 108720, Note_on_c, 0, 64, 95
2, 109920, Note_off_c, 0, 69, 80
2, 109920, Note_off_c, 0, 64, 80
2, 109920, Note_on_c, 0, 67, 95
2, 109920, Note_on_c, 0, 59, 95
2, 110160, Note_off_c, 0, 67, 80
2, 110160, Note_off_c, 0, 59, 80
2, 110160, Note_on_c, 0, 67, 95
2, 110160, Note_on_c, 0, 59, 95
2, 110400, Note_off_c, 0, 67, 80
2, 110400, Note_off_c, 0, 59, 80
2, 110400, Note_on_c, 0, 67, 95
2, 110400, Note_on_c, 0, 59, 95
2, 111840, Note_off_c, 0, 67, 80
2, 111840, Note_off_c, 0, 59, 80
2, 111840, Note_on_c, 0, 67, 95
2, 111840, Note_on_c, 0, 62, 95
2, 112080, Note_off_c, 0, 67, 80
2, 112080, Note_off_c, 0, 62, 80
2, 112080, Note_on_c, 0, 67, 95
2, 112080, Note_on_c, 0, 62, 95
2, 112320, Note_off_c, 0, 67, 80
2, 112320, Note_off_c, 0, 62, 80
2, 112320, Note_on_c, 0, 67, 95
2, 112320, Note_on_c, 0, 62, 95
2, 113280, Note_off_c, 0, 67, 80
2, 113280, Note_off_c, 0, 62, 80
2, 113280, Control_c, 0, 7, 104
2, 113280, Control_c, 1, 7, 104
2, 113760, Note_on_c, 0, 69, 95
2, 113760, Note_on_c, 0, 62, 95
2, 114000, Note_off_c, 0, 69, 80
2, 114000, Note_off_c, 0, 62, 80
2, 114000, Note_on_c, 0, 69, 95
2, 114000, Note_on_c, 0, 62, 95
2, 114240, Note_off_c, 0, 69, 80
2, 114240, Note_off_c, 0, 62, 80
2, 114480, Note_on_c, 0, 69, 95
2, 114480, Note_on_c, 0, 62, 95
2, 114720, Note_off_c, 0, 69, 80
2, 114720, Note_off_c, 0, 62, 80
2, 114960, Note_on_c, 0, 69, 95
2, 114960, Note_on_c, 0, 62, 95
2, 115200, Note_off_c, 0, 69, 80
2, 115200, Note_off_c, 0, 62, 80
2, 115680, Note_on_c, 0, 69, 95
2, 115680, Note_on_c, 0, 64, 95
2, 115920, Note_off_c, 0, 69, 80
2, 115920, Note_off_c, 0, 64, 80
2, 115920, Note_on_c, 0, 69, 95
2, 115920, Note_on_c, 0, 64, 95
2, 116160, Note_off_c, 0, 69, 80
2, 116160, Note_off_c, 0, 64, 80
2, 116400, Note_on_c, 0, 69, 95
2, 116400, Note_on_c, 0, 64, 95
2, 117600, Note_off_c, 0, 69, 80
2, 117600, Note_off_c, 0, 64, 80
2, 117600, Note_on_c, 0, 67, 95
2, 117600, Note_on_c, 0, 59, 95
2, 117840, Note_off_c, 0, 67, 80
2, 117840, Note_off_c, 0, 59, 80
2, 117840, Note_on_c, 0, 67, 95
2, 117840, Note_on_c, 0, 59, 95
2, 118080, Note_off_c, 0, 67, 80
2, 118080, Note_off_c, 0, 59, 80
2, 118080, Note_on_c, 0, 67, 95
2, 118080, Note_on_c, 0, 59, 95
2, 119520, Note_off_c, 0, 67, 80
2, 119520, Note_off_c, 0, 59, 80
2, 119520, Note_on_c, 0, 67, 95
2, 119520, Note_on_c, 0, 62, 95
2, 119760, Note_off_c, 0, 67, 80
2, 119760, Note_off_c, 0, 62, 80
2, 119760, Note_on_c, 0, 67, 95
2, 119760, Note_on_c, 0, 62, 95
2, 120000, Note_off_c, 0, 67, 80
2, 120000, Note_off_c, 0, 62, 80
2, 120000, Note_on_c, 0, 67, 95
2, 120000, Note_on_c, 0, 62, 95
2, 120960, Note_off_c, 0, 67, 80
2, 120960, Note_off_c, 0, 62, 80
2, 120960, Note_on_c, 0, 49, 127
2, 120970, Note_on_c, 0, 61, 127
2, 121200, Note_off_c, 0, 49, 80
2, 121200, Note_off_c, 0, 61, 80
2, 121200, Note_on_c, 0, 50, 127
2, 121210, Note_on_c, 0, 62, 127
2, 121440, Note_off_c, 0, 50, 80
2, 121440, Note_off_c, 0, 62, 80
2, 121440, Note_on_c, 0, 50, 127
2, 121450, Note_on_c, 0, 62, 127
2, 121680, Note_off_c, 0, 50, 80
2, 121680, Note_off_c, 0, 62, 80
2, 121680, Note_on_c, 0, 50, 127
2, 121690, Note_on_c, 0, 62, 127
2, 121920, Note_off_c, 0, 50, 80
2, 121920, Note_off_c, 0, 62, 80
2, 121920, Note_on_c, 0, 50, 127
2, 121930, Note_on_c, 0, 62, 127
2, 122160, Note_off_c, 0, 50, 80
2, 122160, Note_off_c, 0, 62, 80
2, 122160, Note_on_c, 0, 50, 127
2, 122170, Note_on_c, 0, 62, 127
2, 122400, Note_off_c, 0, 50, 80
2, 122400, Note_off_c, 0, 62, 80
2, 122400, Note_on_c, 0, 50, 127
2, 122410, Note_on_c, 0, 62, 127
2, 122640, Note_off_c, 0, 50, 80
2, 122640, Note_off_c, 0, 62, 80
2, 122640, Note_on_c, 0, 50, 127
2, 122650, Note_on_c, 0, 62, 127
2, 122880, Note_off_c, 0, 50, 80
2, 122880, Note_off_c, 0, 62, 80
2, 122880, Note_on_c, 0, 50, 127
2, 122890, Note_on_c, 0, 62, 127
2, 123120, Note_off_c, 0, 50, 80
2, 123120, Note_off_c, 0, 62, 80
2, 123120, Note_on_c, 0, 52, 127
2, 123130, Note_on_c, 0, 64, 127
2, 123360, Note_off_c, 0, 52, 80
2, 123360, Note_off_c, 0, 64, 80
2, 123360, Note_on_c, 0, 52, 127
2, 123370, Note_on_c, 0, 64, 127
2, 123600, Note_off_c, 0, 52, 80
2, 123600, Note_off_c, 0, 64, 80
2, 123600, Note_on_c, 0, 52, 127
2, 123610, Note_on_c, 0, 64, 127
2, 123840, Note_off_c, 0, 52, 80
2, 123840, Note_off_c, 0, 64, 80
2, 123840, Note_on_c, 0, 52, 127
2, 123850, Note_on_c, 0, 64, 127
2, 124080, Note_off_c, 0, 52, 80
2, 124080, Note_off_c, 0, 64, 80
2, 124080, Note_on_c, 0, 52, 127
2, 124090, Note_on_c, 0, 64, 127
2, 124320, Note_off_c, 0, 52, 80
2, 124320, Note_off_c, 0, 64, 80
2, 124320, Note_on_c, 0, 52, 127
2, 124330, Note_on_c, 0, 64, 127
2, 124560, Note_off_c, 0, 52, 80
2, 124560, Note_off_c, 0, 64, 80
2, 124560, Note_on_c, 0, 52, 127
2, 124570, Note_on_c, 0, 64, 127
2, 124800, Note_off_c, 0, 52, 80
2, 124800, Note_off_c, 0, 64, 80
2, 124800, Note_on_c, 0, 52, 127
2, 124810, Note_on_c, 0, 64, 127
2, 125040, Note_off_c, 0, 52, 80
2, 125040, Note_off_c, 0, 64, 80
2, 125040, Note_on_c, 0, 50, 127
2, 125050, Note_on_c, 0, 62, 127
2, 125280, Note_off_c, 0, 50, 80
2, 125280, Note_off_c, 0, 62, 80
2, 125280, Note_on_c, 0, 50, 127
2, 125290, Note_on_c, 0, 62, 127
2, 125520, Note_off_c, 0, 50, 80
2, 125520, Note_off_c, 0, 62, 80
2, 125520, Note_on_c, 0, 50, 127
2, 125530, Note_on_c, 0, 62, 127
2, 125760, Note_off_c, 0, 50, 80
2, 125760, Note_off_c, 0, 62, 80
2, 125760, Note_on_c, 0, 50, 127
2, 125770, Note_on_c, 0, 62, 127
2, 126000, Note_off_c, 0, 50, 80
2, 126000, Note_off_c, 0, 62, 80
2, 126000, Note_on_c, 0, 50, 127
2, 126010, Note_on_c, 0, 62, 127
2, 126240, Note_off_c, 0, 50, 80
2, 126240, Note_off_c, 0, 62, 80
2, 126240, Note_on_c, 0, 50, 127
2, 126250, Note_on_c, 0, 62, 127
2, 126480, Note_off_c, 0, 50, 80
2, 126480, Note_off_c, 0, 62, 80
2, 126480, Note_on_c, 0, 50, 127
2, 126490, Note_on_c, 0, 62, 127
2, 126720, Note_off_c, 0, 50, 80
2, 126720, Note_off_c, 0, 62, 80
2, 126720, Note_on_c, 0, 50, 127
2, 126730, Note_on_c, 0, 62, 127
2, 126960, Note_off_c, 0, 50, 80
2, 126960, Note_off_c, 0, 62, 80
2, 126960, Note_on_c, 0, 52, 127
2, 126970, Note_on_c, 0, 64, 127
2, 127200, Note_off_c, 0, 52, 80
2, 127200, Note_off_c, 0, 64, 80
2, 127200, Note_on_c, 0, 52, 127
2, 127210, Note_on_c, 0, 64, 127
2, 127440, Note_off_c, 0, 52, 80
2, 127440, Note_off_c, 0, 64, 80
2, 127440, Note_on_c, 0, 52, 127
2, 127450, Note_on_c, 0, 64, 127
2, 127680, Note_off_c, 0, 52, 80
2, 127680, Note_off_c, 0, 64, 80
2, 127680, Note_on_c, 0, 52, 127
2, 127690, Note_on_c, 0, 64, 127
2, 127920, Note_off_c, 0, 52, 80
2, 127920, Note_off_c, 0, 64, 80
2, 127920, Note_on_c, 0, 52, 127
2, 127930, Note_on_c, 0, 64, 127
2, 128160, Note_off_c, 0, 52, 80
2, 128160, Note_off_c, 0, 64, 80
2, 128160, Note_on_c, 0, 52, 127
2, 128170, Note_on_c, 0, 64, 127
2, 128400, Note_off_c, 0, 52, 80
2, 128400, Note_off_c, 0, 64, 80
2, 128400, Note_on_c, 0, 52, 127
2, 128410, Note_on_c, 0, 64, 127
2, 128640, Note_off_c, 0, 52, 80
2, 128640, Note_off_c, 0, 64, 80
2, 128640, Note_on_c, 0, 49, 127
2, 128650, Note_on_c, 0, 61, 127
2, 128880, Note_off_c, 0, 49, 80
2, 128880, Note_off_c, 0, 61, 80
2, 128880, Note_on_c, 0, 50, 127
2, 128890, Note_on_c, 0, 62, 127
2, 129120, Note_off_c, 0, 50, 80
2, 129120, Note_off_c, 0, 62, 80
2, 129120, Note_on_c, 0, 50, 127
2, 129130, Note_on_c, 0, 62, 127
2, 129360, Note_off_c, 0, 50, 80
2, 129360, Note_off_c, 0, 62, 80
2, 129360, Note_on_c, 0, 50, 127
2, 129370, Note_on_c, 0, 62, 127
2, 129600, Note_off_c, 0, 50, 80
2, 129600, Note_off_c, 0, 62, 80
2, 129600, Note_on_c, 0, 50, 127
2, 129610, Note_on_c, 0, 62, 127
2, 129840, Note_off_c, 0, 50, 80
2, 129840, Note_off_c, 0, 62, 80
2, 129840, Note_on_c, 0, 50, 127
2, 129850, Note_on_c, 0, 62, 127
2, 130080, Note_off_c, 0, 50, 80
2, 130080, Note_off_c, 0, 62, 80
2, 130080, Note_on_c, 0, 50, 127
2, 130090, Note_on_c, 0, 62, 127
2, 130320, Note_off_c, 0, 50, 80
2, 130320, Note_off_c, 0, 62, 80
2, 130320, Note_on_c, 0, 50, 127
2, 130330, Note_on_c, 0, 62, 127
2, 130560, Note_off_c, 0, 50, 80
2, 130560, Note_off_c, 0, 62, 80
2, 130560, Note_on_c, 0, 50, 127
2, 130570, Note_on_c, 0, 62, 127
2, 130800, Note_off_c, 0, 50, 80
2, 130800, Note_off_c, 0, 62, 80
2, 130800, Note_on_c, 0, 52, 127
2, 130810, Note_on_c, 0, 64, 127
2, 131040, Note_off_c, 0, 52, 80
2, 131040, Note_off_c, 0, 64, 80
2, 131040, Note_on_c, 0, 52, 127
2, 131050, Note_on_c, 0, 64, 127
2, 131280, Note_off_c, 0, 52, 80
2, 131280, Note_off_c, 0, 64, 80
2, 131280, Note_on_c, 0, 52, 127
2, 131290, Note_on_c, 0, 64, 127
2, 131520, Note_off_c, 0, 52, 80
2, 131520, Note_off_c, 0, 64, 80
2, 131520, Note_on_c, 0, 52, 127
2, 131530, Note_on_c, 0, 64, 127
2, 131760, Note_off_c, 0, 52, 80
2, 131760, Note_off_c, 0, 64, 80
2, 131760, Note_on_c, 0, 52, 127
2, 131770, Note_on_c, 0, 64, 127
2, 132000, Note_off_c, 0, 52, 80
2, 132000, Note_off_c, 0, 64, 80
2, 132000, Note_on_c, 0, 52, 127
2, 132010, Note_on_c, 0, 64, 127
2, 132240, Note_off_c, 0, 52, 80
2, 132240, Note_off_c, 0, 64, 80
2, 132240, Note_on_c, 0, 52, 127
2, 132250, Note_on_c, 0, 64, 127
2, 132480, Note_off_c, 0, 52, 80
2, 132480, Note_off_c, 0, 64, 80
2, 132480, Note_on_c, 0, 52, 127
2, 132490, Note_on_c, 0, 64, 127
2, 132720, Note_off_c, 0, 52, 80
2, 132720, Note_off_c, 0, 64, 80
2, 132720, Note_on_c, 0, 50, 127
2, 132730, Note_on_c, 0, 62, 127
2, 132960, Note_off_c, 0, 50, 80
2, 132960, Note_off_c, 0, 62, 80
2, 132960, Note_on_c, 0, 50, 127
2, 132970, Note_on_c, 0, 62, 127
2, 133200, Note_off_c, 0, 50, 80
2, 133200, Note_off_c, 0, 62, 80
2, 133200, Note_on_c, 0, 50, 127
2, 133210, Note_on_c, 0, 62, 127
2, 133440, Note_off_c, 0, 50, 80
2, 133440, Note_off_c, 0, 62, 80
2, 133440, Note_on_c, 0, 50, 127
2, 133450, Note_on_c, 0, 62, 127
2, 133680, Note_off_c, 0, 50, 80
2, 133680, Note_off_c, 0, 62, 80
2, 133680, Note_on_c, 0, 50, 127
2, 133690, Note_on_c, 0, 62, 127
2, 133920, Note_off_c, 0, 50, 80
2, 133920, Note_off_c, 0, 62, 80
2, 133920, Note_on_c, 0, 50, 127
2, 133930, Note_on_c, 0, 62, 127
2, 134160, Note_off_c, 0, 50, 80
2, 134160, Note_off_c, 0, 62, 80
2, 134160, Note_on_c, 0, 50, 127
2, 134170, Note_on_c, 0, 62, 127
2, 134400, Note_off_c, 0, 50, 80
2, 134400, Note_off_c, 0, 62, 80
2, 134400, Note_on_c, 0, 50, 127
2, 134410, Note_on_c, 0, 62, 127
2, 134640, Note_off_c, 0, 50, 80
2, 134640, Note_off_c, 0, 62, 80
2, 134640, Note_on_c, 0, 52, 127
2, 134650, Note_on_c, 0, 64, 127
2, 134880, Note_off_c, 0, 52, 80
2, 134880, Note_off_c, 0, 64, 80
2, 134880, Note_on_c, 0, 52, 127
2, 134890, Note_on_c, 0, 64, 127
2, 135120, Note_off_c, 0, 52, 80
2, 135120, Note_off_c, 0, 64, 80
2, 135120, Note_on_c, 0, 52, 127
2, 135130, Note_on_c, 0, 64, 127
2, 135360, Note_off_c, 0, 52, 80
2, 135360, Note_off_c, 0, 64, 80
2, 135360, Note_on_c, 0, 52, 127
2, 135370, Note_on_c, 0, 64, 127
2, 135600, Note_off_c, 0, 52, 80
2, 135600, Note_off_c, 0, 64, 80
2, 135600, Note_on_c, 0, 52, 127
2, 135610, Note_on_c, 0, 64, 127
2, 135840, Note_off_c, 0, 52, 80
2, 135840, Note_off_c, 0, 64, 80
2, 135840, Note_on_c, 0, 52, 127
2, 135850, Note_on_c, 0, 64, 127
2, 136080, Note_off_c, 0, 52, 80
2, 136080, Note_off_c, 0, 64, 80
2, 136080, Note_on_c, 0, 52, 127
2, 136090, Note_on_c, 0, 64, 127
2, 136320, Note_off_c, 0, 52, 80
2, 136320, Note_off_c, 0, 64, 80
2, 136320, Note_on_c, 0, 47, 95
2, 136330, Note_on_c, 0, 54, 95
2, 136340, Note_on_c, 0, 59, 95
2, 136350, Note_on_c, 0, 62, 95
2, 138240, Note_off_c, 0, 47, 80
2, 138240, Note_off_c, 0, 54, 80
2, 138240, Note_off_c, 0, 59, 80
2, 138240, Note_off_c, 0, 62, 80
2, 138240, Note_on_c, 0, 48, 95
2, 138250, Note_on_c, 0, 55, 95
2, 138260, Note_on_c, 0, 60, 95
2, 138270, Note_on_c, 0, 64, 95
2, 140160, Note_off_c, 0, 48, 80
2, 140160, Note_off_c, 0, 55, 80
2, 140160, Note_off_c, 0, 60, 80
2, 140160, Note_off_c, 0, 64, 80
2, 140160, Note_on_c, 0, 45, 95
2, 140170, Note_on_c, 0, 52, 95
2, 140180, Note_on_c, 0, 57, 95
2, 140190, Note_on_c, 0, 61, 95
2, 140640, Note_off_c, 0, 45, 80
2, 140640, Note_off_c, 0, 52, 80
2, 140640, Note_off_c, 0, 57, 80
2, 140640, Note_off_c, 0, 61, 80
2, 140640, Note_on_c, 0, 45, 95
2, 140650, Note_on_c, 0, 52, 95
2, 140660, Note_on_c, 0, 57, 95
2, 140670, Note_on_c, 0, 61, 95
2, 141120, Note_off_c, 0, 45, 80
2, 141120, Note_off_c, 0, 52, 80
2, 141120, Note_off_c, 0, 57, 80
2, 141120, Note_off_c, 0, 61, 80
2, 141120, Note_on_c, 0, 45, 95
2, 141130, Note_on_c, 0, 52, 95
2, 141140, Note_on_c, 0, 57, 95
2, 141150, Note_on_c, 0, 61, 95
2, 141600, Note_off_c, 0, 45, 80
2, 141600, Note_off_c, 0, 52, 80
2, 141600, Note_off_c, 0, 57, 80
2, 141600, Note_off_c, 0, 61, 80
2, 141600, Note_on_c, 0, 45, 95
2, 141610, Note_on_c, 0, 52, 95
2, 141620, Note_on_c, 0, 57, 95
2, 141630, Note_on_c, 0, 61, 95
2, 142080, Note_off_c, 0, 45, 80
2, 142080, Note_off_c, 0, 52, 80
2, 142080, Note_off_c, 0, 57, 80
2, 142080, Note_off_c, 0, 61, 80
2, 142080, Note_on_c, 0, 50, 95
2, 142090, Note_on_c, 0, 57, 95
2, 142100, Note_on_c, 0, 62, 95
2, 142110, Note_on_c, 0, 66, 95
2, 142320, Note_off_c, 0, 50, 80
2, 142320, Note_off_c, 0, 57, 80
2, 142320, Note_off_c, 0, 62, 80
2, 142320, Note_off_c, 0, 66, 80
2, 142320, Note_on_c, 0, 66, 95
2, 142330, Note_on_c, 0, 62, 95
2, 142340, Note_on_c, 0, 57, 95
2, 142350, Note_on_c, 0, 50, 95
2, 142560, Note_off_c, 0, 66, 80
2, 142560, Note_off_c, 0, 62, 80
2, 142560, Note_off_c, 0, 57, 80
2, 142560, Note_off_c, 0, 50, 80
2, 142560, Note_on_c, 0, 50, 95
2, 142570, Note_on_c, 0, 57, 95
2, 142580, Note_on_c, 0, 62, 95
2, 142590, Note_on_c, 0, 66, 95
2, 142800, Note_off_c, 0, 50, 80
2, 142800, Note_off_c, 0, 57, 80
2, 142800, Note_off_c, 0, 62, 80
2, 142800, Note_off_c, 0, 66, 80
2, 142800, Note_on_c, 0, 66, 95
2, 142810, Note_on_c, 0, 62, 95
2, 142820, Note_on_c, 0, 57, 95
2, 142830, Note_on_c, 0, 50, 95
2, 143040, Note_off_c, 0, 66, 80
2, 143040, Note_off_c, 0, 62, 80
2, 143040, Note_off_c, 0, 57, 80
2, 143040, Note_off_c, 0, 50, 80
2, 143040, Note_on_c, 0, 50, 95
2, 143050, Note_on_c, 0, 57, 95
2, 143060, Note_on_c, 0, 62, 95
2, 143070, Note_on_c, 0, 66, 95
2, 143280, Note_off_c, 0, 50, 80
2, 143280, Note_off_c, 0, 57, 80
2, 143280, Note_off_c, 0, 62, 80
2, 143280, Note_off_c, 0, 66, 80
2, 143280, Note_on_c, 0, 66, 95
2, 143290, Note_on_c, 0, 62, 95
2, 143300, Note_on_c, 0, 57, 95
2, 143310, Note_on_c, 0, 50, 95
2, 143520, Note_off_c, 0, 66, 80
2, 143520, Note_off_c, 0, 62, 80
2, 143520, Note_off_c, 0, 57, 80
2, 143520, Note_off_c, 0, 50, 80
2, 143520, Note_on_c, 0, 50, 95
2, 143530, Note_on_c, 0, 57, 95
2, 143540, Note_on_c, 0, 62, 95
2, 143550, Note_on_c, 0, 66, 95
2, 143760, Note_off_c, 0, 50, 80
2, 143760, Note_off_c, 0, 57, 80
2, 143760, Note_off_c, 0, 62, 80
2, 143760, Note_off_c, 0, 66, 80
2, 143760, Note_on_c, 0, 66, 95
2, 143770, Note_on_c, 0, 62, 95
2, 143780, Note_on_c, 0, 57, 95
2, 143790, Note_on_c, 0, 50, 95
2, 144000, Note_off_c, 0, 66, 80
2, 144000, Note_off_c, 0, 62, 80
2, 144000, Note_off_c, 0, 57, 80
2, 144000, Note_off_c, 0, 50, 80
2, 144000, Note_on_c, 0, 66, 95
2, 144000, Note_on_c, 0, 62, 95
2, 144000, Note_on_c, 0, 57, 95
2, 144000, Note_on_c, 0, 50, 95
2, 144240, Note_off_c, 0, 66, 80
2, 144240, Note_off_c, 0, 62, 80
2, 144240, Note_off_c, 0, 57, 80
2, 144240, Note_off_c, 0, 50, 80
2, 145920, Note_on_c, 0, 43, 95
2, 145930, Note_on_c, 0, 50, 95
2, 146160, Note_off_c, 0, 50, 80
2, 146160, Note_on_c, 0, 50, 95
2, 146170, Note_on_c, 0, 55, 95
2, 146180, Note_on_c, 0, 62, 95
2, 146400, Note_off_c, 0, 50, 80
2, 146400, Note_off_c, 0, 55, 80
2, 146400, Note_off_c, 0, 62, 80
2, 146400, Note_on_c, 0, 50, 95
2, 146410, Note_on_c, 0, 55, 95
2, 146420, Note_on_c, 0, 62, 95
2, 146640, Note_off_c, 0, 50, 80
2, 146640, Note_off_c, 0, 55, 80
2, 146640, Note_off_c, 0, 62, 80
2, 146640, Note_on_c, 0, 50, 95
2, 146650, Note_on_c, 0, 55, 95
2, 146660, Note_on_c, 0, 62, 95
2, 146880, Note_off_c, 0, 43, 80
2, 146880, Note_off_c, 0, 50, 80
2, 146880, Note_off_c, 0, 55, 80
2, 146880, Note_off_c, 0, 62, 80
2, 146880, Note_on_c, 0, 45, 95
2, 146890, Note_on_c, 0, 52, 95
2, 147120, Note_off_c, 0, 52, 80
2, 147120, Note_on_c, 0, 52, 95
2, 147130, Note_on_c, 0, 57, 95
2, 147360, Note_off_c, 0, 52, 80
2, 147360, Note_off_c, 0, 57, 80
2, 147360, Note_on_c, 0, 52, 95
2, 147370, Note_on_c, 0, 57, 95
2, 147380, Note_on_c, 0, 61, 95
2, 147600, Note_off_c, 0, 52, 80
2, 147600, Note_off_c, 0, 57, 80
2, 147600, Note_off_c, 0, 61, 80
2, 147600, Note_on_c, 0, 52, 95
2, 147610, Note_on_c, 0, 57, 95
2, 147620, Note_on_c, 0, 61, 95
2, 147840, Note_off_c, 0, 45, 80
2, 147840, Note_off_c, 0, 52, 80
2, 147840, Note_off_c, 0, 57, 80
2, 147840, Note_off_c, 0, 61, 80
2, 147840, Note_on_c, 0, 50, 95
2, 147850, Note_on_c, 0, 57, 95
2, 147860, Note_on_c, 0, 62, 95
2, 148560, Note_off_c, 0, 50, 80
2, 148560, Note_off_c, 0, 57, 80
2, 148560, Note_off_c, 0, 62, 80
2, 148560, Note_on_c, 0, 57, 95
2, 148570, Note_on_c, 0, 62, 95
2, 148580, Note_on_c, 0, 66, 95
2, 149040, Note_off_c, 0, 57, 80
2, 149040, Note_off_c, 0, 62, 80
2, 149040, Note_off_c, 0, 66, 80
2, 149040, Note_on_c, 0, 57, 95
2, 149050, Note_on_c, 0, 62, 95
2, 149060, Note_on_c, 0, 66, 95
2, 149280, Note_off_c, 0, 57, 80
2, 149280, Note_off_c, 0, 62, 80
2, 149280, Note_off_c, 0, 66, 80
2, 149280, Note_on_c, 0, 57, 95
2, 149290, Note_on_c, 0, 62, 95
2, 149300, Note_on_c, 0, 66, 95
2, 149520, Note_off_c, 0, 57, 80
2, 149520, Note_off_c, 0, 62, 80
2, 149520, Note_off_c, 0, 66, 80
2, 149520, Note_on_c, 0, 57, 95
2, 149530, Note_on_c, 0, 62, 95
2, 149540, Note_on_c, 0, 66, 95
2, 149760, Note_off_c, 0, 57, 80
2, 149760, Note_off_c, 0, 62, 80
2, 149760, Note_off_c, 0, 66, 80
2, 149760, Note_on_c, 0, 43, 95
2, 149770, Note_on_c, 0, 50, 95
2, 150000, Note_off_c, 0, 50, 80
2, 150000, Note_on_c, 0, 50, 95
2, 150010, Note_on_c, 0, 55, 95
2, 150020, Note_on_c, 0, 62, 95
2, 150240, Note_off_c, 0, 50, 80
2, 150240, Note_off_c, 0, 55, 80
2, 150240, Note_off_c, 0, 62, 80
2, 150240, Note_on_c, 0, 50, 95
2, 150250, Note_on_c, 0, 55, 95
2, 150260, Note_on_c, 0, 62, 95
2, 150480, Note_off_c, 0, 50, 80
2, 150480, Note_off_c, 0, 55, 80
2, 150480, Note_off_c, 0, 62, 80
2, 150480, Note_on_c, 0, 50, 95
2, 150490, Note_on_c, 0, 55, 95
2, 150500, Note_on_c, 0, 62, 95
2, 150720, Note_off_c, 0, 43, 80
2, 150720, Note_off_c, 0, 50, 80
2, 150720, Note_off_c, 0, 55, 80
2, 150720, Note_off_c, 0, 62, 80
2, 150720, Note_on_c, 0, 45, 95
2, 150730, Note_on_c, 0, 52, 95
2, 150960, Note_off_c, 0, 52, 80
2, 150960, Note_on_c, 0, 52, 95
2, 150970, Note_on_c, 0, 57, 95
2, 151200, Note_off_c, 0, 52, 80
2, 151200, Note_off_c, 0, 57, 80
2, 151200, Note_on_c, 0, 52, 95
2, 151210, Note_on_c, 0, 57, 95
2, 151220, Note_on_c, 0, 61, 95
2, 151440, Note_off_c, 0, 52, 80
2, 151440, Note_off_c, 0, 57, 80
2, 151440, Note_off_c, 0, 61, 80
2, 151440, Note_on_c, 0, 52, 95
2, 151450, Note_on_c, 0, 57, 95
2, 151460, Note_on_c, 0, 61, 95
2, 151680, Note_off_c, 0, 45, 80
2, 151680, Note_off_c, 0, 52, 80
2, 151680, Note_off_c, 0, 57, 80
2, 151680, Note_off_c, 0, 61, 80
2, 151680, Note_on_c, 0, 50, 95
2, 151690, Note_on_c, 0, 57, 95
2, 151700, Note_on_c, 0, 62, 95
2, 152400, Note_off_c, 0, 50, 80
2, 152400, Note_off_c, 0, 57, 80
2, 152400, Note_off_c, 0, 62, 80
2, 152400, Note_on_c, 0, 57, 95
2, 152410, Note_on_c, 0, 62, 95
2, 152420, Note_on_c, 0, 66, 95
2, 152880, Note_off_c, 0, 57, 80
2, 152880, Note_off_c, 0, 62, 80
2, 152880, Note_off_c, 0, 66, 80
2, 152880, Note_on_c, 0, 57, 95
2, 152890, Note_on_c, 0, 62, 95
2, 152900, Note_on_c, 0, 66, 95
2, 153120, Note_off_c, 0, 57, 80
2, 153120, Note_off_c, 0, 62, 80
2, 153120, Note_off_c, 0, 66, 80
2, 153120, Note_on_c, 0, 57, 95
2, 153130, Note_on_c, 0, 62, 95
2, 153140, Note_on_c, 0, 66, 95
2, 153360, Note_off_c, 0, 57, 80
2, 153360, Note_off_c, 0, 62, 80
2, 153360, Note_off_c, 0, 66, 80
2, 153360, Note_on_c, 0, 57, 95
2, 153370, Note_on_c, 0, 62, 95
2, 153380, Note_on_c, 0, 66, 95
2, 153600, Note_off_c, 0, 57, 80
2, 153600, Note_off_c, 0, 62, 80
2, 153600, Note_off_c, 0, 66, 80
2, 153600, Note_on_c, 0, 43, 95
2, 153610, Note_on_c, 0, 50, 95
2, 153840, Note_off_c, 0, 50, 80
2, 153840, Note_on_c, 0, 50, 95
2, 153850, Note_on_c, 0, 55, 95
2, 153860, Note_on_c, 0, 62, 95
2, 154080, Note_off_c, 0, 50, 80
2, 154080, Note_off_c, 0, 55, 80
2, 154080, Note_off_c, 0, 62, 80
2, 154080, Note_on_c, 0, 50, 95
2, 154090, Note_on_c, 0, 55, 95
2, 154100, Note_on_c, 0, 62, 95
2, 154320, Note_off_c, 0, 50, 80
2, 154320, Note_off_c, 0, 55, 80
2, 154320, Note_off_c, 0, 62, 80
2, 154320, Note_on_c, 0, 50, 95
2, 154330, Note_on_c, 0, 55, 95
2, 154340, Note_on_c, 0, 62, 95
2, 154560, Note_off_c, 0, 43, 80
2, 154560, Note_off_c, 0, 50, 80
2, 154560, Note_off_c, 0, 55, 80
2, 154560, Note_off_c, 0, 62, 80
2, 154560, Note_on_c, 0, 45, 95
2, 154570, Note_on_c, 0, 52, 95
2, 154800, Note_off_c, 0, 52, 80
2, 154800, Note_on_c, 0, 52, 95
2, 154810, Note_on_c, 0, 57, 95
2, 155040, Note_off_c, 0, 52, 80
2, 155040, Note_off_c, 0, 57, 80
2, 155040, Note_on_c, 0, 52, 95
2, 155050, Note_on_c, 0, 57, 95
2, 155060, Note_on_c, 0, 61, 95
2, 155280, Note_off_c, 0, 52, 80
2, 155280, Note_off_c, 0, 57, 80
2, 155280, Note_off_c, 0, 61, 80
2, 155280, Note_on_c, 0, 52, 95
2, 155290, Note_on_c, 0, 57, 95
2, 155300, Note_on_c, 0, 61, 95
2, 155520, Note_off_c, 0, 45, 80
2, 155520, Note_off_c, 0, 52, 80
2, 155520, Note_off_c, 0, 57, 80
2, 155520, Note_off_c, 0, 61, 80
2, 155520, Note_on_c, 0, 50, 95
2, 155530, Note_on_c, 0, 57, 95
2, 155540, Note_on_c, 0, 62, 95
2, 156240, Note_off_c, 0, 50, 80
2, 156240, Note_off_c, 0, 57, 80
2, 156240, Note_off_c, 0, 62, 80
2, 156240, Note_on_c, 0, 57, 95
2, 156250, Note_on_c, 0, 62, 95
2, 156260, Note_on_c, 0, 66, 95
2, 156720, Note_off_c, 0, 57, 80
2, 156720, Note_off_c, 0, 62, 80
2, 156720, Note_off_c, 0, 66, 80
2, 156720, Note_on_c, 0, 57, 95
2, 156730, Note_on_c, 0, 62, 95
2, 156740, Note_on_c, 0, 66, 95
2, 156960, Note_off_c, 0, 57, 80
2, 156960, Note_off_c, 0, 62, 80
2, 156960, Note_off_c, 0, 66, 80
2, 156960, Note_on_c, 0, 57, 95
2, 156970, Note_on_c, 0, 62, 95
2, 156980, Note_on_c, 0, 66, 95
2, 157200, Note_off_c, 0, 57, 80
2, 157200, Note_off_c, 0, 62, 80
2, 157200, Note_off_c, 0, 66, 80
2, 157200, Note_on_c, 0, 57, 95
2, 157210, Note_on_c, 0, 62, 95
2, 157220, Note_on_c, 0, 66, 95
2, 157440, Note_off_c, 0, 57, 80
2, 157440, Note_off_c, 0, 62, 80
2, 157440, Note_off_c, 0, 66, 80
2, 157440, Note_on_c, 0, 43, 95
2, 157450, Note_on_c, 0, 50, 95
2, 157680, Note_off_c, 0, 50, 80
2, 157680, Note_on_c, 0, 50, 95
2, 157690, Note_on_c, 0, 55, 95
2, 157700, Note_on_c, 0, 62, 95
2, 157920, Note_off_c, 0, 50, 80
2, 157920, Note_off_c, 0, 55, 80
2, 157920, Note_off_c, 0, 62, 80
2, 157920, Note_on_c, 0, 50, 95
2, 157930, Note_on_c, 0, 55, 95
2, 157940, Note_on_c, 0, 62, 95
2, 158160, Note_off_c, 0, 50, 80
2, 158160, Note_off_c, 0, 55, 80
2, 158160, Note_off_c, 0, 62, 80
2, 158160, Note_on_c, 0, 50, 95
2, 158170, Note_on_c, 0, 55, 95
2, 158180, Note_on_c, 0, 62, 95
2, 158400, Note_off_c, 0, 43, 80
2, 158400, Note_off_c, 0, 50, 80
2, 158400, Note_off_c, 0, 55, 80
2, 158400, Note_off_c, 0, 62, 80
2, 158400, Note_on_c, 0, 45, 95
2, 158410, Note_on_c, 0, 52, 95
2, 158640, Note_off_c, 0, 52, 80
2, 158640, Note_on_c, 0, 52, 95
2, 158650, Note_on_c, 0, 57, 95
2, 158880, Note_off_c, 0, 52, 80
2, 158880, Note_off_c, 0, 57, 80
2, 158880, Note_on_c, 0, 52, 95
2, 158890, Note_on_c, 0, 57, 95
2, 158900, Note_on_c, 0, 61, 95
2, 159120, Note_off_c, 0, 52, 80
2, 159120, Note_off_c, 0, 57, 80
2, 159120, Note_off_c, 0, 61, 80
2, 159120, Note_on_c, 0, 52, 95
2, 159130, Note_on_c, 0, 57, 95
2, 159140, Note_on_c, 0, 61, 95
2, 159360, Note_off_c, 0, 45, 80
2, 159360, Note_off_c, 0, 52, 80
2, 159360, Note_off_c, 0, 57, 80
2, 159360, Note_off_c, 0, 61, 80
2, 159360, Note_on_c, 0, 50, 95
2, 159370, Note_on_c, 0, 57, 95
2, 159380, Note_on_c, 0, 62, 95
2, 160080, Note_off_c, 0, 50, 80
2, 160080, Note_off_c, 0, 57, 80
2, 160080, Note_off_c, 0, 62, 80
2, 160080, Note_on_c, 0, 57, 95
2, 160090, Note_on_c, 0, 62, 95
2, 160100, Note_on_c, 0, 66, 95
2, 160560, Note_off_c, 0, 57, 80
2, 160560, Note_off_c, 0, 62, 80
2, 160560, Note_off_c, 0, 66, 80
2, 160560, Note_on_c, 0, 57, 95
2, 160570, Note_on_c, 0, 62, 95
2, 160580, Note_on_c, 0, 66, 95
2, 160800, Note_off_c, 0, 57, 80
2, 160800, Note_off_c, 0, 62, 80
2, 160800, Note_off_c, 0, 66, 80
2, 160800, Note_on_c, 0, 57, 95
2, 160810, Note_on_c, 0, 62, 95
2, 160820, Note_on_c, 0, 66, 95
2, 161040, Note_off_c, 0, 57, 80
2, 161040, Note_off_c, 0, 62, 80
2, 161040, Note_off_c, 0, 66, 80
2, 161040, Note_on_c, 0, 57, 95
2, 161050, Note_on_c, 0, 62, 95
2, 161060, Note_on_c, 0, 66, 95
2, 161280, Note_off_c, 0, 57, 80
2, 161280, Note_off_c, 0, 62, 80
2, 161280, Note_off_c, 0, 66, 80
2, 161280, Note_on_c, 0, 43, 95
2, 161290, Note_on_c, 0, 50, 95
2, 161520, Note_off_c, 0, 50, 80
2, 161520, Note_on_c, 0, 50, 95
2, 161530, Note_on_c, 0, 55, 95
2, 161540, Note_on_c, 0, 62, 95
2, 161760, Note_off_c, 0, 50, 80
2, 161760, Note_off_c, 0, 55, 80
2, 161760, Note_off_c, 0, 62, 80
2, 161760, Note_on_c, 0, 50, 95
2, 161770, Note_on_c, 0, 55, 95
2, 161780, Note_on_c, 0, 62, 95
2, 162000, Note_off_c, 0, 50, 80
2, 162000, Note_off_c, 0, 55, 80
2, 162000, Note_off_c, 0, 62, 80
2, 162000, Note_on_c, 0, 50, 95
2, 162010, Note_on_c, 0, 55, 95
2, 162020, Note_on_c, 0, 62, 95
2, 162240, Note_off_c, 0, 43, 80
2, 162240, Note_off_c, 0, 50, 80
2, 162240, Note_off_c, 0, 55, 80
2, 162240, Note_off_c, 0, 62, 80
2, 162240, Note_on_c, 0, 45, 95
2, 162250, Note_on_c, 0, 52, 95
2, 162480, Note_off_c, 0, 52, 80
2, 162480, Note_on_c, 0, 52, 95
2, 162490, Note_on_c, 0, 57, 95
2, 162720, Note_off_c, 0, 52, 80
2, 162720, Note_off_c, 0, 57, 80
2, 162720, Note_on_c, 0, 52, 95
2, 162730, Note_on_c, 0, 57, 95
2, 162740, Note_on_c, 0, 61, 95
2, 162960, Note_off_c, 0, 52, 80
2, 162960, Note_off_c, 0, 57, 80
2, 162960, Note_off_c, 0, 61, 80
2, 162960, Note_on_c, 0, 52, 95
2, 162970, Note_on_c, 0, 57, 95
2, 162980, Note_on_c, 0, 61, 95
2, 163200, Note_off_c, 0, 45, 80
2, 163200, Note_off_c, 0, 52, 80
2, 163200, Note_off_c, 0, 57, 80
2, 163200, Note_off_c, 0, 61, 80
2, 163200, Note_on_c, 0, 50, 95
2, 163210, Note_on_c, 0, 57, 95
2, 163220, Note_on_c, 0, 62, 95
2, 163920, Note_off_c, 0, 50, 80
2, 163920, Note_off_c, 0, 57, 80
2, 163920, Note_off_c, 0, 62, 80
2, 163920, Note_on_c, 0, 57, 95
2, 163930, Note_on_c, 0, 62, 95
2, 163940, Note_on_c, 0, 66, 95
2, 164400, Note_off_c, 0, 57, 80
2, 164400, Note_off_c, 0, 62, 80
2, 164400, Note_off_c, 0, 66, 80
2, 164400, Note_on_c, 0, 57, 95
2, 164410, Note_on_c, 0, 62, 95
2, 164420, Note_on_c, 0, 66, 95
2, 164640, Note_off_c, 0, 57, 80
2, 164640, Note_off_c, 0, 62, 80
2, 164640, Note_off_c, 0, 66, 80
2, 164640, Note_on_c, 0, 57, 95
2, 164650, Note_on_c, 0, 62, 95
2, 164660, Note_on_c, 0, 66, 95
2, 164880, Note_off_c, 0, 57, 80
2, 164880, Note_off_c, 0, 62, 80
2, 164880, Note_off_c, 0, 66, 80
2, 164880, Note_on_c, 0, 57, 95
2, 164890, Note_on_c, 0, 62, 95
2, 164900, Note_on_c, 0, 66, 95
2, 165120, Note_off_c, 0, 57, 80
2, 165120, Note_off_c, 0, 62, 80
2, 165120, Note_off_c, 0, 66, 80
2, 165120, Note_on_c, 0, 43, 95
2, 165130, Note_on_c, 0, 50, 95
2, 165360, Note_off_c, 0, 50, 80
2, 165360, Note_on_c, 0, 50, 95
2, 165370, Note_on_c, 0, 55, 95
2, 165380, Note_on_c, 0, 62, 95
2, 165600, Note_off_c, 0, 50, 80
2, 165600, Note_off_c, 0, 55, 80
2, 165600, Note_off_c, 0, 62, 80
2, 165600, Note_on_c, 0, 50, 95
2, 165610, Note_on_c, 0, 55, 95
2, 165620, Note_on_c, 0, 62, 95
2, 165840, Note_off_c, 0, 50, 80
2, 165840, Note_off_c, 0, 55, 80
2, 165840, Note_off_c, 0, 62, 80
2, 165840, Note_on_c, 0, 50, 95
2, 165850, Note_on_c, 0, 55, 95
2, 165860, Note_on_c, 0, 62, 95
2, 166080, Note_off_c, 0, 43, 80
2, 166080, Note_off_c, 0, 50, 80
2, 166080, Note_off_c, 0, 55, 80
2, 166080, Note_off_c, 0, 62, 80
2, 166080, Note_on_c, 0, 45, 95
2, 166090, Note_on_c, 0, 52, 95
2, 166320, Note_off_c, 0, 52, 80
2, 166320, Note_on_c, 0, 52, 95
2, 166330, Note_on_c, 0, 57, 95
2, 166560, Note_off_c, 0, 52, 80
2, 166560, Note_off_c, 0, 57, 80
2, 166560, Note_on_c, 0, 52, 95
2, 166570, Note_on_c, 0, 57, 95
2, 166580, Note_on_c, 0, 61, 95
2, 166800, Note_off_c, 0, 52, 80
2, 166800, Note_off_c, 0, 57, 80
2, 166800, Note_off_c, 0, 61, 80
2, 166800, Note_on_c, 0, 52, 95
2, 166810, Note_on_c, 0, 57, 95
2, 166820, Note_on_c, 0, 61, 95
2, 167040, Note_off_c, 0, 45, 80
2, 167040, Note_off_c, 0, 52, 80
2, 167040, Note_off_c, 0, 57, 80
2, 167040, Note_off_c, 0, 61, 80
2, 167040, Note_on_c, 0, 50, 95
2, 167050, Note_on_c, 0, 57, 95
2, 167060, Note_on_c, 0, 62, 95
2, 167760, Note_off_c, 0, 50, 80
2, 167760, Note_off_c, 0, 57, 80
2, 167760, Note_off_c, 0, 62, 80
2, 167760, Note_on_c, 0, 57, 95
2, 167770, Note_on_c, 0, 62, 95
2, 167780, Note_on_c, 0, 66, 95
2, 168240, Note_off_c, 0, 57, 80
2, 168240, Note_off_c, 0, 62, 80
2, 168240, Note_off_c, 0, 66, 80
2, 168240, Note_on_c, 0, 57, 95
2, 168250, Note_on_c, 0, 62, 95
2, 168260, Note_on_c, 0, 66, 95
2, 168480, Note_off_c, 0, 57, 80
2, 168480, Note_off_c, 0, 62, 80
2, 168480, Note_off_c, 0, 66, 80
2, 168480, Note_on_c, 0, 57, 95
2, 168490, Note_on_c, 0, 62, 95
2, 168500, Note_on_c, 0, 66, 95
2, 168720, Note_off_c, 0, 57, 80
2, 168720, Note_off_c, 0, 62, 80
2, 168720, Note_off_c, 0, 66, 80
2, 168720, Note_on_c, 0, 57, 95
2, 168730, Note_on_c, 0, 62, 95
2, 168740, Note_on_c, 0, 66, 95
2, 168960, Note_off_c, 0, 57, 80
2, 168960, Note_off_c, 0, 62, 80
2, 168960, Note_off_c, 0, 66, 80
2, 168960, Note_on_c, 0, 43, 95
2, 168970, Note_on_c, 0, 50, 95
2, 169200, Note_off_c, 0, 50, 80
2, 169200, Note_on_c, 0, 50, 95
2, 169210, Note_on_c, 0, 55, 95
2, 169220, Note_on_c, 0, 62, 95
2, 169440, Note_off_c, 0, 50, 80
2, 169440, Note_off_c, 0, 55, 80
2, 169440, Note_off_c, 0, 62, 80
2, 169440, Note_on_c, 0, 50, 95
2, 169450, Note_on_c, 0, 55, 95
2, 169460, Note_on_c, 0, 62, 95
2, 169680, Note_off_c, 0, 50, 80
2, 169680, Note_off_c, 0, 55, 80
2, 169680, Note_off_c, 0, 62, 80
2, 169680, Note_on_c, 0, 50, 95
2, 169690, Note_on_c, 0, 55, 95
2, 169700, Note_on_c, 0, 62, 95
2, 169920, Note_off_c, 0, 43, 80
2, 169920, Note_off_c, 0, 50, 80
2, 169920, Note_off_c, 0, 55, 80
2, 169920, Note_off_c, 0, 62, 80
2, 169920, Note_on_c, 0, 45, 95
2, 169930, Note_on_c, 0, 52, 95
2, 170160, Note_off_c, 0, 52, 80
2, 170160, Note_on_c, 0, 52, 95
2, 170170, Note_on_c, 0, 57, 95
2, 170400, Note_off_c, 0, 52, 80
2, 170400, Note_off_c, 0, 57, 80
2, 170400, Note_on_c, 0, 52, 95
2, 170410, Note_on_c, 0, 57, 95
2, 170420, Note_on_c, 0, 61, 95
2, 170640, Note_off_c, 0, 52, 80
2, 170640, Note_off_c, 0, 57, 80
2, 170640, Note_off_c, 0, 61, 80
2, 170640, Note_on_c, 0, 52, 95
2, 170650, Note_on_c, 0, 57, 95
2, 170660, Note_on_c, 0, 61, 95
2, 170880, Note_off_c, 0, 45, 80
2, 170880, Note_off_c, 0, 52, 80
2, 170880, Note_off_c, 0, 57, 80
2, 170880, Note_off_c, 0, 61, 80
2, 170880, Note_on_c, 0, 50, 95
2, 170890, Note_on_c, 0, 57, 95
2, 170900, Note_on_c, 0, 62, 95
2, 171600, Note_off_c, 0, 50, 80
2, 171600, Note_off_c, 0, 57, 80
2, 171600, Note_off_c, 0, 62, 80
2, 171600, Note_on_c, 0, 57, 95
2, 171610, Note_on_c, 0, 62, 95
2, 171620, Note_on_c, 0, 66, 95
2, 172080, Note_off_c, 0, 57, 80
2, 172080, Note_off_c, 0, 62, 80
2, 172080, Note_off_c, 0, 66, 80
2, 172080, Note_on_c, 0, 57, 95
2, 172090, Note_on_c, 0, 62, 95
2, 172100, Note_on_c, 0, 66, 95
2, 172320, Note_off_c, 0, 57, 80
2, 172320, Note_off_c, 0, 62, 80
2, 172320, Note_off_c, 0, 66, 80
2, 172320, Note_on_c, 0, 57, 95
2, 172330, Note_on_c, 0, 62, 95
2, 172340, Note_on_c, 0, 66, 95
2, 172560, Note_off_c, 0, 57, 80
2, 172560, Note_off_c, 0, 62, 80
2, 172560, Note_off_c, 0, 66, 80
2, 172560, Note_on_c, 0, 57, 95
2, 172570, Note_on_c, 0, 62, 95
2, 172580, Note_on_c, 0, 66, 95
2, 172800, Note_off_c, 0, 57, 80
2, 172800, Note_off_c, 0, 62, 80
2, 172800, Note_off_c, 0, 66, 80
2, 172800, Note_on_c, 0, 43, 95
2, 172810, Note_on_c, 0, 50, 95
2, 173040, Note_off_c, 0, 50, 80
2, 173040, Note_on_c, 0, 50, 95
2, 173050, Note_on_c, 0, 55, 95
2, 173060, Note_on_c, 0, 62, 95
2, 173280, Note_off_c, 0, 50, 80
2, 173280, Note_off_c, 0, 55, 80
2, 173280, Note_off_c, 0, 62, 80
2, 173280, Note_on_c, 0, 50, 95
2, 173290, Note_on_c, 0, 55, 95
2, 173300, Note_on_c, 0, 62, 95
2, 173520, Note_off_c, 0, 50, 80
2, 173520, Note_off_c, 0, 55, 80
2, 173520, Note_off_c, 0, 62, 80
2, 173520, Note_on_c, 0, 50, 95
2, 173530, Note_on_c, 0, 55, 95
2, 173540, Note_on_c, 0, 62, 95
2, 173760, Note_off_c, 0, 43, 80
2, 173760, Note_off_c, 0, 50, 80
2, 173760, Note_off_c, 0, 55, 80
2, 173760, Note_off_c, 0, 62, 80
2, 173760, Note_on_c, 0, 45, 95
2, 173770, Note_on_c, 0, 52, 95
2, 174000, Note_off_c, 0, 52, 80
2, 174000, Note_on_c, 0, 52, 95
2, 174010, Note_on_c, 0, 57, 95
2, 174240, Note_off_c, 0, 52, 80
2, 174240, Note_off_c, 0, 57, 80
2, 174240, Note_on_c, 0, 52, 95
2, 174250, Note_on_c, 0, 57, 95
2, 174260, Note_on_c, 0, 61, 95
2, 174480, Note_off_c, 0, 52, 80
2, 174480, Note_off_c, 0, 57, 80
2, 174480, Note_off_c, 0, 61, 80
2, 174480, Note_on_c, 0, 52, 95
2, 174490, Note_on_c, 0, 57, 95
2, 174500, Note_on_c, 0, 61, 95
2, 174720, Note_off_c, 0, 45, 80
2, 174720, Note_off_c, 0, 52, 80
2, 174720, Note_off_c, 0, 57, 80
2, 174720, Note_off_c, 0, 61, 80
2, 174720, Note_on_c, 0, 50, 95
2, 174730, Note_on_c, 0, 57, 95
2, 174740, Note_on_c, 0, 62, 95
2, 175440, Note_off_c, 0, 50, 80
2, 175440, Note_off_c, 0, 57, 80
2, 175440, Note_off_c, 0, 62, 80
2, 175440, Note_on_c, 0, 57, 95
2, 175450, Note_on_c, 0, 62, 95
2, 175460, Note_on_c, 0, 66, 95
2, 175920, Note_off_c, 0, 57, 80
2, 175920, Note_off_c, 0, 62, 80
2, 175920, Note_off_c, 0, 66, 80
2, 175920, Note_on_c, 0, 57, 95
2, 175930, Note_on_c, 0, 62, 95
2, 175940, Note_on_c, 0, 66, 95
2, 176160, Note_off_c, 0, 57, 80
2, 176160, Note_off_c, 0, 62, 80
2, 176160, Note_off_c, 0, 66, 80
2, 176160, Note_on_c, 0, 57, 95
2, 176170, Note_on_c, 0, 62, 95
2, 176180, Note_on_c, 0, 66, 95
2, 176400, Note_off_c, 0, 57, 80
2, 176400, Note_off_c, 0, 62, 80
2, 176400, Note_off_c, 0, 66, 80
2, 176400, Note_on_c, 0, 57, 95
2, 176410, Note_on_c, 0, 62, 95
2, 176420, Note_on_c, 0, 66, 95
2, 176640, Note_off_c, 0, 57, 80
2, 176640, Note_off_c, 0, 62, 80
2, 176640, Note_off_c, 0, 66, 80
2, 176640, Note_on_c, 0, 43, 95
2, 176650, Note_on_c, 0, 50, 95
2, 176880, Note_off_c, 0, 50, 80
2, 176880, Note_on_c, 0, 50, 95
2, 176890, Note_on_c, 0, 55, 95
2, 176900, Note_on_c, 0, 62, 95
2, 177120, Note_off_c, 0, 50, 80
2, 177120, Note_off_c, 0, 55, 80
2, 177120, Note_off_c, 0, 62, 80
2, 177120, Note_on_c, 0, 50, 95
2, 177130, Note_on_c, 0, 55, 95
2, 177140, Note_on_c, 0, 62, 95
2, 177360, Note_off_c, 0, 50, 80
2, 177360, Note_off_c, 0, 55, 80
2, 177360, Note_off_c, 0, 62, 80
2, 177360, Note_on_c, 0, 50, 95
2, 177370, Note_on_c, 0, 55, 95
2, 177380, Note_on_c, 0, 62, 95
2, 177600, Note_off_c, 0, 43, 80
2, 177600, Note_off_c, 0, 50, 80
2, 177600, Note_off_c, 0, 55, 80
2, 177600, Note_off_c, 0, 62, 80
2, 177600, Note_on_c, 0, 45, 95
2, 177610, Note_on_c, 0, 52, 95
2, 177840, Note_off_c, 0, 52, 80
2, 177840, Note_on_c, 0, 52, 95
2, 177850, Note_on_c, 0, 57, 95
2, 178080, Note_off_c, 0, 52, 80
2, 178080, Note_off_c, 0, 57, 80
2, 178080, Note_on_c, 0, 52, 95
2, 178090, Note_on_c, 0, 57, 95
2, 178100, Note_on_c, 0, 61, 95
2, 178320, Note_off_c, 0, 52, 80
2, 178320, Note_off_c, 0, 57, 80
2, 178320, Note_off_c, 0, 61, 80
2, 178320, Note_on_c, 0, 52, 95
2, 178330, Note_on_c, 0, 57, 95
2, 178340, Note_on_c, 0, 61, 95
2, 178560, Note_off_c, 0, 45, 80
2, 178560, Note_off_c, 0, 52, 80
2, 178560, Note_off_c, 0, 57, 80
2, 178560, Note_off_c, 0, 61, 80
2, 178560, Note_on_c, 0, 50, 95
2, 178570, Note_on_c, 0, 57, 95
2, 178580, Note_on_c, 0, 62, 95
2, 179280, Note_off_c, 0, 50, 80
2, 179280, Note_off_c, 0, 57, 80
2, 179280, Note_off_c, 0, 62, 80
2, 179280, Note_on_c, 0, 57, 95
2, 179290, Note_on_c, 0, 62, 95
2, 179300, Note_on_c, 0, 66, 95
2, 179760, Note_off_c, 0, 57, 80
2, 179760, Note_off_c, 0, 62, 80
2, 179760, Note_off_c, 0, 66, 80
2, 179760, Note_on_c, 0, 57, 95
2, 179770, Note_on_c, 0, 62, 95
2, 179780, Note_on_c, 0, 66, 95
2, 180000, Note_off_c, 0, 57, 80
2, 180000, Note_off_c, 0, 62, 80
2, 180000, Note_off_c, 0, 66, 80
2, 180000, Note_on_c, 0, 57, 95
2, 180010, Note_on_c, 0, 62, 95
2, 180020, Note_on_c, 0, 66, 95
2, 180240, Note_off_c, 0, 57, 80
2, 180240, Note_off_c, 0, 62, 80
2, 180240, Note_off_c, 0, 66, 80
2, 180240, Note_on_c, 0, 57, 95
2, 180250, Note_on_c, 0, 62, 95
2, 180260, Note_on_c, 0, 66, 95
2, 180480, Note_off_c, 0, 57, 80
2, 180480, Note_off_c, 0, 62, 80
2, 180480, Note_off_c, 0, 66, 80
2, 180480, Note_on_c, 0, 43, 95
2, 180490, Note_on_c, 0, 50, 95
2, 180720, Note_off_c, 0, 50, 80
2, 180720, Note_on_c, 0, 50, 95
2, 180730, Note_on_c, 0, 55, 95
2, 180740, Note_on_c, 0, 62, 95
2, 180960, Note_off_c, 0, 50, 80
2, 180960, Note_off_c, 0, 55, 80
2, 180960, Note_off_c, 0, 62, 80
2, 180960, Note_on_c, 0, 50, 95
2, 180970, Note_on_c, 0, 55, 95
2, 180980, Note_on_c, 0, 62, 95
2, 181200, Note_off_c, 0, 50, 80
2, 181200, Note_off_c, 0, 55, 80
2, 181200, Note_off_c, 0, 62, 80
2, 181200, Note_on_c, 0, 50, 95
2, 181210, Note_on_c, 0, 55, 95
2, 181220, Note_on_c, 0, 62, 95
2, 181440, Note_off_c, 0, 43, 80
2, 181440, Note_off_c, 0, 50, 80
2, 181440, Note_off_c, 0, 55, 80
2, 181440, Note_off_c, 0, 62, 80
2, 181440, Note_on_c, 0, 45, 95
2, 181450, Note_on_c, 0, 52, 95
2, 181680, Note_off_c, 0, 52, 80
2, 181680, Note_on_c, 0, 52, 95
2, 181690, Note_on_c, 0, 57, 95
2, 181920, Note_off_c, 0, 52, 80
2, 181920, Note_off_c, 0, 57, 80
2, 181920, Note_on_c, 0, 52, 95
2, 181930, Note_on_c, 0, 57, 95
2, 181940, Note_on_c, 0, 61, 95
2, 182160, Note_off_c, 0, 52, 80
2, 182160, Note_off_c, 0, 57, 80
2, 182160, Note_off_c, 0, 61, 80
2, 182160, Note_on_c, 0, 52, 95
2, 182170, Note_on_c, 0, 57, 95
2, 182180, Note_on_c, 0, 61, 95
2, 182400, Note_off_c, 0, 45, 80
2, 182400, Note_off_c, 0, 52, 80
2, 182400, Note_off_c, 0, 57, 80
2, 182400, Note_off_c, 0, 61, 80
2, 182400, Note_on_c, 0, 50, 95
2, 182410, Note_on_c, 0, 57, 95
2, 182420, Note_on_c, 0, 62, 95
2, 183120, Note_off_c, 0, 50, 80
2, 183120, Note_off_c, 0, 57, 80
2, 183120, Note_off_c, 0, 62, 80
2, 183120, Note_on_c, 0, 57, 95
2, 183130, Note_on_c, 0, 62, 95
2, 183140, Note_on_c, 0, 66, 95
2, 183600, Note_off_c, 0, 57, 80
2, 183600, Note_off_c, 0, 62, 80
2, 183600, Note_off_c, 0, 66, 80
2, 183600, Note_on_c, 0, 57, 95
2, 183610, Note_on_c, 0, 62, 95
2, 183620, Note_on_c, 0, 66, 95
2, 183840, Note_off_c, 0, 57, 80
2, 183840, Note_off_c, 0, 62, 80
2, 183840, Note_off_c, 0, 66, 80
2, 183840, Note_on_c, 0, 57, 95
2, 183850, Note_on_c, 0, 62, 95
2, 183860, Note_on_c, 0, 66, 95
2, 184080, Note_off_c, 0, 57, 80
2, 184080, Note_off_c, 0, 62, 80
2, 184080, Note_off_c, 0, 66, 80
2, 184080, Note_on_c, 0, 57, 95
2, 184090, Note_on_c, 0, 62, 95
2, 184100, Note_on_c, 0, 66, 95
2, 184320, Note_off_c, 0, 57, 80
2, 184320, Note_off_c, 0, 62, 80
2, 184320, Note_off_c, 0, 66, 80
2, 184320, Note_on_c, 0, 43, 95
2, 184330, Note_on_c, 0, 50, 95
2, 184560, Note_off_c, 0, 50, 80
2, 184560, Note_on_c, 0, 50, 95
2, 184570, Note_on_c, 0, 55, 95
2, 184580, Note_on_c, 0, 62, 95
2, 184800, Note_off_c, 0, 50, 80
2, 184800, Note_off_c, 0, 55, 80
2, 184800, Note_off_c, 0, 62, 80
2, 184800, Note_on_c, 0, 50, 95
2, 184810, Note_on_c, 0, 55, 95
2, 184820, Note_on_c, 0, 62, 95
2, 185040, Note_off_c, 0, 50, 80
2, 185040, Note_off_c, 0, 55, 80
2, 185040, Note_off_c, 0, 62, 80
2, 185040, Note_on_c, 0, 50, 95
2, 185050, Note_on_c, 0, 55, 95
2, 185060, Note_on_c, 0, 62, 95
2, 185280, Note_off_c, 0, 43, 80
2, 185280, Note_off_c, 0, 50, 80
2, 185280, Note_off_c, 0, 55, 80
2, 185280, Note_off_c, 0, 62, 80
2, 185280, Note_on_c, 0, 45, 95
2, 185290, Note_on_c, 0, 52, 95
2, 185520, Note_off_c, 0, 52, 80
2, 185520, Note_on_c, 0, 52, 95
2, 185530, Note_on_c, 0, 57, 95
2, 185760, Note_off_c, 0, 52, 80
2, 185760, Note_off_c, 0, 57, 80
2, 185760, Note_on_c, 0, 52, 95
2, 185770, Note_on_c, 0, 57, 95
2, 185780, Note_on_c, 0, 61, 95
2, 186000, Note_off_c, 0, 52, 80
2, 186000, Note_off_c, 0, 57, 80
2, 186000, Note_off_c, 0, 61, 80
2, 186000, Note_on_c, 0, 52, 95
2, 186010, Note_on_c, 0, 57, 95
2, 186020, Note_on_c, 0, 61, 95
2, 186240, Note_off_c, 0, 45, 80
2, 186240, Note_off_c, 0, 52, 80
2, 186240, Note_off_c, 0, 57, 80
2, 186240, Note_off_c, 0, 61, 80
2, 186240, Note_on_c, 0, 50, 95
2, 186250, Note_on_c, 0, 57, 95
2, 186260, Note_on_c, 0, 62, 95
2, 186960, Note_off_c, 0, 50, 80
2, 186960, Note_off_c, 0, 57, 80
2, 186960, Note_off_c, 0, 62, 80
2, 186960, Note_on_c, 0, 57, 95
2, 186970, Note_on_c, 0, 62, 95
2, 186980, Note_on_c, 0, 66, 95
2, 187440, Note_off_c, 0, 57, 80
2, 187440, Note_off_c, 0, 62, 80
2, 187440, Note_off_c, 0, 66, 80
2, 187440, Note_on_c, 0, 57, 95
2, 187450, Note_on_c, 0, 62, 95
2, 187460, Note_on_c, 0, 66, 95
2, 187680, Note_off_c, 0, 57, 80
2, 187680, Note_off_c, 0, 62, 80
2, 187680, Note_off_c, 0, 66, 80
2, 187680, Note_on_c, 0, 57, 95
2, 187690, Note_on_c, 0, 62, 95
2, 187700, Note_on_c, 0, 66, 95
2, 187920, Note_off_c, 0, 57, 80
2, 187920, Note_off_c, 0, 62, 80
2, 187920, Note_off_c, 0, 66, 80
2, 187920, Note_on_c, 0, 57, 95
2, 187930, Note_on_c, 0, 62, 95
2, 187940, Note_on_c, 0, 66, 95
2, 188160, Note_off_c, 0, 57, 80
2, 188160, Note_off_c, 0, 62, 80
2, 188160, Note_off_c, 0, 66, 80
2, 188160, Note_on_c, 0, 43, 95
2, 188170, Note_on_c, 0, 50, 95
2, 188400, Note_off_c, 0, 50, 80
2, 188400, Note_on_c, 0, 50, 95
2, 188410, Note_on_c, 0, 55, 95
2, 188420, Note_on_c, 0, 62, 95
2, 188640, Note_off_c, 0, 50, 80
2, 188640, Note_off_c, 0, 55, 80
2, 188640, Note_off_c, 0, 62, 80
2, 188640, Note_on_c, 0, 50, 95
2, 188650, Note_on_c, 0, 55, 95
2, 188660, Note_on_c, 0, 62, 95
2, 188880, Note_off_c, 0, 50, 80
2, 188880, Note_off_c, 0, 55, 80
2, 188880, Note_off_c, 0, 62, 80
2, 188880, Note_on_c, 0, 50, 95
2, 188890, Note_on_c, 0, 55, 95
2, 188900, Note_on_c, 0, 62, 95
2, 189120, Note_off_c, 0, 43, 80
2, 189120, Note_off_c, 0, 50, 80
2, 189120, Note_off_c, 0, 55, 80
2, 189120, Note_off_c, 0, 62, 80
2, 189120, Note_on_c, 0, 45, 95
2, 189130, Note_on_c, 0, 52, 95
2, 189360, Note_off_c, 0, 52, 80
2, 189360, Note_on_c, 0, 52, 95
2, 189370, Note_on_c, 0, 57, 95
2, 189600, Note_off_c, 0, 52, 80
2, 189600, Note_off_c, 0, 57, 80
2, 189600, Note_on_c, 0, 52, 95
2, 189610, Note_on_c, 0, 57, 95
2, 189620, Note_on_c, 0, 61, 95
2, 189840, Note_off_c, 0, 52, 80
2, 189840, Note_off_c, 0, 57, 80
2, 189840, Note_off_c, 0, 61, 80
2, 189840, Note_on_c, 0, 52, 95
2, 189850, Note_on_c, 0, 57, 95
2, 189860, Note_on_c, 0, 61, 95
2, 190080, Note_off_c, 0, 45, 80
2, 190080, Note_off_c, 0, 52, 80
2, 190080, Note_off_c, 0, 57, 80
2, 190080, Note_off_c, 0, 61, 80
2, 190080, Note_on_c, 0, 50, 95
2, 190090, Note_on_c, 0, 57, 95
2, 190100, Note_on_c, 0, 62, 95
2, 190800, Note_off_c, 0, 50, 80
2, 190800, Note_off_c, 0, 57, 80
2, 190800, Note_off_c, 0, 62, 80
2, 190800, Note_on_c, 0, 57, 95
2, 190810, Note_on_c, 0, 62, 95
2, 190820, Note_on_c, 0, 66, 95
2, 191280, Note_off_c, 0, 57, 80
2, 191280, Note_off_c, 0, 62, 80
2, 191280, Note_off_c, 0, 66, 80
2, 191280, Note_on_c, 0, 57, 95
2, 191290, Note_on_c, 0, 62, 95
2, 191300, Note_on_c, 0, 66, 95
2, 191520, Note_off_c, 0, 57, 80
2, 191520, Note_off_c, 0, 62, 80
2, 191520, Note_off_c, 0, 66, 80
2, 191520, Note_on_c, 0, 57, 95
2, 191530, Note_on_c, 0, 62, 95
2, 191540, Note_on_c, 0, 66, 95
2, 191760, Note_off_c, 0, 57, 80
2, 191760, Note_off_c, 0, 62, 80
2, 191760, Note_off_c, 0, 66, 80
2, 191760, Note_on_c, 0, 57, 95
2, 191770, Note_on_c, 0, 62, 95
2, 191780, Note_on_c, 0, 66, 95
2, 192000, Note_off_c, 0, 57, 80
2, 192000, Note_off_c, 0, 62, 80
2, 192000, Note_off_c, 0, 66, 80
2, 192000, Note_on_c, 0, 43, 95
2, 192010, Note_on_c, 0, 50, 95
2, 192240, Note_off_c, 0, 50, 80
2, 192240, Note_on_c, 0, 50, 95
2, 192250, Note_on_c, 0, 55, 95
2, 192260, Note_on_c, 0, 62, 95
2, 192480, Note_off_c, 0, 50, 80
2, 192480, Note_off_c, 0, 55, 80
2, 192480, Note_off_c, 0, 62, 80
2, 192480, Note_on_c, 0, 50, 95
2, 192490, Note_on_c, 0, 55, 95
2, 192500, Note_on_c, 0, 62, 95
2, 192720, Note_off_c, 0, 50, 80
2, 192720, Note_off_c, 0, 55, 80
2, 192720, Note_off_c, 0, 62, 80
2, 192720, Note_on_c, 0, 50, 95
2, 192730, Note_on_c, 0, 55, 95
2, 192740, Note_on_c, 0, 62, 95
2, 192960, Note_off_c, 0, 43, 80
2, 192960, Note_off_c, 0, 50, 80
2, 192960, Note_off_c, 0, 55, 80
2, 192960, Note_off_c, 0, 62, 80
2, 192960, Note_on_c, 0, 45, 95
2, 192970, Note_on_c, 0, 52, 95
2, 193200, Note_off_c, 0, 52, 80
2, 193200, Note_on_c, 0, 52, 95
2, 193210, Note_on_c, 0, 57, 95
2, 193440, Note_off_c, 0, 52, 80
2, 193440, Note_off_c, 0, 57, 80
2, 193440, Note_on_c, 0, 52, 95
2, 193450, Note_on_c, 0, 57, 95
2, 193460, Note_on_c, 0, 61, 95
2, 193680, Note_off_c, 0, 52, 80
2, 193680, Note_off_c, 0, 57, 80
2, 193680, Note_off_c, 0, 61, 80
2, 193680, Note_on_c, 0, 52, 95
2, 193690, Note_on_c, 0, 57, 95
2, 193700, Note_on_c, 0, 61, 95
2, 193920, Note_off_c, 0, 45, 80
2, 193920, Note_off_c, 0, 52, 80
2, 193920, Note_off_c, 0, 57, 80
2, 193920, Note_off_c, 0, 61, 80
2, 193920, Note_on_c, 0, 50, 95
2, 193920, Control_c, 0, 7, 102
2, 193920, Control_c, 1, 7, 102
2, 193930, Note_on_c, 0, 57, 95
2, 193940, Note_on_c, 0, 62, 95
2, 193950, Note_on_c, 0, 66, 95
2, 194040, Control_c, 0, 7, 100
2, 194040, Control_c, 1, 7, 100
2, 194160, Control_c, 0, 7, 98
2, 194160, Control_c, 1, 7, 98
2, 194280, Control_c, 0, 7, 96
2, 194280, Control_c, 1, 7, 96
2, 194400, Control_c, 0, 7, 93
2, 194400, Control_c, 1, 7, 93
2, 194520, Control_c, 0, 7, 91
2, 194520, Control_c, 1, 7, 91
2, 194640, Control_c, 0, 7, 89
2, 194640, Control_c, 1, 7, 89
2, 194760, Control_c, 0, 7, 87
2, 194760, Control_c, 1, 7, 87
2, 194880, Control_c, 0, 7, 85
2, 194880, Control_c, 1, 7, 85
2, 195000, Control_c, 0, 7, 83
2, 195000, Control_c, 1, 7, 83
2, 195120, Control_c, 0, 7, 81
2, 195120, Control_c, 1, 7, 81
2, 195240, Control_c, 0, 7, 79
2, 195240, Control_c, 1, 7, 79
2, 195360, Control_c, 0, 7, 76
2, 195360, Control_c, 1, 7, 76
2, 195480, Control_c, 0, 7, 74
2, 195480, Control_c, 1, 7, 74
2, 195600, Control_c, 0, 7, 72
2, 195600, Control_c, 1, 7, 72
2, 195720, Control_c, 0, 7, 70
2, 195720, Control_c, 1, 7, 70
2, 195840, Control_c, 0, 7, 68
2, 195840, Control_c, 1, 7, 68
2, 195960, Control_c, 0, 7, 66
2, 195960, Control_c, 1, 7, 66
2, 196080, Control_c, 0, 7, 64
2, 196080, Control_c, 1, 7, 64
2, 196200, Control_c, 0, 7, 62
2, 196200, Control_c, 1, 7, 62
2, 196320, Control_c, 0, 7, 59
2, 196320, Control_c, 1, 7, 59
2, 196440, Control_c, 0, 7, 57
2, 196440, Control_c, 1, 7, 57
2, 196560, Control_c, 0, 7, 55
2, 196560, Control_c, 1, 7, 55
2, 196680, Control_c, 0, 7, 53
2, 196680, Control_c, 1, 7, 53
2, 196800, Control_c, 0, 7, 51
2, 196800, Control_c, 1, 7, 51
2, 196920, Control_c, 0, 7, 49
2, 196920, Control_c, 1, 7, 49
2, 197040, Control_c, 0, 7, 47
2, 197040, Control_c, 1, 7, 47
2, 197160, Control_c, 0, 7, 45
2, 197160, Control_c, 1, 7, 45
2, 197280, Control_c, 0, 7, 42
2, 197280, Control_c, 1, 7, 42
2, 197400, Control_c, 0, 7, 40
2, 197400, Control_c, 1, 7, 40
2, 197520, Control_c, 0, 7, 38
2, 197520, Control_c, 1, 7, 38
2, 197640, Control_c, 0, 7, 36
2, 197640, Control_c, 1, 7, 36
2, 197760, Control_c, 0, 7, 34
2, 197760, Control_c, 1, 7, 34
2, 197880, Control_c, 0, 7, 32
2, 197880, Control_c, 1, 7, 32
2, 198000, Control_c, 0, 7, 30
2, 198000, Control_c, 1, 7, 30
2, 198120, Control_c, 0, 7, 28
2, 198120, Control_c, 1, 7, 28
2, 198240, Control_c, 0, 7, 25
2, 198240, Control_c, 1, 7, 25
2, 198360, Control_c, 0, 7, 23
2, 198360, Control_c, 1, 7, 23
2, 198480, Control_c, 0, 7, 21
2, 198480, Control_c, 1, 7, 21
2, 198600, Control_c, 0, 7, 19
2, 198600, Control_c, 1, 7, 19
2, 198720, Control_c, 0, 7, 17
2, 198720, Control_c, 1, 7, 17
2, 198840, Control_c, 0, 7, 15
2, 198840, Control_c, 1, 7, 15
2, 198960, Control_c, 0, 7, 13
2, 198960, Control_c, 1, 7, 13
2, 199080, Control_c, 0, 7, 11
2, 199080, Control_c, 1, 7, 11
2, 199200, Control_c, 0, 7, 8
2, 199200, Control_c, 1, 7, 8
2, 199320, Control_c, 0, 7, 6
2, 199320, Control_c, 1, 7, 6
2, 199440, Control_c, 0, 7, 4
2, 199440, Control_c, 1, 7, 4
2, 199560, Control_c, 0, 7, 2
2, 199560, Control_c, 1, 7, 2
2, 199680, Note_off_c, 0, 50, 80
2, 199680, Note_off_c, 0, 57, 80
2, 199680, Note_off_c, 0, 62, 80
2, 199680, Note_off_c, 0, 66, 80
2, 199680, Control_c, 0, 7, 0
2, 199680, Control_c, 1, 7, 0
2, 199680, End_track
3, 0, Start_track
3, 0, Title_t, "Joey Santiago"
3, 0, Control_c, 3, 100, 0
3, 0, Control_c, 3, 101, 0
3, 0, Control_c, 3, 6, 12
3, 0, Pitch_bend_c, 3, 8192
3, 0, Control_c, 3, 101, 0
3, 0, Control_c, 3, 100, 1
3, 0, Control_c, 3, 6, 64
3, 0, Control_c, 3, 38, 0
3, 0, Control_c, 3, 101, 127
3, 0, Control_c, 3, 100, 127
3, 0, Control_c, 2, 100, 0
3, 0, Control_c, 2, 101, 0
3, 0, Control_c, 2, 6, 12
3, 0, Pitch_bend_c, 2, 8192
3, 0, Control_c, 2, 101, 0
3, 0, Control_c, 2, 100, 1
3, 0, Control_c, 2, 6, 64
3, 0, Control_c, 2, 38, 0
3, 0, Control_c, 2, 101, 127
3, 0, Control_c, 2, 100, 127
3, 0, Control_c, 3, 101, 0
3, 0, Control_c, 3, 100, 2
3, 0, Control_c, 3, 6, 64
3, 0, Control_c, 3, 101, 127
3, 0, Control_c, 3, 100, 127
3, 0, Control_c, 2, 101, 0
3, 0, Control_c, 2, 100, 2
3, 0, Control_c, 2, 6, 64
3, 0, Control_c, 2, 101, 127
3, 0, Control_c, 2, 100, 127
3, 0, Program_c, 3, 26
3, 0, Program_c, 2, 26
3, 0, Control_c, 3, 0, 0
3, 0, Control_c, 2, 0, 0
3, 0, Control_c, 3, 7, 127
3, 0, Control_c, 2, 7, 127
3, 0, Control_c, 3, 10, 64
3, 0, Control_c, 2, 10, 64
3, 0, Control_c, 3, 93, 0
3, 0, Control_c, 2, 93, 0
3, 0, Control_c, 3, 91, 0
3, 0, Control_c, 2, 91, 0
3, 0, Control_c, 3, 92, 0
3, 0, Control_c, 2, 92, 0
3, 0, Control_c, 3, 95, 0
3, 0, Control_c, 2, 95, 0
3, 2400, Note_on_c, 2, 50, 95
3, 2640, Note_off_c, 2, 50, 80
3, 2640, Note_on_c, 2, 50, 95
3, 2880, Note_off_c, 2, 50, 80
3, 2880, Note_on_c, 2, 54, 95
3, 3120, Note_off_c, 2, 54, 80
3, 3120, Note_on_c, 2, 54, 95
3, 3360, Note_off_c, 2, 54, 80
3, 3360, Note_on_c, 2, 55, 95
3, 3600, Note_off_c, 2, 55, 80
3, 3600, Note_on_c, 2, 45, 95
3, 3840, Note_off_c, 2, 45, 80
3, 3840, Note_on_c, 2, 43, 95
3, 4320, Note_off_c, 2, 43, 80
3, 4320, Note_on_c, 2, 47, 95
3, 4560, Note_off_c, 2, 47, 80
3, 4560, Note_on_c, 2, 45, 95
3, 4800, Note_off_c, 2, 45, 80
3, 4800, Note_on_c, 2, 45, 95
3, 5040, Note_off_c, 2, 45, 80
3, 5040, Note_on_c, 2, 49, 95
3, 5280, Note_off_c, 2, 49, 80
3, 5280, Note_on_c, 2, 50, 95
3, 5520, Note_off_c, 2, 50, 80
3, 5520, Note_on_c, 2, 52, 95
3, 5760, Note_off_c, 2, 52, 80
3, 5760, Note_on_c, 2, 50, 95
3, 6240, Note_off_c, 2, 50, 80
3, 6240, Note_on_c, 2, 50, 95
3, 6480, Note_off_c, 2, 50, 80
3, 6480, Note_on_c, 2, 50, 95
3, 6720, Note_off_c, 2, 50, 80
3, 6720, Note_on_c, 2, 54, 95
3, 6960, Note_off_c, 2, 54, 80
3, 6960, Note_on_c, 2, 54, 95
3, 7200, Note_off_c, 2, 54, 80
3, 7200, Note_on_c, 2, 55, 95
3, 7440, Note_off_c, 2, 55, 80
3, 7440, Note_on_c, 2, 45, 95
3, 7680, Note_off_c, 2, 45, 80
3, 7680, Note_on_c, 2, 43, 95
3, 8160, Note_off_c, 2, 43, 80
3, 8160, Note_on_c, 2, 47, 95
3, 8400, Note_off_c, 2, 47, 80
3, 8400, Note_on_c, 2, 45, 95
3, 8640, Note_off_c, 2, 45, 80
3, 8640, Note_on_c, 2, 45, 95
3, 8880, Note_off_c, 2, 45, 80
3, 8880, Note_on_c, 2, 49, 95
3, 9120, Note_off_c, 2, 49, 80
3, 9120, Note_on_c, 2, 50, 95
3, 9360, Note_off_c, 2, 50, 80
3, 9360, Note_on_c, 2, 52, 95
3, 9600, Note_off_c, 2, 52, 80
3, 9600, Note_on_c, 2, 50, 95
3, 10080, Note_off_c, 2, 50, 80
3, 10080, Note_on_c, 2, 50, 95
3, 10320, Note_off_c, 2, 50, 80
3, 10320, Note_on_c, 2, 50, 95
3, 10560, Note_off_c, 2, 50, 80
3, 10560, Note_on_c, 2, 54, 95
3, 10800, Note_off_c, 2, 54, 80
3, 10800, Note_on_c, 2, 54, 95
3, 11040, Note_off_c, 2, 54, 80
3, 11040, Note_on_c, 2, 55, 95
3, 11280, Note_off_c, 2, 55, 80
3, 11280, Note_on_c, 2, 45, 95
3, 11520, Note_off_c, 2, 45, 80
3, 11520, Note_on_c, 2, 43, 95
3, 12000, Note_off_c, 2, 43, 80
3, 12000, Note_on_c, 2, 47, 95
3, 12240, Note_off_c, 2, 47, 80
3, 12240, Note_on_c, 2, 45, 95
3, 12480, Note_off_c, 2, 45, 80
3, 12480, Note_on_c, 2, 45, 95
3, 12720, Note_off_c, 2, 45, 80
3, 12720, Note_on_c, 2, 49, 95
3, 12960, Note_off_c, 2, 49, 80
3, 12960, Note_on_c, 2, 50, 95
3, 13200, Note_off_c, 2, 50, 80
3, 13200, Note_on_c, 2, 52, 95
3, 13440, Note_off_c, 2, 52, 80
3, 13440, Control_c, 2, 7, 104
3, 13440, Control_c, 3, 7, 104
3, 13440, Note_on_c, 2, 57, 95
3, 13680, Note_on_c, 2, 62, 95
3, 13920, Note_off_c, 2, 57, 80
3, 13920, Note_on_c, 2, 57, 95
3, 14160, Note_on_c, 2, 66, 95
3, 14400, Note_off_c, 2, 57, 80
3, 14400, Note_on_c, 2, 57, 50
3, 14640, Note_off_c, 2, 62, 80
3, 14640, Note_on_c, 2, 62, 95
3, 14880, Note_off_c, 2, 57, 80
3, 14880, Note_on_c, 2, 57, 95
3, 15360, Note_off_c, 2, 57, 80
3, 15360, Note_on_c, 2, 64, 95
3, 15600, Note_off_c, 2, 62, 80
3, 15600, Note_on_c, 2, 69, 95
3, 15840, Note_off_c, 2, 64, 80
3, 15840, Note_on_c, 2, 64, 95
3, 16080, Note_off_c, 2, 66, 80
3, 16080, Note_on_c, 2, 73, 95
3, 16320, Note_off_c, 2, 64, 80
3, 16320, Note_on_c, 2, 64, 50
3, 16560, Note_off_c, 2, 69, 80
3, 16560, Note_on_c, 2, 69, 95
3, 16800, Note_off_c, 2, 64, 80
3, 16800, Note_on_c, 2, 64, 95
3, 17280, Note_off_c, 2, 64, 80
3, 17280, Note_on_c, 2, 59, 95
3, 17520, Note_off_c, 2, 69, 80
3, 17520, Note_on_c, 2, 64, 95
3, 17760, Note_off_c, 2, 59, 80
3, 17760, Note_on_c, 2, 59, 95
3, 18000, Note_off_c, 2, 73, 80
3, 18000, Note_on_c, 2, 67, 95
3, 18240, Note_off_c, 2, 59, 80
3, 18240, Note_on_c, 2, 59, 50
3, 18480, Note_off_c, 2, 64, 80
3, 18480, Note_on_c, 2, 64, 95
3, 18720, Note_off_c, 2, 59, 80
3, 18720, Note_on_c, 2, 59, 95
3, 19200, Note_off_c, 2, 59, 80
3, 19200, Note_on_c, 2, 62, 95
3, 19440, Note_off_c, 2, 64, 80
3, 19440, Note_on_c, 2, 67, 95
3, 19680, Note_off_c, 2, 62, 80
3, 19680, Note_on_c, 2, 62, 95
3, 19920, Note_off_c, 2, 67, 80
3, 19920, Note_on_c, 2, 71, 95
3, 20160, Note_off_c, 2, 62, 80
3, 20160, Note_on_c, 2, 62, 50
3, 20400, Note_off_c, 2, 67, 80
3, 20400, Note_on_c, 2, 67, 95
3, 20640, Note_off_c, 2, 62, 80
3, 20640, Note_on_c, 2, 62, 95
3, 21120, Note_off_c, 2, 62, 80
3, 21120, Note_on_c, 2, 57, 95
3, 21360, Note_off_c, 2, 67, 80
3, 21360, Note_on_c, 2, 62, 95
3, 21600, Note_off_c, 2, 57, 80
3, 21600, Note_on_c, 2, 57, 95
3, 21840, Note_off_c, 2, 71, 80
3, 21840, Note_on_c, 2, 66, 95
3, 22080, Note_off_c, 2, 57, 80
3, 22080, Note_on_c, 2, 57, 50
3, 22320, Note_off_c, 2, 62, 80
3, 22320, Note_on_c, 2, 62, 95
3, 22560, Note_off_c, 2, 57, 80
3, 22560, Note_on_c, 2, 57, 95
3, 23040, Note_off_c, 2, 57, 80
3, 23040, Note_on_c, 2, 64, 95
3, 23280, Note_off_c, 2, 62, 80
3, 23280, Note_on_c, 2, 69, 95
3, 23520, Note_off_c, 2, 64, 80
3, 23520, Note_on_c, 2, 64, 95
3, 23760, Note_off_c, 2, 66, 80
3, 23760, Note_on_c, 2, 73, 95
3, 24000, Note_off_c, 2, 64, 80
3, 24000, Note_on_c, 2, 64, 50
3, 24240, Note_off_c, 2, 69, 80
3, 24240, Note_on_c, 2, 69, 95
3, 24480, Note_off_c, 2, 64, 80
3, 24480, Note_on_c, 2, 64, 95
3, 24960, Note_off_c, 2, 64, 80
3, 24960, Note_on_c, 2, 59, 95
3, 25200, Note_off_c, 2, 69, 80
3, 25200, Note_on_c, 2, 64, 95
3, 25440, Note_off_c, 2, 59, 80
3, 25440, Note_on_c, 2, 59, 95
3, 25680, Note_off_c, 2, 73, 80
3, 25680, Note_on_c, 2, 67, 95
3, 25920, Note_off_c, 2, 59, 80
3, 25920, Note_on_c, 2, 59, 50
3, 26160, Note_off_c, 2, 64, 80
3, 26160, Note_on_c, 2, 64, 95
3, 26400, Note_off_c, 2, 59, 80
3, 26400, Note_on_c, 2, 59, 95
3, 26880, Note_off_c, 2, 59, 80
3, 26880, Note_on_c, 2, 62, 95
3, 27120, Note_off_c, 2, 64, 80
3, 27120, Note_on_c, 2, 67, 95
3, 27360, Note_off_c, 2, 62, 80
3, 27360, Note_on_c, 2, 62, 95
3, 27600, Note_off_c, 2, 67, 80
3, 27600, Note_on_c, 2, 71, 95
3, 27840, Note_off_c, 2, 62, 80
3, 27840, Note_on_c, 2, 62, 50
3, 28080, Note_off_c, 2, 67, 80
3, 28080, Note_on_c, 2, 67, 95
3, 28320, Note_off_c, 2, 62, 80
3, 28320, Note_on_c, 2, 62, 95
3, 28800, Note_off_c, 2, 62, 80
3, 28800, Note_on_c, 2, 57, 95
3, 29040, Note_off_c, 2, 67, 80
3, 29040, Note_on_c, 2, 62, 95
3, 29280, Note_off_c, 2, 57, 80
3, 29280, Note_on_c, 2, 57, 95
3, 29520, Note_off_c, 2, 71, 80
3, 29520, Note_on_c, 2, 66, 95
3, 29760, Note_off_c, 2, 57, 80
3, 29760, Note_on_c, 2, 57, 50
3, 30000, Note_off_c, 2, 62, 80
3, 30000, Note_on_c, 2, 62, 95
3, 30240, Note_off_c, 2, 57, 80
3, 30240, Note_on_c, 2, 57, 95
3, 30720, Note_off_c, 2, 57, 80
3, 30720, Note_on_c, 2, 64, 95
3, 30960, Note_off_c, 2, 62, 80
3, 30960, Note_on_c, 2, 69, 95
3, 31200, Note_off_c, 2, 64, 80
3, 31200, Note_on_c, 2, 64, 95
3, 31440, Note_off_c, 2, 66, 80
3, 31440, Note_on_c, 2, 73, 95
3, 31680, Note_off_c, 2, 64, 80
3, 31680, Note_on_c, 2, 64, 50
3, 31920, Note_off_c, 2, 69, 80
3, 31920, Note_on_c, 2, 69, 95
3, 32160, Note_off_c, 2, 64, 80
3, 32160, Note_on_c, 2, 64, 95
3, 32640, Note_off_c, 2, 64, 80
3, 32640, Note_on_c, 2, 59, 95
3, 32880, Note_off_c, 2, 69, 80
3, 32880, Note_on_c, 2, 64, 95
3, 33120, Note_off_c, 2, 59, 80
3, 33120, Note_on_c, 2, 59, 95
3, 33360, Note_off_c, 2, 73, 80
3, 33360, Note_on_c, 2, 67, 95
3, 33600, Note_off_c, 2, 59, 80
3, 33600, Note_on_c, 2, 59, 50
3, 33840, Note_off_c, 2, 64, 80
3, 33840, Note_on_c, 2, 64, 95
3, 34080, Note_off_c, 2, 59, 80
3, 34080, Note_on_c, 2, 59, 95
3, 34560, Note_off_c, 2, 59, 80
3, 34560, Note_on_c, 2, 62, 95
3, 34800, Note_off_c, 2, 64, 80
3, 34800, Note_on_c, 2, 67, 95
3, 35040, Note_off_c, 2, 62, 80
3, 35040, Note_on_c, 2, 62, 95
3, 35280, Note_off_c, 2, 67, 80
3, 35280, Note_on_c, 2, 71, 95
3, 35520, Note_off_c, 2, 62, 80
3, 35520, Note_on_c, 2, 62, 50
3, 35760, Note_off_c, 2, 67, 80
3, 35760, Note_on_c, 2, 67, 95
3, 36000, Note_off_c, 2, 62, 80
3, 36000, Note_on_c, 2, 62, 95
3, 36480, Note_off_c, 2, 62, 80
3, 36480, Note_on_c, 2, 57, 95
3, 36720, Note_off_c, 2, 67, 80
3, 36720, Note_on_c, 2, 62, 95
3, 36960, Note_off_c, 2, 57, 80
3, 36960, Note_on_c, 2, 57, 95
3, 37200, Note_off_c, 2, 71, 80
3, 37200, Note_on_c, 2, 66, 95
3, 37440, Note_off_c, 2, 57, 80
3, 37440, Note_on_c, 2, 57, 50
3, 37680, Note_off_c, 2, 62, 80
3, 37680, Note_on_c, 2, 62, 95
3, 37920, Note_off_c, 2, 57, 80
3, 37920, Note_on_c, 2, 57, 95
3, 38400, Note_off_c, 2, 57, 80
3, 38400, Note_on_c, 2, 64, 95
3, 38640, Note_off_c, 2, 62, 80
3, 38640, Note_on_c, 2, 69, 95
3, 38880, Note_off_c, 2, 64, 80
3, 38880, Note_on_c, 2, 64, 95
3, 39120, Note_off_c, 2, 66, 80
3, 39120, Note_on_c, 2, 73, 95
3, 39360, Note_off_c, 2, 64, 80
3, 39360, Note_on_c, 2, 64, 50
3, 39600, Note_off_c, 2, 69, 80
3, 39600, Note_on_c, 2, 69, 95
3, 39840, Note_off_c, 2, 64, 80
3, 39840, Note_on_c, 2, 64, 95
3, 40320, Note_off_c, 2, 64, 80
3, 40320, Note_on_c, 2, 59, 95
3, 40560, Note_off_c, 2, 69, 80
3, 40560, Note_on_c, 2, 64, 95
3, 40800, Note_off_c, 2, 59, 80
3, 40800, Note_on_c, 2, 59, 95
3, 41040, Note_off_c, 2, 73, 80
3, 41040, Note_on_c, 2, 67, 95
3, 41280, Note_off_c, 2, 59, 80
3, 41280, Note_on_c, 2, 59, 50
3, 41520, Note_off_c, 2, 64, 80
3, 41520, Note_on_c, 2, 64, 95
3, 41760, Note_off_c, 2, 59, 80
3, 41760, Note_on_c, 2, 59, 95
3, 42240, Note_off_c, 2, 59, 80
3, 42240, Note_on_c, 2, 62, 95
3, 42480, Note_off_c, 2, 64, 80
3, 42480, Note_on_c, 2, 67, 95
3, 42720, Note_off_c, 2, 62, 80
3, 42720, Note_on_c, 2, 62, 95
3, 42960, Note_off_c, 2, 67, 80
3, 42960, Note_on_c, 2, 71, 95
3, 43200, Note_off_c, 2, 62, 80
3, 43200, Note_on_c, 2, 62, 50
3, 43440, Note_off_c, 2, 67, 80
3, 43440, Note_on_c, 2, 67, 95
3, 43680, Note_off_c, 2, 62, 80
3, 43680, Note_on_c, 2, 62, 95
3, 44160, Note_off_c, 2, 71, 80
3, 44160, Note_off_c, 2, 67, 80
3, 44160, Note_off_c, 2, 62, 80
3, 44160, Note_on_c, 2, 66, 95
3, 44160, Note_on_c, 2, 62, 95
3, 44400, Note_off_c, 2, 66, 80
3, 44400, Note_off_c, 2, 62, 80
3, 44400, Note_on_c, 2, 66, 95
3, 44400, Note_on_c, 2, 62, 95
3, 44640, Note_off_c, 2, 66, 80
3, 44640, Note_off_c, 2, 62, 80
3, 44640, Note_on_c, 2, 66, 95
3, 44640, Note_on_c, 2, 62, 95
3, 44880, Note_off_c, 2, 66, 80
3, 44880, Note_off_c, 2, 62, 80
3, 44880, Note_on_c, 2, 66, 95
3, 44880, Note_on_c, 2, 62, 95
3, 45120, Note_off_c, 2, 66, 80
3, 45120, Note_off_c, 2, 62, 80
3, 45120, Note_on_c, 2, 66, 95
3, 45120, Note_on_c, 2, 62, 95
3, 45360, Note_off_c, 2, 66, 80
3, 45360, Note_off_c, 2, 62, 80
3, 45360, Note_on_c, 2, 66, 95
3, 45360, Note_on_c, 2, 62, 95
3, 45600, Note_off_c, 2, 66, 80
3, 45600, Note_off_c, 2, 62, 80
3, 45600, Note_on_c, 2, 66, 95
3, 45600, Note_on_c, 2, 62, 95
3, 45840, Note_off_c, 2, 66, 80
3, 45840, Note_off_c, 2, 62, 80
3, 45840, Note_on_c, 2, 66, 95
3, 45840, Note_on_c, 2, 62, 95
3, 46080, Note_off_c, 2, 66, 80
3, 46080, Note_off_c, 2, 62, 80
3, 46080, Note_on_c, 2, 67, 95
3, 46080, Note_on_c, 2, 62, 95
3, 46320, Note_off_c, 2, 67, 80
3, 46320, Note_off_c, 2, 62, 80
3, 46320, Note_on_c, 2, 67, 95
3, 46320, Note_on_c, 2, 62, 95
3, 46560, Note_off_c, 2, 67, 80
3, 46560, Note_off_c, 2, 62, 80
3, 46560, Note_on_c, 2, 67, 95
3, 46560, Note_on_c, 2, 62, 95
3, 46800, Note_off_c, 2, 67, 80
3, 46800, Note_off_c, 2, 62, 80
3, 46800, Note_on_c, 2, 67, 95
3, 46800, Note_on_c, 2, 62, 95
3, 47040, Note_off_c, 2, 67, 80
3, 47040, Note_off_c, 2, 62, 80
3, 47040, Note_on_c, 2, 67, 95
3, 47040, Note_on_c, 2, 62, 95
3, 47280, Note_off_c, 2, 67, 80
3, 47280, Note_off_c, 2, 62, 80
3, 47280, Note_on_c, 2, 67, 95
3, 47280, Note_on_c, 2, 62, 95
3, 47520, Note_off_c, 2, 67, 80
3, 47520, Note_off_c, 2, 62, 80
3, 47520, Note_on_c, 2, 67, 95
3, 47520, Note_on_c, 2, 62, 95
3, 47760, Note_off_c, 2, 67, 80
3, 47760, Note_off_c, 2, 62, 80
3, 47760, Note_on_c, 2, 67, 95
3, 47760, Note_on_c, 2, 62, 95
3, 48000, Note_off_c, 2, 67, 80
3, 48000, Note_off_c, 2, 62, 80
3, 48000, Note_on_c, 2, 64, 95
3, 48000, Note_on_c, 2, 61, 95
3, 48240, Note_off_c, 2, 64, 80
3, 48240, Note_off_c, 2, 61, 80
3, 48240, Note_on_c, 2, 64, 95
3, 48240, Note_on_c, 2, 61, 95
3, 48480, Note_off_c, 2, 64, 80
3, 48480, Note_off_c, 2, 61, 80
3, 48480, Note_on_c, 2, 64, 95
3, 48480, Note_on_c, 2, 61, 95
3, 48720, Note_off_c, 2, 64, 80
3, 48720, Note_off_c, 2, 61, 80
3, 48720, Note_on_c, 2, 64, 95
3, 48720, Note_on_c, 2, 61, 95
3, 48960, Note_off_c, 2, 64, 80
3, 48960, Note_off_c, 2, 61, 80
3, 48960, Note_on_c, 2, 64, 95
3, 48960, Note_on_c, 2, 61, 95
3, 49200, Note_off_c, 2, 64, 80
3, 49200, Note_off_c, 2, 61, 80
3, 49200, Note_on_c, 2, 64, 95
3, 49200, Note_on_c, 2, 61, 95
3, 49440, Note_off_c, 2, 64, 80
3, 49440, Note_off_c, 2, 61, 80
3, 49440, Note_on_c, 2, 64, 95
3, 49440, Note_on_c, 2, 61, 95
3, 49680, Note_off_c, 2, 64, 80
3, 49680, Note_off_c, 2, 61, 80
3, 49680, Note_on_c, 2, 64, 95
3, 49680, Note_on_c, 2, 61, 95
3, 49920, Note_off_c, 2, 64, 80
3, 49920, Note_off_c, 2, 61, 80
3, 49920, Note_on_c, 2, 74, 95
3, 49920, Note_on_c, 2, 69, 95
3, 50160, Note_off_c, 2, 74, 80
3, 50160, Note_off_c, 2, 69, 80
3, 50160, Note_on_c, 2, 74, 95
3, 50160, Note_on_c, 2, 69, 95
3, 50400, Note_off_c, 2, 74, 80
3, 50400, Note_off_c, 2, 69, 80
3, 50400, Note_on_c, 2, 74, 95
3, 50400, Note_on_c, 2, 69, 95
3, 50640, Note_off_c, 2, 74, 80
3, 50640, Note_off_c, 2, 69, 80
3, 50640, Note_on_c, 2, 74, 95
3, 50640, Note_on_c, 2, 69, 95
3, 50880, Note_off_c, 2, 74, 80
3, 50880, Note_off_c, 2, 69, 80
3, 50880, Note_on_c, 2, 74, 95
3, 50880, Note_on_c, 2, 69, 95
3, 51120, Note_off_c, 2, 74, 80
3, 51120, Note_off_c, 2, 69, 80
3, 51120, Note_on_c, 2, 74, 95
3, 51120, Note_on_c, 2, 69, 95
3, 51360, Note_off_c, 2, 74, 80
3, 51360, Note_off_c, 2, 69, 80
3, 51360, Note_on_c, 2, 74, 95
3, 51360, Note_on_c, 2, 69, 95
3, 51600, Note_off_c, 2, 74, 80
3, 51600, Note_off_c, 2, 69, 80
3, 51600, Note_on_c, 2, 74, 95
3, 51600, Note_on_c, 2, 69, 95
3, 51840, Note_off_c, 2, 74, 80
3, 51840, Note_off_c, 2, 69, 80
3, 51840, Control_c, 2, 7, 127
3, 51840, Control_c, 3, 7, 127
3, 51840, Note_on_c, 2, 43, 95
3, 52320, Note_off_c, 2, 43, 80
3, 52320, Note_on_c, 2, 47, 95
3, 52560, Note_off_c, 2, 47, 80
3, 52560, Note_on_c, 2, 45, 95
3, 52800, Note_off_c, 2, 45, 80
3, 52800, Note_on_c, 2, 45, 95
3, 53040, Note_off_c, 2, 45, 80
3, 53040, Note_on_c, 2, 49, 95
3, 53280, Note_off_c, 2, 49, 80
3, 53280, Note_on_c, 2, 50, 95
3, 53520, Note_off_c, 2, 50, 80
3, 53520, Note_on_c, 2, 52, 95
3, 53760, Note_off_c, 2, 52, 80
3, 53760, Note_on_c, 2, 50, 95
3, 54240, Note_off_c, 2, 50, 80
3, 54240, Note_on_c, 2, 50, 95
3, 54480, Note_off_c, 2, 50, 80
3, 54480, Note_on_c, 2, 50, 95
3, 54720, Note_off_c, 2, 50, 80
3, 54720, Note_on_c, 2, 54, 95
3, 54960, Note_off_c, 2, 54, 80
3, 54960, Note_on_c, 2, 54, 95
3, 55200, Note_off_c, 2, 54, 80
3, 55200, Note_on_c, 2, 55, 95
3, 55440, Note_off_c, 2, 55, 80
3, 55440, Note_on_c, 2, 45, 95
3, 55680, Note_off_c, 2, 45, 80
3, 55680, Note_on_c, 2, 43, 95
3, 56160, Note_off_c, 2, 43, 80
3, 56160, Note_on_c, 2, 47, 95
3, 56400, Note_off_c, 2, 47, 80
3, 56400, Note_on_c, 2, 45, 95
3, 56640, Note_off_c, 2, 45, 80
3, 56640, Note_on_c, 2, 45, 95
3, 56880, Note_off_c, 2, 45, 80
3, 56880, Note_on_c, 2, 49, 95
3, 57120, Note_off_c, 2, 49, 80
3, 57120, Note_on_c, 2, 50, 95
3, 57360, Note_off_c, 2, 50, 80
3, 57360, Note_on_c, 2, 52, 95
3, 57600, Note_off_c, 2, 52, 80
3, 57600, Note_on_c, 2, 50, 95
3, 58080, Note_off_c, 2, 50, 80
3, 58080, Note_on_c, 2, 50, 95
3, 58320, Note_off_c, 2, 50, 80
3, 58320, Note_on_c, 2, 50, 95
3, 58560, Note_off_c, 2, 50, 80
3, 58560, Note_on_c, 2, 54, 95
3, 58800, Note_off_c, 2, 54, 80
3, 58800, Note_on_c, 2, 54, 95
3, 59040, Note_off_c, 2, 54, 80
3, 59040, Note_on_c, 2, 55, 95
3, 59280, Note_off_c, 2, 55, 80
3, 59280, Note_on_c, 2, 45, 95
3, 59520, Note_off_c, 2, 45, 80
3, 59520, Note_on_c, 2, 43, 95
3, 60000, Note_off_c, 2, 43, 80
3, 60000, Note_on_c, 2, 47, 95
3, 60240, Note_off_c, 2, 47, 80
3, 60240, Note_on_c, 2, 45, 95
3, 60480, Note_off_c, 2, 45, 80
3, 60480, Note_on_c, 2, 45, 95
3, 60720, Note_off_c, 2, 45, 80
3, 60720, Note_on_c, 2, 49, 95
3, 60960, Note_off_c, 2, 49, 80
3, 60960, Note_on_c, 2, 50, 95
3, 61200, Note_off_c, 2, 50, 80
3, 61200, Note_on_c, 2, 52, 95
3, 61440, Note_off_c, 2, 52, 80
3, 61920, Note_on_c, 2, 66, 95
3, 62160, Note_off_c, 2, 66, 80
3, 62160, Note_on_c, 2, 64, 95
3, 62400, Note_off_c, 2, 64, 80
3, 62640, Note_on_c, 2, 62, 95
3, 62880, Note_off_c, 2, 62, 80
3, 63120, Note_on_c, 2, 62, 95
3, 63360, Note_off_c, 2, 62, 80
3, 63360, Note_on_c, 2, 61, 95
3, 63600, Note_off_c, 2, 61, 80
3, 63600, Note_on_c, 2, 61, 95
3, 63840, Note_off_c, 2, 61, 80
3, 63840, Note_on_c, 2, 61, 95
3, 64080, Note_off_c, 2, 61, 80
3, 64080, Note_on_c, 2, 61, 95
3, 64320, Note_off_c, 2, 61, 80
3, 64320, Note_on_c, 2, 62, 95
3, 64800, Note_off_c, 2, 62, 80
3, 64800, Note_on_c, 2, 64, 95
3, 65040, Note_off_c, 2, 64, 80
3, 65760, Note_on_c, 2, 66, 95
3, 66000, Note_off_c, 2, 66, 80
3, 66000, Note_on_c, 2, 64, 95
3, 66240, Note_off_c, 2, 64, 80
3, 66480, Note_on_c, 2, 62, 95
3, 66720, Note_off_c, 2, 62, 80
3, 66960, Note_on_c, 2, 62, 95
3, 67200, Note_off_c, 2, 62, 80
3, 67200, Note_on_c, 2, 66, 95
3, 67440, Note_off_c, 2, 66, 80
3, 67440, Note_on_c, 2, 66, 95
3, 67680, Note_off_c, 2, 66, 80
3, 67680, Note_on_c, 2, 64, 95
3, 67920, Note_off_c, 2, 64, 80
3, 68160, Note_on_c, 2, 62, 95
3, 68400, Note_off_c, 2, 62, 80
3, 68400, Note_on_c, 2, 64, 95
3, 68640, Note_off_c, 2, 64, 80
3, 69600, Note_on_c, 2, 66, 95
3, 69840, Note_off_c, 2, 66, 80
3, 69840, Note_on_c, 2, 64, 95
3, 70080, Note_off_c, 2, 64, 80
3, 70320, Note_on_c, 2, 62, 95
3, 70560, Note_off_c, 2, 62, 80
3, 70800, Note_on_c, 2, 62, 95
3, 71040, Note_off_c, 2, 62, 80
3, 71040, Note_on_c, 2, 61, 95
3, 71280, Note_off_c, 2, 61, 80
3, 71280, Note_on_c, 2, 61, 95
3, 71520, Note_off_c, 2, 61, 80
3, 71520, Note_on_c, 2, 61, 95
3, 71760, Note_off_c, 2, 61, 80
3, 71760, Note_on_c, 2, 61, 95
3, 72000, Note_off_c, 2, 61, 80
3, 72000, Note_on_c, 2, 62, 95
3, 72480, Note_off_c, 2, 62, 80
3, 72480, Note_on_c, 2, 64, 95
3, 72720, Note_off_c, 2, 64, 80
3, 73440, Note_on_c, 2, 66, 95
3, 73680, Note_off_c, 2, 66, 80
3, 73680, Note_on_c, 2, 64, 95
3, 73920, Note_off_c, 2, 64, 80
3, 74160, Note_on_c, 2, 62, 95
3, 74400, Note_off_c, 2, 62, 80
3, 74640, Note_on_c, 2, 62, 95
3, 74880, Note_off_c, 2, 62, 80
3, 74880, Note_on_c, 2, 66, 95
3, 75120, Note_off_c, 2, 66, 80
3, 75120, Note_on_c, 2, 66, 95
3, 75360, Note_off_c, 2, 66, 80
3, 75360, Note_on_c, 2, 64, 95
3, 75600, Note_off_c, 2, 64, 80
3, 75840, Note_on_c, 2, 62, 95
3, 76080, Note_off_c, 2, 62, 80
3, 76080, Note_on_c, 2, 64, 95
3, 76320, Note_off_c, 2, 64, 80
3, 77280, Note_on_c, 2, 66, 95
3, 77520, Note_off_c, 2, 66, 80
3, 77520, Note_on_c, 2, 64, 95
3, 77760, Note_off_c, 2, 64, 80
3, 78000, Note_on_c, 2, 62, 95
3, 78240, Note_off_c, 2, 62, 80
3, 78480, Note_on_c, 2, 62, 95
3, 78720, Note_off_c, 2, 62, 80
3, 78720, Note_on_c, 2, 61, 95
3, 78960, Note_off_c, 2, 61, 80
3, 78960, Note_on_c, 2, 61, 95
3, 79200, Note_off_c, 2, 61, 80
3, 79200, Note_on_c, 2, 61, 95
3, 79440, Note_off_c, 2, 61, 80
3, 79440, Note_on_c, 2, 61, 95
3, 79680, Note_off_c, 2, 61, 80
3, 79680, Note_on_c, 2, 62, 95
3, 80160, Note_off_c, 2, 62, 80
3, 80160, Note_on_c, 2, 64, 95
3, 80400, Note_off_c, 2, 64, 80
3, 81120, Note_on_c, 2, 66, 95
3, 81360, Note_off_c, 2, 66, 80
3, 81360, Note_on_c, 2, 64, 95
3, 81600, Note_off_c, 2, 64, 80
3, 81840, Note_on_c, 2, 62, 95
3, 82080, Note_off_c, 2, 62, 80
3, 82320, Note_on_c, 2, 62, 95
3, 82560, Note_off_c, 2, 62, 80
3, 82560, Note_on_c, 2, 66, 95
3, 82800, Note_off_c, 2, 66, 80
3, 82800, Note_on_c, 2, 66, 95
3, 83040, Note_off_c, 2, 66, 80
3, 83040, Note_on_c, 2, 64, 95
3, 83280, Note_off_c, 2, 64, 80
3, 83520, Note_on_c, 2, 62, 95
3, 83760, Note_off_c, 2, 62, 80
3, 83760, Note_on_c, 2, 64, 95
3, 84000, Note_off_c, 2, 64, 80
3, 84480, Control_c, 2, 7, 112
3, 84480, Control_c, 3, 7, 112
3, 84480, Note_on_c, 2, 66, 95
3, 84480, Note_on_c, 2, 62, 95
3, 84720, Note_off_c, 2, 66, 80
3, 84720, Note_off_c, 2, 62, 80
3, 84720, Note_on_c, 2, 66, 95
3, 84720, Note_on_c, 2, 62, 95
3, 84960, Note_off_c, 2, 66, 80
3, 84960, Note_off_c, 2, 62, 80
3, 84960, Note_on_c, 2, 66, 95
3, 84960, Note_on_c, 2, 62, 95
3, 85200, Note_off_c, 2, 66, 80
3, 85200, Note_off_c, 2, 62, 80
3, 85200, Note_on_c, 2, 66, 95
3, 85200, Note_on_c, 2, 62, 95
3, 85440, Note_off_c, 2, 66, 80
3, 85440, Note_off_c, 2, 62, 80
3, 85440, Note_on_c, 2, 66, 95
3, 85440, Note_on_c, 2, 62, 95
3, 85680, Note_off_c, 2, 66, 80
3, 85680, Note_off_c, 2, 62, 80
3, 85680, Note_on_c, 2, 66, 95
3, 85680, Note_on_c, 2, 62, 95
3, 85920, Note_off_c, 2, 66, 80
3, 85920, Note_off_c, 2, 62, 80
3, 85920, Note_on_c, 2, 66, 95
3, 85920, Note_on_c, 2, 62, 95
3, 86160, Note_off_c, 2, 66, 80
3, 86160, Note_off_c, 2, 62, 80
3, 86160, Note_on_c, 2, 66, 95
3, 86160, Note_on_c, 2, 62, 95
3, 86400, Note_off_c, 2, 66, 80
3, 86400, Note_off_c, 2, 62, 80
3, 86400, Note_on_c, 2, 67, 95
3, 86400, Note_on_c, 2, 62, 95
3, 86640, Note_off_c, 2, 67, 80
3, 86640, Note_off_c, 2, 62, 80
3, 86640, Note_on_c, 2, 67, 95
3, 86640, Note_on_c, 2, 62, 95
3, 86880, Note_off_c, 2, 67, 80
3, 86880, Note_off_c, 2, 62, 80
3, 86880, Note_on_c, 2, 67, 95
3, 86880, Note_on_c, 2, 62, 95
3, 87120, Note_off_c, 2, 67, 80
3, 87120, Note_off_c, 2, 62, 80
3, 87120, Note_on_c, 2, 67, 95
3, 87120, Note_on_c, 2, 62, 95
3, 87360, Note_off_c, 2, 67, 80
3, 87360, Note_off_c, 2, 62, 80
3, 87360, Note_on_c, 2, 67, 95
3, 87360, Note_on_c, 2, 62, 95
3, 87600, Note_off_c, 2, 67, 80
3, 87600, Note_off_c, 2, 62, 80
3, 87600, Note_on_c, 2, 67, 95
3, 87600, Note_on_c, 2, 62, 95
3, 87840, Note_off_c, 2, 67, 80
3, 87840, Note_off_c, 2, 62, 80
3, 87840, Note_on_c, 2, 67, 95
3, 87840, Note_on_c, 2, 62, 95
3, 88080, Note_off_c, 2, 67, 80
3, 88080, Note_off_c, 2, 62, 80
3, 88080, Note_on_c, 2, 67, 95
3, 88080, Note_on_c, 2, 62, 95
3, 88320, Note_off_c, 2, 67, 80
3, 88320, Note_off_c, 2, 62, 80
3, 88320, Note_on_c, 2, 64, 95
3, 88320, Note_on_c, 2, 61, 95
3, 88560, Note_off_c, 2, 64, 80
3, 88560, Note_off_c, 2, 61, 80
3, 88560, Note_on_c, 2, 64, 95
3, 88560, Note_on_c, 2, 61, 95
3, 88800, Note_off_c, 2, 64, 80
3, 88800, Note_off_c, 2, 61, 80
3, 88800, Note_on_c, 2, 64, 95
3, 88800, Note_on_c, 2, 61, 95
3, 89040, Note_off_c, 2, 64, 80
3, 89040, Note_off_c, 2, 61, 80
3, 89040, Note_on_c, 2, 64, 95
3, 89040, Note_on_c, 2, 61, 95
3, 89280, Note_off_c, 2, 64, 80
3, 89280, Note_off_c, 2, 61, 80
3, 89280, Note_on_c, 2, 64, 95
3, 89280, Note_on_c, 2, 61, 95
3, 89520, Note_off_c, 2, 64, 80
3, 89520, Note_off_c, 2, 61, 80
3, 89520, Note_on_c, 2, 64, 95
3, 89520, Note_on_c, 2, 61, 95
3, 89760, Note_off_c, 2, 64, 80
3, 89760, Note_off_c, 2, 61, 80
3, 89760, Note_on_c, 2, 64, 95
3, 89760, Note_on_c, 2, 61, 95
3, 90000, Note_off_c, 2, 64, 80
3, 90000, Note_off_c, 2, 61, 80
3, 90000, Note_on_c, 2, 64, 95
3, 90000, Note_on_c, 2, 61, 95
3, 90240, Note_off_c, 2, 64, 80
3, 90240, Note_off_c, 2, 61, 80
3, 90240, Note_on_c, 2, 74, 95
3, 90240, Note_on_c, 2, 69, 95
3, 90480, Note_off_c, 2, 74, 80
3, 90480, Note_off_c, 2, 69, 80
3, 90480, Note_on_c, 2, 74, 95
3, 90480, Note_on_c, 2, 69, 95
3, 90720, Note_off_c, 2, 74, 80
3, 90720, Note_off_c, 2, 69, 80
3, 90720, Note_on_c, 2, 74, 95
3, 90720, Note_on_c, 2, 69, 95
3, 90960, Note_off_c, 2, 74, 80
3, 90960, Note_off_c, 2, 69, 80
3, 90960, Note_on_c, 2, 74, 95
3, 90960, Note_on_c, 2, 69, 95
3, 91200, Note_off_c, 2, 74, 80
3, 91200, Note_off_c, 2, 69, 80
3, 91200, Note_on_c, 2, 74, 95
3, 91200, Note_on_c, 2, 69, 95
3, 91440, Note_off_c, 2, 74, 80
3, 91440, Note_off_c, 2, 69, 80
3, 91440, Note_on_c, 2, 74, 95
3, 91440, Note_on_c, 2, 69, 95
3, 91680, Note_off_c, 2, 74, 80
3, 91680, Note_off_c, 2, 69, 80
3, 91680, Note_on_c, 2, 74, 95
3, 91680, Note_on_c, 2, 69, 95
3, 91920, Note_off_c, 2, 74, 80
3, 91920, Note_off_c, 2, 69, 80
3, 91920, Note_on_c, 2, 74, 95
3, 91920, Note_on_c, 2, 69, 95
3, 92160, Note_off_c, 2, 74, 80
3, 92160, Note_off_c, 2, 69, 80
3, 92160, Control_c, 2, 7, 127
3, 92160, Control_c, 3, 7, 127
3, 92160, Note_on_c, 2, 43, 95
3, 92640, Note_off_c, 2, 43, 80
3, 92640, Note_on_c, 2, 47, 95
3, 92880, Note_off_c, 2, 47, 80
3, 92880, Note_on_c, 2, 45, 95
3, 93120, Note_off_c, 2, 45, 80
3, 93120, Note_on_c, 2, 45, 95
3, 93360, Note_off_c, 2, 45, 80
3, 93360, Note_on_c, 2, 49, 95
3, 93600, Note_off_c, 2, 49, 80
3, 93600, Note_on_c, 2, 50, 95
3, 93840, Note_off_c, 2, 50, 80
3, 93840, Note_on_c, 2, 52, 95
3, 94080, Note_off_c, 2, 52, 80
3, 94080, Note_on_c, 2, 50, 95
3, 94560, Note_off_c, 2, 50, 80
3, 94560, Note_on_c, 2, 50, 95
3, 94800, Note_off_c, 2, 50, 80
3, 94800, Note_on_c, 2, 50, 95
3, 95040, Note_off_c, 2, 50, 80
3, 95040, Note_on_c, 2, 54, 95
3, 95280, Note_off_c, 2, 54, 80
3, 95280, Note_on_c, 2, 54, 95
3, 95520, Note_off_c, 2, 54, 80
3, 95520, Note_on_c, 2, 55, 95
3, 95760, Note_off_c, 2, 55, 80
3, 95760, Note_on_c, 2, 45, 95
3, 96000, Note_off_c, 2, 45, 80
3, 96000, Note_on_c, 2, 43, 95
3, 96480, Note_off_c, 2, 43, 80
3, 96480, Note_on_c, 2, 47, 95
3, 96720, Note_off_c, 2, 47, 80
3, 96720, Note_on_c, 2, 45, 95
3, 96960, Note_off_c, 2, 45, 80
3, 96960, Note_on_c, 2, 45, 95
3, 97200, Note_off_c, 2, 45, 80
3, 97200, Note_on_c, 2, 49, 95
3, 97440, Note_off_c, 2, 49, 80
3, 97440, Note_on_c, 2, 50, 95
3, 97680, Note_off_c, 2, 50, 80
3, 97680, Note_on_c, 2, 52, 95
3, 97920, Note_off_c, 2, 52, 80
3, 97920, Note_on_c, 2, 50, 95
3, 98400, Note_off_c, 2, 50, 80
3, 98400, Note_on_c, 2, 50, 95
3, 98640, Note_off_c, 2, 50, 80
3, 98640, Note_on_c, 2, 50, 95
3, 98880, Note_off_c, 2, 50, 80
3, 98880, Note_on_c, 2, 54, 95
3, 99120, Note_off_c, 2, 54, 80
3, 99120, Note_on_c, 2, 54, 95
3, 99360, Note_off_c, 2, 54, 80
3, 99360, Note_on_c, 2, 55, 95
3, 99600, Note_off_c, 2, 55, 80
3, 99600, Note_on_c, 2, 45, 95
3, 99840, Note_off_c, 2, 45, 80
3, 99840, Note_on_c, 2, 43, 95
3, 100320, Note_off_c, 2, 43, 80
3, 100320, Note_on_c, 2, 47, 95
3, 100560, Note_off_c, 2, 47, 80
3, 100560, Note_on_c, 2, 45, 95
3, 100800, Note_off_c, 2, 45, 80
3, 100800, Note_on_c, 2, 45, 95
3, 101040, Note_off_c, 2, 45, 80
3, 101040, Note_on_c, 2, 49, 95
3, 101280, Note_off_c, 2, 49, 80
3, 101280, Note_on_c, 2, 50, 95
3, 101520, Note_off_c, 2, 50, 80
3, 101520, Note_on_c, 2, 52, 95
3, 101760, Note_off_c, 2, 52, 80
3, 101760, Note_on_c, 2, 50, 95
3, 102240, Note_off_c, 2, 50, 80
3, 102240, Note_on_c, 2, 50, 95
3, 102480, Note_off_c, 2, 50, 80
3, 102480, Note_on_c, 2, 50, 95
3, 102720, Note_off_c, 2, 50, 80
3, 102720, Note_on_c, 2, 54, 95
3, 102960, Note_off_c, 2, 54, 80
3, 102960, Note_on_c, 2, 54, 95
3, 103200, Note_off_c, 2, 54, 80
3, 103200, Note_on_c, 2, 55, 95
3, 103440, Note_off_c, 2, 55, 80
3, 103440, Note_on_c, 2, 45, 95
3, 103680, Note_off_c, 2, 45, 80
3, 103680, Note_on_c, 2, 43, 95
3, 104160, Note_off_c, 2, 43, 80
3, 104160, Note_on_c, 2, 47, 95
3, 104400, Note_off_c, 2, 47, 80
3, 104400, Note_on_c, 2, 45, 95
3, 104640, Note_off_c, 2, 45, 80
3, 104640, Note_on_c, 2, 45, 95
3, 104880, Note_off_c, 2, 45, 80
3, 104880, Note_on_c, 2, 49, 95
3, 105120, Note_off_c, 2, 49, 80
3, 105120, Note_on_c, 2, 50, 95
3, 105360, Note_off_c, 2, 50, 80
3, 105360, Note_on_c, 2, 52, 95
3, 105600, Note_off_c, 2, 52, 80
3, 105840, Note_on_c, 2, 69, 95
3, 105840, Note_on_c, 2, 62, 95
3, 106080, Note_off_c, 2, 69, 80
3, 106080, Note_off_c, 2, 62, 80
3, 106080, Note_on_c, 2, 69, 95
3, 106080, Note_on_c, 2, 62, 95
3, 106320, Note_off_c, 2, 69, 80
3, 106320, Note_off_c, 2, 62, 80
3, 106320, Note_on_c, 2, 69, 95
3, 106320, Note_on_c, 2, 62, 95
3, 106560, Note_off_c, 2, 69, 80
3, 106560, Note_off_c, 2, 62, 80
3, 106560, Note_on_c, 2, 69, 95
3, 106560, Note_on_c, 2, 62, 95
3, 106800, Note_off_c, 2, 69, 80
3, 106800, Note_off_c, 2, 62, 80
3, 106800, Note_on_c, 2, 69, 95
3, 106800, Note_on_c, 2, 62, 95
3, 107040, Note_off_c, 2, 69, 80
3, 107040, Note_off_c, 2, 62, 80
3, 107040, Note_on_c, 2, 69, 95
3, 107040, Note_on_c, 2, 62, 95
3, 107280, Note_off_c, 2, 69, 80
3, 107280, Note_off_c, 2, 62, 80
3, 107280, Note_on_c, 2, 69, 95
3, 107280, Note_on_c, 2, 62, 95
3, 107520, Note_off_c, 2, 62, 80
3, 107760, Note_off_c, 2, 69, 80
3, 107760, Note_on_c, 2, 64, 95
3, 108000, Note_off_c, 2, 64, 80
3, 108000, Note_on_c, 2, 69, 95
3, 108240, Note_off_c, 2, 69, 80
3, 108240, Note_on_c, 2, 64, 95
3, 108480, Note_off_c, 2, 64, 80
3, 108480, Note_on_c, 2, 71, 95
3, 108720, Note_off_c, 2, 71, 80
3, 108720, Note_on_c, 2, 69, 95
3, 108960, Note_off_c, 2, 69, 80
3, 108960, Note_on_c, 2, 69, 95
3, 108960, Note_on_c, 2, 64, 95
3, 109200, Note_off_c, 2, 69, 80
3, 109200, Note_off_c, 2, 64, 80
3, 109200, Note_on_c, 2, 69, 95
3, 109200, Note_on_c, 2, 64, 95
3, 109440, Note_off_c, 2, 69, 80
3, 109440, Note_off_c, 2, 64, 80
3, 109680, Note_on_c, 2, 67, 95
3, 109680, Note_on_c, 2, 59, 95
3, 109920, Note_off_c, 2, 67, 80
3, 109920, Note_off_c, 2, 59, 80
3, 109920, Note_on_c, 2, 67, 95
3, 109920, Note_on_c, 2, 59, 95
3, 110160, Note_off_c, 2, 67, 80
3, 110160, Note_off_c, 2, 59, 80
3, 110160, Note_on_c, 2, 67, 95
3, 110160, Note_on_c, 2, 59, 95
3, 110400, Note_off_c, 2, 67, 80
3, 110400, Note_off_c, 2, 59, 80
3, 110400, Note_on_c, 2, 67, 95
3, 110400, Note_on_c, 2, 59, 95
3, 110640, Note_off_c, 2, 67, 80
3, 110640, Note_off_c, 2, 59, 80
3, 110640, Note_on_c, 2, 67, 95
3, 110640, Note_on_c, 2, 59, 95
3, 110880, Note_off_c, 2, 67, 80
3, 110880, Note_off_c, 2, 59, 80
3, 110880, Note_on_c, 2, 67, 95
3, 110880, Note_on_c, 2, 59, 95
3, 111120, Note_off_c, 2, 67, 80
3, 111120, Note_off_c, 2, 59, 80
3, 111120, Note_on_c, 2, 67, 95
3, 111120, Note_on_c, 2, 59, 95
3, 111360, Note_off_c, 2, 59, 80
3, 111600, Note_off_c, 2, 67, 80
3, 111600, Note_on_c, 2, 67, 95
3, 111600, Note_on_c, 2, 62, 95
3, 111840, Note_off_c, 2, 67, 80
3, 111840, Note_off_c, 2, 62, 80
3, 111840, Note_on_c, 2, 67, 95
3, 111840, Note_on_c, 2, 62, 95
3, 112080, Note_off_c, 2, 67, 80
3, 112080, Note_off_c, 2, 62, 80
3, 112080, Note_on_c, 2, 67, 95
3, 112080, Note_on_c, 2, 62, 95
3, 112320, Note_off_c, 2, 67, 80
3, 112320, Note_off_c, 2, 62, 80
3, 112320, Note_on_c, 2, 67, 95
3, 112320, Note_on_c, 2, 62, 95
3, 112560, Note_off_c, 2, 67, 80
3, 112560, Note_off_c, 2, 62, 80
3, 112560, Note_on_c, 2, 67, 95
3, 112560, Note_on_c, 2, 62, 95
3, 112800, Note_off_c, 2, 67, 80
3, 112800, Note_off_c, 2, 62, 80
3, 112800, Note_on_c, 2, 67, 95
3, 112800, Note_on_c, 2, 62, 95
3, 113040, Note_off_c, 2, 67, 80
3, 113040, Note_off_c, 2, 62, 80
3, 113040, Note_on_c, 2, 67, 95
3, 113040, Note_on_c, 2, 62, 95
3, 113280, Note_off_c, 2, 67, 80
3, 113280, Note_off_c, 2, 62, 80
3, 113520, Note_on_c, 2, 69, 95
3, 113520, Note_on_c, 2, 62, 95
3, 113760, Note_off_c, 2, 69, 80
3, 113760, Note_off_c, 2, 62, 80
3, 113760, Note_on_c, 2, 69, 95
3, 113760, Note_on_c, 2, 62, 95
3, 114000, Note_off_c, 2, 69, 80
3, 114000, Note_off_c, 2, 62, 80
3, 114000, Note_on_c, 2, 69, 95
3, 114000, Note_on_c, 2, 62, 95
3, 114240, Note_off_c, 2, 69, 80
3, 114240, Note_off_c, 2, 62, 80
3, 114240, Note_on_c, 2, 69, 95
3, 114240, Note_on_c, 2, 62, 95
3, 114480, Note_off_c, 2, 69, 80
3, 114480, Note_off_c, 2, 62, 80
3, 114480, Note_on_c, 2, 69, 95
3, 114480, Note_on_c, 2, 62, 95
3, 114720, Note_off_c, 2, 69, 80
3, 114720, Note_off_c, 2, 62, 80
3, 114720, Note_on_c, 2, 69, 95
3, 114720, Note_on_c, 2, 62, 95
3, 114960, Note_off_c, 2, 69, 80
3, 114960, Note_off_c, 2, 62, 80
3, 114960, Note_on_c, 2, 69, 95
3, 114960, Note_on_c, 2, 62, 95
3, 115200, Note_off_c, 2, 62, 80
3, 115440, Note_off_c, 2, 69, 80
3, 115440, Note_on_c, 2, 64, 95
3, 115680, Note_off_c, 2, 64, 80
3, 115680, Note_on_c, 2, 69, 95
3, 115920, Note_off_c, 2, 69, 80
3, 115920, Note_on_c, 2, 64, 95
3, 116160, Note_off_c, 2, 64, 80
3, 116160, Note_on_c, 2, 71, 95
3, 116400, Note_off_c, 2, 71, 80
3, 116400, Note_on_c, 2, 69, 95
3, 116640, Note_off_c, 2, 69, 80
3, 116640, Note_on_c, 2, 69, 95
3, 116640, Note_on_c, 2, 64, 95
3, 116880, Note_off_c, 2, 69, 80
3, 116880, Note_off_c, 2, 64, 80
3, 116880, Note_on_c, 2, 69, 95
3, 116880, Note_on_c, 2, 64, 95
3, 117120, Note_off_c, 2, 69, 80
3, 117120, Note_off_c, 2, 64, 80
3, 117360, Note_on_c, 2, 67, 95
3, 117360, Note_on_c, 2, 59, 95
3, 117600, Note_off_c, 2, 67, 80
3, 117600, Note_off_c, 2, 59, 80
3, 117600, Note_on_c, 2, 67, 95
3, 117600, Note_on_c, 2, 59, 95
3, 117840, Note_off_c, 2, 67, 80
3, 117840, Note_off_c, 2, 59, 80
3, 117840, Note_on_c, 2, 67, 95
3, 117840, Note_on_c, 2, 59, 95
3, 118080, Note_off_c, 2, 67, 80
3, 118080, Note_off_c, 2, 59, 80
3, 118080, Note_on_c, 2, 67, 95
3, 118080, Note_on_c, 2, 59, 95
3, 118320, Note_off_c, 2, 67, 80
3, 118320, Note_off_c, 2, 59, 80
3, 118320, Note_on_c, 2, 67, 95
3, 118320, Note_on_c, 2, 59, 95
3, 118560, Note_off_c, 2, 67, 80
3, 118560, Note_off_c, 2, 59, 80
3, 118560, Note_on_c, 2, 67, 95
3, 118560, Note_on_c, 2, 59, 95
3, 118800, Note_off_c, 2, 67, 80
3, 118800, Note_off_c, 2, 59, 80
3, 118800, Note_on_c, 2, 67, 95
3, 118800, Note_on_c, 2, 59, 95
3, 119040, Note_off_c, 2, 59, 80
3, 119280, Note_off_c, 2, 67, 80
3, 119280, Note_on_c, 2, 67, 95
3, 119280, Note_on_c, 2, 62, 95
3, 119520, Note_off_c, 2, 67, 80
3, 119520, Note_off_c, 2, 62, 80
3, 119520, Note_on_c, 2, 67, 95
3, 119520, Note_on_c, 2, 62, 95
3, 119760, Note_off_c, 2, 67, 80
3, 119760, Note_off_c, 2, 62, 80
3, 119760, Note_on_c, 2, 67, 95
3, 119760, Note_on_c, 2, 62, 95
3, 120000, Note_off_c, 2, 67, 80
3, 120000, Note_off_c, 2, 62, 80
3, 120000, Note_on_c, 2, 67, 95
3, 120000, Note_on_c, 2, 62, 95
3, 120240, Note_off_c, 2, 67, 80
3, 120240, Note_off_c, 2, 62, 80
3, 120240, Note_on_c, 2, 67, 95
3, 120240, Note_on_c, 2, 62, 95
3, 120480, Note_off_c, 2, 67, 80
3, 120480, Note_off_c, 2, 62, 80
3, 120480, Note_on_c, 2, 67, 95
3, 120480, Note_on_c, 2, 62, 95
3, 120720, Note_off_c, 2, 67, 80
3, 120720, Note_off_c, 2, 62, 80
3, 120720, Note_on_c, 2, 67, 95
3, 120720, Note_on_c, 2, 62, 95
3, 120960, Note_off_c, 2, 67, 80
3, 120960, Note_off_c, 2, 62, 80
3, 121200, Note_on_c, 2, 69, 95
3, 121200, Note_on_c, 2, 62, 95
3, 121440, Note_off_c, 2, 69, 80
3, 121440, Note_off_c, 2, 62, 80
3, 121440, Note_on_c, 2, 69, 95
3, 121440, Note_on_c, 2, 62, 95
3, 121680, Note_off_c, 2, 69, 80
3, 121680, Note_off_c, 2, 62, 80
3, 121680, Note_on_c, 2, 69, 95
3, 121680, Note_on_c, 2, 62, 95
3, 121920, Note_off_c, 2, 69, 80
3, 121920, Note_off_c, 2, 62, 80
3, 121920, Note_on_c, 2, 69, 95
3, 121920, Note_on_c, 2, 62, 95
3, 122160, Note_off_c, 2, 69, 80
3, 122160, Note_off_c, 2, 62, 80
3, 122160, Note_on_c, 2, 69, 95
3, 122160, Note_on_c, 2, 62, 95
3, 122400, Note_off_c, 2, 69, 80
3, 122400, Note_off_c, 2, 62, 80
3, 122400, Note_on_c, 2, 69, 95
3, 122400, Note_on_c, 2, 62, 95
3, 122640, Note_off_c, 2, 69, 80
3, 122640, Note_off_c, 2, 62, 80
3, 122640, Note_on_c, 2, 69, 95
3, 122640, Note_on_c, 2, 62, 95
3, 122880, Note_off_c, 2, 62, 80
3, 123120, Note_off_c, 2, 69, 80
3, 123120, Note_on_c, 2, 64, 95
3, 123360, Note_off_c, 2, 64, 80
3, 123360, Note_on_c, 2, 69, 95
3, 123600, Note_off_c, 2, 69, 80
3, 123600, Note_on_c, 2, 64, 95
3, 123840, Note_off_c, 2, 64, 80
3, 123840, Note_on_c, 2, 71, 95
3, 124080, Note_off_c, 2, 71, 80
3, 124080, Note_on_c, 2, 69, 95
3, 124320, Note_off_c, 2, 69, 80
3, 124320, Note_on_c, 2, 69, 95
3, 124320, Note_on_c, 2, 64, 95
3, 124560, Note_off_c, 2, 69, 80
3, 124560, Note_off_c, 2, 64, 80
3, 124560, Note_on_c, 2, 69, 95
3, 124560, Note_on_c, 2, 64, 95
3, 124800, Note_off_c, 2, 69, 80
3, 124800, Note_off_c, 2, 64, 80
3, 124800, Note_on_c, 2, 67, 95
3, 124800, Note_on_c, 3, 65, 95
3, 124800, Pitch_bend_c, 3, 8192
3, 124832, Pitch_bend_c, 3, 8320
3, 124848, Pitch_bend_c, 3, 8448
3, 124864, Pitch_bend_c, 3, 8704
3, 124880, Pitch_bend_c, 3, 8960
3, 124896, Pitch_bend_c, 3, 9344
3, 124912, Pitch_bend_c, 3, 9472
3, 124928, Pitch_bend_c, 3, 9600
3, 125280, Note_off_c, 2, 67, 80
3, 125280, Note_off_c, 3, 65, 80
3, 125280, Pitch_bend_c, 3, 8192
3, 125280, Note_on_c, 2, 67, 95
3, 125520, Note_off_c, 2, 67, 80
3, 125520, Note_on_c, 2, 67, 95
3, 125760, Note_off_c, 2, 67, 80
3, 125760, Note_on_c, 2, 67, 95
3, 126000, Note_off_c, 2, 67, 80
3, 126000, Note_on_c, 2, 67, 95
3, 126240, Note_off_c, 2, 67, 80
3, 126240, Note_on_c, 2, 67, 95
3, 126480, Note_off_c, 2, 67, 80
3, 126480, Note_on_c, 2, 67, 95
3, 126720, Note_off_c, 2, 67, 80
3, 126720, Note_on_c, 2, 66, 95
3, 126720, Note_on_c, 3, 64, 95
3, 126720, Pitch_bend_c, 3, 8192
3, 126736, Pitch_bend_c, 3, 8704
3, 126752, Pitch_bend_c, 3, 9600
3, 126960, Note_off_c, 2, 66, 80
3, 126960, Note_off_c, 3, 64, 80
3, 126960, Pitch_bend_c, 3, 8192
3, 126960, Note_on_c, 2, 66, 95
3, 127200, Note_off_c, 2, 66, 80
3, 127200, Note_on_c, 2, 66, 95
3, 127440, Note_off_c, 2, 66, 80
3, 127440, Note_on_c, 2, 66, 95
3, 127680, Note_off_c, 2, 66, 80
3, 127680, Note_on_c, 2, 66, 95
3, 127920, Note_off_c, 2, 66, 80
3, 127920, Note_on_c, 2, 66, 95
3, 128160, Note_off_c, 2, 66, 80
3, 128160, Note_on_c, 2, 66, 95
3, 128400, Note_off_c, 2, 66, 80
3, 128400, Note_on_c, 2, 66, 95
3, 128640, Note_off_c, 2, 66, 80
3, 128640, Note_on_c, 2, 69, 95
3, 128640, Note_on_c, 3, 67, 95
3, 128640, Pitch_bend_c, 3, 8192
3, 128688, Pitch_bend_c, 3, 8320
3, 128736, Pitch_bend_c, 3, 8448
3, 128752, Pitch_bend_c, 3, 8576
3, 128784, Pitch_bend_c, 3, 8704
3, 128800, Pitch_bend_c, 3, 8960
3, 128816, Pitch_bend_c, 3, 9088
3, 128848, Pitch_bend_c, 3, 9344
3, 128880, Note_off_c, 2, 69, 80
3, 128880, Pitch_bend_c, 3, 9472
3, 128880, Note_on_c, 2, 69, 95
3, 128896, Pitch_bend_c, 3, 9600
3, 129120, Note_off_c, 2, 69, 80
3, 129120, Note_on_c, 2, 69, 95
3, 129360, Note_off_c, 2, 69, 80
3, 129360, Note_on_c, 2, 69, 95
3, 129600, Note_off_c, 3, 67, 80
3, 129600, Pitch_bend_c, 3, 8192
3, 129600, Note_off_c, 2, 69, 80
3, 129600, Note_on_c, 2, 69, 95
3, 129600, Note_on_c, 3, 67, 95
3, 129600, Pitch_bend_c, 3, 8192
3, 129648, Pitch_bend_c, 3, 8320
3, 129696, Pitch_bend_c, 3, 8448
3, 129712, Pitch_bend_c, 3, 8576
3, 129728, Pitch_bend_c, 3, 8704
3, 129744, Pitch_bend_c, 3, 8832
3, 129760, Pitch_bend_c, 3, 8960
3, 129776, Pitch_bend_c, 3, 9088
3, 129792, Pitch_bend_c, 3, 9344
3, 129824, Pitch_bend_c, 3, 9472
3, 129840, Note_off_c, 2, 69, 80
3, 129840, Pitch_bend_c, 3, 9600
3, 129840, Note_on_c, 2, 69, 95
3, 130080, Note_off_c, 2, 69, 80
3, 130080, Note_on_c, 2, 69, 95
3, 130320, Note_off_c, 2, 69, 80
3, 130320, Note_on_c, 2, 69, 95
3, 130560, Note_off_c, 3, 67, 80
3, 130560, Pitch_bend_c, 3, 8192
3, 130560, Note_off_c, 2, 69, 80
3, 130560, Note_on_c, 2, 69, 95
3, 130560, Note_on_c, 3, 67, 95
3, 130560, Pitch_bend_c, 3, 8192
3, 130608, Pitch_bend_c, 3, 8320
3, 130656, Pitch_bend_c, 3, 8448
3, 130672, Pitch_bend_c, 3, 8576
3, 130704, Pitch_bend_c, 3, 8704
3, 130720, Pitch_bend_c, 3, 8960
3, 130736, Pitch_bend_c, 3, 9088
3, 130768, Pitch_bend_c, 3, 9344
3, 130800, Note_off_c, 2, 69, 80
3, 130800, Pitch_bend_c, 3, 9472
3, 130800, Note_on_c, 2, 69, 95
3, 130816, Pitch_bend_c, 3, 9600
3, 131040, Note_off_c, 2, 69, 80
3, 131040, Note_on_c, 2, 69, 95
3, 131280, Note_off_c, 2, 69, 80
3, 131280, Note_on_c, 2, 69, 95
3, 131520, Note_off_c, 3, 67, 80
3, 131520, Pitch_bend_c, 3, 8192
3, 131520, Note_off_c, 2, 69, 80
3, 131520, Note_on_c, 2, 69, 95
3, 131520, Note_on_c, 3, 67, 95
3, 131520, Pitch_bend_c, 3, 8192
3, 131568, Pitch_bend_c, 3, 8320
3, 131616, Pitch_bend_c, 3, 8448
3, 131632, Pitch_bend_c, 3, 8576
3, 131648, Pitch_bend_c, 3, 8704
3, 131664, Pitch_bend_c, 3, 8832
3, 131680, Pitch_bend_c, 3, 8960
3, 131696, Pitch_bend_c, 3, 9088
3, 131712, Pitch_bend_c, 3, 9344
3, 131744, Pitch_bend_c, 3, 9472
3, 131760, Note_off_c, 2, 69, 80
3, 131760, Pitch_bend_c, 3, 9600
3, 131760, Note_on_c, 2, 69, 95
3, 132000, Note_off_c, 2, 69, 80
3, 132000, Note_on_c, 2, 69, 95
3, 132240, Note_off_c, 2, 69, 80
3, 132240, Note_on_c, 2, 69, 95
3, 132480, Note_off_c, 3, 67, 80
3, 132480, Pitch_bend_c, 3, 8192
3, 132480, Note_off_c, 2, 69, 80
3, 132480, Note_on_c, 2, 67, 95
3, 132480, Note_on_c, 3, 65, 95
3, 132480, Pitch_bend_c, 3, 8192
3, 132512, Pitch_bend_c, 3, 8320
3, 132528, Pitch_bend_c, 3, 8576
3, 132544, Pitch_bend_c, 3, 8704
3, 132560, Pitch_bend_c, 3, 9088
3, 132576, Pitch_bend_c, 3, 9344
3, 132592, Pitch_bend_c, 3, 9600
3, 132720, Note_off_c, 2, 67, 80
3, 132720, Note_on_c, 2, 67, 95
3, 132960, Note_off_c, 2, 67, 80
3, 132960, Note_on_c, 2, 67, 95
3, 133200, Note_off_c, 2, 67, 80
3, 133200, Note_on_c, 2, 67, 95
3, 133440, Note_off_c, 3, 65, 80
3, 133440, Pitch_bend_c, 3, 8192
3, 133440, Note_off_c, 2, 67, 80
3, 133440, Note_on_c, 2, 67, 95
3, 133440, Note_on_c, 3, 65, 95
3, 133440, Pitch_bend_c, 3, 8192
3, 133488, Pitch_bend_c, 3, 8320
3, 133536, Pitch_bend_c, 3, 8448
3, 133552, Pitch_bend_c, 3, 8576
3, 133568, Pitch_bend_c, 3, 8704
3, 133584, Pitch_bend_c, 3, 8832
3, 133600, Pitch_bend_c, 3, 8960
3, 133616, Pitch_bend_c, 3, 9088
3, 133632, Pitch_bend_c, 3, 9344
3, 133664, Pitch_bend_c, 3, 9472
3, 133680, Note_off_c, 2, 67, 80
3, 133680, Pitch_bend_c, 3, 9600
3, 133680, Note_on_c, 2, 67, 95
3, 133920, Note_off_c, 2, 67, 80
3, 133920, Note_on_c, 2, 67, 95
3, 134160, Note_off_c, 2, 67, 80
3, 134160, Note_on_c, 2, 67, 95
3, 134400, Note_off_c, 3, 65, 80
3, 134400, Pitch_bend_c, 3, 8192
3, 134400, Note_off_c, 2, 67, 80
3, 134400, Note_on_c, 2, 66, 95
3, 134400, Note_on_c, 3, 64, 95
3, 134400, Pitch_bend_c, 3, 8192
3, 134432, Pitch_bend_c, 3, 8320
3, 134448, Pitch_bend_c, 3, 8576
3, 134464, Pitch_bend_c, 3, 8704
3, 134480, Pitch_bend_c, 3, 9088
3, 134496, Pitch_bend_c, 3, 9344
3, 134512, Pitch_bend_c, 3, 9600
3, 134640, Note_off_c, 2, 66, 80
3, 134640, Note_on_c, 2, 66, 95
3, 134880, Note_off_c, 2, 66, 80
3, 134880, Note_on_c, 2, 66, 95
3, 135120, Note_off_c, 2, 66, 80
3, 135120, Note_on_c, 2, 66, 95
3, 135360, Note_off_c, 3, 64, 80
3, 135360, Pitch_bend_c, 3, 8192
3, 135360, Note_off_c, 2, 66, 80
3, 135360, Note_on_c, 2, 66, 95
3, 135360, Note_on_c, 3, 64, 95
3, 135360, Pitch_bend_c, 3, 8192
3, 135408, Pitch_bend_c, 3, 8320
3, 135456, Pitch_bend_c, 3, 8448
3, 135472, Pitch_bend_c, 3, 8576
3, 135488, Pitch_bend_c, 3, 8704
3, 135504, Pitch_bend_c, 3, 8832
3, 135520, Pitch_bend_c, 3, 8960
3, 135536, Pitch_bend_c, 3, 9088
3, 135552, Pitch_bend_c, 3, 9344
3, 135584, Pitch_bend_c, 3, 9472
3, 135600, Note_off_c, 2, 66, 80
3, 135600, Pitch_bend_c, 3, 9600
3, 135600, Note_on_c, 2, 66, 95
3, 135840, Note_off_c, 2, 66, 80
3, 135840, Note_on_c, 2, 66, 95
3, 136080, Note_off_c, 2, 66, 80
3, 136080, Note_on_c, 2, 66, 95
3, 136320, Note_off_c, 3, 64, 80
3, 136320, Pitch_bend_c, 3, 8192
3, 136320, Note_off_c, 2, 66, 80
3, 136320, Control_c, 2, 7, 112
3, 136320, Control_c, 3, 7, 112
3, 136320, Note_on_c, 2, 66, 95
3, 136320, Note_on_c, 2, 62, 95
3, 136560, Note_off_c, 2, 66, 80
3, 136560, Note_off_c, 2, 62, 80
3, 136560, Note_on_c, 2, 66, 95
3, 136560, Note_on_c, 2, 62, 95
3, 136800, Note_off_c, 2, 66, 80
3, 136800, Note_off_c, 2, 62, 80
3, 136800, Note_on_c, 2, 66, 95
3, 136800, Note_on_c, 2, 62, 95
3, 137040, Note_off_c, 2, 66, 80
3, 137040, Note_off_c, 2, 62, 80
3, 137040, Note_on_c, 2, 66, 95
3, 137040, Note_on_c, 2, 62, 95
3, 137280, Note_off_c, 2, 66, 80
3, 137280, Note_off_c, 2, 62, 80
3, 137280, Note_on_c, 2, 66, 95
3, 137280, Note_on_c, 2, 62, 95
3, 137520, Note_off_c, 2, 66, 80
3, 137520, Note_off_c, 2, 62, 80
3, 137520, Note_on_c, 2, 66, 95
3, 137520, Note_on_c, 2, 62, 95
3, 137760, Note_off_c, 2, 66, 80
3, 137760, Note_off_c, 2, 62, 80
3, 137760, Note_on_c, 2, 66, 95
3, 137760, Note_on_c, 2, 62, 95
3, 138000, Note_off_c, 2, 66, 80
3, 138000, Note_off_c, 2, 62, 80
3, 138000, Note_on_c, 2, 66, 95
3, 138000, Note_on_c, 2, 62, 95
3, 138240, Note_off_c, 2, 66, 80
3, 138240, Note_off_c, 2, 62, 80
3, 138240, Note_on_c, 2, 66, 95
3, 138240, Note_on_c, 2, 62, 95
3, 138480, Note_off_c, 2, 66, 80
3, 138480, Note_off_c, 2, 62, 80
3, 138480, Note_on_c, 2, 66, 95
3, 138480, Note_on_c, 2, 62, 95
3, 138720, Note_off_c, 2, 66, 80
3, 138720, Note_off_c, 2, 62, 80
3, 138720, Note_on_c, 2, 66, 95
3, 138720, Note_on_c, 2, 62, 95
3, 138960, Note_off_c, 2, 66, 80
3, 138960, Note_off_c, 2, 62, 80
3, 138960, Note_on_c, 2, 66, 95
3, 138960, Note_on_c, 2, 62, 95
3, 139200, Note_off_c, 2, 66, 80
3, 139200, Note_off_c, 2, 62, 80
3, 139200, Note_on_c, 2, 66, 95
3, 139200, Note_on_c, 2, 62, 95
3, 139440, Note_off_c, 2, 66, 80
3, 139440, Note_off_c, 2, 62, 80
3, 139440, Note_on_c, 2, 66, 95
3, 139440, Note_on_c, 2, 62, 95
3, 139680, Note_off_c, 2, 66, 80
3, 139680, Note_off_c, 2, 62, 80
3, 139680, Note_on_c, 2, 66, 95
3, 139680, Note_on_c, 2, 62, 95
3, 139920, Note_off_c, 2, 66, 80
3, 139920, Note_off_c, 2, 62, 80
3, 139920, Note_on_c, 2, 66, 95
3, 139920, Note_on_c, 2, 62, 95
3, 140160, Note_off_c, 2, 66, 80
3, 140160, Note_off_c, 2, 62, 80
3, 140160, Note_on_c, 2, 64, 95
3, 140160, Note_on_c, 2, 61, 95
3, 140400, Note_off_c, 2, 64, 80
3, 140400, Note_off_c, 2, 61, 80
3, 140400, Note_on_c, 2, 64, 95
3, 140400, Note_on_c, 2, 61, 95
3, 140640, Note_off_c, 2, 64, 80
3, 140640, Note_off_c, 2, 61, 80
3, 140640, Note_on_c, 2, 64, 95
3, 140640, Note_on_c, 2, 61, 95
3, 140880, Note_off_c, 2, 64, 80
3, 140880, Note_off_c, 2, 61, 80
3, 140880, Note_on_c, 2, 64, 95
3, 140880, Note_on_c, 2, 61, 95
3, 141120, Note_off_c, 2, 64, 80
3, 141120, Note_off_c, 2, 61, 80
3, 141120, Note_on_c, 2, 64, 95
3, 141120, Note_on_c, 2, 61, 95
3, 141360, Note_off_c, 2, 64, 80
3, 141360, Note_off_c, 2, 61, 80
3, 141360, Note_on_c, 2, 64, 95
3, 141360, Note_on_c, 2, 61, 95
3, 141600, Note_off_c, 2, 64, 80
3, 141600, Note_off_c, 2, 61, 80
3, 141600, Note_on_c, 2, 64, 95
3, 141600, Note_on_c, 2, 61, 95
3, 141840, Note_off_c, 2, 64, 80
3, 141840, Note_off_c, 2, 61, 80
3, 141840, Note_on_c, 2, 64, 95
3, 141840, Note_on_c, 2, 61, 95
3, 142080, Note_off_c, 2, 64, 80
3, 142080, Note_off_c, 2, 61, 80
3, 142080, Note_on_c, 2, 74, 95
3, 142080, Note_on_c, 2, 69, 95
3, 142320, Note_off_c, 2, 74, 80
3, 142320, Note_off_c, 2, 69, 80
3, 142320, Note_on_c, 2, 74, 95
3, 142320, Note_on_c, 2, 69, 95
3, 142560, Note_off_c, 2, 74, 80
3, 142560, Note_off_c, 2, 69, 80
3, 142560, Note_on_c, 2, 74, 95
3, 142560, Note_on_c, 2, 69, 95
3, 142800, Note_off_c, 2, 74, 80
3, 142800, Note_off_c, 2, 69, 80
3, 142800, Note_on_c, 2, 74, 95
3, 142800, Note_on_c, 2, 69, 95
3, 143040, Note_off_c, 2, 74, 80
3, 143040, Note_off_c, 2, 69, 80
3, 143040, Note_on_c, 2, 74, 95
3, 143040, Note_on_c, 2, 69, 95
3, 143280, Note_off_c, 2, 74, 80
3, 143280, Note_off_c, 2, 69, 80
3, 143280, Note_on_c, 2, 74, 95
3, 143280, Note_on_c, 2, 69, 95
3, 143520, Note_off_c, 2, 74, 80
3, 143520, Note_off_c, 2, 69, 80
3, 143520, Note_on_c, 2, 74, 95
3, 143520, Note_on_c, 2, 69, 95
3, 143760, Note_off_c, 2, 74, 80
3, 143760, Note_off_c, 2, 69, 80
3, 143760, Note_on_c, 2, 74, 95
3, 143760, Note_on_c, 2, 69, 95
3, 144000, Note_off_c, 2, 74, 80
3, 144000, Note_off_c, 2, 69, 80
3, 144000, Control_c, 2, 7, 127
3, 144000, Control_c, 3, 7, 127
3, 144000, Note_on_c, 2, 50, 95
3, 144240, Note_off_c, 2, 50, 80
3, 144480, Note_on_c, 2, 50, 95
3, 144720, Note_off_c, 2, 50, 80
3, 144720, Note_on_c, 2, 50, 95
3, 144960, Note_off_c, 2, 50, 80
3, 144960, Note_on_c, 2, 54, 95
3, 145200, Note_off_c, 2, 54, 80
3, 145200, Note_on_c, 2, 54, 95
3, 145440, Note_off_c, 2, 54, 80
3, 145440, Note_on_c, 2, 55, 95
3, 145680, Note_off_c, 2, 55, 80
3, 145680, Note_on_c, 2, 45, 95
3, 145920, Note_off_c, 2, 45, 80
3, 145920, Note_on_c, 2, 43, 95
3, 146400, Note_off_c, 2, 43, 80
3, 146400, Note_on_c, 2, 47, 95
3, 146640, Note_off_c, 2, 47, 80
3, 146640, Note_on_c, 2, 45, 95
3, 146880, Note_off_c, 2, 45, 80
3, 146880, Note_on_c, 2, 45, 95
3, 147120, Note_off_c, 2, 45, 80
3, 147120, Note_on_c, 2, 49, 95
3, 147360, Note_off_c, 2, 49, 80
3, 147360, Note_on_c, 2, 50, 95
3, 147600, Note_off_c, 2, 50, 80
3, 147600, Note_on_c, 2, 52, 95
3, 147840, Note_off_c, 2, 52, 80
3, 147840, Note_on_c, 2, 50, 95
3, 148320, Note_off_c, 2, 50, 80
3, 148320, Note_on_c, 2, 50, 95
3, 148560, Note_off_c, 2, 50, 80
3, 148560, Note_on_c, 2, 50, 95
3, 148800, Note_off_c, 2, 50, 80
3, 148800, Note_on_c, 2, 54, 95
3, 149040, Note_off_c, 2, 54, 80
3, 149040, Note_on_c, 2, 54, 95
3, 149280, Note_off_c, 2, 54, 80
3, 149280, Note_on_c, 2, 55, 95
3, 149520, Note_off_c, 2, 55, 80
3, 149520, Note_on_c, 2, 45, 95
3, 149760, Note_off_c, 2, 45, 80
3, 149760, Note_on_c, 2, 43, 95
3, 150240, Note_off_c, 2, 43, 80
3, 150240, Note_on_c, 2, 47, 95
3, 150480, Note_off_c, 2, 47, 80
3, 150480, Note_on_c, 2, 45, 95
3, 150720, Note_off_c, 2, 45, 80
3, 150720, Note_on_c, 2, 45, 95
3, 150960, Note_off_c, 2, 45, 80
3, 150960, Note_on_c, 2, 49, 95
3, 151200, Note_off_c, 2, 49, 80
3, 151200, Note_on_c, 2, 50, 95
3, 151440, Note_off_c, 2, 50, 80
3, 151440, Note_on_c, 2, 52, 95
3, 151680, Note_off_c, 2, 52, 80
3, 151680, Note_on_c, 2, 50, 95
3, 152160, Note_off_c, 2, 50, 80
3, 152160, Note_on_c, 2, 50, 95
3, 152400, Note_off_c, 2, 50, 80
3, 152400, Note_on_c, 2, 50, 95
3, 152640, Note_off_c, 2, 50, 80
3, 152640, Note_on_c, 2, 54, 95
3, 152880, Note_off_c, 2, 54, 80
3, 152880, Note_on_c, 2, 54, 95
3, 153120, Note_off_c, 2, 54, 80
3, 153120, Note_on_c, 2, 55, 95
3, 153360, Note_off_c, 2, 55, 80
3, 153360, Note_on_c, 2, 45, 95
3, 153600, Note_off_c, 2, 45, 80
3, 153600, Note_on_c, 2, 43, 95
3, 154080, Note_off_c, 2, 43, 80
3, 154080, Note_on_c, 2, 47, 95
3, 154320, Note_off_c, 2, 47, 80
3, 154320, Note_on_c, 2, 45, 95
3, 154560, Note_off_c, 2, 45, 80
3, 154560, Note_on_c, 2, 45, 95
3, 154800, Note_off_c, 2, 45, 80
3, 154800, Note_on_c, 2, 49, 95
3, 155040, Note_off_c, 2, 49, 80
3, 155040, Note_on_c, 2, 50, 95
3, 155280, Note_off_c, 2, 50, 80
3, 155280, Note_on_c, 2, 52, 95
3, 155520, Note_off_c, 2, 52, 80
3, 155520, Note_on_c, 2, 50, 95
3, 156000, Note_off_c, 2, 50, 80
3, 156000, Note_on_c, 2, 50, 95
3, 156240, Note_off_c, 2, 50, 80
3, 156240, Note_on_c, 2, 50, 95
3, 156480, Note_off_c, 2, 50, 80
3, 156480, Note_on_c, 2, 54, 95
3, 156720, Note_off_c, 2, 54, 80
3, 156720, Note_on_c, 2, 54, 95
3, 156960, Note_off_c, 2, 54, 80
3, 156960, Note_on_c, 2, 55, 95
3, 157200, Note_off_c, 2, 55, 80
3, 157200, Note_on_c, 2, 45, 95
3, 157440, Note_off_c, 2, 45, 80
3, 157440, Note_on_c, 2, 43, 95
3, 157920, Note_off_c, 2, 43, 80
3, 157920, Note_on_c, 2, 47, 95
3, 158160, Note_off_c, 2, 47, 80
3, 158160, Note_on_c, 2, 45, 95
3, 158400, Note_off_c, 2, 45, 80
3, 158400, Note_on_c, 2, 45, 95
3, 158640, Note_off_c, 2, 45, 80
3, 158640, Note_on_c, 2, 49, 95
3, 158880, Note_off_c, 2, 49, 80
3, 158880, Note_on_c, 2, 50, 95
3, 159120, Note_off_c, 2, 50, 80
3, 159120, Note_on_c, 2, 52, 95
3, 159360, Note_off_c, 2, 52, 80
3, 159360, Note_on_c, 2, 50, 95
3, 159840, Note_off_c, 2, 50, 80
3, 159840, Note_on_c, 2, 50, 95
3, 160080, Note_off_c, 2, 50, 80
3, 160080, Note_on_c, 2, 50, 95
3, 160320, Note_off_c, 2, 50, 80
3, 160320, Note_on_c, 2, 54, 95
3, 160560, Note_off_c, 2, 54, 80
3, 160560, Note_on_c, 2, 54, 95
3, 160800, Note_off_c, 2, 54, 80
3, 160800, Note_on_c, 2, 55, 95
3, 161040, Note_off_c, 2, 55, 80
3, 161040, Note_on_c, 2, 45, 95
3, 161280, Note_off_c, 2, 45, 80
3, 161280, Note_on_c, 2, 43, 95
3, 161760, Note_off_c, 2, 43, 80
3, 161760, Note_on_c, 2, 47, 95
3, 162000, Note_off_c, 2, 47, 80
3, 162000, Note_on_c, 2, 45, 95
3, 162240, Note_off_c, 2, 45, 80
3, 162240, Note_on_c, 2, 45, 95
3, 162480, Note_off_c, 2, 45, 80
3, 162480, Note_on_c, 2, 49, 95
3, 162720, Note_off_c, 2, 49, 80
3, 162720, Note_on_c, 2, 50, 95
3, 162960, Note_off_c, 2, 50, 80
3, 162960, Note_on_c, 2, 52, 95
3, 163200, Note_off_c, 2, 52, 80
3, 163200, Note_on_c, 2, 50, 95
3, 163680, Note_off_c, 2, 50, 80
3, 163680, Note_on_c, 2, 50, 95
3, 163920, Note_off_c, 2, 50, 80
3, 163920, Note_on_c, 2, 50, 95
3, 164160, Note_off_c, 2, 50, 80
3, 164160, Note_on_c, 2, 54, 95
3, 164400, Note_off_c, 2, 54, 80
3, 164400, Note_on_c, 2, 54, 95
3, 164640, Note_off_c, 2, 54, 80
3, 164640, Note_on_c, 2, 55, 95
3, 164880, Note_off_c, 2, 55, 80
3, 164880, Note_on_c, 2, 45, 95
3, 165120, Note_off_c, 2, 45, 80
3, 165120, Note_on_c, 2, 43, 95
3, 165600, Note_off_c, 2, 43, 80
3, 165600, Note_on_c, 2, 47, 95
3, 165840, Note_off_c, 2, 47, 80
3, 165840, Note_on_c, 2, 45, 95
3, 166080, Note_off_c, 2, 45, 80
3, 166080, Note_on_c, 2, 45, 95
3, 166320, Note_off_c, 2, 45, 80
3, 166320, Note_on_c, 2, 49, 95
3, 166560, Note_off_c, 2, 49, 80
3, 166560, Note_on_c, 2, 50, 95
3, 166800, Note_off_c, 2, 50, 80
3, 166800, Note_on_c, 2, 52, 95
3, 167040, Note_off_c, 2, 52, 80
3, 167040, Note_on_c, 2, 50, 95
3, 167520, Note_off_c, 2, 50, 80
3, 167520, Note_on_c, 2, 50, 95
3, 167760, Note_off_c, 2, 50, 80
3, 167760, Note_on_c, 2, 50, 95
3, 168000, Note_off_c, 2, 50, 80
3, 168000, Note_on_c, 2, 54, 95
3, 168240, Note_off_c, 2, 54, 80
3, 168240, Note_on_c, 2, 54, 95
3, 168480, Note_off_c, 2, 54, 80
3, 168480, Note_on_c, 2, 55, 95
3, 168720, Note_off_c, 2, 55, 80
3, 168720, Note_on_c, 2, 45, 95
3, 168960, Note_off_c, 2, 45, 80
3, 168960, Note_on_c, 2, 43, 95
3, 169440, Note_off_c, 2, 43, 80
3, 169440, Note_on_c, 2, 47, 95
3, 169680, Note_off_c, 2, 47, 80
3, 169680, Note_on_c, 2, 45, 95
3, 169920, Note_off_c, 2, 45, 80
3, 169920, Note_on_c, 2, 45, 95
3, 170160, Note_off_c, 2, 45, 80
3, 170160, Note_on_c, 2, 49, 95
3, 170400, Note_off_c, 2, 49, 80
3, 170400, Note_on_c, 2, 50, 95
3, 170640, Note_off_c, 2, 50, 80
3, 170640, Note_on_c, 2, 52, 95
3, 170880, Note_off_c, 2, 52, 80
3, 170880, Note_on_c, 2, 50, 95
3, 171360, Note_off_c, 2, 50, 80
3, 171360, Note_on_c, 2, 50, 95
3, 171600, Note_off_c, 2, 50, 80
3, 171600, Note_on_c, 2, 50, 95
3, 171840, Note_off_c, 2, 50, 80
3, 171840, Note_on_c, 2, 54, 95
3, 172080, Note_off_c, 2, 54, 80
3, 172080, Note_on_c, 2, 54, 95
3, 172320, Note_off_c, 2, 54, 80
3, 172320, Note_on_c, 2, 55, 95
3, 172560, Note_off_c, 2, 55, 80
3, 172560, Note_on_c, 2, 45, 95
3, 172800, Note_off_c, 2, 45, 80
3, 172800, Note_on_c, 2, 43, 95
3, 173280, Note_off_c, 2, 43, 80
3, 173280, Note_on_c, 2, 47, 95
3, 173520, Note_off_c, 2, 47, 80
3, 173520, Note_on_c, 2, 45, 95
3, 173760, Note_off_c, 2, 45, 80
3, 173760, Note_on_c, 2, 45, 95
3, 174000, Note_off_c, 2, 45, 80
3, 174000, Note_on_c, 2, 49, 95
3, 174240, Note_off_c, 2, 49, 80
3, 174240, Note_on_c, 2, 50, 95
3, 174480, Note_off_c, 2, 50, 80
3, 174480, Note_on_c, 2, 52, 95
3, 174720, Note_off_c, 2, 52, 80
3, 174720, Note_on_c, 2, 50, 95
3, 175200, Note_off_c, 2, 50, 80
3, 175200, Note_on_c, 2, 50, 95
3, 175440, Note_off_c, 2, 50, 80
3, 175440, Note_on_c, 2, 50, 95
3, 175680, Note_off_c, 2, 50, 80
3, 175680, Note_on_c, 2, 54, 95
3, 175920, Note_off_c, 2, 54, 80
3, 175920, Note_on_c, 2, 54, 95
3, 176160, Note_off_c, 2, 54, 80
3, 176160, Note_on_c, 2, 55, 95
3, 176400, Note_off_c, 2, 55, 80
3, 176400, Note_on_c, 2, 45, 95
3, 176640, Note_off_c, 2, 45, 80
3, 176640, Note_on_c, 2, 43, 95
3, 177120, Note_off_c, 2, 43, 80
3, 177120, Note_on_c, 2, 47, 95
3, 177360, Note_off_c, 2, 47, 80
3, 177360, Note_on_c, 2, 45, 95
3, 177600, Note_off_c, 2, 45, 80
3, 177600, Note_on_c, 2, 45, 95
3, 177840, Note_off_c, 2, 45, 80
3, 177840, Note_on_c, 2, 49, 95
3, 178080, Note_off_c, 2, 49, 80
3, 178080, Note_on_c, 2, 50, 95
3, 178320, Note_off_c, 2, 50, 80
3, 178320, Note_on_c, 2, 52, 95
3, 178560, Note_off_c, 2, 52, 80
3, 178560, Note_on_c, 2, 50, 95
3, 179040, Note_off_c, 2, 50, 80
3, 179040, Note_on_c, 2, 50, 95
3, 179280, Note_off_c, 2, 50, 80
3, 179280, Note_on_c, 2, 50, 95
3, 179520, Note_off_c, 2, 50, 80
3, 179520, Note_on_c, 2, 54, 95
3, 179760, Note_off_c, 2, 54, 80
3, 179760, Note_on_c, 2, 54, 95
3, 180000, Note_off_c, 2, 54, 80
3, 180000, Note_on_c, 2, 55, 95
3, 180240, Note_off_c, 2, 55, 80
3, 180240, Note_on_c, 2, 45, 95
3, 180480, Note_off_c, 2, 45, 80
3, 180480, Note_on_c, 2, 43, 95
3, 180960, Note_off_c, 2, 43, 80
3, 180960, Note_on_c, 2, 47, 95
3, 181200, Note_off_c, 2, 47, 80
3, 181200, Note_on_c, 2, 45, 95
3, 181440, Note_off_c, 2, 45, 80
3, 181440, Note_on_c, 2, 45, 95
3, 181680, Note_off_c, 2, 45, 80
3, 181680, Note_on_c, 2, 49, 95
3, 181920, Note_off_c, 2, 49, 80
3, 181920, Note_on_c, 2, 50, 95
3, 182160, Note_off_c, 2, 50, 80
3, 182160, Note_on_c, 2, 52, 95
3, 182400, Note_off_c, 2, 52, 80
3, 182400, Note_on_c, 2, 50, 95
3, 182880, Note_off_c, 2, 50, 80
3, 182880, Note_on_c, 2, 50, 95
3, 183120, Note_off_c, 2, 50, 80
3, 183120, Note_on_c, 2, 50, 95
3, 183360, Note_off_c, 2, 50, 80
3, 183360, Note_on_c, 2, 54, 95
3, 183600, Note_off_c, 2, 54, 80
3, 183600, Note_on_c, 2, 54, 95
3, 183840, Note_off_c, 2, 54, 80
3, 183840, Note_on_c, 2, 55, 95
3, 184080, Note_off_c, 2, 55, 80
3, 184080, Note_on_c, 2, 45, 95
3, 184320, Note_off_c, 2, 45, 80
3, 184320, Note_on_c, 2, 43, 95
3, 184800, Note_off_c, 2, 43, 80
3, 184800, Note_on_c, 2, 47, 95
3, 185040, Note_off_c, 2, 47, 80
3, 185040, Note_on_c, 2, 45, 95
3, 185280, Note_off_c, 2, 45, 80
3, 185280, Note_on_c, 2, 45, 95
3, 185520, Note_off_c, 2, 45, 80
3, 185520, Note_on_c, 2, 49, 95
3, 185760, Note_off_c, 2, 49, 80
3, 185760, Note_on_c, 2, 50, 95
3, 186000, Note_off_c, 2, 50, 80
3, 186000, Note_on_c, 2, 52, 95
3, 186240, Note_off_c, 2, 52, 80
3, 186240, Note_on_c, 2, 50, 95
3, 186720, Note_off_c, 2, 50, 80
3, 186720, Note_on_c, 2, 50, 95
3, 186960, Note_off_c, 2, 50, 80
3, 186960, Note_on_c, 2, 50, 95
3, 187200, Note_off_c, 2, 50, 80
3, 187200, Note_on_c, 2, 54, 95
3, 187440, Note_off_c, 2, 54, 80
3, 187440, Note_on_c, 2, 54, 95
3, 187680, Note_off_c, 2, 54, 80
3, 187680, Note_on_c, 2, 55, 95
3, 187920, Note_off_c, 2, 55, 80
3, 187920, Note_on_c, 2, 45, 95
3, 188160, Note_off_c, 2, 45, 80
3, 188160, Note_on_c, 2, 43, 95
3, 188640, Note_off_c, 2, 43, 80
3, 188640, Note_on_c, 2, 47, 95
3, 188880, Note_off_c, 2, 47, 80
3, 188880, Note_on_c, 2, 45, 95
3, 189120, Note_off_c, 2, 45, 80
3, 189120, Note_on_c, 2, 45, 95
3, 189360, Note_off_c, 2, 45, 80
3, 189360, Note_on_c, 2, 49, 95
3, 189600, Note_off_c, 2, 49, 80
3, 189600, Note_on_c, 2, 50, 95
3, 189840, Note_off_c, 2, 50, 80
3, 189840, Note_on_c, 2, 52, 95
3, 190080, Note_off_c, 2, 52, 80
3, 190080, Note_on_c, 2, 50, 95
3, 190560, Note_off_c, 2, 50, 80
3, 190560, Note_on_c, 2, 50, 95
3, 190800, Note_off_c, 2, 50, 80
3, 190800, Note_on_c, 2, 50, 95
3, 191040, Note_off_c, 2, 50, 80
3, 191040, Note_on_c, 2, 54, 95
3, 191280, Note_off_c, 2, 54, 80
3, 191280, Note_on_c, 2, 54, 95
3, 191520, Note_off_c, 2, 54, 80
3, 191520, Note_on_c, 2, 55, 95
3, 191760, Note_off_c, 2, 55, 80
3, 191760, Note_on_c, 2, 45, 95
3, 192000, Note_off_c, 2, 45, 80
3, 192000, Note_on_c, 2, 43, 95
3, 192480, Note_off_c, 2, 43, 80
3, 192480, Note_on_c, 2, 47, 95
3, 192720, Note_off_c, 2, 47, 80
3, 192720, Note_on_c, 2, 45, 95
3, 192960, Note_off_c, 2, 45, 80
3, 192960, Note_on_c, 2, 45, 95
3, 193200, Note_off_c, 2, 45, 80
3, 193200, Note_on_c, 2, 49, 95
3, 193440, Note_off_c, 2, 49, 80
3, 193440, Note_on_c, 2, 50, 95
3, 193680, Note_off_c, 2, 50, 80
3, 193680, Note_on_c, 2, 52, 95
3, 193920, Note_off_c, 2, 52, 80
3, 193920, Note_on_c, 2, 50, 95
3, 193920, Control_c, 2, 7, 125
3, 193920, Control_c, 3, 7, 125
3, 194040, Control_c, 2, 7, 123
3, 194040, Control_c, 3, 7, 123
3, 194160, Control_c, 2, 7, 120
3, 194160, Control_c, 3, 7, 120
3, 194280, Control_c, 2, 7, 118
3, 194280, Control_c, 3, 7, 118
3, 194400, Control_c, 2, 7, 115
3, 194400, Control_c, 3, 7, 115
3, 194520, Control_c, 2, 7, 112
3, 194520, Control_c, 3, 7, 112
3, 194640, Control_c, 2, 7, 110
3, 194640, Control_c, 3, 7, 110
3, 194760, Control_c, 2, 7, 107
3, 194760, Control_c, 3, 7, 107
3, 194880, Control_c, 2, 7, 104
3, 194880, Control_c, 3, 7, 104
3, 195000, Control_c, 2, 7, 102
3, 195000, Control_c, 3, 7, 102
3, 195120, Control_c, 2, 7, 99
3, 195120, Control_c, 3, 7, 99
3, 195240, Control_c, 2, 7, 97
3, 195240, Control_c, 3, 7, 97
3, 195360, Control_c, 2, 7, 94
3, 195360, Control_c, 3, 7, 94
3, 195480, Control_c, 2, 7, 91
3, 195480, Control_c, 3, 7, 91
3, 195600, Control_c, 2, 7, 89
3, 195600, Control_c, 3, 7, 89
3, 195720, Control_c, 2, 7, 86
3, 195720, Control_c, 3, 7, 86
3, 195840, Control_c, 2, 7, 84
3, 195840, Control_c, 3, 7, 84
3, 195960, Control_c, 2, 7, 81
3, 195960, Control_c, 3, 7, 81
3, 196080, Control_c, 2, 7, 78
3, 196080, Control_c, 3, 7, 78
3, 196200, Control_c, 2, 7, 76
3, 196200, Control_c, 3, 7, 76
3, 196320, Control_c, 2, 7, 73
3, 196320, Control_c, 3, 7, 73
3, 196440, Control_c, 2, 7, 71
3, 196440, Control_c, 3, 7, 71
3, 196560, Control_c, 2, 7, 68
3, 196560, Control_c, 3, 7, 68
3, 196680, Control_c, 2, 7, 65
3, 196680, Control_c, 3, 7, 65
3, 196800, Control_c, 2, 7, 63
3, 196800, Control_c, 3, 7, 63
3, 196920, Control_c, 2, 7, 60
3, 196920, Control_c, 3, 7, 60
3, 197040, Control_c, 2, 7, 57
3, 197040, Control_c, 3, 7, 57
3, 197160, Control_c, 2, 7, 55
3, 197160, Control_c, 3, 7, 55
3, 197280, Control_c, 2, 7, 52
3, 197280, Control_c, 3, 7, 52
3, 197400, Control_c, 2, 7, 50
3, 197400, Control_c, 3, 7, 50
3, 197520, Control_c, 2, 7, 47
3, 197520, Control_c, 3, 7, 47
3, 197640, Control_c, 2, 7, 44
3, 197640, Control_c, 3, 7, 44
3, 197760, Control_c, 2, 7, 42
3, 197760, Control_c, 3, 7, 42
3, 197880, Control_c, 2, 7, 39
3, 197880, Control_c, 3, 7, 39
3, 198000, Control_c, 2, 7, 37
3, 198000, Control_c, 3, 7, 37
3, 198120, Control_c, 2, 7, 34
3, 198120, Control_c, 3, 7, 34
3, 198240, Control_c, 2, 7, 31
3, 198240, Control_c, 3, 7, 31
3, 198360, Control_c, 2, 7, 29
3, 198360, Control_c, 3, 7, 29
3, 198480, Control_c, 2, 7, 26
3, 198480, Control_c, 3, 7, 26
3, 198600, Control_c, 2, 7, 24
3, 198600, Control_c, 3, 7, 24
3, 198720, Control_c, 2, 7, 21
3, 198720, Control_c, 3, 7, 21
3, 198840, Control_c, 2, 7, 18
3, 198840, Control_c, 3, 7, 18
3, 198960, Control_c, 2, 7, 16
3, 198960, Control_c, 3, 7, 16
3, 199080, Control_c, 2, 7, 13
3, 199080, Control_c, 3, 7, 13
3, 199200, Control_c, 2, 7, 10
3, 199200, Control_c, 3, 7, 10
3, 199320, Control_c, 2, 7, 8
3, 199320, Control_c, 3, 7, 8
3, 199440, Control_c, 2, 7, 5
3, 199440, Control_c, 3, 7, 5
3, 199560, Control_c, 2, 7, 3
3, 199560, Control_c, 3, 7, 3
3, 199680, Note_off_c, 2, 50, 80
3, 199680, Control_c, 2, 7, 0
3, 199680, Control_c, 3, 7, 0
3, 199680, End_track
4, 0, Start_track
4, 0, Title_t, "Kim Deal"
4, 0, Control_c, 5, 100, 0
4, 0, Control_c, 5, 101, 0
4, 0, Control_c, 5, 6, 12
4, 0, Pitch_bend_c, 5, 8192
4, 0, Control_c, 5, 101, 0
4, 0, Control_c, 5, 100, 1
4, 0, Control_c, 5, 6, 64
4, 0, Control_c, 5, 38, 0
4, 0, Control_c, 5, 101, 127
4, 0, Control_c, 5, 100, 127
4, 0, Control_c, 4, 100, 0
4, 0, Control_c, 4, 101, 0
4, 0, Control_c, 4, 6, 12
4, 0, Pitch_bend_c, 4, 8192
4, 0, Control_c, 4, 101, 0
4, 0, Control_c, 4, 100, 1
4, 0, Control_c, 4, 6, 64
4, 0, Control_c, 4, 38, 0
4, 0, Control_c, 4, 101, 127
4, 0, Control_c, 4, 100, 127
4, 0, Control_c, 5, 101, 0
4, 0, Control_c, 5, 100, 2
4, 0, Control_c, 5, 6, 64
4, 0, Control_c, 5, 101, 127
4, 0, Control_c, 5, 100, 127
4, 0, Control_c, 4, 101, 0
4, 0, Control_c, 4, 100, 2
4, 0, Control_c, 4, 6, 64
4, 0, Control_c, 4, 101, 127
4, 0, Control_c, 4, 100, 127
4, 0, Program_c, 5, 34
4, 0, Program_c, 4, 34
4, 0, Control_c, 5, 0, 0
4, 0, Control_c, 4, 0, 0
4, 0, Control_c, 5, 7, 104
4, 0, Control_c, 4, 7, 104
4, 0, Control_c, 5, 10, 80
4, 0, Control_c, 4, 10, 80
4, 0, Control_c, 5, 93, 0
4, 0, Control_c, 4, 93, 0
4, 0, Control_c, 5, 91, 0
4, 0, Control_c, 4, 91, 0
4, 0, Control_c, 5, 92, 0
4, 0, Control_c, 4, 92, 0
4, 0, Control_c, 5, 95, 0
4, 0, Control_c, 4, 95, 0
4, 2400, Note_on_c, 4, 38, 95
4, 2640, Note_off_c, 4, 38, 80
4, 2640, Note_on_c, 4, 38, 95
4, 2880, Note_off_c, 4, 38, 80
4, 2880, Note_on_c, 4, 42, 95
4, 3120, Note_off_c, 4, 42, 80
4, 3120, Note_on_c, 4, 42, 95
4, 3360, Note_off_c, 4, 42, 80
4, 3360, Note_on_c, 4, 43, 95
4, 3600, Note_off_c, 4, 43, 80
4, 3600, Note_on_c, 4, 33, 95
4, 3840, Note_off_c, 4, 33, 80
4, 3840, Note_on_c, 4, 31, 95
4, 4320, Note_off_c, 4, 31, 80
4, 4320, Note_on_c, 4, 35, 95
4, 4560, Note_off_c, 4, 35, 80
4, 4560, Note_on_c, 4, 33, 95
4, 4800, Note_off_c, 4, 33, 80
4, 4800, Note_on_c, 4, 33, 95
4, 5040, Note_off_c, 4, 33, 80
4, 5040, Note_on_c, 4, 37, 95
4, 5280, Note_off_c, 4, 37, 80
4, 5280, Note_on_c, 4, 38, 95
4, 5520, Note_off_c, 4, 38, 80
4, 5520, Note_on_c, 4, 40, 95
4, 5760, Note_off_c, 4, 40, 80
4, 5760, Note_on_c, 4, 38, 95
4, 6240, Note_off_c, 4, 38, 80
4, 6240, Note_on_c, 4, 38, 95
4, 6480, Note_off_c, 4, 38, 80
4, 6480, Note_on_c, 4, 38, 95
4, 6720, Note_off_c, 4, 38, 80
4, 6720, Note_on_c, 4, 42, 95
4, 6960, Note_off_c, 4, 42, 80
4, 6960, Note_on_c, 4, 42, 95
4, 7200, Note_off_c, 4, 42, 80
4, 7200, Note_on_c, 4, 43, 95
4, 7440, Note_off_c, 4, 43, 80
4, 7440, Note_on_c, 4, 33, 95
4, 7680, Note_off_c, 4, 33, 80
4, 7680, Note_on_c, 4, 31, 95
4, 8160, Note_off_c, 4, 31, 80
4, 8160, Note_on_c, 4, 35, 95
4, 8400, Note_off_c, 4, 35, 80
4, 8400, Note_on_c, 4, 33, 95
4, 8640, Note_off_c, 4, 33, 80
4, 8640, Note_on_c, 4, 33, 95
4, 8880, Note_off_c, 4, 33, 80
4, 8880, Note_on_c, 4, 37, 95
4, 9120, Note_off_c, 4, 37, 80
4, 9120, Note_on_c, 4, 38, 95
4, 9360, Note_off_c, 4, 38, 80
4, 9360, Note_on_c, 4, 40, 95
4, 9600, Note_off_c, 4, 40, 80
4, 9600, Note_on_c, 4, 38, 95
4, 10080, Note_off_c, 4, 38, 80
4, 10080, Note_on_c, 4, 38, 95
4, 10320, Note_off_c, 4, 38, 80
4, 10320, Note_on_c, 4, 38, 95
4, 10560, Note_off_c, 4, 38, 80
4, 10560, Note_on_c, 4, 42, 95
4, 10800, Note_off_c, 4, 42, 80
4, 10800, Note_on_c, 4, 42, 95
4, 11040, Note_off_c, 4, 42, 80
4, 11040, Note_on_c, 4, 43, 95
4, 11280, Note_off_c, 4, 43, 80
4, 11280, Note_on_c, 4, 33, 95
4, 11520, Note_off_c, 4, 33, 80
4, 11520, Note_on_c, 4, 31, 95
4, 12000, Note_off_c, 4, 31, 80
4, 12000, Note_on_c, 4, 35, 95
4, 12240, Note_off_c, 4, 35, 80
4, 12240, Note_on_c, 4, 33, 95
4, 12480, Note_off_c, 4, 33, 80
4, 12480, Note_on_c, 4, 33, 95
4, 12720, Note_off_c, 4, 33, 80
4, 12720, Note_on_c, 4, 37, 95
4, 12960, Note_off_c, 4, 37, 80
4, 12960, Note_on_c, 4, 38, 95
4, 13200, Note_off_c, 4, 38, 80
4, 13200, Note_on_c, 4, 40, 95
4, 13440, Note_off_c, 4, 40, 80
4, 13440, Note_on_c, 4, 38, 95
4, 13920, Note_off_c, 4, 38, 80
4, 14160, Note_on_c, 4, 38, 95
4, 14400, Note_off_c, 4, 38, 80
4, 14640, Note_on_c, 4, 33, 95
4, 14880, Note_off_c, 4, 33, 80
4, 14880, Note_on_c, 4, 38, 95
4, 15120, Note_off_c, 4, 38, 80
4, 15120, Note_on_c, 4, 38, 95
4, 15360, Note_off_c, 4, 38, 80
4, 15360, Note_on_c, 4, 33, 95
4, 15840, Note_off_c, 4, 33, 80
4, 16080, Note_on_c, 4, 33, 95
4, 16320, Note_off_c, 4, 33, 80
4, 16320, Note_on_c, 4, 37, 95
4, 16560, Note_off_c, 4, 37, 80
4, 16560, Note_on_c, 4, 37, 95
4, 16800, Note_off_c, 4, 37, 80
4, 16800, Note_on_c, 4, 38, 95
4, 17040, Note_off_c, 4, 38, 80
4, 17040, Note_on_c, 4, 33, 95
4, 17280, Note_off_c, 4, 33, 80
4, 17280, Note_on_c, 4, 28, 95
4, 17760, Note_off_c, 4, 28, 80
4, 18000, Note_on_c, 4, 28, 95
4, 18240, Note_off_c, 4, 28, 80
4, 18480, Note_on_c, 4, 28, 95
4, 18720, Note_off_c, 4, 28, 80
4, 18720, Note_on_c, 4, 30, 95
4, 18960, Note_off_c, 4, 30, 80
4, 19200, Note_on_c, 4, 31, 95
4, 19440, Note_off_c, 4, 31, 80
4, 19440, Note_on_c, 4, 31, 95
4, 19680, Note_off_c, 4, 31, 80
4, 19920, Note_on_c, 4, 31, 95
4, 20160, Note_off_c, 4, 31, 80
4, 20160, Note_on_c, 4, 35, 95
4, 20400, Note_off_c, 4, 35, 80
4, 20400, Note_on_c, 4, 35, 95
4, 20640, Note_off_c, 4, 35, 80
4, 20640, Note_on_c, 4, 37, 95
4, 20880, Note_off_c, 4, 37, 80
4, 20880, Note_on_c, 4, 37, 95
4, 21120, Note_off_c, 4, 37, 80
4, 21120, Note_on_c, 4, 38, 95
4, 21600, Note_off_c, 4, 38, 80
4, 21840, Note_on_c, 4, 38, 95
4, 22080, Note_off_c, 4, 38, 80
4, 22320, Note_on_c, 4, 33, 95
4, 22560, Note_off_c, 4, 33, 80
4, 22560, Note_on_c, 4, 38, 95
4, 22800, Note_off_c, 4, 38, 80
4, 22800, Note_on_c, 4, 38, 95
4, 23040, Note_off_c, 4, 38, 80
4, 23040, Note_on_c, 4, 33, 95
4, 23520, Note_off_c, 4, 33, 80
4, 23760, Note_on_c, 4, 33, 95
4, 24000, Note_off_c, 4, 33, 80
4, 24000, Note_on_c, 4, 37, 95
4, 24240, Note_off_c, 4, 37, 80
4, 24240, Note_on_c, 4, 37, 95
4, 24480, Note_off_c, 4, 37, 80
4, 24480, Note_on_c, 4, 38, 95
4, 24720, Note_off_c, 4, 38, 80
4, 24720, Note_on_c, 4, 33, 95
4, 24960, Note_off_c, 4, 33, 80
4, 24960, Note_on_c, 4, 28, 95
4, 25440, Note_off_c, 4, 28, 80
4, 25680, Note_on_c, 4, 28, 95
4, 25920, Note_off_c, 4, 28, 80
4, 26160, Note_on_c, 4, 28, 95
4, 26400, Note_off_c, 4, 28, 80
4, 26400, Note_on_c, 4, 30, 95
4, 26640, Note_off_c, 4, 30, 80
4, 26880, Note_on_c, 4, 31, 95
4, 27120, Note_off_c, 4, 31, 80
4, 27120, Note_on_c, 4, 31, 95
4, 27360, Note_off_c, 4, 31, 80
4, 27600, Note_on_c, 4, 31, 95
4, 27840, Note_off_c, 4, 31, 80
4, 27840, Note_on_c, 4, 35, 95
4, 28080, Note_off_c, 4, 35, 80
4, 28080, Note_on_c, 4, 35, 95
4, 28320, Note_off_c, 4, 35, 80
4, 28320, Note_on_c, 4, 37, 95
4, 28560, Note_off_c, 4, 37, 80
4, 28560, Note_on_c, 4, 37, 95
4, 28800, Note_off_c, 4, 37, 80
4, 28800, Note_on_c, 4, 38, 95
4, 29280, Note_off_c, 4, 38, 80
4, 29520, Note_on_c, 4, 38, 95
4, 29760, Note_off_c, 4, 38, 80
4, 30000, Note_on_c, 4, 33, 95
4, 30240, Note_off_c, 4, 33, 80
4, 30240, Note_on_c, 4, 38, 95
4, 30480, Note_off_c, 4, 38, 80
4, 30480, Note_on_c, 4, 38, 95
4, 30720, Note_off_c, 4, 38, 80
4, 30720, Note_on_c, 4, 33, 95
4, 31200, Note_off_c, 4, 33, 80
4, 31440, Note_on_c, 4, 33, 95
4, 31680, Note_off_c, 4, 33, 80
4, 31680, Note_on_c, 4, 37, 95
4, 31920, Note_off_c, 4, 37, 80
4, 31920, Note_on_c, 4, 37, 95
4, 32160, Note_off_c, 4, 37, 80
4, 32160, Note_on_c, 4, 38, 95
4, 32400, Note_off_c, 4, 38, 80
4, 32400, Note_on_c, 4, 33, 95
4, 32640, Note_off_c, 4, 33, 80
4, 32640, Note_on_c, 4, 28, 95
4, 33120, Note_off_c, 4, 28, 80
4, 33360, Note_on_c, 4, 28, 95
4, 33600, Note_off_c, 4, 28, 80
4, 33840, Note_on_c, 4, 28, 95
4, 34080, Note_off_c, 4, 28, 80
4, 34080, Note_on_c, 4, 30, 95
4, 34320, Note_off_c, 4, 30, 80
4, 34560, Note_on_c, 4, 31, 95
4, 34800, Note_off_c, 4, 31, 80
4, 34800, Note_on_c, 4, 31, 95
4, 35040, Note_off_c, 4, 31, 80
4, 35280, Note_on_c, 4, 31, 95
4, 35520, Note_off_c, 4, 31, 80
4, 35520, Note_on_c, 4, 35, 95
4, 35760, Note_off_c, 4, 35, 80
4, 35760, Note_on_c, 4, 35, 95
4, 36000, Note_off_c, 4, 35, 80
4, 36000, Note_on_c, 4, 37, 95
4, 36240, Note_off_c, 4, 37, 80
4, 36240, Note_on_c, 4, 37, 95
4, 36480, Note_off_c, 4, 37, 80
4, 36480, Note_on_c, 4, 38, 95
4, 36960, Note_off_c, 4, 38, 80
4, 37200, Note_on_c, 4, 38, 95
4, 37440, Note_off_c, 4, 38, 80
4, 37680, Note_on_c, 4, 33, 95
4, 37920, Note_off_c, 4, 33, 80
4, 37920, Note_on_c, 4, 38, 95
4, 38160, Note_off_c, 4, 38, 80
4, 38160, Note_on_c, 4, 38, 95
4, 38400, Note_off_c, 4, 38, 80
4, 38400, Note_on_c, 4, 33, 95
4, 38880, Note_off_c, 4, 33, 80
4, 39120, Note_on_c, 4, 33, 95
4, 39360, Note_off_c, 4, 33, 80
4, 39360, Note_on_c, 4, 37, 95
4, 39600, Note_off_c, 4, 37, 80
4, 39600, Note_on_c, 4, 37, 95
4, 39840, Note_off_c, 4, 37, 80
4, 39840, Note_on_c, 4, 38, 95
4, 40080, Note_off_c, 4, 38, 80
4, 40080, Note_on_c, 4, 33, 95
4, 40320, Note_off_c, 4, 33, 80
4, 40320, Note_on_c, 4, 28, 95
4, 40800, Note_off_c, 4, 28, 80
4, 41040, Note_on_c, 4, 28, 95
4, 41280, Note_off_c, 4, 28, 80
4, 41520, Note_on_c, 4, 28, 95
4, 41760, Note_off_c, 4, 28, 80
4, 41760, Note_on_c, 4, 30, 95
4, 42000, Note_off_c, 4, 30, 80
4, 42240, Note_on_c, 4, 31, 95
4, 42480, Note_off_c, 4, 31, 80
4, 42480, Note_on_c, 4, 31, 95
4, 42720, Note_off_c, 4, 31, 80
4, 42960, Note_on_c, 4, 31, 95
4, 43200, Note_off_c, 4, 31, 80
4, 43200, Note_on_c, 4, 35, 95
4, 43440, Note_off_c, 4, 35, 80
4, 43440, Note_on_c, 4, 35, 95
4, 43680, Note_off_c, 4, 35, 80
4, 43680, Note_on_c, 4, 37, 95
4, 43920, Note_off_c, 4, 37, 80
4, 43920, Note_on_c, 4, 37, 95
4, 44160, Note_off_c, 4, 37, 80
4, 44160, Note_on_c, 4, 35, 95
4, 44640, Note_off_c, 4, 35, 80
4, 44880, Note_on_c, 4, 35, 95
4, 45120, Note_off_c, 4, 35, 80
4, 45120, Note_on_c, 4, 35, 95
4, 45600, Note_off_c, 4, 35, 80
4, 46080, Note_on_c, 4, 31, 95
4, 46560, Note_off_c, 4, 31, 80
4, 46800, Note_on_c, 4, 31, 95
4, 47040, Note_off_c, 4, 31, 80
4, 47040, Note_on_c, 4, 31, 95
4, 47520, Note_off_c, 4, 31, 80
4, 48000, Note_on_c, 4, 33, 95
4, 48480, Note_off_c, 4, 33, 80
4, 48720, Note_on_c, 4, 33, 95
4, 48960, Note_off_c, 4, 33, 80
4, 48960, Note_on_c, 4, 33, 95
4, 49200, Note_off_c, 4, 33, 80
4, 49200, Note_on_c, 4, 33, 95
4, 49440, Note_off_c, 4, 33, 80
4, 49440, Note_on_c, 4, 33, 95
4, 49680, Note_off_c, 4, 33, 80
4, 49680, Note_on_c, 4, 33, 95
4, 49920, Note_off_c, 4, 33, 80
4, 49920, Note_on_c, 4, 38, 95
4, 50160, Note_off_c, 4, 38, 80
4, 50160, Note_on_c, 4, 38, 95
4, 50400, Note_off_c, 4, 38, 80
4, 50400, Note_on_c, 4, 38, 95
4, 50640, Note_off_c, 4, 38, 80
4, 50640, Note_on_c, 4, 38, 95
4, 50880, Note_off_c, 4, 38, 80
4, 50880, Note_on_c, 4, 42, 95
4, 51120, Note_off_c, 4, 42, 80
4, 51120, Note_on_c, 4, 42, 95
4, 51360, Note_off_c, 4, 42, 80
4, 51360, Note_on_c, 4, 43, 95
4, 51600, Note_off_c, 4, 43, 80
4, 51600, Note_on_c, 4, 33, 95
4, 51840, Note_off_c, 4, 33, 80
4, 51840, Note_on_c, 4, 31, 95
4, 52320, Note_off_c, 4, 31, 80
4, 52320, Note_on_c, 4, 35, 95
4, 52560, Note_off_c, 4, 35, 80
4, 52560, Note_on_c, 4, 33, 95
4, 52800, Note_off_c, 4, 33, 80
4, 52800, Note_on_c, 4, 33, 95
4, 53040, Note_off_c, 4, 33, 80
4, 53040, Note_on_c, 4, 37, 95
4, 53280, Note_off_c, 4, 37, 80
4, 53280, Note_on_c, 4, 38, 95
4, 53520, Note_off_c, 4, 38, 80
4, 53520, Note_on_c, 4, 40, 95
4, 53760, Note_off_c, 4, 40, 80
4, 53760, Note_on_c, 4, 38, 95
4, 54240, Note_off_c, 4, 38, 80
4, 54240, Note_on_c, 4, 38, 95
4, 54480, Note_off_c, 4, 38, 80
4, 54480, Note_on_c, 4, 38, 95
4, 54720, Note_off_c, 4, 38, 80
4, 54720, Note_on_c, 4, 42, 95
4, 54960, Note_off_c, 4, 42, 80
4, 54960, Note_on_c, 4, 42, 95
4, 55200, Note_off_c, 4, 42, 80
4, 55200, Note_on_c, 4, 43, 95
4, 55440, Note_off_c, 4, 43, 80
4, 55440, Note_on_c, 4, 33, 95
4, 55680, Note_off_c, 4, 33, 80
4, 55680, Note_on_c, 4, 31, 95
4, 56160, Note_off_c, 4, 31, 80
4, 56160, Note_on_c, 4, 35, 95
4, 56400, Note_off_c, 4, 35, 80
4, 56400, Note_on_c, 4, 33, 95
4, 56640, Note_off_c, 4, 33, 80
4, 56640, Note_on_c, 4, 33, 95
4, 56880, Note_off_c, 4, 33, 80
4, 56880, Note_on_c, 4, 37, 95
4, 57120, Note_off_c, 4, 37, 80
4, 57120, Note_on_c, 4, 38, 95
4, 57360, Note_off_c, 4, 38, 80
4, 57360, Note_on_c, 4, 40, 95
4, 57600, Note_off_c, 4, 40, 80
4, 57600, Note_on_c, 4, 38, 95
4, 58080, Note_off_c, 4, 38, 80
4, 58080, Note_on_c, 4, 38, 95
4, 58320, Note_off_c, 4, 38, 80
4, 58320, Note_on_c, 4, 38, 95
4, 58560, Note_off_c, 4, 38, 80
4, 58560, Note_on_c, 4, 42, 95
4, 58800, Note_off_c, 4, 42, 80
4, 58800, Note_on_c, 4, 42, 95
4, 59040, Note_off_c, 4, 42, 80
4, 59040, Note_on_c, 4, 43, 95
4, 59280, Note_off_c, 4, 43, 80
4, 59280, Note_on_c, 4, 33, 95
4, 59520, Note_off_c, 4, 33, 80
4, 59520, Note_on_c, 4, 31, 95
4, 60000, Note_off_c, 4, 31, 80
4, 60000, Note_on_c, 4, 35, 95
4, 60240, Note_off_c, 4, 35, 80
4, 60240, Note_on_c, 4, 33, 95
4, 60480, Note_off_c, 4, 33, 80
4, 60480, Note_on_c, 4, 33, 95
4, 60720, Note_off_c, 4, 33, 80
4, 60720, Note_on_c, 4, 37, 95
4, 60960, Note_off_c, 4, 37, 80
4, 60960, Note_on_c, 4, 38, 95
4, 61200, Note_off_c, 4, 38, 80
4, 61200, Note_on_c, 4, 40, 95
4, 61440, Note_off_c, 4, 40, 80
4, 61440, Note_on_c, 4, 38, 95
4, 61920, Note_off_c, 4, 38, 80
4, 62160, Note_on_c, 4, 38, 95
4, 62400, Note_off_c, 4, 38, 80
4, 62640, Note_on_c, 4, 33, 95
4, 62880, Note_off_c, 4, 33, 80
4, 62880, Note_on_c, 4, 38, 95
4, 63120, Note_off_c, 4, 38, 80
4, 63120, Note_on_c, 4, 38, 95
4, 63360, Note_off_c, 4, 38, 80
4, 63360, Note_on_c, 4, 33, 95
4, 63840, Note_off_c, 4, 33, 80
4, 64080, Note_on_c, 4, 33, 95
4, 64320, Note_off_c, 4, 33, 80
4, 64320, Note_on_c, 4, 37, 95
4, 64560, Note_off_c, 4, 37, 80
4, 64560, Note_on_c, 4, 37, 95
4, 64800, Note_off_c, 4, 37, 80
4, 64800, Note_on_c, 4, 38, 95
4, 65040, Note_off_c, 4, 38, 80
4, 65040, Note_on_c, 4, 33, 95
4, 65280, Note_off_c, 4, 33, 80
4, 65280, Note_on_c, 4, 28, 95
4, 65760, Note_off_c, 4, 28, 80
4, 66000, Note_on_c, 4, 28, 95
4, 66240, Note_off_c, 4, 28, 80
4, 66480, Note_on_c, 4, 28, 95
4, 66720, Note_off_c, 4, 28, 80
4, 66720, Note_on_c, 4, 30, 95
4, 66960, Note_off_c, 4, 30, 80
4, 67200, Note_on_c, 4, 31, 95
4, 67440, Note_off_c, 4, 31, 80
4, 67440, Note_on_c, 4, 31, 95
4, 67680, Note_off_c, 4, 31, 80
4, 67920, Note_on_c, 4, 31, 95
4, 68160, Note_off_c, 4, 31, 80
4, 68160, Note_on_c, 4, 35, 95
4, 68400, Note_off_c, 4, 35, 80
4, 68400, Note_on_c, 4, 35, 95
4, 68640, Note_off_c, 4, 35, 80
4, 68640, Note_on_c, 4, 37, 95
4, 68880, Note_off_c, 4, 37, 80
4, 68880, Note_on_c, 4, 37, 95
4, 69120, Note_off_c, 4, 37, 80
4, 69120, Note_on_c, 4, 38, 95
4, 69600, Note_off_c, 4, 38, 80
4, 69840, Note_on_c, 4, 38, 95
4, 70080, Note_off_c, 4, 38, 80
4, 70320, Note_on_c, 4, 33, 95
4, 70560, Note_off_c, 4, 33, 80
4, 70560, Note_on_c, 4, 38, 95
4, 70800, Note_off_c, 4, 38, 80
4, 70800, Note_on_c, 4, 38, 95
4, 71040, Note_off_c, 4, 38, 80
4, 71040, Note_on_c, 4, 33, 95
4, 71520, Note_off_c, 4, 33, 80
4, 71760, Note_on_c, 4, 33, 95
4, 72000, Note_off_c, 4, 33, 80
4, 72000, Note_on_c, 4, 37, 95
4, 72240, Note_off_c, 4, 37, 80
4, 72240, Note_on_c, 4, 37, 95
4, 72480, Note_off_c, 4, 37, 80
4, 72480, Note_on_c, 4, 38, 95
4, 72720, Note_off_c, 4, 38, 80
4, 72720, Note_on_c, 4, 33, 95
4, 72960, Note_off_c, 4, 33, 80
4, 72960, Note_on_c, 4, 28, 95
4, 73440, Note_off_c, 4, 28, 80
4, 73680, Note_on_c, 4, 28, 95
4, 73920, Note_off_c, 4, 28, 80
4, 74160, Note_on_c, 4, 28, 95
4, 74400, Note_off_c, 4, 28, 80
4, 74400, Note_on_c, 4, 30, 95
4, 74640, Note_off_c, 4, 30, 80
4, 74880, Note_on_c, 4, 31, 95
4, 75120, Note_off_c, 4, 31, 80
4, 75120, Note_on_c, 4, 31, 95
4, 75360, Note_off_c, 4, 31, 80
4, 75600, Note_on_c, 4, 31, 95
4, 75840, Note_off_c, 4, 31, 80
4, 75840, Note_on_c, 4, 35, 95
4, 76080, Note_off_c, 4, 35, 80
4, 76080, Note_on_c, 4, 35, 95
4, 76320, Note_off_c, 4, 35, 80
4, 76320, Note_on_c, 4, 37, 95
4, 76560, Note_off_c, 4, 37, 80
4, 76560, Note_on_c, 4, 37, 95
4, 76800, Note_off_c, 4, 37, 80
4, 76800, Note_on_c, 4, 38, 95
4, 77280, Note_off_c, 4, 38, 80
4, 77520, Note_on_c, 4, 38, 95
4, 77760, Note_off_c, 4, 38, 80
4, 78000, Note_on_c, 4, 33, 95
4, 78240, Note_off_c, 4, 33, 80
4, 78240, Note_on_c, 4, 38, 95
4, 78480, Note_off_c, 4, 38, 80
4, 78480, Note_on_c, 4, 38, 95
4, 78720, Note_off_c, 4, 38, 80
4, 78720, Note_on_c, 4, 33, 95
4, 79200, Note_off_c, 4, 33, 80
4, 79440, Note_on_c, 4, 33, 95
4, 79680, Note_off_c, 4, 33, 80
4, 79680, Note_on_c, 4, 37, 95
4, 79920, Note_off_c, 4, 37, 80
4, 79920, Note_on_c, 4, 37, 95
4, 80160, Note_off_c, 4, 37, 80
4, 80160, Note_on_c, 4, 38, 95
4, 80400, Note_off_c, 4, 38, 80
4, 80400, Note_on_c, 4, 33, 95
4, 80640, Note_off_c, 4, 33, 80
4, 80640, Note_on_c, 4, 28, 95
4, 81120, Note_off_c, 4, 28, 80
4, 81360, Note_on_c, 4, 28, 95
4, 81600, Note_off_c, 4, 28, 80
4, 81840, Note_on_c, 4, 28, 95
4, 82080, Note_off_c, 4, 28, 80
4, 82080, Note_on_c, 4, 30, 95
4, 82320, Note_off_c, 4, 30, 80
4, 82560, Note_on_c, 4, 31, 95
4, 82800, Note_off_c, 4, 31, 80
4, 82800, Note_on_c, 4, 31, 95
4, 83040, Note_off_c, 4, 31, 80
4, 83280, Note_on_c, 4, 31, 95
4, 83520, Note_off_c, 4, 31, 80
4, 83520, Note_on_c, 4, 35, 95
4, 83760, Note_off_c, 4, 35, 80
4, 83760, Note_on_c, 4, 35, 95
4, 84000, Note_off_c, 4, 35, 80
4, 84000, Note_on_c, 4, 37, 95
4, 84240, Note_off_c, 4, 37, 80
4, 84240, Note_on_c, 4, 37, 95
4, 84480, Note_off_c, 4, 37, 80
4, 84480, Note_on_c, 4, 35, 95
4, 84960, Note_off_c, 4, 35, 80
4, 85200, Note_on_c, 4, 35, 95
4, 85440, Note_off_c, 4, 35, 80
4, 85440, Note_on_c, 4, 35, 95
4, 85920, Note_off_c, 4, 35, 80
4, 86400, Note_on_c, 4, 31, 95
4, 86880, Note_off_c, 4, 31, 80
4, 87120, Note_on_c, 4, 31, 95
4, 87360, Note_off_c, 4, 31, 80
4, 87360, Note_on_c, 4, 31, 95
4, 87840, Note_off_c, 4, 31, 80
4, 88320, Note_on_c, 4, 33, 95
4, 88800, Note_off_c, 4, 33, 80
4, 89040, Note_on_c, 4, 33, 95
4, 89280, Note_off_c, 4, 33, 80
4, 89280, Note_on_c, 4, 33, 95
4, 89520, Note_off_c, 4, 33, 80
4, 89520, Note_on_c, 4, 33, 95
4, 89760, Note_off_c, 4, 33, 80
4, 89760, Note_on_c, 4, 33, 95
4, 90000, Note_off_c, 4, 33, 80
4, 90000, Note_on_c, 4, 33, 95
4, 90240, Note_off_c, 4, 33, 80
4, 90240, Note_on_c, 4, 38, 95
4, 90480, Note_off_c, 4, 38, 80
4, 90480, Note_on_c, 4, 38, 95
4, 90720, Note_off_c, 4, 38, 80
4, 90720, Note_on_c, 4, 38, 95
4, 90960, Note_off_c, 4, 38, 80
4, 90960, Note_on_c, 4, 38, 95
4, 91200, Note_off_c, 4, 38, 80
4, 91200, Note_on_c, 4, 42, 95
4, 91440, Note_off_c, 4, 42, 80
4, 91440, Note_on_c, 4, 42, 95
4, 91680, Note_off_c, 4, 42, 80
4, 91680, Note_on_c, 4, 43, 95
4, 91920, Note_off_c, 4, 43, 80
4, 91920, Note_on_c, 4, 33, 95
4, 92160, Note_off_c, 4, 33, 80
4, 92160, Note_on_c, 4, 31, 95
4, 92640, Note_off_c, 4, 31, 80
4, 92640, Note_on_c, 4, 35, 95
4, 92880, Note_off_c, 4, 35, 80
4, 92880, Note_on_c, 4, 33, 95
4, 93120, Note_off_c, 4, 33, 80
4, 93120, Note_on_c, 4, 33, 95
4, 93360, Note_off_c, 4, 33, 80
4, 93360, Note_on_c, 4, 37, 95
4, 93600, Note_off_c, 4, 37, 80
4, 93600, Note_on_c, 4, 38, 95
4, 93840, Note_off_c, 4, 38, 80
4, 93840, Note_on_c, 4, 40, 95
4, 94080, Note_off_c, 4, 40, 80
4, 94080, Note_on_c, 4, 38, 95
4, 94560, Note_off_c, 4, 38, 80
4, 94560, Note_on_c, 4, 38, 95
4, 94800, Note_off_c, 4, 38, 80
4, 94800, Note_on_c, 4, 38, 95
4, 95040, Note_off_c, 4, 38, 80
4, 95040, Note_on_c, 4, 42, 95
4, 95280, Note_off_c, 4, 42, 80
4, 95280, Note_on_c, 4, 42, 95
4, 95520, Note_off_c, 4, 42, 80
4, 95520, Note_on_c, 4, 43, 95
4, 95760, Note_off_c, 4, 43, 80
4, 95760, Note_on_c, 4, 33, 95
4, 96000, Note_off_c, 4, 33, 80
4, 96000, Note_on_c, 4, 31, 95
4, 96480, Note_off_c, 4, 31, 80
4, 96480, Note_on_c, 4, 35, 95
4, 96720, Note_off_c, 4, 35, 80
4, 96720, Note_on_c, 4, 33, 95
4, 96960, Note_off_c, 4, 33, 80
4, 96960, Note_on_c, 4, 33, 95
4, 97200, Note_off_c, 4, 33, 80
4, 97200, Note_on_c, 4, 37, 95
4, 97440, Note_off_c, 4, 37, 80
4, 97440, Note_on_c, 4, 38, 95
4, 97680, Note_off_c, 4, 38, 80
4, 97680, Note_on_c, 4, 40, 95
4, 97920, Note_off_c, 4, 40, 80
4, 97920, Note_on_c, 4, 38, 95
4, 98400, Note_off_c, 4, 38, 80
4, 98400, Note_on_c, 4, 38, 95
4, 98640, Note_off_c, 4, 38, 80
4, 98640, Note_on_c, 4, 38, 95
4, 98880, Note_off_c, 4, 38, 80
4, 98880, Note_on_c, 4, 42, 95
4, 99120, Note_off_c, 4, 42, 80
4, 99120, Note_on_c, 4, 42, 95
4, 99360, Note_off_c, 4, 42, 80
4, 99360, Note_on_c, 4, 43, 95
4, 99600, Note_off_c, 4, 43, 80
4, 99600, Note_on_c, 4, 33, 95
4, 99840, Note_off_c, 4, 33, 80
4, 99840, Note_on_c, 4, 31, 95
4, 100320, Note_off_c, 4, 31, 80
4, 100320, Note_on_c, 4, 35, 95
4, 100560, Note_off_c, 4, 35, 80
4, 100560, Note_on_c, 4, 33, 95
4, 100800, Note_off_c, 4, 33, 80
4, 100800, Note_on_c, 4, 33, 95
4, 101040, Note_off_c, 4, 33, 80
4, 101040, Note_on_c, 4, 37, 95
4, 101280, Note_off_c, 4, 37, 80
4, 101280, Note_on_c, 4, 38, 95
4, 101520, Note_off_c, 4, 38, 80
4, 101520, Note_on_c, 4, 40, 95
4, 101760, Note_off_c, 4, 40, 80
4, 101760, Note_on_c, 4, 38, 95
4, 102240, Note_off_c, 4, 38, 80
4, 102240, Note_on_c, 4, 38, 95
4, 102480, Note_off_c, 4, 38, 80
4, 102480, Note_on_c, 4, 38, 95
4, 102720, Note_off_c, 4, 38, 80
4, 102720, Note_on_c, 4, 42, 95
4, 102960, Note_off_c, 4, 42, 80
4, 102960, Note_on_c, 4, 42, 95
4, 103200, Note_off_c, 4, 42, 80
4, 103200, Note_on_c, 4, 43, 95
4, 103440, Note_off_c, 4, 43, 80
4, 103440, Note_on_c, 4, 33, 95
4, 103680, Note_off_c, 4, 33, 80
4, 103680, Note_on_c, 4, 31, 95
4, 104160, Note_off_c, 4, 31, 80
4, 104160, Note_on_c, 4, 35, 95
4, 104400, Note_off_c, 4, 35, 80
4, 104400, Note_on_c, 4, 33, 95
4, 104640, Note_off_c, 4, 33, 80
4, 104640, Note_on_c, 4, 33, 95
4, 104880, Note_off_c, 4, 33, 80
4, 104880, Note_on_c, 4, 37, 95
4, 105120, Note_off_c, 4, 37, 80
4, 105120, Note_on_c, 4, 38, 95
4, 105360, Note_off_c, 4, 38, 80
4, 105360, Note_on_c, 4, 40, 95
4, 105600, Note_off_c, 4, 40, 80
4, 105600, Note_on_c, 4, 38, 95
4, 105840, Note_off_c, 4, 38, 80
4, 105840, Note_on_c, 4, 38, 95
4, 106080, Note_off_c, 4, 38, 80
4, 106080, Note_on_c, 4, 38, 95
4, 106320, Note_off_c, 4, 38, 80
4, 106320, Note_on_c, 4, 33, 95
4, 106560, Note_off_c, 4, 33, 80
4, 106560, Note_on_c, 4, 38, 95
4, 106800, Note_off_c, 4, 38, 80
4, 106800, Note_on_c, 4, 38, 95
4, 107040, Note_off_c, 4, 38, 80
4, 107040, Note_on_c, 4, 38, 95
4, 107280, Note_off_c, 4, 38, 80
4, 107280, Note_on_c, 4, 38, 95
4, 107520, Note_off_c, 4, 38, 80
4, 107520, Note_on_c, 4, 33, 95
4, 107760, Note_off_c, 4, 33, 80
4, 107760, Note_on_c, 4, 33, 95
4, 108000, Note_off_c, 4, 33, 80
4, 108000, Note_on_c, 4, 33, 95
4, 108240, Note_off_c, 4, 33, 80
4, 108240, Note_on_c, 4, 28, 95
4, 108480, Note_off_c, 4, 28, 80
4, 108480, Note_on_c, 4, 33, 95
4, 108720, Note_off_c, 4, 33, 80
4, 108720, Note_on_c, 4, 33, 95
4, 108960, Note_off_c, 4, 33, 80
4, 108960, Note_on_c, 4, 33, 95
4, 109200, Note_off_c, 4, 33, 80
4, 109200, Note_on_c, 4, 33, 95
4, 109440, Note_off_c, 4, 33, 80
4, 109440, Note_on_c, 4, 40, 95
4, 109680, Note_off_c, 4, 40, 80
4, 109680, Note_on_c, 4, 40, 95
4, 109920, Note_off_c, 4, 40, 80
4, 109920, Note_on_c, 4, 40, 95
4, 110160, Note_off_c, 4, 40, 80
4, 110160, Note_on_c, 4, 35, 95
4, 110400, Note_off_c, 4, 35, 80
4, 110400, Note_on_c, 4, 40, 95
4, 110640, Note_off_c, 4, 40, 80
4, 110640, Note_on_c, 4, 40, 95
4, 110880, Note_off_c, 4, 40, 80
4, 110880, Note_on_c, 4, 40, 95
4, 111120, Note_off_c, 4, 40, 80
4, 111120, Note_on_c, 4, 40, 95
4, 111360, Note_off_c, 4, 40, 80
4, 111360, Note_on_c, 4, 43, 95
4, 111600, Note_off_c, 4, 43, 80
4, 111600, Note_on_c, 4, 43, 95
4, 111840, Note_off_c, 4, 43, 80
4, 111840, Note_on_c, 4, 43, 95
4, 112080, Note_off_c, 4, 43, 80
4, 112080, Note_on_c, 4, 43, 95
4, 112320, Note_off_c, 4, 43, 80
4, 112320, Note_on_c, 4, 43, 95
4, 112560, Note_off_c, 4, 43, 80
4, 112560, Note_on_c, 4, 42, 95
4, 112800, Note_off_c, 4, 42, 80
4, 112800, Note_on_c, 4, 40, 95
4, 113040, Note_off_c, 4, 40, 80
4, 113040, Note_on_c, 4, 38, 95
4, 113280, Note_off_c, 4, 38, 80
4, 113280, Note_on_c, 4, 38, 95
4, 113520, Note_off_c, 4, 38, 80
4, 113520, Note_on_c, 4, 38, 95
4, 113760, Note_off_c, 4, 38, 80
4, 113760, Note_on_c, 4, 38, 95
4, 114000, Note_off_c, 4, 38, 80
4, 114000, Note_on_c, 4, 33, 95
4, 114240, Note_off_c, 4, 33, 80
4, 114240, Note_on_c, 4, 38, 95
4, 114480, Note_off_c, 4, 38, 80
4, 114480, Note_on_c, 4, 38, 95
4, 114720, Note_off_c, 4, 38, 80
4, 114720, Note_on_c, 4, 38, 95
4, 114960, Note_off_c, 4, 38, 80
4, 114960, Note_on_c, 4, 38, 95
4, 115200, Note_off_c, 4, 38, 80
4, 115200, Note_on_c, 4, 33, 95
4, 115440, Note_off_c, 4, 33, 80
4, 115440, Note_on_c, 4, 33, 95
4, 115680, Note_off_c, 4, 33, 80
4, 115680, Note_on_c, 4, 33, 95
4, 115920, Note_off_c, 4, 33, 80
4, 115920, Note_on_c, 4, 28, 95
4, 116160, Note_off_c, 4, 28, 80
4, 116160, Note_on_c, 4, 33, 95
4, 116400, Note_off_c, 4, 33, 80
4, 116400, Note_on_c, 4, 33, 95
4, 116640, Note_off_c, 4, 33, 80
4, 116640, Note_on_c, 4, 33, 95
4, 116880, Note_off_c, 4, 33, 80
4, 116880, Note_on_c, 4, 33, 95
4, 117120, Note_off_c, 4, 33, 80
4, 117120, Note_on_c, 4, 40, 95
4, 117360, Note_off_c, 4, 40, 80
4, 117360, Note_on_c, 4, 40, 95
4, 117600, Note_off_c, 4, 40, 80
4, 117600, Note_on_c, 4, 40, 95
4, 117840, Note_off_c, 4, 40, 80
4, 117840, Note_on_c, 4, 35, 95
4, 118080, Note_off_c, 4, 35, 80
4, 118080, Note_on_c, 4, 40, 95
4, 118320, Note_off_c, 4, 40, 80
4, 118320, Note_on_c, 4, 40, 95
4, 118560, Note_off_c, 4, 40, 80
4, 118560, Note_on_c, 4, 40, 95
4, 118800, Note_off_c, 4, 40, 80
4, 118800, Note_on_c, 4, 40, 95
4, 119040, Note_off_c, 4, 40, 80
4, 119040, Note_on_c, 4, 43, 95
4, 119280, Note_off_c, 4, 43, 80
4, 119280, Note_on_c, 4, 43, 95
4, 119520, Note_off_c, 4, 43, 80
4, 119520, Note_on_c, 4, 43, 95
4, 119760, Note_off_c, 4, 43, 80
4, 119760, Note_on_c, 4, 43, 95
4, 120000, Note_off_c, 4, 43, 80
4, 120000, Note_on_c, 4, 43, 95
4, 120240, Note_off_c, 4, 43, 80
4, 120240, Note_on_c, 4, 42, 95
4, 120480, Note_off_c, 4, 42, 80
4, 120480, Note_on_c, 4, 40, 95
4, 120720, Note_off_c, 4, 40, 80
4, 120720, Note_on_c, 4, 38, 95
4, 120960, Note_off_c, 4, 38, 80
4, 120960, Note_on_c, 4, 38, 95
4, 121200, Note_off_c, 4, 38, 80
4, 121200, Note_on_c, 4, 38, 95
4, 121440, Note_off_c, 4, 38, 80
4, 121440, Note_on_c, 4, 38, 95
4, 121680, Note_off_c, 4, 38, 80
4, 121680, Note_on_c, 4, 33, 95
4, 121920, Note_off_c, 4, 33, 80
4, 121920, Note_on_c, 4, 38, 95
4, 122160, Note_off_c, 4, 38, 80
4, 122160, Note_on_c, 4, 38, 95
4, 122400, Note_off_c, 4, 38, 80
4, 122400, Note_on_c, 4, 38, 95
4, 122640, Note_off_c, 4, 38, 80
4, 122640, Note_on_c, 4, 38, 95
4, 122880, Note_off_c, 4, 38, 80
4, 122880, Note_on_c, 4, 33, 95
4, 123120, Note_off_c, 4, 33, 80
4, 123120, Note_on_c, 4, 33, 95
4, 123360, Note_off_c, 4, 33, 80
4, 123360, Note_on_c, 4, 33, 95
4, 123600, Note_off_c, 4, 33, 80
4, 123600, Note_on_c, 4, 28, 95
4, 123840, Note_off_c, 4, 28, 80
4, 123840, Note_on_c, 4, 33, 95
4, 124080, Note_off_c, 4, 33, 80
4, 124080, Note_on_c, 4, 33, 95
4, 124320, Note_off_c, 4, 33, 80
4, 124320, Note_on_c, 4, 33, 95
4, 124560, Note_off_c, 4, 33, 80
4, 124560, Note_on_c, 4, 33, 95
4, 124800, Note_off_c, 4, 33, 80
4, 124800, Note_on_c, 4, 40, 95
4, 125040, Note_off_c, 4, 40, 80
4, 125040, Note_on_c, 4, 40, 95
4, 125280, Note_off_c, 4, 40, 80
4, 125280, Note_on_c, 4, 40, 95
4, 125520, Note_off_c, 4, 40, 80
4, 125520, Note_on_c, 4, 35, 95
4, 125760, Note_off_c, 4, 35, 80
4, 125760, Note_on_c, 4, 40, 95
4, 126000, Note_off_c, 4, 40, 80
4, 126000, Note_on_c, 4, 40, 95
4, 126240, Note_off_c, 4, 40, 80
4, 126240, Note_on_c, 4, 40, 95
4, 126480, Note_off_c, 4, 40, 80
4, 126480, Note_on_c, 4, 40, 95
4, 126720, Note_off_c, 4, 40, 80
4, 126720, Note_on_c, 4, 43, 95
4, 126960, Note_off_c, 4, 43, 80
4, 126960, Note_on_c, 4, 43, 95
4, 127200, Note_off_c, 4, 43, 80
4, 127200, Note_on_c, 4, 43, 95
4, 127440, Note_off_c, 4, 43, 80
4, 127440, Note_on_c, 4, 43, 95
4, 127680, Note_off_c, 4, 43, 80
4, 127680, Note_on_c, 4, 43, 95
4, 127920, Note_off_c, 4, 43, 80
4, 127920, Note_on_c, 4, 42, 95
4, 128160, Note_off_c, 4, 42, 80
4, 128160, Note_on_c, 4, 40, 95
4, 128400, Note_off_c, 4, 40, 80
4, 128400, Note_on_c, 4, 38, 95
4, 128640, Note_off_c, 4, 38, 80
4, 128640, Note_on_c, 4, 38, 95
4, 128880, Note_off_c, 4, 38, 80
4, 128880, Note_on_c, 4, 38, 95
4, 129120, Note_off_c, 4, 38, 80
4, 129120, Note_on_c, 4, 38, 95
4, 129360, Note_off_c, 4, 38, 80
4, 129360, Note_on_c, 4, 33, 95
4, 129600, Note_off_c, 4, 33, 80
4, 129600, Note_on_c, 4, 38, 95
4, 129840, Note_off_c, 4, 38, 80
4, 129840, Note_on_c, 4, 38, 95
4, 130080, Note_off_c, 4, 38, 80
4, 130080, Note_on_c, 4, 38, 95
4, 130320, Note_off_c, 4, 38, 80
4, 130320, Note_on_c, 4, 38, 95
4, 130560, Note_off_c, 4, 38, 80
4, 130560, Note_on_c, 4, 33, 95
4, 130800, Note_off_c, 4, 33, 80
4, 130800, Note_on_c, 4, 33, 95
4, 131040, Note_off_c, 4, 33, 80
4, 131040, Note_on_c, 4, 33, 95
4, 131280, Note_off_c, 4, 33, 80
4, 131280, Note_on_c, 4, 28, 95
4, 131520, Note_off_c, 4, 28, 80
4, 131520, Note_on_c, 4, 33, 95
4, 131760, Note_off_c, 4, 33, 80
4, 131760, Note_on_c, 4, 33, 95
4, 132000, Note_off_c, 4, 33, 80
4, 132000, Note_on_c, 4, 33, 95
4, 132240, Note_off_c, 4, 33, 80
4, 132240, Note_on_c, 4, 33, 95
4, 132480, Note_off_c, 4, 33, 80
4, 132480, Note_on_c, 4, 40, 95
4, 132720, Note_off_c, 4, 40, 80
4, 132720, Note_on_c, 4, 40, 95
4, 132960, Note_off_c, 4, 40, 80
4, 132960, Note_on_c, 4, 40, 95
4, 133200, Note_off_c, 4, 40, 80
4, 133200, Note_on_c, 4, 35, 95
4, 133440, Note_off_c, 4, 35, 80
4, 133440, Note_on_c, 4, 40, 95
4, 133680, Note_off_c, 4, 40, 80
4, 133680, Note_on_c, 4, 40, 95
4, 133920, Note_off_c, 4, 40, 80
4, 133920, Note_on_c, 4, 40, 95
4, 134160, Note_off_c, 4, 40, 80
4, 134160, Note_on_c, 4, 40, 95
4, 134400, Note_off_c, 4, 40, 80
4, 134400, Note_on_c, 4, 43, 95
4, 134640, Note_off_c, 4, 43, 80
4, 134640, Note_on_c, 4, 43, 95
4, 134880, Note_off_c, 4, 43, 80
4, 134880, Note_on_c, 4, 43, 95
4, 135120, Note_off_c, 4, 43, 80
4, 135120, Note_on_c, 4, 43, 95
4, 135360, Note_off_c, 4, 43, 80
4, 135360, Note_on_c, 4, 43, 95
4, 135600, Note_off_c, 4, 43, 80
4, 135600, Note_on_c, 4, 42, 95
4, 135840, Note_off_c, 4, 42, 80
4, 135840, Note_on_c, 4, 40, 95
4, 136080, Note_off_c, 4, 40, 80
4, 136080, Note_on_c, 4, 38, 95
4, 136320, Note_off_c, 4, 38, 80
4, 136320, Note_on_c, 4, 35, 95
4, 136800, Note_off_c, 4, 35, 80
4, 137040, Note_on_c, 4, 35, 95
4, 137280, Note_off_c, 4, 35, 80
4, 137280, Note_on_c, 4, 35, 95
4, 137760, Note_off_c, 4, 35, 80
4, 138240, Note_on_c, 4, 36, 95
4, 138720, Note_off_c, 4, 36, 80
4, 138960, Note_on_c, 4, 36, 95
4, 139200, Note_off_c, 4, 36, 80
4, 139200, Note_on_c, 4, 36, 95
4, 139680, Note_off_c, 4, 36, 80
4, 140160, Note_on_c, 4, 33, 95
4, 140640, Note_off_c, 4, 33, 80
4, 140880, Note_on_c, 4, 33, 95
4, 141120, Note_off_c, 4, 33, 80
4, 141120, Note_on_c, 4, 33, 95
4, 141360, Note_off_c, 4, 33, 80
4, 141360, Note_on_c, 4, 33, 95
4, 141600, Note_off_c, 4, 33, 80
4, 141600, Note_on_c, 4, 33, 95
4, 141840, Note_off_c, 4, 33, 80
4, 141840, Note_on_c, 4, 33, 95
4, 142080, Note_off_c, 4, 33, 80
4, 142080, Note_on_c, 4, 38, 95
4, 142320, Note_off_c, 4, 38, 80
4, 142320, Note_on_c, 4, 38, 95
4, 142560, Note_off_c, 4, 38, 80
4, 142560, Note_on_c, 4, 38, 95
4, 142800, Note_off_c, 4, 38, 80
4, 142800, Note_on_c, 4, 38, 95
4, 143040, Note_off_c, 4, 38, 80
4, 143040, Note_on_c, 4, 38, 95
4, 143280, Note_off_c, 4, 38, 80
4, 143280, Note_on_c, 4, 38, 95
4, 143520, Note_off_c, 4, 38, 80
4, 143520, Note_on_c, 4, 38, 95
4, 143760, Note_off_c, 4, 38, 80
4, 143760, Note_on_c, 4, 38, 95
4, 144000, Note_off_c, 4, 38, 80
4, 144000, Note_on_c, 4, 38, 95
4, 144240, Note_off_c, 4, 38, 80
4, 144480, Note_on_c, 4, 38, 95
4, 144720, Note_off_c, 4, 38, 80
4, 144720, Note_on_c, 4, 38, 95
4, 144960, Note_off_c, 4, 38, 80
4, 144960, Note_on_c, 4, 42, 95
4, 145200, Note_off_c, 4, 42, 80
4, 145200, Note_on_c, 4, 42, 95
4, 145440, Note_off_c, 4, 42, 80
4, 145440, Note_on_c, 4, 43, 95
4, 145680, Note_off_c, 4, 43, 80
4, 145680, Note_on_c, 4, 33, 95
4, 145920, Note_off_c, 4, 33, 80
4, 145920, Note_on_c, 4, 31, 95
4, 146400, Note_off_c, 4, 31, 80
4, 146400, Note_on_c, 4, 35, 95
4, 146640, Note_off_c, 4, 35, 80
4, 146640, Note_on_c, 4, 33, 95
4, 146880, Note_off_c, 4, 33, 80
4, 146880, Note_on_c, 4, 33, 95
4, 147120, Note_off_c, 4, 33, 80
4, 147120, Note_on_c, 4, 37, 95
4, 147360, Note_off_c, 4, 37, 80
4, 147360, Note_on_c, 4, 38, 95
4, 147600, Note_off_c, 4, 38, 80
4, 147600, Note_on_c, 4, 40, 95
4, 147840, Note_off_c, 4, 40, 80
4, 147840, Note_on_c, 4, 38, 95
4, 148320, Note_off_c, 4, 38, 80
4, 148320, Note_on_c, 4, 38, 95
4, 148560, Note_off_c, 4, 38, 80
4, 148560, Note_on_c, 4, 38, 95
4, 148800, Note_off_c, 4, 38, 80
4, 148800, Note_on_c, 4, 42, 95
4, 149040, Note_off_c, 4, 42, 80
4, 149040, Note_on_c, 4, 42, 95
4, 149280, Note_off_c, 4, 42, 80
4, 149280, Note_on_c, 4, 43, 95
4, 149520, Note_off_c, 4, 43, 80
4, 149520, Note_on_c, 4, 33, 95
4, 149760, Note_off_c, 4, 33, 80
4, 149760, Note_on_c, 4, 31, 95
4, 150240, Note_off_c, 4, 31, 80
4, 150240, Note_on_c, 4, 35, 95
4, 150480, Note_off_c, 4, 35, 80
4, 150480, Note_on_c, 4, 33, 95
4, 150720, Note_off_c, 4, 33, 80
4, 150720, Note_on_c, 4, 33, 95
4, 150960, Note_off_c, 4, 33, 80
4, 150960, Note_on_c, 4, 37, 95
4, 151200, Note_off_c, 4, 37, 80
4, 151200, Note_on_c, 4, 38, 95
4, 151440, Note_off_c, 4, 38, 80
4, 151440, Note_on_c, 4, 40, 95
4, 151680, Note_off_c, 4, 40, 80
4, 151680, Note_on_c, 4, 38, 95
4, 152160, Note_off_c, 4, 38, 80
4, 152160, Note_on_c, 4, 38, 95
4, 152400, Note_off_c, 4, 38, 80
4, 152400, Note_on_c, 4, 38, 95
4, 152640, Note_off_c, 4, 38, 80
4, 152640, Note_on_c, 4, 42, 95
4, 152880, Note_off_c, 4, 42, 80
4, 152880, Note_on_c, 4, 42, 95
4, 153120, Note_off_c, 4, 42, 80
4, 153120, Note_on_c, 4, 43, 95
4, 153360, Note_off_c, 4, 43, 80
4, 153360, Note_on_c, 4, 33, 95
4, 153600, Note_off_c, 4, 33, 80
4, 153600, Note_on_c, 4, 31, 95
4, 154080, Note_off_c, 4, 31, 80
4, 154080, Note_on_c, 4, 35, 95
4, 154320, Note_off_c, 4, 35, 80
4, 154320, Note_on_c, 4, 33, 95
4, 154560, Note_off_c, 4, 33, 80
4, 154560, Note_on_c, 4, 33, 95
4, 154800, Note_off_c, 4, 33, 80
4, 154800, Note_on_c, 4, 37, 95
4, 155040, Note_off_c, 4, 37, 80
4, 155040, Note_on_c, 4, 38, 95
4, 155280, Note_off_c, 4, 38, 80
4, 155280, Note_on_c, 4, 40, 95
4, 155520, Note_off_c, 4, 40, 80
4, 155520, Note_on_c, 4, 38, 95
4, 156000, Note_off_c, 4, 38, 80
4, 156000, Note_on_c, 4, 38, 95
4, 156240, Note_off_c, 4, 38, 80
4, 156240, Note_on_c, 4, 38, 95
4, 156480, Note_off_c, 4, 38, 80
4, 156480, Note_on_c, 4, 42, 95
4, 156720, Note_off_c, 4, 42, 80
4, 156720, Note_on_c, 4, 42, 95
4, 156960, Note_off_c, 4, 42, 80
4, 156960, Note_on_c, 4, 43, 95
4, 157200, Note_off_c, 4, 43, 80
4, 157200, Note_on_c, 4, 33, 95
4, 157440, Note_off_c, 4, 33, 80
4, 157440, Note_on_c, 4, 31, 95
4, 157920, Note_off_c, 4, 31, 80
4, 157920, Note_on_c, 4, 35, 95
4, 158160, Note_off_c, 4, 35, 80
4, 158160, Note_on_c, 4, 33, 95
4, 158400, Note_off_c, 4, 33, 80
4, 158400, Note_on_c, 4, 33, 95
4, 158640, Note_off_c, 4, 33, 80
4, 158640, Note_on_c, 4, 37, 95
4, 158880, Note_off_c, 4, 37, 80
4, 158880, Note_on_c, 4, 38, 95
4, 159120, Note_off_c, 4, 38, 80
4, 159120, Note_on_c, 4, 40, 95
4, 159360, Note_off_c, 4, 40, 80
4, 159360, Note_on_c, 4, 38, 95
4, 159840, Note_off_c, 4, 38, 80
4, 159840, Note_on_c, 4, 38, 95
4, 160080, Note_off_c, 4, 38, 80
4, 160080, Note_on_c, 4, 38, 95
4, 160320, Note_off_c, 4, 38, 80
4, 160320, Note_on_c, 4, 42, 95
4, 160560, Note_off_c, 4, 42, 80
4, 160560, Note_on_c, 4, 42, 95
4, 160800, Note_off_c, 4, 42, 80
4, 160800, Note_on_c, 4, 43, 95
4, 161040, Note_off_c, 4, 43, 80
4, 161040, Note_on_c, 4, 33, 95
4, 161280, Note_off_c, 4, 33, 80
4, 161280, Note_on_c, 4, 31, 95
4, 161760, Note_off_c, 4, 31, 80
4, 161760, Note_on_c, 4, 35, 95
4, 162000, Note_off_c, 4, 35, 80
4, 162000, Note_on_c, 4, 33, 95
4, 162240, Note_off_c, 4, 33, 80
4, 162240, Note_on_c, 4, 33, 95
4, 162480, Note_off_c, 4, 33, 80
4, 162480, Note_on_c, 4, 37, 95
4, 162720, Note_off_c, 4, 37, 80
4, 162720, Note_on_c, 4, 38, 95
4, 162960, Note_off_c, 4, 38, 80
4, 162960, Note_on_c, 4, 40, 95
4, 163200, Note_off_c, 4, 40, 80
4, 163200, Note_on_c, 4, 38, 95
4, 163680, Note_off_c, 4, 38, 80
4, 163680, Note_on_c, 4, 38, 95
4, 163920, Note_off_c, 4, 38, 80
4, 163920, Note_on_c, 4, 38, 95
4, 164160, Note_off_c, 4, 38, 80
4, 164160, Note_on_c, 4, 42, 95
4, 164400, Note_off_c, 4, 42, 80
4, 164400, Note_on_c, 4, 42, 95
4, 164640, Note_off_c, 4, 42, 80
4, 164640, Note_on_c, 4, 43, 95
4, 164880, Note_off_c, 4, 43, 80
4, 164880, Note_on_c, 4, 33, 95
4, 165120, Note_off_c, 4, 33, 80
4, 165120, Note_on_c, 4, 31, 95
4, 165600, Note_off_c, 4, 31, 80
4, 165600, Note_on_c, 4, 35, 95
4, 165840, Note_off_c, 4, 35, 80
4, 165840, Note_on_c, 4, 33, 95
4, 166080, Note_off_c, 4, 33, 80
4, 166080, Note_on_c, 4, 33, 95
4, 166320, Note_off_c, 4, 33, 80
4, 166320, Note_on_c, 4, 37, 95
4, 166560, Note_off_c, 4, 37, 80
4, 166560, Note_on_c, 4, 38, 95
4, 166800, Note_off_c, 4, 38, 80
4, 166800, Note_on_c, 4, 40, 95
4, 167040, Note_off_c, 4, 40, 80
4, 167040, Note_on_c, 4, 38, 95
4, 167520, Note_off_c, 4, 38, 80
4, 167520, Note_on_c, 4, 38, 95
4, 167760, Note_off_c, 4, 38, 80
4, 167760, Note_on_c, 4, 38, 95
4, 168000, Note_off_c, 4, 38, 80
4, 168000, Note_on_c, 4, 42, 95
4, 168240, Note_off_c, 4, 42, 80
4, 168240, Note_on_c, 4, 42, 95
4, 168480, Note_off_c, 4, 42, 80
4, 168480, Note_on_c, 4, 43, 95
4, 168720, Note_off_c, 4, 43, 80
4, 168720, Note_on_c, 4, 33, 95
4, 168960, Note_off_c, 4, 33, 80
4, 168960, Note_on_c, 4, 31, 95
4, 169440, Note_off_c, 4, 31, 80
4, 169440, Note_on_c, 4, 35, 95
4, 169680, Note_off_c, 4, 35, 80
4, 169680, Note_on_c, 4, 33, 95
4, 169920, Note_off_c, 4, 33, 80
4, 169920, Note_on_c, 4, 33, 95
4, 170160, Note_off_c, 4, 33, 80
4, 170160, Note_on_c, 4, 37, 95
4, 170400, Note_off_c, 4, 37, 80
4, 170400, Note_on_c, 4, 38, 95
4, 170640, Note_off_c, 4, 38, 80
4, 170640, Note_on_c, 4, 40, 95
4, 170880, Note_off_c, 4, 40, 80
4, 170880, Note_on_c, 4, 38, 95
4, 171360, Note_off_c, 4, 38, 80
4, 171360, Note_on_c, 4, 38, 95
4, 171600, Note_off_c, 4, 38, 80
4, 171600, Note_on_c, 4, 38, 95
4, 171840, Note_off_c, 4, 38, 80
4, 171840, Note_on_c, 4, 42, 95
4, 172080, Note_off_c, 4, 42, 80
4, 172080, Note_on_c, 4, 42, 95
4, 172320, Note_off_c, 4, 42, 80
4, 172320, Note_on_c, 4, 43, 95
4, 172560, Note_off_c, 4, 43, 80
4, 172560, Note_on_c, 4, 33, 95
4, 172800, Note_off_c, 4, 33, 80
4, 172800, Note_on_c, 4, 31, 95
4, 173280, Note_off_c, 4, 31, 80
4, 173280, Note_on_c, 4, 35, 95
4, 173520, Note_off_c, 4, 35, 80
4, 173520, Note_on_c, 4, 33, 95
4, 173760, Note_off_c, 4, 33, 80
4, 173760, Note_on_c, 4, 33, 95
4, 174000, Note_off_c, 4, 33, 80
4, 174000, Note_on_c, 4, 37, 95
4, 174240, Note_off_c, 4, 37, 80
4, 174240, Note_on_c, 4, 38, 95
4, 174480, Note_off_c, 4, 38, 80
4, 174480, Note_on_c, 4, 40, 95
4, 174720, Note_off_c, 4, 40, 80
4, 174720, Note_on_c, 4, 38, 95
4, 175200, Note_off_c, 4, 38, 80
4, 175200, Note_on_c, 4, 38, 95
4, 175440, Note_off_c, 4, 38, 80
4, 175440, Note_on_c, 4, 38, 95
4, 175680, Note_off_c, 4, 38, 80
4, 175680, Note_on_c, 4, 42, 95
4, 175920, Note_off_c, 4, 42, 80
4, 175920, Note_on_c, 4, 42, 95
4, 176160, Note_off_c, 4, 42, 80
4, 176160, Note_on_c, 4, 43, 95
4, 176400, Note_off_c, 4, 43, 80
4, 176400, Note_on_c, 4, 33, 95
4, 176640, Note_off_c, 4, 33, 80
4, 176640, Note_on_c, 4, 31, 95
4, 177120, Note_off_c, 4, 31, 80
4, 177120, Note_on_c, 4, 35, 95
4, 177360, Note_off_c, 4, 35, 80
4, 177360, Note_on_c, 4, 33, 95
4, 177600, Note_off_c, 4, 33, 80
4, 177600, Note_on_c, 4, 33, 95
4, 177840, Note_off_c, 4, 33, 80
4, 177840, Note_on_c, 4, 37, 95
4, 178080, Note_off_c, 4, 37, 80
4, 178080, Note_on_c, 4, 38, 95
4, 178320, Note_off_c, 4, 38, 80
4, 178320, Note_on_c, 4, 40, 95
4, 178560, Note_off_c, 4, 40, 80
4, 178560, Note_on_c, 4, 38, 95
4, 179040, Note_off_c, 4, 38, 80
4, 179040, Note_on_c, 4, 38, 95
4, 179280, Note_off_c, 4, 38, 80
4, 179280, Note_on_c, 4, 38, 95
4, 179520, Note_off_c, 4, 38, 80
4, 179520, Note_on_c, 4, 42, 95
4, 179760, Note_off_c, 4, 42, 80
4, 179760, Note_on_c, 4, 42, 95
4, 180000, Note_off_c, 4, 42, 80
4, 180000, Note_on_c, 4, 43, 95
4, 180240, Note_off_c, 4, 43, 80
4, 180240, Note_on_c, 4, 33, 95
4, 180480, Note_off_c, 4, 33, 80
4, 180480, Note_on_c, 4, 31, 95
4, 180960, Note_off_c, 4, 31, 80
4, 180960, Note_on_c, 4, 35, 95
4, 181200, Note_off_c, 4, 35, 80
4, 181200, Note_on_c, 4, 33, 95
4, 181440, Note_off_c, 4, 33, 80
4, 181440, Note_on_c, 4, 33, 95
4, 181680, Note_off_c, 4, 33, 80
4, 181680, Note_on_c, 4, 37, 95
4, 181920, Note_off_c, 4, 37, 80
4, 181920, Note_on_c, 4, 38, 95
4, 182160, Note_off_c, 4, 38, 80
4, 182160, Note_on_c, 4, 40, 95
4, 182400, Note_off_c, 4, 40, 80
4, 182400, Note_on_c, 4, 38, 95
4, 182880, Note_off_c, 4, 38, 80
4, 182880, Note_on_c, 4, 38, 95
4, 183120, Note_off_c, 4, 38, 80
4, 183120, Note_on_c, 4, 38, 95
4, 183360, Note_off_c, 4, 38, 80
4, 183360, Note_on_c, 4, 42, 95
4, 183600, Note_off_c, 4, 42, 80
4, 183600, Note_on_c, 4, 42, 95
4, 183840, Note_off_c, 4, 42, 80
4, 183840, Note_on_c, 4, 43, 95
4, 184080, Note_off_c, 4, 43, 80
4, 184080, Note_on_c, 4, 33, 95
4, 184320, Note_off_c, 4, 33, 80
4, 184320, Note_on_c, 4, 31, 95
4, 184800, Note_off_c, 4, 31, 80
4, 184800, Note_on_c, 4, 35, 95
4, 185040, Note_off_c, 4, 35, 80
4, 185040, Note_on_c, 4, 33, 95
4, 185280, Note_off_c, 4, 33, 80
4, 185280, Note_on_c, 4, 33, 95
4, 185520, Note_off_c, 4, 33, 80
4, 185520, Note_on_c, 4, 37, 95
4, 185760, Note_off_c, 4, 37, 80
4, 185760, Note_on_c, 4, 38, 95
4, 186000, Note_off_c, 4, 38, 80
4, 186000, Note_on_c, 4, 40, 95
4, 186240, Note_off_c, 4, 40, 80
4, 186240, Note_on_c, 4, 38, 95
4, 186720, Note_off_c, 4, 38, 80
4, 186720, Note_on_c, 4, 38, 95
4, 186960, Note_off_c, 4, 38, 80
4, 186960, Note_on_c, 4, 38, 95
4, 187200, Note_off_c, 4, 38, 80
4, 187200, Note_on_c, 4, 42, 95
4, 187440, Note_off_c, 4, 42, 80
4, 187440, Note_on_c, 4, 42, 95
4, 187680, Note_off_c, 4, 42, 80
4, 187680, Note_on_c, 4, 43, 95
4, 187920, Note_off_c, 4, 43, 80
4, 187920, Note_on_c, 4, 33, 95
4, 188160, Note_off_c, 4, 33, 80
4, 188160, Note_on_c, 4, 31, 95
4, 188640, Note_off_c, 4, 31, 80
4, 188640, Note_on_c, 4, 35, 95
4, 188880, Note_off_c, 4, 35, 80
4, 188880, Note_on_c, 4, 33, 95
4, 189120, Note_off_c, 4, 33, 80
4, 189120, Note_on_c, 4, 33, 95
4, 189360, Note_off_c, 4, 33, 80
4, 189360, Note_on_c, 4, 37, 95
4, 189600, Note_off_c, 4, 37, 80
4, 189600, Note_on_c, 4, 38, 95
4, 189840, Note_off_c, 4, 38, 80
4, 189840, Note_on_c, 4, 40, 95
4, 190080, Note_off_c, 4, 40, 80
4, 190080, Note_on_c, 4, 38, 95
4, 190560, Note_off_c, 4, 38, 80
4, 190560, Note_on_c, 4, 38, 95
4, 190800, Note_off_c, 4, 38, 80
4, 190800, Note_on_c, 4, 38, 95
4, 191040, Note_off_c, 4, 38, 80
4, 191040, Note_on_c, 4, 42, 95
4, 191280, Note_off_c, 4, 42, 80
4, 191280, Note_on_c, 4, 42, 95
4, 191520, Note_off_c, 4, 42, 80
4, 191520, Note_on_c, 4, 43, 95
4, 191760, Note_off_c, 4, 43, 80
4, 191760, Note_on_c, 4, 33, 95
4, 192000, Note_off_c, 4, 33, 80
4, 192000, Note_on_c, 4, 31, 95
4, 192480, Note_off_c, 4, 31, 80
4, 192480, Note_on_c, 4, 35, 95
4, 192720, Note_off_c, 4, 35, 80
4, 192720, Note_on_c, 4, 33, 95
4, 192960, Note_off_c, 4, 33, 80
4, 192960, Note_on_c, 4, 33, 95
4, 193200, Note_off_c, 4, 33, 80
4, 193200, Note_on_c, 4, 37, 95
4, 193440, Note_off_c, 4, 37, 80
4, 193440, Note_on_c, 4, 38, 95
4, 193680, Note_off_c, 4, 38, 80
4, 193680, Note_on_c, 4, 40, 95
4, 193920, Note_off_c, 4, 40, 80
4, 193920, Note_on_c, 4, 38, 95
4, 193920, Control_c, 4, 7, 102
4, 193920, Control_c, 5, 7, 102
4, 194040, Control_c, 4, 7, 100
4, 194040, Control_c, 5, 7, 100
4, 194160, Control_c, 4, 7, 98
4, 194160, Control_c, 5, 7, 98
4, 194280, Control_c, 4, 7, 96
4, 194280, Control_c, 5, 7, 96
4, 194400, Control_c, 4, 7, 93
4, 194400, Control_c, 5, 7, 93
4, 194520, Control_c, 4, 7, 91
4, 194520, Control_c, 5, 7, 91
4, 194640, Control_c, 4, 7, 89
4, 194640, Control_c, 5, 7, 89
4, 194760, Control_c, 4, 7, 87
4, 194760, Control_c, 5, 7, 87
4, 194880, Control_c, 4, 7, 85
4, 194880, Control_c, 5, 7, 85
4, 195000, Control_c, 4, 7, 83
4, 195000, Control_c, 5, 7, 83
4, 195120, Control_c, 4, 7, 81
4, 195120, Control_c, 5, 7, 81
4, 195240, Control_c, 4, 7, 79
4, 195240, Control_c, 5, 7, 79
4, 195360, Control_c, 4, 7, 76
4, 195360, Control_c, 5, 7, 76
4, 195480, Control_c, 4, 7, 74
4, 195480, Control_c, 5, 7, 74
4, 195600, Control_c, 4, 7, 72
4, 195600, Control_c, 5, 7, 72
4, 195720, Control_c, 4, 7, 70
4, 195720, Control_c, 5, 7, 70
4, 195840, Control_c, 4, 7, 68
4, 195840, Control_c, 5, 7, 68
4, 195960, Control_c, 4, 7, 66
4, 195960, Control_c, 5, 7, 66
4, 196080, Control_c, 4, 7, 64
4, 196080, Control_c, 5, 7, 64
4, 196200, Control_c, 4, 7, 62
4, 196200, Control_c, 5, 7, 62
4, 196320, Control_c, 4, 7, 59
4, 196320, Control_c, 5, 7, 59
4, 196440, Control_c, 4, 7, 57
4, 196440, Control_c, 5, 7, 57
4, 196560, Control_c, 4, 7, 55
4, 196560, Control_c, 5, 7, 55
4, 196680, Control_c, 4, 7, 53
4, 196680, Control_c, 5, 7, 53
4, 196800, Control_c, 4, 7, 51
4, 196800, Control_c, 5, 7, 51
4, 196920, Control_c, 4, 7, 49
4, 196920, Control_c, 5, 7, 49
4, 197040, Control_c, 4, 7, 47
4, 197040, Control_c, 5, 7, 47
4, 197160, Control_c, 4, 7, 45
4, 197160, Control_c, 5, 7, 45
4, 197280, Control_c, 4, 7, 42
4, 197280, Control_c, 5, 7, 42
4, 197400, Control_c, 4, 7, 40
4, 197400, Control_c, 5, 7, 40
4, 197520, Control_c, 4, 7, 38
4, 197520, Control_c, 5, 7, 38
4, 197640, Control_c, 4, 7, 36
4, 197640, Control_c, 5, 7, 36
4, 197760, Control_c, 4, 7, 34
4, 197760, Control_c, 5, 7, 34
4, 197880, Control_c, 4, 7, 32
4, 197880, Control_c, 5, 7, 32
4, 198000, Control_c, 4, 7, 30
4, 198000, Control_c, 5, 7, 30
4, 198120, Control_c, 4, 7, 28
4, 198120, Control_c, 5, 7, 28
4, 198240, Control_c, 4, 7, 25
4, 198240, Control_c, 5, 7, 25
4, 198360, Control_c, 4, 7, 23
4, 198360, Control_c, 5, 7, 23
4, 198480, Control_c, 4, 7, 21
4, 198480, Control_c, 5, 7, 21
4, 198600, Control_c, 4, 7, 19
4, 198600, Control_c, 5, 7, 19
4, 198720, Control_c, 4, 7, 17
4, 198720, Control_c, 5, 7, 17
4, 198840, Control_c, 4, 7, 15
4, 198840, Control_c, 5, 7, 15
4, 198960, Control_c, 4, 7, 13
4, 198960, Control_c, 5, 7, 13
4, 199080, Control_c, 4, 7, 11
4, 199080, Control_c, 5, 7, 11
4, 199200, Control_c, 4, 7, 8
4, 199200, Control_c, 5, 7, 8
4, 199320, Control_c, 4, 7, 6
4, 199320, Control_c, 5, 7, 6
4, 199440, Control_c, 4, 7, 4
4, 199440, Control_c, 5, 7, 4
4, 199560, Control_c, 4, 7, 2
4, 199560, Control_c, 5, 7, 2
4, 199680, Note_off_c, 4, 38, 80
4, 199680, Control_c, 4, 7, 0
4, 199680, Control_c, 5, 7, 0
4, 199680, End_track
5, 0, Start_track
5, 0, Title_t, "David Lovering"
5, 0, Control_c, 9, 100, 0
5, 0, Control_c, 9, 101, 0
5, 0, Control_c, 9, 6, 12
5, 0, Pitch_bend_c, 9, 8192
5, 0, Control_c, 9, 101, 0
5, 0, Control_c, 9, 100, 1
5, 0, Control_c, 9, 6, 64
5, 0, Control_c, 9, 38, 0
5, 0, Control_c, 9, 101, 127
5, 0, Control_c, 9, 100, 127
5, 0, Program_c, 9, 0
5, 0, Control_c, 9, 0, 0
5, 0, Control_c, 9, 7, 104
5, 0, Control_c, 9, 10, 64
5, 0, Control_c, 9, 93, 0
5, 0, Control_c, 9, 91, 0
5, 0, Control_c, 9, 92, 0
5, 0, Control_c, 9, 95, 0
5, 3600, Note_on_c, 9, 37, 127
5, 3840, Note_off_c, 9, 37, 80
5, 3840, Note_on_c, 9, 42, 95
5, 3840, Note_on_c, 9, 35, 95
5, 4080, Note_off_c, 9, 42, 80
5, 4080, Note_off_c, 9, 35, 80
5, 4080, Note_on_c, 9, 42, 95
5, 4320, Note_off_c, 9, 42, 80
5, 4320, Note_on_c, 9, 42, 95
5, 4320, Note_on_c, 9, 38, 95
5, 4560, Note_off_c, 9, 42, 80
5, 4560, Note_off_c, 9, 38, 80
5, 4560, Note_on_c, 9, 42, 95
5, 4800, Note_off_c, 9, 42, 80
5, 4800, Note_on_c, 9, 42, 95
5, 4800, Note_on_c, 9, 35, 95
5, 5040, Note_off_c, 9, 42, 80
5, 5040, Note_off_c, 9, 35, 80
5, 5040, Note_on_c, 9, 42, 95
5, 5040, Note_on_c, 9, 35, 95
5, 5280, Note_off_c, 9, 42, 80
5, 5280, Note_off_c, 9, 35, 80
5, 5280, Note_on_c, 9, 42, 95
5, 5280, Note_on_c, 9, 38, 95
5, 5520, Note_off_c, 9, 42, 80
5, 5520, Note_off_c, 9, 38, 80
5, 5520, Note_on_c, 9, 42, 95
5, 5760, Note_off_c, 9, 42, 80
5, 5760, Note_on_c, 9, 42, 95
5, 5760, Note_on_c, 9, 35, 95
5, 6000, Note_off_c, 9, 42, 80
5, 6000, Note_off_c, 9, 35, 80
5, 6000, Note_on_c, 9, 42, 95
5, 6240, Note_off_c, 9, 42, 80
5, 6240, Note_on_c, 9, 42, 95
5, 6240, Note_on_c, 9, 38, 95
5, 6480, Note_off_c, 9, 42, 80
5, 6480, Note_off_c, 9, 38, 80
5, 6480, Note_on_c, 9, 42, 95
5, 6720, Note_off_c, 9, 42, 80
5, 6720, Note_on_c, 9, 42, 95
5, 6720, Note_on_c, 9, 35, 95
5, 6960, Note_off_c, 9, 42, 80
5, 6960, Note_off_c, 9, 35, 80
5, 6960, Note_on_c, 9, 42, 95
5, 6960, Note_on_c, 9, 35, 95
5, 7200, Note_off_c, 9, 42, 80
5, 7200, Note_off_c, 9, 35, 80
5, 7200, Note_on_c, 9, 42, 95
5, 7200, Note_on_c, 9, 38, 95
5, 7440, Note_off_c, 9, 42, 80
5, 7440, Note_off_c, 9, 38, 80
5, 7440, Note_on_c, 9, 42, 95
5, 7680, Note_off_c, 9, 42, 80
5, 7680, Note_on_c, 9, 42, 95
5, 7680, Note_on_c, 9, 35, 95
5, 7920, Note_off_c, 9, 42, 80
5, 7920, Note_off_c, 9, 35, 80
5, 7920, Note_on_c, 9, 42, 95
5, 8160, Note_off_c, 9, 42, 80
5, 8160, Note_on_c, 9, 42, 95
5, 8160, Note_on_c, 9, 38, 95
5, 8400, Note_off_c, 9, 42, 80
5, 8400, Note_off_c, 9, 38, 80
5, 8400, Note_on_c, 9, 42, 95
5, 8640, Note_off_c, 9, 42, 80
5, 8640, Note_on_c, 9, 42, 95
5, 8640, Note_on_c, 9, 35, 95
5, 8880, Note_off_c, 9, 42, 80
5, 8880, Note_off_c, 9, 35, 80
5, 8880, Note_on_c, 9, 42, 95
5, 8880, Note_on_c, 9, 35, 95
5, 9120, Note_off_c, 9, 42, 80
5, 9120, Note_off_c, 9, 35, 80
5, 9120, Note_on_c, 9, 42, 95
5, 9120, Note_on_c, 9, 38, 95
5, 9360, Note_off_c, 9, 42, 80
5, 9360, Note_off_c, 9, 38, 80
5, 9360, Note_on_c, 9, 42, 95
5, 9600, Note_off_c, 9, 42, 80
5, 9600, Note_on_c, 9, 42, 95
5, 9600, Note_on_c, 9, 35, 95
5, 9840, Note_off_c, 9, 42, 80
5, 9840, Note_off_c, 9, 35, 80
5, 9840, Note_on_c, 9, 42, 95
5, 10080, Note_off_c, 9, 42, 80
5, 10080, Note_on_c, 9, 42, 95
5, 10080, Note_on_c, 9, 38, 95
5, 10320, Note_off_c, 9, 42, 80
5, 10320, Note_off_c, 9, 38, 80
5, 10320, Note_on_c, 9, 42, 95
5, 10560, Note_off_c, 9, 42, 80
5, 10560, Note_on_c, 9, 42, 95
5, 10560, Note_on_c, 9, 35, 95
5, 10800, Note_off_c, 9, 42, 80
5, 10800, Note_off_c, 9, 35, 80
5, 10800, Note_on_c, 9, 42, 95
5, 10800, Note_on_c, 9, 35, 95
5, 11040, Note_off_c, 9, 42, 80
5, 11040, Note_off_c, 9, 35, 80
5, 11040, Note_on_c, 9, 42, 95
5, 11040, Note_on_c, 9, 38, 95
5, 11280, Note_off_c, 9, 42, 80
5, 11280, Note_off_c, 9, 38, 80
5, 11280, Note_on_c, 9, 42, 95
5, 11520, Note_off_c, 9, 42, 80
5, 11520, Note_on_c, 9, 42, 95
5, 11520, Note_on_c, 9, 35, 95
5, 11760, Note_off_c, 9, 42, 80
5, 11760, Note_off_c, 9, 35, 80
5, 11760, Note_on_c, 9, 42, 95
5, 12000, Note_off_c, 9, 42, 80
5, 12000, Note_on_c, 9, 46, 95
5, 12000, Note_on_c, 9, 38, 95
5, 12240, Note_off_c, 9, 46, 80
5, 12240, Note_off_c, 9, 38, 80
5, 12240, Note_on_c, 9, 43, 95
5, 12360, Note_off_c, 9, 43, 80
5, 12360, Note_on_c, 9, 43, 95
5, 12480, Note_off_c, 9, 43, 80
5, 12480, Note_on_c, 9, 38, 95
5, 12720, Note_off_c, 9, 38, 80
5, 12720, Note_on_c, 9, 35, 95
5, 12960, Note_off_c, 9, 35, 80
5, 12960, Note_on_c, 9, 38, 95
5, 13200, Note_off_c, 9, 38, 80
5, 13200, Note_on_c, 9, 35, 95
5, 13440, Note_off_c, 9, 35, 80
5, 13440, Note_on_c, 9, 42, 95
5, 13440, Note_on_c, 9, 57, 95
5, 13440, Note_on_c, 9, 35, 95
5, 13680, Note_off_c, 9, 42, 80
5, 13680, Note_off_c, 9, 57, 80
5, 13680, Note_off_c, 9, 35, 80
5, 13680, Note_on_c, 9, 42, 95
5, 13920, Note_off_c, 9, 42, 80
5, 13920, Note_on_c, 9, 42, 95
5, 13920, Note_on_c, 9, 38, 95
5, 14160, Note_off_c, 9, 42, 80
5, 14160, Note_off_c, 9, 38, 80
5, 14160, Note_on_c, 9, 42, 95
5, 14160, Note_on_c, 9, 35, 95
5, 14400, Note_off_c, 9, 42, 80
5, 14400, Note_off_c, 9, 35, 80
5, 14400, Note_on_c, 9, 42, 95
5, 14640, Note_off_c, 9, 42, 80
5, 14640, Note_on_c, 9, 42, 95
5, 14640, Note_on_c, 9, 35, 95
5, 14880, Note_off_c, 9, 42, 80
5, 14880, Note_off_c, 9, 35, 80
5, 14880, Note_on_c, 9, 42, 95
5, 14880, Note_on_c, 9, 38, 95
5, 15120, Note_off_c, 9, 42, 80
5, 15120, Note_off_c, 9, 38, 80
5, 15120, Note_on_c, 9, 42, 95
5, 15120, Note_on_c, 9, 35, 95
5, 15360, Note_off_c, 9, 42, 80
5, 15360, Note_off_c, 9, 35, 80
5, 15360, Note_on_c, 9, 42, 95
5, 15360, Note_on_c, 9, 35, 95
5, 15600, Note_off_c, 9, 42, 80
5, 15600, Note_off_c, 9, 35, 80
5, 15600, Note_on_c, 9, 42, 95
5, 15840, Note_off_c, 9, 42, 80
5, 15840, Note_on_c, 9, 42, 95
5, 15840, Note_on_c, 9, 38, 95
5, 16080, Note_off_c, 9, 42, 80
5, 16080, Note_off_c, 9, 38, 80
5, 16080, Note_on_c, 9, 42, 95
5, 16080, Note_on_c, 9, 35, 95
5, 16320, Note_off_c, 9, 42, 80
5, 16320, Note_off_c, 9, 35, 80
5, 16320, Note_on_c, 9, 42, 95
5, 16560, Note_off_c, 9, 42, 80
5, 16560, Note_on_c, 9, 42, 95
5, 16560, Note_on_c, 9, 35, 95
5, 16800, Note_off_c, 9, 42, 80
5, 16800, Note_off_c, 9, 35, 80
5, 16800, Note_on_c, 9, 42, 95
5, 16800, Note_on_c, 9, 38, 95
5, 17040, Note_off_c, 9, 42, 80
5, 17040, Note_off_c, 9, 38, 80
5, 17040, Note_on_c, 9, 42, 95
5, 17040, Note_on_c, 9, 35, 95
5, 17280, Note_off_c, 9, 42, 80
5, 17280, Note_off_c, 9, 35, 80
5, 17280, Note_on_c, 9, 42, 95
5, 17280, Note_on_c, 9, 35, 95
5, 17520, Note_off_c, 9, 42, 80
5, 17520, Note_off_c, 9, 35, 80
5, 17520, Note_on_c, 9, 42, 95
5, 17760, Note_off_c, 9, 42, 80
5, 17760, Note_on_c, 9, 42, 95
5, 17760, Note_on_c, 9, 38, 95
5, 18000, Note_off_c, 9, 42, 80
5, 18000, Note_off_c, 9, 38, 80
5, 18000, Note_on_c, 9, 42, 95
5, 18000, Note_on_c, 9, 35, 95
5, 18240, Note_off_c, 9, 42, 80
5, 18240, Note_off_c, 9, 35, 80
5, 18240, Note_on_c, 9, 42, 95
5, 18480, Note_off_c, 9, 42, 80
5, 18480, Note_on_c, 9, 42, 95
5, 18480, Note_on_c, 9, 35, 95
5, 18720, Note_off_c, 9, 42, 80
5, 18720, Note_off_c, 9, 35, 80
5, 18720, Note_on_c, 9, 42, 95
5, 18720, Note_on_c, 9, 38, 95
5, 18960, Note_off_c, 9, 42, 80
5, 18960, Note_off_c, 9, 38, 80
5, 18960, Note_on_c, 9, 42, 95
5, 18960, Note_on_c, 9, 35, 95
5, 19200, Note_off_c, 9, 42, 80
5, 19200, Note_off_c, 9, 35, 80
5, 19200, Note_on_c, 9, 42, 95
5, 19200, Note_on_c, 9, 35, 95
5, 19440, Note_off_c, 9, 42, 80
5, 19440, Note_off_c, 9, 35, 80
5, 19440, Note_on_c, 9, 42, 95
5, 19680, Note_off_c, 9, 42, 80
5, 19680, Note_on_c, 9, 42, 95
5, 19680, Note_on_c, 9, 38, 95
5, 19920, Note_off_c, 9, 42, 80
5, 19920, Note_off_c, 9, 38, 80
5, 19920, Note_on_c, 9, 42, 95
5, 19920, Note_on_c, 9, 35, 95
5, 20160, Note_off_c, 9, 42, 80
5, 20160, Note_off_c, 9, 35, 80
5, 20160, Note_on_c, 9, 42, 95
5, 20400, Note_off_c, 9, 42, 80
5, 20400, Note_on_c, 9, 42, 95
5, 20400, Note_on_c, 9, 35, 95
5, 20640, Note_off_c, 9, 42, 80
5, 20640, Note_off_c, 9, 35, 80
5, 20640, Note_on_c, 9, 42, 95
5, 20640, Note_on_c, 9, 38, 95
5, 20880, Note_off_c, 9, 42, 80
5, 20880, Note_off_c, 9, 38, 80
5, 20880, Note_on_c, 9, 42, 95
5, 20880, Note_on_c, 9, 35, 95
5, 21120, Note_off_c, 9, 42, 80
5, 21120, Note_off_c, 9, 35, 80
5, 21120, Note_on_c, 9, 42, 95
5, 21120, Note_on_c, 9, 35, 95
5, 21360, Note_off_c, 9, 42, 80
5, 21360, Note_off_c, 9, 35, 80
5, 21360, Note_on_c, 9, 42, 95
5, 21600, Note_off_c, 9, 42, 80
5, 21600, Note_on_c, 9, 42, 95
5, 21600, Note_on_c, 9, 38, 95
5, 21840, Note_off_c, 9, 42, 80
5, 21840, Note_off_c, 9, 38, 80
5, 21840, Note_on_c, 9, 42, 95
5, 21840, Note_on_c, 9, 35, 95
5, 22080, Note_off_c, 9, 42, 80
5, 22080, Note_off_c, 9, 35, 80
5, 22080, Note_on_c, 9, 42, 95
5, 22320, Note_off_c, 9, 42, 80
5, 22320, Note_on_c, 9, 42, 95
5, 22320, Note_on_c, 9, 35, 95
5, 22560, Note_off_c, 9, 42, 80
5, 22560, Note_off_c, 9, 35, 80
5, 22560, Note_on_c, 9, 42, 95
5, 22560, Note_on_c, 9, 38, 95
5, 22800, Note_off_c, 9, 42, 80
5, 22800, Note_off_c, 9, 38, 80
5, 22800, Note_on_c, 9, 42, 95
5, 22800, Note_on_c, 9, 35, 95
5, 23040, Note_off_c, 9, 42, 80
5, 23040, Note_off_c, 9, 35, 80
5, 23040, Note_on_c, 9, 42, 95
5, 23040, Note_on_c, 9, 35, 95
5, 23280, Note_off_c, 9, 42, 80
5, 23280, Note_off_c, 9, 35, 80
5, 23280, Note_on_c, 9, 42, 95
5, 23520, Note_off_c, 9, 42, 80
5, 23520, Note_on_c, 9, 42, 95
5, 23520, Note_on_c, 9, 38, 95
5, 23760, Note_off_c, 9, 42, 80
5, 23760, Note_off_c, 9, 38, 80
5, 23760, Note_on_c, 9, 42, 95
5, 23760, Note_on_c, 9, 35, 95
5, 24000, Note_off_c, 9, 42, 80
5, 24000, Note_off_c, 9, 35, 80
5, 24000, Note_on_c, 9, 42, 95
5, 24240, Note_off_c, 9, 42, 80
5, 24240, Note_on_c, 9, 42, 95
5, 24240, Note_on_c, 9, 35, 95
5, 24480, Note_off_c, 9, 42, 80
5, 24480, Note_off_c, 9, 35, 80
5, 24480, Note_on_c, 9, 42, 95
5, 24480, Note_on_c, 9, 38, 95
5, 24720, Note_off_c, 9, 42, 80
5, 24720, Note_off_c, 9, 38, 80
5, 24720, Note_on_c, 9, 42, 95
5, 24720, Note_on_c, 9, 35, 95
5, 24960, Note_off_c, 9, 42, 80
5, 24960, Note_off_c, 9, 35, 80
5, 24960, Note_on_c, 9, 42, 95
5, 24960, Note_on_c, 9, 35, 95
5, 25200, Note_off_c, 9, 42, 80
5, 25200, Note_off_c, 9, 35, 80
5, 25200, Note_on_c, 9, 42, 95
5, 25440, Note_off_c, 9, 42, 80
5, 25440, Note_on_c, 9, 42, 95
5, 25440, Note_on_c, 9, 38, 95
5, 25680, Note_off_c, 9, 42, 80
5, 25680, Note_off_c, 9, 38, 80
5, 25680, Note_on_c, 9, 42, 95
5, 25680, Note_on_c, 9, 35, 95
5, 25920, Note_off_c, 9, 42, 80
5, 25920, Note_off_c, 9, 35, 80
5, 25920, Note_on_c, 9, 42, 95
5, 26160, Note_off_c, 9, 42, 80
5, 26160, Note_on_c, 9, 42, 95
5, 26160, Note_on_c, 9, 35, 95
5, 26400, Note_off_c, 9, 42, 80
5, 26400, Note_off_c, 9, 35, 80
5, 26400, Note_on_c, 9, 42, 95
5, 26400, Note_on_c, 9, 38, 95
5, 26640, Note_off_c, 9, 42, 80
5, 26640, Note_off_c, 9, 38, 80
5, 26640, Note_on_c, 9, 42, 95
5, 26640, Note_on_c, 9, 35, 95
5, 26880, Note_off_c, 9, 42, 80
5, 26880, Note_off_c, 9, 35, 80
5, 26880, Note_on_c, 9, 42, 95
5, 26880, Note_on_c, 9, 35, 95
5, 27120, Note_off_c, 9, 42, 80
5, 27120, Note_off_c, 9, 35, 80
5, 27120, Note_on_c, 9, 42, 95
5, 27360, Note_off_c, 9, 42, 80
5, 27360, Note_on_c, 9, 42, 95
5, 27360, Note_on_c, 9, 38, 95
5, 27600, Note_off_c, 9, 42, 80
5, 27600, Note_off_c, 9, 38, 80
5, 27600, Note_on_c, 9, 42, 95
5, 27600, Note_on_c, 9, 35, 95
5, 27840, Note_off_c, 9, 42, 80
5, 27840, Note_off_c, 9, 35, 80
5, 27840, Note_on_c, 9, 42, 95
5, 28080, Note_off_c, 9, 42, 80
5, 28080, Note_on_c, 9, 42, 95
5, 28080, Note_on_c, 9, 35, 95
5, 28320, Note_off_c, 9, 42, 80
5, 28320, Note_off_c, 9, 35, 80
5, 28320, Note_on_c, 9, 42, 95
5, 28320, Note_on_c, 9, 38, 95
5, 28560, Note_off_c, 9, 42, 80
5, 28560, Note_off_c, 9, 38, 80
5, 28560, Note_on_c, 9, 42, 95
5, 28560, Note_on_c, 9, 35, 95
5, 28800, Note_off_c, 9, 42, 80
5, 28800, Note_off_c, 9, 35, 80
5, 28800, Note_on_c, 9, 42, 95
5, 28800, Note_on_c, 9, 35, 95
5, 29040, Note_off_c, 9, 42, 80
5, 29040, Note_off_c, 9, 35, 80
5, 29040, Note_on_c, 9, 42, 95
5, 29280, Note_off_c, 9, 42, 80
5, 29280, Note_on_c, 9, 42, 95
5, 29280, Note_on_c, 9, 38, 95
5, 29520, Note_off_c, 9, 42, 80
5, 29520, Note_off_c, 9, 38, 80
5, 29520, Note_on_c, 9, 42, 95
5, 29520, Note_on_c, 9, 35, 95
5, 29760, Note_off_c, 9, 42, 80
5, 29760, Note_off_c, 9, 35, 80
5, 29760, Note_on_c, 9, 42, 95
5, 30000, Note_off_c, 9, 42, 80
5, 30000, Note_on_c, 9, 42, 95
5, 30000, Note_on_c, 9, 35, 95
5, 30240, Note_off_c, 9, 42, 80
5, 30240, Note_off_c, 9, 35, 80
5, 30240, Note_on_c, 9, 42, 95
5, 30240, Note_on_c, 9, 38, 95
5, 30480, Note_off_c, 9, 42, 80
5, 30480, Note_off_c, 9, 38, 80
5, 30480, Note_on_c, 9, 42, 95
5, 30480, Note_on_c, 9, 35, 95
5, 30720, Note_off_c, 9, 42, 80
5, 30720, Note_off_c, 9, 35, 80
5, 30720, Note_on_c, 9, 42, 95
5, 30720, Note_on_c, 9, 35, 95
5, 30960, Note_off_c, 9, 42, 80
5, 30960, Note_off_c, 9, 35, 80
5, 30960, Note_on_c, 9, 42, 95
5, 31200, Note_off_c, 9, 42, 80
5, 31200, Note_on_c, 9, 42, 95
5, 31200, Note_on_c, 9, 38, 95
5, 31440, Note_off_c, 9, 42, 80
5, 31440, Note_off_c, 9, 38, 80
5, 31440, Note_on_c, 9, 42, 95
5, 31440, Note_on_c, 9, 35, 95
5, 31680, Note_off_c, 9, 42, 80
5, 31680, Note_off_c, 9, 35, 80
5, 31680, Note_on_c, 9, 42, 95
5, 31920, Note_off_c, 9, 42, 80
5, 31920, Note_on_c, 9, 42, 95
5, 31920, Note_on_c, 9, 35, 95
5, 32160, Note_off_c, 9, 42, 80
5, 32160, Note_off_c, 9, 35, 80
5, 32160, Note_on_c, 9, 42, 95
5, 32160, Note_on_c, 9, 38, 95
5, 32400, Note_off_c, 9, 42, 80
5, 32400, Note_off_c, 9, 38, 80
5, 32400, Note_on_c, 9, 42, 95
5, 32400, Note_on_c, 9, 35, 95
5, 32640, Note_off_c, 9, 42, 80
5, 32640, Note_off_c, 9, 35, 80
5, 32640, Note_on_c, 9, 42, 95
5, 32640, Note_on_c, 9, 35, 95
5, 32880, Note_off_c, 9, 42, 80
5, 32880, Note_off_c, 9, 35, 80
5, 32880, Note_on_c, 9, 42, 95
5, 33120, Note_off_c, 9, 42, 80
5, 33120, Note_on_c, 9, 42, 95
5, 33120, Note_on_c, 9, 38, 95
5, 33360, Note_off_c, 9, 42, 80
5, 33360, Note_off_c, 9, 38, 80
5, 33360, Note_on_c, 9, 42, 95
5, 33360, Note_on_c, 9, 35, 95
5, 33600, Note_off_c, 9, 42, 80
5, 33600, Note_off_c, 9, 35, 80
5, 33600, Note_on_c, 9, 42, 95
5, 33840, Note_off_c, 9, 42, 80
5, 33840, Note_on_c, 9, 42, 95
5, 33840, Note_on_c, 9, 35, 95
5, 34080, Note_off_c, 9, 42, 80
5, 34080, Note_off_c, 9, 35, 80
5, 34080, Note_on_c, 9, 42, 95
5, 34080, Note_on_c, 9, 38, 95
5, 34320, Note_off_c, 9, 42, 80
5, 34320, Note_off_c, 9, 38, 80
5, 34320, Note_on_c, 9, 42, 95
5, 34320, Note_on_c, 9, 35, 95
5, 34560, Note_off_c, 9, 42, 80
5, 34560, Note_off_c, 9, 35, 80
5, 34560, Note_on_c, 9, 42, 95
5, 34560, Note_on_c, 9, 35, 95
5, 34800, Note_off_c, 9, 42, 80
5, 34800, Note_off_c, 9, 35, 80
5, 34800, Note_on_c, 9, 42, 95
5, 35040, Note_off_c, 9, 42, 80
5, 35040, Note_on_c, 9, 42, 95
5, 35040, Note_on_c, 9, 38, 95
5, 35280, Note_off_c, 9, 42, 80
5, 35280, Note_off_c, 9, 38, 80
5, 35280, Note_on_c, 9, 42, 95
5, 35280, Note_on_c, 9, 35, 95
5, 35520, Note_off_c, 9, 42, 80
5, 35520, Note_off_c, 9, 35, 80
5, 35520, Note_on_c, 9, 42, 95
5, 35760, Note_off_c, 9, 42, 80
5, 35760, Note_on_c, 9, 42, 95
5, 35760, Note_on_c, 9, 35, 95
5, 36000, Note_off_c, 9, 42, 80
5, 36000, Note_off_c, 9, 35, 80
5, 36000, Note_on_c, 9, 42, 95
5, 36000, Note_on_c, 9, 38, 95
5, 36240, Note_off_c, 9, 42, 80
5, 36240, Note_off_c, 9, 38, 80
5, 36240, Note_on_c, 9, 42, 95
5, 36240, Note_on_c, 9, 35, 95
5, 36480, Note_off_c, 9, 42, 80
5, 36480, Note_off_c, 9, 35, 80
5, 36480, Note_on_c, 9, 42, 95
5, 36480, Note_on_c, 9, 35, 95
5, 36720, Note_off_c, 9, 42, 80
5, 36720, Note_off_c, 9, 35, 80
5, 36720, Note_on_c, 9, 42, 95
5, 36960, Note_off_c, 9, 42, 80
5, 36960, Note_on_c, 9, 42, 95
5, 36960, Note_on_c, 9, 38, 95
5, 37200, Note_off_c, 9, 42, 80
5, 37200, Note_off_c, 9, 38, 80
5, 37200, Note_on_c, 9, 42, 95
5, 37200, Note_on_c, 9, 35, 95
5, 37440, Note_off_c, 9, 42, 80
5, 37440, Note_off_c, 9, 35, 80
5, 37440, Note_on_c, 9, 42, 95
5, 37680, Note_off_c, 9, 42, 80
5, 37680, Note_on_c, 9, 42, 95
5, 37680, Note_on_c, 9, 35, 95
5, 37920, Note_off_c, 9, 42, 80
5, 37920, Note_off_c, 9, 35, 80
5, 37920, Note_on_c, 9, 42, 95
5, 37920, Note_on_c, 9, 38, 95
5, 38160, Note_off_c, 9, 42, 80
5, 38160, Note_off_c, 9, 38, 80
5, 38160, Note_on_c, 9, 42, 95
5, 38160, Note_on_c, 9, 35, 95
5, 38400, Note_off_c, 9, 42, 80
5, 38400, Note_off_c, 9, 35, 80
5, 38400, Note_on_c, 9, 42, 95
5, 38400, Note_on_c, 9, 35, 95
5, 38640, Note_off_c, 9, 42, 80
5, 38640, Note_off_c, 9, 35, 80
5, 38640, Note_on_c, 9, 42, 95
5, 38880, Note_off_c, 9, 42, 80
5, 38880, Note_on_c, 9, 42, 95
5, 38880, Note_on_c, 9, 38, 95
5, 39120, Note_off_c, 9, 42, 80
5, 39120, Note_off_c, 9, 38, 80
5, 39120, Note_on_c, 9, 42, 95
5, 39120, Note_on_c, 9, 35, 95
5, 39360, Note_off_c, 9, 42, 80
5, 39360, Note_off_c, 9, 35, 80
5, 39360, Note_on_c, 9, 42, 95
5, 39600, Note_off_c, 9, 42, 80
5, 39600, Note_on_c, 9, 42, 95
5, 39600, Note_on_c, 9, 35, 95
5, 39840, Note_off_c, 9, 42, 80
5, 39840, Note_off_c, 9, 35, 80
5, 39840, Note_on_c, 9, 42, 95
5, 39840, Note_on_c, 9, 38, 95
5, 40080, Note_off_c, 9, 42, 80
5, 40080, Note_off_c, 9, 38, 80
5, 40080, Note_on_c, 9, 42, 95
5, 40080, Note_on_c, 9, 35, 95
5, 40320, Note_off_c, 9, 42, 80
5, 40320, Note_off_c, 9, 35, 80
5, 40320, Note_on_c, 9, 42, 95
5, 40320, Note_on_c, 9, 35, 95
5, 40560, Note_off_c, 9, 42, 80
5, 40560, Note_off_c, 9, 35, 80
5, 40560, Note_on_c, 9, 42, 95
5, 40800, Note_off_c, 9, 42, 80
5, 40800, Note_on_c, 9, 42, 95
5, 40800, Note_on_c, 9, 38, 95
5, 41040, Note_off_c, 9, 42, 80
5, 41040, Note_off_c, 9, 38, 80
5, 41040, Note_on_c, 9, 42, 95
5, 41040, Note_on_c, 9, 35, 95
5, 41280, Note_off_c, 9, 42, 80
5, 41280, Note_off_c, 9, 35, 80
5, 41280, Note_on_c, 9, 42, 95
5, 41520, Note_off_c, 9, 42, 80
5, 41520, Note_on_c, 9, 42, 95
5, 41520, Note_on_c, 9, 35, 95
5, 41760, Note_off_c, 9, 42, 80
5, 41760, Note_off_c, 9, 35, 80
5, 41760, Note_on_c, 9, 42, 95
5, 41760, Note_on_c, 9, 38, 95
5, 42000, Note_off_c, 9, 42, 80
5, 42000, Note_off_c, 9, 38, 80
5, 42000, Note_on_c, 9, 42, 95
5, 42000, Note_on_c, 9, 35, 95
5, 42240, Note_off_c, 9, 42, 80
5, 42240, Note_off_c, 9, 35, 80
5, 42240, Note_on_c, 9, 42, 95
5, 42240, Note_on_c, 9, 35, 95
5, 42480, Note_off_c, 9, 42, 80
5, 42480, Note_off_c, 9, 35, 80
5, 42480, Note_on_c, 9, 42, 95
5, 42720, Note_off_c, 9, 42, 80
5, 42720, Note_on_c, 9, 42, 95
5, 42720, Note_on_c, 9, 38, 95
5, 42960, Note_off_c, 9, 42, 80
5, 42960, Note_off_c, 9, 38, 80
5, 42960, Note_on_c, 9, 42, 95
5, 43200, Note_off_c, 9, 42, 80
5, 43200, Note_on_c, 9, 42, 95
5, 43200, Note_on_c, 9, 35, 95
5, 43440, Note_off_c, 9, 42, 80
5, 43440, Note_off_c, 9, 35, 80
5, 43440, Note_on_c, 9, 42, 95
5, 43440, Note_on_c, 9, 35, 95
5, 43680, Note_off_c, 9, 42, 80
5, 43680, Note_off_c, 9, 35, 80
5, 43680, Note_on_c, 9, 42, 95
5, 43680, Note_on_c, 9, 38, 95
5, 43920, Note_off_c, 9, 42, 80
5, 43920, Note_off_c, 9, 38, 80
5, 43920, Note_on_c, 9, 42, 95
5, 44160, Note_off_c, 9, 42, 80
5, 44160, Note_on_c, 9, 42, 95
5, 44160, Note_on_c, 9, 57, 95
5, 44160, Note_on_c, 9, 35, 95
5, 44400, Note_off_c, 9, 42, 80
5, 44400, Note_off_c, 9, 57, 80
5, 44400, Note_off_c, 9, 35, 80
5, 44400, Note_on_c, 9, 42, 95
5, 44640, Note_off_c, 9, 42, 80
5, 44640, Note_on_c, 9, 42, 95
5, 44880, Note_off_c, 9, 42, 80
5, 44880, Note_on_c, 9, 42, 95
5, 44880, Note_on_c, 9, 35, 95
5, 45120, Note_off_c, 9, 42, 80
5, 45120, Note_off_c, 9, 35, 80
5, 45120, Note_on_c, 9, 42, 95
5, 45120, Note_on_c, 9, 35, 95
5, 45360, Note_off_c, 9, 42, 80
5, 45360, Note_off_c, 9, 35, 80
5, 45360, Note_on_c, 9, 42, 95
5, 45600, Note_off_c, 9, 42, 80
5, 45600, Note_on_c, 9, 42, 95
5, 45600, Note_on_c, 9, 38, 95
5, 45840, Note_off_c, 9, 42, 80
5, 45840, Note_off_c, 9, 38, 80
5, 45840, Note_on_c, 9, 42, 95
5, 46080, Note_off_c, 9, 42, 80
5, 46080, Note_on_c, 9, 42, 95
5, 46080, Note_on_c, 9, 35, 95
5, 46320, Note_off_c, 9, 42, 80
5, 46320, Note_off_c, 9, 35, 80
5, 46320, Note_on_c, 9, 42, 95
5, 46560, Note_off_c, 9, 42, 80
5, 46560, Note_on_c, 9, 42, 95
5, 46800, Note_off_c, 9, 42, 80
5, 46800, Note_on_c, 9, 42, 95
5, 46800, Note_on_c, 9, 35, 95
5, 47040, Note_off_c, 9, 42, 80
5, 47040, Note_off_c, 9, 35, 80
5, 47040, Note_on_c, 9, 42, 95
5, 47040, Note_on_c, 9, 35, 95
5, 47280, Note_off_c, 9, 42, 80
5, 47280, Note_off_c, 9, 35, 80
5, 47280, Note_on_c, 9, 42, 95
5, 47520, Note_off_c, 9, 42, 80
5, 47520, Note_on_c, 9, 42, 95
5, 47520, Note_on_c, 9, 38, 95
5, 47760, Note_off_c, 9, 42, 80
5, 47760, Note_off_c, 9, 38, 80
5, 47760, Note_on_c, 9, 42, 95
5, 48000, Note_off_c, 9, 42, 80
5, 48000, Note_on_c, 9, 42, 95
5, 48000, Note_on_c, 9, 35, 95
5, 48240, Note_off_c, 9, 42, 80
5, 48240, Note_off_c, 9, 35, 80
5, 48240, Note_on_c, 9, 42, 95
5, 48480, Note_off_c, 9, 42, 80
5, 48480, Note_on_c, 9, 42, 95
5, 48480, Note_on_c, 9, 38, 95
5, 48720, Note_off_c, 9, 42, 80
5, 48720, Note_off_c, 9, 38, 80
5, 48720, Note_on_c, 9, 42, 95
5, 48960, Note_off_c, 9, 42, 80
5, 48960, Note_on_c, 9, 42, 95
5, 48960, Note_on_c, 9, 35, 95
5, 49200, Note_off_c, 9, 42, 80
5, 49200, Note_off_c, 9, 35, 80
5, 49200, Note_on_c, 9, 42, 95
5, 49440, Note_off_c, 9, 42, 80
5, 49440, Note_on_c, 9, 42, 95
5, 49440, Note_on_c, 9, 38, 95
5, 49680, Note_off_c, 9, 42, 80
5, 49680, Note_off_c, 9, 38, 80
5, 49680, Note_on_c, 9, 42, 95
5, 49920, Note_off_c, 9, 42, 80
5, 49920, Note_on_c, 9, 42, 95
5, 49920, Note_on_c, 9, 35, 95
5, 50160, Note_off_c, 9, 42, 80
5, 50160, Note_off_c, 9, 35, 80
5, 50160, Note_on_c, 9, 42, 95
5, 50160, Note_on_c, 9, 35, 95
5, 50400, Note_off_c, 9, 42, 80
5, 50400, Note_off_c, 9, 35, 80
5, 50400, Note_on_c, 9, 42, 95
5, 50400, Note_on_c, 9, 38, 95
5, 50640, Note_off_c, 9, 42, 80
5, 50640, Note_off_c, 9, 38, 80
5, 50640, Note_on_c, 9, 42, 95
5, 50880, Note_off_c, 9, 42, 80
5, 50880, Note_on_c, 9, 46, 95
5, 50880, Note_on_c, 9, 35, 95
5, 51120, Note_off_c, 9, 46, 80
5, 51120, Note_off_c, 9, 35, 80
5, 51120, Note_on_c, 9, 35, 95
5, 51360, Note_off_c, 9, 35, 80
5, 51360, Note_on_c, 9, 38, 95
5, 51480, Note_off_c, 9, 38, 80
5, 51480, Note_on_c, 9, 38, 95
5, 51600, Note_off_c, 9, 38, 80
5, 51600, Note_on_c, 9, 38, 95
5, 51720, Note_off_c, 9, 38, 80
5, 51720, Note_on_c, 9, 38, 95
5, 51840, Note_off_c, 9, 38, 80
5, 51840, Note_on_c, 9, 42, 95
5, 51840, Note_on_c, 9, 57, 95
5, 51840, Note_on_c, 9, 35, 95
5, 52080, Note_off_c, 9, 42, 80
5, 52080, Note_off_c, 9, 57, 80
5, 52080, Note_off_c, 9, 35, 80
5, 52080, Note_on_c, 9, 42, 95
5, 52320, Note_off_c, 9, 42, 80
5, 52320, Note_on_c, 9, 42, 95
5, 52320, Note_on_c, 9, 38, 95
5, 52560, Note_off_c, 9, 42, 80
5, 52560, Note_off_c, 9, 38, 80
5, 52560, Note_on_c, 9, 42, 95
5, 52800, Note_off_c, 9, 42, 80
5, 52800, Note_on_c, 9, 42, 95
5, 52800, Note_on_c, 9, 35, 95
5, 53040, Note_off_c, 9, 42, 80
5, 53040, Note_off_c, 9, 35, 80
5, 53040, Note_on_c, 9, 42, 95
5, 53040, Note_on_c, 9, 35, 95
5, 53280, Note_off_c, 9, 42, 80
5, 53280, Note_off_c, 9, 35, 80
5, 53280, Note_on_c, 9, 42, 95
5, 53280, Note_on_c, 9, 38, 95
5, 53520, Note_off_c, 9, 42, 80
5, 53520, Note_off_c, 9, 38, 80
5, 53520, Note_on_c, 9, 42, 95
5, 53520, Note_on_c, 9, 35, 95
5, 53760, Note_off_c, 9, 42, 80
5, 53760, Note_off_c, 9, 35, 80
5, 53760, Note_on_c, 9, 42, 95
5, 53760, Note_on_c, 9, 35, 95
5, 54000, Note_off_c, 9, 42, 80
5, 54000, Note_off_c, 9, 35, 80
5, 54000, Note_on_c, 9, 42, 95
5, 54240, Note_off_c, 9, 42, 80
5, 54240, Note_on_c, 9, 42, 95
5, 54240, Note_on_c, 9, 38, 95
5, 54480, Note_off_c, 9, 42, 80
5, 54480, Note_off_c, 9, 38, 80
5, 54480, Note_on_c, 9, 42, 95
5, 54720, Note_off_c, 9, 42, 80
5, 54720, Note_on_c, 9, 42, 95
5, 54720, Note_on_c, 9, 35, 95
5, 54960, Note_off_c, 9, 42, 80
5, 54960, Note_off_c, 9, 35, 80
5, 54960, Note_on_c, 9, 42, 95
5, 54960, Note_on_c, 9, 35, 95
5, 55200, Note_off_c, 9, 42, 80
5, 55200, Note_off_c, 9, 35, 80
5, 55200, Note_on_c, 9, 42, 95
5, 55200, Note_on_c, 9, 38, 95
5, 55440, Note_off_c, 9, 42, 80
5, 55440, Note_off_c, 9, 38, 80
5, 55440, Note_on_c, 9, 42, 95
5, 55440, Note_on_c, 9, 35, 95
5, 55680, Note_off_c, 9, 42, 80
5, 55680, Note_off_c, 9, 35, 80
5, 55680, Note_on_c, 9, 42, 95
5, 55680, Note_on_c, 9, 35, 95
5, 55920, Note_off_c, 9, 42, 80
5, 55920, Note_off_c, 9, 35, 80
5, 55920, Note_on_c, 9, 42, 95
5, 56160, Note_off_c, 9, 42, 80
5, 56160, Note_on_c, 9, 42, 95
5, 56160, Note_on_c, 9, 38, 95
5, 56400, Note_off_c, 9, 42, 80
5, 56400, Note_off_c, 9, 38, 80
5, 56400, Note_on_c, 9, 42, 95
5, 56640, Note_off_c, 9, 42, 80
5, 56640, Note_on_c, 9, 42, 95
5, 56640, Note_on_c, 9, 35, 95
5, 56880, Note_off_c, 9, 42, 80
5, 56880, Note_off_c, 9, 35, 80
5, 56880, Note_on_c, 9, 42, 95
5, 56880, Note_on_c, 9, 35, 95
5, 57120, Note_off_c, 9, 42, 80
5, 57120, Note_off_c, 9, 35, 80
5, 57120, Note_on_c, 9, 42, 95
5, 57120, Note_on_c, 9, 38, 95
5, 57360, Note_off_c, 9, 42, 80
5, 57360, Note_off_c, 9, 38, 80
5, 57360, Note_on_c, 9, 42, 95
5, 57360, Note_on_c, 9, 35, 95
5, 57600, Note_off_c, 9, 42, 80
5, 57600, Note_off_c, 9, 35, 80
5, 57600, Note_on_c, 9, 42, 95
5, 57600, Note_on_c, 9, 35, 95
5, 57840, Note_off_c, 9, 42, 80
5, 57840, Note_off_c, 9, 35, 80
5, 57840, Note_on_c, 9, 42, 95
5, 58080, Note_off_c, 9, 42, 80
5, 58080, Note_on_c, 9, 42, 95
5, 58080, Note_on_c, 9, 38, 95
5, 58320, Note_off_c, 9, 42, 80
5, 58320, Note_off_c, 9, 38, 80
5, 58320, Note_on_c, 9, 42, 95
5, 58560, Note_off_c, 9, 42, 80
5, 58560, Note_on_c, 9, 42, 95
5, 58560, Note_on_c, 9, 35, 95
5, 58800, Note_off_c, 9, 42, 80
5, 58800, Note_off_c, 9, 35, 80
5, 58800, Note_on_c, 9, 42, 95
5, 58800, Note_on_c, 9, 35, 95
5, 59040, Note_off_c, 9, 42, 80
5, 59040, Note_off_c, 9, 35, 80
5, 59040, Note_on_c, 9, 42, 95
5, 59040, Note_on_c, 9, 38, 95
5, 59280, Note_off_c, 9, 42, 80
5, 59280, Note_off_c, 9, 38, 80
5, 59280, Note_on_c, 9, 42, 95
5, 59280, Note_on_c, 9, 35, 95
5, 59520, Note_off_c, 9, 42, 80
5, 59520, Note_off_c, 9, 35, 80
5, 59520, Note_on_c, 9, 42, 95
5, 59520, Note_on_c, 9, 35, 95
5, 59760, Note_off_c, 9, 42, 80
5, 59760, Note_off_c, 9, 35, 80
5, 59760, Note_on_c, 9, 42, 95
5, 60000, Note_off_c, 9, 42, 80
5, 60000, Note_on_c, 9, 42, 95
5, 60000, Note_on_c, 9, 38, 95
5, 60240, Note_off_c, 9, 42, 80
5, 60240, Note_off_c, 9, 38, 80
5, 60240, Note_on_c, 9, 42, 95
5, 60480, Note_off_c, 9, 42, 80
5, 60480, Note_on_c, 9, 42, 95
5, 60480, Note_on_c, 9, 35, 95
5, 60720, Note_off_c, 9, 42, 80
5, 60720, Note_off_c, 9, 35, 80
5, 60720, Note_on_c, 9, 42, 95
5, 60720, Note_on_c, 9, 35, 95
5, 60960, Note_off_c, 9, 42, 80
5, 60960, Note_off_c, 9, 35, 80
5, 60960, Note_on_c, 9, 42, 95
5, 60960, Note_on_c, 9, 38, 95
5, 61200, Note_off_c, 9, 42, 80
5, 61200, Note_off_c, 9, 38, 80
5, 61200, Note_on_c, 9, 46, 95
5, 61440, Note_off_c, 9, 46, 80
5, 61440, Note_on_c, 9, 42, 95
5, 61440, Note_on_c, 9, 57, 95
5, 61440, Note_on_c, 9, 35, 95
5, 61680, Note_off_c, 9, 42, 80
5, 61680, Note_off_c, 9, 57, 80
5, 61680, Note_off_c, 9, 35, 80
5, 61680, Note_on_c, 9, 42, 95
5, 61920, Note_off_c, 9, 42, 80
5, 61920, Note_on_c, 9, 42, 95
5, 61920, Note_on_c, 9, 38, 95
5, 62160, Note_off_c, 9, 42, 80
5, 62160, Note_off_c, 9, 38, 80
5, 62160, Note_on_c, 9, 42, 95
5, 62160, Note_on_c, 9, 35, 95
5, 62400, Note_off_c, 9, 42, 80
5, 62400, Note_off_c, 9, 35, 80
5, 62400, Note_on_c, 9, 42, 95
5, 62640, Note_off_c, 9, 42, 80
5, 62640, Note_on_c, 9, 42, 95
5, 62640, Note_on_c, 9, 35, 95
5, 62880, Note_off_c, 9, 42, 80
5, 62880, Note_off_c, 9, 35, 80
5, 62880, Note_on_c, 9, 42, 95
5, 62880, Note_on_c, 9, 38, 95
5, 63120, Note_off_c, 9, 42, 80
5, 63120, Note_off_c, 9, 38, 80
5, 63120, Note_on_c, 9, 42, 95
5, 63120, Note_on_c, 9, 35, 95
5, 63360, Note_off_c, 9, 42, 80
5, 63360, Note_off_c, 9, 35, 80
5, 63360, Note_on_c, 9, 42, 95
5, 63360, Note_on_c, 9, 35, 95
5, 63600, Note_off_c, 9, 42, 80
5, 63600, Note_off_c, 9, 35, 80
5, 63600, Note_on_c, 9, 42, 95
5, 63840, Note_off_c, 9, 42, 80
5, 63840, Note_on_c, 9, 42, 95
5, 63840, Note_on_c, 9, 38, 95
5, 64080, Note_off_c, 9, 42, 80
5, 64080, Note_off_c, 9, 38, 80
5, 64080, Note_on_c, 9, 42, 95
5, 64080, Note_on_c, 9, 35, 95
5, 64320, Note_off_c, 9, 42, 80
5, 64320, Note_off_c, 9, 35, 80
5, 64320, Note_on_c, 9, 42, 95
5, 64560, Note_off_c, 9, 42, 80
5, 64560, Note_on_c, 9, 42, 95
5, 64560, Note_on_c, 9, 35, 95
5, 64800, Note_off_c, 9, 42, 80
5, 64800, Note_off_c, 9, 35, 80
5, 64800, Note_on_c, 9, 42, 95
5, 64800, Note_on_c, 9, 38, 95
5, 65040, Note_off_c, 9, 42, 80
5, 65040, Note_off_c, 9, 38, 80
5, 65040, Note_on_c, 9, 42, 95
5, 65040, Note_on_c, 9, 35, 95
5, 65280, Note_off_c, 9, 42, 80
5, 65280, Note_off_c, 9, 35, 80
5, 65280, Note_on_c, 9, 42, 95
5, 65280, Note_on_c, 9, 35, 95
5, 65520, Note_off_c, 9, 42, 80
5, 65520, Note_off_c, 9, 35, 80
5, 65520, Note_on_c, 9, 42, 95
5, 65760, Note_off_c, 9, 42, 80
5, 65760, Note_on_c, 9, 42, 95
5, 65760, Note_on_c, 9, 38, 95
5, 66000, Note_off_c, 9, 42, 80
5, 66000, Note_off_c, 9, 38, 80
5, 66000, Note_on_c, 9, 42, 95
5, 66000, Note_on_c, 9, 35, 95
5, 66240, Note_off_c, 9, 42, 80
5, 66240, Note_off_c, 9, 35, 80
5, 66240, Note_on_c, 9, 42, 95
5, 66480, Note_off_c, 9, 42, 80
5, 66480, Note_on_c, 9, 42, 95
5, 66480, Note_on_c, 9, 35, 95
5, 66720, Note_off_c, 9, 42, 80
5, 66720, Note_off_c, 9, 35, 80
5, 66720, Note_on_c, 9, 42, 95
5, 66720, Note_on_c, 9, 38, 95
5, 66960, Note_off_c, 9, 42, 80
5, 66960, Note_off_c, 9, 38, 80
5, 66960, Note_on_c, 9, 42, 95
5, 66960, Note_on_c, 9, 35, 95
5, 67200, Note_off_c, 9, 42, 80
5, 67200, Note_off_c, 9, 35, 80
5, 67200, Note_on_c, 9, 42, 95
5, 67200, Note_on_c, 9, 35, 95
5, 67440, Note_off_c, 9, 42, 80
5, 67440, Note_off_c, 9, 35, 80
5, 67440, Note_on_c, 9, 42, 95
5, 67680, Note_off_c, 9, 42, 80
5, 67680, Note_on_c, 9, 46, 95
5, 67680, Note_on_c, 9, 38, 95
5, 67920, Note_off_c, 9, 46, 80
5, 67920, Note_off_c, 9, 38, 80
5, 67920, Note_on_c, 9, 43, 95
5, 68040, Note_off_c, 9, 43, 80
5, 68040, Note_on_c, 9, 43, 95
5, 68160, Note_off_c, 9, 43, 80
5, 68160, Note_on_c, 9, 38, 95
5, 68400, Note_off_c, 9, 38, 80
5, 68400, Note_on_c, 9, 35, 95
5, 68640, Note_off_c, 9, 35, 80
5, 68640, Note_on_c, 9, 38, 95
5, 68880, Note_off_c, 9, 38, 80
5, 68880, Note_on_c, 9, 35, 95
5, 69120, Note_off_c, 9, 35, 80
5, 69120, Note_on_c, 9, 42, 95
5, 69120, Note_on_c, 9, 57, 95
5, 69120, Note_on_c, 9, 35, 95
5, 69360, Note_off_c, 9, 42, 80
5, 69360, Note_off_c, 9, 57, 80
5, 69360, Note_off_c, 9, 35, 80
5, 69360, Note_on_c, 9, 42, 95
5, 69600, Note_off_c, 9, 42, 80
5, 69600, Note_on_c, 9, 42, 95
5, 69600, Note_on_c, 9, 38, 95
5, 69840, Note_off_c, 9, 42, 80
5, 69840, Note_off_c, 9, 38, 80
5, 69840, Note_on_c, 9, 42, 95
5, 69840, Note_on_c, 9, 35, 95
5, 70080, Note_off_c, 9, 42, 80
5, 70080, Note_off_c, 9, 35, 80
5, 70080, Note_on_c, 9, 42, 95
5, 70320, Note_off_c, 9, 42, 80
5, 70320, Note_on_c, 9, 42, 95
5, 70320, Note_on_c, 9, 35, 95
5, 70560, Note_off_c, 9, 42, 80
5, 70560, Note_off_c, 9, 35, 80
5, 70560, Note_on_c, 9, 42, 95
5, 70560, Note_on_c, 9, 38, 95
5, 70800, Note_off_c, 9, 42, 80
5, 70800, Note_off_c, 9, 38, 80
5, 70800, Note_on_c, 9, 42, 95
5, 70800, Note_on_c, 9, 35, 95
5, 71040, Note_off_c, 9, 42, 80
5, 71040, Note_off_c, 9, 35, 80
5, 71040, Note_on_c, 9, 42, 95
5, 71040, Note_on_c, 9, 35, 95
5, 71280, Note_off_c, 9, 42, 80
5, 71280, Note_off_c, 9, 35, 80
5, 71280, Note_on_c, 9, 42, 95
5, 71520, Note_off_c, 9, 42, 80
5, 71520, Note_on_c, 9, 42, 95
5, 71520, Note_on_c, 9, 38, 95
5, 71760, Note_off_c, 9, 42, 80
5, 71760, Note_off_c, 9, 38, 80
5, 71760, Note_on_c, 9, 42, 95
5, 71760, Note_on_c, 9, 35, 95
5, 72000, Note_off_c, 9, 42, 80
5, 72000, Note_off_c, 9, 35, 80
5, 72000, Note_on_c, 9, 42, 95
5, 72240, Note_off_c, 9, 42, 80
5, 72240, Note_on_c, 9, 42, 95
5, 72240, Note_on_c, 9, 35, 95
5, 72480, Note_off_c, 9, 42, 80
5, 72480, Note_off_c, 9, 35, 80
5, 72480, Note_on_c, 9, 42, 95
5, 72480, Note_on_c, 9, 38, 95
5, 72720, Note_off_c, 9, 42, 80
5, 72720, Note_off_c, 9, 38, 80
5, 72720, Note_on_c, 9, 42, 95
5, 72720, Note_on_c, 9, 35, 95
5, 72960, Note_off_c, 9, 42, 80
5, 72960, Note_off_c, 9, 35, 80
5, 72960, Note_on_c, 9, 42, 95
5, 72960, Note_on_c, 9, 35, 95
5, 73200, Note_off_c, 9, 42, 80
5, 73200, Note_off_c, 9, 35, 80
5, 73200, Note_on_c, 9, 42, 95
5, 73440, Note_off_c, 9, 42, 80
5, 73440, Note_on_c, 9, 42, 95
5, 73440, Note_on_c, 9, 38, 95
5, 73680, Note_off_c, 9, 42, 80
5, 73680, Note_off_c, 9, 38, 80
5, 73680, Note_on_c, 9, 42, 95
5, 73680, Note_on_c, 9, 35, 95
5, 73920, Note_off_c, 9, 42, 80
5, 73920, Note_off_c, 9, 35, 80
5, 73920, Note_on_c, 9, 42, 95
5, 74160, Note_off_c, 9, 42, 80
5, 74160, Note_on_c, 9, 42, 95
5, 74160, Note_on_c, 9, 35, 95
5, 74400, Note_off_c, 9, 42, 80
5, 74400, Note_off_c, 9, 35, 80
5, 74400, Note_on_c, 9, 42, 95
5, 74400, Note_on_c, 9, 38, 95
5, 74640, Note_off_c, 9, 42, 80
5, 74640, Note_off_c, 9, 38, 80
5, 74640, Note_on_c, 9, 42, 95
5, 74640, Note_on_c, 9, 35, 95
5, 74880, Note_off_c, 9, 42, 80
5, 74880, Note_off_c, 9, 35, 80
5, 74880, Note_on_c, 9, 42, 95
5, 74880, Note_on_c, 9, 35, 95
5, 75120, Note_off_c, 9, 42, 80
5, 75120, Note_off_c, 9, 35, 80
5, 75120, Note_on_c, 9, 42, 95
5, 75360, Note_off_c, 9, 42, 80
5, 75360, Note_on_c, 9, 42, 95
5, 75360, Note_on_c, 9, 38, 95
5, 75600, Note_off_c, 9, 42, 80
5, 75600, Note_off_c, 9, 38, 80
5, 75600, Note_on_c, 9, 42, 95
5, 75600, Note_on_c, 9, 35, 95
5, 75840, Note_off_c, 9, 42, 80
5, 75840, Note_off_c, 9, 35, 80
5, 75840, Note_on_c, 9, 42, 95
5, 76080, Note_off_c, 9, 42, 80
5, 76080, Note_on_c, 9, 42, 95
5, 76080, Note_on_c, 9, 35, 95
5, 76320, Note_off_c, 9, 42, 80
5, 76320, Note_off_c, 9, 35, 80
5, 76320, Note_on_c, 9, 42, 95
5, 76320, Note_on_c, 9, 38, 95
5, 76560, Note_off_c, 9, 42, 80
5, 76560, Note_off_c, 9, 38, 80
5, 76560, Note_on_c, 9, 42, 95
5, 76560, Note_on_c, 9, 35, 95
5, 76800, Note_off_c, 9, 42, 80
5, 76800, Note_off_c, 9, 35, 80
5, 76800, Note_on_c, 9, 42, 95
5, 76800, Note_on_c, 9, 57, 95
5, 76800, Note_on_c, 9, 35, 95
5, 77040, Note_off_c, 9, 42, 80
5, 77040, Note_off_c, 9, 57, 80
5, 77040, Note_off_c, 9, 35, 80
5, 77040, Note_on_c, 9, 42, 95
5, 77280, Note_off_c, 9, 42, 80
5, 77280, Note_on_c, 9, 42, 95
5, 77280, Note_on_c, 9, 38, 95
5, 77520, Note_off_c, 9, 42, 80
5, 77520, Note_off_c, 9, 38, 80
5, 77520, Note_on_c, 9, 42, 95
5, 77520, Note_on_c, 9, 35, 95
5, 77760, Note_off_c, 9, 42, 80
5, 77760, Note_off_c, 9, 35, 80
5, 77760, Note_on_c, 9, 42, 95
5, 78000, Note_off_c, 9, 42, 80
5, 78000, Note_on_c, 9, 42, 95
5, 78000, Note_on_c, 9, 35, 95
5, 78240, Note_off_c, 9, 42, 80
5, 78240, Note_off_c, 9, 35, 80
5, 78240, Note_on_c, 9, 42, 95
5, 78240, Note_on_c, 9, 38, 95
5, 78480, Note_off_c, 9, 42, 80
5, 78480, Note_off_c, 9, 38, 80
5, 78480, Note_on_c, 9, 42, 95
5, 78480, Note_on_c, 9, 35, 95
5, 78720, Note_off_c, 9, 42, 80
5, 78720, Note_off_c, 9, 35, 80
5, 78720, Note_on_c, 9, 42, 95
5, 78720, Note_on_c, 9, 35, 95
5, 78960, Note_off_c, 9, 42, 80
5, 78960, Note_off_c, 9, 35, 80
5, 78960, Note_on_c, 9, 42, 95
5, 79200, Note_off_c, 9, 42, 80
5, 79200, Note_on_c, 9, 42, 95
5, 79200, Note_on_c, 9, 38, 95
5, 79440, Note_off_c, 9, 42, 80
5, 79440, Note_off_c, 9, 38, 80
5, 79440, Note_on_c, 9, 42, 95
5, 79440, Note_on_c, 9, 35, 95
5, 79680, Note_off_c, 9, 42, 80
5, 79680, Note_off_c, 9, 35, 80
5, 79680, Note_on_c, 9, 42, 95
5, 79920, Note_off_c, 9, 42, 80
5, 79920, Note_on_c, 9, 42, 95
5, 79920, Note_on_c, 9, 35, 95
5, 80160, Note_off_c, 9, 42, 80
5, 80160, Note_off_c, 9, 35, 80
5, 80160, Note_on_c, 9, 42, 95
5, 80160, Note_on_c, 9, 38, 95
5, 80400, Note_off_c, 9, 42, 80
5, 80400, Note_off_c, 9, 38, 80
5, 80400, Note_on_c, 9, 42, 95
5, 80400, Note_on_c, 9, 35, 95
5, 80640, Note_off_c, 9, 42, 80
5, 80640, Note_off_c, 9, 35, 80
5, 80640, Note_on_c, 9, 42, 95
5, 80640, Note_on_c, 9, 35, 95
5, 80880, Note_off_c, 9, 42, 80
5, 80880, Note_off_c, 9, 35, 80
5, 80880, Note_on_c, 9, 42, 95
5, 81120, Note_off_c, 9, 42, 80
5, 81120, Note_on_c, 9, 42, 95
5, 81120, Note_on_c, 9, 38, 95
5, 81360, Note_off_c, 9, 42, 80
5, 81360, Note_off_c, 9, 38, 80
5, 81360, Note_on_c, 9, 42, 95
5, 81360, Note_on_c, 9, 35, 95
5, 81600, Note_off_c, 9, 42, 80
5, 81600, Note_off_c, 9, 35, 80
5, 81600, Note_on_c, 9, 42, 95
5, 81840, Note_off_c, 9, 42, 80
5, 81840, Note_on_c, 9, 42, 95
5, 81840, Note_on_c, 9, 35, 95
5, 82080, Note_off_c, 9, 42, 80
5, 82080, Note_off_c, 9, 35, 80
5, 82080, Note_on_c, 9, 42, 95
5, 82080, Note_on_c, 9, 38, 95
5, 82320, Note_off_c, 9, 42, 80
5, 82320, Note_off_c, 9, 38, 80
5, 82320, Note_on_c, 9, 42, 95
5, 82320, Note_on_c, 9, 35, 95
5, 82560, Note_off_c, 9, 42, 80
5, 82560, Note_off_c, 9, 35, 80
5, 82560, Note_on_c, 9, 42, 95
5, 82560, Note_on_c, 9, 35, 95
5, 82800, Note_off_c, 9, 42, 80
5, 82800, Note_off_c, 9, 35, 80
5, 82800, Note_on_c, 9, 42, 95
5, 82800, Note_on_c, 9, 35, 95
5, 83040, Note_off_c, 9, 42, 80
5, 83040, Note_off_c, 9, 35, 80
5, 83040, Note_on_c, 9, 42, 95
5, 83040, Note_on_c, 9, 38, 95
5, 83280, Note_off_c, 9, 42, 80
5, 83280, Note_off_c, 9, 38, 80
5, 83280, Note_on_c, 9, 42, 95
5, 83280, Note_on_c, 9, 35, 95
5, 83520, Note_off_c, 9, 42, 80
5, 83520, Note_off_c, 9, 35, 80
5, 83520, Note_on_c, 9, 42, 95
5, 83520, Note_on_c, 9, 35, 95
5, 83760, Note_off_c, 9, 42, 80
5, 83760, Note_off_c, 9, 35, 80
5, 83760, Note_on_c, 9, 42, 95
5, 83760, Note_on_c, 9, 35, 95
5, 84000, Note_off_c, 9, 42, 80
5, 84000, Note_off_c, 9, 35, 80
5, 84000, Note_on_c, 9, 42, 95
5, 84000, Note_on_c, 9, 38, 127
5, 84240, Note_off_c, 9, 42, 80
5, 84240, Note_off_c, 9, 38, 80
5, 84480, Note_on_c, 9, 42, 95
5, 84480, Note_on_c, 9, 57, 95
5, 84480, Note_on_c, 9, 35, 95
5, 84720, Note_off_c, 9, 42, 80
5, 84720, Note_off_c, 9, 57, 80
5, 84720, Note_off_c, 9, 35, 80
5, 84720, Note_on_c, 9, 42, 95
5, 84960, Note_off_c, 9, 42, 80
5, 84960, Note_on_c, 9, 42, 95
5, 85200, Note_off_c, 9, 42, 80
5, 85200, Note_on_c, 9, 42, 95
5, 85200, Note_on_c, 9, 35, 95
5, 85440, Note_off_c, 9, 42, 80
5, 85440, Note_off_c, 9, 35, 80
5, 85440, Note_on_c, 9, 42, 95
5, 85440, Note_on_c, 9, 35, 95
5, 85680, Note_off_c, 9, 42, 80
5, 85680, Note_off_c, 9, 35, 80
5, 85680, Note_on_c, 9, 42, 95
5, 85920, Note_off_c, 9, 42, 80
5, 85920, Note_on_c, 9, 42, 95
5, 85920, Note_on_c, 9, 38, 95
5, 86160, Note_off_c, 9, 42, 80
5, 86160, Note_off_c, 9, 38, 80
5, 86160, Note_on_c, 9, 42, 95
5, 86400, Note_off_c, 9, 42, 80
5, 86400, Note_on_c, 9, 42, 95
5, 86400, Note_on_c, 9, 35, 95
5, 86640, Note_off_c, 9, 42, 80
5, 86640, Note_off_c, 9, 35, 80
5, 86640, Note_on_c, 9, 42, 95
5, 86880, Note_off_c, 9, 42, 80
5, 86880, Note_on_c, 9, 42, 95
5, 87120, Note_off_c, 9, 42, 80
5, 87120, Note_on_c, 9, 42, 95
5, 87120, Note_on_c, 9, 35, 95
5, 87360, Note_off_c, 9, 42, 80
5, 87360, Note_off_c, 9, 35, 80
5, 87360, Note_on_c, 9, 42, 95
5, 87360, Note_on_c, 9, 35, 95
5, 87600, Note_off_c, 9, 42, 80
5, 87600, Note_off_c, 9, 35, 80
5, 87600, Note_on_c, 9, 42, 95
5, 87840, Note_off_c, 9, 42, 80
5, 87840, Note_on_c, 9, 42, 95
5, 87840, Note_on_c, 9, 38, 95
5, 88080, Note_off_c, 9, 42, 80
5, 88080, Note_off_c, 9, 38, 80
5, 88080, Note_on_c, 9, 42, 95
5, 88320, Note_off_c, 9, 42, 80
5, 88320, Note_on_c, 9, 42, 95
5, 88320, Note_on_c, 9, 35, 95
5, 88560, Note_off_c, 9, 42, 80
5, 88560, Note_off_c, 9, 35, 80
5, 88560, Note_on_c, 9, 42, 95
5, 88800, Note_off_c, 9, 42, 80
5, 88800, Note_on_c, 9, 42, 95
5, 88800, Note_on_c, 9, 38, 95
5, 89040, Note_off_c, 9, 42, 80
5, 89040, Note_off_c, 9, 38, 80
5, 89040, Note_on_c, 9, 42, 95
5, 89280, Note_off_c, 9, 42, 80
5, 89280, Note_on_c, 9, 42, 95
5, 89280, Note_on_c, 9, 35, 95
5, 89520, Note_off_c, 9, 42, 80
5, 89520, Note_off_c, 9, 35, 80
5, 89520, Note_on_c, 9, 42, 95
5, 89760, Note_off_c, 9, 42, 80
5, 89760, Note_on_c, 9, 42, 95
5, 89760, Note_on_c, 9, 38, 95
5, 90000, Note_off_c, 9, 42, 80
5, 90000, Note_off_c, 9, 38, 80
5, 90000, Note_on_c, 9, 42, 95
5, 90240, Note_off_c, 9, 42, 80
5, 90240, Note_on_c, 9, 42, 95
5, 90240, Note_on_c, 9, 35, 95
5, 90480, Note_off_c, 9, 42, 80
5, 90480, Note_off_c, 9, 35, 80
5, 90480, Note_on_c, 9, 42, 95
5, 90480, Note_on_c, 9, 35, 95
5, 90720, Note_off_c, 9, 42, 80
5, 90720, Note_off_c, 9, 35, 80
5, 90720, Note_on_c, 9, 42, 95
5, 90720, Note_on_c, 9, 38, 95
5, 90960, Note_off_c, 9, 42, 80
5, 90960, Note_off_c, 9, 38, 80
5, 90960, Note_on_c, 9, 42, 95
5, 90960, Note_on_c, 9, 35, 95
5, 91200, Note_off_c, 9, 42, 80
5, 91200, Note_off_c, 9, 35, 80
5, 91200, Note_on_c, 9, 46, 95
5, 91200, Note_on_c, 9, 38, 95
5, 91440, Note_off_c, 9, 46, 80
5, 91440, Note_off_c, 9, 38, 80
5, 91440, Note_on_c, 9, 35, 95
5, 91680, Note_off_c, 9, 35, 80
5, 91680, Note_on_c, 9, 38, 95
5, 91800, Note_off_c, 9, 38, 80
5, 91800, Note_on_c, 9, 38, 95
5, 91920, Note_off_c, 9, 38, 80
5, 91920, Note_on_c, 9, 38, 95
5, 92040, Note_off_c, 9, 38, 80
5, 92040, Note_on_c, 9, 38, 95
5, 92160, Note_off_c, 9, 38, 80
5, 92160, Note_on_c, 9, 42, 95
5, 92160, Note_on_c, 9, 57, 95
5, 92160, Note_on_c, 9, 35, 95
5, 92400, Note_off_c, 9, 42, 80
5, 92400, Note_off_c, 9, 57, 80
5, 92400, Note_off_c, 9, 35, 80
5, 92400, Note_on_c, 9, 42, 95
5, 92640, Note_off_c, 9, 42, 80
5, 92640, Note_on_c, 9, 42, 95
5, 92640, Note_on_c, 9, 38, 95
5, 92880, Note_off_c, 9, 42, 80
5, 92880, Note_off_c, 9, 38, 80
5, 92880, Note_on_c, 9, 42, 95
5, 93120, Note_off_c, 9, 42, 80
5, 93120, Note_on_c, 9, 42, 95
5, 93120, Note_on_c, 9, 35, 95
5, 93360, Note_off_c, 9, 42, 80
5, 93360, Note_off_c, 9, 35, 80
5, 93360, Note_on_c, 9, 42, 95
5, 93360, Note_on_c, 9, 35, 95
5, 93600, Note_off_c, 9, 42, 80
5, 93600, Note_off_c, 9, 35, 80
5, 93600, Note_on_c, 9, 42, 95
5, 93600, Note_on_c, 9, 38, 95
5, 93840, Note_off_c, 9, 42, 80
5, 93840, Note_off_c, 9, 38, 80
5, 93840, Note_on_c, 9, 42, 95
5, 93840, Note_on_c, 9, 35, 95
5, 94080, Note_off_c, 9, 42, 80
5, 94080, Note_off_c, 9, 35, 80
5, 94080, Note_on_c, 9, 42, 95
5, 94080, Note_on_c, 9, 35, 95
5, 94320, Note_off_c, 9, 42, 80
5, 94320, Note_off_c, 9, 35, 80
5, 94320, Note_on_c, 9, 42, 95
5, 94560, Note_off_c, 9, 42, 80
5, 94560, Note_on_c, 9, 42, 95
5, 94560, Note_on_c, 9, 38, 95
5, 94800, Note_off_c, 9, 42, 80
5, 94800, Note_off_c, 9, 38, 80
5, 94800, Note_on_c, 9, 42, 95
5, 95040, Note_off_c, 9, 42, 80
5, 95040, Note_on_c, 9, 42, 95
5, 95040, Note_on_c, 9, 35, 95
5, 95280, Note_off_c, 9, 42, 80
5, 95280, Note_off_c, 9, 35, 80
5, 95280, Note_on_c, 9, 42, 95
5, 95280, Note_on_c, 9, 35, 95
5, 95520, Note_off_c, 9, 42, 80
5, 95520, Note_off_c, 9, 35, 80
5, 95520, Note_on_c, 9, 42, 95
5, 95520, Note_on_c, 9, 38, 95
5, 95760, Note_off_c, 9, 42, 80
5, 95760, Note_off_c, 9, 38, 80
5, 95760, Note_on_c, 9, 42, 95
5, 95760, Note_on_c, 9, 35, 95
5, 96000, Note_off_c, 9, 42, 80
5, 96000, Note_off_c, 9, 35, 80
5, 96000, Note_on_c, 9, 42, 95
5, 96000, Note_on_c, 9, 35, 95
5, 96240, Note_off_c, 9, 42, 80
5, 96240, Note_off_c, 9, 35, 80
5, 96240, Note_on_c, 9, 42, 95
5, 96480, Note_off_c, 9, 42, 80
5, 96480, Note_on_c, 9, 42, 95
5, 96480, Note_on_c, 9, 38, 95
5, 96720, Note_off_c, 9, 42, 80
5, 96720, Note_off_c, 9, 38, 80
5, 96720, Note_on_c, 9, 42, 95
5, 96960, Note_off_c, 9, 42, 80
5, 96960, Note_on_c, 9, 42, 95
5, 96960, Note_on_c, 9, 35, 95
5, 97200, Note_off_c, 9, 42, 80
5, 97200, Note_off_c, 9, 35, 80
5, 97200, Note_on_c, 9, 42, 95
5, 97200, Note_on_c, 9, 35, 95
5, 97440, Note_off_c, 9, 42, 80
5, 97440, Note_off_c, 9, 35, 80
5, 97440, Note_on_c, 9, 42, 95
5, 97440, Note_on_c, 9, 38, 95
5, 97680, Note_off_c, 9, 42, 80
5, 97680, Note_off_c, 9, 38, 80
5, 97680, Note_on_c, 9, 42, 95
5, 97680, Note_on_c, 9, 35, 95
5, 97920, Note_off_c, 9, 42, 80
5, 97920, Note_off_c, 9, 35, 80
5, 97920, Note_on_c, 9, 42, 95
5, 97920, Note_on_c, 9, 35, 95
5, 98160, Note_off_c, 9, 42, 80
5, 98160, Note_off_c, 9, 35, 80
5, 98160, Note_on_c, 9, 42, 95
5, 98400, Note_off_c, 9, 42, 80
5, 98400, Note_on_c, 9, 42, 95
5, 98400, Note_on_c, 9, 38, 95
5, 98640, Note_off_c, 9, 42, 80
5, 98640, Note_off_c, 9, 38, 80
5, 98640, Note_on_c, 9, 42, 95
5, 98880, Note_off_c, 9, 42, 80
5, 98880, Note_on_c, 9, 42, 95
5, 98880, Note_on_c, 9, 35, 95
5, 99120, Note_off_c, 9, 42, 80
5, 99120, Note_off_c, 9, 35, 80
5, 99120, Note_on_c, 9, 42, 95
5, 99120, Note_on_c, 9, 35, 95
5, 99360, Note_off_c, 9, 42, 80
5, 99360, Note_off_c, 9, 35, 80
5, 99360, Note_on_c, 9, 42, 95
5, 99360, Note_on_c, 9, 38, 95
5, 99600, Note_off_c, 9, 42, 80
5, 99600, Note_off_c, 9, 38, 80
5, 99600, Note_on_c, 9, 42, 95
5, 99600, Note_on_c, 9, 35, 95
5, 99840, Note_off_c, 9, 42, 80
5, 99840, Note_off_c, 9, 35, 80
5, 99840, Note_on_c, 9, 42, 95
5, 99840, Note_on_c, 9, 35, 95
5, 100080, Note_off_c, 9, 42, 80
5, 100080, Note_off_c, 9, 35, 80
5, 100080, Note_on_c, 9, 42, 95
5, 100320, Note_off_c, 9, 42, 80
5, 100320, Note_on_c, 9, 42, 95
5, 100320, Note_on_c, 9, 38, 95
5, 100560, Note_off_c, 9, 42, 80
5, 100560, Note_off_c, 9, 38, 80
5, 100560, Note_on_c, 9, 42, 95
5, 100800, Note_off_c, 9, 42, 80
5, 100800, Note_on_c, 9, 42, 95
5, 100800, Note_on_c, 9, 35, 95
5, 101040, Note_off_c, 9, 42, 80
5, 101040, Note_off_c, 9, 35, 80
5, 101040, Note_on_c, 9, 42, 95
5, 101040, Note_on_c, 9, 35, 95
5, 101280, Note_off_c, 9, 42, 80
5, 101280, Note_off_c, 9, 35, 80
5, 101280, Note_on_c, 9, 42, 95
5, 101280, Note_on_c, 9, 38, 95
5, 101520, Note_off_c, 9, 42, 80
5, 101520, Note_off_c, 9, 38, 80
5, 101520, Note_on_c, 9, 42, 95
5, 101520, Note_on_c, 9, 35, 95
5, 101760, Note_off_c, 9, 42, 80
5, 101760, Note_off_c, 9, 35, 80
5, 101760, Note_on_c, 9, 42, 95
5, 101760, Note_on_c, 9, 35, 95
5, 102000, Note_off_c, 9, 42, 80
5, 102000, Note_off_c, 9, 35, 80
5, 102000, Note_on_c, 9, 42, 95
5, 102240, Note_off_c, 9, 42, 80
5, 102240, Note_on_c, 9, 42, 95
5, 102240, Note_on_c, 9, 38, 95
5, 102480, Note_off_c, 9, 42, 80
5, 102480, Note_off_c, 9, 38, 80
5, 102480, Note_on_c, 9, 42, 95
5, 102720, Note_off_c, 9, 42, 80
5, 102720, Note_on_c, 9, 42, 95
5, 102720, Note_on_c, 9, 35, 95
5, 102960, Note_off_c, 9, 42, 80
5, 102960, Note_off_c, 9, 35, 80
5, 102960, Note_on_c, 9, 42, 95
5, 102960, Note_on_c, 9, 35, 95
5, 103200, Note_off_c, 9, 42, 80
5, 103200, Note_off_c, 9, 35, 80
5, 103200, Note_on_c, 9, 42, 95
5, 103200, Note_on_c, 9, 38, 95
5, 103440, Note_off_c, 9, 42, 80
5, 103440, Note_off_c, 9, 38, 80
5, 103440, Note_on_c, 9, 42, 95
5, 103440, Note_on_c, 9, 35, 95
5, 103680, Note_off_c, 9, 42, 80
5, 103680, Note_off_c, 9, 35, 80
5, 103680, Note_on_c, 9, 42, 95
5, 103680, Note_on_c, 9, 35, 95
5, 103920, Note_off_c, 9, 42, 80
5, 103920, Note_off_c, 9, 35, 80
5, 103920, Note_on_c, 9, 42, 95
5, 104160, Note_off_c, 9, 42, 80
5, 104160, Note_on_c, 9, 42, 95
5, 104160, Note_on_c, 9, 38, 95
5, 104400, Note_off_c, 9, 42, 80
5, 104400, Note_off_c, 9, 38, 80
5, 104400, Note_on_c, 9, 42, 95
5, 104640, Note_off_c, 9, 42, 80
5, 104640, Note_on_c, 9, 42, 95
5, 104640, Note_on_c, 9, 35, 95
5, 104880, Note_off_c, 9, 42, 80
5, 104880, Note_off_c, 9, 35, 80
5, 104880, Note_on_c, 9, 46, 95
5, 104880, Note_on_c, 9, 35, 95
5, 105120, Note_off_c, 9, 46, 80
5, 105120, Note_off_c, 9, 35, 80
5, 105120, Note_on_c, 9, 38, 95
5, 105240, Note_off_c, 9, 38, 80
5, 105240, Note_on_c, 9, 38, 95
5, 105360, Note_off_c, 9, 38, 80
5, 105600, Note_on_c, 9, 42, 95
5, 105600, Note_on_c, 9, 57, 95
5, 105600, Note_on_c, 9, 35, 95
5, 105840, Note_off_c, 9, 42, 80
5, 105840, Note_off_c, 9, 57, 80
5, 105840, Note_off_c, 9, 35, 80
5, 105840, Note_on_c, 9, 42, 95
5, 105840, Note_on_c, 9, 35, 95
5, 106080, Note_off_c, 9, 42, 80
5, 106080, Note_off_c, 9, 35, 80
5, 106080, Note_on_c, 9, 42, 95
5, 106080, Note_on_c, 9, 38, 95
5, 106320, Note_off_c, 9, 42, 80
5, 106320, Note_off_c, 9, 38, 80
5, 106320, Note_on_c, 9, 42, 95
5, 106560, Note_off_c, 9, 42, 80
5, 106560, Note_on_c, 9, 42, 95
5, 106560, Note_on_c, 9, 35, 95
5, 106800, Note_off_c, 9, 42, 80
5, 106800, Note_off_c, 9, 35, 80
5, 106800, Note_on_c, 9, 42, 95
5, 106800, Note_on_c, 9, 35, 95
5, 107040, Note_off_c, 9, 42, 80
5, 107040, Note_off_c, 9, 35, 80
5, 107040, Note_on_c, 9, 42, 95
5, 107040, Note_on_c, 9, 38, 95
5, 107280, Note_off_c, 9, 42, 80
5, 107280, Note_off_c, 9, 38, 80
5, 107280, Note_on_c, 9, 42, 95
5, 107520, Note_off_c, 9, 42, 80
5, 107520, Note_on_c, 9, 42, 95
5, 107520, Note_on_c, 9, 35, 95
5, 107760, Note_off_c, 9, 42, 80
5, 107760, Note_off_c, 9, 35, 80
5, 107760, Note_on_c, 9, 42, 95
5, 107760, Note_on_c, 9, 35, 95
5, 108000, Note_off_c, 9, 42, 80
5, 108000, Note_off_c, 9, 35, 80
5, 108000, Note_on_c, 9, 42, 95
5, 108000, Note_on_c, 9, 38, 95
5, 108240, Note_off_c, 9, 42, 80
5, 108240, Note_off_c, 9, 38, 80
5, 108240, Note_on_c, 9, 42, 95
5, 108480, Note_off_c, 9, 42, 80
5, 108480, Note_on_c, 9, 42, 95
5, 108480, Note_on_c, 9, 35, 95
5, 108720, Note_off_c, 9, 42, 80
5, 108720, Note_off_c, 9, 35, 80
5, 108720, Note_on_c, 9, 42, 95
5, 108720, Note_on_c, 9, 35, 95
5, 108960, Note_off_c, 9, 42, 80
5, 108960, Note_off_c, 9, 35, 80
5, 108960, Note_on_c, 9, 42, 95
5, 108960, Note_on_c, 9, 38, 95
5, 109200, Note_off_c, 9, 42, 80
5, 109200, Note_off_c, 9, 38, 80
5, 109200, Note_on_c, 9, 42, 95
5, 109440, Note_off_c, 9, 42, 80
5, 109440, Note_on_c, 9, 42, 95
5, 109440, Note_on_c, 9, 35, 95
5, 109680, Note_off_c, 9, 42, 80
5, 109680, Note_off_c, 9, 35, 80
5, 109680, Note_on_c, 9, 42, 95
5, 109680, Note_on_c, 9, 35, 95
5, 109920, Note_off_c, 9, 42, 80
5, 109920, Note_off_c, 9, 35, 80
5, 109920, Note_on_c, 9, 42, 95
5, 109920, Note_on_c, 9, 38, 95
5, 110160, Note_off_c, 9, 42, 80
5, 110160, Note_off_c, 9, 38, 80
5, 110160, Note_on_c, 9, 42, 95
5, 110400, Note_off_c, 9, 42, 80
5, 110400, Note_on_c, 9, 42, 95
5, 110400, Note_on_c, 9, 35, 95
5, 110640, Note_off_c, 9, 42, 80
5, 110640, Note_off_c, 9, 35, 80
5, 110640, Note_on_c, 9, 42, 95
5, 110640, Note_on_c, 9, 35, 95
5, 110880, Note_off_c, 9, 42, 80
5, 110880, Note_off_c, 9, 35, 80
5, 110880, Note_on_c, 9, 42, 95
5, 110880, Note_on_c, 9, 38, 95
5, 111120, Note_off_c, 9, 42, 80
5, 111120, Note_off_c, 9, 38, 80
5, 111120, Note_on_c, 9, 42, 95
5, 111360, Note_off_c, 9, 42, 80
5, 111360, Note_on_c, 9, 42, 95
5, 111360, Note_on_c, 9, 35, 95
5, 111600, Note_off_c, 9, 42, 80
5, 111600, Note_off_c, 9, 35, 80
5, 111600, Note_on_c, 9, 42, 95
5, 111600, Note_on_c, 9, 35, 95
5, 111840, Note_off_c, 9, 42, 80
5, 111840, Note_off_c, 9, 35, 80
5, 111840, Note_on_c, 9, 42, 95
5, 111840, Note_on_c, 9, 38, 95
5, 112080, Note_off_c, 9, 42, 80
5, 112080, Note_off_c, 9, 38, 80
5, 112080, Note_on_c, 9, 42, 95
5, 112320, Note_off_c, 9, 42, 80
5, 112320, Note_on_c, 9, 42, 95
5, 112320, Note_on_c, 9, 35, 95
5, 112560, Note_off_c, 9, 42, 80
5, 112560, Note_off_c, 9, 35, 80
5, 112560, Note_on_c, 9, 42, 95
5, 112560, Note_on_c, 9, 35, 95
5, 112800, Note_off_c, 9, 42, 80
5, 112800, Note_off_c, 9, 35, 80
5, 112800, Note_on_c, 9, 46, 95
5, 113040, Note_off_c, 9, 46, 80
5, 113040, Note_on_c, 9, 38, 95
5, 113160, Note_off_c, 9, 38, 80
5, 113160, Note_on_c, 9, 38, 95
5, 113280, Note_off_c, 9, 38, 80
5, 113280, Note_on_c, 9, 42, 95
5, 113280, Note_on_c, 9, 57, 95
5, 113280, Note_on_c, 9, 35, 95
5, 113520, Note_off_c, 9, 42, 80
5, 113520, Note_off_c, 9, 57, 80
5, 113520, Note_off_c, 9, 35, 80
5, 113520, Note_on_c, 9, 42, 95
5, 113760, Note_off_c, 9, 42, 80
5, 113760, Note_on_c, 9, 42, 95
5, 113760, Note_on_c, 9, 38, 95
5, 114000, Note_off_c, 9, 42, 80
5, 114000, Note_off_c, 9, 38, 80
5, 114000, Note_on_c, 9, 42, 95
5, 114000, Note_on_c, 9, 35, 95
5, 114240, Note_off_c, 9, 42, 80
5, 114240, Note_off_c, 9, 35, 80
5, 114240, Note_on_c, 9, 42, 95
5, 114240, Note_on_c, 9, 38, 95
5, 114480, Note_off_c, 9, 42, 80
5, 114480, Note_off_c, 9, 38, 80
5, 114480, Note_on_c, 9, 42, 95
5, 114480, Note_on_c, 9, 35, 95
5, 114720, Note_off_c, 9, 42, 80
5, 114720, Note_off_c, 9, 35, 80
5, 114720, Note_on_c, 9, 42, 95
5, 114720, Note_on_c, 9, 38, 95
5, 114960, Note_off_c, 9, 42, 80
5, 114960, Note_off_c, 9, 38, 80
5, 114960, Note_on_c, 9, 42, 95
5, 114960, Note_on_c, 9, 35, 95
5, 115200, Note_off_c, 9, 42, 80
5, 115200, Note_off_c, 9, 35, 80
5, 115200, Note_on_c, 9, 42, 95
5, 115200, Note_on_c, 9, 38, 95
5, 115440, Note_off_c, 9, 42, 80
5, 115440, Note_off_c, 9, 38, 80
5, 115440, Note_on_c, 9, 42, 95
5, 115440, Note_on_c, 9, 35, 95
5, 115680, Note_off_c, 9, 42, 80
5, 115680, Note_off_c, 9, 35, 80
5, 115680, Note_on_c, 9, 42, 95
5, 115680, Note_on_c, 9, 38, 95
5, 115920, Note_off_c, 9, 42, 80
5, 115920, Note_off_c, 9, 38, 80
5, 115920, Note_on_c, 9, 42, 95
5, 115920, Note_on_c, 9, 35, 95
5, 116160, Note_off_c, 9, 42, 80
5, 116160, Note_off_c, 9, 35, 80
5, 116160, Note_on_c, 9, 42, 95
5, 116160, Note_on_c, 9, 38, 95
5, 116400, Note_off_c, 9, 42, 80
5, 116400, Note_off_c, 9, 38, 80
5, 116400, Note_on_c, 9, 42, 95
5, 116400, Note_on_c, 9, 35, 95
5, 116640, Note_off_c, 9, 42, 80
5, 116640, Note_off_c, 9, 35, 80
5, 116640, Note_on_c, 9, 42, 95
5, 116640, Note_on_c, 9, 38, 95
5, 116880, Note_off_c, 9, 42, 80
5, 116880, Note_off_c, 9, 38, 80
5, 116880, Note_on_c, 9, 42, 95
5, 116880, Note_on_c, 9, 35, 95
5, 117120, Note_off_c, 9, 42, 80
5, 117120, Note_off_c, 9, 35, 80
5, 117120, Note_on_c, 9, 42, 95
5, 117120, Note_on_c, 9, 38, 95
5, 117360, Note_off_c, 9, 42, 80
5, 117360, Note_off_c, 9, 38, 80
5, 117360, Note_on_c, 9, 42, 95
5, 117360, Note_on_c, 9, 35, 95
5, 117600, Note_off_c, 9, 42, 80
5, 117600, Note_off_c, 9, 35, 80
5, 117600, Note_on_c, 9, 42, 95
5, 117600, Note_on_c, 9, 38, 95
5, 117840, Note_off_c, 9, 42, 80
5, 117840, Note_off_c, 9, 38, 80
5, 117840, Note_on_c, 9, 42, 95
5, 117840, Note_on_c, 9, 35, 95
5, 118080, Note_off_c, 9, 42, 80
5, 118080, Note_off_c, 9, 35, 80
5, 118080, Note_on_c, 9, 42, 95
5, 118080, Note_on_c, 9, 38, 95
5, 118320, Note_off_c, 9, 42, 80
5, 118320, Note_off_c, 9, 38, 80
5, 118320, Note_on_c, 9, 42, 95
5, 118320, Note_on_c, 9, 35, 95
5, 118560, Note_off_c, 9, 42, 80
5, 118560, Note_off_c, 9, 35, 80
5, 118560, Note_on_c, 9, 42, 95
5, 118560, Note_on_c, 9, 38, 95
5, 118800, Note_off_c, 9, 42, 80
5, 118800, Note_off_c, 9, 38, 80
5, 118800, Note_on_c, 9, 42, 95
5, 118800, Note_on_c, 9, 35, 95
5, 119040, Note_off_c, 9, 42, 80
5, 119040, Note_off_c, 9, 35, 80
5, 119040, Note_on_c, 9, 42, 95
5, 119040, Note_on_c, 9, 38, 95
5, 119280, Note_off_c, 9, 42, 80
5, 119280, Note_off_c, 9, 38, 80
5, 119280, Note_on_c, 9, 42, 95
5, 119280, Note_on_c, 9, 35, 95
5, 119520, Note_off_c, 9, 42, 80
5, 119520, Note_off_c, 9, 35, 80
5, 119520, Note_on_c, 9, 42, 95
5, 119520, Note_on_c, 9, 38, 95
5, 119760, Note_off_c, 9, 42, 80
5, 119760, Note_off_c, 9, 38, 80
5, 119760, Note_on_c, 9, 42, 95
5, 119760, Note_on_c, 9, 35, 95
5, 120000, Note_off_c, 9, 42, 80
5, 120000, Note_off_c, 9, 35, 80
5, 120000, Note_on_c, 9, 42, 95
5, 120000, Note_on_c, 9, 38, 95
5, 120240, Note_off_c, 9, 42, 80
5, 120240, Note_off_c, 9, 38, 80
5, 120240, Note_on_c, 9, 42, 95
5, 120240, Note_on_c, 9, 35, 95
5, 120480, Note_off_c, 9, 42, 80
5, 120480, Note_off_c, 9, 35, 80
5, 120480, Note_on_c, 9, 42, 95
5, 120480, Note_on_c, 9, 38, 95
5, 120720, Note_off_c, 9, 42, 80
5, 120720, Note_off_c, 9, 38, 80
5, 120720, Note_on_c, 9, 42, 95
5, 120720, Note_on_c, 9, 35, 95
5, 120960, Note_off_c, 9, 42, 80
5, 120960, Note_off_c, 9, 35, 80
5, 120960, Note_on_c, 9, 42, 95
5, 120960, Note_on_c, 9, 57, 95
5, 120960, Note_on_c, 9, 35, 95
5, 121200, Note_off_c, 9, 42, 80
5, 121200, Note_off_c, 9, 57, 80
5, 121200, Note_off_c, 9, 35, 80
5, 121200, Note_on_c, 9, 42, 95
5, 121440, Note_off_c, 9, 42, 80
5, 121440, Note_on_c, 9, 42, 95
5, 121440, Note_on_c, 9, 38, 95
5, 121680, Note_off_c, 9, 42, 80
5, 121680, Note_off_c, 9, 38, 80
5, 121680, Note_on_c, 9, 42, 95
5, 121680, Note_on_c, 9, 35, 95
5, 121920, Note_off_c, 9, 42, 80
5, 121920, Note_off_c, 9, 35, 80
5, 121920, Note_on_c, 9, 42, 95
5, 121920, Note_on_c, 9, 38, 95
5, 122160, Note_off_c, 9, 42, 80
5, 122160, Note_off_c, 9, 38, 80
5, 122160, Note_on_c, 9, 42, 95
5, 122160, Note_on_c, 9, 35, 95
5, 122400, Note_off_c, 9, 42, 80
5, 122400, Note_off_c, 9, 35, 80
5, 122400, Note_on_c, 9, 42, 95
5, 122400, Note_on_c, 9, 38, 95
5, 122640, Note_off_c, 9, 42, 80
5, 122640, Note_off_c, 9, 38, 80
5, 122640, Note_on_c, 9, 42, 95
5, 122640, Note_on_c, 9, 35, 95
5, 122880, Note_off_c, 9, 42, 80
5, 122880, Note_off_c, 9, 35, 80
5, 122880, Note_on_c, 9, 42, 95
5, 122880, Note_on_c, 9, 38, 95
5, 123120, Note_off_c, 9, 42, 80
5, 123120, Note_off_c, 9, 38, 80
5, 123120, Note_on_c, 9, 42, 95
5, 123120, Note_on_c, 9, 35, 95
5, 123360, Note_off_c, 9, 42, 80
5, 123360, Note_off_c, 9, 35, 80
5, 123360, Note_on_c, 9, 42, 95
5, 123360, Note_on_c, 9, 38, 95
5, 123600, Note_off_c, 9, 42, 80
5, 123600, Note_off_c, 9, 38, 80
5, 123600, Note_on_c, 9, 42, 95
5, 123600, Note_on_c, 9, 35, 95
5, 123840, Note_off_c, 9, 42, 80
5, 123840, Note_off_c, 9, 35, 80
5, 123840, Note_on_c, 9, 42, 95
5, 123840, Note_on_c, 9, 38, 95
5, 124080, Note_off_c, 9, 42, 80
5, 124080, Note_off_c, 9, 38, 80
5, 124080, Note_on_c, 9, 42, 95
5, 124080, Note_on_c, 9, 35, 95
5, 124320, Note_off_c, 9, 42, 80
5, 124320, Note_off_c, 9, 35, 80
5, 124320, Note_on_c, 9, 42, 95
5, 124320, Note_on_c, 9, 38, 95
5, 124560, Note_off_c, 9, 42, 80
5, 124560, Note_off_c, 9, 38, 80
5, 124560, Note_on_c, 9, 42, 95
5, 124560, Note_on_c, 9, 35, 95
5, 124800, Note_off_c, 9, 42, 80
5, 124800, Note_off_c, 9, 35, 80
5, 124800, Note_on_c, 9, 42, 95
5, 124800, Note_on_c, 9, 38, 95
5, 125040, Note_off_c, 9, 42, 80
5, 125040, Note_off_c, 9, 38, 80
5, 125040, Note_on_c, 9, 42, 95
5, 125040, Note_on_c, 9, 35, 95
5, 125280, Note_off_c, 9, 42, 80
5, 125280, Note_off_c, 9, 35, 80
5, 125280, Note_on_c, 9, 42, 95
5, 125280, Note_on_c, 9, 38, 95
5, 125520, Note_off_c, 9, 42, 80
5, 125520, Note_off_c, 9, 38, 80
5, 125520, Note_on_c, 9, 42, 95
5, 125520, Note_on_c, 9, 35, 95
5, 125760, Note_off_c, 9, 42, 80
5, 125760, Note_off_c, 9, 35, 80
5, 125760, Note_on_c, 9, 42, 95
5, 125760, Note_on_c, 9, 38, 95
5, 126000, Note_off_c, 9, 42, 80
5, 126000, Note_off_c, 9, 38, 80
5, 126000, Note_on_c, 9, 42, 95
5, 126000, Note_on_c, 9, 35, 95
5, 126240, Note_off_c, 9, 42, 80
5, 126240, Note_off_c, 9, 35, 80
5, 126240, Note_on_c, 9, 42, 95
5, 126240, Note_on_c, 9, 38, 95
5, 126480, Note_off_c, 9, 42, 80
5, 126480, Note_off_c, 9, 38, 80
5, 126480, Note_on_c, 9, 42, 95
5, 126480, Note_on_c, 9, 35, 95
5, 126720, Note_off_c, 9, 42, 80
5, 126720, Note_off_c, 9, 35, 80
5, 126720, Note_on_c, 9, 42, 95
5, 126720, Note_on_c, 9, 38, 95
5, 126960, Note_off_c, 9, 42, 80
5, 126960, Note_off_c, 9, 38, 80
5, 126960, Note_on_c, 9, 42, 95
5, 126960, Note_on_c, 9, 35, 95
5, 127200, Note_off_c, 9, 42, 80
5, 127200, Note_off_c, 9, 35, 80
5, 127200, Note_on_c, 9, 42, 95
5, 127200, Note_on_c, 9, 38, 95
5, 127440, Note_off_c, 9, 42, 80
5, 127440, Note_off_c, 9, 38, 80
5, 127440, Note_on_c, 9, 42, 95
5, 127440, Note_on_c, 9, 35, 95
5, 127680, Note_off_c, 9, 42, 80
5, 127680, Note_off_c, 9, 35, 80
5, 127680, Note_on_c, 9, 42, 95
5, 127680, Note_on_c, 9, 38, 95
5, 127920, Note_off_c, 9, 42, 80
5, 127920, Note_off_c, 9, 38, 80
5, 127920, Note_on_c, 9, 42, 95
5, 127920, Note_on_c, 9, 35, 95
5, 128160, Note_off_c, 9, 42, 80
5, 128160, Note_off_c, 9, 35, 80
5, 128160, Note_on_c, 9, 42, 95
5, 128160, Note_on_c, 9, 38, 95
5, 128400, Note_off_c, 9, 42, 80
5, 128400, Note_off_c, 9, 38, 80
5, 128400, Note_on_c, 9, 42, 95
5, 128400, Note_on_c, 9, 35, 95
5, 128640, Note_off_c, 9, 42, 80
5, 128640, Note_off_c, 9, 35, 80
5, 128640, Note_on_c, 9, 42, 95
5, 128640, Note_on_c, 9, 57, 95
5, 128640, Note_on_c, 9, 35, 95
5, 128880, Note_off_c, 9, 42, 80
5, 128880, Note_off_c, 9, 57, 80
5, 128880, Note_off_c, 9, 35, 80
5, 128880, Note_on_c, 9, 42, 95
5, 129120, Note_off_c, 9, 42, 80
5, 129120, Note_on_c, 9, 42, 95
5, 129120, Note_on_c, 9, 38, 95
5, 129360, Note_off_c, 9, 42, 80
5, 129360, Note_off_c, 9, 38, 80
5, 129360, Note_on_c, 9, 42, 95
5, 129360, Note_on_c, 9, 35, 95
5, 129600, Note_off_c, 9, 42, 80
5, 129600, Note_off_c, 9, 35, 80
5, 129600, Note_on_c, 9, 42, 95
5, 129600, Note_on_c, 9, 38, 95
5, 129840, Note_off_c, 9, 42, 80
5, 129840, Note_off_c, 9, 38, 80
5, 129840, Note_on_c, 9, 42, 95
5, 129840, Note_on_c, 9, 35, 95
5, 130080, Note_off_c, 9, 42, 80
5, 130080, Note_off_c, 9, 35, 80
5, 130080, Note_on_c, 9, 42, 95
5, 130080, Note_on_c, 9, 38, 95
5, 130320, Note_off_c, 9, 42, 80
5, 130320, Note_off_c, 9, 38, 80
5, 130320, Note_on_c, 9, 42, 95
5, 130320, Note_on_c, 9, 35, 95
5, 130560, Note_off_c, 9, 42, 80
5, 130560, Note_off_c, 9, 35, 80
5, 130560, Note_on_c, 9, 42, 95
5, 130560, Note_on_c, 9, 38, 95
5, 130800, Note_off_c, 9, 42, 80
5, 130800, Note_off_c, 9, 38, 80
5, 130800, Note_on_c, 9, 42, 95
5, 130800, Note_on_c, 9, 35, 95
5, 131040, Note_off_c, 9, 42, 80
5, 131040, Note_off_c, 9, 35, 80
5, 131040, Note_on_c, 9, 42, 95
5, 131040, Note_on_c, 9, 38, 95
5, 131280, Note_off_c, 9, 42, 80
5, 131280, Note_off_c, 9, 38, 80
5, 131280, Note_on_c, 9, 42, 95
5, 131280, Note_on_c, 9, 35, 95
5, 131520, Note_off_c, 9, 42, 80
5, 131520, Note_off_c, 9, 35, 80
5, 131520, Note_on_c, 9, 42, 95
5, 131520, Note_on_c, 9, 38, 95
5, 131760, Note_off_c, 9, 42, 80
5, 131760, Note_off_c, 9, 38, 80
5, 131760, Note_on_c, 9, 42, 95
5, 131760, Note_on_c, 9, 35, 95
5, 132000, Note_off_c, 9, 42, 80
5, 132000, Note_off_c, 9, 35, 80
5, 132000, Note_on_c, 9, 42, 95
5, 132000, Note_on_c, 9, 38, 95
5, 132240, Note_off_c, 9, 42, 80
5, 132240, Note_off_c, 9, 38, 80
5, 132240, Note_on_c, 9, 42, 95
5, 132240, Note_on_c, 9, 35, 95
5, 132480, Note_off_c, 9, 42, 80
5, 132480, Note_off_c, 9, 35, 80
5, 132480, Note_on_c, 9, 42, 95
5, 132480, Note_on_c, 9, 38, 95
5, 132720, Note_off_c, 9, 42, 80
5, 132720, Note_off_c, 9, 38, 80
5, 132720, Note_on_c, 9, 42, 95
5, 132720, Note_on_c, 9, 35, 95
5, 132960, Note_off_c, 9, 42, 80
5, 132960, Note_off_c, 9, 35, 80
5, 132960, Note_on_c, 9, 42, 95
5, 132960, Note_on_c, 9, 38, 95
5, 133200, Note_off_c, 9, 42, 80
5, 133200, Note_off_c, 9, 38, 80
5, 133200, Note_on_c, 9, 42, 95
5, 133200, Note_on_c, 9, 35, 95
5, 133440, Note_off_c, 9, 42, 80
5, 133440, Note_off_c, 9, 35, 80
5, 133440, Note_on_c, 9, 42, 95
5, 133440, Note_on_c, 9, 38, 95
5, 133680, Note_off_c, 9, 42, 80
5, 133680, Note_off_c, 9, 38, 80
5, 133680, Note_on_c, 9, 42, 95
5, 133680, Note_on_c, 9, 35, 95
5, 133920, Note_off_c, 9, 42, 80
5, 133920, Note_off_c, 9, 35, 80
5, 133920, Note_on_c, 9, 42, 95
5, 133920, Note_on_c, 9, 38, 95
5, 134160, Note_off_c, 9, 42, 80
5, 134160, Note_off_c, 9, 38, 80
5, 134160, Note_on_c, 9, 42, 95
5, 134160, Note_on_c, 9, 35, 95
5, 134400, Note_off_c, 9, 42, 80
5, 134400, Note_off_c, 9, 35, 80
5, 134400, Note_on_c, 9, 42, 95
5, 134400, Note_on_c, 9, 38, 95
5, 134640, Note_off_c, 9, 42, 80
5, 134640, Note_off_c, 9, 38, 80
5, 134640, Note_on_c, 9, 42, 95
5, 134640, Note_on_c, 9, 35, 95
5, 134880, Note_off_c, 9, 42, 80
5, 134880, Note_off_c, 9, 35, 80
5, 134880, Note_on_c, 9, 42, 95
5, 134880, Note_on_c, 9, 38, 95
5, 135120, Note_off_c, 9, 42, 80
5, 135120, Note_off_c, 9, 38, 80
5, 135120, Note_on_c, 9, 42, 95
5, 135120, Note_on_c, 9, 35, 95
5, 135360, Note_off_c, 9, 42, 80
5, 135360, Note_off_c, 9, 35, 80
5, 135360, Note_on_c, 9, 42, 95
5, 135360, Note_on_c, 9, 38, 95
5, 135600, Note_off_c, 9, 42, 80
5, 135600, Note_off_c, 9, 38, 80
5, 135600, Note_on_c, 9, 42, 95
5, 135600, Note_on_c, 9, 35, 95
5, 135840, Note_off_c, 9, 42, 80
5, 135840, Note_off_c, 9, 35, 80
5, 135840, Note_on_c, 9, 42, 95
5, 135840, Note_on_c, 9, 57, 95
5, 135840, Note_on_c, 9, 38, 95
5, 136080, Note_off_c, 9, 42, 80
5, 136080, Note_off_c, 9, 57, 80
5, 136080, Note_off_c, 9, 38, 80
5, 136320, Note_on_c, 9, 42, 95
5, 136320, Note_on_c, 9, 57, 95
5, 136320, Note_on_c, 9, 35, 95
5, 136560, Note_off_c, 9, 42, 80
5, 136560, Note_off_c, 9, 57, 80
5, 136560, Note_off_c, 9, 35, 80
5, 136560, Note_on_c, 9, 42, 95
5, 136800, Note_off_c, 9, 42, 80
5, 136800, Note_on_c, 9, 42, 95
5, 137040, Note_off_c, 9, 42, 80
5, 137040, Note_on_c, 9, 42, 95
5, 137040, Note_on_c, 9, 35, 95
5, 137280, Note_off_c, 9, 42, 80
5, 137280, Note_off_c, 9, 35, 80
5, 137280, Note_on_c, 9, 42, 95
5, 137280, Note_on_c, 9, 35, 95
5, 137520, Note_off_c, 9, 42, 80
5, 137520, Note_off_c, 9, 35, 80
5, 137520, Note_on_c, 9, 42, 95
5, 137760, Note_off_c, 9, 42, 80
5, 137760, Note_on_c, 9, 42, 95
5, 137760, Note_on_c, 9, 38, 95
5, 138000, Note_off_c, 9, 42, 80
5, 138000, Note_off_c, 9, 38, 80
5, 138000, Note_on_c, 9, 42, 95
5, 138240, Note_off_c, 9, 42, 80
5, 138240, Note_on_c, 9, 42, 95
5, 138240, Note_on_c, 9, 35, 95
5, 138480, Note_off_c, 9, 42, 80
5, 138480, Note_off_c, 9, 35, 80
5, 138480, Note_on_c, 9, 42, 95
5, 138720, Note_off_c, 9, 42, 80
5, 138720, Note_on_c, 9, 42, 95
5, 138960, Note_off_c, 9, 42, 80
5, 138960, Note_on_c, 9, 42, 95
5, 138960, Note_on_c, 9, 35, 95
5, 139200, Note_off_c, 9, 42, 80
5, 139200, Note_off_c, 9, 35, 80
5, 139200, Note_on_c, 9, 42, 95
5, 139200, Note_on_c, 9, 35, 95
5, 139440, Note_off_c, 9, 42, 80
5, 139440, Note_off_c, 9, 35, 80
5, 139440, Note_on_c, 9, 42, 95
5, 139680, Note_off_c, 9, 42, 80
5, 139680, Note_on_c, 9, 42, 95
5, 139680, Note_on_c, 9, 38, 95
5, 139920, Note_off_c, 9, 42, 80
5, 139920, Note_off_c, 9, 38, 80
5, 139920, Note_on_c, 9, 42, 95
5, 140160, Note_off_c, 9, 42, 80
5, 140160, Note_on_c, 9, 42, 95
5, 140160, Note_on_c, 9, 35, 95
5, 140400, Note_off_c, 9, 42, 80
5, 140400, Note_off_c, 9, 35, 80
5, 140400, Note_on_c, 9, 42, 95
5, 140640, Note_off_c, 9, 42, 80
5, 140640, Note_on_c, 9, 42, 95
5, 140640, Note_on_c, 9, 38, 95
5, 140880, Note_off_c, 9, 42, 80
5, 140880, Note_off_c, 9, 38, 80
5, 140880, Note_on_c, 9, 42, 95
5, 141120, Note_off_c, 9, 42, 80
5, 141120, Note_on_c, 9, 42, 95
5, 141120, Note_on_c, 9, 35, 95
5, 141360, Note_off_c, 9, 42, 80
5, 141360, Note_off_c, 9, 35, 80
5, 141360, Note_on_c, 9, 42, 95
5, 141600, Note_off_c, 9, 42, 80
5, 141600, Note_on_c, 9, 42, 95
5, 141600, Note_on_c, 9, 38, 95
5, 141840, Note_off_c, 9, 42, 80
5, 141840, Note_off_c, 9, 38, 80
5, 141840, Note_on_c, 9, 42, 95
5, 142080, Note_off_c, 9, 42, 80
5, 142080, Note_on_c, 9, 42, 95
5, 142080, Note_on_c, 9, 35, 95
5, 142320, Note_off_c, 9, 42, 80
5, 142320, Note_off_c, 9, 35, 80
5, 142320, Note_on_c, 9, 42, 95
5, 142320, Note_on_c, 9, 35, 95
5, 142560, Note_off_c, 9, 42, 80
5, 142560, Note_off_c, 9, 35, 80
5, 142560, Note_on_c, 9, 42, 95
5, 142560, Note_on_c, 9, 38, 95
5, 142800, Note_off_c, 9, 42, 80
5, 142800, Note_off_c, 9, 38, 80
5, 142800, Note_on_c, 9, 42, 95
5, 142800, Note_on_c, 9, 35, 95
5, 143040, Note_off_c, 9, 42, 80
5, 143040, Note_off_c, 9, 35, 80
5, 143040, Note_on_c, 9, 46, 95
5, 143040, Note_on_c, 9, 38, 95
5, 143280, Note_off_c, 9, 46, 80
5, 143280, Note_off_c, 9, 38, 80
5, 143280, Note_on_c, 9, 35, 95
5, 143520, Note_off_c, 9, 35, 80
5, 143520, Note_on_c, 9, 38, 95
5, 143760, Note_off_c, 9, 38, 80
5, 143760, Note_on_c, 9, 38, 95
5, 143880, Note_off_c, 9, 38, 80
5, 143880, Note_on_c, 9, 38, 95
5, 144000, Note_off_c, 9, 38, 80
5, 144000, Note_on_c, 9, 38, 127
5, 144000, Note_on_c, 9, 35, 95
5, 145440, Note_off_c, 9, 38, 80
5, 145440, Note_off_c, 9, 35, 80
5, 145680, Note_on_c, 9, 38, 127
5, 145920, Note_off_c, 9, 38, 80
5, 145920, Note_on_c, 9, 42, 95
5, 145920, Note_on_c, 9, 57, 95
5, 145920, Note_on_c, 9, 35, 95
5, 146160, Note_off_c, 9, 42, 80
5, 146160, Note_off_c, 9, 57, 80
5, 146160, Note_off_c, 9, 35, 80
5, 146160, Note_on_c, 9, 42, 95
5, 146400, Note_off_c, 9, 42, 80
5, 146400, Note_on_c, 9, 42, 95
5, 146400, Note_on_c, 9, 38, 95
5, 146640, Note_off_c, 9, 42, 80
5, 146640, Note_off_c, 9, 38, 80
5, 146640, Note_on_c, 9, 42, 95
5, 146880, Note_off_c, 9, 42, 80
5, 146880, Note_on_c, 9, 42, 95
5, 146880, Note_on_c, 9, 35, 95
5, 147120, Note_off_c, 9, 42, 80
5, 147120, Note_off_c, 9, 35, 80
5, 147120, Note_on_c, 9, 42, 95
5, 147120, Note_on_c, 9, 35, 95
5, 147360, Note_off_c, 9, 42, 80
5, 147360, Note_off_c, 9, 35, 80
5, 147360, Note_on_c, 9, 42, 95
5, 147360, Note_on_c, 9, 38, 95
5, 147600, Note_off_c, 9, 42, 80
5, 147600, Note_off_c, 9, 38, 80
5, 147600, Note_on_c, 9, 42, 95
5, 147600, Note_on_c, 9, 35, 95
5, 147840, Note_off_c, 9, 42, 80
5, 147840, Note_off_c, 9, 35, 80
5, 147840, Note_on_c, 9, 42, 95
5, 147840, Note_on_c, 9, 35, 95
5, 148080, Note_off_c, 9, 42, 80
5, 148080, Note_off_c, 9, 35, 80
5, 148080, Note_on_c, 9, 42, 95
5, 148320, Note_off_c, 9, 42, 80
5, 148320, Note_on_c, 9, 42, 95
5, 148320, Note_on_c, 9, 38, 95
5, 148560, Note_off_c, 9, 42, 80
5, 148560, Note_off_c, 9, 38, 80
5, 148560, Note_on_c, 9, 42, 95
5, 148800, Note_off_c, 9, 42, 80
5, 148800, Note_on_c, 9, 42, 95
5, 148800, Note_on_c, 9, 35, 95
5, 149040, Note_off_c, 9, 42, 80
5, 149040, Note_off_c, 9, 35, 80
5, 149040, Note_on_c, 9, 42, 95
5, 149040, Note_on_c, 9, 35, 95
5, 149280, Note_off_c, 9, 42, 80
5, 149280, Note_off_c, 9, 35, 80
5, 149280, Note_on_c, 9, 42, 95
5, 149280, Note_on_c, 9, 38, 95
5, 149520, Note_off_c, 9, 42, 80
5, 149520, Note_off_c, 9, 38, 80
5, 149520, Note_on_c, 9, 42, 95
5, 149520, Note_on_c, 9, 35, 95
5, 149760, Note_off_c, 9, 42, 80
5, 149760, Note_off_c, 9, 35, 80
5, 149760, Note_on_c, 9, 42, 95
5, 149760, Note_on_c, 9, 35, 95
5, 150000, Note_off_c, 9, 42, 80
5, 150000, Note_off_c, 9, 35, 80
5, 150000, Note_on_c, 9, 42, 95
5, 150240, Note_off_c, 9, 42, 80
5, 150240, Note_on_c, 9, 42, 95
5, 150240, Note_on_c, 9, 38, 95
5, 150480, Note_off_c, 9, 42, 80
5, 150480, Note_off_c, 9, 38, 80
5, 150480, Note_on_c, 9, 42, 95
5, 150720, Note_off_c, 9, 42, 80
5, 150720, Note_on_c, 9, 42, 95
5, 150720, Note_on_c, 9, 35, 95
5, 150960, Note_off_c, 9, 42, 80
5, 150960, Note_off_c, 9, 35, 80
5, 150960, Note_on_c, 9, 42, 95
5, 150960, Note_on_c, 9, 35, 95
5, 151200, Note_off_c, 9, 42, 80
5, 151200, Note_off_c, 9, 35, 80
5, 151200, Note_on_c, 9, 42, 95
5, 151200, Note_on_c, 9, 38, 95
5, 151440, Note_off_c, 9, 42, 80
5, 151440, Note_off_c, 9, 38, 80
5, 151440, Note_on_c, 9, 42, 95
5, 151440, Note_on_c, 9, 35, 95
5, 151680, Note_off_c, 9, 42, 80
5, 151680, Note_off_c, 9, 35, 80
5, 151680, Note_on_c, 9, 42, 95
5, 151680, Note_on_c, 9, 35, 95
5, 151920, Note_off_c, 9, 42, 80
5, 151920, Note_off_c, 9, 35, 80
5, 151920, Note_on_c, 9, 42, 95
5, 152160, Note_off_c, 9, 42, 80
5, 152160, Note_on_c, 9, 42, 95
5, 152160, Note_on_c, 9, 38, 95
5, 152400, Note_off_c, 9, 42, 80
5, 152400, Note_off_c, 9, 38, 80
5, 152400, Note_on_c, 9, 42, 95
5, 152640, Note_off_c, 9, 42, 80
5, 152640, Note_on_c, 9, 42, 95
5, 152640, Note_on_c, 9, 35, 95
5, 152880, Note_off_c, 9, 42, 80
5, 152880, Note_off_c, 9, 35, 80
5, 152880, Note_on_c, 9, 42, 95
5, 152880, Note_on_c, 9, 35, 95
5, 153120, Note_off_c, 9, 42, 80
5, 153120, Note_off_c, 9, 35, 80
5, 153120, Note_on_c, 9, 42, 95
5, 153120, Note_on_c, 9, 38, 95
5, 153360, Note_off_c, 9, 42, 80
5, 153360, Note_off_c, 9, 38, 80
5, 153360, Note_on_c, 9, 42, 95
5, 153360, Note_on_c, 9, 35, 95
5, 153600, Note_off_c, 9, 42, 80
5, 153600, Note_off_c, 9, 35, 80
5, 153600, Note_on_c, 9, 42, 95
5, 153600, Note_on_c, 9, 35, 95
5, 153840, Note_off_c, 9, 42, 80
5, 153840, Note_off_c, 9, 35, 80
5, 153840, Note_on_c, 9, 42, 95
5, 154080, Note_off_c, 9, 42, 80
5, 154080, Note_on_c, 9, 42, 95
5, 154080, Note_on_c, 9, 38, 95
5, 154320, Note_off_c, 9, 42, 80
5, 154320, Note_off_c, 9, 38, 80
5, 154320, Note_on_c, 9, 42, 95
5, 154560, Note_off_c, 9, 42, 80
5, 154560, Note_on_c, 9, 42, 95
5, 154560, Note_on_c, 9, 35, 95
5, 154800, Note_off_c, 9, 42, 80
5, 154800, Note_off_c, 9, 35, 80
5, 154800, Note_on_c, 9, 42, 95
5, 154800, Note_on_c, 9, 35, 95
5, 155040, Note_off_c, 9, 42, 80
5, 155040, Note_off_c, 9, 35, 80
5, 155040, Note_on_c, 9, 42, 95
5, 155040, Note_on_c, 9, 38, 95
5, 155280, Note_off_c, 9, 42, 80
5, 155280, Note_off_c, 9, 38, 80
5, 155280, Note_on_c, 9, 42, 95
5, 155280, Note_on_c, 9, 35, 95
5, 155520, Note_off_c, 9, 42, 80
5, 155520, Note_off_c, 9, 35, 80
5, 155520, Note_on_c, 9, 42, 95
5, 155520, Note_on_c, 9, 35, 95
5, 155760, Note_off_c, 9, 42, 80
5, 155760, Note_off_c, 9, 35, 80
5, 155760, Note_on_c, 9, 42, 95
5, 156000, Note_off_c, 9, 42, 80
5, 156000, Note_on_c, 9, 42, 95
5, 156000, Note_on_c, 9, 38, 95
5, 156240, Note_off_c, 9, 42, 80
5, 156240, Note_off_c, 9, 38, 80
5, 156240, Note_on_c, 9, 42, 95
5, 156480, Note_off_c, 9, 42, 80
5, 156480, Note_on_c, 9, 42, 95
5, 156480, Note_on_c, 9, 35, 95
5, 156720, Note_off_c, 9, 42, 80
5, 156720, Note_off_c, 9, 35, 80
5, 156720, Note_on_c, 9, 42, 95
5, 156720, Note_on_c, 9, 35, 95
5, 156960, Note_off_c, 9, 42, 80
5, 156960, Note_off_c, 9, 35, 80
5, 156960, Note_on_c, 9, 42, 95
5, 156960, Note_on_c, 9, 38, 95
5, 157200, Note_off_c, 9, 42, 80
5, 157200, Note_off_c, 9, 38, 80
5, 157200, Note_on_c, 9, 42, 95
5, 157200, Note_on_c, 9, 35, 95
5, 157440, Note_off_c, 9, 42, 80
5, 157440, Note_off_c, 9, 35, 80
5, 157440, Note_on_c, 9, 42, 95
5, 157440, Note_on_c, 9, 35, 95
5, 157680, Note_off_c, 9, 42, 80
5, 157680, Note_off_c, 9, 35, 80
5, 157680, Note_on_c, 9, 42, 95
5, 157920, Note_off_c, 9, 42, 80
5, 157920, Note_on_c, 9, 42, 95
5, 157920, Note_on_c, 9, 38, 95
5, 158160, Note_off_c, 9, 42, 80
5, 158160, Note_off_c, 9, 38, 80
5, 158160, Note_on_c, 9, 42, 95
5, 158400, Note_off_c, 9, 42, 80
5, 158400, Note_on_c, 9, 42, 95
5, 158400, Note_on_c, 9, 35, 95
5, 158640, Note_off_c, 9, 42, 80
5, 158640, Note_off_c, 9, 35, 80
5, 158640, Note_on_c, 9, 42, 95
5, 158640, Note_on_c, 9, 35, 95
5, 158880, Note_off_c, 9, 42, 80
5, 158880, Note_off_c, 9, 35, 80
5, 158880, Note_on_c, 9, 42, 95
5, 158880, Note_on_c, 9, 38, 95
5, 159120, Note_off_c, 9, 42, 80
5, 159120, Note_off_c, 9, 38, 80
5, 159120, Note_on_c, 9, 42, 95
5, 159120, Note_on_c, 9, 35, 95
5, 159360, Note_off_c, 9, 42, 80
5, 159360, Note_off_c, 9, 35, 80
5, 159360, Note_on_c, 9, 42, 95
5, 159360, Note_on_c, 9, 35, 95
5, 159600, Note_off_c, 9, 42, 80
5, 159600, Note_off_c, 9, 35, 80
5, 159600, Note_on_c, 9, 42, 95
5, 159840, Note_off_c, 9, 42, 80
5, 159840, Note_on_c, 9, 42, 95
5, 159840, Note_on_c, 9, 38, 95
5, 160080, Note_off_c, 9, 42, 80
5, 160080, Note_off_c, 9, 38, 80
5, 160080, Note_on_c, 9, 42, 95
5, 160320, Note_off_c, 9, 42, 80
5, 160320, Note_on_c, 9, 42, 95
5, 160320, Note_on_c, 9, 35, 95
5, 160560, Note_off_c, 9, 42, 80
5, 160560, Note_off_c, 9, 35, 80
5, 160560, Note_on_c, 9, 42, 95
5, 160560, Note_on_c, 9, 35, 95
5, 160800, Note_off_c, 9, 42, 80
5, 160800, Note_off_c, 9, 35, 80
5, 160800, Note_on_c, 9, 42, 95
5, 160800, Note_on_c, 9, 38, 95
5, 161040, Note_off_c, 9, 42, 80
5, 161040, Note_off_c, 9, 38, 80
5, 161040, Note_on_c, 9, 42, 95
5, 161040, Note_on_c, 9, 35, 95
5, 161280, Note_off_c, 9, 42, 80
5, 161280, Note_off_c, 9, 35, 80
5, 161280, Note_on_c, 9, 42, 95
5, 161280, Note_on_c, 9, 35, 95
5, 161520, Note_off_c, 9, 42, 80
5, 161520, Note_off_c, 9, 35, 80
5, 161520, Note_on_c, 9, 42, 95
5, 161760, Note_off_c, 9, 42, 80
5, 161760, Note_on_c, 9, 42, 95
5, 161760, Note_on_c, 9, 38, 95
5, 162000, Note_off_c, 9, 42, 80
5, 162000, Note_off_c, 9, 38, 80
5, 162000, Note_on_c, 9, 42, 95
5, 162240, Note_off_c, 9, 42, 80
5, 162240, Note_on_c, 9, 42, 95
5, 162240, Note_on_c, 9, 35, 95
5, 162480, Note_off_c, 9, 42, 80
5, 162480, Note_off_c, 9, 35, 80
5, 162480, Note_on_c, 9, 42, 95
5, 162480, Note_on_c, 9, 35, 95
5, 162720, Note_off_c, 9, 42, 80
5, 162720, Note_off_c, 9, 35, 80
5, 162720, Note_on_c, 9, 42, 95
5, 162720, Note_on_c, 9, 38, 95
5, 162960, Note_off_c, 9, 42, 80
5, 162960, Note_off_c, 9, 38, 80
5, 162960, Note_on_c, 9, 42, 95
5, 162960, Note_on_c, 9, 35, 95
5, 163200, Note_off_c, 9, 42, 80
5, 163200, Note_off_c, 9, 35, 80
5, 163200, Note_on_c, 9, 42, 95
5, 163200, Note_on_c, 9, 35, 95
5, 163440, Note_off_c, 9, 42, 80
5, 163440, Note_off_c, 9, 35, 80
5, 163440, Note_on_c, 9, 42, 95
5, 163680, Note_off_c, 9, 42, 80
5, 163680, Note_on_c, 9, 42, 95
5, 163680, Note_on_c, 9, 38, 95
5, 163920, Note_off_c, 9, 42, 80
5, 163920, Note_off_c, 9, 38, 80
5, 163920, Note_on_c, 9, 42, 95
5, 164160, Note_off_c, 9, 42, 80
5, 164160, Note_on_c, 9, 42, 95
5, 164160, Note_on_c, 9, 35, 95
5, 164400, Note_off_c, 9, 42, 80
5, 164400, Note_off_c, 9, 35, 80
5, 164400, Note_on_c, 9, 42, 95
5, 164400, Note_on_c, 9, 35, 95
5, 164640, Note_off_c, 9, 42, 80
5, 164640, Note_off_c, 9, 35, 80
5, 164640, Note_on_c, 9, 42, 95
5, 164640, Note_on_c, 9, 38, 95
5, 164880, Note_off_c, 9, 42, 80
5, 164880, Note_off_c, 9, 38, 80
5, 164880, Note_on_c, 9, 42, 95
5, 164880, Note_on_c, 9, 35, 95
5, 165120, Note_off_c, 9, 42, 80
5, 165120, Note_off_c, 9, 35, 80
5, 165120, Note_on_c, 9, 42, 95
5, 165120, Note_on_c, 9, 35, 95
5, 165360, Note_off_c, 9, 42, 80
5, 165360, Note_off_c, 9, 35, 80
5, 165360, Note_on_c, 9, 42, 95
5, 165600, Note_off_c, 9, 42, 80
5, 165600, Note_on_c, 9, 42, 95
5, 165600, Note_on_c, 9, 38, 95
5, 165840, Note_off_c, 9, 42, 80
5, 165840, Note_off_c, 9, 38, 80
5, 165840, Note_on_c, 9, 42, 95
5, 166080, Note_off_c, 9, 42, 80
5, 166080, Note_on_c, 9, 42, 95
5, 166080, Note_on_c, 9, 35, 95
5, 166320, Note_off_c, 9, 42, 80
5, 166320, Note_off_c, 9, 35, 80
5, 166320, Note_on_c, 9, 42, 95
5, 166320, Note_on_c, 9, 35, 95
5, 166560, Note_off_c, 9, 42, 80
5, 166560, Note_off_c, 9, 35, 80
5, 166560, Note_on_c, 9, 42, 95
5, 166560, Note_on_c, 9, 38, 95
5, 166800, Note_off_c, 9, 42, 80
5, 166800, Note_off_c, 9, 38, 80
5, 166800, Note_on_c, 9, 42, 95
5, 166800, Note_on_c, 9, 35, 95
5, 167040, Note_off_c, 9, 42, 80
5, 167040, Note_off_c, 9, 35, 80
5, 167040, Note_on_c, 9, 42, 95
5, 167040, Note_on_c, 9, 35, 95
5, 167280, Note_off_c, 9, 42, 80
5, 167280, Note_off_c, 9, 35, 80
5, 167280, Note_on_c, 9, 42, 95
5, 167520, Note_off_c, 9, 42, 80
5, 167520, Note_on_c, 9, 42, 95
5, 167520, Note_on_c, 9, 38, 95
5, 167760, Note_off_c, 9, 42, 80
5, 167760, Note_off_c, 9, 38, 80
5, 167760, Note_on_c, 9, 42, 95
5, 168000, Note_off_c, 9, 42, 80
5, 168000, Note_on_c, 9, 42, 95
5, 168000, Note_on_c, 9, 43, 95
5, 168120, Note_off_c, 9, 42, 80
5, 168120, Note_off_c, 9, 43, 80
5, 168120, Note_on_c, 9, 43, 95
5, 168240, Note_off_c, 9, 43, 80
5, 168240, Note_on_c, 9, 42, 95
5, 168240, Note_on_c, 9, 43, 95
5, 168480, Note_off_c, 9, 42, 80
5, 168480, Note_off_c, 9, 43, 80
5, 168480, Note_on_c, 9, 46, 95
5, 168480, Note_on_c, 9, 38, 95
5, 168960, Note_off_c, 9, 46, 80
5, 168960, Note_off_c, 9, 38, 80
5, 168960, Control_c, 9, 7, 64
5, 168960, Note_on_c, 9, 38, 50
5, 168960, Note_on_c, 9, 35, 95
5, 169080, Note_off_c, 9, 38, 80
5, 169080, Note_off_c, 9, 35, 80
5, 169080, Note_on_c, 9, 38, 50
5, 169200, Note_off_c, 9, 38, 80
5, 169200, Note_on_c, 9, 38, 50
5, 169320, Note_off_c, 9, 38, 80
5, 169320, Note_on_c, 9, 38, 50
5, 169440, Note_off_c, 9, 38, 80
5, 169440, Note_on_c, 9, 38, 50
5, 169440, Note_on_c, 9, 35, 95
5, 169560, Note_off_c, 9, 38, 80
5, 169560, Note_off_c, 9, 35, 80
5, 169560, Note_on_c, 9, 38, 50
5, 169680, Note_off_c, 9, 38, 80
5, 169680, Note_on_c, 9, 38, 50
5, 169800, Note_off_c, 9, 38, 80
5, 169800, Note_on_c, 9, 38, 50
5, 169920, Note_off_c, 9, 38, 80
5, 169920, Note_on_c, 9, 38, 50
5, 169920, Note_on_c, 9, 35, 95
5, 170040, Note_off_c, 9, 38, 80
5, 170040, Note_off_c, 9, 35, 80
5, 170040, Note_on_c, 9, 38, 50
5, 170160, Note_off_c, 9, 38, 80
5, 170160, Note_on_c, 9, 38, 50
5, 170280, Note_off_c, 9, 38, 80
5, 170280, Note_on_c, 9, 38, 50
5, 170400, Note_off_c, 9, 38, 80
5, 170400, Note_on_c, 9, 38, 50
5, 170400, Note_on_c, 9, 35, 95
5, 170520, Note_off_c, 9, 38, 80
5, 170520, Note_off_c, 9, 35, 80
5, 170520, Note_on_c, 9, 38, 50
5, 170640, Note_off_c, 9, 38, 80
5, 170640, Note_on_c, 9, 38, 50
5, 170760, Note_off_c, 9, 38, 80
5, 170760, Note_on_c, 9, 38, 50
5, 170880, Note_off_c, 9, 38, 80
5, 170880, Control_c, 9, 7, 65
5, 170880, Note_on_c, 9, 38, 50
5, 170880, Note_on_c, 9, 35, 95
5, 171000, Control_c, 9, 7, 66
5, 171000, Note_off_c, 9, 38, 80
5, 171000, Note_off_c, 9, 35, 80
5, 171000, Note_on_c, 9, 38, 50
5, 171120, Control_c, 9, 7, 67
5, 171120, Note_off_c, 9, 38, 80
5, 171120, Note_on_c, 9, 38, 50
5, 171240, Control_c, 9, 7, 69
5, 171240, Note_off_c, 9, 38, 80
5, 171240, Note_on_c, 9, 38, 50
5, 171360, Control_c, 9, 7, 70
5, 171360, Note_off_c, 9, 38, 80
5, 171360, Note_on_c, 9, 38, 50
5, 171360, Note_on_c, 9, 35, 95
5, 171480, Control_c, 9, 7, 71
5, 171480, Note_off_c, 9, 38, 80
5, 171480, Note_off_c, 9, 35, 80
5, 171480, Note_on_c, 9, 38, 50
5, 171600, Control_c, 9, 7, 72
5, 171600, Note_off_c, 9, 38, 80
5, 171600, Note_on_c, 9, 38, 50
5, 171720, Control_c, 9, 7, 73
5, 171720, Note_off_c, 9, 38, 80
5, 171720, Note_on_c, 9, 38, 50
5, 171840, Control_c, 9, 7, 74
5, 171840, Note_off_c, 9, 38, 80
5, 171840, Note_on_c, 9, 38, 50
5, 171840, Note_on_c, 9, 35, 95
5, 171960, Control_c, 9, 7, 75
5, 171960, Note_off_c, 9, 38, 80
5, 171960, Note_off_c, 9, 35, 80
5, 171960, Note_on_c, 9, 38, 50
5, 172080, Control_c, 9, 7, 77
5, 172080, Note_off_c, 9, 38, 80
5, 172080, Note_on_c, 9, 38, 50
5, 172200, Control_c, 9, 7, 78
5, 172200, Note_off_c, 9, 38, 80
5, 172200, Note_on_c, 9, 38, 50
5, 172320, Control_c, 9, 7, 79
5, 172320, Note_off_c, 9, 38, 80
5, 172320, Note_on_c, 9, 38, 50
5, 172320, Note_on_c, 9, 35, 95
5, 172440, Control_c, 9, 7, 80
5, 172440, Note_off_c, 9, 38, 80
5, 172440, Note_off_c, 9, 35, 80
5, 172440, Note_on_c, 9, 38, 50
5, 172560, Control_c, 9, 7, 81
5, 172560, Note_off_c, 9, 38, 80
5, 172560, Note_on_c, 9, 38, 50
5, 172680, Control_c, 9, 7, 82
5, 172680, Note_off_c, 9, 38, 80
5, 172680, Note_on_c, 9, 38, 50
5, 172800, Control_c, 9, 7, 83
5, 172800, Note_off_c, 9, 38, 80
5, 172800, Note_on_c, 9, 38, 50
5, 172800, Note_on_c, 9, 35, 95
5, 172920, Control_c, 9, 7, 85
5, 172920, Note_off_c, 9, 38, 80
5, 172920, Note_off_c, 9, 35, 80
5, 172920, Note_on_c, 9, 38, 50
5, 173040, Control_c, 9, 7, 86
5, 173040, Note_off_c, 9, 38, 80
5, 173040, Note_on_c, 9, 38, 50
5, 173160, Control_c, 9, 7, 87
5, 173160, Note_off_c, 9, 38, 80
5, 173160, Note_on_c, 9, 38, 50
5, 173280, Control_c, 9, 7, 88
5, 173280, Note_off_c, 9, 38, 80
5, 173280, Note_on_c, 9, 38, 50
5, 173280, Note_on_c, 9, 35, 95
5, 173400, Control_c, 9, 7, 89
5, 173400, Note_off_c, 9, 38, 80
5, 173400, Note_off_c, 9, 35, 80
5, 173400, Note_on_c, 9, 38, 50
5, 173520, Control_c, 9, 7, 90
5, 173520, Note_off_c, 9, 38, 80
5, 173520, Note_on_c, 9, 38, 50
5, 173640, Control_c, 9, 7, 91
5, 173640, Note_off_c, 9, 38, 80
5, 173640, Note_on_c, 9, 38, 50
5, 173760, Control_c, 9, 7, 93
5, 173760, Note_off_c, 9, 38, 80
5, 173760, Note_on_c, 9, 38, 50
5, 173760, Note_on_c, 9, 35, 95
5, 173880, Control_c, 9, 7, 94
5, 173880, Note_off_c, 9, 38, 80
5, 173880, Note_off_c, 9, 35, 80
5, 173880, Note_on_c, 9, 38, 50
5, 174000, Control_c, 9, 7, 95
5, 174000, Note_off_c, 9, 38, 80
5, 174000, Note_on_c, 9, 38, 50
5, 174120, Control_c, 9, 7, 96
5, 174120, Note_off_c, 9, 38, 80
5, 174120, Note_on_c, 9, 38, 50
5, 174240, Control_c, 9, 7, 97
5, 174240, Note_off_c, 9, 38, 80
5, 174240, Note_on_c, 9, 38, 50
5, 174240, Note_on_c, 9, 35, 95
5, 174360, Control_c, 9, 7, 98
5, 174360, Note_off_c, 9, 38, 80
5, 174360, Note_off_c, 9, 35, 80
5, 174360, Note_on_c, 9, 38, 50
5, 174480, Control_c, 9, 7, 99
5, 174480, Note_off_c, 9, 38, 80
5, 174480, Note_on_c, 9, 38, 50
5, 174600, Control_c, 9, 7, 101
5, 174600, Note_off_c, 9, 38, 80
5, 174600, Note_on_c, 9, 38, 50
5, 174720, Control_c, 9, 7, 102
5, 174720, Note_off_c, 9, 38, 80
5, 174720, Note_on_c, 9, 38, 50
5, 174720, Note_on_c, 9, 35, 95
5, 174840, Control_c, 9, 7, 103
5, 174840, Note_off_c, 9, 38, 80
5, 174840, Note_off_c, 9, 35, 80
5, 174840, Note_on_c, 9, 38, 50
5, 174960, Control_c, 9, 7, 104
5, 174960, Note_off_c, 9, 38, 80
5, 174960, Note_on_c, 9, 38, 50
5, 175080, Control_c, 9, 7, 105
5, 175080, Note_off_c, 9, 38, 80
5, 175080, Note_on_c, 9, 38, 50
5, 175200, Control_c, 9, 7, 106
5, 175200, Note_off_c, 9, 38, 80
5, 175200, Note_on_c, 9, 38, 50
5, 175200, Note_on_c, 9, 35, 95
5, 175320, Control_c, 9, 7, 107
5, 175320, Note_off_c, 9, 38, 80
5, 175320, Note_off_c, 9, 35, 80
5, 175320, Note_on_c, 9, 38, 50
5, 175440, Control_c, 9, 7, 109
5, 175440, Note_off_c, 9, 38, 80
5, 175440, Note_on_c, 9, 38, 50
5, 175560, Control_c, 9, 7, 110
5, 175560, Note_off_c, 9, 38, 80
5, 175560, Note_on_c, 9, 38, 50
5, 175680, Control_c, 9, 7, 111
5, 175680, Note_off_c, 9, 38, 80
5, 175680, Note_on_c, 9, 38, 50
5, 175680, Note_on_c, 9, 35, 95
5, 175800, Control_c, 9, 7, 112
5, 175800, Note_off_c, 9, 38, 80
5, 175800, Note_off_c, 9, 35, 80
5, 175800, Note_on_c, 9, 38, 50
5, 175920, Control_c, 9, 7, 113
5, 175920, Note_off_c, 9, 38, 80
5, 175920, Note_on_c, 9, 38, 50
5, 176040, Control_c, 9, 7, 114
5, 176040, Note_off_c, 9, 38, 80
5, 176040, Note_on_c, 9, 38, 50
5, 176160, Control_c, 9, 7, 115
5, 176160, Note_off_c, 9, 38, 80
5, 176160, Note_on_c, 9, 38, 50
5, 176160, Note_on_c, 9, 35, 95
5, 176280, Control_c, 9, 7, 117
5, 176280, Note_off_c, 9, 38, 80
5, 176280, Note_off_c, 9, 35, 80
5, 176280, Note_on_c, 9, 38, 50
5, 176400, Control_c, 9, 7, 118
5, 176400, Note_off_c, 9, 38, 80
5, 176400, Note_on_c, 9, 38, 50
5, 176520, Control_c, 9, 7, 119
5, 176520, Note_off_c, 9, 38, 80
5, 176520, Note_on_c, 9, 38, 50
5, 176640, Control_c, 9, 7, 120
5, 176640, Note_off_c, 9, 38, 80
5, 176640, Control_c, 9, 7, 104
5, 176640, Note_on_c, 9, 42, 95
5, 176640, Note_on_c, 9, 57, 127
5, 176640, Note_on_c, 9, 35, 95
5, 176880, Note_off_c, 9, 42, 80
5, 176880, Note_off_c, 9, 57, 80
5, 176880, Note_off_c, 9, 35, 80
5, 176880, Note_on_c, 9, 42, 95
5, 177120, Note_off_c, 9, 42, 80
5, 177120, Note_on_c, 9, 42, 95
5, 177120, Note_on_c, 9, 38, 95
5, 177360, Note_off_c, 9, 42, 80
5, 177360, Note_off_c, 9, 38, 80
5, 177360, Note_on_c, 9, 42, 95
5, 177600, Note_off_c, 9, 42, 80
5, 177600, Note_on_c, 9, 42, 95
5, 177600, Note_on_c, 9, 35, 95
5, 177840, Note_off_c, 9, 42, 80
5, 177840, Note_off_c, 9, 35, 80
5, 177840, Note_on_c, 9, 42, 95
5, 177840, Note_on_c, 9, 35, 95
5, 178080, Note_off_c, 9, 42, 80
5, 178080, Note_off_c, 9, 35, 80
5, 178080, Note_on_c, 9, 42, 95
5, 178080, Note_on_c, 9, 38, 95
5, 178320, Note_off_c, 9, 42, 80
5, 178320, Note_off_c, 9, 38, 80
5, 178320, Note_on_c, 9, 42, 95
5, 178320, Note_on_c, 9, 35, 95
5, 178560, Note_off_c, 9, 42, 80
5, 178560, Note_off_c, 9, 35, 80
5, 178560, Note_on_c, 9, 42, 95
5, 178560, Note_on_c, 9, 35, 95
5, 178800, Note_off_c, 9, 42, 80
5, 178800, Note_off_c, 9, 35, 80
5, 178800, Note_on_c, 9, 42, 95
5, 179040, Note_off_c, 9, 42, 80
5, 179040, Note_on_c, 9, 42, 95
5, 179040, Note_on_c, 9, 38, 95
5, 179280, Note_off_c, 9, 42, 80
5, 179280, Note_off_c, 9, 38, 80
5, 179280, Note_on_c, 9, 42, 95
5, 179520, Note_off_c, 9, 42, 80
5, 179520, Note_on_c, 9, 42, 95
5, 179520, Note_on_c, 9, 35, 95
5, 179760, Note_off_c, 9, 42, 80
5, 179760, Note_off_c, 9, 35, 80
5, 179760, Note_on_c, 9, 42, 95
5, 179760, Note_on_c, 9, 35, 95
5, 180000, Note_off_c, 9, 42, 80
5, 180000, Note_off_c, 9, 35, 80
5, 180000, Note_on_c, 9, 42, 95
5, 180000, Note_on_c, 9, 38, 95
5, 180240, Note_off_c, 9, 42, 80
5, 180240, Note_off_c, 9, 38, 80
5, 180240, Note_on_c, 9, 42, 95
5, 180240, Note_on_c, 9, 35, 95
5, 180480, Note_off_c, 9, 42, 80
5, 180480, Note_off_c, 9, 35, 80
5, 180480, Note_on_c, 9, 42, 95
5, 180480, Note_on_c, 9, 35, 95
5, 180720, Note_off_c, 9, 42, 80
5, 180720, Note_off_c, 9, 35, 80
5, 180720, Note_on_c, 9, 42, 95
5, 180960, Note_off_c, 9, 42, 80
5, 180960, Note_on_c, 9, 42, 95
5, 180960, Note_on_c, 9, 38, 95
5, 181200, Note_off_c, 9, 42, 80
5, 181200, Note_off_c, 9, 38, 80
5, 181200, Note_on_c, 9, 42, 95
5, 181440, Note_off_c, 9, 42, 80
5, 181440, Note_on_c, 9, 42, 95
5, 181440, Note_on_c, 9, 35, 95
5, 181680, Note_off_c, 9, 42, 80
5, 181680, Note_off_c, 9, 35, 80
5, 181680, Note_on_c, 9, 42, 95
5, 181680, Note_on_c, 9, 35, 95
5, 181920, Note_off_c, 9, 42, 80
5, 181920, Note_off_c, 9, 35, 80
5, 181920, Note_on_c, 9, 42, 95
5, 181920, Note_on_c, 9, 38, 95
5, 182160, Note_off_c, 9, 42, 80
5, 182160, Note_off_c, 9, 38, 80
5, 182160, Note_on_c, 9, 42, 95
5, 182160, Note_on_c, 9, 35, 95
5, 182400, Note_off_c, 9, 42, 80
5, 182400, Note_off_c, 9, 35, 80
5, 182400, Note_on_c, 9, 42, 95
5, 182400, Note_on_c, 9, 35, 95
5, 182640, Note_off_c, 9, 42, 80
5, 182640, Note_off_c, 9, 35, 80
5, 182640, Note_on_c, 9, 42, 95
5, 182880, Note_off_c, 9, 42, 80
5, 182880, Note_on_c, 9, 42, 95
5, 182880, Note_on_c, 9, 38, 95
5, 183120, Note_off_c, 9, 42, 80
5, 183120, Note_off_c, 9, 38, 80
5, 183120, Note_on_c, 9, 42, 95
5, 183360, Note_off_c, 9, 42, 80
5, 183360, Note_on_c, 9, 42, 95
5, 183360, Note_on_c, 9, 43, 50
5, 183480, Note_off_c, 9, 42, 80
5, 183480, Note_off_c, 9, 43, 80
5, 183480, Note_on_c, 9, 43, 50
5, 183600, Note_off_c, 9, 43, 80
5, 183600, Note_on_c, 9, 42, 95
5, 183600, Note_on_c, 9, 43, 50
5, 183840, Note_off_c, 9, 42, 80
5, 183840, Note_off_c, 9, 43, 80
5, 183840, Note_on_c, 9, 42, 95
5, 183840, Note_on_c, 9, 38, 95
5, 184080, Note_off_c, 9, 42, 80
5, 184080, Note_off_c, 9, 38, 80
5, 184080, Note_on_c, 9, 46, 95
5, 184080, Note_on_c, 9, 35, 95
5, 184320, Note_off_c, 9, 46, 80
5, 184320, Note_off_c, 9, 35, 80
5, 184320, Note_on_c, 9, 42, 95
5, 184320, Note_on_c, 9, 35, 95
5, 184560, Note_off_c, 9, 42, 80
5, 184560, Note_off_c, 9, 35, 80
5, 184560, Note_on_c, 9, 42, 95
5, 184800, Note_off_c, 9, 42, 80
5, 184800, Note_on_c, 9, 42, 95
5, 184800, Note_on_c, 9, 38, 95
5, 185040, Note_off_c, 9, 42, 80
5, 185040, Note_off_c, 9, 38, 80
5, 185040, Note_on_c, 9, 42, 95
5, 185280, Note_off_c, 9, 42, 80
5, 185280, Note_on_c, 9, 42, 95
5, 185280, Note_on_c, 9, 35, 95
5, 185520, Note_off_c, 9, 42, 80
5, 185520, Note_off_c, 9, 35, 80
5, 185520, Note_on_c, 9, 42, 95
5, 185520, Note_on_c, 9, 35, 95
5, 185760, Note_off_c, 9, 42, 80
5, 185760, Note_off_c, 9, 35, 80
5, 185760, Note_on_c, 9, 42, 95
5, 185760, Note_on_c, 9, 38, 95
5, 186000, Note_off_c, 9, 42, 80
5, 186000, Note_off_c, 9, 38, 80
5, 186000, Note_on_c, 9, 42, 95
5, 186240, Note_off_c, 9, 42, 80
5, 186240, Note_on_c, 9, 42, 95
5, 186240, Note_on_c, 9, 35, 95
5, 186480, Note_off_c, 9, 42, 80
5, 186480, Note_off_c, 9, 35, 80
5, 186480, Note_on_c, 9, 42, 95
5, 186720, Note_off_c, 9, 42, 80
5, 186720, Note_on_c, 9, 42, 95
5, 186720, Note_on_c, 9, 38, 95
5, 186960, Note_off_c, 9, 42, 80
5, 186960, Note_off_c, 9, 38, 80
5, 186960, Note_on_c, 9, 42, 95
5, 187200, Note_off_c, 9, 42, 80
5, 187200, Note_on_c, 9, 42, 95
5, 187200, Note_on_c, 9, 43, 50
5, 187320, Note_off_c, 9, 42, 80
5, 187320, Note_off_c, 9, 43, 80
5, 187320, Note_on_c, 9, 43, 50
5, 187440, Note_off_c, 9, 43, 80
5, 187440, Note_on_c, 9, 42, 95
5, 187440, Note_on_c, 9, 43, 50
5, 187680, Note_off_c, 9, 42, 80
5, 187680, Note_off_c, 9, 43, 80
5, 187680, Note_on_c, 9, 42, 95
5, 187680, Note_on_c, 9, 38, 95
5, 187920, Note_off_c, 9, 42, 80
5, 187920, Note_off_c, 9, 38, 80
5, 187920, Note_on_c, 9, 46, 95
5, 187920, Note_on_c, 9, 35, 95
5, 188160, Note_off_c, 9, 46, 80
5, 188160, Note_off_c, 9, 35, 80
5, 188160, Note_on_c, 9, 42, 95
5, 188160, Note_on_c, 9, 35, 95
5, 188400, Note_off_c, 9, 42, 80
5, 188400, Note_off_c, 9, 35, 80
5, 188400, Note_on_c, 9, 42, 95
5, 188640, Note_off_c, 9, 42, 80
5, 188640, Note_on_c, 9, 42, 95
5, 188640, Note_on_c, 9, 38, 95
5, 188880, Note_off_c, 9, 42, 80
5, 188880, Note_off_c, 9, 38, 80
5, 188880, Note_on_c, 9, 42, 95
5, 189120, Note_off_c, 9, 42, 80
5, 189120, Note_on_c, 9, 42, 95
5, 189120, Note_on_c, 9, 35, 95
5, 189360, Note_off_c, 9, 42, 80
5, 189360, Note_off_c, 9, 35, 80
5, 189360, Note_on_c, 9, 42, 95
5, 189360, Note_on_c, 9, 35, 95
5, 189600, Note_off_c, 9, 42, 80
5, 189600, Note_off_c, 9, 35, 80
5, 189600, Note_on_c, 9, 42, 95
5, 189600, Note_on_c, 9, 38, 95
5, 189840, Note_off_c, 9, 42, 80
5, 189840, Note_off_c, 9, 38, 80
5, 189840, Note_on_c, 9, 42, 95
5, 189840, Note_on_c, 9, 35, 95
5, 190080, Note_off_c, 9, 42, 80
5, 190080, Note_off_c, 9, 35, 80
5, 190080, Note_on_c, 9, 42, 95
5, 190080, Note_on_c, 9, 35, 95
5, 190320, Note_off_c, 9, 42, 80
5, 190320, Note_off_c, 9, 35, 80
5, 190320, Note_on_c, 9, 42, 95
5, 190560, Note_off_c, 9, 42, 80
5, 190560, Note_on_c, 9, 42, 95
5, 190560, Note_on_c, 9, 38, 95
5, 190800, Note_off_c, 9, 42, 80
5, 190800, Note_off_c, 9, 38, 80
5, 190800, Note_on_c, 9, 42, 95
5, 191040, Note_off_c, 9, 42, 80
5, 191040, Note_on_c, 9, 42, 95
5, 191040, Note_on_c, 9, 43, 50
5, 191160, Note_off_c, 9, 42, 80
5, 191160, Note_off_c, 9, 43, 80
5, 191160, Note_on_c, 9, 43, 50
5, 191280, Note_off_c, 9, 43, 80
5, 191280, Note_on_c, 9, 42, 95
5, 191280, Note_on_c, 9, 43, 50
5, 191520, Note_off_c, 9, 42, 80
5, 191520, Note_off_c, 9, 43, 80
5, 191520, Note_on_c, 9, 42, 95
5, 191520, Note_on_c, 9, 38, 95
5, 191760, Note_off_c, 9, 42, 80
5, 191760, Note_off_c, 9, 38, 80
5, 191760, Note_on_c, 9, 46, 95
5, 191760, Note_on_c, 9, 35, 95
5, 192000, Note_off_c, 9, 46, 80
5, 192000, Note_off_c, 9, 35, 80
5, 192000, Note_on_c, 9, 42, 95
5, 192000, Note_on_c, 9, 35, 95
5, 192240, Note_off_c, 9, 42, 80
5, 192240, Note_off_c, 9, 35, 80
5, 192240, Note_on_c, 9, 42, 95
5, 192480, Note_off_c, 9, 42, 80
5, 192480, Note_on_c, 9, 42, 95
5, 192480, Note_on_c, 9, 38, 95
5, 192720, Note_off_c, 9, 42, 80
5, 192720, Note_off_c, 9, 38, 80
5, 192720, Note_on_c, 9, 42, 95
5, 192960, Note_off_c, 9, 42, 80
5, 192960, Note_on_c, 9, 42, 95
5, 192960, Note_on_c, 9, 35, 95
5, 193200, Note_off_c, 9, 42, 80
5, 193200, Note_off_c, 9, 35, 80
5, 193200, Note_on_c, 9, 46, 127
5, 193440, Note_off_c, 9, 46, 80
5, 193440, Note_on_c, 9, 38, 127
5, 193920, Note_off_c, 9, 38, 80
5, 193920, Note_on_c, 9, 57, 95
5, 193920, Note_on_c, 9, 35, 95
5, 193920, Control_c, 9, 7, 102
5, 193920, Control_c, 9, 7, 102
5, 194040, Control_c, 9, 7, 100
5, 194040, Control_c, 9, 7, 100
5, 194160, Control_c, 9, 7, 98
5, 194160, Control_c, 9, 7, 98
5, 194280, Control_c, 9, 7, 96
5, 194280, Control_c, 9, 7, 96
5, 194400, Control_c, 9, 7, 93
5, 194400, Control_c, 9, 7, 93
5, 194520, Control_c, 9, 7, 91
5, 194520, Control_c, 9, 7, 91
5, 194640, Control_c, 9, 7, 89
5, 194640, Control_c, 9, 7, 89
5, 194760, Control_c, 9, 7, 87
5, 194760, Control_c, 9, 7, 87
5, 194880, Control_c, 9, 7, 85
5, 194880, Control_c, 9, 7, 85
5, 195000, Control_c, 9, 7, 83
5, 195000, Control_c, 9, 7, 83
5, 195120, Control_c, 9, 7, 81
5, 195120, Control_c, 9, 7, 81
5, 195240, Control_c, 9, 7, 79
5, 195240, Control_c, 9, 7, 79
5, 195360, Control_c, 9, 7, 76
5, 195360, Control_c, 9, 7, 76
5, 195480, Control_c, 9, 7, 74
5, 195480, Control_c, 9, 7, 74
5, 195600, Control_c, 9, 7, 72
5, 195600, Control_c, 9, 7, 72
5, 195720, Control_c, 9, 7, 70
5, 195720, Control_c, 9, 7, 70
5, 195840, Note_off_c, 9, 57, 80
5, 195840, Note_off_c, 9, 35, 80
5, 195840, Control_c, 9, 7, 68
5, 195840, Control_c, 9, 7, 68
5, 195960, Control_c, 9, 7, 66
5, 195960, Control_c, 9, 7, 66
5, 196080, Control_c, 9, 7, 64
5, 196080, Control_c, 9, 7, 64
5, 196200, Control_c, 9, 7, 62
5, 196200, Control_c, 9, 7, 62
5, 196320, Control_c, 9, 7, 59
5, 196320, Control_c, 9, 7, 59
5, 196440, Control_c, 9, 7, 57
5, 196440, Control_c, 9, 7, 57
5, 196560, Control_c, 9, 7, 55
5, 196560, Control_c, 9, 7, 55
5, 196680, Control_c, 9, 7, 53
5, 196680, Control_c, 9, 7, 53
5, 196800, Control_c, 9, 7, 51
5, 196800, Control_c, 9, 7, 51
5, 196920, Control_c, 9, 7, 49
5, 196920, Control_c, 9, 7, 49
5, 197040, Control_c, 9, 7, 47
5, 197040, Control_c, 9, 7, 47
5, 197160, Control_c, 9, 7, 45
5, 197160, Control_c, 9, 7, 45
5, 197280, Control_c, 9, 7, 42
5, 197280, Control_c, 9, 7, 42
5, 197400, Control_c, 9, 7, 40
5, 197400, Control_c, 9, 7, 40
5, 197520, Control_c, 9, 7, 38
5, 197520, Control_c, 9, 7, 38
5, 197640, Control_c, 9, 7, 36
5, 197640, Control_c, 9, 7, 36
5, 197760, Control_c, 9, 7, 34
5, 197760, Control_c, 9, 7, 34
5, 197880, Control_c, 9, 7, 32
5, 197880, Control_c, 9, 7, 32
5, 198000, Control_c, 9, 7, 30
5, 198000, Control_c, 9, 7, 30
5, 198120, Control_c, 9, 7, 28
5, 198120, Control_c, 9, 7, 28
5, 198240, Control_c, 9, 7, 25
5, 198240, Control_c, 9, 7, 25
5, 198360, Control_c, 9, 7, 23
5, 198360, Control_c, 9, 7, 23
5, 198480, Control_c, 9, 7, 21
5, 198480, Control_c, 9, 7, 21
5, 198600, Control_c, 9, 7, 19
5, 198600, Control_c, 9, 7, 19
5, 198720, Control_c, 9, 7, 17
5, 198720, Control_c, 9, 7, 17
5, 198840, Control_c, 9, 7, 15
5, 198840, Control_c, 9, 7, 15
5, 198960, Control_c, 9, 7, 13
5, 198960, Control_c, 9, 7, 13
5, 199080, Control_c, 9, 7, 11
5, 199080, Control_c, 9, 7, 11
5, 199200, Control_c, 9, 7, 8
5, 199200, Control_c, 9, 7, 8
5, 199320, Control_c, 9, 7, 6
5, 199320, Control_c, 9, 7, 6
5, 199440, Control_c, 9, 7, 4
5, 199440, Control_c, 9, 7, 4
5, 199560, Control_c, 9, 7, 2
5, 199560, Control_c, 9, 7, 2
5, 199680, Control_c, 9, 7, 0
5, 199680, Control_c, 9, 7, 0
5, 199680, End_track
6, 0, Start_track
6, 0, Title_t, "Guitar 3"
6, 0, Control_c, 7, 100, 0
6, 0, Control_c, 7, 101, 0
6, 0, Control_c, 7, 6, 12
6, 0, Pitch_bend_c, 7, 8192
6, 0, Control_c, 7, 101, 0
6, 0, Control_c, 7, 100, 1
6, 0, Control_c, 7, 6, 64
6, 0, Control_c, 7, 38, 0
6, 0, Control_c, 7, 101, 127
6, 0, Control_c, 7, 100, 127
6, 0, Control_c, 6, 100, 0
6, 0, Control_c, 6, 101, 0
6, 0, Control_c, 6, 6, 12
6, 0, Pitch_bend_c, 6, 8192
6, 0, Control_c, 6, 101, 0
6, 0, Control_c, 6, 100, 1
6, 0, Control_c, 6, 6, 64
6, 0, Control_c, 6, 38, 0
6, 0, Control_c, 6, 101, 127
6, 0, Control_c, 6, 100, 127
6, 0, Control_c, 7, 101, 0
6, 0, Control_c, 7, 100, 2
6, 0, Control_c, 7, 6, 64
6, 0, Control_c, 7, 101, 127
6, 0, Control_c, 7, 100, 127
6, 0, Control_c, 6, 101, 0
6, 0, Control_c, 6, 100, 2
6, 0, Control_c, 6, 6, 64
6, 0, Control_c, 6, 101, 127
6, 0, Control_c, 6, 100, 127
6, 0, Program_c, 7, 30
6, 0, Program_c, 6, 30
6, 0, Control_c, 7, 0, 0
6, 0, Control_c, 6, 0, 0
6, 0, Control_c, 7, 7, 72
6, 0, Control_c, 6, 7, 72
6, 0, Control_c, 7, 10, 80
6, 0, Control_c, 6, 10, 80
6, 0, Control_c, 7, 93, 0
6, 0, Control_c, 6, 93, 0
6, 0, Control_c, 7, 91, 0
6, 0, Control_c, 6, 91, 0
6, 0, Control_c, 7, 92, 0
6, 0, Control_c, 6, 92, 0
6, 0, Control_c, 7, 95, 0
6, 0, Control_c, 6, 95, 0
6, 0, Note_on_c, 6, 65, 95
6, 0, Note_on_c, 6, 62, 95
6, 0, Note_on_c, 6, 57, 95
6, 0, Note_on_c, 6, 50, 95
6, 3840, Note_off_c, 6, 65, 80
6, 3840, Note_off_c, 6, 62, 80
6, 3840, Note_off_c, 6, 57, 80
6, 3840, Note_off_c, 6, 50, 80
6, 28560, Note_on_c, 6, 50, 95
6, 28570, Note_on_c, 6, 57, 95
6, 28580, Note_on_c, 6, 62, 95
6, 28680, Note_off_c, 6, 50, 80
6, 28680, Note_off_c, 6, 57, 80
6, 28680, Note_off_c, 6, 62, 80
6, 28680, Note_on_c, 6, 62, 95
6, 28690, Note_on_c, 6, 57, 95
6, 28700, Note_on_c, 6, 50, 95
6, 28800, Note_off_c, 6, 62, 80
6, 28800, Note_off_c, 6, 57, 80
6, 28800, Note_off_c, 6, 50, 80
6, 28800, Control_c, 6, 7, 71
6, 28800, Control_c, 7, 7, 71
6, 28800, Note_on_c, 6, 50, 95
6, 28810, Note_on_c, 6, 57, 95
6, 28820, Note_on_c, 6, 62, 95
6, 28920, Control_c, 6, 7, 69
6, 28920, Control_c, 7, 7, 69
6, 29040, Control_c, 6, 7, 68
6, 29040, Control_c, 7, 7, 68
6, 29160, Control_c, 6, 7, 66
6, 29160, Control_c, 7, 7, 66
6, 29280, Control_c, 6, 7, 65
6, 29280, Control_c, 7, 7, 65
6, 29400, Control_c, 6, 7, 63
6, 29400, Control_c, 7, 7, 63
6, 29520, Control_c, 6, 7, 62
6, 29520, Control_c, 7, 7, 62
6, 29640, Control_c, 6, 7, 60
6, 29640, Control_c, 7, 7, 60
6, 29760, Control_c, 6, 7, 59
6, 29760, Control_c, 7, 7, 59
6, 29880, Control_c, 6, 7, 57
6, 29880, Control_c, 7, 7, 57
6, 30000, Control_c, 6, 7, 56
6, 30000, Control_c, 7, 7, 56
6, 30120, Control_c, 6, 7, 55
6, 30120, Control_c, 7, 7, 55
6, 30240, Control_c, 6, 7, 53
6, 30240, Control_c, 7, 7, 53
6, 30360, Control_c, 6, 7, 52
6, 30360, Control_c, 7, 7, 52
6, 30480, Control_c, 6, 7, 50
6, 30480, Control_c, 7, 7, 50
6, 30600, Control_c, 6, 7, 49
6, 30600, Control_c, 7, 7, 49
6, 30720, Control_c, 6, 7, 47
6, 30720, Control_c, 7, 7, 47
6, 30840, Control_c, 6, 7, 46
6, 30840, Control_c, 7, 7, 46
6, 30960, Control_c, 6, 7, 44
6, 30960, Control_c, 7, 7, 44
6, 31080, Control_c, 6, 7, 43
6, 31080, Control_c, 7, 7, 43
6, 31200, Control_c, 6, 7, 41
6, 31200, Control_c, 7, 7, 41
6, 31320, Control_c, 6, 7, 40
6, 31320, Control_c, 7, 7, 40
6, 31440, Control_c, 6, 7, 39
6, 31440, Control_c, 7, 7, 39
6, 31560, Control_c, 6, 7, 37
6, 31560, Control_c, 7, 7, 37
6, 31680, Control_c, 6, 7, 36
6, 31680, Control_c, 7, 7, 36
6, 31800, Control_c, 6, 7, 34
6, 31800, Control_c, 7, 7, 34
6, 31920, Control_c, 6, 7, 33
6, 31920, Control_c, 7, 7, 33
6, 32040, Control_c, 6, 7, 31
6, 32040, Control_c, 7, 7, 31
6, 32160, Control_c, 6, 7, 30
6, 32160, Control_c, 7, 7, 30
6, 32280, Control_c, 6, 7, 28
6, 32280, Control_c, 7, 7, 28
6, 32400, Control_c, 6, 7, 27
6, 32400, Control_c, 7, 7, 27
6, 32520, Control_c, 6, 7, 25
6, 32520, Control_c, 7, 7, 25
6, 32640, Control_c, 6, 7, 24
6, 32640, Control_c, 7, 7, 24
6, 32640, Note_off_c, 6, 50, 80
6, 32640, Note_off_c, 6, 57, 80
6, 32640, Note_off_c, 6, 62, 80
6, 32640, Control_c, 6, 7, 72
6, 32640, Control_c, 7, 7, 72
6, 32640, Note_on_c, 6, 40, 95
6, 32650, Note_on_c, 6, 47, 95
6, 32660, Note_on_c, 6, 52, 95
6, 32670, Note_on_c, 6, 55, 95
6, 34560, Control_c, 6, 7, 70
6, 34560, Control_c, 7, 7, 70
6, 34680, Control_c, 6, 7, 68
6, 34680, Control_c, 7, 7, 68
6, 34800, Control_c, 6, 7, 66
6, 34800, Control_c, 7, 7, 66
6, 34920, Control_c, 6, 7, 64
6, 34920, Control_c, 7, 7, 64
6, 35040, Control_c, 6, 7, 63
6, 35040, Control_c, 7, 7, 63
6, 35160, Control_c, 6, 7, 61
6, 35160, Control_c, 7, 7, 61
6, 35280, Control_c, 6, 7, 59
6, 35280, Control_c, 7, 7, 59
6, 35400, Control_c, 6, 7, 57
6, 35400, Control_c, 7, 7, 57
6, 35520, Control_c, 6, 7, 55
6, 35520, Control_c, 7, 7, 55
6, 35640, Control_c, 6, 7, 53
6, 35640, Control_c, 7, 7, 53
6, 35760, Control_c, 6, 7, 51
6, 35760, Control_c, 7, 7, 51
6, 35880, Control_c, 6, 7, 49
6, 35880, Control_c, 7, 7, 49
6, 36000, Control_c, 6, 7, 48
6, 36000, Control_c, 7, 7, 48
6, 36120, Control_c, 6, 7, 46
6, 36120, Control_c, 7, 7, 46
6, 36240, Note_off_c, 6, 40, 80
6, 36240, Note_off_c, 6, 47, 80
6, 36240, Note_off_c, 6, 52, 80
6, 36240, Note_off_c, 6, 55, 80
6, 36240, Control_c, 6, 7, 44
6, 36240, Control_c, 7, 7, 44
6, 36240, Control_c, 6, 7, 72
6, 36240, Control_c, 7, 7, 72
6, 36240, Note_on_c, 6, 50, 95
6, 36250, Note_on_c, 6, 57, 95
6, 36260, Note_on_c, 6, 62, 95
6, 36360, Control_c, 6, 7, 42
6, 36360, Control_c, 7, 7, 42
6, 36360, Note_off_c, 6, 50, 80
6, 36360, Note_off_c, 6, 57, 80
6, 36360, Note_off_c, 6, 62, 80
6, 36360, Note_on_c, 6, 62, 95
6, 36370, Note_on_c, 6, 57, 95
6, 36380, Note_on_c, 6, 50, 95
6, 36480, Control_c, 6, 7, 40
6, 36480, Control_c, 7, 7, 40
6, 36480, Note_off_c, 6, 62, 80
6, 36480, Note_off_c, 6, 57, 80
6, 36480, Note_off_c, 6, 50, 80
6, 36480, Control_c, 6, 7, 71
6, 36480, Control_c, 7, 7, 71
6, 36480, Note_on_c, 6, 50, 95
6, 36490, Note_on_c, 6, 57, 95
6, 36500, Note_on_c, 6, 62, 95
6, 36600, Control_c, 6, 7, 69
6, 36600, Control_c, 7, 7, 69
6, 36720, Control_c, 6, 7, 68
6, 36720, Control_c, 7, 7, 68
6, 36840, Control_c, 6, 7, 66
6, 36840, Control_c, 7, 7, 66
6, 36960, Control_c, 6, 7, 65
6, 36960, Control_c, 7, 7, 65
6, 37080, Control_c, 6, 7, 63
6, 37080, Control_c, 7, 7, 63
6, 37200, Control_c, 6, 7, 62
6, 37200, Control_c, 7, 7, 62
6, 37320, Control_c, 6, 7, 60
6, 37320, Control_c, 7, 7, 60
6, 37440, Control_c, 6, 7, 59
6, 37440, Control_c, 7, 7, 59
6, 37560, Control_c, 6, 7, 57
6, 37560, Control_c, 7, 7, 57
6, 37680, Control_c, 6, 7, 56
6, 37680, Control_c, 7, 7, 56
6, 37800, Control_c, 6, 7, 55
6, 37800, Control_c, 7, 7, 55
6, 37920, Control_c, 6, 7, 53
6, 37920, Control_c, 7, 7, 53
6, 38040, Control_c, 6, 7, 52
6, 38040, Control_c, 7, 7, 52
6, 38160, Control_c, 6, 7, 50
6, 38160, Control_c, 7, 7, 50
6, 38280, Control_c, 6, 7, 49
6, 38280, Control_c, 7, 7, 49
6, 38400, Control_c, 6, 7, 47
6, 38400, Control_c, 7, 7, 47
6, 38520, Control_c, 6, 7, 46
6, 38520, Control_c, 7, 7, 46
6, 38640, Control_c, 6, 7, 44
6, 38640, Control_c, 7, 7, 44
6, 38760, Control_c, 6, 7, 43
6, 38760, Control_c, 7, 7, 43
6, 38880, Control_c, 6, 7, 41
6, 38880, Control_c, 7, 7, 41
6, 39000, Control_c, 6, 7, 40
6, 39000, Control_c, 7, 7, 40
6, 39120, Control_c, 6, 7, 39
6, 39120, Control_c, 7, 7, 39
6, 39240, Control_c, 6, 7, 37
6, 39240, Control_c, 7, 7, 37
6, 39360, Control_c, 6, 7, 36
6, 39360, Control_c, 7, 7, 36
6, 39480, Control_c, 6, 7, 34
6, 39480, Control_c, 7, 7, 34
6, 39600, Control_c, 6, 7, 33
6, 39600, Control_c, 7, 7, 33
6, 39720, Control_c, 6, 7, 31
6, 39720, Control_c, 7, 7, 31
6, 39840, Control_c, 6, 7, 30
6, 39840, Control_c, 7, 7, 30
6, 39960, Control_c, 6, 7, 28
6, 39960, Control_c, 7, 7, 28
6, 40080, Control_c, 6, 7, 27
6, 40080, Control_c, 7, 7, 27
6, 40080, Note_off_c, 6, 50, 80
6, 40080, Note_off_c, 6, 57, 80
6, 40080, Note_off_c, 6, 62, 80
6, 40080, Control_c, 6, 7, 72
6, 40080, Control_c, 7, 7, 72
6, 40080, Note_on_c, 6, 40, 95
6, 40090, Note_on_c, 6, 47, 95
6, 40100, Note_on_c, 6, 52, 95
6, 40110, Note_on_c, 6, 55, 95
6, 40200, Control_c, 6, 7, 25
6, 40200, Control_c, 7, 7, 25
6, 40320, Control_c, 6, 7, 24
6, 40320, Control_c, 7, 7, 24
6, 40320, Note_off_c, 6, 40, 80
6, 40320, Note_off_c, 6, 47, 80
6, 40320, Note_off_c, 6, 52, 80
6, 40320, Note_off_c, 6, 55, 80
6, 40320, Control_c, 6, 7, 72
6, 40320, Control_c, 7, 7, 72
6, 40320, Note_on_c, 6, 40, 95
6, 40330, Note_on_c, 6, 47, 95
6, 40340, Note_on_c, 6, 52, 95
6, 40350, Note_on_c, 6, 55, 95
6, 42000, Note_off_c, 6, 40, 80
6, 42000, Note_off_c, 6, 47, 80
6, 42000, Note_off_c, 6, 52, 80
6, 42000, Note_off_c, 6, 55, 80
6, 42000, Note_on_c, 6, 40, 95
6, 42010, Note_on_c, 6, 47, 95
6, 42020, Note_on_c, 6, 52, 95
6, 42030, Note_on_c, 6, 55, 95
6, 42240, Note_off_c, 6, 40, 80
6, 42240, Note_off_c, 6, 47, 80
6, 42240, Note_off_c, 6, 52, 80
6, 42240, Note_off_c, 6, 55, 80
6, 42240, Note_on_c, 6, 43, 95
6, 42250, Note_on_c, 6, 50, 95
6, 42260, Note_on_c, 6, 55, 95
6, 42270, Note_on_c, 6, 59, 95
6, 42480, Note_off_c, 6, 43, 80
6, 42480, Note_off_c, 6, 50, 80
6, 42480, Note_off_c, 6, 55, 80
6, 42480, Note_off_c, 6, 59, 80
6, 42480, Note_on_c, 6, 43, 95
6, 42490, Note_on_c, 6, 50, 95
6, 42500, Note_on_c, 6, 55, 95
6, 42720, Note_off_c, 6, 43, 80
6, 42720, Note_off_c, 6, 50, 80
6, 42720, Note_off_c, 6, 55, 80
6, 42720, Note_on_c, 6, 43, 95
6, 42730, Note_on_c, 6, 50, 95
6, 42740, Note_on_c, 6, 55, 95
6, 42960, Note_off_c, 6, 43, 80
6, 42960, Note_off_c, 6, 50, 80
6, 42960, Note_off_c, 6, 55, 80
6, 42960, Note_on_c, 6, 43, 95
6, 42970, Note_on_c, 6, 50, 95
6, 42980, Note_on_c, 6, 55, 95
6, 43200, Note_off_c, 6, 43, 80
6, 43200, Note_off_c, 6, 50, 80
6, 43200, Note_off_c, 6, 55, 80
6, 43200, Note_on_c, 6, 43, 95
6, 43210, Note_on_c, 6, 50, 95
6, 43220, Note_on_c, 6, 55, 95
6, 43440, Note_off_c, 6, 43, 80
6, 43440, Note_off_c, 6, 50, 80
6, 43440, Note_off_c, 6, 55, 80
6, 43440, Note_on_c, 6, 43, 95
6, 43450, Note_on_c, 6, 50, 95
6, 43460, Note_on_c, 6, 55, 95
6, 43680, Note_off_c, 6, 43, 80
6, 43680, Note_off_c, 6, 50, 80
6, 43680, Note_off_c, 6, 55, 80
6, 43680, Note_on_c, 6, 43, 95
6, 43690, Note_on_c, 6, 50, 95
6, 43700, Note_on_c, 6, 55, 95
6, 43920, Note_off_c, 6, 43, 80
6, 43920, Note_off_c, 6, 50, 80
6, 43920, Note_off_c, 6, 55, 80
6, 43920, Note_on_c, 6, 43, 95
6, 43930, Note_on_c, 6, 50, 95
6, 43940, Note_on_c, 6, 55, 95
6, 44160, Note_off_c, 6, 43, 80
6, 44160, Note_off_c, 6, 50, 80
6, 44160, Note_off_c, 6, 55, 80
6, 53760, Note_on_c, 6, 50, 95
6, 53770, Note_on_c, 6, 57, 95
6, 53780, Note_on_c, 6, 62, 95
6, 54240, Note_off_c, 6, 50, 80
6, 54240, Note_off_c, 6, 57, 80
6, 54240, Note_off_c, 6, 62, 80
6, 54240, Note_on_c, 6, 57, 95
6, 54250, Note_on_c, 6, 62, 95
6, 54260, Note_on_c, 6, 66, 95
6, 54480, Note_off_c, 6, 57, 80
6, 54480, Note_off_c, 6, 62, 80
6, 54480, Note_off_c, 6, 66, 80
6, 54480, Note_on_c, 6, 57, 95
6, 54490, Note_on_c, 6, 62, 95
6, 54500, Note_on_c, 6, 66, 95
6, 54720, Note_off_c, 6, 57, 80
6, 54720, Note_off_c, 6, 62, 80
6, 54720, Note_off_c, 6, 66, 80
6, 54960, Note_on_c, 6, 57, 95
6, 54970, Note_on_c, 6, 62, 95
6, 54980, Note_on_c, 6, 66, 95
6, 55200, Note_off_c, 6, 57, 80
6, 55200, Note_off_c, 6, 62, 80
6, 55200, Note_off_c, 6, 66, 80
6, 55440, Note_on_c, 6, 57, 95
6, 55450, Note_on_c, 6, 62, 95
6, 55460, Note_on_c, 6, 66, 95
6, 55680, Note_off_c, 6, 57, 80
6, 55680, Note_off_c, 6, 62, 80
6, 55680, Note_off_c, 6, 66, 80
6, 55680, Note_on_c, 6, 43, 95
6, 55690, Note_on_c, 6, 50, 95
6, 55700, Note_on_c, 6, 55, 95
6, 55710, Note_on_c, 6, 59, 95
6, 56640, Note_off_c, 6, 43, 80
6, 56640, Note_off_c, 6, 50, 80
6, 56640, Note_off_c, 6, 55, 80
6, 56640, Note_off_c, 6, 59, 80
6, 56640, Note_on_c, 6, 45, 95
6, 56650, Note_on_c, 6, 52, 95
6, 56660, Note_on_c, 6, 57, 95
6, 57600, Note_off_c, 6, 45, 80
6, 57600, Note_off_c, 6, 52, 80
6, 57600, Note_off_c, 6, 57, 80
6, 57600, Note_on_c, 6, 50, 95
6, 57610, Note_on_c, 6, 57, 95
6, 57620, Note_on_c, 6, 62, 95
6, 58080, Note_off_c, 6, 50, 80
6, 58080, Note_off_c, 6, 57, 80
6, 58080, Note_off_c, 6, 62, 80
6, 58080, Note_on_c, 6, 57, 95
6, 58090, Note_on_c, 6, 62, 95
6, 58100, Note_on_c, 6, 66, 95
6, 58320, Note_off_c, 6, 57, 80
6, 58320, Note_off_c, 6, 62, 80
6, 58320, Note_off_c, 6, 66, 80
6, 58320, Note_on_c, 6, 57, 95
6, 58330, Note_on_c, 6, 62, 95
6, 58340, Note_on_c, 6, 66, 95
6, 58560, Note_off_c, 6, 57, 80
6, 58560, Note_off_c, 6, 62, 80
6, 58560, Note_off_c, 6, 66, 80
6, 58800, Note_on_c, 6, 57, 95
6, 58810, Note_on_c, 6, 62, 95
6, 58820, Note_on_c, 6, 66, 95
6, 59040, Note_off_c, 6, 57, 80
6, 59040, Note_off_c, 6, 62, 80
6, 59040, Note_off_c, 6, 66, 80
6, 59280, Note_on_c, 6, 57, 95
6, 59290, Note_on_c, 6, 62, 95
6, 59300, Note_on_c, 6, 66, 95
6, 59520, Note_off_c, 6, 57, 80
6, 59520, Note_off_c, 6, 62, 80
6, 59520, Note_off_c, 6, 66, 80
6, 59520, Note_on_c, 6, 43, 95
6, 59530, Note_on_c, 6, 50, 95
6, 59540, Note_on_c, 6, 55, 95
6, 59550, Note_on_c, 6, 59, 95
6, 60480, Note_off_c, 6, 43, 80
6, 60480, Note_off_c, 6, 50, 80
6, 60480, Note_off_c, 6, 55, 80
6, 60480, Note_off_c, 6, 59, 80
6, 60480, Note_on_c, 6, 45, 95
6, 60490, Note_on_c, 6, 52, 95
6, 60500, Note_on_c, 6, 57, 95
6, 61440, Note_off_c, 6, 45, 80
6, 61440, Note_off_c, 6, 52, 80
6, 61440, Note_off_c, 6, 57, 80
6, 61440, Control_c, 6, 7, 70
6, 61440, Control_c, 7, 7, 70
6, 61440, Note_on_c, 6, 50, 95
6, 61450, Note_on_c, 6, 57, 95
6, 61460, Note_on_c, 6, 62, 95
6, 61470, Note_on_c, 6, 66, 95
6, 61560, Control_c, 6, 7, 68
6, 61560, Control_c, 7, 7, 68
6, 61680, Control_c, 6, 7, 65
6, 61680, Control_c, 7, 7, 65
6, 61800, Control_c, 6, 7, 63
6, 61800, Control_c, 7, 7, 63
6, 61920, Control_c, 6, 7, 61
6, 61920, Control_c, 7, 7, 61
6, 62040, Control_c, 6, 7, 59
6, 62040, Control_c, 7, 7, 59
6, 62160, Control_c, 6, 7, 57
6, 62160, Control_c, 7, 7, 57
6, 62280, Control_c, 6, 7, 55
6, 62280, Control_c, 7, 7, 55
6, 62400, Control_c, 6, 7, 52
6, 62400, Control_c, 7, 7, 52
6, 62520, Control_c, 6, 7, 50
6, 62520, Control_c, 7, 7, 50
6, 62640, Control_c, 6, 7, 48
6, 62640, Control_c, 7, 7, 48
6, 62760, Control_c, 6, 7, 46
6, 62760, Control_c, 7, 7, 46
6, 62880, Control_c, 6, 7, 44
6, 62880, Control_c, 7, 7, 44
6, 63000, Control_c, 6, 7, 41
6, 63000, Control_c, 7, 7, 41
6, 63120, Control_c, 6, 7, 39
6, 63120, Control_c, 7, 7, 39
6, 63240, Control_c, 6, 7, 37
6, 63240, Control_c, 7, 7, 37
6, 63360, Control_c, 6, 7, 35
6, 63360, Control_c, 7, 7, 35
6, 63480, Control_c, 6, 7, 33
6, 63480, Control_c, 7, 7, 33
6, 63600, Control_c, 6, 7, 31
6, 63600, Control_c, 7, 7, 31
6, 63720, Control_c, 6, 7, 28
6, 63720, Control_c, 7, 7, 28
6, 63840, Control_c, 6, 7, 26
6, 63840, Control_c, 7, 7, 26
6, 63960, Control_c, 6, 7, 24
6, 63960, Control_c, 7, 7, 24
6, 64080, Control_c, 6, 7, 22
6, 64080, Control_c, 7, 7, 22
6, 64200, Control_c, 6, 7, 20
6, 64200, Control_c, 7, 7, 20
6, 64320, Control_c, 6, 7, 17
6, 64320, Control_c, 7, 7, 17
6, 64440, Control_c, 6, 7, 15
6, 64440, Control_c, 7, 7, 15
6, 64560, Control_c, 6, 7, 13
6, 64560, Control_c, 7, 7, 13
6, 64680, Control_c, 6, 7, 11
6, 64680, Control_c, 7, 7, 11
6, 64800, Control_c, 6, 7, 9
6, 64800, Control_c, 7, 7, 9
6, 64920, Control_c, 6, 7, 7
6, 64920, Control_c, 7, 7, 7
6, 65040, Control_c, 6, 7, 4
6, 65040, Control_c, 7, 7, 4
6, 65160, Control_c, 6, 7, 2
6, 65160, Control_c, 7, 7, 2
6, 65280, Control_c, 6, 7, 0
6, 65280, Control_c, 7, 7, 0
6, 65280, Note_off_c, 6, 50, 80
6, 65280, Note_off_c, 6, 57, 80
6, 65280, Note_off_c, 6, 62, 80
6, 65280, Note_off_c, 6, 66, 80
6, 69120, Control_c, 6, 7, 72
6, 69120, Control_c, 7, 7, 72
6, 69120, Note_on_c, 6, 50, 95
6, 69130, Note_on_c, 6, 57, 95
6, 69140, Note_on_c, 6, 62, 95
6, 69150, Note_on_c, 6, 66, 95
6, 69600, Control_c, 6, 7, 70
6, 69600, Control_c, 7, 7, 70
6, 69720, Control_c, 6, 7, 67
6, 69720, Control_c, 7, 7, 67
6, 69840, Control_c, 6, 7, 65
6, 69840, Control_c, 7, 7, 65
6, 69960, Control_c, 6, 7, 62
6, 69960, Control_c, 7, 7, 62
6, 70080, Control_c, 6, 7, 60
6, 70080, Control_c, 7, 7, 60
6, 70200, Control_c, 6, 7, 57
6, 70200, Control_c, 7, 7, 57
6, 70320, Control_c, 6, 7, 55
6, 70320, Control_c, 7, 7, 55
6, 70440, Control_c, 6, 7, 52
6, 70440, Control_c, 7, 7, 52
6, 70560, Control_c, 6, 7, 50
6, 70560, Control_c, 7, 7, 50
6, 70680, Control_c, 6, 7, 47
6, 70680, Control_c, 7, 7, 47
6, 70800, Control_c, 6, 7, 45
6, 70800, Control_c, 7, 7, 45
6, 70920, Control_c, 6, 7, 42
6, 70920, Control_c, 7, 7, 42
6, 71040, Control_c, 6, 7, 40
6, 71040, Control_c, 7, 7, 40
6, 71160, Control_c, 6, 7, 37
6, 71160, Control_c, 7, 7, 37
6, 71280, Control_c, 6, 7, 35
6, 71280, Control_c, 7, 7, 35
6, 71400, Control_c, 6, 7, 32
6, 71400, Control_c, 7, 7, 32
6, 71520, Control_c, 6, 7, 30
6, 71520, Control_c, 7, 7, 30
6, 71640, Control_c, 6, 7, 27
6, 71640, Control_c, 7, 7, 27
6, 71760, Control_c, 6, 7, 25
6, 71760, Control_c, 7, 7, 25
6, 71880, Control_c, 6, 7, 22
6, 71880, Control_c, 7, 7, 22
6, 72000, Control_c, 6, 7, 20
6, 72000, Control_c, 7, 7, 20
6, 72120, Control_c, 6, 7, 17
6, 72120, Control_c, 7, 7, 17
6, 72240, Control_c, 6, 7, 15
6, 72240, Control_c, 7, 7, 15
6, 72360, Control_c, 6, 7, 12
6, 72360, Control_c, 7, 7, 12
6, 72480, Control_c, 6, 7, 10
6, 72480, Control_c, 7, 7, 10
6, 72600, Control_c, 6, 7, 7
6, 72600, Control_c, 7, 7, 7
6, 72720, Control_c, 6, 7, 5
6, 72720, Control_c, 7, 7, 5
6, 72840, Control_c, 6, 7, 2
6, 72840, Control_c, 7, 7, 2
6, 72960, Note_off_c, 6, 50, 80
6, 72960, Note_off_c, 6, 57, 80
6, 72960, Note_off_c, 6, 62, 80
6, 72960, Note_off_c, 6, 66, 80
6, 72960, Control_c, 6, 7, 0
6, 72960, Control_c, 7, 7, 0
6, 72960, Control_c, 6, 7, 72
6, 72960, Control_c, 7, 7, 72
6, 72960, Note_on_c, 6, 40, 95
6, 72970, Note_on_c, 6, 47, 95
6, 72980, Note_on_c, 6, 52, 95
6, 72990, Note_on_c, 6, 55, 95
6, 73440, Control_c, 6, 7, 70
6, 73440, Control_c, 7, 7, 70
6, 73560, Control_c, 6, 7, 67
6, 73560, Control_c, 7, 7, 67
6, 73680, Control_c, 6, 7, 65
6, 73680, Control_c, 7, 7, 65
6, 73800, Control_c, 6, 7, 62
6, 73800, Control_c, 7, 7, 62
6, 73920, Control_c, 6, 7, 60
6, 73920, Control_c, 7, 7, 60
6, 74040, Control_c, 6, 7, 57
6, 74040, Control_c, 7, 7, 57
6, 74160, Control_c, 6, 7, 55
6, 74160, Control_c, 7, 7, 55
6, 74280, Control_c, 6, 7, 52
6, 74280, Control_c, 7, 7, 52
6, 74400, Control_c, 6, 7, 50
6, 74400, Control_c, 7, 7, 50
6, 74520, Control_c, 6, 7, 47
6, 74520, Control_c, 7, 7, 47
6, 74640, Control_c, 6, 7, 45
6, 74640, Control_c, 7, 7, 45
6, 74760, Control_c, 6, 7, 42
6, 74760, Control_c, 7, 7, 42
6, 74880, Control_c, 6, 7, 40
6, 74880, Control_c, 7, 7, 40
6, 75000, Control_c, 6, 7, 37
6, 75000, Control_c, 7, 7, 37
6, 75120, Control_c, 6, 7, 35
6, 75120, Control_c, 7, 7, 35
6, 75240, Control_c, 6, 7, 32
6, 75240, Control_c, 7, 7, 32
6, 75360, Control_c, 6, 7, 30
6, 75360, Control_c, 7, 7, 30
6, 75480, Control_c, 6, 7, 27
6, 75480, Control_c, 7, 7, 27
6, 75600, Control_c, 6, 7, 25
6, 75600, Control_c, 7, 7, 25
6, 75720, Control_c, 6, 7, 22
6, 75720, Control_c, 7, 7, 22
6, 75840, Control_c, 6, 7, 20
6, 75840, Control_c, 7, 7, 20
6, 75960, Control_c, 6, 7, 17
6, 75960, Control_c, 7, 7, 17
6, 76080, Control_c, 6, 7, 15
6, 76080, Control_c, 7, 7, 15
6, 76200, Control_c, 6, 7, 12
6, 76200, Control_c, 7, 7, 12
6, 76320, Control_c, 6, 7, 10
6, 76320, Control_c, 7, 7, 10
6, 76440, Control_c, 6, 7, 7
6, 76440, Control_c, 7, 7, 7
6, 76560, Control_c, 6, 7, 5
6, 76560, Control_c, 7, 7, 5
6, 76680, Control_c, 6, 7, 2
6, 76680, Control_c, 7, 7, 2
6, 76800, Note_off_c, 6, 40, 80
6, 76800, Note_off_c, 6, 47, 80
6, 76800, Note_off_c, 6, 52, 80
6, 76800, Note_off_c, 6, 55, 80
6, 76800, Control_c, 6, 7, 0
6, 76800, Control_c, 7, 7, 0
6, 76800, Control_c, 6, 7, 72
6, 76800, Control_c, 7, 7, 72
6, 76800, Note_on_c, 6, 50, 95
6, 76810, Note_on_c, 6, 57, 95
6, 76820, Note_on_c, 6, 62, 95
6, 76830, Note_on_c, 6, 66, 95
6, 77280, Control_c, 6, 7, 70
6, 77280, Control_c, 7, 7, 70
6, 77400, Control_c, 6, 7, 67
6, 77400, Control_c, 7, 7, 67
6, 77520, Control_c, 6, 7, 65
6, 77520, Control_c, 7, 7, 65
6, 77640, Control_c, 6, 7, 62
6, 77640, Control_c, 7, 7, 62
6, 77760, Control_c, 6, 7, 60
6, 77760, Control_c, 7, 7, 60
6, 77880, Control_c, 6, 7, 57
6, 77880, Control_c, 7, 7, 57
6, 78000, Control_c, 6, 7, 55
6, 78000, Control_c, 7, 7, 55
6, 78120, Control_c, 6, 7, 52
6, 78120, Control_c, 7, 7, 52
6, 78240, Control_c, 6, 7, 50
6, 78240, Control_c, 7, 7, 50
6, 78360, Control_c, 6, 7, 47
6, 78360, Control_c, 7, 7, 47
6, 78480, Control_c, 6, 7, 45
6, 78480, Control_c, 7, 7, 45
6, 78600, Control_c, 6, 7, 42
6, 78600, Control_c, 7, 7, 42
6, 78720, Control_c, 6, 7, 40
6, 78720, Control_c, 7, 7, 40
6, 78840, Control_c, 6, 7, 37
6, 78840, Control_c, 7, 7, 37
6, 78960, Control_c, 6, 7, 35
6, 78960, Control_c, 7, 7, 35
6, 79080, Control_c, 6, 7, 32
6, 79080, Control_c, 7, 7, 32
6, 79200, Control_c, 6, 7, 30
6, 79200, Control_c, 7, 7, 30
6, 79320, Control_c, 6, 7, 27
6, 79320, Control_c, 7, 7, 27
6, 79440, Control_c, 6, 7, 25
6, 79440, Control_c, 7, 7, 25
6, 79560, Control_c, 6, 7, 22
6, 79560, Control_c, 7, 7, 22
6, 79680, Control_c, 6, 7, 20
6, 79680, Control_c, 7, 7, 20
6, 79800, Control_c, 6, 7, 17
6, 79800, Control_c, 7, 7, 17
6, 79920, Control_c, 6, 7, 15
6, 79920, Control_c, 7, 7, 15
6, 80040, Control_c, 6, 7, 12
6, 80040, Control_c, 7, 7, 12
6, 80160, Control_c, 6, 7, 10
6, 80160, Control_c, 7, 7, 10
6, 80280, Control_c, 6, 7, 7
6, 80280, Control_c, 7, 7, 7
6, 80400, Control_c, 6, 7, 5
6, 80400, Control_c, 7, 7, 5
6, 80520, Control_c, 6, 7, 2
6, 80520, Control_c, 7, 7, 2
6, 80640, Note_off_c, 6, 50, 80
6, 80640, Note_off_c, 6, 57, 80
6, 80640, Note_off_c, 6, 62, 80
6, 80640, Note_off_c, 6, 66, 80
6, 80640, Control_c, 6, 7, 0
6, 80640, Control_c, 7, 7, 0
6, 80640, Control_c, 6, 7, 72
6, 80640, Control_c, 7, 7, 72
6, 80640, Note_on_c, 6, 40, 95
6, 80650, Note_on_c, 6, 47, 95
6, 80660, Note_on_c, 6, 52, 95
6, 80670, Note_on_c, 6, 55, 95
6, 82560, Note_off_c, 6, 40, 80
6, 82560, Note_off_c, 6, 47, 80
6, 82560, Note_off_c, 6, 52, 80
6, 82560, Note_off_c, 6, 55, 80
6, 82560, Note_on_c, 6, 55, 95
6, 82560, Note_on_c, 6, 50, 95
6, 82560, Note_on_c, 6, 43, 95
6, 82800, Note_off_c, 6, 55, 80
6, 82800, Note_off_c, 6, 50, 80
6, 82800, Note_off_c, 6, 43, 80
6, 82800, Note_on_c, 6, 55, 95
6, 82800, Note_on_c, 6, 50, 95
6, 82800, Note_on_c, 6, 43, 95
6, 83040, Note_off_c, 6, 55, 80
6, 83040, Note_off_c, 6, 50, 80
6, 83040, Note_off_c, 6, 43, 80
6, 83040, Note_on_c, 6, 55, 95
6, 83040, Note_on_c, 6, 50, 95
6, 83040, Note_on_c, 6, 43, 95
6, 83280, Note_off_c, 6, 55, 80
6, 83280, Note_off_c, 6, 50, 80
6, 83280, Note_off_c, 6, 43, 80
6, 83280, Note_on_c, 6, 55, 95
6, 83280, Note_on_c, 6, 50, 95
6, 83280, Note_on_c, 6, 43, 95
6, 83520, Note_off_c, 6, 55, 80
6, 83520, Note_off_c, 6, 50, 80
6, 83520, Note_off_c, 6, 43, 80
6, 83520, Note_on_c, 6, 55, 95
6, 83520, Note_on_c, 6, 50, 95
6, 83520, Note_on_c, 6, 43, 95
6, 83760, Note_off_c, 6, 55, 80
6, 83760, Note_off_c, 6, 50, 80
6, 83760, Note_off_c, 6, 43, 80
6, 83760, Note_on_c, 6, 55, 95
6, 83760, Note_on_c, 6, 50, 95
6, 83760, Note_on_c, 6, 43, 95
6, 84000, Note_off_c, 6, 55, 80
6, 84000, Note_off_c, 6, 50, 80
6, 84000, Note_off_c, 6, 43, 80
6, 84000, Note_on_c, 6, 55, 95
6, 84000, Note_on_c, 6, 50, 95
6, 84000, Note_on_c, 6, 43, 95
6, 84240, Note_off_c, 6, 55, 80
6, 84240, Note_off_c, 6, 50, 80
6, 84240, Note_off_c, 6, 43, 80
6, 84240, Note_on_c, 6, 55, 95
6, 84240, Note_on_c, 6, 50, 95
6, 84240, Note_on_c, 6, 43, 95
6, 84480, Note_off_c, 6, 55, 80
6, 84480, Note_off_c, 6, 50, 80
6, 84480, Note_off_c, 6, 43, 80
6, 92160, Control_c, 6, 7, 69
6, 92160, Control_c, 7, 7, 69
6, 92160, Note_on_c, 6, 43, 95
6, 92170, Note_on_c, 6, 50, 95
6, 92180, Note_on_c, 6, 55, 95
6, 92190, Note_on_c, 6, 59, 95
6, 92280, Control_c, 6, 7, 65
6, 92280, Control_c, 7, 7, 65
6, 92400, Control_c, 6, 7, 62
6, 92400, Control_c, 7, 7, 62
6, 92520, Control_c, 6, 7, 59
6, 92520, Control_c, 7, 7, 59
6, 92640, Control_c, 6, 7, 56
6, 92640, Control_c, 7, 7, 56
6, 92760, Control_c, 6, 7, 52
6, 92760, Control_c, 7, 7, 52
6, 92880, Control_c, 6, 7, 49
6, 92880, Control_c, 7, 7, 49
6, 93000, Control_c, 6, 7, 46
6, 93000, Control_c, 7, 7, 46
6, 93120, Control_c, 6, 7, 42
6, 93120, Control_c, 7, 7, 42
6, 93240, Control_c, 6, 7, 39
6, 93240, Control_c, 7, 7, 39
6, 93360, Control_c, 6, 7, 36
6, 93360, Control_c, 7, 7, 36
6, 93480, Control_c, 6, 7, 32
6, 93480, Control_c, 7, 7, 32
6, 93600, Control_c, 6, 7, 29
6, 93600, Control_c, 7, 7, 29
6, 93720, Control_c, 6, 7, 26
6, 93720, Control_c, 7, 7, 26
6, 93840, Control_c, 6, 7, 23
6, 93840, Control_c, 7, 7, 23
6, 93960, Control_c, 6, 7, 19
6, 93960, Control_c, 7, 7, 19
6, 94080, Control_c, 6, 7, 16
6, 94080, Control_c, 7, 7, 16
6, 94080, Note_off_c, 6, 43, 80
6, 94080, Note_off_c, 6, 50, 80
6, 94080, Note_off_c, 6, 55, 80
6, 94080, Note_off_c, 6, 59, 80
6, 94080, Control_c, 6, 7, 72
6, 94080, Control_c, 7, 7, 72
6, 94080, Note_on_c, 6, 50, 95
6, 94090, Note_on_c, 6, 57, 95
6, 94100, Note_on_c, 6, 62, 95
6, 94560, Note_off_c, 6, 50, 80
6, 94560, Note_off_c, 6, 57, 80
6, 94560, Note_off_c, 6, 62, 80
6, 94560, Note_on_c, 6, 57, 95
6, 94570, Note_on_c, 6, 62, 95
6, 94580, Note_on_c, 6, 66, 95
6, 94800, Note_off_c, 6, 57, 80
6, 94800, Note_off_c, 6, 62, 80
6, 94800, Note_off_c, 6, 66, 80
6, 94800, Note_on_c, 6, 57, 95
6, 94810, Note_on_c, 6, 62, 95
6, 94820, Note_on_c, 6, 66, 95
6, 95040, Note_off_c, 6, 57, 80
6, 95040, Note_off_c, 6, 62, 80
6, 95040, Note_off_c, 6, 66, 80
6, 95280, Note_on_c, 6, 57, 95
6, 95290, Note_on_c, 6, 62, 95
6, 95300, Note_on_c, 6, 66, 95
6, 95520, Note_off_c, 6, 57, 80
6, 95520, Note_off_c, 6, 62, 80
6, 95520, Note_off_c, 6, 66, 80
6, 95760, Note_on_c, 6, 57, 95
6, 95770, Note_on_c, 6, 62, 95
6, 95780, Note_on_c, 6, 66, 95
6, 96000, Note_off_c, 6, 57, 80
6, 96000, Note_off_c, 6, 62, 80
6, 96000, Note_off_c, 6, 66, 80
6, 96000, Note_on_c, 6, 43, 95
6, 96010, Note_on_c, 6, 50, 95
6, 96020, Note_on_c, 6, 55, 95
6, 96030, Note_on_c, 6, 59, 95
6, 96960, Note_off_c, 6, 43, 80
6, 96960, Note_off_c, 6, 50, 80
6, 96960, Note_off_c, 6, 55, 80
6, 96960, Note_off_c, 6, 59, 80
6, 96960, Note_on_c, 6, 45, 95
6, 96970, Note_on_c, 6, 52, 95
6, 96980, Note_on_c, 6, 57, 95
6, 97920, Note_off_c, 6, 45, 80
6, 97920, Note_off_c, 6, 52, 80
6, 97920, Note_off_c, 6, 57, 80
6, 97920, Control_c, 6, 7, 72
6, 97920, Control_c, 7, 7, 72
6, 97920, Note_on_c, 6, 50, 95
6, 97930, Note_on_c, 6, 57, 95
6, 97940, Note_on_c, 6, 62, 95
6, 98400, Note_off_c, 6, 50, 80
6, 98400, Note_off_c, 6, 57, 80
6, 98400, Note_off_c, 6, 62, 80
6, 98400, Note_on_c, 6, 57, 95
6, 98410, Note_on_c, 6, 62, 95
6, 98420, Note_on_c, 6, 66, 95
6, 98640, Note_off_c, 6, 57, 80
6, 98640, Note_off_c, 6, 62, 80
6, 98640, Note_off_c, 6, 66, 80
6, 98640, Note_on_c, 6, 57, 95
6, 98650, Note_on_c, 6, 62, 95
6, 98660, Note_on_c, 6, 66, 95
6, 98880, Note_off_c, 6, 57, 80
6, 98880, Note_off_c, 6, 62, 80
6, 98880, Note_off_c, 6, 66, 80
6, 99120, Note_on_c, 6, 57, 95
6, 99130, Note_on_c, 6, 62, 95
6, 99140, Note_on_c, 6, 66, 95
6, 99360, Note_off_c, 6, 57, 80
6, 99360, Note_off_c, 6, 62, 80
6, 99360, Note_off_c, 6, 66, 80
6, 99600, Note_on_c, 6, 57, 95
6, 99610, Note_on_c, 6, 62, 95
6, 99620, Note_on_c, 6, 66, 95
6, 99840, Note_off_c, 6, 57, 80
6, 99840, Note_off_c, 6, 62, 80
6, 99840, Note_off_c, 6, 66, 80
6, 99840, Note_on_c, 6, 43, 95
6, 99850, Note_on_c, 6, 50, 95
6, 99860, Note_on_c, 6, 55, 95
6, 99870, Note_on_c, 6, 59, 95
6, 100800, Note_off_c, 6, 43, 80
6, 100800, Note_off_c, 6, 50, 80
6, 100800, Note_off_c, 6, 55, 80
6, 100800, Note_off_c, 6, 59, 80
6, 100800, Note_on_c, 6, 45, 95
6, 100810, Note_on_c, 6, 52, 95
6, 100820, Note_on_c, 6, 57, 95
6, 101760, Note_off_c, 6, 45, 80
6, 101760, Note_off_c, 6, 52, 80
6, 101760, Note_off_c, 6, 57, 80
6, 101760, Control_c, 6, 7, 72
6, 101760, Control_c, 7, 7, 72
6, 101760, Note_on_c, 6, 50, 95
6, 101770, Note_on_c, 6, 57, 95
6, 101780, Note_on_c, 6, 62, 95
6, 102240, Note_off_c, 6, 50, 80
6, 102240, Note_off_c, 6, 57, 80
6, 102240, Note_off_c, 6, 62, 80
6, 102240, Note_on_c, 6, 57, 95
6, 102250, Note_on_c, 6, 62, 95
6, 102260, Note_on_c, 6, 66, 95
6, 102480, Note_off_c, 6, 57, 80
6, 102480, Note_off_c, 6, 62, 80
6, 102480, Note_off_c, 6, 66, 80
6, 102480, Note_on_c, 6, 57, 95
6, 102490, Note_on_c, 6, 62, 95
6, 102500, Note_on_c, 6, 66, 95
6, 102720, Note_off_c, 6, 57, 80
6, 102720, Note_off_c, 6, 62, 80
6, 102720, Note_off_c, 6, 66, 80
6, 102960, Note_on_c, 6, 57, 95
6, 102970, Note_on_c, 6, 62, 95
6, 102980, Note_on_c, 6, 66, 95
6, 103200, Note_off_c, 6, 57, 80
6, 103200, Note_off_c, 6, 62, 80
6, 103200, Note_off_c, 6, 66, 80
6, 103440, Note_on_c, 6, 57, 95
6, 103450, Note_on_c, 6, 62, 95
6, 103460, Note_on_c, 6, 66, 95
6, 103680, Note_off_c, 6, 57, 80
6, 103680, Note_off_c, 6, 62, 80
6, 103680, Note_off_c, 6, 66, 80
6, 103680, Note_on_c, 6, 43, 95
6, 103690, Note_on_c, 6, 50, 95
6, 103700, Note_on_c, 6, 55, 95
6, 103710, Note_on_c, 6, 59, 95
6, 104640, Note_off_c, 6, 43, 80
6, 104640, Note_off_c, 6, 50, 80
6, 104640, Note_off_c, 6, 55, 80
6, 104640, Note_off_c, 6, 59, 80
6, 104640, Note_on_c, 6, 45, 95
6, 104650, Note_on_c, 6, 52, 95
6, 104660, Note_on_c, 6, 57, 95
6, 105600, Note_off_c, 6, 45, 80
6, 105600, Note_off_c, 6, 52, 80
6, 105600, Note_off_c, 6, 57, 80
6, 105600, Control_c, 6, 7, 70
6, 105600, Control_c, 7, 7, 70
6, 105600, Note_on_c, 6, 50, 95
6, 105610, Note_on_c, 6, 57, 95
6, 105620, Note_on_c, 6, 62, 95
6, 105630, Note_on_c, 6, 66, 95
6, 105720, Control_c, 6, 7, 68
6, 105720, Control_c, 7, 7, 68
6, 105840, Control_c, 6, 7, 65
6, 105840, Control_c, 7, 7, 65
6, 105960, Control_c, 6, 7, 63
6, 105960, Control_c, 7, 7, 63
6, 106080, Control_c, 6, 7, 61
6, 106080, Control_c, 7, 7, 61
6, 106200, Control_c, 6, 7, 59
6, 106200, Control_c, 7, 7, 59
6, 106320, Control_c, 6, 7, 57
6, 106320, Control_c, 7, 7, 57
6, 106440, Control_c, 6, 7, 55
6, 106440, Control_c, 7, 7, 55
6, 106560, Control_c, 6, 7, 52
6, 106560, Control_c, 7, 7, 52
6, 106680, Control_c, 6, 7, 50
6, 106680, Control_c, 7, 7, 50
6, 106800, Control_c, 6, 7, 48
6, 106800, Control_c, 7, 7, 48
6, 106920, Control_c, 6, 7, 46
6, 106920, Control_c, 7, 7, 46
6, 107040, Control_c, 6, 7, 44
6, 107040, Control_c, 7, 7, 44
6, 107160, Control_c, 6, 7, 41
6, 107160, Control_c, 7, 7, 41
6, 107280, Control_c, 6, 7, 39
6, 107280, Control_c, 7, 7, 39
6, 107400, Control_c, 6, 7, 37
6, 107400, Control_c, 7, 7, 37
6, 107520, Control_c, 6, 7, 35
6, 107520, Control_c, 7, 7, 35
6, 107640, Control_c, 6, 7, 33
6, 107640, Control_c, 7, 7, 33
6, 107760, Control_c, 6, 7, 31
6, 107760, Control_c, 7, 7, 31
6, 107880, Control_c, 6, 7, 28
6, 107880, Control_c, 7, 7, 28
6, 108000, Control_c, 6, 7, 26
6, 108000, Control_c, 7, 7, 26
6, 108120, Control_c, 6, 7, 24
6, 108120, Control_c, 7, 7, 24
6, 108240, Control_c, 6, 7, 22
6, 108240, Control_c, 7, 7, 22
6, 108360, Control_c, 6, 7, 20
6, 108360, Control_c, 7, 7, 20
6, 108480, Control_c, 6, 7, 17
6, 108480, Control_c, 7, 7, 17
6, 108600, Control_c, 6, 7, 15
6, 108600, Control_c, 7, 7, 15
6, 108720, Control_c, 6, 7, 13
6, 108720, Control_c, 7, 7, 13
6, 108840, Control_c, 6, 7, 11
6, 108840, Control_c, 7, 7, 11
6, 108960, Control_c, 6, 7, 9
6, 108960, Control_c, 7, 7, 9
6, 109080, Control_c, 6, 7, 7
6, 109080, Control_c, 7, 7, 7
6, 109200, Control_c, 6, 7, 4
6, 109200, Control_c, 7, 7, 4
6, 109320, Control_c, 6, 7, 2
6, 109320, Control_c, 7, 7, 2
6, 109440, Control_c, 6, 7, 0
6, 109440, Control_c, 7, 7, 0
6, 109440, Note_off_c, 6, 50, 80
6, 109440, Note_off_c, 6, 57, 80
6, 109440, Note_off_c, 6, 62, 80
6, 109440, Note_off_c, 6, 66, 80
6, 109440, Control_c, 6, 7, 72
6, 109440, Control_c, 7, 7, 72
6, 109440, Note_on_c, 6, 40, 95
6, 109450, Note_on_c, 6, 47, 95
6, 109460, Note_on_c, 6, 52, 95
6, 109470, Note_on_c, 6, 55, 95
6, 111360, Note_off_c, 6, 40, 80
6, 111360, Note_off_c, 6, 47, 80
6, 111360, Note_off_c, 6, 52, 80
6, 111360, Note_off_c, 6, 55, 80
6, 111360, Note_on_c, 6, 43, 95
6, 111370, Note_on_c, 6, 50, 95
6, 111380, Note_on_c, 6, 55, 95
6, 111390, Note_on_c, 6, 59, 95
6, 113280, Note_off_c, 6, 43, 80
6, 113280, Note_off_c, 6, 50, 80
6, 113280, Note_off_c, 6, 55, 80
6, 113280, Note_off_c, 6, 59, 80
6, 113280, Control_c, 6, 7, 70
6, 113280, Control_c, 7, 7, 70
6, 113280, Note_on_c, 6, 50, 95
6, 113290, Note_on_c, 6, 57, 95
6, 113300, Note_on_c, 6, 62, 95
6, 113310, Note_on_c, 6, 66, 95
6, 113400, Control_c, 6, 7, 68
6, 113400, Control_c, 7, 7, 68
6, 113520, Control_c, 6, 7, 65
6, 113520, Control_c, 7, 7, 65
6, 113640, Control_c, 6, 7, 63
6, 113640, Control_c, 7, 7, 63
6, 113760, Control_c, 6, 7, 61
6, 113760, Control_c, 7, 7, 61
6, 113880, Control_c, 6, 7, 59
6, 113880, Control_c, 7, 7, 59
6, 114000, Control_c, 6, 7, 57
6, 114000, Control_c, 7, 7, 57
6, 114120, Control_c, 6, 7, 55
6, 114120, Control_c, 7, 7, 55
6, 114240, Control_c, 6, 7, 52
6, 114240, Control_c, 7, 7, 52
6, 114360, Control_c, 6, 7, 50
6, 114360, Control_c, 7, 7, 50
6, 114480, Control_c, 6, 7, 48
6, 114480, Control_c, 7, 7, 48
6, 114600, Control_c, 6, 7, 46
6, 114600, Control_c, 7, 7, 46
6, 114720, Control_c, 6, 7, 44
6, 114720, Control_c, 7, 7, 44
6, 114840, Control_c, 6, 7, 41
6, 114840, Control_c, 7, 7, 41
6, 114960, Control_c, 6, 7, 39
6, 114960, Control_c, 7, 7, 39
6, 115080, Control_c, 6, 7, 37
6, 115080, Control_c, 7, 7, 37
6, 115200, Control_c, 6, 7, 35
6, 115200, Control_c, 7, 7, 35
6, 115320, Control_c, 6, 7, 33
6, 115320, Control_c, 7, 7, 33
6, 115440, Control_c, 6, 7, 31
6, 115440, Control_c, 7, 7, 31
6, 115560, Control_c, 6, 7, 28
6, 115560, Control_c, 7, 7, 28
6, 115680, Control_c, 6, 7, 26
6, 115680, Control_c, 7, 7, 26
6, 115800, Control_c, 6, 7, 24
6, 115800, Control_c, 7, 7, 24
6, 115920, Control_c, 6, 7, 22
6, 115920, Control_c, 7, 7, 22
6, 116040, Control_c, 6, 7, 20
6, 116040, Control_c, 7, 7, 20
6, 116160, Control_c, 6, 7, 17
6, 116160, Control_c, 7, 7, 17
6, 116280, Control_c, 6, 7, 15
6, 116280, Control_c, 7, 7, 15
6, 116400, Control_c, 6, 7, 13
6, 116400, Control_c, 7, 7, 13
6, 116520, Control_c, 6, 7, 11
6, 116520, Control_c, 7, 7, 11
6, 116640, Control_c, 6, 7, 9
6, 116640, Control_c, 7, 7, 9
6, 116760, Control_c, 6, 7, 7
6, 116760, Control_c, 7, 7, 7
6, 116880, Control_c, 6, 7, 4
6, 116880, Control_c, 7, 7, 4
6, 117000, Control_c, 6, 7, 2
6, 117000, Control_c, 7, 7, 2
6, 117120, Control_c, 6, 7, 0
6, 117120, Control_c, 7, 7, 0
6, 117120, Note_off_c, 6, 50, 80
6, 117120, Note_off_c, 6, 57, 80
6, 117120, Note_off_c, 6, 62, 80
6, 117120, Note_off_c, 6, 66, 80
6, 117120, Control_c, 6, 7, 72
6, 117120, Control_c, 7, 7, 72
6, 117120, Note_on_c, 6, 40, 95
6, 117130, Note_on_c, 6, 47, 95
6, 117140, Note_on_c, 6, 52, 95
6, 117150, Note_on_c, 6, 55, 95
6, 119040, Note_off_c, 6, 40, 80
6, 119040, Note_off_c, 6, 47, 80
6, 119040, Note_off_c, 6, 52, 80
6, 119040, Note_off_c, 6, 55, 80
6, 119040, Note_on_c, 6, 43, 95
6, 119050, Note_on_c, 6, 50, 95
6, 119060, Note_on_c, 6, 55, 95
6, 119070, Note_on_c, 6, 59, 95
6, 120960, Note_off_c, 6, 43, 80
6, 120960, Note_off_c, 6, 50, 80
6, 120960, Note_off_c, 6, 55, 80
6, 120960, Note_off_c, 6, 59, 80
6, 120960, Note_on_c, 6, 49, 95
6, 120970, Note_on_c, 6, 61, 95
6, 121200, Note_off_c, 6, 49, 80
6, 121200, Note_off_c, 6, 61, 80
6, 121200, Note_on_c, 6, 50, 95
6, 121210, Note_on_c, 6, 62, 95
6, 121440, Note_off_c, 6, 50, 80
6, 121440, Note_off_c, 6, 62, 80
6, 121440, Note_on_c, 6, 50, 95
6, 121450, Note_on_c, 6, 62, 95
6, 121680, Note_off_c, 6, 50, 80
6, 121680, Note_off_c, 6, 62, 80
6, 121680, Note_on_c, 6, 50, 95
6, 121690, Note_on_c, 6, 62, 95
6, 121920, Note_off_c, 6, 50, 80
6, 121920, Note_off_c, 6, 62, 80
6, 121920, Note_on_c, 6, 50, 95
6, 121930, Note_on_c, 6, 62, 95
6, 122160, Note_off_c, 6, 50, 80
6, 122160, Note_off_c, 6, 62, 80
6, 122160, Note_on_c, 6, 50, 95
6, 122170, Note_on_c, 6, 62, 95
6, 122400, Note_off_c, 6, 50, 80
6, 122400, Note_off_c, 6, 62, 80
6, 122400, Note_on_c, 6, 50, 95
6, 122410, Note_on_c, 6, 62, 95
6, 122640, Note_off_c, 6, 50, 80
6, 122640, Note_off_c, 6, 62, 80
6, 122640, Note_on_c, 6, 50, 95
6, 122650, Note_on_c, 6, 62, 95
6, 122880, Note_off_c, 6, 50, 80
6, 122880, Note_off_c, 6, 62, 80
6, 122880, Note_on_c, 6, 50, 95
6, 122890, Note_on_c, 6, 62, 95
6, 123120, Note_off_c, 6, 50, 80
6, 123120, Note_off_c, 6, 62, 80
6, 123120, Note_on_c, 6, 52, 95
6, 123130, Note_on_c, 6, 64, 95
6, 123360, Note_off_c, 6, 52, 80
6, 123360, Note_off_c, 6, 64, 80
6, 123360, Note_on_c, 6, 52, 95
6, 123370, Note_on_c, 6, 64, 95
6, 123600, Note_off_c, 6, 52, 80
6, 123600, Note_off_c, 6, 64, 80
6, 123600, Note_on_c, 6, 52, 95
6, 123610, Note_on_c, 6, 64, 95
6, 123840, Note_off_c, 6, 52, 80
6, 123840, Note_off_c, 6, 64, 80
6, 123840, Note_on_c, 6, 52, 95
6, 123850, Note_on_c, 6, 64, 95
6, 124080, Note_off_c, 6, 52, 80
6, 124080, Note_off_c, 6, 64, 80
6, 124080, Note_on_c, 6, 52, 95
6, 124090, Note_on_c, 6, 64, 95
6, 124320, Note_off_c, 6, 52, 80
6, 124320, Note_off_c, 6, 64, 80
6, 124320, Note_on_c, 6, 52, 95
6, 124330, Note_on_c, 6, 64, 95
6, 124560, Note_off_c, 6, 52, 80
6, 124560, Note_off_c, 6, 64, 80
6, 124560, Note_on_c, 6, 52, 95
6, 124570, Note_on_c, 6, 64, 95
6, 124800, Note_off_c, 6, 52, 80
6, 124800, Note_off_c, 6, 64, 80
6, 124800, Note_on_c, 6, 52, 95
6, 124810, Note_on_c, 6, 64, 95
6, 125040, Note_off_c, 6, 52, 80
6, 125040, Note_off_c, 6, 64, 80
6, 125040, Note_on_c, 6, 50, 95
6, 125050, Note_on_c, 6, 62, 95
6, 125280, Note_off_c, 6, 50, 80
6, 125280, Note_off_c, 6, 62, 80
6, 125280, Note_on_c, 6, 50, 95
6, 125290, Note_on_c, 6, 62, 95
6, 125520, Note_off_c, 6, 50, 80
6, 125520, Note_off_c, 6, 62, 80
6, 125520, Note_on_c, 6, 50, 95
6, 125530, Note_on_c, 6, 62, 95
6, 125760, Note_off_c, 6, 50, 80
6, 125760, Note_off_c, 6, 62, 80
6, 125760, Note_on_c, 6, 50, 95
6, 125770, Note_on_c, 6, 62, 95
6, 126000, Note_off_c, 6, 50, 80
6, 126000, Note_off_c, 6, 62, 80
6, 126000, Note_on_c, 6, 50, 95
6, 126010, Note_on_c, 6, 62, 95
6, 126240, Note_off_c, 6, 50, 80
6, 126240, Note_off_c, 6, 62, 80
6, 126240, Note_on_c, 6, 50, 95
6, 126250, Note_on_c, 6, 62, 95
6, 126480, Note_off_c, 6, 50, 80
6, 126480, Note_off_c, 6, 62, 80
6, 126480, Note_on_c, 6, 50, 95
6, 126490, Note_on_c, 6, 62, 95
6, 126720, Note_off_c, 6, 50, 80
6, 126720, Note_off_c, 6, 62, 80
6, 126720, Note_on_c, 6, 50, 95
6, 126730, Note_on_c, 6, 62, 95
6, 126960, Note_off_c, 6, 50, 80
6, 126960, Note_off_c, 6, 62, 80
6, 126960, Note_on_c, 6, 52, 95
6, 126970, Note_on_c, 6, 64, 95
6, 127200, Note_off_c, 6, 52, 80
6, 127200, Note_off_c, 6, 64, 80
6, 127200, Note_on_c, 6, 52, 95
6, 127210, Note_on_c, 6, 64, 95
6, 127440, Note_off_c, 6, 52, 80
6, 127440, Note_off_c, 6, 64, 80
6, 127440, Note_on_c, 6, 52, 95
6, 127450, Note_on_c, 6, 64, 95
6, 127680, Note_off_c, 6, 52, 80
6, 127680, Note_off_c, 6, 64, 80
6, 127680, Note_on_c, 6, 52, 95
6, 127690, Note_on_c, 6, 64, 95
6, 127920, Note_off_c, 6, 52, 80
6, 127920, Note_off_c, 6, 64, 80
6, 127920, Note_on_c, 6, 52, 95
6, 127930, Note_on_c, 6, 64, 95
6, 128160, Note_off_c, 6, 52, 80
6, 128160, Note_off_c, 6, 64, 80
6, 128160, Note_on_c, 6, 52, 95
6, 128170, Note_on_c, 6, 64, 95
6, 128400, Note_off_c, 6, 52, 80
6, 128400, Note_off_c, 6, 64, 80
6, 128400, Note_on_c, 6, 52, 95
6, 128410, Note_on_c, 6, 64, 95
6, 128640, Note_off_c, 6, 52, 80
6, 128640, Note_off_c, 6, 64, 80
6, 128640, Note_on_c, 6, 49, 95
6, 128650, Note_on_c, 6, 61, 95
6, 128880, Note_off_c, 6, 49, 80
6, 128880, Note_off_c, 6, 61, 80
6, 128880, Note_on_c, 6, 50, 95
6, 128890, Note_on_c, 6, 62, 95
6, 129120, Note_off_c, 6, 50, 80
6, 129120, Note_off_c, 6, 62, 80
6, 129120, Note_on_c, 6, 50, 95
6, 129130, Note_on_c, 6, 62, 95
6, 129360, Note_off_c, 6, 50, 80
6, 129360, Note_off_c, 6, 62, 80
6, 129360, Note_on_c, 6, 50, 95
6, 129370, Note_on_c, 6, 62, 95
6, 129600, Note_off_c, 6, 50, 80
6, 129600, Note_off_c, 6, 62, 80
6, 129600, Note_on_c, 6, 50, 95
6, 129610, Note_on_c, 6, 62, 95
6, 129840, Note_off_c, 6, 50, 80
6, 129840, Note_off_c, 6, 62, 80
6, 129840, Note_on_c, 6, 50, 95
6, 129850, Note_on_c, 6, 62, 95
6, 130080, Note_off_c, 6, 50, 80
6, 130080, Note_off_c, 6, 62, 80
6, 130080, Note_on_c, 6, 50, 95
6, 130090, Note_on_c, 6, 62, 95
6, 130320, Note_off_c, 6, 50, 80
6, 130320, Note_off_c, 6, 62, 80
6, 130320, Note_on_c, 6, 50, 95
6, 130330, Note_on_c, 6, 62, 95
6, 130560, Note_off_c, 6, 50, 80
6, 130560, Note_off_c, 6, 62, 80
6, 130560, Note_on_c, 6, 50, 95
6, 130570, Note_on_c, 6, 62, 95
6, 130800, Note_off_c, 6, 50, 80
6, 130800, Note_off_c, 6, 62, 80
6, 130800, Note_on_c, 6, 52, 95
6, 130810, Note_on_c, 6, 64, 95
6, 131040, Note_off_c, 6, 52, 80
6, 131040, Note_off_c, 6, 64, 80
6, 131040, Note_on_c, 6, 52, 95
6, 131050, Note_on_c, 6, 64, 95
6, 131280, Note_off_c, 6, 52, 80
6, 131280, Note_off_c, 6, 64, 80
6, 131280, Note_on_c, 6, 52, 95
6, 131290, Note_on_c, 6, 64, 95
6, 131520, Note_off_c, 6, 52, 80
6, 131520, Note_off_c, 6, 64, 80
6, 131520, Note_on_c, 6, 52, 95
6, 131530, Note_on_c, 6, 64, 95
6, 131760, Note_off_c, 6, 52, 80
6, 131760, Note_off_c, 6, 64, 80
6, 131760, Note_on_c, 6, 52, 95
6, 131770, Note_on_c, 6, 64, 95
6, 132000, Note_off_c, 6, 52, 80
6, 132000, Note_off_c, 6, 64, 80
6, 132000, Note_on_c, 6, 52, 95
6, 132010, Note_on_c, 6, 64, 95
6, 132240, Note_off_c, 6, 52, 80
6, 132240, Note_off_c, 6, 64, 80
6, 132240, Note_on_c, 6, 52, 95
6, 132250, Note_on_c, 6, 64, 95
6, 132480, Note_off_c, 6, 52, 80
6, 132480, Note_off_c, 6, 64, 80
6, 132480, Note_on_c, 6, 52, 95
6, 132490, Note_on_c, 6, 64, 95
6, 132720, Note_off_c, 6, 52, 80
6, 132720, Note_off_c, 6, 64, 80
6, 132720, Note_on_c, 6, 50, 95
6, 132730, Note_on_c, 6, 62, 95
6, 132960, Note_off_c, 6, 50, 80
6, 132960, Note_off_c, 6, 62, 80
6, 132960, Note_on_c, 6, 50, 95
6, 132970, Note_on_c, 6, 62, 95
6, 133200, Note_off_c, 6, 50, 80
6, 133200, Note_off_c, 6, 62, 80
6, 133200, Note_on_c, 6, 50, 95
6, 133210, Note_on_c, 6, 62, 95
6, 133440, Note_off_c, 6, 50, 80
6, 133440, Note_off_c, 6, 62, 80
6, 133440, Note_on_c, 6, 50, 95
6, 133450, Note_on_c, 6, 62, 95
6, 133680, Note_off_c, 6, 50, 80
6, 133680, Note_off_c, 6, 62, 80
6, 133680, Note_on_c, 6, 50, 95
6, 133690, Note_on_c, 6, 62, 95
6, 133920, Note_off_c, 6, 50, 80
6, 133920, Note_off_c, 6, 62, 80
6, 133920, Note_on_c, 6, 50, 95
6, 133930, Note_on_c, 6, 62, 95
6, 134160, Note_off_c, 6, 50, 80
6, 134160, Note_off_c, 6, 62, 80
6, 134160, Note_on_c, 6, 50, 95
6, 134170, Note_on_c, 6, 62, 95
6, 134400, Note_off_c, 6, 50, 80
6, 134400, Note_off_c, 6, 62, 80
6, 134400, Note_on_c, 6, 50, 95
6, 134410, Note_on_c, 6, 62, 95
6, 134640, Note_off_c, 6, 50, 80
6, 134640, Note_off_c, 6, 62, 80
6, 134640, Note_on_c, 6, 52, 95
6, 134650, Note_on_c, 6, 64, 95
6, 134880, Note_off_c, 6, 52, 80
6, 134880, Note_off_c, 6, 64, 80
6, 134880, Note_on_c, 6, 52, 95
6, 134890, Note_on_c, 6, 64, 95
6, 135120, Note_off_c, 6, 52, 80
6, 135120, Note_off_c, 6, 64, 80
6, 135120, Note_on_c, 6, 52, 95
6, 135130, Note_on_c, 6, 64, 95
6, 135360, Note_off_c, 6, 52, 80
6, 135360, Note_off_c, 6, 64, 80
6, 135360, Note_on_c, 6, 52, 95
6, 135370, Note_on_c, 6, 64, 95
6, 135600, Note_off_c, 6, 52, 80
6, 135600, Note_off_c, 6, 64, 80
6, 135600, Note_on_c, 6, 52, 95
6, 135610, Note_on_c, 6, 64, 95
6, 135840, Note_off_c, 6, 52, 80
6, 135840, Note_off_c, 6, 64, 80
6, 135840, Note_on_c, 6, 52, 95
6, 135850, Note_on_c, 6, 64, 95
6, 136080, Note_off_c, 6, 52, 80
6, 136080, Note_off_c, 6, 64, 80
6, 136080, Note_on_c, 6, 52, 95
6, 136090, Note_on_c, 6, 64, 95
6, 136320, Note_off_c, 6, 52, 80
6, 136320, Note_off_c, 6, 64, 80
6, 136320, Control_c, 6, 7, 68
6, 136320, Control_c, 7, 7, 68
6, 136320, Note_on_c, 6, 47, 95
6, 136330, Note_on_c, 6, 54, 95
6, 136340, Note_on_c, 6, 59, 95
6, 136350, Note_on_c, 6, 62, 95
6, 136440, Control_c, 6, 7, 64
6, 136440, Control_c, 7, 7, 64
6, 136560, Control_c, 6, 7, 59
6, 136560, Control_c, 7, 7, 59
6, 136680, Control_c, 6, 7, 55
6, 136680, Control_c, 7, 7, 55
6, 136800, Control_c, 6, 7, 51
6, 136800, Control_c, 7, 7, 51
6, 136920, Control_c, 6, 7, 47
6, 136920, Control_c, 7, 7, 47
6, 137040, Control_c, 6, 7, 42
6, 137040, Control_c, 7, 7, 42
6, 137160, Control_c, 6, 7, 38
6, 137160, Control_c, 7, 7, 38
6, 137280, Control_c, 6, 7, 34
6, 137280, Control_c, 7, 7, 34
6, 137400, Control_c, 6, 7, 30
6, 137400, Control_c, 7, 7, 30
6, 137520, Control_c, 6, 7, 25
6, 137520, Control_c, 7, 7, 25
6, 137640, Control_c, 6, 7, 21
6, 137640, Control_c, 7, 7, 21
6, 137760, Control_c, 6, 7, 17
6, 137760, Control_c, 7, 7, 17
6, 137880, Control_c, 6, 7, 13
6, 137880, Control_c, 7, 7, 13
6, 138000, Control_c, 6, 7, 8
6, 138000, Control_c, 7, 7, 8
6, 138120, Control_c, 6, 7, 4
6, 138120, Control_c, 7, 7, 4
6, 138240, Control_c, 6, 7, 0
6, 138240, Control_c, 7, 7, 0
6, 138240, Note_off_c, 6, 47, 80
6, 138240, Control_c, 6, 7, 72
6, 138240, Control_c, 7, 7, 72
6, 140880, Note_off_c, 6, 54, 80
6, 140880, Note_off_c, 6, 59, 80
6, 140880, Note_off_c, 6, 62, 80
6, 145920, Control_c, 6, 7, 69
6, 145920, Control_c, 7, 7, 69
6, 145920, Note_on_c, 6, 43, 95
6, 145930, Note_on_c, 6, 50, 95
6, 145940, Note_on_c, 6, 55, 95
6, 145950, Note_on_c, 6, 59, 95
6, 146040, Control_c, 6, 7, 65
6, 146040, Control_c, 7, 7, 65
6, 146160, Control_c, 6, 7, 62
6, 146160, Control_c, 7, 7, 62
6, 146280, Control_c, 6, 7, 59
6, 146280, Control_c, 7, 7, 59
6, 146400, Control_c, 6, 7, 56
6, 146400, Control_c, 7, 7, 56
6, 146520, Control_c, 6, 7, 52
6, 146520, Control_c, 7, 7, 52
6, 146640, Control_c, 6, 7, 49
6, 146640, Control_c, 7, 7, 49
6, 146760, Control_c, 6, 7, 46
6, 146760, Control_c, 7, 7, 46
6, 146880, Control_c, 6, 7, 42
6, 146880, Control_c, 7, 7, 42
6, 147000, Control_c, 6, 7, 39
6, 147000, Control_c, 7, 7, 39
6, 147120, Control_c, 6, 7, 36
6, 147120, Control_c, 7, 7, 36
6, 147240, Control_c, 6, 7, 32
6, 147240, Control_c, 7, 7, 32
6, 147360, Control_c, 6, 7, 29
6, 147360, Control_c, 7, 7, 29
6, 147480, Control_c, 6, 7, 26
6, 147480, Control_c, 7, 7, 26
6, 147600, Control_c, 6, 7, 23
6, 147600, Control_c, 7, 7, 23
6, 147720, Control_c, 6, 7, 19
6, 147720, Control_c, 7, 7, 19
6, 147840, Control_c, 6, 7, 16
6, 147840, Control_c, 7, 7, 16
6, 147840, Note_off_c, 6, 43, 80
6, 147840, Note_off_c, 6, 50, 80
6, 147840, Note_off_c, 6, 55, 80
6, 147840, Note_off_c, 6, 59, 80
6, 147840, Control_c, 6, 7, 72
6, 147840, Control_c, 7, 7, 72
6, 147840, Note_on_c, 6, 50, 95
6, 147850, Note_on_c, 6, 57, 95
6, 147860, Note_on_c, 6, 62, 95
6, 148320, Note_off_c, 6, 50, 80
6, 148320, Note_off_c, 6, 57, 80
6, 148320, Note_off_c, 6, 62, 80
6, 148320, Note_on_c, 6, 57, 95
6, 148330, Note_on_c, 6, 62, 95
6, 148340, Note_on_c, 6, 66, 95
6, 148560, Note_off_c, 6, 57, 80
6, 148560, Note_off_c, 6, 62, 80
6, 148560, Note_off_c, 6, 66, 80
6, 148560, Note_on_c, 6, 57, 95
6, 148570, Note_on_c, 6, 62, 95
6, 148580, Note_on_c, 6, 66, 95
6, 148800, Note_off_c, 6, 57, 80
6, 148800, Note_off_c, 6, 62, 80
6, 148800, Note_off_c, 6, 66, 80
6, 149040, Note_on_c, 6, 57, 95
6, 149050, Note_on_c, 6, 62, 95
6, 149060, Note_on_c, 6, 66, 95
6, 149280, Note_off_c, 6, 57, 80
6, 149280, Note_off_c, 6, 62, 80
6, 149280, Note_off_c, 6, 66, 80
6, 149520, Note_on_c, 6, 57, 95
6, 149530, Note_on_c, 6, 62, 95
6, 149540, Note_on_c, 6, 66, 95
6, 149760, Note_off_c, 6, 57, 80
6, 149760, Note_off_c, 6, 62, 80
6, 149760, Note_off_c, 6, 66, 80
6, 149760, Note_on_c, 6, 43, 95
6, 149770, Note_on_c, 6, 50, 95
6, 149780, Note_on_c, 6, 55, 95
6, 149790, Note_on_c, 6, 59, 95
6, 150720, Note_off_c, 6, 43, 80
6, 150720, Note_off_c, 6, 50, 80
6, 150720, Note_off_c, 6, 55, 80
6, 150720, Note_off_c, 6, 59, 80
6, 150720, Note_on_c, 6, 45, 95
6, 150730, Note_on_c, 6, 52, 95
6, 150740, Note_on_c, 6, 57, 95
6, 151680, Note_off_c, 6, 45, 80
6, 151680, Note_off_c, 6, 52, 80
6, 151680, Note_off_c, 6, 57, 80
6, 151680, Control_c, 6, 7, 72
6, 151680, Control_c, 7, 7, 72
6, 151680, Note_on_c, 6, 50, 95
6, 151690, Note_on_c, 6, 57, 95
6, 151700, Note_on_c, 6, 62, 95
6, 152160, Note_off_c, 6, 50, 80
6, 152160, Note_off_c, 6, 57, 80
6, 152160, Note_off_c, 6, 62, 80
6, 152160, Note_on_c, 6, 57, 95
6, 152170, Note_on_c, 6, 62, 95
6, 152180, Note_on_c, 6, 66, 95
6, 152400, Note_off_c, 6, 57, 80
6, 152400, Note_off_c, 6, 62, 80
6, 152400, Note_off_c, 6, 66, 80
6, 152400, Note_on_c, 6, 57, 95
6, 152410, Note_on_c, 6, 62, 95
6, 152420, Note_on_c, 6, 66, 95
6, 152640, Note_off_c, 6, 57, 80
6, 152640, Note_off_c, 6, 62, 80
6, 152640, Note_off_c, 6, 66, 80
6, 152880, Note_on_c, 6, 57, 95
6, 152890, Note_on_c, 6, 62, 95
6, 152900, Note_on_c, 6, 66, 95
6, 153120, Note_off_c, 6, 57, 80
6, 153120, Note_off_c, 6, 62, 80
6, 153120, Note_off_c, 6, 66, 80
6, 153360, Note_on_c, 6, 57, 95
6, 153370, Note_on_c, 6, 62, 95
6, 153380, Note_on_c, 6, 66, 95
6, 153600, Note_off_c, 6, 57, 80
6, 153600, Note_off_c, 6, 62, 80
6, 153600, Note_off_c, 6, 66, 80
6, 153600, Note_on_c, 6, 43, 95
6, 153610, Note_on_c, 6, 50, 95
6, 153620, Note_on_c, 6, 55, 95
6, 153630, Note_on_c, 6, 59, 95
6, 154560, Note_off_c, 6, 43, 80
6, 154560, Note_off_c, 6, 50, 80
6, 154560, Note_off_c, 6, 55, 80
6, 154560, Note_off_c, 6, 59, 80
6, 154560, Note_on_c, 6, 45, 95
6, 154570, Note_on_c, 6, 52, 95
6, 154580, Note_on_c, 6, 57, 95
6, 155520, Note_off_c, 6, 45, 80
6, 155520, Note_off_c, 6, 52, 80
6, 155520, Note_off_c, 6, 57, 80
6, 155520, Control_c, 6, 7, 72
6, 155520, Control_c, 7, 7, 72
6, 155520, Note_on_c, 6, 50, 95
6, 155530, Note_on_c, 6, 57, 95
6, 155540, Note_on_c, 6, 62, 95
6, 156000, Note_off_c, 6, 50, 80
6, 156000, Note_off_c, 6, 57, 80
6, 156000, Note_off_c, 6, 62, 80
6, 156000, Note_on_c, 6, 57, 95
6, 156010, Note_on_c, 6, 62, 95
6, 156020, Note_on_c, 6, 66, 95
6, 156240, Note_off_c, 6, 57, 80
6, 156240, Note_off_c, 6, 62, 80
6, 156240, Note_off_c, 6, 66, 80
6, 156240, Note_on_c, 6, 57, 95
6, 156250, Note_on_c, 6, 62, 95
6, 156260, Note_on_c, 6, 66, 95
6, 156480, Note_off_c, 6, 57, 80
6, 156480, Note_off_c, 6, 62, 80
6, 156480, Note_off_c, 6, 66, 80
6, 156720, Note_on_c, 6, 57, 95
6, 156730, Note_on_c, 6, 62, 95
6, 156740, Note_on_c, 6, 66, 95
6, 156960, Note_off_c, 6, 57, 80
6, 156960, Note_off_c, 6, 62, 80
6, 156960, Note_off_c, 6, 66, 80
6, 157200, Note_on_c, 6, 57, 95
6, 157210, Note_on_c, 6, 62, 95
6, 157220, Note_on_c, 6, 66, 95
6, 157440, Note_off_c, 6, 57, 80
6, 157440, Note_off_c, 6, 62, 80
6, 157440, Note_off_c, 6, 66, 80
6, 157440, Note_on_c, 6, 43, 95
6, 157450, Note_on_c, 6, 50, 95
6, 157460, Note_on_c, 6, 55, 95
6, 157470, Note_on_c, 6, 59, 95
6, 158400, Note_off_c, 6, 43, 80
6, 158400, Note_off_c, 6, 50, 80
6, 158400, Note_off_c, 6, 55, 80
6, 158400, Note_off_c, 6, 59, 80
6, 158400, Note_on_c, 6, 45, 95
6, 158410, Note_on_c, 6, 52, 95
6, 158420, Note_on_c, 6, 57, 95
6, 159360, Note_off_c, 6, 45, 80
6, 159360, Note_off_c, 6, 52, 80
6, 159360, Note_off_c, 6, 57, 80
6, 159360, Control_c, 6, 7, 72
6, 159360, Control_c, 7, 7, 72
6, 159360, Note_on_c, 6, 50, 95
6, 159370, Note_on_c, 6, 57, 95
6, 159380, Note_on_c, 6, 62, 95
6, 159840, Note_off_c, 6, 50, 80
6, 159840, Note_off_c, 6, 57, 80
6, 159840, Note_off_c, 6, 62, 80
6, 159840, Note_on_c, 6, 57, 95
6, 159850, Note_on_c, 6, 62, 95
6, 159860, Note_on_c, 6, 66, 95
6, 160080, Note_off_c, 6, 57, 80
6, 160080, Note_off_c, 6, 62, 80
6, 160080, Note_off_c, 6, 66, 80
6, 160080, Note_on_c, 6, 57, 95
6, 160090, Note_on_c, 6, 62, 95
6, 160100, Note_on_c, 6, 66, 95
6, 160320, Note_off_c, 6, 57, 80
6, 160320, Note_off_c, 6, 62, 80
6, 160320, Note_off_c, 6, 66, 80
6, 160560, Note_on_c, 6, 57, 95
6, 160570, Note_on_c, 6, 62, 95
6, 160580, Note_on_c, 6, 66, 95
6, 160800, Note_off_c, 6, 57, 80
6, 160800, Note_off_c, 6, 62, 80
6, 160800, Note_off_c, 6, 66, 80
6, 161040, Note_on_c, 6, 57, 95
6, 161050, Note_on_c, 6, 62, 95
6, 161060, Note_on_c, 6, 66, 95
6, 161280, Note_off_c, 6, 57, 80
6, 161280, Note_off_c, 6, 62, 80
6, 161280, Note_off_c, 6, 66, 80
6, 161280, Note_on_c, 6, 43, 95
6, 161290, Note_on_c, 6, 50, 95
6, 161300, Note_on_c, 6, 55, 95
6, 161310, Note_on_c, 6, 59, 95
6, 162240, Note_off_c, 6, 43, 80
6, 162240, Note_off_c, 6, 50, 80
6, 162240, Note_off_c, 6, 55, 80
6, 162240, Note_off_c, 6, 59, 80
6, 162240, Note_on_c, 6, 45, 95
6, 162250, Note_on_c, 6, 52, 95
6, 162260, Note_on_c, 6, 57, 95
6, 163200, Note_off_c, 6, 45, 80
6, 163200, Note_off_c, 6, 52, 80
6, 163200, Note_off_c, 6, 57, 80
6, 163200, Control_c, 6, 7, 72
6, 163200, Control_c, 7, 7, 72
6, 163200, Note_on_c, 6, 50, 95
6, 163210, Note_on_c, 6, 57, 95
6, 163220, Note_on_c, 6, 62, 95
6, 163680, Note_off_c, 6, 50, 80
6, 163680, Note_off_c, 6, 57, 80
6, 163680, Note_off_c, 6, 62, 80
6, 163680, Note_on_c, 6, 57, 95
6, 163690, Note_on_c, 6, 62, 95
6, 163700, Note_on_c, 6, 66, 95
6, 163920, Note_off_c, 6, 57, 80
6, 163920, Note_off_c, 6, 62, 80
6, 163920, Note_off_c, 6, 66, 80
6, 163920, Note_on_c, 6, 57, 95
6, 163930, Note_on_c, 6, 62, 95
6, 163940, Note_on_c, 6, 66, 95
6, 164160, Note_off_c, 6, 57, 80
6, 164160, Note_off_c, 6, 62, 80
6, 164160, Note_off_c, 6, 66, 80
6, 164400, Note_on_c, 6, 57, 95
6, 164410, Note_on_c, 6, 62, 95
6, 164420, Note_on_c, 6, 66, 95
6, 164640, Note_off_c, 6, 57, 80
6, 164640, Note_off_c, 6, 62, 80
6, 164640, Note_off_c, 6, 66, 80
6, 164880, Note_on_c, 6, 57, 95
6, 164890, Note_on_c, 6, 62, 95
6, 164900, Note_on_c, 6, 66, 95
6, 165120, Note_off_c, 6, 57, 80
6, 165120, Note_off_c, 6, 62, 80
6, 165120, Note_off_c, 6, 66, 80
6, 165120, Note_on_c, 6, 43, 95
6, 165130, Note_on_c, 6, 50, 95
6, 165140, Note_on_c, 6, 55, 95
6, 165150, Note_on_c, 6, 59, 95
6, 166080, Note_off_c, 6, 43, 80
6, 166080, Note_off_c, 6, 50, 80
6, 166080, Note_off_c, 6, 55, 80
6, 166080, Note_off_c, 6, 59, 80
6, 166080, Note_on_c, 6, 45, 95
6, 166090, Note_on_c, 6, 52, 95
6, 166100, Note_on_c, 6, 57, 95
6, 167040, Note_off_c, 6, 45, 80
6, 167040, Note_off_c, 6, 52, 80
6, 167040, Note_off_c, 6, 57, 80
6, 167040, Control_c, 6, 7, 72
6, 167040, Control_c, 7, 7, 72
6, 167040, Note_on_c, 6, 50, 95
6, 167050, Note_on_c, 6, 57, 95
6, 167060, Note_on_c, 6, 62, 95
6, 167520, Note_off_c, 6, 50, 80
6, 167520, Note_off_c, 6, 57, 80
6, 167520, Note_off_c, 6, 62, 80
6, 167520, Note_on_c, 6, 57, 95
6, 167530, Note_on_c, 6, 62, 95
6, 167540, Note_on_c, 6, 66, 95
6, 167760, Note_off_c, 6, 57, 80
6, 167760, Note_off_c, 6, 62, 80
6, 167760, Note_off_c, 6, 66, 80
6, 167760, Note_on_c, 6, 57, 95
6, 167770, Note_on_c, 6, 62, 95
6, 167780, Note_on_c, 6, 66, 95
6, 168000, Note_off_c, 6, 57, 80
6, 168000, Note_off_c, 6, 62, 80
6, 168000, Note_off_c, 6, 66, 80
6, 168240, Note_on_c, 6, 57, 95
6, 168250, Note_on_c, 6, 62, 95
6, 168260, Note_on_c, 6, 66, 95
6, 168480, Note_off_c, 6, 57, 80
6, 168480, Note_off_c, 6, 62, 80
6, 168480, Note_off_c, 6, 66, 80
6, 168720, Note_on_c, 6, 57, 95
6, 168730, Note_on_c, 6, 62, 95
6, 168740, Note_on_c, 6, 66, 95
6, 168960, Note_off_c, 6, 57, 80
6, 168960, Note_off_c, 6, 62, 80
6, 168960, Note_off_c, 6, 66, 80
6, 168960, Note_on_c, 6, 43, 95
6, 168970, Note_on_c, 6, 50, 95
6, 168980, Note_on_c, 6, 55, 95
6, 168990, Note_on_c, 6, 59, 95
6, 169920, Note_off_c, 6, 43, 80
6, 169920, Note_off_c, 6, 50, 80
6, 169920, Note_off_c, 6, 55, 80
6, 169920, Note_off_c, 6, 59, 80
6, 169920, Note_on_c, 6, 45, 95
6, 169930, Note_on_c, 6, 52, 95
6, 169940, Note_on_c, 6, 57, 95
6, 170880, Note_off_c, 6, 45, 80
6, 170880, Note_off_c, 6, 52, 80
6, 170880, Note_off_c, 6, 57, 80
6, 170880, Control_c, 6, 7, 72
6, 170880, Control_c, 7, 7, 72
6, 170880, Note_on_c, 6, 50, 95
6, 170890, Note_on_c, 6, 57, 95
6, 170900, Note_on_c, 6, 62, 95
6, 171360, Note_off_c, 6, 50, 80
6, 171360, Note_off_c, 6, 57, 80
6, 171360, Note_off_c, 6, 62, 80
6, 171360, Note_on_c, 6, 57, 95
6, 171370, Note_on_c, 6, 62, 95
6, 171380, Note_on_c, 6, 66, 95
6, 171600, Note_off_c, 6, 57, 80
6, 171600, Note_off_c, 6, 62, 80
6, 171600, Note_off_c, 6, 66, 80
6, 171600, Note_on_c, 6, 57, 95
6, 171610, Note_on_c, 6, 62, 95
6, 171620, Note_on_c, 6, 66, 95
6, 171840, Note_off_c, 6, 57, 80
6, 171840, Note_off_c, 6, 62, 80
6, 171840, Note_off_c, 6, 66, 80
6, 172080, Note_on_c, 6, 57, 95
6, 172090, Note_on_c, 6, 62, 95
6, 172100, Note_on_c, 6, 66, 95
6, 172320, Note_off_c, 6, 57, 80
6, 172320, Note_off_c, 6, 62, 80
6, 172320, Note_off_c, 6, 66, 80
6, 172560, Note_on_c, 6, 57, 95
6, 172570, Note_on_c, 6, 62, 95
6, 172580, Note_on_c, 6, 66, 95
6, 172800, Note_off_c, 6, 57, 80
6, 172800, Note_off_c, 6, 62, 80
6, 172800, Note_off_c, 6, 66, 80
6, 172800, Note_on_c, 6, 43, 95
6, 172810, Note_on_c, 6, 50, 95
6, 172820, Note_on_c, 6, 55, 95
6, 172830, Note_on_c, 6, 59, 95
6, 173760, Note_off_c, 6, 43, 80
6, 173760, Note_off_c, 6, 50, 80
6, 173760, Note_off_c, 6, 55, 80
6, 173760, Note_off_c, 6, 59, 80
6, 173760, Note_on_c, 6, 45, 95
6, 173770, Note_on_c, 6, 52, 95
6, 173780, Note_on_c, 6, 57, 95
6, 174720, Note_off_c, 6, 45, 80
6, 174720, Note_off_c, 6, 52, 80
6, 174720, Note_off_c, 6, 57, 80
6, 174720, Control_c, 6, 7, 72
6, 174720, Control_c, 7, 7, 72
6, 174720, Note_on_c, 6, 50, 95
6, 174730, Note_on_c, 6, 57, 95
6, 174740, Note_on_c, 6, 62, 95
6, 175200, Note_off_c, 6, 50, 80
6, 175200, Note_off_c, 6, 57, 80
6, 175200, Note_off_c, 6, 62, 80
6, 175200, Note_on_c, 6, 57, 95
6, 175210, Note_on_c, 6, 62, 95
6, 175220, Note_on_c, 6, 66, 95
6, 175440, Note_off_c, 6, 57, 80
6, 175440, Note_off_c, 6, 62, 80
6, 175440, Note_off_c, 6, 66, 80
6, 175440, Note_on_c, 6, 57, 95
6, 175450, Note_on_c, 6, 62, 95
6, 175460, Note_on_c, 6, 66, 95
6, 175680, Note_off_c, 6, 57, 80
6, 175680, Note_off_c, 6, 62, 80
6, 175680, Note_off_c, 6, 66, 80
6, 175920, Note_on_c, 6, 57, 95
6, 175930, Note_on_c, 6, 62, 95
6, 175940, Note_on_c, 6, 66, 95
6, 176160, Note_off_c, 6, 57, 80
6, 176160, Note_off_c, 6, 62, 80
6, 176160, Note_off_c, 6, 66, 80
6, 176400, Note_on_c, 6, 57, 95
6, 176410, Note_on_c, 6, 62, 95
6, 176420, Note_on_c, 6, 66, 95
6, 176640, Note_off_c, 6, 57, 80
6, 176640, Note_off_c, 6, 62, 80
6, 176640, Note_off_c, 6, 66, 80
6, 176640, Note_on_c, 6, 43, 95
6, 176650, Note_on_c, 6, 50, 95
6, 176660, Note_on_c, 6, 55, 95
6, 176670, Note_on_c, 6, 59, 95
6, 177600, Note_off_c, 6, 43, 80
6, 177600, Note_off_c, 6, 50, 80
6, 177600, Note_off_c, 6, 55, 80
6, 177600, Note_off_c, 6, 59, 80
6, 177600, Note_on_c, 6, 45, 95
6, 177610, Note_on_c, 6, 52, 95
6, 177620, Note_on_c, 6, 57, 95
6, 178560, Note_off_c, 6, 45, 80
6, 178560, Note_off_c, 6, 52, 80
6, 178560, Note_off_c, 6, 57, 80
6, 178560, Control_c, 6, 7, 72
6, 178560, Control_c, 7, 7, 72
6, 178560, Note_on_c, 6, 50, 95
6, 178570, Note_on_c, 6, 57, 95
6, 178580, Note_on_c, 6, 62, 95
6, 179040, Note_off_c, 6, 50, 80
6, 179040, Note_off_c, 6, 57, 80
6, 179040, Note_off_c, 6, 62, 80
6, 179040, Note_on_c, 6, 57, 95
6, 179050, Note_on_c, 6, 62, 95
6, 179060, Note_on_c, 6, 66, 95
6, 179280, Note_off_c, 6, 57, 80
6, 179280, Note_off_c, 6, 62, 80
6, 179280, Note_off_c, 6, 66, 80
6, 179280, Note_on_c, 6, 57, 95
6, 179290, Note_on_c, 6, 62, 95
6, 179300, Note_on_c, 6, 66, 95
6, 179520, Note_off_c, 6, 57, 80
6, 179520, Note_off_c, 6, 62, 80
6, 179520, Note_off_c, 6, 66, 80
6, 179760, Note_on_c, 6, 57, 95
6, 179770, Note_on_c, 6, 62, 95
6, 179780, Note_on_c, 6, 66, 95
6, 180000, Note_off_c, 6, 57, 80
6, 180000, Note_off_c, 6, 62, 80
6, 180000, Note_off_c, 6, 66, 80
6, 180240, Note_on_c, 6, 57, 95
6, 180250, Note_on_c, 6, 62, 95
6, 180260, Note_on_c, 6, 66, 95
6, 180480, Note_off_c, 6, 57, 80
6, 180480, Note_off_c, 6, 62, 80
6, 180480, Note_off_c, 6, 66, 80
6, 180480, Note_on_c, 6, 43, 95
6, 180490, Note_on_c, 6, 50, 95
6, 180500, Note_on_c, 6, 55, 95
6, 180510, Note_on_c, 6, 59, 95
6, 181440, Note_off_c, 6, 43, 80
6, 181440, Note_off_c, 6, 50, 80
6, 181440, Note_off_c, 6, 55, 80
6, 181440, Note_off_c, 6, 59, 80
6, 181440, Note_on_c, 6, 45, 95
6, 181450, Note_on_c, 6, 52, 95
6, 181460, Note_on_c, 6, 57, 95
6, 182400, Note_off_c, 6, 45, 80
6, 182400, Note_off_c, 6, 52, 80
6, 182400, Note_off_c, 6, 57, 80
6, 182400, Control_c, 6, 7, 72
6, 182400, Control_c, 7, 7, 72
6, 182400, Note_on_c, 6, 50, 95
6, 182410, Note_on_c, 6, 57, 95
6, 182420, Note_on_c, 6, 62, 95
6, 182880, Note_off_c, 6, 50, 80
6, 182880, Note_off_c, 6, 57, 80
6, 182880, Note_off_c, 6, 62, 80
6, 182880, Note_on_c, 6, 57, 95
6, 182890, Note_on_c, 6, 62, 95
6, 182900, Note_on_c, 6, 66, 95
6, 183120, Note_off_c, 6, 57, 80
6, 183120, Note_off_c, 6, 62, 80
6, 183120, Note_off_c, 6, 66, 80
6, 183120, Note_on_c, 6, 57, 95
6, 183130, Note_on_c, 6, 62, 95
6, 183140, Note_on_c, 6, 66, 95
6, 183360, Note_off_c, 6, 57, 80
6, 183360, Note_off_c, 6, 62, 80
6, 183360, Note_off_c, 6, 66, 80
6, 183600, Note_on_c, 6, 57, 95
6, 183610, Note_on_c, 6, 62, 95
6, 183620, Note_on_c, 6, 66, 95
6, 183840, Note_off_c, 6, 57, 80
6, 183840, Note_off_c, 6, 62, 80
6, 183840, Note_off_c, 6, 66, 80
6, 184080, Note_on_c, 6, 57, 95
6, 184090, Note_on_c, 6, 62, 95
6, 184100, Note_on_c, 6, 66, 95
6, 184320, Note_off_c, 6, 57, 80
6, 184320, Note_off_c, 6, 62, 80
6, 184320, Note_off_c, 6, 66, 80
6, 184320, Note_on_c, 6, 43, 95
6, 184330, Note_on_c, 6, 50, 95
6, 184340, Note_on_c, 6, 55, 95
6, 184350, Note_on_c, 6, 59, 95
6, 185280, Note_off_c, 6, 43, 80
6, 185280, Note_off_c, 6, 50, 80
6, 185280, Note_off_c, 6, 55, 80
6, 185280, Note_off_c, 6, 59, 80
6, 185280, Note_on_c, 6, 45, 95
6, 185290, Note_on_c, 6, 52, 95
6, 185300, Note_on_c, 6, 57, 95
6, 186240, Note_off_c, 6, 45, 80
6, 186240, Note_off_c, 6, 52, 80
6, 186240, Note_off_c, 6, 57, 80
6, 186240, Control_c, 6, 7, 72
6, 186240, Control_c, 7, 7, 72
6, 186240, Note_on_c, 6, 50, 95
6, 186250, Note_on_c, 6, 57, 95
6, 186260, Note_on_c, 6, 62, 95
6, 186720, Note_off_c, 6, 50, 80
6, 186720, Note_off_c, 6, 57, 80
6, 186720, Note_off_c, 6, 62, 80
6, 186720, Note_on_c, 6, 57, 95
6, 186730, Note_on_c, 6, 62, 95
6, 186740, Note_on_c, 6, 66, 95
6, 186960, Note_off_c, 6, 57, 80
6, 186960, Note_off_c, 6, 62, 80
6, 186960, Note_off_c, 6, 66, 80
6, 186960, Note_on_c, 6, 57, 95
6, 186970, Note_on_c, 6, 62, 95
6, 186980, Note_on_c, 6, 66, 95
6, 187200, Note_off_c, 6, 57, 80
6, 187200, Note_off_c, 6, 62, 80
6, 187200, Note_off_c, 6, 66, 80
6, 187440, Note_on_c, 6, 57, 95
6, 187450, Note_on_c, 6, 62, 95
6, 187460, Note_on_c, 6, 66, 95
6, 187680, Note_off_c, 6, 57, 80
6, 187680, Note_off_c, 6, 62, 80
6, 187680, Note_off_c, 6, 66, 80
6, 187920, Note_on_c, 6, 57, 95
6, 187930, Note_on_c, 6, 62, 95
6, 187940, Note_on_c, 6, 66, 95
6, 188160, Note_off_c, 6, 57, 80
6, 188160, Note_off_c, 6, 62, 80
6, 188160, Note_off_c, 6, 66, 80
6, 188160, Note_on_c, 6, 43, 95
6, 188170, Note_on_c, 6, 50, 95
6, 188180, Note_on_c, 6, 55, 95
6, 188190, Note_on_c, 6, 59, 95
6, 189120, Note_off_c, 6, 43, 80
6, 189120, Note_off_c, 6, 50, 80
6, 189120, Note_off_c, 6, 55, 80
6, 189120, Note_off_c, 6, 59, 80
6, 189120, Note_on_c, 6, 45, 95
6, 189130, Note_on_c, 6, 52, 95
6, 189140, Note_on_c, 6, 57, 95
6, 190080, Note_off_c, 6, 45, 80
6, 190080, Note_off_c, 6, 52, 80
6, 190080, Note_off_c, 6, 57, 80
6, 190080, Control_c, 6, 7, 72
6, 190080, Control_c, 7, 7, 72
6, 190080, Note_on_c, 6, 50, 95
6, 190090, Note_on_c, 6, 57, 95
6, 190100, Note_on_c, 6, 62, 95
6, 190560, Note_off_c, 6, 50, 80
6, 190560, Note_off_c, 6, 57, 80
6, 190560, Note_off_c, 6, 62, 80
6, 190560, Note_on_c, 6, 57, 95
6, 190570, Note_on_c, 6, 62, 95
6, 190580, Note_on_c, 6, 66, 95
6, 190800, Note_off_c, 6, 57, 80
6, 190800, Note_off_c, 6, 62, 80
6, 190800, Note_off_c, 6, 66, 80
6, 190800, Note_on_c, 6, 57, 95
6, 190810, Note_on_c, 6, 62, 95
6, 190820, Note_on_c, 6, 66, 95
6, 191040, Note_off_c, 6, 57, 80
6, 191040, Note_off_c, 6, 62, 80
6, 191040, Note_off_c, 6, 66, 80
6, 191280, Note_on_c, 6, 57, 95
6, 191290, Note_on_c, 6, 62, 95
6, 191300, Note_on_c, 6, 66, 95
6, 191520, Note_off_c, 6, 57, 80
6, 191520, Note_off_c, 6, 62, 80
6, 191520, Note_off_c, 6, 66, 80
6, 191760, Note_on_c, 6, 57, 95
6, 191770, Note_on_c, 6, 62, 95
6, 191780, Note_on_c, 6, 66, 95
6, 192000, Note_off_c, 6, 57, 80
6, 192000, Note_off_c, 6, 62, 80
6, 192000, Note_off_c, 6, 66, 80
6, 192000, Note_on_c, 6, 43, 95
6, 192010, Note_on_c, 6, 50, 95
6, 192020, Note_on_c, 6, 55, 95
6, 192030, Note_on_c, 6, 59, 95
6, 192960, Note_off_c, 6, 43, 80
6, 192960, Note_off_c, 6, 50, 80
6, 192960, Note_off_c, 6, 55, 80
6, 192960, Note_off_c, 6, 59, 80
6, 192960, Note_on_c, 6, 45, 95
6, 192970, Note_on_c, 6, 52, 95
6, 192980, Note_on_c, 6, 57, 95
6, 193920, Note_off_c, 6, 45, 80
6, 193920, Note_off_c, 6, 52, 80
6, 193920, Note_off_c, 6, 57, 80
6, 193920, Control_c, 6, 7, 71
6, 193920, Control_c, 7, 7, 71
6, 193920, Note_on_c, 6, 50, 95
6, 193930, Note_on_c, 6, 57, 95
6, 193940, Note_on_c, 6, 62, 95
6, 193950, Note_on_c, 6, 66, 95
6, 194040, Control_c, 6, 7, 69
6, 194040, Control_c, 7, 7, 69
6, 194160, Control_c, 6, 7, 68
6, 194160, Control_c, 7, 7, 68
6, 194280, Control_c, 6, 7, 66
6, 194280, Control_c, 7, 7, 66
6, 194400, Control_c, 6, 7, 65
6, 194400, Control_c, 7, 7, 65
6, 194520, Control_c, 6, 7, 63
6, 194520, Control_c, 7, 7, 63
6, 194640, Control_c, 6, 7, 62
6, 194640, Control_c, 7, 7, 62
6, 194760, Control_c, 6, 7, 60
6, 194760, Control_c, 7, 7, 60
6, 194880, Control_c, 6, 7, 59
6, 194880, Control_c, 7, 7, 59
6, 195000, Control_c, 6, 7, 57
6, 195000, Control_c, 7, 7, 57
6, 195120, Control_c, 6, 7, 56
6, 195120, Control_c, 7, 7, 56
6, 195240, Control_c, 6, 7, 54
6, 195240, Control_c, 7, 7, 54
6, 195360, Control_c, 6, 7, 53
6, 195360, Control_c, 7, 7, 53
6, 195480, Control_c, 6, 7, 51
6, 195480, Control_c, 7, 7, 51
6, 195600, Control_c, 6, 7, 50
6, 195600, Control_c, 7, 7, 50
6, 195720, Control_c, 6, 7, 48
6, 195720, Control_c, 7, 7, 48
6, 195840, Control_c, 6, 7, 47
6, 195840, Control_c, 7, 7, 47
6, 195960, Control_c, 6, 7, 46
6, 195960, Control_c, 7, 7, 46
6, 196080, Control_c, 6, 7, 44
6, 196080, Control_c, 7, 7, 44
6, 196200, Control_c, 6, 7, 43
6, 196200, Control_c, 7, 7, 43
6, 196320, Control_c, 6, 7, 41
6, 196320, Control_c, 7, 7, 41
6, 196440, Control_c, 6, 7, 40
6, 196440, Control_c, 7, 7, 40
6, 196560, Control_c, 6, 7, 38
6, 196560, Control_c, 7, 7, 38
6, 196680, Control_c, 6, 7, 37
6, 196680, Control_c, 7, 7, 37
6, 196800, Control_c, 6, 7, 35
6, 196800, Control_c, 7, 7, 35
6, 196920, Control_c, 6, 7, 34
6, 196920, Control_c, 7, 7, 34
6, 197040, Control_c, 6, 7, 32
6, 197040, Control_c, 7, 7, 32
6, 197160, Control_c, 6, 7, 31
6, 197160, Control_c, 7, 7, 31
6, 197280, Control_c, 6, 7, 29
6, 197280, Control_c, 7, 7, 29
6, 197400, Control_c, 6, 7, 28
6, 197400, Control_c, 7, 7, 28
6, 197520, Control_c, 6, 7, 26
6, 197520, Control_c, 7, 7, 26
6, 197640, Control_c, 6, 7, 25
6, 197640, Control_c, 7, 7, 25
6, 197760, Control_c, 6, 7, 24
6, 197760, Control_c, 7, 7, 24
6, 197880, Control_c, 6, 7, 22
6, 197880, Control_c, 7, 7, 22
6, 198000, Control_c, 6, 7, 21
6, 198000, Control_c, 7, 7, 21
6, 198120, Control_c, 6, 7, 19
6, 198120, Control_c, 7, 7, 19
6, 198240, Control_c, 6, 7, 18
6, 198240, Control_c, 7, 7, 18
6, 198360, Control_c, 6, 7, 16
6, 198360, Control_c, 7, 7, 16
6, 198480, Control_c, 6, 7, 15
6, 198480, Control_c, 7, 7, 15
6, 198600, Control_c, 6, 7, 13
6, 198600, Control_c, 7, 7, 13
6, 198720, Control_c, 6, 7, 12
6, 198720, Control_c, 7, 7, 12
6, 198840, Control_c, 6, 7, 10
6, 198840, Control_c, 7, 7, 10
6, 198960, Control_c, 6, 7, 9
6, 198960, Control_c, 7, 7, 9
6, 199080, Control_c, 6, 7, 7
6, 199080, Control_c, 7, 7, 7
6, 199200, Control_c, 6, 7, 6
6, 199200, Control_c, 7, 7, 6
6, 199320, Control_c, 6, 7, 4
6, 199320, Control_c, 7, 7, 4
6, 199440, Control_c, 6, 7, 3
6, 199440, Control_c, 7, 7, 3
6, 199560, Control_c, 6, 7, 1
6, 199560, Control_c, 7, 7, 1
6, 199680, Control_c, 6, 7, 0
6, 199680, Control_c, 7, 7, 0
6, 199680, Note_off_c, 6, 50, 80
6, 199680, Note_off_c, 6, 57, 80
6, 199680, Note_off_c, 6, 62, 80
6, 199680, Note_off_c, 6, 66, 80
6, 199680, End_track
7, 0, Start_track
7, 0, Title_t, "Chant"
7, 0, Control_c, 10, 100, 0
7, 0, Control_c, 10, 101, 0
7, 0, Control_c, 10, 6, 12
7, 0, Pitch_bend_c, 10, 8192
7, 0, Control_c, 10, 101, 0
7, 0, Control_c, 10, 100, 1
7, 0, Control_c, 10, 6, 64
7, 0, Control_c, 10, 38, 0
7, 0, Control_c, 10, 101, 127
7, 0, Control_c, 10, 100, 127
7, 0, Control_c, 8, 100, 0
7, 0, Control_c, 8, 101, 0
7, 0, Control_c, 8, 6, 12
7, 0, Pitch_bend_c, 8, 8192
7, 0, Control_c, 8, 101, 0
7, 0, Control_c, 8, 100, 1
7, 0, Control_c, 8, 6, 64
7, 0, Control_c, 8, 38, 0
7, 0, Control_c, 8, 101, 127
7, 0, Control_c, 8, 100, 127
7, 0, Control_c, 10, 101, 0
7, 0, Control_c, 10, 100, 2
7, 0, Control_c, 10, 6, 64
7, 0, Control_c, 10, 101, 127
7, 0, Control_c, 10, 100, 127
7, 0, Control_c, 8, 101, 0
7, 0, Control_c, 8, 100, 2
7, 0, Control_c, 8, 6, 64
7, 0, Control_c, 8, 101, 127
7, 0, Control_c, 8, 100, 127
7, 0, Program_c, 10, 105
7, 0, Program_c, 8, 105
7, 0, Control_c, 10, 0, 0
7, 0, Control_c, 8, 0, 0
7, 0, Control_c, 10, 7, 104
7, 0, Control_c, 8, 7, 104
7, 0, Control_c, 10, 10, 64
7, 0, Control_c, 8, 10, 64
7, 0, Control_c, 10, 93, 0
7, 0, Control_c, 8, 93, 0
7, 0, Control_c, 10, 91, 0
7, 0, Control_c, 8, 91, 0
7, 0, Control_c, 10, 92, 0
7, 0, Control_c, 8, 92, 0
7, 0, Control_c, 10, 95, 0
7, 0, Control_c, 8, 95, 0
7, 13920, Note_on_c, 8, 57, 95
7, 14160, Note_off_c, 8, 57, 80
7, 14160, Note_on_c, 8, 57, 95
7, 14400, Note_off_c, 8, 57, 80
7, 14640, Note_on_c, 8, 57, 95
7, 14880, Note_off_c, 8, 57, 80
7, 15120, Note_on_c, 8, 57, 95
7, 15360, Note_off_c, 8, 57, 80
7, 15360, Note_on_c, 8, 57, 95
7, 15840, Note_off_c, 8, 57, 80
7, 15840, Note_on_c, 8, 64, 95
7, 16320, Note_off_c, 8, 64, 80
7, 16320, Note_on_c, 8, 61, 95
7, 16560, Note_off_c, 8, 61, 80
7, 16560, Note_on_c, 8, 57, 95
7, 16800, Note_off_c, 8, 57, 80
7, 17760, Note_on_c, 8, 55, 95
7, 18000, Note_off_c, 8, 55, 80
7, 18000, Note_on_c, 8, 55, 95
7, 18240, Note_off_c, 8, 55, 80
7, 18480, Note_on_c, 8, 55, 95
7, 18720, Note_off_c, 8, 55, 80
7, 18960, Note_on_c, 8, 55, 95
7, 19200, Note_off_c, 8, 55, 80
7, 19440, Note_on_c, 8, 54, 95
7, 19920, Note_off_c, 8, 54, 80
7, 19920, Note_on_c, 8, 50, 95
7, 20400, Note_off_c, 8, 50, 80
7, 20400, Note_on_c, 8, 52, 95
7, 21120, Note_off_c, 8, 52, 80
7, 21120, Note_on_c, 8, 54, 95
7, 21600, Note_off_c, 8, 54, 80
7, 21840, Note_on_c, 8, 57, 95
7, 22080, Note_off_c, 8, 57, 80
7, 22320, Note_on_c, 8, 57, 95
7, 22560, Note_off_c, 8, 57, 80
7, 22800, Note_on_c, 8, 57, 95
7, 23040, Note_off_c, 8, 57, 80
7, 23040, Note_on_c, 8, 57, 95
7, 23520, Note_off_c, 8, 57, 80
7, 23520, Note_on_c, 8, 64, 95
7, 24000, Note_off_c, 8, 64, 80
7, 24000, Note_on_c, 8, 61, 95
7, 24240, Note_off_c, 8, 61, 80
7, 24240, Note_on_c, 8, 57, 95
7, 24480, Note_off_c, 8, 57, 80
7, 25440, Note_on_c, 8, 55, 95
7, 25680, Note_off_c, 8, 55, 80
7, 25680, Note_on_c, 8, 55, 95
7, 25920, Note_off_c, 8, 55, 80
7, 26160, Note_on_c, 8, 55, 95
7, 26400, Note_off_c, 8, 55, 80
7, 26640, Note_on_c, 8, 55, 95
7, 26880, Note_off_c, 8, 55, 80
7, 27120, Note_on_c, 8, 54, 95
7, 27600, Note_off_c, 8, 54, 80
7, 27600, Note_on_c, 8, 50, 95
7, 28080, Note_off_c, 8, 50, 80
7, 28080, Note_on_c, 8, 52, 95
7, 28800, Note_off_c, 8, 52, 80
7, 28800, Note_on_c, 8, 54, 95
7, 29280, Note_off_c, 8, 54, 80
7, 29520, Note_on_c, 8, 57, 95
7, 29760, Note_off_c, 8, 57, 80
7, 30000, Note_on_c, 8, 57, 95
7, 30240, Note_off_c, 8, 57, 80
7, 30480, Note_on_c, 8, 57, 95
7, 30720, Note_off_c, 8, 57, 80
7, 30720, Note_on_c, 8, 57, 95
7, 30960, Note_off_c, 8, 57, 80
7, 30960, Note_on_c, 8, 57, 95
7, 31440, Note_off_c, 8, 57, 80
7, 31440, Note_on_c, 8, 57, 95
7, 31920, Note_off_c, 8, 57, 80
7, 31920, Note_on_c, 8, 54, 95
7, 32400, Note_off_c, 8, 54, 80
7, 33120, Note_on_c, 8, 55, 95
7, 33360, Note_off_c, 8, 55, 80
7, 33360, Note_on_c, 8, 55, 95
7, 33600, Note_off_c, 8, 55, 80
7, 33840, Note_on_c, 8, 55, 95
7, 34080, Note_off_c, 8, 55, 80
7, 34320, Note_on_c, 8, 55, 95
7, 34560, Note_off_c, 8, 55, 80
7, 34800, Note_on_c, 8, 54, 95
7, 35280, Note_off_c, 8, 54, 80
7, 35280, Note_on_c, 8, 50, 95
7, 35760, Note_off_c, 8, 50, 80
7, 35760, Note_on_c, 8, 52, 95
7, 36480, Note_off_c, 8, 52, 80
7, 36480, Note_on_c, 8, 54, 95
7, 36960, Note_off_c, 8, 54, 80
7, 37200, Note_on_c, 8, 57, 95
7, 37440, Note_off_c, 8, 57, 80
7, 37680, Note_on_c, 8, 57, 95
7, 37920, Note_off_c, 8, 57, 80
7, 38160, Note_on_c, 8, 57, 95
7, 38400, Note_off_c, 8, 57, 80
7, 38400, Note_on_c, 8, 57, 95
7, 38640, Note_off_c, 8, 57, 80
7, 38640, Note_on_c, 8, 64, 95
7, 39120, Note_off_c, 8, 64, 80
7, 39120, Note_on_c, 8, 66, 95
7, 39600, Note_off_c, 8, 66, 80
7, 39600, Note_on_c, 8, 64, 95
7, 39840, Note_off_c, 8, 64, 80
7, 39840, Note_on_c, 8, 62, 95
7, 40320, Note_off_c, 8, 62, 80
7, 40560, Note_on_c, 8, 66, 95
7, 41040, Note_off_c, 8, 66, 80
7, 41040, Note_on_c, 8, 64, 95
7, 41280, Note_off_c, 8, 64, 80
7, 41280, Note_on_c, 8, 62, 95
7, 41520, Note_off_c, 8, 62, 80
7, 41520, Note_on_c, 8, 59, 95
7, 42240, Note_off_c, 8, 59, 80
7, 42240, Note_on_c, 8, 67, 95
7, 42720, Note_off_c, 8, 67, 80
7, 42720, Note_on_c, 8, 66, 95
7, 43200, Note_off_c, 8, 66, 80
7, 43200, Note_on_c, 8, 62, 95
7, 43440, Note_off_c, 8, 62, 80
7, 43440, Note_on_c, 8, 59, 95
7, 43680, Note_off_c, 8, 59, 80
7, 44400, Note_on_c, 8, 54, 95
7, 44640, Note_off_c, 8, 54, 80
7, 44640, Note_on_c, 8, 54, 95
7, 44880, Note_off_c, 8, 54, 80
7, 44880, Note_on_c, 8, 54, 95
7, 45120, Note_off_c, 8, 54, 80
7, 45120, Note_on_c, 8, 55, 95
7, 45600, Note_off_c, 8, 55, 80
7, 45600, Note_on_c, 8, 54, 95
7, 46080, Note_off_c, 8, 54, 80
7, 46080, Note_on_c, 8, 52, 95
7, 46320, Note_off_c, 8, 52, 80
7, 46320, Note_on_c, 8, 50, 95
7, 46560, Note_off_c, 8, 50, 80
7, 46560, Note_on_c, 8, 66, 95
7, 47040, Note_off_c, 8, 66, 80
7, 47040, Note_on_c, 8, 64, 95
7, 47280, Note_off_c, 8, 64, 80
7, 47280, Note_on_c, 8, 62, 95
7, 47520, Note_off_c, 8, 62, 80
7, 47520, Note_on_c, 8, 66, 95
7, 48000, Note_off_c, 8, 66, 80
7, 48000, Note_on_c, 8, 64, 95
7, 48240, Note_off_c, 8, 64, 80
7, 48240, Note_on_c, 8, 57, 95
7, 48480, Note_off_c, 8, 57, 80
7, 48480, Note_on_c, 8, 64, 95
7, 48720, Note_off_c, 8, 64, 80
7, 48720, Note_on_c, 8, 64, 95
7, 48960, Note_off_c, 8, 64, 80
7, 48960, Note_on_c, 8, 66, 95
7, 49440, Note_off_c, 8, 66, 80
7, 49440, Note_on_c, 8, 62, 95
7, 49920, Note_off_c, 8, 62, 80
7, 50400, Note_on_c, 8, 64, 95
7, 51840, Note_off_c, 8, 64, 80
7, 52560, Note_on_c, 8, 62, 95
7, 53040, Note_off_c, 8, 62, 80
7, 53040, Note_on_c, 8, 59, 95
7, 53520, Note_off_c, 8, 59, 80
7, 53520, Note_on_c, 8, 59, 95
7, 53760, Note_off_c, 8, 59, 80
7, 53760, Note_on_c, 8, 59, 95
7, 54000, Note_off_c, 8, 59, 80
7, 54000, Note_on_c, 8, 57, 95
7, 54480, Note_off_c, 8, 57, 80
7, 56400, Note_on_c, 8, 62, 95
7, 56880, Note_off_c, 8, 62, 80
7, 56880, Note_on_c, 8, 59, 95
7, 57360, Note_off_c, 8, 59, 80
7, 57360, Note_on_c, 8, 59, 95
7, 57600, Note_off_c, 8, 59, 80
7, 57600, Note_on_c, 8, 59, 95
7, 57840, Note_off_c, 8, 59, 80
7, 57840, Note_on_c, 8, 57, 95
7, 58320, Note_off_c, 8, 57, 80
7, 60240, Note_on_c, 8, 66, 95
7, 60720, Note_off_c, 8, 66, 80
7, 60720, Note_on_c, 8, 64, 95
7, 61200, Note_off_c, 8, 64, 80
7, 61200, Note_on_c, 8, 64, 95
7, 61440, Note_off_c, 8, 64, 80
7, 61440, Note_on_c, 8, 62, 95
7, 62160, Note_off_c, 8, 62, 80
7, 69600, Note_on_c, 8, 57, 95
7, 69840, Note_off_c, 8, 57, 80
7, 69840, Note_on_c, 8, 57, 95
7, 70080, Note_off_c, 8, 57, 80
7, 70320, Note_on_c, 8, 57, 95
7, 70560, Note_off_c, 8, 57, 80
7, 70800, Note_on_c, 8, 57, 95
7, 71040, Note_off_c, 8, 57, 80
7, 71040, Note_on_c, 8, 57, 95
7, 71520, Note_off_c, 8, 57, 80
7, 71520, Note_on_c, 8, 64, 95
7, 72000, Note_off_c, 8, 64, 80
7, 72000, Note_on_c, 8, 61, 95
7, 72240, Note_off_c, 8, 61, 80
7, 72240, Note_on_c, 8, 57, 95
7, 72480, Note_off_c, 8, 57, 80
7, 73440, Note_on_c, 8, 55, 95
7, 73680, Note_off_c, 8, 55, 80
7, 73680, Note_on_c, 8, 55, 95
7, 73920, Note_off_c, 8, 55, 80
7, 74160, Note_on_c, 8, 55, 95
7, 74400, Note_off_c, 8, 55, 80
7, 74400, Note_on_c, 8, 55, 95
7, 74640, Note_off_c, 8, 55, 80
7, 74640, Note_on_c, 8, 55, 95
7, 75360, Note_off_c, 8, 55, 80
7, 75360, Note_on_c, 8, 54, 95
7, 75840, Note_off_c, 8, 54, 80
7, 75840, Note_on_c, 8, 50, 95
7, 76080, Note_off_c, 8, 50, 80
7, 76080, Note_on_c, 8, 52, 95
7, 76800, Note_off_c, 8, 52, 80
7, 76800, Note_on_c, 8, 54, 95
7, 77280, Note_off_c, 8, 54, 80
7, 77280, Note_on_c, 8, 57, 95
7, 77520, Note_off_c, 8, 57, 80
7, 77520, Note_on_c, 8, 57, 95
7, 77760, Note_off_c, 8, 57, 80
7, 77760, Note_on_c, 8, 57, 95
7, 78000, Note_off_c, 8, 57, 80
7, 78240, Note_on_c, 8, 57, 95
7, 78480, Note_off_c, 8, 57, 80
7, 78480, Note_on_c, 8, 57, 95
7, 78720, Note_off_c, 8, 57, 80
7, 78720, Note_on_c, 8, 57, 95
7, 79200, Note_off_c, 8, 57, 80
7, 79200, Note_on_c, 8, 64, 95
7, 79680, Note_off_c, 8, 64, 80
7, 79680, Note_on_c, 8, 66, 95
7, 79920, Note_off_c, 8, 66, 80
7, 79920, Note_on_c, 8, 64, 95
7, 80400, Note_off_c, 8, 64, 80
7, 80400, Note_on_c, 8, 57, 95
7, 80640, Note_off_c, 8, 57, 80
7, 80640, Note_on_c, 8, 66, 95
7, 81120, Note_off_c, 8, 66, 80
7, 81120, Note_on_c, 8, 64, 95
7, 81600, Note_off_c, 8, 64, 80
7, 81600, Note_on_c, 8, 62, 95
7, 82080, Note_off_c, 8, 62, 80
7, 82080, Note_on_c, 8, 59, 95
7, 82320, Note_off_c, 8, 59, 80
7, 82320, Note_on_c, 8, 59, 95
7, 82560, Note_off_c, 8, 59, 80
7, 82560, Note_on_c, 8, 67, 95
7, 83040, Note_off_c, 8, 67, 80
7, 83040, Note_on_c, 8, 66, 95
7, 83520, Note_off_c, 8, 66, 80
7, 83520, Note_on_c, 8, 62, 95
7, 83760, Note_off_c, 8, 62, 80
7, 83760, Note_on_c, 8, 59, 95
7, 84480, Note_off_c, 8, 59, 80
7, 84720, Note_on_c, 8, 54, 95
7, 84960, Note_off_c, 8, 54, 80
7, 84960, Note_on_c, 8, 54, 95
7, 85200, Note_off_c, 8, 54, 80
7, 85200, Note_on_c, 8, 54, 95
7, 85440, Note_off_c, 8, 54, 80
7, 85440, Note_on_c, 8, 55, 95
7, 85920, Note_off_c, 8, 55, 80
7, 85920, Note_on_c, 8, 54, 95
7, 86400, Note_off_c, 8, 54, 80
7, 86400, Note_on_c, 8, 52, 95
7, 86640, Note_off_c, 8, 52, 80
7, 86640, Note_on_c, 8, 50, 95
7, 86880, Note_off_c, 8, 50, 80
7, 86880, Note_on_c, 8, 66, 95
7, 87360, Note_off_c, 8, 66, 80
7, 87360, Note_on_c, 8, 64, 95
7, 87600, Note_off_c, 8, 64, 80
7, 87600, Note_on_c, 8, 62, 95
7, 87840, Note_off_c, 8, 62, 80
7, 87840, Note_on_c, 8, 66, 95
7, 88320, Note_off_c, 8, 66, 80
7, 88320, Note_on_c, 8, 64, 95
7, 88560, Note_off_c, 8, 64, 80
7, 88560, Note_on_c, 8, 57, 95
7, 88800, Note_off_c, 8, 57, 80
7, 88800, Note_on_c, 8, 64, 95
7, 89040, Note_off_c, 8, 64, 80
7, 89040, Note_on_c, 8, 64, 95
7, 89280, Note_off_c, 8, 64, 80
7, 89280, Note_on_c, 8, 66, 95
7, 89760, Note_off_c, 8, 66, 80
7, 89760, Note_on_c, 8, 62, 95
7, 90240, Note_off_c, 8, 62, 80
7, 90720, Note_on_c, 8, 64, 95
7, 92160, Note_off_c, 8, 64, 80
7, 92880, Note_on_c, 8, 62, 95
7, 93360, Note_off_c, 8, 62, 80
7, 93360, Note_on_c, 8, 59, 95
7, 93840, Note_off_c, 8, 59, 80
7, 93840, Note_on_c, 8, 59, 95
7, 94080, Note_off_c, 8, 59, 80
7, 94080, Note_on_c, 8, 59, 95
7, 94320, Note_off_c, 8, 59, 80
7, 94320, Note_on_c, 8, 57, 95
7, 94800, Note_off_c, 8, 57, 80
7, 96720, Note_on_c, 8, 62, 95
7, 97200, Note_off_c, 8, 62, 80
7, 97200, Note_on_c, 8, 59, 95
7, 97680, Note_off_c, 8, 59, 80
7, 97680, Note_on_c, 8, 59, 95
7, 97920, Note_off_c, 8, 59, 80
7, 97920, Note_on_c, 8, 59, 95
7, 98160, Note_off_c, 8, 59, 80
7, 98160, Note_on_c, 8, 57, 95
7, 98640, Note_off_c, 8, 57, 80
7, 100560, Note_on_c, 8, 67, 95
7, 101040, Note_off_c, 8, 67, 80
7, 101040, Note_on_c, 8, 64, 95
7, 101520, Note_off_c, 8, 64, 80
7, 101520, Note_on_c, 8, 64, 95
7, 101760, Note_off_c, 8, 64, 80
7, 101760, Note_on_c, 8, 64, 95
7, 103440, Note_off_c, 8, 64, 80
7, 103440, Note_on_c, 8, 66, 95
7, 103680, Note_off_c, 8, 66, 80
7, 103680, Note_on_c, 8, 67, 95
7, 104400, Note_off_c, 8, 67, 80
7, 104400, Note_on_c, 8, 62, 95
7, 104880, Note_off_c, 8, 62, 80
7, 104880, Note_on_c, 8, 59, 95
7, 105360, Note_off_c, 8, 59, 80
7, 105360, Note_on_c, 8, 59, 95
7, 105600, Note_off_c, 8, 59, 80
7, 105600, Note_on_c, 8, 59, 95
7, 105840, Note_off_c, 8, 59, 80
7, 105840, Note_on_c, 8, 57, 95
7, 106320, Note_off_c, 8, 57, 80
7, 114480, Note_on_c, 8, 62, 95
7, 114960, Note_off_c, 8, 62, 80
7, 114960, Note_on_c, 8, 69, 95
7, 115200, Note_off_c, 8, 69, 80
7, 115200, Note_on_c, 8, 64, 95
7, 116400, Note_off_c, 8, 64, 80
7, 116400, Note_on_c, 8, 62, 95
7, 116880, Note_off_c, 8, 62, 80
7, 116880, Note_on_c, 8, 62, 95
7, 117120, Note_off_c, 8, 62, 80
7, 117120, Note_on_c, 8, 62, 95
7, 118320, Note_off_c, 8, 62, 80
7, 118320, Note_on_c, 8, 62, 95
7, 118800, Note_off_c, 8, 62, 80
7, 118800, Note_on_c, 8, 69, 95
7, 119040, Note_off_c, 8, 69, 80
7, 119040, Note_on_c, 8, 64, 95
7, 120480, Note_off_c, 8, 64, 80
7, 120480, Note_on_c, 8, 57, 95
7, 120960, Note_off_c, 8, 57, 80
7, 120960, Note_on_c, 8, 69, 95
7, 128160, Note_off_c, 8, 69, 80
7, 128160, Note_on_c, 8, 57, 95
7, 128640, Note_off_c, 8, 57, 80
7, 128640, Note_on_c, 8, 69, 95
7, 136320, Note_off_c, 8, 69, 80
7, 136560, Note_on_c, 8, 54, 95
7, 136800, Note_off_c, 8, 54, 80
7, 136800, Note_on_c, 8, 54, 95
7, 137040, Note_off_c, 8, 54, 80
7, 137040, Note_on_c, 8, 54, 95
7, 137280, Note_off_c, 8, 54, 80
7, 137280, Note_on_c, 8, 55, 95
7, 137760, Note_off_c, 8, 55, 80
7, 137760, Note_on_c, 8, 54, 95
7, 138240, Note_off_c, 8, 54, 80
7, 138240, Note_on_c, 8, 52, 95
7, 138480, Note_off_c, 8, 52, 80
7, 138480, Note_on_c, 8, 50, 95
7, 138720, Note_off_c, 8, 50, 80
7, 138720, Note_on_c, 8, 66, 95
7, 139200, Note_off_c, 8, 66, 80
7, 139200, Note_on_c, 8, 64, 95
7, 139440, Note_off_c, 8, 64, 80
7, 139440, Note_on_c, 8, 62, 95
7, 139680, Note_off_c, 8, 62, 80
7, 139680, Note_on_c, 8, 66, 95
7, 140160, Note_off_c, 8, 66, 80
7, 140160, Note_on_c, 8, 64, 95
7, 140400, Note_off_c, 8, 64, 80
7, 140400, Note_on_c, 8, 57, 95
7, 140640, Note_off_c, 8, 57, 80
7, 140640, Note_on_c, 8, 64, 95
7, 140880, Note_off_c, 8, 64, 80
7, 140880, Note_on_c, 8, 64, 95
7, 141120, Note_off_c, 8, 64, 80
7, 141120, Note_on_c, 8, 66, 95
7, 141600, Note_off_c, 8, 66, 80
7, 141600, Note_on_c, 8, 62, 95
7, 142080, Note_off_c, 8, 62, 80
7, 142560, Note_on_c, 8, 64, 95
7, 144000, Note_off_c, 8, 64, 80
7, 146640, Note_on_c, 8, 62, 95
7, 147120, Note_off_c, 8, 62, 80
7, 147120, Note_on_c, 8, 59, 95
7, 147600, Note_off_c, 8, 59, 80
7, 147600, Note_on_c, 8, 59, 95
7, 147840, Note_off_c, 8, 59, 80
7, 147840, Note_on_c, 8, 59, 95
7, 148080, Note_off_c, 8, 59, 80
7, 148080, Note_on_c, 8, 57, 95
7, 148560, Note_off_c, 8, 57, 80
7, 150480, Note_on_c, 8, 62, 95
7, 150960, Note_off_c, 8, 62, 80
7, 150960, Note_on_c, 8, 59, 95
7, 151440, Note_off_c, 8, 59, 80
7, 151440, Note_on_c, 8, 59, 95
7, 151680, Note_off_c, 8, 59, 80
7, 151680, Note_on_c, 8, 59, 95
7, 151920, Note_off_c, 8, 59, 80
7, 151920, Note_on_c, 8, 57, 95
7, 152400, Note_off_c, 8, 57, 80
7, 154320, Note_on_c, 8, 67, 95
7, 154800, Note_off_c, 8, 67, 80
7, 154800, Note_on_c, 8, 64, 95
7, 155280, Note_off_c, 8, 64, 80
7, 155280, Note_on_c, 8, 64, 95
7, 155520, Note_off_c, 8, 64, 80
7, 155520, Note_on_c, 8, 64, 95
7, 157200, Note_off_c, 8, 64, 80
7, 157200, Note_on_c, 8, 66, 95
7, 157440, Note_off_c, 8, 66, 80
7, 157440, Note_on_c, 8, 67, 95
7, 158160, Note_off_c, 8, 67, 80
7, 158160, Note_on_c, 8, 62, 95
7, 158640, Note_off_c, 8, 62, 80
7, 158640, Note_on_c, 8, 59, 95
7, 159120, Note_off_c, 8, 59, 80
7, 159120, Note_on_c, 8, 59, 95
7, 159360, Note_off_c, 8, 59, 80
7, 159360, Note_on_c, 8, 59, 95
7, 159600, Note_off_c, 8, 59, 80
7, 159600, Note_on_c, 8, 57, 95
7, 160080, Note_off_c, 8, 57, 80
7, 162000, Note_on_c, 8, 62, 95
7, 162480, Note_off_c, 8, 62, 80
7, 162480, Note_on_c, 8, 59, 95
7, 162960, Note_off_c, 8, 59, 80
7, 162960, Note_on_c, 8, 59, 95
7, 163200, Note_off_c, 8, 59, 80
7, 163200, Note_on_c, 8, 59, 95
7, 163440, Note_off_c, 8, 59, 80
7, 163440, Note_on_c, 8, 57, 95
7, 163920, Note_off_c, 8, 57, 80
7, 165840, Note_on_c, 8, 62, 95
7, 166320, Note_off_c, 8, 62, 80
7, 166320, Note_on_c, 8, 59, 95
7, 166800, Note_off_c, 8, 59, 80
7, 166800, Note_on_c, 8, 59, 95
7, 167040, Note_off_c, 8, 59, 80
7, 167040, Note_on_c, 8, 59, 95
7, 167280, Note_off_c, 8, 59, 80
7, 167280, Note_on_c, 8, 57, 95
7, 167760, Note_off_c, 8, 57, 80
7, 169680, Note_on_c, 8, 67, 95
7, 170160, Note_off_c, 8, 67, 80
7, 170160, Note_on_c, 8, 64, 95
7, 170640, Note_off_c, 8, 64, 80
7, 170640, Note_on_c, 8, 64, 95
7, 170880, Note_off_c, 8, 64, 80
7, 170880, Note_on_c, 8, 64, 95
7, 172560, Note_off_c, 8, 64, 80
7, 172560, Note_on_c, 8, 66, 95
7, 172800, Note_off_c, 8, 66, 80
7, 172800, Note_on_c, 8, 67, 95
7, 173520, Note_off_c, 8, 67, 80
7, 173520, Note_on_c, 8, 67, 95
7, 174000, Note_off_c, 8, 67, 80
7, 174000, Note_on_c, 8, 64, 95
7, 174480, Note_off_c, 8, 64, 80
7, 174480, Note_on_c, 8, 64, 95
7, 174720, Note_off_c, 8, 64, 80
7, 174720, Note_on_c, 8, 64, 95
7, 176400, Note_off_c, 8, 64, 80
7, 176400, Note_on_c, 8, 66, 95
7, 176640, Note_off_c, 8, 66, 80
7, 176640, Note_on_c, 8, 67, 95
7, 177360, Note_off_c, 8, 67, 80
7, 177360, Note_on_c, 8, 62, 95
7, 177840, Note_off_c, 8, 62, 80
7, 177840, Note_on_c, 8, 59, 95
7, 178320, Note_off_c, 8, 59, 80
7, 178320, Note_on_c, 8, 59, 95
7, 178560, Note_off_c, 8, 59, 80
7, 178560, Note_on_c, 8, 59, 95
7, 178800, Note_off_c, 8, 59, 80
7, 178800, Note_on_c, 8, 57, 95
7, 179280, Note_off_c, 8, 57, 80
7, 181200, Note_on_c, 8, 62, 95
7, 181680, Note_off_c, 8, 62, 80
7, 181680, Note_on_c, 8, 59, 95
7, 182160, Note_off_c, 8, 59, 80
7, 182160, Note_on_c, 8, 59, 95
7, 182400, Note_off_c, 8, 59, 80
7, 182400, Note_on_c, 8, 59, 95
7, 182640, Note_off_c, 8, 59, 80
7, 182640, Note_on_c, 8, 57, 95
7, 183120, Note_off_c, 8, 57, 80
7, 185040, Note_on_c, 8, 67, 95
7, 185520, Note_off_c, 8, 67, 80
7, 185520, Note_on_c, 8, 64, 95
7, 186000, Note_off_c, 8, 64, 80
7, 186000, Note_on_c, 8, 64, 95
7, 186240, Note_off_c, 8, 64, 80
7, 186240, Note_on_c, 8, 64, 95
7, 187920, Note_off_c, 8, 64, 80
7, 187920, Note_on_c, 8, 66, 95
7, 188160, Note_off_c, 8, 66, 80
7, 188160, Note_on_c, 8, 67, 95
7, 188880, Note_off_c, 8, 67, 80
7, 188880, Note_on_c, 8, 67, 95
7, 189360, Note_off_c, 8, 67, 80
7, 189360, Note_on_c, 8, 64, 95
7, 189840, Note_off_c, 8, 64, 80
7, 189840, Note_on_c, 8, 64, 95
7, 190080, Note_off_c, 8, 64, 80
7, 190080, Note_on_c, 8, 64, 95
7, 191760, Note_off_c, 8, 64, 80
7, 191760, Note_on_c, 8, 66, 95
7, 192000, Note_off_c, 8, 66, 80
7, 192000, Note_on_c, 8, 67, 95
7, 192720, Note_off_c, 8, 67, 80
7, 192720, Note_on_c, 8, 62, 95
7, 193200, Note_off_c, 8, 62, 80
7, 193200, Note_on_c, 8, 62, 95
7, 193680, Note_off_c, 8, 62, 80
7, 193680, Note_on_c, 8, 64, 95
7, 193920, Note_off_c, 8, 64, 80
7, 193920, Control_c, 8, 7, 102
7, 193920, Control_c, 10, 7, 102
7, 193920, Note_on_c, 8, 62, 95
7, 194040, Control_c, 8, 7, 100
7, 194040, Control_c, 10, 7, 100
7, 194160, Control_c, 8, 7, 98
7, 194160, Control_c, 10, 7, 98
7, 194160, Note_off_c, 8, 62, 80
7, 194280, Control_c, 8, 7, 96
7, 194280, Control_c, 10, 7, 96
7, 194400, Control_c, 8, 7, 93
7, 194400, Control_c, 10, 7, 93
7, 194520, Control_c, 8, 7, 91
7, 194520, Control_c, 10, 7, 91
7, 194640, Control_c, 8, 7, 89
7, 194640, Control_c, 10, 7, 89
7, 194760, Control_c, 8, 7, 87
7, 194760, Control_c, 10, 7, 87
7, 194880, Control_c, 8, 7, 85
7, 194880, Control_c, 10, 7, 85
7, 195000, Control_c, 8, 7, 83
7, 195000, Control_c, 10, 7, 83
7, 195120, Control_c, 8, 7, 81
7, 195120, Control_c, 10, 7, 81
7, 195240, Control_c, 8, 7, 79
7, 195240, Control_c, 10, 7, 79
7, 195360, Control_c, 8, 7, 76
7, 195360, Control_c, 10, 7, 76
7, 195480, Control_c, 8, 7, 74
7, 195480, Control_c, 10, 7, 74
7, 195600, Control_c, 8, 7, 72
7, 195600, Control_c, 10, 7, 72
7, 195720, Control_c, 8, 7, 70
7, 195720, Control_c, 10, 7, 70
7, 195840, Control_c, 8, 7, 68
7, 195840, Control_c, 10, 7, 68
7, 195960, Control_c, 8, 7, 66
7, 195960, Control_c, 10, 7, 66
7, 196080, Control_c, 8, 7, 64
7, 196080, Control_c, 10, 7, 64
7, 196200, Control_c, 8, 7, 62
7, 196200, Control_c, 10, 7, 62
7, 196320, Control_c, 8, 7, 59
7, 196320, Control_c, 10, 7, 59
7, 196440, Control_c, 8, 7, 57
7, 196440, Control_c, 10, 7, 57
7, 196560, Control_c, 8, 7, 55
7, 196560, Control_c, 10, 7, 55
7, 196680, Control_c, 8, 7, 53
7, 196680, Control_c, 10, 7, 53
7, 196800, Control_c, 8, 7, 51
7, 196800, Control_c, 10, 7, 51
7, 196920, Control_c, 8, 7, 49
7, 196920, Control_c, 10, 7, 49
7, 197040, Control_c, 8, 7, 47
7, 197040, Control_c, 10, 7, 47
7, 197160, Control_c, 8, 7, 45
7, 197160, Control_c, 10, 7, 45
7, 197280, Control_c, 8, 7, 42
7, 197280, Control_c, 10, 7, 42
7, 197400, Control_c, 8, 7, 40
7, 197400, Control_c, 10, 7, 40
7, 197520, Control_c, 8, 7, 38
7, 197520, Control_c, 10, 7, 38
7, 197640, Control_c, 8, 7, 36
7, 197640, Control_c, 10, 7, 36
7, 197760, Control_c, 8, 7, 34
7, 197760, Control_c, 10, 7, 34
7, 197880, Control_c, 8, 7, 32
7, 197880, Control_c, 10, 7, 32
7, 198000, Control_c, 8, 7, 30
7, 198000, Control_c, 10, 7, 30
7, 198120, Control_c, 8, 7, 28
7, 198120, Control_c, 10, 7, 28
7, 198240, Control_c, 8, 7, 25
7, 198240, Control_c, 10, 7, 25
7, 198360, Control_c, 8, 7, 23
7, 198360, Control_c, 10, 7, 23
7, 198480, Control_c, 8, 7, 21
7, 198480, Control_c, 10, 7, 21
7, 198600, Control_c, 8, 7, 19
7, 198600, Control_c, 10, 7, 19
7, 198720, Control_c, 8, 7, 17
7, 198720, Control_c, 10, 7, 17
7, 198840, Control_c, 8, 7, 15
7, 198840, Control_c, 10, 7, 15
7, 198960, Control_c, 8, 7, 13
7, 198960, Control_c, 10, 7, 13
7, 199080, Control_c, 8, 7, 11
7, 199080, Control_c, 10, 7, 11
7, 199200, Control_c, 8, 7, 8
7, 199200, Control_c, 10, 7, 8
7, 199320, Control_c, 8, 7, 6
7, 199320, Control_c, 10, 7, 6
7, 199440, Control_c, 8, 7, 4
7, 199440, Control_c, 10, 7, 4
7, 199560, Control_c, 8, 7, 2
7, 199560, Control_c, 10, 7, 2
7, 199680, Control_c, 8, 7, 0
7, 199680, Control_c, 10, 7, 0
7, 199680, End_track
8, 0, Start_track
8, 0, Title_t, "Choeur"
8, 0, Control_c, 12, 100, 0
8, 0, Control_c, 12, 101, 0
8, 0, Control_c, 12, 6, 12
8, 0, Pitch_bend_c, 12, 8192
8, 0, Control_c, 12, 101, 0
8, 0, Control_c, 12, 100, 1
8, 0, Control_c, 12, 6, 64
8, 0, Control_c, 12, 38, 0
8, 0, Control_c, 12, 101, 127
8, 0, Control_c, 12, 100, 127
8, 0, Control_c, 11, 100, 0
8, 0, Control_c, 11, 101, 0
8, 0, Control_c, 11, 6, 12
8, 0, Pitch_bend_c, 11, 8192
8, 0, Control_c, 11, 101, 0
8, 0, Control_c, 11, 100, 1
8, 0, Control_c, 11, 6, 64
8, 0, Control_c, 11, 38, 0
8, 0, Control_c, 11, 101, 127
8, 0, Control_c, 11, 100, 127
8, 0, Control_c, 12, 101, 0
8, 0, Control_c, 12, 100, 2
8, 0, Control_c, 12, 6, 64
8, 0, Control_c, 12, 101, 127
8, 0, Control_c, 12, 100, 127
8, 0, Control_c, 11, 101, 0
8, 0, Control_c, 11, 100, 2
8, 0, Control_c, 11, 6, 64
8, 0, Control_c, 11, 101, 127
8, 0, Control_c, 11, 100, 127
8, 0, Program_c, 12, 52
8, 0, Program_c, 11, 52
8, 0, Control_c, 12, 0, 0
8, 0, Control_c, 11, 0, 0
8, 0, Control_c, 12, 7, 104
8, 0, Control_c, 11, 7, 104
8, 0, Control_c, 12, 10, 64
8, 0, Control_c, 11, 10, 64
8, 0, Control_c, 12, 93, 0
8, 0, Control_c, 11, 93, 0
8, 0, Control_c, 12, 91, 0
8, 0, Control_c, 11, 91, 0
8, 0, Control_c, 12, 92, 0
8, 0, Control_c, 11, 92, 0
8, 0, Control_c, 12, 95, 0
8, 0, Control_c, 11, 95, 0
8, 120480, Note_on_c, 11, 57, 95
8, 120960, Note_off_c, 11, 57, 80
8, 120960, Note_on_c, 11, 69, 95
8, 128160, Note_off_c, 11, 69, 80
8, 128160, Note_on_c, 11, 57, 95
8, 128640, Note_off_c, 11, 57, 80
8, 128640, Note_on_c, 11, 69, 95
8, 136320, Note_off_c, 11, 69, 80
8, 193920, Control_c, 11, 7, 102
8, 193920, Control_c, 12, 7, 102
8, 194040, Control_c, 11, 7, 100
8, 194040, Control_c, 12, 7, 100
8, 194160, Control_c, 11, 7, 98
8, 194160, Control_c, 12, 7, 98
8, 194280, Control_c, 11, 7, 96
8, 194280, Control_c, 12, 7, 96
8, 194400, Control_c, 11, 7, 93
8, 194400, Control_c, 12, 7, 93
8, 194520, Control_c, 11, 7, 91
8, 194520, Control_c, 12, 7, 91
8, 194640, Control_c, 11, 7, 89
8, 194640, Control_c, 12, 7, 89
8, 194760, Control_c, 11, 7, 87
8, 194760, Control_c, 12, 7, 87
8, 194880, Control_c, 11, 7, 85
8, 194880, Control_c, 12, 7, 85
8, 195000, Control_c, 11, 7, 83
8, 195000, Control_c, 12, 7, 83
8, 195120, Control_c, 11, 7, 81
8, 195120, Control_c, 12, 7, 81
8, 195240, Control_c, 11, 7, 79
8, 195240, Control_c, 12, 7, 79
8, 195360, Control_c, 11, 7, 76
8, 195360, Control_c, 12, 7, 76
8, 195480, Control_c, 11, 7, 74
8, 195480, Control_c, 12, 7, 74
8, 195600, Control_c, 11, 7, 72
8, 195600, Control_c, 12, 7, 72
8, 195720, Control_c, 11, 7, 70
8, 195720, Control_c, 12, 7, 70
8, 195840, Control_c, 11, 7, 68
8, 195840, Control_c, 12, 7, 68
8, 195960, Control_c, 11, 7, 66
8, 195960, Control_c, 12, 7, 66
8, 196080, Control_c, 11, 7, 64
8, 196080, Control_c, 12, 7, 64
8, 196200, Control_c, 11, 7, 62
8, 196200, Control_c, 12, 7, 62
8, 196320, Control_c, 11, 7, 59
8, 196320, Control_c, 12, 7, 59
8, 196440, Control_c, 11, 7, 57
8, 196440, Control_c, 12, 7, 57
8, 196560, Control_c, 11, 7, 55
8, 196560, Control_c, 12, 7, 55
8, 196680, Control_c, 11, 7, 53
8, 196680, Control_c, 12, 7, 53
8, 196800, Control_c, 11, 7, 51
8, 196800, Control_c, 12, 7, 51
8, 196920, Control_c, 11, 7, 49
8, 196920, Control_c, 12, 7, 49
8, 197040, Control_c, 11, 7, 47
8, 197040, Control_c, 12, 7, 47
8, 197160, Control_c, 11, 7, 45
8, 197160, Control_c, 12, 7, 45
8, 197280, Control_c, 11, 7, 42
8, 197280, Control_c, 12, 7, 42
8, 197400, Control_c, 11, 7, 40
8, 197400, Control_c, 12, 7, 40
8, 197520, Control_c, 11, 7, 38
8, 197520, Control_c, 12, 7, 38
8, 197640, Control_c, 11, 7, 36
8, 197640, Control_c, 12, 7, 36
8, 197760, Control_c, 11, 7, 34
8, 197760, Control_c, 12, 7, 34
8, 197880, Control_c, 11, 7, 32
8, 197880, Control_c, 12, 7, 32
8, 198000, Control_c, 11, 7, 30
8, 198000, Control_c, 12, 7, 30
8, 198120, Control_c, 11, 7, 28
8, 198120, Control_c, 12, 7, 28
8, 198240, Control_c, 11, 7, 25
8, 198240, Control_c, 12, 7, 25
8, 198360, Control_c, 11, 7, 23
8, 198360, Control_c, 12, 7, 23
8, 198480, Control_c, 11, 7, 21
8, 198480, Control_c, 12, 7, 21
8, 198600, Control_c, 11, 7, 19
8, 198600, Control_c, 12, 7, 19
8, 198720, Control_c, 11, 7, 17
8, 198720, Control_c, 12, 7, 17
8, 198840, Control_c, 11, 7, 15
8, 198840, Control_c, 12, 7, 15
8, 198960, Control_c, 11, 7, 13
8, 198960, Control_c, 12, 7, 13
8, 199080, Control_c, 11, 7, 11
8, 199080, Control_c, 12, 7, 11
8, 199200, Control_c, 11, 7, 8
8, 199200, Control_c, 12, 7, 8
8, 199320, Control_c, 11, 7, 6
8, 199320, Control_c, 12, 7, 6
8, 199440, Control_c, 11, 7, 4
8, 199440, Control_c, 12, 7, 4
8, 199560, Control_c, 11, 7, 2
8, 199560, Control_c, 12, 7, 2
8, 199680, Control_c, 11, 7, 0
8, 199680, Control_c, 12, 7, 0
8, 199680, End_track
0, 0, End_of_file
