0, 0, Header, 1, 6, 480
1, 0, Start_track
1, 0, Title_t, "Hey"
1, 0, Time_signature, 4, 2, 24, 8
1, 0, Key_signature, 0, "major"
1, 0, Tempo, 600000
1, 30720, Time_signature, 1, 2, 24, 8
1, 31200, Time_signature, 4, 2, 24, 8
1, 60000, Time_signature, 3, 2, 24, 8
1, 61440, Time_signature, 4, 2, 24, 8
1, 82560, Time_signature, 1, 2, 24, 8
1, 83040, Time_signature, 3, 2, 24, 8
1, 84480, Time_signature, 4, 2, 24, 8
1, 128640, Time_signature, 1, 2, 24, 8
1, 129120, Time_signature, 4, 2, 24, 8
1, 129120, End_track
2, 0, Start_track
2, 0, Program_c, 0, 33
2, 0, Control_c, 0, 7, 104
2, 0, Control_c, 0, 10, 64
2, 0, Control_c, 0, 101, 0
2, 1, Control_c, 0, 100, 0
2, 2, Control_c, 0, 6, 12
2, 3, Control_c, 0, 38, 0
2, 3, Pitch_bend_c, 0, 8192
2, 3, Control_c, 0, 101, 0
2, 4, Control_c, 0, 100, 0
2, 5, Control_c, 0, 6, 12
2, 6, Control_c, 0, 38, 0
2, 6, Pitch_bend_c, 0, 8192
2, 6, Program_c, 0, 33
2, 6, Control_c, 0, 7, 104
2, 6, Control_c, 0, 10, 64
2, 6, Control_c, 0, 93, 0
2, 6, Control_c, 0, 93, 0
2, 6, Control_c, 0, 91, 0
2, 6, Control_c, 0, 91, 0
2, 6, Control_c, 0, 92, 0
2, 6, Control_c, 0, 92, 0
2, 6, Control_c, 0, 95, 0
2, 6, Control_c, 0, 95, 0
2, 1920, Note_on_c, 0, 42, 95
2, 3840, Note_on_c, 0, 42, 0
2, 3840, Note_on_c, 0, 45, 95
2, 4080, Note_on_c, 0, 45, 0
2, 4080, Note_on_c, 0, 46, 95
2, 4320, Note_on_c, 0, 46, 0
2, 4320, Note_on_c, 0, 47, 95
2, 4800, Note_on_c, 0, 47, 0
2, 5040, Note_on_c, 0, 47, 95
2, 5520, Note_on_c, 0, 47, 0
2, 5520, Note_on_c, 0, 47, 95
2, 5760, Note_on_c, 0, 47, 0
2, 5760, Note_on_c, 0, 48, 95
2, 6000, Note_on_c, 0, 48, 0
2, 6000, Note_on_c, 0, 49, 95
2, 6240, Note_on_c, 0, 49, 0
2, 6240, Note_on_c, 0, 50, 95
2, 6720, Note_on_c, 0, 50, 0
2, 6960, Note_on_c, 0, 50, 95
2, 7440, Note_on_c, 0, 50, 0
2, 7440, Note_on_c, 0, 50, 95
2, 7680, Note_on_c, 0, 50, 0
2, 7680, Note_on_c, 0, 40, 95
2, 7920, Note_on_c, 0, 40, 0
2, 7920, Note_on_c, 0, 42, 95
2, 8160, Note_on_c, 0, 42, 0
2, 8160, Note_on_c, 0, 43, 95
2, 8640, Note_on_c, 0, 43, 0
2, 8880, Note_on_c, 0, 43, 95
2, 9360, Note_on_c, 0, 43, 0
2, 9360, Note_on_c, 0, 43, 95
2, 9600, Note_on_c, 0, 43, 0
2, 9600, Note_on_c, 0, 40, 95
2, 9840, Note_on_c, 0, 40, 0
2, 9840, Note_on_c, 0, 41, 95
2, 10080, Note_on_c, 0, 41, 0
2, 10080, Note_on_c, 0, 42, 95
2, 10560, Note_on_c, 0, 42, 0
2, 10800, Note_on_c, 0, 42, 95
2, 11280, Note_on_c, 0, 42, 0
2, 11280, Note_on_c, 0, 42, 95
2, 11520, Note_on_c, 0, 42, 0
2, 11520, Note_on_c, 0, 45, 95
2, 11760, Note_on_c, 0, 45, 0
2, 11760, Note_on_c, 0, 46, 95
2, 12000, Note_on_c, 0, 46, 0
2, 12000, Note_on_c, 0, 47, 95
2, 12480, Note_on_c, 0, 47, 0
2, 12720, Note_on_c, 0, 47, 95
2, 13200, Note_on_c, 0, 47, 0
2, 13200, Note_on_c, 0, 47, 95
2, 13440, Note_on_c, 0, 47, 0
2, 13440, Note_on_c, 0, 48, 95
2, 13680, Note_on_c, 0, 48, 0
2, 13680, Note_on_c, 0, 49, 95
2, 13920, Note_on_c, 0, 49, 0
2, 13920, Note_on_c, 0, 50, 95
2, 14400, Note_on_c, 0, 50, 0
2, 14640, Note_on_c, 0, 50, 95
2, 15120, Note_on_c, 0, 50, 0
2, 15120, Note_on_c, 0, 50, 95
2, 15360, Note_on_c, 0, 50, 0
2, 15360, Note_on_c, 0, 40, 95
2, 15600, Note_on_c, 0, 40, 0
2, 15600, Note_on_c, 0, 42, 95
2, 15840, Note_on_c, 0, 42, 0
2, 15840, Note_on_c, 0, 43, 95
2, 16320, Note_on_c, 0, 43, 0
2, 16560, Note_on_c, 0, 43, 95
2, 17040, Note_on_c, 0, 43, 0
2, 17040, Note_on_c, 0, 43, 95
2, 17280, Note_on_c, 0, 43, 0
2, 17280, Note_on_c, 0, 40, 95
2, 17520, Note_on_c, 0, 40, 0
2, 17520, Note_on_c, 0, 41, 95
2, 17760, Note_on_c, 0, 41, 0
2, 17760, Note_on_c, 0, 42, 95
2, 18240, Note_on_c, 0, 42, 0
2, 18480, Note_on_c, 0, 42, 95
2, 18960, Note_on_c, 0, 42, 0
2, 18960, Note_on_c, 0, 42, 95
2, 19200, Note_on_c, 0, 42, 0
2, 19200, Note_on_c, 0, 45, 95
2, 19440, Note_on_c, 0, 45, 0
2, 19440, Note_on_c, 0, 46, 95
2, 19680, Note_on_c, 0, 46, 0
2, 19680, Note_on_c, 0, 47, 95
2, 20160, Note_on_c, 0, 47, 0
2, 20400, Note_on_c, 0, 47, 95
2, 20880, Note_on_c, 0, 47, 0
2, 20880, Note_on_c, 0, 47, 95
2, 21120, Note_on_c, 0, 47, 0
2, 21120, Note_on_c, 0, 48, 95
2, 21360, Note_on_c, 0, 48, 0
2, 21360, Note_on_c, 0, 49, 95
2, 21600, Note_on_c, 0, 49, 0
2, 21600, Note_on_c, 0, 50, 95
2, 22080, Note_on_c, 0, 50, 0
2, 22320, Note_on_c, 0, 50, 95
2, 22800, Note_on_c, 0, 50, 0
2, 22800, Note_on_c, 0, 50, 95
2, 23040, Note_on_c, 0, 50, 0
2, 23040, Note_on_c, 0, 40, 95
2, 23280, Note_on_c, 0, 40, 0
2, 23280, Note_on_c, 0, 42, 95
2, 23520, Note_on_c, 0, 42, 0
2, 23520, Note_on_c, 0, 43, 95
2, 24000, Note_on_c, 0, 43, 0
2, 24240, Note_on_c, 0, 43, 95
2, 24720, Note_on_c, 0, 43, 0
2, 24720, Note_on_c, 0, 43, 95
2, 24960, Note_on_c, 0, 43, 0
2, 24960, Note_on_c, 0, 40, 95
2, 25200, Note_on_c, 0, 40, 0
2, 25200, Note_on_c, 0, 41, 95
2, 25440, Note_on_c, 0, 41, 0
2, 25440, Note_on_c, 0, 42, 95
2, 25920, Note_on_c, 0, 42, 0
2, 26160, Note_on_c, 0, 42, 95
2, 26640, Note_on_c, 0, 42, 0
2, 26640, Note_on_c, 0, 42, 95
2, 26880, Note_on_c, 0, 42, 0
2, 26880, Note_on_c, 0, 45, 95
2, 27120, Note_on_c, 0, 45, 0
2, 27120, Note_on_c, 0, 46, 95
2, 27360, Note_on_c, 0, 46, 0
2, 27360, Note_on_c, 0, 47, 95
2, 27840, Note_on_c, 0, 47, 0
2, 28080, Note_on_c, 0, 47, 95
2, 28560, Note_on_c, 0, 47, 0
2, 28560, Note_on_c, 0, 47, 95
2, 28800, Note_on_c, 0, 47, 0
2, 28800, Note_on_c, 0, 48, 95
2, 29040, Note_on_c, 0, 48, 0
2, 29040, Note_on_c, 0, 49, 95
2, 29280, Note_on_c, 0, 49, 0
2, 29280, Note_on_c, 0, 50, 95
2, 29760, Note_on_c, 0, 50, 0
2, 30000, Note_on_c, 0, 50, 95
2, 30480, Note_on_c, 0, 50, 0
2, 30480, Note_on_c, 0, 50, 95
2, 30720, Note_on_c, 0, 50, 0
2, 30720, Note_on_c, 0, 40, 95
2, 30960, Note_on_c, 0, 40, 0
2, 30960, Note_on_c, 0, 42, 95
2, 31200, Note_on_c, 0, 42, 0
2, 31200, Note_on_c, 0, 43, 95
2, 31440, Note_on_c, 0, 43, 0
2, 31440, Note_on_c, 0, 43, 95
2, 31680, Note_on_c, 0, 43, 0
2, 31680, Note_on_c, 0, 43, 95
2, 31920, Note_on_c, 0, 43, 0
2, 31920, Note_on_c, 0, 43, 95
2, 32160, Note_on_c, 0, 43, 0
2, 32160, Note_on_c, 0, 43, 95
2, 32400, Note_on_c, 0, 43, 0
2, 32400, Note_on_c, 0, 43, 95
2, 32640, Note_on_c, 0, 43, 0
2, 32640, Note_on_c, 0, 43, 95
2, 32880, Note_on_c, 0, 43, 0
2, 32880, Note_on_c, 0, 43, 95
2, 33120, Note_on_c, 0, 43, 0
2, 33120, Note_on_c, 0, 40, 95
2, 33360, Note_on_c, 0, 40, 0
2, 33360, Note_on_c, 0, 40, 95
2, 33600, Note_on_c, 0, 40, 0
2, 33600, Note_on_c, 0, 40, 95
2, 33840, Note_on_c, 0, 40, 0
2, 33840, Note_on_c, 0, 40, 95
2, 34080, Note_on_c, 0, 40, 0
2, 34080, Note_on_c, 0, 40, 95
2, 34320, Note_on_c, 0, 40, 0
2, 34320, Note_on_c, 0, 40, 95
2, 34560, Note_on_c, 0, 40, 0
2, 34560, Note_on_c, 0, 40, 95
2, 34800, Note_on_c, 0, 40, 0
2, 34800, Note_on_c, 0, 40, 95
2, 35040, Note_on_c, 0, 40, 0
2, 35040, Note_on_c, 0, 47, 95
2, 35280, Note_on_c, 0, 47, 0
2, 35280, Note_on_c, 0, 47, 95
2, 35520, Note_on_c, 0, 47, 0
2, 35520, Note_on_c, 0, 47, 95
2, 35760, Note_on_c, 0, 47, 0
2, 35760, Note_on_c, 0, 47, 95
2, 36000, Note_on_c, 0, 47, 0
2, 36000, Note_on_c, 0, 47, 95
2, 36240, Note_on_c, 0, 47, 0
2, 36240, Note_on_c, 0, 47, 95
2, 36480, Note_on_c, 0, 47, 0
2, 36480, Note_on_c, 0, 47, 95
2, 36720, Note_on_c, 0, 47, 0
2, 36720, Note_on_c, 0, 47, 95
2, 36960, Note_on_c, 0, 47, 0
2, 36960, Note_on_c, 0, 43, 95
2, 37200, Note_on_c, 0, 43, 0
2, 37200, Note_on_c, 0, 43, 95
2, 37440, Note_on_c, 0, 43, 0
2, 37440, Note_on_c, 0, 43, 95
2, 37680, Note_on_c, 0, 43, 0
2, 37680, Note_on_c, 0, 43, 95
2, 37920, Note_on_c, 0, 43, 0
2, 37920, Note_on_c, 0, 43, 95
2, 38160, Note_on_c, 0, 43, 0
2, 38160, Note_on_c, 0, 43, 95
2, 38400, Note_on_c, 0, 43, 0
2, 38400, Note_on_c, 0, 43, 95
2, 38640, Note_on_c, 0, 43, 0
2, 38640, Note_on_c, 0, 43, 95
2, 38880, Note_on_c, 0, 43, 0
2, 38880, Note_on_c, 0, 40, 95
2, 39120, Note_on_c, 0, 40, 0
2, 39120, Note_on_c, 0, 40, 95
2, 39360, Note_on_c, 0, 40, 0
2, 39360, Note_on_c, 0, 40, 95
2, 39600, Note_on_c, 0, 40, 0
2, 39600, Note_on_c, 0, 40, 95
2, 39840, Note_on_c, 0, 40, 0
2, 39840, Note_on_c, 0, 40, 95
2, 40080, Note_on_c, 0, 40, 0
2, 40080, Note_on_c, 0, 40, 95
2, 40320, Note_on_c, 0, 40, 0
2, 40320, Note_on_c, 0, 40, 95
2, 40560, Note_on_c, 0, 40, 0
2, 40560, Note_on_c, 0, 40, 95
2, 40800, Note_on_c, 0, 40, 0
2, 40800, Note_on_c, 0, 47, 95
2, 41040, Note_on_c, 0, 47, 0
2, 41040, Note_on_c, 0, 47, 95
2, 41280, Note_on_c, 0, 47, 0
2, 41280, Note_on_c, 0, 47, 95
2, 41520, Note_on_c, 0, 47, 0
2, 41520, Note_on_c, 0, 47, 95
2, 41760, Note_on_c, 0, 47, 0
2, 41760, Note_on_c, 0, 47, 95
2, 42000, Note_on_c, 0, 47, 0
2, 42000, Note_on_c, 0, 47, 95
2, 42240, Note_on_c, 0, 47, 0
2, 42240, Note_on_c, 0, 47, 95
2, 42480, Note_on_c, 0, 47, 0
2, 42480, Note_on_c, 0, 47, 95
2, 42720, Note_on_c, 0, 47, 0
2, 42720, Note_on_c, 0, 43, 95
2, 42960, Note_on_c, 0, 43, 0
2, 42960, Note_on_c, 0, 43, 95
2, 43200, Note_on_c, 0, 43, 0
2, 43200, Note_on_c, 0, 43, 95
2, 43440, Note_on_c, 0, 43, 0
2, 43440, Note_on_c, 0, 43, 95
2, 43680, Note_on_c, 0, 43, 0
2, 43680, Note_on_c, 0, 43, 95
2, 43920, Note_on_c, 0, 43, 0
2, 43920, Note_on_c, 0, 43, 95
2, 44160, Note_on_c, 0, 43, 0
2, 44160, Note_on_c, 0, 43, 95
2, 44400, Note_on_c, 0, 43, 0
2, 44400, Note_on_c, 0, 43, 95
2, 44640, Note_on_c, 0, 43, 0
2, 44640, Note_on_c, 0, 40, 95
2, 44880, Note_on_c, 0, 40, 0
2, 44880, Note_on_c, 0, 40, 95
2, 45120, Note_on_c, 0, 40, 0
2, 45120, Note_on_c, 0, 40, 95
2, 45360, Note_on_c, 0, 40, 0
2, 45360, Note_on_c, 0, 40, 95
2, 45600, Note_on_c, 0, 40, 0
2, 45600, Note_on_c, 0, 40, 95
2, 45840, Note_on_c, 0, 40, 0
2, 45840, Note_on_c, 0, 40, 95
2, 46080, Note_on_c, 0, 40, 0
2, 46080, Note_on_c, 0, 40, 95
2, 46320, Note_on_c, 0, 40, 0
2, 46320, Note_on_c, 0, 40, 95
2, 46560, Note_on_c, 0, 40, 0
2, 46560, Note_on_c, 0, 47, 95
2, 46800, Note_on_c, 0, 47, 0
2, 46800, Note_on_c, 0, 47, 95
2, 47040, Note_on_c, 0, 47, 0
2, 47040, Note_on_c, 0, 47, 95
2, 47280, Note_on_c, 0, 47, 0
2, 47280, Note_on_c, 0, 47, 95
2, 47520, Note_on_c, 0, 47, 0
2, 47520, Note_on_c, 0, 47, 95
2, 47760, Note_on_c, 0, 47, 0
2, 47760, Note_on_c, 0, 47, 95
2, 48000, Note_on_c, 0, 47, 0
2, 48000, Note_on_c, 0, 47, 95
2, 48240, Note_on_c, 0, 47, 0
2, 48240, Note_on_c, 0, 47, 95
2, 48480, Note_on_c, 0, 47, 0
2, 48480, Note_on_c, 0, 43, 95
2, 48720, Note_on_c, 0, 43, 0
2, 48720, Note_on_c, 0, 43, 95
2, 48960, Note_on_c, 0, 43, 0
2, 48960, Note_on_c, 0, 43, 95
2, 49200, Note_on_c, 0, 43, 0
2, 49200, Note_on_c, 0, 43, 95
2, 49440, Note_on_c, 0, 43, 0
2, 49440, Note_on_c, 0, 43, 95
2, 49680, Note_on_c, 0, 43, 0
2, 49680, Note_on_c, 0, 43, 95
2, 49920, Note_on_c, 0, 43, 0
2, 49920, Note_on_c, 0, 43, 95
2, 50160, Note_on_c, 0, 43, 0
2, 50160, Note_on_c, 0, 43, 95
2, 50400, Note_on_c, 0, 43, 0
2, 50400, Note_on_c, 0, 40, 95
2, 50640, Note_on_c, 0, 40, 0
2, 50640, Note_on_c, 0, 40, 95
2, 50880, Note_on_c, 0, 40, 0
2, 50880, Note_on_c, 0, 40, 95
2, 51120, Note_on_c, 0, 40, 0
2, 51120, Note_on_c, 0, 40, 95
2, 51360, Note_on_c, 0, 40, 0
2, 51360, Note_on_c, 0, 40, 95
2, 51600, Note_on_c, 0, 40, 0
2, 51600, Note_on_c, 0, 40, 95
2, 51840, Note_on_c, 0, 40, 0
2, 51840, Note_on_c, 0, 40, 95
2, 52080, Note_on_c, 0, 40, 0
2, 52080, Note_on_c, 0, 40, 95
2, 52320, Note_on_c, 0, 40, 0
2, 52320, Note_on_c, 0, 47, 95
2, 52560, Note_on_c, 0, 47, 0
2, 52560, Note_on_c, 0, 47, 95
2, 52800, Note_on_c, 0, 47, 0
2, 52800, Note_on_c, 0, 47, 95
2, 53040, Note_on_c, 0, 47, 0
2, 53040, Note_on_c, 0, 47, 95
2, 53280, Note_on_c, 0, 47, 0
2, 53280, Note_on_c, 0, 47, 95
2, 53520, Note_on_c, 0, 47, 0
2, 53520, Note_on_c, 0, 47, 95
2, 53760, Note_on_c, 0, 47, 0
2, 53760, Note_on_c, 0, 47, 95
2, 54000, Note_on_c, 0, 47, 0
2, 54000, Note_on_c, 0, 47, 95
2, 54240, Note_on_c, 0, 47, 0
2, 54240, Note_on_c, 0, 43, 95
2, 54480, Note_on_c, 0, 43, 0
2, 54480, Note_on_c, 0, 43, 95
2, 54720, Note_on_c, 0, 43, 0
2, 54720, Note_on_c, 0, 43, 95
2, 54960, Note_on_c, 0, 43, 0
2, 54960, Note_on_c, 0, 43, 95
2, 55200, Note_on_c, 0, 43, 0
2, 55200, Note_on_c, 0, 43, 95
2, 55440, Note_on_c, 0, 43, 0
2, 55440, Note_on_c, 0, 43, 95
2, 55680, Note_on_c, 0, 43, 0
2, 55680, Note_on_c, 0, 43, 95
2, 55920, Note_on_c, 0, 43, 0
2, 55920, Note_on_c, 0, 43, 95
2, 56160, Note_on_c, 0, 43, 0
2, 56160, Note_on_c, 0, 40, 95
2, 56400, Note_on_c, 0, 40, 0
2, 56400, Note_on_c, 0, 40, 95
2, 56640, Note_on_c, 0, 40, 0
2, 56640, Note_on_c, 0, 40, 95
2, 56880, Note_on_c, 0, 40, 0
2, 56880, Note_on_c, 0, 40, 95
2, 57120, Note_on_c, 0, 40, 0
2, 57120, Note_on_c, 0, 40, 95
2, 57360, Note_on_c, 0, 40, 0
2, 57360, Note_on_c, 0, 40, 95
2, 57600, Note_on_c, 0, 40, 0
2, 57600, Note_on_c, 0, 40, 95
2, 57840, Note_on_c, 0, 40, 0
2, 57840, Note_on_c, 0, 40, 95
2, 58080, Note_on_c, 0, 40, 0
2, 58080, Note_on_c, 0, 47, 95
2, 58320, Note_on_c, 0, 47, 0
2, 58320, Note_on_c, 0, 47, 95
2, 58560, Note_on_c, 0, 47, 0
2, 58560, Note_on_c, 0, 47, 95
2, 58800, Note_on_c, 0, 47, 0
2, 58800, Note_on_c, 0, 47, 95
2, 59040, Note_on_c, 0, 47, 0
2, 59040, Note_on_c, 0, 47, 95
2, 59280, Note_on_c, 0, 47, 0
2, 59280, Note_on_c, 0, 47, 95
2, 59520, Note_on_c, 0, 47, 0
2, 59520, Note_on_c, 0, 47, 95
2, 59760, Note_on_c, 0, 47, 0
2, 59760, Note_on_c, 0, 47, 95
2, 60000, Note_on_c, 0, 47, 0
2, 60000, Note_on_c, 0, 43, 95
2, 60480, Note_on_c, 0, 43, 0
2, 60720, Note_on_c, 0, 43, 95
2, 61200, Note_on_c, 0, 43, 0
2, 61200, Note_on_c, 0, 43, 95
2, 61440, Note_on_c, 0, 43, 0
2, 61440, Note_on_c, 0, 40, 95
2, 61680, Note_on_c, 0, 40, 0
2, 61680, Note_on_c, 0, 41, 95
2, 61920, Note_on_c, 0, 41, 0
2, 61920, Note_on_c, 0, 42, 95
2, 62400, Note_on_c, 0, 42, 0
2, 62640, Note_on_c, 0, 42, 95
2, 63120, Note_on_c, 0, 42, 0
2, 63120, Note_on_c, 0, 42, 95
2, 63360, Note_on_c, 0, 42, 0
2, 63360, Note_on_c, 0, 45, 95
2, 63600, Note_on_c, 0, 45, 0
2, 63600, Note_on_c, 0, 46, 95
2, 63840, Note_on_c, 0, 46, 0
2, 63840, Note_on_c, 0, 47, 95
2, 64320, Note_on_c, 0, 47, 0
2, 64560, Note_on_c, 0, 47, 95
2, 65040, Note_on_c, 0, 47, 0
2, 65040, Note_on_c, 0, 47, 95
2, 65280, Note_on_c, 0, 47, 0
2, 65280, Note_on_c, 0, 48, 95
2, 65520, Note_on_c, 0, 48, 0
2, 65520, Note_on_c, 0, 49, 95
2, 65760, Note_on_c, 0, 49, 0
2, 65760, Note_on_c, 0, 50, 95
2, 66240, Note_on_c, 0, 50, 0
2, 66480, Note_on_c, 0, 50, 95
2, 66960, Note_on_c, 0, 50, 0
2, 66960, Note_on_c, 0, 50, 95
2, 67200, Note_on_c, 0, 50, 0
2, 67200, Note_on_c, 0, 40, 95
2, 67440, Note_on_c, 0, 40, 0
2, 67440, Note_on_c, 0, 42, 95
2, 67680, Note_on_c, 0, 42, 0
2, 67680, Note_on_c, 0, 43, 95
2, 68160, Note_on_c, 0, 43, 0
2, 68400, Note_on_c, 0, 43, 95
2, 68880, Note_on_c, 0, 43, 0
2, 68880, Note_on_c, 0, 43, 95
2, 69120, Note_on_c, 0, 43, 0
2, 69120, Note_on_c, 0, 40, 95
2, 69360, Note_on_c, 0, 40, 0
2, 69360, Note_on_c, 0, 41, 95
2, 69600, Note_on_c, 0, 41, 0
2, 69600, Note_on_c, 0, 42, 95
2, 70080, Note_on_c, 0, 42, 0
2, 70320, Note_on_c, 0, 42, 95
2, 70800, Note_on_c, 0, 42, 0
2, 70800, Note_on_c, 0, 42, 95
2, 71040, Note_on_c, 0, 42, 0
2, 71040, Note_on_c, 0, 45, 95
2, 71280, Note_on_c, 0, 45, 0
2, 71280, Note_on_c, 0, 46, 95
2, 71520, Note_on_c, 0, 46, 0
2, 71520, Note_on_c, 0, 47, 95
2, 72000, Note_on_c, 0, 47, 0
2, 72240, Note_on_c, 0, 47, 95
2, 72720, Note_on_c, 0, 47, 0
2, 72720, Note_on_c, 0, 47, 95
2, 72960, Note_on_c, 0, 47, 0
2, 72960, Note_on_c, 0, 48, 95
2, 73200, Note_on_c, 0, 48, 0
2, 73200, Note_on_c, 0, 49, 95
2, 73440, Note_on_c, 0, 49, 0
2, 73440, Note_on_c, 0, 50, 95
2, 73920, Note_on_c, 0, 50, 0
2, 74160, Note_on_c, 0, 50, 95
2, 74640, Note_on_c, 0, 50, 0
2, 74640, Note_on_c, 0, 50, 95
2, 74880, Note_on_c, 0, 50, 0
2, 74880, Note_on_c, 0, 40, 95
2, 75120, Note_on_c, 0, 40, 0
2, 75120, Note_on_c, 0, 42, 95
2, 75360, Note_on_c, 0, 42, 0
2, 75360, Note_on_c, 0, 43, 95
2, 75840, Note_on_c, 0, 43, 0
2, 76080, Note_on_c, 0, 43, 95
2, 76560, Note_on_c, 0, 43, 0
2, 76560, Note_on_c, 0, 43, 95
2, 76800, Note_on_c, 0, 43, 0
2, 76800, Note_on_c, 0, 40, 95
2, 77040, Note_on_c, 0, 40, 0
2, 77040, Note_on_c, 0, 41, 95
2, 77280, Note_on_c, 0, 41, 0
2, 77280, Note_on_c, 0, 42, 95
2, 77760, Note_on_c, 0, 42, 0
2, 78000, Note_on_c, 0, 42, 95
2, 78480, Note_on_c, 0, 42, 0
2, 78480, Note_on_c, 0, 42, 95
2, 78720, Note_on_c, 0, 42, 0
2, 78720, Note_on_c, 0, 45, 95
2, 78960, Note_on_c, 0, 45, 0
2, 78960, Note_on_c, 0, 46, 95
2, 79200, Note_on_c, 0, 46, 0
2, 79200, Note_on_c, 0, 47, 95
2, 79680, Note_on_c, 0, 47, 0
2, 79920, Note_on_c, 0, 47, 95
2, 80400, Note_on_c, 0, 47, 0
2, 80400, Note_on_c, 0, 47, 95
2, 80640, Note_on_c, 0, 47, 0
2, 80640, Note_on_c, 0, 48, 95
2, 80880, Note_on_c, 0, 48, 0
2, 80880, Note_on_c, 0, 49, 95
2, 81120, Note_on_c, 0, 49, 0
2, 81120, Note_on_c, 0, 50, 95
2, 81600, Note_on_c, 0, 50, 0
2, 81840, Note_on_c, 0, 50, 95
2, 82320, Note_on_c, 0, 50, 0
2, 82320, Note_on_c, 0, 50, 95
2, 82560, Note_on_c, 0, 50, 0
2, 82560, Note_on_c, 0, 40, 95
2, 82800, Note_on_c, 0, 40, 0
2, 82800, Note_on_c, 0, 42, 95
2, 83040, Note_on_c, 0, 42, 0
2, 83040, Note_on_c, 0, 43, 95
2, 83520, Note_on_c, 0, 43, 0
2, 83760, Note_on_c, 0, 43, 95
2, 84240, Note_on_c, 0, 43, 0
2, 84240, Note_on_c, 0, 43, 95
2, 84480, Note_on_c, 0, 43, 0
2, 84480, Note_on_c, 0, 40, 95
2, 84720, Note_on_c, 0, 40, 0
2, 84720, Note_on_c, 0, 41, 95
2, 84960, Note_on_c, 0, 41, 0
2, 84960, Note_on_c, 0, 42, 95
2, 85440, Note_on_c, 0, 42, 0
2, 85680, Note_on_c, 0, 42, 95
2, 86160, Note_on_c, 0, 42, 0
2, 86160, Note_on_c, 0, 42, 95
2, 86400, Note_on_c, 0, 42, 0
2, 86400, Note_on_c, 0, 45, 95
2, 86640, Note_on_c, 0, 45, 0
2, 86640, Note_on_c, 0, 46, 95
2, 86880, Note_on_c, 0, 46, 0
2, 86880, Note_on_c, 0, 47, 95
2, 87360, Note_on_c, 0, 47, 0
2, 87600, Note_on_c, 0, 47, 95
2, 88080, Note_on_c, 0, 47, 0
2, 88080, Note_on_c, 0, 47, 95
2, 88320, Note_on_c, 0, 47, 0
2, 88320, Note_on_c, 0, 48, 95
2, 88560, Note_on_c, 0, 48, 0
2, 88560, Note_on_c, 0, 49, 95
2, 88800, Note_on_c, 0, 49, 0
2, 88800, Note_on_c, 0, 50, 95
2, 89280, Note_on_c, 0, 50, 0
2, 89520, Note_on_c, 0, 50, 95
2, 90000, Note_on_c, 0, 50, 0
2, 90000, Note_on_c, 0, 50, 95
2, 90240, Note_on_c, 0, 50, 0
2, 90240, Note_on_c, 0, 40, 95
2, 90480, Note_on_c, 0, 40, 0
2, 90480, Note_on_c, 0, 42, 95
2, 90720, Note_on_c, 0, 42, 0
2, 90720, Note_on_c, 0, 43, 95
2, 91200, Note_on_c, 0, 43, 0
2, 91440, Note_on_c, 0, 43, 95
2, 91920, Note_on_c, 0, 43, 0
2, 91920, Note_on_c, 0, 43, 95
2, 92160, Note_on_c, 0, 43, 0
2, 92160, Note_on_c, 0, 40, 95
2, 92400, Note_on_c, 0, 40, 0
2, 92400, Note_on_c, 0, 41, 95
2, 92640, Note_on_c, 0, 41, 0
2, 92640, Note_on_c, 0, 42, 95
2, 93120, Note_on_c, 0, 42, 0
2, 93360, Note_on_c, 0, 42, 95
2, 93840, Note_on_c, 0, 42, 0
2, 93840, Note_on_c, 0, 42, 95
2, 94080, Note_on_c, 0, 42, 0
2, 94080, Note_on_c, 0, 45, 95
2, 94320, Note_on_c, 0, 45, 0
2, 94320, Note_on_c, 0, 46, 95
2, 94560, Note_on_c, 0, 46, 0
2, 94560, Note_on_c, 0, 47, 95
2, 95040, Note_on_c, 0, 47, 0
2, 95280, Note_on_c, 0, 47, 95
2, 95760, Note_on_c, 0, 47, 0
2, 95760, Note_on_c, 0, 47, 95
2, 96000, Note_on_c, 0, 47, 0
2, 96000, Note_on_c, 0, 48, 95
2, 96240, Note_on_c, 0, 48, 0
2, 96240, Note_on_c, 0, 49, 95
2, 96480, Note_on_c, 0, 49, 0
2, 96480, Note_on_c, 0, 50, 95
2, 96960, Note_on_c, 0, 50, 0
2, 97200, Note_on_c, 0, 50, 95
2, 97680, Note_on_c, 0, 50, 0
2, 97680, Note_on_c, 0, 50, 95
2, 97920, Note_on_c, 0, 50, 0
2, 97920, Note_on_c, 0, 40, 95
2, 98160, Note_on_c, 0, 40, 0
2, 98160, Note_on_c, 0, 42, 95
2, 98400, Note_on_c, 0, 42, 0
2, 99840, Note_on_c, 0, 40, 95
2, 100080, Note_on_c, 0, 40, 0
2, 100080, Note_on_c, 0, 41, 95
2, 100320, Note_on_c, 0, 41, 0
2, 100320, Note_on_c, 0, 42, 95
2, 100800, Note_on_c, 0, 42, 0
2, 101760, Note_on_c, 0, 45, 95
2, 102000, Note_on_c, 0, 45, 0
2, 102000, Note_on_c, 0, 46, 95
2, 102240, Note_on_c, 0, 46, 0
2, 102240, Note_on_c, 0, 47, 95
2, 102720, Note_on_c, 0, 47, 0
2, 102960, Note_on_c, 0, 47, 95
2, 103440, Note_on_c, 0, 47, 0
2, 103440, Note_on_c, 0, 47, 95
2, 103680, Note_on_c, 0, 47, 0
2, 103680, Note_on_c, 0, 48, 95
2, 103920, Note_on_c, 0, 48, 0
2, 103920, Note_on_c, 0, 49, 95
2, 104160, Note_on_c, 0, 49, 0
2, 104160, Note_on_c, 0, 50, 95
2, 104640, Note_on_c, 0, 50, 0
2, 104880, Note_on_c, 0, 50, 95
2, 105360, Note_on_c, 0, 50, 0
2, 105360, Note_on_c, 0, 50, 95
2, 105600, Note_on_c, 0, 50, 0
2, 105600, Note_on_c, 0, 40, 95
2, 105840, Note_on_c, 0, 40, 0
2, 105840, Note_on_c, 0, 42, 95
2, 106080, Note_on_c, 0, 42, 0
2, 106080, Note_on_c, 0, 43, 95
2, 106560, Note_on_c, 0, 43, 0
2, 106800, Note_on_c, 0, 43, 95
2, 107280, Note_on_c, 0, 43, 0
2, 107280, Note_on_c, 0, 43, 95
2, 107520, Note_on_c, 0, 43, 0
2, 107520, Note_on_c, 0, 40, 95
2, 107760, Note_on_c, 0, 40, 0
2, 107760, Note_on_c, 0, 41, 95
2, 108000, Note_on_c, 0, 41, 0
2, 108000, Note_on_c, 0, 42, 95
2, 108480, Note_on_c, 0, 42, 0
2, 108720, Note_on_c, 0, 42, 95
2, 109200, Note_on_c, 0, 42, 0
2, 109200, Note_on_c, 0, 42, 95
2, 109440, Note_on_c, 0, 42, 0
2, 109440, Note_on_c, 0, 45, 95
2, 109680, Note_on_c, 0, 45, 0
2, 109680, Note_on_c, 0, 46, 95
2, 109920, Note_on_c, 0, 46, 0
2, 109920, Note_on_c, 0, 47, 95
2, 110400, Note_on_c, 0, 47, 0
2, 110640, Note_on_c, 0, 47, 95
2, 111120, Note_on_c, 0, 47, 0
2, 111120, Note_on_c, 0, 47, 95
2, 111360, Note_on_c, 0, 47, 0
2, 111360, Note_on_c, 0, 48, 95
2, 111600, Note_on_c, 0, 48, 0
2, 111600, Note_on_c, 0, 49, 95
2, 111840, Note_on_c, 0, 49, 0
2, 111840, Note_on_c, 0, 50, 95
2, 112320, Note_on_c, 0, 50, 0
2, 112560, Note_on_c, 0, 50, 95
2, 113040, Note_on_c, 0, 50, 0
2, 113040, Note_on_c, 0, 50, 95
2, 113280, Note_on_c, 0, 50, 0
2, 113280, Note_on_c, 0, 40, 95
2, 113520, Note_on_c, 0, 40, 0
2, 113520, Note_on_c, 0, 42, 95
2, 113760, Note_on_c, 0, 42, 0
2, 113760, Note_on_c, 0, 43, 95
2, 114240, Note_on_c, 0, 43, 0
2, 114480, Note_on_c, 0, 43, 95
2, 114960, Note_on_c, 0, 43, 0
2, 114960, Note_on_c, 0, 43, 95
2, 115200, Note_on_c, 0, 43, 0
2, 115200, Note_on_c, 0, 40, 95
2, 115440, Note_on_c, 0, 40, 0
2, 115440, Note_on_c, 0, 41, 95
2, 115680, Note_on_c, 0, 41, 0
2, 115680, Note_on_c, 0, 42, 95
2, 116160, Note_on_c, 0, 42, 0
2, 116400, Note_on_c, 0, 42, 95
2, 116880, Note_on_c, 0, 42, 0
2, 116880, Note_on_c, 0, 42, 95
2, 117120, Note_on_c, 0, 42, 0
2, 117120, Note_on_c, 0, 45, 95
2, 117360, Note_on_c, 0, 45, 0
2, 117360, Note_on_c, 0, 46, 95
2, 117600, Note_on_c, 0, 46, 0
2, 117600, Note_on_c, 0, 47, 95
2, 118080, Note_on_c, 0, 47, 0
2, 118320, Note_on_c, 0, 47, 95
2, 118800, Note_on_c, 0, 47, 0
2, 118800, Note_on_c, 0, 47, 95
2, 119040, Note_on_c, 0, 47, 0
2, 119040, Note_on_c, 0, 48, 95
2, 119280, Note_on_c, 0, 48, 0
2, 119280, Note_on_c, 0, 49, 95
2, 119520, Note_on_c, 0, 49, 0
2, 119520, Note_on_c, 0, 50, 95
2, 120000, Note_on_c, 0, 50, 0
2, 120240, Note_on_c, 0, 50, 95
2, 120720, Note_on_c, 0, 50, 0
2, 120720, Note_on_c, 0, 50, 95
2, 120960, Note_on_c, 0, 50, 0
2, 120960, Note_on_c, 0, 40, 95
2, 121200, Note_on_c, 0, 40, 0
2, 121200, Note_on_c, 0, 42, 95
2, 121440, Note_on_c, 0, 42, 0
2, 121440, Note_on_c, 0, 43, 95
2, 121920, Note_on_c, 0, 43, 0
2, 122160, Note_on_c, 0, 43, 95
2, 122640, Note_on_c, 0, 43, 0
2, 122640, Note_on_c, 0, 43, 95
2, 122880, Note_on_c, 0, 43, 0
2, 122880, Note_on_c, 0, 40, 95
2, 123120, Note_on_c, 0, 40, 0
2, 123120, Note_on_c, 0, 41, 95
2, 123360, Note_on_c, 0, 41, 0
2, 123360, Note_on_c, 0, 42, 95
2, 123840, Note_on_c, 0, 42, 0
2, 124080, Note_on_c, 0, 42, 95
2, 124560, Note_on_c, 0, 42, 0
2, 124560, Note_on_c, 0, 42, 95
2, 124800, Note_on_c, 0, 42, 0
2, 124800, Note_on_c, 0, 45, 95
2, 125040, Note_on_c, 0, 45, 0
2, 125040, Note_on_c, 0, 46, 95
2, 125280, Note_on_c, 0, 46, 0
2, 125280, Note_on_c, 0, 47, 95
2, 125760, Note_on_c, 0, 47, 0
2, 126000, Note_on_c, 0, 47, 95
2, 126480, Note_on_c, 0, 47, 0
2, 126480, Note_on_c, 0, 47, 95
2, 126720, Note_on_c, 0, 47, 0
2, 126720, Note_on_c, 0, 48, 95
2, 126960, Note_on_c, 0, 48, 0
2, 126960, Note_on_c, 0, 49, 95
2, 127200, Note_on_c, 0, 49, 0
2, 127200, Note_on_c, 0, 50, 95
2, 127680, Note_on_c, 0, 50, 0
2, 127920, Note_on_c, 0, 50, 95
2, 128400, Note_on_c, 0, 50, 0
2, 128400, Note_on_c, 0, 50, 95
2, 128640, Note_on_c, 0, 50, 0
2, 128640, Note_on_c, 0, 40, 95
2, 128880, Note_on_c, 0, 40, 0
2, 128880, Note_on_c, 0, 42, 95
2, 129120, Note_on_c, 0, 42, 0
2, 129120, Note_on_c, 0, 43, 95
2, 129600, Note_on_c, 0, 43, 0
2, 129840, Note_on_c, 0, 43, 95
2, 130320, Note_on_c, 0, 43, 0
2, 130320, Note_on_c, 0, 43, 95
2, 130560, Note_on_c, 0, 43, 0
2, 131040, Note_on_c, 0, 40, 95
2, 131520, Note_on_c, 0, 40, 0
2, 131760, Note_on_c, 0, 40, 95
2, 132000, Note_on_c, 0, 40, 0
2, 132000, Note_on_c, 0, 40, 95
2, 132240, Note_on_c, 0, 40, 0
2, 132240, Note_on_c, 0, 40, 95
2, 132480, Note_on_c, 0, 40, 0
2, 132960, Note_on_c, 0, 47, 95
2, 133200, Note_on_c, 0, 47, 0
2, 133200, Note_on_c, 0, 47, 95
2, 133440, Note_on_c, 0, 47, 0
2, 133440, Note_on_c, 0, 47, 95
2, 133680, Note_on_c, 0, 47, 0
2, 133680, Note_on_c, 0, 47, 95
2, 133920, Note_on_c, 0, 47, 0
2, 133920, Note_on_c, 0, 47, 95
2, 134160, Note_on_c, 0, 47, 0
2, 134160, Note_on_c, 0, 47, 95
2, 134400, Note_on_c, 0, 47, 0
2, 134400, Note_on_c, 0, 47, 95
2, 134640, Note_on_c, 0, 47, 0
2, 134640, Note_on_c, 0, 47, 95
2, 134880, Note_on_c, 0, 47, 0
2, 134880, Note_on_c, 0, 43, 95
2, 135120, Note_on_c, 0, 43, 0
2, 135120, Note_on_c, 0, 43, 95
2, 135360, Note_on_c, 0, 43, 0
2, 135360, Note_on_c, 0, 43, 95
2, 135600, Note_on_c, 0, 43, 0
2, 135600, Note_on_c, 0, 43, 95
2, 135840, Note_on_c, 0, 43, 0
2, 135840, Note_on_c, 0, 43, 95
2, 136080, Note_on_c, 0, 43, 0
2, 136080, Note_on_c, 0, 43, 95
2, 136320, Note_on_c, 0, 43, 0
2, 136320, Note_on_c, 0, 43, 95
2, 136560, Note_on_c, 0, 43, 0
2, 136560, Note_on_c, 0, 43, 95
2, 136800, Note_on_c, 0, 43, 0
2, 136800, Note_on_c, 0, 40, 95
2, 137040, Note_on_c, 0, 40, 0
2, 137040, Note_on_c, 0, 40, 95
2, 137280, Note_on_c, 0, 40, 0
2, 137280, Note_on_c, 0, 40, 95
2, 137520, Note_on_c, 0, 40, 0
2, 137520, Note_on_c, 0, 40, 95
2, 137760, Note_on_c, 0, 40, 0
2, 137760, Note_on_c, 0, 40, 95
2, 138000, Note_on_c, 0, 40, 0
2, 138000, Note_on_c, 0, 40, 95
2, 138240, Note_on_c, 0, 40, 0
2, 138240, Note_on_c, 0, 40, 95
2, 138480, Note_on_c, 0, 40, 0
2, 138480, Note_on_c, 0, 40, 95
2, 138720, Note_on_c, 0, 40, 0
2, 138720, Note_on_c, 0, 47, 95
2, 138960, Note_on_c, 0, 47, 0
2, 138960, Note_on_c, 0, 47, 95
2, 139200, Note_on_c, 0, 47, 0
2, 139200, Note_on_c, 0, 47, 95
2, 139440, Note_on_c, 0, 47, 0
2, 139440, Note_on_c, 0, 47, 95
2, 139680, Note_on_c, 0, 47, 0
2, 139680, Note_on_c, 0, 47, 95
2, 139920, Note_on_c, 0, 47, 0
2, 139920, Note_on_c, 0, 47, 95
2, 140160, Note_on_c, 0, 47, 0
2, 140160, Note_on_c, 0, 47, 95
2, 140400, Note_on_c, 0, 47, 0
2, 140400, Note_on_c, 0, 47, 95
2, 140640, Note_on_c, 0, 47, 0
2, 140640, Note_on_c, 0, 43, 95
2, 140880, Note_on_c, 0, 43, 0
2, 140880, Note_on_c, 0, 43, 95
2, 141120, Note_on_c, 0, 43, 0
2, 141120, Note_on_c, 0, 43, 95
2, 141360, Note_on_c, 0, 43, 0
2, 141360, Note_on_c, 0, 43, 95
2, 141600, Note_on_c, 0, 43, 0
2, 141600, Note_on_c, 0, 43, 95
2, 141840, Note_on_c, 0, 43, 0
2, 141840, Note_on_c, 0, 43, 95
2, 142080, Note_on_c, 0, 43, 0
2, 142080, Note_on_c, 0, 43, 95
2, 142320, Note_on_c, 0, 43, 0
2, 142320, Note_on_c, 0, 43, 95
2, 142560, Note_on_c, 0, 43, 0
2, 142560, Note_on_c, 0, 40, 95
2, 142800, Note_on_c, 0, 40, 0
2, 142800, Note_on_c, 0, 40, 95
2, 143040, Note_on_c, 0, 40, 0
2, 143040, Note_on_c, 0, 40, 95
2, 143280, Note_on_c, 0, 40, 0
2, 143280, Note_on_c, 0, 40, 95
2, 143520, Note_on_c, 0, 40, 0
2, 143520, Note_on_c, 0, 40, 95
2, 143760, Note_on_c, 0, 40, 0
2, 143760, Note_on_c, 0, 40, 95
2, 144000, Note_on_c, 0, 40, 0
2, 144000, Note_on_c, 0, 40, 95
2, 144240, Note_on_c, 0, 40, 0
2, 144240, Note_on_c, 0, 40, 95
2, 144480, Note_on_c, 0, 40, 0
2, 144480, Note_on_c, 0, 47, 95
2, 144720, Note_on_c, 0, 47, 0
2, 144720, Note_on_c, 0, 47, 95
2, 144960, Note_on_c, 0, 47, 0
2, 144960, Note_on_c, 0, 47, 95
2, 145200, Note_on_c, 0, 47, 0
2, 145200, Note_on_c, 0, 47, 95
2, 145440, Note_on_c, 0, 47, 0
2, 145440, Note_on_c, 0, 47, 95
2, 145680, Note_on_c, 0, 47, 0
2, 145680, Note_on_c, 0, 47, 95
2, 145920, Note_on_c, 0, 47, 0
2, 145920, Note_on_c, 0, 47, 95
2, 146160, Note_on_c, 0, 47, 0
2, 146160, Note_on_c, 0, 47, 95
2, 146400, Note_on_c, 0, 47, 0
2, 146400, Note_on_c, 0, 43, 95
2, 146640, Note_on_c, 0, 43, 0
2, 146640, Note_on_c, 0, 43, 95
2, 146880, Note_on_c, 0, 43, 0
2, 146880, Note_on_c, 0, 43, 95
2, 147120, Note_on_c, 0, 43, 0
2, 147120, Note_on_c, 0, 43, 95
2, 147360, Note_on_c, 0, 43, 0
2, 147360, Note_on_c, 0, 43, 95
2, 147600, Note_on_c, 0, 43, 0
2, 147600, Note_on_c, 0, 43, 95
2, 147840, Note_on_c, 0, 43, 0
2, 147840, Note_on_c, 0, 43, 95
2, 148080, Note_on_c, 0, 43, 0
2, 148080, Note_on_c, 0, 43, 95
2, 148320, Note_on_c, 0, 43, 0
2, 148320, Note_on_c, 0, 40, 95
2, 148560, Note_on_c, 0, 40, 0
2, 148560, Note_on_c, 0, 40, 95
2, 148800, Note_on_c, 0, 40, 0
2, 148800, Note_on_c, 0, 40, 95
2, 149040, Note_on_c, 0, 40, 0
2, 149040, Note_on_c, 0, 40, 95
2, 149280, Note_on_c, 0, 40, 0
2, 149280, Note_on_c, 0, 40, 95
2, 149520, Note_on_c, 0, 40, 0
2, 149520, Note_on_c, 0, 40, 95
2, 149760, Note_on_c, 0, 40, 0
2, 149760, Note_on_c, 0, 40, 95
2, 150000, Note_on_c, 0, 40, 0
2, 150000, Note_on_c, 0, 40, 95
2, 150240, Note_on_c, 0, 40, 0
2, 150240, Note_on_c, 0, 47, 95
2, 150480, Note_on_c, 0, 47, 0
2, 150480, Note_on_c, 0, 47, 95
2, 150720, Note_on_c, 0, 47, 0
2, 150720, Note_on_c, 0, 47, 95
2, 150960, Note_on_c, 0, 47, 0
2, 150960, Note_on_c, 0, 47, 95
2, 151200, Note_on_c, 0, 47, 0
2, 151200, Note_on_c, 0, 47, 95
2, 151440, Note_on_c, 0, 47, 0
2, 151440, Note_on_c, 0, 47, 95
2, 151680, Note_on_c, 0, 47, 0
2, 151680, Note_on_c, 0, 47, 95
2, 151920, Note_on_c, 0, 47, 0
2, 151920, Note_on_c, 0, 47, 95
2, 152160, Note_on_c, 0, 47, 0
2, 152160, Note_on_c, 0, 43, 95
2, 152400, Note_on_c, 0, 43, 0
2, 152400, Note_on_c, 0, 43, 95
2, 152640, Note_on_c, 0, 43, 0
2, 152640, Note_on_c, 0, 43, 95
2, 152880, Note_on_c, 0, 43, 0
2, 152880, Note_on_c, 0, 43, 95
2, 153120, Note_on_c, 0, 43, 0
2, 153120, Note_on_c, 0, 43, 95
2, 153360, Note_on_c, 0, 43, 0
2, 153360, Note_on_c, 0, 43, 95
2, 153600, Note_on_c, 0, 43, 0
2, 153600, Note_on_c, 0, 43, 95
2, 153840, Note_on_c, 0, 43, 0
2, 153840, Note_on_c, 0, 43, 95
2, 154080, Note_on_c, 0, 43, 0
2, 154080, Note_on_c, 0, 40, 95
2, 154320, Note_on_c, 0, 40, 0
2, 154320, Note_on_c, 0, 40, 95
2, 154560, Note_on_c, 0, 40, 0
2, 154560, Note_on_c, 0, 40, 95
2, 154800, Note_on_c, 0, 40, 0
2, 154800, Note_on_c, 0, 40, 95
2, 155040, Note_on_c, 0, 40, 0
2, 155040, Note_on_c, 0, 40, 95
2, 155280, Note_on_c, 0, 40, 0
2, 155280, Note_on_c, 0, 40, 95
2, 155520, Note_on_c, 0, 40, 0
2, 155520, Note_on_c, 0, 40, 95
2, 155760, Note_on_c, 0, 40, 0
2, 155760, Note_on_c, 0, 40, 95
2, 156000, Note_on_c, 0, 40, 0
2, 156000, Note_on_c, 0, 47, 95
2, 156240, Note_on_c, 0, 47, 0
2, 156240, Note_on_c, 0, 47, 95
2, 156480, Note_on_c, 0, 47, 0
2, 156480, Note_on_c, 0, 47, 95
2, 156720, Note_on_c, 0, 47, 0
2, 156720, Note_on_c, 0, 47, 95
2, 156960, Note_on_c, 0, 47, 0
2, 156960, Note_on_c, 0, 47, 95
2, 157200, Note_on_c, 0, 47, 0
2, 157200, Note_on_c, 0, 47, 95
2, 157440, Note_on_c, 0, 47, 0
2, 157440, Note_on_c, 0, 47, 95
2, 157680, Note_on_c, 0, 47, 0
2, 157680, Note_on_c, 0, 47, 95
2, 157920, Note_on_c, 0, 47, 0
2, 157920, Note_on_c, 0, 43, 95
2, 158160, Note_on_c, 0, 43, 0
2, 158160, Note_on_c, 0, 43, 95
2, 158400, Note_on_c, 0, 43, 0
2, 158400, Note_on_c, 0, 43, 95
2, 158640, Note_on_c, 0, 43, 0
2, 158640, Note_on_c, 0, 43, 95
2, 158880, Note_on_c, 0, 43, 0
2, 158880, Note_on_c, 0, 43, 95
2, 159120, Note_on_c, 0, 43, 0
2, 159120, Note_on_c, 0, 43, 95
2, 159360, Note_on_c, 0, 43, 0
2, 159360, Note_on_c, 0, 43, 95
2, 159600, Note_on_c, 0, 43, 0
2, 159600, Note_on_c, 0, 43, 95
2, 159840, Note_on_c, 0, 43, 0
2, 159840, Note_on_c, 0, 40, 95
2, 160080, Note_on_c, 0, 40, 0
2, 160080, Note_on_c, 0, 40, 95
2, 160320, Note_on_c, 0, 40, 0
2, 160320, Note_on_c, 0, 40, 95
2, 160560, Note_on_c, 0, 40, 0
2, 160560, Note_on_c, 0, 40, 95
2, 160800, Note_on_c, 0, 40, 0
2, 160800, Note_on_c, 0, 40, 95
2, 161040, Note_on_c, 0, 40, 0
2, 161040, Note_on_c, 0, 40, 95
2, 161280, Note_on_c, 0, 40, 0
2, 161280, Note_on_c, 0, 40, 95
2, 161520, Note_on_c, 0, 40, 0
2, 161520, Note_on_c, 0, 40, 95
2, 161760, Note_on_c, 0, 40, 0
2, 161760, Note_on_c, 0, 47, 95
2, 163680, Note_on_c, 0, 47, 0
2, 163680, End_track
3, 0, Start_track
3, 0, Program_c, 1, 27
3, 0, Control_c, 1, 7, 56
3, 0, Control_c, 1, 10, 64
3, 0, Control_c, 1, 101, 0
3, 1, Control_c, 1, 100, 0
3, 2, Control_c, 1, 6, 12
3, 3, Control_c, 1, 38, 0
3, 3, Pitch_bend_c, 1, 8192
3, 3, Control_c, 1, 101, 0
3, 4, Control_c, 1, 100, 0
3, 5, Control_c, 1, 6, 12
3, 6, Control_c, 1, 38, 0
3, 6, Pitch_bend_c, 1, 8192
3, 6, Program_c, 1, 27
3, 6, Control_c, 1, 7, 56
3, 6, Control_c, 1, 10, 64
3, 6, Control_c, 1, 93, 0
3, 6, Control_c, 1, 93, 0
3, 6, Control_c, 1, 91, 0
3, 6, Control_c, 1, 91, 0
3, 6, Control_c, 1, 92, 0
3, 6, Control_c, 1, 92, 0
3, 6, Control_c, 1, 95, 0
3, 6, Control_c, 1, 95, 0
3, 8160, Note_on_c, 1, 62, 95
3, 8160, Note_on_c, 1, 57, 95
3, 8280, Note_on_c, 1, 57, 0
3, 8280, Note_on_c, 1, 62, 0
3, 8280, Note_on_c, 1, 59, 86
3, 8520, Note_on_c, 1, 59, 0
3, 8520, Note_on_c, 1, 62, 95
3, 8536, Note_on_c, 1, 66, 95
3, 8640, Note_on_c, 1, 66, 0
3, 8640, Note_on_c, 1, 62, 0
3, 8640, Note_on_c, 1, 66, 95
3, 8640, Note_on_c, 1, 62, 95
3, 8760, Note_on_c, 1, 62, 0
3, 8760, Note_on_c, 1, 66, 0
3, 8880, Note_on_c, 1, 57, 95
3, 9120, Note_on_c, 1, 57, 0
3, 9120, Note_on_c, 1, 59, 86
3, 9360, Note_on_c, 1, 59, 0
3, 9360, Note_on_c, 1, 66, 95
3, 9360, Note_on_c, 1, 62, 95
3, 9600, Note_on_c, 1, 62, 0
3, 9600, Note_on_c, 1, 66, 0
3, 9600, Note_on_c, 1, 59, 95
3, 9840, Note_on_c, 1, 59, 0
3, 9840, Note_on_c, 1, 57, 95
3, 10080, Note_on_c, 1, 57, 0
3, 10080, Note_on_c, 1, 57, 95
3, 10080, Note_on_c, 1, 52, 95
3, 10200, Note_on_c, 1, 52, 0
3, 10200, Note_on_c, 1, 57, 0
3, 10200, Note_on_c, 1, 54, 86
3, 10440, Note_on_c, 1, 54, 0
3, 10440, Note_on_c, 1, 62, 95
3, 10456, Note_on_c, 1, 66, 95
3, 10560, Note_on_c, 1, 66, 0
3, 10560, Note_on_c, 1, 62, 0
3, 10560, Note_on_c, 1, 66, 95
3, 10560, Note_on_c, 1, 62, 95
3, 10680, Note_on_c, 1, 62, 0
3, 10680, Note_on_c, 1, 66, 0
3, 10800, Note_on_c, 1, 52, 95
3, 11040, Note_on_c, 1, 52, 0
3, 11040, Note_on_c, 1, 54, 86
3, 11280, Note_on_c, 1, 54, 0
3, 11280, Note_on_c, 1, 66, 95
3, 11280, Note_on_c, 1, 62, 95
3, 11280, Note_on_c, 1, 57, 95
3, 11520, Note_on_c, 1, 57, 0
3, 11520, Note_on_c, 1, 62, 0
3, 11520, Note_on_c, 1, 66, 0
3, 11520, Note_on_c, 1, 59, 95
3, 11760, Note_on_c, 1, 59, 0
3, 11760, Note_on_c, 1, 57, 95
3, 12000, Note_on_c, 1, 57, 0
3, 12000, Note_on_c, 1, 62, 95
3, 12000, Note_on_c, 1, 57, 95
3, 12120, Note_on_c, 1, 57, 0
3, 12120, Note_on_c, 1, 62, 0
3, 12120, Note_on_c, 1, 59, 86
3, 12360, Note_on_c, 1, 59, 0
3, 12360, Note_on_c, 1, 66, 95
3, 12360, Note_on_c, 1, 62, 95
3, 12480, Note_on_c, 1, 62, 0
3, 12480, Note_on_c, 1, 66, 0
3, 12480, Note_on_c, 1, 66, 95
3, 12480, Note_on_c, 1, 62, 95
3, 12600, Note_on_c, 1, 62, 0
3, 12600, Note_on_c, 1, 66, 0
3, 12720, Note_on_c, 1, 57, 95
3, 12960, Note_on_c, 1, 57, 0
3, 12960, Note_on_c, 1, 59, 86
3, 13200, Note_on_c, 1, 59, 0
3, 13200, Note_on_c, 1, 66, 95
3, 13200, Note_on_c, 1, 62, 95
3, 13440, Note_on_c, 1, 62, 0
3, 13440, Note_on_c, 1, 66, 0
3, 13440, Note_on_c, 1, 59, 95
3, 13680, Note_on_c, 1, 59, 0
3, 13680, Note_on_c, 1, 57, 95
3, 13920, Note_on_c, 1, 57, 0
3, 13920, Note_on_c, 1, 62, 95
3, 13920, Note_on_c, 1, 57, 95
3, 14040, Note_on_c, 1, 57, 0
3, 14040, Note_on_c, 1, 62, 0
3, 14040, Note_on_c, 1, 59, 86
3, 14280, Note_on_c, 1, 59, 0
3, 14280, Note_on_c, 1, 66, 95
3, 14280, Note_on_c, 1, 62, 95
3, 14400, Note_on_c, 1, 62, 0
3, 14400, Note_on_c, 1, 66, 0
3, 14400, Note_on_c, 1, 66, 95
3, 14400, Note_on_c, 1, 62, 95
3, 14520, Note_on_c, 1, 62, 0
3, 14520, Note_on_c, 1, 66, 0
3, 14640, Note_on_c, 1, 57, 95
3, 14880, Note_on_c, 1, 57, 0
3, 14880, Note_on_c, 1, 59, 86
3, 15120, Note_on_c, 1, 59, 0
3, 15120, Note_on_c, 1, 66, 95
3, 15120, Note_on_c, 1, 62, 95
3, 15360, Note_on_c, 1, 62, 0
3, 15360, Note_on_c, 1, 66, 0
3, 15360, Note_on_c, 1, 59, 95
3, 15600, Note_on_c, 1, 59, 0
3, 15600, Note_on_c, 1, 57, 95
3, 15840, Note_on_c, 1, 57, 0
3, 15840, Note_on_c, 1, 62, 95
3, 15840, Note_on_c, 1, 57, 95
3, 15960, Note_on_c, 1, 57, 0
3, 15960, Note_on_c, 1, 62, 0
3, 15960, Note_on_c, 1, 59, 86
3, 16200, Note_on_c, 1, 59, 0
3, 16200, Note_on_c, 1, 66, 95
3, 16200, Note_on_c, 1, 62, 95
3, 16320, Note_on_c, 1, 62, 0
3, 16320, Note_on_c, 1, 66, 0
3, 16320, Note_on_c, 1, 66, 95
3, 16320, Note_on_c, 1, 62, 95
3, 16440, Note_on_c, 1, 62, 0
3, 16440, Note_on_c, 1, 66, 0
3, 16560, Note_on_c, 1, 57, 95
3, 16800, Note_on_c, 1, 57, 0
3, 16800, Note_on_c, 1, 59, 86
3, 17040, Note_on_c, 1, 59, 0
3, 17040, Note_on_c, 1, 66, 95
3, 17040, Note_on_c, 1, 62, 95
3, 17280, Note_on_c, 1, 62, 0
3, 17280, Note_on_c, 1, 66, 0
3, 17280, Note_on_c, 1, 59, 95
3, 17520, Note_on_c, 1, 59, 0
3, 17520, Note_on_c, 1, 57, 95
3, 17760, Note_on_c, 1, 57, 0
3, 17760, Note_on_c, 1, 57, 95
3, 17760, Note_on_c, 1, 52, 95
3, 17880, Note_on_c, 1, 52, 0
3, 17880, Note_on_c, 1, 57, 0
3, 17880, Note_on_c, 1, 54, 86
3, 18120, Note_on_c, 1, 54, 0
3, 18120, Note_on_c, 1, 62, 95
3, 18136, Note_on_c, 1, 66, 95
3, 18240, Note_on_c, 1, 66, 0
3, 18240, Note_on_c, 1, 62, 0
3, 18240, Note_on_c, 1, 66, 95
3, 18240, Note_on_c, 1, 62, 95
3, 18360, Note_on_c, 1, 62, 0
3, 18360, Note_on_c, 1, 66, 0
3, 18480, Note_on_c, 1, 52, 95
3, 18720, Note_on_c, 1, 52, 0
3, 18720, Note_on_c, 1, 54, 86
3, 18960, Note_on_c, 1, 54, 0
3, 18960, Note_on_c, 1, 66, 95
3, 18960, Note_on_c, 1, 62, 95
3, 18960, Note_on_c, 1, 57, 95
3, 19200, Note_on_c, 1, 57, 0
3, 19200, Note_on_c, 1, 62, 0
3, 19200, Note_on_c, 1, 66, 0
3, 19200, Note_on_c, 1, 59, 95
3, 19440, Note_on_c, 1, 59, 0
3, 19440, Note_on_c, 1, 57, 95
3, 19680, Note_on_c, 1, 57, 0
3, 19680, Note_on_c, 1, 62, 95
3, 19680, Note_on_c, 1, 57, 95
3, 19800, Note_on_c, 1, 57, 0
3, 19800, Note_on_c, 1, 62, 0
3, 19800, Note_on_c, 1, 59, 86
3, 20040, Note_on_c, 1, 59, 0
3, 20040, Note_on_c, 1, 66, 95
3, 20040, Note_on_c, 1, 62, 95
3, 20160, Note_on_c, 1, 62, 0
3, 20160, Note_on_c, 1, 66, 0
3, 20160, Note_on_c, 1, 66, 95
3, 20160, Note_on_c, 1, 62, 95
3, 20280, Note_on_c, 1, 62, 0
3, 20280, Note_on_c, 1, 66, 0
3, 20400, Note_on_c, 1, 57, 95
3, 20640, Note_on_c, 1, 57, 0
3, 20640, Note_on_c, 1, 59, 86
3, 20880, Note_on_c, 1, 59, 0
3, 20880, Note_on_c, 1, 66, 95
3, 20880, Note_on_c, 1, 62, 95
3, 21120, Note_on_c, 1, 62, 0
3, 21120, Note_on_c, 1, 66, 0
3, 21120, Note_on_c, 1, 59, 95
3, 21360, Note_on_c, 1, 59, 0
3, 21360, Note_on_c, 1, 57, 95
3, 21600, Note_on_c, 1, 57, 0
3, 21600, Note_on_c, 1, 62, 95
3, 21600, Note_on_c, 1, 57, 95
3, 21720, Note_on_c, 1, 57, 0
3, 21720, Note_on_c, 1, 62, 0
3, 21720, Note_on_c, 1, 59, 86
3, 21960, Note_on_c, 1, 59, 0
3, 21960, Note_on_c, 1, 66, 95
3, 21960, Note_on_c, 1, 62, 95
3, 22080, Note_on_c, 1, 62, 0
3, 22080, Note_on_c, 1, 66, 0
3, 22080, Note_on_c, 1, 66, 95
3, 22080, Note_on_c, 1, 62, 95
3, 22200, Note_on_c, 1, 62, 0
3, 22200, Note_on_c, 1, 66, 0
3, 22320, Note_on_c, 1, 57, 95
3, 22560, Note_on_c, 1, 57, 0
3, 22560, Note_on_c, 1, 59, 86
3, 22800, Note_on_c, 1, 59, 0
3, 22800, Note_on_c, 1, 66, 95
3, 22800, Note_on_c, 1, 62, 95
3, 23040, Note_on_c, 1, 62, 0
3, 23040, Note_on_c, 1, 66, 0
3, 23040, Note_on_c, 1, 59, 95
3, 23280, Note_on_c, 1, 59, 0
3, 23280, Note_on_c, 1, 57, 95
3, 23520, Note_on_c, 1, 57, 0
3, 23520, Note_on_c, 1, 62, 95
3, 23520, Note_on_c, 1, 57, 95
3, 23640, Note_on_c, 1, 57, 0
3, 23640, Note_on_c, 1, 62, 0
3, 23640, Note_on_c, 1, 59, 86
3, 23880, Note_on_c, 1, 59, 0
3, 23880, Note_on_c, 1, 66, 95
3, 23880, Note_on_c, 1, 62, 95
3, 24000, Note_on_c, 1, 62, 0
3, 24000, Note_on_c, 1, 66, 0
3, 24000, Note_on_c, 1, 66, 95
3, 24000, Note_on_c, 1, 62, 95
3, 24120, Note_on_c, 1, 62, 0
3, 24120, Note_on_c, 1, 66, 0
3, 24240, Note_on_c, 1, 57, 95
3, 24480, Note_on_c, 1, 57, 0
3, 24480, Note_on_c, 1, 59, 86
3, 24720, Note_on_c, 1, 59, 0
3, 24720, Note_on_c, 1, 66, 95
3, 24720, Note_on_c, 1, 62, 95
3, 24960, Note_on_c, 1, 62, 0
3, 24960, Note_on_c, 1, 66, 0
3, 24960, Note_on_c, 1, 59, 95
3, 25200, Note_on_c, 1, 59, 0
3, 25200, Note_on_c, 1, 57, 95
3, 25440, Note_on_c, 1, 57, 0
3, 25440, Note_on_c, 1, 57, 95
3, 25440, Note_on_c, 1, 52, 95
3, 25560, Note_on_c, 1, 52, 0
3, 25560, Note_on_c, 1, 57, 0
3, 25560, Note_on_c, 1, 54, 86
3, 25800, Note_on_c, 1, 54, 0
3, 25800, Note_on_c, 1, 62, 95
3, 25816, Note_on_c, 1, 66, 95
3, 25920, Note_on_c, 1, 66, 0
3, 25920, Note_on_c, 1, 62, 0
3, 25920, Note_on_c, 1, 66, 95
3, 25920, Note_on_c, 1, 62, 95
3, 26040, Note_on_c, 1, 62, 0
3, 26040, Note_on_c, 1, 66, 0
3, 26160, Note_on_c, 1, 57, 95
3, 26400, Note_on_c, 1, 57, 0
3, 26400, Note_on_c, 1, 58, 86
3, 26640, Note_on_c, 1, 58, 0
3, 26640, Note_on_c, 1, 61, 95
3, 26880, Note_on_c, 1, 61, 0
3, 26880, Note_on_c, 1, 66, 95
3, 27120, Note_on_c, 1, 66, 0
3, 27120, Note_on_c, 1, 61, 95
3, 27360, Note_on_c, 1, 61, 0
3, 27360, Note_on_c, 1, 62, 95
3, 27360, Note_on_c, 1, 57, 95
3, 27480, Note_on_c, 1, 57, 0
3, 27480, Note_on_c, 1, 62, 0
3, 27480, Note_on_c, 1, 59, 86
3, 27720, Note_on_c, 1, 59, 0
3, 27720, Note_on_c, 1, 66, 95
3, 27720, Note_on_c, 1, 62, 95
3, 27840, Note_on_c, 1, 62, 0
3, 27840, Note_on_c, 1, 66, 0
3, 27840, Note_on_c, 1, 66, 95
3, 27840, Note_on_c, 1, 62, 95
3, 27960, Note_on_c, 1, 62, 0
3, 27960, Note_on_c, 1, 66, 0
3, 28080, Note_on_c, 1, 57, 95
3, 28320, Note_on_c, 1, 57, 0
3, 28320, Note_on_c, 1, 59, 86
3, 28560, Note_on_c, 1, 59, 0
3, 28560, Note_on_c, 1, 66, 95
3, 28560, Note_on_c, 1, 62, 95
3, 28800, Note_on_c, 1, 62, 0
3, 28800, Note_on_c, 1, 66, 0
3, 28800, Note_on_c, 1, 59, 95
3, 29040, Note_on_c, 1, 59, 0
3, 29040, Note_on_c, 1, 57, 95
3, 29280, Note_on_c, 1, 57, 0
3, 29280, Note_on_c, 1, 62, 95
3, 29280, Note_on_c, 1, 57, 95
3, 29400, Note_on_c, 1, 57, 0
3, 29400, Note_on_c, 1, 62, 0
3, 29400, Note_on_c, 1, 59, 86
3, 29640, Note_on_c, 1, 59, 0
3, 29640, Note_on_c, 1, 66, 95
3, 29640, Note_on_c, 1, 62, 95
3, 29760, Note_on_c, 1, 62, 0
3, 29760, Note_on_c, 1, 66, 0
3, 29760, Note_on_c, 1, 66, 95
3, 29760, Note_on_c, 1, 62, 95
3, 29880, Note_on_c, 1, 62, 0
3, 29880, Note_on_c, 1, 66, 0
3, 30000, Note_on_c, 1, 57, 95
3, 30120, Pitch_bend_c, 1, 8832
3, 30240, Note_on_c, 1, 57, 0
3, 30240, Pitch_bend_c, 1, 8192
3, 30240, Note_on_c, 1, 59, 86
3, 30480, Note_on_c, 1, 59, 0
3, 30480, Note_on_c, 1, 64, 95
3, 30720, Note_on_c, 1, 64, 0
3, 30720, Note_on_c, 1, 59, 95
3, 30960, Note_on_c, 1, 59, 0
3, 30960, Note_on_c, 1, 55, 95
3, 31200, Note_on_c, 1, 55, 0
3, 31200, Program_c, 1, 27
3, 31200, Program_c, 1, 27
3, 31200, Control_c, 1, 7, 32
3, 31200, Control_c, 1, 7, 32
3, 31200, Control_c, 1, 91, 127
3, 31200, Control_c, 1, 91, 127
3, 31200, Note_on_c, 1, 55, 95
3, 31680, Note_on_c, 1, 55, 0
3, 31680, Note_on_c, 1, 55, 95
3, 31920, Note_on_c, 1, 55, 0
3, 31920, Note_on_c, 1, 67, 95
3, 32160, Note_on_c, 1, 67, 0
3, 32160, Note_on_c, 1, 62, 95
3, 32400, Note_on_c, 1, 62, 0
3, 32400, Note_on_c, 1, 59, 95
3, 32640, Note_on_c, 1, 59, 0
3, 32640, Note_on_c, 1, 67, 95
3, 32880, Note_on_c, 1, 67, 0
3, 32880, Note_on_c, 1, 62, 95
3, 33120, Note_on_c, 1, 62, 0
3, 33120, Control_c, 1, 7, 40
3, 33120, Control_c, 1, 7, 40
3, 33120, Control_c, 1, 91, 127
3, 33120, Control_c, 1, 91, 127
3, 33120, Note_on_c, 1, 52, 95
3, 33600, Note_on_c, 1, 52, 0
3, 33600, Note_on_c, 1, 52, 95
3, 33840, Note_on_c, 1, 52, 0
3, 33840, Note_on_c, 1, 64, 95
3, 34320, Note_on_c, 1, 64, 0
3, 34320, Note_on_c, 1, 64, 95
3, 34560, Note_on_c, 1, 64, 0
3, 34560, Note_on_c, 1, 55, 95
3, 34592, Note_on_c, 1, 59, 95
3, 34624, Note_on_c, 1, 64, 95
3, 34800, Note_on_c, 1, 64, 0
3, 34800, Note_on_c, 1, 59, 0
3, 34800, Note_on_c, 1, 55, 0
3, 34800, Note_on_c, 1, 59, 95
3, 35040, Note_on_c, 1, 59, 0
3, 35040, Control_c, 1, 7, 56
3, 35040, Control_c, 1, 7, 56
3, 35040, Note_on_c, 1, 59, 95
3, 35520, Note_on_c, 1, 59, 0
3, 35520, Note_on_c, 1, 59, 95
3, 35760, Note_on_c, 1, 59, 0
3, 35760, Note_on_c, 1, 62, 95
3, 35824, Note_on_c, 1, 66, 95
3, 36240, Note_on_c, 1, 66, 0
3, 36240, Note_on_c, 1, 62, 0
3, 36240, Note_on_c, 1, 59, 95
3, 36720, Note_on_c, 1, 59, 0
3, 36720, Note_on_c, 1, 62, 95
3, 36752, Note_on_c, 1, 66, 95
3, 36960, Note_on_c, 1, 66, 0
3, 36960, Note_on_c, 1, 62, 0
3, 36960, Control_c, 1, 7, 48
3, 36960, Control_c, 1, 7, 48
3, 36960, Note_on_c, 1, 55, 95
3, 36960, Note_on_c, 1, 50, 95
3, 36960, Note_on_c, 1, 47, 95
3, 36960, Note_on_c, 1, 43, 95
3, 37200, Note_on_c, 1, 43, 0
3, 37200, Note_on_c, 1, 55, 0
3, 37200, Note_on_c, 1, 50, 0
3, 37200, Note_on_c, 1, 47, 0
3, 37200, Note_on_c, 1, 55, 95
3, 37200, Note_on_c, 1, 50, 95
3, 37200, Note_on_c, 1, 47, 95
3, 37200, Note_on_c, 1, 43, 95
3, 37440, Note_on_c, 1, 43, 0
3, 37440, Note_on_c, 1, 55, 0
3, 37440, Note_on_c, 1, 50, 0
3, 37440, Note_on_c, 1, 47, 0
3, 37440, Note_on_c, 1, 55, 95
3, 37440, Note_on_c, 1, 50, 95
3, 37440, Note_on_c, 1, 47, 95
3, 37440, Note_on_c, 1, 43, 95
3, 37680, Note_on_c, 1, 43, 0
3, 37680, Note_on_c, 1, 55, 0
3, 37680, Note_on_c, 1, 50, 0
3, 37680, Note_on_c, 1, 47, 0
3, 37680, Note_on_c, 1, 55, 95
3, 37680, Note_on_c, 1, 50, 95
3, 37680, Note_on_c, 1, 47, 95
3, 37680, Note_on_c, 1, 43, 95
3, 37920, Note_on_c, 1, 43, 0
3, 37920, Note_on_c, 1, 55, 0
3, 37920, Note_on_c, 1, 50, 0
3, 37920, Note_on_c, 1, 47, 0
3, 37920, Note_on_c, 1, 55, 95
3, 37920, Note_on_c, 1, 50, 95
3, 37920, Note_on_c, 1, 47, 95
3, 37920, Note_on_c, 1, 43, 95
3, 38160, Note_on_c, 1, 43, 0
3, 38160, Note_on_c, 1, 55, 0
3, 38160, Note_on_c, 1, 50, 0
3, 38160, Note_on_c, 1, 47, 0
3, 38160, Note_on_c, 1, 55, 95
3, 38160, Note_on_c, 1, 50, 95
3, 38160, Note_on_c, 1, 47, 95
3, 38160, Note_on_c, 1, 43, 95
3, 38400, Note_on_c, 1, 43, 0
3, 38400, Note_on_c, 1, 55, 0
3, 38400, Note_on_c, 1, 50, 0
3, 38400, Note_on_c, 1, 47, 0
3, 38400, Note_on_c, 1, 55, 95
3, 38400, Note_on_c, 1, 50, 95
3, 38400, Note_on_c, 1, 47, 95
3, 38400, Note_on_c, 1, 43, 95
3, 38640, Note_on_c, 1, 43, 0
3, 38640, Note_on_c, 1, 55, 0
3, 38640, Note_on_c, 1, 50, 0
3, 38640, Note_on_c, 1, 47, 0
3, 38640, Note_on_c, 1, 55, 95
3, 38640, Note_on_c, 1, 50, 95
3, 38640, Note_on_c, 1, 47, 95
3, 38640, Note_on_c, 1, 43, 95
3, 38880, Note_on_c, 1, 43, 0
3, 38880, Note_on_c, 1, 55, 0
3, 38880, Note_on_c, 1, 50, 0
3, 38880, Note_on_c, 1, 47, 0
3, 38880, Note_on_c, 1, 55, 95
3, 38880, Note_on_c, 1, 52, 95
3, 38880, Note_on_c, 1, 47, 95
3, 38880, Note_on_c, 1, 40, 95
3, 39120, Note_on_c, 1, 40, 0
3, 39120, Note_on_c, 1, 55, 0
3, 39120, Note_on_c, 1, 52, 0
3, 39120, Note_on_c, 1, 47, 0
3, 39120, Note_on_c, 1, 55, 95
3, 39120, Note_on_c, 1, 52, 95
3, 39120, Note_on_c, 1, 47, 95
3, 39120, Note_on_c, 1, 40, 95
3, 39360, Note_on_c, 1, 40, 0
3, 39360, Note_on_c, 1, 55, 0
3, 39360, Note_on_c, 1, 52, 0
3, 39360, Note_on_c, 1, 47, 0
3, 39360, Note_on_c, 1, 55, 95
3, 39360, Note_on_c, 1, 52, 95
3, 39360, Note_on_c, 1, 47, 95
3, 39360, Note_on_c, 1, 40, 95
3, 39600, Note_on_c, 1, 40, 0
3, 39600, Note_on_c, 1, 55, 0
3, 39600, Note_on_c, 1, 52, 0
3, 39600, Note_on_c, 1, 47, 0
3, 39600, Note_on_c, 1, 55, 95
3, 39600, Note_on_c, 1, 52, 95
3, 39600, Note_on_c, 1, 47, 95
3, 39600, Note_on_c, 1, 40, 95
3, 39840, Note_on_c, 1, 40, 0
3, 39840, Note_on_c, 1, 55, 0
3, 39840, Note_on_c, 1, 52, 0
3, 39840, Note_on_c, 1, 47, 0
3, 39840, Note_on_c, 1, 55, 95
3, 39840, Note_on_c, 1, 52, 95
3, 39840, Note_on_c, 1, 47, 95
3, 39840, Note_on_c, 1, 40, 95
3, 40080, Note_on_c, 1, 40, 0
3, 40080, Note_on_c, 1, 55, 0
3, 40080, Note_on_c, 1, 52, 0
3, 40080, Note_on_c, 1, 47, 0
3, 40080, Note_on_c, 1, 55, 95
3, 40080, Note_on_c, 1, 52, 95
3, 40080, Note_on_c, 1, 47, 95
3, 40080, Note_on_c, 1, 40, 95
3, 40320, Note_on_c, 1, 40, 0
3, 40320, Note_on_c, 1, 55, 0
3, 40320, Note_on_c, 1, 52, 0
3, 40320, Note_on_c, 1, 47, 0
3, 40320, Note_on_c, 1, 55, 95
3, 40320, Note_on_c, 1, 52, 95
3, 40320, Note_on_c, 1, 47, 95
3, 40320, Note_on_c, 1, 40, 95
3, 40560, Note_on_c, 1, 40, 0
3, 40560, Note_on_c, 1, 55, 0
3, 40560, Note_on_c, 1, 52, 0
3, 40560, Note_on_c, 1, 47, 0
3, 40560, Note_on_c, 1, 55, 95
3, 40560, Note_on_c, 1, 52, 95
3, 40560, Note_on_c, 1, 47, 95
3, 40560, Note_on_c, 1, 40, 95
3, 40800, Note_on_c, 1, 40, 0
3, 40800, Note_on_c, 1, 55, 0
3, 40800, Note_on_c, 1, 52, 0
3, 40800, Note_on_c, 1, 47, 0
3, 40800, Control_c, 1, 7, 64
3, 40800, Control_c, 1, 7, 64
3, 40800, Note_on_c, 1, 62, 95
3, 40800, Note_on_c, 1, 59, 95
3, 40800, Note_on_c, 1, 54, 95
3, 40800, Note_on_c, 1, 47, 95
3, 41040, Note_on_c, 1, 47, 0
3, 41040, Note_on_c, 1, 62, 0
3, 41040, Note_on_c, 1, 59, 0
3, 41040, Note_on_c, 1, 54, 0
3, 41040, Note_on_c, 1, 62, 95
3, 41040, Note_on_c, 1, 59, 95
3, 41040, Note_on_c, 1, 54, 95
3, 41040, Note_on_c, 1, 47, 95
3, 41280, Note_on_c, 1, 47, 0
3, 41280, Note_on_c, 1, 62, 0
3, 41280, Note_on_c, 1, 59, 0
3, 41280, Note_on_c, 1, 54, 0
3, 41280, Note_on_c, 1, 62, 95
3, 41280, Note_on_c, 1, 59, 95
3, 41280, Note_on_c, 1, 54, 95
3, 41280, Note_on_c, 1, 47, 95
3, 41520, Note_on_c, 1, 47, 0
3, 41520, Note_on_c, 1, 62, 0
3, 41520, Note_on_c, 1, 59, 0
3, 41520, Note_on_c, 1, 54, 0
3, 41520, Note_on_c, 1, 62, 95
3, 41520, Note_on_c, 1, 59, 95
3, 41520, Note_on_c, 1, 54, 95
3, 41520, Note_on_c, 1, 47, 95
3, 41760, Note_on_c, 1, 47, 0
3, 41760, Note_on_c, 1, 62, 0
3, 41760, Note_on_c, 1, 59, 0
3, 41760, Note_on_c, 1, 54, 0
3, 41760, Note_on_c, 1, 62, 95
3, 41760, Note_on_c, 1, 59, 95
3, 41760, Note_on_c, 1, 54, 95
3, 41760, Note_on_c, 1, 47, 95
3, 42000, Note_on_c, 1, 47, 0
3, 42000, Note_on_c, 1, 62, 0
3, 42000, Note_on_c, 1, 59, 0
3, 42000, Note_on_c, 1, 54, 0
3, 42000, Note_on_c, 1, 62, 95
3, 42000, Note_on_c, 1, 59, 95
3, 42000, Note_on_c, 1, 54, 95
3, 42000, Note_on_c, 1, 47, 95
3, 42240, Note_on_c, 1, 47, 0
3, 42240, Note_on_c, 1, 62, 0
3, 42240, Note_on_c, 1, 59, 0
3, 42240, Note_on_c, 1, 54, 0
3, 42240, Note_on_c, 1, 62, 95
3, 42240, Note_on_c, 1, 59, 95
3, 42240, Note_on_c, 1, 54, 95
3, 42240, Note_on_c, 1, 47, 95
3, 42480, Note_on_c, 1, 47, 0
3, 42480, Note_on_c, 1, 62, 0
3, 42480, Note_on_c, 1, 59, 0
3, 42480, Note_on_c, 1, 54, 0
3, 42480, Note_on_c, 1, 62, 95
3, 42480, Note_on_c, 1, 59, 95
3, 42480, Note_on_c, 1, 54, 95
3, 42480, Note_on_c, 1, 47, 95
3, 42720, Note_on_c, 1, 47, 0
3, 42720, Note_on_c, 1, 62, 0
3, 42720, Note_on_c, 1, 59, 0
3, 42720, Note_on_c, 1, 54, 0
3, 42720, Note_on_c, 1, 55, 95
3, 42720, Note_on_c, 1, 50, 95
3, 42720, Note_on_c, 1, 47, 95
3, 42720, Note_on_c, 1, 43, 95
3, 42960, Note_on_c, 1, 43, 0
3, 42960, Note_on_c, 1, 55, 0
3, 42960, Note_on_c, 1, 50, 0
3, 42960, Note_on_c, 1, 47, 0
3, 42960, Note_on_c, 1, 55, 95
3, 42960, Note_on_c, 1, 50, 95
3, 42960, Note_on_c, 1, 47, 95
3, 42960, Note_on_c, 1, 43, 95
3, 43200, Note_on_c, 1, 43, 0
3, 43200, Note_on_c, 1, 55, 0
3, 43200, Note_on_c, 1, 50, 0
3, 43200, Note_on_c, 1, 47, 0
3, 43200, Note_on_c, 1, 55, 95
3, 43200, Note_on_c, 1, 50, 95
3, 43200, Note_on_c, 1, 47, 95
3, 43200, Note_on_c, 1, 43, 95
3, 43440, Note_on_c, 1, 43, 0
3, 43440, Note_on_c, 1, 55, 0
3, 43440, Note_on_c, 1, 50, 0
3, 43440, Note_on_c, 1, 47, 0
3, 43440, Note_on_c, 1, 55, 95
3, 43440, Note_on_c, 1, 50, 95
3, 43440, Note_on_c, 1, 47, 95
3, 43440, Note_on_c, 1, 43, 95
3, 43680, Note_on_c, 1, 43, 0
3, 43680, Note_on_c, 1, 55, 0
3, 43680, Note_on_c, 1, 50, 0
3, 43680, Note_on_c, 1, 47, 0
3, 43680, Note_on_c, 1, 55, 95
3, 43680, Note_on_c, 1, 50, 95
3, 43680, Note_on_c, 1, 47, 95
3, 43680, Note_on_c, 1, 43, 95
3, 43920, Note_on_c, 1, 43, 0
3, 43920, Note_on_c, 1, 55, 0
3, 43920, Note_on_c, 1, 50, 0
3, 43920, Note_on_c, 1, 47, 0
3, 43920, Note_on_c, 1, 55, 95
3, 43920, Note_on_c, 1, 50, 95
3, 43920, Note_on_c, 1, 47, 95
3, 43920, Note_on_c, 1, 43, 95
3, 44160, Note_on_c, 1, 43, 0
3, 44160, Note_on_c, 1, 55, 0
3, 44160, Note_on_c, 1, 50, 0
3, 44160, Note_on_c, 1, 47, 0
3, 44160, Note_on_c, 1, 55, 95
3, 44160, Note_on_c, 1, 50, 95
3, 44160, Note_on_c, 1, 47, 95
3, 44160, Note_on_c, 1, 43, 95
3, 44400, Note_on_c, 1, 43, 0
3, 44400, Note_on_c, 1, 55, 0
3, 44400, Note_on_c, 1, 50, 0
3, 44400, Note_on_c, 1, 47, 0
3, 44400, Note_on_c, 1, 55, 95
3, 44400, Note_on_c, 1, 50, 95
3, 44400, Note_on_c, 1, 47, 95
3, 44400, Note_on_c, 1, 43, 95
3, 44640, Note_on_c, 1, 43, 0
3, 44640, Note_on_c, 1, 55, 0
3, 44640, Note_on_c, 1, 50, 0
3, 44640, Note_on_c, 1, 47, 0
3, 44640, Note_on_c, 1, 55, 95
3, 44640, Note_on_c, 1, 52, 95
3, 44640, Note_on_c, 1, 47, 95
3, 44640, Note_on_c, 1, 40, 95
3, 44880, Note_on_c, 1, 40, 0
3, 44880, Note_on_c, 1, 55, 0
3, 44880, Note_on_c, 1, 52, 0
3, 44880, Note_on_c, 1, 47, 0
3, 44880, Note_on_c, 1, 55, 95
3, 44880, Note_on_c, 1, 52, 95
3, 44880, Note_on_c, 1, 47, 95
3, 44880, Note_on_c, 1, 40, 95
3, 45120, Note_on_c, 1, 40, 0
3, 45120, Note_on_c, 1, 55, 0
3, 45120, Note_on_c, 1, 52, 0
3, 45120, Note_on_c, 1, 47, 0
3, 45120, Note_on_c, 1, 55, 95
3, 45120, Note_on_c, 1, 52, 95
3, 45120, Note_on_c, 1, 47, 95
3, 45120, Note_on_c, 1, 40, 95
3, 45360, Note_on_c, 1, 40, 0
3, 45360, Note_on_c, 1, 55, 0
3, 45360, Note_on_c, 1, 52, 0
3, 45360, Note_on_c, 1, 47, 0
3, 45360, Note_on_c, 1, 55, 95
3, 45360, Note_on_c, 1, 52, 95
3, 45360, Note_on_c, 1, 47, 95
3, 45360, Note_on_c, 1, 40, 95
3, 45600, Note_on_c, 1, 40, 0
3, 45600, Note_on_c, 1, 55, 0
3, 45600, Note_on_c, 1, 52, 0
3, 45600, Note_on_c, 1, 47, 0
3, 45600, Note_on_c, 1, 55, 95
3, 45600, Note_on_c, 1, 52, 95
3, 45600, Note_on_c, 1, 47, 95
3, 45600, Note_on_c, 1, 40, 95
3, 45840, Note_on_c, 1, 40, 0
3, 45840, Note_on_c, 1, 55, 0
3, 45840, Note_on_c, 1, 52, 0
3, 45840, Note_on_c, 1, 47, 0
3, 45840, Note_on_c, 1, 55, 95
3, 45840, Note_on_c, 1, 52, 95
3, 45840, Note_on_c, 1, 47, 95
3, 45840, Note_on_c, 1, 40, 95
3, 46080, Note_on_c, 1, 40, 0
3, 46080, Note_on_c, 1, 55, 0
3, 46080, Note_on_c, 1, 52, 0
3, 46080, Note_on_c, 1, 47, 0
3, 46080, Note_on_c, 1, 55, 95
3, 46080, Note_on_c, 1, 52, 95
3, 46080, Note_on_c, 1, 47, 95
3, 46080, Note_on_c, 1, 40, 95
3, 46320, Note_on_c, 1, 40, 0
3, 46320, Note_on_c, 1, 55, 0
3, 46320, Note_on_c, 1, 52, 0
3, 46320, Note_on_c, 1, 47, 0
3, 46320, Note_on_c, 1, 55, 95
3, 46320, Note_on_c, 1, 52, 95
3, 46320, Note_on_c, 1, 47, 95
3, 46320, Note_on_c, 1, 40, 95
3, 46560, Note_on_c, 1, 40, 0
3, 46560, Note_on_c, 1, 55, 0
3, 46560, Note_on_c, 1, 52, 0
3, 46560, Note_on_c, 1, 47, 0
3, 46560, Note_on_c, 1, 62, 95
3, 46560, Note_on_c, 1, 59, 95
3, 46560, Note_on_c, 1, 54, 95
3, 46560, Note_on_c, 1, 47, 95
3, 46800, Note_on_c, 1, 47, 0
3, 46800, Note_on_c, 1, 62, 0
3, 46800, Note_on_c, 1, 59, 0
3, 46800, Note_on_c, 1, 54, 0
3, 46800, Note_on_c, 1, 62, 95
3, 46800, Note_on_c, 1, 59, 95
3, 46800, Note_on_c, 1, 54, 95
3, 46800, Note_on_c, 1, 47, 95
3, 47040, Note_on_c, 1, 47, 0
3, 47040, Note_on_c, 1, 62, 0
3, 47040, Note_on_c, 1, 59, 0
3, 47040, Note_on_c, 1, 54, 0
3, 47040, Note_on_c, 1, 62, 95
3, 47040, Note_on_c, 1, 59, 95
3, 47040, Note_on_c, 1, 54, 95
3, 47040, Note_on_c, 1, 47, 95
3, 47280, Note_on_c, 1, 47, 0
3, 47280, Note_on_c, 1, 62, 0
3, 47280, Note_on_c, 1, 59, 0
3, 47280, Note_on_c, 1, 54, 0
3, 47280, Note_on_c, 1, 62, 95
3, 47280, Note_on_c, 1, 59, 95
3, 47280, Note_on_c, 1, 54, 95
3, 47280, Note_on_c, 1, 47, 95
3, 47520, Note_on_c, 1, 47, 0
3, 47520, Note_on_c, 1, 62, 0
3, 47520, Note_on_c, 1, 59, 0
3, 47520, Note_on_c, 1, 54, 0
3, 47520, Note_on_c, 1, 62, 95
3, 47520, Note_on_c, 1, 59, 95
3, 47520, Note_on_c, 1, 54, 95
3, 47520, Note_on_c, 1, 47, 95
3, 47760, Note_on_c, 1, 47, 0
3, 47760, Note_on_c, 1, 62, 0
3, 47760, Note_on_c, 1, 59, 0
3, 47760, Note_on_c, 1, 54, 0
3, 47760, Note_on_c, 1, 62, 95
3, 47760, Note_on_c, 1, 59, 95
3, 47760, Note_on_c, 1, 54, 95
3, 47760, Note_on_c, 1, 47, 95
3, 48000, Note_on_c, 1, 47, 0
3, 48000, Note_on_c, 1, 62, 0
3, 48000, Note_on_c, 1, 59, 0
3, 48000, Note_on_c, 1, 54, 0
3, 48000, Note_on_c, 1, 62, 95
3, 48000, Note_on_c, 1, 59, 95
3, 48000, Note_on_c, 1, 54, 95
3, 48000, Note_on_c, 1, 47, 95
3, 48240, Note_on_c, 1, 47, 0
3, 48240, Note_on_c, 1, 62, 0
3, 48240, Note_on_c, 1, 59, 0
3, 48240, Note_on_c, 1, 54, 0
3, 48240, Note_on_c, 1, 62, 95
3, 48240, Note_on_c, 1, 59, 95
3, 48240, Note_on_c, 1, 54, 95
3, 48240, Note_on_c, 1, 47, 95
3, 48480, Note_on_c, 1, 47, 0
3, 48480, Note_on_c, 1, 62, 0
3, 48480, Note_on_c, 1, 59, 0
3, 48480, Note_on_c, 1, 54, 0
3, 48480, Note_on_c, 1, 55, 95
3, 48480, Note_on_c, 1, 50, 95
3, 48480, Note_on_c, 1, 47, 95
3, 48480, Note_on_c, 1, 43, 95
3, 48720, Note_on_c, 1, 43, 0
3, 48720, Note_on_c, 1, 55, 0
3, 48720, Note_on_c, 1, 50, 0
3, 48720, Note_on_c, 1, 47, 0
3, 48720, Note_on_c, 1, 55, 95
3, 48720, Note_on_c, 1, 50, 95
3, 48720, Note_on_c, 1, 47, 95
3, 48720, Note_on_c, 1, 43, 95
3, 48960, Note_on_c, 1, 43, 0
3, 48960, Note_on_c, 1, 55, 0
3, 48960, Note_on_c, 1, 50, 0
3, 48960, Note_on_c, 1, 47, 0
3, 48960, Note_on_c, 1, 55, 95
3, 48960, Note_on_c, 1, 50, 95
3, 48960, Note_on_c, 1, 47, 95
3, 48960, Note_on_c, 1, 43, 95
3, 49200, Note_on_c, 1, 43, 0
3, 49200, Note_on_c, 1, 55, 0
3, 49200, Note_on_c, 1, 50, 0
3, 49200, Note_on_c, 1, 47, 0
3, 49200, Note_on_c, 1, 55, 95
3, 49200, Note_on_c, 1, 50, 95
3, 49200, Note_on_c, 1, 47, 95
3, 49200, Note_on_c, 1, 43, 95
3, 49440, Note_on_c, 1, 43, 0
3, 49440, Note_on_c, 1, 55, 0
3, 49440, Note_on_c, 1, 50, 0
3, 49440, Note_on_c, 1, 47, 0
3, 49440, Note_on_c, 1, 55, 95
3, 49440, Note_on_c, 1, 50, 95
3, 49440, Note_on_c, 1, 47, 95
3, 49440, Note_on_c, 1, 43, 95
3, 49680, Note_on_c, 1, 43, 0
3, 49680, Note_on_c, 1, 55, 0
3, 49680, Note_on_c, 1, 50, 0
3, 49680, Note_on_c, 1, 47, 0
3, 49680, Note_on_c, 1, 55, 95
3, 49680, Note_on_c, 1, 50, 95
3, 49680, Note_on_c, 1, 47, 95
3, 49680, Note_on_c, 1, 43, 95
3, 49920, Note_on_c, 1, 43, 0
3, 49920, Note_on_c, 1, 55, 0
3, 49920, Note_on_c, 1, 50, 0
3, 49920, Note_on_c, 1, 47, 0
3, 49920, Note_on_c, 1, 55, 95
3, 49920, Note_on_c, 1, 50, 95
3, 49920, Note_on_c, 1, 47, 95
3, 49920, Note_on_c, 1, 43, 95
3, 50160, Note_on_c, 1, 43, 0
3, 50160, Note_on_c, 1, 55, 0
3, 50160, Note_on_c, 1, 50, 0
3, 50160, Note_on_c, 1, 47, 0
3, 50160, Note_on_c, 1, 55, 95
3, 50160, Note_on_c, 1, 50, 95
3, 50160, Note_on_c, 1, 47, 95
3, 50160, Note_on_c, 1, 43, 95
3, 50400, Note_on_c, 1, 43, 0
3, 50400, Note_on_c, 1, 55, 0
3, 50400, Note_on_c, 1, 50, 0
3, 50400, Note_on_c, 1, 47, 0
3, 50400, Note_on_c, 1, 55, 95
3, 50400, Note_on_c, 1, 52, 95
3, 50400, Note_on_c, 1, 47, 95
3, 50400, Note_on_c, 1, 40, 95
3, 50640, Note_on_c, 1, 40, 0
3, 50640, Note_on_c, 1, 55, 0
3, 50640, Note_on_c, 1, 52, 0
3, 50640, Note_on_c, 1, 47, 0
3, 50640, Note_on_c, 1, 55, 95
3, 50640, Note_on_c, 1, 52, 95
3, 50640, Note_on_c, 1, 47, 95
3, 50640, Note_on_c, 1, 40, 95
3, 50880, Note_on_c, 1, 40, 0
3, 50880, Note_on_c, 1, 55, 0
3, 50880, Note_on_c, 1, 52, 0
3, 50880, Note_on_c, 1, 47, 0
3, 50880, Note_on_c, 1, 55, 95
3, 50880, Note_on_c, 1, 52, 95
3, 50880, Note_on_c, 1, 47, 95
3, 50880, Note_on_c, 1, 40, 95
3, 51120, Note_on_c, 1, 40, 0
3, 51120, Note_on_c, 1, 55, 0
3, 51120, Note_on_c, 1, 52, 0
3, 51120, Note_on_c, 1, 47, 0
3, 51120, Note_on_c, 1, 55, 95
3, 51120, Note_on_c, 1, 52, 95
3, 51120, Note_on_c, 1, 47, 95
3, 51120, Note_on_c, 1, 40, 95
3, 51360, Note_on_c, 1, 40, 0
3, 51360, Note_on_c, 1, 55, 0
3, 51360, Note_on_c, 1, 52, 0
3, 51360, Note_on_c, 1, 47, 0
3, 51360, Note_on_c, 1, 55, 95
3, 51360, Note_on_c, 1, 52, 95
3, 51360, Note_on_c, 1, 47, 95
3, 51360, Note_on_c, 1, 40, 95
3, 51600, Note_on_c, 1, 40, 0
3, 51600, Note_on_c, 1, 55, 0
3, 51600, Note_on_c, 1, 52, 0
3, 51600, Note_on_c, 1, 47, 0
3, 51600, Note_on_c, 1, 55, 95
3, 51600, Note_on_c, 1, 52, 95
3, 51600, Note_on_c, 1, 47, 95
3, 51600, Note_on_c, 1, 40, 95
3, 51840, Note_on_c, 1, 40, 0
3, 51840, Note_on_c, 1, 55, 0
3, 51840, Note_on_c, 1, 52, 0
3, 51840, Note_on_c, 1, 47, 0
3, 51840, Note_on_c, 1, 55, 95
3, 51840, Note_on_c, 1, 52, 95
3, 51840, Note_on_c, 1, 47, 95
3, 51840, Note_on_c, 1, 40, 95
3, 52080, Note_on_c, 1, 40, 0
3, 52080, Note_on_c, 1, 55, 0
3, 52080, Note_on_c, 1, 52, 0
3, 52080, Note_on_c, 1, 47, 0
3, 52080, Note_on_c, 1, 55, 95
3, 52080, Note_on_c, 1, 52, 95
3, 52080, Note_on_c, 1, 47, 95
3, 52080, Note_on_c, 1, 40, 95
3, 52320, Note_on_c, 1, 40, 0
3, 52320, Note_on_c, 1, 55, 0
3, 52320, Note_on_c, 1, 52, 0
3, 52320, Note_on_c, 1, 47, 0
3, 52320, Note_on_c, 1, 62, 95
3, 52320, Note_on_c, 1, 59, 95
3, 52320, Note_on_c, 1, 54, 95
3, 52320, Note_on_c, 1, 47, 95
3, 52560, Note_on_c, 1, 47, 0
3, 52560, Note_on_c, 1, 62, 0
3, 52560, Note_on_c, 1, 59, 0
3, 52560, Note_on_c, 1, 54, 0
3, 52560, Note_on_c, 1, 62, 95
3, 52560, Note_on_c, 1, 59, 95
3, 52560, Note_on_c, 1, 54, 95
3, 52560, Note_on_c, 1, 47, 95
3, 52800, Note_on_c, 1, 47, 0
3, 52800, Note_on_c, 1, 62, 0
3, 52800, Note_on_c, 1, 59, 0
3, 52800, Note_on_c, 1, 54, 0
3, 52800, Note_on_c, 1, 62, 95
3, 52800, Note_on_c, 1, 59, 95
3, 52800, Note_on_c, 1, 54, 95
3, 52800, Note_on_c, 1, 47, 95
3, 53040, Note_on_c, 1, 47, 0
3, 53040, Note_on_c, 1, 62, 0
3, 53040, Note_on_c, 1, 59, 0
3, 53040, Note_on_c, 1, 54, 0
3, 53040, Note_on_c, 1, 62, 95
3, 53040, Note_on_c, 1, 59, 95
3, 53040, Note_on_c, 1, 54, 95
3, 53040, Note_on_c, 1, 47, 95
3, 53280, Note_on_c, 1, 47, 0
3, 53280, Note_on_c, 1, 62, 0
3, 53280, Note_on_c, 1, 59, 0
3, 53280, Note_on_c, 1, 54, 0
3, 53280, Note_on_c, 1, 62, 95
3, 53280, Note_on_c, 1, 59, 95
3, 53280, Note_on_c, 1, 54, 95
3, 53280, Note_on_c, 1, 47, 95
3, 53520, Note_on_c, 1, 47, 0
3, 53520, Note_on_c, 1, 62, 0
3, 53520, Note_on_c, 1, 59, 0
3, 53520, Note_on_c, 1, 54, 0
3, 53520, Note_on_c, 1, 62, 95
3, 53520, Note_on_c, 1, 59, 95
3, 53520, Note_on_c, 1, 54, 95
3, 53520, Note_on_c, 1, 47, 95
3, 53760, Note_on_c, 1, 47, 0
3, 53760, Note_on_c, 1, 62, 0
3, 53760, Note_on_c, 1, 59, 0
3, 53760, Note_on_c, 1, 54, 0
3, 53760, Note_on_c, 1, 62, 95
3, 53760, Note_on_c, 1, 59, 95
3, 53760, Note_on_c, 1, 54, 95
3, 53760, Note_on_c, 1, 47, 95
3, 54000, Note_on_c, 1, 47, 0
3, 54000, Note_on_c, 1, 62, 0
3, 54000, Note_on_c, 1, 59, 0
3, 54000, Note_on_c, 1, 54, 0
3, 54000, Note_on_c, 1, 62, 95
3, 54000, Note_on_c, 1, 59, 95
3, 54000, Note_on_c, 1, 54, 95
3, 54000, Note_on_c, 1, 47, 95
3, 54240, Note_on_c, 1, 47, 0
3, 54240, Note_on_c, 1, 62, 0
3, 54240, Note_on_c, 1, 59, 0
3, 54240, Note_on_c, 1, 54, 0
3, 54240, Note_on_c, 1, 55, 95
3, 54240, Note_on_c, 1, 50, 95
3, 54240, Note_on_c, 1, 47, 95
3, 54240, Note_on_c, 1, 43, 95
3, 54480, Note_on_c, 1, 43, 0
3, 54480, Note_on_c, 1, 55, 0
3, 54480, Note_on_c, 1, 50, 0
3, 54480, Note_on_c, 1, 47, 0
3, 54480, Note_on_c, 1, 55, 95
3, 54480, Note_on_c, 1, 50, 95
3, 54480, Note_on_c, 1, 47, 95
3, 54480, Note_on_c, 1, 43, 95
3, 54720, Note_on_c, 1, 43, 0
3, 54720, Note_on_c, 1, 55, 0
3, 54720, Note_on_c, 1, 50, 0
3, 54720, Note_on_c, 1, 47, 0
3, 54720, Note_on_c, 1, 55, 95
3, 54720, Note_on_c, 1, 50, 95
3, 54720, Note_on_c, 1, 47, 95
3, 54720, Note_on_c, 1, 43, 95
3, 54960, Note_on_c, 1, 43, 0
3, 54960, Note_on_c, 1, 55, 0
3, 54960, Note_on_c, 1, 50, 0
3, 54960, Note_on_c, 1, 47, 0
3, 54960, Note_on_c, 1, 55, 95
3, 54960, Note_on_c, 1, 50, 95
3, 54960, Note_on_c, 1, 47, 95
3, 54960, Note_on_c, 1, 43, 95
3, 55200, Note_on_c, 1, 43, 0
3, 55200, Note_on_c, 1, 55, 0
3, 55200, Note_on_c, 1, 50, 0
3, 55200, Note_on_c, 1, 47, 0
3, 55200, Note_on_c, 1, 55, 95
3, 55200, Note_on_c, 1, 50, 95
3, 55200, Note_on_c, 1, 47, 95
3, 55200, Note_on_c, 1, 43, 95
3, 55440, Note_on_c, 1, 43, 0
3, 55440, Note_on_c, 1, 55, 0
3, 55440, Note_on_c, 1, 50, 0
3, 55440, Note_on_c, 1, 47, 0
3, 55440, Note_on_c, 1, 55, 95
3, 55440, Note_on_c, 1, 50, 95
3, 55440, Note_on_c, 1, 47, 95
3, 55440, Note_on_c, 1, 43, 95
3, 55680, Note_on_c, 1, 43, 0
3, 55680, Note_on_c, 1, 55, 0
3, 55680, Note_on_c, 1, 50, 0
3, 55680, Note_on_c, 1, 47, 0
3, 55680, Note_on_c, 1, 55, 95
3, 55680, Note_on_c, 1, 50, 95
3, 55680, Note_on_c, 1, 47, 95
3, 55680, Note_on_c, 1, 43, 95
3, 55920, Note_on_c, 1, 43, 0
3, 55920, Note_on_c, 1, 55, 0
3, 55920, Note_on_c, 1, 50, 0
3, 55920, Note_on_c, 1, 47, 0
3, 55920, Note_on_c, 1, 55, 95
3, 55920, Note_on_c, 1, 50, 95
3, 55920, Note_on_c, 1, 47, 95
3, 55920, Note_on_c, 1, 43, 95
3, 56160, Note_on_c, 1, 43, 0
3, 56160, Note_on_c, 1, 55, 0
3, 56160, Note_on_c, 1, 50, 0
3, 56160, Note_on_c, 1, 47, 0
3, 56160, Note_on_c, 1, 55, 95
3, 56160, Note_on_c, 1, 52, 95
3, 56160, Note_on_c, 1, 47, 95
3, 56160, Note_on_c, 1, 40, 95
3, 56400, Note_on_c, 1, 40, 0
3, 56400, Note_on_c, 1, 55, 0
3, 56400, Note_on_c, 1, 52, 0
3, 56400, Note_on_c, 1, 47, 0
3, 56400, Note_on_c, 1, 55, 95
3, 56400, Note_on_c, 1, 52, 95
3, 56400, Note_on_c, 1, 47, 95
3, 56400, Note_on_c, 1, 40, 95
3, 56640, Note_on_c, 1, 40, 0
3, 56640, Note_on_c, 1, 55, 0
3, 56640, Note_on_c, 1, 52, 0
3, 56640, Note_on_c, 1, 47, 0
3, 56640, Note_on_c, 1, 55, 95
3, 56640, Note_on_c, 1, 52, 95
3, 56640, Note_on_c, 1, 47, 95
3, 56640, Note_on_c, 1, 40, 95
3, 56880, Note_on_c, 1, 40, 0
3, 56880, Note_on_c, 1, 55, 0
3, 56880, Note_on_c, 1, 52, 0
3, 56880, Note_on_c, 1, 47, 0
3, 56880, Note_on_c, 1, 55, 95
3, 56880, Note_on_c, 1, 52, 95
3, 56880, Note_on_c, 1, 47, 95
3, 56880, Note_on_c, 1, 40, 95
3, 57120, Note_on_c, 1, 40, 0
3, 57120, Note_on_c, 1, 55, 0
3, 57120, Note_on_c, 1, 52, 0
3, 57120, Note_on_c, 1, 47, 0
3, 57120, Note_on_c, 1, 55, 95
3, 57120, Note_on_c, 1, 52, 95
3, 57120, Note_on_c, 1, 47, 95
3, 57120, Note_on_c, 1, 40, 95
3, 57360, Note_on_c, 1, 40, 0
3, 57360, Note_on_c, 1, 55, 0
3, 57360, Note_on_c, 1, 52, 0
3, 57360, Note_on_c, 1, 47, 0
3, 57360, Note_on_c, 1, 55, 95
3, 57360, Note_on_c, 1, 52, 95
3, 57360, Note_on_c, 1, 47, 95
3, 57360, Note_on_c, 1, 40, 95
3, 57600, Note_on_c, 1, 40, 0
3, 57600, Note_on_c, 1, 55, 0
3, 57600, Note_on_c, 1, 52, 0
3, 57600, Note_on_c, 1, 47, 0
3, 57600, Note_on_c, 1, 55, 95
3, 57600, Note_on_c, 1, 52, 95
3, 57600, Note_on_c, 1, 47, 95
3, 57600, Note_on_c, 1, 40, 95
3, 57840, Note_on_c, 1, 40, 0
3, 57840, Note_on_c, 1, 55, 0
3, 57840, Note_on_c, 1, 52, 0
3, 57840, Note_on_c, 1, 47, 0
3, 57840, Note_on_c, 1, 55, 95
3, 57840, Note_on_c, 1, 52, 95
3, 57840, Note_on_c, 1, 47, 95
3, 57840, Note_on_c, 1, 40, 95
3, 58080, Note_on_c, 1, 40, 0
3, 58080, Note_on_c, 1, 55, 0
3, 58080, Note_on_c, 1, 52, 0
3, 58080, Note_on_c, 1, 47, 0
3, 58080, Note_on_c, 1, 62, 95
3, 58080, Note_on_c, 1, 59, 95
3, 58080, Note_on_c, 1, 54, 95
3, 58080, Note_on_c, 1, 47, 95
3, 58320, Note_on_c, 1, 47, 0
3, 58320, Note_on_c, 1, 62, 0
3, 58320, Note_on_c, 1, 59, 0
3, 58320, Note_on_c, 1, 54, 0
3, 58320, Note_on_c, 1, 62, 95
3, 58320, Note_on_c, 1, 59, 95
3, 58320, Note_on_c, 1, 54, 95
3, 58320, Note_on_c, 1, 47, 95
3, 58560, Note_on_c, 1, 47, 0
3, 58560, Note_on_c, 1, 62, 0
3, 58560, Note_on_c, 1, 59, 0
3, 58560, Note_on_c, 1, 54, 0
3, 58560, Note_on_c, 1, 62, 95
3, 58560, Note_on_c, 1, 59, 95
3, 58560, Note_on_c, 1, 54, 95
3, 58560, Note_on_c, 1, 47, 95
3, 58800, Note_on_c, 1, 47, 0
3, 58800, Note_on_c, 1, 62, 0
3, 58800, Note_on_c, 1, 59, 0
3, 58800, Note_on_c, 1, 54, 0
3, 58800, Note_on_c, 1, 62, 95
3, 58800, Note_on_c, 1, 59, 95
3, 58800, Note_on_c, 1, 54, 95
3, 58800, Note_on_c, 1, 47, 95
3, 59040, Note_on_c, 1, 47, 0
3, 59040, Note_on_c, 1, 62, 0
3, 59040, Note_on_c, 1, 59, 0
3, 59040, Note_on_c, 1, 54, 0
3, 59040, Note_on_c, 1, 62, 95
3, 59040, Note_on_c, 1, 59, 95
3, 59040, Note_on_c, 1, 54, 95
3, 59040, Note_on_c, 1, 47, 95
3, 59280, Note_on_c, 1, 47, 0
3, 59280, Note_on_c, 1, 62, 0
3, 59280, Note_on_c, 1, 59, 0
3, 59280, Note_on_c, 1, 54, 0
3, 59280, Note_on_c, 1, 62, 95
3, 59280, Note_on_c, 1, 59, 95
3, 59280, Note_on_c, 1, 54, 95
3, 59280, Note_on_c, 1, 47, 95
3, 59520, Note_on_c, 1, 47, 0
3, 59520, Note_on_c, 1, 62, 0
3, 59520, Note_on_c, 1, 59, 0
3, 59520, Note_on_c, 1, 54, 0
3, 59520, Note_on_c, 1, 62, 95
3, 59520, Note_on_c, 1, 59, 95
3, 59520, Note_on_c, 1, 54, 95
3, 59520, Note_on_c, 1, 47, 95
3, 59760, Note_on_c, 1, 47, 0
3, 59760, Note_on_c, 1, 62, 0
3, 59760, Note_on_c, 1, 59, 0
3, 59760, Note_on_c, 1, 54, 0
3, 59760, Note_on_c, 1, 62, 95
3, 59760, Note_on_c, 1, 59, 95
3, 59760, Note_on_c, 1, 54, 95
3, 59760, Note_on_c, 1, 47, 95
3, 60000, Note_on_c, 1, 47, 0
3, 60000, Note_on_c, 1, 62, 0
3, 60000, Note_on_c, 1, 59, 0
3, 60000, Note_on_c, 1, 54, 0
3, 67680, Note_on_c, 1, 62, 95
3, 68160, Note_on_c, 1, 62, 0
3, 68160, Note_on_c, 1, 59, 95
3, 68400, Note_on_c, 1, 59, 0
3, 68400, Note_on_c, 1, 57, 95
3, 68880, Note_on_c, 1, 57, 0
3, 68880, Note_on_c, 1, 54, 95
3, 69120, Note_on_c, 1, 54, 0
3, 69120, Note_on_c, 1, 52, 95
3, 69240, Note_on_c, 1, 52, 0
3, 69240, Note_on_c, 1, 53, 86
3, 69360, Note_on_c, 1, 53, 0
3, 69360, Note_on_c, 1, 54, 86
3, 69440, Pitch_bend_c, 1, 8192
3, 69520, Pitch_bend_c, 1, 8448
3, 69600, Note_on_c, 1, 54, 0
3, 69600, Pitch_bend_c, 1, 8192
3, 69600, Pitch_bend_c, 1, 8192
3, 69600, Note_on_c, 1, 61, 95
3, 70080, Note_on_c, 1, 61, 0
3, 70080, Note_on_c, 1, 57, 95
3, 70320, Note_on_c, 1, 57, 0
3, 70320, Note_on_c, 1, 54, 95
3, 70800, Note_on_c, 1, 54, 0
3, 70800, Note_on_c, 1, 52, 95
3, 71040, Note_on_c, 1, 52, 0
3, 71040, Note_on_c, 1, 52, 95
3, 71160, Note_on_c, 1, 52, 0
3, 71160, Note_on_c, 1, 53, 86
3, 71280, Note_on_c, 1, 53, 0
3, 71280, Note_on_c, 1, 54, 86
3, 71520, Note_on_c, 1, 54, 0
3, 71520, Note_on_c, 1, 52, 95
3, 72000, Note_on_c, 1, 52, 0
3, 72000, Note_on_c, 1, 50, 95
3, 72240, Note_on_c, 1, 50, 0
3, 72240, Note_on_c, 1, 47, 95
3, 72720, Note_on_c, 1, 47, 0
3, 72720, Note_on_c, 1, 45, 95
3, 72960, Note_on_c, 1, 45, 0
3, 72960, Note_on_c, 1, 45, 95
3, 73080, Note_on_c, 1, 45, 0
3, 73080, Note_on_c, 1, 46, 86
3, 73200, Note_on_c, 1, 46, 0
3, 73200, Note_on_c, 1, 47, 86
3, 73440, Note_on_c, 1, 47, 0
3, 73440, Note_on_c, 1, 52, 95
3, 73920, Note_on_c, 1, 52, 0
3, 73920, Note_on_c, 1, 50, 95
3, 74160, Note_on_c, 1, 50, 0
3, 74160, Note_on_c, 1, 47, 95
3, 74640, Note_on_c, 1, 47, 0
3, 74640, Note_on_c, 1, 45, 95
3, 74880, Note_on_c, 1, 45, 0
3, 74880, Note_on_c, 1, 45, 95
3, 75000, Note_on_c, 1, 45, 0
3, 75000, Note_on_c, 1, 46, 86
3, 75120, Note_on_c, 1, 46, 0
3, 75120, Note_on_c, 1, 47, 86
3, 75200, Pitch_bend_c, 1, 8192
3, 75280, Pitch_bend_c, 1, 8448
3, 75360, Note_on_c, 1, 47, 0
3, 75360, Pitch_bend_c, 1, 8192
3, 75360, Pitch_bend_c, 1, 8192
3, 75360, Note_on_c, 1, 62, 95
3, 75840, Note_on_c, 1, 62, 0
3, 75840, Note_on_c, 1, 59, 95
3, 76080, Note_on_c, 1, 59, 0
3, 76080, Note_on_c, 1, 57, 95
3, 76560, Note_on_c, 1, 57, 0
3, 76560, Note_on_c, 1, 54, 95
3, 76800, Note_on_c, 1, 54, 0
3, 76800, Note_on_c, 1, 52, 95
3, 76920, Note_on_c, 1, 52, 0
3, 76920, Note_on_c, 1, 53, 86
3, 77040, Note_on_c, 1, 53, 0
3, 77040, Note_on_c, 1, 54, 86
3, 77120, Pitch_bend_c, 1, 8192
3, 77200, Pitch_bend_c, 1, 8448
3, 77280, Note_on_c, 1, 54, 0
3, 77280, Pitch_bend_c, 1, 8192
3, 77280, Pitch_bend_c, 1, 8192
3, 77280, Note_on_c, 1, 61, 95
3, 77760, Note_on_c, 1, 61, 0
3, 77760, Note_on_c, 1, 57, 95
3, 78000, Note_on_c, 1, 57, 0
3, 78000, Note_on_c, 1, 54, 95
3, 78480, Note_on_c, 1, 54, 0
3, 78480, Note_on_c, 1, 52, 95
3, 78720, Note_on_c, 1, 52, 0
3, 78720, Note_on_c, 1, 52, 95
3, 78840, Note_on_c, 1, 52, 0
3, 78840, Note_on_c, 1, 53, 86
3, 78960, Note_on_c, 1, 53, 0
3, 78960, Note_on_c, 1, 54, 86
3, 79200, Note_on_c, 1, 54, 0
3, 79200, Note_on_c, 1, 52, 95
3, 79680, Note_on_c, 1, 52, 0
3, 79680, Note_on_c, 1, 50, 95
3, 79920, Note_on_c, 1, 50, 0
3, 79920, Note_on_c, 1, 47, 95
3, 80400, Note_on_c, 1, 47, 0
3, 80400, Note_on_c, 1, 45, 95
3, 80640, Note_on_c, 1, 45, 0
3, 80640, Note_on_c, 1, 45, 95
3, 80760, Note_on_c, 1, 45, 0
3, 80760, Note_on_c, 1, 46, 86
3, 80880, Note_on_c, 1, 46, 0
3, 80880, Note_on_c, 1, 47, 86
3, 81120, Note_on_c, 1, 47, 0
3, 81120, Note_on_c, 1, 52, 95
3, 81600, Note_on_c, 1, 52, 0
3, 81600, Note_on_c, 1, 50, 95
3, 81840, Note_on_c, 1, 50, 0
3, 81840, Note_on_c, 1, 47, 95
3, 82320, Note_on_c, 1, 47, 0
3, 82320, Note_on_c, 1, 45, 95
3, 82560, Note_on_c, 1, 45, 0
3, 82560, Note_on_c, 1, 45, 95
3, 82680, Note_on_c, 1, 45, 0
3, 82680, Note_on_c, 1, 46, 86
3, 82800, Note_on_c, 1, 46, 0
3, 82800, Note_on_c, 1, 47, 86
3, 83040, Note_on_c, 1, 47, 0
3, 83040, Note_on_c, 1, 62, 95
3, 83040, Note_on_c, 1, 57, 95
3, 83160, Note_on_c, 1, 57, 0
3, 83160, Note_on_c, 1, 62, 0
3, 83160, Note_on_c, 1, 59, 86
3, 83400, Note_on_c, 1, 59, 0
3, 83400, Note_on_c, 1, 62, 95
3, 83416, Note_on_c, 1, 66, 95
3, 83520, Note_on_c, 1, 66, 0
3, 83520, Note_on_c, 1, 62, 0
3, 83520, Note_on_c, 1, 66, 95
3, 83520, Note_on_c, 1, 62, 95
3, 83640, Note_on_c, 1, 62, 0
3, 83640, Note_on_c, 1, 66, 0
3, 83760, Note_on_c, 1, 57, 95
3, 84000, Note_on_c, 1, 57, 0
3, 84000, Note_on_c, 1, 59, 86
3, 84240, Note_on_c, 1, 59, 0
3, 84240, Note_on_c, 1, 66, 95
3, 84240, Note_on_c, 1, 62, 95
3, 84480, Note_on_c, 1, 62, 0
3, 84480, Note_on_c, 1, 66, 0
3, 84480, Note_on_c, 1, 59, 95
3, 84720, Note_on_c, 1, 59, 0
3, 84720, Note_on_c, 1, 57, 95
3, 84960, Note_on_c, 1, 57, 0
3, 84960, Note_on_c, 1, 57, 95
3, 84960, Note_on_c, 1, 52, 95
3, 85080, Note_on_c, 1, 52, 0
3, 85080, Note_on_c, 1, 57, 0
3, 85080, Note_on_c, 1, 54, 86
3, 85320, Note_on_c, 1, 54, 0
3, 85320, Note_on_c, 1, 62, 95
3, 85336, Note_on_c, 1, 66, 95
3, 85440, Note_on_c, 1, 66, 0
3, 85440, Note_on_c, 1, 62, 0
3, 85440, Note_on_c, 1, 66, 95
3, 85440, Note_on_c, 1, 62, 95
3, 85560, Note_on_c, 1, 62, 0
3, 85560, Note_on_c, 1, 66, 0
3, 85680, Note_on_c, 1, 52, 95
3, 85920, Note_on_c, 1, 52, 0
3, 85920, Note_on_c, 1, 54, 86
3, 86160, Note_on_c, 1, 54, 0
3, 86160, Note_on_c, 1, 66, 95
3, 86160, Note_on_c, 1, 62, 95
3, 86160, Note_on_c, 1, 57, 95
3, 86400, Note_on_c, 1, 57, 0
3, 86400, Note_on_c, 1, 62, 0
3, 86400, Note_on_c, 1, 66, 0
3, 86400, Note_on_c, 1, 59, 95
3, 86640, Note_on_c, 1, 59, 0
3, 86640, Note_on_c, 1, 57, 95
3, 86880, Note_on_c, 1, 57, 0
3, 86880, Note_on_c, 1, 62, 95
3, 86880, Note_on_c, 1, 57, 95
3, 87000, Note_on_c, 1, 57, 0
3, 87000, Note_on_c, 1, 62, 0
3, 87000, Note_on_c, 1, 59, 86
3, 87240, Note_on_c, 1, 59, 0
3, 87240, Note_on_c, 1, 66, 95
3, 87240, Note_on_c, 1, 62, 95
3, 87360, Note_on_c, 1, 62, 0
3, 87360, Note_on_c, 1, 66, 0
3, 87360, Note_on_c, 1, 66, 95
3, 87360, Note_on_c, 1, 62, 95
3, 87480, Note_on_c, 1, 62, 0
3, 87480, Note_on_c, 1, 66, 0
3, 87600, Note_on_c, 1, 57, 95
3, 87840, Note_on_c, 1, 57, 0
3, 87840, Note_on_c, 1, 59, 86
3, 88080, Note_on_c, 1, 59, 0
3, 88080, Note_on_c, 1, 66, 95
3, 88080, Note_on_c, 1, 62, 95
3, 88320, Note_on_c, 1, 62, 0
3, 88320, Note_on_c, 1, 66, 0
3, 88320, Note_on_c, 1, 59, 95
3, 88560, Note_on_c, 1, 59, 0
3, 88560, Note_on_c, 1, 57, 95
3, 88800, Note_on_c, 1, 57, 0
3, 88800, Note_on_c, 1, 62, 95
3, 88800, Note_on_c, 1, 57, 95
3, 88920, Note_on_c, 1, 57, 0
3, 88920, Note_on_c, 1, 62, 0
3, 88920, Note_on_c, 1, 59, 86
3, 89160, Note_on_c, 1, 59, 0
3, 89160, Note_on_c, 1, 66, 95
3, 89160, Note_on_c, 1, 62, 95
3, 89280, Note_on_c, 1, 62, 0
3, 89280, Note_on_c, 1, 66, 0
3, 89280, Note_on_c, 1, 66, 95
3, 89280, Note_on_c, 1, 62, 95
3, 89400, Note_on_c, 1, 62, 0
3, 89400, Note_on_c, 1, 66, 0
3, 89520, Note_on_c, 1, 57, 95
3, 89760, Note_on_c, 1, 57, 0
3, 89760, Note_on_c, 1, 59, 86
3, 90000, Note_on_c, 1, 59, 0
3, 90000, Note_on_c, 1, 66, 95
3, 90000, Note_on_c, 1, 62, 95
3, 90240, Note_on_c, 1, 62, 0
3, 90240, Note_on_c, 1, 66, 0
3, 90240, Note_on_c, 1, 59, 95
3, 90480, Note_on_c, 1, 59, 0
3, 90480, Note_on_c, 1, 57, 95
3, 90720, Note_on_c, 1, 57, 0
3, 90720, Note_on_c, 1, 62, 95
3, 90720, Note_on_c, 1, 57, 95
3, 90840, Note_on_c, 1, 57, 0
3, 90840, Note_on_c, 1, 62, 0
3, 90840, Note_on_c, 1, 59, 86
3, 91080, Note_on_c, 1, 59, 0
3, 91080, Note_on_c, 1, 66, 95
3, 91080, Note_on_c, 1, 62, 95
3, 91200, Note_on_c, 1, 62, 0
3, 91200, Note_on_c, 1, 66, 0
3, 91200, Note_on_c, 1, 66, 95
3, 91200, Note_on_c, 1, 62, 95
3, 91320, Note_on_c, 1, 62, 0
3, 91320, Note_on_c, 1, 66, 0
3, 91440, Note_on_c, 1, 57, 95
3, 91680, Note_on_c, 1, 57, 0
3, 91680, Note_on_c, 1, 59, 86
3, 91920, Note_on_c, 1, 59, 0
3, 91920, Note_on_c, 1, 66, 95
3, 91920, Note_on_c, 1, 62, 95
3, 92160, Note_on_c, 1, 62, 0
3, 92160, Note_on_c, 1, 66, 0
3, 92160, Note_on_c, 1, 59, 95
3, 92400, Note_on_c, 1, 59, 0
3, 92400, Note_on_c, 1, 57, 95
3, 92640, Note_on_c, 1, 57, 0
3, 92640, Note_on_c, 1, 57, 95
3, 92640, Note_on_c, 1, 52, 95
3, 92760, Note_on_c, 1, 52, 0
3, 92760, Note_on_c, 1, 57, 0
3, 92760, Note_on_c, 1, 54, 86
3, 93000, Note_on_c, 1, 54, 0
3, 93000, Note_on_c, 1, 62, 95
3, 93016, Note_on_c, 1, 66, 95
3, 93120, Note_on_c, 1, 66, 0
3, 93120, Note_on_c, 1, 62, 0
3, 93120, Note_on_c, 1, 66, 95
3, 93120, Note_on_c, 1, 62, 95
3, 93240, Note_on_c, 1, 62, 0
3, 93240, Note_on_c, 1, 66, 0
3, 93360, Note_on_c, 1, 57, 95
3, 93600, Note_on_c, 1, 57, 0
3, 93600, Note_on_c, 1, 58, 86
3, 93840, Note_on_c, 1, 58, 0
3, 93840, Note_on_c, 1, 61, 95
3, 94080, Note_on_c, 1, 61, 0
3, 94080, Note_on_c, 1, 66, 95
3, 94320, Note_on_c, 1, 66, 0
3, 94320, Note_on_c, 1, 61, 95
3, 94560, Note_on_c, 1, 61, 0
3, 94560, Note_on_c, 1, 62, 95
3, 94560, Note_on_c, 1, 57, 95
3, 94680, Note_on_c, 1, 57, 0
3, 94680, Note_on_c, 1, 62, 0
3, 94680, Note_on_c, 1, 59, 86
3, 94920, Note_on_c, 1, 59, 0
3, 94920, Note_on_c, 1, 66, 95
3, 94920, Note_on_c, 1, 62, 95
3, 95040, Note_on_c, 1, 62, 0
3, 95040, Note_on_c, 1, 66, 0
3, 95040, Note_on_c, 1, 66, 95
3, 95040, Note_on_c, 1, 62, 95
3, 95160, Note_on_c, 1, 62, 0
3, 95160, Note_on_c, 1, 66, 0
3, 95280, Note_on_c, 1, 57, 95
3, 95520, Note_on_c, 1, 57, 0
3, 95520, Note_on_c, 1, 59, 86
3, 95760, Note_on_c, 1, 59, 0
3, 95760, Note_on_c, 1, 66, 95
3, 95760, Note_on_c, 1, 62, 95
3, 96000, Note_on_c, 1, 62, 0
3, 96000, Note_on_c, 1, 66, 0
3, 96000, Note_on_c, 1, 59, 95
3, 96240, Note_on_c, 1, 59, 0
3, 96240, Note_on_c, 1, 57, 95
3, 96480, Note_on_c, 1, 57, 0
3, 96480, Note_on_c, 1, 62, 95
3, 96480, Note_on_c, 1, 57, 95
3, 96600, Note_on_c, 1, 57, 0
3, 96600, Note_on_c, 1, 62, 0
3, 96600, Note_on_c, 1, 59, 86
3, 96840, Note_on_c, 1, 59, 0
3, 96840, Note_on_c, 1, 66, 95
3, 96840, Note_on_c, 1, 62, 95
3, 96960, Note_on_c, 1, 62, 0
3, 96960, Note_on_c, 1, 66, 0
3, 96960, Note_on_c, 1, 66, 95
3, 96960, Note_on_c, 1, 62, 95
3, 97080, Note_on_c, 1, 62, 0
3, 97080, Note_on_c, 1, 66, 0
3, 97200, Note_on_c, 1, 57, 95
3, 97440, Note_on_c, 1, 57, 0
3, 97440, Note_on_c, 1, 59, 86
3, 97680, Note_on_c, 1, 59, 0
3, 97680, Note_on_c, 1, 66, 95
3, 97680, Note_on_c, 1, 62, 95
3, 97920, Note_on_c, 1, 62, 0
3, 97920, Note_on_c, 1, 66, 0
3, 97920, Note_on_c, 1, 59, 95
3, 98160, Note_on_c, 1, 59, 0
3, 98160, Note_on_c, 1, 57, 95
3, 98400, Note_on_c, 1, 57, 0
3, 98400, Note_on_c, 1, 62, 95
3, 98400, Note_on_c, 1, 57, 95
3, 98520, Note_on_c, 1, 57, 0
3, 98520, Note_on_c, 1, 62, 0
3, 98520, Note_on_c, 1, 59, 86
3, 98760, Note_on_c, 1, 59, 0
3, 98760, Note_on_c, 1, 66, 95
3, 98760, Note_on_c, 1, 62, 95
3, 98880, Note_on_c, 1, 62, 0
3, 98880, Note_on_c, 1, 66, 0
3, 98880, Note_on_c, 1, 66, 95
3, 98880, Note_on_c, 1, 62, 95
3, 99000, Note_on_c, 1, 62, 0
3, 99000, Note_on_c, 1, 66, 0
3, 99120, Note_on_c, 1, 57, 95
3, 99360, Note_on_c, 1, 57, 0
3, 99360, Note_on_c, 1, 59, 86
3, 99600, Note_on_c, 1, 59, 0
3, 99600, Note_on_c, 1, 66, 95
3, 99600, Note_on_c, 1, 62, 95
3, 99840, Note_on_c, 1, 62, 0
3, 99840, Note_on_c, 1, 66, 0
3, 99840, Note_on_c, 1, 59, 95
3, 100080, Note_on_c, 1, 59, 0
3, 100080, Note_on_c, 1, 57, 95
3, 100320, Note_on_c, 1, 57, 0
3, 100320, Note_on_c, 1, 57, 95
3, 100320, Note_on_c, 1, 52, 95
3, 100440, Note_on_c, 1, 52, 0
3, 100440, Note_on_c, 1, 57, 0
3, 100440, Note_on_c, 1, 54, 86
3, 100680, Note_on_c, 1, 54, 0
3, 100680, Note_on_c, 1, 62, 95
3, 100696, Note_on_c, 1, 66, 95
3, 100800, Note_on_c, 1, 66, 0
3, 100800, Note_on_c, 1, 62, 0
3, 100800, Note_on_c, 1, 66, 95
3, 100800, Note_on_c, 1, 62, 95
3, 100920, Note_on_c, 1, 62, 0
3, 100920, Note_on_c, 1, 66, 0
3, 101040, Note_on_c, 1, 52, 95
3, 101280, Note_on_c, 1, 52, 0
3, 101280, Note_on_c, 1, 54, 86
3, 101520, Note_on_c, 1, 54, 0
3, 101520, Note_on_c, 1, 66, 95
3, 101520, Note_on_c, 1, 62, 95
3, 101520, Note_on_c, 1, 57, 95
3, 101760, Note_on_c, 1, 57, 0
3, 101760, Note_on_c, 1, 62, 0
3, 101760, Note_on_c, 1, 66, 0
3, 101760, Note_on_c, 1, 59, 95
3, 102000, Note_on_c, 1, 59, 0
3, 102000, Note_on_c, 1, 57, 95
3, 102240, Note_on_c, 1, 57, 0
3, 102240, Note_on_c, 1, 62, 95
3, 102240, Note_on_c, 1, 57, 95
3, 102360, Note_on_c, 1, 57, 0
3, 102360, Note_on_c, 1, 62, 0
3, 102360, Note_on_c, 1, 59, 86
3, 102600, Note_on_c, 1, 59, 0
3, 102600, Note_on_c, 1, 66, 95
3, 102600, Note_on_c, 1, 62, 95
3, 102720, Note_on_c, 1, 62, 0
3, 102720, Note_on_c, 1, 66, 0
3, 102720, Note_on_c, 1, 66, 95
3, 102720, Note_on_c, 1, 62, 95
3, 102840, Note_on_c, 1, 62, 0
3, 102840, Note_on_c, 1, 66, 0
3, 102960, Note_on_c, 1, 57, 95
3, 103200, Note_on_c, 1, 57, 0
3, 103200, Note_on_c, 1, 59, 86
3, 103440, Note_on_c, 1, 59, 0
3, 103440, Note_on_c, 1, 66, 95
3, 103440, Note_on_c, 1, 62, 95
3, 103680, Note_on_c, 1, 62, 0
3, 103680, Note_on_c, 1, 66, 0
3, 103680, Note_on_c, 1, 59, 95
3, 103920, Note_on_c, 1, 59, 0
3, 103920, Note_on_c, 1, 57, 95
3, 104160, Note_on_c, 1, 57, 0
3, 104160, Note_on_c, 1, 62, 95
3, 104160, Note_on_c, 1, 57, 95
3, 104280, Note_on_c, 1, 57, 0
3, 104280, Note_on_c, 1, 62, 0
3, 104280, Note_on_c, 1, 59, 86
3, 104520, Note_on_c, 1, 59, 0
3, 104520, Note_on_c, 1, 66, 95
3, 104520, Note_on_c, 1, 62, 95
3, 104640, Note_on_c, 1, 62, 0
3, 104640, Note_on_c, 1, 66, 0
3, 104640, Note_on_c, 1, 66, 95
3, 104640, Note_on_c, 1, 62, 95
3, 104760, Note_on_c, 1, 62, 0
3, 104760, Note_on_c, 1, 66, 0
3, 104880, Note_on_c, 1, 57, 95
3, 105120, Note_on_c, 1, 57, 0
3, 105120, Note_on_c, 1, 59, 86
3, 105360, Note_on_c, 1, 59, 0
3, 105360, Note_on_c, 1, 66, 95
3, 105360, Note_on_c, 1, 62, 95
3, 105600, Note_on_c, 1, 62, 0
3, 105600, Note_on_c, 1, 66, 0
3, 105600, Note_on_c, 1, 59, 95
3, 105840, Note_on_c, 1, 59, 0
3, 105840, Note_on_c, 1, 57, 95
3, 106080, Note_on_c, 1, 57, 0
3, 106080, Note_on_c, 1, 62, 95
3, 106080, Note_on_c, 1, 57, 95
3, 106200, Note_on_c, 1, 57, 0
3, 106200, Note_on_c, 1, 62, 0
3, 106200, Note_on_c, 1, 59, 86
3, 106440, Note_on_c, 1, 59, 0
3, 106440, Note_on_c, 1, 66, 95
3, 106440, Note_on_c, 1, 62, 95
3, 106560, Note_on_c, 1, 62, 0
3, 106560, Note_on_c, 1, 66, 0
3, 106560, Note_on_c, 1, 66, 95
3, 106560, Note_on_c, 1, 62, 95
3, 106680, Note_on_c, 1, 62, 0
3, 106680, Note_on_c, 1, 66, 0
3, 106800, Note_on_c, 1, 57, 95
3, 107040, Note_on_c, 1, 57, 0
3, 107040, Note_on_c, 1, 59, 86
3, 107280, Note_on_c, 1, 59, 0
3, 107280, Note_on_c, 1, 66, 95
3, 107280, Note_on_c, 1, 62, 95
3, 107520, Note_on_c, 1, 62, 0
3, 107520, Note_on_c, 1, 66, 0
3, 107520, Note_on_c, 1, 59, 95
3, 107760, Note_on_c, 1, 59, 0
3, 107760, Note_on_c, 1, 57, 95
3, 108000, Note_on_c, 1, 57, 0
3, 108000, Note_on_c, 1, 57, 95
3, 108000, Note_on_c, 1, 52, 95
3, 108120, Note_on_c, 1, 52, 0
3, 108120, Note_on_c, 1, 57, 0
3, 108120, Note_on_c, 1, 54, 86
3, 108360, Note_on_c, 1, 54, 0
3, 108360, Note_on_c, 1, 62, 95
3, 108376, Note_on_c, 1, 66, 95
3, 108480, Note_on_c, 1, 66, 0
3, 108480, Note_on_c, 1, 62, 0
3, 108480, Note_on_c, 1, 66, 95
3, 108480, Note_on_c, 1, 62, 95
3, 108600, Note_on_c, 1, 62, 0
3, 108600, Note_on_c, 1, 66, 0
3, 108720, Note_on_c, 1, 52, 95
3, 108960, Note_on_c, 1, 52, 0
3, 108960, Note_on_c, 1, 54, 86
3, 109200, Note_on_c, 1, 54, 0
3, 109200, Note_on_c, 1, 66, 95
3, 109200, Note_on_c, 1, 62, 95
3, 109200, Note_on_c, 1, 57, 95
3, 109440, Note_on_c, 1, 57, 0
3, 109440, Note_on_c, 1, 62, 0
3, 109440, Note_on_c, 1, 66, 0
3, 109440, Note_on_c, 1, 59, 95
3, 109680, Note_on_c, 1, 59, 0
3, 109680, Note_on_c, 1, 57, 95
3, 109920, Note_on_c, 1, 57, 0
3, 109920, Note_on_c, 1, 62, 95
3, 109920, Note_on_c, 1, 57, 95
3, 110040, Note_on_c, 1, 57, 0
3, 110040, Note_on_c, 1, 62, 0
3, 110040, Note_on_c, 1, 59, 86
3, 110280, Note_on_c, 1, 59, 0
3, 110280, Note_on_c, 1, 66, 95
3, 110280, Note_on_c, 1, 62, 95
3, 110400, Note_on_c, 1, 62, 0
3, 110400, Note_on_c, 1, 66, 0
3, 110400, Note_on_c, 1, 66, 95
3, 110400, Note_on_c, 1, 62, 95
3, 110520, Note_on_c, 1, 62, 0
3, 110520, Note_on_c, 1, 66, 0
3, 110640, Note_on_c, 1, 57, 95
3, 110880, Note_on_c, 1, 57, 0
3, 110880, Note_on_c, 1, 59, 86
3, 111120, Note_on_c, 1, 59, 0
3, 111120, Note_on_c, 1, 66, 95
3, 111120, Note_on_c, 1, 62, 95
3, 111360, Note_on_c, 1, 62, 0
3, 111360, Note_on_c, 1, 66, 0
3, 111360, Note_on_c, 1, 59, 95
3, 111600, Note_on_c, 1, 59, 0
3, 111600, Note_on_c, 1, 57, 95
3, 111840, Note_on_c, 1, 57, 0
3, 111840, Note_on_c, 1, 62, 95
3, 111840, Note_on_c, 1, 57, 95
3, 111960, Note_on_c, 1, 57, 0
3, 111960, Note_on_c, 1, 62, 0
3, 111960, Note_on_c, 1, 59, 86
3, 112200, Note_on_c, 1, 59, 0
3, 112200, Note_on_c, 1, 66, 95
3, 112200, Note_on_c, 1, 62, 95
3, 112320, Note_on_c, 1, 62, 0
3, 112320, Note_on_c, 1, 66, 0
3, 112320, Note_on_c, 1, 66, 95
3, 112320, Note_on_c, 1, 62, 95
3, 112440, Note_on_c, 1, 62, 0
3, 112440, Note_on_c, 1, 66, 0
3, 112560, Note_on_c, 1, 57, 95
3, 112800, Note_on_c, 1, 57, 0
3, 112800, Note_on_c, 1, 59, 86
3, 113040, Note_on_c, 1, 59, 0
3, 113040, Note_on_c, 1, 66, 95
3, 113040, Note_on_c, 1, 62, 95
3, 113280, Note_on_c, 1, 62, 0
3, 113280, Note_on_c, 1, 66, 0
3, 113280, Note_on_c, 1, 59, 95
3, 113520, Note_on_c, 1, 59, 0
3, 113520, Note_on_c, 1, 57, 95
3, 113760, Note_on_c, 1, 57, 0
3, 113760, Note_on_c, 1, 62, 95
3, 113760, Note_on_c, 1, 57, 95
3, 113880, Note_on_c, 1, 57, 0
3, 113880, Note_on_c, 1, 62, 0
3, 113880, Note_on_c, 1, 59, 86
3, 114120, Note_on_c, 1, 59, 0
3, 114120, Note_on_c, 1, 66, 95
3, 114120, Note_on_c, 1, 62, 95
3, 114240, Note_on_c, 1, 62, 0
3, 114240, Note_on_c, 1, 66, 0
3, 114240, Note_on_c, 1, 66, 95
3, 114240, Note_on_c, 1, 62, 95
3, 114360, Note_on_c, 1, 62, 0
3, 114360, Note_on_c, 1, 66, 0
3, 114480, Note_on_c, 1, 57, 95
3, 114720, Note_on_c, 1, 57, 0
3, 114720, Note_on_c, 1, 59, 86
3, 114960, Note_on_c, 1, 59, 0
3, 114960, Note_on_c, 1, 66, 95
3, 114960, Note_on_c, 1, 62, 95
3, 115200, Note_on_c, 1, 62, 0
3, 115200, Note_on_c, 1, 66, 0
3, 115200, Note_on_c, 1, 59, 95
3, 115440, Note_on_c, 1, 59, 0
3, 115440, Note_on_c, 1, 57, 95
3, 115680, Note_on_c, 1, 57, 0
3, 115680, Note_on_c, 1, 57, 95
3, 115680, Note_on_c, 1, 52, 95
3, 115800, Note_on_c, 1, 52, 0
3, 115800, Note_on_c, 1, 57, 0
3, 115800, Note_on_c, 1, 54, 86
3, 116040, Note_on_c, 1, 54, 0
3, 116040, Note_on_c, 1, 62, 95
3, 116056, Note_on_c, 1, 66, 95
3, 116160, Note_on_c, 1, 66, 0
3, 116160, Note_on_c, 1, 62, 0
3, 116160, Note_on_c, 1, 66, 95
3, 116160, Note_on_c, 1, 62, 95
3, 116280, Note_on_c, 1, 62, 0
3, 116280, Note_on_c, 1, 66, 0
3, 116400, Note_on_c, 1, 52, 95
3, 116640, Note_on_c, 1, 52, 0
3, 116640, Note_on_c, 1, 54, 86
3, 116880, Note_on_c, 1, 54, 0
3, 116880, Note_on_c, 1, 66, 95
3, 116880, Note_on_c, 1, 62, 95
3, 116880, Note_on_c, 1, 57, 95
3, 117120, Note_on_c, 1, 57, 0
3, 117120, Note_on_c, 1, 62, 0
3, 117120, Note_on_c, 1, 66, 0
3, 117120, Note_on_c, 1, 59, 95
3, 117360, Note_on_c, 1, 59, 0
3, 117360, Note_on_c, 1, 57, 95
3, 117600, Note_on_c, 1, 57, 0
3, 117600, Note_on_c, 1, 62, 95
3, 117600, Note_on_c, 1, 57, 95
3, 117720, Note_on_c, 1, 57, 0
3, 117720, Note_on_c, 1, 62, 0
3, 117720, Note_on_c, 1, 59, 86
3, 117960, Note_on_c, 1, 59, 0
3, 117960, Note_on_c, 1, 66, 95
3, 117960, Note_on_c, 1, 62, 95
3, 118080, Note_on_c, 1, 62, 0
3, 118080, Note_on_c, 1, 66, 0
3, 118080, Note_on_c, 1, 66, 95
3, 118080, Note_on_c, 1, 62, 95
3, 118200, Note_on_c, 1, 62, 0
3, 118200, Note_on_c, 1, 66, 0
3, 118320, Note_on_c, 1, 57, 95
3, 118560, Note_on_c, 1, 57, 0
3, 118560, Note_on_c, 1, 59, 86
3, 118800, Note_on_c, 1, 59, 0
3, 118800, Note_on_c, 1, 66, 95
3, 118800, Note_on_c, 1, 62, 95
3, 119040, Note_on_c, 1, 62, 0
3, 119040, Note_on_c, 1, 66, 0
3, 119040, Note_on_c, 1, 59, 95
3, 119280, Note_on_c, 1, 59, 0
3, 119280, Note_on_c, 1, 57, 95
3, 119520, Note_on_c, 1, 57, 0
3, 119520, Note_on_c, 1, 62, 95
3, 119520, Note_on_c, 1, 57, 95
3, 119640, Note_on_c, 1, 57, 0
3, 119640, Note_on_c, 1, 62, 0
3, 119640, Note_on_c, 1, 59, 86
3, 119880, Note_on_c, 1, 59, 0
3, 119880, Note_on_c, 1, 66, 95
3, 119880, Note_on_c, 1, 62, 95
3, 120000, Note_on_c, 1, 62, 0
3, 120000, Note_on_c, 1, 66, 0
3, 120000, Note_on_c, 1, 66, 95
3, 120000, Note_on_c, 1, 62, 95
3, 120120, Note_on_c, 1, 62, 0
3, 120120, Note_on_c, 1, 66, 0
3, 120240, Note_on_c, 1, 57, 95
3, 120480, Note_on_c, 1, 57, 0
3, 120480, Note_on_c, 1, 59, 86
3, 120720, Note_on_c, 1, 59, 0
3, 120720, Note_on_c, 1, 66, 95
3, 120720, Note_on_c, 1, 62, 95
3, 120960, Note_on_c, 1, 62, 0
3, 120960, Note_on_c, 1, 66, 0
3, 120960, Note_on_c, 1, 59, 95
3, 121200, Note_on_c, 1, 59, 0
3, 121200, Note_on_c, 1, 57, 95
3, 121440, Note_on_c, 1, 57, 0
3, 121440, Note_on_c, 1, 62, 95
3, 121440, Note_on_c, 1, 57, 95
3, 121560, Note_on_c, 1, 57, 0
3, 121560, Note_on_c, 1, 62, 0
3, 121560, Note_on_c, 1, 59, 86
3, 121800, Note_on_c, 1, 59, 0
3, 121800, Note_on_c, 1, 66, 95
3, 121800, Note_on_c, 1, 62, 95
3, 121920, Note_on_c, 1, 62, 0
3, 121920, Note_on_c, 1, 66, 0
3, 121920, Note_on_c, 1, 66, 95
3, 121920, Note_on_c, 1, 62, 95
3, 122040, Note_on_c, 1, 62, 0
3, 122040, Note_on_c, 1, 66, 0
3, 122160, Note_on_c, 1, 57, 95
3, 122400, Note_on_c, 1, 57, 0
3, 122400, Note_on_c, 1, 59, 86
3, 122640, Note_on_c, 1, 59, 0
3, 122640, Note_on_c, 1, 66, 95
3, 122640, Note_on_c, 1, 62, 95
3, 122880, Note_on_c, 1, 62, 0
3, 122880, Note_on_c, 1, 66, 0
3, 122880, Note_on_c, 1, 59, 95
3, 123120, Note_on_c, 1, 59, 0
3, 123120, Note_on_c, 1, 57, 95
3, 123360, Note_on_c, 1, 57, 0
3, 123360, Note_on_c, 1, 57, 95
3, 123360, Note_on_c, 1, 52, 95
3, 123480, Note_on_c, 1, 52, 0
3, 123480, Note_on_c, 1, 57, 0
3, 123480, Note_on_c, 1, 54, 86
3, 123720, Note_on_c, 1, 54, 0
3, 123720, Note_on_c, 1, 62, 95
3, 123736, Note_on_c, 1, 66, 95
3, 123840, Note_on_c, 1, 66, 0
3, 123840, Note_on_c, 1, 62, 0
3, 123840, Note_on_c, 1, 66, 95
3, 123840, Note_on_c, 1, 62, 95
3, 123960, Note_on_c, 1, 62, 0
3, 123960, Note_on_c, 1, 66, 0
3, 124080, Note_on_c, 1, 52, 95
3, 124320, Note_on_c, 1, 52, 0
3, 124320, Note_on_c, 1, 54, 86
3, 124560, Note_on_c, 1, 54, 0
3, 124560, Note_on_c, 1, 66, 95
3, 124560, Note_on_c, 1, 62, 95
3, 124560, Note_on_c, 1, 57, 95
3, 124800, Note_on_c, 1, 57, 0
3, 124800, Note_on_c, 1, 62, 0
3, 124800, Note_on_c, 1, 66, 0
3, 124800, Note_on_c, 1, 59, 95
3, 125040, Note_on_c, 1, 59, 0
3, 125040, Note_on_c, 1, 57, 95
3, 125280, Note_on_c, 1, 57, 0
3, 125280, Note_on_c, 1, 62, 95
3, 125280, Note_on_c, 1, 57, 95
3, 125400, Note_on_c, 1, 57, 0
3, 125400, Note_on_c, 1, 62, 0
3, 125400, Note_on_c, 1, 59, 86
3, 125640, Note_on_c, 1, 59, 0
3, 125640, Note_on_c, 1, 66, 95
3, 125640, Note_on_c, 1, 62, 95
3, 125760, Note_on_c, 1, 62, 0
3, 125760, Note_on_c, 1, 66, 0
3, 125760, Note_on_c, 1, 66, 95
3, 125760, Note_on_c, 1, 62, 95
3, 125880, Note_on_c, 1, 62, 0
3, 125880, Note_on_c, 1, 66, 0
3, 126000, Note_on_c, 1, 57, 95
3, 126240, Note_on_c, 1, 57, 0
3, 126240, Note_on_c, 1, 59, 86
3, 126480, Note_on_c, 1, 59, 0
3, 126480, Note_on_c, 1, 66, 95
3, 126480, Note_on_c, 1, 62, 95
3, 126720, Note_on_c, 1, 62, 0
3, 126720, Note_on_c, 1, 66, 0
3, 126720, Note_on_c, 1, 59, 95
3, 126960, Note_on_c, 1, 59, 0
3, 126960, Note_on_c, 1, 57, 95
3, 127200, Note_on_c, 1, 57, 0
3, 127200, Note_on_c, 1, 62, 95
3, 127200, Note_on_c, 1, 57, 95
3, 127320, Note_on_c, 1, 57, 0
3, 127320, Note_on_c, 1, 62, 0
3, 127320, Note_on_c, 1, 59, 86
3, 127560, Note_on_c, 1, 59, 0
3, 127560, Note_on_c, 1, 66, 95
3, 127560, Note_on_c, 1, 62, 95
3, 127680, Note_on_c, 1, 62, 0
3, 127680, Note_on_c, 1, 66, 0
3, 127680, Note_on_c, 1, 66, 95
3, 127680, Note_on_c, 1, 62, 95
3, 127800, Note_on_c, 1, 62, 0
3, 127800, Note_on_c, 1, 66, 0
3, 127920, Note_on_c, 1, 57, 95
3, 128160, Note_on_c, 1, 57, 0
3, 128160, Note_on_c, 1, 59, 86
3, 128400, Note_on_c, 1, 59, 0
3, 128400, Note_on_c, 1, 66, 95
3, 128400, Note_on_c, 1, 62, 95
3, 128640, Note_on_c, 1, 62, 0
3, 128640, Note_on_c, 1, 66, 0
3, 128640, Note_on_c, 1, 59, 95
3, 128880, Note_on_c, 1, 59, 0
3, 128880, Note_on_c, 1, 57, 95
3, 129120, Note_on_c, 1, 57, 0
3, 129120, Control_c, 1, 7, 40
3, 129120, Control_c, 1, 7, 40
3, 129120, Note_on_c, 1, 55, 95
3, 129840, Note_on_c, 1, 55, 0
3, 129840, Note_on_c, 1, 67, 95
3, 130080, Note_on_c, 1, 67, 0
3, 130080, Note_on_c, 1, 62, 95
3, 130320, Note_on_c, 1, 62, 0
3, 130320, Note_on_c, 1, 59, 95
3, 130560, Note_on_c, 1, 59, 0
3, 130560, Note_on_c, 1, 67, 95
3, 130800, Note_on_c, 1, 67, 0
3, 130800, Note_on_c, 1, 62, 95
3, 131040, Note_on_c, 1, 62, 0
3, 131040, Control_c, 1, 7, 40
3, 131040, Control_c, 1, 7, 40
3, 131040, Control_c, 1, 91, 127
3, 131040, Control_c, 1, 91, 127
3, 131040, Note_on_c, 1, 52, 95
3, 131520, Note_on_c, 1, 52, 0
3, 131520, Note_on_c, 1, 52, 95
3, 131760, Note_on_c, 1, 52, 0
3, 131760, Note_on_c, 1, 64, 95
3, 132240, Note_on_c, 1, 64, 0
3, 132240, Note_on_c, 1, 64, 95
3, 132480, Note_on_c, 1, 64, 0
3, 132480, Note_on_c, 1, 55, 95
3, 132512, Note_on_c, 1, 59, 95
3, 132544, Note_on_c, 1, 64, 95
3, 132720, Note_on_c, 1, 64, 0
3, 132720, Note_on_c, 1, 59, 0
3, 132720, Note_on_c, 1, 55, 0
3, 132720, Note_on_c, 1, 59, 95
3, 132960, Note_on_c, 1, 59, 0
3, 132960, Control_c, 1, 7, 56
3, 132960, Control_c, 1, 7, 56
3, 132960, Note_on_c, 1, 59, 95
3, 133440, Note_on_c, 1, 59, 0
3, 133440, Note_on_c, 1, 59, 95
3, 133680, Note_on_c, 1, 59, 0
3, 133680, Note_on_c, 1, 62, 95
3, 133744, Note_on_c, 1, 66, 95
3, 134160, Note_on_c, 1, 66, 0
3, 134160, Note_on_c, 1, 62, 0
3, 134160, Note_on_c, 1, 59, 95
3, 134640, Note_on_c, 1, 59, 0
3, 134640, Note_on_c, 1, 62, 95
3, 134672, Note_on_c, 1, 66, 95
3, 134880, Note_on_c, 1, 66, 0
3, 134880, Note_on_c, 1, 62, 0
3, 134880, Control_c, 1, 7, 64
3, 134880, Control_c, 1, 7, 64
3, 134880, Note_on_c, 1, 55, 95
3, 134880, Note_on_c, 1, 50, 95
3, 134880, Note_on_c, 1, 47, 95
3, 134880, Note_on_c, 1, 43, 95
3, 135120, Note_on_c, 1, 43, 0
3, 135120, Note_on_c, 1, 55, 0
3, 135120, Note_on_c, 1, 50, 0
3, 135120, Note_on_c, 1, 47, 0
3, 135120, Note_on_c, 1, 55, 95
3, 135120, Note_on_c, 1, 50, 95
3, 135120, Note_on_c, 1, 47, 95
3, 135120, Note_on_c, 1, 43, 95
3, 135360, Note_on_c, 1, 43, 0
3, 135360, Note_on_c, 1, 55, 0
3, 135360, Note_on_c, 1, 50, 0
3, 135360, Note_on_c, 1, 47, 0
3, 135360, Note_on_c, 1, 55, 95
3, 135360, Note_on_c, 1, 50, 95
3, 135360, Note_on_c, 1, 47, 95
3, 135360, Note_on_c, 1, 43, 95
3, 135600, Note_on_c, 1, 43, 0
3, 135600, Note_on_c, 1, 55, 0
3, 135600, Note_on_c, 1, 50, 0
3, 135600, Note_on_c, 1, 47, 0
3, 135600, Note_on_c, 1, 55, 95
3, 135600, Note_on_c, 1, 50, 95
3, 135600, Note_on_c, 1, 47, 95
3, 135600, Note_on_c, 1, 43, 95
3, 135840, Note_on_c, 1, 43, 0
3, 135840, Note_on_c, 1, 55, 0
3, 135840, Note_on_c, 1, 50, 0
3, 135840, Note_on_c, 1, 47, 0
3, 135840, Note_on_c, 1, 55, 95
3, 135840, Note_on_c, 1, 50, 95
3, 135840, Note_on_c, 1, 47, 95
3, 135840, Note_on_c, 1, 43, 95
3, 136080, Note_on_c, 1, 43, 0
3, 136080, Note_on_c, 1, 55, 0
3, 136080, Note_on_c, 1, 50, 0
3, 136080, Note_on_c, 1, 47, 0
3, 136080, Note_on_c, 1, 55, 95
3, 136080, Note_on_c, 1, 50, 95
3, 136080, Note_on_c, 1, 47, 95
3, 136080, Note_on_c, 1, 43, 95
3, 136320, Note_on_c, 1, 43, 0
3, 136320, Note_on_c, 1, 55, 0
3, 136320, Note_on_c, 1, 50, 0
3, 136320, Note_on_c, 1, 47, 0
3, 136320, Note_on_c, 1, 55, 95
3, 136320, Note_on_c, 1, 50, 95
3, 136320, Note_on_c, 1, 47, 95
3, 136320, Note_on_c, 1, 43, 95
3, 136560, Note_on_c, 1, 43, 0
3, 136560, Note_on_c, 1, 55, 0
3, 136560, Note_on_c, 1, 50, 0
3, 136560, Note_on_c, 1, 47, 0
3, 136560, Note_on_c, 1, 55, 95
3, 136560, Note_on_c, 1, 50, 95
3, 136560, Note_on_c, 1, 47, 95
3, 136560, Note_on_c, 1, 43, 95
3, 136800, Note_on_c, 1, 43, 0
3, 136800, Note_on_c, 1, 55, 0
3, 136800, Note_on_c, 1, 50, 0
3, 136800, Note_on_c, 1, 47, 0
3, 136800, Note_on_c, 1, 55, 95
3, 136800, Note_on_c, 1, 52, 95
3, 136800, Note_on_c, 1, 47, 95
3, 136800, Note_on_c, 1, 40, 95
3, 137040, Note_on_c, 1, 40, 0
3, 137040, Note_on_c, 1, 55, 0
3, 137040, Note_on_c, 1, 52, 0
3, 137040, Note_on_c, 1, 47, 0
3, 137040, Note_on_c, 1, 55, 95
3, 137040, Note_on_c, 1, 52, 95
3, 137040, Note_on_c, 1, 47, 95
3, 137040, Note_on_c, 1, 40, 95
3, 137280, Note_on_c, 1, 40, 0
3, 137280, Note_on_c, 1, 55, 0
3, 137280, Note_on_c, 1, 52, 0
3, 137280, Note_on_c, 1, 47, 0
3, 137280, Note_on_c, 1, 55, 95
3, 137280, Note_on_c, 1, 52, 95
3, 137280, Note_on_c, 1, 47, 95
3, 137280, Note_on_c, 1, 40, 95
3, 137520, Note_on_c, 1, 40, 0
3, 137520, Note_on_c, 1, 55, 0
3, 137520, Note_on_c, 1, 52, 0
3, 137520, Note_on_c, 1, 47, 0
3, 137520, Note_on_c, 1, 55, 95
3, 137520, Note_on_c, 1, 52, 95
3, 137520, Note_on_c, 1, 47, 95
3, 137520, Note_on_c, 1, 40, 95
3, 137760, Note_on_c, 1, 40, 0
3, 137760, Note_on_c, 1, 55, 0
3, 137760, Note_on_c, 1, 52, 0
3, 137760, Note_on_c, 1, 47, 0
3, 137760, Note_on_c, 1, 55, 95
3, 137760, Note_on_c, 1, 52, 95
3, 137760, Note_on_c, 1, 47, 95
3, 137760, Note_on_c, 1, 40, 95
3, 138000, Note_on_c, 1, 40, 0
3, 138000, Note_on_c, 1, 55, 0
3, 138000, Note_on_c, 1, 52, 0
3, 138000, Note_on_c, 1, 47, 0
3, 138000, Note_on_c, 1, 55, 95
3, 138000, Note_on_c, 1, 52, 95
3, 138000, Note_on_c, 1, 47, 95
3, 138000, Note_on_c, 1, 40, 95
3, 138240, Note_on_c, 1, 40, 0
3, 138240, Note_on_c, 1, 55, 0
3, 138240, Note_on_c, 1, 52, 0
3, 138240, Note_on_c, 1, 47, 0
3, 138240, Note_on_c, 1, 55, 95
3, 138240, Note_on_c, 1, 52, 95
3, 138240, Note_on_c, 1, 47, 95
3, 138240, Note_on_c, 1, 40, 95
3, 138480, Note_on_c, 1, 40, 0
3, 138480, Note_on_c, 1, 55, 0
3, 138480, Note_on_c, 1, 52, 0
3, 138480, Note_on_c, 1, 47, 0
3, 138480, Note_on_c, 1, 55, 95
3, 138480, Note_on_c, 1, 52, 95
3, 138480, Note_on_c, 1, 47, 95
3, 138480, Note_on_c, 1, 40, 95
3, 138720, Note_on_c, 1, 40, 0
3, 138720, Note_on_c, 1, 55, 0
3, 138720, Note_on_c, 1, 52, 0
3, 138720, Note_on_c, 1, 47, 0
3, 138720, Control_c, 1, 7, 72
3, 138720, Control_c, 1, 7, 72
3, 138720, Note_on_c, 1, 62, 95
3, 138720, Note_on_c, 1, 59, 95
3, 138720, Note_on_c, 1, 54, 95
3, 138720, Note_on_c, 1, 47, 95
3, 138960, Note_on_c, 1, 47, 0
3, 138960, Note_on_c, 1, 62, 0
3, 138960, Note_on_c, 1, 59, 0
3, 138960, Note_on_c, 1, 54, 0
3, 138960, Note_on_c, 1, 62, 95
3, 138960, Note_on_c, 1, 59, 95
3, 138960, Note_on_c, 1, 54, 95
3, 138960, Note_on_c, 1, 47, 95
3, 139200, Note_on_c, 1, 47, 0
3, 139200, Note_on_c, 1, 62, 0
3, 139200, Note_on_c, 1, 59, 0
3, 139200, Note_on_c, 1, 54, 0
3, 139200, Note_on_c, 1, 62, 95
3, 139200, Note_on_c, 1, 59, 95
3, 139200, Note_on_c, 1, 54, 95
3, 139200, Note_on_c, 1, 47, 95
3, 139440, Note_on_c, 1, 47, 0
3, 139440, Note_on_c, 1, 62, 0
3, 139440, Note_on_c, 1, 59, 0
3, 139440, Note_on_c, 1, 54, 0
3, 139440, Note_on_c, 1, 62, 95
3, 139440, Note_on_c, 1, 59, 95
3, 139440, Note_on_c, 1, 54, 95
3, 139440, Note_on_c, 1, 47, 95
3, 139680, Note_on_c, 1, 47, 0
3, 139680, Note_on_c, 1, 62, 0
3, 139680, Note_on_c, 1, 59, 0
3, 139680, Note_on_c, 1, 54, 0
3, 139680, Note_on_c, 1, 62, 95
3, 139680, Note_on_c, 1, 59, 95
3, 139680, Note_on_c, 1, 54, 95
3, 139680, Note_on_c, 1, 47, 95
3, 139920, Note_on_c, 1, 47, 0
3, 139920, Note_on_c, 1, 62, 0
3, 139920, Note_on_c, 1, 59, 0
3, 139920, Note_on_c, 1, 54, 0
3, 139920, Note_on_c, 1, 62, 95
3, 139920, Note_on_c, 1, 59, 95
3, 139920, Note_on_c, 1, 54, 95
3, 139920, Note_on_c, 1, 47, 95
3, 140160, Note_on_c, 1, 47, 0
3, 140160, Note_on_c, 1, 62, 0
3, 140160, Note_on_c, 1, 59, 0
3, 140160, Note_on_c, 1, 54, 0
3, 140160, Note_on_c, 1, 62, 95
3, 140160, Note_on_c, 1, 59, 95
3, 140160, Note_on_c, 1, 54, 95
3, 140160, Note_on_c, 1, 47, 95
3, 140400, Note_on_c, 1, 47, 0
3, 140400, Note_on_c, 1, 62, 0
3, 140400, Note_on_c, 1, 59, 0
3, 140400, Note_on_c, 1, 54, 0
3, 140400, Note_on_c, 1, 62, 95
3, 140400, Note_on_c, 1, 59, 95
3, 140400, Note_on_c, 1, 54, 95
3, 140400, Note_on_c, 1, 47, 95
3, 140640, Note_on_c, 1, 47, 0
3, 140640, Note_on_c, 1, 62, 0
3, 140640, Note_on_c, 1, 59, 0
3, 140640, Note_on_c, 1, 54, 0
3, 140640, Note_on_c, 1, 55, 95
3, 140640, Note_on_c, 1, 50, 95
3, 140640, Note_on_c, 1, 47, 95
3, 140640, Note_on_c, 1, 43, 95
3, 140880, Note_on_c, 1, 43, 0
3, 140880, Note_on_c, 1, 55, 0
3, 140880, Note_on_c, 1, 50, 0
3, 140880, Note_on_c, 1, 47, 0
3, 140880, Note_on_c, 1, 55, 95
3, 140880, Note_on_c, 1, 50, 95
3, 140880, Note_on_c, 1, 47, 95
3, 140880, Note_on_c, 1, 43, 95
3, 141120, Note_on_c, 1, 43, 0
3, 141120, Note_on_c, 1, 55, 0
3, 141120, Note_on_c, 1, 50, 0
3, 141120, Note_on_c, 1, 47, 0
3, 141120, Note_on_c, 1, 55, 95
3, 141120, Note_on_c, 1, 50, 95
3, 141120, Note_on_c, 1, 47, 95
3, 141120, Note_on_c, 1, 43, 95
3, 141360, Note_on_c, 1, 43, 0
3, 141360, Note_on_c, 1, 55, 0
3, 141360, Note_on_c, 1, 50, 0
3, 141360, Note_on_c, 1, 47, 0
3, 141360, Note_on_c, 1, 55, 95
3, 141360, Note_on_c, 1, 50, 95
3, 141360, Note_on_c, 1, 47, 95
3, 141360, Note_on_c, 1, 43, 95
3, 141600, Note_on_c, 1, 43, 0
3, 141600, Note_on_c, 1, 55, 0
3, 141600, Note_on_c, 1, 50, 0
3, 141600, Note_on_c, 1, 47, 0
3, 141600, Note_on_c, 1, 55, 95
3, 141600, Note_on_c, 1, 50, 95
3, 141600, Note_on_c, 1, 47, 95
3, 141600, Note_on_c, 1, 43, 95
3, 141840, Note_on_c, 1, 43, 0
3, 141840, Note_on_c, 1, 55, 0
3, 141840, Note_on_c, 1, 50, 0
3, 141840, Note_on_c, 1, 47, 0
3, 141840, Note_on_c, 1, 55, 95
3, 141840, Note_on_c, 1, 50, 95
3, 141840, Note_on_c, 1, 47, 95
3, 141840, Note_on_c, 1, 43, 95
3, 142080, Note_on_c, 1, 43, 0
3, 142080, Note_on_c, 1, 55, 0
3, 142080, Note_on_c, 1, 50, 0
3, 142080, Note_on_c, 1, 47, 0
3, 142080, Note_on_c, 1, 55, 95
3, 142080, Note_on_c, 1, 50, 95
3, 142080, Note_on_c, 1, 47, 95
3, 142080, Note_on_c, 1, 43, 95
3, 142320, Note_on_c, 1, 43, 0
3, 142320, Note_on_c, 1, 55, 0
3, 142320, Note_on_c, 1, 50, 0
3, 142320, Note_on_c, 1, 47, 0
3, 142320, Note_on_c, 1, 55, 95
3, 142320, Note_on_c, 1, 50, 95
3, 142320, Note_on_c, 1, 47, 95
3, 142320, Note_on_c, 1, 43, 95
3, 142560, Note_on_c, 1, 43, 0
3, 142560, Note_on_c, 1, 55, 0
3, 142560, Note_on_c, 1, 50, 0
3, 142560, Note_on_c, 1, 47, 0
3, 142560, Note_on_c, 1, 55, 95
3, 142560, Note_on_c, 1, 52, 95
3, 142560, Note_on_c, 1, 47, 95
3, 142560, Note_on_c, 1, 40, 95
3, 142800, Note_on_c, 1, 40, 0
3, 142800, Note_on_c, 1, 55, 0
3, 142800, Note_on_c, 1, 52, 0
3, 142800, Note_on_c, 1, 47, 0
3, 142800, Note_on_c, 1, 55, 95
3, 142800, Note_on_c, 1, 52, 95
3, 142800, Note_on_c, 1, 47, 95
3, 142800, Note_on_c, 1, 40, 95
3, 143040, Note_on_c, 1, 40, 0
3, 143040, Note_on_c, 1, 55, 0
3, 143040, Note_on_c, 1, 52, 0
3, 143040, Note_on_c, 1, 47, 0
3, 143040, Note_on_c, 1, 55, 95
3, 143040, Note_on_c, 1, 52, 95
3, 143040, Note_on_c, 1, 47, 95
3, 143040, Note_on_c, 1, 40, 95
3, 143280, Note_on_c, 1, 40, 0
3, 143280, Note_on_c, 1, 55, 0
3, 143280, Note_on_c, 1, 52, 0
3, 143280, Note_on_c, 1, 47, 0
3, 143280, Note_on_c, 1, 55, 95
3, 143280, Note_on_c, 1, 52, 95
3, 143280, Note_on_c, 1, 47, 95
3, 143280, Note_on_c, 1, 40, 95
3, 143520, Note_on_c, 1, 40, 0
3, 143520, Note_on_c, 1, 55, 0
3, 143520, Note_on_c, 1, 52, 0
3, 143520, Note_on_c, 1, 47, 0
3, 143520, Note_on_c, 1, 55, 95
3, 143520, Note_on_c, 1, 52, 95
3, 143520, Note_on_c, 1, 47, 95
3, 143520, Note_on_c, 1, 40, 95
3, 143760, Note_on_c, 1, 40, 0
3, 143760, Note_on_c, 1, 55, 0
3, 143760, Note_on_c, 1, 52, 0
3, 143760, Note_on_c, 1, 47, 0
3, 143760, Note_on_c, 1, 55, 95
3, 143760, Note_on_c, 1, 52, 95
3, 143760, Note_on_c, 1, 47, 95
3, 143760, Note_on_c, 1, 40, 95
3, 144000, Note_on_c, 1, 40, 0
3, 144000, Note_on_c, 1, 55, 0
3, 144000, Note_on_c, 1, 52, 0
3, 144000, Note_on_c, 1, 47, 0
3, 144000, Note_on_c, 1, 55, 95
3, 144000, Note_on_c, 1, 52, 95
3, 144000, Note_on_c, 1, 47, 95
3, 144000, Note_on_c, 1, 40, 95
3, 144240, Note_on_c, 1, 40, 0
3, 144240, Note_on_c, 1, 55, 0
3, 144240, Note_on_c, 1, 52, 0
3, 144240, Note_on_c, 1, 47, 0
3, 144240, Note_on_c, 1, 55, 95
3, 144240, Note_on_c, 1, 52, 95
3, 144240, Note_on_c, 1, 47, 95
3, 144240, Note_on_c, 1, 40, 95
3, 144480, Note_on_c, 1, 40, 0
3, 144480, Note_on_c, 1, 55, 0
3, 144480, Note_on_c, 1, 52, 0
3, 144480, Note_on_c, 1, 47, 0
3, 144480, Note_on_c, 1, 62, 95
3, 144480, Note_on_c, 1, 59, 95
3, 144480, Note_on_c, 1, 54, 95
3, 144480, Note_on_c, 1, 47, 95
3, 144720, Note_on_c, 1, 47, 0
3, 144720, Note_on_c, 1, 62, 0
3, 144720, Note_on_c, 1, 59, 0
3, 144720, Note_on_c, 1, 54, 0
3, 144720, Note_on_c, 1, 62, 95
3, 144720, Note_on_c, 1, 59, 95
3, 144720, Note_on_c, 1, 54, 95
3, 144720, Note_on_c, 1, 47, 95
3, 144960, Note_on_c, 1, 47, 0
3, 144960, Note_on_c, 1, 62, 0
3, 144960, Note_on_c, 1, 59, 0
3, 144960, Note_on_c, 1, 54, 0
3, 144960, Note_on_c, 1, 62, 95
3, 144960, Note_on_c, 1, 59, 95
3, 144960, Note_on_c, 1, 54, 95
3, 144960, Note_on_c, 1, 47, 95
3, 145200, Note_on_c, 1, 47, 0
3, 145200, Note_on_c, 1, 62, 0
3, 145200, Note_on_c, 1, 59, 0
3, 145200, Note_on_c, 1, 54, 0
3, 145200, Note_on_c, 1, 62, 95
3, 145200, Note_on_c, 1, 59, 95
3, 145200, Note_on_c, 1, 54, 95
3, 145200, Note_on_c, 1, 47, 95
3, 145440, Note_on_c, 1, 47, 0
3, 145440, Note_on_c, 1, 62, 0
3, 145440, Note_on_c, 1, 59, 0
3, 145440, Note_on_c, 1, 54, 0
3, 145440, Note_on_c, 1, 62, 95
3, 145440, Note_on_c, 1, 59, 95
3, 145440, Note_on_c, 1, 54, 95
3, 145440, Note_on_c, 1, 47, 95
3, 145680, Note_on_c, 1, 47, 0
3, 145680, Note_on_c, 1, 62, 0
3, 145680, Note_on_c, 1, 59, 0
3, 145680, Note_on_c, 1, 54, 0
3, 145680, Note_on_c, 1, 62, 95
3, 145680, Note_on_c, 1, 59, 95
3, 145680, Note_on_c, 1, 54, 95
3, 145680, Note_on_c, 1, 47, 95
3, 145920, Note_on_c, 1, 47, 0
3, 145920, Note_on_c, 1, 62, 0
3, 145920, Note_on_c, 1, 59, 0
3, 145920, Note_on_c, 1, 54, 0
3, 145920, Note_on_c, 1, 62, 95
3, 145920, Note_on_c, 1, 59, 95
3, 145920, Note_on_c, 1, 54, 95
3, 145920, Note_on_c, 1, 47, 95
3, 146160, Note_on_c, 1, 47, 0
3, 146160, Note_on_c, 1, 62, 0
3, 146160, Note_on_c, 1, 59, 0
3, 146160, Note_on_c, 1, 54, 0
3, 146160, Note_on_c, 1, 62, 95
3, 146160, Note_on_c, 1, 59, 95
3, 146160, Note_on_c, 1, 54, 95
3, 146160, Note_on_c, 1, 47, 95
3, 146400, Note_on_c, 1, 47, 0
3, 146400, Note_on_c, 1, 62, 0
3, 146400, Note_on_c, 1, 59, 0
3, 146400, Note_on_c, 1, 54, 0
3, 146400, Note_on_c, 1, 55, 95
3, 146400, Note_on_c, 1, 50, 95
3, 146400, Note_on_c, 1, 47, 95
3, 146400, Note_on_c, 1, 43, 95
3, 146640, Note_on_c, 1, 43, 0
3, 146640, Note_on_c, 1, 55, 0
3, 146640, Note_on_c, 1, 50, 0
3, 146640, Note_on_c, 1, 47, 0
3, 146640, Note_on_c, 1, 55, 95
3, 146640, Note_on_c, 1, 50, 95
3, 146640, Note_on_c, 1, 47, 95
3, 146640, Note_on_c, 1, 43, 95
3, 146880, Note_on_c, 1, 43, 0
3, 146880, Note_on_c, 1, 55, 0
3, 146880, Note_on_c, 1, 50, 0
3, 146880, Note_on_c, 1, 47, 0
3, 146880, Note_on_c, 1, 55, 95
3, 146880, Note_on_c, 1, 50, 95
3, 146880, Note_on_c, 1, 47, 95
3, 146880, Note_on_c, 1, 43, 95
3, 147120, Note_on_c, 1, 43, 0
3, 147120, Note_on_c, 1, 55, 0
3, 147120, Note_on_c, 1, 50, 0
3, 147120, Note_on_c, 1, 47, 0
3, 147120, Note_on_c, 1, 55, 95
3, 147120, Note_on_c, 1, 50, 95
3, 147120, Note_on_c, 1, 47, 95
3, 147120, Note_on_c, 1, 43, 95
3, 147360, Note_on_c, 1, 43, 0
3, 147360, Note_on_c, 1, 55, 0
3, 147360, Note_on_c, 1, 50, 0
3, 147360, Note_on_c, 1, 47, 0
3, 147360, Note_on_c, 1, 55, 95
3, 147360, Note_on_c, 1, 50, 95
3, 147360, Note_on_c, 1, 47, 95
3, 147360, Note_on_c, 1, 43, 95
3, 147600, Note_on_c, 1, 43, 0
3, 147600, Note_on_c, 1, 55, 0
3, 147600, Note_on_c, 1, 50, 0
3, 147600, Note_on_c, 1, 47, 0
3, 147600, Note_on_c, 1, 55, 95
3, 147600, Note_on_c, 1, 50, 95
3, 147600, Note_on_c, 1, 47, 95
3, 147600, Note_on_c, 1, 43, 95
3, 147840, Note_on_c, 1, 43, 0
3, 147840, Note_on_c, 1, 55, 0
3, 147840, Note_on_c, 1, 50, 0
3, 147840, Note_on_c, 1, 47, 0
3, 147840, Note_on_c, 1, 55, 95
3, 147840, Note_on_c, 1, 50, 95
3, 147840, Note_on_c, 1, 47, 95
3, 147840, Note_on_c, 1, 43, 95
3, 148080, Note_on_c, 1, 43, 0
3, 148080, Note_on_c, 1, 55, 0
3, 148080, Note_on_c, 1, 50, 0
3, 148080, Note_on_c, 1, 47, 0
3, 148080, Note_on_c, 1, 55, 95
3, 148080, Note_on_c, 1, 50, 95
3, 148080, Note_on_c, 1, 47, 95
3, 148080, Note_on_c, 1, 43, 95
3, 148320, Note_on_c, 1, 43, 0
3, 148320, Note_on_c, 1, 55, 0
3, 148320, Note_on_c, 1, 50, 0
3, 148320, Note_on_c, 1, 47, 0
3, 148320, Note_on_c, 1, 55, 95
3, 148320, Note_on_c, 1, 52, 95
3, 148320, Note_on_c, 1, 47, 95
3, 148320, Note_on_c, 1, 40, 95
3, 148560, Note_on_c, 1, 40, 0
3, 148560, Note_on_c, 1, 55, 0
3, 148560, Note_on_c, 1, 52, 0
3, 148560, Note_on_c, 1, 47, 0
3, 148560, Note_on_c, 1, 55, 95
3, 148560, Note_on_c, 1, 52, 95
3, 148560, Note_on_c, 1, 47, 95
3, 148560, Note_on_c, 1, 40, 95
3, 148800, Note_on_c, 1, 40, 0
3, 148800, Note_on_c, 1, 55, 0
3, 148800, Note_on_c, 1, 52, 0
3, 148800, Note_on_c, 1, 47, 0
3, 148800, Note_on_c, 1, 55, 95
3, 148800, Note_on_c, 1, 52, 95
3, 148800, Note_on_c, 1, 47, 95
3, 148800, Note_on_c, 1, 40, 95
3, 149040, Note_on_c, 1, 40, 0
3, 149040, Note_on_c, 1, 55, 0
3, 149040, Note_on_c, 1, 52, 0
3, 149040, Note_on_c, 1, 47, 0
3, 149040, Note_on_c, 1, 55, 95
3, 149040, Note_on_c, 1, 52, 95
3, 149040, Note_on_c, 1, 47, 95
3, 149040, Note_on_c, 1, 40, 95
3, 149280, Note_on_c, 1, 40, 0
3, 149280, Note_on_c, 1, 55, 0
3, 149280, Note_on_c, 1, 52, 0
3, 149280, Note_on_c, 1, 47, 0
3, 149280, Note_on_c, 1, 55, 95
3, 149280, Note_on_c, 1, 52, 95
3, 149280, Note_on_c, 1, 47, 95
3, 149280, Note_on_c, 1, 40, 95
3, 149520, Note_on_c, 1, 40, 0
3, 149520, Note_on_c, 1, 55, 0
3, 149520, Note_on_c, 1, 52, 0
3, 149520, Note_on_c, 1, 47, 0
3, 149520, Note_on_c, 1, 55, 95
3, 149520, Note_on_c, 1, 52, 95
3, 149520, Note_on_c, 1, 47, 95
3, 149520, Note_on_c, 1, 40, 95
3, 149760, Note_on_c, 1, 40, 0
3, 149760, Note_on_c, 1, 55, 0
3, 149760, Note_on_c, 1, 52, 0
3, 149760, Note_on_c, 1, 47, 0
3, 149760, Note_on_c, 1, 55, 95
3, 149760, Note_on_c, 1, 52, 95
3, 149760, Note_on_c, 1, 47, 95
3, 149760, Note_on_c, 1, 40, 95
3, 150000, Note_on_c, 1, 40, 0
3, 150000, Note_on_c, 1, 55, 0
3, 150000, Note_on_c, 1, 52, 0
3, 150000, Note_on_c, 1, 47, 0
3, 150000, Note_on_c, 1, 55, 95
3, 150000, Note_on_c, 1, 52, 95
3, 150000, Note_on_c, 1, 47, 95
3, 150000, Note_on_c, 1, 40, 95
3, 150240, Note_on_c, 1, 40, 0
3, 150240, Note_on_c, 1, 55, 0
3, 150240, Note_on_c, 1, 52, 0
3, 150240, Note_on_c, 1, 47, 0
3, 150240, Note_on_c, 1, 62, 95
3, 150240, Note_on_c, 1, 59, 95
3, 150240, Note_on_c, 1, 54, 95
3, 150240, Note_on_c, 1, 47, 95
3, 150480, Note_on_c, 1, 47, 0
3, 150480, Note_on_c, 1, 62, 0
3, 150480, Note_on_c, 1, 59, 0
3, 150480, Note_on_c, 1, 54, 0
3, 150480, Note_on_c, 1, 62, 95
3, 150480, Note_on_c, 1, 59, 95
3, 150480, Note_on_c, 1, 54, 95
3, 150480, Note_on_c, 1, 47, 95
3, 150720, Note_on_c, 1, 47, 0
3, 150720, Note_on_c, 1, 62, 0
3, 150720, Note_on_c, 1, 59, 0
3, 150720, Note_on_c, 1, 54, 0
3, 150720, Note_on_c, 1, 62, 95
3, 150720, Note_on_c, 1, 59, 95
3, 150720, Note_on_c, 1, 54, 95
3, 150720, Note_on_c, 1, 47, 95
3, 150960, Note_on_c, 1, 47, 0
3, 150960, Note_on_c, 1, 62, 0
3, 150960, Note_on_c, 1, 59, 0
3, 150960, Note_on_c, 1, 54, 0
3, 150960, Note_on_c, 1, 62, 95
3, 150960, Note_on_c, 1, 59, 95
3, 150960, Note_on_c, 1, 54, 95
3, 150960, Note_on_c, 1, 47, 95
3, 151200, Note_on_c, 1, 47, 0
3, 151200, Note_on_c, 1, 62, 0
3, 151200, Note_on_c, 1, 59, 0
3, 151200, Note_on_c, 1, 54, 0
3, 151200, Note_on_c, 1, 62, 95
3, 151200, Note_on_c, 1, 59, 95
3, 151200, Note_on_c, 1, 54, 95
3, 151200, Note_on_c, 1, 47, 95
3, 151440, Note_on_c, 1, 47, 0
3, 151440, Note_on_c, 1, 62, 0
3, 151440, Note_on_c, 1, 59, 0
3, 151440, Note_on_c, 1, 54, 0
3, 151440, Note_on_c, 1, 62, 95
3, 151440, Note_on_c, 1, 59, 95
3, 151440, Note_on_c, 1, 54, 95
3, 151440, Note_on_c, 1, 47, 95
3, 151680, Note_on_c, 1, 47, 0
3, 151680, Note_on_c, 1, 62, 0
3, 151680, Note_on_c, 1, 59, 0
3, 151680, Note_on_c, 1, 54, 0
3, 151680, Note_on_c, 1, 62, 95
3, 151680, Note_on_c, 1, 59, 95
3, 151680, Note_on_c, 1, 54, 95
3, 151680, Note_on_c, 1, 47, 95
3, 151920, Note_on_c, 1, 47, 0
3, 151920, Note_on_c, 1, 62, 0
3, 151920, Note_on_c, 1, 59, 0
3, 151920, Note_on_c, 1, 54, 0
3, 151920, Note_on_c, 1, 62, 95
3, 151920, Note_on_c, 1, 59, 95
3, 151920, Note_on_c, 1, 54, 95
3, 151920, Note_on_c, 1, 47, 95
3, 152160, Note_on_c, 1, 47, 0
3, 152160, Note_on_c, 1, 62, 0
3, 152160, Note_on_c, 1, 59, 0
3, 152160, Note_on_c, 1, 54, 0
3, 152160, Note_on_c, 1, 55, 95
3, 152160, Note_on_c, 1, 50, 95
3, 152160, Note_on_c, 1, 47, 95
3, 152160, Note_on_c, 1, 43, 95
3, 152400, Note_on_c, 1, 43, 0
3, 152400, Note_on_c, 1, 55, 0
3, 152400, Note_on_c, 1, 50, 0
3, 152400, Note_on_c, 1, 47, 0
3, 152400, Note_on_c, 1, 55, 95
3, 152400, Note_on_c, 1, 50, 95
3, 152400, Note_on_c, 1, 47, 95
3, 152400, Note_on_c, 1, 43, 95
3, 152640, Note_on_c, 1, 43, 0
3, 152640, Note_on_c, 1, 55, 0
3, 152640, Note_on_c, 1, 50, 0
3, 152640, Note_on_c, 1, 47, 0
3, 152640, Note_on_c, 1, 55, 95
3, 152640, Note_on_c, 1, 50, 95
3, 152640, Note_on_c, 1, 47, 95
3, 152640, Note_on_c, 1, 43, 95
3, 152880, Note_on_c, 1, 43, 0
3, 152880, Note_on_c, 1, 55, 0
3, 152880, Note_on_c, 1, 50, 0
3, 152880, Note_on_c, 1, 47, 0
3, 152880, Note_on_c, 1, 55, 95
3, 152880, Note_on_c, 1, 50, 95
3, 152880, Note_on_c, 1, 47, 95
3, 152880, Note_on_c, 1, 43, 95
3, 153120, Note_on_c, 1, 43, 0
3, 153120, Note_on_c, 1, 55, 0
3, 153120, Note_on_c, 1, 50, 0
3, 153120, Note_on_c, 1, 47, 0
3, 153120, Note_on_c, 1, 55, 95
3, 153120, Note_on_c, 1, 50, 95
3, 153120, Note_on_c, 1, 47, 95
3, 153120, Note_on_c, 1, 43, 95
3, 153360, Note_on_c, 1, 43, 0
3, 153360, Note_on_c, 1, 55, 0
3, 153360, Note_on_c, 1, 50, 0
3, 153360, Note_on_c, 1, 47, 0
3, 153360, Note_on_c, 1, 55, 95
3, 153360, Note_on_c, 1, 50, 95
3, 153360, Note_on_c, 1, 47, 95
3, 153360, Note_on_c, 1, 43, 95
3, 153600, Note_on_c, 1, 43, 0
3, 153600, Note_on_c, 1, 55, 0
3, 153600, Note_on_c, 1, 50, 0
3, 153600, Note_on_c, 1, 47, 0
3, 153600, Note_on_c, 1, 55, 95
3, 153600, Note_on_c, 1, 50, 95
3, 153600, Note_on_c, 1, 47, 95
3, 153600, Note_on_c, 1, 43, 95
3, 153840, Note_on_c, 1, 43, 0
3, 153840, Note_on_c, 1, 55, 0
3, 153840, Note_on_c, 1, 50, 0
3, 153840, Note_on_c, 1, 47, 0
3, 153840, Note_on_c, 1, 55, 95
3, 153840, Note_on_c, 1, 50, 95
3, 153840, Note_on_c, 1, 47, 95
3, 153840, Note_on_c, 1, 43, 95
3, 154080, Note_on_c, 1, 43, 0
3, 154080, Note_on_c, 1, 55, 0
3, 154080, Note_on_c, 1, 50, 0
3, 154080, Note_on_c, 1, 47, 0
3, 154080, Note_on_c, 1, 55, 95
3, 154080, Note_on_c, 1, 52, 95
3, 154080, Note_on_c, 1, 47, 95
3, 154080, Note_on_c, 1, 40, 95
3, 154320, Note_on_c, 1, 40, 0
3, 154320, Note_on_c, 1, 55, 0
3, 154320, Note_on_c, 1, 52, 0
3, 154320, Note_on_c, 1, 47, 0
3, 154320, Note_on_c, 1, 55, 95
3, 154320, Note_on_c, 1, 52, 95
3, 154320, Note_on_c, 1, 47, 95
3, 154320, Note_on_c, 1, 40, 95
3, 154560, Note_on_c, 1, 40, 0
3, 154560, Note_on_c, 1, 55, 0
3, 154560, Note_on_c, 1, 52, 0
3, 154560, Note_on_c, 1, 47, 0
3, 154560, Note_on_c, 1, 55, 95
3, 154560, Note_on_c, 1, 52, 95
3, 154560, Note_on_c, 1, 47, 95
3, 154560, Note_on_c, 1, 40, 95
3, 154800, Note_on_c, 1, 40, 0
3, 154800, Note_on_c, 1, 55, 0
3, 154800, Note_on_c, 1, 52, 0
3, 154800, Note_on_c, 1, 47, 0
3, 154800, Note_on_c, 1, 55, 95
3, 154800, Note_on_c, 1, 52, 95
3, 154800, Note_on_c, 1, 47, 95
3, 154800, Note_on_c, 1, 40, 95
3, 155040, Note_on_c, 1, 40, 0
3, 155040, Note_on_c, 1, 55, 0
3, 155040, Note_on_c, 1, 52, 0
3, 155040, Note_on_c, 1, 47, 0
3, 155040, Note_on_c, 1, 55, 95
3, 155040, Note_on_c, 1, 52, 95
3, 155040, Note_on_c, 1, 47, 95
3, 155040, Note_on_c, 1, 40, 95
3, 155280, Note_on_c, 1, 40, 0
3, 155280, Note_on_c, 1, 55, 0
3, 155280, Note_on_c, 1, 52, 0
3, 155280, Note_on_c, 1, 47, 0
3, 155280, Note_on_c, 1, 55, 95
3, 155280, Note_on_c, 1, 52, 95
3, 155280, Note_on_c, 1, 47, 95
3, 155280, Note_on_c, 1, 40, 95
3, 155520, Note_on_c, 1, 40, 0
3, 155520, Note_on_c, 1, 55, 0
3, 155520, Note_on_c, 1, 52, 0
3, 155520, Note_on_c, 1, 47, 0
3, 155520, Note_on_c, 1, 55, 95
3, 155520, Note_on_c, 1, 52, 95
3, 155520, Note_on_c, 1, 47, 95
3, 155520, Note_on_c, 1, 40, 95
3, 155760, Note_on_c, 1, 40, 0
3, 155760, Note_on_c, 1, 55, 0
3, 155760, Note_on_c, 1, 52, 0
3, 155760, Note_on_c, 1, 47, 0
3, 155760, Note_on_c, 1, 55, 95
3, 155760, Note_on_c, 1, 52, 95
3, 155760, Note_on_c, 1, 47, 95
3, 155760, Note_on_c, 1, 40, 95
3, 156000, Note_on_c, 1, 40, 0
3, 156000, Note_on_c, 1, 55, 0
3, 156000, Note_on_c, 1, 52, 0
3, 156000, Note_on_c, 1, 47, 0
3, 156000, Note_on_c, 1, 62, 95
3, 156000, Note_on_c, 1, 59, 95
3, 156000, Note_on_c, 1, 54, 95
3, 156000, Note_on_c, 1, 47, 95
3, 156240, Note_on_c, 1, 47, 0
3, 156240, Note_on_c, 1, 62, 0
3, 156240, Note_on_c, 1, 59, 0
3, 156240, Note_on_c, 1, 54, 0
3, 156240, Note_on_c, 1, 62, 95
3, 156240, Note_on_c, 1, 59, 95
3, 156240, Note_on_c, 1, 54, 95
3, 156240, Note_on_c, 1, 47, 95
3, 156480, Note_on_c, 1, 47, 0
3, 156480, Note_on_c, 1, 62, 0
3, 156480, Note_on_c, 1, 59, 0
3, 156480, Note_on_c, 1, 54, 0
3, 156480, Note_on_c, 1, 62, 95
3, 156480, Note_on_c, 1, 59, 95
3, 156480, Note_on_c, 1, 54, 95
3, 156480, Note_on_c, 1, 47, 95
3, 156720, Note_on_c, 1, 47, 0
3, 156720, Note_on_c, 1, 62, 0
3, 156720, Note_on_c, 1, 59, 0
3, 156720, Note_on_c, 1, 54, 0
3, 156720, Note_on_c, 1, 62, 95
3, 156720, Note_on_c, 1, 59, 95
3, 156720, Note_on_c, 1, 54, 95
3, 156720, Note_on_c, 1, 47, 95
3, 156960, Note_on_c, 1, 47, 0
3, 156960, Note_on_c, 1, 62, 0
3, 156960, Note_on_c, 1, 59, 0
3, 156960, Note_on_c, 1, 54, 0
3, 156960, Note_on_c, 1, 62, 95
3, 156960, Note_on_c, 1, 59, 95
3, 156960, Note_on_c, 1, 54, 95
3, 156960, Note_on_c, 1, 47, 95
3, 157200, Note_on_c, 1, 47, 0
3, 157200, Note_on_c, 1, 62, 0
3, 157200, Note_on_c, 1, 59, 0
3, 157200, Note_on_c, 1, 54, 0
3, 157200, Note_on_c, 1, 62, 95
3, 157200, Note_on_c, 1, 59, 95
3, 157200, Note_on_c, 1, 54, 95
3, 157200, Note_on_c, 1, 47, 95
3, 157440, Note_on_c, 1, 47, 0
3, 157440, Note_on_c, 1, 62, 0
3, 157440, Note_on_c, 1, 59, 0
3, 157440, Note_on_c, 1, 54, 0
3, 157440, Note_on_c, 1, 62, 95
3, 157440, Note_on_c, 1, 59, 95
3, 157440, Note_on_c, 1, 54, 95
3, 157440, Note_on_c, 1, 47, 95
3, 157680, Note_on_c, 1, 47, 0
3, 157680, Note_on_c, 1, 62, 0
3, 157680, Note_on_c, 1, 59, 0
3, 157680, Note_on_c, 1, 54, 0
3, 157680, Note_on_c, 1, 62, 95
3, 157680, Note_on_c, 1, 59, 95
3, 157680, Note_on_c, 1, 54, 95
3, 157680, Note_on_c, 1, 47, 95
3, 157920, Note_on_c, 1, 47, 0
3, 157920, Note_on_c, 1, 62, 0
3, 157920, Note_on_c, 1, 59, 0
3, 157920, Note_on_c, 1, 54, 0
3, 157920, Note_on_c, 1, 55, 95
3, 157920, Note_on_c, 1, 50, 95
3, 157920, Note_on_c, 1, 47, 95
3, 157920, Note_on_c, 1, 43, 95
3, 158160, Note_on_c, 1, 43, 0
3, 158160, Note_on_c, 1, 55, 0
3, 158160, Note_on_c, 1, 50, 0
3, 158160, Note_on_c, 1, 47, 0
3, 158160, Note_on_c, 1, 55, 95
3, 158160, Note_on_c, 1, 50, 95
3, 158160, Note_on_c, 1, 47, 95
3, 158160, Note_on_c, 1, 43, 95
3, 158400, Note_on_c, 1, 43, 0
3, 158400, Note_on_c, 1, 55, 0
3, 158400, Note_on_c, 1, 50, 0
3, 158400, Note_on_c, 1, 47, 0
3, 158400, Note_on_c, 1, 55, 95
3, 158400, Note_on_c, 1, 50, 95
3, 158400, Note_on_c, 1, 47, 95
3, 158400, Note_on_c, 1, 43, 95
3, 158640, Note_on_c, 1, 43, 0
3, 158640, Note_on_c, 1, 55, 0
3, 158640, Note_on_c, 1, 50, 0
3, 158640, Note_on_c, 1, 47, 0
3, 158640, Note_on_c, 1, 55, 95
3, 158640, Note_on_c, 1, 50, 95
3, 158640, Note_on_c, 1, 47, 95
3, 158640, Note_on_c, 1, 43, 95
3, 158880, Note_on_c, 1, 43, 0
3, 158880, Note_on_c, 1, 55, 0
3, 158880, Note_on_c, 1, 50, 0
3, 158880, Note_on_c, 1, 47, 0
3, 158880, Note_on_c, 1, 55, 95
3, 158880, Note_on_c, 1, 50, 95
3, 158880, Note_on_c, 1, 47, 95
3, 158880, Note_on_c, 1, 43, 95
3, 159120, Note_on_c, 1, 43, 0
3, 159120, Note_on_c, 1, 55, 0
3, 159120, Note_on_c, 1, 50, 0
3, 159120, Note_on_c, 1, 47, 0
3, 159120, Note_on_c, 1, 55, 95
3, 159120, Note_on_c, 1, 50, 95
3, 159120, Note_on_c, 1, 47, 95
3, 159120, Note_on_c, 1, 43, 95
3, 159360, Note_on_c, 1, 43, 0
3, 159360, Note_on_c, 1, 55, 0
3, 159360, Note_on_c, 1, 50, 0
3, 159360, Note_on_c, 1, 47, 0
3, 159360, Note_on_c, 1, 55, 95
3, 159360, Note_on_c, 1, 50, 95
3, 159360, Note_on_c, 1, 47, 95
3, 159360, Note_on_c, 1, 43, 95
3, 159600, Note_on_c, 1, 43, 0
3, 159600, Note_on_c, 1, 55, 0
3, 159600, Note_on_c, 1, 50, 0
3, 159600, Note_on_c, 1, 47, 0
3, 159600, Note_on_c, 1, 55, 95
3, 159600, Note_on_c, 1, 50, 95
3, 159600, Note_on_c, 1, 47, 95
3, 159600, Note_on_c, 1, 43, 95
3, 159840, Note_on_c, 1, 43, 0
3, 159840, Note_on_c, 1, 55, 0
3, 159840, Note_on_c, 1, 50, 0
3, 159840, Note_on_c, 1, 47, 0
3, 159840, Note_on_c, 1, 55, 95
3, 159840, Note_on_c, 1, 52, 95
3, 159840, Note_on_c, 1, 47, 95
3, 159840, Note_on_c, 1, 40, 95
3, 160080, Note_on_c, 1, 40, 0
3, 160080, Note_on_c, 1, 55, 0
3, 160080, Note_on_c, 1, 52, 0
3, 160080, Note_on_c, 1, 47, 0
3, 160080, Note_on_c, 1, 55, 95
3, 160080, Note_on_c, 1, 52, 95
3, 160080, Note_on_c, 1, 47, 95
3, 160080, Note_on_c, 1, 40, 95
3, 160320, Note_on_c, 1, 40, 0
3, 160320, Note_on_c, 1, 55, 0
3, 160320, Note_on_c, 1, 52, 0
3, 160320, Note_on_c, 1, 47, 0
3, 160320, Note_on_c, 1, 55, 95
3, 160320, Note_on_c, 1, 52, 95
3, 160320, Note_on_c, 1, 47, 95
3, 160320, Note_on_c, 1, 40, 95
3, 160560, Note_on_c, 1, 40, 0
3, 160560, Note_on_c, 1, 55, 0
3, 160560, Note_on_c, 1, 52, 0
3, 160560, Note_on_c, 1, 47, 0
3, 160560, Note_on_c, 1, 55, 95
3, 160560, Note_on_c, 1, 52, 95
3, 160560, Note_on_c, 1, 47, 95
3, 160560, Note_on_c, 1, 40, 95
3, 160800, Note_on_c, 1, 40, 0
3, 160800, Note_on_c, 1, 55, 0
3, 160800, Note_on_c, 1, 52, 0
3, 160800, Note_on_c, 1, 47, 0
3, 160800, Note_on_c, 1, 55, 95
3, 160800, Note_on_c, 1, 52, 95
3, 160800, Note_on_c, 1, 47, 95
3, 160800, Note_on_c, 1, 40, 95
3, 161040, Note_on_c, 1, 40, 0
3, 161040, Note_on_c, 1, 55, 0
3, 161040, Note_on_c, 1, 52, 0
3, 161040, Note_on_c, 1, 47, 0
3, 161040, Note_on_c, 1, 55, 95
3, 161040, Note_on_c, 1, 52, 95
3, 161040, Note_on_c, 1, 47, 95
3, 161040, Note_on_c, 1, 40, 95
3, 161280, Note_on_c, 1, 40, 0
3, 161280, Note_on_c, 1, 55, 0
3, 161280, Note_on_c, 1, 52, 0
3, 161280, Note_on_c, 1, 47, 0
3, 161280, Note_on_c, 1, 55, 95
3, 161280, Note_on_c, 1, 52, 95
3, 161280, Note_on_c, 1, 47, 95
3, 161280, Note_on_c, 1, 40, 95
3, 161520, Note_on_c, 1, 40, 0
3, 161520, Note_on_c, 1, 55, 0
3, 161520, Note_on_c, 1, 52, 0
3, 161520, Note_on_c, 1, 47, 0
3, 161520, Note_on_c, 1, 55, 95
3, 161520, Note_on_c, 1, 52, 95
3, 161520, Note_on_c, 1, 47, 95
3, 161520, Note_on_c, 1, 40, 95
3, 161760, Note_on_c, 1, 40, 0
3, 161760, Note_on_c, 1, 55, 0
3, 161760, Note_on_c, 1, 52, 0
3, 161760, Note_on_c, 1, 47, 0
3, 161760, End_track
4, 0, Start_track
4, 0, Program_c, 2, 27
4, 0, Control_c, 2, 7, 64
4, 0, Control_c, 2, 10, 64
4, 0, Control_c, 2, 101, 0
4, 1, Control_c, 2, 100, 0
4, 2, Control_c, 2, 6, 12
4, 3, Control_c, 2, 38, 0
4, 3, Pitch_bend_c, 2, 8192
4, 3, Control_c, 2, 101, 0
4, 4, Control_c, 2, 100, 0
4, 5, Control_c, 2, 6, 12
4, 6, Control_c, 2, 38, 0
4, 6, Pitch_bend_c, 2, 8192
4, 6, Program_c, 2, 27
4, 6, Control_c, 2, 7, 64
4, 6, Control_c, 2, 10, 64
4, 6, Control_c, 2, 93, 0
4, 6, Control_c, 2, 93, 0
4, 6, Control_c, 2, 91, 0
4, 6, Control_c, 2, 91, 0
4, 6, Control_c, 2, 92, 0
4, 6, Control_c, 2, 92, 0
4, 6, Control_c, 2, 95, 0
4, 6, Control_c, 2, 95, 0
4, 8160, Note_on_c, 2, 57, 95
4, 8280, Note_on_c, 2, 57, 0
4, 8280, Note_on_c, 2, 59, 86
4, 8520, Note_on_c, 2, 59, 0
4, 8520, Note_on_c, 2, 66, 95
4, 8520, Note_on_c, 2, 62, 95
4, 8640, Note_on_c, 2, 62, 0
4, 8640, Note_on_c, 2, 66, 0
4, 8640, Note_on_c, 2, 64, 95
4, 8640, Note_on_c, 2, 59, 95
4, 8660, Note_on_c, 2, 59, 0
4, 8660, Note_on_c, 2, 64, 0
4, 8880, Note_on_c, 2, 57, 95
4, 9120, Note_on_c, 2, 57, 0
4, 9120, Note_on_c, 2, 57, 95
4, 9240, Note_on_c, 2, 57, 0
4, 9240, Note_on_c, 2, 59, 86
4, 9360, Note_on_c, 2, 59, 0
4, 9360, Note_on_c, 2, 62, 95
4, 9600, Note_on_c, 2, 62, 0
4, 9600, Note_on_c, 2, 59, 95
4, 9840, Note_on_c, 2, 59, 0
4, 9840, Note_on_c, 2, 57, 95
4, 10080, Note_on_c, 2, 57, 0
4, 10080, Note_on_c, 2, 52, 95
4, 10200, Note_on_c, 2, 52, 0
4, 10200, Note_on_c, 2, 54, 86
4, 10440, Note_on_c, 2, 54, 0
4, 10440, Note_on_c, 2, 66, 95
4, 10440, Note_on_c, 2, 62, 95
4, 10560, Note_on_c, 2, 62, 0
4, 10560, Note_on_c, 2, 66, 0
4, 10560, Note_on_c, 2, 64, 95
4, 10560, Note_on_c, 2, 59, 95
4, 10560, Note_on_c, 2, 55, 95
4, 10580, Note_on_c, 2, 55, 0
4, 10580, Note_on_c, 2, 59, 0
4, 10580, Note_on_c, 2, 64, 0
4, 10800, Note_on_c, 2, 52, 95
4, 11040, Note_on_c, 2, 52, 0
4, 11040, Note_on_c, 2, 52, 95
4, 11160, Note_on_c, 2, 52, 0
4, 11160, Note_on_c, 2, 54, 86
4, 11280, Note_on_c, 2, 54, 0
4, 11280, Note_on_c, 2, 66, 95
4, 11280, Note_on_c, 2, 62, 95
4, 11520, Note_on_c, 2, 62, 0
4, 11520, Note_on_c, 2, 66, 0
4, 11520, Note_on_c, 2, 59, 95
4, 11760, Note_on_c, 2, 59, 0
4, 11760, Note_on_c, 2, 59, 95
4, 11880, Note_on_c, 2, 59, 0
4, 11880, Note_on_c, 2, 57, 95
4, 12000, Note_on_c, 2, 57, 0
4, 12000, Note_on_c, 2, 57, 95
4, 12120, Note_on_c, 2, 57, 0
4, 12120, Note_on_c, 2, 59, 86
4, 12360, Note_on_c, 2, 59, 0
4, 12360, Note_on_c, 2, 66, 95
4, 12360, Note_on_c, 2, 62, 95
4, 12480, Note_on_c, 2, 62, 0
4, 12480, Note_on_c, 2, 66, 0
4, 12480, Note_on_c, 2, 64, 95
4, 12480, Note_on_c, 2, 59, 95
4, 12500, Note_on_c, 2, 59, 0
4, 12500, Note_on_c, 2, 64, 0
4, 12720, Note_on_c, 2, 57, 95
4, 12960, Note_on_c, 2, 57, 0
4, 12960, Note_on_c, 2, 57, 95
4, 13080, Note_on_c, 2, 57, 0
4, 13080, Note_on_c, 2, 59, 86
4, 13200, Note_on_c, 2, 59, 0
4, 13200, Note_on_c, 2, 62, 95
4, 13440, Note_on_c, 2, 62, 0
4, 13440, Note_on_c, 2, 59, 95
4, 13680, Note_on_c, 2, 59, 0
4, 13680, Note_on_c, 2, 57, 95
4, 13920, Note_on_c, 2, 57, 0
4, 13920, Note_on_c, 2, 57, 95
4, 14040, Note_on_c, 2, 57, 0
4, 14040, Note_on_c, 2, 59, 86
4, 14280, Note_on_c, 2, 59, 0
4, 14280, Note_on_c, 2, 66, 95
4, 14280, Note_on_c, 2, 62, 95
4, 14400, Note_on_c, 2, 62, 0
4, 14400, Note_on_c, 2, 66, 0
4, 14400, Note_on_c, 2, 64, 95
4, 14400, Note_on_c, 2, 59, 95
4, 14420, Note_on_c, 2, 59, 0
4, 14420, Note_on_c, 2, 64, 0
4, 14640, Note_on_c, 2, 57, 95
4, 14880, Note_on_c, 2, 57, 0
4, 14880, Note_on_c, 2, 57, 95
4, 15000, Note_on_c, 2, 57, 0
4, 15000, Note_on_c, 2, 59, 86
4, 15120, Note_on_c, 2, 59, 0
4, 15120, Note_on_c, 2, 66, 95
4, 15360, Note_on_c, 2, 66, 0
4, 15360, Note_on_c, 2, 62, 95
4, 15600, Note_on_c, 2, 62, 0
4, 15600, Note_on_c, 2, 59, 95
4, 15840, Note_on_c, 2, 59, 0
4, 15840, Note_on_c, 2, 57, 95
4, 15960, Note_on_c, 2, 57, 0
4, 15960, Note_on_c, 2, 59, 86
4, 16200, Note_on_c, 2, 59, 0
4, 16200, Note_on_c, 2, 66, 95
4, 16200, Note_on_c, 2, 62, 95
4, 16320, Note_on_c, 2, 62, 0
4, 16320, Note_on_c, 2, 66, 0
4, 16320, Note_on_c, 2, 64, 95
4, 16320, Note_on_c, 2, 59, 95
4, 16340, Note_on_c, 2, 59, 0
4, 16340, Note_on_c, 2, 64, 0
4, 16560, Note_on_c, 2, 57, 95
4, 16800, Note_on_c, 2, 57, 0
4, 16800, Note_on_c, 2, 57, 95
4, 16920, Note_on_c, 2, 57, 0
4, 16920, Note_on_c, 2, 59, 86
4, 17040, Note_on_c, 2, 59, 0
4, 17040, Note_on_c, 2, 62, 95
4, 17280, Note_on_c, 2, 62, 0
4, 17280, Note_on_c, 2, 59, 95
4, 17520, Note_on_c, 2, 59, 0
4, 17520, Note_on_c, 2, 57, 95
4, 17760, Note_on_c, 2, 57, 0
4, 17760, Note_on_c, 2, 52, 95
4, 17880, Note_on_c, 2, 52, 0
4, 17880, Note_on_c, 2, 54, 86
4, 18120, Note_on_c, 2, 54, 0
4, 18120, Note_on_c, 2, 66, 95
4, 18120, Note_on_c, 2, 62, 95
4, 18240, Note_on_c, 2, 62, 0
4, 18240, Note_on_c, 2, 66, 0
4, 18240, Note_on_c, 2, 64, 95
4, 18240, Note_on_c, 2, 59, 95
4, 18240, Note_on_c, 2, 55, 95
4, 18260, Note_on_c, 2, 55, 0
4, 18260, Note_on_c, 2, 59, 0
4, 18260, Note_on_c, 2, 64, 0
4, 18480, Note_on_c, 2, 52, 95
4, 18720, Note_on_c, 2, 52, 0
4, 18720, Note_on_c, 2, 52, 95
4, 18840, Note_on_c, 2, 52, 0
4, 18840, Note_on_c, 2, 54, 86
4, 18960, Note_on_c, 2, 54, 0
4, 18960, Note_on_c, 2, 66, 95
4, 18960, Note_on_c, 2, 62, 95
4, 19200, Note_on_c, 2, 62, 0
4, 19200, Note_on_c, 2, 66, 0
4, 19200, Note_on_c, 2, 59, 95
4, 19440, Note_on_c, 2, 59, 0
4, 19440, Note_on_c, 2, 59, 95
4, 19560, Note_on_c, 2, 59, 0
4, 19560, Note_on_c, 2, 57, 95
4, 19680, Note_on_c, 2, 57, 0
4, 19680, Note_on_c, 2, 57, 95
4, 19800, Note_on_c, 2, 57, 0
4, 19800, Note_on_c, 2, 59, 86
4, 20040, Note_on_c, 2, 59, 0
4, 20040, Note_on_c, 2, 66, 95
4, 20040, Note_on_c, 2, 62, 95
4, 20160, Note_on_c, 2, 62, 0
4, 20160, Note_on_c, 2, 66, 0
4, 20160, Note_on_c, 2, 64, 95
4, 20160, Note_on_c, 2, 59, 95
4, 20180, Note_on_c, 2, 59, 0
4, 20180, Note_on_c, 2, 64, 0
4, 20400, Note_on_c, 2, 57, 95
4, 20640, Note_on_c, 2, 57, 0
4, 20640, Note_on_c, 2, 57, 95
4, 20760, Note_on_c, 2, 57, 0
4, 20760, Note_on_c, 2, 59, 86
4, 20880, Note_on_c, 2, 59, 0
4, 20880, Note_on_c, 2, 62, 95
4, 21120, Note_on_c, 2, 62, 0
4, 21120, Note_on_c, 2, 59, 95
4, 21360, Note_on_c, 2, 59, 0
4, 21360, Note_on_c, 2, 57, 95
4, 21600, Note_on_c, 2, 57, 0
4, 21600, Note_on_c, 2, 57, 95
4, 21720, Note_on_c, 2, 57, 0
4, 21720, Note_on_c, 2, 59, 86
4, 21960, Note_on_c, 2, 59, 0
4, 21960, Note_on_c, 2, 66, 95
4, 21960, Note_on_c, 2, 62, 95
4, 22080, Note_on_c, 2, 62, 0
4, 22080, Note_on_c, 2, 66, 0
4, 22080, Note_on_c, 2, 64, 95
4, 22080, Note_on_c, 2, 59, 95
4, 22100, Note_on_c, 2, 59, 0
4, 22100, Note_on_c, 2, 64, 0
4, 22320, Note_on_c, 2, 57, 95
4, 22560, Note_on_c, 2, 57, 0
4, 22560, Note_on_c, 2, 57, 95
4, 22680, Note_on_c, 2, 57, 0
4, 22680, Note_on_c, 2, 59, 86
4, 22800, Note_on_c, 2, 59, 0
4, 22800, Note_on_c, 2, 66, 95
4, 23040, Note_on_c, 2, 66, 0
4, 23040, Note_on_c, 2, 62, 95
4, 23280, Note_on_c, 2, 62, 0
4, 23280, Note_on_c, 2, 59, 95
4, 23520, Note_on_c, 2, 59, 0
4, 23520, Note_on_c, 2, 57, 95
4, 23640, Note_on_c, 2, 57, 0
4, 23640, Note_on_c, 2, 59, 86
4, 23880, Note_on_c, 2, 59, 0
4, 23880, Note_on_c, 2, 66, 95
4, 23880, Note_on_c, 2, 62, 95
4, 24000, Note_on_c, 2, 62, 0
4, 24000, Note_on_c, 2, 66, 0
4, 24000, Note_on_c, 2, 64, 95
4, 24000, Note_on_c, 2, 59, 95
4, 24020, Note_on_c, 2, 59, 0
4, 24020, Note_on_c, 2, 64, 0
4, 24240, Note_on_c, 2, 57, 95
4, 24480, Note_on_c, 2, 57, 0
4, 24480, Note_on_c, 2, 57, 95
4, 24600, Note_on_c, 2, 57, 0
4, 24600, Note_on_c, 2, 59, 86
4, 24720, Note_on_c, 2, 59, 0
4, 24720, Note_on_c, 2, 62, 95
4, 24960, Note_on_c, 2, 62, 0
4, 24960, Note_on_c, 2, 59, 95
4, 25200, Note_on_c, 2, 59, 0
4, 25200, Note_on_c, 2, 57, 95
4, 25440, Note_on_c, 2, 57, 0
4, 25440, Note_on_c, 2, 52, 95
4, 25560, Note_on_c, 2, 52, 0
4, 25560, Note_on_c, 2, 54, 86
4, 25800, Note_on_c, 2, 54, 0
4, 25800, Note_on_c, 2, 66, 95
4, 25800, Note_on_c, 2, 62, 95
4, 25920, Note_on_c, 2, 62, 0
4, 25920, Note_on_c, 2, 66, 0
4, 25920, Note_on_c, 2, 64, 95
4, 25920, Note_on_c, 2, 59, 95
4, 25920, Note_on_c, 2, 55, 95
4, 25940, Note_on_c, 2, 55, 0
4, 25940, Note_on_c, 2, 59, 0
4, 25940, Note_on_c, 2, 64, 0
4, 26160, Note_on_c, 2, 57, 95
4, 26400, Note_on_c, 2, 57, 0
4, 26400, Note_on_c, 2, 57, 95
4, 26520, Note_on_c, 2, 57, 0
4, 26520, Note_on_c, 2, 58, 86
4, 26640, Note_on_c, 2, 58, 0
4, 26640, Note_on_c, 2, 61, 95
4, 26880, Note_on_c, 2, 61, 0
4, 26880, Note_on_c, 2, 66, 95
4, 26880, Note_on_c, 2, 61, 95
4, 27120, Note_on_c, 2, 61, 0
4, 27120, Note_on_c, 2, 66, 0
4, 27120, Note_on_c, 2, 61, 95
4, 27360, Note_on_c, 2, 61, 0
4, 27360, Note_on_c, 2, 57, 95
4, 27480, Note_on_c, 2, 57, 0
4, 27480, Note_on_c, 2, 59, 86
4, 27720, Note_on_c, 2, 59, 0
4, 27720, Note_on_c, 2, 66, 95
4, 27720, Note_on_c, 2, 62, 95
4, 27840, Note_on_c, 2, 62, 0
4, 27840, Note_on_c, 2, 66, 0
4, 27840, Note_on_c, 2, 64, 95
4, 27840, Note_on_c, 2, 59, 95
4, 27860, Note_on_c, 2, 59, 0
4, 27860, Note_on_c, 2, 64, 0
4, 28080, Note_on_c, 2, 57, 95
4, 28320, Note_on_c, 2, 57, 0
4, 28320, Note_on_c, 2, 57, 95
4, 28440, Note_on_c, 2, 57, 0
4, 28440, Note_on_c, 2, 59, 86
4, 28560, Note_on_c, 2, 59, 0
4, 28560, Note_on_c, 2, 62, 95
4, 28800, Note_on_c, 2, 62, 0
4, 28800, Note_on_c, 2, 59, 95
4, 29040, Note_on_c, 2, 59, 0
4, 29040, Note_on_c, 2, 57, 95
4, 29280, Note_on_c, 2, 57, 0
4, 29280, Note_on_c, 2, 57, 95
4, 29400, Note_on_c, 2, 57, 0
4, 29400, Note_on_c, 2, 59, 86
4, 29640, Note_on_c, 2, 59, 0
4, 29640, Note_on_c, 2, 66, 95
4, 29640, Note_on_c, 2, 62, 95
4, 29760, Note_on_c, 2, 62, 0
4, 29760, Note_on_c, 2, 66, 0
4, 29760, Note_on_c, 2, 64, 95
4, 29760, Note_on_c, 2, 59, 95
4, 29780, Note_on_c, 2, 59, 0
4, 29780, Note_on_c, 2, 64, 0
4, 30000, Note_on_c, 2, 57, 95
4, 30240, Note_on_c, 2, 57, 0
4, 30240, Note_on_c, 2, 57, 95
4, 30300, Pitch_bend_c, 2, 8832
4, 30360, Note_on_c, 2, 57, 0
4, 30360, Pitch_bend_c, 2, 8192
4, 30360, Note_on_c, 2, 59, 86
4, 30480, Note_on_c, 2, 59, 0
4, 30480, Note_on_c, 2, 64, 95
4, 30720, Note_on_c, 2, 64, 0
4, 30720, Note_on_c, 2, 59, 95
4, 30960, Note_on_c, 2, 59, 0
4, 30960, Note_on_c, 2, 55, 95
4, 31200, Note_on_c, 2, 55, 0
4, 83040, Note_on_c, 2, 57, 95
4, 83160, Note_on_c, 2, 57, 0
4, 83160, Note_on_c, 2, 59, 86
4, 83400, Note_on_c, 2, 59, 0
4, 83400, Note_on_c, 2, 66, 95
4, 83400, Note_on_c, 2, 62, 95
4, 83520, Note_on_c, 2, 62, 0
4, 83520, Note_on_c, 2, 66, 0
4, 83520, Note_on_c, 2, 64, 95
4, 83520, Note_on_c, 2, 59, 95
4, 83540, Note_on_c, 2, 59, 0
4, 83540, Note_on_c, 2, 64, 0
4, 83760, Note_on_c, 2, 57, 95
4, 84000, Note_on_c, 2, 57, 0
4, 84000, Note_on_c, 2, 57, 95
4, 84120, Note_on_c, 2, 57, 0
4, 84120, Note_on_c, 2, 59, 86
4, 84240, Note_on_c, 2, 59, 0
4, 84240, Note_on_c, 2, 62, 95
4, 84480, Note_on_c, 2, 62, 0
4, 84480, Note_on_c, 2, 59, 95
4, 84720, Note_on_c, 2, 59, 0
4, 84720, Note_on_c, 2, 57, 95
4, 84960, Note_on_c, 2, 57, 0
4, 84960, Note_on_c, 2, 52, 95
4, 85080, Note_on_c, 2, 52, 0
4, 85080, Note_on_c, 2, 54, 86
4, 85320, Note_on_c, 2, 54, 0
4, 85320, Note_on_c, 2, 66, 95
4, 85320, Note_on_c, 2, 62, 95
4, 85440, Note_on_c, 2, 62, 0
4, 85440, Note_on_c, 2, 66, 0
4, 85440, Note_on_c, 2, 64, 95
4, 85440, Note_on_c, 2, 59, 95
4, 85440, Note_on_c, 2, 55, 95
4, 85460, Note_on_c, 2, 55, 0
4, 85460, Note_on_c, 2, 59, 0
4, 85460, Note_on_c, 2, 64, 0
4, 85680, Note_on_c, 2, 52, 95
4, 85920, Note_on_c, 2, 52, 0
4, 85920, Note_on_c, 2, 52, 95
4, 86040, Note_on_c, 2, 52, 0
4, 86040, Note_on_c, 2, 54, 86
4, 86160, Note_on_c, 2, 54, 0
4, 86160, Note_on_c, 2, 66, 95
4, 86160, Note_on_c, 2, 62, 95
4, 86400, Note_on_c, 2, 62, 0
4, 86400, Note_on_c, 2, 66, 0
4, 86400, Note_on_c, 2, 59, 95
4, 86640, Note_on_c, 2, 59, 0
4, 86640, Note_on_c, 2, 59, 95
4, 86760, Note_on_c, 2, 59, 0
4, 86760, Note_on_c, 2, 57, 95
4, 86880, Note_on_c, 2, 57, 0
4, 86880, Note_on_c, 2, 57, 95
4, 87000, Note_on_c, 2, 57, 0
4, 87000, Note_on_c, 2, 59, 86
4, 87240, Note_on_c, 2, 59, 0
4, 87240, Note_on_c, 2, 66, 95
4, 87240, Note_on_c, 2, 62, 95
4, 87360, Note_on_c, 2, 62, 0
4, 87360, Note_on_c, 2, 66, 0
4, 87360, Note_on_c, 2, 64, 95
4, 87360, Note_on_c, 2, 59, 95
4, 87380, Note_on_c, 2, 59, 0
4, 87380, Note_on_c, 2, 64, 0
4, 87600, Note_on_c, 2, 57, 95
4, 87840, Note_on_c, 2, 57, 0
4, 87840, Note_on_c, 2, 57, 95
4, 87960, Note_on_c, 2, 57, 0
4, 87960, Note_on_c, 2, 59, 86
4, 88080, Note_on_c, 2, 59, 0
4, 88080, Note_on_c, 2, 62, 95
4, 88320, Note_on_c, 2, 62, 0
4, 88320, Note_on_c, 2, 59, 95
4, 88560, Note_on_c, 2, 59, 0
4, 88560, Note_on_c, 2, 57, 95
4, 88800, Note_on_c, 2, 57, 0
4, 88800, Note_on_c, 2, 57, 95
4, 88920, Note_on_c, 2, 57, 0
4, 88920, Note_on_c, 2, 59, 86
4, 89160, Note_on_c, 2, 59, 0
4, 89160, Note_on_c, 2, 66, 95
4, 89160, Note_on_c, 2, 62, 95
4, 89280, Note_on_c, 2, 62, 0
4, 89280, Note_on_c, 2, 66, 0
4, 89280, Note_on_c, 2, 64, 95
4, 89280, Note_on_c, 2, 59, 95
4, 89300, Note_on_c, 2, 59, 0
4, 89300, Note_on_c, 2, 64, 0
4, 89520, Note_on_c, 2, 57, 95
4, 89760, Note_on_c, 2, 57, 0
4, 89760, Note_on_c, 2, 57, 95
4, 89880, Note_on_c, 2, 57, 0
4, 89880, Note_on_c, 2, 59, 86
4, 90000, Note_on_c, 2, 59, 0
4, 90000, Note_on_c, 2, 66, 95
4, 90240, Note_on_c, 2, 66, 0
4, 90240, Note_on_c, 2, 59, 95
4, 90480, Note_on_c, 2, 59, 0
4, 90480, Note_on_c, 2, 57, 95
4, 90720, Note_on_c, 2, 57, 0
4, 90720, Note_on_c, 2, 57, 95
4, 90840, Note_on_c, 2, 57, 0
4, 90840, Note_on_c, 2, 59, 86
4, 91080, Note_on_c, 2, 59, 0
4, 91080, Note_on_c, 2, 66, 95
4, 91080, Note_on_c, 2, 62, 95
4, 91200, Note_on_c, 2, 62, 0
4, 91200, Note_on_c, 2, 66, 0
4, 91200, Note_on_c, 2, 64, 95
4, 91200, Note_on_c, 2, 59, 95
4, 91220, Note_on_c, 2, 59, 0
4, 91220, Note_on_c, 2, 64, 0
4, 91440, Note_on_c, 2, 57, 95
4, 91680, Note_on_c, 2, 57, 0
4, 91680, Note_on_c, 2, 57, 95
4, 91800, Note_on_c, 2, 57, 0
4, 91800, Note_on_c, 2, 59, 86
4, 91920, Note_on_c, 2, 59, 0
4, 91920, Note_on_c, 2, 66, 95
4, 92160, Note_on_c, 2, 66, 0
4, 92160, Note_on_c, 2, 59, 95
4, 92400, Note_on_c, 2, 59, 0
4, 92400, Note_on_c, 2, 57, 95
4, 92640, Note_on_c, 2, 57, 0
4, 92640, Note_on_c, 2, 52, 95
4, 92760, Note_on_c, 2, 52, 0
4, 92760, Note_on_c, 2, 54, 86
4, 93000, Note_on_c, 2, 54, 0
4, 93000, Note_on_c, 2, 66, 95
4, 93000, Note_on_c, 2, 62, 95
4, 93120, Note_on_c, 2, 62, 0
4, 93120, Note_on_c, 2, 66, 0
4, 93120, Note_on_c, 2, 64, 95
4, 93120, Note_on_c, 2, 59, 95
4, 93120, Note_on_c, 2, 55, 95
4, 93140, Note_on_c, 2, 55, 0
4, 93140, Note_on_c, 2, 59, 0
4, 93140, Note_on_c, 2, 64, 0
4, 93360, Note_on_c, 2, 52, 95
4, 93600, Note_on_c, 2, 52, 0
4, 93600, Note_on_c, 2, 52, 95
4, 93720, Note_on_c, 2, 52, 0
4, 93720, Note_on_c, 2, 54, 86
4, 93840, Note_on_c, 2, 54, 0
4, 93840, Note_on_c, 2, 66, 95
4, 93840, Note_on_c, 2, 62, 95
4, 94080, Note_on_c, 2, 62, 0
4, 94080, Note_on_c, 2, 66, 0
4, 94080, Note_on_c, 2, 59, 95
4, 94320, Note_on_c, 2, 59, 0
4, 94320, Note_on_c, 2, 59, 95
4, 94440, Note_on_c, 2, 59, 0
4, 94440, Note_on_c, 2, 57, 95
4, 94560, Note_on_c, 2, 57, 0
4, 94560, Note_on_c, 2, 57, 95
4, 94680, Note_on_c, 2, 57, 0
4, 94680, Note_on_c, 2, 59, 86
4, 94920, Note_on_c, 2, 59, 0
4, 94920, Note_on_c, 2, 66, 95
4, 94920, Note_on_c, 2, 62, 95
4, 95040, Note_on_c, 2, 62, 0
4, 95040, Note_on_c, 2, 66, 0
4, 95040, Note_on_c, 2, 64, 95
4, 95040, Note_on_c, 2, 59, 95
4, 95060, Note_on_c, 2, 59, 0
4, 95060, Note_on_c, 2, 64, 0
4, 95280, Note_on_c, 2, 57, 95
4, 95520, Note_on_c, 2, 57, 0
4, 95520, Note_on_c, 2, 57, 95
4, 95640, Note_on_c, 2, 57, 0
4, 95640, Note_on_c, 2, 59, 86
4, 95760, Note_on_c, 2, 59, 0
4, 95760, Note_on_c, 2, 62, 95
4, 96000, Note_on_c, 2, 62, 0
4, 96000, Note_on_c, 2, 59, 95
4, 96240, Note_on_c, 2, 59, 0
4, 96240, Note_on_c, 2, 57, 95
4, 96480, Note_on_c, 2, 57, 0
4, 96480, Note_on_c, 2, 57, 95
4, 96600, Note_on_c, 2, 57, 0
4, 96600, Note_on_c, 2, 59, 86
4, 96840, Note_on_c, 2, 59, 0
4, 96840, Note_on_c, 2, 66, 95
4, 96840, Note_on_c, 2, 62, 95
4, 96960, Note_on_c, 2, 62, 0
4, 96960, Note_on_c, 2, 66, 0
4, 96960, Note_on_c, 2, 64, 95
4, 96960, Note_on_c, 2, 59, 95
4, 96980, Note_on_c, 2, 59, 0
4, 96980, Note_on_c, 2, 64, 0
4, 97200, Note_on_c, 2, 57, 95
4, 97440, Note_on_c, 2, 57, 0
4, 97440, Note_on_c, 2, 57, 95
4, 97560, Note_on_c, 2, 57, 0
4, 97560, Note_on_c, 2, 59, 86
4, 97680, Note_on_c, 2, 59, 0
4, 97680, Note_on_c, 2, 66, 95
4, 97920, Note_on_c, 2, 66, 0
4, 98400, Note_on_c, 2, 57, 95
4, 98520, Note_on_c, 2, 57, 0
4, 98520, Note_on_c, 2, 59, 86
4, 98760, Note_on_c, 2, 59, 0
4, 98760, Note_on_c, 2, 66, 95
4, 98760, Note_on_c, 2, 62, 95
4, 98880, Note_on_c, 2, 62, 0
4, 98880, Note_on_c, 2, 66, 0
4, 98880, Note_on_c, 2, 64, 95
4, 98880, Note_on_c, 2, 59, 95
4, 98900, Note_on_c, 2, 59, 0
4, 98900, Note_on_c, 2, 64, 0
4, 99120, Note_on_c, 2, 57, 95
4, 99360, Note_on_c, 2, 57, 0
4, 99360, Note_on_c, 2, 57, 95
4, 99480, Note_on_c, 2, 57, 0
4, 99480, Note_on_c, 2, 59, 86
4, 99600, Note_on_c, 2, 59, 0
4, 99600, Note_on_c, 2, 62, 95
4, 99840, Note_on_c, 2, 62, 0
4, 99840, Note_on_c, 2, 59, 95
4, 100080, Note_on_c, 2, 59, 0
4, 100080, Note_on_c, 2, 57, 95
4, 100320, Note_on_c, 2, 57, 0
4, 100320, Note_on_c, 2, 52, 95
4, 100440, Note_on_c, 2, 52, 0
4, 100440, Note_on_c, 2, 54, 86
4, 100680, Note_on_c, 2, 54, 0
4, 100680, Note_on_c, 2, 66, 95
4, 100680, Note_on_c, 2, 62, 95
4, 100800, Note_on_c, 2, 62, 0
4, 100800, Note_on_c, 2, 66, 0
4, 100800, Note_on_c, 2, 64, 95
4, 100800, Note_on_c, 2, 59, 95
4, 100800, Note_on_c, 2, 55, 95
4, 100820, Note_on_c, 2, 55, 0
4, 100820, Note_on_c, 2, 59, 0
4, 100820, Note_on_c, 2, 64, 0
4, 101040, Note_on_c, 2, 52, 95
4, 101280, Note_on_c, 2, 52, 0
4, 101280, Note_on_c, 2, 52, 95
4, 101400, Note_on_c, 2, 52, 0
4, 101400, Note_on_c, 2, 54, 86
4, 101520, Note_on_c, 2, 54, 0
4, 101520, Note_on_c, 2, 66, 95
4, 101520, Note_on_c, 2, 62, 95
4, 101760, Note_on_c, 2, 62, 0
4, 101760, Note_on_c, 2, 66, 0
4, 101760, Note_on_c, 2, 59, 95
4, 102000, Note_on_c, 2, 59, 0
4, 102000, Note_on_c, 2, 59, 95
4, 102120, Note_on_c, 2, 59, 0
4, 102120, Note_on_c, 2, 57, 95
4, 102240, Note_on_c, 2, 57, 0
4, 102240, Note_on_c, 2, 57, 95
4, 102360, Note_on_c, 2, 57, 0
4, 102360, Note_on_c, 2, 59, 86
4, 102600, Note_on_c, 2, 59, 0
4, 102600, Note_on_c, 2, 66, 95
4, 102600, Note_on_c, 2, 62, 95
4, 102720, Note_on_c, 2, 62, 0
4, 102720, Note_on_c, 2, 66, 0
4, 102720, Note_on_c, 2, 64, 95
4, 102720, Note_on_c, 2, 59, 95
4, 102740, Note_on_c, 2, 59, 0
4, 102740, Note_on_c, 2, 64, 0
4, 102960, Note_on_c, 2, 57, 95
4, 103200, Note_on_c, 2, 57, 0
4, 103200, Note_on_c, 2, 57, 95
4, 103320, Note_on_c, 2, 57, 0
4, 103320, Note_on_c, 2, 59, 86
4, 103440, Note_on_c, 2, 59, 0
4, 103440, Note_on_c, 2, 62, 95
4, 103680, Note_on_c, 2, 62, 0
4, 103680, Note_on_c, 2, 59, 95
4, 103920, Note_on_c, 2, 59, 0
4, 103920, Note_on_c, 2, 57, 95
4, 104160, Note_on_c, 2, 57, 0
4, 104160, Note_on_c, 2, 57, 95
4, 104280, Note_on_c, 2, 57, 0
4, 104280, Note_on_c, 2, 59, 86
4, 104520, Note_on_c, 2, 59, 0
4, 104520, Note_on_c, 2, 66, 95
4, 104520, Note_on_c, 2, 62, 95
4, 104640, Note_on_c, 2, 62, 0
4, 104640, Note_on_c, 2, 66, 0
4, 104640, Note_on_c, 2, 64, 95
4, 104640, Note_on_c, 2, 59, 95
4, 104660, Note_on_c, 2, 59, 0
4, 104660, Note_on_c, 2, 64, 0
4, 104880, Note_on_c, 2, 57, 95
4, 105120, Note_on_c, 2, 57, 0
4, 105120, Note_on_c, 2, 57, 95
4, 105240, Note_on_c, 2, 57, 0
4, 105240, Note_on_c, 2, 59, 86
4, 105360, Note_on_c, 2, 59, 0
4, 105360, Note_on_c, 2, 66, 95
4, 105600, Note_on_c, 2, 66, 0
4, 105600, Note_on_c, 2, 62, 95
4, 105840, Note_on_c, 2, 62, 0
4, 105840, Note_on_c, 2, 59, 95
4, 106080, Note_on_c, 2, 59, 0
4, 106080, Note_on_c, 2, 57, 95
4, 106200, Note_on_c, 2, 57, 0
4, 106200, Note_on_c, 2, 59, 86
4, 106440, Note_on_c, 2, 59, 0
4, 106440, Note_on_c, 2, 66, 95
4, 106440, Note_on_c, 2, 62, 95
4, 106560, Note_on_c, 2, 62, 0
4, 106560, Note_on_c, 2, 66, 0
4, 106560, Note_on_c, 2, 64, 95
4, 106560, Note_on_c, 2, 59, 95
4, 106580, Note_on_c, 2, 59, 0
4, 106580, Note_on_c, 2, 64, 0
4, 106800, Note_on_c, 2, 57, 95
4, 107040, Note_on_c, 2, 57, 0
4, 107040, Note_on_c, 2, 57, 95
4, 107160, Note_on_c, 2, 57, 0
4, 107160, Note_on_c, 2, 59, 86
4, 107280, Note_on_c, 2, 59, 0
4, 107280, Note_on_c, 2, 62, 95
4, 107520, Note_on_c, 2, 62, 0
4, 107520, Note_on_c, 2, 59, 95
4, 107760, Note_on_c, 2, 59, 0
4, 107760, Note_on_c, 2, 57, 95
4, 108000, Note_on_c, 2, 57, 0
4, 108000, Note_on_c, 2, 52, 95
4, 108120, Note_on_c, 2, 52, 0
4, 108120, Note_on_c, 2, 54, 86
4, 108360, Note_on_c, 2, 54, 0
4, 108360, Note_on_c, 2, 66, 95
4, 108360, Note_on_c, 2, 62, 95
4, 108480, Note_on_c, 2, 62, 0
4, 108480, Note_on_c, 2, 66, 0
4, 108480, Note_on_c, 2, 64, 95
4, 108480, Note_on_c, 2, 59, 95
4, 108480, Note_on_c, 2, 55, 95
4, 108500, Note_on_c, 2, 55, 0
4, 108500, Note_on_c, 2, 59, 0
4, 108500, Note_on_c, 2, 64, 0
4, 108720, Note_on_c, 2, 52, 95
4, 108960, Note_on_c, 2, 52, 0
4, 108960, Note_on_c, 2, 52, 95
4, 109080, Note_on_c, 2, 52, 0
4, 109080, Note_on_c, 2, 54, 86
4, 109200, Note_on_c, 2, 54, 0
4, 109200, Note_on_c, 2, 66, 95
4, 109200, Note_on_c, 2, 62, 95
4, 109440, Note_on_c, 2, 62, 0
4, 109440, Note_on_c, 2, 66, 0
4, 109440, Note_on_c, 2, 59, 95
4, 109680, Note_on_c, 2, 59, 0
4, 109680, Note_on_c, 2, 59, 95
4, 109800, Note_on_c, 2, 59, 0
4, 109800, Note_on_c, 2, 57, 95
4, 109920, Note_on_c, 2, 57, 0
4, 109920, Note_on_c, 2, 57, 95
4, 110040, Note_on_c, 2, 57, 0
4, 110040, Note_on_c, 2, 59, 86
4, 110280, Note_on_c, 2, 59, 0
4, 110280, Note_on_c, 2, 66, 95
4, 110280, Note_on_c, 2, 62, 95
4, 110400, Note_on_c, 2, 62, 0
4, 110400, Note_on_c, 2, 66, 0
4, 110400, Note_on_c, 2, 64, 95
4, 110400, Note_on_c, 2, 59, 95
4, 110420, Note_on_c, 2, 59, 0
4, 110420, Note_on_c, 2, 64, 0
4, 110640, Note_on_c, 2, 57, 95
4, 110880, Note_on_c, 2, 57, 0
4, 110880, Note_on_c, 2, 57, 95
4, 111000, Note_on_c, 2, 57, 0
4, 111000, Note_on_c, 2, 59, 86
4, 111120, Note_on_c, 2, 59, 0
4, 111120, Note_on_c, 2, 62, 95
4, 111360, Note_on_c, 2, 62, 0
4, 111360, Note_on_c, 2, 59, 95
4, 111600, Note_on_c, 2, 59, 0
4, 111600, Note_on_c, 2, 57, 95
4, 111840, Note_on_c, 2, 57, 0
4, 111840, Note_on_c, 2, 57, 95
4, 111960, Note_on_c, 2, 57, 0
4, 111960, Note_on_c, 2, 59, 86
4, 112200, Note_on_c, 2, 59, 0
4, 112200, Note_on_c, 2, 66, 95
4, 112200, Note_on_c, 2, 62, 95
4, 112320, Note_on_c, 2, 62, 0
4, 112320, Note_on_c, 2, 66, 0
4, 112320, Note_on_c, 2, 64, 95
4, 112320, Note_on_c, 2, 59, 95
4, 112340, Note_on_c, 2, 59, 0
4, 112340, Note_on_c, 2, 64, 0
4, 112560, Note_on_c, 2, 57, 95
4, 112800, Note_on_c, 2, 57, 0
4, 112800, Note_on_c, 2, 57, 95
4, 112920, Note_on_c, 2, 57, 0
4, 112920, Note_on_c, 2, 59, 86
4, 113040, Note_on_c, 2, 59, 0
4, 113040, Note_on_c, 2, 66, 95
4, 113280, Note_on_c, 2, 66, 0
4, 113280, Note_on_c, 2, 62, 95
4, 113520, Note_on_c, 2, 62, 0
4, 113520, Note_on_c, 2, 59, 95
4, 113760, Note_on_c, 2, 59, 0
4, 113760, Note_on_c, 2, 57, 95
4, 113880, Note_on_c, 2, 57, 0
4, 113880, Note_on_c, 2, 59, 86
4, 114120, Note_on_c, 2, 59, 0
4, 114120, Note_on_c, 2, 66, 95
4, 114120, Note_on_c, 2, 62, 95
4, 114240, Note_on_c, 2, 62, 0
4, 114240, Note_on_c, 2, 66, 0
4, 114240, Note_on_c, 2, 64, 95
4, 114240, Note_on_c, 2, 59, 95
4, 114260, Note_on_c, 2, 59, 0
4, 114260, Note_on_c, 2, 64, 0
4, 114480, Note_on_c, 2, 57, 95
4, 114720, Note_on_c, 2, 57, 0
4, 114720, Note_on_c, 2, 57, 95
4, 114840, Note_on_c, 2, 57, 0
4, 114840, Note_on_c, 2, 59, 86
4, 114960, Note_on_c, 2, 59, 0
4, 114960, Note_on_c, 2, 62, 95
4, 115200, Note_on_c, 2, 62, 0
4, 115200, Note_on_c, 2, 59, 95
4, 115440, Note_on_c, 2, 59, 0
4, 115440, Note_on_c, 2, 57, 95
4, 115680, Note_on_c, 2, 57, 0
4, 115680, Note_on_c, 2, 52, 95
4, 115800, Note_on_c, 2, 52, 0
4, 115800, Note_on_c, 2, 54, 86
4, 116040, Note_on_c, 2, 54, 0
4, 116040, Note_on_c, 2, 66, 95
4, 116040, Note_on_c, 2, 62, 95
4, 116160, Note_on_c, 2, 62, 0
4, 116160, Note_on_c, 2, 66, 0
4, 116160, Note_on_c, 2, 64, 95
4, 116160, Note_on_c, 2, 59, 95
4, 116160, Note_on_c, 2, 55, 95
4, 116180, Note_on_c, 2, 55, 0
4, 116180, Note_on_c, 2, 59, 0
4, 116180, Note_on_c, 2, 64, 0
4, 116400, Note_on_c, 2, 52, 95
4, 116640, Note_on_c, 2, 52, 0
4, 116640, Note_on_c, 2, 52, 95
4, 116760, Note_on_c, 2, 52, 0
4, 116760, Note_on_c, 2, 54, 86
4, 116880, Note_on_c, 2, 54, 0
4, 116880, Note_on_c, 2, 66, 95
4, 116880, Note_on_c, 2, 62, 95
4, 117120, Note_on_c, 2, 62, 0
4, 117120, Note_on_c, 2, 66, 0
4, 117120, Note_on_c, 2, 59, 95
4, 117360, Note_on_c, 2, 59, 0
4, 117360, Note_on_c, 2, 59, 95
4, 117480, Note_on_c, 2, 59, 0
4, 117480, Note_on_c, 2, 57, 95
4, 117600, Note_on_c, 2, 57, 0
4, 117600, Note_on_c, 2, 57, 95
4, 117720, Note_on_c, 2, 57, 0
4, 117720, Note_on_c, 2, 59, 86
4, 117960, Note_on_c, 2, 59, 0
4, 117960, Note_on_c, 2, 66, 95
4, 117960, Note_on_c, 2, 62, 95
4, 118080, Note_on_c, 2, 62, 0
4, 118080, Note_on_c, 2, 66, 0
4, 118080, Note_on_c, 2, 64, 95
4, 118080, Note_on_c, 2, 59, 95
4, 118100, Note_on_c, 2, 59, 0
4, 118100, Note_on_c, 2, 64, 0
4, 118320, Note_on_c, 2, 57, 95
4, 118560, Note_on_c, 2, 57, 0
4, 118560, Note_on_c, 2, 57, 95
4, 118680, Note_on_c, 2, 57, 0
4, 118680, Note_on_c, 2, 59, 86
4, 118800, Note_on_c, 2, 59, 0
4, 118800, Note_on_c, 2, 62, 95
4, 119040, Note_on_c, 2, 62, 0
4, 119040, Note_on_c, 2, 59, 95
4, 119280, Note_on_c, 2, 59, 0
4, 119280, Note_on_c, 2, 57, 95
4, 119520, Note_on_c, 2, 57, 0
4, 119520, Note_on_c, 2, 57, 95
4, 119640, Note_on_c, 2, 57, 0
4, 119640, Note_on_c, 2, 59, 86
4, 119880, Note_on_c, 2, 59, 0
4, 119880, Note_on_c, 2, 66, 95
4, 119880, Note_on_c, 2, 62, 95
4, 120000, Note_on_c, 2, 62, 0
4, 120000, Note_on_c, 2, 66, 0
4, 120000, Note_on_c, 2, 64, 95
4, 120000, Note_on_c, 2, 59, 95
4, 120020, Note_on_c, 2, 59, 0
4, 120020, Note_on_c, 2, 64, 0
4, 120240, Note_on_c, 2, 57, 95
4, 120480, Note_on_c, 2, 57, 0
4, 120480, Note_on_c, 2, 57, 95
4, 120600, Note_on_c, 2, 57, 0
4, 120600, Note_on_c, 2, 59, 86
4, 120720, Note_on_c, 2, 59, 0
4, 120720, Note_on_c, 2, 66, 95
4, 120960, Note_on_c, 2, 66, 0
4, 120960, Note_on_c, 2, 62, 95
4, 121200, Note_on_c, 2, 62, 0
4, 121200, Note_on_c, 2, 59, 95
4, 121440, Note_on_c, 2, 59, 0
4, 121440, Note_on_c, 2, 57, 95
4, 121560, Note_on_c, 2, 57, 0
4, 121560, Note_on_c, 2, 59, 86
4, 121800, Note_on_c, 2, 59, 0
4, 121800, Note_on_c, 2, 66, 95
4, 121800, Note_on_c, 2, 62, 95
4, 121920, Note_on_c, 2, 62, 0
4, 121920, Note_on_c, 2, 66, 0
4, 121920, Note_on_c, 2, 64, 95
4, 121920, Note_on_c, 2, 59, 95
4, 121940, Note_on_c, 2, 59, 0
4, 121940, Note_on_c, 2, 64, 0
4, 122160, Note_on_c, 2, 57, 95
4, 122400, Note_on_c, 2, 57, 0
4, 122400, Note_on_c, 2, 57, 95
4, 122520, Note_on_c, 2, 57, 0
4, 122520, Note_on_c, 2, 59, 86
4, 122640, Note_on_c, 2, 59, 0
4, 122640, Note_on_c, 2, 62, 95
4, 122880, Note_on_c, 2, 62, 0
4, 122880, Note_on_c, 2, 59, 95
4, 123120, Note_on_c, 2, 59, 0
4, 123120, Note_on_c, 2, 57, 95
4, 123360, Note_on_c, 2, 57, 0
4, 123360, Note_on_c, 2, 52, 95
4, 123480, Note_on_c, 2, 52, 0
4, 123480, Note_on_c, 2, 54, 86
4, 123720, Note_on_c, 2, 54, 0
4, 123720, Note_on_c, 2, 66, 95
4, 123720, Note_on_c, 2, 62, 95
4, 123840, Note_on_c, 2, 62, 0
4, 123840, Note_on_c, 2, 66, 0
4, 123840, Note_on_c, 2, 64, 95
4, 123840, Note_on_c, 2, 59, 95
4, 123840, Note_on_c, 2, 55, 95
4, 123860, Note_on_c, 2, 55, 0
4, 123860, Note_on_c, 2, 59, 0
4, 123860, Note_on_c, 2, 64, 0
4, 124080, Note_on_c, 2, 52, 95
4, 124320, Note_on_c, 2, 52, 0
4, 124320, Note_on_c, 2, 52, 95
4, 124440, Note_on_c, 2, 52, 0
4, 124440, Note_on_c, 2, 54, 86
4, 124560, Note_on_c, 2, 54, 0
4, 124560, Note_on_c, 2, 66, 95
4, 124560, Note_on_c, 2, 62, 95
4, 124800, Note_on_c, 2, 62, 0
4, 124800, Note_on_c, 2, 66, 0
4, 124800, Note_on_c, 2, 59, 95
4, 125040, Note_on_c, 2, 59, 0
4, 125040, Note_on_c, 2, 59, 95
4, 125160, Note_on_c, 2, 59, 0
4, 125160, Note_on_c, 2, 57, 95
4, 125280, Note_on_c, 2, 57, 0
4, 125280, Note_on_c, 2, 57, 95
4, 125400, Note_on_c, 2, 57, 0
4, 125400, Note_on_c, 2, 59, 86
4, 125640, Note_on_c, 2, 59, 0
4, 125640, Note_on_c, 2, 66, 95
4, 125640, Note_on_c, 2, 62, 95
4, 125760, Note_on_c, 2, 62, 0
4, 125760, Note_on_c, 2, 66, 0
4, 125760, Note_on_c, 2, 64, 95
4, 125760, Note_on_c, 2, 59, 95
4, 125780, Note_on_c, 2, 59, 0
4, 125780, Note_on_c, 2, 64, 0
4, 126000, Note_on_c, 2, 57, 95
4, 126240, Note_on_c, 2, 57, 0
4, 126240, Note_on_c, 2, 57, 95
4, 126360, Note_on_c, 2, 57, 0
4, 126360, Note_on_c, 2, 59, 86
4, 126480, Note_on_c, 2, 59, 0
4, 126480, Note_on_c, 2, 62, 95
4, 126720, Note_on_c, 2, 62, 0
4, 126720, Note_on_c, 2, 59, 95
4, 126960, Note_on_c, 2, 59, 0
4, 126960, Note_on_c, 2, 57, 95
4, 127200, Note_on_c, 2, 57, 0
4, 127200, Note_on_c, 2, 57, 95
4, 127320, Note_on_c, 2, 57, 0
4, 127320, Note_on_c, 2, 59, 86
4, 127560, Note_on_c, 2, 59, 0
4, 127560, Note_on_c, 2, 66, 95
4, 127560, Note_on_c, 2, 62, 95
4, 127680, Note_on_c, 2, 62, 0
4, 127680, Note_on_c, 2, 66, 0
4, 127680, Note_on_c, 2, 64, 95
4, 127680, Note_on_c, 2, 59, 95
4, 127700, Note_on_c, 2, 59, 0
4, 127700, Note_on_c, 2, 64, 0
4, 127920, Note_on_c, 2, 57, 95
4, 128160, Note_on_c, 2, 57, 0
4, 128160, Note_on_c, 2, 57, 95
4, 128280, Note_on_c, 2, 57, 0
4, 128280, Note_on_c, 2, 59, 86
4, 128400, Note_on_c, 2, 59, 0
4, 128400, Note_on_c, 2, 66, 95
4, 128640, Note_on_c, 2, 66, 0
4, 128640, End_track
5, 0, Start_track
5, 0, Program_c, 3, 30
5, 0, Control_c, 3, 7, 112
5, 0, Control_c, 3, 10, 64
5, 0, Control_c, 3, 101, 0
5, 1, Control_c, 3, 100, 0
5, 2, Control_c, 3, 6, 12
5, 3, Control_c, 3, 38, 0
5, 3, Pitch_bend_c, 3, 8192
5, 3, Control_c, 3, 101, 0
5, 4, Control_c, 3, 100, 0
5, 5, Control_c, 3, 6, 12
5, 6, Control_c, 3, 38, 0
5, 6, Pitch_bend_c, 3, 8192
5, 6, Program_c, 3, 30
5, 6, Control_c, 3, 7, 112
5, 6, Control_c, 3, 10, 64
5, 6, Control_c, 3, 93, 0
5, 6, Control_c, 3, 93, 0
5, 6, Control_c, 3, 91, 0
5, 6, Control_c, 3, 91, 0
5, 6, Control_c, 3, 92, 0
5, 6, Control_c, 3, 92, 0
5, 6, Control_c, 3, 95, 0
5, 6, Control_c, 3, 95, 0
5, 40800, Control_c, 3, 93, 127
5, 40800, Control_c, 3, 93, 127
5, 40800, Control_c, 3, 91, 127
5, 40800, Control_c, 3, 91, 127
5, 40800, Note_on_c, 3, 74, 95
5, 40800, Pitch_bend_c, 3, 8192
5, 40896, Pitch_bend_c, 3, 8320
5, 41088, Pitch_bend_c, 3, 8448
5, 41280, Pitch_bend_c, 3, 8576
5, 41424, Pitch_bend_c, 3, 8704
5, 41616, Pitch_bend_c, 3, 8832
5, 41744, Pitch_bend_c, 3, 8960
5, 41776, Pitch_bend_c, 3, 8832
5, 41808, Pitch_bend_c, 3, 8704
5, 41840, Pitch_bend_c, 3, 8832
5, 41872, Pitch_bend_c, 3, 8960
5, 41904, Pitch_bend_c, 3, 8832
5, 41936, Pitch_bend_c, 3, 8704
5, 41968, Pitch_bend_c, 3, 8832
5, 42000, Pitch_bend_c, 3, 8960
5, 42032, Pitch_bend_c, 3, 8832
5, 42064, Pitch_bend_c, 3, 8704
5, 42096, Pitch_bend_c, 3, 8832
5, 42128, Pitch_bend_c, 3, 8960
5, 42160, Pitch_bend_c, 3, 8832
5, 42192, Pitch_bend_c, 3, 8704
5, 42224, Pitch_bend_c, 3, 8832
5, 42256, Pitch_bend_c, 3, 8960
5, 42288, Pitch_bend_c, 3, 8832
5, 42320, Pitch_bend_c, 3, 8704
5, 42352, Pitch_bend_c, 3, 8832
5, 42384, Pitch_bend_c, 3, 8960
5, 42416, Pitch_bend_c, 3, 8832
5, 42448, Pitch_bend_c, 3, 8704
5, 42480, Pitch_bend_c, 3, 8832
5, 42512, Pitch_bend_c, 3, 8960
5, 42544, Pitch_bend_c, 3, 8832
5, 42576, Pitch_bend_c, 3, 8704
5, 42608, Pitch_bend_c, 3, 8832
5, 42640, Pitch_bend_c, 3, 8960
5, 42672, Pitch_bend_c, 3, 8832
5, 42704, Pitch_bend_c, 3, 8704
5, 42720, Note_on_c, 3, 74, 0
5, 42720, Pitch_bend_c, 3, 8192
5, 42720, Note_on_c, 3, 74, 95
5, 42720, Pitch_bend_c, 3, 8192
5, 42768, Pitch_bend_c, 3, 8320
5, 42880, Pitch_bend_c, 3, 8448
5, 42960, Pitch_bend_c, 3, 8576
5, 43024, Pitch_bend_c, 3, 8704
5, 43136, Pitch_bend_c, 3, 8832
5, 43216, Pitch_bend_c, 3, 8960
5, 43328, Pitch_bend_c, 3, 9088
5, 43408, Pitch_bend_c, 3, 9216
5, 43472, Pitch_bend_c, 3, 9344
5, 43584, Pitch_bend_c, 3, 9472
5, 43664, Pitch_bend_c, 3, 9728
5, 43696, Pitch_bend_c, 3, 9600
5, 43728, Pitch_bend_c, 3, 9472
5, 43760, Pitch_bend_c, 3, 9600
5, 43792, Pitch_bend_c, 3, 9728
5, 43824, Pitch_bend_c, 3, 9600
5, 43856, Pitch_bend_c, 3, 9472
5, 43888, Pitch_bend_c, 3, 9600
5, 43920, Pitch_bend_c, 3, 9728
5, 43952, Pitch_bend_c, 3, 9600
5, 43984, Pitch_bend_c, 3, 9472
5, 44016, Pitch_bend_c, 3, 9600
5, 44048, Pitch_bend_c, 3, 9728
5, 44080, Pitch_bend_c, 3, 9600
5, 44112, Pitch_bend_c, 3, 9472
5, 44144, Pitch_bend_c, 3, 9600
5, 44176, Pitch_bend_c, 3, 9728
5, 44208, Pitch_bend_c, 3, 9600
5, 44240, Pitch_bend_c, 3, 9472
5, 44272, Pitch_bend_c, 3, 9600
5, 44304, Pitch_bend_c, 3, 9728
5, 44336, Pitch_bend_c, 3, 9600
5, 44368, Pitch_bend_c, 3, 9472
5, 44400, Pitch_bend_c, 3, 9600
5, 44432, Pitch_bend_c, 3, 9728
5, 44464, Pitch_bend_c, 3, 9600
5, 44496, Pitch_bend_c, 3, 9472
5, 44528, Pitch_bend_c, 3, 9600
5, 44560, Pitch_bend_c, 3, 9728
5, 44592, Pitch_bend_c, 3, 9600
5, 44624, Pitch_bend_c, 3, 9472
5, 44640, Note_on_c, 3, 74, 0
5, 44640, Pitch_bend_c, 3, 8192
5, 44640, Note_on_c, 3, 74, 95
5, 44640, Pitch_bend_c, 3, 8192
5, 44688, Pitch_bend_c, 3, 8320
5, 44740, Pitch_bend_c, 3, 7680
5, 44800, Pitch_bend_c, 3, 8448
5, 44840, Pitch_bend_c, 3, 8704
5, 44880, Pitch_bend_c, 3, 8576
5, 44940, Pitch_bend_c, 3, 7680
5, 44944, Pitch_bend_c, 3, 8704
5, 45040, Pitch_bend_c, 3, 8704
5, 45056, Pitch_bend_c, 3, 8832
5, 45136, Pitch_bend_c, 3, 8960
5, 45140, Pitch_bend_c, 3, 7680
5, 45240, Pitch_bend_c, 3, 8704
5, 45248, Pitch_bend_c, 3, 9088
5, 45328, Pitch_bend_c, 3, 9216
5, 45340, Pitch_bend_c, 3, 7680
5, 45392, Pitch_bend_c, 3, 9344
5, 45440, Pitch_bend_c, 3, 8704
5, 45504, Pitch_bend_c, 3, 9472
5, 45540, Pitch_bend_c, 3, 7680
5, 45584, Pitch_bend_c, 3, 9600
5, 45640, Pitch_bend_c, 3, 8704
5, 45740, Pitch_bend_c, 3, 7680
5, 45840, Pitch_bend_c, 3, 8704
5, 45940, Pitch_bend_c, 3, 7680
5, 46040, Pitch_bend_c, 3, 8704
5, 46140, Pitch_bend_c, 3, 7680
5, 46240, Pitch_bend_c, 3, 8704
5, 46340, Pitch_bend_c, 3, 7680
5, 46440, Pitch_bend_c, 3, 8704
5, 46540, Pitch_bend_c, 3, 7680
5, 46560, Note_on_c, 3, 74, 0
5, 46560, Pitch_bend_c, 3, 8192
5, 46560, Pitch_bend_c, 3, 8192
5, 46560, Note_on_c, 3, 74, 95
5, 46560, Pitch_bend_c, 3, 8192
5, 46576, Pitch_bend_c, 3, 8320
5, 46608, Pitch_bend_c, 3, 8448
5, 46624, Pitch_bend_c, 3, 8576
5, 46640, Pitch_bend_c, 3, 8704
5, 46672, Pitch_bend_c, 3, 8832
5, 46800, Note_on_c, 3, 74, 0
5, 46800, Pitch_bend_c, 3, 8192
5, 46800, Note_on_c, 3, 74, 95
5, 46800, Pitch_bend_c, 3, 8192
5, 46816, Pitch_bend_c, 3, 8320
5, 46848, Pitch_bend_c, 3, 8448
5, 46864, Pitch_bend_c, 3, 8576
5, 46880, Pitch_bend_c, 3, 8704
5, 46912, Pitch_bend_c, 3, 8832
5, 47040, Note_on_c, 3, 74, 0
5, 47040, Pitch_bend_c, 3, 8192
5, 47040, Note_on_c, 3, 74, 95
5, 47040, Pitch_bend_c, 3, 8192
5, 47056, Pitch_bend_c, 3, 8320
5, 47088, Pitch_bend_c, 3, 8448
5, 47104, Pitch_bend_c, 3, 8576
5, 47120, Pitch_bend_c, 3, 8704
5, 47152, Pitch_bend_c, 3, 8832
5, 47280, Note_on_c, 3, 74, 0
5, 47280, Pitch_bend_c, 3, 8192
5, 47280, Note_on_c, 3, 74, 95
5, 47280, Pitch_bend_c, 3, 8192
5, 47296, Pitch_bend_c, 3, 8320
5, 47328, Pitch_bend_c, 3, 8448
5, 47344, Pitch_bend_c, 3, 8576
5, 47360, Pitch_bend_c, 3, 8704
5, 47392, Pitch_bend_c, 3, 8832
5, 47520, Note_on_c, 3, 74, 0
5, 47520, Pitch_bend_c, 3, 8192
5, 47520, Note_on_c, 3, 74, 95
5, 47520, Pitch_bend_c, 3, 8192
5, 47536, Pitch_bend_c, 3, 8320
5, 47552, Pitch_bend_c, 3, 8448
5, 47568, Pitch_bend_c, 3, 8576
5, 47584, Pitch_bend_c, 3, 8704
5, 47600, Pitch_bend_c, 3, 8832
5, 47616, Pitch_bend_c, 3, 8960
5, 47632, Pitch_bend_c, 3, 9088
5, 47648, Pitch_bend_c, 3, 9216
5, 47760, Note_on_c, 3, 74, 0
5, 47760, Pitch_bend_c, 3, 8192
5, 47760, Note_on_c, 3, 74, 95
5, 47760, Pitch_bend_c, 3, 8192
5, 47776, Pitch_bend_c, 3, 8320
5, 47792, Pitch_bend_c, 3, 8448
5, 47808, Pitch_bend_c, 3, 8576
5, 47824, Pitch_bend_c, 3, 8704
5, 47840, Pitch_bend_c, 3, 8832
5, 47856, Pitch_bend_c, 3, 8960
5, 47872, Pitch_bend_c, 3, 9088
5, 47888, Pitch_bend_c, 3, 9216
5, 48000, Note_on_c, 3, 74, 0
5, 48000, Pitch_bend_c, 3, 8192
5, 48000, Note_on_c, 3, 74, 95
5, 48000, Pitch_bend_c, 3, 8192
5, 48016, Pitch_bend_c, 3, 8320
5, 48032, Pitch_bend_c, 3, 8576
5, 48048, Pitch_bend_c, 3, 8704
5, 48064, Pitch_bend_c, 3, 8960
5, 48080, Pitch_bend_c, 3, 9088
5, 48096, Pitch_bend_c, 3, 9344
5, 48112, Pitch_bend_c, 3, 9472
5, 48128, Pitch_bend_c, 3, 9600
5, 48256, Pitch_bend_c, 3, 9344
5, 48272, Pitch_bend_c, 3, 9216
5, 48288, Pitch_bend_c, 3, 8960
5, 48304, Pitch_bend_c, 3, 8832
5, 48320, Pitch_bend_c, 3, 8704
5, 48336, Pitch_bend_c, 3, 8448
5, 48352, Pitch_bend_c, 3, 8320
5, 48368, Pitch_bend_c, 3, 8192
5, 48480, Note_on_c, 3, 74, 0
5, 48480, Pitch_bend_c, 3, 8192
5, 48480, Control_c, 3, 93, 127
5, 48480, Control_c, 3, 93, 127
5, 48480, Control_c, 3, 91, 127
5, 48480, Control_c, 3, 91, 127
5, 48480, Note_on_c, 3, 74, 95
5, 48480, Pitch_bend_c, 3, 8192
5, 48576, Pitch_bend_c, 3, 8320
5, 48768, Pitch_bend_c, 3, 8448
5, 48960, Pitch_bend_c, 3, 8576
5, 49104, Pitch_bend_c, 3, 8704
5, 49296, Pitch_bend_c, 3, 8832
5, 49424, Pitch_bend_c, 3, 8960
5, 49456, Pitch_bend_c, 3, 8832
5, 49488, Pitch_bend_c, 3, 8704
5, 49520, Pitch_bend_c, 3, 8832
5, 49552, Pitch_bend_c, 3, 8960
5, 49584, Pitch_bend_c, 3, 8832
5, 49616, Pitch_bend_c, 3, 8704
5, 49648, Pitch_bend_c, 3, 8832
5, 49680, Pitch_bend_c, 3, 8960
5, 49712, Pitch_bend_c, 3, 8832
5, 49744, Pitch_bend_c, 3, 8704
5, 49776, Pitch_bend_c, 3, 8832
5, 49808, Pitch_bend_c, 3, 8960
5, 49840, Pitch_bend_c, 3, 8832
5, 49872, Pitch_bend_c, 3, 8704
5, 49904, Pitch_bend_c, 3, 8832
5, 49936, Pitch_bend_c, 3, 8960
5, 49968, Pitch_bend_c, 3, 8832
5, 50000, Pitch_bend_c, 3, 8704
5, 50032, Pitch_bend_c, 3, 8832
5, 50064, Pitch_bend_c, 3, 8960
5, 50096, Pitch_bend_c, 3, 8832
5, 50128, Pitch_bend_c, 3, 8704
5, 50160, Pitch_bend_c, 3, 8832
5, 50192, Pitch_bend_c, 3, 8960
5, 50224, Pitch_bend_c, 3, 8832
5, 50256, Pitch_bend_c, 3, 8704
5, 50288, Pitch_bend_c, 3, 8832
5, 50320, Pitch_bend_c, 3, 8960
5, 50352, Pitch_bend_c, 3, 8832
5, 50384, Pitch_bend_c, 3, 8704
5, 50400, Note_on_c, 3, 74, 0
5, 50400, Pitch_bend_c, 3, 8192
5, 50400, Note_on_c, 3, 74, 95
5, 50400, Pitch_bend_c, 3, 8192
5, 50416, Pitch_bend_c, 3, 8320
5, 50448, Pitch_bend_c, 3, 8448
5, 50464, Pitch_bend_c, 3, 8576
5, 50480, Pitch_bend_c, 3, 8704
5, 50512, Pitch_bend_c, 3, 8832
5, 50640, Note_on_c, 3, 74, 0
5, 50640, Pitch_bend_c, 3, 8192
5, 50640, Note_on_c, 3, 74, 95
5, 50640, Pitch_bend_c, 3, 8192
5, 50656, Pitch_bend_c, 3, 8320
5, 50688, Pitch_bend_c, 3, 8448
5, 50704, Pitch_bend_c, 3, 8576
5, 50720, Pitch_bend_c, 3, 8704
5, 50752, Pitch_bend_c, 3, 8832
5, 50880, Note_on_c, 3, 74, 0
5, 50880, Pitch_bend_c, 3, 8192
5, 50880, Note_on_c, 3, 74, 95
5, 50880, Pitch_bend_c, 3, 8192
5, 50896, Pitch_bend_c, 3, 8320
5, 50928, Pitch_bend_c, 3, 8448
5, 50944, Pitch_bend_c, 3, 8576
5, 50960, Pitch_bend_c, 3, 8704
5, 50992, Pitch_bend_c, 3, 8832
5, 51120, Note_on_c, 3, 74, 0
5, 51120, Pitch_bend_c, 3, 8192
5, 51120, Note_on_c, 3, 74, 95
5, 51120, Pitch_bend_c, 3, 8192
5, 51136, Pitch_bend_c, 3, 8320
5, 51168, Pitch_bend_c, 3, 8448
5, 51184, Pitch_bend_c, 3, 8576
5, 51200, Pitch_bend_c, 3, 8704
5, 51232, Pitch_bend_c, 3, 8832
5, 51360, Note_on_c, 3, 74, 0
5, 51360, Pitch_bend_c, 3, 8192
5, 51360, Note_on_c, 3, 74, 95
5, 51360, Pitch_bend_c, 3, 8192
5, 51376, Pitch_bend_c, 3, 8320
5, 51392, Pitch_bend_c, 3, 8448
5, 51408, Pitch_bend_c, 3, 8576
5, 51424, Pitch_bend_c, 3, 8704
5, 51440, Pitch_bend_c, 3, 8832
5, 51456, Pitch_bend_c, 3, 8960
5, 51472, Pitch_bend_c, 3, 9088
5, 51488, Pitch_bend_c, 3, 9216
5, 51600, Note_on_c, 3, 74, 0
5, 51600, Pitch_bend_c, 3, 8192
5, 51600, Note_on_c, 3, 74, 95
5, 51600, Pitch_bend_c, 3, 8192
5, 51616, Pitch_bend_c, 3, 8320
5, 51632, Pitch_bend_c, 3, 8448
5, 51648, Pitch_bend_c, 3, 8576
5, 51664, Pitch_bend_c, 3, 8704
5, 51680, Pitch_bend_c, 3, 8832
5, 51696, Pitch_bend_c, 3, 8960
5, 51712, Pitch_bend_c, 3, 9088
5, 51728, Pitch_bend_c, 3, 9216
5, 51840, Note_on_c, 3, 74, 0
5, 51840, Pitch_bend_c, 3, 8192
5, 51840, Note_on_c, 3, 74, 95
5, 51840, Pitch_bend_c, 3, 8192
5, 51856, Pitch_bend_c, 3, 8320
5, 51872, Pitch_bend_c, 3, 8576
5, 51888, Pitch_bend_c, 3, 8704
5, 51904, Pitch_bend_c, 3, 8960
5, 51920, Pitch_bend_c, 3, 9088
5, 51936, Pitch_bend_c, 3, 9344
5, 51952, Pitch_bend_c, 3, 9472
5, 51968, Pitch_bend_c, 3, 9600
5, 52096, Pitch_bend_c, 3, 9344
5, 52112, Pitch_bend_c, 3, 9216
5, 52128, Pitch_bend_c, 3, 8960
5, 52144, Pitch_bend_c, 3, 8832
5, 52160, Pitch_bend_c, 3, 8704
5, 52176, Pitch_bend_c, 3, 8448
5, 52192, Pitch_bend_c, 3, 8320
5, 52208, Pitch_bend_c, 3, 8192
5, 52320, Note_on_c, 3, 74, 0
5, 52320, Pitch_bend_c, 3, 8192
5, 52320, Note_on_c, 3, 74, 95
5, 52320, Pitch_bend_c, 3, 8192
5, 52336, Pitch_bend_c, 3, 8320
5, 52368, Pitch_bend_c, 3, 8576
5, 52384, Pitch_bend_c, 3, 8704
5, 52416, Pitch_bend_c, 3, 8960
5, 52432, Pitch_bend_c, 3, 9088
5, 52464, Pitch_bend_c, 3, 9344
5, 52480, Pitch_bend_c, 3, 9472
5, 52512, Pitch_bend_c, 3, 9600
5, 52528, Pitch_bend_c, 3, 9856
5, 52560, Pitch_bend_c, 3, 9984
5, 52576, Pitch_bend_c, 3, 10240
5, 52608, Pitch_bend_c, 3, 10368
5, 52624, Pitch_bend_c, 3, 10496
5, 52656, Pitch_bend_c, 3, 10752
5, 52672, Pitch_bend_c, 3, 10880
5, 53056, Pitch_bend_c, 3, 10752
5, 53088, Pitch_bend_c, 3, 10496
5, 53104, Pitch_bend_c, 3, 10368
5, 53136, Pitch_bend_c, 3, 10240
5, 53152, Pitch_bend_c, 3, 9984
5, 53184, Pitch_bend_c, 3, 9856
5, 53200, Pitch_bend_c, 3, 9600
5, 53232, Pitch_bend_c, 3, 9472
5, 53248, Pitch_bend_c, 3, 9344
5, 53280, Pitch_bend_c, 3, 9088
5, 53296, Pitch_bend_c, 3, 8960
5, 53328, Pitch_bend_c, 3, 8704
5, 53344, Pitch_bend_c, 3, 8576
5, 53376, Pitch_bend_c, 3, 8320
5, 53392, Pitch_bend_c, 3, 8192
5, 53760, Note_on_c, 3, 74, 0
5, 53760, Pitch_bend_c, 3, 8192
5, 53760, Note_on_c, 3, 74, 95
5, 54240, Note_on_c, 3, 74, 0
5, 54240, Note_on_c, 3, 74, 95
5, 54240, Pitch_bend_c, 3, 8192
5, 54256, Pitch_bend_c, 3, 8320
5, 54288, Pitch_bend_c, 3, 8448
5, 54304, Pitch_bend_c, 3, 8576
5, 54320, Pitch_bend_c, 3, 8704
5, 54352, Pitch_bend_c, 3, 8832
5, 54368, Pitch_bend_c, 3, 8960
5, 54400, Pitch_bend_c, 3, 9088
5, 54416, Pitch_bend_c, 3, 9216
5, 54432, Pitch_bend_c, 3, 9344
5, 54464, Pitch_bend_c, 3, 9472
5, 54480, Pitch_bend_c, 3, 9600
5, 54736, Pitch_bend_c, 3, 9472
5, 54752, Pitch_bend_c, 3, 9344
5, 54784, Pitch_bend_c, 3, 9216
5, 54800, Pitch_bend_c, 3, 9088
5, 54816, Pitch_bend_c, 3, 8960
5, 54848, Pitch_bend_c, 3, 8832
5, 54864, Pitch_bend_c, 3, 8704
5, 54896, Pitch_bend_c, 3, 8576
5, 54912, Pitch_bend_c, 3, 8448
5, 54928, Pitch_bend_c, 3, 8320
5, 54960, Pitch_bend_c, 3, 8192
5, 55200, Note_on_c, 3, 74, 0
5, 55200, Pitch_bend_c, 3, 8192
5, 55200, Note_on_c, 3, 74, 95
5, 55280, Pitch_bend_c, 3, 8192
5, 55360, Pitch_bend_c, 3, 8448
5, 55440, Pitch_bend_c, 3, 8192
5, 55520, Pitch_bend_c, 3, 8448
5, 55600, Pitch_bend_c, 3, 8192
5, 55680, Pitch_bend_c, 3, 8448
5, 55760, Pitch_bend_c, 3, 8192
5, 55840, Pitch_bend_c, 3, 8448
5, 55920, Pitch_bend_c, 3, 8192
5, 56000, Pitch_bend_c, 3, 8448
5, 56080, Pitch_bend_c, 3, 8192
5, 56160, Note_on_c, 3, 74, 0
5, 56160, Pitch_bend_c, 3, 8448
5, 56160, Pitch_bend_c, 3, 8192
5, 56160, Note_on_c, 3, 74, 95
5, 56160, Pitch_bend_c, 3, 8192
5, 56192, Pitch_bend_c, 3, 8320
5, 56208, Pitch_bend_c, 3, 8576
5, 56256, Pitch_bend_c, 3, 8704
5, 56260, Pitch_bend_c, 3, 7680
5, 56272, Pitch_bend_c, 3, 8960
5, 56320, Pitch_bend_c, 3, 9088
5, 56336, Pitch_bend_c, 3, 9344
5, 56360, Pitch_bend_c, 3, 8704
5, 56384, Pitch_bend_c, 3, 9472
5, 56400, Pitch_bend_c, 3, 9600
5, 56448, Pitch_bend_c, 3, 9856
5, 56460, Pitch_bend_c, 3, 7680
5, 56464, Pitch_bend_c, 3, 9984
5, 56512, Pitch_bend_c, 3, 10240
5, 56528, Pitch_bend_c, 3, 10368
5, 56560, Pitch_bend_c, 3, 8704
5, 56576, Pitch_bend_c, 3, 10496
5, 56592, Pitch_bend_c, 3, 10752
5, 56640, Pitch_bend_c, 3, 10880
5, 56660, Pitch_bend_c, 3, 7680
5, 56760, Pitch_bend_c, 3, 8704
5, 56860, Pitch_bend_c, 3, 7680
5, 56960, Pitch_bend_c, 3, 8704
5, 57060, Pitch_bend_c, 3, 7680
5, 57152, Pitch_bend_c, 3, 10752
5, 57160, Pitch_bend_c, 3, 8704
5, 57184, Pitch_bend_c, 3, 10496
5, 57216, Pitch_bend_c, 3, 10368
5, 57232, Pitch_bend_c, 3, 10240
5, 57260, Pitch_bend_c, 3, 7680
5, 57280, Pitch_bend_c, 3, 9984
5, 57296, Pitch_bend_c, 3, 9856
5, 57344, Pitch_bend_c, 3, 9600
5, 57360, Pitch_bend_c, 3, 8704
5, 57360, Pitch_bend_c, 3, 9472
5, 57408, Pitch_bend_c, 3, 9344
5, 57424, Pitch_bend_c, 3, 9088
5, 57460, Pitch_bend_c, 3, 7680
5, 57472, Pitch_bend_c, 3, 8960
5, 57488, Pitch_bend_c, 3, 8704
5, 57536, Pitch_bend_c, 3, 8576
5, 57552, Pitch_bend_c, 3, 8320
5, 57560, Pitch_bend_c, 3, 8704
5, 57600, Pitch_bend_c, 3, 8192
5, 57660, Pitch_bend_c, 3, 7680
5, 57760, Pitch_bend_c, 3, 8704
5, 57860, Pitch_bend_c, 3, 7680
5, 57960, Pitch_bend_c, 3, 8704
5, 58060, Pitch_bend_c, 3, 7680
5, 58080, Note_on_c, 3, 74, 0
5, 58080, Pitch_bend_c, 3, 8192
5, 58080, Pitch_bend_c, 3, 8192
5, 58080, Control_c, 3, 7, 72
5, 58080, Control_c, 3, 7, 72
5, 58080, Note_on_c, 3, 74, 95
5, 58080, Pitch_bend_c, 3, 8192
5, 58112, Pitch_bend_c, 3, 8320
5, 58208, Pitch_bend_c, 3, 8448
5, 58256, Pitch_bend_c, 3, 8576
5, 58304, Pitch_bend_c, 3, 8704
5, 58400, Pitch_bend_c, 3, 8832
5, 58448, Pitch_bend_c, 3, 8960
5, 58544, Pitch_bend_c, 3, 9088
5, 58592, Pitch_bend_c, 3, 9216
5, 58640, Pitch_bend_c, 3, 9344
5, 58736, Pitch_bend_c, 3, 9472
5, 58784, Pitch_bend_c, 3, 9600
5, 58880, Pitch_bend_c, 3, 9728
5, 58928, Pitch_bend_c, 3, 9856
5, 58976, Pitch_bend_c, 3, 9984
5, 59072, Pitch_bend_c, 3, 10112
5, 59120, Pitch_bend_c, 3, 10240
5, 59216, Pitch_bend_c, 3, 10368
5, 59264, Pitch_bend_c, 3, 10496
5, 59360, Pitch_bend_c, 3, 10624
5, 59408, Pitch_bend_c, 3, 10752
5, 59456, Pitch_bend_c, 3, 10880
5, 60960, Note_on_c, 3, 74, 0
5, 60960, Pitch_bend_c, 3, 8192
5, 67680, Program_c, 3, 30
5, 67680, Program_c, 3, 30
5, 67680, Control_c, 3, 7, 64
5, 67680, Control_c, 3, 7, 64
5, 67680, Note_on_c, 3, 62, 95
5, 68160, Note_on_c, 3, 62, 0
5, 68160, Note_on_c, 3, 59, 95
5, 68400, Note_on_c, 3, 59, 0
5, 68400, Note_on_c, 3, 57, 95
5, 68880, Note_on_c, 3, 57, 0
5, 68880, Note_on_c, 3, 54, 95
5, 69120, Note_on_c, 3, 54, 0
5, 69120, Note_on_c, 3, 52, 95
5, 69240, Note_on_c, 3, 52, 0
5, 69240, Note_on_c, 3, 53, 86
5, 69360, Note_on_c, 3, 53, 0
5, 69360, Note_on_c, 3, 54, 86
5, 69440, Pitch_bend_c, 3, 8192
5, 69520, Pitch_bend_c, 3, 8448
5, 69600, Note_on_c, 3, 54, 0
5, 69600, Pitch_bend_c, 3, 8192
5, 69600, Pitch_bend_c, 3, 8192
5, 69600, Note_on_c, 3, 61, 95
5, 70080, Note_on_c, 3, 61, 0
5, 70080, Note_on_c, 3, 57, 95
5, 70320, Note_on_c, 3, 57, 0
5, 70320, Note_on_c, 3, 54, 95
5, 70800, Note_on_c, 3, 54, 0
5, 70800, Note_on_c, 3, 52, 95
5, 71040, Note_on_c, 3, 52, 0
5, 71040, Note_on_c, 3, 52, 95
5, 71160, Note_on_c, 3, 52, 0
5, 71160, Note_on_c, 3, 53, 86
5, 71280, Note_on_c, 3, 53, 0
5, 71280, Note_on_c, 3, 54, 86
5, 71520, Note_on_c, 3, 54, 0
5, 71520, Note_on_c, 3, 52, 95
5, 72000, Note_on_c, 3, 52, 0
5, 72000, Note_on_c, 3, 50, 95
5, 72240, Note_on_c, 3, 50, 0
5, 72240, Note_on_c, 3, 47, 95
5, 72720, Note_on_c, 3, 47, 0
5, 72720, Note_on_c, 3, 45, 95
5, 72960, Note_on_c, 3, 45, 0
5, 72960, Note_on_c, 3, 45, 95
5, 73080, Note_on_c, 3, 45, 0
5, 73080, Note_on_c, 3, 46, 86
5, 73200, Note_on_c, 3, 46, 0
5, 73200, Note_on_c, 3, 47, 86
5, 73440, Note_on_c, 3, 47, 0
5, 73440, Note_on_c, 3, 52, 95
5, 73920, Note_on_c, 3, 52, 0
5, 73920, Note_on_c, 3, 50, 95
5, 74160, Note_on_c, 3, 50, 0
5, 74160, Note_on_c, 3, 47, 95
5, 74640, Note_on_c, 3, 47, 0
5, 74640, Note_on_c, 3, 45, 95
5, 74880, Note_on_c, 3, 45, 0
5, 74880, Note_on_c, 3, 45, 95
5, 75000, Note_on_c, 3, 45, 0
5, 75000, Note_on_c, 3, 46, 86
5, 75120, Note_on_c, 3, 46, 0
5, 75120, Note_on_c, 3, 47, 86
5, 75200, Pitch_bend_c, 3, 8192
5, 75280, Pitch_bend_c, 3, 8448
5, 75360, Note_on_c, 3, 47, 0
5, 75360, Pitch_bend_c, 3, 8192
5, 75360, Pitch_bend_c, 3, 8192
5, 75360, Note_on_c, 3, 62, 95
5, 75840, Note_on_c, 3, 62, 0
5, 75840, Note_on_c, 3, 59, 95
5, 76080, Note_on_c, 3, 59, 0
5, 76080, Note_on_c, 3, 57, 95
5, 76560, Note_on_c, 3, 57, 0
5, 76560, Note_on_c, 3, 54, 95
5, 76800, Note_on_c, 3, 54, 0
5, 76800, Note_on_c, 3, 52, 95
5, 76920, Note_on_c, 3, 52, 0
5, 76920, Note_on_c, 3, 53, 86
5, 77040, Note_on_c, 3, 53, 0
5, 77040, Note_on_c, 3, 54, 86
5, 77120, Pitch_bend_c, 3, 8192
5, 77200, Pitch_bend_c, 3, 8448
5, 77280, Note_on_c, 3, 54, 0
5, 77280, Pitch_bend_c, 3, 8192
5, 77280, Pitch_bend_c, 3, 8192
5, 77280, Note_on_c, 3, 61, 95
5, 77760, Note_on_c, 3, 61, 0
5, 77760, Note_on_c, 3, 57, 95
5, 78000, Note_on_c, 3, 57, 0
5, 78000, Note_on_c, 3, 54, 95
5, 78480, Note_on_c, 3, 54, 0
5, 78480, Note_on_c, 3, 52, 95
5, 78720, Note_on_c, 3, 52, 0
5, 78720, Note_on_c, 3, 52, 95
5, 78840, Note_on_c, 3, 52, 0
5, 78840, Note_on_c, 3, 53, 86
5, 78960, Note_on_c, 3, 53, 0
5, 78960, Note_on_c, 3, 54, 86
5, 79200, Note_on_c, 3, 54, 0
5, 79200, Note_on_c, 3, 52, 95
5, 79680, Note_on_c, 3, 52, 0
5, 79680, Note_on_c, 3, 50, 95
5, 79920, Note_on_c, 3, 50, 0
5, 79920, Note_on_c, 3, 47, 95
5, 80400, Note_on_c, 3, 47, 0
5, 80400, Note_on_c, 3, 45, 95
5, 80640, Note_on_c, 3, 45, 0
5, 80640, Note_on_c, 3, 45, 95
5, 80760, Note_on_c, 3, 45, 0
5, 80760, Note_on_c, 3, 46, 86
5, 80880, Note_on_c, 3, 46, 0
5, 80880, Note_on_c, 3, 47, 86
5, 81120, Note_on_c, 3, 47, 0
5, 81120, Note_on_c, 3, 52, 95
5, 81600, Note_on_c, 3, 52, 0
5, 81600, Note_on_c, 3, 50, 95
5, 81840, Note_on_c, 3, 50, 0
5, 81840, Note_on_c, 3, 47, 95
5, 82320, Note_on_c, 3, 47, 0
5, 82320, Note_on_c, 3, 45, 95
5, 82560, Note_on_c, 3, 45, 0
5, 82560, Note_on_c, 3, 45, 95
5, 82680, Note_on_c, 3, 45, 0
5, 82680, Note_on_c, 3, 46, 86
5, 82800, Note_on_c, 3, 46, 0
5, 82800, Note_on_c, 3, 47, 95
5, 83040, Note_on_c, 3, 47, 0
5, 83040, Control_c, 3, 7, 112
5, 83040, Control_c, 3, 7, 112
5, 83040, Note_on_c, 3, 62, 95
5, 83040, Pitch_bend_c, 3, 8192
5, 83152, Pitch_bend_c, 3, 8320
5, 83392, Pitch_bend_c, 3, 8448
5, 83616, Pitch_bend_c, 3, 8576
5, 84240, Note_on_c, 3, 62, 0
5, 84240, Pitch_bend_c, 3, 8192
5, 84240, Note_on_c, 3, 62, 95
5, 84480, Note_on_c, 3, 62, 0
5, 84480, Note_on_c, 3, 64, 95
5, 84720, Note_on_c, 3, 64, 0
5, 84720, Note_on_c, 3, 65, 95
5, 84720, Pitch_bend_c, 3, 8192
5, 84768, Pitch_bend_c, 3, 8320
5, 84832, Pitch_bend_c, 3, 8448
5, 84912, Pitch_bend_c, 3, 8576
5, 84960, Pitch_bend_c, 3, 8704
5, 85024, Pitch_bend_c, 3, 8832
5, 85504, Pitch_bend_c, 3, 8704
5, 85584, Pitch_bend_c, 3, 8576
5, 85632, Pitch_bend_c, 3, 8448
5, 85696, Pitch_bend_c, 3, 8320
5, 85776, Pitch_bend_c, 3, 8192
5, 86160, Note_on_c, 3, 65, 0
5, 86160, Pitch_bend_c, 3, 8192
5, 86160, Note_on_c, 3, 62, 95
5, 86400, Note_on_c, 3, 62, 0
5, 86400, Note_on_c, 3, 64, 95
5, 86640, Note_on_c, 3, 64, 0
5, 86640, Note_on_c, 3, 66, 95
5, 86880, Note_on_c, 3, 66, 0
5, 86880, Note_on_c, 3, 74, 95
5, 87360, Note_on_c, 3, 74, 0
5, 87360, Note_on_c, 3, 71, 95
5, 87600, Note_on_c, 3, 71, 0
5, 87600, Note_on_c, 3, 69, 95
5, 88080, Note_on_c, 3, 69, 0
5, 88080, Note_on_c, 3, 66, 95
5, 88320, Note_on_c, 3, 66, 0
5, 88320, Note_on_c, 3, 64, 95
5, 88440, Note_on_c, 3, 64, 0
5, 88440, Note_on_c, 3, 65, 95
5, 88560, Note_on_c, 3, 65, 0
5, 88560, Note_on_c, 3, 66, 95
5, 88800, Note_on_c, 3, 66, 0
5, 88800, Note_on_c, 3, 74, 95
5, 89280, Note_on_c, 3, 74, 0
5, 89280, Note_on_c, 3, 71, 95
5, 89520, Note_on_c, 3, 71, 0
5, 89520, Note_on_c, 3, 69, 95
5, 90000, Note_on_c, 3, 69, 0
5, 90000, Note_on_c, 3, 66, 95
5, 90240, Note_on_c, 3, 66, 0
5, 90240, Note_on_c, 3, 64, 95
5, 90360, Note_on_c, 3, 64, 0
5, 90360, Note_on_c, 3, 65, 95
5, 90480, Note_on_c, 3, 65, 0
5, 90480, Note_on_c, 3, 66, 95
5, 90720, Note_on_c, 3, 66, 0
5, 91200, Note_on_c, 3, 66, 95
5, 91200, Note_on_c, 3, 64, 95
5, 91200, Pitch_bend_c, 3, 8192
5, 91216, Pitch_bend_c, 3, 8320
5, 91248, Pitch_bend_c, 3, 8448
5, 91264, Pitch_bend_c, 3, 8576
5, 91296, Pitch_bend_c, 3, 8704
5, 91312, Pitch_bend_c, 3, 8832
5, 91344, Pitch_bend_c, 3, 8960
5, 91360, Pitch_bend_c, 3, 9088
5, 91392, Pitch_bend_c, 3, 9344
5, 91408, Pitch_bend_c, 3, 9472
5, 91440, Pitch_bend_c, 3, 9600
5, 91456, Pitch_bend_c, 3, 9728
5, 91488, Pitch_bend_c, 3, 9856
5, 91504, Pitch_bend_c, 3, 9984
5, 91536, Pitch_bend_c, 3, 10112
5, 91552, Pitch_bend_c, 3, 10240
5, 91584, Pitch_bend_c, 3, 10368
5, 91600, Pitch_bend_c, 3, 10496
5, 91632, Pitch_bend_c, 3, 10624
5, 91648, Pitch_bend_c, 3, 10752
5, 91680, Pitch_bend_c, 3, 10880
5, 91696, Pitch_bend_c, 3, 11008
5, 91728, Pitch_bend_c, 3, 11136
5, 91744, Pitch_bend_c, 3, 11392
5, 91776, Pitch_bend_c, 3, 11520
5, 91792, Pitch_bend_c, 3, 11648
5, 91824, Pitch_bend_c, 3, 11776
5, 91840, Pitch_bend_c, 3, 11904
5, 91872, Pitch_bend_c, 3, 12032
5, 91888, Pitch_bend_c, 3, 12160
5, 91920, Pitch_bend_c, 3, 12288
5, 92640, Note_on_c, 3, 64, 0
5, 92640, Note_on_c, 3, 66, 0
5, 92640, Pitch_bend_c, 3, 8192
5, 93120, Note_on_c, 3, 66, 95
5, 93120, Note_on_c, 3, 64, 95
5, 93120, Pitch_bend_c, 3, 8192
5, 93136, Pitch_bend_c, 3, 8320
5, 93168, Pitch_bend_c, 3, 8448
5, 93184, Pitch_bend_c, 3, 8576
5, 93216, Pitch_bend_c, 3, 8704
5, 93232, Pitch_bend_c, 3, 8832
5, 93264, Pitch_bend_c, 3, 8960
5, 93280, Pitch_bend_c, 3, 9088
5, 93312, Pitch_bend_c, 3, 9344
5, 93328, Pitch_bend_c, 3, 9472
5, 93360, Pitch_bend_c, 3, 9600
5, 93376, Pitch_bend_c, 3, 9728
5, 93408, Pitch_bend_c, 3, 9856
5, 93424, Pitch_bend_c, 3, 9984
5, 93456, Pitch_bend_c, 3, 10112
5, 93472, Pitch_bend_c, 3, 10240
5, 93504, Pitch_bend_c, 3, 10368
5, 93520, Pitch_bend_c, 3, 10496
5, 93552, Pitch_bend_c, 3, 10624
5, 93568, Pitch_bend_c, 3, 10752
5, 93600, Pitch_bend_c, 3, 10880
5, 93616, Pitch_bend_c, 3, 11008
5, 93648, Pitch_bend_c, 3, 11136
5, 93664, Pitch_bend_c, 3, 11392
5, 93696, Pitch_bend_c, 3, 11520
5, 93712, Pitch_bend_c, 3, 11648
5, 93744, Pitch_bend_c, 3, 11776
5, 93760, Pitch_bend_c, 3, 11904
5, 93792, Pitch_bend_c, 3, 12032
5, 93808, Pitch_bend_c, 3, 12160
5, 93840, Pitch_bend_c, 3, 12288
5, 94560, Note_on_c, 3, 64, 0
5, 94560, Note_on_c, 3, 66, 0
5, 94560, Pitch_bend_c, 3, 8192
5, 95040, Note_on_c, 3, 66, 95
5, 95040, Note_on_c, 3, 64, 95
5, 95040, Pitch_bend_c, 3, 8192
5, 95056, Pitch_bend_c, 3, 8320
5, 95088, Pitch_bend_c, 3, 8448
5, 95104, Pitch_bend_c, 3, 8576
5, 95136, Pitch_bend_c, 3, 8704
5, 95152, Pitch_bend_c, 3, 8832
5, 95184, Pitch_bend_c, 3, 8960
5, 95200, Pitch_bend_c, 3, 9088
5, 95232, Pitch_bend_c, 3, 9344
5, 95248, Pitch_bend_c, 3, 9472
5, 95280, Pitch_bend_c, 3, 9600
5, 95296, Pitch_bend_c, 3, 9728
5, 95328, Pitch_bend_c, 3, 9856
5, 95344, Pitch_bend_c, 3, 9984
5, 95376, Pitch_bend_c, 3, 10112
5, 95392, Pitch_bend_c, 3, 10240
5, 95424, Pitch_bend_c, 3, 10368
5, 95440, Pitch_bend_c, 3, 10496
5, 95472, Pitch_bend_c, 3, 10624
5, 95488, Pitch_bend_c, 3, 10752
5, 95520, Pitch_bend_c, 3, 10880
5, 95536, Pitch_bend_c, 3, 11008
5, 95568, Pitch_bend_c, 3, 11136
5, 95584, Pitch_bend_c, 3, 11392
5, 95616, Pitch_bend_c, 3, 11520
5, 95632, Pitch_bend_c, 3, 11648
5, 95664, Pitch_bend_c, 3, 11776
5, 95680, Pitch_bend_c, 3, 11904
5, 95712, Pitch_bend_c, 3, 12032
5, 95728, Pitch_bend_c, 3, 12160
5, 95760, Pitch_bend_c, 3, 12288
5, 96480, Note_on_c, 3, 64, 0
5, 96480, Note_on_c, 3, 66, 0
5, 96480, Pitch_bend_c, 3, 8192
5, 96480, Note_on_c, 3, 66, 95
5, 96480, Note_on_c, 3, 64, 95
5, 96480, Pitch_bend_c, 3, 8192
5, 96496, Pitch_bend_c, 3, 8448
5, 96512, Pitch_bend_c, 3, 8704
5, 96528, Pitch_bend_c, 3, 8960
5, 96544, Pitch_bend_c, 3, 9344
5, 96560, Pitch_bend_c, 3, 9600
5, 96576, Pitch_bend_c, 3, 9856
5, 96592, Pitch_bend_c, 3, 10112
5, 96608, Pitch_bend_c, 3, 10368
5, 96624, Pitch_bend_c, 3, 10624
5, 96640, Pitch_bend_c, 3, 10880
5, 96656, Pitch_bend_c, 3, 11136
5, 96672, Pitch_bend_c, 3, 11520
5, 96688, Pitch_bend_c, 3, 11776
5, 96704, Pitch_bend_c, 3, 12032
5, 96720, Pitch_bend_c, 3, 12288
5, 96960, Note_on_c, 3, 64, 0
5, 96960, Note_on_c, 3, 66, 0
5, 96960, Pitch_bend_c, 3, 8192
5, 96960, Note_on_c, 3, 66, 95
5, 96960, Note_on_c, 3, 64, 95
5, 96960, Pitch_bend_c, 3, 8192
5, 96976, Pitch_bend_c, 3, 8704
5, 96992, Pitch_bend_c, 3, 9216
5, 97008, Pitch_bend_c, 3, 9728
5, 97024, Pitch_bend_c, 3, 10240
5, 97040, Pitch_bend_c, 3, 10752
5, 97056, Pitch_bend_c, 3, 11136
5, 97072, Pitch_bend_c, 3, 11648
5, 97088, Pitch_bend_c, 3, 11904
5, 97200, Note_on_c, 3, 64, 0
5, 97200, Note_on_c, 3, 66, 0
5, 97200, Pitch_bend_c, 3, 8192
5, 97200, Note_on_c, 3, 66, 95
5, 97200, Note_on_c, 3, 64, 95
5, 97200, Pitch_bend_c, 3, 8192
5, 97216, Pitch_bend_c, 3, 8704
5, 97232, Pitch_bend_c, 3, 9088
5, 97248, Pitch_bend_c, 3, 9600
5, 97264, Pitch_bend_c, 3, 9984
5, 97280, Pitch_bend_c, 3, 10496
5, 97296, Pitch_bend_c, 3, 10880
5, 97312, Pitch_bend_c, 3, 11392
5, 97328, Pitch_bend_c, 3, 11648
5, 97440, Note_on_c, 3, 64, 0
5, 97440, Note_on_c, 3, 66, 0
5, 97440, Pitch_bend_c, 3, 8192
5, 97440, Note_on_c, 3, 66, 95
5, 97440, Note_on_c, 3, 64, 95
5, 97440, Pitch_bend_c, 3, 8192
5, 97456, Pitch_bend_c, 3, 8576
5, 97472, Pitch_bend_c, 3, 8960
5, 97488, Pitch_bend_c, 3, 9472
5, 97504, Pitch_bend_c, 3, 9856
5, 97520, Pitch_bend_c, 3, 10240
5, 97536, Pitch_bend_c, 3, 10624
5, 97552, Pitch_bend_c, 3, 11008
5, 97568, Pitch_bend_c, 3, 11264
5, 97680, Note_on_c, 3, 64, 0
5, 97680, Note_on_c, 3, 66, 0
5, 97680, Pitch_bend_c, 3, 8192
5, 97680, Note_on_c, 3, 66, 95
5, 97680, Note_on_c, 3, 64, 95
5, 97680, Pitch_bend_c, 3, 8192
5, 97696, Pitch_bend_c, 3, 8576
5, 97712, Pitch_bend_c, 3, 8960
5, 97728, Pitch_bend_c, 3, 9344
5, 97744, Pitch_bend_c, 3, 9600
5, 97760, Pitch_bend_c, 3, 9984
5, 97776, Pitch_bend_c, 3, 10368
5, 97792, Pitch_bend_c, 3, 10752
5, 97808, Pitch_bend_c, 3, 10880
5, 97920, Note_on_c, 3, 64, 0
5, 97920, Note_on_c, 3, 66, 0
5, 97920, Pitch_bend_c, 3, 8192
5, 97920, Note_on_c, 3, 66, 95
5, 97920, Note_on_c, 3, 64, 95
5, 97920, Pitch_bend_c, 3, 8192
5, 97936, Pitch_bend_c, 3, 8704
5, 97952, Pitch_bend_c, 3, 9344
5, 97968, Pitch_bend_c, 3, 9856
5, 97984, Pitch_bend_c, 3, 10368
5, 98000, Pitch_bend_c, 3, 10880
5, 98016, Pitch_bend_c, 3, 11520
5, 98032, Pitch_bend_c, 3, 12032
5, 98048, Pitch_bend_c, 3, 12288
5, 98176, Pitch_bend_c, 3, 11776
5, 98192, Pitch_bend_c, 3, 11136
5, 98208, Pitch_bend_c, 3, 10624
5, 98224, Pitch_bend_c, 3, 10112
5, 98240, Pitch_bend_c, 3, 9600
5, 98256, Pitch_bend_c, 3, 8960
5, 98272, Pitch_bend_c, 3, 8448
5, 98288, Pitch_bend_c, 3, 8192
5, 98400, Note_on_c, 3, 64, 0
5, 98400, Note_on_c, 3, 66, 0
5, 98400, Pitch_bend_c, 3, 8192
5, 138720, Control_c, 3, 93, 127
5, 138720, Control_c, 3, 93, 127
5, 138720, Control_c, 3, 91, 127
5, 138720, Control_c, 3, 91, 127
5, 138720, Note_on_c, 3, 74, 95
5, 138720, Pitch_bend_c, 3, 8192
5, 138816, Pitch_bend_c, 3, 8320
5, 139008, Pitch_bend_c, 3, 8448
5, 139200, Pitch_bend_c, 3, 8576
5, 139344, Pitch_bend_c, 3, 8704
5, 139536, Pitch_bend_c, 3, 8832
5, 139664, Pitch_bend_c, 3, 8960
5, 139696, Pitch_bend_c, 3, 8832
5, 139728, Pitch_bend_c, 3, 8704
5, 139760, Pitch_bend_c, 3, 8832
5, 139792, Pitch_bend_c, 3, 8960
5, 139824, Pitch_bend_c, 3, 8832
5, 139856, Pitch_bend_c, 3, 8704
5, 139888, Pitch_bend_c, 3, 8832
5, 139920, Pitch_bend_c, 3, 8960
5, 139952, Pitch_bend_c, 3, 8832
5, 139984, Pitch_bend_c, 3, 8704
5, 140016, Pitch_bend_c, 3, 8832
5, 140048, Pitch_bend_c, 3, 8960
5, 140080, Pitch_bend_c, 3, 8832
5, 140112, Pitch_bend_c, 3, 8704
5, 140144, Pitch_bend_c, 3, 8832
5, 140176, Pitch_bend_c, 3, 8960
5, 140208, Pitch_bend_c, 3, 8832
5, 140240, Pitch_bend_c, 3, 8704
5, 140272, Pitch_bend_c, 3, 8832
5, 140304, Pitch_bend_c, 3, 8960
5, 140336, Pitch_bend_c, 3, 8832
5, 140368, Pitch_bend_c, 3, 8704
5, 140400, Pitch_bend_c, 3, 8832
5, 140432, Pitch_bend_c, 3, 8960
5, 140464, Pitch_bend_c, 3, 8832
5, 140496, Pitch_bend_c, 3, 8704
5, 140528, Pitch_bend_c, 3, 8832
5, 140560, Pitch_bend_c, 3, 8960
5, 140592, Pitch_bend_c, 3, 8832
5, 140624, Pitch_bend_c, 3, 8704
5, 140640, Note_on_c, 3, 74, 0
5, 140640, Pitch_bend_c, 3, 8192
5, 140640, Note_on_c, 3, 74, 95
5, 140640, Pitch_bend_c, 3, 8192
5, 140688, Pitch_bend_c, 3, 8320
5, 140800, Pitch_bend_c, 3, 8448
5, 140880, Pitch_bend_c, 3, 8576
5, 140944, Pitch_bend_c, 3, 8704
5, 141056, Pitch_bend_c, 3, 8832
5, 141136, Pitch_bend_c, 3, 8960
5, 141248, Pitch_bend_c, 3, 9088
5, 141328, Pitch_bend_c, 3, 9216
5, 141392, Pitch_bend_c, 3, 9344
5, 141504, Pitch_bend_c, 3, 9472
5, 141584, Pitch_bend_c, 3, 9728
5, 141616, Pitch_bend_c, 3, 9600
5, 141648, Pitch_bend_c, 3, 9472
5, 141680, Pitch_bend_c, 3, 9600
5, 141712, Pitch_bend_c, 3, 9728
5, 141744, Pitch_bend_c, 3, 9600
5, 141776, Pitch_bend_c, 3, 9472
5, 141808, Pitch_bend_c, 3, 9600
5, 141840, Pitch_bend_c, 3, 9728
5, 141872, Pitch_bend_c, 3, 9600
5, 141904, Pitch_bend_c, 3, 9472
5, 141936, Pitch_bend_c, 3, 9600
5, 141968, Pitch_bend_c, 3, 9728
5, 142000, Pitch_bend_c, 3, 9600
5, 142032, Pitch_bend_c, 3, 9472
5, 142064, Pitch_bend_c, 3, 9600
5, 142096, Pitch_bend_c, 3, 9728
5, 142128, Pitch_bend_c, 3, 9600
5, 142160, Pitch_bend_c, 3, 9472
5, 142192, Pitch_bend_c, 3, 9600
5, 142224, Pitch_bend_c, 3, 9728
5, 142256, Pitch_bend_c, 3, 9600
5, 142288, Pitch_bend_c, 3, 9472
5, 142320, Pitch_bend_c, 3, 9600
5, 142352, Pitch_bend_c, 3, 9728
5, 142384, Pitch_bend_c, 3, 9600
5, 142416, Pitch_bend_c, 3, 9472
5, 142448, Pitch_bend_c, 3, 9600
5, 142480, Pitch_bend_c, 3, 9728
5, 142512, Pitch_bend_c, 3, 9600
5, 142544, Pitch_bend_c, 3, 9472
5, 142560, Note_on_c, 3, 74, 0
5, 142560, Pitch_bend_c, 3, 8192
5, 142560, Note_on_c, 3, 74, 95
5, 142560, Pitch_bend_c, 3, 8192
5, 142608, Pitch_bend_c, 3, 8320
5, 142660, Pitch_bend_c, 3, 7680
5, 142720, Pitch_bend_c, 3, 8448
5, 142760, Pitch_bend_c, 3, 8704
5, 142800, Pitch_bend_c, 3, 8576
5, 142860, Pitch_bend_c, 3, 7680
5, 142864, Pitch_bend_c, 3, 8704
5, 142960, Pitch_bend_c, 3, 8704
5, 142976, Pitch_bend_c, 3, 8832
5, 143056, Pitch_bend_c, 3, 8960
5, 143060, Pitch_bend_c, 3, 7680
5, 143160, Pitch_bend_c, 3, 8704
5, 143168, Pitch_bend_c, 3, 9088
5, 143248, Pitch_bend_c, 3, 9216
5, 143260, Pitch_bend_c, 3, 7680
5, 143312, Pitch_bend_c, 3, 9344
5, 143360, Pitch_bend_c, 3, 8704
5, 143424, Pitch_bend_c, 3, 9472
5, 143460, Pitch_bend_c, 3, 7680
5, 143504, Pitch_bend_c, 3, 9600
5, 143560, Pitch_bend_c, 3, 8704
5, 143660, Pitch_bend_c, 3, 7680
5, 143760, Pitch_bend_c, 3, 8704
5, 143860, Pitch_bend_c, 3, 7680
5, 143960, Pitch_bend_c, 3, 8704
5, 144060, Pitch_bend_c, 3, 7680
5, 144160, Pitch_bend_c, 3, 8704
5, 144260, Pitch_bend_c, 3, 7680
5, 144360, Pitch_bend_c, 3, 8704
5, 144460, Pitch_bend_c, 3, 7680
5, 144480, Note_on_c, 3, 74, 0
5, 144480, Pitch_bend_c, 3, 8192
5, 144480, Pitch_bend_c, 3, 8192
5, 144480, Note_on_c, 3, 74, 95
5, 144480, Pitch_bend_c, 3, 8192
5, 144496, Pitch_bend_c, 3, 8320
5, 144528, Pitch_bend_c, 3, 8448
5, 144544, Pitch_bend_c, 3, 8576
5, 144560, Pitch_bend_c, 3, 8704
5, 144592, Pitch_bend_c, 3, 8832
5, 144720, Note_on_c, 3, 74, 0
5, 144720, Pitch_bend_c, 3, 8192
5, 144720, Note_on_c, 3, 74, 95
5, 144720, Pitch_bend_c, 3, 8192
5, 144736, Pitch_bend_c, 3, 8320
5, 144768, Pitch_bend_c, 3, 8448
5, 144784, Pitch_bend_c, 3, 8576
5, 144800, Pitch_bend_c, 3, 8704
5, 144832, Pitch_bend_c, 3, 8832
5, 144960, Note_on_c, 3, 74, 0
5, 144960, Pitch_bend_c, 3, 8192
5, 144960, Note_on_c, 3, 74, 95
5, 144960, Pitch_bend_c, 3, 8192
5, 144976, Pitch_bend_c, 3, 8320
5, 145008, Pitch_bend_c, 3, 8448
5, 145024, Pitch_bend_c, 3, 8576
5, 145040, Pitch_bend_c, 3, 8704
5, 145072, Pitch_bend_c, 3, 8832
5, 145200, Note_on_c, 3, 74, 0
5, 145200, Pitch_bend_c, 3, 8192
5, 145200, Note_on_c, 3, 74, 95
5, 145200, Pitch_bend_c, 3, 8192
5, 145216, Pitch_bend_c, 3, 8320
5, 145248, Pitch_bend_c, 3, 8448
5, 145264, Pitch_bend_c, 3, 8576
5, 145280, Pitch_bend_c, 3, 8704
5, 145312, Pitch_bend_c, 3, 8832
5, 145440, Note_on_c, 3, 74, 0
5, 145440, Pitch_bend_c, 3, 8192
5, 145440, Note_on_c, 3, 74, 95
5, 145440, Pitch_bend_c, 3, 8192
5, 145456, Pitch_bend_c, 3, 8320
5, 145472, Pitch_bend_c, 3, 8448
5, 145488, Pitch_bend_c, 3, 8576
5, 145504, Pitch_bend_c, 3, 8704
5, 145520, Pitch_bend_c, 3, 8832
5, 145536, Pitch_bend_c, 3, 8960
5, 145552, Pitch_bend_c, 3, 9088
5, 145568, Pitch_bend_c, 3, 9216
5, 145680, Note_on_c, 3, 74, 0
5, 145680, Pitch_bend_c, 3, 8192
5, 145680, Note_on_c, 3, 74, 95
5, 145680, Pitch_bend_c, 3, 8192
5, 145696, Pitch_bend_c, 3, 8320
5, 145712, Pitch_bend_c, 3, 8448
5, 145728, Pitch_bend_c, 3, 8576
5, 145744, Pitch_bend_c, 3, 8704
5, 145760, Pitch_bend_c, 3, 8832
5, 145776, Pitch_bend_c, 3, 8960
5, 145792, Pitch_bend_c, 3, 9088
5, 145808, Pitch_bend_c, 3, 9216
5, 145920, Note_on_c, 3, 74, 0
5, 145920, Pitch_bend_c, 3, 8192
5, 145920, Note_on_c, 3, 74, 95
5, 145920, Pitch_bend_c, 3, 8192
5, 145936, Pitch_bend_c, 3, 8320
5, 145952, Pitch_bend_c, 3, 8576
5, 145968, Pitch_bend_c, 3, 8704
5, 145984, Pitch_bend_c, 3, 8960
5, 146000, Pitch_bend_c, 3, 9088
5, 146016, Pitch_bend_c, 3, 9344
5, 146032, Pitch_bend_c, 3, 9472
5, 146048, Pitch_bend_c, 3, 9600
5, 146176, Pitch_bend_c, 3, 9344
5, 146192, Pitch_bend_c, 3, 9216
5, 146208, Pitch_bend_c, 3, 8960
5, 146224, Pitch_bend_c, 3, 8832
5, 146240, Pitch_bend_c, 3, 8704
5, 146256, Pitch_bend_c, 3, 8448
5, 146272, Pitch_bend_c, 3, 8320
5, 146288, Pitch_bend_c, 3, 8192
5, 146400, Note_on_c, 3, 74, 0
5, 146400, Pitch_bend_c, 3, 8192
5, 146400, Control_c, 3, 93, 127
5, 146400, Control_c, 3, 93, 127
5, 146400, Control_c, 3, 91, 127
5, 146400, Control_c, 3, 91, 127
5, 146400, Note_on_c, 3, 74, 95
5, 146400, Pitch_bend_c, 3, 8192
5, 146496, Pitch_bend_c, 3, 8320
5, 146688, Pitch_bend_c, 3, 8448
5, 146880, Pitch_bend_c, 3, 8576
5, 147024, Pitch_bend_c, 3, 8704
5, 147216, Pitch_bend_c, 3, 8832
5, 147344, Pitch_bend_c, 3, 8960
5, 147376, Pitch_bend_c, 3, 8832
5, 147408, Pitch_bend_c, 3, 8704
5, 147440, Pitch_bend_c, 3, 8832
5, 147472, Pitch_bend_c, 3, 8960
5, 147504, Pitch_bend_c, 3, 8832
5, 147536, Pitch_bend_c, 3, 8704
5, 147568, Pitch_bend_c, 3, 8832
5, 147600, Pitch_bend_c, 3, 8960
5, 147632, Pitch_bend_c, 3, 8832
5, 147664, Pitch_bend_c, 3, 8704
5, 147696, Pitch_bend_c, 3, 8832
5, 147728, Pitch_bend_c, 3, 8960
5, 147760, Pitch_bend_c, 3, 8832
5, 147792, Pitch_bend_c, 3, 8704
5, 147824, Pitch_bend_c, 3, 8832
5, 147856, Pitch_bend_c, 3, 8960
5, 147888, Pitch_bend_c, 3, 8832
5, 147920, Pitch_bend_c, 3, 8704
5, 147952, Pitch_bend_c, 3, 8832
5, 147984, Pitch_bend_c, 3, 8960
5, 148016, Pitch_bend_c, 3, 8832
5, 148048, Pitch_bend_c, 3, 8704
5, 148080, Pitch_bend_c, 3, 8832
5, 148112, Pitch_bend_c, 3, 8960
5, 148144, Pitch_bend_c, 3, 8832
5, 148176, Pitch_bend_c, 3, 8704
5, 148208, Pitch_bend_c, 3, 8832
5, 148240, Pitch_bend_c, 3, 8960
5, 148272, Pitch_bend_c, 3, 8832
5, 148304, Pitch_bend_c, 3, 8704
5, 148320, Note_on_c, 3, 74, 0
5, 148320, Pitch_bend_c, 3, 8192
5, 148320, Note_on_c, 3, 74, 95
5, 148320, Pitch_bend_c, 3, 8192
5, 148336, Pitch_bend_c, 3, 8320
5, 148368, Pitch_bend_c, 3, 8448
5, 148384, Pitch_bend_c, 3, 8576
5, 148400, Pitch_bend_c, 3, 8704
5, 148432, Pitch_bend_c, 3, 8832
5, 148560, Note_on_c, 3, 74, 0
5, 148560, Pitch_bend_c, 3, 8192
5, 148560, Note_on_c, 3, 74, 95
5, 148560, Pitch_bend_c, 3, 8192
5, 148576, Pitch_bend_c, 3, 8320
5, 148608, Pitch_bend_c, 3, 8448
5, 148624, Pitch_bend_c, 3, 8576
5, 148640, Pitch_bend_c, 3, 8704
5, 148672, Pitch_bend_c, 3, 8832
5, 148800, Note_on_c, 3, 74, 0
5, 148800, Pitch_bend_c, 3, 8192
5, 148800, Note_on_c, 3, 74, 95
5, 148800, Pitch_bend_c, 3, 8192
5, 148816, Pitch_bend_c, 3, 8320
5, 148848, Pitch_bend_c, 3, 8448
5, 148864, Pitch_bend_c, 3, 8576
5, 148880, Pitch_bend_c, 3, 8704
5, 148912, Pitch_bend_c, 3, 8832
5, 149040, Note_on_c, 3, 74, 0
5, 149040, Pitch_bend_c, 3, 8192
5, 149040, Note_on_c, 3, 74, 95
5, 149040, Pitch_bend_c, 3, 8192
5, 149056, Pitch_bend_c, 3, 8320
5, 149088, Pitch_bend_c, 3, 8448
5, 149104, Pitch_bend_c, 3, 8576
5, 149120, Pitch_bend_c, 3, 8704
5, 149152, Pitch_bend_c, 3, 8832
5, 149280, Note_on_c, 3, 74, 0
5, 149280, Pitch_bend_c, 3, 8192
5, 149280, Note_on_c, 3, 74, 95
5, 149280, Pitch_bend_c, 3, 8192
5, 149296, Pitch_bend_c, 3, 8320
5, 149312, Pitch_bend_c, 3, 8448
5, 149328, Pitch_bend_c, 3, 8576
5, 149344, Pitch_bend_c, 3, 8704
5, 149360, Pitch_bend_c, 3, 8832
5, 149376, Pitch_bend_c, 3, 8960
5, 149392, Pitch_bend_c, 3, 9088
5, 149408, Pitch_bend_c, 3, 9216
5, 149520, Note_on_c, 3, 74, 0
5, 149520, Pitch_bend_c, 3, 8192
5, 149520, Note_on_c, 3, 74, 95
5, 149520, Pitch_bend_c, 3, 8192
5, 149536, Pitch_bend_c, 3, 8320
5, 149552, Pitch_bend_c, 3, 8448
5, 149568, Pitch_bend_c, 3, 8576
5, 149584, Pitch_bend_c, 3, 8704
5, 149600, Pitch_bend_c, 3, 8832
5, 149616, Pitch_bend_c, 3, 8960
5, 149632, Pitch_bend_c, 3, 9088
5, 149648, Pitch_bend_c, 3, 9216
5, 149760, Note_on_c, 3, 74, 0
5, 149760, Pitch_bend_c, 3, 8192
5, 149760, Note_on_c, 3, 74, 95
5, 149760, Pitch_bend_c, 3, 8192
5, 149776, Pitch_bend_c, 3, 8320
5, 149792, Pitch_bend_c, 3, 8576
5, 149808, Pitch_bend_c, 3, 8704
5, 149824, Pitch_bend_c, 3, 8960
5, 149840, Pitch_bend_c, 3, 9088
5, 149856, Pitch_bend_c, 3, 9344
5, 149872, Pitch_bend_c, 3, 9472
5, 149888, Pitch_bend_c, 3, 9600
5, 150016, Pitch_bend_c, 3, 9344
5, 150032, Pitch_bend_c, 3, 9216
5, 150048, Pitch_bend_c, 3, 8960
5, 150064, Pitch_bend_c, 3, 8832
5, 150080, Pitch_bend_c, 3, 8704
5, 150096, Pitch_bend_c, 3, 8448
5, 150112, Pitch_bend_c, 3, 8320
5, 150128, Pitch_bend_c, 3, 8192
5, 150240, Note_on_c, 3, 74, 0
5, 150240, Pitch_bend_c, 3, 8192
5, 150240, Note_on_c, 3, 74, 95
5, 150240, Pitch_bend_c, 3, 8192
5, 150256, Pitch_bend_c, 3, 8320
5, 150288, Pitch_bend_c, 3, 8576
5, 150304, Pitch_bend_c, 3, 8704
5, 150336, Pitch_bend_c, 3, 8960
5, 150352, Pitch_bend_c, 3, 9088
5, 150384, Pitch_bend_c, 3, 9344
5, 150400, Pitch_bend_c, 3, 9472
5, 150432, Pitch_bend_c, 3, 9600
5, 150448, Pitch_bend_c, 3, 9856
5, 150480, Pitch_bend_c, 3, 9984
5, 150496, Pitch_bend_c, 3, 10240
5, 150528, Pitch_bend_c, 3, 10368
5, 150544, Pitch_bend_c, 3, 10496
5, 150576, Pitch_bend_c, 3, 10752
5, 150592, Pitch_bend_c, 3, 10880
5, 150976, Pitch_bend_c, 3, 10752
5, 151008, Pitch_bend_c, 3, 10496
5, 151024, Pitch_bend_c, 3, 10368
5, 151056, Pitch_bend_c, 3, 10240
5, 151072, Pitch_bend_c, 3, 9984
5, 151104, Pitch_bend_c, 3, 9856
5, 151120, Pitch_bend_c, 3, 9600
5, 151152, Pitch_bend_c, 3, 9472
5, 151168, Pitch_bend_c, 3, 9344
5, 151200, Pitch_bend_c, 3, 9088
5, 151216, Pitch_bend_c, 3, 8960
5, 151248, Pitch_bend_c, 3, 8704
5, 151264, Pitch_bend_c, 3, 8576
5, 151296, Pitch_bend_c, 3, 8320
5, 151312, Pitch_bend_c, 3, 8192
5, 151680, Note_on_c, 3, 74, 0
5, 151680, Pitch_bend_c, 3, 8192
5, 151680, Note_on_c, 3, 74, 95
5, 152160, Note_on_c, 3, 74, 0
5, 152160, Note_on_c, 3, 74, 95
5, 152160, Pitch_bend_c, 3, 8192
5, 152176, Pitch_bend_c, 3, 8320
5, 152208, Pitch_bend_c, 3, 8448
5, 152224, Pitch_bend_c, 3, 8576
5, 152240, Pitch_bend_c, 3, 8704
5, 152272, Pitch_bend_c, 3, 8832
5, 152288, Pitch_bend_c, 3, 8960
5, 152320, Pitch_bend_c, 3, 9088
5, 152336, Pitch_bend_c, 3, 9216
5, 152352, Pitch_bend_c, 3, 9344
5, 152384, Pitch_bend_c, 3, 9472
5, 152400, Pitch_bend_c, 3, 9600
5, 152656, Pitch_bend_c, 3, 9472
5, 152672, Pitch_bend_c, 3, 9344
5, 152704, Pitch_bend_c, 3, 9216
5, 152720, Pitch_bend_c, 3, 9088
5, 152736, Pitch_bend_c, 3, 8960
5, 152768, Pitch_bend_c, 3, 8832
5, 152784, Pitch_bend_c, 3, 8704
5, 152816, Pitch_bend_c, 3, 8576
5, 152832, Pitch_bend_c, 3, 8448
5, 152848, Pitch_bend_c, 3, 8320
5, 152880, Pitch_bend_c, 3, 8192
5, 153120, Note_on_c, 3, 74, 0
5, 153120, Pitch_bend_c, 3, 8192
5, 153120, Note_on_c, 3, 74, 95
5, 153200, Pitch_bend_c, 3, 8192
5, 153280, Pitch_bend_c, 3, 8448
5, 153360, Pitch_bend_c, 3, 8192
5, 153440, Pitch_bend_c, 3, 8448
5, 153520, Pitch_bend_c, 3, 8192
5, 153600, Pitch_bend_c, 3, 8448
5, 153680, Pitch_bend_c, 3, 8192
5, 153760, Pitch_bend_c, 3, 8448
5, 153840, Pitch_bend_c, 3, 8192
5, 153920, Pitch_bend_c, 3, 8448
5, 154000, Pitch_bend_c, 3, 8192
5, 154080, Note_on_c, 3, 74, 0
5, 154080, Pitch_bend_c, 3, 8448
5, 154080, Pitch_bend_c, 3, 8192
5, 154080, Note_on_c, 3, 74, 95
5, 154080, Pitch_bend_c, 3, 8192
5, 154112, Pitch_bend_c, 3, 8320
5, 154128, Pitch_bend_c, 3, 8576
5, 154176, Pitch_bend_c, 3, 8704
5, 154180, Pitch_bend_c, 3, 7680
5, 154192, Pitch_bend_c, 3, 8960
5, 154240, Pitch_bend_c, 3, 9088
5, 154256, Pitch_bend_c, 3, 9344
5, 154280, Pitch_bend_c, 3, 8704
5, 154304, Pitch_bend_c, 3, 9472
5, 154320, Pitch_bend_c, 3, 9600
5, 154368, Pitch_bend_c, 3, 9856
5, 154380, Pitch_bend_c, 3, 7680
5, 154384, Pitch_bend_c, 3, 9984
5, 154432, Pitch_bend_c, 3, 10240
5, 154448, Pitch_bend_c, 3, 10368
5, 154480, Pitch_bend_c, 3, 8704
5, 154496, Pitch_bend_c, 3, 10496
5, 154512, Pitch_bend_c, 3, 10752
5, 154560, Pitch_bend_c, 3, 10880
5, 154580, Pitch_bend_c, 3, 7680
5, 154680, Pitch_bend_c, 3, 8704
5, 154780, Pitch_bend_c, 3, 7680
5, 154880, Pitch_bend_c, 3, 8704
5, 154980, Pitch_bend_c, 3, 7680
5, 155072, Pitch_bend_c, 3, 10752
5, 155080, Pitch_bend_c, 3, 8704
5, 155104, Pitch_bend_c, 3, 10496
5, 155136, Pitch_bend_c, 3, 10368
5, 155152, Pitch_bend_c, 3, 10240
5, 155180, Pitch_bend_c, 3, 7680
5, 155200, Pitch_bend_c, 3, 9984
5, 155216, Pitch_bend_c, 3, 9856
5, 155264, Pitch_bend_c, 3, 9600
5, 155280, Pitch_bend_c, 3, 8704
5, 155280, Pitch_bend_c, 3, 9472
5, 155328, Pitch_bend_c, 3, 9344
5, 155344, Pitch_bend_c, 3, 9088
5, 155380, Pitch_bend_c, 3, 7680
5, 155392, Pitch_bend_c, 3, 8960
5, 155408, Pitch_bend_c, 3, 8704
5, 155456, Pitch_bend_c, 3, 8576
5, 155472, Pitch_bend_c, 3, 8320
5, 155480, Pitch_bend_c, 3, 8704
5, 155520, Pitch_bend_c, 3, 8192
5, 155580, Pitch_bend_c, 3, 7680
5, 155680, Pitch_bend_c, 3, 8704
5, 155780, Pitch_bend_c, 3, 7680
5, 155880, Pitch_bend_c, 3, 8704
5, 155980, Pitch_bend_c, 3, 7680
5, 156000, Note_on_c, 3, 74, 0
5, 156000, Pitch_bend_c, 3, 8192
5, 156000, Pitch_bend_c, 3, 8192
5, 156000, Note_on_c, 3, 74, 95
5, 156000, Pitch_bend_c, 3, 8192
5, 156032, Pitch_bend_c, 3, 8320
5, 156048, Pitch_bend_c, 3, 8576
5, 156096, Pitch_bend_c, 3, 8704
5, 156112, Pitch_bend_c, 3, 8960
5, 156160, Pitch_bend_c, 3, 9088
5, 156176, Pitch_bend_c, 3, 9344
5, 156224, Pitch_bend_c, 3, 9472
5, 156240, Pitch_bend_c, 3, 9600
5, 156288, Pitch_bend_c, 3, 9856
5, 156304, Pitch_bend_c, 3, 9984
5, 156352, Pitch_bend_c, 3, 10240
5, 156368, Pitch_bend_c, 3, 10368
5, 156416, Pitch_bend_c, 3, 10496
5, 156432, Pitch_bend_c, 3, 10752
5, 156480, Pitch_bend_c, 3, 10880
5, 156992, Pitch_bend_c, 3, 10752
5, 157024, Pitch_bend_c, 3, 10496
5, 157056, Pitch_bend_c, 3, 10368
5, 157072, Pitch_bend_c, 3, 10240
5, 157120, Pitch_bend_c, 3, 9984
5, 157136, Pitch_bend_c, 3, 9856
5, 157184, Pitch_bend_c, 3, 9600
5, 157200, Pitch_bend_c, 3, 9472
5, 157248, Pitch_bend_c, 3, 9344
5, 157264, Pitch_bend_c, 3, 9088
5, 157312, Pitch_bend_c, 3, 8960
5, 157328, Pitch_bend_c, 3, 8704
5, 157376, Pitch_bend_c, 3, 8576
5, 157392, Pitch_bend_c, 3, 8320
5, 157440, Pitch_bend_c, 3, 8192
5, 157920, Note_on_c, 3, 74, 0
5, 157920, Pitch_bend_c, 3, 8192
5, 157920, Note_on_c, 3, 74, 95
5, 157920, Pitch_bend_c, 3, 8192
5, 157936, Pitch_bend_c, 3, 8320
5, 157968, Pitch_bend_c, 3, 8576
5, 157984, Pitch_bend_c, 3, 8704
5, 158016, Pitch_bend_c, 3, 8960
5, 158032, Pitch_bend_c, 3, 9088
5, 158064, Pitch_bend_c, 3, 9344
5, 158080, Pitch_bend_c, 3, 9472
5, 158112, Pitch_bend_c, 3, 9600
5, 158128, Pitch_bend_c, 3, 9856
5, 158160, Pitch_bend_c, 3, 9984
5, 158176, Pitch_bend_c, 3, 10240
5, 158208, Pitch_bend_c, 3, 10368
5, 158224, Pitch_bend_c, 3, 10496
5, 158256, Pitch_bend_c, 3, 10752
5, 158272, Pitch_bend_c, 3, 10880
5, 158656, Pitch_bend_c, 3, 10752
5, 158688, Pitch_bend_c, 3, 10496
5, 158704, Pitch_bend_c, 3, 10368
5, 158736, Pitch_bend_c, 3, 10240
5, 158752, Pitch_bend_c, 3, 9984
5, 158784, Pitch_bend_c, 3, 9856
5, 158800, Pitch_bend_c, 3, 9600
5, 158832, Pitch_bend_c, 3, 9472
5, 158848, Pitch_bend_c, 3, 9344
5, 158880, Pitch_bend_c, 3, 9088
5, 158896, Pitch_bend_c, 3, 8960
5, 158928, Pitch_bend_c, 3, 8704
5, 158944, Pitch_bend_c, 3, 8576
5, 158976, Pitch_bend_c, 3, 8320
5, 158992, Pitch_bend_c, 3, 8192
5, 159360, Note_on_c, 3, 74, 0
5, 159360, Pitch_bend_c, 3, 8192
5, 159360, Note_on_c, 3, 74, 95
5, 159840, Note_on_c, 3, 74, 0
5, 159840, Control_c, 3, 7, 64
5, 159840, Control_c, 3, 7, 64
5, 159840, Note_on_c, 3, 74, 95
5, 159840, Pitch_bend_c, 3, 8192
5, 159888, Pitch_bend_c, 3, 8320
5, 159936, Pitch_bend_c, 3, 8576
5, 160016, Pitch_bend_c, 3, 8704
5, 160064, Pitch_bend_c, 3, 8960
5, 160144, Pitch_bend_c, 3, 9088
5, 160192, Pitch_bend_c, 3, 9344
5, 160272, Pitch_bend_c, 3, 9472
5, 160320, Pitch_bend_c, 3, 9600
5, 160400, Pitch_bend_c, 3, 9856
5, 160448, Pitch_bend_c, 3, 9984
5, 160528, Pitch_bend_c, 3, 10240
5, 160576, Pitch_bend_c, 3, 10368
5, 160656, Pitch_bend_c, 3, 10496
5, 160704, Pitch_bend_c, 3, 10752
5, 160784, Pitch_bend_c, 3, 10880
5, 161808, Pitch_bend_c, 3, 10752
5, 161872, Pitch_bend_c, 3, 10496
5, 161936, Pitch_bend_c, 3, 10368
5, 161984, Pitch_bend_c, 3, 10240
5, 162064, Pitch_bend_c, 3, 9984
5, 162112, Pitch_bend_c, 3, 9856
5, 162192, Pitch_bend_c, 3, 9600
5, 162240, Pitch_bend_c, 3, 9472
5, 162320, Pitch_bend_c, 3, 9344
5, 162368, Pitch_bend_c, 3, 9088
5, 162448, Pitch_bend_c, 3, 8960
5, 162496, Pitch_bend_c, 3, 8704
5, 162576, Pitch_bend_c, 3, 8576
5, 162624, Pitch_bend_c, 3, 8320
5, 162704, Pitch_bend_c, 3, 8192
5, 163680, Note_on_c, 3, 74, 0
5, 163680, Pitch_bend_c, 3, 8192
5, 163680, End_track
6, 0, Start_track
6, 0, Program_c, 9, 0
6, 0, Control_c, 9, 7, 127
6, 0, Control_c, 9, 10, 64
6, 0, Control_c, 9, 101, 0
6, 1, Control_c, 9, 100, 0
6, 2, Control_c, 9, 6, 12
6, 3, Control_c, 9, 38, 0
6, 3, Pitch_bend_c, 9, 8192
6, 3, Control_c, 9, 93, 0
6, 3, Control_c, 9, 91, 0
6, 3, Control_c, 9, 92, 0
6, 3, Control_c, 9, 95, 0
6, 30720, Note_on_c, 9, 46, 95
6, 30840, Note_on_c, 9, 46, 0
6, 30840, Note_on_c, 9, 46, 95
6, 30960, Note_on_c, 9, 46, 0
6, 30960, Note_on_c, 9, 46, 95
6, 31080, Note_on_c, 9, 46, 0
6, 31080, Note_on_c, 9, 46, 95
6, 31200, Note_on_c, 9, 46, 0
6, 31200, Note_on_c, 9, 55, 95
6, 31200, Note_on_c, 9, 36, 95
6, 31200, Note_on_c, 9, 41, 95
6, 31920, Note_on_c, 9, 41, 0
6, 31920, Note_on_c, 9, 36, 0
6, 31920, Note_on_c, 9, 55, 0
6, 31920, Note_on_c, 9, 46, 95
6, 32160, Note_on_c, 9, 46, 0
6, 32160, Note_on_c, 9, 46, 95
6, 32400, Note_on_c, 9, 46, 0
6, 32400, Note_on_c, 9, 46, 95
6, 32400, Note_on_c, 9, 36, 95
6, 32400, Note_on_c, 9, 41, 95
6, 32640, Note_on_c, 9, 41, 0
6, 32640, Note_on_c, 9, 36, 0
6, 32640, Note_on_c, 9, 46, 0
6, 32640, Note_on_c, 9, 38, 95
6, 32880, Note_on_c, 9, 38, 0
6, 32880, Note_on_c, 9, 36, 95
6, 32880, Note_on_c, 9, 41, 95
6, 33120, Note_on_c, 9, 41, 0
6, 33120, Note_on_c, 9, 36, 0
6, 33120, Note_on_c, 9, 46, 95
6, 33120, Note_on_c, 9, 36, 95
6, 33120, Note_on_c, 9, 41, 95
6, 33360, Note_on_c, 9, 41, 0
6, 33360, Note_on_c, 9, 36, 0
6, 33360, Note_on_c, 9, 46, 0
6, 33360, Note_on_c, 9, 46, 95
6, 33600, Note_on_c, 9, 46, 0
6, 33600, Note_on_c, 9, 46, 95
6, 33840, Note_on_c, 9, 46, 0
6, 33840, Note_on_c, 9, 46, 95
6, 34080, Note_on_c, 9, 46, 0
6, 34080, Note_on_c, 9, 46, 95
6, 34080, Note_on_c, 9, 36, 95
6, 34080, Note_on_c, 9, 41, 95
6, 34320, Note_on_c, 9, 41, 0
6, 34320, Note_on_c, 9, 36, 0
6, 34320, Note_on_c, 9, 46, 0
6, 34320, Note_on_c, 9, 46, 95
6, 34320, Note_on_c, 9, 36, 95
6, 34320, Note_on_c, 9, 41, 95
6, 34560, Note_on_c, 9, 41, 0
6, 34560, Note_on_c, 9, 36, 0
6, 34560, Note_on_c, 9, 46, 0
6, 34560, Note_on_c, 9, 46, 95
6, 34560, Note_on_c, 9, 38, 95
6, 34800, Note_on_c, 9, 38, 0
6, 34800, Note_on_c, 9, 46, 0
6, 34800, Note_on_c, 9, 46, 95
6, 34800, Note_on_c, 9, 36, 95
6, 34800, Note_on_c, 9, 41, 95
6, 35040, Note_on_c, 9, 41, 0
6, 35040, Note_on_c, 9, 36, 0
6, 35040, Note_on_c, 9, 46, 0
6, 35040, Note_on_c, 9, 46, 95
6, 35040, Note_on_c, 9, 36, 95
6, 35040, Note_on_c, 9, 41, 95
6, 35280, Note_on_c, 9, 41, 0
6, 35280, Note_on_c, 9, 36, 0
6, 35280, Note_on_c, 9, 46, 0
6, 35280, Note_on_c, 9, 46, 95
6, 35520, Note_on_c, 9, 46, 0
6, 35520, Note_on_c, 9, 46, 95
6, 35760, Note_on_c, 9, 46, 0
6, 35760, Note_on_c, 9, 46, 95
6, 36000, Note_on_c, 9, 46, 0
6, 36000, Note_on_c, 9, 46, 95
6, 36000, Note_on_c, 9, 36, 95
6, 36000, Note_on_c, 9, 41, 95
6, 36240, Note_on_c, 9, 41, 0
6, 36240, Note_on_c, 9, 36, 0
6, 36240, Note_on_c, 9, 46, 0
6, 36240, Note_on_c, 9, 46, 95
6, 36240, Note_on_c, 9, 36, 95
6, 36240, Note_on_c, 9, 41, 95
6, 36480, Note_on_c, 9, 41, 0
6, 36480, Note_on_c, 9, 36, 0
6, 36480, Note_on_c, 9, 46, 0
6, 36480, Note_on_c, 9, 46, 95
6, 36480, Note_on_c, 9, 38, 95
6, 36720, Note_on_c, 9, 38, 0
6, 36720, Note_on_c, 9, 46, 0
6, 36720, Note_on_c, 9, 46, 95
6, 36720, Note_on_c, 9, 36, 95
6, 36720, Note_on_c, 9, 41, 95
6, 36960, Note_on_c, 9, 41, 0
6, 36960, Note_on_c, 9, 36, 0
6, 36960, Note_on_c, 9, 46, 0
6, 36960, Note_on_c, 9, 55, 95
6, 36960, Note_on_c, 9, 36, 95
6, 36960, Note_on_c, 9, 41, 95
6, 37200, Note_on_c, 9, 41, 0
6, 37200, Note_on_c, 9, 36, 0
6, 37200, Note_on_c, 9, 55, 0
6, 37200, Note_on_c, 9, 46, 95
6, 37440, Note_on_c, 9, 46, 0
6, 37440, Note_on_c, 9, 46, 95
6, 37680, Note_on_c, 9, 46, 0
6, 37680, Note_on_c, 9, 46, 95
6, 37920, Note_on_c, 9, 46, 0
6, 37920, Note_on_c, 9, 46, 95
6, 37920, Note_on_c, 9, 36, 95
6, 37920, Note_on_c, 9, 41, 95
6, 38160, Note_on_c, 9, 41, 0
6, 38160, Note_on_c, 9, 36, 0
6, 38160, Note_on_c, 9, 46, 0
6, 38160, Note_on_c, 9, 46, 95
6, 38160, Note_on_c, 9, 36, 95
6, 38160, Note_on_c, 9, 41, 95
6, 38400, Note_on_c, 9, 41, 0
6, 38400, Note_on_c, 9, 36, 0
6, 38400, Note_on_c, 9, 46, 0
6, 38400, Note_on_c, 9, 57, 95
6, 38400, Note_on_c, 9, 38, 95
6, 38640, Note_on_c, 9, 38, 0
6, 38640, Note_on_c, 9, 57, 0
6, 38640, Note_on_c, 9, 46, 95
6, 38640, Note_on_c, 9, 36, 95
6, 38640, Note_on_c, 9, 41, 95
6, 38880, Note_on_c, 9, 41, 0
6, 38880, Note_on_c, 9, 36, 0
6, 38880, Note_on_c, 9, 46, 0
6, 38880, Note_on_c, 9, 46, 95
6, 38880, Note_on_c, 9, 36, 95
6, 38880, Note_on_c, 9, 41, 95
6, 39120, Note_on_c, 9, 41, 0
6, 39120, Note_on_c, 9, 36, 0
6, 39120, Note_on_c, 9, 46, 0
6, 39120, Note_on_c, 9, 46, 95
6, 39360, Note_on_c, 9, 46, 0
6, 39360, Note_on_c, 9, 46, 95
6, 39360, Note_on_c, 9, 38, 95
6, 39600, Note_on_c, 9, 38, 0
6, 39600, Note_on_c, 9, 46, 0
6, 39600, Note_on_c, 9, 46, 95
6, 39600, Note_on_c, 9, 36, 95
6, 39600, Note_on_c, 9, 41, 95
6, 39840, Note_on_c, 9, 41, 0
6, 39840, Note_on_c, 9, 36, 0
6, 39840, Note_on_c, 9, 46, 0
6, 39840, Note_on_c, 9, 46, 95
6, 39960, Note_on_c, 9, 46, 0
6, 39960, Note_on_c, 9, 38, 95
6, 40080, Note_on_c, 9, 38, 0
6, 40080, Note_on_c, 9, 36, 95
6, 40080, Note_on_c, 9, 41, 95
6, 40200, Note_on_c, 9, 41, 0
6, 40200, Note_on_c, 9, 36, 0
6, 40200, Note_on_c, 9, 36, 95
6, 40200, Note_on_c, 9, 41, 95
6, 40320, Note_on_c, 9, 41, 0
6, 40320, Note_on_c, 9, 36, 0
6, 40320, Note_on_c, 9, 36, 95
6, 40320, Note_on_c, 9, 41, 95
6, 40440, Note_on_c, 9, 41, 0
6, 40440, Note_on_c, 9, 36, 0
6, 40440, Note_on_c, 9, 36, 95
6, 40440, Note_on_c, 9, 41, 95
6, 40560, Note_on_c, 9, 41, 0
6, 40560, Note_on_c, 9, 36, 0
6, 40560, Note_on_c, 9, 36, 95
6, 40560, Note_on_c, 9, 41, 95
6, 40680, Note_on_c, 9, 41, 0
6, 40680, Note_on_c, 9, 36, 0
6, 40680, Note_on_c, 9, 36, 95
6, 40680, Note_on_c, 9, 41, 95
6, 40800, Note_on_c, 9, 41, 0
6, 40800, Note_on_c, 9, 36, 0
6, 40800, Note_on_c, 9, 46, 95
6, 40800, Note_on_c, 9, 36, 95
6, 40800, Note_on_c, 9, 41, 95
6, 41040, Note_on_c, 9, 41, 0
6, 41040, Note_on_c, 9, 36, 0
6, 41040, Note_on_c, 9, 46, 0
6, 41040, Note_on_c, 9, 46, 95
6, 41280, Note_on_c, 9, 46, 0
6, 41280, Note_on_c, 9, 46, 95
6, 41280, Note_on_c, 9, 38, 95
6, 41280, Note_on_c, 9, 37, 95
6, 41520, Note_on_c, 9, 37, 0
6, 41520, Note_on_c, 9, 38, 0
6, 41520, Note_on_c, 9, 46, 0
6, 41520, Note_on_c, 9, 46, 95
6, 41520, Note_on_c, 9, 36, 95
6, 41520, Note_on_c, 9, 41, 95
6, 41760, Note_on_c, 9, 41, 0
6, 41760, Note_on_c, 9, 36, 0
6, 41760, Note_on_c, 9, 46, 0
6, 41760, Note_on_c, 9, 46, 95
6, 41760, Note_on_c, 9, 36, 95
6, 41760, Note_on_c, 9, 41, 95
6, 42000, Note_on_c, 9, 41, 0
6, 42000, Note_on_c, 9, 36, 0
6, 42000, Note_on_c, 9, 46, 0
6, 42000, Note_on_c, 9, 46, 95
6, 42240, Note_on_c, 9, 46, 0
6, 42240, Note_on_c, 9, 46, 95
6, 42240, Note_on_c, 9, 38, 95
6, 42240, Note_on_c, 9, 37, 95
6, 42480, Note_on_c, 9, 37, 0
6, 42480, Note_on_c, 9, 38, 0
6, 42480, Note_on_c, 9, 46, 0
6, 42480, Note_on_c, 9, 46, 95
6, 42720, Note_on_c, 9, 46, 0
6, 42720, Note_on_c, 9, 46, 95
6, 42720, Note_on_c, 9, 36, 95
6, 42720, Note_on_c, 9, 41, 95
6, 42960, Note_on_c, 9, 41, 0
6, 42960, Note_on_c, 9, 36, 0
6, 42960, Note_on_c, 9, 46, 0
6, 42960, Note_on_c, 9, 46, 95
6, 43200, Note_on_c, 9, 46, 0
6, 43200, Note_on_c, 9, 46, 95
6, 43200, Note_on_c, 9, 38, 95
6, 43200, Note_on_c, 9, 37, 95
6, 43440, Note_on_c, 9, 37, 0
6, 43440, Note_on_c, 9, 38, 0
6, 43440, Note_on_c, 9, 46, 0
6, 43440, Note_on_c, 9, 46, 95
6, 43440, Note_on_c, 9, 36, 95
6, 43440, Note_on_c, 9, 41, 95
6, 43680, Note_on_c, 9, 41, 0
6, 43680, Note_on_c, 9, 36, 0
6, 43680, Note_on_c, 9, 46, 0
6, 43680, Note_on_c, 9, 46, 95
6, 43680, Note_on_c, 9, 36, 95
6, 43680, Note_on_c, 9, 41, 95
6, 43920, Note_on_c, 9, 41, 0
6, 43920, Note_on_c, 9, 36, 0
6, 43920, Note_on_c, 9, 46, 0
6, 43920, Note_on_c, 9, 46, 95
6, 44160, Note_on_c, 9, 46, 0
6, 44160, Note_on_c, 9, 46, 95
6, 44160, Note_on_c, 9, 38, 95
6, 44160, Note_on_c, 9, 37, 95
6, 44400, Note_on_c, 9, 37, 0
6, 44400, Note_on_c, 9, 38, 0
6, 44400, Note_on_c, 9, 46, 0
6, 44400, Note_on_c, 9, 46, 95
6, 44640, Note_on_c, 9, 46, 0
6, 44640, Note_on_c, 9, 46, 95
6, 44640, Note_on_c, 9, 36, 95
6, 44640, Note_on_c, 9, 41, 95
6, 44880, Note_on_c, 9, 41, 0
6, 44880, Note_on_c, 9, 36, 0
6, 44880, Note_on_c, 9, 46, 0
6, 44880, Note_on_c, 9, 46, 95
6, 45120, Note_on_c, 9, 46, 0
6, 45120, Note_on_c, 9, 46, 95
6, 45120, Note_on_c, 9, 38, 95
6, 45120, Note_on_c, 9, 37, 95
6, 45360, Note_on_c, 9, 37, 0
6, 45360, Note_on_c, 9, 38, 0
6, 45360, Note_on_c, 9, 46, 0
6, 45360, Note_on_c, 9, 46, 95
6, 45360, Note_on_c, 9, 36, 95
6, 45360, Note_on_c, 9, 41, 95
6, 45600, Note_on_c, 9, 41, 0
6, 45600, Note_on_c, 9, 36, 0
6, 45600, Note_on_c, 9, 46, 0
6, 45600, Note_on_c, 9, 46, 95
6, 45600, Note_on_c, 9, 36, 95
6, 45600, Note_on_c, 9, 41, 95
6, 45840, Note_on_c, 9, 41, 0
6, 45840, Note_on_c, 9, 36, 0
6, 45840, Note_on_c, 9, 46, 0
6, 45840, Note_on_c, 9, 46, 95
6, 46080, Note_on_c, 9, 46, 0
6, 46080, Note_on_c, 9, 46, 95
6, 46080, Note_on_c, 9, 38, 95
6, 46080, Note_on_c, 9, 37, 95
6, 46320, Note_on_c, 9, 37, 0
6, 46320, Note_on_c, 9, 38, 0
6, 46320, Note_on_c, 9, 46, 0
6, 46320, Note_on_c, 9, 46, 95
6, 46560, Note_on_c, 9, 46, 0
6, 46560, Note_on_c, 9, 46, 95
6, 46560, Note_on_c, 9, 36, 95
6, 46560, Note_on_c, 9, 41, 95
6, 46800, Note_on_c, 9, 41, 0
6, 46800, Note_on_c, 9, 36, 0
6, 46800, Note_on_c, 9, 46, 0
6, 46800, Note_on_c, 9, 46, 95
6, 47040, Note_on_c, 9, 46, 0
6, 47040, Note_on_c, 9, 46, 95
6, 47040, Note_on_c, 9, 38, 95
6, 47040, Note_on_c, 9, 37, 95
6, 47280, Note_on_c, 9, 37, 0
6, 47280, Note_on_c, 9, 38, 0
6, 47280, Note_on_c, 9, 46, 0
6, 47280, Note_on_c, 9, 46, 95
6, 47280, Note_on_c, 9, 36, 95
6, 47280, Note_on_c, 9, 41, 95
6, 47520, Note_on_c, 9, 41, 0
6, 47520, Note_on_c, 9, 36, 0
6, 47520, Note_on_c, 9, 46, 0
6, 47520, Note_on_c, 9, 46, 95
6, 47520, Note_on_c, 9, 36, 95
6, 47520, Note_on_c, 9, 41, 95
6, 47760, Note_on_c, 9, 41, 0
6, 47760, Note_on_c, 9, 36, 0
6, 47760, Note_on_c, 9, 46, 0
6, 47760, Note_on_c, 9, 46, 95
6, 48000, Note_on_c, 9, 46, 0
6, 48000, Note_on_c, 9, 46, 95
6, 48000, Note_on_c, 9, 38, 95
6, 48000, Note_on_c, 9, 37, 95
6, 48240, Note_on_c, 9, 37, 0
6, 48240, Note_on_c, 9, 38, 0
6, 48240, Note_on_c, 9, 46, 0
6, 48240, Note_on_c, 9, 46, 95
6, 48480, Note_on_c, 9, 46, 0
6, 48480, Note_on_c, 9, 46, 95
6, 48480, Note_on_c, 9, 36, 95
6, 48480, Note_on_c, 9, 41, 95
6, 48720, Note_on_c, 9, 41, 0
6, 48720, Note_on_c, 9, 36, 0
6, 48720, Note_on_c, 9, 46, 0
6, 48720, Note_on_c, 9, 46, 95
6, 48960, Note_on_c, 9, 46, 0
6, 48960, Note_on_c, 9, 46, 95
6, 48960, Note_on_c, 9, 38, 95
6, 48960, Note_on_c, 9, 37, 95
6, 49200, Note_on_c, 9, 37, 0
6, 49200, Note_on_c, 9, 38, 0
6, 49200, Note_on_c, 9, 46, 0
6, 49200, Note_on_c, 9, 46, 95
6, 49200, Note_on_c, 9, 36, 95
6, 49200, Note_on_c, 9, 41, 95
6, 49440, Note_on_c, 9, 41, 0
6, 49440, Note_on_c, 9, 36, 0
6, 49440, Note_on_c, 9, 46, 0
6, 49440, Note_on_c, 9, 46, 95
6, 49440, Note_on_c, 9, 36, 95
6, 49440, Note_on_c, 9, 41, 95
6, 49680, Note_on_c, 9, 41, 0
6, 49680, Note_on_c, 9, 36, 0
6, 49680, Note_on_c, 9, 46, 0
6, 49680, Note_on_c, 9, 46, 95
6, 49920, Note_on_c, 9, 46, 0
6, 49920, Note_on_c, 9, 46, 95
6, 49920, Note_on_c, 9, 38, 95
6, 49920, Note_on_c, 9, 37, 95
6, 50160, Note_on_c, 9, 37, 0
6, 50160, Note_on_c, 9, 38, 0
6, 50160, Note_on_c, 9, 46, 0
6, 50160, Note_on_c, 9, 46, 95
6, 50400, Note_on_c, 9, 46, 0
6, 50400, Note_on_c, 9, 46, 95
6, 50400, Note_on_c, 9, 36, 95
6, 50400, Note_on_c, 9, 41, 95
6, 50640, Note_on_c, 9, 41, 0
6, 50640, Note_on_c, 9, 36, 0
6, 50640, Note_on_c, 9, 46, 0
6, 50640, Note_on_c, 9, 46, 95
6, 50880, Note_on_c, 9, 46, 0
6, 50880, Note_on_c, 9, 46, 95
6, 50880, Note_on_c, 9, 38, 95
6, 50880, Note_on_c, 9, 37, 95
6, 51120, Note_on_c, 9, 37, 0
6, 51120, Note_on_c, 9, 38, 0
6, 51120, Note_on_c, 9, 46, 0
6, 51120, Note_on_c, 9, 46, 95
6, 51120, Note_on_c, 9, 36, 95
6, 51120, Note_on_c, 9, 41, 95
6, 51360, Note_on_c, 9, 41, 0
6, 51360, Note_on_c, 9, 36, 0
6, 51360, Note_on_c, 9, 46, 0
6, 51360, Note_on_c, 9, 46, 95
6, 51360, Note_on_c, 9, 36, 95
6, 51360, Note_on_c, 9, 41, 95
6, 51600, Note_on_c, 9, 41, 0
6, 51600, Note_on_c, 9, 36, 0
6, 51600, Note_on_c, 9, 46, 0
6, 51600, Note_on_c, 9, 46, 95
6, 51840, Note_on_c, 9, 46, 0
6, 51840, Note_on_c, 9, 46, 95
6, 51840, Note_on_c, 9, 38, 95
6, 51840, Note_on_c, 9, 37, 95
6, 52080, Note_on_c, 9, 37, 0
6, 52080, Note_on_c, 9, 38, 0
6, 52080, Note_on_c, 9, 46, 0
6, 52080, Note_on_c, 9, 46, 95
6, 52320, Note_on_c, 9, 46, 0
6, 52320, Note_on_c, 9, 46, 95
6, 52320, Note_on_c, 9, 36, 95
6, 52320, Note_on_c, 9, 41, 95
6, 52560, Note_on_c, 9, 41, 0
6, 52560, Note_on_c, 9, 36, 0
6, 52560, Note_on_c, 9, 46, 0
6, 52560, Note_on_c, 9, 46, 95
6, 52800, Note_on_c, 9, 46, 0
6, 52800, Note_on_c, 9, 46, 95
6, 52800, Note_on_c, 9, 38, 95
6, 52800, Note_on_c, 9, 37, 95
6, 53040, Note_on_c, 9, 37, 0
6, 53040, Note_on_c, 9, 38, 0
6, 53040, Note_on_c, 9, 46, 0
6, 53040, Note_on_c, 9, 46, 95
6, 53040, Note_on_c, 9, 36, 95
6, 53040, Note_on_c, 9, 41, 95
6, 53280, Note_on_c, 9, 41, 0
6, 53280, Note_on_c, 9, 36, 0
6, 53280, Note_on_c, 9, 46, 0
6, 53280, Note_on_c, 9, 46, 95
6, 53280, Note_on_c, 9, 36, 95
6, 53280, Note_on_c, 9, 41, 95
6, 53520, Note_on_c, 9, 41, 0
6, 53520, Note_on_c, 9, 36, 0
6, 53520, Note_on_c, 9, 46, 0
6, 53520, Note_on_c, 9, 46, 95
6, 53760, Note_on_c, 9, 46, 0
6, 53760, Note_on_c, 9, 46, 95
6, 53760, Note_on_c, 9, 38, 95
6, 53760, Note_on_c, 9, 37, 95
6, 54000, Note_on_c, 9, 37, 0
6, 54000, Note_on_c, 9, 38, 0
6, 54000, Note_on_c, 9, 46, 0
6, 54000, Note_on_c, 9, 46, 95
6, 54240, Note_on_c, 9, 46, 0
6, 54240, Note_on_c, 9, 46, 95
6, 54240, Note_on_c, 9, 36, 95
6, 54240, Note_on_c, 9, 41, 95
6, 54480, Note_on_c, 9, 41, 0
6, 54480, Note_on_c, 9, 36, 0
6, 54480, Note_on_c, 9, 46, 0
6, 54480, Note_on_c, 9, 46, 95
6, 54720, Note_on_c, 9, 46, 0
6, 54720, Note_on_c, 9, 46, 95
6, 54720, Note_on_c, 9, 38, 95
6, 54720, Note_on_c, 9, 37, 95
6, 54960, Note_on_c, 9, 37, 0
6, 54960, Note_on_c, 9, 38, 0
6, 54960, Note_on_c, 9, 46, 0
6, 54960, Note_on_c, 9, 46, 95
6, 54960, Note_on_c, 9, 36, 95
6, 54960, Note_on_c, 9, 41, 95
6, 55200, Note_on_c, 9, 41, 0
6, 55200, Note_on_c, 9, 36, 0
6, 55200, Note_on_c, 9, 46, 0
6, 55200, Note_on_c, 9, 46, 95
6, 55200, Note_on_c, 9, 36, 95
6, 55200, Note_on_c, 9, 41, 95
6, 55440, Note_on_c, 9, 41, 0
6, 55440, Note_on_c, 9, 36, 0
6, 55440, Note_on_c, 9, 46, 0
6, 55440, Note_on_c, 9, 46, 95
6, 55680, Note_on_c, 9, 46, 0
6, 55680, Note_on_c, 9, 46, 95
6, 55680, Note_on_c, 9, 38, 95
6, 55680, Note_on_c, 9, 37, 95
6, 55920, Note_on_c, 9, 37, 0
6, 55920, Note_on_c, 9, 38, 0
6, 55920, Note_on_c, 9, 46, 0
6, 55920, Note_on_c, 9, 46, 95
6, 56160, Note_on_c, 9, 46, 0
6, 56160, Note_on_c, 9, 46, 95
6, 56160, Note_on_c, 9, 36, 95
6, 56160, Note_on_c, 9, 41, 95
6, 56400, Note_on_c, 9, 41, 0
6, 56400, Note_on_c, 9, 36, 0
6, 56400, Note_on_c, 9, 46, 0
6, 56400, Note_on_c, 9, 46, 95
6, 56640, Note_on_c, 9, 46, 0
6, 56640, Note_on_c, 9, 46, 95
6, 56640, Note_on_c, 9, 38, 95
6, 56640, Note_on_c, 9, 37, 95
6, 56880, Note_on_c, 9, 37, 0
6, 56880, Note_on_c, 9, 38, 0
6, 56880, Note_on_c, 9, 46, 0
6, 56880, Note_on_c, 9, 46, 95
6, 56880, Note_on_c, 9, 36, 95
6, 56880, Note_on_c, 9, 41, 95
6, 57120, Note_on_c, 9, 41, 0
6, 57120, Note_on_c, 9, 36, 0
6, 57120, Note_on_c, 9, 46, 0
6, 57120, Note_on_c, 9, 46, 95
6, 57120, Note_on_c, 9, 36, 95
6, 57120, Note_on_c, 9, 41, 95
6, 57360, Note_on_c, 9, 41, 0
6, 57360, Note_on_c, 9, 36, 0
6, 57360, Note_on_c, 9, 46, 0
6, 57360, Note_on_c, 9, 46, 95
6, 57600, Note_on_c, 9, 46, 0
6, 57600, Note_on_c, 9, 46, 95
6, 57600, Note_on_c, 9, 38, 95
6, 57600, Note_on_c, 9, 37, 95
6, 57840, Note_on_c, 9, 37, 0
6, 57840, Note_on_c, 9, 38, 0
6, 57840, Note_on_c, 9, 46, 0
6, 57840, Note_on_c, 9, 46, 95
6, 58080, Note_on_c, 9, 46, 0
6, 58080, Note_on_c, 9, 46, 95
6, 58080, Note_on_c, 9, 36, 95
6, 58080, Note_on_c, 9, 41, 95
6, 58320, Note_on_c, 9, 41, 0
6, 58320, Note_on_c, 9, 36, 0
6, 58320, Note_on_c, 9, 46, 0
6, 58320, Note_on_c, 9, 46, 95
6, 58560, Note_on_c, 9, 46, 0
6, 58560, Note_on_c, 9, 46, 95
6, 58560, Note_on_c, 9, 38, 95
6, 58560, Note_on_c, 9, 37, 95
6, 58800, Note_on_c, 9, 37, 0
6, 58800, Note_on_c, 9, 38, 0
6, 58800, Note_on_c, 9, 46, 0
6, 58800, Note_on_c, 9, 46, 95
6, 58800, Note_on_c, 9, 36, 95
6, 58800, Note_on_c, 9, 41, 95
6, 58920, Note_on_c, 9, 41, 0
6, 58920, Note_on_c, 9, 36, 0
6, 58920, Note_on_c, 9, 46, 0
6, 58920, Note_on_c, 9, 46, 95
6, 58920, Note_on_c, 9, 36, 95
6, 58920, Note_on_c, 9, 41, 95
6, 59040, Note_on_c, 9, 41, 0
6, 59040, Note_on_c, 9, 36, 0
6, 59040, Note_on_c, 9, 46, 0
6, 59040, Note_on_c, 9, 38, 95
6, 59040, Note_on_c, 9, 37, 95
6, 59280, Note_on_c, 9, 37, 0
6, 59280, Note_on_c, 9, 38, 0
6, 59280, Note_on_c, 9, 46, 95
6, 59520, Note_on_c, 9, 46, 0
6, 59520, Note_on_c, 9, 46, 95
6, 59520, Note_on_c, 9, 38, 95
6, 59520, Note_on_c, 9, 37, 95
6, 59760, Note_on_c, 9, 37, 0
6, 59760, Note_on_c, 9, 38, 0
6, 59760, Note_on_c, 9, 46, 0
6, 59760, Note_on_c, 9, 46, 95
6, 59760, Note_on_c, 9, 38, 95
6, 59760, Note_on_c, 9, 37, 95
6, 60000, Note_on_c, 9, 37, 0
6, 60000, Note_on_c, 9, 38, 0
6, 60000, Note_on_c, 9, 46, 0
6, 60000, Note_on_c, 9, 55, 95
6, 60000, Note_on_c, 9, 36, 95
6, 60000, Note_on_c, 9, 41, 95
6, 60240, Note_on_c, 9, 41, 0
6, 60240, Note_on_c, 9, 36, 0
6, 60240, Note_on_c, 9, 55, 0
6, 60240, Control_c, 9, 7, 32
6, 60240, Note_on_c, 9, 46, 95
6, 60360, Note_on_c, 9, 46, 0
6, 60360, Note_on_c, 9, 46, 95
6, 60480, Note_on_c, 9, 46, 0
6, 60480, Note_on_c, 9, 46, 95
6, 60600, Note_on_c, 9, 46, 0
6, 60600, Note_on_c, 9, 46, 95
6, 60720, Note_on_c, 9, 46, 0
6, 60720, Note_on_c, 9, 46, 95
6, 60840, Note_on_c, 9, 46, 0
6, 60840, Note_on_c, 9, 46, 95
6, 60960, Note_on_c, 9, 46, 0
6, 60960, Note_on_c, 9, 46, 95
6, 61080, Note_on_c, 9, 46, 0
6, 61080, Note_on_c, 9, 46, 95
6, 61200, Note_on_c, 9, 46, 0
6, 61200, Note_on_c, 9, 46, 95
6, 61320, Note_on_c, 9, 46, 0
6, 61320, Note_on_c, 9, 46, 95
6, 61440, Note_on_c, 9, 46, 0
6, 61440, Control_c, 9, 7, 32
6, 61440, Note_on_c, 9, 46, 95
6, 61560, Note_on_c, 9, 46, 0
6, 61560, Note_on_c, 9, 46, 95
6, 61680, Note_on_c, 9, 46, 0
6, 61680, Note_on_c, 9, 46, 95
6, 61800, Note_on_c, 9, 46, 0
6, 61800, Note_on_c, 9, 46, 95
6, 61920, Note_on_c, 9, 46, 0
6, 61920, Note_on_c, 9, 46, 95
6, 62040, Note_on_c, 9, 46, 0
6, 62040, Note_on_c, 9, 46, 95
6, 62160, Note_on_c, 9, 46, 0
6, 62160, Note_on_c, 9, 46, 95
6, 62280, Note_on_c, 9, 46, 0
6, 62280, Note_on_c, 9, 46, 95
6, 62400, Note_on_c, 9, 46, 0
6, 62400, Note_on_c, 9, 46, 95
6, 62520, Note_on_c, 9, 46, 0
6, 62520, Note_on_c, 9, 46, 95
6, 62640, Note_on_c, 9, 46, 0
6, 62640, Note_on_c, 9, 46, 95
6, 62760, Note_on_c, 9, 46, 0
6, 62760, Note_on_c, 9, 46, 95
6, 62880, Note_on_c, 9, 46, 0
6, 62880, Note_on_c, 9, 46, 95
6, 63000, Note_on_c, 9, 46, 0
6, 63000, Note_on_c, 9, 46, 95
6, 63120, Note_on_c, 9, 46, 0
6, 63120, Note_on_c, 9, 46, 95
6, 63240, Note_on_c, 9, 46, 0
6, 63240, Note_on_c, 9, 46, 95
6, 63360, Note_on_c, 9, 46, 0
6, 63360, Control_c, 9, 7, 32
6, 63360, Note_on_c, 9, 46, 95
6, 63480, Note_on_c, 9, 46, 0
6, 63480, Note_on_c, 9, 46, 95
6, 63600, Note_on_c, 9, 46, 0
6, 63600, Note_on_c, 9, 46, 95
6, 63720, Note_on_c, 9, 46, 0
6, 63720, Note_on_c, 9, 46, 95
6, 63840, Note_on_c, 9, 46, 0
6, 63840, Note_on_c, 9, 46, 95
6, 63960, Note_on_c, 9, 46, 0
6, 63960, Note_on_c, 9, 46, 95
6, 64080, Note_on_c, 9, 46, 0
6, 64080, Note_on_c, 9, 46, 95
6, 64200, Note_on_c, 9, 46, 0
6, 64200, Note_on_c, 9, 46, 95
6, 64320, Note_on_c, 9, 46, 0
6, 64320, Note_on_c, 9, 46, 95
6, 64440, Note_on_c, 9, 46, 0
6, 64440, Note_on_c, 9, 46, 95
6, 64560, Note_on_c, 9, 46, 0
6, 64560, Note_on_c, 9, 46, 95
6, 64680, Note_on_c, 9, 46, 0
6, 64680, Note_on_c, 9, 46, 95
6, 64800, Note_on_c, 9, 46, 0
6, 64800, Note_on_c, 9, 46, 95
6, 64920, Note_on_c, 9, 46, 0
6, 64920, Note_on_c, 9, 46, 95
6, 65040, Note_on_c, 9, 46, 0
6, 65040, Note_on_c, 9, 46, 95
6, 65160, Note_on_c, 9, 46, 0
6, 65160, Note_on_c, 9, 46, 95
6, 65280, Note_on_c, 9, 46, 0
6, 65280, Control_c, 9, 7, 32
6, 65280, Note_on_c, 9, 46, 95
6, 65400, Note_on_c, 9, 46, 0
6, 65400, Note_on_c, 9, 46, 95
6, 65520, Note_on_c, 9, 46, 0
6, 65520, Note_on_c, 9, 46, 95
6, 65640, Note_on_c, 9, 46, 0
6, 65640, Note_on_c, 9, 46, 95
6, 65760, Note_on_c, 9, 46, 0
6, 65760, Note_on_c, 9, 46, 95
6, 65880, Note_on_c, 9, 46, 0
6, 65880, Note_on_c, 9, 46, 95
6, 66000, Note_on_c, 9, 46, 0
6, 66000, Note_on_c, 9, 46, 95
6, 66120, Note_on_c, 9, 46, 0
6, 66120, Note_on_c, 9, 46, 95
6, 66240, Note_on_c, 9, 46, 0
6, 66240, Note_on_c, 9, 46, 95
6, 66360, Note_on_c, 9, 46, 0
6, 66360, Note_on_c, 9, 46, 95
6, 66480, Note_on_c, 9, 46, 0
6, 66480, Note_on_c, 9, 46, 95
6, 66600, Note_on_c, 9, 46, 0
6, 66600, Note_on_c, 9, 46, 95
6, 66720, Note_on_c, 9, 46, 0
6, 66720, Note_on_c, 9, 46, 95
6, 66840, Note_on_c, 9, 46, 0
6, 66840, Note_on_c, 9, 46, 95
6, 66960, Note_on_c, 9, 46, 0
6, 66960, Note_on_c, 9, 46, 95
6, 67080, Note_on_c, 9, 46, 0
6, 67080, Note_on_c, 9, 46, 95
6, 67200, Note_on_c, 9, 46, 0
6, 67200, Control_c, 9, 7, 32
6, 67200, Note_on_c, 9, 46, 95
6, 67320, Note_on_c, 9, 46, 0
6, 67320, Note_on_c, 9, 46, 95
6, 67440, Note_on_c, 9, 46, 0
6, 67440, Note_on_c, 9, 46, 95
6, 67560, Note_on_c, 9, 46, 0
6, 67560, Note_on_c, 9, 46, 95
6, 67680, Note_on_c, 9, 46, 0
6, 67680, Note_on_c, 9, 46, 95
6, 67800, Note_on_c, 9, 46, 0
6, 67800, Note_on_c, 9, 46, 95
6, 67920, Note_on_c, 9, 46, 0
6, 67920, Note_on_c, 9, 46, 95
6, 68040, Note_on_c, 9, 46, 0
6, 68040, Note_on_c, 9, 46, 95
6, 68160, Note_on_c, 9, 46, 0
6, 68160, Note_on_c, 9, 46, 95
6, 68280, Note_on_c, 9, 46, 0
6, 68280, Note_on_c, 9, 46, 95
6, 68400, Note_on_c, 9, 46, 0
6, 68400, Note_on_c, 9, 46, 95
6, 68520, Note_on_c, 9, 46, 0
6, 68520, Note_on_c, 9, 46, 95
6, 68640, Note_on_c, 9, 46, 0
6, 68640, Note_on_c, 9, 46, 95
6, 68760, Note_on_c, 9, 46, 0
6, 68760, Note_on_c, 9, 46, 95
6, 68880, Note_on_c, 9, 46, 0
6, 68880, Note_on_c, 9, 46, 95
6, 69000, Note_on_c, 9, 46, 0
6, 69000, Note_on_c, 9, 46, 95
6, 69120, Note_on_c, 9, 46, 0
6, 69120, Control_c, 9, 7, 32
6, 69120, Note_on_c, 9, 46, 95
6, 69240, Note_on_c, 9, 46, 0
6, 69240, Note_on_c, 9, 46, 95
6, 69360, Note_on_c, 9, 46, 0
6, 69360, Note_on_c, 9, 46, 95
6, 69480, Note_on_c, 9, 46, 0
6, 69480, Note_on_c, 9, 46, 95
6, 69600, Note_on_c, 9, 46, 0
6, 69600, Note_on_c, 9, 46, 95
6, 69720, Note_on_c, 9, 46, 0
6, 69720, Note_on_c, 9, 46, 95
6, 69840, Note_on_c, 9, 46, 0
6, 69840, Note_on_c, 9, 46, 95
6, 69960, Note_on_c, 9, 46, 0
6, 69960, Note_on_c, 9, 46, 95
6, 70080, Note_on_c, 9, 46, 0
6, 70080, Note_on_c, 9, 46, 95
6, 70200, Note_on_c, 9, 46, 0
6, 70200, Note_on_c, 9, 46, 95
6, 70320, Note_on_c, 9, 46, 0
6, 70320, Note_on_c, 9, 46, 95
6, 70440, Note_on_c, 9, 46, 0
6, 70440, Note_on_c, 9, 46, 95
6, 70560, Note_on_c, 9, 46, 0
6, 70560, Note_on_c, 9, 46, 95
6, 70680, Note_on_c, 9, 46, 0
6, 70680, Note_on_c, 9, 46, 95
6, 70800, Note_on_c, 9, 46, 0
6, 70800, Note_on_c, 9, 46, 95
6, 70920, Note_on_c, 9, 46, 0
6, 70920, Note_on_c, 9, 46, 95
6, 71040, Note_on_c, 9, 46, 0
6, 71040, Control_c, 9, 7, 32
6, 71040, Note_on_c, 9, 46, 95
6, 71160, Note_on_c, 9, 46, 0
6, 71160, Note_on_c, 9, 46, 95
6, 71280, Note_on_c, 9, 46, 0
6, 71280, Note_on_c, 9, 46, 95
6, 71400, Note_on_c, 9, 46, 0
6, 71400, Note_on_c, 9, 46, 95
6, 71520, Note_on_c, 9, 46, 0
6, 71520, Note_on_c, 9, 46, 95
6, 71640, Note_on_c, 9, 46, 0
6, 71640, Note_on_c, 9, 46, 95
6, 71760, Note_on_c, 9, 46, 0
6, 71760, Note_on_c, 9, 46, 95
6, 71880, Note_on_c, 9, 46, 0
6, 71880, Note_on_c, 9, 46, 95
6, 72000, Note_on_c, 9, 46, 0
6, 72000, Note_on_c, 9, 46, 95
6, 72120, Note_on_c, 9, 46, 0
6, 72120, Note_on_c, 9, 46, 95
6, 72240, Note_on_c, 9, 46, 0
6, 72240, Note_on_c, 9, 46, 95
6, 72360, Note_on_c, 9, 46, 0
6, 72360, Note_on_c, 9, 46, 95
6, 72480, Note_on_c, 9, 46, 0
6, 72480, Note_on_c, 9, 46, 95
6, 72600, Note_on_c, 9, 46, 0
6, 72600, Note_on_c, 9, 46, 95
6, 72720, Note_on_c, 9, 46, 0
6, 72720, Note_on_c, 9, 46, 95
6, 72840, Note_on_c, 9, 46, 0
6, 72840, Note_on_c, 9, 46, 95
6, 72960, Note_on_c, 9, 46, 0
6, 72960, Control_c, 9, 7, 32
6, 72960, Note_on_c, 9, 46, 95
6, 73080, Note_on_c, 9, 46, 0
6, 73080, Note_on_c, 9, 46, 95
6, 73200, Note_on_c, 9, 46, 0
6, 73200, Note_on_c, 9, 46, 95
6, 73320, Note_on_c, 9, 46, 0
6, 73320, Note_on_c, 9, 46, 95
6, 73440, Note_on_c, 9, 46, 0
6, 73440, Note_on_c, 9, 46, 95
6, 73560, Note_on_c, 9, 46, 0
6, 73560, Note_on_c, 9, 46, 95
6, 73680, Note_on_c, 9, 46, 0
6, 73680, Note_on_c, 9, 46, 95
6, 73800, Note_on_c, 9, 46, 0
6, 73800, Note_on_c, 9, 46, 95
6, 73920, Note_on_c, 9, 46, 0
6, 73920, Note_on_c, 9, 46, 95
6, 74040, Note_on_c, 9, 46, 0
6, 74040, Note_on_c, 9, 46, 95
6, 74160, Note_on_c, 9, 46, 0
6, 74160, Note_on_c, 9, 46, 95
6, 74280, Note_on_c, 9, 46, 0
6, 74280, Note_on_c, 9, 46, 95
6, 74400, Note_on_c, 9, 46, 0
6, 74400, Note_on_c, 9, 46, 95
6, 74520, Note_on_c, 9, 46, 0
6, 74520, Note_on_c, 9, 46, 95
6, 74640, Note_on_c, 9, 46, 0
6, 74640, Note_on_c, 9, 46, 95
6, 74760, Note_on_c, 9, 46, 0
6, 74760, Note_on_c, 9, 46, 95
6, 74880, Note_on_c, 9, 46, 0
6, 74880, Control_c, 9, 7, 32
6, 74880, Note_on_c, 9, 46, 95
6, 75000, Note_on_c, 9, 46, 0
6, 75000, Note_on_c, 9, 46, 95
6, 75120, Note_on_c, 9, 46, 0
6, 75120, Note_on_c, 9, 46, 95
6, 75240, Note_on_c, 9, 46, 0
6, 75240, Note_on_c, 9, 46, 95
6, 75360, Note_on_c, 9, 46, 0
6, 75360, Note_on_c, 9, 46, 95
6, 75480, Note_on_c, 9, 46, 0
6, 75480, Note_on_c, 9, 46, 95
6, 75600, Note_on_c, 9, 46, 0
6, 75600, Note_on_c, 9, 46, 95
6, 75720, Note_on_c, 9, 46, 0
6, 75720, Note_on_c, 9, 46, 95
6, 75840, Note_on_c, 9, 46, 0
6, 75840, Note_on_c, 9, 46, 95
6, 75960, Note_on_c, 9, 46, 0
6, 75960, Note_on_c, 9, 46, 95
6, 76080, Note_on_c, 9, 46, 0
6, 76080, Note_on_c, 9, 46, 95
6, 76200, Note_on_c, 9, 46, 0
6, 76200, Note_on_c, 9, 46, 95
6, 76320, Note_on_c, 9, 46, 0
6, 76320, Note_on_c, 9, 46, 95
6, 76440, Note_on_c, 9, 46, 0
6, 76440, Note_on_c, 9, 46, 95
6, 76560, Note_on_c, 9, 46, 0
6, 76560, Note_on_c, 9, 46, 95
6, 76680, Note_on_c, 9, 46, 0
6, 76680, Note_on_c, 9, 46, 95
6, 76800, Note_on_c, 9, 46, 0
6, 76800, Control_c, 9, 7, 32
6, 76800, Note_on_c, 9, 46, 95
6, 76920, Note_on_c, 9, 46, 0
6, 76920, Note_on_c, 9, 46, 95
6, 77040, Note_on_c, 9, 46, 0
6, 77040, Note_on_c, 9, 46, 95
6, 77160, Note_on_c, 9, 46, 0
6, 77160, Note_on_c, 9, 46, 95
6, 77280, Note_on_c, 9, 46, 0
6, 77280, Note_on_c, 9, 46, 95
6, 77400, Note_on_c, 9, 46, 0
6, 77400, Note_on_c, 9, 46, 95
6, 77520, Note_on_c, 9, 46, 0
6, 77520, Note_on_c, 9, 46, 95
6, 77640, Note_on_c, 9, 46, 0
6, 77640, Note_on_c, 9, 46, 95
6, 77760, Note_on_c, 9, 46, 0
6, 77760, Note_on_c, 9, 46, 95
6, 77880, Note_on_c, 9, 46, 0
6, 77880, Note_on_c, 9, 46, 95
6, 78000, Note_on_c, 9, 46, 0
6, 78000, Note_on_c, 9, 46, 95
6, 78120, Note_on_c, 9, 46, 0
6, 78120, Note_on_c, 9, 46, 95
6, 78240, Note_on_c, 9, 46, 0
6, 78240, Note_on_c, 9, 46, 95
6, 78360, Note_on_c, 9, 46, 0
6, 78360, Note_on_c, 9, 46, 95
6, 78480, Note_on_c, 9, 46, 0
6, 78480, Note_on_c, 9, 46, 95
6, 78600, Note_on_c, 9, 46, 0
6, 78600, Note_on_c, 9, 46, 95
6, 78720, Note_on_c, 9, 46, 0
6, 78720, Control_c, 9, 7, 32
6, 78720, Note_on_c, 9, 46, 95
6, 78840, Note_on_c, 9, 46, 0
6, 78840, Note_on_c, 9, 46, 95
6, 78960, Note_on_c, 9, 46, 0
6, 78960, Note_on_c, 9, 46, 95
6, 79080, Note_on_c, 9, 46, 0
6, 79080, Note_on_c, 9, 46, 95
6, 79200, Note_on_c, 9, 46, 0
6, 79200, Note_on_c, 9, 46, 95
6, 79320, Note_on_c, 9, 46, 0
6, 79320, Note_on_c, 9, 46, 95
6, 79440, Note_on_c, 9, 46, 0
6, 79440, Note_on_c, 9, 46, 95
6, 79560, Note_on_c, 9, 46, 0
6, 79560, Note_on_c, 9, 46, 95
6, 79680, Note_on_c, 9, 46, 0
6, 79680, Note_on_c, 9, 46, 95
6, 79800, Note_on_c, 9, 46, 0
6, 79800, Note_on_c, 9, 46, 95
6, 79920, Note_on_c, 9, 46, 0
6, 79920, Note_on_c, 9, 46, 95
6, 80040, Note_on_c, 9, 46, 0
6, 80040, Note_on_c, 9, 46, 95
6, 80160, Note_on_c, 9, 46, 0
6, 80160, Note_on_c, 9, 46, 95
6, 80280, Note_on_c, 9, 46, 0
6, 80280, Note_on_c, 9, 46, 95
6, 80400, Note_on_c, 9, 46, 0
6, 80400, Note_on_c, 9, 46, 95
6, 80520, Note_on_c, 9, 46, 0
6, 80520, Note_on_c, 9, 46, 95
6, 80640, Note_on_c, 9, 46, 0
6, 80640, Control_c, 9, 7, 32
6, 80640, Note_on_c, 9, 46, 95
6, 80760, Note_on_c, 9, 46, 0
6, 80760, Note_on_c, 9, 46, 95
6, 80880, Note_on_c, 9, 46, 0
6, 80880, Note_on_c, 9, 46, 95
6, 81000, Note_on_c, 9, 46, 0
6, 81000, Note_on_c, 9, 46, 95
6, 81120, Note_on_c, 9, 46, 0
6, 81120, Note_on_c, 9, 46, 95
6, 81240, Note_on_c, 9, 46, 0
6, 81240, Note_on_c, 9, 46, 95
6, 81360, Note_on_c, 9, 46, 0
6, 81360, Note_on_c, 9, 46, 95
6, 81480, Note_on_c, 9, 46, 0
6, 81480, Note_on_c, 9, 46, 95
6, 81600, Note_on_c, 9, 46, 0
6, 81600, Note_on_c, 9, 46, 95
6, 81720, Note_on_c, 9, 46, 0
6, 81720, Note_on_c, 9, 46, 95
6, 81840, Note_on_c, 9, 46, 0
6, 81840, Note_on_c, 9, 46, 95
6, 81960, Note_on_c, 9, 46, 0
6, 81960, Note_on_c, 9, 46, 95
6, 82080, Note_on_c, 9, 46, 0
6, 82080, Note_on_c, 9, 46, 95
6, 82200, Note_on_c, 9, 46, 0
6, 82200, Note_on_c, 9, 46, 95
6, 82320, Note_on_c, 9, 46, 0
6, 82320, Note_on_c, 9, 46, 95
6, 82440, Note_on_c, 9, 46, 0
6, 82440, Note_on_c, 9, 46, 95
6, 82560, Note_on_c, 9, 46, 0
6, 82560, Note_on_c, 9, 46, 95
6, 82680, Note_on_c, 9, 46, 0
6, 82680, Note_on_c, 9, 46, 95
6, 82800, Note_on_c, 9, 46, 0
6, 82800, Note_on_c, 9, 46, 95
6, 82920, Note_on_c, 9, 46, 0
6, 82920, Note_on_c, 9, 46, 95
6, 83040, Note_on_c, 9, 46, 0
6, 83040, Control_c, 9, 7, 127
6, 83040, Note_on_c, 9, 46, 95
6, 83040, Note_on_c, 9, 36, 95
6, 83040, Note_on_c, 9, 41, 95
6, 83280, Note_on_c, 9, 41, 0
6, 83280, Note_on_c, 9, 36, 0
6, 83280, Note_on_c, 9, 46, 0
6, 83280, Note_on_c, 9, 46, 95
6, 83520, Note_on_c, 9, 46, 0
6, 83520, Note_on_c, 9, 46, 95
6, 83520, Note_on_c, 9, 38, 95
6, 83520, Note_on_c, 9, 37, 95
6, 83760, Note_on_c, 9, 37, 0
6, 83760, Note_on_c, 9, 38, 0
6, 83760, Note_on_c, 9, 46, 0
6, 83760, Note_on_c, 9, 46, 95
6, 83760, Note_on_c, 9, 36, 95
6, 83760, Note_on_c, 9, 41, 95
6, 84000, Note_on_c, 9, 41, 0
6, 84000, Note_on_c, 9, 36, 0
6, 84000, Note_on_c, 9, 46, 0
6, 84000, Note_on_c, 9, 46, 95
6, 84240, Note_on_c, 9, 46, 0
6, 84240, Note_on_c, 9, 46, 95
6, 84480, Note_on_c, 9, 46, 0
6, 84480, Note_on_c, 9, 46, 95
6, 84480, Note_on_c, 9, 38, 95
6, 84480, Note_on_c, 9, 37, 95
6, 84720, Note_on_c, 9, 37, 0
6, 84720, Note_on_c, 9, 38, 0
6, 84720, Note_on_c, 9, 46, 0
6, 84720, Note_on_c, 9, 46, 95
6, 84960, Note_on_c, 9, 46, 0
6, 84960, Note_on_c, 9, 46, 95
6, 84960, Note_on_c, 9, 36, 95
6, 84960, Note_on_c, 9, 41, 95
6, 85200, Note_on_c, 9, 41, 0
6, 85200, Note_on_c, 9, 36, 0
6, 85200, Note_on_c, 9, 46, 0
6, 85200, Note_on_c, 9, 46, 95
6, 85440, Note_on_c, 9, 46, 0
6, 85440, Note_on_c, 9, 46, 95
6, 85440, Note_on_c, 9, 38, 95
6, 85440, Note_on_c, 9, 37, 95
6, 85680, Note_on_c, 9, 37, 0
6, 85680, Note_on_c, 9, 38, 0
6, 85680, Note_on_c, 9, 46, 0
6, 85680, Note_on_c, 9, 46, 95
6, 85680, Note_on_c, 9, 36, 95
6, 85680, Note_on_c, 9, 41, 95
6, 85920, Note_on_c, 9, 41, 0
6, 85920, Note_on_c, 9, 36, 0
6, 85920, Note_on_c, 9, 46, 0
6, 85920, Note_on_c, 9, 46, 95
6, 86160, Note_on_c, 9, 46, 0
6, 86160, Note_on_c, 9, 46, 95
6, 86400, Note_on_c, 9, 46, 0
6, 86400, Note_on_c, 9, 46, 95
6, 86400, Note_on_c, 9, 38, 95
6, 86400, Note_on_c, 9, 37, 95
6, 86640, Note_on_c, 9, 37, 0
6, 86640, Note_on_c, 9, 38, 0
6, 86640, Note_on_c, 9, 46, 0
6, 86640, Note_on_c, 9, 46, 95
6, 86880, Note_on_c, 9, 46, 0
6, 86880, Note_on_c, 9, 46, 95
6, 86880, Note_on_c, 9, 36, 95
6, 86880, Note_on_c, 9, 41, 95
6, 87120, Note_on_c, 9, 41, 0
6, 87120, Note_on_c, 9, 36, 0
6, 87120, Note_on_c, 9, 46, 0
6, 87120, Note_on_c, 9, 46, 95
6, 87360, Note_on_c, 9, 46, 0
6, 87360, Note_on_c, 9, 46, 95
6, 87360, Note_on_c, 9, 38, 95
6, 87360, Note_on_c, 9, 37, 95
6, 87600, Note_on_c, 9, 37, 0
6, 87600, Note_on_c, 9, 38, 0
6, 87600, Note_on_c, 9, 46, 0
6, 87600, Note_on_c, 9, 46, 95
6, 87600, Note_on_c, 9, 36, 95
6, 87600, Note_on_c, 9, 41, 95
6, 87840, Note_on_c, 9, 41, 0
6, 87840, Note_on_c, 9, 36, 0
6, 87840, Note_on_c, 9, 46, 0
6, 87840, Note_on_c, 9, 46, 95
6, 88080, Note_on_c, 9, 46, 0
6, 88080, Note_on_c, 9, 46, 95
6, 88320, Note_on_c, 9, 46, 0
6, 88320, Note_on_c, 9, 46, 95
6, 88320, Note_on_c, 9, 38, 95
6, 88320, Note_on_c, 9, 37, 95
6, 88560, Note_on_c, 9, 37, 0
6, 88560, Note_on_c, 9, 38, 0
6, 88560, Note_on_c, 9, 46, 0
6, 88560, Note_on_c, 9, 46, 95
6, 88800, Note_on_c, 9, 46, 0
6, 88800, Note_on_c, 9, 46, 95
6, 88800, Note_on_c, 9, 36, 95
6, 88800, Note_on_c, 9, 41, 95
6, 89040, Note_on_c, 9, 41, 0
6, 89040, Note_on_c, 9, 36, 0
6, 89040, Note_on_c, 9, 46, 0
6, 89040, Note_on_c, 9, 46, 95
6, 89280, Note_on_c, 9, 46, 0
6, 89280, Note_on_c, 9, 46, 95
6, 89280, Note_on_c, 9, 38, 95
6, 89280, Note_on_c, 9, 37, 95
6, 89520, Note_on_c, 9, 37, 0
6, 89520, Note_on_c, 9, 38, 0
6, 89520, Note_on_c, 9, 46, 0
6, 89520, Note_on_c, 9, 46, 95
6, 89520, Note_on_c, 9, 36, 95
6, 89520, Note_on_c, 9, 41, 95
6, 89760, Note_on_c, 9, 41, 0
6, 89760, Note_on_c, 9, 36, 0
6, 89760, Note_on_c, 9, 46, 0
6, 89760, Note_on_c, 9, 46, 95
6, 90000, Note_on_c, 9, 46, 0
6, 90000, Note_on_c, 9, 46, 95
6, 90240, Note_on_c, 9, 46, 0
6, 90240, Note_on_c, 9, 46, 95
6, 90240, Note_on_c, 9, 38, 95
6, 90240, Note_on_c, 9, 37, 95
6, 90480, Note_on_c, 9, 37, 0
6, 90480, Note_on_c, 9, 38, 0
6, 90480, Note_on_c, 9, 46, 0
6, 90480, Note_on_c, 9, 46, 95
6, 90720, Note_on_c, 9, 46, 0
6, 90720, Note_on_c, 9, 46, 95
6, 90720, Note_on_c, 9, 36, 95
6, 90720, Note_on_c, 9, 41, 95
6, 90960, Note_on_c, 9, 41, 0
6, 90960, Note_on_c, 9, 36, 0
6, 90960, Note_on_c, 9, 46, 0
6, 90960, Note_on_c, 9, 46, 95
6, 91200, Note_on_c, 9, 46, 0
6, 91200, Note_on_c, 9, 46, 95
6, 91200, Note_on_c, 9, 38, 95
6, 91200, Note_on_c, 9, 37, 95
6, 91440, Note_on_c, 9, 37, 0
6, 91440, Note_on_c, 9, 38, 0
6, 91440, Note_on_c, 9, 46, 0
6, 91440, Note_on_c, 9, 46, 95
6, 91440, Note_on_c, 9, 36, 95
6, 91440, Note_on_c, 9, 41, 95
6, 91680, Note_on_c, 9, 41, 0
6, 91680, Note_on_c, 9, 36, 0
6, 91680, Note_on_c, 9, 46, 0
6, 91680, Note_on_c, 9, 46, 95
6, 91920, Note_on_c, 9, 46, 0
6, 91920, Note_on_c, 9, 46, 95
6, 92160, Note_on_c, 9, 46, 0
6, 92160, Note_on_c, 9, 46, 95
6, 92160, Note_on_c, 9, 38, 95
6, 92160, Note_on_c, 9, 37, 95
6, 92400, Note_on_c, 9, 37, 0
6, 92400, Note_on_c, 9, 38, 0
6, 92400, Note_on_c, 9, 46, 0
6, 92400, Note_on_c, 9, 46, 95
6, 92640, Note_on_c, 9, 46, 0
6, 92640, Note_on_c, 9, 46, 95
6, 92640, Note_on_c, 9, 36, 95
6, 92640, Note_on_c, 9, 41, 95
6, 92880, Note_on_c, 9, 41, 0
6, 92880, Note_on_c, 9, 36, 0
6, 92880, Note_on_c, 9, 46, 0
6, 92880, Note_on_c, 9, 46, 95
6, 93120, Note_on_c, 9, 46, 0
6, 93120, Note_on_c, 9, 46, 95
6, 93120, Note_on_c, 9, 38, 95
6, 93120, Note_on_c, 9, 37, 95
6, 93360, Note_on_c, 9, 37, 0
6, 93360, Note_on_c, 9, 38, 0
6, 93360, Note_on_c, 9, 46, 0
6, 93360, Note_on_c, 9, 46, 95
6, 93360, Note_on_c, 9, 36, 95
6, 93360, Note_on_c, 9, 41, 95
6, 93600, Note_on_c, 9, 41, 0
6, 93600, Note_on_c, 9, 36, 0
6, 93600, Note_on_c, 9, 46, 0
6, 93600, Note_on_c, 9, 46, 95
6, 93840, Note_on_c, 9, 46, 0
6, 93840, Note_on_c, 9, 46, 95
6, 94080, Note_on_c, 9, 46, 0
6, 94080, Note_on_c, 9, 46, 95
6, 94080, Note_on_c, 9, 38, 95
6, 94080, Note_on_c, 9, 37, 95
6, 94320, Note_on_c, 9, 37, 0
6, 94320, Note_on_c, 9, 38, 0
6, 94320, Note_on_c, 9, 46, 0
6, 94320, Note_on_c, 9, 46, 95
6, 94560, Note_on_c, 9, 46, 0
6, 94560, Note_on_c, 9, 46, 95
6, 94560, Note_on_c, 9, 36, 95
6, 94560, Note_on_c, 9, 41, 95
6, 94800, Note_on_c, 9, 41, 0
6, 94800, Note_on_c, 9, 36, 0
6, 94800, Note_on_c, 9, 46, 0
6, 94800, Note_on_c, 9, 46, 95
6, 95040, Note_on_c, 9, 46, 0
6, 95040, Note_on_c, 9, 46, 95
6, 95040, Note_on_c, 9, 38, 95
6, 95040, Note_on_c, 9, 37, 95
6, 95280, Note_on_c, 9, 37, 0
6, 95280, Note_on_c, 9, 38, 0
6, 95280, Note_on_c, 9, 46, 0
6, 95280, Note_on_c, 9, 46, 95
6, 95280, Note_on_c, 9, 36, 95
6, 95280, Note_on_c, 9, 41, 95
6, 95520, Note_on_c, 9, 41, 0
6, 95520, Note_on_c, 9, 36, 0
6, 95520, Note_on_c, 9, 46, 0
6, 95520, Note_on_c, 9, 46, 95
6, 95760, Note_on_c, 9, 46, 0
6, 95760, Note_on_c, 9, 46, 95
6, 96000, Note_on_c, 9, 46, 0
6, 96000, Note_on_c, 9, 46, 95
6, 96000, Note_on_c, 9, 38, 95
6, 96000, Note_on_c, 9, 37, 95
6, 96240, Note_on_c, 9, 37, 0
6, 96240, Note_on_c, 9, 38, 0
6, 96240, Note_on_c, 9, 46, 0
6, 96240, Note_on_c, 9, 46, 95
6, 96480, Note_on_c, 9, 46, 0
6, 96480, Note_on_c, 9, 46, 95
6, 96480, Note_on_c, 9, 36, 95
6, 96480, Note_on_c, 9, 41, 95
6, 96720, Note_on_c, 9, 41, 0
6, 96720, Note_on_c, 9, 36, 0
6, 96720, Note_on_c, 9, 46, 0
6, 96720, Note_on_c, 9, 46, 95
6, 96960, Note_on_c, 9, 46, 0
6, 96960, Note_on_c, 9, 46, 95
6, 96960, Note_on_c, 9, 38, 95
6, 96960, Note_on_c, 9, 37, 95
6, 97200, Note_on_c, 9, 37, 0
6, 97200, Note_on_c, 9, 38, 0
6, 97200, Note_on_c, 9, 46, 0
6, 97200, Note_on_c, 9, 46, 95
6, 97200, Note_on_c, 9, 36, 95
6, 97200, Note_on_c, 9, 41, 95
6, 97200, Note_on_c, 9, 43, 95
6, 97440, Note_on_c, 9, 43, 0
6, 97440, Note_on_c, 9, 46, 0
6, 97440, Note_on_c, 9, 36, 0
6, 97440, Note_on_c, 9, 41, 0
6, 97440, Note_on_c, 9, 46, 95
6, 97680, Note_on_c, 9, 46, 0
6, 97680, Note_on_c, 9, 46, 95
6, 97680, Note_on_c, 9, 36, 95
6, 97680, Note_on_c, 9, 41, 95
6, 97680, Note_on_c, 9, 48, 95
6, 97920, Note_on_c, 9, 48, 0
6, 97920, Note_on_c, 9, 46, 0
6, 97920, Note_on_c, 9, 36, 0
6, 97920, Note_on_c, 9, 41, 0
6, 97920, Note_on_c, 9, 46, 95
6, 97920, Note_on_c, 9, 36, 95
6, 97920, Note_on_c, 9, 41, 95
6, 97920, Note_on_c, 9, 48, 95
6, 98160, Note_on_c, 9, 48, 0
6, 98160, Note_on_c, 9, 46, 0
6, 98160, Note_on_c, 9, 36, 0
6, 98160, Note_on_c, 9, 41, 0
6, 98160, Note_on_c, 9, 46, 95
6, 98400, Note_on_c, 9, 46, 0
6, 98400, Note_on_c, 9, 49, 95
6, 98400, Note_on_c, 9, 38, 95
6, 98400, Note_on_c, 9, 37, 95
6, 98640, Note_on_c, 9, 37, 0
6, 98640, Note_on_c, 9, 38, 0
6, 98640, Note_on_c, 9, 49, 0
6, 102000, Note_on_c, 9, 36, 95
6, 102000, Note_on_c, 9, 41, 95
6, 102240, Note_on_c, 9, 41, 0
6, 102240, Note_on_c, 9, 36, 0
6, 102240, Note_on_c, 9, 36, 95
6, 102240, Note_on_c, 9, 41, 95
6, 102480, Note_on_c, 9, 41, 0
6, 102480, Note_on_c, 9, 36, 0
6, 102720, Note_on_c, 9, 38, 95
6, 102720, Note_on_c, 9, 37, 95
6, 102960, Note_on_c, 9, 37, 0
6, 102960, Note_on_c, 9, 38, 0
6, 102960, Note_on_c, 9, 36, 95
6, 102960, Note_on_c, 9, 41, 95
6, 103200, Note_on_c, 9, 41, 0
6, 103200, Note_on_c, 9, 36, 0
6, 106560, Note_on_c, 9, 46, 95
6, 106680, Note_on_c, 9, 46, 0
6, 106680, Note_on_c, 9, 46, 95
6, 106800, Note_on_c, 9, 46, 0
6, 106800, Note_on_c, 9, 46, 95
6, 106920, Note_on_c, 9, 46, 0
6, 106920, Note_on_c, 9, 46, 95
6, 107160, Note_on_c, 9, 46, 0
6, 107160, Note_on_c, 9, 46, 95
6, 107280, Note_on_c, 9, 46, 0
6, 107280, Note_on_c, 9, 46, 95
6, 107400, Note_on_c, 9, 46, 0
6, 107400, Note_on_c, 9, 46, 95
6, 107520, Note_on_c, 9, 46, 0
6, 107520, Note_on_c, 9, 46, 95
6, 108000, Note_on_c, 9, 46, 0
6, 108000, Note_on_c, 9, 36, 95
6, 108000, Note_on_c, 9, 41, 95
6, 108240, Note_on_c, 9, 41, 0
6, 108240, Note_on_c, 9, 36, 0
6, 108240, Note_on_c, 9, 46, 95
6, 108480, Note_on_c, 9, 46, 0
6, 108480, Note_on_c, 9, 38, 95
6, 108480, Note_on_c, 9, 37, 95
6, 108720, Note_on_c, 9, 37, 0
6, 108720, Note_on_c, 9, 38, 0
6, 108720, Note_on_c, 9, 36, 95
6, 108720, Note_on_c, 9, 41, 95
6, 108960, Note_on_c, 9, 41, 0
6, 108960, Note_on_c, 9, 36, 0
6, 109920, Note_on_c, 9, 46, 95
6, 110160, Note_on_c, 9, 46, 0
6, 110160, Note_on_c, 9, 46, 95
6, 110400, Note_on_c, 9, 46, 0
6, 110400, Note_on_c, 9, 46, 95
6, 110640, Note_on_c, 9, 46, 0
6, 110640, Note_on_c, 9, 46, 95
6, 110880, Note_on_c, 9, 46, 0
6, 111840, Note_on_c, 9, 46, 95
6, 112080, Note_on_c, 9, 46, 0
6, 112080, Note_on_c, 9, 46, 95
6, 112320, Note_on_c, 9, 46, 0
6, 112320, Note_on_c, 9, 46, 95
6, 112560, Note_on_c, 9, 46, 0
6, 112560, Note_on_c, 9, 46, 95
6, 112800, Note_on_c, 9, 46, 0
6, 113760, Note_on_c, 9, 55, 95
6, 113760, Note_on_c, 9, 36, 95
6, 113760, Note_on_c, 9, 41, 95
6, 114000, Note_on_c, 9, 41, 0
6, 114000, Note_on_c, 9, 36, 0
6, 114000, Note_on_c, 9, 55, 0
6, 114000, Note_on_c, 9, 46, 95
6, 114240, Note_on_c, 9, 46, 0
6, 114240, Note_on_c, 9, 46, 95
6, 114240, Note_on_c, 9, 38, 95
6, 114240, Note_on_c, 9, 37, 95
6, 114480, Note_on_c, 9, 37, 0
6, 114480, Note_on_c, 9, 38, 0
6, 114480, Note_on_c, 9, 46, 0
6, 114480, Note_on_c, 9, 46, 95
6, 114480, Note_on_c, 9, 36, 95
6, 114480, Note_on_c, 9, 41, 95
6, 114720, Note_on_c, 9, 41, 0
6, 114720, Note_on_c, 9, 36, 0
6, 114720, Note_on_c, 9, 46, 0
6, 114720, Note_on_c, 9, 46, 95
6, 114960, Note_on_c, 9, 46, 0
6, 114960, Note_on_c, 9, 46, 95
6, 114960, Note_on_c, 9, 36, 95
6, 114960, Note_on_c, 9, 41, 95
6, 115200, Note_on_c, 9, 41, 0
6, 115200, Note_on_c, 9, 36, 0
6, 115200, Note_on_c, 9, 46, 0
6, 115200, Note_on_c, 9, 46, 95
6, 115200, Note_on_c, 9, 38, 95
6, 115200, Note_on_c, 9, 37, 95
6, 115440, Note_on_c, 9, 37, 0
6, 115440, Note_on_c, 9, 38, 0
6, 115440, Note_on_c, 9, 46, 0
6, 115440, Note_on_c, 9, 46, 95
6, 115680, Note_on_c, 9, 46, 0
6, 115680, Note_on_c, 9, 46, 95
6, 115680, Note_on_c, 9, 36, 95
6, 115680, Note_on_c, 9, 41, 95
6, 115920, Note_on_c, 9, 41, 0
6, 115920, Note_on_c, 9, 36, 0
6, 115920, Note_on_c, 9, 46, 0
6, 115920, Note_on_c, 9, 46, 95
6, 116160, Note_on_c, 9, 46, 0
6, 116160, Note_on_c, 9, 46, 95
6, 116160, Note_on_c, 9, 38, 95
6, 116160, Note_on_c, 9, 37, 95
6, 116400, Note_on_c, 9, 37, 0
6, 116400, Note_on_c, 9, 38, 0
6, 116400, Note_on_c, 9, 46, 0
6, 116400, Note_on_c, 9, 46, 95
6, 116400, Note_on_c, 9, 36, 95
6, 116400, Note_on_c, 9, 41, 95
6, 116640, Note_on_c, 9, 41, 0
6, 116640, Note_on_c, 9, 36, 0
6, 116640, Note_on_c, 9, 46, 0
6, 116640, Note_on_c, 9, 46, 95
6, 116880, Note_on_c, 9, 46, 0
6, 116880, Note_on_c, 9, 46, 95
6, 116880, Note_on_c, 9, 36, 95
6, 116880, Note_on_c, 9, 41, 95
6, 117120, Note_on_c, 9, 41, 0
6, 117120, Note_on_c, 9, 36, 0
6, 117120, Note_on_c, 9, 46, 0
6, 117120, Note_on_c, 9, 46, 95
6, 117120, Note_on_c, 9, 38, 95
6, 117120, Note_on_c, 9, 37, 95
6, 117360, Note_on_c, 9, 37, 0
6, 117360, Note_on_c, 9, 38, 0
6, 117360, Note_on_c, 9, 46, 0
6, 117360, Note_on_c, 9, 46, 95
6, 117600, Note_on_c, 9, 46, 0
6, 117600, Note_on_c, 9, 46, 95
6, 117600, Note_on_c, 9, 36, 95
6, 117600, Note_on_c, 9, 41, 95
6, 117840, Note_on_c, 9, 41, 0
6, 117840, Note_on_c, 9, 36, 0
6, 117840, Note_on_c, 9, 46, 0
6, 117840, Note_on_c, 9, 46, 95
6, 118080, Note_on_c, 9, 46, 0
6, 118080, Note_on_c, 9, 46, 95
6, 118080, Note_on_c, 9, 38, 95
6, 118080, Note_on_c, 9, 37, 95
6, 118320, Note_on_c, 9, 37, 0
6, 118320, Note_on_c, 9, 38, 0
6, 118320, Note_on_c, 9, 46, 0
6, 118320, Note_on_c, 9, 46, 95
6, 118320, Note_on_c, 9, 36, 95
6, 118320, Note_on_c, 9, 41, 95
6, 118560, Note_on_c, 9, 41, 0
6, 118560, Note_on_c, 9, 36, 0
6, 118560, Note_on_c, 9, 46, 0
6, 118560, Note_on_c, 9, 46, 95
6, 118800, Note_on_c, 9, 46, 0
6, 118800, Note_on_c, 9, 46, 95
6, 118800, Note_on_c, 9, 36, 95
6, 118800, Note_on_c, 9, 41, 95
6, 119040, Note_on_c, 9, 41, 0
6, 119040, Note_on_c, 9, 36, 0
6, 119040, Note_on_c, 9, 46, 0
6, 119040, Note_on_c, 9, 46, 95
6, 119040, Note_on_c, 9, 38, 95
6, 119040, Note_on_c, 9, 37, 95
6, 119280, Note_on_c, 9, 37, 0
6, 119280, Note_on_c, 9, 38, 0
6, 119280, Note_on_c, 9, 46, 0
6, 119280, Note_on_c, 9, 46, 95
6, 119520, Note_on_c, 9, 46, 0
6, 119520, Note_on_c, 9, 46, 95
6, 119520, Note_on_c, 9, 36, 95
6, 119520, Note_on_c, 9, 41, 95
6, 119760, Note_on_c, 9, 41, 0
6, 119760, Note_on_c, 9, 36, 0
6, 119760, Note_on_c, 9, 46, 0
6, 119760, Note_on_c, 9, 46, 95
6, 120000, Note_on_c, 9, 46, 0
6, 120000, Note_on_c, 9, 46, 95
6, 120000, Note_on_c, 9, 38, 95
6, 120000, Note_on_c, 9, 37, 95
6, 120240, Note_on_c, 9, 37, 0
6, 120240, Note_on_c, 9, 38, 0
6, 120240, Note_on_c, 9, 46, 0
6, 120240, Note_on_c, 9, 46, 95
6, 120240, Note_on_c, 9, 36, 95
6, 120240, Note_on_c, 9, 41, 95
6, 120480, Note_on_c, 9, 41, 0
6, 120480, Note_on_c, 9, 36, 0
6, 120480, Note_on_c, 9, 46, 0
6, 120480, Note_on_c, 9, 46, 95
6, 120720, Note_on_c, 9, 46, 0
6, 120720, Note_on_c, 9, 46, 95
6, 120720, Note_on_c, 9, 36, 95
6, 120720, Note_on_c, 9, 41, 95
6, 120960, Note_on_c, 9, 41, 0
6, 120960, Note_on_c, 9, 36, 0
6, 120960, Note_on_c, 9, 46, 0
6, 120960, Note_on_c, 9, 46, 95
6, 120960, Note_on_c, 9, 38, 95
6, 120960, Note_on_c, 9, 37, 95
6, 121200, Note_on_c, 9, 37, 0
6, 121200, Note_on_c, 9, 38, 0
6, 121200, Note_on_c, 9, 46, 0
6, 121200, Note_on_c, 9, 46, 95
6, 121440, Note_on_c, 9, 46, 0
6, 121440, Note_on_c, 9, 46, 95
6, 121440, Note_on_c, 9, 36, 95
6, 121440, Note_on_c, 9, 41, 95
6, 121680, Note_on_c, 9, 41, 0
6, 121680, Note_on_c, 9, 36, 0
6, 121680, Note_on_c, 9, 46, 0
6, 121680, Note_on_c, 9, 46, 95
6, 121920, Note_on_c, 9, 46, 0
6, 121920, Note_on_c, 9, 46, 95
6, 121920, Note_on_c, 9, 38, 95
6, 121920, Note_on_c, 9, 37, 95
6, 122160, Note_on_c, 9, 37, 0
6, 122160, Note_on_c, 9, 38, 0
6, 122160, Note_on_c, 9, 46, 0
6, 122160, Note_on_c, 9, 46, 95
6, 122160, Note_on_c, 9, 36, 95
6, 122160, Note_on_c, 9, 41, 95
6, 122400, Note_on_c, 9, 41, 0
6, 122400, Note_on_c, 9, 36, 0
6, 122400, Note_on_c, 9, 46, 0
6, 122400, Note_on_c, 9, 46, 95
6, 122640, Note_on_c, 9, 46, 0
6, 122640, Note_on_c, 9, 46, 95
6, 122640, Note_on_c, 9, 36, 95
6, 122640, Note_on_c, 9, 41, 95
6, 122880, Note_on_c, 9, 41, 0
6, 122880, Note_on_c, 9, 36, 0
6, 122880, Note_on_c, 9, 46, 0
6, 122880, Note_on_c, 9, 46, 95
6, 122880, Note_on_c, 9, 38, 95
6, 122880, Note_on_c, 9, 37, 95
6, 123120, Note_on_c, 9, 37, 0
6, 123120, Note_on_c, 9, 38, 0
6, 123120, Note_on_c, 9, 46, 0
6, 123120, Note_on_c, 9, 46, 95
6, 123360, Note_on_c, 9, 46, 0
6, 123360, Note_on_c, 9, 46, 95
6, 123360, Note_on_c, 9, 36, 95
6, 123360, Note_on_c, 9, 41, 95
6, 123600, Note_on_c, 9, 41, 0
6, 123600, Note_on_c, 9, 36, 0
6, 123600, Note_on_c, 9, 46, 0
6, 123600, Note_on_c, 9, 46, 95
6, 123840, Note_on_c, 9, 46, 0
6, 123840, Note_on_c, 9, 46, 95
6, 123840, Note_on_c, 9, 38, 95
6, 123840, Note_on_c, 9, 37, 95
6, 124080, Note_on_c, 9, 37, 0
6, 124080, Note_on_c, 9, 38, 0
6, 124080, Note_on_c, 9, 46, 0
6, 124080, Note_on_c, 9, 46, 95
6, 124080, Note_on_c, 9, 36, 95
6, 124080, Note_on_c, 9, 41, 95
6, 124320, Note_on_c, 9, 41, 0
6, 124320, Note_on_c, 9, 36, 0
6, 124320, Note_on_c, 9, 46, 0
6, 124320, Note_on_c, 9, 46, 95
6, 124560, Note_on_c, 9, 46, 0
6, 124560, Note_on_c, 9, 46, 95
6, 124560, Note_on_c, 9, 36, 95
6, 124560, Note_on_c, 9, 41, 95
6, 124800, Note_on_c, 9, 41, 0
6, 124800, Note_on_c, 9, 36, 0
6, 124800, Note_on_c, 9, 46, 0
6, 124800, Note_on_c, 9, 46, 95
6, 124800, Note_on_c, 9, 38, 95
6, 124800, Note_on_c, 9, 37, 95
6, 125040, Note_on_c, 9, 37, 0
6, 125040, Note_on_c, 9, 38, 0
6, 125040, Note_on_c, 9, 46, 0
6, 125040, Note_on_c, 9, 46, 95
6, 125280, Note_on_c, 9, 46, 0
6, 125280, Note_on_c, 9, 46, 95
6, 125280, Note_on_c, 9, 36, 95
6, 125280, Note_on_c, 9, 41, 95
6, 125520, Note_on_c, 9, 41, 0
6, 125520, Note_on_c, 9, 36, 0
6, 125520, Note_on_c, 9, 46, 0
6, 125520, Note_on_c, 9, 46, 95
6, 125760, Note_on_c, 9, 46, 0
6, 125760, Note_on_c, 9, 46, 95
6, 125760, Note_on_c, 9, 38, 95
6, 125760, Note_on_c, 9, 37, 95
6, 126000, Note_on_c, 9, 37, 0
6, 126000, Note_on_c, 9, 38, 0
6, 126000, Note_on_c, 9, 46, 0
6, 126000, Note_on_c, 9, 46, 95
6, 126000, Note_on_c, 9, 36, 95
6, 126000, Note_on_c, 9, 41, 95
6, 126240, Note_on_c, 9, 41, 0
6, 126240, Note_on_c, 9, 36, 0
6, 126240, Note_on_c, 9, 46, 0
6, 126240, Note_on_c, 9, 46, 95
6, 126480, Note_on_c, 9, 46, 0
6, 126480, Note_on_c, 9, 46, 95
6, 126480, Note_on_c, 9, 36, 95
6, 126480, Note_on_c, 9, 41, 95
6, 126720, Note_on_c, 9, 41, 0
6, 126720, Note_on_c, 9, 36, 0
6, 126720, Note_on_c, 9, 46, 0
6, 126720, Note_on_c, 9, 46, 95
6, 126720, Note_on_c, 9, 38, 95
6, 126720, Note_on_c, 9, 37, 95
6, 126960, Note_on_c, 9, 37, 0
6, 126960, Note_on_c, 9, 38, 0
6, 126960, Note_on_c, 9, 46, 0
6, 126960, Note_on_c, 9, 46, 95
6, 127200, Note_on_c, 9, 46, 0
6, 127200, Note_on_c, 9, 46, 95
6, 127200, Note_on_c, 9, 36, 95
6, 127200, Note_on_c, 9, 41, 95
6, 127440, Note_on_c, 9, 41, 0
6, 127440, Note_on_c, 9, 36, 0
6, 127440, Note_on_c, 9, 46, 0
6, 127440, Note_on_c, 9, 46, 95
6, 127680, Note_on_c, 9, 46, 0
6, 127680, Note_on_c, 9, 46, 95
6, 127680, Note_on_c, 9, 38, 95
6, 127680, Note_on_c, 9, 37, 95
6, 127920, Note_on_c, 9, 37, 0
6, 127920, Note_on_c, 9, 38, 0
6, 127920, Note_on_c, 9, 46, 0
6, 127920, Note_on_c, 9, 46, 95
6, 127920, Note_on_c, 9, 36, 95
6, 127920, Note_on_c, 9, 41, 95
6, 128160, Note_on_c, 9, 41, 0
6, 128160, Note_on_c, 9, 36, 0
6, 128160, Note_on_c, 9, 46, 0
6, 128160, Note_on_c, 9, 46, 95
6, 128400, Note_on_c, 9, 46, 0
6, 128400, Note_on_c, 9, 46, 95
6, 128400, Note_on_c, 9, 36, 95
6, 128400, Note_on_c, 9, 41, 95
6, 128640, Note_on_c, 9, 41, 0
6, 128640, Note_on_c, 9, 36, 0
6, 128640, Note_on_c, 9, 46, 0
6, 128640, Note_on_c, 9, 55, 95
6, 128640, Note_on_c, 9, 38, 95
6, 128640, Note_on_c, 9, 37, 95
6, 129120, Note_on_c, 9, 37, 0
6, 129120, Note_on_c, 9, 38, 0
6, 129120, Note_on_c, 9, 55, 0
6, 129120, Note_on_c, 9, 55, 95
6, 129120, Note_on_c, 9, 36, 95
6, 129120, Note_on_c, 9, 41, 95
6, 129360, Note_on_c, 9, 41, 0
6, 129360, Note_on_c, 9, 36, 0
6, 129360, Note_on_c, 9, 55, 0
6, 129360, Note_on_c, 9, 46, 95
6, 129600, Note_on_c, 9, 46, 0
6, 129600, Note_on_c, 9, 46, 95
6, 129840, Note_on_c, 9, 46, 0
6, 129840, Note_on_c, 9, 46, 95
6, 129840, Note_on_c, 9, 36, 95
6, 129840, Note_on_c, 9, 41, 95
6, 130080, Note_on_c, 9, 41, 0
6, 130080, Note_on_c, 9, 36, 0
6, 130080, Note_on_c, 9, 46, 0
6, 130080, Note_on_c, 9, 46, 95
6, 130080, Note_on_c, 9, 36, 95
6, 130080, Note_on_c, 9, 41, 95
6, 130320, Note_on_c, 9, 41, 0
6, 130320, Note_on_c, 9, 36, 0
6, 130320, Note_on_c, 9, 46, 0
6, 130320, Note_on_c, 9, 46, 95
6, 130560, Note_on_c, 9, 46, 0
6, 130560, Note_on_c, 9, 46, 95
6, 130560, Note_on_c, 9, 38, 95
6, 130560, Note_on_c, 9, 37, 95
6, 130800, Note_on_c, 9, 37, 0
6, 130800, Note_on_c, 9, 38, 0
6, 130800, Note_on_c, 9, 46, 0
6, 130800, Note_on_c, 9, 46, 95
6, 131040, Note_on_c, 9, 46, 0
6, 131040, Note_on_c, 9, 46, 95
6, 131040, Note_on_c, 9, 36, 95
6, 131040, Note_on_c, 9, 41, 95
6, 131280, Note_on_c, 9, 41, 0
6, 131280, Note_on_c, 9, 36, 0
6, 131280, Note_on_c, 9, 46, 0
6, 131280, Note_on_c, 9, 46, 95
6, 131520, Note_on_c, 9, 46, 0
6, 131520, Note_on_c, 9, 46, 95
6, 131760, Note_on_c, 9, 46, 0
6, 131760, Note_on_c, 9, 46, 95
6, 131760, Note_on_c, 9, 36, 95
6, 131760, Note_on_c, 9, 41, 95
6, 132000, Note_on_c, 9, 41, 0
6, 132000, Note_on_c, 9, 36, 0
6, 132000, Note_on_c, 9, 46, 0
6, 132000, Note_on_c, 9, 46, 95
6, 132000, Note_on_c, 9, 36, 95
6, 132000, Note_on_c, 9, 41, 95
6, 132240, Note_on_c, 9, 41, 0
6, 132240, Note_on_c, 9, 36, 0
6, 132240, Note_on_c, 9, 46, 0
6, 132240, Note_on_c, 9, 46, 95
6, 132480, Note_on_c, 9, 46, 0
6, 132480, Note_on_c, 9, 46, 95
6, 132480, Note_on_c, 9, 38, 95
6, 132480, Note_on_c, 9, 37, 95
6, 132720, Note_on_c, 9, 37, 0
6, 132720, Note_on_c, 9, 38, 0
6, 132720, Note_on_c, 9, 46, 0
6, 132720, Note_on_c, 9, 46, 95
6, 132960, Note_on_c, 9, 46, 0
6, 132960, Note_on_c, 9, 46, 95
6, 132960, Note_on_c, 9, 36, 95
6, 132960, Note_on_c, 9, 41, 95
6, 133200, Note_on_c, 9, 41, 0
6, 133200, Note_on_c, 9, 36, 0
6, 133200, Note_on_c, 9, 46, 0
6, 133200, Note_on_c, 9, 46, 95
6, 133440, Note_on_c, 9, 46, 0
6, 133440, Note_on_c, 9, 46, 95
6, 133680, Note_on_c, 9, 46, 0
6, 133680, Note_on_c, 9, 46, 95
6, 133680, Note_on_c, 9, 36, 95
6, 133680, Note_on_c, 9, 41, 95
6, 133920, Note_on_c, 9, 41, 0
6, 133920, Note_on_c, 9, 36, 0
6, 133920, Note_on_c, 9, 46, 0
6, 133920, Note_on_c, 9, 46, 95
6, 133920, Note_on_c, 9, 36, 95
6, 133920, Note_on_c, 9, 41, 95
6, 134160, Note_on_c, 9, 41, 0
6, 134160, Note_on_c, 9, 36, 0
6, 134160, Note_on_c, 9, 46, 0
6, 134160, Note_on_c, 9, 46, 95
6, 134400, Note_on_c, 9, 46, 0
6, 134400, Note_on_c, 9, 46, 95
6, 134400, Note_on_c, 9, 38, 95
6, 134400, Note_on_c, 9, 37, 95
6, 134640, Note_on_c, 9, 37, 0
6, 134640, Note_on_c, 9, 38, 0
6, 134640, Note_on_c, 9, 46, 0
6, 134640, Note_on_c, 9, 46, 95
6, 134880, Note_on_c, 9, 46, 0
6, 134880, Note_on_c, 9, 46, 95
6, 134880, Note_on_c, 9, 36, 95
6, 134880, Note_on_c, 9, 41, 95
6, 135120, Note_on_c, 9, 41, 0
6, 135120, Note_on_c, 9, 36, 0
6, 135120, Note_on_c, 9, 46, 0
6, 135120, Note_on_c, 9, 46, 95
6, 135360, Note_on_c, 9, 46, 0
6, 135360, Note_on_c, 9, 46, 95
6, 135600, Note_on_c, 9, 46, 0
6, 135600, Note_on_c, 9, 46, 95
6, 135600, Note_on_c, 9, 36, 95
6, 135600, Note_on_c, 9, 41, 95
6, 135840, Note_on_c, 9, 41, 0
6, 135840, Note_on_c, 9, 36, 0
6, 135840, Note_on_c, 9, 46, 0
6, 135840, Note_on_c, 9, 46, 95
6, 135840, Note_on_c, 9, 36, 95
6, 135840, Note_on_c, 9, 41, 95
6, 136080, Note_on_c, 9, 41, 0
6, 136080, Note_on_c, 9, 36, 0
6, 136080, Note_on_c, 9, 46, 0
6, 136080, Note_on_c, 9, 46, 95
6, 136320, Note_on_c, 9, 46, 0
6, 136320, Note_on_c, 9, 46, 95
6, 136320, Note_on_c, 9, 38, 95
6, 136320, Note_on_c, 9, 37, 95
6, 136560, Note_on_c, 9, 37, 0
6, 136560, Note_on_c, 9, 38, 0
6, 136560, Note_on_c, 9, 46, 0
6, 136560, Note_on_c, 9, 46, 95
6, 136800, Note_on_c, 9, 46, 0
6, 136800, Note_on_c, 9, 46, 95
6, 136800, Note_on_c, 9, 36, 95
6, 136800, Note_on_c, 9, 41, 95
6, 137040, Note_on_c, 9, 41, 0
6, 137040, Note_on_c, 9, 36, 0
6, 137040, Note_on_c, 9, 46, 0
6, 137040, Note_on_c, 9, 46, 95
6, 137280, Note_on_c, 9, 46, 0
6, 137280, Note_on_c, 9, 46, 95
6, 137280, Note_on_c, 9, 38, 95
6, 137520, Note_on_c, 9, 38, 0
6, 137520, Note_on_c, 9, 46, 0
6, 137520, Note_on_c, 9, 46, 95
6, 137520, Note_on_c, 9, 36, 95
6, 137520, Note_on_c, 9, 41, 95
6, 137760, Note_on_c, 9, 41, 0
6, 137760, Note_on_c, 9, 36, 0
6, 137760, Note_on_c, 9, 46, 0
6, 137760, Note_on_c, 9, 46, 95
6, 137880, Note_on_c, 9, 46, 0
6, 137880, Note_on_c, 9, 38, 95
6, 138000, Note_on_c, 9, 38, 0
6, 138000, Note_on_c, 9, 36, 95
6, 138000, Note_on_c, 9, 41, 95
6, 138120, Note_on_c, 9, 41, 0
6, 138120, Note_on_c, 9, 36, 0
6, 138120, Note_on_c, 9, 36, 95
6, 138120, Note_on_c, 9, 41, 95
6, 138240, Note_on_c, 9, 41, 0
6, 138240, Note_on_c, 9, 36, 0
6, 138240, Note_on_c, 9, 36, 95
6, 138240, Note_on_c, 9, 41, 95
6, 138360, Note_on_c, 9, 41, 0
6, 138360, Note_on_c, 9, 36, 0
6, 138360, Note_on_c, 9, 36, 95
6, 138360, Note_on_c, 9, 41, 95
6, 138480, Note_on_c, 9, 41, 0
6, 138480, Note_on_c, 9, 36, 0
6, 138480, Note_on_c, 9, 36, 95
6, 138480, Note_on_c, 9, 41, 95
6, 138600, Note_on_c, 9, 41, 0
6, 138600, Note_on_c, 9, 36, 0
6, 138600, Note_on_c, 9, 36, 95
6, 138600, Note_on_c, 9, 41, 95
6, 138720, Note_on_c, 9, 41, 0
6, 138720, Note_on_c, 9, 36, 0
6, 138720, Note_on_c, 9, 46, 95
6, 138720, Note_on_c, 9, 36, 95
6, 138720, Note_on_c, 9, 41, 95
6, 138960, Note_on_c, 9, 41, 0
6, 138960, Note_on_c, 9, 36, 0
6, 138960, Note_on_c, 9, 46, 0
6, 138960, Note_on_c, 9, 46, 95
6, 139200, Note_on_c, 9, 46, 0
6, 139200, Note_on_c, 9, 46, 95
6, 139200, Note_on_c, 9, 38, 95
6, 139200, Note_on_c, 9, 37, 95
6, 139440, Note_on_c, 9, 37, 0
6, 139440, Note_on_c, 9, 38, 0
6, 139440, Note_on_c, 9, 46, 0
6, 139440, Note_on_c, 9, 46, 95
6, 139440, Note_on_c, 9, 36, 95
6, 139440, Note_on_c, 9, 41, 95
6, 139680, Note_on_c, 9, 41, 0
6, 139680, Note_on_c, 9, 36, 0
6, 139680, Note_on_c, 9, 46, 0
6, 139680, Note_on_c, 9, 46, 95
6, 139680, Note_on_c, 9, 36, 95
6, 139680, Note_on_c, 9, 41, 95
6, 139920, Note_on_c, 9, 41, 0
6, 139920, Note_on_c, 9, 36, 0
6, 139920, Note_on_c, 9, 46, 0
6, 139920, Note_on_c, 9, 46, 95
6, 140160, Note_on_c, 9, 46, 0
6, 140160, Note_on_c, 9, 46, 95
6, 140160, Note_on_c, 9, 38, 95
6, 140160, Note_on_c, 9, 37, 95
6, 140400, Note_on_c, 9, 37, 0
6, 140400, Note_on_c, 9, 38, 0
6, 140400, Note_on_c, 9, 46, 0
6, 140400, Note_on_c, 9, 46, 95
6, 140640, Note_on_c, 9, 46, 0
6, 140640, Note_on_c, 9, 46, 95
6, 140640, Note_on_c, 9, 36, 95
6, 140640, Note_on_c, 9, 41, 95
6, 140880, Note_on_c, 9, 41, 0
6, 140880, Note_on_c, 9, 36, 0
6, 140880, Note_on_c, 9, 46, 0
6, 140880, Note_on_c, 9, 46, 95
6, 141120, Note_on_c, 9, 46, 0
6, 141120, Note_on_c, 9, 46, 95
6, 141120, Note_on_c, 9, 38, 95
6, 141120, Note_on_c, 9, 37, 95
6, 141360, Note_on_c, 9, 37, 0
6, 141360, Note_on_c, 9, 38, 0
6, 141360, Note_on_c, 9, 46, 0
6, 141360, Note_on_c, 9, 46, 95
6, 141360, Note_on_c, 9, 36, 95
6, 141360, Note_on_c, 9, 41, 95
6, 141600, Note_on_c, 9, 41, 0
6, 141600, Note_on_c, 9, 36, 0
6, 141600, Note_on_c, 9, 46, 0
6, 141600, Note_on_c, 9, 46, 95
6, 141600, Note_on_c, 9, 36, 95
6, 141600, Note_on_c, 9, 41, 95
6, 141840, Note_on_c, 9, 41, 0
6, 141840, Note_on_c, 9, 36, 0
6, 141840, Note_on_c, 9, 46, 0
6, 141840, Note_on_c, 9, 46, 95
6, 142080, Note_on_c, 9, 46, 0
6, 142080, Note_on_c, 9, 46, 95
6, 142080, Note_on_c, 9, 38, 95
6, 142080, Note_on_c, 9, 37, 95
6, 142320, Note_on_c, 9, 37, 0
6, 142320, Note_on_c, 9, 38, 0
6, 142320, Note_on_c, 9, 46, 0
6, 142320, Note_on_c, 9, 46, 95
6, 142560, Note_on_c, 9, 46, 0
6, 142560, Note_on_c, 9, 46, 95
6, 142560, Note_on_c, 9, 36, 95
6, 142560, Note_on_c, 9, 41, 95
6, 142800, Note_on_c, 9, 41, 0
6, 142800, Note_on_c, 9, 36, 0
6, 142800, Note_on_c, 9, 46, 0
6, 142800, Note_on_c, 9, 46, 95
6, 143040, Note_on_c, 9, 46, 0
6, 143040, Note_on_c, 9, 46, 95
6, 143040, Note_on_c, 9, 38, 95
6, 143040, Note_on_c, 9, 37, 95
6, 143280, Note_on_c, 9, 37, 0
6, 143280, Note_on_c, 9, 38, 0
6, 143280, Note_on_c, 9, 46, 0
6, 143280, Note_on_c, 9, 46, 95
6, 143280, Note_on_c, 9, 36, 95
6, 143280, Note_on_c, 9, 41, 95
6, 143520, Note_on_c, 9, 41, 0
6, 143520, Note_on_c, 9, 36, 0
6, 143520, Note_on_c, 9, 46, 0
6, 143520, Note_on_c, 9, 46, 95
6, 143520, Note_on_c, 9, 36, 95
6, 143520, Note_on_c, 9, 41, 95
6, 143760, Note_on_c, 9, 41, 0
6, 143760, Note_on_c, 9, 36, 0
6, 143760, Note_on_c, 9, 46, 0
6, 143760, Note_on_c, 9, 46, 95
6, 144000, Note_on_c, 9, 46, 0
6, 144000, Note_on_c, 9, 46, 95
6, 144000, Note_on_c, 9, 38, 95
6, 144000, Note_on_c, 9, 37, 95
6, 144240, Note_on_c, 9, 37, 0
6, 144240, Note_on_c, 9, 38, 0
6, 144240, Note_on_c, 9, 46, 0
6, 144240, Note_on_c, 9, 46, 95
6, 144480, Note_on_c, 9, 46, 0
6, 144480, Note_on_c, 9, 46, 95
6, 144480, Note_on_c, 9, 36, 95
6, 144480, Note_on_c, 9, 41, 95
6, 144720, Note_on_c, 9, 41, 0
6, 144720, Note_on_c, 9, 36, 0
6, 144720, Note_on_c, 9, 46, 0
6, 144720, Note_on_c, 9, 46, 95
6, 144960, Note_on_c, 9, 46, 0
6, 144960, Note_on_c, 9, 46, 95
6, 144960, Note_on_c, 9, 38, 95
6, 144960, Note_on_c, 9, 37, 95
6, 145200, Note_on_c, 9, 37, 0
6, 145200, Note_on_c, 9, 38, 0
6, 145200, Note_on_c, 9, 46, 0
6, 145200, Note_on_c, 9, 46, 95
6, 145200, Note_on_c, 9, 36, 95
6, 145200, Note_on_c, 9, 41, 95
6, 145440, Note_on_c, 9, 41, 0
6, 145440, Note_on_c, 9, 36, 0
6, 145440, Note_on_c, 9, 46, 0
6, 145440, Note_on_c, 9, 46, 95
6, 145440, Note_on_c, 9, 36, 95
6, 145440, Note_on_c, 9, 41, 95
6, 145680, Note_on_c, 9, 41, 0
6, 145680, Note_on_c, 9, 36, 0
6, 145680, Note_on_c, 9, 46, 0
6, 145680, Note_on_c, 9, 46, 95
6, 145920, Note_on_c, 9, 46, 0
6, 145920, Note_on_c, 9, 46, 95
6, 145920, Note_on_c, 9, 38, 95
6, 145920, Note_on_c, 9, 37, 95
6, 146160, Note_on_c, 9, 37, 0
6, 146160, Note_on_c, 9, 38, 0
6, 146160, Note_on_c, 9, 46, 0
6, 146160, Note_on_c, 9, 46, 95
6, 146400, Note_on_c, 9, 46, 0
6, 146400, Note_on_c, 9, 46, 95
6, 146400, Note_on_c, 9, 36, 95
6, 146400, Note_on_c, 9, 41, 95
6, 146640, Note_on_c, 9, 41, 0
6, 146640, Note_on_c, 9, 36, 0
6, 146640, Note_on_c, 9, 46, 0
6, 146640, Note_on_c, 9, 46, 95
6, 146880, Note_on_c, 9, 46, 0
6, 146880, Note_on_c, 9, 46, 95
6, 146880, Note_on_c, 9, 38, 95
6, 146880, Note_on_c, 9, 37, 95
6, 147120, Note_on_c, 9, 37, 0
6, 147120, Note_on_c, 9, 38, 0
6, 147120, Note_on_c, 9, 46, 0
6, 147120, Note_on_c, 9, 46, 95
6, 147120, Note_on_c, 9, 36, 95
6, 147120, Note_on_c, 9, 41, 95
6, 147360, Note_on_c, 9, 41, 0
6, 147360, Note_on_c, 9, 36, 0
6, 147360, Note_on_c, 9, 46, 0
6, 147360, Note_on_c, 9, 46, 95
6, 147360, Note_on_c, 9, 36, 95
6, 147360, Note_on_c, 9, 41, 95
6, 147600, Note_on_c, 9, 41, 0
6, 147600, Note_on_c, 9, 36, 0
6, 147600, Note_on_c, 9, 46, 0
6, 147600, Note_on_c, 9, 46, 95
6, 147840, Note_on_c, 9, 46, 0
6, 147840, Note_on_c, 9, 46, 95
6, 147840, Note_on_c, 9, 38, 95
6, 147840, Note_on_c, 9, 37, 95
6, 148080, Note_on_c, 9, 37, 0
6, 148080, Note_on_c, 9, 38, 0
6, 148080, Note_on_c, 9, 46, 0
6, 148080, Note_on_c, 9, 46, 95
6, 148320, Note_on_c, 9, 46, 0
6, 148320, Note_on_c, 9, 46, 95
6, 148320, Note_on_c, 9, 36, 95
6, 148320, Note_on_c, 9, 41, 95
6, 148560, Note_on_c, 9, 41, 0
6, 148560, Note_on_c, 9, 36, 0
6, 148560, Note_on_c, 9, 46, 0
6, 148560, Note_on_c, 9, 46, 95
6, 148800, Note_on_c, 9, 46, 0
6, 148800, Note_on_c, 9, 46, 95
6, 148800, Note_on_c, 9, 38, 95
6, 148800, Note_on_c, 9, 37, 95
6, 149040, Note_on_c, 9, 37, 0
6, 149040, Note_on_c, 9, 38, 0
6, 149040, Note_on_c, 9, 46, 0
6, 149040, Note_on_c, 9, 46, 95
6, 149040, Note_on_c, 9, 36, 95
6, 149040, Note_on_c, 9, 41, 95
6, 149280, Note_on_c, 9, 41, 0
6, 149280, Note_on_c, 9, 36, 0
6, 149280, Note_on_c, 9, 46, 0
6, 149280, Note_on_c, 9, 46, 95
6, 149280, Note_on_c, 9, 36, 95
6, 149280, Note_on_c, 9, 41, 95
6, 149520, Note_on_c, 9, 41, 0
6, 149520, Note_on_c, 9, 36, 0
6, 149520, Note_on_c, 9, 46, 0
6, 149520, Note_on_c, 9, 46, 95
6, 149760, Note_on_c, 9, 46, 0
6, 149760, Note_on_c, 9, 46, 95
6, 149760, Note_on_c, 9, 38, 95
6, 149760, Note_on_c, 9, 37, 95
6, 150000, Note_on_c, 9, 37, 0
6, 150000, Note_on_c, 9, 38, 0
6, 150000, Note_on_c, 9, 46, 0
6, 150000, Note_on_c, 9, 46, 95
6, 150240, Note_on_c, 9, 46, 0
6, 150240, Note_on_c, 9, 46, 95
6, 150240, Note_on_c, 9, 36, 95
6, 150240, Note_on_c, 9, 41, 95
6, 150480, Note_on_c, 9, 41, 0
6, 150480, Note_on_c, 9, 36, 0
6, 150480, Note_on_c, 9, 46, 0
6, 150480, Note_on_c, 9, 46, 95
6, 150720, Note_on_c, 9, 46, 0
6, 150720, Note_on_c, 9, 46, 95
6, 150720, Note_on_c, 9, 38, 95
6, 150720, Note_on_c, 9, 37, 95
6, 150960, Note_on_c, 9, 37, 0
6, 150960, Note_on_c, 9, 38, 0
6, 150960, Note_on_c, 9, 46, 0
6, 150960, Note_on_c, 9, 46, 95
6, 150960, Note_on_c, 9, 36, 95
6, 150960, Note_on_c, 9, 41, 95
6, 151200, Note_on_c, 9, 41, 0
6, 151200, Note_on_c, 9, 36, 0
6, 151200, Note_on_c, 9, 46, 0
6, 151200, Note_on_c, 9, 46, 95
6, 151200, Note_on_c, 9, 36, 95
6, 151200, Note_on_c, 9, 41, 95
6, 151440, Note_on_c, 9, 41, 0
6, 151440, Note_on_c, 9, 36, 0
6, 151440, Note_on_c, 9, 46, 0
6, 151440, Note_on_c, 9, 46, 95
6, 151680, Note_on_c, 9, 46, 0
6, 151680, Note_on_c, 9, 46, 95
6, 151680, Note_on_c, 9, 38, 95
6, 151680, Note_on_c, 9, 37, 95
6, 151920, Note_on_c, 9, 37, 0
6, 151920, Note_on_c, 9, 38, 0
6, 151920, Note_on_c, 9, 46, 0
6, 151920, Note_on_c, 9, 46, 95
6, 152160, Note_on_c, 9, 46, 0
6, 152160, Note_on_c, 9, 46, 95
6, 152160, Note_on_c, 9, 36, 95
6, 152160, Note_on_c, 9, 41, 95
6, 152400, Note_on_c, 9, 41, 0
6, 152400, Note_on_c, 9, 36, 0
6, 152400, Note_on_c, 9, 46, 0
6, 152400, Note_on_c, 9, 46, 95
6, 152640, Note_on_c, 9, 46, 0
6, 152640, Note_on_c, 9, 46, 95
6, 152640, Note_on_c, 9, 38, 95
6, 152640, Note_on_c, 9, 37, 95
6, 152880, Note_on_c, 9, 37, 0
6, 152880, Note_on_c, 9, 38, 0
6, 152880, Note_on_c, 9, 46, 0
6, 152880, Note_on_c, 9, 46, 95
6, 152880, Note_on_c, 9, 36, 95
6, 152880, Note_on_c, 9, 41, 95
6, 153120, Note_on_c, 9, 41, 0
6, 153120, Note_on_c, 9, 36, 0
6, 153120, Note_on_c, 9, 46, 0
6, 153120, Note_on_c, 9, 46, 95
6, 153120, Note_on_c, 9, 36, 95
6, 153120, Note_on_c, 9, 41, 95
6, 153360, Note_on_c, 9, 41, 0
6, 153360, Note_on_c, 9, 36, 0
6, 153360, Note_on_c, 9, 46, 0
6, 153360, Note_on_c, 9, 46, 95
6, 153600, Note_on_c, 9, 46, 0
6, 153600, Note_on_c, 9, 46, 95
6, 153600, Note_on_c, 9, 38, 95
6, 153600, Note_on_c, 9, 37, 95
6, 153840, Note_on_c, 9, 37, 0
6, 153840, Note_on_c, 9, 38, 0
6, 153840, Note_on_c, 9, 46, 0
6, 153840, Note_on_c, 9, 46, 95
6, 154080, Note_on_c, 9, 46, 0
6, 154080, Note_on_c, 9, 46, 95
6, 154080, Note_on_c, 9, 36, 95
6, 154080, Note_on_c, 9, 41, 95
6, 154320, Note_on_c, 9, 41, 0
6, 154320, Note_on_c, 9, 36, 0
6, 154320, Note_on_c, 9, 46, 0
6, 154320, Note_on_c, 9, 46, 95
6, 154560, Note_on_c, 9, 46, 0
6, 154560, Note_on_c, 9, 46, 95
6, 154560, Note_on_c, 9, 38, 95
6, 154560, Note_on_c, 9, 37, 95
6, 154800, Note_on_c, 9, 37, 0
6, 154800, Note_on_c, 9, 38, 0
6, 154800, Note_on_c, 9, 46, 0
6, 154800, Note_on_c, 9, 46, 95
6, 154800, Note_on_c, 9, 36, 95
6, 154800, Note_on_c, 9, 41, 95
6, 155040, Note_on_c, 9, 41, 0
6, 155040, Note_on_c, 9, 36, 0
6, 155040, Note_on_c, 9, 46, 0
6, 155040, Note_on_c, 9, 46, 95
6, 155040, Note_on_c, 9, 36, 95
6, 155040, Note_on_c, 9, 41, 95
6, 155280, Note_on_c, 9, 41, 0
6, 155280, Note_on_c, 9, 36, 0
6, 155280, Note_on_c, 9, 46, 0
6, 155280, Note_on_c, 9, 46, 95
6, 155520, Note_on_c, 9, 46, 0
6, 155520, Note_on_c, 9, 46, 95
6, 155520, Note_on_c, 9, 38, 95
6, 155520, Note_on_c, 9, 37, 95
6, 155760, Note_on_c, 9, 37, 0
6, 155760, Note_on_c, 9, 38, 0
6, 155760, Note_on_c, 9, 46, 0
6, 155760, Note_on_c, 9, 46, 95
6, 156000, Note_on_c, 9, 46, 0
6, 156000, Note_on_c, 9, 46, 95
6, 156000, Note_on_c, 9, 36, 95
6, 156000, Note_on_c, 9, 41, 95
6, 156240, Note_on_c, 9, 41, 0
6, 156240, Note_on_c, 9, 36, 0
6, 156240, Note_on_c, 9, 46, 0
6, 156240, Note_on_c, 9, 46, 95
6, 156480, Note_on_c, 9, 46, 0
6, 156480, Note_on_c, 9, 46, 95
6, 156480, Note_on_c, 9, 38, 95
6, 156480, Note_on_c, 9, 37, 95
6, 156720, Note_on_c, 9, 37, 0
6, 156720, Note_on_c, 9, 38, 0
6, 156720, Note_on_c, 9, 46, 0
6, 156720, Note_on_c, 9, 46, 95
6, 156720, Note_on_c, 9, 36, 95
6, 156720, Note_on_c, 9, 41, 95
6, 156840, Note_on_c, 9, 41, 0
6, 156840, Note_on_c, 9, 36, 0
6, 156840, Note_on_c, 9, 46, 0
6, 156840, Note_on_c, 9, 46, 95
6, 156840, Note_on_c, 9, 36, 95
6, 156840, Note_on_c, 9, 41, 95
6, 156960, Note_on_c, 9, 41, 0
6, 156960, Note_on_c, 9, 36, 0
6, 156960, Note_on_c, 9, 46, 0
6, 156960, Note_on_c, 9, 38, 95
6, 156960, Note_on_c, 9, 37, 95
6, 157200, Note_on_c, 9, 37, 0
6, 157200, Note_on_c, 9, 38, 0
6, 157200, Note_on_c, 9, 46, 95
6, 157440, Note_on_c, 9, 46, 0
6, 157440, Note_on_c, 9, 46, 95
6, 157440, Note_on_c, 9, 38, 95
6, 157440, Note_on_c, 9, 37, 95
6, 157680, Note_on_c, 9, 37, 0
6, 157680, Note_on_c, 9, 38, 0
6, 157680, Note_on_c, 9, 46, 0
6, 157680, Note_on_c, 9, 46, 95
6, 157680, Note_on_c, 9, 38, 95
6, 157680, Note_on_c, 9, 37, 95
6, 157920, Note_on_c, 9, 37, 0
6, 157920, Note_on_c, 9, 38, 0
6, 157920, Note_on_c, 9, 46, 0
6, 157920, Note_on_c, 9, 46, 95
6, 157920, Note_on_c, 9, 36, 95
6, 157920, Note_on_c, 9, 41, 95
6, 158160, Note_on_c, 9, 41, 0
6, 158160, Note_on_c, 9, 36, 0
6, 158160, Note_on_c, 9, 46, 0
6, 158160, Note_on_c, 9, 46, 95
6, 158400, Note_on_c, 9, 46, 0
6, 158400, Note_on_c, 9, 46, 95
6, 158400, Note_on_c, 9, 38, 95
6, 158400, Note_on_c, 9, 37, 95
6, 158640, Note_on_c, 9, 37, 0
6, 158640, Note_on_c, 9, 38, 0
6, 158640, Note_on_c, 9, 46, 0
6, 158640, Note_on_c, 9, 46, 95
6, 158640, Note_on_c, 9, 36, 95
6, 158640, Note_on_c, 9, 41, 95
6, 158760, Note_on_c, 9, 41, 0
6, 158760, Note_on_c, 9, 36, 0
6, 158760, Note_on_c, 9, 46, 0
6, 158760, Note_on_c, 9, 46, 95
6, 158760, Note_on_c, 9, 36, 95
6, 158760, Note_on_c, 9, 41, 95
6, 158880, Note_on_c, 9, 41, 0
6, 158880, Note_on_c, 9, 36, 0
6, 158880, Note_on_c, 9, 46, 0
6, 158880, Note_on_c, 9, 38, 95
6, 158880, Note_on_c, 9, 37, 95
6, 159120, Note_on_c, 9, 37, 0
6, 159120, Note_on_c, 9, 38, 0
6, 159120, Note_on_c, 9, 46, 95
6, 159360, Note_on_c, 9, 46, 0
6, 159360, Note_on_c, 9, 46, 95
6, 159360, Note_on_c, 9, 38, 95
6, 159360, Note_on_c, 9, 37, 95
6, 159600, Note_on_c, 9, 37, 0
6, 159600, Note_on_c, 9, 38, 0
6, 159600, Note_on_c, 9, 46, 0
6, 159600, Note_on_c, 9, 46, 95
6, 159600, Note_on_c, 9, 38, 95
6, 159600, Note_on_c, 9, 37, 95
6, 159840, Note_on_c, 9, 37, 0
6, 159840, Note_on_c, 9, 38, 0
6, 159840, Note_on_c, 9, 46, 0
6, 159840, Note_on_c, 9, 46, 95
6, 159840, Note_on_c, 9, 36, 95
6, 159840, Note_on_c, 9, 41, 95
6, 160080, Note_on_c, 9, 41, 0
6, 160080, Note_on_c, 9, 36, 0
6, 160080, Note_on_c, 9, 46, 0
6, 160080, Note_on_c, 9, 46, 95
6, 160320, Note_on_c, 9, 46, 0
6, 160320, Note_on_c, 9, 46, 95
6, 160320, Note_on_c, 9, 38, 95
6, 160320, Note_on_c, 9, 37, 95
6, 160560, Note_on_c, 9, 37, 0
6, 160560, Note_on_c, 9, 38, 0
6, 160560, Note_on_c, 9, 46, 0
6, 160560, Note_on_c, 9, 46, 95
6, 160560, Note_on_c, 9, 36, 95
6, 160560, Note_on_c, 9, 41, 95
6, 160800, Note_on_c, 9, 41, 0
6, 160800, Note_on_c, 9, 36, 0
6, 160800, Note_on_c, 9, 46, 0
6, 160800, Note_on_c, 9, 55, 95
6, 160800, Note_on_c, 9, 38, 95
6, 160800, Note_on_c, 9, 37, 95
6, 161040, Note_on_c, 9, 37, 0
6, 161040, Note_on_c, 9, 38, 0
6, 161040, Note_on_c, 9, 55, 0
6, 161040, Note_on_c, 9, 46, 95
6, 161040, Note_on_c, 9, 36, 95
6, 161040, Note_on_c, 9, 41, 95
6, 161280, Note_on_c, 9, 41, 0
6, 161280, Note_on_c, 9, 36, 0
6, 161280, Note_on_c, 9, 46, 0
6, 161280, Note_on_c, 9, 49, 95
6, 161280, Note_on_c, 9, 38, 95
6, 161280, Note_on_c, 9, 37, 95
6, 161520, Note_on_c, 9, 37, 0
6, 161520, Note_on_c, 9, 38, 0
6, 161520, Note_on_c, 9, 49, 0
6, 161520, Note_on_c, 9, 46, 95
6, 161520, Note_on_c, 9, 36, 95
6, 161520, Note_on_c, 9, 41, 95
6, 161760, Note_on_c, 9, 41, 0
6, 161760, Note_on_c, 9, 36, 0
6, 161760, Note_on_c, 9, 46, 0
6, 161760, Note_on_c, 9, 55, 95
6, 161760, Note_on_c, 9, 38, 95
6, 161760, Note_on_c, 9, 37, 95
6, 163680, Note_on_c, 9, 37, 0
6, 163680, Note_on_c, 9, 38, 0
6, 163680, Note_on_c, 9, 55, 0
6, 163680, End_track
0, 0, End_of_file
