0, 0, Header, 1, 6, 960
1, 0, Start_track
1, 0, Control_c, 0, 101, 0
1, 0, Control_c, 0, 100, 0
1, 0, Control_c, 0, 6, 12
1, 0, Control_c, 0, 38, 0
1, 0, Control_c, 1, 101, 0
1, 0, Control_c, 1, 100, 0
1, 0, Control_c, 1, 6, 12
1, 0, Control_c, 1, 38, 0
1, 0, Control_c, 2, 101, 0
1, 0, Control_c, 2, 100, 0
1, 0, Control_c, 2, 6, 12
1, 0, Control_c, 2, 38, 0
1, 0, Control_c, 3, 101, 0
1, 0, Control_c, 3, 100, 0
1, 0, Control_c, 3, 6, 12
1, 0, Control_c, 3, 38, 0
1, 0, Control_c, 4, 101, 0
1, 0, Control_c, 4, 100, 0
1, 0, Control_c, 4, 6, 12
1, 0, Control_c, 4, 38, 0
1, 0, Control_c, 5, 101, 0
1, 0, Control_c, 5, 100, 0
1, 0, Control_c, 5, 6, 12
1, 0, Control_c, 5, 38, 0
1, 0, Control_c, 6, 101, 0
1, 0, Control_c, 6, 100, 0
1, 0, Control_c, 6, 6, 12
1, 0, Control_c, 6, 38, 0
1, 0, Control_c, 7, 101, 0
1, 0, Control_c, 7, 100, 0
1, 0, Control_c, 7, 6, 12
1, 0, Control_c, 7, 38, 0
1, 0, Control_c, 8, 101, 0
1, 0, Control_c, 8, 100, 0
1, 0, Control_c, 8, 6, 12
1, 0, Control_c, 8, 38, 0
1, 0, Control_c, 9, 101, 0
1, 0, Control_c, 9, 100, 0
1, 0, Control_c, 9, 6, 12
1, 0, Control_c, 9, 38, 0
1, 0, Control_c, 10, 101, 0
1, 0, Control_c, 10, 100, 0
1, 0, Control_c, 10, 6, 12
1, 0, Control_c, 10, 38, 0
1, 0, Control_c, 11, 101, 0
1, 0, Control_c, 11, 100, 0
1, 0, Control_c, 11, 6, 12
1, 0, Control_c, 11, 38, 0
1, 0, Control_c, 12, 101, 0
1, 0, Control_c, 12, 100, 0
1, 0, Control_c, 12, 6, 12
1, 0, Control_c, 12, 38, 0
1, 0, Control_c, 13, 101, 0
1, 0, Control_c, 13, 100, 0
1, 0, Control_c, 13, 6, 12
1, 0, Control_c, 13, 38, 0
1, 0, Control_c, 14, 101, 0
1, 0, Control_c, 14, 100, 0
1, 0, Control_c, 14, 6, 12
1, 0, Control_c, 14, 38, 0
1, 0, Control_c, 15, 101, 0
1, 0, Control_c, 15, 100, 0
1, 0, Control_c, 15, 6, 12
1, 0, Control_c, 15, 38, 0
1, 0, Time_signature, 4, 2, 24, 8
1, 0, Tempo, 454545
1, 948480, Time_signature, 7, 3, 12, 8
1, 951840, Time_signature, 4, 2, 24, 8
1, 951840, End_track
2, 0, Start_track
2, 0, Pitch_bend_c, 0, 8192
2, 0, Control_c, 0, 7, 127
2, 0, Control_c, 0, 10, 63
2, 0, Control_c, 0, 93, 0
2, 0, Control_c, 0, 91, 0
2, 0, Control_c, 0, 95, 0
2, 0, Control_c, 0, 92, 0
2, 0, Control_c, 0, 11, 127
2, 0, Program_c, 0, 30
2, 0, Control_c, 1, 7, 127
2, 0, Control_c, 1, 10, 63
2, 0, Control_c, 1, 93, 0
2, 0, Control_c, 1, 91, 0
2, 0, Control_c, 1, 95, 0
2, 0, Control_c, 1, 92, 0
2, 0, Control_c, 1, 11, 127
2, 0, Program_c, 1, 30
2, 89280, Note_on_c, 0, 47, 95
2, 89760, Note_off_c, 0, 47, 95
2, 89760, Note_on_c, 0, 46, 95
2, 90240, Note_off_c, 0, 46, 95
2, 90240, Note_on_c, 0, 47, 95
2, 90720, Note_off_c, 0, 47, 95
2, 90720, Note_on_c, 0, 49, 95
2, 91200, Note_off_c, 0, 49, 95
2, 91200, Note_on_c, 0, 47, 95
2, 91680, Note_off_c, 0, 47, 95
2, 91680, Note_on_c, 0, 46, 95
2, 92160, Note_off_c, 0, 46, 95
2, 92160, Note_on_c, 0, 44, 95
2, 93120, Note_off_c, 0, 44, 95
2, 93120, Note_on_c, 0, 59, 95
2, 93600, Note_off_c, 0, 59, 95
2, 93600, Note_on_c, 0, 54, 95
2, 94080, Note_off_c, 0, 54, 95
2, 94080, Note_on_c, 0, 56, 70
2, 94560, Note_off_c, 0, 56, 70
2, 94560, Note_on_c, 0, 59, 95
2, 95040, Note_off_c, 0, 59, 95
2, 95040, Note_on_c, 0, 66, 95
2, 95520, Note_off_c, 0, 66, 95
2, 95520, Note_on_c, 0, 68, 95
2, 95520, Note_on_c, 0, 63, 95
2, 96960, Note_off_c, 0, 68, 95
2, 96960, Note_off_c, 0, 63, 95
2, 96960, Note_on_c, 0, 63, 95
2, 96960, Note_on_c, 0, 59, 95
2, 97440, Note_off_c, 0, 63, 95
2, 97440, Note_off_c, 0, 59, 95
2, 97440, Note_on_c, 0, 54, 95
2, 97920, Note_off_c, 0, 54, 95
2, 97920, Note_on_c, 0, 56, 70
2, 98400, Note_off_c, 0, 56, 70
2, 98400, Note_on_c, 0, 59, 95
2, 98880, Note_off_c, 0, 59, 95
2, 98880, Note_on_c, 0, 68, 95
2, 99360, Note_off_c, 0, 68, 95
2, 99360, Note_on_c, 0, 66, 95
2, 99840, Note_off_c, 0, 66, 95
2, 99840, Note_on_c, 0, 68, 95
2, 100800, Note_off_c, 0, 68, 95
2, 100800, Note_on_c, 0, 66, 95
2, 101520, Note_off_c, 0, 66, 95
2, 101520, Note_on_c, 0, 63, 95
2, 101760, Note_off_c, 0, 63, 95
2, 101760, Note_on_c, 0, 66, 95
2, 102240, Note_off_c, 0, 66, 95
2, 102240, Note_on_c, 0, 63, 95
2, 102720, Note_off_c, 0, 63, 95
2, 102720, Note_on_c, 0, 61, 95
2, 103200, Note_off_c, 0, 61, 95
2, 103200, Note_on_c, 0, 59, 95
2, 103200, Note_on_c, 0, 54, 95
2, 103680, Note_off_c, 0, 59, 95
2, 103680, Note_off_c, 0, 54, 95
2, 103680, Note_on_c, 0, 47, 95
2, 104640, Note_off_c, 0, 47, 95
2, 104640, Note_on_c, 0, 59, 95
2, 104640, Note_on_c, 0, 54, 95
2, 104640, Note_on_c, 0, 47, 95
2, 105360, Note_off_c, 0, 59, 95
2, 105360, Note_off_c, 0, 54, 95
2, 105360, Note_off_c, 0, 47, 95
2, 105360, Note_on_c, 0, 59, 95
2, 105360, Note_on_c, 0, 54, 95
2, 105840, Note_off_c, 0, 59, 95
2, 105840, Note_off_c, 0, 54, 95
2, 105840, Note_on_c, 0, 56, 95
2, 106320, Note_off_c, 0, 56, 95
2, 106320, Note_on_c, 0, 59, 95
2, 106800, Note_off_c, 0, 59, 95
2, 106800, Note_on_c, 0, 56, 95
2, 107040, Note_off_c, 0, 56, 95
2, 107040, Note_on_c, 0, 54, 70
2, 107280, Note_off_c, 0, 54, 70
2, 107280, Note_on_c, 0, 56, 95
2, 107520, Note_off_c, 0, 56, 95
2, 107520, Note_on_c, 0, 44, 95
2, 108480, Note_off_c, 0, 44, 95
2, 108480, Note_on_c, 0, 59, 95
2, 108480, Note_on_c, 0, 56, 95
2, 108480, Note_on_c, 0, 51, 95
2, 109440, Note_off_c, 0, 59, 95
2, 109440, Note_off_c, 0, 56, 95
2, 109440, Note_off_c, 0, 51, 95
2, 109440, Note_on_c, 1, 46, 95
2, 109560, Pitch_bend_c, 1, 8448
2, 109680, Pitch_bend_c, 1, 8832
2, 109680, Pitch_bend_c, 1, 8192
2, 109680, Note_off_c, 1, 46, 95
2, 109680, Note_on_c, 0, 47, 95
2, 109920, Note_off_c, 0, 47, 95
2, 109920, Note_on_c, 0, 49, 95
2, 110400, Note_off_c, 0, 49, 95
2, 110400, Note_on_c, 0, 51, 95
2, 110880, Note_off_c, 0, 51, 95
2, 110880, Note_on_c, 0, 54, 95
2, 111360, Note_off_c, 0, 54, 95
2, 111360, Note_on_c, 0, 56, 70
2, 112320, Note_off_c, 0, 56, 70
2, 112320, Note_on_c, 0, 59, 95
2, 113040, Note_off_c, 0, 59, 95
2, 113040, Note_on_c, 1, 61, 95
2, 113160, Pitch_bend_c, 1, 8832
2, 113280, Pitch_bend_c, 1, 9600
2, 113280, Pitch_bend_c, 1, 8192
2, 113280, Note_off_c, 1, 61, 95
2, 113280, Note_on_c, 0, 63, 95
2, 113760, Note_off_c, 0, 63, 95
2, 113760, Note_on_c, 0, 66, 95
2, 114240, Note_off_c, 0, 66, 95
2, 114240, Note_on_c, 0, 68, 95
2, 114720, Note_off_c, 0, 68, 95
2, 114720, Note_on_c, 0, 63, 95
2, 115200, Note_off_c, 0, 63, 95
2, 115200, Note_on_c, 0, 56, 95
2, 116160, Note_off_c, 0, 56, 95
2, 116160, Note_on_c, 0, 54, 95
2, 116640, Note_off_c, 0, 54, 95
2, 116640, Note_on_c, 0, 51, 95
2, 117120, Note_off_c, 0, 51, 95
2, 117120, Note_on_c, 0, 54, 95
2, 117600, Note_off_c, 0, 54, 95
2, 117600, Note_on_c, 0, 51, 95
2, 118080, Note_off_c, 0, 51, 95
2, 118080, Note_on_c, 0, 49, 95
2, 118560, Note_off_c, 0, 49, 95
2, 118560, Note_on_c, 0, 47, 95
2, 119040, Note_off_c, 0, 47, 95
2, 119040, Note_on_c, 0, 54, 95
2, 120000, Note_off_c, 0, 54, 95
2, 120000, Note_on_c, 0, 66, 95
2, 120000, Note_on_c, 0, 61, 95
2, 120000, Note_on_c, 0, 58, 95
2, 120000, Note_on_c, 0, 54, 95
2, 120720, Note_off_c, 0, 66, 95
2, 120720, Note_off_c, 0, 61, 95
2, 120720, Note_off_c, 0, 58, 95
2, 120720, Note_off_c, 0, 54, 95
2, 120720, Note_on_c, 0, 66, 95
2, 120720, Note_on_c, 0, 61, 95
2, 120720, Note_on_c, 0, 58, 95
2, 120960, Note_off_c, 0, 66, 95
2, 120960, Note_off_c, 0, 61, 95
2, 120960, Note_off_c, 0, 58, 95
2, 120960, Note_on_c, 0, 66, 95
2, 120960, Note_on_c, 0, 61, 95
2, 120960, Note_on_c, 0, 58, 95
2, 121440, Note_off_c, 0, 66, 95
2, 121440, Note_off_c, 0, 61, 95
2, 121440, Note_off_c, 0, 58, 95
2, 121440, Note_on_c, 0, 66, 95
2, 121440, Note_on_c, 0, 61, 95
2, 121440, Note_on_c, 0, 58, 95
2, 121920, Note_off_c, 0, 66, 95
2, 121920, Note_off_c, 0, 61, 95
2, 121920, Note_off_c, 0, 58, 95
2, 121920, Note_on_c, 0, 61, 95
2, 121920, Note_on_c, 0, 58, 95
2, 122400, Note_off_c, 0, 61, 95
2, 122400, Note_off_c, 0, 58, 95
2, 122400, Note_on_c, 0, 66, 95
2, 122400, Note_on_c, 0, 61, 95
2, 122400, Note_on_c, 0, 58, 95
2, 122880, Note_off_c, 0, 66, 95
2, 122880, Note_off_c, 0, 61, 95
2, 122880, Note_off_c, 0, 58, 95
2, 123360, Note_on_c, 0, 40, 95
2, 123840, Note_off_c, 0, 40, 95
2, 123840, Note_on_c, 0, 40, 95
2, 124320, Note_off_c, 0, 40, 95
2, 124320, Note_on_c, 0, 39, 95
2, 124800, Note_off_c, 0, 39, 95
2, 124800, Note_on_c, 0, 40, 95
2, 125280, Note_off_c, 0, 40, 95
2, 125280, Note_on_c, 0, 39, 95
2, 125760, Note_off_c, 0, 39, 95
2, 125760, Note_on_c, 0, 40, 95
2, 126240, Note_off_c, 0, 40, 95
2, 126240, Note_on_c, 0, 39, 95
2, 126720, Note_off_c, 0, 39, 95
2, 126720, Note_on_c, 0, 47, 95
2, 127680, Note_off_c, 0, 47, 95
2, 127680, Note_on_c, 0, 66, 95
2, 127680, Note_on_c, 0, 63, 95
2, 127680, Note_on_c, 0, 59, 95
2, 128160, Note_off_c, 0, 66, 95
2, 128160, Note_off_c, 0, 63, 95
2, 128160, Note_off_c, 0, 59, 95
2, 128160, Note_on_c, 0, 47, 95
2, 128640, Note_off_c, 0, 47, 95
2, 128640, Note_on_c, 0, 64, 95
2, 128640, Note_on_c, 0, 59, 95
2, 129120, Note_off_c, 0, 64, 95
2, 129120, Note_off_c, 0, 59, 95
2, 129120, Note_on_c, 0, 63, 70
2, 129600, Note_off_c, 0, 63, 70
2, 129600, Note_on_c, 0, 59, 95
2, 130080, Note_off_c, 0, 59, 95
2, 130080, Note_on_c, 0, 54, 95
2, 131520, Note_off_c, 0, 54, 95
2, 131520, Note_on_c, 0, 66, 95
2, 131520, Note_on_c, 0, 63, 95
2, 132000, Note_off_c, 0, 66, 95
2, 132000, Note_off_c, 0, 63, 95
2, 132000, Note_on_c, 0, 54, 95
2, 132480, Note_off_c, 0, 54, 95
2, 132480, Note_on_c, 0, 64, 95
2, 132480, Note_on_c, 0, 59, 95
2, 132960, Note_off_c, 0, 64, 95
2, 132960, Note_off_c, 0, 59, 95
2, 132960, Note_on_c, 0, 63, 70
2, 133440, Note_off_c, 0, 63, 70
2, 133440, Note_on_c, 0, 64, 95
2, 133440, Note_on_c, 0, 59, 95
2, 133920, Note_off_c, 0, 64, 95
2, 133920, Note_off_c, 0, 59, 95
2, 133920, Note_on_c, 0, 59, 95
2, 135360, Note_off_c, 0, 59, 95
2, 135360, Note_on_c, 0, 66, 95
2, 135360, Note_on_c, 0, 63, 95
2, 135840, Note_off_c, 0, 66, 95
2, 135840, Note_off_c, 0, 63, 95
2, 135840, Note_on_c, 0, 54, 95
2, 136320, Note_off_c, 0, 54, 95
2, 136320, Note_on_c, 0, 64, 95
2, 136320, Note_on_c, 0, 59, 95
2, 136800, Note_off_c, 0, 64, 95
2, 136800, Note_off_c, 0, 59, 95
2, 136800, Note_on_c, 0, 63, 70
2, 137280, Note_off_c, 0, 63, 70
2, 137280, Note_on_c, 0, 64, 95
2, 137280, Note_on_c, 0, 59, 95
2, 137760, Note_off_c, 0, 64, 95
2, 137760, Note_off_c, 0, 59, 95
2, 137760, Note_on_c, 0, 59, 95
2, 138240, Note_off_c, 0, 59, 95
2, 138240, Note_on_c, 0, 61, 95
2, 139200, Note_off_c, 0, 61, 95
2, 139200, Note_on_c, 0, 69, 95
2, 139200, Note_on_c, 0, 64, 95
2, 139680, Note_off_c, 0, 69, 95
2, 139680, Note_off_c, 0, 64, 95
2, 139680, Note_on_c, 0, 61, 95
2, 140160, Note_off_c, 0, 61, 95
2, 140160, Note_on_c, 0, 59, 95
2, 140400, Note_off_c, 0, 59, 95
2, 140400, Note_on_c, 0, 61, 70
2, 140640, Note_off_c, 0, 61, 70
2, 140640, Note_on_c, 0, 64, 95
2, 141120, Note_off_c, 0, 64, 95
2, 141120, Note_on_c, 0, 59, 95
2, 141600, Note_off_c, 0, 59, 95
2, 141600, Note_on_c, 0, 64, 95
2, 142080, Note_off_c, 0, 64, 95
2, 142080, Note_on_c, 0, 52, 95
2, 143040, Note_off_c, 0, 52, 95
2, 143040, Note_on_c, 0, 64, 95
2, 143040, Note_on_c, 0, 59, 95
2, 143040, Note_on_c, 0, 56, 95
2, 143040, Note_on_c, 0, 52, 95
2, 143520, Note_off_c, 0, 64, 95
2, 143520, Note_off_c, 0, 59, 95
2, 143520, Note_off_c, 0, 56, 95
2, 143520, Note_off_c, 0, 52, 95
2, 143520, Note_on_c, 0, 52, 95
2, 144000, Note_off_c, 0, 52, 95
2, 144000, Note_on_c, 0, 54, 95
2, 144480, Note_off_c, 0, 54, 95
2, 144480, Note_on_c, 0, 52, 95
2, 144960, Note_off_c, 0, 52, 95
2, 144960, Note_on_c, 0, 54, 95
2, 145440, Note_off_c, 0, 54, 95
2, 145440, Note_on_c, 0, 52, 95
2, 145920, Note_off_c, 0, 52, 95
2, 145920, Note_on_c, 0, 47, 95
2, 146880, Note_off_c, 0, 47, 95
2, 146880, Note_on_c, 0, 63, 95
2, 146880, Note_on_c, 0, 59, 95
2, 146880, Note_on_c, 0, 54, 95
2, 147360, Note_off_c, 0, 63, 95
2, 147360, Note_off_c, 0, 59, 95
2, 147360, Note_off_c, 0, 54, 95
2, 147360, Note_on_c, 0, 54, 95
2, 147840, Note_off_c, 0, 54, 95
2, 147840, Note_on_c, 0, 64, 95
2, 148320, Note_off_c, 0, 64, 95
2, 148320, Note_on_c, 0, 63, 70
2, 148800, Note_off_c, 0, 63, 70
2, 148800, Note_on_c, 0, 59, 95
2, 149280, Note_off_c, 0, 59, 95
2, 149280, Note_on_c, 0, 54, 95
2, 151200, Note_off_c, 0, 54, 95
2, 151200, Note_on_c, 1, 64, 95
2, 151320, Pitch_bend_c, 1, 8448
2, 151440, Pitch_bend_c, 1, 8832
2, 151560, Pitch_bend_c, 1, 9216
2, 151680, Pitch_bend_c, 1, 9600
2, 151680, Pitch_bend_c, 1, 8192
2, 151680, Note_off_c, 1, 64, 95
2, 151680, Note_on_c, 0, 66, 95
2, 152160, Note_off_c, 0, 66, 95
2, 152160, Note_on_c, 0, 69, 95
2, 152640, Note_off_c, 0, 69, 95
2, 152640, Note_on_c, 0, 66, 95
2, 153120, Note_off_c, 0, 66, 95
2, 153120, Note_on_c, 0, 64, 70
2, 153600, Note_off_c, 0, 64, 70
2, 153600, Note_on_c, 0, 47, 95
2, 154560, Note_off_c, 0, 47, 95
2, 154560, Note_on_c, 0, 63, 95
2, 154560, Note_on_c, 0, 59, 95
2, 154560, Note_on_c, 0, 54, 95
2, 155040, Note_off_c, 0, 63, 95
2, 155040, Note_off_c, 0, 59, 95
2, 155040, Note_off_c, 0, 54, 95
2, 155040, Note_on_c, 0, 54, 95
2, 155520, Note_off_c, 0, 54, 95
2, 155520, Note_on_c, 0, 64, 95
2, 156000, Note_off_c, 0, 64, 95
2, 156000, Note_on_c, 0, 63, 70
2, 156480, Note_off_c, 0, 63, 70
2, 156480, Note_on_c, 0, 59, 95
2, 156960, Note_off_c, 0, 59, 95
2, 156960, Note_on_c, 0, 54, 95
2, 158400, Note_off_c, 0, 54, 95
2, 158400, Note_on_c, 0, 63, 95
2, 158400, Note_on_c, 0, 59, 95
2, 158400, Note_on_c, 0, 54, 95
2, 158880, Note_off_c, 0, 63, 95
2, 158880, Note_off_c, 0, 59, 95
2, 158880, Note_off_c, 0, 54, 95
2, 158880, Note_on_c, 0, 54, 95
2, 159360, Note_off_c, 0, 54, 95
2, 159360, Note_on_c, 0, 64, 95
2, 159840, Note_off_c, 0, 64, 95
2, 159840, Note_on_c, 0, 63, 70
2, 160320, Note_off_c, 0, 63, 70
2, 160320, Note_on_c, 0, 59, 95
2, 160800, Note_off_c, 0, 59, 95
2, 160800, Note_on_c, 0, 54, 95
2, 162240, Note_off_c, 0, 54, 95
2, 162240, Note_on_c, 0, 66, 95
2, 162240, Note_on_c, 0, 59, 95
2, 162240, Note_on_c, 0, 54, 95
2, 162720, Note_off_c, 0, 66, 95
2, 162720, Note_off_c, 0, 59, 95
2, 162720, Note_off_c, 0, 54, 95
2, 162720, Note_on_c, 0, 59, 95
2, 163200, Note_off_c, 0, 59, 95
2, 163200, Note_on_c, 0, 64, 95
2, 163680, Note_off_c, 0, 64, 95
2, 163680, Note_on_c, 0, 63, 70
2, 164160, Note_off_c, 0, 63, 70
2, 164160, Note_on_c, 0, 59, 95
2, 165120, Note_off_c, 0, 59, 95
2, 165120, Note_on_c, 0, 61, 95
2, 166080, Note_off_c, 0, 61, 95
2, 166080, Note_on_c, 0, 69, 95
2, 166560, Note_off_c, 0, 69, 95
2, 166560, Note_on_c, 0, 64, 95
2, 167040, Note_off_c, 0, 64, 95
2, 167040, Note_on_c, 0, 64, 95
2, 167040, Note_on_c, 0, 61, 95
2, 167520, Note_off_c, 0, 64, 95
2, 167520, Note_off_c, 0, 61, 95
2, 167520, Note_on_c, 0, 64, 95
2, 167520, Note_on_c, 0, 59, 95
2, 168000, Note_off_c, 0, 64, 95
2, 168000, Note_off_c, 0, 59, 95
2, 168000, Note_on_c, 0, 57, 95
2, 168480, Note_off_c, 0, 57, 95
2, 168480, Note_on_c, 0, 64, 95
2, 168480, Note_on_c, 0, 59, 95
2, 168480, Note_on_c, 0, 56, 95
2, 169920, Note_off_c, 0, 64, 95
2, 169920, Note_off_c, 0, 59, 95
2, 169920, Note_off_c, 0, 56, 95
2, 169920, Note_on_c, 1, 64, 95
2, 169920, Note_on_c, 1, 59, 95
2, 169920, Note_on_c, 1, 56, 95
2, 170040, Pitch_bend_c, 1, 8192
2, 170160, Pitch_bend_c, 1, 8192
2, 170280, Pitch_bend_c, 1, 8192
2, 170400, Pitch_bend_c, 1, 8192
2, 170520, Pitch_bend_c, 1, 8192
2, 170640, Pitch_bend_c, 1, 8192
2, 170760, Pitch_bend_c, 1, 8192
2, 170880, Note_off_c, 1, 64, 95
2, 170880, Note_off_c, 1, 59, 95
2, 170880, Pitch_bend_c, 1, 8192
2, 170880, Pitch_bend_c, 1, 8192
2, 170880, Note_off_c, 1, 56, 95
2, 170880, Note_on_c, 0, 56, 95
2, 171360, Note_off_c, 0, 56, 95
2, 171360, Note_on_c, 0, 54, 95
2, 171840, Note_off_c, 0, 54, 95
2, 171840, Note_on_c, 0, 56, 95
2, 172320, Note_off_c, 0, 56, 95
2, 172320, Note_on_c, 0, 54, 95
2, 172800, Note_off_c, 0, 54, 95
2, 172800, Note_on_c, 0, 47, 95
2, 173760, Note_off_c, 0, 47, 95
2, 173760, Note_on_c, 0, 63, 95
2, 173760, Note_on_c, 0, 59, 95
2, 173760, Note_on_c, 0, 54, 95
2, 174240, Note_off_c, 0, 63, 95
2, 174240, Note_off_c, 0, 59, 95
2, 174240, Note_off_c, 0, 54, 95
2, 174240, Note_on_c, 0, 59, 95
2, 174720, Note_off_c, 0, 59, 95
2, 174720, Note_on_c, 0, 64, 95
2, 175200, Note_off_c, 0, 64, 95
2, 175200, Note_on_c, 0, 63, 95
2, 175680, Note_off_c, 0, 63, 95
2, 175680, Note_on_c, 0, 59, 95
2, 176160, Note_off_c, 0, 59, 95
2, 176160, Note_on_c, 0, 54, 95
2, 177600, Note_off_c, 0, 54, 95
2, 177600, Note_on_c, 0, 47, 95
2, 178080, Note_off_c, 0, 47, 95
2, 178080, Note_on_c, 0, 46, 95
2, 178560, Note_off_c, 0, 46, 95
2, 178560, Note_on_c, 0, 47, 95
2, 179040, Note_off_c, 0, 47, 95
2, 179040, Note_on_c, 0, 49, 95
2, 179520, Note_off_c, 0, 49, 95
2, 179520, Note_on_c, 0, 47, 95
2, 180000, Note_off_c, 0, 47, 95
2, 180000, Note_on_c, 0, 46, 95
2, 180480, Note_off_c, 0, 46, 95
2, 180480, Note_on_c, 0, 44, 95
2, 181440, Note_off_c, 0, 44, 95
2, 181440, Note_on_c, 0, 59, 95
2, 181920, Note_off_c, 0, 59, 95
2, 181920, Note_on_c, 0, 54, 95
2, 182400, Note_off_c, 0, 54, 95
2, 182400, Note_on_c, 0, 56, 70
2, 182880, Note_off_c, 0, 56, 70
2, 182880, Note_on_c, 0, 59, 95
2, 183360, Note_off_c, 0, 59, 95
2, 183360, Note_on_c, 0, 66, 95
2, 183840, Note_off_c, 0, 66, 95
2, 183840, Note_on_c, 0, 68, 95
2, 183840, Note_on_c, 0, 63, 95
2, 185280, Note_off_c, 0, 68, 95
2, 185280, Note_off_c, 0, 63, 95
2, 185280, Note_on_c, 0, 63, 95
2, 185280, Note_on_c, 0, 59, 95
2, 185760, Note_off_c, 0, 63, 95
2, 185760, Note_off_c, 0, 59, 95
2, 185760, Note_on_c, 0, 54, 95
2, 186240, Note_off_c, 0, 54, 95
2, 186240, Note_on_c, 0, 56, 70
2, 186720, Note_off_c, 0, 56, 70
2, 186720, Note_on_c, 0, 59, 95
2, 187200, Note_off_c, 0, 59, 95
2, 187200, Note_on_c, 0, 68, 95
2, 187680, Note_off_c, 0, 68, 95
2, 187680, Note_on_c, 0, 66, 95
2, 188160, Note_off_c, 0, 66, 95
2, 188160, Note_on_c, 0, 68, 95
2, 189120, Note_off_c, 0, 68, 95
2, 189120, Note_on_c, 0, 66, 95
2, 189840, Note_off_c, 0, 66, 95
2, 189840, Note_on_c, 0, 63, 95
2, 190080, Note_off_c, 0, 63, 95
2, 190080, Note_on_c, 0, 66, 95
2, 190560, Note_off_c, 0, 66, 95
2, 190560, Note_on_c, 0, 63, 95
2, 191040, Note_off_c, 0, 63, 95
2, 191040, Note_on_c, 0, 61, 95
2, 191520, Note_off_c, 0, 61, 95
2, 191520, Note_on_c, 0, 59, 95
2, 191520, Note_on_c, 0, 54, 95
2, 192000, Note_off_c, 0, 59, 95
2, 192000, Note_off_c, 0, 54, 95
2, 192000, Note_on_c, 0, 47, 95
2, 192960, Note_off_c, 0, 47, 95
2, 192960, Note_on_c, 0, 59, 95
2, 192960, Note_on_c, 0, 54, 95
2, 192960, Note_on_c, 0, 47, 95
2, 193680, Note_off_c, 0, 59, 95
2, 193680, Note_off_c, 0, 54, 95
2, 193680, Note_off_c, 0, 47, 95
2, 193680, Note_on_c, 0, 59, 95
2, 193680, Note_on_c, 0, 54, 95
2, 194160, Note_off_c, 0, 59, 95
2, 194160, Note_off_c, 0, 54, 95
2, 194160, Note_on_c, 0, 56, 95
2, 194640, Note_off_c, 0, 56, 95
2, 194640, Note_on_c, 0, 59, 95
2, 195120, Note_off_c, 0, 59, 95
2, 195120, Note_on_c, 0, 56, 95
2, 195360, Note_off_c, 0, 56, 95
2, 195360, Note_on_c, 0, 54, 70
2, 195600, Note_off_c, 0, 54, 70
2, 195600, Note_on_c, 0, 56, 95
2, 195840, Note_off_c, 0, 56, 95
2, 195840, Note_on_c, 0, 44, 95
2, 196800, Note_off_c, 0, 44, 95
2, 196800, Note_on_c, 0, 59, 95
2, 196800, Note_on_c, 0, 56, 95
2, 196800, Note_on_c, 0, 51, 95
2, 197760, Note_off_c, 0, 59, 95
2, 197760, Note_off_c, 0, 56, 95
2, 197760, Note_off_c, 0, 51, 95
2, 197760, Note_on_c, 1, 46, 95
2, 197880, Pitch_bend_c, 1, 8448
2, 198000, Pitch_bend_c, 1, 8832
2, 198000, Pitch_bend_c, 1, 8192
2, 198000, Note_off_c, 1, 46, 95
2, 198000, Note_on_c, 0, 47, 95
2, 198240, Note_off_c, 0, 47, 95
2, 198240, Note_on_c, 0, 49, 95
2, 198720, Note_off_c, 0, 49, 95
2, 198720, Note_on_c, 0, 51, 95
2, 199200, Note_off_c, 0, 51, 95
2, 199200, Note_on_c, 0, 54, 95
2, 199680, Note_off_c, 0, 54, 95
2, 199680, Note_on_c, 0, 56, 70
2, 200640, Note_off_c, 0, 56, 70
2, 200640, Note_on_c, 0, 59, 95
2, 201360, Note_off_c, 0, 59, 95
2, 201360, Note_on_c, 1, 61, 95
2, 201480, Pitch_bend_c, 1, 8832
2, 201600, Pitch_bend_c, 1, 9600
2, 201600, Pitch_bend_c, 1, 8192
2, 201600, Note_off_c, 1, 61, 95
2, 201600, Note_on_c, 0, 63, 95
2, 202080, Note_off_c, 0, 63, 95
2, 202080, Note_on_c, 0, 66, 95
2, 202560, Note_off_c, 0, 66, 95
2, 202560, Note_on_c, 0, 68, 95
2, 203040, Note_off_c, 0, 68, 95
2, 203040, Note_on_c, 0, 63, 95
2, 203520, Note_off_c, 0, 63, 95
2, 203520, Note_on_c, 0, 56, 95
2, 204480, Note_off_c, 0, 56, 95
2, 204480, Note_on_c, 0, 54, 95
2, 204960, Note_off_c, 0, 54, 95
2, 204960, Note_on_c, 0, 51, 95
2, 205440, Note_off_c, 0, 51, 95
2, 205440, Note_on_c, 0, 54, 95
2, 205920, Note_off_c, 0, 54, 95
2, 205920, Note_on_c, 0, 51, 95
2, 206400, Note_off_c, 0, 51, 95
2, 206400, Note_on_c, 0, 49, 95
2, 206880, Note_off_c, 0, 49, 95
2, 206880, Note_on_c, 0, 47, 95
2, 207360, Note_off_c, 0, 47, 95
2, 207360, Note_on_c, 0, 54, 95
2, 208320, Note_off_c, 0, 54, 95
2, 208320, Note_on_c, 0, 66, 95
2, 208320, Note_on_c, 0, 61, 95
2, 208320, Note_on_c, 0, 58, 95
2, 208320, Note_on_c, 0, 54, 95
2, 209040, Note_off_c, 0, 66, 95
2, 209040, Note_off_c, 0, 61, 95
2, 209040, Note_off_c, 0, 58, 95
2, 209040, Note_off_c, 0, 54, 95
2, 209040, Note_on_c, 0, 66, 95
2, 209040, Note_on_c, 0, 61, 95
2, 209040, Note_on_c, 0, 58, 95
2, 209280, Note_off_c, 0, 66, 95
2, 209280, Note_off_c, 0, 61, 95
2, 209280, Note_off_c, 0, 58, 95
2, 209280, Note_on_c, 0, 66, 95
2, 209280, Note_on_c, 0, 61, 95
2, 209280, Note_on_c, 0, 58, 95
2, 209760, Note_off_c, 0, 66, 95
2, 209760, Note_off_c, 0, 61, 95
2, 209760, Note_off_c, 0, 58, 95
2, 209760, Note_on_c, 0, 66, 95
2, 209760, Note_on_c, 0, 61, 95
2, 209760, Note_on_c, 0, 58, 95
2, 210240, Note_off_c, 0, 66, 95
2, 210240, Note_off_c, 0, 61, 95
2, 210240, Note_off_c, 0, 58, 95
2, 210240, Note_on_c, 0, 61, 95
2, 210240, Note_on_c, 0, 58, 95
2, 210720, Note_off_c, 0, 61, 95
2, 210720, Note_off_c, 0, 58, 95
2, 210720, Note_on_c, 0, 66, 95
2, 210720, Note_on_c, 0, 61, 95
2, 210720, Note_on_c, 0, 58, 95
2, 211200, Note_off_c, 0, 66, 95
2, 211200, Note_off_c, 0, 61, 95
2, 211200, Note_off_c, 0, 58, 95
2, 211680, Note_on_c, 0, 40, 95
2, 212160, Note_off_c, 0, 40, 95
2, 212160, Note_on_c, 0, 40, 95
2, 212640, Note_off_c, 0, 40, 95
2, 212640, Note_on_c, 0, 39, 95
2, 213120, Note_off_c, 0, 39, 95
2, 213120, Note_on_c, 0, 40, 95
2, 213600, Note_off_c, 0, 40, 95
2, 213600, Note_on_c, 0, 39, 95
2, 214080, Note_off_c, 0, 39, 95
2, 214080, Note_on_c, 0, 40, 95
2, 214560, Note_off_c, 0, 40, 95
2, 214560, Note_on_c, 0, 39, 95
2, 215040, Note_off_c, 0, 39, 95
2, 215040, Note_on_c, 0, 47, 95
2, 216000, Note_off_c, 0, 47, 95
2, 216000, Note_on_c, 0, 66, 95
2, 216000, Note_on_c, 0, 63, 95
2, 216000, Note_on_c, 0, 59, 95
2, 216480, Note_off_c, 0, 66, 95
2, 216480, Note_off_c, 0, 63, 95
2, 216480, Note_off_c, 0, 59, 95
2, 216480, Note_on_c, 0, 47, 95
2, 216960, Note_off_c, 0, 47, 95
2, 216960, Note_on_c, 0, 64, 95
2, 216960, Note_on_c, 0, 59, 95
2, 217440, Note_off_c, 0, 64, 95
2, 217440, Note_off_c, 0, 59, 95
2, 217440, Note_on_c, 0, 63, 70
2, 217920, Note_off_c, 0, 63, 70
2, 217920, Note_on_c, 0, 59, 95
2, 218400, Note_off_c, 0, 59, 95
2, 218400, Note_on_c, 0, 54, 95
2, 219840, Note_off_c, 0, 54, 95
2, 219840, Note_on_c, 0, 66, 95
2, 219840, Note_on_c, 0, 63, 95
2, 220320, Note_off_c, 0, 66, 95
2, 220320, Note_off_c, 0, 63, 95
2, 220320, Note_on_c, 0, 54, 95
2, 220800, Note_off_c, 0, 54, 95
2, 220800, Note_on_c, 0, 64, 95
2, 220800, Note_on_c, 0, 59, 95
2, 221280, Note_off_c, 0, 64, 95
2, 221280, Note_off_c, 0, 59, 95
2, 221280, Note_on_c, 0, 63, 70
2, 221760, Note_off_c, 0, 63, 70
2, 221760, Note_on_c, 0, 64, 95
2, 221760, Note_on_c, 0, 59, 95
2, 222240, Note_off_c, 0, 64, 95
2, 222240, Note_off_c, 0, 59, 95
2, 222240, Note_on_c, 0, 59, 95
2, 223680, Note_off_c, 0, 59, 95
2, 223680, Note_on_c, 0, 66, 95
2, 223680, Note_on_c, 0, 63, 95
2, 224160, Note_off_c, 0, 66, 95
2, 224160, Note_off_c, 0, 63, 95
2, 224160, Note_on_c, 0, 54, 95
2, 224640, Note_off_c, 0, 54, 95
2, 224640, Note_on_c, 0, 64, 95
2, 224640, Note_on_c, 0, 59, 95
2, 225120, Note_off_c, 0, 64, 95
2, 225120, Note_off_c, 0, 59, 95
2, 225120, Note_on_c, 0, 63, 70
2, 225600, Note_off_c, 0, 63, 70
2, 225600, Note_on_c, 0, 64, 95
2, 225600, Note_on_c, 0, 59, 95
2, 226080, Note_off_c, 0, 64, 95
2, 226080, Note_off_c, 0, 59, 95
2, 226080, Note_on_c, 0, 59, 95
2, 226560, Note_off_c, 0, 59, 95
2, 226560, Note_on_c, 0, 61, 95
2, 227520, Note_off_c, 0, 61, 95
2, 227520, Note_on_c, 0, 69, 95
2, 227520, Note_on_c, 0, 64, 95
2, 228000, Note_off_c, 0, 69, 95
2, 228000, Note_off_c, 0, 64, 95
2, 228000, Note_on_c, 0, 61, 95
2, 228480, Note_off_c, 0, 61, 95
2, 228480, Note_on_c, 0, 59, 95
2, 228720, Note_off_c, 0, 59, 95
2, 228720, Note_on_c, 0, 61, 70
2, 228960, Note_off_c, 0, 61, 70
2, 228960, Note_on_c, 0, 64, 95
2, 229440, Note_off_c, 0, 64, 95
2, 229440, Note_on_c, 0, 59, 95
2, 229920, Note_off_c, 0, 59, 95
2, 229920, Note_on_c, 0, 64, 95
2, 230400, Note_off_c, 0, 64, 95
2, 230400, Note_on_c, 0, 52, 95
2, 231360, Note_off_c, 0, 52, 95
2, 231360, Note_on_c, 0, 64, 95
2, 231360, Note_on_c, 0, 59, 95
2, 231360, Note_on_c, 0, 56, 95
2, 231360, Note_on_c, 0, 52, 95
2, 231840, Note_off_c, 0, 64, 95
2, 231840, Note_off_c, 0, 59, 95
2, 231840, Note_off_c, 0, 56, 95
2, 231840, Note_off_c, 0, 52, 95
2, 231840, Note_on_c, 0, 52, 95
2, 232320, Note_off_c, 0, 52, 95
2, 232320, Note_on_c, 0, 54, 95
2, 232800, Note_off_c, 0, 54, 95
2, 232800, Note_on_c, 0, 52, 95
2, 233280, Note_off_c, 0, 52, 95
2, 233280, Note_on_c, 0, 54, 95
2, 233760, Note_off_c, 0, 54, 95
2, 233760, Note_on_c, 0, 52, 95
2, 234240, Note_off_c, 0, 52, 95
2, 234240, Note_on_c, 0, 47, 95
2, 235200, Note_off_c, 0, 47, 95
2, 235200, Note_on_c, 0, 63, 95
2, 235200, Note_on_c, 0, 59, 95
2, 235200, Note_on_c, 0, 54, 95
2, 235680, Note_off_c, 0, 63, 95
2, 235680, Note_off_c, 0, 59, 95
2, 235680, Note_off_c, 0, 54, 95
2, 235680, Note_on_c, 0, 54, 95
2, 236160, Note_off_c, 0, 54, 95
2, 236160, Note_on_c, 0, 64, 95
2, 236640, Note_off_c, 0, 64, 95
2, 236640, Note_on_c, 0, 63, 70
2, 237120, Note_off_c, 0, 63, 70
2, 237120, Note_on_c, 0, 59, 95
2, 237600, Note_off_c, 0, 59, 95
2, 237600, Note_on_c, 0, 54, 95
2, 239520, Note_off_c, 0, 54, 95
2, 239520, Note_on_c, 1, 64, 95
2, 239640, Pitch_bend_c, 1, 8448
2, 239760, Pitch_bend_c, 1, 8832
2, 239880, Pitch_bend_c, 1, 9216
2, 240000, Pitch_bend_c, 1, 9600
2, 240000, Pitch_bend_c, 1, 8192
2, 240000, Note_off_c, 1, 64, 95
2, 240000, Note_on_c, 0, 66, 95
2, 240480, Note_off_c, 0, 66, 95
2, 240480, Note_on_c, 0, 69, 95
2, 240960, Note_off_c, 0, 69, 95
2, 240960, Note_on_c, 0, 66, 95
2, 241440, Note_off_c, 0, 66, 95
2, 241440, Note_on_c, 0, 64, 70
2, 241920, Note_off_c, 0, 64, 70
2, 241920, Note_on_c, 0, 47, 95
2, 242880, Note_off_c, 0, 47, 95
2, 242880, Note_on_c, 0, 63, 95
2, 242880, Note_on_c, 0, 59, 95
2, 242880, Note_on_c, 0, 54, 95
2, 243360, Note_off_c, 0, 63, 95
2, 243360, Note_off_c, 0, 59, 95
2, 243360, Note_off_c, 0, 54, 95
2, 243360, Note_on_c, 0, 54, 95
2, 243840, Note_off_c, 0, 54, 95
2, 243840, Note_on_c, 0, 64, 95
2, 244320, Note_off_c, 0, 64, 95
2, 244320, Note_on_c, 0, 63, 70
2, 244800, Note_off_c, 0, 63, 70
2, 244800, Note_on_c, 0, 59, 95
2, 245280, Note_off_c, 0, 59, 95
2, 245280, Note_on_c, 0, 54, 95
2, 246720, Note_off_c, 0, 54, 95
2, 246720, Note_on_c, 0, 63, 95
2, 246720, Note_on_c, 0, 59, 95
2, 246720, Note_on_c, 0, 54, 95
2, 247200, Note_off_c, 0, 63, 95
2, 247200, Note_off_c, 0, 59, 95
2, 247200, Note_off_c, 0, 54, 95
2, 247200, Note_on_c, 0, 54, 95
2, 247680, Note_off_c, 0, 54, 95
2, 247680, Note_on_c, 0, 64, 95
2, 248160, Note_off_c, 0, 64, 95
2, 248160, Note_on_c, 0, 63, 70
2, 248640, Note_off_c, 0, 63, 70
2, 248640, Note_on_c, 0, 59, 95
2, 249120, Note_off_c, 0, 59, 95
2, 249120, Note_on_c, 0, 54, 95
2, 250560, Note_off_c, 0, 54, 95
2, 250560, Note_on_c, 0, 66, 95
2, 250560, Note_on_c, 0, 59, 95
2, 250560, Note_on_c, 0, 54, 95
2, 251040, Note_off_c, 0, 66, 95
2, 251040, Note_off_c, 0, 59, 95
2, 251040, Note_off_c, 0, 54, 95
2, 251040, Note_on_c, 0, 59, 95
2, 251520, Note_off_c, 0, 59, 95
2, 251520, Note_on_c, 0, 64, 95
2, 252000, Note_off_c, 0, 64, 95
2, 252000, Note_on_c, 0, 63, 70
2, 252480, Note_off_c, 0, 63, 70
2, 252480, Note_on_c, 0, 59, 95
2, 253440, Note_off_c, 0, 59, 95
2, 253440, Note_on_c, 0, 61, 95
2, 254400, Note_off_c, 0, 61, 95
2, 254400, Note_on_c, 0, 69, 95
2, 254880, Note_off_c, 0, 69, 95
2, 254880, Note_on_c, 0, 64, 95
2, 255360, Note_off_c, 0, 64, 95
2, 255360, Note_on_c, 0, 64, 95
2, 255360, Note_on_c, 0, 61, 95
2, 255840, Note_off_c, 0, 64, 95
2, 255840, Note_off_c, 0, 61, 95
2, 255840, Note_on_c, 0, 64, 95
2, 255840, Note_on_c, 0, 59, 95
2, 256320, Note_off_c, 0, 64, 95
2, 256320, Note_off_c, 0, 59, 95
2, 256320, Note_on_c, 0, 57, 95
2, 256800, Note_off_c, 0, 57, 95
2, 256800, Note_on_c, 0, 64, 95
2, 256800, Note_on_c, 0, 59, 95
2, 256800, Note_on_c, 0, 56, 95
2, 258240, Note_off_c, 0, 64, 95
2, 258240, Note_off_c, 0, 59, 95
2, 258240, Note_off_c, 0, 56, 95
2, 258240, Note_on_c, 1, 64, 95
2, 258240, Note_on_c, 1, 59, 95
2, 258240, Note_on_c, 1, 56, 95
2, 258360, Pitch_bend_c, 1, 8192
2, 258480, Pitch_bend_c, 1, 8192
2, 258600, Pitch_bend_c, 1, 8192
2, 258720, Pitch_bend_c, 1, 8192
2, 258840, Pitch_bend_c, 1, 8192
2, 258960, Pitch_bend_c, 1, 8192
2, 259080, Pitch_bend_c, 1, 8192
2, 259200, Note_off_c, 1, 64, 95
2, 259200, Note_off_c, 1, 59, 95
2, 259200, Pitch_bend_c, 1, 8192
2, 259200, Pitch_bend_c, 1, 8192
2, 259200, Note_off_c, 1, 56, 95
2, 259200, Note_on_c, 0, 56, 95
2, 259680, Note_off_c, 0, 56, 95
2, 259680, Note_on_c, 0, 54, 95
2, 260160, Note_off_c, 0, 54, 95
2, 260160, Note_on_c, 0, 56, 95
2, 260640, Note_off_c, 0, 56, 95
2, 260640, Note_on_c, 0, 54, 95
2, 261120, Note_off_c, 0, 54, 95
2, 261120, Note_on_c, 0, 47, 95
2, 262080, Note_off_c, 0, 47, 95
2, 262080, Note_on_c, 0, 63, 95
2, 262080, Note_on_c, 0, 59, 95
2, 262080, Note_on_c, 0, 54, 95
2, 262560, Note_off_c, 0, 63, 95
2, 262560, Note_off_c, 0, 59, 95
2, 262560, Note_off_c, 0, 54, 95
2, 262560, Note_on_c, 0, 59, 95
2, 263040, Note_off_c, 0, 59, 95
2, 263040, Note_on_c, 0, 64, 95
2, 263520, Note_off_c, 0, 64, 95
2, 263520, Note_on_c, 0, 63, 95
2, 264000, Note_off_c, 0, 63, 95
2, 264000, Note_on_c, 0, 59, 95
2, 264480, Note_off_c, 0, 59, 95
2, 264480, Note_on_c, 0, 54, 95
2, 265920, Note_off_c, 0, 54, 95
2, 265920, Note_on_c, 0, 47, 95
2, 266400, Note_off_c, 0, 47, 95
2, 266400, Note_on_c, 0, 46, 95
2, 266880, Note_off_c, 0, 46, 95
2, 266880, Note_on_c, 0, 47, 95
2, 267360, Note_off_c, 0, 47, 95
2, 267360, Note_on_c, 0, 49, 95
2, 267840, Note_off_c, 0, 49, 95
2, 267840, Note_on_c, 0, 47, 95
2, 268320, Note_off_c, 0, 47, 95
2, 268320, Note_on_c, 0, 46, 95
2, 268800, Note_off_c, 0, 46, 95
2, 268800, Note_on_c, 0, 44, 95
2, 269760, Note_off_c, 0, 44, 95
2, 269760, Note_on_c, 0, 59, 95
2, 270240, Note_off_c, 0, 59, 95
2, 270240, Note_on_c, 0, 54, 95
2, 270720, Note_off_c, 0, 54, 95
2, 270720, Note_on_c, 0, 56, 70
2, 271200, Note_off_c, 0, 56, 70
2, 271200, Note_on_c, 0, 59, 95
2, 271680, Note_off_c, 0, 59, 95
2, 271680, Note_on_c, 0, 66, 95
2, 272160, Note_off_c, 0, 66, 95
2, 272160, Note_on_c, 0, 68, 95
2, 272160, Note_on_c, 0, 63, 95
2, 273600, Note_off_c, 0, 68, 95
2, 273600, Note_off_c, 0, 63, 95
2, 273600, Note_on_c, 0, 63, 95
2, 273600, Note_on_c, 0, 59, 95
2, 274080, Note_off_c, 0, 63, 95
2, 274080, Note_off_c, 0, 59, 95
2, 274080, Note_on_c, 0, 54, 95
2, 274560, Note_off_c, 0, 54, 95
2, 274560, Note_on_c, 0, 56, 70
2, 275040, Note_off_c, 0, 56, 70
2, 275040, Note_on_c, 0, 59, 95
2, 275520, Note_off_c, 0, 59, 95
2, 275520, Note_on_c, 0, 68, 95
2, 276000, Note_off_c, 0, 68, 95
2, 276000, Note_on_c, 0, 66, 95
2, 276480, Note_off_c, 0, 66, 95
2, 276480, Note_on_c, 0, 68, 95
2, 277440, Note_off_c, 0, 68, 95
2, 277440, Note_on_c, 0, 66, 95
2, 278160, Note_off_c, 0, 66, 95
2, 278160, Note_on_c, 0, 63, 95
2, 278400, Note_off_c, 0, 63, 95
2, 278400, Note_on_c, 0, 66, 95
2, 278880, Note_off_c, 0, 66, 95
2, 278880, Note_on_c, 0, 63, 95
2, 279360, Note_off_c, 0, 63, 95
2, 279360, Note_on_c, 0, 61, 95
2, 279840, Note_off_c, 0, 61, 95
2, 279840, Note_on_c, 0, 59, 95
2, 279840, Note_on_c, 0, 54, 95
2, 280320, Note_off_c, 0, 59, 95
2, 280320, Note_off_c, 0, 54, 95
2, 280320, Note_on_c, 0, 47, 95
2, 281280, Note_off_c, 0, 47, 95
2, 281280, Note_on_c, 0, 59, 95
2, 281280, Note_on_c, 0, 54, 95
2, 281280, Note_on_c, 0, 47, 95
2, 282000, Note_off_c, 0, 59, 95
2, 282000, Note_off_c, 0, 54, 95
2, 282000, Note_off_c, 0, 47, 95
2, 282000, Note_on_c, 0, 59, 95
2, 282000, Note_on_c, 0, 54, 95
2, 282480, Note_off_c, 0, 59, 95
2, 282480, Note_off_c, 0, 54, 95
2, 282480, Note_on_c, 0, 56, 95
2, 282960, Note_off_c, 0, 56, 95
2, 282960, Note_on_c, 0, 59, 95
2, 283440, Note_off_c, 0, 59, 95
2, 283440, Note_on_c, 0, 56, 95
2, 283680, Note_off_c, 0, 56, 95
2, 283680, Note_on_c, 0, 54, 70
2, 283920, Note_off_c, 0, 54, 70
2, 283920, Note_on_c, 0, 56, 95
2, 284160, Note_off_c, 0, 56, 95
2, 284160, Note_on_c, 0, 44, 95
2, 285120, Note_off_c, 0, 44, 95
2, 285120, Note_on_c, 0, 59, 95
2, 285120, Note_on_c, 0, 56, 95
2, 285120, Note_on_c, 0, 51, 95
2, 286080, Note_off_c, 0, 59, 95
2, 286080, Note_off_c, 0, 56, 95
2, 286080, Note_off_c, 0, 51, 95
2, 286080, Note_on_c, 1, 46, 95
2, 286200, Pitch_bend_c, 1, 8448
2, 286320, Pitch_bend_c, 1, 8832
2, 286320, Pitch_bend_c, 1, 8192
2, 286320, Note_off_c, 1, 46, 95
2, 286320, Note_on_c, 0, 47, 95
2, 286560, Note_off_c, 0, 47, 95
2, 286560, Note_on_c, 0, 49, 95
2, 287040, Note_off_c, 0, 49, 95
2, 287040, Note_on_c, 0, 51, 95
2, 287520, Note_off_c, 0, 51, 95
2, 287520, Note_on_c, 0, 54, 95
2, 288000, Note_off_c, 0, 54, 95
2, 288000, Note_on_c, 0, 56, 70
2, 288960, Note_off_c, 0, 56, 70
2, 288960, Note_on_c, 0, 59, 95
2, 289680, Note_off_c, 0, 59, 95
2, 289680, Note_on_c, 1, 61, 95
2, 289800, Pitch_bend_c, 1, 8832
2, 289920, Pitch_bend_c, 1, 9600
2, 289920, Pitch_bend_c, 1, 8192
2, 289920, Note_off_c, 1, 61, 95
2, 289920, Note_on_c, 0, 63, 95
2, 290400, Note_off_c, 0, 63, 95
2, 290400, Note_on_c, 0, 66, 95
2, 290880, Note_off_c, 0, 66, 95
2, 290880, Note_on_c, 0, 68, 95
2, 291360, Note_off_c, 0, 68, 95
2, 291360, Note_on_c, 0, 63, 95
2, 291840, Note_off_c, 0, 63, 95
2, 291840, Note_on_c, 0, 56, 95
2, 292800, Note_off_c, 0, 56, 95
2, 292800, Note_on_c, 0, 54, 95
2, 293280, Note_off_c, 0, 54, 95
2, 293280, Note_on_c, 0, 51, 95
2, 293760, Note_off_c, 0, 51, 95
2, 293760, Note_on_c, 0, 54, 95
2, 294240, Note_off_c, 0, 54, 95
2, 294240, Note_on_c, 0, 51, 95
2, 294720, Note_off_c, 0, 51, 95
2, 294720, Note_on_c, 0, 49, 95
2, 295200, Note_off_c, 0, 49, 95
2, 295200, Note_on_c, 0, 47, 95
2, 295680, Note_off_c, 0, 47, 95
2, 295680, Note_on_c, 0, 54, 95
2, 296640, Note_off_c, 0, 54, 95
2, 296640, Note_on_c, 0, 66, 95
2, 296640, Note_on_c, 0, 61, 95
2, 296640, Note_on_c, 0, 58, 95
2, 296640, Note_on_c, 0, 54, 95
2, 297360, Note_off_c, 0, 66, 95
2, 297360, Note_off_c, 0, 61, 95
2, 297360, Note_off_c, 0, 58, 95
2, 297360, Note_off_c, 0, 54, 95
2, 297360, Note_on_c, 0, 66, 95
2, 297360, Note_on_c, 0, 61, 95
2, 297360, Note_on_c, 0, 58, 95
2, 297600, Note_off_c, 0, 66, 95
2, 297600, Note_off_c, 0, 61, 95
2, 297600, Note_off_c, 0, 58, 95
2, 297600, Note_on_c, 0, 66, 95
2, 297600, Note_on_c, 0, 61, 95
2, 297600, Note_on_c, 0, 58, 95
2, 298080, Note_off_c, 0, 66, 95
2, 298080, Note_off_c, 0, 61, 95
2, 298080, Note_off_c, 0, 58, 95
2, 298080, Note_on_c, 0, 66, 95
2, 298080, Note_on_c, 0, 61, 95
2, 298080, Note_on_c, 0, 58, 95
2, 298560, Note_off_c, 0, 66, 95
2, 298560, Note_off_c, 0, 61, 95
2, 298560, Note_off_c, 0, 58, 95
2, 298560, Note_on_c, 0, 61, 95
2, 298560, Note_on_c, 0, 58, 95
2, 299040, Note_off_c, 0, 61, 95
2, 299040, Note_off_c, 0, 58, 95
2, 299040, Note_on_c, 0, 66, 95
2, 299040, Note_on_c, 0, 61, 95
2, 299040, Note_on_c, 0, 58, 95
2, 300000, Note_off_c, 0, 66, 95
2, 300000, Note_off_c, 0, 61, 95
2, 300000, Note_off_c, 0, 58, 95
2, 300000, Note_on_c, 0, 66, 95
2, 300000, Note_on_c, 0, 61, 95
2, 300000, Note_on_c, 0, 58, 95
2, 300000, Note_on_c, 0, 54, 95
2, 300480, Note_off_c, 0, 66, 95
2, 300480, Note_off_c, 0, 61, 95
2, 300480, Note_off_c, 0, 58, 95
2, 300480, Note_off_c, 0, 54, 95
2, 300480, Note_on_c, 0, 66, 95
2, 300480, Note_on_c, 0, 61, 95
2, 300480, Note_on_c, 0, 58, 95
2, 300480, Note_on_c, 0, 54, 95
2, 300960, Note_off_c, 0, 66, 95
2, 300960, Note_off_c, 0, 61, 95
2, 300960, Note_off_c, 0, 58, 95
2, 300960, Note_off_c, 0, 54, 95
2, 300960, Note_on_c, 0, 66, 95
2, 300960, Note_on_c, 0, 61, 95
2, 300960, Note_on_c, 0, 58, 95
2, 301200, Note_off_c, 0, 66, 95
2, 301200, Note_off_c, 0, 61, 95
2, 301200, Note_off_c, 0, 58, 95
2, 301200, Note_on_c, 0, 66, 95
2, 301200, Note_on_c, 0, 61, 95
2, 301200, Note_on_c, 0, 58, 95
2, 301440, Note_off_c, 0, 66, 95
2, 301440, Note_off_c, 0, 61, 95
2, 301440, Note_off_c, 0, 58, 95
2, 301440, Note_on_c, 0, 59, 95
2, 301920, Note_off_c, 0, 59, 95
2, 301920, Note_on_c, 0, 58, 95
2, 302400, Note_off_c, 0, 58, 95
2, 302400, Note_on_c, 0, 56, 95
2, 302880, Note_off_c, 0, 56, 95
2, 302880, Note_on_c, 0, 54, 95
2, 303360, Note_off_c, 0, 54, 95
2, 303360, Note_on_c, 0, 64, 95
2, 303360, Note_on_c, 0, 59, 95
2, 303360, Note_on_c, 0, 56, 95
2, 303360, Note_on_c, 0, 52, 95
2, 303360, Note_on_c, 0, 47, 95
2, 303360, Note_on_c, 0, 40, 95
2, 304320, Note_off_c, 0, 64, 95
2, 304320, Note_off_c, 0, 59, 95
2, 304320, Note_off_c, 0, 56, 95
2, 304320, Note_off_c, 0, 52, 95
2, 304320, Note_off_c, 0, 47, 95
2, 304320, Note_off_c, 0, 40, 95
2, 304320, Note_on_c, 0, 64, 95
2, 304320, Note_on_c, 0, 59, 95
2, 304320, Note_on_c, 0, 56, 95
2, 304320, Note_on_c, 0, 52, 95
2, 304320, Note_on_c, 0, 47, 95
2, 304320, Note_on_c, 0, 40, 95
2, 304800, Note_off_c, 0, 64, 95
2, 304800, Note_off_c, 0, 59, 95
2, 304800, Note_off_c, 0, 56, 95
2, 304800, Note_off_c, 0, 52, 95
2, 304800, Note_off_c, 0, 47, 95
2, 304800, Note_off_c, 0, 40, 95
2, 304800, Note_on_c, 0, 64, 95
2, 304800, Note_on_c, 0, 59, 95
2, 304800, Note_on_c, 0, 56, 95
2, 304800, Note_on_c, 0, 52, 95
2, 304800, Note_on_c, 0, 47, 95
2, 304800, Note_on_c, 0, 40, 95
2, 305760, Note_off_c, 0, 64, 95
2, 305760, Note_off_c, 0, 59, 95
2, 305760, Note_off_c, 0, 56, 95
2, 305760, Note_off_c, 0, 52, 95
2, 305760, Note_off_c, 0, 47, 95
2, 305760, Note_off_c, 0, 40, 95
2, 305760, Note_on_c, 0, 64, 95
2, 305760, Note_on_c, 0, 59, 95
2, 305760, Note_on_c, 0, 56, 95
2, 305760, Note_on_c, 0, 52, 95
2, 305760, Note_on_c, 0, 47, 95
2, 305760, Note_on_c, 0, 40, 95
2, 306240, Note_off_c, 0, 64, 95
2, 306240, Note_off_c, 0, 59, 95
2, 306240, Note_off_c, 0, 56, 95
2, 306240, Note_off_c, 0, 52, 95
2, 306240, Note_off_c, 0, 47, 95
2, 306240, Note_off_c, 0, 40, 95
2, 306240, Note_on_c, 0, 64, 95
2, 306240, Note_on_c, 0, 59, 95
2, 306240, Note_on_c, 0, 56, 95
2, 306240, Note_on_c, 0, 52, 95
2, 306240, Note_on_c, 0, 47, 95
2, 306240, Note_on_c, 0, 40, 95
2, 306720, Note_off_c, 0, 64, 95
2, 306720, Note_off_c, 0, 59, 95
2, 306720, Note_off_c, 0, 56, 95
2, 306720, Note_off_c, 0, 52, 95
2, 306720, Note_off_c, 0, 47, 95
2, 306720, Note_off_c, 0, 40, 95
2, 306720, Note_on_c, 0, 64, 95
2, 306720, Note_on_c, 0, 59, 95
2, 306720, Note_on_c, 0, 55, 95
2, 306720, Note_on_c, 0, 52, 95
2, 306720, Note_on_c, 0, 47, 95
2, 306720, Note_on_c, 0, 40, 95
2, 307200, Note_off_c, 0, 64, 95
2, 307200, Note_off_c, 0, 59, 95
2, 307200, Note_off_c, 0, 55, 95
2, 307200, Note_off_c, 0, 52, 95
2, 307200, Note_off_c, 0, 47, 95
2, 307200, Note_off_c, 0, 40, 95
2, 307200, Note_on_c, 0, 64, 95
2, 307200, Note_on_c, 0, 59, 95
2, 307200, Note_on_c, 0, 55, 95
2, 307200, Note_on_c, 0, 52, 95
2, 307200, Note_on_c, 0, 47, 95
2, 307200, Note_on_c, 0, 40, 95
2, 308160, Note_off_c, 0, 64, 95
2, 308160, Note_off_c, 0, 59, 95
2, 308160, Note_off_c, 0, 55, 95
2, 308160, Note_off_c, 0, 52, 95
2, 308160, Note_off_c, 0, 47, 95
2, 308160, Note_off_c, 0, 40, 95
2, 308160, Note_on_c, 0, 64, 95
2, 308160, Note_on_c, 0, 59, 95
2, 308160, Note_on_c, 0, 55, 95
2, 308160, Note_on_c, 0, 52, 95
2, 308160, Note_on_c, 0, 47, 95
2, 308160, Note_on_c, 0, 40, 95
2, 308640, Note_off_c, 0, 64, 95
2, 308640, Note_off_c, 0, 59, 95
2, 308640, Note_off_c, 0, 55, 95
2, 308640, Note_off_c, 0, 52, 95
2, 308640, Note_off_c, 0, 47, 95
2, 308640, Note_off_c, 0, 40, 95
2, 308640, Note_on_c, 0, 64, 95
2, 308640, Note_on_c, 0, 59, 95
2, 308640, Note_on_c, 0, 55, 95
2, 308640, Note_on_c, 0, 52, 95
2, 308640, Note_on_c, 0, 47, 95
2, 308640, Note_on_c, 0, 40, 95
2, 309600, Note_off_c, 0, 64, 95
2, 309600, Note_off_c, 0, 59, 95
2, 309600, Note_off_c, 0, 55, 95
2, 309600, Note_off_c, 0, 52, 95
2, 309600, Note_off_c, 0, 47, 95
2, 309600, Note_off_c, 0, 40, 95
2, 309600, Note_on_c, 0, 64, 95
2, 309600, Note_on_c, 0, 59, 95
2, 309600, Note_on_c, 0, 55, 95
2, 309600, Note_on_c, 0, 52, 95
2, 309600, Note_on_c, 0, 47, 95
2, 309600, Note_on_c, 0, 40, 95
2, 310080, Note_off_c, 0, 64, 95
2, 310080, Note_off_c, 0, 59, 95
2, 310080, Note_off_c, 0, 55, 95
2, 310080, Note_off_c, 0, 52, 95
2, 310080, Note_off_c, 0, 47, 95
2, 310080, Note_off_c, 0, 40, 95
2, 310080, Note_on_c, 0, 64, 95
2, 310080, Note_on_c, 0, 59, 95
2, 310080, Note_on_c, 0, 55, 95
2, 310080, Note_on_c, 0, 52, 95
2, 310080, Note_on_c, 0, 47, 95
2, 310080, Note_on_c, 0, 40, 95
2, 311040, Note_off_c, 0, 64, 95
2, 311040, Note_off_c, 0, 59, 95
2, 311040, Note_off_c, 0, 55, 95
2, 311040, Note_off_c, 0, 52, 95
2, 311040, Note_off_c, 0, 47, 95
2, 311040, Note_off_c, 0, 40, 95
2, 311040, Note_on_c, 0, 71, 95
2, 311040, Note_on_c, 0, 66, 95
2, 311040, Note_on_c, 0, 63, 95
2, 311040, Note_on_c, 0, 59, 95
2, 311040, Note_on_c, 0, 54, 95
2, 311040, Note_on_c, 0, 47, 95
2, 312000, Note_off_c, 0, 71, 95
2, 312000, Note_off_c, 0, 66, 95
2, 312000, Note_off_c, 0, 63, 95
2, 312000, Note_off_c, 0, 59, 95
2, 312000, Note_off_c, 0, 54, 95
2, 312000, Note_off_c, 0, 47, 95
2, 312000, Note_on_c, 0, 71, 95
2, 312000, Note_on_c, 0, 66, 95
2, 312000, Note_on_c, 0, 63, 95
2, 312000, Note_on_c, 0, 59, 95
2, 312000, Note_on_c, 0, 54, 95
2, 312000, Note_on_c, 0, 47, 95
2, 312480, Note_off_c, 0, 71, 95
2, 312480, Note_off_c, 0, 66, 95
2, 312480, Note_off_c, 0, 63, 95
2, 312480, Note_off_c, 0, 59, 95
2, 312480, Note_off_c, 0, 54, 95
2, 312480, Note_off_c, 0, 47, 95
2, 312480, Note_on_c, 0, 71, 95
2, 312480, Note_on_c, 0, 66, 95
2, 312480, Note_on_c, 0, 63, 95
2, 312480, Note_on_c, 0, 59, 95
2, 312480, Note_on_c, 0, 54, 95
2, 312480, Note_on_c, 0, 47, 95
2, 313440, Note_off_c, 0, 71, 95
2, 313440, Note_off_c, 0, 66, 95
2, 313440, Note_off_c, 0, 63, 95
2, 313440, Note_off_c, 0, 59, 95
2, 313440, Note_off_c, 0, 54, 95
2, 313440, Note_off_c, 0, 47, 95
2, 313440, Note_on_c, 0, 71, 95
2, 313440, Note_on_c, 0, 66, 95
2, 313440, Note_on_c, 0, 63, 95
2, 313440, Note_on_c, 0, 59, 95
2, 313440, Note_on_c, 0, 54, 95
2, 313440, Note_on_c, 0, 47, 95
2, 313920, Note_off_c, 0, 71, 95
2, 313920, Note_off_c, 0, 66, 95
2, 313920, Note_off_c, 0, 63, 95
2, 313920, Note_off_c, 0, 59, 95
2, 313920, Note_off_c, 0, 54, 95
2, 313920, Note_off_c, 0, 47, 95
2, 313920, Note_on_c, 0, 71, 95
2, 313920, Note_on_c, 0, 66, 95
2, 313920, Note_on_c, 0, 63, 95
2, 313920, Note_on_c, 0, 59, 95
2, 313920, Note_on_c, 0, 54, 95
2, 313920, Note_on_c, 0, 47, 95
2, 314400, Note_off_c, 0, 71, 95
2, 314400, Note_off_c, 0, 66, 95
2, 314400, Note_off_c, 0, 63, 95
2, 314400, Note_off_c, 0, 59, 95
2, 314400, Note_off_c, 0, 54, 95
2, 314400, Note_off_c, 0, 47, 95
2, 314400, Note_on_c, 0, 71, 95
2, 314400, Note_on_c, 0, 66, 95
2, 314400, Note_on_c, 0, 63, 95
2, 314400, Note_on_c, 0, 59, 95
2, 314400, Note_on_c, 0, 54, 95
2, 314400, Note_on_c, 0, 47, 95
2, 314880, Note_off_c, 0, 71, 95
2, 314880, Note_off_c, 0, 66, 95
2, 314880, Note_off_c, 0, 63, 95
2, 314880, Note_off_c, 0, 59, 95
2, 314880, Note_off_c, 0, 54, 95
2, 314880, Note_off_c, 0, 47, 95
2, 314880, Note_on_c, 0, 71, 95
2, 314880, Note_on_c, 0, 66, 95
2, 314880, Note_on_c, 0, 63, 95
2, 314880, Note_on_c, 0, 59, 95
2, 314880, Note_on_c, 0, 54, 95
2, 314880, Note_on_c, 0, 47, 95
2, 315840, Note_off_c, 0, 71, 95
2, 315840, Note_off_c, 0, 66, 95
2, 315840, Note_off_c, 0, 63, 95
2, 315840, Note_off_c, 0, 59, 95
2, 315840, Note_off_c, 0, 54, 95
2, 315840, Note_off_c, 0, 47, 95
2, 315840, Note_on_c, 0, 71, 95
2, 315840, Note_on_c, 0, 66, 95
2, 315840, Note_on_c, 0, 63, 95
2, 315840, Note_on_c, 0, 59, 95
2, 315840, Note_on_c, 0, 54, 95
2, 315840, Note_on_c, 0, 47, 95
2, 316320, Note_off_c, 0, 71, 95
2, 316320, Note_off_c, 0, 66, 95
2, 316320, Note_off_c, 0, 63, 95
2, 316320, Note_off_c, 0, 59, 95
2, 316320, Note_off_c, 0, 54, 95
2, 316320, Note_off_c, 0, 47, 95
2, 316320, Note_on_c, 0, 71, 95
2, 316320, Note_on_c, 0, 66, 95
2, 316320, Note_on_c, 0, 63, 95
2, 316320, Note_on_c, 0, 59, 95
2, 316320, Note_on_c, 0, 54, 95
2, 316320, Note_on_c, 0, 47, 95
2, 317280, Note_off_c, 0, 71, 95
2, 317280, Note_off_c, 0, 66, 95
2, 317280, Note_off_c, 0, 63, 95
2, 317280, Note_off_c, 0, 59, 95
2, 317280, Note_off_c, 0, 54, 95
2, 317280, Note_off_c, 0, 47, 95
2, 317280, Note_on_c, 0, 71, 95
2, 317280, Note_on_c, 0, 66, 95
2, 317280, Note_on_c, 0, 63, 95
2, 317280, Note_on_c, 0, 59, 95
2, 317280, Note_on_c, 0, 54, 95
2, 317280, Note_on_c, 0, 47, 95
2, 317760, Note_off_c, 0, 71, 95
2, 317760, Note_off_c, 0, 66, 95
2, 317760, Note_off_c, 0, 63, 95
2, 317760, Note_off_c, 0, 59, 95
2, 317760, Note_off_c, 0, 54, 95
2, 317760, Note_off_c, 0, 47, 95
2, 317760, Note_on_c, 0, 71, 95
2, 317760, Note_on_c, 0, 66, 95
2, 317760, Note_on_c, 0, 63, 95
2, 317760, Note_on_c, 0, 59, 95
2, 317760, Note_on_c, 0, 54, 95
2, 317760, Note_on_c, 0, 47, 95
2, 318240, Note_off_c, 0, 71, 95
2, 318240, Note_off_c, 0, 66, 95
2, 318240, Note_off_c, 0, 63, 95
2, 318240, Note_off_c, 0, 59, 95
2, 318240, Note_off_c, 0, 54, 95
2, 318240, Note_off_c, 0, 47, 95
2, 318240, Note_on_c, 0, 71, 95
2, 318240, Note_on_c, 0, 66, 95
2, 318240, Note_on_c, 0, 63, 95
2, 318240, Note_on_c, 0, 59, 95
2, 318240, Note_on_c, 0, 54, 95
2, 318240, Note_on_c, 0, 47, 95
2, 318720, Note_off_c, 0, 71, 95
2, 318720, Note_off_c, 0, 66, 95
2, 318720, Note_off_c, 0, 63, 95
2, 318720, Note_off_c, 0, 59, 95
2, 318720, Note_off_c, 0, 54, 95
2, 318720, Note_off_c, 0, 47, 95
2, 318720, Note_on_c, 0, 64, 95
2, 318720, Note_on_c, 0, 59, 95
2, 318720, Note_on_c, 0, 56, 95
2, 318720, Note_on_c, 0, 52, 95
2, 318720, Note_on_c, 0, 47, 95
2, 318720, Note_on_c, 0, 40, 95
2, 319680, Note_off_c, 0, 64, 95
2, 319680, Note_off_c, 0, 59, 95
2, 319680, Note_off_c, 0, 56, 95
2, 319680, Note_off_c, 0, 52, 95
2, 319680, Note_off_c, 0, 47, 95
2, 319680, Note_off_c, 0, 40, 95
2, 319680, Note_on_c, 0, 64, 95
2, 319680, Note_on_c, 0, 59, 95
2, 319680, Note_on_c, 0, 56, 95
2, 319680, Note_on_c, 0, 52, 95
2, 319680, Note_on_c, 0, 47, 95
2, 319680, Note_on_c, 0, 40, 95
2, 320160, Note_off_c, 0, 64, 95
2, 320160, Note_off_c, 0, 59, 95
2, 320160, Note_off_c, 0, 56, 95
2, 320160, Note_off_c, 0, 52, 95
2, 320160, Note_off_c, 0, 47, 95
2, 320160, Note_off_c, 0, 40, 95
2, 320160, Note_on_c, 0, 64, 95
2, 320160, Note_on_c, 0, 59, 95
2, 320160, Note_on_c, 0, 56, 95
2, 320160, Note_on_c, 0, 52, 95
2, 320160, Note_on_c, 0, 47, 95
2, 320160, Note_on_c, 0, 40, 95
2, 321120, Note_off_c, 0, 64, 95
2, 321120, Note_off_c, 0, 59, 95
2, 321120, Note_off_c, 0, 56, 95
2, 321120, Note_off_c, 0, 52, 95
2, 321120, Note_off_c, 0, 47, 95
2, 321120, Note_off_c, 0, 40, 95
2, 321120, Note_on_c, 0, 64, 95
2, 321120, Note_on_c, 0, 59, 95
2, 321120, Note_on_c, 0, 56, 95
2, 321120, Note_on_c, 0, 52, 95
2, 321120, Note_on_c, 0, 47, 95
2, 321120, Note_on_c, 0, 40, 95
2, 321600, Note_off_c, 0, 64, 95
2, 321600, Note_off_c, 0, 59, 95
2, 321600, Note_off_c, 0, 56, 95
2, 321600, Note_off_c, 0, 52, 95
2, 321600, Note_off_c, 0, 47, 95
2, 321600, Note_off_c, 0, 40, 95
2, 321600, Note_on_c, 0, 64, 95
2, 321600, Note_on_c, 0, 59, 95
2, 321600, Note_on_c, 0, 56, 95
2, 321600, Note_on_c, 0, 52, 95
2, 321600, Note_on_c, 0, 47, 95
2, 321600, Note_on_c, 0, 40, 95
2, 322080, Note_off_c, 0, 64, 95
2, 322080, Note_off_c, 0, 59, 95
2, 322080, Note_off_c, 0, 56, 95
2, 322080, Note_off_c, 0, 52, 95
2, 322080, Note_off_c, 0, 47, 95
2, 322080, Note_off_c, 0, 40, 95
2, 322080, Note_on_c, 0, 64, 95
2, 322080, Note_on_c, 0, 59, 95
2, 322080, Note_on_c, 0, 55, 95
2, 322080, Note_on_c, 0, 52, 95
2, 322080, Note_on_c, 0, 47, 95
2, 322080, Note_on_c, 0, 40, 95
2, 322560, Note_off_c, 0, 64, 95
2, 322560, Note_off_c, 0, 59, 95
2, 322560, Note_off_c, 0, 55, 95
2, 322560, Note_off_c, 0, 52, 95
2, 322560, Note_off_c, 0, 47, 95
2, 322560, Note_off_c, 0, 40, 95
2, 322560, Note_on_c, 0, 64, 95
2, 322560, Note_on_c, 0, 59, 95
2, 322560, Note_on_c, 0, 55, 95
2, 322560, Note_on_c, 0, 52, 95
2, 322560, Note_on_c, 0, 47, 95
2, 322560, Note_on_c, 0, 40, 95
2, 323520, Note_off_c, 0, 64, 95
2, 323520, Note_off_c, 0, 59, 95
2, 323520, Note_off_c, 0, 55, 95
2, 323520, Note_off_c, 0, 52, 95
2, 323520, Note_off_c, 0, 47, 95
2, 323520, Note_off_c, 0, 40, 95
2, 323520, Note_on_c, 0, 64, 95
2, 323520, Note_on_c, 0, 59, 95
2, 323520, Note_on_c, 0, 55, 95
2, 323520, Note_on_c, 0, 52, 95
2, 323520, Note_on_c, 0, 47, 95
2, 323520, Note_on_c, 0, 40, 95
2, 324000, Note_off_c, 0, 64, 95
2, 324000, Note_off_c, 0, 59, 95
2, 324000, Note_off_c, 0, 55, 95
2, 324000, Note_off_c, 0, 52, 95
2, 324000, Note_off_c, 0, 47, 95
2, 324000, Note_off_c, 0, 40, 95
2, 324000, Note_on_c, 0, 64, 95
2, 324000, Note_on_c, 0, 59, 95
2, 324000, Note_on_c, 0, 55, 95
2, 324000, Note_on_c, 0, 52, 95
2, 324000, Note_on_c, 0, 47, 95
2, 324000, Note_on_c, 0, 40, 95
2, 324960, Note_off_c, 0, 64, 95
2, 324960, Note_off_c, 0, 59, 95
2, 324960, Note_off_c, 0, 55, 95
2, 324960, Note_off_c, 0, 52, 95
2, 324960, Note_off_c, 0, 47, 95
2, 324960, Note_off_c, 0, 40, 95
2, 324960, Note_on_c, 0, 64, 95
2, 324960, Note_on_c, 0, 59, 95
2, 324960, Note_on_c, 0, 55, 95
2, 324960, Note_on_c, 0, 52, 95
2, 324960, Note_on_c, 0, 47, 95
2, 324960, Note_on_c, 0, 40, 95
2, 325440, Note_off_c, 0, 64, 95
2, 325440, Note_off_c, 0, 59, 95
2, 325440, Note_off_c, 0, 55, 95
2, 325440, Note_off_c, 0, 52, 95
2, 325440, Note_off_c, 0, 47, 95
2, 325440, Note_off_c, 0, 40, 95
2, 325440, Note_on_c, 0, 64, 95
2, 325440, Note_on_c, 0, 59, 95
2, 325440, Note_on_c, 0, 55, 95
2, 325440, Note_on_c, 0, 52, 95
2, 325440, Note_on_c, 0, 47, 95
2, 325440, Note_on_c, 0, 40, 95
2, 326400, Note_off_c, 0, 64, 95
2, 326400, Note_off_c, 0, 59, 95
2, 326400, Note_off_c, 0, 55, 95
2, 326400, Note_off_c, 0, 52, 95
2, 326400, Note_off_c, 0, 47, 95
2, 326400, Note_off_c, 0, 40, 95
2, 326400, Note_on_c, 0, 71, 95
2, 326400, Note_on_c, 0, 66, 95
2, 326400, Note_on_c, 0, 63, 95
2, 326400, Note_on_c, 0, 59, 95
2, 326400, Note_on_c, 0, 54, 95
2, 326400, Note_on_c, 0, 47, 95
2, 327360, Note_off_c, 0, 71, 95
2, 327360, Note_off_c, 0, 66, 95
2, 327360, Note_off_c, 0, 63, 95
2, 327360, Note_off_c, 0, 59, 95
2, 327360, Note_off_c, 0, 54, 95
2, 327360, Note_off_c, 0, 47, 95
2, 327360, Note_on_c, 0, 71, 95
2, 327360, Note_on_c, 0, 66, 95
2, 327360, Note_on_c, 0, 63, 95
2, 327360, Note_on_c, 0, 59, 95
2, 327360, Note_on_c, 0, 54, 95
2, 327360, Note_on_c, 0, 47, 95
2, 327840, Note_off_c, 0, 71, 95
2, 327840, Note_off_c, 0, 66, 95
2, 327840, Note_off_c, 0, 63, 95
2, 327840, Note_off_c, 0, 59, 95
2, 327840, Note_off_c, 0, 54, 95
2, 327840, Note_off_c, 0, 47, 95
2, 327840, Note_on_c, 0, 71, 95
2, 327840, Note_on_c, 0, 66, 95
2, 327840, Note_on_c, 0, 63, 95
2, 327840, Note_on_c, 0, 59, 95
2, 327840, Note_on_c, 0, 54, 95
2, 327840, Note_on_c, 0, 47, 95
2, 328800, Note_off_c, 0, 71, 95
2, 328800, Note_off_c, 0, 66, 95
2, 328800, Note_off_c, 0, 63, 95
2, 328800, Note_off_c, 0, 59, 95
2, 328800, Note_off_c, 0, 54, 95
2, 328800, Note_off_c, 0, 47, 95
2, 328800, Note_on_c, 0, 71, 95
2, 328800, Note_on_c, 0, 66, 95
2, 328800, Note_on_c, 0, 63, 95
2, 328800, Note_on_c, 0, 59, 95
2, 328800, Note_on_c, 0, 54, 95
2, 328800, Note_on_c, 0, 47, 95
2, 329280, Note_off_c, 0, 71, 95
2, 329280, Note_off_c, 0, 66, 95
2, 329280, Note_off_c, 0, 63, 95
2, 329280, Note_off_c, 0, 59, 95
2, 329280, Note_off_c, 0, 54, 95
2, 329280, Note_off_c, 0, 47, 95
2, 329280, Note_on_c, 0, 71, 95
2, 329280, Note_on_c, 0, 66, 95
2, 329280, Note_on_c, 0, 63, 95
2, 329280, Note_on_c, 0, 59, 95
2, 329280, Note_on_c, 0, 54, 95
2, 329280, Note_on_c, 0, 47, 95
2, 329760, Note_off_c, 0, 71, 95
2, 329760, Note_off_c, 0, 66, 95
2, 329760, Note_off_c, 0, 63, 95
2, 329760, Note_off_c, 0, 59, 95
2, 329760, Note_off_c, 0, 54, 95
2, 329760, Note_off_c, 0, 47, 95
2, 329760, Note_on_c, 0, 71, 95
2, 329760, Note_on_c, 0, 66, 95
2, 329760, Note_on_c, 0, 63, 95
2, 329760, Note_on_c, 0, 59, 95
2, 329760, Note_on_c, 0, 54, 95
2, 329760, Note_on_c, 0, 47, 95
2, 330240, Note_off_c, 0, 71, 95
2, 330240, Note_off_c, 0, 66, 95
2, 330240, Note_off_c, 0, 63, 95
2, 330240, Note_off_c, 0, 59, 95
2, 330240, Note_off_c, 0, 54, 95
2, 330240, Note_off_c, 0, 47, 95
2, 330240, Note_on_c, 0, 56, 95
2, 330240, Note_on_c, 0, 44, 95
2, 330720, Note_off_c, 0, 56, 95
2, 330720, Note_off_c, 0, 44, 95
2, 330720, Note_on_c, 0, 68, 95
2, 331200, Note_off_c, 0, 68, 95
2, 331200, Note_on_c, 0, 63, 95
2, 331680, Note_off_c, 0, 63, 95
2, 331680, Note_on_c, 0, 71, 95
2, 332640, Note_off_c, 0, 71, 95
2, 332640, Note_on_c, 0, 68, 95
2, 333120, Note_off_c, 0, 68, 95
2, 333120, Note_on_c, 0, 63, 95
2, 333600, Note_off_c, 0, 63, 95
2, 333600, Note_on_c, 0, 70, 95
2, 334080, Note_off_c, 0, 70, 95
2, 334080, Note_on_c, 0, 44, 95
2, 334560, Note_off_c, 0, 44, 95
2, 334560, Note_on_c, 0, 68, 95
2, 335040, Note_off_c, 0, 68, 95
2, 335040, Note_on_c, 0, 63, 95
2, 335520, Note_off_c, 0, 63, 95
2, 335520, Note_on_c, 0, 66, 95
2, 336480, Note_off_c, 0, 66, 95
2, 336480, Note_on_c, 0, 68, 95
2, 337920, Note_off_c, 0, 68, 95
2, 338400, Note_on_c, 0, 71, 95
2, 338880, Note_off_c, 0, 71, 95
2, 338880, Note_on_c, 0, 70, 95
2, 339360, Note_off_c, 0, 70, 95
2, 339360, Note_on_c, 0, 68, 95
2, 339840, Note_off_c, 0, 68, 95
2, 339840, Note_on_c, 0, 70, 95
2, 340320, Note_off_c, 0, 70, 95
2, 340320, Note_on_c, 0, 68, 95
2, 340800, Note_off_c, 0, 68, 95
2, 340800, Note_on_c, 0, 66, 95
2, 341280, Note_off_c, 0, 66, 95
2, 341280, Note_on_c, 0, 63, 95
2, 341760, Note_off_c, 0, 63, 95
2, 341760, Note_on_c, 1, 66, 95
2, 341880, Pitch_bend_c, 1, 7936
2, 342000, Pitch_bend_c, 1, 7680
2, 342120, Pitch_bend_c, 1, 7424
2, 342240, Pitch_bend_c, 1, 7168
2, 342360, Pitch_bend_c, 1, 6912
2, 342480, Pitch_bend_c, 1, 6656
2, 342600, Pitch_bend_c, 1, 6400
2, 342720, Pitch_bend_c, 1, 6144
2, 342720, Pitch_bend_c, 1, 8192
2, 342720, Note_off_c, 1, 66, 95
2, 342720, Note_on_c, 0, 63, 95
2, 342720, Note_on_c, 0, 59, 95
2, 343200, Note_off_c, 0, 63, 95
2, 343200, Note_off_c, 0, 59, 95
2, 343680, Note_on_c, 0, 63, 95
2, 343680, Note_on_c, 0, 59, 95
2, 344160, Note_off_c, 0, 63, 95
2, 344160, Note_off_c, 0, 59, 95
2, 344160, Note_on_c, 0, 64, 70
2, 344160, Note_on_c, 0, 61, 95
2, 344640, Note_off_c, 0, 64, 70
2, 344640, Note_off_c, 0, 61, 95
2, 344640, Note_on_c, 0, 63, 95
2, 344640, Note_on_c, 0, 59, 95
2, 346080, Note_off_c, 0, 63, 95
2, 346080, Note_off_c, 0, 59, 95
2, 346080, Note_on_c, 0, 75, 95
2, 346560, Note_off_c, 0, 75, 95
2, 346560, Note_on_c, 0, 73, 70
2, 347040, Note_off_c, 0, 73, 70
2, 347040, Note_on_c, 0, 71, 95
2, 347520, Note_off_c, 0, 71, 95
2, 347520, Note_on_c, 0, 73, 95
2, 348000, Note_off_c, 0, 73, 95
2, 348000, Note_on_c, 0, 71, 95
2, 348480, Note_off_c, 0, 71, 95
2, 348480, Note_on_c, 0, 68, 70
2, 348960, Note_off_c, 0, 68, 70
2, 348960, Note_on_c, 0, 66, 95
2, 349440, Note_off_c, 0, 66, 95
2, 349440, Note_on_c, 1, 68, 95
2, 349600, Pitch_bend_c, 1, 8192
2, 349760, Pitch_bend_c, 1, 8320
2, 349920, Pitch_bend_c, 1, 8192
2, 350080, Pitch_bend_c, 1, 8320
2, 350240, Pitch_bend_c, 1, 8192
2, 350400, Pitch_bend_c, 1, 8320
2, 350560, Pitch_bend_c, 1, 8192
2, 350720, Pitch_bend_c, 1, 8320
2, 350880, Pitch_bend_c, 1, 8192
2, 350880, Pitch_bend_c, 1, 8320
2, 350880, Pitch_bend_c, 1, 8192
2, 350880, Note_off_c, 1, 68, 95
2, 350880, Note_on_c, 0, 66, 95
2, 351360, Note_off_c, 0, 66, 95
2, 351360, Note_on_c, 0, 68, 95
2, 351840, Note_off_c, 0, 68, 95
2, 351840, Note_on_c, 0, 71, 95
2, 352320, Note_off_c, 0, 71, 95
2, 352320, Note_on_c, 0, 68, 70
2, 352800, Note_off_c, 0, 68, 70
2, 352800, Note_on_c, 0, 66, 95
2, 353760, Note_off_c, 0, 66, 95
2, 353760, Note_on_c, 0, 63, 95
2, 354240, Note_off_c, 0, 63, 95
2, 354240, Note_on_c, 0, 61, 95
2, 354720, Note_off_c, 0, 61, 95
2, 354720, Note_on_c, 0, 63, 95
2, 355200, Note_off_c, 0, 63, 95
2, 355200, Note_on_c, 0, 64, 95
2, 355680, Note_off_c, 0, 64, 95
2, 355680, Note_on_c, 0, 63, 95
2, 356160, Note_off_c, 0, 63, 95
2, 356160, Note_on_c, 0, 61, 95
2, 356640, Note_off_c, 0, 61, 95
2, 356640, Note_on_c, 1, 59, 95
2, 356760, Pitch_bend_c, 1, 8192
2, 356880, Pitch_bend_c, 1, 8192
2, 357000, Pitch_bend_c, 1, 8192
2, 357120, Pitch_bend_c, 1, 8192
2, 357120, Pitch_bend_c, 1, 8192
2, 358080, Note_off_c, 1, 59, 95
2, 358080, Note_on_c, 0, 71, 95
2, 358080, Note_on_c, 0, 66, 95
2, 358560, Note_off_c, 0, 71, 95
2, 358560, Note_off_c, 0, 66, 95
2, 359040, Note_on_c, 0, 71, 95
2, 359040, Note_on_c, 0, 66, 95
2, 359520, Note_off_c, 0, 71, 95
2, 359520, Note_off_c, 0, 66, 95
2, 360000, Note_on_c, 0, 71, 95
2, 360000, Note_on_c, 0, 66, 95
2, 360480, Note_off_c, 0, 71, 95
2, 360480, Note_off_c, 0, 66, 95
2, 360960, Note_on_c, 0, 80, 95
2, 361200, Note_off_c, 0, 80, 95
2, 361200, Note_on_c, 0, 78, 70
2, 361440, Note_off_c, 0, 78, 70
2, 361440, Note_on_c, 0, 80, 95
2, 361680, Note_off_c, 0, 80, 95
2, 361680, Note_on_c, 0, 78, 70
2, 361920, Note_off_c, 0, 78, 70
2, 361920, Note_on_c, 0, 80, 95
2, 362160, Note_off_c, 0, 80, 95
2, 362160, Note_on_c, 0, 78, 70
2, 362400, Note_off_c, 0, 78, 70
2, 362400, Note_on_c, 0, 75, 95
2, 362640, Note_off_c, 0, 75, 95
2, 362640, Note_on_c, 0, 73, 70
2, 362880, Note_off_c, 0, 73, 70
2, 362880, Note_on_c, 0, 75, 95
2, 363120, Note_off_c, 0, 75, 95
2, 363120, Note_on_c, 0, 73, 70
2, 363360, Note_off_c, 0, 73, 70
2, 363360, Note_on_c, 0, 71, 95
2, 363840, Note_off_c, 0, 71, 95
2, 363840, Note_on_c, 0, 68, 95
2, 364800, Note_off_c, 0, 68, 95
2, 364800, Note_on_c, 0, 68, 95
2, 365280, Note_off_c, 0, 68, 95
2, 365280, Note_on_c, 0, 70, 70
2, 365760, Note_off_c, 0, 70, 70
2, 365760, Note_on_c, 1, 70, 95
2, 365880, Pitch_bend_c, 1, 8320
2, 366000, Pitch_bend_c, 1, 8448
2, 366120, Pitch_bend_c, 1, 8704
2, 366240, Pitch_bend_c, 1, 8832
2, 366240, Pitch_bend_c, 1, 8192
2, 366240, Note_off_c, 1, 70, 95
2, 366240, Note_on_c, 0, 71, 95
2, 366720, Note_off_c, 0, 71, 95
2, 366720, Note_on_c, 1, 71, 95
2, 366840, Pitch_bend_c, 1, 8448
2, 366960, Pitch_bend_c, 1, 8832
2, 367080, Pitch_bend_c, 1, 9216
2, 367200, Pitch_bend_c, 1, 9600
2, 367200, Pitch_bend_c, 1, 8192
2, 367200, Note_off_c, 1, 71, 95
2, 367200, Note_on_c, 0, 73, 95
2, 367680, Note_off_c, 0, 73, 95
2, 367680, Note_on_c, 1, 73, 95
2, 367800, Pitch_bend_c, 1, 8448
2, 367920, Pitch_bend_c, 1, 8832
2, 368040, Pitch_bend_c, 1, 9216
2, 368160, Pitch_bend_c, 1, 9600
2, 368160, Pitch_bend_c, 1, 8192
2, 368160, Note_off_c, 1, 73, 95
2, 368160, Note_on_c, 0, 75, 95
2, 368640, Note_off_c, 0, 75, 95
2, 368640, Note_on_c, 1, 75, 95
2, 368760, Pitch_bend_c, 1, 7936
2, 368880, Pitch_bend_c, 1, 7552
2, 369000, Pitch_bend_c, 1, 7168
2, 369120, Pitch_bend_c, 1, 6784
2, 369120, Pitch_bend_c, 1, 8192
2, 369120, Note_off_c, 1, 75, 95
2, 369120, Note_on_c, 0, 73, 95
2, 369600, Note_off_c, 0, 73, 95
2, 369600, Note_on_c, 1, 73, 95
2, 369720, Pitch_bend_c, 1, 7936
2, 369840, Pitch_bend_c, 1, 7552
2, 369960, Pitch_bend_c, 1, 7168
2, 370080, Pitch_bend_c, 1, 6784
2, 370080, Pitch_bend_c, 1, 8192
2, 370080, Note_off_c, 1, 73, 95
2, 370080, Note_on_c, 0, 71, 95
2, 370560, Note_off_c, 0, 71, 95
2, 370560, Note_on_c, 1, 71, 95
2, 370680, Pitch_bend_c, 1, 8064
2, 370800, Pitch_bend_c, 1, 7936
2, 370920, Pitch_bend_c, 1, 7680
2, 371040, Pitch_bend_c, 1, 7552
2, 371040, Pitch_bend_c, 1, 8192
2, 371040, Note_off_c, 1, 71, 95
2, 371040, Note_on_c, 0, 70, 95
2, 371520, Note_off_c, 0, 70, 95
2, 371520, Note_on_c, 1, 70, 95
2, 371640, Pitch_bend_c, 1, 7936
2, 371760, Pitch_bend_c, 1, 7552
2, 371880, Pitch_bend_c, 1, 7168
2, 372000, Pitch_bend_c, 1, 6784
2, 372000, Pitch_bend_c, 1, 8192
2, 372000, Note_off_c, 1, 70, 95
2, 372000, Note_on_c, 0, 68, 95
2, 372480, Note_off_c, 0, 68, 95
2, 372480, Note_on_c, 1, 68, 95
2, 372600, Pitch_bend_c, 1, 7936
2, 372720, Pitch_bend_c, 1, 7552
2, 372840, Pitch_bend_c, 1, 7168
2, 372960, Pitch_bend_c, 1, 6784
2, 372960, Pitch_bend_c, 1, 8192
2, 372960, Note_off_c, 1, 68, 95
2, 372960, Note_on_c, 0, 66, 95
2, 373440, Note_off_c, 0, 66, 95
2, 373440, Note_on_c, 1, 66, 95
2, 373560, Pitch_bend_c, 1, 7936
2, 373680, Pitch_bend_c, 1, 7552
2, 373800, Pitch_bend_c, 1, 7168
2, 373920, Pitch_bend_c, 1, 6784
2, 373920, Pitch_bend_c, 1, 8192
2, 373920, Note_off_c, 1, 66, 95
2, 373920, Note_on_c, 0, 64, 95
2, 374400, Note_off_c, 0, 64, 95
2, 374400, Note_on_c, 1, 64, 95
2, 374520, Pitch_bend_c, 1, 8064
2, 374640, Pitch_bend_c, 1, 7936
2, 374760, Pitch_bend_c, 1, 7680
2, 374880, Pitch_bend_c, 1, 7552
2, 374880, Pitch_bend_c, 1, 8192
2, 374880, Note_off_c, 1, 64, 95
2, 374880, Note_on_c, 0, 63, 95
2, 375360, Note_off_c, 0, 63, 95
2, 375360, Note_on_c, 0, 63, 95
2, 375840, Note_off_c, 0, 63, 95
2, 375840, Note_on_c, 0, 61, 70
2, 376320, Note_off_c, 0, 61, 70
2, 376320, Note_on_c, 0, 63, 95
2, 376800, Note_off_c, 0, 63, 95
2, 376800, Note_on_c, 0, 64, 95
2, 377280, Note_off_c, 0, 64, 95
2, 377280, Note_on_c, 0, 63, 95
2, 377760, Note_off_c, 0, 63, 95
2, 377760, Note_on_c, 0, 61, 95
2, 378240, Note_off_c, 0, 61, 95
2, 378240, Note_on_c, 0, 63, 95
2, 378720, Note_off_c, 0, 63, 95
2, 378720, Note_on_c, 0, 64, 95
2, 379200, Note_off_c, 0, 64, 95
2, 379200, Note_on_c, 0, 63, 95
2, 379680, Note_off_c, 0, 63, 95
2, 379680, Note_on_c, 0, 61, 95
2, 380160, Note_off_c, 0, 61, 95
2, 380160, Note_on_c, 0, 64, 95
2, 380160, Note_on_c, 0, 59, 95
2, 380160, Note_on_c, 0, 56, 95
2, 380160, Note_on_c, 0, 52, 95
2, 380160, Note_on_c, 0, 47, 95
2, 380160, Note_on_c, 0, 40, 95
2, 381120, Note_off_c, 0, 64, 95
2, 381120, Note_off_c, 0, 59, 95
2, 381120, Note_off_c, 0, 56, 95
2, 381120, Note_off_c, 0, 52, 95
2, 381120, Note_off_c, 0, 47, 95
2, 381120, Note_off_c, 0, 40, 95
2, 381120, Note_on_c, 0, 64, 95
2, 381120, Note_on_c, 0, 59, 95
2, 381120, Note_on_c, 0, 56, 95
2, 381120, Note_on_c, 0, 52, 95
2, 381120, Note_on_c, 0, 47, 95
2, 381120, Note_on_c, 0, 40, 95
2, 381600, Note_off_c, 0, 64, 95
2, 381600, Note_off_c, 0, 59, 95
2, 381600, Note_off_c, 0, 56, 95
2, 381600, Note_off_c, 0, 52, 95
2, 381600, Note_off_c, 0, 47, 95
2, 381600, Note_off_c, 0, 40, 95
2, 381600, Note_on_c, 0, 64, 95
2, 381600, Note_on_c, 0, 59, 95
2, 381600, Note_on_c, 0, 56, 95
2, 381600, Note_on_c, 0, 52, 95
2, 381600, Note_on_c, 0, 47, 95
2, 381600, Note_on_c, 0, 40, 95
2, 382560, Note_off_c, 0, 64, 95
2, 382560, Note_off_c, 0, 59, 95
2, 382560, Note_off_c, 0, 56, 95
2, 382560, Note_off_c, 0, 52, 95
2, 382560, Note_off_c, 0, 47, 95
2, 382560, Note_off_c, 0, 40, 95
2, 382560, Note_on_c, 0, 64, 95
2, 382560, Note_on_c, 0, 59, 95
2, 382560, Note_on_c, 0, 56, 95
2, 382560, Note_on_c, 0, 52, 95
2, 382560, Note_on_c, 0, 47, 95
2, 382560, Note_on_c, 0, 40, 95
2, 383040, Note_off_c, 0, 64, 95
2, 383040, Note_off_c, 0, 59, 95
2, 383040, Note_off_c, 0, 56, 95
2, 383040, Note_off_c, 0, 52, 95
2, 383040, Note_off_c, 0, 47, 95
2, 383040, Note_off_c, 0, 40, 95
2, 383040, Note_on_c, 0, 64, 95
2, 383040, Note_on_c, 0, 59, 95
2, 383040, Note_on_c, 0, 56, 95
2, 383040, Note_on_c, 0, 52, 95
2, 383040, Note_on_c, 0, 47, 95
2, 383040, Note_on_c, 0, 40, 95
2, 383520, Note_off_c, 0, 64, 95
2, 383520, Note_off_c, 0, 59, 95
2, 383520, Note_off_c, 0, 56, 95
2, 383520, Note_off_c, 0, 52, 95
2, 383520, Note_off_c, 0, 47, 95
2, 383520, Note_off_c, 0, 40, 95
2, 383520, Note_on_c, 0, 64, 95
2, 383520, Note_on_c, 0, 59, 95
2, 383520, Note_on_c, 0, 55, 95
2, 383520, Note_on_c, 0, 52, 95
2, 383520, Note_on_c, 0, 47, 95
2, 383520, Note_on_c, 0, 40, 95
2, 384000, Note_off_c, 0, 64, 95
2, 384000, Note_off_c, 0, 59, 95
2, 384000, Note_off_c, 0, 55, 95
2, 384000, Note_off_c, 0, 52, 95
2, 384000, Note_off_c, 0, 47, 95
2, 384000, Note_off_c, 0, 40, 95
2, 384000, Note_on_c, 0, 64, 95
2, 384000, Note_on_c, 0, 59, 95
2, 384000, Note_on_c, 0, 55, 95
2, 384000, Note_on_c, 0, 52, 95
2, 384000, Note_on_c, 0, 47, 95
2, 384000, Note_on_c, 0, 40, 95
2, 384960, Note_off_c, 0, 64, 95
2, 384960, Note_off_c, 0, 59, 95
2, 384960, Note_off_c, 0, 55, 95
2, 384960, Note_off_c, 0, 52, 95
2, 384960, Note_off_c, 0, 47, 95
2, 384960, Note_off_c, 0, 40, 95
2, 384960, Note_on_c, 0, 64, 95
2, 384960, Note_on_c, 0, 59, 95
2, 384960, Note_on_c, 0, 55, 95
2, 384960, Note_on_c, 0, 52, 95
2, 384960, Note_on_c, 0, 47, 95
2, 384960, Note_on_c, 0, 40, 95
2, 385440, Note_off_c, 0, 64, 95
2, 385440, Note_off_c, 0, 59, 95
2, 385440, Note_off_c, 0, 55, 95
2, 385440, Note_off_c, 0, 52, 95
2, 385440, Note_off_c, 0, 47, 95
2, 385440, Note_off_c, 0, 40, 95
2, 385440, Note_on_c, 0, 64, 95
2, 385440, Note_on_c, 0, 59, 95
2, 385440, Note_on_c, 0, 55, 95
2, 385440, Note_on_c, 0, 52, 95
2, 385440, Note_on_c, 0, 47, 95
2, 385440, Note_on_c, 0, 40, 95
2, 386400, Note_off_c, 0, 64, 95
2, 386400, Note_off_c, 0, 59, 95
2, 386400, Note_off_c, 0, 55, 95
2, 386400, Note_off_c, 0, 52, 95
2, 386400, Note_off_c, 0, 47, 95
2, 386400, Note_off_c, 0, 40, 95
2, 386400, Note_on_c, 0, 64, 95
2, 386400, Note_on_c, 0, 59, 95
2, 386400, Note_on_c, 0, 55, 95
2, 386400, Note_on_c, 0, 52, 95
2, 386400, Note_on_c, 0, 47, 95
2, 386400, Note_on_c, 0, 40, 95
2, 386880, Note_off_c, 0, 64, 95
2, 386880, Note_off_c, 0, 59, 95
2, 386880, Note_off_c, 0, 55, 95
2, 386880, Note_off_c, 0, 52, 95
2, 386880, Note_off_c, 0, 47, 95
2, 386880, Note_off_c, 0, 40, 95
2, 386880, Note_on_c, 0, 64, 95
2, 386880, Note_on_c, 0, 59, 95
2, 386880, Note_on_c, 0, 55, 95
2, 386880, Note_on_c, 0, 52, 95
2, 386880, Note_on_c, 0, 47, 95
2, 386880, Note_on_c, 0, 40, 95
2, 387840, Note_off_c, 0, 64, 95
2, 387840, Note_off_c, 0, 59, 95
2, 387840, Note_off_c, 0, 55, 95
2, 387840, Note_off_c, 0, 52, 95
2, 387840, Note_off_c, 0, 47, 95
2, 387840, Note_off_c, 0, 40, 95
2, 387840, Note_on_c, 0, 71, 95
2, 387840, Note_on_c, 0, 66, 95
2, 387840, Note_on_c, 0, 63, 95
2, 387840, Note_on_c, 0, 59, 95
2, 387840, Note_on_c, 0, 54, 95
2, 387840, Note_on_c, 0, 47, 95
2, 388800, Note_off_c, 0, 71, 95
2, 388800, Note_off_c, 0, 66, 95
2, 388800, Note_off_c, 0, 63, 95
2, 388800, Note_off_c, 0, 59, 95
2, 388800, Note_off_c, 0, 54, 95
2, 388800, Note_off_c, 0, 47, 95
2, 388800, Note_on_c, 0, 71, 95
2, 388800, Note_on_c, 0, 66, 95
2, 388800, Note_on_c, 0, 63, 95
2, 388800, Note_on_c, 0, 59, 95
2, 388800, Note_on_c, 0, 54, 95
2, 388800, Note_on_c, 0, 47, 95
2, 389280, Note_off_c, 0, 71, 95
2, 389280, Note_off_c, 0, 66, 95
2, 389280, Note_off_c, 0, 63, 95
2, 389280, Note_off_c, 0, 59, 95
2, 389280, Note_off_c, 0, 54, 95
2, 389280, Note_off_c, 0, 47, 95
2, 389280, Note_on_c, 0, 71, 95
2, 389280, Note_on_c, 0, 66, 95
2, 389280, Note_on_c, 0, 63, 95
2, 389280, Note_on_c, 0, 59, 95
2, 389280, Note_on_c, 0, 54, 95
2, 389280, Note_on_c, 0, 47, 95
2, 390240, Note_off_c, 0, 71, 95
2, 390240, Note_off_c, 0, 66, 95
2, 390240, Note_off_c, 0, 63, 95
2, 390240, Note_off_c, 0, 59, 95
2, 390240, Note_off_c, 0, 54, 95
2, 390240, Note_off_c, 0, 47, 95
2, 390240, Note_on_c, 0, 71, 95
2, 390240, Note_on_c, 0, 66, 95
2, 390240, Note_on_c, 0, 63, 95
2, 390240, Note_on_c, 0, 59, 95
2, 390240, Note_on_c, 0, 54, 95
2, 390240, Note_on_c, 0, 47, 95
2, 390720, Note_off_c, 0, 71, 95
2, 390720, Note_off_c, 0, 66, 95
2, 390720, Note_off_c, 0, 63, 95
2, 390720, Note_off_c, 0, 59, 95
2, 390720, Note_off_c, 0, 54, 95
2, 390720, Note_off_c, 0, 47, 95
2, 390720, Note_on_c, 0, 71, 95
2, 390720, Note_on_c, 0, 66, 95
2, 390720, Note_on_c, 0, 63, 95
2, 390720, Note_on_c, 0, 59, 95
2, 390720, Note_on_c, 0, 54, 95
2, 390720, Note_on_c, 0, 47, 95
2, 391200, Note_off_c, 0, 71, 95
2, 391200, Note_off_c, 0, 66, 95
2, 391200, Note_off_c, 0, 63, 95
2, 391200, Note_off_c, 0, 59, 95
2, 391200, Note_off_c, 0, 54, 95
2, 391200, Note_off_c, 0, 47, 95
2, 391200, Note_on_c, 0, 71, 95
2, 391200, Note_on_c, 0, 66, 95
2, 391200, Note_on_c, 0, 63, 95
2, 391200, Note_on_c, 0, 59, 95
2, 391200, Note_on_c, 0, 54, 95
2, 391200, Note_on_c, 0, 47, 95
2, 391680, Note_off_c, 0, 71, 95
2, 391680, Note_off_c, 0, 66, 95
2, 391680, Note_off_c, 0, 63, 95
2, 391680, Note_off_c, 0, 59, 95
2, 391680, Note_off_c, 0, 54, 95
2, 391680, Note_off_c, 0, 47, 95
2, 391680, Note_on_c, 0, 71, 95
2, 391680, Note_on_c, 0, 66, 95
2, 391680, Note_on_c, 0, 63, 95
2, 391680, Note_on_c, 0, 59, 95
2, 391680, Note_on_c, 0, 54, 95
2, 391680, Note_on_c, 0, 47, 95
2, 392640, Note_off_c, 0, 71, 95
2, 392640, Note_off_c, 0, 66, 95
2, 392640, Note_off_c, 0, 63, 95
2, 392640, Note_off_c, 0, 59, 95
2, 392640, Note_off_c, 0, 54, 95
2, 392640, Note_off_c, 0, 47, 95
2, 392640, Note_on_c, 0, 71, 95
2, 392640, Note_on_c, 0, 66, 95
2, 392640, Note_on_c, 0, 63, 95
2, 392640, Note_on_c, 0, 59, 95
2, 392640, Note_on_c, 0, 54, 95
2, 392640, Note_on_c, 0, 47, 95
2, 393120, Note_off_c, 0, 71, 95
2, 393120, Note_off_c, 0, 66, 95
2, 393120, Note_off_c, 0, 63, 95
2, 393120, Note_off_c, 0, 59, 95
2, 393120, Note_off_c, 0, 54, 95
2, 393120, Note_off_c, 0, 47, 95
2, 393120, Note_on_c, 0, 71, 95
2, 393120, Note_on_c, 0, 66, 95
2, 393120, Note_on_c, 0, 63, 95
2, 393120, Note_on_c, 0, 59, 95
2, 393120, Note_on_c, 0, 54, 95
2, 393120, Note_on_c, 0, 47, 95
2, 394080, Note_off_c, 0, 71, 95
2, 394080, Note_off_c, 0, 66, 95
2, 394080, Note_off_c, 0, 63, 95
2, 394080, Note_off_c, 0, 59, 95
2, 394080, Note_off_c, 0, 54, 95
2, 394080, Note_off_c, 0, 47, 95
2, 394080, Note_on_c, 0, 71, 95
2, 394080, Note_on_c, 0, 66, 95
2, 394080, Note_on_c, 0, 63, 95
2, 394080, Note_on_c, 0, 59, 95
2, 394080, Note_on_c, 0, 54, 95
2, 394080, Note_on_c, 0, 47, 95
2, 394560, Note_off_c, 0, 71, 95
2, 394560, Note_off_c, 0, 66, 95
2, 394560, Note_off_c, 0, 63, 95
2, 394560, Note_off_c, 0, 59, 95
2, 394560, Note_off_c, 0, 54, 95
2, 394560, Note_off_c, 0, 47, 95
2, 394560, Note_on_c, 0, 71, 95
2, 394560, Note_on_c, 0, 66, 95
2, 394560, Note_on_c, 0, 63, 95
2, 394560, Note_on_c, 0, 59, 95
2, 394560, Note_on_c, 0, 54, 95
2, 394560, Note_on_c, 0, 47, 95
2, 395040, Note_off_c, 0, 71, 95
2, 395040, Note_off_c, 0, 66, 95
2, 395040, Note_off_c, 0, 63, 95
2, 395040, Note_off_c, 0, 59, 95
2, 395040, Note_off_c, 0, 54, 95
2, 395040, Note_off_c, 0, 47, 95
2, 395040, Note_on_c, 0, 71, 95
2, 395040, Note_on_c, 0, 66, 95
2, 395040, Note_on_c, 0, 63, 95
2, 395040, Note_on_c, 0, 59, 95
2, 395040, Note_on_c, 0, 54, 95
2, 395040, Note_on_c, 0, 47, 95
2, 395520, Note_off_c, 0, 71, 95
2, 395520, Note_off_c, 0, 66, 95
2, 395520, Note_off_c, 0, 63, 95
2, 395520, Note_off_c, 0, 59, 95
2, 395520, Note_off_c, 0, 54, 95
2, 395520, Note_off_c, 0, 47, 95
2, 395520, Note_on_c, 0, 64, 95
2, 395520, Note_on_c, 0, 59, 95
2, 395520, Note_on_c, 0, 56, 95
2, 395520, Note_on_c, 0, 52, 95
2, 395520, Note_on_c, 0, 47, 95
2, 395520, Note_on_c, 0, 40, 95
2, 396480, Note_off_c, 0, 64, 95
2, 396480, Note_off_c, 0, 59, 95
2, 396480, Note_off_c, 0, 56, 95
2, 396480, Note_off_c, 0, 52, 95
2, 396480, Note_off_c, 0, 47, 95
2, 396480, Note_off_c, 0, 40, 95
2, 396480, Note_on_c, 0, 64, 95
2, 396480, Note_on_c, 0, 59, 95
2, 396480, Note_on_c, 0, 56, 95
2, 396480, Note_on_c, 0, 52, 95
2, 396480, Note_on_c, 0, 47, 95
2, 396480, Note_on_c, 0, 40, 95
2, 396960, Note_off_c, 0, 64, 95
2, 396960, Note_off_c, 0, 59, 95
2, 396960, Note_off_c, 0, 56, 95
2, 396960, Note_off_c, 0, 52, 95
2, 396960, Note_off_c, 0, 47, 95
2, 396960, Note_off_c, 0, 40, 95
2, 396960, Note_on_c, 0, 64, 95
2, 396960, Note_on_c, 0, 59, 95
2, 396960, Note_on_c, 0, 56, 95
2, 396960, Note_on_c, 0, 52, 95
2, 396960, Note_on_c, 0, 47, 95
2, 396960, Note_on_c, 0, 40, 95
2, 397920, Note_off_c, 0, 64, 95
2, 397920, Note_off_c, 0, 59, 95
2, 397920, Note_off_c, 0, 56, 95
2, 397920, Note_off_c, 0, 52, 95
2, 397920, Note_off_c, 0, 47, 95
2, 397920, Note_off_c, 0, 40, 95
2, 397920, Note_on_c, 0, 64, 95
2, 397920, Note_on_c, 0, 59, 95
2, 397920, Note_on_c, 0, 56, 95
2, 397920, Note_on_c, 0, 52, 95
2, 397920, Note_on_c, 0, 47, 95
2, 397920, Note_on_c, 0, 40, 95
2, 398400, Note_off_c, 0, 64, 95
2, 398400, Note_off_c, 0, 59, 95
2, 398400, Note_off_c, 0, 56, 95
2, 398400, Note_off_c, 0, 52, 95
2, 398400, Note_off_c, 0, 47, 95
2, 398400, Note_off_c, 0, 40, 95
2, 398400, Note_on_c, 0, 64, 95
2, 398400, Note_on_c, 0, 59, 95
2, 398400, Note_on_c, 0, 56, 95
2, 398400, Note_on_c, 0, 52, 95
2, 398400, Note_on_c, 0, 47, 95
2, 398400, Note_on_c, 0, 40, 95
2, 398880, Note_off_c, 0, 64, 95
2, 398880, Note_off_c, 0, 59, 95
2, 398880, Note_off_c, 0, 56, 95
2, 398880, Note_off_c, 0, 52, 95
2, 398880, Note_off_c, 0, 47, 95
2, 398880, Note_off_c, 0, 40, 95
2, 398880, Note_on_c, 0, 64, 95
2, 398880, Note_on_c, 0, 59, 95
2, 398880, Note_on_c, 0, 55, 95
2, 398880, Note_on_c, 0, 52, 95
2, 398880, Note_on_c, 0, 47, 95
2, 398880, Note_on_c, 0, 40, 95
2, 399360, Note_off_c, 0, 64, 95
2, 399360, Note_off_c, 0, 59, 95
2, 399360, Note_off_c, 0, 55, 95
2, 399360, Note_off_c, 0, 52, 95
2, 399360, Note_off_c, 0, 47, 95
2, 399360, Note_off_c, 0, 40, 95
2, 399360, Note_on_c, 0, 64, 95
2, 399360, Note_on_c, 0, 59, 95
2, 399360, Note_on_c, 0, 55, 95
2, 399360, Note_on_c, 0, 52, 95
2, 399360, Note_on_c, 0, 47, 95
2, 399360, Note_on_c, 0, 40, 95
2, 400320, Note_off_c, 0, 64, 95
2, 400320, Note_off_c, 0, 59, 95
2, 400320, Note_off_c, 0, 55, 95
2, 400320, Note_off_c, 0, 52, 95
2, 400320, Note_off_c, 0, 47, 95
2, 400320, Note_off_c, 0, 40, 95
2, 400320, Note_on_c, 0, 64, 95
2, 400320, Note_on_c, 0, 59, 95
2, 400320, Note_on_c, 0, 55, 95
2, 400320, Note_on_c, 0, 52, 95
2, 400320, Note_on_c, 0, 47, 95
2, 400320, Note_on_c, 0, 40, 95
2, 400800, Note_off_c, 0, 64, 95
2, 400800, Note_off_c, 0, 59, 95
2, 400800, Note_off_c, 0, 55, 95
2, 400800, Note_off_c, 0, 52, 95
2, 400800, Note_off_c, 0, 47, 95
2, 400800, Note_off_c, 0, 40, 95
2, 400800, Note_on_c, 0, 64, 95
2, 400800, Note_on_c, 0, 59, 95
2, 400800, Note_on_c, 0, 55, 95
2, 400800, Note_on_c, 0, 52, 95
2, 400800, Note_on_c, 0, 47, 95
2, 400800, Note_on_c, 0, 40, 95
2, 401760, Note_off_c, 0, 64, 95
2, 401760, Note_off_c, 0, 59, 95
2, 401760, Note_off_c, 0, 55, 95
2, 401760, Note_off_c, 0, 52, 95
2, 401760, Note_off_c, 0, 47, 95
2, 401760, Note_off_c, 0, 40, 95
2, 401760, Note_on_c, 0, 64, 95
2, 401760, Note_on_c, 0, 59, 95
2, 401760, Note_on_c, 0, 55, 95
2, 401760, Note_on_c, 0, 52, 95
2, 401760, Note_on_c, 0, 47, 95
2, 401760, Note_on_c, 0, 40, 95
2, 402240, Note_off_c, 0, 64, 95
2, 402240, Note_off_c, 0, 59, 95
2, 402240, Note_off_c, 0, 55, 95
2, 402240, Note_off_c, 0, 52, 95
2, 402240, Note_off_c, 0, 47, 95
2, 402240, Note_off_c, 0, 40, 95
2, 402240, Note_on_c, 0, 64, 95
2, 402240, Note_on_c, 0, 59, 95
2, 402240, Note_on_c, 0, 55, 95
2, 402240, Note_on_c, 0, 52, 95
2, 402240, Note_on_c, 0, 47, 95
2, 402240, Note_on_c, 0, 40, 95
2, 403200, Note_off_c, 0, 64, 95
2, 403200, Note_off_c, 0, 59, 95
2, 403200, Note_off_c, 0, 55, 95
2, 403200, Note_off_c, 0, 52, 95
2, 403200, Note_off_c, 0, 47, 95
2, 403200, Note_off_c, 0, 40, 95
2, 403200, Note_on_c, 0, 71, 95
2, 403200, Note_on_c, 0, 66, 95
2, 403200, Note_on_c, 0, 63, 95
2, 403200, Note_on_c, 0, 59, 95
2, 403200, Note_on_c, 0, 54, 95
2, 403200, Note_on_c, 0, 47, 95
2, 404160, Note_off_c, 0, 71, 95
2, 404160, Note_off_c, 0, 66, 95
2, 404160, Note_off_c, 0, 63, 95
2, 404160, Note_off_c, 0, 59, 95
2, 404160, Note_off_c, 0, 54, 95
2, 404160, Note_off_c, 0, 47, 95
2, 404160, Note_on_c, 0, 71, 95
2, 404160, Note_on_c, 0, 66, 95
2, 404160, Note_on_c, 0, 63, 95
2, 404160, Note_on_c, 0, 59, 95
2, 404160, Note_on_c, 0, 54, 95
2, 404160, Note_on_c, 0, 47, 95
2, 404640, Note_off_c, 0, 71, 95
2, 404640, Note_off_c, 0, 66, 95
2, 404640, Note_off_c, 0, 63, 95
2, 404640, Note_off_c, 0, 59, 95
2, 404640, Note_off_c, 0, 54, 95
2, 404640, Note_off_c, 0, 47, 95
2, 404640, Note_on_c, 0, 71, 95
2, 404640, Note_on_c, 0, 66, 95
2, 404640, Note_on_c, 0, 63, 95
2, 404640, Note_on_c, 0, 59, 95
2, 404640, Note_on_c, 0, 54, 95
2, 404640, Note_on_c, 0, 47, 95
2, 405600, Note_off_c, 0, 71, 95
2, 405600, Note_off_c, 0, 66, 95
2, 405600, Note_off_c, 0, 63, 95
2, 405600, Note_off_c, 0, 59, 95
2, 405600, Note_off_c, 0, 54, 95
2, 405600, Note_off_c, 0, 47, 95
2, 405600, Note_on_c, 0, 71, 95
2, 405600, Note_on_c, 0, 66, 95
2, 405600, Note_on_c, 0, 63, 95
2, 405600, Note_on_c, 0, 59, 95
2, 405600, Note_on_c, 0, 54, 95
2, 405600, Note_on_c, 0, 47, 95
2, 406080, Note_off_c, 0, 71, 95
2, 406080, Note_off_c, 0, 66, 95
2, 406080, Note_off_c, 0, 63, 95
2, 406080, Note_off_c, 0, 59, 95
2, 406080, Note_off_c, 0, 54, 95
2, 406080, Note_off_c, 0, 47, 95
2, 406080, Note_on_c, 0, 71, 95
2, 406080, Note_on_c, 0, 66, 95
2, 406080, Note_on_c, 0, 63, 95
2, 406080, Note_on_c, 0, 59, 95
2, 406080, Note_on_c, 0, 54, 95
2, 406080, Note_on_c, 0, 47, 95
2, 406560, Note_off_c, 0, 71, 95
2, 406560, Note_off_c, 0, 66, 95
2, 406560, Note_off_c, 0, 63, 95
2, 406560, Note_off_c, 0, 59, 95
2, 406560, Note_off_c, 0, 54, 95
2, 406560, Note_off_c, 0, 47, 95
2, 406560, Note_on_c, 0, 71, 95
2, 406560, Note_on_c, 0, 66, 95
2, 406560, Note_on_c, 0, 63, 95
2, 406560, Note_on_c, 0, 59, 95
2, 406560, Note_on_c, 0, 54, 95
2, 406560, Note_on_c, 0, 47, 95
2, 407040, Note_off_c, 0, 71, 95
2, 407040, Note_off_c, 0, 66, 95
2, 407040, Note_off_c, 0, 63, 95
2, 407040, Note_off_c, 0, 59, 95
2, 407040, Note_off_c, 0, 54, 95
2, 407040, Note_off_c, 0, 47, 95
2, 407040, Note_on_c, 0, 59, 95
2, 407040, Note_on_c, 0, 56, 95
2, 407040, Note_on_c, 0, 51, 95
2, 407040, Note_on_c, 0, 44, 95
2, 408000, Note_off_c, 0, 59, 95
2, 408000, Note_off_c, 0, 56, 95
2, 408000, Note_off_c, 0, 51, 95
2, 408000, Note_off_c, 0, 44, 95
2, 408000, Note_on_c, 0, 56, 95
2, 408000, Note_on_c, 0, 51, 95
2, 408000, Note_on_c, 0, 44, 95
2, 408480, Note_off_c, 0, 56, 95
2, 408480, Note_off_c, 0, 51, 95
2, 408480, Note_off_c, 0, 44, 95
2, 408480, Note_on_c, 0, 42, 95
2, 408960, Note_off_c, 0, 42, 95
2, 408960, Note_on_c, 0, 59, 95
2, 408960, Note_on_c, 0, 56, 95
2, 408960, Note_on_c, 0, 51, 95
2, 408960, Note_on_c, 0, 44, 95
2, 409920, Note_off_c, 0, 59, 95
2, 409920, Note_off_c, 0, 56, 95
2, 409920, Note_off_c, 0, 51, 95
2, 409920, Note_off_c, 0, 44, 95
2, 409920, Note_on_c, 0, 56, 95
2, 409920, Note_on_c, 0, 51, 95
2, 409920, Note_on_c, 0, 44, 95
2, 410400, Note_off_c, 0, 56, 95
2, 410400, Note_off_c, 0, 51, 95
2, 410400, Note_off_c, 0, 44, 95
2, 410400, Note_on_c, 0, 42, 95
2, 410880, Note_off_c, 0, 42, 95
2, 410880, Note_on_c, 0, 59, 95
2, 410880, Note_on_c, 0, 56, 95
2, 410880, Note_on_c, 0, 51, 95
2, 410880, Note_on_c, 0, 44, 95
2, 411840, Note_off_c, 0, 59, 95
2, 411840, Note_off_c, 0, 56, 95
2, 411840, Note_off_c, 0, 51, 95
2, 411840, Note_off_c, 0, 44, 95
2, 411840, Note_on_c, 0, 44, 95
2, 412320, Note_off_c, 0, 44, 95
2, 412320, Note_on_c, 0, 54, 95
2, 412800, Note_off_c, 0, 54, 95
2, 412800, Note_on_c, 0, 56, 70
2, 413280, Note_off_c, 0, 56, 70
2, 413280, Note_on_c, 0, 59, 95
2, 413760, Note_off_c, 0, 59, 95
2, 413760, Note_on_c, 0, 61, 95
2, 414240, Note_off_c, 0, 61, 95
2, 414240, Note_on_c, 0, 59, 95
2, 414720, Note_off_c, 0, 59, 95
2, 414720, Note_on_c, 0, 68, 95
2, 414720, Note_on_c, 0, 63, 95
2, 415680, Note_off_c, 0, 68, 95
2, 415680, Note_off_c, 0, 63, 95
2, 415680, Note_on_c, 0, 66, 95
2, 416160, Note_off_c, 0, 66, 95
2, 416160, Note_on_c, 0, 63, 70
2, 416640, Note_off_c, 0, 63, 70
2, 416640, Note_on_c, 0, 66, 95
2, 417120, Note_off_c, 0, 66, 95
2, 417120, Note_on_c, 0, 63, 95
2, 417600, Note_off_c, 0, 63, 95
2, 417600, Note_on_c, 0, 61, 95
2, 418080, Note_off_c, 0, 61, 95
2, 418080, Note_on_c, 0, 59, 95
2, 418080, Note_on_c, 0, 54, 95
2, 418560, Note_off_c, 0, 59, 95
2, 418560, Note_off_c, 0, 54, 95
2, 418560, Note_on_c, 0, 47, 95
2, 419520, Note_off_c, 0, 47, 95
2, 419520, Note_on_c, 0, 59, 95
2, 419520, Note_on_c, 0, 54, 95
2, 419520, Note_on_c, 0, 47, 95
2, 420000, Note_off_c, 0, 59, 95
2, 420000, Note_off_c, 0, 54, 95
2, 420000, Note_off_c, 0, 47, 95
2, 420000, Note_on_c, 1, 54, 95
2, 420120, Pitch_bend_c, 1, 8448
2, 420240, Pitch_bend_c, 1, 8832
2, 420360, Pitch_bend_c, 1, 9216
2, 420480, Pitch_bend_c, 1, 9600
2, 420480, Pitch_bend_c, 1, 8192
2, 420480, Note_off_c, 1, 54, 95
2, 420480, Note_on_c, 0, 56, 95
2, 420960, Note_off_c, 0, 56, 95
2, 420960, Note_on_c, 0, 59, 95
2, 421440, Note_off_c, 0, 59, 95
2, 421440, Note_on_c, 0, 56, 95
2, 421680, Note_off_c, 0, 56, 95
2, 421680, Note_on_c, 0, 54, 70
2, 421920, Note_off_c, 0, 54, 70
2, 421920, Note_on_c, 0, 56, 95
2, 422400, Note_off_c, 0, 56, 95
2, 422880, Note_on_c, 0, 51, 95
2, 423360, Note_off_c, 0, 51, 95
2, 423360, Note_on_c, 0, 59, 95
2, 423360, Note_on_c, 0, 54, 95
2, 424080, Note_off_c, 0, 59, 95
2, 424080, Note_off_c, 0, 54, 95
2, 424080, Note_on_c, 0, 54, 95
2, 424080, Note_on_c, 0, 49, 95
2, 424146, Note_off_c, 0, 54, 95
2, 424146, Note_off_c, 0, 49, 95
2, 424320, Note_on_c, 0, 47, 95
2, 424800, Note_off_c, 0, 47, 95
2, 424800, Note_on_c, 0, 49, 95
2, 425280, Note_off_c, 0, 49, 95
2, 425280, Note_on_c, 0, 51, 95
2, 425760, Note_off_c, 0, 51, 95
2, 425760, Note_on_c, 0, 54, 95
2, 426240, Note_off_c, 0, 54, 95
2, 426240, Note_on_c, 0, 56, 70
2, 427200, Note_off_c, 0, 56, 70
2, 427200, Note_on_c, 0, 63, 95
2, 427200, Note_on_c, 0, 59, 95
2, 427920, Note_off_c, 0, 63, 95
2, 427920, Note_off_c, 0, 59, 95
2, 427920, Note_on_c, 1, 61, 95
2, 428040, Pitch_bend_c, 1, 8832
2, 428160, Pitch_bend_c, 1, 9600
2, 428160, Pitch_bend_c, 1, 8192
2, 428160, Note_off_c, 1, 61, 95
2, 428160, Note_on_c, 0, 63, 95
2, 428640, Note_off_c, 0, 63, 95
2, 428640, Note_on_c, 0, 66, 95
2, 429120, Note_off_c, 0, 66, 95
2, 429120, Note_on_c, 0, 68, 95
2, 429600, Note_off_c, 0, 68, 95
2, 429600, Note_on_c, 0, 71, 95
2, 430080, Note_off_c, 0, 71, 95
2, 430080, Note_on_c, 0, 68, 95
2, 431040, Note_off_c, 0, 68, 95
2, 431040, Note_on_c, 0, 66, 95
2, 431760, Note_off_c, 0, 66, 95
2, 431760, Note_on_c, 0, 63, 95
2, 432000, Note_off_c, 0, 63, 95
2, 432000, Note_on_c, 0, 66, 95
2, 432480, Note_off_c, 0, 66, 95
2, 432480, Note_on_c, 1, 63, 95
2, 432600, Pitch_bend_c, 1, 7936
2, 432720, Pitch_bend_c, 1, 7552
2, 432840, Pitch_bend_c, 1, 7168
2, 432960, Pitch_bend_c, 1, 6784
2, 432960, Pitch_bend_c, 1, 8192
2, 432960, Note_off_c, 1, 63, 95
2, 432960, Note_on_c, 0, 61, 95
2, 433440, Note_off_c, 0, 61, 95
2, 433440, Note_on_c, 0, 59, 95
2, 433920, Note_off_c, 0, 59, 95
2, 433920, Note_on_c, 0, 66, 95
2, 433920, Note_on_c, 0, 61, 95
2, 433920, Note_on_c, 0, 58, 95
2, 433920, Note_on_c, 0, 54, 95
2, 433920, Note_on_c, 0, 49, 95
2, 433920, Note_on_c, 0, 42, 95
2, 434880, Note_off_c, 0, 66, 95
2, 434880, Note_off_c, 0, 61, 95
2, 434880, Note_off_c, 0, 58, 95
2, 434880, Note_off_c, 0, 54, 95
2, 434880, Note_off_c, 0, 49, 95
2, 434880, Note_off_c, 0, 42, 95
2, 434880, Note_on_c, 0, 66, 95
2, 434880, Note_on_c, 0, 61, 95
2, 434880, Note_on_c, 0, 58, 95
2, 434880, Note_on_c, 0, 54, 95
2, 434880, Note_on_c, 0, 49, 95
2, 434880, Note_on_c, 0, 42, 95
2, 435360, Note_off_c, 0, 66, 95
2, 435360, Note_off_c, 0, 61, 95
2, 435360, Note_off_c, 0, 58, 95
2, 435360, Note_off_c, 0, 54, 95
2, 435360, Note_off_c, 0, 49, 95
2, 435360, Note_off_c, 0, 42, 95
2, 435360, Note_on_c, 0, 66, 95
2, 435360, Note_on_c, 0, 61, 95
2, 435360, Note_on_c, 0, 58, 95
2, 435360, Note_on_c, 0, 54, 95
2, 435360, Note_on_c, 0, 49, 95
2, 435360, Note_on_c, 0, 42, 95
2, 435600, Note_off_c, 0, 66, 95
2, 435600, Note_off_c, 0, 61, 95
2, 435600, Note_off_c, 0, 58, 95
2, 435600, Note_off_c, 0, 54, 95
2, 435600, Note_off_c, 0, 49, 95
2, 435600, Note_off_c, 0, 42, 95
2, 435600, Note_on_c, 0, 66, 95
2, 435600, Note_on_c, 0, 61, 95
2, 435600, Note_on_c, 0, 58, 95
2, 435600, Note_on_c, 0, 54, 95
2, 435600, Note_on_c, 0, 49, 95
2, 435600, Note_on_c, 0, 42, 95
2, 435840, Note_off_c, 0, 66, 95
2, 435840, Note_off_c, 0, 61, 95
2, 435840, Note_off_c, 0, 58, 95
2, 435840, Note_off_c, 0, 54, 95
2, 435840, Note_off_c, 0, 49, 95
2, 435840, Note_off_c, 0, 42, 95
2, 435840, Note_on_c, 0, 66, 95
2, 435840, Note_on_c, 0, 61, 95
2, 435840, Note_on_c, 0, 58, 95
2, 435840, Note_on_c, 0, 54, 95
2, 435840, Note_on_c, 0, 49, 95
2, 435840, Note_on_c, 0, 42, 95
2, 436320, Note_off_c, 0, 66, 95
2, 436320, Note_off_c, 0, 61, 95
2, 436320, Note_off_c, 0, 58, 95
2, 436320, Note_off_c, 0, 54, 95
2, 436320, Note_off_c, 0, 49, 95
2, 436320, Note_off_c, 0, 42, 95
2, 436320, Note_on_c, 0, 66, 95
2, 436320, Note_on_c, 0, 61, 95
2, 436320, Note_on_c, 0, 58, 95
2, 436320, Note_on_c, 0, 54, 95
2, 436320, Note_on_c, 0, 49, 95
2, 436320, Note_on_c, 0, 42, 95
2, 436800, Note_off_c, 0, 66, 95
2, 436800, Note_off_c, 0, 61, 95
2, 436800, Note_off_c, 0, 58, 95
2, 436800, Note_off_c, 0, 54, 95
2, 436800, Note_off_c, 0, 49, 95
2, 436800, Note_off_c, 0, 42, 95
2, 436800, Note_on_c, 0, 66, 95
2, 436800, Note_on_c, 0, 61, 95
2, 436800, Note_on_c, 0, 58, 95
2, 436800, Note_on_c, 0, 54, 95
2, 436800, Note_on_c, 0, 49, 95
2, 436800, Note_on_c, 0, 42, 95
2, 437280, Note_off_c, 0, 66, 95
2, 437280, Note_off_c, 0, 61, 95
2, 437280, Note_off_c, 0, 58, 95
2, 437280, Note_off_c, 0, 54, 95
2, 437280, Note_off_c, 0, 49, 95
2, 437280, Note_off_c, 0, 42, 95
2, 437280, Note_on_c, 0, 66, 95
2, 437280, Note_on_c, 0, 61, 95
2, 437280, Note_on_c, 0, 58, 95
2, 437280, Note_on_c, 0, 54, 95
2, 437280, Note_on_c, 0, 49, 95
2, 437280, Note_on_c, 0, 42, 95
2, 437760, Note_off_c, 0, 66, 95
2, 437760, Note_off_c, 0, 61, 95
2, 437760, Note_off_c, 0, 58, 95
2, 437760, Note_off_c, 0, 54, 95
2, 437760, Note_off_c, 0, 49, 95
2, 437760, Note_off_c, 0, 42, 95
2, 438240, Note_on_c, 0, 40, 95
2, 438720, Note_off_c, 0, 40, 95
2, 438720, Note_on_c, 0, 40, 95
2, 439200, Note_off_c, 0, 40, 95
2, 439200, Note_on_c, 0, 39, 95
2, 439680, Note_off_c, 0, 39, 95
2, 439680, Note_on_c, 0, 40, 95
2, 440160, Note_off_c, 0, 40, 95
2, 440160, Note_on_c, 0, 39, 95
2, 440640, Note_off_c, 0, 39, 95
2, 440640, Note_on_c, 0, 40, 95
2, 441120, Note_off_c, 0, 40, 95
2, 441120, Note_on_c, 0, 49, 95
2, 441600, Note_off_c, 0, 49, 95
2, 441600, Note_on_c, 0, 71, 95
2, 441600, Note_on_c, 0, 66, 95
2, 441600, Note_on_c, 0, 63, 95
2, 441600, Note_on_c, 0, 59, 95
2, 441600, Note_on_c, 0, 54, 95
2, 441600, Note_on_c, 0, 47, 95
2, 442560, Note_off_c, 0, 71, 95
2, 442560, Note_off_c, 0, 66, 95
2, 442560, Note_off_c, 0, 63, 95
2, 442560, Note_off_c, 0, 59, 95
2, 442560, Note_off_c, 0, 54, 95
2, 442560, Note_off_c, 0, 47, 95
2, 442560, Note_on_c, 0, 71, 95
2, 442560, Note_on_c, 0, 66, 95
2, 442560, Note_on_c, 0, 63, 95
2, 442560, Note_on_c, 0, 59, 95
2, 442560, Note_on_c, 0, 54, 95
2, 442560, Note_on_c, 0, 47, 95
2, 443040, Note_off_c, 0, 71, 95
2, 443040, Note_off_c, 0, 66, 95
2, 443040, Note_off_c, 0, 63, 95
2, 443040, Note_off_c, 0, 59, 95
2, 443040, Note_off_c, 0, 54, 95
2, 443040, Note_off_c, 0, 47, 95
2, 443040, Note_on_c, 0, 63, 95
2, 443040, Note_on_c, 0, 58, 95
2, 443040, Note_on_c, 0, 54, 95
2, 443040, Note_on_c, 0, 49, 95
2, 443040, Note_on_c, 0, 44, 95
2, 443040, Note_on_c, 0, 39, 95
2, 443106, Note_off_c, 0, 63, 95
2, 443106, Note_off_c, 0, 58, 95
2, 443106, Note_off_c, 0, 54, 95
2, 443106, Note_off_c, 0, 49, 95
2, 443106, Note_off_c, 0, 44, 95
2, 443106, Note_off_c, 0, 39, 95
2, 443520, Note_on_c, 0, 63, 95
2, 443520, Note_on_c, 0, 58, 95
2, 443520, Note_on_c, 0, 54, 95
2, 443520, Note_on_c, 0, 49, 95
2, 443520, Note_on_c, 0, 44, 95
2, 443520, Note_on_c, 0, 39, 95
2, 443586, Note_off_c, 0, 63, 95
2, 443586, Note_off_c, 0, 58, 95
2, 443586, Note_off_c, 0, 54, 95
2, 443586, Note_off_c, 0, 49, 95
2, 443586, Note_off_c, 0, 44, 95
2, 443586, Note_off_c, 0, 39, 95
2, 444000, Note_on_c, 0, 71, 95
2, 444000, Note_on_c, 0, 66, 95
2, 444000, Note_on_c, 0, 63, 95
2, 444000, Note_on_c, 0, 59, 95
2, 444000, Note_on_c, 0, 54, 95
2, 444000, Note_on_c, 0, 47, 95
2, 444960, Note_off_c, 0, 71, 95
2, 444960, Note_off_c, 0, 66, 95
2, 444960, Note_off_c, 0, 63, 95
2, 444960, Note_off_c, 0, 59, 95
2, 444960, Note_off_c, 0, 54, 95
2, 444960, Note_off_c, 0, 47, 95
2, 444960, Note_on_c, 0, 71, 95
2, 444960, Note_on_c, 0, 66, 95
2, 444960, Note_on_c, 0, 63, 95
2, 444960, Note_on_c, 0, 59, 95
2, 444960, Note_on_c, 0, 54, 95
2, 444960, Note_on_c, 0, 47, 95
2, 445440, Note_off_c, 0, 71, 95
2, 445440, Note_off_c, 0, 66, 95
2, 445440, Note_off_c, 0, 63, 95
2, 445440, Note_off_c, 0, 59, 95
2, 445440, Note_off_c, 0, 54, 95
2, 445440, Note_off_c, 0, 47, 95
2, 445920, Note_on_c, 0, 40, 95
2, 446400, Note_off_c, 0, 40, 95
2, 446400, Note_on_c, 0, 40, 95
2, 446880, Note_off_c, 0, 40, 95
2, 446880, Note_on_c, 0, 39, 95
2, 447360, Note_off_c, 0, 39, 95
2, 447360, Note_on_c, 0, 40, 95
2, 447840, Note_off_c, 0, 40, 95
2, 447840, Note_on_c, 0, 39, 95
2, 448320, Note_off_c, 0, 39, 95
2, 448320, Note_on_c, 0, 40, 95
2, 448800, Note_off_c, 0, 40, 95
2, 448800, Note_on_c, 0, 49, 95
2, 449280, Note_off_c, 0, 49, 95
2, 449280, Note_on_c, 0, 71, 95
2, 449280, Note_on_c, 0, 66, 95
2, 449280, Note_on_c, 0, 63, 95
2, 449280, Note_on_c, 0, 59, 95
2, 449280, Note_on_c, 0, 54, 95
2, 449280, Note_on_c, 0, 47, 95
2, 450240, Note_off_c, 0, 71, 95
2, 450240, Note_off_c, 0, 66, 95
2, 450240, Note_off_c, 0, 63, 95
2, 450240, Note_off_c, 0, 59, 95
2, 450240, Note_off_c, 0, 54, 95
2, 450240, Note_off_c, 0, 47, 95
2, 450240, Note_on_c, 0, 71, 95
2, 450240, Note_on_c, 0, 66, 95
2, 450240, Note_on_c, 0, 63, 95
2, 450240, Note_on_c, 0, 59, 95
2, 450240, Note_on_c, 0, 54, 95
2, 450240, Note_on_c, 0, 47, 95
2, 450720, Note_off_c, 0, 71, 95
2, 450720, Note_off_c, 0, 66, 95
2, 450720, Note_off_c, 0, 63, 95
2, 450720, Note_off_c, 0, 59, 95
2, 450720, Note_off_c, 0, 54, 95
2, 450720, Note_off_c, 0, 47, 95
2, 450720, Note_on_c, 0, 63, 95
2, 450720, Note_on_c, 0, 58, 95
2, 450720, Note_on_c, 0, 54, 95
2, 450720, Note_on_c, 0, 49, 95
2, 450720, Note_on_c, 0, 44, 95
2, 450720, Note_on_c, 0, 39, 95
2, 450786, Note_off_c, 0, 63, 95
2, 450786, Note_off_c, 0, 58, 95
2, 450786, Note_off_c, 0, 54, 95
2, 450786, Note_off_c, 0, 49, 95
2, 450786, Note_off_c, 0, 44, 95
2, 450786, Note_off_c, 0, 39, 95
2, 451200, Note_on_c, 0, 63, 95
2, 451200, Note_on_c, 0, 58, 95
2, 451200, Note_on_c, 0, 54, 95
2, 451200, Note_on_c, 0, 49, 95
2, 451200, Note_on_c, 0, 44, 95
2, 451200, Note_on_c, 0, 39, 95
2, 451266, Note_off_c, 0, 63, 95
2, 451266, Note_off_c, 0, 58, 95
2, 451266, Note_off_c, 0, 54, 95
2, 451266, Note_off_c, 0, 49, 95
2, 451266, Note_off_c, 0, 44, 95
2, 451266, Note_off_c, 0, 39, 95
2, 451680, Note_on_c, 0, 71, 95
2, 451680, Note_on_c, 0, 66, 95
2, 451680, Note_on_c, 0, 63, 95
2, 451680, Note_on_c, 0, 59, 95
2, 451680, Note_on_c, 0, 54, 95
2, 451680, Note_on_c, 0, 47, 95
2, 452640, Note_off_c, 0, 71, 95
2, 452640, Note_off_c, 0, 66, 95
2, 452640, Note_off_c, 0, 63, 95
2, 452640, Note_off_c, 0, 59, 95
2, 452640, Note_off_c, 0, 54, 95
2, 452640, Note_off_c, 0, 47, 95
2, 452640, Note_on_c, 0, 71, 95
2, 452640, Note_on_c, 0, 66, 95
2, 452640, Note_on_c, 0, 63, 95
2, 452640, Note_on_c, 0, 59, 95
2, 452640, Note_on_c, 0, 54, 95
2, 452640, Note_on_c, 0, 47, 95
2, 453120, Note_off_c, 0, 71, 95
2, 453120, Note_off_c, 0, 66, 95
2, 453120, Note_off_c, 0, 63, 95
2, 453120, Note_off_c, 0, 59, 95
2, 453120, Note_off_c, 0, 54, 95
2, 453120, Note_off_c, 0, 47, 95
2, 453600, Note_on_c, 0, 40, 95
2, 454080, Note_off_c, 0, 40, 95
2, 454080, Note_on_c, 0, 40, 95
2, 454560, Note_off_c, 0, 40, 95
2, 454560, Note_on_c, 0, 39, 95
2, 455040, Note_off_c, 0, 39, 95
2, 455040, Note_on_c, 0, 40, 95
2, 455520, Note_off_c, 0, 40, 95
2, 455520, Note_on_c, 0, 39, 95
2, 456000, Note_off_c, 0, 39, 95
2, 456000, Note_on_c, 0, 40, 95
2, 456480, Note_off_c, 0, 40, 95
2, 456480, Note_on_c, 0, 49, 95
2, 456960, Note_off_c, 0, 49, 95
2, 456960, Note_on_c, 0, 71, 95
2, 456960, Note_on_c, 0, 66, 95
2, 456960, Note_on_c, 0, 63, 95
2, 456960, Note_on_c, 0, 59, 95
2, 456960, Note_on_c, 0, 54, 95
2, 456960, Note_on_c, 0, 47, 95
2, 457920, Note_off_c, 0, 71, 95
2, 457920, Note_off_c, 0, 66, 95
2, 457920, Note_off_c, 0, 63, 95
2, 457920, Note_off_c, 0, 59, 95
2, 457920, Note_off_c, 0, 54, 95
2, 457920, Note_off_c, 0, 47, 95
2, 457920, Note_on_c, 0, 71, 95
2, 457920, Note_on_c, 0, 66, 95
2, 457920, Note_on_c, 0, 63, 95
2, 457920, Note_on_c, 0, 59, 95
2, 457920, Note_on_c, 0, 54, 95
2, 457920, Note_on_c, 0, 47, 95
2, 458400, Note_off_c, 0, 71, 95
2, 458400, Note_off_c, 0, 66, 95
2, 458400, Note_off_c, 0, 63, 95
2, 458400, Note_off_c, 0, 59, 95
2, 458400, Note_off_c, 0, 54, 95
2, 458400, Note_off_c, 0, 47, 95
2, 458400, Note_on_c, 0, 63, 95
2, 458400, Note_on_c, 0, 58, 95
2, 458400, Note_on_c, 0, 54, 95
2, 458400, Note_on_c, 0, 49, 95
2, 458400, Note_on_c, 0, 44, 95
2, 458400, Note_on_c, 0, 39, 95
2, 458466, Note_off_c, 0, 63, 95
2, 458466, Note_off_c, 0, 58, 95
2, 458466, Note_off_c, 0, 54, 95
2, 458466, Note_off_c, 0, 49, 95
2, 458466, Note_off_c, 0, 44, 95
2, 458466, Note_off_c, 0, 39, 95
2, 458880, Note_on_c, 0, 63, 95
2, 458880, Note_on_c, 0, 58, 95
2, 458880, Note_on_c, 0, 54, 95
2, 458880, Note_on_c, 0, 49, 95
2, 458880, Note_on_c, 0, 44, 95
2, 458880, Note_on_c, 0, 39, 95
2, 458946, Note_off_c, 0, 63, 95
2, 458946, Note_off_c, 0, 58, 95
2, 458946, Note_off_c, 0, 54, 95
2, 458946, Note_off_c, 0, 49, 95
2, 458946, Note_off_c, 0, 44, 95
2, 458946, Note_off_c, 0, 39, 95
2, 459360, Note_on_c, 0, 71, 95
2, 459360, Note_on_c, 0, 66, 95
2, 459360, Note_on_c, 0, 63, 95
2, 459360, Note_on_c, 0, 59, 95
2, 459360, Note_on_c, 0, 54, 95
2, 459360, Note_on_c, 0, 47, 95
2, 460320, Note_off_c, 0, 71, 95
2, 460320, Note_off_c, 0, 66, 95
2, 460320, Note_off_c, 0, 63, 95
2, 460320, Note_off_c, 0, 59, 95
2, 460320, Note_off_c, 0, 54, 95
2, 460320, Note_off_c, 0, 47, 95
2, 460320, Note_on_c, 0, 71, 95
2, 460320, Note_on_c, 0, 66, 95
2, 460320, Note_on_c, 0, 63, 95
2, 460320, Note_on_c, 0, 59, 95
2, 460320, Note_on_c, 0, 54, 95
2, 460320, Note_on_c, 0, 47, 95
2, 460800, Note_off_c, 0, 71, 95
2, 460800, Note_off_c, 0, 66, 95
2, 460800, Note_off_c, 0, 63, 95
2, 460800, Note_off_c, 0, 59, 95
2, 460800, Note_off_c, 0, 54, 95
2, 460800, Note_off_c, 0, 47, 95
2, 461280, Note_on_c, 0, 40, 95
2, 461760, Note_off_c, 0, 40, 95
2, 461760, Note_on_c, 0, 40, 95
2, 462240, Note_off_c, 0, 40, 95
2, 462240, Note_on_c, 0, 39, 95
2, 462720, Note_off_c, 0, 39, 95
2, 462720, Note_on_c, 0, 40, 95
2, 463200, Note_off_c, 0, 40, 95
2, 463200, Note_on_c, 0, 40, 95
2, 463680, Note_off_c, 0, 40, 95
2, 463680, Note_on_c, 0, 39, 95
2, 464160, Note_off_c, 0, 39, 95
2, 464160, Note_on_c, 0, 40, 95
2, 464640, Note_off_c, 0, 40, 95
2, 464640, Note_on_c, 0, 71, 95
2, 464640, Note_on_c, 0, 66, 95
2, 464640, Note_on_c, 0, 63, 95
2, 464640, Note_on_c, 0, 59, 95
2, 464640, Note_on_c, 0, 54, 95
2, 464640, Note_on_c, 0, 47, 95
2, 470400, Note_off_c, 0, 71, 95
2, 470400, Note_off_c, 0, 66, 95
2, 470400, Note_off_c, 0, 63, 95
2, 470400, Note_off_c, 0, 59, 95
2, 470400, Note_off_c, 0, 54, 95
2, 470400, Note_off_c, 0, 47, 95
2, 487200, Note_on_c, 0, 66, 95
2, 487200, Note_on_c, 0, 62, 95
2, 487680, Note_off_c, 0, 66, 95
2, 487680, Note_off_c, 0, 62, 95
2, 487680, Note_on_c, 0, 57, 95
2, 487800, Note_off_c, 0, 57, 95
2, 487800, Note_on_c, 0, 59, 70
2, 488280, Note_off_c, 0, 59, 70
2, 488280, Note_on_c, 0, 66, 95
2, 488280, Note_on_c, 0, 62, 95
2, 488520, Note_off_c, 0, 66, 95
2, 488520, Note_off_c, 0, 62, 95
2, 488520, Note_on_c, 0, 59, 95
2, 488760, Note_off_c, 0, 59, 95
2, 488760, Note_on_c, 0, 59, 95
2, 489000, Note_off_c, 0, 59, 95
2, 489000, Note_on_c, 0, 57, 70
2, 489480, Note_off_c, 0, 57, 70
2, 489480, Note_on_c, 0, 59, 95
2, 489960, Note_off_c, 0, 59, 95
2, 489960, Note_on_c, 0, 57, 95
2, 490440, Note_off_c, 0, 57, 95
2, 490440, Note_on_c, 0, 54, 95
2, 490920, Note_off_c, 0, 54, 95
2, 490920, Note_on_c, 0, 66, 95
2, 490920, Note_on_c, 0, 62, 95
2, 491400, Note_off_c, 0, 66, 95
2, 491400, Note_off_c, 0, 62, 95
2, 491400, Note_on_c, 1, 59, 95
2, 491560, Pitch_bend_c, 1, 8192
2, 491720, Pitch_bend_c, 1, 8320
2, 491880, Pitch_bend_c, 1, 8192
2, 492040, Pitch_bend_c, 1, 8320
2, 492200, Pitch_bend_c, 1, 8192
2, 492360, Pitch_bend_c, 1, 8320
2, 492480, Pitch_bend_c, 1, 8192
2, 492480, Pitch_bend_c, 1, 8320
2, 492480, Pitch_bend_c, 1, 8192
2, 492480, Note_off_c, 1, 59, 95
2, 492480, Note_on_c, 0, 63, 95
2, 492480, Note_on_c, 0, 58, 95
2, 492480, Note_on_c, 0, 54, 95
2, 492546, Note_off_c, 0, 63, 95
2, 492546, Note_off_c, 0, 58, 95
2, 492546, Note_off_c, 0, 54, 95
2, 492720, Note_on_c, 0, 71, 95
2, 492720, Note_on_c, 0, 66, 95
2, 492720, Note_on_c, 0, 62, 95
2, 493200, Note_off_c, 0, 71, 95
2, 493200, Note_off_c, 0, 66, 95
2, 493200, Note_off_c, 0, 62, 95
2, 493200, Note_on_c, 0, 63, 95
2, 493200, Note_on_c, 0, 58, 95
2, 493200, Note_on_c, 0, 54, 95
2, 493266, Note_off_c, 0, 63, 95
2, 493266, Note_off_c, 0, 58, 95
2, 493266, Note_off_c, 0, 54, 95
2, 493440, Note_on_c, 0, 71, 95
2, 493440, Note_on_c, 0, 66, 95
2, 493440, Note_on_c, 0, 62, 95
2, 493920, Note_off_c, 0, 71, 95
2, 493920, Note_off_c, 0, 66, 95
2, 493920, Note_off_c, 0, 62, 95
2, 493920, Note_on_c, 0, 66, 95
2, 493920, Note_on_c, 0, 62, 95
2, 494400, Note_off_c, 0, 66, 95
2, 494400, Note_off_c, 0, 62, 95
2, 494400, Note_on_c, 0, 62, 95
2, 494400, Note_on_c, 0, 57, 95
2, 494640, Note_off_c, 0, 62, 95
2, 494640, Note_off_c, 0, 57, 95
2, 494640, Note_on_c, 0, 59, 70
2, 494880, Note_off_c, 0, 59, 70
2, 494880, Note_on_c, 0, 62, 95
2, 495360, Note_off_c, 0, 62, 95
2, 495360, Note_on_c, 0, 59, 95
2, 496800, Note_off_c, 0, 59, 95
2, 496800, Note_on_c, 0, 57, 95
2, 497040, Note_off_c, 0, 57, 95
2, 497040, Note_on_c, 0, 54, 95
2, 497280, Note_off_c, 0, 54, 95
2, 497280, Note_on_c, 0, 57, 70
2, 498720, Note_off_c, 0, 57, 70
2, 498720, Note_on_c, 0, 54, 95
2, 498960, Note_off_c, 0, 54, 95
2, 498960, Note_on_c, 0, 52, 70
2, 499200, Note_off_c, 0, 52, 70
2, 499200, Note_on_c, 1, 53, 95
2, 499320, Pitch_bend_c, 1, 8448
2, 499440, Pitch_bend_c, 1, 8832
2, 499440, Pitch_bend_c, 1, 8192
2, 499440, Note_off_c, 1, 53, 95
2, 499440, Note_on_c, 0, 54, 95
2, 500400, Note_off_c, 0, 54, 95
2, 500400, Note_on_c, 0, 52, 95
2, 500640, Note_off_c, 0, 52, 95
2, 500640, Note_on_c, 0, 50, 70
2, 500880, Note_off_c, 0, 50, 70
2, 500880, Note_on_c, 0, 52, 95
2, 501120, Note_off_c, 0, 52, 95
2, 501120, Note_on_c, 0, 50, 70
2, 501360, Note_off_c, 0, 50, 70
2, 501360, Note_on_c, 0, 50, 95
2, 501840, Note_off_c, 0, 50, 95
2, 501840, Note_on_c, 0, 50, 95
2, 502320, Note_off_c, 0, 50, 95
2, 502320, Note_on_c, 0, 52, 95
2, 503040, Note_off_c, 0, 52, 95
2, 503040, Note_on_c, 0, 78, 95
2, 503520, Note_off_c, 0, 78, 95
2, 503520, Note_on_c, 0, 76, 95
2, 503760, Note_off_c, 0, 76, 95
2, 503760, Note_on_c, 0, 76, 95
2, 504000, Note_off_c, 0, 76, 95
2, 504240, Note_on_c, 0, 74, 95
2, 504480, Note_off_c, 0, 74, 95
2, 504480, Note_on_c, 0, 74, 95
2, 504960, Note_off_c, 0, 74, 95
2, 504960, Note_on_c, 0, 63, 95
2, 505026, Note_off_c, 0, 63, 95
2, 505200, Note_on_c, 0, 74, 95
2, 505680, Note_off_c, 0, 74, 95
2, 505920, Note_on_c, 0, 74, 95
2, 506400, Note_off_c, 0, 74, 95
2, 506400, Note_on_c, 0, 76, 95
2, 506880, Note_off_c, 0, 76, 95
2, 506880, Note_on_c, 0, 74, 95
2, 507360, Note_off_c, 0, 74, 95
2, 507360, Note_on_c, 0, 71, 95
2, 509760, Note_off_c, 0, 71, 95
2, 510720, Note_on_c, 0, 78, 95
2, 510960, Note_off_c, 0, 78, 95
2, 510960, Note_on_c, 0, 76, 70
2, 511200, Note_off_c, 0, 76, 70
2, 511200, Note_on_c, 0, 74, 70
2, 511440, Note_off_c, 0, 74, 70
2, 511440, Note_on_c, 0, 76, 95
2, 511680, Note_off_c, 0, 76, 95
2, 511920, Note_on_c, 0, 78, 95
2, 512160, Note_off_c, 0, 78, 95
2, 512400, Note_on_c, 0, 83, 95
2, 512640, Note_off_c, 0, 83, 95
2, 512880, Note_on_c, 0, 81, 95
2, 513120, Note_off_c, 0, 81, 95
2, 513360, Note_on_c, 0, 78, 95
2, 513600, Note_off_c, 0, 78, 95
2, 513840, Note_on_c, 1, 76, 95
2, 513960, Pitch_bend_c, 1, 7680
2, 514080, Pitch_bend_c, 1, 7040
2, 514200, Pitch_bend_c, 1, 6528
2, 514320, Pitch_bend_c, 1, 5888
2, 514440, Pitch_bend_c, 1, 5376
2, 514560, Pitch_bend_c, 1, 4736
2, 514560, Pitch_bend_c, 1, 8192
2, 514560, Note_off_c, 1, 76, 95
2, 514560, Note_on_c, 1, 71, 95
2, 514720, Pitch_bend_c, 1, 8192
2, 514880, Pitch_bend_c, 1, 8320
2, 515040, Pitch_bend_c, 1, 8192
2, 515200, Pitch_bend_c, 1, 8320
2, 515360, Pitch_bend_c, 1, 8192
2, 515520, Pitch_bend_c, 1, 8320
2, 515680, Pitch_bend_c, 1, 8192
2, 515840, Pitch_bend_c, 1, 8320
2, 516000, Pitch_bend_c, 1, 8192
2, 516160, Pitch_bend_c, 1, 8320
2, 516320, Pitch_bend_c, 1, 8192
2, 516480, Pitch_bend_c, 1, 8320
2, 516640, Pitch_bend_c, 1, 8192
2, 516800, Pitch_bend_c, 1, 8320
2, 516960, Pitch_bend_c, 1, 8192
2, 517120, Pitch_bend_c, 1, 8320
2, 517280, Pitch_bend_c, 1, 8192
2, 517440, Pitch_bend_c, 1, 8320
2, 517440, Pitch_bend_c, 1, 8192
2, 517440, Note_off_c, 1, 71, 95
2, 517440, Note_on_c, 1, 71, 95
2, 517920, Note_off_c, 1, 71, 95
2, 518400, Note_on_c, 0, 74, 95
2, 518400, Note_on_c, 0, 69, 95
2, 518880, Note_off_c, 0, 74, 95
2, 518880, Note_off_c, 0, 69, 95
2, 518880, Note_on_c, 0, 71, 95
2, 518880, Note_on_c, 0, 66, 95
2, 519120, Note_off_c, 0, 71, 95
2, 519120, Note_off_c, 0, 66, 95
2, 519120, Note_on_c, 0, 71, 95
2, 519120, Note_on_c, 0, 66, 95
2, 519360, Note_off_c, 0, 71, 95
2, 519360, Note_off_c, 0, 66, 95
2, 519600, Note_on_c, 0, 69, 95
2, 519600, Note_on_c, 0, 64, 95
2, 519840, Note_off_c, 0, 69, 95
2, 519840, Note_off_c, 0, 64, 95
2, 519840, Note_on_c, 0, 69, 95
2, 519840, Note_on_c, 0, 64, 95
2, 520320, Note_off_c, 0, 69, 95
2, 520320, Note_off_c, 0, 64, 95
2, 520320, Note_on_c, 0, 69, 95
2, 520320, Note_on_c, 0, 64, 95
2, 520560, Note_off_c, 0, 69, 95
2, 520560, Note_off_c, 0, 64, 95
2, 520560, Note_on_c, 0, 66, 95
2, 520560, Note_on_c, 0, 62, 95
2, 521040, Note_off_c, 0, 66, 95
2, 521040, Note_off_c, 0, 62, 95
2, 521040, Note_on_c, 0, 71, 95
2, 521040, Note_on_c, 0, 66, 95
2, 521280, Note_off_c, 0, 71, 95
2, 521280, Note_off_c, 0, 66, 95
2, 521280, Note_on_c, 0, 62, 95
2, 521520, Note_off_c, 0, 62, 95
2, 521520, Note_on_c, 0, 64, 70
2, 521760, Note_off_c, 0, 64, 70
2, 521760, Note_on_c, 0, 66, 95
2, 522240, Note_off_c, 0, 66, 95
2, 522240, Note_on_c, 0, 66, 95
2, 522240, Note_on_c, 0, 62, 95
2, 522720, Note_off_c, 0, 66, 95
2, 522720, Note_off_c, 0, 62, 95
2, 522720, Note_on_c, 0, 59, 95
2, 524640, Note_off_c, 0, 59, 95
2, 524640, Note_on_c, 0, 66, 95
2, 524640, Note_on_c, 0, 62, 95
2, 524880, Note_off_c, 0, 66, 95
2, 524880, Note_off_c, 0, 62, 95
2, 524880, Note_on_c, 0, 66, 95
2, 524880, Note_on_c, 0, 62, 95
2, 525120, Note_off_c, 0, 66, 95
2, 525120, Note_off_c, 0, 62, 95
2, 525120, Note_on_c, 0, 66, 95
2, 525120, Note_on_c, 0, 62, 95
2, 525360, Note_off_c, 0, 66, 95
2, 525360, Note_off_c, 0, 62, 95
2, 525360, Note_on_c, 0, 66, 95
2, 525360, Note_on_c, 0, 62, 95
2, 525600, Note_off_c, 0, 66, 95
2, 525600, Note_off_c, 0, 62, 95
2, 525600, Note_on_c, 0, 66, 95
2, 525600, Note_on_c, 0, 62, 95
2, 525840, Note_off_c, 0, 66, 95
2, 525840, Note_off_c, 0, 62, 95
2, 525840, Note_on_c, 0, 66, 95
2, 525840, Note_on_c, 0, 62, 95
2, 526080, Note_off_c, 0, 66, 95
2, 526080, Note_off_c, 0, 62, 95
2, 526080, Note_on_c, 0, 66, 95
2, 526080, Note_on_c, 0, 62, 95
2, 526560, Note_off_c, 0, 66, 95
2, 526560, Note_off_c, 0, 62, 95
2, 526560, Note_on_c, 0, 68, 95
2, 526560, Note_on_c, 0, 64, 95
2, 526800, Note_off_c, 0, 68, 95
2, 526800, Note_off_c, 0, 64, 95
2, 526800, Note_on_c, 0, 68, 95
2, 526800, Note_on_c, 0, 64, 95
2, 527280, Note_off_c, 0, 68, 95
2, 527280, Note_off_c, 0, 64, 95
2, 527280, Note_on_c, 0, 69, 95
2, 527280, Note_on_c, 0, 65, 95
2, 527520, Note_off_c, 0, 69, 95
2, 527520, Note_off_c, 0, 65, 95
2, 527520, Note_on_c, 0, 69, 95
2, 527520, Note_on_c, 0, 65, 95
2, 528000, Note_off_c, 0, 69, 95
2, 528000, Note_off_c, 0, 65, 95
2, 528000, Note_on_c, 0, 68, 95
2, 528000, Note_on_c, 0, 64, 95
2, 528240, Note_off_c, 0, 68, 95
2, 528240, Note_off_c, 0, 64, 95
2, 528240, Pitch_bend_c, 1, 8192
2, 528240, Note_on_c, 1, 68, 95
2, 528240, Pitch_bend_c, 1, 8192
2, 528240, Note_on_c, 1, 64, 95
2, 528312, Pitch_bend_c, 1, 8320
2, 528312, Pitch_bend_c, 1, 8320
2, 528384, Pitch_bend_c, 1, 8448
2, 528384, Pitch_bend_c, 1, 8448
2, 528456, Pitch_bend_c, 1, 8576
2, 528456, Pitch_bend_c, 1, 8576
2, 528528, Pitch_bend_c, 1, 8704
2, 528528, Pitch_bend_c, 1, 8704
2, 528600, Pitch_bend_c, 1, 8832
2, 528600, Pitch_bend_c, 1, 8832
2, 528600, Pitch_bend_c, 1, 8832
2, 528600, Pitch_bend_c, 1, 8832
2, 528960, Pitch_bend_c, 1, 8832
2, 528960, Pitch_bend_c, 1, 8192
2, 528960, Note_off_c, 1, 68, 95
2, 528960, Pitch_bend_c, 1, 8832
2, 528960, Pitch_bend_c, 1, 8192
2, 528960, Note_off_c, 1, 64, 95
2, 528960, Note_on_c, 0, 68, 95
2, 528960, Note_on_c, 0, 64, 95
2, 529440, Note_off_c, 0, 68, 95
2, 529440, Note_off_c, 0, 64, 95
2, 529440, Note_on_c, 0, 68, 95
2, 529440, Note_on_c, 0, 64, 95
2, 529920, Note_off_c, 0, 68, 95
2, 529920, Note_off_c, 0, 64, 95
2, 529920, Note_on_c, 0, 66, 70
2, 529920, Note_on_c, 0, 62, 70
2, 531360, Note_off_c, 0, 66, 70
2, 531360, Note_off_c, 0, 62, 70
2, 531840, Note_on_c, 0, 71, 95
2, 531840, Note_on_c, 0, 66, 95
2, 532080, Note_off_c, 0, 71, 95
2, 532080, Note_off_c, 0, 66, 95
2, 532080, Note_on_c, 0, 71, 95
2, 532080, Note_on_c, 0, 66, 95
2, 532320, Note_off_c, 0, 71, 95
2, 532320, Note_off_c, 0, 66, 95
2, 532320, Note_on_c, 0, 71, 95
2, 532320, Note_on_c, 0, 66, 95
2, 532560, Note_off_c, 0, 71, 95
2, 532560, Note_off_c, 0, 66, 95
2, 532560, Note_on_c, 0, 71, 95
2, 532560, Note_on_c, 0, 66, 95
2, 532800, Note_off_c, 0, 71, 95
2, 532800, Note_off_c, 0, 66, 95
2, 532800, Note_on_c, 0, 71, 95
2, 532800, Note_on_c, 0, 66, 95
2, 533040, Note_off_c, 0, 71, 95
2, 533040, Note_off_c, 0, 66, 95
2, 533040, Note_on_c, 0, 71, 95
2, 533040, Note_on_c, 0, 66, 95
2, 533280, Note_off_c, 0, 71, 95
2, 533280, Note_off_c, 0, 66, 95
2, 533280, Note_on_c, 0, 71, 95
2, 533280, Note_on_c, 0, 66, 95
2, 533760, Note_off_c, 0, 71, 95
2, 533760, Note_off_c, 0, 66, 95
2, 533760, Note_on_c, 0, 71, 95
2, 533760, Note_on_c, 0, 66, 95
2, 534720, Note_off_c, 0, 71, 95
2, 534720, Note_off_c, 0, 66, 95
2, 534720, Note_on_c, 0, 71, 95
2, 534720, Note_on_c, 0, 66, 95
2, 535440, Note_off_c, 0, 71, 95
2, 535440, Note_off_c, 0, 66, 95
2, 535440, Note_on_c, 0, 71, 95
2, 535440, Note_on_c, 0, 66, 95
2, 535680, Note_off_c, 0, 71, 95
2, 535680, Note_off_c, 0, 66, 95
2, 535680, Note_on_c, 0, 66, 95
2, 535680, Note_on_c, 1, 64, 95
2, 535800, Pitch_bend_c, 1, 8448
2, 535920, Note_off_c, 0, 66, 95
2, 535920, Pitch_bend_c, 1, 8832
2, 535920, Pitch_bend_c, 1, 8192
2, 535920, Note_off_c, 1, 64, 95
2, 535920, Note_on_c, 0, 65, 95
2, 536160, Note_off_c, 0, 65, 95
2, 536160, Note_on_c, 0, 71, 95
2, 536160, Note_on_c, 0, 66, 95
2, 536640, Note_off_c, 0, 71, 95
2, 536640, Note_off_c, 0, 66, 95
2, 536640, Note_on_c, 0, 62, 95
2, 536640, Note_on_c, 0, 57, 95
2, 536880, Note_off_c, 0, 62, 95
2, 536880, Note_off_c, 0, 57, 95
2, 536880, Note_on_c, 0, 59, 70
2, 537120, Note_off_c, 0, 59, 70
2, 537120, Note_on_c, 0, 68, 95
2, 537120, Note_on_c, 0, 64, 95
2, 537360, Note_off_c, 0, 68, 95
2, 537360, Note_off_c, 0, 64, 95
2, 537360, Note_on_c, 0, 59, 95
2, 537600, Note_off_c, 0, 59, 95
2, 537600, Note_on_c, 1, 66, 95
2, 537600, Note_on_c, 1, 62, 95
2, 537600, Note_on_c, 1, 57, 95
2, 537760, Pitch_bend_c, 1, 8192
2, 537760, Pitch_bend_c, 1, 8192
2, 537760, Pitch_bend_c, 1, 8192
2, 537920, Pitch_bend_c, 1, 8320
2, 537920, Pitch_bend_c, 1, 8320
2, 537920, Pitch_bend_c, 1, 8320
2, 538080, Pitch_bend_c, 1, 8192
2, 538080, Pitch_bend_c, 1, 8192
2, 538080, Pitch_bend_c, 1, 8192
2, 538240, Pitch_bend_c, 1, 8320
2, 538240, Pitch_bend_c, 1, 8320
2, 538240, Pitch_bend_c, 1, 8320
2, 538400, Pitch_bend_c, 1, 8192
2, 538400, Pitch_bend_c, 1, 8192
2, 538400, Pitch_bend_c, 1, 8192
2, 538560, Pitch_bend_c, 1, 8320
2, 538560, Pitch_bend_c, 1, 8192
2, 538560, Note_off_c, 1, 66, 95
2, 538560, Pitch_bend_c, 1, 8320
2, 538560, Pitch_bend_c, 1, 8192
2, 538560, Note_off_c, 1, 62, 95
2, 538560, Pitch_bend_c, 1, 8320
2, 538560, Pitch_bend_c, 1, 8192
2, 538560, Note_off_c, 1, 57, 95
2, 538560, Note_on_c, 1, 66, 95
2, 538560, Note_on_c, 1, 62, 95
2, 538720, Pitch_bend_c, 1, 8192
2, 538720, Pitch_bend_c, 1, 8192
2, 538880, Pitch_bend_c, 1, 8320
2, 538880, Pitch_bend_c, 1, 8320
2, 539040, Pitch_bend_c, 1, 8192
2, 539040, Pitch_bend_c, 1, 8192
2, 539200, Pitch_bend_c, 1, 8320
2, 539200, Pitch_bend_c, 1, 8320
2, 539280, Pitch_bend_c, 1, 8192
2, 539280, Pitch_bend_c, 1, 8320
2, 539280, Pitch_bend_c, 1, 8192
2, 539280, Note_off_c, 1, 66, 95
2, 539280, Pitch_bend_c, 1, 8192
2, 539280, Pitch_bend_c, 1, 8320
2, 539280, Pitch_bend_c, 1, 8192
2, 539280, Note_off_c, 1, 62, 95
2, 539280, Note_on_c, 0, 66, 95
2, 539280, Note_on_c, 0, 62, 95
2, 539520, Note_off_c, 0, 66, 95
2, 539520, Note_off_c, 0, 62, 95
2, 539520, Note_on_c, 0, 66, 95
2, 539520, Note_on_c, 0, 62, 95
2, 540000, Note_off_c, 0, 66, 95
2, 540000, Note_off_c, 0, 62, 95
2, 540000, Note_on_c, 0, 59, 95
2, 540480, Note_off_c, 0, 59, 95
2, 540480, Note_on_c, 1, 59, 95
2, 540640, Pitch_bend_c, 1, 8192
2, 540800, Pitch_bend_c, 1, 8320
2, 540960, Pitch_bend_c, 1, 8192
2, 541120, Pitch_bend_c, 1, 8320
2, 541280, Pitch_bend_c, 1, 8192
2, 541440, Pitch_bend_c, 1, 8320
2, 541440, Pitch_bend_c, 1, 8192
2, 541440, Note_off_c, 1, 59, 95
2, 541440, Note_on_c, 0, 66, 95
2, 541440, Note_on_c, 0, 62, 95
2, 541440, Note_on_c, 0, 57, 95
2, 541680, Note_off_c, 0, 66, 95
2, 541680, Note_off_c, 0, 62, 95
2, 541680, Note_off_c, 0, 57, 95
2, 541680, Note_on_c, 0, 66, 95
2, 541680, Note_on_c, 0, 62, 95
2, 541680, Note_on_c, 0, 57, 95
2, 542160, Note_off_c, 0, 66, 95
2, 542160, Note_off_c, 0, 62, 95
2, 542160, Note_off_c, 0, 57, 95
2, 542160, Note_on_c, 0, 58, 95
2, 542160, Note_on_c, 0, 54, 95
2, 542160, Note_on_c, 0, 49, 95
2, 542226, Note_off_c, 0, 58, 95
2, 542226, Note_off_c, 0, 54, 95
2, 542226, Note_off_c, 0, 49, 95
2, 542400, Note_on_c, 0, 66, 95
2, 542400, Note_on_c, 0, 62, 95
2, 542400, Note_on_c, 0, 57, 95
2, 542880, Note_off_c, 0, 66, 95
2, 542880, Note_off_c, 0, 62, 95
2, 542880, Note_off_c, 0, 57, 95
2, 542880, Note_on_c, 0, 66, 95
2, 542880, Note_on_c, 0, 62, 95
2, 542880, Note_on_c, 0, 57, 95
2, 543120, Note_off_c, 0, 66, 95
2, 543120, Note_off_c, 0, 62, 95
2, 543120, Note_off_c, 0, 57, 95
2, 543120, Note_on_c, 0, 66, 95
2, 543120, Note_on_c, 0, 62, 95
2, 543120, Note_on_c, 0, 57, 95
2, 543360, Note_off_c, 0, 66, 95
2, 543360, Note_off_c, 0, 62, 95
2, 543360, Note_off_c, 0, 57, 95
2, 543600, Note_on_c, 0, 62, 95
2, 543600, Note_on_c, 0, 57, 95
2, 543840, Note_off_c, 0, 62, 95
2, 543840, Note_off_c, 0, 57, 95
2, 543840, Note_on_c, 0, 62, 95
2, 543840, Note_on_c, 0, 57, 95
2, 544080, Note_off_c, 0, 62, 95
2, 544080, Note_off_c, 0, 57, 95
2, 544080, Note_on_c, 0, 62, 95
2, 544080, Note_on_c, 0, 57, 95
2, 544320, Note_off_c, 0, 62, 95
2, 544320, Note_off_c, 0, 57, 95
2, 544320, Note_on_c, 0, 66, 95
2, 544320, Note_on_c, 0, 62, 95
2, 544800, Note_off_c, 0, 66, 95
2, 544800, Note_off_c, 0, 62, 95
2, 544800, Note_on_c, 0, 62, 95
2, 544800, Note_on_c, 0, 57, 95
2, 545040, Note_off_c, 0, 62, 95
2, 545040, Note_off_c, 0, 57, 95
2, 545040, Note_on_c, 0, 62, 95
2, 545040, Note_on_c, 0, 57, 95
2, 545280, Note_off_c, 0, 62, 95
2, 545280, Note_off_c, 0, 57, 95
2, 545520, Note_on_c, 0, 66, 95
2, 545520, Note_on_c, 0, 62, 95
2, 545520, Note_on_c, 0, 57, 95
2, 546000, Note_off_c, 0, 66, 95
2, 546000, Note_off_c, 0, 62, 95
2, 546000, Note_off_c, 0, 57, 95
2, 546000, Note_on_c, 0, 68, 95
2, 546000, Note_on_c, 0, 64, 95
2, 546000, Note_on_c, 0, 59, 95
2, 546240, Note_off_c, 0, 68, 95
2, 546240, Note_off_c, 0, 64, 95
2, 546240, Note_off_c, 0, 59, 95
2, 546240, Note_on_c, 0, 68, 95
2, 546240, Note_on_c, 0, 64, 95
2, 546240, Note_on_c, 0, 59, 95
2, 546720, Note_off_c, 0, 68, 95
2, 546720, Note_off_c, 0, 64, 95
2, 546720, Note_off_c, 0, 59, 95
2, 546960, Note_on_c, 0, 69, 95
2, 546960, Note_on_c, 0, 65, 95
2, 546960, Note_on_c, 0, 60, 95
2, 547200, Note_off_c, 0, 69, 95
2, 547200, Note_off_c, 0, 65, 95
2, 547200, Note_off_c, 0, 60, 95
2, 547440, Note_on_c, 0, 68, 95
2, 547440, Note_on_c, 0, 64, 95
2, 547440, Note_on_c, 0, 59, 95
2, 548160, Note_off_c, 0, 68, 95
2, 548160, Note_off_c, 0, 64, 95
2, 548160, Note_off_c, 0, 59, 95
2, 548160, Note_on_c, 0, 66, 95
2, 548160, Note_on_c, 0, 62, 95
2, 548160, Note_on_c, 0, 57, 95
2, 548640, Note_off_c, 0, 66, 95
2, 548640, Note_off_c, 0, 62, 95
2, 548640, Note_off_c, 0, 57, 95
2, 548640, Note_on_c, 0, 57, 95
2, 549120, Note_off_c, 0, 57, 95
2, 549120, Note_on_c, 0, 61, 95
2, 549360, Note_off_c, 0, 61, 95
2, 549360, Note_on_c, 0, 69, 95
2, 549840, Note_off_c, 0, 69, 95
2, 549840, Note_on_c, 0, 59, 95
2, 550080, Note_off_c, 0, 59, 95
2, 550080, Note_on_c, 0, 68, 95
2, 550560, Note_off_c, 0, 68, 95
2, 550560, Note_on_c, 0, 57, 95
2, 550800, Note_off_c, 0, 57, 95
2, 550800, Note_on_c, 0, 66, 95
2, 551280, Note_off_c, 0, 66, 95
2, 551280, Note_on_c, 0, 56, 95
2, 551520, Note_off_c, 0, 56, 95
2, 551520, Note_on_c, 0, 64, 95
2, 551760, Note_off_c, 0, 64, 95
2, 551760, Note_on_c, 0, 54, 95
2, 552000, Note_off_c, 0, 54, 95
2, 552000, Note_on_c, 0, 62, 95
2, 552240, Note_off_c, 0, 62, 95
2, 552240, Note_on_c, 0, 54, 95
2, 552480, Note_off_c, 0, 54, 95
2, 552480, Note_on_c, 0, 66, 95
2, 552480, Note_on_c, 0, 62, 95
2, 552960, Note_off_c, 0, 66, 95
2, 552960, Note_off_c, 0, 62, 95
2, 552960, Note_on_c, 0, 59, 95
2, 552960, Note_on_c, 0, 54, 95
2, 553920, Note_off_c, 0, 59, 95
2, 553920, Note_off_c, 0, 54, 95
2, 553920, Note_on_c, 0, 52, 95
2, 554160, Note_off_c, 0, 52, 95
2, 554160, Note_on_c, 0, 52, 95
2, 554400, Note_off_c, 0, 52, 95
2, 554640, Note_on_c, 0, 52, 95
2, 555120, Note_off_c, 0, 52, 95
2, 555600, Note_on_c, 0, 52, 95
2, 555840, Note_off_c, 0, 52, 95
2, 555840, Note_on_c, 1, 45, 95
2, 555960, Pitch_bend_c, 1, 8832
2, 556080, Pitch_bend_c, 1, 9600
2, 556080, Pitch_bend_c, 1, 8192
2, 556080, Note_off_c, 1, 45, 95
2, 556080, Note_on_c, 0, 47, 95
2, 556320, Note_off_c, 0, 47, 95
2, 556320, Note_on_c, 0, 50, 95
2, 556800, Note_off_c, 0, 50, 95
2, 556800, Note_on_c, 0, 59, 95
2, 556800, Note_on_c, 0, 54, 95
2, 556800, Note_on_c, 0, 47, 95
2, 557520, Note_off_c, 0, 59, 95
2, 557520, Note_off_c, 0, 54, 95
2, 557520, Note_off_c, 0, 47, 95
2, 557520, Note_on_c, 0, 57, 95
2, 557520, Note_on_c, 0, 52, 95
2, 557520, Note_on_c, 1, 45, 95
2, 557640, Pitch_bend_c, 1, 8832
2, 557760, Note_off_c, 0, 57, 95
2, 557760, Note_off_c, 0, 52, 95
2, 557760, Pitch_bend_c, 1, 9600
2, 557760, Pitch_bend_c, 1, 8192
2, 557760, Note_off_c, 1, 45, 95
2, 557760, Note_on_c, 0, 59, 95
2, 557760, Note_on_c, 0, 54, 95
2, 557760, Note_on_c, 0, 47, 95
2, 558240, Note_off_c, 0, 59, 95
2, 558240, Note_off_c, 0, 54, 95
2, 558240, Note_off_c, 0, 47, 95
2, 558240, Note_on_c, 0, 59, 95
2, 558240, Note_on_c, 0, 54, 95
2, 558240, Note_on_c, 0, 47, 95
2, 558480, Note_off_c, 0, 59, 95
2, 558480, Note_off_c, 0, 54, 95
2, 558480, Note_off_c, 0, 47, 95
2, 558480, Note_on_c, 0, 59, 95
2, 558480, Note_on_c, 0, 54, 95
2, 558480, Note_on_c, 0, 47, 95
2, 558960, Note_off_c, 0, 59, 95
2, 558960, Note_off_c, 0, 54, 95
2, 558960, Note_off_c, 0, 47, 95
2, 558960, Note_on_c, 0, 59, 95
2, 558960, Note_on_c, 0, 54, 95
2, 558960, Note_on_c, 0, 47, 95
2, 559440, Note_off_c, 0, 59, 95
2, 559440, Note_off_c, 0, 54, 95
2, 559440, Note_off_c, 0, 47, 95
2, 559440, Note_on_c, 0, 59, 95
2, 559440, Note_on_c, 0, 54, 95
2, 559440, Note_on_c, 0, 47, 95
2, 559680, Note_off_c, 0, 59, 95
2, 559680, Note_off_c, 0, 54, 95
2, 559680, Note_off_c, 0, 47, 95
2, 559680, Note_on_c, 0, 59, 95
2, 559680, Note_on_c, 0, 54, 95
2, 559680, Note_on_c, 0, 47, 95
2, 560160, Note_off_c, 0, 59, 95
2, 560160, Note_off_c, 0, 54, 95
2, 560160, Note_off_c, 0, 47, 95
2, 560160, Note_on_c, 0, 57, 95
2, 560160, Note_on_c, 0, 52, 95
2, 560160, Note_on_c, 0, 45, 95
2, 560640, Note_off_c, 0, 57, 95
2, 560640, Note_off_c, 0, 52, 95
2, 560640, Note_off_c, 0, 45, 95
2, 560640, Note_on_c, 0, 57, 95
2, 560640, Note_on_c, 0, 52, 95
2, 560640, Note_on_c, 1, 45, 95
2, 560760, Pitch_bend_c, 1, 8832
2, 560880, Note_off_c, 0, 57, 95
2, 560880, Note_off_c, 0, 52, 95
2, 560880, Pitch_bend_c, 1, 9600
2, 560880, Pitch_bend_c, 1, 8192
2, 560880, Note_off_c, 1, 45, 95
2, 560880, Note_on_c, 0, 59, 95
2, 560880, Note_on_c, 0, 54, 95
2, 560880, Note_on_c, 0, 47, 95
2, 561360, Note_off_c, 0, 59, 95
2, 561360, Note_off_c, 0, 54, 95
2, 561360, Note_off_c, 0, 47, 95
2, 561360, Note_on_c, 0, 59, 95
2, 561360, Note_on_c, 0, 54, 95
2, 561360, Note_on_c, 0, 47, 95
2, 561600, Note_off_c, 0, 59, 95
2, 561600, Note_off_c, 0, 54, 95
2, 561600, Note_off_c, 0, 47, 95
2, 561600, Note_on_c, 0, 59, 95
2, 561600, Note_on_c, 0, 54, 95
2, 561600, Note_on_c, 0, 47, 95
2, 562080, Note_off_c, 0, 59, 95
2, 562080, Note_off_c, 0, 54, 95
2, 562080, Note_off_c, 0, 47, 95
2, 562080, Note_on_c, 0, 59, 95
2, 562080, Note_on_c, 0, 54, 95
2, 562080, Note_on_c, 0, 47, 95
2, 562320, Note_off_c, 0, 59, 95
2, 562320, Note_off_c, 0, 54, 95
2, 562320, Note_off_c, 0, 47, 95
2, 562320, Note_on_c, 0, 59, 95
2, 562320, Note_on_c, 0, 54, 95
2, 562320, Note_on_c, 0, 47, 95
2, 562800, Note_off_c, 0, 59, 95
2, 562800, Note_off_c, 0, 54, 95
2, 562800, Note_off_c, 0, 47, 95
2, 562800, Note_on_c, 0, 59, 95
2, 562800, Note_on_c, 0, 54, 95
2, 562800, Note_on_c, 0, 47, 95
2, 563280, Note_off_c, 0, 59, 95
2, 563280, Note_off_c, 0, 54, 95
2, 563280, Note_off_c, 0, 47, 95
2, 563280, Note_on_c, 0, 59, 95
2, 563280, Note_on_c, 0, 54, 95
2, 563280, Note_on_c, 0, 47, 95
2, 563520, Note_off_c, 0, 59, 95
2, 563520, Note_off_c, 0, 54, 95
2, 563520, Note_off_c, 0, 47, 95
2, 563520, Note_on_c, 0, 59, 95
2, 563520, Note_on_c, 0, 54, 95
2, 563520, Note_on_c, 0, 47, 95
2, 564000, Note_off_c, 0, 59, 95
2, 564000, Note_off_c, 0, 54, 95
2, 564000, Note_off_c, 0, 47, 95
2, 564000, Note_on_c, 0, 57, 95
2, 564000, Note_on_c, 0, 52, 95
2, 564000, Note_on_c, 0, 45, 95
2, 564480, Note_off_c, 0, 57, 95
2, 564480, Note_off_c, 0, 52, 95
2, 564480, Note_off_c, 0, 45, 95
2, 564480, Note_on_c, 0, 57, 95
2, 564480, Note_on_c, 0, 52, 95
2, 564480, Note_on_c, 1, 45, 95
2, 564600, Pitch_bend_c, 1, 8832
2, 564720, Note_off_c, 0, 57, 95
2, 564720, Note_off_c, 0, 52, 95
2, 564720, Pitch_bend_c, 1, 9600
2, 564720, Pitch_bend_c, 1, 8192
2, 564720, Note_off_c, 1, 45, 95
2, 564720, Note_on_c, 0, 59, 95
2, 564720, Note_on_c, 0, 54, 95
2, 564720, Note_on_c, 0, 47, 95
2, 565200, Note_off_c, 0, 59, 95
2, 565200, Note_off_c, 0, 54, 95
2, 565200, Note_off_c, 0, 47, 95
2, 565200, Note_on_c, 0, 59, 95
2, 565200, Note_on_c, 0, 54, 95
2, 565200, Note_on_c, 0, 47, 95
2, 565440, Note_off_c, 0, 59, 95
2, 565440, Note_off_c, 0, 54, 95
2, 565440, Note_off_c, 0, 47, 95
2, 565440, Note_on_c, 0, 59, 95
2, 565440, Note_on_c, 0, 54, 95
2, 565440, Note_on_c, 0, 47, 95
2, 565920, Note_off_c, 0, 59, 95
2, 565920, Note_off_c, 0, 54, 95
2, 565920, Note_off_c, 0, 47, 95
2, 565920, Note_on_c, 0, 59, 95
2, 565920, Note_on_c, 0, 54, 95
2, 565920, Note_on_c, 0, 47, 95
2, 566160, Note_off_c, 0, 59, 95
2, 566160, Note_off_c, 0, 54, 95
2, 566160, Note_off_c, 0, 47, 95
2, 566160, Note_on_c, 0, 59, 95
2, 566160, Note_on_c, 0, 54, 95
2, 566160, Note_on_c, 0, 47, 95
2, 566640, Note_off_c, 0, 59, 95
2, 566640, Note_off_c, 0, 54, 95
2, 566640, Note_off_c, 0, 47, 95
2, 566640, Note_on_c, 0, 59, 95
2, 566640, Note_on_c, 0, 54, 95
2, 566640, Note_on_c, 0, 47, 95
2, 567120, Note_off_c, 0, 59, 95
2, 567120, Note_off_c, 0, 54, 95
2, 567120, Note_off_c, 0, 47, 95
2, 567120, Note_on_c, 0, 59, 95
2, 567120, Note_on_c, 0, 54, 95
2, 567120, Note_on_c, 0, 47, 95
2, 567360, Note_off_c, 0, 59, 95
2, 567360, Note_off_c, 0, 54, 95
2, 567360, Note_off_c, 0, 47, 95
2, 567360, Note_on_c, 0, 59, 95
2, 567360, Note_on_c, 0, 54, 95
2, 567360, Note_on_c, 0, 47, 95
2, 567840, Note_off_c, 0, 59, 95
2, 567840, Note_off_c, 0, 54, 95
2, 567840, Note_off_c, 0, 47, 95
2, 567840, Note_on_c, 0, 57, 95
2, 567840, Note_on_c, 0, 52, 95
2, 567840, Note_on_c, 0, 45, 95
2, 568320, Note_off_c, 0, 57, 95
2, 568320, Note_off_c, 0, 52, 95
2, 568320, Note_off_c, 0, 45, 95
2, 568320, Note_on_c, 0, 57, 95
2, 568320, Note_on_c, 0, 52, 95
2, 568320, Note_on_c, 1, 45, 95
2, 568440, Pitch_bend_c, 1, 8832
2, 568560, Note_off_c, 0, 57, 95
2, 568560, Note_off_c, 0, 52, 95
2, 568560, Pitch_bend_c, 1, 9600
2, 568560, Pitch_bend_c, 1, 8192
2, 568560, Note_off_c, 1, 45, 95
2, 568560, Note_on_c, 0, 59, 95
2, 568560, Note_on_c, 0, 54, 95
2, 568560, Note_on_c, 0, 47, 95
2, 569040, Note_off_c, 0, 59, 95
2, 569040, Note_off_c, 0, 54, 95
2, 569040, Note_off_c, 0, 47, 95
2, 569040, Note_on_c, 0, 59, 95
2, 569040, Note_on_c, 0, 54, 95
2, 569040, Note_on_c, 0, 47, 95
2, 569280, Note_off_c, 0, 59, 95
2, 569280, Note_off_c, 0, 54, 95
2, 569280, Note_off_c, 0, 47, 95
2, 569280, Note_on_c, 0, 59, 95
2, 569280, Note_on_c, 0, 54, 95
2, 569280, Note_on_c, 0, 47, 95
2, 569760, Note_off_c, 0, 59, 95
2, 569760, Note_off_c, 0, 54, 95
2, 569760, Note_off_c, 0, 47, 95
2, 569760, Note_on_c, 0, 59, 95
2, 569760, Note_on_c, 0, 54, 95
2, 569760, Note_on_c, 0, 47, 95
2, 570000, Note_off_c, 0, 59, 95
2, 570000, Note_off_c, 0, 54, 95
2, 570000, Note_off_c, 0, 47, 95
2, 570000, Note_on_c, 0, 59, 95
2, 570000, Note_on_c, 0, 54, 95
2, 570000, Note_on_c, 0, 47, 95
2, 570480, Note_off_c, 0, 59, 95
2, 570480, Note_off_c, 0, 54, 95
2, 570480, Note_off_c, 0, 47, 95
2, 570480, Note_on_c, 0, 59, 95
2, 570480, Note_on_c, 0, 54, 95
2, 570480, Note_on_c, 0, 47, 95
2, 570720, Note_off_c, 0, 59, 95
2, 570720, Note_off_c, 0, 54, 95
2, 570720, Note_off_c, 0, 47, 95
2, 570720, Pitch_bend_c, 1, 8192
2, 570720, Note_on_c, 1, 66, 95
2, 570720, Pitch_bend_c, 1, 8192
2, 570720, Note_on_c, 1, 62, 95
2, 570840, Pitch_bend_c, 1, 8320
2, 570840, Pitch_bend_c, 1, 8320
2, 570960, Pitch_bend_c, 1, 8448
2, 570960, Pitch_bend_c, 1, 8448
2, 570960, Pitch_bend_c, 1, 8448
2, 570960, Pitch_bend_c, 1, 8448
2, 571200, Pitch_bend_c, 1, 8448
2, 571200, Pitch_bend_c, 1, 8192
2, 571200, Note_off_c, 1, 66, 95
2, 571200, Pitch_bend_c, 1, 8448
2, 571200, Pitch_bend_c, 1, 8192
2, 571200, Note_off_c, 1, 62, 95
2, 571200, Pitch_bend_c, 1, 8192
2, 571200, Note_on_c, 1, 66, 95
2, 571200, Pitch_bend_c, 1, 8192
2, 571200, Note_on_c, 1, 62, 95
2, 571320, Pitch_bend_c, 1, 8320
2, 571320, Pitch_bend_c, 1, 8320
2, 571440, Pitch_bend_c, 1, 8448
2, 571440, Pitch_bend_c, 1, 8448
2, 571440, Pitch_bend_c, 1, 8448
2, 571440, Pitch_bend_c, 1, 8448
2, 571680, Pitch_bend_c, 1, 8448
2, 571680, Pitch_bend_c, 1, 8192
2, 571680, Note_off_c, 1, 66, 95
2, 571680, Pitch_bend_c, 1, 8448
2, 571680, Pitch_bend_c, 1, 8192
2, 571680, Note_off_c, 1, 62, 95
2, 571680, Pitch_bend_c, 1, 8192
2, 571680, Note_on_c, 1, 66, 95
2, 571680, Pitch_bend_c, 1, 8192
2, 571680, Note_on_c, 1, 62, 95
2, 571800, Pitch_bend_c, 1, 8320
2, 571800, Pitch_bend_c, 1, 8320
2, 571920, Pitch_bend_c, 1, 8448
2, 571920, Pitch_bend_c, 1, 8448
2, 571920, Pitch_bend_c, 1, 8448
2, 571920, Pitch_bend_c, 1, 8448
2, 572160, Pitch_bend_c, 1, 8448
2, 572160, Pitch_bend_c, 1, 8192
2, 572160, Note_off_c, 1, 66, 95
2, 572160, Pitch_bend_c, 1, 8448
2, 572160, Pitch_bend_c, 1, 8192
2, 572160, Note_off_c, 1, 62, 95
2, 572160, Note_on_c, 0, 57, 95
2, 572160, Note_on_c, 0, 52, 95
2, 572160, Note_on_c, 0, 47, 95
2, 572400, Note_off_c, 0, 57, 95
2, 572400, Note_off_c, 0, 52, 95
2, 572400, Note_off_c, 0, 47, 95
2, 572400, Note_on_c, 0, 59, 70
2, 572400, Note_on_c, 0, 54, 70
2, 572880, Note_off_c, 0, 59, 70
2, 572880, Note_off_c, 0, 54, 70
2, 572880, Note_on_c, 0, 59, 95
2, 572880, Note_on_c, 0, 54, 95
2, 572880, Note_on_c, 0, 47, 95
2, 573120, Note_off_c, 0, 59, 95
2, 573120, Note_off_c, 0, 54, 95
2, 573120, Note_off_c, 0, 47, 95
2, 573120, Note_on_c, 0, 59, 95
2, 573120, Note_on_c, 0, 54, 95
2, 573120, Note_on_c, 0, 47, 95
2, 573600, Note_off_c, 0, 59, 95
2, 573600, Note_off_c, 0, 54, 95
2, 573600, Note_off_c, 0, 47, 95
2, 573600, Note_on_c, 0, 59, 95
2, 573600, Note_on_c, 0, 54, 95
2, 573600, Note_on_c, 0, 47, 95
2, 573840, Note_off_c, 0, 59, 95
2, 573840, Note_off_c, 0, 54, 95
2, 573840, Note_off_c, 0, 47, 95
2, 573840, Note_on_c, 0, 59, 95
2, 573840, Note_on_c, 0, 54, 95
2, 573840, Note_on_c, 0, 47, 95
2, 574320, Note_off_c, 0, 59, 95
2, 574320, Note_off_c, 0, 54, 95
2, 574320, Note_off_c, 0, 47, 95
2, 574320, Note_on_c, 0, 59, 95
2, 574320, Note_on_c, 0, 54, 95
2, 574320, Note_on_c, 0, 47, 95
2, 574560, Note_off_c, 0, 59, 95
2, 574560, Note_off_c, 0, 54, 95
2, 574560, Note_off_c, 0, 47, 95
2, 574560, Note_on_c, 0, 59, 95
2, 574560, Note_on_c, 0, 54, 95
2, 574560, Note_on_c, 0, 47, 95
2, 574800, Note_off_c, 0, 59, 95
2, 574800, Note_off_c, 0, 54, 95
2, 574800, Note_off_c, 0, 47, 95
2, 574800, Note_on_c, 0, 59, 95
2, 574800, Note_on_c, 0, 54, 95
2, 574800, Note_on_c, 0, 47, 95
2, 575040, Note_off_c, 0, 59, 95
2, 575040, Note_off_c, 0, 54, 95
2, 575040, Note_off_c, 0, 47, 95
2, 575040, Note_on_c, 0, 59, 95
2, 575040, Note_on_c, 0, 54, 95
2, 575040, Note_on_c, 0, 47, 95
2, 575520, Note_off_c, 0, 59, 95
2, 575520, Note_off_c, 0, 54, 95
2, 575520, Note_off_c, 0, 47, 95
2, 575520, Note_on_c, 0, 59, 95
2, 575520, Note_on_c, 0, 54, 95
2, 575520, Note_on_c, 0, 47, 95
2, 576000, Note_off_c, 0, 59, 95
2, 576000, Note_off_c, 0, 54, 95
2, 576000, Note_off_c, 0, 47, 95
2, 576000, Note_on_c, 0, 57, 95
2, 576000, Note_on_c, 0, 52, 95
2, 576000, Note_on_c, 0, 47, 95
2, 576240, Note_off_c, 0, 57, 95
2, 576240, Note_off_c, 0, 52, 95
2, 576240, Note_off_c, 0, 47, 95
2, 576240, Note_on_c, 0, 59, 70
2, 576240, Note_on_c, 0, 54, 70
2, 576720, Note_off_c, 0, 59, 70
2, 576720, Note_off_c, 0, 54, 70
2, 576720, Note_on_c, 0, 59, 95
2, 576720, Note_on_c, 0, 54, 95
2, 576720, Note_on_c, 0, 47, 95
2, 576960, Note_off_c, 0, 59, 95
2, 576960, Note_off_c, 0, 54, 95
2, 576960, Note_off_c, 0, 47, 95
2, 576960, Note_on_c, 0, 59, 95
2, 576960, Note_on_c, 0, 54, 95
2, 576960, Note_on_c, 0, 47, 95
2, 577440, Note_off_c, 0, 59, 95
2, 577440, Note_off_c, 0, 54, 95
2, 577440, Note_off_c, 0, 47, 95
2, 577440, Note_on_c, 0, 59, 95
2, 577440, Note_on_c, 0, 54, 95
2, 577440, Note_on_c, 0, 47, 95
2, 577680, Note_off_c, 0, 59, 95
2, 577680, Note_off_c, 0, 54, 95
2, 577680, Note_off_c, 0, 47, 95
2, 577680, Note_on_c, 0, 59, 95
2, 577680, Note_on_c, 0, 54, 95
2, 577680, Note_on_c, 0, 47, 95
2, 578160, Note_off_c, 0, 59, 95
2, 578160, Note_off_c, 0, 54, 95
2, 578160, Note_off_c, 0, 47, 95
2, 578160, Pitch_bend_c, 1, 8192
2, 578160, Note_on_c, 1, 68, 95
2, 578160, Pitch_bend_c, 1, 8192
2, 578160, Note_on_c, 1, 64, 95
2, 578184, Pitch_bend_c, 1, 8320
2, 578184, Pitch_bend_c, 1, 8320
2, 578208, Pitch_bend_c, 1, 8448
2, 578208, Pitch_bend_c, 1, 8448
2, 578232, Pitch_bend_c, 1, 8576
2, 578232, Pitch_bend_c, 1, 8576
2, 578256, Pitch_bend_c, 1, 8704
2, 578256, Pitch_bend_c, 1, 8704
2, 578280, Pitch_bend_c, 1, 8832
2, 578280, Pitch_bend_c, 1, 8832
2, 578280, Pitch_bend_c, 1, 8832
2, 578280, Pitch_bend_c, 1, 8832
2, 578400, Pitch_bend_c, 1, 8832
2, 578400, Pitch_bend_c, 1, 8192
2, 578400, Note_off_c, 1, 68, 95
2, 578400, Pitch_bend_c, 1, 8832
2, 578400, Pitch_bend_c, 1, 8192
2, 578400, Note_off_c, 1, 64, 95
2, 578400, Note_on_c, 0, 68, 95
2, 578400, Note_on_c, 0, 64, 95
2, 578640, Note_off_c, 0, 68, 95
2, 578640, Note_off_c, 0, 64, 95
2, 578640, Note_on_c, 0, 68, 95
2, 578640, Note_on_c, 0, 64, 95
2, 578880, Note_off_c, 0, 68, 95
2, 578880, Note_off_c, 0, 64, 95
2, 578880, Note_on_c, 0, 68, 95
2, 578880, Note_on_c, 0, 64, 95
2, 579120, Note_off_c, 0, 68, 95
2, 579120, Note_off_c, 0, 64, 95
2, 579120, Note_on_c, 0, 68, 95
2, 579120, Note_on_c, 0, 64, 95
2, 579360, Note_off_c, 0, 68, 95
2, 579360, Note_off_c, 0, 64, 95
2, 579360, Note_on_c, 0, 68, 95
2, 579360, Note_on_c, 0, 64, 95
2, 579600, Note_off_c, 0, 68, 95
2, 579600, Note_off_c, 0, 64, 95
2, 579600, Note_on_c, 0, 68, 95
2, 579600, Note_on_c, 0, 64, 95
2, 579840, Note_off_c, 0, 68, 95
2, 579840, Note_off_c, 0, 64, 95
2, 579840, Pitch_bend_c, 1, 8192
2, 579840, Note_on_c, 1, 68, 95
2, 579840, Pitch_bend_c, 1, 8192
2, 579840, Note_on_c, 1, 64, 95
2, 579864, Pitch_bend_c, 1, 8320
2, 579864, Pitch_bend_c, 1, 8320
2, 579888, Pitch_bend_c, 1, 8448
2, 579888, Pitch_bend_c, 1, 8448
2, 579912, Pitch_bend_c, 1, 8576
2, 579912, Pitch_bend_c, 1, 8576
2, 579936, Pitch_bend_c, 1, 8704
2, 579936, Pitch_bend_c, 1, 8704
2, 579960, Pitch_bend_c, 1, 8832
2, 579960, Pitch_bend_c, 1, 8832
2, 579960, Pitch_bend_c, 1, 8832
2, 579960, Pitch_bend_c, 1, 8832
2, 580080, Pitch_bend_c, 1, 8832
2, 580080, Pitch_bend_c, 1, 8192
2, 580080, Note_off_c, 1, 68, 95
2, 580080, Pitch_bend_c, 1, 8832
2, 580080, Pitch_bend_c, 1, 8192
2, 580080, Note_off_c, 1, 64, 95
2, 580080, Note_on_c, 0, 66, 95
2, 580080, Note_on_c, 0, 62, 95
2, 580320, Note_off_c, 0, 66, 95
2, 580320, Note_off_c, 0, 62, 95
2, 580320, Note_on_c, 0, 59, 95
2, 580320, Note_on_c, 0, 54, 95
2, 580560, Note_off_c, 0, 59, 95
2, 580560, Note_off_c, 0, 54, 95
2, 580560, Note_on_c, 0, 59, 95
2, 580560, Note_on_c, 0, 54, 95
2, 580560, Note_on_c, 0, 47, 95
2, 580800, Note_off_c, 0, 59, 95
2, 580800, Note_off_c, 0, 54, 95
2, 580800, Note_off_c, 0, 47, 95
2, 580800, Note_on_c, 0, 59, 95
2, 580800, Note_on_c, 0, 54, 95
2, 580800, Note_on_c, 0, 47, 95
2, 581280, Note_off_c, 0, 59, 95
2, 581280, Note_off_c, 0, 54, 95
2, 581280, Note_off_c, 0, 47, 95
2, 581280, Note_on_c, 0, 59, 95
2, 581280, Note_on_c, 0, 54, 95
2, 581280, Note_on_c, 0, 47, 95
2, 581520, Note_off_c, 0, 59, 95
2, 581520, Note_off_c, 0, 54, 95
2, 581520, Note_off_c, 0, 47, 95
2, 581520, Note_on_c, 0, 59, 95
2, 581520, Note_on_c, 0, 54, 95
2, 581520, Note_on_c, 0, 47, 95
2, 582000, Note_off_c, 0, 59, 95
2, 582000, Note_off_c, 0, 54, 95
2, 582000, Note_off_c, 0, 47, 95
2, 582000, Pitch_bend_c, 1, 8192
2, 582000, Note_on_c, 1, 68, 95
2, 582000, Pitch_bend_c, 1, 8192
2, 582000, Note_on_c, 1, 64, 95
2, 582024, Pitch_bend_c, 1, 8320
2, 582024, Pitch_bend_c, 1, 8320
2, 582048, Pitch_bend_c, 1, 8448
2, 582048, Pitch_bend_c, 1, 8448
2, 582072, Pitch_bend_c, 1, 8576
2, 582072, Pitch_bend_c, 1, 8576
2, 582096, Pitch_bend_c, 1, 8704
2, 582096, Pitch_bend_c, 1, 8704
2, 582120, Pitch_bend_c, 1, 8832
2, 582120, Pitch_bend_c, 1, 8832
2, 582120, Pitch_bend_c, 1, 8832
2, 582120, Pitch_bend_c, 1, 8832
2, 582240, Pitch_bend_c, 1, 8832
2, 582240, Pitch_bend_c, 1, 8192
2, 582240, Note_off_c, 1, 68, 95
2, 582240, Pitch_bend_c, 1, 8832
2, 582240, Pitch_bend_c, 1, 8192
2, 582240, Note_off_c, 1, 64, 95
2, 582240, Note_on_c, 0, 68, 95
2, 582240, Note_on_c, 0, 64, 95
2, 582480, Note_off_c, 0, 68, 95
2, 582480, Note_off_c, 0, 64, 95
2, 582480, Note_on_c, 0, 68, 95
2, 582480, Note_on_c, 0, 64, 95
2, 582720, Note_off_c, 0, 68, 95
2, 582720, Note_off_c, 0, 64, 95
2, 582720, Note_on_c, 0, 68, 95
2, 582720, Note_on_c, 0, 64, 95
2, 582960, Note_off_c, 0, 68, 95
2, 582960, Note_off_c, 0, 64, 95
2, 582960, Note_on_c, 0, 68, 95
2, 582960, Note_on_c, 0, 64, 95
2, 583200, Note_off_c, 0, 68, 95
2, 583200, Note_off_c, 0, 64, 95
2, 583200, Note_on_c, 0, 68, 95
2, 583200, Note_on_c, 0, 64, 95
2, 583440, Note_off_c, 0, 68, 95
2, 583440, Note_off_c, 0, 64, 95
2, 583440, Note_on_c, 0, 68, 95
2, 583440, Note_on_c, 0, 64, 95
2, 583680, Note_off_c, 0, 68, 95
2, 583680, Note_off_c, 0, 64, 95
2, 583680, Pitch_bend_c, 1, 8192
2, 583680, Note_on_c, 1, 68, 95
2, 583680, Note_on_c, 0, 64, 95
2, 583704, Pitch_bend_c, 1, 8320
2, 583728, Pitch_bend_c, 1, 8448
2, 583752, Pitch_bend_c, 1, 8576
2, 583776, Pitch_bend_c, 1, 8704
2, 583800, Pitch_bend_c, 1, 8832
2, 583800, Pitch_bend_c, 1, 8832
2, 583920, Pitch_bend_c, 1, 8832
2, 583920, Pitch_bend_c, 1, 8192
2, 583920, Note_off_c, 1, 68, 95
2, 583920, Note_off_c, 0, 64, 95
2, 583920, Note_on_c, 0, 66, 95
2, 583920, Note_on_c, 0, 62, 95
2, 584160, Note_off_c, 0, 66, 95
2, 584160, Note_off_c, 0, 62, 95
2, 584160, Note_on_c, 0, 59, 95
2, 584160, Note_on_c, 0, 54, 95
2, 584400, Note_off_c, 0, 59, 95
2, 584400, Note_off_c, 0, 54, 95
2, 584400, Note_on_c, 0, 59, 95
2, 584400, Note_on_c, 0, 54, 95
2, 584400, Note_on_c, 0, 47, 95
2, 584640, Note_off_c, 0, 59, 95
2, 584640, Note_off_c, 0, 54, 95
2, 584640, Note_off_c, 0, 47, 95
2, 584640, Note_on_c, 0, 59, 95
2, 584640, Note_on_c, 0, 54, 95
2, 584640, Note_on_c, 0, 47, 95
2, 585120, Note_off_c, 0, 59, 95
2, 585120, Note_off_c, 0, 54, 95
2, 585120, Note_off_c, 0, 47, 95
2, 585120, Note_on_c, 0, 59, 95
2, 585120, Note_on_c, 0, 54, 95
2, 585120, Note_on_c, 0, 47, 95
2, 585360, Note_off_c, 0, 59, 95
2, 585360, Note_off_c, 0, 54, 95
2, 585360, Note_off_c, 0, 47, 95
2, 585360, Note_on_c, 0, 59, 95
2, 585360, Note_on_c, 0, 54, 95
2, 585360, Note_on_c, 0, 47, 95
2, 585600, Note_off_c, 0, 59, 95
2, 585600, Note_off_c, 0, 54, 95
2, 585600, Note_off_c, 0, 47, 95
2, 585600, Note_on_c, 0, 59, 95
2, 585600, Note_on_c, 0, 54, 95
2, 585600, Note_on_c, 0, 47, 95
2, 585840, Note_off_c, 0, 59, 95
2, 585840, Note_off_c, 0, 54, 95
2, 585840, Note_off_c, 0, 47, 95
2, 585840, Note_on_c, 0, 59, 95
2, 585840, Note_on_c, 0, 54, 95
2, 585840, Note_on_c, 0, 47, 95
2, 586080, Note_off_c, 0, 59, 95
2, 586080, Note_off_c, 0, 54, 95
2, 586080, Note_off_c, 0, 47, 95
2, 586080, Note_on_c, 0, 59, 95
2, 586080, Note_on_c, 0, 54, 95
2, 586080, Note_on_c, 0, 39, 95
2, 586146, Note_off_c, 0, 39, 95
2, 586320, Note_off_c, 0, 59, 95
2, 586320, Note_off_c, 0, 54, 95
2, 586320, Note_on_c, 0, 59, 95
2, 586320, Note_on_c, 0, 54, 95
2, 586320, Note_on_c, 0, 39, 95
2, 586386, Note_off_c, 0, 39, 95
2, 586560, Note_off_c, 0, 59, 95
2, 586560, Note_off_c, 0, 54, 95
2, 586560, Note_on_c, 0, 63, 95
2, 586560, Note_on_c, 0, 59, 95
2, 586560, Note_on_c, 0, 54, 95
2, 586560, Note_on_c, 0, 39, 95
2, 586626, Note_off_c, 0, 39, 95
2, 587040, Note_off_c, 0, 63, 95
2, 587040, Note_off_c, 0, 59, 95
2, 587040, Note_off_c, 0, 54, 95
2, 587040, Note_on_c, 0, 59, 95
2, 587040, Note_on_c, 0, 54, 95
2, 587040, Note_on_c, 0, 39, 95
2, 587106, Note_off_c, 0, 39, 95
2, 587280, Note_off_c, 0, 59, 95
2, 587280, Note_off_c, 0, 54, 95
2, 587280, Note_on_c, 0, 59, 95
2, 587280, Note_on_c, 0, 54, 95
2, 587280, Note_on_c, 0, 39, 95
2, 587346, Note_off_c, 0, 39, 95
2, 587520, Note_off_c, 0, 59, 95
2, 587520, Note_off_c, 0, 54, 95
2, 587520, Note_on_c, 0, 59, 95
2, 587520, Note_on_c, 0, 54, 95
2, 587520, Note_on_c, 0, 47, 95
2, 588960, Note_off_c, 0, 59, 95
2, 588960, Note_off_c, 0, 54, 95
2, 588960, Note_off_c, 0, 47, 95
2, 588960, Note_on_c, 0, 59, 95
2, 588960, Note_on_c, 0, 54, 95
2, 588960, Note_on_c, 0, 47, 95
2, 597120, Note_off_c, 0, 59, 95
2, 597120, Note_off_c, 0, 54, 95
2, 597120, Note_off_c, 0, 47, 95
2, 602880, Note_on_c, 0, 59, 95
2, 602880, Note_on_c, 0, 54, 95
2, 602880, Note_on_c, 0, 47, 95
2, 603120, Note_off_c, 0, 59, 95
2, 603120, Note_off_c, 0, 54, 95
2, 603120, Note_off_c, 0, 47, 95
2, 603120, Note_on_c, 0, 59, 95
2, 603120, Note_on_c, 0, 54, 95
2, 603120, Note_on_c, 0, 47, 95
2, 603360, Note_off_c, 0, 59, 95
2, 603360, Note_off_c, 0, 54, 95
2, 603360, Note_off_c, 0, 47, 95
2, 603360, Note_on_c, 0, 59, 95
2, 603360, Note_on_c, 0, 54, 95
2, 603360, Note_on_c, 0, 47, 95
2, 603600, Note_off_c, 0, 59, 95
2, 603600, Note_off_c, 0, 54, 95
2, 603600, Note_off_c, 0, 47, 95
2, 603600, Note_on_c, 0, 59, 95
2, 603600, Note_on_c, 0, 54, 95
2, 603600, Note_on_c, 0, 47, 95
2, 603840, Note_off_c, 0, 59, 95
2, 603840, Note_off_c, 0, 54, 95
2, 603840, Note_off_c, 0, 47, 95
2, 603840, Note_on_c, 0, 59, 95
2, 603840, Note_on_c, 0, 54, 95
2, 603840, Note_on_c, 0, 47, 95
2, 604080, Note_off_c, 0, 59, 95
2, 604080, Note_off_c, 0, 54, 95
2, 604080, Note_off_c, 0, 47, 95
2, 604080, Note_on_c, 0, 59, 95
2, 604080, Note_on_c, 0, 54, 95
2, 604080, Note_on_c, 0, 47, 95
2, 604320, Note_off_c, 0, 59, 95
2, 604320, Note_off_c, 0, 54, 95
2, 604320, Note_off_c, 0, 47, 95
2, 604320, Note_on_c, 0, 59, 95
2, 604320, Note_on_c, 0, 54, 95
2, 604320, Note_on_c, 0, 47, 95
2, 604560, Note_off_c, 0, 59, 95
2, 604560, Note_off_c, 0, 54, 95
2, 604560, Note_off_c, 0, 47, 95
2, 604560, Note_on_c, 0, 63, 95
2, 604560, Note_on_c, 0, 59, 95
2, 604560, Note_on_c, 0, 54, 95
2, 604560, Note_on_c, 0, 47, 95
2, 605040, Note_off_c, 0, 63, 95
2, 605040, Note_off_c, 0, 59, 95
2, 605040, Note_off_c, 0, 54, 95
2, 605040, Note_off_c, 0, 47, 95
2, 605040, Note_on_c, 0, 42, 95
2, 605280, Note_off_c, 0, 42, 95
2, 605280, Note_on_c, 0, 45, 95
2, 605760, Note_off_c, 0, 45, 95
2, 605760, Note_on_c, 0, 45, 95
2, 606000, Note_off_c, 0, 45, 95
2, 606000, Note_on_c, 0, 47, 70
2, 606240, Note_off_c, 0, 47, 70
2, 606240, Note_on_c, 0, 50, 95
2, 606720, Note_off_c, 0, 50, 95
2, 606720, Note_on_c, 0, 59, 95
2, 606720, Note_on_c, 0, 54, 95
2, 606720, Note_on_c, 0, 47, 95
2, 606960, Note_off_c, 0, 59, 95
2, 606960, Note_off_c, 0, 54, 95
2, 606960, Note_off_c, 0, 47, 95
2, 606960, Note_on_c, 0, 59, 95
2, 606960, Note_on_c, 0, 54, 95
2, 606960, Note_on_c, 0, 47, 95
2, 607200, Note_off_c, 0, 59, 95
2, 607200, Note_off_c, 0, 54, 95
2, 607200, Note_off_c, 0, 47, 95
2, 607200, Note_on_c, 0, 59, 95
2, 607200, Note_on_c, 0, 54, 95
2, 607200, Note_on_c, 0, 47, 95
2, 607440, Note_off_c, 0, 59, 95
2, 607440, Note_off_c, 0, 54, 95
2, 607440, Note_off_c, 0, 47, 95
2, 607440, Note_on_c, 0, 59, 95
2, 607440, Note_on_c, 0, 54, 95
2, 607440, Note_on_c, 0, 47, 95
2, 607680, Note_off_c, 0, 59, 95
2, 607680, Note_off_c, 0, 54, 95
2, 607680, Note_off_c, 0, 47, 95
2, 607680, Note_on_c, 0, 59, 95
2, 607680, Note_on_c, 0, 54, 95
2, 607680, Note_on_c, 0, 47, 95
2, 607920, Note_off_c, 0, 59, 95
2, 607920, Note_off_c, 0, 54, 95
2, 607920, Note_off_c, 0, 47, 95
2, 607920, Note_on_c, 0, 59, 95
2, 607920, Note_on_c, 0, 54, 95
2, 607920, Note_on_c, 0, 47, 95
2, 608160, Note_off_c, 0, 59, 95
2, 608160, Note_off_c, 0, 54, 95
2, 608160, Note_off_c, 0, 47, 95
2, 608160, Note_on_c, 0, 59, 95
2, 608160, Note_on_c, 0, 54, 95
2, 608160, Note_on_c, 0, 47, 95
2, 608400, Note_off_c, 0, 59, 95
2, 608400, Note_off_c, 0, 54, 95
2, 608400, Note_off_c, 0, 47, 95
2, 608400, Note_on_c, 0, 59, 95
2, 608400, Note_on_c, 0, 54, 95
2, 608400, Note_on_c, 0, 47, 95
2, 608880, Note_off_c, 0, 59, 95
2, 608880, Note_off_c, 0, 54, 95
2, 608880, Note_off_c, 0, 47, 95
2, 608880, Note_on_c, 0, 42, 95
2, 609120, Note_off_c, 0, 42, 95
2, 609120, Note_on_c, 0, 45, 70
2, 609360, Note_off_c, 0, 45, 70
2, 609360, Note_on_c, 0, 47, 95
2, 609600, Note_off_c, 0, 47, 95
2, 609600, Note_on_c, 0, 50, 95
2, 609840, Note_off_c, 0, 50, 95
2, 609840, Note_on_c, 0, 47, 95
2, 610080, Note_off_c, 0, 47, 95
2, 610080, Note_on_c, 0, 45, 95
2, 610560, Note_off_c, 0, 45, 95
2, 610560, Note_on_c, 0, 59, 95
2, 610560, Note_on_c, 0, 54, 95
2, 610560, Note_on_c, 0, 47, 95
2, 610800, Note_off_c, 0, 59, 95
2, 610800, Note_off_c, 0, 54, 95
2, 610800, Note_off_c, 0, 47, 95
2, 610800, Note_on_c, 0, 63, 95
2, 610800, Note_on_c, 0, 59, 95
2, 610800, Note_on_c, 0, 54, 95
2, 610800, Note_on_c, 0, 47, 95
2, 611040, Note_off_c, 0, 63, 95
2, 611040, Note_off_c, 0, 59, 95
2, 611040, Note_off_c, 0, 54, 95
2, 611040, Note_off_c, 0, 47, 95
2, 611040, Note_on_c, 0, 59, 95
2, 611040, Note_on_c, 0, 54, 95
2, 611040, Note_on_c, 0, 47, 95
2, 611280, Note_off_c, 0, 59, 95
2, 611280, Note_off_c, 0, 54, 95
2, 611280, Note_off_c, 0, 47, 95
2, 611280, Note_on_c, 0, 59, 95
2, 611280, Note_on_c, 0, 54, 95
2, 611280, Note_on_c, 0, 47, 95
2, 611520, Note_off_c, 0, 59, 95
2, 611520, Note_off_c, 0, 54, 95
2, 611520, Note_off_c, 0, 47, 95
2, 611520, Note_on_c, 0, 59, 95
2, 611520, Note_on_c, 0, 54, 95
2, 611520, Note_on_c, 0, 47, 95
2, 612000, Note_off_c, 0, 59, 95
2, 612000, Note_off_c, 0, 54, 95
2, 612000, Note_off_c, 0, 47, 95
2, 612000, Note_on_c, 0, 59, 95
2, 612000, Note_on_c, 0, 54, 95
2, 612000, Note_on_c, 0, 47, 95
2, 612240, Note_off_c, 0, 59, 95
2, 612240, Note_off_c, 0, 54, 95
2, 612240, Note_off_c, 0, 47, 95
2, 612240, Note_on_c, 0, 63, 95
2, 612240, Note_on_c, 0, 59, 95
2, 612240, Note_on_c, 0, 54, 95
2, 612240, Note_on_c, 0, 47, 95
2, 612720, Note_off_c, 0, 63, 95
2, 612720, Note_off_c, 0, 59, 95
2, 612720, Note_off_c, 0, 54, 95
2, 612720, Note_off_c, 0, 47, 95
2, 612720, Note_on_c, 0, 52, 95
2, 612960, Note_off_c, 0, 52, 95
2, 612960, Note_on_c, 0, 54, 70
2, 613200, Note_off_c, 0, 54, 70
2, 613200, Note_on_c, 0, 57, 95
2, 613440, Note_off_c, 0, 57, 95
2, 613440, Note_on_c, 0, 57, 95
2, 613680, Note_off_c, 0, 57, 95
2, 613680, Note_on_c, 0, 59, 70
2, 613920, Note_off_c, 0, 59, 70
2, 613920, Note_on_c, 0, 62, 95
2, 614400, Note_off_c, 0, 62, 95
2, 614400, Note_on_c, 0, 59, 95
2, 614400, Note_on_c, 0, 54, 95
2, 614400, Note_on_c, 0, 47, 95
2, 614880, Note_off_c, 0, 59, 95
2, 614880, Note_off_c, 0, 54, 95
2, 614880, Note_off_c, 0, 47, 95
2, 614880, Note_on_c, 0, 63, 95
2, 614880, Note_on_c, 0, 58, 95
2, 614880, Note_on_c, 0, 54, 95
2, 614880, Note_on_c, 0, 59, 95
2, 614880, Note_on_c, 0, 54, 95
2, 614880, Note_on_c, 0, 39, 95
2, 614946, Note_off_c, 0, 63, 95
2, 614946, Note_off_c, 0, 58, 95
2, 614946, Note_off_c, 0, 54, 95
2, 614946, Note_off_c, 0, 39, 95
2, 615120, Note_off_c, 0, 59, 95
2, 615120, Note_off_c, 0, 54, 95
2, 615120, Note_on_c, 0, 63, 95
2, 615120, Note_on_c, 0, 58, 95
2, 615120, Note_on_c, 0, 54, 95
2, 615120, Note_on_c, 0, 59, 95
2, 615120, Note_on_c, 0, 54, 95
2, 615120, Note_on_c, 0, 39, 95
2, 615186, Note_off_c, 0, 63, 95
2, 615186, Note_off_c, 0, 58, 95
2, 615186, Note_off_c, 0, 54, 95
2, 615186, Note_off_c, 0, 39, 95
2, 615360, Note_off_c, 0, 59, 95
2, 615360, Note_off_c, 0, 54, 95
2, 615360, Note_on_c, 0, 63, 95
2, 615360, Note_on_c, 0, 59, 95
2, 615360, Note_on_c, 0, 54, 95
2, 615840, Note_off_c, 0, 63, 95
2, 615840, Note_off_c, 0, 59, 95
2, 615840, Note_off_c, 0, 54, 95
2, 615840, Note_on_c, 0, 63, 95
2, 615840, Note_on_c, 0, 58, 95
2, 615840, Note_on_c, 0, 63, 95
2, 615840, Note_on_c, 0, 59, 95
2, 615840, Note_on_c, 0, 44, 95
2, 615840, Note_on_c, 0, 39, 95
2, 615906, Note_off_c, 0, 63, 95
2, 615906, Note_off_c, 0, 58, 95
2, 615906, Note_off_c, 0, 44, 95
2, 615906, Note_off_c, 0, 39, 95
2, 616080, Note_off_c, 0, 63, 95
2, 616080, Note_off_c, 0, 59, 95
2, 616080, Note_on_c, 0, 59, 95
2, 616560, Note_off_c, 0, 59, 95
2, 616560, Note_on_c, 0, 54, 95
2, 616800, Note_off_c, 0, 54, 95
2, 616800, Note_on_c, 0, 57, 70
2, 617040, Note_off_c, 0, 57, 70
2, 617040, Note_on_c, 0, 54, 95
2, 617106, Note_off_c, 0, 54, 95
2, 617280, Note_on_c, 0, 64, 95
2, 617520, Note_off_c, 0, 64, 95
2, 617520, Note_on_c, 0, 63, 70
2, 617760, Note_off_c, 0, 63, 70
2, 617760, Note_on_c, 0, 57, 95
2, 618240, Note_off_c, 0, 57, 95
2, 618240, Note_on_c, 0, 63, 95
2, 618240, Note_on_c, 0, 58, 95
2, 618240, Note_on_c, 0, 54, 95
2, 618240, Note_on_c, 0, 49, 95
2, 618240, Note_on_c, 0, 44, 95
2, 618240, Note_on_c, 0, 45, 95
2, 618306, Note_off_c, 0, 63, 95
2, 618306, Note_off_c, 0, 58, 95
2, 618306, Note_off_c, 0, 54, 95
2, 618306, Note_off_c, 0, 49, 95
2, 618306, Note_off_c, 0, 44, 95
2, 618480, Note_off_c, 0, 45, 95
2, 618480, Note_on_c, 0, 45, 95
2, 619200, Note_off_c, 0, 45, 95
2, 619200, Note_on_c, 0, 62, 95
2, 619200, Note_on_c, 0, 57, 95
2, 619200, Note_on_c, 0, 50, 95
2, 619200, Note_on_c, 0, 45, 95
2, 619920, Note_off_c, 0, 62, 95
2, 619920, Note_off_c, 0, 57, 95
2, 619920, Note_off_c, 0, 50, 95
2, 619920, Note_off_c, 0, 45, 95
2, 619920, Note_on_c, 0, 66, 95
2, 619920, Note_on_c, 0, 62, 95
2, 619920, Note_on_c, 0, 57, 95
2, 619920, Note_on_c, 0, 50, 95
2, 619920, Note_on_c, 0, 45, 95
2, 621120, Note_off_c, 0, 66, 95
2, 621120, Note_off_c, 0, 62, 95
2, 621120, Note_off_c, 0, 57, 95
2, 621120, Note_off_c, 0, 50, 95
2, 621120, Note_off_c, 0, 45, 95
2, 621120, Note_on_c, 0, 57, 95
2, 621360, Note_off_c, 0, 57, 95
2, 621360, Note_on_c, 0, 59, 70
2, 621600, Note_off_c, 0, 59, 70
2, 621600, Note_on_c, 0, 62, 95
2, 622080, Note_off_c, 0, 62, 95
2, 622080, Note_on_c, 0, 47, 95
2, 622080, Note_on_c, 0, 40, 95
2, 622560, Note_off_c, 0, 47, 95
2, 622560, Note_off_c, 0, 40, 95
2, 622560, Note_on_c, 0, 47, 95
2, 622560, Note_on_c, 0, 40, 95
2, 622800, Note_off_c, 0, 47, 95
2, 622800, Note_off_c, 0, 40, 95
2, 622800, Note_on_c, 0, 47, 95
2, 622800, Note_on_c, 0, 40, 95
2, 623040, Note_off_c, 0, 47, 95
2, 623040, Note_off_c, 0, 40, 95
2, 623040, Note_on_c, 0, 62, 95
2, 623040, Note_on_c, 0, 56, 95
2, 623040, Note_on_c, 0, 50, 95
2, 623040, Note_on_c, 0, 47, 95
2, 623040, Note_on_c, 0, 40, 95
2, 623520, Note_off_c, 0, 62, 95
2, 623520, Note_off_c, 0, 56, 95
2, 623520, Note_off_c, 0, 50, 95
2, 623520, Note_off_c, 0, 47, 95
2, 623520, Note_off_c, 0, 40, 95
2, 623520, Note_on_c, 0, 47, 95
2, 623520, Note_on_c, 0, 40, 95
2, 623760, Note_off_c, 0, 47, 95
2, 623760, Note_off_c, 0, 40, 95
2, 623760, Note_on_c, 0, 64, 95
2, 623760, Note_on_c, 0, 59, 95
2, 623760, Note_on_c, 0, 56, 95
2, 624240, Note_off_c, 0, 64, 95
2, 624240, Note_off_c, 0, 59, 95
2, 624240, Note_off_c, 0, 56, 95
2, 624240, Note_on_c, 0, 64, 95
2, 624240, Note_on_c, 0, 59, 95
2, 624240, Note_on_c, 0, 56, 95
2, 624480, Note_off_c, 0, 64, 95
2, 624480, Note_off_c, 0, 59, 95
2, 624480, Note_off_c, 0, 56, 95
2, 624480, Note_on_c, 0, 64, 95
2, 624480, Note_on_c, 0, 59, 95
2, 624480, Note_on_c, 0, 56, 95
2, 624720, Note_off_c, 0, 64, 95
2, 624720, Note_off_c, 0, 59, 95
2, 624720, Note_off_c, 0, 56, 95
2, 624720, Note_on_c, 0, 64, 95
2, 624720, Note_on_c, 0, 59, 95
2, 624720, Note_on_c, 0, 56, 95
2, 624960, Note_off_c, 0, 64, 95
2, 624960, Note_off_c, 0, 59, 95
2, 624960, Note_off_c, 0, 56, 95
2, 624960, Note_on_c, 0, 64, 95
2, 624960, Note_on_c, 0, 59, 95
2, 624960, Note_on_c, 0, 56, 95
2, 625440, Note_off_c, 0, 64, 95
2, 625440, Note_off_c, 0, 59, 95
2, 625440, Note_off_c, 0, 56, 95
2, 625440, Note_on_c, 0, 62, 95
2, 625440, Note_on_c, 0, 56, 95
2, 625680, Note_off_c, 0, 62, 95
2, 625680, Note_off_c, 0, 56, 95
2, 625680, Note_on_c, 0, 64, 95
2, 625680, Note_on_c, 0, 59, 95
2, 625680, Note_on_c, 0, 56, 95
2, 625920, Note_off_c, 0, 64, 95
2, 625920, Note_off_c, 0, 59, 95
2, 625920, Note_off_c, 0, 56, 95
2, 625920, Note_on_c, 0, 59, 95
2, 625920, Note_on_c, 0, 54, 95
2, 625920, Note_on_c, 0, 47, 95
2, 626160, Note_off_c, 0, 59, 95
2, 626160, Note_off_c, 0, 54, 95
2, 626160, Note_off_c, 0, 47, 95
2, 626160, Note_on_c, 0, 59, 95
2, 626160, Note_on_c, 0, 54, 95
2, 626160, Note_on_c, 0, 47, 95
2, 626400, Note_off_c, 0, 59, 95
2, 626400, Note_off_c, 0, 54, 95
2, 626400, Note_off_c, 0, 47, 95
2, 626400, Note_on_c, 0, 59, 95
2, 626400, Note_on_c, 0, 54, 95
2, 626400, Note_on_c, 0, 47, 95
2, 626640, Note_off_c, 0, 59, 95
2, 626640, Note_off_c, 0, 54, 95
2, 626640, Note_off_c, 0, 47, 95
2, 626640, Note_on_c, 0, 59, 95
2, 626640, Note_on_c, 0, 54, 95
2, 626640, Note_on_c, 0, 47, 95
2, 626880, Note_off_c, 0, 59, 95
2, 626880, Note_off_c, 0, 54, 95
2, 626880, Note_off_c, 0, 47, 95
2, 626880, Note_on_c, 0, 63, 95
2, 626880, Note_on_c, 0, 59, 95
2, 626880, Note_on_c, 0, 54, 95
2, 626880, Note_on_c, 0, 47, 95
2, 627360, Note_off_c, 0, 63, 95
2, 627360, Note_off_c, 0, 59, 95
2, 627360, Note_off_c, 0, 54, 95
2, 627360, Note_off_c, 0, 47, 95
2, 627360, Note_on_c, 0, 63, 95
2, 627360, Note_on_c, 0, 54, 95
2, 627360, Note_on_c, 0, 49, 95
2, 627360, Note_on_c, 0, 47, 95
2, 627426, Note_off_c, 0, 54, 95
2, 627426, Note_off_c, 0, 49, 95
2, 627600, Note_off_c, 0, 63, 95
2, 627600, Note_off_c, 0, 47, 95
2, 627600, Note_on_c, 0, 63, 95
2, 627600, Note_on_c, 0, 59, 95
2, 627600, Note_on_c, 0, 54, 95
2, 627600, Note_on_c, 0, 47, 95
2, 628320, Note_off_c, 0, 63, 95
2, 628320, Note_off_c, 0, 59, 95
2, 628320, Note_off_c, 0, 54, 95
2, 628320, Note_off_c, 0, 47, 95
2, 628320, Note_on_c, 0, 57, 95
2, 628560, Note_off_c, 0, 57, 95
2, 628560, Note_on_c, 0, 66, 95
2, 628560, Note_on_c, 0, 62, 95
2, 628800, Note_off_c, 0, 66, 95
2, 628800, Note_off_c, 0, 62, 95
2, 628800, Note_on_c, 0, 68, 95
2, 628800, Note_on_c, 0, 64, 95
2, 629040, Note_off_c, 0, 68, 95
2, 629040, Note_off_c, 0, 64, 95
2, 629040, Note_on_c, 0, 66, 95
2, 629040, Note_on_c, 0, 62, 70
2, 629280, Note_off_c, 0, 66, 95
2, 629280, Note_off_c, 0, 62, 70
2, 629280, Note_on_c, 0, 57, 95
2, 629760, Note_off_c, 0, 57, 95
2, 629760, Note_on_c, 0, 63, 95
2, 629760, Note_on_c, 0, 66, 95
2, 629760, Note_on_c, 0, 63, 95
2, 629760, Note_on_c, 0, 49, 95
2, 629760, Note_on_c, 0, 44, 95
2, 629760, Note_on_c, 0, 39, 95
2, 629826, Note_off_c, 0, 63, 95
2, 629826, Note_off_c, 0, 49, 95
2, 629826, Note_off_c, 0, 44, 95
2, 629826, Note_off_c, 0, 39, 95
2, 630000, Note_off_c, 0, 66, 95
2, 630000, Note_off_c, 0, 63, 95
2, 630000, Note_on_c, 0, 63, 95
2, 630000, Note_on_c, 0, 66, 95
2, 630000, Note_on_c, 0, 63, 95
2, 630000, Note_on_c, 0, 49, 95
2, 630000, Note_on_c, 0, 44, 95
2, 630000, Note_on_c, 0, 39, 95
2, 630066, Note_off_c, 0, 63, 95
2, 630066, Note_off_c, 0, 49, 95
2, 630066, Note_off_c, 0, 44, 95
2, 630066, Note_off_c, 0, 39, 95
2, 630240, Note_off_c, 0, 66, 95
2, 630240, Note_off_c, 0, 63, 95
2, 630240, Note_on_c, 0, 71, 95
2, 630240, Note_on_c, 0, 66, 95
2, 630240, Note_on_c, 0, 63, 95
2, 630720, Note_off_c, 0, 71, 95
2, 630720, Note_off_c, 0, 66, 95
2, 630720, Note_off_c, 0, 63, 95
2, 630720, Note_on_c, 0, 73, 95
2, 630720, Note_on_c, 0, 68, 95
2, 630720, Note_on_c, 0, 64, 95
2, 631200, Note_off_c, 0, 73, 95
2, 631200, Note_off_c, 0, 68, 95
2, 631200, Note_off_c, 0, 64, 95
2, 631200, Note_on_c, 0, 63, 95
2, 631200, Note_on_c, 0, 58, 95
2, 631200, Note_on_c, 0, 54, 95
2, 631200, Note_on_c, 0, 49, 95
2, 631200, Note_on_c, 0, 44, 95
2, 631200, Note_on_c, 0, 39, 95
2, 631266, Note_off_c, 0, 63, 95
2, 631266, Note_off_c, 0, 58, 95
2, 631266, Note_off_c, 0, 54, 95
2, 631266, Note_off_c, 0, 49, 95
2, 631266, Note_off_c, 0, 44, 95
2, 631266, Note_off_c, 0, 39, 95
2, 631440, Note_on_c, 0, 73, 95
2, 631440, Note_on_c, 0, 68, 95
2, 631440, Note_on_c, 0, 64, 95
2, 631920, Note_off_c, 0, 73, 95
2, 631920, Note_off_c, 0, 68, 95
2, 631920, Note_off_c, 0, 64, 95
2, 631920, Note_on_c, 0, 63, 95
2, 632160, Note_off_c, 0, 63, 95
2, 632160, Note_on_c, 0, 64, 95
2, 632400, Note_off_c, 0, 64, 95
2, 632400, Note_on_c, 0, 63, 70
2, 632640, Note_off_c, 0, 63, 70
2, 632640, Note_on_c, 0, 64, 95
2, 632880, Note_off_c, 0, 64, 95
2, 632880, Note_on_c, 0, 63, 70
2, 633120, Note_off_c, 0, 63, 70
2, 633120, Note_on_c, 0, 57, 95
2, 633600, Note_off_c, 0, 57, 95
2, 633600, Note_on_c, 0, 63, 95
2, 633600, Note_on_c, 0, 58, 95
2, 633600, Note_on_c, 0, 54, 95
2, 633600, Note_on_c, 0, 49, 95
2, 633600, Note_on_c, 0, 50, 95
2, 633600, Note_on_c, 0, 39, 95
2, 633666, Note_off_c, 0, 63, 95
2, 633666, Note_off_c, 0, 58, 95
2, 633666, Note_off_c, 0, 54, 95
2, 633666, Note_off_c, 0, 49, 95
2, 633666, Note_off_c, 0, 39, 95
2, 634080, Note_off_c, 0, 50, 95
2, 634080, Note_on_c, 0, 45, 95
2, 634560, Note_off_c, 0, 45, 95
2, 634560, Note_on_c, 0, 66, 95
2, 634560, Note_on_c, 0, 62, 95
2, 634560, Note_on_c, 0, 57, 95
2, 634560, Note_on_c, 0, 50, 95
2, 634560, Note_on_c, 0, 45, 95
2, 635280, Note_off_c, 0, 66, 95
2, 635280, Note_off_c, 0, 62, 95
2, 635280, Note_off_c, 0, 57, 95
2, 635280, Note_off_c, 0, 50, 95
2, 635280, Note_off_c, 0, 45, 95
2, 635280, Note_on_c, 0, 66, 95
2, 635280, Note_on_c, 0, 62, 95
2, 635280, Note_on_c, 0, 57, 95
2, 635760, Note_off_c, 0, 66, 95
2, 635760, Note_off_c, 0, 62, 95
2, 635760, Note_off_c, 0, 57, 95
2, 635760, Note_on_c, 0, 66, 95
2, 635760, Note_on_c, 0, 62, 95
2, 635760, Note_on_c, 0, 57, 95
2, 636240, Note_off_c, 0, 66, 95
2, 636240, Note_off_c, 0, 62, 95
2, 636240, Note_off_c, 0, 57, 95
2, 636240, Note_on_c, 0, 66, 95
2, 636240, Note_on_c, 0, 62, 95
2, 636240, Note_on_c, 0, 57, 95
2, 636480, Note_off_c, 0, 66, 95
2, 636480, Note_off_c, 0, 62, 95
2, 636480, Note_off_c, 0, 57, 95
2, 636480, Note_on_c, 0, 66, 95
2, 636480, Note_on_c, 0, 62, 95
2, 636480, Note_on_c, 0, 57, 95
2, 636720, Note_off_c, 0, 66, 95
2, 636720, Note_off_c, 0, 62, 95
2, 636720, Note_off_c, 0, 57, 95
2, 636720, Note_on_c, 0, 66, 95
2, 636720, Note_on_c, 0, 62, 95
2, 636720, Note_on_c, 0, 57, 95
2, 636960, Note_off_c, 0, 66, 95
2, 636960, Note_off_c, 0, 62, 95
2, 636960, Note_off_c, 0, 57, 95
2, 636960, Note_on_c, 0, 66, 95
2, 636960, Note_on_c, 0, 62, 95
2, 636960, Note_on_c, 0, 57, 95
2, 637200, Note_off_c, 0, 66, 95
2, 637200, Note_off_c, 0, 62, 95
2, 637200, Note_off_c, 0, 57, 95
2, 637200, Note_on_c, 0, 66, 95
2, 637200, Note_on_c, 0, 62, 95
2, 637200, Note_on_c, 0, 57, 95
2, 637440, Note_off_c, 0, 66, 95
2, 637440, Note_off_c, 0, 62, 95
2, 637440, Note_off_c, 0, 57, 95
2, 637440, Note_on_c, 0, 58, 95
2, 637440, Note_on_c, 0, 54, 95
2, 637440, Note_on_c, 0, 49, 95
2, 637440, Note_on_c, 0, 47, 95
2, 637440, Note_on_c, 0, 40, 95
2, 637506, Note_off_c, 0, 58, 95
2, 637506, Note_off_c, 0, 54, 95
2, 637506, Note_off_c, 0, 49, 95
2, 637920, Note_off_c, 0, 47, 95
2, 637920, Note_off_c, 0, 40, 95
2, 637920, Note_on_c, 0, 47, 95
2, 637920, Note_on_c, 0, 40, 95
2, 638400, Note_off_c, 0, 47, 95
2, 638400, Note_off_c, 0, 40, 95
2, 638400, Note_on_c, 0, 64, 95
2, 638400, Note_on_c, 0, 59, 95
2, 638400, Note_on_c, 0, 56, 95
2, 638400, Note_on_c, 0, 50, 95
2, 638400, Note_on_c, 0, 47, 95
2, 638400, Note_on_c, 0, 40, 95
2, 638880, Note_off_c, 0, 64, 95
2, 638880, Note_off_c, 0, 59, 95
2, 638880, Note_off_c, 0, 56, 95
2, 638880, Note_off_c, 0, 50, 95
2, 638880, Note_off_c, 0, 47, 95
2, 638880, Note_off_c, 0, 40, 95
2, 638880, Note_on_c, 0, 64, 95
2, 638880, Note_on_c, 0, 59, 95
2, 638880, Note_on_c, 0, 56, 95
2, 638880, Note_on_c, 0, 50, 95
2, 638880, Note_on_c, 0, 47, 95
2, 638880, Note_on_c, 0, 40, 95
2, 639120, Note_off_c, 0, 64, 95
2, 639120, Note_off_c, 0, 59, 95
2, 639120, Note_off_c, 0, 56, 95
2, 639120, Note_off_c, 0, 50, 95
2, 639120, Note_off_c, 0, 47, 95
2, 639120, Note_off_c, 0, 40, 95
2, 639120, Note_on_c, 0, 64, 95
2, 639120, Note_on_c, 0, 59, 95
2, 639120, Note_on_c, 0, 56, 95
2, 639120, Note_on_c, 0, 50, 95
2, 639120, Note_on_c, 0, 47, 95
2, 639120, Note_on_c, 0, 40, 95
2, 639600, Note_off_c, 0, 64, 95
2, 639600, Note_off_c, 0, 59, 95
2, 639600, Note_off_c, 0, 56, 95
2, 639600, Note_off_c, 0, 50, 95
2, 639600, Note_off_c, 0, 47, 95
2, 639600, Note_off_c, 0, 40, 95
2, 639600, Note_on_c, 0, 64, 95
2, 639600, Note_on_c, 0, 59, 95
2, 639600, Note_on_c, 0, 56, 95
2, 639600, Note_on_c, 0, 50, 95
2, 639600, Note_on_c, 0, 47, 95
2, 639600, Note_on_c, 0, 40, 95
2, 639840, Note_off_c, 0, 64, 95
2, 639840, Note_off_c, 0, 59, 95
2, 639840, Note_off_c, 0, 56, 95
2, 639840, Note_off_c, 0, 50, 95
2, 639840, Note_off_c, 0, 47, 95
2, 639840, Note_off_c, 0, 40, 95
2, 639840, Note_on_c, 0, 64, 95
2, 639840, Note_on_c, 0, 59, 95
2, 639840, Note_on_c, 0, 56, 95
2, 639840, Note_on_c, 0, 50, 95
2, 639840, Note_on_c, 0, 47, 95
2, 639840, Note_on_c, 0, 40, 95
2, 640080, Note_off_c, 0, 64, 95
2, 640080, Note_off_c, 0, 59, 95
2, 640080, Note_off_c, 0, 56, 95
2, 640080, Note_off_c, 0, 50, 95
2, 640080, Note_off_c, 0, 47, 95
2, 640080, Note_off_c, 0, 40, 95
2, 640080, Note_on_c, 0, 64, 95
2, 640080, Note_on_c, 0, 59, 95
2, 640080, Note_on_c, 0, 56, 95
2, 640080, Note_on_c, 0, 50, 95
2, 640080, Note_on_c, 0, 47, 95
2, 640080, Note_on_c, 0, 40, 95
2, 640320, Note_off_c, 0, 64, 95
2, 640320, Note_off_c, 0, 59, 95
2, 640320, Note_off_c, 0, 56, 95
2, 640320, Note_off_c, 0, 50, 95
2, 640320, Note_off_c, 0, 47, 95
2, 640320, Note_off_c, 0, 40, 95
2, 640320, Note_on_c, 0, 64, 95
2, 640320, Note_on_c, 0, 59, 95
2, 640320, Note_on_c, 0, 56, 95
2, 640320, Note_on_c, 0, 50, 95
2, 640320, Note_on_c, 0, 47, 95
2, 640320, Note_on_c, 0, 40, 95
2, 640800, Note_off_c, 0, 64, 95
2, 640800, Note_off_c, 0, 59, 95
2, 640800, Note_off_c, 0, 56, 95
2, 640800, Note_off_c, 0, 50, 95
2, 640800, Note_off_c, 0, 47, 95
2, 640800, Note_off_c, 0, 40, 95
2, 640800, Note_on_c, 0, 62, 95
2, 640800, Note_on_c, 0, 56, 95
2, 640800, Note_on_c, 0, 50, 95
2, 640800, Note_on_c, 0, 47, 95
2, 640800, Note_on_c, 0, 40, 95
2, 641280, Note_off_c, 0, 62, 95
2, 641280, Note_off_c, 0, 56, 95
2, 641280, Note_off_c, 0, 50, 95
2, 641280, Note_off_c, 0, 47, 95
2, 641280, Note_off_c, 0, 40, 95
2, 641280, Note_on_c, 1, 57, 95
2, 641280, Note_on_c, 1, 52, 95
2, 641280, Note_on_c, 1, 45, 95
2, 641400, Pitch_bend_c, 1, 8832
2, 641400, Pitch_bend_c, 1, 8832
2, 641400, Pitch_bend_c, 1, 8832
2, 641520, Pitch_bend_c, 1, 9600
2, 641520, Pitch_bend_c, 1, 8192
2, 641520, Note_off_c, 1, 57, 95
2, 641520, Pitch_bend_c, 1, 9600
2, 641520, Pitch_bend_c, 1, 8192
2, 641520, Note_off_c, 1, 52, 95
2, 641520, Pitch_bend_c, 1, 9600
2, 641520, Pitch_bend_c, 1, 8192
2, 641520, Note_off_c, 1, 45, 95
2, 641520, Note_on_c, 0, 59, 95
2, 641520, Note_on_c, 0, 54, 95
2, 641520, Note_on_c, 0, 47, 95
2, 641760, Note_off_c, 0, 59, 95
2, 641760, Note_off_c, 0, 54, 95
2, 641760, Note_off_c, 0, 47, 95
2, 641760, Note_on_c, 0, 59, 95
2, 641760, Note_on_c, 0, 54, 95
2, 641760, Note_on_c, 0, 47, 95
2, 642240, Note_off_c, 0, 59, 95
2, 642240, Note_off_c, 0, 54, 95
2, 642240, Note_off_c, 0, 47, 95
2, 642240, Note_on_c, 0, 63, 95
2, 642240, Note_on_c, 0, 59, 95
2, 642240, Note_on_c, 0, 54, 95
2, 642240, Note_on_c, 0, 47, 95
2, 642720, Note_off_c, 0, 63, 95
2, 642720, Note_off_c, 0, 59, 95
2, 642720, Note_off_c, 0, 54, 95
2, 642720, Note_off_c, 0, 47, 95
2, 642720, Note_on_c, 0, 63, 95
2, 642720, Note_on_c, 0, 59, 95
2, 642720, Note_on_c, 0, 54, 95
2, 642720, Note_on_c, 0, 47, 95
2, 643200, Note_off_c, 0, 63, 95
2, 643200, Note_off_c, 0, 59, 95
2, 643200, Note_off_c, 0, 54, 95
2, 643200, Note_off_c, 0, 47, 95
2, 643200, Note_on_c, 0, 47, 95
2, 643440, Note_off_c, 0, 47, 95
2, 643440, Note_on_c, 1, 52, 95
2, 643560, Pitch_bend_c, 1, 8832
2, 643680, Pitch_bend_c, 1, 9600
2, 643680, Pitch_bend_c, 1, 8192
2, 643680, Note_off_c, 1, 52, 95
2, 643680, Note_on_c, 0, 54, 95
2, 643920, Note_off_c, 0, 54, 95
2, 643920, Note_on_c, 0, 57, 95
2, 645120, Note_off_c, 0, 57, 95
2, 645120, Note_on_c, 0, 57, 95
2, 645120, Note_on_c, 0, 52, 95
2, 645120, Note_on_c, 0, 47, 95
2, 645360, Note_off_c, 0, 57, 95
2, 645360, Note_off_c, 0, 52, 95
2, 645360, Note_off_c, 0, 47, 95
2, 645360, Note_on_c, 0, 59, 70
2, 645360, Note_on_c, 0, 54, 95
2, 645600, Note_off_c, 0, 59, 70
2, 645600, Note_off_c, 0, 54, 95
2, 645600, Note_on_c, 0, 59, 95
2, 645600, Note_on_c, 0, 54, 95
2, 645600, Note_on_c, 0, 47, 95
2, 645840, Note_off_c, 0, 59, 95
2, 645840, Note_off_c, 0, 54, 95
2, 645840, Note_off_c, 0, 47, 95
2, 645840, Note_on_c, 0, 59, 95
2, 645840, Note_on_c, 0, 54, 95
2, 645840, Note_on_c, 0, 47, 95
2, 646080, Note_off_c, 0, 59, 95
2, 646080, Note_off_c, 0, 54, 95
2, 646080, Note_off_c, 0, 47, 95
2, 646080, Note_on_c, 0, 59, 95
2, 646080, Note_on_c, 0, 54, 95
2, 646080, Note_on_c, 0, 47, 95
2, 646560, Note_off_c, 0, 59, 95
2, 646560, Note_off_c, 0, 54, 95
2, 646560, Note_off_c, 0, 47, 95
2, 646560, Note_on_c, 0, 59, 95
2, 646560, Note_on_c, 0, 54, 95
2, 646560, Note_on_c, 0, 47, 95
2, 646800, Note_off_c, 0, 59, 95
2, 646800, Note_off_c, 0, 54, 95
2, 646800, Note_off_c, 0, 47, 95
2, 646800, Note_on_c, 0, 59, 95
2, 646800, Note_on_c, 0, 54, 95
2, 646800, Note_on_c, 0, 47, 95
2, 647280, Note_off_c, 0, 59, 95
2, 647280, Note_off_c, 0, 54, 95
2, 647280, Note_off_c, 0, 47, 95
2, 647280, Pitch_bend_c, 1, 8192
2, 647280, Note_on_c, 1, 68, 95
2, 647280, Pitch_bend_c, 1, 8192
2, 647280, Note_on_c, 1, 64, 95
2, 647290, Pitch_bend_c, 1, 8320
2, 647300, Pitch_bend_c, 1, 8448
2, 647304, Pitch_bend_c, 1, 8320
2, 647310, Pitch_bend_c, 1, 8576
2, 647320, Pitch_bend_c, 1, 8704
2, 647328, Pitch_bend_c, 1, 8448
2, 647330, Pitch_bend_c, 1, 8832
2, 647340, Pitch_bend_c, 1, 8960
2, 647350, Pitch_bend_c, 1, 9088
2, 647352, Pitch_bend_c, 1, 8576
2, 647360, Pitch_bend_c, 1, 9216
2, 647370, Pitch_bend_c, 1, 9344
2, 647376, Pitch_bend_c, 1, 8704
2, 647380, Pitch_bend_c, 1, 9472
2, 647390, Pitch_bend_c, 1, 9600
2, 647400, Pitch_bend_c, 1, 8832
2, 647400, Pitch_bend_c, 1, 8832
2, 647400, Pitch_bend_c, 1, 9600
2, 647520, Pitch_bend_c, 1, 8832
2, 647520, Pitch_bend_c, 1, 8192
2, 647520, Note_off_c, 1, 68, 95
2, 647520, Pitch_bend_c, 1, 9600
2, 647520, Pitch_bend_c, 1, 8192
2, 647520, Note_off_c, 1, 64, 95
2, 647520, Note_on_c, 0, 69, 95
2, 647520, Note_on_c, 0, 66, 95
2, 647760, Note_off_c, 0, 69, 95
2, 647760, Note_off_c, 0, 66, 95
2, 647760, Note_on_c, 0, 69, 95
2, 647760, Note_on_c, 0, 66, 95
2, 648000, Note_off_c, 0, 69, 95
2, 648000, Note_off_c, 0, 66, 95
2, 648000, Note_on_c, 0, 71, 95
2, 648000, Note_on_c, 0, 66, 95
2, 648000, Pitch_bend_c, 1, 8192
2, 648000, Note_on_c, 1, 64, 95
2, 648010, Pitch_bend_c, 1, 8320
2, 648020, Pitch_bend_c, 1, 8448
2, 648030, Pitch_bend_c, 1, 8576
2, 648040, Pitch_bend_c, 1, 8704
2, 648050, Pitch_bend_c, 1, 8832
2, 648060, Pitch_bend_c, 1, 8960
2, 648070, Pitch_bend_c, 1, 9088
2, 648080, Pitch_bend_c, 1, 9216
2, 648090, Pitch_bend_c, 1, 9344
2, 648100, Pitch_bend_c, 1, 9472
2, 648110, Pitch_bend_c, 1, 9600
2, 648120, Pitch_bend_c, 1, 9600
2, 648240, Note_off_c, 0, 71, 95
2, 648240, Note_off_c, 0, 66, 95
2, 648240, Pitch_bend_c, 1, 9600
2, 648240, Pitch_bend_c, 1, 8192
2, 648240, Note_off_c, 1, 64, 95
2, 648240, Note_on_c, 0, 71, 95
2, 648240, Note_on_c, 0, 66, 95
2, 648240, Note_on_c, 0, 66, 95
2, 648480, Note_off_c, 0, 71, 95
2, 648480, Note_off_c, 0, 66, 95
2, 648480, Note_off_c, 0, 66, 95
2, 648480, Note_on_c, 0, 71, 95
2, 648480, Note_on_c, 0, 66, 95
2, 648480, Note_on_c, 0, 66, 95
2, 648720, Note_off_c, 0, 71, 95
2, 648720, Note_off_c, 0, 66, 95
2, 648720, Note_off_c, 0, 66, 95
2, 648720, Note_on_c, 0, 71, 95
2, 648720, Note_on_c, 0, 66, 95
2, 648720, Note_on_c, 0, 66, 95
2, 648960, Note_off_c, 0, 71, 95
2, 648960, Note_off_c, 0, 66, 95
2, 648960, Note_off_c, 0, 66, 95
2, 648960, Note_on_c, 0, 63, 95
2, 648960, Note_on_c, 0, 59, 95
2, 648960, Note_on_c, 0, 54, 95
2, 648960, Note_on_c, 0, 47, 95
2, 649200, Note_off_c, 0, 63, 95
2, 649200, Note_off_c, 0, 59, 95
2, 649200, Note_off_c, 0, 54, 95
2, 649200, Note_off_c, 0, 47, 95
2, 649200, Note_on_c, 0, 63, 95
2, 649200, Note_on_c, 0, 59, 95
2, 649200, Note_on_c, 0, 54, 95
2, 649200, Note_on_c, 0, 47, 95
2, 649440, Note_off_c, 0, 63, 95
2, 649440, Note_off_c, 0, 59, 95
2, 649440, Note_off_c, 0, 54, 95
2, 649440, Note_off_c, 0, 47, 95
2, 649440, Note_on_c, 0, 63, 95
2, 649440, Note_on_c, 0, 59, 95
2, 649440, Note_on_c, 0, 54, 95
2, 649440, Note_on_c, 0, 47, 95
2, 649680, Note_off_c, 0, 63, 95
2, 649680, Note_off_c, 0, 59, 95
2, 649680, Note_off_c, 0, 54, 95
2, 649680, Note_off_c, 0, 47, 95
2, 649680, Note_on_c, 0, 63, 95
2, 649680, Note_on_c, 0, 59, 95
2, 649680, Note_on_c, 0, 54, 95
2, 649680, Note_on_c, 0, 47, 95
2, 649920, Note_off_c, 0, 63, 95
2, 649920, Note_off_c, 0, 59, 95
2, 649920, Note_off_c, 0, 54, 95
2, 649920, Note_off_c, 0, 47, 95
2, 649920, Note_on_c, 0, 63, 95
2, 649920, Note_on_c, 0, 59, 95
2, 649920, Note_on_c, 0, 54, 95
2, 649920, Note_on_c, 0, 47, 95
2, 650400, Note_off_c, 0, 63, 95
2, 650400, Note_off_c, 0, 59, 95
2, 650400, Note_off_c, 0, 54, 95
2, 650400, Note_off_c, 0, 47, 95
2, 650400, Note_on_c, 0, 63, 95
2, 650400, Note_on_c, 0, 59, 95
2, 650400, Note_on_c, 0, 54, 95
2, 650400, Note_on_c, 0, 47, 95
2, 650640, Note_off_c, 0, 63, 95
2, 650640, Note_off_c, 0, 59, 95
2, 650640, Note_off_c, 0, 54, 95
2, 650640, Note_off_c, 0, 47, 95
2, 650640, Note_on_c, 0, 63, 95
2, 650640, Note_on_c, 0, 59, 95
2, 650640, Note_on_c, 0, 54, 95
2, 650640, Note_on_c, 0, 47, 95
2, 651120, Note_off_c, 0, 63, 95
2, 651120, Note_off_c, 0, 59, 95
2, 651120, Note_off_c, 0, 54, 95
2, 651120, Note_off_c, 0, 47, 95
2, 651120, Note_on_c, 0, 63, 95
2, 651120, Note_on_c, 0, 59, 95
2, 651120, Note_on_c, 0, 54, 95
2, 651120, Note_on_c, 0, 47, 95
2, 651360, Note_off_c, 0, 63, 95
2, 651360, Note_off_c, 0, 59, 95
2, 651360, Note_off_c, 0, 54, 95
2, 651360, Note_off_c, 0, 47, 95
2, 651360, Note_on_c, 0, 63, 95
2, 651360, Note_on_c, 0, 59, 95
2, 651360, Note_on_c, 0, 54, 95
2, 651360, Note_on_c, 0, 47, 95
2, 651600, Note_off_c, 0, 63, 95
2, 651600, Note_off_c, 0, 59, 95
2, 651600, Note_off_c, 0, 54, 95
2, 651600, Note_off_c, 0, 47, 95
2, 651600, Note_on_c, 0, 63, 95
2, 651600, Note_on_c, 0, 59, 95
2, 651600, Note_on_c, 0, 54, 95
2, 651600, Note_on_c, 0, 47, 95
2, 651840, Note_off_c, 0, 63, 95
2, 651840, Note_off_c, 0, 59, 95
2, 651840, Note_off_c, 0, 54, 95
2, 651840, Note_off_c, 0, 47, 95
2, 651840, Note_on_c, 0, 63, 95
2, 651840, Note_on_c, 0, 59, 95
2, 651840, Note_on_c, 0, 54, 95
2, 651840, Note_on_c, 0, 47, 95
2, 652080, Note_off_c, 0, 63, 95
2, 652080, Note_off_c, 0, 59, 95
2, 652080, Note_off_c, 0, 54, 95
2, 652080, Note_off_c, 0, 47, 95
2, 652080, Note_on_c, 0, 63, 95
2, 652080, Note_on_c, 0, 59, 95
2, 652080, Note_on_c, 0, 54, 95
2, 652080, Note_on_c, 0, 47, 95
2, 652320, Note_off_c, 0, 63, 95
2, 652320, Note_off_c, 0, 59, 95
2, 652320, Note_off_c, 0, 54, 95
2, 652320, Note_off_c, 0, 47, 95
2, 652320, Note_on_c, 0, 63, 95
2, 652320, Note_on_c, 0, 59, 95
2, 652320, Note_on_c, 0, 54, 95
2, 652320, Note_on_c, 0, 47, 95
2, 652560, Note_off_c, 0, 63, 95
2, 652560, Note_off_c, 0, 59, 95
2, 652560, Note_off_c, 0, 54, 95
2, 652560, Note_off_c, 0, 47, 95
2, 652560, Note_on_c, 0, 63, 95
2, 652560, Note_on_c, 0, 59, 95
2, 652560, Note_on_c, 0, 54, 95
2, 652560, Note_on_c, 0, 47, 95
2, 652800, Note_off_c, 0, 63, 95
2, 652800, Note_off_c, 0, 59, 95
2, 652800, Note_off_c, 0, 54, 95
2, 652800, Note_off_c, 0, 47, 95
2, 652800, Note_on_c, 0, 63, 95
2, 652800, Note_on_c, 0, 59, 95
2, 652800, Note_on_c, 0, 54, 95
2, 652800, Note_on_c, 0, 47, 95
2, 653040, Note_off_c, 0, 63, 95
2, 653040, Note_off_c, 0, 59, 95
2, 653040, Note_off_c, 0, 54, 95
2, 653040, Note_off_c, 0, 47, 95
2, 653040, Note_on_c, 0, 63, 95
2, 653040, Note_on_c, 0, 59, 95
2, 653040, Note_on_c, 0, 54, 95
2, 653040, Note_on_c, 0, 47, 95
2, 653280, Note_off_c, 0, 63, 95
2, 653280, Note_off_c, 0, 59, 95
2, 653280, Note_off_c, 0, 54, 95
2, 653280, Note_off_c, 0, 47, 95
2, 653280, Note_on_c, 0, 63, 95
2, 653280, Note_on_c, 0, 59, 95
2, 653280, Note_on_c, 0, 54, 95
2, 653280, Note_on_c, 0, 47, 95
2, 653520, Note_off_c, 0, 63, 95
2, 653520, Note_off_c, 0, 59, 95
2, 653520, Note_off_c, 0, 54, 95
2, 653520, Note_off_c, 0, 47, 95
2, 653520, Note_on_c, 0, 63, 95
2, 653520, Note_on_c, 0, 59, 95
2, 653520, Note_on_c, 0, 54, 95
2, 653520, Note_on_c, 0, 47, 95
2, 653760, Note_off_c, 0, 63, 95
2, 653760, Note_off_c, 0, 59, 95
2, 653760, Note_off_c, 0, 54, 95
2, 653760, Note_off_c, 0, 47, 95
2, 653760, Note_on_c, 0, 63, 95
2, 653760, Note_on_c, 0, 59, 95
2, 653760, Note_on_c, 0, 54, 95
2, 653760, Note_on_c, 0, 47, 95
2, 654240, Note_off_c, 0, 63, 95
2, 654240, Note_off_c, 0, 59, 95
2, 654240, Note_off_c, 0, 54, 95
2, 654240, Note_off_c, 0, 47, 95
2, 654240, Note_on_c, 0, 63, 95
2, 654240, Note_on_c, 0, 59, 95
2, 654240, Note_on_c, 0, 54, 95
2, 654240, Note_on_c, 0, 47, 95
2, 654480, Note_off_c, 0, 63, 95
2, 654480, Note_off_c, 0, 59, 95
2, 654480, Note_off_c, 0, 54, 95
2, 654480, Note_off_c, 0, 47, 95
2, 654480, Note_on_c, 0, 63, 95
2, 654480, Note_on_c, 0, 59, 95
2, 654480, Note_on_c, 0, 54, 95
2, 654480, Note_on_c, 0, 47, 95
2, 654960, Note_off_c, 0, 63, 95
2, 654960, Note_off_c, 0, 59, 95
2, 654960, Note_off_c, 0, 54, 95
2, 654960, Note_off_c, 0, 47, 95
2, 654960, Note_on_c, 0, 63, 95
2, 654960, Note_on_c, 0, 59, 95
2, 654960, Note_on_c, 0, 54, 95
2, 654960, Note_on_c, 0, 47, 95
2, 655200, Note_off_c, 0, 63, 95
2, 655200, Note_off_c, 0, 59, 95
2, 655200, Note_off_c, 0, 54, 95
2, 655200, Note_off_c, 0, 47, 95
2, 655200, Note_on_c, 0, 63, 95
2, 655200, Note_on_c, 0, 59, 95
2, 655200, Note_on_c, 0, 54, 95
2, 655200, Note_on_c, 0, 47, 95
2, 655440, Note_off_c, 0, 63, 95
2, 655440, Note_off_c, 0, 59, 95
2, 655440, Note_off_c, 0, 54, 95
2, 655440, Note_off_c, 0, 47, 95
2, 655440, Note_on_c, 0, 63, 95
2, 655440, Note_on_c, 0, 59, 95
2, 655440, Note_on_c, 0, 54, 95
2, 655440, Note_on_c, 0, 47, 95
2, 655680, Note_off_c, 0, 63, 95
2, 655680, Note_off_c, 0, 59, 95
2, 655680, Note_off_c, 0, 54, 95
2, 655680, Note_off_c, 0, 47, 95
2, 655680, Note_on_c, 0, 63, 95
2, 655680, Note_on_c, 0, 59, 95
2, 655680, Note_on_c, 0, 54, 95
2, 655680, Note_on_c, 0, 47, 95
2, 655920, Note_off_c, 0, 63, 95
2, 655920, Note_off_c, 0, 59, 95
2, 655920, Note_off_c, 0, 54, 95
2, 655920, Note_off_c, 0, 47, 95
2, 655920, Note_on_c, 0, 63, 95
2, 655920, Note_on_c, 0, 59, 95
2, 655920, Note_on_c, 0, 54, 95
2, 655920, Note_on_c, 0, 47, 95
2, 656160, Note_off_c, 0, 63, 95
2, 656160, Note_off_c, 0, 59, 95
2, 656160, Note_off_c, 0, 54, 95
2, 656160, Note_off_c, 0, 47, 95
2, 656160, Note_on_c, 0, 63, 95
2, 656160, Note_on_c, 0, 59, 95
2, 656160, Note_on_c, 0, 54, 95
2, 656160, Note_on_c, 0, 47, 95
2, 656400, Note_off_c, 0, 63, 95
2, 656400, Note_off_c, 0, 59, 95
2, 656400, Note_off_c, 0, 54, 95
2, 656400, Note_off_c, 0, 47, 95
2, 656400, Note_on_c, 0, 63, 95
2, 656400, Note_on_c, 0, 59, 95
2, 656400, Note_on_c, 0, 54, 95
2, 656400, Note_on_c, 0, 47, 95
2, 656640, Note_off_c, 0, 63, 95
2, 656640, Note_off_c, 0, 59, 95
2, 656640, Note_off_c, 0, 54, 95
2, 656640, Note_off_c, 0, 47, 95
2, 656640, Note_on_c, 0, 63, 95
2, 656640, Note_on_c, 0, 59, 95
2, 656640, Note_on_c, 0, 54, 95
2, 656640, Note_on_c, 0, 47, 95
2, 656880, Note_off_c, 0, 63, 95
2, 656880, Note_off_c, 0, 59, 95
2, 656880, Note_off_c, 0, 54, 95
2, 656880, Note_off_c, 0, 47, 95
2, 656880, Note_on_c, 0, 63, 95
2, 656880, Note_on_c, 0, 59, 95
2, 656880, Note_on_c, 0, 54, 95
2, 656880, Note_on_c, 0, 47, 95
2, 657120, Note_off_c, 0, 63, 95
2, 657120, Note_off_c, 0, 59, 95
2, 657120, Note_off_c, 0, 54, 95
2, 657120, Note_off_c, 0, 47, 95
2, 657120, Note_on_c, 0, 63, 95
2, 657120, Note_on_c, 0, 59, 95
2, 657120, Note_on_c, 0, 54, 95
2, 657120, Note_on_c, 0, 47, 95
2, 657360, Note_off_c, 0, 63, 95
2, 657360, Note_off_c, 0, 59, 95
2, 657360, Note_off_c, 0, 54, 95
2, 657360, Note_off_c, 0, 47, 95
2, 657360, Note_on_c, 0, 63, 95
2, 657360, Note_on_c, 0, 59, 95
2, 657360, Note_on_c, 0, 54, 95
2, 657360, Note_on_c, 0, 47, 95
2, 657600, Note_off_c, 0, 63, 95
2, 657600, Note_off_c, 0, 59, 95
2, 657600, Note_off_c, 0, 54, 95
2, 657600, Note_off_c, 0, 47, 95
2, 657600, Note_on_c, 0, 63, 95
2, 657600, Note_on_c, 0, 59, 95
2, 657600, Note_on_c, 0, 54, 95
2, 657600, Note_on_c, 0, 47, 95
2, 658080, Note_off_c, 0, 63, 95
2, 658080, Note_off_c, 0, 59, 95
2, 658080, Note_off_c, 0, 54, 95
2, 658080, Note_off_c, 0, 47, 95
2, 658080, Note_on_c, 0, 63, 95
2, 658080, Note_on_c, 0, 59, 95
2, 658080, Note_on_c, 0, 54, 95
2, 658080, Note_on_c, 0, 47, 95
2, 658320, Note_off_c, 0, 63, 95
2, 658320, Note_off_c, 0, 59, 95
2, 658320, Note_off_c, 0, 54, 95
2, 658320, Note_off_c, 0, 47, 95
2, 658320, Note_on_c, 0, 63, 95
2, 658320, Note_on_c, 0, 59, 95
2, 658320, Note_on_c, 0, 54, 95
2, 658320, Note_on_c, 0, 47, 95
2, 658800, Note_off_c, 0, 63, 95
2, 658800, Note_off_c, 0, 59, 95
2, 658800, Note_off_c, 0, 54, 95
2, 658800, Note_off_c, 0, 47, 95
2, 658800, Note_on_c, 0, 63, 95
2, 658800, Note_on_c, 0, 59, 95
2, 658800, Note_on_c, 0, 54, 95
2, 658800, Note_on_c, 0, 47, 95
2, 659040, Note_off_c, 0, 63, 95
2, 659040, Note_off_c, 0, 59, 95
2, 659040, Note_off_c, 0, 54, 95
2, 659040, Note_off_c, 0, 47, 95
2, 659040, Note_on_c, 0, 63, 95
2, 659040, Note_on_c, 0, 59, 95
2, 659040, Note_on_c, 0, 54, 95
2, 659040, Note_on_c, 0, 47, 95
2, 659280, Note_off_c, 0, 63, 95
2, 659280, Note_off_c, 0, 59, 95
2, 659280, Note_off_c, 0, 54, 95
2, 659280, Note_off_c, 0, 47, 95
2, 659280, Note_on_c, 0, 63, 95
2, 659280, Note_on_c, 0, 59, 95
2, 659280, Note_on_c, 0, 54, 95
2, 659280, Note_on_c, 0, 47, 95
2, 659520, Note_off_c, 0, 63, 95
2, 659520, Note_off_c, 0, 59, 95
2, 659520, Note_off_c, 0, 54, 95
2, 659520, Note_off_c, 0, 47, 95
2, 659520, Note_on_c, 0, 63, 95
2, 659520, Note_on_c, 0, 59, 95
2, 659520, Note_on_c, 0, 54, 95
2, 659520, Note_on_c, 0, 47, 95
2, 659760, Note_off_c, 0, 63, 95
2, 659760, Note_off_c, 0, 59, 95
2, 659760, Note_off_c, 0, 54, 95
2, 659760, Note_off_c, 0, 47, 95
2, 659760, Note_on_c, 0, 63, 95
2, 659760, Note_on_c, 0, 59, 95
2, 659760, Note_on_c, 0, 54, 95
2, 659760, Note_on_c, 0, 47, 95
2, 660000, Note_off_c, 0, 63, 95
2, 660000, Note_off_c, 0, 59, 95
2, 660000, Note_off_c, 0, 54, 95
2, 660000, Note_off_c, 0, 47, 95
2, 660000, Note_on_c, 0, 63, 95
2, 660000, Note_on_c, 0, 59, 95
2, 660000, Note_on_c, 0, 54, 95
2, 660000, Note_on_c, 0, 47, 95
2, 660240, Note_off_c, 0, 63, 95
2, 660240, Note_off_c, 0, 59, 95
2, 660240, Note_off_c, 0, 54, 95
2, 660240, Note_off_c, 0, 47, 95
2, 660240, Note_on_c, 0, 63, 95
2, 660240, Note_on_c, 0, 59, 95
2, 660240, Note_on_c, 0, 54, 95
2, 660240, Note_on_c, 0, 47, 95
2, 660480, Note_off_c, 0, 63, 95
2, 660480, Note_off_c, 0, 59, 95
2, 660480, Note_off_c, 0, 54, 95
2, 660480, Note_off_c, 0, 47, 95
2, 660480, Note_on_c, 0, 63, 95
2, 660480, Note_on_c, 0, 59, 95
2, 660480, Note_on_c, 0, 54, 95
2, 660480, Note_on_c, 0, 47, 95
2, 660720, Note_off_c, 0, 63, 95
2, 660720, Note_off_c, 0, 59, 95
2, 660720, Note_off_c, 0, 54, 95
2, 660720, Note_off_c, 0, 47, 95
2, 660720, Note_on_c, 0, 63, 95
2, 660720, Note_on_c, 0, 59, 95
2, 660720, Note_on_c, 0, 54, 95
2, 660720, Note_on_c, 0, 47, 95
2, 660960, Note_off_c, 0, 63, 95
2, 660960, Note_off_c, 0, 59, 95
2, 660960, Note_off_c, 0, 54, 95
2, 660960, Note_off_c, 0, 47, 95
2, 660960, Note_on_c, 0, 63, 95
2, 660960, Note_on_c, 0, 59, 95
2, 660960, Note_on_c, 0, 54, 95
2, 660960, Note_on_c, 0, 47, 95
2, 661200, Note_off_c, 0, 63, 95
2, 661200, Note_off_c, 0, 59, 95
2, 661200, Note_off_c, 0, 54, 95
2, 661200, Note_off_c, 0, 47, 95
2, 661200, Note_on_c, 0, 63, 95
2, 661200, Note_on_c, 0, 59, 95
2, 661200, Note_on_c, 0, 54, 95
2, 661200, Note_on_c, 0, 47, 95
2, 661440, Note_off_c, 0, 63, 95
2, 661440, Note_off_c, 0, 59, 95
2, 661440, Note_off_c, 0, 54, 95
2, 661440, Note_off_c, 0, 47, 95
2, 661440, Note_on_c, 0, 63, 95
2, 661440, Note_on_c, 0, 59, 95
2, 661440, Note_on_c, 0, 54, 95
2, 661440, Note_on_c, 0, 47, 95
2, 661920, Note_off_c, 0, 63, 95
2, 661920, Note_off_c, 0, 59, 95
2, 661920, Note_off_c, 0, 54, 95
2, 661920, Note_off_c, 0, 47, 95
2, 661920, Note_on_c, 0, 63, 95
2, 661920, Note_on_c, 0, 59, 95
2, 661920, Note_on_c, 0, 54, 95
2, 661920, Note_on_c, 0, 47, 95
2, 662160, Note_off_c, 0, 63, 95
2, 662160, Note_off_c, 0, 59, 95
2, 662160, Note_off_c, 0, 54, 95
2, 662160, Note_off_c, 0, 47, 95
2, 662160, Note_on_c, 0, 63, 95
2, 662160, Note_on_c, 0, 59, 95
2, 662160, Note_on_c, 0, 54, 95
2, 662160, Note_on_c, 0, 47, 95
2, 662640, Note_off_c, 0, 63, 95
2, 662640, Note_off_c, 0, 59, 95
2, 662640, Note_off_c, 0, 54, 95
2, 662640, Note_off_c, 0, 47, 95
2, 662640, Note_on_c, 0, 63, 95
2, 662640, Note_on_c, 0, 59, 95
2, 662640, Note_on_c, 0, 54, 95
2, 662640, Note_on_c, 0, 47, 95
2, 662880, Note_off_c, 0, 63, 95
2, 662880, Note_off_c, 0, 59, 95
2, 662880, Note_off_c, 0, 54, 95
2, 662880, Note_off_c, 0, 47, 95
2, 662880, Note_on_c, 0, 63, 95
2, 662880, Note_on_c, 0, 59, 95
2, 662880, Note_on_c, 0, 54, 95
2, 662880, Note_on_c, 0, 47, 95
2, 663120, Note_off_c, 0, 63, 95
2, 663120, Note_off_c, 0, 59, 95
2, 663120, Note_off_c, 0, 54, 95
2, 663120, Note_off_c, 0, 47, 95
2, 663120, Note_on_c, 0, 63, 95
2, 663120, Note_on_c, 0, 59, 95
2, 663120, Note_on_c, 0, 54, 95
2, 663120, Note_on_c, 0, 47, 95
2, 663360, Note_off_c, 0, 63, 95
2, 663360, Note_off_c, 0, 59, 95
2, 663360, Note_off_c, 0, 54, 95
2, 663360, Note_off_c, 0, 47, 95
2, 663360, Note_on_c, 0, 63, 95
2, 663360, Note_on_c, 0, 59, 95
2, 663360, Note_on_c, 0, 54, 95
2, 663360, Note_on_c, 0, 47, 95
2, 663600, Note_off_c, 0, 63, 95
2, 663600, Note_off_c, 0, 59, 95
2, 663600, Note_off_c, 0, 54, 95
2, 663600, Note_off_c, 0, 47, 95
2, 663600, Note_on_c, 0, 63, 95
2, 663600, Note_on_c, 0, 59, 95
2, 663600, Note_on_c, 0, 54, 95
2, 663600, Note_on_c, 0, 47, 95
2, 663840, Note_off_c, 0, 63, 95
2, 663840, Note_off_c, 0, 59, 95
2, 663840, Note_off_c, 0, 54, 95
2, 663840, Note_off_c, 0, 47, 95
2, 663840, Note_on_c, 0, 61, 95
2, 663840, Note_on_c, 0, 57, 95
2, 663840, Note_on_c, 0, 52, 95
2, 663840, Note_on_c, 0, 47, 95
2, 664080, Note_off_c, 0, 61, 95
2, 664080, Note_off_c, 0, 57, 95
2, 664080, Note_off_c, 0, 52, 95
2, 664080, Note_off_c, 0, 47, 95
2, 664080, Note_on_c, 0, 63, 70
2, 664080, Note_on_c, 0, 59, 70
2, 664080, Note_on_c, 0, 54, 70
2, 664320, Note_off_c, 0, 63, 70
2, 664320, Note_off_c, 0, 59, 70
2, 664320, Note_off_c, 0, 54, 70
2, 664320, Note_on_c, 0, 63, 95
2, 664320, Note_on_c, 0, 59, 95
2, 664320, Note_on_c, 0, 54, 95
2, 664320, Note_on_c, 0, 47, 95
2, 668160, Note_off_c, 0, 63, 95
2, 668160, Note_off_c, 0, 59, 95
2, 668160, Note_off_c, 0, 54, 95
2, 668160, Note_off_c, 0, 47, 95
2, 672000, Note_on_c, 0, 52, 95
2, 672240, Note_off_c, 0, 52, 95
2, 672240, Note_on_c, 0, 54, 70
2, 672480, Note_off_c, 0, 54, 70
2, 672480, Note_on_c, 0, 62, 95
2, 672720, Note_off_c, 0, 62, 95
2, 672720, Note_on_c, 0, 52, 95
2, 672960, Note_off_c, 0, 52, 95
2, 672960, Note_on_c, 0, 54, 70
2, 673200, Note_off_c, 0, 54, 70
2, 673200, Note_on_c, 0, 57, 95
2, 673440, Note_off_c, 0, 57, 95
2, 673440, Note_on_c, 0, 54, 95
2, 673680, Note_off_c, 0, 54, 95
2, 673680, Note_on_c, 0, 52, 70
2, 673920, Note_off_c, 0, 52, 70
2, 673920, Note_on_c, 0, 62, 95
2, 674160, Note_off_c, 0, 62, 95
2, 674160, Note_on_c, 0, 52, 95
2, 674400, Note_off_c, 0, 52, 95
2, 674400, Note_on_c, 0, 54, 70
2, 674640, Note_off_c, 0, 54, 70
2, 674640, Note_on_c, 0, 57, 95
2, 674880, Note_off_c, 0, 57, 95
2, 674880, Note_on_c, 0, 54, 95
2, 675360, Note_off_c, 0, 54, 95
2, 675360, Note_on_c, 0, 64, 95
2, 675360, Note_on_c, 0, 59, 95
2, 675360, Note_on_c, 0, 52, 95
2, 679680, Note_off_c, 0, 64, 95
2, 679680, Note_off_c, 0, 59, 95
2, 679680, Note_off_c, 0, 52, 95
2, 679680, Note_on_c, 0, 59, 95
2, 679920, Note_off_c, 0, 59, 95
2, 679920, Note_on_c, 0, 62, 95
2, 680400, Note_off_c, 0, 62, 95
2, 680400, Note_on_c, 0, 59, 95
2, 680640, Note_off_c, 0, 59, 95
2, 680640, Note_on_c, 0, 57, 95
2, 681120, Note_off_c, 0, 57, 95
2, 681120, Note_on_c, 0, 54, 95
2, 681360, Note_off_c, 0, 54, 95
2, 681360, Note_on_c, 0, 57, 95
2, 681840, Note_off_c, 0, 57, 95
2, 681840, Note_on_c, 0, 54, 95
2, 682080, Note_off_c, 0, 54, 95
2, 682080, Note_on_c, 0, 57, 95
2, 682560, Note_off_c, 0, 57, 95
2, 682560, Note_on_c, 0, 54, 95
2, 683040, Note_off_c, 0, 54, 95
2, 683040, Note_on_c, 0, 47, 95
2, 683520, Note_off_c, 0, 47, 95
2, 683520, Note_on_c, 0, 59, 95
2, 683520, Note_on_c, 0, 54, 95
2, 683520, Note_on_c, 0, 47, 95
2, 685680, Note_off_c, 0, 59, 95
2, 685680, Note_off_c, 0, 54, 95
2, 685680, Note_off_c, 0, 47, 95
2, 685680, Note_on_c, 0, 62, 95
2, 685680, Note_on_c, 0, 57, 95
2, 686160, Note_off_c, 0, 62, 95
2, 686160, Note_off_c, 0, 57, 95
2, 686160, Note_on_c, 0, 49, 95
2, 686160, Note_on_c, 0, 44, 95
2, 686160, Note_on_c, 0, 39, 95
2, 686226, Note_off_c, 0, 49, 95
2, 686226, Note_off_c, 0, 44, 95
2, 686226, Note_off_c, 0, 39, 95
2, 686400, Note_on_c, 0, 49, 95
2, 686400, Note_on_c, 0, 44, 95
2, 686400, Note_on_c, 0, 39, 95
2, 686466, Note_off_c, 0, 49, 95
2, 686466, Note_off_c, 0, 44, 95
2, 686466, Note_off_c, 0, 39, 95
2, 686640, Note_on_c, 0, 49, 95
2, 686640, Note_on_c, 0, 44, 95
2, 686640, Note_on_c, 0, 39, 95
2, 686706, Note_off_c, 0, 49, 95
2, 686706, Note_off_c, 0, 44, 95
2, 686706, Note_off_c, 0, 39, 95
2, 686880, Note_on_c, 0, 49, 95
2, 686880, Note_on_c, 0, 44, 95
2, 686880, Note_on_c, 0, 39, 95
2, 686946, Note_off_c, 0, 49, 95
2, 686946, Note_off_c, 0, 44, 95
2, 686946, Note_off_c, 0, 39, 95
2, 687120, Note_on_c, 0, 54, 95
2, 687360, Note_off_c, 0, 54, 95
2, 687360, Note_on_c, 0, 59, 95
2, 687360, Note_on_c, 0, 54, 95
2, 687360, Note_on_c, 0, 47, 95
2, 689520, Note_off_c, 0, 59, 95
2, 689520, Note_off_c, 0, 54, 95
2, 689520, Note_off_c, 0, 47, 95
2, 689520, Note_on_c, 0, 62, 95
2, 689520, Note_on_c, 0, 57, 95
2, 690000, Note_off_c, 0, 62, 95
2, 690000, Note_off_c, 0, 57, 95
2, 690000, Note_on_c, 0, 54, 95
2, 690000, Note_on_c, 0, 49, 95
2, 690066, Note_off_c, 0, 54, 95
2, 690066, Note_off_c, 0, 49, 95
2, 690240, Note_on_c, 0, 62, 95
2, 690240, Note_on_c, 0, 57, 95
2, 690720, Note_off_c, 0, 62, 95
2, 690720, Note_off_c, 0, 57, 95
2, 690720, Note_on_c, 0, 57, 95
2, 690720, Note_on_c, 0, 52, 95
2, 691200, Note_off_c, 0, 57, 95
2, 691200, Note_off_c, 0, 52, 95
2, 691200, Note_on_c, 1, 59, 95
2, 691200, Note_on_c, 1, 54, 95
2, 691200, Note_on_c, 1, 47, 95
2, 691360, Pitch_bend_c, 1, 8192
2, 691360, Pitch_bend_c, 1, 8192
2, 691360, Pitch_bend_c, 1, 8192
2, 691520, Pitch_bend_c, 1, 8320
2, 691520, Pitch_bend_c, 1, 8320
2, 691520, Pitch_bend_c, 1, 8320
2, 691680, Pitch_bend_c, 1, 8192
2, 691680, Pitch_bend_c, 1, 8192
2, 691680, Pitch_bend_c, 1, 8192
2, 691840, Pitch_bend_c, 1, 8320
2, 691840, Pitch_bend_c, 1, 8320
2, 691840, Pitch_bend_c, 1, 8320
2, 692000, Pitch_bend_c, 1, 8192
2, 692000, Pitch_bend_c, 1, 8192
2, 692000, Pitch_bend_c, 1, 8192
2, 692160, Pitch_bend_c, 1, 8320
2, 692160, Pitch_bend_c, 1, 8320
2, 692160, Pitch_bend_c, 1, 8320
2, 692320, Pitch_bend_c, 1, 8192
2, 692320, Pitch_bend_c, 1, 8192
2, 692320, Pitch_bend_c, 1, 8192
2, 692480, Pitch_bend_c, 1, 8320
2, 692480, Pitch_bend_c, 1, 8320
2, 692480, Pitch_bend_c, 1, 8320
2, 692640, Pitch_bend_c, 1, 8192
2, 692640, Pitch_bend_c, 1, 8192
2, 692640, Pitch_bend_c, 1, 8192
2, 692800, Pitch_bend_c, 1, 8320
2, 692800, Pitch_bend_c, 1, 8320
2, 692800, Pitch_bend_c, 1, 8320
2, 692960, Pitch_bend_c, 1, 8192
2, 692960, Pitch_bend_c, 1, 8192
2, 692960, Pitch_bend_c, 1, 8192
2, 693120, Pitch_bend_c, 1, 8320
2, 693120, Pitch_bend_c, 1, 8320
2, 693120, Pitch_bend_c, 1, 8320
2, 693280, Pitch_bend_c, 1, 8192
2, 693280, Pitch_bend_c, 1, 8192
2, 693280, Pitch_bend_c, 1, 8192
2, 693440, Pitch_bend_c, 1, 8320
2, 693440, Pitch_bend_c, 1, 8320
2, 693440, Pitch_bend_c, 1, 8320
2, 693600, Pitch_bend_c, 1, 8192
2, 693600, Pitch_bend_c, 1, 8192
2, 693600, Pitch_bend_c, 1, 8192
2, 693760, Pitch_bend_c, 1, 8320
2, 693760, Pitch_bend_c, 1, 8320
2, 693760, Pitch_bend_c, 1, 8320
2, 693920, Pitch_bend_c, 1, 8192
2, 693920, Pitch_bend_c, 1, 8192
2, 693920, Pitch_bend_c, 1, 8192
2, 694080, Pitch_bend_c, 1, 8320
2, 694080, Pitch_bend_c, 1, 8192
2, 694080, Note_off_c, 1, 59, 95
2, 694080, Pitch_bend_c, 1, 8320
2, 694080, Pitch_bend_c, 1, 8192
2, 694080, Note_off_c, 1, 54, 95
2, 694080, Pitch_bend_c, 1, 8320
2, 694080, Pitch_bend_c, 1, 8192
2, 694080, Note_off_c, 1, 47, 95
2, 694080, Note_on_c, 0, 49, 95
2, 694080, Note_on_c, 0, 44, 95
2, 694080, Note_on_c, 0, 39, 95
2, 694146, Note_off_c, 0, 49, 95
2, 694146, Note_off_c, 0, 44, 95
2, 694146, Note_off_c, 0, 39, 95
2, 694320, Note_on_c, 0, 49, 95
2, 694320, Note_on_c, 0, 44, 95
2, 694320, Note_on_c, 0, 39, 95
2, 694386, Note_off_c, 0, 49, 95
2, 694386, Note_off_c, 0, 44, 95
2, 694386, Note_off_c, 0, 39, 95
2, 694560, Note_on_c, 0, 49, 95
2, 694560, Note_on_c, 0, 44, 95
2, 694560, Note_on_c, 0, 39, 95
2, 694626, Note_off_c, 0, 49, 95
2, 694626, Note_off_c, 0, 44, 95
2, 694626, Note_off_c, 0, 39, 95
2, 694800, Note_on_c, 0, 49, 95
2, 694800, Note_on_c, 0, 44, 95
2, 694800, Note_on_c, 0, 39, 95
2, 694866, Note_off_c, 0, 49, 95
2, 694866, Note_off_c, 0, 44, 95
2, 694866, Note_off_c, 0, 39, 95
2, 695040, Note_on_c, 0, 59, 95
2, 695040, Note_on_c, 0, 54, 95
2, 695040, Note_on_c, 0, 47, 95
2, 697920, Note_off_c, 0, 59, 95
2, 697920, Note_off_c, 0, 54, 95
2, 697920, Note_off_c, 0, 47, 95
2, 697920, Note_on_c, 0, 78, 95
2, 698880, Note_off_c, 0, 78, 95
2, 698880, Note_on_c, 0, 59, 95
2, 698880, Note_on_c, 0, 54, 95
2, 698880, Note_on_c, 0, 47, 95
2, 701280, Note_off_c, 0, 59, 95
2, 701280, Note_off_c, 0, 54, 95
2, 701280, Note_off_c, 0, 47, 95
2, 701280, Note_on_c, 0, 64, 95
2, 701280, Note_on_c, 0, 59, 95
2, 701280, Note_on_c, 0, 52, 95
2, 701520, Note_off_c, 0, 64, 95
2, 701520, Note_off_c, 0, 59, 95
2, 701520, Note_off_c, 0, 52, 95
2, 701520, Note_on_c, 0, 64, 95
2, 701520, Note_on_c, 0, 59, 95
2, 701520, Note_on_c, 0, 52, 95
2, 701760, Note_off_c, 0, 64, 95
2, 701760, Note_off_c, 0, 59, 95
2, 701760, Note_off_c, 0, 52, 95
2, 701760, Note_on_c, 0, 64, 95
2, 701760, Note_on_c, 0, 59, 95
2, 701760, Note_on_c, 0, 52, 95
2, 702000, Note_off_c, 0, 64, 95
2, 702000, Note_off_c, 0, 59, 95
2, 702000, Note_off_c, 0, 52, 95
2, 702000, Note_on_c, 0, 54, 95
2, 702000, Note_on_c, 0, 49, 95
2, 702000, Note_on_c, 0, 44, 95
2, 702066, Note_off_c, 0, 54, 95
2, 702066, Note_off_c, 0, 49, 95
2, 702066, Note_off_c, 0, 44, 95
2, 702240, Note_on_c, 0, 57, 95
2, 702240, Note_on_c, 0, 52, 95
2, 702480, Note_off_c, 0, 57, 95
2, 702480, Note_off_c, 0, 52, 95
2, 702480, Note_on_c, 0, 57, 95
2, 702480, Note_on_c, 0, 52, 95
2, 702720, Note_off_c, 0, 57, 95
2, 702720, Note_off_c, 0, 52, 95
2, 702720, Note_on_c, 0, 59, 95
2, 702720, Note_on_c, 0, 54, 95
2, 702720, Note_on_c, 0, 47, 95
2, 705600, Note_off_c, 0, 59, 95
2, 705600, Note_off_c, 0, 54, 95
2, 705600, Note_off_c, 0, 47, 95
2, 705600, Note_on_c, 0, 54, 95
2, 705600, Note_on_c, 0, 57, 95
2, 705600, Note_on_c, 0, 44, 95
2, 705666, Note_off_c, 0, 54, 95
2, 705666, Note_off_c, 0, 44, 95
2, 706080, Note_off_c, 0, 57, 95
2, 706080, Note_on_c, 0, 49, 95
2, 706080, Note_on_c, 0, 44, 95
2, 706080, Note_on_c, 0, 39, 95
2, 706146, Note_off_c, 0, 49, 95
2, 706146, Note_off_c, 0, 44, 95
2, 706146, Note_off_c, 0, 39, 95
2, 706320, Note_on_c, 0, 49, 95
2, 706320, Note_on_c, 0, 44, 95
2, 706320, Note_on_c, 0, 39, 95
2, 706386, Note_off_c, 0, 49, 95
2, 706386, Note_off_c, 0, 44, 95
2, 706386, Note_off_c, 0, 39, 95
2, 706560, Note_on_c, 1, 63, 95
2, 706560, Note_on_c, 1, 59, 95
2, 706560, Note_on_c, 1, 54, 95
2, 706560, Note_on_c, 1, 47, 95
2, 706720, Pitch_bend_c, 1, 8192
2, 706720, Pitch_bend_c, 1, 8192
2, 706720, Pitch_bend_c, 1, 8192
2, 706720, Pitch_bend_c, 1, 8192
2, 706880, Pitch_bend_c, 1, 8320
2, 706880, Pitch_bend_c, 1, 8320
2, 706880, Pitch_bend_c, 1, 8320
2, 706880, Pitch_bend_c, 1, 8320
2, 707040, Pitch_bend_c, 1, 8192
2, 707040, Pitch_bend_c, 1, 8192
2, 707040, Pitch_bend_c, 1, 8192
2, 707040, Pitch_bend_c, 1, 8192
2, 707200, Pitch_bend_c, 1, 8320
2, 707200, Pitch_bend_c, 1, 8320
2, 707200, Pitch_bend_c, 1, 8320
2, 707200, Pitch_bend_c, 1, 8320
2, 707360, Pitch_bend_c, 1, 8192
2, 707360, Pitch_bend_c, 1, 8192
2, 707360, Pitch_bend_c, 1, 8192
2, 707360, Pitch_bend_c, 1, 8192
2, 707520, Pitch_bend_c, 1, 8320
2, 707520, Pitch_bend_c, 1, 8320
2, 707520, Pitch_bend_c, 1, 8320
2, 707520, Pitch_bend_c, 1, 8320
2, 707680, Pitch_bend_c, 1, 8192
2, 707680, Pitch_bend_c, 1, 8192
2, 707680, Pitch_bend_c, 1, 8192
2, 707680, Pitch_bend_c, 1, 8192
2, 707840, Pitch_bend_c, 1, 8320
2, 707840, Pitch_bend_c, 1, 8320
2, 707840, Pitch_bend_c, 1, 8320
2, 707840, Pitch_bend_c, 1, 8320
2, 708000, Pitch_bend_c, 1, 8192
2, 708000, Pitch_bend_c, 1, 8192
2, 708000, Pitch_bend_c, 1, 8192
2, 708000, Pitch_bend_c, 1, 8192
2, 708160, Pitch_bend_c, 1, 8320
2, 708160, Pitch_bend_c, 1, 8320
2, 708160, Pitch_bend_c, 1, 8320
2, 708160, Pitch_bend_c, 1, 8320
2, 708320, Pitch_bend_c, 1, 8192
2, 708320, Pitch_bend_c, 1, 8192
2, 708320, Pitch_bend_c, 1, 8192
2, 708320, Pitch_bend_c, 1, 8192
2, 708480, Pitch_bend_c, 1, 8320
2, 708480, Pitch_bend_c, 1, 8320
2, 708480, Pitch_bend_c, 1, 8320
2, 708480, Pitch_bend_c, 1, 8320
2, 708640, Pitch_bend_c, 1, 8192
2, 708640, Pitch_bend_c, 1, 8192
2, 708640, Pitch_bend_c, 1, 8192
2, 708640, Pitch_bend_c, 1, 8192
2, 708800, Pitch_bend_c, 1, 8320
2, 708800, Pitch_bend_c, 1, 8320
2, 708800, Pitch_bend_c, 1, 8320
2, 708800, Pitch_bend_c, 1, 8320
2, 708960, Pitch_bend_c, 1, 8192
2, 708960, Pitch_bend_c, 1, 8192
2, 708960, Pitch_bend_c, 1, 8192
2, 708960, Pitch_bend_c, 1, 8192
2, 709120, Pitch_bend_c, 1, 8320
2, 709120, Pitch_bend_c, 1, 8320
2, 709120, Pitch_bend_c, 1, 8320
2, 709120, Pitch_bend_c, 1, 8320
2, 709280, Pitch_bend_c, 1, 8192
2, 709280, Pitch_bend_c, 1, 8192
2, 709280, Pitch_bend_c, 1, 8192
2, 709280, Pitch_bend_c, 1, 8192
2, 709440, Pitch_bend_c, 1, 8320
2, 709440, Pitch_bend_c, 1, 8320
2, 709440, Pitch_bend_c, 1, 8320
2, 709440, Pitch_bend_c, 1, 8320
2, 709600, Pitch_bend_c, 1, 8192
2, 709600, Pitch_bend_c, 1, 8192
2, 709600, Pitch_bend_c, 1, 8192
2, 709600, Pitch_bend_c, 1, 8192
2, 709760, Pitch_bend_c, 1, 8320
2, 709760, Pitch_bend_c, 1, 8320
2, 709760, Pitch_bend_c, 1, 8320
2, 709760, Pitch_bend_c, 1, 8320
2, 709920, Pitch_bend_c, 1, 8192
2, 709920, Pitch_bend_c, 1, 8192
2, 709920, Pitch_bend_c, 1, 8192
2, 709920, Pitch_bend_c, 1, 8192
2, 710080, Pitch_bend_c, 1, 8320
2, 710080, Pitch_bend_c, 1, 8320
2, 710080, Pitch_bend_c, 1, 8320
2, 710080, Pitch_bend_c, 1, 8320
2, 710240, Pitch_bend_c, 1, 8192
2, 710240, Pitch_bend_c, 1, 8192
2, 710240, Pitch_bend_c, 1, 8192
2, 710240, Pitch_bend_c, 1, 8192
2, 710400, Pitch_bend_c, 1, 8320
2, 710400, Pitch_bend_c, 1, 8320
2, 710400, Pitch_bend_c, 1, 8320
2, 710400, Pitch_bend_c, 1, 8320
2, 710560, Pitch_bend_c, 1, 8192
2, 710560, Pitch_bend_c, 1, 8192
2, 710560, Pitch_bend_c, 1, 8192
2, 710560, Pitch_bend_c, 1, 8192
2, 710720, Pitch_bend_c, 1, 8320
2, 710720, Pitch_bend_c, 1, 8320
2, 710720, Pitch_bend_c, 1, 8320
2, 710720, Pitch_bend_c, 1, 8320
2, 710880, Pitch_bend_c, 1, 8192
2, 710880, Pitch_bend_c, 1, 8192
2, 710880, Pitch_bend_c, 1, 8192
2, 710880, Pitch_bend_c, 1, 8192
2, 711040, Pitch_bend_c, 1, 8320
2, 711040, Pitch_bend_c, 1, 8320
2, 711040, Pitch_bend_c, 1, 8320
2, 711040, Pitch_bend_c, 1, 8320
2, 711200, Pitch_bend_c, 1, 8192
2, 711200, Pitch_bend_c, 1, 8192
2, 711200, Pitch_bend_c, 1, 8192
2, 711200, Pitch_bend_c, 1, 8192
2, 711360, Pitch_bend_c, 1, 8320
2, 711360, Pitch_bend_c, 1, 8320
2, 711360, Pitch_bend_c, 1, 8320
2, 711360, Pitch_bend_c, 1, 8320
2, 711520, Pitch_bend_c, 1, 8192
2, 711520, Pitch_bend_c, 1, 8192
2, 711520, Pitch_bend_c, 1, 8192
2, 711520, Pitch_bend_c, 1, 8192
2, 711680, Pitch_bend_c, 1, 8320
2, 711680, Pitch_bend_c, 1, 8320
2, 711680, Pitch_bend_c, 1, 8320
2, 711680, Pitch_bend_c, 1, 8320
2, 711840, Pitch_bend_c, 1, 8192
2, 711840, Pitch_bend_c, 1, 8192
2, 711840, Pitch_bend_c, 1, 8192
2, 711840, Pitch_bend_c, 1, 8192
2, 712000, Pitch_bend_c, 1, 8320
2, 712000, Pitch_bend_c, 1, 8320
2, 712000, Pitch_bend_c, 1, 8320
2, 712000, Pitch_bend_c, 1, 8320
2, 712160, Pitch_bend_c, 1, 8192
2, 712160, Pitch_bend_c, 1, 8192
2, 712160, Pitch_bend_c, 1, 8192
2, 712160, Pitch_bend_c, 1, 8192
2, 712320, Pitch_bend_c, 1, 8320
2, 712320, Pitch_bend_c, 1, 8320
2, 712320, Pitch_bend_c, 1, 8320
2, 712320, Pitch_bend_c, 1, 8320
2, 712480, Pitch_bend_c, 1, 8192
2, 712480, Pitch_bend_c, 1, 8192
2, 712480, Pitch_bend_c, 1, 8192
2, 712480, Pitch_bend_c, 1, 8192
2, 712640, Pitch_bend_c, 1, 8320
2, 712640, Pitch_bend_c, 1, 8320
2, 712640, Pitch_bend_c, 1, 8320
2, 712640, Pitch_bend_c, 1, 8320
2, 712800, Pitch_bend_c, 1, 8192
2, 712800, Pitch_bend_c, 1, 8192
2, 712800, Pitch_bend_c, 1, 8192
2, 712800, Pitch_bend_c, 1, 8192
2, 712960, Pitch_bend_c, 1, 8320
2, 712960, Pitch_bend_c, 1, 8320
2, 712960, Pitch_bend_c, 1, 8320
2, 712960, Pitch_bend_c, 1, 8320
2, 713120, Pitch_bend_c, 1, 8192
2, 713120, Pitch_bend_c, 1, 8192
2, 713120, Pitch_bend_c, 1, 8192
2, 713120, Pitch_bend_c, 1, 8192
2, 713280, Pitch_bend_c, 1, 8320
2, 713280, Pitch_bend_c, 1, 8320
2, 713280, Pitch_bend_c, 1, 8320
2, 713280, Pitch_bend_c, 1, 8320
2, 713440, Pitch_bend_c, 1, 8192
2, 713440, Pitch_bend_c, 1, 8192
2, 713440, Pitch_bend_c, 1, 8192
2, 713440, Pitch_bend_c, 1, 8192
2, 713600, Pitch_bend_c, 1, 8320
2, 713600, Pitch_bend_c, 1, 8320
2, 713600, Pitch_bend_c, 1, 8320
2, 713600, Pitch_bend_c, 1, 8320
2, 713760, Pitch_bend_c, 1, 8192
2, 713760, Pitch_bend_c, 1, 8192
2, 713760, Pitch_bend_c, 1, 8192
2, 713760, Pitch_bend_c, 1, 8192
2, 713920, Pitch_bend_c, 1, 8320
2, 713920, Pitch_bend_c, 1, 8320
2, 713920, Pitch_bend_c, 1, 8320
2, 713920, Pitch_bend_c, 1, 8320
2, 714080, Pitch_bend_c, 1, 8192
2, 714080, Pitch_bend_c, 1, 8192
2, 714080, Pitch_bend_c, 1, 8192
2, 714080, Pitch_bend_c, 1, 8192
2, 714240, Pitch_bend_c, 1, 8320
2, 714240, Pitch_bend_c, 1, 8320
2, 714240, Pitch_bend_c, 1, 8320
2, 714240, Pitch_bend_c, 1, 8320
2, 714400, Pitch_bend_c, 1, 8192
2, 714400, Pitch_bend_c, 1, 8192
2, 714400, Pitch_bend_c, 1, 8192
2, 714400, Pitch_bend_c, 1, 8192
2, 714560, Pitch_bend_c, 1, 8320
2, 714560, Pitch_bend_c, 1, 8320
2, 714560, Pitch_bend_c, 1, 8320
2, 714560, Pitch_bend_c, 1, 8320
2, 714720, Pitch_bend_c, 1, 8192
2, 714720, Pitch_bend_c, 1, 8192
2, 714720, Pitch_bend_c, 1, 8192
2, 714720, Pitch_bend_c, 1, 8192
2, 714880, Pitch_bend_c, 1, 8320
2, 714880, Pitch_bend_c, 1, 8320
2, 714880, Pitch_bend_c, 1, 8320
2, 714880, Pitch_bend_c, 1, 8320
2, 715040, Pitch_bend_c, 1, 8192
2, 715040, Pitch_bend_c, 1, 8192
2, 715040, Pitch_bend_c, 1, 8192
2, 715040, Pitch_bend_c, 1, 8192
2, 715200, Pitch_bend_c, 1, 8320
2, 715200, Pitch_bend_c, 1, 8320
2, 715200, Pitch_bend_c, 1, 8320
2, 715200, Pitch_bend_c, 1, 8320
2, 715360, Pitch_bend_c, 1, 8192
2, 715360, Pitch_bend_c, 1, 8192
2, 715360, Pitch_bend_c, 1, 8192
2, 715360, Pitch_bend_c, 1, 8192
2, 715520, Pitch_bend_c, 1, 8320
2, 715520, Pitch_bend_c, 1, 8320
2, 715520, Pitch_bend_c, 1, 8320
2, 715520, Pitch_bend_c, 1, 8320
2, 715680, Pitch_bend_c, 1, 8192
2, 715680, Pitch_bend_c, 1, 8192
2, 715680, Pitch_bend_c, 1, 8192
2, 715680, Pitch_bend_c, 1, 8192
2, 715840, Pitch_bend_c, 1, 8320
2, 715840, Pitch_bend_c, 1, 8320
2, 715840, Pitch_bend_c, 1, 8320
2, 715840, Pitch_bend_c, 1, 8320
2, 716000, Pitch_bend_c, 1, 8192
2, 716000, Pitch_bend_c, 1, 8192
2, 716000, Pitch_bend_c, 1, 8192
2, 716000, Pitch_bend_c, 1, 8192
2, 716160, Pitch_bend_c, 1, 8320
2, 716160, Pitch_bend_c, 1, 8320
2, 716160, Pitch_bend_c, 1, 8320
2, 716160, Pitch_bend_c, 1, 8320
2, 716320, Pitch_bend_c, 1, 8192
2, 716320, Pitch_bend_c, 1, 8192
2, 716320, Pitch_bend_c, 1, 8192
2, 716320, Pitch_bend_c, 1, 8192
2, 716480, Pitch_bend_c, 1, 8320
2, 716480, Pitch_bend_c, 1, 8320
2, 716480, Pitch_bend_c, 1, 8320
2, 716480, Pitch_bend_c, 1, 8320
2, 716640, Pitch_bend_c, 1, 8192
2, 716640, Pitch_bend_c, 1, 8192
2, 716640, Pitch_bend_c, 1, 8192
2, 716640, Pitch_bend_c, 1, 8192
2, 716800, Pitch_bend_c, 1, 8320
2, 716800, Pitch_bend_c, 1, 8320
2, 716800, Pitch_bend_c, 1, 8320
2, 716800, Pitch_bend_c, 1, 8320
2, 716960, Pitch_bend_c, 1, 8192
2, 716960, Pitch_bend_c, 1, 8192
2, 716960, Pitch_bend_c, 1, 8192
2, 716960, Pitch_bend_c, 1, 8192
2, 717120, Pitch_bend_c, 1, 8320
2, 717120, Pitch_bend_c, 1, 8320
2, 717120, Pitch_bend_c, 1, 8320
2, 717120, Pitch_bend_c, 1, 8320
2, 717280, Pitch_bend_c, 1, 8192
2, 717280, Pitch_bend_c, 1, 8192
2, 717280, Pitch_bend_c, 1, 8192
2, 717280, Pitch_bend_c, 1, 8192
2, 717440, Pitch_bend_c, 1, 8320
2, 717440, Pitch_bend_c, 1, 8320
2, 717440, Pitch_bend_c, 1, 8320
2, 717440, Pitch_bend_c, 1, 8320
2, 717600, Pitch_bend_c, 1, 8192
2, 717600, Pitch_bend_c, 1, 8192
2, 717600, Pitch_bend_c, 1, 8192
2, 717600, Pitch_bend_c, 1, 8192
2, 717760, Pitch_bend_c, 1, 8320
2, 717760, Pitch_bend_c, 1, 8320
2, 717760, Pitch_bend_c, 1, 8320
2, 717760, Pitch_bend_c, 1, 8320
2, 717920, Pitch_bend_c, 1, 8192
2, 717920, Pitch_bend_c, 1, 8192
2, 717920, Pitch_bend_c, 1, 8192
2, 717920, Pitch_bend_c, 1, 8192
2, 718080, Pitch_bend_c, 1, 8320
2, 718080, Pitch_bend_c, 1, 8192
2, 718080, Note_off_c, 1, 63, 95
2, 718080, Pitch_bend_c, 1, 8320
2, 718080, Pitch_bend_c, 1, 8192
2, 718080, Note_off_c, 1, 59, 95
2, 718080, Pitch_bend_c, 1, 8320
2, 718080, Pitch_bend_c, 1, 8192
2, 718080, Note_off_c, 1, 54, 95
2, 718080, Pitch_bend_c, 1, 8320
2, 718080, Pitch_bend_c, 1, 8192
2, 718080, Note_off_c, 1, 47, 95
2, 720960, Note_on_c, 0, 66, 95
2, 721440, Note_off_c, 0, 66, 95
2, 722400, Note_on_c, 0, 66, 95
2, 722880, Note_off_c, 0, 66, 95
2, 722880, Note_on_c, 0, 64, 95
2, 723360, Note_off_c, 0, 64, 95
2, 723360, Note_on_c, 0, 62, 70
2, 723600, Note_off_c, 0, 62, 70
2, 723600, Note_on_c, 0, 64, 95
2, 723840, Note_off_c, 0, 64, 95
2, 723840, Note_on_c, 0, 62, 70
2, 724080, Note_off_c, 0, 62, 70
2, 724080, Note_on_c, 0, 59, 95
2, 724560, Note_off_c, 0, 59, 95
2, 724560, Note_on_c, 0, 62, 95
2, 725040, Note_off_c, 0, 62, 95
2, 725040, Note_on_c, 0, 64, 95
2, 726240, Note_off_c, 0, 64, 95
2, 726240, Note_on_c, 0, 66, 95
2, 726720, Note_off_c, 0, 66, 95
2, 726720, Note_on_c, 0, 64, 95
2, 727200, Note_off_c, 0, 64, 95
2, 727200, Note_on_c, 0, 62, 95
2, 727440, Note_off_c, 0, 62, 95
2, 727440, Note_on_c, 0, 64, 70
2, 727920, Note_off_c, 0, 64, 70
2, 727920, Note_on_c, 0, 69, 95
2, 728640, Note_off_c, 0, 69, 95
2, 728640, Note_on_c, 0, 66, 95
2, 729120, Note_off_c, 0, 66, 95
2, 729120, Note_on_c, 0, 64, 95
2, 730080, Note_off_c, 0, 64, 95
2, 730080, Note_on_c, 0, 64, 95
2, 730560, Note_off_c, 0, 64, 95
2, 730560, Note_on_c, 0, 62, 95
2, 731040, Note_off_c, 0, 62, 95
2, 731040, Note_on_c, 0, 59, 95
2, 731280, Note_off_c, 0, 59, 95
2, 731280, Note_on_c, 0, 62, 95
2, 731760, Note_off_c, 0, 62, 95
2, 731760, Note_on_c, 0, 59, 95
2, 732000, Note_off_c, 0, 59, 95
2, 732000, Note_on_c, 0, 57, 95
2, 732480, Note_off_c, 0, 57, 95
2, 732480, Note_on_c, 0, 59, 95
2, 732960, Note_off_c, 0, 59, 95
2, 732960, Note_on_c, 0, 62, 95
2, 733440, Note_off_c, 0, 62, 95
2, 733440, Note_on_c, 0, 64, 95
2, 733920, Note_off_c, 0, 64, 95
2, 733920, Note_on_c, 0, 62, 95
2, 734400, Note_off_c, 0, 62, 95
2, 734400, Note_on_c, 0, 59, 95
2, 734880, Note_off_c, 0, 59, 95
2, 734880, Note_on_c, 0, 62, 95
2, 735120, Note_off_c, 0, 62, 95
2, 735120, Note_on_c, 1, 64, 95
2, 735240, Pitch_bend_c, 1, 8192
2, 735360, Pitch_bend_c, 1, 8192
2, 735360, Pitch_bend_c, 1, 8192
2, 735600, Note_off_c, 1, 64, 95
2, 735600, Note_on_c, 0, 66, 95
2, 735840, Note_off_c, 0, 66, 95
2, 735840, Note_on_c, 0, 64, 95
2, 736320, Note_off_c, 0, 64, 95
2, 736320, Note_on_c, 0, 66, 95
2, 736800, Note_off_c, 0, 66, 95
2, 736800, Note_on_c, 0, 69, 95
2, 737280, Note_off_c, 0, 69, 95
2, 737280, Note_on_c, 0, 69, 95
2, 738240, Note_off_c, 0, 69, 95
2, 738240, Note_on_c, 0, 69, 95
2, 738720, Note_off_c, 0, 69, 95
2, 738720, Note_on_c, 0, 69, 95
2, 738960, Note_off_c, 0, 69, 95
2, 738960, Note_on_c, 0, 69, 95
2, 739440, Note_off_c, 0, 69, 95
2, 739440, Note_on_c, 0, 66, 95
2, 739680, Note_off_c, 0, 66, 95
2, 739680, Note_on_c, 0, 66, 95
2, 740160, Note_off_c, 0, 66, 95
2, 740160, Note_on_c, 0, 66, 95
2, 741120, Note_off_c, 0, 66, 95
2, 741120, Note_on_c, 0, 66, 95
2, 741360, Note_off_c, 0, 66, 95
2, 741360, Note_on_c, 0, 64, 70
2, 741600, Note_off_c, 0, 64, 70
2, 741600, Note_on_c, 0, 66, 95
2, 741840, Note_off_c, 0, 66, 95
2, 741840, Note_on_c, 0, 64, 70
2, 742080, Note_off_c, 0, 64, 70
2, 742080, Note_on_c, 0, 66, 95
2, 742320, Note_off_c, 0, 66, 95
2, 742320, Note_on_c, 0, 64, 70
2, 742560, Note_off_c, 0, 64, 70
2, 742560, Note_on_c, 0, 62, 95
2, 742800, Note_off_c, 0, 62, 95
2, 742800, Note_on_c, 0, 64, 95
2, 743280, Note_off_c, 0, 64, 95
2, 743280, Note_on_c, 0, 62, 95
2, 743760, Note_off_c, 0, 62, 95
2, 743760, Note_on_c, 0, 59, 95
2, 744000, Note_off_c, 0, 59, 95
2, 744000, Note_on_c, 0, 62, 95
2, 744480, Note_off_c, 0, 62, 95
2, 744480, Note_on_c, 0, 64, 95
2, 744960, Note_off_c, 0, 64, 95
2, 744960, Note_on_c, 1, 62, 95
2, 745080, Pitch_bend_c, 1, 7680
2, 745200, Pitch_bend_c, 1, 7168
2, 745320, Pitch_bend_c, 1, 6656
2, 745440, Pitch_bend_c, 1, 6144
2, 745440, Pitch_bend_c, 1, 8192
2, 745440, Note_off_c, 1, 62, 95
2, 745440, Note_on_c, 0, 59, 95
2, 745920, Note_off_c, 0, 59, 95
2, 745920, Note_on_c, 0, 66, 95
2, 746400, Note_off_c, 0, 66, 95
2, 746400, Note_on_c, 0, 71, 95
2, 746640, Note_off_c, 0, 71, 95
2, 746640, Note_on_c, 0, 64, 95
2, 747120, Note_off_c, 0, 64, 95
2, 747120, Note_on_c, 0, 62, 95
2, 747360, Note_off_c, 0, 62, 95
2, 747360, Note_on_c, 0, 59, 95
2, 747840, Note_off_c, 0, 59, 95
2, 747840, Note_on_c, 0, 62, 95
2, 748320, Note_off_c, 0, 62, 95
2, 748320, Note_on_c, 0, 59, 95
2, 749280, Note_off_c, 0, 59, 95
2, 749280, Note_on_c, 0, 59, 95
2, 749760, Note_off_c, 0, 59, 95
2, 749760, Note_on_c, 0, 66, 95
2, 750240, Note_off_c, 0, 66, 95
2, 750240, Note_on_c, 0, 71, 95
2, 750480, Note_off_c, 0, 71, 95
2, 750480, Note_on_c, 0, 64, 95
2, 750960, Note_off_c, 0, 64, 95
2, 750960, Note_on_c, 0, 62, 95
2, 751200, Note_off_c, 0, 62, 95
2, 751200, Note_on_c, 0, 59, 95
2, 751680, Note_off_c, 0, 59, 95
2, 751680, Note_on_c, 0, 66, 95
2, 751680, Note_on_c, 0, 62, 95
2, 752160, Note_off_c, 0, 66, 95
2, 752160, Note_off_c, 0, 62, 95
2, 752160, Pitch_bend_c, 1, 8192
2, 752160, Note_on_c, 1, 68, 95
2, 752160, Pitch_bend_c, 1, 8192
2, 752160, Note_on_c, 1, 64, 95
2, 752356, Pitch_bend_c, 1, 8320
2, 752356, Pitch_bend_c, 1, 8320
2, 752552, Pitch_bend_c, 1, 8448
2, 752552, Pitch_bend_c, 1, 8448
2, 752748, Pitch_bend_c, 1, 8576
2, 752748, Pitch_bend_c, 1, 8576
2, 752944, Pitch_bend_c, 1, 8704
2, 752944, Pitch_bend_c, 1, 8704
2, 753140, Pitch_bend_c, 1, 8832
2, 753140, Pitch_bend_c, 1, 8832
2, 753336, Pitch_bend_c, 1, 8960
2, 753336, Pitch_bend_c, 1, 8960
2, 753532, Pitch_bend_c, 1, 9088
2, 753532, Pitch_bend_c, 1, 9088
2, 753728, Pitch_bend_c, 1, 9216
2, 753728, Pitch_bend_c, 1, 9216
2, 753924, Pitch_bend_c, 1, 9344
2, 753924, Pitch_bend_c, 1, 9344
2, 754120, Pitch_bend_c, 1, 9472
2, 754120, Pitch_bend_c, 1, 9472
2, 754316, Pitch_bend_c, 1, 9600
2, 754316, Pitch_bend_c, 1, 9600
2, 754320, Pitch_bend_c, 1, 9600
2, 754320, Pitch_bend_c, 1, 9600
2, 756480, Pitch_bend_c, 1, 9600
2, 756480, Pitch_bend_c, 1, 8192
2, 756480, Note_off_c, 1, 68, 95
2, 756480, Pitch_bend_c, 1, 9600
2, 756480, Pitch_bend_c, 1, 8192
2, 756480, Note_off_c, 1, 64, 95
2, 756480, Pitch_bend_c, 1, 8192
2, 756480, Note_on_c, 1, 68, 95
2, 756480, Pitch_bend_c, 1, 8192
2, 756480, Note_on_c, 1, 64, 95
2, 756654, Pitch_bend_c, 1, 8320
2, 756654, Pitch_bend_c, 1, 8320
2, 756828, Pitch_bend_c, 1, 8448
2, 756828, Pitch_bend_c, 1, 8448
2, 757002, Pitch_bend_c, 1, 8576
2, 757002, Pitch_bend_c, 1, 8576
2, 757176, Pitch_bend_c, 1, 8704
2, 757176, Pitch_bend_c, 1, 8704
2, 757350, Pitch_bend_c, 1, 8832
2, 757350, Pitch_bend_c, 1, 8832
2, 757524, Pitch_bend_c, 1, 8960
2, 757524, Pitch_bend_c, 1, 8960
2, 757698, Pitch_bend_c, 1, 9088
2, 757698, Pitch_bend_c, 1, 9088
2, 757872, Pitch_bend_c, 1, 9216
2, 757872, Pitch_bend_c, 1, 9216
2, 758046, Pitch_bend_c, 1, 9344
2, 758046, Pitch_bend_c, 1, 9344
2, 758220, Pitch_bend_c, 1, 9472
2, 758220, Pitch_bend_c, 1, 9472
2, 758394, Pitch_bend_c, 1, 9600
2, 758394, Pitch_bend_c, 1, 9600
2, 758400, Pitch_bend_c, 1, 9600
2, 758400, Pitch_bend_c, 1, 9600
2, 760320, Pitch_bend_c, 1, 9600
2, 760320, Pitch_bend_c, 1, 8192
2, 760320, Note_off_c, 1, 68, 95
2, 760320, Pitch_bend_c, 1, 9600
2, 760320, Pitch_bend_c, 1, 8192
2, 760320, Note_off_c, 1, 64, 95
2, 760320, Note_on_c, 0, 59, 95
2, 761280, Note_off_c, 0, 59, 95
2, 761280, Note_on_c, 0, 66, 95
2, 761760, Note_off_c, 0, 66, 95
2, 761760, Note_on_c, 0, 59, 95
2, 762240, Note_off_c, 0, 59, 95
2, 762240, Note_on_c, 0, 64, 95
2, 762720, Note_off_c, 0, 64, 95
2, 762720, Note_on_c, 0, 63, 70
2, 763200, Note_off_c, 0, 63, 70
2, 763200, Note_on_c, 0, 59, 95
2, 763680, Note_off_c, 0, 59, 95
2, 763680, Note_on_c, 0, 59, 95
2, 765120, Note_off_c, 0, 59, 95
2, 765120, Note_on_c, 0, 66, 95
2, 765600, Note_off_c, 0, 66, 95
2, 765600, Note_on_c, 0, 59, 95
2, 766080, Note_off_c, 0, 59, 95
2, 766080, Note_on_c, 0, 64, 95
2, 766560, Note_off_c, 0, 64, 95
2, 766560, Note_on_c, 0, 63, 70
2, 767040, Note_off_c, 0, 63, 70
2, 767040, Note_on_c, 0, 59, 95
2, 767520, Note_off_c, 0, 59, 95
2, 767520, Note_on_c, 0, 59, 95
2, 768000, Note_off_c, 0, 59, 95
2, 768000, Note_on_c, 0, 59, 95
2, 768960, Note_off_c, 0, 59, 95
2, 768960, Note_on_c, 0, 66, 95
2, 769440, Note_off_c, 0, 66, 95
2, 769440, Note_on_c, 0, 59, 95
2, 769920, Note_off_c, 0, 59, 95
2, 769920, Note_on_c, 0, 64, 95
2, 770400, Note_off_c, 0, 64, 95
2, 770400, Note_on_c, 0, 63, 70
2, 770880, Note_off_c, 0, 63, 70
2, 770880, Note_on_c, 0, 59, 95
2, 771360, Note_off_c, 0, 59, 95
2, 771360, Note_on_c, 0, 59, 95
2, 772800, Note_off_c, 0, 59, 95
2, 772800, Note_on_c, 0, 66, 95
2, 773280, Note_off_c, 0, 66, 95
2, 773280, Note_on_c, 0, 59, 95
2, 773760, Note_off_c, 0, 59, 95
2, 773760, Note_on_c, 0, 64, 95
2, 774240, Note_off_c, 0, 64, 95
2, 774240, Note_on_c, 0, 63, 70
2, 774720, Note_off_c, 0, 63, 70
2, 774720, Note_on_c, 0, 59, 95
2, 775200, Note_off_c, 0, 59, 95
2, 775200, Note_on_c, 0, 59, 95
2, 775680, Note_off_c, 0, 59, 95
2, 775680, Note_on_c, 0, 59, 95
2, 776640, Note_off_c, 0, 59, 95
2, 776640, Note_on_c, 0, 66, 95
2, 777120, Note_off_c, 0, 66, 95
2, 777120, Note_on_c, 0, 59, 95
2, 777600, Note_off_c, 0, 59, 95
2, 777600, Note_on_c, 0, 64, 95
2, 778080, Note_off_c, 0, 64, 95
2, 778080, Note_on_c, 0, 63, 70
2, 778560, Note_off_c, 0, 63, 70
2, 778560, Note_on_c, 0, 59, 95
2, 779040, Note_off_c, 0, 59, 95
2, 779040, Note_on_c, 0, 59, 95
2, 780480, Note_off_c, 0, 59, 95
2, 780480, Note_on_c, 0, 66, 95
2, 780960, Note_off_c, 0, 66, 95
2, 780960, Note_on_c, 0, 59, 95
2, 781440, Note_off_c, 0, 59, 95
2, 781440, Note_on_c, 0, 64, 95
2, 781920, Note_off_c, 0, 64, 95
2, 781920, Note_on_c, 0, 63, 70
2, 782400, Note_off_c, 0, 63, 70
2, 782400, Note_on_c, 0, 59, 95
2, 782880, Note_off_c, 0, 59, 95
2, 782880, Note_on_c, 0, 59, 95
2, 783360, Note_off_c, 0, 59, 95
2, 783360, Note_on_c, 0, 59, 95
2, 784320, Note_off_c, 0, 59, 95
2, 784320, Note_on_c, 0, 66, 95
2, 784800, Note_off_c, 0, 66, 95
2, 784800, Note_on_c, 0, 59, 95
2, 785280, Note_off_c, 0, 59, 95
2, 785280, Note_on_c, 0, 64, 95
2, 785760, Note_off_c, 0, 64, 95
2, 785760, Note_on_c, 0, 63, 70
2, 786240, Note_off_c, 0, 63, 70
2, 786240, Note_on_c, 0, 59, 95
2, 786720, Note_off_c, 0, 59, 95
2, 786720, Note_on_c, 0, 59, 95
2, 788160, Note_off_c, 0, 59, 95
2, 788160, Note_on_c, 0, 66, 95
2, 788640, Note_off_c, 0, 66, 95
2, 788640, Note_on_c, 0, 59, 95
2, 789120, Note_off_c, 0, 59, 95
2, 789120, Note_on_c, 0, 64, 95
2, 789600, Note_off_c, 0, 64, 95
2, 789600, Note_on_c, 0, 63, 70
2, 790080, Note_off_c, 0, 63, 70
2, 790080, Note_on_c, 0, 59, 95
2, 790560, Note_off_c, 0, 59, 95
2, 790560, Note_on_c, 0, 59, 95
2, 791040, Note_off_c, 0, 59, 95
2, 791040, Note_on_c, 0, 59, 95
2, 792000, Note_off_c, 0, 59, 95
2, 792000, Note_on_c, 0, 66, 95
2, 792480, Note_off_c, 0, 66, 95
2, 792480, Note_on_c, 0, 59, 95
2, 792960, Note_off_c, 0, 59, 95
2, 792960, Note_on_c, 0, 64, 95
2, 793440, Note_off_c, 0, 64, 95
2, 793440, Note_on_c, 0, 63, 70
2, 793920, Note_off_c, 0, 63, 70
2, 793920, Note_on_c, 0, 59, 95
2, 794400, Note_off_c, 0, 59, 95
2, 794400, Note_on_c, 0, 59, 95
2, 795840, Note_off_c, 0, 59, 95
2, 795840, Note_on_c, 0, 66, 95
2, 796320, Note_off_c, 0, 66, 95
2, 796320, Note_on_c, 0, 59, 95
2, 796800, Note_off_c, 0, 59, 95
2, 796800, Note_on_c, 0, 64, 95
2, 797280, Note_off_c, 0, 64, 95
2, 797280, Note_on_c, 0, 63, 70
2, 797760, Note_off_c, 0, 63, 70
2, 797760, Note_on_c, 0, 59, 95
2, 798240, Note_off_c, 0, 59, 95
2, 798240, Note_on_c, 0, 59, 95
2, 798720, Note_off_c, 0, 59, 95
2, 798720, Note_on_c, 0, 59, 95
2, 799680, Note_off_c, 0, 59, 95
2, 799680, Note_on_c, 0, 66, 95
2, 800160, Note_off_c, 0, 66, 95
2, 800160, Note_on_c, 0, 59, 95
2, 800640, Note_off_c, 0, 59, 95
2, 800640, Note_on_c, 0, 64, 95
2, 801120, Note_off_c, 0, 64, 95
2, 801120, Note_on_c, 0, 63, 70
2, 801600, Note_off_c, 0, 63, 70
2, 801600, Note_on_c, 0, 59, 95
2, 802080, Note_off_c, 0, 59, 95
2, 802080, Note_on_c, 0, 59, 95
2, 803520, Note_off_c, 0, 59, 95
2, 803520, Note_on_c, 0, 66, 95
2, 804000, Note_off_c, 0, 66, 95
2, 804000, Note_on_c, 0, 59, 95
2, 804480, Note_off_c, 0, 59, 95
2, 804480, Note_on_c, 0, 64, 95
2, 804960, Note_off_c, 0, 64, 95
2, 804960, Note_on_c, 0, 63, 70
2, 805440, Note_off_c, 0, 63, 70
2, 805440, Note_on_c, 0, 59, 95
2, 805920, Note_off_c, 0, 59, 95
2, 805920, Note_on_c, 0, 59, 95
2, 806400, Note_off_c, 0, 59, 95
2, 806400, Note_on_c, 0, 59, 95
2, 807360, Note_off_c, 0, 59, 95
2, 807360, Note_on_c, 0, 66, 95
2, 807840, Note_off_c, 0, 66, 95
2, 807840, Note_on_c, 0, 59, 95
2, 808320, Note_off_c, 0, 59, 95
2, 808320, Note_on_c, 0, 64, 95
2, 808800, Note_off_c, 0, 64, 95
2, 808800, Note_on_c, 0, 63, 70
2, 809280, Note_off_c, 0, 63, 70
2, 809280, Note_on_c, 0, 59, 95
2, 809760, Note_off_c, 0, 59, 95
2, 809760, Note_on_c, 0, 59, 95
2, 811200, Note_off_c, 0, 59, 95
2, 811200, Note_on_c, 0, 66, 95
2, 811680, Note_off_c, 0, 66, 95
2, 811680, Note_on_c, 0, 59, 95
2, 812160, Note_off_c, 0, 59, 95
2, 812160, Note_on_c, 0, 64, 95
2, 812640, Note_off_c, 0, 64, 95
2, 812640, Note_on_c, 0, 63, 70
2, 813120, Note_off_c, 0, 63, 70
2, 813120, Note_on_c, 0, 59, 95
2, 813600, Note_off_c, 0, 59, 95
2, 813600, Note_on_c, 0, 59, 95
2, 814080, Note_off_c, 0, 59, 95
2, 814080, Note_on_c, 0, 59, 95
2, 815040, Note_off_c, 0, 59, 95
2, 815040, Note_on_c, 0, 66, 95
2, 815520, Note_off_c, 0, 66, 95
2, 815520, Note_on_c, 0, 59, 95
2, 816000, Note_off_c, 0, 59, 95
2, 816000, Note_on_c, 0, 64, 95
2, 816480, Note_off_c, 0, 64, 95
2, 816480, Note_on_c, 0, 63, 70
2, 816960, Note_off_c, 0, 63, 70
2, 816960, Note_on_c, 0, 59, 95
2, 817440, Note_off_c, 0, 59, 95
2, 817440, Note_on_c, 0, 59, 95
2, 818880, Note_off_c, 0, 59, 95
2, 818880, Note_on_c, 0, 66, 95
2, 819360, Note_off_c, 0, 66, 95
2, 819360, Note_on_c, 0, 59, 95
2, 819840, Note_off_c, 0, 59, 95
2, 819840, Note_on_c, 0, 64, 95
2, 820320, Note_off_c, 0, 64, 95
2, 820320, Note_on_c, 0, 63, 70
2, 820800, Note_off_c, 0, 63, 70
2, 820800, Note_on_c, 0, 59, 95
2, 821280, Note_off_c, 0, 59, 95
2, 821280, Note_on_c, 0, 59, 95
2, 821760, Note_off_c, 0, 59, 95
2, 821760, Note_on_c, 0, 59, 95
2, 822720, Note_off_c, 0, 59, 95
2, 822720, Note_on_c, 0, 66, 95
2, 823200, Note_off_c, 0, 66, 95
2, 823200, Note_on_c, 0, 59, 95
2, 823680, Note_off_c, 0, 59, 95
2, 823680, Note_on_c, 0, 64, 95
2, 824160, Note_off_c, 0, 64, 95
2, 824160, Note_on_c, 0, 63, 70
2, 824640, Note_off_c, 0, 63, 70
2, 824640, Note_on_c, 0, 59, 95
2, 825120, Note_off_c, 0, 59, 95
2, 825120, Note_on_c, 0, 59, 95
2, 826560, Note_off_c, 0, 59, 95
2, 826560, Note_on_c, 0, 66, 95
2, 827040, Note_off_c, 0, 66, 95
2, 827040, Note_on_c, 0, 59, 95
2, 827520, Note_off_c, 0, 59, 95
2, 827520, Note_on_c, 0, 64, 95
2, 828000, Note_off_c, 0, 64, 95
2, 828000, Note_on_c, 0, 63, 70
2, 828480, Note_off_c, 0, 63, 70
2, 828480, Note_on_c, 0, 59, 95
2, 828960, Note_off_c, 0, 59, 95
2, 828960, Note_on_c, 0, 59, 95
2, 829440, Note_off_c, 0, 59, 95
2, 829440, Note_on_c, 0, 59, 95
2, 830400, Note_off_c, 0, 59, 95
2, 830400, Note_on_c, 0, 66, 95
2, 830880, Note_off_c, 0, 66, 95
2, 830880, Note_on_c, 0, 59, 95
2, 831360, Note_off_c, 0, 59, 95
2, 831360, Note_on_c, 0, 64, 95
2, 831840, Note_off_c, 0, 64, 95
2, 831840, Note_on_c, 0, 63, 70
2, 832320, Note_off_c, 0, 63, 70
2, 832320, Note_on_c, 0, 59, 95
2, 832800, Note_off_c, 0, 59, 95
2, 832800, Note_on_c, 0, 59, 95
2, 834240, Note_off_c, 0, 59, 95
2, 834240, Note_on_c, 0, 66, 95
2, 834720, Note_off_c, 0, 66, 95
2, 834720, Note_on_c, 0, 59, 95
2, 835200, Note_off_c, 0, 59, 95
2, 835200, Note_on_c, 0, 64, 95
2, 835680, Note_off_c, 0, 64, 95
2, 835680, Note_on_c, 0, 63, 70
2, 836160, Note_off_c, 0, 63, 70
2, 836160, Note_on_c, 0, 59, 95
2, 836640, Note_off_c, 0, 59, 95
2, 836640, Note_on_c, 0, 59, 95
2, 837120, Note_off_c, 0, 59, 95
2, 837120, Note_on_c, 0, 59, 95
2, 838080, Note_off_c, 0, 59, 95
2, 838080, Note_on_c, 0, 66, 95
2, 838560, Note_off_c, 0, 66, 95
2, 838560, Note_on_c, 0, 59, 95
2, 839040, Note_off_c, 0, 59, 95
2, 839040, Note_on_c, 0, 64, 95
2, 839520, Note_off_c, 0, 64, 95
2, 839520, Note_on_c, 0, 63, 70
2, 840000, Note_off_c, 0, 63, 70
2, 840000, Note_on_c, 0, 59, 95
2, 840480, Note_off_c, 0, 59, 95
2, 840480, Note_on_c, 0, 59, 95
2, 841920, Note_off_c, 0, 59, 95
2, 841920, Note_on_c, 0, 66, 95
2, 842400, Note_off_c, 0, 66, 95
2, 842400, Note_on_c, 0, 59, 95
2, 842880, Note_off_c, 0, 59, 95
2, 842880, Note_on_c, 0, 64, 95
2, 843360, Note_off_c, 0, 64, 95
2, 843360, Note_on_c, 0, 63, 70
2, 843840, Note_off_c, 0, 63, 70
2, 843840, Note_on_c, 0, 59, 95
2, 844320, Note_off_c, 0, 59, 95
2, 844320, Note_on_c, 0, 59, 95
2, 845280, Note_off_c, 0, 59, 95
2, 845280, Note_on_c, 0, 59, 95
2, 845760, Note_off_c, 0, 59, 95
2, 845760, Note_on_c, 0, 66, 95
2, 846240, Note_off_c, 0, 66, 95
2, 846240, Note_on_c, 0, 59, 95
2, 846720, Note_off_c, 0, 59, 95
2, 846720, Note_on_c, 0, 64, 95
2, 847200, Note_off_c, 0, 64, 95
2, 847200, Note_on_c, 0, 63, 70
2, 847680, Note_off_c, 0, 63, 70
2, 847680, Note_on_c, 0, 59, 95
2, 848160, Note_off_c, 0, 59, 95
2, 848160, Note_on_c, 0, 59, 95
2, 849120, Note_off_c, 0, 59, 95
2, 849120, Note_on_c, 0, 59, 95
2, 849600, Note_off_c, 0, 59, 95
2, 849600, Note_on_c, 0, 66, 95
2, 850080, Note_off_c, 0, 66, 95
2, 850080, Note_on_c, 0, 59, 95
2, 850560, Note_off_c, 0, 59, 95
2, 850560, Note_on_c, 0, 64, 95
2, 851040, Note_off_c, 0, 64, 95
2, 851040, Note_on_c, 0, 63, 70
2, 851520, Note_off_c, 0, 63, 70
2, 851520, Note_on_c, 0, 59, 95
2, 852000, Note_off_c, 0, 59, 95
2, 852000, Note_on_c, 0, 59, 95
2, 852960, Note_off_c, 0, 59, 95
2, 852960, Note_on_c, 0, 59, 95
2, 853440, Note_off_c, 0, 59, 95
2, 853440, Note_on_c, 0, 66, 95
2, 853920, Note_off_c, 0, 66, 95
2, 853920, Note_on_c, 0, 59, 95
2, 854400, Note_off_c, 0, 59, 95
2, 854400, Note_on_c, 0, 64, 95
2, 854880, Note_off_c, 0, 64, 95
2, 854880, Note_on_c, 0, 63, 70
2, 855360, Note_off_c, 0, 63, 70
2, 855360, Note_on_c, 0, 59, 95
2, 855840, Note_off_c, 0, 59, 95
2, 855840, Note_on_c, 0, 59, 95
2, 856800, Note_off_c, 0, 59, 95
2, 856800, Note_on_c, 0, 59, 95
2, 857280, Note_off_c, 0, 59, 95
2, 857280, Note_on_c, 0, 66, 95
2, 857760, Note_off_c, 0, 66, 95
2, 857760, Note_on_c, 0, 59, 95
2, 858240, Note_off_c, 0, 59, 95
2, 858240, Note_on_c, 0, 64, 95
2, 858720, Note_off_c, 0, 64, 95
2, 858720, Note_on_c, 0, 63, 70
2, 859200, Note_off_c, 0, 63, 70
2, 859200, Note_on_c, 0, 59, 95
2, 859680, Note_off_c, 0, 59, 95
2, 859680, Note_on_c, 0, 59, 95
2, 860640, Note_off_c, 0, 59, 95
2, 860640, Note_on_c, 0, 59, 95
2, 861120, Note_off_c, 0, 59, 95
2, 861120, Note_on_c, 0, 66, 95
2, 861600, Note_off_c, 0, 66, 95
2, 861600, Note_on_c, 0, 59, 95
2, 862080, Note_off_c, 0, 59, 95
2, 862080, Note_on_c, 0, 64, 95
2, 862560, Note_off_c, 0, 64, 95
2, 862560, Note_on_c, 0, 63, 70
2, 863040, Note_off_c, 0, 63, 70
2, 863040, Note_on_c, 0, 59, 95
2, 863520, Note_off_c, 0, 59, 95
2, 863520, Note_on_c, 0, 59, 95
2, 864480, Note_off_c, 0, 59, 95
2, 864480, Note_on_c, 0, 59, 95
2, 864960, Note_off_c, 0, 59, 95
2, 864960, Note_on_c, 0, 66, 95
2, 865440, Note_off_c, 0, 66, 95
2, 865440, Note_on_c, 0, 59, 95
2, 865920, Note_off_c, 0, 59, 95
2, 865920, Note_on_c, 0, 64, 95
2, 866400, Note_off_c, 0, 64, 95
2, 866400, Note_on_c, 0, 63, 70
2, 866880, Note_off_c, 0, 63, 70
2, 866880, Note_on_c, 0, 59, 95
2, 867360, Note_off_c, 0, 59, 95
2, 867360, Note_on_c, 0, 59, 95
2, 868320, Note_off_c, 0, 59, 95
2, 868320, Note_on_c, 0, 59, 95
2, 868800, Note_off_c, 0, 59, 95
2, 868800, Note_on_c, 0, 66, 95
2, 869280, Note_off_c, 0, 66, 95
2, 869280, Note_on_c, 0, 59, 95
2, 869760, Note_off_c, 0, 59, 95
2, 869760, Note_on_c, 0, 64, 95
2, 870240, Note_off_c, 0, 64, 95
2, 870240, Note_on_c, 0, 63, 70
2, 870720, Note_off_c, 0, 63, 70
2, 870720, Note_on_c, 0, 59, 95
2, 871200, Note_off_c, 0, 59, 95
2, 871200, Note_on_c, 0, 59, 95
2, 872160, Note_off_c, 0, 59, 95
2, 872160, Note_on_c, 0, 59, 95
2, 872640, Note_off_c, 0, 59, 95
2, 872640, Note_on_c, 0, 66, 95
2, 873120, Note_off_c, 0, 66, 95
2, 873120, Note_on_c, 0, 59, 95
2, 873600, Note_off_c, 0, 59, 95
2, 873600, Note_on_c, 0, 64, 95
2, 874080, Note_off_c, 0, 64, 95
2, 874080, Note_on_c, 0, 63, 70
2, 874560, Note_off_c, 0, 63, 70
2, 874560, Note_on_c, 0, 59, 95
2, 875040, Note_off_c, 0, 59, 95
2, 875040, Note_on_c, 0, 59, 95
2, 876000, Note_off_c, 0, 59, 95
2, 876000, Note_on_c, 0, 59, 95
2, 876480, Note_off_c, 0, 59, 95
2, 876480, Note_on_c, 0, 66, 95
2, 876960, Note_off_c, 0, 66, 95
2, 876960, Note_on_c, 0, 59, 95
2, 877440, Note_off_c, 0, 59, 95
2, 877440, Note_on_c, 0, 64, 95
2, 877920, Note_off_c, 0, 64, 95
2, 877920, Note_on_c, 0, 63, 70
2, 878400, Note_off_c, 0, 63, 70
2, 878400, Note_on_c, 0, 59, 95
2, 878880, Note_off_c, 0, 59, 95
2, 878880, Note_on_c, 0, 59, 95
2, 879840, Note_off_c, 0, 59, 95
2, 879840, Note_on_c, 0, 59, 95
2, 880320, Note_off_c, 0, 59, 95
2, 880320, Note_on_c, 0, 66, 95
2, 880800, Note_off_c, 0, 66, 95
2, 880800, Note_on_c, 0, 59, 95
2, 881280, Note_off_c, 0, 59, 95
2, 881280, Note_on_c, 0, 64, 95
2, 881760, Note_off_c, 0, 64, 95
2, 881760, Note_on_c, 0, 63, 70
2, 882240, Note_off_c, 0, 63, 70
2, 882240, Note_on_c, 0, 59, 95
2, 882720, Note_off_c, 0, 59, 95
2, 882720, Note_on_c, 0, 59, 95
2, 883680, Note_off_c, 0, 59, 95
2, 883680, Note_on_c, 0, 59, 95
2, 884160, Note_off_c, 0, 59, 95
2, 884160, Note_on_c, 0, 66, 95
2, 884640, Note_off_c, 0, 66, 95
2, 884640, Note_on_c, 0, 59, 95
2, 885120, Note_off_c, 0, 59, 95
2, 885120, Note_on_c, 0, 64, 95
2, 885600, Note_off_c, 0, 64, 95
2, 885600, Note_on_c, 0, 63, 70
2, 886080, Note_off_c, 0, 63, 70
2, 886080, Note_on_c, 0, 59, 95
2, 886560, Note_off_c, 0, 59, 95
2, 886560, Note_on_c, 0, 59, 95
2, 887520, Note_off_c, 0, 59, 95
2, 887520, Note_on_c, 0, 59, 95
2, 888000, Note_off_c, 0, 59, 95
2, 888000, Note_on_c, 0, 66, 95
2, 888480, Note_off_c, 0, 66, 95
2, 888480, Note_on_c, 0, 59, 95
2, 888960, Note_off_c, 0, 59, 95
2, 888960, Note_on_c, 0, 64, 95
2, 889440, Note_off_c, 0, 64, 95
2, 889440, Note_on_c, 0, 63, 70
2, 889920, Note_off_c, 0, 63, 70
2, 889920, Note_on_c, 0, 59, 95
2, 890400, Note_off_c, 0, 59, 95
2, 890400, Note_on_c, 0, 59, 95
2, 891360, Note_off_c, 0, 59, 95
2, 891360, Note_on_c, 0, 59, 95
2, 891840, Note_off_c, 0, 59, 95
2, 891840, Note_on_c, 0, 66, 95
2, 892320, Note_off_c, 0, 66, 95
2, 892320, Note_on_c, 0, 59, 95
2, 892800, Note_off_c, 0, 59, 95
2, 892800, Note_on_c, 0, 64, 95
2, 893280, Note_off_c, 0, 64, 95
2, 893280, Note_on_c, 0, 63, 70
2, 893760, Note_off_c, 0, 63, 70
2, 893760, Note_on_c, 0, 59, 95
2, 894240, Note_off_c, 0, 59, 95
2, 894240, Note_on_c, 0, 59, 95
2, 895200, Note_off_c, 0, 59, 95
2, 895200, Note_on_c, 0, 59, 95
2, 895680, Note_off_c, 0, 59, 95
2, 895680, Note_on_c, 0, 66, 95
2, 896160, Note_off_c, 0, 66, 95
2, 896160, Note_on_c, 0, 59, 95
2, 896640, Note_off_c, 0, 59, 95
2, 896640, Note_on_c, 0, 64, 95
2, 897120, Note_off_c, 0, 64, 95
2, 897120, Note_on_c, 0, 63, 70
2, 897600, Note_off_c, 0, 63, 70
2, 897600, Note_on_c, 0, 59, 95
2, 898080, Note_off_c, 0, 59, 95
2, 898080, Note_on_c, 0, 59, 95
2, 899040, Note_off_c, 0, 59, 95
2, 899040, Note_on_c, 0, 59, 95
2, 899520, Note_off_c, 0, 59, 95
2, 899520, Note_on_c, 0, 66, 95
2, 900000, Note_off_c, 0, 66, 95
2, 900000, Note_on_c, 0, 59, 95
2, 900480, Note_off_c, 0, 59, 95
2, 900480, Note_on_c, 0, 64, 95
2, 900960, Note_off_c, 0, 64, 95
2, 900960, Note_on_c, 0, 63, 70
2, 901440, Note_off_c, 0, 63, 70
2, 901440, Note_on_c, 0, 59, 95
2, 901920, Note_off_c, 0, 59, 95
2, 901920, Note_on_c, 0, 59, 95
2, 902880, Note_off_c, 0, 59, 95
2, 902880, Note_on_c, 0, 59, 95
2, 903360, Note_off_c, 0, 59, 95
2, 903360, Note_on_c, 0, 66, 95
2, 903840, Note_off_c, 0, 66, 95
2, 903840, Note_on_c, 0, 59, 95
2, 904320, Note_off_c, 0, 59, 95
2, 904320, Note_on_c, 0, 64, 95
2, 904800, Note_off_c, 0, 64, 95
2, 904800, Note_on_c, 0, 63, 70
2, 905280, Note_off_c, 0, 63, 70
2, 905280, Note_on_c, 0, 59, 95
2, 905760, Note_off_c, 0, 59, 95
2, 905760, Note_on_c, 0, 59, 95
2, 906720, Note_off_c, 0, 59, 95
2, 906720, Note_on_c, 0, 59, 95
2, 907200, Note_off_c, 0, 59, 95
2, 907200, Note_on_c, 0, 66, 95
2, 907680, Note_off_c, 0, 66, 95
2, 907680, Note_on_c, 0, 59, 95
2, 908160, Note_off_c, 0, 59, 95
2, 908160, Note_on_c, 0, 64, 95
2, 908640, Note_off_c, 0, 64, 95
2, 908640, Note_on_c, 0, 63, 70
2, 909120, Note_off_c, 0, 63, 70
2, 909120, Note_on_c, 0, 59, 95
2, 909600, Note_off_c, 0, 59, 95
2, 909600, Note_on_c, 0, 59, 95
2, 910560, Note_off_c, 0, 59, 95
2, 910560, Note_on_c, 0, 59, 95
2, 911040, Note_off_c, 0, 59, 95
2, 911040, Note_on_c, 0, 66, 95
2, 911520, Note_off_c, 0, 66, 95
2, 911520, Note_on_c, 0, 59, 95
2, 912000, Note_off_c, 0, 59, 95
2, 912000, Note_on_c, 0, 64, 95
2, 912480, Note_off_c, 0, 64, 95
2, 912480, Note_on_c, 0, 63, 70
2, 912960, Note_off_c, 0, 63, 70
2, 912960, Note_on_c, 0, 59, 95
2, 913440, Note_off_c, 0, 59, 95
2, 913440, Note_on_c, 0, 59, 95
2, 914400, Note_off_c, 0, 59, 95
2, 914400, Note_on_c, 0, 59, 95
2, 914880, Note_off_c, 0, 59, 95
2, 914880, Note_on_c, 0, 66, 95
2, 915360, Note_off_c, 0, 66, 95
2, 915360, Note_on_c, 0, 59, 95
2, 915840, Note_off_c, 0, 59, 95
2, 915840, Note_on_c, 0, 64, 95
2, 916320, Note_off_c, 0, 64, 95
2, 916320, Note_on_c, 0, 63, 70
2, 916800, Note_off_c, 0, 63, 70
2, 916800, Note_on_c, 0, 59, 95
2, 917280, Note_off_c, 0, 59, 95
2, 917280, Note_on_c, 0, 59, 95
2, 918240, Note_off_c, 0, 59, 95
2, 918240, Note_on_c, 0, 59, 95
2, 918720, Note_off_c, 0, 59, 95
2, 918720, Note_on_c, 0, 66, 95
2, 919200, Note_off_c, 0, 66, 95
2, 919200, Note_on_c, 0, 59, 95
2, 919680, Note_off_c, 0, 59, 95
2, 919680, Note_on_c, 0, 64, 95
2, 920160, Note_off_c, 0, 64, 95
2, 920160, Note_on_c, 0, 63, 70
2, 920640, Note_off_c, 0, 63, 70
2, 920640, Note_on_c, 0, 59, 95
2, 921120, Note_off_c, 0, 59, 95
2, 921120, Note_on_c, 0, 59, 95
2, 922080, Note_off_c, 0, 59, 95
2, 922080, Note_on_c, 0, 59, 95
2, 922560, Note_off_c, 0, 59, 95
2, 922560, Note_on_c, 0, 66, 95
2, 923040, Note_off_c, 0, 66, 95
2, 923040, Note_on_c, 0, 59, 95
2, 923520, Note_off_c, 0, 59, 95
2, 923520, Note_on_c, 0, 64, 95
2, 924000, Note_off_c, 0, 64, 95
2, 924000, Note_on_c, 0, 63, 70
2, 924480, Note_off_c, 0, 63, 70
2, 924480, Note_on_c, 0, 59, 95
2, 924960, Note_off_c, 0, 59, 95
2, 924960, Note_on_c, 0, 59, 95
2, 925920, Note_off_c, 0, 59, 95
2, 925920, Note_on_c, 0, 59, 95
2, 926400, Note_off_c, 0, 59, 95
2, 926400, Note_on_c, 0, 66, 95
2, 926880, Note_off_c, 0, 66, 95
2, 926880, Note_on_c, 0, 59, 95
2, 927360, Note_off_c, 0, 59, 95
2, 927360, Note_on_c, 0, 64, 95
2, 927840, Note_off_c, 0, 64, 95
2, 927840, Note_on_c, 0, 63, 70
2, 928320, Note_off_c, 0, 63, 70
2, 928320, Note_on_c, 0, 59, 95
2, 928800, Note_off_c, 0, 59, 95
2, 928800, Note_on_c, 0, 59, 95
2, 929760, Note_off_c, 0, 59, 95
2, 929760, Note_on_c, 0, 59, 95
2, 930240, Note_off_c, 0, 59, 95
2, 930240, Note_on_c, 0, 66, 95
2, 930720, Note_off_c, 0, 66, 95
2, 930720, Note_on_c, 0, 59, 95
2, 931200, Note_off_c, 0, 59, 95
2, 931200, Note_on_c, 0, 64, 95
2, 931680, Note_off_c, 0, 64, 95
2, 931680, Note_on_c, 0, 63, 70
2, 932160, Note_off_c, 0, 63, 70
2, 932160, Note_on_c, 0, 59, 95
2, 932640, Note_off_c, 0, 59, 95
2, 932640, Note_on_c, 0, 59, 95
2, 933600, Note_off_c, 0, 59, 95
2, 933600, Note_on_c, 0, 59, 95
2, 934080, Note_off_c, 0, 59, 95
2, 934080, Note_on_c, 0, 66, 95
2, 934560, Note_off_c, 0, 66, 95
2, 934560, Note_on_c, 0, 59, 95
2, 935040, Note_off_c, 0, 59, 95
2, 935040, Note_on_c, 0, 64, 95
2, 935520, Note_off_c, 0, 64, 95
2, 935520, Note_on_c, 0, 63, 70
2, 936000, Note_off_c, 0, 63, 70
2, 936000, Note_on_c, 0, 59, 95
2, 936480, Note_off_c, 0, 59, 95
2, 936480, Note_on_c, 0, 59, 95
2, 937440, Note_off_c, 0, 59, 95
2, 937440, Note_on_c, 0, 59, 95
2, 937920, Note_off_c, 0, 59, 95
2, 937920, Note_on_c, 0, 66, 95
2, 938400, Note_off_c, 0, 66, 95
2, 938400, Note_on_c, 0, 59, 95
2, 938880, Note_off_c, 0, 59, 95
2, 938880, Note_on_c, 0, 64, 95
2, 939360, Note_off_c, 0, 64, 95
2, 939360, Note_on_c, 0, 63, 70
2, 939840, Note_off_c, 0, 63, 70
2, 939840, Note_on_c, 0, 59, 95
2, 940320, Note_off_c, 0, 59, 95
2, 940320, Note_on_c, 0, 59, 95
2, 941280, Note_off_c, 0, 59, 95
2, 941280, Note_on_c, 0, 59, 95
2, 941760, Note_off_c, 0, 59, 95
2, 941760, Note_on_c, 0, 66, 95
2, 942240, Note_off_c, 0, 66, 95
2, 942240, Note_on_c, 0, 59, 95
2, 942720, Note_off_c, 0, 59, 95
2, 942720, Note_on_c, 0, 64, 95
2, 943200, Note_off_c, 0, 64, 95
2, 943200, Note_on_c, 0, 63, 70
2, 943680, Note_off_c, 0, 63, 70
2, 943680, Note_on_c, 0, 59, 95
2, 944160, Note_off_c, 0, 59, 95
2, 944160, Note_on_c, 0, 59, 95
2, 945120, Note_off_c, 0, 59, 95
2, 945120, Note_on_c, 0, 59, 95
2, 945600, Note_off_c, 0, 59, 95
2, 945600, Note_on_c, 0, 66, 95
2, 946080, Note_off_c, 0, 66, 95
2, 946080, Note_on_c, 0, 59, 95
2, 946560, Note_off_c, 0, 59, 95
2, 946560, Note_on_c, 0, 64, 95
2, 947040, Note_off_c, 0, 64, 95
2, 947040, Note_on_c, 0, 63, 70
2, 947520, Note_off_c, 0, 63, 70
2, 947520, Note_on_c, 0, 59, 95
2, 948000, Note_off_c, 0, 59, 95
2, 948000, Note_on_c, 0, 59, 95
2, 948960, Note_off_c, 0, 59, 95
2, 948960, Note_on_c, 0, 59, 95
2, 949440, Note_off_c, 0, 59, 95
2, 949440, Note_on_c, 0, 66, 95
2, 949920, Note_off_c, 0, 66, 95
2, 949920, Note_on_c, 0, 59, 95
2, 950400, Note_off_c, 0, 59, 95
2, 950400, Note_on_c, 0, 64, 95
2, 950880, Note_off_c, 0, 64, 95
2, 950880, Note_on_c, 0, 63, 70
2, 951360, Note_off_c, 0, 63, 70
2, 951360, Note_on_c, 0, 59, 95
2, 951840, Note_off_c, 0, 59, 95
2, 952800, Note_on_c, 0, 66, 95
2, 952800, Note_on_c, 0, 63, 95
2, 952800, Note_on_c, 0, 59, 95
2, 952800, Note_on_c, 0, 54, 95
2, 952800, Note_on_c, 0, 47, 95
2, 953760, Note_off_c, 0, 66, 95
2, 953760, Note_off_c, 0, 63, 95
2, 953760, Note_off_c, 0, 59, 95
2, 953760, Note_off_c, 0, 54, 95
2, 953760, Note_off_c, 0, 47, 95
2, 953760, Note_on_c, 0, 68, 95
2, 953760, Note_on_c, 0, 64, 95
2, 953760, Note_on_c, 0, 59, 95
2, 953760, Note_on_c, 0, 52, 95
2, 954240, Note_off_c, 0, 68, 95
2, 954240, Note_off_c, 0, 64, 95
2, 954240, Note_off_c, 0, 59, 95
2, 954240, Note_off_c, 0, 52, 95
2, 954240, Note_on_c, 0, 66, 95
2, 954240, Note_on_c, 0, 63, 95
2, 954240, Note_on_c, 0, 59, 95
2, 954240, Note_on_c, 0, 54, 95
2, 954240, Note_on_c, 0, 47, 95
2, 954720, Note_off_c, 0, 66, 95
2, 954720, Note_off_c, 0, 63, 95
2, 954720, Note_off_c, 0, 59, 95
2, 954720, Note_off_c, 0, 54, 95
2, 954720, Note_off_c, 0, 47, 95
2, 954720, Note_on_c, 0, 68, 70
2, 954720, Note_on_c, 0, 64, 70
2, 955200, Note_off_c, 0, 68, 70
2, 955200, Note_off_c, 0, 64, 70
2, 955200, Note_on_c, 0, 66, 95
2, 955200, Note_on_c, 0, 63, 95
2, 955200, Note_on_c, 0, 59, 95
2, 955200, Note_on_c, 0, 54, 95
2, 955200, Note_on_c, 0, 47, 95
2, 955680, Note_off_c, 0, 66, 95
2, 955680, Note_off_c, 0, 63, 95
2, 955680, Note_off_c, 0, 59, 95
2, 955680, Note_off_c, 0, 54, 95
2, 955680, Note_off_c, 0, 47, 95
2, 956160, Note_on_c, 0, 68, 95
2, 956160, Note_on_c, 0, 64, 95
2, 956160, Note_on_c, 0, 59, 95
2, 956160, Note_on_c, 0, 52, 95
2, 956640, Note_off_c, 0, 68, 95
2, 956640, Note_off_c, 0, 64, 95
2, 956640, Note_off_c, 0, 59, 95
2, 956640, Note_off_c, 0, 52, 95
2, 956640, Note_on_c, 0, 68, 95
2, 956640, Note_on_c, 0, 64, 95
2, 956640, Note_on_c, 0, 59, 95
2, 956640, Note_on_c, 0, 52, 95
2, 957120, Note_off_c, 0, 68, 95
2, 957120, Note_off_c, 0, 64, 95
2, 957120, Note_off_c, 0, 59, 95
2, 957120, Note_off_c, 0, 52, 95
2, 957120, Note_on_c, 0, 66, 95
2, 957120, Note_on_c, 0, 63, 95
2, 957120, Note_on_c, 0, 59, 95
2, 957120, Note_on_c, 0, 54, 95
2, 957120, Note_on_c, 0, 47, 95
2, 957600, Note_off_c, 0, 66, 95
2, 957600, Note_off_c, 0, 63, 95
2, 957600, Note_off_c, 0, 59, 95
2, 957600, Note_off_c, 0, 54, 95
2, 957600, Note_off_c, 0, 47, 95
2, 957600, Note_on_c, 0, 68, 95
2, 957600, Note_on_c, 0, 64, 95
2, 957600, Note_on_c, 0, 59, 95
2, 957600, Note_on_c, 0, 52, 95
2, 958080, Note_off_c, 0, 68, 95
2, 958080, Note_off_c, 0, 64, 95
2, 958080, Note_off_c, 0, 59, 95
2, 958080, Note_off_c, 0, 52, 95
2, 958080, Note_on_c, 0, 68, 95
2, 958080, Note_on_c, 0, 64, 95
2, 958080, Note_on_c, 0, 59, 95
2, 958080, Note_on_c, 0, 52, 95
2, 958560, Note_off_c, 0, 68, 95
2, 958560, Note_off_c, 0, 64, 95
2, 958560, Note_off_c, 0, 59, 95
2, 958560, Note_off_c, 0, 52, 95
2, 958560, Note_on_c, 0, 66, 95
2, 958560, Note_on_c, 0, 63, 95
2, 958560, Note_on_c, 0, 59, 95
2, 958560, Note_on_c, 0, 54, 95
2, 958560, Note_on_c, 0, 47, 95
2, 959040, Note_off_c, 0, 66, 95
2, 959040, Note_off_c, 0, 63, 95
2, 959040, Note_off_c, 0, 59, 95
2, 959040, Note_off_c, 0, 54, 95
2, 959040, Note_off_c, 0, 47, 95
2, 959040, Note_on_c, 0, 68, 95
2, 959040, Note_on_c, 0, 64, 95
2, 959040, Note_on_c, 0, 59, 95
2, 959040, Note_on_c, 0, 52, 95
2, 959520, Note_off_c, 0, 68, 95
2, 959520, Note_off_c, 0, 64, 95
2, 959520, Note_off_c, 0, 59, 95
2, 959520, Note_off_c, 0, 52, 95
2, 959520, Note_on_c, 0, 66, 95
2, 959520, Note_on_c, 0, 63, 95
2, 959520, Note_on_c, 0, 59, 95
2, 959520, Note_on_c, 0, 54, 95
2, 959520, Note_on_c, 0, 47, 95
2, 960480, Note_off_c, 0, 66, 95
2, 960480, Note_off_c, 0, 63, 95
2, 960480, Note_off_c, 0, 59, 95
2, 960480, Note_off_c, 0, 54, 95
2, 960480, Note_off_c, 0, 47, 95
2, 960480, Note_on_c, 0, 66, 95
2, 960480, Note_on_c, 0, 63, 95
2, 960480, Note_on_c, 0, 59, 95
2, 960480, Note_on_c, 0, 54, 95
2, 960480, Note_on_c, 0, 47, 95
2, 960960, Note_off_c, 0, 66, 95
2, 960960, Note_off_c, 0, 63, 95
2, 960960, Note_off_c, 0, 59, 95
2, 960960, Note_off_c, 0, 54, 95
2, 960960, Note_off_c, 0, 47, 95
2, 960960, Note_on_c, 0, 49, 95
2, 960960, Note_on_c, 0, 44, 95
2, 960960, Note_on_c, 0, 39, 95
2, 961026, Note_off_c, 0, 49, 95
2, 961026, Note_off_c, 0, 44, 95
2, 961026, Note_off_c, 0, 39, 95
2, 961440, Note_on_c, 0, 49, 95
2, 961440, Note_on_c, 0, 44, 95
2, 961440, Note_on_c, 0, 39, 95
2, 961506, Note_off_c, 0, 49, 95
2, 961506, Note_off_c, 0, 44, 95
2, 961506, Note_off_c, 0, 39, 95
2, 961920, Note_on_c, 0, 69, 95
2, 961920, Note_on_c, 0, 63, 95
2, 961920, Note_on_c, 0, 59, 95
2, 961920, Note_on_c, 0, 54, 95
2, 962400, Note_off_c, 0, 69, 95
2, 962400, Note_off_c, 0, 63, 95
2, 962400, Note_off_c, 0, 59, 95
2, 962400, Note_off_c, 0, 54, 95
2, 962880, Note_on_c, 0, 69, 95
2, 962880, Note_on_c, 0, 63, 95
2, 962880, Note_on_c, 0, 59, 95
2, 962880, Note_on_c, 0, 54, 95
2, 963360, Note_off_c, 0, 69, 95
2, 963360, Note_off_c, 0, 63, 95
2, 963360, Note_off_c, 0, 59, 95
2, 963360, Note_off_c, 0, 54, 95
2, 963840, Note_on_c, 0, 68, 95
2, 963840, Note_on_c, 0, 64, 95
2, 963840, Note_on_c, 0, 59, 95
2, 963840, Note_on_c, 0, 52, 95
2, 964320, Note_off_c, 0, 68, 95
2, 964320, Note_off_c, 0, 64, 95
2, 964320, Note_off_c, 0, 59, 95
2, 964320, Note_off_c, 0, 52, 95
2, 964320, Note_on_c, 0, 68, 95
2, 964320, Note_on_c, 0, 64, 95
2, 964320, Note_on_c, 0, 59, 95
2, 964320, Note_on_c, 0, 52, 95
2, 964800, Note_off_c, 0, 68, 95
2, 964800, Note_off_c, 0, 64, 95
2, 964800, Note_off_c, 0, 59, 95
2, 964800, Note_off_c, 0, 52, 95
2, 964800, Note_on_c, 0, 66, 95
2, 964800, Note_on_c, 0, 63, 95
2, 964800, Note_on_c, 0, 59, 95
2, 964800, Note_on_c, 0, 54, 95
2, 964800, Note_on_c, 0, 47, 95
2, 965280, Note_off_c, 0, 66, 95
2, 965280, Note_off_c, 0, 63, 95
2, 965280, Note_off_c, 0, 59, 95
2, 965280, Note_off_c, 0, 54, 95
2, 965280, Note_off_c, 0, 47, 95
2, 965280, Note_on_c, 0, 68, 95
2, 965280, Note_on_c, 0, 64, 95
2, 965280, Note_on_c, 0, 59, 95
2, 965280, Note_on_c, 0, 52, 95
2, 965760, Note_off_c, 0, 68, 95
2, 965760, Note_off_c, 0, 64, 95
2, 965760, Note_off_c, 0, 59, 95
2, 965760, Note_off_c, 0, 52, 95
2, 965760, Note_on_c, 0, 68, 95
2, 965760, Note_on_c, 0, 64, 95
2, 965760, Note_on_c, 0, 59, 95
2, 965760, Note_on_c, 0, 52, 95
2, 966240, Note_off_c, 0, 68, 95
2, 966240, Note_off_c, 0, 64, 95
2, 966240, Note_off_c, 0, 59, 95
2, 966240, Note_off_c, 0, 52, 95
2, 966240, Note_on_c, 0, 66, 95
2, 966240, Note_on_c, 0, 63, 95
2, 966240, Note_on_c, 0, 59, 95
2, 966240, Note_on_c, 0, 54, 95
2, 966240, Note_on_c, 0, 47, 95
2, 966720, Note_off_c, 0, 66, 95
2, 966720, Note_off_c, 0, 63, 95
2, 966720, Note_off_c, 0, 59, 95
2, 966720, Note_off_c, 0, 54, 95
2, 966720, Note_off_c, 0, 47, 95
2, 966720, Note_on_c, 0, 68, 95
2, 966720, Note_on_c, 0, 64, 95
2, 966720, Note_on_c, 0, 59, 95
2, 966720, Note_on_c, 0, 52, 95
2, 967200, Note_off_c, 0, 68, 95
2, 967200, Note_off_c, 0, 64, 95
2, 967200, Note_off_c, 0, 59, 95
2, 967200, Note_off_c, 0, 52, 95
2, 967200, Note_on_c, 0, 66, 95
2, 967200, Note_on_c, 0, 63, 95
2, 967200, Note_on_c, 0, 59, 95
2, 967200, Note_on_c, 0, 54, 95
2, 967200, Note_on_c, 0, 47, 95
2, 968160, Note_off_c, 0, 66, 95
2, 968160, Note_off_c, 0, 63, 95
2, 968160, Note_off_c, 0, 59, 95
2, 968160, Note_off_c, 0, 54, 95
2, 968160, Note_off_c, 0, 47, 95
2, 968160, Note_on_c, 0, 66, 95
2, 968160, Note_on_c, 0, 63, 95
2, 968160, Note_on_c, 0, 59, 95
2, 968160, Note_on_c, 0, 54, 95
2, 968160, Note_on_c, 0, 47, 95
2, 968640, Note_off_c, 0, 66, 95
2, 968640, Note_off_c, 0, 63, 95
2, 968640, Note_off_c, 0, 59, 95
2, 968640, Note_off_c, 0, 54, 95
2, 968640, Note_off_c, 0, 47, 95
2, 968640, Note_on_c, 0, 49, 95
2, 968640, Note_on_c, 0, 44, 95
2, 968640, Note_on_c, 0, 39, 95
2, 968706, Note_off_c, 0, 49, 95
2, 968706, Note_off_c, 0, 44, 95
2, 968706, Note_off_c, 0, 39, 95
2, 969120, Note_on_c, 0, 49, 95
2, 969120, Note_on_c, 0, 44, 95
2, 969120, Note_on_c, 0, 39, 95
2, 969186, Note_off_c, 0, 49, 95
2, 969186, Note_off_c, 0, 44, 95
2, 969186, Note_off_c, 0, 39, 95
2, 969600, Note_on_c, 0, 66, 95
2, 969600, Note_on_c, 0, 63, 95
2, 969600, Note_on_c, 0, 59, 95
2, 969600, Note_on_c, 0, 54, 95
2, 969600, Note_on_c, 0, 47, 95
2, 970080, Note_off_c, 0, 66, 95
2, 970080, Note_off_c, 0, 63, 95
2, 970080, Note_off_c, 0, 59, 95
2, 970080, Note_off_c, 0, 54, 95
2, 970080, Note_off_c, 0, 47, 95
2, 970560, Note_on_c, 0, 66, 95
2, 970560, Note_on_c, 0, 63, 95
2, 970560, Note_on_c, 0, 59, 95
2, 970560, Note_on_c, 0, 54, 95
2, 970560, Note_on_c, 0, 47, 95
2, 971040, Note_off_c, 0, 66, 95
2, 971040, Note_off_c, 0, 63, 95
2, 971040, Note_off_c, 0, 59, 95
2, 971040, Note_off_c, 0, 54, 95
2, 971040, Note_off_c, 0, 47, 95
2, 971520, Note_on_c, 0, 68, 95
2, 971520, Note_on_c, 0, 64, 95
2, 971520, Note_on_c, 0, 59, 95
2, 971520, Note_on_c, 0, 52, 95
2, 972000, Note_off_c, 0, 68, 95
2, 972000, Note_off_c, 0, 64, 95
2, 972000, Note_off_c, 0, 59, 95
2, 972000, Note_off_c, 0, 52, 95
2, 972000, Note_on_c, 0, 68, 95
2, 972000, Note_on_c, 0, 64, 95
2, 972000, Note_on_c, 0, 59, 95
2, 972000, Note_on_c, 0, 52, 95
2, 972480, Note_off_c, 0, 68, 95
2, 972480, Note_off_c, 0, 64, 95
2, 972480, Note_off_c, 0, 59, 95
2, 972480, Note_off_c, 0, 52, 95
2, 972480, Note_on_c, 0, 66, 95
2, 972480, Note_on_c, 0, 63, 95
2, 972480, Note_on_c, 0, 59, 95
2, 972480, Note_on_c, 0, 54, 95
2, 972480, Note_on_c, 0, 47, 95
2, 972960, Note_off_c, 0, 66, 95
2, 972960, Note_off_c, 0, 63, 95
2, 972960, Note_off_c, 0, 59, 95
2, 972960, Note_off_c, 0, 54, 95
2, 972960, Note_off_c, 0, 47, 95
2, 972960, Note_on_c, 0, 68, 95
2, 972960, Note_on_c, 0, 64, 95
2, 972960, Note_on_c, 0, 59, 95
2, 972960, Note_on_c, 0, 52, 95
2, 973440, Note_off_c, 0, 68, 95
2, 973440, Note_off_c, 0, 64, 95
2, 973440, Note_off_c, 0, 59, 95
2, 973440, Note_off_c, 0, 52, 95
2, 973440, Note_on_c, 0, 68, 95
2, 973440, Note_on_c, 0, 64, 95
2, 973440, Note_on_c, 0, 59, 95
2, 973440, Note_on_c, 0, 52, 95
2, 973920, Note_off_c, 0, 68, 95
2, 973920, Note_off_c, 0, 64, 95
2, 973920, Note_off_c, 0, 59, 95
2, 973920, Note_off_c, 0, 52, 95
2, 973920, Note_on_c, 0, 66, 95
2, 973920, Note_on_c, 0, 63, 95
2, 973920, Note_on_c, 0, 59, 95
2, 973920, Note_on_c, 0, 54, 95
2, 973920, Note_on_c, 0, 47, 95
2, 974400, Note_off_c, 0, 66, 95
2, 974400, Note_off_c, 0, 63, 95
2, 974400, Note_off_c, 0, 59, 95
2, 974400, Note_off_c, 0, 54, 95
2, 974400, Note_off_c, 0, 47, 95
2, 974400, Note_on_c, 0, 68, 95
2, 974400, Note_on_c, 0, 64, 95
2, 974400, Note_on_c, 0, 59, 95
2, 974400, Note_on_c, 0, 52, 95
2, 974880, Note_off_c, 0, 68, 95
2, 974880, Note_off_c, 0, 64, 95
2, 974880, Note_off_c, 0, 59, 95
2, 974880, Note_off_c, 0, 52, 95
2, 974880, Note_on_c, 0, 66, 95
2, 974880, Note_on_c, 0, 63, 95
2, 974880, Note_on_c, 0, 59, 95
2, 974880, Note_on_c, 0, 54, 95
2, 974880, Note_on_c, 0, 47, 95
2, 975840, Note_off_c, 0, 66, 95
2, 975840, Note_off_c, 0, 63, 95
2, 975840, Note_off_c, 0, 59, 95
2, 975840, Note_off_c, 0, 54, 95
2, 975840, Note_off_c, 0, 47, 95
2, 975840, Note_on_c, 0, 66, 95
2, 975840, Note_on_c, 0, 63, 95
2, 975840, Note_on_c, 0, 59, 95
2, 975840, Note_on_c, 0, 54, 95
2, 975840, Note_on_c, 0, 47, 95
2, 976320, Note_off_c, 0, 66, 95
2, 976320, Note_off_c, 0, 63, 95
2, 976320, Note_off_c, 0, 59, 95
2, 976320, Note_off_c, 0, 54, 95
2, 976320, Note_off_c, 0, 47, 95
2, 976320, Note_on_c, 0, 49, 95
2, 976320, Note_on_c, 0, 44, 95
2, 976320, Note_on_c, 0, 39, 95
2, 976386, Note_off_c, 0, 49, 95
2, 976386, Note_off_c, 0, 44, 95
2, 976386, Note_off_c, 0, 39, 95
2, 976800, Note_on_c, 0, 49, 95
2, 976800, Note_on_c, 0, 44, 95
2, 976800, Note_on_c, 0, 39, 95
2, 976866, Note_off_c, 0, 49, 95
2, 976866, Note_off_c, 0, 44, 95
2, 976866, Note_off_c, 0, 39, 95
2, 977280, Note_on_c, 0, 69, 95
2, 977280, Note_on_c, 0, 63, 95
2, 977280, Note_on_c, 0, 59, 95
2, 977280, Note_on_c, 0, 54, 95
2, 977760, Note_off_c, 0, 69, 95
2, 977760, Note_off_c, 0, 63, 95
2, 977760, Note_off_c, 0, 59, 95
2, 977760, Note_off_c, 0, 54, 95
2, 978240, Note_on_c, 0, 69, 95
2, 978240, Note_on_c, 0, 63, 95
2, 978240, Note_on_c, 0, 59, 95
2, 978240, Note_on_c, 0, 54, 95
2, 978720, Note_off_c, 0, 69, 95
2, 978720, Note_off_c, 0, 63, 95
2, 978720, Note_off_c, 0, 59, 95
2, 978720, Note_off_c, 0, 54, 95
2, 979200, Note_on_c, 0, 68, 95
2, 979200, Note_on_c, 0, 64, 95
2, 979200, Note_on_c, 0, 59, 95
2, 979200, Note_on_c, 0, 52, 95
2, 979680, Note_off_c, 0, 68, 95
2, 979680, Note_off_c, 0, 64, 95
2, 979680, Note_off_c, 0, 59, 95
2, 979680, Note_off_c, 0, 52, 95
2, 979680, Note_on_c, 0, 68, 95
2, 979680, Note_on_c, 0, 64, 95
2, 979680, Note_on_c, 0, 59, 95
2, 979680, Note_on_c, 0, 52, 95
2, 980160, Note_off_c, 0, 68, 95
2, 980160, Note_off_c, 0, 64, 95
2, 980160, Note_off_c, 0, 59, 95
2, 980160, Note_off_c, 0, 52, 95
2, 980160, Note_on_c, 0, 66, 95
2, 980160, Note_on_c, 0, 63, 95
2, 980160, Note_on_c, 0, 59, 95
2, 980160, Note_on_c, 0, 54, 95
2, 980160, Note_on_c, 0, 47, 95
2, 980640, Note_off_c, 0, 66, 95
2, 980640, Note_off_c, 0, 63, 95
2, 980640, Note_off_c, 0, 59, 95
2, 980640, Note_off_c, 0, 54, 95
2, 980640, Note_off_c, 0, 47, 95
2, 980640, Note_on_c, 0, 68, 95
2, 980640, Note_on_c, 0, 64, 95
2, 980640, Note_on_c, 0, 59, 95
2, 980640, Note_on_c, 0, 52, 95
2, 981120, Note_off_c, 0, 68, 95
2, 981120, Note_off_c, 0, 64, 95
2, 981120, Note_off_c, 0, 59, 95
2, 981120, Note_off_c, 0, 52, 95
2, 981120, Note_on_c, 0, 68, 95
2, 981120, Note_on_c, 0, 64, 95
2, 981120, Note_on_c, 0, 59, 95
2, 981120, Note_on_c, 0, 52, 95
2, 981600, Note_off_c, 0, 68, 95
2, 981600, Note_off_c, 0, 64, 95
2, 981600, Note_off_c, 0, 59, 95
2, 981600, Note_off_c, 0, 52, 95
2, 981600, Note_on_c, 0, 66, 95
2, 981600, Note_on_c, 0, 63, 95
2, 981600, Note_on_c, 0, 59, 95
2, 981600, Note_on_c, 0, 54, 95
2, 981600, Note_on_c, 0, 47, 95
2, 982080, Note_off_c, 0, 66, 95
2, 982080, Note_off_c, 0, 63, 95
2, 982080, Note_off_c, 0, 59, 95
2, 982080, Note_off_c, 0, 54, 95
2, 982080, Note_off_c, 0, 47, 95
2, 982080, Note_on_c, 0, 68, 95
2, 982080, Note_on_c, 0, 64, 95
2, 982080, Note_on_c, 0, 59, 95
2, 982080, Note_on_c, 0, 52, 95
2, 982560, Note_off_c, 0, 68, 95
2, 982560, Note_off_c, 0, 64, 95
2, 982560, Note_off_c, 0, 59, 95
2, 982560, Note_off_c, 0, 52, 95
2, 982560, Note_on_c, 0, 66, 95
2, 982560, Note_on_c, 0, 63, 95
2, 982560, Note_on_c, 0, 59, 95
2, 982560, Note_on_c, 0, 54, 95
2, 982560, Note_on_c, 0, 47, 95
2, 983520, Note_off_c, 0, 66, 95
2, 983520, Note_off_c, 0, 63, 95
2, 983520, Note_off_c, 0, 59, 95
2, 983520, Note_off_c, 0, 54, 95
2, 983520, Note_off_c, 0, 47, 95
2, 983520, Note_on_c, 0, 66, 95
2, 983520, Note_on_c, 0, 63, 95
2, 983520, Note_on_c, 0, 59, 95
2, 983520, Note_on_c, 0, 54, 95
2, 983520, Note_on_c, 0, 47, 95
2, 984000, Note_off_c, 0, 66, 95
2, 984000, Note_off_c, 0, 63, 95
2, 984000, Note_off_c, 0, 59, 95
2, 984000, Note_off_c, 0, 54, 95
2, 984000, Note_off_c, 0, 47, 95
2, 984000, Note_on_c, 0, 49, 95
2, 984000, Note_on_c, 0, 44, 95
2, 984000, Note_on_c, 0, 39, 95
2, 984066, Note_off_c, 0, 49, 95
2, 984066, Note_off_c, 0, 44, 95
2, 984066, Note_off_c, 0, 39, 95
2, 984480, Note_on_c, 0, 49, 95
2, 984480, Note_on_c, 0, 44, 95
2, 984480, Note_on_c, 0, 39, 95
2, 984546, Note_off_c, 0, 49, 95
2, 984546, Note_off_c, 0, 44, 95
2, 984546, Note_off_c, 0, 39, 95
2, 984960, Note_on_c, 0, 66, 95
2, 984960, Note_on_c, 0, 63, 95
2, 984960, Note_on_c, 0, 59, 95
2, 984960, Note_on_c, 0, 54, 95
2, 984960, Note_on_c, 0, 47, 95
2, 985440, Note_off_c, 0, 66, 95
2, 985440, Note_off_c, 0, 63, 95
2, 985440, Note_off_c, 0, 59, 95
2, 985440, Note_off_c, 0, 54, 95
2, 985440, Note_off_c, 0, 47, 95
2, 985920, Note_on_c, 0, 66, 95
2, 985920, Note_on_c, 0, 63, 95
2, 985920, Note_on_c, 0, 59, 95
2, 985920, Note_on_c, 0, 54, 95
2, 985920, Note_on_c, 0, 47, 95
2, 986400, Note_off_c, 0, 66, 95
2, 986400, Note_off_c, 0, 63, 95
2, 986400, Note_off_c, 0, 59, 95
2, 986400, Note_off_c, 0, 54, 95
2, 986400, Note_off_c, 0, 47, 95
2, 986880, Note_on_c, 0, 68, 95
2, 986880, Note_on_c, 0, 64, 95
2, 986880, Note_on_c, 0, 59, 95
2, 986880, Note_on_c, 0, 52, 95
2, 987360, Note_off_c, 0, 68, 95
2, 987360, Note_off_c, 0, 64, 95
2, 987360, Note_off_c, 0, 59, 95
2, 987360, Note_off_c, 0, 52, 95
2, 987360, Note_on_c, 0, 68, 95
2, 987360, Note_on_c, 0, 64, 95
2, 987360, Note_on_c, 0, 59, 95
2, 987360, Note_on_c, 0, 52, 95
2, 987840, Note_off_c, 0, 68, 95
2, 987840, Note_off_c, 0, 64, 95
2, 987840, Note_off_c, 0, 59, 95
2, 987840, Note_off_c, 0, 52, 95
2, 987840, Note_on_c, 0, 66, 95
2, 987840, Note_on_c, 0, 63, 95
2, 987840, Note_on_c, 0, 59, 95
2, 987840, Note_on_c, 0, 54, 95
2, 987840, Note_on_c, 0, 47, 95
2, 988320, Note_off_c, 0, 66, 95
2, 988320, Note_off_c, 0, 63, 95
2, 988320, Note_off_c, 0, 59, 95
2, 988320, Note_off_c, 0, 54, 95
2, 988320, Note_off_c, 0, 47, 95
2, 988320, Note_on_c, 0, 68, 95
2, 988320, Note_on_c, 0, 64, 95
2, 988320, Note_on_c, 0, 59, 95
2, 988320, Note_on_c, 0, 52, 95
2, 988800, Note_off_c, 0, 68, 95
2, 988800, Note_off_c, 0, 64, 95
2, 988800, Note_off_c, 0, 59, 95
2, 988800, Note_off_c, 0, 52, 95
2, 988800, Note_on_c, 0, 68, 95
2, 988800, Note_on_c, 0, 64, 95
2, 988800, Note_on_c, 0, 59, 95
2, 988800, Note_on_c, 0, 52, 95
2, 989280, Note_off_c, 0, 68, 95
2, 989280, Note_off_c, 0, 64, 95
2, 989280, Note_off_c, 0, 59, 95
2, 989280, Note_off_c, 0, 52, 95
2, 989280, Note_on_c, 0, 66, 95
2, 989280, Note_on_c, 0, 63, 95
2, 989280, Note_on_c, 0, 59, 95
2, 989280, Note_on_c, 0, 54, 95
2, 989280, Note_on_c, 0, 47, 95
2, 989760, Note_off_c, 0, 66, 95
2, 989760, Note_off_c, 0, 63, 95
2, 989760, Note_off_c, 0, 59, 95
2, 989760, Note_off_c, 0, 54, 95
2, 989760, Note_off_c, 0, 47, 95
2, 989760, Note_on_c, 0, 68, 95
2, 989760, Note_on_c, 0, 64, 95
2, 989760, Note_on_c, 0, 59, 95
2, 989760, Note_on_c, 0, 52, 95
2, 990240, Note_off_c, 0, 68, 95
2, 990240, Note_off_c, 0, 64, 95
2, 990240, Note_off_c, 0, 59, 95
2, 990240, Note_off_c, 0, 52, 95
2, 990240, Note_on_c, 1, 66, 95
2, 990240, Note_on_c, 1, 63, 95
2, 990240, Note_on_c, 1, 59, 95
2, 990240, Note_on_c, 1, 54, 95
2, 990240, Note_on_c, 1, 47, 95
2, 990400, Pitch_bend_c, 1, 8192
2, 990400, Pitch_bend_c, 1, 8192
2, 990400, Pitch_bend_c, 1, 8192
2, 990400, Pitch_bend_c, 1, 8192
2, 990400, Pitch_bend_c, 1, 8192
2, 990560, Pitch_bend_c, 1, 8320
2, 990560, Pitch_bend_c, 1, 8320
2, 990560, Pitch_bend_c, 1, 8320
2, 990560, Pitch_bend_c, 1, 8320
2, 990560, Pitch_bend_c, 1, 8320
2, 990720, Pitch_bend_c, 1, 8192
2, 990720, Pitch_bend_c, 1, 8192
2, 990720, Pitch_bend_c, 1, 8192
2, 990720, Pitch_bend_c, 1, 8192
2, 990720, Pitch_bend_c, 1, 8192
2, 990880, Pitch_bend_c, 1, 8320
2, 990880, Pitch_bend_c, 1, 8320
2, 990880, Pitch_bend_c, 1, 8320
2, 990880, Pitch_bend_c, 1, 8320
2, 990880, Pitch_bend_c, 1, 8320
2, 991040, Pitch_bend_c, 1, 8192
2, 991040, Pitch_bend_c, 1, 8192
2, 991040, Pitch_bend_c, 1, 8192
2, 991040, Pitch_bend_c, 1, 8192
2, 991040, Pitch_bend_c, 1, 8192
2, 991200, Pitch_bend_c, 1, 8320
2, 991200, Pitch_bend_c, 1, 8320
2, 991200, Pitch_bend_c, 1, 8320
2, 991200, Pitch_bend_c, 1, 8320
2, 991200, Pitch_bend_c, 1, 8320
2, 991360, Pitch_bend_c, 1, 8192
2, 991360, Pitch_bend_c, 1, 8192
2, 991360, Pitch_bend_c, 1, 8192
2, 991360, Pitch_bend_c, 1, 8192
2, 991360, Pitch_bend_c, 1, 8192
2, 991520, Pitch_bend_c, 1, 8320
2, 991520, Pitch_bend_c, 1, 8320
2, 991520, Pitch_bend_c, 1, 8320
2, 991520, Pitch_bend_c, 1, 8320
2, 991520, Pitch_bend_c, 1, 8320
2, 991680, Pitch_bend_c, 1, 8192
2, 991680, Pitch_bend_c, 1, 8192
2, 991680, Pitch_bend_c, 1, 8192
2, 991680, Pitch_bend_c, 1, 8192
2, 991680, Pitch_bend_c, 1, 8192
2, 991840, Pitch_bend_c, 1, 8320
2, 991840, Pitch_bend_c, 1, 8320
2, 991840, Pitch_bend_c, 1, 8320
2, 991840, Pitch_bend_c, 1, 8320
2, 991840, Pitch_bend_c, 1, 8320
2, 992000, Pitch_bend_c, 1, 8192
2, 992000, Pitch_bend_c, 1, 8192
2, 992000, Pitch_bend_c, 1, 8192
2, 992000, Pitch_bend_c, 1, 8192
2, 992000, Pitch_bend_c, 1, 8192
2, 992160, Pitch_bend_c, 1, 8320
2, 992160, Pitch_bend_c, 1, 8320
2, 992160, Pitch_bend_c, 1, 8320
2, 992160, Pitch_bend_c, 1, 8320
2, 992160, Pitch_bend_c, 1, 8320
2, 992320, Pitch_bend_c, 1, 8192
2, 992320, Pitch_bend_c, 1, 8192
2, 992320, Pitch_bend_c, 1, 8192
2, 992320, Pitch_bend_c, 1, 8192
2, 992320, Pitch_bend_c, 1, 8192
2, 992480, Pitch_bend_c, 1, 8320
2, 992480, Pitch_bend_c, 1, 8320
2, 992480, Pitch_bend_c, 1, 8320
2, 992480, Pitch_bend_c, 1, 8320
2, 992480, Pitch_bend_c, 1, 8320
2, 992640, Pitch_bend_c, 1, 8192
2, 992640, Pitch_bend_c, 1, 8192
2, 992640, Pitch_bend_c, 1, 8192
2, 992640, Pitch_bend_c, 1, 8192
2, 992640, Pitch_bend_c, 1, 8192
2, 992800, Pitch_bend_c, 1, 8320
2, 992800, Pitch_bend_c, 1, 8320
2, 992800, Pitch_bend_c, 1, 8320
2, 992800, Pitch_bend_c, 1, 8320
2, 992800, Pitch_bend_c, 1, 8320
2, 992960, Pitch_bend_c, 1, 8192
2, 992960, Pitch_bend_c, 1, 8192
2, 992960, Pitch_bend_c, 1, 8192
2, 992960, Pitch_bend_c, 1, 8192
2, 992960, Pitch_bend_c, 1, 8192
2, 993120, Pitch_bend_c, 1, 8320
2, 993120, Pitch_bend_c, 1, 8320
2, 993120, Pitch_bend_c, 1, 8320
2, 993120, Pitch_bend_c, 1, 8320
2, 993120, Pitch_bend_c, 1, 8320
2, 993280, Pitch_bend_c, 1, 8192
2, 993280, Pitch_bend_c, 1, 8192
2, 993280, Pitch_bend_c, 1, 8192
2, 993280, Pitch_bend_c, 1, 8192
2, 993280, Pitch_bend_c, 1, 8192
2, 993440, Pitch_bend_c, 1, 8320
2, 993440, Pitch_bend_c, 1, 8320
2, 993440, Pitch_bend_c, 1, 8320
2, 993440, Pitch_bend_c, 1, 8320
2, 993440, Pitch_bend_c, 1, 8320
2, 993600, Pitch_bend_c, 1, 8192
2, 993600, Pitch_bend_c, 1, 8192
2, 993600, Pitch_bend_c, 1, 8192
2, 993600, Pitch_bend_c, 1, 8192
2, 993600, Pitch_bend_c, 1, 8192
2, 993760, Pitch_bend_c, 1, 8320
2, 993760, Pitch_bend_c, 1, 8320
2, 993760, Pitch_bend_c, 1, 8320
2, 993760, Pitch_bend_c, 1, 8320
2, 993760, Pitch_bend_c, 1, 8320
2, 993920, Pitch_bend_c, 1, 8192
2, 993920, Pitch_bend_c, 1, 8192
2, 993920, Pitch_bend_c, 1, 8192
2, 993920, Pitch_bend_c, 1, 8192
2, 993920, Pitch_bend_c, 1, 8192
2, 994080, Pitch_bend_c, 1, 8320
2, 994080, Pitch_bend_c, 1, 8192
2, 994080, Note_off_c, 1, 66, 95
2, 994080, Pitch_bend_c, 1, 8320
2, 994080, Pitch_bend_c, 1, 8192
2, 994080, Note_off_c, 1, 63, 95
2, 994080, Pitch_bend_c, 1, 8320
2, 994080, Pitch_bend_c, 1, 8192
2, 994080, Note_off_c, 1, 59, 95
2, 994080, Pitch_bend_c, 1, 8320
2, 994080, Pitch_bend_c, 1, 8192
2, 994080, Note_off_c, 1, 54, 95
2, 994080, Pitch_bend_c, 1, 8320
2, 994080, Pitch_bend_c, 1, 8192
2, 994080, Note_off_c, 1, 47, 95
2, 994080, End_track
3, 0, Start_track
3, 0, Pitch_bend_c, 2, 8192
3, 0, Control_c, 2, 7, 63
3, 0, Control_c, 2, 10, 63
3, 0, Control_c, 2, 93, 0
3, 0, Control_c, 2, 91, 0
3, 0, Control_c, 2, 95, 0
3, 0, Control_c, 2, 92, 0
3, 0, Control_c, 2, 11, 127
3, 0, Program_c, 2, 27
3, 0, Control_c, 3, 7, 63
3, 0, Control_c, 3, 10, 63
3, 0, Control_c, 3, 93, 0
3, 0, Control_c, 3, 91, 0
3, 0, Control_c, 3, 95, 0
3, 0, Control_c, 3, 92, 0
3, 0, Control_c, 3, 11, 127
3, 0, Program_c, 3, 27
3, 760320, Note_on_c, 2, 59, 95
3, 761280, Note_off_c, 2, 59, 95
3, 761280, Note_on_c, 2, 66, 95
3, 761760, Note_off_c, 2, 66, 95
3, 761760, Note_on_c, 2, 59, 95
3, 762240, Note_off_c, 2, 59, 95
3, 762240, Note_on_c, 2, 64, 95
3, 762720, Note_off_c, 2, 64, 95
3, 762720, Note_on_c, 2, 63, 70
3, 763200, Note_off_c, 2, 63, 70
3, 763200, Note_on_c, 2, 59, 95
3, 763680, Note_off_c, 2, 59, 95
3, 763680, Note_on_c, 2, 59, 95
3, 765120, Note_off_c, 2, 59, 95
3, 765120, Note_on_c, 2, 66, 95
3, 765600, Note_off_c, 2, 66, 95
3, 765600, Note_on_c, 2, 59, 95
3, 766080, Note_off_c, 2, 59, 95
3, 766080, Note_on_c, 2, 64, 95
3, 766560, Note_off_c, 2, 64, 95
3, 766560, Note_on_c, 2, 63, 70
3, 767040, Note_off_c, 2, 63, 70
3, 767040, Note_on_c, 2, 59, 95
3, 767520, Note_off_c, 2, 59, 95
3, 767520, Note_on_c, 2, 59, 95
3, 768000, Note_off_c, 2, 59, 95
3, 768000, Note_on_c, 2, 59, 95
3, 768960, Note_off_c, 2, 59, 95
3, 768960, Note_on_c, 2, 66, 95
3, 769440, Note_off_c, 2, 66, 95
3, 769440, Note_on_c, 2, 59, 95
3, 769920, Note_off_c, 2, 59, 95
3, 769920, Note_on_c, 2, 64, 95
3, 770400, Note_off_c, 2, 64, 95
3, 770400, Note_on_c, 2, 63, 70
3, 770880, Note_off_c, 2, 63, 70
3, 770880, Note_on_c, 2, 59, 95
3, 771360, Note_off_c, 2, 59, 95
3, 771360, Note_on_c, 2, 59, 95
3, 772800, Note_off_c, 2, 59, 95
3, 772800, Note_on_c, 2, 66, 95
3, 773280, Note_off_c, 2, 66, 95
3, 773280, Note_on_c, 2, 59, 95
3, 773760, Note_off_c, 2, 59, 95
3, 773760, Note_on_c, 2, 64, 95
3, 774240, Note_off_c, 2, 64, 95
3, 774240, Note_on_c, 2, 63, 70
3, 774720, Note_off_c, 2, 63, 70
3, 774720, Note_on_c, 2, 59, 95
3, 775200, Note_off_c, 2, 59, 95
3, 775200, Note_on_c, 2, 59, 95
3, 775680, Note_off_c, 2, 59, 95
3, 775680, Note_on_c, 2, 59, 95
3, 776640, Note_off_c, 2, 59, 95
3, 776640, Note_on_c, 2, 66, 95
3, 777120, Note_off_c, 2, 66, 95
3, 777120, Note_on_c, 2, 59, 95
3, 777600, Note_off_c, 2, 59, 95
3, 777600, Note_on_c, 2, 64, 95
3, 778080, Note_off_c, 2, 64, 95
3, 778080, Note_on_c, 2, 63, 70
3, 778560, Note_off_c, 2, 63, 70
3, 778560, Note_on_c, 2, 59, 95
3, 779040, Note_off_c, 2, 59, 95
3, 779040, Note_on_c, 2, 59, 95
3, 780480, Note_off_c, 2, 59, 95
3, 780480, Note_on_c, 2, 66, 95
3, 780960, Note_off_c, 2, 66, 95
3, 780960, Note_on_c, 2, 59, 95
3, 781440, Note_off_c, 2, 59, 95
3, 781440, Note_on_c, 2, 64, 95
3, 781920, Note_off_c, 2, 64, 95
3, 781920, Note_on_c, 2, 63, 70
3, 782400, Note_off_c, 2, 63, 70
3, 782400, Note_on_c, 2, 59, 95
3, 782880, Note_off_c, 2, 59, 95
3, 782880, Note_on_c, 2, 59, 95
3, 783360, Note_off_c, 2, 59, 95
3, 783360, Note_on_c, 2, 59, 95
3, 784320, Note_off_c, 2, 59, 95
3, 784320, Note_on_c, 2, 66, 95
3, 784800, Note_off_c, 2, 66, 95
3, 784800, Note_on_c, 2, 59, 95
3, 785280, Note_off_c, 2, 59, 95
3, 785280, Note_on_c, 2, 64, 95
3, 785760, Note_off_c, 2, 64, 95
3, 785760, Note_on_c, 2, 63, 70
3, 786240, Note_off_c, 2, 63, 70
3, 786240, Note_on_c, 2, 59, 95
3, 786720, Note_off_c, 2, 59, 95
3, 786720, Note_on_c, 2, 59, 95
3, 788160, Note_off_c, 2, 59, 95
3, 788160, Note_on_c, 2, 66, 95
3, 788640, Note_off_c, 2, 66, 95
3, 788640, Note_on_c, 2, 59, 95
3, 789120, Note_off_c, 2, 59, 95
3, 789120, Note_on_c, 2, 64, 95
3, 789600, Note_off_c, 2, 64, 95
3, 789600, Note_on_c, 2, 63, 70
3, 790080, Note_off_c, 2, 63, 70
3, 790080, Note_on_c, 2, 59, 95
3, 790560, Note_off_c, 2, 59, 95
3, 790560, Note_on_c, 2, 59, 95
3, 791040, Note_off_c, 2, 59, 95
3, 791040, Note_on_c, 2, 59, 95
3, 792000, Note_off_c, 2, 59, 95
3, 792000, Note_on_c, 2, 66, 95
3, 792480, Note_off_c, 2, 66, 95
3, 792480, Note_on_c, 2, 59, 95
3, 792960, Note_off_c, 2, 59, 95
3, 792960, Note_on_c, 2, 64, 95
3, 793440, Note_off_c, 2, 64, 95
3, 793440, Note_on_c, 2, 63, 70
3, 793920, Note_off_c, 2, 63, 70
3, 793920, Note_on_c, 2, 59, 95
3, 794400, Note_off_c, 2, 59, 95
3, 794400, Note_on_c, 2, 59, 95
3, 795840, Note_off_c, 2, 59, 95
3, 795840, Note_on_c, 2, 66, 95
3, 796320, Note_off_c, 2, 66, 95
3, 796320, Note_on_c, 2, 59, 95
3, 796800, Note_off_c, 2, 59, 95
3, 796800, Note_on_c, 2, 64, 95
3, 797280, Note_off_c, 2, 64, 95
3, 797280, Note_on_c, 2, 63, 70
3, 797760, Note_off_c, 2, 63, 70
3, 797760, Note_on_c, 2, 59, 95
3, 798240, Note_off_c, 2, 59, 95
3, 798240, Note_on_c, 2, 59, 95
3, 798720, Note_off_c, 2, 59, 95
3, 798720, Note_on_c, 2, 59, 95
3, 799680, Note_off_c, 2, 59, 95
3, 799680, Note_on_c, 2, 66, 95
3, 800160, Note_off_c, 2, 66, 95
3, 800160, Note_on_c, 2, 59, 95
3, 800640, Note_off_c, 2, 59, 95
3, 800640, Note_on_c, 2, 64, 95
3, 801120, Note_off_c, 2, 64, 95
3, 801120, Note_on_c, 2, 63, 70
3, 801600, Note_off_c, 2, 63, 70
3, 801600, Note_on_c, 2, 59, 95
3, 802080, Note_off_c, 2, 59, 95
3, 802080, Note_on_c, 2, 59, 95
3, 803520, Note_off_c, 2, 59, 95
3, 803520, Note_on_c, 2, 66, 95
3, 804000, Note_off_c, 2, 66, 95
3, 804000, Note_on_c, 2, 59, 95
3, 804480, Note_off_c, 2, 59, 95
3, 804480, Note_on_c, 2, 64, 95
3, 804960, Note_off_c, 2, 64, 95
3, 804960, Note_on_c, 2, 63, 70
3, 805440, Note_off_c, 2, 63, 70
3, 805440, Note_on_c, 2, 59, 95
3, 805920, Note_off_c, 2, 59, 95
3, 805920, Note_on_c, 2, 59, 95
3, 806400, Note_off_c, 2, 59, 95
3, 806400, Note_on_c, 2, 59, 95
3, 807360, Note_off_c, 2, 59, 95
3, 807360, Note_on_c, 2, 66, 95
3, 807840, Note_off_c, 2, 66, 95
3, 807840, Note_on_c, 2, 59, 95
3, 808320, Note_off_c, 2, 59, 95
3, 808320, Note_on_c, 2, 64, 95
3, 808800, Note_off_c, 2, 64, 95
3, 808800, Note_on_c, 2, 63, 70
3, 809280, Note_off_c, 2, 63, 70
3, 809280, Note_on_c, 2, 59, 95
3, 809760, Note_off_c, 2, 59, 95
3, 809760, Note_on_c, 2, 59, 95
3, 811200, Note_off_c, 2, 59, 95
3, 811200, Note_on_c, 2, 66, 95
3, 811680, Note_off_c, 2, 66, 95
3, 811680, Note_on_c, 2, 59, 95
3, 812160, Note_off_c, 2, 59, 95
3, 812160, Note_on_c, 2, 64, 95
3, 812640, Note_off_c, 2, 64, 95
3, 812640, Note_on_c, 2, 63, 70
3, 813120, Note_off_c, 2, 63, 70
3, 813120, Note_on_c, 2, 59, 95
3, 813600, Note_off_c, 2, 59, 95
3, 813600, Note_on_c, 2, 59, 95
3, 814080, Note_off_c, 2, 59, 95
3, 814080, Note_on_c, 2, 59, 95
3, 815040, Note_off_c, 2, 59, 95
3, 815040, Note_on_c, 2, 66, 95
3, 815520, Note_off_c, 2, 66, 95
3, 815520, Note_on_c, 2, 59, 95
3, 816000, Note_off_c, 2, 59, 95
3, 816000, Note_on_c, 2, 64, 95
3, 816480, Note_off_c, 2, 64, 95
3, 816480, Note_on_c, 2, 63, 70
3, 816960, Note_off_c, 2, 63, 70
3, 816960, Note_on_c, 2, 59, 95
3, 817440, Note_off_c, 2, 59, 95
3, 817440, Note_on_c, 2, 59, 95
3, 818880, Note_off_c, 2, 59, 95
3, 818880, Note_on_c, 2, 66, 95
3, 819360, Note_off_c, 2, 66, 95
3, 819360, Note_on_c, 2, 59, 95
3, 819840, Note_off_c, 2, 59, 95
3, 819840, Note_on_c, 2, 64, 95
3, 820320, Note_off_c, 2, 64, 95
3, 820320, Note_on_c, 2, 63, 70
3, 820800, Note_off_c, 2, 63, 70
3, 820800, Note_on_c, 2, 59, 95
3, 821280, Note_off_c, 2, 59, 95
3, 821280, Note_on_c, 2, 59, 95
3, 821760, Note_off_c, 2, 59, 95
3, 821760, Note_on_c, 2, 59, 95
3, 822720, Note_off_c, 2, 59, 95
3, 822720, Note_on_c, 2, 66, 95
3, 823200, Note_off_c, 2, 66, 95
3, 823200, Note_on_c, 2, 59, 95
3, 823680, Note_off_c, 2, 59, 95
3, 823680, Note_on_c, 2, 64, 95
3, 824160, Note_off_c, 2, 64, 95
3, 824160, Note_on_c, 2, 63, 70
3, 824640, Note_off_c, 2, 63, 70
3, 824640, Note_on_c, 2, 59, 95
3, 825120, Note_off_c, 2, 59, 95
3, 825120, Note_on_c, 2, 59, 95
3, 826560, Note_off_c, 2, 59, 95
3, 826560, Note_on_c, 2, 66, 95
3, 827040, Note_off_c, 2, 66, 95
3, 827040, Note_on_c, 2, 59, 95
3, 827520, Note_off_c, 2, 59, 95
3, 827520, Note_on_c, 2, 64, 95
3, 828000, Note_off_c, 2, 64, 95
3, 828000, Note_on_c, 2, 63, 70
3, 828480, Note_off_c, 2, 63, 70
3, 828480, Note_on_c, 2, 59, 95
3, 828960, Note_off_c, 2, 59, 95
3, 828960, Note_on_c, 2, 59, 95
3, 829440, Note_off_c, 2, 59, 95
3, 829440, Note_on_c, 2, 59, 95
3, 830400, Note_off_c, 2, 59, 95
3, 830400, Note_on_c, 2, 66, 95
3, 830880, Note_off_c, 2, 66, 95
3, 830880, Note_on_c, 2, 59, 95
3, 831360, Note_off_c, 2, 59, 95
3, 831360, Note_on_c, 2, 64, 95
3, 831840, Note_off_c, 2, 64, 95
3, 831840, Note_on_c, 2, 63, 70
3, 832320, Note_off_c, 2, 63, 70
3, 832320, Note_on_c, 2, 59, 95
3, 832800, Note_off_c, 2, 59, 95
3, 832800, Note_on_c, 2, 59, 95
3, 834240, Note_off_c, 2, 59, 95
3, 834240, Note_on_c, 2, 66, 95
3, 834720, Note_off_c, 2, 66, 95
3, 834720, Note_on_c, 2, 59, 95
3, 835200, Note_off_c, 2, 59, 95
3, 835200, Note_on_c, 2, 64, 95
3, 835680, Note_off_c, 2, 64, 95
3, 835680, Note_on_c, 2, 63, 70
3, 836160, Note_off_c, 2, 63, 70
3, 836160, Note_on_c, 2, 59, 95
3, 836640, Note_off_c, 2, 59, 95
3, 836640, Note_on_c, 2, 59, 95
3, 837120, Note_off_c, 2, 59, 95
3, 837120, Note_on_c, 2, 59, 95
3, 838080, Note_off_c, 2, 59, 95
3, 838080, Note_on_c, 2, 66, 95
3, 838560, Note_off_c, 2, 66, 95
3, 838560, Note_on_c, 2, 59, 95
3, 839040, Note_off_c, 2, 59, 95
3, 839040, Note_on_c, 2, 64, 95
3, 839520, Note_off_c, 2, 64, 95
3, 839520, Note_on_c, 2, 63, 70
3, 840000, Note_off_c, 2, 63, 70
3, 840000, Note_on_c, 2, 59, 95
3, 840480, Note_off_c, 2, 59, 95
3, 840480, Note_on_c, 2, 59, 95
3, 841920, Note_off_c, 2, 59, 95
3, 841920, Note_on_c, 2, 66, 95
3, 842400, Note_off_c, 2, 66, 95
3, 842400, Note_on_c, 2, 59, 95
3, 842880, Note_off_c, 2, 59, 95
3, 842880, Note_on_c, 2, 64, 95
3, 843360, Note_off_c, 2, 64, 95
3, 843360, Note_on_c, 2, 63, 70
3, 843840, Note_off_c, 2, 63, 70
3, 843840, Note_on_c, 2, 59, 95
3, 844320, Note_off_c, 2, 59, 95
3, 844320, Note_on_c, 2, 59, 95
3, 845280, Note_off_c, 2, 59, 95
3, 845280, Note_on_c, 2, 59, 95
3, 845760, Note_off_c, 2, 59, 95
3, 845760, Note_on_c, 2, 66, 95
3, 846240, Note_off_c, 2, 66, 95
3, 846240, Note_on_c, 2, 59, 95
3, 846720, Note_off_c, 2, 59, 95
3, 846720, Note_on_c, 2, 64, 95
3, 847200, Note_off_c, 2, 64, 95
3, 847200, Note_on_c, 2, 63, 70
3, 847680, Note_off_c, 2, 63, 70
3, 847680, Note_on_c, 2, 59, 95
3, 848160, Note_off_c, 2, 59, 95
3, 848160, Note_on_c, 2, 59, 95
3, 849120, Note_off_c, 2, 59, 95
3, 849120, Note_on_c, 2, 59, 95
3, 849600, Note_off_c, 2, 59, 95
3, 849600, Note_on_c, 2, 66, 95
3, 850080, Note_off_c, 2, 66, 95
3, 850080, Note_on_c, 2, 59, 95
3, 850560, Note_off_c, 2, 59, 95
3, 850560, Note_on_c, 2, 64, 95
3, 851040, Note_off_c, 2, 64, 95
3, 851040, Note_on_c, 2, 63, 70
3, 851520, Note_off_c, 2, 63, 70
3, 851520, Note_on_c, 2, 59, 95
3, 852000, Note_off_c, 2, 59, 95
3, 852000, Note_on_c, 2, 59, 95
3, 852960, Note_off_c, 2, 59, 95
3, 852960, Note_on_c, 2, 59, 95
3, 853440, Note_off_c, 2, 59, 95
3, 853440, Note_on_c, 2, 66, 95
3, 853920, Note_off_c, 2, 66, 95
3, 853920, Note_on_c, 2, 59, 95
3, 854400, Note_off_c, 2, 59, 95
3, 854400, Note_on_c, 2, 64, 95
3, 854880, Note_off_c, 2, 64, 95
3, 854880, Note_on_c, 2, 63, 70
3, 855360, Note_off_c, 2, 63, 70
3, 855360, Note_on_c, 2, 59, 95
3, 855840, Note_off_c, 2, 59, 95
3, 855840, Note_on_c, 2, 59, 95
3, 856800, Note_off_c, 2, 59, 95
3, 856800, Note_on_c, 2, 59, 95
3, 857280, Note_off_c, 2, 59, 95
3, 857280, Note_on_c, 2, 66, 95
3, 857760, Note_off_c, 2, 66, 95
3, 857760, Note_on_c, 2, 59, 95
3, 858240, Note_off_c, 2, 59, 95
3, 858240, Note_on_c, 2, 64, 95
3, 858720, Note_off_c, 2, 64, 95
3, 858720, Note_on_c, 2, 63, 70
3, 859200, Note_off_c, 2, 63, 70
3, 859200, Note_on_c, 2, 59, 95
3, 859680, Note_off_c, 2, 59, 95
3, 859680, Note_on_c, 2, 59, 95
3, 860640, Note_off_c, 2, 59, 95
3, 860640, Note_on_c, 2, 59, 95
3, 861120, Note_off_c, 2, 59, 95
3, 861120, Note_on_c, 2, 66, 95
3, 861600, Note_off_c, 2, 66, 95
3, 861600, Note_on_c, 2, 59, 95
3, 862080, Note_off_c, 2, 59, 95
3, 862080, Note_on_c, 2, 64, 95
3, 862560, Note_off_c, 2, 64, 95
3, 862560, Note_on_c, 2, 63, 70
3, 863040, Note_off_c, 2, 63, 70
3, 863040, Note_on_c, 2, 59, 95
3, 863520, Note_off_c, 2, 59, 95
3, 863520, Note_on_c, 2, 59, 95
3, 864480, Note_off_c, 2, 59, 95
3, 864480, Note_on_c, 2, 59, 95
3, 864960, Note_off_c, 2, 59, 95
3, 864960, Note_on_c, 2, 66, 95
3, 865440, Note_off_c, 2, 66, 95
3, 865440, Note_on_c, 2, 59, 95
3, 865920, Note_off_c, 2, 59, 95
3, 865920, Note_on_c, 2, 64, 95
3, 866400, Note_off_c, 2, 64, 95
3, 866400, Note_on_c, 2, 63, 70
3, 866880, Note_off_c, 2, 63, 70
3, 866880, Note_on_c, 2, 59, 95
3, 867360, Note_off_c, 2, 59, 95
3, 867360, Note_on_c, 2, 59, 95
3, 868320, Note_off_c, 2, 59, 95
3, 868320, Note_on_c, 2, 59, 95
3, 868800, Note_off_c, 2, 59, 95
3, 868800, Note_on_c, 2, 66, 95
3, 869280, Note_off_c, 2, 66, 95
3, 869280, Note_on_c, 2, 59, 95
3, 869760, Note_off_c, 2, 59, 95
3, 869760, Note_on_c, 2, 64, 95
3, 870240, Note_off_c, 2, 64, 95
3, 870240, Note_on_c, 2, 63, 70
3, 870720, Note_off_c, 2, 63, 70
3, 870720, Note_on_c, 2, 59, 95
3, 871200, Note_off_c, 2, 59, 95
3, 871200, Note_on_c, 2, 59, 95
3, 872160, Note_off_c, 2, 59, 95
3, 872160, Note_on_c, 2, 59, 95
3, 872640, Note_off_c, 2, 59, 95
3, 872640, Note_on_c, 2, 66, 95
3, 873120, Note_off_c, 2, 66, 95
3, 873120, Note_on_c, 2, 59, 95
3, 873600, Note_off_c, 2, 59, 95
3, 873600, Note_on_c, 2, 64, 95
3, 874080, Note_off_c, 2, 64, 95
3, 874080, Note_on_c, 2, 63, 70
3, 874560, Note_off_c, 2, 63, 70
3, 874560, Note_on_c, 2, 59, 95
3, 875040, Note_off_c, 2, 59, 95
3, 875040, Note_on_c, 2, 59, 95
3, 876000, Note_off_c, 2, 59, 95
3, 876000, Note_on_c, 2, 59, 95
3, 876480, Note_off_c, 2, 59, 95
3, 876480, Note_on_c, 2, 66, 95
3, 876960, Note_off_c, 2, 66, 95
3, 876960, Note_on_c, 2, 59, 95
3, 877440, Note_off_c, 2, 59, 95
3, 877440, Note_on_c, 2, 64, 95
3, 877920, Note_off_c, 2, 64, 95
3, 877920, Note_on_c, 2, 63, 70
3, 878400, Note_off_c, 2, 63, 70
3, 878400, Note_on_c, 2, 59, 95
3, 878880, Note_off_c, 2, 59, 95
3, 878880, Note_on_c, 2, 59, 95
3, 879840, Note_off_c, 2, 59, 95
3, 879840, Note_on_c, 2, 59, 95
3, 880320, Note_off_c, 2, 59, 95
3, 880320, Note_on_c, 2, 66, 95
3, 880800, Note_off_c, 2, 66, 95
3, 880800, Note_on_c, 2, 59, 95
3, 881280, Note_off_c, 2, 59, 95
3, 881280, Note_on_c, 2, 64, 95
3, 881760, Note_off_c, 2, 64, 95
3, 881760, Note_on_c, 2, 63, 70
3, 882240, Note_off_c, 2, 63, 70
3, 882240, Note_on_c, 2, 59, 95
3, 882720, Note_off_c, 2, 59, 95
3, 882720, Note_on_c, 2, 59, 95
3, 883680, Note_off_c, 2, 59, 95
3, 883680, Note_on_c, 2, 59, 95
3, 884160, Note_off_c, 2, 59, 95
3, 884160, Note_on_c, 2, 66, 95
3, 884640, Note_off_c, 2, 66, 95
3, 884640, Note_on_c, 2, 59, 95
3, 885120, Note_off_c, 2, 59, 95
3, 885120, Note_on_c, 2, 64, 95
3, 885600, Note_off_c, 2, 64, 95
3, 885600, Note_on_c, 2, 63, 70
3, 886080, Note_off_c, 2, 63, 70
3, 886080, Note_on_c, 2, 59, 95
3, 886560, Note_off_c, 2, 59, 95
3, 886560, Note_on_c, 2, 59, 95
3, 887520, Note_off_c, 2, 59, 95
3, 887520, Note_on_c, 2, 59, 95
3, 888000, Note_off_c, 2, 59, 95
3, 888000, Note_on_c, 2, 66, 95
3, 888480, Note_off_c, 2, 66, 95
3, 888480, Note_on_c, 2, 59, 95
3, 888960, Note_off_c, 2, 59, 95
3, 888960, Note_on_c, 2, 64, 95
3, 889440, Note_off_c, 2, 64, 95
3, 889440, Note_on_c, 2, 63, 70
3, 889920, Note_off_c, 2, 63, 70
3, 889920, Note_on_c, 2, 59, 95
3, 890400, Note_off_c, 2, 59, 95
3, 890400, Note_on_c, 2, 59, 95
3, 891360, Note_off_c, 2, 59, 95
3, 891360, Note_on_c, 2, 59, 95
3, 891840, Note_off_c, 2, 59, 95
3, 891840, Note_on_c, 2, 66, 95
3, 892320, Note_off_c, 2, 66, 95
3, 892320, Note_on_c, 2, 59, 95
3, 892800, Note_off_c, 2, 59, 95
3, 892800, Note_on_c, 2, 64, 95
3, 893280, Note_off_c, 2, 64, 95
3, 893280, Note_on_c, 2, 63, 70
3, 893760, Note_off_c, 2, 63, 70
3, 893760, Note_on_c, 2, 59, 95
3, 894240, Note_off_c, 2, 59, 95
3, 894240, Note_on_c, 2, 59, 95
3, 895200, Note_off_c, 2, 59, 95
3, 895200, Note_on_c, 2, 59, 95
3, 895680, Note_off_c, 2, 59, 95
3, 895680, Note_on_c, 2, 66, 95
3, 896160, Note_off_c, 2, 66, 95
3, 896160, Note_on_c, 2, 59, 95
3, 896640, Note_off_c, 2, 59, 95
3, 896640, Note_on_c, 2, 64, 95
3, 897120, Note_off_c, 2, 64, 95
3, 897120, Note_on_c, 2, 63, 70
3, 897600, Note_off_c, 2, 63, 70
3, 897600, Note_on_c, 2, 59, 95
3, 898080, Note_off_c, 2, 59, 95
3, 898080, Note_on_c, 2, 59, 95
3, 899040, Note_off_c, 2, 59, 95
3, 899040, Note_on_c, 2, 59, 95
3, 899520, Note_off_c, 2, 59, 95
3, 899520, Note_on_c, 2, 66, 95
3, 900000, Note_off_c, 2, 66, 95
3, 900000, Note_on_c, 2, 59, 95
3, 900480, Note_off_c, 2, 59, 95
3, 900480, Note_on_c, 2, 64, 95
3, 900960, Note_off_c, 2, 64, 95
3, 900960, Note_on_c, 2, 63, 70
3, 901440, Note_off_c, 2, 63, 70
3, 901440, Note_on_c, 2, 59, 95
3, 901920, Note_off_c, 2, 59, 95
3, 901920, Note_on_c, 2, 59, 95
3, 902880, Note_off_c, 2, 59, 95
3, 902880, Note_on_c, 2, 59, 95
3, 903360, Note_off_c, 2, 59, 95
3, 903360, Note_on_c, 2, 66, 95
3, 903840, Note_off_c, 2, 66, 95
3, 903840, Note_on_c, 2, 59, 95
3, 904320, Note_off_c, 2, 59, 95
3, 904320, Note_on_c, 2, 64, 95
3, 904800, Note_off_c, 2, 64, 95
3, 904800, Note_on_c, 2, 63, 70
3, 905280, Note_off_c, 2, 63, 70
3, 905280, Note_on_c, 2, 59, 95
3, 905760, Note_off_c, 2, 59, 95
3, 905760, Note_on_c, 2, 59, 95
3, 906720, Note_off_c, 2, 59, 95
3, 906720, Note_on_c, 2, 59, 95
3, 907200, Note_off_c, 2, 59, 95
3, 907200, Note_on_c, 2, 66, 95
3, 907680, Note_off_c, 2, 66, 95
3, 907680, Note_on_c, 2, 59, 95
3, 908160, Note_off_c, 2, 59, 95
3, 908160, Note_on_c, 2, 64, 95
3, 908640, Note_off_c, 2, 64, 95
3, 908640, Note_on_c, 2, 63, 70
3, 909120, Note_off_c, 2, 63, 70
3, 909120, Note_on_c, 2, 59, 95
3, 909600, Note_off_c, 2, 59, 95
3, 909600, Note_on_c, 2, 59, 95
3, 910560, Note_off_c, 2, 59, 95
3, 910560, Note_on_c, 2, 59, 95
3, 911040, Note_off_c, 2, 59, 95
3, 911040, Note_on_c, 2, 66, 95
3, 911520, Note_off_c, 2, 66, 95
3, 911520, Note_on_c, 2, 59, 95
3, 912000, Note_off_c, 2, 59, 95
3, 912000, Note_on_c, 2, 64, 95
3, 912480, Note_off_c, 2, 64, 95
3, 912480, Note_on_c, 2, 63, 70
3, 912960, Note_off_c, 2, 63, 70
3, 912960, Note_on_c, 2, 59, 95
3, 913440, Note_off_c, 2, 59, 95
3, 913440, Note_on_c, 2, 59, 95
3, 914400, Note_off_c, 2, 59, 95
3, 914400, Note_on_c, 2, 59, 95
3, 914880, Note_off_c, 2, 59, 95
3, 914880, Note_on_c, 2, 66, 95
3, 915360, Note_off_c, 2, 66, 95
3, 915360, Note_on_c, 2, 59, 95
3, 915840, Note_off_c, 2, 59, 95
3, 915840, Note_on_c, 2, 64, 95
3, 916320, Note_off_c, 2, 64, 95
3, 916320, Note_on_c, 2, 63, 70
3, 916800, Note_off_c, 2, 63, 70
3, 916800, Note_on_c, 2, 59, 95
3, 917280, Note_off_c, 2, 59, 95
3, 917280, Note_on_c, 2, 59, 95
3, 918240, Note_off_c, 2, 59, 95
3, 918240, Note_on_c, 2, 59, 95
3, 918720, Note_off_c, 2, 59, 95
3, 918720, Note_on_c, 2, 66, 95
3, 919200, Note_off_c, 2, 66, 95
3, 919200, Note_on_c, 2, 59, 95
3, 919680, Note_off_c, 2, 59, 95
3, 919680, Note_on_c, 2, 64, 95
3, 920160, Note_off_c, 2, 64, 95
3, 920160, Note_on_c, 2, 63, 70
3, 920640, Note_off_c, 2, 63, 70
3, 920640, Note_on_c, 2, 59, 95
3, 921120, Note_off_c, 2, 59, 95
3, 921120, Note_on_c, 2, 59, 95
3, 922080, Note_off_c, 2, 59, 95
3, 922080, Note_on_c, 2, 59, 95
3, 922560, Note_off_c, 2, 59, 95
3, 922560, Note_on_c, 2, 66, 95
3, 923040, Note_off_c, 2, 66, 95
3, 923040, Note_on_c, 2, 59, 95
3, 923520, Note_off_c, 2, 59, 95
3, 923520, Note_on_c, 2, 64, 95
3, 924000, Note_off_c, 2, 64, 95
3, 924000, Note_on_c, 2, 63, 70
3, 924480, Note_off_c, 2, 63, 70
3, 924480, Note_on_c, 2, 59, 95
3, 924960, Note_off_c, 2, 59, 95
3, 924960, Note_on_c, 2, 59, 95
3, 925920, Note_off_c, 2, 59, 95
3, 925920, Note_on_c, 2, 59, 95
3, 926400, Note_off_c, 2, 59, 95
3, 926400, Note_on_c, 2, 66, 95
3, 926880, Note_off_c, 2, 66, 95
3, 926880, Note_on_c, 2, 59, 95
3, 927360, Note_off_c, 2, 59, 95
3, 927360, Note_on_c, 2, 64, 95
3, 927840, Note_off_c, 2, 64, 95
3, 927840, Note_on_c, 2, 63, 70
3, 928320, Note_off_c, 2, 63, 70
3, 928320, Note_on_c, 2, 59, 95
3, 928800, Note_off_c, 2, 59, 95
3, 928800, Note_on_c, 2, 59, 95
3, 929760, Note_off_c, 2, 59, 95
3, 929760, Note_on_c, 2, 59, 95
3, 930240, Note_off_c, 2, 59, 95
3, 930240, Note_on_c, 2, 66, 95
3, 930720, Note_off_c, 2, 66, 95
3, 930720, Note_on_c, 2, 59, 95
3, 931200, Note_off_c, 2, 59, 95
3, 931200, Note_on_c, 2, 64, 95
3, 931680, Note_off_c, 2, 64, 95
3, 931680, Note_on_c, 2, 63, 70
3, 932160, Note_off_c, 2, 63, 70
3, 932160, Note_on_c, 2, 59, 95
3, 932640, Note_off_c, 2, 59, 95
3, 932640, Note_on_c, 2, 59, 95
3, 933600, Note_off_c, 2, 59, 95
3, 933600, Note_on_c, 2, 59, 95
3, 934080, Note_off_c, 2, 59, 95
3, 934080, Note_on_c, 2, 66, 95
3, 934560, Note_off_c, 2, 66, 95
3, 934560, Note_on_c, 2, 59, 95
3, 935040, Note_off_c, 2, 59, 95
3, 935040, Note_on_c, 2, 64, 95
3, 935520, Note_off_c, 2, 64, 95
3, 935520, Note_on_c, 2, 63, 70
3, 936000, Note_off_c, 2, 63, 70
3, 936000, Note_on_c, 2, 59, 95
3, 936480, Note_off_c, 2, 59, 95
3, 936480, Note_on_c, 2, 59, 95
3, 937440, Note_off_c, 2, 59, 95
3, 937440, Note_on_c, 2, 59, 95
3, 937920, Note_off_c, 2, 59, 95
3, 937920, Note_on_c, 2, 66, 95
3, 938400, Note_off_c, 2, 66, 95
3, 938400, Note_on_c, 2, 59, 95
3, 938880, Note_off_c, 2, 59, 95
3, 938880, Note_on_c, 2, 64, 95
3, 939360, Note_off_c, 2, 64, 95
3, 939360, Note_on_c, 2, 63, 70
3, 939840, Note_off_c, 2, 63, 70
3, 939840, Note_on_c, 2, 59, 95
3, 940320, Note_off_c, 2, 59, 95
3, 940320, Note_on_c, 2, 59, 95
3, 941280, Note_off_c, 2, 59, 95
3, 941280, Note_on_c, 2, 59, 95
3, 941760, Note_off_c, 2, 59, 95
3, 941760, Note_on_c, 2, 66, 95
3, 942240, Note_off_c, 2, 66, 95
3, 942240, Note_on_c, 2, 59, 95
3, 942720, Note_off_c, 2, 59, 95
3, 942720, Note_on_c, 2, 64, 95
3, 943200, Note_off_c, 2, 64, 95
3, 943200, Note_on_c, 2, 63, 70
3, 943680, Note_off_c, 2, 63, 70
3, 943680, Note_on_c, 2, 59, 95
3, 944160, Note_off_c, 2, 59, 95
3, 944160, Note_on_c, 2, 59, 95
3, 945120, Note_off_c, 2, 59, 95
3, 945120, Note_on_c, 2, 59, 95
3, 945600, Note_off_c, 2, 59, 95
3, 945600, Note_on_c, 2, 66, 95
3, 946080, Note_off_c, 2, 66, 95
3, 946080, Note_on_c, 2, 59, 95
3, 946560, Note_off_c, 2, 59, 95
3, 946560, Note_on_c, 2, 64, 95
3, 947040, Note_off_c, 2, 64, 95
3, 947040, Note_on_c, 2, 63, 70
3, 947520, Note_off_c, 2, 63, 70
3, 947520, Note_on_c, 2, 59, 95
3, 948000, Note_off_c, 2, 59, 95
3, 948000, Note_on_c, 2, 59, 95
3, 948960, Note_off_c, 2, 59, 95
3, 948960, Note_on_c, 2, 59, 95
3, 949440, Note_off_c, 2, 59, 95
3, 949440, Note_on_c, 2, 66, 95
3, 949920, Note_off_c, 2, 66, 95
3, 949920, Note_on_c, 2, 59, 95
3, 950400, Note_off_c, 2, 59, 95
3, 950400, Note_on_c, 2, 64, 95
3, 950880, Note_off_c, 2, 64, 95
3, 950880, Note_on_c, 2, 63, 70
3, 951360, Note_off_c, 2, 63, 70
3, 951360, Note_on_c, 2, 59, 95
3, 951840, Note_off_c, 2, 59, 95
3, 951840, End_track
4, 0, Start_track
4, 0, Pitch_bend_c, 4, 8192
4, 0, Control_c, 4, 7, 63
4, 0, Control_c, 4, 10, 63
4, 0, Control_c, 4, 93, 0
4, 0, Control_c, 4, 91, 0
4, 0, Control_c, 4, 95, 0
4, 0, Control_c, 4, 92, 0
4, 0, Control_c, 4, 11, 127
4, 0, Program_c, 4, 25
4, 0, Control_c, 5, 7, 63
4, 0, Control_c, 5, 10, 63
4, 0, Control_c, 5, 93, 0
4, 0, Control_c, 5, 91, 0
4, 0, Control_c, 5, 95, 0
4, 0, Control_c, 5, 92, 0
4, 0, Control_c, 5, 11, 127
4, 0, Program_c, 5, 25
4, 760320, Note_on_c, 4, 66, 95
4, 760320, Note_on_c, 4, 63, 95
4, 760320, Note_on_c, 4, 59, 95
4, 760320, Note_on_c, 4, 54, 95
4, 760320, Note_on_c, 4, 47, 95
4, 764160, Note_off_c, 4, 66, 95
4, 764160, Note_off_c, 4, 63, 95
4, 764160, Note_off_c, 4, 59, 95
4, 764160, Note_off_c, 4, 54, 95
4, 764160, Note_off_c, 4, 47, 95
4, 768000, Note_on_c, 4, 66, 95
4, 768000, Note_on_c, 4, 63, 95
4, 768000, Note_on_c, 4, 59, 95
4, 768000, Note_on_c, 4, 54, 95
4, 768000, Note_on_c, 4, 47, 95
4, 771840, Note_off_c, 4, 66, 95
4, 771840, Note_off_c, 4, 63, 95
4, 771840, Note_off_c, 4, 59, 95
4, 771840, Note_off_c, 4, 54, 95
4, 771840, Note_off_c, 4, 47, 95
4, 775680, Note_on_c, 4, 66, 95
4, 775680, Note_on_c, 4, 63, 95
4, 775680, Note_on_c, 4, 59, 95
4, 775680, Note_on_c, 4, 54, 95
4, 775680, Note_on_c, 4, 47, 95
4, 779520, Note_off_c, 4, 66, 95
4, 779520, Note_off_c, 4, 63, 95
4, 779520, Note_off_c, 4, 59, 95
4, 779520, Note_off_c, 4, 54, 95
4, 779520, Note_off_c, 4, 47, 95
4, 783360, Note_on_c, 4, 66, 95
4, 783360, Note_on_c, 4, 63, 95
4, 783360, Note_on_c, 4, 59, 95
4, 783360, Note_on_c, 4, 54, 95
4, 783360, Note_on_c, 4, 47, 95
4, 787200, Note_off_c, 4, 66, 95
4, 787200, Note_off_c, 4, 63, 95
4, 787200, Note_off_c, 4, 59, 95
4, 787200, Note_off_c, 4, 54, 95
4, 787200, Note_off_c, 4, 47, 95
4, 791040, Note_on_c, 4, 66, 95
4, 791040, Note_on_c, 4, 64, 95
4, 791040, Note_on_c, 4, 59, 95
4, 791040, Note_on_c, 4, 54, 95
4, 791040, Note_on_c, 4, 47, 95
4, 794880, Note_off_c, 4, 66, 95
4, 794880, Note_off_c, 4, 64, 95
4, 794880, Note_off_c, 4, 59, 95
4, 794880, Note_off_c, 4, 54, 95
4, 794880, Note_off_c, 4, 47, 95
4, 794880, Note_on_c, 4, 66, 95
4, 794880, Note_on_c, 4, 63, 95
4, 794880, Note_on_c, 4, 59, 95
4, 794880, Note_on_c, 4, 54, 95
4, 794880, Note_on_c, 4, 47, 95
4, 798720, Note_off_c, 4, 66, 95
4, 798720, Note_off_c, 4, 63, 95
4, 798720, Note_off_c, 4, 59, 95
4, 798720, Note_off_c, 4, 54, 95
4, 798720, Note_off_c, 4, 47, 95
4, 798720, Note_on_c, 4, 64, 95
4, 798720, Note_on_c, 4, 61, 95
4, 798720, Note_on_c, 4, 57, 95
4, 798720, Note_on_c, 4, 52, 95
4, 798720, Note_on_c, 4, 45, 95
4, 798720, Note_on_c, 4, 40, 95
4, 802560, Note_off_c, 4, 64, 95
4, 802560, Note_off_c, 4, 61, 95
4, 802560, Note_off_c, 4, 57, 95
4, 802560, Note_off_c, 4, 52, 95
4, 802560, Note_off_c, 4, 45, 95
4, 802560, Note_off_c, 4, 40, 95
4, 802560, Note_on_c, 4, 64, 95
4, 802560, Note_on_c, 4, 59, 95
4, 802560, Note_on_c, 4, 56, 95
4, 802560, Note_on_c, 4, 52, 95
4, 802560, Note_on_c, 4, 47, 95
4, 802560, Note_on_c, 4, 40, 95
4, 806400, Note_off_c, 4, 64, 95
4, 806400, Note_off_c, 4, 59, 95
4, 806400, Note_off_c, 4, 56, 95
4, 806400, Note_off_c, 4, 52, 95
4, 806400, Note_off_c, 4, 47, 95
4, 806400, Note_off_c, 4, 40, 95
4, 806400, Note_on_c, 4, 66, 95
4, 806400, Note_on_c, 4, 63, 95
4, 806400, Note_on_c, 4, 59, 95
4, 806400, Note_on_c, 4, 54, 95
4, 806400, Note_on_c, 4, 47, 95
4, 810240, Note_off_c, 4, 66, 95
4, 810240, Note_off_c, 4, 63, 95
4, 810240, Note_off_c, 4, 59, 95
4, 810240, Note_off_c, 4, 54, 95
4, 810240, Note_off_c, 4, 47, 95
4, 814080, Note_on_c, 4, 66, 95
4, 814080, Note_on_c, 4, 64, 95
4, 814080, Note_on_c, 4, 59, 95
4, 814080, Note_on_c, 4, 54, 95
4, 814080, Note_on_c, 4, 47, 95
4, 817920, Note_off_c, 4, 66, 95
4, 817920, Note_off_c, 4, 64, 95
4, 817920, Note_off_c, 4, 59, 95
4, 817920, Note_off_c, 4, 54, 95
4, 817920, Note_off_c, 4, 47, 95
4, 829440, Note_on_c, 4, 64, 95
4, 829440, Note_on_c, 4, 61, 95
4, 829440, Note_on_c, 4, 57, 95
4, 829440, Note_on_c, 4, 52, 95
4, 829440, Note_on_c, 4, 45, 95
4, 829440, Note_on_c, 4, 40, 95
4, 833280, Note_off_c, 4, 64, 95
4, 833280, Note_off_c, 4, 61, 95
4, 833280, Note_off_c, 4, 57, 95
4, 833280, Note_off_c, 4, 52, 95
4, 833280, Note_off_c, 4, 45, 95
4, 833280, Note_off_c, 4, 40, 95
4, 833280, Note_on_c, 4, 64, 95
4, 833280, Note_on_c, 4, 59, 95
4, 833280, Note_on_c, 4, 56, 95
4, 833280, Note_on_c, 4, 52, 95
4, 833280, Note_on_c, 4, 47, 95
4, 833280, Note_on_c, 4, 40, 95
4, 837120, Note_off_c, 4, 64, 95
4, 837120, Note_off_c, 4, 59, 95
4, 837120, Note_off_c, 4, 56, 95
4, 837120, Note_off_c, 4, 52, 95
4, 837120, Note_off_c, 4, 47, 95
4, 837120, Note_off_c, 4, 40, 95
4, 837120, Note_on_c, 4, 66, 95
4, 837120, Note_on_c, 4, 64, 95
4, 837120, Note_on_c, 4, 59, 95
4, 837120, Note_on_c, 4, 54, 95
4, 837120, Note_on_c, 4, 47, 95
4, 840960, Note_off_c, 4, 66, 95
4, 840960, Note_off_c, 4, 64, 95
4, 840960, Note_off_c, 4, 59, 95
4, 840960, Note_off_c, 4, 54, 95
4, 840960, Note_off_c, 4, 47, 95
4, 845280, Note_on_c, 4, 66, 95
4, 845280, Note_on_c, 4, 64, 95
4, 845280, Note_on_c, 4, 59, 95
4, 845280, Note_on_c, 4, 54, 95
4, 845280, Note_on_c, 4, 47, 95
4, 845760, Note_off_c, 4, 66, 95
4, 845760, Note_off_c, 4, 64, 95
4, 845760, Note_off_c, 4, 59, 95
4, 845760, Note_off_c, 4, 54, 95
4, 845760, Note_off_c, 4, 47, 95
4, 845760, Note_on_c, 4, 66, 95
4, 845760, Note_on_c, 4, 64, 95
4, 845760, Note_on_c, 4, 59, 95
4, 845760, Note_on_c, 4, 54, 95
4, 845760, Note_on_c, 4, 47, 95
4, 846480, Note_off_c, 4, 66, 95
4, 846480, Note_off_c, 4, 64, 95
4, 846480, Note_off_c, 4, 59, 95
4, 846480, Note_off_c, 4, 54, 95
4, 846480, Note_off_c, 4, 47, 95
4, 846480, Note_on_c, 4, 66, 95
4, 846480, Note_on_c, 4, 64, 95
4, 846480, Note_on_c, 4, 59, 95
4, 846480, Note_on_c, 4, 54, 95
4, 846480, Note_on_c, 4, 47, 95
4, 846720, Note_off_c, 4, 66, 95
4, 846720, Note_off_c, 4, 64, 95
4, 846720, Note_off_c, 4, 59, 95
4, 846720, Note_off_c, 4, 54, 95
4, 846720, Note_off_c, 4, 47, 95
4, 846720, Note_on_c, 4, 66, 95
4, 846720, Note_on_c, 4, 64, 95
4, 846720, Note_on_c, 4, 59, 95
4, 846720, Note_on_c, 4, 54, 95
4, 847200, Note_off_c, 4, 66, 95
4, 847200, Note_off_c, 4, 64, 95
4, 847200, Note_off_c, 4, 59, 95
4, 847200, Note_off_c, 4, 54, 95
4, 847200, Note_on_c, 4, 66, 95
4, 847200, Note_on_c, 4, 63, 95
4, 847200, Note_on_c, 4, 59, 95
4, 847200, Note_on_c, 4, 54, 95
4, 847680, Note_off_c, 4, 66, 95
4, 847680, Note_off_c, 4, 63, 95
4, 847680, Note_off_c, 4, 59, 95
4, 847680, Note_off_c, 4, 54, 95
4, 847680, Note_on_c, 4, 59, 95
4, 847680, Note_on_c, 4, 54, 95
4, 847680, Note_on_c, 4, 47, 95
4, 848160, Note_off_c, 4, 59, 95
4, 848160, Note_off_c, 4, 54, 95
4, 848160, Note_off_c, 4, 47, 95
4, 848160, Note_on_c, 4, 59, 95
4, 848160, Note_on_c, 4, 54, 95
4, 848160, Note_on_c, 4, 47, 95
4, 849120, Note_off_c, 4, 59, 95
4, 849120, Note_off_c, 4, 54, 95
4, 849120, Note_off_c, 4, 47, 95
4, 849120, Note_on_c, 4, 66, 95
4, 849120, Note_on_c, 4, 64, 95
4, 849120, Note_on_c, 4, 59, 95
4, 849120, Note_on_c, 4, 54, 95
4, 849120, Note_on_c, 4, 47, 95
4, 849600, Note_off_c, 4, 66, 95
4, 849600, Note_off_c, 4, 64, 95
4, 849600, Note_off_c, 4, 59, 95
4, 849600, Note_off_c, 4, 54, 95
4, 849600, Note_off_c, 4, 47, 95
4, 849600, Note_on_c, 4, 66, 95
4, 849600, Note_on_c, 4, 64, 95
4, 849600, Note_on_c, 4, 59, 95
4, 849600, Note_on_c, 4, 54, 95
4, 849600, Note_on_c, 4, 47, 95
4, 850320, Note_off_c, 4, 66, 95
4, 850320, Note_off_c, 4, 64, 95
4, 850320, Note_off_c, 4, 59, 95
4, 850320, Note_off_c, 4, 54, 95
4, 850320, Note_off_c, 4, 47, 95
4, 850320, Note_on_c, 4, 66, 95
4, 850320, Note_on_c, 4, 64, 95
4, 850320, Note_on_c, 4, 59, 95
4, 850320, Note_on_c, 4, 54, 95
4, 850320, Note_on_c, 4, 47, 95
4, 850560, Note_off_c, 4, 66, 95
4, 850560, Note_off_c, 4, 64, 95
4, 850560, Note_off_c, 4, 59, 95
4, 850560, Note_off_c, 4, 54, 95
4, 850560, Note_off_c, 4, 47, 95
4, 850560, Note_on_c, 4, 66, 95
4, 850560, Note_on_c, 4, 64, 95
4, 850560, Note_on_c, 4, 59, 95
4, 850560, Note_on_c, 4, 54, 95
4, 851040, Note_off_c, 4, 66, 95
4, 851040, Note_off_c, 4, 64, 95
4, 851040, Note_off_c, 4, 59, 95
4, 851040, Note_off_c, 4, 54, 95
4, 851040, Note_on_c, 4, 66, 95
4, 851040, Note_on_c, 4, 63, 95
4, 851040, Note_on_c, 4, 59, 95
4, 851040, Note_on_c, 4, 54, 95
4, 851520, Note_off_c, 4, 66, 95
4, 851520, Note_off_c, 4, 63, 95
4, 851520, Note_off_c, 4, 59, 95
4, 851520, Note_off_c, 4, 54, 95
4, 851520, Note_on_c, 4, 59, 95
4, 851520, Note_on_c, 4, 54, 95
4, 851520, Note_on_c, 4, 47, 95
4, 852000, Note_off_c, 4, 59, 95
4, 852000, Note_off_c, 4, 54, 95
4, 852000, Note_off_c, 4, 47, 95
4, 852000, Note_on_c, 4, 59, 95
4, 852000, Note_on_c, 4, 54, 95
4, 852000, Note_on_c, 4, 47, 95
4, 852960, Note_off_c, 4, 59, 95
4, 852960, Note_off_c, 4, 54, 95
4, 852960, Note_off_c, 4, 47, 95
4, 852960, Note_on_c, 4, 66, 95
4, 852960, Note_on_c, 4, 64, 95
4, 852960, Note_on_c, 4, 59, 95
4, 852960, Note_on_c, 4, 54, 95
4, 852960, Note_on_c, 4, 47, 95
4, 853440, Note_off_c, 4, 66, 95
4, 853440, Note_off_c, 4, 64, 95
4, 853440, Note_off_c, 4, 59, 95
4, 853440, Note_off_c, 4, 54, 95
4, 853440, Note_off_c, 4, 47, 95
4, 853440, Note_on_c, 4, 66, 95
4, 853440, Note_on_c, 4, 64, 95
4, 853440, Note_on_c, 4, 59, 95
4, 853440, Note_on_c, 4, 54, 95
4, 853440, Note_on_c, 4, 47, 95
4, 854160, Note_off_c, 4, 66, 95
4, 854160, Note_off_c, 4, 64, 95
4, 854160, Note_off_c, 4, 59, 95
4, 854160, Note_off_c, 4, 54, 95
4, 854160, Note_off_c, 4, 47, 95
4, 854160, Note_on_c, 4, 66, 95
4, 854160, Note_on_c, 4, 64, 95
4, 854160, Note_on_c, 4, 59, 95
4, 854160, Note_on_c, 4, 54, 95
4, 854160, Note_on_c, 4, 47, 95
4, 854400, Note_off_c, 4, 66, 95
4, 854400, Note_off_c, 4, 64, 95
4, 854400, Note_off_c, 4, 59, 95
4, 854400, Note_off_c, 4, 54, 95
4, 854400, Note_off_c, 4, 47, 95
4, 854400, Note_on_c, 4, 66, 95
4, 854400, Note_on_c, 4, 64, 95
4, 854400, Note_on_c, 4, 59, 95
4, 854400, Note_on_c, 4, 54, 95
4, 854880, Note_off_c, 4, 66, 95
4, 854880, Note_off_c, 4, 64, 95
4, 854880, Note_off_c, 4, 59, 95
4, 854880, Note_off_c, 4, 54, 95
4, 854880, Note_on_c, 4, 66, 95
4, 854880, Note_on_c, 4, 63, 95
4, 854880, Note_on_c, 4, 59, 95
4, 854880, Note_on_c, 4, 54, 95
4, 855360, Note_off_c, 4, 66, 95
4, 855360, Note_off_c, 4, 63, 95
4, 855360, Note_off_c, 4, 59, 95
4, 855360, Note_off_c, 4, 54, 95
4, 855360, Note_on_c, 4, 59, 95
4, 855360, Note_on_c, 4, 54, 95
4, 855360, Note_on_c, 4, 47, 95
4, 855840, Note_off_c, 4, 59, 95
4, 855840, Note_off_c, 4, 54, 95
4, 855840, Note_off_c, 4, 47, 95
4, 855840, Note_on_c, 4, 59, 95
4, 855840, Note_on_c, 4, 54, 95
4, 855840, Note_on_c, 4, 47, 95
4, 856800, Note_off_c, 4, 59, 95
4, 856800, Note_off_c, 4, 54, 95
4, 856800, Note_off_c, 4, 47, 95
4, 856800, Note_on_c, 4, 66, 95
4, 856800, Note_on_c, 4, 64, 95
4, 856800, Note_on_c, 4, 59, 95
4, 856800, Note_on_c, 4, 54, 95
4, 856800, Note_on_c, 4, 47, 95
4, 857280, Note_off_c, 4, 66, 95
4, 857280, Note_off_c, 4, 64, 95
4, 857280, Note_off_c, 4, 59, 95
4, 857280, Note_off_c, 4, 54, 95
4, 857280, Note_off_c, 4, 47, 95
4, 857280, Note_on_c, 4, 66, 95
4, 857280, Note_on_c, 4, 64, 95
4, 857280, Note_on_c, 4, 59, 95
4, 857280, Note_on_c, 4, 54, 95
4, 857280, Note_on_c, 4, 47, 95
4, 858000, Note_off_c, 4, 66, 95
4, 858000, Note_off_c, 4, 64, 95
4, 858000, Note_off_c, 4, 59, 95
4, 858000, Note_off_c, 4, 54, 95
4, 858000, Note_off_c, 4, 47, 95
4, 858000, Note_on_c, 4, 66, 95
4, 858000, Note_on_c, 4, 64, 95
4, 858000, Note_on_c, 4, 59, 95
4, 858000, Note_on_c, 4, 54, 95
4, 858000, Note_on_c, 4, 47, 95
4, 858240, Note_off_c, 4, 66, 95
4, 858240, Note_off_c, 4, 64, 95
4, 858240, Note_off_c, 4, 59, 95
4, 858240, Note_off_c, 4, 54, 95
4, 858240, Note_off_c, 4, 47, 95
4, 858240, Note_on_c, 4, 66, 95
4, 858240, Note_on_c, 4, 64, 95
4, 858240, Note_on_c, 4, 59, 95
4, 858240, Note_on_c, 4, 54, 95
4, 858720, Note_off_c, 4, 66, 95
4, 858720, Note_off_c, 4, 64, 95
4, 858720, Note_off_c, 4, 59, 95
4, 858720, Note_off_c, 4, 54, 95
4, 858720, Note_on_c, 4, 66, 95
4, 858720, Note_on_c, 4, 63, 95
4, 858720, Note_on_c, 4, 59, 95
4, 858720, Note_on_c, 4, 54, 95
4, 859200, Note_off_c, 4, 66, 95
4, 859200, Note_off_c, 4, 63, 95
4, 859200, Note_off_c, 4, 59, 95
4, 859200, Note_off_c, 4, 54, 95
4, 859200, Note_on_c, 4, 59, 95
4, 859200, Note_on_c, 4, 54, 95
4, 859200, Note_on_c, 4, 47, 95
4, 859680, Note_off_c, 4, 59, 95
4, 859680, Note_off_c, 4, 54, 95
4, 859680, Note_off_c, 4, 47, 95
4, 859680, Note_on_c, 4, 64, 95
4, 859680, Note_on_c, 4, 61, 95
4, 859680, Note_on_c, 4, 57, 95
4, 859680, Note_on_c, 4, 52, 95
4, 859680, Note_on_c, 4, 45, 95
4, 860640, Note_off_c, 4, 64, 95
4, 860640, Note_off_c, 4, 61, 95
4, 860640, Note_off_c, 4, 57, 95
4, 860640, Note_off_c, 4, 52, 95
4, 860640, Note_off_c, 4, 45, 95
4, 860640, Note_on_c, 4, 64, 95
4, 860640, Note_on_c, 4, 61, 95
4, 860640, Note_on_c, 4, 57, 95
4, 860640, Note_on_c, 4, 52, 95
4, 860640, Note_on_c, 4, 45, 95
4, 861120, Note_off_c, 4, 64, 95
4, 861120, Note_off_c, 4, 61, 95
4, 861120, Note_off_c, 4, 57, 95
4, 861120, Note_off_c, 4, 52, 95
4, 861120, Note_off_c, 4, 45, 95
4, 861120, Note_on_c, 4, 64, 95
4, 861120, Note_on_c, 4, 61, 95
4, 861120, Note_on_c, 4, 57, 95
4, 861120, Note_on_c, 4, 52, 95
4, 861120, Note_on_c, 4, 45, 95
4, 861840, Note_off_c, 4, 64, 95
4, 861840, Note_off_c, 4, 61, 95
4, 861840, Note_off_c, 4, 57, 95
4, 861840, Note_off_c, 4, 52, 95
4, 861840, Note_off_c, 4, 45, 95
4, 861840, Note_on_c, 4, 64, 95
4, 861840, Note_on_c, 4, 61, 95
4, 861840, Note_on_c, 4, 57, 95
4, 861840, Note_on_c, 4, 52, 95
4, 861840, Note_on_c, 4, 45, 95
4, 862080, Note_off_c, 4, 64, 95
4, 862080, Note_off_c, 4, 61, 95
4, 862080, Note_off_c, 4, 57, 95
4, 862080, Note_off_c, 4, 52, 95
4, 862080, Note_off_c, 4, 45, 95
4, 862080, Note_on_c, 4, 64, 95
4, 862080, Note_on_c, 4, 61, 95
4, 862080, Note_on_c, 4, 57, 95
4, 862080, Note_on_c, 4, 52, 95
4, 862080, Note_on_c, 4, 45, 95
4, 862560, Note_off_c, 4, 64, 95
4, 862560, Note_off_c, 4, 61, 95
4, 862560, Note_off_c, 4, 57, 95
4, 862560, Note_off_c, 4, 52, 95
4, 862560, Note_off_c, 4, 45, 95
4, 862560, Note_on_c, 4, 64, 95
4, 862560, Note_on_c, 4, 61, 95
4, 862560, Note_on_c, 4, 57, 95
4, 862560, Note_on_c, 4, 52, 95
4, 862560, Note_on_c, 4, 45, 95
4, 863040, Note_off_c, 4, 64, 95
4, 863040, Note_off_c, 4, 61, 95
4, 863040, Note_off_c, 4, 57, 95
4, 863040, Note_off_c, 4, 52, 95
4, 863040, Note_off_c, 4, 45, 95
4, 863040, Note_on_c, 4, 64, 95
4, 863040, Note_on_c, 4, 61, 95
4, 863040, Note_on_c, 4, 57, 95
4, 863040, Note_on_c, 4, 52, 95
4, 863040, Note_on_c, 4, 45, 95
4, 863520, Note_off_c, 4, 64, 95
4, 863520, Note_off_c, 4, 61, 95
4, 863520, Note_off_c, 4, 57, 95
4, 863520, Note_off_c, 4, 52, 95
4, 863520, Note_off_c, 4, 45, 95
4, 863520, Note_on_c, 4, 64, 95
4, 863520, Note_on_c, 4, 59, 95
4, 863520, Note_on_c, 4, 56, 95
4, 863520, Note_on_c, 4, 52, 95
4, 863520, Note_on_c, 4, 47, 95
4, 863520, Note_on_c, 4, 40, 95
4, 864480, Note_off_c, 4, 64, 95
4, 864480, Note_off_c, 4, 59, 95
4, 864480, Note_off_c, 4, 56, 95
4, 864480, Note_off_c, 4, 52, 95
4, 864480, Note_off_c, 4, 47, 95
4, 864480, Note_off_c, 4, 40, 95
4, 864480, Note_on_c, 4, 64, 95
4, 864480, Note_on_c, 4, 59, 95
4, 864480, Note_on_c, 4, 56, 95
4, 864480, Note_on_c, 4, 52, 95
4, 864480, Note_on_c, 4, 47, 95
4, 864480, Note_on_c, 4, 40, 95
4, 864960, Note_off_c, 4, 64, 95
4, 864960, Note_off_c, 4, 59, 95
4, 864960, Note_off_c, 4, 56, 95
4, 864960, Note_off_c, 4, 52, 95
4, 864960, Note_off_c, 4, 47, 95
4, 864960, Note_off_c, 4, 40, 95
4, 864960, Note_on_c, 4, 64, 95
4, 864960, Note_on_c, 4, 59, 95
4, 864960, Note_on_c, 4, 56, 95
4, 864960, Note_on_c, 4, 52, 95
4, 864960, Note_on_c, 4, 47, 95
4, 864960, Note_on_c, 4, 40, 95
4, 865920, Note_off_c, 4, 64, 95
4, 865920, Note_off_c, 4, 59, 95
4, 865920, Note_off_c, 4, 56, 95
4, 865920, Note_off_c, 4, 52, 95
4, 865920, Note_off_c, 4, 47, 95
4, 865920, Note_off_c, 4, 40, 95
4, 865920, Note_on_c, 4, 64, 95
4, 865920, Note_on_c, 4, 59, 95
4, 865920, Note_on_c, 4, 56, 95
4, 865920, Note_on_c, 4, 52, 95
4, 865920, Note_on_c, 4, 47, 95
4, 865920, Note_on_c, 4, 40, 95
4, 866400, Note_off_c, 4, 64, 95
4, 866400, Note_off_c, 4, 59, 95
4, 866400, Note_off_c, 4, 56, 95
4, 866400, Note_off_c, 4, 52, 95
4, 866400, Note_off_c, 4, 47, 95
4, 866400, Note_off_c, 4, 40, 95
4, 866400, Note_on_c, 4, 64, 95
4, 866400, Note_on_c, 4, 59, 95
4, 866400, Note_on_c, 4, 56, 95
4, 866400, Note_on_c, 4, 52, 95
4, 866400, Note_on_c, 4, 47, 95
4, 866400, Note_on_c, 4, 40, 95
4, 866880, Note_off_c, 4, 64, 95
4, 866880, Note_off_c, 4, 59, 95
4, 866880, Note_off_c, 4, 56, 95
4, 866880, Note_off_c, 4, 52, 95
4, 866880, Note_off_c, 4, 47, 95
4, 866880, Note_off_c, 4, 40, 95
4, 866880, Note_on_c, 4, 64, 95
4, 866880, Note_on_c, 4, 59, 95
4, 866880, Note_on_c, 4, 56, 95
4, 866880, Note_on_c, 4, 52, 95
4, 866880, Note_on_c, 4, 47, 95
4, 866880, Note_on_c, 4, 40, 95
4, 867360, Note_off_c, 4, 64, 95
4, 867360, Note_off_c, 4, 59, 95
4, 867360, Note_off_c, 4, 56, 95
4, 867360, Note_off_c, 4, 52, 95
4, 867360, Note_off_c, 4, 47, 95
4, 867360, Note_off_c, 4, 40, 95
4, 867360, Note_on_c, 4, 59, 95
4, 867360, Note_on_c, 4, 54, 95
4, 867360, Note_on_c, 4, 47, 95
4, 868320, Note_off_c, 4, 59, 95
4, 868320, Note_off_c, 4, 54, 95
4, 868320, Note_off_c, 4, 47, 95
4, 868320, Note_on_c, 4, 66, 95
4, 868320, Note_on_c, 4, 64, 95
4, 868320, Note_on_c, 4, 59, 95
4, 868320, Note_on_c, 4, 54, 95
4, 868320, Note_on_c, 4, 47, 95
4, 868800, Note_off_c, 4, 66, 95
4, 868800, Note_off_c, 4, 64, 95
4, 868800, Note_off_c, 4, 59, 95
4, 868800, Note_off_c, 4, 54, 95
4, 868800, Note_off_c, 4, 47, 95
4, 868800, Note_on_c, 4, 66, 95
4, 868800, Note_on_c, 4, 64, 95
4, 868800, Note_on_c, 4, 59, 95
4, 868800, Note_on_c, 4, 54, 95
4, 868800, Note_on_c, 4, 47, 95
4, 869520, Note_off_c, 4, 66, 95
4, 869520, Note_off_c, 4, 64, 95
4, 869520, Note_off_c, 4, 59, 95
4, 869520, Note_off_c, 4, 54, 95
4, 869520, Note_off_c, 4, 47, 95
4, 869520, Note_on_c, 4, 66, 95
4, 869520, Note_on_c, 4, 64, 95
4, 869520, Note_on_c, 4, 59, 95
4, 869520, Note_on_c, 4, 54, 95
4, 869520, Note_on_c, 4, 47, 95
4, 869760, Note_off_c, 4, 66, 95
4, 869760, Note_off_c, 4, 64, 95
4, 869760, Note_off_c, 4, 59, 95
4, 869760, Note_off_c, 4, 54, 95
4, 869760, Note_off_c, 4, 47, 95
4, 869760, Note_on_c, 4, 66, 95
4, 869760, Note_on_c, 4, 64, 95
4, 869760, Note_on_c, 4, 59, 95
4, 869760, Note_on_c, 4, 54, 95
4, 870240, Note_off_c, 4, 66, 95
4, 870240, Note_off_c, 4, 64, 95
4, 870240, Note_off_c, 4, 59, 95
4, 870240, Note_off_c, 4, 54, 95
4, 870240, Note_on_c, 4, 66, 95
4, 870240, Note_on_c, 4, 63, 95
4, 870240, Note_on_c, 4, 59, 95
4, 870240, Note_on_c, 4, 54, 95
4, 870720, Note_off_c, 4, 66, 95
4, 870720, Note_off_c, 4, 63, 95
4, 870720, Note_off_c, 4, 59, 95
4, 870720, Note_off_c, 4, 54, 95
4, 870720, Note_on_c, 4, 59, 95
4, 870720, Note_on_c, 4, 54, 95
4, 870720, Note_on_c, 4, 47, 95
4, 871200, Note_off_c, 4, 59, 95
4, 871200, Note_off_c, 4, 54, 95
4, 871200, Note_off_c, 4, 47, 95
4, 871200, Note_on_c, 4, 59, 95
4, 871200, Note_on_c, 4, 54, 95
4, 871200, Note_on_c, 4, 47, 95
4, 872160, Note_off_c, 4, 59, 95
4, 872160, Note_off_c, 4, 54, 95
4, 872160, Note_off_c, 4, 47, 95
4, 872160, Note_on_c, 4, 66, 95
4, 872160, Note_on_c, 4, 64, 95
4, 872160, Note_on_c, 4, 59, 95
4, 872160, Note_on_c, 4, 54, 95
4, 872160, Note_on_c, 4, 47, 95
4, 872640, Note_off_c, 4, 66, 95
4, 872640, Note_off_c, 4, 64, 95
4, 872640, Note_off_c, 4, 59, 95
4, 872640, Note_off_c, 4, 54, 95
4, 872640, Note_off_c, 4, 47, 95
4, 872640, Note_on_c, 4, 66, 95
4, 872640, Note_on_c, 4, 64, 95
4, 872640, Note_on_c, 4, 59, 95
4, 872640, Note_on_c, 4, 54, 95
4, 872640, Note_on_c, 4, 47, 95
4, 873360, Note_off_c, 4, 66, 95
4, 873360, Note_off_c, 4, 64, 95
4, 873360, Note_off_c, 4, 59, 95
4, 873360, Note_off_c, 4, 54, 95
4, 873360, Note_off_c, 4, 47, 95
4, 873360, Note_on_c, 4, 66, 95
4, 873360, Note_on_c, 4, 64, 95
4, 873360, Note_on_c, 4, 59, 95
4, 873360, Note_on_c, 4, 54, 95
4, 873360, Note_on_c, 4, 47, 95
4, 873600, Note_off_c, 4, 66, 95
4, 873600, Note_off_c, 4, 64, 95
4, 873600, Note_off_c, 4, 59, 95
4, 873600, Note_off_c, 4, 54, 95
4, 873600, Note_off_c, 4, 47, 95
4, 873600, Note_on_c, 4, 66, 95
4, 873600, Note_on_c, 4, 64, 95
4, 873600, Note_on_c, 4, 59, 95
4, 873600, Note_on_c, 4, 54, 95
4, 874080, Note_off_c, 4, 66, 95
4, 874080, Note_off_c, 4, 64, 95
4, 874080, Note_off_c, 4, 59, 95
4, 874080, Note_off_c, 4, 54, 95
4, 874080, Note_on_c, 4, 66, 95
4, 874080, Note_on_c, 4, 63, 95
4, 874080, Note_on_c, 4, 59, 95
4, 874080, Note_on_c, 4, 54, 95
4, 874560, Note_off_c, 4, 66, 95
4, 874560, Note_off_c, 4, 63, 95
4, 874560, Note_off_c, 4, 59, 95
4, 874560, Note_off_c, 4, 54, 95
4, 874560, Note_on_c, 4, 59, 95
4, 874560, Note_on_c, 4, 54, 95
4, 874560, Note_on_c, 4, 47, 95
4, 875040, Note_off_c, 4, 59, 95
4, 875040, Note_off_c, 4, 54, 95
4, 875040, Note_off_c, 4, 47, 95
4, 875040, Note_on_c, 4, 59, 95
4, 875040, Note_on_c, 4, 54, 95
4, 875040, Note_on_c, 4, 47, 95
4, 876000, Note_off_c, 4, 59, 95
4, 876000, Note_off_c, 4, 54, 95
4, 876000, Note_off_c, 4, 47, 95
4, 876000, Note_on_c, 4, 66, 95
4, 876000, Note_on_c, 4, 64, 95
4, 876000, Note_on_c, 4, 59, 95
4, 876000, Note_on_c, 4, 54, 95
4, 876000, Note_on_c, 4, 47, 95
4, 876480, Note_off_c, 4, 66, 95
4, 876480, Note_off_c, 4, 64, 95
4, 876480, Note_off_c, 4, 59, 95
4, 876480, Note_off_c, 4, 54, 95
4, 876480, Note_off_c, 4, 47, 95
4, 876480, Note_on_c, 4, 66, 95
4, 876480, Note_on_c, 4, 64, 95
4, 876480, Note_on_c, 4, 59, 95
4, 876480, Note_on_c, 4, 54, 95
4, 876480, Note_on_c, 4, 47, 95
4, 877200, Note_off_c, 4, 66, 95
4, 877200, Note_off_c, 4, 64, 95
4, 877200, Note_off_c, 4, 59, 95
4, 877200, Note_off_c, 4, 54, 95
4, 877200, Note_off_c, 4, 47, 95
4, 877200, Note_on_c, 4, 66, 95
4, 877200, Note_on_c, 4, 64, 95
4, 877200, Note_on_c, 4, 59, 95
4, 877200, Note_on_c, 4, 54, 95
4, 877200, Note_on_c, 4, 47, 95
4, 877440, Note_off_c, 4, 66, 95
4, 877440, Note_off_c, 4, 64, 95
4, 877440, Note_off_c, 4, 59, 95
4, 877440, Note_off_c, 4, 54, 95
4, 877440, Note_off_c, 4, 47, 95
4, 877440, Note_on_c, 4, 66, 95
4, 877440, Note_on_c, 4, 64, 95
4, 877440, Note_on_c, 4, 59, 95
4, 877440, Note_on_c, 4, 54, 95
4, 877920, Note_off_c, 4, 66, 95
4, 877920, Note_off_c, 4, 64, 95
4, 877920, Note_off_c, 4, 59, 95
4, 877920, Note_off_c, 4, 54, 95
4, 877920, Note_on_c, 4, 66, 95
4, 877920, Note_on_c, 4, 63, 95
4, 877920, Note_on_c, 4, 59, 95
4, 877920, Note_on_c, 4, 54, 95
4, 878400, Note_off_c, 4, 66, 95
4, 878400, Note_off_c, 4, 63, 95
4, 878400, Note_off_c, 4, 59, 95
4, 878400, Note_off_c, 4, 54, 95
4, 878400, Note_on_c, 4, 59, 95
4, 878400, Note_on_c, 4, 54, 95
4, 878400, Note_on_c, 4, 47, 95
4, 878880, Note_off_c, 4, 59, 95
4, 878880, Note_off_c, 4, 54, 95
4, 878880, Note_off_c, 4, 47, 95
4, 878880, Note_on_c, 4, 59, 95
4, 878880, Note_on_c, 4, 54, 95
4, 878880, Note_on_c, 4, 47, 95
4, 879840, Note_off_c, 4, 59, 95
4, 879840, Note_off_c, 4, 54, 95
4, 879840, Note_off_c, 4, 47, 95
4, 879840, Note_on_c, 4, 66, 95
4, 879840, Note_on_c, 4, 64, 95
4, 879840, Note_on_c, 4, 59, 95
4, 879840, Note_on_c, 4, 54, 95
4, 879840, Note_on_c, 4, 47, 95
4, 880320, Note_off_c, 4, 66, 95
4, 880320, Note_off_c, 4, 64, 95
4, 880320, Note_off_c, 4, 59, 95
4, 880320, Note_off_c, 4, 54, 95
4, 880320, Note_off_c, 4, 47, 95
4, 880320, Note_on_c, 4, 66, 95
4, 880320, Note_on_c, 4, 64, 95
4, 880320, Note_on_c, 4, 59, 95
4, 880320, Note_on_c, 4, 54, 95
4, 880320, Note_on_c, 4, 47, 95
4, 881040, Note_off_c, 4, 66, 95
4, 881040, Note_off_c, 4, 64, 95
4, 881040, Note_off_c, 4, 59, 95
4, 881040, Note_off_c, 4, 54, 95
4, 881040, Note_off_c, 4, 47, 95
4, 881040, Note_on_c, 4, 66, 95
4, 881040, Note_on_c, 4, 64, 95
4, 881040, Note_on_c, 4, 59, 95
4, 881040, Note_on_c, 4, 54, 95
4, 881040, Note_on_c, 4, 47, 95
4, 881280, Note_off_c, 4, 66, 95
4, 881280, Note_off_c, 4, 64, 95
4, 881280, Note_off_c, 4, 59, 95
4, 881280, Note_off_c, 4, 54, 95
4, 881280, Note_off_c, 4, 47, 95
4, 881280, Note_on_c, 4, 66, 95
4, 881280, Note_on_c, 4, 64, 95
4, 881280, Note_on_c, 4, 59, 95
4, 881280, Note_on_c, 4, 54, 95
4, 881760, Note_off_c, 4, 66, 95
4, 881760, Note_off_c, 4, 64, 95
4, 881760, Note_off_c, 4, 59, 95
4, 881760, Note_off_c, 4, 54, 95
4, 881760, Note_on_c, 4, 66, 95
4, 881760, Note_on_c, 4, 63, 95
4, 881760, Note_on_c, 4, 59, 95
4, 881760, Note_on_c, 4, 54, 95
4, 882240, Note_off_c, 4, 66, 95
4, 882240, Note_off_c, 4, 63, 95
4, 882240, Note_off_c, 4, 59, 95
4, 882240, Note_off_c, 4, 54, 95
4, 882240, Note_on_c, 4, 59, 95
4, 882240, Note_on_c, 4, 54, 95
4, 882240, Note_on_c, 4, 47, 95
4, 882720, Note_off_c, 4, 59, 95
4, 882720, Note_off_c, 4, 54, 95
4, 882720, Note_off_c, 4, 47, 95
4, 882720, Note_on_c, 4, 59, 95
4, 882720, Note_on_c, 4, 54, 95
4, 882720, Note_on_c, 4, 47, 95
4, 883680, Note_off_c, 4, 59, 95
4, 883680, Note_off_c, 4, 54, 95
4, 883680, Note_off_c, 4, 47, 95
4, 883680, Note_on_c, 4, 66, 95
4, 883680, Note_on_c, 4, 64, 95
4, 883680, Note_on_c, 4, 59, 95
4, 883680, Note_on_c, 4, 54, 95
4, 883680, Note_on_c, 4, 47, 95
4, 884160, Note_off_c, 4, 66, 95
4, 884160, Note_off_c, 4, 64, 95
4, 884160, Note_off_c, 4, 59, 95
4, 884160, Note_off_c, 4, 54, 95
4, 884160, Note_off_c, 4, 47, 95
4, 884160, Note_on_c, 4, 66, 95
4, 884160, Note_on_c, 4, 64, 95
4, 884160, Note_on_c, 4, 59, 95
4, 884160, Note_on_c, 4, 54, 95
4, 884160, Note_on_c, 4, 47, 95
4, 884880, Note_off_c, 4, 66, 95
4, 884880, Note_off_c, 4, 64, 95
4, 884880, Note_off_c, 4, 59, 95
4, 884880, Note_off_c, 4, 54, 95
4, 884880, Note_off_c, 4, 47, 95
4, 884880, Note_on_c, 4, 66, 95
4, 884880, Note_on_c, 4, 64, 95
4, 884880, Note_on_c, 4, 59, 95
4, 884880, Note_on_c, 4, 54, 95
4, 884880, Note_on_c, 4, 47, 95
4, 885120, Note_off_c, 4, 66, 95
4, 885120, Note_off_c, 4, 64, 95
4, 885120, Note_off_c, 4, 59, 95
4, 885120, Note_off_c, 4, 54, 95
4, 885120, Note_off_c, 4, 47, 95
4, 885120, Note_on_c, 4, 66, 95
4, 885120, Note_on_c, 4, 64, 95
4, 885120, Note_on_c, 4, 59, 95
4, 885120, Note_on_c, 4, 54, 95
4, 885600, Note_off_c, 4, 66, 95
4, 885600, Note_off_c, 4, 64, 95
4, 885600, Note_off_c, 4, 59, 95
4, 885600, Note_off_c, 4, 54, 95
4, 885600, Note_on_c, 4, 66, 95
4, 885600, Note_on_c, 4, 63, 95
4, 885600, Note_on_c, 4, 59, 95
4, 885600, Note_on_c, 4, 54, 95
4, 886080, Note_off_c, 4, 66, 95
4, 886080, Note_off_c, 4, 63, 95
4, 886080, Note_off_c, 4, 59, 95
4, 886080, Note_off_c, 4, 54, 95
4, 886080, Note_on_c, 4, 59, 95
4, 886080, Note_on_c, 4, 54, 95
4, 886080, Note_on_c, 4, 47, 95
4, 886560, Note_off_c, 4, 59, 95
4, 886560, Note_off_c, 4, 54, 95
4, 886560, Note_off_c, 4, 47, 95
4, 886560, Note_on_c, 4, 59, 95
4, 886560, Note_on_c, 4, 54, 95
4, 886560, Note_on_c, 4, 47, 95
4, 887520, Note_off_c, 4, 59, 95
4, 887520, Note_off_c, 4, 54, 95
4, 887520, Note_off_c, 4, 47, 95
4, 887520, Note_on_c, 4, 66, 95
4, 887520, Note_on_c, 4, 64, 95
4, 887520, Note_on_c, 4, 59, 95
4, 887520, Note_on_c, 4, 54, 95
4, 887520, Note_on_c, 4, 47, 95
4, 888000, Note_off_c, 4, 66, 95
4, 888000, Note_off_c, 4, 64, 95
4, 888000, Note_off_c, 4, 59, 95
4, 888000, Note_off_c, 4, 54, 95
4, 888000, Note_off_c, 4, 47, 95
4, 888000, Note_on_c, 4, 66, 95
4, 888000, Note_on_c, 4, 64, 95
4, 888000, Note_on_c, 4, 59, 95
4, 888000, Note_on_c, 4, 54, 95
4, 888000, Note_on_c, 4, 47, 95
4, 888720, Note_off_c, 4, 66, 95
4, 888720, Note_off_c, 4, 64, 95
4, 888720, Note_off_c, 4, 59, 95
4, 888720, Note_off_c, 4, 54, 95
4, 888720, Note_off_c, 4, 47, 95
4, 888720, Note_on_c, 4, 66, 95
4, 888720, Note_on_c, 4, 64, 95
4, 888720, Note_on_c, 4, 59, 95
4, 888720, Note_on_c, 4, 54, 95
4, 888720, Note_on_c, 4, 47, 95
4, 888960, Note_off_c, 4, 66, 95
4, 888960, Note_off_c, 4, 64, 95
4, 888960, Note_off_c, 4, 59, 95
4, 888960, Note_off_c, 4, 54, 95
4, 888960, Note_off_c, 4, 47, 95
4, 888960, Note_on_c, 4, 66, 95
4, 888960, Note_on_c, 4, 64, 95
4, 888960, Note_on_c, 4, 59, 95
4, 888960, Note_on_c, 4, 54, 95
4, 889440, Note_off_c, 4, 66, 95
4, 889440, Note_off_c, 4, 64, 95
4, 889440, Note_off_c, 4, 59, 95
4, 889440, Note_off_c, 4, 54, 95
4, 889440, Note_on_c, 4, 66, 95
4, 889440, Note_on_c, 4, 63, 95
4, 889440, Note_on_c, 4, 59, 95
4, 889440, Note_on_c, 4, 54, 95
4, 889920, Note_off_c, 4, 66, 95
4, 889920, Note_off_c, 4, 63, 95
4, 889920, Note_off_c, 4, 59, 95
4, 889920, Note_off_c, 4, 54, 95
4, 889920, Note_on_c, 4, 59, 95
4, 889920, Note_on_c, 4, 54, 95
4, 889920, Note_on_c, 4, 47, 95
4, 890400, Note_off_c, 4, 59, 95
4, 890400, Note_off_c, 4, 54, 95
4, 890400, Note_off_c, 4, 47, 95
4, 890400, Note_on_c, 4, 64, 95
4, 890400, Note_on_c, 4, 61, 95
4, 890400, Note_on_c, 4, 57, 95
4, 890400, Note_on_c, 4, 52, 95
4, 890400, Note_on_c, 4, 45, 95
4, 891360, Note_off_c, 4, 64, 95
4, 891360, Note_off_c, 4, 61, 95
4, 891360, Note_off_c, 4, 57, 95
4, 891360, Note_off_c, 4, 52, 95
4, 891360, Note_off_c, 4, 45, 95
4, 891360, Note_on_c, 4, 64, 95
4, 891360, Note_on_c, 4, 61, 95
4, 891360, Note_on_c, 4, 57, 95
4, 891360, Note_on_c, 4, 52, 95
4, 891360, Note_on_c, 4, 45, 95
4, 891840, Note_off_c, 4, 64, 95
4, 891840, Note_off_c, 4, 61, 95
4, 891840, Note_off_c, 4, 57, 95
4, 891840, Note_off_c, 4, 52, 95
4, 891840, Note_off_c, 4, 45, 95
4, 891840, Note_on_c, 4, 64, 95
4, 891840, Note_on_c, 4, 61, 95
4, 891840, Note_on_c, 4, 57, 95
4, 891840, Note_on_c, 4, 52, 95
4, 891840, Note_on_c, 4, 45, 95
4, 892560, Note_off_c, 4, 64, 95
4, 892560, Note_off_c, 4, 61, 95
4, 892560, Note_off_c, 4, 57, 95
4, 892560, Note_off_c, 4, 52, 95
4, 892560, Note_off_c, 4, 45, 95
4, 892560, Note_on_c, 4, 64, 95
4, 892560, Note_on_c, 4, 61, 95
4, 892560, Note_on_c, 4, 57, 95
4, 892560, Note_on_c, 4, 52, 95
4, 892560, Note_on_c, 4, 45, 95
4, 892800, Note_off_c, 4, 64, 95
4, 892800, Note_off_c, 4, 61, 95
4, 892800, Note_off_c, 4, 57, 95
4, 892800, Note_off_c, 4, 52, 95
4, 892800, Note_off_c, 4, 45, 95
4, 892800, Note_on_c, 4, 64, 95
4, 892800, Note_on_c, 4, 61, 95
4, 892800, Note_on_c, 4, 57, 95
4, 892800, Note_on_c, 4, 52, 95
4, 892800, Note_on_c, 4, 45, 95
4, 893280, Note_off_c, 4, 64, 95
4, 893280, Note_off_c, 4, 61, 95
4, 893280, Note_off_c, 4, 57, 95
4, 893280, Note_off_c, 4, 52, 95
4, 893280, Note_off_c, 4, 45, 95
4, 893280, Note_on_c, 4, 64, 95
4, 893280, Note_on_c, 4, 61, 95
4, 893280, Note_on_c, 4, 57, 95
4, 893280, Note_on_c, 4, 52, 95
4, 893280, Note_on_c, 4, 45, 95
4, 893760, Note_off_c, 4, 64, 95
4, 893760, Note_off_c, 4, 61, 95
4, 893760, Note_off_c, 4, 57, 95
4, 893760, Note_off_c, 4, 52, 95
4, 893760, Note_off_c, 4, 45, 95
4, 893760, Note_on_c, 4, 64, 95
4, 893760, Note_on_c, 4, 61, 95
4, 893760, Note_on_c, 4, 57, 95
4, 893760, Note_on_c, 4, 52, 95
4, 893760, Note_on_c, 4, 45, 95
4, 894240, Note_off_c, 4, 64, 95
4, 894240, Note_off_c, 4, 61, 95
4, 894240, Note_off_c, 4, 57, 95
4, 894240, Note_off_c, 4, 52, 95
4, 894240, Note_off_c, 4, 45, 95
4, 894240, Note_on_c, 4, 64, 95
4, 894240, Note_on_c, 4, 59, 95
4, 894240, Note_on_c, 4, 56, 95
4, 894240, Note_on_c, 4, 52, 95
4, 894240, Note_on_c, 4, 47, 95
4, 894240, Note_on_c, 4, 40, 95
4, 895200, Note_off_c, 4, 64, 95
4, 895200, Note_off_c, 4, 59, 95
4, 895200, Note_off_c, 4, 56, 95
4, 895200, Note_off_c, 4, 52, 95
4, 895200, Note_off_c, 4, 47, 95
4, 895200, Note_off_c, 4, 40, 95
4, 895200, Note_on_c, 4, 64, 95
4, 895200, Note_on_c, 4, 59, 95
4, 895200, Note_on_c, 4, 56, 95
4, 895200, Note_on_c, 4, 52, 95
4, 895200, Note_on_c, 4, 47, 95
4, 895200, Note_on_c, 4, 40, 95
4, 895680, Note_off_c, 4, 64, 95
4, 895680, Note_off_c, 4, 59, 95
4, 895680, Note_off_c, 4, 56, 95
4, 895680, Note_off_c, 4, 52, 95
4, 895680, Note_off_c, 4, 47, 95
4, 895680, Note_off_c, 4, 40, 95
4, 895680, Note_on_c, 4, 64, 95
4, 895680, Note_on_c, 4, 59, 95
4, 895680, Note_on_c, 4, 56, 95
4, 895680, Note_on_c, 4, 52, 95
4, 895680, Note_on_c, 4, 47, 95
4, 895680, Note_on_c, 4, 40, 95
4, 896640, Note_off_c, 4, 64, 95
4, 896640, Note_off_c, 4, 59, 95
4, 896640, Note_off_c, 4, 56, 95
4, 896640, Note_off_c, 4, 52, 95
4, 896640, Note_off_c, 4, 47, 95
4, 896640, Note_off_c, 4, 40, 95
4, 896640, Note_on_c, 4, 64, 95
4, 896640, Note_on_c, 4, 59, 95
4, 896640, Note_on_c, 4, 56, 95
4, 896640, Note_on_c, 4, 52, 95
4, 896640, Note_on_c, 4, 47, 95
4, 896640, Note_on_c, 4, 40, 95
4, 897120, Note_off_c, 4, 64, 95
4, 897120, Note_off_c, 4, 59, 95
4, 897120, Note_off_c, 4, 56, 95
4, 897120, Note_off_c, 4, 52, 95
4, 897120, Note_off_c, 4, 47, 95
4, 897120, Note_off_c, 4, 40, 95
4, 897120, Note_on_c, 4, 64, 95
4, 897120, Note_on_c, 4, 59, 95
4, 897120, Note_on_c, 4, 56, 95
4, 897120, Note_on_c, 4, 52, 95
4, 897120, Note_on_c, 4, 47, 95
4, 897120, Note_on_c, 4, 40, 95
4, 897600, Note_off_c, 4, 64, 95
4, 897600, Note_off_c, 4, 59, 95
4, 897600, Note_off_c, 4, 56, 95
4, 897600, Note_off_c, 4, 52, 95
4, 897600, Note_off_c, 4, 47, 95
4, 897600, Note_off_c, 4, 40, 95
4, 897600, Note_on_c, 4, 64, 95
4, 897600, Note_on_c, 4, 59, 95
4, 897600, Note_on_c, 4, 56, 95
4, 897600, Note_on_c, 4, 52, 95
4, 897600, Note_on_c, 4, 47, 95
4, 897600, Note_on_c, 4, 40, 95
4, 898080, Note_off_c, 4, 64, 95
4, 898080, Note_off_c, 4, 59, 95
4, 898080, Note_off_c, 4, 56, 95
4, 898080, Note_off_c, 4, 52, 95
4, 898080, Note_off_c, 4, 47, 95
4, 898080, Note_off_c, 4, 40, 95
4, 898080, Note_on_c, 4, 59, 95
4, 898080, Note_on_c, 4, 54, 95
4, 898080, Note_on_c, 4, 47, 95
4, 899040, Note_off_c, 4, 59, 95
4, 899040, Note_off_c, 4, 54, 95
4, 899040, Note_off_c, 4, 47, 95
4, 899040, Note_on_c, 4, 66, 95
4, 899040, Note_on_c, 4, 64, 95
4, 899040, Note_on_c, 4, 59, 95
4, 899040, Note_on_c, 4, 54, 95
4, 899040, Note_on_c, 4, 47, 95
4, 899520, Note_off_c, 4, 66, 95
4, 899520, Note_off_c, 4, 64, 95
4, 899520, Note_off_c, 4, 59, 95
4, 899520, Note_off_c, 4, 54, 95
4, 899520, Note_off_c, 4, 47, 95
4, 899520, Note_on_c, 4, 66, 95
4, 899520, Note_on_c, 4, 64, 95
4, 899520, Note_on_c, 4, 59, 95
4, 899520, Note_on_c, 4, 54, 95
4, 899520, Note_on_c, 4, 47, 95
4, 900240, Note_off_c, 4, 66, 95
4, 900240, Note_off_c, 4, 64, 95
4, 900240, Note_off_c, 4, 59, 95
4, 900240, Note_off_c, 4, 54, 95
4, 900240, Note_off_c, 4, 47, 95
4, 900240, Note_on_c, 4, 66, 95
4, 900240, Note_on_c, 4, 64, 95
4, 900240, Note_on_c, 4, 59, 95
4, 900240, Note_on_c, 4, 54, 95
4, 900240, Note_on_c, 4, 47, 95
4, 900480, Note_off_c, 4, 66, 95
4, 900480, Note_off_c, 4, 64, 95
4, 900480, Note_off_c, 4, 59, 95
4, 900480, Note_off_c, 4, 54, 95
4, 900480, Note_off_c, 4, 47, 95
4, 900480, Note_on_c, 4, 66, 95
4, 900480, Note_on_c, 4, 64, 95
4, 900480, Note_on_c, 4, 59, 95
4, 900480, Note_on_c, 4, 54, 95
4, 900960, Note_off_c, 4, 66, 95
4, 900960, Note_off_c, 4, 64, 95
4, 900960, Note_off_c, 4, 59, 95
4, 900960, Note_off_c, 4, 54, 95
4, 900960, Note_on_c, 4, 66, 95
4, 900960, Note_on_c, 4, 63, 95
4, 900960, Note_on_c, 4, 59, 95
4, 900960, Note_on_c, 4, 54, 95
4, 901440, Note_off_c, 4, 66, 95
4, 901440, Note_off_c, 4, 63, 95
4, 901440, Note_off_c, 4, 59, 95
4, 901440, Note_off_c, 4, 54, 95
4, 901440, Note_on_c, 4, 59, 95
4, 901440, Note_on_c, 4, 54, 95
4, 901440, Note_on_c, 4, 47, 95
4, 901920, Note_off_c, 4, 59, 95
4, 901920, Note_off_c, 4, 54, 95
4, 901920, Note_off_c, 4, 47, 95
4, 901920, Note_on_c, 4, 59, 95
4, 901920, Note_on_c, 4, 54, 95
4, 901920, Note_on_c, 4, 47, 95
4, 902880, Note_off_c, 4, 59, 95
4, 902880, Note_off_c, 4, 54, 95
4, 902880, Note_off_c, 4, 47, 95
4, 902880, Note_on_c, 4, 66, 95
4, 902880, Note_on_c, 4, 64, 95
4, 902880, Note_on_c, 4, 59, 95
4, 902880, Note_on_c, 4, 54, 95
4, 902880, Note_on_c, 4, 47, 95
4, 903360, Note_off_c, 4, 66, 95
4, 903360, Note_off_c, 4, 64, 95
4, 903360, Note_off_c, 4, 59, 95
4, 903360, Note_off_c, 4, 54, 95
4, 903360, Note_off_c, 4, 47, 95
4, 903360, Note_on_c, 4, 66, 95
4, 903360, Note_on_c, 4, 64, 95
4, 903360, Note_on_c, 4, 59, 95
4, 903360, Note_on_c, 4, 54, 95
4, 903360, Note_on_c, 4, 47, 95
4, 904080, Note_off_c, 4, 66, 95
4, 904080, Note_off_c, 4, 64, 95
4, 904080, Note_off_c, 4, 59, 95
4, 904080, Note_off_c, 4, 54, 95
4, 904080, Note_off_c, 4, 47, 95
4, 904080, Note_on_c, 4, 66, 95
4, 904080, Note_on_c, 4, 64, 95
4, 904080, Note_on_c, 4, 59, 95
4, 904080, Note_on_c, 4, 54, 95
4, 904080, Note_on_c, 4, 47, 95
4, 904320, Note_off_c, 4, 66, 95
4, 904320, Note_off_c, 4, 64, 95
4, 904320, Note_off_c, 4, 59, 95
4, 904320, Note_off_c, 4, 54, 95
4, 904320, Note_off_c, 4, 47, 95
4, 904320, Note_on_c, 4, 66, 95
4, 904320, Note_on_c, 4, 64, 95
4, 904320, Note_on_c, 4, 59, 95
4, 904320, Note_on_c, 4, 54, 95
4, 904800, Note_off_c, 4, 66, 95
4, 904800, Note_off_c, 4, 64, 95
4, 904800, Note_off_c, 4, 59, 95
4, 904800, Note_off_c, 4, 54, 95
4, 904800, Note_on_c, 4, 66, 95
4, 904800, Note_on_c, 4, 63, 95
4, 904800, Note_on_c, 4, 59, 95
4, 904800, Note_on_c, 4, 54, 95
4, 905280, Note_off_c, 4, 66, 95
4, 905280, Note_off_c, 4, 63, 95
4, 905280, Note_off_c, 4, 59, 95
4, 905280, Note_off_c, 4, 54, 95
4, 905280, Note_on_c, 4, 59, 95
4, 905280, Note_on_c, 4, 54, 95
4, 905280, Note_on_c, 4, 47, 95
4, 905760, Note_off_c, 4, 59, 95
4, 905760, Note_off_c, 4, 54, 95
4, 905760, Note_off_c, 4, 47, 95
4, 905760, Note_on_c, 4, 59, 95
4, 905760, Note_on_c, 4, 54, 95
4, 905760, Note_on_c, 4, 47, 95
4, 906720, Note_off_c, 4, 59, 95
4, 906720, Note_off_c, 4, 54, 95
4, 906720, Note_off_c, 4, 47, 95
4, 906720, Note_on_c, 4, 59, 95
4, 906720, Note_on_c, 4, 54, 95
4, 906720, Note_on_c, 4, 47, 95
4, 907200, Note_off_c, 4, 59, 95
4, 907200, Note_off_c, 4, 54, 95
4, 907200, Note_off_c, 4, 47, 95
4, 907200, Note_on_c, 4, 66, 95
4, 907200, Note_on_c, 4, 63, 95
4, 907200, Note_on_c, 4, 59, 95
4, 907200, Note_on_c, 4, 54, 95
4, 907200, Note_on_c, 4, 47, 95
4, 907680, Note_off_c, 4, 66, 95
4, 907680, Note_off_c, 4, 63, 95
4, 907680, Note_off_c, 4, 59, 95
4, 907680, Note_off_c, 4, 54, 95
4, 907680, Note_off_c, 4, 47, 95
4, 907680, Note_on_c, 4, 59, 95
4, 907680, Note_on_c, 4, 54, 95
4, 907680, Note_on_c, 4, 47, 95
4, 908160, Note_off_c, 4, 59, 95
4, 908160, Note_off_c, 4, 54, 95
4, 908160, Note_off_c, 4, 47, 95
4, 908160, Note_on_c, 5, 64, 95
4, 908160, Note_on_c, 4, 59, 95
4, 908160, Note_on_c, 4, 54, 95
4, 908160, Note_on_c, 4, 47, 95
4, 908280, Pitch_bend_c, 5, 8064
4, 908400, Pitch_bend_c, 5, 7936
4, 908520, Pitch_bend_c, 5, 7680
4, 908640, Pitch_bend_c, 5, 7552
4, 908640, Pitch_bend_c, 5, 8192
4, 908640, Note_off_c, 5, 64, 95
4, 908640, Note_off_c, 4, 59, 95
4, 908640, Note_off_c, 4, 54, 95
4, 908640, Note_off_c, 4, 47, 95
4, 908640, Note_on_c, 4, 63, 95
4, 909120, Note_off_c, 4, 63, 95
4, 909120, Note_on_c, 4, 59, 95
4, 909120, Note_on_c, 4, 54, 95
4, 909120, Note_on_c, 4, 47, 95
4, 909600, Note_off_c, 4, 59, 95
4, 909600, Note_off_c, 4, 54, 95
4, 909600, Note_off_c, 4, 47, 95
4, 909600, Note_on_c, 4, 59, 95
4, 909600, Note_on_c, 4, 54, 95
4, 909600, Note_on_c, 4, 47, 95
4, 910560, Note_off_c, 4, 59, 95
4, 910560, Note_off_c, 4, 54, 95
4, 910560, Note_off_c, 4, 47, 95
4, 910560, Note_on_c, 4, 59, 95
4, 910560, Note_on_c, 4, 54, 95
4, 910560, Note_on_c, 4, 47, 95
4, 911040, Note_off_c, 4, 59, 95
4, 911040, Note_off_c, 4, 54, 95
4, 911040, Note_off_c, 4, 47, 95
4, 911040, Note_on_c, 4, 66, 95
4, 911040, Note_on_c, 4, 63, 95
4, 911040, Note_on_c, 4, 59, 95
4, 911040, Note_on_c, 4, 54, 95
4, 911040, Note_on_c, 4, 47, 95
4, 911520, Note_off_c, 4, 66, 95
4, 911520, Note_off_c, 4, 63, 95
4, 911520, Note_off_c, 4, 59, 95
4, 911520, Note_off_c, 4, 54, 95
4, 911520, Note_off_c, 4, 47, 95
4, 911520, Note_on_c, 4, 59, 95
4, 911520, Note_on_c, 4, 54, 95
4, 911520, Note_on_c, 4, 47, 95
4, 912000, Note_off_c, 4, 59, 95
4, 912000, Note_off_c, 4, 54, 95
4, 912000, Note_off_c, 4, 47, 95
4, 912000, Note_on_c, 5, 64, 95
4, 912000, Note_on_c, 4, 59, 95
4, 912000, Note_on_c, 4, 54, 95
4, 912000, Note_on_c, 4, 47, 95
4, 912120, Pitch_bend_c, 5, 8064
4, 912240, Pitch_bend_c, 5, 7936
4, 912360, Pitch_bend_c, 5, 7680
4, 912480, Pitch_bend_c, 5, 7552
4, 912480, Pitch_bend_c, 5, 8192
4, 912480, Note_off_c, 5, 64, 95
4, 912480, Note_off_c, 4, 59, 95
4, 912480, Note_off_c, 4, 54, 95
4, 912480, Note_off_c, 4, 47, 95
4, 912480, Note_on_c, 4, 63, 95
4, 912960, Note_off_c, 4, 63, 95
4, 912960, Note_on_c, 4, 59, 95
4, 912960, Note_on_c, 4, 54, 95
4, 912960, Note_on_c, 4, 47, 95
4, 913440, Note_off_c, 4, 59, 95
4, 913440, Note_off_c, 4, 54, 95
4, 913440, Note_off_c, 4, 47, 95
4, 913440, Note_on_c, 4, 59, 95
4, 913440, Note_on_c, 4, 54, 95
4, 913440, Note_on_c, 4, 47, 95
4, 914400, Note_off_c, 4, 59, 95
4, 914400, Note_off_c, 4, 54, 95
4, 914400, Note_off_c, 4, 47, 95
4, 914400, Note_on_c, 4, 59, 95
4, 914400, Note_on_c, 4, 54, 95
4, 914400, Note_on_c, 4, 47, 95
4, 914880, Note_off_c, 4, 59, 95
4, 914880, Note_off_c, 4, 54, 95
4, 914880, Note_off_c, 4, 47, 95
4, 914880, Note_on_c, 4, 66, 95
4, 914880, Note_on_c, 4, 63, 95
4, 914880, Note_on_c, 4, 59, 95
4, 914880, Note_on_c, 4, 54, 95
4, 914880, Note_on_c, 4, 47, 95
4, 915360, Note_off_c, 4, 66, 95
4, 915360, Note_off_c, 4, 63, 95
4, 915360, Note_off_c, 4, 59, 95
4, 915360, Note_off_c, 4, 54, 95
4, 915360, Note_off_c, 4, 47, 95
4, 915360, Note_on_c, 4, 59, 95
4, 915360, Note_on_c, 4, 54, 95
4, 915360, Note_on_c, 4, 47, 95
4, 915840, Note_off_c, 4, 59, 95
4, 915840, Note_off_c, 4, 54, 95
4, 915840, Note_off_c, 4, 47, 95
4, 915840, Note_on_c, 5, 64, 95
4, 915840, Note_on_c, 4, 59, 95
4, 915840, Note_on_c, 4, 54, 95
4, 915840, Note_on_c, 4, 47, 95
4, 915960, Pitch_bend_c, 5, 8064
4, 916080, Pitch_bend_c, 5, 7936
4, 916200, Pitch_bend_c, 5, 7680
4, 916320, Pitch_bend_c, 5, 7552
4, 916320, Pitch_bend_c, 5, 8192
4, 916320, Note_off_c, 5, 64, 95
4, 916320, Note_off_c, 4, 59, 95
4, 916320, Note_off_c, 4, 54, 95
4, 916320, Note_off_c, 4, 47, 95
4, 916320, Note_on_c, 4, 63, 95
4, 916800, Note_off_c, 4, 63, 95
4, 916800, Note_on_c, 4, 59, 95
4, 916800, Note_on_c, 4, 54, 95
4, 916800, Note_on_c, 4, 47, 95
4, 917280, Note_off_c, 4, 59, 95
4, 917280, Note_off_c, 4, 54, 95
4, 917280, Note_off_c, 4, 47, 95
4, 917280, Note_on_c, 4, 59, 95
4, 917280, Note_on_c, 4, 54, 95
4, 917280, Note_on_c, 4, 47, 95
4, 918240, Note_off_c, 4, 59, 95
4, 918240, Note_off_c, 4, 54, 95
4, 918240, Note_off_c, 4, 47, 95
4, 918240, Note_on_c, 4, 59, 95
4, 918240, Note_on_c, 4, 54, 95
4, 918240, Note_on_c, 4, 47, 95
4, 918720, Note_off_c, 4, 59, 95
4, 918720, Note_off_c, 4, 54, 95
4, 918720, Note_off_c, 4, 47, 95
4, 918720, Note_on_c, 4, 66, 95
4, 918720, Note_on_c, 4, 63, 95
4, 918720, Note_on_c, 4, 59, 95
4, 918720, Note_on_c, 4, 54, 95
4, 918720, Note_on_c, 4, 47, 95
4, 919200, Note_off_c, 4, 66, 95
4, 919200, Note_off_c, 4, 63, 95
4, 919200, Note_off_c, 4, 59, 95
4, 919200, Note_off_c, 4, 54, 95
4, 919200, Note_off_c, 4, 47, 95
4, 919200, Note_on_c, 4, 59, 95
4, 919200, Note_on_c, 4, 54, 95
4, 919200, Note_on_c, 4, 47, 95
4, 919680, Note_off_c, 4, 59, 95
4, 919680, Note_off_c, 4, 54, 95
4, 919680, Note_off_c, 4, 47, 95
4, 919680, Note_on_c, 5, 64, 95
4, 919680, Note_on_c, 4, 59, 95
4, 919680, Note_on_c, 4, 54, 95
4, 919680, Note_on_c, 4, 47, 95
4, 919800, Pitch_bend_c, 5, 8064
4, 919920, Pitch_bend_c, 5, 7936
4, 920040, Pitch_bend_c, 5, 7680
4, 920160, Pitch_bend_c, 5, 7552
4, 920160, Pitch_bend_c, 5, 8192
4, 920160, Note_off_c, 5, 64, 95
4, 920160, Note_off_c, 4, 59, 95
4, 920160, Note_off_c, 4, 54, 95
4, 920160, Note_off_c, 4, 47, 95
4, 920160, Note_on_c, 4, 63, 95
4, 920640, Note_off_c, 4, 63, 95
4, 920640, Note_on_c, 4, 59, 95
4, 920640, Note_on_c, 4, 54, 95
4, 920640, Note_on_c, 4, 47, 95
4, 921120, Note_off_c, 4, 59, 95
4, 921120, Note_off_c, 4, 54, 95
4, 921120, Note_off_c, 4, 47, 95
4, 921120, Note_on_c, 4, 59, 95
4, 921120, Note_on_c, 4, 54, 95
4, 921120, Note_on_c, 4, 47, 95
4, 922080, Note_off_c, 4, 59, 95
4, 922080, Note_off_c, 4, 54, 95
4, 922080, Note_off_c, 4, 47, 95
4, 922080, Note_on_c, 4, 59, 95
4, 922080, Note_on_c, 4, 54, 95
4, 922080, Note_on_c, 4, 47, 95
4, 922560, Note_off_c, 4, 59, 95
4, 922560, Note_off_c, 4, 54, 95
4, 922560, Note_off_c, 4, 47, 95
4, 922560, Note_on_c, 4, 66, 95
4, 922560, Note_on_c, 4, 63, 95
4, 922560, Note_on_c, 4, 59, 95
4, 922560, Note_on_c, 4, 54, 95
4, 922560, Note_on_c, 4, 47, 95
4, 923040, Note_off_c, 4, 66, 95
4, 923040, Note_off_c, 4, 63, 95
4, 923040, Note_off_c, 4, 59, 95
4, 923040, Note_off_c, 4, 54, 95
4, 923040, Note_off_c, 4, 47, 95
4, 923040, Note_on_c, 4, 59, 95
4, 923040, Note_on_c, 4, 54, 95
4, 923040, Note_on_c, 4, 47, 95
4, 923520, Note_off_c, 4, 59, 95
4, 923520, Note_off_c, 4, 54, 95
4, 923520, Note_off_c, 4, 47, 95
4, 923520, Note_on_c, 5, 64, 95
4, 923520, Note_on_c, 4, 59, 95
4, 923520, Note_on_c, 4, 54, 95
4, 923520, Note_on_c, 4, 47, 95
4, 923640, Pitch_bend_c, 5, 8064
4, 923760, Pitch_bend_c, 5, 7936
4, 923880, Pitch_bend_c, 5, 7680
4, 924000, Pitch_bend_c, 5, 7552
4, 924000, Pitch_bend_c, 5, 8192
4, 924000, Note_off_c, 5, 64, 95
4, 924000, Note_off_c, 4, 59, 95
4, 924000, Note_off_c, 4, 54, 95
4, 924000, Note_off_c, 4, 47, 95
4, 924000, Note_on_c, 4, 63, 95
4, 924480, Note_off_c, 4, 63, 95
4, 924480, Note_on_c, 4, 59, 95
4, 924960, Note_off_c, 4, 59, 95
4, 924960, Note_on_c, 4, 59, 95
4, 925440, Note_off_c, 4, 59, 95
4, 948960, Note_on_c, 4, 59, 95
4, 949440, Note_off_c, 4, 59, 95
4, 949440, Note_on_c, 4, 66, 95
4, 949920, Note_off_c, 4, 66, 95
4, 949920, Note_on_c, 4, 59, 95
4, 950400, Note_off_c, 4, 59, 95
4, 950400, Note_on_c, 4, 64, 95
4, 950880, Note_off_c, 4, 64, 95
4, 950880, Note_on_c, 4, 63, 70
4, 951360, Note_off_c, 4, 63, 70
4, 951360, Note_on_c, 4, 59, 95
4, 951840, Note_off_c, 4, 59, 95
4, 952800, Note_on_c, 4, 66, 95
4, 952800, Note_on_c, 4, 63, 95
4, 952800, Note_on_c, 4, 59, 95
4, 952800, Note_on_c, 4, 54, 95
4, 952800, Note_on_c, 4, 47, 95
4, 953760, Note_off_c, 4, 66, 95
4, 953760, Note_off_c, 4, 63, 95
4, 953760, Note_off_c, 4, 59, 95
4, 953760, Note_off_c, 4, 54, 95
4, 953760, Note_off_c, 4, 47, 95
4, 953760, Note_on_c, 4, 68, 95
4, 953760, Note_on_c, 4, 64, 95
4, 953760, Note_on_c, 4, 59, 95
4, 953760, Note_on_c, 4, 52, 95
4, 954240, Note_off_c, 4, 68, 95
4, 954240, Note_off_c, 4, 64, 95
4, 954240, Note_off_c, 4, 59, 95
4, 954240, Note_off_c, 4, 52, 95
4, 954240, Note_on_c, 4, 66, 95
4, 954240, Note_on_c, 4, 63, 95
4, 954240, Note_on_c, 4, 59, 95
4, 954240, Note_on_c, 4, 54, 95
4, 954240, Note_on_c, 4, 47, 95
4, 954720, Note_off_c, 4, 66, 95
4, 954720, Note_off_c, 4, 63, 95
4, 954720, Note_off_c, 4, 59, 95
4, 954720, Note_off_c, 4, 54, 95
4, 954720, Note_off_c, 4, 47, 95
4, 954720, Note_on_c, 4, 68, 70
4, 954720, Note_on_c, 4, 64, 70
4, 955200, Note_off_c, 4, 68, 70
4, 955200, Note_off_c, 4, 64, 70
4, 955200, Note_on_c, 4, 66, 95
4, 955200, Note_on_c, 4, 63, 95
4, 955200, Note_on_c, 4, 59, 95
4, 955200, Note_on_c, 4, 54, 95
4, 955200, Note_on_c, 4, 47, 95
4, 955680, Note_off_c, 4, 66, 95
4, 955680, Note_off_c, 4, 63, 95
4, 955680, Note_off_c, 4, 59, 95
4, 955680, Note_off_c, 4, 54, 95
4, 955680, Note_off_c, 4, 47, 95
4, 956160, Note_on_c, 4, 68, 95
4, 956160, Note_on_c, 4, 64, 95
4, 956160, Note_on_c, 4, 59, 95
4, 956160, Note_on_c, 4, 52, 95
4, 956640, Note_off_c, 4, 68, 95
4, 956640, Note_off_c, 4, 64, 95
4, 956640, Note_off_c, 4, 59, 95
4, 956640, Note_off_c, 4, 52, 95
4, 956640, Note_on_c, 4, 68, 95
4, 956640, Note_on_c, 4, 64, 95
4, 956640, Note_on_c, 4, 59, 95
4, 956640, Note_on_c, 4, 52, 95
4, 957120, Note_off_c, 4, 68, 95
4, 957120, Note_off_c, 4, 64, 95
4, 957120, Note_off_c, 4, 59, 95
4, 957120, Note_off_c, 4, 52, 95
4, 957120, Note_on_c, 4, 66, 95
4, 957120, Note_on_c, 4, 63, 95
4, 957120, Note_on_c, 4, 59, 95
4, 957120, Note_on_c, 4, 54, 95
4, 957120, Note_on_c, 4, 47, 95
4, 957600, Note_off_c, 4, 66, 95
4, 957600, Note_off_c, 4, 63, 95
4, 957600, Note_off_c, 4, 59, 95
4, 957600, Note_off_c, 4, 54, 95
4, 957600, Note_off_c, 4, 47, 95
4, 957600, Note_on_c, 4, 68, 95
4, 957600, Note_on_c, 4, 64, 95
4, 957600, Note_on_c, 4, 59, 95
4, 957600, Note_on_c, 4, 52, 95
4, 958080, Note_off_c, 4, 68, 95
4, 958080, Note_off_c, 4, 64, 95
4, 958080, Note_off_c, 4, 59, 95
4, 958080, Note_off_c, 4, 52, 95
4, 958080, Note_on_c, 4, 68, 95
4, 958080, Note_on_c, 4, 64, 95
4, 958080, Note_on_c, 4, 59, 95
4, 958080, Note_on_c, 4, 52, 95
4, 958560, Note_off_c, 4, 68, 95
4, 958560, Note_off_c, 4, 64, 95
4, 958560, Note_off_c, 4, 59, 95
4, 958560, Note_off_c, 4, 52, 95
4, 958560, Note_on_c, 4, 66, 95
4, 958560, Note_on_c, 4, 63, 95
4, 958560, Note_on_c, 4, 59, 95
4, 958560, Note_on_c, 4, 54, 95
4, 958560, Note_on_c, 4, 47, 95
4, 959040, Note_off_c, 4, 66, 95
4, 959040, Note_off_c, 4, 63, 95
4, 959040, Note_off_c, 4, 59, 95
4, 959040, Note_off_c, 4, 54, 95
4, 959040, Note_off_c, 4, 47, 95
4, 959040, Note_on_c, 4, 68, 95
4, 959040, Note_on_c, 4, 64, 95
4, 959040, Note_on_c, 4, 59, 95
4, 959040, Note_on_c, 4, 52, 95
4, 959520, Note_off_c, 4, 68, 95
4, 959520, Note_off_c, 4, 64, 95
4, 959520, Note_off_c, 4, 59, 95
4, 959520, Note_off_c, 4, 52, 95
4, 959520, Note_on_c, 4, 66, 95
4, 959520, Note_on_c, 4, 63, 95
4, 959520, Note_on_c, 4, 59, 95
4, 959520, Note_on_c, 4, 54, 95
4, 959520, Note_on_c, 4, 47, 95
4, 960480, Note_off_c, 4, 66, 95
4, 960480, Note_off_c, 4, 63, 95
4, 960480, Note_off_c, 4, 59, 95
4, 960480, Note_off_c, 4, 54, 95
4, 960480, Note_off_c, 4, 47, 95
4, 960480, Note_on_c, 4, 66, 95
4, 960480, Note_on_c, 4, 63, 95
4, 960480, Note_on_c, 4, 59, 95
4, 960480, Note_on_c, 4, 54, 95
4, 960480, Note_on_c, 4, 47, 95
4, 960960, Note_off_c, 4, 66, 95
4, 960960, Note_off_c, 4, 63, 95
4, 960960, Note_off_c, 4, 59, 95
4, 960960, Note_off_c, 4, 54, 95
4, 960960, Note_off_c, 4, 47, 95
4, 960960, Note_on_c, 4, 49, 95
4, 960960, Note_on_c, 4, 44, 95
4, 960960, Note_on_c, 4, 39, 95
4, 961026, Note_off_c, 4, 49, 95
4, 961026, Note_off_c, 4, 44, 95
4, 961026, Note_off_c, 4, 39, 95
4, 961440, Note_on_c, 4, 49, 95
4, 961440, Note_on_c, 4, 44, 95
4, 961440, Note_on_c, 4, 39, 95
4, 961506, Note_off_c, 4, 49, 95
4, 961506, Note_off_c, 4, 44, 95
4, 961506, Note_off_c, 4, 39, 95
4, 961920, Note_on_c, 4, 69, 95
4, 961920, Note_on_c, 4, 63, 95
4, 961920, Note_on_c, 4, 59, 95
4, 961920, Note_on_c, 4, 54, 95
4, 962400, Note_off_c, 4, 69, 95
4, 962400, Note_off_c, 4, 63, 95
4, 962400, Note_off_c, 4, 59, 95
4, 962400, Note_off_c, 4, 54, 95
4, 962880, Note_on_c, 4, 69, 95
4, 962880, Note_on_c, 4, 63, 95
4, 962880, Note_on_c, 4, 59, 95
4, 962880, Note_on_c, 4, 54, 95
4, 963360, Note_off_c, 4, 69, 95
4, 963360, Note_off_c, 4, 63, 95
4, 963360, Note_off_c, 4, 59, 95
4, 963360, Note_off_c, 4, 54, 95
4, 963840, Note_on_c, 4, 68, 95
4, 963840, Note_on_c, 4, 64, 95
4, 963840, Note_on_c, 4, 59, 95
4, 963840, Note_on_c, 4, 52, 95
4, 964320, Note_off_c, 4, 68, 95
4, 964320, Note_off_c, 4, 64, 95
4, 964320, Note_off_c, 4, 59, 95
4, 964320, Note_off_c, 4, 52, 95
4, 964320, Note_on_c, 4, 68, 95
4, 964320, Note_on_c, 4, 64, 95
4, 964320, Note_on_c, 4, 59, 95
4, 964320, Note_on_c, 4, 52, 95
4, 964800, Note_off_c, 4, 68, 95
4, 964800, Note_off_c, 4, 64, 95
4, 964800, Note_off_c, 4, 59, 95
4, 964800, Note_off_c, 4, 52, 95
4, 964800, Note_on_c, 4, 66, 95
4, 964800, Note_on_c, 4, 63, 95
4, 964800, Note_on_c, 4, 59, 95
4, 964800, Note_on_c, 4, 54, 95
4, 964800, Note_on_c, 4, 47, 95
4, 965280, Note_off_c, 4, 66, 95
4, 965280, Note_off_c, 4, 63, 95
4, 965280, Note_off_c, 4, 59, 95
4, 965280, Note_off_c, 4, 54, 95
4, 965280, Note_off_c, 4, 47, 95
4, 965280, Note_on_c, 4, 68, 95
4, 965280, Note_on_c, 4, 64, 95
4, 965280, Note_on_c, 4, 59, 95
4, 965280, Note_on_c, 4, 52, 95
4, 965760, Note_off_c, 4, 68, 95
4, 965760, Note_off_c, 4, 64, 95
4, 965760, Note_off_c, 4, 59, 95
4, 965760, Note_off_c, 4, 52, 95
4, 965760, Note_on_c, 4, 68, 95
4, 965760, Note_on_c, 4, 64, 95
4, 965760, Note_on_c, 4, 59, 95
4, 965760, Note_on_c, 4, 52, 95
4, 966240, Note_off_c, 4, 68, 95
4, 966240, Note_off_c, 4, 64, 95
4, 966240, Note_off_c, 4, 59, 95
4, 966240, Note_off_c, 4, 52, 95
4, 966240, Note_on_c, 4, 66, 95
4, 966240, Note_on_c, 4, 63, 95
4, 966240, Note_on_c, 4, 59, 95
4, 966240, Note_on_c, 4, 54, 95
4, 966240, Note_on_c, 4, 47, 95
4, 966720, Note_off_c, 4, 66, 95
4, 966720, Note_off_c, 4, 63, 95
4, 966720, Note_off_c, 4, 59, 95
4, 966720, Note_off_c, 4, 54, 95
4, 966720, Note_off_c, 4, 47, 95
4, 966720, Note_on_c, 4, 68, 95
4, 966720, Note_on_c, 4, 64, 95
4, 966720, Note_on_c, 4, 59, 95
4, 966720, Note_on_c, 4, 52, 95
4, 967200, Note_off_c, 4, 68, 95
4, 967200, Note_off_c, 4, 64, 95
4, 967200, Note_off_c, 4, 59, 95
4, 967200, Note_off_c, 4, 52, 95
4, 967200, Note_on_c, 4, 66, 95
4, 967200, Note_on_c, 4, 63, 95
4, 967200, Note_on_c, 4, 59, 95
4, 967200, Note_on_c, 4, 54, 95
4, 967200, Note_on_c, 4, 47, 95
4, 968160, Note_off_c, 4, 66, 95
4, 968160, Note_off_c, 4, 63, 95
4, 968160, Note_off_c, 4, 59, 95
4, 968160, Note_off_c, 4, 54, 95
4, 968160, Note_off_c, 4, 47, 95
4, 968160, Note_on_c, 4, 66, 95
4, 968160, Note_on_c, 4, 63, 95
4, 968160, Note_on_c, 4, 59, 95
4, 968160, Note_on_c, 4, 54, 95
4, 968160, Note_on_c, 4, 47, 95
4, 968640, Note_off_c, 4, 66, 95
4, 968640, Note_off_c, 4, 63, 95
4, 968640, Note_off_c, 4, 59, 95
4, 968640, Note_off_c, 4, 54, 95
4, 968640, Note_off_c, 4, 47, 95
4, 968640, Note_on_c, 4, 49, 95
4, 968640, Note_on_c, 4, 44, 95
4, 968640, Note_on_c, 4, 39, 95
4, 968706, Note_off_c, 4, 49, 95
4, 968706, Note_off_c, 4, 44, 95
4, 968706, Note_off_c, 4, 39, 95
4, 969120, Note_on_c, 4, 49, 95
4, 969120, Note_on_c, 4, 44, 95
4, 969120, Note_on_c, 4, 39, 95
4, 969186, Note_off_c, 4, 49, 95
4, 969186, Note_off_c, 4, 44, 95
4, 969186, Note_off_c, 4, 39, 95
4, 969600, Note_on_c, 4, 66, 95
4, 969600, Note_on_c, 4, 63, 95
4, 969600, Note_on_c, 4, 59, 95
4, 969600, Note_on_c, 4, 54, 95
4, 969600, Note_on_c, 4, 47, 95
4, 970080, Note_off_c, 4, 66, 95
4, 970080, Note_off_c, 4, 63, 95
4, 970080, Note_off_c, 4, 59, 95
4, 970080, Note_off_c, 4, 54, 95
4, 970080, Note_off_c, 4, 47, 95
4, 970560, Note_on_c, 4, 66, 95
4, 970560, Note_on_c, 4, 63, 95
4, 970560, Note_on_c, 4, 59, 95
4, 970560, Note_on_c, 4, 54, 95
4, 970560, Note_on_c, 4, 47, 95
4, 971040, Note_off_c, 4, 66, 95
4, 971040, Note_off_c, 4, 63, 95
4, 971040, Note_off_c, 4, 59, 95
4, 971040, Note_off_c, 4, 54, 95
4, 971040, Note_off_c, 4, 47, 95
4, 971520, Note_on_c, 4, 68, 95
4, 971520, Note_on_c, 4, 64, 95
4, 971520, Note_on_c, 4, 59, 95
4, 971520, Note_on_c, 4, 52, 95
4, 972000, Note_off_c, 4, 68, 95
4, 972000, Note_off_c, 4, 64, 95
4, 972000, Note_off_c, 4, 59, 95
4, 972000, Note_off_c, 4, 52, 95
4, 972000, Note_on_c, 4, 68, 95
4, 972000, Note_on_c, 4, 64, 95
4, 972000, Note_on_c, 4, 59, 95
4, 972000, Note_on_c, 4, 52, 95
4, 972480, Note_off_c, 4, 68, 95
4, 972480, Note_off_c, 4, 64, 95
4, 972480, Note_off_c, 4, 59, 95
4, 972480, Note_off_c, 4, 52, 95
4, 972480, Note_on_c, 4, 66, 95
4, 972480, Note_on_c, 4, 63, 95
4, 972480, Note_on_c, 4, 59, 95
4, 972480, Note_on_c, 4, 54, 95
4, 972480, Note_on_c, 4, 47, 95
4, 972960, Note_off_c, 4, 66, 95
4, 972960, Note_off_c, 4, 63, 95
4, 972960, Note_off_c, 4, 59, 95
4, 972960, Note_off_c, 4, 54, 95
4, 972960, Note_off_c, 4, 47, 95
4, 972960, Note_on_c, 4, 68, 95
4, 972960, Note_on_c, 4, 64, 95
4, 972960, Note_on_c, 4, 59, 95
4, 972960, Note_on_c, 4, 52, 95
4, 973440, Note_off_c, 4, 68, 95
4, 973440, Note_off_c, 4, 64, 95
4, 973440, Note_off_c, 4, 59, 95
4, 973440, Note_off_c, 4, 52, 95
4, 973440, Note_on_c, 4, 68, 95
4, 973440, Note_on_c, 4, 64, 95
4, 973440, Note_on_c, 4, 59, 95
4, 973440, Note_on_c, 4, 52, 95
4, 973920, Note_off_c, 4, 68, 95
4, 973920, Note_off_c, 4, 64, 95
4, 973920, Note_off_c, 4, 59, 95
4, 973920, Note_off_c, 4, 52, 95
4, 973920, Note_on_c, 4, 66, 95
4, 973920, Note_on_c, 4, 63, 95
4, 973920, Note_on_c, 4, 59, 95
4, 973920, Note_on_c, 4, 54, 95
4, 973920, Note_on_c, 4, 47, 95
4, 974400, Note_off_c, 4, 66, 95
4, 974400, Note_off_c, 4, 63, 95
4, 974400, Note_off_c, 4, 59, 95
4, 974400, Note_off_c, 4, 54, 95
4, 974400, Note_off_c, 4, 47, 95
4, 974400, Note_on_c, 4, 68, 95
4, 974400, Note_on_c, 4, 64, 95
4, 974400, Note_on_c, 4, 59, 95
4, 974400, Note_on_c, 4, 52, 95
4, 974880, Note_off_c, 4, 68, 95
4, 974880, Note_off_c, 4, 64, 95
4, 974880, Note_off_c, 4, 59, 95
4, 974880, Note_off_c, 4, 52, 95
4, 974880, Note_on_c, 4, 66, 95
4, 974880, Note_on_c, 4, 63, 95
4, 974880, Note_on_c, 4, 59, 95
4, 974880, Note_on_c, 4, 54, 95
4, 974880, Note_on_c, 4, 47, 95
4, 975840, Note_off_c, 4, 66, 95
4, 975840, Note_off_c, 4, 63, 95
4, 975840, Note_off_c, 4, 59, 95
4, 975840, Note_off_c, 4, 54, 95
4, 975840, Note_off_c, 4, 47, 95
4, 975840, Note_on_c, 4, 66, 95
4, 975840, Note_on_c, 4, 63, 95
4, 975840, Note_on_c, 4, 59, 95
4, 975840, Note_on_c, 4, 54, 95
4, 975840, Note_on_c, 4, 47, 95
4, 976320, Note_off_c, 4, 66, 95
4, 976320, Note_off_c, 4, 63, 95
4, 976320, Note_off_c, 4, 59, 95
4, 976320, Note_off_c, 4, 54, 95
4, 976320, Note_off_c, 4, 47, 95
4, 976320, Note_on_c, 4, 49, 95
4, 976320, Note_on_c, 4, 44, 95
4, 976320, Note_on_c, 4, 39, 95
4, 976386, Note_off_c, 4, 49, 95
4, 976386, Note_off_c, 4, 44, 95
4, 976386, Note_off_c, 4, 39, 95
4, 976800, Note_on_c, 4, 49, 95
4, 976800, Note_on_c, 4, 44, 95
4, 976800, Note_on_c, 4, 39, 95
4, 976866, Note_off_c, 4, 49, 95
4, 976866, Note_off_c, 4, 44, 95
4, 976866, Note_off_c, 4, 39, 95
4, 977280, Note_on_c, 4, 69, 95
4, 977280, Note_on_c, 4, 63, 95
4, 977280, Note_on_c, 4, 59, 95
4, 977280, Note_on_c, 4, 54, 95
4, 977760, Note_off_c, 4, 69, 95
4, 977760, Note_off_c, 4, 63, 95
4, 977760, Note_off_c, 4, 59, 95
4, 977760, Note_off_c, 4, 54, 95
4, 978240, Note_on_c, 4, 69, 95
4, 978240, Note_on_c, 4, 63, 95
4, 978240, Note_on_c, 4, 59, 95
4, 978240, Note_on_c, 4, 54, 95
4, 978720, Note_off_c, 4, 69, 95
4, 978720, Note_off_c, 4, 63, 95
4, 978720, Note_off_c, 4, 59, 95
4, 978720, Note_off_c, 4, 54, 95
4, 979200, Note_on_c, 4, 68, 95
4, 979200, Note_on_c, 4, 64, 95
4, 979200, Note_on_c, 4, 59, 95
4, 979200, Note_on_c, 4, 52, 95
4, 979680, Note_off_c, 4, 68, 95
4, 979680, Note_off_c, 4, 64, 95
4, 979680, Note_off_c, 4, 59, 95
4, 979680, Note_off_c, 4, 52, 95
4, 979680, Note_on_c, 4, 68, 95
4, 979680, Note_on_c, 4, 64, 95
4, 979680, Note_on_c, 4, 59, 95
4, 979680, Note_on_c, 4, 52, 95
4, 980160, Note_off_c, 4, 68, 95
4, 980160, Note_off_c, 4, 64, 95
4, 980160, Note_off_c, 4, 59, 95
4, 980160, Note_off_c, 4, 52, 95
4, 980160, Note_on_c, 4, 66, 95
4, 980160, Note_on_c, 4, 63, 95
4, 980160, Note_on_c, 4, 59, 95
4, 980160, Note_on_c, 4, 54, 95
4, 980160, Note_on_c, 4, 47, 95
4, 980640, Note_off_c, 4, 66, 95
4, 980640, Note_off_c, 4, 63, 95
4, 980640, Note_off_c, 4, 59, 95
4, 980640, Note_off_c, 4, 54, 95
4, 980640, Note_off_c, 4, 47, 95
4, 980640, Note_on_c, 4, 68, 95
4, 980640, Note_on_c, 4, 64, 95
4, 980640, Note_on_c, 4, 59, 95
4, 980640, Note_on_c, 4, 52, 95
4, 981120, Note_off_c, 4, 68, 95
4, 981120, Note_off_c, 4, 64, 95
4, 981120, Note_off_c, 4, 59, 95
4, 981120, Note_off_c, 4, 52, 95
4, 981120, Note_on_c, 4, 68, 95
4, 981120, Note_on_c, 4, 64, 95
4, 981120, Note_on_c, 4, 59, 95
4, 981120, Note_on_c, 4, 52, 95
4, 981600, Note_off_c, 4, 68, 95
4, 981600, Note_off_c, 4, 64, 95
4, 981600, Note_off_c, 4, 59, 95
4, 981600, Note_off_c, 4, 52, 95
4, 981600, Note_on_c, 4, 66, 95
4, 981600, Note_on_c, 4, 63, 95
4, 981600, Note_on_c, 4, 59, 95
4, 981600, Note_on_c, 4, 54, 95
4, 981600, Note_on_c, 4, 47, 95
4, 982080, Note_off_c, 4, 66, 95
4, 982080, Note_off_c, 4, 63, 95
4, 982080, Note_off_c, 4, 59, 95
4, 982080, Note_off_c, 4, 54, 95
4, 982080, Note_off_c, 4, 47, 95
4, 982080, Note_on_c, 4, 68, 95
4, 982080, Note_on_c, 4, 64, 95
4, 982080, Note_on_c, 4, 59, 95
4, 982080, Note_on_c, 4, 52, 95
4, 982560, Note_off_c, 4, 68, 95
4, 982560, Note_off_c, 4, 64, 95
4, 982560, Note_off_c, 4, 59, 95
4, 982560, Note_off_c, 4, 52, 95
4, 982560, Note_on_c, 4, 66, 95
4, 982560, Note_on_c, 4, 63, 95
4, 982560, Note_on_c, 4, 59, 95
4, 982560, Note_on_c, 4, 54, 95
4, 982560, Note_on_c, 4, 47, 95
4, 983520, Note_off_c, 4, 66, 95
4, 983520, Note_off_c, 4, 63, 95
4, 983520, Note_off_c, 4, 59, 95
4, 983520, Note_off_c, 4, 54, 95
4, 983520, Note_off_c, 4, 47, 95
4, 983520, Note_on_c, 4, 66, 95
4, 983520, Note_on_c, 4, 63, 95
4, 983520, Note_on_c, 4, 59, 95
4, 983520, Note_on_c, 4, 54, 95
4, 983520, Note_on_c, 4, 47, 95
4, 984000, Note_off_c, 4, 66, 95
4, 984000, Note_off_c, 4, 63, 95
4, 984000, Note_off_c, 4, 59, 95
4, 984000, Note_off_c, 4, 54, 95
4, 984000, Note_off_c, 4, 47, 95
4, 984000, Note_on_c, 4, 49, 95
4, 984000, Note_on_c, 4, 44, 95
4, 984000, Note_on_c, 4, 39, 95
4, 984066, Note_off_c, 4, 49, 95
4, 984066, Note_off_c, 4, 44, 95
4, 984066, Note_off_c, 4, 39, 95
4, 984480, Note_on_c, 4, 49, 95
4, 984480, Note_on_c, 4, 44, 95
4, 984480, Note_on_c, 4, 39, 95
4, 984546, Note_off_c, 4, 49, 95
4, 984546, Note_off_c, 4, 44, 95
4, 984546, Note_off_c, 4, 39, 95
4, 984960, Note_on_c, 4, 66, 95
4, 984960, Note_on_c, 4, 63, 95
4, 984960, Note_on_c, 4, 59, 95
4, 984960, Note_on_c, 4, 54, 95
4, 984960, Note_on_c, 4, 47, 95
4, 985440, Note_off_c, 4, 66, 95
4, 985440, Note_off_c, 4, 63, 95
4, 985440, Note_off_c, 4, 59, 95
4, 985440, Note_off_c, 4, 54, 95
4, 985440, Note_off_c, 4, 47, 95
4, 985920, Note_on_c, 4, 66, 95
4, 985920, Note_on_c, 4, 63, 95
4, 985920, Note_on_c, 4, 59, 95
4, 985920, Note_on_c, 4, 54, 95
4, 985920, Note_on_c, 4, 47, 95
4, 986400, Note_off_c, 4, 66, 95
4, 986400, Note_off_c, 4, 63, 95
4, 986400, Note_off_c, 4, 59, 95
4, 986400, Note_off_c, 4, 54, 95
4, 986400, Note_off_c, 4, 47, 95
4, 986880, Note_on_c, 4, 68, 95
4, 986880, Note_on_c, 4, 64, 95
4, 986880, Note_on_c, 4, 59, 95
4, 986880, Note_on_c, 4, 52, 95
4, 987360, Note_off_c, 4, 68, 95
4, 987360, Note_off_c, 4, 64, 95
4, 987360, Note_off_c, 4, 59, 95
4, 987360, Note_off_c, 4, 52, 95
4, 987360, Note_on_c, 4, 68, 95
4, 987360, Note_on_c, 4, 64, 95
4, 987360, Note_on_c, 4, 59, 95
4, 987360, Note_on_c, 4, 52, 95
4, 987840, Note_off_c, 4, 68, 95
4, 987840, Note_off_c, 4, 64, 95
4, 987840, Note_off_c, 4, 59, 95
4, 987840, Note_off_c, 4, 52, 95
4, 987840, Note_on_c, 4, 66, 95
4, 987840, Note_on_c, 4, 63, 95
4, 987840, Note_on_c, 4, 59, 95
4, 987840, Note_on_c, 4, 54, 95
4, 987840, Note_on_c, 4, 47, 95
4, 988320, Note_off_c, 4, 66, 95
4, 988320, Note_off_c, 4, 63, 95
4, 988320, Note_off_c, 4, 59, 95
4, 988320, Note_off_c, 4, 54, 95
4, 988320, Note_off_c, 4, 47, 95
4, 988320, Note_on_c, 4, 68, 95
4, 988320, Note_on_c, 4, 64, 95
4, 988320, Note_on_c, 4, 59, 95
4, 988320, Note_on_c, 4, 52, 95
4, 988800, Note_off_c, 4, 68, 95
4, 988800, Note_off_c, 4, 64, 95
4, 988800, Note_off_c, 4, 59, 95
4, 988800, Note_off_c, 4, 52, 95
4, 988800, Note_on_c, 4, 68, 95
4, 988800, Note_on_c, 4, 64, 95
4, 988800, Note_on_c, 4, 59, 95
4, 988800, Note_on_c, 4, 52, 95
4, 989280, Note_off_c, 4, 68, 95
4, 989280, Note_off_c, 4, 64, 95
4, 989280, Note_off_c, 4, 59, 95
4, 989280, Note_off_c, 4, 52, 95
4, 989280, Note_on_c, 4, 66, 95
4, 989280, Note_on_c, 4, 63, 95
4, 989280, Note_on_c, 4, 59, 95
4, 989280, Note_on_c, 4, 54, 95
4, 989280, Note_on_c, 4, 47, 95
4, 989760, Note_off_c, 4, 66, 95
4, 989760, Note_off_c, 4, 63, 95
4, 989760, Note_off_c, 4, 59, 95
4, 989760, Note_off_c, 4, 54, 95
4, 989760, Note_off_c, 4, 47, 95
4, 989760, Note_on_c, 4, 68, 95
4, 989760, Note_on_c, 4, 64, 95
4, 989760, Note_on_c, 4, 59, 95
4, 989760, Note_on_c, 4, 52, 95
4, 990240, Note_off_c, 4, 68, 95
4, 990240, Note_off_c, 4, 64, 95
4, 990240, Note_off_c, 4, 59, 95
4, 990240, Note_off_c, 4, 52, 95
4, 990240, Note_on_c, 5, 66, 95
4, 990240, Note_on_c, 5, 63, 95
4, 990240, Note_on_c, 5, 59, 95
4, 990240, Note_on_c, 5, 54, 95
4, 990240, Note_on_c, 5, 47, 95
4, 990400, Pitch_bend_c, 5, 8192
4, 990400, Pitch_bend_c, 5, 8192
4, 990400, Pitch_bend_c, 5, 8192
4, 990400, Pitch_bend_c, 5, 8192
4, 990400, Pitch_bend_c, 5, 8192
4, 990560, Pitch_bend_c, 5, 8320
4, 990560, Pitch_bend_c, 5, 8320
4, 990560, Pitch_bend_c, 5, 8320
4, 990560, Pitch_bend_c, 5, 8320
4, 990560, Pitch_bend_c, 5, 8320
4, 990720, Pitch_bend_c, 5, 8192
4, 990720, Pitch_bend_c, 5, 8192
4, 990720, Pitch_bend_c, 5, 8192
4, 990720, Pitch_bend_c, 5, 8192
4, 990720, Pitch_bend_c, 5, 8192
4, 990880, Pitch_bend_c, 5, 8320
4, 990880, Pitch_bend_c, 5, 8320
4, 990880, Pitch_bend_c, 5, 8320
4, 990880, Pitch_bend_c, 5, 8320
4, 990880, Pitch_bend_c, 5, 8320
4, 991040, Pitch_bend_c, 5, 8192
4, 991040, Pitch_bend_c, 5, 8192
4, 991040, Pitch_bend_c, 5, 8192
4, 991040, Pitch_bend_c, 5, 8192
4, 991040, Pitch_bend_c, 5, 8192
4, 991200, Pitch_bend_c, 5, 8320
4, 991200, Pitch_bend_c, 5, 8320
4, 991200, Pitch_bend_c, 5, 8320
4, 991200, Pitch_bend_c, 5, 8320
4, 991200, Pitch_bend_c, 5, 8320
4, 991360, Pitch_bend_c, 5, 8192
4, 991360, Pitch_bend_c, 5, 8192
4, 991360, Pitch_bend_c, 5, 8192
4, 991360, Pitch_bend_c, 5, 8192
4, 991360, Pitch_bend_c, 5, 8192
4, 991520, Pitch_bend_c, 5, 8320
4, 991520, Pitch_bend_c, 5, 8320
4, 991520, Pitch_bend_c, 5, 8320
4, 991520, Pitch_bend_c, 5, 8320
4, 991520, Pitch_bend_c, 5, 8320
4, 991680, Pitch_bend_c, 5, 8192
4, 991680, Pitch_bend_c, 5, 8192
4, 991680, Pitch_bend_c, 5, 8192
4, 991680, Pitch_bend_c, 5, 8192
4, 991680, Pitch_bend_c, 5, 8192
4, 991840, Pitch_bend_c, 5, 8320
4, 991840, Pitch_bend_c, 5, 8320
4, 991840, Pitch_bend_c, 5, 8320
4, 991840, Pitch_bend_c, 5, 8320
4, 991840, Pitch_bend_c, 5, 8320
4, 992000, Pitch_bend_c, 5, 8192
4, 992000, Pitch_bend_c, 5, 8192
4, 992000, Pitch_bend_c, 5, 8192
4, 992000, Pitch_bend_c, 5, 8192
4, 992000, Pitch_bend_c, 5, 8192
4, 992160, Pitch_bend_c, 5, 8320
4, 992160, Pitch_bend_c, 5, 8320
4, 992160, Pitch_bend_c, 5, 8320
4, 992160, Pitch_bend_c, 5, 8320
4, 992160, Pitch_bend_c, 5, 8320
4, 992320, Pitch_bend_c, 5, 8192
4, 992320, Pitch_bend_c, 5, 8192
4, 992320, Pitch_bend_c, 5, 8192
4, 992320, Pitch_bend_c, 5, 8192
4, 992320, Pitch_bend_c, 5, 8192
4, 992480, Pitch_bend_c, 5, 8320
4, 992480, Pitch_bend_c, 5, 8320
4, 992480, Pitch_bend_c, 5, 8320
4, 992480, Pitch_bend_c, 5, 8320
4, 992480, Pitch_bend_c, 5, 8320
4, 992640, Pitch_bend_c, 5, 8192
4, 992640, Pitch_bend_c, 5, 8192
4, 992640, Pitch_bend_c, 5, 8192
4, 992640, Pitch_bend_c, 5, 8192
4, 992640, Pitch_bend_c, 5, 8192
4, 992800, Pitch_bend_c, 5, 8320
4, 992800, Pitch_bend_c, 5, 8320
4, 992800, Pitch_bend_c, 5, 8320
4, 992800, Pitch_bend_c, 5, 8320
4, 992800, Pitch_bend_c, 5, 8320
4, 992960, Pitch_bend_c, 5, 8192
4, 992960, Pitch_bend_c, 5, 8192
4, 992960, Pitch_bend_c, 5, 8192
4, 992960, Pitch_bend_c, 5, 8192
4, 992960, Pitch_bend_c, 5, 8192
4, 993120, Pitch_bend_c, 5, 8320
4, 993120, Pitch_bend_c, 5, 8320
4, 993120, Pitch_bend_c, 5, 8320
4, 993120, Pitch_bend_c, 5, 8320
4, 993120, Pitch_bend_c, 5, 8320
4, 993280, Pitch_bend_c, 5, 8192
4, 993280, Pitch_bend_c, 5, 8192
4, 993280, Pitch_bend_c, 5, 8192
4, 993280, Pitch_bend_c, 5, 8192
4, 993280, Pitch_bend_c, 5, 8192
4, 993440, Pitch_bend_c, 5, 8320
4, 993440, Pitch_bend_c, 5, 8320
4, 993440, Pitch_bend_c, 5, 8320
4, 993440, Pitch_bend_c, 5, 8320
4, 993440, Pitch_bend_c, 5, 8320
4, 993600, Pitch_bend_c, 5, 8192
4, 993600, Pitch_bend_c, 5, 8192
4, 993600, Pitch_bend_c, 5, 8192
4, 993600, Pitch_bend_c, 5, 8192
4, 993600, Pitch_bend_c, 5, 8192
4, 993760, Pitch_bend_c, 5, 8320
4, 993760, Pitch_bend_c, 5, 8320
4, 993760, Pitch_bend_c, 5, 8320
4, 993760, Pitch_bend_c, 5, 8320
4, 993760, Pitch_bend_c, 5, 8320
4, 993920, Pitch_bend_c, 5, 8192
4, 993920, Pitch_bend_c, 5, 8192
4, 993920, Pitch_bend_c, 5, 8192
4, 993920, Pitch_bend_c, 5, 8192
4, 993920, Pitch_bend_c, 5, 8192
4, 994080, Pitch_bend_c, 5, 8320
4, 994080, Pitch_bend_c, 5, 8192
4, 994080, Note_off_c, 5, 66, 95
4, 994080, Pitch_bend_c, 5, 8320
4, 994080, Pitch_bend_c, 5, 8192
4, 994080, Note_off_c, 5, 63, 95
4, 994080, Pitch_bend_c, 5, 8320
4, 994080, Pitch_bend_c, 5, 8192
4, 994080, Note_off_c, 5, 59, 95
4, 994080, Pitch_bend_c, 5, 8320
4, 994080, Pitch_bend_c, 5, 8192
4, 994080, Note_off_c, 5, 54, 95
4, 994080, Pitch_bend_c, 5, 8320
4, 994080, Pitch_bend_c, 5, 8192
4, 994080, Note_off_c, 5, 47, 95
4, 994080, End_track
5, 0, Start_track
5, 0, Pitch_bend_c, 10, 8192
5, 0, Control_c, 10, 7, 127
5, 0, Control_c, 10, 10, 63
5, 0, Control_c, 10, 93, 0
5, 0, Control_c, 10, 91, 0
5, 0, Control_c, 10, 95, 0
5, 0, Control_c, 10, 92, 0
5, 0, Control_c, 10, 11, 127
5, 0, Program_c, 10, 34
5, 0, Control_c, 11, 7, 127
5, 0, Control_c, 11, 10, 63
5, 0, Control_c, 11, 93, 0
5, 0, Control_c, 11, 91, 0
5, 0, Control_c, 11, 95, 0
5, 0, Control_c, 11, 92, 0
5, 0, Control_c, 11, 11, 127
5, 0, Program_c, 11, 34
5, 30720, Note_on_c, 10, 35, 95
5, 31680, Note_off_c, 10, 35, 95
5, 31680, Note_on_c, 10, 47, 95
5, 32640, Note_off_c, 10, 47, 95
5, 32640, Note_on_c, 10, 40, 95
5, 33120, Note_off_c, 10, 40, 95
5, 33120, Note_on_c, 10, 39, 95
5, 33600, Note_off_c, 10, 39, 95
5, 33600, Note_on_c, 10, 37, 95
5, 34080, Note_off_c, 10, 37, 95
5, 34080, Note_on_c, 10, 35, 95
5, 35520, Note_off_c, 10, 35, 95
5, 35520, Note_on_c, 10, 47, 95
5, 36480, Note_off_c, 10, 47, 95
5, 36480, Note_on_c, 10, 40, 95
5, 36960, Note_off_c, 10, 40, 95
5, 36960, Note_on_c, 10, 39, 95
5, 37440, Note_off_c, 10, 39, 95
5, 37440, Note_on_c, 10, 37, 95
5, 37920, Note_off_c, 10, 37, 95
5, 37920, Note_on_c, 10, 35, 95
5, 39360, Note_off_c, 10, 35, 95
5, 39360, Note_on_c, 10, 47, 95
5, 40320, Note_off_c, 10, 47, 95
5, 40320, Note_on_c, 10, 40, 95
5, 40800, Note_off_c, 10, 40, 95
5, 40800, Note_on_c, 10, 39, 95
5, 41280, Note_off_c, 10, 39, 95
5, 41280, Note_on_c, 10, 37, 95
5, 41760, Note_off_c, 10, 37, 95
5, 41760, Note_on_c, 10, 35, 95
5, 43200, Note_off_c, 10, 35, 95
5, 43200, Note_on_c, 10, 47, 95
5, 44160, Note_off_c, 10, 47, 95
5, 44160, Note_on_c, 10, 40, 95
5, 44640, Note_off_c, 10, 40, 95
5, 44640, Note_on_c, 10, 39, 95
5, 45120, Note_off_c, 10, 39, 95
5, 45120, Note_on_c, 10, 37, 95
5, 45600, Note_off_c, 10, 37, 95
5, 45600, Note_on_c, 10, 35, 95
5, 47040, Note_off_c, 10, 35, 95
5, 47040, Note_on_c, 10, 47, 95
5, 48000, Note_off_c, 10, 47, 95
5, 48000, Note_on_c, 10, 40, 95
5, 48480, Note_off_c, 10, 40, 95
5, 48480, Note_on_c, 10, 39, 95
5, 48960, Note_off_c, 10, 39, 95
5, 48960, Note_on_c, 10, 37, 95
5, 49440, Note_off_c, 10, 37, 95
5, 49440, Note_on_c, 10, 35, 95
5, 49920, Note_off_c, 10, 35, 95
5, 49920, Note_on_c, 10, 33, 95
5, 50880, Note_off_c, 10, 33, 95
5, 50880, Note_on_c, 10, 33, 95
5, 51360, Note_off_c, 10, 33, 95
5, 51360, Note_on_c, 10, 40, 95
5, 52320, Note_off_c, 10, 40, 95
5, 52320, Note_on_c, 10, 40, 95
5, 52800, Note_off_c, 10, 40, 95
5, 52800, Note_on_c, 10, 33, 95
5, 53280, Note_off_c, 10, 33, 95
5, 53280, Note_on_c, 10, 27, 95
5, 53760, Note_off_c, 10, 27, 95
5, 53760, Note_on_c, 10, 28, 95
5, 54720, Note_off_c, 10, 28, 95
5, 54720, Note_on_c, 10, 28, 95
5, 55200, Note_off_c, 10, 28, 95
5, 55200, Note_on_c, 10, 33, 95
5, 56160, Note_off_c, 10, 33, 95
5, 56160, Note_on_c, 10, 33, 95
5, 56640, Note_off_c, 10, 33, 95
5, 56640, Note_on_c, 10, 28, 95
5, 57600, Note_off_c, 10, 28, 95
5, 57600, Note_on_c, 10, 35, 95
5, 58560, Note_off_c, 10, 35, 95
5, 58560, Note_on_c, 10, 47, 95
5, 59520, Note_off_c, 10, 47, 95
5, 59520, Note_on_c, 10, 40, 95
5, 60000, Note_off_c, 10, 40, 95
5, 60000, Note_on_c, 10, 39, 95
5, 60480, Note_off_c, 10, 39, 95
5, 60480, Note_on_c, 10, 37, 95
5, 60960, Note_off_c, 10, 37, 95
5, 60960, Note_on_c, 10, 35, 95
5, 62400, Note_off_c, 10, 35, 95
5, 62400, Note_on_c, 10, 47, 95
5, 63360, Note_off_c, 10, 47, 95
5, 63360, Note_on_c, 10, 40, 95
5, 63840, Note_off_c, 10, 40, 95
5, 63840, Note_on_c, 10, 39, 95
5, 64320, Note_off_c, 10, 39, 95
5, 64320, Note_on_c, 10, 37, 95
5, 64800, Note_off_c, 10, 37, 95
5, 64800, Note_on_c, 10, 35, 95
5, 66240, Note_off_c, 10, 35, 95
5, 66240, Note_on_c, 10, 47, 95
5, 67200, Note_off_c, 10, 47, 95
5, 67200, Note_on_c, 10, 40, 95
5, 67680, Note_off_c, 10, 40, 95
5, 67680, Note_on_c, 10, 39, 95
5, 68160, Note_off_c, 10, 39, 95
5, 68160, Note_on_c, 10, 37, 95
5, 68640, Note_off_c, 10, 37, 95
5, 68640, Note_on_c, 10, 35, 95
5, 70080, Note_off_c, 10, 35, 95
5, 70080, Note_on_c, 10, 47, 95
5, 71040, Note_off_c, 10, 47, 95
5, 71040, Note_on_c, 10, 40, 95
5, 71520, Note_off_c, 10, 40, 95
5, 71520, Note_on_c, 10, 39, 95
5, 72000, Note_off_c, 10, 39, 95
5, 72000, Note_on_c, 10, 37, 95
5, 72480, Note_off_c, 10, 37, 95
5, 72480, Note_on_c, 10, 35, 95
5, 73920, Note_off_c, 10, 35, 95
5, 73920, Note_on_c, 10, 47, 95
5, 74880, Note_off_c, 10, 47, 95
5, 74880, Note_on_c, 10, 40, 95
5, 75360, Note_off_c, 10, 40, 95
5, 75360, Note_on_c, 10, 39, 95
5, 75840, Note_off_c, 10, 39, 95
5, 75840, Note_on_c, 10, 37, 95
5, 76320, Note_off_c, 10, 37, 95
5, 76320, Note_on_c, 10, 35, 95
5, 76800, Note_off_c, 10, 35, 95
5, 76800, Note_on_c, 10, 33, 95
5, 77760, Note_off_c, 10, 33, 95
5, 77760, Note_on_c, 10, 33, 95
5, 78240, Note_off_c, 10, 33, 95
5, 78240, Note_on_c, 10, 40, 95
5, 79200, Note_off_c, 10, 40, 95
5, 79200, Note_on_c, 10, 40, 95
5, 79680, Note_off_c, 10, 40, 95
5, 79680, Note_on_c, 10, 33, 95
5, 80160, Note_off_c, 10, 33, 95
5, 80160, Note_on_c, 10, 27, 95
5, 80640, Note_off_c, 10, 27, 95
5, 80640, Note_on_c, 10, 28, 95
5, 81600, Note_off_c, 10, 28, 95
5, 81600, Note_on_c, 10, 28, 95
5, 82080, Note_off_c, 10, 28, 95
5, 82080, Note_on_c, 10, 33, 95
5, 83040, Note_off_c, 10, 33, 95
5, 83040, Note_on_c, 10, 33, 95
5, 83520, Note_off_c, 10, 33, 95
5, 83520, Note_on_c, 10, 28, 95
5, 84480, Note_off_c, 10, 28, 95
5, 84480, Note_on_c, 10, 35, 95
5, 85440, Note_off_c, 10, 35, 95
5, 85440, Note_on_c, 10, 47, 95
5, 86400, Note_off_c, 10, 47, 95
5, 86400, Note_on_c, 10, 40, 95
5, 86880, Note_off_c, 10, 40, 95
5, 86880, Note_on_c, 10, 39, 95
5, 87360, Note_off_c, 10, 39, 95
5, 87360, Note_on_c, 10, 37, 95
5, 87840, Note_off_c, 10, 37, 95
5, 87840, Note_on_c, 10, 35, 95
5, 88320, Note_off_c, 10, 35, 95
5, 123360, Note_on_c, 10, 28, 95
5, 123840, Note_off_c, 10, 28, 95
5, 123840, Note_on_c, 10, 28, 95
5, 124320, Note_off_c, 10, 28, 95
5, 124320, Note_on_c, 10, 27, 95
5, 124800, Note_off_c, 10, 27, 95
5, 124800, Note_on_c, 10, 28, 95
5, 125280, Note_off_c, 10, 28, 95
5, 125280, Note_on_c, 10, 27, 95
5, 125760, Note_off_c, 10, 27, 95
5, 125760, Note_on_c, 10, 28, 95
5, 126240, Note_off_c, 10, 28, 95
5, 126240, Note_on_c, 10, 27, 95
5, 126720, Note_off_c, 10, 27, 95
5, 468480, Note_on_c, 10, 35, 95
5, 469440, Note_off_c, 10, 35, 95
5, 469440, Note_on_c, 10, 35, 95
5, 470400, Note_off_c, 10, 35, 95
5, 470400, Note_on_c, 10, 35, 95
5, 471360, Note_off_c, 10, 35, 95
5, 471360, Note_on_c, 10, 35, 95
5, 472320, Note_off_c, 10, 35, 95
5, 472320, Note_on_c, 10, 35, 95
5, 473280, Note_off_c, 10, 35, 95
5, 473280, Note_on_c, 10, 35, 95
5, 474000, Note_off_c, 10, 35, 95
5, 474000, Note_on_c, 10, 35, 95
5, 474240, Note_off_c, 10, 35, 95
5, 474240, Note_on_c, 10, 28, 95
5, 474480, Note_off_c, 10, 28, 95
5, 474480, Note_on_c, 10, 30, 70
5, 474720, Note_off_c, 10, 30, 70
5, 474720, Note_on_c, 10, 33, 95
5, 475200, Note_off_c, 10, 33, 95
5, 475200, Note_on_c, 10, 35, 95
5, 475680, Note_off_c, 10, 35, 95
5, 475680, Note_on_c, 10, 28, 95
5, 476640, Note_off_c, 10, 28, 95
5, 476640, Note_on_c, 10, 28, 95
5, 477120, Note_off_c, 10, 28, 95
5, 477120, Note_on_c, 10, 40, 95
5, 477360, Note_off_c, 10, 40, 95
5, 477360, Note_on_c, 10, 40, 95
5, 477600, Note_off_c, 10, 40, 95
5, 477840, Note_on_c, 10, 40, 95
5, 478080, Note_off_c, 10, 40, 95
5, 478320, Note_on_c, 10, 40, 95
5, 478800, Note_off_c, 10, 40, 95
5, 478800, Note_on_c, 10, 40, 95
5, 479040, Note_off_c, 10, 40, 95
5, 479040, Note_on_c, 10, 33, 95
5, 479280, Note_off_c, 10, 33, 95
5, 479280, Note_on_c, 10, 35, 70
5, 479520, Note_off_c, 10, 35, 70
5, 479520, Note_on_c, 10, 38, 95
5, 480000, Note_off_c, 10, 38, 95
5, 480000, Note_on_c, 10, 35, 95
5, 480960, Note_off_c, 10, 35, 95
5, 480960, Note_on_c, 10, 35, 95
5, 481680, Note_off_c, 10, 35, 95
5, 481680, Note_on_c, 10, 35, 95
5, 481920, Note_off_c, 10, 35, 95
5, 481920, Note_on_c, 10, 28, 95
5, 482160, Note_off_c, 10, 28, 95
5, 482160, Note_on_c, 10, 30, 70
5, 482400, Note_off_c, 10, 30, 70
5, 482400, Note_on_c, 10, 33, 95
5, 482880, Note_off_c, 10, 33, 95
5, 482880, Note_on_c, 10, 35, 95
5, 483360, Note_off_c, 10, 35, 95
5, 483360, Note_on_c, 10, 28, 95
5, 484320, Note_off_c, 10, 28, 95
5, 484320, Note_on_c, 10, 28, 95
5, 484800, Note_off_c, 10, 28, 95
5, 484800, Note_on_c, 10, 40, 95
5, 485040, Note_off_c, 10, 40, 95
5, 485040, Note_on_c, 10, 40, 95
5, 485280, Note_off_c, 10, 40, 95
5, 485520, Note_on_c, 10, 40, 95
5, 485760, Note_off_c, 10, 40, 95
5, 486000, Note_on_c, 10, 40, 95
5, 486480, Note_off_c, 10, 40, 95
5, 486480, Note_on_c, 10, 40, 95
5, 486720, Note_off_c, 10, 40, 95
5, 486720, Note_on_c, 10, 33, 95
5, 486960, Note_off_c, 10, 33, 95
5, 486960, Note_on_c, 10, 35, 70
5, 487200, Note_off_c, 10, 35, 70
5, 487200, Note_on_c, 10, 38, 95
5, 487680, Note_off_c, 10, 38, 95
5, 487680, End_track
6, 0, Start_track
6, 0, Pitch_bend_c, 9, 8192
6, 0, Control_c, 9, 7, 127
6, 0, Control_c, 9, 10, 63
6, 0, Control_c, 9, 93, 0
6, 0, Control_c, 9, 91, 0
6, 0, Control_c, 9, 95, 0
6, 0, Control_c, 9, 92, 0
6, 0, Control_c, 9, 11, 127
6, 0, Program_c, 9, 0
6, 0, Note_on_c, 9, 38, 95
6, 0, Note_on_c, 9, 40, 95
6, 960, Note_off_c, 9, 38, 95
6, 960, Note_off_c, 9, 40, 95
6, 960, Note_on_c, 9, 38, 95
6, 960, Note_on_c, 9, 54, 95
6, 1920, Note_off_c, 9, 38, 95
6, 1920, Note_off_c, 9, 54, 95
6, 1920, Note_on_c, 9, 38, 95
6, 1920, Note_on_c, 9, 54, 95
6, 2400, Note_off_c, 9, 38, 95
6, 2400, Note_off_c, 9, 54, 95
6, 2400, Note_on_c, 9, 35, 95
6, 2400, Note_on_c, 9, 59, 95
6, 2880, Note_off_c, 9, 35, 95
6, 2880, Note_off_c, 9, 59, 95
6, 2880, Note_on_c, 9, 38, 95
6, 2880, Note_on_c, 9, 52, 95
6, 3360, Note_off_c, 9, 38, 95
6, 3360, Note_off_c, 9, 52, 95
6, 3360, Note_on_c, 9, 35, 95
6, 3360, Note_on_c, 9, 59, 95
6, 3600, Note_off_c, 9, 35, 95
6, 3600, Note_off_c, 9, 59, 95
6, 3840, Note_on_c, 9, 38, 95
6, 3840, Note_on_c, 9, 40, 95
6, 4800, Note_off_c, 9, 38, 95
6, 4800, Note_off_c, 9, 40, 95
6, 4800, Note_on_c, 9, 38, 95
6, 4800, Note_on_c, 9, 54, 95
6, 5760, Note_off_c, 9, 38, 95
6, 5760, Note_off_c, 9, 54, 95
6, 5760, Note_on_c, 9, 38, 95
6, 5760, Note_on_c, 9, 54, 95
6, 6240, Note_off_c, 9, 38, 95
6, 6240, Note_off_c, 9, 54, 95
6, 6240, Note_on_c, 9, 35, 95
6, 6240, Note_on_c, 9, 59, 95
6, 6720, Note_off_c, 9, 35, 95
6, 6720, Note_off_c, 9, 59, 95
6, 6720, Note_on_c, 9, 38, 95
6, 6720, Note_on_c, 9, 52, 95
6, 7200, Note_off_c, 9, 38, 95
6, 7200, Note_off_c, 9, 52, 95
6, 7200, Note_on_c, 9, 35, 95
6, 7200, Note_on_c, 9, 59, 95
6, 7440, Note_off_c, 9, 35, 95
6, 7440, Note_off_c, 9, 59, 95
6, 7680, Note_on_c, 9, 38, 95
6, 7680, Note_on_c, 9, 40, 95
6, 8640, Note_off_c, 9, 38, 95
6, 8640, Note_off_c, 9, 40, 95
6, 8640, Note_on_c, 9, 38, 95
6, 8640, Note_on_c, 9, 54, 95
6, 9600, Note_off_c, 9, 38, 95
6, 9600, Note_off_c, 9, 54, 95
6, 9600, Note_on_c, 9, 38, 95
6, 9600, Note_on_c, 9, 54, 95
6, 10080, Note_off_c, 9, 38, 95
6, 10080, Note_off_c, 9, 54, 95
6, 10080, Note_on_c, 9, 35, 95
6, 10080, Note_on_c, 9, 59, 95
6, 10560, Note_off_c, 9, 35, 95
6, 10560, Note_off_c, 9, 59, 95
6, 10560, Note_on_c, 9, 38, 95
6, 10560, Note_on_c, 9, 52, 95
6, 11040, Note_off_c, 9, 38, 95
6, 11040, Note_off_c, 9, 52, 95
6, 11040, Note_on_c, 9, 35, 95
6, 11040, Note_on_c, 9, 59, 95
6, 11280, Note_off_c, 9, 35, 95
6, 11280, Note_off_c, 9, 59, 95
6, 11520, Note_on_c, 9, 38, 95
6, 11520, Note_on_c, 9, 40, 95
6, 12480, Note_off_c, 9, 38, 95
6, 12480, Note_off_c, 9, 40, 95
6, 12480, Note_on_c, 9, 38, 95
6, 12480, Note_on_c, 9, 54, 95
6, 13440, Note_off_c, 9, 38, 95
6, 13440, Note_off_c, 9, 54, 95
6, 13440, Note_on_c, 9, 38, 95
6, 13440, Note_on_c, 9, 54, 95
6, 13920, Note_off_c, 9, 38, 95
6, 13920, Note_off_c, 9, 54, 95
6, 13920, Note_on_c, 9, 35, 95
6, 13920, Note_on_c, 9, 59, 95
6, 14400, Note_off_c, 9, 35, 95
6, 14400, Note_off_c, 9, 59, 95
6, 14400, Note_on_c, 9, 38, 95
6, 14400, Note_on_c, 9, 52, 95
6, 14880, Note_off_c, 9, 38, 95
6, 14880, Note_off_c, 9, 52, 95
6, 14880, Note_on_c, 9, 35, 95
6, 14880, Note_on_c, 9, 59, 95
6, 15120, Note_off_c, 9, 35, 95
6, 15120, Note_off_c, 9, 59, 95
6, 15360, Note_on_c, 9, 38, 95
6, 15360, Note_on_c, 9, 40, 95
6, 16320, Note_off_c, 9, 38, 95
6, 16320, Note_off_c, 9, 40, 95
6, 16320, Note_on_c, 9, 38, 95
6, 16320, Note_on_c, 9, 54, 95
6, 17280, Note_off_c, 9, 38, 95
6, 17280, Note_off_c, 9, 54, 95
6, 17280, Note_on_c, 9, 38, 95
6, 17280, Note_on_c, 9, 54, 95
6, 17760, Note_off_c, 9, 38, 95
6, 17760, Note_off_c, 9, 54, 95
6, 17760, Note_on_c, 9, 35, 95
6, 17760, Note_on_c, 9, 59, 95
6, 18240, Note_off_c, 9, 35, 95
6, 18240, Note_off_c, 9, 59, 95
6, 18240, Note_on_c, 9, 38, 95
6, 18240, Note_on_c, 9, 52, 95
6, 18720, Note_off_c, 9, 38, 95
6, 18720, Note_off_c, 9, 52, 95
6, 18720, Note_on_c, 9, 35, 95
6, 18720, Note_on_c, 9, 59, 95
6, 18960, Note_off_c, 9, 35, 95
6, 18960, Note_off_c, 9, 59, 95
6, 19200, Note_on_c, 9, 38, 95
6, 19200, Note_on_c, 9, 40, 95
6, 20160, Note_off_c, 9, 38, 95
6, 20160, Note_off_c, 9, 40, 95
6, 20160, Note_on_c, 9, 38, 95
6, 20160, Note_on_c, 9, 54, 95
6, 21120, Note_off_c, 9, 38, 95
6, 21120, Note_off_c, 9, 54, 95
6, 21120, Note_on_c, 9, 38, 95
6, 21120, Note_on_c, 9, 54, 95
6, 21600, Note_off_c, 9, 38, 95
6, 21600, Note_off_c, 9, 54, 95
6, 21600, Note_on_c, 9, 35, 95
6, 21600, Note_on_c, 9, 59, 95
6, 22080, Note_off_c, 9, 35, 95
6, 22080, Note_off_c, 9, 59, 95
6, 22080, Note_on_c, 9, 38, 95
6, 22080, Note_on_c, 9, 52, 95
6, 22560, Note_off_c, 9, 38, 95
6, 22560, Note_off_c, 9, 52, 95
6, 22560, Note_on_c, 9, 35, 95
6, 22560, Note_on_c, 9, 59, 95
6, 22800, Note_off_c, 9, 35, 95
6, 22800, Note_off_c, 9, 59, 95
6, 23040, Note_on_c, 9, 38, 95
6, 23040, Note_on_c, 9, 40, 95
6, 24000, Note_off_c, 9, 38, 95
6, 24000, Note_off_c, 9, 40, 95
6, 24000, Note_on_c, 9, 38, 95
6, 24000, Note_on_c, 9, 54, 95
6, 24960, Note_off_c, 9, 38, 95
6, 24960, Note_off_c, 9, 54, 95
6, 24960, Note_on_c, 9, 38, 95
6, 24960, Note_on_c, 9, 54, 95
6, 25440, Note_off_c, 9, 38, 95
6, 25440, Note_off_c, 9, 54, 95
6, 25440, Note_on_c, 9, 35, 95
6, 25440, Note_on_c, 9, 59, 95
6, 25920, Note_off_c, 9, 35, 95
6, 25920, Note_off_c, 9, 59, 95
6, 25920, Note_on_c, 9, 38, 95
6, 25920, Note_on_c, 9, 52, 95
6, 26400, Note_off_c, 9, 38, 95
6, 26400, Note_off_c, 9, 52, 95
6, 26400, Note_on_c, 9, 35, 95
6, 26400, Note_on_c, 9, 59, 95
6, 26640, Note_off_c, 9, 35, 95
6, 26640, Note_off_c, 9, 59, 95
6, 26880, Note_on_c, 9, 38, 95
6, 26880, Note_on_c, 9, 40, 95
6, 27840, Note_off_c, 9, 38, 95
6, 27840, Note_off_c, 9, 40, 95
6, 27840, Note_on_c, 9, 38, 95
6, 27840, Note_on_c, 9, 54, 95
6, 28800, Note_off_c, 9, 38, 95
6, 28800, Note_off_c, 9, 54, 95
6, 28800, Note_on_c, 9, 38, 95
6, 28800, Note_on_c, 9, 54, 95
6, 29280, Note_off_c, 9, 38, 95
6, 29280, Note_off_c, 9, 54, 95
6, 29280, Note_on_c, 9, 35, 95
6, 29280, Note_on_c, 9, 59, 95
6, 29760, Note_off_c, 9, 35, 95
6, 29760, Note_off_c, 9, 59, 95
6, 29760, Note_on_c, 9, 38, 95
6, 29760, Note_on_c, 9, 52, 95
6, 30240, Note_off_c, 9, 38, 95
6, 30240, Note_off_c, 9, 52, 95
6, 30240, Note_on_c, 9, 35, 95
6, 30240, Note_on_c, 9, 59, 95
6, 30480, Note_off_c, 9, 35, 95
6, 30480, Note_off_c, 9, 59, 95
6, 30720, Note_on_c, 9, 38, 95
6, 30720, Note_on_c, 9, 40, 95
6, 31680, Note_off_c, 9, 38, 95
6, 31680, Note_off_c, 9, 40, 95
6, 31680, Note_on_c, 9, 38, 95
6, 31680, Note_on_c, 9, 54, 95
6, 32640, Note_off_c, 9, 38, 95
6, 32640, Note_off_c, 9, 54, 95
6, 32640, Note_on_c, 9, 38, 95
6, 32640, Note_on_c, 9, 54, 95
6, 33120, Note_off_c, 9, 38, 95
6, 33120, Note_off_c, 9, 54, 95
6, 33120, Note_on_c, 9, 35, 95
6, 33120, Note_on_c, 9, 59, 95
6, 33600, Note_off_c, 9, 35, 95
6, 33600, Note_off_c, 9, 59, 95
6, 33600, Note_on_c, 9, 38, 95
6, 33600, Note_on_c, 9, 52, 95
6, 34080, Note_off_c, 9, 38, 95
6, 34080, Note_off_c, 9, 52, 95
6, 34080, Note_on_c, 9, 35, 95
6, 34080, Note_on_c, 9, 59, 95
6, 34320, Note_off_c, 9, 35, 95
6, 34320, Note_off_c, 9, 59, 95
6, 34560, Note_on_c, 9, 38, 95
6, 34560, Note_on_c, 9, 40, 95
6, 35520, Note_off_c, 9, 38, 95
6, 35520, Note_off_c, 9, 40, 95
6, 35520, Note_on_c, 9, 38, 95
6, 35520, Note_on_c, 9, 54, 95
6, 36480, Note_off_c, 9, 38, 95
6, 36480, Note_off_c, 9, 54, 95
6, 36480, Note_on_c, 9, 38, 95
6, 36480, Note_on_c, 9, 54, 95
6, 36960, Note_off_c, 9, 38, 95
6, 36960, Note_off_c, 9, 54, 95
6, 36960, Note_on_c, 9, 35, 95
6, 36960, Note_on_c, 9, 59, 95
6, 37440, Note_off_c, 9, 35, 95
6, 37440, Note_off_c, 9, 59, 95
6, 37440, Note_on_c, 9, 38, 95
6, 37440, Note_on_c, 9, 52, 95
6, 37920, Note_off_c, 9, 38, 95
6, 37920, Note_off_c, 9, 52, 95
6, 37920, Note_on_c, 9, 35, 95
6, 37920, Note_on_c, 9, 59, 95
6, 38160, Note_off_c, 9, 35, 95
6, 38160, Note_off_c, 9, 59, 95
6, 38400, Note_on_c, 9, 38, 95
6, 38400, Note_on_c, 9, 40, 95
6, 39360, Note_off_c, 9, 38, 95
6, 39360, Note_off_c, 9, 40, 95
6, 39360, Note_on_c, 9, 38, 95
6, 39360, Note_on_c, 9, 54, 95
6, 40320, Note_off_c, 9, 38, 95
6, 40320, Note_off_c, 9, 54, 95
6, 40320, Note_on_c, 9, 38, 95
6, 40320, Note_on_c, 9, 54, 95
6, 40800, Note_off_c, 9, 38, 95
6, 40800, Note_off_c, 9, 54, 95
6, 40800, Note_on_c, 9, 35, 95
6, 40800, Note_on_c, 9, 59, 95
6, 41280, Note_off_c, 9, 35, 95
6, 41280, Note_off_c, 9, 59, 95
6, 41280, Note_on_c, 9, 38, 95
6, 41280, Note_on_c, 9, 52, 95
6, 41760, Note_off_c, 9, 38, 95
6, 41760, Note_off_c, 9, 52, 95
6, 41760, Note_on_c, 9, 35, 95
6, 41760, Note_on_c, 9, 59, 95
6, 42000, Note_off_c, 9, 35, 95
6, 42000, Note_off_c, 9, 59, 95
6, 42240, Note_on_c, 9, 38, 95
6, 42240, Note_on_c, 9, 40, 95
6, 43200, Note_off_c, 9, 38, 95
6, 43200, Note_off_c, 9, 40, 95
6, 43200, Note_on_c, 9, 38, 95
6, 43200, Note_on_c, 9, 54, 95
6, 44160, Note_off_c, 9, 38, 95
6, 44160, Note_off_c, 9, 54, 95
6, 44160, Note_on_c, 9, 38, 95
6, 44160, Note_on_c, 9, 54, 95
6, 44640, Note_off_c, 9, 38, 95
6, 44640, Note_off_c, 9, 54, 95
6, 44640, Note_on_c, 9, 35, 95
6, 44640, Note_on_c, 9, 59, 95
6, 45120, Note_off_c, 9, 35, 95
6, 45120, Note_off_c, 9, 59, 95
6, 45120, Note_on_c, 9, 38, 95
6, 45120, Note_on_c, 9, 52, 95
6, 45600, Note_off_c, 9, 38, 95
6, 45600, Note_off_c, 9, 52, 95
6, 45600, Note_on_c, 9, 35, 95
6, 45600, Note_on_c, 9, 59, 95
6, 45840, Note_off_c, 9, 35, 95
6, 45840, Note_off_c, 9, 59, 95
6, 46080, Note_on_c, 9, 38, 95
6, 46080, Note_on_c, 9, 40, 95
6, 47040, Note_off_c, 9, 38, 95
6, 47040, Note_off_c, 9, 40, 95
6, 47040, Note_on_c, 9, 38, 95
6, 47040, Note_on_c, 9, 54, 95
6, 48000, Note_off_c, 9, 38, 95
6, 48000, Note_off_c, 9, 54, 95
6, 48000, Note_on_c, 9, 38, 95
6, 48000, Note_on_c, 9, 54, 95
6, 48480, Note_off_c, 9, 38, 95
6, 48480, Note_off_c, 9, 54, 95
6, 48480, Note_on_c, 9, 35, 95
6, 48480, Note_on_c, 9, 59, 95
6, 48960, Note_off_c, 9, 35, 95
6, 48960, Note_off_c, 9, 59, 95
6, 48960, Note_on_c, 9, 38, 95
6, 48960, Note_on_c, 9, 52, 95
6, 49440, Note_off_c, 9, 38, 95
6, 49440, Note_off_c, 9, 52, 95
6, 49440, Note_on_c, 9, 35, 95
6, 49440, Note_on_c, 9, 59, 95
6, 49680, Note_off_c, 9, 35, 95
6, 49680, Note_off_c, 9, 59, 95
6, 49920, Note_on_c, 9, 38, 95
6, 49920, Note_on_c, 9, 40, 95
6, 50880, Note_off_c, 9, 38, 95
6, 50880, Note_off_c, 9, 40, 95
6, 50880, Note_on_c, 9, 38, 95
6, 50880, Note_on_c, 9, 54, 95
6, 51840, Note_off_c, 9, 38, 95
6, 51840, Note_off_c, 9, 54, 95
6, 51840, Note_on_c, 9, 38, 95
6, 51840, Note_on_c, 9, 54, 95
6, 52320, Note_off_c, 9, 38, 95
6, 52320, Note_off_c, 9, 54, 95
6, 52320, Note_on_c, 9, 35, 95
6, 52320, Note_on_c, 9, 59, 95
6, 52800, Note_off_c, 9, 35, 95
6, 52800, Note_off_c, 9, 59, 95
6, 52800, Note_on_c, 9, 38, 95
6, 52800, Note_on_c, 9, 52, 95
6, 53280, Note_off_c, 9, 38, 95
6, 53280, Note_off_c, 9, 52, 95
6, 53280, Note_on_c, 9, 35, 95
6, 53280, Note_on_c, 9, 59, 95
6, 53520, Note_off_c, 9, 35, 95
6, 53520, Note_off_c, 9, 59, 95
6, 53760, Note_on_c, 9, 38, 95
6, 53760, Note_on_c, 9, 40, 95
6, 54720, Note_off_c, 9, 38, 95
6, 54720, Note_off_c, 9, 40, 95
6, 54720, Note_on_c, 9, 38, 95
6, 54720, Note_on_c, 9, 54, 95
6, 55680, Note_off_c, 9, 38, 95
6, 55680, Note_off_c, 9, 54, 95
6, 55680, Note_on_c, 9, 38, 95
6, 55680, Note_on_c, 9, 54, 95
6, 56160, Note_off_c, 9, 38, 95
6, 56160, Note_off_c, 9, 54, 95
6, 56160, Note_on_c, 9, 35, 95
6, 56160, Note_on_c, 9, 59, 95
6, 56640, Note_off_c, 9, 35, 95
6, 56640, Note_off_c, 9, 59, 95
6, 56640, Note_on_c, 9, 38, 95
6, 56640, Note_on_c, 9, 52, 95
6, 57120, Note_off_c, 9, 38, 95
6, 57120, Note_off_c, 9, 52, 95
6, 57120, Note_on_c, 9, 35, 95
6, 57120, Note_on_c, 9, 59, 95
6, 57360, Note_off_c, 9, 35, 95
6, 57360, Note_off_c, 9, 59, 95
6, 57600, Note_on_c, 9, 38, 95
6, 57600, Note_on_c, 9, 40, 95
6, 58560, Note_off_c, 9, 38, 95
6, 58560, Note_off_c, 9, 40, 95
6, 58560, Note_on_c, 9, 38, 95
6, 58560, Note_on_c, 9, 54, 95
6, 59520, Note_off_c, 9, 38, 95
6, 59520, Note_off_c, 9, 54, 95
6, 59520, Note_on_c, 9, 38, 95
6, 59520, Note_on_c, 9, 54, 95
6, 60000, Note_off_c, 9, 38, 95
6, 60000, Note_off_c, 9, 54, 95
6, 60000, Note_on_c, 9, 35, 95
6, 60000, Note_on_c, 9, 59, 95
6, 60480, Note_off_c, 9, 35, 95
6, 60480, Note_off_c, 9, 59, 95
6, 60480, Note_on_c, 9, 38, 95
6, 60480, Note_on_c, 9, 52, 95
6, 60960, Note_off_c, 9, 38, 95
6, 60960, Note_off_c, 9, 52, 95
6, 60960, Note_on_c, 9, 35, 95
6, 60960, Note_on_c, 9, 59, 95
6, 61200, Note_off_c, 9, 35, 95
6, 61200, Note_off_c, 9, 59, 95
6, 61440, Note_on_c, 9, 38, 95
6, 61440, Note_on_c, 9, 40, 95
6, 62400, Note_off_c, 9, 38, 95
6, 62400, Note_off_c, 9, 40, 95
6, 62400, Note_on_c, 9, 38, 95
6, 62400, Note_on_c, 9, 54, 95
6, 63360, Note_off_c, 9, 38, 95
6, 63360, Note_off_c, 9, 54, 95
6, 63360, Note_on_c, 9, 38, 95
6, 63360, Note_on_c, 9, 54, 95
6, 63840, Note_off_c, 9, 38, 95
6, 63840, Note_off_c, 9, 54, 95
6, 63840, Note_on_c, 9, 35, 95
6, 63840, Note_on_c, 9, 59, 95
6, 64320, Note_off_c, 9, 35, 95
6, 64320, Note_off_c, 9, 59, 95
6, 64320, Note_on_c, 9, 38, 95
6, 64320, Note_on_c, 9, 52, 95
6, 64800, Note_off_c, 9, 38, 95
6, 64800, Note_off_c, 9, 52, 95
6, 64800, Note_on_c, 9, 35, 95
6, 64800, Note_on_c, 9, 59, 95
6, 65040, Note_off_c, 9, 35, 95
6, 65040, Note_off_c, 9, 59, 95
6, 65280, Note_on_c, 9, 38, 95
6, 65280, Note_on_c, 9, 40, 95
6, 66240, Note_off_c, 9, 38, 95
6, 66240, Note_off_c, 9, 40, 95
6, 66240, Note_on_c, 9, 38, 95
6, 66240, Note_on_c, 9, 54, 95
6, 67200, Note_off_c, 9, 38, 95
6, 67200, Note_off_c, 9, 54, 95
6, 67200, Note_on_c, 9, 38, 95
6, 67200, Note_on_c, 9, 54, 95
6, 67680, Note_off_c, 9, 38, 95
6, 67680, Note_off_c, 9, 54, 95
6, 67680, Note_on_c, 9, 35, 95
6, 67680, Note_on_c, 9, 59, 95
6, 68160, Note_off_c, 9, 35, 95
6, 68160, Note_off_c, 9, 59, 95
6, 68160, Note_on_c, 9, 38, 95
6, 68160, Note_on_c, 9, 52, 95
6, 68640, Note_off_c, 9, 38, 95
6, 68640, Note_off_c, 9, 52, 95
6, 68640, Note_on_c, 9, 35, 95
6, 68640, Note_on_c, 9, 59, 95
6, 68880, Note_off_c, 9, 35, 95
6, 68880, Note_off_c, 9, 59, 95
6, 69120, Note_on_c, 9, 38, 95
6, 69120, Note_on_c, 9, 40, 95
6, 70080, Note_off_c, 9, 38, 95
6, 70080, Note_off_c, 9, 40, 95
6, 70080, Note_on_c, 9, 38, 95
6, 70080, Note_on_c, 9, 54, 95
6, 71040, Note_off_c, 9, 38, 95
6, 71040, Note_off_c, 9, 54, 95
6, 71040, Note_on_c, 9, 38, 95
6, 71040, Note_on_c, 9, 54, 95
6, 71520, Note_off_c, 9, 38, 95
6, 71520, Note_off_c, 9, 54, 95
6, 71520, Note_on_c, 9, 35, 95
6, 71520, Note_on_c, 9, 59, 95
6, 72000, Note_off_c, 9, 35, 95
6, 72000, Note_off_c, 9, 59, 95
6, 72000, Note_on_c, 9, 38, 95
6, 72000, Note_on_c, 9, 52, 95
6, 72480, Note_off_c, 9, 38, 95
6, 72480, Note_off_c, 9, 52, 95
6, 72480, Note_on_c, 9, 35, 95
6, 72480, Note_on_c, 9, 59, 95
6, 72720, Note_off_c, 9, 35, 95
6, 72720, Note_off_c, 9, 59, 95
6, 72960, Note_on_c, 9, 38, 95
6, 72960, Note_on_c, 9, 40, 95
6, 73920, Note_off_c, 9, 38, 95
6, 73920, Note_off_c, 9, 40, 95
6, 73920, Note_on_c, 9, 38, 95
6, 73920, Note_on_c, 9, 54, 95
6, 74880, Note_off_c, 9, 38, 95
6, 74880, Note_off_c, 9, 54, 95
6, 74880, Note_on_c, 9, 38, 95
6, 74880, Note_on_c, 9, 54, 95
6, 75360, Note_off_c, 9, 38, 95
6, 75360, Note_off_c, 9, 54, 95
6, 75360, Note_on_c, 9, 35, 95
6, 75360, Note_on_c, 9, 59, 95
6, 75840, Note_off_c, 9, 35, 95
6, 75840, Note_off_c, 9, 59, 95
6, 75840, Note_on_c, 9, 38, 95
6, 75840, Note_on_c, 9, 52, 95
6, 76320, Note_off_c, 9, 38, 95
6, 76320, Note_off_c, 9, 52, 95
6, 76320, Note_on_c, 9, 35, 95
6, 76320, Note_on_c, 9, 59, 95
6, 76560, Note_off_c, 9, 35, 95
6, 76560, Note_off_c, 9, 59, 95
6, 76800, Note_on_c, 9, 38, 95
6, 76800, Note_on_c, 9, 40, 95
6, 77760, Note_off_c, 9, 38, 95
6, 77760, Note_off_c, 9, 40, 95
6, 77760, Note_on_c, 9, 38, 95
6, 77760, Note_on_c, 9, 54, 95
6, 78720, Note_off_c, 9, 38, 95
6, 78720, Note_off_c, 9, 54, 95
6, 78720, Note_on_c, 9, 38, 95
6, 78720, Note_on_c, 9, 54, 95
6, 79200, Note_off_c, 9, 38, 95
6, 79200, Note_off_c, 9, 54, 95
6, 79200, Note_on_c, 9, 35, 95
6, 79200, Note_on_c, 9, 59, 95
6, 79680, Note_off_c, 9, 35, 95
6, 79680, Note_off_c, 9, 59, 95
6, 79680, Note_on_c, 9, 38, 95
6, 79680, Note_on_c, 9, 52, 95
6, 80160, Note_off_c, 9, 38, 95
6, 80160, Note_off_c, 9, 52, 95
6, 80160, Note_on_c, 9, 35, 95
6, 80160, Note_on_c, 9, 59, 95
6, 80400, Note_off_c, 9, 35, 95
6, 80400, Note_off_c, 9, 59, 95
6, 80640, Note_on_c, 9, 38, 95
6, 80640, Note_on_c, 9, 40, 95
6, 81600, Note_off_c, 9, 38, 95
6, 81600, Note_off_c, 9, 40, 95
6, 81600, Note_on_c, 9, 38, 95
6, 81600, Note_on_c, 9, 54, 95
6, 82560, Note_off_c, 9, 38, 95
6, 82560, Note_off_c, 9, 54, 95
6, 82560, Note_on_c, 9, 38, 95
6, 82560, Note_on_c, 9, 54, 95
6, 83040, Note_off_c, 9, 38, 95
6, 83040, Note_off_c, 9, 54, 95
6, 83040, Note_on_c, 9, 35, 95
6, 83040, Note_on_c, 9, 59, 95
6, 83520, Note_off_c, 9, 35, 95
6, 83520, Note_off_c, 9, 59, 95
6, 83520, Note_on_c, 9, 38, 95
6, 83520, Note_on_c, 9, 52, 95
6, 84000, Note_off_c, 9, 38, 95
6, 84000, Note_off_c, 9, 52, 95
6, 84000, Note_on_c, 9, 35, 95
6, 84000, Note_on_c, 9, 59, 95
6, 84240, Note_off_c, 9, 35, 95
6, 84240, Note_off_c, 9, 59, 95
6, 84480, Note_on_c, 9, 38, 95
6, 84480, Note_on_c, 9, 40, 95
6, 85440, Note_off_c, 9, 38, 95
6, 85440, Note_off_c, 9, 40, 95
6, 85440, Note_on_c, 9, 38, 95
6, 85440, Note_on_c, 9, 54, 95
6, 86400, Note_off_c, 9, 38, 95
6, 86400, Note_off_c, 9, 54, 95
6, 86400, Note_on_c, 9, 38, 95
6, 86400, Note_on_c, 9, 54, 95
6, 86880, Note_off_c, 9, 38, 95
6, 86880, Note_off_c, 9, 54, 95
6, 86880, Note_on_c, 9, 35, 95
6, 86880, Note_on_c, 9, 59, 95
6, 87360, Note_off_c, 9, 35, 95
6, 87360, Note_off_c, 9, 59, 95
6, 87360, Note_on_c, 9, 38, 95
6, 87360, Note_on_c, 9, 52, 95
6, 87840, Note_off_c, 9, 38, 95
6, 87840, Note_off_c, 9, 52, 95
6, 87840, Note_on_c, 9, 35, 95
6, 87840, Note_on_c, 9, 59, 95
6, 88080, Note_off_c, 9, 35, 95
6, 88080, Note_off_c, 9, 59, 95
6, 88320, Note_on_c, 9, 38, 95
6, 88320, Note_on_c, 9, 40, 95
6, 89280, Note_off_c, 9, 38, 95
6, 89280, Note_off_c, 9, 40, 95
6, 89280, Note_on_c, 9, 38, 95
6, 89280, Note_on_c, 9, 54, 95
6, 90240, Note_off_c, 9, 38, 95
6, 90240, Note_off_c, 9, 54, 95
6, 90240, Note_on_c, 9, 38, 95
6, 90240, Note_on_c, 9, 54, 95
6, 90720, Note_off_c, 9, 38, 95
6, 90720, Note_off_c, 9, 54, 95
6, 90720, Note_on_c, 9, 35, 95
6, 90720, Note_on_c, 9, 59, 95
6, 91200, Note_off_c, 9, 35, 95
6, 91200, Note_off_c, 9, 59, 95
6, 91200, Note_on_c, 9, 38, 95
6, 91200, Note_on_c, 9, 52, 95
6, 91680, Note_off_c, 9, 38, 95
6, 91680, Note_off_c, 9, 52, 95
6, 91680, Note_on_c, 9, 35, 95
6, 91680, Note_on_c, 9, 59, 95
6, 91920, Note_off_c, 9, 35, 95
6, 91920, Note_off_c, 9, 59, 95
6, 92160, Note_on_c, 9, 38, 95
6, 92160, Note_on_c, 9, 40, 95
6, 93120, Note_off_c, 9, 38, 95
6, 93120, Note_off_c, 9, 40, 95
6, 93120, Note_on_c, 9, 38, 95
6, 93120, Note_on_c, 9, 54, 95
6, 94080, Note_off_c, 9, 38, 95
6, 94080, Note_off_c, 9, 54, 95
6, 94080, Note_on_c, 9, 38, 95
6, 94080, Note_on_c, 9, 54, 95
6, 94560, Note_off_c, 9, 38, 95
6, 94560, Note_off_c, 9, 54, 95
6, 94560, Note_on_c, 9, 35, 95
6, 94560, Note_on_c, 9, 59, 95
6, 95040, Note_off_c, 9, 35, 95
6, 95040, Note_off_c, 9, 59, 95
6, 95040, Note_on_c, 9, 38, 95
6, 95040, Note_on_c, 9, 52, 95
6, 95520, Note_off_c, 9, 38, 95
6, 95520, Note_off_c, 9, 52, 95
6, 95520, Note_on_c, 9, 35, 95
6, 95520, Note_on_c, 9, 59, 95
6, 95760, Note_off_c, 9, 35, 95
6, 95760, Note_off_c, 9, 59, 95
6, 96000, Note_on_c, 9, 38, 95
6, 96000, Note_on_c, 9, 40, 95
6, 96960, Note_off_c, 9, 38, 95
6, 96960, Note_off_c, 9, 40, 95
6, 96960, Note_on_c, 9, 38, 95
6, 96960, Note_on_c, 9, 54, 95
6, 97920, Note_off_c, 9, 38, 95
6, 97920, Note_off_c, 9, 54, 95
6, 97920, Note_on_c, 9, 38, 95
6, 97920, Note_on_c, 9, 54, 95
6, 98400, Note_off_c, 9, 38, 95
6, 98400, Note_off_c, 9, 54, 95
6, 98400, Note_on_c, 9, 35, 95
6, 98400, Note_on_c, 9, 59, 95
6, 98880, Note_off_c, 9, 35, 95
6, 98880, Note_off_c, 9, 59, 95
6, 98880, Note_on_c, 9, 38, 95
6, 98880, Note_on_c, 9, 52, 95
6, 99360, Note_off_c, 9, 38, 95
6, 99360, Note_off_c, 9, 52, 95
6, 99360, Note_on_c, 9, 35, 95
6, 99360, Note_on_c, 9, 59, 95
6, 99600, Note_off_c, 9, 35, 95
6, 99600, Note_off_c, 9, 59, 95
6, 99840, Note_on_c, 9, 38, 95
6, 99840, Note_on_c, 9, 40, 95
6, 100800, Note_off_c, 9, 38, 95
6, 100800, Note_off_c, 9, 40, 95
6, 100800, Note_on_c, 9, 38, 95
6, 100800, Note_on_c, 9, 54, 95
6, 101760, Note_off_c, 9, 38, 95
6, 101760, Note_off_c, 9, 54, 95
6, 101760, Note_on_c, 9, 38, 95
6, 101760, Note_on_c, 9, 54, 95
6, 102240, Note_off_c, 9, 38, 95
6, 102240, Note_off_c, 9, 54, 95
6, 102240, Note_on_c, 9, 35, 95
6, 102240, Note_on_c, 9, 59, 95
6, 102720, Note_off_c, 9, 35, 95
6, 102720, Note_off_c, 9, 59, 95
6, 102720, Note_on_c, 9, 38, 95
6, 102720, Note_on_c, 9, 52, 95
6, 103200, Note_off_c, 9, 38, 95
6, 103200, Note_off_c, 9, 52, 95
6, 103200, Note_on_c, 9, 35, 95
6, 103200, Note_on_c, 9, 59, 95
6, 103440, Note_off_c, 9, 35, 95
6, 103440, Note_off_c, 9, 59, 95
6, 103680, Note_on_c, 9, 38, 95
6, 103680, Note_on_c, 9, 40, 95
6, 104640, Note_off_c, 9, 38, 95
6, 104640, Note_off_c, 9, 40, 95
6, 104640, Note_on_c, 9, 38, 95
6, 104640, Note_on_c, 9, 54, 95
6, 105600, Note_off_c, 9, 38, 95
6, 105600, Note_off_c, 9, 54, 95
6, 105600, Note_on_c, 9, 38, 95
6, 105600, Note_on_c, 9, 54, 95
6, 106080, Note_off_c, 9, 38, 95
6, 106080, Note_off_c, 9, 54, 95
6, 106080, Note_on_c, 9, 35, 95
6, 106080, Note_on_c, 9, 59, 95
6, 106560, Note_off_c, 9, 35, 95
6, 106560, Note_off_c, 9, 59, 95
6, 106560, Note_on_c, 9, 38, 95
6, 106560, Note_on_c, 9, 52, 95
6, 107040, Note_off_c, 9, 38, 95
6, 107040, Note_off_c, 9, 52, 95
6, 107040, Note_on_c, 9, 35, 95
6, 107040, Note_on_c, 9, 59, 95
6, 107280, Note_off_c, 9, 35, 95
6, 107280, Note_off_c, 9, 59, 95
6, 107520, Note_on_c, 9, 38, 95
6, 107520, Note_on_c, 9, 40, 95
6, 108480, Note_off_c, 9, 38, 95
6, 108480, Note_off_c, 9, 40, 95
6, 108480, Note_on_c, 9, 38, 95
6, 108480, Note_on_c, 9, 54, 95
6, 109440, Note_off_c, 9, 38, 95
6, 109440, Note_off_c, 9, 54, 95
6, 109440, Note_on_c, 9, 38, 95
6, 109440, Note_on_c, 9, 54, 95
6, 109920, Note_off_c, 9, 38, 95
6, 109920, Note_off_c, 9, 54, 95
6, 109920, Note_on_c, 9, 35, 95
6, 109920, Note_on_c, 9, 59, 95
6, 110400, Note_off_c, 9, 35, 95
6, 110400, Note_off_c, 9, 59, 95
6, 110400, Note_on_c, 9, 38, 95
6, 110400, Note_on_c, 9, 52, 95
6, 110880, Note_off_c, 9, 38, 95
6, 110880, Note_off_c, 9, 52, 95
6, 110880, Note_on_c, 9, 35, 95
6, 110880, Note_on_c, 9, 59, 95
6, 111120, Note_off_c, 9, 35, 95
6, 111120, Note_off_c, 9, 59, 95
6, 111360, Note_on_c, 9, 38, 95
6, 111360, Note_on_c, 9, 40, 95
6, 112320, Note_off_c, 9, 38, 95
6, 112320, Note_off_c, 9, 40, 95
6, 112320, Note_on_c, 9, 38, 95
6, 112320, Note_on_c, 9, 54, 95
6, 113280, Note_off_c, 9, 38, 95
6, 113280, Note_off_c, 9, 54, 95
6, 113280, Note_on_c, 9, 38, 95
6, 113280, Note_on_c, 9, 54, 95
6, 113760, Note_off_c, 9, 38, 95
6, 113760, Note_off_c, 9, 54, 95
6, 113760, Note_on_c, 9, 35, 95
6, 113760, Note_on_c, 9, 59, 95
6, 114240, Note_off_c, 9, 35, 95
6, 114240, Note_off_c, 9, 59, 95
6, 114240, Note_on_c, 9, 38, 95
6, 114240, Note_on_c, 9, 52, 95
6, 114720, Note_off_c, 9, 38, 95
6, 114720, Note_off_c, 9, 52, 95
6, 114720, Note_on_c, 9, 35, 95
6, 114720, Note_on_c, 9, 59, 95
6, 114960, Note_off_c, 9, 35, 95
6, 114960, Note_off_c, 9, 59, 95
6, 115200, Note_on_c, 9, 38, 95
6, 115200, Note_on_c, 9, 40, 95
6, 116160, Note_off_c, 9, 38, 95
6, 116160, Note_off_c, 9, 40, 95
6, 116160, Note_on_c, 9, 38, 95
6, 116160, Note_on_c, 9, 54, 95
6, 117120, Note_off_c, 9, 38, 95
6, 117120, Note_off_c, 9, 54, 95
6, 117120, Note_on_c, 9, 38, 95
6, 117120, Note_on_c, 9, 54, 95
6, 117600, Note_off_c, 9, 38, 95
6, 117600, Note_off_c, 9, 54, 95
6, 117600, Note_on_c, 9, 35, 95
6, 117600, Note_on_c, 9, 59, 95
6, 118080, Note_off_c, 9, 35, 95
6, 118080, Note_off_c, 9, 59, 95
6, 118080, Note_on_c, 9, 38, 95
6, 118080, Note_on_c, 9, 52, 95
6, 118560, Note_off_c, 9, 38, 95
6, 118560, Note_off_c, 9, 52, 95
6, 118560, Note_on_c, 9, 35, 95
6, 118560, Note_on_c, 9, 59, 95
6, 118800, Note_off_c, 9, 35, 95
6, 118800, Note_off_c, 9, 59, 95
6, 119040, Note_on_c, 9, 38, 95
6, 119040, Note_on_c, 9, 40, 95
6, 120000, Note_off_c, 9, 38, 95
6, 120000, Note_off_c, 9, 40, 95
6, 120000, Note_on_c, 9, 38, 95
6, 120000, Note_on_c, 9, 54, 95
6, 120960, Note_off_c, 9, 38, 95
6, 120960, Note_off_c, 9, 54, 95
6, 120960, Note_on_c, 9, 38, 95
6, 120960, Note_on_c, 9, 54, 95
6, 121440, Note_off_c, 9, 38, 95
6, 121440, Note_off_c, 9, 54, 95
6, 121440, Note_on_c, 9, 35, 95
6, 121440, Note_on_c, 9, 59, 95
6, 121920, Note_off_c, 9, 35, 95
6, 121920, Note_off_c, 9, 59, 95
6, 121920, Note_on_c, 9, 38, 95
6, 121920, Note_on_c, 9, 52, 95
6, 122400, Note_off_c, 9, 38, 95
6, 122400, Note_off_c, 9, 52, 95
6, 122400, Note_on_c, 9, 35, 95
6, 122400, Note_on_c, 9, 59, 95
6, 122640, Note_off_c, 9, 35, 95
6, 122640, Note_off_c, 9, 59, 95
6, 122880, Note_on_c, 9, 38, 95
6, 122880, Note_on_c, 9, 40, 95
6, 123840, Note_off_c, 9, 38, 95
6, 123840, Note_off_c, 9, 40, 95
6, 123840, Note_on_c, 9, 38, 95
6, 123840, Note_on_c, 9, 54, 95
6, 124800, Note_off_c, 9, 38, 95
6, 124800, Note_off_c, 9, 54, 95
6, 124800, Note_on_c, 9, 38, 95
6, 124800, Note_on_c, 9, 54, 95
6, 125280, Note_off_c, 9, 38, 95
6, 125280, Note_off_c, 9, 54, 95
6, 125280, Note_on_c, 9, 35, 95
6, 125280, Note_on_c, 9, 59, 95
6, 125760, Note_off_c, 9, 35, 95
6, 125760, Note_off_c, 9, 59, 95
6, 125760, Note_on_c, 9, 38, 95
6, 125760, Note_on_c, 9, 52, 95
6, 126240, Note_off_c, 9, 38, 95
6, 126240, Note_off_c, 9, 52, 95
6, 126240, Note_on_c, 9, 35, 95
6, 126240, Note_on_c, 9, 59, 95
6, 126480, Note_off_c, 9, 35, 95
6, 126480, Note_off_c, 9, 59, 95
6, 126720, Note_on_c, 9, 38, 95
6, 126720, Note_on_c, 9, 40, 95
6, 127680, Note_off_c, 9, 38, 95
6, 127680, Note_off_c, 9, 40, 95
6, 127680, Note_on_c, 9, 38, 95
6, 127680, Note_on_c, 9, 54, 95
6, 128640, Note_off_c, 9, 38, 95
6, 128640, Note_off_c, 9, 54, 95
6, 128640, Note_on_c, 9, 38, 95
6, 128640, Note_on_c, 9, 54, 95
6, 129120, Note_off_c, 9, 38, 95
6, 129120, Note_off_c, 9, 54, 95
6, 129120, Note_on_c, 9, 35, 95
6, 129120, Note_on_c, 9, 59, 95
6, 129600, Note_off_c, 9, 35, 95
6, 129600, Note_off_c, 9, 59, 95
6, 129600, Note_on_c, 9, 38, 95
6, 129600, Note_on_c, 9, 52, 95
6, 130080, Note_off_c, 9, 38, 95
6, 130080, Note_off_c, 9, 52, 95
6, 130080, Note_on_c, 9, 35, 95
6, 130080, Note_on_c, 9, 59, 95
6, 130320, Note_off_c, 9, 35, 95
6, 130320, Note_off_c, 9, 59, 95
6, 130560, Note_on_c, 9, 38, 95
6, 130560, Note_on_c, 9, 40, 95
6, 131520, Note_off_c, 9, 38, 95
6, 131520, Note_off_c, 9, 40, 95
6, 131520, Note_on_c, 9, 38, 95
6, 131520, Note_on_c, 9, 54, 95
6, 132480, Note_off_c, 9, 38, 95
6, 132480, Note_off_c, 9, 54, 95
6, 132480, Note_on_c, 9, 38, 95
6, 132480, Note_on_c, 9, 54, 95
6, 132960, Note_off_c, 9, 38, 95
6, 132960, Note_off_c, 9, 54, 95
6, 132960, Note_on_c, 9, 35, 95
6, 132960, Note_on_c, 9, 59, 95
6, 133440, Note_off_c, 9, 35, 95
6, 133440, Note_off_c, 9, 59, 95
6, 133440, Note_on_c, 9, 38, 95
6, 133440, Note_on_c, 9, 52, 95
6, 133920, Note_off_c, 9, 38, 95
6, 133920, Note_off_c, 9, 52, 95
6, 133920, Note_on_c, 9, 35, 95
6, 133920, Note_on_c, 9, 59, 95
6, 134160, Note_off_c, 9, 35, 95
6, 134160, Note_off_c, 9, 59, 95
6, 134400, Note_on_c, 9, 38, 95
6, 134400, Note_on_c, 9, 40, 95
6, 135360, Note_off_c, 9, 38, 95
6, 135360, Note_off_c, 9, 40, 95
6, 135360, Note_on_c, 9, 38, 95
6, 135360, Note_on_c, 9, 54, 95
6, 136320, Note_off_c, 9, 38, 95
6, 136320, Note_off_c, 9, 54, 95
6, 136320, Note_on_c, 9, 38, 95
6, 136320, Note_on_c, 9, 54, 95
6, 136800, Note_off_c, 9, 38, 95
6, 136800, Note_off_c, 9, 54, 95
6, 136800, Note_on_c, 9, 35, 95
6, 136800, Note_on_c, 9, 59, 95
6, 137280, Note_off_c, 9, 35, 95
6, 137280, Note_off_c, 9, 59, 95
6, 137280, Note_on_c, 9, 38, 95
6, 137280, Note_on_c, 9, 52, 95
6, 137760, Note_off_c, 9, 38, 95
6, 137760, Note_off_c, 9, 52, 95
6, 137760, Note_on_c, 9, 35, 95
6, 137760, Note_on_c, 9, 59, 95
6, 138000, Note_off_c, 9, 35, 95
6, 138000, Note_off_c, 9, 59, 95
6, 138240, Note_on_c, 9, 38, 95
6, 138240, Note_on_c, 9, 40, 95
6, 139200, Note_off_c, 9, 38, 95
6, 139200, Note_off_c, 9, 40, 95
6, 139200, Note_on_c, 9, 38, 95
6, 139200, Note_on_c, 9, 54, 95
6, 140160, Note_off_c, 9, 38, 95
6, 140160, Note_off_c, 9, 54, 95
6, 140160, Note_on_c, 9, 38, 95
6, 140160, Note_on_c, 9, 54, 95
6, 140640, Note_off_c, 9, 38, 95
6, 140640, Note_off_c, 9, 54, 95
6, 140640, Note_on_c, 9, 35, 95
6, 140640, Note_on_c, 9, 59, 95
6, 141120, Note_off_c, 9, 35, 95
6, 141120, Note_off_c, 9, 59, 95
6, 141120, Note_on_c, 9, 38, 95
6, 141120, Note_on_c, 9, 52, 95
6, 141600, Note_off_c, 9, 38, 95
6, 141600, Note_off_c, 9, 52, 95
6, 141600, Note_on_c, 9, 35, 95
6, 141600, Note_on_c, 9, 59, 95
6, 141840, Note_off_c, 9, 35, 95
6, 141840, Note_off_c, 9, 59, 95
6, 142080, Note_on_c, 9, 38, 95
6, 142080, Note_on_c, 9, 40, 95
6, 143040, Note_off_c, 9, 38, 95
6, 143040, Note_off_c, 9, 40, 95
6, 143040, Note_on_c, 9, 38, 95
6, 143040, Note_on_c, 9, 54, 95
6, 144000, Note_off_c, 9, 38, 95
6, 144000, Note_off_c, 9, 54, 95
6, 144000, Note_on_c, 9, 38, 95
6, 144000, Note_on_c, 9, 54, 95
6, 144480, Note_off_c, 9, 38, 95
6, 144480, Note_off_c, 9, 54, 95
6, 144480, Note_on_c, 9, 35, 95
6, 144480, Note_on_c, 9, 59, 95
6, 144960, Note_off_c, 9, 35, 95
6, 144960, Note_off_c, 9, 59, 95
6, 144960, Note_on_c, 9, 38, 95
6, 144960, Note_on_c, 9, 52, 95
6, 145440, Note_off_c, 9, 38, 95
6, 145440, Note_off_c, 9, 52, 95
6, 145440, Note_on_c, 9, 35, 95
6, 145440, Note_on_c, 9, 59, 95
6, 145680, Note_off_c, 9, 35, 95
6, 145680, Note_off_c, 9, 59, 95
6, 145920, Note_on_c, 9, 38, 95
6, 145920, Note_on_c, 9, 40, 95
6, 146880, Note_off_c, 9, 38, 95
6, 146880, Note_off_c, 9, 40, 95
6, 146880, Note_on_c, 9, 38, 95
6, 146880, Note_on_c, 9, 54, 95
6, 147840, Note_off_c, 9, 38, 95
6, 147840, Note_off_c, 9, 54, 95
6, 147840, Note_on_c, 9, 38, 95
6, 147840, Note_on_c, 9, 54, 95
6, 148320, Note_off_c, 9, 38, 95
6, 148320, Note_off_c, 9, 54, 95
6, 148320, Note_on_c, 9, 35, 95
6, 148320, Note_on_c, 9, 59, 95
6, 148800, Note_off_c, 9, 35, 95
6, 148800, Note_off_c, 9, 59, 95
6, 148800, Note_on_c, 9, 38, 95
6, 148800, Note_on_c, 9, 52, 95
6, 149280, Note_off_c, 9, 38, 95
6, 149280, Note_off_c, 9, 52, 95
6, 149280, Note_on_c, 9, 35, 95
6, 149280, Note_on_c, 9, 59, 95
6, 149520, Note_off_c, 9, 35, 95
6, 149520, Note_off_c, 9, 59, 95
6, 149760, Note_on_c, 9, 38, 95
6, 149760, Note_on_c, 9, 40, 95
6, 150720, Note_off_c, 9, 38, 95
6, 150720, Note_off_c, 9, 40, 95
6, 150720, Note_on_c, 9, 38, 95
6, 150720, Note_on_c, 9, 54, 95
6, 151680, Note_off_c, 9, 38, 95
6, 151680, Note_off_c, 9, 54, 95
6, 151680, Note_on_c, 9, 38, 95
6, 151680, Note_on_c, 9, 54, 95
6, 152160, Note_off_c, 9, 38, 95
6, 152160, Note_off_c, 9, 54, 95
6, 152160, Note_on_c, 9, 35, 95
6, 152160, Note_on_c, 9, 59, 95
6, 152640, Note_off_c, 9, 35, 95
6, 152640, Note_off_c, 9, 59, 95
6, 152640, Note_on_c, 9, 38, 95
6, 152640, Note_on_c, 9, 52, 95
6, 153120, Note_off_c, 9, 38, 95
6, 153120, Note_off_c, 9, 52, 95
6, 153120, Note_on_c, 9, 35, 95
6, 153120, Note_on_c, 9, 59, 95
6, 153360, Note_off_c, 9, 35, 95
6, 153360, Note_off_c, 9, 59, 95
6, 153600, Note_on_c, 9, 38, 95
6, 153600, Note_on_c, 9, 40, 95
6, 154560, Note_off_c, 9, 38, 95
6, 154560, Note_off_c, 9, 40, 95
6, 154560, Note_on_c, 9, 38, 95
6, 154560, Note_on_c, 9, 54, 95
6, 155520, Note_off_c, 9, 38, 95
6, 155520, Note_off_c, 9, 54, 95
6, 155520, Note_on_c, 9, 38, 95
6, 155520, Note_on_c, 9, 54, 95
6, 156000, Note_off_c, 9, 38, 95
6, 156000, Note_off_c, 9, 54, 95
6, 156000, Note_on_c, 9, 35, 95
6, 156000, Note_on_c, 9, 59, 95
6, 156480, Note_off_c, 9, 35, 95
6, 156480, Note_off_c, 9, 59, 95
6, 156480, Note_on_c, 9, 38, 95
6, 156480, Note_on_c, 9, 52, 95
6, 156960, Note_off_c, 9, 38, 95
6, 156960, Note_off_c, 9, 52, 95
6, 156960, Note_on_c, 9, 35, 95
6, 156960, Note_on_c, 9, 59, 95
6, 157200, Note_off_c, 9, 35, 95
6, 157200, Note_off_c, 9, 59, 95
6, 157440, Note_on_c, 9, 38, 95
6, 157440, Note_on_c, 9, 40, 95
6, 158400, Note_off_c, 9, 38, 95
6, 158400, Note_off_c, 9, 40, 95
6, 158400, Note_on_c, 9, 38, 95
6, 158400, Note_on_c, 9, 54, 95
6, 159360, Note_off_c, 9, 38, 95
6, 159360, Note_off_c, 9, 54, 95
6, 159360, Note_on_c, 9, 38, 95
6, 159360, Note_on_c, 9, 54, 95
6, 159840, Note_off_c, 9, 38, 95
6, 159840, Note_off_c, 9, 54, 95
6, 159840, Note_on_c, 9, 35, 95
6, 159840, Note_on_c, 9, 59, 95
6, 160320, Note_off_c, 9, 35, 95
6, 160320, Note_off_c, 9, 59, 95
6, 160320, Note_on_c, 9, 38, 95
6, 160320, Note_on_c, 9, 52, 95
6, 160800, Note_off_c, 9, 38, 95
6, 160800, Note_off_c, 9, 52, 95
6, 160800, Note_on_c, 9, 35, 95
6, 160800, Note_on_c, 9, 59, 95
6, 161040, Note_off_c, 9, 35, 95
6, 161040, Note_off_c, 9, 59, 95
6, 161280, Note_on_c, 9, 38, 95
6, 161280, Note_on_c, 9, 40, 95
6, 162240, Note_off_c, 9, 38, 95
6, 162240, Note_off_c, 9, 40, 95
6, 162240, Note_on_c, 9, 38, 95
6, 162240, Note_on_c, 9, 54, 95
6, 163200, Note_off_c, 9, 38, 95
6, 163200, Note_off_c, 9, 54, 95
6, 163200, Note_on_c, 9, 38, 95
6, 163200, Note_on_c, 9, 54, 95
6, 163680, Note_off_c, 9, 38, 95
6, 163680, Note_off_c, 9, 54, 95
6, 163680, Note_on_c, 9, 35, 95
6, 163680, Note_on_c, 9, 59, 95
6, 164160, Note_off_c, 9, 35, 95
6, 164160, Note_off_c, 9, 59, 95
6, 164160, Note_on_c, 9, 38, 95
6, 164160, Note_on_c, 9, 52, 95
6, 164640, Note_off_c, 9, 38, 95
6, 164640, Note_off_c, 9, 52, 95
6, 164640, Note_on_c, 9, 35, 95
6, 164640, Note_on_c, 9, 59, 95
6, 164880, Note_off_c, 9, 35, 95
6, 164880, Note_off_c, 9, 59, 95
6, 165120, Note_on_c, 9, 38, 95
6, 165120, Note_on_c, 9, 40, 95
6, 166080, Note_off_c, 9, 38, 95
6, 166080, Note_off_c, 9, 40, 95
6, 166080, Note_on_c, 9, 38, 95
6, 166080, Note_on_c, 9, 54, 95
6, 167040, Note_off_c, 9, 38, 95
6, 167040, Note_off_c, 9, 54, 95
6, 167040, Note_on_c, 9, 38, 95
6, 167040, Note_on_c, 9, 54, 95
6, 167520, Note_off_c, 9, 38, 95
6, 167520, Note_off_c, 9, 54, 95
6, 167520, Note_on_c, 9, 35, 95
6, 167520, Note_on_c, 9, 59, 95
6, 168000, Note_off_c, 9, 35, 95
6, 168000, Note_off_c, 9, 59, 95
6, 168000, Note_on_c, 9, 38, 95
6, 168000, Note_on_c, 9, 52, 95
6, 168480, Note_off_c, 9, 38, 95
6, 168480, Note_off_c, 9, 52, 95
6, 168480, Note_on_c, 9, 35, 95
6, 168480, Note_on_c, 9, 59, 95
6, 168720, Note_off_c, 9, 35, 95
6, 168720, Note_off_c, 9, 59, 95
6, 168960, Note_on_c, 9, 38, 95
6, 168960, Note_on_c, 9, 40, 95
6, 169920, Note_off_c, 9, 38, 95
6, 169920, Note_off_c, 9, 40, 95
6, 169920, Note_on_c, 9, 38, 95
6, 169920, Note_on_c, 9, 54, 95
6, 170880, Note_off_c, 9, 38, 95
6, 170880, Note_off_c, 9, 54, 95
6, 170880, Note_on_c, 9, 38, 95
6, 170880, Note_on_c, 9, 54, 95
6, 171360, Note_off_c, 9, 38, 95
6, 171360, Note_off_c, 9, 54, 95
6, 171360, Note_on_c, 9, 35, 95
6, 171360, Note_on_c, 9, 59, 95
6, 171840, Note_off_c, 9, 35, 95
6, 171840, Note_off_c, 9, 59, 95
6, 171840, Note_on_c, 9, 38, 95
6, 171840, Note_on_c, 9, 52, 95
6, 172320, Note_off_c, 9, 38, 95
6, 172320, Note_off_c, 9, 52, 95
6, 172320, Note_on_c, 9, 35, 95
6, 172320, Note_on_c, 9, 59, 95
6, 172560, Note_off_c, 9, 35, 95
6, 172560, Note_off_c, 9, 59, 95
6, 172800, Note_on_c, 9, 38, 95
6, 172800, Note_on_c, 9, 40, 95
6, 173760, Note_off_c, 9, 38, 95
6, 173760, Note_off_c, 9, 40, 95
6, 173760, Note_on_c, 9, 38, 95
6, 173760, Note_on_c, 9, 54, 95
6, 174720, Note_off_c, 9, 38, 95
6, 174720, Note_off_c, 9, 54, 95
6, 174720, Note_on_c, 9, 38, 95
6, 174720, Note_on_c, 9, 54, 95
6, 175200, Note_off_c, 9, 38, 95
6, 175200, Note_off_c, 9, 54, 95
6, 175200, Note_on_c, 9, 35, 95
6, 175200, Note_on_c, 9, 59, 95
6, 175680, Note_off_c, 9, 35, 95
6, 175680, Note_off_c, 9, 59, 95
6, 175680, Note_on_c, 9, 38, 95
6, 175680, Note_on_c, 9, 52, 95
6, 176160, Note_off_c, 9, 38, 95
6, 176160, Note_off_c, 9, 52, 95
6, 176160, Note_on_c, 9, 35, 95
6, 176160, Note_on_c, 9, 59, 95
6, 176400, Note_off_c, 9, 35, 95
6, 176400, Note_off_c, 9, 59, 95
6, 176640, Note_on_c, 9, 38, 95
6, 176640, Note_on_c, 9, 40, 95
6, 177600, Note_off_c, 9, 38, 95
6, 177600, Note_off_c, 9, 40, 95
6, 177600, Note_on_c, 9, 38, 95
6, 177600, Note_on_c, 9, 54, 95
6, 178560, Note_off_c, 9, 38, 95
6, 178560, Note_off_c, 9, 54, 95
6, 178560, Note_on_c, 9, 38, 95
6, 178560, Note_on_c, 9, 54, 95
6, 179040, Note_off_c, 9, 38, 95
6, 179040, Note_off_c, 9, 54, 95
6, 179040, Note_on_c, 9, 35, 95
6, 179040, Note_on_c, 9, 59, 95
6, 179520, Note_off_c, 9, 35, 95
6, 179520, Note_off_c, 9, 59, 95
6, 179520, Note_on_c, 9, 38, 95
6, 179520, Note_on_c, 9, 52, 95
6, 180000, Note_off_c, 9, 38, 95
6, 180000, Note_off_c, 9, 52, 95
6, 180000, Note_on_c, 9, 35, 95
6, 180000, Note_on_c, 9, 59, 95
6, 180240, Note_off_c, 9, 35, 95
6, 180240, Note_off_c, 9, 59, 95
6, 180480, Note_on_c, 9, 38, 95
6, 180480, Note_on_c, 9, 40, 95
6, 181440, Note_off_c, 9, 38, 95
6, 181440, Note_off_c, 9, 40, 95
6, 181440, Note_on_c, 9, 38, 95
6, 181440, Note_on_c, 9, 54, 95
6, 182400, Note_off_c, 9, 38, 95
6, 182400, Note_off_c, 9, 54, 95
6, 182400, Note_on_c, 9, 38, 95
6, 182400, Note_on_c, 9, 54, 95
6, 182880, Note_off_c, 9, 38, 95
6, 182880, Note_off_c, 9, 54, 95
6, 182880, Note_on_c, 9, 35, 95
6, 182880, Note_on_c, 9, 59, 95
6, 183360, Note_off_c, 9, 35, 95
6, 183360, Note_off_c, 9, 59, 95
6, 183360, Note_on_c, 9, 38, 95
6, 183360, Note_on_c, 9, 52, 95
6, 183840, Note_off_c, 9, 38, 95
6, 183840, Note_off_c, 9, 52, 95
6, 183840, Note_on_c, 9, 35, 95
6, 183840, Note_on_c, 9, 59, 95
6, 184080, Note_off_c, 9, 35, 95
6, 184080, Note_off_c, 9, 59, 95
6, 184320, Note_on_c, 9, 38, 95
6, 184320, Note_on_c, 9, 40, 95
6, 185280, Note_off_c, 9, 38, 95
6, 185280, Note_off_c, 9, 40, 95
6, 185280, Note_on_c, 9, 38, 95
6, 185280, Note_on_c, 9, 54, 95
6, 186240, Note_off_c, 9, 38, 95
6, 186240, Note_off_c, 9, 54, 95
6, 186240, Note_on_c, 9, 38, 95
6, 186240, Note_on_c, 9, 54, 95
6, 186720, Note_off_c, 9, 38, 95
6, 186720, Note_off_c, 9, 54, 95
6, 186720, Note_on_c, 9, 35, 95
6, 186720, Note_on_c, 9, 59, 95
6, 187200, Note_off_c, 9, 35, 95
6, 187200, Note_off_c, 9, 59, 95
6, 187200, Note_on_c, 9, 38, 95
6, 187200, Note_on_c, 9, 52, 95
6, 187680, Note_off_c, 9, 38, 95
6, 187680, Note_off_c, 9, 52, 95
6, 187680, Note_on_c, 9, 35, 95
6, 187680, Note_on_c, 9, 59, 95
6, 187920, Note_off_c, 9, 35, 95
6, 187920, Note_off_c, 9, 59, 95
6, 188160, Note_on_c, 9, 38, 95
6, 188160, Note_on_c, 9, 40, 95
6, 189120, Note_off_c, 9, 38, 95
6, 189120, Note_off_c, 9, 40, 95
6, 189120, Note_on_c, 9, 38, 95
6, 189120, Note_on_c, 9, 54, 95
6, 190080, Note_off_c, 9, 38, 95
6, 190080, Note_off_c, 9, 54, 95
6, 190080, Note_on_c, 9, 38, 95
6, 190080, Note_on_c, 9, 54, 95
6, 190560, Note_off_c, 9, 38, 95
6, 190560, Note_off_c, 9, 54, 95
6, 190560, Note_on_c, 9, 35, 95
6, 190560, Note_on_c, 9, 59, 95
6, 191040, Note_off_c, 9, 35, 95
6, 191040, Note_off_c, 9, 59, 95
6, 191040, Note_on_c, 9, 38, 95
6, 191040, Note_on_c, 9, 52, 95
6, 191520, Note_off_c, 9, 38, 95
6, 191520, Note_off_c, 9, 52, 95
6, 191520, Note_on_c, 9, 35, 95
6, 191520, Note_on_c, 9, 59, 95
6, 191760, Note_off_c, 9, 35, 95
6, 191760, Note_off_c, 9, 59, 95
6, 192000, Note_on_c, 9, 38, 95
6, 192000, Note_on_c, 9, 40, 95
6, 192960, Note_off_c, 9, 38, 95
6, 192960, Note_off_c, 9, 40, 95
6, 192960, Note_on_c, 9, 38, 95
6, 192960, Note_on_c, 9, 54, 95
6, 193920, Note_off_c, 9, 38, 95
6, 193920, Note_off_c, 9, 54, 95
6, 193920, Note_on_c, 9, 38, 95
6, 193920, Note_on_c, 9, 54, 95
6, 194400, Note_off_c, 9, 38, 95
6, 194400, Note_off_c, 9, 54, 95
6, 194400, Note_on_c, 9, 35, 95
6, 194400, Note_on_c, 9, 59, 95
6, 194880, Note_off_c, 9, 35, 95
6, 194880, Note_off_c, 9, 59, 95
6, 194880, Note_on_c, 9, 38, 95
6, 194880, Note_on_c, 9, 52, 95
6, 195360, Note_off_c, 9, 38, 95
6, 195360, Note_off_c, 9, 52, 95
6, 195360, Note_on_c, 9, 35, 95
6, 195360, Note_on_c, 9, 59, 95
6, 195600, Note_off_c, 9, 35, 95
6, 195600, Note_off_c, 9, 59, 95
6, 195840, Note_on_c, 9, 38, 95
6, 195840, Note_on_c, 9, 40, 95
6, 196800, Note_off_c, 9, 38, 95
6, 196800, Note_off_c, 9, 40, 95
6, 196800, Note_on_c, 9, 38, 95
6, 196800, Note_on_c, 9, 54, 95
6, 197760, Note_off_c, 9, 38, 95
6, 197760, Note_off_c, 9, 54, 95
6, 197760, Note_on_c, 9, 38, 95
6, 197760, Note_on_c, 9, 54, 95
6, 198240, Note_off_c, 9, 38, 95
6, 198240, Note_off_c, 9, 54, 95
6, 198240, Note_on_c, 9, 35, 95
6, 198240, Note_on_c, 9, 59, 95
6, 198720, Note_off_c, 9, 35, 95
6, 198720, Note_off_c, 9, 59, 95
6, 198720, Note_on_c, 9, 38, 95
6, 198720, Note_on_c, 9, 52, 95
6, 199200, Note_off_c, 9, 38, 95
6, 199200, Note_off_c, 9, 52, 95
6, 199200, Note_on_c, 9, 35, 95
6, 199200, Note_on_c, 9, 59, 95
6, 199440, Note_off_c, 9, 35, 95
6, 199440, Note_off_c, 9, 59, 95
6, 199680, Note_on_c, 9, 38, 95
6, 199680, Note_on_c, 9, 40, 95
6, 200640, Note_off_c, 9, 38, 95
6, 200640, Note_off_c, 9, 40, 95
6, 200640, Note_on_c, 9, 38, 95
6, 200640, Note_on_c, 9, 54, 95
6, 201600, Note_off_c, 9, 38, 95
6, 201600, Note_off_c, 9, 54, 95
6, 201600, Note_on_c, 9, 38, 95
6, 201600, Note_on_c, 9, 54, 95
6, 202080, Note_off_c, 9, 38, 95
6, 202080, Note_off_c, 9, 54, 95
6, 202080, Note_on_c, 9, 35, 95
6, 202080, Note_on_c, 9, 59, 95
6, 202560, Note_off_c, 9, 35, 95
6, 202560, Note_off_c, 9, 59, 95
6, 202560, Note_on_c, 9, 38, 95
6, 202560, Note_on_c, 9, 52, 95
6, 203040, Note_off_c, 9, 38, 95
6, 203040, Note_off_c, 9, 52, 95
6, 203040, Note_on_c, 9, 35, 95
6, 203040, Note_on_c, 9, 59, 95
6, 203280, Note_off_c, 9, 35, 95
6, 203280, Note_off_c, 9, 59, 95
6, 203520, Note_on_c, 9, 38, 95
6, 203520, Note_on_c, 9, 40, 95
6, 204480, Note_off_c, 9, 38, 95
6, 204480, Note_off_c, 9, 40, 95
6, 204480, Note_on_c, 9, 38, 95
6, 204480, Note_on_c, 9, 54, 95
6, 205440, Note_off_c, 9, 38, 95
6, 205440, Note_off_c, 9, 54, 95
6, 205440, Note_on_c, 9, 38, 95
6, 205440, Note_on_c, 9, 54, 95
6, 205920, Note_off_c, 9, 38, 95
6, 205920, Note_off_c, 9, 54, 95
6, 205920, Note_on_c, 9, 35, 95
6, 205920, Note_on_c, 9, 59, 95
6, 206400, Note_off_c, 9, 35, 95
6, 206400, Note_off_c, 9, 59, 95
6, 206400, Note_on_c, 9, 38, 95
6, 206400, Note_on_c, 9, 52, 95
6, 206880, Note_off_c, 9, 38, 95
6, 206880, Note_off_c, 9, 52, 95
6, 206880, Note_on_c, 9, 35, 95
6, 206880, Note_on_c, 9, 59, 95
6, 207120, Note_off_c, 9, 35, 95
6, 207120, Note_off_c, 9, 59, 95
6, 207360, Note_on_c, 9, 38, 95
6, 207360, Note_on_c, 9, 40, 95
6, 208320, Note_off_c, 9, 38, 95
6, 208320, Note_off_c, 9, 40, 95
6, 208320, Note_on_c, 9, 38, 95
6, 208320, Note_on_c, 9, 54, 95
6, 209280, Note_off_c, 9, 38, 95
6, 209280, Note_off_c, 9, 54, 95
6, 209280, Note_on_c, 9, 38, 95
6, 209280, Note_on_c, 9, 54, 95
6, 209760, Note_off_c, 9, 38, 95
6, 209760, Note_off_c, 9, 54, 95
6, 209760, Note_on_c, 9, 35, 95
6, 209760, Note_on_c, 9, 59, 95
6, 210240, Note_off_c, 9, 35, 95
6, 210240, Note_off_c, 9, 59, 95
6, 210240, Note_on_c, 9, 38, 95
6, 210240, Note_on_c, 9, 52, 95
6, 210720, Note_off_c, 9, 38, 95
6, 210720, Note_off_c, 9, 52, 95
6, 210720, Note_on_c, 9, 35, 95
6, 210720, Note_on_c, 9, 59, 95
6, 210960, Note_off_c, 9, 35, 95
6, 210960, Note_off_c, 9, 59, 95
6, 211200, Note_on_c, 9, 38, 95
6, 211200, Note_on_c, 9, 40, 95
6, 212160, Note_off_c, 9, 38, 95
6, 212160, Note_off_c, 9, 40, 95
6, 212160, Note_on_c, 9, 38, 95
6, 212160, Note_on_c, 9, 54, 95
6, 213120, Note_off_c, 9, 38, 95
6, 213120, Note_off_c, 9, 54, 95
6, 213120, Note_on_c, 9, 38, 95
6, 213120, Note_on_c, 9, 54, 95
6, 213600, Note_off_c, 9, 38, 95
6, 213600, Note_off_c, 9, 54, 95
6, 213600, Note_on_c, 9, 35, 95
6, 213600, Note_on_c, 9, 59, 95
6, 214080, Note_off_c, 9, 35, 95
6, 214080, Note_off_c, 9, 59, 95
6, 214080, Note_on_c, 9, 38, 95
6, 214080, Note_on_c, 9, 52, 95
6, 214560, Note_off_c, 9, 38, 95
6, 214560, Note_off_c, 9, 52, 95
6, 214560, Note_on_c, 9, 35, 95
6, 214560, Note_on_c, 9, 59, 95
6, 214800, Note_off_c, 9, 35, 95
6, 214800, Note_off_c, 9, 59, 95
6, 215040, Note_on_c, 9, 38, 95
6, 215040, Note_on_c, 9, 40, 95
6, 216000, Note_off_c, 9, 38, 95
6, 216000, Note_off_c, 9, 40, 95
6, 216000, Note_on_c, 9, 38, 95
6, 216000, Note_on_c, 9, 54, 95
6, 216960, Note_off_c, 9, 38, 95
6, 216960, Note_off_c, 9, 54, 95
6, 216960, Note_on_c, 9, 38, 95
6, 216960, Note_on_c, 9, 54, 95
6, 217440, Note_off_c, 9, 38, 95
6, 217440, Note_off_c, 9, 54, 95
6, 217440, Note_on_c, 9, 35, 95
6, 217440, Note_on_c, 9, 59, 95
6, 217920, Note_off_c, 9, 35, 95
6, 217920, Note_off_c, 9, 59, 95
6, 217920, Note_on_c, 9, 38, 95
6, 217920, Note_on_c, 9, 52, 95
6, 218400, Note_off_c, 9, 38, 95
6, 218400, Note_off_c, 9, 52, 95
6, 218400, Note_on_c, 9, 35, 95
6, 218400, Note_on_c, 9, 59, 95
6, 218640, Note_off_c, 9, 35, 95
6, 218640, Note_off_c, 9, 59, 95
6, 218880, Note_on_c, 9, 38, 95
6, 218880, Note_on_c, 9, 40, 95
6, 219840, Note_off_c, 9, 38, 95
6, 219840, Note_off_c, 9, 40, 95
6, 219840, Note_on_c, 9, 38, 95
6, 219840, Note_on_c, 9, 54, 95
6, 220800, Note_off_c, 9, 38, 95
6, 220800, Note_off_c, 9, 54, 95
6, 220800, Note_on_c, 9, 38, 95
6, 220800, Note_on_c, 9, 54, 95
6, 221280, Note_off_c, 9, 38, 95
6, 221280, Note_off_c, 9, 54, 95
6, 221280, Note_on_c, 9, 35, 95
6, 221280, Note_on_c, 9, 59, 95
6, 221760, Note_off_c, 9, 35, 95
6, 221760, Note_off_c, 9, 59, 95
6, 221760, Note_on_c, 9, 38, 95
6, 221760, Note_on_c, 9, 52, 95
6, 222240, Note_off_c, 9, 38, 95
6, 222240, Note_off_c, 9, 52, 95
6, 222240, Note_on_c, 9, 35, 95
6, 222240, Note_on_c, 9, 59, 95
6, 222480, Note_off_c, 9, 35, 95
6, 222480, Note_off_c, 9, 59, 95
6, 222720, Note_on_c, 9, 38, 95
6, 222720, Note_on_c, 9, 40, 95
6, 223680, Note_off_c, 9, 38, 95
6, 223680, Note_off_c, 9, 40, 95
6, 223680, Note_on_c, 9, 38, 95
6, 223680, Note_on_c, 9, 54, 95
6, 224640, Note_off_c, 9, 38, 95
6, 224640, Note_off_c, 9, 54, 95
6, 224640, Note_on_c, 9, 38, 95
6, 224640, Note_on_c, 9, 54, 95
6, 225120, Note_off_c, 9, 38, 95
6, 225120, Note_off_c, 9, 54, 95
6, 225120, Note_on_c, 9, 35, 95
6, 225120, Note_on_c, 9, 59, 95
6, 225600, Note_off_c, 9, 35, 95
6, 225600, Note_off_c, 9, 59, 95
6, 225600, Note_on_c, 9, 38, 95
6, 225600, Note_on_c, 9, 52, 95
6, 226080, Note_off_c, 9, 38, 95
6, 226080, Note_off_c, 9, 52, 95
6, 226080, Note_on_c, 9, 35, 95
6, 226080, Note_on_c, 9, 59, 95
6, 226320, Note_off_c, 9, 35, 95
6, 226320, Note_off_c, 9, 59, 95
6, 226560, Note_on_c, 9, 38, 95
6, 226560, Note_on_c, 9, 40, 95
6, 227520, Note_off_c, 9, 38, 95
6, 227520, Note_off_c, 9, 40, 95
6, 227520, Note_on_c, 9, 38, 95
6, 227520, Note_on_c, 9, 54, 95
6, 228480, Note_off_c, 9, 38, 95
6, 228480, Note_off_c, 9, 54, 95
6, 228480, Note_on_c, 9, 38, 95
6, 228480, Note_on_c, 9, 54, 95
6, 228960, Note_off_c, 9, 38, 95
6, 228960, Note_off_c, 9, 54, 95
6, 228960, Note_on_c, 9, 35, 95
6, 228960, Note_on_c, 9, 59, 95
6, 229440, Note_off_c, 9, 35, 95
6, 229440, Note_off_c, 9, 59, 95
6, 229440, Note_on_c, 9, 38, 95
6, 229440, Note_on_c, 9, 52, 95
6, 229920, Note_off_c, 9, 38, 95
6, 229920, Note_off_c, 9, 52, 95
6, 229920, Note_on_c, 9, 35, 95
6, 229920, Note_on_c, 9, 59, 95
6, 230160, Note_off_c, 9, 35, 95
6, 230160, Note_off_c, 9, 59, 95
6, 230400, Note_on_c, 9, 38, 95
6, 230400, Note_on_c, 9, 40, 95
6, 231360, Note_off_c, 9, 38, 95
6, 231360, Note_off_c, 9, 40, 95
6, 231360, Note_on_c, 9, 38, 95
6, 231360, Note_on_c, 9, 54, 95
6, 232320, Note_off_c, 9, 38, 95
6, 232320, Note_off_c, 9, 54, 95
6, 232320, Note_on_c, 9, 38, 95
6, 232320, Note_on_c, 9, 54, 95
6, 232800, Note_off_c, 9, 38, 95
6, 232800, Note_off_c, 9, 54, 95
6, 232800, Note_on_c, 9, 35, 95
6, 232800, Note_on_c, 9, 59, 95
6, 233280, Note_off_c, 9, 35, 95
6, 233280, Note_off_c, 9, 59, 95
6, 233280, Note_on_c, 9, 38, 95
6, 233280, Note_on_c, 9, 52, 95
6, 233760, Note_off_c, 9, 38, 95
6, 233760, Note_off_c, 9, 52, 95
6, 233760, Note_on_c, 9, 35, 95
6, 233760, Note_on_c, 9, 59, 95
6, 234000, Note_off_c, 9, 35, 95
6, 234000, Note_off_c, 9, 59, 95
6, 234240, Note_on_c, 9, 38, 95
6, 234240, Note_on_c, 9, 40, 95
6, 235200, Note_off_c, 9, 38, 95
6, 235200, Note_off_c, 9, 40, 95
6, 235200, Note_on_c, 9, 38, 95
6, 235200, Note_on_c, 9, 54, 95
6, 236160, Note_off_c, 9, 38, 95
6, 236160, Note_off_c, 9, 54, 95
6, 236160, Note_on_c, 9, 38, 95
6, 236160, Note_on_c, 9, 54, 95
6, 236640, Note_off_c, 9, 38, 95
6, 236640, Note_off_c, 9, 54, 95
6, 236640, Note_on_c, 9, 35, 95
6, 236640, Note_on_c, 9, 59, 95
6, 237120, Note_off_c, 9, 35, 95
6, 237120, Note_off_c, 9, 59, 95
6, 237120, Note_on_c, 9, 38, 95
6, 237120, Note_on_c, 9, 52, 95
6, 237600, Note_off_c, 9, 38, 95
6, 237600, Note_off_c, 9, 52, 95
6, 237600, Note_on_c, 9, 35, 95
6, 237600, Note_on_c, 9, 59, 95
6, 237840, Note_off_c, 9, 35, 95
6, 237840, Note_off_c, 9, 59, 95
6, 238080, Note_on_c, 9, 38, 95
6, 238080, Note_on_c, 9, 40, 95
6, 239040, Note_off_c, 9, 38, 95
6, 239040, Note_off_c, 9, 40, 95
6, 239040, Note_on_c, 9, 38, 95
6, 239040, Note_on_c, 9, 54, 95
6, 240000, Note_off_c, 9, 38, 95
6, 240000, Note_off_c, 9, 54, 95
6, 240000, Note_on_c, 9, 38, 95
6, 240000, Note_on_c, 9, 54, 95
6, 240480, Note_off_c, 9, 38, 95
6, 240480, Note_off_c, 9, 54, 95
6, 240480, Note_on_c, 9, 35, 95
6, 240480, Note_on_c, 9, 59, 95
6, 240960, Note_off_c, 9, 35, 95
6, 240960, Note_off_c, 9, 59, 95
6, 240960, Note_on_c, 9, 38, 95
6, 240960, Note_on_c, 9, 52, 95
6, 241440, Note_off_c, 9, 38, 95
6, 241440, Note_off_c, 9, 52, 95
6, 241440, Note_on_c, 9, 35, 95
6, 241440, Note_on_c, 9, 59, 95
6, 241680, Note_off_c, 9, 35, 95
6, 241680, Note_off_c, 9, 59, 95
6, 241920, Note_on_c, 9, 38, 95
6, 241920, Note_on_c, 9, 40, 95
6, 242880, Note_off_c, 9, 38, 95
6, 242880, Note_off_c, 9, 40, 95
6, 242880, Note_on_c, 9, 38, 95
6, 242880, Note_on_c, 9, 54, 95
6, 243840, Note_off_c, 9, 38, 95
6, 243840, Note_off_c, 9, 54, 95
6, 243840, Note_on_c, 9, 38, 95
6, 243840, Note_on_c, 9, 54, 95
6, 244320, Note_off_c, 9, 38, 95
6, 244320, Note_off_c, 9, 54, 95
6, 244320, Note_on_c, 9, 35, 95
6, 244320, Note_on_c, 9, 59, 95
6, 244800, Note_off_c, 9, 35, 95
6, 244800, Note_off_c, 9, 59, 95
6, 244800, Note_on_c, 9, 38, 95
6, 244800, Note_on_c, 9, 52, 95
6, 245280, Note_off_c, 9, 38, 95
6, 245280, Note_off_c, 9, 52, 95
6, 245280, Note_on_c, 9, 35, 95
6, 245280, Note_on_c, 9, 59, 95
6, 245520, Note_off_c, 9, 35, 95
6, 245520, Note_off_c, 9, 59, 95
6, 245760, Note_on_c, 9, 38, 95
6, 245760, Note_on_c, 9, 40, 95
6, 246720, Note_off_c, 9, 38, 95
6, 246720, Note_off_c, 9, 40, 95
6, 246720, Note_on_c, 9, 38, 95
6, 246720, Note_on_c, 9, 54, 95
6, 247680, Note_off_c, 9, 38, 95
6, 247680, Note_off_c, 9, 54, 95
6, 247680, Note_on_c, 9, 38, 95
6, 247680, Note_on_c, 9, 54, 95
6, 248160, Note_off_c, 9, 38, 95
6, 248160, Note_off_c, 9, 54, 95
6, 248160, Note_on_c, 9, 35, 95
6, 248160, Note_on_c, 9, 59, 95
6, 248640, Note_off_c, 9, 35, 95
6, 248640, Note_off_c, 9, 59, 95
6, 248640, Note_on_c, 9, 38, 95
6, 248640, Note_on_c, 9, 52, 95
6, 249120, Note_off_c, 9, 38, 95
6, 249120, Note_off_c, 9, 52, 95
6, 249120, Note_on_c, 9, 35, 95
6, 249120, Note_on_c, 9, 59, 95
6, 249360, Note_off_c, 9, 35, 95
6, 249360, Note_off_c, 9, 59, 95
6, 249600, Note_on_c, 9, 38, 95
6, 249600, Note_on_c, 9, 40, 95
6, 250560, Note_off_c, 9, 38, 95
6, 250560, Note_off_c, 9, 40, 95
6, 250560, Note_on_c, 9, 38, 95
6, 250560, Note_on_c, 9, 54, 95
6, 251520, Note_off_c, 9, 38, 95
6, 251520, Note_off_c, 9, 54, 95
6, 251520, Note_on_c, 9, 38, 95
6, 251520, Note_on_c, 9, 54, 95
6, 252000, Note_off_c, 9, 38, 95
6, 252000, Note_off_c, 9, 54, 95
6, 252000, Note_on_c, 9, 35, 95
6, 252000, Note_on_c, 9, 59, 95
6, 252480, Note_off_c, 9, 35, 95
6, 252480, Note_off_c, 9, 59, 95
6, 252480, Note_on_c, 9, 38, 95
6, 252480, Note_on_c, 9, 52, 95
6, 252960, Note_off_c, 9, 38, 95
6, 252960, Note_off_c, 9, 52, 95
6, 252960, Note_on_c, 9, 35, 95
6, 252960, Note_on_c, 9, 59, 95
6, 253200, Note_off_c, 9, 35, 95
6, 253200, Note_off_c, 9, 59, 95
6, 253440, Note_on_c, 9, 38, 95
6, 253440, Note_on_c, 9, 40, 95
6, 254400, Note_off_c, 9, 38, 95
6, 254400, Note_off_c, 9, 40, 95
6, 254400, Note_on_c, 9, 38, 95
6, 254400, Note_on_c, 9, 54, 95
6, 255360, Note_off_c, 9, 38, 95
6, 255360, Note_off_c, 9, 54, 95
6, 255360, Note_on_c, 9, 38, 95
6, 255360, Note_on_c, 9, 54, 95
6, 255840, Note_off_c, 9, 38, 95
6, 255840, Note_off_c, 9, 54, 95
6, 255840, Note_on_c, 9, 35, 95
6, 255840, Note_on_c, 9, 59, 95
6, 256320, Note_off_c, 9, 35, 95
6, 256320, Note_off_c, 9, 59, 95
6, 256320, Note_on_c, 9, 38, 95
6, 256320, Note_on_c, 9, 52, 95
6, 256800, Note_off_c, 9, 38, 95
6, 256800, Note_off_c, 9, 52, 95
6, 256800, Note_on_c, 9, 35, 95
6, 256800, Note_on_c, 9, 59, 95
6, 257040, Note_off_c, 9, 35, 95
6, 257040, Note_off_c, 9, 59, 95
6, 257280, Note_on_c, 9, 38, 95
6, 257280, Note_on_c, 9, 40, 95
6, 258240, Note_off_c, 9, 38, 95
6, 258240, Note_off_c, 9, 40, 95
6, 258240, Note_on_c, 9, 38, 95
6, 258240, Note_on_c, 9, 54, 95
6, 259200, Note_off_c, 9, 38, 95
6, 259200, Note_off_c, 9, 54, 95
6, 259200, Note_on_c, 9, 38, 95
6, 259200, Note_on_c, 9, 54, 95
6, 259680, Note_off_c, 9, 38, 95
6, 259680, Note_off_c, 9, 54, 95
6, 259680, Note_on_c, 9, 35, 95
6, 259680, Note_on_c, 9, 59, 95
6, 260160, Note_off_c, 9, 35, 95
6, 260160, Note_off_c, 9, 59, 95
6, 260160, Note_on_c, 9, 38, 95
6, 260160, Note_on_c, 9, 52, 95
6, 260640, Note_off_c, 9, 38, 95
6, 260640, Note_off_c, 9, 52, 95
6, 260640, Note_on_c, 9, 35, 95
6, 260640, Note_on_c, 9, 59, 95
6, 260880, Note_off_c, 9, 35, 95
6, 260880, Note_off_c, 9, 59, 95
6, 261120, Note_on_c, 9, 38, 95
6, 261120, Note_on_c, 9, 40, 95
6, 262080, Note_off_c, 9, 38, 95
6, 262080, Note_off_c, 9, 40, 95
6, 262080, Note_on_c, 9, 38, 95
6, 262080, Note_on_c, 9, 54, 95
6, 263040, Note_off_c, 9, 38, 95
6, 263040, Note_off_c, 9, 54, 95
6, 263040, Note_on_c, 9, 38, 95
6, 263040, Note_on_c, 9, 54, 95
6, 263520, Note_off_c, 9, 38, 95
6, 263520, Note_off_c, 9, 54, 95
6, 263520, Note_on_c, 9, 35, 95
6, 263520, Note_on_c, 9, 59, 95
6, 264000, Note_off_c, 9, 35, 95
6, 264000, Note_off_c, 9, 59, 95
6, 264000, Note_on_c, 9, 38, 95
6, 264000, Note_on_c, 9, 52, 95
6, 264480, Note_off_c, 9, 38, 95
6, 264480, Note_off_c, 9, 52, 95
6, 264480, Note_on_c, 9, 35, 95
6, 264480, Note_on_c, 9, 59, 95
6, 264720, Note_off_c, 9, 35, 95
6, 264720, Note_off_c, 9, 59, 95
6, 264960, Note_on_c, 9, 38, 95
6, 264960, Note_on_c, 9, 40, 95
6, 265920, Note_off_c, 9, 38, 95
6, 265920, Note_off_c, 9, 40, 95
6, 265920, Note_on_c, 9, 38, 95
6, 265920, Note_on_c, 9, 54, 95
6, 266880, Note_off_c, 9, 38, 95
6, 266880, Note_off_c, 9, 54, 95
6, 266880, Note_on_c, 9, 38, 95
6, 266880, Note_on_c, 9, 54, 95
6, 267360, Note_off_c, 9, 38, 95
6, 267360, Note_off_c, 9, 54, 95
6, 267360, Note_on_c, 9, 35, 95
6, 267360, Note_on_c, 9, 59, 95
6, 267840, Note_off_c, 9, 35, 95
6, 267840, Note_off_c, 9, 59, 95
6, 267840, Note_on_c, 9, 38, 95
6, 267840, Note_on_c, 9, 52, 95
6, 268320, Note_off_c, 9, 38, 95
6, 268320, Note_off_c, 9, 52, 95
6, 268320, Note_on_c, 9, 35, 95
6, 268320, Note_on_c, 9, 59, 95
6, 268560, Note_off_c, 9, 35, 95
6, 268560, Note_off_c, 9, 59, 95
6, 268800, Note_on_c, 9, 38, 95
6, 268800, Note_on_c, 9, 40, 95
6, 269760, Note_off_c, 9, 38, 95
6, 269760, Note_off_c, 9, 40, 95
6, 269760, Note_on_c, 9, 38, 95
6, 269760, Note_on_c, 9, 54, 95
6, 270720, Note_off_c, 9, 38, 95
6, 270720, Note_off_c, 9, 54, 95
6, 270720, Note_on_c, 9, 38, 95
6, 270720, Note_on_c, 9, 54, 95
6, 271200, Note_off_c, 9, 38, 95
6, 271200, Note_off_c, 9, 54, 95
6, 271200, Note_on_c, 9, 35, 95
6, 271200, Note_on_c, 9, 59, 95
6, 271680, Note_off_c, 9, 35, 95
6, 271680, Note_off_c, 9, 59, 95
6, 271680, Note_on_c, 9, 38, 95
6, 271680, Note_on_c, 9, 52, 95
6, 272160, Note_off_c, 9, 38, 95
6, 272160, Note_off_c, 9, 52, 95
6, 272160, Note_on_c, 9, 35, 95
6, 272160, Note_on_c, 9, 59, 95
6, 272400, Note_off_c, 9, 35, 95
6, 272400, Note_off_c, 9, 59, 95
6, 272640, Note_on_c, 9, 38, 95
6, 272640, Note_on_c, 9, 40, 95
6, 273600, Note_off_c, 9, 38, 95
6, 273600, Note_off_c, 9, 40, 95
6, 273600, Note_on_c, 9, 38, 95
6, 273600, Note_on_c, 9, 54, 95
6, 274560, Note_off_c, 9, 38, 95
6, 274560, Note_off_c, 9, 54, 95
6, 274560, Note_on_c, 9, 38, 95
6, 274560, Note_on_c, 9, 54, 95
6, 275040, Note_off_c, 9, 38, 95
6, 275040, Note_off_c, 9, 54, 95
6, 275040, Note_on_c, 9, 35, 95
6, 275040, Note_on_c, 9, 59, 95
6, 275520, Note_off_c, 9, 35, 95
6, 275520, Note_off_c, 9, 59, 95
6, 275520, Note_on_c, 9, 38, 95
6, 275520, Note_on_c, 9, 52, 95
6, 276000, Note_off_c, 9, 38, 95
6, 276000, Note_off_c, 9, 52, 95
6, 276000, Note_on_c, 9, 35, 95
6, 276000, Note_on_c, 9, 59, 95
6, 276240, Note_off_c, 9, 35, 95
6, 276240, Note_off_c, 9, 59, 95
6, 276480, Note_on_c, 9, 38, 95
6, 276480, Note_on_c, 9, 40, 95
6, 277440, Note_off_c, 9, 38, 95
6, 277440, Note_off_c, 9, 40, 95
6, 277440, Note_on_c, 9, 38, 95
6, 277440, Note_on_c, 9, 54, 95
6, 278400, Note_off_c, 9, 38, 95
6, 278400, Note_off_c, 9, 54, 95
6, 278400, Note_on_c, 9, 38, 95
6, 278400, Note_on_c, 9, 54, 95
6, 278880, Note_off_c, 9, 38, 95
6, 278880, Note_off_c, 9, 54, 95
6, 278880, Note_on_c, 9, 35, 95
6, 278880, Note_on_c, 9, 59, 95
6, 279360, Note_off_c, 9, 35, 95
6, 279360, Note_off_c, 9, 59, 95
6, 279360, Note_on_c, 9, 38, 95
6, 279360, Note_on_c, 9, 52, 95
6, 279840, Note_off_c, 9, 38, 95
6, 279840, Note_off_c, 9, 52, 95
6, 279840, Note_on_c, 9, 35, 95
6, 279840, Note_on_c, 9, 59, 95
6, 280080, Note_off_c, 9, 35, 95
6, 280080, Note_off_c, 9, 59, 95
6, 280320, Note_on_c, 9, 38, 95
6, 280320, Note_on_c, 9, 40, 95
6, 281280, Note_off_c, 9, 38, 95
6, 281280, Note_off_c, 9, 40, 95
6, 281280, Note_on_c, 9, 38, 95
6, 281280, Note_on_c, 9, 54, 95
6, 282240, Note_off_c, 9, 38, 95
6, 282240, Note_off_c, 9, 54, 95
6, 282240, Note_on_c, 9, 38, 95
6, 282240, Note_on_c, 9, 54, 95
6, 282720, Note_off_c, 9, 38, 95
6, 282720, Note_off_c, 9, 54, 95
6, 282720, Note_on_c, 9, 35, 95
6, 282720, Note_on_c, 9, 59, 95
6, 283200, Note_off_c, 9, 35, 95
6, 283200, Note_off_c, 9, 59, 95
6, 283200, Note_on_c, 9, 38, 95
6, 283200, Note_on_c, 9, 52, 95
6, 283680, Note_off_c, 9, 38, 95
6, 283680, Note_off_c, 9, 52, 95
6, 283680, Note_on_c, 9, 35, 95
6, 283680, Note_on_c, 9, 59, 95
6, 283920, Note_off_c, 9, 35, 95
6, 283920, Note_off_c, 9, 59, 95
6, 284160, Note_on_c, 9, 38, 95
6, 284160, Note_on_c, 9, 40, 95
6, 285120, Note_off_c, 9, 38, 95
6, 285120, Note_off_c, 9, 40, 95
6, 285120, Note_on_c, 9, 38, 95
6, 285120, Note_on_c, 9, 54, 95
6, 286080, Note_off_c, 9, 38, 95
6, 286080, Note_off_c, 9, 54, 95
6, 286080, Note_on_c, 9, 38, 95
6, 286080, Note_on_c, 9, 54, 95
6, 286560, Note_off_c, 9, 38, 95
6, 286560, Note_off_c, 9, 54, 95
6, 286560, Note_on_c, 9, 35, 95
6, 286560, Note_on_c, 9, 59, 95
6, 287040, Note_off_c, 9, 35, 95
6, 287040, Note_off_c, 9, 59, 95
6, 287040, Note_on_c, 9, 38, 95
6, 287040, Note_on_c, 9, 52, 95
6, 287520, Note_off_c, 9, 38, 95
6, 287520, Note_off_c, 9, 52, 95
6, 287520, Note_on_c, 9, 35, 95
6, 287520, Note_on_c, 9, 59, 95
6, 287760, Note_off_c, 9, 35, 95
6, 287760, Note_off_c, 9, 59, 95
6, 288000, Note_on_c, 9, 38, 95
6, 288000, Note_on_c, 9, 40, 95
6, 288960, Note_off_c, 9, 38, 95
6, 288960, Note_off_c, 9, 40, 95
6, 288960, Note_on_c, 9, 38, 95
6, 288960, Note_on_c, 9, 54, 95
6, 289920, Note_off_c, 9, 38, 95
6, 289920, Note_off_c, 9, 54, 95
6, 289920, Note_on_c, 9, 38, 95
6, 289920, Note_on_c, 9, 54, 95
6, 290400, Note_off_c, 9, 38, 95
6, 290400, Note_off_c, 9, 54, 95
6, 290400, Note_on_c, 9, 35, 95
6, 290400, Note_on_c, 9, 59, 95
6, 290880, Note_off_c, 9, 35, 95
6, 290880, Note_off_c, 9, 59, 95
6, 290880, Note_on_c, 9, 38, 95
6, 290880, Note_on_c, 9, 52, 95
6, 291360, Note_off_c, 9, 38, 95
6, 291360, Note_off_c, 9, 52, 95
6, 291360, Note_on_c, 9, 35, 95
6, 291360, Note_on_c, 9, 59, 95
6, 291600, Note_off_c, 9, 35, 95
6, 291600, Note_off_c, 9, 59, 95
6, 291840, Note_on_c, 9, 38, 95
6, 291840, Note_on_c, 9, 40, 95
6, 292800, Note_off_c, 9, 38, 95
6, 292800, Note_off_c, 9, 40, 95
6, 292800, Note_on_c, 9, 38, 95
6, 292800, Note_on_c, 9, 54, 95
6, 293760, Note_off_c, 9, 38, 95
6, 293760, Note_off_c, 9, 54, 95
6, 293760, Note_on_c, 9, 38, 95
6, 293760, Note_on_c, 9, 54, 95
6, 294240, Note_off_c, 9, 38, 95
6, 294240, Note_off_c, 9, 54, 95
6, 294240, Note_on_c, 9, 35, 95
6, 294240, Note_on_c, 9, 59, 95
6, 294720, Note_off_c, 9, 35, 95
6, 294720, Note_off_c, 9, 59, 95
6, 294720, Note_on_c, 9, 38, 95
6, 294720, Note_on_c, 9, 52, 95
6, 295200, Note_off_c, 9, 38, 95
6, 295200, Note_off_c, 9, 52, 95
6, 295200, Note_on_c, 9, 35, 95
6, 295200, Note_on_c, 9, 59, 95
6, 295440, Note_off_c, 9, 35, 95
6, 295440, Note_off_c, 9, 59, 95
6, 295680, Note_on_c, 9, 38, 95
6, 295680, Note_on_c, 9, 40, 95
6, 296640, Note_off_c, 9, 38, 95
6, 296640, Note_off_c, 9, 40, 95
6, 296640, Note_on_c, 9, 38, 95
6, 296640, Note_on_c, 9, 54, 95
6, 297600, Note_off_c, 9, 38, 95
6, 297600, Note_off_c, 9, 54, 95
6, 297600, Note_on_c, 9, 38, 95
6, 297600, Note_on_c, 9, 54, 95
6, 298080, Note_off_c, 9, 38, 95
6, 298080, Note_off_c, 9, 54, 95
6, 298080, Note_on_c, 9, 35, 95
6, 298080, Note_on_c, 9, 59, 95
6, 298560, Note_off_c, 9, 35, 95
6, 298560, Note_off_c, 9, 59, 95
6, 298560, Note_on_c, 9, 38, 95
6, 298560, Note_on_c, 9, 52, 95
6, 299040, Note_off_c, 9, 38, 95
6, 299040, Note_off_c, 9, 52, 95
6, 299040, Note_on_c, 9, 35, 95
6, 299040, Note_on_c, 9, 59, 95
6, 299280, Note_off_c, 9, 35, 95
6, 299280, Note_off_c, 9, 59, 95
6, 299520, Note_on_c, 9, 38, 95
6, 299520, Note_on_c, 9, 40, 95
6, 300480, Note_off_c, 9, 38, 95
6, 300480, Note_off_c, 9, 40, 95
6, 300480, Note_on_c, 9, 38, 95
6, 300480, Note_on_c, 9, 54, 95
6, 301440, Note_off_c, 9, 38, 95
6, 301440, Note_off_c, 9, 54, 95
6, 301440, Note_on_c, 9, 38, 95
6, 301440, Note_on_c, 9, 54, 95
6, 301920, Note_off_c, 9, 38, 95
6, 301920, Note_off_c, 9, 54, 95
6, 301920, Note_on_c, 9, 35, 95
6, 301920, Note_on_c, 9, 59, 95
6, 302400, Note_off_c, 9, 35, 95
6, 302400, Note_off_c, 9, 59, 95
6, 302400, Note_on_c, 9, 38, 95
6, 302400, Note_on_c, 9, 52, 95
6, 302880, Note_off_c, 9, 38, 95
6, 302880, Note_off_c, 9, 52, 95
6, 302880, Note_on_c, 9, 35, 95
6, 302880, Note_on_c, 9, 59, 95
6, 303120, Note_off_c, 9, 35, 95
6, 303120, Note_off_c, 9, 59, 95
6, 303360, Note_on_c, 9, 38, 95
6, 303360, Note_on_c, 9, 40, 95
6, 304320, Note_off_c, 9, 38, 95
6, 304320, Note_off_c, 9, 40, 95
6, 304320, Note_on_c, 9, 38, 95
6, 304320, Note_on_c, 9, 54, 95
6, 305280, Note_off_c, 9, 38, 95
6, 305280, Note_off_c, 9, 54, 95
6, 305280, Note_on_c, 9, 38, 95
6, 305280, Note_on_c, 9, 54, 95
6, 305760, Note_off_c, 9, 38, 95
6, 305760, Note_off_c, 9, 54, 95
6, 305760, Note_on_c, 9, 35, 95
6, 305760, Note_on_c, 9, 59, 95
6, 306240, Note_off_c, 9, 35, 95
6, 306240, Note_off_c, 9, 59, 95
6, 306240, Note_on_c, 9, 38, 95
6, 306240, Note_on_c, 9, 52, 95
6, 306720, Note_off_c, 9, 38, 95
6, 306720, Note_off_c, 9, 52, 95
6, 306720, Note_on_c, 9, 35, 95
6, 306720, Note_on_c, 9, 59, 95
6, 306960, Note_off_c, 9, 35, 95
6, 306960, Note_off_c, 9, 59, 95
6, 307200, Note_on_c, 9, 38, 95
6, 307200, Note_on_c, 9, 40, 95
6, 308160, Note_off_c, 9, 38, 95
6, 308160, Note_off_c, 9, 40, 95
6, 308160, Note_on_c, 9, 38, 95
6, 308160, Note_on_c, 9, 54, 95
6, 309120, Note_off_c, 9, 38, 95
6, 309120, Note_off_c, 9, 54, 95
6, 309120, Note_on_c, 9, 38, 95
6, 309120, Note_on_c, 9, 54, 95
6, 309600, Note_off_c, 9, 38, 95
6, 309600, Note_off_c, 9, 54, 95
6, 309600, Note_on_c, 9, 35, 95
6, 309600, Note_on_c, 9, 59, 95
6, 310080, Note_off_c, 9, 35, 95
6, 310080, Note_off_c, 9, 59, 95
6, 310080, Note_on_c, 9, 38, 95
6, 310080, Note_on_c, 9, 52, 95
6, 310560, Note_off_c, 9, 38, 95
6, 310560, Note_off_c, 9, 52, 95
6, 310560, Note_on_c, 9, 35, 95
6, 310560, Note_on_c, 9, 59, 95
6, 310800, Note_off_c, 9, 35, 95
6, 310800, Note_off_c, 9, 59, 95
6, 311040, Note_on_c, 9, 38, 95
6, 311040, Note_on_c, 9, 40, 95
6, 312000, Note_off_c, 9, 38, 95
6, 312000, Note_off_c, 9, 40, 95
6, 312000, Note_on_c, 9, 38, 95
6, 312000, Note_on_c, 9, 54, 95
6, 312960, Note_off_c, 9, 38, 95
6, 312960, Note_off_c, 9, 54, 95
6, 312960, Note_on_c, 9, 38, 95
6, 312960, Note_on_c, 9, 54, 95
6, 313440, Note_off_c, 9, 38, 95
6, 313440, Note_off_c, 9, 54, 95
6, 313440, Note_on_c, 9, 35, 95
6, 313440, Note_on_c, 9, 59, 95
6, 313920, Note_off_c, 9, 35, 95
6, 313920, Note_off_c, 9, 59, 95
6, 313920, Note_on_c, 9, 38, 95
6, 313920, Note_on_c, 9, 52, 95
6, 314400, Note_off_c, 9, 38, 95
6, 314400, Note_off_c, 9, 52, 95
6, 314400, Note_on_c, 9, 35, 95
6, 314400, Note_on_c, 9, 59, 95
6, 314640, Note_off_c, 9, 35, 95
6, 314640, Note_off_c, 9, 59, 95
6, 314880, Note_on_c, 9, 38, 95
6, 314880, Note_on_c, 9, 40, 95
6, 315840, Note_off_c, 9, 38, 95
6, 315840, Note_off_c, 9, 40, 95
6, 315840, Note_on_c, 9, 38, 95
6, 315840, Note_on_c, 9, 54, 95
6, 316800, Note_off_c, 9, 38, 95
6, 316800, Note_off_c, 9, 54, 95
6, 316800, Note_on_c, 9, 38, 95
6, 316800, Note_on_c, 9, 54, 95
6, 317280, Note_off_c, 9, 38, 95
6, 317280, Note_off_c, 9, 54, 95
6, 317280, Note_on_c, 9, 35, 95
6, 317280, Note_on_c, 9, 59, 95
6, 317760, Note_off_c, 9, 35, 95
6, 317760, Note_off_c, 9, 59, 95
6, 317760, Note_on_c, 9, 38, 95
6, 317760, Note_on_c, 9, 52, 95
6, 318240, Note_off_c, 9, 38, 95
6, 318240, Note_off_c, 9, 52, 95
6, 318240, Note_on_c, 9, 35, 95
6, 318240, Note_on_c, 9, 59, 95
6, 318480, Note_off_c, 9, 35, 95
6, 318480, Note_off_c, 9, 59, 95
6, 318720, Note_on_c, 9, 38, 95
6, 318720, Note_on_c, 9, 40, 95
6, 319680, Note_off_c, 9, 38, 95
6, 319680, Note_off_c, 9, 40, 95
6, 319680, Note_on_c, 9, 38, 95
6, 319680, Note_on_c, 9, 54, 95
6, 320640, Note_off_c, 9, 38, 95
6, 320640, Note_off_c, 9, 54, 95
6, 320640, Note_on_c, 9, 38, 95
6, 320640, Note_on_c, 9, 54, 95
6, 321120, Note_off_c, 9, 38, 95
6, 321120, Note_off_c, 9, 54, 95
6, 321120, Note_on_c, 9, 35, 95
6, 321120, Note_on_c, 9, 59, 95
6, 321600, Note_off_c, 9, 35, 95
6, 321600, Note_off_c, 9, 59, 95
6, 321600, Note_on_c, 9, 38, 95
6, 321600, Note_on_c, 9, 52, 95
6, 322080, Note_off_c, 9, 38, 95
6, 322080, Note_off_c, 9, 52, 95
6, 322080, Note_on_c, 9, 35, 95
6, 322080, Note_on_c, 9, 59, 95
6, 322320, Note_off_c, 9, 35, 95
6, 322320, Note_off_c, 9, 59, 95
6, 322560, Note_on_c, 9, 38, 95
6, 322560, Note_on_c, 9, 40, 95
6, 323520, Note_off_c, 9, 38, 95
6, 323520, Note_off_c, 9, 40, 95
6, 323520, Note_on_c, 9, 38, 95
6, 323520, Note_on_c, 9, 54, 95
6, 324480, Note_off_c, 9, 38, 95
6, 324480, Note_off_c, 9, 54, 95
6, 324480, Note_on_c, 9, 38, 95
6, 324480, Note_on_c, 9, 54, 95
6, 324960, Note_off_c, 9, 38, 95
6, 324960, Note_off_c, 9, 54, 95
6, 324960, Note_on_c, 9, 35, 95
6, 324960, Note_on_c, 9, 59, 95
6, 325440, Note_off_c, 9, 35, 95
6, 325440, Note_off_c, 9, 59, 95
6, 325440, Note_on_c, 9, 38, 95
6, 325440, Note_on_c, 9, 52, 95
6, 325920, Note_off_c, 9, 38, 95
6, 325920, Note_off_c, 9, 52, 95
6, 325920, Note_on_c, 9, 35, 95
6, 325920, Note_on_c, 9, 59, 95
6, 326160, Note_off_c, 9, 35, 95
6, 326160, Note_off_c, 9, 59, 95
6, 326400, Note_on_c, 9, 38, 95
6, 326400, Note_on_c, 9, 40, 95
6, 327360, Note_off_c, 9, 38, 95
6, 327360, Note_off_c, 9, 40, 95
6, 327360, Note_on_c, 9, 38, 95
6, 327360, Note_on_c, 9, 54, 95
6, 328320, Note_off_c, 9, 38, 95
6, 328320, Note_off_c, 9, 54, 95
6, 328320, Note_on_c, 9, 38, 95
6, 328320, Note_on_c, 9, 54, 95
6, 328800, Note_off_c, 9, 38, 95
6, 328800, Note_off_c, 9, 54, 95
6, 328800, Note_on_c, 9, 35, 95
6, 328800, Note_on_c, 9, 59, 95
6, 329280, Note_off_c, 9, 35, 95
6, 329280, Note_off_c, 9, 59, 95
6, 329280, Note_on_c, 9, 38, 95
6, 329280, Note_on_c, 9, 52, 95
6, 329760, Note_off_c, 9, 38, 95
6, 329760, Note_off_c, 9, 52, 95
6, 329760, Note_on_c, 9, 35, 95
6, 329760, Note_on_c, 9, 59, 95
6, 330000, Note_off_c, 9, 35, 95
6, 330000, Note_off_c, 9, 59, 95
6, 330240, Note_on_c, 9, 38, 95
6, 330240, Note_on_c, 9, 40, 95
6, 331200, Note_off_c, 9, 38, 95
6, 331200, Note_off_c, 9, 40, 95
6, 331200, Note_on_c, 9, 38, 95
6, 331200, Note_on_c, 9, 54, 95
6, 332160, Note_off_c, 9, 38, 95
6, 332160, Note_off_c, 9, 54, 95
6, 332160, Note_on_c, 9, 38, 95
6, 332160, Note_on_c, 9, 54, 95
6, 332640, Note_off_c, 9, 38, 95
6, 332640, Note_off_c, 9, 54, 95
6, 332640, Note_on_c, 9, 35, 95
6, 332640, Note_on_c, 9, 59, 95
6, 333120, Note_off_c, 9, 35, 95
6, 333120, Note_off_c, 9, 59, 95
6, 333120, Note_on_c, 9, 38, 95
6, 333120, Note_on_c, 9, 52, 95
6, 333600, Note_off_c, 9, 38, 95
6, 333600, Note_off_c, 9, 52, 95
6, 333600, Note_on_c, 9, 35, 95
6, 333600, Note_on_c, 9, 59, 95
6, 333840, Note_off_c, 9, 35, 95
6, 333840, Note_off_c, 9, 59, 95
6, 334080, Note_on_c, 9, 38, 95
6, 334080, Note_on_c, 9, 40, 95
6, 335040, Note_off_c, 9, 38, 95
6, 335040, Note_off_c, 9, 40, 95
6, 335040, Note_on_c, 9, 38, 95
6, 335040, Note_on_c, 9, 54, 95
6, 336000, Note_off_c, 9, 38, 95
6, 336000, Note_off_c, 9, 54, 95
6, 336000, Note_on_c, 9, 38, 95
6, 336000, Note_on_c, 9, 54, 95
6, 336480, Note_off_c, 9, 38, 95
6, 336480, Note_off_c, 9, 54, 95
6, 336480, Note_on_c, 9, 35, 95
6, 336480, Note_on_c, 9, 59, 95
6, 336960, Note_off_c, 9, 35, 95
6, 336960, Note_off_c, 9, 59, 95
6, 336960, Note_on_c, 9, 38, 95
6, 336960, Note_on_c, 9, 52, 95
6, 337440, Note_off_c, 9, 38, 95
6, 337440, Note_off_c, 9, 52, 95
6, 337440, Note_on_c, 9, 35, 95
6, 337440, Note_on_c, 9, 59, 95
6, 337680, Note_off_c, 9, 35, 95
6, 337680, Note_off_c, 9, 59, 95
6, 337920, Note_on_c, 9, 38, 95
6, 337920, Note_on_c, 9, 40, 95
6, 338880, Note_off_c, 9, 38, 95
6, 338880, Note_off_c, 9, 40, 95
6, 338880, Note_on_c, 9, 38, 95
6, 338880, Note_on_c, 9, 54, 95
6, 339840, Note_off_c, 9, 38, 95
6, 339840, Note_off_c, 9, 54, 95
6, 339840, Note_on_c, 9, 38, 95
6, 339840, Note_on_c, 9, 54, 95
6, 340320, Note_off_c, 9, 38, 95
6, 340320, Note_off_c, 9, 54, 95
6, 340320, Note_on_c, 9, 35, 95
6, 340320, Note_on_c, 9, 59, 95
6, 340800, Note_off_c, 9, 35, 95
6, 340800, Note_off_c, 9, 59, 95
6, 340800, Note_on_c, 9, 38, 95
6, 340800, Note_on_c, 9, 52, 95
6, 341280, Note_off_c, 9, 38, 95
6, 341280, Note_off_c, 9, 52, 95
6, 341280, Note_on_c, 9, 35, 95
6, 341280, Note_on_c, 9, 59, 95
6, 341520, Note_off_c, 9, 35, 95
6, 341520, Note_off_c, 9, 59, 95
6, 341760, Note_on_c, 9, 38, 95
6, 341760, Note_on_c, 9, 40, 95
6, 342720, Note_off_c, 9, 38, 95
6, 342720, Note_off_c, 9, 40, 95
6, 342720, Note_on_c, 9, 38, 95
6, 342720, Note_on_c, 9, 54, 95
6, 343680, Note_off_c, 9, 38, 95
6, 343680, Note_off_c, 9, 54, 95
6, 343680, Note_on_c, 9, 38, 95
6, 343680, Note_on_c, 9, 54, 95
6, 344160, Note_off_c, 9, 38, 95
6, 344160, Note_off_c, 9, 54, 95
6, 344160, Note_on_c, 9, 35, 95
6, 344160, Note_on_c, 9, 59, 95
6, 344640, Note_off_c, 9, 35, 95
6, 344640, Note_off_c, 9, 59, 95
6, 344640, Note_on_c, 9, 38, 95
6, 344640, Note_on_c, 9, 52, 95
6, 345120, Note_off_c, 9, 38, 95
6, 345120, Note_off_c, 9, 52, 95
6, 345120, Note_on_c, 9, 35, 95
6, 345120, Note_on_c, 9, 59, 95
6, 345360, Note_off_c, 9, 35, 95
6, 345360, Note_off_c, 9, 59, 95
6, 345600, Note_on_c, 9, 38, 95
6, 345600, Note_on_c, 9, 40, 95
6, 346560, Note_off_c, 9, 38, 95
6, 346560, Note_off_c, 9, 40, 95
6, 346560, Note_on_c, 9, 38, 95
6, 346560, Note_on_c, 9, 54, 95
6, 347520, Note_off_c, 9, 38, 95
6, 347520, Note_off_c, 9, 54, 95
6, 347520, Note_on_c, 9, 38, 95
6, 347520, Note_on_c, 9, 54, 95
6, 348000, Note_off_c, 9, 38, 95
6, 348000, Note_off_c, 9, 54, 95
6, 348000, Note_on_c, 9, 35, 95
6, 348000, Note_on_c, 9, 59, 95
6, 348480, Note_off_c, 9, 35, 95
6, 348480, Note_off_c, 9, 59, 95
6, 348480, Note_on_c, 9, 38, 95
6, 348480, Note_on_c, 9, 52, 95
6, 348960, Note_off_c, 9, 38, 95
6, 348960, Note_off_c, 9, 52, 95
6, 348960, Note_on_c, 9, 35, 95
6, 348960, Note_on_c, 9, 59, 95
6, 349200, Note_off_c, 9, 35, 95
6, 349200, Note_off_c, 9, 59, 95
6, 349440, Note_on_c, 9, 38, 95
6, 349440, Note_on_c, 9, 40, 95
6, 350400, Note_off_c, 9, 38, 95
6, 350400, Note_off_c, 9, 40, 95
6, 350400, Note_on_c, 9, 38, 95
6, 350400, Note_on_c, 9, 54, 95
6, 351360, Note_off_c, 9, 38, 95
6, 351360, Note_off_c, 9, 54, 95
6, 351360, Note_on_c, 9, 38, 95
6, 351360, Note_on_c, 9, 54, 95
6, 351840, Note_off_c, 9, 38, 95
6, 351840, Note_off_c, 9, 54, 95
6, 351840, Note_on_c, 9, 35, 95
6, 351840, Note_on_c, 9, 59, 95
6, 352320, Note_off_c, 9, 35, 95
6, 352320, Note_off_c, 9, 59, 95
6, 352320, Note_on_c, 9, 38, 95
6, 352320, Note_on_c, 9, 52, 95
6, 352800, Note_off_c, 9, 38, 95
6, 352800, Note_off_c, 9, 52, 95
6, 352800, Note_on_c, 9, 35, 95
6, 352800, Note_on_c, 9, 59, 95
6, 353040, Note_off_c, 9, 35, 95
6, 353040, Note_off_c, 9, 59, 95
6, 353280, Note_on_c, 9, 38, 95
6, 353280, Note_on_c, 9, 40, 95
6, 354240, Note_off_c, 9, 38, 95
6, 354240, Note_off_c, 9, 40, 95
6, 354240, Note_on_c, 9, 38, 95
6, 354240, Note_on_c, 9, 54, 95
6, 355200, Note_off_c, 9, 38, 95
6, 355200, Note_off_c, 9, 54, 95
6, 355200, Note_on_c, 9, 38, 95
6, 355200, Note_on_c, 9, 54, 95
6, 355680, Note_off_c, 9, 38, 95
6, 355680, Note_off_c, 9, 54, 95
6, 355680, Note_on_c, 9, 35, 95
6, 355680, Note_on_c, 9, 59, 95
6, 356160, Note_off_c, 9, 35, 95
6, 356160, Note_off_c, 9, 59, 95
6, 356160, Note_on_c, 9, 38, 95
6, 356160, Note_on_c, 9, 52, 95
6, 356640, Note_off_c, 9, 38, 95
6, 356640, Note_off_c, 9, 52, 95
6, 356640, Note_on_c, 9, 35, 95
6, 356640, Note_on_c, 9, 59, 95
6, 356880, Note_off_c, 9, 35, 95
6, 356880, Note_off_c, 9, 59, 95
6, 357120, Note_on_c, 9, 38, 95
6, 357120, Note_on_c, 9, 40, 95
6, 358080, Note_off_c, 9, 38, 95
6, 358080, Note_off_c, 9, 40, 95
6, 358080, Note_on_c, 9, 38, 95
6, 358080, Note_on_c, 9, 54, 95
6, 359040, Note_off_c, 9, 38, 95
6, 359040, Note_off_c, 9, 54, 95
6, 359040, Note_on_c, 9, 38, 95
6, 359040, Note_on_c, 9, 54, 95
6, 359520, Note_off_c, 9, 38, 95
6, 359520, Note_off_c, 9, 54, 95
6, 359520, Note_on_c, 9, 35, 95
6, 359520, Note_on_c, 9, 59, 95
6, 360000, Note_off_c, 9, 35, 95
6, 360000, Note_off_c, 9, 59, 95
6, 360000, Note_on_c, 9, 38, 95
6, 360000, Note_on_c, 9, 52, 95
6, 360480, Note_off_c, 9, 38, 95
6, 360480, Note_off_c, 9, 52, 95
6, 360480, Note_on_c, 9, 35, 95
6, 360480, Note_on_c, 9, 59, 95
6, 360720, Note_off_c, 9, 35, 95
6, 360720, Note_off_c, 9, 59, 95
6, 360960, Note_on_c, 9, 38, 95
6, 360960, Note_on_c, 9, 40, 95
6, 361920, Note_off_c, 9, 38, 95
6, 361920, Note_off_c, 9, 40, 95
6, 361920, Note_on_c, 9, 38, 95
6, 361920, Note_on_c, 9, 54, 95
6, 362880, Note_off_c, 9, 38, 95
6, 362880, Note_off_c, 9, 54, 95
6, 362880, Note_on_c, 9, 38, 95
6, 362880, Note_on_c, 9, 54, 95
6, 363360, Note_off_c, 9, 38, 95
6, 363360, Note_off_c, 9, 54, 95
6, 363360, Note_on_c, 9, 35, 95
6, 363360, Note_on_c, 9, 59, 95
6, 363840, Note_off_c, 9, 35, 95
6, 363840, Note_off_c, 9, 59, 95
6, 363840, Note_on_c, 9, 38, 95
6, 363840, Note_on_c, 9, 52, 95
6, 364320, Note_off_c, 9, 38, 95
6, 364320, Note_off_c, 9, 52, 95
6, 364320, Note_on_c, 9, 35, 95
6, 364320, Note_on_c, 9, 59, 95
6, 364560, Note_off_c, 9, 35, 95
6, 364560, Note_off_c, 9, 59, 95
6, 364800, Note_on_c, 9, 38, 95
6, 364800, Note_on_c, 9, 40, 95
6, 365760, Note_off_c, 9, 38, 95
6, 365760, Note_off_c, 9, 40, 95
6, 365760, Note_on_c, 9, 38, 95
6, 365760, Note_on_c, 9, 54, 95
6, 366720, Note_off_c, 9, 38, 95
6, 366720, Note_off_c, 9, 54, 95
6, 366720, Note_on_c, 9, 38, 95
6, 366720, Note_on_c, 9, 54, 95
6, 367200, Note_off_c, 9, 38, 95
6, 367200, Note_off_c, 9, 54, 95
6, 367200, Note_on_c, 9, 35, 95
6, 367200, Note_on_c, 9, 59, 95
6, 367680, Note_off_c, 9, 35, 95
6, 367680, Note_off_c, 9, 59, 95
6, 367680, Note_on_c, 9, 38, 95
6, 367680, Note_on_c, 9, 52, 95
6, 368160, Note_off_c, 9, 38, 95
6, 368160, Note_off_c, 9, 52, 95
6, 368160, Note_on_c, 9, 35, 95
6, 368160, Note_on_c, 9, 59, 95
6, 368400, Note_off_c, 9, 35, 95
6, 368400, Note_off_c, 9, 59, 95
6, 368640, Note_on_c, 9, 38, 95
6, 368640, Note_on_c, 9, 40, 95
6, 369600, Note_off_c, 9, 38, 95
6, 369600, Note_off_c, 9, 40, 95
6, 369600, Note_on_c, 9, 38, 95
6, 369600, Note_on_c, 9, 54, 95
6, 370560, Note_off_c, 9, 38, 95
6, 370560, Note_off_c, 9, 54, 95
6, 370560, Note_on_c, 9, 38, 95
6, 370560, Note_on_c, 9, 54, 95
6, 371040, Note_off_c, 9, 38, 95
6, 371040, Note_off_c, 9, 54, 95
6, 371040, Note_on_c, 9, 35, 95
6, 371040, Note_on_c, 9, 59, 95
6, 371520, Note_off_c, 9, 35, 95
6, 371520, Note_off_c, 9, 59, 95
6, 371520, Note_on_c, 9, 38, 95
6, 371520, Note_on_c, 9, 52, 95
6, 372000, Note_off_c, 9, 38, 95
6, 372000, Note_off_c, 9, 52, 95
6, 372000, Note_on_c, 9, 35, 95
6, 372000, Note_on_c, 9, 59, 95
6, 372240, Note_off_c, 9, 35, 95
6, 372240, Note_off_c, 9, 59, 95
6, 372480, Note_on_c, 9, 38, 95
6, 372480, Note_on_c, 9, 40, 95
6, 373440, Note_off_c, 9, 38, 95
6, 373440, Note_off_c, 9, 40, 95
6, 373440, Note_on_c, 9, 38, 95
6, 373440, Note_on_c, 9, 54, 95
6, 374400, Note_off_c, 9, 38, 95
6, 374400, Note_off_c, 9, 54, 95
6, 374400, Note_on_c, 9, 38, 95
6, 374400, Note_on_c, 9, 54, 95
6, 374880, Note_off_c, 9, 38, 95
6, 374880, Note_off_c, 9, 54, 95
6, 374880, Note_on_c, 9, 35, 95
6, 374880, Note_on_c, 9, 59, 95
6, 375360, Note_off_c, 9, 35, 95
6, 375360, Note_off_c, 9, 59, 95
6, 375360, Note_on_c, 9, 38, 95
6, 375360, Note_on_c, 9, 52, 95
6, 375840, Note_off_c, 9, 38, 95
6, 375840, Note_off_c, 9, 52, 95
6, 375840, Note_on_c, 9, 35, 95
6, 375840, Note_on_c, 9, 59, 95
6, 376080, Note_off_c, 9, 35, 95
6, 376080, Note_off_c, 9, 59, 95
6, 376320, Note_on_c, 9, 38, 95
6, 376320, Note_on_c, 9, 40, 95
6, 377280, Note_off_c, 9, 38, 95
6, 377280, Note_off_c, 9, 40, 95
6, 377280, Note_on_c, 9, 38, 95
6, 377280, Note_on_c, 9, 54, 95
6, 378240, Note_off_c, 9, 38, 95
6, 378240, Note_off_c, 9, 54, 95
6, 378240, Note_on_c, 9, 38, 95
6, 378240, Note_on_c, 9, 54, 95
6, 378720, Note_off_c, 9, 38, 95
6, 378720, Note_off_c, 9, 54, 95
6, 378720, Note_on_c, 9, 35, 95
6, 378720, Note_on_c, 9, 59, 95
6, 379200, Note_off_c, 9, 35, 95
6, 379200, Note_off_c, 9, 59, 95
6, 379200, Note_on_c, 9, 38, 95
6, 379200, Note_on_c, 9, 52, 95
6, 379680, Note_off_c, 9, 38, 95
6, 379680, Note_off_c, 9, 52, 95
6, 379680, Note_on_c, 9, 35, 95
6, 379680, Note_on_c, 9, 59, 95
6, 379920, Note_off_c, 9, 35, 95
6, 379920, Note_off_c, 9, 59, 95
6, 380160, Note_on_c, 9, 38, 95
6, 380160, Note_on_c, 9, 40, 95
6, 381120, Note_off_c, 9, 38, 95
6, 381120, Note_off_c, 9, 40, 95
6, 381120, Note_on_c, 9, 38, 95
6, 381120, Note_on_c, 9, 54, 95
6, 382080, Note_off_c, 9, 38, 95
6, 382080, Note_off_c, 9, 54, 95
6, 382080, Note_on_c, 9, 38, 95
6, 382080, Note_on_c, 9, 54, 95
6, 382560, Note_off_c, 9, 38, 95
6, 382560, Note_off_c, 9, 54, 95
6, 382560, Note_on_c, 9, 35, 95
6, 382560, Note_on_c, 9, 59, 95
6, 383040, Note_off_c, 9, 35, 95
6, 383040, Note_off_c, 9, 59, 95
6, 383040, Note_on_c, 9, 38, 95
6, 383040, Note_on_c, 9, 52, 95
6, 383520, Note_off_c, 9, 38, 95
6, 383520, Note_off_c, 9, 52, 95
6, 383520, Note_on_c, 9, 35, 95
6, 383520, Note_on_c, 9, 59, 95
6, 383760, Note_off_c, 9, 35, 95
6, 383760, Note_off_c, 9, 59, 95
6, 384000, Note_on_c, 9, 38, 95
6, 384000, Note_on_c, 9, 40, 95
6, 384960, Note_off_c, 9, 38, 95
6, 384960, Note_off_c, 9, 40, 95
6, 384960, Note_on_c, 9, 38, 95
6, 384960, Note_on_c, 9, 54, 95
6, 385920, Note_off_c, 9, 38, 95
6, 385920, Note_off_c, 9, 54, 95
6, 385920, Note_on_c, 9, 38, 95
6, 385920, Note_on_c, 9, 54, 95
6, 386400, Note_off_c, 9, 38, 95
6, 386400, Note_off_c, 9, 54, 95
6, 386400, Note_on_c, 9, 35, 95
6, 386400, Note_on_c, 9, 59, 95
6, 386880, Note_off_c, 9, 35, 95
6, 386880, Note_off_c, 9, 59, 95
6, 386880, Note_on_c, 9, 38, 95
6, 386880, Note_on_c, 9, 52, 95
6, 387360, Note_off_c, 9, 38, 95
6, 387360, Note_off_c, 9, 52, 95
6, 387360, Note_on_c, 9, 35, 95
6, 387360, Note_on_c, 9, 59, 95
6, 387600, Note_off_c, 9, 35, 95
6, 387600, Note_off_c, 9, 59, 95
6, 387840, Note_on_c, 9, 38, 95
6, 387840, Note_on_c, 9, 40, 95
6, 388800, Note_off_c, 9, 38, 95
6, 388800, Note_off_c, 9, 40, 95
6, 388800, Note_on_c, 9, 38, 95
6, 388800, Note_on_c, 9, 54, 95
6, 389760, Note_off_c, 9, 38, 95
6, 389760, Note_off_c, 9, 54, 95
6, 389760, Note_on_c, 9, 38, 95
6, 389760, Note_on_c, 9, 54, 95
6, 390240, Note_off_c, 9, 38, 95
6, 390240, Note_off_c, 9, 54, 95
6, 390240, Note_on_c, 9, 35, 95
6, 390240, Note_on_c, 9, 59, 95
6, 390720, Note_off_c, 9, 35, 95
6, 390720, Note_off_c, 9, 59, 95
6, 390720, Note_on_c, 9, 38, 95
6, 390720, Note_on_c, 9, 52, 95
6, 391200, Note_off_c, 9, 38, 95
6, 391200, Note_off_c, 9, 52, 95
6, 391200, Note_on_c, 9, 35, 95
6, 391200, Note_on_c, 9, 59, 95
6, 391440, Note_off_c, 9, 35, 95
6, 391440, Note_off_c, 9, 59, 95
6, 391680, Note_on_c, 9, 38, 95
6, 391680, Note_on_c, 9, 40, 95
6, 392640, Note_off_c, 9, 38, 95
6, 392640, Note_off_c, 9, 40, 95
6, 392640, Note_on_c, 9, 38, 95
6, 392640, Note_on_c, 9, 54, 95
6, 393600, Note_off_c, 9, 38, 95
6, 393600, Note_off_c, 9, 54, 95
6, 393600, Note_on_c, 9, 38, 95
6, 393600, Note_on_c, 9, 54, 95
6, 394080, Note_off_c, 9, 38, 95
6, 394080, Note_off_c, 9, 54, 95
6, 394080, Note_on_c, 9, 35, 95
6, 394080, Note_on_c, 9, 59, 95
6, 394560, Note_off_c, 9, 35, 95
6, 394560, Note_off_c, 9, 59, 95
6, 394560, Note_on_c, 9, 38, 95
6, 394560, Note_on_c, 9, 52, 95
6, 395040, Note_off_c, 9, 38, 95
6, 395040, Note_off_c, 9, 52, 95
6, 395040, Note_on_c, 9, 35, 95
6, 395040, Note_on_c, 9, 59, 95
6, 395280, Note_off_c, 9, 35, 95
6, 395280, Note_off_c, 9, 59, 95
6, 395520, Note_on_c, 9, 38, 95
6, 395520, Note_on_c, 9, 40, 95
6, 396480, Note_off_c, 9, 38, 95
6, 396480, Note_off_c, 9, 40, 95
6, 396480, Note_on_c, 9, 38, 95
6, 396480, Note_on_c, 9, 54, 95
6, 397440, Note_off_c, 9, 38, 95
6, 397440, Note_off_c, 9, 54, 95
6, 397440, Note_on_c, 9, 38, 95
6, 397440, Note_on_c, 9, 54, 95
6, 397920, Note_off_c, 9, 38, 95
6, 397920, Note_off_c, 9, 54, 95
6, 397920, Note_on_c, 9, 35, 95
6, 397920, Note_on_c, 9, 59, 95
6, 398400, Note_off_c, 9, 35, 95
6, 398400, Note_off_c, 9, 59, 95
6, 398400, Note_on_c, 9, 38, 95
6, 398400, Note_on_c, 9, 52, 95
6, 398880, Note_off_c, 9, 38, 95
6, 398880, Note_off_c, 9, 52, 95
6, 398880, Note_on_c, 9, 35, 95
6, 398880, Note_on_c, 9, 59, 95
6, 399120, Note_off_c, 9, 35, 95
6, 399120, Note_off_c, 9, 59, 95
6, 399360, Note_on_c, 9, 38, 95
6, 399360, Note_on_c, 9, 40, 95
6, 400320, Note_off_c, 9, 38, 95
6, 400320, Note_off_c, 9, 40, 95
6, 400320, Note_on_c, 9, 38, 95
6, 400320, Note_on_c, 9, 54, 95
6, 401280, Note_off_c, 9, 38, 95
6, 401280, Note_off_c, 9, 54, 95
6, 401280, Note_on_c, 9, 38, 95
6, 401280, Note_on_c, 9, 54, 95
6, 401760, Note_off_c, 9, 38, 95
6, 401760, Note_off_c, 9, 54, 95
6, 401760, Note_on_c, 9, 35, 95
6, 401760, Note_on_c, 9, 59, 95
6, 402240, Note_off_c, 9, 35, 95
6, 402240, Note_off_c, 9, 59, 95
6, 402240, Note_on_c, 9, 38, 95
6, 402240, Note_on_c, 9, 52, 95
6, 402720, Note_off_c, 9, 38, 95
6, 402720, Note_off_c, 9, 52, 95
6, 402720, Note_on_c, 9, 35, 95
6, 402720, Note_on_c, 9, 59, 95
6, 402960, Note_off_c, 9, 35, 95
6, 402960, Note_off_c, 9, 59, 95
6, 403200, Note_on_c, 9, 38, 95
6, 403200, Note_on_c, 9, 40, 95
6, 404160, Note_off_c, 9, 38, 95
6, 404160, Note_off_c, 9, 40, 95
6, 404160, Note_on_c, 9, 38, 95
6, 404160, Note_on_c, 9, 54, 95
6, 405120, Note_off_c, 9, 38, 95
6, 405120, Note_off_c, 9, 54, 95
6, 405120, Note_on_c, 9, 38, 95
6, 405120, Note_on_c, 9, 54, 95
6, 405600, Note_off_c, 9, 38, 95
6, 405600, Note_off_c, 9, 54, 95
6, 405600, Note_on_c, 9, 35, 95
6, 405600, Note_on_c, 9, 59, 95
6, 406080, Note_off_c, 9, 35, 95
6, 406080, Note_off_c, 9, 59, 95
6, 406080, Note_on_c, 9, 38, 95
6, 406080, Note_on_c, 9, 52, 95
6, 406560, Note_off_c, 9, 38, 95
6, 406560, Note_off_c, 9, 52, 95
6, 406560, Note_on_c, 9, 35, 95
6, 406560, Note_on_c, 9, 59, 95
6, 406800, Note_off_c, 9, 35, 95
6, 406800, Note_off_c, 9, 59, 95
6, 407040, Note_on_c, 9, 38, 95
6, 407040, Note_on_c, 9, 40, 95
6, 408000, Note_off_c, 9, 38, 95
6, 408000, Note_off_c, 9, 40, 95
6, 408000, Note_on_c, 9, 38, 95
6, 408000, Note_on_c, 9, 54, 95
6, 408960, Note_off_c, 9, 38, 95
6, 408960, Note_off_c, 9, 54, 95
6, 408960, Note_on_c, 9, 38, 95
6, 408960, Note_on_c, 9, 54, 95
6, 409440, Note_off_c, 9, 38, 95
6, 409440, Note_off_c, 9, 54, 95
6, 409440, Note_on_c, 9, 35, 95
6, 409440, Note_on_c, 9, 59, 95
6, 409920, Note_off_c, 9, 35, 95
6, 409920, Note_off_c, 9, 59, 95
6, 409920, Note_on_c, 9, 38, 95
6, 409920, Note_on_c, 9, 52, 95
6, 410400, Note_off_c, 9, 38, 95
6, 410400, Note_off_c, 9, 52, 95
6, 410400, Note_on_c, 9, 35, 95
6, 410400, Note_on_c, 9, 59, 95
6, 410640, Note_off_c, 9, 35, 95
6, 410640, Note_off_c, 9, 59, 95
6, 410880, Note_on_c, 9, 38, 95
6, 410880, Note_on_c, 9, 40, 95
6, 411840, Note_off_c, 9, 38, 95
6, 411840, Note_off_c, 9, 40, 95
6, 411840, Note_on_c, 9, 38, 95
6, 411840, Note_on_c, 9, 54, 95
6, 412800, Note_off_c, 9, 38, 95
6, 412800, Note_off_c, 9, 54, 95
6, 412800, Note_on_c, 9, 38, 95
6, 412800, Note_on_c, 9, 54, 95
6, 413280, Note_off_c, 9, 38, 95
6, 413280, Note_off_c, 9, 54, 95
6, 413280, Note_on_c, 9, 35, 95
6, 413280, Note_on_c, 9, 59, 95
6, 413760, Note_off_c, 9, 35, 95
6, 413760, Note_off_c, 9, 59, 95
6, 413760, Note_on_c, 9, 38, 95
6, 413760, Note_on_c, 9, 52, 95
6, 414240, Note_off_c, 9, 38, 95
6, 414240, Note_off_c, 9, 52, 95
6, 414240, Note_on_c, 9, 35, 95
6, 414240, Note_on_c, 9, 59, 95
6, 414480, Note_off_c, 9, 35, 95
6, 414480, Note_off_c, 9, 59, 95
6, 414720, Note_on_c, 9, 38, 95
6, 414720, Note_on_c, 9, 40, 95
6, 415680, Note_off_c, 9, 38, 95
6, 415680, Note_off_c, 9, 40, 95
6, 415680, Note_on_c, 9, 38, 95
6, 415680, Note_on_c, 9, 54, 95
6, 416640, Note_off_c, 9, 38, 95
6, 416640, Note_off_c, 9, 54, 95
6, 416640, Note_on_c, 9, 38, 95
6, 416640, Note_on_c, 9, 54, 95
6, 417120, Note_off_c, 9, 38, 95
6, 417120, Note_off_c, 9, 54, 95
6, 417120, Note_on_c, 9, 35, 95
6, 417120, Note_on_c, 9, 59, 95
6, 417600, Note_off_c, 9, 35, 95
6, 417600, Note_off_c, 9, 59, 95
6, 417600, Note_on_c, 9, 38, 95
6, 417600, Note_on_c, 9, 52, 95
6, 418080, Note_off_c, 9, 38, 95
6, 418080, Note_off_c, 9, 52, 95
6, 418080, Note_on_c, 9, 35, 95
6, 418080, Note_on_c, 9, 59, 95
6, 418320, Note_off_c, 9, 35, 95
6, 418320, Note_off_c, 9, 59, 95
6, 418560, Note_on_c, 9, 38, 95
6, 418560, Note_on_c, 9, 40, 95
6, 419520, Note_off_c, 9, 38, 95
6, 419520, Note_off_c, 9, 40, 95
6, 419520, Note_on_c, 9, 38, 95
6, 419520, Note_on_c, 9, 54, 95
6, 420480, Note_off_c, 9, 38, 95
6, 420480, Note_off_c, 9, 54, 95
6, 420480, Note_on_c, 9, 38, 95
6, 420480, Note_on_c, 9, 54, 95
6, 420960, Note_off_c, 9, 38, 95
6, 420960, Note_off_c, 9, 54, 95
6, 420960, Note_on_c, 9, 35, 95
6, 420960, Note_on_c, 9, 59, 95
6, 421440, Note_off_c, 9, 35, 95
6, 421440, Note_off_c, 9, 59, 95
6, 421440, Note_on_c, 9, 38, 95
6, 421440, Note_on_c, 9, 52, 95
6, 421920, Note_off_c, 9, 38, 95
6, 421920, Note_off_c, 9, 52, 95
6, 421920, Note_on_c, 9, 35, 95
6, 421920, Note_on_c, 9, 59, 95
6, 422160, Note_off_c, 9, 35, 95
6, 422160, Note_off_c, 9, 59, 95
6, 422400, Note_on_c, 9, 38, 95
6, 422400, Note_on_c, 9, 40, 95
6, 423360, Note_off_c, 9, 38, 95
6, 423360, Note_off_c, 9, 40, 95
6, 423360, Note_on_c, 9, 38, 95
6, 423360, Note_on_c, 9, 54, 95
6, 424320, Note_off_c, 9, 38, 95
6, 424320, Note_off_c, 9, 54, 95
6, 424320, Note_on_c, 9, 38, 95
6, 424320, Note_on_c, 9, 54, 95
6, 424800, Note_off_c, 9, 38, 95
6, 424800, Note_off_c, 9, 54, 95
6, 424800, Note_on_c, 9, 35, 95
6, 424800, Note_on_c, 9, 59, 95
6, 425280, Note_off_c, 9, 35, 95
6, 425280, Note_off_c, 9, 59, 95
6, 425280, Note_on_c, 9, 38, 95
6, 425280, Note_on_c, 9, 52, 95
6, 425760, Note_off_c, 9, 38, 95
6, 425760, Note_off_c, 9, 52, 95
6, 425760, Note_on_c, 9, 35, 95
6, 425760, Note_on_c, 9, 59, 95
6, 426000, Note_off_c, 9, 35, 95
6, 426000, Note_off_c, 9, 59, 95
6, 426240, Note_on_c, 9, 38, 95
6, 426240, Note_on_c, 9, 40, 95
6, 427200, Note_off_c, 9, 38, 95
6, 427200, Note_off_c, 9, 40, 95
6, 427200, Note_on_c, 9, 38, 95
6, 427200, Note_on_c, 9, 54, 95
6, 428160, Note_off_c, 9, 38, 95
6, 428160, Note_off_c, 9, 54, 95
6, 428160, Note_on_c, 9, 38, 95
6, 428160, Note_on_c, 9, 54, 95
6, 428640, Note_off_c, 9, 38, 95
6, 428640, Note_off_c, 9, 54, 95
6, 428640, Note_on_c, 9, 35, 95
6, 428640, Note_on_c, 9, 59, 95
6, 429120, Note_off_c, 9, 35, 95
6, 429120, Note_off_c, 9, 59, 95
6, 429120, Note_on_c, 9, 38, 95
6, 429120, Note_on_c, 9, 52, 95
6, 429600, Note_off_c, 9, 38, 95
6, 429600, Note_off_c, 9, 52, 95
6, 429600, Note_on_c, 9, 35, 95
6, 429600, Note_on_c, 9, 59, 95
6, 429840, Note_off_c, 9, 35, 95
6, 429840, Note_off_c, 9, 59, 95
6, 430080, Note_on_c, 9, 38, 95
6, 430080, Note_on_c, 9, 40, 95
6, 431040, Note_off_c, 9, 38, 95
6, 431040, Note_off_c, 9, 40, 95
6, 431040, Note_on_c, 9, 38, 95
6, 431040, Note_on_c, 9, 54, 95
6, 432000, Note_off_c, 9, 38, 95
6, 432000, Note_off_c, 9, 54, 95
6, 432000, Note_on_c, 9, 38, 95
6, 432000, Note_on_c, 9, 54, 95
6, 432480, Note_off_c, 9, 38, 95
6, 432480, Note_off_c, 9, 54, 95
6, 432480, Note_on_c, 9, 35, 95
6, 432480, Note_on_c, 9, 59, 95
6, 432960, Note_off_c, 9, 35, 95
6, 432960, Note_off_c, 9, 59, 95
6, 432960, Note_on_c, 9, 38, 95
6, 432960, Note_on_c, 9, 52, 95
6, 433440, Note_off_c, 9, 38, 95
6, 433440, Note_off_c, 9, 52, 95
6, 433440, Note_on_c, 9, 35, 95
6, 433440, Note_on_c, 9, 59, 95
6, 433680, Note_off_c, 9, 35, 95
6, 433680, Note_off_c, 9, 59, 95
6, 433920, Note_on_c, 9, 38, 95
6, 433920, Note_on_c, 9, 40, 95
6, 434880, Note_off_c, 9, 38, 95
6, 434880, Note_off_c, 9, 40, 95
6, 434880, Note_on_c, 9, 38, 95
6, 434880, Note_on_c, 9, 54, 95
6, 435840, Note_off_c, 9, 38, 95
6, 435840, Note_off_c, 9, 54, 95
6, 435840, Note_on_c, 9, 38, 95
6, 435840, Note_on_c, 9, 54, 95
6, 436320, Note_off_c, 9, 38, 95
6, 436320, Note_off_c, 9, 54, 95
6, 436320, Note_on_c, 9, 35, 95
6, 436320, Note_on_c, 9, 59, 95
6, 436800, Note_off_c, 9, 35, 95
6, 436800, Note_off_c, 9, 59, 95
6, 436800, Note_on_c, 9, 38, 95
6, 436800, Note_on_c, 9, 52, 95
6, 437280, Note_off_c, 9, 38, 95
6, 437280, Note_off_c, 9, 52, 95
6, 437280, Note_on_c, 9, 35, 95
6, 437280, Note_on_c, 9, 59, 95
6, 437520, Note_off_c, 9, 35, 95
6, 437520, Note_off_c, 9, 59, 95
6, 437760, Note_on_c, 9, 38, 95
6, 437760, Note_on_c, 9, 40, 95
6, 438720, Note_off_c, 9, 38, 95
6, 438720, Note_off_c, 9, 40, 95
6, 438720, Note_on_c, 9, 38, 95
6, 438720, Note_on_c, 9, 54, 95
6, 439680, Note_off_c, 9, 38, 95
6, 439680, Note_off_c, 9, 54, 95
6, 439680, Note_on_c, 9, 38, 95
6, 439680, Note_on_c, 9, 54, 95
6, 440160, Note_off_c, 9, 38, 95
6, 440160, Note_off_c, 9, 54, 95
6, 440160, Note_on_c, 9, 35, 95
6, 440160, Note_on_c, 9, 59, 95
6, 440640, Note_off_c, 9, 35, 95
6, 440640, Note_off_c, 9, 59, 95
6, 440640, Note_on_c, 9, 38, 95
6, 440640, Note_on_c, 9, 52, 95
6, 441120, Note_off_c, 9, 38, 95
6, 441120, Note_off_c, 9, 52, 95
6, 441120, Note_on_c, 9, 35, 95
6, 441120, Note_on_c, 9, 59, 95
6, 441360, Note_off_c, 9, 35, 95
6, 441360, Note_off_c, 9, 59, 95
6, 441600, Note_on_c, 9, 38, 95
6, 441600, Note_on_c, 9, 40, 95
6, 442560, Note_off_c, 9, 38, 95
6, 442560, Note_off_c, 9, 40, 95
6, 442560, Note_on_c, 9, 38, 95
6, 442560, Note_on_c, 9, 54, 95
6, 443520, Note_off_c, 9, 38, 95
6, 443520, Note_off_c, 9, 54, 95
6, 443520, Note_on_c, 9, 38, 95
6, 443520, Note_on_c, 9, 54, 95
6, 444000, Note_off_c, 9, 38, 95
6, 444000, Note_off_c, 9, 54, 95
6, 444000, Note_on_c, 9, 35, 95
6, 444000, Note_on_c, 9, 59, 95
6, 444480, Note_off_c, 9, 35, 95
6, 444480, Note_off_c, 9, 59, 95
6, 444480, Note_on_c, 9, 38, 95
6, 444480, Note_on_c, 9, 52, 95
6, 444960, Note_off_c, 9, 38, 95
6, 444960, Note_off_c, 9, 52, 95
6, 444960, Note_on_c, 9, 35, 95
6, 444960, Note_on_c, 9, 59, 95
6, 445200, Note_off_c, 9, 35, 95
6, 445200, Note_off_c, 9, 59, 95
6, 445440, Note_on_c, 9, 38, 95
6, 445440, Note_on_c, 9, 40, 95
6, 446400, Note_off_c, 9, 38, 95
6, 446400, Note_off_c, 9, 40, 95
6, 446400, Note_on_c, 9, 38, 95
6, 446400, Note_on_c, 9, 54, 95
6, 447360, Note_off_c, 9, 38, 95
6, 447360, Note_off_c, 9, 54, 95
6, 447360, Note_on_c, 9, 38, 95
6, 447360, Note_on_c, 9, 54, 95
6, 447840, Note_off_c, 9, 38, 95
6, 447840, Note_off_c, 9, 54, 95
6, 447840, Note_on_c, 9, 35, 95
6, 447840, Note_on_c, 9, 59, 95
6, 448320, Note_off_c, 9, 35, 95
6, 448320, Note_off_c, 9, 59, 95
6, 448320, Note_on_c, 9, 38, 95
6, 448320, Note_on_c, 9, 52, 95
6, 448800, Note_off_c, 9, 38, 95
6, 448800, Note_off_c, 9, 52, 95
6, 448800, Note_on_c, 9, 35, 95
6, 448800, Note_on_c, 9, 59, 95
6, 449040, Note_off_c, 9, 35, 95
6, 449040, Note_off_c, 9, 59, 95
6, 449280, Note_on_c, 9, 38, 95
6, 449280, Note_on_c, 9, 40, 95
6, 450240, Note_off_c, 9, 38, 95
6, 450240, Note_off_c, 9, 40, 95
6, 450240, Note_on_c, 9, 38, 95
6, 450240, Note_on_c, 9, 54, 95
6, 451200, Note_off_c, 9, 38, 95
6, 451200, Note_off_c, 9, 54, 95
6, 451200, Note_on_c, 9, 38, 95
6, 451200, Note_on_c, 9, 54, 95
6, 451680, Note_off_c, 9, 38, 95
6, 451680, Note_off_c, 9, 54, 95
6, 451680, Note_on_c, 9, 35, 95
6, 451680, Note_on_c, 9, 59, 95
6, 452160, Note_off_c, 9, 35, 95
6, 452160, Note_off_c, 9, 59, 95
6, 452160, Note_on_c, 9, 38, 95
6, 452160, Note_on_c, 9, 52, 95
6, 452640, Note_off_c, 9, 38, 95
6, 452640, Note_off_c, 9, 52, 95
6, 452640, Note_on_c, 9, 35, 95
6, 452640, Note_on_c, 9, 59, 95
6, 452880, Note_off_c, 9, 35, 95
6, 452880, Note_off_c, 9, 59, 95
6, 453120, Note_on_c, 9, 38, 95
6, 453120, Note_on_c, 9, 40, 95
6, 454080, Note_off_c, 9, 38, 95
6, 454080, Note_off_c, 9, 40, 95
6, 454080, Note_on_c, 9, 38, 95
6, 454080, Note_on_c, 9, 54, 95
6, 455040, Note_off_c, 9, 38, 95
6, 455040, Note_off_c, 9, 54, 95
6, 455040, Note_on_c, 9, 38, 95
6, 455040, Note_on_c, 9, 54, 95
6, 455520, Note_off_c, 9, 38, 95
6, 455520, Note_off_c, 9, 54, 95
6, 455520, Note_on_c, 9, 35, 95
6, 455520, Note_on_c, 9, 59, 95
6, 456000, Note_off_c, 9, 35, 95
6, 456000, Note_off_c, 9, 59, 95
6, 456000, Note_on_c, 9, 38, 95
6, 456000, Note_on_c, 9, 52, 95
6, 456480, Note_off_c, 9, 38, 95
6, 456480, Note_off_c, 9, 52, 95
6, 456480, Note_on_c, 9, 35, 95
6, 456480, Note_on_c, 9, 59, 95
6, 456720, Note_off_c, 9, 35, 95
6, 456720, Note_off_c, 9, 59, 95
6, 456960, Note_on_c, 9, 38, 95
6, 456960, Note_on_c, 9, 40, 95
6, 457920, Note_off_c, 9, 38, 95
6, 457920, Note_off_c, 9, 40, 95
6, 457920, Note_on_c, 9, 38, 95
6, 457920, Note_on_c, 9, 54, 95
6, 458880, Note_off_c, 9, 38, 95
6, 458880, Note_off_c, 9, 54, 95
6, 458880, Note_on_c, 9, 38, 95
6, 458880, Note_on_c, 9, 54, 95
6, 459360, Note_off_c, 9, 38, 95
6, 459360, Note_off_c, 9, 54, 95
6, 459360, Note_on_c, 9, 35, 95
6, 459360, Note_on_c, 9, 59, 95
6, 459840, Note_off_c, 9, 35, 95
6, 459840, Note_off_c, 9, 59, 95
6, 459840, Note_on_c, 9, 38, 95
6, 459840, Note_on_c, 9, 52, 95
6, 460320, Note_off_c, 9, 38, 95
6, 460320, Note_off_c, 9, 52, 95
6, 460320, Note_on_c, 9, 35, 95
6, 460320, Note_on_c, 9, 59, 95
6, 460560, Note_off_c, 9, 35, 95
6, 460560, Note_off_c, 9, 59, 95
6, 460800, Note_on_c, 9, 38, 95
6, 460800, Note_on_c, 9, 40, 95
6, 461760, Note_off_c, 9, 38, 95
6, 461760, Note_off_c, 9, 40, 95
6, 461760, Note_on_c, 9, 38, 95
6, 461760, Note_on_c, 9, 54, 95
6, 462720, Note_off_c, 9, 38, 95
6, 462720, Note_off_c, 9, 54, 95
6, 462720, Note_on_c, 9, 38, 95
6, 462720, Note_on_c, 9, 54, 95
6, 463200, Note_off_c, 9, 38, 95
6, 463200, Note_off_c, 9, 54, 95
6, 463200, Note_on_c, 9, 35, 95
6, 463200, Note_on_c, 9, 59, 95
6, 463680, Note_off_c, 9, 35, 95
6, 463680, Note_off_c, 9, 59, 95
6, 463680, Note_on_c, 9, 38, 95
6, 463680, Note_on_c, 9, 52, 95
6, 464160, Note_off_c, 9, 38, 95
6, 464160, Note_off_c, 9, 52, 95
6, 464160, Note_on_c, 9, 35, 95
6, 464160, Note_on_c, 9, 59, 95
6, 464400, Note_off_c, 9, 35, 95
6, 464400, Note_off_c, 9, 59, 95
6, 464400, End_track
0, 0, End_of_file
