0, 0, Header, 1, 5, 480
1, 0, Start_track
1, 0, Tempo, 285714
1, 0, Title_t, "I Bet You Look Good On The Dancefloor"
1, 0, Time_signature, 4, 2, 4, 92
1, 0, Marker_t, "Intro"
1, 46080, Marker_t, "Verse 1"
1, 76800, Marker_t, "Chorus"
1, 107520, Marker_t, "Interlude"
1, 122880, Marker_t, "Verse 2"
1, 153600, Marker_t, "Chorus"
1, 184320, Marker_t, "Bridge"
1, 241920, Marker_t, "Chorus / Outro"
1, 241920, End_track
2, 0, Start_track
2, 0, Title_t, "Alex"
2, 0, Control_c, 3, 100, 0
2, 0, Control_c, 3, 101, 0
2, 0, Control_c, 3, 6, 12
2, 0, Pitch_bend_c, 3, 8192
2, 0, Control_c, 3, 101, 0
2, 0, Control_c, 3, 100, 1
2, 0, Control_c, 3, 6, 64
2, 0, Control_c, 3, 38, 0
2, 0, Control_c, 3, 101, 127
2, 0, Control_c, 3, 100, 127
2, 0, Control_c, 2, 100, 0
2, 0, Control_c, 2, 101, 0
2, 0, Control_c, 2, 6, 12
2, 0, Pitch_bend_c, 2, 8192
2, 0, Control_c, 2, 101, 0
2, 0, Control_c, 2, 100, 1
2, 0, Control_c, 2, 6, 64
2, 0, Control_c, 2, 38, 0
2, 0, Control_c, 2, 101, 127
2, 0, Control_c, 2, 100, 127
2, 0, Control_c, 3, 101, 0
2, 0, Control_c, 3, 100, 2
2, 0, Control_c, 3, 6, 64
2, 0, Control_c, 3, 101, 127
2, 0, Control_c, 3, 100, 127
2, 0, Control_c, 2, 101, 0
2, 0, Control_c, 2, 100, 2
2, 0, Control_c, 2, 6, 64
2, 0, Control_c, 2, 101, 127
2, 0, Control_c, 2, 100, 127
2, 0, Program_c, 3, 29
2, 0, Program_c, 2, 29
2, 0, Control_c, 3, 0, 0
2, 0, Control_c, 2, 0, 0
2, 0, Control_c, 3, 7, 112
2, 0, Control_c, 2, 7, 112
2, 0, Control_c, 3, 10, 64
2, 0, Control_c, 2, 10, 64
2, 0, Control_c, 3, 93, 0
2, 0, Control_c, 2, 93, 0
2, 0, Control_c, 3, 91, 0
2, 0, Control_c, 2, 91, 0
2, 0, Control_c, 3, 92, 0
2, 0, Control_c, 2, 92, 0
2, 0, Control_c, 3, 95, 0
2, 0, Control_c, 2, 95, 0
2, 0, Note_on_c, 2, 54, 95
2, 0, Note_on_c, 2, 49, 95
2, 0, Note_on_c, 2, 42, 95
2, 480, Note_off_c, 2, 54, 80
2, 480, Note_off_c, 2, 49, 80
2, 480, Note_off_c, 2, 42, 80
2, 480, Note_on_c, 2, 54, 95
2, 480, Note_on_c, 2, 49, 95
2, 480, Note_on_c, 2, 42, 95
2, 960, Note_off_c, 2, 54, 80
2, 960, Note_off_c, 2, 49, 80
2, 960, Note_off_c, 2, 42, 80
2, 1920, Note_on_c, 2, 54, 95
2, 1920, Note_on_c, 2, 49, 95
2, 1920, Note_on_c, 2, 42, 95
2, 2400, Note_off_c, 2, 54, 80
2, 2400, Note_off_c, 2, 49, 80
2, 2400, Note_off_c, 2, 42, 80
2, 2400, Note_on_c, 2, 54, 95
2, 2400, Note_on_c, 2, 49, 95
2, 2400, Note_on_c, 2, 42, 95
2, 2880, Note_off_c, 2, 54, 80
2, 2880, Note_off_c, 2, 49, 80
2, 2880, Note_off_c, 2, 42, 80
2, 3840, Note_on_c, 2, 54, 95
2, 3840, Note_on_c, 2, 49, 95
2, 3840, Note_on_c, 2, 42, 95
2, 4320, Note_off_c, 2, 54, 80
2, 4320, Note_off_c, 2, 49, 80
2, 4320, Note_off_c, 2, 42, 80
2, 4320, Note_on_c, 2, 54, 95
2, 4320, Note_on_c, 2, 49, 95
2, 4320, Note_on_c, 2, 42, 95
2, 4800, Note_off_c, 2, 54, 80
2, 4800, Note_off_c, 2, 49, 80
2, 4800, Note_off_c, 2, 42, 80
2, 5760, Note_on_c, 2, 54, 95
2, 5760, Note_on_c, 2, 49, 95
2, 5760, Note_on_c, 2, 42, 95
2, 6240, Note_off_c, 2, 54, 80
2, 6240, Note_off_c, 2, 49, 80
2, 6240, Note_off_c, 2, 42, 80
2, 6240, Note_on_c, 2, 54, 95
2, 6240, Note_on_c, 2, 49, 95
2, 6240, Note_on_c, 2, 42, 95
2, 6720, Note_off_c, 2, 54, 80
2, 6720, Note_off_c, 2, 49, 80
2, 6720, Note_off_c, 2, 42, 80
2, 7680, Note_on_c, 2, 54, 95
2, 7680, Note_on_c, 2, 49, 95
2, 7680, Note_on_c, 2, 42, 95
2, 8160, Note_off_c, 2, 54, 80
2, 8160, Note_off_c, 2, 49, 80
2, 8160, Note_off_c, 2, 42, 80
2, 8160, Note_on_c, 2, 54, 95
2, 8160, Note_on_c, 2, 49, 95
2, 8160, Note_on_c, 2, 42, 95
2, 8640, Note_off_c, 2, 54, 80
2, 8640, Note_off_c, 2, 49, 80
2, 8640, Note_off_c, 2, 42, 80
2, 9600, Note_on_c, 2, 54, 95
2, 9600, Note_on_c, 2, 49, 95
2, 9600, Note_on_c, 2, 42, 95
2, 10080, Note_off_c, 2, 54, 80
2, 10080, Note_off_c, 2, 49, 80
2, 10080, Note_off_c, 2, 42, 80
2, 10080, Note_on_c, 2, 54, 95
2, 10080, Note_on_c, 2, 49, 95
2, 10080, Note_on_c, 2, 42, 95
2, 10560, Note_off_c, 2, 54, 80
2, 10560, Note_off_c, 2, 49, 80
2, 10560, Note_off_c, 2, 42, 80
2, 11520, Note_on_c, 2, 54, 95
2, 11520, Note_on_c, 2, 49, 95
2, 11520, Note_on_c, 2, 42, 95
2, 12000, Note_off_c, 2, 54, 80
2, 12000, Note_off_c, 2, 49, 80
2, 12000, Note_off_c, 2, 42, 80
2, 12000, Note_on_c, 2, 54, 95
2, 12000, Note_on_c, 2, 49, 95
2, 12000, Note_on_c, 2, 42, 95
2, 12480, Note_off_c, 2, 54, 80
2, 12480, Note_off_c, 2, 49, 80
2, 12480, Note_off_c, 2, 42, 80
2, 13440, Note_on_c, 2, 54, 95
2, 13440, Note_on_c, 2, 49, 95
2, 13440, Note_on_c, 2, 42, 95
2, 13920, Note_off_c, 2, 54, 80
2, 13920, Note_off_c, 2, 49, 80
2, 13920, Note_off_c, 2, 42, 80
2, 13920, Note_on_c, 2, 54, 95
2, 13920, Note_on_c, 2, 49, 95
2, 13920, Note_on_c, 2, 42, 95
2, 14400, Note_off_c, 2, 54, 80
2, 14400, Note_off_c, 2, 49, 80
2, 14400, Note_off_c, 2, 42, 80
2, 15360, Note_on_c, 2, 54, 95
2, 15600, Note_off_c, 2, 54, 80
2, 15600, Note_on_c, 2, 54, 95
2, 15840, Note_off_c, 2, 54, 80
2, 15840, Note_on_c, 2, 54, 95
2, 16080, Note_off_c, 2, 54, 80
2, 16080, Note_on_c, 2, 54, 95
2, 16320, Note_off_c, 2, 54, 80
2, 16320, Note_on_c, 2, 57, 95
2, 16560, Note_off_c, 2, 57, 80
2, 16560, Note_on_c, 2, 57, 95
2, 16800, Note_off_c, 2, 57, 80
2, 16800, Note_on_c, 2, 57, 95
2, 17040, Note_off_c, 2, 57, 80
2, 17040, Note_on_c, 2, 57, 95
2, 17280, Note_off_c, 2, 57, 80
2, 17280, Note_on_c, 2, 59, 95
2, 17520, Note_off_c, 2, 59, 80
2, 17520, Note_on_c, 2, 59, 95
2, 17760, Note_off_c, 2, 59, 80
2, 17760, Note_on_c, 2, 59, 95
2, 18000, Note_off_c, 2, 59, 80
2, 18000, Note_on_c, 2, 59, 95
2, 18240, Note_off_c, 2, 59, 80
2, 18240, Note_on_c, 2, 61, 95
2, 18480, Note_off_c, 2, 61, 80
2, 18480, Note_on_c, 2, 61, 95
2, 18720, Note_off_c, 2, 61, 80
2, 18720, Note_on_c, 2, 61, 95
2, 18960, Note_off_c, 2, 61, 80
2, 18960, Note_on_c, 2, 61, 95
2, 19200, Note_off_c, 2, 61, 80
2, 19200, Note_on_c, 2, 64, 95
2, 19440, Note_off_c, 2, 64, 80
2, 19440, Note_on_c, 2, 64, 95
2, 19680, Note_off_c, 2, 64, 80
2, 19680, Note_on_c, 2, 64, 95
2, 19920, Note_off_c, 2, 64, 80
2, 19920, Note_on_c, 2, 64, 95
2, 20160, Note_off_c, 2, 64, 80
2, 20160, Note_on_c, 2, 66, 95
2, 20400, Note_off_c, 2, 66, 80
2, 20400, Note_on_c, 2, 66, 95
2, 20640, Note_off_c, 2, 66, 80
2, 20640, Note_on_c, 2, 66, 95
2, 20880, Note_off_c, 2, 66, 80
2, 20880, Note_on_c, 2, 66, 95
2, 21120, Note_off_c, 2, 66, 80
2, 21120, Note_on_c, 2, 69, 95
2, 21360, Note_off_c, 2, 69, 80
2, 21360, Note_on_c, 2, 69, 95
2, 21600, Note_off_c, 2, 69, 80
2, 21600, Note_on_c, 2, 69, 95
2, 21840, Note_off_c, 2, 69, 80
2, 21840, Note_on_c, 2, 69, 95
2, 22080, Note_off_c, 2, 69, 80
2, 22080, Note_on_c, 2, 71, 95
2, 22320, Note_off_c, 2, 71, 80
2, 22320, Note_on_c, 2, 71, 95
2, 22560, Note_off_c, 2, 71, 80
2, 22560, Note_on_c, 2, 71, 95
2, 22800, Note_off_c, 2, 71, 80
2, 22800, Note_on_c, 2, 71, 95
2, 23040, Note_off_c, 2, 71, 80
2, 23040, Note_on_c, 3, 71, 95
2, 23040, Pitch_bend_c, 3, 8192
2, 23072, Pitch_bend_c, 3, 8320
2, 23088, Pitch_bend_c, 3, 8448
2, 23104, Pitch_bend_c, 3, 8704
2, 23120, Pitch_bend_c, 3, 8960
2, 23136, Pitch_bend_c, 3, 9344
2, 23152, Pitch_bend_c, 3, 9472
2, 23168, Pitch_bend_c, 3, 9600
2, 23520, Note_off_c, 3, 71, 80
2, 23520, Pitch_bend_c, 3, 8192
2, 23520, Note_on_c, 3, 71, 95
2, 23520, Pitch_bend_c, 3, 8192
2, 23552, Pitch_bend_c, 3, 8320
2, 23568, Pitch_bend_c, 3, 8448
2, 23584, Pitch_bend_c, 3, 8704
2, 23600, Pitch_bend_c, 3, 8960
2, 23616, Pitch_bend_c, 3, 9344
2, 23632, Pitch_bend_c, 3, 9472
2, 23648, Pitch_bend_c, 3, 9600
2, 24000, Note_off_c, 3, 71, 80
2, 24000, Pitch_bend_c, 3, 8192
2, 24000, Note_on_c, 3, 71, 95
2, 24000, Pitch_bend_c, 3, 8192
2, 24032, Pitch_bend_c, 3, 8320
2, 24048, Pitch_bend_c, 3, 8448
2, 24064, Pitch_bend_c, 3, 8704
2, 24080, Pitch_bend_c, 3, 8960
2, 24096, Pitch_bend_c, 3, 9344
2, 24112, Pitch_bend_c, 3, 9472
2, 24128, Pitch_bend_c, 3, 9600
2, 24480, Note_off_c, 3, 71, 80
2, 24480, Pitch_bend_c, 3, 8192
2, 24480, Note_on_c, 3, 71, 95
2, 24480, Pitch_bend_c, 3, 8192
2, 24512, Pitch_bend_c, 3, 8320
2, 24528, Pitch_bend_c, 3, 8448
2, 24544, Pitch_bend_c, 3, 8704
2, 24560, Pitch_bend_c, 3, 8960
2, 24576, Pitch_bend_c, 3, 9344
2, 24592, Pitch_bend_c, 3, 9472
2, 24608, Pitch_bend_c, 3, 9600
2, 24960, Note_off_c, 3, 71, 80
2, 24960, Pitch_bend_c, 3, 8192
2, 24960, Note_on_c, 3, 71, 95
2, 24960, Pitch_bend_c, 3, 8192
2, 24992, Pitch_bend_c, 3, 8320
2, 25008, Pitch_bend_c, 3, 8448
2, 25024, Pitch_bend_c, 3, 8704
2, 25040, Pitch_bend_c, 3, 8960
2, 25056, Pitch_bend_c, 3, 9344
2, 25072, Pitch_bend_c, 3, 9472
2, 25088, Pitch_bend_c, 3, 9600
2, 25440, Note_off_c, 3, 71, 80
2, 25440, Pitch_bend_c, 3, 8192
2, 25440, Note_on_c, 3, 71, 95
2, 25440, Pitch_bend_c, 3, 8192
2, 25472, Pitch_bend_c, 3, 8320
2, 25488, Pitch_bend_c, 3, 8448
2, 25504, Pitch_bend_c, 3, 8704
2, 25520, Pitch_bend_c, 3, 8960
2, 25536, Pitch_bend_c, 3, 9344
2, 25552, Pitch_bend_c, 3, 9472
2, 25568, Pitch_bend_c, 3, 9600
2, 25920, Note_off_c, 3, 71, 80
2, 25920, Pitch_bend_c, 3, 8192
2, 25920, Note_on_c, 3, 71, 95
2, 25920, Pitch_bend_c, 3, 8192
2, 25952, Pitch_bend_c, 3, 8320
2, 25968, Pitch_bend_c, 3, 8448
2, 25984, Pitch_bend_c, 3, 8704
2, 26000, Pitch_bend_c, 3, 8960
2, 26016, Pitch_bend_c, 3, 9344
2, 26032, Pitch_bend_c, 3, 9472
2, 26048, Pitch_bend_c, 3, 9600
2, 26400, Note_off_c, 3, 71, 80
2, 26400, Pitch_bend_c, 3, 8192
2, 26400, Note_on_c, 3, 71, 95
2, 26400, Pitch_bend_c, 3, 8192
2, 26416, Pitch_bend_c, 3, 8320
2, 26432, Pitch_bend_c, 3, 8704
2, 26448, Pitch_bend_c, 3, 9344
2, 26464, Pitch_bend_c, 3, 9600
2, 26640, Note_off_c, 3, 71, 80
2, 26640, Pitch_bend_c, 3, 8192
2, 26640, Note_on_c, 2, 69, 95
2, 26880, Note_off_c, 2, 69, 80
2, 26880, Note_on_c, 2, 71, 95
2, 27200, Note_off_c, 2, 71, 80
2, 27200, Note_on_c, 2, 69, 95
2, 27520, Note_off_c, 2, 69, 80
2, 27520, Note_on_c, 2, 66, 95
2, 27840, Note_off_c, 2, 66, 80
2, 27840, Note_on_c, 2, 64, 95
2, 28160, Note_off_c, 2, 64, 80
2, 28160, Note_on_c, 2, 66, 95
2, 28480, Note_off_c, 2, 66, 80
2, 28480, Note_on_c, 2, 69, 95
2, 28800, Note_off_c, 2, 69, 80
2, 28800, Note_on_c, 2, 71, 95
2, 29120, Note_off_c, 2, 71, 80
2, 29120, Note_on_c, 2, 69, 95
2, 29440, Note_off_c, 2, 69, 80
2, 29440, Note_on_c, 2, 66, 95
2, 29760, Note_off_c, 2, 66, 80
2, 29760, Note_on_c, 2, 64, 95
2, 30080, Note_off_c, 2, 64, 80
2, 30080, Note_on_c, 2, 66, 95
2, 30400, Note_off_c, 2, 66, 80
2, 30400, Note_on_c, 2, 69, 95
2, 30720, Note_off_c, 2, 69, 80
2, 30720, Note_on_c, 3, 71, 95
2, 30720, Pitch_bend_c, 3, 8192
2, 30784, Pitch_bend_c, 3, 8320
2, 30864, Pitch_bend_c, 3, 8448
2, 30880, Pitch_bend_c, 3, 8576
2, 30912, Pitch_bend_c, 3, 8704
2, 30944, Pitch_bend_c, 3, 8960
2, 30976, Pitch_bend_c, 3, 9088
2, 31008, Pitch_bend_c, 3, 9344
2, 31040, Pitch_bend_c, 3, 9472
2, 31088, Pitch_bend_c, 3, 9600
2, 31456, Pitch_bend_c, 3, 9472
2, 31488, Pitch_bend_c, 3, 9344
2, 31520, Pitch_bend_c, 3, 9216
2, 31536, Pitch_bend_c, 3, 9088
2, 31568, Pitch_bend_c, 3, 8960
2, 31584, Pitch_bend_c, 3, 8832
2, 31600, Pitch_bend_c, 3, 8704
2, 31616, Pitch_bend_c, 3, 8576
2, 31664, Pitch_bend_c, 3, 8448
2, 31680, Pitch_bend_c, 3, 8320
2, 31744, Pitch_bend_c, 3, 8192
2, 32880, Note_off_c, 3, 71, 80
2, 32880, Pitch_bend_c, 3, 8192
2, 32880, Note_on_c, 2, 71, 95
2, 33120, Note_off_c, 2, 71, 80
2, 33120, Note_on_c, 2, 71, 95
2, 33360, Note_off_c, 2, 71, 80
2, 33360, Note_on_c, 2, 71, 95
2, 33600, Note_off_c, 2, 71, 80
2, 33600, Note_on_c, 2, 71, 95
2, 33920, Note_off_c, 2, 71, 80
2, 33920, Note_on_c, 2, 69, 95
2, 34240, Note_off_c, 2, 69, 80
2, 34240, Note_on_c, 2, 66, 95
2, 34560, Note_off_c, 2, 66, 80
2, 34560, Note_on_c, 2, 64, 95
2, 34880, Note_off_c, 2, 64, 80
2, 34880, Note_on_c, 2, 66, 95
2, 35200, Note_off_c, 2, 66, 80
2, 35200, Note_on_c, 2, 69, 95
2, 35520, Note_off_c, 2, 69, 80
2, 35520, Note_on_c, 2, 66, 95
2, 36720, Note_off_c, 2, 66, 80
2, 36720, Note_on_c, 2, 66, 95
2, 36960, Note_off_c, 2, 66, 80
2, 36960, Note_on_c, 2, 66, 95
2, 37200, Note_off_c, 2, 66, 80
2, 37200, Note_on_c, 2, 66, 95
2, 37440, Note_off_c, 2, 66, 80
2, 37440, Note_on_c, 2, 66, 95
2, 37760, Note_off_c, 2, 66, 80
2, 37760, Note_on_c, 2, 64, 95
2, 38080, Note_off_c, 2, 64, 80
2, 38080, Note_on_c, 2, 61, 95
2, 38400, Note_off_c, 2, 61, 80
2, 38400, Note_on_c, 2, 64, 95
2, 38720, Note_off_c, 2, 64, 80
2, 38720, Note_on_c, 2, 61, 95
2, 39040, Note_off_c, 2, 61, 80
2, 39040, Note_on_c, 2, 59, 95
2, 39360, Note_off_c, 2, 59, 80
2, 39360, Note_on_c, 2, 57, 95
2, 39680, Note_off_c, 2, 57, 80
2, 39680, Note_on_c, 2, 54, 95
2, 40000, Note_off_c, 2, 54, 80
2, 40000, Note_on_c, 2, 52, 95
2, 40320, Note_off_c, 2, 52, 80
2, 40320, Note_on_c, 2, 54, 95
2, 40640, Note_off_c, 2, 54, 80
2, 40640, Note_on_c, 2, 57, 95
2, 40960, Note_off_c, 2, 57, 80
2, 40960, Note_on_c, 2, 59, 95
2, 41280, Note_off_c, 2, 59, 80
2, 41280, Note_on_c, 2, 57, 95
2, 41600, Note_off_c, 2, 57, 80
2, 41600, Note_on_c, 2, 54, 95
2, 41920, Note_off_c, 2, 54, 80
2, 41920, Note_on_c, 2, 52, 95
2, 42240, Note_off_c, 2, 52, 80
2, 42240, Note_on_c, 2, 54, 95
2, 42560, Note_off_c, 2, 54, 80
2, 42560, Note_on_c, 2, 57, 95
2, 42880, Note_off_c, 2, 57, 80
2, 42880, Note_on_c, 2, 59, 95
2, 43200, Note_off_c, 2, 59, 80
2, 43200, Note_on_c, 2, 57, 95
2, 43520, Note_off_c, 2, 57, 80
2, 43520, Note_on_c, 2, 54, 95
2, 43840, Note_off_c, 2, 54, 80
2, 43840, Note_on_c, 2, 52, 95
2, 44160, Note_off_c, 2, 52, 80
2, 44160, Note_on_c, 2, 59, 95
2, 44480, Note_off_c, 2, 59, 80
2, 44480, Note_on_c, 2, 59, 95
2, 44800, Note_off_c, 2, 59, 80
2, 44800, Note_on_c, 2, 59, 95
2, 45120, Note_off_c, 2, 59, 80
2, 45120, Note_on_c, 3, 59, 95
2, 45240, Pitch_bend_c, 3, 7552
2, 45291, Pitch_bend_c, 3, 6784
2, 45343, Pitch_bend_c, 3, 6144
2, 45394, Pitch_bend_c, 3, 5504
2, 45446, Pitch_bend_c, 3, 4736
2, 45497, Pitch_bend_c, 3, 4096
2, 45549, Pitch_bend_c, 3, 3456
2, 45600, Note_off_c, 3, 59, 80
2, 45600, Pitch_bend_c, 3, 8192
2, 76800, Note_on_c, 2, 54, 95
2, 76800, Note_on_c, 2, 49, 95
2, 76800, Note_on_c, 2, 42, 95
2, 77280, Note_off_c, 2, 54, 80
2, 77280, Note_off_c, 2, 49, 80
2, 77280, Note_off_c, 2, 42, 80
2, 77280, Note_on_c, 2, 54, 95
2, 77280, Note_on_c, 2, 49, 95
2, 77280, Note_on_c, 2, 42, 95
2, 77760, Note_off_c, 2, 54, 80
2, 77760, Note_off_c, 2, 49, 80
2, 77760, Note_off_c, 2, 42, 80
2, 77760, Note_on_c, 2, 54, 95
2, 77760, Note_on_c, 2, 49, 95
2, 77760, Note_on_c, 2, 42, 95
2, 78240, Note_off_c, 2, 54, 80
2, 78240, Note_off_c, 2, 49, 80
2, 78240, Note_off_c, 2, 42, 80
2, 78240, Note_on_c, 2, 54, 95
2, 78240, Note_on_c, 2, 49, 95
2, 78240, Note_on_c, 2, 42, 95
2, 78720, Note_off_c, 2, 54, 80
2, 78720, Note_off_c, 2, 49, 80
2, 78720, Note_off_c, 2, 42, 80
2, 78720, Note_on_c, 2, 54, 95
2, 78720, Note_on_c, 2, 49, 95
2, 78720, Note_on_c, 2, 42, 95
2, 79200, Note_off_c, 2, 54, 80
2, 79200, Note_off_c, 2, 49, 80
2, 79200, Note_off_c, 2, 42, 80
2, 79200, Note_on_c, 2, 54, 95
2, 79200, Note_on_c, 2, 49, 95
2, 79200, Note_on_c, 2, 42, 95
2, 79680, Note_off_c, 2, 54, 80
2, 79680, Note_off_c, 2, 49, 80
2, 79680, Note_off_c, 2, 42, 80
2, 79680, Note_on_c, 2, 54, 95
2, 79680, Note_on_c, 2, 49, 95
2, 79680, Note_on_c, 2, 42, 95
2, 80160, Note_off_c, 2, 54, 80
2, 80160, Note_off_c, 2, 49, 80
2, 80160, Note_off_c, 2, 42, 80
2, 80160, Note_on_c, 2, 54, 95
2, 80160, Note_on_c, 2, 49, 95
2, 80160, Note_on_c, 2, 42, 95
2, 80640, Note_off_c, 2, 54, 80
2, 80640, Note_off_c, 2, 49, 80
2, 80640, Note_off_c, 2, 42, 80
2, 80640, Note_on_c, 2, 57, 95
2, 80640, Note_on_c, 2, 52, 95
2, 80640, Note_on_c, 2, 45, 95
2, 81120, Note_off_c, 2, 57, 80
2, 81120, Note_off_c, 2, 52, 80
2, 81120, Note_off_c, 2, 45, 80
2, 81120, Note_on_c, 2, 57, 95
2, 81120, Note_on_c, 2, 52, 95
2, 81120, Note_on_c, 2, 45, 95
2, 81600, Note_off_c, 2, 57, 80
2, 81600, Note_off_c, 2, 52, 80
2, 81600, Note_off_c, 2, 45, 80
2, 81600, Note_on_c, 2, 57, 95
2, 81600, Note_on_c, 2, 52, 95
2, 81600, Note_on_c, 2, 45, 95
2, 82080, Note_off_c, 2, 57, 80
2, 82080, Note_off_c, 2, 52, 80
2, 82080, Note_off_c, 2, 45, 80
2, 82080, Note_on_c, 2, 57, 95
2, 82080, Note_on_c, 2, 52, 95
2, 82080, Note_on_c, 2, 45, 95
2, 82560, Note_off_c, 2, 57, 80
2, 82560, Note_off_c, 2, 52, 80
2, 82560, Note_off_c, 2, 45, 80
2, 82560, Note_on_c, 2, 57, 95
2, 82560, Note_on_c, 2, 52, 95
2, 82560, Note_on_c, 2, 45, 95
2, 83040, Note_off_c, 2, 57, 80
2, 83040, Note_off_c, 2, 52, 80
2, 83040, Note_off_c, 2, 45, 80
2, 83040, Note_on_c, 2, 57, 95
2, 83040, Note_on_c, 2, 52, 95
2, 83040, Note_on_c, 2, 45, 95
2, 83520, Note_off_c, 2, 57, 80
2, 83520, Note_off_c, 2, 52, 80
2, 83520, Note_off_c, 2, 45, 80
2, 83520, Note_on_c, 2, 57, 95
2, 83520, Note_on_c, 2, 52, 95
2, 83520, Note_on_c, 2, 45, 95
2, 84000, Note_off_c, 2, 57, 80
2, 84000, Note_off_c, 2, 52, 80
2, 84000, Note_off_c, 2, 45, 80
2, 84000, Note_on_c, 2, 57, 95
2, 84000, Note_on_c, 2, 52, 95
2, 84000, Note_on_c, 2, 45, 95
2, 84480, Note_off_c, 2, 57, 80
2, 84480, Note_off_c, 2, 52, 80
2, 84480, Note_off_c, 2, 45, 80
2, 84480, Note_on_c, 2, 64, 95
2, 84480, Note_on_c, 2, 59, 95
2, 84480, Note_on_c, 2, 52, 95
2, 84960, Note_off_c, 2, 64, 80
2, 84960, Note_off_c, 2, 59, 80
2, 84960, Note_off_c, 2, 52, 80
2, 84960, Note_on_c, 2, 64, 95
2, 84960, Note_on_c, 2, 59, 95
2, 84960, Note_on_c, 2, 52, 95
2, 85440, Note_off_c, 2, 64, 80
2, 85440, Note_off_c, 2, 59, 80
2, 85440, Note_off_c, 2, 52, 80
2, 85440, Note_on_c, 2, 64, 95
2, 85440, Note_on_c, 2, 59, 95
2, 85440, Note_on_c, 2, 52, 95
2, 85920, Note_off_c, 2, 64, 80
2, 85920, Note_off_c, 2, 59, 80
2, 85920, Note_off_c, 2, 52, 80
2, 85920, Note_on_c, 2, 64, 95
2, 85920, Note_on_c, 2, 59, 95
2, 85920, Note_on_c, 2, 52, 95
2, 86400, Note_off_c, 2, 64, 80
2, 86400, Note_off_c, 2, 59, 80
2, 86400, Note_off_c, 2, 52, 80
2, 86400, Note_on_c, 2, 64, 95
2, 86400, Note_on_c, 2, 59, 95
2, 86400, Note_on_c, 2, 52, 95
2, 86880, Note_off_c, 2, 64, 80
2, 86880, Note_off_c, 2, 59, 80
2, 86880, Note_off_c, 2, 52, 80
2, 86880, Note_on_c, 2, 64, 95
2, 86880, Note_on_c, 2, 59, 95
2, 86880, Note_on_c, 2, 52, 95
2, 87360, Note_off_c, 2, 64, 80
2, 87360, Note_off_c, 2, 59, 80
2, 87360, Note_off_c, 2, 52, 80
2, 87360, Note_on_c, 2, 64, 95
2, 87360, Note_on_c, 2, 59, 95
2, 87360, Note_on_c, 2, 52, 95
2, 87840, Note_off_c, 2, 64, 80
2, 87840, Note_off_c, 2, 59, 80
2, 87840, Note_off_c, 2, 52, 80
2, 87840, Note_on_c, 2, 64, 95
2, 87840, Note_on_c, 2, 59, 95
2, 87840, Note_on_c, 2, 52, 95
2, 88320, Note_off_c, 2, 64, 80
2, 88320, Note_off_c, 2, 59, 80
2, 88320, Note_off_c, 2, 52, 80
2, 88320, Note_on_c, 2, 54, 95
2, 88320, Note_on_c, 2, 49, 95
2, 88320, Note_on_c, 2, 42, 95
2, 88800, Note_off_c, 2, 54, 80
2, 88800, Note_off_c, 2, 49, 80
2, 88800, Note_off_c, 2, 42, 80
2, 88800, Note_on_c, 2, 54, 95
2, 88800, Note_on_c, 2, 49, 95
2, 88800, Note_on_c, 2, 42, 95
2, 89280, Note_off_c, 2, 54, 80
2, 89280, Note_off_c, 2, 49, 80
2, 89280, Note_off_c, 2, 42, 80
2, 89280, Note_on_c, 2, 54, 95
2, 89280, Note_on_c, 2, 49, 95
2, 89280, Note_on_c, 2, 42, 95
2, 89760, Note_off_c, 2, 54, 80
2, 89760, Note_off_c, 2, 49, 80
2, 89760, Note_off_c, 2, 42, 80
2, 89760, Note_on_c, 2, 54, 95
2, 89760, Note_on_c, 2, 49, 95
2, 89760, Note_on_c, 2, 42, 95
2, 90240, Note_off_c, 2, 54, 80
2, 90240, Note_off_c, 2, 49, 80
2, 90240, Note_off_c, 2, 42, 80
2, 90240, Note_on_c, 2, 54, 95
2, 90240, Note_on_c, 2, 49, 95
2, 90240, Note_on_c, 2, 42, 95
2, 90720, Note_off_c, 2, 54, 80
2, 90720, Note_off_c, 2, 49, 80
2, 90720, Note_off_c, 2, 42, 80
2, 90720, Note_on_c, 2, 54, 95
2, 90720, Note_on_c, 2, 49, 95
2, 90720, Note_on_c, 2, 42, 95
2, 91200, Note_off_c, 2, 54, 80
2, 91200, Note_off_c, 2, 49, 80
2, 91200, Note_off_c, 2, 42, 80
2, 91200, Note_on_c, 2, 54, 95
2, 91200, Note_on_c, 2, 49, 95
2, 91200, Note_on_c, 2, 42, 95
2, 91680, Note_off_c, 2, 54, 80
2, 91680, Note_off_c, 2, 49, 80
2, 91680, Note_off_c, 2, 42, 80
2, 91680, Note_on_c, 2, 54, 95
2, 91680, Note_on_c, 2, 49, 95
2, 91680, Note_on_c, 2, 42, 95
2, 92160, Note_off_c, 2, 54, 80
2, 92160, Note_off_c, 2, 49, 80
2, 92160, Note_off_c, 2, 42, 80
2, 92160, Note_on_c, 2, 54, 95
2, 92160, Note_on_c, 2, 49, 95
2, 92160, Note_on_c, 2, 42, 95
2, 92640, Note_off_c, 2, 54, 80
2, 92640, Note_off_c, 2, 49, 80
2, 92640, Note_off_c, 2, 42, 80
2, 92640, Note_on_c, 2, 54, 95
2, 92640, Note_on_c, 2, 49, 95
2, 92640, Note_on_c, 2, 42, 95
2, 93120, Note_off_c, 2, 54, 80
2, 93120, Note_off_c, 2, 49, 80
2, 93120, Note_off_c, 2, 42, 80
2, 93120, Note_on_c, 2, 54, 95
2, 93120, Note_on_c, 2, 49, 95
2, 93120, Note_on_c, 2, 42, 95
2, 93600, Note_off_c, 2, 54, 80
2, 93600, Note_off_c, 2, 49, 80
2, 93600, Note_off_c, 2, 42, 80
2, 93600, Note_on_c, 2, 54, 95
2, 93600, Note_on_c, 2, 49, 95
2, 93600, Note_on_c, 2, 42, 95
2, 94080, Note_off_c, 2, 54, 80
2, 94080, Note_off_c, 2, 49, 80
2, 94080, Note_off_c, 2, 42, 80
2, 94080, Note_on_c, 2, 54, 95
2, 94080, Note_on_c, 2, 49, 95
2, 94080, Note_on_c, 2, 42, 95
2, 94560, Note_off_c, 2, 54, 80
2, 94560, Note_off_c, 2, 49, 80
2, 94560, Note_off_c, 2, 42, 80
2, 94560, Note_on_c, 2, 54, 95
2, 94560, Note_on_c, 2, 49, 95
2, 94560, Note_on_c, 2, 42, 95
2, 95040, Note_off_c, 2, 54, 80
2, 95040, Note_off_c, 2, 49, 80
2, 95040, Note_off_c, 2, 42, 80
2, 95040, Note_on_c, 2, 54, 95
2, 95040, Note_on_c, 2, 49, 95
2, 95040, Note_on_c, 2, 42, 95
2, 95520, Note_off_c, 2, 54, 80
2, 95520, Note_off_c, 2, 49, 80
2, 95520, Note_off_c, 2, 42, 80
2, 95520, Note_on_c, 2, 54, 95
2, 95520, Note_on_c, 2, 49, 95
2, 95520, Note_on_c, 2, 42, 95
2, 96000, Note_off_c, 2, 54, 80
2, 96000, Note_off_c, 2, 49, 80
2, 96000, Note_off_c, 2, 42, 80
2, 96000, Note_on_c, 2, 57, 95
2, 96000, Note_on_c, 2, 52, 95
2, 96000, Note_on_c, 2, 45, 95
2, 96480, Note_off_c, 2, 57, 80
2, 96480, Note_off_c, 2, 52, 80
2, 96480, Note_off_c, 2, 45, 80
2, 96480, Note_on_c, 2, 57, 95
2, 96480, Note_on_c, 2, 52, 95
2, 96480, Note_on_c, 2, 45, 95
2, 96960, Note_off_c, 2, 57, 80
2, 96960, Note_off_c, 2, 52, 80
2, 96960, Note_off_c, 2, 45, 80
2, 96960, Note_on_c, 2, 57, 95
2, 96960, Note_on_c, 2, 52, 95
2, 96960, Note_on_c, 2, 45, 95
2, 97440, Note_off_c, 2, 57, 80
2, 97440, Note_off_c, 2, 52, 80
2, 97440, Note_off_c, 2, 45, 80
2, 97440, Note_on_c, 2, 57, 95
2, 97440, Note_on_c, 2, 52, 95
2, 97440, Note_on_c, 2, 45, 95
2, 97920, Note_off_c, 2, 57, 80
2, 97920, Note_off_c, 2, 52, 80
2, 97920, Note_off_c, 2, 45, 80
2, 97920, Note_on_c, 2, 57, 95
2, 97920, Note_on_c, 2, 52, 95
2, 97920, Note_on_c, 2, 45, 95
2, 98400, Note_off_c, 2, 57, 80
2, 98400, Note_off_c, 2, 52, 80
2, 98400, Note_off_c, 2, 45, 80
2, 98400, Note_on_c, 2, 57, 95
2, 98400, Note_on_c, 2, 52, 95
2, 98400, Note_on_c, 2, 45, 95
2, 98880, Note_off_c, 2, 57, 80
2, 98880, Note_off_c, 2, 52, 80
2, 98880, Note_off_c, 2, 45, 80
2, 98880, Note_on_c, 2, 57, 95
2, 98880, Note_on_c, 2, 52, 95
2, 98880, Note_on_c, 2, 45, 95
2, 99360, Note_off_c, 2, 57, 80
2, 99360, Note_off_c, 2, 52, 80
2, 99360, Note_off_c, 2, 45, 80
2, 99360, Note_on_c, 2, 57, 95
2, 99360, Note_on_c, 2, 52, 95
2, 99360, Note_on_c, 2, 45, 95
2, 99840, Note_off_c, 2, 57, 80
2, 99840, Note_off_c, 2, 52, 80
2, 99840, Note_off_c, 2, 45, 80
2, 99840, Note_on_c, 2, 64, 95
2, 99840, Note_on_c, 2, 59, 95
2, 99840, Note_on_c, 2, 52, 95
2, 100320, Note_off_c, 2, 64, 80
2, 100320, Note_off_c, 2, 59, 80
2, 100320, Note_off_c, 2, 52, 80
2, 100320, Note_on_c, 2, 64, 95
2, 100320, Note_on_c, 2, 59, 95
2, 100320, Note_on_c, 2, 52, 95
2, 100800, Note_off_c, 2, 64, 80
2, 100800, Note_off_c, 2, 59, 80
2, 100800, Note_off_c, 2, 52, 80
2, 100800, Note_on_c, 2, 64, 95
2, 100800, Note_on_c, 2, 59, 95
2, 100800, Note_on_c, 2, 52, 95
2, 101280, Note_off_c, 2, 64, 80
2, 101280, Note_off_c, 2, 59, 80
2, 101280, Note_off_c, 2, 52, 80
2, 101280, Note_on_c, 2, 64, 95
2, 101280, Note_on_c, 2, 59, 95
2, 101280, Note_on_c, 2, 52, 95
2, 101760, Note_off_c, 2, 64, 80
2, 101760, Note_off_c, 2, 59, 80
2, 101760, Note_off_c, 2, 52, 80
2, 101760, Note_on_c, 2, 64, 95
2, 101760, Note_on_c, 2, 59, 95
2, 101760, Note_on_c, 2, 52, 95
2, 102240, Note_off_c, 2, 64, 80
2, 102240, Note_off_c, 2, 59, 80
2, 102240, Note_off_c, 2, 52, 80
2, 102240, Note_on_c, 2, 64, 95
2, 102240, Note_on_c, 2, 59, 95
2, 102240, Note_on_c, 2, 52, 95
2, 102720, Note_off_c, 2, 64, 80
2, 102720, Note_off_c, 2, 59, 80
2, 102720, Note_off_c, 2, 52, 80
2, 102720, Note_on_c, 2, 64, 95
2, 102720, Note_on_c, 2, 59, 95
2, 102720, Note_on_c, 2, 52, 95
2, 103200, Note_off_c, 2, 64, 80
2, 103200, Note_off_c, 2, 59, 80
2, 103200, Note_off_c, 2, 52, 80
2, 103200, Note_on_c, 2, 64, 95
2, 103200, Note_on_c, 2, 59, 95
2, 103200, Note_on_c, 2, 52, 95
2, 103680, Note_off_c, 2, 64, 80
2, 103680, Note_off_c, 2, 59, 80
2, 103680, Note_off_c, 2, 52, 80
2, 103680, Note_on_c, 2, 61, 95
2, 103680, Note_on_c, 2, 56, 95
2, 103680, Note_on_c, 2, 49, 95
2, 104160, Note_off_c, 2, 61, 80
2, 104160, Note_off_c, 2, 56, 80
2, 104160, Note_off_c, 2, 49, 80
2, 104160, Note_on_c, 2, 61, 95
2, 104160, Note_on_c, 2, 56, 95
2, 104160, Note_on_c, 2, 49, 95
2, 104640, Note_off_c, 2, 61, 80
2, 104640, Note_off_c, 2, 56, 80
2, 104640, Note_off_c, 2, 49, 80
2, 104640, Note_on_c, 2, 61, 95
2, 104640, Note_on_c, 2, 56, 95
2, 104640, Note_on_c, 2, 49, 95
2, 105120, Note_off_c, 2, 61, 80
2, 105120, Note_off_c, 2, 56, 80
2, 105120, Note_off_c, 2, 49, 80
2, 105120, Note_on_c, 2, 61, 95
2, 105120, Note_on_c, 2, 56, 95
2, 105120, Note_on_c, 2, 49, 95
2, 105600, Note_off_c, 2, 61, 80
2, 105600, Note_off_c, 2, 56, 80
2, 105600, Note_off_c, 2, 49, 80
2, 105600, Note_on_c, 2, 61, 95
2, 105600, Note_on_c, 2, 56, 95
2, 105600, Note_on_c, 2, 49, 95
2, 106080, Note_off_c, 2, 61, 80
2, 106080, Note_off_c, 2, 56, 80
2, 106080, Note_off_c, 2, 49, 80
2, 106080, Note_on_c, 2, 61, 95
2, 106080, Note_on_c, 2, 56, 95
2, 106080, Note_on_c, 2, 49, 95
2, 106560, Note_off_c, 2, 61, 80
2, 106560, Note_off_c, 2, 56, 80
2, 106560, Note_off_c, 2, 49, 80
2, 106560, Note_on_c, 2, 61, 95
2, 106560, Note_on_c, 2, 56, 95
2, 106560, Note_on_c, 2, 49, 95
2, 107040, Note_off_c, 2, 61, 80
2, 107040, Note_off_c, 2, 56, 80
2, 107040, Note_off_c, 2, 49, 80
2, 107040, Note_on_c, 2, 61, 95
2, 107040, Note_on_c, 2, 56, 95
2, 107040, Note_on_c, 2, 49, 95
2, 107520, Note_off_c, 2, 61, 80
2, 107520, Note_off_c, 2, 56, 80
2, 107520, Note_off_c, 2, 49, 80
2, 107520, Note_on_c, 2, 61, 95
2, 108480, Note_off_c, 2, 61, 80
2, 108480, Note_on_c, 2, 57, 95
2, 109920, Note_off_c, 2, 57, 80
2, 109920, Note_on_c, 2, 59, 95
2, 110160, Note_off_c, 2, 59, 80
2, 110160, Note_on_c, 2, 59, 95
2, 110400, Note_off_c, 2, 59, 80
2, 110400, Note_on_c, 2, 59, 95
2, 110880, Note_off_c, 2, 59, 80
2, 110880, Note_on_c, 2, 59, 95
2, 111120, Note_off_c, 2, 59, 80
2, 111120, Note_on_c, 2, 59, 95
2, 111360, Note_off_c, 2, 59, 80
2, 111360, Note_on_c, 2, 59, 95
2, 111840, Note_off_c, 2, 59, 80
2, 111840, Note_on_c, 2, 57, 95
2, 112320, Note_off_c, 2, 57, 80
2, 112320, Note_on_c, 2, 54, 95
2, 113760, Note_off_c, 2, 54, 80
2, 113760, Note_on_c, 2, 54, 95
2, 114000, Note_off_c, 2, 54, 80
2, 114000, Note_on_c, 2, 54, 95
2, 114240, Note_off_c, 2, 54, 80
2, 114240, Note_on_c, 2, 54, 95
2, 114720, Note_off_c, 2, 54, 80
2, 114720, Note_on_c, 2, 52, 95
2, 114960, Note_off_c, 2, 52, 80
2, 114960, Note_on_c, 2, 54, 95
2, 115200, Note_off_c, 2, 54, 80
2, 115200, Note_on_c, 2, 54, 95
2, 115520, Note_off_c, 2, 54, 80
2, 115520, Note_on_c, 2, 52, 95
2, 115840, Note_off_c, 2, 52, 80
2, 115840, Note_on_c, 2, 54, 95
2, 116160, Note_off_c, 2, 54, 80
2, 116160, Note_on_c, 2, 57, 95
2, 116480, Note_off_c, 2, 57, 80
2, 116480, Note_on_c, 2, 59, 95
2, 116800, Note_off_c, 2, 59, 80
2, 116800, Note_on_c, 2, 57, 95
2, 117120, Note_off_c, 2, 57, 80
2, 117120, Note_on_c, 2, 61, 95
2, 117440, Note_off_c, 2, 61, 80
2, 117440, Note_on_c, 2, 64, 95
2, 117760, Note_off_c, 2, 64, 80
2, 117760, Note_on_c, 2, 61, 95
2, 118080, Note_off_c, 2, 61, 80
2, 118080, Note_on_c, 2, 64, 95
2, 118400, Note_off_c, 2, 64, 80
2, 118400, Note_on_c, 2, 61, 95
2, 118720, Note_off_c, 2, 61, 80
2, 118720, Note_on_c, 2, 64, 95
2, 119040, Note_off_c, 2, 64, 80
2, 119040, Note_on_c, 2, 66, 95
2, 119360, Note_off_c, 2, 66, 80
2, 119360, Note_on_c, 2, 69, 95
2, 119680, Note_off_c, 2, 69, 80
2, 119680, Note_on_c, 2, 66, 95
2, 120000, Note_off_c, 2, 66, 80
2, 120000, Note_on_c, 2, 69, 95
2, 120320, Note_off_c, 2, 69, 80
2, 120320, Note_on_c, 2, 71, 95
2, 120640, Note_off_c, 2, 71, 80
2, 120640, Note_on_c, 2, 69, 95
2, 120960, Note_off_c, 2, 69, 80
2, 120960, Note_on_c, 2, 71, 95
2, 121280, Note_off_c, 2, 71, 80
2, 121280, Note_on_c, 2, 71, 95
2, 121600, Note_off_c, 2, 71, 80
2, 121600, Note_on_c, 2, 71, 95
2, 121920, Note_off_c, 2, 71, 80
2, 121920, Note_on_c, 3, 71, 95
2, 122160, Pitch_bend_c, 3, 7552
2, 122263, Pitch_bend_c, 3, 6784
2, 122366, Pitch_bend_c, 3, 6144
2, 122469, Pitch_bend_c, 3, 5504
2, 122571, Pitch_bend_c, 3, 4736
2, 122674, Pitch_bend_c, 3, 4096
2, 122777, Pitch_bend_c, 3, 3456
2, 122880, Note_off_c, 3, 71, 80
2, 122880, Pitch_bend_c, 3, 8192
2, 153600, Note_on_c, 2, 54, 95
2, 153600, Note_on_c, 2, 49, 95
2, 153600, Note_on_c, 2, 42, 95
2, 154080, Note_off_c, 2, 54, 80
2, 154080, Note_off_c, 2, 49, 80
2, 154080, Note_off_c, 2, 42, 80
2, 154080, Note_on_c, 2, 54, 95
2, 154080, Note_on_c, 2, 49, 95
2, 154080, Note_on_c, 2, 42, 95
2, 154560, Note_off_c, 2, 54, 80
2, 154560, Note_off_c, 2, 49, 80
2, 154560, Note_off_c, 2, 42, 80
2, 154560, Note_on_c, 2, 54, 95
2, 154560, Note_on_c, 2, 49, 95
2, 154560, Note_on_c, 2, 42, 95
2, 155040, Note_off_c, 2, 54, 80
2, 155040, Note_off_c, 2, 49, 80
2, 155040, Note_off_c, 2, 42, 80
2, 155040, Note_on_c, 2, 54, 95
2, 155040, Note_on_c, 2, 49, 95
2, 155040, Note_on_c, 2, 42, 95
2, 155520, Note_off_c, 2, 54, 80
2, 155520, Note_off_c, 2, 49, 80
2, 155520, Note_off_c, 2, 42, 80
2, 155520, Note_on_c, 2, 54, 95
2, 155520, Note_on_c, 2, 49, 95
2, 155520, Note_on_c, 2, 42, 95
2, 156000, Note_off_c, 2, 54, 80
2, 156000, Note_off_c, 2, 49, 80
2, 156000, Note_off_c, 2, 42, 80
2, 156000, Note_on_c, 2, 54, 95
2, 156000, Note_on_c, 2, 49, 95
2, 156000, Note_on_c, 2, 42, 95
2, 156480, Note_off_c, 2, 54, 80
2, 156480, Note_off_c, 2, 49, 80
2, 156480, Note_off_c, 2, 42, 80
2, 156480, Note_on_c, 2, 54, 95
2, 156480, Note_on_c, 2, 49, 95
2, 156480, Note_on_c, 2, 42, 95
2, 156960, Note_off_c, 2, 54, 80
2, 156960, Note_off_c, 2, 49, 80
2, 156960, Note_off_c, 2, 42, 80
2, 156960, Note_on_c, 2, 54, 95
2, 156960, Note_on_c, 2, 49, 95
2, 156960, Note_on_c, 2, 42, 95
2, 157440, Note_off_c, 2, 54, 80
2, 157440, Note_off_c, 2, 49, 80
2, 157440, Note_off_c, 2, 42, 80
2, 157440, Note_on_c, 2, 57, 95
2, 157440, Note_on_c, 2, 52, 95
2, 157440, Note_on_c, 2, 45, 95
2, 157920, Note_off_c, 2, 57, 80
2, 157920, Note_off_c, 2, 52, 80
2, 157920, Note_off_c, 2, 45, 80
2, 157920, Note_on_c, 2, 57, 95
2, 157920, Note_on_c, 2, 52, 95
2, 157920, Note_on_c, 2, 45, 95
2, 158400, Note_off_c, 2, 57, 80
2, 158400, Note_off_c, 2, 52, 80
2, 158400, Note_off_c, 2, 45, 80
2, 158400, Note_on_c, 2, 57, 95
2, 158400, Note_on_c, 2, 52, 95
2, 158400, Note_on_c, 2, 45, 95
2, 158880, Note_off_c, 2, 57, 80
2, 158880, Note_off_c, 2, 52, 80
2, 158880, Note_off_c, 2, 45, 80
2, 158880, Note_on_c, 2, 57, 95
2, 158880, Note_on_c, 2, 52, 95
2, 158880, Note_on_c, 2, 45, 95
2, 159360, Note_off_c, 2, 57, 80
2, 159360, Note_off_c, 2, 52, 80
2, 159360, Note_off_c, 2, 45, 80
2, 159360, Note_on_c, 2, 57, 95
2, 159360, Note_on_c, 2, 52, 95
2, 159360, Note_on_c, 2, 45, 95
2, 159840, Note_off_c, 2, 57, 80
2, 159840, Note_off_c, 2, 52, 80
2, 159840, Note_off_c, 2, 45, 80
2, 159840, Note_on_c, 2, 57, 95
2, 159840, Note_on_c, 2, 52, 95
2, 159840, Note_on_c, 2, 45, 95
2, 160320, Note_off_c, 2, 57, 80
2, 160320, Note_off_c, 2, 52, 80
2, 160320, Note_off_c, 2, 45, 80
2, 160320, Note_on_c, 2, 57, 95
2, 160320, Note_on_c, 2, 52, 95
2, 160320, Note_on_c, 2, 45, 95
2, 160800, Note_off_c, 2, 57, 80
2, 160800, Note_off_c, 2, 52, 80
2, 160800, Note_off_c, 2, 45, 80
2, 160800, Note_on_c, 2, 57, 95
2, 160800, Note_on_c, 2, 52, 95
2, 160800, Note_on_c, 2, 45, 95
2, 161280, Note_off_c, 2, 57, 80
2, 161280, Note_off_c, 2, 52, 80
2, 161280, Note_off_c, 2, 45, 80
2, 161280, Note_on_c, 2, 64, 95
2, 161280, Note_on_c, 2, 59, 95
2, 161280, Note_on_c, 2, 52, 95
2, 161760, Note_off_c, 2, 64, 80
2, 161760, Note_off_c, 2, 59, 80
2, 161760, Note_off_c, 2, 52, 80
2, 161760, Note_on_c, 2, 64, 95
2, 161760, Note_on_c, 2, 59, 95
2, 161760, Note_on_c, 2, 52, 95
2, 162240, Note_off_c, 2, 64, 80
2, 162240, Note_off_c, 2, 59, 80
2, 162240, Note_off_c, 2, 52, 80
2, 162240, Note_on_c, 2, 64, 95
2, 162240, Note_on_c, 2, 59, 95
2, 162240, Note_on_c, 2, 52, 95
2, 162720, Note_off_c, 2, 64, 80
2, 162720, Note_off_c, 2, 59, 80
2, 162720, Note_off_c, 2, 52, 80
2, 162720, Note_on_c, 2, 64, 95
2, 162720, Note_on_c, 2, 59, 95
2, 162720, Note_on_c, 2, 52, 95
2, 163200, Note_off_c, 2, 64, 80
2, 163200, Note_off_c, 2, 59, 80
2, 163200, Note_off_c, 2, 52, 80
2, 163200, Note_on_c, 2, 64, 95
2, 163200, Note_on_c, 2, 59, 95
2, 163200, Note_on_c, 2, 52, 95
2, 163680, Note_off_c, 2, 64, 80
2, 163680, Note_off_c, 2, 59, 80
2, 163680, Note_off_c, 2, 52, 80
2, 163680, Note_on_c, 2, 64, 95
2, 163680, Note_on_c, 2, 59, 95
2, 163680, Note_on_c, 2, 52, 95
2, 164160, Note_off_c, 2, 64, 80
2, 164160, Note_off_c, 2, 59, 80
2, 164160, Note_off_c, 2, 52, 80
2, 164160, Note_on_c, 2, 64, 95
2, 164160, Note_on_c, 2, 59, 95
2, 164160, Note_on_c, 2, 52, 95
2, 164640, Note_off_c, 2, 64, 80
2, 164640, Note_off_c, 2, 59, 80
2, 164640, Note_off_c, 2, 52, 80
2, 164640, Note_on_c, 2, 64, 95
2, 164640, Note_on_c, 2, 59, 95
2, 164640, Note_on_c, 2, 52, 95
2, 165120, Note_off_c, 2, 64, 80
2, 165120, Note_off_c, 2, 59, 80
2, 165120, Note_off_c, 2, 52, 80
2, 165120, Note_on_c, 2, 54, 95
2, 165120, Note_on_c, 2, 49, 95
2, 165120, Note_on_c, 2, 42, 95
2, 165600, Note_off_c, 2, 54, 80
2, 165600, Note_off_c, 2, 49, 80
2, 165600, Note_off_c, 2, 42, 80
2, 165600, Note_on_c, 2, 54, 95
2, 165600, Note_on_c, 2, 49, 95
2, 165600, Note_on_c, 2, 42, 95
2, 166080, Note_off_c, 2, 54, 80
2, 166080, Note_off_c, 2, 49, 80
2, 166080, Note_off_c, 2, 42, 80
2, 166080, Note_on_c, 2, 54, 95
2, 166080, Note_on_c, 2, 49, 95
2, 166080, Note_on_c, 2, 42, 95
2, 166560, Note_off_c, 2, 54, 80
2, 166560, Note_off_c, 2, 49, 80
2, 166560, Note_off_c, 2, 42, 80
2, 166560, Note_on_c, 2, 54, 95
2, 166560, Note_on_c, 2, 49, 95
2, 166560, Note_on_c, 2, 42, 95
2, 167040, Note_off_c, 2, 54, 80
2, 167040, Note_off_c, 2, 49, 80
2, 167040, Note_off_c, 2, 42, 80
2, 167040, Note_on_c, 2, 54, 95
2, 167040, Note_on_c, 2, 49, 95
2, 167040, Note_on_c, 2, 42, 95
2, 167520, Note_off_c, 2, 54, 80
2, 167520, Note_off_c, 2, 49, 80
2, 167520, Note_off_c, 2, 42, 80
2, 167520, Note_on_c, 2, 54, 95
2, 167520, Note_on_c, 2, 49, 95
2, 167520, Note_on_c, 2, 42, 95
2, 168000, Note_off_c, 2, 54, 80
2, 168000, Note_off_c, 2, 49, 80
2, 168000, Note_off_c, 2, 42, 80
2, 168000, Note_on_c, 2, 54, 95
2, 168000, Note_on_c, 2, 49, 95
2, 168000, Note_on_c, 2, 42, 95
2, 168480, Note_off_c, 2, 54, 80
2, 168480, Note_off_c, 2, 49, 80
2, 168480, Note_off_c, 2, 42, 80
2, 168480, Note_on_c, 2, 54, 95
2, 168480, Note_on_c, 2, 49, 95
2, 168480, Note_on_c, 2, 42, 95
2, 168960, Note_off_c, 2, 54, 80
2, 168960, Note_off_c, 2, 49, 80
2, 168960, Note_off_c, 2, 42, 80
2, 168960, Note_on_c, 2, 54, 95
2, 168960, Note_on_c, 2, 49, 95
2, 168960, Note_on_c, 2, 42, 95
2, 169440, Note_off_c, 2, 54, 80
2, 169440, Note_off_c, 2, 49, 80
2, 169440, Note_off_c, 2, 42, 80
2, 169440, Note_on_c, 2, 54, 95
2, 169440, Note_on_c, 2, 49, 95
2, 169440, Note_on_c, 2, 42, 95
2, 169920, Note_off_c, 2, 54, 80
2, 169920, Note_off_c, 2, 49, 80
2, 169920, Note_off_c, 2, 42, 80
2, 169920, Note_on_c, 2, 54, 95
2, 169920, Note_on_c, 2, 49, 95
2, 169920, Note_on_c, 2, 42, 95
2, 170400, Note_off_c, 2, 54, 80
2, 170400, Note_off_c, 2, 49, 80
2, 170400, Note_off_c, 2, 42, 80
2, 170400, Note_on_c, 2, 54, 95
2, 170400, Note_on_c, 2, 49, 95
2, 170400, Note_on_c, 2, 42, 95
2, 170880, Note_off_c, 2, 54, 80
2, 170880, Note_off_c, 2, 49, 80
2, 170880, Note_off_c, 2, 42, 80
2, 170880, Note_on_c, 2, 54, 95
2, 170880, Note_on_c, 2, 49, 95
2, 170880, Note_on_c, 2, 42, 95
2, 171360, Note_off_c, 2, 54, 80
2, 171360, Note_off_c, 2, 49, 80
2, 171360, Note_off_c, 2, 42, 80
2, 171360, Note_on_c, 2, 54, 95
2, 171360, Note_on_c, 2, 49, 95
2, 171360, Note_on_c, 2, 42, 95
2, 171840, Note_off_c, 2, 54, 80
2, 171840, Note_off_c, 2, 49, 80
2, 171840, Note_off_c, 2, 42, 80
2, 171840, Note_on_c, 2, 54, 95
2, 171840, Note_on_c, 2, 49, 95
2, 171840, Note_on_c, 2, 42, 95
2, 172320, Note_off_c, 2, 54, 80
2, 172320, Note_off_c, 2, 49, 80
2, 172320, Note_off_c, 2, 42, 80
2, 172320, Note_on_c, 2, 54, 95
2, 172320, Note_on_c, 2, 49, 95
2, 172320, Note_on_c, 2, 42, 95
2, 172800, Note_off_c, 2, 54, 80
2, 172800, Note_off_c, 2, 49, 80
2, 172800, Note_off_c, 2, 42, 80
2, 172800, Note_on_c, 2, 57, 95
2, 172800, Note_on_c, 2, 52, 95
2, 172800, Note_on_c, 2, 45, 95
2, 173280, Note_off_c, 2, 57, 80
2, 173280, Note_off_c, 2, 52, 80
2, 173280, Note_off_c, 2, 45, 80
2, 173280, Note_on_c, 2, 57, 95
2, 173280, Note_on_c, 2, 52, 95
2, 173280, Note_on_c, 2, 45, 95
2, 173760, Note_off_c, 2, 57, 80
2, 173760, Note_off_c, 2, 52, 80
2, 173760, Note_off_c, 2, 45, 80
2, 173760, Note_on_c, 2, 57, 95
2, 173760, Note_on_c, 2, 52, 95
2, 173760, Note_on_c, 2, 45, 95
2, 174240, Note_off_c, 2, 57, 80
2, 174240, Note_off_c, 2, 52, 80
2, 174240, Note_off_c, 2, 45, 80
2, 174240, Note_on_c, 2, 57, 95
2, 174240, Note_on_c, 2, 52, 95
2, 174240, Note_on_c, 2, 45, 95
2, 174720, Note_off_c, 2, 57, 80
2, 174720, Note_off_c, 2, 52, 80
2, 174720, Note_off_c, 2, 45, 80
2, 174720, Note_on_c, 2, 57, 95
2, 174720, Note_on_c, 2, 52, 95
2, 174720, Note_on_c, 2, 45, 95
2, 175200, Note_off_c, 2, 57, 80
2, 175200, Note_off_c, 2, 52, 80
2, 175200, Note_off_c, 2, 45, 80
2, 175200, Note_on_c, 2, 57, 95
2, 175200, Note_on_c, 2, 52, 95
2, 175200, Note_on_c, 2, 45, 95
2, 175680, Note_off_c, 2, 57, 80
2, 175680, Note_off_c, 2, 52, 80
2, 175680, Note_off_c, 2, 45, 80
2, 175680, Note_on_c, 2, 57, 95
2, 175680, Note_on_c, 2, 52, 95
2, 175680, Note_on_c, 2, 45, 95
2, 176160, Note_off_c, 2, 57, 80
2, 176160, Note_off_c, 2, 52, 80
2, 176160, Note_off_c, 2, 45, 80
2, 176160, Note_on_c, 2, 57, 95
2, 176160, Note_on_c, 2, 52, 95
2, 176160, Note_on_c, 2, 45, 95
2, 176640, Note_off_c, 2, 57, 80
2, 176640, Note_off_c, 2, 52, 80
2, 176640, Note_off_c, 2, 45, 80
2, 176640, Note_on_c, 2, 64, 95
2, 176640, Note_on_c, 2, 59, 95
2, 176640, Note_on_c, 2, 52, 95
2, 177120, Note_off_c, 2, 64, 80
2, 177120, Note_off_c, 2, 59, 80
2, 177120, Note_off_c, 2, 52, 80
2, 177120, Note_on_c, 2, 64, 95
2, 177120, Note_on_c, 2, 59, 95
2, 177120, Note_on_c, 2, 52, 95
2, 177600, Note_off_c, 2, 64, 80
2, 177600, Note_off_c, 2, 59, 80
2, 177600, Note_off_c, 2, 52, 80
2, 177600, Note_on_c, 2, 64, 95
2, 177600, Note_on_c, 2, 59, 95
2, 177600, Note_on_c, 2, 52, 95
2, 178080, Note_off_c, 2, 64, 80
2, 178080, Note_off_c, 2, 59, 80
2, 178080, Note_off_c, 2, 52, 80
2, 178080, Note_on_c, 2, 64, 95
2, 178080, Note_on_c, 2, 59, 95
2, 178080, Note_on_c, 2, 52, 95
2, 178560, Note_off_c, 2, 64, 80
2, 178560, Note_off_c, 2, 59, 80
2, 178560, Note_off_c, 2, 52, 80
2, 178560, Note_on_c, 2, 64, 95
2, 178560, Note_on_c, 2, 59, 95
2, 178560, Note_on_c, 2, 52, 95
2, 179040, Note_off_c, 2, 64, 80
2, 179040, Note_off_c, 2, 59, 80
2, 179040, Note_off_c, 2, 52, 80
2, 179040, Note_on_c, 2, 64, 95
2, 179040, Note_on_c, 2, 59, 95
2, 179040, Note_on_c, 2, 52, 95
2, 179520, Note_off_c, 2, 64, 80
2, 179520, Note_off_c, 2, 59, 80
2, 179520, Note_off_c, 2, 52, 80
2, 179520, Note_on_c, 2, 64, 95
2, 179520, Note_on_c, 2, 59, 95
2, 179520, Note_on_c, 2, 52, 95
2, 180000, Note_off_c, 2, 64, 80
2, 180000, Note_off_c, 2, 59, 80
2, 180000, Note_off_c, 2, 52, 80
2, 180000, Note_on_c, 2, 64, 95
2, 180000, Note_on_c, 2, 59, 95
2, 180000, Note_on_c, 2, 52, 95
2, 180480, Note_off_c, 2, 64, 80
2, 180480, Note_off_c, 2, 59, 80
2, 180480, Note_off_c, 2, 52, 80
2, 180480, Note_on_c, 2, 61, 95
2, 180480, Note_on_c, 2, 56, 95
2, 180480, Note_on_c, 2, 49, 95
2, 180960, Note_off_c, 2, 61, 80
2, 180960, Note_off_c, 2, 56, 80
2, 180960, Note_off_c, 2, 49, 80
2, 180960, Note_on_c, 2, 61, 95
2, 180960, Note_on_c, 2, 56, 95
2, 180960, Note_on_c, 2, 49, 95
2, 181440, Note_off_c, 2, 61, 80
2, 181440, Note_off_c, 2, 56, 80
2, 181440, Note_off_c, 2, 49, 80
2, 181440, Note_on_c, 2, 61, 95
2, 181440, Note_on_c, 2, 56, 95
2, 181440, Note_on_c, 2, 49, 95
2, 181920, Note_off_c, 2, 61, 80
2, 181920, Note_off_c, 2, 56, 80
2, 181920, Note_off_c, 2, 49, 80
2, 181920, Note_on_c, 2, 61, 95
2, 181920, Note_on_c, 2, 56, 95
2, 181920, Note_on_c, 2, 49, 95
2, 182400, Note_off_c, 2, 61, 80
2, 182400, Note_off_c, 2, 56, 80
2, 182400, Note_off_c, 2, 49, 80
2, 182400, Note_on_c, 2, 61, 95
2, 182400, Note_on_c, 2, 56, 95
2, 182400, Note_on_c, 2, 49, 95
2, 182880, Note_off_c, 2, 61, 80
2, 182880, Note_off_c, 2, 56, 80
2, 182880, Note_off_c, 2, 49, 80
2, 182880, Note_on_c, 2, 61, 95
2, 182880, Note_on_c, 2, 56, 95
2, 182880, Note_on_c, 2, 49, 95
2, 183360, Note_off_c, 2, 61, 80
2, 183360, Note_off_c, 2, 56, 80
2, 183360, Note_off_c, 2, 49, 80
2, 183360, Note_on_c, 2, 61, 95
2, 183360, Note_on_c, 2, 56, 95
2, 183360, Note_on_c, 2, 49, 95
2, 183840, Note_off_c, 2, 61, 80
2, 183840, Note_off_c, 2, 56, 80
2, 183840, Note_off_c, 2, 49, 80
2, 183840, Note_on_c, 2, 61, 95
2, 183840, Note_on_c, 2, 56, 95
2, 183840, Note_on_c, 2, 49, 95
2, 184320, Note_off_c, 2, 61, 80
2, 184320, Note_off_c, 2, 56, 80
2, 184320, Note_off_c, 2, 49, 80
2, 184320, Note_on_c, 2, 57, 95
2, 184320, Note_on_c, 2, 52, 95
2, 184320, Note_on_c, 2, 45, 95
2, 184800, Note_off_c, 2, 57, 80
2, 184800, Note_off_c, 2, 52, 80
2, 184800, Note_off_c, 2, 45, 80
2, 184800, Note_on_c, 2, 57, 95
2, 184800, Note_on_c, 2, 52, 95
2, 184800, Note_on_c, 2, 45, 95
2, 185280, Note_off_c, 2, 57, 80
2, 185280, Note_off_c, 2, 52, 80
2, 185280, Note_off_c, 2, 45, 80
2, 185280, Note_on_c, 2, 57, 95
2, 185280, Note_on_c, 2, 52, 95
2, 185280, Note_on_c, 2, 45, 95
2, 185760, Note_off_c, 2, 57, 80
2, 185760, Note_off_c, 2, 52, 80
2, 185760, Note_off_c, 2, 45, 80
2, 185760, Note_on_c, 2, 57, 95
2, 185760, Note_on_c, 2, 52, 95
2, 185760, Note_on_c, 2, 45, 95
2, 186240, Note_off_c, 2, 57, 80
2, 186240, Note_off_c, 2, 52, 80
2, 186240, Note_off_c, 2, 45, 80
2, 186240, Note_on_c, 2, 57, 95
2, 186240, Note_on_c, 2, 52, 95
2, 186240, Note_on_c, 2, 45, 95
2, 186720, Note_off_c, 2, 57, 80
2, 186720, Note_off_c, 2, 52, 80
2, 186720, Note_off_c, 2, 45, 80
2, 186720, Note_on_c, 2, 57, 95
2, 186720, Note_on_c, 2, 52, 95
2, 186720, Note_on_c, 2, 45, 95
2, 187200, Note_off_c, 2, 57, 80
2, 187200, Note_off_c, 2, 52, 80
2, 187200, Note_off_c, 2, 45, 80
2, 187200, Note_on_c, 2, 57, 95
2, 187200, Note_on_c, 2, 52, 95
2, 187200, Note_on_c, 2, 45, 95
2, 187680, Note_off_c, 2, 57, 80
2, 187680, Note_off_c, 2, 52, 80
2, 187680, Note_off_c, 2, 45, 80
2, 187680, Note_on_c, 2, 57, 95
2, 187680, Note_on_c, 2, 52, 95
2, 187680, Note_on_c, 2, 45, 95
2, 188160, Note_off_c, 2, 57, 80
2, 188160, Note_off_c, 2, 52, 80
2, 188160, Note_off_c, 2, 45, 80
2, 188160, Note_on_c, 2, 52, 95
2, 188160, Note_on_c, 2, 47, 95
2, 188160, Note_on_c, 2, 40, 95
2, 188640, Note_off_c, 2, 52, 80
2, 188640, Note_off_c, 2, 47, 80
2, 188640, Note_off_c, 2, 40, 80
2, 188640, Note_on_c, 2, 52, 95
2, 188640, Note_on_c, 2, 47, 95
2, 188640, Note_on_c, 2, 40, 95
2, 189120, Note_off_c, 2, 52, 80
2, 189120, Note_off_c, 2, 47, 80
2, 189120, Note_off_c, 2, 40, 80
2, 189120, Note_on_c, 2, 52, 95
2, 189120, Note_on_c, 2, 47, 95
2, 189120, Note_on_c, 2, 40, 95
2, 189600, Note_off_c, 2, 52, 80
2, 189600, Note_off_c, 2, 47, 80
2, 189600, Note_off_c, 2, 40, 80
2, 189600, Note_on_c, 2, 52, 95
2, 189600, Note_on_c, 2, 47, 95
2, 189600, Note_on_c, 2, 40, 95
2, 190080, Note_off_c, 2, 52, 80
2, 190080, Note_off_c, 2, 47, 80
2, 190080, Note_off_c, 2, 40, 80
2, 190080, Note_on_c, 2, 52, 95
2, 190080, Note_on_c, 2, 47, 95
2, 190080, Note_on_c, 2, 40, 95
2, 190560, Note_off_c, 2, 52, 80
2, 190560, Note_off_c, 2, 47, 80
2, 190560, Note_off_c, 2, 40, 80
2, 190560, Note_on_c, 2, 52, 95
2, 190560, Note_on_c, 2, 47, 95
2, 190560, Note_on_c, 2, 40, 95
2, 191040, Note_off_c, 2, 52, 80
2, 191040, Note_off_c, 2, 47, 80
2, 191040, Note_off_c, 2, 40, 80
2, 191040, Note_on_c, 2, 52, 95
2, 191040, Note_on_c, 2, 47, 95
2, 191040, Note_on_c, 2, 40, 95
2, 191520, Note_off_c, 2, 52, 80
2, 191520, Note_off_c, 2, 47, 80
2, 191520, Note_off_c, 2, 40, 80
2, 191520, Note_on_c, 2, 52, 95
2, 191520, Note_on_c, 2, 47, 95
2, 191520, Note_on_c, 2, 40, 95
2, 192000, Note_off_c, 2, 52, 80
2, 192000, Note_off_c, 2, 47, 80
2, 192000, Note_off_c, 2, 40, 80
2, 192000, Note_on_c, 2, 54, 95
2, 192000, Note_on_c, 2, 49, 95
2, 192000, Note_on_c, 2, 42, 95
2, 192480, Note_off_c, 2, 54, 80
2, 192480, Note_off_c, 2, 49, 80
2, 192480, Note_off_c, 2, 42, 80
2, 192480, Note_on_c, 2, 54, 95
2, 192480, Note_on_c, 2, 49, 95
2, 192480, Note_on_c, 2, 42, 95
2, 192960, Note_off_c, 2, 54, 80
2, 192960, Note_off_c, 2, 49, 80
2, 192960, Note_off_c, 2, 42, 80
2, 192960, Note_on_c, 2, 54, 95
2, 192960, Note_on_c, 2, 49, 95
2, 192960, Note_on_c, 2, 42, 95
2, 193440, Note_off_c, 2, 54, 80
2, 193440, Note_off_c, 2, 49, 80
2, 193440, Note_off_c, 2, 42, 80
2, 193440, Note_on_c, 2, 54, 95
2, 193440, Note_on_c, 2, 49, 95
2, 193440, Note_on_c, 2, 42, 95
2, 193920, Note_off_c, 2, 54, 80
2, 193920, Note_off_c, 2, 49, 80
2, 193920, Note_off_c, 2, 42, 80
2, 193920, Note_on_c, 2, 54, 95
2, 193920, Note_on_c, 2, 49, 95
2, 193920, Note_on_c, 2, 42, 95
2, 194400, Note_off_c, 2, 54, 80
2, 194400, Note_off_c, 2, 49, 80
2, 194400, Note_off_c, 2, 42, 80
2, 194400, Note_on_c, 2, 54, 95
2, 194400, Note_on_c, 2, 49, 95
2, 194400, Note_on_c, 2, 42, 95
2, 194880, Note_off_c, 2, 54, 80
2, 194880, Note_off_c, 2, 49, 80
2, 194880, Note_off_c, 2, 42, 80
2, 194880, Note_on_c, 2, 54, 95
2, 194880, Note_on_c, 2, 49, 95
2, 194880, Note_on_c, 2, 42, 95
2, 195360, Note_off_c, 2, 54, 80
2, 195360, Note_off_c, 2, 49, 80
2, 195360, Note_off_c, 2, 42, 80
2, 195360, Note_on_c, 2, 54, 95
2, 195360, Note_on_c, 2, 49, 95
2, 195360, Note_on_c, 2, 42, 95
2, 195840, Note_off_c, 2, 54, 80
2, 195840, Note_off_c, 2, 49, 80
2, 195840, Note_off_c, 2, 42, 80
2, 195840, Note_on_c, 2, 54, 95
2, 195840, Note_on_c, 2, 49, 95
2, 195840, Note_on_c, 2, 42, 95
2, 196320, Note_off_c, 2, 54, 80
2, 196320, Note_off_c, 2, 49, 80
2, 196320, Note_off_c, 2, 42, 80
2, 196320, Note_on_c, 2, 54, 95
2, 196320, Note_on_c, 2, 49, 95
2, 196320, Note_on_c, 2, 42, 95
2, 196800, Note_off_c, 2, 54, 80
2, 196800, Note_off_c, 2, 49, 80
2, 196800, Note_off_c, 2, 42, 80
2, 196800, Note_on_c, 2, 54, 95
2, 196800, Note_on_c, 2, 49, 95
2, 196800, Note_on_c, 2, 42, 95
2, 197280, Note_off_c, 2, 54, 80
2, 197280, Note_off_c, 2, 49, 80
2, 197280, Note_off_c, 2, 42, 80
2, 197280, Note_on_c, 2, 54, 95
2, 197280, Note_on_c, 2, 49, 95
2, 197280, Note_on_c, 2, 42, 95
2, 197760, Note_off_c, 2, 54, 80
2, 197760, Note_off_c, 2, 49, 80
2, 197760, Note_off_c, 2, 42, 80
2, 197760, Note_on_c, 2, 54, 95
2, 197760, Note_on_c, 2, 49, 95
2, 197760, Note_on_c, 2, 42, 95
2, 198240, Note_off_c, 2, 54, 80
2, 198240, Note_off_c, 2, 49, 80
2, 198240, Note_off_c, 2, 42, 80
2, 198240, Note_on_c, 2, 54, 95
2, 198240, Note_on_c, 2, 49, 95
2, 198240, Note_on_c, 2, 42, 95
2, 198720, Note_off_c, 2, 54, 80
2, 198720, Note_off_c, 2, 49, 80
2, 198720, Note_off_c, 2, 42, 80
2, 198720, Note_on_c, 2, 54, 95
2, 198720, Note_on_c, 2, 49, 95
2, 198720, Note_on_c, 2, 42, 95
2, 199200, Note_off_c, 2, 54, 80
2, 199200, Note_off_c, 2, 49, 80
2, 199200, Note_off_c, 2, 42, 80
2, 199200, Note_on_c, 2, 54, 95
2, 199200, Note_on_c, 2, 49, 95
2, 199200, Note_on_c, 2, 42, 95
2, 199680, Note_off_c, 2, 54, 80
2, 199680, Note_off_c, 2, 49, 80
2, 199680, Note_off_c, 2, 42, 80
2, 199680, Note_on_c, 2, 57, 95
2, 199680, Note_on_c, 2, 52, 95
2, 199680, Note_on_c, 2, 45, 95
2, 200160, Note_off_c, 2, 57, 80
2, 200160, Note_off_c, 2, 52, 80
2, 200160, Note_off_c, 2, 45, 80
2, 200160, Note_on_c, 2, 57, 95
2, 200160, Note_on_c, 2, 52, 95
2, 200160, Note_on_c, 2, 45, 95
2, 200640, Note_off_c, 2, 57, 80
2, 200640, Note_off_c, 2, 52, 80
2, 200640, Note_off_c, 2, 45, 80
2, 200640, Note_on_c, 2, 57, 95
2, 200640, Note_on_c, 2, 52, 95
2, 200640, Note_on_c, 2, 45, 95
2, 201120, Note_off_c, 2, 57, 80
2, 201120, Note_off_c, 2, 52, 80
2, 201120, Note_off_c, 2, 45, 80
2, 201120, Note_on_c, 2, 57, 95
2, 201120, Note_on_c, 2, 52, 95
2, 201120, Note_on_c, 2, 45, 95
2, 201600, Note_off_c, 2, 57, 80
2, 201600, Note_off_c, 2, 52, 80
2, 201600, Note_off_c, 2, 45, 80
2, 201600, Note_on_c, 2, 57, 95
2, 201600, Note_on_c, 2, 52, 95
2, 201600, Note_on_c, 2, 45, 95
2, 202080, Note_off_c, 2, 57, 80
2, 202080, Note_off_c, 2, 52, 80
2, 202080, Note_off_c, 2, 45, 80
2, 202080, Note_on_c, 2, 57, 95
2, 202080, Note_on_c, 2, 52, 95
2, 202080, Note_on_c, 2, 45, 95
2, 202560, Note_off_c, 2, 57, 80
2, 202560, Note_off_c, 2, 52, 80
2, 202560, Note_off_c, 2, 45, 80
2, 202560, Note_on_c, 2, 57, 95
2, 202560, Note_on_c, 2, 52, 95
2, 202560, Note_on_c, 2, 45, 95
2, 203040, Note_off_c, 2, 57, 80
2, 203040, Note_off_c, 2, 52, 80
2, 203040, Note_off_c, 2, 45, 80
2, 203040, Note_on_c, 2, 57, 95
2, 203040, Note_on_c, 2, 52, 95
2, 203040, Note_on_c, 2, 45, 95
2, 203520, Note_off_c, 2, 57, 80
2, 203520, Note_off_c, 2, 52, 80
2, 203520, Note_off_c, 2, 45, 80
2, 203520, Note_on_c, 2, 52, 95
2, 203520, Note_on_c, 2, 47, 95
2, 203520, Note_on_c, 2, 40, 95
2, 204000, Note_off_c, 2, 52, 80
2, 204000, Note_off_c, 2, 47, 80
2, 204000, Note_off_c, 2, 40, 80
2, 204000, Note_on_c, 2, 52, 95
2, 204000, Note_on_c, 2, 47, 95
2, 204000, Note_on_c, 2, 40, 95
2, 204480, Note_off_c, 2, 52, 80
2, 204480, Note_off_c, 2, 47, 80
2, 204480, Note_off_c, 2, 40, 80
2, 204480, Note_on_c, 2, 52, 95
2, 204480, Note_on_c, 2, 47, 95
2, 204480, Note_on_c, 2, 40, 95
2, 204960, Note_off_c, 2, 52, 80
2, 204960, Note_off_c, 2, 47, 80
2, 204960, Note_off_c, 2, 40, 80
2, 204960, Note_on_c, 2, 52, 95
2, 204960, Note_on_c, 2, 47, 95
2, 204960, Note_on_c, 2, 40, 95
2, 205440, Note_off_c, 2, 52, 80
2, 205440, Note_off_c, 2, 47, 80
2, 205440, Note_off_c, 2, 40, 80
2, 205440, Note_on_c, 2, 52, 95
2, 205440, Note_on_c, 2, 47, 95
2, 205440, Note_on_c, 2, 40, 95
2, 205920, Note_off_c, 2, 52, 80
2, 205920, Note_off_c, 2, 47, 80
2, 205920, Note_off_c, 2, 40, 80
2, 205920, Note_on_c, 2, 52, 95
2, 205920, Note_on_c, 2, 47, 95
2, 205920, Note_on_c, 2, 40, 95
2, 206400, Note_off_c, 2, 52, 80
2, 206400, Note_off_c, 2, 47, 80
2, 206400, Note_off_c, 2, 40, 80
2, 206400, Note_on_c, 2, 52, 95
2, 206400, Note_on_c, 2, 47, 95
2, 206400, Note_on_c, 2, 40, 95
2, 206880, Note_off_c, 2, 52, 80
2, 206880, Note_off_c, 2, 47, 80
2, 206880, Note_off_c, 2, 40, 80
2, 206880, Note_on_c, 2, 52, 95
2, 206880, Note_on_c, 2, 47, 95
2, 206880, Note_on_c, 2, 40, 95
2, 207360, Note_off_c, 2, 52, 80
2, 207360, Note_off_c, 2, 47, 80
2, 207360, Note_off_c, 2, 40, 80
2, 207360, Note_on_c, 2, 54, 95
2, 207360, Note_on_c, 2, 49, 95
2, 207360, Note_on_c, 2, 42, 95
2, 207840, Note_off_c, 2, 54, 80
2, 207840, Note_off_c, 2, 49, 80
2, 207840, Note_off_c, 2, 42, 80
2, 207840, Note_on_c, 2, 54, 95
2, 207840, Note_on_c, 2, 49, 95
2, 207840, Note_on_c, 2, 42, 95
2, 208320, Note_off_c, 2, 54, 80
2, 208320, Note_off_c, 2, 49, 80
2, 208320, Note_off_c, 2, 42, 80
2, 209280, Note_on_c, 2, 54, 95
2, 209280, Note_on_c, 2, 49, 95
2, 209280, Note_on_c, 2, 42, 95
2, 209760, Note_off_c, 2, 54, 80
2, 209760, Note_off_c, 2, 49, 80
2, 209760, Note_off_c, 2, 42, 80
2, 209760, Note_on_c, 2, 54, 95
2, 209760, Note_on_c, 2, 49, 95
2, 209760, Note_on_c, 2, 42, 95
2, 210240, Note_off_c, 2, 54, 80
2, 210240, Note_off_c, 2, 49, 80
2, 210240, Note_off_c, 2, 42, 80
2, 211200, Note_on_c, 2, 54, 95
2, 211200, Note_on_c, 2, 49, 95
2, 211200, Note_on_c, 2, 42, 95
2, 211680, Note_off_c, 2, 54, 80
2, 211680, Note_off_c, 2, 49, 80
2, 211680, Note_off_c, 2, 42, 80
2, 211680, Note_on_c, 2, 54, 95
2, 211680, Note_on_c, 2, 49, 95
2, 211680, Note_on_c, 2, 42, 95
2, 212160, Note_off_c, 2, 54, 80
2, 212160, Note_off_c, 2, 49, 80
2, 212160, Note_off_c, 2, 42, 80
2, 213120, Note_on_c, 2, 54, 95
2, 213120, Note_on_c, 2, 49, 95
2, 213120, Note_on_c, 2, 42, 95
2, 213600, Note_off_c, 2, 54, 80
2, 213600, Note_off_c, 2, 49, 80
2, 213600, Note_off_c, 2, 42, 80
2, 213600, Note_on_c, 2, 54, 95
2, 213600, Note_on_c, 2, 49, 95
2, 213600, Note_on_c, 2, 42, 95
2, 214080, Note_off_c, 2, 54, 80
2, 214080, Note_off_c, 2, 49, 80
2, 214080, Note_off_c, 2, 42, 80
2, 215040, Note_on_c, 2, 54, 95
2, 215040, Note_on_c, 2, 49, 95
2, 215040, Note_on_c, 2, 42, 95
2, 215520, Note_off_c, 2, 54, 80
2, 215520, Note_off_c, 2, 49, 80
2, 215520, Note_off_c, 2, 42, 80
2, 215520, Note_on_c, 2, 54, 95
2, 215520, Note_on_c, 2, 49, 95
2, 215520, Note_on_c, 2, 42, 95
2, 216000, Note_off_c, 2, 54, 80
2, 216000, Note_off_c, 2, 49, 80
2, 216000, Note_off_c, 2, 42, 80
2, 216960, Note_on_c, 2, 54, 95
2, 216960, Note_on_c, 2, 49, 95
2, 216960, Note_on_c, 2, 42, 95
2, 217440, Note_off_c, 2, 54, 80
2, 217440, Note_off_c, 2, 49, 80
2, 217440, Note_off_c, 2, 42, 80
2, 217440, Note_on_c, 2, 54, 95
2, 217440, Note_on_c, 2, 49, 95
2, 217440, Note_on_c, 2, 42, 95
2, 217920, Note_off_c, 2, 54, 80
2, 217920, Note_off_c, 2, 49, 80
2, 217920, Note_off_c, 2, 42, 80
2, 218880, Note_on_c, 2, 54, 95
2, 218880, Note_on_c, 2, 49, 95
2, 218880, Note_on_c, 2, 42, 95
2, 219360, Note_off_c, 2, 54, 80
2, 219360, Note_off_c, 2, 49, 80
2, 219360, Note_off_c, 2, 42, 80
2, 219360, Note_on_c, 2, 54, 95
2, 219360, Note_on_c, 2, 49, 95
2, 219360, Note_on_c, 2, 42, 95
2, 219840, Note_off_c, 2, 54, 80
2, 219840, Note_off_c, 2, 49, 80
2, 219840, Note_off_c, 2, 42, 80
2, 220800, Note_on_c, 2, 54, 95
2, 220800, Note_on_c, 2, 49, 95
2, 220800, Note_on_c, 2, 42, 95
2, 221280, Note_off_c, 2, 54, 80
2, 221280, Note_off_c, 2, 49, 80
2, 221280, Note_off_c, 2, 42, 80
2, 221280, Note_on_c, 2, 54, 95
2, 221280, Note_on_c, 2, 49, 95
2, 221280, Note_on_c, 2, 42, 95
2, 221760, Note_off_c, 2, 54, 80
2, 221760, Note_off_c, 2, 49, 80
2, 221760, Note_off_c, 2, 42, 80
2, 222720, Note_on_c, 2, 54, 95
2, 222720, Note_on_c, 2, 49, 95
2, 222720, Note_on_c, 2, 42, 95
2, 223200, Note_off_c, 2, 54, 80
2, 223200, Note_off_c, 2, 49, 80
2, 223200, Note_off_c, 2, 42, 80
2, 223200, Note_on_c, 2, 54, 95
2, 223200, Note_on_c, 2, 49, 95
2, 223200, Note_on_c, 2, 42, 95
2, 223680, Note_off_c, 2, 54, 80
2, 223680, Note_off_c, 2, 49, 80
2, 223680, Note_off_c, 2, 42, 80
2, 223680, Note_on_c, 2, 54, 95
2, 223680, Note_on_c, 2, 49, 95
2, 223680, Note_on_c, 2, 42, 95
2, 224160, Note_off_c, 2, 54, 80
2, 224160, Note_off_c, 2, 49, 80
2, 224160, Note_off_c, 2, 42, 80
2, 224160, Note_on_c, 2, 54, 95
2, 224160, Note_on_c, 2, 49, 95
2, 224160, Note_on_c, 2, 42, 95
2, 224640, Note_off_c, 2, 54, 80
2, 224640, Note_off_c, 2, 49, 80
2, 224640, Note_off_c, 2, 42, 80
2, 224640, Note_on_c, 2, 54, 95
2, 224640, Note_on_c, 2, 49, 95
2, 224640, Note_on_c, 2, 42, 95
2, 225120, Note_off_c, 2, 54, 80
2, 225120, Note_off_c, 2, 49, 80
2, 225120, Note_off_c, 2, 42, 80
2, 225120, Note_on_c, 2, 54, 95
2, 225120, Note_on_c, 2, 49, 95
2, 225120, Note_on_c, 2, 42, 95
2, 225600, Note_off_c, 2, 54, 80
2, 225600, Note_off_c, 2, 49, 80
2, 225600, Note_off_c, 2, 42, 80
2, 225600, Note_on_c, 2, 54, 95
2, 225600, Note_on_c, 2, 49, 95
2, 225600, Note_on_c, 2, 42, 95
2, 226080, Note_off_c, 2, 54, 80
2, 226080, Note_off_c, 2, 49, 80
2, 226080, Note_off_c, 2, 42, 80
2, 226080, Note_on_c, 2, 54, 95
2, 226080, Note_on_c, 2, 49, 95
2, 226080, Note_on_c, 2, 42, 95
2, 226560, Note_off_c, 2, 54, 80
2, 226560, Note_off_c, 2, 49, 80
2, 226560, Note_off_c, 2, 42, 80
2, 226560, Note_on_c, 2, 54, 95
2, 226560, Note_on_c, 2, 49, 95
2, 226560, Note_on_c, 2, 42, 95
2, 227040, Note_off_c, 2, 54, 80
2, 227040, Note_off_c, 2, 49, 80
2, 227040, Note_off_c, 2, 42, 80
2, 227040, Note_on_c, 2, 54, 95
2, 227040, Note_on_c, 2, 49, 95
2, 227040, Note_on_c, 2, 42, 95
2, 227520, Note_off_c, 2, 54, 80
2, 227520, Note_off_c, 2, 49, 80
2, 227520, Note_off_c, 2, 42, 80
2, 227520, Note_on_c, 2, 54, 95
2, 227520, Note_on_c, 2, 49, 95
2, 227520, Note_on_c, 2, 42, 95
2, 228000, Note_off_c, 2, 54, 80
2, 228000, Note_off_c, 2, 49, 80
2, 228000, Note_off_c, 2, 42, 80
2, 228000, Note_on_c, 2, 54, 95
2, 228000, Note_on_c, 2, 49, 95
2, 228000, Note_on_c, 2, 42, 95
2, 228480, Note_off_c, 2, 54, 80
2, 228480, Note_off_c, 2, 49, 80
2, 228480, Note_off_c, 2, 42, 80
2, 228480, Note_on_c, 2, 54, 95
2, 228480, Note_on_c, 2, 49, 95
2, 228480, Note_on_c, 2, 42, 95
2, 228960, Note_off_c, 2, 54, 80
2, 228960, Note_off_c, 2, 49, 80
2, 228960, Note_off_c, 2, 42, 80
2, 228960, Note_on_c, 2, 54, 95
2, 228960, Note_on_c, 2, 49, 95
2, 228960, Note_on_c, 2, 42, 95
2, 229440, Note_off_c, 2, 54, 80
2, 229440, Note_off_c, 2, 49, 80
2, 229440, Note_off_c, 2, 42, 80
2, 229440, Note_on_c, 2, 54, 95
2, 229440, Note_on_c, 2, 49, 95
2, 229440, Note_on_c, 2, 42, 95
2, 229920, Note_off_c, 2, 54, 80
2, 229920, Note_off_c, 2, 49, 80
2, 229920, Note_off_c, 2, 42, 80
2, 229920, Note_on_c, 2, 54, 95
2, 229920, Note_on_c, 2, 49, 95
2, 229920, Note_on_c, 2, 42, 95
2, 230400, Note_off_c, 2, 54, 80
2, 230400, Note_off_c, 2, 49, 80
2, 230400, Note_off_c, 2, 42, 80
2, 230400, Note_on_c, 2, 54, 95
2, 230400, Note_on_c, 2, 49, 95
2, 230400, Note_on_c, 2, 42, 95
2, 230880, Note_off_c, 2, 54, 80
2, 230880, Note_off_c, 2, 49, 80
2, 230880, Note_off_c, 2, 42, 80
2, 230880, Note_on_c, 2, 54, 95
2, 230880, Note_on_c, 2, 49, 95
2, 230880, Note_on_c, 2, 42, 95
2, 231360, Note_off_c, 2, 54, 80
2, 231360, Note_off_c, 2, 49, 80
2, 231360, Note_off_c, 2, 42, 80
2, 231360, Note_on_c, 2, 54, 95
2, 231360, Note_on_c, 2, 49, 95
2, 231360, Note_on_c, 2, 42, 95
2, 231840, Note_off_c, 2, 54, 80
2, 231840, Note_off_c, 2, 49, 80
2, 231840, Note_off_c, 2, 42, 80
2, 231840, Note_on_c, 2, 54, 95
2, 231840, Note_on_c, 2, 49, 95
2, 231840, Note_on_c, 2, 42, 95
2, 232320, Note_off_c, 2, 54, 80
2, 232320, Note_off_c, 2, 49, 80
2, 232320, Note_off_c, 2, 42, 80
2, 232320, Note_on_c, 2, 54, 95
2, 232320, Note_on_c, 2, 49, 95
2, 232320, Note_on_c, 2, 42, 95
2, 232800, Note_off_c, 2, 54, 80
2, 232800, Note_off_c, 2, 49, 80
2, 232800, Note_off_c, 2, 42, 80
2, 232800, Note_on_c, 2, 54, 95
2, 232800, Note_on_c, 2, 49, 95
2, 232800, Note_on_c, 2, 42, 95
2, 233280, Note_off_c, 2, 54, 80
2, 233280, Note_off_c, 2, 49, 80
2, 233280, Note_off_c, 2, 42, 80
2, 233280, Note_on_c, 2, 54, 95
2, 233280, Note_on_c, 2, 49, 95
2, 233280, Note_on_c, 2, 42, 95
2, 233760, Note_off_c, 2, 54, 80
2, 233760, Note_off_c, 2, 49, 80
2, 233760, Note_off_c, 2, 42, 80
2, 233760, Note_on_c, 2, 54, 95
2, 233760, Note_on_c, 2, 49, 95
2, 233760, Note_on_c, 2, 42, 95
2, 234240, Note_off_c, 2, 54, 80
2, 234240, Note_off_c, 2, 49, 80
2, 234240, Note_off_c, 2, 42, 80
2, 234240, Note_on_c, 2, 54, 95
2, 234240, Note_on_c, 2, 49, 95
2, 234240, Note_on_c, 2, 42, 95
2, 234720, Note_off_c, 2, 54, 80
2, 234720, Note_off_c, 2, 49, 80
2, 234720, Note_off_c, 2, 42, 80
2, 234720, Note_on_c, 2, 54, 95
2, 234720, Note_on_c, 2, 49, 95
2, 234720, Note_on_c, 2, 42, 95
2, 235200, Note_off_c, 2, 54, 80
2, 235200, Note_off_c, 2, 49, 80
2, 235200, Note_off_c, 2, 42, 80
2, 235200, Note_on_c, 2, 54, 95
2, 235200, Note_on_c, 2, 49, 95
2, 235200, Note_on_c, 2, 42, 95
2, 235680, Note_off_c, 2, 54, 80
2, 235680, Note_off_c, 2, 49, 80
2, 235680, Note_off_c, 2, 42, 80
2, 235680, Note_on_c, 2, 54, 95
2, 235680, Note_on_c, 2, 49, 95
2, 235680, Note_on_c, 2, 42, 95
2, 236160, Note_off_c, 2, 54, 80
2, 236160, Note_off_c, 2, 49, 80
2, 236160, Note_off_c, 2, 42, 80
2, 236160, Note_on_c, 2, 54, 95
2, 236160, Note_on_c, 2, 49, 95
2, 236160, Note_on_c, 2, 42, 95
2, 236640, Note_off_c, 2, 54, 80
2, 236640, Note_off_c, 2, 49, 80
2, 236640, Note_off_c, 2, 42, 80
2, 236640, Note_on_c, 2, 54, 95
2, 236640, Note_on_c, 2, 49, 95
2, 236640, Note_on_c, 2, 42, 95
2, 237120, Note_off_c, 2, 54, 80
2, 237120, Note_off_c, 2, 49, 80
2, 237120, Note_off_c, 2, 42, 80
2, 237120, Note_on_c, 2, 54, 95
2, 237120, Note_on_c, 2, 49, 95
2, 237120, Note_on_c, 2, 42, 95
2, 237600, Note_off_c, 2, 54, 80
2, 237600, Note_off_c, 2, 49, 80
2, 237600, Note_off_c, 2, 42, 80
2, 237600, Note_on_c, 2, 54, 95
2, 237600, Note_on_c, 2, 49, 95
2, 237600, Note_on_c, 2, 42, 95
2, 238080, Note_off_c, 2, 54, 80
2, 238080, Note_off_c, 2, 49, 80
2, 238080, Note_off_c, 2, 42, 80
2, 238080, Note_on_c, 2, 54, 95
2, 238080, Note_on_c, 2, 49, 95
2, 238080, Note_on_c, 2, 42, 95
2, 238560, Note_off_c, 2, 54, 80
2, 238560, Note_off_c, 2, 49, 80
2, 238560, Note_off_c, 2, 42, 80
2, 241920, Note_on_c, 2, 54, 95
2, 241920, Note_on_c, 2, 49, 95
2, 241920, Note_on_c, 2, 42, 95
2, 242400, Note_off_c, 2, 54, 80
2, 242400, Note_off_c, 2, 49, 80
2, 242400, Note_off_c, 2, 42, 80
2, 242400, Note_on_c, 2, 54, 95
2, 242400, Note_on_c, 2, 49, 95
2, 242400, Note_on_c, 2, 42, 95
2, 242880, Note_off_c, 2, 54, 80
2, 242880, Note_off_c, 2, 49, 80
2, 242880, Note_off_c, 2, 42, 80
2, 242880, Note_on_c, 2, 54, 95
2, 242880, Note_on_c, 2, 49, 95
2, 242880, Note_on_c, 2, 42, 95
2, 243360, Note_off_c, 2, 54, 80
2, 243360, Note_off_c, 2, 49, 80
2, 243360, Note_off_c, 2, 42, 80
2, 243360, Note_on_c, 2, 54, 95
2, 243360, Note_on_c, 2, 49, 95
2, 243360, Note_on_c, 2, 42, 95
2, 243840, Note_off_c, 2, 54, 80
2, 243840, Note_off_c, 2, 49, 80
2, 243840, Note_off_c, 2, 42, 80
2, 243840, Note_on_c, 2, 54, 95
2, 243840, Note_on_c, 2, 49, 95
2, 243840, Note_on_c, 2, 42, 95
2, 244320, Note_off_c, 2, 54, 80
2, 244320, Note_off_c, 2, 49, 80
2, 244320, Note_off_c, 2, 42, 80
2, 244320, Note_on_c, 2, 54, 95
2, 244320, Note_on_c, 2, 49, 95
2, 244320, Note_on_c, 2, 42, 95
2, 244800, Note_off_c, 2, 54, 80
2, 244800, Note_off_c, 2, 49, 80
2, 244800, Note_off_c, 2, 42, 80
2, 244800, Note_on_c, 2, 54, 95
2, 244800, Note_on_c, 2, 49, 95
2, 244800, Note_on_c, 2, 42, 95
2, 245280, Note_off_c, 2, 54, 80
2, 245280, Note_off_c, 2, 49, 80
2, 245280, Note_off_c, 2, 42, 80
2, 245280, Note_on_c, 2, 54, 95
2, 245280, Note_on_c, 2, 49, 95
2, 245280, Note_on_c, 2, 42, 95
2, 245760, Note_off_c, 2, 54, 80
2, 245760, Note_off_c, 2, 49, 80
2, 245760, Note_off_c, 2, 42, 80
2, 245760, Note_on_c, 2, 57, 95
2, 245760, Note_on_c, 2, 52, 95
2, 245760, Note_on_c, 2, 45, 95
2, 246240, Note_off_c, 2, 57, 80
2, 246240, Note_off_c, 2, 52, 80
2, 246240, Note_off_c, 2, 45, 80
2, 246240, Note_on_c, 2, 57, 95
2, 246240, Note_on_c, 2, 52, 95
2, 246240, Note_on_c, 2, 45, 95
2, 246720, Note_off_c, 2, 57, 80
2, 246720, Note_off_c, 2, 52, 80
2, 246720, Note_off_c, 2, 45, 80
2, 246720, Note_on_c, 2, 57, 95
2, 246720, Note_on_c, 2, 52, 95
2, 246720, Note_on_c, 2, 45, 95
2, 247200, Note_off_c, 2, 57, 80
2, 247200, Note_off_c, 2, 52, 80
2, 247200, Note_off_c, 2, 45, 80
2, 247200, Note_on_c, 2, 57, 95
2, 247200, Note_on_c, 2, 52, 95
2, 247200, Note_on_c, 2, 45, 95
2, 247680, Note_off_c, 2, 57, 80
2, 247680, Note_off_c, 2, 52, 80
2, 247680, Note_off_c, 2, 45, 80
2, 247680, Note_on_c, 2, 57, 95
2, 247680, Note_on_c, 2, 52, 95
2, 247680, Note_on_c, 2, 45, 95
2, 248160, Note_off_c, 2, 57, 80
2, 248160, Note_off_c, 2, 52, 80
2, 248160, Note_off_c, 2, 45, 80
2, 248160, Note_on_c, 2, 57, 95
2, 248160, Note_on_c, 2, 52, 95
2, 248160, Note_on_c, 2, 45, 95
2, 248640, Note_off_c, 2, 57, 80
2, 248640, Note_off_c, 2, 52, 80
2, 248640, Note_off_c, 2, 45, 80
2, 248640, Note_on_c, 2, 57, 95
2, 248640, Note_on_c, 2, 52, 95
2, 248640, Note_on_c, 2, 45, 95
2, 249120, Note_off_c, 2, 57, 80
2, 249120, Note_off_c, 2, 52, 80
2, 249120, Note_off_c, 2, 45, 80
2, 249120, Note_on_c, 2, 57, 95
2, 249120, Note_on_c, 2, 52, 95
2, 249120, Note_on_c, 2, 45, 95
2, 249600, Note_off_c, 2, 57, 80
2, 249600, Note_off_c, 2, 52, 80
2, 249600, Note_off_c, 2, 45, 80
2, 249600, Note_on_c, 2, 64, 95
2, 249600, Note_on_c, 2, 59, 95
2, 249600, Note_on_c, 2, 52, 95
2, 250080, Note_off_c, 2, 64, 80
2, 250080, Note_off_c, 2, 59, 80
2, 250080, Note_off_c, 2, 52, 80
2, 250080, Note_on_c, 2, 64, 95
2, 250080, Note_on_c, 2, 59, 95
2, 250080, Note_on_c, 2, 52, 95
2, 250560, Note_off_c, 2, 64, 80
2, 250560, Note_off_c, 2, 59, 80
2, 250560, Note_off_c, 2, 52, 80
2, 250560, Note_on_c, 2, 64, 95
2, 250560, Note_on_c, 2, 59, 95
2, 250560, Note_on_c, 2, 52, 95
2, 251040, Note_off_c, 2, 64, 80
2, 251040, Note_off_c, 2, 59, 80
2, 251040, Note_off_c, 2, 52, 80
2, 251040, Note_on_c, 2, 64, 95
2, 251040, Note_on_c, 2, 59, 95
2, 251040, Note_on_c, 2, 52, 95
2, 251520, Note_off_c, 2, 64, 80
2, 251520, Note_off_c, 2, 59, 80
2, 251520, Note_off_c, 2, 52, 80
2, 251520, Note_on_c, 2, 64, 95
2, 251520, Note_on_c, 2, 59, 95
2, 251520, Note_on_c, 2, 52, 95
2, 252000, Note_off_c, 2, 64, 80
2, 252000, Note_off_c, 2, 59, 80
2, 252000, Note_off_c, 2, 52, 80
2, 252000, Note_on_c, 2, 64, 95
2, 252000, Note_on_c, 2, 59, 95
2, 252000, Note_on_c, 2, 52, 95
2, 252480, Note_off_c, 2, 64, 80
2, 252480, Note_off_c, 2, 59, 80
2, 252480, Note_off_c, 2, 52, 80
2, 252480, Note_on_c, 2, 64, 95
2, 252480, Note_on_c, 2, 59, 95
2, 252480, Note_on_c, 2, 52, 95
2, 252960, Note_off_c, 2, 64, 80
2, 252960, Note_off_c, 2, 59, 80
2, 252960, Note_off_c, 2, 52, 80
2, 252960, Note_on_c, 2, 64, 95
2, 252960, Note_on_c, 2, 59, 95
2, 252960, Note_on_c, 2, 52, 95
2, 253440, Note_off_c, 2, 64, 80
2, 253440, Note_off_c, 2, 59, 80
2, 253440, Note_off_c, 2, 52, 80
2, 253440, Note_on_c, 2, 54, 95
2, 253440, Note_on_c, 2, 49, 95
2, 253440, Note_on_c, 2, 42, 95
2, 253920, Note_off_c, 2, 54, 80
2, 253920, Note_off_c, 2, 49, 80
2, 253920, Note_off_c, 2, 42, 80
2, 253920, Note_on_c, 2, 54, 95
2, 253920, Note_on_c, 2, 49, 95
2, 253920, Note_on_c, 2, 42, 95
2, 254400, Note_off_c, 2, 54, 80
2, 254400, Note_off_c, 2, 49, 80
2, 254400, Note_off_c, 2, 42, 80
2, 254400, Note_on_c, 2, 54, 95
2, 254400, Note_on_c, 2, 49, 95
2, 254400, Note_on_c, 2, 42, 95
2, 254880, Note_off_c, 2, 54, 80
2, 254880, Note_off_c, 2, 49, 80
2, 254880, Note_off_c, 2, 42, 80
2, 254880, Note_on_c, 2, 54, 95
2, 254880, Note_on_c, 2, 49, 95
2, 254880, Note_on_c, 2, 42, 95
2, 255360, Note_off_c, 2, 54, 80
2, 255360, Note_off_c, 2, 49, 80
2, 255360, Note_off_c, 2, 42, 80
2, 255360, Note_on_c, 2, 54, 95
2, 255360, Note_on_c, 2, 49, 95
2, 255360, Note_on_c, 2, 42, 95
2, 255840, Note_off_c, 2, 54, 80
2, 255840, Note_off_c, 2, 49, 80
2, 255840, Note_off_c, 2, 42, 80
2, 255840, Note_on_c, 2, 54, 95
2, 255840, Note_on_c, 2, 49, 95
2, 255840, Note_on_c, 2, 42, 95
2, 256320, Note_off_c, 2, 54, 80
2, 256320, Note_off_c, 2, 49, 80
2, 256320, Note_off_c, 2, 42, 80
2, 256320, Note_on_c, 2, 54, 95
2, 256320, Note_on_c, 2, 49, 95
2, 256320, Note_on_c, 2, 42, 95
2, 256800, Note_off_c, 2, 54, 80
2, 256800, Note_off_c, 2, 49, 80
2, 256800, Note_off_c, 2, 42, 80
2, 256800, Note_on_c, 2, 54, 95
2, 256800, Note_on_c, 2, 49, 95
2, 256800, Note_on_c, 2, 42, 95
2, 257280, Note_off_c, 2, 54, 80
2, 257280, Note_off_c, 2, 49, 80
2, 257280, Note_off_c, 2, 42, 80
2, 257280, Note_on_c, 2, 54, 95
2, 257280, Note_on_c, 2, 49, 95
2, 257280, Note_on_c, 2, 42, 95
2, 257760, Note_off_c, 2, 54, 80
2, 257760, Note_off_c, 2, 49, 80
2, 257760, Note_off_c, 2, 42, 80
2, 257760, Note_on_c, 2, 54, 95
2, 257760, Note_on_c, 2, 49, 95
2, 257760, Note_on_c, 2, 42, 95
2, 258240, Note_off_c, 2, 54, 80
2, 258240, Note_off_c, 2, 49, 80
2, 258240, Note_off_c, 2, 42, 80
2, 258240, Note_on_c, 2, 54, 95
2, 258240, Note_on_c, 2, 49, 95
2, 258240, Note_on_c, 2, 42, 95
2, 258720, Note_off_c, 2, 54, 80
2, 258720, Note_off_c, 2, 49, 80
2, 258720, Note_off_c, 2, 42, 80
2, 258720, Note_on_c, 2, 54, 95
2, 258720, Note_on_c, 2, 49, 95
2, 258720, Note_on_c, 2, 42, 95
2, 259200, Note_off_c, 2, 54, 80
2, 259200, Note_off_c, 2, 49, 80
2, 259200, Note_off_c, 2, 42, 80
2, 259200, Note_on_c, 2, 54, 95
2, 259200, Note_on_c, 2, 49, 95
2, 259200, Note_on_c, 2, 42, 95
2, 259680, Note_off_c, 2, 54, 80
2, 259680, Note_off_c, 2, 49, 80
2, 259680, Note_off_c, 2, 42, 80
2, 259680, Note_on_c, 2, 54, 95
2, 259680, Note_on_c, 2, 49, 95
2, 259680, Note_on_c, 2, 42, 95
2, 260160, Note_off_c, 2, 54, 80
2, 260160, Note_off_c, 2, 49, 80
2, 260160, Note_off_c, 2, 42, 80
2, 260160, Note_on_c, 2, 54, 95
2, 260160, Note_on_c, 2, 49, 95
2, 260160, Note_on_c, 2, 42, 95
2, 260640, Note_off_c, 2, 54, 80
2, 260640, Note_off_c, 2, 49, 80
2, 260640, Note_off_c, 2, 42, 80
2, 260640, Note_on_c, 2, 54, 95
2, 260640, Note_on_c, 2, 49, 95
2, 260640, Note_on_c, 2, 42, 95
2, 261120, Note_off_c, 2, 54, 80
2, 261120, Note_off_c, 2, 49, 80
2, 261120, Note_off_c, 2, 42, 80
2, 261120, Note_on_c, 2, 57, 95
2, 261120, Note_on_c, 2, 52, 95
2, 261120, Note_on_c, 2, 45, 95
2, 261600, Note_off_c, 2, 57, 80
2, 261600, Note_off_c, 2, 52, 80
2, 261600, Note_off_c, 2, 45, 80
2, 261600, Note_on_c, 2, 57, 95
2, 261600, Note_on_c, 2, 52, 95
2, 261600, Note_on_c, 2, 45, 95
2, 262080, Note_off_c, 2, 57, 80
2, 262080, Note_off_c, 2, 52, 80
2, 262080, Note_off_c, 2, 45, 80
2, 262080, Note_on_c, 2, 57, 95
2, 262080, Note_on_c, 2, 52, 95
2, 262080, Note_on_c, 2, 45, 95
2, 262560, Note_off_c, 2, 57, 80
2, 262560, Note_off_c, 2, 52, 80
2, 262560, Note_off_c, 2, 45, 80
2, 262560, Note_on_c, 2, 57, 95
2, 262560, Note_on_c, 2, 52, 95
2, 262560, Note_on_c, 2, 45, 95
2, 263040, Note_off_c, 2, 57, 80
2, 263040, Note_off_c, 2, 52, 80
2, 263040, Note_off_c, 2, 45, 80
2, 263040, Note_on_c, 2, 57, 95
2, 263040, Note_on_c, 2, 52, 95
2, 263040, Note_on_c, 2, 45, 95
2, 263520, Note_off_c, 2, 57, 80
2, 263520, Note_off_c, 2, 52, 80
2, 263520, Note_off_c, 2, 45, 80
2, 263520, Note_on_c, 2, 57, 95
2, 263520, Note_on_c, 2, 52, 95
2, 263520, Note_on_c, 2, 45, 95
2, 264000, Note_off_c, 2, 57, 80
2, 264000, Note_off_c, 2, 52, 80
2, 264000, Note_off_c, 2, 45, 80
2, 264000, Note_on_c, 2, 57, 95
2, 264000, Note_on_c, 2, 52, 95
2, 264000, Note_on_c, 2, 45, 95
2, 264480, Note_off_c, 2, 57, 80
2, 264480, Note_off_c, 2, 52, 80
2, 264480, Note_off_c, 2, 45, 80
2, 264480, Note_on_c, 2, 57, 95
2, 264480, Note_on_c, 2, 52, 95
2, 264480, Note_on_c, 2, 45, 95
2, 264960, Note_off_c, 2, 57, 80
2, 264960, Note_off_c, 2, 52, 80
2, 264960, Note_off_c, 2, 45, 80
2, 264960, Note_on_c, 2, 64, 95
2, 264960, Note_on_c, 2, 59, 95
2, 264960, Note_on_c, 2, 52, 95
2, 265440, Note_off_c, 2, 64, 80
2, 265440, Note_off_c, 2, 59, 80
2, 265440, Note_off_c, 2, 52, 80
2, 265440, Note_on_c, 2, 64, 95
2, 265440, Note_on_c, 2, 59, 95
2, 265440, Note_on_c, 2, 52, 95
2, 265920, Note_off_c, 2, 64, 80
2, 265920, Note_off_c, 2, 59, 80
2, 265920, Note_off_c, 2, 52, 80
2, 265920, Note_on_c, 2, 64, 95
2, 265920, Note_on_c, 2, 59, 95
2, 265920, Note_on_c, 2, 52, 95
2, 266400, Note_off_c, 2, 64, 80
2, 266400, Note_off_c, 2, 59, 80
2, 266400, Note_off_c, 2, 52, 80
2, 266400, Note_on_c, 2, 64, 95
2, 266400, Note_on_c, 2, 59, 95
2, 266400, Note_on_c, 2, 52, 95
2, 266880, Note_off_c, 2, 64, 80
2, 266880, Note_off_c, 2, 59, 80
2, 266880, Note_off_c, 2, 52, 80
2, 266880, Note_on_c, 2, 64, 95
2, 266880, Note_on_c, 2, 59, 95
2, 266880, Note_on_c, 2, 52, 95
2, 267360, Note_off_c, 2, 64, 80
2, 267360, Note_off_c, 2, 59, 80
2, 267360, Note_off_c, 2, 52, 80
2, 267360, Note_on_c, 2, 64, 95
2, 267360, Note_on_c, 2, 59, 95
2, 267360, Note_on_c, 2, 52, 95
2, 267840, Note_off_c, 2, 64, 80
2, 267840, Note_off_c, 2, 59, 80
2, 267840, Note_off_c, 2, 52, 80
2, 267840, Note_on_c, 2, 64, 95
2, 267840, Note_on_c, 2, 59, 95
2, 267840, Note_on_c, 2, 52, 95
2, 268320, Note_off_c, 2, 64, 80
2, 268320, Note_off_c, 2, 59, 80
2, 268320, Note_off_c, 2, 52, 80
2, 268320, Note_on_c, 2, 64, 95
2, 268320, Note_on_c, 2, 59, 95
2, 268320, Note_on_c, 2, 52, 95
2, 268800, Note_off_c, 2, 64, 80
2, 268800, Note_off_c, 2, 59, 80
2, 268800, Note_off_c, 2, 52, 80
2, 268800, Note_on_c, 2, 61, 95
2, 268800, Note_on_c, 2, 56, 95
2, 268800, Note_on_c, 2, 49, 95
2, 272640, Note_off_c, 2, 61, 80
2, 272640, Note_off_c, 2, 56, 80
2, 272640, Note_off_c, 2, 49, 80
2, 272640, Note_on_c, 2, 54, 95
2, 272640, Note_on_c, 2, 49, 95
2, 272640, Note_on_c, 2, 42, 95
2, 280320, Note_off_c, 2, 54, 80
2, 280320, Note_off_c, 2, 49, 80
2, 280320, Note_off_c, 2, 42, 80
2, 280320, End_track
3, 0, Start_track
3, 0, Title_t, "Jamie"
3, 0, Control_c, 1, 100, 0
3, 0, Control_c, 1, 101, 0
3, 0, Control_c, 1, 6, 12
3, 0, Pitch_bend_c, 1, 8192
3, 0, Control_c, 1, 101, 0
3, 0, Control_c, 1, 100, 1
3, 0, Control_c, 1, 6, 64
3, 0, Control_c, 1, 38, 0
3, 0, Control_c, 1, 101, 127
3, 0, Control_c, 1, 100, 127
3, 0, Control_c, 0, 100, 0
3, 0, Control_c, 0, 101, 0
3, 0, Control_c, 0, 6, 12
3, 0, Pitch_bend_c, 0, 8192
3, 0, Control_c, 0, 101, 0
3, 0, Control_c, 0, 100, 1
3, 0, Control_c, 0, 6, 64
3, 0, Control_c, 0, 38, 0
3, 0, Control_c, 0, 101, 127
3, 0, Control_c, 0, 100, 127
3, 0, Control_c, 1, 101, 0
3, 0, Control_c, 1, 100, 2
3, 0, Control_c, 1, 6, 64
3, 0, Control_c, 1, 101, 127
3, 0, Control_c, 1, 100, 127
3, 0, Control_c, 0, 101, 0
3, 0, Control_c, 0, 100, 2
3, 0, Control_c, 0, 6, 64
3, 0, Control_c, 0, 101, 127
3, 0, Control_c, 0, 100, 127
3, 0, Program_c, 1, 29
3, 0, Program_c, 0, 29
3, 0, Control_c, 1, 0, 0
3, 0, Control_c, 0, 0, 0
3, 0, Control_c, 1, 7, 96
3, 0, Control_c, 0, 7, 96
3, 0, Control_c, 1, 10, 64
3, 0, Control_c, 0, 10, 64
3, 0, Control_c, 1, 93, 0
3, 0, Control_c, 0, 93, 0
3, 0, Control_c, 1, 91, 0
3, 0, Control_c, 0, 91, 0
3, 0, Control_c, 1, 92, 0
3, 0, Control_c, 0, 92, 0
3, 0, Control_c, 1, 95, 0
3, 0, Control_c, 0, 95, 0
3, 0, Note_on_c, 0, 54, 95
3, 0, Note_on_c, 0, 49, 95
3, 0, Note_on_c, 0, 42, 95
3, 480, Note_off_c, 0, 54, 80
3, 480, Note_off_c, 0, 49, 80
3, 480, Note_off_c, 0, 42, 80
3, 480, Note_on_c, 0, 54, 95
3, 480, Note_on_c, 0, 49, 95
3, 480, Note_on_c, 0, 42, 95
3, 960, Note_off_c, 0, 54, 80
3, 960, Note_off_c, 0, 49, 80
3, 960, Note_off_c, 0, 42, 80
3, 1920, Note_on_c, 0, 54, 95
3, 1920, Note_on_c, 0, 49, 95
3, 1920, Note_on_c, 0, 42, 95
3, 2400, Note_off_c, 0, 54, 80
3, 2400, Note_off_c, 0, 49, 80
3, 2400, Note_off_c, 0, 42, 80
3, 2400, Note_on_c, 0, 54, 95
3, 2400, Note_on_c, 0, 49, 95
3, 2400, Note_on_c, 0, 42, 95
3, 2880, Note_off_c, 0, 54, 80
3, 2880, Note_off_c, 0, 49, 80
3, 2880, Note_off_c, 0, 42, 80
3, 3840, Note_on_c, 0, 54, 95
3, 3840, Note_on_c, 0, 49, 95
3, 3840, Note_on_c, 0, 42, 95
3, 4320, Note_off_c, 0, 54, 80
3, 4320, Note_off_c, 0, 49, 80
3, 4320, Note_off_c, 0, 42, 80
3, 4320, Note_on_c, 0, 54, 95
3, 4320, Note_on_c, 0, 49, 95
3, 4320, Note_on_c, 0, 42, 95
3, 4800, Note_off_c, 0, 54, 80
3, 4800, Note_off_c, 0, 49, 80
3, 4800, Note_off_c, 0, 42, 80
3, 5760, Note_on_c, 0, 54, 95
3, 5760, Note_on_c, 0, 49, 95
3, 5760, Note_on_c, 0, 42, 95
3, 6240, Note_off_c, 0, 54, 80
3, 6240, Note_off_c, 0, 49, 80
3, 6240, Note_off_c, 0, 42, 80
3, 6240, Note_on_c, 0, 54, 95
3, 6240, Note_on_c, 0, 49, 95
3, 6240, Note_on_c, 0, 42, 95
3, 6720, Note_off_c, 0, 54, 80
3, 6720, Note_off_c, 0, 49, 80
3, 6720, Note_off_c, 0, 42, 80
3, 7680, Note_on_c, 0, 54, 95
3, 7680, Note_on_c, 0, 49, 95
3, 7680, Note_on_c, 0, 42, 95
3, 8160, Note_off_c, 0, 54, 80
3, 8160, Note_off_c, 0, 49, 80
3, 8160, Note_off_c, 0, 42, 80
3, 8160, Note_on_c, 0, 54, 95
3, 8160, Note_on_c, 0, 49, 95
3, 8160, Note_on_c, 0, 42, 95
3, 8640, Note_off_c, 0, 54, 80
3, 8640, Note_off_c, 0, 49, 80
3, 8640, Note_off_c, 0, 42, 80
3, 9600, Note_on_c, 0, 54, 95
3, 9600, Note_on_c, 0, 49, 95
3, 9600, Note_on_c, 0, 42, 95
3, 10080, Note_off_c, 0, 54, 80
3, 10080, Note_off_c, 0, 49, 80
3, 10080, Note_off_c, 0, 42, 80
3, 10080, Note_on_c, 0, 54, 95
3, 10080, Note_on_c, 0, 49, 95
3, 10080, Note_on_c, 0, 42, 95
3, 10560, Note_off_c, 0, 54, 80
3, 10560, Note_off_c, 0, 49, 80
3, 10560, Note_off_c, 0, 42, 80
3, 11520, Note_on_c, 0, 54, 95
3, 11520, Note_on_c, 0, 49, 95
3, 11520, Note_on_c, 0, 42, 95
3, 12000, Note_off_c, 0, 54, 80
3, 12000, Note_off_c, 0, 49, 80
3, 12000, Note_off_c, 0, 42, 80
3, 12000, Note_on_c, 0, 54, 95
3, 12000, Note_on_c, 0, 49, 95
3, 12000, Note_on_c, 0, 42, 95
3, 12480, Note_off_c, 0, 54, 80
3, 12480, Note_off_c, 0, 49, 80
3, 12480, Note_off_c, 0, 42, 80
3, 13440, Note_on_c, 0, 54, 95
3, 13440, Note_on_c, 0, 49, 95
3, 13440, Note_on_c, 0, 42, 95
3, 13920, Note_off_c, 0, 54, 80
3, 13920, Note_off_c, 0, 49, 80
3, 13920, Note_off_c, 0, 42, 80
3, 13920, Note_on_c, 0, 54, 95
3, 13920, Note_on_c, 0, 49, 95
3, 13920, Note_on_c, 0, 42, 95
3, 14400, Note_off_c, 0, 54, 80
3, 14400, Note_off_c, 0, 49, 80
3, 14400, Note_off_c, 0, 42, 80
3, 15360, Note_on_c, 0, 54, 95
3, 15360, Note_on_c, 0, 49, 95
3, 15360, Note_on_c, 0, 42, 95
3, 15600, Note_off_c, 0, 54, 80
3, 15600, Note_off_c, 0, 49, 80
3, 15600, Note_off_c, 0, 42, 80
3, 15600, Note_on_c, 0, 54, 95
3, 15600, Note_on_c, 0, 49, 95
3, 15600, Note_on_c, 0, 42, 95
3, 15840, Note_off_c, 0, 54, 80
3, 15840, Note_off_c, 0, 49, 80
3, 15840, Note_off_c, 0, 42, 80
3, 15840, Note_on_c, 0, 54, 95
3, 15840, Note_on_c, 0, 49, 95
3, 15840, Note_on_c, 0, 42, 95
3, 16080, Note_off_c, 0, 54, 80
3, 16080, Note_off_c, 0, 49, 80
3, 16080, Note_off_c, 0, 42, 80
3, 16080, Note_on_c, 0, 54, 95
3, 16080, Note_on_c, 0, 49, 95
3, 16080, Note_on_c, 0, 42, 95
3, 16320, Note_off_c, 0, 54, 80
3, 16320, Note_off_c, 0, 49, 80
3, 16320, Note_off_c, 0, 42, 80
3, 16320, Note_on_c, 0, 54, 95
3, 16320, Note_on_c, 0, 49, 95
3, 16320, Note_on_c, 0, 42, 95
3, 16560, Note_off_c, 0, 54, 80
3, 16560, Note_off_c, 0, 49, 80
3, 16560, Note_off_c, 0, 42, 80
3, 16560, Note_on_c, 0, 54, 95
3, 16560, Note_on_c, 0, 49, 95
3, 16560, Note_on_c, 0, 42, 95
3, 16800, Note_off_c, 0, 54, 80
3, 16800, Note_off_c, 0, 49, 80
3, 16800, Note_off_c, 0, 42, 80
3, 16800, Note_on_c, 0, 54, 95
3, 16800, Note_on_c, 0, 49, 95
3, 16800, Note_on_c, 0, 42, 95
3, 17040, Note_off_c, 0, 54, 80
3, 17040, Note_off_c, 0, 49, 80
3, 17040, Note_off_c, 0, 42, 80
3, 17040, Note_on_c, 0, 54, 95
3, 17040, Note_on_c, 0, 49, 95
3, 17040, Note_on_c, 0, 42, 95
3, 17280, Note_off_c, 0, 54, 80
3, 17280, Note_off_c, 0, 49, 80
3, 17280, Note_off_c, 0, 42, 80
3, 17280, Note_on_c, 0, 54, 95
3, 17280, Note_on_c, 0, 49, 95
3, 17280, Note_on_c, 0, 42, 95
3, 17520, Note_off_c, 0, 54, 80
3, 17520, Note_off_c, 0, 49, 80
3, 17520, Note_off_c, 0, 42, 80
3, 17520, Note_on_c, 0, 54, 95
3, 17520, Note_on_c, 0, 49, 95
3, 17520, Note_on_c, 0, 42, 95
3, 17760, Note_off_c, 0, 54, 80
3, 17760, Note_off_c, 0, 49, 80
3, 17760, Note_off_c, 0, 42, 80
3, 17760, Note_on_c, 0, 54, 95
3, 17760, Note_on_c, 0, 49, 95
3, 17760, Note_on_c, 0, 42, 95
3, 18000, Note_off_c, 0, 54, 80
3, 18000, Note_off_c, 0, 49, 80
3, 18000, Note_off_c, 0, 42, 80
3, 18000, Note_on_c, 0, 54, 95
3, 18000, Note_on_c, 0, 49, 95
3, 18000, Note_on_c, 0, 42, 95
3, 18240, Note_off_c, 0, 54, 80
3, 18240, Note_off_c, 0, 49, 80
3, 18240, Note_off_c, 0, 42, 80
3, 18240, Note_on_c, 0, 54, 95
3, 18240, Note_on_c, 0, 49, 95
3, 18240, Note_on_c, 0, 42, 95
3, 18480, Note_off_c, 0, 54, 80
3, 18480, Note_off_c, 0, 49, 80
3, 18480, Note_off_c, 0, 42, 80
3, 18480, Note_on_c, 0, 54, 95
3, 18480, Note_on_c, 0, 49, 95
3, 18480, Note_on_c, 0, 42, 95
3, 18720, Note_off_c, 0, 54, 80
3, 18720, Note_off_c, 0, 49, 80
3, 18720, Note_off_c, 0, 42, 80
3, 18720, Note_on_c, 0, 54, 95
3, 18720, Note_on_c, 0, 49, 95
3, 18720, Note_on_c, 0, 42, 95
3, 18960, Note_off_c, 0, 54, 80
3, 18960, Note_off_c, 0, 49, 80
3, 18960, Note_off_c, 0, 42, 80
3, 18960, Note_on_c, 0, 54, 95
3, 18960, Note_on_c, 0, 49, 95
3, 18960, Note_on_c, 0, 42, 95
3, 19200, Note_off_c, 0, 54, 80
3, 19200, Note_off_c, 0, 49, 80
3, 19200, Note_off_c, 0, 42, 80
3, 19200, Note_on_c, 0, 54, 95
3, 19200, Note_on_c, 0, 49, 95
3, 19200, Note_on_c, 0, 42, 95
3, 19440, Note_off_c, 0, 54, 80
3, 19440, Note_off_c, 0, 49, 80
3, 19440, Note_off_c, 0, 42, 80
3, 19440, Note_on_c, 0, 54, 95
3, 19440, Note_on_c, 0, 49, 95
3, 19440, Note_on_c, 0, 42, 95
3, 19680, Note_off_c, 0, 54, 80
3, 19680, Note_off_c, 0, 49, 80
3, 19680, Note_off_c, 0, 42, 80
3, 19680, Note_on_c, 0, 54, 95
3, 19680, Note_on_c, 0, 49, 95
3, 19680, Note_on_c, 0, 42, 95
3, 19920, Note_off_c, 0, 54, 80
3, 19920, Note_off_c, 0, 49, 80
3, 19920, Note_off_c, 0, 42, 80
3, 19920, Note_on_c, 0, 54, 95
3, 19920, Note_on_c, 0, 49, 95
3, 19920, Note_on_c, 0, 42, 95
3, 20160, Note_off_c, 0, 54, 80
3, 20160, Note_off_c, 0, 49, 80
3, 20160, Note_off_c, 0, 42, 80
3, 20160, Note_on_c, 0, 54, 95
3, 20160, Note_on_c, 0, 49, 95
3, 20160, Note_on_c, 0, 42, 95
3, 20400, Note_off_c, 0, 54, 80
3, 20400, Note_off_c, 0, 49, 80
3, 20400, Note_off_c, 0, 42, 80
3, 20400, Note_on_c, 0, 54, 95
3, 20400, Note_on_c, 0, 49, 95
3, 20400, Note_on_c, 0, 42, 95
3, 20640, Note_off_c, 0, 54, 80
3, 20640, Note_off_c, 0, 49, 80
3, 20640, Note_off_c, 0, 42, 80
3, 20640, Note_on_c, 0, 54, 95
3, 20640, Note_on_c, 0, 49, 95
3, 20640, Note_on_c, 0, 42, 95
3, 20880, Note_off_c, 0, 54, 80
3, 20880, Note_off_c, 0, 49, 80
3, 20880, Note_off_c, 0, 42, 80
3, 20880, Note_on_c, 0, 54, 95
3, 20880, Note_on_c, 0, 49, 95
3, 20880, Note_on_c, 0, 42, 95
3, 21120, Note_off_c, 0, 54, 80
3, 21120, Note_off_c, 0, 49, 80
3, 21120, Note_off_c, 0, 42, 80
3, 21120, Note_on_c, 0, 54, 95
3, 21120, Note_on_c, 0, 49, 95
3, 21120, Note_on_c, 0, 42, 95
3, 21360, Note_off_c, 0, 54, 80
3, 21360, Note_off_c, 0, 49, 80
3, 21360, Note_off_c, 0, 42, 80
3, 21360, Note_on_c, 0, 54, 95
3, 21360, Note_on_c, 0, 49, 95
3, 21360, Note_on_c, 0, 42, 95
3, 21600, Note_off_c, 0, 54, 80
3, 21600, Note_off_c, 0, 49, 80
3, 21600, Note_off_c, 0, 42, 80
3, 21600, Note_on_c, 0, 54, 95
3, 21600, Note_on_c, 0, 49, 95
3, 21600, Note_on_c, 0, 42, 95
3, 21840, Note_off_c, 0, 54, 80
3, 21840, Note_off_c, 0, 49, 80
3, 21840, Note_off_c, 0, 42, 80
3, 21840, Note_on_c, 0, 54, 95
3, 21840, Note_on_c, 0, 49, 95
3, 21840, Note_on_c, 0, 42, 95
3, 22080, Note_off_c, 0, 54, 80
3, 22080, Note_off_c, 0, 49, 80
3, 22080, Note_off_c, 0, 42, 80
3, 22080, Note_on_c, 0, 54, 95
3, 22080, Note_on_c, 0, 49, 95
3, 22080, Note_on_c, 0, 42, 95
3, 22320, Note_off_c, 0, 54, 80
3, 22320, Note_off_c, 0, 49, 80
3, 22320, Note_off_c, 0, 42, 80
3, 22320, Note_on_c, 0, 54, 95
3, 22320, Note_on_c, 0, 49, 95
3, 22320, Note_on_c, 0, 42, 95
3, 22560, Note_off_c, 0, 54, 80
3, 22560, Note_off_c, 0, 49, 80
3, 22560, Note_off_c, 0, 42, 80
3, 22560, Note_on_c, 0, 54, 95
3, 22560, Note_on_c, 0, 49, 95
3, 22560, Note_on_c, 0, 42, 95
3, 22800, Note_off_c, 0, 54, 80
3, 22800, Note_off_c, 0, 49, 80
3, 22800, Note_off_c, 0, 42, 80
3, 22800, Note_on_c, 0, 54, 95
3, 22800, Note_on_c, 0, 49, 95
3, 22800, Note_on_c, 0, 42, 95
3, 23040, Note_off_c, 0, 54, 80
3, 23040, Note_off_c, 0, 49, 80
3, 23040, Note_off_c, 0, 42, 80
3, 23040, Note_on_c, 0, 54, 95
3, 23040, Note_on_c, 0, 49, 95
3, 23040, Note_on_c, 0, 42, 95
3, 23280, Note_off_c, 0, 54, 80
3, 23280, Note_off_c, 0, 49, 80
3, 23280, Note_off_c, 0, 42, 80
3, 23280, Note_on_c, 0, 54, 95
3, 23280, Note_on_c, 0, 49, 95
3, 23280, Note_on_c, 0, 42, 95
3, 23520, Note_off_c, 0, 54, 80
3, 23520, Note_off_c, 0, 49, 80
3, 23520, Note_off_c, 0, 42, 80
3, 23520, Note_on_c, 0, 54, 95
3, 23520, Note_on_c, 0, 49, 95
3, 23520, Note_on_c, 0, 42, 95
3, 23760, Note_off_c, 0, 54, 80
3, 23760, Note_off_c, 0, 49, 80
3, 23760, Note_off_c, 0, 42, 80
3, 23760, Note_on_c, 0, 54, 95
3, 23760, Note_on_c, 0, 49, 95
3, 23760, Note_on_c, 0, 42, 95
3, 24000, Note_off_c, 0, 54, 80
3, 24000, Note_off_c, 0, 49, 80
3, 24000, Note_off_c, 0, 42, 80
3, 24000, Note_on_c, 0, 54, 95
3, 24000, Note_on_c, 0, 49, 95
3, 24000, Note_on_c, 0, 42, 95
3, 24240, Note_off_c, 0, 54, 80
3, 24240, Note_off_c, 0, 49, 80
3, 24240, Note_off_c, 0, 42, 80
3, 24240, Note_on_c, 0, 54, 95
3, 24240, Note_on_c, 0, 49, 95
3, 24240, Note_on_c, 0, 42, 95
3, 24480, Note_off_c, 0, 54, 80
3, 24480, Note_off_c, 0, 49, 80
3, 24480, Note_off_c, 0, 42, 80
3, 24480, Note_on_c, 0, 54, 95
3, 24480, Note_on_c, 0, 49, 95
3, 24480, Note_on_c, 0, 42, 95
3, 24720, Note_off_c, 0, 54, 80
3, 24720, Note_off_c, 0, 49, 80
3, 24720, Note_off_c, 0, 42, 80
3, 24720, Note_on_c, 0, 54, 95
3, 24720, Note_on_c, 0, 49, 95
3, 24720, Note_on_c, 0, 42, 95
3, 24960, Note_off_c, 0, 54, 80
3, 24960, Note_off_c, 0, 49, 80
3, 24960, Note_off_c, 0, 42, 80
3, 24960, Note_on_c, 0, 54, 95
3, 24960, Note_on_c, 0, 49, 95
3, 24960, Note_on_c, 0, 42, 95
3, 25200, Note_off_c, 0, 54, 80
3, 25200, Note_off_c, 0, 49, 80
3, 25200, Note_off_c, 0, 42, 80
3, 25200, Note_on_c, 0, 54, 95
3, 25200, Note_on_c, 0, 49, 95
3, 25200, Note_on_c, 0, 42, 95
3, 25440, Note_off_c, 0, 54, 80
3, 25440, Note_off_c, 0, 49, 80
3, 25440, Note_off_c, 0, 42, 80
3, 25440, Note_on_c, 0, 54, 95
3, 25440, Note_on_c, 0, 49, 95
3, 25440, Note_on_c, 0, 42, 95
3, 25680, Note_off_c, 0, 54, 80
3, 25680, Note_off_c, 0, 49, 80
3, 25680, Note_off_c, 0, 42, 80
3, 25680, Note_on_c, 0, 54, 95
3, 25680, Note_on_c, 0, 49, 95
3, 25680, Note_on_c, 0, 42, 95
3, 25920, Note_off_c, 0, 54, 80
3, 25920, Note_off_c, 0, 49, 80
3, 25920, Note_off_c, 0, 42, 80
3, 25920, Note_on_c, 0, 54, 95
3, 25920, Note_on_c, 0, 49, 95
3, 25920, Note_on_c, 0, 42, 95
3, 26160, Note_off_c, 0, 54, 80
3, 26160, Note_off_c, 0, 49, 80
3, 26160, Note_off_c, 0, 42, 80
3, 26160, Note_on_c, 0, 54, 95
3, 26160, Note_on_c, 0, 49, 95
3, 26160, Note_on_c, 0, 42, 95
3, 26400, Note_off_c, 0, 54, 80
3, 26400, Note_off_c, 0, 49, 80
3, 26400, Note_off_c, 0, 42, 80
3, 26400, Note_on_c, 0, 54, 95
3, 26400, Note_on_c, 0, 49, 95
3, 26400, Note_on_c, 0, 42, 95
3, 26640, Note_off_c, 0, 54, 80
3, 26640, Note_off_c, 0, 49, 80
3, 26640, Note_off_c, 0, 42, 80
3, 26640, Note_on_c, 0, 54, 95
3, 26640, Note_on_c, 0, 49, 95
3, 26640, Note_on_c, 0, 42, 95
3, 26880, Note_off_c, 0, 54, 80
3, 26880, Note_off_c, 0, 49, 80
3, 26880, Note_off_c, 0, 42, 80
3, 26880, Note_on_c, 0, 54, 95
3, 26880, Note_on_c, 0, 49, 95
3, 26880, Note_on_c, 0, 42, 95
3, 27120, Note_off_c, 0, 54, 80
3, 27120, Note_off_c, 0, 49, 80
3, 27120, Note_off_c, 0, 42, 80
3, 27120, Note_on_c, 0, 54, 95
3, 27120, Note_on_c, 0, 49, 95
3, 27120, Note_on_c, 0, 42, 95
3, 27360, Note_off_c, 0, 54, 80
3, 27360, Note_off_c, 0, 49, 80
3, 27360, Note_off_c, 0, 42, 80
3, 27360, Note_on_c, 0, 54, 95
3, 27360, Note_on_c, 0, 49, 95
3, 27360, Note_on_c, 0, 42, 95
3, 27600, Note_off_c, 0, 54, 80
3, 27600, Note_off_c, 0, 49, 80
3, 27600, Note_off_c, 0, 42, 80
3, 27600, Note_on_c, 0, 54, 95
3, 27600, Note_on_c, 0, 49, 95
3, 27600, Note_on_c, 0, 42, 95
3, 27840, Note_off_c, 0, 54, 80
3, 27840, Note_off_c, 0, 49, 80
3, 27840, Note_off_c, 0, 42, 80
3, 27840, Note_on_c, 0, 54, 95
3, 27840, Note_on_c, 0, 49, 95
3, 27840, Note_on_c, 0, 42, 95
3, 28080, Note_off_c, 0, 54, 80
3, 28080, Note_off_c, 0, 49, 80
3, 28080, Note_off_c, 0, 42, 80
3, 28080, Note_on_c, 0, 54, 95
3, 28080, Note_on_c, 0, 49, 95
3, 28080, Note_on_c, 0, 42, 95
3, 28320, Note_off_c, 0, 54, 80
3, 28320, Note_off_c, 0, 49, 80
3, 28320, Note_off_c, 0, 42, 80
3, 28320, Note_on_c, 0, 54, 95
3, 28320, Note_on_c, 0, 49, 95
3, 28320, Note_on_c, 0, 42, 95
3, 28560, Note_off_c, 0, 54, 80
3, 28560, Note_off_c, 0, 49, 80
3, 28560, Note_off_c, 0, 42, 80
3, 28560, Note_on_c, 0, 54, 95
3, 28560, Note_on_c, 0, 49, 95
3, 28560, Note_on_c, 0, 42, 95
3, 28800, Note_off_c, 0, 54, 80
3, 28800, Note_off_c, 0, 49, 80
3, 28800, Note_off_c, 0, 42, 80
3, 28800, Note_on_c, 0, 54, 95
3, 28800, Note_on_c, 0, 49, 95
3, 28800, Note_on_c, 0, 42, 95
3, 29040, Note_off_c, 0, 54, 80
3, 29040, Note_off_c, 0, 49, 80
3, 29040, Note_off_c, 0, 42, 80
3, 29040, Note_on_c, 0, 54, 95
3, 29040, Note_on_c, 0, 49, 95
3, 29040, Note_on_c, 0, 42, 95
3, 29280, Note_off_c, 0, 54, 80
3, 29280, Note_off_c, 0, 49, 80
3, 29280, Note_off_c, 0, 42, 80
3, 29280, Note_on_c, 0, 54, 95
3, 29280, Note_on_c, 0, 49, 95
3, 29280, Note_on_c, 0, 42, 95
3, 29520, Note_off_c, 0, 54, 80
3, 29520, Note_off_c, 0, 49, 80
3, 29520, Note_off_c, 0, 42, 80
3, 29520, Note_on_c, 0, 54, 95
3, 29520, Note_on_c, 0, 49, 95
3, 29520, Note_on_c, 0, 42, 95
3, 29760, Note_off_c, 0, 54, 80
3, 29760, Note_off_c, 0, 49, 80
3, 29760, Note_off_c, 0, 42, 80
3, 29760, Note_on_c, 0, 54, 95
3, 29760, Note_on_c, 0, 49, 95
3, 29760, Note_on_c, 0, 42, 95
3, 30000, Note_off_c, 0, 54, 80
3, 30000, Note_off_c, 0, 49, 80
3, 30000, Note_off_c, 0, 42, 80
3, 30000, Note_on_c, 0, 54, 95
3, 30000, Note_on_c, 0, 49, 95
3, 30000, Note_on_c, 0, 42, 95
3, 30240, Note_off_c, 0, 54, 80
3, 30240, Note_off_c, 0, 49, 80
3, 30240, Note_off_c, 0, 42, 80
3, 30240, Note_on_c, 0, 54, 95
3, 30240, Note_on_c, 0, 49, 95
3, 30240, Note_on_c, 0, 42, 95
3, 30480, Note_off_c, 0, 54, 80
3, 30480, Note_off_c, 0, 49, 80
3, 30480, Note_off_c, 0, 42, 80
3, 30480, Note_on_c, 0, 54, 95
3, 30480, Note_on_c, 0, 49, 95
3, 30480, Note_on_c, 0, 42, 95
3, 30720, Note_off_c, 0, 54, 80
3, 30720, Note_off_c, 0, 49, 80
3, 30720, Note_off_c, 0, 42, 80
3, 30720, Note_on_c, 0, 61, 95
3, 30720, Note_on_c, 0, 56, 95
3, 30720, Note_on_c, 0, 49, 95
3, 30960, Note_off_c, 0, 49, 80
3, 31200, Note_off_c, 0, 61, 80
3, 31200, Note_off_c, 0, 56, 80
3, 31200, Note_on_c, 0, 61, 95
3, 31200, Note_on_c, 0, 56, 95
3, 31200, Note_on_c, 0, 49, 95
3, 31440, Note_off_c, 0, 61, 80
3, 31440, Note_off_c, 0, 56, 80
3, 31440, Note_off_c, 0, 49, 80
3, 31440, Note_on_c, 0, 59, 95
3, 31440, Note_on_c, 0, 54, 95
3, 31440, Note_on_c, 0, 47, 95
3, 31680, Note_off_c, 0, 47, 80
3, 31920, Note_off_c, 0, 59, 80
3, 31920, Note_off_c, 0, 54, 80
3, 31920, Note_on_c, 0, 59, 95
3, 31920, Note_on_c, 0, 54, 95
3, 31920, Note_on_c, 0, 47, 95
3, 32160, Note_off_c, 0, 47, 80
3, 32400, Note_off_c, 0, 59, 80
3, 32400, Note_off_c, 0, 54, 80
3, 32400, Note_on_c, 0, 59, 95
3, 32400, Note_on_c, 0, 54, 95
3, 32400, Note_on_c, 0, 47, 95
3, 32640, Note_off_c, 0, 59, 80
3, 32640, Note_off_c, 0, 54, 80
3, 32640, Note_off_c, 0, 47, 80
3, 32640, Note_on_c, 0, 57, 95
3, 32640, Note_on_c, 0, 52, 95
3, 32640, Note_on_c, 0, 45, 95
3, 33120, Note_off_c, 0, 57, 80
3, 33120, Note_off_c, 0, 52, 80
3, 33120, Note_off_c, 0, 45, 80
3, 33120, Note_on_c, 0, 57, 95
3, 33120, Note_on_c, 0, 52, 95
3, 33120, Note_on_c, 0, 45, 95
3, 33600, Note_off_c, 0, 57, 80
3, 33600, Note_off_c, 0, 52, 80
3, 33600, Note_off_c, 0, 45, 80
3, 33600, Note_on_c, 0, 54, 95
3, 33600, Note_on_c, 0, 49, 95
3, 33600, Note_on_c, 0, 42, 95
3, 34080, Note_off_c, 0, 54, 80
3, 34080, Note_off_c, 0, 49, 80
3, 34080, Note_off_c, 0, 42, 80
3, 34080, Note_on_c, 0, 54, 95
3, 34080, Note_on_c, 0, 49, 95
3, 34080, Note_on_c, 0, 42, 95
3, 34560, Note_off_c, 0, 54, 80
3, 34560, Note_off_c, 0, 49, 80
3, 34560, Note_off_c, 0, 42, 80
3, 34560, Note_on_c, 0, 61, 95
3, 34560, Note_on_c, 0, 56, 95
3, 34560, Note_on_c, 0, 49, 95
3, 35040, Note_off_c, 0, 61, 80
3, 35040, Note_off_c, 0, 56, 80
3, 35040, Note_off_c, 0, 49, 80
3, 35040, Note_on_c, 0, 61, 95
3, 35040, Note_on_c, 0, 56, 95
3, 35040, Note_on_c, 0, 49, 95
3, 35280, Note_off_c, 0, 61, 80
3, 35280, Note_off_c, 0, 56, 80
3, 35280, Note_off_c, 0, 49, 80
3, 35280, Note_on_c, 0, 59, 95
3, 35280, Note_on_c, 0, 54, 95
3, 35280, Note_on_c, 0, 47, 95
3, 35760, Note_off_c, 0, 59, 80
3, 35760, Note_off_c, 0, 54, 80
3, 35760, Note_off_c, 0, 47, 80
3, 35760, Note_on_c, 0, 59, 95
3, 35760, Note_on_c, 0, 54, 95
3, 35760, Note_on_c, 0, 47, 95
3, 36000, Note_off_c, 0, 59, 80
3, 36240, Note_off_c, 0, 54, 80
3, 36240, Note_off_c, 0, 47, 80
3, 36240, Note_on_c, 0, 59, 95
3, 36240, Note_on_c, 0, 54, 95
3, 36240, Note_on_c, 0, 47, 95
3, 36480, Note_off_c, 0, 59, 80
3, 36480, Note_off_c, 0, 54, 80
3, 36480, Note_off_c, 0, 47, 80
3, 36480, Note_on_c, 0, 57, 95
3, 36480, Note_on_c, 0, 52, 95
3, 36480, Note_on_c, 0, 45, 95
3, 36960, Note_off_c, 0, 57, 80
3, 36960, Note_off_c, 0, 52, 80
3, 36960, Note_off_c, 0, 45, 80
3, 36960, Note_on_c, 0, 57, 95
3, 36960, Note_on_c, 0, 52, 95
3, 36960, Note_on_c, 0, 45, 95
3, 37440, Note_off_c, 0, 57, 80
3, 37440, Note_off_c, 0, 52, 80
3, 37440, Note_off_c, 0, 45, 80
3, 37440, Note_on_c, 0, 54, 95
3, 37440, Note_on_c, 0, 49, 95
3, 37440, Note_on_c, 0, 42, 95
3, 37920, Note_off_c, 0, 54, 80
3, 37920, Note_off_c, 0, 49, 80
3, 37920, Note_off_c, 0, 42, 80
3, 37920, Note_on_c, 0, 54, 95
3, 37920, Note_on_c, 0, 49, 95
3, 37920, Note_on_c, 0, 42, 95
3, 38400, Note_off_c, 0, 54, 80
3, 38400, Note_off_c, 0, 49, 80
3, 38400, Note_off_c, 0, 42, 80
3, 38400, Note_on_c, 0, 61, 95
3, 38400, Note_on_c, 0, 56, 95
3, 38400, Note_on_c, 0, 49, 95
3, 38880, Note_off_c, 0, 61, 80
3, 38880, Note_off_c, 0, 56, 80
3, 38880, Note_off_c, 0, 49, 80
3, 38880, Note_on_c, 0, 61, 95
3, 38880, Note_on_c, 0, 56, 95
3, 38880, Note_on_c, 0, 49, 95
3, 39120, Note_off_c, 0, 61, 80
3, 39120, Note_off_c, 0, 56, 80
3, 39120, Note_off_c, 0, 49, 80
3, 39120, Note_on_c, 0, 59, 95
3, 39120, Note_on_c, 0, 54, 95
3, 39120, Note_on_c, 0, 47, 95
3, 39600, Note_off_c, 0, 59, 80
3, 39600, Note_off_c, 0, 54, 80
3, 39600, Note_off_c, 0, 47, 80
3, 39600, Note_on_c, 0, 59, 95
3, 39600, Note_on_c, 0, 54, 95
3, 39600, Note_on_c, 0, 47, 95
3, 39840, Note_off_c, 0, 59, 80
3, 40080, Note_off_c, 0, 54, 80
3, 40080, Note_off_c, 0, 47, 80
3, 40080, Note_on_c, 0, 59, 95
3, 40080, Note_on_c, 0, 54, 95
3, 40080, Note_on_c, 0, 47, 95
3, 40320, Note_off_c, 0, 59, 80
3, 40320, Note_off_c, 0, 54, 80
3, 40320, Note_off_c, 0, 47, 80
3, 40320, Note_on_c, 0, 57, 95
3, 40320, Note_on_c, 0, 52, 95
3, 40320, Note_on_c, 0, 45, 95
3, 40800, Note_off_c, 0, 57, 80
3, 40800, Note_off_c, 0, 52, 80
3, 40800, Note_off_c, 0, 45, 80
3, 40800, Note_on_c, 0, 57, 95
3, 40800, Note_on_c, 0, 52, 95
3, 40800, Note_on_c, 0, 45, 95
3, 41280, Note_off_c, 0, 57, 80
3, 41280, Note_off_c, 0, 52, 80
3, 41280, Note_off_c, 0, 45, 80
3, 41280, Note_on_c, 0, 54, 95
3, 41280, Note_on_c, 0, 49, 95
3, 41280, Note_on_c, 0, 42, 95
3, 41760, Note_off_c, 0, 54, 80
3, 41760, Note_off_c, 0, 49, 80
3, 41760, Note_off_c, 0, 42, 80
3, 41760, Note_on_c, 0, 54, 95
3, 41760, Note_on_c, 0, 49, 95
3, 41760, Note_on_c, 0, 42, 95
3, 42240, Note_off_c, 0, 54, 80
3, 42240, Note_off_c, 0, 49, 80
3, 42240, Note_off_c, 0, 42, 80
3, 42240, Note_on_c, 0, 61, 95
3, 42240, Note_on_c, 0, 56, 95
3, 42240, Note_on_c, 0, 49, 95
3, 42480, Note_off_c, 0, 61, 80
3, 42720, Note_off_c, 0, 56, 80
3, 42720, Note_off_c, 0, 49, 80
3, 42720, Note_on_c, 0, 61, 95
3, 42720, Note_on_c, 0, 56, 95
3, 42720, Note_on_c, 0, 49, 95
3, 42960, Note_off_c, 0, 61, 80
3, 42960, Note_off_c, 0, 56, 80
3, 42960, Note_off_c, 0, 49, 80
3, 42960, Note_on_c, 0, 59, 95
3, 42960, Note_on_c, 0, 54, 95
3, 42960, Note_on_c, 0, 47, 95
3, 43440, Note_off_c, 0, 59, 80
3, 43440, Note_off_c, 0, 54, 80
3, 43440, Note_off_c, 0, 47, 80
3, 43440, Note_on_c, 0, 59, 95
3, 43440, Note_on_c, 0, 54, 95
3, 43440, Note_on_c, 0, 47, 95
3, 43680, Note_off_c, 0, 59, 80
3, 43920, Note_off_c, 0, 54, 80
3, 43920, Note_off_c, 0, 47, 80
3, 43920, Note_on_c, 0, 59, 95
3, 43920, Note_on_c, 0, 54, 95
3, 43920, Note_on_c, 0, 47, 95
3, 44160, Note_off_c, 0, 59, 80
3, 44160, Note_off_c, 0, 54, 80
3, 44160, Note_off_c, 0, 47, 80
3, 44160, Note_on_c, 0, 57, 95
3, 44160, Note_on_c, 0, 52, 95
3, 44160, Note_on_c, 0, 45, 95
3, 44640, Note_off_c, 0, 57, 80
3, 44640, Note_off_c, 0, 52, 80
3, 44640, Note_off_c, 0, 45, 80
3, 44640, Note_on_c, 0, 57, 95
3, 44640, Note_on_c, 0, 52, 95
3, 44640, Note_on_c, 0, 45, 95
3, 45120, Note_off_c, 0, 57, 80
3, 45120, Note_off_c, 0, 52, 80
3, 45120, Note_off_c, 0, 45, 80
3, 45120, Note_on_c, 0, 54, 95
3, 45120, Note_on_c, 0, 49, 95
3, 45120, Note_on_c, 0, 42, 95
3, 45600, Note_off_c, 0, 54, 80
3, 45600, Note_off_c, 0, 49, 80
3, 45600, Note_off_c, 0, 42, 80
3, 46080, Note_on_c, 0, 61, 95
3, 46080, Note_on_c, 0, 56, 95
3, 46080, Note_on_c, 0, 49, 95
3, 46320, Note_off_c, 0, 49, 80
3, 46560, Note_off_c, 0, 61, 80
3, 46560, Note_off_c, 0, 56, 80
3, 46560, Note_on_c, 0, 61, 95
3, 46560, Note_on_c, 0, 56, 95
3, 46560, Note_on_c, 0, 49, 95
3, 46800, Note_off_c, 0, 61, 80
3, 46800, Note_off_c, 0, 56, 80
3, 46800, Note_off_c, 0, 49, 80
3, 46800, Note_on_c, 0, 59, 95
3, 46800, Note_on_c, 0, 54, 95
3, 46800, Note_on_c, 0, 47, 95
3, 47040, Note_off_c, 0, 47, 80
3, 47280, Note_off_c, 0, 59, 80
3, 47280, Note_off_c, 0, 54, 80
3, 47280, Note_on_c, 0, 59, 95
3, 47280, Note_on_c, 0, 54, 95
3, 47280, Note_on_c, 0, 47, 95
3, 47520, Note_off_c, 0, 47, 80
3, 47760, Note_off_c, 0, 59, 80
3, 47760, Note_off_c, 0, 54, 80
3, 47760, Note_on_c, 0, 59, 95
3, 47760, Note_on_c, 0, 54, 95
3, 47760, Note_on_c, 0, 47, 95
3, 48000, Note_off_c, 0, 59, 80
3, 48000, Note_off_c, 0, 54, 80
3, 48000, Note_off_c, 0, 47, 80
3, 48000, Note_on_c, 0, 57, 95
3, 48000, Note_on_c, 0, 52, 95
3, 48000, Note_on_c, 0, 45, 95
3, 48480, Note_off_c, 0, 57, 80
3, 48480, Note_off_c, 0, 52, 80
3, 48480, Note_off_c, 0, 45, 80
3, 48480, Note_on_c, 0, 57, 95
3, 48480, Note_on_c, 0, 52, 95
3, 48480, Note_on_c, 0, 45, 95
3, 48960, Note_off_c, 0, 57, 80
3, 48960, Note_off_c, 0, 52, 80
3, 48960, Note_off_c, 0, 45, 80
3, 48960, Note_on_c, 0, 54, 95
3, 48960, Note_on_c, 0, 49, 95
3, 48960, Note_on_c, 0, 42, 95
3, 49440, Note_off_c, 0, 54, 80
3, 49440, Note_off_c, 0, 49, 80
3, 49440, Note_off_c, 0, 42, 80
3, 49440, Note_on_c, 0, 54, 95
3, 49440, Note_on_c, 0, 49, 95
3, 49440, Note_on_c, 0, 42, 95
3, 49920, Note_off_c, 0, 54, 80
3, 49920, Note_off_c, 0, 49, 80
3, 49920, Note_off_c, 0, 42, 80
3, 49920, Note_on_c, 0, 61, 95
3, 49920, Note_on_c, 0, 56, 95
3, 49920, Note_on_c, 0, 49, 95
3, 50400, Note_off_c, 0, 61, 80
3, 50400, Note_off_c, 0, 56, 80
3, 50400, Note_off_c, 0, 49, 80
3, 50400, Note_on_c, 0, 61, 95
3, 50400, Note_on_c, 0, 56, 95
3, 50400, Note_on_c, 0, 49, 95
3, 50640, Note_off_c, 0, 61, 80
3, 50640, Note_off_c, 0, 56, 80
3, 50640, Note_off_c, 0, 49, 80
3, 50640, Note_on_c, 0, 59, 95
3, 50640, Note_on_c, 0, 54, 95
3, 50640, Note_on_c, 0, 47, 95
3, 51120, Note_off_c, 0, 59, 80
3, 51120, Note_off_c, 0, 54, 80
3, 51120, Note_off_c, 0, 47, 80
3, 51120, Note_on_c, 0, 59, 95
3, 51120, Note_on_c, 0, 54, 95
3, 51120, Note_on_c, 0, 47, 95
3, 51360, Note_off_c, 0, 59, 80
3, 51600, Note_off_c, 0, 54, 80
3, 51600, Note_off_c, 0, 47, 80
3, 51600, Note_on_c, 0, 59, 95
3, 51600, Note_on_c, 0, 54, 95
3, 51600, Note_on_c, 0, 47, 95
3, 51840, Note_off_c, 0, 59, 80
3, 51840, Note_off_c, 0, 54, 80
3, 51840, Note_off_c, 0, 47, 80
3, 51840, Note_on_c, 0, 57, 95
3, 51840, Note_on_c, 0, 52, 95
3, 51840, Note_on_c, 0, 45, 95
3, 52320, Note_off_c, 0, 57, 80
3, 52320, Note_off_c, 0, 52, 80
3, 52320, Note_off_c, 0, 45, 80
3, 52320, Note_on_c, 0, 57, 95
3, 52320, Note_on_c, 0, 52, 95
3, 52320, Note_on_c, 0, 45, 95
3, 52800, Note_off_c, 0, 57, 80
3, 52800, Note_off_c, 0, 52, 80
3, 52800, Note_off_c, 0, 45, 80
3, 52800, Note_on_c, 0, 54, 95
3, 52800, Note_on_c, 0, 49, 95
3, 52800, Note_on_c, 0, 42, 95
3, 53280, Note_off_c, 0, 54, 80
3, 53280, Note_off_c, 0, 49, 80
3, 53280, Note_off_c, 0, 42, 80
3, 53280, Note_on_c, 0, 54, 95
3, 53280, Note_on_c, 0, 49, 95
3, 53280, Note_on_c, 0, 42, 95
3, 53760, Note_off_c, 0, 54, 80
3, 53760, Note_off_c, 0, 49, 80
3, 53760, Note_off_c, 0, 42, 80
3, 53760, Note_on_c, 0, 61, 95
3, 53760, Note_on_c, 0, 56, 95
3, 53760, Note_on_c, 0, 49, 95
3, 54240, Note_off_c, 0, 61, 80
3, 54240, Note_off_c, 0, 56, 80
3, 54240, Note_off_c, 0, 49, 80
3, 54240, Note_on_c, 0, 61, 95
3, 54240, Note_on_c, 0, 56, 95
3, 54240, Note_on_c, 0, 49, 95
3, 54480, Note_off_c, 0, 61, 80
3, 54480, Note_off_c, 0, 56, 80
3, 54480, Note_off_c, 0, 49, 80
3, 54480, Note_on_c, 0, 59, 95
3, 54480, Note_on_c, 0, 54, 95
3, 54480, Note_on_c, 0, 47, 95
3, 54960, Note_off_c, 0, 59, 80
3, 54960, Note_off_c, 0, 54, 80
3, 54960, Note_off_c, 0, 47, 80
3, 54960, Note_on_c, 0, 59, 95
3, 54960, Note_on_c, 0, 54, 95
3, 54960, Note_on_c, 0, 47, 95
3, 55200, Note_off_c, 0, 59, 80
3, 55440, Note_off_c, 0, 54, 80
3, 55440, Note_off_c, 0, 47, 80
3, 55440, Note_on_c, 0, 59, 95
3, 55440, Note_on_c, 0, 54, 95
3, 55440, Note_on_c, 0, 47, 95
3, 55680, Note_off_c, 0, 59, 80
3, 55680, Note_off_c, 0, 54, 80
3, 55680, Note_off_c, 0, 47, 80
3, 55680, Note_on_c, 0, 57, 95
3, 55680, Note_on_c, 0, 52, 95
3, 55680, Note_on_c, 0, 45, 95
3, 56160, Note_off_c, 0, 57, 80
3, 56160, Note_off_c, 0, 52, 80
3, 56160, Note_off_c, 0, 45, 80
3, 56160, Note_on_c, 0, 57, 95
3, 56160, Note_on_c, 0, 52, 95
3, 56160, Note_on_c, 0, 45, 95
3, 56640, Note_off_c, 0, 57, 80
3, 56640, Note_off_c, 0, 52, 80
3, 56640, Note_off_c, 0, 45, 80
3, 56640, Note_on_c, 0, 54, 95
3, 56640, Note_on_c, 0, 49, 95
3, 56640, Note_on_c, 0, 42, 95
3, 57120, Note_off_c, 0, 54, 80
3, 57120, Note_off_c, 0, 49, 80
3, 57120, Note_off_c, 0, 42, 80
3, 57120, Note_on_c, 0, 54, 95
3, 57120, Note_on_c, 0, 49, 95
3, 57120, Note_on_c, 0, 42, 95
3, 57600, Note_off_c, 0, 54, 80
3, 57600, Note_off_c, 0, 49, 80
3, 57600, Note_off_c, 0, 42, 80
3, 57600, Note_on_c, 0, 61, 95
3, 57600, Note_on_c, 0, 56, 95
3, 57600, Note_on_c, 0, 49, 95
3, 57840, Note_off_c, 0, 61, 80
3, 58080, Note_off_c, 0, 56, 80
3, 58080, Note_off_c, 0, 49, 80
3, 58080, Note_on_c, 0, 61, 95
3, 58080, Note_on_c, 0, 56, 95
3, 58080, Note_on_c, 0, 49, 95
3, 58320, Note_off_c, 0, 61, 80
3, 58320, Note_off_c, 0, 56, 80
3, 58320, Note_off_c, 0, 49, 80
3, 58320, Note_on_c, 0, 59, 95
3, 58320, Note_on_c, 0, 54, 95
3, 58320, Note_on_c, 0, 47, 95
3, 58800, Note_off_c, 0, 59, 80
3, 58800, Note_off_c, 0, 54, 80
3, 58800, Note_off_c, 0, 47, 80
3, 58800, Note_on_c, 0, 59, 95
3, 58800, Note_on_c, 0, 54, 95
3, 58800, Note_on_c, 0, 47, 95
3, 59040, Note_off_c, 0, 59, 80
3, 59280, Note_off_c, 0, 54, 80
3, 59280, Note_off_c, 0, 47, 80
3, 59280, Note_on_c, 0, 59, 95
3, 59280, Note_on_c, 0, 54, 95
3, 59280, Note_on_c, 0, 47, 95
3, 59520, Note_off_c, 0, 59, 80
3, 59520, Note_off_c, 0, 54, 80
3, 59520, Note_off_c, 0, 47, 80
3, 59520, Note_on_c, 0, 57, 95
3, 59520, Note_on_c, 0, 52, 95
3, 59520, Note_on_c, 0, 45, 95
3, 60000, Note_off_c, 0, 57, 80
3, 60000, Note_off_c, 0, 52, 80
3, 60000, Note_off_c, 0, 45, 80
3, 60000, Note_on_c, 0, 57, 95
3, 60000, Note_on_c, 0, 52, 95
3, 60000, Note_on_c, 0, 45, 95
3, 60480, Note_off_c, 0, 57, 80
3, 60480, Note_off_c, 0, 52, 80
3, 60480, Note_off_c, 0, 45, 80
3, 60480, Note_on_c, 0, 54, 95
3, 60480, Note_on_c, 0, 49, 95
3, 60480, Note_on_c, 0, 42, 95
3, 60960, Note_off_c, 0, 54, 80
3, 60960, Note_off_c, 0, 49, 80
3, 60960, Note_off_c, 0, 42, 80
3, 61440, Note_on_c, 0, 61, 95
3, 61440, Note_on_c, 0, 56, 95
3, 61440, Note_on_c, 0, 49, 95
3, 61680, Note_off_c, 0, 49, 80
3, 61920, Note_off_c, 0, 61, 80
3, 61920, Note_off_c, 0, 56, 80
3, 61920, Note_on_c, 0, 61, 95
3, 61920, Note_on_c, 0, 56, 95
3, 61920, Note_on_c, 0, 49, 95
3, 62160, Note_off_c, 0, 61, 80
3, 62160, Note_off_c, 0, 56, 80
3, 62160, Note_off_c, 0, 49, 80
3, 62160, Note_on_c, 0, 59, 95
3, 62160, Note_on_c, 0, 54, 95
3, 62160, Note_on_c, 0, 47, 95
3, 62400, Note_off_c, 0, 47, 80
3, 62640, Note_off_c, 0, 59, 80
3, 62640, Note_off_c, 0, 54, 80
3, 62640, Note_on_c, 0, 59, 95
3, 62640, Note_on_c, 0, 54, 95
3, 62640, Note_on_c, 0, 47, 95
3, 62880, Note_off_c, 0, 47, 80
3, 63120, Note_off_c, 0, 59, 80
3, 63120, Note_off_c, 0, 54, 80
3, 63120, Note_on_c, 0, 59, 95
3, 63120, Note_on_c, 0, 54, 95
3, 63120, Note_on_c, 0, 47, 95
3, 63360, Note_off_c, 0, 59, 80
3, 63360, Note_off_c, 0, 54, 80
3, 63360, Note_off_c, 0, 47, 80
3, 63360, Note_on_c, 0, 57, 95
3, 63360, Note_on_c, 0, 52, 95
3, 63360, Note_on_c, 0, 45, 95
3, 63840, Note_off_c, 0, 57, 80
3, 63840, Note_off_c, 0, 52, 80
3, 63840, Note_off_c, 0, 45, 80
3, 63840, Note_on_c, 0, 57, 95
3, 63840, Note_on_c, 0, 52, 95
3, 63840, Note_on_c, 0, 45, 95
3, 64320, Note_off_c, 0, 57, 80
3, 64320, Note_off_c, 0, 52, 80
3, 64320, Note_off_c, 0, 45, 80
3, 64320, Note_on_c, 0, 54, 95
3, 64320, Note_on_c, 0, 49, 95
3, 64320, Note_on_c, 0, 42, 95
3, 64800, Note_off_c, 0, 54, 80
3, 64800, Note_off_c, 0, 49, 80
3, 64800, Note_off_c, 0, 42, 80
3, 64800, Note_on_c, 0, 54, 95
3, 64800, Note_on_c, 0, 49, 95
3, 64800, Note_on_c, 0, 42, 95
3, 65280, Note_off_c, 0, 54, 80
3, 65280, Note_off_c, 0, 49, 80
3, 65280, Note_off_c, 0, 42, 80
3, 65280, Note_on_c, 0, 61, 95
3, 65280, Note_on_c, 0, 56, 95
3, 65280, Note_on_c, 0, 49, 95
3, 65760, Note_off_c, 0, 61, 80
3, 65760, Note_off_c, 0, 56, 80
3, 65760, Note_off_c, 0, 49, 80
3, 65760, Note_on_c, 0, 61, 95
3, 65760, Note_on_c, 0, 56, 95
3, 65760, Note_on_c, 0, 49, 95
3, 66000, Note_off_c, 0, 61, 80
3, 66000, Note_off_c, 0, 56, 80
3, 66000, Note_off_c, 0, 49, 80
3, 66000, Note_on_c, 0, 59, 95
3, 66000, Note_on_c, 0, 54, 95
3, 66000, Note_on_c, 0, 47, 95
3, 66480, Note_off_c, 0, 59, 80
3, 66480, Note_off_c, 0, 54, 80
3, 66480, Note_off_c, 0, 47, 80
3, 66480, Note_on_c, 0, 59, 95
3, 66480, Note_on_c, 0, 54, 95
3, 66480, Note_on_c, 0, 47, 95
3, 66720, Note_off_c, 0, 59, 80
3, 66960, Note_off_c, 0, 54, 80
3, 66960, Note_off_c, 0, 47, 80
3, 66960, Note_on_c, 0, 59, 95
3, 66960, Note_on_c, 0, 54, 95
3, 66960, Note_on_c, 0, 47, 95
3, 67200, Note_off_c, 0, 59, 80
3, 67200, Note_off_c, 0, 54, 80
3, 67200, Note_off_c, 0, 47, 80
3, 67200, Note_on_c, 0, 57, 95
3, 67200, Note_on_c, 0, 52, 95
3, 67200, Note_on_c, 0, 45, 95
3, 67680, Note_off_c, 0, 57, 80
3, 67680, Note_off_c, 0, 52, 80
3, 67680, Note_off_c, 0, 45, 80
3, 67680, Note_on_c, 0, 57, 95
3, 67680, Note_on_c, 0, 52, 95
3, 67680, Note_on_c, 0, 45, 95
3, 68160, Note_off_c, 0, 57, 80
3, 68160, Note_off_c, 0, 52, 80
3, 68160, Note_off_c, 0, 45, 80
3, 68160, Note_on_c, 0, 54, 95
3, 68160, Note_on_c, 0, 49, 95
3, 68160, Note_on_c, 0, 42, 95
3, 68640, Note_off_c, 0, 54, 80
3, 68640, Note_off_c, 0, 49, 80
3, 68640, Note_off_c, 0, 42, 80
3, 68640, Note_on_c, 0, 54, 95
3, 68640, Note_on_c, 0, 49, 95
3, 68640, Note_on_c, 0, 42, 95
3, 69120, Note_off_c, 0, 54, 80
3, 69120, Note_off_c, 0, 49, 80
3, 69120, Note_off_c, 0, 42, 80
3, 69120, Note_on_c, 0, 61, 95
3, 69120, Note_on_c, 0, 56, 95
3, 69120, Note_on_c, 0, 49, 95
3, 69600, Note_off_c, 0, 61, 80
3, 69600, Note_off_c, 0, 56, 80
3, 69600, Note_off_c, 0, 49, 80
3, 69600, Note_on_c, 0, 61, 95
3, 69600, Note_on_c, 0, 56, 95
3, 69600, Note_on_c, 0, 49, 95
3, 69840, Note_off_c, 0, 61, 80
3, 69840, Note_off_c, 0, 56, 80
3, 69840, Note_off_c, 0, 49, 80
3, 69840, Note_on_c, 0, 59, 95
3, 69840, Note_on_c, 0, 54, 95
3, 69840, Note_on_c, 0, 47, 95
3, 70320, Note_off_c, 0, 59, 80
3, 70320, Note_off_c, 0, 54, 80
3, 70320, Note_off_c, 0, 47, 80
3, 70320, Note_on_c, 0, 59, 95
3, 70320, Note_on_c, 0, 54, 95
3, 70320, Note_on_c, 0, 47, 95
3, 70560, Note_off_c, 0, 59, 80
3, 70800, Note_off_c, 0, 54, 80
3, 70800, Note_off_c, 0, 47, 80
3, 70800, Note_on_c, 0, 59, 95
3, 70800, Note_on_c, 0, 54, 95
3, 70800, Note_on_c, 0, 47, 95
3, 71040, Note_off_c, 0, 59, 80
3, 71040, Note_off_c, 0, 54, 80
3, 71040, Note_off_c, 0, 47, 80
3, 71040, Note_on_c, 0, 57, 95
3, 71040, Note_on_c, 0, 52, 95
3, 71040, Note_on_c, 0, 45, 95
3, 71520, Note_off_c, 0, 57, 80
3, 71520, Note_off_c, 0, 52, 80
3, 71520, Note_off_c, 0, 45, 80
3, 71520, Note_on_c, 0, 57, 95
3, 71520, Note_on_c, 0, 52, 95
3, 71520, Note_on_c, 0, 45, 95
3, 72000, Note_off_c, 0, 57, 80
3, 72000, Note_off_c, 0, 52, 80
3, 72000, Note_off_c, 0, 45, 80
3, 72000, Note_on_c, 0, 54, 95
3, 72000, Note_on_c, 0, 49, 95
3, 72000, Note_on_c, 0, 42, 95
3, 72480, Note_off_c, 0, 54, 80
3, 72480, Note_off_c, 0, 49, 80
3, 72480, Note_off_c, 0, 42, 80
3, 72480, Note_on_c, 0, 54, 95
3, 72480, Note_on_c, 0, 49, 95
3, 72480, Note_on_c, 0, 42, 95
3, 72960, Note_off_c, 0, 54, 80
3, 72960, Note_off_c, 0, 49, 80
3, 72960, Note_off_c, 0, 42, 80
3, 72960, Note_on_c, 0, 61, 95
3, 72960, Note_on_c, 0, 56, 95
3, 72960, Note_on_c, 0, 49, 95
3, 73200, Note_off_c, 0, 61, 80
3, 73440, Note_off_c, 0, 56, 80
3, 73440, Note_off_c, 0, 49, 80
3, 73440, Note_on_c, 0, 61, 95
3, 73440, Note_on_c, 0, 56, 95
3, 73440, Note_on_c, 0, 49, 95
3, 73680, Note_off_c, 0, 61, 80
3, 73680, Note_off_c, 0, 56, 80
3, 73680, Note_off_c, 0, 49, 80
3, 73680, Note_on_c, 0, 59, 95
3, 73680, Note_on_c, 0, 54, 95
3, 73680, Note_on_c, 0, 47, 95
3, 74160, Note_off_c, 0, 59, 80
3, 74160, Note_off_c, 0, 54, 80
3, 74160, Note_off_c, 0, 47, 80
3, 74160, Note_on_c, 0, 59, 95
3, 74160, Note_on_c, 0, 54, 95
3, 74160, Note_on_c, 0, 47, 95
3, 74400, Note_off_c, 0, 59, 80
3, 74640, Note_off_c, 0, 54, 80
3, 74640, Note_off_c, 0, 47, 80
3, 74640, Note_on_c, 0, 59, 95
3, 74640, Note_on_c, 0, 54, 95
3, 74640, Note_on_c, 0, 47, 95
3, 74880, Note_off_c, 0, 59, 80
3, 74880, Note_off_c, 0, 54, 80
3, 74880, Note_off_c, 0, 47, 80
3, 74880, Note_on_c, 0, 57, 95
3, 74880, Note_on_c, 0, 52, 95
3, 74880, Note_on_c, 0, 45, 95
3, 75360, Note_off_c, 0, 57, 80
3, 75360, Note_off_c, 0, 52, 80
3, 75360, Note_off_c, 0, 45, 80
3, 75360, Note_on_c, 0, 57, 95
3, 75360, Note_on_c, 0, 52, 95
3, 75360, Note_on_c, 0, 45, 95
3, 75840, Note_off_c, 0, 57, 80
3, 75840, Note_off_c, 0, 52, 80
3, 75840, Note_off_c, 0, 45, 80
3, 75840, Note_on_c, 0, 54, 95
3, 75840, Note_on_c, 0, 49, 95
3, 75840, Note_on_c, 0, 42, 95
3, 76320, Note_off_c, 0, 54, 80
3, 76320, Note_off_c, 0, 49, 80
3, 76320, Note_off_c, 0, 42, 80
3, 76800, Note_on_c, 0, 54, 95
3, 76800, Note_on_c, 0, 49, 95
3, 76800, Note_on_c, 0, 42, 95
3, 77280, Note_off_c, 0, 54, 80
3, 77280, Note_off_c, 0, 49, 80
3, 77280, Note_off_c, 0, 42, 80
3, 77280, Note_on_c, 0, 54, 95
3, 77280, Note_on_c, 0, 49, 95
3, 77280, Note_on_c, 0, 42, 95
3, 77760, Note_off_c, 0, 54, 80
3, 77760, Note_off_c, 0, 49, 80
3, 77760, Note_off_c, 0, 42, 80
3, 77760, Note_on_c, 0, 54, 95
3, 77760, Note_on_c, 0, 49, 95
3, 77760, Note_on_c, 0, 42, 95
3, 78240, Note_off_c, 0, 54, 80
3, 78240, Note_off_c, 0, 49, 80
3, 78240, Note_off_c, 0, 42, 80
3, 78240, Note_on_c, 0, 54, 95
3, 78240, Note_on_c, 0, 49, 95
3, 78240, Note_on_c, 0, 42, 95
3, 78720, Note_off_c, 0, 54, 80
3, 78720, Note_off_c, 0, 49, 80
3, 78720, Note_off_c, 0, 42, 80
3, 78720, Note_on_c, 0, 54, 95
3, 78720, Note_on_c, 0, 49, 95
3, 78720, Note_on_c, 0, 42, 95
3, 79200, Note_off_c, 0, 54, 80
3, 79200, Note_off_c, 0, 49, 80
3, 79200, Note_off_c, 0, 42, 80
3, 79200, Note_on_c, 0, 54, 95
3, 79200, Note_on_c, 0, 49, 95
3, 79200, Note_on_c, 0, 42, 95
3, 79680, Note_off_c, 0, 54, 80
3, 79680, Note_off_c, 0, 49, 80
3, 79680, Note_off_c, 0, 42, 80
3, 79680, Note_on_c, 0, 54, 95
3, 79680, Note_on_c, 0, 49, 95
3, 79680, Note_on_c, 0, 42, 95
3, 80160, Note_off_c, 0, 54, 80
3, 80160, Note_off_c, 0, 49, 80
3, 80160, Note_off_c, 0, 42, 80
3, 80160, Note_on_c, 0, 54, 95
3, 80160, Note_on_c, 0, 49, 95
3, 80160, Note_on_c, 0, 42, 95
3, 80640, Note_off_c, 0, 54, 80
3, 80640, Note_off_c, 0, 49, 80
3, 80640, Note_off_c, 0, 42, 80
3, 80640, Note_on_c, 0, 57, 95
3, 80640, Note_on_c, 0, 52, 95
3, 80640, Note_on_c, 0, 45, 95
3, 81120, Note_off_c, 0, 57, 80
3, 81120, Note_off_c, 0, 52, 80
3, 81120, Note_off_c, 0, 45, 80
3, 81120, Note_on_c, 0, 57, 95
3, 81120, Note_on_c, 0, 52, 95
3, 81120, Note_on_c, 0, 45, 95
3, 81600, Note_off_c, 0, 57, 80
3, 81600, Note_off_c, 0, 52, 80
3, 81600, Note_off_c, 0, 45, 80
3, 81600, Note_on_c, 0, 57, 95
3, 81600, Note_on_c, 0, 52, 95
3, 81600, Note_on_c, 0, 45, 95
3, 82080, Note_off_c, 0, 57, 80
3, 82080, Note_off_c, 0, 52, 80
3, 82080, Note_off_c, 0, 45, 80
3, 82080, Note_on_c, 0, 57, 95
3, 82080, Note_on_c, 0, 52, 95
3, 82080, Note_on_c, 0, 45, 95
3, 82560, Note_off_c, 0, 57, 80
3, 82560, Note_off_c, 0, 52, 80
3, 82560, Note_off_c, 0, 45, 80
3, 82560, Note_on_c, 0, 57, 95
3, 82560, Note_on_c, 0, 52, 95
3, 82560, Note_on_c, 0, 45, 95
3, 83040, Note_off_c, 0, 57, 80
3, 83040, Note_off_c, 0, 52, 80
3, 83040, Note_off_c, 0, 45, 80
3, 83040, Note_on_c, 0, 57, 95
3, 83040, Note_on_c, 0, 52, 95
3, 83040, Note_on_c, 0, 45, 95
3, 83520, Note_off_c, 0, 57, 80
3, 83520, Note_off_c, 0, 52, 80
3, 83520, Note_off_c, 0, 45, 80
3, 83520, Note_on_c, 0, 57, 95
3, 83520, Note_on_c, 0, 52, 95
3, 83520, Note_on_c, 0, 45, 95
3, 84000, Note_off_c, 0, 57, 80
3, 84000, Note_off_c, 0, 52, 80
3, 84000, Note_off_c, 0, 45, 80
3, 84000, Note_on_c, 0, 57, 95
3, 84000, Note_on_c, 0, 52, 95
3, 84000, Note_on_c, 0, 45, 95
3, 84480, Note_off_c, 0, 57, 80
3, 84480, Note_off_c, 0, 52, 80
3, 84480, Note_off_c, 0, 45, 80
3, 84480, Note_on_c, 0, 64, 95
3, 84480, Note_on_c, 0, 59, 95
3, 84480, Note_on_c, 0, 52, 95
3, 84960, Note_off_c, 0, 64, 80
3, 84960, Note_off_c, 0, 59, 80
3, 84960, Note_off_c, 0, 52, 80
3, 84960, Note_on_c, 0, 64, 95
3, 84960, Note_on_c, 0, 59, 95
3, 84960, Note_on_c, 0, 52, 95
3, 85440, Note_off_c, 0, 64, 80
3, 85440, Note_off_c, 0, 59, 80
3, 85440, Note_off_c, 0, 52, 80
3, 85440, Note_on_c, 0, 64, 95
3, 85440, Note_on_c, 0, 59, 95
3, 85440, Note_on_c, 0, 52, 95
3, 85920, Note_off_c, 0, 64, 80
3, 85920, Note_off_c, 0, 59, 80
3, 85920, Note_off_c, 0, 52, 80
3, 85920, Note_on_c, 0, 64, 95
3, 85920, Note_on_c, 0, 59, 95
3, 85920, Note_on_c, 0, 52, 95
3, 86400, Note_off_c, 0, 64, 80
3, 86400, Note_off_c, 0, 59, 80
3, 86400, Note_off_c, 0, 52, 80
3, 86400, Note_on_c, 0, 64, 95
3, 86400, Note_on_c, 0, 59, 95
3, 86400, Note_on_c, 0, 52, 95
3, 86880, Note_off_c, 0, 64, 80
3, 86880, Note_off_c, 0, 59, 80
3, 86880, Note_off_c, 0, 52, 80
3, 86880, Note_on_c, 0, 64, 95
3, 86880, Note_on_c, 0, 59, 95
3, 86880, Note_on_c, 0, 52, 95
3, 87360, Note_off_c, 0, 64, 80
3, 87360, Note_off_c, 0, 59, 80
3, 87360, Note_off_c, 0, 52, 80
3, 87360, Note_on_c, 0, 64, 95
3, 87360, Note_on_c, 0, 59, 95
3, 87360, Note_on_c, 0, 52, 95
3, 87840, Note_off_c, 0, 64, 80
3, 87840, Note_off_c, 0, 59, 80
3, 87840, Note_off_c, 0, 52, 80
3, 87840, Note_on_c, 0, 64, 95
3, 87840, Note_on_c, 0, 59, 95
3, 87840, Note_on_c, 0, 52, 95
3, 88320, Note_off_c, 0, 64, 80
3, 88320, Note_off_c, 0, 59, 80
3, 88320, Note_off_c, 0, 52, 80
3, 88320, Note_on_c, 0, 54, 95
3, 88320, Note_on_c, 0, 49, 95
3, 88320, Note_on_c, 0, 42, 95
3, 88800, Note_off_c, 0, 54, 80
3, 88800, Note_off_c, 0, 49, 80
3, 88800, Note_off_c, 0, 42, 80
3, 88800, Note_on_c, 0, 54, 95
3, 88800, Note_on_c, 0, 49, 95
3, 88800, Note_on_c, 0, 42, 95
3, 89280, Note_off_c, 0, 54, 80
3, 89280, Note_off_c, 0, 49, 80
3, 89280, Note_off_c, 0, 42, 80
3, 89280, Note_on_c, 0, 54, 95
3, 89280, Note_on_c, 0, 49, 95
3, 89280, Note_on_c, 0, 42, 95
3, 89760, Note_off_c, 0, 54, 80
3, 89760, Note_off_c, 0, 49, 80
3, 89760, Note_off_c, 0, 42, 80
3, 89760, Note_on_c, 0, 54, 95
3, 89760, Note_on_c, 0, 49, 95
3, 89760, Note_on_c, 0, 42, 95
3, 90240, Note_off_c, 0, 54, 80
3, 90240, Note_off_c, 0, 49, 80
3, 90240, Note_off_c, 0, 42, 80
3, 90240, Note_on_c, 0, 54, 95
3, 90240, Note_on_c, 0, 49, 95
3, 90240, Note_on_c, 0, 42, 95
3, 90720, Note_off_c, 0, 54, 80
3, 90720, Note_off_c, 0, 49, 80
3, 90720, Note_off_c, 0, 42, 80
3, 90720, Note_on_c, 0, 54, 95
3, 90720, Note_on_c, 0, 49, 95
3, 90720, Note_on_c, 0, 42, 95
3, 91200, Note_off_c, 0, 54, 80
3, 91200, Note_off_c, 0, 49, 80
3, 91200, Note_off_c, 0, 42, 80
3, 91200, Note_on_c, 0, 54, 95
3, 91200, Note_on_c, 0, 49, 95
3, 91200, Note_on_c, 0, 42, 95
3, 91680, Note_off_c, 0, 54, 80
3, 91680, Note_off_c, 0, 49, 80
3, 91680, Note_off_c, 0, 42, 80
3, 91680, Note_on_c, 0, 54, 95
3, 91680, Note_on_c, 0, 49, 95
3, 91680, Note_on_c, 0, 42, 95
3, 92160, Note_off_c, 0, 54, 80
3, 92160, Note_off_c, 0, 49, 80
3, 92160, Note_off_c, 0, 42, 80
3, 92160, Note_on_c, 0, 54, 95
3, 92160, Note_on_c, 0, 49, 95
3, 92160, Note_on_c, 0, 42, 95
3, 92640, Note_off_c, 0, 54, 80
3, 92640, Note_off_c, 0, 49, 80
3, 92640, Note_off_c, 0, 42, 80
3, 92640, Note_on_c, 0, 54, 95
3, 92640, Note_on_c, 0, 49, 95
3, 92640, Note_on_c, 0, 42, 95
3, 93120, Note_off_c, 0, 54, 80
3, 93120, Note_off_c, 0, 49, 80
3, 93120, Note_off_c, 0, 42, 80
3, 93120, Note_on_c, 0, 54, 95
3, 93120, Note_on_c, 0, 49, 95
3, 93120, Note_on_c, 0, 42, 95
3, 93600, Note_off_c, 0, 54, 80
3, 93600, Note_off_c, 0, 49, 80
3, 93600, Note_off_c, 0, 42, 80
3, 93600, Note_on_c, 0, 54, 95
3, 93600, Note_on_c, 0, 49, 95
3, 93600, Note_on_c, 0, 42, 95
3, 94080, Note_off_c, 0, 54, 80
3, 94080, Note_off_c, 0, 49, 80
3, 94080, Note_off_c, 0, 42, 80
3, 94080, Note_on_c, 0, 54, 95
3, 94080, Note_on_c, 0, 49, 95
3, 94080, Note_on_c, 0, 42, 95
3, 94560, Note_off_c, 0, 54, 80
3, 94560, Note_off_c, 0, 49, 80
3, 94560, Note_off_c, 0, 42, 80
3, 94560, Note_on_c, 0, 54, 95
3, 94560, Note_on_c, 0, 49, 95
3, 94560, Note_on_c, 0, 42, 95
3, 95040, Note_off_c, 0, 54, 80
3, 95040, Note_off_c, 0, 49, 80
3, 95040, Note_off_c, 0, 42, 80
3, 95040, Note_on_c, 0, 54, 95
3, 95040, Note_on_c, 0, 49, 95
3, 95040, Note_on_c, 0, 42, 95
3, 95520, Note_off_c, 0, 54, 80
3, 95520, Note_off_c, 0, 49, 80
3, 95520, Note_off_c, 0, 42, 80
3, 95520, Note_on_c, 0, 54, 95
3, 95520, Note_on_c, 0, 49, 95
3, 95520, Note_on_c, 0, 42, 95
3, 96000, Note_off_c, 0, 54, 80
3, 96000, Note_off_c, 0, 49, 80
3, 96000, Note_off_c, 0, 42, 80
3, 96000, Note_on_c, 0, 57, 95
3, 96000, Note_on_c, 0, 52, 95
3, 96000, Note_on_c, 0, 45, 95
3, 96480, Note_off_c, 0, 57, 80
3, 96480, Note_off_c, 0, 52, 80
3, 96480, Note_off_c, 0, 45, 80
3, 96480, Note_on_c, 0, 57, 95
3, 96480, Note_on_c, 0, 52, 95
3, 96480, Note_on_c, 0, 45, 95
3, 96960, Note_off_c, 0, 57, 80
3, 96960, Note_off_c, 0, 52, 80
3, 96960, Note_off_c, 0, 45, 80
3, 96960, Note_on_c, 0, 57, 95
3, 96960, Note_on_c, 0, 52, 95
3, 96960, Note_on_c, 0, 45, 95
3, 97440, Note_off_c, 0, 57, 80
3, 97440, Note_off_c, 0, 52, 80
3, 97440, Note_off_c, 0, 45, 80
3, 97440, Note_on_c, 0, 57, 95
3, 97440, Note_on_c, 0, 52, 95
3, 97440, Note_on_c, 0, 45, 95
3, 97920, Note_off_c, 0, 57, 80
3, 97920, Note_off_c, 0, 52, 80
3, 97920, Note_off_c, 0, 45, 80
3, 97920, Note_on_c, 0, 57, 95
3, 97920, Note_on_c, 0, 52, 95
3, 97920, Note_on_c, 0, 45, 95
3, 98400, Note_off_c, 0, 57, 80
3, 98400, Note_off_c, 0, 52, 80
3, 98400, Note_off_c, 0, 45, 80
3, 98400, Note_on_c, 0, 57, 95
3, 98400, Note_on_c, 0, 52, 95
3, 98400, Note_on_c, 0, 45, 95
3, 98880, Note_off_c, 0, 57, 80
3, 98880, Note_off_c, 0, 52, 80
3, 98880, Note_off_c, 0, 45, 80
3, 98880, Note_on_c, 0, 57, 95
3, 98880, Note_on_c, 0, 52, 95
3, 98880, Note_on_c, 0, 45, 95
3, 99360, Note_off_c, 0, 57, 80
3, 99360, Note_off_c, 0, 52, 80
3, 99360, Note_off_c, 0, 45, 80
3, 99360, Note_on_c, 0, 57, 95
3, 99360, Note_on_c, 0, 52, 95
3, 99360, Note_on_c, 0, 45, 95
3, 99840, Note_off_c, 0, 57, 80
3, 99840, Note_off_c, 0, 52, 80
3, 99840, Note_off_c, 0, 45, 80
3, 99840, Note_on_c, 0, 64, 95
3, 99840, Note_on_c, 0, 59, 95
3, 99840, Note_on_c, 0, 52, 95
3, 100320, Note_off_c, 0, 64, 80
3, 100320, Note_off_c, 0, 59, 80
3, 100320, Note_off_c, 0, 52, 80
3, 100320, Note_on_c, 0, 64, 95
3, 100320, Note_on_c, 0, 59, 95
3, 100320, Note_on_c, 0, 52, 95
3, 100800, Note_off_c, 0, 64, 80
3, 100800, Note_off_c, 0, 59, 80
3, 100800, Note_off_c, 0, 52, 80
3, 100800, Note_on_c, 0, 64, 95
3, 100800, Note_on_c, 0, 59, 95
3, 100800, Note_on_c, 0, 52, 95
3, 101280, Note_off_c, 0, 64, 80
3, 101280, Note_off_c, 0, 59, 80
3, 101280, Note_off_c, 0, 52, 80
3, 101280, Note_on_c, 0, 64, 95
3, 101280, Note_on_c, 0, 59, 95
3, 101280, Note_on_c, 0, 52, 95
3, 101760, Note_off_c, 0, 64, 80
3, 101760, Note_off_c, 0, 59, 80
3, 101760, Note_off_c, 0, 52, 80
3, 101760, Note_on_c, 0, 64, 95
3, 101760, Note_on_c, 0, 59, 95
3, 101760, Note_on_c, 0, 52, 95
3, 102240, Note_off_c, 0, 64, 80
3, 102240, Note_off_c, 0, 59, 80
3, 102240, Note_off_c, 0, 52, 80
3, 102240, Note_on_c, 0, 64, 95
3, 102240, Note_on_c, 0, 59, 95
3, 102240, Note_on_c, 0, 52, 95
3, 102720, Note_off_c, 0, 64, 80
3, 102720, Note_off_c, 0, 59, 80
3, 102720, Note_off_c, 0, 52, 80
3, 102720, Note_on_c, 0, 64, 95
3, 102720, Note_on_c, 0, 59, 95
3, 102720, Note_on_c, 0, 52, 95
3, 103200, Note_off_c, 0, 64, 80
3, 103200, Note_off_c, 0, 59, 80
3, 103200, Note_off_c, 0, 52, 80
3, 103200, Note_on_c, 0, 64, 95
3, 103200, Note_on_c, 0, 59, 95
3, 103200, Note_on_c, 0, 52, 95
3, 103680, Note_off_c, 0, 64, 80
3, 103680, Note_off_c, 0, 59, 80
3, 103680, Note_off_c, 0, 52, 80
3, 103680, Note_on_c, 0, 61, 95
3, 103680, Note_on_c, 0, 56, 95
3, 103680, Note_on_c, 0, 49, 95
3, 104160, Note_off_c, 0, 61, 80
3, 104160, Note_off_c, 0, 56, 80
3, 104160, Note_off_c, 0, 49, 80
3, 104160, Note_on_c, 0, 61, 95
3, 104160, Note_on_c, 0, 56, 95
3, 104160, Note_on_c, 0, 49, 95
3, 104640, Note_off_c, 0, 61, 80
3, 104640, Note_off_c, 0, 56, 80
3, 104640, Note_off_c, 0, 49, 80
3, 104640, Note_on_c, 0, 61, 95
3, 104640, Note_on_c, 0, 56, 95
3, 104640, Note_on_c, 0, 49, 95
3, 105120, Note_off_c, 0, 61, 80
3, 105120, Note_off_c, 0, 56, 80
3, 105120, Note_off_c, 0, 49, 80
3, 105120, Note_on_c, 0, 61, 95
3, 105120, Note_on_c, 0, 56, 95
3, 105120, Note_on_c, 0, 49, 95
3, 105600, Note_off_c, 0, 61, 80
3, 105600, Note_off_c, 0, 56, 80
3, 105600, Note_off_c, 0, 49, 80
3, 105600, Note_on_c, 0, 61, 95
3, 105600, Note_on_c, 0, 56, 95
3, 105600, Note_on_c, 0, 49, 95
3, 106080, Note_off_c, 0, 61, 80
3, 106080, Note_off_c, 0, 56, 80
3, 106080, Note_off_c, 0, 49, 80
3, 106080, Note_on_c, 0, 61, 95
3, 106080, Note_on_c, 0, 56, 95
3, 106080, Note_on_c, 0, 49, 95
3, 106560, Note_off_c, 0, 61, 80
3, 106560, Note_off_c, 0, 56, 80
3, 106560, Note_off_c, 0, 49, 80
3, 106560, Note_on_c, 0, 61, 95
3, 106560, Note_on_c, 0, 56, 95
3, 106560, Note_on_c, 0, 49, 95
3, 107040, Note_off_c, 0, 61, 80
3, 107040, Note_off_c, 0, 56, 80
3, 107040, Note_off_c, 0, 49, 80
3, 107040, Note_on_c, 0, 61, 95
3, 107040, Note_on_c, 0, 56, 95
3, 107040, Note_on_c, 0, 49, 95
3, 107520, Note_off_c, 0, 61, 80
3, 107520, Note_off_c, 0, 56, 80
3, 107520, Note_off_c, 0, 49, 80
3, 107520, Note_on_c, 0, 61, 95
3, 107520, Note_on_c, 0, 56, 95
3, 107520, Note_on_c, 0, 49, 95
3, 107760, Note_off_c, 0, 49, 80
3, 108000, Note_off_c, 0, 61, 80
3, 108000, Note_off_c, 0, 56, 80
3, 108000, Note_on_c, 0, 61, 95
3, 108000, Note_on_c, 0, 56, 95
3, 108000, Note_on_c, 0, 49, 95
3, 108240, Note_off_c, 0, 61, 80
3, 108240, Note_off_c, 0, 56, 80
3, 108240, Note_off_c, 0, 49, 80
3, 108240, Note_on_c, 0, 59, 95
3, 108240, Note_on_c, 0, 54, 95
3, 108240, Note_on_c, 0, 47, 95
3, 108480, Note_off_c, 0, 47, 80
3, 108720, Note_off_c, 0, 59, 80
3, 108720, Note_off_c, 0, 54, 80
3, 108720, Note_on_c, 0, 59, 95
3, 108720, Note_on_c, 0, 54, 95
3, 108720, Note_on_c, 0, 47, 95
3, 108960, Note_off_c, 0, 47, 80
3, 109200, Note_off_c, 0, 59, 80
3, 109200, Note_off_c, 0, 54, 80
3, 109200, Note_on_c, 0, 59, 95
3, 109200, Note_on_c, 0, 54, 95
3, 109200, Note_on_c, 0, 47, 95
3, 109440, Note_off_c, 0, 59, 80
3, 109440, Note_off_c, 0, 54, 80
3, 109440, Note_off_c, 0, 47, 80
3, 109440, Note_on_c, 0, 57, 95
3, 109440, Note_on_c, 0, 52, 95
3, 109440, Note_on_c, 0, 45, 95
3, 109920, Note_off_c, 0, 57, 80
3, 109920, Note_off_c, 0, 52, 80
3, 109920, Note_off_c, 0, 45, 80
3, 109920, Note_on_c, 0, 57, 95
3, 109920, Note_on_c, 0, 52, 95
3, 109920, Note_on_c, 0, 45, 95
3, 110400, Note_off_c, 0, 57, 80
3, 110400, Note_off_c, 0, 52, 80
3, 110400, Note_off_c, 0, 45, 80
3, 110400, Note_on_c, 0, 54, 95
3, 110400, Note_on_c, 0, 49, 95
3, 110400, Note_on_c, 0, 42, 95
3, 110880, Note_off_c, 0, 54, 80
3, 110880, Note_off_c, 0, 49, 80
3, 110880, Note_off_c, 0, 42, 80
3, 110880, Note_on_c, 0, 54, 95
3, 110880, Note_on_c, 0, 49, 95
3, 110880, Note_on_c, 0, 42, 95
3, 111360, Note_off_c, 0, 54, 80
3, 111360, Note_off_c, 0, 49, 80
3, 111360, Note_off_c, 0, 42, 80
3, 111360, Note_on_c, 0, 61, 95
3, 111360, Note_on_c, 0, 56, 95
3, 111360, Note_on_c, 0, 49, 95
3, 111840, Note_off_c, 0, 61, 80
3, 111840, Note_off_c, 0, 56, 80
3, 111840, Note_off_c, 0, 49, 80
3, 111840, Note_on_c, 0, 61, 95
3, 111840, Note_on_c, 0, 56, 95
3, 111840, Note_on_c, 0, 49, 95
3, 112080, Note_off_c, 0, 61, 80
3, 112080, Note_off_c, 0, 56, 80
3, 112080, Note_off_c, 0, 49, 80
3, 112080, Note_on_c, 0, 59, 95
3, 112080, Note_on_c, 0, 54, 95
3, 112080, Note_on_c, 0, 47, 95
3, 112560, Note_off_c, 0, 59, 80
3, 112560, Note_off_c, 0, 54, 80
3, 112560, Note_off_c, 0, 47, 80
3, 112560, Note_on_c, 0, 59, 95
3, 112560, Note_on_c, 0, 54, 95
3, 112560, Note_on_c, 0, 47, 95
3, 112800, Note_off_c, 0, 59, 80
3, 113040, Note_off_c, 0, 54, 80
3, 113040, Note_off_c, 0, 47, 80
3, 113040, Note_on_c, 0, 59, 95
3, 113040, Note_on_c, 0, 54, 95
3, 113040, Note_on_c, 0, 47, 95
3, 113280, Note_off_c, 0, 59, 80
3, 113280, Note_off_c, 0, 54, 80
3, 113280, Note_off_c, 0, 47, 80
3, 113280, Note_on_c, 0, 57, 95
3, 113280, Note_on_c, 0, 52, 95
3, 113280, Note_on_c, 0, 45, 95
3, 113760, Note_off_c, 0, 57, 80
3, 113760, Note_off_c, 0, 52, 80
3, 113760, Note_off_c, 0, 45, 80
3, 113760, Note_on_c, 0, 57, 95
3, 113760, Note_on_c, 0, 52, 95
3, 113760, Note_on_c, 0, 45, 95
3, 114240, Note_off_c, 0, 57, 80
3, 114240, Note_off_c, 0, 52, 80
3, 114240, Note_off_c, 0, 45, 80
3, 114240, Note_on_c, 0, 54, 95
3, 114240, Note_on_c, 0, 49, 95
3, 114240, Note_on_c, 0, 42, 95
3, 114720, Note_off_c, 0, 54, 80
3, 114720, Note_off_c, 0, 49, 80
3, 114720, Note_off_c, 0, 42, 80
3, 114720, Note_on_c, 0, 54, 95
3, 114720, Note_on_c, 0, 49, 95
3, 114720, Note_on_c, 0, 42, 95
3, 115200, Note_off_c, 0, 54, 80
3, 115200, Note_off_c, 0, 49, 80
3, 115200, Note_off_c, 0, 42, 80
3, 115200, Note_on_c, 0, 61, 95
3, 115200, Note_on_c, 0, 56, 95
3, 115200, Note_on_c, 0, 49, 95
3, 115680, Note_off_c, 0, 61, 80
3, 115680, Note_off_c, 0, 56, 80
3, 115680, Note_off_c, 0, 49, 80
3, 115680, Note_on_c, 0, 61, 95
3, 115680, Note_on_c, 0, 56, 95
3, 115680, Note_on_c, 0, 49, 95
3, 115920, Note_off_c, 0, 61, 80
3, 115920, Note_off_c, 0, 56, 80
3, 115920, Note_off_c, 0, 49, 80
3, 115920, Note_on_c, 0, 59, 95
3, 115920, Note_on_c, 0, 54, 95
3, 115920, Note_on_c, 0, 47, 95
3, 116400, Note_off_c, 0, 59, 80
3, 116400, Note_off_c, 0, 54, 80
3, 116400, Note_off_c, 0, 47, 80
3, 116400, Note_on_c, 0, 59, 95
3, 116400, Note_on_c, 0, 54, 95
3, 116400, Note_on_c, 0, 47, 95
3, 116640, Note_off_c, 0, 59, 80
3, 116880, Note_off_c, 0, 54, 80
3, 116880, Note_off_c, 0, 47, 80
3, 116880, Note_on_c, 0, 59, 95
3, 116880, Note_on_c, 0, 54, 95
3, 116880, Note_on_c, 0, 47, 95
3, 117120, Note_off_c, 0, 59, 80
3, 117120, Note_off_c, 0, 54, 80
3, 117120, Note_off_c, 0, 47, 80
3, 117120, Note_on_c, 0, 57, 95
3, 117120, Note_on_c, 0, 52, 95
3, 117120, Note_on_c, 0, 45, 95
3, 117600, Note_off_c, 0, 57, 80
3, 117600, Note_off_c, 0, 52, 80
3, 117600, Note_off_c, 0, 45, 80
3, 117600, Note_on_c, 0, 57, 95
3, 117600, Note_on_c, 0, 52, 95
3, 117600, Note_on_c, 0, 45, 95
3, 118080, Note_off_c, 0, 57, 80
3, 118080, Note_off_c, 0, 52, 80
3, 118080, Note_off_c, 0, 45, 80
3, 118080, Note_on_c, 0, 54, 95
3, 118080, Note_on_c, 0, 49, 95
3, 118080, Note_on_c, 0, 42, 95
3, 118560, Note_off_c, 0, 54, 80
3, 118560, Note_off_c, 0, 49, 80
3, 118560, Note_off_c, 0, 42, 80
3, 118560, Note_on_c, 0, 54, 95
3, 118560, Note_on_c, 0, 49, 95
3, 118560, Note_on_c, 0, 42, 95
3, 119040, Note_off_c, 0, 54, 80
3, 119040, Note_off_c, 0, 49, 80
3, 119040, Note_off_c, 0, 42, 80
3, 119040, Note_on_c, 0, 61, 95
3, 119040, Note_on_c, 0, 56, 95
3, 119040, Note_on_c, 0, 49, 95
3, 119280, Note_off_c, 0, 61, 80
3, 119520, Note_off_c, 0, 56, 80
3, 119520, Note_off_c, 0, 49, 80
3, 119520, Note_on_c, 0, 61, 95
3, 119520, Note_on_c, 0, 56, 95
3, 119520, Note_on_c, 0, 49, 95
3, 119760, Note_off_c, 0, 61, 80
3, 119760, Note_off_c, 0, 56, 80
3, 119760, Note_off_c, 0, 49, 80
3, 119760, Note_on_c, 0, 59, 95
3, 119760, Note_on_c, 0, 54, 95
3, 119760, Note_on_c, 0, 47, 95
3, 120240, Note_off_c, 0, 59, 80
3, 120240, Note_off_c, 0, 54, 80
3, 120240, Note_off_c, 0, 47, 80
3, 120240, Note_on_c, 0, 59, 95
3, 120240, Note_on_c, 0, 54, 95
3, 120240, Note_on_c, 0, 47, 95
3, 120480, Note_off_c, 0, 59, 80
3, 120720, Note_off_c, 0, 54, 80
3, 120720, Note_off_c, 0, 47, 80
3, 120720, Note_on_c, 0, 59, 95
3, 120720, Note_on_c, 0, 54, 95
3, 120720, Note_on_c, 0, 47, 95
3, 120960, Note_off_c, 0, 59, 80
3, 120960, Note_off_c, 0, 54, 80
3, 120960, Note_off_c, 0, 47, 80
3, 120960, Note_on_c, 0, 57, 95
3, 120960, Note_on_c, 0, 52, 95
3, 120960, Note_on_c, 0, 45, 95
3, 121440, Note_off_c, 0, 57, 80
3, 121440, Note_off_c, 0, 52, 80
3, 121440, Note_off_c, 0, 45, 80
3, 121440, Note_on_c, 0, 57, 95
3, 121440, Note_on_c, 0, 52, 95
3, 121440, Note_on_c, 0, 45, 95
3, 121920, Note_off_c, 0, 57, 80
3, 121920, Note_off_c, 0, 52, 80
3, 121920, Note_off_c, 0, 45, 80
3, 121920, Note_on_c, 0, 54, 95
3, 121920, Note_on_c, 0, 49, 95
3, 121920, Note_on_c, 0, 42, 95
3, 122400, Note_off_c, 0, 54, 80
3, 122400, Note_off_c, 0, 49, 80
3, 122400, Note_off_c, 0, 42, 80
3, 122880, Note_on_c, 0, 61, 95
3, 122880, Note_on_c, 0, 56, 95
3, 122880, Note_on_c, 0, 49, 95
3, 123120, Note_off_c, 0, 49, 80
3, 123360, Note_off_c, 0, 61, 80
3, 123360, Note_off_c, 0, 56, 80
3, 123360, Note_on_c, 0, 61, 95
3, 123360, Note_on_c, 0, 56, 95
3, 123360, Note_on_c, 0, 49, 95
3, 123600, Note_off_c, 0, 61, 80
3, 123600, Note_off_c, 0, 56, 80
3, 123600, Note_off_c, 0, 49, 80
3, 123600, Note_on_c, 0, 59, 95
3, 123600, Note_on_c, 0, 54, 95
3, 123600, Note_on_c, 0, 47, 95
3, 123840, Note_off_c, 0, 47, 80
3, 124080, Note_off_c, 0, 59, 80
3, 124080, Note_off_c, 0, 54, 80
3, 124080, Note_on_c, 0, 59, 95
3, 124080, Note_on_c, 0, 54, 95
3, 124080, Note_on_c, 0, 47, 95
3, 124320, Note_off_c, 0, 47, 80
3, 124560, Note_off_c, 0, 59, 80
3, 124560, Note_off_c, 0, 54, 80
3, 124560, Note_on_c, 0, 59, 95
3, 124560, Note_on_c, 0, 54, 95
3, 124560, Note_on_c, 0, 47, 95
3, 124800, Note_off_c, 0, 59, 80
3, 124800, Note_off_c, 0, 54, 80
3, 124800, Note_off_c, 0, 47, 80
3, 124800, Note_on_c, 0, 57, 95
3, 124800, Note_on_c, 0, 52, 95
3, 124800, Note_on_c, 0, 45, 95
3, 125280, Note_off_c, 0, 57, 80
3, 125280, Note_off_c, 0, 52, 80
3, 125280, Note_off_c, 0, 45, 80
3, 125280, Note_on_c, 0, 57, 95
3, 125280, Note_on_c, 0, 52, 95
3, 125280, Note_on_c, 0, 45, 95
3, 125760, Note_off_c, 0, 57, 80
3, 125760, Note_off_c, 0, 52, 80
3, 125760, Note_off_c, 0, 45, 80
3, 125760, Note_on_c, 0, 54, 95
3, 125760, Note_on_c, 0, 49, 95
3, 125760, Note_on_c, 0, 42, 95
3, 126240, Note_off_c, 0, 54, 80
3, 126240, Note_off_c, 0, 49, 80
3, 126240, Note_off_c, 0, 42, 80
3, 126240, Note_on_c, 0, 54, 95
3, 126240, Note_on_c, 0, 49, 95
3, 126240, Note_on_c, 0, 42, 95
3, 126720, Note_off_c, 0, 54, 80
3, 126720, Note_off_c, 0, 49, 80
3, 126720, Note_off_c, 0, 42, 80
3, 126720, Note_on_c, 0, 61, 95
3, 126720, Note_on_c, 0, 56, 95
3, 126720, Note_on_c, 0, 49, 95
3, 127200, Note_off_c, 0, 61, 80
3, 127200, Note_off_c, 0, 56, 80
3, 127200, Note_off_c, 0, 49, 80
3, 127200, Note_on_c, 0, 61, 95
3, 127200, Note_on_c, 0, 56, 95
3, 127200, Note_on_c, 0, 49, 95
3, 127440, Note_off_c, 0, 61, 80
3, 127440, Note_off_c, 0, 56, 80
3, 127440, Note_off_c, 0, 49, 80
3, 127440, Note_on_c, 0, 59, 95
3, 127440, Note_on_c, 0, 54, 95
3, 127440, Note_on_c, 0, 47, 95
3, 127920, Note_off_c, 0, 59, 80
3, 127920, Note_off_c, 0, 54, 80
3, 127920, Note_off_c, 0, 47, 80
3, 127920, Note_on_c, 0, 59, 95
3, 127920, Note_on_c, 0, 54, 95
3, 127920, Note_on_c, 0, 47, 95
3, 128160, Note_off_c, 0, 59, 80
3, 128400, Note_off_c, 0, 54, 80
3, 128400, Note_off_c, 0, 47, 80
3, 128400, Note_on_c, 0, 59, 95
3, 128400, Note_on_c, 0, 54, 95
3, 128400, Note_on_c, 0, 47, 95
3, 128640, Note_off_c, 0, 59, 80
3, 128640, Note_off_c, 0, 54, 80
3, 128640, Note_off_c, 0, 47, 80
3, 128640, Note_on_c, 0, 57, 95
3, 128640, Note_on_c, 0, 52, 95
3, 128640, Note_on_c, 0, 45, 95
3, 129120, Note_off_c, 0, 57, 80
3, 129120, Note_off_c, 0, 52, 80
3, 129120, Note_off_c, 0, 45, 80
3, 129120, Note_on_c, 0, 57, 95
3, 129120, Note_on_c, 0, 52, 95
3, 129120, Note_on_c, 0, 45, 95
3, 129600, Note_off_c, 0, 57, 80
3, 129600, Note_off_c, 0, 52, 80
3, 129600, Note_off_c, 0, 45, 80
3, 129600, Note_on_c, 0, 54, 95
3, 129600, Note_on_c, 0, 49, 95
3, 129600, Note_on_c, 0, 42, 95
3, 130080, Note_off_c, 0, 54, 80
3, 130080, Note_off_c, 0, 49, 80
3, 130080, Note_off_c, 0, 42, 80
3, 130080, Note_on_c, 0, 54, 95
3, 130080, Note_on_c, 0, 49, 95
3, 130080, Note_on_c, 0, 42, 95
3, 130560, Note_off_c, 0, 54, 80
3, 130560, Note_off_c, 0, 49, 80
3, 130560, Note_off_c, 0, 42, 80
3, 130560, Note_on_c, 0, 61, 95
3, 130560, Note_on_c, 0, 56, 95
3, 130560, Note_on_c, 0, 49, 95
3, 131040, Note_off_c, 0, 61, 80
3, 131040, Note_off_c, 0, 56, 80
3, 131040, Note_off_c, 0, 49, 80
3, 131040, Note_on_c, 0, 61, 95
3, 131040, Note_on_c, 0, 56, 95
3, 131040, Note_on_c, 0, 49, 95
3, 131280, Note_off_c, 0, 61, 80
3, 131280, Note_off_c, 0, 56, 80
3, 131280, Note_off_c, 0, 49, 80
3, 131280, Note_on_c, 0, 59, 95
3, 131280, Note_on_c, 0, 54, 95
3, 131280, Note_on_c, 0, 47, 95
3, 131760, Note_off_c, 0, 59, 80
3, 131760, Note_off_c, 0, 54, 80
3, 131760, Note_off_c, 0, 47, 80
3, 131760, Note_on_c, 0, 59, 95
3, 131760, Note_on_c, 0, 54, 95
3, 131760, Note_on_c, 0, 47, 95
3, 132000, Note_off_c, 0, 59, 80
3, 132240, Note_off_c, 0, 54, 80
3, 132240, Note_off_c, 0, 47, 80
3, 132240, Note_on_c, 0, 59, 95
3, 132240, Note_on_c, 0, 54, 95
3, 132240, Note_on_c, 0, 47, 95
3, 132480, Note_off_c, 0, 59, 80
3, 132480, Note_off_c, 0, 54, 80
3, 132480, Note_off_c, 0, 47, 80
3, 132480, Note_on_c, 0, 57, 95
3, 132480, Note_on_c, 0, 52, 95
3, 132480, Note_on_c, 0, 45, 95
3, 132960, Note_off_c, 0, 57, 80
3, 132960, Note_off_c, 0, 52, 80
3, 132960, Note_off_c, 0, 45, 80
3, 132960, Note_on_c, 0, 57, 95
3, 132960, Note_on_c, 0, 52, 95
3, 132960, Note_on_c, 0, 45, 95
3, 133440, Note_off_c, 0, 57, 80
3, 133440, Note_off_c, 0, 52, 80
3, 133440, Note_off_c, 0, 45, 80
3, 133440, Note_on_c, 0, 54, 95
3, 133440, Note_on_c, 0, 49, 95
3, 133440, Note_on_c, 0, 42, 95
3, 133920, Note_off_c, 0, 54, 80
3, 133920, Note_off_c, 0, 49, 80
3, 133920, Note_off_c, 0, 42, 80
3, 133920, Note_on_c, 0, 54, 95
3, 133920, Note_on_c, 0, 49, 95
3, 133920, Note_on_c, 0, 42, 95
3, 134400, Note_off_c, 0, 54, 80
3, 134400, Note_off_c, 0, 49, 80
3, 134400, Note_off_c, 0, 42, 80
3, 134400, Note_on_c, 0, 61, 95
3, 134400, Note_on_c, 0, 56, 95
3, 134400, Note_on_c, 0, 49, 95
3, 134640, Note_off_c, 0, 61, 80
3, 134880, Note_off_c, 0, 56, 80
3, 134880, Note_off_c, 0, 49, 80
3, 134880, Note_on_c, 0, 61, 95
3, 134880, Note_on_c, 0, 56, 95
3, 134880, Note_on_c, 0, 49, 95
3, 135120, Note_off_c, 0, 61, 80
3, 135120, Note_off_c, 0, 56, 80
3, 135120, Note_off_c, 0, 49, 80
3, 135120, Note_on_c, 0, 59, 95
3, 135120, Note_on_c, 0, 54, 95
3, 135120, Note_on_c, 0, 47, 95
3, 135600, Note_off_c, 0, 59, 80
3, 135600, Note_off_c, 0, 54, 80
3, 135600, Note_off_c, 0, 47, 80
3, 135600, Note_on_c, 0, 59, 95
3, 135600, Note_on_c, 0, 54, 95
3, 135600, Note_on_c, 0, 47, 95
3, 135840, Note_off_c, 0, 59, 80
3, 136080, Note_off_c, 0, 54, 80
3, 136080, Note_off_c, 0, 47, 80
3, 136080, Note_on_c, 0, 59, 95
3, 136080, Note_on_c, 0, 54, 95
3, 136080, Note_on_c, 0, 47, 95
3, 136320, Note_off_c, 0, 59, 80
3, 136320, Note_off_c, 0, 54, 80
3, 136320, Note_off_c, 0, 47, 80
3, 136320, Note_on_c, 0, 57, 95
3, 136320, Note_on_c, 0, 52, 95
3, 136320, Note_on_c, 0, 45, 95
3, 136800, Note_off_c, 0, 57, 80
3, 136800, Note_off_c, 0, 52, 80
3, 136800, Note_off_c, 0, 45, 80
3, 136800, Note_on_c, 0, 57, 95
3, 136800, Note_on_c, 0, 52, 95
3, 136800, Note_on_c, 0, 45, 95
3, 137280, Note_off_c, 0, 57, 80
3, 137280, Note_off_c, 0, 52, 80
3, 137280, Note_off_c, 0, 45, 80
3, 137280, Note_on_c, 0, 54, 95
3, 137280, Note_on_c, 0, 49, 95
3, 137280, Note_on_c, 0, 42, 95
3, 137760, Note_off_c, 0, 54, 80
3, 137760, Note_off_c, 0, 49, 80
3, 137760, Note_off_c, 0, 42, 80
3, 138240, Note_on_c, 0, 61, 95
3, 138240, Note_on_c, 0, 56, 95
3, 138240, Note_on_c, 0, 49, 95
3, 138480, Note_off_c, 0, 49, 80
3, 138720, Note_off_c, 0, 61, 80
3, 138720, Note_off_c, 0, 56, 80
3, 138720, Note_on_c, 0, 61, 95
3, 138720, Note_on_c, 0, 56, 95
3, 138720, Note_on_c, 0, 49, 95
3, 138960, Note_off_c, 0, 61, 80
3, 138960, Note_off_c, 0, 56, 80
3, 138960, Note_off_c, 0, 49, 80
3, 138960, Note_on_c, 0, 59, 95
3, 138960, Note_on_c, 0, 54, 95
3, 138960, Note_on_c, 0, 47, 95
3, 139200, Note_off_c, 0, 47, 80
3, 139440, Note_off_c, 0, 59, 80
3, 139440, Note_off_c, 0, 54, 80
3, 139440, Note_on_c, 0, 59, 95
3, 139440, Note_on_c, 0, 54, 95
3, 139440, Note_on_c, 0, 47, 95
3, 139680, Note_off_c, 0, 47, 80
3, 139920, Note_off_c, 0, 59, 80
3, 139920, Note_off_c, 0, 54, 80
3, 139920, Note_on_c, 0, 59, 95
3, 139920, Note_on_c, 0, 54, 95
3, 139920, Note_on_c, 0, 47, 95
3, 140160, Note_off_c, 0, 59, 80
3, 140160, Note_off_c, 0, 54, 80
3, 140160, Note_off_c, 0, 47, 80
3, 140160, Note_on_c, 0, 57, 95
3, 140160, Note_on_c, 0, 52, 95
3, 140160, Note_on_c, 0, 45, 95
3, 140640, Note_off_c, 0, 57, 80
3, 140640, Note_off_c, 0, 52, 80
3, 140640, Note_off_c, 0, 45, 80
3, 140640, Note_on_c, 0, 57, 95
3, 140640, Note_on_c, 0, 52, 95
3, 140640, Note_on_c, 0, 45, 95
3, 141120, Note_off_c, 0, 57, 80
3, 141120, Note_off_c, 0, 52, 80
3, 141120, Note_off_c, 0, 45, 80
3, 141120, Note_on_c, 0, 54, 95
3, 141120, Note_on_c, 0, 49, 95
3, 141120, Note_on_c, 0, 42, 95
3, 141600, Note_off_c, 0, 54, 80
3, 141600, Note_off_c, 0, 49, 80
3, 141600, Note_off_c, 0, 42, 80
3, 141600, Note_on_c, 0, 54, 95
3, 141600, Note_on_c, 0, 49, 95
3, 141600, Note_on_c, 0, 42, 95
3, 142080, Note_off_c, 0, 54, 80
3, 142080, Note_off_c, 0, 49, 80
3, 142080, Note_off_c, 0, 42, 80
3, 142080, Note_on_c, 0, 61, 95
3, 142080, Note_on_c, 0, 56, 95
3, 142080, Note_on_c, 0, 49, 95
3, 142560, Note_off_c, 0, 61, 80
3, 142560, Note_off_c, 0, 56, 80
3, 142560, Note_off_c, 0, 49, 80
3, 142560, Note_on_c, 0, 61, 95
3, 142560, Note_on_c, 0, 56, 95
3, 142560, Note_on_c, 0, 49, 95
3, 142800, Note_off_c, 0, 61, 80
3, 142800, Note_off_c, 0, 56, 80
3, 142800, Note_off_c, 0, 49, 80
3, 142800, Note_on_c, 0, 59, 95
3, 142800, Note_on_c, 0, 54, 95
3, 142800, Note_on_c, 0, 47, 95
3, 143280, Note_off_c, 0, 59, 80
3, 143280, Note_off_c, 0, 54, 80
3, 143280, Note_off_c, 0, 47, 80
3, 143280, Note_on_c, 0, 59, 95
3, 143280, Note_on_c, 0, 54, 95
3, 143280, Note_on_c, 0, 47, 95
3, 143520, Note_off_c, 0, 59, 80
3, 143760, Note_off_c, 0, 54, 80
3, 143760, Note_off_c, 0, 47, 80
3, 143760, Note_on_c, 0, 59, 95
3, 143760, Note_on_c, 0, 54, 95
3, 143760, Note_on_c, 0, 47, 95
3, 144000, Note_off_c, 0, 59, 80
3, 144000, Note_off_c, 0, 54, 80
3, 144000, Note_off_c, 0, 47, 80
3, 144000, Note_on_c, 0, 57, 95
3, 144000, Note_on_c, 0, 52, 95
3, 144000, Note_on_c, 0, 45, 95
3, 144480, Note_off_c, 0, 57, 80
3, 144480, Note_off_c, 0, 52, 80
3, 144480, Note_off_c, 0, 45, 80
3, 144480, Note_on_c, 0, 57, 95
3, 144480, Note_on_c, 0, 52, 95
3, 144480, Note_on_c, 0, 45, 95
3, 144960, Note_off_c, 0, 57, 80
3, 144960, Note_off_c, 0, 52, 80
3, 144960, Note_off_c, 0, 45, 80
3, 144960, Note_on_c, 0, 54, 95
3, 144960, Note_on_c, 0, 49, 95
3, 144960, Note_on_c, 0, 42, 95
3, 145440, Note_off_c, 0, 54, 80
3, 145440, Note_off_c, 0, 49, 80
3, 145440, Note_off_c, 0, 42, 80
3, 145440, Note_on_c, 0, 54, 95
3, 145440, Note_on_c, 0, 49, 95
3, 145440, Note_on_c, 0, 42, 95
3, 145920, Note_off_c, 0, 54, 80
3, 145920, Note_off_c, 0, 49, 80
3, 145920, Note_off_c, 0, 42, 80
3, 145920, Note_on_c, 0, 61, 95
3, 145920, Note_on_c, 0, 56, 95
3, 145920, Note_on_c, 0, 49, 95
3, 146400, Note_off_c, 0, 61, 80
3, 146400, Note_off_c, 0, 56, 80
3, 146400, Note_off_c, 0, 49, 80
3, 146400, Note_on_c, 0, 61, 95
3, 146400, Note_on_c, 0, 56, 95
3, 146400, Note_on_c, 0, 49, 95
3, 146640, Note_off_c, 0, 61, 80
3, 146640, Note_off_c, 0, 56, 80
3, 146640, Note_off_c, 0, 49, 80
3, 146640, Note_on_c, 0, 59, 95
3, 146640, Note_on_c, 0, 54, 95
3, 146640, Note_on_c, 0, 47, 95
3, 147120, Note_off_c, 0, 59, 80
3, 147120, Note_off_c, 0, 54, 80
3, 147120, Note_off_c, 0, 47, 80
3, 147120, Note_on_c, 0, 59, 95
3, 147120, Note_on_c, 0, 54, 95
3, 147120, Note_on_c, 0, 47, 95
3, 147360, Note_off_c, 0, 59, 80
3, 147600, Note_off_c, 0, 54, 80
3, 147600, Note_off_c, 0, 47, 80
3, 147600, Note_on_c, 0, 59, 95
3, 147600, Note_on_c, 0, 54, 95
3, 147600, Note_on_c, 0, 47, 95
3, 147840, Note_off_c, 0, 59, 80
3, 147840, Note_off_c, 0, 54, 80
3, 147840, Note_off_c, 0, 47, 80
3, 147840, Note_on_c, 0, 57, 95
3, 147840, Note_on_c, 0, 52, 95
3, 147840, Note_on_c, 0, 45, 95
3, 148320, Note_off_c, 0, 57, 80
3, 148320, Note_off_c, 0, 52, 80
3, 148320, Note_off_c, 0, 45, 80
3, 148320, Note_on_c, 0, 57, 95
3, 148320, Note_on_c, 0, 52, 95
3, 148320, Note_on_c, 0, 45, 95
3, 148800, Note_off_c, 0, 57, 80
3, 148800, Note_off_c, 0, 52, 80
3, 148800, Note_off_c, 0, 45, 80
3, 148800, Note_on_c, 0, 54, 95
3, 148800, Note_on_c, 0, 49, 95
3, 148800, Note_on_c, 0, 42, 95
3, 149280, Note_off_c, 0, 54, 80
3, 149280, Note_off_c, 0, 49, 80
3, 149280, Note_off_c, 0, 42, 80
3, 149280, Note_on_c, 0, 54, 95
3, 149280, Note_on_c, 0, 49, 95
3, 149280, Note_on_c, 0, 42, 95
3, 149760, Note_off_c, 0, 54, 80
3, 149760, Note_off_c, 0, 49, 80
3, 149760, Note_off_c, 0, 42, 80
3, 149760, Note_on_c, 0, 61, 95
3, 149760, Note_on_c, 0, 56, 95
3, 149760, Note_on_c, 0, 49, 95
3, 150000, Note_off_c, 0, 61, 80
3, 150240, Note_off_c, 0, 56, 80
3, 150240, Note_off_c, 0, 49, 80
3, 150240, Note_on_c, 0, 61, 95
3, 150240, Note_on_c, 0, 56, 95
3, 150240, Note_on_c, 0, 49, 95
3, 150480, Note_off_c, 0, 61, 80
3, 150480, Note_off_c, 0, 56, 80
3, 150480, Note_off_c, 0, 49, 80
3, 150480, Note_on_c, 0, 59, 95
3, 150480, Note_on_c, 0, 54, 95
3, 150480, Note_on_c, 0, 47, 95
3, 150960, Note_off_c, 0, 59, 80
3, 150960, Note_off_c, 0, 54, 80
3, 150960, Note_off_c, 0, 47, 80
3, 150960, Note_on_c, 0, 59, 95
3, 150960, Note_on_c, 0, 54, 95
3, 150960, Note_on_c, 0, 47, 95
3, 151200, Note_off_c, 0, 59, 80
3, 151440, Note_off_c, 0, 54, 80
3, 151440, Note_off_c, 0, 47, 80
3, 151440, Note_on_c, 0, 59, 95
3, 151440, Note_on_c, 0, 54, 95
3, 151440, Note_on_c, 0, 47, 95
3, 151680, Note_off_c, 0, 59, 80
3, 151680, Note_off_c, 0, 54, 80
3, 151680, Note_off_c, 0, 47, 80
3, 151680, Note_on_c, 0, 57, 95
3, 151680, Note_on_c, 0, 52, 95
3, 151680, Note_on_c, 0, 45, 95
3, 152160, Note_off_c, 0, 57, 80
3, 152160, Note_off_c, 0, 52, 80
3, 152160, Note_off_c, 0, 45, 80
3, 152160, Note_on_c, 0, 57, 95
3, 152160, Note_on_c, 0, 52, 95
3, 152160, Note_on_c, 0, 45, 95
3, 152640, Note_off_c, 0, 57, 80
3, 152640, Note_off_c, 0, 52, 80
3, 152640, Note_off_c, 0, 45, 80
3, 152640, Note_on_c, 0, 54, 95
3, 152640, Note_on_c, 0, 49, 95
3, 152640, Note_on_c, 0, 42, 95
3, 153120, Note_off_c, 0, 54, 80
3, 153120, Note_off_c, 0, 49, 80
3, 153120, Note_off_c, 0, 42, 80
3, 153600, Note_on_c, 0, 54, 95
3, 153600, Note_on_c, 0, 49, 95
3, 153600, Note_on_c, 0, 42, 95
3, 154080, Note_off_c, 0, 54, 80
3, 154080, Note_off_c, 0, 49, 80
3, 154080, Note_off_c, 0, 42, 80
3, 154080, Note_on_c, 0, 54, 95
3, 154080, Note_on_c, 0, 49, 95
3, 154080, Note_on_c, 0, 42, 95
3, 154560, Note_off_c, 0, 54, 80
3, 154560, Note_off_c, 0, 49, 80
3, 154560, Note_off_c, 0, 42, 80
3, 154560, Note_on_c, 0, 54, 95
3, 154560, Note_on_c, 0, 49, 95
3, 154560, Note_on_c, 0, 42, 95
3, 155040, Note_off_c, 0, 54, 80
3, 155040, Note_off_c, 0, 49, 80
3, 155040, Note_off_c, 0, 42, 80
3, 155040, Note_on_c, 0, 54, 95
3, 155040, Note_on_c, 0, 49, 95
3, 155040, Note_on_c, 0, 42, 95
3, 155520, Note_off_c, 0, 54, 80
3, 155520, Note_off_c, 0, 49, 80
3, 155520, Note_off_c, 0, 42, 80
3, 155520, Note_on_c, 0, 54, 95
3, 155520, Note_on_c, 0, 49, 95
3, 155520, Note_on_c, 0, 42, 95
3, 156000, Note_off_c, 0, 54, 80
3, 156000, Note_off_c, 0, 49, 80
3, 156000, Note_off_c, 0, 42, 80
3, 156000, Note_on_c, 0, 54, 95
3, 156000, Note_on_c, 0, 49, 95
3, 156000, Note_on_c, 0, 42, 95
3, 156480, Note_off_c, 0, 54, 80
3, 156480, Note_off_c, 0, 49, 80
3, 156480, Note_off_c, 0, 42, 80
3, 156480, Note_on_c, 0, 54, 95
3, 156480, Note_on_c, 0, 49, 95
3, 156480, Note_on_c, 0, 42, 95
3, 156960, Note_off_c, 0, 54, 80
3, 156960, Note_off_c, 0, 49, 80
3, 156960, Note_off_c, 0, 42, 80
3, 156960, Note_on_c, 0, 54, 95
3, 156960, Note_on_c, 0, 49, 95
3, 156960, Note_on_c, 0, 42, 95
3, 157440, Note_off_c, 0, 54, 80
3, 157440, Note_off_c, 0, 49, 80
3, 157440, Note_off_c, 0, 42, 80
3, 157440, Note_on_c, 0, 57, 95
3, 157440, Note_on_c, 0, 52, 95
3, 157440, Note_on_c, 0, 45, 95
3, 157920, Note_off_c, 0, 57, 80
3, 157920, Note_off_c, 0, 52, 80
3, 157920, Note_off_c, 0, 45, 80
3, 157920, Note_on_c, 0, 57, 95
3, 157920, Note_on_c, 0, 52, 95
3, 157920, Note_on_c, 0, 45, 95
3, 158400, Note_off_c, 0, 57, 80
3, 158400, Note_off_c, 0, 52, 80
3, 158400, Note_off_c, 0, 45, 80
3, 158400, Note_on_c, 0, 57, 95
3, 158400, Note_on_c, 0, 52, 95
3, 158400, Note_on_c, 0, 45, 95
3, 158880, Note_off_c, 0, 57, 80
3, 158880, Note_off_c, 0, 52, 80
3, 158880, Note_off_c, 0, 45, 80
3, 158880, Note_on_c, 0, 57, 95
3, 158880, Note_on_c, 0, 52, 95
3, 158880, Note_on_c, 0, 45, 95
3, 159360, Note_off_c, 0, 57, 80
3, 159360, Note_off_c, 0, 52, 80
3, 159360, Note_off_c, 0, 45, 80
3, 159360, Note_on_c, 0, 57, 95
3, 159360, Note_on_c, 0, 52, 95
3, 159360, Note_on_c, 0, 45, 95
3, 159840, Note_off_c, 0, 57, 80
3, 159840, Note_off_c, 0, 52, 80
3, 159840, Note_off_c, 0, 45, 80
3, 159840, Note_on_c, 0, 57, 95
3, 159840, Note_on_c, 0, 52, 95
3, 159840, Note_on_c, 0, 45, 95
3, 160320, Note_off_c, 0, 57, 80
3, 160320, Note_off_c, 0, 52, 80
3, 160320, Note_off_c, 0, 45, 80
3, 160320, Note_on_c, 0, 57, 95
3, 160320, Note_on_c, 0, 52, 95
3, 160320, Note_on_c, 0, 45, 95
3, 160800, Note_off_c, 0, 57, 80
3, 160800, Note_off_c, 0, 52, 80
3, 160800, Note_off_c, 0, 45, 80
3, 160800, Note_on_c, 0, 57, 95
3, 160800, Note_on_c, 0, 52, 95
3, 160800, Note_on_c, 0, 45, 95
3, 161280, Note_off_c, 0, 57, 80
3, 161280, Note_off_c, 0, 52, 80
3, 161280, Note_off_c, 0, 45, 80
3, 161280, Note_on_c, 0, 64, 95
3, 161280, Note_on_c, 0, 59, 95
3, 161280, Note_on_c, 0, 52, 95
3, 161760, Note_off_c, 0, 64, 80
3, 161760, Note_off_c, 0, 59, 80
3, 161760, Note_off_c, 0, 52, 80
3, 161760, Note_on_c, 0, 64, 95
3, 161760, Note_on_c, 0, 59, 95
3, 161760, Note_on_c, 0, 52, 95
3, 162240, Note_off_c, 0, 64, 80
3, 162240, Note_off_c, 0, 59, 80
3, 162240, Note_off_c, 0, 52, 80
3, 162240, Note_on_c, 0, 64, 95
3, 162240, Note_on_c, 0, 59, 95
3, 162240, Note_on_c, 0, 52, 95
3, 162720, Note_off_c, 0, 64, 80
3, 162720, Note_off_c, 0, 59, 80
3, 162720, Note_off_c, 0, 52, 80
3, 162720, Note_on_c, 0, 64, 95
3, 162720, Note_on_c, 0, 59, 95
3, 162720, Note_on_c, 0, 52, 95
3, 163200, Note_off_c, 0, 64, 80
3, 163200, Note_off_c, 0, 59, 80
3, 163200, Note_off_c, 0, 52, 80
3, 163200, Note_on_c, 0, 64, 95
3, 163200, Note_on_c, 0, 59, 95
3, 163200, Note_on_c, 0, 52, 95
3, 163680, Note_off_c, 0, 64, 80
3, 163680, Note_off_c, 0, 59, 80
3, 163680, Note_off_c, 0, 52, 80
3, 163680, Note_on_c, 0, 64, 95
3, 163680, Note_on_c, 0, 59, 95
3, 163680, Note_on_c, 0, 52, 95
3, 164160, Note_off_c, 0, 64, 80
3, 164160, Note_off_c, 0, 59, 80
3, 164160, Note_off_c, 0, 52, 80
3, 164160, Note_on_c, 0, 64, 95
3, 164160, Note_on_c, 0, 59, 95
3, 164160, Note_on_c, 0, 52, 95
3, 164640, Note_off_c, 0, 64, 80
3, 164640, Note_off_c, 0, 59, 80
3, 164640, Note_off_c, 0, 52, 80
3, 164640, Note_on_c, 0, 64, 95
3, 164640, Note_on_c, 0, 59, 95
3, 164640, Note_on_c, 0, 52, 95
3, 165120, Note_off_c, 0, 64, 80
3, 165120, Note_off_c, 0, 59, 80
3, 165120, Note_off_c, 0, 52, 80
3, 165120, Note_on_c, 0, 54, 95
3, 165120, Note_on_c, 0, 49, 95
3, 165120, Note_on_c, 0, 42, 95
3, 165600, Note_off_c, 0, 54, 80
3, 165600, Note_off_c, 0, 49, 80
3, 165600, Note_off_c, 0, 42, 80
3, 165600, Note_on_c, 0, 54, 95
3, 165600, Note_on_c, 0, 49, 95
3, 165600, Note_on_c, 0, 42, 95
3, 166080, Note_off_c, 0, 54, 80
3, 166080, Note_off_c, 0, 49, 80
3, 166080, Note_off_c, 0, 42, 80
3, 166080, Note_on_c, 0, 54, 95
3, 166080, Note_on_c, 0, 49, 95
3, 166080, Note_on_c, 0, 42, 95
3, 166560, Note_off_c, 0, 54, 80
3, 166560, Note_off_c, 0, 49, 80
3, 166560, Note_off_c, 0, 42, 80
3, 166560, Note_on_c, 0, 54, 95
3, 166560, Note_on_c, 0, 49, 95
3, 166560, Note_on_c, 0, 42, 95
3, 167040, Note_off_c, 0, 54, 80
3, 167040, Note_off_c, 0, 49, 80
3, 167040, Note_off_c, 0, 42, 80
3, 167040, Note_on_c, 0, 54, 95
3, 167040, Note_on_c, 0, 49, 95
3, 167040, Note_on_c, 0, 42, 95
3, 167520, Note_off_c, 0, 54, 80
3, 167520, Note_off_c, 0, 49, 80
3, 167520, Note_off_c, 0, 42, 80
3, 167520, Note_on_c, 0, 54, 95
3, 167520, Note_on_c, 0, 49, 95
3, 167520, Note_on_c, 0, 42, 95
3, 168000, Note_off_c, 0, 54, 80
3, 168000, Note_off_c, 0, 49, 80
3, 168000, Note_off_c, 0, 42, 80
3, 168000, Note_on_c, 0, 54, 95
3, 168000, Note_on_c, 0, 49, 95
3, 168000, Note_on_c, 0, 42, 95
3, 168480, Note_off_c, 0, 54, 80
3, 168480, Note_off_c, 0, 49, 80
3, 168480, Note_off_c, 0, 42, 80
3, 168480, Note_on_c, 0, 54, 95
3, 168480, Note_on_c, 0, 49, 95
3, 168480, Note_on_c, 0, 42, 95
3, 168960, Note_off_c, 0, 54, 80
3, 168960, Note_off_c, 0, 49, 80
3, 168960, Note_off_c, 0, 42, 80
3, 168960, Note_on_c, 0, 54, 95
3, 168960, Note_on_c, 0, 49, 95
3, 168960, Note_on_c, 0, 42, 95
3, 169440, Note_off_c, 0, 54, 80
3, 169440, Note_off_c, 0, 49, 80
3, 169440, Note_off_c, 0, 42, 80
3, 169440, Note_on_c, 0, 54, 95
3, 169440, Note_on_c, 0, 49, 95
3, 169440, Note_on_c, 0, 42, 95
3, 169920, Note_off_c, 0, 54, 80
3, 169920, Note_off_c, 0, 49, 80
3, 169920, Note_off_c, 0, 42, 80
3, 169920, Note_on_c, 0, 54, 95
3, 169920, Note_on_c, 0, 49, 95
3, 169920, Note_on_c, 0, 42, 95
3, 170400, Note_off_c, 0, 54, 80
3, 170400, Note_off_c, 0, 49, 80
3, 170400, Note_off_c, 0, 42, 80
3, 170400, Note_on_c, 0, 54, 95
3, 170400, Note_on_c, 0, 49, 95
3, 170400, Note_on_c, 0, 42, 95
3, 170880, Note_off_c, 0, 54, 80
3, 170880, Note_off_c, 0, 49, 80
3, 170880, Note_off_c, 0, 42, 80
3, 170880, Note_on_c, 0, 54, 95
3, 170880, Note_on_c, 0, 49, 95
3, 170880, Note_on_c, 0, 42, 95
3, 171360, Note_off_c, 0, 54, 80
3, 171360, Note_off_c, 0, 49, 80
3, 171360, Note_off_c, 0, 42, 80
3, 171360, Note_on_c, 0, 54, 95
3, 171360, Note_on_c, 0, 49, 95
3, 171360, Note_on_c, 0, 42, 95
3, 171840, Note_off_c, 0, 54, 80
3, 171840, Note_off_c, 0, 49, 80
3, 171840, Note_off_c, 0, 42, 80
3, 171840, Note_on_c, 0, 54, 95
3, 171840, Note_on_c, 0, 49, 95
3, 171840, Note_on_c, 0, 42, 95
3, 172320, Note_off_c, 0, 54, 80
3, 172320, Note_off_c, 0, 49, 80
3, 172320, Note_off_c, 0, 42, 80
3, 172320, Note_on_c, 0, 54, 95
3, 172320, Note_on_c, 0, 49, 95
3, 172320, Note_on_c, 0, 42, 95
3, 172800, Note_off_c, 0, 54, 80
3, 172800, Note_off_c, 0, 49, 80
3, 172800, Note_off_c, 0, 42, 80
3, 172800, Note_on_c, 0, 57, 95
3, 172800, Note_on_c, 0, 52, 95
3, 172800, Note_on_c, 0, 45, 95
3, 173280, Note_off_c, 0, 57, 80
3, 173280, Note_off_c, 0, 52, 80
3, 173280, Note_off_c, 0, 45, 80
3, 173280, Note_on_c, 0, 57, 95
3, 173280, Note_on_c, 0, 52, 95
3, 173280, Note_on_c, 0, 45, 95
3, 173760, Note_off_c, 0, 57, 80
3, 173760, Note_off_c, 0, 52, 80
3, 173760, Note_off_c, 0, 45, 80
3, 173760, Note_on_c, 0, 57, 95
3, 173760, Note_on_c, 0, 52, 95
3, 173760, Note_on_c, 0, 45, 95
3, 174240, Note_off_c, 0, 57, 80
3, 174240, Note_off_c, 0, 52, 80
3, 174240, Note_off_c, 0, 45, 80
3, 174240, Note_on_c, 0, 57, 95
3, 174240, Note_on_c, 0, 52, 95
3, 174240, Note_on_c, 0, 45, 95
3, 174720, Note_off_c, 0, 57, 80
3, 174720, Note_off_c, 0, 52, 80
3, 174720, Note_off_c, 0, 45, 80
3, 174720, Note_on_c, 0, 57, 95
3, 174720, Note_on_c, 0, 52, 95
3, 174720, Note_on_c, 0, 45, 95
3, 175200, Note_off_c, 0, 57, 80
3, 175200, Note_off_c, 0, 52, 80
3, 175200, Note_off_c, 0, 45, 80
3, 175200, Note_on_c, 0, 57, 95
3, 175200, Note_on_c, 0, 52, 95
3, 175200, Note_on_c, 0, 45, 95
3, 175680, Note_off_c, 0, 57, 80
3, 175680, Note_off_c, 0, 52, 80
3, 175680, Note_off_c, 0, 45, 80
3, 175680, Note_on_c, 0, 57, 95
3, 175680, Note_on_c, 0, 52, 95
3, 175680, Note_on_c, 0, 45, 95
3, 176160, Note_off_c, 0, 57, 80
3, 176160, Note_off_c, 0, 52, 80
3, 176160, Note_off_c, 0, 45, 80
3, 176160, Note_on_c, 0, 57, 95
3, 176160, Note_on_c, 0, 52, 95
3, 176160, Note_on_c, 0, 45, 95
3, 176640, Note_off_c, 0, 57, 80
3, 176640, Note_off_c, 0, 52, 80
3, 176640, Note_off_c, 0, 45, 80
3, 176640, Note_on_c, 0, 64, 95
3, 176640, Note_on_c, 0, 59, 95
3, 176640, Note_on_c, 0, 52, 95
3, 177120, Note_off_c, 0, 64, 80
3, 177120, Note_off_c, 0, 59, 80
3, 177120, Note_off_c, 0, 52, 80
3, 177120, Note_on_c, 0, 64, 95
3, 177120, Note_on_c, 0, 59, 95
3, 177120, Note_on_c, 0, 52, 95
3, 177600, Note_off_c, 0, 64, 80
3, 177600, Note_off_c, 0, 59, 80
3, 177600, Note_off_c, 0, 52, 80
3, 177600, Note_on_c, 0, 64, 95
3, 177600, Note_on_c, 0, 59, 95
3, 177600, Note_on_c, 0, 52, 95
3, 178080, Note_off_c, 0, 64, 80
3, 178080, Note_off_c, 0, 59, 80
3, 178080, Note_off_c, 0, 52, 80
3, 178080, Note_on_c, 0, 64, 95
3, 178080, Note_on_c, 0, 59, 95
3, 178080, Note_on_c, 0, 52, 95
3, 178560, Note_off_c, 0, 64, 80
3, 178560, Note_off_c, 0, 59, 80
3, 178560, Note_off_c, 0, 52, 80
3, 178560, Note_on_c, 0, 64, 95
3, 178560, Note_on_c, 0, 59, 95
3, 178560, Note_on_c, 0, 52, 95
3, 179040, Note_off_c, 0, 64, 80
3, 179040, Note_off_c, 0, 59, 80
3, 179040, Note_off_c, 0, 52, 80
3, 179040, Note_on_c, 0, 64, 95
3, 179040, Note_on_c, 0, 59, 95
3, 179040, Note_on_c, 0, 52, 95
3, 179520, Note_off_c, 0, 64, 80
3, 179520, Note_off_c, 0, 59, 80
3, 179520, Note_off_c, 0, 52, 80
3, 179520, Note_on_c, 0, 64, 95
3, 179520, Note_on_c, 0, 59, 95
3, 179520, Note_on_c, 0, 52, 95
3, 180000, Note_off_c, 0, 64, 80
3, 180000, Note_off_c, 0, 59, 80
3, 180000, Note_off_c, 0, 52, 80
3, 180000, Note_on_c, 0, 64, 95
3, 180000, Note_on_c, 0, 59, 95
3, 180000, Note_on_c, 0, 52, 95
3, 180480, Note_off_c, 0, 64, 80
3, 180480, Note_off_c, 0, 59, 80
3, 180480, Note_off_c, 0, 52, 80
3, 180480, Note_on_c, 0, 61, 95
3, 180480, Note_on_c, 0, 56, 95
3, 180480, Note_on_c, 0, 49, 95
3, 180960, Note_off_c, 0, 61, 80
3, 180960, Note_off_c, 0, 56, 80
3, 180960, Note_off_c, 0, 49, 80
3, 180960, Note_on_c, 0, 61, 95
3, 180960, Note_on_c, 0, 56, 95
3, 180960, Note_on_c, 0, 49, 95
3, 181440, Note_off_c, 0, 61, 80
3, 181440, Note_off_c, 0, 56, 80
3, 181440, Note_off_c, 0, 49, 80
3, 181440, Note_on_c, 0, 61, 95
3, 181440, Note_on_c, 0, 56, 95
3, 181440, Note_on_c, 0, 49, 95
3, 181920, Note_off_c, 0, 61, 80
3, 181920, Note_off_c, 0, 56, 80
3, 181920, Note_off_c, 0, 49, 80
3, 181920, Note_on_c, 0, 61, 95
3, 181920, Note_on_c, 0, 56, 95
3, 181920, Note_on_c, 0, 49, 95
3, 182400, Note_off_c, 0, 61, 80
3, 182400, Note_off_c, 0, 56, 80
3, 182400, Note_off_c, 0, 49, 80
3, 182400, Note_on_c, 0, 61, 95
3, 182400, Note_on_c, 0, 56, 95
3, 182400, Note_on_c, 0, 49, 95
3, 182880, Note_off_c, 0, 61, 80
3, 182880, Note_off_c, 0, 56, 80
3, 182880, Note_off_c, 0, 49, 80
3, 182880, Note_on_c, 0, 61, 95
3, 182880, Note_on_c, 0, 56, 95
3, 182880, Note_on_c, 0, 49, 95
3, 183360, Note_off_c, 0, 61, 80
3, 183360, Note_off_c, 0, 56, 80
3, 183360, Note_off_c, 0, 49, 80
3, 183360, Note_on_c, 0, 61, 95
3, 183360, Note_on_c, 0, 56, 95
3, 183360, Note_on_c, 0, 49, 95
3, 183840, Note_off_c, 0, 61, 80
3, 183840, Note_off_c, 0, 56, 80
3, 183840, Note_off_c, 0, 49, 80
3, 183840, Note_on_c, 0, 61, 95
3, 183840, Note_on_c, 0, 56, 95
3, 183840, Note_on_c, 0, 49, 95
3, 184320, Note_off_c, 0, 61, 80
3, 184320, Note_off_c, 0, 56, 80
3, 184320, Note_off_c, 0, 49, 80
3, 184320, Note_on_c, 0, 57, 95
3, 184320, Note_on_c, 0, 52, 95
3, 184320, Note_on_c, 0, 45, 95
3, 184800, Note_off_c, 0, 57, 80
3, 184800, Note_off_c, 0, 52, 80
3, 184800, Note_off_c, 0, 45, 80
3, 184800, Note_on_c, 0, 57, 95
3, 184800, Note_on_c, 0, 52, 95
3, 184800, Note_on_c, 0, 45, 95
3, 185280, Note_off_c, 0, 57, 80
3, 185280, Note_off_c, 0, 52, 80
3, 185280, Note_off_c, 0, 45, 80
3, 185280, Note_on_c, 0, 57, 95
3, 185280, Note_on_c, 0, 52, 95
3, 185280, Note_on_c, 0, 45, 95
3, 185760, Note_off_c, 0, 57, 80
3, 185760, Note_off_c, 0, 52, 80
3, 185760, Note_off_c, 0, 45, 80
3, 185760, Note_on_c, 0, 57, 95
3, 185760, Note_on_c, 0, 52, 95
3, 185760, Note_on_c, 0, 45, 95
3, 186240, Note_off_c, 0, 57, 80
3, 186240, Note_off_c, 0, 52, 80
3, 186240, Note_off_c, 0, 45, 80
3, 186240, Note_on_c, 0, 57, 95
3, 186240, Note_on_c, 0, 52, 95
3, 186240, Note_on_c, 0, 45, 95
3, 186720, Note_off_c, 0, 57, 80
3, 186720, Note_off_c, 0, 52, 80
3, 186720, Note_off_c, 0, 45, 80
3, 186720, Note_on_c, 0, 57, 95
3, 186720, Note_on_c, 0, 52, 95
3, 186720, Note_on_c, 0, 45, 95
3, 187200, Note_off_c, 0, 57, 80
3, 187200, Note_off_c, 0, 52, 80
3, 187200, Note_off_c, 0, 45, 80
3, 187200, Note_on_c, 0, 57, 95
3, 187200, Note_on_c, 0, 52, 95
3, 187200, Note_on_c, 0, 45, 95
3, 187680, Note_off_c, 0, 57, 80
3, 187680, Note_off_c, 0, 52, 80
3, 187680, Note_off_c, 0, 45, 80
3, 187680, Note_on_c, 0, 57, 95
3, 187680, Note_on_c, 0, 52, 95
3, 187680, Note_on_c, 0, 45, 95
3, 188160, Note_off_c, 0, 57, 80
3, 188160, Note_off_c, 0, 52, 80
3, 188160, Note_off_c, 0, 45, 80
3, 188160, Note_on_c, 0, 52, 95
3, 188160, Note_on_c, 0, 47, 95
3, 188160, Note_on_c, 0, 40, 95
3, 188640, Note_off_c, 0, 52, 80
3, 188640, Note_off_c, 0, 47, 80
3, 188640, Note_off_c, 0, 40, 80
3, 188640, Note_on_c, 0, 52, 95
3, 188640, Note_on_c, 0, 47, 95
3, 188640, Note_on_c, 0, 40, 95
3, 189120, Note_off_c, 0, 52, 80
3, 189120, Note_off_c, 0, 47, 80
3, 189120, Note_off_c, 0, 40, 80
3, 189120, Note_on_c, 0, 52, 95
3, 189120, Note_on_c, 0, 47, 95
3, 189120, Note_on_c, 0, 40, 95
3, 189600, Note_off_c, 0, 52, 80
3, 189600, Note_off_c, 0, 47, 80
3, 189600, Note_off_c, 0, 40, 80
3, 189600, Note_on_c, 0, 52, 95
3, 189600, Note_on_c, 0, 47, 95
3, 189600, Note_on_c, 0, 40, 95
3, 190080, Note_off_c, 0, 52, 80
3, 190080, Note_off_c, 0, 47, 80
3, 190080, Note_off_c, 0, 40, 80
3, 190080, Note_on_c, 0, 52, 95
3, 190080, Note_on_c, 0, 47, 95
3, 190080, Note_on_c, 0, 40, 95
3, 190560, Note_off_c, 0, 52, 80
3, 190560, Note_off_c, 0, 47, 80
3, 190560, Note_off_c, 0, 40, 80
3, 190560, Note_on_c, 0, 52, 95
3, 190560, Note_on_c, 0, 47, 95
3, 190560, Note_on_c, 0, 40, 95
3, 191040, Note_off_c, 0, 52, 80
3, 191040, Note_off_c, 0, 47, 80
3, 191040, Note_off_c, 0, 40, 80
3, 191040, Note_on_c, 0, 52, 95
3, 191040, Note_on_c, 0, 47, 95
3, 191040, Note_on_c, 0, 40, 95
3, 191520, Note_off_c, 0, 52, 80
3, 191520, Note_off_c, 0, 47, 80
3, 191520, Note_off_c, 0, 40, 80
3, 191520, Note_on_c, 0, 52, 95
3, 191520, Note_on_c, 0, 47, 95
3, 191520, Note_on_c, 0, 40, 95
3, 192000, Note_off_c, 0, 52, 80
3, 192000, Note_off_c, 0, 47, 80
3, 192000, Note_off_c, 0, 40, 80
3, 192000, Note_on_c, 0, 54, 95
3, 192000, Note_on_c, 0, 49, 95
3, 192000, Note_on_c, 0, 42, 95
3, 192480, Note_off_c, 0, 54, 80
3, 192480, Note_off_c, 0, 49, 80
3, 192480, Note_off_c, 0, 42, 80
3, 192480, Note_on_c, 0, 54, 95
3, 192480, Note_on_c, 0, 49, 95
3, 192480, Note_on_c, 0, 42, 95
3, 192960, Note_off_c, 0, 54, 80
3, 192960, Note_off_c, 0, 49, 80
3, 192960, Note_off_c, 0, 42, 80
3, 192960, Note_on_c, 0, 54, 95
3, 192960, Note_on_c, 0, 49, 95
3, 192960, Note_on_c, 0, 42, 95
3, 193440, Note_off_c, 0, 54, 80
3, 193440, Note_off_c, 0, 49, 80
3, 193440, Note_off_c, 0, 42, 80
3, 193440, Note_on_c, 0, 54, 95
3, 193440, Note_on_c, 0, 49, 95
3, 193440, Note_on_c, 0, 42, 95
3, 193920, Note_off_c, 0, 54, 80
3, 193920, Note_off_c, 0, 49, 80
3, 193920, Note_off_c, 0, 42, 80
3, 193920, Note_on_c, 0, 54, 95
3, 193920, Note_on_c, 0, 49, 95
3, 193920, Note_on_c, 0, 42, 95
3, 194400, Note_off_c, 0, 54, 80
3, 194400, Note_off_c, 0, 49, 80
3, 194400, Note_off_c, 0, 42, 80
3, 194400, Note_on_c, 0, 54, 95
3, 194400, Note_on_c, 0, 49, 95
3, 194400, Note_on_c, 0, 42, 95
3, 194880, Note_off_c, 0, 54, 80
3, 194880, Note_off_c, 0, 49, 80
3, 194880, Note_off_c, 0, 42, 80
3, 194880, Note_on_c, 0, 54, 95
3, 194880, Note_on_c, 0, 49, 95
3, 194880, Note_on_c, 0, 42, 95
3, 195360, Note_off_c, 0, 54, 80
3, 195360, Note_off_c, 0, 49, 80
3, 195360, Note_off_c, 0, 42, 80
3, 195360, Note_on_c, 0, 54, 95
3, 195360, Note_on_c, 0, 49, 95
3, 195360, Note_on_c, 0, 42, 95
3, 195840, Note_off_c, 0, 54, 80
3, 195840, Note_off_c, 0, 49, 80
3, 195840, Note_off_c, 0, 42, 80
3, 195840, Note_on_c, 0, 54, 95
3, 195840, Note_on_c, 0, 49, 95
3, 195840, Note_on_c, 0, 42, 95
3, 196320, Note_off_c, 0, 54, 80
3, 196320, Note_off_c, 0, 49, 80
3, 196320, Note_off_c, 0, 42, 80
3, 196320, Note_on_c, 0, 54, 95
3, 196320, Note_on_c, 0, 49, 95
3, 196320, Note_on_c, 0, 42, 95
3, 196800, Note_off_c, 0, 54, 80
3, 196800, Note_off_c, 0, 49, 80
3, 196800, Note_off_c, 0, 42, 80
3, 196800, Note_on_c, 0, 54, 95
3, 196800, Note_on_c, 0, 49, 95
3, 196800, Note_on_c, 0, 42, 95
3, 197280, Note_off_c, 0, 54, 80
3, 197280, Note_off_c, 0, 49, 80
3, 197280, Note_off_c, 0, 42, 80
3, 197280, Note_on_c, 0, 54, 95
3, 197280, Note_on_c, 0, 49, 95
3, 197280, Note_on_c, 0, 42, 95
3, 197760, Note_off_c, 0, 54, 80
3, 197760, Note_off_c, 0, 49, 80
3, 197760, Note_off_c, 0, 42, 80
3, 197760, Note_on_c, 0, 54, 95
3, 197760, Note_on_c, 0, 49, 95
3, 197760, Note_on_c, 0, 42, 95
3, 198240, Note_off_c, 0, 54, 80
3, 198240, Note_off_c, 0, 49, 80
3, 198240, Note_off_c, 0, 42, 80
3, 198240, Note_on_c, 0, 54, 95
3, 198240, Note_on_c, 0, 49, 95
3, 198240, Note_on_c, 0, 42, 95
3, 198720, Note_off_c, 0, 54, 80
3, 198720, Note_off_c, 0, 49, 80
3, 198720, Note_off_c, 0, 42, 80
3, 198720, Note_on_c, 0, 54, 95
3, 198720, Note_on_c, 0, 49, 95
3, 198720, Note_on_c, 0, 42, 95
3, 199200, Note_off_c, 0, 54, 80
3, 199200, Note_off_c, 0, 49, 80
3, 199200, Note_off_c, 0, 42, 80
3, 199200, Note_on_c, 0, 54, 95
3, 199200, Note_on_c, 0, 49, 95
3, 199200, Note_on_c, 0, 42, 95
3, 199680, Note_off_c, 0, 54, 80
3, 199680, Note_off_c, 0, 49, 80
3, 199680, Note_off_c, 0, 42, 80
3, 199680, Note_on_c, 0, 57, 95
3, 199680, Note_on_c, 0, 52, 95
3, 199680, Note_on_c, 0, 45, 95
3, 200160, Note_off_c, 0, 57, 80
3, 200160, Note_off_c, 0, 52, 80
3, 200160, Note_off_c, 0, 45, 80
3, 200160, Note_on_c, 0, 57, 95
3, 200160, Note_on_c, 0, 52, 95
3, 200160, Note_on_c, 0, 45, 95
3, 200640, Note_off_c, 0, 57, 80
3, 200640, Note_off_c, 0, 52, 80
3, 200640, Note_off_c, 0, 45, 80
3, 200640, Note_on_c, 0, 57, 95
3, 200640, Note_on_c, 0, 52, 95
3, 200640, Note_on_c, 0, 45, 95
3, 201120, Note_off_c, 0, 57, 80
3, 201120, Note_off_c, 0, 52, 80
3, 201120, Note_off_c, 0, 45, 80
3, 201120, Note_on_c, 0, 57, 95
3, 201120, Note_on_c, 0, 52, 95
3, 201120, Note_on_c, 0, 45, 95
3, 201600, Note_off_c, 0, 57, 80
3, 201600, Note_off_c, 0, 52, 80
3, 201600, Note_off_c, 0, 45, 80
3, 201600, Note_on_c, 0, 57, 95
3, 201600, Note_on_c, 0, 52, 95
3, 201600, Note_on_c, 0, 45, 95
3, 202080, Note_off_c, 0, 57, 80
3, 202080, Note_off_c, 0, 52, 80
3, 202080, Note_off_c, 0, 45, 80
3, 202080, Note_on_c, 0, 57, 95
3, 202080, Note_on_c, 0, 52, 95
3, 202080, Note_on_c, 0, 45, 95
3, 202560, Note_off_c, 0, 57, 80
3, 202560, Note_off_c, 0, 52, 80
3, 202560, Note_off_c, 0, 45, 80
3, 202560, Note_on_c, 0, 57, 95
3, 202560, Note_on_c, 0, 52, 95
3, 202560, Note_on_c, 0, 45, 95
3, 203040, Note_off_c, 0, 57, 80
3, 203040, Note_off_c, 0, 52, 80
3, 203040, Note_off_c, 0, 45, 80
3, 203040, Note_on_c, 0, 57, 95
3, 203040, Note_on_c, 0, 52, 95
3, 203040, Note_on_c, 0, 45, 95
3, 203520, Note_off_c, 0, 57, 80
3, 203520, Note_off_c, 0, 52, 80
3, 203520, Note_off_c, 0, 45, 80
3, 203520, Note_on_c, 0, 52, 95
3, 203520, Note_on_c, 0, 47, 95
3, 203520, Note_on_c, 0, 40, 95
3, 204000, Note_off_c, 0, 52, 80
3, 204000, Note_off_c, 0, 47, 80
3, 204000, Note_off_c, 0, 40, 80
3, 204000, Note_on_c, 0, 52, 95
3, 204000, Note_on_c, 0, 47, 95
3, 204000, Note_on_c, 0, 40, 95
3, 204480, Note_off_c, 0, 52, 80
3, 204480, Note_off_c, 0, 47, 80
3, 204480, Note_off_c, 0, 40, 80
3, 204480, Note_on_c, 0, 52, 95
3, 204480, Note_on_c, 0, 47, 95
3, 204480, Note_on_c, 0, 40, 95
3, 204960, Note_off_c, 0, 52, 80
3, 204960, Note_off_c, 0, 47, 80
3, 204960, Note_off_c, 0, 40, 80
3, 204960, Note_on_c, 0, 52, 95
3, 204960, Note_on_c, 0, 47, 95
3, 204960, Note_on_c, 0, 40, 95
3, 205440, Note_off_c, 0, 52, 80
3, 205440, Note_off_c, 0, 47, 80
3, 205440, Note_off_c, 0, 40, 80
3, 205440, Note_on_c, 0, 52, 95
3, 205440, Note_on_c, 0, 47, 95
3, 205440, Note_on_c, 0, 40, 95
3, 205920, Note_off_c, 0, 52, 80
3, 205920, Note_off_c, 0, 47, 80
3, 205920, Note_off_c, 0, 40, 80
3, 205920, Note_on_c, 0, 52, 95
3, 205920, Note_on_c, 0, 47, 95
3, 205920, Note_on_c, 0, 40, 95
3, 206400, Note_off_c, 0, 52, 80
3, 206400, Note_off_c, 0, 47, 80
3, 206400, Note_off_c, 0, 40, 80
3, 206400, Note_on_c, 0, 52, 95
3, 206400, Note_on_c, 0, 47, 95
3, 206400, Note_on_c, 0, 40, 95
3, 206880, Note_off_c, 0, 52, 80
3, 206880, Note_off_c, 0, 47, 80
3, 206880, Note_off_c, 0, 40, 80
3, 206880, Note_on_c, 0, 52, 95
3, 206880, Note_on_c, 0, 47, 95
3, 206880, Note_on_c, 0, 40, 95
3, 207360, Note_off_c, 0, 52, 80
3, 207360, Note_off_c, 0, 47, 80
3, 207360, Note_off_c, 0, 40, 80
3, 207360, Note_on_c, 0, 54, 95
3, 207360, Note_on_c, 0, 49, 95
3, 207360, Note_on_c, 0, 42, 95
3, 207840, Note_off_c, 0, 54, 80
3, 207840, Note_off_c, 0, 49, 80
3, 207840, Note_off_c, 0, 42, 80
3, 207840, Note_on_c, 0, 54, 95
3, 207840, Note_on_c, 0, 49, 95
3, 207840, Note_on_c, 0, 42, 95
3, 208320, Note_off_c, 0, 54, 80
3, 208320, Note_off_c, 0, 49, 80
3, 208320, Note_off_c, 0, 42, 80
3, 209280, Note_on_c, 0, 54, 95
3, 209280, Note_on_c, 0, 49, 95
3, 209280, Note_on_c, 0, 42, 95
3, 209760, Note_off_c, 0, 54, 80
3, 209760, Note_off_c, 0, 49, 80
3, 209760, Note_off_c, 0, 42, 80
3, 209760, Note_on_c, 0, 54, 95
3, 209760, Note_on_c, 0, 49, 95
3, 209760, Note_on_c, 0, 42, 95
3, 210240, Note_off_c, 0, 54, 80
3, 210240, Note_off_c, 0, 49, 80
3, 210240, Note_off_c, 0, 42, 80
3, 211200, Note_on_c, 0, 54, 95
3, 211200, Note_on_c, 0, 49, 95
3, 211200, Note_on_c, 0, 42, 95
3, 211680, Note_off_c, 0, 54, 80
3, 211680, Note_off_c, 0, 49, 80
3, 211680, Note_off_c, 0, 42, 80
3, 211680, Note_on_c, 0, 54, 95
3, 211680, Note_on_c, 0, 49, 95
3, 211680, Note_on_c, 0, 42, 95
3, 212160, Note_off_c, 0, 54, 80
3, 212160, Note_off_c, 0, 49, 80
3, 212160, Note_off_c, 0, 42, 80
3, 213120, Note_on_c, 0, 54, 95
3, 213120, Note_on_c, 0, 49, 95
3, 213120, Note_on_c, 0, 42, 95
3, 213600, Note_off_c, 0, 54, 80
3, 213600, Note_off_c, 0, 49, 80
3, 213600, Note_off_c, 0, 42, 80
3, 213600, Note_on_c, 0, 54, 95
3, 213600, Note_on_c, 0, 49, 95
3, 213600, Note_on_c, 0, 42, 95
3, 214080, Note_off_c, 0, 54, 80
3, 214080, Note_off_c, 0, 49, 80
3, 214080, Note_off_c, 0, 42, 80
3, 215040, Note_on_c, 0, 54, 95
3, 215040, Note_on_c, 0, 49, 95
3, 215040, Note_on_c, 0, 42, 95
3, 215520, Note_off_c, 0, 54, 80
3, 215520, Note_off_c, 0, 49, 80
3, 215520, Note_off_c, 0, 42, 80
3, 215520, Note_on_c, 0, 54, 95
3, 215520, Note_on_c, 0, 49, 95
3, 215520, Note_on_c, 0, 42, 95
3, 216000, Note_off_c, 0, 54, 80
3, 216000, Note_off_c, 0, 49, 80
3, 216000, Note_off_c, 0, 42, 80
3, 216960, Note_on_c, 0, 54, 95
3, 216960, Note_on_c, 0, 49, 95
3, 216960, Note_on_c, 0, 42, 95
3, 217440, Note_off_c, 0, 54, 80
3, 217440, Note_off_c, 0, 49, 80
3, 217440, Note_off_c, 0, 42, 80
3, 217440, Note_on_c, 0, 54, 95
3, 217440, Note_on_c, 0, 49, 95
3, 217440, Note_on_c, 0, 42, 95
3, 217920, Note_off_c, 0, 54, 80
3, 217920, Note_off_c, 0, 49, 80
3, 217920, Note_off_c, 0, 42, 80
3, 218880, Note_on_c, 0, 54, 95
3, 218880, Note_on_c, 0, 49, 95
3, 218880, Note_on_c, 0, 42, 95
3, 219360, Note_off_c, 0, 54, 80
3, 219360, Note_off_c, 0, 49, 80
3, 219360, Note_off_c, 0, 42, 80
3, 219360, Note_on_c, 0, 54, 95
3, 219360, Note_on_c, 0, 49, 95
3, 219360, Note_on_c, 0, 42, 95
3, 219840, Note_off_c, 0, 54, 80
3, 219840, Note_off_c, 0, 49, 80
3, 219840, Note_off_c, 0, 42, 80
3, 220800, Note_on_c, 0, 54, 95
3, 220800, Note_on_c, 0, 49, 95
3, 220800, Note_on_c, 0, 42, 95
3, 221280, Note_off_c, 0, 54, 80
3, 221280, Note_off_c, 0, 49, 80
3, 221280, Note_off_c, 0, 42, 80
3, 221280, Note_on_c, 0, 54, 95
3, 221280, Note_on_c, 0, 49, 95
3, 221280, Note_on_c, 0, 42, 95
3, 221760, Note_off_c, 0, 54, 80
3, 221760, Note_off_c, 0, 49, 80
3, 221760, Note_off_c, 0, 42, 80
3, 222720, Note_on_c, 0, 54, 95
3, 222720, Note_on_c, 0, 49, 95
3, 222720, Note_on_c, 0, 42, 95
3, 223200, Note_off_c, 0, 54, 80
3, 223200, Note_off_c, 0, 49, 80
3, 223200, Note_off_c, 0, 42, 80
3, 223200, Note_on_c, 0, 54, 95
3, 223200, Note_on_c, 0, 49, 95
3, 223200, Note_on_c, 0, 42, 95
3, 223680, Note_off_c, 0, 54, 80
3, 223680, Note_off_c, 0, 49, 80
3, 223680, Note_off_c, 0, 42, 80
3, 223680, Note_on_c, 0, 54, 95
3, 223680, Note_on_c, 0, 49, 95
3, 223680, Note_on_c, 0, 42, 95
3, 224160, Note_off_c, 0, 54, 80
3, 224160, Note_off_c, 0, 49, 80
3, 224160, Note_off_c, 0, 42, 80
3, 224160, Note_on_c, 0, 54, 95
3, 224160, Note_on_c, 0, 49, 95
3, 224160, Note_on_c, 0, 42, 95
3, 224640, Note_off_c, 0, 54, 80
3, 224640, Note_off_c, 0, 49, 80
3, 224640, Note_off_c, 0, 42, 80
3, 224640, Note_on_c, 0, 54, 95
3, 224640, Note_on_c, 0, 49, 95
3, 224640, Note_on_c, 0, 42, 95
3, 225120, Note_off_c, 0, 54, 80
3, 225120, Note_off_c, 0, 49, 80
3, 225120, Note_off_c, 0, 42, 80
3, 225120, Note_on_c, 0, 54, 95
3, 225120, Note_on_c, 0, 49, 95
3, 225120, Note_on_c, 0, 42, 95
3, 225600, Note_off_c, 0, 54, 80
3, 225600, Note_off_c, 0, 49, 80
3, 225600, Note_off_c, 0, 42, 80
3, 225600, Note_on_c, 0, 54, 95
3, 225600, Note_on_c, 0, 49, 95
3, 225600, Note_on_c, 0, 42, 95
3, 226080, Note_off_c, 0, 54, 80
3, 226080, Note_off_c, 0, 49, 80
3, 226080, Note_off_c, 0, 42, 80
3, 226080, Note_on_c, 0, 54, 95
3, 226080, Note_on_c, 0, 49, 95
3, 226080, Note_on_c, 0, 42, 95
3, 226560, Note_off_c, 0, 54, 80
3, 226560, Note_off_c, 0, 49, 80
3, 226560, Note_off_c, 0, 42, 80
3, 226560, Note_on_c, 0, 54, 95
3, 226560, Note_on_c, 0, 49, 95
3, 226560, Note_on_c, 0, 42, 95
3, 227040, Note_off_c, 0, 54, 80
3, 227040, Note_off_c, 0, 49, 80
3, 227040, Note_off_c, 0, 42, 80
3, 227040, Note_on_c, 0, 54, 95
3, 227040, Note_on_c, 0, 49, 95
3, 227040, Note_on_c, 0, 42, 95
3, 227520, Note_off_c, 0, 54, 80
3, 227520, Note_off_c, 0, 49, 80
3, 227520, Note_off_c, 0, 42, 80
3, 227520, Note_on_c, 0, 54, 95
3, 227520, Note_on_c, 0, 49, 95
3, 227520, Note_on_c, 0, 42, 95
3, 228000, Note_off_c, 0, 54, 80
3, 228000, Note_off_c, 0, 49, 80
3, 228000, Note_off_c, 0, 42, 80
3, 228000, Note_on_c, 0, 54, 95
3, 228000, Note_on_c, 0, 49, 95
3, 228000, Note_on_c, 0, 42, 95
3, 228480, Note_off_c, 0, 54, 80
3, 228480, Note_off_c, 0, 49, 80
3, 228480, Note_off_c, 0, 42, 80
3, 228480, Note_on_c, 0, 54, 95
3, 228480, Note_on_c, 0, 49, 95
3, 228480, Note_on_c, 0, 42, 95
3, 228960, Note_off_c, 0, 54, 80
3, 228960, Note_off_c, 0, 49, 80
3, 228960, Note_off_c, 0, 42, 80
3, 228960, Note_on_c, 0, 54, 95
3, 228960, Note_on_c, 0, 49, 95
3, 228960, Note_on_c, 0, 42, 95
3, 229440, Note_off_c, 0, 54, 80
3, 229440, Note_off_c, 0, 49, 80
3, 229440, Note_off_c, 0, 42, 80
3, 229440, Note_on_c, 0, 54, 95
3, 229440, Note_on_c, 0, 49, 95
3, 229440, Note_on_c, 0, 42, 95
3, 229920, Note_off_c, 0, 54, 80
3, 229920, Note_off_c, 0, 49, 80
3, 229920, Note_off_c, 0, 42, 80
3, 229920, Note_on_c, 0, 54, 95
3, 229920, Note_on_c, 0, 49, 95
3, 229920, Note_on_c, 0, 42, 95
3, 230400, Note_off_c, 0, 54, 80
3, 230400, Note_off_c, 0, 49, 80
3, 230400, Note_off_c, 0, 42, 80
3, 230400, Note_on_c, 0, 54, 95
3, 230400, Note_on_c, 0, 49, 95
3, 230400, Note_on_c, 0, 42, 95
3, 230880, Note_off_c, 0, 54, 80
3, 230880, Note_off_c, 0, 49, 80
3, 230880, Note_off_c, 0, 42, 80
3, 230880, Note_on_c, 0, 54, 95
3, 230880, Note_on_c, 0, 49, 95
3, 230880, Note_on_c, 0, 42, 95
3, 231360, Note_off_c, 0, 54, 80
3, 231360, Note_off_c, 0, 49, 80
3, 231360, Note_off_c, 0, 42, 80
3, 231360, Note_on_c, 0, 54, 95
3, 231360, Note_on_c, 0, 49, 95
3, 231360, Note_on_c, 0, 42, 95
3, 231840, Note_off_c, 0, 54, 80
3, 231840, Note_off_c, 0, 49, 80
3, 231840, Note_off_c, 0, 42, 80
3, 231840, Note_on_c, 0, 54, 95
3, 231840, Note_on_c, 0, 49, 95
3, 231840, Note_on_c, 0, 42, 95
3, 232320, Note_off_c, 0, 54, 80
3, 232320, Note_off_c, 0, 49, 80
3, 232320, Note_off_c, 0, 42, 80
3, 232320, Note_on_c, 0, 54, 95
3, 232320, Note_on_c, 0, 49, 95
3, 232320, Note_on_c, 0, 42, 95
3, 232800, Note_off_c, 0, 54, 80
3, 232800, Note_off_c, 0, 49, 80
3, 232800, Note_off_c, 0, 42, 80
3, 232800, Note_on_c, 0, 54, 95
3, 232800, Note_on_c, 0, 49, 95
3, 232800, Note_on_c, 0, 42, 95
3, 233280, Note_off_c, 0, 54, 80
3, 233280, Note_off_c, 0, 49, 80
3, 233280, Note_off_c, 0, 42, 80
3, 233280, Note_on_c, 0, 54, 95
3, 233280, Note_on_c, 0, 49, 95
3, 233280, Note_on_c, 0, 42, 95
3, 233760, Note_off_c, 0, 54, 80
3, 233760, Note_off_c, 0, 49, 80
3, 233760, Note_off_c, 0, 42, 80
3, 233760, Note_on_c, 0, 54, 95
3, 233760, Note_on_c, 0, 49, 95
3, 233760, Note_on_c, 0, 42, 95
3, 234240, Note_off_c, 0, 54, 80
3, 234240, Note_off_c, 0, 49, 80
3, 234240, Note_off_c, 0, 42, 80
3, 234240, Note_on_c, 0, 54, 95
3, 234240, Note_on_c, 0, 49, 95
3, 234240, Note_on_c, 0, 42, 95
3, 234720, Note_off_c, 0, 54, 80
3, 234720, Note_off_c, 0, 49, 80
3, 234720, Note_off_c, 0, 42, 80
3, 234720, Note_on_c, 0, 54, 95
3, 234720, Note_on_c, 0, 49, 95
3, 234720, Note_on_c, 0, 42, 95
3, 235200, Note_off_c, 0, 54, 80
3, 235200, Note_off_c, 0, 49, 80
3, 235200, Note_off_c, 0, 42, 80
3, 235200, Note_on_c, 0, 54, 95
3, 235200, Note_on_c, 0, 49, 95
3, 235200, Note_on_c, 0, 42, 95
3, 235680, Note_off_c, 0, 54, 80
3, 235680, Note_off_c, 0, 49, 80
3, 235680, Note_off_c, 0, 42, 80
3, 235680, Note_on_c, 0, 54, 95
3, 235680, Note_on_c, 0, 49, 95
3, 235680, Note_on_c, 0, 42, 95
3, 236160, Note_off_c, 0, 54, 80
3, 236160, Note_off_c, 0, 49, 80
3, 236160, Note_off_c, 0, 42, 80
3, 236160, Note_on_c, 0, 54, 95
3, 236160, Note_on_c, 0, 49, 95
3, 236160, Note_on_c, 0, 42, 95
3, 236640, Note_off_c, 0, 54, 80
3, 236640, Note_off_c, 0, 49, 80
3, 236640, Note_off_c, 0, 42, 80
3, 236640, Note_on_c, 0, 54, 95
3, 236640, Note_on_c, 0, 49, 95
3, 236640, Note_on_c, 0, 42, 95
3, 237120, Note_off_c, 0, 54, 80
3, 237120, Note_off_c, 0, 49, 80
3, 237120, Note_off_c, 0, 42, 80
3, 237120, Note_on_c, 0, 54, 95
3, 237120, Note_on_c, 0, 49, 95
3, 237120, Note_on_c, 0, 42, 95
3, 237600, Note_off_c, 0, 54, 80
3, 237600, Note_off_c, 0, 49, 80
3, 237600, Note_off_c, 0, 42, 80
3, 237600, Note_on_c, 0, 54, 95
3, 237600, Note_on_c, 0, 49, 95
3, 237600, Note_on_c, 0, 42, 95
3, 238080, Note_off_c, 0, 54, 80
3, 238080, Note_off_c, 0, 49, 80
3, 238080, Note_off_c, 0, 42, 80
3, 238080, Note_on_c, 0, 54, 95
3, 238080, Note_on_c, 0, 49, 95
3, 238080, Note_on_c, 0, 42, 95
3, 238560, Note_off_c, 0, 54, 80
3, 238560, Note_off_c, 0, 49, 80
3, 238560, Note_off_c, 0, 42, 80
3, 241920, Note_on_c, 0, 54, 95
3, 241920, Note_on_c, 0, 49, 95
3, 241920, Note_on_c, 0, 42, 95
3, 242400, Note_off_c, 0, 54, 80
3, 242400, Note_off_c, 0, 49, 80
3, 242400, Note_off_c, 0, 42, 80
3, 242400, Note_on_c, 0, 54, 95
3, 242400, Note_on_c, 0, 49, 95
3, 242400, Note_on_c, 0, 42, 95
3, 242880, Note_off_c, 0, 54, 80
3, 242880, Note_off_c, 0, 49, 80
3, 242880, Note_off_c, 0, 42, 80
3, 242880, Note_on_c, 0, 54, 95
3, 242880, Note_on_c, 0, 49, 95
3, 242880, Note_on_c, 0, 42, 95
3, 243360, Note_off_c, 0, 54, 80
3, 243360, Note_off_c, 0, 49, 80
3, 243360, Note_off_c, 0, 42, 80
3, 243360, Note_on_c, 0, 54, 95
3, 243360, Note_on_c, 0, 49, 95
3, 243360, Note_on_c, 0, 42, 95
3, 243840, Note_off_c, 0, 54, 80
3, 243840, Note_off_c, 0, 49, 80
3, 243840, Note_off_c, 0, 42, 80
3, 243840, Note_on_c, 0, 54, 95
3, 243840, Note_on_c, 0, 49, 95
3, 243840, Note_on_c, 0, 42, 95
3, 244320, Note_off_c, 0, 54, 80
3, 244320, Note_off_c, 0, 49, 80
3, 244320, Note_off_c, 0, 42, 80
3, 244320, Note_on_c, 0, 54, 95
3, 244320, Note_on_c, 0, 49, 95
3, 244320, Note_on_c, 0, 42, 95
3, 244800, Note_off_c, 0, 54, 80
3, 244800, Note_off_c, 0, 49, 80
3, 244800, Note_off_c, 0, 42, 80
3, 244800, Note_on_c, 0, 54, 95
3, 244800, Note_on_c, 0, 49, 95
3, 244800, Note_on_c, 0, 42, 95
3, 245280, Note_off_c, 0, 54, 80
3, 245280, Note_off_c, 0, 49, 80
3, 245280, Note_off_c, 0, 42, 80
3, 245280, Note_on_c, 0, 54, 95
3, 245280, Note_on_c, 0, 49, 95
3, 245280, Note_on_c, 0, 42, 95
3, 245760, Note_off_c, 0, 54, 80
3, 245760, Note_off_c, 0, 49, 80
3, 245760, Note_off_c, 0, 42, 80
3, 245760, Note_on_c, 0, 57, 95
3, 245760, Note_on_c, 0, 52, 95
3, 245760, Note_on_c, 0, 45, 95
3, 246240, Note_off_c, 0, 57, 80
3, 246240, Note_off_c, 0, 52, 80
3, 246240, Note_off_c, 0, 45, 80
3, 246240, Note_on_c, 0, 57, 95
3, 246240, Note_on_c, 0, 52, 95
3, 246240, Note_on_c, 0, 45, 95
3, 246720, Note_off_c, 0, 57, 80
3, 246720, Note_off_c, 0, 52, 80
3, 246720, Note_off_c, 0, 45, 80
3, 246720, Note_on_c, 0, 57, 95
3, 246720, Note_on_c, 0, 52, 95
3, 246720, Note_on_c, 0, 45, 95
3, 247200, Note_off_c, 0, 57, 80
3, 247200, Note_off_c, 0, 52, 80
3, 247200, Note_off_c, 0, 45, 80
3, 247200, Note_on_c, 0, 57, 95
3, 247200, Note_on_c, 0, 52, 95
3, 247200, Note_on_c, 0, 45, 95
3, 247680, Note_off_c, 0, 57, 80
3, 247680, Note_off_c, 0, 52, 80
3, 247680, Note_off_c, 0, 45, 80
3, 247680, Note_on_c, 0, 57, 95
3, 247680, Note_on_c, 0, 52, 95
3, 247680, Note_on_c, 0, 45, 95
3, 248160, Note_off_c, 0, 57, 80
3, 248160, Note_off_c, 0, 52, 80
3, 248160, Note_off_c, 0, 45, 80
3, 248160, Note_on_c, 0, 57, 95
3, 248160, Note_on_c, 0, 52, 95
3, 248160, Note_on_c, 0, 45, 95
3, 248640, Note_off_c, 0, 57, 80
3, 248640, Note_off_c, 0, 52, 80
3, 248640, Note_off_c, 0, 45, 80
3, 248640, Note_on_c, 0, 57, 95
3, 248640, Note_on_c, 0, 52, 95
3, 248640, Note_on_c, 0, 45, 95
3, 249120, Note_off_c, 0, 57, 80
3, 249120, Note_off_c, 0, 52, 80
3, 249120, Note_off_c, 0, 45, 80
3, 249120, Note_on_c, 0, 57, 95
3, 249120, Note_on_c, 0, 52, 95
3, 249120, Note_on_c, 0, 45, 95
3, 249600, Note_off_c, 0, 57, 80
3, 249600, Note_off_c, 0, 52, 80
3, 249600, Note_off_c, 0, 45, 80
3, 249600, Note_on_c, 0, 64, 95
3, 249600, Note_on_c, 0, 59, 95
3, 249600, Note_on_c, 0, 52, 95
3, 250080, Note_off_c, 0, 64, 80
3, 250080, Note_off_c, 0, 59, 80
3, 250080, Note_off_c, 0, 52, 80
3, 250080, Note_on_c, 0, 64, 95
3, 250080, Note_on_c, 0, 59, 95
3, 250080, Note_on_c, 0, 52, 95
3, 250560, Note_off_c, 0, 64, 80
3, 250560, Note_off_c, 0, 59, 80
3, 250560, Note_off_c, 0, 52, 80
3, 250560, Note_on_c, 0, 64, 95
3, 250560, Note_on_c, 0, 59, 95
3, 250560, Note_on_c, 0, 52, 95
3, 251040, Note_off_c, 0, 64, 80
3, 251040, Note_off_c, 0, 59, 80
3, 251040, Note_off_c, 0, 52, 80
3, 251040, Note_on_c, 0, 64, 95
3, 251040, Note_on_c, 0, 59, 95
3, 251040, Note_on_c, 0, 52, 95
3, 251520, Note_off_c, 0, 64, 80
3, 251520, Note_off_c, 0, 59, 80
3, 251520, Note_off_c, 0, 52, 80
3, 251520, Note_on_c, 0, 64, 95
3, 251520, Note_on_c, 0, 59, 95
3, 251520, Note_on_c, 0, 52, 95
3, 252000, Note_off_c, 0, 64, 80
3, 252000, Note_off_c, 0, 59, 80
3, 252000, Note_off_c, 0, 52, 80
3, 252000, Note_on_c, 0, 64, 95
3, 252000, Note_on_c, 0, 59, 95
3, 252000, Note_on_c, 0, 52, 95
3, 252480, Note_off_c, 0, 64, 80
3, 252480, Note_off_c, 0, 59, 80
3, 252480, Note_off_c, 0, 52, 80
3, 252480, Note_on_c, 0, 64, 95
3, 252480, Note_on_c, 0, 59, 95
3, 252480, Note_on_c, 0, 52, 95
3, 252960, Note_off_c, 0, 64, 80
3, 252960, Note_off_c, 0, 59, 80
3, 252960, Note_off_c, 0, 52, 80
3, 252960, Note_on_c, 0, 64, 95
3, 252960, Note_on_c, 0, 59, 95
3, 252960, Note_on_c, 0, 52, 95
3, 253440, Note_off_c, 0, 64, 80
3, 253440, Note_off_c, 0, 59, 80
3, 253440, Note_off_c, 0, 52, 80
3, 253440, Note_on_c, 0, 54, 95
3, 253440, Note_on_c, 0, 49, 95
3, 253440, Note_on_c, 0, 42, 95
3, 253920, Note_off_c, 0, 54, 80
3, 253920, Note_off_c, 0, 49, 80
3, 253920, Note_off_c, 0, 42, 80
3, 253920, Note_on_c, 0, 54, 95
3, 253920, Note_on_c, 0, 49, 95
3, 253920, Note_on_c, 0, 42, 95
3, 254400, Note_off_c, 0, 54, 80
3, 254400, Note_off_c, 0, 49, 80
3, 254400, Note_off_c, 0, 42, 80
3, 254400, Note_on_c, 0, 54, 95
3, 254400, Note_on_c, 0, 49, 95
3, 254400, Note_on_c, 0, 42, 95
3, 254880, Note_off_c, 0, 54, 80
3, 254880, Note_off_c, 0, 49, 80
3, 254880, Note_off_c, 0, 42, 80
3, 254880, Note_on_c, 0, 54, 95
3, 254880, Note_on_c, 0, 49, 95
3, 254880, Note_on_c, 0, 42, 95
3, 255360, Note_off_c, 0, 54, 80
3, 255360, Note_off_c, 0, 49, 80
3, 255360, Note_off_c, 0, 42, 80
3, 255360, Note_on_c, 0, 54, 95
3, 255360, Note_on_c, 0, 49, 95
3, 255360, Note_on_c, 0, 42, 95
3, 255840, Note_off_c, 0, 54, 80
3, 255840, Note_off_c, 0, 49, 80
3, 255840, Note_off_c, 0, 42, 80
3, 255840, Note_on_c, 0, 54, 95
3, 255840, Note_on_c, 0, 49, 95
3, 255840, Note_on_c, 0, 42, 95
3, 256320, Note_off_c, 0, 54, 80
3, 256320, Note_off_c, 0, 49, 80
3, 256320, Note_off_c, 0, 42, 80
3, 256320, Note_on_c, 0, 54, 95
3, 256320, Note_on_c, 0, 49, 95
3, 256320, Note_on_c, 0, 42, 95
3, 256800, Note_off_c, 0, 54, 80
3, 256800, Note_off_c, 0, 49, 80
3, 256800, Note_off_c, 0, 42, 80
3, 256800, Note_on_c, 0, 54, 95
3, 256800, Note_on_c, 0, 49, 95
3, 256800, Note_on_c, 0, 42, 95
3, 257280, Note_off_c, 0, 54, 80
3, 257280, Note_off_c, 0, 49, 80
3, 257280, Note_off_c, 0, 42, 80
3, 257280, Note_on_c, 0, 54, 95
3, 257280, Note_on_c, 0, 49, 95
3, 257280, Note_on_c, 0, 42, 95
3, 257760, Note_off_c, 0, 54, 80
3, 257760, Note_off_c, 0, 49, 80
3, 257760, Note_off_c, 0, 42, 80
3, 257760, Note_on_c, 0, 54, 95
3, 257760, Note_on_c, 0, 49, 95
3, 257760, Note_on_c, 0, 42, 95
3, 258240, Note_off_c, 0, 54, 80
3, 258240, Note_off_c, 0, 49, 80
3, 258240, Note_off_c, 0, 42, 80
3, 258240, Note_on_c, 0, 54, 95
3, 258240, Note_on_c, 0, 49, 95
3, 258240, Note_on_c, 0, 42, 95
3, 258720, Note_off_c, 0, 54, 80
3, 258720, Note_off_c, 0, 49, 80
3, 258720, Note_off_c, 0, 42, 80
3, 258720, Note_on_c, 0, 54, 95
3, 258720, Note_on_c, 0, 49, 95
3, 258720, Note_on_c, 0, 42, 95
3, 259200, Note_off_c, 0, 54, 80
3, 259200, Note_off_c, 0, 49, 80
3, 259200, Note_off_c, 0, 42, 80
3, 259200, Note_on_c, 0, 54, 95
3, 259200, Note_on_c, 0, 49, 95
3, 259200, Note_on_c, 0, 42, 95
3, 259680, Note_off_c, 0, 54, 80
3, 259680, Note_off_c, 0, 49, 80
3, 259680, Note_off_c, 0, 42, 80
3, 259680, Note_on_c, 0, 54, 95
3, 259680, Note_on_c, 0, 49, 95
3, 259680, Note_on_c, 0, 42, 95
3, 260160, Note_off_c, 0, 54, 80
3, 260160, Note_off_c, 0, 49, 80
3, 260160, Note_off_c, 0, 42, 80
3, 260160, Note_on_c, 0, 54, 95
3, 260160, Note_on_c, 0, 49, 95
3, 260160, Note_on_c, 0, 42, 95
3, 260640, Note_off_c, 0, 54, 80
3, 260640, Note_off_c, 0, 49, 80
3, 260640, Note_off_c, 0, 42, 80
3, 260640, Note_on_c, 0, 54, 95
3, 260640, Note_on_c, 0, 49, 95
3, 260640, Note_on_c, 0, 42, 95
3, 261120, Note_off_c, 0, 54, 80
3, 261120, Note_off_c, 0, 49, 80
3, 261120, Note_off_c, 0, 42, 80
3, 261120, Note_on_c, 0, 57, 95
3, 261120, Note_on_c, 0, 52, 95
3, 261120, Note_on_c, 0, 45, 95
3, 261600, Note_off_c, 0, 57, 80
3, 261600, Note_off_c, 0, 52, 80
3, 261600, Note_off_c, 0, 45, 80
3, 261600, Note_on_c, 0, 57, 95
3, 261600, Note_on_c, 0, 52, 95
3, 261600, Note_on_c, 0, 45, 95
3, 262080, Note_off_c, 0, 57, 80
3, 262080, Note_off_c, 0, 52, 80
3, 262080, Note_off_c, 0, 45, 80
3, 262080, Note_on_c, 0, 57, 95
3, 262080, Note_on_c, 0, 52, 95
3, 262080, Note_on_c, 0, 45, 95
3, 262560, Note_off_c, 0, 57, 80
3, 262560, Note_off_c, 0, 52, 80
3, 262560, Note_off_c, 0, 45, 80
3, 262560, Note_on_c, 0, 57, 95
3, 262560, Note_on_c, 0, 52, 95
3, 262560, Note_on_c, 0, 45, 95
3, 263040, Note_off_c, 0, 57, 80
3, 263040, Note_off_c, 0, 52, 80
3, 263040, Note_off_c, 0, 45, 80
3, 263040, Note_on_c, 0, 57, 95
3, 263040, Note_on_c, 0, 52, 95
3, 263040, Note_on_c, 0, 45, 95
3, 263520, Note_off_c, 0, 57, 80
3, 263520, Note_off_c, 0, 52, 80
3, 263520, Note_off_c, 0, 45, 80
3, 263520, Note_on_c, 0, 57, 95
3, 263520, Note_on_c, 0, 52, 95
3, 263520, Note_on_c, 0, 45, 95
3, 264000, Note_off_c, 0, 57, 80
3, 264000, Note_off_c, 0, 52, 80
3, 264000, Note_off_c, 0, 45, 80
3, 264000, Note_on_c, 0, 57, 95
3, 264000, Note_on_c, 0, 52, 95
3, 264000, Note_on_c, 0, 45, 95
3, 264480, Note_off_c, 0, 57, 80
3, 264480, Note_off_c, 0, 52, 80
3, 264480, Note_off_c, 0, 45, 80
3, 264480, Note_on_c, 0, 57, 95
3, 264480, Note_on_c, 0, 52, 95
3, 264480, Note_on_c, 0, 45, 95
3, 264960, Note_off_c, 0, 57, 80
3, 264960, Note_off_c, 0, 52, 80
3, 264960, Note_off_c, 0, 45, 80
3, 264960, Note_on_c, 0, 64, 95
3, 264960, Note_on_c, 0, 59, 95
3, 264960, Note_on_c, 0, 52, 95
3, 265440, Note_off_c, 0, 64, 80
3, 265440, Note_off_c, 0, 59, 80
3, 265440, Note_off_c, 0, 52, 80
3, 265440, Note_on_c, 0, 64, 95
3, 265440, Note_on_c, 0, 59, 95
3, 265440, Note_on_c, 0, 52, 95
3, 265920, Note_off_c, 0, 64, 80
3, 265920, Note_off_c, 0, 59, 80
3, 265920, Note_off_c, 0, 52, 80
3, 265920, Note_on_c, 0, 64, 95
3, 265920, Note_on_c, 0, 59, 95
3, 265920, Note_on_c, 0, 52, 95
3, 266400, Note_off_c, 0, 64, 80
3, 266400, Note_off_c, 0, 59, 80
3, 266400, Note_off_c, 0, 52, 80
3, 266400, Note_on_c, 0, 64, 95
3, 266400, Note_on_c, 0, 59, 95
3, 266400, Note_on_c, 0, 52, 95
3, 266880, Note_off_c, 0, 64, 80
3, 266880, Note_off_c, 0, 59, 80
3, 266880, Note_off_c, 0, 52, 80
3, 266880, Note_on_c, 0, 64, 95
3, 266880, Note_on_c, 0, 59, 95
3, 266880, Note_on_c, 0, 52, 95
3, 267360, Note_off_c, 0, 64, 80
3, 267360, Note_off_c, 0, 59, 80
3, 267360, Note_off_c, 0, 52, 80
3, 267360, Note_on_c, 0, 64, 95
3, 267360, Note_on_c, 0, 59, 95
3, 267360, Note_on_c, 0, 52, 95
3, 267840, Note_off_c, 0, 64, 80
3, 267840, Note_off_c, 0, 59, 80
3, 267840, Note_off_c, 0, 52, 80
3, 267840, Note_on_c, 0, 64, 95
3, 267840, Note_on_c, 0, 59, 95
3, 267840, Note_on_c, 0, 52, 95
3, 268320, Note_off_c, 0, 64, 80
3, 268320, Note_off_c, 0, 59, 80
3, 268320, Note_off_c, 0, 52, 80
3, 268320, Note_on_c, 0, 64, 95
3, 268320, Note_on_c, 0, 59, 95
3, 268320, Note_on_c, 0, 52, 95
3, 268800, Note_off_c, 0, 64, 80
3, 268800, Note_off_c, 0, 59, 80
3, 268800, Note_off_c, 0, 52, 80
3, 268800, Note_on_c, 0, 61, 95
3, 268800, Note_on_c, 0, 56, 95
3, 268800, Note_on_c, 0, 49, 95
3, 272640, Note_off_c, 0, 61, 80
3, 272640, Note_off_c, 0, 56, 80
3, 272640, Note_off_c, 0, 49, 80
3, 272640, Note_on_c, 0, 54, 95
3, 272640, Note_on_c, 0, 49, 95
3, 272640, Note_on_c, 0, 42, 95
3, 280320, Note_off_c, 0, 54, 80
3, 280320, Note_off_c, 0, 49, 80
3, 280320, Note_off_c, 0, 42, 80
3, 280320, End_track
4, 0, Start_track
4, 0, Title_t, "Andy"
4, 0, Control_c, 5, 100, 0
4, 0, Control_c, 5, 101, 0
4, 0, Control_c, 5, 6, 12
4, 0, Pitch_bend_c, 5, 8192
4, 0, Control_c, 5, 101, 0
4, 0, Control_c, 5, 100, 1
4, 0, Control_c, 5, 6, 64
4, 0, Control_c, 5, 38, 0
4, 0, Control_c, 5, 101, 127
4, 0, Control_c, 5, 100, 127
4, 0, Control_c, 4, 100, 0
4, 0, Control_c, 4, 101, 0
4, 0, Control_c, 4, 6, 12
4, 0, Pitch_bend_c, 4, 8192
4, 0, Control_c, 4, 101, 0
4, 0, Control_c, 4, 100, 1
4, 0, Control_c, 4, 6, 64
4, 0, Control_c, 4, 38, 0
4, 0, Control_c, 4, 101, 127
4, 0, Control_c, 4, 100, 127
4, 0, Control_c, 5, 101, 0
4, 0, Control_c, 5, 100, 2
4, 0, Control_c, 5, 6, 64
4, 0, Control_c, 5, 101, 127
4, 0, Control_c, 5, 100, 127
4, 0, Control_c, 4, 101, 0
4, 0, Control_c, 4, 100, 2
4, 0, Control_c, 4, 6, 64
4, 0, Control_c, 4, 101, 127
4, 0, Control_c, 4, 100, 127
4, 0, Program_c, 5, 34
4, 0, Program_c, 4, 34
4, 0, Control_c, 5, 0, 0
4, 0, Control_c, 4, 0, 0
4, 0, Control_c, 5, 7, 112
4, 0, Control_c, 4, 7, 112
4, 0, Control_c, 5, 10, 64
4, 0, Control_c, 4, 10, 64
4, 0, Control_c, 5, 93, 0
4, 0, Control_c, 4, 93, 0
4, 0, Control_c, 5, 91, 0
4, 0, Control_c, 4, 91, 0
4, 0, Control_c, 5, 92, 0
4, 0, Control_c, 4, 92, 0
4, 0, Control_c, 5, 95, 0
4, 0, Control_c, 4, 95, 0
4, 0, Note_on_c, 4, 30, 95
4, 480, Note_off_c, 4, 30, 80
4, 480, Note_on_c, 4, 30, 95
4, 960, Note_off_c, 4, 30, 80
4, 1920, Note_on_c, 4, 30, 95
4, 2400, Note_off_c, 4, 30, 80
4, 2400, Note_on_c, 4, 30, 95
4, 2880, Note_off_c, 4, 30, 80
4, 3840, Note_on_c, 4, 30, 95
4, 4320, Note_off_c, 4, 30, 80
4, 4320, Note_on_c, 4, 30, 95
4, 4800, Note_off_c, 4, 30, 80
4, 5760, Note_on_c, 4, 30, 95
4, 6240, Note_off_c, 4, 30, 80
4, 6240, Note_on_c, 4, 30, 95
4, 6720, Note_off_c, 4, 30, 80
4, 7680, Note_on_c, 4, 30, 95
4, 8160, Note_off_c, 4, 30, 80
4, 8160, Note_on_c, 4, 30, 95
4, 8640, Note_off_c, 4, 30, 80
4, 9600, Note_on_c, 4, 30, 95
4, 10080, Note_off_c, 4, 30, 80
4, 10080, Note_on_c, 4, 30, 95
4, 10560, Note_off_c, 4, 30, 80
4, 11520, Note_on_c, 4, 30, 95
4, 12000, Note_off_c, 4, 30, 80
4, 12000, Note_on_c, 4, 30, 95
4, 12480, Note_off_c, 4, 30, 80
4, 13440, Note_on_c, 4, 30, 95
4, 13920, Note_off_c, 4, 30, 80
4, 13920, Note_on_c, 4, 30, 95
4, 14400, Note_off_c, 4, 30, 80
4, 15360, Note_on_c, 4, 30, 95
4, 15600, Note_off_c, 4, 30, 80
4, 15600, Note_on_c, 4, 30, 95
4, 15840, Note_off_c, 4, 30, 80
4, 15840, Note_on_c, 4, 30, 95
4, 16080, Note_off_c, 4, 30, 80
4, 16080, Note_on_c, 4, 30, 95
4, 16320, Note_off_c, 4, 30, 80
4, 16320, Note_on_c, 4, 30, 95
4, 16560, Note_off_c, 4, 30, 80
4, 16560, Note_on_c, 4, 30, 95
4, 16800, Note_off_c, 4, 30, 80
4, 16800, Note_on_c, 4, 30, 95
4, 17040, Note_off_c, 4, 30, 80
4, 17040, Note_on_c, 4, 30, 95
4, 17280, Note_off_c, 4, 30, 80
4, 17280, Note_on_c, 4, 30, 95
4, 17520, Note_off_c, 4, 30, 80
4, 17520, Note_on_c, 4, 30, 95
4, 17760, Note_off_c, 4, 30, 80
4, 17760, Note_on_c, 4, 30, 95
4, 18000, Note_off_c, 4, 30, 80
4, 18000, Note_on_c, 4, 30, 95
4, 18240, Note_off_c, 4, 30, 80
4, 18240, Note_on_c, 4, 30, 95
4, 18480, Note_off_c, 4, 30, 80
4, 18480, Note_on_c, 4, 30, 95
4, 18720, Note_off_c, 4, 30, 80
4, 18720, Note_on_c, 4, 30, 95
4, 18960, Note_off_c, 4, 30, 80
4, 18960, Note_on_c, 4, 30, 95
4, 19200, Note_off_c, 4, 30, 80
4, 19200, Note_on_c, 4, 30, 95
4, 19440, Note_off_c, 4, 30, 80
4, 19440, Note_on_c, 4, 30, 95
4, 19680, Note_off_c, 4, 30, 80
4, 19680, Note_on_c, 4, 30, 95
4, 19920, Note_off_c, 4, 30, 80
4, 19920, Note_on_c, 4, 30, 95
4, 20160, Note_off_c, 4, 30, 80
4, 20160, Note_on_c, 4, 30, 95
4, 20400, Note_off_c, 4, 30, 80
4, 20400, Note_on_c, 4, 30, 95
4, 20640, Note_off_c, 4, 30, 80
4, 20640, Note_on_c, 4, 30, 95
4, 20880, Note_off_c, 4, 30, 80
4, 20880, Note_on_c, 4, 30, 95
4, 21120, Note_off_c, 4, 30, 80
4, 21120, Note_on_c, 4, 30, 95
4, 21360, Note_off_c, 4, 30, 80
4, 21360, Note_on_c, 4, 30, 95
4, 21600, Note_off_c, 4, 30, 80
4, 21600, Note_on_c, 4, 30, 95
4, 21840, Note_off_c, 4, 30, 80
4, 21840, Note_on_c, 4, 30, 95
4, 22080, Note_off_c, 4, 30, 80
4, 22080, Note_on_c, 4, 30, 95
4, 22320, Note_off_c, 4, 30, 80
4, 22320, Note_on_c, 4, 30, 95
4, 22560, Note_off_c, 4, 30, 80
4, 22560, Note_on_c, 4, 30, 95
4, 22800, Note_off_c, 4, 30, 80
4, 22800, Note_on_c, 4, 30, 95
4, 23040, Note_off_c, 4, 30, 80
4, 23040, Note_on_c, 4, 30, 95
4, 23280, Note_off_c, 4, 30, 80
4, 23280, Note_on_c, 4, 30, 95
4, 23520, Note_off_c, 4, 30, 80
4, 23520, Note_on_c, 4, 30, 95
4, 23760, Note_off_c, 4, 30, 80
4, 23760, Note_on_c, 4, 30, 95
4, 24000, Note_off_c, 4, 30, 80
4, 24000, Note_on_c, 4, 30, 95
4, 24240, Note_off_c, 4, 30, 80
4, 24240, Note_on_c, 4, 30, 95
4, 24480, Note_off_c, 4, 30, 80
4, 24480, Note_on_c, 4, 30, 95
4, 24720, Note_off_c, 4, 30, 80
4, 24720, Note_on_c, 4, 30, 95
4, 24960, Note_off_c, 4, 30, 80
4, 24960, Note_on_c, 4, 30, 95
4, 25200, Note_off_c, 4, 30, 80
4, 25200, Note_on_c, 4, 30, 95
4, 25440, Note_off_c, 4, 30, 80
4, 25440, Note_on_c, 4, 30, 95
4, 25680, Note_off_c, 4, 30, 80
4, 25680, Note_on_c, 4, 30, 95
4, 25920, Note_off_c, 4, 30, 80
4, 25920, Note_on_c, 4, 30, 95
4, 26160, Note_off_c, 4, 30, 80
4, 26160, Note_on_c, 4, 30, 95
4, 26400, Note_off_c, 4, 30, 80
4, 26400, Note_on_c, 4, 30, 95
4, 26640, Note_off_c, 4, 30, 80
4, 26640, Note_on_c, 4, 30, 95
4, 26880, Note_off_c, 4, 30, 80
4, 26880, Note_on_c, 4, 30, 95
4, 27120, Note_off_c, 4, 30, 80
4, 27120, Note_on_c, 4, 30, 95
4, 27360, Note_off_c, 4, 30, 80
4, 27360, Note_on_c, 4, 30, 95
4, 27600, Note_off_c, 4, 30, 80
4, 27600, Note_on_c, 4, 30, 95
4, 27840, Note_off_c, 4, 30, 80
4, 27840, Note_on_c, 4, 30, 95
4, 28080, Note_off_c, 4, 30, 80
4, 28080, Note_on_c, 4, 30, 95
4, 28320, Note_off_c, 4, 30, 80
4, 28320, Note_on_c, 4, 30, 95
4, 28560, Note_off_c, 4, 30, 80
4, 28560, Note_on_c, 4, 30, 95
4, 28800, Note_off_c, 4, 30, 80
4, 28800, Note_on_c, 4, 30, 95
4, 29040, Note_off_c, 4, 30, 80
4, 29040, Note_on_c, 4, 30, 95
4, 29280, Note_off_c, 4, 30, 80
4, 29280, Note_on_c, 4, 30, 95
4, 29520, Note_off_c, 4, 30, 80
4, 29520, Note_on_c, 4, 30, 95
4, 29760, Note_off_c, 4, 30, 80
4, 29760, Note_on_c, 4, 30, 95
4, 30000, Note_off_c, 4, 30, 80
4, 30000, Note_on_c, 4, 30, 95
4, 30240, Note_off_c, 4, 30, 80
4, 30240, Note_on_c, 4, 30, 95
4, 30480, Note_off_c, 4, 30, 80
4, 30480, Note_on_c, 4, 30, 95
4, 30720, Note_off_c, 4, 30, 80
4, 30720, Note_on_c, 4, 37, 95
4, 31200, Note_off_c, 4, 37, 80
4, 31200, Note_on_c, 4, 37, 95
4, 31440, Note_off_c, 4, 37, 80
4, 31440, Note_on_c, 4, 35, 95
4, 31920, Note_off_c, 4, 35, 80
4, 31920, Note_on_c, 4, 35, 95
4, 32400, Note_off_c, 4, 35, 80
4, 32400, Note_on_c, 4, 35, 95
4, 32640, Note_off_c, 4, 35, 80
4, 32640, Note_on_c, 4, 33, 95
4, 33120, Note_off_c, 4, 33, 80
4, 33120, Note_on_c, 4, 33, 95
4, 33600, Note_off_c, 4, 33, 80
4, 33600, Note_on_c, 4, 30, 95
4, 34080, Note_off_c, 4, 30, 80
4, 34080, Note_on_c, 4, 30, 95
4, 34560, Note_off_c, 4, 30, 80
4, 34560, Note_on_c, 4, 37, 95
4, 35040, Note_off_c, 4, 37, 80
4, 35040, Note_on_c, 4, 37, 95
4, 35280, Note_off_c, 4, 37, 80
4, 35280, Note_on_c, 4, 35, 95
4, 35760, Note_off_c, 4, 35, 80
4, 35760, Note_on_c, 4, 35, 95
4, 36240, Note_off_c, 4, 35, 80
4, 36240, Note_on_c, 4, 35, 95
4, 36480, Note_off_c, 4, 35, 80
4, 36480, Note_on_c, 4, 33, 95
4, 36960, Note_off_c, 4, 33, 80
4, 36960, Note_on_c, 4, 33, 95
4, 37440, Note_off_c, 4, 33, 80
4, 37440, Note_on_c, 4, 30, 95
4, 37920, Note_off_c, 4, 30, 80
4, 37920, Note_on_c, 4, 30, 95
4, 38400, Note_off_c, 4, 30, 80
4, 38400, Note_on_c, 4, 37, 95
4, 38880, Note_off_c, 4, 37, 80
4, 38880, Note_on_c, 4, 37, 95
4, 39120, Note_off_c, 4, 37, 80
4, 39120, Note_on_c, 4, 35, 95
4, 39600, Note_off_c, 4, 35, 80
4, 39600, Note_on_c, 4, 35, 95
4, 40080, Note_off_c, 4, 35, 80
4, 40080, Note_on_c, 4, 35, 95
4, 40320, Note_off_c, 4, 35, 80
4, 40320, Note_on_c, 4, 33, 95
4, 40800, Note_off_c, 4, 33, 80
4, 40800, Note_on_c, 4, 33, 95
4, 41280, Note_off_c, 4, 33, 80
4, 41280, Note_on_c, 4, 30, 95
4, 41760, Note_off_c, 4, 30, 80
4, 41760, Note_on_c, 4, 30, 95
4, 42240, Note_off_c, 4, 30, 80
4, 42240, Note_on_c, 4, 37, 95
4, 42720, Note_off_c, 4, 37, 80
4, 42720, Note_on_c, 4, 37, 95
4, 42960, Note_off_c, 4, 37, 80
4, 42960, Note_on_c, 4, 35, 95
4, 43440, Note_off_c, 4, 35, 80
4, 43440, Note_on_c, 4, 35, 95
4, 43920, Note_off_c, 4, 35, 80
4, 43920, Note_on_c, 4, 35, 95
4, 44160, Note_off_c, 4, 35, 80
4, 44160, Note_on_c, 4, 33, 95
4, 44640, Note_off_c, 4, 33, 80
4, 44640, Note_on_c, 4, 33, 95
4, 45120, Note_off_c, 4, 33, 80
4, 45120, Note_on_c, 4, 30, 95
4, 45600, Note_off_c, 4, 30, 80
4, 46080, Note_on_c, 4, 37, 95
4, 46560, Note_off_c, 4, 37, 80
4, 46560, Note_on_c, 4, 37, 95
4, 46800, Note_off_c, 4, 37, 80
4, 46800, Note_on_c, 4, 35, 95
4, 47280, Note_off_c, 4, 35, 80
4, 47280, Note_on_c, 4, 35, 95
4, 47760, Note_off_c, 4, 35, 80
4, 47760, Note_on_c, 4, 35, 95
4, 48000, Note_off_c, 4, 35, 80
4, 48000, Note_on_c, 4, 33, 95
4, 48480, Note_off_c, 4, 33, 80
4, 48480, Note_on_c, 4, 33, 95
4, 48960, Note_off_c, 4, 33, 80
4, 48960, Note_on_c, 4, 30, 95
4, 49440, Note_off_c, 4, 30, 80
4, 49440, Note_on_c, 4, 30, 95
4, 49920, Note_off_c, 4, 30, 80
4, 49920, Note_on_c, 4, 37, 95
4, 50400, Note_off_c, 4, 37, 80
4, 50400, Note_on_c, 4, 37, 95
4, 50640, Note_off_c, 4, 37, 80
4, 50640, Note_on_c, 4, 35, 95
4, 51120, Note_off_c, 4, 35, 80
4, 51120, Note_on_c, 4, 35, 95
4, 51600, Note_off_c, 4, 35, 80
4, 51600, Note_on_c, 4, 35, 95
4, 51840, Note_off_c, 4, 35, 80
4, 51840, Note_on_c, 4, 33, 95
4, 52320, Note_off_c, 4, 33, 80
4, 52320, Note_on_c, 4, 33, 95
4, 52800, Note_off_c, 4, 33, 80
4, 52800, Note_on_c, 4, 30, 95
4, 53280, Note_off_c, 4, 30, 80
4, 53280, Note_on_c, 4, 30, 95
4, 53760, Note_off_c, 4, 30, 80
4, 53760, Note_on_c, 4, 37, 95
4, 54240, Note_off_c, 4, 37, 80
4, 54240, Note_on_c, 4, 37, 95
4, 54480, Note_off_c, 4, 37, 80
4, 54480, Note_on_c, 4, 35, 95
4, 54960, Note_off_c, 4, 35, 80
4, 54960, Note_on_c, 4, 35, 95
4, 55440, Note_off_c, 4, 35, 80
4, 55440, Note_on_c, 4, 35, 95
4, 55680, Note_off_c, 4, 35, 80
4, 55680, Note_on_c, 4, 33, 95
4, 56160, Note_off_c, 4, 33, 80
4, 56160, Note_on_c, 4, 33, 95
4, 56640, Note_off_c, 4, 33, 80
4, 56640, Note_on_c, 4, 30, 95
4, 57120, Note_off_c, 4, 30, 80
4, 57120, Note_on_c, 4, 30, 95
4, 57600, Note_off_c, 4, 30, 80
4, 57600, Note_on_c, 4, 37, 95
4, 58080, Note_off_c, 4, 37, 80
4, 58080, Note_on_c, 4, 37, 95
4, 58320, Note_off_c, 4, 37, 80
4, 58320, Note_on_c, 4, 35, 95
4, 58800, Note_off_c, 4, 35, 80
4, 58800, Note_on_c, 4, 35, 95
4, 59280, Note_off_c, 4, 35, 80
4, 59280, Note_on_c, 4, 35, 95
4, 59520, Note_off_c, 4, 35, 80
4, 59520, Note_on_c, 4, 33, 95
4, 60000, Note_off_c, 4, 33, 80
4, 60000, Note_on_c, 4, 33, 95
4, 60480, Note_off_c, 4, 33, 80
4, 60480, Note_on_c, 4, 30, 95
4, 60960, Note_off_c, 4, 30, 80
4, 60960, Note_on_c, 4, 30, 95
4, 61440, Note_off_c, 4, 30, 80
4, 61440, Note_on_c, 4, 37, 95
4, 61920, Note_off_c, 4, 37, 80
4, 61920, Note_on_c, 4, 37, 95
4, 62160, Note_off_c, 4, 37, 80
4, 62160, Note_on_c, 4, 35, 95
4, 62640, Note_off_c, 4, 35, 80
4, 62640, Note_on_c, 4, 35, 95
4, 63120, Note_off_c, 4, 35, 80
4, 63120, Note_on_c, 4, 35, 95
4, 63360, Note_off_c, 4, 35, 80
4, 63360, Note_on_c, 4, 33, 95
4, 63840, Note_off_c, 4, 33, 80
4, 63840, Note_on_c, 4, 33, 95
4, 64320, Note_off_c, 4, 33, 80
4, 64320, Note_on_c, 4, 30, 95
4, 64800, Note_off_c, 4, 30, 80
4, 64800, Note_on_c, 4, 30, 95
4, 65280, Note_off_c, 4, 30, 80
4, 65280, Note_on_c, 4, 37, 95
4, 65760, Note_off_c, 4, 37, 80
4, 65760, Note_on_c, 4, 37, 95
4, 66000, Note_off_c, 4, 37, 80
4, 66000, Note_on_c, 4, 35, 95
4, 66480, Note_off_c, 4, 35, 80
4, 66480, Note_on_c, 4, 35, 95
4, 66960, Note_off_c, 4, 35, 80
4, 66960, Note_on_c, 4, 35, 95
4, 67200, Note_off_c, 4, 35, 80
4, 67200, Note_on_c, 4, 33, 95
4, 67680, Note_off_c, 4, 33, 80
4, 67680, Note_on_c, 4, 33, 95
4, 68160, Note_off_c, 4, 33, 80
4, 68160, Note_on_c, 4, 30, 95
4, 68640, Note_off_c, 4, 30, 80
4, 68640, Note_on_c, 4, 30, 95
4, 69120, Note_off_c, 4, 30, 80
4, 69120, Note_on_c, 4, 37, 95
4, 69600, Note_off_c, 4, 37, 80
4, 69600, Note_on_c, 4, 37, 95
4, 69840, Note_off_c, 4, 37, 80
4, 69840, Note_on_c, 4, 35, 95
4, 70320, Note_off_c, 4, 35, 80
4, 70320, Note_on_c, 4, 35, 95
4, 70800, Note_off_c, 4, 35, 80
4, 70800, Note_on_c, 4, 35, 95
4, 71040, Note_off_c, 4, 35, 80
4, 71040, Note_on_c, 4, 33, 95
4, 71520, Note_off_c, 4, 33, 80
4, 71520, Note_on_c, 4, 33, 95
4, 72000, Note_off_c, 4, 33, 80
4, 72000, Note_on_c, 4, 30, 95
4, 72480, Note_off_c, 4, 30, 80
4, 72480, Note_on_c, 4, 30, 95
4, 72960, Note_off_c, 4, 30, 80
4, 72960, Note_on_c, 4, 37, 95
4, 73440, Note_off_c, 4, 37, 80
4, 73440, Note_on_c, 4, 37, 95
4, 73680, Note_off_c, 4, 37, 80
4, 73680, Note_on_c, 4, 35, 95
4, 74160, Note_off_c, 4, 35, 80
4, 74160, Note_on_c, 4, 35, 95
4, 74640, Note_off_c, 4, 35, 80
4, 74640, Note_on_c, 4, 35, 95
4, 74880, Note_off_c, 4, 35, 80
4, 74880, Note_on_c, 4, 33, 95
4, 75360, Note_off_c, 4, 33, 80
4, 75360, Note_on_c, 4, 33, 95
4, 75840, Note_off_c, 4, 33, 80
4, 75840, Note_on_c, 4, 30, 95
4, 76320, Note_off_c, 4, 30, 80
4, 76320, Note_on_c, 4, 30, 95
4, 76800, Note_off_c, 4, 30, 80
4, 76800, Note_on_c, 4, 30, 95
4, 77040, Note_off_c, 4, 30, 80
4, 77040, Note_on_c, 4, 30, 95
4, 77280, Note_off_c, 4, 30, 80
4, 77280, Note_on_c, 4, 30, 95
4, 77520, Note_off_c, 4, 30, 80
4, 77520, Note_on_c, 4, 30, 95
4, 77760, Note_off_c, 4, 30, 80
4, 77760, Note_on_c, 4, 30, 95
4, 78000, Note_off_c, 4, 30, 80
4, 78000, Note_on_c, 4, 30, 95
4, 78240, Note_off_c, 4, 30, 80
4, 78240, Note_on_c, 4, 30, 95
4, 78480, Note_off_c, 4, 30, 80
4, 78480, Note_on_c, 4, 30, 95
4, 78720, Note_off_c, 4, 30, 80
4, 78720, Note_on_c, 4, 30, 95
4, 78960, Note_off_c, 4, 30, 80
4, 78960, Note_on_c, 4, 30, 95
4, 79200, Note_off_c, 4, 30, 80
4, 79200, Note_on_c, 4, 30, 95
4, 79440, Note_off_c, 4, 30, 80
4, 79440, Note_on_c, 4, 30, 95
4, 79680, Note_off_c, 4, 30, 80
4, 79680, Note_on_c, 4, 30, 95
4, 79920, Note_off_c, 4, 30, 80
4, 79920, Note_on_c, 4, 30, 95
4, 80160, Note_off_c, 4, 30, 80
4, 80160, Note_on_c, 4, 30, 95
4, 80400, Note_off_c, 4, 30, 80
4, 80400, Note_on_c, 4, 30, 95
4, 80640, Note_off_c, 4, 30, 80
4, 80640, Note_on_c, 4, 33, 95
4, 80880, Note_off_c, 4, 33, 80
4, 80880, Note_on_c, 4, 33, 95
4, 81120, Note_off_c, 4, 33, 80
4, 81120, Note_on_c, 4, 33, 95
4, 81360, Note_off_c, 4, 33, 80
4, 81360, Note_on_c, 4, 33, 95
4, 81600, Note_off_c, 4, 33, 80
4, 81600, Note_on_c, 4, 33, 95
4, 81840, Note_off_c, 4, 33, 80
4, 81840, Note_on_c, 4, 33, 95
4, 82080, Note_off_c, 4, 33, 80
4, 82080, Note_on_c, 4, 33, 95
4, 82320, Note_off_c, 4, 33, 80
4, 82320, Note_on_c, 4, 33, 95
4, 82560, Note_off_c, 4, 33, 80
4, 82560, Note_on_c, 4, 33, 95
4, 82800, Note_off_c, 4, 33, 80
4, 82800, Note_on_c, 4, 33, 95
4, 83040, Note_off_c, 4, 33, 80
4, 83040, Note_on_c, 4, 33, 95
4, 83280, Note_off_c, 4, 33, 80
4, 83280, Note_on_c, 4, 33, 95
4, 83520, Note_off_c, 4, 33, 80
4, 83520, Note_on_c, 4, 33, 95
4, 83760, Note_off_c, 4, 33, 80
4, 83760, Note_on_c, 4, 33, 95
4, 84000, Note_off_c, 4, 33, 80
4, 84000, Note_on_c, 4, 33, 95
4, 84240, Note_off_c, 4, 33, 80
4, 84240, Note_on_c, 4, 33, 95
4, 84480, Note_off_c, 4, 33, 80
4, 84480, Note_on_c, 4, 40, 95
4, 84720, Note_off_c, 4, 40, 80
4, 84720, Note_on_c, 4, 40, 95
4, 84960, Note_off_c, 4, 40, 80
4, 84960, Note_on_c, 4, 40, 95
4, 85200, Note_off_c, 4, 40, 80
4, 85200, Note_on_c, 4, 40, 95
4, 85440, Note_off_c, 4, 40, 80
4, 85440, Note_on_c, 4, 40, 95
4, 85680, Note_off_c, 4, 40, 80
4, 85680, Note_on_c, 4, 40, 95
4, 85920, Note_off_c, 4, 40, 80
4, 85920, Note_on_c, 4, 40, 95
4, 86160, Note_off_c, 4, 40, 80
4, 86160, Note_on_c, 4, 40, 95
4, 86400, Note_off_c, 4, 40, 80
4, 86400, Note_on_c, 4, 40, 95
4, 86640, Note_off_c, 4, 40, 80
4, 86640, Note_on_c, 4, 40, 95
4, 86880, Note_off_c, 4, 40, 80
4, 86880, Note_on_c, 4, 40, 95
4, 87120, Note_off_c, 4, 40, 80
4, 87120, Note_on_c, 4, 40, 95
4, 87360, Note_off_c, 4, 40, 80
4, 87360, Note_on_c, 4, 40, 95
4, 87600, Note_off_c, 4, 40, 80
4, 87600, Note_on_c, 4, 40, 95
4, 87840, Note_off_c, 4, 40, 80
4, 87840, Note_on_c, 4, 40, 95
4, 88080, Note_off_c, 4, 40, 80
4, 88080, Note_on_c, 4, 40, 95
4, 88320, Note_off_c, 4, 40, 80
4, 88320, Note_on_c, 4, 30, 95
4, 88560, Note_off_c, 4, 30, 80
4, 88560, Note_on_c, 4, 30, 95
4, 88800, Note_off_c, 4, 30, 80
4, 88800, Note_on_c, 4, 30, 95
4, 89040, Note_off_c, 4, 30, 80
4, 89040, Note_on_c, 4, 30, 95
4, 89280, Note_off_c, 4, 30, 80
4, 89280, Note_on_c, 4, 30, 95
4, 89520, Note_off_c, 4, 30, 80
4, 89520, Note_on_c, 4, 30, 95
4, 89760, Note_off_c, 4, 30, 80
4, 89760, Note_on_c, 4, 30, 95
4, 90000, Note_off_c, 4, 30, 80
4, 90000, Note_on_c, 4, 30, 95
4, 90240, Note_off_c, 4, 30, 80
4, 90240, Note_on_c, 4, 30, 95
4, 90480, Note_off_c, 4, 30, 80
4, 90480, Note_on_c, 4, 30, 95
4, 90720, Note_off_c, 4, 30, 80
4, 90720, Note_on_c, 4, 30, 95
4, 90960, Note_off_c, 4, 30, 80
4, 90960, Note_on_c, 4, 30, 95
4, 91200, Note_off_c, 4, 30, 80
4, 91200, Note_on_c, 4, 30, 95
4, 91440, Note_off_c, 4, 30, 80
4, 91440, Note_on_c, 4, 30, 95
4, 91680, Note_off_c, 4, 30, 80
4, 91680, Note_on_c, 4, 30, 95
4, 91920, Note_off_c, 4, 30, 80
4, 91920, Note_on_c, 4, 30, 95
4, 92160, Note_off_c, 4, 30, 80
4, 92160, Note_on_c, 4, 30, 95
4, 92400, Note_off_c, 4, 30, 80
4, 92400, Note_on_c, 4, 30, 95
4, 92640, Note_off_c, 4, 30, 80
4, 92640, Note_on_c, 4, 30, 95
4, 92880, Note_off_c, 4, 30, 80
4, 92880, Note_on_c, 4, 30, 95
4, 93120, Note_off_c, 4, 30, 80
4, 93120, Note_on_c, 4, 30, 95
4, 93360, Note_off_c, 4, 30, 80
4, 93360, Note_on_c, 4, 30, 95
4, 93600, Note_off_c, 4, 30, 80
4, 93600, Note_on_c, 4, 30, 95
4, 93840, Note_off_c, 4, 30, 80
4, 93840, Note_on_c, 4, 30, 95
4, 94080, Note_off_c, 4, 30, 80
4, 94080, Note_on_c, 4, 30, 95
4, 94320, Note_off_c, 4, 30, 80
4, 94320, Note_on_c, 4, 30, 95
4, 94560, Note_off_c, 4, 30, 80
4, 94560, Note_on_c, 4, 30, 95
4, 94800, Note_off_c, 4, 30, 80
4, 94800, Note_on_c, 4, 30, 95
4, 95040, Note_off_c, 4, 30, 80
4, 95040, Note_on_c, 4, 30, 95
4, 95280, Note_off_c, 4, 30, 80
4, 95280, Note_on_c, 4, 30, 95
4, 95520, Note_off_c, 4, 30, 80
4, 95520, Note_on_c, 4, 30, 95
4, 95760, Note_off_c, 4, 30, 80
4, 95760, Note_on_c, 4, 30, 95
4, 96000, Note_off_c, 4, 30, 80
4, 96000, Note_on_c, 4, 33, 95
4, 96240, Note_off_c, 4, 33, 80
4, 96240, Note_on_c, 4, 33, 95
4, 96480, Note_off_c, 4, 33, 80
4, 96480, Note_on_c, 4, 33, 95
4, 96720, Note_off_c, 4, 33, 80
4, 96720, Note_on_c, 4, 33, 95
4, 96960, Note_off_c, 4, 33, 80
4, 96960, Note_on_c, 4, 33, 95
4, 97200, Note_off_c, 4, 33, 80
4, 97200, Note_on_c, 4, 33, 95
4, 97440, Note_off_c, 4, 33, 80
4, 97440, Note_on_c, 4, 33, 95
4, 97680, Note_off_c, 4, 33, 80
4, 97680, Note_on_c, 4, 33, 95
4, 97920, Note_off_c, 4, 33, 80
4, 97920, Note_on_c, 4, 33, 95
4, 98160, Note_off_c, 4, 33, 80
4, 98160, Note_on_c, 4, 33, 95
4, 98400, Note_off_c, 4, 33, 80
4, 98400, Note_on_c, 4, 33, 95
4, 98640, Note_off_c, 4, 33, 80
4, 98640, Note_on_c, 4, 33, 95
4, 98880, Note_off_c, 4, 33, 80
4, 98880, Note_on_c, 4, 33, 95
4, 99120, Note_off_c, 4, 33, 80
4, 99120, Note_on_c, 4, 33, 95
4, 99360, Note_off_c, 4, 33, 80
4, 99360, Note_on_c, 4, 33, 95
4, 99600, Note_off_c, 4, 33, 80
4, 99600, Note_on_c, 4, 33, 95
4, 99840, Note_off_c, 4, 33, 80
4, 99840, Note_on_c, 4, 40, 95
4, 100080, Note_off_c, 4, 40, 80
4, 100080, Note_on_c, 4, 40, 95
4, 100320, Note_off_c, 4, 40, 80
4, 100320, Note_on_c, 4, 40, 95
4, 100560, Note_off_c, 4, 40, 80
4, 100560, Note_on_c, 4, 40, 95
4, 100800, Note_off_c, 4, 40, 80
4, 100800, Note_on_c, 4, 40, 95
4, 101040, Note_off_c, 4, 40, 80
4, 101040, Note_on_c, 4, 40, 95
4, 101280, Note_off_c, 4, 40, 80
4, 101280, Note_on_c, 4, 40, 95
4, 101520, Note_off_c, 4, 40, 80
4, 101520, Note_on_c, 4, 40, 95
4, 101760, Note_off_c, 4, 40, 80
4, 101760, Note_on_c, 4, 40, 95
4, 102000, Note_off_c, 4, 40, 80
4, 102000, Note_on_c, 4, 40, 95
4, 102240, Note_off_c, 4, 40, 80
4, 102240, Note_on_c, 4, 40, 95
4, 102480, Note_off_c, 4, 40, 80
4, 102480, Note_on_c, 4, 40, 95
4, 102720, Note_off_c, 4, 40, 80
4, 102720, Note_on_c, 4, 40, 95
4, 102960, Note_off_c, 4, 40, 80
4, 102960, Note_on_c, 4, 40, 95
4, 103200, Note_off_c, 4, 40, 80
4, 103200, Note_on_c, 4, 40, 95
4, 103440, Note_off_c, 4, 40, 80
4, 103440, Note_on_c, 4, 40, 95
4, 103680, Note_off_c, 4, 40, 80
4, 103680, Note_on_c, 4, 37, 95
4, 103920, Note_off_c, 4, 37, 80
4, 103920, Note_on_c, 4, 37, 95
4, 104160, Note_off_c, 4, 37, 80
4, 104160, Note_on_c, 4, 37, 95
4, 104400, Note_off_c, 4, 37, 80
4, 104400, Note_on_c, 4, 37, 95
4, 104640, Note_off_c, 4, 37, 80
4, 104640, Note_on_c, 4, 37, 95
4, 104880, Note_off_c, 4, 37, 80
4, 104880, Note_on_c, 4, 37, 95
4, 105120, Note_off_c, 4, 37, 80
4, 105120, Note_on_c, 4, 37, 95
4, 105360, Note_off_c, 4, 37, 80
4, 105360, Note_on_c, 4, 37, 95
4, 105600, Note_off_c, 4, 37, 80
4, 105600, Note_on_c, 4, 37, 95
4, 105840, Note_off_c, 4, 37, 80
4, 105840, Note_on_c, 4, 37, 95
4, 106080, Note_off_c, 4, 37, 80
4, 106080, Note_on_c, 4, 37, 95
4, 106320, Note_off_c, 4, 37, 80
4, 106320, Note_on_c, 4, 37, 95
4, 106560, Note_off_c, 4, 37, 80
4, 106560, Note_on_c, 4, 37, 95
4, 106800, Note_off_c, 4, 37, 80
4, 106800, Note_on_c, 4, 37, 95
4, 107040, Note_off_c, 4, 37, 80
4, 107040, Note_on_c, 4, 37, 95
4, 107280, Note_off_c, 4, 37, 80
4, 107280, Note_on_c, 4, 37, 95
4, 107520, Note_off_c, 4, 37, 80
4, 107520, Note_on_c, 4, 37, 95
4, 108000, Note_off_c, 4, 37, 80
4, 108000, Note_on_c, 4, 37, 95
4, 108240, Note_off_c, 4, 37, 80
4, 108240, Note_on_c, 4, 35, 95
4, 108720, Note_off_c, 4, 35, 80
4, 108720, Note_on_c, 4, 35, 95
4, 109200, Note_off_c, 4, 35, 80
4, 109200, Note_on_c, 4, 35, 95
4, 109440, Note_off_c, 4, 35, 80
4, 109440, Note_on_c, 4, 33, 95
4, 109920, Note_off_c, 4, 33, 80
4, 109920, Note_on_c, 4, 33, 95
4, 110400, Note_off_c, 4, 33, 80
4, 110400, Note_on_c, 4, 30, 95
4, 110880, Note_off_c, 4, 30, 80
4, 110880, Note_on_c, 4, 30, 95
4, 111360, Note_off_c, 4, 30, 80
4, 111360, Note_on_c, 4, 37, 95
4, 111840, Note_off_c, 4, 37, 80
4, 111840, Note_on_c, 4, 37, 95
4, 112080, Note_off_c, 4, 37, 80
4, 112080, Note_on_c, 4, 35, 95
4, 112560, Note_off_c, 4, 35, 80
4, 112560, Note_on_c, 4, 35, 95
4, 113040, Note_off_c, 4, 35, 80
4, 113040, Note_on_c, 4, 35, 95
4, 113280, Note_off_c, 4, 35, 80
4, 113280, Note_on_c, 4, 33, 95
4, 113760, Note_off_c, 4, 33, 80
4, 113760, Note_on_c, 4, 33, 95
4, 114240, Note_off_c, 4, 33, 80
4, 114240, Note_on_c, 4, 30, 95
4, 114720, Note_off_c, 4, 30, 80
4, 114720, Note_on_c, 4, 30, 95
4, 115200, Note_off_c, 4, 30, 80
4, 115200, Note_on_c, 4, 37, 95
4, 115680, Note_off_c, 4, 37, 80
4, 115680, Note_on_c, 4, 37, 95
4, 115920, Note_off_c, 4, 37, 80
4, 115920, Note_on_c, 4, 35, 95
4, 116400, Note_off_c, 4, 35, 80
4, 116400, Note_on_c, 4, 35, 95
4, 116880, Note_off_c, 4, 35, 80
4, 116880, Note_on_c, 4, 35, 95
4, 117120, Note_off_c, 4, 35, 80
4, 117120, Note_on_c, 4, 33, 95
4, 117600, Note_off_c, 4, 33, 80
4, 117600, Note_on_c, 4, 33, 95
4, 118080, Note_off_c, 4, 33, 80
4, 118080, Note_on_c, 4, 30, 95
4, 118560, Note_off_c, 4, 30, 80
4, 118560, Note_on_c, 4, 30, 95
4, 119040, Note_off_c, 4, 30, 80
4, 119040, Note_on_c, 4, 37, 95
4, 119520, Note_off_c, 4, 37, 80
4, 119520, Note_on_c, 4, 37, 95
4, 119760, Note_off_c, 4, 37, 80
4, 119760, Note_on_c, 4, 35, 95
4, 120240, Note_off_c, 4, 35, 80
4, 120240, Note_on_c, 4, 35, 95
4, 120720, Note_off_c, 4, 35, 80
4, 120720, Note_on_c, 4, 35, 95
4, 120960, Note_off_c, 4, 35, 80
4, 120960, Note_on_c, 4, 33, 95
4, 121440, Note_off_c, 4, 33, 80
4, 121440, Note_on_c, 4, 33, 95
4, 121920, Note_off_c, 4, 33, 80
4, 121920, Note_on_c, 4, 30, 95
4, 122400, Note_off_c, 4, 30, 80
4, 122880, Note_on_c, 4, 37, 95
4, 123360, Note_off_c, 4, 37, 80
4, 123360, Note_on_c, 4, 37, 95
4, 123600, Note_off_c, 4, 37, 80
4, 123600, Note_on_c, 4, 35, 95
4, 124080, Note_off_c, 4, 35, 80
4, 124080, Note_on_c, 4, 35, 95
4, 124560, Note_off_c, 4, 35, 80
4, 124560, Note_on_c, 4, 35, 95
4, 124800, Note_off_c, 4, 35, 80
4, 124800, Note_on_c, 4, 33, 95
4, 125280, Note_off_c, 4, 33, 80
4, 125280, Note_on_c, 4, 33, 95
4, 125760, Note_off_c, 4, 33, 80
4, 125760, Note_on_c, 4, 30, 95
4, 126240, Note_off_c, 4, 30, 80
4, 126240, Note_on_c, 4, 30, 95
4, 126720, Note_off_c, 4, 30, 80
4, 126720, Note_on_c, 4, 37, 95
4, 127200, Note_off_c, 4, 37, 80
4, 127200, Note_on_c, 4, 37, 95
4, 127440, Note_off_c, 4, 37, 80
4, 127440, Note_on_c, 4, 35, 95
4, 127920, Note_off_c, 4, 35, 80
4, 127920, Note_on_c, 4, 35, 95
4, 128400, Note_off_c, 4, 35, 80
4, 128400, Note_on_c, 4, 35, 95
4, 128640, Note_off_c, 4, 35, 80
4, 128640, Note_on_c, 4, 33, 95
4, 129120, Note_off_c, 4, 33, 80
4, 129120, Note_on_c, 4, 33, 95
4, 129600, Note_off_c, 4, 33, 80
4, 129600, Note_on_c, 4, 30, 95
4, 130080, Note_off_c, 4, 30, 80
4, 130080, Note_on_c, 4, 30, 95
4, 130560, Note_off_c, 4, 30, 80
4, 130560, Note_on_c, 4, 37, 95
4, 131040, Note_off_c, 4, 37, 80
4, 131040, Note_on_c, 4, 37, 95
4, 131280, Note_off_c, 4, 37, 80
4, 131280, Note_on_c, 4, 35, 95
4, 131760, Note_off_c, 4, 35, 80
4, 131760, Note_on_c, 4, 35, 95
4, 132240, Note_off_c, 4, 35, 80
4, 132240, Note_on_c, 4, 35, 95
4, 132480, Note_off_c, 4, 35, 80
4, 132480, Note_on_c, 4, 33, 95
4, 132960, Note_off_c, 4, 33, 80
4, 132960, Note_on_c, 4, 33, 95
4, 133440, Note_off_c, 4, 33, 80
4, 133440, Note_on_c, 4, 30, 95
4, 133920, Note_off_c, 4, 30, 80
4, 133920, Note_on_c, 4, 30, 95
4, 134400, Note_off_c, 4, 30, 80
4, 134400, Note_on_c, 4, 37, 95
4, 134880, Note_off_c, 4, 37, 80
4, 134880, Note_on_c, 4, 37, 95
4, 135120, Note_off_c, 4, 37, 80
4, 135120, Note_on_c, 4, 35, 95
4, 135600, Note_off_c, 4, 35, 80
4, 135600, Note_on_c, 4, 35, 95
4, 136080, Note_off_c, 4, 35, 80
4, 136080, Note_on_c, 4, 35, 95
4, 136320, Note_off_c, 4, 35, 80
4, 136320, Note_on_c, 4, 33, 95
4, 136800, Note_off_c, 4, 33, 80
4, 136800, Note_on_c, 4, 33, 95
4, 137280, Note_off_c, 4, 33, 80
4, 137280, Note_on_c, 4, 30, 95
4, 137760, Note_off_c, 4, 30, 80
4, 137760, Note_on_c, 4, 30, 95
4, 138240, Note_off_c, 4, 30, 80
4, 138240, Note_on_c, 4, 37, 95
4, 138720, Note_off_c, 4, 37, 80
4, 138720, Note_on_c, 4, 37, 95
4, 138960, Note_off_c, 4, 37, 80
4, 138960, Note_on_c, 4, 35, 95
4, 139440, Note_off_c, 4, 35, 80
4, 139440, Note_on_c, 4, 35, 95
4, 139920, Note_off_c, 4, 35, 80
4, 139920, Note_on_c, 4, 35, 95
4, 140160, Note_off_c, 4, 35, 80
4, 140160, Note_on_c, 4, 33, 95
4, 140640, Note_off_c, 4, 33, 80
4, 140640, Note_on_c, 4, 33, 95
4, 141120, Note_off_c, 4, 33, 80
4, 141120, Note_on_c, 4, 30, 95
4, 141600, Note_off_c, 4, 30, 80
4, 141600, Note_on_c, 4, 30, 95
4, 142080, Note_off_c, 4, 30, 80
4, 142080, Note_on_c, 4, 37, 95
4, 142560, Note_off_c, 4, 37, 80
4, 142560, Note_on_c, 4, 37, 95
4, 142800, Note_off_c, 4, 37, 80
4, 142800, Note_on_c, 4, 35, 95
4, 143280, Note_off_c, 4, 35, 80
4, 143280, Note_on_c, 4, 35, 95
4, 143760, Note_off_c, 4, 35, 80
4, 143760, Note_on_c, 4, 35, 95
4, 144000, Note_off_c, 4, 35, 80
4, 144000, Note_on_c, 4, 33, 95
4, 144480, Note_off_c, 4, 33, 80
4, 144480, Note_on_c, 4, 33, 95
4, 144960, Note_off_c, 4, 33, 80
4, 144960, Note_on_c, 4, 30, 95
4, 145440, Note_off_c, 4, 30, 80
4, 145440, Note_on_c, 4, 30, 95
4, 145920, Note_off_c, 4, 30, 80
4, 145920, Note_on_c, 4, 37, 95
4, 146400, Note_off_c, 4, 37, 80
4, 146400, Note_on_c, 4, 37, 95
4, 146640, Note_off_c, 4, 37, 80
4, 146640, Note_on_c, 4, 35, 95
4, 147120, Note_off_c, 4, 35, 80
4, 147120, Note_on_c, 4, 35, 95
4, 147600, Note_off_c, 4, 35, 80
4, 147600, Note_on_c, 4, 35, 95
4, 147840, Note_off_c, 4, 35, 80
4, 147840, Note_on_c, 4, 33, 95
4, 148320, Note_off_c, 4, 33, 80
4, 148320, Note_on_c, 4, 33, 95
4, 148800, Note_off_c, 4, 33, 80
4, 148800, Note_on_c, 4, 30, 95
4, 149280, Note_off_c, 4, 30, 80
4, 149280, Note_on_c, 4, 30, 95
4, 149760, Note_off_c, 4, 30, 80
4, 149760, Note_on_c, 4, 37, 95
4, 150240, Note_off_c, 4, 37, 80
4, 150240, Note_on_c, 4, 37, 95
4, 150480, Note_off_c, 4, 37, 80
4, 150480, Note_on_c, 4, 35, 95
4, 150960, Note_off_c, 4, 35, 80
4, 150960, Note_on_c, 4, 35, 95
4, 151440, Note_off_c, 4, 35, 80
4, 151440, Note_on_c, 4, 35, 95
4, 151680, Note_off_c, 4, 35, 80
4, 151680, Note_on_c, 4, 33, 95
4, 152160, Note_off_c, 4, 33, 80
4, 152160, Note_on_c, 4, 33, 95
4, 152640, Note_off_c, 4, 33, 80
4, 152640, Note_on_c, 4, 30, 95
4, 153120, Note_off_c, 4, 30, 80
4, 153120, Note_on_c, 4, 30, 95
4, 153600, Note_off_c, 4, 30, 80
4, 153600, Note_on_c, 4, 30, 95
4, 153840, Note_off_c, 4, 30, 80
4, 153840, Note_on_c, 4, 30, 95
4, 154080, Note_off_c, 4, 30, 80
4, 154080, Note_on_c, 4, 30, 95
4, 154320, Note_off_c, 4, 30, 80
4, 154320, Note_on_c, 4, 30, 95
4, 154560, Note_off_c, 4, 30, 80
4, 154560, Note_on_c, 4, 30, 95
4, 154800, Note_off_c, 4, 30, 80
4, 154800, Note_on_c, 4, 30, 95
4, 155040, Note_off_c, 4, 30, 80
4, 155040, Note_on_c, 4, 30, 95
4, 155280, Note_off_c, 4, 30, 80
4, 155280, Note_on_c, 4, 30, 95
4, 155520, Note_off_c, 4, 30, 80
4, 155520, Note_on_c, 4, 30, 95
4, 155760, Note_off_c, 4, 30, 80
4, 155760, Note_on_c, 4, 30, 95
4, 156000, Note_off_c, 4, 30, 80
4, 156000, Note_on_c, 4, 30, 95
4, 156240, Note_off_c, 4, 30, 80
4, 156240, Note_on_c, 4, 30, 95
4, 156480, Note_off_c, 4, 30, 80
4, 156480, Note_on_c, 4, 30, 95
4, 156720, Note_off_c, 4, 30, 80
4, 156720, Note_on_c, 4, 30, 95
4, 156960, Note_off_c, 4, 30, 80
4, 156960, Note_on_c, 4, 30, 95
4, 157200, Note_off_c, 4, 30, 80
4, 157200, Note_on_c, 4, 30, 95
4, 157440, Note_off_c, 4, 30, 80
4, 157440, Note_on_c, 4, 33, 95
4, 157680, Note_off_c, 4, 33, 80
4, 157680, Note_on_c, 4, 33, 95
4, 157920, Note_off_c, 4, 33, 80
4, 157920, Note_on_c, 4, 33, 95
4, 158160, Note_off_c, 4, 33, 80
4, 158160, Note_on_c, 4, 33, 95
4, 158400, Note_off_c, 4, 33, 80
4, 158400, Note_on_c, 4, 33, 95
4, 158640, Note_off_c, 4, 33, 80
4, 158640, Note_on_c, 4, 33, 95
4, 158880, Note_off_c, 4, 33, 80
4, 158880, Note_on_c, 4, 33, 95
4, 159120, Note_off_c, 4, 33, 80
4, 159120, Note_on_c, 4, 33, 95
4, 159360, Note_off_c, 4, 33, 80
4, 159360, Note_on_c, 4, 33, 95
4, 159600, Note_off_c, 4, 33, 80
4, 159600, Note_on_c, 4, 33, 95
4, 159840, Note_off_c, 4, 33, 80
4, 159840, Note_on_c, 4, 33, 95
4, 160080, Note_off_c, 4, 33, 80
4, 160080, Note_on_c, 4, 33, 95
4, 160320, Note_off_c, 4, 33, 80
4, 160320, Note_on_c, 4, 33, 95
4, 160560, Note_off_c, 4, 33, 80
4, 160560, Note_on_c, 4, 33, 95
4, 160800, Note_off_c, 4, 33, 80
4, 160800, Note_on_c, 4, 33, 95
4, 161040, Note_off_c, 4, 33, 80
4, 161040, Note_on_c, 4, 33, 95
4, 161280, Note_off_c, 4, 33, 80
4, 161280, Note_on_c, 4, 40, 95
4, 161520, Note_off_c, 4, 40, 80
4, 161520, Note_on_c, 4, 40, 95
4, 161760, Note_off_c, 4, 40, 80
4, 161760, Note_on_c, 4, 40, 95
4, 162000, Note_off_c, 4, 40, 80
4, 162000, Note_on_c, 4, 40, 95
4, 162240, Note_off_c, 4, 40, 80
4, 162240, Note_on_c, 4, 40, 95
4, 162480, Note_off_c, 4, 40, 80
4, 162480, Note_on_c, 4, 40, 95
4, 162720, Note_off_c, 4, 40, 80
4, 162720, Note_on_c, 4, 40, 95
4, 162960, Note_off_c, 4, 40, 80
4, 162960, Note_on_c, 4, 40, 95
4, 163200, Note_off_c, 4, 40, 80
4, 163200, Note_on_c, 4, 40, 95
4, 163440, Note_off_c, 4, 40, 80
4, 163440, Note_on_c, 4, 40, 95
4, 163680, Note_off_c, 4, 40, 80
4, 163680, Note_on_c, 4, 40, 95
4, 163920, Note_off_c, 4, 40, 80
4, 163920, Note_on_c, 4, 40, 95
4, 164160, Note_off_c, 4, 40, 80
4, 164160, Note_on_c, 4, 40, 95
4, 164400, Note_off_c, 4, 40, 80
4, 164400, Note_on_c, 4, 40, 95
4, 164640, Note_off_c, 4, 40, 80
4, 164640, Note_on_c, 4, 40, 95
4, 164880, Note_off_c, 4, 40, 80
4, 164880, Note_on_c, 4, 40, 95
4, 165120, Note_off_c, 4, 40, 80
4, 165120, Note_on_c, 4, 30, 95
4, 165360, Note_off_c, 4, 30, 80
4, 165360, Note_on_c, 4, 30, 95
4, 165600, Note_off_c, 4, 30, 80
4, 165600, Note_on_c, 4, 30, 95
4, 165840, Note_off_c, 4, 30, 80
4, 165840, Note_on_c, 4, 30, 95
4, 166080, Note_off_c, 4, 30, 80
4, 166080, Note_on_c, 4, 30, 95
4, 166320, Note_off_c, 4, 30, 80
4, 166320, Note_on_c, 4, 30, 95
4, 166560, Note_off_c, 4, 30, 80
4, 166560, Note_on_c, 4, 30, 95
4, 166800, Note_off_c, 4, 30, 80
4, 166800, Note_on_c, 4, 30, 95
4, 167040, Note_off_c, 4, 30, 80
4, 167040, Note_on_c, 4, 30, 95
4, 167280, Note_off_c, 4, 30, 80
4, 167280, Note_on_c, 4, 30, 95
4, 167520, Note_off_c, 4, 30, 80
4, 167520, Note_on_c, 4, 30, 95
4, 167760, Note_off_c, 4, 30, 80
4, 167760, Note_on_c, 4, 30, 95
4, 168000, Note_off_c, 4, 30, 80
4, 168000, Note_on_c, 4, 30, 95
4, 168240, Note_off_c, 4, 30, 80
4, 168240, Note_on_c, 4, 30, 95
4, 168480, Note_off_c, 4, 30, 80
4, 168480, Note_on_c, 4, 30, 95
4, 168720, Note_off_c, 4, 30, 80
4, 168720, Note_on_c, 4, 30, 95
4, 168960, Note_off_c, 4, 30, 80
4, 168960, Note_on_c, 4, 30, 95
4, 169200, Note_off_c, 4, 30, 80
4, 169200, Note_on_c, 4, 30, 95
4, 169440, Note_off_c, 4, 30, 80
4, 169440, Note_on_c, 4, 30, 95
4, 169680, Note_off_c, 4, 30, 80
4, 169680, Note_on_c, 4, 30, 95
4, 169920, Note_off_c, 4, 30, 80
4, 169920, Note_on_c, 4, 30, 95
4, 170160, Note_off_c, 4, 30, 80
4, 170160, Note_on_c, 4, 30, 95
4, 170400, Note_off_c, 4, 30, 80
4, 170400, Note_on_c, 4, 30, 95
4, 170640, Note_off_c, 4, 30, 80
4, 170640, Note_on_c, 4, 30, 95
4, 170880, Note_off_c, 4, 30, 80
4, 170880, Note_on_c, 4, 30, 95
4, 171120, Note_off_c, 4, 30, 80
4, 171120, Note_on_c, 4, 30, 95
4, 171360, Note_off_c, 4, 30, 80
4, 171360, Note_on_c, 4, 30, 95
4, 171600, Note_off_c, 4, 30, 80
4, 171600, Note_on_c, 4, 30, 95
4, 171840, Note_off_c, 4, 30, 80
4, 171840, Note_on_c, 4, 30, 95
4, 172080, Note_off_c, 4, 30, 80
4, 172080, Note_on_c, 4, 30, 95
4, 172320, Note_off_c, 4, 30, 80
4, 172320, Note_on_c, 4, 30, 95
4, 172560, Note_off_c, 4, 30, 80
4, 172560, Note_on_c, 4, 30, 95
4, 172800, Note_off_c, 4, 30, 80
4, 172800, Note_on_c, 4, 33, 95
4, 173040, Note_off_c, 4, 33, 80
4, 173040, Note_on_c, 4, 33, 95
4, 173280, Note_off_c, 4, 33, 80
4, 173280, Note_on_c, 4, 33, 95
4, 173520, Note_off_c, 4, 33, 80
4, 173520, Note_on_c, 4, 33, 95
4, 173760, Note_off_c, 4, 33, 80
4, 173760, Note_on_c, 4, 33, 95
4, 174000, Note_off_c, 4, 33, 80
4, 174000, Note_on_c, 4, 33, 95
4, 174240, Note_off_c, 4, 33, 80
4, 174240, Note_on_c, 4, 33, 95
4, 174480, Note_off_c, 4, 33, 80
4, 174480, Note_on_c, 4, 33, 95
4, 174720, Note_off_c, 4, 33, 80
4, 174720, Note_on_c, 4, 33, 95
4, 174960, Note_off_c, 4, 33, 80
4, 174960, Note_on_c, 4, 33, 95
4, 175200, Note_off_c, 4, 33, 80
4, 175200, Note_on_c, 4, 33, 95
4, 175440, Note_off_c, 4, 33, 80
4, 175440, Note_on_c, 4, 33, 95
4, 175680, Note_off_c, 4, 33, 80
4, 175680, Note_on_c, 4, 33, 95
4, 175920, Note_off_c, 4, 33, 80
4, 175920, Note_on_c, 4, 33, 95
4, 176160, Note_off_c, 4, 33, 80
4, 176160, Note_on_c, 4, 33, 95
4, 176400, Note_off_c, 4, 33, 80
4, 176400, Note_on_c, 4, 33, 95
4, 176640, Note_off_c, 4, 33, 80
4, 176640, Note_on_c, 4, 40, 95
4, 176880, Note_off_c, 4, 40, 80
4, 176880, Note_on_c, 4, 40, 95
4, 177120, Note_off_c, 4, 40, 80
4, 177120, Note_on_c, 4, 40, 95
4, 177360, Note_off_c, 4, 40, 80
4, 177360, Note_on_c, 4, 40, 95
4, 177600, Note_off_c, 4, 40, 80
4, 177600, Note_on_c, 4, 40, 95
4, 177840, Note_off_c, 4, 40, 80
4, 177840, Note_on_c, 4, 40, 95
4, 178080, Note_off_c, 4, 40, 80
4, 178080, Note_on_c, 4, 40, 95
4, 178320, Note_off_c, 4, 40, 80
4, 178320, Note_on_c, 4, 40, 95
4, 178560, Note_off_c, 4, 40, 80
4, 178560, Note_on_c, 4, 40, 95
4, 178800, Note_off_c, 4, 40, 80
4, 178800, Note_on_c, 4, 40, 95
4, 179040, Note_off_c, 4, 40, 80
4, 179040, Note_on_c, 4, 40, 95
4, 179280, Note_off_c, 4, 40, 80
4, 179280, Note_on_c, 4, 40, 95
4, 179520, Note_off_c, 4, 40, 80
4, 179520, Note_on_c, 4, 40, 95
4, 179760, Note_off_c, 4, 40, 80
4, 179760, Note_on_c, 4, 40, 95
4, 180000, Note_off_c, 4, 40, 80
4, 180000, Note_on_c, 4, 40, 95
4, 180240, Note_off_c, 4, 40, 80
4, 180240, Note_on_c, 4, 40, 95
4, 180480, Note_off_c, 4, 40, 80
4, 180480, Note_on_c, 4, 37, 95
4, 180720, Note_off_c, 4, 37, 80
4, 180720, Note_on_c, 4, 37, 95
4, 180960, Note_off_c, 4, 37, 80
4, 180960, Note_on_c, 4, 37, 95
4, 181200, Note_off_c, 4, 37, 80
4, 181200, Note_on_c, 4, 37, 95
4, 181440, Note_off_c, 4, 37, 80
4, 181440, Note_on_c, 4, 37, 95
4, 181680, Note_off_c, 4, 37, 80
4, 181680, Note_on_c, 4, 37, 95
4, 181920, Note_off_c, 4, 37, 80
4, 181920, Note_on_c, 4, 37, 95
4, 182160, Note_off_c, 4, 37, 80
4, 182160, Note_on_c, 4, 37, 95
4, 182400, Note_off_c, 4, 37, 80
4, 182400, Note_on_c, 4, 37, 95
4, 182640, Note_off_c, 4, 37, 80
4, 182640, Note_on_c, 4, 37, 95
4, 182880, Note_off_c, 4, 37, 80
4, 182880, Note_on_c, 4, 37, 95
4, 183120, Note_off_c, 4, 37, 80
4, 183120, Note_on_c, 4, 37, 95
4, 183360, Note_off_c, 4, 37, 80
4, 183360, Note_on_c, 4, 37, 95
4, 183600, Note_off_c, 4, 37, 80
4, 183600, Note_on_c, 4, 37, 95
4, 183840, Note_off_c, 4, 37, 80
4, 183840, Note_on_c, 4, 37, 95
4, 184080, Note_off_c, 4, 37, 80
4, 184080, Note_on_c, 4, 37, 95
4, 184320, Note_off_c, 4, 37, 80
4, 184320, Note_on_c, 4, 33, 95
4, 184560, Note_off_c, 4, 33, 80
4, 184560, Note_on_c, 4, 33, 95
4, 184800, Note_off_c, 4, 33, 80
4, 184800, Note_on_c, 4, 33, 95
4, 185040, Note_off_c, 4, 33, 80
4, 185040, Note_on_c, 4, 33, 95
4, 185280, Note_off_c, 4, 33, 80
4, 185280, Note_on_c, 4, 33, 95
4, 185520, Note_off_c, 4, 33, 80
4, 185520, Note_on_c, 4, 33, 95
4, 185760, Note_off_c, 4, 33, 80
4, 185760, Note_on_c, 4, 33, 95
4, 186000, Note_off_c, 4, 33, 80
4, 186000, Note_on_c, 4, 33, 95
4, 186240, Note_off_c, 4, 33, 80
4, 186240, Note_on_c, 4, 33, 95
4, 186480, Note_off_c, 4, 33, 80
4, 186480, Note_on_c, 4, 33, 95
4, 186720, Note_off_c, 4, 33, 80
4, 186720, Note_on_c, 4, 33, 95
4, 186960, Note_off_c, 4, 33, 80
4, 186960, Note_on_c, 4, 33, 95
4, 187200, Note_off_c, 4, 33, 80
4, 187200, Note_on_c, 4, 33, 95
4, 187440, Note_off_c, 4, 33, 80
4, 187440, Note_on_c, 4, 33, 95
4, 187680, Note_off_c, 4, 33, 80
4, 187680, Note_on_c, 4, 33, 95
4, 187920, Note_off_c, 4, 33, 80
4, 187920, Note_on_c, 4, 33, 95
4, 188160, Note_off_c, 4, 33, 80
4, 188160, Note_on_c, 4, 28, 95
4, 188400, Note_off_c, 4, 28, 80
4, 188400, Note_on_c, 4, 28, 95
4, 188640, Note_off_c, 4, 28, 80
4, 188640, Note_on_c, 4, 28, 95
4, 188880, Note_off_c, 4, 28, 80
4, 188880, Note_on_c, 4, 28, 95
4, 189120, Note_off_c, 4, 28, 80
4, 189120, Note_on_c, 4, 28, 95
4, 189360, Note_off_c, 4, 28, 80
4, 189360, Note_on_c, 4, 28, 95
4, 189600, Note_off_c, 4, 28, 80
4, 189600, Note_on_c, 4, 28, 95
4, 189840, Note_off_c, 4, 28, 80
4, 189840, Note_on_c, 4, 28, 95
4, 190080, Note_off_c, 4, 28, 80
4, 190080, Note_on_c, 4, 28, 95
4, 190320, Note_off_c, 4, 28, 80
4, 190320, Note_on_c, 4, 28, 95
4, 190560, Note_off_c, 4, 28, 80
4, 190560, Note_on_c, 4, 28, 95
4, 190800, Note_off_c, 4, 28, 80
4, 190800, Note_on_c, 4, 28, 95
4, 191040, Note_off_c, 4, 28, 80
4, 191040, Note_on_c, 4, 28, 95
4, 191280, Note_off_c, 4, 28, 80
4, 191280, Note_on_c, 4, 28, 95
4, 191520, Note_off_c, 4, 28, 80
4, 191520, Note_on_c, 4, 28, 95
4, 191760, Note_off_c, 4, 28, 80
4, 191760, Note_on_c, 4, 28, 95
4, 192000, Note_off_c, 4, 28, 80
4, 192000, Note_on_c, 4, 30, 95
4, 192240, Note_off_c, 4, 30, 80
4, 192240, Note_on_c, 4, 30, 95
4, 192480, Note_off_c, 4, 30, 80
4, 192480, Note_on_c, 4, 30, 95
4, 192720, Note_off_c, 4, 30, 80
4, 192720, Note_on_c, 4, 30, 95
4, 192960, Note_off_c, 4, 30, 80
4, 192960, Note_on_c, 4, 30, 95
4, 193200, Note_off_c, 4, 30, 80
4, 193200, Note_on_c, 4, 30, 95
4, 193440, Note_off_c, 4, 30, 80
4, 193440, Note_on_c, 4, 30, 95
4, 193680, Note_off_c, 4, 30, 80
4, 193680, Note_on_c, 4, 30, 95
4, 193920, Note_off_c, 4, 30, 80
4, 193920, Note_on_c, 4, 30, 95
4, 194160, Note_off_c, 4, 30, 80
4, 194160, Note_on_c, 4, 30, 95
4, 194400, Note_off_c, 4, 30, 80
4, 194400, Note_on_c, 4, 30, 95
4, 194640, Note_off_c, 4, 30, 80
4, 194640, Note_on_c, 4, 30, 95
4, 194880, Note_off_c, 4, 30, 80
4, 194880, Note_on_c, 4, 30, 95
4, 195120, Note_off_c, 4, 30, 80
4, 195120, Note_on_c, 4, 30, 95
4, 195360, Note_off_c, 4, 30, 80
4, 195360, Note_on_c, 4, 30, 95
4, 195600, Note_off_c, 4, 30, 80
4, 195600, Note_on_c, 4, 30, 95
4, 195840, Note_off_c, 4, 30, 80
4, 195840, Note_on_c, 4, 30, 95
4, 196080, Note_off_c, 4, 30, 80
4, 196080, Note_on_c, 4, 30, 95
4, 196320, Note_off_c, 4, 30, 80
4, 196320, Note_on_c, 4, 30, 95
4, 196560, Note_off_c, 4, 30, 80
4, 196560, Note_on_c, 4, 30, 95
4, 196800, Note_off_c, 4, 30, 80
4, 196800, Note_on_c, 4, 30, 95
4, 197040, Note_off_c, 4, 30, 80
4, 197040, Note_on_c, 4, 30, 95
4, 197280, Note_off_c, 4, 30, 80
4, 197280, Note_on_c, 4, 30, 95
4, 197520, Note_off_c, 4, 30, 80
4, 197520, Note_on_c, 4, 30, 95
4, 197760, Note_off_c, 4, 30, 80
4, 197760, Note_on_c, 4, 30, 95
4, 198000, Note_off_c, 4, 30, 80
4, 198000, Note_on_c, 4, 30, 95
4, 198240, Note_off_c, 4, 30, 80
4, 198240, Note_on_c, 4, 30, 95
4, 198480, Note_off_c, 4, 30, 80
4, 198480, Note_on_c, 4, 30, 95
4, 198720, Note_off_c, 4, 30, 80
4, 198720, Note_on_c, 4, 30, 95
4, 198960, Note_off_c, 4, 30, 80
4, 198960, Note_on_c, 4, 30, 95
4, 199200, Note_off_c, 4, 30, 80
4, 199200, Note_on_c, 4, 30, 95
4, 199440, Note_off_c, 4, 30, 80
4, 199440, Note_on_c, 4, 30, 95
4, 199680, Note_off_c, 4, 30, 80
4, 199680, Note_on_c, 4, 33, 95
4, 199920, Note_off_c, 4, 33, 80
4, 199920, Note_on_c, 4, 33, 95
4, 200160, Note_off_c, 4, 33, 80
4, 200160, Note_on_c, 4, 33, 95
4, 200400, Note_off_c, 4, 33, 80
4, 200400, Note_on_c, 4, 33, 95
4, 200640, Note_off_c, 4, 33, 80
4, 200640, Note_on_c, 4, 33, 95
4, 200880, Note_off_c, 4, 33, 80
4, 200880, Note_on_c, 4, 33, 95
4, 201120, Note_off_c, 4, 33, 80
4, 201120, Note_on_c, 4, 33, 95
4, 201360, Note_off_c, 4, 33, 80
4, 201360, Note_on_c, 4, 33, 95
4, 201600, Note_off_c, 4, 33, 80
4, 201600, Note_on_c, 4, 33, 95
4, 201840, Note_off_c, 4, 33, 80
4, 201840, Note_on_c, 4, 33, 95
4, 202080, Note_off_c, 4, 33, 80
4, 202080, Note_on_c, 4, 33, 95
4, 202320, Note_off_c, 4, 33, 80
4, 202320, Note_on_c, 4, 33, 95
4, 202560, Note_off_c, 4, 33, 80
4, 202560, Note_on_c, 4, 33, 95
4, 202800, Note_off_c, 4, 33, 80
4, 202800, Note_on_c, 4, 33, 95
4, 203040, Note_off_c, 4, 33, 80
4, 203040, Note_on_c, 4, 33, 95
4, 203280, Note_off_c, 4, 33, 80
4, 203280, Note_on_c, 4, 33, 95
4, 203520, Note_off_c, 4, 33, 80
4, 203520, Note_on_c, 4, 28, 95
4, 203760, Note_off_c, 4, 28, 80
4, 203760, Note_on_c, 4, 28, 95
4, 204000, Note_off_c, 4, 28, 80
4, 204000, Note_on_c, 4, 28, 95
4, 204240, Note_off_c, 4, 28, 80
4, 204240, Note_on_c, 4, 28, 95
4, 204480, Note_off_c, 4, 28, 80
4, 204480, Note_on_c, 4, 28, 95
4, 204720, Note_off_c, 4, 28, 80
4, 204720, Note_on_c, 4, 28, 95
4, 204960, Note_off_c, 4, 28, 80
4, 204960, Note_on_c, 4, 28, 95
4, 205200, Note_off_c, 4, 28, 80
4, 205200, Note_on_c, 4, 28, 95
4, 205440, Note_off_c, 4, 28, 80
4, 205440, Note_on_c, 4, 28, 95
4, 205680, Note_off_c, 4, 28, 80
4, 205680, Note_on_c, 4, 28, 95
4, 205920, Note_off_c, 4, 28, 80
4, 205920, Note_on_c, 4, 28, 95
4, 206160, Note_off_c, 4, 28, 80
4, 206160, Note_on_c, 4, 28, 95
4, 206400, Note_off_c, 4, 28, 80
4, 206400, Note_on_c, 4, 28, 95
4, 206640, Note_off_c, 4, 28, 80
4, 206640, Note_on_c, 4, 28, 95
4, 206880, Note_off_c, 4, 28, 80
4, 206880, Note_on_c, 4, 28, 95
4, 207120, Note_off_c, 4, 28, 80
4, 207120, Note_on_c, 4, 28, 95
4, 207360, Note_off_c, 4, 28, 80
4, 207360, Note_on_c, 4, 30, 95
4, 207840, Note_off_c, 4, 30, 80
4, 207840, Note_on_c, 4, 30, 95
4, 208320, Note_off_c, 4, 30, 80
4, 209280, Note_on_c, 4, 30, 95
4, 209760, Note_off_c, 4, 30, 80
4, 209760, Note_on_c, 4, 30, 95
4, 210240, Note_off_c, 4, 30, 80
4, 211200, Note_on_c, 4, 30, 95
4, 211680, Note_off_c, 4, 30, 80
4, 211680, Note_on_c, 4, 30, 95
4, 212160, Note_off_c, 4, 30, 80
4, 213120, Note_on_c, 4, 30, 95
4, 213600, Note_off_c, 4, 30, 80
4, 213600, Note_on_c, 4, 30, 95
4, 214080, Note_off_c, 4, 30, 80
4, 215040, Note_on_c, 4, 30, 95
4, 215520, Note_off_c, 4, 30, 80
4, 215520, Note_on_c, 4, 30, 95
4, 216000, Note_off_c, 4, 30, 80
4, 216960, Note_on_c, 4, 30, 95
4, 217440, Note_off_c, 4, 30, 80
4, 217440, Note_on_c, 4, 30, 95
4, 217920, Note_off_c, 4, 30, 80
4, 218880, Note_on_c, 4, 30, 95
4, 219360, Note_off_c, 4, 30, 80
4, 219360, Note_on_c, 4, 30, 95
4, 219840, Note_off_c, 4, 30, 80
4, 220800, Note_on_c, 4, 30, 95
4, 221280, Note_off_c, 4, 30, 80
4, 221280, Note_on_c, 4, 30, 95
4, 221760, Note_off_c, 4, 30, 80
4, 222720, Note_on_c, 4, 30, 95
4, 222960, Note_off_c, 4, 30, 80
4, 222960, Note_on_c, 4, 30, 95
4, 223200, Note_off_c, 4, 30, 80
4, 223200, Note_on_c, 4, 30, 95
4, 223440, Note_off_c, 4, 30, 80
4, 223440, Note_on_c, 4, 30, 95
4, 223680, Note_off_c, 4, 30, 80
4, 223680, Note_on_c, 4, 30, 95
4, 223920, Note_off_c, 4, 30, 80
4, 223920, Note_on_c, 4, 30, 95
4, 224160, Note_off_c, 4, 30, 80
4, 224160, Note_on_c, 4, 30, 95
4, 224400, Note_off_c, 4, 30, 80
4, 224400, Note_on_c, 4, 30, 95
4, 224640, Note_off_c, 4, 30, 80
4, 224640, Note_on_c, 4, 30, 95
4, 224880, Note_off_c, 4, 30, 80
4, 224880, Note_on_c, 4, 30, 95
4, 225120, Note_off_c, 4, 30, 80
4, 225120, Note_on_c, 4, 30, 95
4, 225360, Note_off_c, 4, 30, 80
4, 225360, Note_on_c, 4, 30, 95
4, 225600, Note_off_c, 4, 30, 80
4, 225600, Note_on_c, 4, 30, 95
4, 225840, Note_off_c, 4, 30, 80
4, 225840, Note_on_c, 4, 30, 95
4, 226080, Note_off_c, 4, 30, 80
4, 226080, Note_on_c, 4, 30, 95
4, 226320, Note_off_c, 4, 30, 80
4, 226320, Note_on_c, 4, 30, 95
4, 226560, Note_off_c, 4, 30, 80
4, 226560, Note_on_c, 4, 30, 95
4, 226800, Note_off_c, 4, 30, 80
4, 226800, Note_on_c, 4, 30, 95
4, 227040, Note_off_c, 4, 30, 80
4, 227040, Note_on_c, 4, 30, 95
4, 227280, Note_off_c, 4, 30, 80
4, 227280, Note_on_c, 4, 30, 95
4, 227520, Note_off_c, 4, 30, 80
4, 227520, Note_on_c, 4, 30, 95
4, 227760, Note_off_c, 4, 30, 80
4, 227760, Note_on_c, 4, 30, 95
4, 228000, Note_off_c, 4, 30, 80
4, 228000, Note_on_c, 4, 30, 95
4, 228240, Note_off_c, 4, 30, 80
4, 228240, Note_on_c, 4, 30, 95
4, 228480, Note_off_c, 4, 30, 80
4, 228480, Note_on_c, 4, 30, 95
4, 228720, Note_off_c, 4, 30, 80
4, 228720, Note_on_c, 4, 30, 95
4, 228960, Note_off_c, 4, 30, 80
4, 228960, Note_on_c, 4, 30, 95
4, 229200, Note_off_c, 4, 30, 80
4, 229200, Note_on_c, 4, 30, 95
4, 229440, Note_off_c, 4, 30, 80
4, 229440, Note_on_c, 4, 30, 95
4, 229680, Note_off_c, 4, 30, 80
4, 229680, Note_on_c, 4, 30, 95
4, 229920, Note_off_c, 4, 30, 80
4, 229920, Note_on_c, 4, 30, 95
4, 230160, Note_off_c, 4, 30, 80
4, 230160, Note_on_c, 4, 30, 95
4, 230400, Note_off_c, 4, 30, 80
4, 230400, Note_on_c, 4, 30, 95
4, 230640, Note_off_c, 4, 30, 80
4, 230640, Note_on_c, 4, 30, 95
4, 230880, Note_off_c, 4, 30, 80
4, 230880, Note_on_c, 4, 30, 95
4, 231120, Note_off_c, 4, 30, 80
4, 231120, Note_on_c, 4, 30, 95
4, 231360, Note_off_c, 4, 30, 80
4, 231360, Note_on_c, 4, 30, 95
4, 231600, Note_off_c, 4, 30, 80
4, 231600, Note_on_c, 4, 30, 95
4, 231840, Note_off_c, 4, 30, 80
4, 231840, Note_on_c, 4, 30, 95
4, 232080, Note_off_c, 4, 30, 80
4, 232080, Note_on_c, 4, 30, 95
4, 232320, Note_off_c, 4, 30, 80
4, 232320, Note_on_c, 4, 30, 95
4, 232560, Note_off_c, 4, 30, 80
4, 232560, Note_on_c, 4, 30, 95
4, 232800, Note_off_c, 4, 30, 80
4, 232800, Note_on_c, 4, 30, 95
4, 233040, Note_off_c, 4, 30, 80
4, 233040, Note_on_c, 4, 30, 95
4, 233280, Note_off_c, 4, 30, 80
4, 233280, Note_on_c, 4, 30, 95
4, 233520, Note_off_c, 4, 30, 80
4, 233520, Note_on_c, 4, 30, 95
4, 233760, Note_off_c, 4, 30, 80
4, 233760, Note_on_c, 4, 30, 95
4, 234000, Note_off_c, 4, 30, 80
4, 234000, Note_on_c, 4, 30, 95
4, 234240, Note_off_c, 4, 30, 80
4, 234240, Note_on_c, 4, 30, 95
4, 234480, Note_off_c, 4, 30, 80
4, 234480, Note_on_c, 4, 30, 95
4, 234720, Note_off_c, 4, 30, 80
4, 234720, Note_on_c, 4, 30, 95
4, 234960, Note_off_c, 4, 30, 80
4, 234960, Note_on_c, 4, 30, 95
4, 235200, Note_off_c, 4, 30, 80
4, 235200, Note_on_c, 4, 30, 95
4, 235440, Note_off_c, 4, 30, 80
4, 235440, Note_on_c, 4, 30, 95
4, 235680, Note_off_c, 4, 30, 80
4, 235680, Note_on_c, 4, 30, 95
4, 235920, Note_off_c, 4, 30, 80
4, 235920, Note_on_c, 4, 30, 95
4, 236160, Note_off_c, 4, 30, 80
4, 236160, Note_on_c, 4, 30, 95
4, 236400, Note_off_c, 4, 30, 80
4, 236400, Note_on_c, 4, 30, 95
4, 236640, Note_off_c, 4, 30, 80
4, 236640, Note_on_c, 4, 30, 95
4, 236880, Note_off_c, 4, 30, 80
4, 236880, Note_on_c, 4, 30, 95
4, 237120, Note_off_c, 4, 30, 80
4, 237120, Note_on_c, 4, 30, 95
4, 237360, Note_off_c, 4, 30, 80
4, 237360, Note_on_c, 4, 30, 95
4, 237600, Note_off_c, 4, 30, 80
4, 237600, Note_on_c, 4, 30, 95
4, 237840, Note_off_c, 4, 30, 80
4, 237840, Note_on_c, 4, 30, 95
4, 238080, Note_off_c, 4, 30, 80
4, 238080, Note_on_c, 4, 30, 95
4, 238560, Note_off_c, 4, 30, 80
4, 241920, Note_on_c, 4, 30, 95
4, 242160, Note_off_c, 4, 30, 80
4, 242160, Note_on_c, 4, 30, 95
4, 242400, Note_off_c, 4, 30, 80
4, 242400, Note_on_c, 4, 30, 95
4, 242640, Note_off_c, 4, 30, 80
4, 242640, Note_on_c, 4, 30, 95
4, 242880, Note_off_c, 4, 30, 80
4, 242880, Note_on_c, 4, 30, 95
4, 243120, Note_off_c, 4, 30, 80
4, 243120, Note_on_c, 4, 30, 95
4, 243360, Note_off_c, 4, 30, 80
4, 243360, Note_on_c, 4, 30, 95
4, 243600, Note_off_c, 4, 30, 80
4, 243600, Note_on_c, 4, 30, 95
4, 243840, Note_off_c, 4, 30, 80
4, 243840, Note_on_c, 4, 30, 95
4, 244080, Note_off_c, 4, 30, 80
4, 244080, Note_on_c, 4, 30, 95
4, 244320, Note_off_c, 4, 30, 80
4, 244320, Note_on_c, 4, 30, 95
4, 244560, Note_off_c, 4, 30, 80
4, 244560, Note_on_c, 4, 30, 95
4, 244800, Note_off_c, 4, 30, 80
4, 244800, Note_on_c, 4, 30, 95
4, 245040, Note_off_c, 4, 30, 80
4, 245040, Note_on_c, 4, 30, 95
4, 245280, Note_off_c, 4, 30, 80
4, 245280, Note_on_c, 4, 30, 95
4, 245520, Note_off_c, 4, 30, 80
4, 245520, Note_on_c, 4, 30, 95
4, 245760, Note_off_c, 4, 30, 80
4, 245760, Note_on_c, 4, 33, 95
4, 246000, Note_off_c, 4, 33, 80
4, 246000, Note_on_c, 4, 33, 95
4, 246240, Note_off_c, 4, 33, 80
4, 246240, Note_on_c, 4, 33, 95
4, 246480, Note_off_c, 4, 33, 80
4, 246480, Note_on_c, 4, 33, 95
4, 246720, Note_off_c, 4, 33, 80
4, 246720, Note_on_c, 4, 33, 95
4, 246960, Note_off_c, 4, 33, 80
4, 246960, Note_on_c, 4, 33, 95
4, 247200, Note_off_c, 4, 33, 80
4, 247200, Note_on_c, 4, 33, 95
4, 247440, Note_off_c, 4, 33, 80
4, 247440, Note_on_c, 4, 33, 95
4, 247680, Note_off_c, 4, 33, 80
4, 247680, Note_on_c, 4, 33, 95
4, 247920, Note_off_c, 4, 33, 80
4, 247920, Note_on_c, 4, 33, 95
4, 248160, Note_off_c, 4, 33, 80
4, 248160, Note_on_c, 4, 33, 95
4, 248400, Note_off_c, 4, 33, 80
4, 248400, Note_on_c, 4, 33, 95
4, 248640, Note_off_c, 4, 33, 80
4, 248640, Note_on_c, 4, 33, 95
4, 248880, Note_off_c, 4, 33, 80
4, 248880, Note_on_c, 4, 33, 95
4, 249120, Note_off_c, 4, 33, 80
4, 249120, Note_on_c, 4, 33, 95
4, 249360, Note_off_c, 4, 33, 80
4, 249360, Note_on_c, 4, 33, 95
4, 249600, Note_off_c, 4, 33, 80
4, 249600, Note_on_c, 4, 40, 95
4, 249840, Note_off_c, 4, 40, 80
4, 249840, Note_on_c, 4, 40, 95
4, 250080, Note_off_c, 4, 40, 80
4, 250080, Note_on_c, 4, 40, 95
4, 250320, Note_off_c, 4, 40, 80
4, 250320, Note_on_c, 4, 40, 95
4, 250560, Note_off_c, 4, 40, 80
4, 250560, Note_on_c, 4, 40, 95
4, 250800, Note_off_c, 4, 40, 80
4, 250800, Note_on_c, 4, 40, 95
4, 251040, Note_off_c, 4, 40, 80
4, 251040, Note_on_c, 4, 40, 95
4, 251280, Note_off_c, 4, 40, 80
4, 251280, Note_on_c, 4, 40, 95
4, 251520, Note_off_c, 4, 40, 80
4, 251520, Note_on_c, 4, 40, 95
4, 251760, Note_off_c, 4, 40, 80
4, 251760, Note_on_c, 4, 40, 95
4, 252000, Note_off_c, 4, 40, 80
4, 252000, Note_on_c, 4, 40, 95
4, 252240, Note_off_c, 4, 40, 80
4, 252240, Note_on_c, 4, 40, 95
4, 252480, Note_off_c, 4, 40, 80
4, 252480, Note_on_c, 4, 40, 95
4, 252720, Note_off_c, 4, 40, 80
4, 252720, Note_on_c, 4, 40, 95
4, 252960, Note_off_c, 4, 40, 80
4, 252960, Note_on_c, 4, 40, 95
4, 253200, Note_off_c, 4, 40, 80
4, 253200, Note_on_c, 4, 40, 95
4, 253440, Note_off_c, 4, 40, 80
4, 253440, Note_on_c, 4, 30, 95
4, 253680, Note_off_c, 4, 30, 80
4, 253680, Note_on_c, 4, 30, 95
4, 253920, Note_off_c, 4, 30, 80
4, 253920, Note_on_c, 4, 30, 95
4, 254160, Note_off_c, 4, 30, 80
4, 254160, Note_on_c, 4, 30, 95
4, 254400, Note_off_c, 4, 30, 80
4, 254400, Note_on_c, 4, 30, 95
4, 254640, Note_off_c, 4, 30, 80
4, 254640, Note_on_c, 4, 30, 95
4, 254880, Note_off_c, 4, 30, 80
4, 254880, Note_on_c, 4, 30, 95
4, 255120, Note_off_c, 4, 30, 80
4, 255120, Note_on_c, 4, 30, 95
4, 255360, Note_off_c, 4, 30, 80
4, 255360, Note_on_c, 4, 30, 95
4, 255600, Note_off_c, 4, 30, 80
4, 255600, Note_on_c, 4, 30, 95
4, 255840, Note_off_c, 4, 30, 80
4, 255840, Note_on_c, 4, 30, 95
4, 256080, Note_off_c, 4, 30, 80
4, 256080, Note_on_c, 4, 30, 95
4, 256320, Note_off_c, 4, 30, 80
4, 256320, Note_on_c, 4, 30, 95
4, 256560, Note_off_c, 4, 30, 80
4, 256560, Note_on_c, 4, 30, 95
4, 256800, Note_off_c, 4, 30, 80
4, 256800, Note_on_c, 4, 30, 95
4, 257040, Note_off_c, 4, 30, 80
4, 257040, Note_on_c, 4, 30, 95
4, 257280, Note_off_c, 4, 30, 80
4, 257280, Note_on_c, 4, 30, 95
4, 257520, Note_off_c, 4, 30, 80
4, 257520, Note_on_c, 4, 30, 95
4, 257760, Note_off_c, 4, 30, 80
4, 257760, Note_on_c, 4, 30, 95
4, 258000, Note_off_c, 4, 30, 80
4, 258000, Note_on_c, 4, 30, 95
4, 258240, Note_off_c, 4, 30, 80
4, 258240, Note_on_c, 4, 30, 95
4, 258480, Note_off_c, 4, 30, 80
4, 258480, Note_on_c, 4, 30, 95
4, 258720, Note_off_c, 4, 30, 80
4, 258720, Note_on_c, 4, 30, 95
4, 258960, Note_off_c, 4, 30, 80
4, 258960, Note_on_c, 4, 30, 95
4, 259200, Note_off_c, 4, 30, 80
4, 259200, Note_on_c, 4, 30, 95
4, 259440, Note_off_c, 4, 30, 80
4, 259440, Note_on_c, 4, 30, 95
4, 259680, Note_off_c, 4, 30, 80
4, 259680, Note_on_c, 4, 30, 95
4, 259920, Note_off_c, 4, 30, 80
4, 259920, Note_on_c, 4, 30, 95
4, 260160, Note_off_c, 4, 30, 80
4, 260160, Note_on_c, 4, 30, 95
4, 260400, Note_off_c, 4, 30, 80
4, 260400, Note_on_c, 4, 30, 95
4, 260640, Note_off_c, 4, 30, 80
4, 260640, Note_on_c, 4, 30, 95
4, 260880, Note_off_c, 4, 30, 80
4, 260880, Note_on_c, 4, 30, 95
4, 261120, Note_off_c, 4, 30, 80
4, 261120, Note_on_c, 4, 33, 95
4, 261360, Note_off_c, 4, 33, 80
4, 261360, Note_on_c, 4, 33, 95
4, 261600, Note_off_c, 4, 33, 80
4, 261600, Note_on_c, 4, 33, 95
4, 261840, Note_off_c, 4, 33, 80
4, 261840, Note_on_c, 4, 33, 95
4, 262080, Note_off_c, 4, 33, 80
4, 262080, Note_on_c, 4, 33, 95
4, 262320, Note_off_c, 4, 33, 80
4, 262320, Note_on_c, 4, 33, 95
4, 262560, Note_off_c, 4, 33, 80
4, 262560, Note_on_c, 4, 33, 95
4, 262800, Note_off_c, 4, 33, 80
4, 262800, Note_on_c, 4, 33, 95
4, 263040, Note_off_c, 4, 33, 80
4, 263040, Note_on_c, 4, 33, 95
4, 263280, Note_off_c, 4, 33, 80
4, 263280, Note_on_c, 4, 33, 95
4, 263520, Note_off_c, 4, 33, 80
4, 263520, Note_on_c, 4, 33, 95
4, 263760, Note_off_c, 4, 33, 80
4, 263760, Note_on_c, 4, 33, 95
4, 264000, Note_off_c, 4, 33, 80
4, 264000, Note_on_c, 4, 33, 95
4, 264240, Note_off_c, 4, 33, 80
4, 264240, Note_on_c, 4, 33, 95
4, 264480, Note_off_c, 4, 33, 80
4, 264480, Note_on_c, 4, 33, 95
4, 264720, Note_off_c, 4, 33, 80
4, 264720, Note_on_c, 4, 33, 95
4, 264960, Note_off_c, 4, 33, 80
4, 264960, Note_on_c, 4, 40, 95
4, 265200, Note_off_c, 4, 40, 80
4, 265200, Note_on_c, 4, 40, 95
4, 265440, Note_off_c, 4, 40, 80
4, 265440, Note_on_c, 4, 40, 95
4, 265680, Note_off_c, 4, 40, 80
4, 265680, Note_on_c, 4, 40, 95
4, 265920, Note_off_c, 4, 40, 80
4, 265920, Note_on_c, 4, 40, 95
4, 266160, Note_off_c, 4, 40, 80
4, 266160, Note_on_c, 4, 40, 95
4, 266400, Note_off_c, 4, 40, 80
4, 266400, Note_on_c, 4, 40, 95
4, 266640, Note_off_c, 4, 40, 80
4, 266640, Note_on_c, 4, 40, 95
4, 266880, Note_off_c, 4, 40, 80
4, 266880, Note_on_c, 4, 40, 95
4, 267120, Note_off_c, 4, 40, 80
4, 267120, Note_on_c, 4, 40, 95
4, 267360, Note_off_c, 4, 40, 80
4, 267360, Note_on_c, 4, 40, 95
4, 267600, Note_off_c, 4, 40, 80
4, 267600, Note_on_c, 4, 40, 95
4, 267840, Note_off_c, 4, 40, 80
4, 267840, Note_on_c, 4, 40, 95
4, 268080, Note_off_c, 4, 40, 80
4, 268080, Note_on_c, 4, 40, 95
4, 268320, Note_off_c, 4, 40, 80
4, 268320, Note_on_c, 4, 40, 95
4, 268560, Note_off_c, 4, 40, 80
4, 268560, Note_on_c, 4, 40, 95
4, 268800, Note_off_c, 4, 40, 80
4, 268800, Note_on_c, 4, 37, 95
4, 272640, Note_off_c, 4, 37, 80
4, 272640, Note_on_c, 4, 30, 95
4, 280320, Note_off_c, 4, 30, 80
4, 280320, End_track
5, 0, Start_track
5, 0, Title_t, "Matt"
5, 0, Control_c, 9, 100, 0
5, 0, Control_c, 9, 101, 0
5, 0, Control_c, 9, 6, 12
5, 0, Pitch_bend_c, 9, 8192
5, 0, Control_c, 9, 101, 0
5, 0, Control_c, 9, 100, 1
5, 0, Control_c, 9, 6, 64
5, 0, Control_c, 9, 38, 0
5, 0, Control_c, 9, 101, 127
5, 0, Control_c, 9, 100, 127
5, 0, Program_c, 9, 0
5, 0, Control_c, 9, 0, 0
5, 0, Control_c, 9, 7, 127
5, 0, Control_c, 9, 10, 64
5, 0, Control_c, 9, 93, 0
5, 0, Control_c, 9, 91, 0
5, 0, Control_c, 9, 92, 0
5, 0, Control_c, 9, 95, 0
5, 0, Note_on_c, 9, 38, 95
5, 240, Note_off_c, 9, 38, 80
5, 240, Note_on_c, 9, 38, 95
5, 480, Note_off_c, 9, 38, 80
5, 480, Note_on_c, 9, 38, 95
5, 960, Note_off_c, 9, 38, 80
5, 960, Note_on_c, 9, 38, 95
5, 1440, Note_off_c, 9, 38, 80
5, 1440, Note_on_c, 9, 38, 95
5, 1680, Note_off_c, 9, 38, 80
5, 1680, Note_on_c, 9, 38, 95
5, 1920, Note_off_c, 9, 38, 80
5, 1920, Note_on_c, 9, 38, 95
5, 2160, Note_off_c, 9, 38, 80
5, 2160, Note_on_c, 9, 38, 95
5, 2400, Note_off_c, 9, 38, 80
5, 2400, Note_on_c, 9, 38, 95
5, 2880, Note_off_c, 9, 38, 80
5, 2880, Note_on_c, 9, 38, 95
5, 3360, Note_off_c, 9, 38, 80
5, 3360, Note_on_c, 9, 38, 95
5, 3480, Note_off_c, 9, 38, 80
5, 3480, Note_on_c, 9, 38, 95
5, 3600, Note_off_c, 9, 38, 80
5, 3600, Note_on_c, 9, 38, 95
5, 3840, Note_off_c, 9, 38, 80
5, 3840, Note_on_c, 9, 38, 95
5, 4080, Note_off_c, 9, 38, 80
5, 4080, Note_on_c, 9, 38, 95
5, 4320, Note_off_c, 9, 38, 80
5, 4320, Note_on_c, 9, 38, 95
5, 4800, Note_off_c, 9, 38, 80
5, 4800, Note_on_c, 9, 38, 95
5, 5280, Note_off_c, 9, 38, 80
5, 5280, Note_on_c, 9, 38, 95
5, 5520, Note_off_c, 9, 38, 80
5, 5520, Note_on_c, 9, 38, 95
5, 5760, Note_off_c, 9, 38, 80
5, 5760, Note_on_c, 9, 38, 95
5, 6000, Note_off_c, 9, 38, 80
5, 6000, Note_on_c, 9, 38, 95
5, 6240, Note_off_c, 9, 38, 80
5, 6240, Note_on_c, 9, 38, 95
5, 6720, Note_off_c, 9, 38, 80
5, 6720, Note_on_c, 9, 38, 95
5, 7200, Note_off_c, 9, 38, 80
5, 7200, Note_on_c, 9, 38, 95
5, 7440, Note_off_c, 9, 38, 80
5, 7440, Note_on_c, 9, 38, 95
5, 7680, Note_off_c, 9, 38, 80
5, 7680, Note_on_c, 9, 38, 95
5, 7920, Note_off_c, 9, 38, 80
5, 7920, Note_on_c, 9, 38, 95
5, 8160, Note_off_c, 9, 38, 80
5, 8160, Note_on_c, 9, 38, 95
5, 8640, Note_off_c, 9, 38, 80
5, 8640, Note_on_c, 9, 38, 95
5, 9120, Note_off_c, 9, 38, 80
5, 9120, Note_on_c, 9, 38, 95
5, 9360, Note_off_c, 9, 38, 80
5, 9360, Note_on_c, 9, 38, 95
5, 9600, Note_off_c, 9, 38, 80
5, 9600, Note_on_c, 9, 38, 95
5, 9840, Note_off_c, 9, 38, 80
5, 9840, Note_on_c, 9, 38, 95
5, 10080, Note_off_c, 9, 38, 80
5, 10080, Note_on_c, 9, 38, 95
5, 10560, Note_off_c, 9, 38, 80
5, 10560, Note_on_c, 9, 38, 95
5, 11040, Note_off_c, 9, 38, 80
5, 11040, Note_on_c, 9, 38, 95
5, 11160, Note_off_c, 9, 38, 80
5, 11160, Note_on_c, 9, 38, 95
5, 11280, Note_off_c, 9, 38, 80
5, 11280, Note_on_c, 9, 38, 95
5, 11520, Note_off_c, 9, 38, 80
5, 11520, Note_on_c, 9, 38, 95
5, 11760, Note_off_c, 9, 38, 80
5, 11760, Note_on_c, 9, 38, 95
5, 12000, Note_off_c, 9, 38, 80
5, 12000, Note_on_c, 9, 38, 95
5, 12480, Note_off_c, 9, 38, 80
5, 12480, Note_on_c, 9, 38, 95
5, 12960, Note_off_c, 9, 38, 80
5, 12960, Note_on_c, 9, 38, 95
5, 13200, Note_off_c, 9, 38, 80
5, 13200, Note_on_c, 9, 38, 95
5, 13440, Note_off_c, 9, 38, 80
5, 13440, Note_on_c, 9, 38, 95
5, 13680, Note_off_c, 9, 38, 80
5, 13680, Note_on_c, 9, 38, 95
5, 13920, Note_off_c, 9, 38, 80
5, 13920, Note_on_c, 9, 38, 95
5, 14400, Note_off_c, 9, 38, 80
5, 14400, Note_on_c, 9, 38, 95
5, 14880, Note_off_c, 9, 38, 80
5, 14880, Note_on_c, 9, 38, 95
5, 15120, Note_off_c, 9, 38, 80
5, 15120, Note_on_c, 9, 38, 95
5, 15360, Note_off_c, 9, 38, 80
5, 15360, Note_on_c, 9, 42, 95
5, 15360, Note_on_c, 9, 38, 95
5, 15840, Note_off_c, 9, 42, 80
5, 15840, Note_off_c, 9, 38, 80
5, 15840, Note_on_c, 9, 42, 95
5, 15840, Note_on_c, 9, 38, 95
5, 16320, Note_off_c, 9, 42, 80
5, 16320, Note_off_c, 9, 38, 80
5, 16320, Note_on_c, 9, 42, 95
5, 16320, Note_on_c, 9, 38, 95
5, 16560, Note_off_c, 9, 38, 80
5, 16560, Note_on_c, 9, 36, 95
5, 16800, Note_off_c, 9, 42, 80
5, 16800, Note_off_c, 9, 36, 80
5, 16800, Note_on_c, 9, 42, 95
5, 16800, Note_on_c, 9, 38, 95
5, 17040, Note_off_c, 9, 38, 80
5, 17040, Note_on_c, 9, 36, 95
5, 17280, Note_off_c, 9, 42, 80
5, 17280, Note_off_c, 9, 36, 80
5, 17280, Note_on_c, 9, 42, 95
5, 17280, Note_on_c, 9, 38, 95
5, 17760, Note_off_c, 9, 42, 80
5, 17760, Note_off_c, 9, 38, 80
5, 17760, Note_on_c, 9, 42, 95
5, 17760, Note_on_c, 9, 38, 95
5, 18240, Note_off_c, 9, 42, 80
5, 18240, Note_off_c, 9, 38, 80
5, 18240, Note_on_c, 9, 42, 95
5, 18240, Note_on_c, 9, 38, 95
5, 18480, Note_off_c, 9, 38, 80
5, 18480, Note_on_c, 9, 36, 95
5, 18720, Note_off_c, 9, 42, 80
5, 18720, Note_off_c, 9, 36, 80
5, 18720, Note_on_c, 9, 42, 95
5, 18720, Note_on_c, 9, 38, 95
5, 18960, Note_off_c, 9, 38, 80
5, 18960, Note_on_c, 9, 36, 95
5, 19200, Note_off_c, 9, 42, 80
5, 19200, Note_off_c, 9, 36, 80
5, 19200, Note_on_c, 9, 42, 95
5, 19200, Note_on_c, 9, 38, 95
5, 19680, Note_off_c, 9, 42, 80
5, 19680, Note_off_c, 9, 38, 80
5, 19680, Note_on_c, 9, 42, 95
5, 19680, Note_on_c, 9, 38, 95
5, 20160, Note_off_c, 9, 42, 80
5, 20160, Note_off_c, 9, 38, 80
5, 20160, Note_on_c, 9, 42, 95
5, 20160, Note_on_c, 9, 38, 95
5, 20400, Note_off_c, 9, 38, 80
5, 20400, Note_on_c, 9, 36, 95
5, 20640, Note_off_c, 9, 42, 80
5, 20640, Note_off_c, 9, 36, 80
5, 20640, Note_on_c, 9, 42, 95
5, 20640, Note_on_c, 9, 38, 95
5, 20880, Note_off_c, 9, 38, 80
5, 20880, Note_on_c, 9, 36, 95
5, 21120, Note_off_c, 9, 42, 80
5, 21120, Note_off_c, 9, 36, 80
5, 21120, Note_on_c, 9, 42, 95
5, 21120, Note_on_c, 9, 38, 95
5, 21600, Note_off_c, 9, 42, 80
5, 21600, Note_off_c, 9, 38, 80
5, 21600, Note_on_c, 9, 42, 95
5, 21600, Note_on_c, 9, 38, 95
5, 22080, Note_off_c, 9, 42, 80
5, 22080, Note_off_c, 9, 38, 80
5, 22080, Note_on_c, 9, 42, 95
5, 22080, Note_on_c, 9, 38, 95
5, 22320, Note_off_c, 9, 38, 80
5, 22320, Note_on_c, 9, 36, 95
5, 22560, Note_off_c, 9, 42, 80
5, 22560, Note_off_c, 9, 36, 80
5, 22560, Note_on_c, 9, 42, 95
5, 22560, Note_on_c, 9, 38, 95
5, 22800, Note_off_c, 9, 38, 80
5, 22800, Note_on_c, 9, 36, 95
5, 23040, Note_off_c, 9, 42, 80
5, 23040, Note_off_c, 9, 36, 80
5, 23040, Note_on_c, 9, 38, 95
5, 23040, Note_on_c, 9, 49, 95
5, 23520, Note_off_c, 9, 38, 80
5, 23520, Note_on_c, 9, 42, 95
5, 23520, Note_on_c, 9, 38, 95
5, 24000, Note_off_c, 9, 42, 80
5, 24000, Note_off_c, 9, 38, 80
5, 24000, Note_on_c, 9, 42, 95
5, 24000, Note_on_c, 9, 38, 95
5, 24240, Note_off_c, 9, 38, 80
5, 24240, Note_on_c, 9, 36, 95
5, 24480, Note_off_c, 9, 42, 80
5, 24480, Note_off_c, 9, 36, 80
5, 24480, Note_on_c, 9, 42, 95
5, 24480, Note_on_c, 9, 38, 95
5, 24720, Note_off_c, 9, 38, 80
5, 24720, Note_on_c, 9, 36, 95
5, 24960, Note_off_c, 9, 49, 80
5, 24960, Note_off_c, 9, 42, 80
5, 24960, Note_off_c, 9, 36, 80
5, 24960, Note_on_c, 9, 49, 95
5, 24960, Note_on_c, 9, 38, 95
5, 25440, Note_off_c, 9, 49, 80
5, 25440, Note_off_c, 9, 38, 80
5, 25440, Note_on_c, 9, 42, 95
5, 25440, Note_on_c, 9, 38, 95
5, 25920, Note_off_c, 9, 42, 80
5, 25920, Note_off_c, 9, 38, 80
5, 25920, Note_on_c, 9, 42, 95
5, 25920, Note_on_c, 9, 38, 95
5, 26160, Note_off_c, 9, 38, 80
5, 26160, Note_on_c, 9, 36, 95
5, 26400, Note_off_c, 9, 42, 80
5, 26400, Note_off_c, 9, 36, 80
5, 26400, Note_on_c, 9, 42, 95
5, 26400, Note_on_c, 9, 38, 95
5, 26640, Note_off_c, 9, 38, 80
5, 26640, Note_on_c, 9, 36, 95
5, 26880, Note_off_c, 9, 42, 80
5, 26880, Note_off_c, 9, 36, 80
5, 26880, Note_on_c, 9, 49, 95
5, 26880, Note_on_c, 9, 38, 95
5, 27360, Note_off_c, 9, 49, 80
5, 27360, Note_off_c, 9, 38, 80
5, 27360, Note_on_c, 9, 42, 95
5, 27360, Note_on_c, 9, 38, 95
5, 27840, Note_off_c, 9, 42, 80
5, 27840, Note_off_c, 9, 38, 80
5, 27840, Note_on_c, 9, 49, 95
5, 27840, Note_on_c, 9, 38, 95
5, 28080, Note_off_c, 9, 38, 80
5, 28080, Note_on_c, 9, 36, 95
5, 28320, Note_off_c, 9, 49, 80
5, 28320, Note_off_c, 9, 36, 80
5, 28320, Note_on_c, 9, 42, 95
5, 28320, Note_on_c, 9, 38, 95
5, 28560, Note_off_c, 9, 38, 80
5, 28560, Note_on_c, 9, 36, 95
5, 28800, Note_off_c, 9, 42, 80
5, 28800, Note_off_c, 9, 36, 80
5, 28800, Note_on_c, 9, 49, 95
5, 28800, Note_on_c, 9, 38, 95
5, 29280, Note_off_c, 9, 49, 80
5, 29280, Note_off_c, 9, 38, 80
5, 29280, Note_on_c, 9, 49, 95
5, 29280, Note_on_c, 9, 38, 95
5, 29760, Note_off_c, 9, 49, 80
5, 29760, Note_off_c, 9, 38, 80
5, 29760, Note_on_c, 9, 49, 95
5, 29760, Note_on_c, 9, 38, 95
5, 30000, Note_off_c, 9, 38, 80
5, 30240, Note_off_c, 9, 49, 80
5, 30240, Note_on_c, 9, 49, 95
5, 30240, Note_on_c, 9, 38, 95
5, 30720, Note_off_c, 9, 49, 80
5, 30720, Note_off_c, 9, 38, 80
5, 30720, Note_on_c, 9, 42, 95
5, 30720, Note_on_c, 9, 36, 95
5, 31200, Note_off_c, 9, 42, 80
5, 31200, Note_off_c, 9, 36, 80
5, 31200, Note_on_c, 9, 42, 95
5, 31200, Note_on_c, 9, 38, 95
5, 31440, Note_off_c, 9, 38, 80
5, 31440, Note_on_c, 9, 36, 95
5, 31680, Note_off_c, 9, 42, 80
5, 31680, Note_on_c, 9, 42, 95
5, 31920, Note_off_c, 9, 36, 80
5, 31920, Note_on_c, 9, 36, 95
5, 32160, Note_off_c, 9, 42, 80
5, 32160, Note_off_c, 9, 36, 80
5, 32160, Note_on_c, 9, 42, 95
5, 32160, Note_on_c, 9, 38, 95
5, 32640, Note_off_c, 9, 42, 80
5, 32640, Note_off_c, 9, 38, 80
5, 32640, Note_on_c, 9, 42, 95
5, 32640, Note_on_c, 9, 36, 95
5, 33120, Note_off_c, 9, 42, 80
5, 33120, Note_off_c, 9, 36, 80
5, 33120, Note_on_c, 9, 42, 95
5, 33120, Note_on_c, 9, 38, 95
5, 33360, Note_off_c, 9, 38, 80
5, 33600, Note_off_c, 9, 42, 80
5, 33600, Note_on_c, 9, 42, 95
5, 33600, Note_on_c, 9, 36, 95
5, 34080, Note_off_c, 9, 42, 80
5, 34080, Note_off_c, 9, 36, 80
5, 34080, Note_on_c, 9, 42, 95
5, 34080, Note_on_c, 9, 38, 95
5, 34560, Note_off_c, 9, 42, 80
5, 34560, Note_off_c, 9, 38, 80
5, 34560, Note_on_c, 9, 42, 95
5, 34560, Note_on_c, 9, 36, 95
5, 35040, Note_off_c, 9, 42, 80
5, 35040, Note_off_c, 9, 36, 80
5, 35040, Note_on_c, 9, 42, 95
5, 35040, Note_on_c, 9, 38, 95
5, 35280, Note_off_c, 9, 38, 80
5, 35280, Note_on_c, 9, 36, 95
5, 35520, Note_off_c, 9, 42, 80
5, 35520, Note_on_c, 9, 42, 95
5, 35760, Note_off_c, 9, 36, 80
5, 35760, Note_on_c, 9, 36, 95
5, 36000, Note_off_c, 9, 42, 80
5, 36000, Note_off_c, 9, 36, 80
5, 36000, Note_on_c, 9, 42, 95
5, 36000, Note_on_c, 9, 38, 95
5, 36480, Note_off_c, 9, 42, 80
5, 36480, Note_off_c, 9, 38, 80
5, 36480, Note_on_c, 9, 42, 95
5, 36480, Note_on_c, 9, 36, 95
5, 36960, Note_off_c, 9, 42, 80
5, 36960, Note_off_c, 9, 36, 80
5, 36960, Note_on_c, 9, 42, 95
5, 36960, Note_on_c, 9, 38, 95
5, 37200, Note_off_c, 9, 38, 80
5, 37440, Note_off_c, 9, 42, 80
5, 37440, Note_on_c, 9, 42, 95
5, 37440, Note_on_c, 9, 36, 95
5, 37920, Note_off_c, 9, 42, 80
5, 37920, Note_off_c, 9, 36, 80
5, 37920, Note_on_c, 9, 42, 95
5, 37920, Note_on_c, 9, 38, 95
5, 38400, Note_off_c, 9, 42, 80
5, 38400, Note_off_c, 9, 38, 80
5, 38400, Note_on_c, 9, 42, 95
5, 38400, Note_on_c, 9, 36, 95
5, 38880, Note_off_c, 9, 42, 80
5, 38880, Note_off_c, 9, 36, 80
5, 38880, Note_on_c, 9, 42, 95
5, 38880, Note_on_c, 9, 38, 95
5, 39120, Note_off_c, 9, 38, 80
5, 39120, Note_on_c, 9, 36, 95
5, 39360, Note_off_c, 9, 42, 80
5, 39360, Note_on_c, 9, 42, 95
5, 39600, Note_off_c, 9, 36, 80
5, 39600, Note_on_c, 9, 36, 95
5, 39840, Note_off_c, 9, 42, 80
5, 39840, Note_off_c, 9, 36, 80
5, 39840, Note_on_c, 9, 42, 95
5, 39840, Note_on_c, 9, 38, 95
5, 40320, Note_off_c, 9, 42, 80
5, 40320, Note_off_c, 9, 38, 80
5, 40320, Note_on_c, 9, 42, 95
5, 40320, Note_on_c, 9, 36, 95
5, 40800, Note_off_c, 9, 42, 80
5, 40800, Note_off_c, 9, 36, 80
5, 40800, Note_on_c, 9, 42, 95
5, 40800, Note_on_c, 9, 38, 95
5, 41040, Note_off_c, 9, 38, 80
5, 41280, Note_off_c, 9, 42, 80
5, 41280, Note_on_c, 9, 42, 95
5, 41280, Note_on_c, 9, 36, 95
5, 41760, Note_off_c, 9, 42, 80
5, 41760, Note_off_c, 9, 36, 80
5, 41760, Note_on_c, 9, 42, 95
5, 41760, Note_on_c, 9, 38, 95
5, 42240, Note_off_c, 9, 42, 80
5, 42240, Note_off_c, 9, 38, 80
5, 42240, Note_on_c, 9, 42, 95
5, 42240, Note_on_c, 9, 36, 95
5, 42720, Note_off_c, 9, 42, 80
5, 42720, Note_off_c, 9, 36, 80
5, 42720, Note_on_c, 9, 42, 95
5, 42720, Note_on_c, 9, 38, 95
5, 42960, Note_off_c, 9, 38, 80
5, 42960, Note_on_c, 9, 36, 95
5, 43200, Note_off_c, 9, 42, 80
5, 43200, Note_on_c, 9, 42, 95
5, 43440, Note_off_c, 9, 36, 80
5, 43440, Note_on_c, 9, 36, 95
5, 43680, Note_off_c, 9, 42, 80
5, 43680, Note_off_c, 9, 36, 80
5, 43680, Note_on_c, 9, 42, 95
5, 43680, Note_on_c, 9, 38, 95
5, 44160, Note_off_c, 9, 42, 80
5, 44160, Note_off_c, 9, 38, 80
5, 44160, Note_on_c, 9, 42, 95
5, 44160, Note_on_c, 9, 36, 95
5, 44640, Note_off_c, 9, 42, 80
5, 44640, Note_off_c, 9, 36, 80
5, 44640, Note_on_c, 9, 46, 95
5, 44640, Note_on_c, 9, 38, 95
5, 45120, Note_off_c, 9, 46, 80
5, 45120, Note_on_c, 9, 49, 95
5, 46080, Note_off_c, 9, 38, 80
5, 46080, Note_off_c, 9, 49, 80
5, 46080, Note_on_c, 9, 49, 95
5, 46080, Note_on_c, 9, 36, 95
5, 46560, Note_off_c, 9, 49, 80
5, 46560, Note_off_c, 9, 36, 80
5, 46560, Note_on_c, 9, 42, 95
5, 46560, Note_on_c, 9, 38, 95
5, 46800, Note_off_c, 9, 38, 80
5, 46800, Note_on_c, 9, 36, 95
5, 47040, Note_off_c, 9, 42, 80
5, 47040, Note_on_c, 9, 42, 95
5, 47280, Note_off_c, 9, 36, 80
5, 47280, Note_on_c, 9, 36, 95
5, 47520, Note_off_c, 9, 42, 80
5, 47520, Note_off_c, 9, 36, 80
5, 47520, Note_on_c, 9, 42, 95
5, 47520, Note_on_c, 9, 38, 95
5, 48000, Note_off_c, 9, 42, 80
5, 48000, Note_off_c, 9, 38, 80
5, 48000, Note_on_c, 9, 42, 95
5, 48000, Note_on_c, 9, 36, 95
5, 48480, Note_off_c, 9, 42, 80
5, 48480, Note_off_c, 9, 36, 80
5, 48480, Note_on_c, 9, 42, 95
5, 48480, Note_on_c, 9, 38, 95
5, 48720, Note_off_c, 9, 38, 80
5, 48960, Note_off_c, 9, 42, 80
5, 48960, Note_on_c, 9, 42, 95
5, 48960, Note_on_c, 9, 36, 95
5, 49440, Note_off_c, 9, 42, 80
5, 49440, Note_off_c, 9, 36, 80
5, 49440, Note_on_c, 9, 42, 95
5, 49440, Note_on_c, 9, 38, 95
5, 49920, Note_off_c, 9, 42, 80
5, 49920, Note_off_c, 9, 38, 80
5, 49920, Note_on_c, 9, 42, 95
5, 49920, Note_on_c, 9, 36, 95
5, 50400, Note_off_c, 9, 42, 80
5, 50400, Note_off_c, 9, 36, 80
5, 50400, Note_on_c, 9, 42, 95
5, 50400, Note_on_c, 9, 38, 95
5, 50640, Note_off_c, 9, 38, 80
5, 50640, Note_on_c, 9, 36, 95
5, 50880, Note_off_c, 9, 42, 80
5, 50880, Note_on_c, 9, 42, 95
5, 51120, Note_off_c, 9, 36, 80
5, 51120, Note_on_c, 9, 36, 95
5, 51360, Note_off_c, 9, 42, 80
5, 51360, Note_off_c, 9, 36, 80
5, 51360, Note_on_c, 9, 42, 95
5, 51360, Note_on_c, 9, 38, 95
5, 51840, Note_off_c, 9, 42, 80
5, 51840, Note_off_c, 9, 38, 80
5, 51840, Note_on_c, 9, 42, 95
5, 51840, Note_on_c, 9, 36, 95
5, 52320, Note_off_c, 9, 42, 80
5, 52320, Note_off_c, 9, 36, 80
5, 52320, Note_on_c, 9, 42, 95
5, 52320, Note_on_c, 9, 38, 95
5, 52560, Note_off_c, 9, 38, 80
5, 52800, Note_off_c, 9, 42, 80
5, 52800, Note_on_c, 9, 42, 95
5, 52800, Note_on_c, 9, 36, 95
5, 53280, Note_off_c, 9, 42, 80
5, 53280, Note_off_c, 9, 36, 80
5, 53280, Note_on_c, 9, 42, 95
5, 53280, Note_on_c, 9, 38, 95
5, 53760, Note_off_c, 9, 42, 80
5, 53760, Note_off_c, 9, 38, 80
5, 53760, Note_on_c, 9, 42, 95
5, 53760, Note_on_c, 9, 36, 95
5, 54240, Note_off_c, 9, 42, 80
5, 54240, Note_off_c, 9, 36, 80
5, 54240, Note_on_c, 9, 42, 95
5, 54240, Note_on_c, 9, 38, 95
5, 54480, Note_off_c, 9, 38, 80
5, 54480, Note_on_c, 9, 36, 95
5, 54720, Note_off_c, 9, 42, 80
5, 54720, Note_on_c, 9, 42, 95
5, 54960, Note_off_c, 9, 36, 80
5, 54960, Note_on_c, 9, 36, 95
5, 55200, Note_off_c, 9, 42, 80
5, 55200, Note_off_c, 9, 36, 80
5, 55200, Note_on_c, 9, 42, 95
5, 55200, Note_on_c, 9, 38, 95
5, 55680, Note_off_c, 9, 42, 80
5, 55680, Note_off_c, 9, 38, 80
5, 55680, Note_on_c, 9, 42, 95
5, 55680, Note_on_c, 9, 36, 95
5, 56160, Note_off_c, 9, 42, 80
5, 56160, Note_off_c, 9, 36, 80
5, 56160, Note_on_c, 9, 42, 95
5, 56160, Note_on_c, 9, 38, 95
5, 56400, Note_off_c, 9, 38, 80
5, 56640, Note_off_c, 9, 42, 80
5, 56640, Note_on_c, 9, 42, 95
5, 56640, Note_on_c, 9, 36, 95
5, 57120, Note_off_c, 9, 42, 80
5, 57120, Note_off_c, 9, 36, 80
5, 57120, Note_on_c, 9, 42, 95
5, 57120, Note_on_c, 9, 38, 95
5, 57600, Note_off_c, 9, 42, 80
5, 57600, Note_off_c, 9, 38, 80
5, 57600, Note_on_c, 9, 42, 95
5, 57600, Note_on_c, 9, 36, 95
5, 58080, Note_off_c, 9, 42, 80
5, 58080, Note_off_c, 9, 36, 80
5, 58080, Note_on_c, 9, 42, 95
5, 58080, Note_on_c, 9, 38, 95
5, 58320, Note_off_c, 9, 38, 80
5, 58320, Note_on_c, 9, 36, 95
5, 58560, Note_off_c, 9, 42, 80
5, 58560, Note_on_c, 9, 42, 95
5, 58800, Note_off_c, 9, 36, 80
5, 58800, Note_on_c, 9, 36, 95
5, 59040, Note_off_c, 9, 42, 80
5, 59040, Note_off_c, 9, 36, 80
5, 59040, Note_on_c, 9, 42, 95
5, 59040, Note_on_c, 9, 38, 95
5, 59520, Note_off_c, 9, 42, 80
5, 59520, Note_off_c, 9, 38, 80
5, 59520, Note_on_c, 9, 42, 95
5, 59520, Note_on_c, 9, 36, 95
5, 60000, Note_off_c, 9, 42, 80
5, 60000, Note_off_c, 9, 36, 80
5, 60000, Note_on_c, 9, 42, 95
5, 60000, Note_on_c, 9, 38, 95
5, 60240, Note_off_c, 9, 38, 80
5, 60480, Note_off_c, 9, 42, 80
5, 60480, Note_on_c, 9, 49, 95
5, 60480, Note_on_c, 9, 36, 95
5, 60960, Note_off_c, 9, 49, 80
5, 60960, Note_off_c, 9, 36, 80
5, 60960, Note_on_c, 9, 49, 95
5, 60960, Note_on_c, 9, 38, 95
5, 61440, Note_off_c, 9, 49, 80
5, 61440, Note_off_c, 9, 38, 80
5, 61440, Note_on_c, 9, 49, 95
5, 61440, Note_on_c, 9, 36, 95
5, 61920, Note_off_c, 9, 49, 80
5, 61920, Note_off_c, 9, 36, 80
5, 61920, Note_on_c, 9, 42, 95
5, 61920, Note_on_c, 9, 38, 95
5, 62160, Note_off_c, 9, 38, 80
5, 62160, Note_on_c, 9, 36, 95
5, 62400, Note_off_c, 9, 42, 80
5, 62400, Note_on_c, 9, 42, 95
5, 62640, Note_off_c, 9, 36, 80
5, 62640, Note_on_c, 9, 36, 95
5, 62880, Note_off_c, 9, 42, 80
5, 62880, Note_off_c, 9, 36, 80
5, 62880, Note_on_c, 9, 42, 95
5, 62880, Note_on_c, 9, 38, 95
5, 63360, Note_off_c, 9, 42, 80
5, 63360, Note_off_c, 9, 38, 80
5, 63360, Note_on_c, 9, 42, 95
5, 63360, Note_on_c, 9, 36, 95
5, 63840, Note_off_c, 9, 42, 80
5, 63840, Note_off_c, 9, 36, 80
5, 63840, Note_on_c, 9, 42, 95
5, 63840, Note_on_c, 9, 38, 95
5, 64080, Note_off_c, 9, 38, 80
5, 64320, Note_off_c, 9, 42, 80
5, 64320, Note_on_c, 9, 42, 95
5, 64320, Note_on_c, 9, 36, 95
5, 64800, Note_off_c, 9, 42, 80
5, 64800, Note_off_c, 9, 36, 80
5, 64800, Note_on_c, 9, 42, 95
5, 64800, Note_on_c, 9, 38, 95
5, 65280, Note_off_c, 9, 42, 80
5, 65280, Note_off_c, 9, 38, 80
5, 65280, Note_on_c, 9, 42, 95
5, 65280, Note_on_c, 9, 36, 95
5, 65760, Note_off_c, 9, 42, 80
5, 65760, Note_off_c, 9, 36, 80
5, 65760, Note_on_c, 9, 42, 95
5, 65760, Note_on_c, 9, 38, 95
5, 66000, Note_off_c, 9, 38, 80
5, 66000, Note_on_c, 9, 36, 95
5, 66240, Note_off_c, 9, 42, 80
5, 66240, Note_on_c, 9, 42, 95
5, 66480, Note_off_c, 9, 36, 80
5, 66480, Note_on_c, 9, 36, 95
5, 66720, Note_off_c, 9, 42, 80
5, 66720, Note_off_c, 9, 36, 80
5, 66720, Note_on_c, 9, 42, 95
5, 66720, Note_on_c, 9, 38, 95
5, 67200, Note_off_c, 9, 42, 80
5, 67200, Note_off_c, 9, 38, 80
5, 67200, Note_on_c, 9, 42, 95
5, 67200, Note_on_c, 9, 36, 95
5, 67680, Note_off_c, 9, 42, 80
5, 67680, Note_off_c, 9, 36, 80
5, 67680, Note_on_c, 9, 42, 95
5, 67680, Note_on_c, 9, 38, 95
5, 67920, Note_off_c, 9, 38, 80
5, 68160, Note_off_c, 9, 42, 80
5, 68160, Note_on_c, 9, 42, 95
5, 68160, Note_on_c, 9, 36, 95
5, 68640, Note_off_c, 9, 42, 80
5, 68640, Note_off_c, 9, 36, 80
5, 68640, Note_on_c, 9, 42, 95
5, 68640, Note_on_c, 9, 38, 95
5, 69120, Note_off_c, 9, 42, 80
5, 69120, Note_off_c, 9, 38, 80
5, 69120, Note_on_c, 9, 42, 95
5, 69120, Note_on_c, 9, 36, 95
5, 69600, Note_off_c, 9, 42, 80
5, 69600, Note_off_c, 9, 36, 80
5, 69600, Note_on_c, 9, 42, 95
5, 69600, Note_on_c, 9, 38, 95
5, 69840, Note_off_c, 9, 38, 80
5, 69840, Note_on_c, 9, 36, 95
5, 70080, Note_off_c, 9, 42, 80
5, 70080, Note_on_c, 9, 42, 95
5, 70320, Note_off_c, 9, 36, 80
5, 70320, Note_on_c, 9, 36, 95
5, 70560, Note_off_c, 9, 42, 80
5, 70560, Note_off_c, 9, 36, 80
5, 70560, Note_on_c, 9, 42, 95
5, 70560, Note_on_c, 9, 38, 95
5, 71040, Note_off_c, 9, 42, 80
5, 71040, Note_off_c, 9, 38, 80
5, 71040, Note_on_c, 9, 42, 95
5, 71040, Note_on_c, 9, 36, 95
5, 71520, Note_off_c, 9, 42, 80
5, 71520, Note_off_c, 9, 36, 80
5, 71520, Note_on_c, 9, 42, 95
5, 71520, Note_on_c, 9, 38, 95
5, 71760, Note_off_c, 9, 38, 80
5, 72000, Note_off_c, 9, 42, 80
5, 72000, Note_on_c, 9, 42, 95
5, 72000, Note_on_c, 9, 36, 95
5, 72480, Note_off_c, 9, 42, 80
5, 72480, Note_off_c, 9, 36, 80
5, 72480, Note_on_c, 9, 42, 95
5, 72480, Note_on_c, 9, 38, 95
5, 72960, Note_off_c, 9, 42, 80
5, 72960, Note_off_c, 9, 38, 80
5, 72960, Note_on_c, 9, 46, 95
5, 72960, Note_on_c, 9, 36, 95
5, 73440, Note_off_c, 9, 46, 80
5, 73440, Note_off_c, 9, 36, 80
5, 73440, Note_on_c, 9, 46, 95
5, 73440, Note_on_c, 9, 38, 95
5, 73680, Note_off_c, 9, 38, 80
5, 73920, Note_off_c, 9, 46, 80
5, 73920, Note_on_c, 9, 46, 95
5, 73920, Note_on_c, 9, 36, 95
5, 74400, Note_off_c, 9, 46, 80
5, 74400, Note_off_c, 9, 36, 80
5, 74400, Note_on_c, 9, 46, 95
5, 74400, Note_on_c, 9, 38, 95
5, 74880, Note_off_c, 9, 46, 80
5, 74880, Note_off_c, 9, 38, 80
5, 74880, Note_on_c, 9, 46, 95
5, 74880, Note_on_c, 9, 36, 95
5, 75360, Note_off_c, 9, 46, 80
5, 75360, Note_off_c, 9, 36, 80
5, 75360, Note_on_c, 9, 46, 95
5, 75360, Note_on_c, 9, 38, 95
5, 75600, Note_off_c, 9, 38, 80
5, 75840, Note_off_c, 9, 46, 80
5, 75840, Note_on_c, 9, 46, 95
5, 75840, Note_on_c, 9, 36, 95
5, 76320, Note_off_c, 9, 46, 80
5, 76320, Note_off_c, 9, 36, 80
5, 76320, Note_on_c, 9, 49, 95
5, 76320, Note_on_c, 9, 38, 95
5, 76560, Note_off_c, 9, 38, 80
5, 76800, Note_off_c, 9, 49, 80
5, 76800, Note_on_c, 9, 42, 95
5, 76800, Note_on_c, 9, 38, 95
5, 77280, Note_off_c, 9, 42, 80
5, 77280, Note_off_c, 9, 38, 80
5, 77280, Note_on_c, 9, 42, 95
5, 77280, Note_on_c, 9, 38, 95
5, 77760, Note_off_c, 9, 42, 80
5, 77760, Note_off_c, 9, 38, 80
5, 77760, Note_on_c, 9, 42, 95
5, 77760, Note_on_c, 9, 38, 95
5, 78240, Note_off_c, 9, 42, 80
5, 78240, Note_off_c, 9, 38, 80
5, 78240, Note_on_c, 9, 42, 95
5, 78240, Note_on_c, 9, 38, 95
5, 78720, Note_off_c, 9, 42, 80
5, 78720, Note_off_c, 9, 38, 80
5, 78720, Note_on_c, 9, 42, 95
5, 78720, Note_on_c, 9, 38, 95
5, 79200, Note_off_c, 9, 42, 80
5, 79200, Note_off_c, 9, 38, 80
5, 79200, Note_on_c, 9, 42, 95
5, 79200, Note_on_c, 9, 38, 95
5, 79680, Note_off_c, 9, 42, 80
5, 79680, Note_off_c, 9, 38, 80
5, 79680, Note_on_c, 9, 42, 95
5, 79680, Note_on_c, 9, 38, 95
5, 80160, Note_off_c, 9, 42, 80
5, 80160, Note_off_c, 9, 38, 80
5, 80160, Note_on_c, 9, 42, 95
5, 80160, Note_on_c, 9, 38, 95
5, 80640, Note_off_c, 9, 42, 80
5, 80640, Note_off_c, 9, 38, 80
5, 80640, Note_on_c, 9, 42, 95
5, 80640, Note_on_c, 9, 38, 95
5, 81120, Note_off_c, 9, 42, 80
5, 81120, Note_off_c, 9, 38, 80
5, 81120, Note_on_c, 9, 42, 95
5, 81120, Note_on_c, 9, 38, 95
5, 81600, Note_off_c, 9, 42, 80
5, 81600, Note_off_c, 9, 38, 80
5, 81600, Note_on_c, 9, 42, 95
5, 81600, Note_on_c, 9, 38, 95
5, 82080, Note_off_c, 9, 42, 80
5, 82080, Note_off_c, 9, 38, 80
5, 82080, Note_on_c, 9, 42, 95
5, 82080, Note_on_c, 9, 38, 95
5, 82560, Note_off_c, 9, 42, 80
5, 82560, Note_off_c, 9, 38, 80
5, 82560, Note_on_c, 9, 42, 95
5, 82560, Note_on_c, 9, 38, 95
5, 83040, Note_off_c, 9, 42, 80
5, 83040, Note_off_c, 9, 38, 80
5, 83040, Note_on_c, 9, 42, 95
5, 83040, Note_on_c, 9, 38, 95
5, 83520, Note_off_c, 9, 42, 80
5, 83520, Note_off_c, 9, 38, 80
5, 83520, Note_on_c, 9, 42, 95
5, 83520, Note_on_c, 9, 38, 95
5, 84000, Note_off_c, 9, 42, 80
5, 84000, Note_off_c, 9, 38, 80
5, 84000, Note_on_c, 9, 42, 95
5, 84000, Note_on_c, 9, 38, 95
5, 84480, Note_off_c, 9, 42, 80
5, 84480, Note_off_c, 9, 38, 80
5, 84480, Note_on_c, 9, 49, 95
5, 84480, Note_on_c, 9, 38, 95
5, 84960, Note_off_c, 9, 49, 80
5, 84960, Note_off_c, 9, 38, 80
5, 84960, Note_on_c, 9, 42, 95
5, 84960, Note_on_c, 9, 38, 95
5, 85440, Note_off_c, 9, 42, 80
5, 85440, Note_off_c, 9, 38, 80
5, 85440, Note_on_c, 9, 42, 95
5, 85440, Note_on_c, 9, 38, 95
5, 85920, Note_off_c, 9, 42, 80
5, 85920, Note_off_c, 9, 38, 80
5, 85920, Note_on_c, 9, 42, 95
5, 85920, Note_on_c, 9, 38, 95
5, 86400, Note_off_c, 9, 42, 80
5, 86400, Note_off_c, 9, 38, 80
5, 86400, Note_on_c, 9, 42, 95
5, 86400, Note_on_c, 9, 38, 95
5, 86880, Note_off_c, 9, 42, 80
5, 86880, Note_off_c, 9, 38, 80
5, 86880, Note_on_c, 9, 42, 95
5, 86880, Note_on_c, 9, 38, 95
5, 87360, Note_off_c, 9, 42, 80
5, 87360, Note_off_c, 9, 38, 80
5, 87360, Note_on_c, 9, 42, 95
5, 87360, Note_on_c, 9, 38, 95
5, 87840, Note_off_c, 9, 42, 80
5, 87840, Note_off_c, 9, 38, 80
5, 87840, Note_on_c, 9, 42, 95
5, 87840, Note_on_c, 9, 38, 95
5, 88320, Note_off_c, 9, 42, 80
5, 88320, Note_off_c, 9, 38, 80
5, 88320, Note_on_c, 9, 42, 95
5, 88320, Note_on_c, 9, 38, 95
5, 88800, Note_off_c, 9, 42, 80
5, 88800, Note_off_c, 9, 38, 80
5, 88800, Note_on_c, 9, 42, 95
5, 88800, Note_on_c, 9, 38, 95
5, 89280, Note_off_c, 9, 42, 80
5, 89280, Note_off_c, 9, 38, 80
5, 89280, Note_on_c, 9, 42, 95
5, 89280, Note_on_c, 9, 38, 95
5, 89760, Note_off_c, 9, 42, 80
5, 89760, Note_off_c, 9, 38, 80
5, 89760, Note_on_c, 9, 42, 95
5, 89760, Note_on_c, 9, 38, 95
5, 90240, Note_off_c, 9, 42, 80
5, 90240, Note_off_c, 9, 38, 80
5, 90240, Note_on_c, 9, 49, 95
5, 90240, Note_on_c, 9, 38, 95
5, 90720, Note_off_c, 9, 38, 80
5, 90720, Note_on_c, 9, 38, 95
5, 90840, Note_off_c, 9, 38, 80
5, 90840, Note_on_c, 9, 38, 95
5, 90960, Note_off_c, 9, 38, 80
5, 90960, Note_on_c, 9, 38, 95
5, 91200, Note_off_c, 9, 38, 80
5, 91200, Note_on_c, 9, 38, 95
5, 91440, Note_off_c, 9, 38, 80
5, 91440, Note_on_c, 9, 38, 95
5, 91680, Note_off_c, 9, 38, 80
5, 91680, Note_on_c, 9, 38, 95
5, 91920, Note_off_c, 9, 38, 80
5, 91920, Note_on_c, 9, 38, 95
5, 92160, Note_off_c, 9, 49, 80
5, 92160, Note_off_c, 9, 38, 80
5, 92160, Note_on_c, 9, 49, 95
5, 92160, Note_on_c, 9, 36, 95
5, 92640, Note_off_c, 9, 49, 80
5, 92640, Note_off_c, 9, 36, 80
5, 92640, Note_on_c, 9, 42, 95
5, 92640, Note_on_c, 9, 38, 95
5, 93120, Note_off_c, 9, 42, 80
5, 93120, Note_off_c, 9, 38, 80
5, 93120, Note_on_c, 9, 42, 95
5, 93120, Note_on_c, 9, 36, 95
5, 93360, Note_off_c, 9, 36, 80
5, 93360, Note_on_c, 9, 36, 95
5, 93600, Note_off_c, 9, 42, 80
5, 93600, Note_off_c, 9, 36, 80
5, 93600, Note_on_c, 9, 42, 95
5, 93600, Note_on_c, 9, 38, 95
5, 94080, Note_off_c, 9, 42, 80
5, 94080, Note_off_c, 9, 38, 80
5, 94080, Note_on_c, 9, 42, 95
5, 94080, Note_on_c, 9, 36, 95
5, 94560, Note_off_c, 9, 42, 80
5, 94560, Note_off_c, 9, 36, 80
5, 94560, Note_on_c, 9, 42, 95
5, 94560, Note_on_c, 9, 38, 95
5, 95040, Note_off_c, 9, 42, 80
5, 95040, Note_off_c, 9, 38, 80
5, 95040, Note_on_c, 9, 42, 95
5, 95040, Note_on_c, 9, 36, 95
5, 95280, Note_off_c, 9, 36, 80
5, 95280, Note_on_c, 9, 36, 95
5, 95520, Note_off_c, 9, 42, 80
5, 95520, Note_off_c, 9, 36, 80
5, 95520, Note_on_c, 9, 42, 95
5, 95520, Note_on_c, 9, 38, 95
5, 96000, Note_off_c, 9, 42, 80
5, 96000, Note_off_c, 9, 38, 80
5, 96000, Note_on_c, 9, 42, 95
5, 96000, Note_on_c, 9, 36, 95
5, 96480, Note_off_c, 9, 42, 80
5, 96480, Note_off_c, 9, 36, 80
5, 96480, Note_on_c, 9, 42, 95
5, 96480, Note_on_c, 9, 38, 95
5, 96960, Note_off_c, 9, 42, 80
5, 96960, Note_off_c, 9, 38, 80
5, 96960, Note_on_c, 9, 42, 95
5, 96960, Note_on_c, 9, 36, 95
5, 97200, Note_off_c, 9, 36, 80
5, 97200, Note_on_c, 9, 36, 95
5, 97440, Note_off_c, 9, 42, 80
5, 97440, Note_off_c, 9, 36, 80
5, 97440, Note_on_c, 9, 42, 95
5, 97440, Note_on_c, 9, 38, 95
5, 97920, Note_off_c, 9, 42, 80
5, 97920, Note_off_c, 9, 38, 80
5, 97920, Note_on_c, 9, 42, 95
5, 97920, Note_on_c, 9, 36, 95
5, 98400, Note_off_c, 9, 42, 80
5, 98400, Note_off_c, 9, 36, 80
5, 98400, Note_on_c, 9, 42, 95
5, 98400, Note_on_c, 9, 38, 95
5, 98880, Note_off_c, 9, 42, 80
5, 98880, Note_off_c, 9, 38, 80
5, 98880, Note_on_c, 9, 42, 95
5, 98880, Note_on_c, 9, 36, 95
5, 99120, Note_off_c, 9, 36, 80
5, 99120, Note_on_c, 9, 36, 95
5, 99360, Note_off_c, 9, 42, 80
5, 99360, Note_off_c, 9, 36, 80
5, 99360, Note_on_c, 9, 42, 95
5, 99360, Note_on_c, 9, 38, 95
5, 99840, Note_off_c, 9, 42, 80
5, 99840, Note_off_c, 9, 38, 80
5, 99840, Note_on_c, 9, 42, 95
5, 99840, Note_on_c, 9, 36, 95
5, 100320, Note_off_c, 9, 42, 80
5, 100320, Note_off_c, 9, 36, 80
5, 100320, Note_on_c, 9, 42, 95
5, 100320, Note_on_c, 9, 38, 95
5, 100800, Note_off_c, 9, 42, 80
5, 100800, Note_off_c, 9, 38, 80
5, 100800, Note_on_c, 9, 42, 95
5, 100800, Note_on_c, 9, 36, 95
5, 101040, Note_off_c, 9, 36, 80
5, 101040, Note_on_c, 9, 36, 95
5, 101280, Note_off_c, 9, 42, 80
5, 101280, Note_off_c, 9, 36, 80
5, 101280, Note_on_c, 9, 42, 95
5, 101280, Note_on_c, 9, 38, 95
5, 101760, Note_off_c, 9, 42, 80
5, 101760, Note_off_c, 9, 38, 80
5, 101760, Note_on_c, 9, 42, 95
5, 101760, Note_on_c, 9, 36, 95
5, 102240, Note_off_c, 9, 42, 80
5, 102240, Note_off_c, 9, 36, 80
5, 102240, Note_on_c, 9, 42, 95
5, 102240, Note_on_c, 9, 38, 95
5, 102720, Note_off_c, 9, 42, 80
5, 102720, Note_off_c, 9, 38, 80
5, 102720, Note_on_c, 9, 42, 95
5, 102720, Note_on_c, 9, 36, 95
5, 102960, Note_off_c, 9, 36, 80
5, 102960, Note_on_c, 9, 36, 95
5, 103200, Note_off_c, 9, 42, 80
5, 103200, Note_off_c, 9, 36, 80
5, 103200, Note_on_c, 9, 42, 95
5, 103200, Note_on_c, 9, 38, 95
5, 103680, Note_off_c, 9, 42, 80
5, 103680, Note_off_c, 9, 38, 80
5, 103680, Note_on_c, 9, 42, 95
5, 103680, Note_on_c, 9, 36, 95
5, 104160, Note_off_c, 9, 42, 80
5, 104160, Note_off_c, 9, 36, 80
5, 104160, Note_on_c, 9, 42, 95
5, 104160, Note_on_c, 9, 38, 95
5, 104640, Note_off_c, 9, 42, 80
5, 104640, Note_off_c, 9, 38, 80
5, 104640, Note_on_c, 9, 42, 95
5, 104640, Note_on_c, 9, 36, 95
5, 104880, Note_off_c, 9, 36, 80
5, 104880, Note_on_c, 9, 36, 95
5, 105120, Note_off_c, 9, 42, 80
5, 105120, Note_off_c, 9, 36, 80
5, 105120, Note_on_c, 9, 42, 95
5, 105120, Note_on_c, 9, 38, 95
5, 105600, Note_off_c, 9, 42, 80
5, 105600, Note_off_c, 9, 38, 80
5, 105600, Note_on_c, 9, 42, 95
5, 105600, Note_on_c, 9, 36, 95
5, 106080, Note_off_c, 9, 42, 80
5, 106080, Note_off_c, 9, 36, 80
5, 106080, Note_on_c, 9, 42, 95
5, 106080, Note_on_c, 9, 38, 95
5, 106560, Note_off_c, 9, 42, 80
5, 106560, Note_off_c, 9, 38, 80
5, 106560, Note_on_c, 9, 42, 95
5, 106560, Note_on_c, 9, 36, 95
5, 107040, Note_off_c, 9, 42, 80
5, 107040, Note_off_c, 9, 36, 80
5, 107040, Note_on_c, 9, 46, 95
5, 107040, Note_on_c, 9, 38, 95
5, 107280, Note_off_c, 9, 38, 80
5, 107280, Note_on_c, 9, 38, 95
5, 107520, Note_off_c, 9, 46, 80
5, 107520, Note_off_c, 9, 38, 80
5, 107520, Note_on_c, 9, 49, 95
5, 107520, Note_on_c, 9, 36, 95
5, 108000, Note_off_c, 9, 49, 80
5, 108000, Note_off_c, 9, 36, 80
5, 108000, Note_on_c, 9, 42, 95
5, 108000, Note_on_c, 9, 38, 95
5, 108240, Note_off_c, 9, 38, 80
5, 108240, Note_on_c, 9, 36, 95
5, 108480, Note_off_c, 9, 42, 80
5, 108480, Note_on_c, 9, 42, 95
5, 108720, Note_off_c, 9, 36, 80
5, 108720, Note_on_c, 9, 36, 95
5, 108960, Note_off_c, 9, 42, 80
5, 108960, Note_off_c, 9, 36, 80
5, 108960, Note_on_c, 9, 42, 95
5, 108960, Note_on_c, 9, 38, 95
5, 109440, Note_off_c, 9, 42, 80
5, 109440, Note_off_c, 9, 38, 80
5, 109440, Note_on_c, 9, 42, 95
5, 109440, Note_on_c, 9, 36, 95
5, 109920, Note_off_c, 9, 42, 80
5, 109920, Note_off_c, 9, 36, 80
5, 109920, Note_on_c, 9, 42, 95
5, 109920, Note_on_c, 9, 38, 95
5, 110160, Note_off_c, 9, 38, 80
5, 110400, Note_off_c, 9, 42, 80
5, 110400, Note_on_c, 9, 42, 95
5, 110400, Note_on_c, 9, 36, 95
5, 110880, Note_off_c, 9, 42, 80
5, 110880, Note_off_c, 9, 36, 80
5, 110880, Note_on_c, 9, 42, 95
5, 110880, Note_on_c, 9, 38, 95
5, 111360, Note_off_c, 9, 42, 80
5, 111360, Note_off_c, 9, 38, 80
5, 111360, Note_on_c, 9, 42, 95
5, 111360, Note_on_c, 9, 36, 95
5, 111840, Note_off_c, 9, 42, 80
5, 111840, Note_off_c, 9, 36, 80
5, 111840, Note_on_c, 9, 42, 95
5, 111840, Note_on_c, 9, 38, 95
5, 112080, Note_off_c, 9, 38, 80
5, 112080, Note_on_c, 9, 36, 95
5, 112320, Note_off_c, 9, 42, 80
5, 112320, Note_on_c, 9, 42, 95
5, 112560, Note_off_c, 9, 36, 80
5, 112560, Note_on_c, 9, 36, 95
5, 112800, Note_off_c, 9, 42, 80
5, 112800, Note_off_c, 9, 36, 80
5, 112800, Note_on_c, 9, 42, 95
5, 112800, Note_on_c, 9, 38, 95
5, 113280, Note_off_c, 9, 42, 80
5, 113280, Note_off_c, 9, 38, 80
5, 113280, Note_on_c, 9, 42, 95
5, 113280, Note_on_c, 9, 36, 95
5, 113760, Note_off_c, 9, 42, 80
5, 113760, Note_off_c, 9, 36, 80
5, 113760, Note_on_c, 9, 42, 95
5, 113760, Note_on_c, 9, 38, 95
5, 114000, Note_off_c, 9, 38, 80
5, 114240, Note_off_c, 9, 42, 80
5, 114240, Note_on_c, 9, 42, 95
5, 114240, Note_on_c, 9, 36, 95
5, 114720, Note_off_c, 9, 42, 80
5, 114720, Note_off_c, 9, 36, 80
5, 114720, Note_on_c, 9, 42, 95
5, 114720, Note_on_c, 9, 38, 95
5, 115200, Note_off_c, 9, 42, 80
5, 115200, Note_off_c, 9, 38, 80
5, 115200, Note_on_c, 9, 42, 95
5, 115200, Note_on_c, 9, 36, 95
5, 115680, Note_off_c, 9, 42, 80
5, 115680, Note_off_c, 9, 36, 80
5, 115680, Note_on_c, 9, 42, 95
5, 115680, Note_on_c, 9, 38, 95
5, 115920, Note_off_c, 9, 38, 80
5, 115920, Note_on_c, 9, 36, 95
5, 116160, Note_off_c, 9, 42, 80
5, 116160, Note_on_c, 9, 42, 95
5, 116400, Note_off_c, 9, 36, 80
5, 116400, Note_on_c, 9, 36, 95
5, 116640, Note_off_c, 9, 42, 80
5, 116640, Note_off_c, 9, 36, 80
5, 116640, Note_on_c, 9, 42, 95
5, 116640, Note_on_c, 9, 38, 95
5, 117120, Note_off_c, 9, 42, 80
5, 117120, Note_off_c, 9, 38, 80
5, 117120, Note_on_c, 9, 42, 95
5, 117120, Note_on_c, 9, 36, 95
5, 117600, Note_off_c, 9, 42, 80
5, 117600, Note_off_c, 9, 36, 80
5, 117600, Note_on_c, 9, 42, 95
5, 117600, Note_on_c, 9, 38, 95
5, 117840, Note_off_c, 9, 38, 80
5, 118080, Note_off_c, 9, 42, 80
5, 118080, Note_on_c, 9, 42, 95
5, 118080, Note_on_c, 9, 36, 95
5, 118560, Note_off_c, 9, 42, 80
5, 118560, Note_off_c, 9, 36, 80
5, 118560, Note_on_c, 9, 42, 95
5, 118560, Note_on_c, 9, 38, 95
5, 119040, Note_off_c, 9, 42, 80
5, 119040, Note_off_c, 9, 38, 80
5, 119040, Note_on_c, 9, 42, 95
5, 119040, Note_on_c, 9, 36, 95
5, 119520, Note_off_c, 9, 42, 80
5, 119520, Note_off_c, 9, 36, 80
5, 119520, Note_on_c, 9, 42, 95
5, 119520, Note_on_c, 9, 38, 95
5, 119760, Note_off_c, 9, 38, 80
5, 119760, Note_on_c, 9, 36, 95
5, 120000, Note_off_c, 9, 42, 80
5, 120000, Note_on_c, 9, 42, 95
5, 120240, Note_off_c, 9, 36, 80
5, 120240, Note_on_c, 9, 36, 95
5, 120480, Note_off_c, 9, 42, 80
5, 120480, Note_off_c, 9, 36, 80
5, 120480, Note_on_c, 9, 42, 95
5, 120480, Note_on_c, 9, 38, 95
5, 120960, Note_off_c, 9, 42, 80
5, 120960, Note_off_c, 9, 38, 80
5, 120960, Note_on_c, 9, 42, 95
5, 120960, Note_on_c, 9, 36, 95
5, 121440, Note_off_c, 9, 42, 80
5, 121440, Note_off_c, 9, 36, 80
5, 121440, Note_on_c, 9, 46, 95
5, 121440, Note_on_c, 9, 38, 95
5, 121920, Note_off_c, 9, 46, 80
5, 121920, Note_on_c, 9, 49, 95
5, 122880, Note_off_c, 9, 38, 80
5, 122880, Note_off_c, 9, 49, 80
5, 122880, Note_on_c, 9, 49, 95
5, 122880, Note_on_c, 9, 36, 95
5, 123360, Note_off_c, 9, 49, 80
5, 123360, Note_off_c, 9, 36, 80
5, 123360, Note_on_c, 9, 42, 95
5, 123360, Note_on_c, 9, 38, 95
5, 123600, Note_off_c, 9, 38, 80
5, 123600, Note_on_c, 9, 36, 95
5, 123840, Note_off_c, 9, 42, 80
5, 123840, Note_on_c, 9, 42, 95
5, 124080, Note_off_c, 9, 36, 80
5, 124080, Note_on_c, 9, 36, 95
5, 124320, Note_off_c, 9, 42, 80
5, 124320, Note_off_c, 9, 36, 80
5, 124320, Note_on_c, 9, 42, 95
5, 124320, Note_on_c, 9, 38, 95
5, 124800, Note_off_c, 9, 42, 80
5, 124800, Note_off_c, 9, 38, 80
5, 124800, Note_on_c, 9, 42, 95
5, 124800, Note_on_c, 9, 36, 95
5, 125280, Note_off_c, 9, 42, 80
5, 125280, Note_off_c, 9, 36, 80
5, 125280, Note_on_c, 9, 42, 95
5, 125280, Note_on_c, 9, 38, 95
5, 125520, Note_off_c, 9, 38, 80
5, 125760, Note_off_c, 9, 42, 80
5, 125760, Note_on_c, 9, 42, 95
5, 125760, Note_on_c, 9, 36, 95
5, 126240, Note_off_c, 9, 42, 80
5, 126240, Note_off_c, 9, 36, 80
5, 126240, Note_on_c, 9, 42, 95
5, 126240, Note_on_c, 9, 38, 95
5, 126720, Note_off_c, 9, 42, 80
5, 126720, Note_off_c, 9, 38, 80
5, 126720, Note_on_c, 9, 42, 95
5, 126720, Note_on_c, 9, 36, 95
5, 127200, Note_off_c, 9, 42, 80
5, 127200, Note_off_c, 9, 36, 80
5, 127200, Note_on_c, 9, 42, 95
5, 127200, Note_on_c, 9, 38, 95
5, 127440, Note_off_c, 9, 38, 80
5, 127440, Note_on_c, 9, 36, 95
5, 127680, Note_off_c, 9, 42, 80
5, 127680, Note_on_c, 9, 42, 95
5, 127920, Note_off_c, 9, 36, 80
5, 127920, Note_on_c, 9, 36, 95
5, 128160, Note_off_c, 9, 42, 80
5, 128160, Note_off_c, 9, 36, 80
5, 128160, Note_on_c, 9, 42, 95
5, 128160, Note_on_c, 9, 38, 95
5, 128640, Note_off_c, 9, 42, 80
5, 128640, Note_off_c, 9, 38, 80
5, 128640, Note_on_c, 9, 42, 95
5, 128640, Note_on_c, 9, 36, 95
5, 129120, Note_off_c, 9, 42, 80
5, 129120, Note_off_c, 9, 36, 80
5, 129120, Note_on_c, 9, 42, 95
5, 129120, Note_on_c, 9, 38, 95
5, 129360, Note_off_c, 9, 38, 80
5, 129600, Note_off_c, 9, 42, 80
5, 129600, Note_on_c, 9, 42, 95
5, 129600, Note_on_c, 9, 36, 95
5, 129840, Note_off_c, 9, 36, 80
5, 129840, Note_on_c, 9, 38, 95
5, 130080, Note_off_c, 9, 42, 80
5, 130080, Note_off_c, 9, 38, 80
5, 130080, Note_on_c, 9, 42, 95
5, 130320, Note_on_c, 9, 38, 95
5, 130560, Note_off_c, 9, 42, 80
5, 130560, Note_off_c, 9, 38, 80
5, 130560, Note_on_c, 9, 42, 95
5, 130560, Note_on_c, 9, 36, 95
5, 131040, Note_off_c, 9, 42, 80
5, 131040, Note_off_c, 9, 36, 80
5, 131040, Note_on_c, 9, 42, 95
5, 131040, Note_on_c, 9, 38, 95
5, 131280, Note_off_c, 9, 38, 80
5, 131280, Note_on_c, 9, 36, 95
5, 131520, Note_off_c, 9, 42, 80
5, 131520, Note_on_c, 9, 42, 95
5, 131760, Note_off_c, 9, 36, 80
5, 131760, Note_on_c, 9, 36, 95
5, 132000, Note_off_c, 9, 42, 80
5, 132000, Note_off_c, 9, 36, 80
5, 132000, Note_on_c, 9, 42, 95
5, 132000, Note_on_c, 9, 38, 95
5, 132480, Note_off_c, 9, 42, 80
5, 132480, Note_off_c, 9, 38, 80
5, 132480, Note_on_c, 9, 42, 95
5, 132480, Note_on_c, 9, 36, 95
5, 132960, Note_off_c, 9, 42, 80
5, 132960, Note_off_c, 9, 36, 80
5, 132960, Note_on_c, 9, 42, 95
5, 132960, Note_on_c, 9, 38, 95
5, 133200, Note_off_c, 9, 38, 80
5, 133440, Note_off_c, 9, 42, 80
5, 133440, Note_on_c, 9, 42, 95
5, 133440, Note_on_c, 9, 36, 95
5, 133920, Note_off_c, 9, 42, 80
5, 133920, Note_off_c, 9, 36, 80
5, 133920, Note_on_c, 9, 42, 95
5, 133920, Note_on_c, 9, 38, 95
5, 134400, Note_off_c, 9, 42, 80
5, 134400, Note_off_c, 9, 38, 80
5, 134400, Note_on_c, 9, 42, 95
5, 134400, Note_on_c, 9, 36, 95
5, 134880, Note_off_c, 9, 42, 80
5, 134880, Note_off_c, 9, 36, 80
5, 134880, Note_on_c, 9, 42, 95
5, 134880, Note_on_c, 9, 38, 95
5, 135120, Note_off_c, 9, 38, 80
5, 135120, Note_on_c, 9, 36, 95
5, 135360, Note_off_c, 9, 42, 80
5, 135360, Note_on_c, 9, 42, 95
5, 135600, Note_off_c, 9, 36, 80
5, 135600, Note_on_c, 9, 36, 95
5, 135840, Note_off_c, 9, 42, 80
5, 135840, Note_off_c, 9, 36, 80
5, 135840, Note_on_c, 9, 42, 95
5, 135840, Note_on_c, 9, 38, 95
5, 136320, Note_off_c, 9, 42, 80
5, 136320, Note_off_c, 9, 38, 80
5, 136320, Note_on_c, 9, 42, 95
5, 136320, Note_on_c, 9, 36, 95
5, 136800, Note_off_c, 9, 42, 80
5, 136800, Note_off_c, 9, 36, 80
5, 136800, Note_on_c, 9, 42, 95
5, 136800, Note_on_c, 9, 38, 95
5, 137040, Note_off_c, 9, 38, 80
5, 137280, Note_off_c, 9, 42, 80
5, 137280, Note_on_c, 9, 49, 95
5, 137280, Note_on_c, 9, 36, 95
5, 137760, Note_off_c, 9, 49, 80
5, 137760, Note_off_c, 9, 36, 80
5, 137760, Note_on_c, 9, 49, 95
5, 137760, Note_on_c, 9, 38, 95
5, 138240, Note_off_c, 9, 49, 80
5, 138240, Note_off_c, 9, 38, 80
5, 138240, Note_on_c, 9, 49, 95
5, 138240, Note_on_c, 9, 36, 95
5, 138720, Note_off_c, 9, 49, 80
5, 138720, Note_off_c, 9, 36, 80
5, 138720, Note_on_c, 9, 42, 95
5, 138720, Note_on_c, 9, 38, 95
5, 138960, Note_off_c, 9, 38, 80
5, 138960, Note_on_c, 9, 36, 95
5, 139200, Note_off_c, 9, 42, 80
5, 139200, Note_on_c, 9, 42, 95
5, 139440, Note_off_c, 9, 36, 80
5, 139440, Note_on_c, 9, 36, 95
5, 139680, Note_off_c, 9, 42, 80
5, 139680, Note_off_c, 9, 36, 80
5, 139680, Note_on_c, 9, 42, 95
5, 139680, Note_on_c, 9, 38, 95
5, 140160, Note_off_c, 9, 42, 80
5, 140160, Note_off_c, 9, 38, 80
5, 140160, Note_on_c, 9, 42, 95
5, 140160, Note_on_c, 9, 36, 95
5, 140640, Note_off_c, 9, 42, 80
5, 140640, Note_off_c, 9, 36, 80
5, 140640, Note_on_c, 9, 42, 95
5, 140640, Note_on_c, 9, 38, 95
5, 140880, Note_off_c, 9, 38, 80
5, 141120, Note_off_c, 9, 42, 80
5, 141120, Note_on_c, 9, 42, 95
5, 141120, Note_on_c, 9, 36, 95
5, 141600, Note_off_c, 9, 42, 80
5, 141600, Note_off_c, 9, 36, 80
5, 141600, Note_on_c, 9, 42, 95
5, 141600, Note_on_c, 9, 38, 95
5, 142080, Note_off_c, 9, 42, 80
5, 142080, Note_off_c, 9, 38, 80
5, 142080, Note_on_c, 9, 42, 95
5, 142080, Note_on_c, 9, 36, 95
5, 142560, Note_off_c, 9, 42, 80
5, 142560, Note_off_c, 9, 36, 80
5, 142560, Note_on_c, 9, 42, 95
5, 142560, Note_on_c, 9, 38, 95
5, 142800, Note_off_c, 9, 38, 80
5, 142800, Note_on_c, 9, 36, 95
5, 143040, Note_off_c, 9, 42, 80
5, 143040, Note_on_c, 9, 42, 95
5, 143280, Note_off_c, 9, 36, 80
5, 143280, Note_on_c, 9, 36, 95
5, 143520, Note_off_c, 9, 42, 80
5, 143520, Note_off_c, 9, 36, 80
5, 143520, Note_on_c, 9, 42, 95
5, 143520, Note_on_c, 9, 38, 95
5, 144000, Note_off_c, 9, 42, 80
5, 144000, Note_off_c, 9, 38, 80
5, 144000, Note_on_c, 9, 42, 95
5, 144000, Note_on_c, 9, 36, 95
5, 144480, Note_off_c, 9, 42, 80
5, 144480, Note_off_c, 9, 36, 80
5, 144480, Note_on_c, 9, 42, 95
5, 144480, Note_on_c, 9, 38, 95
5, 144720, Note_off_c, 9, 38, 80
5, 144960, Note_off_c, 9, 42, 80
5, 144960, Note_on_c, 9, 42, 95
5, 144960, Note_on_c, 9, 36, 95
5, 145440, Note_off_c, 9, 42, 80
5, 145440, Note_off_c, 9, 36, 80
5, 145440, Note_on_c, 9, 42, 95
5, 145440, Note_on_c, 9, 38, 95
5, 145920, Note_off_c, 9, 42, 80
5, 145920, Note_off_c, 9, 38, 80
5, 145920, Note_on_c, 9, 42, 95
5, 145920, Note_on_c, 9, 36, 95
5, 146400, Note_off_c, 9, 42, 80
5, 146400, Note_off_c, 9, 36, 80
5, 146400, Note_on_c, 9, 42, 95
5, 146400, Note_on_c, 9, 38, 95
5, 146640, Note_off_c, 9, 38, 80
5, 146640, Note_on_c, 9, 36, 95
5, 146880, Note_off_c, 9, 42, 80
5, 146880, Note_on_c, 9, 42, 95
5, 147120, Note_off_c, 9, 36, 80
5, 147120, Note_on_c, 9, 36, 95
5, 147360, Note_off_c, 9, 42, 80
5, 147360, Note_off_c, 9, 36, 80
5, 147360, Note_on_c, 9, 42, 95
5, 147360, Note_on_c, 9, 38, 95
5, 147840, Note_off_c, 9, 42, 80
5, 147840, Note_off_c, 9, 38, 80
5, 147840, Note_on_c, 9, 42, 95
5, 147840, Note_on_c, 9, 36, 95
5, 148320, Note_off_c, 9, 42, 80
5, 148320, Note_off_c, 9, 36, 80
5, 148320, Note_on_c, 9, 42, 95
5, 148320, Note_on_c, 9, 38, 95
5, 148560, Note_off_c, 9, 38, 80
5, 148800, Note_off_c, 9, 42, 80
5, 148800, Note_on_c, 9, 42, 95
5, 148800, Note_on_c, 9, 36, 95
5, 149280, Note_off_c, 9, 42, 80
5, 149280, Note_off_c, 9, 36, 80
5, 149280, Note_on_c, 9, 42, 95
5, 149280, Note_on_c, 9, 38, 95
5, 149760, Note_off_c, 9, 42, 80
5, 149760, Note_off_c, 9, 38, 80
5, 149760, Note_on_c, 9, 46, 95
5, 149760, Note_on_c, 9, 36, 95
5, 150240, Note_off_c, 9, 46, 80
5, 150240, Note_off_c, 9, 36, 80
5, 150240, Note_on_c, 9, 46, 95
5, 150240, Note_on_c, 9, 38, 95
5, 150480, Note_off_c, 9, 38, 80
5, 150720, Note_off_c, 9, 46, 80
5, 150720, Note_on_c, 9, 46, 95
5, 150720, Note_on_c, 9, 36, 95
5, 151200, Note_off_c, 9, 46, 80
5, 151200, Note_off_c, 9, 36, 80
5, 151200, Note_on_c, 9, 46, 95
5, 151200, Note_on_c, 9, 38, 95
5, 151680, Note_off_c, 9, 46, 80
5, 151680, Note_off_c, 9, 38, 80
5, 151680, Note_on_c, 9, 46, 95
5, 151680, Note_on_c, 9, 36, 95
5, 152160, Note_off_c, 9, 46, 80
5, 152160, Note_off_c, 9, 36, 80
5, 152160, Note_on_c, 9, 46, 95
5, 152160, Note_on_c, 9, 38, 95
5, 152400, Note_off_c, 9, 38, 80
5, 152640, Note_off_c, 9, 46, 80
5, 152640, Note_on_c, 9, 46, 95
5, 152640, Note_on_c, 9, 36, 95
5, 153120, Note_off_c, 9, 46, 80
5, 153120, Note_off_c, 9, 36, 80
5, 153120, Note_on_c, 9, 49, 95
5, 153120, Note_on_c, 9, 38, 95
5, 153360, Note_off_c, 9, 38, 80
5, 153600, Note_off_c, 9, 49, 80
5, 153600, Note_on_c, 9, 42, 95
5, 153600, Note_on_c, 9, 38, 95
5, 154080, Note_off_c, 9, 42, 80
5, 154080, Note_off_c, 9, 38, 80
5, 154080, Note_on_c, 9, 42, 95
5, 154080, Note_on_c, 9, 38, 95
5, 154560, Note_off_c, 9, 42, 80
5, 154560, Note_off_c, 9, 38, 80
5, 154560, Note_on_c, 9, 42, 95
5, 154560, Note_on_c, 9, 38, 95
5, 155040, Note_off_c, 9, 42, 80
5, 155040, Note_off_c, 9, 38, 80
5, 155040, Note_on_c, 9, 42, 95
5, 155040, Note_on_c, 9, 38, 95
5, 155520, Note_off_c, 9, 42, 80
5, 155520, Note_off_c, 9, 38, 80
5, 155520, Note_on_c, 9, 42, 95
5, 155520, Note_on_c, 9, 38, 95
5, 156000, Note_off_c, 9, 42, 80
5, 156000, Note_off_c, 9, 38, 80
5, 156000, Note_on_c, 9, 42, 95
5, 156000, Note_on_c, 9, 38, 95
5, 156480, Note_off_c, 9, 42, 80
5, 156480, Note_off_c, 9, 38, 80
5, 156480, Note_on_c, 9, 42, 95
5, 156480, Note_on_c, 9, 38, 95
5, 156960, Note_off_c, 9, 42, 80
5, 156960, Note_off_c, 9, 38, 80
5, 156960, Note_on_c, 9, 42, 95
5, 156960, Note_on_c, 9, 38, 95
5, 157440, Note_off_c, 9, 42, 80
5, 157440, Note_off_c, 9, 38, 80
5, 157440, Note_on_c, 9, 42, 95
5, 157440, Note_on_c, 9, 38, 95
5, 157920, Note_off_c, 9, 42, 80
5, 157920, Note_off_c, 9, 38, 80
5, 157920, Note_on_c, 9, 42, 95
5, 157920, Note_on_c, 9, 38, 95
5, 158400, Note_off_c, 9, 42, 80
5, 158400, Note_off_c, 9, 38, 80
5, 158400, Note_on_c, 9, 42, 95
5, 158400, Note_on_c, 9, 38, 95
5, 158880, Note_off_c, 9, 42, 80
5, 158880, Note_off_c, 9, 38, 80
5, 158880, Note_on_c, 9, 42, 95
5, 158880, Note_on_c, 9, 38, 95
5, 159360, Note_off_c, 9, 42, 80
5, 159360, Note_off_c, 9, 38, 80
5, 159360, Note_on_c, 9, 42, 95
5, 159360, Note_on_c, 9, 38, 95
5, 159840, Note_off_c, 9, 42, 80
5, 159840, Note_off_c, 9, 38, 80
5, 159840, Note_on_c, 9, 42, 95
5, 159840, Note_on_c, 9, 38, 95
5, 160320, Note_off_c, 9, 42, 80
5, 160320, Note_off_c, 9, 38, 80
5, 160320, Note_on_c, 9, 42, 95
5, 160320, Note_on_c, 9, 38, 95
5, 160800, Note_off_c, 9, 42, 80
5, 160800, Note_off_c, 9, 38, 80
5, 160800, Note_on_c, 9, 42, 95
5, 160800, Note_on_c, 9, 38, 95
5, 161280, Note_off_c, 9, 42, 80
5, 161280, Note_off_c, 9, 38, 80
5, 161280, Note_on_c, 9, 49, 95
5, 161280, Note_on_c, 9, 38, 95
5, 161760, Note_off_c, 9, 49, 80
5, 161760, Note_off_c, 9, 38, 80
5, 161760, Note_on_c, 9, 42, 95
5, 161760, Note_on_c, 9, 38, 95
5, 162240, Note_off_c, 9, 42, 80
5, 162240, Note_off_c, 9, 38, 80
5, 162240, Note_on_c, 9, 42, 95
5, 162240, Note_on_c, 9, 38, 95
5, 162720, Note_off_c, 9, 42, 80
5, 162720, Note_off_c, 9, 38, 80
5, 162720, Note_on_c, 9, 42, 95
5, 162720, Note_on_c, 9, 38, 95
5, 163200, Note_off_c, 9, 42, 80
5, 163200, Note_off_c, 9, 38, 80
5, 163200, Note_on_c, 9, 42, 95
5, 163200, Note_on_c, 9, 38, 95
5, 163680, Note_off_c, 9, 42, 80
5, 163680, Note_off_c, 9, 38, 80
5, 163680, Note_on_c, 9, 42, 95
5, 163680, Note_on_c, 9, 38, 95
5, 164160, Note_off_c, 9, 42, 80
5, 164160, Note_off_c, 9, 38, 80
5, 164160, Note_on_c, 9, 42, 95
5, 164160, Note_on_c, 9, 38, 95
5, 164640, Note_off_c, 9, 42, 80
5, 164640, Note_off_c, 9, 38, 80
5, 164640, Note_on_c, 9, 42, 95
5, 164640, Note_on_c, 9, 38, 95
5, 165120, Note_off_c, 9, 42, 80
5, 165120, Note_off_c, 9, 38, 80
5, 165120, Note_on_c, 9, 42, 95
5, 165120, Note_on_c, 9, 38, 95
5, 165600, Note_off_c, 9, 42, 80
5, 165600, Note_off_c, 9, 38, 80
5, 165600, Note_on_c, 9, 42, 95
5, 165600, Note_on_c, 9, 38, 95
5, 166080, Note_off_c, 9, 42, 80
5, 166080, Note_off_c, 9, 38, 80
5, 166080, Note_on_c, 9, 42, 95
5, 166080, Note_on_c, 9, 38, 95
5, 166560, Note_off_c, 9, 42, 80
5, 166560, Note_off_c, 9, 38, 80
5, 166560, Note_on_c, 9, 49, 95
5, 166560, Note_on_c, 9, 38, 95
5, 167040, Note_off_c, 9, 38, 80
5, 167040, Note_on_c, 9, 38, 95
5, 167160, Note_off_c, 9, 38, 80
5, 167160, Note_on_c, 9, 38, 95
5, 167280, Note_off_c, 9, 38, 80
5, 167280, Note_on_c, 9, 38, 95
5, 167520, Note_off_c, 9, 38, 80
5, 167520, Note_on_c, 9, 38, 95
5, 167760, Note_off_c, 9, 38, 80
5, 167760, Note_on_c, 9, 38, 95
5, 168000, Note_off_c, 9, 38, 80
5, 168000, Note_on_c, 9, 48, 95
5, 168240, Note_off_c, 9, 48, 80
5, 168240, Note_on_c, 9, 48, 95
5, 168480, Note_off_c, 9, 48, 80
5, 168480, Note_on_c, 9, 45, 95
5, 168720, Note_off_c, 9, 45, 80
5, 168720, Note_on_c, 9, 45, 95
5, 168960, Note_off_c, 9, 49, 80
5, 168960, Note_off_c, 9, 45, 80
5, 168960, Note_on_c, 9, 49, 95
5, 168960, Note_on_c, 9, 36, 95
5, 169440, Note_off_c, 9, 49, 80
5, 169440, Note_off_c, 9, 36, 80
5, 169440, Note_on_c, 9, 42, 95
5, 169440, Note_on_c, 9, 38, 95
5, 169920, Note_off_c, 9, 42, 80
5, 169920, Note_off_c, 9, 38, 80
5, 169920, Note_on_c, 9, 42, 95
5, 169920, Note_on_c, 9, 36, 95
5, 170160, Note_off_c, 9, 36, 80
5, 170160, Note_on_c, 9, 36, 95
5, 170400, Note_off_c, 9, 42, 80
5, 170400, Note_off_c, 9, 36, 80
5, 170400, Note_on_c, 9, 42, 95
5, 170400, Note_on_c, 9, 38, 95
5, 170880, Note_off_c, 9, 42, 80
5, 170880, Note_off_c, 9, 38, 80
5, 170880, Note_on_c, 9, 42, 95
5, 170880, Note_on_c, 9, 36, 95
5, 171360, Note_off_c, 9, 42, 80
5, 171360, Note_off_c, 9, 36, 80
5, 171360, Note_on_c, 9, 42, 95
5, 171360, Note_on_c, 9, 38, 95
5, 171840, Note_off_c, 9, 42, 80
5, 171840, Note_off_c, 9, 38, 80
5, 171840, Note_on_c, 9, 42, 95
5, 171840, Note_on_c, 9, 36, 95
5, 172080, Note_off_c, 9, 36, 80
5, 172080, Note_on_c, 9, 36, 95
5, 172320, Note_off_c, 9, 42, 80
5, 172320, Note_off_c, 9, 36, 80
5, 172320, Note_on_c, 9, 42, 95
5, 172320, Note_on_c, 9, 38, 95
5, 172800, Note_off_c, 9, 42, 80
5, 172800, Note_off_c, 9, 38, 80
5, 172800, Note_on_c, 9, 42, 95
5, 172800, Note_on_c, 9, 36, 95
5, 173280, Note_off_c, 9, 42, 80
5, 173280, Note_off_c, 9, 36, 80
5, 173280, Note_on_c, 9, 42, 95
5, 173280, Note_on_c, 9, 38, 95
5, 173760, Note_off_c, 9, 42, 80
5, 173760, Note_off_c, 9, 38, 80
5, 173760, Note_on_c, 9, 42, 95
5, 173760, Note_on_c, 9, 36, 95
5, 174000, Note_off_c, 9, 36, 80
5, 174000, Note_on_c, 9, 36, 95
5, 174240, Note_off_c, 9, 42, 80
5, 174240, Note_off_c, 9, 36, 80
5, 174240, Note_on_c, 9, 42, 95
5, 174240, Note_on_c, 9, 38, 95
5, 174720, Note_off_c, 9, 42, 80
5, 174720, Note_off_c, 9, 38, 80
5, 174720, Note_on_c, 9, 42, 95
5, 174720, Note_on_c, 9, 36, 95
5, 175200, Note_off_c, 9, 42, 80
5, 175200, Note_off_c, 9, 36, 80
5, 175200, Note_on_c, 9, 42, 95
5, 175200, Note_on_c, 9, 38, 95
5, 175680, Note_off_c, 9, 42, 80
5, 175680, Note_off_c, 9, 38, 80
5, 175680, Note_on_c, 9, 42, 95
5, 175680, Note_on_c, 9, 36, 95
5, 175920, Note_off_c, 9, 36, 80
5, 175920, Note_on_c, 9, 36, 95
5, 176160, Note_off_c, 9, 42, 80
5, 176160, Note_off_c, 9, 36, 80
5, 176160, Note_on_c, 9, 42, 95
5, 176160, Note_on_c, 9, 38, 95
5, 176640, Note_off_c, 9, 42, 80
5, 176640, Note_off_c, 9, 38, 80
5, 176640, Note_on_c, 9, 42, 95
5, 176640, Note_on_c, 9, 36, 95
5, 177120, Note_off_c, 9, 42, 80
5, 177120, Note_off_c, 9, 36, 80
5, 177120, Note_on_c, 9, 42, 95
5, 177120, Note_on_c, 9, 38, 95
5, 177600, Note_off_c, 9, 42, 80
5, 177600, Note_off_c, 9, 38, 80
5, 177600, Note_on_c, 9, 42, 95
5, 177600, Note_on_c, 9, 36, 95
5, 177840, Note_off_c, 9, 36, 80
5, 177840, Note_on_c, 9, 36, 95
5, 178080, Note_off_c, 9, 42, 80
5, 178080, Note_off_c, 9, 36, 80
5, 178080, Note_on_c, 9, 42, 95
5, 178080, Note_on_c, 9, 38, 95
5, 178560, Note_off_c, 9, 42, 80
5, 178560, Note_off_c, 9, 38, 80
5, 178560, Note_on_c, 9, 42, 95
5, 178560, Note_on_c, 9, 36, 95
5, 179040, Note_off_c, 9, 42, 80
5, 179040, Note_off_c, 9, 36, 80
5, 179040, Note_on_c, 9, 42, 95
5, 179040, Note_on_c, 9, 38, 95
5, 179520, Note_off_c, 9, 42, 80
5, 179520, Note_off_c, 9, 38, 80
5, 179520, Note_on_c, 9, 42, 95
5, 179520, Note_on_c, 9, 36, 95
5, 179760, Note_off_c, 9, 36, 80
5, 179760, Note_on_c, 9, 36, 95
5, 180000, Note_off_c, 9, 42, 80
5, 180000, Note_off_c, 9, 36, 80
5, 180000, Note_on_c, 9, 42, 95
5, 180000, Note_on_c, 9, 38, 95
5, 180480, Note_off_c, 9, 42, 80
5, 180480, Note_off_c, 9, 38, 80
5, 180480, Note_on_c, 9, 42, 95
5, 180480, Note_on_c, 9, 36, 95
5, 180960, Note_off_c, 9, 42, 80
5, 180960, Note_off_c, 9, 36, 80
5, 180960, Note_on_c, 9, 42, 95
5, 180960, Note_on_c, 9, 38, 95
5, 181440, Note_off_c, 9, 42, 80
5, 181440, Note_off_c, 9, 38, 80
5, 181440, Note_on_c, 9, 42, 95
5, 181440, Note_on_c, 9, 36, 95
5, 181680, Note_off_c, 9, 36, 80
5, 181680, Note_on_c, 9, 36, 95
5, 181920, Note_off_c, 9, 42, 80
5, 181920, Note_off_c, 9, 36, 80
5, 181920, Note_on_c, 9, 42, 95
5, 181920, Note_on_c, 9, 38, 95
5, 182400, Note_off_c, 9, 42, 80
5, 182400, Note_off_c, 9, 38, 80
5, 182400, Note_on_c, 9, 42, 95
5, 182400, Note_on_c, 9, 36, 95
5, 182880, Note_off_c, 9, 42, 80
5, 182880, Note_off_c, 9, 36, 80
5, 182880, Note_on_c, 9, 42, 95
5, 182880, Note_on_c, 9, 38, 95
5, 183360, Note_off_c, 9, 42, 80
5, 183360, Note_off_c, 9, 38, 80
5, 183360, Note_on_c, 9, 42, 95
5, 183360, Note_on_c, 9, 36, 95
5, 183600, Note_off_c, 9, 36, 80
5, 183600, Note_on_c, 9, 36, 95
5, 183840, Note_off_c, 9, 42, 80
5, 183840, Note_off_c, 9, 36, 80
5, 183840, Note_on_c, 9, 46, 95
5, 183840, Note_on_c, 9, 38, 95
5, 184080, Note_off_c, 9, 38, 80
5, 184080, Note_on_c, 9, 38, 95
5, 184320, Note_off_c, 9, 46, 80
5, 184320, Note_off_c, 9, 38, 80
5, 184320, Note_on_c, 9, 49, 95
5, 184320, Note_on_c, 9, 36, 95
5, 184800, Note_off_c, 9, 49, 80
5, 184800, Note_off_c, 9, 36, 80
5, 184800, Note_on_c, 9, 42, 95
5, 184800, Note_on_c, 9, 38, 95
5, 185280, Note_off_c, 9, 42, 80
5, 185280, Note_off_c, 9, 38, 80
5, 185280, Note_on_c, 9, 42, 95
5, 185280, Note_on_c, 9, 36, 95
5, 185520, Note_off_c, 9, 36, 80
5, 185520, Note_on_c, 9, 36, 95
5, 185760, Note_off_c, 9, 42, 80
5, 185760, Note_off_c, 9, 36, 80
5, 185760, Note_on_c, 9, 42, 95
5, 185760, Note_on_c, 9, 38, 95
5, 186240, Note_off_c, 9, 42, 80
5, 186240, Note_off_c, 9, 38, 80
5, 186240, Note_on_c, 9, 42, 95
5, 186240, Note_on_c, 9, 36, 95
5, 186720, Note_off_c, 9, 42, 80
5, 186720, Note_off_c, 9, 36, 80
5, 186720, Note_on_c, 9, 42, 95
5, 186720, Note_on_c, 9, 38, 95
5, 187200, Note_off_c, 9, 42, 80
5, 187200, Note_off_c, 9, 38, 80
5, 187200, Note_on_c, 9, 42, 95
5, 187200, Note_on_c, 9, 36, 95
5, 187440, Note_off_c, 9, 36, 80
5, 187440, Note_on_c, 9, 36, 95
5, 187680, Note_off_c, 9, 42, 80
5, 187680, Note_off_c, 9, 36, 80
5, 187680, Note_on_c, 9, 42, 95
5, 187680, Note_on_c, 9, 38, 95
5, 188160, Note_off_c, 9, 42, 80
5, 188160, Note_off_c, 9, 38, 80
5, 188160, Note_on_c, 9, 42, 95
5, 188160, Note_on_c, 9, 36, 95
5, 188640, Note_off_c, 9, 42, 80
5, 188640, Note_off_c, 9, 36, 80
5, 188640, Note_on_c, 9, 42, 95
5, 188640, Note_on_c, 9, 38, 95
5, 189120, Note_off_c, 9, 42, 80
5, 189120, Note_off_c, 9, 38, 80
5, 189120, Note_on_c, 9, 42, 95
5, 189120, Note_on_c, 9, 36, 95
5, 189360, Note_off_c, 9, 36, 80
5, 189360, Note_on_c, 9, 36, 95
5, 189600, Note_off_c, 9, 42, 80
5, 189600, Note_off_c, 9, 36, 80
5, 189600, Note_on_c, 9, 42, 95
5, 189600, Note_on_c, 9, 38, 95
5, 190080, Note_off_c, 9, 42, 80
5, 190080, Note_off_c, 9, 38, 80
5, 190080, Note_on_c, 9, 42, 95
5, 190080, Note_on_c, 9, 36, 95
5, 190560, Note_off_c, 9, 42, 80
5, 190560, Note_off_c, 9, 36, 80
5, 190560, Note_on_c, 9, 42, 95
5, 190560, Note_on_c, 9, 38, 95
5, 191040, Note_off_c, 9, 42, 80
5, 191040, Note_off_c, 9, 38, 80
5, 191040, Note_on_c, 9, 42, 95
5, 191040, Note_on_c, 9, 36, 95
5, 191280, Note_off_c, 9, 36, 80
5, 191280, Note_on_c, 9, 36, 95
5, 191520, Note_off_c, 9, 42, 80
5, 191520, Note_off_c, 9, 36, 80
5, 191520, Note_on_c, 9, 42, 95
5, 191520, Note_on_c, 9, 38, 95
5, 192000, Note_off_c, 9, 42, 80
5, 192000, Note_off_c, 9, 38, 80
5, 192000, Note_on_c, 9, 42, 95
5, 192000, Note_on_c, 9, 36, 95
5, 192480, Note_off_c, 9, 42, 80
5, 192480, Note_off_c, 9, 36, 80
5, 192480, Note_on_c, 9, 42, 95
5, 192480, Note_on_c, 9, 38, 95
5, 192960, Note_off_c, 9, 42, 80
5, 192960, Note_off_c, 9, 38, 80
5, 192960, Note_on_c, 9, 42, 95
5, 192960, Note_on_c, 9, 36, 95
5, 193200, Note_off_c, 9, 36, 80
5, 193200, Note_on_c, 9, 36, 95
5, 193440, Note_off_c, 9, 42, 80
5, 193440, Note_off_c, 9, 36, 80
5, 193440, Note_on_c, 9, 42, 95
5, 193440, Note_on_c, 9, 38, 95
5, 193920, Note_off_c, 9, 42, 80
5, 193920, Note_off_c, 9, 38, 80
5, 193920, Note_on_c, 9, 42, 95
5, 193920, Note_on_c, 9, 36, 95
5, 194400, Note_off_c, 9, 42, 80
5, 194400, Note_off_c, 9, 36, 80
5, 194400, Note_on_c, 9, 42, 95
5, 194400, Note_on_c, 9, 38, 95
5, 194880, Note_off_c, 9, 42, 80
5, 194880, Note_off_c, 9, 38, 80
5, 194880, Note_on_c, 9, 42, 95
5, 194880, Note_on_c, 9, 36, 95
5, 195120, Note_off_c, 9, 36, 80
5, 195120, Note_on_c, 9, 36, 95
5, 195360, Note_off_c, 9, 42, 80
5, 195360, Note_off_c, 9, 36, 80
5, 195360, Note_on_c, 9, 42, 95
5, 195360, Note_on_c, 9, 38, 95
5, 195840, Note_off_c, 9, 42, 80
5, 195840, Note_off_c, 9, 38, 80
5, 195840, Note_on_c, 9, 42, 95
5, 195840, Note_on_c, 9, 36, 95
5, 196320, Note_off_c, 9, 42, 80
5, 196320, Note_off_c, 9, 36, 80
5, 196320, Note_on_c, 9, 42, 95
5, 196320, Note_on_c, 9, 38, 95
5, 196800, Note_off_c, 9, 42, 80
5, 196800, Note_off_c, 9, 38, 80
5, 196800, Note_on_c, 9, 42, 95
5, 196800, Note_on_c, 9, 36, 95
5, 197040, Note_off_c, 9, 36, 80
5, 197040, Note_on_c, 9, 36, 95
5, 197280, Note_off_c, 9, 42, 80
5, 197280, Note_off_c, 9, 36, 80
5, 197280, Note_on_c, 9, 42, 95
5, 197280, Note_on_c, 9, 38, 95
5, 197760, Note_off_c, 9, 42, 80
5, 197760, Note_off_c, 9, 38, 80
5, 197760, Note_on_c, 9, 42, 95
5, 197760, Note_on_c, 9, 36, 95
5, 198240, Note_off_c, 9, 42, 80
5, 198240, Note_off_c, 9, 36, 80
5, 198240, Note_on_c, 9, 42, 95
5, 198240, Note_on_c, 9, 38, 95
5, 198720, Note_off_c, 9, 42, 80
5, 198720, Note_off_c, 9, 38, 80
5, 198720, Note_on_c, 9, 42, 95
5, 198720, Note_on_c, 9, 36, 95
5, 198960, Note_off_c, 9, 36, 80
5, 198960, Note_on_c, 9, 36, 95
5, 199200, Note_off_c, 9, 42, 80
5, 199200, Note_off_c, 9, 36, 80
5, 199200, Note_on_c, 9, 46, 95
5, 199200, Note_on_c, 9, 38, 95
5, 199440, Note_off_c, 9, 38, 80
5, 199440, Note_on_c, 9, 38, 95
5, 199680, Note_off_c, 9, 46, 80
5, 199680, Note_off_c, 9, 38, 80
5, 199680, Note_on_c, 9, 49, 95
5, 199680, Note_on_c, 9, 36, 95
5, 200160, Note_off_c, 9, 49, 80
5, 200160, Note_off_c, 9, 36, 80
5, 200160, Note_on_c, 9, 42, 95
5, 200160, Note_on_c, 9, 38, 95
5, 200640, Note_off_c, 9, 42, 80
5, 200640, Note_off_c, 9, 38, 80
5, 200640, Note_on_c, 9, 42, 95
5, 200640, Note_on_c, 9, 36, 95
5, 200880, Note_off_c, 9, 36, 80
5, 200880, Note_on_c, 9, 36, 95
5, 201120, Note_off_c, 9, 42, 80
5, 201120, Note_off_c, 9, 36, 80
5, 201120, Note_on_c, 9, 42, 95
5, 201120, Note_on_c, 9, 38, 95
5, 201600, Note_off_c, 9, 42, 80
5, 201600, Note_off_c, 9, 38, 80
5, 201600, Note_on_c, 9, 42, 95
5, 201600, Note_on_c, 9, 36, 95
5, 202080, Note_off_c, 9, 42, 80
5, 202080, Note_off_c, 9, 36, 80
5, 202080, Note_on_c, 9, 42, 95
5, 202080, Note_on_c, 9, 38, 95
5, 202560, Note_off_c, 9, 42, 80
5, 202560, Note_off_c, 9, 38, 80
5, 202560, Note_on_c, 9, 42, 95
5, 202560, Note_on_c, 9, 36, 95
5, 202800, Note_off_c, 9, 36, 80
5, 202800, Note_on_c, 9, 36, 95
5, 203040, Note_off_c, 9, 42, 80
5, 203040, Note_off_c, 9, 36, 80
5, 203040, Note_on_c, 9, 42, 95
5, 203040, Note_on_c, 9, 38, 95
5, 203520, Note_off_c, 9, 42, 80
5, 203520, Note_off_c, 9, 38, 80
5, 203520, Note_on_c, 9, 42, 95
5, 203520, Note_on_c, 9, 36, 95
5, 204000, Note_off_c, 9, 42, 80
5, 204000, Note_off_c, 9, 36, 80
5, 204000, Note_on_c, 9, 42, 95
5, 204000, Note_on_c, 9, 38, 95
5, 204480, Note_off_c, 9, 42, 80
5, 204480, Note_off_c, 9, 38, 80
5, 204480, Note_on_c, 9, 42, 95
5, 204480, Note_on_c, 9, 36, 95
5, 204720, Note_off_c, 9, 36, 80
5, 204720, Note_on_c, 9, 36, 95
5, 204960, Note_off_c, 9, 42, 80
5, 204960, Note_off_c, 9, 36, 80
5, 204960, Note_on_c, 9, 42, 95
5, 204960, Note_on_c, 9, 38, 95
5, 205440, Note_off_c, 9, 42, 80
5, 205440, Note_off_c, 9, 38, 80
5, 205440, Note_on_c, 9, 42, 95
5, 205440, Note_on_c, 9, 36, 95
5, 205920, Note_off_c, 9, 42, 80
5, 205920, Note_off_c, 9, 36, 80
5, 205920, Note_on_c, 9, 42, 95
5, 205920, Note_on_c, 9, 38, 95
5, 206400, Note_off_c, 9, 42, 80
5, 206400, Note_off_c, 9, 38, 80
5, 206400, Note_on_c, 9, 42, 95
5, 206400, Note_on_c, 9, 36, 95
5, 206640, Note_off_c, 9, 36, 80
5, 206640, Note_on_c, 9, 36, 95
5, 206880, Note_off_c, 9, 42, 80
5, 206880, Note_off_c, 9, 36, 80
5, 206880, Note_on_c, 9, 42, 95
5, 206880, Note_on_c, 9, 38, 95
5, 207360, Note_off_c, 9, 42, 80
5, 207360, Note_off_c, 9, 38, 80
5, 207360, Note_on_c, 9, 38, 95
5, 207600, Note_off_c, 9, 38, 80
5, 207600, Note_on_c, 9, 38, 95
5, 207840, Note_off_c, 9, 38, 80
5, 207840, Note_on_c, 9, 38, 95
5, 208320, Note_off_c, 9, 38, 80
5, 208320, Note_on_c, 9, 38, 95
5, 208800, Note_off_c, 9, 38, 80
5, 208800, Note_on_c, 9, 38, 95
5, 209040, Note_off_c, 9, 38, 80
5, 209040, Note_on_c, 9, 38, 95
5, 209280, Note_off_c, 9, 38, 80
5, 209280, Note_on_c, 9, 38, 95
5, 209520, Note_off_c, 9, 38, 80
5, 209520, Note_on_c, 9, 38, 95
5, 209760, Note_off_c, 9, 38, 80
5, 209760, Note_on_c, 9, 38, 95
5, 210240, Note_off_c, 9, 38, 80
5, 210240, Note_on_c, 9, 38, 95
5, 210720, Note_off_c, 9, 38, 80
5, 210720, Note_on_c, 9, 38, 95
5, 210840, Note_off_c, 9, 38, 80
5, 210840, Note_on_c, 9, 38, 95
5, 210960, Note_off_c, 9, 38, 80
5, 210960, Note_on_c, 9, 38, 95
5, 211200, Note_off_c, 9, 38, 80
5, 211200, Note_on_c, 9, 38, 95
5, 211440, Note_off_c, 9, 38, 80
5, 211440, Note_on_c, 9, 38, 95
5, 211680, Note_off_c, 9, 38, 80
5, 211680, Note_on_c, 9, 38, 95
5, 212160, Note_off_c, 9, 38, 80
5, 212160, Note_on_c, 9, 38, 95
5, 212640, Note_off_c, 9, 38, 80
5, 212640, Note_on_c, 9, 38, 95
5, 212880, Note_off_c, 9, 38, 80
5, 212880, Note_on_c, 9, 38, 95
5, 213120, Note_off_c, 9, 38, 80
5, 213120, Note_on_c, 9, 38, 95
5, 213360, Note_off_c, 9, 38, 80
5, 213360, Note_on_c, 9, 38, 95
5, 213600, Note_off_c, 9, 38, 80
5, 213600, Note_on_c, 9, 38, 95
5, 214080, Note_off_c, 9, 38, 80
5, 214080, Note_on_c, 9, 38, 95
5, 214560, Note_off_c, 9, 38, 80
5, 214560, Note_on_c, 9, 38, 95
5, 214800, Note_off_c, 9, 38, 80
5, 214800, Note_on_c, 9, 38, 95
5, 215040, Note_off_c, 9, 38, 80
5, 215040, Note_on_c, 9, 38, 95
5, 215280, Note_off_c, 9, 38, 80
5, 215280, Note_on_c, 9, 38, 95
5, 215520, Note_off_c, 9, 38, 80
5, 215520, Note_on_c, 9, 38, 95
5, 216000, Note_off_c, 9, 38, 80
5, 216000, Note_on_c, 9, 38, 95
5, 216480, Note_off_c, 9, 38, 80
5, 216480, Note_on_c, 9, 38, 95
5, 216720, Note_off_c, 9, 38, 80
5, 216720, Note_on_c, 9, 38, 95
5, 216960, Note_off_c, 9, 38, 80
5, 216960, Note_on_c, 9, 38, 95
5, 217200, Note_off_c, 9, 38, 80
5, 217200, Note_on_c, 9, 38, 95
5, 217440, Note_off_c, 9, 38, 80
5, 217440, Note_on_c, 9, 38, 95
5, 217920, Note_off_c, 9, 38, 80
5, 217920, Note_on_c, 9, 38, 95
5, 218400, Note_off_c, 9, 38, 80
5, 218400, Note_on_c, 9, 38, 95
5, 218520, Note_off_c, 9, 38, 80
5, 218520, Note_on_c, 9, 38, 95
5, 218640, Note_off_c, 9, 38, 80
5, 218640, Note_on_c, 9, 38, 95
5, 218880, Note_off_c, 9, 38, 80
5, 218880, Note_on_c, 9, 38, 95
5, 219120, Note_off_c, 9, 38, 80
5, 219120, Note_on_c, 9, 38, 95
5, 219360, Note_off_c, 9, 38, 80
5, 219360, Note_on_c, 9, 38, 95
5, 219840, Note_off_c, 9, 38, 80
5, 219840, Note_on_c, 9, 38, 95
5, 220320, Note_off_c, 9, 38, 80
5, 220320, Note_on_c, 9, 38, 95
5, 220560, Note_off_c, 9, 38, 80
5, 220560, Note_on_c, 9, 38, 95
5, 220800, Note_off_c, 9, 38, 80
5, 220800, Note_on_c, 9, 38, 95
5, 221040, Note_off_c, 9, 38, 80
5, 221040, Note_on_c, 9, 38, 95
5, 221280, Note_off_c, 9, 38, 80
5, 221280, Note_on_c, 9, 38, 95
5, 221760, Note_off_c, 9, 38, 80
5, 221760, Note_on_c, 9, 38, 95
5, 222240, Note_off_c, 9, 38, 80
5, 222240, Note_on_c, 9, 38, 95
5, 222480, Note_off_c, 9, 38, 80
5, 222480, Note_on_c, 9, 38, 95
5, 222720, Note_off_c, 9, 38, 80
5, 222720, Note_on_c, 9, 42, 95
5, 222720, Note_on_c, 9, 38, 95
5, 223200, Note_off_c, 9, 42, 80
5, 223200, Note_off_c, 9, 38, 80
5, 223200, Note_on_c, 9, 42, 95
5, 223200, Note_on_c, 9, 38, 95
5, 223680, Note_off_c, 9, 42, 80
5, 223680, Note_off_c, 9, 38, 80
5, 223680, Note_on_c, 9, 42, 95
5, 223680, Note_on_c, 9, 38, 95
5, 223920, Note_off_c, 9, 38, 80
5, 223920, Note_on_c, 9, 36, 95
5, 224160, Note_off_c, 9, 42, 80
5, 224160, Note_off_c, 9, 36, 80
5, 224160, Note_on_c, 9, 42, 95
5, 224160, Note_on_c, 9, 38, 95
5, 224400, Note_off_c, 9, 38, 80
5, 224400, Note_on_c, 9, 36, 95
5, 224640, Note_off_c, 9, 42, 80
5, 224640, Note_off_c, 9, 36, 80
5, 224640, Note_on_c, 9, 42, 95
5, 224640, Note_on_c, 9, 38, 95
5, 225120, Note_off_c, 9, 42, 80
5, 225120, Note_off_c, 9, 38, 80
5, 225120, Note_on_c, 9, 42, 95
5, 225120, Note_on_c, 9, 38, 95
5, 225600, Note_off_c, 9, 42, 80
5, 225600, Note_off_c, 9, 38, 80
5, 225600, Note_on_c, 9, 42, 95
5, 225600, Note_on_c, 9, 38, 95
5, 225840, Note_off_c, 9, 38, 80
5, 225840, Note_on_c, 9, 36, 95
5, 226080, Note_off_c, 9, 42, 80
5, 226080, Note_off_c, 9, 36, 80
5, 226080, Note_on_c, 9, 42, 95
5, 226080, Note_on_c, 9, 38, 95
5, 226320, Note_off_c, 9, 38, 80
5, 226320, Note_on_c, 9, 36, 95
5, 226560, Note_off_c, 9, 42, 80
5, 226560, Note_off_c, 9, 36, 80
5, 226560, Note_on_c, 9, 49, 95
5, 226560, Note_on_c, 9, 38, 95
5, 227040, Note_off_c, 9, 49, 80
5, 227040, Note_off_c, 9, 38, 80
5, 227040, Note_on_c, 9, 42, 95
5, 227040, Note_on_c, 9, 38, 95
5, 227520, Note_off_c, 9, 42, 80
5, 227520, Note_off_c, 9, 38, 80
5, 227520, Note_on_c, 9, 42, 95
5, 227520, Note_on_c, 9, 38, 95
5, 227760, Note_off_c, 9, 38, 80
5, 227760, Note_on_c, 9, 36, 95
5, 228000, Note_off_c, 9, 42, 80
5, 228000, Note_off_c, 9, 36, 80
5, 228000, Note_on_c, 9, 42, 95
5, 228000, Note_on_c, 9, 38, 95
5, 228240, Note_off_c, 9, 38, 80
5, 228240, Note_on_c, 9, 36, 95
5, 228480, Note_off_c, 9, 42, 80
5, 228480, Note_off_c, 9, 36, 80
5, 228480, Note_on_c, 9, 49, 95
5, 228480, Note_on_c, 9, 38, 95
5, 228960, Note_off_c, 9, 49, 80
5, 228960, Note_off_c, 9, 38, 80
5, 228960, Note_on_c, 9, 42, 95
5, 228960, Note_on_c, 9, 38, 95
5, 229440, Note_off_c, 9, 42, 80
5, 229440, Note_off_c, 9, 38, 80
5, 229440, Note_on_c, 9, 42, 95
5, 229440, Note_on_c, 9, 38, 95
5, 229680, Note_off_c, 9, 38, 80
5, 229680, Note_on_c, 9, 36, 95
5, 229920, Note_off_c, 9, 42, 80
5, 229920, Note_off_c, 9, 36, 80
5, 229920, Note_on_c, 9, 42, 95
5, 229920, Note_on_c, 9, 38, 95
5, 230160, Note_off_c, 9, 38, 80
5, 230160, Note_on_c, 9, 36, 95
5, 230400, Note_off_c, 9, 42, 80
5, 230400, Note_off_c, 9, 36, 80
5, 230400, Note_on_c, 9, 38, 95
5, 230400, Note_on_c, 9, 49, 95
5, 230880, Note_off_c, 9, 38, 80
5, 230880, Note_on_c, 9, 42, 95
5, 230880, Note_on_c, 9, 38, 95
5, 231360, Note_off_c, 9, 42, 80
5, 231360, Note_off_c, 9, 38, 80
5, 231360, Note_on_c, 9, 42, 95
5, 231360, Note_on_c, 9, 38, 95
5, 231600, Note_off_c, 9, 38, 80
5, 231600, Note_on_c, 9, 36, 95
5, 231840, Note_off_c, 9, 42, 80
5, 231840, Note_off_c, 9, 36, 80
5, 231840, Note_on_c, 9, 42, 95
5, 231840, Note_on_c, 9, 38, 95
5, 232080, Note_off_c, 9, 38, 80
5, 232080, Note_on_c, 9, 36, 95
5, 232320, Note_off_c, 9, 49, 80
5, 232320, Note_off_c, 9, 42, 80
5, 232320, Note_off_c, 9, 36, 80
5, 232320, Note_on_c, 9, 49, 95
5, 232320, Note_on_c, 9, 38, 95
5, 232800, Note_off_c, 9, 49, 80
5, 232800, Note_off_c, 9, 38, 80
5, 232800, Note_on_c, 9, 42, 95
5, 232800, Note_on_c, 9, 38, 95
5, 233280, Note_off_c, 9, 42, 80
5, 233280, Note_off_c, 9, 38, 80
5, 233280, Note_on_c, 9, 42, 95
5, 233280, Note_on_c, 9, 38, 95
5, 233520, Note_off_c, 9, 38, 80
5, 233520, Note_on_c, 9, 36, 95
5, 233760, Note_off_c, 9, 42, 80
5, 233760, Note_off_c, 9, 36, 80
5, 233760, Note_on_c, 9, 42, 95
5, 233760, Note_on_c, 9, 38, 95
5, 234000, Note_off_c, 9, 38, 80
5, 234000, Note_on_c, 9, 36, 95
5, 234240, Note_off_c, 9, 42, 80
5, 234240, Note_off_c, 9, 36, 80
5, 234240, Note_on_c, 9, 49, 95
5, 234240, Note_on_c, 9, 38, 95
5, 234720, Note_off_c, 9, 49, 80
5, 234720, Note_off_c, 9, 38, 80
5, 234720, Note_on_c, 9, 42, 95
5, 234720, Note_on_c, 9, 38, 95
5, 235200, Note_off_c, 9, 42, 80
5, 235200, Note_off_c, 9, 38, 80
5, 235200, Note_on_c, 9, 42, 95
5, 235200, Note_on_c, 9, 38, 95
5, 235440, Note_off_c, 9, 38, 80
5, 235440, Note_on_c, 9, 36, 95
5, 235680, Note_off_c, 9, 42, 80
5, 235680, Note_off_c, 9, 36, 80
5, 235680, Note_on_c, 9, 42, 95
5, 235680, Note_on_c, 9, 38, 95
5, 235920, Note_off_c, 9, 38, 80
5, 235920, Note_on_c, 9, 36, 95
5, 236160, Note_off_c, 9, 42, 80
5, 236160, Note_off_c, 9, 36, 80
5, 236160, Note_on_c, 9, 42, 95
5, 236160, Note_on_c, 9, 38, 95
5, 236640, Note_off_c, 9, 42, 80
5, 236640, Note_off_c, 9, 38, 80
5, 236640, Note_on_c, 9, 42, 95
5, 236640, Note_on_c, 9, 38, 95
5, 237120, Note_off_c, 9, 42, 80
5, 237120, Note_off_c, 9, 38, 80
5, 237120, Note_on_c, 9, 42, 95
5, 237120, Note_on_c, 9, 38, 95
5, 237360, Note_off_c, 9, 38, 80
5, 237600, Note_off_c, 9, 42, 80
5, 237600, Note_on_c, 9, 49, 95
5, 237600, Note_on_c, 9, 38, 95
5, 238080, Note_off_c, 9, 49, 80
5, 238080, Note_off_c, 9, 38, 80
5, 238080, Note_on_c, 9, 38, 95
5, 238560, Note_off_c, 9, 38, 80
5, 241440, Note_on_c, 9, 49, 95
5, 241920, Note_off_c, 9, 49, 80
5, 241920, Note_on_c, 9, 49, 95
5, 241920, Note_on_c, 9, 36, 95
5, 242400, Note_off_c, 9, 49, 80
5, 242400, Note_off_c, 9, 36, 80
5, 242400, Note_on_c, 9, 42, 95
5, 242400, Note_on_c, 9, 38, 95
5, 242880, Note_off_c, 9, 42, 80
5, 242880, Note_off_c, 9, 38, 80
5, 242880, Note_on_c, 9, 42, 95
5, 242880, Note_on_c, 9, 36, 95
5, 243120, Note_off_c, 9, 36, 80
5, 243120, Note_on_c, 9, 36, 95
5, 243360, Note_off_c, 9, 42, 80
5, 243360, Note_off_c, 9, 36, 80
5, 243360, Note_on_c, 9, 42, 95
5, 243360, Note_on_c, 9, 38, 95
5, 243840, Note_off_c, 9, 42, 80
5, 243840, Note_off_c, 9, 38, 80
5, 243840, Note_on_c, 9, 42, 95
5, 243840, Note_on_c, 9, 36, 95
5, 244320, Note_off_c, 9, 42, 80
5, 244320, Note_off_c, 9, 36, 80
5, 244320, Note_on_c, 9, 42, 95
5, 244320, Note_on_c, 9, 38, 95
5, 244800, Note_off_c, 9, 42, 80
5, 244800, Note_off_c, 9, 38, 80
5, 244800, Note_on_c, 9, 42, 95
5, 244800, Note_on_c, 9, 36, 95
5, 245040, Note_off_c, 9, 36, 80
5, 245040, Note_on_c, 9, 36, 95
5, 245280, Note_off_c, 9, 42, 80
5, 245280, Note_off_c, 9, 36, 80
5, 245280, Note_on_c, 9, 42, 95
5, 245280, Note_on_c, 9, 38, 95
5, 245760, Note_off_c, 9, 42, 80
5, 245760, Note_off_c, 9, 38, 80
5, 245760, Note_on_c, 9, 42, 95
5, 245760, Note_on_c, 9, 36, 95
5, 246240, Note_off_c, 9, 42, 80
5, 246240, Note_off_c, 9, 36, 80
5, 246240, Note_on_c, 9, 42, 95
5, 246240, Note_on_c, 9, 38, 95
5, 246720, Note_off_c, 9, 42, 80
5, 246720, Note_off_c, 9, 38, 80
5, 246720, Note_on_c, 9, 42, 95
5, 246720, Note_on_c, 9, 36, 95
5, 246960, Note_off_c, 9, 36, 80
5, 246960, Note_on_c, 9, 36, 95
5, 247200, Note_off_c, 9, 42, 80
5, 247200, Note_off_c, 9, 36, 80
5, 247200, Note_on_c, 9, 42, 95
5, 247200, Note_on_c, 9, 38, 95
5, 247680, Note_off_c, 9, 42, 80
5, 247680, Note_off_c, 9, 38, 80
5, 247680, Note_on_c, 9, 42, 95
5, 247680, Note_on_c, 9, 36, 95
5, 248160, Note_off_c, 9, 42, 80
5, 248160, Note_off_c, 9, 36, 80
5, 248160, Note_on_c, 9, 42, 95
5, 248160, Note_on_c, 9, 38, 95
5, 248640, Note_off_c, 9, 42, 80
5, 248640, Note_off_c, 9, 38, 80
5, 248640, Note_on_c, 9, 42, 95
5, 248640, Note_on_c, 9, 36, 95
5, 248880, Note_off_c, 9, 36, 80
5, 248880, Note_on_c, 9, 36, 95
5, 249120, Note_off_c, 9, 42, 80
5, 249120, Note_off_c, 9, 36, 80
5, 249120, Note_on_c, 9, 42, 95
5, 249120, Note_on_c, 9, 38, 95
5, 249600, Note_off_c, 9, 42, 80
5, 249600, Note_off_c, 9, 38, 80
5, 249600, Note_on_c, 9, 42, 95
5, 249600, Note_on_c, 9, 36, 95
5, 250080, Note_off_c, 9, 42, 80
5, 250080, Note_off_c, 9, 36, 80
5, 250080, Note_on_c, 9, 42, 95
5, 250080, Note_on_c, 9, 38, 95
5, 250560, Note_off_c, 9, 42, 80
5, 250560, Note_off_c, 9, 38, 80
5, 250560, Note_on_c, 9, 42, 95
5, 250560, Note_on_c, 9, 36, 95
5, 250800, Note_off_c, 9, 36, 80
5, 250800, Note_on_c, 9, 36, 95
5, 251040, Note_off_c, 9, 42, 80
5, 251040, Note_off_c, 9, 36, 80
5, 251040, Note_on_c, 9, 42, 95
5, 251040, Note_on_c, 9, 38, 95
5, 251520, Note_off_c, 9, 42, 80
5, 251520, Note_off_c, 9, 38, 80
5, 251520, Note_on_c, 9, 42, 95
5, 251520, Note_on_c, 9, 36, 95
5, 252000, Note_off_c, 9, 42, 80
5, 252000, Note_off_c, 9, 36, 80
5, 252000, Note_on_c, 9, 42, 95
5, 252000, Note_on_c, 9, 38, 95
5, 252480, Note_off_c, 9, 42, 80
5, 252480, Note_off_c, 9, 38, 80
5, 252480, Note_on_c, 9, 42, 95
5, 252480, Note_on_c, 9, 36, 95
5, 252720, Note_off_c, 9, 36, 80
5, 252720, Note_on_c, 9, 36, 95
5, 252960, Note_off_c, 9, 42, 80
5, 252960, Note_off_c, 9, 36, 80
5, 252960, Note_on_c, 9, 42, 95
5, 252960, Note_on_c, 9, 38, 95
5, 253440, Note_off_c, 9, 42, 80
5, 253440, Note_off_c, 9, 38, 80
5, 253440, Note_on_c, 9, 42, 95
5, 253440, Note_on_c, 9, 36, 95
5, 253920, Note_off_c, 9, 42, 80
5, 253920, Note_off_c, 9, 36, 80
5, 253920, Note_on_c, 9, 42, 95
5, 253920, Note_on_c, 9, 38, 95
5, 254400, Note_off_c, 9, 42, 80
5, 254400, Note_off_c, 9, 38, 80
5, 254400, Note_on_c, 9, 42, 95
5, 254400, Note_on_c, 9, 36, 95
5, 254640, Note_off_c, 9, 36, 80
5, 254640, Note_on_c, 9, 36, 95
5, 254880, Note_off_c, 9, 42, 80
5, 254880, Note_off_c, 9, 36, 80
5, 254880, Note_on_c, 9, 42, 95
5, 254880, Note_on_c, 9, 38, 95
5, 255360, Note_off_c, 9, 42, 80
5, 255360, Note_off_c, 9, 38, 80
5, 255360, Note_on_c, 9, 42, 95
5, 255360, Note_on_c, 9, 36, 95
5, 255840, Note_off_c, 9, 42, 80
5, 255840, Note_off_c, 9, 36, 80
5, 255840, Note_on_c, 9, 42, 95
5, 255840, Note_on_c, 9, 38, 95
5, 256320, Note_off_c, 9, 42, 80
5, 256320, Note_off_c, 9, 38, 80
5, 256320, Note_on_c, 9, 42, 95
5, 256320, Note_on_c, 9, 36, 95
5, 256560, Note_off_c, 9, 36, 80
5, 256560, Note_on_c, 9, 36, 95
5, 256800, Note_off_c, 9, 42, 80
5, 256800, Note_off_c, 9, 36, 80
5, 256800, Note_on_c, 9, 46, 95
5, 256800, Note_on_c, 9, 38, 95
5, 257040, Note_off_c, 9, 38, 80
5, 257040, Note_on_c, 9, 38, 95
5, 257280, Note_off_c, 9, 46, 80
5, 257280, Note_off_c, 9, 38, 80
5, 257280, Note_on_c, 9, 49, 95
5, 257280, Note_on_c, 9, 38, 95
5, 257760, Note_off_c, 9, 49, 80
5, 257760, Note_off_c, 9, 38, 80
5, 257760, Note_on_c, 9, 42, 95
5, 257760, Note_on_c, 9, 38, 95
5, 258240, Note_off_c, 9, 42, 80
5, 258240, Note_off_c, 9, 38, 80
5, 258240, Note_on_c, 9, 42, 95
5, 258240, Note_on_c, 9, 38, 95
5, 258720, Note_off_c, 9, 42, 80
5, 258720, Note_off_c, 9, 38, 80
5, 258720, Note_on_c, 9, 42, 95
5, 258720, Note_on_c, 9, 38, 95
5, 259200, Note_off_c, 9, 42, 80
5, 259200, Note_off_c, 9, 38, 80
5, 259200, Note_on_c, 9, 42, 95
5, 259200, Note_on_c, 9, 38, 95
5, 259680, Note_off_c, 9, 42, 80
5, 259680, Note_off_c, 9, 38, 80
5, 259680, Note_on_c, 9, 42, 95
5, 259680, Note_on_c, 9, 38, 95
5, 260160, Note_off_c, 9, 42, 80
5, 260160, Note_off_c, 9, 38, 80
5, 260160, Note_on_c, 9, 42, 95
5, 260160, Note_on_c, 9, 38, 95
5, 260640, Note_off_c, 9, 42, 80
5, 260640, Note_off_c, 9, 38, 80
5, 260640, Note_on_c, 9, 42, 95
5, 260640, Note_on_c, 9, 38, 95
5, 261120, Note_off_c, 9, 42, 80
5, 261120, Note_off_c, 9, 38, 80
5, 261120, Note_on_c, 9, 49, 95
5, 261120, Note_on_c, 9, 38, 95
5, 261600, Note_off_c, 9, 49, 80
5, 261600, Note_off_c, 9, 38, 80
5, 261600, Note_on_c, 9, 42, 95
5, 261600, Note_on_c, 9, 38, 95
5, 262080, Note_off_c, 9, 42, 80
5, 262080, Note_off_c, 9, 38, 80
5, 262080, Note_on_c, 9, 42, 95
5, 262080, Note_on_c, 9, 38, 95
5, 262560, Note_off_c, 9, 42, 80
5, 262560, Note_off_c, 9, 38, 80
5, 262560, Note_on_c, 9, 42, 95
5, 262560, Note_on_c, 9, 38, 95
5, 263040, Note_off_c, 9, 42, 80
5, 263040, Note_off_c, 9, 38, 80
5, 263040, Note_on_c, 9, 42, 95
5, 263040, Note_on_c, 9, 38, 95
5, 263520, Note_off_c, 9, 42, 80
5, 263520, Note_off_c, 9, 38, 80
5, 263520, Note_on_c, 9, 42, 95
5, 263520, Note_on_c, 9, 38, 95
5, 264000, Note_off_c, 9, 42, 80
5, 264000, Note_off_c, 9, 38, 80
5, 264000, Note_on_c, 9, 42, 95
5, 264000, Note_on_c, 9, 38, 95
5, 264480, Note_off_c, 9, 42, 80
5, 264480, Note_off_c, 9, 38, 80
5, 264480, Note_on_c, 9, 42, 95
5, 264480, Note_on_c, 9, 38, 95
5, 264960, Note_off_c, 9, 42, 80
5, 264960, Note_off_c, 9, 38, 80
5, 264960, Note_on_c, 9, 49, 95
5, 264960, Note_on_c, 9, 38, 95
5, 265440, Note_off_c, 9, 49, 80
5, 265440, Note_off_c, 9, 38, 80
5, 265440, Note_on_c, 9, 42, 95
5, 265440, Note_on_c, 9, 38, 95
5, 265920, Note_off_c, 9, 42, 80
5, 265920, Note_off_c, 9, 38, 80
5, 265920, Note_on_c, 9, 42, 95
5, 265920, Note_on_c, 9, 38, 95
5, 266400, Note_off_c, 9, 42, 80
5, 266400, Note_off_c, 9, 38, 80
5, 266400, Note_on_c, 9, 42, 95
5, 266400, Note_on_c, 9, 38, 95
5, 266880, Note_off_c, 9, 42, 80
5, 266880, Note_off_c, 9, 38, 80
5, 266880, Note_on_c, 9, 42, 95
5, 266880, Note_on_c, 9, 38, 95
5, 267360, Note_off_c, 9, 42, 80
5, 267360, Note_off_c, 9, 38, 80
5, 267360, Note_on_c, 9, 42, 95
5, 267360, Note_on_c, 9, 38, 95
5, 267840, Note_off_c, 9, 42, 80
5, 267840, Note_off_c, 9, 38, 80
5, 267840, Note_on_c, 9, 42, 95
5, 267840, Note_on_c, 9, 38, 95
5, 268320, Note_off_c, 9, 42, 80
5, 268320, Note_off_c, 9, 38, 80
5, 268320, Note_on_c, 9, 42, 95
5, 268320, Note_on_c, 9, 38, 95
5, 268800, Note_off_c, 9, 42, 80
5, 268800, Note_off_c, 9, 38, 80
5, 268800, Note_on_c, 9, 49, 95
5, 268800, Note_on_c, 9, 38, 95
5, 269280, Note_off_c, 9, 38, 80
5, 269520, Note_on_c, 9, 48, 95
5, 270240, Note_off_c, 9, 48, 80
5, 270240, Note_on_c, 9, 45, 95
5, 270480, Note_off_c, 9, 45, 80
5, 270720, Note_on_c, 9, 38, 95
5, 271680, Note_off_c, 9, 38, 80
5, 271680, Note_on_c, 9, 48, 95
5, 272160, Note_off_c, 9, 48, 80
5, 272640, Note_off_c, 9, 49, 80
5, 272640, Note_on_c, 9, 49, 95
5, 280320, Note_off_c, 9, 49, 80
5, 280320, End_track
0, 0, End_of_file
