0, 0, Header, 1, 14, 480
1, 0, Start_track
1, 0, Tempo, 333333
1, 0, Time_signature, 4, 2, 96, 8
1, 0, Key_signature, 0, "major"
1, 0, End_track
2, 0, Start_track
2, 0, Title_t, "John"
2, 0, MIDI_port, 0
2, 0, Channel_prefix, 0
2, 0, Control_c, 0, 7, 110
2, 0, Control_c, 0, 10, 63
2, 0, Program_c, 0, 60
2, 0, Control_c, 0, 0, 0
2, 15360, Note_on_c, 0, 74, 100
2, 15680, Note_off_c, 0, 74, 100
2, 15840, Note_on_c, 0, 77, 100
2, 16160, Note_off_c, 0, 77, 100
2, 16320, Note_on_c, 0, 72, 100
2, 16640, Note_off_c, 0, 72, 100
2, 16800, Note_on_c, 0, 71, 100
2, 16960, Note_off_c, 0, 71, 100
2, 17040, Note_on_c, 0, 72, 100
2, 17680, Note_off_c, 0, 72, 100
2, 17760, Note_on_c, 0, 71, 100
2, 18080, Note_off_c, 0, 71, 100
2, 18240, Note_on_c, 0, 72, 100
2, 18720, Note_on_c, 0, 72, 100
2, 18880, Note_off_c, 0, 72, 100
2, 19040, Note_off_c, 0, 72, 100
2, 19200, Note_on_c, 0, 74, 100
2, 19520, Note_off_c, 0, 74, 100
2, 19680, Note_on_c, 0, 77, 100
2, 20000, Note_off_c, 0, 77, 100
2, 20160, Note_on_c, 0, 72, 100
2, 20480, Note_off_c, 0, 72, 100
2, 20640, Note_on_c, 0, 71, 100
2, 20800, Note_off_c, 0, 71, 100
2, 20880, Note_on_c, 0, 72, 100
2, 21520, Note_off_c, 0, 72, 100
2, 21600, Note_on_c, 0, 71, 100
2, 21920, Note_off_c, 0, 71, 100
2, 22080, Note_on_c, 0, 72, 100
2, 22560, Note_on_c, 0, 72, 100
2, 22720, Note_off_c, 0, 72, 100
2, 22880, Note_off_c, 0, 72, 100
2, 23040, Note_on_c, 0, 74, 100
2, 23360, Note_off_c, 0, 74, 100
2, 23520, Note_on_c, 0, 74, 100
2, 23840, Note_off_c, 0, 74, 100
2, 26880, Note_on_c, 0, 74, 100
2, 27200, Note_off_c, 0, 74, 100
2, 27360, Note_on_c, 0, 74, 100
2, 27680, Note_off_c, 0, 74, 100
2, 27840, Note_on_c, 0, 74, 100
2, 28160, Note_off_c, 0, 74, 100
2, 28320, Note_on_c, 0, 72, 100
2, 28480, Note_off_c, 0, 72, 100
2, 28560, Note_on_c, 0, 72, 100
2, 29200, Note_off_c, 0, 72, 100
2, 29280, Note_on_c, 0, 72, 100
2, 29440, Note_off_c, 0, 72, 100
2, 29520, Note_on_c, 0, 70, 100
2, 29840, Note_off_c, 0, 70, 100
2, 30000, Note_on_c, 0, 72, 100
2, 30160, Note_off_c, 0, 72, 100
2, 30240, Note_on_c, 0, 70, 100
2, 30560, Note_off_c, 0, 70, 100
2, 30720, Note_on_c, 0, 67, 100
2, 32005, Note_off_c, 0, 67, 100
2, 34560, Note_on_c, 0, 74, 100
2, 34880, Note_off_c, 0, 74, 100
2, 35040, Note_on_c, 0, 77, 100
2, 35360, Note_off_c, 0, 77, 100
2, 35520, Note_on_c, 0, 72, 100
2, 35840, Note_off_c, 0, 72, 100
2, 36000, Note_on_c, 0, 71, 100
2, 36160, Note_off_c, 0, 71, 100
2, 36240, Note_on_c, 0, 72, 100
2, 36880, Note_off_c, 0, 72, 100
2, 36960, Note_on_c, 0, 71, 100
2, 37280, Note_off_c, 0, 71, 100
2, 37440, Note_on_c, 0, 72, 100
2, 37920, Note_on_c, 0, 72, 100
2, 38080, Note_off_c, 0, 72, 100
2, 38240, Note_off_c, 0, 72, 100
2, 38400, Note_on_c, 0, 74, 100
2, 38720, Note_off_c, 0, 74, 100
2, 38880, Note_on_c, 0, 77, 100
2, 39200, Note_off_c, 0, 77, 100
2, 39360, Note_on_c, 0, 72, 100
2, 39680, Note_off_c, 0, 72, 100
2, 39840, Note_on_c, 0, 71, 100
2, 40000, Note_off_c, 0, 71, 100
2, 40080, Note_on_c, 0, 72, 100
2, 40720, Note_off_c, 0, 72, 100
2, 40800, Note_on_c, 0, 71, 100
2, 41120, Note_off_c, 0, 71, 100
2, 41280, Note_on_c, 0, 72, 100
2, 41760, Note_on_c, 0, 72, 100
2, 41920, Note_off_c, 0, 72, 100
2, 42080, Note_off_c, 0, 72, 100
2, 42240, Note_on_c, 0, 74, 100
2, 42560, Note_off_c, 0, 74, 100
2, 42720, Note_on_c, 0, 74, 100
2, 43040, Note_off_c, 0, 74, 100
2, 46080, Note_on_c, 0, 74, 100
2, 46400, Note_off_c, 0, 74, 100
2, 46560, Note_on_c, 0, 74, 100
2, 46880, Note_off_c, 0, 74, 100
2, 47040, Note_on_c, 0, 74, 100
2, 47360, Note_off_c, 0, 74, 100
2, 47520, Note_on_c, 0, 72, 100
2, 47680, Note_off_c, 0, 72, 100
2, 47760, Note_on_c, 0, 72, 100
2, 48400, Note_off_c, 0, 72, 100
2, 48480, Note_on_c, 0, 72, 100
2, 48640, Note_off_c, 0, 72, 100
2, 48720, Note_on_c, 0, 70, 100
2, 49040, Note_off_c, 0, 70, 100
2, 49200, Note_on_c, 0, 72, 100
2, 49360, Note_off_c, 0, 72, 100
2, 49440, Note_on_c, 0, 70, 100
2, 49760, Note_off_c, 0, 70, 100
2, 49920, Note_on_c, 0, 67, 100
2, 51205, Note_off_c, 0, 67, 100
2, 53760, Note_on_c, 0, 71, 100
2, 54400, Note_off_c, 0, 71, 100
2, 54720, Note_on_c, 0, 71, 100
2, 55360, Note_off_c, 0, 71, 100
2, 55680, Note_on_c, 0, 71, 100
2, 56640, Note_off_c, 0, 71, 100
2, 57120, Note_on_c, 0, 74, 100
2, 57440, Note_off_c, 0, 74, 100
2, 57600, Note_on_c, 0, 72, 100
2, 57920, Note_off_c, 0, 72, 100
2, 58080, Note_on_c, 0, 72, 100
2, 58400, Note_off_c, 0, 72, 100
2, 58560, Note_on_c, 0, 74, 100
2, 58720, Note_off_c, 0, 74, 100
2, 58800, Note_on_c, 0, 76, 100
2, 59120, Note_off_c, 0, 76, 100
2, 59280, Note_on_c, 0, 76, 100
2, 59760, Note_off_c, 0, 76, 100
2, 59760, Note_on_c, 0, 74, 100
2, 60720, Note_off_c, 0, 74, 100
2, 61440, Note_on_c, 0, 71, 100
2, 62080, Note_off_c, 0, 71, 100
2, 62400, Note_on_c, 0, 71, 100
2, 63040, Note_off_c, 0, 71, 100
2, 63360, Note_on_c, 0, 71, 100
2, 64320, Note_off_c, 0, 71, 100
2, 64800, Note_on_c, 0, 74, 100
2, 65120, Note_off_c, 0, 74, 100
2, 65280, Note_on_c, 0, 76, 100
2, 65440, Note_off_c, 0, 76, 100
2, 65520, Note_on_c, 0, 72, 100
2, 65840, Note_off_c, 0, 72, 100
2, 66000, Note_on_c, 0, 69, 100
2, 66480, Note_off_c, 0, 69, 100
2, 66720, Note_on_c, 0, 67, 100
2, 66880, Note_off_c, 0, 67, 100
2, 66960, Note_on_c, 0, 66, 100
2, 67920, Note_off_c, 0, 66, 100
2, 68160, Note_on_c, 0, 71, 100
2, 68320, Note_off_c, 0, 71, 100
2, 68400, Note_on_c, 0, 72, 100
2, 68720, Note_off_c, 0, 72, 100
2, 68880, Note_on_c, 0, 74, 100
2, 69520, Note_off_c, 0, 74, 100
2, 69600, Note_on_c, 0, 77, 100
2, 69920, Note_off_c, 0, 77, 100
2, 70080, Note_on_c, 0, 72, 100
2, 70400, Note_off_c, 0, 72, 100
2, 70560, Note_on_c, 0, 71, 100
2, 70720, Note_off_c, 0, 71, 100
2, 70800, Note_on_c, 0, 72, 100
2, 71440, Note_off_c, 0, 72, 100
2, 71520, Note_on_c, 0, 71, 100
2, 71840, Note_off_c, 0, 71, 100
2, 72000, Note_on_c, 0, 72, 100
2, 72480, Note_on_c, 0, 72, 100
2, 72640, Note_off_c, 0, 72, 100
2, 72800, Note_off_c, 0, 72, 100
2, 72960, Note_on_c, 0, 74, 100
2, 73280, Note_off_c, 0, 74, 100
2, 73440, Note_on_c, 0, 77, 100
2, 73760, Note_off_c, 0, 77, 100
2, 73920, Note_on_c, 0, 72, 100
2, 74240, Note_off_c, 0, 72, 100
2, 74400, Note_on_c, 0, 71, 100
2, 74560, Note_off_c, 0, 71, 100
2, 74640, Note_on_c, 0, 72, 100
2, 75280, Note_off_c, 0, 72, 100
2, 75360, Note_on_c, 0, 71, 100
2, 75680, Note_off_c, 0, 71, 100
2, 75840, Note_on_c, 0, 72, 100
2, 76320, Note_on_c, 0, 72, 100
2, 76480, Note_off_c, 0, 72, 100
2, 76640, Note_off_c, 0, 72, 100
2, 76800, Note_on_c, 0, 74, 100
2, 77120, Note_off_c, 0, 74, 100
2, 77280, Note_on_c, 0, 74, 100
2, 77600, Note_off_c, 0, 74, 100
2, 80640, Note_on_c, 0, 74, 100
2, 80960, Note_off_c, 0, 74, 100
2, 81120, Note_on_c, 0, 74, 100
2, 81440, Note_off_c, 0, 74, 100
2, 81600, Note_on_c, 0, 74, 100
2, 81920, Note_off_c, 0, 74, 100
2, 82080, Note_on_c, 0, 72, 100
2, 82240, Note_off_c, 0, 72, 100
2, 82320, Note_on_c, 0, 72, 100
2, 82960, Note_off_c, 0, 72, 100
2, 83040, Note_on_c, 0, 72, 100
2, 83200, Note_off_c, 0, 72, 100
2, 83280, Note_on_c, 0, 70, 100
2, 83600, Note_off_c, 0, 70, 100
2, 83760, Note_on_c, 0, 72, 100
2, 83920, Note_off_c, 0, 72, 100
2, 84000, Note_on_c, 0, 70, 100
2, 84320, Note_off_c, 0, 70, 100
2, 84480, Note_on_c, 0, 67, 100
2, 85765, Note_off_c, 0, 67, 100
2, 119040, Note_on_c, 0, 74, 100
2, 119360, Note_off_c, 0, 74, 100
2, 119520, Note_on_c, 0, 77, 100
2, 119840, Note_off_c, 0, 77, 100
2, 120000, Note_on_c, 0, 72, 100
2, 120320, Note_off_c, 0, 72, 100
2, 120480, Note_on_c, 0, 71, 100
2, 120640, Note_off_c, 0, 71, 100
2, 120720, Note_on_c, 0, 72, 100
2, 121360, Note_off_c, 0, 72, 100
2, 121440, Note_on_c, 0, 71, 100
2, 121760, Note_off_c, 0, 71, 100
2, 121920, Note_on_c, 0, 72, 100
2, 122400, Note_on_c, 0, 72, 100
2, 122560, Note_off_c, 0, 72, 100
2, 122720, Note_off_c, 0, 72, 100
2, 122880, Note_on_c, 0, 74, 100
2, 123200, Note_off_c, 0, 74, 100
2, 123360, Note_on_c, 0, 77, 100
2, 123680, Note_off_c, 0, 77, 100
2, 123840, Note_on_c, 0, 72, 100
2, 124160, Note_off_c, 0, 72, 100
2, 124320, Note_on_c, 0, 71, 100
2, 124480, Note_off_c, 0, 71, 100
2, 124560, Note_on_c, 0, 72, 100
2, 125200, Note_off_c, 0, 72, 100
2, 125280, Note_on_c, 0, 71, 100
2, 125600, Note_off_c, 0, 71, 100
2, 125760, Note_on_c, 0, 72, 100
2, 126240, Note_on_c, 0, 72, 100
2, 126400, Note_off_c, 0, 72, 100
2, 126560, Note_off_c, 0, 72, 100
2, 126720, Note_on_c, 0, 74, 100
2, 127040, Note_off_c, 0, 74, 100
2, 127200, Note_on_c, 0, 74, 100
2, 127520, Note_off_c, 0, 74, 100
2, 130560, Note_on_c, 0, 74, 100
2, 130880, Note_off_c, 0, 74, 100
2, 131040, Note_on_c, 0, 74, 100
2, 131360, Note_off_c, 0, 74, 100
2, 131520, Note_on_c, 0, 74, 100
2, 131840, Note_off_c, 0, 74, 100
2, 132000, Note_on_c, 0, 72, 100
2, 132160, Note_off_c, 0, 72, 100
2, 132240, Note_on_c, 0, 72, 100
2, 132880, Note_off_c, 0, 72, 100
2, 132960, Note_on_c, 0, 72, 100
2, 133120, Note_off_c, 0, 72, 100
2, 133200, Note_on_c, 0, 70, 100
2, 133520, Note_off_c, 0, 70, 100
2, 133680, Note_on_c, 0, 72, 100
2, 133840, Note_off_c, 0, 72, 100
2, 133920, Note_on_c, 0, 70, 100
2, 134240, Note_off_c, 0, 70, 100
2, 134400, Note_on_c, 0, 67, 100
2, 135685, Note_off_c, 0, 67, 100
2, 138240, Note_on_c, 0, 71, 100
2, 138880, Note_off_c, 0, 71, 100
2, 139200, Note_on_c, 0, 71, 100
2, 139840, Note_off_c, 0, 71, 100
2, 140160, Note_on_c, 0, 71, 100
2, 141120, Note_off_c, 0, 71, 100
2, 141600, Note_on_c, 0, 74, 100
2, 141920, Note_off_c, 0, 74, 100
2, 142080, Note_on_c, 0, 72, 100
2, 142400, Note_off_c, 0, 72, 100
2, 142560, Note_on_c, 0, 72, 100
2, 142880, Note_off_c, 0, 72, 100
2, 143040, Note_on_c, 0, 74, 100
2, 143200, Note_off_c, 0, 74, 100
2, 143280, Note_on_c, 0, 76, 100
2, 143600, Note_off_c, 0, 76, 100
2, 143760, Note_on_c, 0, 76, 100
2, 144240, Note_off_c, 0, 76, 100
2, 144240, Note_on_c, 0, 74, 100
2, 145200, Note_off_c, 0, 74, 100
2, 145920, Note_on_c, 0, 71, 100
2, 146560, Note_off_c, 0, 71, 100
2, 146880, Note_on_c, 0, 71, 100
2, 147520, Note_off_c, 0, 71, 100
2, 147840, Note_on_c, 0, 71, 100
2, 148800, Note_off_c, 0, 71, 100
2, 149280, Note_on_c, 0, 74, 100
2, 149600, Note_off_c, 0, 74, 100
2, 149760, Note_on_c, 0, 76, 100
2, 149920, Note_off_c, 0, 76, 100
2, 150000, Note_on_c, 0, 72, 100
2, 150320, Note_off_c, 0, 72, 100
2, 150480, Note_on_c, 0, 69, 100
2, 150960, Note_off_c, 0, 69, 100
2, 151200, Note_on_c, 0, 67, 100
2, 151360, Note_off_c, 0, 67, 100
2, 151440, Note_on_c, 0, 66, 100
2, 152400, Note_off_c, 0, 66, 100
2, 152640, Note_on_c, 0, 71, 100
2, 152800, Note_off_c, 0, 71, 100
2, 152880, Note_on_c, 0, 72, 100
2, 153200, Note_off_c, 0, 72, 100
2, 153360, Note_on_c, 0, 74, 100
2, 153600, Note_on_c, 0, 74, 100
2, 153920, Note_off_c, 0, 74, 100
2, 154000, Note_off_c, 0, 74, 100
2, 154080, Note_on_c, 0, 77, 100
2, 154400, Note_off_c, 0, 77, 100
2, 154560, Note_on_c, 0, 72, 100
2, 154880, Note_off_c, 0, 72, 100
2, 155040, Note_on_c, 0, 71, 100
2, 155200, Note_off_c, 0, 71, 100
2, 155280, Note_on_c, 0, 72, 100
2, 155920, Note_off_c, 0, 72, 100
2, 156000, Note_on_c, 0, 71, 100
2, 156320, Note_off_c, 0, 71, 100
2, 156480, Note_on_c, 0, 72, 100
2, 156960, Note_on_c, 0, 72, 100
2, 157120, Note_off_c, 0, 72, 100
2, 157280, Note_off_c, 0, 72, 100
2, 157440, Note_on_c, 0, 74, 100
2, 157760, Note_off_c, 0, 74, 100
2, 157920, Note_on_c, 0, 77, 100
2, 158240, Note_off_c, 0, 77, 100
2, 158400, Note_on_c, 0, 72, 100
2, 158720, Note_off_c, 0, 72, 100
2, 158880, Note_on_c, 0, 71, 100
2, 159040, Note_off_c, 0, 71, 100
2, 159120, Note_on_c, 0, 72, 100
2, 159760, Note_off_c, 0, 72, 100
2, 159840, Note_on_c, 0, 71, 100
2, 160160, Note_off_c, 0, 71, 100
2, 160320, Note_on_c, 0, 72, 100
2, 160800, Note_on_c, 0, 72, 100
2, 160960, Note_off_c, 0, 72, 100
2, 161120, Note_off_c, 0, 72, 100
2, 161280, Note_on_c, 0, 74, 100
2, 161600, Note_off_c, 0, 74, 100
2, 161760, Note_on_c, 0, 74, 100
2, 162080, Note_off_c, 0, 74, 100
2, 165120, Note_on_c, 0, 74, 100
2, 165440, Note_off_c, 0, 74, 100
2, 165600, Note_on_c, 0, 74, 100
2, 165920, Note_off_c, 0, 74, 100
2, 166080, Note_on_c, 0, 74, 100
2, 166400, Note_off_c, 0, 74, 100
2, 166560, Note_on_c, 0, 72, 100
2, 166720, Note_off_c, 0, 72, 100
2, 166800, Note_on_c, 0, 72, 100
2, 167440, Note_off_c, 0, 72, 100
2, 167520, Note_on_c, 0, 72, 100
2, 167680, Note_off_c, 0, 72, 100
2, 167760, Note_on_c, 0, 70, 100
2, 168080, Note_off_c, 0, 70, 100
2, 168240, Note_on_c, 0, 72, 100
2, 168400, Note_off_c, 0, 72, 100
2, 168480, Note_on_c, 0, 70, 100
2, 168800, Note_off_c, 0, 70, 100
2, 168960, Note_on_c, 0, 67, 100
2, 170245, Note_off_c, 0, 67, 100
2, 172800, Note_on_c, 0, 74, 100
2, 173120, Note_off_c, 0, 74, 100
2, 173280, Note_on_c, 0, 74, 100
2, 173600, Note_off_c, 0, 74, 100
2, 173760, Note_on_c, 0, 74, 100
2, 174080, Note_off_c, 0, 74, 100
2, 174240, Note_on_c, 0, 72, 100
2, 174400, Note_off_c, 0, 72, 100
2, 174480, Note_on_c, 0, 72, 100
2, 175120, Note_off_c, 0, 72, 100
2, 175200, Note_on_c, 0, 72, 100
2, 175360, Note_off_c, 0, 72, 100
2, 175440, Note_on_c, 0, 70, 100
2, 175760, Note_off_c, 0, 70, 100
2, 175920, Note_on_c, 0, 72, 100
2, 176080, Note_off_c, 0, 72, 100
2, 176160, Note_on_c, 0, 70, 100
2, 176480, Note_off_c, 0, 70, 100
2, 176640, Note_on_c, 0, 67, 100
2, 177925, Note_off_c, 0, 67, 100
2, 177925, End_track
3, 0, Start_track
3, 0, Title_t, "Paul & George"
3, 0, MIDI_port, 0
3, 0, Channel_prefix, 1
3, 0, Control_c, 1, 7, 110
3, 0, Control_c, 1, 10, 56
3, 0, Program_c, 1, 60
3, 0, Control_c, 1, 0, 0
3, 26880, Note_on_c, 1, 81, 100
3, 26880, Note_on_c, 1, 78, 100
3, 27200, Note_off_c, 1, 78, 100
3, 27200, Note_off_c, 1, 81, 100
3, 27360, Note_on_c, 1, 81, 100
3, 27360, Note_on_c, 1, 78, 100
3, 27680, Note_off_c, 1, 78, 100
3, 27680, Note_off_c, 1, 81, 100
3, 27840, Note_on_c, 1, 81, 100
3, 27840, Note_on_c, 1, 78, 100
3, 28160, Note_off_c, 1, 78, 100
3, 28160, Note_off_c, 1, 81, 100
3, 28320, Note_on_c, 1, 80, 100
3, 28320, Note_on_c, 1, 77, 100
3, 28480, Note_off_c, 1, 77, 100
3, 28480, Note_off_c, 1, 80, 100
3, 28560, Note_on_c, 1, 79, 100
3, 28560, Note_on_c, 1, 76, 100
3, 29200, Note_off_c, 1, 76, 100
3, 29200, Note_off_c, 1, 79, 100
3, 29280, Note_on_c, 1, 79, 100
3, 29280, Note_on_c, 1, 76, 100
3, 29440, Note_off_c, 1, 76, 100
3, 29440, Note_off_c, 1, 79, 100
3, 29520, Note_on_c, 1, 77, 100
3, 29520, Note_on_c, 1, 74, 100
3, 29840, Note_off_c, 1, 74, 100
3, 29840, Note_off_c, 1, 77, 100
3, 30000, Note_on_c, 1, 79, 100
3, 30000, Note_on_c, 1, 76, 100
3, 30160, Note_off_c, 1, 76, 100
3, 30160, Note_off_c, 1, 79, 100
3, 30240, Note_on_c, 1, 74, 100
3, 30240, Note_on_c, 1, 77, 100
3, 30560, Note_off_c, 1, 77, 100
3, 30560, Note_off_c, 1, 74, 100
3, 30720, Note_on_c, 1, 74, 100
3, 30720, Note_on_c, 1, 71, 100
3, 32005, Note_off_c, 1, 71, 100
3, 32005, Note_off_c, 1, 74, 100
3, 46080, Note_on_c, 1, 81, 100
3, 46080, Note_on_c, 1, 78, 100
3, 46400, Note_off_c, 1, 78, 100
3, 46400, Note_off_c, 1, 81, 100
3, 46560, Note_on_c, 1, 81, 100
3, 46560, Note_on_c, 1, 78, 100
3, 46880, Note_off_c, 1, 78, 100
3, 46880, Note_off_c, 1, 81, 100
3, 47040, Note_on_c, 1, 81, 100
3, 47040, Note_on_c, 1, 78, 100
3, 47360, Note_off_c, 1, 78, 100
3, 47360, Note_off_c, 1, 81, 100
3, 47520, Note_on_c, 1, 80, 100
3, 47520, Note_on_c, 1, 77, 100
3, 47680, Note_off_c, 1, 77, 100
3, 47680, Note_off_c, 1, 80, 100
3, 47760, Note_on_c, 1, 79, 100
3, 47760, Note_on_c, 1, 76, 100
3, 48400, Note_off_c, 1, 76, 100
3, 48400, Note_off_c, 1, 79, 100
3, 48480, Note_on_c, 1, 79, 100
3, 48480, Note_on_c, 1, 76, 100
3, 48640, Note_off_c, 1, 76, 100
3, 48640, Note_off_c, 1, 79, 100
3, 48720, Note_on_c, 1, 77, 100
3, 48720, Note_on_c, 1, 74, 100
3, 49040, Note_off_c, 1, 74, 100
3, 49040, Note_off_c, 1, 77, 100
3, 49200, Note_on_c, 1, 79, 100
3, 49200, Note_on_c, 1, 76, 100
3, 49360, Note_off_c, 1, 76, 100
3, 49360, Note_off_c, 1, 79, 100
3, 49440, Note_on_c, 1, 74, 100
3, 49440, Note_on_c, 1, 77, 100
3, 49760, Note_off_c, 1, 77, 100
3, 49760, Note_off_c, 1, 74, 100
3, 49920, Note_on_c, 1, 74, 100
3, 49920, Note_on_c, 1, 71, 100
3, 51205, Note_off_c, 1, 71, 100
3, 51205, Note_off_c, 1, 74, 100
3, 53760, Note_on_c, 1, 74, 100
3, 53760, Note_on_c, 1, 83, 100
3, 54400, Note_off_c, 1, 83, 100
3, 54400, Note_off_c, 1, 74, 100
3, 54720, Note_on_c, 1, 74, 100
3, 54720, Note_on_c, 1, 79, 100
3, 55360, Note_off_c, 1, 79, 100
3, 55360, Note_off_c, 1, 74, 100
3, 55680, Note_on_c, 1, 78, 100
3, 55680, Note_on_c, 1, 74, 100
3, 56640, Note_off_c, 1, 74, 100
3, 56640, Note_off_c, 1, 78, 100
3, 57600, Note_on_c, 1, 79, 100
3, 57600, Note_on_c, 1, 72, 100
3, 58885, Note_off_c, 1, 72, 100
3, 58885, Note_off_c, 1, 79, 100
3, 59520, Note_on_c, 1, 78, 100
3, 59520, Note_on_c, 1, 69, 100
3, 60480, Note_off_c, 1, 69, 100
3, 60480, Note_off_c, 1, 78, 100
3, 61440, Note_on_c, 1, 74, 100
3, 61440, Note_on_c, 1, 83, 100
3, 62080, Note_off_c, 1, 83, 100
3, 62080, Note_off_c, 1, 74, 100
3, 62400, Note_on_c, 1, 74, 100
3, 62400, Note_on_c, 1, 79, 100
3, 63040, Note_off_c, 1, 79, 100
3, 63040, Note_off_c, 1, 74, 100
3, 63360, Note_on_c, 1, 78, 100
3, 63360, Note_on_c, 1, 74, 100
3, 64320, Note_off_c, 1, 74, 100
3, 64320, Note_off_c, 1, 78, 100
3, 65280, Note_on_c, 1, 79, 100
3, 65280, Note_on_c, 1, 72, 100
3, 66565, Note_off_c, 1, 72, 100
3, 66565, Note_off_c, 1, 79, 100
3, 67200, Note_on_c, 1, 78, 100
3, 67200, Note_on_c, 1, 69, 100
3, 68160, Note_off_c, 1, 69, 100
3, 68160, Note_off_c, 1, 78, 100
3, 80640, Note_on_c, 1, 81, 100
3, 80640, Note_on_c, 1, 78, 100
3, 80960, Note_off_c, 1, 78, 100
3, 80960, Note_off_c, 1, 81, 100
3, 81120, Note_on_c, 1, 81, 100
3, 81120, Note_on_c, 1, 78, 100
3, 81440, Note_off_c, 1, 78, 100
3, 81440, Note_off_c, 1, 81, 100
3, 81600, Note_on_c, 1, 81, 100
3, 81600, Note_on_c, 1, 78, 100
3, 81920, Note_off_c, 1, 78, 100
3, 81920, Note_off_c, 1, 81, 100
3, 82080, Note_on_c, 1, 80, 100
3, 82080, Note_on_c, 1, 77, 100
3, 82240, Note_off_c, 1, 77, 100
3, 82240, Note_off_c, 1, 80, 100
3, 82320, Note_on_c, 1, 79, 100
3, 82320, Note_on_c, 1, 76, 100
3, 82960, Note_off_c, 1, 76, 100
3, 82960, Note_off_c, 1, 79, 100
3, 83040, Note_on_c, 1, 79, 100
3, 83040, Note_on_c, 1, 76, 100
3, 83200, Note_off_c, 1, 76, 100
3, 83200, Note_off_c, 1, 79, 100
3, 83280, Note_on_c, 1, 77, 100
3, 83280, Note_on_c, 1, 74, 100
3, 83600, Note_off_c, 1, 74, 100
3, 83600, Note_off_c, 1, 77, 100
3, 83760, Note_on_c, 1, 79, 100
3, 83760, Note_on_c, 1, 76, 100
3, 83920, Note_off_c, 1, 76, 100
3, 83920, Note_off_c, 1, 79, 100
3, 84000, Note_on_c, 1, 74, 100
3, 84000, Note_on_c, 1, 77, 100
3, 84320, Note_off_c, 1, 77, 100
3, 84320, Note_off_c, 1, 74, 100
3, 84480, Note_on_c, 1, 74, 100
3, 84480, Note_on_c, 1, 71, 100
3, 85765, Note_off_c, 1, 71, 100
3, 85765, Note_off_c, 1, 74, 100
3, 130560, Note_on_c, 1, 81, 100
3, 130560, Note_on_c, 1, 78, 100
3, 130880, Note_off_c, 1, 78, 100
3, 130880, Note_off_c, 1, 81, 100
3, 131040, Note_on_c, 1, 81, 100
3, 131040, Note_on_c, 1, 78, 100
3, 131360, Note_off_c, 1, 78, 100
3, 131360, Note_off_c, 1, 81, 100
3, 131520, Note_on_c, 1, 81, 100
3, 131520, Note_on_c, 1, 78, 100
3, 131840, Note_off_c, 1, 78, 100
3, 131840, Note_off_c, 1, 81, 100
3, 132000, Note_on_c, 1, 80, 100
3, 132000, Note_on_c, 1, 77, 100
3, 132160, Note_off_c, 1, 77, 100
3, 132160, Note_off_c, 1, 80, 100
3, 132240, Note_on_c, 1, 79, 100
3, 132240, Note_on_c, 1, 76, 100
3, 132880, Note_off_c, 1, 76, 100
3, 132880, Note_off_c, 1, 79, 100
3, 132960, Note_on_c, 1, 79, 100
3, 132960, Note_on_c, 1, 76, 100
3, 133120, Note_off_c, 1, 76, 100
3, 133120, Note_off_c, 1, 79, 100
3, 133200, Note_on_c, 1, 77, 100
3, 133200, Note_on_c, 1, 74, 100
3, 133520, Note_off_c, 1, 74, 100
3, 133520, Note_off_c, 1, 77, 100
3, 133680, Note_on_c, 1, 79, 100
3, 133680, Note_on_c, 1, 76, 100
3, 133840, Note_off_c, 1, 76, 100
3, 133840, Note_off_c, 1, 79, 100
3, 133920, Note_on_c, 1, 74, 100
3, 133920, Note_on_c, 1, 77, 100
3, 134240, Note_off_c, 1, 77, 100
3, 134240, Note_off_c, 1, 74, 100
3, 134400, Note_on_c, 1, 74, 100
3, 134400, Note_on_c, 1, 71, 100
3, 135685, Note_off_c, 1, 71, 100
3, 135685, Note_off_c, 1, 74, 100
3, 138240, Note_on_c, 1, 74, 100
3, 138240, Note_on_c, 1, 83, 100
3, 138880, Note_off_c, 1, 83, 100
3, 138880, Note_off_c, 1, 74, 100
3, 139200, Note_on_c, 1, 74, 100
3, 139200, Note_on_c, 1, 79, 100
3, 139840, Note_off_c, 1, 79, 100
3, 139840, Note_off_c, 1, 74, 100
3, 140160, Note_on_c, 1, 78, 100
3, 140160, Note_on_c, 1, 74, 100
3, 141120, Note_off_c, 1, 74, 100
3, 141120, Note_off_c, 1, 78, 100
3, 142080, Note_on_c, 1, 79, 100
3, 142080, Note_on_c, 1, 72, 100
3, 143365, Note_off_c, 1, 72, 100
3, 143365, Note_off_c, 1, 79, 100
3, 144000, Note_on_c, 1, 78, 100
3, 144000, Note_on_c, 1, 69, 100
3, 144960, Note_off_c, 1, 69, 100
3, 144960, Note_off_c, 1, 78, 100
3, 145920, Note_on_c, 1, 74, 100
3, 145920, Note_on_c, 1, 83, 100
3, 146560, Note_off_c, 1, 83, 100
3, 146560, Note_off_c, 1, 74, 100
3, 146880, Note_on_c, 1, 74, 100
3, 146880, Note_on_c, 1, 79, 100
3, 147520, Note_off_c, 1, 79, 100
3, 147520, Note_off_c, 1, 74, 100
3, 147840, Note_on_c, 1, 78, 100
3, 147840, Note_on_c, 1, 74, 100
3, 148800, Note_off_c, 1, 74, 100
3, 148800, Note_off_c, 1, 78, 100
3, 149760, Note_on_c, 1, 79, 100
3, 149760, Note_on_c, 1, 72, 100
3, 151045, Note_off_c, 1, 72, 100
3, 151045, Note_off_c, 1, 79, 100
3, 151680, Note_on_c, 1, 78, 100
3, 151680, Note_on_c, 1, 69, 100
3, 152640, Note_off_c, 1, 69, 100
3, 152640, Note_off_c, 1, 78, 100
3, 165120, Note_on_c, 1, 81, 100
3, 165120, Note_on_c, 1, 78, 100
3, 165440, Note_off_c, 1, 78, 100
3, 165440, Note_off_c, 1, 81, 100
3, 165600, Note_on_c, 1, 81, 100
3, 165600, Note_on_c, 1, 78, 100
3, 165920, Note_off_c, 1, 78, 100
3, 165920, Note_off_c, 1, 81, 100
3, 166080, Note_on_c, 1, 81, 100
3, 166080, Note_on_c, 1, 78, 100
3, 166400, Note_off_c, 1, 78, 100
3, 166400, Note_off_c, 1, 81, 100
3, 166560, Note_on_c, 1, 80, 100
3, 166560, Note_on_c, 1, 77, 100
3, 166720, Note_off_c, 1, 77, 100
3, 166720, Note_off_c, 1, 80, 100
3, 166800, Note_on_c, 1, 79, 100
3, 166800, Note_on_c, 1, 76, 100
3, 167440, Note_off_c, 1, 76, 100
3, 167440, Note_off_c, 1, 79, 100
3, 167520, Note_on_c, 1, 79, 100
3, 167520, Note_on_c, 1, 76, 100
3, 167680, Note_off_c, 1, 76, 100
3, 167680, Note_off_c, 1, 79, 100
3, 167760, Note_on_c, 1, 77, 100
3, 167760, Note_on_c, 1, 74, 100
3, 168080, Note_off_c, 1, 74, 100
3, 168080, Note_off_c, 1, 77, 100
3, 168240, Note_on_c, 1, 79, 100
3, 168240, Note_on_c, 1, 76, 100
3, 168400, Note_off_c, 1, 76, 100
3, 168400, Note_off_c, 1, 79, 100
3, 168480, Note_on_c, 1, 74, 100
3, 168480, Note_on_c, 1, 77, 100
3, 168800, Note_off_c, 1, 77, 100
3, 168800, Note_off_c, 1, 74, 100
3, 168960, Note_on_c, 1, 74, 100
3, 168960, Note_on_c, 1, 71, 100
3, 170245, Note_off_c, 1, 71, 100
3, 170245, Note_off_c, 1, 74, 100
3, 172800, Note_on_c, 1, 81, 100
3, 172800, Note_on_c, 1, 78, 100
3, 173120, Note_off_c, 1, 78, 100
3, 173120, Note_off_c, 1, 81, 100
3, 173280, Note_on_c, 1, 81, 100
3, 173280, Note_on_c, 1, 78, 100
3, 173600, Note_off_c, 1, 78, 100
3, 173600, Note_off_c, 1, 81, 100
3, 173760, Note_on_c, 1, 81, 100
3, 173760, Note_on_c, 1, 78, 100
3, 174080, Note_off_c, 1, 78, 100
3, 174080, Note_off_c, 1, 81, 100
3, 174240, Note_on_c, 1, 80, 100
3, 174240, Note_on_c, 1, 77, 100
3, 174400, Note_off_c, 1, 77, 100
3, 174400, Note_off_c, 1, 80, 100
3, 174480, Note_on_c, 1, 79, 100
3, 174480, Note_on_c, 1, 76, 100
3, 175120, Note_off_c, 1, 76, 100
3, 175120, Note_off_c, 1, 79, 100
3, 175200, Note_on_c, 1, 79, 100
3, 175200, Note_on_c, 1, 76, 100
3, 175360, Note_off_c, 1, 76, 100
3, 175360, Note_off_c, 1, 79, 100
3, 175440, Note_on_c, 1, 77, 100
3, 175440, Note_on_c, 1, 74, 100
3, 175760, Note_off_c, 1, 74, 100
3, 175760, Note_off_c, 1, 77, 100
3, 175920, Note_on_c, 1, 79, 100
3, 175920, Note_on_c, 1, 76, 100
3, 176080, Note_off_c, 1, 76, 100
3, 176080, Note_off_c, 1, 79, 100
3, 176160, Note_on_c, 1, 74, 100
3, 176160, Note_on_c, 1, 77, 100
3, 176480, Note_off_c, 1, 77, 100
3, 176480, Note_off_c, 1, 74, 100
3, 176640, Note_on_c, 1, 74, 100
3, 176640, Note_on_c, 1, 71, 100
3, 177925, Note_off_c, 1, 71, 100
3, 177925, Note_off_c, 1, 74, 100
3, 177925, End_track
4, 0, Start_track
4, 0, Title_t, "George's Electric"
4, 0, MIDI_port, 0
4, 0, Channel_prefix, 2
4, 0, Control_c, 2, 10, 66
4, 0, Program_c, 2, 28
4, 0, Control_c, 2, 0, 0
4, 0, Note_on_c, 2, 62, 100
4, 320, Note_off_c, 2, 62, 100
4, 480, Note_on_c, 2, 74, 100
4, 800, Note_off_c, 2, 74, 100
4, 960, Note_on_c, 2, 74, 100
4, 1120, Note_off_c, 2, 74, 100
4, 1200, Note_on_c, 2, 72, 100
4, 1360, Note_off_c, 2, 72, 100
4, 1440, Note_on_c, 2, 69, 100
4, 1440, Note_on_c, 2, 62, 100
4, 1600, Note_off_c, 2, 62, 100
4, 1600, Note_off_c, 2, 69, 100
4, 1680, Note_on_c, 2, 79, 100
4, 1680, Note_on_c, 2, 69, 100
4, 2160, Note_off_c, 2, 69, 100
4, 2160, Note_off_c, 2, 79, 100
4, 2160, Note_on_c, 2, 69, 100
4, 2160, Note_on_c, 2, 78, 100
4, 2480, Note_off_c, 2, 78, 100
4, 2480, Note_off_c, 2, 69, 100
4, 2640, Note_on_c, 2, 76, 100
4, 2640, Note_on_c, 2, 69, 100
4, 2960, Note_off_c, 2, 69, 100
4, 2960, Note_off_c, 2, 76, 100
4, 3120, Note_on_c, 2, 78, 100
4, 3120, Note_on_c, 2, 72, 100
4, 3280, Note_off_c, 2, 72, 100
4, 3280, Note_off_c, 2, 78, 100
4, 3360, Note_on_c, 2, 76, 100
4, 3360, Note_on_c, 2, 69, 100
4, 3680, Note_off_c, 2, 69, 100
4, 3680, Note_off_c, 2, 76, 100
4, 3840, Note_on_c, 2, 60, 100
4, 4160, Note_off_c, 2, 60, 100
4, 4320, Note_on_c, 2, 72, 100
4, 4320, Note_on_c, 2, 67, 100
4, 4640, Note_off_c, 2, 67, 100
4, 4640, Note_off_c, 2, 72, 100
4, 4800, Note_on_c, 2, 72, 100
4, 4960, Note_off_c, 2, 72, 100
4, 5040, Note_on_c, 2, 70, 100
4, 5040, Note_on_c, 2, 67, 100
4, 5200, Note_off_c, 2, 67, 100
4, 5200, Note_off_c, 2, 70, 100
4, 5280, Note_on_c, 2, 67, 100
4, 5440, Note_off_c, 2, 67, 100
4, 5520, Note_on_c, 2, 77, 100
4, 5520, Note_on_c, 2, 70, 100
4, 6000, Note_off_c, 2, 70, 100
4, 6000, Note_off_c, 2, 77, 100
4, 6000, Note_on_c, 2, 76, 100
4, 6000, Note_on_c, 2, 70, 100
4, 6320, Note_off_c, 2, 70, 100
4, 6320, Note_off_c, 2, 76, 100
4, 6480, Note_on_c, 2, 74, 100
4, 6800, Note_off_c, 2, 74, 100
4, 6960, Note_on_c, 2, 76, 100
4, 6960, Note_on_c, 2, 70, 100
4, 7120, Note_off_c, 2, 70, 100
4, 7120, Note_off_c, 2, 76, 100
4, 7200, Note_on_c, 2, 74, 100
4, 7200, Note_on_c, 2, 67, 100
4, 7520, Note_off_c, 2, 67, 100
4, 7520, Note_off_c, 2, 74, 100
4, 7680, Note_on_c, 2, 55, 100
4, 7680, Note_on_c, 2, 62, 100
4, 8000, Note_off_c, 2, 62, 100
4, 8000, Note_off_c, 2, 55, 100
4, 8160, Note_on_c, 2, 67, 100
4, 8160, Note_on_c, 2, 62, 100
4, 8320, Note_off_c, 2, 62, 100
4, 8320, Note_off_c, 2, 67, 100
4, 8400, Note_on_c, 2, 62, 100
4, 8560, Note_off_c, 2, 62, 100
4, 8640, Note_on_c, 2, 67, 100
4, 8800, Note_off_c, 2, 67, 100
4, 8880, Note_on_c, 2, 65, 100
4, 9040, Note_off_c, 2, 65, 100
4, 9120, Note_on_c, 2, 62, 100
4, 9120, Note_on_c, 2, 55, 100
4, 9280, Note_off_c, 2, 55, 100
4, 9280, Note_off_c, 2, 62, 100
4, 9360, Note_on_c, 2, 72, 100
4, 9360, Note_on_c, 2, 62, 100
4, 9840, Note_off_c, 2, 62, 100
4, 9840, Note_off_c, 2, 72, 100
4, 9840, Note_on_c, 2, 71, 100
4, 9840, Note_on_c, 2, 65, 100
4, 10160, Note_off_c, 2, 65, 100
4, 10160, Note_off_c, 2, 71, 100
4, 10320, Note_on_c, 2, 69, 100
4, 10320, Note_on_c, 2, 62, 100
4, 10640, Note_off_c, 2, 62, 100
4, 10640, Note_off_c, 2, 69, 100
4, 10800, Note_on_c, 2, 71, 100
4, 10800, Note_on_c, 2, 65, 100
4, 10960, Note_off_c, 2, 65, 100
4, 10960, Note_off_c, 2, 71, 100
4, 11040, Note_on_c, 2, 69, 100
4, 11040, Note_on_c, 2, 62, 100
4, 11360, Note_off_c, 2, 62, 100
4, 11360, Note_off_c, 2, 69, 100
4, 11520, Note_on_c, 2, 55, 100
4, 11520, Note_on_c, 2, 62, 100
4, 11840, Note_off_c, 2, 62, 100
4, 11840, Note_off_c, 2, 55, 100
4, 12000, Note_on_c, 2, 67, 100
4, 12000, Note_on_c, 2, 62, 100
4, 12160, Note_off_c, 2, 62, 100
4, 12160, Note_off_c, 2, 67, 100
4, 12240, Note_on_c, 2, 62, 100
4, 12400, Note_off_c, 2, 62, 100
4, 12480, Note_on_c, 2, 67, 100
4, 12640, Note_off_c, 2, 67, 100
4, 12720, Note_on_c, 2, 65, 100
4, 12880, Note_off_c, 2, 65, 100
4, 12960, Note_on_c, 2, 62, 100
4, 12960, Note_on_c, 2, 55, 100
4, 13120, Note_off_c, 2, 55, 100
4, 13120, Note_off_c, 2, 62, 100
4, 13200, Note_on_c, 2, 72, 100
4, 13200, Note_on_c, 2, 62, 100
4, 13680, Note_off_c, 2, 62, 100
4, 13680, Note_off_c, 2, 72, 100
4, 13680, Note_on_c, 2, 71, 100
4, 13680, Note_on_c, 2, 65, 100
4, 14000, Note_off_c, 2, 65, 100
4, 14000, Note_off_c, 2, 71, 100
4, 14160, Note_on_c, 2, 69, 100
4, 14160, Note_on_c, 2, 62, 100
4, 14480, Note_off_c, 2, 62, 100
4, 14480, Note_off_c, 2, 69, 100
4, 14640, Note_on_c, 2, 71, 100
4, 14640, Note_on_c, 2, 65, 100
4, 14800, Note_off_c, 2, 65, 100
4, 14800, Note_off_c, 2, 71, 100
4, 14880, Note_on_c, 2, 69, 100
4, 14880, Note_on_c, 2, 62, 100
4, 15200, Note_off_c, 2, 62, 100
4, 15200, Note_off_c, 2, 69, 100
4, 15360, Note_on_c, 2, 55, 100
4, 15360, Note_on_c, 2, 62, 100
4, 15680, Note_off_c, 2, 62, 100
4, 15680, Note_off_c, 2, 55, 100
4, 15840, Note_on_c, 2, 67, 100
4, 15840, Note_on_c, 2, 62, 100
4, 16000, Note_off_c, 2, 62, 100
4, 16000, Note_off_c, 2, 67, 100
4, 16080, Note_on_c, 2, 62, 100
4, 16240, Note_off_c, 2, 62, 100
4, 16320, Note_on_c, 2, 67, 100
4, 16480, Note_off_c, 2, 67, 100
4, 16560, Note_on_c, 2, 65, 100
4, 16720, Note_off_c, 2, 65, 100
4, 16800, Note_on_c, 2, 62, 100
4, 16800, Note_on_c, 2, 55, 100
4, 16960, Note_off_c, 2, 55, 100
4, 16960, Note_off_c, 2, 62, 100
4, 17040, Note_on_c, 2, 72, 100
4, 17040, Note_on_c, 2, 62, 100
4, 17520, Note_off_c, 2, 62, 64
4, 17520, Note_off_c, 2, 72, 64
4, 17520, Note_on_c, 2, 71, 100
4, 17520, Note_on_c, 2, 65, 100
4, 17840, Note_off_c, 2, 65, 100
4, 17840, Note_off_c, 2, 71, 100
4, 18000, Note_on_c, 2, 69, 100
4, 18000, Note_on_c, 2, 62, 100
4, 18320, Note_off_c, 2, 62, 100
4, 18320, Note_off_c, 2, 69, 100
4, 18480, Note_on_c, 2, 71, 100
4, 18480, Note_on_c, 2, 65, 100
4, 18640, Note_off_c, 2, 65, 100
4, 18640, Note_off_c, 2, 71, 100
4, 18720, Note_on_c, 2, 69, 100
4, 18720, Note_on_c, 2, 62, 100
4, 19040, Note_off_c, 2, 62, 100
4, 19040, Note_off_c, 2, 69, 100
4, 19200, Note_on_c, 2, 55, 100
4, 19200, Note_on_c, 2, 62, 100
4, 19520, Note_off_c, 2, 62, 100
4, 19520, Note_off_c, 2, 55, 100
4, 19680, Note_on_c, 2, 67, 100
4, 19680, Note_on_c, 2, 62, 100
4, 19840, Note_off_c, 2, 62, 100
4, 19840, Note_off_c, 2, 67, 100
4, 19920, Note_on_c, 2, 62, 100
4, 20080, Note_off_c, 2, 62, 100
4, 20160, Note_on_c, 2, 67, 100
4, 20320, Note_off_c, 2, 67, 100
4, 20400, Note_on_c, 2, 65, 100
4, 20560, Note_off_c, 2, 65, 100
4, 20640, Note_on_c, 2, 62, 100
4, 20640, Note_on_c, 2, 55, 100
4, 20800, Note_off_c, 2, 55, 100
4, 20800, Note_off_c, 2, 62, 100
4, 20880, Note_on_c, 2, 72, 100
4, 20880, Note_on_c, 2, 62, 100
4, 21360, Note_off_c, 2, 62, 64
4, 21360, Note_off_c, 2, 72, 64
4, 21360, Note_on_c, 2, 71, 100
4, 21360, Note_on_c, 2, 65, 100
4, 21680, Note_off_c, 2, 65, 100
4, 21680, Note_off_c, 2, 71, 100
4, 21840, Note_on_c, 2, 69, 100
4, 21840, Note_on_c, 2, 62, 100
4, 22160, Note_off_c, 2, 62, 100
4, 22160, Note_off_c, 2, 69, 100
4, 22320, Note_on_c, 2, 71, 100
4, 22320, Note_on_c, 2, 65, 100
4, 22480, Note_off_c, 2, 65, 100
4, 22480, Note_off_c, 2, 71, 100
4, 22560, Note_on_c, 2, 69, 100
4, 22560, Note_on_c, 2, 62, 100
4, 22880, Note_off_c, 2, 62, 100
4, 22880, Note_off_c, 2, 69, 100
4, 23040, Note_on_c, 2, 62, 100
4, 23360, Note_off_c, 2, 62, 100
4, 23520, Note_on_c, 2, 74, 100
4, 23840, Note_off_c, 2, 74, 100
4, 24000, Note_on_c, 2, 74, 100
4, 24160, Note_off_c, 2, 74, 100
4, 24240, Note_on_c, 2, 72, 100
4, 24400, Note_off_c, 2, 72, 100
4, 24480, Note_on_c, 2, 69, 100
4, 24480, Note_on_c, 2, 62, 100
4, 24640, Note_off_c, 2, 62, 100
4, 24640, Note_off_c, 2, 69, 100
4, 24720, Note_on_c, 2, 79, 100
4, 24720, Note_on_c, 2, 69, 100
4, 25200, Note_off_c, 2, 69, 64
4, 25200, Note_off_c, 2, 79, 64
4, 25200, Note_on_c, 2, 69, 100
4, 25200, Note_on_c, 2, 78, 100
4, 25520, Note_off_c, 2, 78, 100
4, 25520, Note_off_c, 2, 69, 100
4, 25680, Note_on_c, 2, 76, 100
4, 25680, Note_on_c, 2, 69, 100
4, 26000, Note_off_c, 2, 69, 100
4, 26000, Note_off_c, 2, 76, 100
4, 26160, Note_on_c, 2, 78, 100
4, 26160, Note_on_c, 2, 72, 100
4, 26320, Note_off_c, 2, 72, 100
4, 26320, Note_off_c, 2, 78, 100
4, 26400, Note_on_c, 2, 76, 100
4, 26400, Note_on_c, 2, 69, 100
4, 26720, Note_off_c, 2, 69, 100
4, 26720, Note_off_c, 2, 76, 100
4, 26880, Note_on_c, 2, 62, 100
4, 26880, Note_on_c, 2, 69, 100
4, 26880, Note_on_c, 2, 74, 100
4, 26880, Note_on_c, 2, 78, 100
4, 27520, Note_off_c, 2, 78, 100
4, 27520, Note_off_c, 2, 74, 100
4, 27520, Note_off_c, 2, 69, 100
4, 27520, Note_off_c, 2, 62, 100
4, 27840, Note_on_c, 2, 62, 100
4, 27840, Note_on_c, 2, 69, 100
4, 27840, Note_on_c, 2, 74, 100
4, 27840, Note_on_c, 2, 78, 100
4, 28320, Note_on_c, 2, 62, 100
4, 28320, Note_on_c, 2, 69, 100
4, 28320, Note_on_c, 2, 74, 100
4, 28320, Note_on_c, 2, 78, 100
4, 28480, Note_off_c, 2, 78, 100
4, 28480, Note_off_c, 2, 74, 100
4, 28480, Note_off_c, 2, 69, 100
4, 28480, Note_off_c, 2, 62, 100
4, 28800, Note_off_c, 2, 62, 100
4, 28800, Note_off_c, 2, 69, 100
4, 28800, Note_off_c, 2, 74, 100
4, 28800, Note_off_c, 2, 78, 100
4, 28800, Note_on_c, 2, 60, 100
4, 28800, Note_on_c, 2, 67, 100
4, 28800, Note_on_c, 2, 72, 100
4, 28800, Note_on_c, 2, 76, 100
4, 29440, Note_off_c, 2, 76, 100
4, 29440, Note_off_c, 2, 72, 100
4, 29440, Note_off_c, 2, 67, 100
4, 29440, Note_off_c, 2, 60, 100
4, 29760, Note_on_c, 2, 76, 100
4, 29760, Note_on_c, 2, 72, 100
4, 29760, Note_on_c, 2, 67, 100
4, 29760, Note_on_c, 2, 60, 100
4, 30080, Note_off_c, 2, 60, 100
4, 30080, Note_off_c, 2, 67, 100
4, 30080, Note_off_c, 2, 72, 100
4, 30080, Note_off_c, 2, 76, 100
4, 30240, Note_on_c, 2, 76, 100
4, 30240, Note_on_c, 2, 72, 100
4, 30240, Note_on_c, 2, 67, 100
4, 30240, Note_on_c, 2, 60, 100
4, 30560, Note_off_c, 2, 60, 100
4, 30560, Note_off_c, 2, 67, 100
4, 30560, Note_off_c, 2, 72, 100
4, 30560, Note_off_c, 2, 76, 100
4, 30720, Note_on_c, 2, 55, 100
4, 30720, Note_on_c, 2, 62, 100
4, 31040, Note_off_c, 2, 62, 100
4, 31040, Note_off_c, 2, 55, 100
4, 31200, Note_on_c, 2, 67, 100
4, 31200, Note_on_c, 2, 62, 100
4, 31360, Note_off_c, 2, 62, 100
4, 31360, Note_off_c, 2, 67, 100
4, 31440, Note_on_c, 2, 62, 100
4, 31600, Note_off_c, 2, 62, 100
4, 31680, Note_on_c, 2, 67, 100
4, 31840, Note_off_c, 2, 67, 100
4, 31920, Note_on_c, 2, 65, 100
4, 32080, Note_off_c, 2, 65, 100
4, 32160, Note_on_c, 2, 62, 100
4, 32160, Note_on_c, 2, 55, 100
4, 32320, Note_off_c, 2, 55, 100
4, 32320, Note_off_c, 2, 62, 100
4, 32400, Note_on_c, 2, 72, 100
4, 32400, Note_on_c, 2, 62, 100
4, 32880, Note_off_c, 2, 62, 64
4, 32880, Note_off_c, 2, 72, 64
4, 32880, Note_on_c, 2, 71, 100
4, 32880, Note_on_c, 2, 65, 100
4, 33200, Note_off_c, 2, 65, 100
4, 33200, Note_off_c, 2, 71, 100
4, 33360, Note_on_c, 2, 69, 100
4, 33360, Note_on_c, 2, 62, 100
4, 33680, Note_off_c, 2, 62, 100
4, 33680, Note_off_c, 2, 69, 100
4, 33840, Note_on_c, 2, 71, 100
4, 33840, Note_on_c, 2, 65, 100
4, 34000, Note_off_c, 2, 65, 100
4, 34000, Note_off_c, 2, 71, 100
4, 34080, Note_on_c, 2, 69, 100
4, 34080, Note_on_c, 2, 62, 100
4, 34400, Note_off_c, 2, 62, 100
4, 34400, Note_off_c, 2, 69, 100
4, 34560, Note_on_c, 2, 55, 100
4, 34560, Note_on_c, 2, 62, 100
4, 34880, Note_off_c, 2, 62, 100
4, 34880, Note_off_c, 2, 55, 100
4, 35040, Note_on_c, 2, 67, 100
4, 35040, Note_on_c, 2, 62, 100
4, 35200, Note_off_c, 2, 62, 100
4, 35200, Note_off_c, 2, 67, 100
4, 35280, Note_on_c, 2, 62, 100
4, 35440, Note_off_c, 2, 62, 100
4, 35520, Note_on_c, 2, 67, 100
4, 35680, Note_off_c, 2, 67, 100
4, 35760, Note_on_c, 2, 65, 100
4, 35920, Note_off_c, 2, 65, 100
4, 36000, Note_on_c, 2, 62, 100
4, 36000, Note_on_c, 2, 55, 100
4, 36160, Note_off_c, 2, 55, 100
4, 36160, Note_off_c, 2, 62, 100
4, 36240, Note_on_c, 2, 72, 100
4, 36240, Note_on_c, 2, 62, 100
4, 36720, Note_off_c, 2, 62, 64
4, 36720, Note_off_c, 2, 72, 64
4, 36720, Note_on_c, 2, 71, 100
4, 36720, Note_on_c, 2, 65, 100
4, 37040, Note_off_c, 2, 65, 100
4, 37040, Note_off_c, 2, 71, 100
4, 37200, Note_on_c, 2, 69, 100
4, 37200, Note_on_c, 2, 62, 100
4, 37520, Note_off_c, 2, 62, 100
4, 37520, Note_off_c, 2, 69, 100
4, 37680, Note_on_c, 2, 71, 100
4, 37680, Note_on_c, 2, 65, 100
4, 37840, Note_off_c, 2, 65, 100
4, 37840, Note_off_c, 2, 71, 100
4, 37920, Note_on_c, 2, 69, 100
4, 37920, Note_on_c, 2, 62, 100
4, 38240, Note_off_c, 2, 62, 100
4, 38240, Note_off_c, 2, 69, 100
4, 38400, Note_on_c, 2, 55, 100
4, 38400, Note_on_c, 2, 62, 100
4, 38720, Note_off_c, 2, 62, 100
4, 38720, Note_off_c, 2, 55, 100
4, 38880, Note_on_c, 2, 67, 100
4, 38880, Note_on_c, 2, 62, 100
4, 39040, Note_off_c, 2, 62, 100
4, 39040, Note_off_c, 2, 67, 100
4, 39120, Note_on_c, 2, 62, 100
4, 39280, Note_off_c, 2, 62, 100
4, 39360, Note_on_c, 2, 67, 100
4, 39520, Note_off_c, 2, 67, 100
4, 39600, Note_on_c, 2, 65, 100
4, 39760, Note_off_c, 2, 65, 100
4, 39840, Note_on_c, 2, 62, 100
4, 39840, Note_on_c, 2, 55, 100
4, 40000, Note_off_c, 2, 55, 100
4, 40000, Note_off_c, 2, 62, 100
4, 40080, Note_on_c, 2, 72, 100
4, 40080, Note_on_c, 2, 62, 100
4, 40560, Note_off_c, 2, 62, 64
4, 40560, Note_off_c, 2, 72, 64
4, 40560, Note_on_c, 2, 71, 100
4, 40560, Note_on_c, 2, 65, 100
4, 40880, Note_off_c, 2, 65, 100
4, 40880, Note_off_c, 2, 71, 100
4, 41040, Note_on_c, 2, 69, 100
4, 41040, Note_on_c, 2, 62, 100
4, 41360, Note_off_c, 2, 62, 100
4, 41360, Note_off_c, 2, 69, 100
4, 41520, Note_on_c, 2, 71, 100
4, 41520, Note_on_c, 2, 65, 100
4, 41680, Note_off_c, 2, 65, 100
4, 41680, Note_off_c, 2, 71, 100
4, 41760, Note_on_c, 2, 69, 100
4, 41760, Note_on_c, 2, 62, 100
4, 42080, Note_off_c, 2, 62, 100
4, 42080, Note_off_c, 2, 69, 100
4, 42240, Note_on_c, 2, 62, 100
4, 42560, Note_off_c, 2, 62, 100
4, 42720, Note_on_c, 2, 74, 100
4, 43040, Note_off_c, 2, 74, 100
4, 43200, Note_on_c, 2, 74, 100
4, 43360, Note_off_c, 2, 74, 100
4, 43440, Note_on_c, 2, 72, 100
4, 43600, Note_off_c, 2, 72, 100
4, 43680, Note_on_c, 2, 69, 100
4, 43680, Note_on_c, 2, 62, 100
4, 43840, Note_off_c, 2, 62, 100
4, 43840, Note_off_c, 2, 69, 100
4, 43920, Note_on_c, 2, 79, 100
4, 43920, Note_on_c, 2, 69, 100
4, 44400, Note_off_c, 2, 69, 64
4, 44400, Note_off_c, 2, 79, 64
4, 44400, Note_on_c, 2, 69, 100
4, 44400, Note_on_c, 2, 78, 100
4, 44720, Note_off_c, 2, 78, 100
4, 44720, Note_off_c, 2, 69, 100
4, 44880, Note_on_c, 2, 76, 100
4, 44880, Note_on_c, 2, 69, 100
4, 45200, Note_off_c, 2, 69, 100
4, 45200, Note_off_c, 2, 76, 100
4, 45360, Note_on_c, 2, 78, 100
4, 45360, Note_on_c, 2, 72, 100
4, 45520, Note_off_c, 2, 72, 100
4, 45520, Note_off_c, 2, 78, 100
4, 45600, Note_on_c, 2, 76, 100
4, 45600, Note_on_c, 2, 69, 100
4, 45920, Note_off_c, 2, 69, 100
4, 45920, Note_off_c, 2, 76, 100
4, 46080, Note_on_c, 2, 62, 100
4, 46080, Note_on_c, 2, 69, 100
4, 46080, Note_on_c, 2, 74, 100
4, 46080, Note_on_c, 2, 78, 100
4, 46720, Note_off_c, 2, 78, 100
4, 46720, Note_off_c, 2, 74, 100
4, 46720, Note_off_c, 2, 69, 100
4, 46720, Note_off_c, 2, 62, 100
4, 47040, Note_on_c, 2, 62, 100
4, 47040, Note_on_c, 2, 69, 100
4, 47040, Note_on_c, 2, 74, 100
4, 47040, Note_on_c, 2, 78, 100
4, 47520, Note_on_c, 2, 62, 100
4, 47520, Note_on_c, 2, 69, 100
4, 47520, Note_on_c, 2, 74, 100
4, 47520, Note_on_c, 2, 78, 100
4, 47680, Note_off_c, 2, 78, 100
4, 47680, Note_off_c, 2, 74, 100
4, 47680, Note_off_c, 2, 69, 100
4, 47680, Note_off_c, 2, 62, 100
4, 48000, Note_off_c, 2, 62, 100
4, 48000, Note_off_c, 2, 69, 100
4, 48000, Note_off_c, 2, 74, 100
4, 48000, Note_off_c, 2, 78, 100
4, 48000, Note_on_c, 2, 60, 100
4, 48000, Note_on_c, 2, 67, 100
4, 48000, Note_on_c, 2, 72, 100
4, 48000, Note_on_c, 2, 76, 100
4, 48640, Note_off_c, 2, 76, 100
4, 48640, Note_off_c, 2, 72, 100
4, 48640, Note_off_c, 2, 67, 100
4, 48640, Note_off_c, 2, 60, 100
4, 48960, Note_on_c, 2, 76, 100
4, 48960, Note_on_c, 2, 72, 100
4, 48960, Note_on_c, 2, 67, 100
4, 48960, Note_on_c, 2, 60, 100
4, 49280, Note_off_c, 2, 60, 100
4, 49280, Note_off_c, 2, 67, 100
4, 49280, Note_off_c, 2, 72, 100
4, 49280, Note_off_c, 2, 76, 100
4, 49440, Note_on_c, 2, 76, 100
4, 49440, Note_on_c, 2, 72, 100
4, 49440, Note_on_c, 2, 67, 100
4, 49440, Note_on_c, 2, 60, 100
4, 49760, Note_off_c, 2, 60, 100
4, 49760, Note_off_c, 2, 67, 100
4, 49760, Note_off_c, 2, 72, 100
4, 49760, Note_off_c, 2, 76, 100
4, 49920, Note_on_c, 2, 55, 100
4, 49920, Note_on_c, 2, 62, 100
4, 50240, Note_off_c, 2, 62, 100
4, 50240, Note_off_c, 2, 55, 100
4, 50400, Note_on_c, 2, 67, 100
4, 50400, Note_on_c, 2, 62, 100
4, 50560, Note_off_c, 2, 62, 100
4, 50560, Note_off_c, 2, 67, 100
4, 50640, Note_on_c, 2, 62, 100
4, 50800, Note_off_c, 2, 62, 100
4, 50880, Note_on_c, 2, 67, 100
4, 51040, Note_off_c, 2, 67, 100
4, 51120, Note_on_c, 2, 65, 100
4, 51280, Note_off_c, 2, 65, 100
4, 51360, Note_on_c, 2, 62, 100
4, 51360, Note_on_c, 2, 55, 100
4, 51520, Note_off_c, 2, 55, 100
4, 51520, Note_off_c, 2, 62, 100
4, 51600, Note_on_c, 2, 72, 100
4, 51600, Note_on_c, 2, 62, 100
4, 52080, Note_off_c, 2, 62, 64
4, 52080, Note_off_c, 2, 72, 64
4, 52080, Note_on_c, 2, 71, 100
4, 52080, Note_on_c, 2, 65, 100
4, 52400, Note_off_c, 2, 65, 100
4, 52400, Note_off_c, 2, 71, 100
4, 52560, Note_on_c, 2, 69, 100
4, 52560, Note_on_c, 2, 62, 100
4, 52880, Note_off_c, 2, 62, 100
4, 52880, Note_off_c, 2, 69, 100
4, 53040, Note_on_c, 2, 71, 100
4, 53040, Note_on_c, 2, 65, 100
4, 53200, Note_off_c, 2, 65, 100
4, 53200, Note_off_c, 2, 71, 100
4, 53280, Note_on_c, 2, 69, 100
4, 53280, Note_on_c, 2, 62, 100
4, 53600, Note_off_c, 2, 62, 100
4, 53600, Note_off_c, 2, 69, 100
4, 53760, Note_on_c, 2, 55, 100
4, 53760, Note_on_c, 2, 62, 100
4, 53760, Note_on_c, 2, 67, 100
4, 53760, Note_on_c, 2, 71, 100
4, 53760, Note_on_c, 2, 74, 100
4, 53760, Note_on_c, 2, 79, 100
4, 54400, Note_off_c, 2, 79, 100
4, 54400, Note_off_c, 2, 74, 100
4, 54400, Note_off_c, 2, 71, 100
4, 54400, Note_off_c, 2, 67, 100
4, 54400, Note_off_c, 2, 62, 100
4, 54400, Note_off_c, 2, 55, 100
4, 54720, Note_on_c, 2, 79, 100
4, 54720, Note_on_c, 2, 74, 100
4, 54720, Note_on_c, 2, 71, 100
4, 54720, Note_on_c, 2, 67, 100
4, 54720, Note_on_c, 2, 62, 100
4, 54720, Note_on_c, 2, 55, 100
4, 55040, Note_off_c, 2, 55, 100
4, 55040, Note_off_c, 2, 62, 100
4, 55040, Note_off_c, 2, 67, 100
4, 55040, Note_off_c, 2, 71, 100
4, 55040, Note_off_c, 2, 74, 100
4, 55040, Note_off_c, 2, 79, 100
4, 55200, Note_on_c, 2, 79, 100
4, 55200, Note_on_c, 2, 74, 100
4, 55200, Note_on_c, 2, 71, 100
4, 55200, Note_on_c, 2, 67, 100
4, 55200, Note_on_c, 2, 62, 100
4, 55200, Note_on_c, 2, 55, 100
4, 55520, Note_off_c, 2, 55, 100
4, 55520, Note_off_c, 2, 62, 100
4, 55520, Note_off_c, 2, 67, 100
4, 55520, Note_off_c, 2, 71, 100
4, 55520, Note_off_c, 2, 74, 100
4, 55520, Note_off_c, 2, 79, 100
4, 55680, Note_on_c, 2, 59, 100
4, 55680, Note_on_c, 2, 66, 100
4, 55680, Note_on_c, 2, 71, 100
4, 55680, Note_on_c, 2, 74, 100
4, 56320, Note_off_c, 2, 74, 100
4, 56320, Note_off_c, 2, 71, 100
4, 56320, Note_off_c, 2, 66, 100
4, 56320, Note_off_c, 2, 59, 100
4, 56640, Note_on_c, 2, 59, 100
4, 56640, Note_on_c, 2, 66, 100
4, 56640, Note_on_c, 2, 71, 100
4, 56640, Note_on_c, 2, 74, 100
4, 57120, Note_on_c, 2, 74, 100
4, 57120, Note_on_c, 2, 71, 100
4, 57120, Note_on_c, 2, 66, 100
4, 57120, Note_on_c, 2, 59, 100
4, 57280, Note_off_c, 2, 74, 100
4, 57280, Note_off_c, 2, 71, 100
4, 57280, Note_off_c, 2, 66, 100
4, 57280, Note_off_c, 2, 59, 100
4, 57440, Note_off_c, 2, 74, 100
4, 57440, Note_off_c, 2, 71, 100
4, 57440, Note_off_c, 2, 66, 100
4, 57440, Note_off_c, 2, 59, 100
4, 57600, Note_on_c, 2, 60, 100
4, 57600, Note_on_c, 2, 67, 100
4, 57600, Note_on_c, 2, 72, 100
4, 57600, Note_on_c, 2, 76, 100
4, 58240, Note_off_c, 2, 76, 100
4, 58240, Note_off_c, 2, 72, 100
4, 58240, Note_off_c, 2, 67, 100
4, 58240, Note_off_c, 2, 60, 100
4, 58560, Note_on_c, 2, 76, 100
4, 58560, Note_on_c, 2, 72, 100
4, 58560, Note_on_c, 2, 67, 100
4, 58560, Note_on_c, 2, 60, 100
4, 58880, Note_off_c, 2, 60, 100
4, 58880, Note_off_c, 2, 67, 100
4, 58880, Note_off_c, 2, 72, 100
4, 58880, Note_off_c, 2, 76, 100
4, 59040, Note_on_c, 2, 76, 100
4, 59040, Note_on_c, 2, 72, 100
4, 59040, Note_on_c, 2, 67, 100
4, 59040, Note_on_c, 2, 60, 100
4, 59360, Note_off_c, 2, 60, 100
4, 59360, Note_off_c, 2, 67, 100
4, 59360, Note_off_c, 2, 72, 100
4, 59360, Note_off_c, 2, 76, 100
4, 59520, Note_on_c, 2, 62, 100
4, 59520, Note_on_c, 2, 69, 100
4, 59520, Note_on_c, 2, 74, 100
4, 59520, Note_on_c, 2, 78, 100
4, 60160, Note_off_c, 2, 78, 100
4, 60160, Note_off_c, 2, 74, 100
4, 60160, Note_off_c, 2, 69, 100
4, 60160, Note_off_c, 2, 62, 100
4, 60480, Note_on_c, 2, 78, 100
4, 60480, Note_on_c, 2, 74, 100
4, 60480, Note_on_c, 2, 69, 100
4, 60480, Note_on_c, 2, 62, 100
4, 60800, Note_off_c, 2, 62, 100
4, 60800, Note_off_c, 2, 69, 100
4, 60800, Note_off_c, 2, 74, 100
4, 60800, Note_off_c, 2, 78, 100
4, 60960, Note_on_c, 2, 78, 100
4, 60960, Note_on_c, 2, 74, 100
4, 60960, Note_on_c, 2, 69, 100
4, 60960, Note_on_c, 2, 62, 100
4, 61280, Note_off_c, 2, 62, 100
4, 61280, Note_off_c, 2, 69, 100
4, 61280, Note_off_c, 2, 74, 100
4, 61280, Note_off_c, 2, 78, 100
4, 61440, Note_on_c, 2, 55, 100
4, 61440, Note_on_c, 2, 62, 100
4, 61440, Note_on_c, 2, 67, 100
4, 61440, Note_on_c, 2, 71, 100
4, 61440, Note_on_c, 2, 74, 100
4, 61440, Note_on_c, 2, 79, 100
4, 62080, Note_off_c, 2, 79, 100
4, 62080, Note_off_c, 2, 74, 100
4, 62080, Note_off_c, 2, 71, 100
4, 62080, Note_off_c, 2, 67, 100
4, 62080, Note_off_c, 2, 62, 100
4, 62080, Note_off_c, 2, 55, 100
4, 62400, Note_on_c, 2, 79, 100
4, 62400, Note_on_c, 2, 74, 100
4, 62400, Note_on_c, 2, 71, 100
4, 62400, Note_on_c, 2, 67, 100
4, 62400, Note_on_c, 2, 62, 100
4, 62400, Note_on_c, 2, 55, 100
4, 62720, Note_off_c, 2, 55, 100
4, 62720, Note_off_c, 2, 62, 100
4, 62720, Note_off_c, 2, 67, 100
4, 62720, Note_off_c, 2, 71, 100
4, 62720, Note_off_c, 2, 74, 100
4, 62720, Note_off_c, 2, 79, 100
4, 62880, Note_on_c, 2, 79, 100
4, 62880, Note_on_c, 2, 74, 100
4, 62880, Note_on_c, 2, 71, 100
4, 62880, Note_on_c, 2, 67, 100
4, 62880, Note_on_c, 2, 62, 100
4, 62880, Note_on_c, 2, 55, 100
4, 63200, Note_off_c, 2, 55, 100
4, 63200, Note_off_c, 2, 62, 100
4, 63200, Note_off_c, 2, 67, 100
4, 63200, Note_off_c, 2, 71, 100
4, 63200, Note_off_c, 2, 74, 100
4, 63200, Note_off_c, 2, 79, 100
4, 63360, Note_on_c, 2, 59, 100
4, 63360, Note_on_c, 2, 66, 100
4, 63360, Note_on_c, 2, 71, 100
4, 63360, Note_on_c, 2, 74, 100
4, 64000, Note_off_c, 2, 74, 100
4, 64000, Note_off_c, 2, 71, 100
4, 64000, Note_off_c, 2, 66, 100
4, 64000, Note_off_c, 2, 59, 100
4, 64320, Note_on_c, 2, 59, 100
4, 64320, Note_on_c, 2, 66, 100
4, 64320, Note_on_c, 2, 71, 100
4, 64320, Note_on_c, 2, 74, 100
4, 64800, Note_on_c, 2, 74, 100
4, 64800, Note_on_c, 2, 71, 100
4, 64800, Note_on_c, 2, 66, 100
4, 64800, Note_on_c, 2, 59, 100
4, 64960, Note_off_c, 2, 74, 100
4, 64960, Note_off_c, 2, 71, 100
4, 64960, Note_off_c, 2, 66, 100
4, 64960, Note_off_c, 2, 59, 100
4, 65120, Note_off_c, 2, 74, 100
4, 65120, Note_off_c, 2, 71, 100
4, 65120, Note_off_c, 2, 66, 100
4, 65120, Note_off_c, 2, 59, 100
4, 65280, Note_on_c, 2, 57, 100
4, 65280, Note_on_c, 2, 64, 100
4, 65280, Note_on_c, 2, 69, 100
4, 65280, Note_on_c, 2, 72, 100
4, 65280, Note_on_c, 2, 76, 100
4, 65920, Note_off_c, 2, 76, 100
4, 65920, Note_off_c, 2, 72, 100
4, 65920, Note_off_c, 2, 69, 100
4, 65920, Note_off_c, 2, 64, 100
4, 65920, Note_off_c, 2, 57, 100
4, 66240, Note_on_c, 2, 76, 100
4, 66240, Note_on_c, 2, 72, 100
4, 66240, Note_on_c, 2, 69, 100
4, 66240, Note_on_c, 2, 64, 100
4, 66240, Note_on_c, 2, 57, 100
4, 66560, Note_off_c, 2, 57, 100
4, 66560, Note_off_c, 2, 64, 100
4, 66560, Note_off_c, 2, 69, 100
4, 66560, Note_off_c, 2, 72, 100
4, 66560, Note_off_c, 2, 76, 100
4, 66720, Note_on_c, 2, 76, 100
4, 66720, Note_on_c, 2, 72, 100
4, 66720, Note_on_c, 2, 69, 100
4, 66720, Note_on_c, 2, 64, 100
4, 66720, Note_on_c, 2, 57, 100
4, 67040, Note_off_c, 2, 57, 100
4, 67040, Note_off_c, 2, 64, 100
4, 67040, Note_off_c, 2, 69, 100
4, 67040, Note_off_c, 2, 72, 100
4, 67040, Note_off_c, 2, 76, 100
4, 67200, Note_on_c, 2, 62, 100
4, 67200, Note_on_c, 2, 69, 100
4, 67200, Note_on_c, 2, 74, 100
4, 67200, Note_on_c, 2, 78, 100
4, 67840, Note_off_c, 2, 78, 100
4, 67840, Note_off_c, 2, 74, 100
4, 67840, Note_off_c, 2, 69, 100
4, 67840, Note_off_c, 2, 62, 100
4, 68160, Note_on_c, 2, 78, 100
4, 68160, Note_on_c, 2, 74, 100
4, 68160, Note_on_c, 2, 69, 100
4, 68160, Note_on_c, 2, 62, 100
4, 68480, Note_off_c, 2, 62, 100
4, 68480, Note_off_c, 2, 69, 100
4, 68480, Note_off_c, 2, 74, 100
4, 68480, Note_off_c, 2, 78, 100
4, 68640, Note_on_c, 2, 78, 100
4, 68640, Note_on_c, 2, 74, 100
4, 68640, Note_on_c, 2, 69, 100
4, 68640, Note_on_c, 2, 62, 100
4, 68960, Note_off_c, 2, 62, 100
4, 68960, Note_off_c, 2, 69, 100
4, 68960, Note_off_c, 2, 74, 100
4, 68960, Note_off_c, 2, 78, 100
4, 69120, Note_on_c, 2, 55, 100
4, 69120, Note_on_c, 2, 62, 100
4, 69440, Note_off_c, 2, 62, 100
4, 69440, Note_off_c, 2, 55, 100
4, 69600, Note_on_c, 2, 67, 100
4, 69600, Note_on_c, 2, 62, 100
4, 69760, Note_off_c, 2, 62, 100
4, 69760, Note_off_c, 2, 67, 100
4, 69840, Note_on_c, 2, 62, 100
4, 70000, Note_off_c, 2, 62, 100
4, 70080, Note_on_c, 2, 67, 100
4, 70240, Note_off_c, 2, 67, 100
4, 70320, Note_on_c, 2, 65, 100
4, 70480, Note_off_c, 2, 65, 100
4, 70560, Note_on_c, 2, 62, 100
4, 70560, Note_on_c, 2, 55, 100
4, 70720, Note_off_c, 2, 55, 100
4, 70720, Note_off_c, 2, 62, 100
4, 70800, Note_on_c, 2, 72, 100
4, 70800, Note_on_c, 2, 62, 100
4, 71280, Note_off_c, 2, 62, 64
4, 71280, Note_off_c, 2, 72, 64
4, 71280, Note_on_c, 2, 71, 100
4, 71280, Note_on_c, 2, 65, 100
4, 71600, Note_off_c, 2, 65, 100
4, 71600, Note_off_c, 2, 71, 100
4, 71760, Note_on_c, 2, 69, 100
4, 71760, Note_on_c, 2, 62, 100
4, 72080, Note_off_c, 2, 62, 100
4, 72080, Note_off_c, 2, 69, 100
4, 72240, Note_on_c, 2, 71, 100
4, 72240, Note_on_c, 2, 65, 100
4, 72400, Note_off_c, 2, 65, 100
4, 72400, Note_off_c, 2, 71, 100
4, 72480, Note_on_c, 2, 69, 100
4, 72480, Note_on_c, 2, 62, 100
4, 72800, Note_off_c, 2, 62, 100
4, 72800, Note_off_c, 2, 69, 100
4, 72960, Note_on_c, 2, 55, 100
4, 72960, Note_on_c, 2, 62, 100
4, 73280, Note_off_c, 2, 62, 100
4, 73280, Note_off_c, 2, 55, 100
4, 73440, Note_on_c, 2, 67, 100
4, 73440, Note_on_c, 2, 62, 100
4, 73600, Note_off_c, 2, 62, 100
4, 73600, Note_off_c, 2, 67, 100
4, 73680, Note_on_c, 2, 62, 100
4, 73840, Note_off_c, 2, 62, 100
4, 73920, Note_on_c, 2, 67, 100
4, 74080, Note_off_c, 2, 67, 100
4, 74160, Note_on_c, 2, 65, 100
4, 74320, Note_off_c, 2, 65, 100
4, 74400, Note_on_c, 2, 62, 100
4, 74400, Note_on_c, 2, 55, 100
4, 74560, Note_off_c, 2, 55, 100
4, 74560, Note_off_c, 2, 62, 100
4, 74640, Note_on_c, 2, 72, 100
4, 74640, Note_on_c, 2, 62, 100
4, 75120, Note_off_c, 2, 62, 64
4, 75120, Note_off_c, 2, 72, 64
4, 75120, Note_on_c, 2, 71, 100
4, 75120, Note_on_c, 2, 65, 100
4, 75440, Note_off_c, 2, 65, 100
4, 75440, Note_off_c, 2, 71, 100
4, 75600, Note_on_c, 2, 69, 100
4, 75600, Note_on_c, 2, 62, 100
4, 75920, Note_off_c, 2, 62, 100
4, 75920, Note_off_c, 2, 69, 100
4, 76080, Note_on_c, 2, 71, 100
4, 76080, Note_on_c, 2, 65, 100
4, 76240, Note_off_c, 2, 65, 100
4, 76240, Note_off_c, 2, 71, 100
4, 76320, Note_on_c, 2, 69, 100
4, 76320, Note_on_c, 2, 62, 100
4, 76640, Note_off_c, 2, 62, 100
4, 76640, Note_off_c, 2, 69, 100
4, 76800, Note_on_c, 2, 62, 100
4, 77120, Note_off_c, 2, 62, 100
4, 77280, Note_on_c, 2, 74, 100
4, 77600, Note_off_c, 2, 74, 100
4, 77760, Note_on_c, 2, 74, 100
4, 77920, Note_off_c, 2, 74, 100
4, 78000, Note_on_c, 2, 72, 100
4, 78160, Note_off_c, 2, 72, 100
4, 78240, Note_on_c, 2, 69, 100
4, 78240, Note_on_c, 2, 62, 100
4, 78400, Note_off_c, 2, 62, 100
4, 78400, Note_off_c, 2, 69, 100
4, 78480, Note_on_c, 2, 79, 100
4, 78480, Note_on_c, 2, 69, 100
4, 78960, Note_off_c, 2, 69, 64
4, 78960, Note_off_c, 2, 79, 64
4, 78960, Note_on_c, 2, 69, 100
4, 78960, Note_on_c, 2, 78, 100
4, 79280, Note_off_c, 2, 78, 100
4, 79280, Note_off_c, 2, 69, 100
4, 79440, Note_on_c, 2, 76, 100
4, 79440, Note_on_c, 2, 69, 100
4, 79760, Note_off_c, 2, 69, 100
4, 79760, Note_off_c, 2, 76, 100
4, 79920, Note_on_c, 2, 78, 100
4, 79920, Note_on_c, 2, 72, 100
4, 80080, Note_off_c, 2, 72, 100
4, 80080, Note_off_c, 2, 78, 100
4, 80160, Note_on_c, 2, 76, 100
4, 80160, Note_on_c, 2, 69, 100
4, 80480, Note_off_c, 2, 69, 100
4, 80480, Note_off_c, 2, 76, 100
4, 80640, Note_on_c, 2, 62, 100
4, 80640, Note_on_c, 2, 69, 100
4, 80640, Note_on_c, 2, 74, 100
4, 80640, Note_on_c, 2, 78, 100
4, 81280, Note_off_c, 2, 78, 100
4, 81280, Note_off_c, 2, 74, 100
4, 81280, Note_off_c, 2, 69, 100
4, 81280, Note_off_c, 2, 62, 100
4, 81600, Note_on_c, 2, 62, 100
4, 81600, Note_on_c, 2, 69, 100
4, 81600, Note_on_c, 2, 74, 100
4, 81600, Note_on_c, 2, 78, 100
4, 82080, Note_on_c, 2, 62, 100
4, 82080, Note_on_c, 2, 69, 100
4, 82080, Note_on_c, 2, 74, 100
4, 82080, Note_on_c, 2, 78, 100
4, 82240, Note_off_c, 2, 78, 100
4, 82240, Note_off_c, 2, 74, 100
4, 82240, Note_off_c, 2, 69, 100
4, 82240, Note_off_c, 2, 62, 100
4, 82560, Note_off_c, 2, 62, 100
4, 82560, Note_off_c, 2, 69, 100
4, 82560, Note_off_c, 2, 74, 100
4, 82560, Note_off_c, 2, 78, 100
4, 82560, Note_on_c, 2, 60, 100
4, 82560, Note_on_c, 2, 67, 100
4, 82560, Note_on_c, 2, 72, 100
4, 82560, Note_on_c, 2, 76, 100
4, 83200, Note_off_c, 2, 76, 100
4, 83200, Note_off_c, 2, 72, 100
4, 83200, Note_off_c, 2, 67, 100
4, 83200, Note_off_c, 2, 60, 100
4, 83520, Note_on_c, 2, 76, 100
4, 83520, Note_on_c, 2, 72, 100
4, 83520, Note_on_c, 2, 67, 100
4, 83520, Note_on_c, 2, 60, 100
4, 83840, Note_off_c, 2, 60, 100
4, 83840, Note_off_c, 2, 67, 100
4, 83840, Note_off_c, 2, 72, 100
4, 83840, Note_off_c, 2, 76, 100
4, 84000, Note_on_c, 2, 76, 100
4, 84000, Note_on_c, 2, 72, 100
4, 84000, Note_on_c, 2, 67, 100
4, 84000, Note_on_c, 2, 60, 100
4, 84320, Note_off_c, 2, 60, 100
4, 84320, Note_off_c, 2, 67, 100
4, 84320, Note_off_c, 2, 72, 100
4, 84320, Note_off_c, 2, 76, 100
4, 84480, Note_on_c, 2, 55, 100
4, 84480, Note_on_c, 2, 62, 100
4, 84800, Note_off_c, 2, 62, 100
4, 84800, Note_off_c, 2, 55, 100
4, 84960, Note_on_c, 2, 67, 100
4, 84960, Note_on_c, 2, 62, 100
4, 85120, Note_off_c, 2, 62, 100
4, 85120, Note_off_c, 2, 67, 100
4, 85200, Note_on_c, 2, 62, 100
4, 85360, Note_off_c, 2, 62, 100
4, 85440, Note_on_c, 2, 67, 100
4, 85600, Note_off_c, 2, 67, 100
4, 85680, Note_on_c, 2, 65, 100
4, 85840, Note_off_c, 2, 65, 100
4, 85920, Note_on_c, 2, 62, 100
4, 85920, Note_on_c, 2, 55, 100
4, 86080, Note_off_c, 2, 55, 100
4, 86080, Note_off_c, 2, 62, 100
4, 86160, Note_on_c, 2, 72, 100
4, 86160, Note_on_c, 2, 62, 100
4, 86640, Note_off_c, 2, 62, 64
4, 86640, Note_off_c, 2, 72, 64
4, 86640, Note_on_c, 2, 71, 100
4, 86640, Note_on_c, 2, 65, 100
4, 86960, Note_off_c, 2, 65, 100
4, 86960, Note_off_c, 2, 71, 100
4, 87120, Note_on_c, 2, 69, 100
4, 87120, Note_on_c, 2, 62, 100
4, 87440, Note_off_c, 2, 62, 100
4, 87440, Note_off_c, 2, 69, 100
4, 87600, Note_on_c, 2, 71, 100
4, 87600, Note_on_c, 2, 65, 100
4, 87760, Note_off_c, 2, 65, 100
4, 87760, Note_off_c, 2, 71, 100
4, 87840, Note_on_c, 2, 69, 100
4, 87840, Note_on_c, 2, 62, 100
4, 88160, Note_off_c, 2, 62, 100
4, 88160, Note_off_c, 2, 69, 100
4, 96000, Note_on_c, 2, 62, 100
4, 96320, Note_off_c, 2, 62, 100
4, 96480, Note_on_c, 2, 74, 100
4, 96800, Note_off_c, 2, 74, 100
4, 96960, Note_on_c, 2, 74, 100
4, 97120, Note_off_c, 2, 74, 100
4, 97200, Note_on_c, 2, 72, 100
4, 97360, Note_off_c, 2, 72, 100
4, 97440, Note_on_c, 2, 69, 100
4, 97440, Note_on_c, 2, 62, 100
4, 97600, Note_off_c, 2, 62, 100
4, 97600, Note_off_c, 2, 69, 100
4, 97680, Note_on_c, 2, 79, 100
4, 97680, Note_on_c, 2, 69, 100
4, 98160, Note_off_c, 2, 69, 64
4, 98160, Note_off_c, 2, 79, 64
4, 98160, Note_on_c, 2, 69, 100
4, 98160, Note_on_c, 2, 78, 100
4, 98480, Note_off_c, 2, 78, 100
4, 98480, Note_off_c, 2, 69, 100
4, 98640, Note_on_c, 2, 76, 100
4, 98640, Note_on_c, 2, 69, 100
4, 98960, Note_off_c, 2, 69, 100
4, 98960, Note_off_c, 2, 76, 100
4, 99120, Note_on_c, 2, 78, 100
4, 99120, Note_on_c, 2, 72, 100
4, 99280, Note_off_c, 2, 72, 100
4, 99280, Note_off_c, 2, 78, 100
4, 99360, Note_on_c, 2, 76, 100
4, 99360, Note_on_c, 2, 69, 100
4, 99680, Note_off_c, 2, 69, 100
4, 99680, Note_off_c, 2, 76, 100
4, 111360, Note_on_c, 2, 55, 100
4, 111360, Note_on_c, 2, 62, 100
4, 111680, Note_off_c, 2, 62, 100
4, 111680, Note_off_c, 2, 55, 100
4, 111840, Note_on_c, 2, 67, 100
4, 111840, Note_on_c, 2, 62, 100
4, 112000, Note_off_c, 2, 62, 100
4, 112000, Note_off_c, 2, 67, 100
4, 112080, Note_on_c, 2, 62, 100
4, 112240, Note_off_c, 2, 62, 100
4, 112320, Note_on_c, 2, 67, 100
4, 112480, Note_off_c, 2, 67, 100
4, 112560, Note_on_c, 2, 65, 100
4, 112720, Note_off_c, 2, 65, 100
4, 112800, Note_on_c, 2, 62, 100
4, 112800, Note_on_c, 2, 55, 100
4, 112960, Note_off_c, 2, 55, 100
4, 112960, Note_off_c, 2, 62, 100
4, 113040, Note_on_c, 2, 72, 100
4, 113040, Note_on_c, 2, 62, 100
4, 113520, Note_off_c, 2, 62, 64
4, 113520, Note_off_c, 2, 72, 64
4, 113520, Note_on_c, 2, 71, 100
4, 113520, Note_on_c, 2, 65, 100
4, 113840, Note_off_c, 2, 65, 100
4, 113840, Note_off_c, 2, 71, 100
4, 114000, Note_on_c, 2, 69, 100
4, 114000, Note_on_c, 2, 62, 100
4, 114320, Note_off_c, 2, 62, 100
4, 114320, Note_off_c, 2, 69, 100
4, 114480, Note_on_c, 2, 71, 100
4, 114480, Note_on_c, 2, 65, 100
4, 114640, Note_off_c, 2, 65, 100
4, 114640, Note_off_c, 2, 71, 100
4, 114720, Note_on_c, 2, 69, 100
4, 114720, Note_on_c, 2, 62, 100
4, 115040, Note_off_c, 2, 62, 100
4, 115040, Note_off_c, 2, 69, 100
4, 115200, Note_on_c, 2, 55, 100
4, 115200, Note_on_c, 2, 62, 100
4, 115520, Note_off_c, 2, 62, 100
4, 115520, Note_off_c, 2, 55, 100
4, 115680, Note_on_c, 2, 67, 100
4, 115680, Note_on_c, 2, 62, 100
4, 115840, Note_off_c, 2, 62, 100
4, 115840, Note_off_c, 2, 67, 100
4, 115920, Note_on_c, 2, 62, 100
4, 116080, Note_off_c, 2, 62, 100
4, 116160, Note_on_c, 2, 67, 100
4, 116320, Note_off_c, 2, 67, 100
4, 116400, Note_on_c, 2, 65, 100
4, 116560, Note_off_c, 2, 65, 100
4, 116640, Note_on_c, 2, 62, 100
4, 116640, Note_on_c, 2, 55, 100
4, 116800, Note_off_c, 2, 55, 100
4, 116800, Note_off_c, 2, 62, 100
4, 116880, Note_on_c, 2, 72, 100
4, 116880, Note_on_c, 2, 62, 100
4, 117360, Note_off_c, 2, 62, 64
4, 117360, Note_off_c, 2, 72, 64
4, 117360, Note_on_c, 2, 71, 100
4, 117360, Note_on_c, 2, 65, 100
4, 117680, Note_off_c, 2, 65, 100
4, 117680, Note_off_c, 2, 71, 100
4, 117840, Note_on_c, 2, 69, 100
4, 117840, Note_on_c, 2, 62, 100
4, 118160, Note_off_c, 2, 62, 100
4, 118160, Note_off_c, 2, 69, 100
4, 118320, Note_on_c, 2, 71, 100
4, 118320, Note_on_c, 2, 65, 100
4, 118480, Note_off_c, 2, 65, 100
4, 118480, Note_off_c, 2, 71, 100
4, 118560, Note_on_c, 2, 69, 100
4, 118560, Note_on_c, 2, 62, 100
4, 118880, Note_off_c, 2, 62, 100
4, 118880, Note_off_c, 2, 69, 100
4, 119040, Note_on_c, 2, 55, 100
4, 119040, Note_on_c, 2, 62, 100
4, 119360, Note_off_c, 2, 62, 100
4, 119360, Note_off_c, 2, 55, 100
4, 119520, Note_on_c, 2, 67, 100
4, 119520, Note_on_c, 2, 62, 100
4, 119680, Note_off_c, 2, 62, 100
4, 119680, Note_off_c, 2, 67, 100
4, 119760, Note_on_c, 2, 62, 100
4, 119920, Note_off_c, 2, 62, 100
4, 120000, Note_on_c, 2, 67, 100
4, 120160, Note_off_c, 2, 67, 100
4, 120240, Note_on_c, 2, 65, 100
4, 120400, Note_off_c, 2, 65, 100
4, 120480, Note_on_c, 2, 62, 100
4, 120480, Note_on_c, 2, 55, 100
4, 120640, Note_off_c, 2, 55, 100
4, 120640, Note_off_c, 2, 62, 100
4, 120720, Note_on_c, 2, 72, 100
4, 120720, Note_on_c, 2, 62, 100
4, 121200, Note_off_c, 2, 62, 64
4, 121200, Note_off_c, 2, 72, 64
4, 121200, Note_on_c, 2, 71, 100
4, 121200, Note_on_c, 2, 65, 100
4, 121520, Note_off_c, 2, 65, 100
4, 121520, Note_off_c, 2, 71, 100
4, 121680, Note_on_c, 2, 69, 100
4, 121680, Note_on_c, 2, 62, 100
4, 122000, Note_off_c, 2, 62, 100
4, 122000, Note_off_c, 2, 69, 100
4, 122160, Note_on_c, 2, 71, 100
4, 122160, Note_on_c, 2, 65, 100
4, 122320, Note_off_c, 2, 65, 100
4, 122320, Note_off_c, 2, 71, 100
4, 122400, Note_on_c, 2, 69, 100
4, 122400, Note_on_c, 2, 62, 100
4, 122720, Note_off_c, 2, 62, 100
4, 122720, Note_off_c, 2, 69, 100
4, 122880, Note_on_c, 2, 55, 100
4, 122880, Note_on_c, 2, 62, 100
4, 123200, Note_off_c, 2, 62, 100
4, 123200, Note_off_c, 2, 55, 100
4, 123360, Note_on_c, 2, 67, 100
4, 123360, Note_on_c, 2, 62, 100
4, 123520, Note_off_c, 2, 62, 100
4, 123520, Note_off_c, 2, 67, 100
4, 123600, Note_on_c, 2, 62, 100
4, 123760, Note_off_c, 2, 62, 100
4, 123840, Note_on_c, 2, 67, 100
4, 124000, Note_off_c, 2, 67, 100
4, 124080, Note_on_c, 2, 65, 100
4, 124240, Note_off_c, 2, 65, 100
4, 124320, Note_on_c, 2, 62, 100
4, 124320, Note_on_c, 2, 55, 100
4, 124480, Note_off_c, 2, 55, 100
4, 124480, Note_off_c, 2, 62, 100
4, 124560, Note_on_c, 2, 72, 100
4, 124560, Note_on_c, 2, 62, 100
4, 125040, Note_off_c, 2, 62, 64
4, 125040, Note_off_c, 2, 72, 64
4, 125040, Note_on_c, 2, 71, 100
4, 125040, Note_on_c, 2, 65, 100
4, 125360, Note_off_c, 2, 65, 100
4, 125360, Note_off_c, 2, 71, 100
4, 125520, Note_on_c, 2, 69, 100
4, 125520, Note_on_c, 2, 62, 100
4, 125840, Note_off_c, 2, 62, 100
4, 125840, Note_off_c, 2, 69, 100
4, 126000, Note_on_c, 2, 71, 100
4, 126000, Note_on_c, 2, 65, 100
4, 126160, Note_off_c, 2, 65, 100
4, 126160, Note_off_c, 2, 71, 100
4, 126240, Note_on_c, 2, 69, 100
4, 126240, Note_on_c, 2, 62, 100
4, 126560, Note_off_c, 2, 62, 100
4, 126560, Note_off_c, 2, 69, 100
4, 126720, Note_on_c, 2, 62, 100
4, 127040, Note_off_c, 2, 62, 100
4, 127200, Note_on_c, 2, 74, 100
4, 127520, Note_off_c, 2, 74, 100
4, 127680, Note_on_c, 2, 74, 100
4, 127840, Note_off_c, 2, 74, 100
4, 127920, Note_on_c, 2, 72, 100
4, 128080, Note_off_c, 2, 72, 100
4, 128160, Note_on_c, 2, 69, 100
4, 128160, Note_on_c, 2, 62, 100
4, 128320, Note_off_c, 2, 62, 100
4, 128320, Note_off_c, 2, 69, 100
4, 128400, Note_on_c, 2, 79, 100
4, 128400, Note_on_c, 2, 69, 100
4, 128880, Note_off_c, 2, 69, 64
4, 128880, Note_off_c, 2, 79, 64
4, 128880, Note_on_c, 2, 69, 100
4, 128880, Note_on_c, 2, 78, 100
4, 129200, Note_off_c, 2, 78, 100
4, 129200, Note_off_c, 2, 69, 100
4, 129360, Note_on_c, 2, 76, 100
4, 129360, Note_on_c, 2, 69, 100
4, 129680, Note_off_c, 2, 69, 100
4, 129680, Note_off_c, 2, 76, 100
4, 129840, Note_on_c, 2, 78, 100
4, 129840, Note_on_c, 2, 72, 100
4, 130000, Note_off_c, 2, 72, 100
4, 130000, Note_off_c, 2, 78, 100
4, 130080, Note_on_c, 2, 76, 100
4, 130080, Note_on_c, 2, 69, 100
4, 130400, Note_off_c, 2, 69, 100
4, 130400, Note_off_c, 2, 76, 100
4, 130560, Note_on_c, 2, 62, 100
4, 130560, Note_on_c, 2, 69, 100
4, 130560, Note_on_c, 2, 74, 100
4, 130560, Note_on_c, 2, 78, 100
4, 131200, Note_off_c, 2, 78, 100
4, 131200, Note_off_c, 2, 74, 100
4, 131200, Note_off_c, 2, 69, 100
4, 131200, Note_off_c, 2, 62, 100
4, 131520, Note_on_c, 2, 62, 100
4, 131520, Note_on_c, 2, 69, 100
4, 131520, Note_on_c, 2, 74, 100
4, 131520, Note_on_c, 2, 78, 100
4, 132000, Note_on_c, 2, 62, 100
4, 132000, Note_on_c, 2, 69, 100
4, 132000, Note_on_c, 2, 74, 100
4, 132000, Note_on_c, 2, 78, 100
4, 132160, Note_off_c, 2, 78, 100
4, 132160, Note_off_c, 2, 74, 100
4, 132160, Note_off_c, 2, 69, 100
4, 132160, Note_off_c, 2, 62, 100
4, 132480, Note_off_c, 2, 62, 100
4, 132480, Note_off_c, 2, 69, 100
4, 132480, Note_off_c, 2, 74, 100
4, 132480, Note_off_c, 2, 78, 100
4, 132480, Note_on_c, 2, 60, 100
4, 132480, Note_on_c, 2, 67, 100
4, 132480, Note_on_c, 2, 72, 100
4, 132480, Note_on_c, 2, 76, 100
4, 133120, Note_off_c, 2, 76, 100
4, 133120, Note_off_c, 2, 72, 100
4, 133120, Note_off_c, 2, 67, 100
4, 133120, Note_off_c, 2, 60, 100
4, 133440, Note_on_c, 2, 76, 100
4, 133440, Note_on_c, 2, 72, 100
4, 133440, Note_on_c, 2, 67, 100
4, 133440, Note_on_c, 2, 60, 100
4, 133760, Note_off_c, 2, 60, 100
4, 133760, Note_off_c, 2, 67, 100
4, 133760, Note_off_c, 2, 72, 100
4, 133760, Note_off_c, 2, 76, 100
4, 133920, Note_on_c, 2, 76, 100
4, 133920, Note_on_c, 2, 72, 100
4, 133920, Note_on_c, 2, 67, 100
4, 133920, Note_on_c, 2, 60, 100
4, 134240, Note_off_c, 2, 60, 100
4, 134240, Note_off_c, 2, 67, 100
4, 134240, Note_off_c, 2, 72, 100
4, 134240, Note_off_c, 2, 76, 100
4, 134400, Note_on_c, 2, 55, 100
4, 134400, Note_on_c, 2, 62, 100
4, 134720, Note_off_c, 2, 62, 100
4, 134720, Note_off_c, 2, 55, 100
4, 134880, Note_on_c, 2, 67, 100
4, 134880, Note_on_c, 2, 62, 100
4, 135040, Note_off_c, 2, 62, 100
4, 135040, Note_off_c, 2, 67, 100
4, 135120, Note_on_c, 2, 62, 100
4, 135280, Note_off_c, 2, 62, 100
4, 135360, Note_on_c, 2, 67, 100
4, 135520, Note_off_c, 2, 67, 100
4, 135600, Note_on_c, 2, 65, 100
4, 135760, Note_off_c, 2, 65, 100
4, 135840, Note_on_c, 2, 62, 100
4, 135840, Note_on_c, 2, 55, 100
4, 136000, Note_off_c, 2, 55, 100
4, 136000, Note_off_c, 2, 62, 100
4, 136080, Note_on_c, 2, 72, 100
4, 136080, Note_on_c, 2, 62, 100
4, 136560, Note_off_c, 2, 62, 64
4, 136560, Note_off_c, 2, 72, 64
4, 136560, Note_on_c, 2, 71, 100
4, 136560, Note_on_c, 2, 65, 100
4, 136880, Note_off_c, 2, 65, 100
4, 136880, Note_off_c, 2, 71, 100
4, 137040, Note_on_c, 2, 69, 100
4, 137040, Note_on_c, 2, 62, 100
4, 137360, Note_off_c, 2, 62, 100
4, 137360, Note_off_c, 2, 69, 100
4, 137520, Note_on_c, 2, 71, 100
4, 137520, Note_on_c, 2, 65, 100
4, 137680, Note_off_c, 2, 65, 100
4, 137680, Note_off_c, 2, 71, 100
4, 137760, Note_on_c, 2, 69, 100
4, 137760, Note_on_c, 2, 62, 100
4, 138080, Note_off_c, 2, 62, 100
4, 138080, Note_off_c, 2, 69, 100
4, 138240, Note_on_c, 2, 55, 100
4, 138240, Note_on_c, 2, 62, 100
4, 138240, Note_on_c, 2, 67, 100
4, 138240, Note_on_c, 2, 71, 100
4, 138240, Note_on_c, 2, 74, 100
4, 138240, Note_on_c, 2, 79, 100
4, 138880, Note_off_c, 2, 79, 100
4, 138880, Note_off_c, 2, 74, 100
4, 138880, Note_off_c, 2, 71, 100
4, 138880, Note_off_c, 2, 67, 100
4, 138880, Note_off_c, 2, 62, 100
4, 138880, Note_off_c, 2, 55, 100
4, 139200, Note_on_c, 2, 79, 100
4, 139200, Note_on_c, 2, 74, 100
4, 139200, Note_on_c, 2, 71, 100
4, 139200, Note_on_c, 2, 67, 100
4, 139200, Note_on_c, 2, 62, 100
4, 139200, Note_on_c, 2, 55, 100
4, 139520, Note_off_c, 2, 55, 100
4, 139520, Note_off_c, 2, 62, 100
4, 139520, Note_off_c, 2, 67, 100
4, 139520, Note_off_c, 2, 71, 100
4, 139520, Note_off_c, 2, 74, 100
4, 139520, Note_off_c, 2, 79, 100
4, 139680, Note_on_c, 2, 79, 100
4, 139680, Note_on_c, 2, 74, 100
4, 139680, Note_on_c, 2, 71, 100
4, 139680, Note_on_c, 2, 67, 100
4, 139680, Note_on_c, 2, 62, 100
4, 139680, Note_on_c, 2, 55, 100
4, 140000, Note_off_c, 2, 55, 100
4, 140000, Note_off_c, 2, 62, 100
4, 140000, Note_off_c, 2, 67, 100
4, 140000, Note_off_c, 2, 71, 100
4, 140000, Note_off_c, 2, 74, 100
4, 140000, Note_off_c, 2, 79, 100
4, 140160, Note_on_c, 2, 59, 100
4, 140160, Note_on_c, 2, 66, 100
4, 140160, Note_on_c, 2, 71, 100
4, 140160, Note_on_c, 2, 74, 100
4, 140800, Note_off_c, 2, 74, 100
4, 140800, Note_off_c, 2, 71, 100
4, 140800, Note_off_c, 2, 66, 100
4, 140800, Note_off_c, 2, 59, 100
4, 141120, Note_on_c, 2, 59, 100
4, 141120, Note_on_c, 2, 66, 100
4, 141120, Note_on_c, 2, 71, 100
4, 141120, Note_on_c, 2, 74, 100
4, 141600, Note_on_c, 2, 74, 100
4, 141600, Note_on_c, 2, 71, 100
4, 141600, Note_on_c, 2, 66, 100
4, 141600, Note_on_c, 2, 59, 100
4, 141760, Note_off_c, 2, 74, 100
4, 141760, Note_off_c, 2, 71, 100
4, 141760, Note_off_c, 2, 66, 100
4, 141760, Note_off_c, 2, 59, 100
4, 141920, Note_off_c, 2, 74, 100
4, 141920, Note_off_c, 2, 71, 100
4, 141920, Note_off_c, 2, 66, 100
4, 141920, Note_off_c, 2, 59, 100
4, 142080, Note_on_c, 2, 60, 100
4, 142080, Note_on_c, 2, 67, 100
4, 142080, Note_on_c, 2, 72, 100
4, 142080, Note_on_c, 2, 76, 100
4, 142720, Note_off_c, 2, 76, 100
4, 142720, Note_off_c, 2, 72, 100
4, 142720, Note_off_c, 2, 67, 100
4, 142720, Note_off_c, 2, 60, 100
4, 143040, Note_on_c, 2, 76, 100
4, 143040, Note_on_c, 2, 72, 100
4, 143040, Note_on_c, 2, 67, 100
4, 143040, Note_on_c, 2, 60, 100
4, 143360, Note_off_c, 2, 60, 100
4, 143360, Note_off_c, 2, 67, 100
4, 143360, Note_off_c, 2, 72, 100
4, 143360, Note_off_c, 2, 76, 100
4, 143520, Note_on_c, 2, 76, 100
4, 143520, Note_on_c, 2, 72, 100
4, 143520, Note_on_c, 2, 67, 100
4, 143520, Note_on_c, 2, 60, 100
4, 143840, Note_off_c, 2, 60, 100
4, 143840, Note_off_c, 2, 67, 100
4, 143840, Note_off_c, 2, 72, 100
4, 143840, Note_off_c, 2, 76, 100
4, 144000, Note_on_c, 2, 62, 100
4, 144000, Note_on_c, 2, 69, 100
4, 144000, Note_on_c, 2, 74, 100
4, 144000, Note_on_c, 2, 78, 100
4, 144640, Note_off_c, 2, 78, 100
4, 144640, Note_off_c, 2, 74, 100
4, 144640, Note_off_c, 2, 69, 100
4, 144640, Note_off_c, 2, 62, 100
4, 144960, Note_on_c, 2, 78, 100
4, 144960, Note_on_c, 2, 74, 100
4, 144960, Note_on_c, 2, 69, 100
4, 144960, Note_on_c, 2, 62, 100
4, 145280, Note_off_c, 2, 62, 100
4, 145280, Note_off_c, 2, 69, 100
4, 145280, Note_off_c, 2, 74, 100
4, 145280, Note_off_c, 2, 78, 100
4, 145440, Note_on_c, 2, 78, 100
4, 145440, Note_on_c, 2, 74, 100
4, 145440, Note_on_c, 2, 69, 100
4, 145440, Note_on_c, 2, 62, 100
4, 145760, Note_off_c, 2, 62, 100
4, 145760, Note_off_c, 2, 69, 100
4, 145760, Note_off_c, 2, 74, 100
4, 145760, Note_off_c, 2, 78, 100
4, 145920, Note_on_c, 2, 55, 100
4, 145920, Note_on_c, 2, 62, 100
4, 145920, Note_on_c, 2, 67, 100
4, 145920, Note_on_c, 2, 71, 100
4, 145920, Note_on_c, 2, 74, 100
4, 145920, Note_on_c, 2, 79, 100
4, 146560, Note_off_c, 2, 79, 100
4, 146560, Note_off_c, 2, 74, 100
4, 146560, Note_off_c, 2, 71, 100
4, 146560, Note_off_c, 2, 67, 100
4, 146560, Note_off_c, 2, 62, 100
4, 146560, Note_off_c, 2, 55, 100
4, 146880, Note_on_c, 2, 79, 100
4, 146880, Note_on_c, 2, 74, 100
4, 146880, Note_on_c, 2, 71, 100
4, 146880, Note_on_c, 2, 67, 100
4, 146880, Note_on_c, 2, 62, 100
4, 146880, Note_on_c, 2, 55, 100
4, 147200, Note_off_c, 2, 55, 100
4, 147200, Note_off_c, 2, 62, 100
4, 147200, Note_off_c, 2, 67, 100
4, 147200, Note_off_c, 2, 71, 100
4, 147200, Note_off_c, 2, 74, 100
4, 147200, Note_off_c, 2, 79, 100
4, 147360, Note_on_c, 2, 79, 100
4, 147360, Note_on_c, 2, 74, 100
4, 147360, Note_on_c, 2, 71, 100
4, 147360, Note_on_c, 2, 67, 100
4, 147360, Note_on_c, 2, 62, 100
4, 147360, Note_on_c, 2, 55, 100
4, 147680, Note_off_c, 2, 55, 100
4, 147680, Note_off_c, 2, 62, 100
4, 147680, Note_off_c, 2, 67, 100
4, 147680, Note_off_c, 2, 71, 100
4, 147680, Note_off_c, 2, 74, 100
4, 147680, Note_off_c, 2, 79, 100
4, 147840, Note_on_c, 2, 59, 100
4, 147840, Note_on_c, 2, 66, 100
4, 147840, Note_on_c, 2, 71, 100
4, 147840, Note_on_c, 2, 74, 100
4, 148480, Note_off_c, 2, 74, 100
4, 148480, Note_off_c, 2, 71, 100
4, 148480, Note_off_c, 2, 66, 100
4, 148480, Note_off_c, 2, 59, 100
4, 148800, Note_on_c, 2, 59, 100
4, 148800, Note_on_c, 2, 66, 100
4, 148800, Note_on_c, 2, 71, 100
4, 148800, Note_on_c, 2, 74, 100
4, 149280, Note_on_c, 2, 74, 100
4, 149280, Note_on_c, 2, 71, 100
4, 149280, Note_on_c, 2, 66, 100
4, 149280, Note_on_c, 2, 59, 100
4, 149440, Note_off_c, 2, 74, 100
4, 149440, Note_off_c, 2, 71, 100
4, 149440, Note_off_c, 2, 66, 100
4, 149440, Note_off_c, 2, 59, 100
4, 149600, Note_off_c, 2, 74, 100
4, 149600, Note_off_c, 2, 71, 100
4, 149600, Note_off_c, 2, 66, 100
4, 149600, Note_off_c, 2, 59, 100
4, 149760, Note_on_c, 2, 57, 100
4, 149760, Note_on_c, 2, 64, 100
4, 149760, Note_on_c, 2, 69, 100
4, 149760, Note_on_c, 2, 72, 100
4, 149760, Note_on_c, 2, 76, 100
4, 150400, Note_off_c, 2, 76, 100
4, 150400, Note_off_c, 2, 72, 100
4, 150400, Note_off_c, 2, 69, 100
4, 150400, Note_off_c, 2, 64, 100
4, 150400, Note_off_c, 2, 57, 100
4, 150720, Note_on_c, 2, 76, 100
4, 150720, Note_on_c, 2, 72, 100
4, 150720, Note_on_c, 2, 69, 100
4, 150720, Note_on_c, 2, 64, 100
4, 150720, Note_on_c, 2, 57, 100
4, 151040, Note_off_c, 2, 57, 100
4, 151040, Note_off_c, 2, 64, 100
4, 151040, Note_off_c, 2, 69, 100
4, 151040, Note_off_c, 2, 72, 100
4, 151040, Note_off_c, 2, 76, 100
4, 151200, Note_on_c, 2, 76, 100
4, 151200, Note_on_c, 2, 72, 100
4, 151200, Note_on_c, 2, 69, 100
4, 151200, Note_on_c, 2, 64, 100
4, 151200, Note_on_c, 2, 57, 100
4, 151520, Note_off_c, 2, 57, 100
4, 151520, Note_off_c, 2, 64, 100
4, 151520, Note_off_c, 2, 69, 100
4, 151520, Note_off_c, 2, 72, 100
4, 151520, Note_off_c, 2, 76, 100
4, 151680, Note_on_c, 2, 62, 100
4, 151680, Note_on_c, 2, 69, 100
4, 151680, Note_on_c, 2, 74, 100
4, 151680, Note_on_c, 2, 78, 100
4, 152320, Note_off_c, 2, 78, 100
4, 152320, Note_off_c, 2, 74, 100
4, 152320, Note_off_c, 2, 69, 100
4, 152320, Note_off_c, 2, 62, 100
4, 152640, Note_on_c, 2, 78, 100
4, 152640, Note_on_c, 2, 74, 100
4, 152640, Note_on_c, 2, 69, 100
4, 152640, Note_on_c, 2, 62, 100
4, 152960, Note_off_c, 2, 62, 100
4, 152960, Note_off_c, 2, 69, 100
4, 152960, Note_off_c, 2, 74, 100
4, 152960, Note_off_c, 2, 78, 100
4, 153120, Note_on_c, 2, 78, 100
4, 153120, Note_on_c, 2, 74, 100
4, 153120, Note_on_c, 2, 69, 100
4, 153120, Note_on_c, 2, 62, 100
4, 153440, Note_off_c, 2, 62, 100
4, 153440, Note_off_c, 2, 69, 100
4, 153440, Note_off_c, 2, 74, 100
4, 153440, Note_off_c, 2, 78, 100
4, 153600, Note_on_c, 2, 55, 100
4, 153600, Note_on_c, 2, 62, 100
4, 153920, Note_off_c, 2, 62, 100
4, 153920, Note_off_c, 2, 55, 100
4, 154080, Note_on_c, 2, 67, 100
4, 154080, Note_on_c, 2, 62, 100
4, 154240, Note_off_c, 2, 62, 100
4, 154240, Note_off_c, 2, 67, 100
4, 154320, Note_on_c, 2, 62, 100
4, 154480, Note_off_c, 2, 62, 100
4, 154560, Note_on_c, 2, 67, 100
4, 154720, Note_off_c, 2, 67, 100
4, 154800, Note_on_c, 2, 65, 100
4, 154960, Note_off_c, 2, 65, 100
4, 155040, Note_on_c, 2, 62, 100
4, 155040, Note_on_c, 2, 55, 100
4, 155200, Note_off_c, 2, 55, 100
4, 155200, Note_off_c, 2, 62, 100
4, 155280, Note_on_c, 2, 72, 100
4, 155280, Note_on_c, 2, 62, 100
4, 155760, Note_off_c, 2, 62, 64
4, 155760, Note_off_c, 2, 72, 64
4, 155760, Note_on_c, 2, 71, 100
4, 155760, Note_on_c, 2, 65, 100
4, 156080, Note_off_c, 2, 65, 100
4, 156080, Note_off_c, 2, 71, 100
4, 156240, Note_on_c, 2, 69, 100
4, 156240, Note_on_c, 2, 62, 100
4, 156560, Note_off_c, 2, 62, 100
4, 156560, Note_off_c, 2, 69, 100
4, 156720, Note_on_c, 2, 71, 100
4, 156720, Note_on_c, 2, 65, 100
4, 156880, Note_off_c, 2, 65, 100
4, 156880, Note_off_c, 2, 71, 100
4, 156960, Note_on_c, 2, 69, 100
4, 156960, Note_on_c, 2, 62, 100
4, 157280, Note_off_c, 2, 62, 100
4, 157280, Note_off_c, 2, 69, 100
4, 157440, Note_on_c, 2, 55, 100
4, 157440, Note_on_c, 2, 62, 100
4, 157760, Note_off_c, 2, 62, 100
4, 157760, Note_off_c, 2, 55, 100
4, 157920, Note_on_c, 2, 67, 100
4, 157920, Note_on_c, 2, 62, 100
4, 158080, Note_off_c, 2, 62, 100
4, 158080, Note_off_c, 2, 67, 100
4, 158160, Note_on_c, 2, 62, 100
4, 158320, Note_off_c, 2, 62, 100
4, 158400, Note_on_c, 2, 67, 100
4, 158560, Note_off_c, 2, 67, 100
4, 158640, Note_on_c, 2, 65, 100
4, 158800, Note_off_c, 2, 65, 100
4, 158880, Note_on_c, 2, 62, 100
4, 158880, Note_on_c, 2, 55, 100
4, 159040, Note_off_c, 2, 55, 100
4, 159040, Note_off_c, 2, 62, 100
4, 159120, Note_on_c, 2, 72, 100
4, 159120, Note_on_c, 2, 62, 100
4, 159600, Note_off_c, 2, 62, 64
4, 159600, Note_off_c, 2, 72, 64
4, 159600, Note_on_c, 2, 71, 100
4, 159600, Note_on_c, 2, 65, 100
4, 159920, Note_off_c, 2, 65, 100
4, 159920, Note_off_c, 2, 71, 100
4, 160080, Note_on_c, 2, 69, 100
4, 160080, Note_on_c, 2, 62, 100
4, 160400, Note_off_c, 2, 62, 100
4, 160400, Note_off_c, 2, 69, 100
4, 160560, Note_on_c, 2, 71, 100
4, 160560, Note_on_c, 2, 65, 100
4, 160720, Note_off_c, 2, 65, 100
4, 160720, Note_off_c, 2, 71, 100
4, 160800, Note_on_c, 2, 69, 100
4, 160800, Note_on_c, 2, 62, 100
4, 161120, Note_off_c, 2, 62, 100
4, 161120, Note_off_c, 2, 69, 100
4, 161280, Note_on_c, 2, 62, 100
4, 161600, Note_off_c, 2, 62, 100
4, 161760, Note_on_c, 2, 74, 100
4, 162080, Note_off_c, 2, 74, 100
4, 162240, Note_on_c, 2, 74, 100
4, 162400, Note_off_c, 2, 74, 100
4, 162480, Note_on_c, 2, 72, 100
4, 162640, Note_off_c, 2, 72, 100
4, 162720, Note_on_c, 2, 69, 100
4, 162720, Note_on_c, 2, 62, 100
4, 162880, Note_off_c, 2, 62, 100
4, 162880, Note_off_c, 2, 69, 100
4, 162960, Note_on_c, 2, 79, 100
4, 162960, Note_on_c, 2, 69, 100
4, 163440, Note_off_c, 2, 69, 64
4, 163440, Note_off_c, 2, 79, 64
4, 163440, Note_on_c, 2, 69, 100
4, 163440, Note_on_c, 2, 78, 100
4, 163760, Note_off_c, 2, 78, 100
4, 163760, Note_off_c, 2, 69, 100
4, 163920, Note_on_c, 2, 76, 100
4, 163920, Note_on_c, 2, 69, 100
4, 164240, Note_off_c, 2, 69, 100
4, 164240, Note_off_c, 2, 76, 100
4, 164400, Note_on_c, 2, 78, 100
4, 164400, Note_on_c, 2, 72, 100
4, 164560, Note_off_c, 2, 72, 100
4, 164560, Note_off_c, 2, 78, 100
4, 164640, Note_on_c, 2, 76, 100
4, 164640, Note_on_c, 2, 69, 100
4, 164960, Note_off_c, 2, 69, 100
4, 164960, Note_off_c, 2, 76, 100
4, 165120, Note_on_c, 2, 62, 100
4, 165120, Note_on_c, 2, 69, 100
4, 165120, Note_on_c, 2, 74, 100
4, 165120, Note_on_c, 2, 78, 100
4, 165760, Note_off_c, 2, 78, 100
4, 165760, Note_off_c, 2, 74, 100
4, 165760, Note_off_c, 2, 69, 100
4, 165760, Note_off_c, 2, 62, 100
4, 166080, Note_on_c, 2, 62, 100
4, 166080, Note_on_c, 2, 69, 100
4, 166080, Note_on_c, 2, 74, 100
4, 166080, Note_on_c, 2, 78, 100
4, 166560, Note_on_c, 2, 62, 100
4, 166560, Note_on_c, 2, 69, 100
4, 166560, Note_on_c, 2, 74, 100
4, 166560, Note_on_c, 2, 78, 100
4, 166720, Note_off_c, 2, 78, 100
4, 166720, Note_off_c, 2, 74, 100
4, 166720, Note_off_c, 2, 69, 100
4, 166720, Note_off_c, 2, 62, 100
4, 167040, Note_off_c, 2, 62, 100
4, 167040, Note_off_c, 2, 69, 100
4, 167040, Note_off_c, 2, 74, 100
4, 167040, Note_off_c, 2, 78, 100
4, 167040, Note_on_c, 2, 60, 100
4, 167040, Note_on_c, 2, 67, 100
4, 167040, Note_on_c, 2, 72, 100
4, 167040, Note_on_c, 2, 76, 100
4, 167680, Note_off_c, 2, 76, 100
4, 167680, Note_off_c, 2, 72, 100
4, 167680, Note_off_c, 2, 67, 100
4, 167680, Note_off_c, 2, 60, 100
4, 168000, Note_on_c, 2, 76, 100
4, 168000, Note_on_c, 2, 72, 100
4, 168000, Note_on_c, 2, 67, 100
4, 168000, Note_on_c, 2, 60, 100
4, 168320, Note_off_c, 2, 60, 100
4, 168320, Note_off_c, 2, 67, 100
4, 168320, Note_off_c, 2, 72, 100
4, 168320, Note_off_c, 2, 76, 100
4, 168480, Note_on_c, 2, 76, 100
4, 168480, Note_on_c, 2, 72, 100
4, 168480, Note_on_c, 2, 67, 100
4, 168480, Note_on_c, 2, 60, 100
4, 168800, Note_off_c, 2, 60, 100
4, 168800, Note_off_c, 2, 67, 100
4, 168800, Note_off_c, 2, 72, 100
4, 168800, Note_off_c, 2, 76, 100
4, 168960, Note_on_c, 2, 55, 100
4, 168960, Note_on_c, 2, 62, 100
4, 169280, Note_off_c, 2, 62, 100
4, 169280, Note_off_c, 2, 55, 100
4, 169440, Note_on_c, 2, 67, 100
4, 169440, Note_on_c, 2, 62, 100
4, 169600, Note_off_c, 2, 62, 100
4, 169600, Note_off_c, 2, 67, 100
4, 169680, Note_on_c, 2, 62, 100
4, 169840, Note_off_c, 2, 62, 100
4, 169920, Note_on_c, 2, 67, 100
4, 170080, Note_off_c, 2, 67, 100
4, 170160, Note_on_c, 2, 65, 100
4, 170320, Note_off_c, 2, 65, 100
4, 170400, Note_on_c, 2, 62, 100
4, 170400, Note_on_c, 2, 55, 100
4, 170560, Note_off_c, 2, 55, 100
4, 170560, Note_off_c, 2, 62, 100
4, 170640, Note_on_c, 2, 72, 100
4, 170640, Note_on_c, 2, 62, 100
4, 171120, Note_off_c, 2, 62, 64
4, 171120, Note_off_c, 2, 72, 64
4, 171120, Note_on_c, 2, 71, 100
4, 171120, Note_on_c, 2, 65, 100
4, 171440, Note_off_c, 2, 65, 100
4, 171440, Note_off_c, 2, 71, 100
4, 171600, Note_on_c, 2, 69, 100
4, 171600, Note_on_c, 2, 62, 100
4, 171920, Note_off_c, 2, 62, 100
4, 171920, Note_off_c, 2, 69, 100
4, 172080, Note_on_c, 2, 71, 100
4, 172080, Note_on_c, 2, 65, 100
4, 172240, Note_off_c, 2, 65, 100
4, 172240, Note_off_c, 2, 71, 100
4, 172320, Note_on_c, 2, 69, 100
4, 172320, Note_on_c, 2, 62, 100
4, 172640, Note_off_c, 2, 62, 100
4, 172640, Note_off_c, 2, 69, 100
4, 172800, Note_on_c, 2, 62, 100
4, 172800, Note_on_c, 2, 69, 100
4, 172800, Note_on_c, 2, 74, 100
4, 172800, Note_on_c, 2, 78, 100
4, 173440, Note_off_c, 2, 78, 100
4, 173440, Note_off_c, 2, 74, 100
4, 173440, Note_off_c, 2, 69, 100
4, 173440, Note_off_c, 2, 62, 100
4, 173760, Note_on_c, 2, 62, 100
4, 173760, Note_on_c, 2, 69, 100
4, 173760, Note_on_c, 2, 74, 100
4, 173760, Note_on_c, 2, 78, 100
4, 174240, Note_on_c, 2, 62, 100
4, 174240, Note_on_c, 2, 69, 100
4, 174240, Note_on_c, 2, 74, 100
4, 174240, Note_on_c, 2, 78, 100
4, 174400, Note_off_c, 2, 78, 100
4, 174400, Note_off_c, 2, 74, 100
4, 174400, Note_off_c, 2, 69, 100
4, 174400, Note_off_c, 2, 62, 100
4, 174720, Note_off_c, 2, 62, 100
4, 174720, Note_off_c, 2, 69, 100
4, 174720, Note_off_c, 2, 74, 100
4, 174720, Note_off_c, 2, 78, 100
4, 174720, Note_on_c, 2, 60, 100
4, 174720, Note_on_c, 2, 67, 100
4, 174720, Note_on_c, 2, 72, 100
4, 174720, Note_on_c, 2, 76, 100
4, 175360, Note_off_c, 2, 76, 100
4, 175360, Note_off_c, 2, 72, 100
4, 175360, Note_off_c, 2, 67, 100
4, 175360, Note_off_c, 2, 60, 100
4, 175680, Note_on_c, 2, 76, 100
4, 175680, Note_on_c, 2, 72, 100
4, 175680, Note_on_c, 2, 67, 100
4, 175680, Note_on_c, 2, 60, 100
4, 176000, Note_off_c, 2, 60, 100
4, 176000, Note_off_c, 2, 67, 100
4, 176000, Note_off_c, 2, 72, 100
4, 176000, Note_off_c, 2, 76, 100
4, 176160, Note_on_c, 2, 76, 100
4, 176160, Note_on_c, 2, 72, 100
4, 176160, Note_on_c, 2, 67, 100
4, 176160, Note_on_c, 2, 60, 100
4, 176480, Note_off_c, 2, 60, 100
4, 176480, Note_off_c, 2, 67, 100
4, 176480, Note_off_c, 2, 72, 100
4, 176480, Note_off_c, 2, 76, 100
4, 176640, Note_on_c, 2, 55, 100
4, 176640, Note_on_c, 2, 62, 100
4, 176960, Note_off_c, 2, 62, 100
4, 176960, Note_off_c, 2, 55, 100
4, 177120, Note_on_c, 2, 67, 100
4, 177120, Note_on_c, 2, 62, 100
4, 177280, Note_off_c, 2, 62, 100
4, 177280, Note_off_c, 2, 67, 100
4, 177360, Note_on_c, 2, 62, 100
4, 177520, Note_off_c, 2, 62, 100
4, 177600, Note_on_c, 2, 67, 100
4, 177760, Note_off_c, 2, 67, 100
4, 177840, Note_on_c, 2, 65, 100
4, 178000, Note_off_c, 2, 65, 100
4, 178080, Note_on_c, 2, 62, 100
4, 178080, Note_on_c, 2, 55, 100
4, 178240, Note_off_c, 2, 55, 100
4, 178240, Note_off_c, 2, 62, 100
4, 178320, Note_on_c, 2, 72, 100
4, 178320, Note_on_c, 2, 62, 100
4, 178800, Note_off_c, 2, 62, 64
4, 178800, Note_off_c, 2, 72, 64
4, 178800, Note_on_c, 2, 71, 100
4, 178800, Note_on_c, 2, 65, 100
4, 179120, Note_off_c, 2, 65, 100
4, 179120, Note_off_c, 2, 71, 100
4, 179280, Note_on_c, 2, 69, 100
4, 179280, Note_on_c, 2, 62, 100
4, 179600, Note_off_c, 2, 62, 100
4, 179600, Note_off_c, 2, 69, 100
4, 179760, Note_on_c, 2, 71, 100
4, 179760, Note_on_c, 2, 65, 100
4, 179920, Note_off_c, 2, 65, 100
4, 179920, Note_off_c, 2, 71, 100
4, 180000, Note_on_c, 2, 69, 100
4, 180000, Note_on_c, 2, 62, 100
4, 180320, Note_off_c, 2, 62, 100
4, 180320, Note_off_c, 2, 69, 100
4, 180480, Note_on_c, 2, 55, 100
4, 180480, Note_on_c, 2, 62, 100
4, 180800, Note_off_c, 2, 62, 100
4, 180800, Note_off_c, 2, 55, 100
4, 180960, Note_on_c, 2, 67, 100
4, 180960, Note_on_c, 2, 62, 100
4, 181120, Note_off_c, 2, 62, 100
4, 181120, Note_off_c, 2, 67, 100
4, 181200, Note_on_c, 2, 62, 100
4, 181360, Note_off_c, 2, 62, 100
4, 181440, Note_on_c, 2, 67, 100
4, 181600, Note_off_c, 2, 67, 100
4, 181680, Note_on_c, 2, 65, 100
4, 181840, Note_off_c, 2, 65, 100
4, 181920, Note_on_c, 2, 62, 100
4, 181920, Note_on_c, 2, 55, 100
4, 182080, Note_off_c, 2, 55, 100
4, 182080, Note_off_c, 2, 62, 100
4, 182160, Note_on_c, 2, 72, 100
4, 182160, Note_on_c, 2, 62, 100
4, 182640, Note_off_c, 2, 62, 64
4, 182640, Note_off_c, 2, 72, 64
4, 182640, Note_on_c, 2, 71, 100
4, 182640, Note_on_c, 2, 65, 100
4, 182960, Note_off_c, 2, 65, 100
4, 182960, Note_off_c, 2, 71, 100
4, 183120, Note_on_c, 2, 69, 100
4, 183120, Note_on_c, 2, 62, 100
4, 183440, Note_off_c, 2, 62, 100
4, 183440, Note_off_c, 2, 69, 100
4, 183600, Note_on_c, 2, 71, 100
4, 183600, Note_on_c, 2, 65, 100
4, 183760, Note_off_c, 2, 65, 100
4, 183760, Note_off_c, 2, 71, 100
4, 183840, Note_on_c, 2, 69, 100
4, 183840, Note_on_c, 2, 62, 100
4, 184160, Note_off_c, 2, 62, 100
4, 184160, Note_off_c, 2, 69, 100
4, 184320, Note_on_c, 2, 55, 100
4, 184320, Note_on_c, 2, 62, 100
4, 184320, Note_on_c, 2, 67, 100
4, 184320, Note_on_c, 2, 71, 100
4, 184320, Note_on_c, 2, 74, 100
4, 184320, Note_on_c, 2, 79, 100
4, 185605, Note_off_c, 2, 79, 100
4, 185605, Note_off_c, 2, 74, 100
4, 185605, Note_off_c, 2, 71, 100
4, 185605, Note_off_c, 2, 67, 100
4, 185605, Note_off_c, 2, 62, 100
4, 185605, Note_off_c, 2, 55, 100
4, 185605, End_track
5, 0, Start_track
5, 0, Title_t, "George's Electric"
5, 0, MIDI_port, 0
5, 0, Channel_prefix, 3
5, 0, Control_c, 3, 10, 127
5, 0, Program_c, 3, 28
5, 0, Control_c, 3, 0, 0
5, 27360, Note_on_c, 3, 62, 100
5, 27360, Note_on_c, 3, 69, 100
5, 27360, Note_on_c, 3, 74, 100
5, 27360, Note_on_c, 3, 78, 100
5, 28000, Note_off_c, 3, 78, 100
5, 28000, Note_off_c, 3, 74, 100
5, 28000, Note_off_c, 3, 69, 100
5, 28000, Note_off_c, 3, 62, 100
5, 28080, Note_on_c, 3, 78, 100
5, 28080, Note_on_c, 3, 74, 100
5, 28080, Note_on_c, 3, 69, 100
5, 28080, Note_on_c, 3, 62, 100
5, 28720, Note_off_c, 3, 62, 100
5, 28720, Note_off_c, 3, 69, 100
5, 28720, Note_off_c, 3, 74, 100
5, 28720, Note_off_c, 3, 78, 100
5, 29280, Note_on_c, 3, 76, 100
5, 29280, Note_on_c, 3, 72, 100
5, 29280, Note_on_c, 3, 67, 100
5, 29280, Note_on_c, 3, 60, 100
5, 29760, Note_off_c, 3, 60, 100
5, 29760, Note_off_c, 3, 67, 100
5, 29760, Note_off_c, 3, 72, 100
5, 29760, Note_off_c, 3, 76, 100
5, 30000, Note_on_c, 3, 76, 100
5, 30000, Note_on_c, 3, 72, 100
5, 30000, Note_on_c, 3, 67, 100
5, 30000, Note_on_c, 3, 60, 100
5, 30480, Note_off_c, 3, 60, 100
5, 30480, Note_off_c, 3, 67, 100
5, 30480, Note_off_c, 3, 72, 100
5, 30480, Note_off_c, 3, 76, 100
5, 46560, Note_on_c, 3, 62, 100
5, 46560, Note_on_c, 3, 69, 100
5, 46560, Note_on_c, 3, 74, 100
5, 46560, Note_on_c, 3, 78, 100
5, 47200, Note_off_c, 3, 78, 100
5, 47200, Note_off_c, 3, 74, 100
5, 47200, Note_off_c, 3, 69, 100
5, 47200, Note_off_c, 3, 62, 100
5, 47280, Note_on_c, 3, 78, 100
5, 47280, Note_on_c, 3, 74, 100
5, 47280, Note_on_c, 3, 69, 100
5, 47280, Note_on_c, 3, 62, 100
5, 47920, Note_off_c, 3, 62, 100
5, 47920, Note_off_c, 3, 69, 100
5, 47920, Note_off_c, 3, 74, 100
5, 47920, Note_off_c, 3, 78, 100
5, 48480, Note_on_c, 3, 76, 100
5, 48480, Note_on_c, 3, 72, 100
5, 48480, Note_on_c, 3, 67, 100
5, 48480, Note_on_c, 3, 60, 100
5, 48960, Note_off_c, 3, 60, 100
5, 48960, Note_off_c, 3, 67, 100
5, 48960, Note_off_c, 3, 72, 100
5, 48960, Note_off_c, 3, 76, 100
5, 49200, Note_on_c, 3, 76, 100
5, 49200, Note_on_c, 3, 72, 100
5, 49200, Note_on_c, 3, 67, 100
5, 49200, Note_on_c, 3, 60, 100
5, 49680, Note_off_c, 3, 60, 100
5, 49680, Note_off_c, 3, 67, 100
5, 49680, Note_off_c, 3, 72, 100
5, 49680, Note_off_c, 3, 76, 100
5, 54240, Note_on_c, 3, 79, 100
5, 54240, Note_on_c, 3, 74, 100
5, 54240, Note_on_c, 3, 71, 100
5, 54240, Note_on_c, 3, 67, 100
5, 54240, Note_on_c, 3, 62, 100
5, 54240, Note_on_c, 3, 55, 100
5, 54880, Note_off_c, 3, 55, 100
5, 54880, Note_off_c, 3, 62, 100
5, 54880, Note_off_c, 3, 67, 100
5, 54880, Note_off_c, 3, 71, 100
5, 54880, Note_off_c, 3, 74, 100
5, 54880, Note_off_c, 3, 79, 100
5, 54960, Note_on_c, 3, 79, 100
5, 54960, Note_on_c, 3, 74, 100
5, 54960, Note_on_c, 3, 71, 100
5, 54960, Note_on_c, 3, 67, 100
5, 54960, Note_on_c, 3, 62, 100
5, 54960, Note_on_c, 3, 55, 100
5, 55280, Note_off_c, 3, 55, 100
5, 55280, Note_off_c, 3, 62, 100
5, 55280, Note_off_c, 3, 67, 100
5, 55280, Note_off_c, 3, 71, 100
5, 55280, Note_off_c, 3, 74, 100
5, 55280, Note_off_c, 3, 79, 100
5, 55440, Note_on_c, 3, 79, 100
5, 55440, Note_on_c, 3, 74, 100
5, 55440, Note_on_c, 3, 71, 100
5, 55440, Note_on_c, 3, 67, 100
5, 55440, Note_on_c, 3, 62, 100
5, 55440, Note_on_c, 3, 55, 100
5, 55600, Note_off_c, 3, 55, 100
5, 55600, Note_off_c, 3, 62, 100
5, 55600, Note_off_c, 3, 67, 100
5, 55600, Note_off_c, 3, 71, 100
5, 55600, Note_off_c, 3, 74, 100
5, 55600, Note_off_c, 3, 79, 100
5, 56160, Note_on_c, 3, 59, 100
5, 56160, Note_on_c, 3, 66, 100
5, 56160, Note_on_c, 3, 71, 100
5, 56160, Note_on_c, 3, 74, 100
5, 56800, Note_off_c, 3, 74, 100
5, 56800, Note_off_c, 3, 71, 100
5, 56800, Note_off_c, 3, 66, 100
5, 56800, Note_off_c, 3, 59, 100
5, 56880, Note_on_c, 3, 59, 100
5, 56880, Note_on_c, 3, 66, 100
5, 56880, Note_on_c, 3, 71, 100
5, 56880, Note_on_c, 3, 74, 100
5, 57360, Note_on_c, 3, 74, 100
5, 57360, Note_on_c, 3, 71, 100
5, 57360, Note_on_c, 3, 66, 100
5, 57360, Note_on_c, 3, 59, 100
5, 57520, Note_off_c, 3, 59, 100
5, 57520, Note_off_c, 3, 66, 100
5, 57520, Note_off_c, 3, 71, 100
5, 57520, Note_off_c, 3, 74, 100
5, 57520, Note_off_c, 3, 74, 100
5, 57520, Note_off_c, 3, 71, 100
5, 57520, Note_off_c, 3, 66, 100
5, 57520, Note_off_c, 3, 59, 100
5, 58080, Note_on_c, 3, 76, 100
5, 58080, Note_on_c, 3, 72, 100
5, 58080, Note_on_c, 3, 67, 100
5, 58080, Note_on_c, 3, 60, 100
5, 58560, Note_off_c, 3, 60, 100
5, 58560, Note_off_c, 3, 67, 100
5, 58560, Note_off_c, 3, 72, 100
5, 58560, Note_off_c, 3, 76, 100
5, 58800, Note_on_c, 3, 76, 100
5, 58800, Note_on_c, 3, 72, 100
5, 58800, Note_on_c, 3, 67, 100
5, 58800, Note_on_c, 3, 60, 100
5, 59120, Note_off_c, 3, 60, 100
5, 59120, Note_off_c, 3, 67, 100
5, 59120, Note_off_c, 3, 72, 100
5, 59120, Note_off_c, 3, 76, 100
5, 59280, Note_on_c, 3, 76, 100
5, 59280, Note_on_c, 3, 72, 100
5, 59280, Note_on_c, 3, 67, 100
5, 59280, Note_on_c, 3, 60, 100
5, 59440, Note_off_c, 3, 60, 100
5, 59440, Note_off_c, 3, 67, 100
5, 59440, Note_off_c, 3, 72, 100
5, 59440, Note_off_c, 3, 76, 100
5, 60000, Note_on_c, 3, 62, 100
5, 60000, Note_on_c, 3, 69, 100
5, 60000, Note_on_c, 3, 74, 100
5, 60000, Note_on_c, 3, 78, 100
5, 60480, Note_off_c, 3, 78, 100
5, 60480, Note_off_c, 3, 74, 100
5, 60480, Note_off_c, 3, 69, 100
5, 60480, Note_off_c, 3, 62, 100
5, 60720, Note_on_c, 3, 78, 100
5, 60720, Note_on_c, 3, 74, 100
5, 60720, Note_on_c, 3, 69, 100
5, 60720, Note_on_c, 3, 62, 100
5, 61040, Note_off_c, 3, 62, 100
5, 61040, Note_off_c, 3, 69, 100
5, 61040, Note_off_c, 3, 74, 100
5, 61040, Note_off_c, 3, 78, 100
5, 61200, Note_on_c, 3, 78, 100
5, 61200, Note_on_c, 3, 74, 100
5, 61200, Note_on_c, 3, 69, 100
5, 61200, Note_on_c, 3, 62, 100
5, 61360, Note_off_c, 3, 62, 100
5, 61360, Note_off_c, 3, 69, 100
5, 61360, Note_off_c, 3, 74, 100
5, 61360, Note_off_c, 3, 78, 100
5, 61920, Note_on_c, 3, 79, 100
5, 61920, Note_on_c, 3, 74, 100
5, 61920, Note_on_c, 3, 71, 100
5, 61920, Note_on_c, 3, 67, 100
5, 61920, Note_on_c, 3, 62, 100
5, 61920, Note_on_c, 3, 55, 100
5, 62560, Note_off_c, 3, 55, 100
5, 62560, Note_off_c, 3, 62, 100
5, 62560, Note_off_c, 3, 67, 100
5, 62560, Note_off_c, 3, 71, 100
5, 62560, Note_off_c, 3, 74, 100
5, 62560, Note_off_c, 3, 79, 100
5, 62640, Note_on_c, 3, 79, 100
5, 62640, Note_on_c, 3, 74, 100
5, 62640, Note_on_c, 3, 71, 100
5, 62640, Note_on_c, 3, 67, 100
5, 62640, Note_on_c, 3, 62, 100
5, 62640, Note_on_c, 3, 55, 100
5, 62960, Note_off_c, 3, 55, 100
5, 62960, Note_off_c, 3, 62, 100
5, 62960, Note_off_c, 3, 67, 100
5, 62960, Note_off_c, 3, 71, 100
5, 62960, Note_off_c, 3, 74, 100
5, 62960, Note_off_c, 3, 79, 100
5, 63120, Note_on_c, 3, 79, 100
5, 63120, Note_on_c, 3, 74, 100
5, 63120, Note_on_c, 3, 71, 100
5, 63120, Note_on_c, 3, 67, 100
5, 63120, Note_on_c, 3, 62, 100
5, 63120, Note_on_c, 3, 55, 100
5, 63280, Note_off_c, 3, 55, 100
5, 63280, Note_off_c, 3, 62, 100
5, 63280, Note_off_c, 3, 67, 100
5, 63280, Note_off_c, 3, 71, 100
5, 63280, Note_off_c, 3, 74, 100
5, 63280, Note_off_c, 3, 79, 100
5, 63840, Note_on_c, 3, 59, 100
5, 63840, Note_on_c, 3, 66, 100
5, 63840, Note_on_c, 3, 71, 100
5, 63840, Note_on_c, 3, 74, 100
5, 64480, Note_off_c, 3, 74, 100
5, 64480, Note_off_c, 3, 71, 100
5, 64480, Note_off_c, 3, 66, 100
5, 64480, Note_off_c, 3, 59, 100
5, 64560, Note_on_c, 3, 59, 100
5, 64560, Note_on_c, 3, 66, 100
5, 64560, Note_on_c, 3, 71, 100
5, 64560, Note_on_c, 3, 74, 100
5, 65040, Note_on_c, 3, 74, 100
5, 65040, Note_on_c, 3, 71, 100
5, 65040, Note_on_c, 3, 66, 100
5, 65040, Note_on_c, 3, 59, 100
5, 65200, Note_off_c, 3, 59, 100
5, 65200, Note_off_c, 3, 66, 100
5, 65200, Note_off_c, 3, 71, 100
5, 65200, Note_off_c, 3, 74, 100
5, 65200, Note_off_c, 3, 74, 100
5, 65200, Note_off_c, 3, 71, 100
5, 65200, Note_off_c, 3, 66, 100
5, 65200, Note_off_c, 3, 59, 100
5, 65760, Note_on_c, 3, 57, 100
5, 65760, Note_on_c, 3, 64, 100
5, 65760, Note_on_c, 3, 69, 100
5, 65760, Note_on_c, 3, 72, 100
5, 65760, Note_on_c, 3, 76, 100
5, 66240, Note_off_c, 3, 76, 100
5, 66240, Note_off_c, 3, 72, 100
5, 66240, Note_off_c, 3, 69, 100
5, 66240, Note_off_c, 3, 64, 100
5, 66240, Note_off_c, 3, 57, 100
5, 66480, Note_on_c, 3, 76, 100
5, 66480, Note_on_c, 3, 72, 100
5, 66480, Note_on_c, 3, 69, 100
5, 66480, Note_on_c, 3, 64, 100
5, 66480, Note_on_c, 3, 57, 100
5, 66800, Note_off_c, 3, 57, 100
5, 66800, Note_off_c, 3, 64, 100
5, 66800, Note_off_c, 3, 69, 100
5, 66800, Note_off_c, 3, 72, 100
5, 66800, Note_off_c, 3, 76, 100
5, 66960, Note_on_c, 3, 76, 100
5, 66960, Note_on_c, 3, 72, 100
5, 66960, Note_on_c, 3, 69, 100
5, 66960, Note_on_c, 3, 64, 100
5, 66960, Note_on_c, 3, 57, 100
5, 67120, Note_off_c, 3, 57, 100
5, 67120, Note_off_c, 3, 64, 100
5, 67120, Note_off_c, 3, 69, 100
5, 67120, Note_off_c, 3, 72, 100
5, 67120, Note_off_c, 3, 76, 100
5, 67680, Note_on_c, 3, 62, 100
5, 67680, Note_on_c, 3, 69, 100
5, 67680, Note_on_c, 3, 74, 100
5, 67680, Note_on_c, 3, 78, 100
5, 68160, Note_off_c, 3, 78, 100
5, 68160, Note_off_c, 3, 74, 100
5, 68160, Note_off_c, 3, 69, 100
5, 68160, Note_off_c, 3, 62, 100
5, 68400, Note_on_c, 3, 78, 100
5, 68400, Note_on_c, 3, 74, 100
5, 68400, Note_on_c, 3, 69, 100
5, 68400, Note_on_c, 3, 62, 100
5, 68720, Note_off_c, 3, 62, 100
5, 68720, Note_off_c, 3, 69, 100
5, 68720, Note_off_c, 3, 74, 100
5, 68720, Note_off_c, 3, 78, 100
5, 68880, Note_on_c, 3, 78, 100
5, 68880, Note_on_c, 3, 74, 100
5, 68880, Note_on_c, 3, 69, 100
5, 68880, Note_on_c, 3, 62, 100
5, 69040, Note_off_c, 3, 62, 100
5, 69040, Note_off_c, 3, 69, 100
5, 69040, Note_off_c, 3, 74, 100
5, 69040, Note_off_c, 3, 78, 100
5, 81120, Note_on_c, 3, 62, 100
5, 81120, Note_on_c, 3, 69, 100
5, 81120, Note_on_c, 3, 74, 100
5, 81120, Note_on_c, 3, 78, 100
5, 81760, Note_off_c, 3, 78, 100
5, 81760, Note_off_c, 3, 74, 100
5, 81760, Note_off_c, 3, 69, 100
5, 81760, Note_off_c, 3, 62, 100
5, 81840, Note_on_c, 3, 78, 100
5, 81840, Note_on_c, 3, 74, 100
5, 81840, Note_on_c, 3, 69, 100
5, 81840, Note_on_c, 3, 62, 100
5, 82480, Note_off_c, 3, 62, 100
5, 82480, Note_off_c, 3, 69, 100
5, 82480, Note_off_c, 3, 74, 100
5, 82480, Note_off_c, 3, 78, 100
5, 83040, Note_on_c, 3, 76, 100
5, 83040, Note_on_c, 3, 72, 100
5, 83040, Note_on_c, 3, 67, 100
5, 83040, Note_on_c, 3, 60, 100
5, 83520, Note_off_c, 3, 60, 100
5, 83520, Note_off_c, 3, 67, 100
5, 83520, Note_off_c, 3, 72, 100
5, 83520, Note_off_c, 3, 76, 100
5, 83760, Note_on_c, 3, 76, 100
5, 83760, Note_on_c, 3, 72, 100
5, 83760, Note_on_c, 3, 67, 100
5, 83760, Note_on_c, 3, 60, 100
5, 84240, Note_off_c, 3, 60, 100
5, 84240, Note_off_c, 3, 67, 100
5, 84240, Note_off_c, 3, 72, 100
5, 84240, Note_off_c, 3, 76, 100
5, 131040, Note_on_c, 3, 62, 100
5, 131040, Note_on_c, 3, 69, 100
5, 131040, Note_on_c, 3, 74, 100
5, 131040, Note_on_c, 3, 78, 100
5, 131680, Note_off_c, 3, 78, 100
5, 131680, Note_off_c, 3, 74, 100
5, 131680, Note_off_c, 3, 69, 100
5, 131680, Note_off_c, 3, 62, 100
5, 131760, Note_on_c, 3, 78, 100
5, 131760, Note_on_c, 3, 74, 100
5, 131760, Note_on_c, 3, 69, 100
5, 131760, Note_on_c, 3, 62, 100
5, 132400, Note_off_c, 3, 62, 100
5, 132400, Note_off_c, 3, 69, 100
5, 132400, Note_off_c, 3, 74, 100
5, 132400, Note_off_c, 3, 78, 100
5, 132960, Note_on_c, 3, 76, 100
5, 132960, Note_on_c, 3, 72, 100
5, 132960, Note_on_c, 3, 67, 100
5, 132960, Note_on_c, 3, 60, 100
5, 133440, Note_off_c, 3, 60, 100
5, 133440, Note_off_c, 3, 67, 100
5, 133440, Note_off_c, 3, 72, 100
5, 133440, Note_off_c, 3, 76, 100
5, 133680, Note_on_c, 3, 76, 100
5, 133680, Note_on_c, 3, 72, 100
5, 133680, Note_on_c, 3, 67, 100
5, 133680, Note_on_c, 3, 60, 100
5, 134160, Note_off_c, 3, 60, 100
5, 134160, Note_off_c, 3, 67, 100
5, 134160, Note_off_c, 3, 72, 100
5, 134160, Note_off_c, 3, 76, 100
5, 138720, Note_on_c, 3, 79, 100
5, 138720, Note_on_c, 3, 74, 100
5, 138720, Note_on_c, 3, 71, 100
5, 138720, Note_on_c, 3, 67, 100
5, 138720, Note_on_c, 3, 62, 100
5, 138720, Note_on_c, 3, 55, 100
5, 139360, Note_off_c, 3, 55, 100
5, 139360, Note_off_c, 3, 62, 100
5, 139360, Note_off_c, 3, 67, 100
5, 139360, Note_off_c, 3, 71, 100
5, 139360, Note_off_c, 3, 74, 100
5, 139360, Note_off_c, 3, 79, 100
5, 139440, Note_on_c, 3, 79, 100
5, 139440, Note_on_c, 3, 74, 100
5, 139440, Note_on_c, 3, 71, 100
5, 139440, Note_on_c, 3, 67, 100
5, 139440, Note_on_c, 3, 62, 100
5, 139440, Note_on_c, 3, 55, 100
5, 139760, Note_off_c, 3, 55, 100
5, 139760, Note_off_c, 3, 62, 100
5, 139760, Note_off_c, 3, 67, 100
5, 139760, Note_off_c, 3, 71, 100
5, 139760, Note_off_c, 3, 74, 100
5, 139760, Note_off_c, 3, 79, 100
5, 139920, Note_on_c, 3, 79, 100
5, 139920, Note_on_c, 3, 74, 100
5, 139920, Note_on_c, 3, 71, 100
5, 139920, Note_on_c, 3, 67, 100
5, 139920, Note_on_c, 3, 62, 100
5, 139920, Note_on_c, 3, 55, 100
5, 140080, Note_off_c, 3, 55, 100
5, 140080, Note_off_c, 3, 62, 100
5, 140080, Note_off_c, 3, 67, 100
5, 140080, Note_off_c, 3, 71, 100
5, 140080, Note_off_c, 3, 74, 100
5, 140080, Note_off_c, 3, 79, 100
5, 140640, Note_on_c, 3, 59, 100
5, 140640, Note_on_c, 3, 66, 100
5, 140640, Note_on_c, 3, 71, 100
5, 140640, Note_on_c, 3, 74, 100
5, 141280, Note_off_c, 3, 74, 100
5, 141280, Note_off_c, 3, 71, 100
5, 141280, Note_off_c, 3, 66, 100
5, 141280, Note_off_c, 3, 59, 100
5, 141360, Note_on_c, 3, 59, 100
5, 141360, Note_on_c, 3, 66, 100
5, 141360, Note_on_c, 3, 71, 100
5, 141360, Note_on_c, 3, 74, 100
5, 141840, Note_on_c, 3, 74, 100
5, 141840, Note_on_c, 3, 71, 100
5, 141840, Note_on_c, 3, 66, 100
5, 141840, Note_on_c, 3, 59, 100
5, 142000, Note_off_c, 3, 59, 100
5, 142000, Note_off_c, 3, 66, 100
5, 142000, Note_off_c, 3, 71, 100
5, 142000, Note_off_c, 3, 74, 100
5, 142000, Note_off_c, 3, 74, 100
5, 142000, Note_off_c, 3, 71, 100
5, 142000, Note_off_c, 3, 66, 100
5, 142000, Note_off_c, 3, 59, 100
5, 142560, Note_on_c, 3, 76, 100
5, 142560, Note_on_c, 3, 72, 100
5, 142560, Note_on_c, 3, 67, 100
5, 142560, Note_on_c, 3, 60, 100
5, 143040, Note_off_c, 3, 60, 100
5, 143040, Note_off_c, 3, 67, 100
5, 143040, Note_off_c, 3, 72, 100
5, 143040, Note_off_c, 3, 76, 100
5, 143280, Note_on_c, 3, 76, 100
5, 143280, Note_on_c, 3, 72, 100
5, 143280, Note_on_c, 3, 67, 100
5, 143280, Note_on_c, 3, 60, 100
5, 143600, Note_off_c, 3, 60, 100
5, 143600, Note_off_c, 3, 67, 100
5, 143600, Note_off_c, 3, 72, 100
5, 143600, Note_off_c, 3, 76, 100
5, 143760, Note_on_c, 3, 76, 100
5, 143760, Note_on_c, 3, 72, 100
5, 143760, Note_on_c, 3, 67, 100
5, 143760, Note_on_c, 3, 60, 100
5, 143920, Note_off_c, 3, 60, 100
5, 143920, Note_off_c, 3, 67, 100
5, 143920, Note_off_c, 3, 72, 100
5, 143920, Note_off_c, 3, 76, 100
5, 144480, Note_on_c, 3, 62, 100
5, 144480, Note_on_c, 3, 69, 100
5, 144480, Note_on_c, 3, 74, 100
5, 144480, Note_on_c, 3, 78, 100
5, 144960, Note_off_c, 3, 78, 100
5, 144960, Note_off_c, 3, 74, 100
5, 144960, Note_off_c, 3, 69, 100
5, 144960, Note_off_c, 3, 62, 100
5, 145200, Note_on_c, 3, 78, 100
5, 145200, Note_on_c, 3, 74, 100
5, 145200, Note_on_c, 3, 69, 100
5, 145200, Note_on_c, 3, 62, 100
5, 145520, Note_off_c, 3, 62, 100
5, 145520, Note_off_c, 3, 69, 100
5, 145520, Note_off_c, 3, 74, 100
5, 145520, Note_off_c, 3, 78, 100
5, 145680, Note_on_c, 3, 78, 100
5, 145680, Note_on_c, 3, 74, 100
5, 145680, Note_on_c, 3, 69, 100
5, 145680, Note_on_c, 3, 62, 100
5, 145840, Note_off_c, 3, 62, 100
5, 145840, Note_off_c, 3, 69, 100
5, 145840, Note_off_c, 3, 74, 100
5, 145840, Note_off_c, 3, 78, 100
5, 146400, Note_on_c, 3, 79, 100
5, 146400, Note_on_c, 3, 74, 100
5, 146400, Note_on_c, 3, 71, 100
5, 146400, Note_on_c, 3, 67, 100
5, 146400, Note_on_c, 3, 62, 100
5, 146400, Note_on_c, 3, 55, 100
5, 147040, Note_off_c, 3, 55, 100
5, 147040, Note_off_c, 3, 62, 100
5, 147040, Note_off_c, 3, 67, 100
5, 147040, Note_off_c, 3, 71, 100
5, 147040, Note_off_c, 3, 74, 100
5, 147040, Note_off_c, 3, 79, 100
5, 147120, Note_on_c, 3, 79, 100
5, 147120, Note_on_c, 3, 74, 100
5, 147120, Note_on_c, 3, 71, 100
5, 147120, Note_on_c, 3, 67, 100
5, 147120, Note_on_c, 3, 62, 100
5, 147120, Note_on_c, 3, 55, 100
5, 147440, Note_off_c, 3, 55, 100
5, 147440, Note_off_c, 3, 62, 100
5, 147440, Note_off_c, 3, 67, 100
5, 147440, Note_off_c, 3, 71, 100
5, 147440, Note_off_c, 3, 74, 100
5, 147440, Note_off_c, 3, 79, 100
5, 147600, Note_on_c, 3, 79, 100
5, 147600, Note_on_c, 3, 74, 100
5, 147600, Note_on_c, 3, 71, 100
5, 147600, Note_on_c, 3, 67, 100
5, 147600, Note_on_c, 3, 62, 100
5, 147600, Note_on_c, 3, 55, 100
5, 147760, Note_off_c, 3, 55, 100
5, 147760, Note_off_c, 3, 62, 100
5, 147760, Note_off_c, 3, 67, 100
5, 147760, Note_off_c, 3, 71, 100
5, 147760, Note_off_c, 3, 74, 100
5, 147760, Note_off_c, 3, 79, 100
5, 148320, Note_on_c, 3, 59, 100
5, 148320, Note_on_c, 3, 66, 100
5, 148320, Note_on_c, 3, 71, 100
5, 148320, Note_on_c, 3, 74, 100
5, 148960, Note_off_c, 3, 74, 100
5, 148960, Note_off_c, 3, 71, 100
5, 148960, Note_off_c, 3, 66, 100
5, 148960, Note_off_c, 3, 59, 100
5, 149040, Note_on_c, 3, 59, 100
5, 149040, Note_on_c, 3, 66, 100
5, 149040, Note_on_c, 3, 71, 100
5, 149040, Note_on_c, 3, 74, 100
5, 149520, Note_on_c, 3, 74, 100
5, 149520, Note_on_c, 3, 71, 100
5, 149520, Note_on_c, 3, 66, 100
5, 149520, Note_on_c, 3, 59, 100
5, 149680, Note_off_c, 3, 59, 100
5, 149680, Note_off_c, 3, 66, 100
5, 149680, Note_off_c, 3, 71, 100
5, 149680, Note_off_c, 3, 74, 100
5, 149680, Note_off_c, 3, 74, 100
5, 149680, Note_off_c, 3, 71, 100
5, 149680, Note_off_c, 3, 66, 100
5, 149680, Note_off_c, 3, 59, 100
5, 150240, Note_on_c, 3, 57, 100
5, 150240, Note_on_c, 3, 64, 100
5, 150240, Note_on_c, 3, 69, 100
5, 150240, Note_on_c, 3, 72, 100
5, 150240, Note_on_c, 3, 76, 100
5, 150720, Note_off_c, 3, 76, 100
5, 150720, Note_off_c, 3, 72, 100
5, 150720, Note_off_c, 3, 69, 100
5, 150720, Note_off_c, 3, 64, 100
5, 150720, Note_off_c, 3, 57, 100
5, 150960, Note_on_c, 3, 76, 100
5, 150960, Note_on_c, 3, 72, 100
5, 150960, Note_on_c, 3, 69, 100
5, 150960, Note_on_c, 3, 64, 100
5, 150960, Note_on_c, 3, 57, 100
5, 151280, Note_off_c, 3, 57, 100
5, 151280, Note_off_c, 3, 64, 100
5, 151280, Note_off_c, 3, 69, 100
5, 151280, Note_off_c, 3, 72, 100
5, 151280, Note_off_c, 3, 76, 100
5, 151440, Note_on_c, 3, 76, 100
5, 151440, Note_on_c, 3, 72, 100
5, 151440, Note_on_c, 3, 69, 100
5, 151440, Note_on_c, 3, 64, 100
5, 151440, Note_on_c, 3, 57, 100
5, 151600, Note_off_c, 3, 57, 100
5, 151600, Note_off_c, 3, 64, 100
5, 151600, Note_off_c, 3, 69, 100
5, 151600, Note_off_c, 3, 72, 100
5, 151600, Note_off_c, 3, 76, 100
5, 152160, Note_on_c, 3, 62, 100
5, 152160, Note_on_c, 3, 69, 100
5, 152160, Note_on_c, 3, 74, 100
5, 152160, Note_on_c, 3, 78, 100
5, 152640, Note_off_c, 3, 78, 100
5, 152640, Note_off_c, 3, 74, 100
5, 152640, Note_off_c, 3, 69, 100
5, 152640, Note_off_c, 3, 62, 100
5, 152880, Note_on_c, 3, 78, 100
5, 152880, Note_on_c, 3, 74, 100
5, 152880, Note_on_c, 3, 69, 100
5, 152880, Note_on_c, 3, 62, 100
5, 153200, Note_off_c, 3, 62, 100
5, 153200, Note_off_c, 3, 69, 100
5, 153200, Note_off_c, 3, 74, 100
5, 153200, Note_off_c, 3, 78, 100
5, 153360, Note_on_c, 3, 78, 100
5, 153360, Note_on_c, 3, 74, 100
5, 153360, Note_on_c, 3, 69, 100
5, 153360, Note_on_c, 3, 62, 100
5, 153520, Note_off_c, 3, 62, 100
5, 153520, Note_off_c, 3, 69, 100
5, 153520, Note_off_c, 3, 74, 100
5, 153520, Note_off_c, 3, 78, 100
5, 165600, Note_on_c, 3, 62, 100
5, 165600, Note_on_c, 3, 69, 100
5, 165600, Note_on_c, 3, 74, 100
5, 165600, Note_on_c, 3, 78, 100
5, 166240, Note_off_c, 3, 78, 100
5, 166240, Note_off_c, 3, 74, 100
5, 166240, Note_off_c, 3, 69, 100
5, 166240, Note_off_c, 3, 62, 100
5, 166320, Note_on_c, 3, 78, 100
5, 166320, Note_on_c, 3, 74, 100
5, 166320, Note_on_c, 3, 69, 100
5, 166320, Note_on_c, 3, 62, 100
5, 166960, Note_off_c, 3, 62, 100
5, 166960, Note_off_c, 3, 69, 100
5, 166960, Note_off_c, 3, 74, 100
5, 166960, Note_off_c, 3, 78, 100
5, 167520, Note_on_c, 3, 76, 100
5, 167520, Note_on_c, 3, 72, 100
5, 167520, Note_on_c, 3, 67, 100
5, 167520, Note_on_c, 3, 60, 100
5, 168000, Note_off_c, 3, 60, 100
5, 168000, Note_off_c, 3, 67, 100
5, 168000, Note_off_c, 3, 72, 100
5, 168000, Note_off_c, 3, 76, 100
5, 168240, Note_on_c, 3, 76, 100
5, 168240, Note_on_c, 3, 72, 100
5, 168240, Note_on_c, 3, 67, 100
5, 168240, Note_on_c, 3, 60, 100
5, 168720, Note_off_c, 3, 60, 100
5, 168720, Note_off_c, 3, 67, 100
5, 168720, Note_off_c, 3, 72, 100
5, 168720, Note_off_c, 3, 76, 100
5, 173280, Note_on_c, 3, 62, 100
5, 173280, Note_on_c, 3, 69, 100
5, 173280, Note_on_c, 3, 74, 100
5, 173280, Note_on_c, 3, 78, 100
5, 173920, Note_off_c, 3, 78, 100
5, 173920, Note_off_c, 3, 74, 100
5, 173920, Note_off_c, 3, 69, 100
5, 173920, Note_off_c, 3, 62, 100
5, 174000, Note_on_c, 3, 78, 100
5, 174000, Note_on_c, 3, 74, 100
5, 174000, Note_on_c, 3, 69, 100
5, 174000, Note_on_c, 3, 62, 100
5, 174640, Note_off_c, 3, 62, 100
5, 174640, Note_off_c, 3, 69, 100
5, 174640, Note_off_c, 3, 74, 100
5, 174640, Note_off_c, 3, 78, 100
5, 175200, Note_on_c, 3, 76, 100
5, 175200, Note_on_c, 3, 72, 100
5, 175200, Note_on_c, 3, 67, 100
5, 175200, Note_on_c, 3, 60, 100
5, 175680, Note_off_c, 3, 60, 100
5, 175680, Note_off_c, 3, 67, 100
5, 175680, Note_off_c, 3, 72, 100
5, 175680, Note_off_c, 3, 76, 100
5, 175920, Note_on_c, 3, 76, 100
5, 175920, Note_on_c, 3, 72, 100
5, 175920, Note_on_c, 3, 67, 100
5, 175920, Note_on_c, 3, 60, 100
5, 176400, Note_off_c, 3, 60, 100
5, 176400, Note_off_c, 3, 67, 100
5, 176400, Note_off_c, 3, 72, 100
5, 176400, Note_off_c, 3, 76, 100
5, 176400, End_track
6, 0, Start_track
6, 0, Title_t, "John's Acoustic"
6, 0, MIDI_port, 0
6, 0, Channel_prefix, 4
6, 0, Control_c, 4, 10, 127
6, 0, Program_c, 4, 24
6, 0, Control_c, 4, 0, 0
6, 11520, Note_on_c, 4, 55, 127
6, 11520, Note_on_c, 4, 62, 127
6, 11840, Note_off_c, 4, 62, 127
6, 11840, Note_off_c, 4, 55, 127
6, 12000, Note_on_c, 4, 67, 127
6, 12000, Note_on_c, 4, 62, 127
6, 12160, Note_off_c, 4, 62, 127
6, 12160, Note_off_c, 4, 67, 127
6, 12240, Note_on_c, 4, 62, 127
6, 12400, Note_off_c, 4, 62, 127
6, 12480, Note_on_c, 4, 67, 127
6, 12640, Note_off_c, 4, 67, 127
6, 12720, Note_on_c, 4, 65, 127
6, 12880, Note_off_c, 4, 65, 127
6, 12960, Note_on_c, 4, 62, 127
6, 12960, Note_on_c, 4, 55, 127
6, 13120, Note_off_c, 4, 55, 127
6, 13120, Note_off_c, 4, 62, 127
6, 13200, Note_on_c, 4, 72, 127
6, 13200, Note_on_c, 4, 62, 127
6, 13680, Note_off_c, 4, 62, 127
6, 13680, Note_off_c, 4, 72, 127
6, 13680, Note_on_c, 4, 71, 127
6, 13680, Note_on_c, 4, 65, 127
6, 14000, Note_off_c, 4, 65, 127
6, 14000, Note_off_c, 4, 71, 127
6, 14160, Note_on_c, 4, 69, 127
6, 14160, Note_on_c, 4, 62, 127
6, 14480, Note_off_c, 4, 62, 127
6, 14480, Note_off_c, 4, 69, 127
6, 14640, Note_on_c, 4, 71, 127
6, 14640, Note_on_c, 4, 65, 127
6, 14800, Note_off_c, 4, 65, 127
6, 14800, Note_off_c, 4, 71, 127
6, 14880, Note_on_c, 4, 69, 127
6, 14880, Note_on_c, 4, 62, 127
6, 15200, Note_off_c, 4, 62, 127
6, 15200, Note_off_c, 4, 69, 127
6, 15360, Note_on_c, 4, 55, 127
6, 15360, Note_on_c, 4, 62, 127
6, 15680, Note_off_c, 4, 62, 127
6, 15680, Note_off_c, 4, 55, 127
6, 15840, Note_on_c, 4, 67, 127
6, 15840, Note_on_c, 4, 62, 127
6, 16000, Note_off_c, 4, 62, 127
6, 16000, Note_off_c, 4, 67, 127
6, 16080, Note_on_c, 4, 62, 127
6, 16240, Note_off_c, 4, 62, 127
6, 16320, Note_on_c, 4, 67, 127
6, 16480, Note_off_c, 4, 67, 127
6, 16560, Note_on_c, 4, 65, 127
6, 16720, Note_off_c, 4, 65, 127
6, 16800, Note_on_c, 4, 62, 127
6, 16800, Note_on_c, 4, 55, 127
6, 16960, Note_off_c, 4, 55, 127
6, 16960, Note_off_c, 4, 62, 127
6, 17040, Note_on_c, 4, 72, 127
6, 17040, Note_on_c, 4, 62, 127
6, 17520, Note_off_c, 4, 62, 64
6, 17520, Note_off_c, 4, 72, 64
6, 17520, Note_on_c, 4, 71, 127
6, 17520, Note_on_c, 4, 65, 127
6, 17840, Note_off_c, 4, 65, 127
6, 17840, Note_off_c, 4, 71, 127
6, 18000, Note_on_c, 4, 69, 127
6, 18000, Note_on_c, 4, 62, 127
6, 18320, Note_off_c, 4, 62, 127
6, 18320, Note_off_c, 4, 69, 127
6, 18480, Note_on_c, 4, 71, 127
6, 18480, Note_on_c, 4, 65, 127
6, 18640, Note_off_c, 4, 65, 127
6, 18640, Note_off_c, 4, 71, 127
6, 18720, Note_on_c, 4, 69, 127
6, 18720, Note_on_c, 4, 62, 127
6, 19040, Note_off_c, 4, 62, 127
6, 19040, Note_off_c, 4, 69, 127
6, 19200, Note_on_c, 4, 55, 127
6, 19200, Note_on_c, 4, 62, 127
6, 19520, Note_off_c, 4, 62, 127
6, 19520, Note_off_c, 4, 55, 127
6, 19680, Note_on_c, 4, 67, 127
6, 19680, Note_on_c, 4, 62, 127
6, 19840, Note_off_c, 4, 62, 127
6, 19840, Note_off_c, 4, 67, 127
6, 19920, Note_on_c, 4, 62, 127
6, 20080, Note_off_c, 4, 62, 127
6, 20160, Note_on_c, 4, 67, 127
6, 20320, Note_off_c, 4, 67, 127
6, 20400, Note_on_c, 4, 65, 127
6, 20560, Note_off_c, 4, 65, 127
6, 20640, Note_on_c, 4, 62, 127
6, 20640, Note_on_c, 4, 55, 127
6, 20800, Note_off_c, 4, 55, 127
6, 20800, Note_off_c, 4, 62, 127
6, 20880, Note_on_c, 4, 72, 127
6, 20880, Note_on_c, 4, 62, 127
6, 21360, Note_off_c, 4, 62, 64
6, 21360, Note_off_c, 4, 72, 64
6, 21360, Note_on_c, 4, 71, 127
6, 21360, Note_on_c, 4, 65, 127
6, 21680, Note_off_c, 4, 65, 127
6, 21680, Note_off_c, 4, 71, 127
6, 21840, Note_on_c, 4, 69, 127
6, 21840, Note_on_c, 4, 62, 127
6, 22160, Note_off_c, 4, 62, 127
6, 22160, Note_off_c, 4, 69, 127
6, 22320, Note_on_c, 4, 71, 127
6, 22320, Note_on_c, 4, 65, 127
6, 22480, Note_off_c, 4, 65, 127
6, 22480, Note_off_c, 4, 71, 127
6, 22560, Note_on_c, 4, 69, 127
6, 22560, Note_on_c, 4, 62, 127
6, 22880, Note_off_c, 4, 62, 127
6, 22880, Note_off_c, 4, 69, 127
6, 23040, Note_on_c, 4, 62, 127
6, 23360, Note_off_c, 4, 62, 127
6, 23520, Note_on_c, 4, 74, 127
6, 23840, Note_off_c, 4, 74, 127
6, 24000, Note_on_c, 4, 74, 127
6, 24160, Note_off_c, 4, 74, 127
6, 24240, Note_on_c, 4, 72, 127
6, 24400, Note_off_c, 4, 72, 127
6, 24480, Note_on_c, 4, 69, 127
6, 24480, Note_on_c, 4, 62, 127
6, 24640, Note_off_c, 4, 62, 127
6, 24640, Note_off_c, 4, 69, 127
6, 24720, Note_on_c, 4, 79, 127
6, 24720, Note_on_c, 4, 69, 127
6, 25200, Note_off_c, 4, 69, 64
6, 25200, Note_off_c, 4, 79, 64
6, 25200, Note_on_c, 4, 69, 127
6, 25200, Note_on_c, 4, 78, 127
6, 25520, Note_off_c, 4, 78, 127
6, 25520, Note_off_c, 4, 69, 127
6, 25680, Note_on_c, 4, 76, 127
6, 25680, Note_on_c, 4, 69, 127
6, 26000, Note_off_c, 4, 69, 127
6, 26000, Note_off_c, 4, 76, 127
6, 26160, Note_on_c, 4, 78, 127
6, 26160, Note_on_c, 4, 72, 127
6, 26320, Note_off_c, 4, 72, 127
6, 26320, Note_off_c, 4, 78, 127
6, 26400, Note_on_c, 4, 76, 127
6, 26400, Note_on_c, 4, 69, 127
6, 26720, Note_off_c, 4, 69, 127
6, 26720, Note_off_c, 4, 76, 127
6, 26880, Note_on_c, 4, 62, 100
6, 26880, Note_on_c, 4, 69, 100
6, 26880, Note_on_c, 4, 74, 100
6, 26880, Note_on_c, 4, 78, 100
6, 27520, Note_off_c, 4, 78, 100
6, 27520, Note_off_c, 4, 74, 100
6, 27520, Note_off_c, 4, 69, 100
6, 27520, Note_off_c, 4, 62, 100
6, 27840, Note_on_c, 4, 62, 100
6, 27840, Note_on_c, 4, 69, 100
6, 27840, Note_on_c, 4, 74, 100
6, 27840, Note_on_c, 4, 78, 100
6, 28320, Note_on_c, 4, 62, 100
6, 28320, Note_on_c, 4, 69, 100
6, 28320, Note_on_c, 4, 74, 100
6, 28320, Note_on_c, 4, 78, 100
6, 28480, Note_off_c, 4, 78, 100
6, 28480, Note_off_c, 4, 74, 100
6, 28480, Note_off_c, 4, 69, 100
6, 28480, Note_off_c, 4, 62, 100
6, 28800, Note_off_c, 4, 62, 100
6, 28800, Note_off_c, 4, 69, 100
6, 28800, Note_off_c, 4, 74, 100
6, 28800, Note_off_c, 4, 78, 100
6, 28800, Note_on_c, 4, 60, 100
6, 28800, Note_on_c, 4, 67, 100
6, 28800, Note_on_c, 4, 72, 100
6, 28800, Note_on_c, 4, 76, 100
6, 29440, Note_off_c, 4, 76, 100
6, 29440, Note_off_c, 4, 72, 100
6, 29440, Note_off_c, 4, 67, 100
6, 29440, Note_off_c, 4, 60, 100
6, 29760, Note_on_c, 4, 76, 100
6, 29760, Note_on_c, 4, 72, 100
6, 29760, Note_on_c, 4, 67, 100
6, 29760, Note_on_c, 4, 60, 100
6, 30080, Note_off_c, 4, 60, 100
6, 30080, Note_off_c, 4, 67, 100
6, 30080, Note_off_c, 4, 72, 100
6, 30080, Note_off_c, 4, 76, 100
6, 30240, Note_on_c, 4, 76, 100
6, 30240, Note_on_c, 4, 72, 100
6, 30240, Note_on_c, 4, 67, 100
6, 30240, Note_on_c, 4, 60, 100
6, 30560, Note_off_c, 4, 60, 100
6, 30560, Note_off_c, 4, 67, 100
6, 30560, Note_off_c, 4, 72, 100
6, 30560, Note_off_c, 4, 76, 100
6, 30720, Note_on_c, 4, 55, 127
6, 30720, Note_on_c, 4, 62, 127
6, 31040, Note_off_c, 4, 62, 127
6, 31040, Note_off_c, 4, 55, 127
6, 31200, Note_on_c, 4, 67, 127
6, 31200, Note_on_c, 4, 62, 127
6, 31360, Note_off_c, 4, 62, 127
6, 31360, Note_off_c, 4, 67, 127
6, 31440, Note_on_c, 4, 62, 127
6, 31600, Note_off_c, 4, 62, 127
6, 31680, Note_on_c, 4, 67, 127
6, 31840, Note_off_c, 4, 67, 127
6, 31920, Note_on_c, 4, 65, 127
6, 32080, Note_off_c, 4, 65, 127
6, 32160, Note_on_c, 4, 62, 127
6, 32160, Note_on_c, 4, 55, 127
6, 32320, Note_off_c, 4, 55, 127
6, 32320, Note_off_c, 4, 62, 127
6, 32400, Note_on_c, 4, 72, 127
6, 32400, Note_on_c, 4, 62, 127
6, 32880, Note_off_c, 4, 62, 64
6, 32880, Note_off_c, 4, 72, 64
6, 32880, Note_on_c, 4, 71, 127
6, 32880, Note_on_c, 4, 65, 127
6, 33200, Note_off_c, 4, 65, 127
6, 33200, Note_off_c, 4, 71, 127
6, 33360, Note_on_c, 4, 69, 127
6, 33360, Note_on_c, 4, 62, 127
6, 33680, Note_off_c, 4, 62, 127
6, 33680, Note_off_c, 4, 69, 127
6, 33840, Note_on_c, 4, 71, 127
6, 33840, Note_on_c, 4, 65, 127
6, 34000, Note_off_c, 4, 65, 127
6, 34000, Note_off_c, 4, 71, 127
6, 34080, Note_on_c, 4, 69, 127
6, 34080, Note_on_c, 4, 62, 127
6, 34400, Note_off_c, 4, 62, 127
6, 34400, Note_off_c, 4, 69, 127
6, 34560, Note_on_c, 4, 55, 127
6, 34560, Note_on_c, 4, 62, 127
6, 34880, Note_off_c, 4, 62, 127
6, 34880, Note_off_c, 4, 55, 127
6, 35040, Note_on_c, 4, 67, 127
6, 35040, Note_on_c, 4, 62, 127
6, 35200, Note_off_c, 4, 62, 127
6, 35200, Note_off_c, 4, 67, 127
6, 35280, Note_on_c, 4, 62, 127
6, 35440, Note_off_c, 4, 62, 127
6, 35520, Note_on_c, 4, 67, 127
6, 35680, Note_off_c, 4, 67, 127
6, 35760, Note_on_c, 4, 65, 127
6, 35920, Note_off_c, 4, 65, 127
6, 36000, Note_on_c, 4, 62, 127
6, 36000, Note_on_c, 4, 55, 127
6, 36160, Note_off_c, 4, 55, 127
6, 36160, Note_off_c, 4, 62, 127
6, 36240, Note_on_c, 4, 72, 127
6, 36240, Note_on_c, 4, 62, 127
6, 36720, Note_off_c, 4, 62, 64
6, 36720, Note_off_c, 4, 72, 64
6, 36720, Note_on_c, 4, 71, 127
6, 36720, Note_on_c, 4, 65, 127
6, 37040, Note_off_c, 4, 65, 127
6, 37040, Note_off_c, 4, 71, 127
6, 37200, Note_on_c, 4, 69, 127
6, 37200, Note_on_c, 4, 62, 127
6, 37520, Note_off_c, 4, 62, 127
6, 37520, Note_off_c, 4, 69, 127
6, 37680, Note_on_c, 4, 71, 127
6, 37680, Note_on_c, 4, 65, 127
6, 37840, Note_off_c, 4, 65, 127
6, 37840, Note_off_c, 4, 71, 127
6, 37920, Note_on_c, 4, 69, 127
6, 37920, Note_on_c, 4, 62, 127
6, 38240, Note_off_c, 4, 62, 127
6, 38240, Note_off_c, 4, 69, 127
6, 38400, Note_on_c, 4, 55, 127
6, 38400, Note_on_c, 4, 62, 127
6, 38720, Note_off_c, 4, 62, 127
6, 38720, Note_off_c, 4, 55, 127
6, 38880, Note_on_c, 4, 67, 127
6, 38880, Note_on_c, 4, 62, 127
6, 39040, Note_off_c, 4, 62, 127
6, 39040, Note_off_c, 4, 67, 127
6, 39120, Note_on_c, 4, 62, 127
6, 39280, Note_off_c, 4, 62, 127
6, 39360, Note_on_c, 4, 67, 127
6, 39520, Note_off_c, 4, 67, 127
6, 39600, Note_on_c, 4, 65, 127
6, 39760, Note_off_c, 4, 65, 127
6, 39840, Note_on_c, 4, 62, 127
6, 39840, Note_on_c, 4, 55, 127
6, 40000, Note_off_c, 4, 55, 127
6, 40000, Note_off_c, 4, 62, 127
6, 40080, Note_on_c, 4, 72, 127
6, 40080, Note_on_c, 4, 62, 127
6, 40560, Note_off_c, 4, 62, 64
6, 40560, Note_off_c, 4, 72, 64
6, 40560, Note_on_c, 4, 71, 127
6, 40560, Note_on_c, 4, 65, 127
6, 40880, Note_off_c, 4, 65, 127
6, 40880, Note_off_c, 4, 71, 127
6, 41040, Note_on_c, 4, 69, 127
6, 41040, Note_on_c, 4, 62, 127
6, 41360, Note_off_c, 4, 62, 127
6, 41360, Note_off_c, 4, 69, 127
6, 41520, Note_on_c, 4, 71, 127
6, 41520, Note_on_c, 4, 65, 127
6, 41680, Note_off_c, 4, 65, 127
6, 41680, Note_off_c, 4, 71, 127
6, 41760, Note_on_c, 4, 69, 127
6, 41760, Note_on_c, 4, 62, 127
6, 42080, Note_off_c, 4, 62, 127
6, 42080, Note_off_c, 4, 69, 127
6, 42240, Note_on_c, 4, 62, 127
6, 42560, Note_off_c, 4, 62, 127
6, 42720, Note_on_c, 4, 74, 127
6, 43040, Note_off_c, 4, 74, 127
6, 43200, Note_on_c, 4, 74, 127
6, 43360, Note_off_c, 4, 74, 127
6, 43440, Note_on_c, 4, 72, 127
6, 43600, Note_off_c, 4, 72, 127
6, 43680, Note_on_c, 4, 69, 127
6, 43680, Note_on_c, 4, 62, 127
6, 43840, Note_off_c, 4, 62, 127
6, 43840, Note_off_c, 4, 69, 127
6, 43920, Note_on_c, 4, 79, 127
6, 43920, Note_on_c, 4, 69, 127
6, 44400, Note_off_c, 4, 69, 64
6, 44400, Note_off_c, 4, 79, 64
6, 44400, Note_on_c, 4, 69, 127
6, 44400, Note_on_c, 4, 78, 127
6, 44720, Note_off_c, 4, 78, 127
6, 44720, Note_off_c, 4, 69, 127
6, 44880, Note_on_c, 4, 76, 127
6, 44880, Note_on_c, 4, 69, 127
6, 45200, Note_off_c, 4, 69, 127
6, 45200, Note_off_c, 4, 76, 127
6, 45360, Note_on_c, 4, 78, 127
6, 45360, Note_on_c, 4, 72, 127
6, 45520, Note_off_c, 4, 72, 127
6, 45520, Note_off_c, 4, 78, 127
6, 45600, Note_on_c, 4, 76, 127
6, 45600, Note_on_c, 4, 69, 127
6, 45920, Note_off_c, 4, 69, 127
6, 45920, Note_off_c, 4, 76, 127
6, 46080, Note_on_c, 4, 62, 100
6, 46080, Note_on_c, 4, 69, 100
6, 46080, Note_on_c, 4, 74, 100
6, 46080, Note_on_c, 4, 78, 100
6, 46720, Note_off_c, 4, 78, 100
6, 46720, Note_off_c, 4, 74, 100
6, 46720, Note_off_c, 4, 69, 100
6, 46720, Note_off_c, 4, 62, 100
6, 47040, Note_on_c, 4, 62, 100
6, 47040, Note_on_c, 4, 69, 100
6, 47040, Note_on_c, 4, 74, 100
6, 47040, Note_on_c, 4, 78, 100
6, 47520, Note_on_c, 4, 62, 100
6, 47520, Note_on_c, 4, 69, 100
6, 47520, Note_on_c, 4, 74, 100
6, 47520, Note_on_c, 4, 78, 100
6, 47680, Note_off_c, 4, 78, 100
6, 47680, Note_off_c, 4, 74, 100
6, 47680, Note_off_c, 4, 69, 100
6, 47680, Note_off_c, 4, 62, 100
6, 48000, Note_off_c, 4, 62, 100
6, 48000, Note_off_c, 4, 69, 100
6, 48000, Note_off_c, 4, 74, 100
6, 48000, Note_off_c, 4, 78, 100
6, 48000, Note_on_c, 4, 60, 100
6, 48000, Note_on_c, 4, 67, 100
6, 48000, Note_on_c, 4, 72, 100
6, 48000, Note_on_c, 4, 76, 100
6, 48640, Note_off_c, 4, 76, 100
6, 48640, Note_off_c, 4, 72, 100
6, 48640, Note_off_c, 4, 67, 100
6, 48640, Note_off_c, 4, 60, 100
6, 48960, Note_on_c, 4, 76, 100
6, 48960, Note_on_c, 4, 72, 100
6, 48960, Note_on_c, 4, 67, 100
6, 48960, Note_on_c, 4, 60, 100
6, 49280, Note_off_c, 4, 60, 100
6, 49280, Note_off_c, 4, 67, 100
6, 49280, Note_off_c, 4, 72, 100
6, 49280, Note_off_c, 4, 76, 100
6, 49440, Note_on_c, 4, 76, 100
6, 49440, Note_on_c, 4, 72, 100
6, 49440, Note_on_c, 4, 67, 100
6, 49440, Note_on_c, 4, 60, 100
6, 49760, Note_off_c, 4, 60, 100
6, 49760, Note_off_c, 4, 67, 100
6, 49760, Note_off_c, 4, 72, 100
6, 49760, Note_off_c, 4, 76, 100
6, 49920, Note_on_c, 4, 55, 127
6, 49920, Note_on_c, 4, 62, 127
6, 50240, Note_off_c, 4, 62, 127
6, 50240, Note_off_c, 4, 55, 127
6, 50400, Note_on_c, 4, 67, 127
6, 50400, Note_on_c, 4, 62, 127
6, 50560, Note_off_c, 4, 62, 127
6, 50560, Note_off_c, 4, 67, 127
6, 50640, Note_on_c, 4, 62, 127
6, 50800, Note_off_c, 4, 62, 127
6, 50880, Note_on_c, 4, 67, 127
6, 51040, Note_off_c, 4, 67, 127
6, 51120, Note_on_c, 4, 65, 127
6, 51280, Note_off_c, 4, 65, 127
6, 51360, Note_on_c, 4, 62, 127
6, 51360, Note_on_c, 4, 55, 127
6, 51520, Note_off_c, 4, 55, 127
6, 51520, Note_off_c, 4, 62, 127
6, 51600, Note_on_c, 4, 72, 127
6, 51600, Note_on_c, 4, 62, 127
6, 52080, Note_off_c, 4, 62, 64
6, 52080, Note_off_c, 4, 72, 64
6, 52080, Note_on_c, 4, 71, 127
6, 52080, Note_on_c, 4, 65, 127
6, 52400, Note_off_c, 4, 65, 127
6, 52400, Note_off_c, 4, 71, 127
6, 52560, Note_on_c, 4, 69, 127
6, 52560, Note_on_c, 4, 62, 127
6, 52880, Note_off_c, 4, 62, 127
6, 52880, Note_off_c, 4, 69, 127
6, 53040, Note_on_c, 4, 71, 127
6, 53040, Note_on_c, 4, 65, 127
6, 53200, Note_off_c, 4, 65, 127
6, 53200, Note_off_c, 4, 71, 127
6, 53280, Note_on_c, 4, 69, 127
6, 53280, Note_on_c, 4, 62, 127
6, 53600, Note_off_c, 4, 62, 127
6, 53600, Note_off_c, 4, 69, 127
6, 53760, Note_on_c, 4, 55, 100
6, 53760, Note_on_c, 4, 62, 100
6, 53760, Note_on_c, 4, 67, 100
6, 53760, Note_on_c, 4, 71, 100
6, 53760, Note_on_c, 4, 74, 100
6, 53760, Note_on_c, 4, 79, 100
6, 54400, Note_off_c, 4, 79, 100
6, 54400, Note_off_c, 4, 74, 100
6, 54400, Note_off_c, 4, 71, 100
6, 54400, Note_off_c, 4, 67, 100
6, 54400, Note_off_c, 4, 62, 100
6, 54400, Note_off_c, 4, 55, 100
6, 54720, Note_on_c, 4, 79, 100
6, 54720, Note_on_c, 4, 74, 100
6, 54720, Note_on_c, 4, 71, 100
6, 54720, Note_on_c, 4, 67, 100
6, 54720, Note_on_c, 4, 62, 100
6, 54720, Note_on_c, 4, 55, 100
6, 55040, Note_off_c, 4, 55, 100
6, 55040, Note_off_c, 4, 62, 100
6, 55040, Note_off_c, 4, 67, 100
6, 55040, Note_off_c, 4, 71, 100
6, 55040, Note_off_c, 4, 74, 100
6, 55040, Note_off_c, 4, 79, 100
6, 55200, Note_on_c, 4, 79, 100
6, 55200, Note_on_c, 4, 74, 100
6, 55200, Note_on_c, 4, 71, 100
6, 55200, Note_on_c, 4, 67, 100
6, 55200, Note_on_c, 4, 62, 100
6, 55200, Note_on_c, 4, 55, 100
6, 55520, Note_off_c, 4, 55, 100
6, 55520, Note_off_c, 4, 62, 100
6, 55520, Note_off_c, 4, 67, 100
6, 55520, Note_off_c, 4, 71, 100
6, 55520, Note_off_c, 4, 74, 100
6, 55520, Note_off_c, 4, 79, 100
6, 55680, Note_on_c, 4, 59, 100
6, 55680, Note_on_c, 4, 66, 100
6, 55680, Note_on_c, 4, 71, 100
6, 55680, Note_on_c, 4, 74, 100
6, 56320, Note_off_c, 4, 74, 100
6, 56320, Note_off_c, 4, 71, 100
6, 56320, Note_off_c, 4, 66, 100
6, 56320, Note_off_c, 4, 59, 100
6, 56640, Note_on_c, 4, 59, 100
6, 56640, Note_on_c, 4, 66, 100
6, 56640, Note_on_c, 4, 71, 100
6, 56640, Note_on_c, 4, 74, 100
6, 57120, Note_on_c, 4, 74, 100
6, 57120, Note_on_c, 4, 71, 100
6, 57120, Note_on_c, 4, 66, 100
6, 57120, Note_on_c, 4, 59, 100
6, 57280, Note_off_c, 4, 74, 100
6, 57280, Note_off_c, 4, 71, 100
6, 57280, Note_off_c, 4, 66, 100
6, 57280, Note_off_c, 4, 59, 100
6, 57440, Note_off_c, 4, 74, 100
6, 57440, Note_off_c, 4, 71, 100
6, 57440, Note_off_c, 4, 66, 100
6, 57440, Note_off_c, 4, 59, 100
6, 57600, Note_on_c, 4, 60, 100
6, 57600, Note_on_c, 4, 67, 100
6, 57600, Note_on_c, 4, 72, 100
6, 57600, Note_on_c, 4, 76, 100
6, 58240, Note_off_c, 4, 76, 100
6, 58240, Note_off_c, 4, 72, 100
6, 58240, Note_off_c, 4, 67, 100
6, 58240, Note_off_c, 4, 60, 100
6, 58560, Note_on_c, 4, 76, 100
6, 58560, Note_on_c, 4, 72, 100
6, 58560, Note_on_c, 4, 67, 100
6, 58560, Note_on_c, 4, 60, 100
6, 58880, Note_off_c, 4, 60, 100
6, 58880, Note_off_c, 4, 67, 100
6, 58880, Note_off_c, 4, 72, 100
6, 58880, Note_off_c, 4, 76, 100
6, 59040, Note_on_c, 4, 76, 100
6, 59040, Note_on_c, 4, 72, 100
6, 59040, Note_on_c, 4, 67, 100
6, 59040, Note_on_c, 4, 60, 100
6, 59360, Note_off_c, 4, 60, 100
6, 59360, Note_off_c, 4, 67, 100
6, 59360, Note_off_c, 4, 72, 100
6, 59360, Note_off_c, 4, 76, 100
6, 59520, Note_on_c, 4, 62, 100
6, 59520, Note_on_c, 4, 69, 100
6, 59520, Note_on_c, 4, 74, 100
6, 59520, Note_on_c, 4, 78, 100
6, 60160, Note_off_c, 4, 78, 100
6, 60160, Note_off_c, 4, 74, 100
6, 60160, Note_off_c, 4, 69, 100
6, 60160, Note_off_c, 4, 62, 100
6, 60480, Note_on_c, 4, 78, 100
6, 60480, Note_on_c, 4, 74, 100
6, 60480, Note_on_c, 4, 69, 100
6, 60480, Note_on_c, 4, 62, 100
6, 60800, Note_off_c, 4, 62, 100
6, 60800, Note_off_c, 4, 69, 100
6, 60800, Note_off_c, 4, 74, 100
6, 60800, Note_off_c, 4, 78, 100
6, 60960, Note_on_c, 4, 78, 100
6, 60960, Note_on_c, 4, 74, 100
6, 60960, Note_on_c, 4, 69, 100
6, 60960, Note_on_c, 4, 62, 100
6, 61280, Note_off_c, 4, 62, 100
6, 61280, Note_off_c, 4, 69, 100
6, 61280, Note_off_c, 4, 74, 100
6, 61280, Note_off_c, 4, 78, 100
6, 61440, Note_on_c, 4, 55, 100
6, 61440, Note_on_c, 4, 62, 100
6, 61440, Note_on_c, 4, 67, 100
6, 61440, Note_on_c, 4, 71, 100
6, 61440, Note_on_c, 4, 74, 100
6, 61440, Note_on_c, 4, 79, 100
6, 62080, Note_off_c, 4, 79, 100
6, 62080, Note_off_c, 4, 74, 100
6, 62080, Note_off_c, 4, 71, 100
6, 62080, Note_off_c, 4, 67, 100
6, 62080, Note_off_c, 4, 62, 100
6, 62080, Note_off_c, 4, 55, 100
6, 62400, Note_on_c, 4, 79, 100
6, 62400, Note_on_c, 4, 74, 100
6, 62400, Note_on_c, 4, 71, 100
6, 62400, Note_on_c, 4, 67, 100
6, 62400, Note_on_c, 4, 62, 100
6, 62400, Note_on_c, 4, 55, 100
6, 62720, Note_off_c, 4, 55, 100
6, 62720, Note_off_c, 4, 62, 100
6, 62720, Note_off_c, 4, 67, 100
6, 62720, Note_off_c, 4, 71, 100
6, 62720, Note_off_c, 4, 74, 100
6, 62720, Note_off_c, 4, 79, 100
6, 62880, Note_on_c, 4, 79, 100
6, 62880, Note_on_c, 4, 74, 100
6, 62880, Note_on_c, 4, 71, 100
6, 62880, Note_on_c, 4, 67, 100
6, 62880, Note_on_c, 4, 62, 100
6, 62880, Note_on_c, 4, 55, 100
6, 63200, Note_off_c, 4, 55, 100
6, 63200, Note_off_c, 4, 62, 100
6, 63200, Note_off_c, 4, 67, 100
6, 63200, Note_off_c, 4, 71, 100
6, 63200, Note_off_c, 4, 74, 100
6, 63200, Note_off_c, 4, 79, 100
6, 63360, Note_on_c, 4, 59, 100
6, 63360, Note_on_c, 4, 66, 100
6, 63360, Note_on_c, 4, 71, 100
6, 63360, Note_on_c, 4, 74, 100
6, 64000, Note_off_c, 4, 74, 100
6, 64000, Note_off_c, 4, 71, 100
6, 64000, Note_off_c, 4, 66, 100
6, 64000, Note_off_c, 4, 59, 100
6, 64320, Note_on_c, 4, 59, 100
6, 64320, Note_on_c, 4, 66, 100
6, 64320, Note_on_c, 4, 71, 100
6, 64320, Note_on_c, 4, 74, 100
6, 64800, Note_on_c, 4, 74, 100
6, 64800, Note_on_c, 4, 71, 100
6, 64800, Note_on_c, 4, 66, 100
6, 64800, Note_on_c, 4, 59, 100
6, 64960, Note_off_c, 4, 74, 100
6, 64960, Note_off_c, 4, 71, 100
6, 64960, Note_off_c, 4, 66, 100
6, 64960, Note_off_c, 4, 59, 100
6, 65120, Note_off_c, 4, 74, 100
6, 65120, Note_off_c, 4, 71, 100
6, 65120, Note_off_c, 4, 66, 100
6, 65120, Note_off_c, 4, 59, 100
6, 65280, Note_on_c, 4, 57, 100
6, 65280, Note_on_c, 4, 64, 100
6, 65280, Note_on_c, 4, 69, 100
6, 65280, Note_on_c, 4, 72, 100
6, 65280, Note_on_c, 4, 76, 100
6, 65920, Note_off_c, 4, 76, 100
6, 65920, Note_off_c, 4, 72, 100
6, 65920, Note_off_c, 4, 69, 100
6, 65920, Note_off_c, 4, 64, 100
6, 65920, Note_off_c, 4, 57, 100
6, 66240, Note_on_c, 4, 76, 100
6, 66240, Note_on_c, 4, 72, 100
6, 66240, Note_on_c, 4, 69, 100
6, 66240, Note_on_c, 4, 64, 100
6, 66240, Note_on_c, 4, 57, 100
6, 66560, Note_off_c, 4, 57, 100
6, 66560, Note_off_c, 4, 64, 100
6, 66560, Note_off_c, 4, 69, 100
6, 66560, Note_off_c, 4, 72, 100
6, 66560, Note_off_c, 4, 76, 100
6, 66720, Note_on_c, 4, 76, 100
6, 66720, Note_on_c, 4, 72, 100
6, 66720, Note_on_c, 4, 69, 100
6, 66720, Note_on_c, 4, 64, 100
6, 66720, Note_on_c, 4, 57, 100
6, 67040, Note_off_c, 4, 57, 100
6, 67040, Note_off_c, 4, 64, 100
6, 67040, Note_off_c, 4, 69, 100
6, 67040, Note_off_c, 4, 72, 100
6, 67040, Note_off_c, 4, 76, 100
6, 67200, Note_on_c, 4, 62, 100
6, 67200, Note_on_c, 4, 69, 100
6, 67200, Note_on_c, 4, 74, 100
6, 67200, Note_on_c, 4, 78, 100
6, 67840, Note_off_c, 4, 78, 100
6, 67840, Note_off_c, 4, 74, 100
6, 67840, Note_off_c, 4, 69, 100
6, 67840, Note_off_c, 4, 62, 100
6, 68160, Note_on_c, 4, 78, 100
6, 68160, Note_on_c, 4, 74, 100
6, 68160, Note_on_c, 4, 69, 100
6, 68160, Note_on_c, 4, 62, 100
6, 68480, Note_off_c, 4, 62, 100
6, 68480, Note_off_c, 4, 69, 100
6, 68480, Note_off_c, 4, 74, 100
6, 68480, Note_off_c, 4, 78, 100
6, 68640, Note_on_c, 4, 78, 100
6, 68640, Note_on_c, 4, 74, 100
6, 68640, Note_on_c, 4, 69, 100
6, 68640, Note_on_c, 4, 62, 100
6, 68960, Note_off_c, 4, 62, 100
6, 68960, Note_off_c, 4, 69, 100
6, 68960, Note_off_c, 4, 74, 100
6, 68960, Note_off_c, 4, 78, 100
6, 69120, Note_on_c, 4, 55, 100
6, 69120, Note_on_c, 4, 62, 100
6, 69440, Note_off_c, 4, 62, 100
6, 69440, Note_off_c, 4, 55, 100
6, 69600, Note_on_c, 4, 67, 100
6, 69600, Note_on_c, 4, 62, 100
6, 69760, Note_off_c, 4, 62, 100
6, 69760, Note_off_c, 4, 67, 100
6, 69840, Note_on_c, 4, 62, 100
6, 70000, Note_off_c, 4, 62, 100
6, 70080, Note_on_c, 4, 67, 100
6, 70240, Note_off_c, 4, 67, 100
6, 70320, Note_on_c, 4, 65, 100
6, 70480, Note_off_c, 4, 65, 100
6, 70560, Note_on_c, 4, 62, 100
6, 70560, Note_on_c, 4, 55, 100
6, 70720, Note_off_c, 4, 55, 100
6, 70720, Note_off_c, 4, 62, 100
6, 70800, Note_on_c, 4, 72, 100
6, 70800, Note_on_c, 4, 62, 100
6, 71280, Note_off_c, 4, 62, 64
6, 71280, Note_off_c, 4, 72, 64
6, 71280, Note_on_c, 4, 71, 100
6, 71280, Note_on_c, 4, 65, 100
6, 71600, Note_off_c, 4, 65, 100
6, 71600, Note_off_c, 4, 71, 100
6, 71760, Note_on_c, 4, 69, 100
6, 71760, Note_on_c, 4, 62, 100
6, 72080, Note_off_c, 4, 62, 100
6, 72080, Note_off_c, 4, 69, 100
6, 72240, Note_on_c, 4, 71, 100
6, 72240, Note_on_c, 4, 65, 100
6, 72400, Note_off_c, 4, 65, 100
6, 72400, Note_off_c, 4, 71, 100
6, 72480, Note_on_c, 4, 69, 100
6, 72480, Note_on_c, 4, 62, 100
6, 72800, Note_off_c, 4, 62, 100
6, 72800, Note_off_c, 4, 69, 100
6, 72960, Note_on_c, 4, 55, 100
6, 72960, Note_on_c, 4, 62, 100
6, 73280, Note_off_c, 4, 62, 100
6, 73280, Note_off_c, 4, 55, 100
6, 73440, Note_on_c, 4, 67, 100
6, 73440, Note_on_c, 4, 62, 100
6, 73600, Note_off_c, 4, 62, 100
6, 73600, Note_off_c, 4, 67, 100
6, 73680, Note_on_c, 4, 62, 100
6, 73840, Note_off_c, 4, 62, 100
6, 73920, Note_on_c, 4, 67, 100
6, 74080, Note_off_c, 4, 67, 100
6, 74160, Note_on_c, 4, 65, 100
6, 74320, Note_off_c, 4, 65, 100
6, 74400, Note_on_c, 4, 62, 100
6, 74400, Note_on_c, 4, 55, 100
6, 74560, Note_off_c, 4, 55, 100
6, 74560, Note_off_c, 4, 62, 100
6, 74640, Note_on_c, 4, 72, 100
6, 74640, Note_on_c, 4, 62, 100
6, 75120, Note_off_c, 4, 62, 64
6, 75120, Note_off_c, 4, 72, 64
6, 75120, Note_on_c, 4, 71, 100
6, 75120, Note_on_c, 4, 65, 100
6, 75440, Note_off_c, 4, 65, 100
6, 75440, Note_off_c, 4, 71, 100
6, 75600, Note_on_c, 4, 69, 100
6, 75600, Note_on_c, 4, 62, 100
6, 75920, Note_off_c, 4, 62, 100
6, 75920, Note_off_c, 4, 69, 100
6, 76080, Note_on_c, 4, 71, 100
6, 76080, Note_on_c, 4, 65, 100
6, 76240, Note_off_c, 4, 65, 100
6, 76240, Note_off_c, 4, 71, 100
6, 76320, Note_on_c, 4, 69, 100
6, 76320, Note_on_c, 4, 62, 100
6, 76640, Note_off_c, 4, 62, 100
6, 76640, Note_off_c, 4, 69, 100
6, 76800, Note_on_c, 4, 62, 100
6, 77120, Note_off_c, 4, 62, 100
6, 77280, Note_on_c, 4, 74, 100
6, 77600, Note_off_c, 4, 74, 100
6, 77760, Note_on_c, 4, 74, 100
6, 77920, Note_off_c, 4, 74, 100
6, 78000, Note_on_c, 4, 72, 100
6, 78160, Note_off_c, 4, 72, 100
6, 78240, Note_on_c, 4, 69, 100
6, 78240, Note_on_c, 4, 62, 100
6, 78400, Note_off_c, 4, 62, 100
6, 78400, Note_off_c, 4, 69, 100
6, 78480, Note_on_c, 4, 79, 100
6, 78480, Note_on_c, 4, 69, 100
6, 78960, Note_off_c, 4, 69, 64
6, 78960, Note_off_c, 4, 79, 64
6, 78960, Note_on_c, 4, 69, 100
6, 78960, Note_on_c, 4, 78, 100
6, 79280, Note_off_c, 4, 78, 100
6, 79280, Note_off_c, 4, 69, 100
6, 79440, Note_on_c, 4, 76, 100
6, 79440, Note_on_c, 4, 69, 100
6, 79760, Note_off_c, 4, 69, 100
6, 79760, Note_off_c, 4, 76, 100
6, 79920, Note_on_c, 4, 78, 100
6, 79920, Note_on_c, 4, 72, 100
6, 80080, Note_off_c, 4, 72, 100
6, 80080, Note_off_c, 4, 78, 100
6, 80160, Note_on_c, 4, 76, 100
6, 80160, Note_on_c, 4, 69, 100
6, 80480, Note_off_c, 4, 69, 100
6, 80480, Note_off_c, 4, 76, 100
6, 80640, Note_on_c, 4, 62, 100
6, 80640, Note_on_c, 4, 69, 100
6, 80640, Note_on_c, 4, 74, 100
6, 80640, Note_on_c, 4, 78, 100
6, 81280, Note_off_c, 4, 78, 100
6, 81280, Note_off_c, 4, 74, 100
6, 81280, Note_off_c, 4, 69, 100
6, 81280, Note_off_c, 4, 62, 100
6, 81600, Note_on_c, 4, 62, 100
6, 81600, Note_on_c, 4, 69, 100
6, 81600, Note_on_c, 4, 74, 100
6, 81600, Note_on_c, 4, 78, 100
6, 82080, Note_on_c, 4, 62, 100
6, 82080, Note_on_c, 4, 69, 100
6, 82080, Note_on_c, 4, 74, 100
6, 82080, Note_on_c, 4, 78, 100
6, 82240, Note_off_c, 4, 78, 100
6, 82240, Note_off_c, 4, 74, 100
6, 82240, Note_off_c, 4, 69, 100
6, 82240, Note_off_c, 4, 62, 100
6, 82560, Note_off_c, 4, 62, 100
6, 82560, Note_off_c, 4, 69, 100
6, 82560, Note_off_c, 4, 74, 100
6, 82560, Note_off_c, 4, 78, 100
6, 82560, Note_on_c, 4, 60, 100
6, 82560, Note_on_c, 4, 67, 100
6, 82560, Note_on_c, 4, 72, 100
6, 82560, Note_on_c, 4, 76, 100
6, 83200, Note_off_c, 4, 76, 100
6, 83200, Note_off_c, 4, 72, 100
6, 83200, Note_off_c, 4, 67, 100
6, 83200, Note_off_c, 4, 60, 100
6, 83520, Note_on_c, 4, 76, 100
6, 83520, Note_on_c, 4, 72, 100
6, 83520, Note_on_c, 4, 67, 100
6, 83520, Note_on_c, 4, 60, 100
6, 83840, Note_off_c, 4, 60, 100
6, 83840, Note_off_c, 4, 67, 100
6, 83840, Note_off_c, 4, 72, 100
6, 83840, Note_off_c, 4, 76, 100
6, 84000, Note_on_c, 4, 76, 100
6, 84000, Note_on_c, 4, 72, 100
6, 84000, Note_on_c, 4, 67, 100
6, 84000, Note_on_c, 4, 60, 100
6, 84320, Note_off_c, 4, 60, 100
6, 84320, Note_off_c, 4, 67, 100
6, 84320, Note_off_c, 4, 72, 100
6, 84320, Note_off_c, 4, 76, 100
6, 84480, Note_on_c, 4, 55, 100
6, 84480, Note_on_c, 4, 62, 100
6, 84800, Note_off_c, 4, 62, 100
6, 84800, Note_off_c, 4, 55, 100
6, 84960, Note_on_c, 4, 67, 100
6, 84960, Note_on_c, 4, 62, 100
6, 85120, Note_off_c, 4, 62, 100
6, 85120, Note_off_c, 4, 67, 100
6, 85200, Note_on_c, 4, 62, 100
6, 85360, Note_off_c, 4, 62, 100
6, 85440, Note_on_c, 4, 67, 100
6, 85600, Note_off_c, 4, 67, 100
6, 85680, Note_on_c, 4, 65, 100
6, 85840, Note_off_c, 4, 65, 100
6, 85920, Note_on_c, 4, 62, 100
6, 85920, Note_on_c, 4, 55, 100
6, 86080, Note_off_c, 4, 55, 100
6, 86080, Note_off_c, 4, 62, 100
6, 86160, Note_on_c, 4, 72, 100
6, 86160, Note_on_c, 4, 62, 100
6, 86640, Note_off_c, 4, 62, 64
6, 86640, Note_off_c, 4, 72, 64
6, 86640, Note_on_c, 4, 71, 100
6, 86640, Note_on_c, 4, 65, 100
6, 86960, Note_off_c, 4, 65, 100
6, 86960, Note_off_c, 4, 71, 100
6, 87120, Note_on_c, 4, 69, 100
6, 87120, Note_on_c, 4, 62, 100
6, 87440, Note_off_c, 4, 62, 100
6, 87440, Note_off_c, 4, 69, 100
6, 87600, Note_on_c, 4, 71, 100
6, 87600, Note_on_c, 4, 65, 100
6, 87760, Note_off_c, 4, 65, 100
6, 87760, Note_off_c, 4, 71, 100
6, 87840, Note_on_c, 4, 69, 100
6, 87840, Note_on_c, 4, 62, 100
6, 88160, Note_off_c, 4, 62, 100
6, 88160, Note_off_c, 4, 69, 100
6, 88320, Note_on_c, 4, 55, 100
6, 88320, Note_on_c, 4, 62, 100
6, 88640, Note_off_c, 4, 62, 100
6, 88640, Note_off_c, 4, 55, 100
6, 88800, Note_on_c, 4, 67, 100
6, 88800, Note_on_c, 4, 62, 100
6, 88960, Note_off_c, 4, 62, 100
6, 88960, Note_off_c, 4, 67, 100
6, 89040, Note_on_c, 4, 62, 100
6, 89200, Note_off_c, 4, 62, 100
6, 89280, Note_on_c, 4, 67, 100
6, 89440, Note_off_c, 4, 67, 100
6, 89520, Note_on_c, 4, 65, 100
6, 89680, Note_off_c, 4, 65, 100
6, 89760, Note_on_c, 4, 62, 100
6, 89760, Note_on_c, 4, 55, 100
6, 89920, Note_off_c, 4, 55, 100
6, 89920, Note_off_c, 4, 62, 100
6, 90000, Note_on_c, 4, 72, 100
6, 90000, Note_on_c, 4, 62, 100
6, 90480, Note_off_c, 4, 62, 64
6, 90480, Note_off_c, 4, 72, 64
6, 90480, Note_on_c, 4, 71, 100
6, 90480, Note_on_c, 4, 65, 100
6, 90800, Note_off_c, 4, 65, 100
6, 90800, Note_off_c, 4, 71, 100
6, 90960, Note_on_c, 4, 69, 100
6, 90960, Note_on_c, 4, 62, 100
6, 91280, Note_off_c, 4, 62, 100
6, 91280, Note_off_c, 4, 69, 100
6, 91440, Note_on_c, 4, 71, 100
6, 91440, Note_on_c, 4, 65, 100
6, 91600, Note_off_c, 4, 65, 100
6, 91600, Note_off_c, 4, 71, 100
6, 91680, Note_on_c, 4, 69, 100
6, 91680, Note_on_c, 4, 62, 100
6, 92000, Note_off_c, 4, 62, 100
6, 92000, Note_off_c, 4, 69, 100
6, 92160, Note_on_c, 4, 55, 100
6, 92160, Note_on_c, 4, 62, 100
6, 92480, Note_off_c, 4, 62, 100
6, 92480, Note_off_c, 4, 55, 100
6, 92640, Note_on_c, 4, 67, 100
6, 92640, Note_on_c, 4, 62, 100
6, 92800, Note_off_c, 4, 62, 100
6, 92800, Note_off_c, 4, 67, 100
6, 92880, Note_on_c, 4, 62, 100
6, 93040, Note_off_c, 4, 62, 100
6, 93120, Note_on_c, 4, 67, 100
6, 93280, Note_off_c, 4, 67, 100
6, 93360, Note_on_c, 4, 65, 100
6, 93520, Note_off_c, 4, 65, 100
6, 93600, Note_on_c, 4, 62, 100
6, 93600, Note_on_c, 4, 55, 100
6, 93760, Note_off_c, 4, 55, 100
6, 93760, Note_off_c, 4, 62, 100
6, 93840, Note_on_c, 4, 72, 100
6, 93840, Note_on_c, 4, 62, 100
6, 94320, Note_off_c, 4, 62, 64
6, 94320, Note_off_c, 4, 72, 64
6, 94320, Note_on_c, 4, 71, 100
6, 94320, Note_on_c, 4, 65, 100
6, 94640, Note_off_c, 4, 65, 100
6, 94640, Note_off_c, 4, 71, 100
6, 94800, Note_on_c, 4, 69, 100
6, 94800, Note_on_c, 4, 62, 100
6, 95120, Note_off_c, 4, 62, 100
6, 95120, Note_off_c, 4, 69, 100
6, 95280, Note_on_c, 4, 71, 100
6, 95280, Note_on_c, 4, 65, 100
6, 95440, Note_off_c, 4, 65, 100
6, 95440, Note_off_c, 4, 71, 100
6, 95520, Note_on_c, 4, 69, 100
6, 95520, Note_on_c, 4, 62, 100
6, 95840, Note_off_c, 4, 62, 100
6, 95840, Note_off_c, 4, 69, 100
6, 96000, Note_on_c, 4, 62, 100
6, 96320, Note_off_c, 4, 62, 100
6, 96480, Note_on_c, 4, 74, 100
6, 96800, Note_off_c, 4, 74, 100
6, 96960, Note_on_c, 4, 74, 100
6, 97120, Note_off_c, 4, 74, 100
6, 97200, Note_on_c, 4, 72, 100
6, 97360, Note_off_c, 4, 72, 100
6, 97440, Note_on_c, 4, 69, 100
6, 97440, Note_on_c, 4, 62, 100
6, 97600, Note_off_c, 4, 62, 100
6, 97600, Note_off_c, 4, 69, 100
6, 97680, Note_on_c, 4, 79, 100
6, 97680, Note_on_c, 4, 69, 100
6, 98160, Note_off_c, 4, 69, 64
6, 98160, Note_off_c, 4, 79, 64
6, 98160, Note_on_c, 4, 69, 100
6, 98160, Note_on_c, 4, 78, 100
6, 98480, Note_off_c, 4, 78, 100
6, 98480, Note_off_c, 4, 69, 100
6, 98640, Note_on_c, 4, 76, 100
6, 98640, Note_on_c, 4, 69, 100
6, 98960, Note_off_c, 4, 69, 100
6, 98960, Note_off_c, 4, 76, 100
6, 99120, Note_on_c, 4, 78, 100
6, 99120, Note_on_c, 4, 72, 100
6, 99280, Note_off_c, 4, 72, 100
6, 99280, Note_off_c, 4, 78, 100
6, 99360, Note_on_c, 4, 76, 100
6, 99360, Note_on_c, 4, 69, 100
6, 99680, Note_off_c, 4, 69, 100
6, 99680, Note_off_c, 4, 76, 100
6, 99840, Note_on_c, 4, 62, 100
6, 100160, Note_off_c, 4, 62, 100
6, 100320, Note_on_c, 4, 74, 100
6, 100640, Note_off_c, 4, 74, 100
6, 100800, Note_on_c, 4, 74, 100
6, 100960, Note_off_c, 4, 74, 100
6, 101040, Note_on_c, 4, 72, 100
6, 101200, Note_off_c, 4, 72, 100
6, 101280, Note_on_c, 4, 69, 100
6, 101280, Note_on_c, 4, 62, 100
6, 101440, Note_off_c, 4, 62, 100
6, 101440, Note_off_c, 4, 69, 100
6, 101520, Note_on_c, 4, 79, 100
6, 101520, Note_on_c, 4, 69, 100
6, 102000, Note_off_c, 4, 69, 64
6, 102000, Note_off_c, 4, 79, 64
6, 102000, Note_on_c, 4, 69, 100
6, 102000, Note_on_c, 4, 78, 100
6, 102320, Note_off_c, 4, 78, 100
6, 102320, Note_off_c, 4, 69, 100
6, 102480, Note_on_c, 4, 76, 100
6, 102480, Note_on_c, 4, 69, 100
6, 102800, Note_off_c, 4, 69, 100
6, 102800, Note_off_c, 4, 76, 100
6, 102960, Note_on_c, 4, 78, 100
6, 102960, Note_on_c, 4, 72, 100
6, 103120, Note_off_c, 4, 72, 100
6, 103120, Note_off_c, 4, 78, 100
6, 103200, Note_on_c, 4, 76, 100
6, 103200, Note_on_c, 4, 69, 100
6, 103520, Note_off_c, 4, 69, 100
6, 103520, Note_off_c, 4, 76, 100
6, 103680, Note_on_c, 4, 60, 100
6, 104000, Note_off_c, 4, 60, 100
6, 104160, Note_on_c, 4, 72, 100
6, 104160, Note_on_c, 4, 67, 100
6, 104480, Note_off_c, 4, 67, 100
6, 104480, Note_off_c, 4, 72, 100
6, 104640, Note_on_c, 4, 72, 100
6, 104800, Note_off_c, 4, 72, 100
6, 104880, Note_on_c, 4, 70, 100
6, 104880, Note_on_c, 4, 67, 100
6, 105040, Note_off_c, 4, 67, 100
6, 105040, Note_off_c, 4, 70, 100
6, 105120, Note_on_c, 4, 67, 100
6, 105280, Note_off_c, 4, 67, 100
6, 105360, Note_on_c, 4, 77, 100
6, 105360, Note_on_c, 4, 70, 100
6, 105840, Note_off_c, 4, 70, 64
6, 105840, Note_off_c, 4, 77, 64
6, 105840, Note_on_c, 4, 76, 100
6, 105840, Note_on_c, 4, 70, 100
6, 106160, Note_off_c, 4, 70, 100
6, 106160, Note_off_c, 4, 76, 100
6, 106320, Note_on_c, 4, 74, 100
6, 106640, Note_off_c, 4, 74, 100
6, 106800, Note_on_c, 4, 76, 100
6, 106800, Note_on_c, 4, 70, 100
6, 106960, Note_off_c, 4, 70, 100
6, 106960, Note_off_c, 4, 76, 100
6, 107040, Note_on_c, 4, 74, 100
6, 107040, Note_on_c, 4, 67, 100
6, 107360, Note_off_c, 4, 67, 100
6, 107360, Note_off_c, 4, 74, 100
6, 107520, Note_on_c, 4, 55, 100
6, 107520, Note_on_c, 4, 62, 100
6, 107840, Note_off_c, 4, 62, 100
6, 107840, Note_off_c, 4, 55, 100
6, 108000, Note_on_c, 4, 67, 100
6, 108000, Note_on_c, 4, 62, 100
6, 108160, Note_off_c, 4, 62, 100
6, 108160, Note_off_c, 4, 67, 100
6, 108240, Note_on_c, 4, 62, 100
6, 108400, Note_off_c, 4, 62, 100
6, 108480, Note_on_c, 4, 67, 100
6, 108640, Note_off_c, 4, 67, 100
6, 108720, Note_on_c, 4, 65, 100
6, 108880, Note_off_c, 4, 65, 100
6, 108960, Note_on_c, 4, 62, 100
6, 108960, Note_on_c, 4, 55, 100
6, 109120, Note_off_c, 4, 55, 100
6, 109120, Note_off_c, 4, 62, 100
6, 109200, Note_on_c, 4, 72, 100
6, 109200, Note_on_c, 4, 62, 100
6, 109680, Note_off_c, 4, 62, 64
6, 109680, Note_off_c, 4, 72, 64
6, 109680, Note_on_c, 4, 71, 100
6, 109680, Note_on_c, 4, 65, 100
6, 110000, Note_off_c, 4, 65, 100
6, 110000, Note_off_c, 4, 71, 100
6, 110160, Note_on_c, 4, 69, 100
6, 110160, Note_on_c, 4, 62, 100
6, 110480, Note_off_c, 4, 62, 100
6, 110480, Note_off_c, 4, 69, 100
6, 110640, Note_on_c, 4, 71, 100
6, 110640, Note_on_c, 4, 65, 100
6, 110800, Note_off_c, 4, 65, 100
6, 110800, Note_off_c, 4, 71, 100
6, 110880, Note_on_c, 4, 69, 100
6, 110880, Note_on_c, 4, 62, 100
6, 111200, Note_off_c, 4, 62, 100
6, 111200, Note_off_c, 4, 69, 100
6, 111360, Note_on_c, 4, 55, 100
6, 111360, Note_on_c, 4, 62, 100
6, 111680, Note_off_c, 4, 62, 100
6, 111680, Note_off_c, 4, 55, 100
6, 111840, Note_on_c, 4, 67, 100
6, 111840, Note_on_c, 4, 62, 100
6, 112000, Note_off_c, 4, 62, 100
6, 112000, Note_off_c, 4, 67, 100
6, 112080, Note_on_c, 4, 62, 100
6, 112240, Note_off_c, 4, 62, 100
6, 112320, Note_on_c, 4, 67, 100
6, 112480, Note_off_c, 4, 67, 100
6, 112560, Note_on_c, 4, 65, 100
6, 112720, Note_off_c, 4, 65, 100
6, 112800, Note_on_c, 4, 62, 100
6, 112800, Note_on_c, 4, 55, 100
6, 112960, Note_off_c, 4, 55, 100
6, 112960, Note_off_c, 4, 62, 100
6, 113040, Note_on_c, 4, 72, 100
6, 113040, Note_on_c, 4, 62, 100
6, 113520, Note_off_c, 4, 62, 64
6, 113520, Note_off_c, 4, 72, 64
6, 113520, Note_on_c, 4, 71, 100
6, 113520, Note_on_c, 4, 65, 100
6, 113840, Note_off_c, 4, 65, 100
6, 113840, Note_off_c, 4, 71, 100
6, 114000, Note_on_c, 4, 69, 100
6, 114000, Note_on_c, 4, 62, 100
6, 114320, Note_off_c, 4, 62, 100
6, 114320, Note_off_c, 4, 69, 100
6, 114480, Note_on_c, 4, 71, 100
6, 114480, Note_on_c, 4, 65, 100
6, 114640, Note_off_c, 4, 65, 100
6, 114640, Note_off_c, 4, 71, 100
6, 114720, Note_on_c, 4, 69, 100
6, 114720, Note_on_c, 4, 62, 100
6, 115040, Note_off_c, 4, 62, 100
6, 115040, Note_off_c, 4, 69, 100
6, 115200, Note_on_c, 4, 55, 100
6, 115200, Note_on_c, 4, 62, 100
6, 115520, Note_off_c, 4, 62, 100
6, 115520, Note_off_c, 4, 55, 100
6, 115680, Note_on_c, 4, 67, 100
6, 115680, Note_on_c, 4, 62, 100
6, 115840, Note_off_c, 4, 62, 100
6, 115840, Note_off_c, 4, 67, 100
6, 115920, Note_on_c, 4, 62, 100
6, 116080, Note_off_c, 4, 62, 100
6, 116160, Note_on_c, 4, 67, 100
6, 116320, Note_off_c, 4, 67, 100
6, 116400, Note_on_c, 4, 65, 100
6, 116560, Note_off_c, 4, 65, 100
6, 116640, Note_on_c, 4, 62, 100
6, 116640, Note_on_c, 4, 55, 100
6, 116800, Note_off_c, 4, 55, 100
6, 116800, Note_off_c, 4, 62, 100
6, 116880, Note_on_c, 4, 72, 100
6, 116880, Note_on_c, 4, 62, 100
6, 117360, Note_off_c, 4, 62, 64
6, 117360, Note_off_c, 4, 72, 64
6, 117360, Note_on_c, 4, 71, 100
6, 117360, Note_on_c, 4, 65, 100
6, 117680, Note_off_c, 4, 65, 100
6, 117680, Note_off_c, 4, 71, 100
6, 117840, Note_on_c, 4, 69, 100
6, 117840, Note_on_c, 4, 62, 100
6, 118160, Note_off_c, 4, 62, 100
6, 118160, Note_off_c, 4, 69, 100
6, 118320, Note_on_c, 4, 71, 100
6, 118320, Note_on_c, 4, 65, 100
6, 118480, Note_off_c, 4, 65, 100
6, 118480, Note_off_c, 4, 71, 100
6, 118560, Note_on_c, 4, 69, 100
6, 118560, Note_on_c, 4, 62, 100
6, 118880, Note_off_c, 4, 62, 100
6, 118880, Note_off_c, 4, 69, 100
6, 119040, Note_on_c, 4, 55, 100
6, 119040, Note_on_c, 4, 62, 100
6, 119360, Note_off_c, 4, 62, 100
6, 119360, Note_off_c, 4, 55, 100
6, 119520, Note_on_c, 4, 67, 100
6, 119520, Note_on_c, 4, 62, 100
6, 119680, Note_off_c, 4, 62, 100
6, 119680, Note_off_c, 4, 67, 100
6, 119760, Note_on_c, 4, 62, 100
6, 119920, Note_off_c, 4, 62, 100
6, 120000, Note_on_c, 4, 67, 100
6, 120160, Note_off_c, 4, 67, 100
6, 120240, Note_on_c, 4, 65, 100
6, 120400, Note_off_c, 4, 65, 100
6, 120480, Note_on_c, 4, 62, 100
6, 120480, Note_on_c, 4, 55, 100
6, 120640, Note_off_c, 4, 55, 100
6, 120640, Note_off_c, 4, 62, 100
6, 120720, Note_on_c, 4, 72, 100
6, 120720, Note_on_c, 4, 62, 100
6, 121200, Note_off_c, 4, 62, 64
6, 121200, Note_off_c, 4, 72, 64
6, 121200, Note_on_c, 4, 71, 100
6, 121200, Note_on_c, 4, 65, 100
6, 121520, Note_off_c, 4, 65, 100
6, 121520, Note_off_c, 4, 71, 100
6, 121680, Note_on_c, 4, 69, 100
6, 121680, Note_on_c, 4, 62, 100
6, 122000, Note_off_c, 4, 62, 100
6, 122000, Note_off_c, 4, 69, 100
6, 122160, Note_on_c, 4, 71, 100
6, 122160, Note_on_c, 4, 65, 100
6, 122320, Note_off_c, 4, 65, 100
6, 122320, Note_off_c, 4, 71, 100
6, 122400, Note_on_c, 4, 69, 100
6, 122400, Note_on_c, 4, 62, 100
6, 122720, Note_off_c, 4, 62, 100
6, 122720, Note_off_c, 4, 69, 100
6, 122880, Note_on_c, 4, 55, 100
6, 122880, Note_on_c, 4, 62, 100
6, 123200, Note_off_c, 4, 62, 100
6, 123200, Note_off_c, 4, 55, 100
6, 123360, Note_on_c, 4, 67, 100
6, 123360, Note_on_c, 4, 62, 100
6, 123520, Note_off_c, 4, 62, 100
6, 123520, Note_off_c, 4, 67, 100
6, 123600, Note_on_c, 4, 62, 100
6, 123760, Note_off_c, 4, 62, 100
6, 123840, Note_on_c, 4, 67, 100
6, 124000, Note_off_c, 4, 67, 100
6, 124080, Note_on_c, 4, 65, 100
6, 124240, Note_off_c, 4, 65, 100
6, 124320, Note_on_c, 4, 62, 100
6, 124320, Note_on_c, 4, 55, 100
6, 124480, Note_off_c, 4, 55, 100
6, 124480, Note_off_c, 4, 62, 100
6, 124560, Note_on_c, 4, 72, 100
6, 124560, Note_on_c, 4, 62, 100
6, 125040, Note_off_c, 4, 62, 64
6, 125040, Note_off_c, 4, 72, 64
6, 125040, Note_on_c, 4, 71, 100
6, 125040, Note_on_c, 4, 65, 100
6, 125360, Note_off_c, 4, 65, 100
6, 125360, Note_off_c, 4, 71, 100
6, 125520, Note_on_c, 4, 69, 100
6, 125520, Note_on_c, 4, 62, 100
6, 125840, Note_off_c, 4, 62, 100
6, 125840, Note_off_c, 4, 69, 100
6, 126000, Note_on_c, 4, 71, 100
6, 126000, Note_on_c, 4, 65, 100
6, 126160, Note_off_c, 4, 65, 100
6, 126160, Note_off_c, 4, 71, 100
6, 126240, Note_on_c, 4, 69, 100
6, 126240, Note_on_c, 4, 62, 100
6, 126560, Note_off_c, 4, 62, 100
6, 126560, Note_off_c, 4, 69, 100
6, 126720, Note_on_c, 4, 62, 100
6, 127040, Note_off_c, 4, 62, 100
6, 127200, Note_on_c, 4, 74, 100
6, 127520, Note_off_c, 4, 74, 100
6, 127680, Note_on_c, 4, 74, 100
6, 127840, Note_off_c, 4, 74, 100
6, 127920, Note_on_c, 4, 72, 100
6, 128080, Note_off_c, 4, 72, 100
6, 128160, Note_on_c, 4, 69, 100
6, 128160, Note_on_c, 4, 62, 100
6, 128320, Note_off_c, 4, 62, 100
6, 128320, Note_off_c, 4, 69, 100
6, 128400, Note_on_c, 4, 79, 100
6, 128400, Note_on_c, 4, 69, 100
6, 128880, Note_off_c, 4, 69, 64
6, 128880, Note_off_c, 4, 79, 64
6, 128880, Note_on_c, 4, 69, 100
6, 128880, Note_on_c, 4, 78, 100
6, 129200, Note_off_c, 4, 78, 100
6, 129200, Note_off_c, 4, 69, 100
6, 129360, Note_on_c, 4, 76, 100
6, 129360, Note_on_c, 4, 69, 100
6, 129680, Note_off_c, 4, 69, 100
6, 129680, Note_off_c, 4, 76, 100
6, 129840, Note_on_c, 4, 78, 100
6, 129840, Note_on_c, 4, 72, 100
6, 130000, Note_off_c, 4, 72, 100
6, 130000, Note_off_c, 4, 78, 100
6, 130080, Note_on_c, 4, 76, 100
6, 130080, Note_on_c, 4, 69, 100
6, 130400, Note_off_c, 4, 69, 100
6, 130400, Note_off_c, 4, 76, 100
6, 130560, Note_on_c, 4, 62, 100
6, 130560, Note_on_c, 4, 69, 100
6, 130560, Note_on_c, 4, 74, 100
6, 130560, Note_on_c, 4, 78, 100
6, 131200, Note_off_c, 4, 78, 100
6, 131200, Note_off_c, 4, 74, 100
6, 131200, Note_off_c, 4, 69, 100
6, 131200, Note_off_c, 4, 62, 100
6, 131520, Note_on_c, 4, 62, 100
6, 131520, Note_on_c, 4, 69, 100
6, 131520, Note_on_c, 4, 74, 100
6, 131520, Note_on_c, 4, 78, 100
6, 132000, Note_on_c, 4, 62, 100
6, 132000, Note_on_c, 4, 69, 100
6, 132000, Note_on_c, 4, 74, 100
6, 132000, Note_on_c, 4, 78, 100
6, 132160, Note_off_c, 4, 78, 100
6, 132160, Note_off_c, 4, 74, 100
6, 132160, Note_off_c, 4, 69, 100
6, 132160, Note_off_c, 4, 62, 100
6, 132480, Note_off_c, 4, 62, 100
6, 132480, Note_off_c, 4, 69, 100
6, 132480, Note_off_c, 4, 74, 100
6, 132480, Note_off_c, 4, 78, 100
6, 132480, Note_on_c, 4, 60, 100
6, 132480, Note_on_c, 4, 67, 100
6, 132480, Note_on_c, 4, 72, 100
6, 132480, Note_on_c, 4, 76, 100
6, 133120, Note_off_c, 4, 76, 100
6, 133120, Note_off_c, 4, 72, 100
6, 133120, Note_off_c, 4, 67, 100
6, 133120, Note_off_c, 4, 60, 100
6, 133440, Note_on_c, 4, 76, 100
6, 133440, Note_on_c, 4, 72, 100
6, 133440, Note_on_c, 4, 67, 100
6, 133440, Note_on_c, 4, 60, 100
6, 133760, Note_off_c, 4, 60, 100
6, 133760, Note_off_c, 4, 67, 100
6, 133760, Note_off_c, 4, 72, 100
6, 133760, Note_off_c, 4, 76, 100
6, 133920, Note_on_c, 4, 76, 100
6, 133920, Note_on_c, 4, 72, 100
6, 133920, Note_on_c, 4, 67, 100
6, 133920, Note_on_c, 4, 60, 100
6, 134240, Note_off_c, 4, 60, 100
6, 134240, Note_off_c, 4, 67, 100
6, 134240, Note_off_c, 4, 72, 100
6, 134240, Note_off_c, 4, 76, 100
6, 134400, Note_on_c, 4, 55, 100
6, 134400, Note_on_c, 4, 62, 100
6, 134720, Note_off_c, 4, 62, 100
6, 134720, Note_off_c, 4, 55, 100
6, 134880, Note_on_c, 4, 67, 100
6, 134880, Note_on_c, 4, 62, 100
6, 135040, Note_off_c, 4, 62, 100
6, 135040, Note_off_c, 4, 67, 100
6, 135120, Note_on_c, 4, 62, 100
6, 135280, Note_off_c, 4, 62, 100
6, 135360, Note_on_c, 4, 67, 100
6, 135520, Note_off_c, 4, 67, 100
6, 135600, Note_on_c, 4, 65, 100
6, 135760, Note_off_c, 4, 65, 100
6, 135840, Note_on_c, 4, 62, 100
6, 135840, Note_on_c, 4, 55, 100
6, 136000, Note_off_c, 4, 55, 100
6, 136000, Note_off_c, 4, 62, 100
6, 136080, Note_on_c, 4, 72, 100
6, 136080, Note_on_c, 4, 62, 100
6, 136560, Note_off_c, 4, 62, 64
6, 136560, Note_off_c, 4, 72, 64
6, 136560, Note_on_c, 4, 71, 100
6, 136560, Note_on_c, 4, 65, 100
6, 136880, Note_off_c, 4, 65, 100
6, 136880, Note_off_c, 4, 71, 100
6, 137040, Note_on_c, 4, 69, 100
6, 137040, Note_on_c, 4, 62, 100
6, 137360, Note_off_c, 4, 62, 100
6, 137360, Note_off_c, 4, 69, 100
6, 137520, Note_on_c, 4, 71, 100
6, 137520, Note_on_c, 4, 65, 100
6, 137680, Note_off_c, 4, 65, 100
6, 137680, Note_off_c, 4, 71, 100
6, 137760, Note_on_c, 4, 69, 100
6, 137760, Note_on_c, 4, 62, 100
6, 138080, Note_off_c, 4, 62, 100
6, 138080, Note_off_c, 4, 69, 100
6, 138240, Note_on_c, 4, 55, 100
6, 138240, Note_on_c, 4, 62, 100
6, 138240, Note_on_c, 4, 67, 100
6, 138240, Note_on_c, 4, 71, 100
6, 138240, Note_on_c, 4, 74, 100
6, 138240, Note_on_c, 4, 79, 100
6, 138880, Note_off_c, 4, 79, 100
6, 138880, Note_off_c, 4, 74, 100
6, 138880, Note_off_c, 4, 71, 100
6, 138880, Note_off_c, 4, 67, 100
6, 138880, Note_off_c, 4, 62, 100
6, 138880, Note_off_c, 4, 55, 100
6, 139200, Note_on_c, 4, 79, 100
6, 139200, Note_on_c, 4, 74, 100
6, 139200, Note_on_c, 4, 71, 100
6, 139200, Note_on_c, 4, 67, 100
6, 139200, Note_on_c, 4, 62, 100
6, 139200, Note_on_c, 4, 55, 100
6, 139520, Note_off_c, 4, 55, 100
6, 139520, Note_off_c, 4, 62, 100
6, 139520, Note_off_c, 4, 67, 100
6, 139520, Note_off_c, 4, 71, 100
6, 139520, Note_off_c, 4, 74, 100
6, 139520, Note_off_c, 4, 79, 100
6, 139680, Note_on_c, 4, 79, 100
6, 139680, Note_on_c, 4, 74, 100
6, 139680, Note_on_c, 4, 71, 100
6, 139680, Note_on_c, 4, 67, 100
6, 139680, Note_on_c, 4, 62, 100
6, 139680, Note_on_c, 4, 55, 100
6, 140000, Note_off_c, 4, 55, 100
6, 140000, Note_off_c, 4, 62, 100
6, 140000, Note_off_c, 4, 67, 100
6, 140000, Note_off_c, 4, 71, 100
6, 140000, Note_off_c, 4, 74, 100
6, 140000, Note_off_c, 4, 79, 100
6, 140160, Note_on_c, 4, 59, 100
6, 140160, Note_on_c, 4, 66, 100
6, 140160, Note_on_c, 4, 71, 100
6, 140160, Note_on_c, 4, 74, 100
6, 140800, Note_off_c, 4, 74, 100
6, 140800, Note_off_c, 4, 71, 100
6, 140800, Note_off_c, 4, 66, 100
6, 140800, Note_off_c, 4, 59, 100
6, 141120, Note_on_c, 4, 59, 100
6, 141120, Note_on_c, 4, 66, 100
6, 141120, Note_on_c, 4, 71, 100
6, 141120, Note_on_c, 4, 74, 100
6, 141600, Note_on_c, 4, 74, 100
6, 141600, Note_on_c, 4, 71, 100
6, 141600, Note_on_c, 4, 66, 100
6, 141600, Note_on_c, 4, 59, 100
6, 141760, Note_off_c, 4, 74, 100
6, 141760, Note_off_c, 4, 71, 100
6, 141760, Note_off_c, 4, 66, 100
6, 141760, Note_off_c, 4, 59, 100
6, 141920, Note_off_c, 4, 74, 100
6, 141920, Note_off_c, 4, 71, 100
6, 141920, Note_off_c, 4, 66, 100
6, 141920, Note_off_c, 4, 59, 100
6, 142080, Note_on_c, 4, 60, 100
6, 142080, Note_on_c, 4, 67, 100
6, 142080, Note_on_c, 4, 72, 100
6, 142080, Note_on_c, 4, 76, 100
6, 142720, Note_off_c, 4, 76, 100
6, 142720, Note_off_c, 4, 72, 100
6, 142720, Note_off_c, 4, 67, 100
6, 142720, Note_off_c, 4, 60, 100
6, 143040, Note_on_c, 4, 76, 100
6, 143040, Note_on_c, 4, 72, 100
6, 143040, Note_on_c, 4, 67, 100
6, 143040, Note_on_c, 4, 60, 100
6, 143360, Note_off_c, 4, 60, 100
6, 143360, Note_off_c, 4, 67, 100
6, 143360, Note_off_c, 4, 72, 100
6, 143360, Note_off_c, 4, 76, 100
6, 143520, Note_on_c, 4, 76, 100
6, 143520, Note_on_c, 4, 72, 100
6, 143520, Note_on_c, 4, 67, 100
6, 143520, Note_on_c, 4, 60, 100
6, 143840, Note_off_c, 4, 60, 100
6, 143840, Note_off_c, 4, 67, 100
6, 143840, Note_off_c, 4, 72, 100
6, 143840, Note_off_c, 4, 76, 100
6, 144000, Note_on_c, 4, 62, 100
6, 144000, Note_on_c, 4, 69, 100
6, 144000, Note_on_c, 4, 74, 100
6, 144000, Note_on_c, 4, 78, 100
6, 144640, Note_off_c, 4, 78, 100
6, 144640, Note_off_c, 4, 74, 100
6, 144640, Note_off_c, 4, 69, 100
6, 144640, Note_off_c, 4, 62, 100
6, 144960, Note_on_c, 4, 78, 100
6, 144960, Note_on_c, 4, 74, 100
6, 144960, Note_on_c, 4, 69, 100
6, 144960, Note_on_c, 4, 62, 100
6, 145280, Note_off_c, 4, 62, 100
6, 145280, Note_off_c, 4, 69, 100
6, 145280, Note_off_c, 4, 74, 100
6, 145280, Note_off_c, 4, 78, 100
6, 145440, Note_on_c, 4, 78, 100
6, 145440, Note_on_c, 4, 74, 100
6, 145440, Note_on_c, 4, 69, 100
6, 145440, Note_on_c, 4, 62, 100
6, 145760, Note_off_c, 4, 62, 100
6, 145760, Note_off_c, 4, 69, 100
6, 145760, Note_off_c, 4, 74, 100
6, 145760, Note_off_c, 4, 78, 100
6, 145920, Note_on_c, 4, 55, 100
6, 145920, Note_on_c, 4, 62, 100
6, 145920, Note_on_c, 4, 67, 100
6, 145920, Note_on_c, 4, 71, 100
6, 145920, Note_on_c, 4, 74, 100
6, 145920, Note_on_c, 4, 79, 100
6, 146560, Note_off_c, 4, 79, 100
6, 146560, Note_off_c, 4, 74, 100
6, 146560, Note_off_c, 4, 71, 100
6, 146560, Note_off_c, 4, 67, 100
6, 146560, Note_off_c, 4, 62, 100
6, 146560, Note_off_c, 4, 55, 100
6, 146880, Note_on_c, 4, 79, 100
6, 146880, Note_on_c, 4, 74, 100
6, 146880, Note_on_c, 4, 71, 100
6, 146880, Note_on_c, 4, 67, 100
6, 146880, Note_on_c, 4, 62, 100
6, 146880, Note_on_c, 4, 55, 100
6, 147200, Note_off_c, 4, 55, 100
6, 147200, Note_off_c, 4, 62, 100
6, 147200, Note_off_c, 4, 67, 100
6, 147200, Note_off_c, 4, 71, 100
6, 147200, Note_off_c, 4, 74, 100
6, 147200, Note_off_c, 4, 79, 100
6, 147360, Note_on_c, 4, 79, 100
6, 147360, Note_on_c, 4, 74, 100
6, 147360, Note_on_c, 4, 71, 100
6, 147360, Note_on_c, 4, 67, 100
6, 147360, Note_on_c, 4, 62, 100
6, 147360, Note_on_c, 4, 55, 100
6, 147680, Note_off_c, 4, 55, 100
6, 147680, Note_off_c, 4, 62, 100
6, 147680, Note_off_c, 4, 67, 100
6, 147680, Note_off_c, 4, 71, 100
6, 147680, Note_off_c, 4, 74, 100
6, 147680, Note_off_c, 4, 79, 100
6, 147840, Note_on_c, 4, 59, 100
6, 147840, Note_on_c, 4, 66, 100
6, 147840, Note_on_c, 4, 71, 100
6, 147840, Note_on_c, 4, 74, 100
6, 148480, Note_off_c, 4, 74, 100
6, 148480, Note_off_c, 4, 71, 100
6, 148480, Note_off_c, 4, 66, 100
6, 148480, Note_off_c, 4, 59, 100
6, 148800, Note_on_c, 4, 59, 100
6, 148800, Note_on_c, 4, 66, 100
6, 148800, Note_on_c, 4, 71, 100
6, 148800, Note_on_c, 4, 74, 100
6, 149280, Note_on_c, 4, 74, 100
6, 149280, Note_on_c, 4, 71, 100
6, 149280, Note_on_c, 4, 66, 100
6, 149280, Note_on_c, 4, 59, 100
6, 149440, Note_off_c, 4, 74, 100
6, 149440, Note_off_c, 4, 71, 100
6, 149440, Note_off_c, 4, 66, 100
6, 149440, Note_off_c, 4, 59, 100
6, 149600, Note_off_c, 4, 74, 100
6, 149600, Note_off_c, 4, 71, 100
6, 149600, Note_off_c, 4, 66, 100
6, 149600, Note_off_c, 4, 59, 100
6, 149760, Note_on_c, 4, 57, 100
6, 149760, Note_on_c, 4, 64, 100
6, 149760, Note_on_c, 4, 69, 100
6, 149760, Note_on_c, 4, 72, 100
6, 149760, Note_on_c, 4, 76, 100
6, 150400, Note_off_c, 4, 76, 100
6, 150400, Note_off_c, 4, 72, 100
6, 150400, Note_off_c, 4, 69, 100
6, 150400, Note_off_c, 4, 64, 100
6, 150400, Note_off_c, 4, 57, 100
6, 150720, Note_on_c, 4, 76, 100
6, 150720, Note_on_c, 4, 72, 100
6, 150720, Note_on_c, 4, 69, 100
6, 150720, Note_on_c, 4, 64, 100
6, 150720, Note_on_c, 4, 57, 100
6, 151040, Note_off_c, 4, 57, 100
6, 151040, Note_off_c, 4, 64, 100
6, 151040, Note_off_c, 4, 69, 100
6, 151040, Note_off_c, 4, 72, 100
6, 151040, Note_off_c, 4, 76, 100
6, 151200, Note_on_c, 4, 76, 100
6, 151200, Note_on_c, 4, 72, 100
6, 151200, Note_on_c, 4, 69, 100
6, 151200, Note_on_c, 4, 64, 100
6, 151200, Note_on_c, 4, 57, 100
6, 151520, Note_off_c, 4, 57, 100
6, 151520, Note_off_c, 4, 64, 100
6, 151520, Note_off_c, 4, 69, 100
6, 151520, Note_off_c, 4, 72, 100
6, 151520, Note_off_c, 4, 76, 100
6, 151680, Note_on_c, 4, 62, 100
6, 151680, Note_on_c, 4, 69, 100
6, 151680, Note_on_c, 4, 74, 100
6, 151680, Note_on_c, 4, 78, 100
6, 152320, Note_off_c, 4, 78, 100
6, 152320, Note_off_c, 4, 74, 100
6, 152320, Note_off_c, 4, 69, 100
6, 152320, Note_off_c, 4, 62, 100
6, 152640, Note_on_c, 4, 78, 100
6, 152640, Note_on_c, 4, 74, 100
6, 152640, Note_on_c, 4, 69, 100
6, 152640, Note_on_c, 4, 62, 100
6, 152960, Note_off_c, 4, 62, 100
6, 152960, Note_off_c, 4, 69, 100
6, 152960, Note_off_c, 4, 74, 100
6, 152960, Note_off_c, 4, 78, 100
6, 153120, Note_on_c, 4, 78, 100
6, 153120, Note_on_c, 4, 74, 100
6, 153120, Note_on_c, 4, 69, 100
6, 153120, Note_on_c, 4, 62, 100
6, 153440, Note_off_c, 4, 62, 100
6, 153440, Note_off_c, 4, 69, 100
6, 153440, Note_off_c, 4, 74, 100
6, 153440, Note_off_c, 4, 78, 100
6, 153600, Note_on_c, 4, 55, 100
6, 153600, Note_on_c, 4, 62, 100
6, 153920, Note_off_c, 4, 62, 100
6, 153920, Note_off_c, 4, 55, 100
6, 154080, Note_on_c, 4, 67, 100
6, 154080, Note_on_c, 4, 62, 100
6, 154240, Note_off_c, 4, 62, 100
6, 154240, Note_off_c, 4, 67, 100
6, 154320, Note_on_c, 4, 62, 100
6, 154480, Note_off_c, 4, 62, 100
6, 154560, Note_on_c, 4, 67, 100
6, 154720, Note_off_c, 4, 67, 100
6, 154800, Note_on_c, 4, 65, 100
6, 154960, Note_off_c, 4, 65, 100
6, 155040, Note_on_c, 4, 62, 100
6, 155040, Note_on_c, 4, 55, 100
6, 155200, Note_off_c, 4, 55, 100
6, 155200, Note_off_c, 4, 62, 100
6, 155280, Note_on_c, 4, 72, 100
6, 155280, Note_on_c, 4, 62, 100
6, 155760, Note_off_c, 4, 62, 64
6, 155760, Note_off_c, 4, 72, 64
6, 155760, Note_on_c, 4, 71, 100
6, 155760, Note_on_c, 4, 65, 100
6, 156080, Note_off_c, 4, 65, 100
6, 156080, Note_off_c, 4, 71, 100
6, 156240, Note_on_c, 4, 69, 100
6, 156240, Note_on_c, 4, 62, 100
6, 156560, Note_off_c, 4, 62, 100
6, 156560, Note_off_c, 4, 69, 100
6, 156720, Note_on_c, 4, 71, 100
6, 156720, Note_on_c, 4, 65, 100
6, 156880, Note_off_c, 4, 65, 100
6, 156880, Note_off_c, 4, 71, 100
6, 156960, Note_on_c, 4, 69, 100
6, 156960, Note_on_c, 4, 62, 100
6, 157280, Note_off_c, 4, 62, 100
6, 157280, Note_off_c, 4, 69, 100
6, 157440, Note_on_c, 4, 55, 100
6, 157440, Note_on_c, 4, 62, 100
6, 157760, Note_off_c, 4, 62, 100
6, 157760, Note_off_c, 4, 55, 100
6, 157920, Note_on_c, 4, 67, 100
6, 157920, Note_on_c, 4, 62, 100
6, 158080, Note_off_c, 4, 62, 100
6, 158080, Note_off_c, 4, 67, 100
6, 158160, Note_on_c, 4, 62, 100
6, 158320, Note_off_c, 4, 62, 100
6, 158400, Note_on_c, 4, 67, 100
6, 158560, Note_off_c, 4, 67, 100
6, 158640, Note_on_c, 4, 65, 100
6, 158800, Note_off_c, 4, 65, 100
6, 158880, Note_on_c, 4, 62, 100
6, 158880, Note_on_c, 4, 55, 100
6, 159040, Note_off_c, 4, 55, 100
6, 159040, Note_off_c, 4, 62, 100
6, 159120, Note_on_c, 4, 72, 100
6, 159120, Note_on_c, 4, 62, 100
6, 159600, Note_off_c, 4, 62, 64
6, 159600, Note_off_c, 4, 72, 64
6, 159600, Note_on_c, 4, 71, 100
6, 159600, Note_on_c, 4, 65, 100
6, 159920, Note_off_c, 4, 65, 100
6, 159920, Note_off_c, 4, 71, 100
6, 160080, Note_on_c, 4, 69, 100
6, 160080, Note_on_c, 4, 62, 100
6, 160400, Note_off_c, 4, 62, 100
6, 160400, Note_off_c, 4, 69, 100
6, 160560, Note_on_c, 4, 71, 100
6, 160560, Note_on_c, 4, 65, 100
6, 160720, Note_off_c, 4, 65, 100
6, 160720, Note_off_c, 4, 71, 100
6, 160800, Note_on_c, 4, 69, 100
6, 160800, Note_on_c, 4, 62, 100
6, 161120, Note_off_c, 4, 62, 100
6, 161120, Note_off_c, 4, 69, 100
6, 161280, Note_on_c, 4, 62, 100
6, 161600, Note_off_c, 4, 62, 100
6, 161760, Note_on_c, 4, 74, 100
6, 162080, Note_off_c, 4, 74, 100
6, 162240, Note_on_c, 4, 74, 100
6, 162400, Note_off_c, 4, 74, 100
6, 162480, Note_on_c, 4, 72, 100
6, 162640, Note_off_c, 4, 72, 100
6, 162720, Note_on_c, 4, 69, 100
6, 162720, Note_on_c, 4, 62, 100
6, 162880, Note_off_c, 4, 62, 100
6, 162880, Note_off_c, 4, 69, 100
6, 162960, Note_on_c, 4, 79, 100
6, 162960, Note_on_c, 4, 69, 100
6, 163440, Note_off_c, 4, 69, 64
6, 163440, Note_off_c, 4, 79, 64
6, 163440, Note_on_c, 4, 69, 100
6, 163440, Note_on_c, 4, 78, 100
6, 163760, Note_off_c, 4, 78, 100
6, 163760, Note_off_c, 4, 69, 100
6, 163920, Note_on_c, 4, 76, 100
6, 163920, Note_on_c, 4, 69, 100
6, 164240, Note_off_c, 4, 69, 100
6, 164240, Note_off_c, 4, 76, 100
6, 164400, Note_on_c, 4, 78, 100
6, 164400, Note_on_c, 4, 72, 100
6, 164560, Note_off_c, 4, 72, 100
6, 164560, Note_off_c, 4, 78, 100
6, 164640, Note_on_c, 4, 76, 100
6, 164640, Note_on_c, 4, 69, 100
6, 164960, Note_off_c, 4, 69, 100
6, 164960, Note_off_c, 4, 76, 100
6, 165120, Note_on_c, 4, 62, 100
6, 165120, Note_on_c, 4, 69, 100
6, 165120, Note_on_c, 4, 74, 100
6, 165120, Note_on_c, 4, 78, 100
6, 165760, Note_off_c, 4, 78, 100
6, 165760, Note_off_c, 4, 74, 100
6, 165760, Note_off_c, 4, 69, 100
6, 165760, Note_off_c, 4, 62, 100
6, 166080, Note_on_c, 4, 62, 100
6, 166080, Note_on_c, 4, 69, 100
6, 166080, Note_on_c, 4, 74, 100
6, 166080, Note_on_c, 4, 78, 100
6, 166560, Note_on_c, 4, 62, 100
6, 166560, Note_on_c, 4, 69, 100
6, 166560, Note_on_c, 4, 74, 100
6, 166560, Note_on_c, 4, 78, 100
6, 166720, Note_off_c, 4, 78, 100
6, 166720, Note_off_c, 4, 74, 100
6, 166720, Note_off_c, 4, 69, 100
6, 166720, Note_off_c, 4, 62, 100
6, 167040, Note_off_c, 4, 62, 100
6, 167040, Note_off_c, 4, 69, 100
6, 167040, Note_off_c, 4, 74, 100
6, 167040, Note_off_c, 4, 78, 100
6, 167040, Note_on_c, 4, 60, 100
6, 167040, Note_on_c, 4, 67, 100
6, 167040, Note_on_c, 4, 72, 100
6, 167040, Note_on_c, 4, 76, 100
6, 167680, Note_off_c, 4, 76, 100
6, 167680, Note_off_c, 4, 72, 100
6, 167680, Note_off_c, 4, 67, 100
6, 167680, Note_off_c, 4, 60, 100
6, 168000, Note_on_c, 4, 76, 100
6, 168000, Note_on_c, 4, 72, 100
6, 168000, Note_on_c, 4, 67, 100
6, 168000, Note_on_c, 4, 60, 100
6, 168320, Note_off_c, 4, 60, 100
6, 168320, Note_off_c, 4, 67, 100
6, 168320, Note_off_c, 4, 72, 100
6, 168320, Note_off_c, 4, 76, 100
6, 168480, Note_on_c, 4, 76, 100
6, 168480, Note_on_c, 4, 72, 100
6, 168480, Note_on_c, 4, 67, 100
6, 168480, Note_on_c, 4, 60, 100
6, 168800, Note_off_c, 4, 60, 100
6, 168800, Note_off_c, 4, 67, 100
6, 168800, Note_off_c, 4, 72, 100
6, 168800, Note_off_c, 4, 76, 100
6, 168960, Note_on_c, 4, 55, 100
6, 168960, Note_on_c, 4, 62, 100
6, 169280, Note_off_c, 4, 62, 100
6, 169280, Note_off_c, 4, 55, 100
6, 169440, Note_on_c, 4, 67, 100
6, 169440, Note_on_c, 4, 62, 100
6, 169600, Note_off_c, 4, 62, 100
6, 169600, Note_off_c, 4, 67, 100
6, 169680, Note_on_c, 4, 62, 100
6, 169840, Note_off_c, 4, 62, 100
6, 169920, Note_on_c, 4, 67, 100
6, 170080, Note_off_c, 4, 67, 100
6, 170160, Note_on_c, 4, 65, 100
6, 170320, Note_off_c, 4, 65, 100
6, 170400, Note_on_c, 4, 62, 100
6, 170400, Note_on_c, 4, 55, 100
6, 170560, Note_off_c, 4, 55, 100
6, 170560, Note_off_c, 4, 62, 100
6, 170640, Note_on_c, 4, 72, 100
6, 170640, Note_on_c, 4, 62, 100
6, 171120, Note_off_c, 4, 62, 64
6, 171120, Note_off_c, 4, 72, 64
6, 171120, Note_on_c, 4, 71, 100
6, 171120, Note_on_c, 4, 65, 100
6, 171440, Note_off_c, 4, 65, 100
6, 171440, Note_off_c, 4, 71, 100
6, 171600, Note_on_c, 4, 69, 100
6, 171600, Note_on_c, 4, 62, 100
6, 171920, Note_off_c, 4, 62, 100
6, 171920, Note_off_c, 4, 69, 100
6, 172080, Note_on_c, 4, 71, 100
6, 172080, Note_on_c, 4, 65, 100
6, 172240, Note_off_c, 4, 65, 100
6, 172240, Note_off_c, 4, 71, 100
6, 172320, Note_on_c, 4, 69, 100
6, 172320, Note_on_c, 4, 62, 100
6, 172640, Note_off_c, 4, 62, 100
6, 172640, Note_off_c, 4, 69, 100
6, 172800, Note_on_c, 4, 62, 100
6, 172800, Note_on_c, 4, 69, 100
6, 172800, Note_on_c, 4, 74, 100
6, 172800, Note_on_c, 4, 78, 100
6, 173440, Note_off_c, 4, 78, 100
6, 173440, Note_off_c, 4, 74, 100
6, 173440, Note_off_c, 4, 69, 100
6, 173440, Note_off_c, 4, 62, 100
6, 173760, Note_on_c, 4, 62, 100
6, 173760, Note_on_c, 4, 69, 100
6, 173760, Note_on_c, 4, 74, 100
6, 173760, Note_on_c, 4, 78, 100
6, 174240, Note_on_c, 4, 62, 100
6, 174240, Note_on_c, 4, 69, 100
6, 174240, Note_on_c, 4, 74, 100
6, 174240, Note_on_c, 4, 78, 100
6, 174400, Note_off_c, 4, 78, 100
6, 174400, Note_off_c, 4, 74, 100
6, 174400, Note_off_c, 4, 69, 100
6, 174400, Note_off_c, 4, 62, 100
6, 174720, Note_off_c, 4, 62, 100
6, 174720, Note_off_c, 4, 69, 100
6, 174720, Note_off_c, 4, 74, 100
6, 174720, Note_off_c, 4, 78, 100
6, 174720, Note_on_c, 4, 60, 100
6, 174720, Note_on_c, 4, 67, 100
6, 174720, Note_on_c, 4, 72, 100
6, 174720, Note_on_c, 4, 76, 100
6, 175360, Note_off_c, 4, 76, 100
6, 175360, Note_off_c, 4, 72, 100
6, 175360, Note_off_c, 4, 67, 100
6, 175360, Note_off_c, 4, 60, 100
6, 175680, Note_on_c, 4, 76, 100
6, 175680, Note_on_c, 4, 72, 100
6, 175680, Note_on_c, 4, 67, 100
6, 175680, Note_on_c, 4, 60, 100
6, 176000, Note_off_c, 4, 60, 100
6, 176000, Note_off_c, 4, 67, 100
6, 176000, Note_off_c, 4, 72, 100
6, 176000, Note_off_c, 4, 76, 100
6, 176160, Note_on_c, 4, 76, 100
6, 176160, Note_on_c, 4, 72, 100
6, 176160, Note_on_c, 4, 67, 100
6, 176160, Note_on_c, 4, 60, 100
6, 176480, Note_off_c, 4, 60, 100
6, 176480, Note_off_c, 4, 67, 100
6, 176480, Note_off_c, 4, 72, 100
6, 176480, Note_off_c, 4, 76, 100
6, 176640, Note_on_c, 4, 55, 100
6, 176640, Note_on_c, 4, 62, 100
6, 176960, Note_off_c, 4, 62, 100
6, 176960, Note_off_c, 4, 55, 100
6, 177120, Note_on_c, 4, 67, 100
6, 177120, Note_on_c, 4, 62, 100
6, 177280, Note_off_c, 4, 62, 100
6, 177280, Note_off_c, 4, 67, 100
6, 177360, Note_on_c, 4, 62, 100
6, 177520, Note_off_c, 4, 62, 100
6, 177600, Note_on_c, 4, 67, 100
6, 177760, Note_off_c, 4, 67, 100
6, 177840, Note_on_c, 4, 65, 100
6, 178000, Note_off_c, 4, 65, 100
6, 178080, Note_on_c, 4, 62, 100
6, 178080, Note_on_c, 4, 55, 100
6, 178240, Note_off_c, 4, 55, 100
6, 178240, Note_off_c, 4, 62, 100
6, 178320, Note_on_c, 4, 72, 100
6, 178320, Note_on_c, 4, 62, 100
6, 178800, Note_off_c, 4, 62, 64
6, 178800, Note_off_c, 4, 72, 64
6, 178800, Note_on_c, 4, 71, 100
6, 178800, Note_on_c, 4, 65, 100
6, 179120, Note_off_c, 4, 65, 100
6, 179120, Note_off_c, 4, 71, 100
6, 179280, Note_on_c, 4, 69, 100
6, 179280, Note_on_c, 4, 62, 100
6, 179600, Note_off_c, 4, 62, 100
6, 179600, Note_off_c, 4, 69, 100
6, 179760, Note_on_c, 4, 71, 100
6, 179760, Note_on_c, 4, 65, 100
6, 179920, Note_off_c, 4, 65, 100
6, 179920, Note_off_c, 4, 71, 100
6, 180000, Note_on_c, 4, 69, 100
6, 180000, Note_on_c, 4, 62, 100
6, 180320, Note_off_c, 4, 62, 100
6, 180320, Note_off_c, 4, 69, 100
6, 180480, Note_on_c, 4, 55, 100
6, 180480, Note_on_c, 4, 62, 100
6, 180800, Note_off_c, 4, 62, 100
6, 180800, Note_off_c, 4, 55, 100
6, 180960, Note_on_c, 4, 67, 100
6, 180960, Note_on_c, 4, 62, 100
6, 181120, Note_off_c, 4, 62, 100
6, 181120, Note_off_c, 4, 67, 100
6, 181200, Note_on_c, 4, 62, 100
6, 181360, Note_off_c, 4, 62, 100
6, 181440, Note_on_c, 4, 67, 100
6, 181600, Note_off_c, 4, 67, 100
6, 181680, Note_on_c, 4, 65, 100
6, 181840, Note_off_c, 4, 65, 100
6, 181920, Note_on_c, 4, 62, 100
6, 181920, Note_on_c, 4, 55, 100
6, 182080, Note_off_c, 4, 55, 100
6, 182080, Note_off_c, 4, 62, 100
6, 182160, Note_on_c, 4, 72, 100
6, 182160, Note_on_c, 4, 62, 100
6, 182640, Note_off_c, 4, 62, 64
6, 182640, Note_off_c, 4, 72, 64
6, 182640, Note_on_c, 4, 71, 100
6, 182640, Note_on_c, 4, 65, 100
6, 182960, Note_off_c, 4, 65, 100
6, 182960, Note_off_c, 4, 71, 100
6, 183120, Note_on_c, 4, 69, 100
6, 183120, Note_on_c, 4, 62, 100
6, 183440, Note_off_c, 4, 62, 100
6, 183440, Note_off_c, 4, 69, 100
6, 183600, Note_on_c, 4, 71, 100
6, 183600, Note_on_c, 4, 65, 100
6, 183760, Note_off_c, 4, 65, 100
6, 183760, Note_off_c, 4, 71, 100
6, 183840, Note_on_c, 4, 69, 100
6, 183840, Note_on_c, 4, 62, 100
6, 184160, Note_off_c, 4, 62, 100
6, 184160, Note_off_c, 4, 69, 100
6, 184320, Note_on_c, 4, 55, 100
6, 184320, Note_on_c, 4, 62, 100
6, 184320, Note_on_c, 4, 67, 100
6, 184320, Note_on_c, 4, 71, 100
6, 184320, Note_on_c, 4, 74, 100
6, 184320, Note_on_c, 4, 79, 100
6, 185605, Note_off_c, 4, 79, 100
6, 185605, Note_off_c, 4, 74, 100
6, 185605, Note_off_c, 4, 71, 100
6, 185605, Note_off_c, 4, 67, 100
6, 185605, Note_off_c, 4, 62, 100
6, 185605, Note_off_c, 4, 55, 100
6, 185605, End_track
7, 0, Start_track
7, 0, Title_t, "John's Acoustic"
7, 0, MIDI_port, 0
7, 0, Channel_prefix, 5
7, 0, Control_c, 5, 10, 127
7, 0, Program_c, 5, 24
7, 0, Control_c, 5, 0, 0
7, 27360, Note_on_c, 5, 62, 100
7, 27360, Note_on_c, 5, 69, 100
7, 27360, Note_on_c, 5, 74, 100
7, 27360, Note_on_c, 5, 78, 100
7, 28000, Note_off_c, 5, 78, 100
7, 28000, Note_off_c, 5, 74, 100
7, 28000, Note_off_c, 5, 69, 100
7, 28000, Note_off_c, 5, 62, 100
7, 28080, Note_on_c, 5, 78, 100
7, 28080, Note_on_c, 5, 74, 100
7, 28080, Note_on_c, 5, 69, 100
7, 28080, Note_on_c, 5, 62, 100
7, 28720, Note_off_c, 5, 62, 100
7, 28720, Note_off_c, 5, 69, 100
7, 28720, Note_off_c, 5, 74, 100
7, 28720, Note_off_c, 5, 78, 100
7, 29280, Note_on_c, 5, 76, 100
7, 29280, Note_on_c, 5, 72, 100
7, 29280, Note_on_c, 5, 67, 100
7, 29280, Note_on_c, 5, 60, 100
7, 29760, Note_off_c, 5, 60, 100
7, 29760, Note_off_c, 5, 67, 100
7, 29760, Note_off_c, 5, 72, 100
7, 29760, Note_off_c, 5, 76, 100
7, 30000, Note_on_c, 5, 76, 100
7, 30000, Note_on_c, 5, 72, 100
7, 30000, Note_on_c, 5, 67, 100
7, 30000, Note_on_c, 5, 60, 100
7, 30480, Note_off_c, 5, 60, 100
7, 30480, Note_off_c, 5, 67, 100
7, 30480, Note_off_c, 5, 72, 100
7, 30480, Note_off_c, 5, 76, 100
7, 46560, Note_on_c, 5, 62, 100
7, 46560, Note_on_c, 5, 69, 100
7, 46560, Note_on_c, 5, 74, 100
7, 46560, Note_on_c, 5, 78, 100
7, 47200, Note_off_c, 5, 78, 100
7, 47200, Note_off_c, 5, 74, 100
7, 47200, Note_off_c, 5, 69, 100
7, 47200, Note_off_c, 5, 62, 100
7, 47280, Note_on_c, 5, 78, 100
7, 47280, Note_on_c, 5, 74, 100
7, 47280, Note_on_c, 5, 69, 100
7, 47280, Note_on_c, 5, 62, 100
7, 47920, Note_off_c, 5, 62, 100
7, 47920, Note_off_c, 5, 69, 100
7, 47920, Note_off_c, 5, 74, 100
7, 47920, Note_off_c, 5, 78, 100
7, 48480, Note_on_c, 5, 76, 100
7, 48480, Note_on_c, 5, 72, 100
7, 48480, Note_on_c, 5, 67, 100
7, 48480, Note_on_c, 5, 60, 100
7, 48960, Note_off_c, 5, 60, 100
7, 48960, Note_off_c, 5, 67, 100
7, 48960, Note_off_c, 5, 72, 100
7, 48960, Note_off_c, 5, 76, 100
7, 49200, Note_on_c, 5, 76, 100
7, 49200, Note_on_c, 5, 72, 100
7, 49200, Note_on_c, 5, 67, 100
7, 49200, Note_on_c, 5, 60, 100
7, 49680, Note_off_c, 5, 60, 100
7, 49680, Note_off_c, 5, 67, 100
7, 49680, Note_off_c, 5, 72, 100
7, 49680, Note_off_c, 5, 76, 100
7, 54240, Note_on_c, 5, 79, 100
7, 54240, Note_on_c, 5, 74, 100
7, 54240, Note_on_c, 5, 71, 100
7, 54240, Note_on_c, 5, 67, 100
7, 54240, Note_on_c, 5, 62, 100
7, 54240, Note_on_c, 5, 55, 100
7, 54880, Note_off_c, 5, 55, 100
7, 54880, Note_off_c, 5, 62, 100
7, 54880, Note_off_c, 5, 67, 100
7, 54880, Note_off_c, 5, 71, 100
7, 54880, Note_off_c, 5, 74, 100
7, 54880, Note_off_c, 5, 79, 100
7, 54960, Note_on_c, 5, 79, 100
7, 54960, Note_on_c, 5, 74, 100
7, 54960, Note_on_c, 5, 71, 100
7, 54960, Note_on_c, 5, 67, 100
7, 54960, Note_on_c, 5, 62, 100
7, 54960, Note_on_c, 5, 55, 100
7, 55280, Note_off_c, 5, 55, 100
7, 55280, Note_off_c, 5, 62, 100
7, 55280, Note_off_c, 5, 67, 100
7, 55280, Note_off_c, 5, 71, 100
7, 55280, Note_off_c, 5, 74, 100
7, 55280, Note_off_c, 5, 79, 100
7, 55440, Note_on_c, 5, 79, 100
7, 55440, Note_on_c, 5, 74, 100
7, 55440, Note_on_c, 5, 71, 100
7, 55440, Note_on_c, 5, 67, 100
7, 55440, Note_on_c, 5, 62, 100
7, 55440, Note_on_c, 5, 55, 100
7, 55600, Note_off_c, 5, 55, 100
7, 55600, Note_off_c, 5, 62, 100
7, 55600, Note_off_c, 5, 67, 100
7, 55600, Note_off_c, 5, 71, 100
7, 55600, Note_off_c, 5, 74, 100
7, 55600, Note_off_c, 5, 79, 100
7, 56160, Note_on_c, 5, 59, 100
7, 56160, Note_on_c, 5, 66, 100
7, 56160, Note_on_c, 5, 71, 100
7, 56160, Note_on_c, 5, 74, 100
7, 56800, Note_off_c, 5, 74, 100
7, 56800, Note_off_c, 5, 71, 100
7, 56800, Note_off_c, 5, 66, 100
7, 56800, Note_off_c, 5, 59, 100
7, 56880, Note_on_c, 5, 59, 100
7, 56880, Note_on_c, 5, 66, 100
7, 56880, Note_on_c, 5, 71, 100
7, 56880, Note_on_c, 5, 74, 100
7, 57360, Note_on_c, 5, 74, 100
7, 57360, Note_on_c, 5, 71, 100
7, 57360, Note_on_c, 5, 66, 100
7, 57360, Note_on_c, 5, 59, 100
7, 57520, Note_off_c, 5, 59, 100
7, 57520, Note_off_c, 5, 66, 100
7, 57520, Note_off_c, 5, 71, 100
7, 57520, Note_off_c, 5, 74, 100
7, 57520, Note_off_c, 5, 74, 100
7, 57520, Note_off_c, 5, 71, 100
7, 57520, Note_off_c, 5, 66, 100
7, 57520, Note_off_c, 5, 59, 100
7, 58080, Note_on_c, 5, 76, 100
7, 58080, Note_on_c, 5, 72, 100
7, 58080, Note_on_c, 5, 67, 100
7, 58080, Note_on_c, 5, 60, 100
7, 58560, Note_off_c, 5, 60, 100
7, 58560, Note_off_c, 5, 67, 100
7, 58560, Note_off_c, 5, 72, 100
7, 58560, Note_off_c, 5, 76, 100
7, 58800, Note_on_c, 5, 76, 100
7, 58800, Note_on_c, 5, 72, 100
7, 58800, Note_on_c, 5, 67, 100
7, 58800, Note_on_c, 5, 60, 100
7, 59120, Note_off_c, 5, 60, 100
7, 59120, Note_off_c, 5, 67, 100
7, 59120, Note_off_c, 5, 72, 100
7, 59120, Note_off_c, 5, 76, 100
7, 59280, Note_on_c, 5, 76, 100
7, 59280, Note_on_c, 5, 72, 100
7, 59280, Note_on_c, 5, 67, 100
7, 59280, Note_on_c, 5, 60, 100
7, 59440, Note_off_c, 5, 60, 100
7, 59440, Note_off_c, 5, 67, 100
7, 59440, Note_off_c, 5, 72, 100
7, 59440, Note_off_c, 5, 76, 100
7, 60000, Note_on_c, 5, 62, 100
7, 60000, Note_on_c, 5, 69, 100
7, 60000, Note_on_c, 5, 74, 100
7, 60000, Note_on_c, 5, 78, 100
7, 60480, Note_off_c, 5, 78, 100
7, 60480, Note_off_c, 5, 74, 100
7, 60480, Note_off_c, 5, 69, 100
7, 60480, Note_off_c, 5, 62, 100
7, 60720, Note_on_c, 5, 78, 100
7, 60720, Note_on_c, 5, 74, 100
7, 60720, Note_on_c, 5, 69, 100
7, 60720, Note_on_c, 5, 62, 100
7, 61040, Note_off_c, 5, 62, 100
7, 61040, Note_off_c, 5, 69, 100
7, 61040, Note_off_c, 5, 74, 100
7, 61040, Note_off_c, 5, 78, 100
7, 61200, Note_on_c, 5, 78, 100
7, 61200, Note_on_c, 5, 74, 100
7, 61200, Note_on_c, 5, 69, 100
7, 61200, Note_on_c, 5, 62, 100
7, 61360, Note_off_c, 5, 62, 100
7, 61360, Note_off_c, 5, 69, 100
7, 61360, Note_off_c, 5, 74, 100
7, 61360, Note_off_c, 5, 78, 100
7, 61920, Note_on_c, 5, 79, 100
7, 61920, Note_on_c, 5, 74, 100
7, 61920, Note_on_c, 5, 71, 100
7, 61920, Note_on_c, 5, 67, 100
7, 61920, Note_on_c, 5, 62, 100
7, 61920, Note_on_c, 5, 55, 100
7, 62560, Note_off_c, 5, 55, 100
7, 62560, Note_off_c, 5, 62, 100
7, 62560, Note_off_c, 5, 67, 100
7, 62560, Note_off_c, 5, 71, 100
7, 62560, Note_off_c, 5, 74, 100
7, 62560, Note_off_c, 5, 79, 100
7, 62640, Note_on_c, 5, 79, 100
7, 62640, Note_on_c, 5, 74, 100
7, 62640, Note_on_c, 5, 71, 100
7, 62640, Note_on_c, 5, 67, 100
7, 62640, Note_on_c, 5, 62, 100
7, 62640, Note_on_c, 5, 55, 100
7, 62960, Note_off_c, 5, 55, 100
7, 62960, Note_off_c, 5, 62, 100
7, 62960, Note_off_c, 5, 67, 100
7, 62960, Note_off_c, 5, 71, 100
7, 62960, Note_off_c, 5, 74, 100
7, 62960, Note_off_c, 5, 79, 100
7, 63120, Note_on_c, 5, 79, 100
7, 63120, Note_on_c, 5, 74, 100
7, 63120, Note_on_c, 5, 71, 100
7, 63120, Note_on_c, 5, 67, 100
7, 63120, Note_on_c, 5, 62, 100
7, 63120, Note_on_c, 5, 55, 100
7, 63280, Note_off_c, 5, 55, 100
7, 63280, Note_off_c, 5, 62, 100
7, 63280, Note_off_c, 5, 67, 100
7, 63280, Note_off_c, 5, 71, 100
7, 63280, Note_off_c, 5, 74, 100
7, 63280, Note_off_c, 5, 79, 100
7, 63840, Note_on_c, 5, 59, 100
7, 63840, Note_on_c, 5, 66, 100
7, 63840, Note_on_c, 5, 71, 100
7, 63840, Note_on_c, 5, 74, 100
7, 64480, Note_off_c, 5, 74, 100
7, 64480, Note_off_c, 5, 71, 100
7, 64480, Note_off_c, 5, 66, 100
7, 64480, Note_off_c, 5, 59, 100
7, 64560, Note_on_c, 5, 59, 100
7, 64560, Note_on_c, 5, 66, 100
7, 64560, Note_on_c, 5, 71, 100
7, 64560, Note_on_c, 5, 74, 100
7, 65040, Note_on_c, 5, 74, 100
7, 65040, Note_on_c, 5, 71, 100
7, 65040, Note_on_c, 5, 66, 100
7, 65040, Note_on_c, 5, 59, 100
7, 65200, Note_off_c, 5, 59, 100
7, 65200, Note_off_c, 5, 66, 100
7, 65200, Note_off_c, 5, 71, 100
7, 65200, Note_off_c, 5, 74, 100
7, 65200, Note_off_c, 5, 74, 100
7, 65200, Note_off_c, 5, 71, 100
7, 65200, Note_off_c, 5, 66, 100
7, 65200, Note_off_c, 5, 59, 100
7, 65760, Note_on_c, 5, 57, 100
7, 65760, Note_on_c, 5, 64, 100
7, 65760, Note_on_c, 5, 69, 100
7, 65760, Note_on_c, 5, 72, 100
7, 65760, Note_on_c, 5, 76, 100
7, 66240, Note_off_c, 5, 76, 100
7, 66240, Note_off_c, 5, 72, 100
7, 66240, Note_off_c, 5, 69, 100
7, 66240, Note_off_c, 5, 64, 100
7, 66240, Note_off_c, 5, 57, 100
7, 66480, Note_on_c, 5, 76, 100
7, 66480, Note_on_c, 5, 72, 100
7, 66480, Note_on_c, 5, 69, 100
7, 66480, Note_on_c, 5, 64, 100
7, 66480, Note_on_c, 5, 57, 100
7, 66800, Note_off_c, 5, 57, 100
7, 66800, Note_off_c, 5, 64, 100
7, 66800, Note_off_c, 5, 69, 100
7, 66800, Note_off_c, 5, 72, 100
7, 66800, Note_off_c, 5, 76, 100
7, 66960, Note_on_c, 5, 76, 100
7, 66960, Note_on_c, 5, 72, 100
7, 66960, Note_on_c, 5, 69, 100
7, 66960, Note_on_c, 5, 64, 100
7, 66960, Note_on_c, 5, 57, 100
7, 67120, Note_off_c, 5, 57, 100
7, 67120, Note_off_c, 5, 64, 100
7, 67120, Note_off_c, 5, 69, 100
7, 67120, Note_off_c, 5, 72, 100
7, 67120, Note_off_c, 5, 76, 100
7, 67680, Note_on_c, 5, 62, 100
7, 67680, Note_on_c, 5, 69, 100
7, 67680, Note_on_c, 5, 74, 100
7, 67680, Note_on_c, 5, 78, 100
7, 68160, Note_off_c, 5, 78, 100
7, 68160, Note_off_c, 5, 74, 100
7, 68160, Note_off_c, 5, 69, 100
7, 68160, Note_off_c, 5, 62, 100
7, 68400, Note_on_c, 5, 78, 100
7, 68400, Note_on_c, 5, 74, 100
7, 68400, Note_on_c, 5, 69, 100
7, 68400, Note_on_c, 5, 62, 100
7, 68720, Note_off_c, 5, 62, 100
7, 68720, Note_off_c, 5, 69, 100
7, 68720, Note_off_c, 5, 74, 100
7, 68720, Note_off_c, 5, 78, 100
7, 68880, Note_on_c, 5, 78, 100
7, 68880, Note_on_c, 5, 74, 100
7, 68880, Note_on_c, 5, 69, 100
7, 68880, Note_on_c, 5, 62, 100
7, 69040, Note_off_c, 5, 62, 100
7, 69040, Note_off_c, 5, 69, 100
7, 69040, Note_off_c, 5, 74, 100
7, 69040, Note_off_c, 5, 78, 100
7, 81120, Note_on_c, 5, 62, 100
7, 81120, Note_on_c, 5, 69, 100
7, 81120, Note_on_c, 5, 74, 100
7, 81120, Note_on_c, 5, 78, 100
7, 81760, Note_off_c, 5, 78, 100
7, 81760, Note_off_c, 5, 74, 100
7, 81760, Note_off_c, 5, 69, 100
7, 81760, Note_off_c, 5, 62, 100
7, 81840, Note_on_c, 5, 78, 100
7, 81840, Note_on_c, 5, 74, 100
7, 81840, Note_on_c, 5, 69, 100
7, 81840, Note_on_c, 5, 62, 100
7, 82480, Note_off_c, 5, 62, 100
7, 82480, Note_off_c, 5, 69, 100
7, 82480, Note_off_c, 5, 74, 100
7, 82480, Note_off_c, 5, 78, 100
7, 83040, Note_on_c, 5, 76, 100
7, 83040, Note_on_c, 5, 72, 100
7, 83040, Note_on_c, 5, 67, 100
7, 83040, Note_on_c, 5, 60, 100
7, 83520, Note_off_c, 5, 60, 100
7, 83520, Note_off_c, 5, 67, 100
7, 83520, Note_off_c, 5, 72, 100
7, 83520, Note_off_c, 5, 76, 100
7, 83760, Note_on_c, 5, 76, 100
7, 83760, Note_on_c, 5, 72, 100
7, 83760, Note_on_c, 5, 67, 100
7, 83760, Note_on_c, 5, 60, 100
7, 84240, Note_off_c, 5, 60, 100
7, 84240, Note_off_c, 5, 67, 100
7, 84240, Note_off_c, 5, 72, 100
7, 84240, Note_off_c, 5, 76, 100
7, 131040, Note_on_c, 5, 62, 100
7, 131040, Note_on_c, 5, 69, 100
7, 131040, Note_on_c, 5, 74, 100
7, 131040, Note_on_c, 5, 78, 100
7, 131680, Note_off_c, 5, 78, 100
7, 131680, Note_off_c, 5, 74, 100
7, 131680, Note_off_c, 5, 69, 100
7, 131680, Note_off_c, 5, 62, 100
7, 131760, Note_on_c, 5, 78, 100
7, 131760, Note_on_c, 5, 74, 100
7, 131760, Note_on_c, 5, 69, 100
7, 131760, Note_on_c, 5, 62, 100
7, 132400, Note_off_c, 5, 62, 100
7, 132400, Note_off_c, 5, 69, 100
7, 132400, Note_off_c, 5, 74, 100
7, 132400, Note_off_c, 5, 78, 100
7, 132960, Note_on_c, 5, 76, 100
7, 132960, Note_on_c, 5, 72, 100
7, 132960, Note_on_c, 5, 67, 100
7, 132960, Note_on_c, 5, 60, 100
7, 133440, Note_off_c, 5, 60, 100
7, 133440, Note_off_c, 5, 67, 100
7, 133440, Note_off_c, 5, 72, 100
7, 133440, Note_off_c, 5, 76, 100
7, 133680, Note_on_c, 5, 76, 100
7, 133680, Note_on_c, 5, 72, 100
7, 133680, Note_on_c, 5, 67, 100
7, 133680, Note_on_c, 5, 60, 100
7, 134160, Note_off_c, 5, 60, 100
7, 134160, Note_off_c, 5, 67, 100
7, 134160, Note_off_c, 5, 72, 100
7, 134160, Note_off_c, 5, 76, 100
7, 138720, Note_on_c, 5, 79, 100
7, 138720, Note_on_c, 5, 74, 100
7, 138720, Note_on_c, 5, 71, 100
7, 138720, Note_on_c, 5, 67, 100
7, 138720, Note_on_c, 5, 62, 100
7, 138720, Note_on_c, 5, 55, 100
7, 139360, Note_off_c, 5, 55, 100
7, 139360, Note_off_c, 5, 62, 100
7, 139360, Note_off_c, 5, 67, 100
7, 139360, Note_off_c, 5, 71, 100
7, 139360, Note_off_c, 5, 74, 100
7, 139360, Note_off_c, 5, 79, 100
7, 139440, Note_on_c, 5, 79, 100
7, 139440, Note_on_c, 5, 74, 100
7, 139440, Note_on_c, 5, 71, 100
7, 139440, Note_on_c, 5, 67, 100
7, 139440, Note_on_c, 5, 62, 100
7, 139440, Note_on_c, 5, 55, 100
7, 139760, Note_off_c, 5, 55, 100
7, 139760, Note_off_c, 5, 62, 100
7, 139760, Note_off_c, 5, 67, 100
7, 139760, Note_off_c, 5, 71, 100
7, 139760, Note_off_c, 5, 74, 100
7, 139760, Note_off_c, 5, 79, 100
7, 139920, Note_on_c, 5, 79, 100
7, 139920, Note_on_c, 5, 74, 100
7, 139920, Note_on_c, 5, 71, 100
7, 139920, Note_on_c, 5, 67, 100
7, 139920, Note_on_c, 5, 62, 100
7, 139920, Note_on_c, 5, 55, 100
7, 140080, Note_off_c, 5, 55, 100
7, 140080, Note_off_c, 5, 62, 100
7, 140080, Note_off_c, 5, 67, 100
7, 140080, Note_off_c, 5, 71, 100
7, 140080, Note_off_c, 5, 74, 100
7, 140080, Note_off_c, 5, 79, 100
7, 140640, Note_on_c, 5, 59, 100
7, 140640, Note_on_c, 5, 66, 100
7, 140640, Note_on_c, 5, 71, 100
7, 140640, Note_on_c, 5, 74, 100
7, 141280, Note_off_c, 5, 74, 100
7, 141280, Note_off_c, 5, 71, 100
7, 141280, Note_off_c, 5, 66, 100
7, 141280, Note_off_c, 5, 59, 100
7, 141360, Note_on_c, 5, 59, 100
7, 141360, Note_on_c, 5, 66, 100
7, 141360, Note_on_c, 5, 71, 100
7, 141360, Note_on_c, 5, 74, 100
7, 141840, Note_on_c, 5, 74, 100
7, 141840, Note_on_c, 5, 71, 100
7, 141840, Note_on_c, 5, 66, 100
7, 141840, Note_on_c, 5, 59, 100
7, 142000, Note_off_c, 5, 59, 100
7, 142000, Note_off_c, 5, 66, 100
7, 142000, Note_off_c, 5, 71, 100
7, 142000, Note_off_c, 5, 74, 100
7, 142000, Note_off_c, 5, 74, 100
7, 142000, Note_off_c, 5, 71, 100
7, 142000, Note_off_c, 5, 66, 100
7, 142000, Note_off_c, 5, 59, 100
7, 142560, Note_on_c, 5, 76, 100
7, 142560, Note_on_c, 5, 72, 100
7, 142560, Note_on_c, 5, 67, 100
7, 142560, Note_on_c, 5, 60, 100
7, 143040, Note_off_c, 5, 60, 100
7, 143040, Note_off_c, 5, 67, 100
7, 143040, Note_off_c, 5, 72, 100
7, 143040, Note_off_c, 5, 76, 100
7, 143280, Note_on_c, 5, 76, 100
7, 143280, Note_on_c, 5, 72, 100
7, 143280, Note_on_c, 5, 67, 100
7, 143280, Note_on_c, 5, 60, 100
7, 143600, Note_off_c, 5, 60, 100
7, 143600, Note_off_c, 5, 67, 100
7, 143600, Note_off_c, 5, 72, 100
7, 143600, Note_off_c, 5, 76, 100
7, 143760, Note_on_c, 5, 76, 100
7, 143760, Note_on_c, 5, 72, 100
7, 143760, Note_on_c, 5, 67, 100
7, 143760, Note_on_c, 5, 60, 100
7, 143920, Note_off_c, 5, 60, 100
7, 143920, Note_off_c, 5, 67, 100
7, 143920, Note_off_c, 5, 72, 100
7, 143920, Note_off_c, 5, 76, 100
7, 144480, Note_on_c, 5, 62, 100
7, 144480, Note_on_c, 5, 69, 100
7, 144480, Note_on_c, 5, 74, 100
7, 144480, Note_on_c, 5, 78, 100
7, 144960, Note_off_c, 5, 78, 100
7, 144960, Note_off_c, 5, 74, 100
7, 144960, Note_off_c, 5, 69, 100
7, 144960, Note_off_c, 5, 62, 100
7, 145200, Note_on_c, 5, 78, 100
7, 145200, Note_on_c, 5, 74, 100
7, 145200, Note_on_c, 5, 69, 100
7, 145200, Note_on_c, 5, 62, 100
7, 145520, Note_off_c, 5, 62, 100
7, 145520, Note_off_c, 5, 69, 100
7, 145520, Note_off_c, 5, 74, 100
7, 145520, Note_off_c, 5, 78, 100
7, 145680, Note_on_c, 5, 78, 100
7, 145680, Note_on_c, 5, 74, 100
7, 145680, Note_on_c, 5, 69, 100
7, 145680, Note_on_c, 5, 62, 100
7, 145840, Note_off_c, 5, 62, 100
7, 145840, Note_off_c, 5, 69, 100
7, 145840, Note_off_c, 5, 74, 100
7, 145840, Note_off_c, 5, 78, 100
7, 146400, Note_on_c, 5, 79, 100
7, 146400, Note_on_c, 5, 74, 100
7, 146400, Note_on_c, 5, 71, 100
7, 146400, Note_on_c, 5, 67, 100
7, 146400, Note_on_c, 5, 62, 100
7, 146400, Note_on_c, 5, 55, 100
7, 147040, Note_off_c, 5, 55, 100
7, 147040, Note_off_c, 5, 62, 100
7, 147040, Note_off_c, 5, 67, 100
7, 147040, Note_off_c, 5, 71, 100
7, 147040, Note_off_c, 5, 74, 100
7, 147040, Note_off_c, 5, 79, 100
7, 147120, Note_on_c, 5, 79, 100
7, 147120, Note_on_c, 5, 74, 100
7, 147120, Note_on_c, 5, 71, 100
7, 147120, Note_on_c, 5, 67, 100
7, 147120, Note_on_c, 5, 62, 100
7, 147120, Note_on_c, 5, 55, 100
7, 147440, Note_off_c, 5, 55, 100
7, 147440, Note_off_c, 5, 62, 100
7, 147440, Note_off_c, 5, 67, 100
7, 147440, Note_off_c, 5, 71, 100
7, 147440, Note_off_c, 5, 74, 100
7, 147440, Note_off_c, 5, 79, 100
7, 147600, Note_on_c, 5, 79, 100
7, 147600, Note_on_c, 5, 74, 100
7, 147600, Note_on_c, 5, 71, 100
7, 147600, Note_on_c, 5, 67, 100
7, 147600, Note_on_c, 5, 62, 100
7, 147600, Note_on_c, 5, 55, 100
7, 147760, Note_off_c, 5, 55, 100
7, 147760, Note_off_c, 5, 62, 100
7, 147760, Note_off_c, 5, 67, 100
7, 147760, Note_off_c, 5, 71, 100
7, 147760, Note_off_c, 5, 74, 100
7, 147760, Note_off_c, 5, 79, 100
7, 148320, Note_on_c, 5, 59, 100
7, 148320, Note_on_c, 5, 66, 100
7, 148320, Note_on_c, 5, 71, 100
7, 148320, Note_on_c, 5, 74, 100
7, 148960, Note_off_c, 5, 74, 100
7, 148960, Note_off_c, 5, 71, 100
7, 148960, Note_off_c, 5, 66, 100
7, 148960, Note_off_c, 5, 59, 100
7, 149040, Note_on_c, 5, 59, 100
7, 149040, Note_on_c, 5, 66, 100
7, 149040, Note_on_c, 5, 71, 100
7, 149040, Note_on_c, 5, 74, 100
7, 149520, Note_on_c, 5, 74, 100
7, 149520, Note_on_c, 5, 71, 100
7, 149520, Note_on_c, 5, 66, 100
7, 149520, Note_on_c, 5, 59, 100
7, 149680, Note_off_c, 5, 59, 100
7, 149680, Note_off_c, 5, 66, 100
7, 149680, Note_off_c, 5, 71, 100
7, 149680, Note_off_c, 5, 74, 100
7, 149680, Note_off_c, 5, 74, 100
7, 149680, Note_off_c, 5, 71, 100
7, 149680, Note_off_c, 5, 66, 100
7, 149680, Note_off_c, 5, 59, 100
7, 150240, Note_on_c, 5, 57, 100
7, 150240, Note_on_c, 5, 64, 100
7, 150240, Note_on_c, 5, 69, 100
7, 150240, Note_on_c, 5, 72, 100
7, 150240, Note_on_c, 5, 76, 100
7, 150720, Note_off_c, 5, 76, 100
7, 150720, Note_off_c, 5, 72, 100
7, 150720, Note_off_c, 5, 69, 100
7, 150720, Note_off_c, 5, 64, 100
7, 150720, Note_off_c, 5, 57, 100
7, 150960, Note_on_c, 5, 76, 100
7, 150960, Note_on_c, 5, 72, 100
7, 150960, Note_on_c, 5, 69, 100
7, 150960, Note_on_c, 5, 64, 100
7, 150960, Note_on_c, 5, 57, 100
7, 151280, Note_off_c, 5, 57, 100
7, 151280, Note_off_c, 5, 64, 100
7, 151280, Note_off_c, 5, 69, 100
7, 151280, Note_off_c, 5, 72, 100
7, 151280, Note_off_c, 5, 76, 100
7, 151440, Note_on_c, 5, 76, 100
7, 151440, Note_on_c, 5, 72, 100
7, 151440, Note_on_c, 5, 69, 100
7, 151440, Note_on_c, 5, 64, 100
7, 151440, Note_on_c, 5, 57, 100
7, 151600, Note_off_c, 5, 57, 100
7, 151600, Note_off_c, 5, 64, 100
7, 151600, Note_off_c, 5, 69, 100
7, 151600, Note_off_c, 5, 72, 100
7, 151600, Note_off_c, 5, 76, 100
7, 152160, Note_on_c, 5, 62, 100
7, 152160, Note_on_c, 5, 69, 100
7, 152160, Note_on_c, 5, 74, 100
7, 152160, Note_on_c, 5, 78, 100
7, 152640, Note_off_c, 5, 78, 100
7, 152640, Note_off_c, 5, 74, 100
7, 152640, Note_off_c, 5, 69, 100
7, 152640, Note_off_c, 5, 62, 100
7, 152880, Note_on_c, 5, 78, 100
7, 152880, Note_on_c, 5, 74, 100
7, 152880, Note_on_c, 5, 69, 100
7, 152880, Note_on_c, 5, 62, 100
7, 153200, Note_off_c, 5, 62, 100
7, 153200, Note_off_c, 5, 69, 100
7, 153200, Note_off_c, 5, 74, 100
7, 153200, Note_off_c, 5, 78, 100
7, 153360, Note_on_c, 5, 78, 100
7, 153360, Note_on_c, 5, 74, 100
7, 153360, Note_on_c, 5, 69, 100
7, 153360, Note_on_c, 5, 62, 100
7, 153520, Note_off_c, 5, 62, 100
7, 153520, Note_off_c, 5, 69, 100
7, 153520, Note_off_c, 5, 74, 100
7, 153520, Note_off_c, 5, 78, 100
7, 165600, Note_on_c, 5, 62, 100
7, 165600, Note_on_c, 5, 69, 100
7, 165600, Note_on_c, 5, 74, 100
7, 165600, Note_on_c, 5, 78, 100
7, 166240, Note_off_c, 5, 78, 100
7, 166240, Note_off_c, 5, 74, 100
7, 166240, Note_off_c, 5, 69, 100
7, 166240, Note_off_c, 5, 62, 100
7, 166320, Note_on_c, 5, 78, 100
7, 166320, Note_on_c, 5, 74, 100
7, 166320, Note_on_c, 5, 69, 100
7, 166320, Note_on_c, 5, 62, 100
7, 166960, Note_off_c, 5, 62, 100
7, 166960, Note_off_c, 5, 69, 100
7, 166960, Note_off_c, 5, 74, 100
7, 166960, Note_off_c, 5, 78, 100
7, 167520, Note_on_c, 5, 76, 100
7, 167520, Note_on_c, 5, 72, 100
7, 167520, Note_on_c, 5, 67, 100
7, 167520, Note_on_c, 5, 60, 100
7, 168000, Note_off_c, 5, 60, 100
7, 168000, Note_off_c, 5, 67, 100
7, 168000, Note_off_c, 5, 72, 100
7, 168000, Note_off_c, 5, 76, 100
7, 168240, Note_on_c, 5, 76, 100
7, 168240, Note_on_c, 5, 72, 100
7, 168240, Note_on_c, 5, 67, 100
7, 168240, Note_on_c, 5, 60, 100
7, 168720, Note_off_c, 5, 60, 100
7, 168720, Note_off_c, 5, 67, 100
7, 168720, Note_off_c, 5, 72, 100
7, 168720, Note_off_c, 5, 76, 100
7, 173280, Note_on_c, 5, 62, 100
7, 173280, Note_on_c, 5, 69, 100
7, 173280, Note_on_c, 5, 74, 100
7, 173280, Note_on_c, 5, 78, 100
7, 173920, Note_off_c, 5, 78, 100
7, 173920, Note_off_c, 5, 74, 100
7, 173920, Note_off_c, 5, 69, 100
7, 173920, Note_off_c, 5, 62, 100
7, 174000, Note_on_c, 5, 78, 100
7, 174000, Note_on_c, 5, 74, 100
7, 174000, Note_on_c, 5, 69, 100
7, 174000, Note_on_c, 5, 62, 100
7, 174640, Note_off_c, 5, 62, 100
7, 174640, Note_off_c, 5, 69, 100
7, 174640, Note_off_c, 5, 74, 100
7, 174640, Note_off_c, 5, 78, 100
7, 175200, Note_on_c, 5, 76, 100
7, 175200, Note_on_c, 5, 72, 100
7, 175200, Note_on_c, 5, 67, 100
7, 175200, Note_on_c, 5, 60, 100
7, 175680, Note_off_c, 5, 60, 100
7, 175680, Note_off_c, 5, 67, 100
7, 175680, Note_off_c, 5, 72, 100
7, 175680, Note_off_c, 5, 76, 100
7, 175920, Note_on_c, 5, 76, 100
7, 175920, Note_on_c, 5, 72, 100
7, 175920, Note_on_c, 5, 67, 100
7, 175920, Note_on_c, 5, 60, 100
7, 176400, Note_off_c, 5, 60, 100
7, 176400, Note_off_c, 5, 67, 100
7, 176400, Note_off_c, 5, 72, 100
7, 176400, Note_off_c, 5, 76, 100
7, 176400, End_track
8, 0, Start_track
8, 0, Title_t, "George's Lead"
8, 0, MIDI_port, 0
8, 0, Channel_prefix, 6
8, 0, Control_c, 6, 10, 127
8, 0, Program_c, 6, 27
8, 0, Control_c, 6, 0, 0
8, 88320, Note_on_c, 6, 74, 106
8, 88640, Note_off_c, 6, 74, 106
8, 88800, Note_on_c, 6, 77, 106
8, 89120, Note_off_c, 6, 77, 106
8, 89280, Note_on_c, 6, 76, 106
8, 89600, Note_off_c, 6, 76, 106
8, 89760, Note_on_c, 6, 79, 106
8, 89920, Note_off_c, 6, 79, 106
8, 90000, Note_on_c, 6, 72, 106
8, 90160, Note_off_c, 6, 72, 106
8, 90240, Note_on_c, 6, 74, 106
8, 90560, Note_off_c, 6, 74, 106
8, 90720, Note_on_c, 6, 77, 106
8, 90880, Note_off_c, 6, 77, 106
8, 90960, Note_on_c, 6, 74, 106
8, 91120, Note_off_c, 6, 74, 106
8, 91200, Note_on_c, 6, 72, 106
8, 91360, Note_off_c, 6, 72, 106
8, 91440, Note_on_c, 6, 70, 106
8, 91600, Note_off_c, 6, 70, 106
8, 91680, Note_on_c, 6, 67, 106
8, 91840, Note_off_c, 6, 67, 106
8, 91920, Note_on_c, 6, 70, 106
8, 92080, Note_off_c, 6, 70, 106
8, 92160, Note_on_c, 6, 74, 106
8, 92480, Note_off_c, 6, 74, 106
8, 92640, Note_on_c, 6, 77, 106
8, 92960, Note_off_c, 6, 77, 106
8, 93120, Note_on_c, 6, 76, 106
8, 93440, Note_off_c, 6, 76, 106
8, 93600, Note_on_c, 6, 79, 106
8, 93760, Note_off_c, 6, 79, 106
8, 93840, Note_on_c, 6, 72, 106
8, 94000, Note_off_c, 6, 72, 106
8, 94080, Note_on_c, 6, 74, 106
8, 94400, Note_off_c, 6, 74, 106
8, 94560, Note_on_c, 6, 77, 106
8, 94720, Note_off_c, 6, 77, 106
8, 94800, Note_on_c, 6, 74, 106
8, 94960, Note_off_c, 6, 74, 106
8, 95040, Note_on_c, 6, 72, 106
8, 95200, Note_off_c, 6, 72, 106
8, 95280, Note_on_c, 6, 70, 106
8, 95440, Note_off_c, 6, 70, 106
8, 95520, Note_on_c, 6, 67, 106
8, 95840, Note_off_c, 6, 67, 106
8, 95840, End_track
9, 0, Start_track
9, 0, Title_t, "Paul's Bass"
9, 0, MIDI_port, 0
9, 0, Channel_prefix, 7
9, 0, Control_c, 7, 10, 127
9, 0, Program_c, 7, 32
9, 0, Control_c, 7, 0, 0
9, 11520, Note_on_c, 7, 43, 100
9, 12160, Note_off_c, 7, 43, 100
9, 12480, Note_on_c, 7, 38, 100
9, 13120, Note_off_c, 7, 38, 100
9, 13440, Note_on_c, 7, 43, 100
9, 14080, Note_off_c, 7, 43, 100
9, 14400, Note_on_c, 7, 38, 100
9, 15040, Note_off_c, 7, 38, 100
9, 15360, Note_on_c, 7, 43, 100
9, 16000, Note_off_c, 7, 43, 100
9, 16320, Note_on_c, 7, 38, 100
9, 16960, Note_off_c, 7, 38, 100
9, 17280, Note_on_c, 7, 43, 100
9, 17920, Note_off_c, 7, 43, 100
9, 18240, Note_on_c, 7, 38, 100
9, 18880, Note_off_c, 7, 38, 100
9, 19200, Note_on_c, 7, 43, 100
9, 19840, Note_off_c, 7, 43, 100
9, 20160, Note_on_c, 7, 38, 100
9, 20800, Note_off_c, 7, 38, 100
9, 21120, Note_on_c, 7, 43, 100
9, 21760, Note_off_c, 7, 43, 100
9, 22080, Note_on_c, 7, 38, 100
9, 22720, Note_off_c, 7, 38, 100
9, 23040, Note_on_c, 7, 50, 100
9, 23680, Note_off_c, 7, 50, 100
9, 24000, Note_on_c, 7, 45, 100
9, 24640, Note_off_c, 7, 45, 100
9, 24960, Note_on_c, 7, 50, 100
9, 25600, Note_off_c, 7, 50, 100
9, 25920, Note_on_c, 7, 45, 100
9, 26080, Note_off_c, 7, 45, 100
9, 26160, Note_on_c, 7, 47, 100
9, 26320, Note_off_c, 7, 47, 100
9, 26400, Note_on_c, 7, 48, 100
9, 26560, Note_off_c, 7, 48, 100
9, 26640, Note_on_c, 7, 49, 100
9, 26800, Note_off_c, 7, 49, 100
9, 26880, Note_on_c, 7, 50, 100
9, 27520, Note_off_c, 7, 50, 100
9, 27840, Note_on_c, 7, 45, 100
9, 28480, Note_off_c, 7, 45, 100
9, 28800, Note_on_c, 7, 48, 100
9, 29440, Note_off_c, 7, 48, 100
9, 29760, Note_on_c, 7, 43, 100
9, 30400, Note_off_c, 7, 43, 100
9, 30720, Note_on_c, 7, 43, 100
9, 31360, Note_off_c, 7, 43, 100
9, 31680, Note_on_c, 7, 38, 100
9, 32320, Note_off_c, 7, 38, 100
9, 32640, Note_on_c, 7, 43, 100
9, 33280, Note_off_c, 7, 43, 100
9, 33600, Note_on_c, 7, 38, 100
9, 34240, Note_off_c, 7, 38, 100
9, 34560, Note_on_c, 7, 43, 100
9, 35200, Note_off_c, 7, 43, 100
9, 35520, Note_on_c, 7, 38, 100
9, 36160, Note_off_c, 7, 38, 100
9, 36480, Note_on_c, 7, 43, 100
9, 37120, Note_off_c, 7, 43, 100
9, 37440, Note_on_c, 7, 38, 100
9, 38080, Note_off_c, 7, 38, 100
9, 38400, Note_on_c, 7, 43, 100
9, 39040, Note_off_c, 7, 43, 100
9, 39360, Note_on_c, 7, 38, 100
9, 40000, Note_off_c, 7, 38, 100
9, 40320, Note_on_c, 7, 43, 100
9, 40960, Note_off_c, 7, 43, 100
9, 41280, Note_on_c, 7, 38, 100
9, 41920, Note_off_c, 7, 38, 100
9, 42240, Note_on_c, 7, 50, 100
9, 42880, Note_off_c, 7, 50, 100
9, 43200, Note_on_c, 7, 45, 100
9, 43840, Note_off_c, 7, 45, 100
9, 44160, Note_on_c, 7, 50, 100
9, 44800, Note_off_c, 7, 50, 100
9, 45120, Note_on_c, 7, 45, 100
9, 45280, Note_off_c, 7, 45, 100
9, 45360, Note_on_c, 7, 47, 100
9, 45520, Note_off_c, 7, 47, 100
9, 45600, Note_on_c, 7, 48, 100
9, 45760, Note_off_c, 7, 48, 100
9, 45840, Note_on_c, 7, 49, 100
9, 46000, Note_off_c, 7, 49, 100
9, 46080, Note_on_c, 7, 50, 100
9, 46720, Note_off_c, 7, 50, 100
9, 47040, Note_on_c, 7, 45, 100
9, 47680, Note_off_c, 7, 45, 100
9, 48000, Note_on_c, 7, 48, 100
9, 48640, Note_off_c, 7, 48, 100
9, 48960, Note_on_c, 7, 43, 100
9, 49600, Note_off_c, 7, 43, 100
9, 49920, Note_on_c, 7, 43, 100
9, 50560, Note_off_c, 7, 43, 100
9, 50880, Note_on_c, 7, 38, 100
9, 51520, Note_off_c, 7, 38, 100
9, 51840, Note_on_c, 7, 43, 100
9, 52480, Note_off_c, 7, 43, 100
9, 52800, Note_on_c, 7, 38, 100
9, 53440, Note_off_c, 7, 38, 100
9, 53760, Note_on_c, 7, 43, 100
9, 54080, Note_off_c, 7, 43, 100
9, 54240, Note_on_c, 7, 43, 100
9, 54560, Note_off_c, 7, 43, 100
9, 54720, Note_on_c, 7, 43, 100
9, 55040, Note_off_c, 7, 43, 100
9, 55200, Note_on_c, 7, 43, 100
9, 55520, Note_off_c, 7, 43, 100
9, 55680, Note_on_c, 7, 47, 100
9, 56000, Note_off_c, 7, 47, 100
9, 56160, Note_on_c, 7, 47, 100
9, 56480, Note_off_c, 7, 47, 100
9, 56640, Note_on_c, 7, 47, 100
9, 56960, Note_off_c, 7, 47, 100
9, 57120, Note_on_c, 7, 47, 100
9, 57440, Note_off_c, 7, 47, 100
9, 57600, Note_on_c, 7, 36, 100
9, 57920, Note_off_c, 7, 36, 100
9, 58080, Note_on_c, 7, 36, 100
9, 58400, Note_off_c, 7, 36, 100
9, 58560, Note_on_c, 7, 36, 100
9, 58880, Note_off_c, 7, 36, 100
9, 59040, Note_on_c, 7, 36, 100
9, 59360, Note_off_c, 7, 36, 100
9, 59520, Note_on_c, 7, 38, 100
9, 59840, Note_off_c, 7, 38, 100
9, 60000, Note_on_c, 7, 38, 100
9, 60320, Note_off_c, 7, 38, 100
9, 60480, Note_on_c, 7, 38, 100
9, 60800, Note_off_c, 7, 38, 100
9, 60960, Note_on_c, 7, 38, 100
9, 61280, Note_off_c, 7, 38, 100
9, 61440, Note_on_c, 7, 43, 100
9, 61760, Note_off_c, 7, 43, 100
9, 61920, Note_on_c, 7, 43, 100
9, 62240, Note_off_c, 7, 43, 100
9, 62400, Note_on_c, 7, 43, 100
9, 62720, Note_off_c, 7, 43, 100
9, 62880, Note_on_c, 7, 43, 100
9, 63200, Note_off_c, 7, 43, 100
9, 63360, Note_on_c, 7, 47, 100
9, 63680, Note_off_c, 7, 47, 100
9, 63840, Note_on_c, 7, 47, 100
9, 64160, Note_off_c, 7, 47, 100
9, 64320, Note_on_c, 7, 47, 100
9, 64640, Note_off_c, 7, 47, 100
9, 64800, Note_on_c, 7, 47, 100
9, 65120, Note_off_c, 7, 47, 100
9, 65280, Note_on_c, 7, 45, 100
9, 65600, Note_off_c, 7, 45, 100
9, 65760, Note_on_c, 7, 45, 100
9, 66080, Note_off_c, 7, 45, 100
9, 66240, Note_on_c, 7, 45, 100
9, 66560, Note_off_c, 7, 45, 100
9, 66720, Note_on_c, 7, 45, 100
9, 67040, Note_off_c, 7, 45, 100
9, 67200, Note_on_c, 7, 50, 100
9, 67520, Note_off_c, 7, 50, 100
9, 67680, Note_on_c, 7, 50, 100
9, 68000, Note_off_c, 7, 50, 100
9, 68160, Note_on_c, 7, 50, 100
9, 68480, Note_off_c, 7, 50, 100
9, 68640, Note_on_c, 7, 50, 100
9, 68960, Note_off_c, 7, 50, 100
9, 69120, Note_on_c, 7, 43, 100
9, 69760, Note_off_c, 7, 43, 100
9, 70080, Note_on_c, 7, 38, 100
9, 70720, Note_off_c, 7, 38, 100
9, 71040, Note_on_c, 7, 43, 100
9, 71680, Note_off_c, 7, 43, 100
9, 72000, Note_on_c, 7, 38, 100
9, 72640, Note_off_c, 7, 38, 100
9, 72960, Note_on_c, 7, 43, 100
9, 73600, Note_off_c, 7, 43, 100
9, 73920, Note_on_c, 7, 38, 100
9, 74560, Note_off_c, 7, 38, 100
9, 74880, Note_on_c, 7, 43, 100
9, 75520, Note_off_c, 7, 43, 100
9, 75840, Note_on_c, 7, 38, 100
9, 76480, Note_off_c, 7, 38, 100
9, 76800, Note_on_c, 7, 50, 100
9, 77440, Note_off_c, 7, 50, 100
9, 77760, Note_on_c, 7, 45, 100
9, 78400, Note_off_c, 7, 45, 100
9, 78720, Note_on_c, 7, 50, 100
9, 79360, Note_off_c, 7, 50, 100
9, 79680, Note_on_c, 7, 45, 100
9, 79840, Note_off_c, 7, 45, 100
9, 79920, Note_on_c, 7, 47, 100
9, 80080, Note_off_c, 7, 47, 100
9, 80160, Note_on_c, 7, 48, 100
9, 80320, Note_off_c, 7, 48, 100
9, 80400, Note_on_c, 7, 49, 100
9, 80560, Note_off_c, 7, 49, 100
9, 80640, Note_on_c, 7, 50, 100
9, 81280, Note_off_c, 7, 50, 100
9, 81600, Note_on_c, 7, 45, 100
9, 82240, Note_off_c, 7, 45, 100
9, 82560, Note_on_c, 7, 48, 100
9, 83200, Note_off_c, 7, 48, 100
9, 83520, Note_on_c, 7, 43, 100
9, 84160, Note_off_c, 7, 43, 100
9, 84480, Note_on_c, 7, 43, 100
9, 85120, Note_off_c, 7, 43, 100
9, 85440, Note_on_c, 7, 38, 100
9, 86080, Note_off_c, 7, 38, 100
9, 86400, Note_on_c, 7, 43, 100
9, 87040, Note_off_c, 7, 43, 100
9, 87360, Note_on_c, 7, 38, 100
9, 88000, Note_off_c, 7, 38, 100
9, 88320, Note_on_c, 7, 43, 100
9, 88960, Note_off_c, 7, 43, 100
9, 89280, Note_on_c, 7, 38, 100
9, 89920, Note_off_c, 7, 38, 100
9, 90240, Note_on_c, 7, 43, 100
9, 90880, Note_off_c, 7, 43, 100
9, 91200, Note_on_c, 7, 38, 100
9, 91840, Note_off_c, 7, 38, 100
9, 92160, Note_on_c, 7, 43, 100
9, 92800, Note_off_c, 7, 43, 100
9, 93120, Note_on_c, 7, 38, 100
9, 93760, Note_off_c, 7, 38, 100
9, 94080, Note_on_c, 7, 43, 100
9, 94720, Note_off_c, 7, 43, 100
9, 95040, Note_on_c, 7, 38, 100
9, 95680, Note_off_c, 7, 38, 100
9, 96000, Note_on_c, 7, 50, 100
9, 96640, Note_off_c, 7, 50, 100
9, 96960, Note_on_c, 7, 45, 100
9, 97600, Note_off_c, 7, 45, 100
9, 97920, Note_on_c, 7, 50, 100
9, 98560, Note_off_c, 7, 50, 100
9, 98880, Note_on_c, 7, 45, 100
9, 99520, Note_off_c, 7, 45, 100
9, 99840, Note_on_c, 7, 50, 100
9, 101125, Note_off_c, 7, 50, 100
9, 103680, Note_on_c, 7, 48, 100
9, 104965, Note_off_c, 7, 48, 100
9, 107520, Note_on_c, 7, 43, 100
9, 108805, Note_off_c, 7, 43, 100
9, 111360, Note_on_c, 7, 43, 100
9, 112000, Note_off_c, 7, 43, 100
9, 112320, Note_on_c, 7, 38, 100
9, 112960, Note_off_c, 7, 38, 100
9, 113280, Note_on_c, 7, 43, 100
9, 113920, Note_off_c, 7, 43, 100
9, 114240, Note_on_c, 7, 38, 100
9, 114880, Note_off_c, 7, 38, 100
9, 115200, Note_on_c, 7, 43, 100
9, 115840, Note_off_c, 7, 43, 100
9, 116160, Note_on_c, 7, 38, 100
9, 116800, Note_off_c, 7, 38, 100
9, 117120, Note_on_c, 7, 43, 100
9, 117760, Note_off_c, 7, 43, 100
9, 118080, Note_on_c, 7, 38, 100
9, 118720, Note_off_c, 7, 38, 100
9, 119040, Note_on_c, 7, 43, 100
9, 119680, Note_off_c, 7, 43, 100
9, 120000, Note_on_c, 7, 38, 100
9, 120640, Note_off_c, 7, 38, 100
9, 120960, Note_on_c, 7, 43, 100
9, 121600, Note_off_c, 7, 43, 100
9, 121920, Note_on_c, 7, 38, 100
9, 122560, Note_off_c, 7, 38, 100
9, 122880, Note_on_c, 7, 43, 100
9, 123520, Note_off_c, 7, 43, 100
9, 123840, Note_on_c, 7, 38, 100
9, 124480, Note_off_c, 7, 38, 100
9, 124800, Note_on_c, 7, 43, 100
9, 125440, Note_off_c, 7, 43, 100
9, 125760, Note_on_c, 7, 38, 100
9, 126400, Note_off_c, 7, 38, 100
9, 126720, Note_on_c, 7, 50, 100
9, 127360, Note_off_c, 7, 50, 100
9, 127680, Note_on_c, 7, 45, 100
9, 128320, Note_off_c, 7, 45, 100
9, 128640, Note_on_c, 7, 50, 100
9, 129280, Note_off_c, 7, 50, 100
9, 129600, Note_on_c, 7, 45, 100
9, 129760, Note_off_c, 7, 45, 100
9, 129840, Note_on_c, 7, 47, 100
9, 130000, Note_off_c, 7, 47, 100
9, 130080, Note_on_c, 7, 48, 100
9, 130240, Note_off_c, 7, 48, 100
9, 130320, Note_on_c, 7, 49, 100
9, 130480, Note_off_c, 7, 49, 100
9, 130560, Note_on_c, 7, 50, 100
9, 131200, Note_off_c, 7, 50, 100
9, 131520, Note_on_c, 7, 45, 100
9, 132160, Note_off_c, 7, 45, 100
9, 132480, Note_on_c, 7, 48, 100
9, 133120, Note_off_c, 7, 48, 100
9, 133440, Note_on_c, 7, 43, 100
9, 134080, Note_off_c, 7, 43, 100
9, 134400, Note_on_c, 7, 43, 100
9, 135040, Note_off_c, 7, 43, 100
9, 135360, Note_on_c, 7, 38, 100
9, 136000, Note_off_c, 7, 38, 100
9, 136320, Note_on_c, 7, 43, 100
9, 136960, Note_off_c, 7, 43, 100
9, 137280, Note_on_c, 7, 38, 100
9, 137920, Note_off_c, 7, 38, 100
9, 138240, Note_on_c, 7, 43, 100
9, 138560, Note_off_c, 7, 43, 100
9, 138720, Note_on_c, 7, 43, 100
9, 139040, Note_off_c, 7, 43, 100
9, 139200, Note_on_c, 7, 43, 100
9, 139520, Note_off_c, 7, 43, 100
9, 139680, Note_on_c, 7, 43, 100
9, 140000, Note_off_c, 7, 43, 100
9, 140160, Note_on_c, 7, 47, 100
9, 140480, Note_off_c, 7, 47, 100
9, 140640, Note_on_c, 7, 47, 100
9, 140960, Note_off_c, 7, 47, 100
9, 141120, Note_on_c, 7, 47, 100
9, 141440, Note_off_c, 7, 47, 100
9, 141600, Note_on_c, 7, 47, 100
9, 141920, Note_off_c, 7, 47, 100
9, 142080, Note_on_c, 7, 36, 100
9, 142400, Note_off_c, 7, 36, 100
9, 142560, Note_on_c, 7, 36, 100
9, 142880, Note_off_c, 7, 36, 100
9, 143040, Note_on_c, 7, 36, 100
9, 143360, Note_off_c, 7, 36, 100
9, 143520, Note_on_c, 7, 36, 100
9, 143840, Note_off_c, 7, 36, 100
9, 144000, Note_on_c, 7, 38, 100
9, 144320, Note_off_c, 7, 38, 100
9, 144480, Note_on_c, 7, 38, 100
9, 144800, Note_off_c, 7, 38, 100
9, 144960, Note_on_c, 7, 38, 100
9, 145280, Note_off_c, 7, 38, 100
9, 145440, Note_on_c, 7, 38, 100
9, 145760, Note_off_c, 7, 38, 100
9, 145920, Note_on_c, 7, 43, 100
9, 146240, Note_off_c, 7, 43, 100
9, 146400, Note_on_c, 7, 43, 100
9, 146720, Note_off_c, 7, 43, 100
9, 146880, Note_on_c, 7, 43, 100
9, 147200, Note_off_c, 7, 43, 100
9, 147360, Note_on_c, 7, 43, 100
9, 147680, Note_off_c, 7, 43, 100
9, 147840, Note_on_c, 7, 47, 100
9, 148160, Note_off_c, 7, 47, 100
9, 148320, Note_on_c, 7, 47, 100
9, 148640, Note_off_c, 7, 47, 100
9, 148800, Note_on_c, 7, 47, 100
9, 149120, Note_off_c, 7, 47, 100
9, 149280, Note_on_c, 7, 47, 100
9, 149600, Note_off_c, 7, 47, 100
9, 149760, Note_on_c, 7, 45, 100
9, 150080, Note_off_c, 7, 45, 100
9, 150240, Note_on_c, 7, 45, 100
9, 150560, Note_off_c, 7, 45, 100
9, 150720, Note_on_c, 7, 45, 100
9, 151040, Note_off_c, 7, 45, 100
9, 151200, Note_on_c, 7, 45, 100
9, 151520, Note_off_c, 7, 45, 100
9, 151680, Note_on_c, 7, 50, 100
9, 152000, Note_off_c, 7, 50, 100
9, 152160, Note_on_c, 7, 50, 100
9, 152480, Note_off_c, 7, 50, 100
9, 152640, Note_on_c, 7, 50, 100
9, 152960, Note_off_c, 7, 50, 100
9, 153120, Note_on_c, 7, 50, 100
9, 153440, Note_off_c, 7, 50, 100
9, 153600, Note_on_c, 7, 43, 100
9, 154240, Note_off_c, 7, 43, 100
9, 154560, Note_on_c, 7, 38, 100
9, 155200, Note_off_c, 7, 38, 100
9, 155520, Note_on_c, 7, 43, 100
9, 156160, Note_off_c, 7, 43, 100
9, 156480, Note_on_c, 7, 38, 100
9, 157120, Note_off_c, 7, 38, 100
9, 157440, Note_on_c, 7, 43, 100
9, 158080, Note_off_c, 7, 43, 100
9, 158400, Note_on_c, 7, 38, 100
9, 159040, Note_off_c, 7, 38, 100
9, 159360, Note_on_c, 7, 43, 100
9, 160000, Note_off_c, 7, 43, 100
9, 160320, Note_on_c, 7, 38, 100
9, 160960, Note_off_c, 7, 38, 100
9, 161280, Note_on_c, 7, 50, 100
9, 161920, Note_off_c, 7, 50, 100
9, 162240, Note_on_c, 7, 45, 100
9, 162880, Note_off_c, 7, 45, 100
9, 163200, Note_on_c, 7, 50, 100
9, 163840, Note_off_c, 7, 50, 100
9, 164160, Note_on_c, 7, 45, 100
9, 164320, Note_off_c, 7, 45, 100
9, 164400, Note_on_c, 7, 47, 100
9, 164560, Note_off_c, 7, 47, 100
9, 164640, Note_on_c, 7, 48, 100
9, 164800, Note_off_c, 7, 48, 100
9, 164880, Note_on_c, 7, 49, 100
9, 165040, Note_off_c, 7, 49, 100
9, 165120, Note_on_c, 7, 50, 100
9, 165760, Note_off_c, 7, 50, 100
9, 166080, Note_on_c, 7, 45, 100
9, 166720, Note_off_c, 7, 45, 100
9, 167040, Note_on_c, 7, 48, 100
9, 167680, Note_off_c, 7, 48, 100
9, 168000, Note_on_c, 7, 43, 100
9, 168640, Note_off_c, 7, 43, 100
9, 168960, Note_on_c, 7, 43, 100
9, 169600, Note_off_c, 7, 43, 100
9, 169920, Note_on_c, 7, 38, 100
9, 170560, Note_off_c, 7, 38, 100
9, 170880, Note_on_c, 7, 43, 100
9, 171520, Note_off_c, 7, 43, 100
9, 171840, Note_on_c, 7, 38, 100
9, 172480, Note_off_c, 7, 38, 100
9, 172800, Note_on_c, 7, 50, 100
9, 173440, Note_off_c, 7, 50, 100
9, 173760, Note_on_c, 7, 45, 100
9, 174400, Note_off_c, 7, 45, 100
9, 174720, Note_on_c, 7, 48, 100
9, 175360, Note_off_c, 7, 48, 100
9, 175680, Note_on_c, 7, 43, 100
9, 176320, Note_off_c, 7, 43, 100
9, 176640, Note_on_c, 7, 43, 100
9, 177925, Note_off_c, 7, 43, 100
9, 180480, Note_on_c, 7, 43, 100
9, 181765, Note_off_c, 7, 43, 100
9, 184320, Note_on_c, 7, 43, 100
9, 185605, Note_off_c, 7, 43, 100
9, 185605, End_track
10, 0, Start_track
10, 0, Title_t, "Ringo's Drums"
10, 0, MIDI_port, 0
10, 0, Channel_prefix, 9
10, 0, Control_c, 9, 10, 63
10, 0, Program_c, 9, 0
10, 0, Control_c, 9, 0, 0
10, 10800, Note_on_c, 9, 36, 100
10, 11040, Note_on_c, 9, 40, 100
10, 11120, Note_off_c, 9, 36, 100
10, 11360, Note_off_c, 9, 40, 100
10, 11520, Note_on_c, 9, 36, 100
10, 11520, Note_on_c, 9, 49, 100
10, 11520, Note_on_c, 9, 51, 100
10, 11840, Note_off_c, 9, 51, 100
10, 11840, Note_off_c, 9, 49, 100
10, 11840, Note_off_c, 9, 36, 100
10, 12000, Note_on_c, 9, 51, 100
10, 12320, Note_off_c, 9, 51, 100
10, 12480, Note_on_c, 9, 36, 100
10, 12480, Note_on_c, 9, 51, 100
10, 12800, Note_off_c, 9, 51, 100
10, 12800, Note_off_c, 9, 36, 100
10, 12960, Note_on_c, 9, 40, 100
10, 12960, Note_on_c, 9, 51, 100
10, 13280, Note_off_c, 9, 51, 100
10, 13280, Note_off_c, 9, 40, 100
10, 13440, Note_on_c, 9, 36, 100
10, 13440, Note_on_c, 9, 51, 100
10, 13760, Note_off_c, 9, 51, 100
10, 13760, Note_off_c, 9, 36, 100
10, 13920, Note_on_c, 9, 51, 100
10, 14160, Note_on_c, 9, 36, 100
10, 14240, Note_off_c, 9, 51, 100
10, 14320, Note_off_c, 9, 36, 100
10, 14400, Note_on_c, 9, 36, 100
10, 14400, Note_on_c, 9, 51, 100
10, 14560, Note_off_c, 9, 36, 100
10, 14720, Note_off_c, 9, 51, 100
10, 14880, Note_on_c, 9, 40, 100
10, 14880, Note_on_c, 9, 51, 100
10, 15200, Note_off_c, 9, 51, 100
10, 15200, Note_off_c, 9, 40, 100
10, 15360, Note_on_c, 9, 36, 100
10, 15360, Note_on_c, 9, 51, 100
10, 15680, Note_off_c, 9, 51, 100
10, 15680, Note_off_c, 9, 36, 100
10, 15840, Note_on_c, 9, 51, 100
10, 16160, Note_off_c, 9, 51, 100
10, 16320, Note_on_c, 9, 36, 100
10, 16320, Note_on_c, 9, 51, 100
10, 16640, Note_off_c, 9, 51, 100
10, 16640, Note_off_c, 9, 36, 100
10, 16800, Note_on_c, 9, 40, 100
10, 16800, Note_on_c, 9, 51, 100
10, 17120, Note_off_c, 9, 51, 100
10, 17120, Note_off_c, 9, 40, 100
10, 17280, Note_on_c, 9, 36, 100
10, 17280, Note_on_c, 9, 51, 100
10, 17600, Note_off_c, 9, 51, 100
10, 17600, Note_off_c, 9, 36, 100
10, 17760, Note_on_c, 9, 51, 100
10, 18000, Note_on_c, 9, 36, 100
10, 18080, Note_off_c, 9, 51, 100
10, 18160, Note_off_c, 9, 36, 100
10, 18240, Note_on_c, 9, 36, 100
10, 18240, Note_on_c, 9, 51, 100
10, 18400, Note_off_c, 9, 36, 100
10, 18560, Note_off_c, 9, 51, 100
10, 18720, Note_on_c, 9, 40, 100
10, 18720, Note_on_c, 9, 51, 100
10, 19040, Note_off_c, 9, 51, 100
10, 19040, Note_off_c, 9, 40, 100
10, 19200, Note_on_c, 9, 36, 100
10, 19200, Note_on_c, 9, 51, 100
10, 19520, Note_off_c, 9, 51, 100
10, 19520, Note_off_c, 9, 36, 100
10, 19680, Note_on_c, 9, 51, 100
10, 20000, Note_off_c, 9, 51, 100
10, 20160, Note_on_c, 9, 36, 100
10, 20160, Note_on_c, 9, 51, 100
10, 20480, Note_off_c, 9, 51, 100
10, 20480, Note_off_c, 9, 36, 100
10, 20640, Note_on_c, 9, 40, 100
10, 20640, Note_on_c, 9, 51, 100
10, 20960, Note_off_c, 9, 51, 100
10, 20960, Note_off_c, 9, 40, 100
10, 21120, Note_on_c, 9, 36, 100
10, 21120, Note_on_c, 9, 51, 100
10, 21440, Note_off_c, 9, 51, 100
10, 21440, Note_off_c, 9, 36, 100
10, 21600, Note_on_c, 9, 51, 100
10, 21840, Note_on_c, 9, 36, 100
10, 21920, Note_off_c, 9, 51, 100
10, 22000, Note_off_c, 9, 36, 100
10, 22080, Note_on_c, 9, 36, 100
10, 22080, Note_on_c, 9, 51, 100
10, 22240, Note_off_c, 9, 36, 100
10, 22400, Note_off_c, 9, 51, 100
10, 22560, Note_on_c, 9, 40, 100
10, 22560, Note_on_c, 9, 51, 100
10, 22880, Note_off_c, 9, 51, 100
10, 22880, Note_off_c, 9, 40, 100
10, 23040, Note_on_c, 9, 36, 100
10, 23040, Note_on_c, 9, 51, 100
10, 23360, Note_off_c, 9, 51, 100
10, 23360, Note_off_c, 9, 36, 100
10, 23520, Note_on_c, 9, 51, 100
10, 23840, Note_off_c, 9, 51, 100
10, 24000, Note_on_c, 9, 36, 100
10, 24000, Note_on_c, 9, 51, 100
10, 24320, Note_off_c, 9, 51, 100
10, 24320, Note_off_c, 9, 36, 100
10, 24480, Note_on_c, 9, 40, 100
10, 24480, Note_on_c, 9, 51, 100
10, 24800, Note_off_c, 9, 51, 100
10, 24800, Note_off_c, 9, 40, 100
10, 24960, Note_on_c, 9, 36, 100
10, 24960, Note_on_c, 9, 51, 100
10, 25280, Note_off_c, 9, 51, 100
10, 25280, Note_off_c, 9, 36, 100
10, 25440, Note_on_c, 9, 51, 100
10, 25680, Note_on_c, 9, 36, 100
10, 25760, Note_off_c, 9, 51, 100
10, 25840, Note_off_c, 9, 36, 100
10, 25920, Note_on_c, 9, 36, 100
10, 25920, Note_on_c, 9, 51, 100
10, 26080, Note_off_c, 9, 36, 100
10, 26240, Note_off_c, 9, 51, 100
10, 26400, Note_on_c, 9, 40, 100
10, 26400, Note_on_c, 9, 51, 100
10, 26720, Note_off_c, 9, 51, 100
10, 26720, Note_off_c, 9, 40, 100
10, 26880, Note_on_c, 9, 36, 100
10, 26880, Note_on_c, 9, 51, 100
10, 27200, Note_off_c, 9, 51, 100
10, 27200, Note_off_c, 9, 36, 100
10, 27360, Note_on_c, 9, 51, 100
10, 27680, Note_off_c, 9, 51, 100
10, 27840, Note_on_c, 9, 36, 100
10, 27840, Note_on_c, 9, 51, 100
10, 28160, Note_off_c, 9, 51, 100
10, 28160, Note_off_c, 9, 36, 100
10, 28320, Note_on_c, 9, 40, 100
10, 28320, Note_on_c, 9, 51, 100
10, 28640, Note_off_c, 9, 51, 100
10, 28640, Note_off_c, 9, 40, 100
10, 28800, Note_on_c, 9, 36, 100
10, 28800, Note_on_c, 9, 51, 100
10, 29120, Note_off_c, 9, 51, 100
10, 29120, Note_off_c, 9, 36, 100
10, 29280, Note_on_c, 9, 51, 100
10, 29520, Note_on_c, 9, 36, 100
10, 29600, Note_off_c, 9, 51, 100
10, 29680, Note_off_c, 9, 36, 100
10, 29760, Note_on_c, 9, 36, 100
10, 29760, Note_on_c, 9, 51, 100
10, 29920, Note_off_c, 9, 36, 100
10, 30080, Note_off_c, 9, 51, 100
10, 30240, Note_on_c, 9, 40, 100
10, 30240, Note_on_c, 9, 51, 100
10, 30560, Note_off_c, 9, 51, 100
10, 30560, Note_off_c, 9, 40, 100
10, 30720, Note_on_c, 9, 36, 100
10, 30720, Note_on_c, 9, 51, 100
10, 31040, Note_off_c, 9, 51, 100
10, 31040, Note_off_c, 9, 36, 100
10, 31200, Note_on_c, 9, 51, 100
10, 31520, Note_off_c, 9, 51, 100
10, 31680, Note_on_c, 9, 36, 100
10, 31680, Note_on_c, 9, 51, 100
10, 32000, Note_off_c, 9, 51, 100
10, 32000, Note_off_c, 9, 36, 100
10, 32160, Note_on_c, 9, 40, 100
10, 32160, Note_on_c, 9, 51, 100
10, 32480, Note_off_c, 9, 51, 100
10, 32480, Note_off_c, 9, 40, 100
10, 32640, Note_on_c, 9, 36, 100
10, 32640, Note_on_c, 9, 51, 100
10, 32960, Note_off_c, 9, 51, 100
10, 32960, Note_off_c, 9, 36, 100
10, 33120, Note_on_c, 9, 51, 100
10, 33360, Note_on_c, 9, 36, 100
10, 33440, Note_off_c, 9, 51, 100
10, 33520, Note_off_c, 9, 36, 100
10, 33600, Note_on_c, 9, 36, 100
10, 33600, Note_on_c, 9, 51, 100
10, 33760, Note_off_c, 9, 36, 100
10, 33920, Note_off_c, 9, 51, 100
10, 34080, Note_on_c, 9, 40, 100
10, 34080, Note_on_c, 9, 51, 100
10, 34400, Note_off_c, 9, 51, 100
10, 34400, Note_off_c, 9, 40, 100
10, 34560, Note_on_c, 9, 36, 100
10, 34560, Note_on_c, 9, 51, 100
10, 34880, Note_off_c, 9, 51, 100
10, 34880, Note_off_c, 9, 36, 100
10, 35040, Note_on_c, 9, 51, 100
10, 35360, Note_off_c, 9, 51, 100
10, 35520, Note_on_c, 9, 36, 100
10, 35520, Note_on_c, 9, 51, 100
10, 35840, Note_off_c, 9, 51, 100
10, 35840, Note_off_c, 9, 36, 100
10, 36000, Note_on_c, 9, 40, 100
10, 36000, Note_on_c, 9, 51, 100
10, 36320, Note_off_c, 9, 51, 100
10, 36320, Note_off_c, 9, 40, 100
10, 36480, Note_on_c, 9, 36, 100
10, 36480, Note_on_c, 9, 51, 100
10, 36800, Note_off_c, 9, 51, 100
10, 36800, Note_off_c, 9, 36, 100
10, 36960, Note_on_c, 9, 51, 100
10, 37200, Note_on_c, 9, 36, 100
10, 37280, Note_off_c, 9, 51, 100
10, 37360, Note_off_c, 9, 36, 100
10, 37440, Note_on_c, 9, 36, 100
10, 37440, Note_on_c, 9, 51, 100
10, 37600, Note_off_c, 9, 36, 100
10, 37760, Note_off_c, 9, 51, 100
10, 37920, Note_on_c, 9, 40, 100
10, 37920, Note_on_c, 9, 51, 100
10, 38240, Note_off_c, 9, 51, 100
10, 38240, Note_off_c, 9, 40, 100
10, 38400, Note_on_c, 9, 36, 100
10, 38400, Note_on_c, 9, 51, 100
10, 38720, Note_off_c, 9, 51, 100
10, 38720, Note_off_c, 9, 36, 100
10, 38880, Note_on_c, 9, 51, 100
10, 39200, Note_off_c, 9, 51, 100
10, 39360, Note_on_c, 9, 36, 100
10, 39360, Note_on_c, 9, 51, 100
10, 39680, Note_off_c, 9, 51, 100
10, 39680, Note_off_c, 9, 36, 100
10, 39840, Note_on_c, 9, 40, 100
10, 39840, Note_on_c, 9, 51, 100
10, 40160, Note_off_c, 9, 51, 100
10, 40160, Note_off_c, 9, 40, 100
10, 40320, Note_on_c, 9, 36, 100
10, 40320, Note_on_c, 9, 51, 100
10, 40640, Note_off_c, 9, 51, 100
10, 40640, Note_off_c, 9, 36, 100
10, 40800, Note_on_c, 9, 51, 100
10, 41040, Note_on_c, 9, 36, 100
10, 41120, Note_off_c, 9, 51, 100
10, 41200, Note_off_c, 9, 36, 100
10, 41280, Note_on_c, 9, 36, 100
10, 41280, Note_on_c, 9, 51, 100
10, 41440, Note_off_c, 9, 36, 100
10, 41600, Note_off_c, 9, 51, 100
10, 41760, Note_on_c, 9, 40, 100
10, 41760, Note_on_c, 9, 51, 100
10, 42080, Note_off_c, 9, 51, 100
10, 42080, Note_off_c, 9, 40, 100
10, 42240, Note_on_c, 9, 36, 100
10, 42240, Note_on_c, 9, 51, 100
10, 42560, Note_off_c, 9, 51, 100
10, 42560, Note_off_c, 9, 36, 100
10, 42720, Note_on_c, 9, 51, 100
10, 43040, Note_off_c, 9, 51, 100
10, 43200, Note_on_c, 9, 36, 100
10, 43200, Note_on_c, 9, 51, 100
10, 43520, Note_off_c, 9, 51, 100
10, 43520, Note_off_c, 9, 36, 100
10, 43680, Note_on_c, 9, 40, 100
10, 43680, Note_on_c, 9, 51, 100
10, 44000, Note_off_c, 9, 51, 100
10, 44000, Note_off_c, 9, 40, 100
10, 44160, Note_on_c, 9, 36, 100
10, 44160, Note_on_c, 9, 51, 100
10, 44480, Note_off_c, 9, 51, 100
10, 44480, Note_off_c, 9, 36, 100
10, 44640, Note_on_c, 9, 51, 100
10, 44880, Note_on_c, 9, 36, 100
10, 44960, Note_off_c, 9, 51, 100
10, 45040, Note_off_c, 9, 36, 100
10, 45120, Note_on_c, 9, 36, 100
10, 45120, Note_on_c, 9, 51, 100
10, 45280, Note_off_c, 9, 36, 100
10, 45440, Note_off_c, 9, 51, 100
10, 45600, Note_on_c, 9, 40, 100
10, 45600, Note_on_c, 9, 51, 100
10, 45920, Note_off_c, 9, 51, 100
10, 45920, Note_off_c, 9, 40, 100
10, 46080, Note_on_c, 9, 36, 100
10, 46080, Note_on_c, 9, 51, 100
10, 46400, Note_off_c, 9, 51, 100
10, 46400, Note_off_c, 9, 36, 100
10, 46560, Note_on_c, 9, 51, 100
10, 46880, Note_off_c, 9, 51, 100
10, 47040, Note_on_c, 9, 36, 100
10, 47040, Note_on_c, 9, 51, 100
10, 47360, Note_off_c, 9, 51, 100
10, 47360, Note_off_c, 9, 36, 100
10, 47520, Note_on_c, 9, 40, 100
10, 47520, Note_on_c, 9, 51, 100
10, 47840, Note_off_c, 9, 51, 100
10, 47840, Note_off_c, 9, 40, 100
10, 48000, Note_on_c, 9, 36, 100
10, 48000, Note_on_c, 9, 51, 100
10, 48320, Note_off_c, 9, 51, 100
10, 48320, Note_off_c, 9, 36, 100
10, 48480, Note_on_c, 9, 51, 100
10, 48720, Note_on_c, 9, 36, 100
10, 48800, Note_off_c, 9, 51, 100
10, 48880, Note_off_c, 9, 36, 100
10, 48960, Note_on_c, 9, 36, 100
10, 48960, Note_on_c, 9, 51, 100
10, 49120, Note_off_c, 9, 36, 100
10, 49280, Note_off_c, 9, 51, 100
10, 49440, Note_on_c, 9, 40, 100
10, 49440, Note_on_c, 9, 51, 100
10, 49760, Note_off_c, 9, 51, 100
10, 49760, Note_off_c, 9, 40, 100
10, 49920, Note_on_c, 9, 36, 100
10, 49920, Note_on_c, 9, 51, 100
10, 50240, Note_off_c, 9, 51, 100
10, 50240, Note_off_c, 9, 36, 100
10, 50400, Note_on_c, 9, 51, 100
10, 50720, Note_off_c, 9, 51, 100
10, 50880, Note_on_c, 9, 36, 100
10, 50880, Note_on_c, 9, 51, 100
10, 51200, Note_off_c, 9, 51, 100
10, 51200, Note_off_c, 9, 36, 100
10, 51360, Note_on_c, 9, 40, 100
10, 51360, Note_on_c, 9, 51, 100
10, 51680, Note_off_c, 9, 51, 100
10, 51680, Note_off_c, 9, 40, 100
10, 51840, Note_on_c, 9, 36, 100
10, 51840, Note_on_c, 9, 51, 100
10, 52160, Note_off_c, 9, 51, 100
10, 52160, Note_off_c, 9, 36, 100
10, 52320, Note_on_c, 9, 51, 100
10, 52560, Note_on_c, 9, 36, 100
10, 52640, Note_off_c, 9, 51, 100
10, 52720, Note_off_c, 9, 36, 100
10, 52800, Note_on_c, 9, 36, 100
10, 52800, Note_on_c, 9, 51, 100
10, 52960, Note_off_c, 9, 36, 100
10, 53120, Note_off_c, 9, 51, 100
10, 53280, Note_on_c, 9, 40, 100
10, 53280, Note_on_c, 9, 51, 100
10, 53600, Note_off_c, 9, 51, 100
10, 53600, Note_off_c, 9, 40, 100
10, 53760, Note_on_c, 9, 36, 100
10, 53760, Note_on_c, 9, 44, 100
10, 53760, Note_on_c, 9, 49, 100
10, 54080, Note_off_c, 9, 49, 100
10, 54080, Note_off_c, 9, 44, 100
10, 54080, Note_off_c, 9, 36, 100
10, 54240, Note_on_c, 9, 40, 100
10, 54240, Note_on_c, 9, 44, 100
10, 54560, Note_off_c, 9, 44, 100
10, 54560, Note_off_c, 9, 40, 100
10, 54720, Note_on_c, 9, 36, 100
10, 54720, Note_on_c, 9, 44, 100
10, 55040, Note_off_c, 9, 44, 100
10, 55040, Note_off_c, 9, 36, 100
10, 55200, Note_on_c, 9, 40, 100
10, 55200, Note_on_c, 9, 44, 100
10, 55520, Note_off_c, 9, 44, 100
10, 55520, Note_off_c, 9, 40, 100
10, 55680, Note_on_c, 9, 36, 100
10, 55680, Note_on_c, 9, 44, 100
10, 56000, Note_off_c, 9, 44, 100
10, 56000, Note_off_c, 9, 36, 100
10, 56160, Note_on_c, 9, 40, 100
10, 56160, Note_on_c, 9, 44, 100
10, 56480, Note_off_c, 9, 44, 100
10, 56480, Note_off_c, 9, 40, 100
10, 56640, Note_on_c, 9, 36, 100
10, 56640, Note_on_c, 9, 44, 100
10, 56960, Note_off_c, 9, 44, 100
10, 56960, Note_off_c, 9, 36, 100
10, 57120, Note_on_c, 9, 40, 100
10, 57120, Note_on_c, 9, 44, 100
10, 57440, Note_off_c, 9, 44, 100
10, 57440, Note_off_c, 9, 40, 100
10, 57600, Note_on_c, 9, 36, 100
10, 57600, Note_on_c, 9, 44, 100
10, 57920, Note_off_c, 9, 44, 100
10, 57920, Note_off_c, 9, 36, 100
10, 58080, Note_on_c, 9, 40, 100
10, 58080, Note_on_c, 9, 44, 100
10, 58400, Note_off_c, 9, 44, 100
10, 58400, Note_off_c, 9, 40, 100
10, 58560, Note_on_c, 9, 36, 100
10, 58560, Note_on_c, 9, 44, 100
10, 58880, Note_off_c, 9, 44, 100
10, 58880, Note_off_c, 9, 36, 100
10, 59040, Note_on_c, 9, 40, 100
10, 59040, Note_on_c, 9, 44, 100
10, 59360, Note_off_c, 9, 44, 100
10, 59360, Note_off_c, 9, 40, 100
10, 59520, Note_on_c, 9, 36, 100
10, 59520, Note_on_c, 9, 44, 100
10, 59840, Note_off_c, 9, 44, 100
10, 59840, Note_off_c, 9, 36, 100
10, 60000, Note_on_c, 9, 40, 100
10, 60000, Note_on_c, 9, 44, 100
10, 60320, Note_off_c, 9, 44, 100
10, 60320, Note_off_c, 9, 40, 100
10, 60480, Note_on_c, 9, 36, 100
10, 60480, Note_on_c, 9, 44, 100
10, 60800, Note_off_c, 9, 44, 100
10, 60800, Note_off_c, 9, 36, 100
10, 60960, Note_on_c, 9, 40, 100
10, 60960, Note_on_c, 9, 44, 100
10, 61280, Note_off_c, 9, 44, 100
10, 61280, Note_off_c, 9, 40, 100
10, 61440, Note_on_c, 9, 36, 100
10, 61440, Note_on_c, 9, 44, 100
10, 61760, Note_off_c, 9, 44, 100
10, 61760, Note_off_c, 9, 36, 100
10, 61920, Note_on_c, 9, 40, 100
10, 61920, Note_on_c, 9, 44, 100
10, 62240, Note_off_c, 9, 44, 100
10, 62240, Note_off_c, 9, 40, 100
10, 62400, Note_on_c, 9, 36, 100
10, 62400, Note_on_c, 9, 44, 100
10, 62720, Note_off_c, 9, 44, 100
10, 62720, Note_off_c, 9, 36, 100
10, 62880, Note_on_c, 9, 40, 100
10, 62880, Note_on_c, 9, 44, 100
10, 63200, Note_off_c, 9, 44, 100
10, 63200, Note_off_c, 9, 40, 100
10, 63360, Note_on_c, 9, 36, 100
10, 63360, Note_on_c, 9, 44, 100
10, 63680, Note_off_c, 9, 44, 100
10, 63680, Note_off_c, 9, 36, 100
10, 63840, Note_on_c, 9, 40, 100
10, 63840, Note_on_c, 9, 44, 100
10, 64160, Note_off_c, 9, 44, 100
10, 64160, Note_off_c, 9, 40, 100
10, 64320, Note_on_c, 9, 36, 100
10, 64320, Note_on_c, 9, 44, 100
10, 64640, Note_off_c, 9, 44, 100
10, 64640, Note_off_c, 9, 36, 100
10, 64800, Note_on_c, 9, 40, 100
10, 64800, Note_on_c, 9, 44, 100
10, 65120, Note_off_c, 9, 44, 100
10, 65120, Note_off_c, 9, 40, 100
10, 65280, Note_on_c, 9, 36, 100
10, 65280, Note_on_c, 9, 44, 100
10, 65600, Note_off_c, 9, 44, 100
10, 65600, Note_off_c, 9, 36, 100
10, 65760, Note_on_c, 9, 40, 100
10, 65760, Note_on_c, 9, 44, 100
10, 66080, Note_off_c, 9, 44, 100
10, 66080, Note_off_c, 9, 40, 100
10, 66240, Note_on_c, 9, 36, 100
10, 66240, Note_on_c, 9, 44, 100
10, 66560, Note_off_c, 9, 44, 100
10, 66560, Note_off_c, 9, 36, 100
10, 66720, Note_on_c, 9, 40, 100
10, 66720, Note_on_c, 9, 44, 100
10, 67040, Note_off_c, 9, 44, 100
10, 67040, Note_off_c, 9, 40, 100
10, 67200, Note_on_c, 9, 36, 100
10, 67200, Note_on_c, 9, 44, 100
10, 67520, Note_off_c, 9, 44, 100
10, 67520, Note_off_c, 9, 36, 100
10, 67680, Note_on_c, 9, 40, 100
10, 67680, Note_on_c, 9, 44, 100
10, 68000, Note_off_c, 9, 44, 100
10, 68000, Note_off_c, 9, 40, 100
10, 68160, Note_on_c, 9, 36, 100
10, 68160, Note_on_c, 9, 44, 100
10, 68480, Note_off_c, 9, 44, 100
10, 68480, Note_off_c, 9, 36, 100
10, 68640, Note_on_c, 9, 40, 100
10, 68640, Note_on_c, 9, 44, 100
10, 68960, Note_off_c, 9, 44, 100
10, 68960, Note_off_c, 9, 40, 100
10, 69120, Note_on_c, 9, 36, 100
10, 69120, Note_on_c, 9, 51, 100
10, 69120, Note_on_c, 9, 49, 100
10, 69440, Note_off_c, 9, 49, 100
10, 69440, Note_off_c, 9, 51, 100
10, 69440, Note_off_c, 9, 36, 100
10, 69600, Note_on_c, 9, 51, 100
10, 69920, Note_off_c, 9, 51, 100
10, 70080, Note_on_c, 9, 36, 100
10, 70080, Note_on_c, 9, 51, 100
10, 70400, Note_off_c, 9, 51, 100
10, 70400, Note_off_c, 9, 36, 100
10, 70560, Note_on_c, 9, 40, 100
10, 70560, Note_on_c, 9, 51, 100
10, 70880, Note_off_c, 9, 51, 100
10, 70880, Note_off_c, 9, 40, 100
10, 71040, Note_on_c, 9, 36, 100
10, 71040, Note_on_c, 9, 51, 100
10, 71360, Note_off_c, 9, 51, 100
10, 71360, Note_off_c, 9, 36, 100
10, 71520, Note_on_c, 9, 51, 100
10, 71760, Note_on_c, 9, 36, 100
10, 71840, Note_off_c, 9, 51, 100
10, 71920, Note_off_c, 9, 36, 100
10, 72000, Note_on_c, 9, 36, 100
10, 72000, Note_on_c, 9, 51, 100
10, 72160, Note_off_c, 9, 36, 100
10, 72320, Note_off_c, 9, 51, 100
10, 72480, Note_on_c, 9, 40, 100
10, 72480, Note_on_c, 9, 51, 100
10, 72800, Note_off_c, 9, 51, 100
10, 72800, Note_off_c, 9, 40, 100
10, 72960, Note_on_c, 9, 36, 100
10, 72960, Note_on_c, 9, 51, 100
10, 73280, Note_off_c, 9, 51, 100
10, 73280, Note_off_c, 9, 36, 100
10, 73440, Note_on_c, 9, 51, 100
10, 73760, Note_off_c, 9, 51, 100
10, 73920, Note_on_c, 9, 36, 100
10, 73920, Note_on_c, 9, 51, 100
10, 74240, Note_off_c, 9, 51, 100
10, 74240, Note_off_c, 9, 36, 100
10, 74400, Note_on_c, 9, 40, 100
10, 74400, Note_on_c, 9, 51, 100
10, 74720, Note_off_c, 9, 51, 100
10, 74720, Note_off_c, 9, 40, 100
10, 74880, Note_on_c, 9, 36, 100
10, 74880, Note_on_c, 9, 51, 100
10, 75200, Note_off_c, 9, 51, 100
10, 75200, Note_off_c, 9, 36, 100
10, 75360, Note_on_c, 9, 51, 100
10, 75600, Note_on_c, 9, 36, 100
10, 75680, Note_off_c, 9, 51, 100
10, 75760, Note_off_c, 9, 36, 100
10, 75840, Note_on_c, 9, 36, 100
10, 75840, Note_on_c, 9, 51, 100
10, 76000, Note_off_c, 9, 36, 100
10, 76160, Note_off_c, 9, 51, 100
10, 76320, Note_on_c, 9, 40, 100
10, 76320, Note_on_c, 9, 51, 100
10, 76640, Note_off_c, 9, 51, 100
10, 76640, Note_off_c, 9, 40, 100
10, 76800, Note_on_c, 9, 36, 100
10, 76800, Note_on_c, 9, 51, 100
10, 77120, Note_off_c, 9, 51, 100
10, 77120, Note_off_c, 9, 36, 100
10, 77280, Note_on_c, 9, 51, 100
10, 77600, Note_off_c, 9, 51, 100
10, 77760, Note_on_c, 9, 36, 100
10, 77760, Note_on_c, 9, 51, 100
10, 78080, Note_off_c, 9, 51, 100
10, 78080, Note_off_c, 9, 36, 100
10, 78240, Note_on_c, 9, 40, 100
10, 78240, Note_on_c, 9, 51, 100
10, 78560, Note_off_c, 9, 51, 100
10, 78560, Note_off_c, 9, 40, 100
10, 78720, Note_on_c, 9, 36, 100
10, 78720, Note_on_c, 9, 51, 100
10, 79040, Note_off_c, 9, 51, 100
10, 79040, Note_off_c, 9, 36, 100
10, 79200, Note_on_c, 9, 51, 100
10, 79440, Note_on_c, 9, 36, 100
10, 79520, Note_off_c, 9, 51, 100
10, 79600, Note_off_c, 9, 36, 100
10, 79680, Note_on_c, 9, 36, 100
10, 79680, Note_on_c, 9, 51, 100
10, 79840, Note_off_c, 9, 36, 100
10, 80000, Note_off_c, 9, 51, 100
10, 80160, Note_on_c, 9, 40, 100
10, 80160, Note_on_c, 9, 51, 100
10, 80480, Note_off_c, 9, 51, 100
10, 80480, Note_off_c, 9, 40, 100
10, 80640, Note_on_c, 9, 36, 100
10, 80640, Note_on_c, 9, 51, 100
10, 80960, Note_off_c, 9, 51, 100
10, 80960, Note_off_c, 9, 36, 100
10, 81120, Note_on_c, 9, 51, 100
10, 81440, Note_off_c, 9, 51, 100
10, 81600, Note_on_c, 9, 36, 100
10, 81600, Note_on_c, 9, 51, 100
10, 81920, Note_off_c, 9, 51, 100
10, 81920, Note_off_c, 9, 36, 100
10, 82080, Note_on_c, 9, 40, 100
10, 82080, Note_on_c, 9, 51, 100
10, 82400, Note_off_c, 9, 51, 100
10, 82400, Note_off_c, 9, 40, 100
10, 82560, Note_on_c, 9, 36, 100
10, 82560, Note_on_c, 9, 51, 100
10, 82880, Note_off_c, 9, 51, 100
10, 82880, Note_off_c, 9, 36, 100
10, 83040, Note_on_c, 9, 51, 100
10, 83280, Note_on_c, 9, 36, 100
10, 83360, Note_off_c, 9, 51, 100
10, 83440, Note_off_c, 9, 36, 100
10, 83520, Note_on_c, 9, 36, 100
10, 83520, Note_on_c, 9, 51, 100
10, 83680, Note_off_c, 9, 36, 100
10, 83840, Note_off_c, 9, 51, 100
10, 84000, Note_on_c, 9, 40, 100
10, 84000, Note_on_c, 9, 51, 100
10, 84320, Note_off_c, 9, 51, 100
10, 84320, Note_off_c, 9, 40, 100
10, 84480, Note_on_c, 9, 36, 100
10, 84480, Note_on_c, 9, 51, 100
10, 84800, Note_off_c, 9, 51, 100
10, 84800, Note_off_c, 9, 36, 100
10, 84960, Note_on_c, 9, 51, 100
10, 85280, Note_off_c, 9, 51, 100
10, 85440, Note_on_c, 9, 36, 100
10, 85440, Note_on_c, 9, 51, 100
10, 85760, Note_off_c, 9, 51, 100
10, 85760, Note_off_c, 9, 36, 100
10, 85920, Note_on_c, 9, 40, 100
10, 85920, Note_on_c, 9, 51, 100
10, 86240, Note_off_c, 9, 51, 100
10, 86240, Note_off_c, 9, 40, 100
10, 86400, Note_on_c, 9, 36, 100
10, 86400, Note_on_c, 9, 51, 100
10, 86720, Note_off_c, 9, 51, 100
10, 86720, Note_off_c, 9, 36, 100
10, 86880, Note_on_c, 9, 51, 100
10, 87120, Note_on_c, 9, 36, 100
10, 87200, Note_off_c, 9, 51, 100
10, 87280, Note_off_c, 9, 36, 100
10, 87360, Note_on_c, 9, 36, 100
10, 87360, Note_on_c, 9, 51, 100
10, 87520, Note_off_c, 9, 36, 100
10, 87680, Note_off_c, 9, 51, 100
10, 87840, Note_on_c, 9, 40, 100
10, 87840, Note_on_c, 9, 51, 100
10, 88160, Note_off_c, 9, 51, 100
10, 88160, Note_off_c, 9, 40, 100
10, 88320, Note_on_c, 9, 36, 100
10, 88320, Note_on_c, 9, 51, 100
10, 88320, Note_on_c, 9, 49, 100
10, 88640, Note_off_c, 9, 49, 100
10, 88640, Note_off_c, 9, 51, 100
10, 88640, Note_off_c, 9, 36, 100
10, 88800, Note_on_c, 9, 51, 100
10, 89120, Note_off_c, 9, 51, 100
10, 89280, Note_on_c, 9, 36, 100
10, 89280, Note_on_c, 9, 51, 100
10, 89600, Note_off_c, 9, 51, 100
10, 89600, Note_off_c, 9, 36, 100
10, 89760, Note_on_c, 9, 40, 100
10, 89760, Note_on_c, 9, 51, 100
10, 90080, Note_off_c, 9, 51, 100
10, 90080, Note_off_c, 9, 40, 100
10, 90240, Note_on_c, 9, 36, 100
10, 90240, Note_on_c, 9, 51, 100
10, 90560, Note_off_c, 9, 51, 100
10, 90560, Note_off_c, 9, 36, 100
10, 90720, Note_on_c, 9, 51, 100
10, 90960, Note_on_c, 9, 36, 100
10, 91040, Note_off_c, 9, 51, 100
10, 91120, Note_off_c, 9, 36, 100
10, 91200, Note_on_c, 9, 36, 100
10, 91200, Note_on_c, 9, 51, 100
10, 91360, Note_off_c, 9, 36, 100
10, 91520, Note_off_c, 9, 51, 100
10, 91680, Note_on_c, 9, 40, 100
10, 91680, Note_on_c, 9, 51, 100
10, 92000, Note_off_c, 9, 51, 100
10, 92000, Note_off_c, 9, 40, 100
10, 92160, Note_on_c, 9, 36, 100
10, 92160, Note_on_c, 9, 51, 100
10, 92480, Note_off_c, 9, 51, 100
10, 92480, Note_off_c, 9, 36, 100
10, 92640, Note_on_c, 9, 51, 100
10, 92960, Note_off_c, 9, 51, 100
10, 93120, Note_on_c, 9, 36, 100
10, 93120, Note_on_c, 9, 51, 100
10, 93440, Note_off_c, 9, 51, 100
10, 93440, Note_off_c, 9, 36, 100
10, 93600, Note_on_c, 9, 40, 100
10, 93600, Note_on_c, 9, 51, 100
10, 93920, Note_off_c, 9, 51, 100
10, 93920, Note_off_c, 9, 40, 100
10, 94080, Note_on_c, 9, 36, 100
10, 94080, Note_on_c, 9, 51, 100
10, 94400, Note_off_c, 9, 51, 100
10, 94400, Note_off_c, 9, 36, 100
10, 94560, Note_on_c, 9, 51, 100
10, 94800, Note_on_c, 9, 36, 100
10, 94880, Note_off_c, 9, 51, 100
10, 94960, Note_off_c, 9, 36, 100
10, 95040, Note_on_c, 9, 36, 100
10, 95040, Note_on_c, 9, 51, 100
10, 95200, Note_off_c, 9, 36, 100
10, 95360, Note_off_c, 9, 51, 100
10, 95520, Note_on_c, 9, 40, 100
10, 95520, Note_on_c, 9, 51, 100
10, 95840, Note_off_c, 9, 51, 100
10, 95840, Note_off_c, 9, 40, 100
10, 96000, Note_on_c, 9, 36, 100
10, 96000, Note_on_c, 9, 51, 100
10, 96320, Note_off_c, 9, 51, 100
10, 96320, Note_off_c, 9, 36, 100
10, 96480, Note_on_c, 9, 51, 100
10, 96800, Note_off_c, 9, 51, 100
10, 96960, Note_on_c, 9, 36, 100
10, 96960, Note_on_c, 9, 51, 100
10, 97280, Note_off_c, 9, 51, 100
10, 97280, Note_off_c, 9, 36, 100
10, 97440, Note_on_c, 9, 40, 100
10, 97440, Note_on_c, 9, 51, 100
10, 97760, Note_off_c, 9, 51, 100
10, 97760, Note_off_c, 9, 40, 100
10, 97920, Note_on_c, 9, 36, 100
10, 97920, Note_on_c, 9, 51, 100
10, 98240, Note_off_c, 9, 51, 100
10, 98240, Note_off_c, 9, 36, 100
10, 98400, Note_on_c, 9, 51, 100
10, 98640, Note_on_c, 9, 36, 100
10, 98720, Note_off_c, 9, 51, 100
10, 98800, Note_off_c, 9, 36, 100
10, 98880, Note_on_c, 9, 36, 100
10, 98880, Note_on_c, 9, 51, 100
10, 99040, Note_off_c, 9, 36, 100
10, 99200, Note_off_c, 9, 51, 100
10, 99360, Note_on_c, 9, 40, 100
10, 99360, Note_on_c, 9, 51, 100
10, 99680, Note_off_c, 9, 51, 100
10, 99680, Note_off_c, 9, 40, 100
10, 99840, Note_on_c, 9, 49, 100
10, 100160, Note_off_c, 9, 49, 100
10, 107520, Note_on_c, 9, 36, 100
10, 107840, Note_off_c, 9, 36, 100
10, 108000, Note_on_c, 9, 40, 100
10, 108320, Note_off_c, 9, 40, 100
10, 108480, Note_on_c, 9, 36, 100
10, 108720, Note_off_c, 9, 36, 100
10, 108720, Note_on_c, 9, 40, 100
10, 109040, Note_off_c, 9, 40, 100
10, 109200, Note_on_c, 9, 36, 100
10, 109360, Note_off_c, 9, 36, 100
10, 109440, Note_on_c, 9, 40, 100
10, 109760, Note_off_c, 9, 40, 100
10, 109920, Note_on_c, 9, 36, 100
10, 110080, Note_off_c, 9, 36, 100
10, 110160, Note_on_c, 9, 40, 100
10, 110480, Note_off_c, 9, 40, 100
10, 110640, Note_on_c, 9, 36, 100
10, 110800, Note_off_c, 9, 36, 100
10, 110880, Note_on_c, 9, 40, 100
10, 111200, Note_off_c, 9, 40, 100
10, 111360, Note_on_c, 9, 36, 100
10, 111360, Note_on_c, 9, 49, 100
10, 111360, Note_on_c, 9, 36, 100
10, 111360, Note_on_c, 9, 49, 100
10, 111360, Note_on_c, 9, 51, 100
10, 111680, Note_off_c, 9, 51, 100
10, 111680, Note_off_c, 9, 49, 100
10, 111680, Note_off_c, 9, 36, 100
10, 111680, Note_off_c, 9, 49, 100
10, 111680, Note_off_c, 9, 36, 100
10, 111840, Note_on_c, 9, 51, 100
10, 112160, Note_off_c, 9, 51, 100
10, 112320, Note_on_c, 9, 36, 100
10, 112320, Note_on_c, 9, 51, 100
10, 112640, Note_off_c, 9, 51, 100
10, 112640, Note_off_c, 9, 36, 100
10, 112800, Note_on_c, 9, 40, 100
10, 112800, Note_on_c, 9, 51, 100
10, 113120, Note_off_c, 9, 51, 100
10, 113120, Note_off_c, 9, 40, 100
10, 113280, Note_on_c, 9, 36, 100
10, 113280, Note_on_c, 9, 51, 100
10, 113600, Note_off_c, 9, 51, 100
10, 113600, Note_off_c, 9, 36, 100
10, 113760, Note_on_c, 9, 51, 100
10, 114000, Note_on_c, 9, 36, 100
10, 114080, Note_off_c, 9, 51, 100
10, 114160, Note_off_c, 9, 36, 100
10, 114240, Note_on_c, 9, 36, 100
10, 114240, Note_on_c, 9, 51, 100
10, 114400, Note_off_c, 9, 36, 100
10, 114560, Note_off_c, 9, 51, 100
10, 114720, Note_on_c, 9, 40, 100
10, 114720, Note_on_c, 9, 51, 100
10, 115040, Note_off_c, 9, 51, 100
10, 115040, Note_off_c, 9, 40, 100
10, 115200, Note_on_c, 9, 36, 100
10, 115200, Note_on_c, 9, 51, 100
10, 115520, Note_off_c, 9, 51, 100
10, 115520, Note_off_c, 9, 36, 100
10, 115680, Note_on_c, 9, 51, 100
10, 116000, Note_off_c, 9, 51, 100
10, 116160, Note_on_c, 9, 36, 100
10, 116160, Note_on_c, 9, 51, 100
10, 116480, Note_off_c, 9, 51, 100
10, 116480, Note_off_c, 9, 36, 100
10, 116640, Note_on_c, 9, 40, 100
10, 116640, Note_on_c, 9, 51, 100
10, 116960, Note_off_c, 9, 51, 100
10, 116960, Note_off_c, 9, 40, 100
10, 117120, Note_on_c, 9, 36, 100
10, 117120, Note_on_c, 9, 51, 100
10, 117440, Note_off_c, 9, 51, 100
10, 117440, Note_off_c, 9, 36, 100
10, 117600, Note_on_c, 9, 51, 100
10, 117840, Note_on_c, 9, 36, 100
10, 117920, Note_off_c, 9, 51, 100
10, 118000, Note_off_c, 9, 36, 100
10, 118080, Note_on_c, 9, 36, 100
10, 118080, Note_on_c, 9, 51, 100
10, 118240, Note_off_c, 9, 36, 100
10, 118400, Note_off_c, 9, 51, 100
10, 118560, Note_on_c, 9, 40, 100
10, 118560, Note_on_c, 9, 51, 100
10, 118880, Note_off_c, 9, 51, 100
10, 118880, Note_off_c, 9, 40, 100
10, 119040, Note_on_c, 9, 36, 100
10, 119040, Note_on_c, 9, 51, 100
10, 119360, Note_off_c, 9, 51, 100
10, 119360, Note_off_c, 9, 36, 100
10, 119520, Note_on_c, 9, 51, 100
10, 119840, Note_off_c, 9, 51, 100
10, 120000, Note_on_c, 9, 36, 100
10, 120000, Note_on_c, 9, 51, 100
10, 120320, Note_off_c, 9, 51, 100
10, 120320, Note_off_c, 9, 36, 100
10, 120480, Note_on_c, 9, 40, 100
10, 120480, Note_on_c, 9, 51, 100
10, 120800, Note_off_c, 9, 51, 100
10, 120800, Note_off_c, 9, 40, 100
10, 120960, Note_on_c, 9, 36, 100
10, 120960, Note_on_c, 9, 51, 100
10, 121280, Note_off_c, 9, 51, 100
10, 121280, Note_off_c, 9, 36, 100
10, 121440, Note_on_c, 9, 51, 100
10, 121680, Note_on_c, 9, 36, 100
10, 121760, Note_off_c, 9, 51, 100
10, 121840, Note_off_c, 9, 36, 100
10, 121920, Note_on_c, 9, 36, 100
10, 121920, Note_on_c, 9, 51, 100
10, 122080, Note_off_c, 9, 36, 100
10, 122240, Note_off_c, 9, 51, 100
10, 122400, Note_on_c, 9, 40, 100
10, 122400, Note_on_c, 9, 51, 100
10, 122720, Note_off_c, 9, 51, 100
10, 122720, Note_off_c, 9, 40, 100
10, 122880, Note_on_c, 9, 36, 100
10, 122880, Note_on_c, 9, 51, 100
10, 123200, Note_off_c, 9, 51, 100
10, 123200, Note_off_c, 9, 36, 100
10, 123360, Note_on_c, 9, 51, 100
10, 123680, Note_off_c, 9, 51, 100
10, 123840, Note_on_c, 9, 36, 100
10, 123840, Note_on_c, 9, 51, 100
10, 124160, Note_off_c, 9, 51, 100
10, 124160, Note_off_c, 9, 36, 100
10, 124320, Note_on_c, 9, 40, 100
10, 124320, Note_on_c, 9, 51, 100
10, 124640, Note_off_c, 9, 51, 100
10, 124640, Note_off_c, 9, 40, 100
10, 124800, Note_on_c, 9, 36, 100
10, 124800, Note_on_c, 9, 51, 100
10, 125120, Note_off_c, 9, 51, 100
10, 125120, Note_off_c, 9, 36, 100
10, 125280, Note_on_c, 9, 51, 100
10, 125520, Note_on_c, 9, 36, 100
10, 125600, Note_off_c, 9, 51, 100
10, 125680, Note_off_c, 9, 36, 100
10, 125760, Note_on_c, 9, 36, 100
10, 125760, Note_on_c, 9, 51, 100
10, 125920, Note_off_c, 9, 36, 100
10, 126080, Note_off_c, 9, 51, 100
10, 126240, Note_on_c, 9, 40, 100
10, 126240, Note_on_c, 9, 51, 100
10, 126560, Note_off_c, 9, 51, 100
10, 126560, Note_off_c, 9, 40, 100
10, 126720, Note_on_c, 9, 36, 100
10, 126720, Note_on_c, 9, 51, 100
10, 127040, Note_off_c, 9, 51, 100
10, 127040, Note_off_c, 9, 36, 100
10, 127200, Note_on_c, 9, 51, 100
10, 127520, Note_off_c, 9, 51, 100
10, 127680, Note_on_c, 9, 36, 100
10, 127680, Note_on_c, 9, 51, 100
10, 128000, Note_off_c, 9, 51, 100
10, 128000, Note_off_c, 9, 36, 100
10, 128160, Note_on_c, 9, 40, 100
10, 128160, Note_on_c, 9, 51, 100
10, 128480, Note_off_c, 9, 51, 100
10, 128480, Note_off_c, 9, 40, 100
10, 128640, Note_on_c, 9, 36, 100
10, 128640, Note_on_c, 9, 51, 100
10, 128960, Note_off_c, 9, 51, 100
10, 128960, Note_off_c, 9, 36, 100
10, 129120, Note_on_c, 9, 51, 100
10, 129360, Note_on_c, 9, 36, 100
10, 129440, Note_off_c, 9, 51, 100
10, 129520, Note_off_c, 9, 36, 100
10, 129600, Note_on_c, 9, 36, 100
10, 129600, Note_on_c, 9, 51, 100
10, 129760, Note_off_c, 9, 36, 100
10, 129920, Note_off_c, 9, 51, 100
10, 130080, Note_on_c, 9, 40, 100
10, 130080, Note_on_c, 9, 51, 100
10, 130400, Note_off_c, 9, 51, 100
10, 130400, Note_off_c, 9, 40, 100
10, 130560, Note_on_c, 9, 36, 100
10, 130560, Note_on_c, 9, 51, 100
10, 130880, Note_off_c, 9, 51, 100
10, 130880, Note_off_c, 9, 36, 100
10, 131040, Note_on_c, 9, 51, 100
10, 131360, Note_off_c, 9, 51, 100
10, 131520, Note_on_c, 9, 36, 100
10, 131520, Note_on_c, 9, 51, 100
10, 131840, Note_off_c, 9, 51, 100
10, 131840, Note_off_c, 9, 36, 100
10, 132000, Note_on_c, 9, 40, 100
10, 132000, Note_on_c, 9, 51, 100
10, 132320, Note_off_c, 9, 51, 100
10, 132320, Note_off_c, 9, 40, 100
10, 132480, Note_on_c, 9, 36, 100
10, 132480, Note_on_c, 9, 51, 100
10, 132800, Note_off_c, 9, 51, 100
10, 132800, Note_off_c, 9, 36, 100
10, 132960, Note_on_c, 9, 51, 100
10, 133200, Note_on_c, 9, 36, 100
10, 133280, Note_off_c, 9, 51, 100
10, 133360, Note_off_c, 9, 36, 100
10, 133440, Note_on_c, 9, 36, 100
10, 133440, Note_on_c, 9, 51, 100
10, 133600, Note_off_c, 9, 36, 100
10, 133760, Note_off_c, 9, 51, 100
10, 133920, Note_on_c, 9, 40, 100
10, 133920, Note_on_c, 9, 51, 100
10, 134240, Note_off_c, 9, 51, 100
10, 134240, Note_off_c, 9, 40, 100
10, 134400, Note_on_c, 9, 36, 100
10, 134400, Note_on_c, 9, 51, 100
10, 134720, Note_off_c, 9, 51, 100
10, 134720, Note_off_c, 9, 36, 100
10, 134880, Note_on_c, 9, 51, 100
10, 135200, Note_off_c, 9, 51, 100
10, 135360, Note_on_c, 9, 36, 100
10, 135360, Note_on_c, 9, 51, 100
10, 135680, Note_off_c, 9, 51, 100
10, 135680, Note_off_c, 9, 36, 100
10, 135840, Note_on_c, 9, 40, 100
10, 135840, Note_on_c, 9, 51, 100
10, 136160, Note_off_c, 9, 51, 100
10, 136160, Note_off_c, 9, 40, 100
10, 136320, Note_on_c, 9, 36, 100
10, 136320, Note_on_c, 9, 51, 100
10, 136640, Note_off_c, 9, 51, 100
10, 136640, Note_off_c, 9, 36, 100
10, 136800, Note_on_c, 9, 51, 100
10, 137040, Note_on_c, 9, 36, 100
10, 137120, Note_off_c, 9, 51, 100
10, 137200, Note_off_c, 9, 36, 100
10, 137280, Note_on_c, 9, 36, 100
10, 137280, Note_on_c, 9, 51, 100
10, 137440, Note_off_c, 9, 36, 100
10, 137600, Note_off_c, 9, 51, 100
10, 137760, Note_on_c, 9, 40, 100
10, 137760, Note_on_c, 9, 51, 100
10, 138080, Note_off_c, 9, 51, 100
10, 138080, Note_off_c, 9, 40, 100
10, 138240, Note_on_c, 9, 44, 100
10, 138240, Note_on_c, 9, 36, 100
10, 138240, Note_on_c, 9, 49, 100
10, 138560, Note_off_c, 9, 49, 100
10, 138560, Note_off_c, 9, 36, 100
10, 138560, Note_off_c, 9, 44, 100
10, 138720, Note_on_c, 9, 44, 100
10, 138720, Note_on_c, 9, 40, 100
10, 139040, Note_off_c, 9, 40, 100
10, 139040, Note_off_c, 9, 44, 100
10, 139200, Note_on_c, 9, 44, 100
10, 139200, Note_on_c, 9, 36, 100
10, 139520, Note_off_c, 9, 36, 100
10, 139520, Note_off_c, 9, 44, 100
10, 139680, Note_on_c, 9, 44, 100
10, 139680, Note_on_c, 9, 40, 100
10, 140000, Note_off_c, 9, 40, 100
10, 140000, Note_off_c, 9, 44, 100
10, 140160, Note_on_c, 9, 44, 100
10, 140160, Note_on_c, 9, 36, 100
10, 140480, Note_off_c, 9, 36, 100
10, 140480, Note_off_c, 9, 44, 100
10, 140640, Note_on_c, 9, 44, 100
10, 140640, Note_on_c, 9, 40, 100
10, 140960, Note_off_c, 9, 40, 100
10, 140960, Note_off_c, 9, 44, 100
10, 141120, Note_on_c, 9, 44, 100
10, 141120, Note_on_c, 9, 36, 100
10, 141440, Note_off_c, 9, 36, 100
10, 141440, Note_off_c, 9, 44, 100
10, 141600, Note_on_c, 9, 44, 100
10, 141600, Note_on_c, 9, 40, 100
10, 141920, Note_off_c, 9, 40, 100
10, 141920, Note_off_c, 9, 44, 100
10, 142080, Note_on_c, 9, 44, 100
10, 142080, Note_on_c, 9, 36, 100
10, 142400, Note_off_c, 9, 36, 100
10, 142400, Note_off_c, 9, 44, 100
10, 142560, Note_on_c, 9, 44, 100
10, 142560, Note_on_c, 9, 40, 100
10, 142880, Note_off_c, 9, 40, 100
10, 142880, Note_off_c, 9, 44, 100
10, 143040, Note_on_c, 9, 44, 100
10, 143040, Note_on_c, 9, 36, 100
10, 143360, Note_off_c, 9, 36, 100
10, 143360, Note_off_c, 9, 44, 100
10, 143520, Note_on_c, 9, 44, 100
10, 143520, Note_on_c, 9, 40, 100
10, 143840, Note_off_c, 9, 40, 100
10, 143840, Note_off_c, 9, 44, 100
10, 144000, Note_on_c, 9, 44, 100
10, 144000, Note_on_c, 9, 36, 100
10, 144320, Note_off_c, 9, 36, 100
10, 144320, Note_off_c, 9, 44, 100
10, 144480, Note_on_c, 9, 44, 100
10, 144480, Note_on_c, 9, 40, 100
10, 144800, Note_off_c, 9, 40, 100
10, 144800, Note_off_c, 9, 44, 100
10, 144960, Note_on_c, 9, 44, 100
10, 144960, Note_on_c, 9, 36, 100
10, 145280, Note_off_c, 9, 36, 100
10, 145280, Note_off_c, 9, 44, 100
10, 145440, Note_on_c, 9, 44, 100
10, 145440, Note_on_c, 9, 40, 100
10, 145760, Note_off_c, 9, 40, 100
10, 145760, Note_off_c, 9, 44, 100
10, 145920, Note_on_c, 9, 44, 100
10, 145920, Note_on_c, 9, 36, 100
10, 146240, Note_off_c, 9, 36, 100
10, 146240, Note_off_c, 9, 44, 100
10, 146400, Note_on_c, 9, 44, 100
10, 146400, Note_on_c, 9, 40, 100
10, 146720, Note_off_c, 9, 40, 100
10, 146720, Note_off_c, 9, 44, 100
10, 146880, Note_on_c, 9, 44, 100
10, 146880, Note_on_c, 9, 36, 100
10, 147200, Note_off_c, 9, 36, 100
10, 147200, Note_off_c, 9, 44, 100
10, 147360, Note_on_c, 9, 44, 100
10, 147360, Note_on_c, 9, 40, 100
10, 147680, Note_off_c, 9, 40, 100
10, 147680, Note_off_c, 9, 44, 100
10, 147840, Note_on_c, 9, 44, 100
10, 147840, Note_on_c, 9, 36, 100
10, 148160, Note_off_c, 9, 36, 100
10, 148160, Note_off_c, 9, 44, 100
10, 148320, Note_on_c, 9, 44, 100
10, 148320, Note_on_c, 9, 40, 100
10, 148640, Note_off_c, 9, 40, 100
10, 148640, Note_off_c, 9, 44, 100
10, 148800, Note_on_c, 9, 44, 100
10, 148800, Note_on_c, 9, 36, 100
10, 149120, Note_off_c, 9, 36, 100
10, 149120, Note_off_c, 9, 44, 100
10, 149280, Note_on_c, 9, 44, 100
10, 149280, Note_on_c, 9, 40, 100
10, 149600, Note_off_c, 9, 40, 100
10, 149600, Note_off_c, 9, 44, 100
10, 149760, Note_on_c, 9, 44, 100
10, 149760, Note_on_c, 9, 36, 100
10, 150080, Note_off_c, 9, 36, 100
10, 150080, Note_off_c, 9, 44, 100
10, 150240, Note_on_c, 9, 44, 100
10, 150240, Note_on_c, 9, 40, 100
10, 150560, Note_off_c, 9, 40, 100
10, 150560, Note_off_c, 9, 44, 100
10, 150720, Note_on_c, 9, 44, 100
10, 150720, Note_on_c, 9, 36, 100
10, 151040, Note_off_c, 9, 36, 100
10, 151040, Note_off_c, 9, 44, 100
10, 151200, Note_on_c, 9, 44, 100
10, 151200, Note_on_c, 9, 40, 100
10, 151520, Note_off_c, 9, 40, 100
10, 151520, Note_off_c, 9, 44, 100
10, 151680, Note_on_c, 9, 44, 100
10, 151680, Note_on_c, 9, 36, 100
10, 152000, Note_off_c, 9, 36, 100
10, 152000, Note_off_c, 9, 44, 100
10, 152160, Note_on_c, 9, 44, 100
10, 152160, Note_on_c, 9, 40, 100
10, 152480, Note_off_c, 9, 40, 100
10, 152480, Note_off_c, 9, 44, 100
10, 152640, Note_on_c, 9, 44, 100
10, 152640, Note_on_c, 9, 36, 100
10, 152960, Note_off_c, 9, 36, 100
10, 152960, Note_off_c, 9, 44, 100
10, 153120, Note_on_c, 9, 44, 100
10, 153120, Note_on_c, 9, 40, 100
10, 153440, Note_off_c, 9, 40, 100
10, 153440, Note_off_c, 9, 44, 100
10, 153600, Note_on_c, 9, 36, 100
10, 153600, Note_on_c, 9, 51, 100
10, 153600, Note_on_c, 9, 49, 100
10, 153920, Note_off_c, 9, 49, 100
10, 153920, Note_off_c, 9, 51, 100
10, 153920, Note_off_c, 9, 36, 100
10, 154080, Note_on_c, 9, 51, 100
10, 154400, Note_off_c, 9, 51, 100
10, 154560, Note_on_c, 9, 36, 100
10, 154560, Note_on_c, 9, 51, 100
10, 154880, Note_off_c, 9, 51, 100
10, 154880, Note_off_c, 9, 36, 100
10, 155040, Note_on_c, 9, 40, 100
10, 155040, Note_on_c, 9, 51, 100
10, 155360, Note_off_c, 9, 51, 100
10, 155360, Note_off_c, 9, 40, 100
10, 155520, Note_on_c, 9, 36, 100
10, 155520, Note_on_c, 9, 51, 100
10, 155840, Note_off_c, 9, 51, 100
10, 155840, Note_off_c, 9, 36, 100
10, 156000, Note_on_c, 9, 51, 100
10, 156240, Note_on_c, 9, 36, 100
10, 156320, Note_off_c, 9, 51, 100
10, 156400, Note_off_c, 9, 36, 100
10, 156480, Note_on_c, 9, 36, 100
10, 156480, Note_on_c, 9, 51, 100
10, 156640, Note_off_c, 9, 36, 100
10, 156800, Note_off_c, 9, 51, 100
10, 156960, Note_on_c, 9, 40, 100
10, 156960, Note_on_c, 9, 51, 100
10, 157280, Note_off_c, 9, 51, 100
10, 157280, Note_off_c, 9, 40, 100
10, 157440, Note_on_c, 9, 36, 100
10, 157440, Note_on_c, 9, 51, 100
10, 157760, Note_off_c, 9, 51, 100
10, 157760, Note_off_c, 9, 36, 100
10, 157920, Note_on_c, 9, 51, 100
10, 158240, Note_off_c, 9, 51, 100
10, 158400, Note_on_c, 9, 36, 100
10, 158400, Note_on_c, 9, 51, 100
10, 158720, Note_off_c, 9, 51, 100
10, 158720, Note_off_c, 9, 36, 100
10, 158880, Note_on_c, 9, 40, 100
10, 158880, Note_on_c, 9, 51, 100
10, 159200, Note_off_c, 9, 51, 100
10, 159200, Note_off_c, 9, 40, 100
10, 159360, Note_on_c, 9, 36, 100
10, 159360, Note_on_c, 9, 51, 100
10, 159680, Note_off_c, 9, 51, 100
10, 159680, Note_off_c, 9, 36, 100
10, 159840, Note_on_c, 9, 51, 100
10, 160080, Note_on_c, 9, 36, 100
10, 160160, Note_off_c, 9, 51, 100
10, 160240, Note_off_c, 9, 36, 100
10, 160320, Note_on_c, 9, 36, 100
10, 160320, Note_on_c, 9, 51, 100
10, 160480, Note_off_c, 9, 36, 100
10, 160640, Note_off_c, 9, 51, 100
10, 160800, Note_on_c, 9, 40, 100
10, 160800, Note_on_c, 9, 51, 100
10, 161120, Note_off_c, 9, 51, 100
10, 161120, Note_off_c, 9, 40, 100
10, 161280, Note_on_c, 9, 36, 100
10, 161280, Note_on_c, 9, 51, 100
10, 161600, Note_off_c, 9, 51, 100
10, 161600, Note_off_c, 9, 36, 100
10, 161760, Note_on_c, 9, 51, 100
10, 162080, Note_off_c, 9, 51, 100
10, 162240, Note_on_c, 9, 36, 100
10, 162240, Note_on_c, 9, 51, 100
10, 162560, Note_off_c, 9, 51, 100
10, 162560, Note_off_c, 9, 36, 100
10, 162720, Note_on_c, 9, 40, 100
10, 162720, Note_on_c, 9, 51, 100
10, 163040, Note_off_c, 9, 51, 100
10, 163040, Note_off_c, 9, 40, 100
10, 163200, Note_on_c, 9, 36, 100
10, 163200, Note_on_c, 9, 51, 100
10, 163520, Note_off_c, 9, 51, 100
10, 163520, Note_off_c, 9, 36, 100
10, 163680, Note_on_c, 9, 51, 100
10, 163920, Note_on_c, 9, 36, 100
10, 164000, Note_off_c, 9, 51, 100
10, 164080, Note_off_c, 9, 36, 100
10, 164160, Note_on_c, 9, 36, 100
10, 164160, Note_on_c, 9, 51, 100
10, 164320, Note_off_c, 9, 36, 100
10, 164480, Note_off_c, 9, 51, 100
10, 164640, Note_on_c, 9, 40, 100
10, 164640, Note_on_c, 9, 51, 100
10, 164960, Note_off_c, 9, 51, 100
10, 164960, Note_off_c, 9, 40, 100
10, 165120, Note_on_c, 9, 36, 100
10, 165120, Note_on_c, 9, 51, 100
10, 165440, Note_off_c, 9, 51, 100
10, 165440, Note_off_c, 9, 36, 100
10, 165600, Note_on_c, 9, 51, 100
10, 165920, Note_off_c, 9, 51, 100
10, 166080, Note_on_c, 9, 36, 100
10, 166080, Note_on_c, 9, 51, 100
10, 166400, Note_off_c, 9, 51, 100
10, 166400, Note_off_c, 9, 36, 100
10, 166560, Note_on_c, 9, 40, 100
10, 166560, Note_on_c, 9, 51, 100
10, 166880, Note_off_c, 9, 51, 100
10, 166880, Note_off_c, 9, 40, 100
10, 167040, Note_on_c, 9, 36, 100
10, 167040, Note_on_c, 9, 51, 100
10, 167360, Note_off_c, 9, 51, 100
10, 167360, Note_off_c, 9, 36, 100
10, 167520, Note_on_c, 9, 51, 100
10, 167760, Note_on_c, 9, 36, 100
10, 167840, Note_off_c, 9, 51, 100
10, 167920, Note_off_c, 9, 36, 100
10, 168000, Note_on_c, 9, 36, 100
10, 168000, Note_on_c, 9, 51, 100
10, 168160, Note_off_c, 9, 36, 100
10, 168320, Note_off_c, 9, 51, 100
10, 168480, Note_on_c, 9, 40, 100
10, 168480, Note_on_c, 9, 51, 100
10, 168800, Note_off_c, 9, 51, 100
10, 168800, Note_off_c, 9, 40, 100
10, 168960, Note_on_c, 9, 36, 100
10, 168960, Note_on_c, 9, 51, 100
10, 169280, Note_off_c, 9, 51, 100
10, 169280, Note_off_c, 9, 36, 100
10, 169440, Note_on_c, 9, 51, 100
10, 169760, Note_off_c, 9, 51, 100
10, 169920, Note_on_c, 9, 36, 100
10, 169920, Note_on_c, 9, 51, 100
10, 170240, Note_off_c, 9, 51, 100
10, 170240, Note_off_c, 9, 36, 100
10, 170400, Note_on_c, 9, 40, 100
10, 170400, Note_on_c, 9, 51, 100
10, 170720, Note_off_c, 9, 51, 100
10, 170720, Note_off_c, 9, 40, 100
10, 170880, Note_on_c, 9, 36, 100
10, 170880, Note_on_c, 9, 51, 100
10, 171200, Note_off_c, 9, 51, 100
10, 171200, Note_off_c, 9, 36, 100
10, 171360, Note_on_c, 9, 51, 100
10, 171600, Note_on_c, 9, 36, 100
10, 171680, Note_off_c, 9, 51, 100
10, 171760, Note_off_c, 9, 36, 100
10, 171840, Note_on_c, 9, 36, 100
10, 171840, Note_on_c, 9, 51, 100
10, 172000, Note_off_c, 9, 36, 100
10, 172160, Note_off_c, 9, 51, 100
10, 172320, Note_on_c, 9, 40, 100
10, 172320, Note_on_c, 9, 51, 100
10, 172640, Note_off_c, 9, 51, 100
10, 172640, Note_off_c, 9, 40, 100
10, 172800, Note_on_c, 9, 36, 100
10, 172800, Note_on_c, 9, 51, 100
10, 173120, Note_off_c, 9, 51, 100
10, 173120, Note_off_c, 9, 36, 100
10, 173280, Note_on_c, 9, 51, 100
10, 173600, Note_off_c, 9, 51, 100
10, 173760, Note_on_c, 9, 36, 100
10, 173760, Note_on_c, 9, 51, 100
10, 174080, Note_off_c, 9, 51, 100
10, 174080, Note_off_c, 9, 36, 100
10, 174240, Note_on_c, 9, 40, 100
10, 174240, Note_on_c, 9, 51, 100
10, 174560, Note_off_c, 9, 51, 100
10, 174560, Note_off_c, 9, 40, 100
10, 174720, Note_on_c, 9, 36, 100
10, 174720, Note_on_c, 9, 51, 100
10, 175040, Note_off_c, 9, 51, 100
10, 175040, Note_off_c, 9, 36, 100
10, 175200, Note_on_c, 9, 51, 100
10, 175440, Note_on_c, 9, 36, 100
10, 175520, Note_off_c, 9, 51, 100
10, 175600, Note_off_c, 9, 36, 100
10, 175680, Note_on_c, 9, 36, 100
10, 175680, Note_on_c, 9, 51, 100
10, 175840, Note_off_c, 9, 36, 100
10, 176000, Note_off_c, 9, 51, 100
10, 176160, Note_on_c, 9, 40, 100
10, 176160, Note_on_c, 9, 51, 100
10, 176480, Note_off_c, 9, 51, 100
10, 176480, Note_off_c, 9, 40, 100
10, 176640, Note_on_c, 9, 49, 100
10, 177925, Note_off_c, 9, 49, 100
10, 184320, Note_on_c, 9, 49, 100
10, 185605, Note_off_c, 9, 49, 100
10, 185605, End_track
11, 0, Start_track
11, 0, Title_t, """I Feel Fine"" by The Beatles"
11, 0, MIDI_port, 0
11, 0, End_track
12, 0, Start_track
12, 0, Title_t, "MIDI file by John-Paul Bonadonna"
12, 0, MIDI_port, 0
12, 0, End_track
13, 0, Start_track
13, 0, Title_t, "Comments?"
13, 0, MIDI_port, 0
13, 0, End_track
14, 0, Start_track
14, 0, Title_t, "jbonadon@wincom.net"
14, 0, MIDI_port, 0
14, 0, End_track
0, 0, End_of_file
