0, 0, Header, 1, 24, 120
1, 0, Start_track
1, 0, Title_t, "It's My Life -- By: Talk Talk"
1, 0, Text_t, "Sequenced by: Sean D. Green\012"
1, 0, Text_t, """It's My Life"" by: Talk Talk\012"
1, 0, Text_t, "Sequenced by: Sean D. Green\012"
1, 0, Text_t, "E-Mail: sdgreen@flash.net\012"
1, 0, Text_t, "Web Site: The Midi Extreme -- http://www.flash.net/~questps/midi.htm\012"
1, 0, Text_t, "Please let me know what you think about this tune!!  \012"
1, 0, Text_t, "ENJOY!!\012"
1, 0, SMPTE_offset, 96, 0, 3, 0, 0
1, 0, Time_signature, 4, 2, 24, 8
1, 0, Key_signature, 0, "major"
1, 0, Tempo, 480000
1, 0, End_track
2, 0, Start_track
2, 0, MIDI_port, 0
2, 0, Title_t, "Fretless Bass"
2, 0, Control_c, 0, 0, 56
2, 0, Control_c, 0, 32, 0
2, 0, Program_c, 0, 33
2, 0, Control_c, 0, 7, 120
2, 0, Control_c, 0, 10, 75
2, 255, Control_c, 0, 93, 13
2, 280, Control_c, 0, 93, 17
2, 285, Control_c, 0, 93, 24
2, 290, Control_c, 0, 93, 37
2, 295, Control_c, 0, 93, 45
2, 305, Control_c, 0, 93, 47
2, 345, Control_c, 0, 93, 44
2, 350, Control_c, 0, 93, 35
2, 355, Control_c, 0, 93, 31
2, 360, Control_c, 0, 93, 15
2, 370, Control_c, 0, 93, 10
2, 375, Control_c, 0, 93, 2
2, 385, Control_c, 0, 93, 0
2, 945, Control_c, 0, 93, 8
2, 960, Note_on_c, 0, 39, 52
2, 990, Control_c, 0, 93, 12
2, 997, Control_c, 0, 93, 16
2, 1020, Note_on_c, 0, 39, 0
2, 1040, Control_c, 0, 93, 12
2, 1050, Control_c, 0, 93, 2
2, 1055, Control_c, 0, 93, 0
2, 1080, Note_on_c, 0, 39, 104
2, 1140, Note_on_c, 0, 39, 0
2, 1200, Note_on_c, 0, 37, 114
2, 1260, Note_on_c, 0, 37, 0
2, 1260, Note_on_c, 0, 39, 96
2, 1320, Note_on_c, 0, 39, 0
2, 1380, Note_on_c, 0, 34, 86
2, 1440, Note_on_c, 0, 34, 0
2, 1500, Note_on_c, 0, 34, 36
2, 1530, Note_on_c, 0, 34, 0
2, 1560, Note_on_c, 0, 39, 100
2, 1620, Note_on_c, 0, 39, 0
2, 1625, Control_c, 0, 10, 70
2, 1660, Control_c, 0, 10, 73
2, 1665, Control_c, 0, 10, 75
2, 1670, Control_c, 0, 10, 77
2, 1677, Control_c, 0, 10, 80
2, 1680, Control_c, 0, 10, 84
2, 1680, Note_on_c, 0, 37, 96
2, 1690, Control_c, 0, 10, 88
2, 1695, Control_c, 0, 10, 89
2, 1740, Note_on_c, 0, 37, 0
2, 1740, Note_on_c, 0, 39, 100
2, 1800, Note_on_c, 0, 39, 0
2, 1830, Control_c, 0, 10, 88
2, 1860, Note_on_c, 0, 41, 82
2, 1950, Note_on_c, 0, 41, 0
2, 2034, Control_c, 0, 10, 86
2, 2040, Control_c, 0, 10, 84
2, 2040, Note_on_c, 0, 41, 79
2, 2075, Control_c, 0, 10, 83
2, 2100, Note_on_c, 0, 41, 0
2, 2160, Note_on_c, 0, 39, 84
2, 2215, Control_c, 0, 10, 81
2, 2220, Note_on_c, 0, 39, 0
2, 2220, Control_c, 0, 10, 80
2, 2220, Note_on_c, 0, 41, 60
2, 2280, Note_on_c, 0, 41, 0
2, 2340, Note_on_c, 0, 44, 79
2, 2430, Note_on_c, 0, 44, 0
2, 2520, Note_on_c, 0, 44, 79
2, 2580, Note_on_c, 0, 44, 0
2, 2595, Control_c, 0, 93, 2
2, 2620, Control_c, 0, 93, 6
2, 2640, Control_c, 0, 93, 12
2, 2640, Note_on_c, 0, 41, 72
2, 2650, Control_c, 0, 93, 13
2, 2660, Control_c, 0, 93, 17
2, 2670, Control_c, 0, 93, 21
2, 2700, Note_on_c, 0, 41, 0
2, 2700, Note_on_c, 0, 44, 64
2, 2790, Note_on_c, 0, 44, 0
2, 2820, Note_on_c, 0, 41, 45
2, 2880, Note_on_c, 0, 41, 0
2, 2880, Note_on_c, 0, 46, 66
2, 2940, Note_on_c, 0, 46, 0
2, 3000, Note_on_c, 0, 39, 81
2, 3060, Note_on_c, 0, 39, 0
2, 3120, Note_on_c, 0, 37, 89
2, 3180, Note_on_c, 0, 39, 77
2, 3210, Note_on_c, 0, 37, 0
2, 3240, Note_on_c, 0, 39, 0
2, 3300, Note_on_c, 0, 34, 84
2, 3360, Note_on_c, 0, 34, 0
2, 3420, Note_on_c, 0, 34, 54
2, 3480, Note_on_c, 0, 34, 0
2, 3480, Note_on_c, 0, 39, 86
2, 3540, Note_on_c, 0, 39, 0
2, 3600, Note_on_c, 0, 37, 89
2, 3660, Note_on_c, 0, 37, 0
2, 3660, Note_on_c, 0, 39, 79
2, 3720, Note_on_c, 0, 39, 0
2, 3780, Note_on_c, 0, 41, 85
2, 3870, Note_on_c, 0, 41, 0
2, 3920, Control_c, 0, 93, 23
2, 3960, Note_on_c, 0, 41, 83
2, 3964, Control_c, 0, 93, 27
2, 3969, Control_c, 0, 93, 30
2, 3974, Control_c, 0, 93, 33
2, 3979, Control_c, 0, 93, 36
2, 4010, Control_c, 0, 93, 37
2, 4015, Control_c, 0, 93, 39
2, 4035, Control_c, 0, 93, 42
2, 4040, Control_c, 0, 93, 44
2, 4045, Control_c, 0, 93, 47
2, 4050, Note_on_c, 0, 41, 0
2, 4060, Control_c, 0, 93, 52
2, 4065, Control_c, 0, 93, 55
2, 4080, Note_on_c, 0, 39, 75
2, 4140, Note_on_c, 0, 39, 0
2, 4140, Note_on_c, 0, 41, 76
2, 4200, Note_on_c, 0, 41, 0
2, 4200, Control_c, 0, 93, 52
2, 4210, Control_c, 0, 93, 49
2, 4225, Control_c, 0, 93, 46
2, 4230, Control_c, 0, 93, 44
2, 4260, Note_on_c, 0, 44, 81
2, 4350, Note_on_c, 0, 44, 0
2, 4440, Note_on_c, 0, 44, 86
2, 4445, Control_c, 0, 93, 46
2, 4485, Control_c, 0, 93, 49
2, 4490, Control_c, 0, 93, 51
2, 4500, Note_on_c, 0, 44, 0
2, 4520, Control_c, 0, 93, 53
2, 4560, Note_on_c, 0, 41, 74
2, 4620, Note_on_c, 0, 41, 0
2, 4620, Note_on_c, 0, 44, 64
2, 4680, Note_on_c, 0, 44, 0
2, 4680, Control_c, 0, 93, 56
2, 4704, Control_c, 0, 93, 60
2, 4740, Note_on_c, 0, 44, 81
2, 4800, Note_on_c, 0, 44, 0
2, 4800, Note_on_c, 0, 46, 69
2, 4860, Note_on_c, 0, 46, 0
2, 4920, Note_on_c, 0, 39, 81
2, 4980, Note_on_c, 0, 39, 0
2, 5040, Note_on_c, 0, 37, 92
2, 5100, Note_on_c, 0, 37, 0
2, 5100, Note_on_c, 0, 39, 92
2, 5160, Note_on_c, 0, 39, 0
2, 5220, Note_on_c, 0, 34, 89
2, 5310, Note_on_c, 0, 34, 0
2, 5340, Note_on_c, 0, 34, 54
2, 5400, Note_on_c, 0, 34, 0
2, 5400, Note_on_c, 0, 39, 96
2, 5460, Note_on_c, 0, 39, 0
2, 5520, Note_on_c, 0, 37, 86
2, 5580, Note_on_c, 0, 37, 0
2, 5580, Note_on_c, 0, 39, 96
2, 5640, Note_on_c, 0, 39, 0
2, 5700, Note_on_c, 0, 41, 76
2, 5790, Note_on_c, 0, 41, 0
2, 5880, Note_on_c, 0, 41, 72
2, 5940, Note_on_c, 0, 41, 0
2, 6000, Note_on_c, 0, 39, 86
2, 6060, Note_on_c, 0, 39, 0
2, 6060, Note_on_c, 0, 41, 79
2, 6120, Note_on_c, 0, 41, 0
2, 6180, Note_on_c, 0, 44, 84
2, 6270, Note_on_c, 0, 44, 0
2, 6360, Note_on_c, 0, 44, 86
2, 6450, Note_on_c, 0, 44, 0
2, 6480, Note_on_c, 0, 41, 85
2, 6540, Note_on_c, 0, 41, 0
2, 6540, Note_on_c, 0, 44, 89
2, 6630, Note_on_c, 0, 44, 0
2, 6660, Note_on_c, 0, 41, 76
2, 6720, Note_on_c, 0, 41, 0
2, 6720, Note_on_c, 0, 46, 92
2, 6780, Note_on_c, 0, 46, 0
2, 6840, Note_on_c, 0, 39, 84
2, 6900, Note_on_c, 0, 39, 0
2, 6960, Note_on_c, 0, 37, 92
2, 7020, Note_on_c, 0, 37, 0
2, 7020, Note_on_c, 0, 39, 77
2, 7080, Note_on_c, 0, 39, 0
2, 7140, Note_on_c, 0, 34, 81
2, 7200, Note_on_c, 0, 34, 0
2, 7260, Note_on_c, 0, 34, 73
2, 7320, Note_on_c, 0, 34, 0
2, 7320, Note_on_c, 0, 39, 81
2, 7380, Note_on_c, 0, 39, 0
2, 7440, Note_on_c, 0, 37, 96
2, 7500, Note_on_c, 0, 37, 0
2, 7500, Note_on_c, 0, 39, 89
2, 7560, Note_on_c, 0, 39, 0
2, 7620, Note_on_c, 0, 41, 86
2, 7710, Note_on_c, 0, 41, 0
2, 7800, Note_on_c, 0, 41, 79
2, 7860, Note_on_c, 0, 41, 0
2, 7920, Note_on_c, 0, 39, 71
2, 7980, Note_on_c, 0, 39, 0
2, 7980, Note_on_c, 0, 41, 71
2, 8040, Note_on_c, 0, 41, 0
2, 8100, Note_on_c, 0, 44, 79
2, 8190, Note_on_c, 0, 44, 0
2, 8280, Note_on_c, 0, 44, 96
2, 8340, Note_on_c, 0, 44, 0
2, 8400, Note_on_c, 0, 41, 90
2, 8460, Note_on_c, 0, 41, 0
2, 8460, Note_on_c, 0, 44, 86
2, 8520, Note_on_c, 0, 44, 0
2, 8580, Note_on_c, 0, 44, 96
2, 8640, Note_on_c, 0, 44, 0
2, 8640, Note_on_c, 0, 46, 79
2, 8640, Note_on_c, 0, 39, 52
2, 8670, Note_on_c, 0, 46, 0
2, 8700, Note_on_c, 0, 39, 0
2, 8760, Note_on_c, 0, 39, 104
2, 8820, Note_on_c, 0, 39, 0
2, 8880, Note_on_c, 0, 37, 114
2, 8940, Note_on_c, 0, 37, 0
2, 8940, Note_on_c, 0, 39, 96
2, 9000, Note_on_c, 0, 39, 0
2, 9060, Note_on_c, 0, 34, 86
2, 9120, Note_on_c, 0, 34, 0
2, 9180, Note_on_c, 0, 34, 36
2, 9210, Note_on_c, 0, 34, 0
2, 9240, Note_on_c, 0, 39, 100
2, 9300, Note_on_c, 0, 39, 0
2, 9360, Note_on_c, 0, 37, 96
2, 9420, Note_on_c, 0, 37, 0
2, 9420, Note_on_c, 0, 39, 100
2, 9480, Note_on_c, 0, 39, 0
2, 9540, Note_on_c, 0, 41, 82
2, 9630, Note_on_c, 0, 41, 0
2, 9720, Note_on_c, 0, 41, 79
2, 9780, Note_on_c, 0, 41, 0
2, 9840, Note_on_c, 0, 39, 84
2, 9900, Note_on_c, 0, 39, 0
2, 9900, Note_on_c, 0, 41, 60
2, 9960, Note_on_c, 0, 41, 0
2, 10020, Note_on_c, 0, 44, 79
2, 10110, Note_on_c, 0, 44, 0
2, 10200, Note_on_c, 0, 44, 79
2, 10260, Note_on_c, 0, 44, 0
2, 10320, Note_on_c, 0, 41, 72
2, 10380, Note_on_c, 0, 41, 0
2, 10380, Note_on_c, 0, 44, 64
2, 10470, Note_on_c, 0, 44, 0
2, 10500, Note_on_c, 0, 41, 45
2, 10560, Note_on_c, 0, 41, 0
2, 10560, Note_on_c, 0, 46, 66
2, 10620, Note_on_c, 0, 46, 0
2, 10680, Note_on_c, 0, 39, 81
2, 10740, Note_on_c, 0, 39, 0
2, 10800, Note_on_c, 0, 37, 89
2, 10860, Note_on_c, 0, 39, 77
2, 10890, Note_on_c, 0, 37, 0
2, 10920, Note_on_c, 0, 39, 0
2, 10980, Note_on_c, 0, 34, 84
2, 11040, Note_on_c, 0, 34, 0
2, 11100, Note_on_c, 0, 34, 54
2, 11160, Note_on_c, 0, 34, 0
2, 11160, Note_on_c, 0, 39, 86
2, 11220, Note_on_c, 0, 39, 0
2, 11280, Note_on_c, 0, 37, 89
2, 11340, Note_on_c, 0, 37, 0
2, 11340, Note_on_c, 0, 39, 79
2, 11400, Note_on_c, 0, 39, 0
2, 11460, Note_on_c, 0, 41, 85
2, 11550, Note_on_c, 0, 41, 0
2, 11640, Note_on_c, 0, 41, 83
2, 11730, Note_on_c, 0, 41, 0
2, 11760, Note_on_c, 0, 39, 75
2, 11820, Note_on_c, 0, 39, 0
2, 11820, Note_on_c, 0, 41, 76
2, 11880, Note_on_c, 0, 41, 0
2, 11940, Note_on_c, 0, 44, 81
2, 12030, Note_on_c, 0, 44, 0
2, 12120, Note_on_c, 0, 44, 86
2, 12180, Note_on_c, 0, 44, 0
2, 12240, Note_on_c, 0, 41, 74
2, 12300, Note_on_c, 0, 41, 0
2, 12300, Note_on_c, 0, 44, 64
2, 12360, Note_on_c, 0, 44, 0
2, 12420, Note_on_c, 0, 44, 81
2, 12480, Note_on_c, 0, 44, 0
2, 12480, Note_on_c, 0, 40, 92
2, 12570, Note_on_c, 0, 40, 0
2, 12600, Note_on_c, 0, 40, 80
2, 12690, Note_on_c, 0, 40, 0
2, 12720, Note_on_c, 0, 38, 86
2, 12780, Note_on_c, 0, 38, 0
2, 12780, Note_on_c, 0, 40, 82
2, 12870, Note_on_c, 0, 40, 0
2, 12900, Note_on_c, 0, 35, 79
2, 12990, Note_on_c, 0, 35, 0
2, 13020, Note_on_c, 0, 40, 76
2, 13080, Note_on_c, 0, 40, 0
2, 13080, Note_on_c, 0, 38, 45
2, 13140, Note_on_c, 0, 38, 0
2, 13140, Note_on_c, 0, 35, 48
2, 13200, Note_on_c, 0, 35, 0
2, 13200, Note_on_c, 0, 28, 59
2, 13260, Note_on_c, 0, 28, 0
2, 13260, Note_on_c, 0, 31, 74
2, 13320, Note_on_c, 0, 31, 0
2, 13320, Note_on_c, 0, 33, 69
2, 13380, Note_on_c, 0, 33, 0
2, 13380, Note_on_c, 0, 35, 64
2, 13440, Note_on_c, 0, 35, 0
2, 13440, Note_on_c, 0, 33, 66
2, 13500, Note_on_c, 0, 33, 0
2, 13500, Note_on_c, 0, 36, 58
2, 13560, Note_on_c, 0, 36, 0
2, 13560, Note_on_c, 0, 38, 42
2, 13620, Note_on_c, 0, 38, 0
2, 13620, Note_on_c, 0, 41, 80
2, 13740, Note_on_c, 0, 41, 0
2, 13740, Note_on_c, 0, 40, 58
2, 13800, Note_on_c, 0, 40, 0
2, 13800, Note_on_c, 0, 38, 55
2, 13860, Note_on_c, 0, 38, 0
2, 13860, Note_on_c, 0, 31, 68
2, 13980, Note_on_c, 0, 31, 0
2, 13980, Note_on_c, 0, 33, 88
2, 14040, Note_on_c, 0, 33, 0
2, 14040, Note_on_c, 0, 35, 82
2, 14100, Note_on_c, 0, 35, 0
2, 14100, Note_on_c, 0, 36, 104
2, 14220, Note_on_c, 0, 36, 0
2, 14220, Note_on_c, 0, 38, 79
2, 14280, Note_on_c, 0, 38, 0
2, 14280, Note_on_c, 0, 36, 63
2, 14340, Note_on_c, 0, 36, 0
2, 14340, Note_on_c, 0, 29, 78
2, 14460, Note_on_c, 0, 29, 0
2, 14460, Note_on_c, 0, 36, 64
2, 14520, Note_on_c, 0, 36, 0
2, 14520, Note_on_c, 0, 38, 75
2, 14580, Note_on_c, 0, 38, 0
2, 14580, Note_on_c, 0, 41, 85
2, 14700, Note_on_c, 0, 41, 0
2, 14700, Note_on_c, 0, 38, 41
2, 14760, Note_on_c, 0, 38, 0
2, 14760, Note_on_c, 0, 36, 56
2, 14820, Note_on_c, 0, 36, 0
2, 14820, Note_on_c, 0, 29, 73
2, 14940, Note_on_c, 0, 29, 0
2, 14940, Note_on_c, 0, 36, 64
2, 15000, Note_on_c, 0, 36, 0
2, 15000, Note_on_c, 0, 38, 75
2, 15060, Note_on_c, 0, 38, 0
2, 15060, Note_on_c, 0, 41, 55
2, 15120, Note_on_c, 0, 41, 0
2, 15120, Note_on_c, 0, 31, 62
2, 15180, Note_on_c, 0, 31, 0
2, 15180, Note_on_c, 0, 36, 57
2, 15240, Note_on_c, 0, 36, 0
2, 15240, Note_on_c, 0, 43, 50
2, 15300, Note_on_c, 0, 36, 43
2, 15360, Note_on_c, 0, 36, 0
2, 15360, Note_on_c, 0, 43, 0
2, 15360, Note_on_c, 0, 33, 67
2, 15420, Note_on_c, 0, 33, 0
2, 15420, Note_on_c, 0, 38, 62
2, 15480, Note_on_c, 0, 38, 0
2, 15480, Note_on_c, 0, 40, 40
2, 15540, Note_on_c, 0, 40, 0
2, 15540, Note_on_c, 0, 45, 62
2, 15660, Note_on_c, 0, 45, 0
2, 15660, Note_on_c, 0, 43, 58
2, 15720, Note_on_c, 0, 43, 0
2, 15720, Note_on_c, 0, 40, 54
2, 15780, Note_on_c, 0, 40, 0
2, 15780, Note_on_c, 0, 31, 70
2, 15900, Note_on_c, 0, 31, 0
2, 15900, Note_on_c, 0, 33, 83
2, 15960, Note_on_c, 0, 33, 0
2, 15960, Note_on_c, 0, 35, 80
2, 16020, Note_on_c, 0, 35, 0
2, 16020, Note_on_c, 0, 36, 83
2, 16140, Note_on_c, 0, 36, 0
2, 16140, Note_on_c, 0, 38, 69
2, 16200, Note_on_c, 0, 38, 0
2, 16200, Note_on_c, 0, 36, 73
2, 16260, Note_on_c, 0, 36, 0
2, 16260, Note_on_c, 0, 29, 78
2, 16380, Note_on_c, 0, 29, 0
2, 16380, Note_on_c, 0, 33, 49
2, 16440, Note_on_c, 0, 33, 0
2, 16440, Note_on_c, 0, 36, 53
2, 16500, Note_on_c, 0, 36, 0
2, 16500, Note_on_c, 0, 41, 83
2, 16620, Note_on_c, 0, 41, 0
2, 16620, Note_on_c, 0, 36, 67
2, 16680, Note_on_c, 0, 36, 0
2, 16680, Note_on_c, 0, 29, 62
2, 16710, Note_on_c, 0, 29, 0
2, 16740, Note_on_c, 0, 29, 76
2, 16860, Note_on_c, 0, 29, 0
2, 16860, Note_on_c, 0, 33, 66
2, 16920, Note_on_c, 0, 33, 0
2, 16920, Note_on_c, 0, 36, 74
2, 16980, Note_on_c, 0, 36, 0
2, 16980, Note_on_c, 0, 41, 65
2, 17040, Note_on_c, 0, 41, 0
2, 17040, Note_on_c, 0, 31, 52
2, 17100, Note_on_c, 0, 31, 0
2, 17100, Note_on_c, 0, 35, 62
2, 17160, Note_on_c, 0, 35, 0
2, 17160, Note_on_c, 0, 38, 60
2, 17220, Note_on_c, 0, 38, 0
2, 17220, Note_on_c, 0, 43, 60
2, 17280, Note_on_c, 0, 43, 0
2, 17280, Note_on_c, 0, 33, 53
2, 17340, Note_on_c, 0, 33, 0
2, 17340, Note_on_c, 0, 35, 66
2, 17400, Note_on_c, 0, 35, 0
2, 17400, Note_on_c, 0, 38, 32
2, 17460, Note_on_c, 0, 38, 0
2, 17460, Note_on_c, 0, 36, 65
2, 17520, Note_on_c, 0, 36, 0
2, 17520, Note_on_c, 0, 38, 72
2, 17580, Note_on_c, 0, 38, 0
2, 17640, Note_on_c, 0, 38, 72
2, 17700, Note_on_c, 0, 38, 0
2, 17700, Note_on_c, 0, 31, 85
2, 17820, Note_on_c, 0, 31, 0
2, 17820, Note_on_c, 0, 33, 82
2, 17880, Note_on_c, 0, 33, 0
2, 17880, Note_on_c, 0, 36, 90
2, 17940, Note_on_c, 0, 36, 0
2, 17940, Note_on_c, 0, 33, 83
2, 18000, Note_on_c, 0, 33, 0
2, 18000, Note_on_c, 0, 36, 86
2, 18060, Note_on_c, 0, 36, 0
2, 18120, Note_on_c, 0, 36, 90
2, 18180, Note_on_c, 0, 36, 0
2, 18180, Note_on_c, 0, 33, 99
2, 18300, Note_on_c, 0, 33, 0
2, 18300, Note_on_c, 0, 36, 99
2, 18360, Note_on_c, 0, 36, 0
2, 18360, Note_on_c, 0, 38, 75
2, 18420, Note_on_c, 0, 38, 0
2, 18420, Note_on_c, 0, 36, 72
2, 18480, Note_on_c, 0, 36, 0
2, 18480, Note_on_c, 0, 38, 78
2, 18570, Note_on_c, 0, 38, 0
2, 18600, Note_on_c, 0, 38, 73
2, 18660, Note_on_c, 0, 38, 0
2, 18660, Note_on_c, 0, 31, 71
2, 18780, Note_on_c, 0, 31, 0
2, 18780, Note_on_c, 0, 33, 76
2, 18840, Note_on_c, 0, 33, 0
2, 18840, Note_on_c, 0, 36, 101
2, 18900, Note_on_c, 0, 36, 0
2, 18900, Note_on_c, 0, 33, 94
2, 18960, Note_on_c, 0, 33, 0
2, 18960, Note_on_c, 0, 36, 97
2, 19020, Note_on_c, 0, 36, 0
2, 19080, Note_on_c, 0, 36, 82
2, 19140, Note_on_c, 0, 36, 0
2, 19140, Note_on_c, 0, 33, 69
2, 19260, Note_on_c, 0, 33, 0
2, 19260, Note_on_c, 0, 36, 79
2, 19320, Note_on_c, 0, 36, 0
2, 19320, Note_on_c, 0, 38, 83
2, 19380, Note_on_c, 0, 38, 0
2, 19380, Note_on_c, 0, 36, 79
2, 19440, Note_on_c, 0, 36, 0
2, 19440, Note_on_c, 0, 38, 92
2, 19500, Note_on_c, 0, 38, 0
2, 19560, Note_on_c, 0, 38, 71
2, 19620, Note_on_c, 0, 38, 0
2, 19620, Note_on_c, 0, 31, 94
2, 19740, Note_on_c, 0, 31, 0
2, 19740, Note_on_c, 0, 33, 86
2, 19800, Note_on_c, 0, 33, 0
2, 19800, Note_on_c, 0, 36, 80
2, 19860, Note_on_c, 0, 36, 0
2, 19860, Note_on_c, 0, 33, 78
2, 19920, Note_on_c, 0, 33, 0
2, 19920, Note_on_c, 0, 36, 85
2, 19980, Note_on_c, 0, 36, 0
2, 20040, Note_on_c, 0, 36, 80
2, 20100, Note_on_c, 0, 36, 0
2, 20100, Note_on_c, 0, 33, 67
2, 20220, Note_on_c, 0, 33, 0
2, 20220, Note_on_c, 0, 36, 82
2, 20280, Note_on_c, 0, 36, 0
2, 20280, Note_on_c, 0, 38, 97
2, 20340, Note_on_c, 0, 38, 0
2, 20340, Note_on_c, 0, 36, 78
2, 20400, Note_on_c, 0, 36, 0
2, 20400, Note_on_c, 0, 38, 97
2, 20460, Note_on_c, 0, 38, 0
2, 20520, Note_on_c, 0, 38, 69
2, 20580, Note_on_c, 0, 38, 0
2, 20580, Note_on_c, 0, 31, 101
2, 20700, Note_on_c, 0, 31, 0
2, 20700, Note_on_c, 0, 33, 97
2, 20760, Note_on_c, 0, 33, 0
2, 20760, Note_on_c, 0, 36, 86
2, 20820, Note_on_c, 0, 36, 0
2, 20820, Note_on_c, 0, 33, 88
2, 20880, Note_on_c, 0, 33, 0
2, 20880, Note_on_c, 0, 36, 85
2, 20970, Note_on_c, 0, 36, 0
2, 21000, Note_on_c, 0, 36, 66
2, 21060, Note_on_c, 0, 36, 0
2, 21060, Note_on_c, 0, 32, 64
2, 21120, Note_on_c, 0, 32, 0
2, 21131, Note_on_c, 0, 29, 107
2, 21217, Note_on_c, 0, 29, 0
2, 21241, Note_on_c, 0, 29, 101
2, 21343, Note_on_c, 0, 29, 0
2, 21355, Note_on_c, 0, 29, 71
2, 21393, Note_on_c, 0, 29, 0
2, 21419, Note_on_c, 0, 29, 72
2, 21514, Note_on_c, 0, 29, 0
2, 21535, Note_on_c, 0, 29, 75
2, 21651, Note_on_c, 0, 29, 0
2, 21666, Note_on_c, 0, 29, 75
2, 21712, Note_on_c, 0, 29, 0
2, 21725, Note_on_c, 0, 29, 75
2, 21809, Note_on_c, 0, 29, 0
2, 21836, Note_on_c, 0, 29, 73
2, 21885, Note_on_c, 0, 29, 0
2, 21900, Note_on_c, 0, 29, 86
2, 21998, Note_on_c, 0, 29, 0
2, 22014, Note_on_c, 0, 29, 75
2, 22073, Note_on_c, 0, 29, 0
2, 22080, Note_on_c, 0, 39, 52
2, 22140, Note_on_c, 0, 39, 0
2, 22200, Note_on_c, 0, 39, 104
2, 22260, Note_on_c, 0, 39, 0
2, 22320, Note_on_c, 0, 37, 114
2, 22380, Note_on_c, 0, 37, 0
2, 22380, Note_on_c, 0, 39, 96
2, 22440, Note_on_c, 0, 39, 0
2, 22500, Note_on_c, 0, 34, 86
2, 22560, Note_on_c, 0, 34, 0
2, 22620, Note_on_c, 0, 34, 36
2, 22650, Note_on_c, 0, 34, 0
2, 22680, Note_on_c, 0, 39, 100
2, 22740, Note_on_c, 0, 39, 0
2, 22800, Note_on_c, 0, 37, 96
2, 22860, Note_on_c, 0, 37, 0
2, 22860, Note_on_c, 0, 39, 100
2, 22920, Note_on_c, 0, 39, 0
2, 22980, Note_on_c, 0, 41, 82
2, 23070, Note_on_c, 0, 41, 0
2, 23160, Note_on_c, 0, 41, 79
2, 23220, Note_on_c, 0, 41, 0
2, 23280, Note_on_c, 0, 39, 84
2, 23340, Note_on_c, 0, 39, 0
2, 23340, Note_on_c, 0, 41, 60
2, 23400, Note_on_c, 0, 41, 0
2, 23460, Note_on_c, 0, 44, 79
2, 23550, Note_on_c, 0, 44, 0
2, 23640, Note_on_c, 0, 44, 79
2, 23700, Note_on_c, 0, 44, 0
2, 23760, Note_on_c, 0, 41, 72
2, 23820, Note_on_c, 0, 41, 0
2, 23820, Note_on_c, 0, 44, 64
2, 23910, Note_on_c, 0, 44, 0
2, 23940, Note_on_c, 0, 41, 45
2, 24000, Note_on_c, 0, 41, 0
2, 24000, Note_on_c, 0, 46, 66
2, 24060, Note_on_c, 0, 46, 0
2, 24120, Note_on_c, 0, 39, 81
2, 24180, Note_on_c, 0, 39, 0
2, 24240, Note_on_c, 0, 37, 89
2, 24300, Note_on_c, 0, 39, 77
2, 24330, Note_on_c, 0, 37, 0
2, 24360, Note_on_c, 0, 39, 0
2, 24420, Note_on_c, 0, 34, 84
2, 24480, Note_on_c, 0, 34, 0
2, 24540, Note_on_c, 0, 34, 54
2, 24600, Note_on_c, 0, 34, 0
2, 24600, Note_on_c, 0, 39, 86
2, 24660, Note_on_c, 0, 39, 0
2, 24720, Note_on_c, 0, 37, 89
2, 24780, Note_on_c, 0, 37, 0
2, 24780, Note_on_c, 0, 39, 79
2, 24840, Note_on_c, 0, 39, 0
2, 24900, Note_on_c, 0, 41, 85
2, 24990, Note_on_c, 0, 41, 0
2, 25080, Note_on_c, 0, 41, 83
2, 25170, Note_on_c, 0, 41, 0
2, 25200, Note_on_c, 0, 39, 75
2, 25260, Note_on_c, 0, 39, 0
2, 25260, Note_on_c, 0, 41, 76
2, 25320, Note_on_c, 0, 41, 0
2, 25380, Note_on_c, 0, 44, 81
2, 25470, Note_on_c, 0, 44, 0
2, 25560, Note_on_c, 0, 44, 86
2, 25620, Note_on_c, 0, 44, 0
2, 25680, Note_on_c, 0, 41, 74
2, 25740, Note_on_c, 0, 41, 0
2, 25740, Note_on_c, 0, 44, 64
2, 25800, Note_on_c, 0, 44, 0
2, 25860, Note_on_c, 0, 44, 81
2, 25920, Note_on_c, 0, 44, 0
2, 25920, Note_on_c, 0, 46, 69
2, 25980, Note_on_c, 0, 46, 0
2, 26040, Note_on_c, 0, 39, 81
2, 26100, Note_on_c, 0, 39, 0
2, 26160, Note_on_c, 0, 37, 92
2, 26220, Note_on_c, 0, 37, 0
2, 26220, Note_on_c, 0, 39, 92
2, 26280, Note_on_c, 0, 39, 0
2, 26340, Note_on_c, 0, 34, 89
2, 26430, Note_on_c, 0, 34, 0
2, 26460, Note_on_c, 0, 34, 54
2, 26520, Note_on_c, 0, 34, 0
2, 26520, Note_on_c, 0, 39, 96
2, 26580, Note_on_c, 0, 39, 0
2, 26640, Note_on_c, 0, 37, 86
2, 26700, Note_on_c, 0, 37, 0
2, 26700, Note_on_c, 0, 39, 96
2, 26760, Note_on_c, 0, 39, 0
2, 26820, Note_on_c, 0, 41, 76
2, 26910, Note_on_c, 0, 41, 0
2, 27000, Note_on_c, 0, 41, 72
2, 27060, Note_on_c, 0, 41, 0
2, 27120, Note_on_c, 0, 39, 86
2, 27180, Note_on_c, 0, 39, 0
2, 27180, Note_on_c, 0, 41, 79
2, 27240, Note_on_c, 0, 41, 0
2, 27300, Note_on_c, 0, 44, 84
2, 27390, Note_on_c, 0, 44, 0
2, 27480, Note_on_c, 0, 44, 86
2, 27570, Note_on_c, 0, 44, 0
2, 27600, Note_on_c, 0, 41, 85
2, 27660, Note_on_c, 0, 41, 0
2, 27660, Note_on_c, 0, 44, 89
2, 27750, Note_on_c, 0, 44, 0
2, 27780, Note_on_c, 0, 41, 76
2, 27840, Note_on_c, 0, 41, 0
2, 27840, Note_on_c, 0, 46, 92
2, 27900, Note_on_c, 0, 46, 0
2, 27960, Note_on_c, 0, 39, 84
2, 28020, Note_on_c, 0, 39, 0
2, 28080, Note_on_c, 0, 37, 92
2, 28140, Note_on_c, 0, 37, 0
2, 28140, Note_on_c, 0, 39, 77
2, 28200, Note_on_c, 0, 39, 0
2, 28260, Note_on_c, 0, 34, 81
2, 28320, Note_on_c, 0, 34, 0
2, 28380, Note_on_c, 0, 34, 73
2, 28440, Note_on_c, 0, 34, 0
2, 28440, Note_on_c, 0, 39, 81
2, 28500, Note_on_c, 0, 39, 0
2, 28560, Note_on_c, 0, 37, 96
2, 28620, Note_on_c, 0, 37, 0
2, 28620, Note_on_c, 0, 39, 89
2, 28680, Note_on_c, 0, 39, 0
2, 28740, Note_on_c, 0, 41, 86
2, 28830, Note_on_c, 0, 41, 0
2, 28920, Note_on_c, 0, 41, 79
2, 28980, Note_on_c, 0, 41, 0
2, 29040, Note_on_c, 0, 39, 71
2, 29100, Note_on_c, 0, 39, 0
2, 29100, Note_on_c, 0, 41, 71
2, 29160, Note_on_c, 0, 41, 0
2, 29220, Note_on_c, 0, 44, 79
2, 29310, Note_on_c, 0, 44, 0
2, 29400, Note_on_c, 0, 44, 96
2, 29460, Note_on_c, 0, 44, 0
2, 29520, Note_on_c, 0, 41, 90
2, 29580, Note_on_c, 0, 41, 0
2, 29580, Note_on_c, 0, 44, 86
2, 29640, Note_on_c, 0, 44, 0
2, 29700, Note_on_c, 0, 44, 96
2, 29760, Note_on_c, 0, 44, 0
2, 29760, Note_on_c, 0, 46, 79
2, 29790, Note_on_c, 0, 46, 0
2, 29880, Note_on_c, 0, 39, 104
2, 29940, Note_on_c, 0, 39, 0
2, 30000, Note_on_c, 0, 37, 114
2, 30060, Note_on_c, 0, 37, 0
2, 30060, Note_on_c, 0, 39, 96
2, 30120, Note_on_c, 0, 39, 0
2, 30180, Note_on_c, 0, 34, 86
2, 30240, Note_on_c, 0, 34, 0
2, 30300, Note_on_c, 0, 34, 36
2, 30330, Note_on_c, 0, 34, 0
2, 30360, Note_on_c, 0, 39, 100
2, 30420, Note_on_c, 0, 39, 0
2, 30480, Note_on_c, 0, 37, 96
2, 30540, Note_on_c, 0, 37, 0
2, 30540, Note_on_c, 0, 39, 100
2, 30600, Note_on_c, 0, 39, 0
2, 30660, Note_on_c, 0, 41, 82
2, 30750, Note_on_c, 0, 41, 0
2, 30840, Note_on_c, 0, 41, 79
2, 30900, Note_on_c, 0, 41, 0
2, 30960, Note_on_c, 0, 39, 84
2, 31020, Note_on_c, 0, 39, 0
2, 31020, Note_on_c, 0, 41, 60
2, 31080, Note_on_c, 0, 41, 0
2, 31140, Note_on_c, 0, 44, 79
2, 31230, Note_on_c, 0, 44, 0
2, 31320, Note_on_c, 0, 44, 79
2, 31380, Note_on_c, 0, 44, 0
2, 31440, Note_on_c, 0, 41, 72
2, 31500, Note_on_c, 0, 41, 0
2, 31500, Note_on_c, 0, 44, 64
2, 31565, Control_c, 0, 91, 2
2, 31571, Control_c, 0, 91, 5
2, 31575, Control_c, 0, 91, 8
2, 31590, Note_on_c, 0, 44, 0
2, 31596, Control_c, 0, 91, 12
2, 31620, Note_on_c, 0, 41, 45
2, 31624, Control_c, 0, 91, 16
2, 31630, Control_c, 0, 91, 21
2, 31665, Control_c, 0, 91, 25
2, 31671, Control_c, 0, 91, 29
2, 31680, Note_on_c, 0, 41, 0
2, 31680, Note_on_c, 0, 46, 66
2, 31740, Note_on_c, 0, 46, 0
2, 31800, Note_on_c, 0, 39, 81
2, 31860, Note_on_c, 0, 39, 0
2, 31920, Note_on_c, 0, 37, 89
2, 31954, Control_c, 0, 91, 28
2, 31980, Control_c, 0, 91, 24
2, 31980, Note_on_c, 0, 39, 77
2, 31985, Control_c, 0, 91, 25
2, 31991, Control_c, 0, 91, 16
2, 31996, Control_c, 0, 91, 12
2, 32001, Control_c, 0, 91, 8
2, 32010, Note_on_c, 0, 37, 0
2, 32020, Control_c, 0, 91, 5
2, 32024, Control_c, 0, 91, 2
2, 32040, Note_on_c, 0, 39, 0
2, 32050, Control_c, 0, 91, 0
2, 32100, Note_on_c, 0, 34, 84
2, 32160, Note_on_c, 0, 34, 0
2, 32220, Note_on_c, 0, 34, 54
2, 32280, Note_on_c, 0, 34, 0
2, 32280, Note_on_c, 0, 39, 86
2, 32340, Note_on_c, 0, 39, 0
2, 32400, Note_on_c, 0, 37, 89
2, 32460, Note_on_c, 0, 37, 0
2, 32460, Note_on_c, 0, 39, 79
2, 32520, Note_on_c, 0, 39, 0
2, 32580, Note_on_c, 0, 41, 85
2, 32670, Note_on_c, 0, 41, 0
2, 32760, Note_on_c, 0, 41, 83
2, 32850, Note_on_c, 0, 41, 0
2, 32880, Note_on_c, 0, 39, 75
2, 32940, Note_on_c, 0, 39, 0
2, 32940, Note_on_c, 0, 41, 76
2, 33000, Note_on_c, 0, 41, 0
2, 33060, Note_on_c, 0, 44, 81
2, 33150, Note_on_c, 0, 44, 0
2, 33240, Note_on_c, 0, 44, 86
2, 33300, Note_on_c, 0, 44, 0
2, 33360, Note_on_c, 0, 41, 74
2, 33420, Note_on_c, 0, 41, 0
2, 33420, Note_on_c, 0, 44, 64
2, 33480, Note_on_c, 0, 44, 0
2, 33540, Note_on_c, 0, 44, 81
2, 33600, Note_on_c, 0, 44, 0
2, 33600, Note_on_c, 0, 40, 92
2, 33690, Note_on_c, 0, 40, 0
2, 33720, Note_on_c, 0, 40, 80
2, 33810, Note_on_c, 0, 40, 0
2, 33840, Note_on_c, 0, 38, 86
2, 33900, Note_on_c, 0, 38, 0
2, 33900, Note_on_c, 0, 40, 82
2, 33990, Note_on_c, 0, 40, 0
2, 34020, Note_on_c, 0, 35, 100
2, 34080, Note_on_c, 0, 35, 0
2, 34080, Note_on_c, 0, 35, 100
2, 34140, Note_on_c, 0, 35, 0
2, 34140, Note_on_c, 0, 40, 76
2, 34200, Note_on_c, 0, 40, 0
2, 34200, Note_on_c, 0, 38, 45
2, 34260, Note_on_c, 0, 38, 0
2, 34260, Note_on_c, 0, 35, 48
2, 34320, Note_on_c, 0, 35, 0
2, 34320, Note_on_c, 0, 28, 59
2, 34380, Note_on_c, 0, 28, 0
2, 34380, Note_on_c, 0, 31, 74
2, 34440, Note_on_c, 0, 31, 0
2, 34440, Note_on_c, 0, 33, 69
2, 34500, Note_on_c, 0, 33, 0
2, 34500, Note_on_c, 0, 35, 64
2, 34560, Note_on_c, 0, 35, 0
2, 34560, Note_on_c, 0, 33, 66
2, 34620, Note_on_c, 0, 33, 0
2, 34620, Note_on_c, 0, 36, 58
2, 34680, Note_on_c, 0, 36, 0
2, 34680, Note_on_c, 0, 38, 42
2, 34740, Note_on_c, 0, 38, 0
2, 34740, Note_on_c, 0, 41, 80
2, 34860, Note_on_c, 0, 41, 0
2, 34860, Note_on_c, 0, 40, 58
2, 34920, Note_on_c, 0, 40, 0
2, 34920, Note_on_c, 0, 38, 55
2, 34980, Note_on_c, 0, 38, 0
2, 34980, Note_on_c, 0, 31, 68
2, 35100, Note_on_c, 0, 31, 0
2, 35100, Note_on_c, 0, 33, 88
2, 35160, Note_on_c, 0, 33, 0
2, 35160, Note_on_c, 0, 35, 82
2, 35220, Note_on_c, 0, 35, 0
2, 35220, Note_on_c, 0, 36, 104
2, 35340, Note_on_c, 0, 36, 0
2, 35340, Note_on_c, 0, 38, 79
2, 35400, Note_on_c, 0, 38, 0
2, 35400, Note_on_c, 0, 36, 63
2, 35460, Note_on_c, 0, 36, 0
2, 35460, Note_on_c, 0, 29, 78
2, 35580, Note_on_c, 0, 29, 0
2, 35580, Note_on_c, 0, 36, 64
2, 35640, Note_on_c, 0, 36, 0
2, 35640, Note_on_c, 0, 38, 75
2, 35700, Note_on_c, 0, 38, 0
2, 35700, Note_on_c, 0, 41, 85
2, 35820, Note_on_c, 0, 41, 0
2, 35820, Note_on_c, 0, 38, 41
2, 35880, Note_on_c, 0, 38, 0
2, 35880, Note_on_c, 0, 36, 56
2, 35940, Note_on_c, 0, 36, 0
2, 35940, Note_on_c, 0, 29, 73
2, 36060, Note_on_c, 0, 29, 0
2, 36060, Note_on_c, 0, 36, 64
2, 36120, Note_on_c, 0, 36, 0
2, 36120, Note_on_c, 0, 38, 75
2, 36180, Note_on_c, 0, 38, 0
2, 36180, Note_on_c, 0, 41, 55
2, 36240, Note_on_c, 0, 41, 0
2, 36240, Note_on_c, 0, 31, 62
2, 36300, Note_on_c, 0, 31, 0
2, 36300, Note_on_c, 0, 36, 57
2, 36360, Note_on_c, 0, 36, 0
2, 36360, Note_on_c, 0, 43, 50
2, 36420, Note_on_c, 0, 36, 43
2, 36480, Note_on_c, 0, 36, 0
2, 36480, Note_on_c, 0, 43, 0
2, 36480, Note_on_c, 0, 33, 67
2, 36540, Note_on_c, 0, 33, 0
2, 36540, Note_on_c, 0, 38, 62
2, 36600, Note_on_c, 0, 38, 0
2, 36600, Note_on_c, 0, 40, 40
2, 36660, Note_on_c, 0, 40, 0
2, 36660, Note_on_c, 0, 45, 62
2, 36780, Note_on_c, 0, 45, 0
2, 36780, Note_on_c, 0, 43, 58
2, 36840, Note_on_c, 0, 43, 0
2, 36840, Note_on_c, 0, 40, 54
2, 36900, Note_on_c, 0, 40, 0
2, 36900, Note_on_c, 0, 31, 70
2, 37020, Note_on_c, 0, 31, 0
2, 37020, Note_on_c, 0, 33, 83
2, 37080, Note_on_c, 0, 33, 0
2, 37080, Note_on_c, 0, 35, 80
2, 37140, Note_on_c, 0, 35, 0
2, 37140, Note_on_c, 0, 36, 83
2, 37260, Note_on_c, 0, 36, 0
2, 37260, Note_on_c, 0, 38, 69
2, 37320, Note_on_c, 0, 38, 0
2, 37320, Note_on_c, 0, 36, 73
2, 37380, Note_on_c, 0, 36, 0
2, 37380, Note_on_c, 0, 29, 78
2, 37500, Note_on_c, 0, 29, 0
2, 37500, Note_on_c, 0, 33, 49
2, 37560, Note_on_c, 0, 33, 0
2, 37560, Note_on_c, 0, 36, 53
2, 37620, Note_on_c, 0, 36, 0
2, 37620, Note_on_c, 0, 41, 83
2, 37740, Note_on_c, 0, 41, 0
2, 37740, Note_on_c, 0, 36, 67
2, 37800, Note_on_c, 0, 36, 0
2, 37800, Note_on_c, 0, 29, 62
2, 37830, Note_on_c, 0, 29, 0
2, 37860, Note_on_c, 0, 29, 76
2, 37980, Note_on_c, 0, 29, 0
2, 37980, Note_on_c, 0, 33, 66
2, 38040, Note_on_c, 0, 33, 0
2, 38040, Note_on_c, 0, 36, 74
2, 38100, Note_on_c, 0, 36, 0
2, 38100, Note_on_c, 0, 41, 65
2, 38160, Note_on_c, 0, 41, 0
2, 38160, Note_on_c, 0, 31, 52
2, 38220, Note_on_c, 0, 31, 0
2, 38220, Note_on_c, 0, 35, 62
2, 38280, Note_on_c, 0, 35, 0
2, 38280, Note_on_c, 0, 38, 60
2, 38340, Note_on_c, 0, 38, 0
2, 38340, Note_on_c, 0, 43, 60
2, 38400, Note_on_c, 0, 43, 0
2, 38400, Note_on_c, 0, 33, 53
2, 38460, Note_on_c, 0, 33, 0
2, 38460, Note_on_c, 0, 35, 66
2, 38520, Note_on_c, 0, 35, 0
2, 38520, Note_on_c, 0, 38, 32
2, 38580, Note_on_c, 0, 38, 0
2, 38580, Note_on_c, 0, 36, 65
2, 38640, Note_on_c, 0, 36, 0
2, 38640, Note_on_c, 0, 38, 72
2, 38700, Note_on_c, 0, 38, 0
2, 38760, Note_on_c, 0, 38, 72
2, 38820, Note_on_c, 0, 38, 0
2, 38820, Note_on_c, 0, 31, 85
2, 38940, Note_on_c, 0, 31, 0
2, 38940, Note_on_c, 0, 33, 82
2, 39000, Note_on_c, 0, 33, 0
2, 39000, Note_on_c, 0, 36, 90
2, 39060, Note_on_c, 0, 36, 0
2, 39060, Note_on_c, 0, 33, 83
2, 39120, Note_on_c, 0, 33, 0
2, 39120, Note_on_c, 0, 36, 86
2, 39180, Note_on_c, 0, 36, 0
2, 39240, Note_on_c, 0, 36, 90
2, 39300, Note_on_c, 0, 36, 0
2, 39300, Note_on_c, 0, 33, 99
2, 39420, Note_on_c, 0, 33, 0
2, 39420, Note_on_c, 0, 36, 99
2, 39480, Note_on_c, 0, 36, 0
2, 39480, Note_on_c, 0, 38, 75
2, 39540, Note_on_c, 0, 38, 0
2, 39540, Note_on_c, 0, 36, 72
2, 39600, Note_on_c, 0, 36, 0
2, 39600, Note_on_c, 0, 38, 78
2, 39690, Note_on_c, 0, 38, 0
2, 39720, Note_on_c, 0, 38, 73
2, 39780, Note_on_c, 0, 38, 0
2, 39780, Note_on_c, 0, 31, 71
2, 39900, Note_on_c, 0, 31, 0
2, 39900, Note_on_c, 0, 33, 76
2, 39960, Note_on_c, 0, 33, 0
2, 39960, Note_on_c, 0, 36, 101
2, 40020, Note_on_c, 0, 36, 0
2, 40020, Note_on_c, 0, 33, 94
2, 40080, Note_on_c, 0, 33, 0
2, 40080, Note_on_c, 0, 36, 97
2, 40140, Note_on_c, 0, 36, 0
2, 40200, Note_on_c, 0, 36, 82
2, 40260, Note_on_c, 0, 36, 0
2, 40260, Note_on_c, 0, 33, 69
2, 40380, Note_on_c, 0, 33, 0
2, 40380, Note_on_c, 0, 36, 79
2, 40440, Note_on_c, 0, 36, 0
2, 40440, Note_on_c, 0, 38, 83
2, 40500, Note_on_c, 0, 38, 0
2, 40500, Note_on_c, 0, 36, 79
2, 40560, Note_on_c, 0, 36, 0
2, 40560, Note_on_c, 0, 38, 92
2, 40620, Note_on_c, 0, 38, 0
2, 40680, Note_on_c, 0, 38, 71
2, 40740, Note_on_c, 0, 38, 0
2, 40740, Note_on_c, 0, 31, 94
2, 40860, Note_on_c, 0, 31, 0
2, 40860, Note_on_c, 0, 33, 86
2, 40920, Note_on_c, 0, 33, 0
2, 40920, Note_on_c, 0, 36, 80
2, 40980, Note_on_c, 0, 36, 0
2, 40980, Note_on_c, 0, 33, 78
2, 41040, Note_on_c, 0, 33, 0
2, 41040, Note_on_c, 0, 36, 85
2, 41100, Note_on_c, 0, 36, 0
2, 41160, Note_on_c, 0, 36, 80
2, 41220, Note_on_c, 0, 36, 0
2, 41220, Note_on_c, 0, 33, 67
2, 41340, Note_on_c, 0, 33, 0
2, 41340, Note_on_c, 0, 36, 82
2, 41400, Note_on_c, 0, 36, 0
2, 41400, Note_on_c, 0, 38, 97
2, 41460, Note_on_c, 0, 38, 0
2, 41460, Note_on_c, 0, 36, 78
2, 41520, Note_on_c, 0, 36, 0
2, 41520, Note_on_c, 0, 38, 97
2, 41580, Note_on_c, 0, 38, 0
2, 41640, Note_on_c, 0, 38, 69
2, 41700, Note_on_c, 0, 38, 0
2, 41700, Note_on_c, 0, 31, 101
2, 41820, Note_on_c, 0, 31, 0
2, 41820, Note_on_c, 0, 33, 97
2, 41880, Note_on_c, 0, 33, 0
2, 41880, Note_on_c, 0, 36, 86
2, 41940, Note_on_c, 0, 36, 0
2, 41940, Note_on_c, 0, 33, 88
2, 42000, Note_on_c, 0, 33, 0
2, 42000, Note_on_c, 0, 36, 85
2, 42090, Note_on_c, 0, 36, 0
2, 42120, Note_on_c, 0, 36, 66
2, 42180, Note_on_c, 0, 36, 0
2, 42180, Note_on_c, 0, 32, 64
2, 42240, Note_on_c, 0, 32, 0
2, 42247, Note_on_c, 0, 34, 109
2, 42314, Note_on_c, 0, 34, 0
2, 42360, Note_on_c, 0, 34, 109
2, 42425, Note_on_c, 0, 34, 0
2, 42481, Note_on_c, 0, 32, 104
2, 42540, Note_on_c, 0, 34, 100
2, 42548, Note_on_c, 0, 32, 0
2, 42624, Note_on_c, 0, 34, 0
2, 42658, Note_on_c, 0, 29, 73
2, 42722, Note_on_c, 0, 29, 0
2, 42723, Note_on_c, 0, 34, 100
2, 42785, Note_on_c, 0, 34, 0
2, 42847, Note_on_c, 0, 34, 100
2, 42913, Note_on_c, 0, 34, 0
2, 42959, Note_on_c, 0, 32, 96
2, 43023, Note_on_c, 0, 34, 100
2, 43029, Note_on_c, 0, 32, 0
2, 43110, Note_on_c, 0, 34, 0
2, 43138, Note_on_c, 0, 32, 96
2, 43196, Note_on_c, 0, 32, 0
2, 43200, Note_on_c, 0, 41, 66
2, 43266, Note_on_c, 0, 41, 0
2, 43319, Note_on_c, 0, 29, 71
2, 43395, Note_on_c, 0, 29, 0
2, 43433, Note_on_c, 0, 32, 81
2, 43500, Note_on_c, 0, 34, 89
2, 43509, Note_on_c, 0, 32, 0
2, 43621, Note_on_c, 0, 29, 70
2, 43626, Note_on_c, 0, 34, 0
2, 43660, Note_on_c, 0, 29, 0
2, 43680, Note_on_c, 0, 29, 76
2, 43756, Note_on_c, 0, 29, 0
2, 43802, Note_on_c, 0, 29, 78
2, 43868, Note_on_c, 0, 29, 0
2, 43918, Note_on_c, 0, 32, 81
2, 43982, Note_on_c, 0, 34, 89
2, 43989, Note_on_c, 0, 32, 0
2, 44103, Note_on_c, 0, 32, 73
2, 44108, Note_on_c, 0, 34, 0
2, 44163, Note_on_c, 0, 34, 100
2, 44168, Note_on_c, 0, 32, 0
2, 44220, Note_on_c, 0, 34, 0
2, 44279, Note_on_c, 0, 34, 84
2, 44339, Note_on_c, 0, 34, 0
2, 44395, Note_on_c, 0, 32, 84
2, 44460, Note_on_c, 0, 34, 96
2, 44468, Note_on_c, 0, 32, 0
2, 44540, Note_on_c, 0, 34, 0
2, 44577, Note_on_c, 0, 32, 64
2, 44637, Note_on_c, 0, 34, 89
2, 44648, Note_on_c, 0, 32, 0
2, 44707, Note_on_c, 0, 34, 0
2, 44760, Note_on_c, 0, 34, 86
2, 44825, Note_on_c, 0, 34, 0
2, 44878, Note_on_c, 0, 32, 66
2, 44943, Note_on_c, 0, 34, 92
2, 44950, Note_on_c, 0, 32, 0
2, 45048, Note_on_c, 0, 34, 0
2, 45054, Note_on_c, 0, 32, 73
2, 45119, Note_on_c, 0, 32, 0
2, 45122, Note_on_c, 0, 41, 74
2, 45191, Note_on_c, 0, 41, 0
2, 45241, Note_on_c, 0, 29, 72
2, 45310, Note_on_c, 0, 29, 0
2, 45358, Note_on_c, 0, 32, 84
2, 45423, Note_on_c, 0, 34, 56
2, 45431, Note_on_c, 0, 32, 0
2, 45537, Note_on_c, 0, 29, 59
2, 45540, Note_on_c, 0, 34, 0
2, 45585, Note_on_c, 0, 29, 0
2, 45601, Note_on_c, 0, 29, 79
2, 45666, Note_on_c, 0, 29, 0
2, 45720, Note_on_c, 0, 29, 76
2, 45795, Note_on_c, 0, 29, 0
2, 45838, Note_on_c, 0, 32, 73
2, 45899, Note_on_c, 0, 34, 92
2, 45905, Note_on_c, 0, 32, 0
2, 46024, Note_on_c, 0, 32, 75
2, 46025, Note_on_c, 0, 34, 0
2, 46083, Note_on_c, 0, 34, 100
2, 46089, Note_on_c, 0, 32, 0
2, 46145, Note_on_c, 0, 34, 0
2, 46200, Note_on_c, 0, 34, 84
2, 46259, Note_on_c, 0, 34, 0
2, 46319, Note_on_c, 0, 32, 100
2, 46383, Note_on_c, 0, 34, 92
2, 46384, Note_on_c, 0, 32, 0
2, 46453, Note_on_c, 0, 34, 0
2, 46498, Note_on_c, 0, 32, 86
2, 46559, Note_on_c, 0, 34, 96
2, 46565, Note_on_c, 0, 32, 0
2, 46629, Note_on_c, 0, 34, 0
2, 46675, Note_on_c, 0, 34, 89
2, 46750, Note_on_c, 0, 34, 0
2, 46800, Note_on_c, 0, 32, 79
2, 46864, Note_on_c, 0, 34, 96
2, 46870, Note_on_c, 0, 32, 0
2, 46979, Note_on_c, 0, 32, 62
2, 46992, Note_on_c, 0, 34, 0
2, 47045, Note_on_c, 0, 41, 73
2, 47046, Note_on_c, 0, 32, 0
2, 47119, Note_on_c, 0, 41, 0
2, 47162, Note_on_c, 0, 29, 79
2, 47255, Note_on_c, 0, 29, 0
2, 47274, Note_on_c, 0, 32, 86
2, 47344, Note_on_c, 0, 34, 92
2, 47347, Note_on_c, 0, 32, 0
2, 47454, Note_on_c, 0, 32, 77
2, 47496, Note_on_c, 0, 34, 0
2, 47519, Note_on_c, 0, 32, 0
2, 47520, Note_on_c, 0, 35, 100
2, 47580, Note_on_c, 0, 35, 0
2, 47580, Note_on_c, 0, 40, 76
2, 47640, Note_on_c, 0, 40, 0
2, 47640, Note_on_c, 0, 38, 45
2, 47700, Note_on_c, 0, 38, 0
2, 47700, Note_on_c, 0, 35, 48
2, 47760, Note_on_c, 0, 35, 0
2, 47760, Note_on_c, 0, 28, 59
2, 47820, Note_on_c, 0, 28, 0
2, 47820, Note_on_c, 0, 31, 74
2, 47880, Note_on_c, 0, 31, 0
2, 47880, Note_on_c, 0, 33, 69
2, 47940, Note_on_c, 0, 33, 0
2, 47940, Note_on_c, 0, 35, 64
2, 48000, Note_on_c, 0, 35, 0
2, 48000, Note_on_c, 0, 33, 66
2, 48060, Note_on_c, 0, 33, 0
2, 48060, Note_on_c, 0, 36, 58
2, 48120, Note_on_c, 0, 36, 0
2, 48120, Note_on_c, 0, 38, 42
2, 48180, Note_on_c, 0, 38, 0
2, 48180, Note_on_c, 0, 41, 80
2, 48300, Note_on_c, 0, 41, 0
2, 48300, Note_on_c, 0, 40, 58
2, 48360, Note_on_c, 0, 40, 0
2, 48360, Note_on_c, 0, 38, 55
2, 48420, Note_on_c, 0, 38, 0
2, 48420, Note_on_c, 0, 31, 68
2, 48540, Note_on_c, 0, 31, 0
2, 48540, Note_on_c, 0, 33, 88
2, 48600, Note_on_c, 0, 33, 0
2, 48600, Note_on_c, 0, 35, 82
2, 48660, Note_on_c, 0, 35, 0
2, 48660, Note_on_c, 0, 36, 104
2, 48780, Note_on_c, 0, 36, 0
2, 48780, Note_on_c, 0, 38, 79
2, 48840, Note_on_c, 0, 38, 0
2, 48840, Note_on_c, 0, 36, 63
2, 48900, Note_on_c, 0, 36, 0
2, 48900, Note_on_c, 0, 29, 78
2, 49020, Note_on_c, 0, 29, 0
2, 49020, Note_on_c, 0, 36, 64
2, 49080, Note_on_c, 0, 36, 0
2, 49080, Note_on_c, 0, 38, 75
2, 49140, Note_on_c, 0, 38, 0
2, 49140, Note_on_c, 0, 41, 85
2, 49260, Note_on_c, 0, 41, 0
2, 49260, Note_on_c, 0, 38, 41
2, 49320, Note_on_c, 0, 38, 0
2, 49320, Note_on_c, 0, 36, 56
2, 49380, Note_on_c, 0, 36, 0
2, 49380, Note_on_c, 0, 29, 73
2, 49500, Note_on_c, 0, 29, 0
2, 49500, Note_on_c, 0, 36, 64
2, 49560, Note_on_c, 0, 36, 0
2, 49560, Note_on_c, 0, 38, 75
2, 49620, Note_on_c, 0, 38, 0
2, 49620, Note_on_c, 0, 41, 55
2, 49680, Note_on_c, 0, 41, 0
2, 49680, Note_on_c, 0, 31, 62
2, 49740, Note_on_c, 0, 31, 0
2, 49740, Note_on_c, 0, 36, 57
2, 49800, Note_on_c, 0, 36, 0
2, 49800, Note_on_c, 0, 43, 50
2, 49860, Note_on_c, 0, 36, 43
2, 49920, Note_on_c, 0, 36, 0
2, 49920, Note_on_c, 0, 43, 0
2, 49920, Note_on_c, 0, 33, 67
2, 49980, Note_on_c, 0, 33, 0
2, 49980, Note_on_c, 0, 38, 62
2, 50040, Note_on_c, 0, 38, 0
2, 50040, Note_on_c, 0, 40, 40
2, 50100, Note_on_c, 0, 40, 0
2, 50100, Note_on_c, 0, 45, 62
2, 50220, Note_on_c, 0, 45, 0
2, 50220, Note_on_c, 0, 43, 58
2, 50280, Note_on_c, 0, 43, 0
2, 50280, Note_on_c, 0, 40, 54
2, 50340, Note_on_c, 0, 40, 0
2, 50340, Note_on_c, 0, 31, 70
2, 50460, Note_on_c, 0, 31, 0
2, 50460, Note_on_c, 0, 33, 83
2, 50520, Note_on_c, 0, 33, 0
2, 50520, Note_on_c, 0, 35, 80
2, 50580, Note_on_c, 0, 35, 0
2, 50580, Note_on_c, 0, 36, 83
2, 50700, Note_on_c, 0, 36, 0
2, 50700, Note_on_c, 0, 38, 69
2, 50760, Note_on_c, 0, 38, 0
2, 50760, Note_on_c, 0, 36, 73
2, 50820, Note_on_c, 0, 36, 0
2, 50820, Note_on_c, 0, 29, 78
2, 50940, Note_on_c, 0, 29, 0
2, 50940, Note_on_c, 0, 33, 49
2, 51000, Note_on_c, 0, 33, 0
2, 51000, Note_on_c, 0, 36, 53
2, 51060, Note_on_c, 0, 36, 0
2, 51060, Note_on_c, 0, 41, 83
2, 51180, Note_on_c, 0, 41, 0
2, 51180, Note_on_c, 0, 36, 67
2, 51240, Note_on_c, 0, 36, 0
2, 51240, Note_on_c, 0, 29, 62
2, 51270, Note_on_c, 0, 29, 0
2, 51300, Note_on_c, 0, 29, 76
2, 51420, Note_on_c, 0, 29, 0
2, 51420, Note_on_c, 0, 33, 66
2, 51480, Note_on_c, 0, 33, 0
2, 51480, Note_on_c, 0, 36, 74
2, 51540, Note_on_c, 0, 36, 0
2, 51540, Note_on_c, 0, 41, 65
2, 51600, Note_on_c, 0, 41, 0
2, 51600, Note_on_c, 0, 31, 52
2, 51660, Note_on_c, 0, 31, 0
2, 51660, Note_on_c, 0, 35, 62
2, 51720, Note_on_c, 0, 35, 0
2, 51720, Note_on_c, 0, 38, 60
2, 51780, Note_on_c, 0, 38, 0
2, 51780, Note_on_c, 0, 43, 60
2, 51840, Note_on_c, 0, 43, 0
2, 51840, Note_on_c, 0, 33, 53
2, 51900, Note_on_c, 0, 33, 0
2, 51900, Note_on_c, 0, 35, 66
2, 51960, Note_on_c, 0, 35, 0
2, 51960, Note_on_c, 0, 38, 32
2, 52020, Note_on_c, 0, 38, 0
2, 52020, Note_on_c, 0, 36, 65
2, 52080, Note_on_c, 0, 36, 0
2, 52080, Note_on_c, 0, 38, 72
2, 52140, Note_on_c, 0, 38, 0
2, 52200, Note_on_c, 0, 38, 72
2, 52260, Note_on_c, 0, 38, 0
2, 52260, Note_on_c, 0, 31, 85
2, 52380, Note_on_c, 0, 31, 0
2, 52380, Note_on_c, 0, 33, 82
2, 52440, Note_on_c, 0, 33, 0
2, 52440, Note_on_c, 0, 36, 90
2, 52500, Note_on_c, 0, 36, 0
2, 52500, Note_on_c, 0, 33, 83
2, 52560, Note_on_c, 0, 33, 0
2, 52560, Note_on_c, 0, 36, 86
2, 52620, Note_on_c, 0, 36, 0
2, 52680, Note_on_c, 0, 36, 90
2, 52740, Note_on_c, 0, 36, 0
2, 52740, Note_on_c, 0, 33, 99
2, 52860, Note_on_c, 0, 33, 0
2, 52860, Note_on_c, 0, 36, 99
2, 52920, Note_on_c, 0, 36, 0
2, 52920, Note_on_c, 0, 38, 75
2, 52980, Note_on_c, 0, 38, 0
2, 52980, Note_on_c, 0, 36, 72
2, 53040, Note_on_c, 0, 36, 0
2, 53040, Note_on_c, 0, 38, 78
2, 53130, Note_on_c, 0, 38, 0
2, 53160, Note_on_c, 0, 38, 73
2, 53220, Note_on_c, 0, 38, 0
2, 53220, Note_on_c, 0, 31, 71
2, 53340, Note_on_c, 0, 31, 0
2, 53340, Note_on_c, 0, 33, 76
2, 53400, Note_on_c, 0, 33, 0
2, 53400, Note_on_c, 0, 36, 101
2, 53460, Note_on_c, 0, 36, 0
2, 53460, Note_on_c, 0, 33, 94
2, 53520, Note_on_c, 0, 33, 0
2, 53520, Note_on_c, 0, 36, 97
2, 53580, Note_on_c, 0, 36, 0
2, 53640, Note_on_c, 0, 36, 82
2, 53700, Note_on_c, 0, 36, 0
2, 53700, Note_on_c, 0, 33, 69
2, 53820, Note_on_c, 0, 33, 0
2, 53820, Note_on_c, 0, 36, 79
2, 53880, Note_on_c, 0, 36, 0
2, 53880, Note_on_c, 0, 38, 83
2, 53940, Note_on_c, 0, 38, 0
2, 53940, Note_on_c, 0, 36, 79
2, 54000, Note_on_c, 0, 36, 0
2, 54000, Note_on_c, 0, 38, 92
2, 54060, Note_on_c, 0, 38, 0
2, 54120, Note_on_c, 0, 38, 71
2, 54180, Note_on_c, 0, 38, 0
2, 54180, Note_on_c, 0, 31, 94
2, 54300, Note_on_c, 0, 31, 0
2, 54300, Note_on_c, 0, 33, 86
2, 54360, Note_on_c, 0, 33, 0
2, 54360, Note_on_c, 0, 36, 80
2, 54420, Note_on_c, 0, 36, 0
2, 54420, Note_on_c, 0, 33, 78
2, 54480, Note_on_c, 0, 33, 0
2, 54480, Note_on_c, 0, 36, 85
2, 54540, Note_on_c, 0, 36, 0
2, 54600, Note_on_c, 0, 36, 80
2, 54660, Note_on_c, 0, 36, 0
2, 54660, Note_on_c, 0, 33, 67
2, 54780, Note_on_c, 0, 33, 0
2, 54780, Note_on_c, 0, 36, 82
2, 54840, Note_on_c, 0, 36, 0
2, 54840, Note_on_c, 0, 38, 97
2, 54900, Note_on_c, 0, 38, 0
2, 54900, Note_on_c, 0, 36, 78
2, 54960, Note_on_c, 0, 36, 0
2, 54960, Note_on_c, 0, 38, 97
2, 55020, Note_on_c, 0, 38, 0
2, 55080, Note_on_c, 0, 38, 69
2, 55140, Note_on_c, 0, 38, 0
2, 55140, Note_on_c, 0, 31, 104
2, 55260, Note_on_c, 0, 31, 0
2, 55260, Note_on_c, 0, 33, 97
2, 55320, Note_on_c, 0, 33, 0
2, 55320, Note_on_c, 0, 36, 101
2, 55380, Note_on_c, 0, 36, 0
2, 55380, Note_on_c, 0, 33, 90
2, 55440, Note_on_c, 0, 33, 0
2, 55440, Note_on_c, 0, 36, 101
2, 55500, Note_on_c, 0, 36, 0
2, 55560, Note_on_c, 0, 36, 88
2, 55620, Note_on_c, 0, 36, 0
2, 55620, Note_on_c, 0, 33, 104
2, 55740, Note_on_c, 0, 33, 0
2, 55740, Note_on_c, 0, 36, 76
2, 55800, Note_on_c, 0, 36, 0
2, 55800, Note_on_c, 0, 38, 88
2, 55860, Note_on_c, 0, 38, 0
2, 55860, Note_on_c, 0, 36, 99
2, 55920, Note_on_c, 0, 36, 0
2, 55920, Note_on_c, 0, 38, 92
2, 55980, Note_on_c, 0, 38, 0
2, 56040, Note_on_c, 0, 38, 88
2, 56100, Note_on_c, 0, 38, 0
2, 56100, Note_on_c, 0, 31, 104
2, 56220, Note_on_c, 0, 31, 0
2, 56220, Note_on_c, 0, 33, 90
2, 56280, Note_on_c, 0, 33, 0
2, 56280, Note_on_c, 0, 36, 90
2, 56340, Note_on_c, 0, 36, 0
2, 56340, Note_on_c, 0, 33, 88
2, 56400, Note_on_c, 0, 33, 0
2, 56400, Note_on_c, 0, 36, 99
2, 56460, Note_on_c, 0, 36, 0
2, 56520, Note_on_c, 0, 36, 88
2, 56580, Note_on_c, 0, 36, 0
2, 56580, Note_on_c, 0, 33, 107
2, 56700, Note_on_c, 0, 33, 0
2, 56700, Note_on_c, 0, 36, 88
2, 56760, Note_on_c, 0, 36, 0
2, 56760, Note_on_c, 0, 38, 92
2, 56820, Note_on_c, 0, 38, 0
2, 56820, Note_on_c, 0, 36, 101
2, 56880, Note_on_c, 0, 36, 0
2, 56880, Note_on_c, 0, 38, 97
2, 56940, Note_on_c, 0, 38, 0
2, 57000, Note_on_c, 0, 38, 99
2, 57060, Note_on_c, 0, 38, 0
2, 57060, Note_on_c, 0, 31, 104
2, 57180, Note_on_c, 0, 31, 0
2, 57180, Note_on_c, 0, 33, 101
2, 57240, Note_on_c, 0, 33, 0
2, 57240, Note_on_c, 0, 36, 101
2, 57300, Note_on_c, 0, 36, 0
2, 57300, Note_on_c, 0, 33, 97
2, 57360, Note_on_c, 0, 33, 0
2, 57360, Note_on_c, 0, 36, 104
2, 57450, Note_on_c, 0, 36, 0
2, 57480, Note_on_c, 0, 36, 88
2, 57540, Note_on_c, 0, 36, 0
2, 57540, Note_on_c, 0, 33, 107
2, 57660, Note_on_c, 0, 33, 0
2, 57660, Note_on_c, 0, 36, 99
2, 57720, Note_on_c, 0, 36, 0
2, 57720, Note_on_c, 0, 38, 90
2, 57780, Note_on_c, 0, 38, 0
2, 57780, Note_on_c, 0, 36, 97
2, 57840, Note_on_c, 0, 36, 0
2, 57840, Note_on_c, 0, 38, 92
2, 57900, Note_on_c, 0, 38, 0
2, 57960, Note_on_c, 0, 38, 99
2, 58020, Note_on_c, 0, 38, 0
2, 58020, Note_on_c, 0, 31, 107
2, 58140, Note_on_c, 0, 31, 0
2, 58140, Note_on_c, 0, 33, 104
2, 58200, Note_on_c, 0, 33, 0
2, 58200, Note_on_c, 0, 36, 101
2, 58260, Note_on_c, 0, 36, 0
2, 58260, Note_on_c, 0, 33, 99
2, 58320, Note_on_c, 0, 33, 0
2, 58320, Note_on_c, 0, 36, 101
2, 58410, Note_on_c, 0, 36, 0
2, 58440, Note_on_c, 0, 36, 97
2, 58500, Note_on_c, 0, 36, 0
2, 58500, Note_on_c, 0, 33, 97
2, 58620, Note_on_c, 0, 33, 0
2, 58620, Note_on_c, 0, 36, 97
2, 58680, Note_on_c, 0, 36, 0
2, 58680, Note_on_c, 0, 38, 92
2, 58740, Note_on_c, 0, 38, 0
2, 58740, Note_on_c, 0, 36, 83
2, 58800, Note_on_c, 0, 36, 0
2, 58800, Note_on_c, 0, 38, 90
2, 58890, Note_on_c, 0, 38, 0
2, 58920, Note_on_c, 0, 38, 99
2, 58980, Note_on_c, 0, 38, 0
2, 58980, Note_on_c, 0, 31, 104
2, 59100, Note_on_c, 0, 31, 0
2, 59100, Note_on_c, 0, 33, 97
2, 59160, Note_on_c, 0, 33, 0
2, 59160, Note_on_c, 0, 36, 92
2, 59220, Note_on_c, 0, 36, 0
2, 59220, Note_on_c, 0, 33, 86
2, 59280, Note_on_c, 0, 33, 0
2, 59280, Note_on_c, 0, 36, 97
2, 59370, Note_on_c, 0, 36, 0
2, 59400, Note_on_c, 0, 36, 94
2, 59460, Note_on_c, 0, 36, 0
2, 59460, Note_on_c, 0, 33, 101
2, 59580, Note_on_c, 0, 33, 0
2, 59580, Note_on_c, 0, 36, 85
2, 59640, Note_on_c, 0, 36, 0
2, 59640, Note_on_c, 0, 38, 88
2, 59700, Note_on_c, 0, 38, 0
2, 59700, Note_on_c, 0, 36, 79
2, 59760, Note_on_c, 0, 36, 0
2, 59760, Note_on_c, 0, 38, 90
2, 59820, Note_on_c, 0, 38, 0
2, 59880, Note_on_c, 0, 38, 97
2, 59940, Note_on_c, 0, 38, 0
2, 59940, Note_on_c, 0, 31, 92
2, 60060, Note_on_c, 0, 31, 0
2, 60060, Note_on_c, 0, 33, 88
2, 60120, Note_on_c, 0, 33, 0
2, 60120, Note_on_c, 0, 36, 92
2, 60180, Note_on_c, 0, 36, 0
2, 60180, Note_on_c, 0, 33, 82
2, 60240, Note_on_c, 0, 33, 0
2, 60240, Note_on_c, 0, 36, 99
2, 60330, Note_on_c, 0, 36, 0
2, 60360, Note_on_c, 0, 36, 88
2, 60420, Note_on_c, 0, 36, 0
2, 60420, Note_on_c, 0, 33, 99
2, 60540, Note_on_c, 0, 33, 0
2, 60540, Note_on_c, 0, 36, 67
2, 60600, Note_on_c, 0, 36, 0
2, 60600, Note_on_c, 0, 38, 79
2, 60660, Note_on_c, 0, 38, 0
2, 60660, Note_on_c, 0, 36, 90
2, 60720, Note_on_c, 0, 36, 0
2, 60720, Note_on_c, 0, 38, 86
2, 60780, Note_on_c, 0, 38, 0
2, 60840, Note_on_c, 0, 38, 92
2, 60900, Note_on_c, 0, 38, 0
2, 60900, Note_on_c, 0, 31, 86
2, 61020, Note_on_c, 0, 31, 0
2, 61020, Note_on_c, 0, 33, 85
2, 61080, Note_on_c, 0, 33, 0
2, 61080, Note_on_c, 0, 36, 80
2, 61140, Note_on_c, 0, 36, 0
2, 61140, Note_on_c, 0, 33, 94
2, 61200, Note_on_c, 0, 33, 0
2, 61200, Note_on_c, 0, 36, 86
2, 61290, Note_on_c, 0, 36, 0
2, 61320, Note_on_c, 0, 36, 99
2, 61380, Note_on_c, 0, 36, 0
2, 61380, Note_on_c, 0, 33, 99
2, 61500, Note_on_c, 0, 33, 0
2, 61500, Note_on_c, 0, 36, 85
2, 61560, Note_on_c, 0, 36, 0
2, 61560, Note_on_c, 0, 38, 79
2, 61620, Note_on_c, 0, 38, 0
2, 61620, Note_on_c, 0, 36, 90
2, 61680, Note_on_c, 0, 36, 0
2, 61680, Note_on_c, 0, 38, 83
2, 61740, Note_on_c, 0, 38, 0
2, 61800, Note_on_c, 0, 38, 92
2, 61860, Note_on_c, 0, 38, 0
2, 61860, Note_on_c, 0, 31, 82
2, 61980, Note_on_c, 0, 31, 0
2, 61980, Note_on_c, 0, 33, 85
2, 62040, Note_on_c, 0, 33, 0
2, 62040, Note_on_c, 0, 36, 85
2, 62100, Note_on_c, 0, 36, 0
2, 62100, Note_on_c, 0, 33, 80
2, 62160, Note_on_c, 0, 33, 0
2, 62160, Note_on_c, 0, 36, 101
2, 62250, Note_on_c, 0, 36, 0
2, 62280, Note_on_c, 0, 36, 92
2, 62340, Note_on_c, 0, 36, 0
2, 62340, Note_on_c, 0, 33, 92
2, 62410, Control_c, 0, 7, 104
2, 62440, Control_c, 0, 7, 103
2, 62460, Note_on_c, 0, 33, 0
2, 62460, Note_on_c, 0, 36, 76
2, 62470, Control_c, 0, 7, 102
2, 62500, Control_c, 0, 7, 101
2, 62520, Note_on_c, 0, 36, 0
2, 62520, Note_on_c, 0, 38, 83
2, 62530, Control_c, 0, 7, 100
2, 62550, Control_c, 0, 7, 99
2, 62580, Note_on_c, 0, 38, 0
2, 62580, Control_c, 0, 7, 98
2, 62580, Note_on_c, 0, 36, 94
2, 62610, Control_c, 0, 7, 97
2, 62640, Note_on_c, 0, 36, 0
2, 62640, Control_c, 0, 7, 96
2, 62640, Note_on_c, 0, 38, 88
2, 62660, Control_c, 0, 7, 95
2, 62690, Control_c, 0, 7, 94
2, 62700, Note_on_c, 0, 38, 0
2, 62720, Control_c, 0, 7, 93
2, 62750, Control_c, 0, 7, 92
2, 62760, Note_on_c, 0, 38, 78
2, 62770, Control_c, 0, 7, 91
2, 62790, Note_on_c, 0, 38, 0
2, 62800, Control_c, 0, 7, 90
2, 62820, Note_on_c, 0, 31, 104
2, 62830, Control_c, 0, 7, 89
2, 62860, Control_c, 0, 7, 88
2, 62890, Control_c, 0, 7, 87
2, 62910, Control_c, 0, 7, 86
2, 62940, Note_on_c, 0, 31, 0
2, 62940, Control_c, 0, 7, 85
2, 62940, Note_on_c, 0, 33, 78
2, 62970, Control_c, 0, 7, 84
2, 63000, Note_on_c, 0, 33, 0
2, 63000, Control_c, 0, 7, 83
2, 63000, Note_on_c, 0, 36, 85
2, 63020, Control_c, 0, 7, 82
2, 63050, Control_c, 0, 7, 81
2, 63060, Note_on_c, 0, 36, 0
2, 63060, Note_on_c, 0, 33, 59
2, 63080, Control_c, 0, 7, 80
2, 63110, Control_c, 0, 7, 79
2, 63120, Note_on_c, 0, 33, 0
2, 63120, Note_on_c, 0, 36, 82
2, 63130, Control_c, 0, 7, 78
2, 63160, Control_c, 0, 7, 77
2, 63190, Control_c, 0, 7, 76
2, 63210, Note_on_c, 0, 36, 0
2, 63220, Control_c, 0, 7, 75
2, 63240, Note_on_c, 0, 36, 88
2, 63250, Control_c, 0, 7, 74
2, 63270, Control_c, 0, 7, 73
2, 63300, Note_on_c, 0, 36, 0
2, 63300, Control_c, 0, 7, 72
2, 63300, Note_on_c, 0, 33, 79
2, 63330, Control_c, 0, 7, 71
2, 63360, Control_c, 0, 7, 70
2, 63380, Control_c, 0, 7, 69
2, 63410, Control_c, 0, 7, 68
2, 63420, Note_on_c, 0, 33, 0
2, 63420, Note_on_c, 0, 36, 71
2, 63440, Control_c, 0, 7, 67
2, 63470, Control_c, 0, 7, 66
2, 63480, Note_on_c, 0, 36, 0
2, 63480, Note_on_c, 0, 38, 82
2, 63490, Control_c, 0, 7, 65
2, 63520, Control_c, 0, 7, 64
2, 63540, Note_on_c, 0, 38, 0
2, 63540, Note_on_c, 0, 36, 70
2, 63550, Control_c, 0, 7, 63
2, 63580, Control_c, 0, 7, 62
2, 63600, Note_on_c, 0, 36, 0
2, 63600, Note_on_c, 0, 38, 86
2, 63610, Control_c, 0, 7, 61
2, 63630, Control_c, 0, 7, 60
2, 63660, Note_on_c, 0, 38, 0
2, 63660, Control_c, 0, 7, 59
2, 63690, Control_c, 0, 7, 58
2, 63720, Control_c, 0, 7, 57
2, 63720, Note_on_c, 0, 38, 82
2, 63740, Control_c, 0, 7, 56
2, 63770, Control_c, 0, 7, 55
2, 63780, Note_on_c, 0, 38, 0
2, 63780, Note_on_c, 0, 31, 73
2, 63800, Control_c, 0, 7, 54
2, 63830, Control_c, 0, 7, 53
2, 63850, Control_c, 0, 7, 52
2, 63880, Control_c, 0, 7, 51
2, 63900, Note_on_c, 0, 31, 0
2, 63900, Note_on_c, 0, 33, 68
2, 63910, Control_c, 0, 7, 50
2, 63940, Control_c, 0, 7, 49
2, 63960, Note_on_c, 0, 33, 0
2, 63960, Note_on_c, 0, 36, 67
2, 63970, Control_c, 0, 7, 48
2, 63990, Control_c, 0, 7, 47
2, 64020, Note_on_c, 0, 36, 0
2, 64020, Control_c, 0, 7, 46
2, 64020, Note_on_c, 0, 33, 83
2, 64050, Control_c, 0, 7, 45
2, 64080, Note_on_c, 0, 33, 0
2, 64080, Control_c, 0, 7, 44
2, 64080, Note_on_c, 0, 36, 76
2, 64100, Control_c, 0, 7, 43
2, 64130, Control_c, 0, 7, 42
2, 64160, Control_c, 0, 7, 41
2, 64170, Note_on_c, 0, 36, 0
2, 64190, Control_c, 0, 7, 40
2, 64200, Note_on_c, 0, 36, 90
2, 64210, Control_c, 0, 7, 39
2, 64240, Control_c, 0, 7, 38
2, 64260, Note_on_c, 0, 36, 0
2, 64260, Note_on_c, 0, 33, 99
2, 64270, Control_c, 0, 7, 37
2, 64300, Control_c, 0, 7, 36
2, 64330, Control_c, 0, 7, 35
2, 64350, Control_c, 0, 7, 34
2, 64380, Note_on_c, 0, 33, 0
2, 64380, Control_c, 0, 7, 33
2, 64380, Note_on_c, 0, 36, 69
2, 64410, Control_c, 0, 7, 32
2, 64440, Note_on_c, 0, 36, 0
2, 64440, Control_c, 0, 7, 31
2, 64440, Note_on_c, 0, 38, 88
2, 64460, Control_c, 0, 7, 30
2, 64490, Control_c, 0, 7, 29
2, 64500, Note_on_c, 0, 38, 0
2, 64500, Note_on_c, 0, 36, 86
2, 64520, Control_c, 0, 7, 28
2, 64550, Control_c, 0, 7, 27
2, 64560, Note_on_c, 0, 36, 0
2, 64560, Note_on_c, 0, 38, 83
2, 64570, Control_c, 0, 7, 26
2, 64600, Control_c, 0, 7, 25
2, 64630, Control_c, 0, 7, 24
2, 64650, Note_on_c, 0, 38, 0
2, 64660, Control_c, 0, 7, 23
2, 64680, Note_on_c, 0, 38, 83
2, 64690, Control_c, 0, 7, 22
2, 64710, Control_c, 0, 7, 21
2, 64740, Note_on_c, 0, 38, 0
2, 64740, Control_c, 0, 7, 20
2, 64740, Note_on_c, 0, 31, 90
2, 64770, Control_c, 0, 7, 19
2, 64800, Control_c, 0, 7, 18
2, 64820, Control_c, 0, 7, 17
2, 64850, Control_c, 0, 7, 16
2, 64860, Note_on_c, 0, 31, 0
2, 64860, Note_on_c, 0, 33, 75
2, 64880, Control_c, 0, 7, 15
2, 64910, Control_c, 0, 7, 14
2, 64920, Note_on_c, 0, 33, 0
2, 64920, Note_on_c, 0, 36, 82
2, 64930, Control_c, 0, 7, 13
2, 64960, Control_c, 0, 7, 12
2, 64980, Note_on_c, 0, 36, 0
2, 64980, Note_on_c, 0, 33, 85
2, 64990, Control_c, 0, 7, 11
2, 65010, Note_on_c, 0, 33, 0
2, 65020, Control_c, 0, 7, 10
2, 65040, Note_on_c, 0, 36, 92
2, 65050, Control_c, 0, 7, 9
2, 65070, Control_c, 0, 7, 8
2, 65100, Control_c, 0, 7, 7
2, 65130, Note_on_c, 0, 36, 0
2, 65130, Control_c, 0, 7, 6
2, 65160, Control_c, 0, 7, 5
2, 65160, Note_on_c, 0, 36, 79
2, 65180, Control_c, 0, 7, 4
2, 65210, Control_c, 0, 7, 3
2, 65240, Control_c, 0, 7, 2
2, 65270, Control_c, 0, 7, 1
2, 65280, Note_on_c, 0, 36, 0
2, 65290, Control_c, 0, 7, 0
2, 65290, End_track
3, 0, Start_track
3, 0, MIDI_port, 0
3, 0, Title_t, "FX5 (brightness)"
3, 0, Control_c, 1, 0, 56
3, 0, Control_c, 1, 32, 0
3, 0, Program_c, 1, 100
3, 0, Control_c, 1, 7, 70
3, 0, Control_c, 1, 10, 80
3, 960, Control_c, 1, 64, 127
3, 1200, Control_c, 1, 64, 0
3, 1260, Note_on_c, 1, 65, 66
3, 1350, Note_on_c, 1, 65, 0
3, 1380, Note_on_c, 1, 63, 96
3, 1500, Note_on_c, 1, 63, 0
3, 3180, Note_on_c, 1, 65, 92
3, 3240, Note_on_c, 1, 65, 0
3, 3300, Note_on_c, 1, 63, 84
3, 3390, Note_on_c, 1, 63, 0
3, 5100, Note_on_c, 1, 65, 90
3, 5160, Note_on_c, 1, 65, 0
3, 5220, Note_on_c, 1, 63, 86
3, 5310, Note_on_c, 1, 63, 0
3, 7020, Note_on_c, 1, 65, 82
3, 7080, Note_on_c, 1, 65, 0
3, 7140, Note_on_c, 1, 63, 89
3, 7230, Note_on_c, 1, 63, 0
3, 8288, Control_c, 1, 64, 127
3, 8305, Control_c, 1, 64, 127
3, 8334, Control_c, 1, 64, 0
3, 8940, Note_on_c, 1, 65, 69
3, 8970, Note_on_c, 1, 65, 0
3, 9060, Note_on_c, 1, 63, 62
3, 9090, Note_on_c, 1, 63, 0
3, 9109, Control_c, 1, 64, 0
3, 9127, Control_c, 1, 64, 127
3, 9907, Control_c, 1, 64, 0
3, 9992, Control_c, 1, 64, 127
3, 10182, Control_c, 1, 64, 0
3, 10860, Note_on_c, 1, 65, 85
3, 10920, Note_on_c, 1, 65, 0
3, 10980, Note_on_c, 1, 63, 79
3, 11100, Note_on_c, 1, 63, 0
3, 12960, Note_on_c, 1, 71, 85
3, 12960, Note_on_c, 1, 64, 66
3, 12960, Note_on_c, 1, 68, 77
3, 12993, Control_c, 1, 64, 127
3, 13050, Note_on_c, 1, 68, 0
3, 13050, Note_on_c, 1, 64, 0
3, 13050, Note_on_c, 1, 71, 0
3, 13200, Note_on_c, 1, 76, 71
3, 13200, Note_on_c, 1, 71, 82
3, 13200, Note_on_c, 1, 68, 84
3, 13208, Control_c, 1, 64, 0
3, 13272, Control_c, 1, 64, 127
3, 13320, Note_on_c, 1, 68, 0
3, 13320, Note_on_c, 1, 71, 0
3, 13320, Note_on_c, 1, 76, 0
3, 13435, Control_c, 1, 64, 0
3, 13440, Note_on_c, 1, 69, 74
3, 13440, Note_on_c, 1, 76, 86
3, 13440, Note_on_c, 1, 72, 88
3, 13499, Control_c, 1, 64, 127
3, 13560, Note_on_c, 1, 72, 0
3, 13560, Note_on_c, 1, 76, 0
3, 13560, Note_on_c, 1, 69, 0
3, 13618, Control_c, 1, 64, 0
3, 13620, Note_on_c, 1, 69, 78
3, 13620, Note_on_c, 1, 77, 88
3, 13620, Note_on_c, 1, 72, 90
3, 13717, Control_c, 1, 64, 127
3, 13740, Note_on_c, 1, 72, 0
3, 13740, Note_on_c, 1, 77, 0
3, 13740, Note_on_c, 1, 69, 0
3, 13857, Control_c, 1, 64, 0
3, 13860, Note_on_c, 1, 67, 86
3, 13860, Note_on_c, 1, 71, 92
3, 13860, Note_on_c, 1, 74, 99
3, 13930, Control_c, 1, 64, 127
3, 13980, Note_on_c, 1, 74, 0
3, 13980, Note_on_c, 1, 71, 0
3, 13980, Note_on_c, 1, 67, 0
3, 14081, Control_c, 1, 64, 0
3, 14100, Note_on_c, 1, 76, 79
3, 14100, Note_on_c, 1, 72, 86
3, 14100, Note_on_c, 1, 67, 82
3, 14152, Control_c, 1, 64, 127
3, 14220, Note_on_c, 1, 67, 0
3, 14220, Note_on_c, 1, 72, 0
3, 14220, Note_on_c, 1, 76, 0
3, 14340, Note_on_c, 1, 72, 86
3, 14340, Note_on_c, 1, 65, 74
3, 14340, Note_on_c, 1, 69, 85
3, 14344, Control_c, 1, 64, 0
3, 14467, Control_c, 1, 64, 127
3, 14940, Note_on_c, 1, 69, 0
3, 14940, Note_on_c, 1, 65, 0
3, 14970, Note_on_c, 1, 72, 0
3, 15103, Control_c, 1, 64, 0
3, 15120, Note_on_c, 1, 74, 97
3, 15120, Note_on_c, 1, 67, 90
3, 15120, Note_on_c, 1, 71, 99
3, 15185, Control_c, 1, 64, 127
3, 15240, Note_on_c, 1, 71, 0
3, 15240, Note_on_c, 1, 67, 0
3, 15240, Note_on_c, 1, 74, 0
3, 15341, Control_c, 1, 64, 0
3, 15360, Note_on_c, 1, 69, 71
3, 15360, Note_on_c, 1, 76, 80
3, 15360, Note_on_c, 1, 72, 82
3, 15404, Control_c, 1, 64, 127
3, 15480, Note_on_c, 1, 72, 0
3, 15480, Note_on_c, 1, 76, 0
3, 15480, Note_on_c, 1, 69, 0
3, 15540, Note_on_c, 1, 77, 83
3, 15540, Note_on_c, 1, 69, 76
3, 15540, Note_on_c, 1, 72, 90
3, 15543, Control_c, 1, 64, 0
3, 15620, Control_c, 1, 64, 127
3, 15660, Note_on_c, 1, 72, 0
3, 15660, Note_on_c, 1, 69, 0
3, 15660, Note_on_c, 1, 77, 0
3, 15774, Control_c, 1, 64, 0
3, 15780, Note_on_c, 1, 67, 75
3, 15780, Note_on_c, 1, 74, 90
3, 15780, Note_on_c, 1, 71, 90
3, 15844, Control_c, 1, 64, 127
3, 15900, Note_on_c, 1, 71, 0
3, 15900, Note_on_c, 1, 74, 0
3, 15900, Note_on_c, 1, 67, 0
3, 16020, Note_on_c, 1, 76, 79
3, 16020, Note_on_c, 1, 67, 78
3, 16020, Note_on_c, 1, 72, 90
3, 16023, Control_c, 1, 64, 0
3, 16101, Control_c, 1, 64, 127
3, 16140, Note_on_c, 1, 72, 0
3, 16140, Note_on_c, 1, 67, 0
3, 16140, Note_on_c, 1, 76, 0
3, 16260, Note_on_c, 1, 65, 68
3, 16260, Note_on_c, 1, 72, 92
3, 16260, Note_on_c, 1, 69, 85
3, 16260, Control_c, 1, 64, 0
3, 16374, Control_c, 1, 64, 127
3, 16796, Control_c, 1, 64, 0
3, 16869, Control_c, 1, 64, 127
3, 16950, Note_on_c, 1, 65, 0
3, 16980, Note_on_c, 1, 69, 0
3, 16980, Note_on_c, 1, 72, 0
3, 17039, Control_c, 1, 64, 0
3, 17040, Note_on_c, 1, 71, 82
3, 17040, Note_on_c, 1, 67, 79
3, 17040, Note_on_c, 1, 74, 80
3, 17108, Control_c, 1, 64, 127
3, 17160, Note_on_c, 1, 74, 0
3, 17160, Note_on_c, 1, 67, 0
3, 17160, Note_on_c, 1, 71, 0
3, 17251, Control_c, 1, 64, 0
3, 17280, Note_on_c, 1, 72, 72
3, 17280, Note_on_c, 1, 69, 60
3, 17280, Note_on_c, 1, 76, 66
3, 17312, Control_c, 1, 64, 127
3, 17370, Note_on_c, 1, 76, 0
3, 17370, Note_on_c, 1, 69, 0
3, 17370, Note_on_c, 1, 72, 0
3, 17455, Control_c, 1, 64, 0
3, 17460, Note_on_c, 1, 77, 74
3, 17460, Note_on_c, 1, 72, 79
3, 17460, Note_on_c, 1, 69, 66
3, 17518, Control_c, 1, 64, 127
3, 17550, Note_on_c, 1, 69, 0
3, 17550, Note_on_c, 1, 72, 0
3, 17550, Note_on_c, 1, 77, 0
3, 17676, Control_c, 1, 64, 0
3, 17700, Note_on_c, 1, 71, 76
3, 17700, Note_on_c, 1, 67, 68
3, 17700, Note_on_c, 1, 74, 76
3, 17791, Control_c, 1, 64, 127
3, 17850, Note_on_c, 1, 74, 0
3, 17850, Note_on_c, 1, 67, 0
3, 17850, Note_on_c, 1, 71, 0
3, 17937, Control_c, 1, 64, 0
3, 17940, Note_on_c, 1, 76, 71
3, 17940, Note_on_c, 1, 67, 70
3, 17940, Note_on_c, 1, 72, 73
3, 18027, Control_c, 1, 64, 127
3, 18060, Note_on_c, 1, 72, 0
3, 18060, Note_on_c, 1, 67, 0
3, 18060, Note_on_c, 1, 76, 0
3, 18218, Control_c, 1, 64, 0
3, 18240, Note_on_c, 1, 69, 60
3, 18240, Note_on_c, 1, 76, 64
3, 18240, Note_on_c, 1, 72, 72
3, 18280, Control_c, 1, 64, 127
3, 18330, Note_on_c, 1, 72, 0
3, 18330, Note_on_c, 1, 76, 0
3, 18330, Note_on_c, 1, 69, 0
3, 18420, Note_on_c, 1, 69, 70
3, 18420, Note_on_c, 1, 77, 80
3, 18420, Note_on_c, 1, 72, 82
3, 18427, Control_c, 1, 64, 0
3, 18510, Control_c, 1, 64, 127
3, 18540, Note_on_c, 1, 72, 0
3, 18540, Note_on_c, 1, 77, 0
3, 18540, Note_on_c, 1, 69, 0
3, 18660, Note_on_c, 1, 74, 65
3, 18660, Note_on_c, 1, 71, 67
3, 18660, Note_on_c, 1, 67, 69
3, 18662, Control_c, 1, 64, 0
3, 18731, Control_c, 1, 64, 127
3, 18810, Note_on_c, 1, 67, 0
3, 18810, Note_on_c, 1, 71, 0
3, 18810, Note_on_c, 1, 74, 0
3, 18886, Control_c, 1, 64, 0
3, 18900, Note_on_c, 1, 72, 88
3, 18900, Note_on_c, 1, 67, 78
3, 18900, Note_on_c, 1, 76, 78
3, 18974, Control_c, 1, 64, 127
3, 18990, Note_on_c, 1, 76, 0
3, 18990, Note_on_c, 1, 67, 0
3, 18990, Note_on_c, 1, 72, 0
3, 19180, Control_c, 1, 64, 0
3, 19200, Note_on_c, 1, 69, 71
3, 19200, Note_on_c, 1, 76, 71
3, 19200, Note_on_c, 1, 72, 78
3, 19244, Control_c, 1, 64, 127
3, 19320, Note_on_c, 1, 72, 0
3, 19320, Note_on_c, 1, 76, 0
3, 19320, Note_on_c, 1, 69, 0
3, 19374, Control_c, 1, 64, 0
3, 19380, Note_on_c, 1, 72, 75
3, 19380, Note_on_c, 1, 69, 66
3, 19380, Note_on_c, 1, 77, 76
3, 19432, Control_c, 1, 64, 127
3, 19470, Note_on_c, 1, 77, 0
3, 19470, Note_on_c, 1, 69, 0
3, 19470, Note_on_c, 1, 72, 0
3, 19605, Control_c, 1, 64, 0
3, 19620, Note_on_c, 1, 67, 74
3, 19620, Note_on_c, 1, 74, 88
3, 19620, Note_on_c, 1, 71, 83
3, 19665, Control_c, 1, 64, 127
3, 19680, Note_on_c, 1, 71, 0
3, 19680, Note_on_c, 1, 74, 0
3, 19680, Note_on_c, 1, 67, 0
3, 19842, Control_c, 1, 64, 0
3, 19860, Note_on_c, 1, 76, 73
3, 19860, Note_on_c, 1, 67, 74
3, 19860, Note_on_c, 1, 72, 80
3, 19939, Control_c, 1, 64, 127
3, 19980, Note_on_c, 1, 72, 0
3, 19980, Note_on_c, 1, 67, 0
3, 19980, Note_on_c, 1, 76, 0
3, 20144, Control_c, 1, 64, 0
3, 20160, Note_on_c, 1, 69, 74
3, 20160, Note_on_c, 1, 76, 86
3, 20160, Note_on_c, 1, 72, 82
3, 20209, Control_c, 1, 64, 127
3, 20220, Note_on_c, 1, 72, 0
3, 20250, Note_on_c, 1, 76, 0
3, 20250, Note_on_c, 1, 69, 0
3, 20335, Control_c, 1, 64, 0
3, 20340, Note_on_c, 1, 69, 70
3, 20340, Note_on_c, 1, 77, 74
3, 20340, Note_on_c, 1, 72, 85
3, 20394, Control_c, 1, 64, 127
3, 20430, Note_on_c, 1, 72, 0
3, 20430, Note_on_c, 1, 77, 0
3, 20430, Note_on_c, 1, 69, 0
3, 20573, Control_c, 1, 64, 0
3, 20580, Note_on_c, 1, 67, 67
3, 20580, Note_on_c, 1, 74, 75
3, 20580, Note_on_c, 1, 71, 82
3, 20630, Control_c, 1, 64, 127
3, 20670, Note_on_c, 1, 71, 0
3, 20670, Note_on_c, 1, 74, 0
3, 20670, Note_on_c, 1, 67, 0
3, 20815, Control_c, 1, 64, 0
3, 20820, Note_on_c, 1, 76, 79
3, 20820, Note_on_c, 1, 67, 78
3, 20820, Note_on_c, 1, 72, 86
3, 20875, Control_c, 1, 64, 127
3, 20880, Note_on_c, 1, 72, 0
3, 20880, Note_on_c, 1, 76, 0
3, 20910, Note_on_c, 1, 67, 0
3, 21045, Control_c, 1, 64, 0
3, 21060, Note_on_c, 1, 68, 75
3, 21060, Note_on_c, 1, 72, 74
3, 21060, Note_on_c, 1, 65, 69
3, 22080, Note_on_c, 1, 65, 0
3, 22080, Note_on_c, 1, 72, 0
3, 22080, Note_on_c, 1, 68, 0
3, 22080, Control_c, 1, 64, 127
3, 22320, Control_c, 1, 64, 0
3, 22380, Note_on_c, 1, 65, 66
3, 22470, Note_on_c, 1, 65, 0
3, 22500, Note_on_c, 1, 63, 96
3, 22620, Note_on_c, 1, 63, 0
3, 24300, Note_on_c, 1, 65, 92
3, 24360, Note_on_c, 1, 65, 0
3, 24420, Note_on_c, 1, 63, 84
3, 24510, Note_on_c, 1, 63, 0
3, 26220, Note_on_c, 1, 65, 90
3, 26280, Note_on_c, 1, 65, 0
3, 26340, Note_on_c, 1, 63, 86
3, 26430, Note_on_c, 1, 63, 0
3, 28140, Note_on_c, 1, 65, 82
3, 28200, Note_on_c, 1, 65, 0
3, 28260, Note_on_c, 1, 63, 89
3, 28350, Note_on_c, 1, 63, 0
3, 29408, Control_c, 1, 64, 127
3, 30060, Note_on_c, 1, 65, 69
3, 30090, Note_on_c, 1, 65, 0
3, 30180, Note_on_c, 1, 63, 62
3, 30210, Note_on_c, 1, 63, 0
3, 30229, Control_c, 1, 64, 0
3, 30247, Control_c, 1, 64, 127
3, 31027, Control_c, 1, 64, 0
3, 31112, Control_c, 1, 64, 127
3, 31302, Control_c, 1, 64, 0
3, 31980, Note_on_c, 1, 65, 85
3, 32040, Note_on_c, 1, 65, 0
3, 32100, Note_on_c, 1, 63, 79
3, 32220, Note_on_c, 1, 63, 0
3, 34080, Note_on_c, 1, 71, 85
3, 34080, Note_on_c, 1, 64, 66
3, 34080, Note_on_c, 1, 68, 77
3, 34113, Control_c, 1, 64, 127
3, 34170, Note_on_c, 1, 68, 0
3, 34170, Note_on_c, 1, 64, 0
3, 34170, Note_on_c, 1, 71, 0
3, 34320, Note_on_c, 1, 76, 71
3, 34320, Note_on_c, 1, 71, 82
3, 34320, Note_on_c, 1, 68, 84
3, 34328, Control_c, 1, 64, 0
3, 34392, Control_c, 1, 64, 127
3, 34440, Note_on_c, 1, 68, 0
3, 34440, Note_on_c, 1, 71, 0
3, 34440, Note_on_c, 1, 76, 0
3, 34555, Control_c, 1, 64, 0
3, 34560, Note_on_c, 1, 69, 74
3, 34560, Note_on_c, 1, 76, 86
3, 34560, Note_on_c, 1, 72, 88
3, 34619, Control_c, 1, 64, 127
3, 34680, Note_on_c, 1, 72, 0
3, 34680, Note_on_c, 1, 76, 0
3, 34680, Note_on_c, 1, 69, 0
3, 34738, Control_c, 1, 64, 0
3, 34740, Note_on_c, 1, 69, 78
3, 34740, Note_on_c, 1, 77, 88
3, 34740, Note_on_c, 1, 72, 90
3, 34837, Control_c, 1, 64, 127
3, 34860, Note_on_c, 1, 72, 0
3, 34860, Note_on_c, 1, 77, 0
3, 34860, Note_on_c, 1, 69, 0
3, 34977, Control_c, 1, 64, 0
3, 34980, Note_on_c, 1, 67, 86
3, 34980, Note_on_c, 1, 71, 92
3, 34980, Note_on_c, 1, 74, 99
3, 35050, Control_c, 1, 64, 127
3, 35100, Note_on_c, 1, 74, 0
3, 35100, Note_on_c, 1, 71, 0
3, 35100, Note_on_c, 1, 67, 0
3, 35201, Control_c, 1, 64, 0
3, 35220, Note_on_c, 1, 76, 79
3, 35220, Note_on_c, 1, 72, 86
3, 35220, Note_on_c, 1, 67, 82
3, 35272, Control_c, 1, 64, 127
3, 35340, Note_on_c, 1, 67, 0
3, 35340, Note_on_c, 1, 72, 0
3, 35340, Note_on_c, 1, 76, 0
3, 35460, Note_on_c, 1, 72, 86
3, 35460, Note_on_c, 1, 65, 74
3, 35460, Note_on_c, 1, 69, 85
3, 35464, Control_c, 1, 64, 0
3, 35587, Control_c, 1, 64, 127
3, 36060, Note_on_c, 1, 69, 0
3, 36060, Note_on_c, 1, 65, 0
3, 36090, Note_on_c, 1, 72, 0
3, 36223, Control_c, 1, 64, 0
3, 36240, Note_on_c, 1, 74, 97
3, 36240, Note_on_c, 1, 67, 90
3, 36240, Note_on_c, 1, 71, 99
3, 36305, Control_c, 1, 64, 127
3, 36360, Note_on_c, 1, 71, 0
3, 36360, Note_on_c, 1, 67, 0
3, 36360, Note_on_c, 1, 74, 0
3, 36461, Control_c, 1, 64, 0
3, 36480, Note_on_c, 1, 69, 71
3, 36480, Note_on_c, 1, 76, 80
3, 36480, Note_on_c, 1, 72, 82
3, 36524, Control_c, 1, 64, 127
3, 36600, Note_on_c, 1, 72, 0
3, 36600, Note_on_c, 1, 76, 0
3, 36600, Note_on_c, 1, 69, 0
3, 36660, Note_on_c, 1, 77, 83
3, 36660, Note_on_c, 1, 69, 76
3, 36660, Note_on_c, 1, 72, 90
3, 36663, Control_c, 1, 64, 0
3, 36740, Control_c, 1, 64, 127
3, 36780, Note_on_c, 1, 72, 0
3, 36780, Note_on_c, 1, 69, 0
3, 36780, Note_on_c, 1, 77, 0
3, 36894, Control_c, 1, 64, 0
3, 36900, Note_on_c, 1, 67, 75
3, 36900, Note_on_c, 1, 74, 90
3, 36900, Note_on_c, 1, 71, 90
3, 36964, Control_c, 1, 64, 127
3, 37020, Note_on_c, 1, 71, 0
3, 37020, Note_on_c, 1, 74, 0
3, 37020, Note_on_c, 1, 67, 0
3, 37140, Note_on_c, 1, 76, 79
3, 37140, Note_on_c, 1, 67, 78
3, 37140, Note_on_c, 1, 72, 90
3, 37143, Control_c, 1, 64, 0
3, 37221, Control_c, 1, 64, 127
3, 37260, Note_on_c, 1, 72, 0
3, 37260, Note_on_c, 1, 67, 0
3, 37260, Note_on_c, 1, 76, 0
3, 37380, Note_on_c, 1, 65, 68
3, 37380, Note_on_c, 1, 72, 92
3, 37380, Note_on_c, 1, 69, 85
3, 37380, Control_c, 1, 64, 0
3, 37494, Control_c, 1, 64, 127
3, 37916, Control_c, 1, 64, 0
3, 37989, Control_c, 1, 64, 127
3, 38070, Note_on_c, 1, 65, 0
3, 38100, Note_on_c, 1, 69, 0
3, 38100, Note_on_c, 1, 72, 0
3, 38159, Control_c, 1, 64, 0
3, 38160, Note_on_c, 1, 71, 82
3, 38160, Note_on_c, 1, 67, 79
3, 38160, Note_on_c, 1, 74, 80
3, 38228, Control_c, 1, 64, 127
3, 38280, Note_on_c, 1, 74, 0
3, 38280, Note_on_c, 1, 67, 0
3, 38280, Note_on_c, 1, 71, 0
3, 38371, Control_c, 1, 64, 0
3, 38400, Note_on_c, 1, 72, 72
3, 38400, Note_on_c, 1, 69, 60
3, 38400, Note_on_c, 1, 76, 66
3, 38432, Control_c, 1, 64, 127
3, 38490, Note_on_c, 1, 76, 0
3, 38490, Note_on_c, 1, 69, 0
3, 38490, Note_on_c, 1, 72, 0
3, 38575, Control_c, 1, 64, 0
3, 38580, Note_on_c, 1, 77, 74
3, 38580, Note_on_c, 1, 72, 79
3, 38580, Note_on_c, 1, 69, 66
3, 38638, Control_c, 1, 64, 127
3, 38670, Note_on_c, 1, 69, 0
3, 38670, Note_on_c, 1, 72, 0
3, 38670, Note_on_c, 1, 77, 0
3, 38796, Control_c, 1, 64, 0
3, 38820, Note_on_c, 1, 71, 76
3, 38820, Note_on_c, 1, 67, 68
3, 38820, Note_on_c, 1, 74, 76
3, 38911, Control_c, 1, 64, 127
3, 38970, Note_on_c, 1, 74, 0
3, 38970, Note_on_c, 1, 67, 0
3, 38970, Note_on_c, 1, 71, 0
3, 39057, Control_c, 1, 64, 0
3, 39060, Note_on_c, 1, 76, 71
3, 39060, Note_on_c, 1, 67, 70
3, 39060, Note_on_c, 1, 72, 73
3, 39147, Control_c, 1, 64, 127
3, 39180, Note_on_c, 1, 72, 0
3, 39180, Note_on_c, 1, 67, 0
3, 39180, Note_on_c, 1, 76, 0
3, 39338, Control_c, 1, 64, 0
3, 39360, Note_on_c, 1, 69, 60
3, 39360, Note_on_c, 1, 76, 64
3, 39360, Note_on_c, 1, 72, 72
3, 39400, Control_c, 1, 64, 127
3, 39450, Note_on_c, 1, 72, 0
3, 39450, Note_on_c, 1, 76, 0
3, 39450, Note_on_c, 1, 69, 0
3, 39540, Note_on_c, 1, 69, 70
3, 39540, Note_on_c, 1, 77, 80
3, 39540, Note_on_c, 1, 72, 82
3, 39547, Control_c, 1, 64, 0
3, 39630, Control_c, 1, 64, 127
3, 39660, Note_on_c, 1, 72, 0
3, 39660, Note_on_c, 1, 77, 0
3, 39660, Note_on_c, 1, 69, 0
3, 39780, Note_on_c, 1, 74, 65
3, 39780, Note_on_c, 1, 71, 67
3, 39780, Note_on_c, 1, 67, 69
3, 39782, Control_c, 1, 64, 0
3, 39851, Control_c, 1, 64, 127
3, 39930, Note_on_c, 1, 67, 0
3, 39930, Note_on_c, 1, 71, 0
3, 39930, Note_on_c, 1, 74, 0
3, 40006, Control_c, 1, 64, 0
3, 40020, Note_on_c, 1, 72, 88
3, 40020, Note_on_c, 1, 67, 78
3, 40020, Note_on_c, 1, 76, 78
3, 40094, Control_c, 1, 64, 127
3, 40110, Note_on_c, 1, 76, 0
3, 40110, Note_on_c, 1, 67, 0
3, 40110, Note_on_c, 1, 72, 0
3, 40300, Control_c, 1, 64, 0
3, 40320, Note_on_c, 1, 69, 71
3, 40320, Note_on_c, 1, 76, 71
3, 40320, Note_on_c, 1, 72, 78
3, 40364, Control_c, 1, 64, 127
3, 40440, Note_on_c, 1, 72, 0
3, 40440, Note_on_c, 1, 76, 0
3, 40440, Note_on_c, 1, 69, 0
3, 40494, Control_c, 1, 64, 0
3, 40500, Note_on_c, 1, 72, 75
3, 40500, Note_on_c, 1, 69, 66
3, 40500, Note_on_c, 1, 77, 76
3, 40552, Control_c, 1, 64, 127
3, 40590, Note_on_c, 1, 77, 0
3, 40590, Note_on_c, 1, 69, 0
3, 40590, Note_on_c, 1, 72, 0
3, 40725, Control_c, 1, 64, 0
3, 40740, Note_on_c, 1, 67, 74
3, 40740, Note_on_c, 1, 74, 88
3, 40740, Note_on_c, 1, 71, 83
3, 40785, Control_c, 1, 64, 127
3, 40800, Note_on_c, 1, 71, 0
3, 40800, Note_on_c, 1, 74, 0
3, 40800, Note_on_c, 1, 67, 0
3, 40962, Control_c, 1, 64, 0
3, 40980, Note_on_c, 1, 76, 73
3, 40980, Note_on_c, 1, 67, 74
3, 40980, Note_on_c, 1, 72, 80
3, 41059, Control_c, 1, 64, 127
3, 41100, Note_on_c, 1, 72, 0
3, 41100, Note_on_c, 1, 67, 0
3, 41100, Note_on_c, 1, 76, 0
3, 41264, Control_c, 1, 64, 0
3, 41280, Note_on_c, 1, 69, 74
3, 41280, Note_on_c, 1, 76, 86
3, 41280, Note_on_c, 1, 72, 82
3, 41329, Control_c, 1, 64, 127
3, 41340, Note_on_c, 1, 72, 0
3, 41370, Note_on_c, 1, 76, 0
3, 41370, Note_on_c, 1, 69, 0
3, 41455, Control_c, 1, 64, 0
3, 41460, Note_on_c, 1, 69, 70
3, 41460, Note_on_c, 1, 77, 74
3, 41460, Note_on_c, 1, 72, 85
3, 41514, Control_c, 1, 64, 127
3, 41550, Note_on_c, 1, 72, 0
3, 41550, Note_on_c, 1, 77, 0
3, 41550, Note_on_c, 1, 69, 0
3, 41693, Control_c, 1, 64, 0
3, 41700, Note_on_c, 1, 67, 67
3, 41700, Note_on_c, 1, 74, 75
3, 41700, Note_on_c, 1, 71, 82
3, 41750, Control_c, 1, 64, 127
3, 41790, Note_on_c, 1, 71, 0
3, 41790, Note_on_c, 1, 74, 0
3, 41790, Note_on_c, 1, 67, 0
3, 41935, Control_c, 1, 64, 0
3, 41940, Note_on_c, 1, 76, 79
3, 41940, Note_on_c, 1, 67, 78
3, 41940, Note_on_c, 1, 72, 86
3, 41995, Control_c, 1, 64, 127
3, 42000, Note_on_c, 1, 72, 0
3, 42000, Note_on_c, 1, 76, 0
3, 42030, Note_on_c, 1, 67, 0
3, 42165, Control_c, 1, 64, 0
3, 42180, Note_on_c, 1, 70, 75
3, 42180, Note_on_c, 1, 73, 74
3, 42180, Note_on_c, 1, 65, 69
3, 43200, Note_on_c, 1, 65, 0
3, 43200, Note_on_c, 1, 73, 0
3, 43200, Note_on_c, 1, 70, 0
3, 48000, Note_on_c, 1, 69, 74
3, 48000, Note_on_c, 1, 76, 86
3, 48000, Note_on_c, 1, 72, 88
3, 48059, Control_c, 1, 64, 127
3, 48120, Note_on_c, 1, 72, 0
3, 48120, Note_on_c, 1, 76, 0
3, 48120, Note_on_c, 1, 69, 0
3, 48178, Control_c, 1, 64, 0
3, 48180, Note_on_c, 1, 69, 78
3, 48180, Note_on_c, 1, 77, 88
3, 48180, Note_on_c, 1, 72, 90
3, 48277, Control_c, 1, 64, 127
3, 48300, Note_on_c, 1, 72, 0
3, 48300, Note_on_c, 1, 77, 0
3, 48300, Note_on_c, 1, 69, 0
3, 48417, Control_c, 1, 64, 0
3, 48420, Note_on_c, 1, 67, 86
3, 48420, Note_on_c, 1, 71, 92
3, 48420, Note_on_c, 1, 74, 99
3, 48490, Control_c, 1, 64, 127
3, 48540, Note_on_c, 1, 74, 0
3, 48540, Note_on_c, 1, 71, 0
3, 48540, Note_on_c, 1, 67, 0
3, 48641, Control_c, 1, 64, 0
3, 48660, Note_on_c, 1, 76, 79
3, 48660, Note_on_c, 1, 72, 86
3, 48660, Note_on_c, 1, 67, 82
3, 48712, Control_c, 1, 64, 127
3, 48780, Note_on_c, 1, 67, 0
3, 48780, Note_on_c, 1, 72, 0
3, 48780, Note_on_c, 1, 76, 0
3, 48900, Note_on_c, 1, 72, 86
3, 48900, Note_on_c, 1, 65, 74
3, 48900, Note_on_c, 1, 69, 85
3, 48904, Control_c, 1, 64, 0
3, 49027, Control_c, 1, 64, 127
3, 49500, Note_on_c, 1, 69, 0
3, 49500, Note_on_c, 1, 65, 0
3, 49530, Note_on_c, 1, 72, 0
3, 49663, Control_c, 1, 64, 0
3, 49680, Note_on_c, 1, 74, 97
3, 49680, Note_on_c, 1, 67, 90
3, 49680, Note_on_c, 1, 71, 99
3, 49745, Control_c, 1, 64, 127
3, 49800, Note_on_c, 1, 71, 0
3, 49800, Note_on_c, 1, 67, 0
3, 49800, Note_on_c, 1, 74, 0
3, 49901, Control_c, 1, 64, 0
3, 49920, Note_on_c, 1, 69, 71
3, 49920, Note_on_c, 1, 76, 80
3, 49920, Note_on_c, 1, 72, 82
3, 49964, Control_c, 1, 64, 127
3, 50040, Note_on_c, 1, 72, 0
3, 50040, Note_on_c, 1, 76, 0
3, 50040, Note_on_c, 1, 69, 0
3, 50100, Note_on_c, 1, 77, 83
3, 50100, Note_on_c, 1, 69, 76
3, 50100, Note_on_c, 1, 72, 90
3, 50103, Control_c, 1, 64, 0
3, 50180, Control_c, 1, 64, 127
3, 50220, Note_on_c, 1, 72, 0
3, 50220, Note_on_c, 1, 69, 0
3, 50220, Note_on_c, 1, 77, 0
3, 50334, Control_c, 1, 64, 0
3, 50340, Note_on_c, 1, 67, 75
3, 50340, Note_on_c, 1, 74, 90
3, 50340, Note_on_c, 1, 71, 90
3, 50404, Control_c, 1, 64, 127
3, 50460, Note_on_c, 1, 71, 0
3, 50460, Note_on_c, 1, 74, 0
3, 50460, Note_on_c, 1, 67, 0
3, 50580, Note_on_c, 1, 76, 79
3, 50580, Note_on_c, 1, 67, 78
3, 50580, Note_on_c, 1, 72, 90
3, 50583, Control_c, 1, 64, 0
3, 50661, Control_c, 1, 64, 127
3, 50700, Note_on_c, 1, 72, 0
3, 50700, Note_on_c, 1, 67, 0
3, 50700, Note_on_c, 1, 76, 0
3, 50820, Note_on_c, 1, 65, 68
3, 50820, Note_on_c, 1, 72, 92
3, 50820, Note_on_c, 1, 69, 85
3, 50820, Control_c, 1, 64, 0
3, 50934, Control_c, 1, 64, 127
3, 51356, Control_c, 1, 64, 0
3, 51429, Control_c, 1, 64, 127
3, 51510, Note_on_c, 1, 65, 0
3, 51540, Note_on_c, 1, 69, 0
3, 51540, Note_on_c, 1, 72, 0
3, 51599, Control_c, 1, 64, 0
3, 51600, Note_on_c, 1, 71, 82
3, 51600, Note_on_c, 1, 67, 79
3, 51600, Note_on_c, 1, 74, 80
3, 51668, Control_c, 1, 64, 127
3, 51720, Note_on_c, 1, 74, 0
3, 51720, Note_on_c, 1, 67, 0
3, 51720, Note_on_c, 1, 71, 0
3, 51811, Control_c, 1, 64, 0
3, 51840, Note_on_c, 1, 72, 72
3, 51840, Note_on_c, 1, 69, 60
3, 51840, Note_on_c, 1, 76, 66
3, 51872, Control_c, 1, 64, 127
3, 51930, Note_on_c, 1, 76, 0
3, 51930, Note_on_c, 1, 69, 0
3, 51930, Note_on_c, 1, 72, 0
3, 52015, Control_c, 1, 64, 0
3, 52020, Note_on_c, 1, 77, 74
3, 52020, Note_on_c, 1, 72, 79
3, 52020, Note_on_c, 1, 69, 66
3, 52078, Control_c, 1, 64, 127
3, 52110, Note_on_c, 1, 69, 0
3, 52110, Note_on_c, 1, 72, 0
3, 52110, Note_on_c, 1, 77, 0
3, 52236, Control_c, 1, 64, 0
3, 52260, Note_on_c, 1, 71, 76
3, 52260, Note_on_c, 1, 67, 68
3, 52260, Note_on_c, 1, 74, 76
3, 52351, Control_c, 1, 64, 127
3, 52410, Note_on_c, 1, 74, 0
3, 52410, Note_on_c, 1, 67, 0
3, 52410, Note_on_c, 1, 71, 0
3, 52497, Control_c, 1, 64, 0
3, 52500, Note_on_c, 1, 76, 71
3, 52500, Note_on_c, 1, 67, 70
3, 52500, Note_on_c, 1, 72, 73
3, 52587, Control_c, 1, 64, 127
3, 52620, Note_on_c, 1, 72, 0
3, 52620, Note_on_c, 1, 67, 0
3, 52620, Note_on_c, 1, 76, 0
3, 52778, Control_c, 1, 64, 0
3, 52800, Note_on_c, 1, 69, 60
3, 52800, Note_on_c, 1, 76, 64
3, 52800, Note_on_c, 1, 72, 72
3, 52840, Control_c, 1, 64, 127
3, 52890, Note_on_c, 1, 72, 0
3, 52890, Note_on_c, 1, 76, 0
3, 52890, Note_on_c, 1, 69, 0
3, 52980, Note_on_c, 1, 69, 70
3, 52980, Note_on_c, 1, 77, 80
3, 52980, Note_on_c, 1, 72, 82
3, 52987, Control_c, 1, 64, 0
3, 53070, Control_c, 1, 64, 127
3, 53100, Note_on_c, 1, 72, 0
3, 53100, Note_on_c, 1, 77, 0
3, 53100, Note_on_c, 1, 69, 0
3, 53220, Note_on_c, 1, 74, 65
3, 53220, Note_on_c, 1, 71, 67
3, 53220, Note_on_c, 1, 67, 69
3, 53222, Control_c, 1, 64, 0
3, 53291, Control_c, 1, 64, 127
3, 53370, Note_on_c, 1, 67, 0
3, 53370, Note_on_c, 1, 71, 0
3, 53370, Note_on_c, 1, 74, 0
3, 53446, Control_c, 1, 64, 0
3, 53460, Note_on_c, 1, 72, 88
3, 53460, Note_on_c, 1, 67, 78
3, 53460, Note_on_c, 1, 76, 78
3, 53534, Control_c, 1, 64, 127
3, 53550, Note_on_c, 1, 76, 0
3, 53550, Note_on_c, 1, 67, 0
3, 53550, Note_on_c, 1, 72, 0
3, 53740, Control_c, 1, 64, 0
3, 53760, Note_on_c, 1, 69, 71
3, 53760, Note_on_c, 1, 76, 71
3, 53760, Note_on_c, 1, 72, 78
3, 53804, Control_c, 1, 64, 127
3, 53880, Note_on_c, 1, 72, 0
3, 53880, Note_on_c, 1, 76, 0
3, 53880, Note_on_c, 1, 69, 0
3, 53934, Control_c, 1, 64, 0
3, 53940, Note_on_c, 1, 72, 75
3, 53940, Note_on_c, 1, 69, 66
3, 53940, Note_on_c, 1, 77, 76
3, 53992, Control_c, 1, 64, 127
3, 54030, Note_on_c, 1, 77, 0
3, 54030, Note_on_c, 1, 69, 0
3, 54030, Note_on_c, 1, 72, 0
3, 54165, Control_c, 1, 64, 0
3, 54180, Note_on_c, 1, 67, 74
3, 54180, Note_on_c, 1, 74, 88
3, 54180, Note_on_c, 1, 71, 83
3, 54225, Control_c, 1, 64, 127
3, 54240, Note_on_c, 1, 71, 0
3, 54240, Note_on_c, 1, 74, 0
3, 54240, Note_on_c, 1, 67, 0
3, 54402, Control_c, 1, 64, 0
3, 54420, Note_on_c, 1, 76, 73
3, 54420, Note_on_c, 1, 67, 74
3, 54420, Note_on_c, 1, 72, 80
3, 54499, Control_c, 1, 64, 127
3, 54540, Note_on_c, 1, 72, 0
3, 54540, Note_on_c, 1, 67, 0
3, 54540, Note_on_c, 1, 76, 0
3, 54704, Control_c, 1, 64, 0
3, 54720, Note_on_c, 1, 76, 99
3, 54720, Note_on_c, 1, 69, 90
3, 54720, Note_on_c, 1, 72, 92
3, 54720, Note_on_c, 1, 69, 74
3, 54720, Note_on_c, 1, 76, 86
3, 54720, Note_on_c, 1, 72, 82
3, 54769, Control_c, 1, 64, 127
3, 54780, Note_on_c, 1, 72, 0
3, 54810, Note_on_c, 1, 76, 0
3, 54810, Note_on_c, 1, 69, 0
3, 54824, Control_c, 1, 64, 127
3, 54870, Note_on_c, 1, 69, 0
3, 54870, Note_on_c, 1, 76, 0
3, 54870, Note_on_c, 1, 72, 0
3, 54893, Control_c, 1, 64, 0
3, 54895, Control_c, 1, 64, 0
3, 54900, Note_on_c, 1, 77, 90
3, 54900, Note_on_c, 1, 69, 85
3, 54900, Note_on_c, 1, 72, 90
3, 54954, Control_c, 1, 64, 127
3, 55035, Control_c, 1, 64, 127
3, 55050, Note_on_c, 1, 72, 0
3, 55050, Note_on_c, 1, 69, 0
3, 55050, Note_on_c, 1, 77, 0
3, 55126, Control_c, 1, 64, 0
3, 55133, Control_c, 1, 64, 0
3, 55140, Note_on_c, 1, 71, 94
3, 55140, Note_on_c, 1, 67, 88
3, 55140, Note_on_c, 1, 74, 94
3, 55190, Control_c, 1, 64, 127
3, 55231, Control_c, 1, 64, 127
3, 55320, Note_on_c, 1, 74, 0
3, 55320, Note_on_c, 1, 67, 0
3, 55320, Note_on_c, 1, 71, 0
3, 55373, Control_c, 1, 64, 0
3, 55380, Note_on_c, 1, 76, 86
3, 55380, Note_on_c, 1, 67, 94
3, 55380, Note_on_c, 1, 72, 97
3, 55521, Control_c, 1, 64, 127
3, 55560, Note_on_c, 1, 72, 0
3, 55560, Note_on_c, 1, 67, 0
3, 55560, Note_on_c, 1, 76, 0
3, 55661, Control_c, 1, 64, 0
3, 55680, Note_on_c, 1, 69, 85
3, 55680, Note_on_c, 1, 72, 94
3, 55680, Note_on_c, 1, 76, 92
3, 55766, Control_c, 1, 64, 127
3, 55800, Note_on_c, 1, 69, 0
3, 55830, Note_on_c, 1, 76, 0
3, 55830, Note_on_c, 1, 72, 0
3, 55858, Control_c, 1, 64, 0
3, 55860, Note_on_c, 1, 69, 83
3, 55860, Note_on_c, 1, 77, 88
3, 55860, Note_on_c, 1, 74, 97
3, 56000, Control_c, 1, 64, 127
3, 56010, Note_on_c, 1, 74, 0
3, 56010, Note_on_c, 1, 77, 0
3, 56010, Note_on_c, 1, 69, 0
3, 56100, Note_on_c, 1, 74, 82
3, 56100, Note_on_c, 1, 71, 82
3, 56100, Note_on_c, 1, 67, 80
3, 56106, Control_c, 1, 64, 0
3, 56212, Control_c, 1, 64, 127
3, 56280, Note_on_c, 1, 67, 0
3, 56280, Note_on_c, 1, 71, 0
3, 56280, Note_on_c, 1, 74, 0
3, 56315, Control_c, 1, 64, 0
3, 56340, Note_on_c, 1, 76, 83
3, 56340, Note_on_c, 1, 67, 82
3, 56340, Note_on_c, 1, 72, 86
3, 56512, Control_c, 1, 64, 127
3, 56520, Note_on_c, 1, 72, 0
3, 56520, Note_on_c, 1, 76, 0
3, 56550, Note_on_c, 1, 67, 0
3, 56622, Control_c, 1, 64, 0
3, 56640, Note_on_c, 1, 69, 85
3, 56640, Note_on_c, 1, 76, 92
3, 56640, Note_on_c, 1, 72, 92
3, 56710, Control_c, 1, 64, 127
3, 56760, Note_on_c, 1, 72, 0
3, 56760, Note_on_c, 1, 76, 0
3, 56760, Note_on_c, 1, 69, 0
3, 56816, Control_c, 1, 64, 0
3, 56820, Note_on_c, 1, 69, 86
3, 56820, Note_on_c, 1, 74, 97
3, 56820, Note_on_c, 1, 77, 94
3, 56952, Control_c, 1, 64, 127
3, 56970, Note_on_c, 1, 77, 0
3, 56970, Note_on_c, 1, 69, 0
3, 57000, Note_on_c, 1, 74, 0
3, 57037, Control_c, 1, 64, 0
3, 57060, Note_on_c, 1, 67, 85
3, 57060, Note_on_c, 1, 74, 97
3, 57060, Note_on_c, 1, 71, 101
3, 57171, Control_c, 1, 64, 127
3, 57210, Note_on_c, 1, 71, 0
3, 57210, Note_on_c, 1, 67, 0
3, 57240, Note_on_c, 1, 74, 0
3, 57274, Control_c, 1, 64, 0
3, 57300, Note_on_c, 1, 72, 88
3, 57300, Note_on_c, 1, 67, 83
3, 57300, Note_on_c, 1, 76, 88
3, 57480, Control_c, 1, 64, 127
3, 57540, Note_on_c, 1, 76, 0
3, 57540, Note_on_c, 1, 67, 0
3, 57540, Note_on_c, 1, 72, 0
3, 57587, Control_c, 1, 64, 0
3, 57600, Note_on_c, 1, 69, 83
3, 57600, Note_on_c, 1, 72, 92
3, 57600, Note_on_c, 1, 76, 92
3, 57699, Control_c, 1, 64, 127
3, 57720, Note_on_c, 1, 72, 0
3, 57720, Note_on_c, 1, 69, 0
3, 57750, Note_on_c, 1, 76, 0
3, 57774, Control_c, 1, 64, 0
3, 57780, Note_on_c, 1, 74, 92
3, 57780, Note_on_c, 1, 77, 85
3, 57780, Note_on_c, 1, 69, 75
3, 57874, Control_c, 1, 64, 127
3, 57930, Note_on_c, 1, 69, 0
3, 57930, Note_on_c, 1, 77, 0
3, 57930, Note_on_c, 1, 74, 0
3, 57962, Control_c, 1, 64, 0
3, 58020, Note_on_c, 1, 74, 94
3, 58020, Note_on_c, 1, 71, 94
3, 58020, Note_on_c, 1, 67, 85
3, 58105, Control_c, 1, 64, 127
3, 58200, Note_on_c, 1, 67, 0
3, 58200, Note_on_c, 1, 71, 0
3, 58200, Note_on_c, 1, 74, 0
3, 58260, Note_on_c, 1, 76, 85
3, 58260, Note_on_c, 1, 72, 86
3, 58260, Note_on_c, 1, 67, 92
3, 58265, Control_c, 1, 64, 0
3, 58429, Control_c, 1, 64, 127
3, 58500, Note_on_c, 1, 67, 0
3, 58500, Note_on_c, 1, 72, 0
3, 58500, Note_on_c, 1, 76, 0
3, 58542, Control_c, 1, 64, 0
3, 58560, Note_on_c, 1, 76, 94
3, 58560, Note_on_c, 1, 69, 80
3, 58560, Note_on_c, 1, 72, 92
3, 58657, Control_c, 1, 64, 127
3, 58710, Note_on_c, 1, 72, 0
3, 58710, Note_on_c, 1, 69, 0
3, 58710, Note_on_c, 1, 76, 0
3, 58730, Control_c, 1, 64, 0
3, 58740, Note_on_c, 1, 69, 78
3, 58740, Note_on_c, 1, 74, 88
3, 58740, Note_on_c, 1, 77, 85
3, 58887, Control_c, 1, 64, 127
3, 58920, Note_on_c, 1, 77, 0
3, 58920, Note_on_c, 1, 74, 0
3, 58920, Note_on_c, 1, 69, 0
3, 58966, Control_c, 1, 64, 0
3, 58980, Note_on_c, 1, 74, 83
3, 58980, Note_on_c, 1, 67, 85
3, 58980, Note_on_c, 1, 71, 92
3, 59063, Control_c, 1, 64, 127
3, 59130, Note_on_c, 1, 71, 0
3, 59130, Note_on_c, 1, 67, 0
3, 59160, Note_on_c, 1, 74, 0
3, 59203, Control_c, 1, 64, 0
3, 59220, Note_on_c, 1, 67, 92
3, 59220, Note_on_c, 1, 76, 85
3, 59220, Note_on_c, 1, 72, 90
3, 59391, Control_c, 1, 64, 127
3, 59430, Note_on_c, 1, 72, 0
3, 59430, Note_on_c, 1, 76, 0
3, 59460, Note_on_c, 1, 67, 0
3, 59500, Control_c, 1, 64, 0
3, 59520, Note_on_c, 1, 76, 90
3, 59520, Note_on_c, 1, 69, 82
3, 59520, Note_on_c, 1, 72, 97
3, 59624, Control_c, 1, 64, 127
3, 59670, Note_on_c, 1, 72, 0
3, 59670, Note_on_c, 1, 69, 0
3, 59670, Note_on_c, 1, 76, 0
3, 59700, Note_on_c, 1, 69, 73
3, 59700, Note_on_c, 1, 74, 83
3, 59700, Note_on_c, 1, 77, 79
3, 59704, Control_c, 1, 64, 0
3, 59785, Control_c, 1, 64, 127
3, 59850, Note_on_c, 1, 77, 0
3, 59850, Note_on_c, 1, 74, 0
3, 59850, Note_on_c, 1, 69, 0
3, 59934, Control_c, 1, 64, 0
3, 59940, Note_on_c, 1, 67, 86
3, 59940, Note_on_c, 1, 74, 92
3, 59940, Note_on_c, 1, 71, 97
3, 60016, Control_c, 1, 64, 127
3, 60090, Note_on_c, 1, 71, 0
3, 60090, Note_on_c, 1, 67, 0
3, 60120, Note_on_c, 1, 74, 0
3, 60174, Control_c, 1, 64, 0
3, 60180, Note_on_c, 1, 76, 83
3, 60180, Note_on_c, 1, 67, 88
3, 60180, Note_on_c, 1, 72, 92
3, 60273, Control_c, 1, 64, 127
3, 60304, Control_c, 1, 64, 0
3, 60392, Control_c, 1, 64, 127
3, 60420, Note_on_c, 1, 72, 0
3, 60420, Note_on_c, 1, 67, 0
3, 60420, Note_on_c, 1, 76, 0
3, 60474, Control_c, 1, 64, 0
3, 60480, Note_on_c, 1, 76, 88
3, 60480, Note_on_c, 1, 72, 88
3, 60480, Note_on_c, 1, 69, 82
3, 60574, Control_c, 1, 64, 127
3, 60630, Note_on_c, 1, 69, 0
3, 60630, Note_on_c, 1, 72, 0
3, 60630, Note_on_c, 1, 76, 0
3, 60660, Note_on_c, 1, 69, 85
3, 60660, Note_on_c, 1, 77, 83
3, 60660, Note_on_c, 1, 74, 94
3, 60662, Control_c, 1, 64, 0
3, 60784, Control_c, 1, 64, 127
3, 60840, Note_on_c, 1, 74, 0
3, 60840, Note_on_c, 1, 77, 0
3, 60840, Note_on_c, 1, 69, 0
3, 60889, Control_c, 1, 64, 0
3, 60900, Note_on_c, 1, 71, 94
3, 60900, Note_on_c, 1, 74, 90
3, 60900, Note_on_c, 1, 67, 86
3, 60990, Control_c, 1, 64, 127
3, 61050, Note_on_c, 1, 67, 0
3, 61050, Note_on_c, 1, 71, 0
3, 61080, Note_on_c, 1, 74, 0
3, 61132, Control_c, 1, 64, 0
3, 61140, Note_on_c, 1, 76, 90
3, 61140, Note_on_c, 1, 67, 82
3, 61140, Note_on_c, 1, 72, 90
3, 61320, Control_c, 1, 64, 127
3, 61380, Note_on_c, 1, 72, 0
3, 61380, Note_on_c, 1, 67, 0
3, 61380, Note_on_c, 1, 76, 0
3, 61411, Control_c, 1, 64, 0
3, 61440, Note_on_c, 1, 76, 82
3, 61440, Note_on_c, 1, 72, 85
3, 61440, Note_on_c, 1, 69, 74
3, 61532, Control_c, 1, 64, 127
3, 61560, Note_on_c, 1, 69, 0
3, 61590, Note_on_c, 1, 72, 0
3, 61590, Note_on_c, 1, 76, 0
3, 61620, Note_on_c, 1, 77, 86
3, 61620, Note_on_c, 1, 74, 92
3, 61620, Note_on_c, 1, 69, 75
3, 61629, Control_c, 1, 64, 0
3, 61797, Control_c, 1, 64, 127
3, 61830, Note_on_c, 1, 69, 0
3, 61830, Note_on_c, 1, 74, 0
3, 61830, Note_on_c, 1, 77, 0
3, 61860, Control_c, 1, 64, 0
3, 61860, Note_on_c, 1, 74, 85
3, 61860, Note_on_c, 1, 67, 86
3, 61860, Note_on_c, 1, 71, 90
3, 62002, Control_c, 1, 64, 127
3, 62040, Note_on_c, 1, 71, 0
3, 62040, Note_on_c, 1, 67, 0
3, 62040, Note_on_c, 1, 74, 0
3, 62090, Control_c, 1, 64, 0
3, 62100, Note_on_c, 1, 67, 92
3, 62100, Note_on_c, 1, 72, 80
3, 62100, Note_on_c, 1, 76, 61
3, 62272, Control_c, 1, 64, 127
3, 62310, Note_on_c, 1, 72, 0
3, 62340, Note_on_c, 1, 76, 0
3, 62340, Note_on_c, 1, 67, 0
3, 62363, Control_c, 1, 64, 0
3, 62400, Control_c, 1, 7, 79
3, 62400, Note_on_c, 1, 76, 90
3, 62400, Note_on_c, 1, 72, 92
3, 62400, Note_on_c, 1, 69, 83
3, 62440, Control_c, 1, 7, 78
3, 62480, Control_c, 1, 7, 77
3, 62497, Control_c, 1, 64, 127
3, 62510, Control_c, 1, 7, 76
3, 62520, Note_on_c, 1, 69, 0
3, 62550, Note_on_c, 1, 72, 0
3, 62550, Note_on_c, 1, 76, 0
3, 62550, Control_c, 1, 7, 75
3, 62580, Note_on_c, 1, 74, 85
3, 62580, Note_on_c, 1, 77, 83
3, 62580, Note_on_c, 1, 69, 73
3, 62588, Control_c, 1, 64, 0
3, 62590, Control_c, 1, 7, 74
3, 62620, Control_c, 1, 7, 73
3, 62660, Control_c, 1, 7, 72
3, 62700, Control_c, 1, 7, 71
3, 62730, Control_c, 1, 7, 70
3, 62758, Control_c, 1, 64, 127
3, 62770, Control_c, 1, 7, 69
3, 62790, Note_on_c, 1, 69, 0
3, 62790, Note_on_c, 1, 77, 0
3, 62790, Note_on_c, 1, 74, 0
3, 62800, Control_c, 1, 7, 68
3, 62820, Note_on_c, 1, 71, 85
3, 62820, Note_on_c, 1, 74, 82
3, 62820, Note_on_c, 1, 67, 88
3, 62827, Control_c, 1, 64, 0
3, 62840, Control_c, 1, 7, 67
3, 62880, Control_c, 1, 7, 66
3, 62910, Control_c, 1, 7, 65
3, 62943, Control_c, 1, 64, 127
3, 62950, Control_c, 1, 7, 64
3, 62990, Control_c, 1, 7, 63
3, 63000, Note_on_c, 1, 67, 0
3, 63000, Note_on_c, 1, 71, 0
3, 63020, Control_c, 1, 7, 62
3, 63030, Note_on_c, 1, 74, 0
3, 63058, Control_c, 1, 64, 0
3, 63060, Control_c, 1, 7, 61
3, 63060, Note_on_c, 1, 67, 86
3, 63060, Note_on_c, 1, 76, 85
3, 63060, Note_on_c, 1, 72, 90
3, 63100, Control_c, 1, 7, 60
3, 63130, Control_c, 1, 7, 59
3, 63170, Control_c, 1, 7, 58
3, 63200, Control_c, 1, 7, 57
3, 63240, Control_c, 1, 7, 56
3, 63240, Control_c, 1, 64, 127
3, 63280, Control_c, 1, 7, 55
3, 63300, Note_on_c, 1, 72, 0
3, 63300, Note_on_c, 1, 76, 0
3, 63300, Note_on_c, 1, 67, 0
3, 63310, Control_c, 1, 7, 54
3, 63343, Control_c, 1, 64, 0
3, 63350, Control_c, 1, 7, 53
3, 63360, Note_on_c, 1, 69, 73
3, 63360, Note_on_c, 1, 72, 86
3, 63360, Note_on_c, 1, 76, 85
3, 63390, Control_c, 1, 7, 52
3, 63420, Control_c, 1, 7, 51
3, 63450, Control_c, 1, 64, 127
3, 63460, Control_c, 1, 7, 50
3, 63490, Control_c, 1, 7, 49
3, 63510, Note_on_c, 1, 76, 0
3, 63510, Note_on_c, 1, 72, 0
3, 63510, Note_on_c, 1, 69, 0
3, 63530, Control_c, 1, 7, 48
3, 63540, Note_on_c, 1, 74, 79
3, 63540, Note_on_c, 1, 77, 82
3, 63540, Note_on_c, 1, 69, 74
3, 63541, Control_c, 1, 64, 0
3, 63570, Control_c, 1, 7, 47
3, 63600, Control_c, 1, 7, 46
3, 63640, Control_c, 1, 7, 45
3, 63680, Control_c, 1, 7, 44
3, 63710, Control_c, 1, 7, 43
3, 63719, Control_c, 1, 64, 127
3, 63720, Note_on_c, 1, 69, 0
3, 63720, Note_on_c, 1, 77, 0
3, 63750, Note_on_c, 1, 74, 0
3, 63750, Control_c, 1, 7, 42
3, 63780, Note_on_c, 1, 74, 86
3, 63780, Note_on_c, 1, 71, 85
3, 63780, Note_on_c, 1, 67, 88
3, 63789, Control_c, 1, 64, 0
3, 63790, Control_c, 1, 7, 41
3, 63820, Control_c, 1, 7, 40
3, 63860, Control_c, 1, 7, 39
3, 63890, Control_c, 1, 7, 38
3, 63902, Control_c, 1, 64, 127
3, 63930, Note_on_c, 1, 71, 0
3, 63930, Control_c, 1, 7, 37
3, 63960, Note_on_c, 1, 67, 0
3, 63960, Note_on_c, 1, 74, 0
3, 63970, Control_c, 1, 7, 36
3, 64000, Control_c, 1, 7, 35
3, 64013, Control_c, 1, 64, 0
3, 64020, Note_on_c, 1, 76, 86
3, 64020, Note_on_c, 1, 72, 86
3, 64020, Note_on_c, 1, 67, 82
3, 64040, Control_c, 1, 7, 34
3, 64080, Control_c, 1, 7, 33
3, 64110, Control_c, 1, 7, 32
3, 64150, Control_c, 1, 7, 31
3, 64184, Control_c, 1, 64, 127
3, 64190, Control_c, 1, 7, 30
3, 64220, Control_c, 1, 7, 29
3, 64230, Note_on_c, 1, 67, 0
3, 64260, Note_on_c, 1, 72, 0
3, 64260, Note_on_c, 1, 76, 0
3, 64260, Control_c, 1, 7, 28
3, 64290, Control_c, 1, 7, 27
3, 64314, Control_c, 1, 64, 0
3, 64320, Note_on_c, 1, 76, 88
3, 64320, Note_on_c, 1, 69, 79
3, 64320, Note_on_c, 1, 72, 88
3, 64330, Control_c, 1, 7, 26
3, 64370, Control_c, 1, 7, 25
3, 64400, Control_c, 1, 7, 24
3, 64420, Control_c, 1, 64, 127
3, 64440, Control_c, 1, 7, 23
3, 64470, Note_on_c, 1, 72, 0
3, 64470, Note_on_c, 1, 69, 0
3, 64470, Note_on_c, 1, 76, 0
3, 64471, Control_c, 1, 64, 0
3, 64480, Control_c, 1, 7, 22
3, 64500, Note_on_c, 1, 74, 72
3, 64500, Note_on_c, 1, 69, 71
3, 64500, Note_on_c, 1, 77, 78
3, 64510, Control_c, 1, 7, 21
3, 64550, Control_c, 1, 7, 20
3, 64580, Control_c, 1, 7, 19
3, 64599, Control_c, 1, 64, 127
3, 64620, Control_c, 1, 7, 18
3, 64660, Control_c, 1, 7, 17
3, 64680, Note_on_c, 1, 77, 0
3, 64680, Note_on_c, 1, 69, 0
3, 64680, Note_on_c, 1, 74, 0
3, 64690, Control_c, 1, 7, 16
3, 64730, Control_c, 1, 7, 15
3, 64733, Control_c, 1, 64, 0
3, 64740, Note_on_c, 1, 67, 78
3, 64740, Note_on_c, 1, 74, 85
3, 64740, Note_on_c, 1, 71, 83
3, 64770, Control_c, 1, 7, 14
3, 64800, Control_c, 1, 7, 13
3, 64821, Control_c, 1, 64, 127
3, 64840, Control_c, 1, 7, 12
3, 64880, Control_c, 1, 7, 11
3, 64890, Note_on_c, 1, 71, 0
3, 64910, Control_c, 1, 7, 10
3, 64920, Note_on_c, 1, 74, 0
3, 64920, Note_on_c, 1, 67, 0
3, 64950, Control_c, 1, 7, 9
3, 64969, Control_c, 1, 64, 0
3, 64980, Control_c, 1, 7, 8
3, 64980, Note_on_c, 1, 67, 66
3, 64980, Note_on_c, 1, 76, 86
3, 64980, Note_on_c, 1, 72, 83
3, 65020, Control_c, 1, 7, 7
3, 65060, Control_c, 1, 7, 6
3, 65090, Control_c, 1, 7, 5
3, 65130, Control_c, 1, 7, 4
3, 65151, Control_c, 1, 64, 127
3, 65170, Control_c, 1, 7, 3
3, 65190, Note_on_c, 1, 72, 0
3, 65190, Note_on_c, 1, 76, 0
3, 65190, Note_on_c, 1, 67, 0
3, 65200, Control_c, 1, 7, 2
3, 65240, Control_c, 1, 7, 1
3, 65270, Control_c, 1, 7, 0
3, 65270, End_track
4, 0, Start_track
4, 0, MIDI_port, 0
4, 0, Title_t, "Pad 7 (halo)"
4, 0, Control_c, 2, 0, 56
4, 0, Control_c, 2, 32, 0
4, 0, Program_c, 2, 94
4, 0, Control_c, 2, 7, 90
4, 0, Control_c, 2, 10, 50
4, 960, Control_c, 2, 64, 127
4, 1200, Control_c, 2, 64, 0
4, 1260, Note_on_c, 2, 65, 66
4, 1350, Note_on_c, 2, 65, 0
4, 1380, Note_on_c, 2, 63, 96
4, 1500, Note_on_c, 2, 63, 0
4, 3180, Note_on_c, 2, 65, 92
4, 3240, Note_on_c, 2, 65, 0
4, 3300, Note_on_c, 2, 63, 84
4, 3390, Note_on_c, 2, 63, 0
4, 5100, Note_on_c, 2, 65, 90
4, 5160, Note_on_c, 2, 65, 0
4, 5220, Note_on_c, 2, 63, 86
4, 5310, Note_on_c, 2, 63, 0
4, 7020, Note_on_c, 2, 65, 82
4, 7080, Note_on_c, 2, 65, 0
4, 7140, Note_on_c, 2, 63, 89
4, 7230, Note_on_c, 2, 63, 0
4, 8288, Control_c, 2, 64, 127
4, 8940, Note_on_c, 2, 65, 69
4, 8970, Note_on_c, 2, 65, 0
4, 9060, Note_on_c, 2, 63, 62
4, 9090, Note_on_c, 2, 63, 0
4, 9109, Control_c, 2, 64, 0
4, 9127, Control_c, 2, 64, 127
4, 9907, Control_c, 2, 64, 0
4, 9992, Control_c, 2, 64, 127
4, 10182, Control_c, 2, 64, 0
4, 10860, Note_on_c, 2, 65, 85
4, 10920, Note_on_c, 2, 65, 0
4, 10980, Note_on_c, 2, 63, 79
4, 11100, Note_on_c, 2, 63, 0
4, 14510, Control_c, 2, 93, 51
4, 14550, Control_c, 2, 93, 53
4, 14570, Control_c, 2, 93, 52
4, 14575, Control_c, 2, 93, 54
4, 14580, Control_c, 2, 93, 63
4, 14590, Control_c, 2, 93, 68
4, 14595, Control_c, 2, 93, 73
4, 14620, Control_c, 2, 93, 78
4, 14625, Control_c, 2, 93, 80
4, 14630, Control_c, 2, 93, 84
4, 14650, Control_c, 2, 93, 88
4, 14670, Control_c, 2, 93, 91
4, 21980, Control_c, 2, 93, 93
4, 22031, Control_c, 2, 93, 96
4, 22050, Control_c, 2, 93, 99
4, 22055, Control_c, 2, 93, 102
4, 22070, Control_c, 2, 93, 105
4, 22073, Control_c, 2, 93, 108
4, 22080, Control_c, 2, 64, 127
4, 22084, Control_c, 2, 93, 111
4, 22130, Control_c, 2, 93, 110
4, 22190, Control_c, 2, 93, 108
4, 22230, Control_c, 2, 93, 105
4, 22265, Control_c, 2, 93, 103
4, 22270, Control_c, 2, 93, 101
4, 22320, Control_c, 2, 64, 0
4, 22380, Note_on_c, 2, 65, 66
4, 22470, Note_on_c, 2, 65, 0
4, 22500, Note_on_c, 2, 63, 96
4, 22620, Note_on_c, 2, 63, 0
4, 24300, Note_on_c, 2, 65, 92
4, 24360, Note_on_c, 2, 65, 0
4, 24420, Note_on_c, 2, 63, 84
4, 24510, Note_on_c, 2, 63, 0
4, 26220, Note_on_c, 2, 65, 90
4, 26280, Note_on_c, 2, 65, 0
4, 26340, Note_on_c, 2, 63, 86
4, 26430, Note_on_c, 2, 63, 0
4, 28140, Note_on_c, 2, 65, 82
4, 28200, Note_on_c, 2, 65, 0
4, 28260, Note_on_c, 2, 63, 89
4, 28350, Note_on_c, 2, 63, 0
4, 29408, Control_c, 2, 64, 127
4, 30060, Note_on_c, 2, 65, 69
4, 30090, Note_on_c, 2, 65, 0
4, 30180, Note_on_c, 2, 63, 62
4, 30210, Note_on_c, 2, 63, 0
4, 30229, Control_c, 2, 64, 0
4, 30247, Control_c, 2, 64, 127
4, 31027, Control_c, 2, 64, 0
4, 31112, Control_c, 2, 64, 127
4, 31302, Control_c, 2, 64, 0
4, 31980, Note_on_c, 2, 65, 85
4, 32040, Note_on_c, 2, 65, 0
4, 32100, Note_on_c, 2, 63, 79
4, 32220, Note_on_c, 2, 63, 0
4, 42540, Note_on_c, 2, 60, 97
4, 42630, Note_on_c, 2, 60, 0
4, 42660, Note_on_c, 2, 58, 109
4, 42780, Note_on_c, 2, 58, 0
4, 44460, Note_on_c, 2, 60, 120
4, 44550, Note_on_c, 2, 60, 0
4, 44580, Note_on_c, 2, 58, 119
4, 44670, Note_on_c, 2, 58, 0
4, 46380, Note_on_c, 2, 60, 125
4, 46470, Note_on_c, 2, 60, 0
4, 46470, Note_on_c, 2, 58, 89
4, 46590, Note_on_c, 2, 58, 0
4, 46590, End_track
5, 0, Start_track
5, 0, MIDI_port, 0
5, 0, Title_t, "Pad 3 (polysynth)"
5, 0, Control_c, 3, 0, 56
5, 0, Control_c, 3, 32, 0
5, 0, Program_c, 3, 90
5, 0, Control_c, 3, 7, 127
5, 0, Control_c, 3, 10, 63
5, 1440, Control_c, 3, 64, 127
5, 1680, Control_c, 3, 64, 0
5, 1680, Note_on_c, 3, 70, 54
5, 1784, Control_c, 3, 64, 127
5, 1858, Pitch_bend_c, 3, 8031
5, 1859, Pitch_bend_c, 3, 7902
5, 1862, Pitch_bend_c, 3, 7742
5, 1864, Pitch_bend_c, 3, 7613
5, 1866, Pitch_bend_c, 3, 7485
5, 1868, Pitch_bend_c, 3, 7356
5, 1869, Pitch_bend_c, 3, 7228
5, 1872, Pitch_bend_c, 3, 7131
5, 1874, Pitch_bend_c, 3, 6971
5, 1875, Pitch_bend_c, 3, 6842
5, 1877, Pitch_bend_c, 3, 6810
5, 1880, Pitch_bend_c, 3, 6682
5, 1882, Pitch_bend_c, 3, 6521
5, 1884, Pitch_bend_c, 3, 6425
5, 1887, Pitch_bend_c, 3, 6328
5, 1889, Pitch_bend_c, 3, 6135
5, 1891, Pitch_bend_c, 3, 6007
5, 1893, Pitch_bend_c, 3, 5911
5, 1895, Pitch_bend_c, 3, 5718
5, 1897, Pitch_bend_c, 3, 5589
5, 1899, Pitch_bend_c, 3, 5493
5, 1901, Pitch_bend_c, 3, 5364
5, 1903, Pitch_bend_c, 3, 5236
5, 1906, Pitch_bend_c, 3, 5107
5, 1907, Pitch_bend_c, 3, 4947
5, 1909, Pitch_bend_c, 3, 4818
5, 1911, Pitch_bend_c, 3, 4690
5, 1913, Pitch_bend_c, 3, 4593
5, 1916, Pitch_bend_c, 3, 4465
5, 1918, Pitch_bend_c, 3, 4336
5, 1920, Pitch_bend_c, 3, 4208
5, 1922, Pitch_bend_c, 3, 4015
5, 1924, Pitch_bend_c, 3, 3887
5, 1926, Pitch_bend_c, 3, 3790
5, 1928, Pitch_bend_c, 3, 3694
5, 1930, Pitch_bend_c, 3, 3565
5, 1933, Pitch_bend_c, 3, 3437
5, 1935, Pitch_bend_c, 3, 3341
5, 1937, Pitch_bend_c, 3, 3276
5, 1938, Pitch_bend_c, 3, 3180
5, 1941, Pitch_bend_c, 3, 3116
5, 1943, Pitch_bend_c, 3, 3051
5, 1945, Pitch_bend_c, 3, 2987
5, 1947, Pitch_bend_c, 3, 2955
5, 1949, Pitch_bend_c, 3, 2891
5, 1951, Pitch_bend_c, 3, 2794
5, 1953, Pitch_bend_c, 3, 2762
5, 1955, Pitch_bend_c, 3, 2666
5, 1958, Pitch_bend_c, 3, 2602
5, 1960, Pitch_bend_c, 3, 2537
5, 1962, Pitch_bend_c, 3, 2473
5, 1966, Pitch_bend_c, 3, 2409
5, 1968, Pitch_bend_c, 3, 2280
5, 1970, Pitch_bend_c, 3, 2152
5, 1972, Pitch_bend_c, 3, 2088
5, 1973, Pitch_bend_c, 3, 1959
5, 1976, Pitch_bend_c, 3, 1831
5, 1978, Pitch_bend_c, 3, 1702
5, 1980, Pitch_bend_c, 3, 1509
5, 1983, Pitch_bend_c, 3, 1317
5, 1984, Pitch_bend_c, 3, 1188
5, 1987, Pitch_bend_c, 3, 1060
5, 1989, Pitch_bend_c, 3, 867
5, 1991, Pitch_bend_c, 3, 674
5, 1993, Pitch_bend_c, 3, 610
5, 1995, Pitch_bend_c, 3, 481
5, 1997, Pitch_bend_c, 3, 353
5, 1999, Pitch_bend_c, 3, 224
5, 2000, Pitch_bend_c, 3, 160
5, 2003, Pitch_bend_c, 3, 32
5, 2005, Pitch_bend_c, 3, 0
5, 2048, Control_c, 3, 64, 0
5, 2120, Control_c, 3, 64, 127
5, 2324, Note_on_c, 3, 70, 0
5, 2635, Note_on_c, 3, 58, 55
5, 2669, Control_c, 3, 64, 0
5, 2745, Control_c, 3, 64, 127
5, 2817, Pitch_bend_c, 3, 96
5, 2819, Pitch_bend_c, 3, 353
5, 2820, Pitch_bend_c, 3, 610
5, 2823, Pitch_bend_c, 3, 867
5, 2825, Pitch_bend_c, 3, 1188
5, 2826, Pitch_bend_c, 3, 1509
5, 2829, Pitch_bend_c, 3, 1766
5, 2831, Pitch_bend_c, 3, 2023
5, 2833, Pitch_bend_c, 3, 2280
5, 2834, Pitch_bend_c, 3, 2602
5, 2837, Pitch_bend_c, 3, 2762
5, 2839, Control_c, 3, 64, 0
5, 2839, Pitch_bend_c, 3, 2955
5, 2841, Pitch_bend_c, 3, 3116
5, 2843, Pitch_bend_c, 3, 3244
5, 2846, Pitch_bend_c, 3, 3437
5, 2848, Pitch_bend_c, 3, 3598
5, 2850, Pitch_bend_c, 3, 3758
5, 2851, Pitch_bend_c, 3, 3855
5, 2854, Pitch_bend_c, 3, 3983
5, 2856, Pitch_bend_c, 3, 4144
5, 2858, Pitch_bend_c, 3, 4272
5, 2860, Pitch_bend_c, 3, 4401
5, 2862, Pitch_bend_c, 3, 4497
5, 2864, Pitch_bend_c, 3, 4593
5, 2866, Pitch_bend_c, 3, 4722
5, 2868, Pitch_bend_c, 3, 4883
5, 2870, Pitch_bend_c, 3, 4979
5, 2873, Pitch_bend_c, 3, 5075
5, 2875, Pitch_bend_c, 3, 5204
5, 2877, Pitch_bend_c, 3, 5268
5, 2878, Pitch_bend_c, 3, 5364
5, 2881, Pitch_bend_c, 3, 5525
5, 2883, Pitch_bend_c, 3, 5557
5, 2885, Pitch_bend_c, 3, 5654
5, 2887, Pitch_bend_c, 3, 5782
5, 2890, Pitch_bend_c, 3, 5846
5, 2891, Pitch_bend_c, 3, 5943
5, 2893, Pitch_bend_c, 3, 6007
5, 2895, Pitch_bend_c, 3, 6103
5, 2898, Pitch_bend_c, 3, 6135
5, 2900, Pitch_bend_c, 3, 6232
5, 2902, Pitch_bend_c, 3, 6328
5, 2904, Pitch_bend_c, 3, 6425
5, 2906, Pitch_bend_c, 3, 6521
5, 2908, Pitch_bend_c, 3, 6585
5, 2910, Pitch_bend_c, 3, 6714
5, 2912, Pitch_bend_c, 3, 6810
5, 2914, Pitch_bend_c, 3, 6939
5, 2917, Pitch_bend_c, 3, 7067
5, 2919, Pitch_bend_c, 3, 7131
5, 2921, Pitch_bend_c, 3, 7228
5, 2922, Pitch_bend_c, 3, 7356
5, 2925, Pitch_bend_c, 3, 7453
5, 2927, Pitch_bend_c, 3, 7549
5, 2929, Pitch_bend_c, 3, 7613
5, 2931, Pitch_bend_c, 3, 7710
5, 2933, Pitch_bend_c, 3, 7742
5, 2935, Pitch_bend_c, 3, 7806
5, 2937, Pitch_bend_c, 3, 7870
5, 2939, Pitch_bend_c, 3, 7934
5, 2942, Pitch_bend_c, 3, 7967
5, 2944, Pitch_bend_c, 3, 7999
5, 2946, Pitch_bend_c, 3, 8063
5, 2947, Pitch_bend_c, 3, 8192
5, 3065, Control_c, 3, 1, 1
5, 3066, Control_c, 3, 1, 7
5, 3067, Control_c, 3, 1, 12
5, 3067, Control_c, 3, 1, 18
5, 3069, Control_c, 3, 1, 23
5, 3070, Control_c, 3, 1, 29
5, 3071, Control_c, 3, 1, 34
5, 3072, Control_c, 3, 1, 38
5, 3073, Control_c, 3, 1, 43
5, 3074, Control_c, 3, 1, 49
5, 3075, Control_c, 3, 1, 54
5, 3076, Control_c, 3, 1, 60
5, 3076, Control_c, 3, 1, 65
5, 3078, Control_c, 3, 1, 72
5, 3079, Control_c, 3, 1, 78
5, 3080, Control_c, 3, 1, 84
5, 3081, Control_c, 3, 1, 91
5, 3082, Control_c, 3, 1, 101
5, 3083, Control_c, 3, 1, 109
5, 3084, Control_c, 3, 1, 119
5, 3086, Control_c, 3, 1, 125
5, 3087, Control_c, 3, 1, 127
5, 3136, Control_c, 3, 1, 117
5, 3136, Control_c, 3, 1, 101
5, 3137, Control_c, 3, 1, 85
5, 3139, Control_c, 3, 1, 76
5, 3140, Control_c, 3, 1, 66
5, 3141, Control_c, 3, 1, 57
5, 3142, Control_c, 3, 1, 48
5, 3143, Control_c, 3, 1, 40
5, 3144, Control_c, 3, 1, 33
5, 3145, Control_c, 3, 1, 26
5, 3146, Control_c, 3, 1, 20
5, 3146, Control_c, 3, 1, 14
5, 3147, Control_c, 3, 1, 9
5, 3149, Control_c, 3, 1, 5
5, 3150, Control_c, 3, 1, 2
5, 3151, Control_c, 3, 1, 0
5, 3218, Control_c, 3, 64, 127
5, 3322, Note_on_c, 3, 58, 0
5, 3600, Note_on_c, 3, 70, 66
5, 3626, Control_c, 3, 64, 0
5, 3635, Control_c, 3, 64, 127
5, 3758, Control_c, 3, 64, 0
5, 3761, Pitch_bend_c, 3, 7999
5, 3763, Pitch_bend_c, 3, 7902
5, 3765, Pitch_bend_c, 3, 7774
5, 3767, Pitch_bend_c, 3, 7645
5, 3770, Pitch_bend_c, 3, 7485
5, 3773, Pitch_bend_c, 3, 7356
5, 3775, Pitch_bend_c, 3, 7292
5, 3777, Pitch_bend_c, 3, 7196
5, 3780, Pitch_bend_c, 3, 7131
5, 3782, Pitch_bend_c, 3, 7003
5, 3783, Pitch_bend_c, 3, 6874
5, 3785, Pitch_bend_c, 3, 6810
5, 3787, Pitch_bend_c, 3, 6714
5, 3790, Pitch_bend_c, 3, 6521
5, 3792, Pitch_bend_c, 3, 6392
5, 3794, Pitch_bend_c, 3, 6296
5, 3795, Pitch_bend_c, 3, 6103
5, 3798, Pitch_bend_c, 3, 5943
5, 3800, Pitch_bend_c, 3, 5814
5, 3802, Pitch_bend_c, 3, 5621
5, 3804, Pitch_bend_c, 3, 5493
5, 3807, Pitch_bend_c, 3, 5332
5, 3809, Pitch_bend_c, 3, 5236
5, 3811, Pitch_bend_c, 3, 5043
5, 3812, Pitch_bend_c, 3, 4883
5, 3814, Pitch_bend_c, 3, 4722
5, 3817, Pitch_bend_c, 3, 4593
5, 3819, Pitch_bend_c, 3, 4433
5, 3820, Pitch_bend_c, 3, 4304
5, 3822, Pitch_bend_c, 3, 4079
5, 3825, Pitch_bend_c, 3, 3887
5, 3827, Pitch_bend_c, 3, 3758
5, 3829, Pitch_bend_c, 3, 3533
5, 3831, Pitch_bend_c, 3, 3405
5, 3833, Pitch_bend_c, 3, 3244
5, 3836, Pitch_bend_c, 3, 3051
5, 3838, Pitch_bend_c, 3, 2955
5, 3840, Pitch_bend_c, 3, 2762
5, 3842, Pitch_bend_c, 3, 2473
5, 3844, Pitch_bend_c, 3, 2280
5, 3846, Pitch_bend_c, 3, 2023
5, 3848, Pitch_bend_c, 3, 1831
5, 3850, Pitch_bend_c, 3, 1574
5, 3852, Pitch_bend_c, 3, 1252
5, 3854, Pitch_bend_c, 3, 1124
5, 3856, Pitch_bend_c, 3, 931
5, 3858, Pitch_bend_c, 3, 738
5, 3861, Pitch_bend_c, 3, 674
5, 3863, Pitch_bend_c, 3, 546
5, 3865, Pitch_bend_c, 3, 353
5, 3866, Pitch_bend_c, 3, 289
5, 3869, Pitch_bend_c, 3, 160
5, 3871, Pitch_bend_c, 3, 96
5, 3873, Pitch_bend_c, 3, 32
5, 3874, Pitch_bend_c, 3, 0
5, 4191, Control_c, 3, 64, 127
5, 4354, Note_on_c, 3, 70, 0
5, 4566, Note_on_c, 3, 58, 69
5, 4647, Control_c, 3, 64, 0
5, 4759, Pitch_bend_c, 3, 160
5, 4761, Pitch_bend_c, 3, 353
5, 4763, Pitch_bend_c, 3, 546
5, 4766, Pitch_bend_c, 3, 738
5, 4767, Pitch_bend_c, 3, 995
5, 4769, Pitch_bend_c, 3, 1252
5, 4771, Pitch_bend_c, 3, 1509
5, 4773, Pitch_bend_c, 3, 1766
5, 4776, Pitch_bend_c, 3, 2023
5, 4778, Pitch_bend_c, 3, 2216
5, 4779, Pitch_bend_c, 3, 2473
5, 4782, Pitch_bend_c, 3, 2602
5, 4784, Pitch_bend_c, 3, 2794
5, 4786, Pitch_bend_c, 3, 2955
5, 4788, Pitch_bend_c, 3, 3051
5, 4791, Pitch_bend_c, 3, 3116
5, 4793, Pitch_bend_c, 3, 3180
5, 4795, Pitch_bend_c, 3, 3244
5, 4796, Pitch_bend_c, 3, 3276
5, 4798, Pitch_bend_c, 3, 3341
5, 4800, Pitch_bend_c, 3, 3405
5, 4803, Pitch_bend_c, 3, 3437
5, 4805, Pitch_bend_c, 3, 3501
5, 4807, Pitch_bend_c, 3, 3565
5, 4809, Pitch_bend_c, 3, 3598
5, 4813, Pitch_bend_c, 3, 3662
5, 4815, Pitch_bend_c, 3, 3726
5, 4818, Pitch_bend_c, 3, 3790
5, 4820, Pitch_bend_c, 3, 3822
5, 4822, Pitch_bend_c, 3, 3887
5, 4824, Pitch_bend_c, 3, 3919
5, 4825, Pitch_bend_c, 3, 4015
5, 4828, Pitch_bend_c, 3, 4144
5, 4830, Pitch_bend_c, 3, 4240
5, 4832, Pitch_bend_c, 3, 4304
5, 4834, Pitch_bend_c, 3, 4401
5, 4836, Pitch_bend_c, 3, 4433
5, 4838, Pitch_bend_c, 3, 4497
5, 4840, Pitch_bend_c, 3, 4593
5, 4843, Pitch_bend_c, 3, 4626
5, 4844, Pitch_bend_c, 3, 4658
5, 4847, Pitch_bend_c, 3, 4690
5, 4849, Pitch_bend_c, 3, 4722
5, 4850, Pitch_bend_c, 3, 4754
5, 4853, Pitch_bend_c, 3, 4818
5, 4855, Pitch_bend_c, 3, 4850
5, 4859, Pitch_bend_c, 3, 4915
5, 4860, Pitch_bend_c, 3, 4979
5, 4863, Pitch_bend_c, 3, 5043
5, 4867, Pitch_bend_c, 3, 5107
5, 4872, Pitch_bend_c, 3, 5172
5, 4874, Pitch_bend_c, 3, 5204
5, 4876, Pitch_bend_c, 3, 5268
5, 4877, Pitch_bend_c, 3, 5300
5, 4880, Pitch_bend_c, 3, 5364
5, 4882, Pitch_bend_c, 3, 5397
5, 4884, Pitch_bend_c, 3, 5461
5, 4886, Pitch_bend_c, 3, 5493
5, 4888, Pitch_bend_c, 3, 5557
5, 4890, Pitch_bend_c, 3, 5621
5, 4892, Pitch_bend_c, 3, 5686
5, 4894, Pitch_bend_c, 3, 5814
5, 4896, Pitch_bend_c, 3, 5878
5, 4899, Pitch_bend_c, 3, 5943
5, 4901, Pitch_bend_c, 3, 6071
5, 4903, Pitch_bend_c, 3, 6103
5, 4905, Pitch_bend_c, 3, 6135
5, 4907, Pitch_bend_c, 3, 6200
5, 4909, Pitch_bend_c, 3, 6264
5, 4911, Pitch_bend_c, 3, 6328
5, 4916, Pitch_bend_c, 3, 6392
5, 4919, Pitch_bend_c, 3, 6457
5, 4923, Pitch_bend_c, 3, 6489
5, 4926, Pitch_bend_c, 3, 6521
5, 4928, Pitch_bend_c, 3, 6553
5, 4932, Pitch_bend_c, 3, 6617
5, 4934, Pitch_bend_c, 3, 6649
5, 4936, Pitch_bend_c, 3, 6682
5, 4938, Pitch_bend_c, 3, 6746
5, 4945, Pitch_bend_c, 3, 6810
5, 4947, Pitch_bend_c, 3, 6874
5, 4948, Pitch_bend_c, 3, 6939
5, 4951, Pitch_bend_c, 3, 6971
5, 4953, Pitch_bend_c, 3, 7035
5, 4955, Pitch_bend_c, 3, 7099
5, 4956, Pitch_bend_c, 3, 7163
5, 4959, Pitch_bend_c, 3, 7196
5, 4961, Pitch_bend_c, 3, 7292
5, 4963, Pitch_bend_c, 3, 7356
5, 4965, Pitch_bend_c, 3, 7420
5, 4967, Pitch_bend_c, 3, 7485
5, 4970, Pitch_bend_c, 3, 7549
5, 4974, Pitch_bend_c, 3, 7613
5, 4975, Pitch_bend_c, 3, 7677
5, 4978, Pitch_bend_c, 3, 7710
5, 4981, Pitch_bend_c, 3, 7742
5, 4982, Pitch_bend_c, 3, 7806
5, 4984, Pitch_bend_c, 3, 7838
5, 4986, Pitch_bend_c, 3, 7902
5, 4988, Pitch_bend_c, 3, 7967
5, 4990, Pitch_bend_c, 3, 7999
5, 4993, Pitch_bend_c, 3, 8063
5, 4995, Pitch_bend_c, 3, 8192
5, 5185, Control_c, 3, 64, 127
5, 5280, Note_on_c, 3, 58, 0
5, 5527, Note_on_c, 3, 70, 62
5, 5558, Control_c, 3, 64, 0
5, 5678, Pitch_bend_c, 3, 8063
5, 5680, Pitch_bend_c, 3, 7934
5, 5682, Pitch_bend_c, 3, 7742
5, 5685, Pitch_bend_c, 3, 7677
5, 5687, Pitch_bend_c, 3, 7613
5, 5688, Pitch_bend_c, 3, 7485
5, 5690, Pitch_bend_c, 3, 7356
5, 5693, Pitch_bend_c, 3, 7260
5, 5695, Pitch_bend_c, 3, 7131
5, 5697, Pitch_bend_c, 3, 7035
5, 5699, Pitch_bend_c, 3, 6874
5, 5701, Pitch_bend_c, 3, 6842
5, 5703, Pitch_bend_c, 3, 6746
5, 5705, Pitch_bend_c, 3, 6553
5, 5707, Pitch_bend_c, 3, 6425
5, 5709, Pitch_bend_c, 3, 6296
5, 5712, Pitch_bend_c, 3, 6103
5, 5714, Pitch_bend_c, 3, 5975
5, 5716, Pitch_bend_c, 3, 5878
5, 5718, Pitch_bend_c, 3, 5686
5, 5720, Pitch_bend_c, 3, 5557
5, 5722, Pitch_bend_c, 3, 5493
5, 5724, Pitch_bend_c, 3, 5332
5, 5725, Pitch_bend_c, 3, 5236
5, 5728, Pitch_bend_c, 3, 5140
5, 5730, Pitch_bend_c, 3, 5043
5, 5732, Pitch_bend_c, 3, 4947
5, 5734, Pitch_bend_c, 3, 4850
5, 5737, Pitch_bend_c, 3, 4754
5, 5739, Pitch_bend_c, 3, 4658
5, 5741, Pitch_bend_c, 3, 4593
5, 5743, Pitch_bend_c, 3, 4465
5, 5745, Pitch_bend_c, 3, 4369
5, 5747, Pitch_bend_c, 3, 4272
5, 5749, Pitch_bend_c, 3, 4144
5, 5751, Pitch_bend_c, 3, 3983
5, 5753, Pitch_bend_c, 3, 3887
5, 5754, Pitch_bend_c, 3, 3855
5, 5757, Pitch_bend_c, 3, 3758
5, 5759, Pitch_bend_c, 3, 3694
5, 5762, Pitch_bend_c, 3, 3533
5, 5763, Pitch_bend_c, 3, 3469
5, 5766, Pitch_bend_c, 3, 3373
5, 5768, Pitch_bend_c, 3, 3308
5, 5770, Pitch_bend_c, 3, 3244
5, 5772, Pitch_bend_c, 3, 3148
5, 5774, Pitch_bend_c, 3, 3051
5, 5776, Pitch_bend_c, 3, 3019
5, 5778, Pitch_bend_c, 3, 2955
5, 5780, Pitch_bend_c, 3, 2923
5, 5782, Pitch_bend_c, 3, 2794
5, 5784, Pitch_bend_c, 3, 2730
5, 5786, Pitch_bend_c, 3, 2602
5, 5788, Pitch_bend_c, 3, 2537
5, 5790, Pitch_bend_c, 3, 2473
5, 5793, Pitch_bend_c, 3, 2409
5, 5795, Pitch_bend_c, 3, 2345
5, 5797, Pitch_bend_c, 3, 2216
5, 5799, Pitch_bend_c, 3, 2152
5, 5801, Pitch_bend_c, 3, 2088
5, 5803, Pitch_bend_c, 3, 2023
5, 5805, Pitch_bend_c, 3, 1959
5, 5808, Pitch_bend_c, 3, 1895
5, 5810, Pitch_bend_c, 3, 1831
5, 5811, Pitch_bend_c, 3, 1766
5, 5813, Pitch_bend_c, 3, 1702
5, 5816, Pitch_bend_c, 3, 1574
5, 5818, Pitch_bend_c, 3, 1445
5, 5820, Pitch_bend_c, 3, 1317
5, 5821, Pitch_bend_c, 3, 1188
5, 5823, Pitch_bend_c, 3, 1060
5, 5826, Pitch_bend_c, 3, 931
5, 5828, Pitch_bend_c, 3, 738
5, 5830, Pitch_bend_c, 3, 674
5, 5832, Pitch_bend_c, 3, 546
5, 5835, Pitch_bend_c, 3, 417
5, 5837, Pitch_bend_c, 3, 353
5, 5839, Pitch_bend_c, 3, 224
5, 5845, Pitch_bend_c, 3, 160
5, 5855, Pitch_bend_c, 3, 96
5, 5857, Pitch_bend_c, 3, 32
5, 5862, Pitch_bend_c, 3, 0
5, 6274, Control_c, 3, 64, 127
5, 6348, Note_on_c, 3, 70, 0
5, 6486, Note_on_c, 3, 58, 77
5, 6518, Control_c, 3, 64, 0
5, 6625, Pitch_bend_c, 3, 96
5, 6627, Pitch_bend_c, 3, 224
5, 6629, Pitch_bend_c, 3, 353
5, 6631, Pitch_bend_c, 3, 546
5, 6633, Pitch_bend_c, 3, 674
5, 6635, Pitch_bend_c, 3, 867
5, 6637, Pitch_bend_c, 3, 1060
5, 6639, Pitch_bend_c, 3, 1252
5, 6641, Pitch_bend_c, 3, 1509
5, 6643, Pitch_bend_c, 3, 1702
5, 6645, Pitch_bend_c, 3, 1831
5, 6647, Pitch_bend_c, 3, 1959
5, 6650, Pitch_bend_c, 3, 2088
5, 6652, Pitch_bend_c, 3, 2216
5, 6654, Pitch_bend_c, 3, 2409
5, 6655, Pitch_bend_c, 3, 2537
5, 6658, Pitch_bend_c, 3, 2602
5, 6660, Pitch_bend_c, 3, 2666
5, 6662, Pitch_bend_c, 3, 2794
5, 6664, Pitch_bend_c, 3, 2923
5, 6666, Pitch_bend_c, 3, 3019
5, 6669, Pitch_bend_c, 3, 3084
5, 6671, Pitch_bend_c, 3, 3212
5, 6672, Pitch_bend_c, 3, 3308
5, 6674, Pitch_bend_c, 3, 3469
5, 6677, Pitch_bend_c, 3, 3630
5, 6679, Pitch_bend_c, 3, 3790
5, 6681, Pitch_bend_c, 3, 3919
5, 6683, Pitch_bend_c, 3, 4112
5, 6685, Pitch_bend_c, 3, 4272
5, 6687, Pitch_bend_c, 3, 4401
5, 6689, Pitch_bend_c, 3, 4497
5, 6691, Pitch_bend_c, 3, 4626
5, 6693, Pitch_bend_c, 3, 4722
5, 6696, Pitch_bend_c, 3, 4883
5, 6698, Pitch_bend_c, 3, 5011
5, 6700, Pitch_bend_c, 3, 5107
5, 6702, Pitch_bend_c, 3, 5268
5, 6704, Pitch_bend_c, 3, 5364
5, 6706, Pitch_bend_c, 3, 5493
5, 6708, Pitch_bend_c, 3, 5654
5, 6710, Pitch_bend_c, 3, 5782
5, 6711, Pitch_bend_c, 3, 5943
5, 6714, Pitch_bend_c, 3, 6071
5, 6716, Pitch_bend_c, 3, 6200
5, 6718, Pitch_bend_c, 3, 6296
5, 6720, Pitch_bend_c, 3, 6392
5, 6723, Pitch_bend_c, 3, 6489
5, 6725, Pitch_bend_c, 3, 6553
5, 6727, Pitch_bend_c, 3, 6649
5, 6729, Pitch_bend_c, 3, 6714
5, 6733, Pitch_bend_c, 3, 6842
5, 6734, Pitch_bend_c, 3, 6939
5, 6737, Pitch_bend_c, 3, 7003
5, 6739, Pitch_bend_c, 3, 7099
5, 6741, Pitch_bend_c, 3, 7163
5, 6743, Pitch_bend_c, 3, 7260
5, 6746, Pitch_bend_c, 3, 7324
5, 6748, Pitch_bend_c, 3, 7420
5, 6750, Pitch_bend_c, 3, 7517
5, 6752, Pitch_bend_c, 3, 7581
5, 6754, Pitch_bend_c, 3, 7710
5, 6756, Pitch_bend_c, 3, 7774
5, 6758, Pitch_bend_c, 3, 7870
5, 6760, Pitch_bend_c, 3, 7967
5, 6762, Pitch_bend_c, 3, 8063
5, 6764, Pitch_bend_c, 3, 8192
5, 6910, Control_c, 3, 64, 127
5, 7041, Note_on_c, 3, 58, 0
5, 7230, Control_c, 3, 93, 68
5, 7277, Control_c, 3, 93, 72
5, 7282, Control_c, 3, 93, 77
5, 7287, Control_c, 3, 93, 81
5, 7330, Control_c, 3, 93, 82
5, 7340, Control_c, 3, 93, 86
5, 7345, Control_c, 3, 93, 89
5, 7351, Control_c, 3, 93, 91
5, 7363, Control_c, 3, 93, 93
5, 7378, Control_c, 3, 93, 95
5, 7380, Control_c, 3, 93, 96
5, 7440, Note_on_c, 3, 70, 77
5, 7566, Control_c, 3, 64, 0
5, 7604, Pitch_bend_c, 3, 8031
5, 7606, Pitch_bend_c, 3, 7934
5, 7608, Pitch_bend_c, 3, 7870
5, 7610, Pitch_bend_c, 3, 7774
5, 7612, Pitch_bend_c, 3, 7710
5, 7615, Pitch_bend_c, 3, 7581
5, 7617, Pitch_bend_c, 3, 7517
5, 7619, Pitch_bend_c, 3, 7388
5, 7620, Pitch_bend_c, 3, 7260
5, 7623, Pitch_bend_c, 3, 7099
5, 7625, Pitch_bend_c, 3, 6939
5, 7627, Pitch_bend_c, 3, 6778
5, 7629, Pitch_bend_c, 3, 6649
5, 7631, Pitch_bend_c, 3, 6489
5, 7633, Pitch_bend_c, 3, 6392
5, 7635, Pitch_bend_c, 3, 6232
5, 7637, Pitch_bend_c, 3, 6103
5, 7639, Pitch_bend_c, 3, 5975
5, 7642, Pitch_bend_c, 3, 5846
5, 7644, Pitch_bend_c, 3, 5750
5, 7646, Pitch_bend_c, 3, 5589
5, 7648, Pitch_bend_c, 3, 5525
5, 7650, Pitch_bend_c, 3, 5429
5, 7652, Pitch_bend_c, 3, 5332
5, 7654, Pitch_bend_c, 3, 5236
5, 7656, Pitch_bend_c, 3, 5172
5, 7657, Pitch_bend_c, 3, 5075
5, 7660, Pitch_bend_c, 3, 5011
5, 7662, Pitch_bend_c, 3, 4915
5, 7664, Pitch_bend_c, 3, 4818
5, 7667, Pitch_bend_c, 3, 4690
5, 7669, Pitch_bend_c, 3, 4561
5, 7671, Pitch_bend_c, 3, 4465
5, 7673, Pitch_bend_c, 3, 4401
5, 7675, Pitch_bend_c, 3, 4304
5, 7677, Pitch_bend_c, 3, 4208
5, 7679, Pitch_bend_c, 3, 4079
5, 7681, Pitch_bend_c, 3, 3951
5, 7683, Pitch_bend_c, 3, 3855
5, 7686, Pitch_bend_c, 3, 3822
5, 7687, Pitch_bend_c, 3, 3758
5, 7689, Pitch_bend_c, 3, 3694
5, 7691, Pitch_bend_c, 3, 3565
5, 7693, Pitch_bend_c, 3, 3533
5, 7696, Pitch_bend_c, 3, 3469
5, 7698, Pitch_bend_c, 3, 3405
5, 7700, Pitch_bend_c, 3, 3373
5, 7701, Pitch_bend_c, 3, 3308
5, 7704, Pitch_bend_c, 3, 3276
5, 7706, Pitch_bend_c, 3, 3212
5, 7708, Pitch_bend_c, 3, 3148
5, 7710, Pitch_bend_c, 3, 3084
5, 7712, Pitch_bend_c, 3, 3051
5, 7715, Pitch_bend_c, 3, 3019
5, 7717, Pitch_bend_c, 3, 2987
5, 7718, Pitch_bend_c, 3, 2955
5, 7721, Pitch_bend_c, 3, 2923
5, 7723, Pitch_bend_c, 3, 2859
5, 7725, Pitch_bend_c, 3, 2762
5, 7727, Pitch_bend_c, 3, 2730
5, 7728, Pitch_bend_c, 3, 2602
5, 7731, Pitch_bend_c, 3, 2537
5, 7733, Pitch_bend_c, 3, 2473
5, 7735, Pitch_bend_c, 3, 2345
5, 7738, Pitch_bend_c, 3, 2280
5, 7740, Pitch_bend_c, 3, 2088
5, 7742, Pitch_bend_c, 3, 2023
5, 7744, Pitch_bend_c, 3, 1895
5, 7746, Pitch_bend_c, 3, 1831
5, 7747, Pitch_bend_c, 3, 1702
5, 7750, Pitch_bend_c, 3, 1574
5, 7752, Pitch_bend_c, 3, 1445
5, 7753, Pitch_bend_c, 3, 1317
5, 7756, Pitch_bend_c, 3, 1252
5, 7758, Pitch_bend_c, 3, 1188
5, 7760, Pitch_bend_c, 3, 1124
5, 7765, Pitch_bend_c, 3, 995
5, 7767, Pitch_bend_c, 3, 931
5, 7769, Pitch_bend_c, 3, 867
5, 7770, Pitch_bend_c, 3, 803
5, 7773, Pitch_bend_c, 3, 738
5, 7775, Pitch_bend_c, 3, 674
5, 7779, Pitch_bend_c, 3, 610
5, 7781, Pitch_bend_c, 3, 546
5, 7785, Pitch_bend_c, 3, 417
5, 7790, Pitch_bend_c, 3, 289
5, 7794, Pitch_bend_c, 3, 224
5, 7800, Pitch_bend_c, 3, 160
5, 7812, Pitch_bend_c, 3, 96
5, 7821, Pitch_bend_c, 3, 32
5, 7823, Pitch_bend_c, 3, 96
5, 7825, Pitch_bend_c, 3, 32
5, 7829, Pitch_bend_c, 3, 0
5, 8005, Control_c, 3, 64, 127
5, 8188, Note_on_c, 3, 70, 0
5, 8394, Note_on_c, 3, 58, 79
5, 8426, Control_c, 3, 64, 0
5, 8590, Pitch_bend_c, 3, 96
5, 8592, Pitch_bend_c, 3, 224
5, 8594, Pitch_bend_c, 3, 353
5, 8596, Pitch_bend_c, 3, 417
5, 8598, Pitch_bend_c, 3, 546
5, 8601, Pitch_bend_c, 3, 738
5, 8603, Pitch_bend_c, 3, 931
5, 8605, Pitch_bend_c, 3, 1124
5, 8606, Pitch_bend_c, 3, 1252
5, 8608, Pitch_bend_c, 3, 1317
5, 8611, Pitch_bend_c, 3, 1638
5, 8613, Pitch_bend_c, 3, 1766
5, 8615, Pitch_bend_c, 3, 1895
5, 8616, Pitch_bend_c, 3, 2023
5, 8619, Pitch_bend_c, 3, 2152
5, 8621, Pitch_bend_c, 3, 2345
5, 8624, Pitch_bend_c, 3, 2537
5, 8626, Pitch_bend_c, 3, 2602
5, 8628, Pitch_bend_c, 3, 2762
5, 8630, Pitch_bend_c, 3, 2923
5, 8632, Pitch_bend_c, 3, 3051
5, 8634, Pitch_bend_c, 3, 3180
5, 8636, Pitch_bend_c, 3, 3276
5, 8638, Pitch_bend_c, 3, 3405
5, 8640, Pitch_bend_c, 3, 3565
5, 8642, Pitch_bend_c, 3, 3726
5, 8644, Pitch_bend_c, 3, 3855
5, 8646, Pitch_bend_c, 3, 3951
5, 8648, Pitch_bend_c, 3, 4079
5, 8650, Pitch_bend_c, 3, 4240
5, 8653, Pitch_bend_c, 3, 4304
5, 8655, Pitch_bend_c, 3, 4369
5, 8657, Pitch_bend_c, 3, 4433
5, 8659, Pitch_bend_c, 3, 4465
5, 8663, Pitch_bend_c, 3, 4497
5, 8667, Pitch_bend_c, 3, 4529
5, 8670, Pitch_bend_c, 3, 4561
5, 8671, Pitch_bend_c, 3, 4593
5, 8675, Pitch_bend_c, 3, 4626
5, 8678, Pitch_bend_c, 3, 4690
5, 8680, Pitch_bend_c, 3, 4722
5, 8682, Pitch_bend_c, 3, 4786
5, 8684, Pitch_bend_c, 3, 4850
5, 8686, Pitch_bend_c, 3, 4883
5, 8688, Pitch_bend_c, 3, 4947
5, 8690, Pitch_bend_c, 3, 4979
5, 8692, Pitch_bend_c, 3, 5043
5, 8694, Pitch_bend_c, 3, 5075
5, 8697, Pitch_bend_c, 3, 5140
5, 8699, Pitch_bend_c, 3, 5204
5, 8701, Pitch_bend_c, 3, 5268
5, 8702, Pitch_bend_c, 3, 5332
5, 8704, Pitch_bend_c, 3, 5364
5, 8707, Pitch_bend_c, 3, 5493
5, 8709, Pitch_bend_c, 3, 5557
5, 8711, Pitch_bend_c, 3, 5621
5, 8713, Pitch_bend_c, 3, 5750
5, 8715, Pitch_bend_c, 3, 5846
5, 8717, Pitch_bend_c, 3, 5943
5, 8719, Pitch_bend_c, 3, 6039
5, 8721, Pitch_bend_c, 3, 6103
5, 8724, Pitch_bend_c, 3, 6135
5, 8726, Pitch_bend_c, 3, 6232
5, 8728, Pitch_bend_c, 3, 6328
5, 8730, Pitch_bend_c, 3, 6392
5, 8732, Pitch_bend_c, 3, 6425
5, 8734, Pitch_bend_c, 3, 6489
5, 8736, Pitch_bend_c, 3, 6553
5, 8737, Pitch_bend_c, 3, 6617
5, 8740, Pitch_bend_c, 3, 6682
5, 8742, Pitch_bend_c, 3, 6746
5, 8744, Pitch_bend_c, 3, 6810
5, 8746, Pitch_bend_c, 3, 6906
5, 8749, Pitch_bend_c, 3, 6971
5, 8751, Pitch_bend_c, 3, 7035
5, 8753, Pitch_bend_c, 3, 7099
5, 8755, Pitch_bend_c, 3, 7163
5, 8757, Pitch_bend_c, 3, 7228
5, 8759, Pitch_bend_c, 3, 7292
5, 8761, Pitch_bend_c, 3, 7356
5, 8763, Pitch_bend_c, 3, 7420
5, 8764, Pitch_bend_c, 3, 7485
5, 8766, Pitch_bend_c, 3, 7549
5, 8769, Pitch_bend_c, 3, 7613
5, 8771, Pitch_bend_c, 3, 7677
5, 8773, Pitch_bend_c, 3, 7742
5, 8776, Pitch_bend_c, 3, 7806
5, 8778, Pitch_bend_c, 3, 7902
5, 8780, Pitch_bend_c, 3, 7967
5, 8782, Pitch_bend_c, 3, 8031
5, 8784, Pitch_bend_c, 3, 8192
5, 8924, Control_c, 3, 64, 127
5, 9022, Note_on_c, 3, 58, 0
5, 9345, Note_on_c, 3, 70, 84
5, 9350, Control_c, 3, 64, 0
5, 9479, Control_c, 3, 64, 127
5, 9515, Control_c, 3, 64, 0
5, 9538, Pitch_bend_c, 3, 7967
5, 9540, Pitch_bend_c, 3, 7806
5, 9542, Pitch_bend_c, 3, 7710
5, 9544, Pitch_bend_c, 3, 7613
5, 9547, Pitch_bend_c, 3, 7549
5, 9549, Pitch_bend_c, 3, 7485
5, 9551, Pitch_bend_c, 3, 7420
5, 9553, Pitch_bend_c, 3, 7356
5, 9555, Pitch_bend_c, 3, 7292
5, 9557, Pitch_bend_c, 3, 7163
5, 9559, Pitch_bend_c, 3, 7067
5, 9561, Pitch_bend_c, 3, 6939
5, 9563, Pitch_bend_c, 3, 6746
5, 9565, Pitch_bend_c, 3, 6682
5, 9567, Pitch_bend_c, 3, 6521
5, 9569, Pitch_bend_c, 3, 6360
5, 9571, Pitch_bend_c, 3, 6232
5, 9574, Pitch_bend_c, 3, 6071
5, 9576, Pitch_bend_c, 3, 5911
5, 9577, Pitch_bend_c, 3, 5782
5, 9580, Pitch_bend_c, 3, 5654
5, 9582, Pitch_bend_c, 3, 5525
5, 9584, Pitch_bend_c, 3, 5397
5, 9586, Pitch_bend_c, 3, 5300
5, 9588, Pitch_bend_c, 3, 5204
5, 9591, Pitch_bend_c, 3, 5140
5, 9593, Pitch_bend_c, 3, 5043
5, 9594, Pitch_bend_c, 3, 4947
5, 9596, Pitch_bend_c, 3, 4818
5, 9599, Pitch_bend_c, 3, 4658
5, 9601, Pitch_bend_c, 3, 4529
5, 9603, Pitch_bend_c, 3, 4433
5, 9605, Pitch_bend_c, 3, 4272
5, 9606, Pitch_bend_c, 3, 4015
5, 9609, Pitch_bend_c, 3, 3855
5, 9611, Pitch_bend_c, 3, 3758
5, 9613, Pitch_bend_c, 3, 3565
5, 9616, Pitch_bend_c, 3, 3469
5, 9618, Pitch_bend_c, 3, 3373
5, 9620, Pitch_bend_c, 3, 3308
5, 9622, Pitch_bend_c, 3, 3212
5, 9623, Pitch_bend_c, 3, 3116
5, 9626, Pitch_bend_c, 3, 3084
5, 9628, Pitch_bend_c, 3, 3051
5, 9630, Pitch_bend_c, 3, 3019
5, 9632, Pitch_bend_c, 3, 2955
5, 9634, Pitch_bend_c, 3, 2891
5, 9636, Pitch_bend_c, 3, 2762
5, 9638, Pitch_bend_c, 3, 2666
5, 9640, Pitch_bend_c, 3, 2537
5, 9642, Pitch_bend_c, 3, 2409
5, 9645, Pitch_bend_c, 3, 2280
5, 9647, Pitch_bend_c, 3, 2152
5, 9648, Pitch_bend_c, 3, 2023
5, 9651, Pitch_bend_c, 3, 1959
5, 9653, Pitch_bend_c, 3, 1895
5, 9655, Pitch_bend_c, 3, 1766
5, 9657, Pitch_bend_c, 3, 1702
5, 9659, Pitch_bend_c, 3, 1509
5, 9661, Pitch_bend_c, 3, 1381
5, 9663, Pitch_bend_c, 3, 1252
5, 9665, Pitch_bend_c, 3, 1124
5, 9668, Pitch_bend_c, 3, 995
5, 9669, Pitch_bend_c, 3, 803
5, 9672, Pitch_bend_c, 3, 610
5, 9674, Pitch_bend_c, 3, 546
5, 9676, Pitch_bend_c, 3, 353
5, 9678, Pitch_bend_c, 3, 224
5, 9680, Pitch_bend_c, 3, 160
5, 9682, Pitch_bend_c, 3, 96
5, 9684, Pitch_bend_c, 3, 32
5, 9686, Pitch_bend_c, 3, 0
5, 10091, Control_c, 3, 64, 127
5, 10174, Note_on_c, 3, 70, 0
5, 10317, Note_on_c, 3, 58, 89
5, 10321, Control_c, 3, 64, 0
5, 10458, Pitch_bend_c, 3, 160
5, 10460, Pitch_bend_c, 3, 417
5, 10462, Pitch_bend_c, 3, 610
5, 10464, Pitch_bend_c, 3, 931
5, 10465, Pitch_bend_c, 3, 1188
5, 10468, Pitch_bend_c, 3, 1317
5, 10470, Pitch_bend_c, 3, 1702
5, 10472, Pitch_bend_c, 3, 1895
5, 10474, Pitch_bend_c, 3, 2088
5, 10476, Pitch_bend_c, 3, 2409
5, 10479, Pitch_bend_c, 3, 2602
5, 10481, Pitch_bend_c, 3, 2923
5, 10483, Pitch_bend_c, 3, 3051
5, 10485, Pitch_bend_c, 3, 3276
5, 10486, Pitch_bend_c, 3, 3437
5, 10489, Pitch_bend_c, 3, 3662
5, 10491, Pitch_bend_c, 3, 3855
5, 10492, Pitch_bend_c, 3, 4079
5, 10494, Pitch_bend_c, 3, 4272
5, 10497, Pitch_bend_c, 3, 4433
5, 10499, Pitch_bend_c, 3, 4593
5, 10501, Pitch_bend_c, 3, 4722
5, 10503, Pitch_bend_c, 3, 4850
5, 10506, Pitch_bend_c, 3, 4979
5, 10508, Pitch_bend_c, 3, 5011
5, 10510, Pitch_bend_c, 3, 5075
5, 10514, Pitch_bend_c, 3, 5107
5, 10516, Pitch_bend_c, 3, 5140
5, 10518, Pitch_bend_c, 3, 5204
5, 10519, Pitch_bend_c, 3, 5236
5, 10522, Pitch_bend_c, 3, 5300
5, 10524, Pitch_bend_c, 3, 5332
5, 10526, Pitch_bend_c, 3, 5397
5, 10528, Pitch_bend_c, 3, 5525
5, 10531, Pitch_bend_c, 3, 5589
5, 10533, Pitch_bend_c, 3, 5686
5, 10535, Pitch_bend_c, 3, 5814
5, 10536, Pitch_bend_c, 3, 5878
5, 10538, Pitch_bend_c, 3, 5975
5, 10541, Pitch_bend_c, 3, 6071
5, 10543, Pitch_bend_c, 3, 6168
5, 10545, Pitch_bend_c, 3, 6328
5, 10547, Pitch_bend_c, 3, 6392
5, 10549, Pitch_bend_c, 3, 6489
5, 10551, Pitch_bend_c, 3, 6585
5, 10553, Pitch_bend_c, 3, 6682
5, 10555, Pitch_bend_c, 3, 6714
5, 10558, Pitch_bend_c, 3, 6874
5, 10560, Pitch_bend_c, 3, 6939
5, 10562, Pitch_bend_c, 3, 7035
5, 10564, Pitch_bend_c, 3, 7131
5, 10566, Pitch_bend_c, 3, 7196
5, 10568, Pitch_bend_c, 3, 7292
5, 10570, Pitch_bend_c, 3, 7356
5, 10572, Pitch_bend_c, 3, 7453
5, 10575, Pitch_bend_c, 3, 7549
5, 10577, Pitch_bend_c, 3, 7581
5, 10578, Pitch_bend_c, 3, 7645
5, 10580, Pitch_bend_c, 3, 7710
5, 10583, Pitch_bend_c, 3, 7742
5, 10585, Pitch_bend_c, 3, 7806
5, 10587, Pitch_bend_c, 3, 7870
5, 10589, Pitch_bend_c, 3, 7934
5, 10591, Pitch_bend_c, 3, 7967
5, 10593, Pitch_bend_c, 3, 7999
5, 10595, Pitch_bend_c, 3, 8192
5, 10807, Control_c, 3, 64, 127
5, 10871, Note_on_c, 3, 58, 0
5, 11275, Note_on_c, 3, 70, 84
5, 11276, Control_c, 3, 64, 0
5, 11387, Pitch_bend_c, 3, 7967
5, 11389, Pitch_bend_c, 3, 7902
5, 11391, Pitch_bend_c, 3, 7710
5, 11393, Pitch_bend_c, 3, 7677
5, 11395, Pitch_bend_c, 3, 7549
5, 11398, Pitch_bend_c, 3, 7420
5, 11400, Pitch_bend_c, 3, 7292
5, 11402, Pitch_bend_c, 3, 7196
5, 11403, Pitch_bend_c, 3, 7067
5, 11406, Pitch_bend_c, 3, 6906
5, 11408, Pitch_bend_c, 3, 6842
5, 11410, Pitch_bend_c, 3, 6778
5, 11412, Pitch_bend_c, 3, 6649
5, 11414, Pitch_bend_c, 3, 6521
5, 11416, Pitch_bend_c, 3, 6457
5, 11418, Pitch_bend_c, 3, 6360
5, 11420, Pitch_bend_c, 3, 6296
5, 11423, Pitch_bend_c, 3, 6232
5, 11425, Pitch_bend_c, 3, 6135
5, 11427, Pitch_bend_c, 3, 6071
5, 11428, Pitch_bend_c, 3, 6039
5, 11431, Pitch_bend_c, 3, 6007
5, 11433, Pitch_bend_c, 3, 5943
5, 11435, Pitch_bend_c, 3, 5911
5, 11437, Pitch_bend_c, 3, 5814
5, 11439, Pitch_bend_c, 3, 5718
5, 11441, Pitch_bend_c, 3, 5621
5, 11443, Pitch_bend_c, 3, 5557
5, 11445, Pitch_bend_c, 3, 5493
5, 11447, Pitch_bend_c, 3, 5397
5, 11450, Pitch_bend_c, 3, 5364
5, 11452, Pitch_bend_c, 3, 5300
5, 11454, Pitch_bend_c, 3, 5236
5, 11455, Pitch_bend_c, 3, 5172
5, 11458, Pitch_bend_c, 3, 5107
5, 11460, Pitch_bend_c, 3, 5011
5, 11462, Pitch_bend_c, 3, 4915
5, 11464, Pitch_bend_c, 3, 4850
5, 11467, Pitch_bend_c, 3, 4786
5, 11469, Pitch_bend_c, 3, 4690
5, 11470, Pitch_bend_c, 3, 4626
5, 11472, Pitch_bend_c, 3, 4593
5, 11474, Pitch_bend_c, 3, 4497
5, 11477, Pitch_bend_c, 3, 4401
5, 11479, Pitch_bend_c, 3, 4272
5, 11481, Pitch_bend_c, 3, 4176
5, 11482, Pitch_bend_c, 3, 3983
5, 11485, Pitch_bend_c, 3, 3887
5, 11487, Pitch_bend_c, 3, 3790
5, 11489, Pitch_bend_c, 3, 3726
5, 11491, Pitch_bend_c, 3, 3565
5, 11494, Pitch_bend_c, 3, 3501
5, 11496, Pitch_bend_c, 3, 3437
5, 11498, Pitch_bend_c, 3, 3341
5, 11499, Pitch_bend_c, 3, 3276
5, 11502, Pitch_bend_c, 3, 3180
5, 11504, Pitch_bend_c, 3, 3084
5, 11506, Pitch_bend_c, 3, 3051
5, 11508, Pitch_bend_c, 3, 2987
5, 11510, Pitch_bend_c, 3, 2891
5, 11512, Pitch_bend_c, 3, 2762
5, 11514, Pitch_bend_c, 3, 2602
5, 11516, Pitch_bend_c, 3, 2537
5, 11518, Pitch_bend_c, 3, 2473
5, 11521, Pitch_bend_c, 3, 2280
5, 11523, Pitch_bend_c, 3, 2152
5, 11525, Pitch_bend_c, 3, 2023
5, 11527, Pitch_bend_c, 3, 1895
5, 11529, Pitch_bend_c, 3, 1766
5, 11531, Pitch_bend_c, 3, 1702
5, 11533, Pitch_bend_c, 3, 1574
5, 11535, Pitch_bend_c, 3, 1445
5, 11537, Pitch_bend_c, 3, 1317
5, 11539, Pitch_bend_c, 3, 1252
5, 11541, Pitch_bend_c, 3, 1124
5, 11543, Pitch_bend_c, 3, 995
5, 11546, Pitch_bend_c, 3, 867
5, 11548, Pitch_bend_c, 3, 674
5, 11550, Pitch_bend_c, 3, 610
5, 11552, Pitch_bend_c, 3, 417
5, 11553, Pitch_bend_c, 3, 289
5, 11556, Pitch_bend_c, 3, 160
5, 11560, Pitch_bend_c, 3, 32
5, 11562, Pitch_bend_c, 3, 0
5, 11912, Control_c, 3, 64, 127
5, 12054, Note_on_c, 3, 70, 0
5, 12234, Control_c, 3, 64, 0
5, 12235, Note_on_c, 3, 58, 71
5, 12300, Control_c, 3, 7, 127
5, 12310, Control_c, 3, 7, 126
5, 12320, Control_c, 3, 7, 125
5, 12330, Control_c, 3, 7, 124
5, 12333, Pitch_bend_c, 3, 96
5, 12335, Pitch_bend_c, 3, 224
5, 12338, Pitch_bend_c, 3, 289
5, 12340, Control_c, 3, 7, 123
5, 12340, Pitch_bend_c, 3, 481
5, 12342, Pitch_bend_c, 3, 610
5, 12344, Pitch_bend_c, 3, 738
5, 12346, Pitch_bend_c, 3, 867
5, 12348, Pitch_bend_c, 3, 1060
5, 12350, Control_c, 3, 7, 122
5, 12350, Pitch_bend_c, 3, 1252
5, 12352, Pitch_bend_c, 3, 1509
5, 12354, Pitch_bend_c, 3, 1766
5, 12357, Pitch_bend_c, 3, 1959
5, 12359, Pitch_bend_c, 3, 2088
5, 12360, Control_c, 3, 7, 121
5, 12361, Pitch_bend_c, 3, 2345
5, 12363, Pitch_bend_c, 3, 2537
5, 12365, Pitch_bend_c, 3, 2666
5, 12367, Pitch_bend_c, 3, 2923
5, 12368, Pitch_bend_c, 3, 3051
5, 12370, Control_c, 3, 7, 120
5, 12370, Pitch_bend_c, 3, 3244
5, 12373, Pitch_bend_c, 3, 3437
5, 12375, Pitch_bend_c, 3, 3662
5, 12377, Pitch_bend_c, 3, 3855
5, 12380, Control_c, 3, 7, 119
5, 12380, Pitch_bend_c, 3, 4047
5, 12382, Pitch_bend_c, 3, 4304
5, 12384, Pitch_bend_c, 3, 4497
5, 12386, Pitch_bend_c, 3, 4658
5, 12388, Pitch_bend_c, 3, 4850
5, 12390, Control_c, 3, 7, 118
5, 12390, Pitch_bend_c, 3, 4979
5, 12392, Pitch_bend_c, 3, 5140
5, 12394, Pitch_bend_c, 3, 5332
5, 12395, Pitch_bend_c, 3, 5493
5, 12397, Pitch_bend_c, 3, 5589
5, 12400, Control_c, 3, 7, 117
5, 12400, Pitch_bend_c, 3, 5782
5, 12402, Pitch_bend_c, 3, 5975
5, 12404, Pitch_bend_c, 3, 6103
5, 12406, Pitch_bend_c, 3, 6296
5, 12409, Pitch_bend_c, 3, 6392
5, 12410, Control_c, 3, 7, 116
5, 12411, Pitch_bend_c, 3, 6489
5, 12413, Pitch_bend_c, 3, 6682
5, 12414, Pitch_bend_c, 3, 6746
5, 12417, Pitch_bend_c, 3, 6906
5, 12419, Pitch_bend_c, 3, 7067
5, 12420, Control_c, 3, 7, 114
5, 12421, Pitch_bend_c, 3, 7196
5, 12422, Pitch_bend_c, 3, 7388
5, 12425, Pitch_bend_c, 3, 7517
5, 12427, Pitch_bend_c, 3, 7645
5, 12429, Pitch_bend_c, 3, 7742
5, 12430, Control_c, 3, 7, 113
5, 12431, Pitch_bend_c, 3, 7870
5, 12434, Pitch_bend_c, 3, 7967
5, 12436, Pitch_bend_c, 3, 8192
5, 12440, Control_c, 3, 7, 112
5, 12450, Control_c, 3, 7, 111
5, 12460, Control_c, 3, 7, 110
5, 12470, Control_c, 3, 7, 109
5, 12480, Control_c, 3, 7, 108
5, 12480, Control_c, 3, 64, 127
5, 12490, Control_c, 3, 7, 107
5, 12500, Control_c, 3, 7, 106
5, 12510, Control_c, 3, 7, 105
5, 12520, Control_c, 3, 7, 104
5, 12530, Control_c, 3, 7, 103
5, 12540, Control_c, 3, 7, 101
5, 12550, Control_c, 3, 7, 100
5, 12560, Control_c, 3, 7, 99
5, 12570, Control_c, 3, 7, 98
5, 12580, Control_c, 3, 7, 97
5, 12590, Control_c, 3, 7, 96
5, 12600, Control_c, 3, 7, 95
5, 12610, Control_c, 3, 7, 94
5, 12620, Control_c, 3, 7, 93
5, 12630, Control_c, 3, 7, 92
5, 12640, Control_c, 3, 7, 91
5, 12650, Control_c, 3, 7, 90
5, 12660, Control_c, 3, 7, 88
5, 12670, Control_c, 3, 7, 87
5, 12680, Control_c, 3, 7, 86
5, 12690, Control_c, 3, 7, 85
5, 12700, Control_c, 3, 7, 84
5, 12710, Control_c, 3, 7, 83
5, 12720, Control_c, 3, 7, 82
5, 12720, Control_c, 3, 64, 0
5, 12724, Note_on_c, 3, 58, 0
5, 12730, Control_c, 3, 7, 81
5, 12740, Control_c, 3, 7, 80
5, 12750, Control_c, 3, 7, 79
5, 12760, Control_c, 3, 7, 78
5, 12770, Control_c, 3, 7, 76
5, 12780, Control_c, 3, 7, 75
5, 12790, Control_c, 3, 7, 74
5, 12800, Control_c, 3, 7, 73
5, 12810, Control_c, 3, 7, 72
5, 12820, Control_c, 3, 7, 71
5, 12830, Control_c, 3, 7, 70
5, 12840, Control_c, 3, 7, 69
5, 12850, Control_c, 3, 7, 68
5, 12860, Control_c, 3, 7, 67
5, 12870, Control_c, 3, 7, 66
5, 12880, Control_c, 3, 7, 65
5, 12890, Control_c, 3, 7, 63
5, 12900, Control_c, 3, 7, 62
5, 12910, Control_c, 3, 7, 61
5, 12920, Control_c, 3, 7, 60
5, 12930, Control_c, 3, 7, 59
5, 12940, Control_c, 3, 7, 58
5, 12950, Control_c, 3, 7, 57
5, 12960, Control_c, 3, 7, 56
5, 12970, Control_c, 3, 7, 55
5, 12980, Control_c, 3, 7, 54
5, 12990, Control_c, 3, 7, 53
5, 13000, Control_c, 3, 7, 52
5, 13010, Control_c, 3, 7, 50
5, 13020, Control_c, 3, 7, 49
5, 13030, Control_c, 3, 7, 48
5, 13040, Control_c, 3, 7, 47
5, 13050, Control_c, 3, 7, 46
5, 13060, Control_c, 3, 7, 45
5, 13070, Control_c, 3, 7, 44
5, 13080, Control_c, 3, 7, 43
5, 13090, Control_c, 3, 7, 42
5, 13100, Control_c, 3, 7, 41
5, 13110, Control_c, 3, 7, 40
5, 13120, Control_c, 3, 7, 38
5, 13130, Control_c, 3, 7, 37
5, 13140, Control_c, 3, 7, 36
5, 13150, Control_c, 3, 7, 35
5, 13160, Control_c, 3, 7, 34
5, 13170, Control_c, 3, 7, 33
5, 13180, Control_c, 3, 7, 32
5, 13190, Control_c, 3, 7, 31
5, 13200, Control_c, 3, 7, 30
5, 13210, Control_c, 3, 7, 29
5, 13220, Control_c, 3, 7, 28
5, 13230, Control_c, 3, 7, 27
5, 13240, Control_c, 3, 7, 25
5, 13250, Control_c, 3, 7, 24
5, 13260, Control_c, 3, 7, 23
5, 13270, Control_c, 3, 7, 22
5, 13280, Control_c, 3, 7, 21
5, 13290, Control_c, 3, 7, 20
5, 13300, Control_c, 3, 7, 19
5, 13310, Control_c, 3, 7, 18
5, 13320, Control_c, 3, 7, 17
5, 13330, Control_c, 3, 7, 16
5, 13340, Control_c, 3, 7, 15
5, 13350, Control_c, 3, 7, 14
5, 13360, Control_c, 3, 7, 12
5, 13370, Control_c, 3, 7, 11
5, 13380, Control_c, 3, 7, 10
5, 13390, Control_c, 3, 7, 9
5, 13400, Control_c, 3, 7, 8
5, 13410, Control_c, 3, 7, 7
5, 13420, Control_c, 3, 7, 6
5, 13430, Control_c, 3, 7, 5
5, 13440, Control_c, 3, 7, 4
5, 13450, Control_c, 3, 7, 3
5, 13460, Control_c, 3, 7, 2
5, 13470, Control_c, 3, 7, 0
5, 13570, Control_c, 3, 7, 126
5, 22560, Control_c, 3, 64, 127
5, 22800, Control_c, 3, 64, 0
5, 22800, Note_on_c, 3, 70, 54
5, 22904, Control_c, 3, 64, 127
5, 22978, Pitch_bend_c, 3, 8031
5, 22979, Pitch_bend_c, 3, 7902
5, 22982, Pitch_bend_c, 3, 7742
5, 22984, Pitch_bend_c, 3, 7613
5, 22986, Pitch_bend_c, 3, 7485
5, 22988, Pitch_bend_c, 3, 7356
5, 22989, Pitch_bend_c, 3, 7228
5, 22992, Pitch_bend_c, 3, 7131
5, 22994, Pitch_bend_c, 3, 6971
5, 22995, Pitch_bend_c, 3, 6842
5, 22997, Pitch_bend_c, 3, 6810
5, 23000, Pitch_bend_c, 3, 6682
5, 23002, Pitch_bend_c, 3, 6521
5, 23004, Pitch_bend_c, 3, 6425
5, 23007, Pitch_bend_c, 3, 6328
5, 23009, Pitch_bend_c, 3, 6135
5, 23011, Pitch_bend_c, 3, 6007
5, 23013, Pitch_bend_c, 3, 5911
5, 23015, Pitch_bend_c, 3, 5718
5, 23017, Pitch_bend_c, 3, 5589
5, 23019, Pitch_bend_c, 3, 5493
5, 23021, Pitch_bend_c, 3, 5364
5, 23023, Pitch_bend_c, 3, 5236
5, 23026, Pitch_bend_c, 3, 5107
5, 23027, Pitch_bend_c, 3, 4947
5, 23029, Pitch_bend_c, 3, 4818
5, 23031, Pitch_bend_c, 3, 4690
5, 23033, Pitch_bend_c, 3, 4593
5, 23036, Pitch_bend_c, 3, 4465
5, 23038, Pitch_bend_c, 3, 4336
5, 23040, Pitch_bend_c, 3, 4208
5, 23042, Pitch_bend_c, 3, 4015
5, 23044, Pitch_bend_c, 3, 3887
5, 23046, Pitch_bend_c, 3, 3790
5, 23048, Pitch_bend_c, 3, 3694
5, 23050, Pitch_bend_c, 3, 3565
5, 23053, Pitch_bend_c, 3, 3437
5, 23055, Pitch_bend_c, 3, 3341
5, 23057, Pitch_bend_c, 3, 3276
5, 23058, Pitch_bend_c, 3, 3180
5, 23061, Pitch_bend_c, 3, 3116
5, 23063, Pitch_bend_c, 3, 3051
5, 23065, Pitch_bend_c, 3, 2987
5, 23067, Pitch_bend_c, 3, 2955
5, 23069, Pitch_bend_c, 3, 2891
5, 23071, Pitch_bend_c, 3, 2794
5, 23073, Pitch_bend_c, 3, 2762
5, 23075, Pitch_bend_c, 3, 2666
5, 23078, Pitch_bend_c, 3, 2602
5, 23080, Pitch_bend_c, 3, 2537
5, 23082, Pitch_bend_c, 3, 2473
5, 23086, Pitch_bend_c, 3, 2409
5, 23088, Pitch_bend_c, 3, 2280
5, 23090, Pitch_bend_c, 3, 2152
5, 23092, Pitch_bend_c, 3, 2088
5, 23093, Pitch_bend_c, 3, 1959
5, 23096, Pitch_bend_c, 3, 1831
5, 23098, Pitch_bend_c, 3, 1702
5, 23100, Pitch_bend_c, 3, 1509
5, 23103, Pitch_bend_c, 3, 1317
5, 23104, Pitch_bend_c, 3, 1188
5, 23107, Pitch_bend_c, 3, 1060
5, 23109, Pitch_bend_c, 3, 867
5, 23111, Pitch_bend_c, 3, 674
5, 23113, Pitch_bend_c, 3, 610
5, 23115, Pitch_bend_c, 3, 481
5, 23117, Pitch_bend_c, 3, 353
5, 23119, Pitch_bend_c, 3, 224
5, 23120, Pitch_bend_c, 3, 160
5, 23123, Pitch_bend_c, 3, 32
5, 23125, Pitch_bend_c, 3, 0
5, 23168, Control_c, 3, 64, 0
5, 23240, Control_c, 3, 64, 127
5, 23444, Note_on_c, 3, 70, 0
5, 23755, Note_on_c, 3, 58, 55
5, 23789, Control_c, 3, 64, 0
5, 23865, Control_c, 3, 64, 127
5, 23937, Pitch_bend_c, 3, 96
5, 23939, Pitch_bend_c, 3, 353
5, 23940, Pitch_bend_c, 3, 610
5, 23943, Pitch_bend_c, 3, 867
5, 23945, Pitch_bend_c, 3, 1188
5, 23946, Pitch_bend_c, 3, 1509
5, 23949, Pitch_bend_c, 3, 1766
5, 23951, Pitch_bend_c, 3, 2023
5, 23953, Pitch_bend_c, 3, 2280
5, 23954, Pitch_bend_c, 3, 2602
5, 23957, Pitch_bend_c, 3, 2762
5, 23959, Control_c, 3, 64, 0
5, 23959, Pitch_bend_c, 3, 2955
5, 23961, Pitch_bend_c, 3, 3116
5, 23963, Pitch_bend_c, 3, 3244
5, 23966, Pitch_bend_c, 3, 3437
5, 23968, Pitch_bend_c, 3, 3598
5, 23970, Pitch_bend_c, 3, 3758
5, 23971, Pitch_bend_c, 3, 3855
5, 23974, Pitch_bend_c, 3, 3983
5, 23976, Pitch_bend_c, 3, 4144
5, 23978, Pitch_bend_c, 3, 4272
5, 23980, Pitch_bend_c, 3, 4401
5, 23982, Pitch_bend_c, 3, 4497
5, 23984, Pitch_bend_c, 3, 4593
5, 23986, Pitch_bend_c, 3, 4722
5, 23988, Pitch_bend_c, 3, 4883
5, 23990, Pitch_bend_c, 3, 4979
5, 23993, Pitch_bend_c, 3, 5075
5, 23995, Pitch_bend_c, 3, 5204
5, 23997, Pitch_bend_c, 3, 5268
5, 23998, Pitch_bend_c, 3, 5364
5, 24001, Pitch_bend_c, 3, 5525
5, 24003, Pitch_bend_c, 3, 5557
5, 24005, Pitch_bend_c, 3, 5654
5, 24007, Pitch_bend_c, 3, 5782
5, 24010, Pitch_bend_c, 3, 5846
5, 24011, Pitch_bend_c, 3, 5943
5, 24013, Pitch_bend_c, 3, 6007
5, 24015, Pitch_bend_c, 3, 6103
5, 24018, Pitch_bend_c, 3, 6135
5, 24020, Pitch_bend_c, 3, 6232
5, 24022, Pitch_bend_c, 3, 6328
5, 24024, Pitch_bend_c, 3, 6425
5, 24026, Pitch_bend_c, 3, 6521
5, 24028, Pitch_bend_c, 3, 6585
5, 24030, Pitch_bend_c, 3, 6714
5, 24032, Pitch_bend_c, 3, 6810
5, 24034, Pitch_bend_c, 3, 6939
5, 24037, Pitch_bend_c, 3, 7067
5, 24039, Pitch_bend_c, 3, 7131
5, 24041, Pitch_bend_c, 3, 7228
5, 24042, Pitch_bend_c, 3, 7356
5, 24045, Pitch_bend_c, 3, 7453
5, 24047, Pitch_bend_c, 3, 7549
5, 24049, Pitch_bend_c, 3, 7613
5, 24051, Pitch_bend_c, 3, 7710
5, 24053, Pitch_bend_c, 3, 7742
5, 24055, Pitch_bend_c, 3, 7806
5, 24057, Pitch_bend_c, 3, 7870
5, 24059, Pitch_bend_c, 3, 7934
5, 24062, Pitch_bend_c, 3, 7967
5, 24064, Pitch_bend_c, 3, 7999
5, 24066, Pitch_bend_c, 3, 8063
5, 24067, Pitch_bend_c, 3, 8192
5, 24185, Control_c, 3, 1, 1
5, 24186, Control_c, 3, 1, 7
5, 24187, Control_c, 3, 1, 12
5, 24187, Control_c, 3, 1, 18
5, 24189, Control_c, 3, 1, 23
5, 24190, Control_c, 3, 1, 29
5, 24191, Control_c, 3, 1, 34
5, 24192, Control_c, 3, 1, 38
5, 24193, Control_c, 3, 1, 43
5, 24194, Control_c, 3, 1, 49
5, 24195, Control_c, 3, 1, 54
5, 24196, Control_c, 3, 1, 60
5, 24196, Control_c, 3, 1, 65
5, 24198, Control_c, 3, 1, 72
5, 24199, Control_c, 3, 1, 78
5, 24200, Control_c, 3, 1, 84
5, 24201, Control_c, 3, 1, 91
5, 24202, Control_c, 3, 1, 101
5, 24203, Control_c, 3, 1, 109
5, 24204, Control_c, 3, 1, 119
5, 24206, Control_c, 3, 1, 125
5, 24207, Control_c, 3, 1, 127
5, 24256, Control_c, 3, 1, 117
5, 24256, Control_c, 3, 1, 101
5, 24257, Control_c, 3, 1, 85
5, 24259, Control_c, 3, 1, 76
5, 24260, Control_c, 3, 1, 66
5, 24261, Control_c, 3, 1, 57
5, 24262, Control_c, 3, 1, 48
5, 24263, Control_c, 3, 1, 40
5, 24264, Control_c, 3, 1, 33
5, 24265, Control_c, 3, 1, 26
5, 24266, Control_c, 3, 1, 20
5, 24266, Control_c, 3, 1, 14
5, 24267, Control_c, 3, 1, 9
5, 24269, Control_c, 3, 1, 5
5, 24270, Control_c, 3, 1, 2
5, 24271, Control_c, 3, 1, 0
5, 24338, Control_c, 3, 64, 127
5, 24442, Note_on_c, 3, 58, 0
5, 24720, Note_on_c, 3, 70, 66
5, 24746, Control_c, 3, 64, 0
5, 24755, Control_c, 3, 64, 127
5, 24878, Control_c, 3, 64, 0
5, 24881, Pitch_bend_c, 3, 7999
5, 24883, Pitch_bend_c, 3, 7902
5, 24885, Pitch_bend_c, 3, 7774
5, 24887, Pitch_bend_c, 3, 7645
5, 24890, Pitch_bend_c, 3, 7485
5, 24893, Pitch_bend_c, 3, 7356
5, 24895, Pitch_bend_c, 3, 7292
5, 24897, Pitch_bend_c, 3, 7196
5, 24900, Pitch_bend_c, 3, 7131
5, 24902, Pitch_bend_c, 3, 7003
5, 24903, Pitch_bend_c, 3, 6874
5, 24905, Pitch_bend_c, 3, 6810
5, 24907, Pitch_bend_c, 3, 6714
5, 24910, Pitch_bend_c, 3, 6521
5, 24912, Pitch_bend_c, 3, 6392
5, 24914, Pitch_bend_c, 3, 6296
5, 24915, Pitch_bend_c, 3, 6103
5, 24918, Pitch_bend_c, 3, 5943
5, 24920, Pitch_bend_c, 3, 5814
5, 24922, Pitch_bend_c, 3, 5621
5, 24924, Pitch_bend_c, 3, 5493
5, 24927, Pitch_bend_c, 3, 5332
5, 24929, Pitch_bend_c, 3, 5236
5, 24931, Pitch_bend_c, 3, 5043
5, 24932, Pitch_bend_c, 3, 4883
5, 24934, Pitch_bend_c, 3, 4722
5, 24937, Pitch_bend_c, 3, 4593
5, 24939, Pitch_bend_c, 3, 4433
5, 24940, Pitch_bend_c, 3, 4304
5, 24942, Pitch_bend_c, 3, 4079
5, 24945, Pitch_bend_c, 3, 3887
5, 24947, Pitch_bend_c, 3, 3758
5, 24949, Pitch_bend_c, 3, 3533
5, 24951, Pitch_bend_c, 3, 3405
5, 24953, Pitch_bend_c, 3, 3244
5, 24956, Pitch_bend_c, 3, 3051
5, 24958, Pitch_bend_c, 3, 2955
5, 24960, Pitch_bend_c, 3, 2762
5, 24962, Pitch_bend_c, 3, 2473
5, 24964, Pitch_bend_c, 3, 2280
5, 24966, Pitch_bend_c, 3, 2023
5, 24968, Pitch_bend_c, 3, 1831
5, 24970, Pitch_bend_c, 3, 1574
5, 24972, Pitch_bend_c, 3, 1252
5, 24974, Pitch_bend_c, 3, 1124
5, 24976, Pitch_bend_c, 3, 931
5, 24978, Pitch_bend_c, 3, 738
5, 24981, Pitch_bend_c, 3, 674
5, 24983, Pitch_bend_c, 3, 546
5, 24985, Pitch_bend_c, 3, 353
5, 24986, Pitch_bend_c, 3, 289
5, 24989, Pitch_bend_c, 3, 160
5, 24991, Pitch_bend_c, 3, 96
5, 24993, Pitch_bend_c, 3, 32
5, 24994, Pitch_bend_c, 3, 0
5, 25311, Control_c, 3, 64, 127
5, 25474, Note_on_c, 3, 70, 0
5, 25686, Note_on_c, 3, 58, 69
5, 25767, Control_c, 3, 64, 0
5, 25879, Pitch_bend_c, 3, 160
5, 25881, Pitch_bend_c, 3, 353
5, 25883, Pitch_bend_c, 3, 546
5, 25886, Pitch_bend_c, 3, 738
5, 25887, Pitch_bend_c, 3, 995
5, 25889, Pitch_bend_c, 3, 1252
5, 25891, Pitch_bend_c, 3, 1509
5, 25893, Pitch_bend_c, 3, 1766
5, 25896, Pitch_bend_c, 3, 2023
5, 25898, Pitch_bend_c, 3, 2216
5, 25899, Pitch_bend_c, 3, 2473
5, 25902, Pitch_bend_c, 3, 2602
5, 25904, Pitch_bend_c, 3, 2794
5, 25906, Pitch_bend_c, 3, 2955
5, 25908, Pitch_bend_c, 3, 3051
5, 25911, Pitch_bend_c, 3, 3116
5, 25913, Pitch_bend_c, 3, 3180
5, 25915, Pitch_bend_c, 3, 3244
5, 25916, Pitch_bend_c, 3, 3276
5, 25918, Pitch_bend_c, 3, 3341
5, 25920, Pitch_bend_c, 3, 3405
5, 25923, Pitch_bend_c, 3, 3437
5, 25925, Pitch_bend_c, 3, 3501
5, 25927, Pitch_bend_c, 3, 3565
5, 25929, Pitch_bend_c, 3, 3598
5, 25933, Pitch_bend_c, 3, 3662
5, 25935, Pitch_bend_c, 3, 3726
5, 25938, Pitch_bend_c, 3, 3790
5, 25940, Pitch_bend_c, 3, 3822
5, 25942, Pitch_bend_c, 3, 3887
5, 25944, Pitch_bend_c, 3, 3919
5, 25945, Pitch_bend_c, 3, 4015
5, 25948, Pitch_bend_c, 3, 4144
5, 25950, Pitch_bend_c, 3, 4240
5, 25952, Pitch_bend_c, 3, 4304
5, 25954, Pitch_bend_c, 3, 4401
5, 25956, Pitch_bend_c, 3, 4433
5, 25958, Pitch_bend_c, 3, 4497
5, 25960, Pitch_bend_c, 3, 4593
5, 25963, Pitch_bend_c, 3, 4626
5, 25964, Pitch_bend_c, 3, 4658
5, 25967, Pitch_bend_c, 3, 4690
5, 25969, Pitch_bend_c, 3, 4722
5, 25970, Pitch_bend_c, 3, 4754
5, 25973, Pitch_bend_c, 3, 4818
5, 25975, Pitch_bend_c, 3, 4850
5, 25979, Pitch_bend_c, 3, 4915
5, 25980, Pitch_bend_c, 3, 4979
5, 25983, Pitch_bend_c, 3, 5043
5, 25987, Pitch_bend_c, 3, 5107
5, 25992, Pitch_bend_c, 3, 5172
5, 25994, Pitch_bend_c, 3, 5204
5, 25996, Pitch_bend_c, 3, 5268
5, 25997, Pitch_bend_c, 3, 5300
5, 26000, Pitch_bend_c, 3, 5364
5, 26002, Pitch_bend_c, 3, 5397
5, 26004, Pitch_bend_c, 3, 5461
5, 26006, Pitch_bend_c, 3, 5493
5, 26008, Pitch_bend_c, 3, 5557
5, 26010, Pitch_bend_c, 3, 5621
5, 26012, Pitch_bend_c, 3, 5686
5, 26014, Pitch_bend_c, 3, 5814
5, 26016, Pitch_bend_c, 3, 5878
5, 26019, Pitch_bend_c, 3, 5943
5, 26021, Pitch_bend_c, 3, 6071
5, 26023, Pitch_bend_c, 3, 6103
5, 26025, Pitch_bend_c, 3, 6135
5, 26027, Pitch_bend_c, 3, 6200
5, 26029, Pitch_bend_c, 3, 6264
5, 26031, Pitch_bend_c, 3, 6328
5, 26036, Pitch_bend_c, 3, 6392
5, 26039, Pitch_bend_c, 3, 6457
5, 26043, Pitch_bend_c, 3, 6489
5, 26046, Pitch_bend_c, 3, 6521
5, 26048, Pitch_bend_c, 3, 6553
5, 26052, Pitch_bend_c, 3, 6617
5, 26054, Pitch_bend_c, 3, 6649
5, 26056, Pitch_bend_c, 3, 6682
5, 26058, Pitch_bend_c, 3, 6746
5, 26065, Pitch_bend_c, 3, 6810
5, 26067, Pitch_bend_c, 3, 6874
5, 26068, Pitch_bend_c, 3, 6939
5, 26071, Pitch_bend_c, 3, 6971
5, 26073, Pitch_bend_c, 3, 7035
5, 26075, Pitch_bend_c, 3, 7099
5, 26076, Pitch_bend_c, 3, 7163
5, 26079, Pitch_bend_c, 3, 7196
5, 26081, Pitch_bend_c, 3, 7292
5, 26083, Pitch_bend_c, 3, 7356
5, 26085, Pitch_bend_c, 3, 7420
5, 26087, Pitch_bend_c, 3, 7485
5, 26090, Pitch_bend_c, 3, 7549
5, 26094, Pitch_bend_c, 3, 7613
5, 26095, Pitch_bend_c, 3, 7677
5, 26098, Pitch_bend_c, 3, 7710
5, 26101, Pitch_bend_c, 3, 7742
5, 26102, Pitch_bend_c, 3, 7806
5, 26104, Pitch_bend_c, 3, 7838
5, 26106, Pitch_bend_c, 3, 7902
5, 26108, Pitch_bend_c, 3, 7967
5, 26110, Pitch_bend_c, 3, 7999
5, 26113, Pitch_bend_c, 3, 8063
5, 26115, Pitch_bend_c, 3, 8192
5, 26305, Control_c, 3, 64, 127
5, 26400, Note_on_c, 3, 58, 0
5, 26647, Note_on_c, 3, 70, 62
5, 26678, Control_c, 3, 64, 0
5, 26798, Pitch_bend_c, 3, 8063
5, 26800, Pitch_bend_c, 3, 7934
5, 26802, Pitch_bend_c, 3, 7742
5, 26805, Pitch_bend_c, 3, 7677
5, 26807, Pitch_bend_c, 3, 7613
5, 26808, Pitch_bend_c, 3, 7485
5, 26810, Pitch_bend_c, 3, 7356
5, 26813, Pitch_bend_c, 3, 7260
5, 26815, Pitch_bend_c, 3, 7131
5, 26817, Pitch_bend_c, 3, 7035
5, 26819, Pitch_bend_c, 3, 6874
5, 26821, Pitch_bend_c, 3, 6842
5, 26823, Pitch_bend_c, 3, 6746
5, 26825, Pitch_bend_c, 3, 6553
5, 26827, Pitch_bend_c, 3, 6425
5, 26829, Pitch_bend_c, 3, 6296
5, 26832, Pitch_bend_c, 3, 6103
5, 26834, Pitch_bend_c, 3, 5975
5, 26836, Pitch_bend_c, 3, 5878
5, 26838, Pitch_bend_c, 3, 5686
5, 26840, Pitch_bend_c, 3, 5557
5, 26842, Pitch_bend_c, 3, 5493
5, 26844, Pitch_bend_c, 3, 5332
5, 26845, Pitch_bend_c, 3, 5236
5, 26848, Pitch_bend_c, 3, 5140
5, 26850, Pitch_bend_c, 3, 5043
5, 26852, Pitch_bend_c, 3, 4947
5, 26854, Pitch_bend_c, 3, 4850
5, 26857, Pitch_bend_c, 3, 4754
5, 26859, Pitch_bend_c, 3, 4658
5, 26861, Pitch_bend_c, 3, 4593
5, 26863, Pitch_bend_c, 3, 4465
5, 26865, Pitch_bend_c, 3, 4369
5, 26867, Pitch_bend_c, 3, 4272
5, 26869, Pitch_bend_c, 3, 4144
5, 26871, Pitch_bend_c, 3, 3983
5, 26873, Pitch_bend_c, 3, 3887
5, 26874, Pitch_bend_c, 3, 3855
5, 26877, Pitch_bend_c, 3, 3758
5, 26879, Pitch_bend_c, 3, 3694
5, 26882, Pitch_bend_c, 3, 3533
5, 26883, Pitch_bend_c, 3, 3469
5, 26886, Pitch_bend_c, 3, 3373
5, 26888, Pitch_bend_c, 3, 3308
5, 26890, Pitch_bend_c, 3, 3244
5, 26892, Pitch_bend_c, 3, 3148
5, 26894, Pitch_bend_c, 3, 3051
5, 26896, Pitch_bend_c, 3, 3019
5, 26898, Pitch_bend_c, 3, 2955
5, 26900, Pitch_bend_c, 3, 2923
5, 26902, Pitch_bend_c, 3, 2794
5, 26904, Pitch_bend_c, 3, 2730
5, 26906, Pitch_bend_c, 3, 2602
5, 26908, Pitch_bend_c, 3, 2537
5, 26910, Pitch_bend_c, 3, 2473
5, 26913, Pitch_bend_c, 3, 2409
5, 26915, Pitch_bend_c, 3, 2345
5, 26917, Pitch_bend_c, 3, 2216
5, 26919, Pitch_bend_c, 3, 2152
5, 26921, Pitch_bend_c, 3, 2088
5, 26923, Pitch_bend_c, 3, 2023
5, 26925, Pitch_bend_c, 3, 1959
5, 26928, Pitch_bend_c, 3, 1895
5, 26930, Pitch_bend_c, 3, 1831
5, 26931, Pitch_bend_c, 3, 1766
5, 26933, Pitch_bend_c, 3, 1702
5, 26936, Pitch_bend_c, 3, 1574
5, 26938, Pitch_bend_c, 3, 1445
5, 26940, Pitch_bend_c, 3, 1317
5, 26941, Pitch_bend_c, 3, 1188
5, 26943, Pitch_bend_c, 3, 1060
5, 26946, Pitch_bend_c, 3, 931
5, 26948, Pitch_bend_c, 3, 738
5, 26950, Pitch_bend_c, 3, 674
5, 26952, Pitch_bend_c, 3, 546
5, 26955, Pitch_bend_c, 3, 417
5, 26957, Pitch_bend_c, 3, 353
5, 26959, Pitch_bend_c, 3, 224
5, 26965, Pitch_bend_c, 3, 160
5, 26975, Pitch_bend_c, 3, 96
5, 26977, Pitch_bend_c, 3, 32
5, 26982, Pitch_bend_c, 3, 0
5, 27394, Control_c, 3, 64, 127
5, 27468, Note_on_c, 3, 70, 0
5, 27606, Note_on_c, 3, 58, 77
5, 27638, Control_c, 3, 64, 0
5, 27745, Pitch_bend_c, 3, 96
5, 27747, Pitch_bend_c, 3, 224
5, 27749, Pitch_bend_c, 3, 353
5, 27751, Pitch_bend_c, 3, 546
5, 27753, Pitch_bend_c, 3, 674
5, 27755, Pitch_bend_c, 3, 867
5, 27757, Pitch_bend_c, 3, 1060
5, 27759, Pitch_bend_c, 3, 1252
5, 27761, Pitch_bend_c, 3, 1509
5, 27763, Pitch_bend_c, 3, 1702
5, 27765, Pitch_bend_c, 3, 1831
5, 27767, Pitch_bend_c, 3, 1959
5, 27770, Pitch_bend_c, 3, 2088
5, 27772, Pitch_bend_c, 3, 2216
5, 27774, Pitch_bend_c, 3, 2409
5, 27775, Pitch_bend_c, 3, 2537
5, 27778, Pitch_bend_c, 3, 2602
5, 27780, Pitch_bend_c, 3, 2666
5, 27782, Pitch_bend_c, 3, 2794
5, 27784, Pitch_bend_c, 3, 2923
5, 27786, Pitch_bend_c, 3, 3019
5, 27789, Pitch_bend_c, 3, 3084
5, 27791, Pitch_bend_c, 3, 3212
5, 27792, Pitch_bend_c, 3, 3308
5, 27794, Pitch_bend_c, 3, 3469
5, 27797, Pitch_bend_c, 3, 3630
5, 27799, Pitch_bend_c, 3, 3790
5, 27801, Pitch_bend_c, 3, 3919
5, 27803, Pitch_bend_c, 3, 4112
5, 27805, Pitch_bend_c, 3, 4272
5, 27807, Pitch_bend_c, 3, 4401
5, 27809, Pitch_bend_c, 3, 4497
5, 27811, Pitch_bend_c, 3, 4626
5, 27813, Pitch_bend_c, 3, 4722
5, 27816, Pitch_bend_c, 3, 4883
5, 27818, Pitch_bend_c, 3, 5011
5, 27820, Pitch_bend_c, 3, 5107
5, 27822, Pitch_bend_c, 3, 5268
5, 27824, Pitch_bend_c, 3, 5364
5, 27826, Pitch_bend_c, 3, 5493
5, 27828, Pitch_bend_c, 3, 5654
5, 27830, Pitch_bend_c, 3, 5782
5, 27831, Pitch_bend_c, 3, 5943
5, 27834, Pitch_bend_c, 3, 6071
5, 27836, Pitch_bend_c, 3, 6200
5, 27838, Pitch_bend_c, 3, 6296
5, 27840, Pitch_bend_c, 3, 6392
5, 27843, Pitch_bend_c, 3, 6489
5, 27845, Pitch_bend_c, 3, 6553
5, 27847, Pitch_bend_c, 3, 6649
5, 27849, Pitch_bend_c, 3, 6714
5, 27853, Pitch_bend_c, 3, 6842
5, 27854, Pitch_bend_c, 3, 6939
5, 27857, Pitch_bend_c, 3, 7003
5, 27859, Pitch_bend_c, 3, 7099
5, 27861, Pitch_bend_c, 3, 7163
5, 27863, Pitch_bend_c, 3, 7260
5, 27866, Pitch_bend_c, 3, 7324
5, 27868, Pitch_bend_c, 3, 7420
5, 27870, Pitch_bend_c, 3, 7517
5, 27872, Pitch_bend_c, 3, 7581
5, 27874, Pitch_bend_c, 3, 7710
5, 27876, Pitch_bend_c, 3, 7774
5, 27878, Pitch_bend_c, 3, 7870
5, 27880, Pitch_bend_c, 3, 7967
5, 27882, Pitch_bend_c, 3, 8063
5, 27884, Pitch_bend_c, 3, 8192
5, 28030, Control_c, 3, 64, 127
5, 28161, Note_on_c, 3, 58, 0
5, 28560, Note_on_c, 3, 70, 77
5, 28686, Control_c, 3, 64, 0
5, 28724, Pitch_bend_c, 3, 8031
5, 28726, Pitch_bend_c, 3, 7934
5, 28728, Pitch_bend_c, 3, 7870
5, 28730, Pitch_bend_c, 3, 7774
5, 28732, Pitch_bend_c, 3, 7710
5, 28735, Pitch_bend_c, 3, 7581
5, 28737, Pitch_bend_c, 3, 7517
5, 28739, Pitch_bend_c, 3, 7388
5, 28740, Pitch_bend_c, 3, 7260
5, 28743, Pitch_bend_c, 3, 7099
5, 28745, Pitch_bend_c, 3, 6939
5, 28747, Pitch_bend_c, 3, 6778
5, 28749, Pitch_bend_c, 3, 6649
5, 28751, Pitch_bend_c, 3, 6489
5, 28753, Pitch_bend_c, 3, 6392
5, 28755, Pitch_bend_c, 3, 6232
5, 28757, Pitch_bend_c, 3, 6103
5, 28759, Pitch_bend_c, 3, 5975
5, 28762, Pitch_bend_c, 3, 5846
5, 28764, Pitch_bend_c, 3, 5750
5, 28766, Pitch_bend_c, 3, 5589
5, 28768, Pitch_bend_c, 3, 5525
5, 28770, Pitch_bend_c, 3, 5429
5, 28772, Pitch_bend_c, 3, 5332
5, 28774, Pitch_bend_c, 3, 5236
5, 28776, Pitch_bend_c, 3, 5172
5, 28777, Pitch_bend_c, 3, 5075
5, 28780, Pitch_bend_c, 3, 5011
5, 28782, Pitch_bend_c, 3, 4915
5, 28784, Pitch_bend_c, 3, 4818
5, 28787, Pitch_bend_c, 3, 4690
5, 28789, Pitch_bend_c, 3, 4561
5, 28791, Pitch_bend_c, 3, 4465
5, 28793, Pitch_bend_c, 3, 4401
5, 28795, Pitch_bend_c, 3, 4304
5, 28797, Pitch_bend_c, 3, 4208
5, 28799, Pitch_bend_c, 3, 4079
5, 28801, Pitch_bend_c, 3, 3951
5, 28803, Pitch_bend_c, 3, 3855
5, 28806, Pitch_bend_c, 3, 3822
5, 28807, Pitch_bend_c, 3, 3758
5, 28809, Pitch_bend_c, 3, 3694
5, 28811, Pitch_bend_c, 3, 3565
5, 28813, Pitch_bend_c, 3, 3533
5, 28816, Pitch_bend_c, 3, 3469
5, 28818, Pitch_bend_c, 3, 3405
5, 28820, Pitch_bend_c, 3, 3373
5, 28821, Pitch_bend_c, 3, 3308
5, 28824, Pitch_bend_c, 3, 3276
5, 28826, Pitch_bend_c, 3, 3212
5, 28828, Pitch_bend_c, 3, 3148
5, 28830, Pitch_bend_c, 3, 3084
5, 28832, Pitch_bend_c, 3, 3051
5, 28835, Pitch_bend_c, 3, 3019
5, 28837, Pitch_bend_c, 3, 2987
5, 28838, Pitch_bend_c, 3, 2955
5, 28841, Pitch_bend_c, 3, 2923
5, 28843, Pitch_bend_c, 3, 2859
5, 28845, Pitch_bend_c, 3, 2762
5, 28847, Pitch_bend_c, 3, 2730
5, 28848, Pitch_bend_c, 3, 2602
5, 28851, Pitch_bend_c, 3, 2537
5, 28853, Pitch_bend_c, 3, 2473
5, 28855, Pitch_bend_c, 3, 2345
5, 28858, Pitch_bend_c, 3, 2280
5, 28860, Pitch_bend_c, 3, 2088
5, 28862, Pitch_bend_c, 3, 2023
5, 28864, Pitch_bend_c, 3, 1895
5, 28866, Pitch_bend_c, 3, 1831
5, 28867, Pitch_bend_c, 3, 1702
5, 28870, Pitch_bend_c, 3, 1574
5, 28872, Pitch_bend_c, 3, 1445
5, 28873, Pitch_bend_c, 3, 1317
5, 28876, Pitch_bend_c, 3, 1252
5, 28878, Pitch_bend_c, 3, 1188
5, 28880, Pitch_bend_c, 3, 1124
5, 28885, Pitch_bend_c, 3, 995
5, 28887, Pitch_bend_c, 3, 931
5, 28889, Pitch_bend_c, 3, 867
5, 28890, Pitch_bend_c, 3, 803
5, 28893, Pitch_bend_c, 3, 738
5, 28895, Pitch_bend_c, 3, 674
5, 28899, Pitch_bend_c, 3, 610
5, 28901, Pitch_bend_c, 3, 546
5, 28905, Pitch_bend_c, 3, 417
5, 28910, Pitch_bend_c, 3, 289
5, 28914, Pitch_bend_c, 3, 224
5, 28920, Pitch_bend_c, 3, 160
5, 28932, Pitch_bend_c, 3, 96
5, 28941, Pitch_bend_c, 3, 32
5, 28943, Pitch_bend_c, 3, 96
5, 28945, Pitch_bend_c, 3, 32
5, 28949, Pitch_bend_c, 3, 0
5, 29125, Control_c, 3, 64, 127
5, 29308, Note_on_c, 3, 70, 0
5, 29514, Note_on_c, 3, 58, 79
5, 29546, Control_c, 3, 64, 0
5, 29710, Pitch_bend_c, 3, 96
5, 29712, Pitch_bend_c, 3, 224
5, 29714, Pitch_bend_c, 3, 353
5, 29716, Pitch_bend_c, 3, 417
5, 29718, Pitch_bend_c, 3, 546
5, 29721, Pitch_bend_c, 3, 738
5, 29723, Pitch_bend_c, 3, 931
5, 29725, Pitch_bend_c, 3, 1124
5, 29726, Pitch_bend_c, 3, 1252
5, 29728, Pitch_bend_c, 3, 1317
5, 29731, Pitch_bend_c, 3, 1638
5, 29733, Pitch_bend_c, 3, 1766
5, 29735, Pitch_bend_c, 3, 1895
5, 29736, Pitch_bend_c, 3, 2023
5, 29739, Pitch_bend_c, 3, 2152
5, 29741, Pitch_bend_c, 3, 2345
5, 29744, Pitch_bend_c, 3, 2537
5, 29746, Pitch_bend_c, 3, 2602
5, 29748, Pitch_bend_c, 3, 2762
5, 29750, Pitch_bend_c, 3, 2923
5, 29752, Pitch_bend_c, 3, 3051
5, 29754, Pitch_bend_c, 3, 3180
5, 29756, Pitch_bend_c, 3, 3276
5, 29758, Pitch_bend_c, 3, 3405
5, 29760, Pitch_bend_c, 3, 3565
5, 29762, Pitch_bend_c, 3, 3726
5, 29764, Pitch_bend_c, 3, 3855
5, 29766, Pitch_bend_c, 3, 3951
5, 29768, Pitch_bend_c, 3, 4079
5, 29770, Pitch_bend_c, 3, 4240
5, 29773, Pitch_bend_c, 3, 4304
5, 29775, Pitch_bend_c, 3, 4369
5, 29777, Pitch_bend_c, 3, 4433
5, 29779, Pitch_bend_c, 3, 4465
5, 29783, Pitch_bend_c, 3, 4497
5, 29787, Pitch_bend_c, 3, 4529
5, 29790, Pitch_bend_c, 3, 4561
5, 29791, Pitch_bend_c, 3, 4593
5, 29795, Pitch_bend_c, 3, 4626
5, 29798, Pitch_bend_c, 3, 4690
5, 29800, Pitch_bend_c, 3, 4722
5, 29802, Pitch_bend_c, 3, 4786
5, 29804, Pitch_bend_c, 3, 4850
5, 29806, Pitch_bend_c, 3, 4883
5, 29808, Pitch_bend_c, 3, 4947
5, 29810, Pitch_bend_c, 3, 4979
5, 29812, Pitch_bend_c, 3, 5043
5, 29814, Pitch_bend_c, 3, 5075
5, 29817, Pitch_bend_c, 3, 5140
5, 29819, Pitch_bend_c, 3, 5204
5, 29821, Pitch_bend_c, 3, 5268
5, 29822, Pitch_bend_c, 3, 5332
5, 29824, Pitch_bend_c, 3, 5364
5, 29827, Pitch_bend_c, 3, 5493
5, 29829, Pitch_bend_c, 3, 5557
5, 29831, Pitch_bend_c, 3, 5621
5, 29833, Pitch_bend_c, 3, 5750
5, 29835, Pitch_bend_c, 3, 5846
5, 29837, Pitch_bend_c, 3, 5943
5, 29839, Pitch_bend_c, 3, 6039
5, 29841, Pitch_bend_c, 3, 6103
5, 29844, Pitch_bend_c, 3, 6135
5, 29846, Pitch_bend_c, 3, 6232
5, 29848, Pitch_bend_c, 3, 6328
5, 29850, Pitch_bend_c, 3, 6392
5, 29852, Pitch_bend_c, 3, 6425
5, 29854, Pitch_bend_c, 3, 6489
5, 29856, Pitch_bend_c, 3, 6553
5, 29857, Pitch_bend_c, 3, 6617
5, 29860, Pitch_bend_c, 3, 6682
5, 29862, Pitch_bend_c, 3, 6746
5, 29864, Pitch_bend_c, 3, 6810
5, 29866, Pitch_bend_c, 3, 6906
5, 29869, Pitch_bend_c, 3, 6971
5, 29871, Pitch_bend_c, 3, 7035
5, 29873, Pitch_bend_c, 3, 7099
5, 29875, Pitch_bend_c, 3, 7163
5, 29877, Pitch_bend_c, 3, 7228
5, 29879, Pitch_bend_c, 3, 7292
5, 29881, Pitch_bend_c, 3, 7356
5, 29883, Pitch_bend_c, 3, 7420
5, 29884, Pitch_bend_c, 3, 7485
5, 29886, Pitch_bend_c, 3, 7549
5, 29889, Pitch_bend_c, 3, 7613
5, 29891, Pitch_bend_c, 3, 7677
5, 29893, Pitch_bend_c, 3, 7742
5, 29896, Pitch_bend_c, 3, 7806
5, 29898, Pitch_bend_c, 3, 7902
5, 29900, Pitch_bend_c, 3, 7967
5, 29902, Pitch_bend_c, 3, 8031
5, 29904, Pitch_bend_c, 3, 8192
5, 30044, Control_c, 3, 64, 127
5, 30142, Note_on_c, 3, 58, 0
5, 30465, Note_on_c, 3, 70, 84
5, 30470, Control_c, 3, 64, 0
5, 30599, Control_c, 3, 64, 127
5, 30635, Control_c, 3, 64, 0
5, 30658, Pitch_bend_c, 3, 7967
5, 30660, Pitch_bend_c, 3, 7806
5, 30662, Pitch_bend_c, 3, 7710
5, 30664, Pitch_bend_c, 3, 7613
5, 30667, Pitch_bend_c, 3, 7549
5, 30669, Pitch_bend_c, 3, 7485
5, 30671, Pitch_bend_c, 3, 7420
5, 30673, Pitch_bend_c, 3, 7356
5, 30675, Pitch_bend_c, 3, 7292
5, 30677, Pitch_bend_c, 3, 7163
5, 30679, Pitch_bend_c, 3, 7067
5, 30681, Pitch_bend_c, 3, 6939
5, 30683, Pitch_bend_c, 3, 6746
5, 30685, Pitch_bend_c, 3, 6682
5, 30687, Pitch_bend_c, 3, 6521
5, 30689, Pitch_bend_c, 3, 6360
5, 30691, Pitch_bend_c, 3, 6232
5, 30694, Pitch_bend_c, 3, 6071
5, 30696, Pitch_bend_c, 3, 5911
5, 30697, Pitch_bend_c, 3, 5782
5, 30700, Pitch_bend_c, 3, 5654
5, 30702, Pitch_bend_c, 3, 5525
5, 30704, Pitch_bend_c, 3, 5397
5, 30706, Pitch_bend_c, 3, 5300
5, 30708, Pitch_bend_c, 3, 5204
5, 30711, Pitch_bend_c, 3, 5140
5, 30713, Pitch_bend_c, 3, 5043
5, 30714, Pitch_bend_c, 3, 4947
5, 30716, Pitch_bend_c, 3, 4818
5, 30719, Pitch_bend_c, 3, 4658
5, 30721, Pitch_bend_c, 3, 4529
5, 30723, Pitch_bend_c, 3, 4433
5, 30725, Pitch_bend_c, 3, 4272
5, 30726, Pitch_bend_c, 3, 4015
5, 30729, Pitch_bend_c, 3, 3855
5, 30731, Pitch_bend_c, 3, 3758
5, 30733, Pitch_bend_c, 3, 3565
5, 30736, Pitch_bend_c, 3, 3469
5, 30738, Pitch_bend_c, 3, 3373
5, 30740, Pitch_bend_c, 3, 3308
5, 30742, Pitch_bend_c, 3, 3212
5, 30743, Pitch_bend_c, 3, 3116
5, 30746, Pitch_bend_c, 3, 3084
5, 30748, Pitch_bend_c, 3, 3051
5, 30750, Pitch_bend_c, 3, 3019
5, 30752, Pitch_bend_c, 3, 2955
5, 30754, Pitch_bend_c, 3, 2891
5, 30756, Pitch_bend_c, 3, 2762
5, 30758, Pitch_bend_c, 3, 2666
5, 30760, Pitch_bend_c, 3, 2537
5, 30762, Pitch_bend_c, 3, 2409
5, 30765, Pitch_bend_c, 3, 2280
5, 30767, Pitch_bend_c, 3, 2152
5, 30768, Pitch_bend_c, 3, 2023
5, 30771, Pitch_bend_c, 3, 1959
5, 30773, Pitch_bend_c, 3, 1895
5, 30775, Pitch_bend_c, 3, 1766
5, 30777, Pitch_bend_c, 3, 1702
5, 30779, Pitch_bend_c, 3, 1509
5, 30781, Pitch_bend_c, 3, 1381
5, 30783, Pitch_bend_c, 3, 1252
5, 30785, Pitch_bend_c, 3, 1124
5, 30788, Pitch_bend_c, 3, 995
5, 30789, Pitch_bend_c, 3, 803
5, 30792, Pitch_bend_c, 3, 610
5, 30794, Pitch_bend_c, 3, 546
5, 30796, Pitch_bend_c, 3, 353
5, 30798, Pitch_bend_c, 3, 224
5, 30800, Pitch_bend_c, 3, 160
5, 30802, Pitch_bend_c, 3, 96
5, 30804, Pitch_bend_c, 3, 32
5, 30806, Pitch_bend_c, 3, 0
5, 31211, Control_c, 3, 64, 127
5, 31294, Note_on_c, 3, 70, 0
5, 31437, Note_on_c, 3, 58, 89
5, 31441, Control_c, 3, 64, 0
5, 31578, Pitch_bend_c, 3, 160
5, 31580, Pitch_bend_c, 3, 417
5, 31582, Pitch_bend_c, 3, 610
5, 31584, Pitch_bend_c, 3, 931
5, 31585, Pitch_bend_c, 3, 1188
5, 31588, Pitch_bend_c, 3, 1317
5, 31590, Pitch_bend_c, 3, 1702
5, 31592, Pitch_bend_c, 3, 1895
5, 31594, Pitch_bend_c, 3, 2088
5, 31596, Pitch_bend_c, 3, 2409
5, 31599, Pitch_bend_c, 3, 2602
5, 31601, Pitch_bend_c, 3, 2923
5, 31603, Pitch_bend_c, 3, 3051
5, 31605, Pitch_bend_c, 3, 3276
5, 31606, Pitch_bend_c, 3, 3437
5, 31609, Pitch_bend_c, 3, 3662
5, 31611, Pitch_bend_c, 3, 3855
5, 31612, Pitch_bend_c, 3, 4079
5, 31614, Pitch_bend_c, 3, 4272
5, 31617, Pitch_bend_c, 3, 4433
5, 31619, Pitch_bend_c, 3, 4593
5, 31621, Pitch_bend_c, 3, 4722
5, 31623, Pitch_bend_c, 3, 4850
5, 31626, Pitch_bend_c, 3, 4979
5, 31628, Pitch_bend_c, 3, 5011
5, 31630, Pitch_bend_c, 3, 5075
5, 31634, Pitch_bend_c, 3, 5107
5, 31636, Pitch_bend_c, 3, 5140
5, 31638, Pitch_bend_c, 3, 5204
5, 31639, Pitch_bend_c, 3, 5236
5, 31642, Pitch_bend_c, 3, 5300
5, 31644, Pitch_bend_c, 3, 5332
5, 31646, Pitch_bend_c, 3, 5397
5, 31648, Pitch_bend_c, 3, 5525
5, 31651, Pitch_bend_c, 3, 5589
5, 31653, Pitch_bend_c, 3, 5686
5, 31655, Pitch_bend_c, 3, 5814
5, 31656, Pitch_bend_c, 3, 5878
5, 31658, Pitch_bend_c, 3, 5975
5, 31661, Pitch_bend_c, 3, 6071
5, 31663, Pitch_bend_c, 3, 6168
5, 31665, Pitch_bend_c, 3, 6328
5, 31667, Pitch_bend_c, 3, 6392
5, 31669, Pitch_bend_c, 3, 6489
5, 31671, Pitch_bend_c, 3, 6585
5, 31673, Pitch_bend_c, 3, 6682
5, 31675, Pitch_bend_c, 3, 6714
5, 31678, Pitch_bend_c, 3, 6874
5, 31680, Pitch_bend_c, 3, 6939
5, 31682, Pitch_bend_c, 3, 7035
5, 31684, Pitch_bend_c, 3, 7131
5, 31686, Pitch_bend_c, 3, 7196
5, 31688, Pitch_bend_c, 3, 7292
5, 31690, Pitch_bend_c, 3, 7356
5, 31692, Pitch_bend_c, 3, 7453
5, 31695, Pitch_bend_c, 3, 7549
5, 31697, Pitch_bend_c, 3, 7581
5, 31698, Pitch_bend_c, 3, 7645
5, 31700, Pitch_bend_c, 3, 7710
5, 31703, Pitch_bend_c, 3, 7742
5, 31705, Pitch_bend_c, 3, 7806
5, 31707, Pitch_bend_c, 3, 7870
5, 31709, Pitch_bend_c, 3, 7934
5, 31711, Pitch_bend_c, 3, 7967
5, 31713, Pitch_bend_c, 3, 7999
5, 31715, Pitch_bend_c, 3, 8192
5, 31927, Control_c, 3, 64, 127
5, 31991, Note_on_c, 3, 58, 0
5, 32395, Note_on_c, 3, 70, 84
5, 32396, Control_c, 3, 64, 0
5, 32507, Pitch_bend_c, 3, 7967
5, 32509, Pitch_bend_c, 3, 7902
5, 32511, Pitch_bend_c, 3, 7710
5, 32513, Pitch_bend_c, 3, 7677
5, 32515, Pitch_bend_c, 3, 7549
5, 32518, Pitch_bend_c, 3, 7420
5, 32520, Pitch_bend_c, 3, 7292
5, 32522, Pitch_bend_c, 3, 7196
5, 32523, Pitch_bend_c, 3, 7067
5, 32526, Pitch_bend_c, 3, 6906
5, 32528, Pitch_bend_c, 3, 6842
5, 32530, Pitch_bend_c, 3, 6778
5, 32532, Pitch_bend_c, 3, 6649
5, 32534, Pitch_bend_c, 3, 6521
5, 32536, Pitch_bend_c, 3, 6457
5, 32538, Pitch_bend_c, 3, 6360
5, 32540, Pitch_bend_c, 3, 6296
5, 32543, Pitch_bend_c, 3, 6232
5, 32545, Pitch_bend_c, 3, 6135
5, 32547, Pitch_bend_c, 3, 6071
5, 32548, Pitch_bend_c, 3, 6039
5, 32551, Pitch_bend_c, 3, 6007
5, 32553, Pitch_bend_c, 3, 5943
5, 32555, Pitch_bend_c, 3, 5911
5, 32557, Pitch_bend_c, 3, 5814
5, 32559, Pitch_bend_c, 3, 5718
5, 32561, Pitch_bend_c, 3, 5621
5, 32563, Pitch_bend_c, 3, 5557
5, 32565, Pitch_bend_c, 3, 5493
5, 32567, Pitch_bend_c, 3, 5397
5, 32570, Pitch_bend_c, 3, 5364
5, 32572, Pitch_bend_c, 3, 5300
5, 32574, Pitch_bend_c, 3, 5236
5, 32575, Pitch_bend_c, 3, 5172
5, 32578, Pitch_bend_c, 3, 5107
5, 32580, Pitch_bend_c, 3, 5011
5, 32582, Pitch_bend_c, 3, 4915
5, 32584, Pitch_bend_c, 3, 4850
5, 32587, Pitch_bend_c, 3, 4786
5, 32589, Pitch_bend_c, 3, 4690
5, 32590, Pitch_bend_c, 3, 4626
5, 32592, Pitch_bend_c, 3, 4593
5, 32594, Pitch_bend_c, 3, 4497
5, 32597, Pitch_bend_c, 3, 4401
5, 32599, Pitch_bend_c, 3, 4272
5, 32601, Pitch_bend_c, 3, 4176
5, 32602, Pitch_bend_c, 3, 3983
5, 32605, Pitch_bend_c, 3, 3887
5, 32607, Pitch_bend_c, 3, 3790
5, 32609, Pitch_bend_c, 3, 3726
5, 32611, Pitch_bend_c, 3, 3565
5, 32614, Pitch_bend_c, 3, 3501
5, 32616, Pitch_bend_c, 3, 3437
5, 32618, Pitch_bend_c, 3, 3341
5, 32619, Pitch_bend_c, 3, 3276
5, 32622, Pitch_bend_c, 3, 3180
5, 32624, Pitch_bend_c, 3, 3084
5, 32626, Pitch_bend_c, 3, 3051
5, 32628, Pitch_bend_c, 3, 2987
5, 32630, Pitch_bend_c, 3, 2891
5, 32632, Pitch_bend_c, 3, 2762
5, 32634, Pitch_bend_c, 3, 2602
5, 32636, Pitch_bend_c, 3, 2537
5, 32638, Pitch_bend_c, 3, 2473
5, 32641, Pitch_bend_c, 3, 2280
5, 32643, Pitch_bend_c, 3, 2152
5, 32645, Pitch_bend_c, 3, 2023
5, 32647, Pitch_bend_c, 3, 1895
5, 32649, Pitch_bend_c, 3, 1766
5, 32651, Pitch_bend_c, 3, 1702
5, 32653, Pitch_bend_c, 3, 1574
5, 32655, Pitch_bend_c, 3, 1445
5, 32657, Pitch_bend_c, 3, 1317
5, 32659, Pitch_bend_c, 3, 1252
5, 32661, Pitch_bend_c, 3, 1124
5, 32663, Pitch_bend_c, 3, 995
5, 32666, Pitch_bend_c, 3, 867
5, 32668, Pitch_bend_c, 3, 674
5, 32670, Pitch_bend_c, 3, 610
5, 32672, Pitch_bend_c, 3, 417
5, 32673, Pitch_bend_c, 3, 289
5, 32676, Pitch_bend_c, 3, 160
5, 32680, Pitch_bend_c, 3, 32
5, 32682, Pitch_bend_c, 3, 0
5, 33032, Control_c, 3, 64, 127
5, 33174, Note_on_c, 3, 70, 0
5, 33354, Control_c, 3, 64, 0
5, 33355, Note_on_c, 3, 58, 71
5, 33453, Pitch_bend_c, 3, 96
5, 33455, Pitch_bend_c, 3, 224
5, 33458, Pitch_bend_c, 3, 289
5, 33460, Pitch_bend_c, 3, 481
5, 33462, Pitch_bend_c, 3, 610
5, 33464, Pitch_bend_c, 3, 738
5, 33466, Pitch_bend_c, 3, 867
5, 33468, Pitch_bend_c, 3, 1060
5, 33470, Pitch_bend_c, 3, 1252
5, 33472, Pitch_bend_c, 3, 1509
5, 33474, Pitch_bend_c, 3, 1766
5, 33477, Pitch_bend_c, 3, 1959
5, 33479, Pitch_bend_c, 3, 2088
5, 33481, Pitch_bend_c, 3, 2345
5, 33483, Pitch_bend_c, 3, 2537
5, 33485, Pitch_bend_c, 3, 2666
5, 33487, Pitch_bend_c, 3, 2923
5, 33488, Pitch_bend_c, 3, 3051
5, 33490, Pitch_bend_c, 3, 3244
5, 33493, Pitch_bend_c, 3, 3437
5, 33495, Pitch_bend_c, 3, 3662
5, 33497, Pitch_bend_c, 3, 3855
5, 33500, Pitch_bend_c, 3, 4047
5, 33502, Pitch_bend_c, 3, 4304
5, 33504, Pitch_bend_c, 3, 4497
5, 33506, Pitch_bend_c, 3, 4658
5, 33508, Pitch_bend_c, 3, 4850
5, 33510, Pitch_bend_c, 3, 4979
5, 33512, Pitch_bend_c, 3, 5140
5, 33514, Pitch_bend_c, 3, 5332
5, 33515, Pitch_bend_c, 3, 5493
5, 33517, Pitch_bend_c, 3, 5589
5, 33520, Pitch_bend_c, 3, 5782
5, 33522, Pitch_bend_c, 3, 5975
5, 33524, Pitch_bend_c, 3, 6103
5, 33526, Pitch_bend_c, 3, 6296
5, 33529, Pitch_bend_c, 3, 6392
5, 33531, Pitch_bend_c, 3, 6489
5, 33533, Pitch_bend_c, 3, 6682
5, 33534, Pitch_bend_c, 3, 6746
5, 33537, Pitch_bend_c, 3, 6906
5, 33539, Pitch_bend_c, 3, 7067
5, 33541, Pitch_bend_c, 3, 7196
5, 33542, Pitch_bend_c, 3, 7388
5, 33545, Pitch_bend_c, 3, 7517
5, 33547, Pitch_bend_c, 3, 7645
5, 33549, Pitch_bend_c, 3, 7742
5, 33551, Pitch_bend_c, 3, 7870
5, 33554, Pitch_bend_c, 3, 7967
5, 33556, Pitch_bend_c, 3, 8192
5, 33600, Control_c, 3, 64, 127
5, 33610, Control_c, 3, 7, 120
5, 33620, Control_c, 3, 7, 118
5, 33630, Control_c, 3, 7, 116
5, 33640, Control_c, 3, 7, 114
5, 33650, Control_c, 3, 7, 112
5, 33660, Control_c, 3, 7, 110
5, 33670, Control_c, 3, 7, 108
5, 33680, Control_c, 3, 7, 106
5, 33690, Control_c, 3, 7, 104
5, 33700, Control_c, 3, 7, 102
5, 33710, Control_c, 3, 7, 99
5, 33720, Control_c, 3, 7, 97
5, 33730, Control_c, 3, 7, 95
5, 33740, Control_c, 3, 7, 93
5, 33750, Control_c, 3, 7, 91
5, 33760, Control_c, 3, 7, 89
5, 33770, Control_c, 3, 7, 87
5, 33780, Control_c, 3, 7, 85
5, 33790, Control_c, 3, 7, 83
5, 33800, Control_c, 3, 7, 81
5, 33810, Control_c, 3, 7, 79
5, 33820, Control_c, 3, 7, 77
5, 33830, Control_c, 3, 7, 74
5, 33840, Control_c, 3, 7, 72
5, 33840, Control_c, 3, 64, 0
5, 33844, Note_on_c, 3, 58, 0
5, 33850, Control_c, 3, 7, 70
5, 33860, Control_c, 3, 7, 68
5, 33870, Control_c, 3, 7, 66
5, 33880, Control_c, 3, 7, 64
5, 33890, Control_c, 3, 7, 62
5, 33900, Control_c, 3, 7, 60
5, 33910, Control_c, 3, 7, 58
5, 33920, Control_c, 3, 7, 56
5, 33930, Control_c, 3, 7, 54
5, 33940, Control_c, 3, 7, 52
5, 33950, Control_c, 3, 7, 49
5, 33960, Control_c, 3, 7, 47
5, 33970, Control_c, 3, 7, 45
5, 33980, Control_c, 3, 7, 43
5, 33990, Control_c, 3, 7, 41
5, 34000, Control_c, 3, 7, 39
5, 34010, Control_c, 3, 7, 37
5, 34020, Control_c, 3, 7, 35
5, 34030, Control_c, 3, 7, 33
5, 34040, Control_c, 3, 7, 31
5, 34050, Control_c, 3, 7, 29
5, 34060, Control_c, 3, 7, 27
5, 34070, Control_c, 3, 7, 24
5, 34080, Control_c, 3, 7, 22
5, 34090, Control_c, 3, 7, 20
5, 34100, Control_c, 3, 7, 18
5, 34110, Control_c, 3, 7, 16
5, 34120, Control_c, 3, 7, 14
5, 34130, Control_c, 3, 7, 12
5, 34140, Control_c, 3, 7, 10
5, 34150, Control_c, 3, 7, 8
5, 34160, Control_c, 3, 7, 6
5, 34170, Control_c, 3, 7, 4
5, 34180, Control_c, 3, 7, 2
5, 34190, Control_c, 3, 7, 0
5, 34220, Control_c, 3, 7, 127
5, 34220, End_track
6, 0, Start_track
6, 0, MIDI_port, 0
6, 0, Title_t, "Acoustic Guitar"
6, 0, Control_c, 4, 0, 56
6, 0, Control_c, 4, 32, 0
6, 0, Program_c, 4, 25
6, 0, Control_c, 4, 7, 85
6, 0, Control_c, 4, 10, 63
6, 1440, Control_c, 4, 64, 127
6, 1677, Note_on_c, 4, 58, 14
6, 1701, Note_on_c, 4, 70, 7
6, 1733, Note_on_c, 4, 63, 7
6, 1740, Note_on_c, 4, 67, 8
6, 1765, Note_on_c, 4, 63, 0
6, 1765, Note_on_c, 4, 70, 0
6, 1769, Note_on_c, 4, 58, 0
6, 1769, Note_on_c, 4, 67, 0
6, 1807, Note_on_c, 4, 58, 31
6, 1810, Note_on_c, 4, 70, 31
6, 1812, Note_on_c, 4, 67, 49
6, 1837, Note_on_c, 4, 67, 0
6, 1837, Note_on_c, 4, 70, 0
6, 1838, Note_on_c, 4, 58, 0
6, 1928, Note_on_c, 4, 68, 30
6, 1928, Note_on_c, 4, 56, 41
6, 1930, Note_on_c, 4, 65, 58
6, 1932, Note_on_c, 4, 61, 21
6, 1943, Control_c, 4, 64, 0
6, 2024, Control_c, 4, 64, 127
6, 2092, Note_on_c, 4, 68, 0
6, 2094, Note_on_c, 4, 56, 0
6, 2102, Note_on_c, 4, 65, 0
6, 2102, Note_on_c, 4, 61, 0
6, 2172, Note_on_c, 4, 56, 22
6, 2183, Note_on_c, 4, 56, 0
6, 2218, Note_on_c, 4, 61, 25
6, 2248, Note_on_c, 4, 61, 0
6, 2284, Note_on_c, 4, 65, 41
6, 2313, Note_on_c, 4, 65, 0
6, 2339, Note_on_c, 4, 68, 40
6, 2340, Note_on_c, 4, 56, 37
6, 2373, Note_on_c, 4, 61, 7
6, 2379, Control_c, 4, 64, 0
6, 2400, Note_on_c, 4, 65, 8
6, 2451, Control_c, 4, 64, 127
6, 2478, Note_on_c, 4, 65, 0
6, 2478, Note_on_c, 4, 68, 0
6, 2480, Note_on_c, 4, 61, 0
6, 2483, Note_on_c, 4, 56, 0
6, 2522, Note_on_c, 4, 65, 55
6, 2523, Note_on_c, 4, 56, 34
6, 2526, Note_on_c, 4, 68, 40
6, 2526, Note_on_c, 4, 61, 33
6, 2559, Note_on_c, 4, 56, 0
6, 2560, Note_on_c, 4, 61, 0
6, 2562, Note_on_c, 4, 68, 0
6, 2562, Note_on_c, 4, 65, 0
6, 2704, Note_on_c, 4, 61, 43
6, 2705, Note_on_c, 4, 56, 35
6, 2707, Note_on_c, 4, 65, 57
6, 2713, Note_on_c, 4, 68, 22
6, 2723, Note_on_c, 4, 56, 0
6, 2733, Note_on_c, 4, 61, 0
6, 2735, Note_on_c, 4, 65, 0
6, 2737, Note_on_c, 4, 68, 0
6, 2876, Note_on_c, 4, 58, 37
6, 2877, Note_on_c, 4, 63, 38
6, 2878, Note_on_c, 4, 70, 40
6, 2880, Note_on_c, 4, 67, 62
6, 2881, Control_c, 4, 64, 0
6, 3012, Control_c, 4, 64, 127
6, 3073, Note_on_c, 4, 63, 0
6, 3074, Note_on_c, 4, 67, 0
6, 3078, Note_on_c, 4, 70, 0
6, 3082, Note_on_c, 4, 58, 0
6, 3183, Note_on_c, 4, 58, 34
6, 3225, Note_on_c, 4, 58, 0
6, 3240, Note_on_c, 4, 63, 26
6, 3268, Note_on_c, 4, 63, 0
6, 3605, Note_on_c, 4, 58, 21
6, 3607, Note_on_c, 4, 70, 16
6, 3612, Note_on_c, 4, 67, 24
6, 3614, Note_on_c, 4, 63, 14
6, 3618, Control_c, 4, 64, 0
6, 3688, Control_c, 4, 64, 127
6, 3700, Note_on_c, 4, 63, 0
6, 3700, Note_on_c, 4, 58, 0
6, 3701, Note_on_c, 4, 70, 0
6, 3703, Note_on_c, 4, 67, 0
6, 3723, Note_on_c, 4, 58, 46
6, 3727, Note_on_c, 4, 63, 44
6, 3729, Note_on_c, 4, 70, 39
6, 3729, Note_on_c, 4, 67, 69
6, 3747, Note_on_c, 4, 63, 0
6, 3755, Note_on_c, 4, 67, 0
6, 3755, Note_on_c, 4, 70, 0
6, 3762, Note_on_c, 4, 58, 0
6, 3841, Note_on_c, 4, 56, 37
6, 3842, Note_on_c, 4, 65, 58
6, 3843, Note_on_c, 4, 68, 32
6, 3844, Note_on_c, 4, 61, 27
6, 3850, Control_c, 4, 64, 0
6, 3964, Control_c, 4, 64, 127
6, 4070, Note_on_c, 4, 61, 0
6, 4071, Note_on_c, 4, 56, 0
6, 4098, Note_on_c, 4, 68, 0
6, 4107, Note_on_c, 4, 65, 0
6, 4151, Note_on_c, 4, 56, 27
6, 4178, Note_on_c, 4, 56, 0
6, 4270, Note_on_c, 4, 68, 38
6, 4271, Note_on_c, 4, 56, 46
6, 4273, Note_on_c, 4, 65, 60
6, 4283, Note_on_c, 4, 56, 0
6, 4298, Note_on_c, 4, 65, 0
6, 4298, Note_on_c, 4, 68, 0
6, 4566, Note_on_c, 4, 56, 58
6, 4639, Note_on_c, 4, 61, 18
6, 4642, Note_on_c, 4, 56, 0
6, 4663, Note_on_c, 4, 61, 0
6, 4684, Note_on_c, 4, 65, 66
6, 4720, Note_on_c, 4, 65, 0
6, 4743, Note_on_c, 4, 58, 43
6, 4765, Note_on_c, 4, 58, 0
6, 4802, Control_c, 4, 64, 0
6, 4807, Note_on_c, 4, 58, 79
6, 4883, Control_c, 4, 64, 127
6, 4922, Note_on_c, 4, 63, 42
6, 4982, Note_on_c, 4, 67, 62
6, 5026, Control_c, 4, 64, 0
6, 5038, Note_on_c, 4, 70, 36
6, 5098, Control_c, 4, 64, 127
6, 5145, Note_on_c, 4, 70, 0
6, 5188, Note_on_c, 4, 67, 0
6, 5210, Note_on_c, 4, 58, 0
6, 5231, Note_on_c, 4, 63, 0
6, 5333, Note_on_c, 4, 58, 31
6, 5381, Note_on_c, 4, 58, 0
6, 5395, Note_on_c, 4, 63, 32
6, 5469, Note_on_c, 4, 63, 0
6, 5510, Note_on_c, 4, 70, 58
6, 5513, Note_on_c, 4, 63, 49
6, 5559, Note_on_c, 4, 70, 0
6, 5578, Note_on_c, 4, 67, 64
6, 5588, Note_on_c, 4, 63, 0
6, 5647, Note_on_c, 4, 63, 43
6, 5697, Note_on_c, 4, 67, 0
6, 5707, Note_on_c, 4, 58, 42
6, 5714, Note_on_c, 4, 63, 0
6, 5735, Note_on_c, 4, 58, 0
6, 5762, Note_on_c, 4, 68, 47
6, 5763, Note_on_c, 4, 65, 50
6, 5766, Note_on_c, 4, 61, 38
6, 5767, Control_c, 4, 64, 0
6, 5869, Note_on_c, 4, 56, 35
6, 5889, Control_c, 4, 64, 127
6, 6021, Note_on_c, 4, 56, 0
6, 6062, Note_on_c, 4, 56, 23
6, 6095, Note_on_c, 4, 56, 0
6, 6130, Note_on_c, 4, 56, 28
6, 6133, Note_on_c, 4, 61, 0
6, 6135, Note_on_c, 4, 65, 0
6, 6144, Note_on_c, 4, 68, 0
6, 6185, Note_on_c, 4, 68, 31
6, 6187, Note_on_c, 4, 61, 30
6, 6190, Note_on_c, 4, 65, 50
6, 6388, Note_on_c, 4, 56, 0
6, 6412, Note_on_c, 4, 65, 0
6, 6413, Note_on_c, 4, 68, 0
6, 6426, Note_on_c, 4, 61, 0
6, 6432, Note_on_c, 4, 56, 22
6, 6487, Note_on_c, 4, 56, 0
6, 6542, Note_on_c, 4, 56, 43
6, 6599, Note_on_c, 4, 56, 0
6, 6604, Note_on_c, 4, 61, 49
6, 6662, Note_on_c, 4, 65, 58
6, 6670, Note_on_c, 4, 61, 0
6, 6709, Note_on_c, 4, 65, 0
6, 6712, Control_c, 4, 64, 0
6, 6714, Note_on_c, 4, 58, 37
6, 6814, Control_c, 4, 64, 127
6, 6854, Note_on_c, 4, 63, 17
6, 6918, Note_on_c, 4, 63, 0
6, 6950, Note_on_c, 4, 70, 44
6, 6957, Note_on_c, 4, 63, 18
6, 6983, Note_on_c, 4, 70, 0
6, 6991, Note_on_c, 4, 63, 0
6, 6998, Note_on_c, 4, 58, 0
6, 7250, Note_on_c, 4, 58, 21
6, 7252, Note_on_c, 4, 70, 23
6, 7255, Note_on_c, 4, 67, 54
6, 7256, Note_on_c, 4, 63, 30
6, 7277, Control_c, 4, 64, 0
6, 7351, Control_c, 4, 64, 127
6, 7448, Note_on_c, 4, 58, 0
6, 7458, Note_on_c, 4, 70, 0
6, 7492, Note_on_c, 4, 67, 0
6, 7498, Note_on_c, 4, 63, 0
6, 7504, Note_on_c, 4, 58, 51
6, 7563, Note_on_c, 4, 70, 35
6, 7565, Note_on_c, 4, 63, 40
6, 7567, Note_on_c, 4, 67, 57
6, 7576, Note_on_c, 4, 58, 0
6, 7595, Note_on_c, 4, 70, 0
6, 7598, Note_on_c, 4, 67, 0
6, 7605, Note_on_c, 4, 63, 0
6, 7610, Note_on_c, 4, 58, 47
6, 7644, Note_on_c, 4, 58, 0
6, 7658, Control_c, 4, 64, 0
6, 7678, Note_on_c, 4, 68, 43
6, 7678, Note_on_c, 4, 61, 52
6, 7680, Note_on_c, 4, 65, 65
6, 7794, Note_on_c, 4, 56, 30
6, 7930, Control_c, 4, 64, 127
6, 8020, Note_on_c, 4, 68, 0
6, 8030, Note_on_c, 4, 65, 0
6, 8043, Note_on_c, 4, 56, 0
6, 8046, Note_on_c, 4, 61, 0
6, 8093, Note_on_c, 4, 61, 20
6, 8095, Note_on_c, 4, 65, 54
6, 8097, Note_on_c, 4, 68, 30
6, 8099, Note_on_c, 4, 56, 18
6, 8124, Control_c, 4, 64, 0
6, 8208, Control_c, 4, 64, 127
6, 8342, Note_on_c, 4, 56, 0
6, 8363, Note_on_c, 4, 68, 0
6, 8373, Note_on_c, 4, 65, 0
6, 8393, Note_on_c, 4, 56, 40
6, 8399, Note_on_c, 4, 61, 0
6, 8464, Note_on_c, 4, 61, 36
6, 8484, Note_on_c, 4, 56, 0
6, 8531, Note_on_c, 4, 65, 66
6, 8545, Note_on_c, 4, 61, 0
6, 8583, Note_on_c, 4, 65, 0
6, 8587, Note_on_c, 4, 58, 27
6, 8613, Note_on_c, 4, 58, 0
6, 8638, Control_c, 4, 64, 0
6, 8649, Note_on_c, 4, 58, 49
6, 8651, Note_on_c, 4, 70, 47
6, 8657, Note_on_c, 4, 63, 35
6, 8659, Note_on_c, 4, 67, 44
6, 8778, Control_c, 4, 64, 127
6, 9004, Control_c, 4, 64, 0
6, 9073, Control_c, 4, 64, 127
6, 9160, Note_on_c, 4, 58, 0
6, 9243, Note_on_c, 4, 70, 0
6, 9244, Note_on_c, 4, 58, 34
6, 9252, Note_on_c, 4, 63, 0
6, 9264, Note_on_c, 4, 67, 0
6, 9310, Note_on_c, 4, 63, 38
6, 9370, Note_on_c, 4, 67, 57
6, 9424, Note_on_c, 4, 70, 47
6, 9434, Note_on_c, 4, 67, 0
6, 9488, Note_on_c, 4, 70, 0
6, 9489, Note_on_c, 4, 67, 45
6, 9503, Note_on_c, 4, 67, 0
6, 9504, Note_on_c, 4, 63, 0
6, 9533, Note_on_c, 4, 58, 0
6, 9584, Control_c, 4, 64, 0
6, 9600, Note_on_c, 4, 56, 40
6, 9604, Note_on_c, 4, 65, 62
6, 9605, Note_on_c, 4, 68, 37
6, 9605, Note_on_c, 4, 61, 36
6, 9730, Control_c, 4, 64, 127
6, 10133, Note_on_c, 4, 65, 0
6, 10157, Note_on_c, 4, 68, 0
6, 10160, Note_on_c, 4, 61, 0
6, 10162, Note_on_c, 4, 56, 0
6, 10213, Note_on_c, 4, 65, 54
6, 10250, Note_on_c, 4, 65, 0
6, 10331, Note_on_c, 4, 56, 55
6, 10391, Note_on_c, 4, 61, 43
6, 10451, Note_on_c, 4, 65, 60
6, 10463, Note_on_c, 4, 56, 0
6, 10465, Note_on_c, 4, 61, 0
6, 10531, Note_on_c, 4, 61, 15
6, 10533, Note_on_c, 4, 65, 0
6, 10550, Note_on_c, 4, 61, 0
6, 10567, Note_on_c, 4, 58, 73
6, 10569, Control_c, 4, 64, 0
6, 10685, Note_on_c, 4, 63, 21
6, 10737, Note_on_c, 4, 67, 62
6, 10791, Note_on_c, 4, 70, 24
6, 10858, Control_c, 4, 64, 127
6, 10967, Note_on_c, 4, 70, 0
6, 11020, Note_on_c, 4, 67, 0
6, 11026, Note_on_c, 4, 58, 0
6, 11085, Note_on_c, 4, 63, 0
6, 11086, Note_on_c, 4, 58, 25
6, 11139, Note_on_c, 4, 58, 0
6, 11159, Note_on_c, 4, 63, 30
6, 11217, Note_on_c, 4, 67, 49
6, 11218, Note_on_c, 4, 63, 0
6, 11252, Note_on_c, 4, 67, 0
6, 11272, Note_on_c, 4, 63, 36
6, 11273, Note_on_c, 4, 70, 51
6, 11275, Note_on_c, 4, 58, 47
6, 11312, Control_c, 4, 64, 0
6, 11348, Note_on_c, 4, 67, 57
6, 11360, Note_on_c, 4, 63, 0
6, 11377, Control_c, 4, 64, 127
6, 11403, Note_on_c, 4, 70, 0
6, 11412, Note_on_c, 4, 63, 35
6, 11420, Note_on_c, 4, 58, 0
6, 11437, Note_on_c, 4, 67, 0
6, 11467, Note_on_c, 4, 58, 53
6, 11469, Note_on_c, 4, 63, 0
6, 11496, Note_on_c, 4, 58, 0
6, 11521, Control_c, 4, 64, 0
6, 11522, Note_on_c, 4, 68, 26
6, 11523, Note_on_c, 4, 65, 25
6, 11524, Note_on_c, 4, 61, 27
6, 11608, Note_on_c, 4, 68, 0
6, 11609, Note_on_c, 4, 65, 0
6, 11610, Note_on_c, 4, 61, 0
6, 11634, Note_on_c, 4, 56, 32
6, 11638, Note_on_c, 4, 61, 35
6, 11640, Note_on_c, 4, 65, 60
6, 11640, Note_on_c, 4, 68, 34
6, 11646, Control_c, 4, 64, 127
6, 11649, Note_on_c, 4, 56, 0
6, 11727, Note_on_c, 4, 68, 0
6, 11753, Note_on_c, 4, 56, 33
6, 11756, Note_on_c, 4, 61, 0
6, 11774, Note_on_c, 4, 65, 0
6, 11817, Note_on_c, 4, 61, 27
6, 11882, Note_on_c, 4, 65, 50
6, 11885, Note_on_c, 4, 56, 0
6, 11904, Note_on_c, 4, 61, 0
6, 11911, Note_on_c, 4, 65, 0
6, 11926, Note_on_c, 4, 61, 23
6, 11932, Note_on_c, 4, 68, 41
6, 11944, Note_on_c, 4, 56, 16
6, 12009, Note_on_c, 4, 68, 0
6, 12016, Note_on_c, 4, 56, 0
6, 12021, Note_on_c, 4, 61, 0
6, 12249, Note_on_c, 4, 56, 38
6, 12298, Note_on_c, 4, 61, 21
6, 12353, Note_on_c, 4, 56, 0
6, 12364, Note_on_c, 4, 65, 54
6, 12373, Note_on_c, 4, 61, 0
6, 12427, Note_on_c, 4, 61, 24
6, 12431, Note_on_c, 4, 65, 0
6, 12464, Note_on_c, 4, 61, 0
6, 12464, Control_c, 4, 64, 0
6, 12472, Note_on_c, 4, 58, 43
6, 12962, Note_on_c, 4, 58, 0
6, 22560, Control_c, 4, 64, 127
6, 22797, Note_on_c, 4, 58, 14
6, 22821, Note_on_c, 4, 70, 7
6, 22853, Note_on_c, 4, 63, 7
6, 22860, Note_on_c, 4, 67, 8
6, 22885, Note_on_c, 4, 63, 0
6, 22885, Note_on_c, 4, 70, 0
6, 22889, Note_on_c, 4, 58, 0
6, 22889, Note_on_c, 4, 67, 0
6, 22927, Note_on_c, 4, 58, 31
6, 22930, Note_on_c, 4, 70, 31
6, 22932, Note_on_c, 4, 67, 49
6, 22957, Note_on_c, 4, 67, 0
6, 22957, Note_on_c, 4, 70, 0
6, 22958, Note_on_c, 4, 58, 0
6, 23048, Note_on_c, 4, 68, 30
6, 23048, Note_on_c, 4, 56, 41
6, 23050, Note_on_c, 4, 65, 58
6, 23052, Note_on_c, 4, 61, 21
6, 23063, Control_c, 4, 64, 0
6, 23144, Control_c, 4, 64, 127
6, 23212, Note_on_c, 4, 68, 0
6, 23214, Note_on_c, 4, 56, 0
6, 23222, Note_on_c, 4, 65, 0
6, 23222, Note_on_c, 4, 61, 0
6, 23292, Note_on_c, 4, 56, 22
6, 23303, Note_on_c, 4, 56, 0
6, 23338, Note_on_c, 4, 61, 25
6, 23368, Note_on_c, 4, 61, 0
6, 23404, Note_on_c, 4, 65, 41
6, 23433, Note_on_c, 4, 65, 0
6, 23459, Note_on_c, 4, 68, 40
6, 23460, Note_on_c, 4, 56, 37
6, 23493, Note_on_c, 4, 61, 7
6, 23499, Control_c, 4, 64, 0
6, 23520, Note_on_c, 4, 65, 8
6, 23571, Control_c, 4, 64, 127
6, 23598, Note_on_c, 4, 65, 0
6, 23598, Note_on_c, 4, 68, 0
6, 23600, Note_on_c, 4, 61, 0
6, 23603, Note_on_c, 4, 56, 0
6, 23642, Note_on_c, 4, 65, 55
6, 23643, Note_on_c, 4, 56, 34
6, 23646, Note_on_c, 4, 68, 40
6, 23646, Note_on_c, 4, 61, 33
6, 23679, Note_on_c, 4, 56, 0
6, 23680, Note_on_c, 4, 61, 0
6, 23682, Note_on_c, 4, 68, 0
6, 23682, Note_on_c, 4, 65, 0
6, 23824, Note_on_c, 4, 61, 43
6, 23825, Note_on_c, 4, 56, 35
6, 23827, Note_on_c, 4, 65, 57
6, 23833, Note_on_c, 4, 68, 22
6, 23843, Note_on_c, 4, 56, 0
6, 23853, Note_on_c, 4, 61, 0
6, 23855, Note_on_c, 4, 65, 0
6, 23857, Note_on_c, 4, 68, 0
6, 23996, Note_on_c, 4, 58, 37
6, 23997, Note_on_c, 4, 63, 38
6, 23998, Note_on_c, 4, 70, 40
6, 24000, Note_on_c, 4, 67, 62
6, 24001, Control_c, 4, 64, 0
6, 24132, Control_c, 4, 64, 127
6, 24193, Note_on_c, 4, 63, 0
6, 24194, Note_on_c, 4, 67, 0
6, 24198, Note_on_c, 4, 70, 0
6, 24202, Note_on_c, 4, 58, 0
6, 24303, Note_on_c, 4, 58, 34
6, 24345, Note_on_c, 4, 58, 0
6, 24360, Note_on_c, 4, 63, 26
6, 24388, Note_on_c, 4, 63, 0
6, 24725, Note_on_c, 4, 58, 21
6, 24727, Note_on_c, 4, 70, 16
6, 24732, Note_on_c, 4, 67, 24
6, 24734, Note_on_c, 4, 63, 14
6, 24738, Control_c, 4, 64, 0
6, 24808, Control_c, 4, 64, 127
6, 24820, Note_on_c, 4, 63, 0
6, 24820, Note_on_c, 4, 58, 0
6, 24821, Note_on_c, 4, 70, 0
6, 24823, Note_on_c, 4, 67, 0
6, 24843, Note_on_c, 4, 58, 46
6, 24847, Note_on_c, 4, 63, 44
6, 24849, Note_on_c, 4, 70, 39
6, 24849, Note_on_c, 4, 67, 69
6, 24867, Note_on_c, 4, 63, 0
6, 24875, Note_on_c, 4, 67, 0
6, 24875, Note_on_c, 4, 70, 0
6, 24882, Note_on_c, 4, 58, 0
6, 24961, Note_on_c, 4, 56, 37
6, 24962, Note_on_c, 4, 65, 58
6, 24963, Note_on_c, 4, 68, 32
6, 24964, Note_on_c, 4, 61, 27
6, 24970, Control_c, 4, 64, 0
6, 25084, Control_c, 4, 64, 127
6, 25190, Note_on_c, 4, 61, 0
6, 25191, Note_on_c, 4, 56, 0
6, 25218, Note_on_c, 4, 68, 0
6, 25227, Note_on_c, 4, 65, 0
6, 25271, Note_on_c, 4, 56, 27
6, 25298, Note_on_c, 4, 56, 0
6, 25390, Note_on_c, 4, 68, 38
6, 25391, Note_on_c, 4, 56, 46
6, 25393, Note_on_c, 4, 65, 60
6, 25403, Note_on_c, 4, 56, 0
6, 25418, Note_on_c, 4, 65, 0
6, 25418, Note_on_c, 4, 68, 0
6, 25686, Note_on_c, 4, 56, 58
6, 25759, Note_on_c, 4, 61, 18
6, 25762, Note_on_c, 4, 56, 0
6, 25783, Note_on_c, 4, 61, 0
6, 25804, Note_on_c, 4, 65, 66
6, 25840, Note_on_c, 4, 65, 0
6, 25863, Note_on_c, 4, 58, 43
6, 25885, Note_on_c, 4, 58, 0
6, 25922, Control_c, 4, 64, 0
6, 25927, Note_on_c, 4, 58, 79
6, 26003, Control_c, 4, 64, 127
6, 26042, Note_on_c, 4, 63, 42
6, 26102, Note_on_c, 4, 67, 62
6, 26146, Control_c, 4, 64, 0
6, 26158, Note_on_c, 4, 70, 36
6, 26218, Control_c, 4, 64, 127
6, 26265, Note_on_c, 4, 70, 0
6, 26308, Note_on_c, 4, 67, 0
6, 26330, Note_on_c, 4, 58, 0
6, 26351, Note_on_c, 4, 63, 0
6, 26453, Note_on_c, 4, 58, 31
6, 26501, Note_on_c, 4, 58, 0
6, 26515, Note_on_c, 4, 63, 32
6, 26589, Note_on_c, 4, 63, 0
6, 26630, Note_on_c, 4, 70, 58
6, 26633, Note_on_c, 4, 63, 49
6, 26679, Note_on_c, 4, 70, 0
6, 26698, Note_on_c, 4, 67, 64
6, 26708, Note_on_c, 4, 63, 0
6, 26767, Note_on_c, 4, 63, 43
6, 26817, Note_on_c, 4, 67, 0
6, 26827, Note_on_c, 4, 58, 42
6, 26834, Note_on_c, 4, 63, 0
6, 26855, Note_on_c, 4, 58, 0
6, 26882, Note_on_c, 4, 68, 47
6, 26883, Note_on_c, 4, 65, 50
6, 26886, Note_on_c, 4, 61, 38
6, 26887, Control_c, 4, 64, 0
6, 26989, Note_on_c, 4, 56, 35
6, 27009, Control_c, 4, 64, 127
6, 27141, Note_on_c, 4, 56, 0
6, 27182, Note_on_c, 4, 56, 23
6, 27215, Note_on_c, 4, 56, 0
6, 27250, Note_on_c, 4, 56, 28
6, 27253, Note_on_c, 4, 61, 0
6, 27255, Note_on_c, 4, 65, 0
6, 27264, Note_on_c, 4, 68, 0
6, 27305, Note_on_c, 4, 68, 31
6, 27307, Note_on_c, 4, 61, 30
6, 27310, Note_on_c, 4, 65, 50
6, 27508, Note_on_c, 4, 56, 0
6, 27532, Note_on_c, 4, 65, 0
6, 27533, Note_on_c, 4, 68, 0
6, 27546, Note_on_c, 4, 61, 0
6, 27552, Note_on_c, 4, 56, 22
6, 27607, Note_on_c, 4, 56, 0
6, 27662, Note_on_c, 4, 56, 43
6, 27719, Note_on_c, 4, 56, 0
6, 27724, Note_on_c, 4, 61, 49
6, 27782, Note_on_c, 4, 65, 58
6, 27790, Note_on_c, 4, 61, 0
6, 27829, Note_on_c, 4, 65, 0
6, 27832, Control_c, 4, 64, 0
6, 27834, Note_on_c, 4, 58, 37
6, 27934, Control_c, 4, 64, 127
6, 27974, Note_on_c, 4, 63, 17
6, 28038, Note_on_c, 4, 63, 0
6, 28070, Note_on_c, 4, 70, 44
6, 28077, Note_on_c, 4, 63, 18
6, 28103, Note_on_c, 4, 70, 0
6, 28111, Note_on_c, 4, 63, 0
6, 28118, Note_on_c, 4, 58, 0
6, 28370, Note_on_c, 4, 58, 21
6, 28372, Note_on_c, 4, 70, 23
6, 28375, Note_on_c, 4, 67, 54
6, 28376, Note_on_c, 4, 63, 30
6, 28397, Control_c, 4, 64, 0
6, 28471, Control_c, 4, 64, 127
6, 28568, Note_on_c, 4, 58, 0
6, 28578, Note_on_c, 4, 70, 0
6, 28612, Note_on_c, 4, 67, 0
6, 28618, Note_on_c, 4, 63, 0
6, 28624, Note_on_c, 4, 58, 51
6, 28683, Note_on_c, 4, 70, 35
6, 28685, Note_on_c, 4, 63, 40
6, 28687, Note_on_c, 4, 67, 57
6, 28696, Note_on_c, 4, 58, 0
6, 28715, Note_on_c, 4, 70, 0
6, 28718, Note_on_c, 4, 67, 0
6, 28725, Note_on_c, 4, 63, 0
6, 28730, Note_on_c, 4, 58, 47
6, 28764, Note_on_c, 4, 58, 0
6, 28778, Control_c, 4, 64, 0
6, 28798, Note_on_c, 4, 68, 43
6, 28798, Note_on_c, 4, 61, 52
6, 28800, Note_on_c, 4, 65, 65
6, 28914, Note_on_c, 4, 56, 30
6, 29050, Control_c, 4, 64, 127
6, 29140, Note_on_c, 4, 68, 0
6, 29150, Note_on_c, 4, 65, 0
6, 29163, Note_on_c, 4, 56, 0
6, 29166, Note_on_c, 4, 61, 0
6, 29213, Note_on_c, 4, 61, 20
6, 29215, Note_on_c, 4, 65, 54
6, 29217, Note_on_c, 4, 68, 30
6, 29219, Note_on_c, 4, 56, 18
6, 29244, Control_c, 4, 64, 0
6, 29328, Control_c, 4, 64, 127
6, 29462, Note_on_c, 4, 56, 0
6, 29483, Note_on_c, 4, 68, 0
6, 29493, Note_on_c, 4, 65, 0
6, 29513, Note_on_c, 4, 56, 40
6, 29519, Note_on_c, 4, 61, 0
6, 29584, Note_on_c, 4, 61, 36
6, 29604, Note_on_c, 4, 56, 0
6, 29651, Note_on_c, 4, 65, 66
6, 29665, Note_on_c, 4, 61, 0
6, 29703, Note_on_c, 4, 65, 0
6, 29707, Note_on_c, 4, 58, 27
6, 29733, Note_on_c, 4, 58, 0
6, 29758, Control_c, 4, 64, 0
6, 29769, Note_on_c, 4, 58, 49
6, 29771, Note_on_c, 4, 70, 47
6, 29777, Note_on_c, 4, 63, 35
6, 29779, Note_on_c, 4, 67, 44
6, 29898, Control_c, 4, 64, 127
6, 30124, Control_c, 4, 64, 0
6, 30193, Control_c, 4, 64, 127
6, 30280, Note_on_c, 4, 58, 0
6, 30363, Note_on_c, 4, 70, 0
6, 30364, Note_on_c, 4, 58, 34
6, 30372, Note_on_c, 4, 63, 0
6, 30384, Note_on_c, 4, 67, 0
6, 30430, Note_on_c, 4, 63, 38
6, 30490, Note_on_c, 4, 67, 57
6, 30544, Note_on_c, 4, 70, 47
6, 30554, Note_on_c, 4, 67, 0
6, 30608, Note_on_c, 4, 70, 0
6, 30609, Note_on_c, 4, 67, 45
6, 30623, Note_on_c, 4, 67, 0
6, 30624, Note_on_c, 4, 63, 0
6, 30653, Note_on_c, 4, 58, 0
6, 30704, Control_c, 4, 64, 0
6, 30720, Note_on_c, 4, 56, 40
6, 30724, Note_on_c, 4, 65, 62
6, 30725, Note_on_c, 4, 68, 37
6, 30725, Note_on_c, 4, 61, 36
6, 30850, Control_c, 4, 64, 127
6, 31253, Note_on_c, 4, 65, 0
6, 31277, Note_on_c, 4, 68, 0
6, 31280, Note_on_c, 4, 61, 0
6, 31282, Note_on_c, 4, 56, 0
6, 31333, Note_on_c, 4, 65, 54
6, 31370, Note_on_c, 4, 65, 0
6, 31451, Note_on_c, 4, 56, 55
6, 31511, Note_on_c, 4, 61, 43
6, 31571, Note_on_c, 4, 65, 60
6, 31583, Note_on_c, 4, 56, 0
6, 31585, Note_on_c, 4, 61, 0
6, 31651, Note_on_c, 4, 61, 15
6, 31653, Note_on_c, 4, 65, 0
6, 31670, Note_on_c, 4, 61, 0
6, 31687, Note_on_c, 4, 58, 73
6, 31689, Control_c, 4, 64, 0
6, 31805, Note_on_c, 4, 63, 21
6, 31857, Note_on_c, 4, 67, 62
6, 31911, Note_on_c, 4, 70, 24
6, 31978, Control_c, 4, 64, 127
6, 32087, Note_on_c, 4, 70, 0
6, 32140, Note_on_c, 4, 67, 0
6, 32146, Note_on_c, 4, 58, 0
6, 32205, Note_on_c, 4, 63, 0
6, 32206, Note_on_c, 4, 58, 25
6, 32259, Note_on_c, 4, 58, 0
6, 32279, Note_on_c, 4, 63, 30
6, 32337, Note_on_c, 4, 67, 49
6, 32338, Note_on_c, 4, 63, 0
6, 32372, Note_on_c, 4, 67, 0
6, 32392, Note_on_c, 4, 63, 36
6, 32393, Note_on_c, 4, 70, 51
6, 32395, Note_on_c, 4, 58, 47
6, 32432, Control_c, 4, 64, 0
6, 32468, Note_on_c, 4, 67, 57
6, 32480, Note_on_c, 4, 63, 0
6, 32497, Control_c, 4, 64, 127
6, 32523, Note_on_c, 4, 70, 0
6, 32532, Note_on_c, 4, 63, 35
6, 32540, Note_on_c, 4, 58, 0
6, 32557, Note_on_c, 4, 67, 0
6, 32587, Note_on_c, 4, 58, 53
6, 32589, Note_on_c, 4, 63, 0
6, 32616, Note_on_c, 4, 58, 0
6, 32641, Control_c, 4, 64, 0
6, 32642, Note_on_c, 4, 68, 26
6, 32643, Note_on_c, 4, 65, 25
6, 32644, Note_on_c, 4, 61, 27
6, 32728, Note_on_c, 4, 68, 0
6, 32729, Note_on_c, 4, 65, 0
6, 32730, Note_on_c, 4, 61, 0
6, 32754, Note_on_c, 4, 56, 32
6, 32758, Note_on_c, 4, 61, 35
6, 32760, Note_on_c, 4, 65, 60
6, 32760, Note_on_c, 4, 68, 34
6, 32766, Control_c, 4, 64, 127
6, 32769, Note_on_c, 4, 56, 0
6, 32847, Note_on_c, 4, 68, 0
6, 32873, Note_on_c, 4, 56, 33
6, 32876, Note_on_c, 4, 61, 0
6, 32894, Note_on_c, 4, 65, 0
6, 32937, Note_on_c, 4, 61, 27
6, 33002, Note_on_c, 4, 65, 50
6, 33005, Note_on_c, 4, 56, 0
6, 33024, Note_on_c, 4, 61, 0
6, 33031, Note_on_c, 4, 65, 0
6, 33046, Note_on_c, 4, 61, 23
6, 33052, Note_on_c, 4, 68, 41
6, 33064, Note_on_c, 4, 56, 16
6, 33129, Note_on_c, 4, 68, 0
6, 33136, Note_on_c, 4, 56, 0
6, 33141, Note_on_c, 4, 61, 0
6, 33369, Note_on_c, 4, 56, 38
6, 33418, Note_on_c, 4, 61, 21
6, 33473, Note_on_c, 4, 56, 0
6, 33484, Note_on_c, 4, 65, 54
6, 33493, Note_on_c, 4, 61, 0
6, 33547, Note_on_c, 4, 61, 24
6, 33551, Note_on_c, 4, 65, 0
6, 33584, Note_on_c, 4, 61, 0
6, 33584, Control_c, 4, 64, 0
6, 33592, Note_on_c, 4, 58, 43
6, 34082, Note_on_c, 4, 58, 0
6, 34082, End_track
7, 0, Start_track
7, 0, MIDI_port, 0
7, 0, Title_t, "Synth Strings"
7, 0, Control_c, 5, 0, 56
7, 0, Control_c, 5, 32, 0
7, 0, Program_c, 5, 50
7, 0, Control_c, 5, 7, 80
7, 0, Control_c, 5, 10, 70
7, 956, Note_on_c, 5, 82, 92
7, 1600, Control_c, 5, 64, 127
7, 1846, Control_c, 5, 64, 0
7, 1920, Control_c, 5, 64, 127
7, 2426, Control_c, 5, 64, 0
7, 3335, Control_c, 5, 64, 127
7, 3445, Control_c, 5, 64, 0
7, 8422, Control_c, 5, 64, 127
7, 8449, Control_c, 5, 64, 0
7, 8528, Control_c, 5, 64, 127
7, 8580, Control_c, 5, 64, 0
7, 9007, Control_c, 5, 64, 127
7, 9043, Control_c, 5, 64, 0
7, 10332, Control_c, 5, 64, 127
7, 10375, Control_c, 5, 64, 0
7, 10451, Control_c, 5, 64, 127
7, 10500, Control_c, 5, 64, 0
7, 10676, Control_c, 5, 64, 127
7, 10760, Control_c, 5, 64, 0
7, 10830, Control_c, 5, 64, 127
7, 10900, Control_c, 5, 64, 0
7, 11430, Control_c, 5, 64, 127
7, 12224, Note_on_c, 5, 82, 0
7, 12466, Note_on_c, 5, 64, 63
7, 12475, Note_on_c, 5, 76, 86
7, 12486, Control_c, 5, 64, 0
7, 12953, Note_on_c, 5, 64, 0
7, 13124, Control_c, 5, 64, 127
7, 13428, Control_c, 5, 64, 0
7, 13431, Note_on_c, 5, 76, 0
7, 13432, Note_on_c, 5, 69, 113
7, 13676, Control_c, 5, 64, 127
7, 13813, Note_on_c, 5, 69, 0
7, 13858, Note_on_c, 5, 67, 117
7, 13870, Control_c, 5, 64, 0
7, 14077, Control_c, 5, 64, 127
7, 14272, Note_on_c, 5, 67, 0
7, 14325, Note_on_c, 5, 65, 110
7, 14325, Control_c, 5, 64, 0
7, 14490, Control_c, 5, 64, 127
7, 15036, Note_on_c, 5, 65, 0
7, 15108, Control_c, 5, 64, 0
7, 15109, Note_on_c, 5, 67, 113
7, 15190, Control_c, 5, 64, 127
7, 15269, Note_on_c, 5, 67, 0
7, 15344, Control_c, 5, 64, 0
7, 15350, Note_on_c, 5, 69, 110
7, 15563, Control_c, 5, 64, 127
7, 15714, Note_on_c, 5, 69, 0
7, 15783, Note_on_c, 5, 67, 120
7, 15790, Control_c, 5, 64, 0
7, 16024, Control_c, 5, 64, 127
7, 16189, Note_on_c, 5, 67, 0
7, 16258, Note_on_c, 5, 65, 113
7, 16261, Control_c, 5, 64, 0
7, 16464, Control_c, 5, 64, 127
7, 16943, Note_on_c, 5, 65, 0
7, 17025, Control_c, 5, 64, 0
7, 17031, Note_on_c, 5, 67, 120
7, 17110, Control_c, 5, 64, 127
7, 17182, Note_on_c, 5, 67, 0
7, 17280, Control_c, 5, 64, 0
7, 17283, Note_on_c, 5, 69, 104
7, 17473, Control_c, 5, 64, 127
7, 17640, Note_on_c, 5, 69, 0
7, 17692, Note_on_c, 5, 67, 104
7, 17698, Control_c, 5, 64, 0
7, 18001, Control_c, 5, 64, 127
7, 18140, Note_on_c, 5, 67, 0
7, 18187, Note_on_c, 5, 69, 94
7, 18205, Control_c, 5, 64, 0
7, 18383, Control_c, 5, 64, 127
7, 18592, Note_on_c, 5, 69, 0
7, 18665, Note_on_c, 5, 67, 113
7, 18667, Control_c, 5, 64, 0
7, 18939, Control_c, 5, 64, 127
7, 19101, Note_on_c, 5, 67, 0
7, 19190, Control_c, 5, 64, 0
7, 19195, Note_on_c, 5, 69, 107
7, 19458, Control_c, 5, 64, 127
7, 19542, Note_on_c, 5, 69, 0
7, 19615, Control_c, 5, 64, 0
7, 19617, Note_on_c, 5, 67, 113
7, 19930, Control_c, 5, 64, 127
7, 20031, Note_on_c, 5, 67, 0
7, 20127, Control_c, 5, 64, 0
7, 20151, Note_on_c, 5, 69, 99
7, 20376, Control_c, 5, 64, 127
7, 20496, Note_on_c, 5, 69, 0
7, 20576, Note_on_c, 5, 67, 110
7, 20582, Control_c, 5, 64, 0
7, 20841, Control_c, 5, 64, 127
7, 21023, Note_on_c, 5, 67, 0
7, 21043, Control_c, 5, 64, 0
7, 21068, Note_on_c, 5, 65, 92
7, 21711, Control_c, 5, 64, 127
7, 21717, Control_c, 5, 64, 0
7, 21845, Control_c, 5, 64, 127
7, 22031, Note_on_c, 5, 65, 0
7, 22072, Control_c, 5, 64, 0
7, 22080, Note_on_c, 5, 82, 92
7, 22724, Control_c, 5, 64, 127
7, 22970, Control_c, 5, 64, 0
7, 23044, Control_c, 5, 64, 127
7, 23550, Control_c, 5, 64, 0
7, 24459, Control_c, 5, 64, 127
7, 24569, Control_c, 5, 64, 0
7, 29546, Control_c, 5, 64, 127
7, 29573, Control_c, 5, 64, 0
7, 29652, Control_c, 5, 64, 127
7, 29704, Control_c, 5, 64, 0
7, 30131, Control_c, 5, 64, 127
7, 30167, Control_c, 5, 64, 0
7, 31456, Control_c, 5, 64, 127
7, 31499, Control_c, 5, 64, 0
7, 31575, Control_c, 5, 64, 127
7, 31624, Control_c, 5, 64, 0
7, 31800, Control_c, 5, 64, 127
7, 31884, Control_c, 5, 64, 0
7, 31954, Control_c, 5, 64, 127
7, 32024, Control_c, 5, 64, 0
7, 32554, Control_c, 5, 64, 127
7, 33348, Note_on_c, 5, 82, 0
7, 33590, Note_on_c, 5, 64, 63
7, 33610, Control_c, 5, 64, 0
7, 33610, Note_on_c, 5, 76, 66
7, 33613, Note_on_c, 5, 64, 69
7, 34077, Note_on_c, 5, 64, 0
7, 34551, Note_on_c, 5, 81, 64
7, 34551, Note_on_c, 5, 69, 70
7, 34553, Note_on_c, 5, 64, 0
7, 34559, Note_on_c, 5, 76, 0
7, 34988, Note_on_c, 5, 81, 0
7, 34989, Note_on_c, 5, 69, 0
7, 35040, Note_on_c, 5, 67, 75
7, 35040, Note_on_c, 5, 79, 80
7, 35448, Note_on_c, 5, 77, 83
7, 35449, Note_on_c, 5, 65, 66
7, 35515, Note_on_c, 5, 67, 0
7, 35521, Note_on_c, 5, 79, 0
7, 36237, Note_on_c, 5, 67, 110
7, 36245, Note_on_c, 5, 65, 0
7, 36256, Note_on_c, 5, 77, 0
7, 36473, Note_on_c, 5, 69, 99
7, 36480, Note_on_c, 5, 67, 0
7, 36905, Note_on_c, 5, 67, 113
7, 36912, Note_on_c, 5, 69, 0
7, 37373, Note_on_c, 5, 65, 92
7, 37380, Note_on_c, 5, 67, 0
7, 38149, Note_on_c, 5, 67, 123
7, 38158, Note_on_c, 5, 65, 0
7, 38396, Note_on_c, 5, 69, 107
7, 38398, Note_on_c, 5, 67, 0
7, 38818, Note_on_c, 5, 67, 104
7, 38827, Note_on_c, 5, 69, 0
7, 39359, Note_on_c, 5, 69, 110
7, 39361, Note_on_c, 5, 67, 0
7, 39790, Note_on_c, 5, 67, 107
7, 39798, Note_on_c, 5, 69, 0
7, 40326, Note_on_c, 5, 69, 110
7, 40330, Note_on_c, 5, 67, 0
7, 40740, Note_on_c, 5, 67, 97
7, 40746, Note_on_c, 5, 69, 0
7, 40800, Note_on_c, 5, 70, 44
7, 40800, Note_on_c, 5, 70, 0
7, 40800, Note_on_c, 5, 82, 58
7, 40800, Note_on_c, 5, 82, 0
7, 41284, Note_on_c, 5, 69, 101
7, 41285, Note_on_c, 5, 67, 0
7, 41697, Note_on_c, 5, 67, 107
7, 41707, Note_on_c, 5, 69, 0
7, 42243, Note_on_c, 5, 82, 86
7, 42245, Note_on_c, 5, 70, 73
7, 42259, Note_on_c, 5, 67, 0
7, 42265, Note_on_c, 5, 65, 62
7, 42604, Note_on_c, 5, 65, 0
7, 47493, Note_on_c, 5, 70, 0
7, 47497, Note_on_c, 5, 82, 0
7, 47504, Note_on_c, 5, 71, 45
7, 47511, Note_on_c, 5, 83, 74
7, 48000, Note_on_c, 5, 81, 79
7, 48002, Note_on_c, 5, 69, 101
7, 48031, Note_on_c, 5, 83, 0
7, 48034, Note_on_c, 5, 71, 0
7, 48392, Note_on_c, 5, 81, 0
7, 48393, Note_on_c, 5, 69, 0
7, 48419, Note_on_c, 5, 79, 99
7, 48420, Note_on_c, 5, 67, 101
7, 48870, Note_on_c, 5, 67, 0
7, 48871, Note_on_c, 5, 79, 0
7, 48898, Note_on_c, 5, 65, 97
7, 48898, Note_on_c, 5, 77, 94
7, 49640, Note_on_c, 5, 65, 0
7, 49649, Note_on_c, 5, 77, 0
7, 49674, Note_on_c, 5, 67, 110
7, 49674, Note_on_c, 5, 79, 92
7, 49893, Note_on_c, 5, 67, 0
7, 49901, Note_on_c, 5, 79, 0
7, 49926, Note_on_c, 5, 81, 97
7, 49928, Note_on_c, 5, 69, 99
7, 50311, Note_on_c, 5, 69, 0
7, 50312, Note_on_c, 5, 81, 0
7, 50336, Note_on_c, 5, 67, 107
7, 50337, Note_on_c, 5, 79, 104
7, 50781, Note_on_c, 5, 67, 0
7, 50783, Note_on_c, 5, 79, 0
7, 50813, Note_on_c, 5, 77, 92
7, 50814, Note_on_c, 5, 65, 97
7, 51551, Note_on_c, 5, 65, 0
7, 51551, Note_on_c, 5, 77, 0
7, 51591, Note_on_c, 5, 67, 104
7, 51592, Note_on_c, 5, 79, 94
7, 51804, Note_on_c, 5, 67, 0
7, 51816, Note_on_c, 5, 79, 0
7, 51840, Note_on_c, 5, 69, 94
7, 51841, Note_on_c, 5, 81, 94
7, 52231, Note_on_c, 5, 69, 0
7, 52235, Note_on_c, 5, 81, 0
7, 52258, Note_on_c, 5, 67, 104
7, 52259, Note_on_c, 5, 79, 85
7, 52771, Note_on_c, 5, 67, 0
7, 52778, Note_on_c, 5, 79, 0
7, 52803, Note_on_c, 5, 81, 86
7, 52803, Note_on_c, 5, 69, 94
7, 53211, Note_on_c, 5, 69, 0
7, 53213, Note_on_c, 5, 81, 0
7, 53231, Note_on_c, 5, 79, 92
7, 53232, Note_on_c, 5, 67, 110
7, 53720, Note_on_c, 5, 67, 0
7, 53725, Note_on_c, 5, 79, 0
7, 53757, Note_on_c, 5, 81, 97
7, 53759, Note_on_c, 5, 69, 99
7, 54155, Note_on_c, 5, 69, 0
7, 54157, Note_on_c, 5, 81, 0
7, 54182, Note_on_c, 5, 79, 90
7, 54184, Note_on_c, 5, 67, 101
7, 54632, Note_on_c, 5, 67, 0
7, 54639, Note_on_c, 5, 79, 0
7, 54714, Note_on_c, 5, 69, 97
7, 54717, Note_on_c, 5, 81, 94
7, 55112, Note_on_c, 5, 69, 0
7, 55114, Note_on_c, 5, 81, 0
7, 55142, Note_on_c, 5, 79, 92
7, 55144, Note_on_c, 5, 67, 99
7, 55645, Note_on_c, 5, 67, 0
7, 55650, Note_on_c, 5, 79, 0
7, 55679, Note_on_c, 5, 69, 94
7, 55680, Note_on_c, 5, 81, 90
7, 56071, Note_on_c, 5, 69, 0
7, 56072, Note_on_c, 5, 81, 0
7, 56108, Note_on_c, 5, 79, 92
7, 56109, Note_on_c, 5, 67, 99
7, 56609, Note_on_c, 5, 67, 0
7, 56616, Note_on_c, 5, 79, 0
7, 56641, Note_on_c, 5, 81, 90
7, 56642, Note_on_c, 5, 69, 94
7, 57075, Note_on_c, 5, 81, 0
7, 57083, Note_on_c, 5, 69, 0
7, 57114, Note_on_c, 5, 79, 73
7, 57115, Note_on_c, 5, 67, 94
7, 57573, Note_on_c, 5, 67, 0
7, 57583, Note_on_c, 5, 79, 0
7, 57600, Note_on_c, 5, 69, 72
7, 57601, Note_on_c, 5, 81, 76
7, 57985, Note_on_c, 5, 69, 0
7, 57988, Note_on_c, 5, 81, 0
7, 58021, Note_on_c, 5, 79, 74
7, 58024, Note_on_c, 5, 67, 90
7, 58524, Note_on_c, 5, 67, 0
7, 58532, Note_on_c, 5, 79, 0
7, 58552, Note_on_c, 5, 69, 85
7, 58554, Note_on_c, 5, 81, 72
7, 58947, Note_on_c, 5, 81, 0
7, 58950, Note_on_c, 5, 69, 0
7, 58978, Note_on_c, 5, 79, 82
7, 58979, Note_on_c, 5, 67, 101
7, 59465, Note_on_c, 5, 67, 0
7, 59471, Note_on_c, 5, 79, 0
7, 59504, Note_on_c, 5, 69, 88
7, 59505, Note_on_c, 5, 81, 90
7, 59912, Note_on_c, 5, 69, 0
7, 59913, Note_on_c, 5, 81, 0
7, 59938, Note_on_c, 5, 79, 73
7, 59941, Note_on_c, 5, 67, 107
7, 60449, Note_on_c, 5, 67, 0
7, 60457, Note_on_c, 5, 79, 0
7, 60481, Note_on_c, 5, 69, 88
7, 60483, Note_on_c, 5, 81, 72
7, 60870, Note_on_c, 5, 69, 0
7, 60871, Note_on_c, 5, 81, 0
7, 60897, Note_on_c, 5, 79, 75
7, 60900, Note_on_c, 5, 67, 97
7, 61402, Note_on_c, 5, 67, 0
7, 61411, Note_on_c, 5, 79, 0
7, 61440, Note_on_c, 5, 81, 83
7, 61441, Note_on_c, 5, 69, 86
7, 61845, Note_on_c, 5, 81, 0
7, 61850, Note_on_c, 5, 69, 0
7, 61871, Note_on_c, 5, 79, 75
7, 61873, Note_on_c, 5, 67, 104
7, 62356, Note_on_c, 5, 67, 0
7, 62371, Note_on_c, 5, 79, 0
7, 62392, Note_on_c, 5, 69, 76
7, 62394, Note_on_c, 5, 81, 66
7, 62400, Control_c, 5, 7, 78
7, 62440, Control_c, 5, 7, 77
7, 62480, Control_c, 5, 7, 76
7, 62520, Control_c, 5, 7, 75
7, 62550, Control_c, 5, 7, 74
7, 62590, Control_c, 5, 7, 73
7, 62630, Control_c, 5, 7, 72
7, 62660, Control_c, 5, 7, 71
7, 62700, Control_c, 5, 7, 70
7, 62740, Control_c, 5, 7, 69
7, 62770, Control_c, 5, 7, 68
7, 62780, Note_on_c, 5, 69, 0
7, 62785, Note_on_c, 5, 81, 0
7, 62809, Note_on_c, 5, 67, 80
7, 62810, Control_c, 5, 7, 67
7, 62811, Note_on_c, 5, 79, 69
7, 62850, Control_c, 5, 7, 66
7, 62880, Control_c, 5, 7, 65
7, 62920, Control_c, 5, 7, 64
7, 62960, Control_c, 5, 7, 63
7, 63000, Control_c, 5, 7, 62
7, 63030, Control_c, 5, 7, 61
7, 63070, Control_c, 5, 7, 60
7, 63110, Control_c, 5, 7, 59
7, 63140, Control_c, 5, 7, 58
7, 63180, Control_c, 5, 7, 57
7, 63220, Control_c, 5, 7, 56
7, 63250, Control_c, 5, 7, 55
7, 63290, Control_c, 5, 7, 54
7, 63318, Note_on_c, 5, 67, 0
7, 63330, Note_on_c, 5, 79, 0
7, 63330, Control_c, 5, 7, 53
7, 63349, Note_on_c, 5, 69, 51
7, 63350, Note_on_c, 5, 81, 69
7, 63360, Control_c, 5, 7, 52
7, 63400, Control_c, 5, 7, 51
7, 63440, Control_c, 5, 7, 50
7, 63480, Control_c, 5, 7, 49
7, 63510, Control_c, 5, 7, 48
7, 63550, Control_c, 5, 7, 47
7, 63590, Control_c, 5, 7, 46
7, 63620, Control_c, 5, 7, 45
7, 63660, Control_c, 5, 7, 44
7, 63700, Control_c, 5, 7, 43
7, 63730, Control_c, 5, 7, 42
7, 63752, Note_on_c, 5, 81, 0
7, 63753, Note_on_c, 5, 69, 0
7, 63770, Control_c, 5, 7, 41
7, 63783, Note_on_c, 5, 67, 79
7, 63786, Note_on_c, 5, 79, 66
7, 63810, Control_c, 5, 7, 40
7, 63840, Control_c, 5, 7, 39
7, 63880, Control_c, 5, 7, 38
7, 63920, Control_c, 5, 7, 37
7, 63960, Control_c, 5, 7, 36
7, 63990, Control_c, 5, 7, 35
7, 64030, Control_c, 5, 7, 34
7, 64070, Control_c, 5, 7, 33
7, 64100, Control_c, 5, 7, 32
7, 64140, Control_c, 5, 7, 31
7, 64180, Control_c, 5, 7, 30
7, 64210, Control_c, 5, 7, 29
7, 64250, Control_c, 5, 7, 28
7, 64265, Note_on_c, 5, 67, 0
7, 64271, Note_on_c, 5, 79, 0
7, 64290, Control_c, 5, 7, 27
7, 64320, Control_c, 5, 7, 26
7, 64360, Control_c, 5, 7, 25
7, 64400, Control_c, 5, 7, 24
7, 64440, Control_c, 5, 7, 23
7, 64470, Control_c, 5, 7, 22
7, 64510, Control_c, 5, 7, 21
7, 64550, Control_c, 5, 7, 20
7, 64580, Control_c, 5, 7, 19
7, 64620, Control_c, 5, 7, 18
7, 64660, Control_c, 5, 7, 17
7, 64690, Control_c, 5, 7, 16
7, 64730, Control_c, 5, 7, 15
7, 64770, Control_c, 5, 7, 14
7, 64800, Control_c, 5, 7, 13
7, 64840, Control_c, 5, 7, 12
7, 64880, Control_c, 5, 7, 11
7, 64920, Control_c, 5, 7, 10
7, 64950, Control_c, 5, 7, 9
7, 64990, Control_c, 5, 7, 8
7, 65030, Control_c, 5, 7, 7
7, 65060, Control_c, 5, 7, 6
7, 65100, Control_c, 5, 7, 5
7, 65140, Control_c, 5, 7, 4
7, 65170, Control_c, 5, 7, 3
7, 65210, Control_c, 5, 7, 2
7, 65250, Control_c, 5, 7, 1
7, 65280, Control_c, 5, 7, 0
7, 65280, End_track
8, 0, Start_track
8, 0, MIDI_port, 0
8, 0, Title_t, "English Horn"
8, 0, Control_c, 6, 0, 56
8, 0, Control_c, 6, 32, 0
8, 0, Program_c, 6, 69
8, 0, Control_c, 6, 7, 90
8, 0, Control_c, 6, 10, 63
8, 33340, Control_c, 6, 91, 2
8, 33384, Control_c, 6, 91, 6
8, 33390, Control_c, 6, 91, 8
8, 33474, Control_c, 6, 91, 12
8, 33481, Control_c, 6, 91, 16
8, 33485, Control_c, 6, 91, 21
8, 33490, Control_c, 6, 91, 25
8, 33502, Control_c, 6, 91, 29
8, 33508, Control_c, 6, 91, 33
8, 33514, Control_c, 6, 91, 37
8, 33526, Control_c, 6, 91, 39
8, 33584, Control_c, 6, 91, 42
8, 33592, Control_c, 6, 91, 44
8, 33600, Control_c, 6, 91, 46
8, 33613, Control_c, 6, 91, 47
8, 33660, Control_c, 6, 91, 49
8, 33695, Control_c, 6, 91, 52
8, 33730, Control_c, 6, 91, 54
8, 33745, Control_c, 6, 91, 55
8, 33800, Control_c, 6, 91, 58
8, 33810, Control_c, 6, 91, 60
8, 34082, Control_c, 6, 7, 88
8, 34092, Control_c, 6, 7, 86
8, 34097, Control_c, 6, 7, 84
8, 34107, Control_c, 6, 7, 83
8, 34123, Control_c, 6, 7, 82
8, 34128, Control_c, 6, 7, 81
8, 34133, Control_c, 6, 7, 80
8, 34145, Control_c, 6, 7, 78
8, 34160, Control_c, 6, 7, 75
8, 34165, Control_c, 6, 7, 74
8, 34175, Control_c, 6, 7, 73
8, 34180, Control_c, 6, 7, 72
8, 34505, Control_c, 6, 91, 66
8, 34555, Control_c, 6, 91, 68
8, 34610, Control_c, 6, 91, 69
8, 34645, Control_c, 6, 91, 72
8, 34999, Control_c, 6, 91, 73
8, 35004, Control_c, 6, 91, 77
8, 35015, Control_c, 6, 91, 82
8, 35035, Control_c, 6, 91, 84
8, 35060, Control_c, 6, 91, 87
8, 35080, Control_c, 6, 91, 91
8, 35085, Control_c, 6, 91, 93
8, 35340, Control_c, 6, 91, 94
8, 35345, Control_c, 6, 91, 98
8, 35355, Control_c, 6, 91, 102
8, 35390, Control_c, 6, 91, 105
8, 36065, Control_c, 6, 93, 66
8, 36100, Control_c, 6, 93, 69
8, 36105, Control_c, 6, 93, 70
8, 36110, Control_c, 6, 93, 77
8, 36115, Control_c, 6, 93, 79
8, 36120, Control_c, 6, 93, 84
8, 36135, Control_c, 6, 7, 73
8, 36245, Control_c, 6, 93, 82
8, 36250, Control_c, 6, 93, 80
8, 36390, Control_c, 6, 7, 72
8, 36480, Control_c, 6, 7, 71
8, 36690, Control_c, 6, 7, 72
8, 36695, Control_c, 6, 7, 73
8, 36765, Control_c, 6, 7, 74
8, 36922, Control_c, 6, 7, 75
8, 36927, Control_c, 6, 7, 76
8, 37105, Control_c, 6, 7, 75
8, 37115, Control_c, 6, 7, 74
8, 37120, Control_c, 6, 7, 73
8, 37200, Control_c, 6, 7, 72
8, 37210, Control_c, 6, 7, 71
8, 37245, Control_c, 6, 7, 70
8, 37250, Control_c, 6, 7, 69
8, 37260, Control_c, 6, 7, 68
8, 37390, Control_c, 6, 7, 69
8, 37410, Control_c, 6, 7, 70
8, 37420, Control_c, 6, 7, 72
8, 37815, Control_c, 6, 91, 111
8, 37840, Control_c, 6, 91, 114
8, 37850, Control_c, 6, 91, 118
8, 37860, Control_c, 6, 91, 120
8, 37870, Control_c, 6, 91, 123
8, 37890, Control_c, 6, 91, 125
8, 38365, Control_c, 6, 93, 91
8, 38408, Control_c, 6, 93, 98
8, 38481, Control_c, 6, 93, 94
8, 38486, Control_c, 6, 93, 91
8, 38495, Control_c, 6, 93, 93
8, 38585, Control_c, 6, 93, 94
8, 38645, Control_c, 6, 93, 95
8, 38655, Control_c, 6, 93, 97
8, 38660, Control_c, 6, 93, 100
8, 38827, Control_c, 6, 93, 103
8, 38995, Control_c, 6, 93, 105
8, 39005, Control_c, 6, 93, 108
8, 39025, Control_c, 6, 93, 110
8, 39050, Control_c, 6, 93, 63
8, 39100, Control_c, 6, 93, 60
8, 39105, Control_c, 6, 93, 57
8, 39110, Control_c, 6, 93, 56
8, 39125, Control_c, 6, 93, 53
8, 39147, Control_c, 6, 93, 51
8, 39195, Control_c, 6, 93, 48
8, 39547, Control_c, 6, 93, 51
8, 39562, Control_c, 6, 93, 53
8, 39567, Control_c, 6, 93, 60
8, 39570, Control_c, 6, 93, 66
8, 39580, Control_c, 6, 93, 75
8, 39585, Control_c, 6, 93, 78
8, 39590, Control_c, 6, 93, 82
8, 39595, Control_c, 6, 93, 84
8, 39705, Control_c, 6, 93, 82
8, 39725, Control_c, 6, 93, 80
8, 39740, Control_c, 6, 93, 77
8, 39760, Control_c, 6, 93, 75
8, 39770, Control_c, 6, 93, 73
8, 39790, Control_c, 6, 93, 70
8, 39798, Control_c, 6, 93, 69
8, 40080, Control_c, 6, 93, 66
8, 40090, Control_c, 6, 93, 60
8, 40130, Control_c, 6, 93, 56
8, 40145, Control_c, 6, 93, 53
8, 40150, Control_c, 6, 93, 49
8, 40155, Control_c, 6, 93, 47
8, 40160, Control_c, 6, 93, 42
8, 40410, Control_c, 6, 93, 39
8, 41030, Control_c, 6, 7, 74
8, 41070, Control_c, 6, 7, 73
8, 41105, Control_c, 6, 7, 72
8, 41115, Control_c, 6, 7, 71
8, 41135, Control_c, 6, 7, 70
8, 41145, Control_c, 6, 7, 69
8, 41190, Control_c, 6, 7, 68
8, 42090, Control_c, 6, 7, 69
8, 42095, Control_c, 6, 7, 70
8, 42105, Control_c, 6, 7, 71
8, 42125, Control_c, 6, 7, 72
8, 42235, Control_c, 6, 7, 71
8, 42240, Control_c, 6, 7, 70
8, 42252, Control_c, 6, 7, 69
8, 42265, Control_c, 6, 7, 68
8, 42399, Control_c, 6, 64, 127
8, 42470, Control_c, 6, 7, 67
8, 42510, Control_c, 6, 7, 66
8, 42525, Control_c, 6, 7, 65
8, 42535, Control_c, 6, 7, 64
8, 42553, Control_c, 6, 7, 63
8, 42558, Control_c, 6, 7, 62
8, 42563, Control_c, 6, 7, 61
8, 42575, Control_c, 6, 7, 59
8, 42580, Control_c, 6, 7, 58
8, 42585, Control_c, 6, 7, 56
8, 42595, Control_c, 6, 7, 54
8, 42609, Control_c, 6, 7, 52
8, 42619, Control_c, 6, 7, 51
8, 42660, Control_c, 6, 7, 53
8, 42665, Control_c, 6, 7, 54
8, 42670, Control_c, 6, 7, 55
8, 42685, Control_c, 6, 7, 56
8, 42700, Control_c, 6, 7, 58
8, 42724, Note_on_c, 6, 82, 84
8, 42732, Control_c, 6, 64, 0
8, 42737, Control_c, 6, 7, 59
8, 42747, Control_c, 6, 7, 60
8, 42765, Control_c, 6, 7, 61
8, 42780, Control_c, 6, 7, 62
8, 42792, Control_c, 6, 64, 127
8, 42797, Control_c, 6, 7, 63
8, 42802, Control_c, 6, 7, 64
8, 42830, Control_c, 6, 7, 65
8, 42840, Control_c, 6, 7, 66
8, 42867, Control_c, 6, 7, 67
8, 42875, Control_c, 6, 7, 68
8, 42890, Control_c, 6, 7, 69
8, 42913, Control_c, 6, 7, 70
8, 42923, Control_c, 6, 7, 71
8, 42936, Note_on_c, 6, 82, 0
8, 42951, Control_c, 6, 7, 72
8, 42965, Control_c, 6, 7, 73
8, 42995, Control_c, 6, 7, 74
8, 43000, Control_c, 6, 7, 75
8, 43015, Control_c, 6, 7, 76
8, 43039, Control_c, 6, 7, 77
8, 43044, Control_c, 6, 7, 78
8, 43085, Control_c, 6, 7, 79
8, 43100, Control_c, 6, 7, 80
8, 43105, Control_c, 6, 7, 81
8, 43150, Control_c, 6, 7, 82
8, 43160, Control_c, 6, 7, 83
8, 43220, Control_c, 6, 7, 84
8, 43235, Control_c, 6, 7, 85
8, 43276, Control_c, 6, 7, 86
8, 43355, Control_c, 6, 7, 87
8, 43445, Control_c, 6, 7, 86
8, 43465, Control_c, 6, 7, 85
8, 43475, Control_c, 6, 7, 84
8, 43477, Note_on_c, 6, 80, 69
8, 43487, Control_c, 6, 7, 83
8, 43502, Control_c, 6, 64, 0
8, 43554, Control_c, 6, 64, 127
8, 43636, Control_c, 6, 7, 81
8, 43646, Control_c, 6, 7, 80
8, 43650, Control_c, 6, 7, 79
8, 43682, Note_on_c, 6, 80, 0
8, 43688, Note_on_c, 6, 72, 75
8, 43708, Control_c, 6, 64, 0
8, 43769, Control_c, 6, 64, 127
8, 43770, Control_c, 6, 7, 80
8, 43785, Control_c, 6, 7, 81
8, 43800, Control_c, 6, 7, 82
8, 43807, Control_c, 6, 7, 83
8, 43860, Note_on_c, 6, 75, 81
8, 43872, Note_on_c, 6, 72, 0
8, 43882, Control_c, 6, 7, 81
8, 43887, Control_c, 6, 7, 79
8, 43887, Control_c, 6, 64, 0
8, 43890, Control_c, 6, 7, 78
8, 43905, Control_c, 6, 7, 77
8, 43910, Control_c, 6, 7, 76
8, 43940, Control_c, 6, 7, 86
8, 44025, Control_c, 6, 7, 85
8, 44030, Control_c, 6, 7, 83
8, 44039, Control_c, 6, 7, 80
8, 44039, Note_on_c, 6, 77, 69
8, 44045, Control_c, 6, 7, 76
8, 44047, Note_on_c, 6, 75, 0
8, 44047, Control_c, 6, 7, 75
8, 44070, Control_c, 6, 7, 74
8, 44075, Control_c, 6, 7, 73
8, 44080, Control_c, 6, 7, 71
8, 44085, Control_c, 6, 7, 69
8, 44090, Control_c, 6, 7, 68
8, 44095, Control_c, 6, 7, 66
8, 44103, Control_c, 6, 7, 63
8, 44108, Control_c, 6, 7, 62
8, 44112, Control_c, 6, 7, 61
8, 44125, Control_c, 6, 7, 59
8, 44133, Control_c, 6, 7, 58
8, 44138, Control_c, 6, 7, 57
8, 44143, Control_c, 6, 7, 56
8, 44157, Control_c, 6, 7, 55
8, 44163, Control_c, 6, 7, 54
8, 44230, Control_c, 6, 7, 55
8, 44235, Control_c, 6, 7, 58
8, 44240, Control_c, 6, 7, 60
8, 44255, Control_c, 6, 7, 61
8, 44270, Control_c, 6, 7, 62
8, 44275, Control_c, 6, 7, 63
8, 44295, Control_c, 6, 7, 64
8, 44310, Control_c, 6, 7, 65
8, 44315, Control_c, 6, 7, 66
8, 44350, Control_c, 6, 7, 67
8, 44370, Control_c, 6, 7, 68
8, 44390, Control_c, 6, 7, 69
8, 44396, Note_on_c, 6, 70, 41
8, 44400, Control_c, 6, 7, 70
8, 44410, Control_c, 6, 7, 71
8, 44415, Control_c, 6, 7, 72
8, 44430, Control_c, 6, 7, 73
8, 44440, Control_c, 6, 7, 74
8, 44450, Control_c, 6, 7, 75
8, 44460, Control_c, 6, 7, 76
8, 44488, Control_c, 6, 7, 77
8, 44500, Control_c, 6, 7, 78
8, 44525, Control_c, 6, 64, 127
8, 44550, Control_c, 6, 7, 79
8, 44555, Control_c, 6, 7, 80
8, 44565, Control_c, 6, 7, 81
8, 44623, Note_on_c, 6, 77, 0
8, 44691, Control_c, 6, 64, 0
8, 44812, Control_c, 6, 64, 127
8, 44925, Control_c, 6, 7, 80
8, 44930, Control_c, 6, 7, 79
8, 44940, Control_c, 6, 7, 78
8, 44950, Control_c, 6, 7, 77
8, 44955, Control_c, 6, 7, 76
8, 44960, Control_c, 6, 7, 75
8, 44965, Control_c, 6, 7, 74
8, 44970, Control_c, 6, 7, 73
8, 44980, Control_c, 6, 7, 72
8, 44985, Control_c, 6, 7, 71
8, 44990, Control_c, 6, 7, 70
8, 44995, Control_c, 6, 7, 68
8, 45000, Control_c, 6, 7, 67
8, 45005, Control_c, 6, 7, 65
8, 45015, Control_c, 6, 7, 64
8, 45020, Control_c, 6, 7, 62
8, 45025, Control_c, 6, 7, 61
8, 45030, Control_c, 6, 7, 59
8, 45035, Control_c, 6, 7, 57
8, 45045, Control_c, 6, 7, 56
8, 45065, Control_c, 6, 7, 59
8, 45070, Control_c, 6, 7, 60
8, 45075, Control_c, 6, 7, 61
8, 45080, Control_c, 6, 7, 64
8, 45085, Control_c, 6, 7, 66
8, 45095, Control_c, 6, 7, 68
8, 45100, Control_c, 6, 7, 70
8, 45105, Control_c, 6, 7, 72
8, 45112, Control_c, 6, 7, 73
8, 45118, Control_c, 6, 7, 74
8, 45122, Control_c, 6, 7, 76
8, 45125, Control_c, 6, 7, 77
8, 45134, Control_c, 6, 7, 78
8, 45134, Note_on_c, 6, 80, 58
8, 45139, Control_c, 6, 7, 79
8, 45143, Note_on_c, 6, 70, 0
8, 45148, Control_c, 6, 7, 80
8, 45155, Control_c, 6, 7, 81
8, 45175, Control_c, 6, 7, 82
8, 45180, Control_c, 6, 7, 83
8, 45195, Control_c, 6, 64, 0
8, 45200, Control_c, 6, 7, 84
8, 45215, Control_c, 6, 7, 85
8, 45220, Control_c, 6, 7, 86
8, 45261, Control_c, 6, 7, 87
8, 45290, Control_c, 6, 7, 88
8, 45365, Control_c, 6, 7, 89
8, 45440, Control_c, 6, 64, 127
8, 45460, Control_c, 6, 7, 88
8, 45505, Control_c, 6, 7, 87
8, 45565, Control_c, 6, 7, 86
8, 45575, Control_c, 6, 7, 84
8, 45601, Control_c, 6, 7, 83
8, 45605, Note_on_c, 6, 79, 62
8, 45614, Control_c, 6, 64, 0
8, 45619, Note_on_c, 6, 80, 0
8, 45645, Control_c, 6, 7, 82
8, 45666, Control_c, 6, 7, 81
8, 45700, Control_c, 6, 7, 80
8, 45740, Control_c, 6, 7, 79
8, 45745, Control_c, 6, 7, 78
8, 45765, Control_c, 6, 7, 77
8, 45770, Control_c, 6, 7, 76
8, 45777, Control_c, 6, 7, 75
8, 45777, Note_on_c, 6, 75, 54
8, 45790, Note_on_c, 6, 79, 0
8, 45790, Control_c, 6, 7, 74
8, 45905, Control_c, 6, 7, 73
8, 45910, Control_c, 6, 7, 71
8, 45925, Control_c, 6, 7, 68
8, 45930, Control_c, 6, 7, 66
8, 45960, Control_c, 6, 7, 65
8, 46010, Control_c, 6, 7, 66
8, 46020, Control_c, 6, 7, 67
8, 46025, Control_c, 6, 7, 68
8, 46031, Note_on_c, 6, 77, 73
8, 46036, Control_c, 6, 7, 69
8, 46045, Note_on_c, 6, 75, 0
8, 46050, Control_c, 6, 7, 70
8, 46058, Control_c, 6, 7, 71
8, 46089, Control_c, 6, 7, 72
8, 46099, Control_c, 6, 7, 73
8, 46120, Control_c, 6, 7, 74
8, 46160, Control_c, 6, 7, 75
8, 46169, Control_c, 6, 64, 127
8, 46170, Control_c, 6, 7, 76
8, 46190, Control_c, 6, 7, 77
8, 46205, Control_c, 6, 7, 78
8, 46225, Control_c, 6, 7, 79
8, 46230, Control_c, 6, 7, 80
8, 46245, Control_c, 6, 7, 81
8, 46265, Control_c, 6, 7, 82
8, 46270, Control_c, 6, 7, 83
8, 46375, Control_c, 6, 7, 82
8, 46383, Control_c, 6, 7, 81
8, 46384, Control_c, 6, 7, 80
8, 46399, Control_c, 6, 7, 79
8, 46404, Control_c, 6, 7, 78
8, 46415, Control_c, 6, 7, 77
8, 46450, Control_c, 6, 7, 76
8, 46463, Control_c, 6, 7, 74
8, 46475, Control_c, 6, 7, 73
8, 46480, Control_c, 6, 7, 72
8, 46485, Control_c, 6, 7, 71
8, 46492, Note_on_c, 6, 68, 47
8, 46500, Control_c, 6, 7, 70
8, 46508, Note_on_c, 6, 77, 0
8, 46518, Control_c, 6, 7, 69
8, 46523, Control_c, 6, 7, 68
8, 46540, Control_c, 6, 7, 67
8, 46550, Control_c, 6, 7, 66
8, 46553, Control_c, 6, 64, 0
8, 46565, Control_c, 6, 7, 65
8, 46585, Control_c, 6, 7, 64
8, 46600, Control_c, 6, 7, 63
8, 46670, Control_c, 6, 7, 64
8, 46685, Control_c, 6, 7, 65
8, 46690, Control_c, 6, 7, 66
8, 46700, Control_c, 6, 7, 67
8, 46705, Control_c, 6, 7, 68
8, 46725, Control_c, 6, 7, 69
8, 46760, Control_c, 6, 7, 70
8, 46770, Control_c, 6, 7, 71
8, 46830, Control_c, 6, 7, 72
8, 46840, Control_c, 6, 7, 73
8, 46860, Control_c, 6, 7, 74
8, 46864, Control_c, 6, 7, 75
8, 46895, Control_c, 6, 7, 76
8, 46925, Control_c, 6, 7, 77
8, 46929, Control_c, 6, 64, 127
8, 46934, Control_c, 6, 7, 78
8, 46950, Control_c, 6, 7, 79
8, 46975, Control_c, 6, 7, 80
8, 46985, Control_c, 6, 7, 81
8, 47072, Control_c, 6, 64, 0
8, 47110, Control_c, 6, 7, 77
8, 47119, Control_c, 6, 7, 78
8, 47151, Control_c, 6, 64, 127
8, 47167, Control_c, 6, 7, 79
8, 47182, Control_c, 6, 7, 80
8, 47190, Control_c, 6, 7, 81
8, 47245, Control_c, 6, 7, 82
8, 47245, Control_c, 6, 64, 0
8, 47296, Control_c, 6, 64, 127
8, 47357, Control_c, 6, 7, 81
8, 47370, Control_c, 6, 7, 80
8, 47375, Control_c, 6, 7, 79
8, 47395, Control_c, 6, 7, 78
8, 47400, Control_c, 6, 7, 77
8, 47410, Control_c, 6, 7, 76
8, 47503, Control_c, 6, 7, 77
8, 47508, Control_c, 6, 7, 78
8, 47514, Note_on_c, 6, 76, 60
8, 47521, Control_c, 6, 7, 79
8, 47521, Control_c, 6, 64, 0
8, 47526, Control_c, 6, 7, 80
8, 47531, Control_c, 6, 7, 81
8, 47547, Note_on_c, 6, 68, 0
8, 47590, Control_c, 6, 7, 82
8, 47600, Control_c, 6, 7, 83
8, 47705, Control_c, 6, 7, 84
8, 47728, Control_c, 6, 64, 127
8, 47985, Note_on_c, 6, 76, 0
8, 47988, Control_c, 6, 64, 0
8, 48515, Control_c, 6, 91, 108
8, 48520, Control_c, 6, 91, 111
8, 48525, Control_c, 6, 91, 113
8, 48545, Control_c, 6, 91, 116
8, 48550, Control_c, 6, 91, 120
8, 48555, Control_c, 6, 91, 122
8, 48565, Control_c, 6, 91, 124
8, 48575, Control_c, 6, 91, 125
8, 48585, Control_c, 6, 91, 127
8, 48585, End_track
9, 0, Start_track
9, 0, MIDI_port, 0
9, 0, Title_t, "Pad 1 (new age)"
9, 0, Control_c, 7, 0, 56
9, 0, Control_c, 7, 32, 0
9, 0, Program_c, 7, 88
9, 0, Control_c, 7, 7, 110
9, 0, Control_c, 7, 10, 60
9, 12960, Note_on_c, 7, 71, 85
9, 12960, Note_on_c, 7, 64, 66
9, 12960, Note_on_c, 7, 68, 77
9, 12993, Control_c, 7, 64, 127
9, 13050, Note_on_c, 7, 68, 0
9, 13050, Note_on_c, 7, 64, 0
9, 13050, Note_on_c, 7, 71, 0
9, 13200, Note_on_c, 7, 76, 71
9, 13200, Note_on_c, 7, 71, 82
9, 13200, Note_on_c, 7, 68, 84
9, 13208, Control_c, 7, 64, 0
9, 13272, Control_c, 7, 64, 127
9, 13320, Note_on_c, 7, 68, 0
9, 13320, Note_on_c, 7, 71, 0
9, 13320, Note_on_c, 7, 76, 0
9, 13435, Control_c, 7, 64, 0
9, 13440, Note_on_c, 7, 69, 74
9, 13440, Note_on_c, 7, 76, 86
9, 13440, Note_on_c, 7, 72, 88
9, 13499, Control_c, 7, 64, 127
9, 13560, Note_on_c, 7, 72, 0
9, 13560, Note_on_c, 7, 76, 0
9, 13560, Note_on_c, 7, 69, 0
9, 13618, Control_c, 7, 64, 0
9, 13620, Note_on_c, 7, 69, 78
9, 13620, Note_on_c, 7, 77, 88
9, 13620, Note_on_c, 7, 72, 90
9, 13717, Control_c, 7, 64, 127
9, 13740, Note_on_c, 7, 72, 0
9, 13740, Note_on_c, 7, 77, 0
9, 13740, Note_on_c, 7, 69, 0
9, 13857, Control_c, 7, 64, 0
9, 13860, Note_on_c, 7, 67, 86
9, 13860, Note_on_c, 7, 71, 92
9, 13860, Note_on_c, 7, 74, 99
9, 13930, Control_c, 7, 64, 127
9, 13980, Note_on_c, 7, 74, 0
9, 13980, Note_on_c, 7, 71, 0
9, 13980, Note_on_c, 7, 67, 0
9, 14081, Control_c, 7, 64, 0
9, 14100, Note_on_c, 7, 76, 79
9, 14100, Note_on_c, 7, 72, 86
9, 14100, Note_on_c, 7, 67, 82
9, 14152, Control_c, 7, 64, 127
9, 14220, Note_on_c, 7, 67, 0
9, 14220, Note_on_c, 7, 72, 0
9, 14220, Note_on_c, 7, 76, 0
9, 14340, Note_on_c, 7, 72, 86
9, 14340, Note_on_c, 7, 65, 74
9, 14340, Note_on_c, 7, 69, 85
9, 14344, Control_c, 7, 64, 0
9, 14467, Control_c, 7, 64, 127
9, 14940, Note_on_c, 7, 69, 0
9, 14940, Note_on_c, 7, 65, 0
9, 14970, Note_on_c, 7, 72, 0
9, 15103, Control_c, 7, 64, 0
9, 15120, Note_on_c, 7, 74, 97
9, 15120, Note_on_c, 7, 67, 90
9, 15120, Note_on_c, 7, 71, 99
9, 15185, Control_c, 7, 64, 127
9, 15240, Note_on_c, 7, 71, 0
9, 15240, Note_on_c, 7, 67, 0
9, 15240, Note_on_c, 7, 74, 0
9, 15341, Control_c, 7, 64, 0
9, 15360, Note_on_c, 7, 69, 71
9, 15360, Note_on_c, 7, 76, 80
9, 15360, Note_on_c, 7, 72, 82
9, 15404, Control_c, 7, 64, 127
9, 15480, Note_on_c, 7, 72, 0
9, 15480, Note_on_c, 7, 76, 0
9, 15480, Note_on_c, 7, 69, 0
9, 15540, Note_on_c, 7, 77, 83
9, 15540, Note_on_c, 7, 69, 76
9, 15540, Note_on_c, 7, 72, 90
9, 15543, Control_c, 7, 64, 0
9, 15620, Control_c, 7, 64, 127
9, 15660, Note_on_c, 7, 72, 0
9, 15660, Note_on_c, 7, 69, 0
9, 15660, Note_on_c, 7, 77, 0
9, 15774, Control_c, 7, 64, 0
9, 15780, Note_on_c, 7, 67, 75
9, 15780, Note_on_c, 7, 74, 90
9, 15780, Note_on_c, 7, 71, 90
9, 15844, Control_c, 7, 64, 127
9, 15900, Note_on_c, 7, 71, 0
9, 15900, Note_on_c, 7, 74, 0
9, 15900, Note_on_c, 7, 67, 0
9, 16020, Note_on_c, 7, 76, 79
9, 16020, Note_on_c, 7, 67, 78
9, 16020, Note_on_c, 7, 72, 90
9, 16023, Control_c, 7, 64, 0
9, 16101, Control_c, 7, 64, 127
9, 16140, Note_on_c, 7, 72, 0
9, 16140, Note_on_c, 7, 67, 0
9, 16140, Note_on_c, 7, 76, 0
9, 16260, Note_on_c, 7, 65, 68
9, 16260, Note_on_c, 7, 72, 92
9, 16260, Note_on_c, 7, 69, 85
9, 16260, Control_c, 7, 64, 0
9, 16374, Control_c, 7, 64, 127
9, 16796, Control_c, 7, 64, 0
9, 16869, Control_c, 7, 64, 127
9, 16950, Note_on_c, 7, 65, 0
9, 16980, Note_on_c, 7, 69, 0
9, 16980, Note_on_c, 7, 72, 0
9, 17039, Control_c, 7, 64, 0
9, 17040, Note_on_c, 7, 71, 82
9, 17040, Note_on_c, 7, 67, 79
9, 17040, Note_on_c, 7, 74, 80
9, 17108, Control_c, 7, 64, 127
9, 17160, Note_on_c, 7, 74, 0
9, 17160, Note_on_c, 7, 67, 0
9, 17160, Note_on_c, 7, 71, 0
9, 17251, Control_c, 7, 64, 0
9, 17280, Note_on_c, 7, 72, 72
9, 17280, Note_on_c, 7, 69, 60
9, 17280, Note_on_c, 7, 76, 66
9, 17312, Control_c, 7, 64, 127
9, 17370, Note_on_c, 7, 76, 0
9, 17370, Note_on_c, 7, 69, 0
9, 17370, Note_on_c, 7, 72, 0
9, 17455, Control_c, 7, 64, 0
9, 17460, Note_on_c, 7, 77, 74
9, 17460, Note_on_c, 7, 72, 79
9, 17460, Note_on_c, 7, 69, 66
9, 17518, Control_c, 7, 64, 127
9, 17550, Note_on_c, 7, 69, 0
9, 17550, Note_on_c, 7, 72, 0
9, 17550, Note_on_c, 7, 77, 0
9, 17676, Control_c, 7, 64, 0
9, 17700, Note_on_c, 7, 71, 76
9, 17700, Note_on_c, 7, 67, 68
9, 17700, Note_on_c, 7, 74, 76
9, 17791, Control_c, 7, 64, 127
9, 17850, Note_on_c, 7, 74, 0
9, 17850, Note_on_c, 7, 67, 0
9, 17850, Note_on_c, 7, 71, 0
9, 17937, Control_c, 7, 64, 0
9, 17940, Note_on_c, 7, 76, 71
9, 17940, Note_on_c, 7, 67, 70
9, 17940, Note_on_c, 7, 72, 73
9, 18027, Control_c, 7, 64, 127
9, 18060, Note_on_c, 7, 72, 0
9, 18060, Note_on_c, 7, 67, 0
9, 18060, Note_on_c, 7, 76, 0
9, 18218, Control_c, 7, 64, 0
9, 18240, Note_on_c, 7, 69, 60
9, 18240, Note_on_c, 7, 76, 64
9, 18240, Note_on_c, 7, 72, 72
9, 18280, Control_c, 7, 64, 127
9, 18330, Note_on_c, 7, 72, 0
9, 18330, Note_on_c, 7, 76, 0
9, 18330, Note_on_c, 7, 69, 0
9, 18420, Note_on_c, 7, 69, 70
9, 18420, Note_on_c, 7, 77, 80
9, 18420, Note_on_c, 7, 72, 82
9, 18427, Control_c, 7, 64, 0
9, 18510, Control_c, 7, 64, 127
9, 18540, Note_on_c, 7, 72, 0
9, 18540, Note_on_c, 7, 77, 0
9, 18540, Note_on_c, 7, 69, 0
9, 18660, Note_on_c, 7, 74, 65
9, 18660, Note_on_c, 7, 71, 67
9, 18660, Note_on_c, 7, 67, 69
9, 18662, Control_c, 7, 64, 0
9, 18731, Control_c, 7, 64, 127
9, 18810, Note_on_c, 7, 67, 0
9, 18810, Note_on_c, 7, 71, 0
9, 18810, Note_on_c, 7, 74, 0
9, 18886, Control_c, 7, 64, 0
9, 18900, Note_on_c, 7, 72, 88
9, 18900, Note_on_c, 7, 67, 78
9, 18900, Note_on_c, 7, 76, 78
9, 18974, Control_c, 7, 64, 127
9, 18990, Note_on_c, 7, 76, 0
9, 18990, Note_on_c, 7, 67, 0
9, 18990, Note_on_c, 7, 72, 0
9, 19180, Control_c, 7, 64, 0
9, 19200, Note_on_c, 7, 69, 71
9, 19200, Note_on_c, 7, 76, 71
9, 19200, Note_on_c, 7, 72, 78
9, 19244, Control_c, 7, 64, 127
9, 19320, Note_on_c, 7, 72, 0
9, 19320, Note_on_c, 7, 76, 0
9, 19320, Note_on_c, 7, 69, 0
9, 19374, Control_c, 7, 64, 0
9, 19380, Note_on_c, 7, 72, 75
9, 19380, Note_on_c, 7, 69, 66
9, 19380, Note_on_c, 7, 77, 76
9, 19432, Control_c, 7, 64, 127
9, 19470, Note_on_c, 7, 77, 0
9, 19470, Note_on_c, 7, 69, 0
9, 19470, Note_on_c, 7, 72, 0
9, 19605, Control_c, 7, 64, 0
9, 19620, Note_on_c, 7, 67, 74
9, 19620, Note_on_c, 7, 74, 88
9, 19620, Note_on_c, 7, 71, 83
9, 19665, Control_c, 7, 64, 127
9, 19680, Note_on_c, 7, 71, 0
9, 19680, Note_on_c, 7, 74, 0
9, 19680, Note_on_c, 7, 67, 0
9, 19842, Control_c, 7, 64, 0
9, 19860, Note_on_c, 7, 76, 73
9, 19860, Note_on_c, 7, 67, 74
9, 19860, Note_on_c, 7, 72, 80
9, 19939, Control_c, 7, 64, 127
9, 19980, Note_on_c, 7, 72, 0
9, 19980, Note_on_c, 7, 67, 0
9, 19980, Note_on_c, 7, 76, 0
9, 20144, Control_c, 7, 64, 0
9, 20160, Note_on_c, 7, 69, 74
9, 20160, Note_on_c, 7, 76, 86
9, 20160, Note_on_c, 7, 72, 82
9, 20209, Control_c, 7, 64, 127
9, 20220, Note_on_c, 7, 72, 0
9, 20250, Note_on_c, 7, 76, 0
9, 20250, Note_on_c, 7, 69, 0
9, 20335, Control_c, 7, 64, 0
9, 20340, Note_on_c, 7, 69, 70
9, 20340, Note_on_c, 7, 77, 74
9, 20340, Note_on_c, 7, 72, 85
9, 20394, Control_c, 7, 64, 127
9, 20430, Note_on_c, 7, 72, 0
9, 20430, Note_on_c, 7, 77, 0
9, 20430, Note_on_c, 7, 69, 0
9, 20573, Control_c, 7, 64, 0
9, 20580, Note_on_c, 7, 67, 67
9, 20580, Note_on_c, 7, 74, 75
9, 20580, Note_on_c, 7, 71, 82
9, 20630, Control_c, 7, 64, 127
9, 20670, Note_on_c, 7, 71, 0
9, 20670, Note_on_c, 7, 74, 0
9, 20670, Note_on_c, 7, 67, 0
9, 20815, Control_c, 7, 64, 0
9, 20820, Note_on_c, 7, 76, 79
9, 20820, Note_on_c, 7, 67, 78
9, 20820, Note_on_c, 7, 72, 86
9, 20875, Control_c, 7, 64, 127
9, 20880, Note_on_c, 7, 72, 0
9, 20880, Note_on_c, 7, 76, 0
9, 20910, Note_on_c, 7, 67, 0
9, 21045, Control_c, 7, 64, 0
9, 21060, Note_on_c, 7, 68, 75
9, 21060, Note_on_c, 7, 72, 74
9, 21060, Note_on_c, 7, 65, 69
9, 22080, Note_on_c, 7, 65, 0
9, 22080, Note_on_c, 7, 72, 0
9, 22080, Note_on_c, 7, 68, 0
9, 34080, Note_on_c, 7, 71, 85
9, 34080, Note_on_c, 7, 64, 66
9, 34080, Note_on_c, 7, 68, 77
9, 34113, Control_c, 7, 64, 127
9, 34170, Note_on_c, 7, 68, 0
9, 34170, Note_on_c, 7, 64, 0
9, 34170, Note_on_c, 7, 71, 0
9, 34320, Note_on_c, 7, 76, 71
9, 34320, Note_on_c, 7, 71, 82
9, 34320, Note_on_c, 7, 68, 84
9, 34328, Control_c, 7, 64, 0
9, 34392, Control_c, 7, 64, 127
9, 34440, Note_on_c, 7, 68, 0
9, 34440, Note_on_c, 7, 71, 0
9, 34440, Note_on_c, 7, 76, 0
9, 34555, Control_c, 7, 64, 0
9, 34560, Note_on_c, 7, 69, 74
9, 34560, Note_on_c, 7, 76, 86
9, 34560, Note_on_c, 7, 72, 88
9, 34619, Control_c, 7, 64, 127
9, 34680, Note_on_c, 7, 72, 0
9, 34680, Note_on_c, 7, 76, 0
9, 34680, Note_on_c, 7, 69, 0
9, 34738, Control_c, 7, 64, 0
9, 34740, Note_on_c, 7, 69, 78
9, 34740, Note_on_c, 7, 77, 88
9, 34740, Note_on_c, 7, 72, 90
9, 34837, Control_c, 7, 64, 127
9, 34860, Note_on_c, 7, 72, 0
9, 34860, Note_on_c, 7, 77, 0
9, 34860, Note_on_c, 7, 69, 0
9, 34977, Control_c, 7, 64, 0
9, 34980, Note_on_c, 7, 67, 86
9, 34980, Note_on_c, 7, 71, 92
9, 34980, Note_on_c, 7, 74, 99
9, 35050, Control_c, 7, 64, 127
9, 35100, Note_on_c, 7, 74, 0
9, 35100, Note_on_c, 7, 71, 0
9, 35100, Note_on_c, 7, 67, 0
9, 35201, Control_c, 7, 64, 0
9, 35220, Note_on_c, 7, 76, 79
9, 35220, Note_on_c, 7, 72, 86
9, 35220, Note_on_c, 7, 67, 82
9, 35272, Control_c, 7, 64, 127
9, 35340, Note_on_c, 7, 67, 0
9, 35340, Note_on_c, 7, 72, 0
9, 35340, Note_on_c, 7, 76, 0
9, 35460, Note_on_c, 7, 72, 86
9, 35460, Note_on_c, 7, 65, 74
9, 35460, Note_on_c, 7, 69, 85
9, 35464, Control_c, 7, 64, 0
9, 35587, Control_c, 7, 64, 127
9, 36060, Note_on_c, 7, 69, 0
9, 36060, Note_on_c, 7, 65, 0
9, 36090, Note_on_c, 7, 72, 0
9, 36223, Control_c, 7, 64, 0
9, 36240, Note_on_c, 7, 74, 97
9, 36240, Note_on_c, 7, 67, 90
9, 36240, Note_on_c, 7, 71, 99
9, 36305, Control_c, 7, 64, 127
9, 36360, Note_on_c, 7, 71, 0
9, 36360, Note_on_c, 7, 67, 0
9, 36360, Note_on_c, 7, 74, 0
9, 36461, Control_c, 7, 64, 0
9, 36480, Note_on_c, 7, 69, 71
9, 36480, Note_on_c, 7, 76, 80
9, 36480, Note_on_c, 7, 72, 82
9, 36524, Control_c, 7, 64, 127
9, 36600, Note_on_c, 7, 72, 0
9, 36600, Note_on_c, 7, 76, 0
9, 36600, Note_on_c, 7, 69, 0
9, 36660, Note_on_c, 7, 77, 83
9, 36660, Note_on_c, 7, 69, 76
9, 36660, Note_on_c, 7, 72, 90
9, 36663, Control_c, 7, 64, 0
9, 36740, Control_c, 7, 64, 127
9, 36780, Note_on_c, 7, 72, 0
9, 36780, Note_on_c, 7, 69, 0
9, 36780, Note_on_c, 7, 77, 0
9, 36894, Control_c, 7, 64, 0
9, 36900, Note_on_c, 7, 67, 75
9, 36900, Note_on_c, 7, 74, 90
9, 36900, Note_on_c, 7, 71, 90
9, 36964, Control_c, 7, 64, 127
9, 37020, Note_on_c, 7, 71, 0
9, 37020, Note_on_c, 7, 74, 0
9, 37020, Note_on_c, 7, 67, 0
9, 37140, Note_on_c, 7, 76, 79
9, 37140, Note_on_c, 7, 67, 78
9, 37140, Note_on_c, 7, 72, 90
9, 37143, Control_c, 7, 64, 0
9, 37221, Control_c, 7, 64, 127
9, 37260, Note_on_c, 7, 72, 0
9, 37260, Note_on_c, 7, 67, 0
9, 37260, Note_on_c, 7, 76, 0
9, 37380, Note_on_c, 7, 65, 68
9, 37380, Note_on_c, 7, 72, 92
9, 37380, Note_on_c, 7, 69, 85
9, 37380, Control_c, 7, 64, 0
9, 37494, Control_c, 7, 64, 127
9, 37916, Control_c, 7, 64, 0
9, 37989, Control_c, 7, 64, 127
9, 38070, Note_on_c, 7, 65, 0
9, 38100, Note_on_c, 7, 69, 0
9, 38100, Note_on_c, 7, 72, 0
9, 38159, Control_c, 7, 64, 0
9, 38160, Note_on_c, 7, 71, 82
9, 38160, Note_on_c, 7, 67, 79
9, 38160, Note_on_c, 7, 74, 80
9, 38228, Control_c, 7, 64, 127
9, 38280, Note_on_c, 7, 74, 0
9, 38280, Note_on_c, 7, 67, 0
9, 38280, Note_on_c, 7, 71, 0
9, 38371, Control_c, 7, 64, 0
9, 38400, Note_on_c, 7, 72, 72
9, 38400, Note_on_c, 7, 69, 60
9, 38400, Note_on_c, 7, 76, 66
9, 38432, Control_c, 7, 64, 127
9, 38490, Note_on_c, 7, 76, 0
9, 38490, Note_on_c, 7, 69, 0
9, 38490, Note_on_c, 7, 72, 0
9, 38575, Control_c, 7, 64, 0
9, 38580, Note_on_c, 7, 77, 74
9, 38580, Note_on_c, 7, 72, 79
9, 38580, Note_on_c, 7, 69, 66
9, 38638, Control_c, 7, 64, 127
9, 38670, Note_on_c, 7, 69, 0
9, 38670, Note_on_c, 7, 72, 0
9, 38670, Note_on_c, 7, 77, 0
9, 38796, Control_c, 7, 64, 0
9, 38820, Note_on_c, 7, 71, 76
9, 38820, Note_on_c, 7, 67, 68
9, 38820, Note_on_c, 7, 74, 76
9, 38911, Control_c, 7, 64, 127
9, 38970, Note_on_c, 7, 74, 0
9, 38970, Note_on_c, 7, 67, 0
9, 38970, Note_on_c, 7, 71, 0
9, 39057, Control_c, 7, 64, 0
9, 39060, Note_on_c, 7, 76, 71
9, 39060, Note_on_c, 7, 67, 70
9, 39060, Note_on_c, 7, 72, 73
9, 39147, Control_c, 7, 64, 127
9, 39180, Note_on_c, 7, 72, 0
9, 39180, Note_on_c, 7, 67, 0
9, 39180, Note_on_c, 7, 76, 0
9, 39338, Control_c, 7, 64, 0
9, 39360, Note_on_c, 7, 69, 60
9, 39360, Note_on_c, 7, 76, 64
9, 39360, Note_on_c, 7, 72, 72
9, 39400, Control_c, 7, 64, 127
9, 39450, Note_on_c, 7, 72, 0
9, 39450, Note_on_c, 7, 76, 0
9, 39450, Note_on_c, 7, 69, 0
9, 39540, Note_on_c, 7, 69, 70
9, 39540, Note_on_c, 7, 77, 80
9, 39540, Note_on_c, 7, 72, 82
9, 39547, Control_c, 7, 64, 0
9, 39630, Control_c, 7, 64, 127
9, 39660, Note_on_c, 7, 72, 0
9, 39660, Note_on_c, 7, 77, 0
9, 39660, Note_on_c, 7, 69, 0
9, 39780, Note_on_c, 7, 74, 65
9, 39780, Note_on_c, 7, 71, 67
9, 39780, Note_on_c, 7, 67, 69
9, 39782, Control_c, 7, 64, 0
9, 39851, Control_c, 7, 64, 127
9, 39930, Note_on_c, 7, 67, 0
9, 39930, Note_on_c, 7, 71, 0
9, 39930, Note_on_c, 7, 74, 0
9, 40006, Control_c, 7, 64, 0
9, 40020, Note_on_c, 7, 72, 88
9, 40020, Note_on_c, 7, 67, 78
9, 40020, Note_on_c, 7, 76, 78
9, 40094, Control_c, 7, 64, 127
9, 40110, Note_on_c, 7, 76, 0
9, 40110, Note_on_c, 7, 67, 0
9, 40110, Note_on_c, 7, 72, 0
9, 40300, Control_c, 7, 64, 0
9, 40320, Note_on_c, 7, 69, 71
9, 40320, Note_on_c, 7, 76, 71
9, 40320, Note_on_c, 7, 72, 78
9, 40364, Control_c, 7, 64, 127
9, 40440, Note_on_c, 7, 72, 0
9, 40440, Note_on_c, 7, 76, 0
9, 40440, Note_on_c, 7, 69, 0
9, 40494, Control_c, 7, 64, 0
9, 40500, Note_on_c, 7, 72, 75
9, 40500, Note_on_c, 7, 69, 66
9, 40500, Note_on_c, 7, 77, 76
9, 40552, Control_c, 7, 64, 127
9, 40590, Note_on_c, 7, 77, 0
9, 40590, Note_on_c, 7, 69, 0
9, 40590, Note_on_c, 7, 72, 0
9, 40725, Control_c, 7, 64, 0
9, 40740, Note_on_c, 7, 67, 74
9, 40740, Note_on_c, 7, 74, 88
9, 40740, Note_on_c, 7, 71, 83
9, 40785, Control_c, 7, 64, 127
9, 40800, Note_on_c, 7, 71, 0
9, 40800, Note_on_c, 7, 74, 0
9, 40800, Note_on_c, 7, 67, 0
9, 40962, Control_c, 7, 64, 0
9, 40980, Note_on_c, 7, 76, 73
9, 40980, Note_on_c, 7, 67, 74
9, 40980, Note_on_c, 7, 72, 80
9, 41059, Control_c, 7, 64, 127
9, 41100, Note_on_c, 7, 72, 0
9, 41100, Note_on_c, 7, 67, 0
9, 41100, Note_on_c, 7, 76, 0
9, 41264, Control_c, 7, 64, 0
9, 41280, Note_on_c, 7, 69, 74
9, 41280, Note_on_c, 7, 76, 86
9, 41280, Note_on_c, 7, 72, 82
9, 41329, Control_c, 7, 64, 127
9, 41340, Note_on_c, 7, 72, 0
9, 41370, Note_on_c, 7, 76, 0
9, 41370, Note_on_c, 7, 69, 0
9, 41455, Control_c, 7, 64, 0
9, 41460, Note_on_c, 7, 69, 70
9, 41460, Note_on_c, 7, 77, 74
9, 41460, Note_on_c, 7, 72, 85
9, 41514, Control_c, 7, 64, 127
9, 41550, Note_on_c, 7, 72, 0
9, 41550, Note_on_c, 7, 77, 0
9, 41550, Note_on_c, 7, 69, 0
9, 41693, Control_c, 7, 64, 0
9, 41700, Note_on_c, 7, 67, 67
9, 41700, Note_on_c, 7, 74, 75
9, 41700, Note_on_c, 7, 71, 82
9, 41750, Control_c, 7, 64, 127
9, 41790, Note_on_c, 7, 71, 0
9, 41790, Note_on_c, 7, 74, 0
9, 41790, Note_on_c, 7, 67, 0
9, 41935, Control_c, 7, 64, 0
9, 41940, Note_on_c, 7, 76, 79
9, 41940, Note_on_c, 7, 67, 78
9, 41940, Note_on_c, 7, 72, 86
9, 41995, Control_c, 7, 64, 127
9, 42000, Note_on_c, 7, 72, 0
9, 42000, Note_on_c, 7, 76, 0
9, 42030, Note_on_c, 7, 67, 0
9, 42165, Control_c, 7, 64, 0
9, 42180, Note_on_c, 7, 70, 75
9, 42180, Note_on_c, 7, 73, 74
9, 42180, Note_on_c, 7, 65, 69
9, 43196, Note_on_c, 7, 68, 73
9, 43196, Note_on_c, 7, 72, 73
9, 43197, Note_on_c, 7, 65, 62
9, 43200, Note_on_c, 7, 65, 0
9, 43200, Note_on_c, 7, 70, 0
9, 43200, Note_on_c, 7, 73, 0
9, 44112, Note_on_c, 7, 68, 0
9, 44120, Note_on_c, 7, 72, 0
9, 44133, Note_on_c, 7, 65, 0
9, 44155, Note_on_c, 7, 70, 79
9, 44157, Note_on_c, 7, 73, 75
9, 44157, Note_on_c, 7, 65, 59
9, 45107, Note_on_c, 7, 73, 0
9, 45118, Note_on_c, 7, 72, 79
9, 45120, Note_on_c, 7, 68, 68
9, 45125, Note_on_c, 7, 70, 0
9, 46058, Note_on_c, 7, 65, 0
9, 46058, Note_on_c, 7, 72, 0
9, 46071, Note_on_c, 7, 68, 0
9, 46081, Note_on_c, 7, 70, 69
9, 46082, Note_on_c, 7, 73, 75
9, 46084, Note_on_c, 7, 65, 88
9, 47009, Note_on_c, 7, 65, 0
9, 47009, Note_on_c, 7, 73, 0
9, 47014, Note_on_c, 7, 70, 0
9, 47036, Note_on_c, 7, 72, 69
9, 47037, Note_on_c, 7, 65, 76
9, 47039, Note_on_c, 7, 68, 84
9, 47493, Note_on_c, 7, 65, 0
9, 47497, Note_on_c, 7, 72, 0
9, 47498, Note_on_c, 7, 68, 0
9, 47519, Note_on_c, 7, 71, 76
9, 47520, Note_on_c, 7, 68, 84
9, 47521, Note_on_c, 7, 64, 78
9, 47950, Note_on_c, 7, 64, 0
9, 47952, Note_on_c, 7, 68, 0
9, 47956, Note_on_c, 7, 71, 0
9, 48000, Note_on_c, 7, 69, 74
9, 48000, Note_on_c, 7, 76, 86
9, 48000, Note_on_c, 7, 72, 88
9, 48059, Control_c, 7, 64, 127
9, 48120, Note_on_c, 7, 72, 0
9, 48120, Note_on_c, 7, 76, 0
9, 48120, Note_on_c, 7, 69, 0
9, 48178, Control_c, 7, 64, 0
9, 48180, Note_on_c, 7, 69, 78
9, 48180, Note_on_c, 7, 77, 88
9, 48180, Note_on_c, 7, 72, 90
9, 48277, Control_c, 7, 64, 127
9, 48300, Note_on_c, 7, 72, 0
9, 48300, Note_on_c, 7, 77, 0
9, 48300, Note_on_c, 7, 69, 0
9, 48417, Control_c, 7, 64, 0
9, 48420, Note_on_c, 7, 67, 86
9, 48420, Note_on_c, 7, 71, 92
9, 48420, Note_on_c, 7, 74, 99
9, 48490, Control_c, 7, 64, 127
9, 48540, Note_on_c, 7, 74, 0
9, 48540, Note_on_c, 7, 71, 0
9, 48540, Note_on_c, 7, 67, 0
9, 48641, Control_c, 7, 64, 0
9, 48660, Note_on_c, 7, 76, 79
9, 48660, Note_on_c, 7, 72, 86
9, 48660, Note_on_c, 7, 67, 82
9, 48712, Control_c, 7, 64, 127
9, 48780, Note_on_c, 7, 67, 0
9, 48780, Note_on_c, 7, 72, 0
9, 48780, Note_on_c, 7, 76, 0
9, 48900, Note_on_c, 7, 72, 86
9, 48900, Note_on_c, 7, 65, 74
9, 48900, Note_on_c, 7, 69, 85
9, 48904, Control_c, 7, 64, 0
9, 49027, Control_c, 7, 64, 127
9, 49500, Note_on_c, 7, 69, 0
9, 49500, Note_on_c, 7, 65, 0
9, 49530, Note_on_c, 7, 72, 0
9, 49663, Control_c, 7, 64, 0
9, 49680, Note_on_c, 7, 74, 97
9, 49680, Note_on_c, 7, 67, 90
9, 49680, Note_on_c, 7, 71, 99
9, 49745, Control_c, 7, 64, 127
9, 49800, Note_on_c, 7, 71, 0
9, 49800, Note_on_c, 7, 67, 0
9, 49800, Note_on_c, 7, 74, 0
9, 49901, Control_c, 7, 64, 0
9, 49920, Note_on_c, 7, 69, 71
9, 49920, Note_on_c, 7, 76, 80
9, 49920, Note_on_c, 7, 72, 82
9, 49964, Control_c, 7, 64, 127
9, 50040, Note_on_c, 7, 72, 0
9, 50040, Note_on_c, 7, 76, 0
9, 50040, Note_on_c, 7, 69, 0
9, 50100, Note_on_c, 7, 77, 83
9, 50100, Note_on_c, 7, 69, 76
9, 50100, Note_on_c, 7, 72, 90
9, 50103, Control_c, 7, 64, 0
9, 50180, Control_c, 7, 64, 127
9, 50220, Note_on_c, 7, 72, 0
9, 50220, Note_on_c, 7, 69, 0
9, 50220, Note_on_c, 7, 77, 0
9, 50334, Control_c, 7, 64, 0
9, 50340, Note_on_c, 7, 67, 75
9, 50340, Note_on_c, 7, 74, 90
9, 50340, Note_on_c, 7, 71, 90
9, 50404, Control_c, 7, 64, 127
9, 50460, Note_on_c, 7, 71, 0
9, 50460, Note_on_c, 7, 74, 0
9, 50460, Note_on_c, 7, 67, 0
9, 50580, Note_on_c, 7, 76, 79
9, 50580, Note_on_c, 7, 67, 78
9, 50580, Note_on_c, 7, 72, 90
9, 50583, Control_c, 7, 64, 0
9, 50661, Control_c, 7, 64, 127
9, 50700, Note_on_c, 7, 72, 0
9, 50700, Note_on_c, 7, 67, 0
9, 50700, Note_on_c, 7, 76, 0
9, 50820, Note_on_c, 7, 65, 68
9, 50820, Note_on_c, 7, 72, 92
9, 50820, Note_on_c, 7, 69, 85
9, 50820, Control_c, 7, 64, 0
9, 50934, Control_c, 7, 64, 127
9, 51356, Control_c, 7, 64, 0
9, 51429, Control_c, 7, 64, 127
9, 51510, Note_on_c, 7, 65, 0
9, 51540, Note_on_c, 7, 69, 0
9, 51540, Note_on_c, 7, 72, 0
9, 51599, Control_c, 7, 64, 0
9, 51600, Note_on_c, 7, 71, 82
9, 51600, Note_on_c, 7, 67, 79
9, 51600, Note_on_c, 7, 74, 80
9, 51668, Control_c, 7, 64, 127
9, 51720, Note_on_c, 7, 74, 0
9, 51720, Note_on_c, 7, 67, 0
9, 51720, Note_on_c, 7, 71, 0
9, 51811, Control_c, 7, 64, 0
9, 51840, Note_on_c, 7, 72, 72
9, 51840, Note_on_c, 7, 69, 60
9, 51840, Note_on_c, 7, 76, 66
9, 51872, Control_c, 7, 64, 127
9, 51930, Note_on_c, 7, 76, 0
9, 51930, Note_on_c, 7, 69, 0
9, 51930, Note_on_c, 7, 72, 0
9, 52015, Control_c, 7, 64, 0
9, 52020, Note_on_c, 7, 77, 74
9, 52020, Note_on_c, 7, 72, 79
9, 52020, Note_on_c, 7, 69, 66
9, 52078, Control_c, 7, 64, 127
9, 52110, Note_on_c, 7, 69, 0
9, 52110, Note_on_c, 7, 72, 0
9, 52110, Note_on_c, 7, 77, 0
9, 52236, Control_c, 7, 64, 0
9, 52260, Note_on_c, 7, 71, 76
9, 52260, Note_on_c, 7, 67, 68
9, 52260, Note_on_c, 7, 74, 76
9, 52351, Control_c, 7, 64, 127
9, 52410, Note_on_c, 7, 74, 0
9, 52410, Note_on_c, 7, 67, 0
9, 52410, Note_on_c, 7, 71, 0
9, 52497, Control_c, 7, 64, 0
9, 52500, Note_on_c, 7, 76, 71
9, 52500, Note_on_c, 7, 67, 70
9, 52500, Note_on_c, 7, 72, 73
9, 52587, Control_c, 7, 64, 127
9, 52620, Note_on_c, 7, 72, 0
9, 52620, Note_on_c, 7, 67, 0
9, 52620, Note_on_c, 7, 76, 0
9, 52778, Control_c, 7, 64, 0
9, 52800, Note_on_c, 7, 69, 60
9, 52800, Note_on_c, 7, 76, 64
9, 52800, Note_on_c, 7, 72, 72
9, 52840, Control_c, 7, 64, 127
9, 52890, Note_on_c, 7, 72, 0
9, 52890, Note_on_c, 7, 76, 0
9, 52890, Note_on_c, 7, 69, 0
9, 52980, Note_on_c, 7, 69, 70
9, 52980, Note_on_c, 7, 77, 80
9, 52980, Note_on_c, 7, 72, 82
9, 52987, Control_c, 7, 64, 0
9, 53070, Control_c, 7, 64, 127
9, 53100, Note_on_c, 7, 72, 0
9, 53100, Note_on_c, 7, 77, 0
9, 53100, Note_on_c, 7, 69, 0
9, 53220, Note_on_c, 7, 74, 65
9, 53220, Note_on_c, 7, 71, 67
9, 53220, Note_on_c, 7, 67, 69
9, 53222, Control_c, 7, 64, 0
9, 53291, Control_c, 7, 64, 127
9, 53370, Note_on_c, 7, 67, 0
9, 53370, Note_on_c, 7, 71, 0
9, 53370, Note_on_c, 7, 74, 0
9, 53446, Control_c, 7, 64, 0
9, 53460, Note_on_c, 7, 72, 88
9, 53460, Note_on_c, 7, 67, 78
9, 53460, Note_on_c, 7, 76, 78
9, 53534, Control_c, 7, 64, 127
9, 53550, Note_on_c, 7, 76, 0
9, 53550, Note_on_c, 7, 67, 0
9, 53550, Note_on_c, 7, 72, 0
9, 53740, Control_c, 7, 64, 0
9, 53760, Note_on_c, 7, 69, 71
9, 53760, Note_on_c, 7, 76, 71
9, 53760, Note_on_c, 7, 72, 78
9, 53804, Control_c, 7, 64, 127
9, 53880, Note_on_c, 7, 72, 0
9, 53880, Note_on_c, 7, 76, 0
9, 53880, Note_on_c, 7, 69, 0
9, 53934, Control_c, 7, 64, 0
9, 53940, Note_on_c, 7, 72, 75
9, 53940, Note_on_c, 7, 69, 66
9, 53940, Note_on_c, 7, 77, 76
9, 53992, Control_c, 7, 64, 127
9, 54030, Note_on_c, 7, 77, 0
9, 54030, Note_on_c, 7, 69, 0
9, 54030, Note_on_c, 7, 72, 0
9, 54165, Control_c, 7, 64, 0
9, 54180, Note_on_c, 7, 67, 74
9, 54180, Note_on_c, 7, 74, 88
9, 54180, Note_on_c, 7, 71, 83
9, 54225, Control_c, 7, 64, 127
9, 54240, Note_on_c, 7, 71, 0
9, 54240, Note_on_c, 7, 74, 0
9, 54240, Note_on_c, 7, 67, 0
9, 54402, Control_c, 7, 64, 0
9, 54420, Note_on_c, 7, 76, 73
9, 54420, Note_on_c, 7, 67, 74
9, 54420, Note_on_c, 7, 72, 80
9, 54499, Control_c, 7, 64, 127
9, 54540, Note_on_c, 7, 72, 0
9, 54540, Note_on_c, 7, 67, 0
9, 54540, Note_on_c, 7, 76, 0
9, 54704, Control_c, 7, 64, 0
9, 54720, Note_on_c, 7, 76, 99
9, 54720, Note_on_c, 7, 69, 90
9, 54720, Note_on_c, 7, 72, 92
9, 54720, Note_on_c, 7, 69, 74
9, 54720, Note_on_c, 7, 76, 86
9, 54720, Note_on_c, 7, 72, 82
9, 54769, Control_c, 7, 64, 127
9, 54780, Note_on_c, 7, 72, 0
9, 54810, Note_on_c, 7, 76, 0
9, 54810, Note_on_c, 7, 69, 0
9, 54824, Control_c, 7, 64, 127
9, 54870, Note_on_c, 7, 69, 0
9, 54870, Note_on_c, 7, 76, 0
9, 54870, Note_on_c, 7, 72, 0
9, 54893, Control_c, 7, 64, 0
9, 54895, Control_c, 7, 64, 0
9, 54900, Note_on_c, 7, 77, 90
9, 54900, Note_on_c, 7, 69, 85
9, 54900, Note_on_c, 7, 72, 90
9, 54954, Control_c, 7, 64, 127
9, 55035, Control_c, 7, 64, 127
9, 55050, Note_on_c, 7, 72, 0
9, 55050, Note_on_c, 7, 69, 0
9, 55050, Note_on_c, 7, 77, 0
9, 55126, Control_c, 7, 64, 0
9, 55133, Control_c, 7, 64, 0
9, 55140, Note_on_c, 7, 71, 94
9, 55140, Note_on_c, 7, 67, 88
9, 55140, Note_on_c, 7, 74, 94
9, 55190, Control_c, 7, 64, 127
9, 55231, Control_c, 7, 64, 127
9, 55320, Note_on_c, 7, 74, 0
9, 55320, Note_on_c, 7, 67, 0
9, 55320, Note_on_c, 7, 71, 0
9, 55373, Control_c, 7, 64, 0
9, 55380, Note_on_c, 7, 76, 86
9, 55380, Note_on_c, 7, 67, 94
9, 55380, Note_on_c, 7, 72, 97
9, 55521, Control_c, 7, 64, 127
9, 55560, Note_on_c, 7, 72, 0
9, 55560, Note_on_c, 7, 67, 0
9, 55560, Note_on_c, 7, 76, 0
9, 55661, Control_c, 7, 64, 0
9, 55680, Note_on_c, 7, 69, 85
9, 55680, Note_on_c, 7, 72, 94
9, 55680, Note_on_c, 7, 76, 92
9, 55766, Control_c, 7, 64, 127
9, 55800, Note_on_c, 7, 69, 0
9, 55830, Note_on_c, 7, 76, 0
9, 55830, Note_on_c, 7, 72, 0
9, 55858, Control_c, 7, 64, 0
9, 55860, Note_on_c, 7, 69, 83
9, 55860, Note_on_c, 7, 77, 88
9, 55860, Note_on_c, 7, 74, 97
9, 56000, Control_c, 7, 64, 127
9, 56010, Note_on_c, 7, 74, 0
9, 56010, Note_on_c, 7, 77, 0
9, 56010, Note_on_c, 7, 69, 0
9, 56100, Note_on_c, 7, 74, 82
9, 56100, Note_on_c, 7, 71, 82
9, 56100, Note_on_c, 7, 67, 80
9, 56106, Control_c, 7, 64, 0
9, 56212, Control_c, 7, 64, 127
9, 56280, Note_on_c, 7, 67, 0
9, 56280, Note_on_c, 7, 71, 0
9, 56280, Note_on_c, 7, 74, 0
9, 56315, Control_c, 7, 64, 0
9, 56340, Note_on_c, 7, 76, 83
9, 56340, Note_on_c, 7, 67, 82
9, 56340, Note_on_c, 7, 72, 86
9, 56512, Control_c, 7, 64, 127
9, 56520, Note_on_c, 7, 72, 0
9, 56520, Note_on_c, 7, 76, 0
9, 56550, Note_on_c, 7, 67, 0
9, 56622, Control_c, 7, 64, 0
9, 56640, Note_on_c, 7, 69, 85
9, 56640, Note_on_c, 7, 76, 92
9, 56640, Note_on_c, 7, 72, 92
9, 56710, Control_c, 7, 64, 127
9, 56760, Note_on_c, 7, 72, 0
9, 56760, Note_on_c, 7, 76, 0
9, 56760, Note_on_c, 7, 69, 0
9, 56816, Control_c, 7, 64, 0
9, 56820, Note_on_c, 7, 69, 86
9, 56820, Note_on_c, 7, 74, 97
9, 56820, Note_on_c, 7, 77, 94
9, 56952, Control_c, 7, 64, 127
9, 56970, Note_on_c, 7, 77, 0
9, 56970, Note_on_c, 7, 69, 0
9, 57000, Note_on_c, 7, 74, 0
9, 57037, Control_c, 7, 64, 0
9, 57060, Note_on_c, 7, 67, 85
9, 57060, Note_on_c, 7, 74, 97
9, 57060, Note_on_c, 7, 71, 101
9, 57171, Control_c, 7, 64, 127
9, 57210, Note_on_c, 7, 71, 0
9, 57210, Note_on_c, 7, 67, 0
9, 57240, Note_on_c, 7, 74, 0
9, 57274, Control_c, 7, 64, 0
9, 57300, Note_on_c, 7, 72, 88
9, 57300, Note_on_c, 7, 67, 83
9, 57300, Note_on_c, 7, 76, 88
9, 57480, Control_c, 7, 64, 127
9, 57540, Note_on_c, 7, 76, 0
9, 57540, Note_on_c, 7, 67, 0
9, 57540, Note_on_c, 7, 72, 0
9, 57587, Control_c, 7, 64, 0
9, 57600, Note_on_c, 7, 69, 83
9, 57600, Note_on_c, 7, 72, 92
9, 57600, Note_on_c, 7, 76, 92
9, 57699, Control_c, 7, 64, 127
9, 57720, Note_on_c, 7, 72, 0
9, 57720, Note_on_c, 7, 69, 0
9, 57750, Note_on_c, 7, 76, 0
9, 57774, Control_c, 7, 64, 0
9, 57780, Note_on_c, 7, 74, 92
9, 57780, Note_on_c, 7, 77, 85
9, 57780, Note_on_c, 7, 69, 75
9, 57874, Control_c, 7, 64, 127
9, 57930, Note_on_c, 7, 69, 0
9, 57930, Note_on_c, 7, 77, 0
9, 57930, Note_on_c, 7, 74, 0
9, 57962, Control_c, 7, 64, 0
9, 58020, Note_on_c, 7, 74, 94
9, 58020, Note_on_c, 7, 71, 94
9, 58020, Note_on_c, 7, 67, 85
9, 58105, Control_c, 7, 64, 127
9, 58200, Note_on_c, 7, 67, 0
9, 58200, Note_on_c, 7, 71, 0
9, 58200, Note_on_c, 7, 74, 0
9, 58260, Note_on_c, 7, 76, 85
9, 58260, Note_on_c, 7, 72, 86
9, 58260, Note_on_c, 7, 67, 92
9, 58265, Control_c, 7, 64, 0
9, 58429, Control_c, 7, 64, 127
9, 58500, Note_on_c, 7, 67, 0
9, 58500, Note_on_c, 7, 72, 0
9, 58500, Note_on_c, 7, 76, 0
9, 58542, Control_c, 7, 64, 0
9, 58560, Note_on_c, 7, 76, 94
9, 58560, Note_on_c, 7, 69, 80
9, 58560, Note_on_c, 7, 72, 92
9, 58657, Control_c, 7, 64, 127
9, 58710, Note_on_c, 7, 72, 0
9, 58710, Note_on_c, 7, 69, 0
9, 58710, Note_on_c, 7, 76, 0
9, 58730, Control_c, 7, 64, 0
9, 58740, Note_on_c, 7, 69, 78
9, 58740, Note_on_c, 7, 74, 88
9, 58740, Note_on_c, 7, 77, 85
9, 58887, Control_c, 7, 64, 127
9, 58920, Note_on_c, 7, 77, 0
9, 58920, Note_on_c, 7, 74, 0
9, 58920, Note_on_c, 7, 69, 0
9, 58966, Control_c, 7, 64, 0
9, 58980, Note_on_c, 7, 74, 83
9, 58980, Note_on_c, 7, 67, 85
9, 58980, Note_on_c, 7, 71, 92
9, 59063, Control_c, 7, 64, 127
9, 59130, Note_on_c, 7, 71, 0
9, 59130, Note_on_c, 7, 67, 0
9, 59160, Note_on_c, 7, 74, 0
9, 59203, Control_c, 7, 64, 0
9, 59220, Note_on_c, 7, 67, 92
9, 59220, Note_on_c, 7, 76, 85
9, 59220, Note_on_c, 7, 72, 90
9, 59391, Control_c, 7, 64, 127
9, 59430, Note_on_c, 7, 72, 0
9, 59430, Note_on_c, 7, 76, 0
9, 59460, Note_on_c, 7, 67, 0
9, 59500, Control_c, 7, 64, 0
9, 59520, Note_on_c, 7, 76, 90
9, 59520, Note_on_c, 7, 69, 82
9, 59520, Note_on_c, 7, 72, 97
9, 59624, Control_c, 7, 64, 127
9, 59670, Note_on_c, 7, 72, 0
9, 59670, Note_on_c, 7, 69, 0
9, 59670, Note_on_c, 7, 76, 0
9, 59700, Note_on_c, 7, 69, 73
9, 59700, Note_on_c, 7, 74, 83
9, 59700, Note_on_c, 7, 77, 79
9, 59704, Control_c, 7, 64, 0
9, 59785, Control_c, 7, 64, 127
9, 59850, Note_on_c, 7, 77, 0
9, 59850, Note_on_c, 7, 74, 0
9, 59850, Note_on_c, 7, 69, 0
9, 59934, Control_c, 7, 64, 0
9, 59940, Note_on_c, 7, 67, 86
9, 59940, Note_on_c, 7, 74, 92
9, 59940, Note_on_c, 7, 71, 97
9, 60016, Control_c, 7, 64, 127
9, 60090, Note_on_c, 7, 71, 0
9, 60090, Note_on_c, 7, 67, 0
9, 60120, Note_on_c, 7, 74, 0
9, 60174, Control_c, 7, 64, 0
9, 60180, Note_on_c, 7, 76, 83
9, 60180, Note_on_c, 7, 67, 88
9, 60180, Note_on_c, 7, 72, 92
9, 60273, Control_c, 7, 64, 127
9, 60304, Control_c, 7, 64, 0
9, 60392, Control_c, 7, 64, 127
9, 60420, Note_on_c, 7, 72, 0
9, 60420, Note_on_c, 7, 67, 0
9, 60420, Note_on_c, 7, 76, 0
9, 60474, Control_c, 7, 64, 0
9, 60480, Note_on_c, 7, 76, 88
9, 60480, Note_on_c, 7, 72, 88
9, 60480, Note_on_c, 7, 69, 82
9, 60574, Control_c, 7, 64, 127
9, 60630, Note_on_c, 7, 69, 0
9, 60630, Note_on_c, 7, 72, 0
9, 60630, Note_on_c, 7, 76, 0
9, 60660, Note_on_c, 7, 69, 85
9, 60660, Note_on_c, 7, 77, 83
9, 60660, Note_on_c, 7, 74, 94
9, 60662, Control_c, 7, 64, 0
9, 60784, Control_c, 7, 64, 127
9, 60840, Note_on_c, 7, 74, 0
9, 60840, Note_on_c, 7, 77, 0
9, 60840, Note_on_c, 7, 69, 0
9, 60889, Control_c, 7, 64, 0
9, 60900, Note_on_c, 7, 71, 94
9, 60900, Note_on_c, 7, 74, 90
9, 60900, Note_on_c, 7, 67, 86
9, 60990, Control_c, 7, 64, 127
9, 61050, Note_on_c, 7, 67, 0
9, 61050, Note_on_c, 7, 71, 0
9, 61080, Note_on_c, 7, 74, 0
9, 61132, Control_c, 7, 64, 0
9, 61140, Note_on_c, 7, 76, 90
9, 61140, Note_on_c, 7, 67, 82
9, 61140, Note_on_c, 7, 72, 90
9, 61320, Control_c, 7, 64, 127
9, 61380, Note_on_c, 7, 72, 0
9, 61380, Note_on_c, 7, 67, 0
9, 61380, Note_on_c, 7, 76, 0
9, 61411, Control_c, 7, 64, 0
9, 61440, Note_on_c, 7, 76, 82
9, 61440, Note_on_c, 7, 72, 85
9, 61440, Note_on_c, 7, 69, 74
9, 61532, Control_c, 7, 64, 127
9, 61560, Note_on_c, 7, 69, 0
9, 61590, Note_on_c, 7, 72, 0
9, 61590, Note_on_c, 7, 76, 0
9, 61620, Note_on_c, 7, 77, 86
9, 61620, Note_on_c, 7, 74, 92
9, 61620, Note_on_c, 7, 69, 75
9, 61629, Control_c, 7, 64, 0
9, 61797, Control_c, 7, 64, 127
9, 61830, Note_on_c, 7, 69, 0
9, 61830, Note_on_c, 7, 74, 0
9, 61830, Note_on_c, 7, 77, 0
9, 61860, Control_c, 7, 64, 0
9, 61860, Note_on_c, 7, 74, 85
9, 61860, Note_on_c, 7, 67, 86
9, 61860, Note_on_c, 7, 71, 90
9, 62002, Control_c, 7, 64, 127
9, 62040, Note_on_c, 7, 71, 0
9, 62040, Note_on_c, 7, 67, 0
9, 62040, Note_on_c, 7, 74, 0
9, 62090, Control_c, 7, 64, 0
9, 62100, Note_on_c, 7, 67, 92
9, 62100, Note_on_c, 7, 72, 80
9, 62100, Note_on_c, 7, 76, 61
9, 62272, Control_c, 7, 64, 127
9, 62310, Note_on_c, 7, 72, 0
9, 62340, Note_on_c, 7, 76, 0
9, 62340, Note_on_c, 7, 67, 0
9, 62363, Control_c, 7, 64, 0
9, 62400, Note_on_c, 7, 76, 90
9, 62400, Note_on_c, 7, 72, 92
9, 62400, Note_on_c, 7, 69, 83
9, 62410, Control_c, 7, 7, 108
9, 62440, Control_c, 7, 7, 107
9, 62470, Control_c, 7, 7, 106
9, 62497, Control_c, 7, 64, 127
9, 62500, Control_c, 7, 7, 105
9, 62520, Note_on_c, 7, 69, 0
9, 62520, Control_c, 7, 7, 104
9, 62550, Note_on_c, 7, 72, 0
9, 62550, Note_on_c, 7, 76, 0
9, 62550, Control_c, 7, 7, 103
9, 62580, Control_c, 7, 7, 102
9, 62580, Note_on_c, 7, 74, 85
9, 62580, Note_on_c, 7, 77, 83
9, 62580, Note_on_c, 7, 69, 73
9, 62588, Control_c, 7, 64, 0
9, 62600, Control_c, 7, 7, 101
9, 62630, Control_c, 7, 7, 100
9, 62660, Control_c, 7, 7, 99
9, 62680, Control_c, 7, 7, 98
9, 62710, Control_c, 7, 7, 97
9, 62740, Control_c, 7, 7, 96
9, 62758, Control_c, 7, 64, 127
9, 62760, Control_c, 7, 7, 95
9, 62790, Note_on_c, 7, 69, 0
9, 62790, Note_on_c, 7, 77, 0
9, 62790, Note_on_c, 7, 74, 0
9, 62790, Control_c, 7, 7, 94
9, 62820, Control_c, 7, 7, 93
9, 62820, Note_on_c, 7, 71, 85
9, 62820, Note_on_c, 7, 74, 82
9, 62820, Note_on_c, 7, 67, 88
9, 62827, Control_c, 7, 64, 0
9, 62850, Control_c, 7, 7, 92
9, 62870, Control_c, 7, 7, 91
9, 62900, Control_c, 7, 7, 90
9, 62930, Control_c, 7, 7, 89
9, 62943, Control_c, 7, 64, 127
9, 62950, Control_c, 7, 7, 88
9, 62980, Control_c, 7, 7, 87
9, 63000, Note_on_c, 7, 67, 0
9, 63000, Note_on_c, 7, 71, 0
9, 63010, Control_c, 7, 7, 86
9, 63030, Note_on_c, 7, 74, 0
9, 63030, Control_c, 7, 7, 85
9, 63058, Control_c, 7, 64, 0
9, 63060, Control_c, 7, 7, 84
9, 63060, Note_on_c, 7, 67, 86
9, 63060, Note_on_c, 7, 76, 85
9, 63060, Note_on_c, 7, 72, 90
9, 63090, Control_c, 7, 7, 83
9, 63110, Control_c, 7, 7, 82
9, 63140, Control_c, 7, 7, 81
9, 63170, Control_c, 7, 7, 80
9, 63200, Control_c, 7, 7, 79
9, 63220, Control_c, 7, 7, 78
9, 63240, Control_c, 7, 64, 127
9, 63250, Control_c, 7, 7, 77
9, 63280, Control_c, 7, 7, 76
9, 63300, Note_on_c, 7, 72, 0
9, 63300, Note_on_c, 7, 76, 0
9, 63300, Note_on_c, 7, 67, 0
9, 63300, Control_c, 7, 7, 75
9, 63330, Control_c, 7, 7, 74
9, 63343, Control_c, 7, 64, 0
9, 63360, Control_c, 7, 7, 73
9, 63360, Note_on_c, 7, 69, 73
9, 63360, Note_on_c, 7, 72, 86
9, 63360, Note_on_c, 7, 76, 85
9, 63380, Control_c, 7, 7, 72
9, 63410, Control_c, 7, 7, 71
9, 63440, Control_c, 7, 7, 70
9, 63450, Control_c, 7, 64, 127
9, 63460, Control_c, 7, 7, 69
9, 63490, Control_c, 7, 7, 68
9, 63510, Note_on_c, 7, 76, 0
9, 63510, Note_on_c, 7, 72, 0
9, 63510, Note_on_c, 7, 69, 0
9, 63520, Control_c, 7, 7, 67
9, 63540, Note_on_c, 7, 74, 79
9, 63540, Note_on_c, 7, 77, 82
9, 63540, Note_on_c, 7, 69, 74
9, 63541, Control_c, 7, 64, 0
9, 63550, Control_c, 7, 7, 66
9, 63570, Control_c, 7, 7, 65
9, 63600, Control_c, 7, 7, 64
9, 63630, Control_c, 7, 7, 63
9, 63650, Control_c, 7, 7, 62
9, 63680, Control_c, 7, 7, 61
9, 63710, Control_c, 7, 7, 60
9, 63719, Control_c, 7, 64, 127
9, 63720, Note_on_c, 7, 69, 0
9, 63720, Note_on_c, 7, 77, 0
9, 63730, Control_c, 7, 7, 59
9, 63750, Note_on_c, 7, 74, 0
9, 63760, Control_c, 7, 7, 58
9, 63780, Note_on_c, 7, 74, 86
9, 63780, Note_on_c, 7, 71, 85
9, 63780, Note_on_c, 7, 67, 88
9, 63789, Control_c, 7, 64, 0
9, 63790, Control_c, 7, 7, 57
9, 63810, Control_c, 7, 7, 56
9, 63840, Control_c, 7, 7, 55
9, 63870, Control_c, 7, 7, 54
9, 63900, Control_c, 7, 7, 53
9, 63902, Control_c, 7, 64, 127
9, 63920, Control_c, 7, 7, 52
9, 63930, Note_on_c, 7, 71, 0
9, 63950, Control_c, 7, 7, 51
9, 63960, Note_on_c, 7, 67, 0
9, 63960, Note_on_c, 7, 74, 0
9, 63980, Control_c, 7, 7, 50
9, 64000, Control_c, 7, 7, 49
9, 64013, Control_c, 7, 64, 0
9, 64020, Note_on_c, 7, 76, 86
9, 64020, Note_on_c, 7, 72, 86
9, 64020, Note_on_c, 7, 67, 82
9, 64030, Control_c, 7, 7, 48
9, 64060, Control_c, 7, 7, 47
9, 64080, Control_c, 7, 7, 46
9, 64110, Control_c, 7, 7, 45
9, 64140, Control_c, 7, 7, 44
9, 64160, Control_c, 7, 7, 43
9, 64184, Control_c, 7, 64, 127
9, 64190, Control_c, 7, 7, 42
9, 64220, Control_c, 7, 7, 41
9, 64230, Note_on_c, 7, 67, 0
9, 64250, Control_c, 7, 7, 40
9, 64260, Note_on_c, 7, 72, 0
9, 64260, Note_on_c, 7, 76, 0
9, 64270, Control_c, 7, 7, 39
9, 64300, Control_c, 7, 7, 38
9, 64314, Control_c, 7, 64, 0
9, 64320, Note_on_c, 7, 76, 88
9, 64320, Note_on_c, 7, 69, 79
9, 64320, Note_on_c, 7, 72, 88
9, 64330, Control_c, 7, 7, 37
9, 64350, Control_c, 7, 7, 36
9, 64380, Control_c, 7, 7, 35
9, 64410, Control_c, 7, 7, 34
9, 64420, Control_c, 7, 64, 127
9, 64430, Control_c, 7, 7, 33
9, 64460, Control_c, 7, 7, 32
9, 64470, Note_on_c, 7, 72, 0
9, 64470, Note_on_c, 7, 69, 0
9, 64470, Note_on_c, 7, 76, 0
9, 64471, Control_c, 7, 64, 0
9, 64490, Control_c, 7, 7, 31
9, 64500, Note_on_c, 7, 74, 72
9, 64500, Note_on_c, 7, 69, 71
9, 64500, Note_on_c, 7, 77, 78
9, 64510, Control_c, 7, 7, 30
9, 64540, Control_c, 7, 7, 29
9, 64570, Control_c, 7, 7, 28
9, 64599, Control_c, 7, 64, 127
9, 64600, Control_c, 7, 7, 27
9, 64620, Control_c, 7, 7, 26
9, 64650, Control_c, 7, 7, 25
9, 64680, Note_on_c, 7, 77, 0
9, 64680, Note_on_c, 7, 69, 0
9, 64680, Note_on_c, 7, 74, 0
9, 64680, Control_c, 7, 7, 24
9, 64700, Control_c, 7, 7, 23
9, 64730, Control_c, 7, 7, 22
9, 64733, Control_c, 7, 64, 0
9, 64740, Note_on_c, 7, 67, 78
9, 64740, Note_on_c, 7, 74, 85
9, 64740, Note_on_c, 7, 71, 83
9, 64760, Control_c, 7, 7, 21
9, 64780, Control_c, 7, 7, 20
9, 64810, Control_c, 7, 7, 19
9, 64821, Control_c, 7, 64, 127
9, 64840, Control_c, 7, 7, 18
9, 64860, Control_c, 7, 7, 17
9, 64890, Note_on_c, 7, 71, 0
9, 64890, Control_c, 7, 7, 16
9, 64920, Note_on_c, 7, 74, 0
9, 64920, Note_on_c, 7, 67, 0
9, 64920, Control_c, 7, 7, 15
9, 64950, Control_c, 7, 7, 14
9, 64969, Control_c, 7, 64, 0
9, 64970, Control_c, 7, 7, 13
9, 64980, Note_on_c, 7, 67, 66
9, 64980, Note_on_c, 7, 76, 86
9, 64980, Note_on_c, 7, 72, 83
9, 65000, Control_c, 7, 7, 12
9, 65030, Control_c, 7, 7, 11
9, 65050, Control_c, 7, 7, 10
9, 65080, Control_c, 7, 7, 9
9, 65110, Control_c, 7, 7, 8
9, 65130, Control_c, 7, 7, 7
9, 65151, Control_c, 7, 64, 127
9, 65160, Control_c, 7, 7, 6
9, 65190, Note_on_c, 7, 72, 0
9, 65190, Note_on_c, 7, 76, 0
9, 65190, Note_on_c, 7, 67, 0
9, 65190, Control_c, 7, 7, 5
9, 65210, Control_c, 7, 7, 4
9, 65240, Control_c, 7, 7, 3
9, 65270, Control_c, 7, 7, 2
9, 65290, Control_c, 7, 7, 1
9, 65290, End_track
10, 0, Start_track
10, 0, MIDI_port, 0
10, 0, Title_t, "Synth Brass 1"
10, 0, Control_c, 8, 0, 56
10, 0, Control_c, 8, 32, 0
10, 0, Program_c, 8, 62
10, 0, Control_c, 8, 7, 80
10, 0, Control_c, 8, 10, 50
10, 17280, Note_on_c, 8, 45, 83
10, 17340, Note_on_c, 8, 45, 0
10, 17340, Note_on_c, 8, 47, 96
10, 17400, Note_on_c, 8, 47, 0
10, 17400, Note_on_c, 8, 50, 62
10, 17460, Note_on_c, 8, 50, 0
10, 17460, Note_on_c, 8, 48, 95
10, 17520, Note_on_c, 8, 48, 0
10, 17520, Note_on_c, 8, 50, 102
10, 17580, Note_on_c, 8, 50, 0
10, 17640, Note_on_c, 8, 50, 102
10, 17700, Note_on_c, 8, 50, 0
10, 17700, Note_on_c, 8, 43, 115
10, 17820, Note_on_c, 8, 43, 0
10, 17820, Note_on_c, 8, 45, 112
10, 17880, Note_on_c, 8, 45, 0
10, 17880, Note_on_c, 8, 48, 120
10, 17940, Note_on_c, 8, 48, 0
10, 17940, Note_on_c, 8, 45, 113
10, 18000, Note_on_c, 8, 45, 0
10, 18000, Note_on_c, 8, 48, 116
10, 18060, Note_on_c, 8, 48, 0
10, 18120, Note_on_c, 8, 48, 120
10, 18180, Note_on_c, 8, 48, 0
10, 18180, Note_on_c, 8, 45, 127
10, 18300, Note_on_c, 8, 45, 0
10, 18300, Note_on_c, 8, 48, 127
10, 18360, Note_on_c, 8, 48, 0
10, 18360, Note_on_c, 8, 50, 105
10, 18420, Note_on_c, 8, 50, 0
10, 18420, Note_on_c, 8, 48, 102
10, 18480, Note_on_c, 8, 48, 0
10, 18480, Note_on_c, 8, 50, 108
10, 18570, Note_on_c, 8, 50, 0
10, 18600, Note_on_c, 8, 50, 103
10, 18660, Note_on_c, 8, 50, 0
10, 18660, Note_on_c, 8, 43, 101
10, 18780, Note_on_c, 8, 43, 0
10, 18780, Note_on_c, 8, 45, 106
10, 18840, Note_on_c, 8, 45, 0
10, 18840, Note_on_c, 8, 48, 127
10, 18900, Note_on_c, 8, 48, 0
10, 18900, Note_on_c, 8, 45, 124
10, 18960, Note_on_c, 8, 45, 0
10, 18960, Note_on_c, 8, 48, 127
10, 19020, Note_on_c, 8, 48, 0
10, 19080, Note_on_c, 8, 48, 112
10, 19140, Note_on_c, 8, 48, 0
10, 19140, Note_on_c, 8, 45, 99
10, 19260, Note_on_c, 8, 45, 0
10, 19260, Note_on_c, 8, 48, 109
10, 19320, Note_on_c, 8, 48, 0
10, 19320, Note_on_c, 8, 50, 113
10, 19380, Note_on_c, 8, 50, 0
10, 19380, Note_on_c, 8, 48, 109
10, 19440, Note_on_c, 8, 48, 0
10, 19440, Note_on_c, 8, 50, 122
10, 19500, Note_on_c, 8, 50, 0
10, 19560, Note_on_c, 8, 50, 101
10, 19620, Note_on_c, 8, 50, 0
10, 19620, Note_on_c, 8, 43, 124
10, 19740, Note_on_c, 8, 43, 0
10, 19740, Note_on_c, 8, 45, 116
10, 19800, Note_on_c, 8, 45, 0
10, 19800, Note_on_c, 8, 48, 110
10, 19860, Note_on_c, 8, 48, 0
10, 19860, Note_on_c, 8, 45, 108
10, 19920, Note_on_c, 8, 45, 0
10, 19920, Note_on_c, 8, 48, 115
10, 19980, Note_on_c, 8, 48, 0
10, 20040, Note_on_c, 8, 48, 110
10, 20100, Note_on_c, 8, 48, 0
10, 20100, Note_on_c, 8, 45, 97
10, 20220, Note_on_c, 8, 45, 0
10, 20220, Note_on_c, 8, 48, 112
10, 20280, Note_on_c, 8, 48, 0
10, 20280, Note_on_c, 8, 50, 127
10, 20340, Note_on_c, 8, 50, 0
10, 20340, Note_on_c, 8, 48, 108
10, 20400, Note_on_c, 8, 48, 0
10, 20400, Note_on_c, 8, 50, 127
10, 20460, Note_on_c, 8, 50, 0
10, 20520, Note_on_c, 8, 50, 99
10, 20580, Note_on_c, 8, 50, 0
10, 20580, Note_on_c, 8, 43, 127
10, 20700, Note_on_c, 8, 43, 0
10, 20700, Note_on_c, 8, 45, 127
10, 20760, Note_on_c, 8, 45, 0
10, 20760, Note_on_c, 8, 48, 116
10, 20820, Note_on_c, 8, 48, 0
10, 20820, Note_on_c, 8, 45, 118
10, 20880, Note_on_c, 8, 45, 0
10, 20880, Note_on_c, 8, 48, 115
10, 20970, Note_on_c, 8, 48, 0
10, 21000, Note_on_c, 8, 48, 96
10, 21060, Note_on_c, 8, 48, 0
10, 21060, Note_on_c, 8, 44, 94
10, 21120, Note_on_c, 8, 44, 0
10, 38400, Note_on_c, 8, 45, 83
10, 38460, Note_on_c, 8, 45, 0
10, 38460, Note_on_c, 8, 47, 96
10, 38520, Note_on_c, 8, 47, 0
10, 38520, Note_on_c, 8, 50, 62
10, 38580, Note_on_c, 8, 50, 0
10, 38580, Note_on_c, 8, 48, 95
10, 38640, Note_on_c, 8, 48, 0
10, 38640, Note_on_c, 8, 50, 102
10, 38700, Note_on_c, 8, 50, 0
10, 38760, Note_on_c, 8, 50, 102
10, 38820, Note_on_c, 8, 50, 0
10, 38820, Note_on_c, 8, 43, 115
10, 38940, Note_on_c, 8, 43, 0
10, 38940, Note_on_c, 8, 45, 112
10, 39000, Note_on_c, 8, 45, 0
10, 39000, Note_on_c, 8, 48, 120
10, 39060, Note_on_c, 8, 48, 0
10, 39060, Note_on_c, 8, 45, 113
10, 39120, Note_on_c, 8, 45, 0
10, 39120, Note_on_c, 8, 48, 116
10, 39180, Note_on_c, 8, 48, 0
10, 39240, Note_on_c, 8, 48, 120
10, 39300, Note_on_c, 8, 48, 0
10, 39300, Note_on_c, 8, 45, 127
10, 39420, Note_on_c, 8, 45, 0
10, 39420, Note_on_c, 8, 48, 127
10, 39480, Note_on_c, 8, 48, 0
10, 39480, Note_on_c, 8, 50, 105
10, 39540, Note_on_c, 8, 50, 0
10, 39540, Note_on_c, 8, 48, 102
10, 39600, Note_on_c, 8, 48, 0
10, 39600, Note_on_c, 8, 50, 108
10, 39690, Note_on_c, 8, 50, 0
10, 39720, Note_on_c, 8, 50, 103
10, 39780, Note_on_c, 8, 50, 0
10, 39780, Note_on_c, 8, 43, 101
10, 39900, Note_on_c, 8, 43, 0
10, 39900, Note_on_c, 8, 45, 106
10, 39960, Note_on_c, 8, 45, 0
10, 39960, Note_on_c, 8, 48, 127
10, 40020, Note_on_c, 8, 48, 0
10, 40020, Note_on_c, 8, 45, 124
10, 40080, Note_on_c, 8, 45, 0
10, 40080, Note_on_c, 8, 48, 127
10, 40140, Note_on_c, 8, 48, 0
10, 40200, Note_on_c, 8, 48, 112
10, 40260, Note_on_c, 8, 48, 0
10, 40260, Note_on_c, 8, 45, 99
10, 40380, Note_on_c, 8, 45, 0
10, 40380, Note_on_c, 8, 48, 109
10, 40440, Note_on_c, 8, 48, 0
10, 40440, Note_on_c, 8, 50, 113
10, 40500, Note_on_c, 8, 50, 0
10, 40500, Note_on_c, 8, 48, 109
10, 40560, Note_on_c, 8, 48, 0
10, 40560, Note_on_c, 8, 50, 122
10, 40620, Note_on_c, 8, 50, 0
10, 40680, Note_on_c, 8, 50, 101
10, 40740, Note_on_c, 8, 50, 0
10, 40740, Note_on_c, 8, 43, 124
10, 40860, Note_on_c, 8, 43, 0
10, 40860, Note_on_c, 8, 45, 116
10, 40920, Note_on_c, 8, 45, 0
10, 40920, Note_on_c, 8, 48, 110
10, 40980, Note_on_c, 8, 48, 0
10, 40980, Note_on_c, 8, 45, 108
10, 41040, Note_on_c, 8, 45, 0
10, 41040, Note_on_c, 8, 48, 115
10, 41100, Note_on_c, 8, 48, 0
10, 41160, Note_on_c, 8, 48, 110
10, 41220, Note_on_c, 8, 48, 0
10, 41220, Note_on_c, 8, 45, 97
10, 41340, Note_on_c, 8, 45, 0
10, 41340, Note_on_c, 8, 48, 112
10, 41400, Note_on_c, 8, 48, 0
10, 41400, Note_on_c, 8, 50, 127
10, 41460, Note_on_c, 8, 50, 0
10, 41460, Note_on_c, 8, 48, 108
10, 41520, Note_on_c, 8, 48, 0
10, 41520, Note_on_c, 8, 50, 127
10, 41580, Note_on_c, 8, 50, 0
10, 41640, Note_on_c, 8, 50, 99
10, 41700, Note_on_c, 8, 50, 0
10, 41700, Note_on_c, 8, 43, 127
10, 41820, Note_on_c, 8, 43, 0
10, 41820, Note_on_c, 8, 45, 127
10, 41880, Note_on_c, 8, 45, 0
10, 41880, Note_on_c, 8, 48, 116
10, 41940, Note_on_c, 8, 48, 0
10, 41940, Note_on_c, 8, 45, 118
10, 42000, Note_on_c, 8, 45, 0
10, 42000, Note_on_c, 8, 48, 115
10, 42090, Note_on_c, 8, 48, 0
10, 42120, Note_on_c, 8, 48, 96
10, 42180, Note_on_c, 8, 48, 0
10, 42180, Note_on_c, 8, 44, 94
10, 42240, Note_on_c, 8, 44, 0
10, 51840, Note_on_c, 8, 45, 83
10, 51900, Note_on_c, 8, 45, 0
10, 51900, Note_on_c, 8, 47, 96
10, 51960, Note_on_c, 8, 47, 0
10, 51960, Note_on_c, 8, 50, 62
10, 52020, Note_on_c, 8, 50, 0
10, 52020, Note_on_c, 8, 48, 95
10, 52080, Note_on_c, 8, 48, 0
10, 52080, Note_on_c, 8, 50, 102
10, 52140, Note_on_c, 8, 50, 0
10, 52200, Note_on_c, 8, 50, 102
10, 52260, Note_on_c, 8, 50, 0
10, 52260, Note_on_c, 8, 43, 115
10, 52380, Note_on_c, 8, 43, 0
10, 52380, Note_on_c, 8, 45, 112
10, 52440, Note_on_c, 8, 45, 0
10, 52440, Note_on_c, 8, 48, 120
10, 52500, Note_on_c, 8, 48, 0
10, 52500, Note_on_c, 8, 45, 113
10, 52560, Note_on_c, 8, 45, 0
10, 52560, Note_on_c, 8, 48, 116
10, 52620, Note_on_c, 8, 48, 0
10, 52680, Note_on_c, 8, 48, 120
10, 52740, Note_on_c, 8, 48, 0
10, 52740, Note_on_c, 8, 45, 127
10, 52860, Note_on_c, 8, 45, 0
10, 52860, Note_on_c, 8, 48, 127
10, 52920, Note_on_c, 8, 48, 0
10, 52920, Note_on_c, 8, 50, 105
10, 52980, Note_on_c, 8, 50, 0
10, 52980, Note_on_c, 8, 48, 102
10, 53040, Note_on_c, 8, 48, 0
10, 53040, Note_on_c, 8, 50, 108
10, 53045, Control_c, 8, 10, 51
10, 53063, Control_c, 8, 10, 47
10, 53070, Control_c, 8, 10, 44
10, 53085, Control_c, 8, 10, 42
10, 53130, Note_on_c, 8, 50, 0
10, 53160, Note_on_c, 8, 50, 103
10, 53220, Note_on_c, 8, 50, 0
10, 53220, Note_on_c, 8, 43, 101
10, 53301, Control_c, 8, 10, 39
10, 53340, Note_on_c, 8, 43, 0
10, 53340, Note_on_c, 8, 45, 106
10, 53345, Control_c, 8, 10, 37
10, 53400, Note_on_c, 8, 45, 0
10, 53400, Note_on_c, 8, 48, 127
10, 53460, Note_on_c, 8, 48, 0
10, 53460, Note_on_c, 8, 45, 124
10, 53465, Control_c, 8, 10, 39
10, 53480, Control_c, 8, 10, 42
10, 53490, Control_c, 8, 10, 45
10, 53515, Control_c, 8, 10, 48
10, 53520, Note_on_c, 8, 45, 0
10, 53520, Control_c, 8, 10, 51
10, 53520, Note_on_c, 8, 48, 127
10, 53525, Control_c, 8, 10, 54
10, 53568, Control_c, 8, 10, 59
10, 53580, Note_on_c, 8, 48, 0
10, 53580, Control_c, 8, 10, 63
10, 53600, Control_c, 8, 10, 67
10, 53605, Control_c, 8, 10, 72
10, 53610, Control_c, 8, 10, 75
10, 53615, Control_c, 8, 10, 79
10, 53620, Control_c, 8, 10, 82
10, 53626, Control_c, 8, 10, 84
10, 53640, Note_on_c, 8, 48, 112
10, 53645, Control_c, 8, 10, 86
10, 53650, Control_c, 8, 10, 89
10, 53670, Control_c, 8, 10, 90
10, 53700, Note_on_c, 8, 48, 0
10, 53700, Note_on_c, 8, 45, 99
10, 53795, Control_c, 8, 10, 89
10, 53800, Control_c, 8, 10, 86
10, 53820, Note_on_c, 8, 45, 0
10, 53820, Note_on_c, 8, 48, 109
10, 53830, Control_c, 8, 10, 84
10, 53835, Control_c, 8, 10, 82
10, 53860, Control_c, 8, 10, 80
10, 53865, Control_c, 8, 10, 78
10, 53880, Note_on_c, 8, 48, 0
10, 53880, Note_on_c, 8, 50, 113
10, 53885, Control_c, 8, 10, 75
10, 53925, Control_c, 8, 10, 73
10, 53940, Note_on_c, 8, 50, 0
10, 53940, Note_on_c, 8, 48, 109
10, 53951, Control_c, 8, 10, 70
10, 53961, Control_c, 8, 10, 66
10, 54000, Note_on_c, 8, 48, 0
10, 54000, Note_on_c, 8, 50, 122
10, 54053, Control_c, 8, 10, 63
10, 54060, Note_on_c, 8, 50, 0
10, 54080, Control_c, 8, 10, 60
10, 54100, Control_c, 8, 10, 56
10, 54120, Note_on_c, 8, 50, 101
10, 54123, Control_c, 8, 10, 53
10, 54180, Note_on_c, 8, 50, 0
10, 54180, Note_on_c, 8, 43, 124
10, 54194, Control_c, 8, 10, 51
10, 54204, Control_c, 8, 10, 48
10, 54275, Control_c, 8, 10, 46
10, 54300, Note_on_c, 8, 43, 0
10, 54300, Note_on_c, 8, 45, 116
10, 54360, Note_on_c, 8, 45, 0
10, 54360, Note_on_c, 8, 48, 110
10, 54375, Control_c, 8, 10, 44
10, 54390, Control_c, 8, 10, 42
10, 54407, Control_c, 8, 10, 40
10, 54420, Note_on_c, 8, 48, 0
10, 54420, Note_on_c, 8, 45, 108
10, 54480, Note_on_c, 8, 45, 0
10, 54480, Note_on_c, 8, 48, 115
10, 54540, Note_on_c, 8, 48, 0
10, 54600, Note_on_c, 8, 48, 110
10, 54660, Note_on_c, 8, 48, 0
10, 54660, Note_on_c, 8, 45, 97
10, 54780, Note_on_c, 8, 45, 0
10, 54780, Note_on_c, 8, 48, 112
10, 54840, Note_on_c, 8, 48, 0
10, 54840, Note_on_c, 8, 50, 127
10, 54900, Note_on_c, 8, 50, 0
10, 54900, Note_on_c, 8, 48, 108
10, 54960, Note_on_c, 8, 48, 0
10, 54960, Note_on_c, 8, 50, 127
10, 55020, Note_on_c, 8, 50, 0
10, 55080, Note_on_c, 8, 50, 99
10, 55140, Note_on_c, 8, 50, 0
10, 55140, Note_on_c, 8, 43, 127
10, 55260, Note_on_c, 8, 43, 0
10, 55260, End_track
11, 0, Start_track
11, 0, MIDI_port, 0
11, 0, Title_t, "Drums"
11, 0, Control_c, 9, 0, 62
11, 0, Control_c, 9, 32, 0
11, 0, Program_c, 9, 1
11, 0, Control_c, 9, 7, 115
11, 0, Control_c, 9, 10, 63
11, 960, Note_on_c, 9, 42, 89
11, 960, Note_on_c, 9, 36, 82
11, 990, Note_on_c, 9, 36, 0
11, 990, Note_on_c, 9, 42, 0
11, 1020, Note_on_c, 9, 42, 86
11, 1020, Note_on_c, 9, 36, 99
11, 1050, Note_on_c, 9, 36, 0
11, 1050, Note_on_c, 9, 42, 0
11, 1080, Note_on_c, 9, 42, 100
11, 1080, Note_on_c, 9, 38, 113
11, 1110, Note_on_c, 9, 42, 0
11, 1140, Note_on_c, 9, 38, 0
11, 1140, Note_on_c, 9, 42, 69
11, 1170, Note_on_c, 9, 42, 0
11, 1200, Note_on_c, 9, 42, 100
11, 1200, Note_on_c, 9, 36, 107
11, 1230, Note_on_c, 9, 42, 0
11, 1260, Note_on_c, 9, 36, 0
11, 1260, Note_on_c, 9, 42, 77
11, 1290, Note_on_c, 9, 42, 0
11, 1320, Note_on_c, 9, 38, 117
11, 1320, Note_on_c, 9, 42, 96
11, 1350, Note_on_c, 9, 42, 0
11, 1350, Note_on_c, 9, 38, 0
11, 1380, Note_on_c, 9, 36, 82
11, 1380, Note_on_c, 9, 42, 81
11, 1410, Note_on_c, 9, 42, 0
11, 1410, Note_on_c, 9, 36, 0
11, 1440, Note_on_c, 9, 42, 89
11, 1440, Note_on_c, 9, 36, 83
11, 1470, Note_on_c, 9, 36, 0
11, 1470, Note_on_c, 9, 42, 0
11, 1500, Note_on_c, 9, 36, 99
11, 1500, Note_on_c, 9, 42, 84
11, 1530, Note_on_c, 9, 42, 0
11, 1530, Note_on_c, 9, 36, 0
11, 1560, Note_on_c, 9, 42, 96
11, 1560, Note_on_c, 9, 38, 110
11, 1590, Note_on_c, 9, 42, 0
11, 1620, Note_on_c, 9, 38, 0
11, 1620, Note_on_c, 9, 42, 60
11, 1650, Note_on_c, 9, 42, 0
11, 1680, Note_on_c, 9, 36, 97
11, 1680, Note_on_c, 9, 42, 86
11, 1710, Note_on_c, 9, 42, 0
11, 1740, Note_on_c, 9, 36, 0
11, 1740, Note_on_c, 9, 42, 56
11, 1770, Note_on_c, 9, 42, 0
11, 1800, Note_on_c, 9, 38, 110
11, 1800, Note_on_c, 9, 42, 73
11, 1830, Note_on_c, 9, 42, 0
11, 1830, Note_on_c, 9, 38, 0
11, 1860, Note_on_c, 9, 46, 54
11, 1860, Note_on_c, 9, 36, 85
11, 1890, Note_on_c, 9, 36, 0
11, 1890, Note_on_c, 9, 46, 0
11, 1920, Note_on_c, 9, 42, 66
11, 1920, Note_on_c, 9, 36, 86
11, 1950, Note_on_c, 9, 36, 0
11, 1950, Note_on_c, 9, 42, 0
11, 1980, Note_on_c, 9, 42, 62
11, 1980, Note_on_c, 9, 36, 80
11, 2010, Note_on_c, 9, 36, 0
11, 2010, Note_on_c, 9, 42, 0
11, 2040, Note_on_c, 9, 38, 110
11, 2040, Note_on_c, 9, 42, 92
11, 2070, Note_on_c, 9, 42, 0
11, 2100, Note_on_c, 9, 38, 0
11, 2100, Note_on_c, 9, 42, 66
11, 2130, Note_on_c, 9, 42, 0
11, 2160, Note_on_c, 9, 42, 92
11, 2160, Note_on_c, 9, 36, 99
11, 2190, Note_on_c, 9, 42, 0
11, 2220, Note_on_c, 9, 36, 0
11, 2220, Note_on_c, 9, 42, 66
11, 2250, Note_on_c, 9, 42, 0
11, 2280, Note_on_c, 9, 42, 100
11, 2280, Note_on_c, 9, 38, 113
11, 2310, Note_on_c, 9, 38, 0
11, 2310, Note_on_c, 9, 42, 0
11, 2340, Note_on_c, 9, 42, 66
11, 2340, Note_on_c, 9, 36, 82
11, 2370, Note_on_c, 9, 36, 0
11, 2370, Note_on_c, 9, 42, 0
11, 2400, Note_on_c, 9, 42, 86
11, 2400, Note_on_c, 9, 36, 88
11, 2430, Note_on_c, 9, 36, 0
11, 2430, Note_on_c, 9, 42, 0
11, 2460, Note_on_c, 9, 42, 86
11, 2460, Note_on_c, 9, 36, 94
11, 2490, Note_on_c, 9, 36, 0
11, 2490, Note_on_c, 9, 42, 0
11, 2520, Note_on_c, 9, 42, 96
11, 2520, Note_on_c, 9, 38, 104
11, 2550, Note_on_c, 9, 42, 0
11, 2580, Note_on_c, 9, 38, 0
11, 2580, Note_on_c, 9, 42, 63
11, 2610, Note_on_c, 9, 42, 0
11, 2640, Note_on_c, 9, 42, 96
11, 2640, Note_on_c, 9, 36, 101
11, 2670, Note_on_c, 9, 42, 0
11, 2700, Note_on_c, 9, 36, 0
11, 2700, Note_on_c, 9, 42, 62
11, 2730, Note_on_c, 9, 42, 0
11, 2760, Note_on_c, 9, 38, 99
11, 2760, Note_on_c, 9, 42, 92
11, 2790, Note_on_c, 9, 42, 0
11, 2790, Note_on_c, 9, 38, 0
11, 2820, Note_on_c, 9, 36, 73
11, 2820, Note_on_c, 9, 42, 73
11, 2850, Note_on_c, 9, 42, 0
11, 2850, Note_on_c, 9, 36, 0
11, 2880, Note_on_c, 9, 42, 89
11, 2880, Note_on_c, 9, 36, 86
11, 2910, Note_on_c, 9, 36, 0
11, 2910, Note_on_c, 9, 42, 0
11, 2940, Note_on_c, 9, 36, 90
11, 2940, Note_on_c, 9, 42, 84
11, 2970, Note_on_c, 9, 42, 0
11, 2970, Note_on_c, 9, 36, 0
11, 3000, Note_on_c, 9, 38, 113
11, 3000, Note_on_c, 9, 42, 89
11, 3030, Note_on_c, 9, 42, 0
11, 3060, Note_on_c, 9, 38, 0
11, 3060, Note_on_c, 9, 42, 81
11, 3090, Note_on_c, 9, 42, 0
11, 3120, Note_on_c, 9, 36, 101
11, 3120, Note_on_c, 9, 42, 92
11, 3150, Note_on_c, 9, 42, 0
11, 3180, Note_on_c, 9, 36, 0
11, 3180, Note_on_c, 9, 42, 73
11, 3210, Note_on_c, 9, 42, 0
11, 3240, Note_on_c, 9, 42, 86
11, 3240, Note_on_c, 9, 38, 104
11, 3270, Note_on_c, 9, 38, 0
11, 3270, Note_on_c, 9, 42, 0
11, 3300, Note_on_c, 9, 36, 80
11, 3300, Note_on_c, 9, 46, 51
11, 3330, Note_on_c, 9, 46, 0
11, 3330, Note_on_c, 9, 36, 0
11, 3360, Note_on_c, 9, 42, 86
11, 3360, Note_on_c, 9, 36, 90
11, 3390, Note_on_c, 9, 36, 0
11, 3390, Note_on_c, 9, 42, 0
11, 3420, Note_on_c, 9, 36, 65
11, 3420, Note_on_c, 9, 42, 75
11, 3450, Note_on_c, 9, 42, 0
11, 3450, Note_on_c, 9, 36, 0
11, 3480, Note_on_c, 9, 42, 89
11, 3480, Note_on_c, 9, 38, 104
11, 3510, Note_on_c, 9, 42, 0
11, 3540, Note_on_c, 9, 38, 0
11, 3540, Note_on_c, 9, 42, 59
11, 3570, Note_on_c, 9, 42, 0
11, 3600, Note_on_c, 9, 36, 104
11, 3600, Note_on_c, 9, 42, 100
11, 3630, Note_on_c, 9, 42, 0
11, 3660, Note_on_c, 9, 36, 0
11, 3660, Note_on_c, 9, 42, 53
11, 3690, Note_on_c, 9, 42, 0
11, 3720, Note_on_c, 9, 42, 100
11, 3720, Note_on_c, 9, 38, 110
11, 3750, Note_on_c, 9, 38, 0
11, 3750, Note_on_c, 9, 42, 0
11, 3780, Note_on_c, 9, 42, 73
11, 3780, Note_on_c, 9, 36, 71
11, 3810, Note_on_c, 9, 36, 0
11, 3810, Note_on_c, 9, 42, 0
11, 3840, Note_on_c, 9, 42, 96
11, 3840, Note_on_c, 9, 36, 79
11, 3870, Note_on_c, 9, 36, 0
11, 3870, Note_on_c, 9, 42, 0
11, 3900, Note_on_c, 9, 42, 84
11, 3900, Note_on_c, 9, 36, 94
11, 3930, Note_on_c, 9, 36, 0
11, 3930, Note_on_c, 9, 42, 0
11, 3960, Note_on_c, 9, 38, 104
11, 3960, Note_on_c, 9, 42, 89
11, 3990, Note_on_c, 9, 42, 0
11, 4020, Note_on_c, 9, 38, 0
11, 4020, Note_on_c, 9, 42, 75
11, 4050, Note_on_c, 9, 42, 0
11, 4080, Note_on_c, 9, 36, 99
11, 4080, Note_on_c, 9, 42, 92
11, 4110, Note_on_c, 9, 42, 0
11, 4140, Note_on_c, 9, 36, 0
11, 4140, Note_on_c, 9, 42, 54
11, 4170, Note_on_c, 9, 42, 0
11, 4200, Note_on_c, 9, 38, 101
11, 4200, Note_on_c, 9, 42, 96
11, 4230, Note_on_c, 9, 42, 0
11, 4230, Note_on_c, 9, 38, 0
11, 4260, Note_on_c, 9, 42, 69
11, 4260, Note_on_c, 9, 36, 82
11, 4290, Note_on_c, 9, 36, 0
11, 4290, Note_on_c, 9, 42, 0
11, 4320, Note_on_c, 9, 42, 92
11, 4320, Note_on_c, 9, 36, 82
11, 4350, Note_on_c, 9, 36, 0
11, 4350, Note_on_c, 9, 42, 0
11, 4380, Note_on_c, 9, 42, 81
11, 4380, Note_on_c, 9, 36, 99
11, 4410, Note_on_c, 9, 36, 0
11, 4410, Note_on_c, 9, 42, 0
11, 4440, Note_on_c, 9, 38, 104
11, 4440, Note_on_c, 9, 42, 96
11, 4470, Note_on_c, 9, 42, 0
11, 4500, Note_on_c, 9, 38, 0
11, 4500, Note_on_c, 9, 42, 68
11, 4530, Note_on_c, 9, 42, 0
11, 4560, Note_on_c, 9, 36, 104
11, 4560, Note_on_c, 9, 42, 92
11, 4590, Note_on_c, 9, 42, 0
11, 4620, Note_on_c, 9, 36, 0
11, 4620, Note_on_c, 9, 42, 62
11, 4650, Note_on_c, 9, 42, 0
11, 4680, Note_on_c, 9, 38, 110
11, 4680, Note_on_c, 9, 42, 89
11, 4710, Note_on_c, 9, 42, 0
11, 4710, Note_on_c, 9, 38, 0
11, 4740, Note_on_c, 9, 42, 69
11, 4740, Note_on_c, 9, 36, 88
11, 4770, Note_on_c, 9, 36, 0
11, 4770, Note_on_c, 9, 42, 0
11, 4800, Note_on_c, 9, 42, 89
11, 4800, Note_on_c, 9, 36, 82
11, 4830, Note_on_c, 9, 36, 0
11, 4830, Note_on_c, 9, 42, 0
11, 4860, Note_on_c, 9, 42, 86
11, 4860, Note_on_c, 9, 36, 99
11, 4890, Note_on_c, 9, 36, 0
11, 4890, Note_on_c, 9, 42, 0
11, 4920, Note_on_c, 9, 42, 100
11, 4920, Note_on_c, 9, 38, 113
11, 4950, Note_on_c, 9, 42, 0
11, 4980, Note_on_c, 9, 38, 0
11, 4980, Note_on_c, 9, 42, 69
11, 5010, Note_on_c, 9, 42, 0
11, 5040, Note_on_c, 9, 42, 100
11, 5040, Note_on_c, 9, 36, 107
11, 5070, Note_on_c, 9, 42, 0
11, 5100, Note_on_c, 9, 36, 0
11, 5100, Note_on_c, 9, 42, 77
11, 5130, Note_on_c, 9, 42, 0
11, 5160, Note_on_c, 9, 38, 117
11, 5160, Note_on_c, 9, 42, 96
11, 5190, Note_on_c, 9, 42, 0
11, 5190, Note_on_c, 9, 38, 0
11, 5220, Note_on_c, 9, 36, 82
11, 5220, Note_on_c, 9, 42, 81
11, 5250, Note_on_c, 9, 42, 0
11, 5250, Note_on_c, 9, 36, 0
11, 5280, Note_on_c, 9, 42, 89
11, 5280, Note_on_c, 9, 36, 83
11, 5310, Note_on_c, 9, 36, 0
11, 5310, Note_on_c, 9, 42, 0
11, 5340, Note_on_c, 9, 36, 99
11, 5340, Note_on_c, 9, 42, 84
11, 5370, Note_on_c, 9, 42, 0
11, 5370, Note_on_c, 9, 36, 0
11, 5400, Note_on_c, 9, 42, 96
11, 5400, Note_on_c, 9, 38, 110
11, 5430, Note_on_c, 9, 42, 0
11, 5460, Note_on_c, 9, 38, 0
11, 5460, Note_on_c, 9, 42, 60
11, 5490, Note_on_c, 9, 42, 0
11, 5520, Note_on_c, 9, 36, 97
11, 5520, Note_on_c, 9, 42, 86
11, 5550, Note_on_c, 9, 42, 0
11, 5580, Note_on_c, 9, 36, 0
11, 5580, Note_on_c, 9, 42, 56
11, 5610, Note_on_c, 9, 42, 0
11, 5640, Note_on_c, 9, 38, 110
11, 5640, Note_on_c, 9, 42, 73
11, 5670, Note_on_c, 9, 42, 0
11, 5670, Note_on_c, 9, 38, 0
11, 5700, Note_on_c, 9, 46, 54
11, 5700, Note_on_c, 9, 36, 85
11, 5730, Note_on_c, 9, 36, 0
11, 5730, Note_on_c, 9, 46, 0
11, 5760, Note_on_c, 9, 42, 66
11, 5760, Note_on_c, 9, 36, 86
11, 5790, Note_on_c, 9, 36, 0
11, 5790, Note_on_c, 9, 42, 0
11, 5820, Note_on_c, 9, 42, 62
11, 5820, Note_on_c, 9, 36, 80
11, 5850, Note_on_c, 9, 36, 0
11, 5850, Note_on_c, 9, 42, 0
11, 5880, Note_on_c, 9, 38, 110
11, 5880, Note_on_c, 9, 42, 92
11, 5910, Note_on_c, 9, 42, 0
11, 5940, Note_on_c, 9, 38, 0
11, 5940, Note_on_c, 9, 42, 66
11, 5970, Note_on_c, 9, 42, 0
11, 6000, Note_on_c, 9, 42, 92
11, 6000, Note_on_c, 9, 36, 99
11, 6030, Note_on_c, 9, 42, 0
11, 6060, Note_on_c, 9, 36, 0
11, 6060, Note_on_c, 9, 42, 66
11, 6090, Note_on_c, 9, 42, 0
11, 6120, Note_on_c, 9, 42, 100
11, 6120, Note_on_c, 9, 38, 113
11, 6150, Note_on_c, 9, 38, 0
11, 6150, Note_on_c, 9, 42, 0
11, 6180, Note_on_c, 9, 42, 66
11, 6180, Note_on_c, 9, 36, 82
11, 6210, Note_on_c, 9, 36, 0
11, 6210, Note_on_c, 9, 42, 0
11, 6240, Note_on_c, 9, 42, 86
11, 6240, Note_on_c, 9, 36, 88
11, 6270, Note_on_c, 9, 36, 0
11, 6270, Note_on_c, 9, 42, 0
11, 6300, Note_on_c, 9, 42, 86
11, 6300, Note_on_c, 9, 36, 94
11, 6330, Note_on_c, 9, 36, 0
11, 6330, Note_on_c, 9, 42, 0
11, 6360, Note_on_c, 9, 42, 96
11, 6360, Note_on_c, 9, 38, 104
11, 6390, Note_on_c, 9, 42, 0
11, 6420, Note_on_c, 9, 38, 0
11, 6420, Note_on_c, 9, 42, 63
11, 6450, Note_on_c, 9, 42, 0
11, 6480, Note_on_c, 9, 42, 96
11, 6480, Note_on_c, 9, 36, 101
11, 6510, Note_on_c, 9, 42, 0
11, 6540, Note_on_c, 9, 36, 0
11, 6540, Note_on_c, 9, 42, 62
11, 6570, Note_on_c, 9, 42, 0
11, 6600, Note_on_c, 9, 38, 99
11, 6600, Note_on_c, 9, 42, 92
11, 6630, Note_on_c, 9, 42, 0
11, 6630, Note_on_c, 9, 38, 0
11, 6660, Note_on_c, 9, 36, 73
11, 6660, Note_on_c, 9, 42, 73
11, 6690, Note_on_c, 9, 42, 0
11, 6690, Note_on_c, 9, 36, 0
11, 6720, Note_on_c, 9, 42, 89
11, 6720, Note_on_c, 9, 36, 86
11, 6750, Note_on_c, 9, 36, 0
11, 6750, Note_on_c, 9, 42, 0
11, 6780, Note_on_c, 9, 36, 90
11, 6780, Note_on_c, 9, 42, 84
11, 6810, Note_on_c, 9, 42, 0
11, 6810, Note_on_c, 9, 36, 0
11, 6840, Note_on_c, 9, 38, 113
11, 6840, Note_on_c, 9, 42, 89
11, 6870, Note_on_c, 9, 42, 0
11, 6900, Note_on_c, 9, 38, 0
11, 6900, Note_on_c, 9, 42, 81
11, 6930, Note_on_c, 9, 42, 0
11, 6960, Note_on_c, 9, 36, 101
11, 6960, Note_on_c, 9, 42, 92
11, 6990, Note_on_c, 9, 42, 0
11, 7020, Note_on_c, 9, 36, 0
11, 7020, Note_on_c, 9, 42, 73
11, 7050, Note_on_c, 9, 42, 0
11, 7080, Note_on_c, 9, 42, 86
11, 7080, Note_on_c, 9, 38, 104
11, 7110, Note_on_c, 9, 38, 0
11, 7110, Note_on_c, 9, 42, 0
11, 7140, Note_on_c, 9, 36, 80
11, 7140, Note_on_c, 9, 46, 51
11, 7170, Note_on_c, 9, 46, 0
11, 7170, Note_on_c, 9, 36, 0
11, 7200, Note_on_c, 9, 42, 86
11, 7200, Note_on_c, 9, 36, 90
11, 7230, Note_on_c, 9, 36, 0
11, 7230, Note_on_c, 9, 42, 0
11, 7260, Note_on_c, 9, 36, 65
11, 7260, Note_on_c, 9, 42, 75
11, 7290, Note_on_c, 9, 42, 0
11, 7290, Note_on_c, 9, 36, 0
11, 7320, Note_on_c, 9, 42, 89
11, 7320, Note_on_c, 9, 38, 104
11, 7350, Note_on_c, 9, 42, 0
11, 7380, Note_on_c, 9, 38, 0
11, 7380, Note_on_c, 9, 42, 59
11, 7410, Note_on_c, 9, 42, 0
11, 7440, Note_on_c, 9, 36, 104
11, 7440, Note_on_c, 9, 42, 100
11, 7470, Note_on_c, 9, 42, 0
11, 7500, Note_on_c, 9, 36, 0
11, 7500, Note_on_c, 9, 42, 53
11, 7530, Note_on_c, 9, 42, 0
11, 7560, Note_on_c, 9, 42, 100
11, 7560, Note_on_c, 9, 38, 110
11, 7590, Note_on_c, 9, 38, 0
11, 7590, Note_on_c, 9, 42, 0
11, 7620, Note_on_c, 9, 42, 73
11, 7620, Note_on_c, 9, 36, 71
11, 7650, Note_on_c, 9, 36, 0
11, 7650, Note_on_c, 9, 42, 0
11, 7680, Note_on_c, 9, 42, 96
11, 7680, Note_on_c, 9, 36, 79
11, 7710, Note_on_c, 9, 36, 0
11, 7710, Note_on_c, 9, 42, 0
11, 7740, Note_on_c, 9, 42, 84
11, 7740, Note_on_c, 9, 36, 94
11, 7770, Note_on_c, 9, 36, 0
11, 7770, Note_on_c, 9, 42, 0
11, 7800, Note_on_c, 9, 38, 104
11, 7800, Note_on_c, 9, 42, 89
11, 7830, Note_on_c, 9, 42, 0
11, 7860, Note_on_c, 9, 38, 0
11, 7860, Note_on_c, 9, 42, 75
11, 7890, Note_on_c, 9, 42, 0
11, 7920, Note_on_c, 9, 36, 99
11, 7920, Note_on_c, 9, 42, 92
11, 7950, Note_on_c, 9, 42, 0
11, 7980, Note_on_c, 9, 36, 0
11, 7980, Note_on_c, 9, 42, 54
11, 8010, Note_on_c, 9, 42, 0
11, 8040, Note_on_c, 9, 38, 101
11, 8040, Note_on_c, 9, 42, 96
11, 8070, Note_on_c, 9, 42, 0
11, 8070, Note_on_c, 9, 38, 0
11, 8100, Note_on_c, 9, 42, 69
11, 8100, Note_on_c, 9, 36, 82
11, 8130, Note_on_c, 9, 36, 0
11, 8130, Note_on_c, 9, 42, 0
11, 8160, Note_on_c, 9, 42, 92
11, 8160, Note_on_c, 9, 36, 82
11, 8190, Note_on_c, 9, 36, 0
11, 8190, Note_on_c, 9, 42, 0
11, 8220, Note_on_c, 9, 42, 81
11, 8220, Note_on_c, 9, 36, 99
11, 8250, Note_on_c, 9, 36, 0
11, 8250, Note_on_c, 9, 42, 0
11, 8280, Note_on_c, 9, 38, 104
11, 8280, Note_on_c, 9, 42, 96
11, 8310, Note_on_c, 9, 42, 0
11, 8340, Note_on_c, 9, 38, 0
11, 8340, Note_on_c, 9, 42, 68
11, 8370, Note_on_c, 9, 42, 0
11, 8400, Note_on_c, 9, 36, 104
11, 8400, Note_on_c, 9, 42, 92
11, 8430, Note_on_c, 9, 42, 0
11, 8460, Note_on_c, 9, 36, 0
11, 8460, Note_on_c, 9, 42, 62
11, 8490, Note_on_c, 9, 42, 0
11, 8520, Note_on_c, 9, 38, 110
11, 8520, Note_on_c, 9, 42, 89
11, 8550, Note_on_c, 9, 42, 0
11, 8550, Note_on_c, 9, 38, 0
11, 8580, Note_on_c, 9, 42, 69
11, 8580, Note_on_c, 9, 36, 88
11, 8610, Note_on_c, 9, 36, 0
11, 8610, Note_on_c, 9, 42, 0
11, 8640, Note_on_c, 9, 42, 89
11, 8640, Note_on_c, 9, 36, 82
11, 8670, Note_on_c, 9, 36, 0
11, 8670, Note_on_c, 9, 42, 0
11, 8700, Note_on_c, 9, 42, 86
11, 8700, Note_on_c, 9, 36, 99
11, 8730, Note_on_c, 9, 36, 0
11, 8730, Note_on_c, 9, 42, 0
11, 8760, Note_on_c, 9, 42, 100
11, 8760, Note_on_c, 9, 38, 113
11, 8790, Note_on_c, 9, 42, 0
11, 8820, Note_on_c, 9, 38, 0
11, 8820, Note_on_c, 9, 42, 69
11, 8850, Note_on_c, 9, 42, 0
11, 8880, Note_on_c, 9, 42, 100
11, 8880, Note_on_c, 9, 36, 107
11, 8910, Note_on_c, 9, 42, 0
11, 8940, Note_on_c, 9, 36, 0
11, 8940, Note_on_c, 9, 42, 77
11, 8970, Note_on_c, 9, 42, 0
11, 9000, Note_on_c, 9, 38, 117
11, 9000, Note_on_c, 9, 42, 96
11, 9030, Note_on_c, 9, 42, 0
11, 9030, Note_on_c, 9, 38, 0
11, 9060, Note_on_c, 9, 36, 82
11, 9060, Note_on_c, 9, 42, 81
11, 9090, Note_on_c, 9, 42, 0
11, 9090, Note_on_c, 9, 36, 0
11, 9120, Note_on_c, 9, 42, 89
11, 9120, Note_on_c, 9, 36, 83
11, 9150, Note_on_c, 9, 36, 0
11, 9150, Note_on_c, 9, 42, 0
11, 9180, Note_on_c, 9, 36, 99
11, 9180, Note_on_c, 9, 42, 84
11, 9210, Note_on_c, 9, 42, 0
11, 9210, Note_on_c, 9, 36, 0
11, 9240, Note_on_c, 9, 42, 96
11, 9240, Note_on_c, 9, 38, 110
11, 9270, Note_on_c, 9, 42, 0
11, 9300, Note_on_c, 9, 38, 0
11, 9300, Note_on_c, 9, 42, 60
11, 9330, Note_on_c, 9, 42, 0
11, 9360, Note_on_c, 9, 36, 97
11, 9360, Note_on_c, 9, 42, 86
11, 9390, Note_on_c, 9, 42, 0
11, 9420, Note_on_c, 9, 36, 0
11, 9420, Note_on_c, 9, 42, 56
11, 9450, Note_on_c, 9, 42, 0
11, 9480, Note_on_c, 9, 38, 110
11, 9480, Note_on_c, 9, 42, 73
11, 9510, Note_on_c, 9, 42, 0
11, 9510, Note_on_c, 9, 38, 0
11, 9540, Note_on_c, 9, 46, 54
11, 9540, Note_on_c, 9, 36, 85
11, 9570, Note_on_c, 9, 36, 0
11, 9570, Note_on_c, 9, 46, 0
11, 9600, Note_on_c, 9, 42, 66
11, 9600, Note_on_c, 9, 36, 86
11, 9630, Note_on_c, 9, 36, 0
11, 9630, Note_on_c, 9, 42, 0
11, 9660, Note_on_c, 9, 42, 62
11, 9660, Note_on_c, 9, 36, 80
11, 9690, Note_on_c, 9, 36, 0
11, 9690, Note_on_c, 9, 42, 0
11, 9720, Note_on_c, 9, 38, 110
11, 9720, Note_on_c, 9, 42, 92
11, 9750, Note_on_c, 9, 42, 0
11, 9780, Note_on_c, 9, 38, 0
11, 9780, Note_on_c, 9, 42, 66
11, 9810, Note_on_c, 9, 42, 0
11, 9840, Note_on_c, 9, 42, 92
11, 9840, Note_on_c, 9, 36, 99
11, 9870, Note_on_c, 9, 42, 0
11, 9900, Note_on_c, 9, 36, 0
11, 9900, Note_on_c, 9, 42, 66
11, 9930, Note_on_c, 9, 42, 0
11, 9960, Note_on_c, 9, 42, 100
11, 9960, Note_on_c, 9, 38, 113
11, 9990, Note_on_c, 9, 38, 0
11, 9990, Note_on_c, 9, 42, 0
11, 10020, Note_on_c, 9, 42, 66
11, 10020, Note_on_c, 9, 36, 82
11, 10050, Note_on_c, 9, 36, 0
11, 10050, Note_on_c, 9, 42, 0
11, 10080, Note_on_c, 9, 42, 86
11, 10080, Note_on_c, 9, 36, 88
11, 10110, Note_on_c, 9, 36, 0
11, 10110, Note_on_c, 9, 42, 0
11, 10140, Note_on_c, 9, 42, 86
11, 10140, Note_on_c, 9, 36, 94
11, 10170, Note_on_c, 9, 36, 0
11, 10170, Note_on_c, 9, 42, 0
11, 10200, Note_on_c, 9, 42, 96
11, 10200, Note_on_c, 9, 38, 104
11, 10230, Note_on_c, 9, 42, 0
11, 10260, Note_on_c, 9, 38, 0
11, 10260, Note_on_c, 9, 42, 63
11, 10290, Note_on_c, 9, 42, 0
11, 10320, Note_on_c, 9, 42, 96
11, 10320, Note_on_c, 9, 36, 101
11, 10350, Note_on_c, 9, 42, 0
11, 10380, Note_on_c, 9, 36, 0
11, 10380, Note_on_c, 9, 42, 62
11, 10410, Note_on_c, 9, 42, 0
11, 10440, Note_on_c, 9, 38, 99
11, 10440, Note_on_c, 9, 42, 92
11, 10470, Note_on_c, 9, 42, 0
11, 10470, Note_on_c, 9, 38, 0
11, 10500, Note_on_c, 9, 36, 73
11, 10500, Note_on_c, 9, 42, 73
11, 10530, Note_on_c, 9, 42, 0
11, 10530, Note_on_c, 9, 36, 0
11, 10560, Note_on_c, 9, 42, 89
11, 10560, Note_on_c, 9, 36, 86
11, 10590, Note_on_c, 9, 36, 0
11, 10590, Note_on_c, 9, 42, 0
11, 10620, Note_on_c, 9, 36, 90
11, 10620, Note_on_c, 9, 42, 84
11, 10650, Note_on_c, 9, 42, 0
11, 10650, Note_on_c, 9, 36, 0
11, 10680, Note_on_c, 9, 38, 113
11, 10680, Note_on_c, 9, 42, 89
11, 10710, Note_on_c, 9, 42, 0
11, 10740, Note_on_c, 9, 38, 0
11, 10740, Note_on_c, 9, 42, 81
11, 10770, Note_on_c, 9, 42, 0
11, 10800, Note_on_c, 9, 36, 101
11, 10800, Note_on_c, 9, 42, 92
11, 10830, Note_on_c, 9, 42, 0
11, 10860, Note_on_c, 9, 36, 0
11, 10860, Note_on_c, 9, 42, 73
11, 10890, Note_on_c, 9, 42, 0
11, 10920, Note_on_c, 9, 42, 86
11, 10920, Note_on_c, 9, 38, 104
11, 10950, Note_on_c, 9, 38, 0
11, 10950, Note_on_c, 9, 42, 0
11, 10980, Note_on_c, 9, 36, 80
11, 10980, Note_on_c, 9, 46, 51
11, 11010, Note_on_c, 9, 46, 0
11, 11010, Note_on_c, 9, 36, 0
11, 11040, Note_on_c, 9, 42, 86
11, 11040, Note_on_c, 9, 36, 90
11, 11070, Note_on_c, 9, 36, 0
11, 11070, Note_on_c, 9, 42, 0
11, 11100, Note_on_c, 9, 36, 65
11, 11100, Note_on_c, 9, 42, 75
11, 11130, Note_on_c, 9, 42, 0
11, 11130, Note_on_c, 9, 36, 0
11, 11160, Note_on_c, 9, 42, 89
11, 11160, Note_on_c, 9, 38, 104
11, 11190, Note_on_c, 9, 42, 0
11, 11220, Note_on_c, 9, 38, 0
11, 11220, Note_on_c, 9, 42, 59
11, 11250, Note_on_c, 9, 42, 0
11, 11280, Note_on_c, 9, 36, 104
11, 11280, Note_on_c, 9, 42, 100
11, 11310, Note_on_c, 9, 42, 0
11, 11340, Note_on_c, 9, 36, 0
11, 11340, Note_on_c, 9, 42, 53
11, 11370, Note_on_c, 9, 42, 0
11, 11400, Note_on_c, 9, 42, 100
11, 11400, Note_on_c, 9, 38, 110
11, 11430, Note_on_c, 9, 38, 0
11, 11430, Note_on_c, 9, 42, 0
11, 11460, Note_on_c, 9, 42, 73
11, 11460, Note_on_c, 9, 36, 71
11, 11490, Note_on_c, 9, 36, 0
11, 11490, Note_on_c, 9, 42, 0
11, 11520, Note_on_c, 9, 42, 96
11, 11520, Note_on_c, 9, 36, 79
11, 11550, Note_on_c, 9, 36, 0
11, 11550, Note_on_c, 9, 42, 0
11, 11580, Note_on_c, 9, 42, 84
11, 11580, Note_on_c, 9, 36, 94
11, 11610, Note_on_c, 9, 36, 0
11, 11610, Note_on_c, 9, 42, 0
11, 11640, Note_on_c, 9, 38, 104
11, 11640, Note_on_c, 9, 42, 89
11, 11670, Note_on_c, 9, 42, 0
11, 11700, Note_on_c, 9, 38, 0
11, 11700, Note_on_c, 9, 42, 75
11, 11730, Note_on_c, 9, 42, 0
11, 11760, Note_on_c, 9, 36, 99
11, 11760, Note_on_c, 9, 42, 92
11, 11790, Note_on_c, 9, 42, 0
11, 11820, Note_on_c, 9, 36, 0
11, 11820, Note_on_c, 9, 42, 54
11, 11850, Note_on_c, 9, 42, 0
11, 11880, Note_on_c, 9, 38, 101
11, 11880, Note_on_c, 9, 42, 96
11, 11910, Note_on_c, 9, 42, 0
11, 11910, Note_on_c, 9, 38, 0
11, 11940, Note_on_c, 9, 42, 69
11, 11940, Note_on_c, 9, 36, 82
11, 11970, Note_on_c, 9, 36, 0
11, 11970, Note_on_c, 9, 42, 0
11, 12000, Note_on_c, 9, 42, 92
11, 12000, Note_on_c, 9, 36, 82
11, 12030, Note_on_c, 9, 36, 0
11, 12030, Note_on_c, 9, 42, 0
11, 12060, Note_on_c, 9, 42, 81
11, 12060, Note_on_c, 9, 36, 99
11, 12090, Note_on_c, 9, 36, 0
11, 12090, Note_on_c, 9, 42, 0
11, 12120, Note_on_c, 9, 38, 104
11, 12120, Note_on_c, 9, 42, 96
11, 12150, Note_on_c, 9, 42, 0
11, 12180, Note_on_c, 9, 38, 0
11, 12180, Note_on_c, 9, 42, 68
11, 12210, Note_on_c, 9, 42, 0
11, 12240, Note_on_c, 9, 36, 104
11, 12240, Note_on_c, 9, 42, 92
11, 12270, Note_on_c, 9, 42, 0
11, 12300, Note_on_c, 9, 36, 0
11, 12300, Note_on_c, 9, 42, 62
11, 12330, Note_on_c, 9, 42, 0
11, 12360, Note_on_c, 9, 38, 110
11, 12360, Note_on_c, 9, 42, 89
11, 12390, Note_on_c, 9, 42, 0
11, 12390, Note_on_c, 9, 38, 0
11, 12420, Note_on_c, 9, 42, 69
11, 12420, Note_on_c, 9, 36, 88
11, 12450, Note_on_c, 9, 36, 0
11, 12450, Note_on_c, 9, 42, 0
11, 12480, Note_on_c, 9, 42, 89
11, 12480, Note_on_c, 9, 36, 82
11, 12510, Note_on_c, 9, 36, 0
11, 12510, Note_on_c, 9, 42, 0
11, 12540, Note_on_c, 9, 42, 86
11, 12540, Note_on_c, 9, 36, 99
11, 12570, Note_on_c, 9, 36, 0
11, 12570, Note_on_c, 9, 42, 0
11, 12600, Note_on_c, 9, 42, 100
11, 12600, Note_on_c, 9, 38, 113
11, 12630, Note_on_c, 9, 42, 0
11, 12660, Note_on_c, 9, 38, 0
11, 12660, Note_on_c, 9, 42, 69
11, 12690, Note_on_c, 9, 42, 0
11, 12720, Note_on_c, 9, 42, 100
11, 12720, Note_on_c, 9, 36, 107
11, 12750, Note_on_c, 9, 42, 0
11, 12780, Note_on_c, 9, 36, 0
11, 12780, Note_on_c, 9, 42, 77
11, 12810, Note_on_c, 9, 42, 0
11, 12840, Note_on_c, 9, 38, 117
11, 12840, Note_on_c, 9, 42, 96
11, 12870, Note_on_c, 9, 42, 0
11, 12870, Note_on_c, 9, 38, 0
11, 12900, Note_on_c, 9, 36, 82
11, 12900, Note_on_c, 9, 42, 81
11, 12930, Note_on_c, 9, 42, 0
11, 12930, Note_on_c, 9, 36, 0
11, 12960, Note_on_c, 9, 42, 89
11, 12960, Note_on_c, 9, 36, 83
11, 12990, Note_on_c, 9, 36, 0
11, 12990, Note_on_c, 9, 42, 0
11, 13020, Note_on_c, 9, 36, 99
11, 13020, Note_on_c, 9, 42, 84
11, 13050, Note_on_c, 9, 42, 0
11, 13050, Note_on_c, 9, 36, 0
11, 13080, Note_on_c, 9, 42, 96
11, 13080, Note_on_c, 9, 38, 110
11, 13110, Note_on_c, 9, 42, 0
11, 13140, Note_on_c, 9, 38, 0
11, 13140, Note_on_c, 9, 42, 60
11, 13170, Note_on_c, 9, 42, 0
11, 13200, Note_on_c, 9, 36, 97
11, 13200, Note_on_c, 9, 42, 86
11, 13230, Note_on_c, 9, 42, 0
11, 13260, Note_on_c, 9, 36, 0
11, 13260, Note_on_c, 9, 42, 56
11, 13290, Note_on_c, 9, 42, 0
11, 13320, Note_on_c, 9, 38, 110
11, 13320, Note_on_c, 9, 42, 73
11, 13350, Note_on_c, 9, 42, 0
11, 13350, Note_on_c, 9, 38, 0
11, 13380, Note_on_c, 9, 46, 54
11, 13380, Note_on_c, 9, 36, 85
11, 13410, Note_on_c, 9, 36, 0
11, 13410, Note_on_c, 9, 46, 0
11, 13440, Note_on_c, 9, 42, 66
11, 13440, Note_on_c, 9, 36, 86
11, 13470, Note_on_c, 9, 36, 0
11, 13470, Note_on_c, 9, 42, 0
11, 13500, Note_on_c, 9, 42, 62
11, 13500, Note_on_c, 9, 36, 80
11, 13530, Note_on_c, 9, 36, 0
11, 13530, Note_on_c, 9, 42, 0
11, 13560, Note_on_c, 9, 38, 110
11, 13560, Note_on_c, 9, 42, 92
11, 13590, Note_on_c, 9, 42, 0
11, 13620, Note_on_c, 9, 38, 0
11, 13620, Note_on_c, 9, 42, 66
11, 13650, Note_on_c, 9, 42, 0
11, 13680, Note_on_c, 9, 42, 92
11, 13680, Note_on_c, 9, 36, 99
11, 13710, Note_on_c, 9, 42, 0
11, 13740, Note_on_c, 9, 36, 0
11, 13740, Note_on_c, 9, 42, 66
11, 13770, Note_on_c, 9, 42, 0
11, 13800, Note_on_c, 9, 42, 100
11, 13800, Note_on_c, 9, 38, 113
11, 13830, Note_on_c, 9, 38, 0
11, 13830, Note_on_c, 9, 42, 0
11, 13860, Note_on_c, 9, 42, 66
11, 13860, Note_on_c, 9, 36, 82
11, 13890, Note_on_c, 9, 36, 0
11, 13890, Note_on_c, 9, 42, 0
11, 13920, Note_on_c, 9, 42, 86
11, 13920, Note_on_c, 9, 36, 88
11, 13950, Note_on_c, 9, 36, 0
11, 13950, Note_on_c, 9, 42, 0
11, 13980, Note_on_c, 9, 42, 86
11, 13980, Note_on_c, 9, 36, 94
11, 14010, Note_on_c, 9, 36, 0
11, 14010, Note_on_c, 9, 42, 0
11, 14040, Note_on_c, 9, 42, 96
11, 14040, Note_on_c, 9, 38, 104
11, 14070, Note_on_c, 9, 42, 0
11, 14100, Note_on_c, 9, 38, 0
11, 14100, Note_on_c, 9, 42, 63
11, 14130, Note_on_c, 9, 42, 0
11, 14160, Note_on_c, 9, 42, 96
11, 14160, Note_on_c, 9, 36, 101
11, 14190, Note_on_c, 9, 42, 0
11, 14220, Note_on_c, 9, 36, 0
11, 14220, Note_on_c, 9, 42, 62
11, 14250, Note_on_c, 9, 42, 0
11, 14280, Note_on_c, 9, 38, 99
11, 14280, Note_on_c, 9, 42, 92
11, 14310, Note_on_c, 9, 42, 0
11, 14310, Note_on_c, 9, 38, 0
11, 14340, Note_on_c, 9, 36, 73
11, 14340, Note_on_c, 9, 42, 73
11, 14370, Note_on_c, 9, 42, 0
11, 14370, Note_on_c, 9, 36, 0
11, 14400, Note_on_c, 9, 42, 89
11, 14400, Note_on_c, 9, 36, 86
11, 14430, Note_on_c, 9, 36, 0
11, 14430, Note_on_c, 9, 42, 0
11, 14460, Note_on_c, 9, 36, 90
11, 14460, Note_on_c, 9, 42, 84
11, 14490, Note_on_c, 9, 42, 0
11, 14490, Note_on_c, 9, 36, 0
11, 14520, Note_on_c, 9, 38, 113
11, 14520, Note_on_c, 9, 42, 89
11, 14550, Note_on_c, 9, 42, 0
11, 14580, Note_on_c, 9, 38, 0
11, 14580, Note_on_c, 9, 42, 81
11, 14610, Note_on_c, 9, 42, 0
11, 14640, Note_on_c, 9, 36, 101
11, 14640, Note_on_c, 9, 42, 92
11, 14670, Note_on_c, 9, 42, 0
11, 14700, Note_on_c, 9, 36, 0
11, 14700, Note_on_c, 9, 42, 73
11, 14730, Note_on_c, 9, 42, 0
11, 14760, Note_on_c, 9, 42, 86
11, 14760, Note_on_c, 9, 38, 104
11, 14790, Note_on_c, 9, 38, 0
11, 14790, Note_on_c, 9, 42, 0
11, 14820, Note_on_c, 9, 36, 80
11, 14820, Note_on_c, 9, 46, 51
11, 14850, Note_on_c, 9, 46, 0
11, 14850, Note_on_c, 9, 36, 0
11, 14880, Note_on_c, 9, 42, 86
11, 14880, Note_on_c, 9, 36, 90
11, 14910, Note_on_c, 9, 36, 0
11, 14910, Note_on_c, 9, 42, 0
11, 14940, Note_on_c, 9, 36, 65
11, 14940, Note_on_c, 9, 42, 75
11, 14970, Note_on_c, 9, 42, 0
11, 14970, Note_on_c, 9, 36, 0
11, 15000, Note_on_c, 9, 42, 89
11, 15000, Note_on_c, 9, 38, 104
11, 15030, Note_on_c, 9, 42, 0
11, 15060, Note_on_c, 9, 38, 0
11, 15060, Note_on_c, 9, 42, 59
11, 15090, Note_on_c, 9, 42, 0
11, 15120, Note_on_c, 9, 36, 104
11, 15120, Note_on_c, 9, 42, 100
11, 15150, Note_on_c, 9, 42, 0
11, 15180, Note_on_c, 9, 36, 0
11, 15180, Note_on_c, 9, 42, 53
11, 15210, Note_on_c, 9, 42, 0
11, 15240, Note_on_c, 9, 42, 100
11, 15240, Note_on_c, 9, 38, 110
11, 15270, Note_on_c, 9, 38, 0
11, 15270, Note_on_c, 9, 42, 0
11, 15300, Note_on_c, 9, 42, 73
11, 15300, Note_on_c, 9, 36, 71
11, 15330, Note_on_c, 9, 36, 0
11, 15330, Note_on_c, 9, 42, 0
11, 15360, Note_on_c, 9, 42, 96
11, 15360, Note_on_c, 9, 36, 79
11, 15390, Note_on_c, 9, 36, 0
11, 15390, Note_on_c, 9, 42, 0
11, 15420, Note_on_c, 9, 42, 84
11, 15420, Note_on_c, 9, 36, 94
11, 15450, Note_on_c, 9, 36, 0
11, 15450, Note_on_c, 9, 42, 0
11, 15480, Note_on_c, 9, 38, 104
11, 15480, Note_on_c, 9, 42, 89
11, 15510, Note_on_c, 9, 42, 0
11, 15540, Note_on_c, 9, 38, 0
11, 15540, Note_on_c, 9, 42, 75
11, 15570, Note_on_c, 9, 42, 0
11, 15600, Note_on_c, 9, 36, 99
11, 15600, Note_on_c, 9, 42, 92
11, 15630, Note_on_c, 9, 42, 0
11, 15660, Note_on_c, 9, 36, 0
11, 15660, Note_on_c, 9, 42, 54
11, 15690, Note_on_c, 9, 42, 0
11, 15720, Note_on_c, 9, 38, 101
11, 15720, Note_on_c, 9, 42, 96
11, 15750, Note_on_c, 9, 42, 0
11, 15750, Note_on_c, 9, 38, 0
11, 15780, Note_on_c, 9, 42, 69
11, 15780, Note_on_c, 9, 36, 82
11, 15810, Note_on_c, 9, 36, 0
11, 15810, Note_on_c, 9, 42, 0
11, 15840, Note_on_c, 9, 42, 92
11, 15840, Note_on_c, 9, 36, 82
11, 15870, Note_on_c, 9, 36, 0
11, 15870, Note_on_c, 9, 42, 0
11, 15900, Note_on_c, 9, 42, 81
11, 15900, Note_on_c, 9, 36, 99
11, 15930, Note_on_c, 9, 36, 0
11, 15930, Note_on_c, 9, 42, 0
11, 15960, Note_on_c, 9, 38, 104
11, 15960, Note_on_c, 9, 42, 96
11, 15990, Note_on_c, 9, 42, 0
11, 16020, Note_on_c, 9, 38, 0
11, 16020, Note_on_c, 9, 42, 68
11, 16050, Note_on_c, 9, 42, 0
11, 16080, Note_on_c, 9, 36, 104
11, 16080, Note_on_c, 9, 42, 92
11, 16110, Note_on_c, 9, 42, 0
11, 16140, Note_on_c, 9, 36, 0
11, 16140, Note_on_c, 9, 42, 62
11, 16170, Note_on_c, 9, 42, 0
11, 16200, Note_on_c, 9, 38, 110
11, 16200, Note_on_c, 9, 42, 89
11, 16230, Note_on_c, 9, 42, 0
11, 16230, Note_on_c, 9, 38, 0
11, 16260, Note_on_c, 9, 42, 69
11, 16260, Note_on_c, 9, 36, 88
11, 16290, Note_on_c, 9, 36, 0
11, 16290, Note_on_c, 9, 42, 0
11, 16320, Note_on_c, 9, 42, 89
11, 16320, Note_on_c, 9, 36, 82
11, 16350, Note_on_c, 9, 36, 0
11, 16350, Note_on_c, 9, 42, 0
11, 16380, Note_on_c, 9, 42, 86
11, 16380, Note_on_c, 9, 36, 99
11, 16410, Note_on_c, 9, 36, 0
11, 16410, Note_on_c, 9, 42, 0
11, 16440, Note_on_c, 9, 42, 100
11, 16440, Note_on_c, 9, 38, 113
11, 16470, Note_on_c, 9, 42, 0
11, 16500, Note_on_c, 9, 38, 0
11, 16500, Note_on_c, 9, 42, 69
11, 16530, Note_on_c, 9, 42, 0
11, 16560, Note_on_c, 9, 42, 100
11, 16560, Note_on_c, 9, 36, 107
11, 16590, Note_on_c, 9, 42, 0
11, 16620, Note_on_c, 9, 36, 0
11, 16620, Note_on_c, 9, 42, 77
11, 16650, Note_on_c, 9, 42, 0
11, 16680, Note_on_c, 9, 38, 117
11, 16680, Note_on_c, 9, 42, 96
11, 16710, Note_on_c, 9, 42, 0
11, 16710, Note_on_c, 9, 38, 0
11, 16740, Note_on_c, 9, 36, 82
11, 16740, Note_on_c, 9, 42, 81
11, 16770, Note_on_c, 9, 42, 0
11, 16770, Note_on_c, 9, 36, 0
11, 16800, Note_on_c, 9, 42, 89
11, 16800, Note_on_c, 9, 36, 83
11, 16830, Note_on_c, 9, 36, 0
11, 16830, Note_on_c, 9, 42, 0
11, 16860, Note_on_c, 9, 36, 99
11, 16860, Note_on_c, 9, 42, 84
11, 16890, Note_on_c, 9, 42, 0
11, 16890, Note_on_c, 9, 36, 0
11, 16920, Note_on_c, 9, 42, 96
11, 16920, Note_on_c, 9, 38, 110
11, 16950, Note_on_c, 9, 42, 0
11, 16980, Note_on_c, 9, 38, 0
11, 16980, Note_on_c, 9, 42, 60
11, 17010, Note_on_c, 9, 42, 0
11, 17040, Note_on_c, 9, 36, 97
11, 17040, Note_on_c, 9, 42, 86
11, 17070, Note_on_c, 9, 42, 0
11, 17100, Note_on_c, 9, 36, 0
11, 17100, Note_on_c, 9, 42, 56
11, 17130, Note_on_c, 9, 42, 0
11, 17160, Note_on_c, 9, 38, 110
11, 17160, Note_on_c, 9, 42, 73
11, 17190, Note_on_c, 9, 42, 0
11, 17190, Note_on_c, 9, 38, 0
11, 17220, Note_on_c, 9, 46, 54
11, 17220, Note_on_c, 9, 36, 85
11, 17250, Note_on_c, 9, 36, 0
11, 17250, Note_on_c, 9, 46, 0
11, 17280, Note_on_c, 9, 42, 66
11, 17280, Note_on_c, 9, 36, 86
11, 17310, Note_on_c, 9, 36, 0
11, 17310, Note_on_c, 9, 42, 0
11, 17340, Note_on_c, 9, 42, 62
11, 17340, Note_on_c, 9, 36, 80
11, 17370, Note_on_c, 9, 36, 0
11, 17370, Note_on_c, 9, 42, 0
11, 17400, Note_on_c, 9, 38, 110
11, 17400, Note_on_c, 9, 42, 92
11, 17430, Note_on_c, 9, 42, 0
11, 17460, Note_on_c, 9, 38, 0
11, 17460, Note_on_c, 9, 42, 66
11, 17490, Note_on_c, 9, 42, 0
11, 17520, Note_on_c, 9, 42, 92
11, 17520, Note_on_c, 9, 36, 99
11, 17550, Note_on_c, 9, 42, 0
11, 17580, Note_on_c, 9, 36, 0
11, 17580, Note_on_c, 9, 42, 66
11, 17610, Note_on_c, 9, 42, 0
11, 17640, Note_on_c, 9, 42, 100
11, 17640, Note_on_c, 9, 38, 113
11, 17670, Note_on_c, 9, 38, 0
11, 17670, Note_on_c, 9, 42, 0
11, 17700, Note_on_c, 9, 42, 66
11, 17700, Note_on_c, 9, 36, 82
11, 17730, Note_on_c, 9, 36, 0
11, 17730, Note_on_c, 9, 42, 0
11, 17760, Note_on_c, 9, 42, 86
11, 17760, Note_on_c, 9, 36, 88
11, 17790, Note_on_c, 9, 36, 0
11, 17790, Note_on_c, 9, 42, 0
11, 17820, Note_on_c, 9, 42, 86
11, 17820, Note_on_c, 9, 36, 94
11, 17850, Note_on_c, 9, 36, 0
11, 17850, Note_on_c, 9, 42, 0
11, 17880, Note_on_c, 9, 42, 96
11, 17880, Note_on_c, 9, 38, 104
11, 17910, Note_on_c, 9, 42, 0
11, 17940, Note_on_c, 9, 38, 0
11, 17940, Note_on_c, 9, 42, 63
11, 17970, Note_on_c, 9, 42, 0
11, 18000, Note_on_c, 9, 42, 96
11, 18000, Note_on_c, 9, 36, 101
11, 18030, Note_on_c, 9, 42, 0
11, 18060, Note_on_c, 9, 36, 0
11, 18060, Note_on_c, 9, 42, 62
11, 18090, Note_on_c, 9, 42, 0
11, 18120, Note_on_c, 9, 38, 99
11, 18120, Note_on_c, 9, 42, 92
11, 18150, Note_on_c, 9, 42, 0
11, 18150, Note_on_c, 9, 38, 0
11, 18180, Note_on_c, 9, 36, 73
11, 18180, Note_on_c, 9, 42, 73
11, 18210, Note_on_c, 9, 42, 0
11, 18210, Note_on_c, 9, 36, 0
11, 18240, Note_on_c, 9, 42, 89
11, 18240, Note_on_c, 9, 36, 86
11, 18270, Note_on_c, 9, 36, 0
11, 18270, Note_on_c, 9, 42, 0
11, 18300, Note_on_c, 9, 36, 90
11, 18300, Note_on_c, 9, 42, 84
11, 18330, Note_on_c, 9, 42, 0
11, 18330, Note_on_c, 9, 36, 0
11, 18360, Note_on_c, 9, 38, 113
11, 18360, Note_on_c, 9, 42, 89
11, 18390, Note_on_c, 9, 42, 0
11, 18420, Note_on_c, 9, 38, 0
11, 18420, Note_on_c, 9, 42, 81
11, 18450, Note_on_c, 9, 42, 0
11, 18480, Note_on_c, 9, 36, 101
11, 18480, Note_on_c, 9, 42, 92
11, 18510, Note_on_c, 9, 42, 0
11, 18540, Note_on_c, 9, 36, 0
11, 18540, Note_on_c, 9, 42, 73
11, 18570, Note_on_c, 9, 42, 0
11, 18600, Note_on_c, 9, 42, 86
11, 18600, Note_on_c, 9, 38, 104
11, 18630, Note_on_c, 9, 38, 0
11, 18630, Note_on_c, 9, 42, 0
11, 18660, Note_on_c, 9, 36, 80
11, 18660, Note_on_c, 9, 46, 51
11, 18690, Note_on_c, 9, 46, 0
11, 18690, Note_on_c, 9, 36, 0
11, 18720, Note_on_c, 9, 42, 86
11, 18720, Note_on_c, 9, 36, 90
11, 18750, Note_on_c, 9, 36, 0
11, 18750, Note_on_c, 9, 42, 0
11, 18780, Note_on_c, 9, 36, 65
11, 18780, Note_on_c, 9, 42, 75
11, 18810, Note_on_c, 9, 42, 0
11, 18810, Note_on_c, 9, 36, 0
11, 18840, Note_on_c, 9, 42, 89
11, 18840, Note_on_c, 9, 38, 104
11, 18870, Note_on_c, 9, 42, 0
11, 18900, Note_on_c, 9, 38, 0
11, 18900, Note_on_c, 9, 42, 59
11, 18930, Note_on_c, 9, 42, 0
11, 18960, Note_on_c, 9, 36, 104
11, 18960, Note_on_c, 9, 42, 100
11, 18990, Note_on_c, 9, 42, 0
11, 19020, Note_on_c, 9, 36, 0
11, 19020, Note_on_c, 9, 42, 53
11, 19050, Note_on_c, 9, 42, 0
11, 19080, Note_on_c, 9, 42, 100
11, 19080, Note_on_c, 9, 38, 110
11, 19110, Note_on_c, 9, 38, 0
11, 19110, Note_on_c, 9, 42, 0
11, 19140, Note_on_c, 9, 42, 73
11, 19140, Note_on_c, 9, 36, 71
11, 19170, Note_on_c, 9, 36, 0
11, 19170, Note_on_c, 9, 42, 0
11, 19200, Note_on_c, 9, 42, 96
11, 19200, Note_on_c, 9, 36, 79
11, 19230, Note_on_c, 9, 36, 0
11, 19230, Note_on_c, 9, 42, 0
11, 19260, Note_on_c, 9, 42, 84
11, 19260, Note_on_c, 9, 36, 94
11, 19290, Note_on_c, 9, 36, 0
11, 19290, Note_on_c, 9, 42, 0
11, 19320, Note_on_c, 9, 38, 104
11, 19320, Note_on_c, 9, 42, 89
11, 19350, Note_on_c, 9, 42, 0
11, 19380, Note_on_c, 9, 38, 0
11, 19380, Note_on_c, 9, 42, 75
11, 19410, Note_on_c, 9, 42, 0
11, 19440, Note_on_c, 9, 36, 99
11, 19440, Note_on_c, 9, 42, 92
11, 19470, Note_on_c, 9, 42, 0
11, 19500, Note_on_c, 9, 36, 0
11, 19500, Note_on_c, 9, 42, 54
11, 19530, Note_on_c, 9, 42, 0
11, 19560, Note_on_c, 9, 38, 101
11, 19560, Note_on_c, 9, 42, 96
11, 19590, Note_on_c, 9, 42, 0
11, 19590, Note_on_c, 9, 38, 0
11, 19620, Note_on_c, 9, 42, 69
11, 19620, Note_on_c, 9, 36, 82
11, 19650, Note_on_c, 9, 36, 0
11, 19650, Note_on_c, 9, 42, 0
11, 19680, Note_on_c, 9, 42, 92
11, 19680, Note_on_c, 9, 36, 82
11, 19710, Note_on_c, 9, 36, 0
11, 19710, Note_on_c, 9, 42, 0
11, 19740, Note_on_c, 9, 42, 81
11, 19740, Note_on_c, 9, 36, 99
11, 19770, Note_on_c, 9, 36, 0
11, 19770, Note_on_c, 9, 42, 0
11, 19800, Note_on_c, 9, 38, 104
11, 19800, Note_on_c, 9, 42, 96
11, 19830, Note_on_c, 9, 42, 0
11, 19860, Note_on_c, 9, 38, 0
11, 19860, Note_on_c, 9, 42, 68
11, 19890, Note_on_c, 9, 42, 0
11, 19920, Note_on_c, 9, 36, 104
11, 19920, Note_on_c, 9, 42, 92
11, 19950, Note_on_c, 9, 42, 0
11, 19980, Note_on_c, 9, 36, 0
11, 19980, Note_on_c, 9, 42, 62
11, 20010, Note_on_c, 9, 42, 0
11, 20040, Note_on_c, 9, 38, 110
11, 20040, Note_on_c, 9, 42, 89
11, 20070, Note_on_c, 9, 42, 0
11, 20070, Note_on_c, 9, 38, 0
11, 20100, Note_on_c, 9, 42, 69
11, 20100, Note_on_c, 9, 36, 88
11, 20130, Note_on_c, 9, 36, 0
11, 20130, Note_on_c, 9, 42, 0
11, 20160, Note_on_c, 9, 42, 89
11, 20160, Note_on_c, 9, 36, 82
11, 20190, Note_on_c, 9, 36, 0
11, 20190, Note_on_c, 9, 42, 0
11, 20220, Note_on_c, 9, 42, 86
11, 20220, Note_on_c, 9, 36, 99
11, 20250, Note_on_c, 9, 36, 0
11, 20250, Note_on_c, 9, 42, 0
11, 20280, Note_on_c, 9, 42, 100
11, 20280, Note_on_c, 9, 38, 113
11, 20310, Note_on_c, 9, 42, 0
11, 20340, Note_on_c, 9, 38, 0
11, 20340, Note_on_c, 9, 42, 69
11, 20370, Note_on_c, 9, 42, 0
11, 20400, Note_on_c, 9, 42, 100
11, 20400, Note_on_c, 9, 36, 107
11, 20430, Note_on_c, 9, 42, 0
11, 20460, Note_on_c, 9, 36, 0
11, 20460, Note_on_c, 9, 42, 77
11, 20490, Note_on_c, 9, 42, 0
11, 20520, Note_on_c, 9, 38, 117
11, 20520, Note_on_c, 9, 42, 96
11, 20550, Note_on_c, 9, 42, 0
11, 20550, Note_on_c, 9, 38, 0
11, 20580, Note_on_c, 9, 36, 82
11, 20580, Note_on_c, 9, 42, 81
11, 20610, Note_on_c, 9, 42, 0
11, 20610, Note_on_c, 9, 36, 0
11, 20640, Note_on_c, 9, 42, 89
11, 20640, Note_on_c, 9, 36, 83
11, 20670, Note_on_c, 9, 36, 0
11, 20670, Note_on_c, 9, 42, 0
11, 20700, Note_on_c, 9, 36, 99
11, 20700, Note_on_c, 9, 42, 84
11, 20730, Note_on_c, 9, 42, 0
11, 20730, Note_on_c, 9, 36, 0
11, 20760, Note_on_c, 9, 42, 96
11, 20760, Note_on_c, 9, 38, 110
11, 20790, Note_on_c, 9, 42, 0
11, 20820, Note_on_c, 9, 38, 0
11, 20820, Note_on_c, 9, 42, 60
11, 20850, Note_on_c, 9, 42, 0
11, 20880, Note_on_c, 9, 36, 97
11, 20880, Note_on_c, 9, 42, 86
11, 20910, Note_on_c, 9, 42, 0
11, 20940, Note_on_c, 9, 36, 0
11, 20940, Note_on_c, 9, 42, 56
11, 20970, Note_on_c, 9, 42, 0
11, 21000, Note_on_c, 9, 38, 110
11, 21000, Note_on_c, 9, 42, 73
11, 21030, Note_on_c, 9, 42, 0
11, 21030, Note_on_c, 9, 38, 0
11, 21060, Note_on_c, 9, 46, 54
11, 21060, Note_on_c, 9, 36, 85
11, 21090, Note_on_c, 9, 36, 0
11, 21090, Note_on_c, 9, 46, 0
11, 21120, Note_on_c, 9, 42, 66
11, 21120, Note_on_c, 9, 36, 86
11, 21150, Note_on_c, 9, 36, 0
11, 21150, Note_on_c, 9, 42, 0
11, 21180, Note_on_c, 9, 42, 62
11, 21180, Note_on_c, 9, 36, 80
11, 21210, Note_on_c, 9, 36, 0
11, 21210, Note_on_c, 9, 42, 0
11, 21240, Note_on_c, 9, 38, 110
11, 21240, Note_on_c, 9, 42, 92
11, 21270, Note_on_c, 9, 42, 0
11, 21300, Note_on_c, 9, 38, 0
11, 21300, Note_on_c, 9, 42, 66
11, 21330, Note_on_c, 9, 42, 0
11, 21360, Note_on_c, 9, 42, 92
11, 21360, Note_on_c, 9, 36, 99
11, 21390, Note_on_c, 9, 42, 0
11, 21420, Note_on_c, 9, 36, 0
11, 21420, Note_on_c, 9, 42, 66
11, 21450, Note_on_c, 9, 42, 0
11, 21480, Note_on_c, 9, 42, 100
11, 21480, Note_on_c, 9, 38, 113
11, 21510, Note_on_c, 9, 38, 0
11, 21510, Note_on_c, 9, 42, 0
11, 21540, Note_on_c, 9, 42, 66
11, 21540, Note_on_c, 9, 36, 82
11, 21570, Note_on_c, 9, 36, 0
11, 21570, Note_on_c, 9, 42, 0
11, 21600, Note_on_c, 9, 42, 86
11, 21600, Note_on_c, 9, 36, 88
11, 21630, Note_on_c, 9, 36, 0
11, 21630, Note_on_c, 9, 42, 0
11, 21660, Note_on_c, 9, 42, 86
11, 21660, Note_on_c, 9, 36, 94
11, 21690, Note_on_c, 9, 36, 0
11, 21690, Note_on_c, 9, 42, 0
11, 21720, Note_on_c, 9, 42, 96
11, 21720, Note_on_c, 9, 38, 104
11, 21750, Note_on_c, 9, 42, 0
11, 21780, Note_on_c, 9, 38, 0
11, 21780, Note_on_c, 9, 42, 63
11, 21810, Note_on_c, 9, 42, 0
11, 21840, Note_on_c, 9, 42, 96
11, 21840, Note_on_c, 9, 36, 101
11, 21870, Note_on_c, 9, 42, 0
11, 21900, Note_on_c, 9, 36, 0
11, 21900, Note_on_c, 9, 42, 62
11, 21930, Note_on_c, 9, 42, 0
11, 21960, Note_on_c, 9, 38, 99
11, 21960, Note_on_c, 9, 42, 92
11, 21990, Note_on_c, 9, 42, 0
11, 21990, Note_on_c, 9, 38, 0
11, 22020, Note_on_c, 9, 36, 73
11, 22020, Note_on_c, 9, 42, 73
11, 22050, Note_on_c, 9, 42, 0
11, 22050, Note_on_c, 9, 36, 0
11, 22080, Note_on_c, 9, 42, 89
11, 22080, Note_on_c, 9, 36, 86
11, 22110, Note_on_c, 9, 36, 0
11, 22110, Note_on_c, 9, 42, 0
11, 22140, Note_on_c, 9, 36, 90
11, 22140, Note_on_c, 9, 42, 84
11, 22170, Note_on_c, 9, 42, 0
11, 22170, Note_on_c, 9, 36, 0
11, 22200, Note_on_c, 9, 38, 113
11, 22200, Note_on_c, 9, 42, 89
11, 22230, Note_on_c, 9, 42, 0
11, 22260, Note_on_c, 9, 38, 0
11, 22260, Note_on_c, 9, 42, 81
11, 22290, Note_on_c, 9, 42, 0
11, 22320, Note_on_c, 9, 36, 101
11, 22320, Note_on_c, 9, 42, 92
11, 22350, Note_on_c, 9, 42, 0
11, 22380, Note_on_c, 9, 36, 0
11, 22380, Note_on_c, 9, 42, 73
11, 22410, Note_on_c, 9, 42, 0
11, 22440, Note_on_c, 9, 42, 86
11, 22440, Note_on_c, 9, 38, 104
11, 22470, Note_on_c, 9, 38, 0
11, 22470, Note_on_c, 9, 42, 0
11, 22500, Note_on_c, 9, 36, 80
11, 22500, Note_on_c, 9, 46, 51
11, 22530, Note_on_c, 9, 46, 0
11, 22530, Note_on_c, 9, 36, 0
11, 22560, Note_on_c, 9, 42, 86
11, 22560, Note_on_c, 9, 36, 90
11, 22590, Note_on_c, 9, 36, 0
11, 22590, Note_on_c, 9, 42, 0
11, 22620, Note_on_c, 9, 36, 65
11, 22620, Note_on_c, 9, 42, 75
11, 22650, Note_on_c, 9, 42, 0
11, 22650, Note_on_c, 9, 36, 0
11, 22680, Note_on_c, 9, 42, 89
11, 22680, Note_on_c, 9, 38, 104
11, 22710, Note_on_c, 9, 42, 0
11, 22740, Note_on_c, 9, 38, 0
11, 22740, Note_on_c, 9, 42, 59
11, 22770, Note_on_c, 9, 42, 0
11, 22800, Note_on_c, 9, 36, 104
11, 22800, Note_on_c, 9, 42, 100
11, 22830, Note_on_c, 9, 42, 0
11, 22860, Note_on_c, 9, 36, 0
11, 22860, Note_on_c, 9, 42, 53
11, 22890, Note_on_c, 9, 42, 0
11, 22920, Note_on_c, 9, 42, 100
11, 22920, Note_on_c, 9, 38, 110
11, 22950, Note_on_c, 9, 38, 0
11, 22950, Note_on_c, 9, 42, 0
11, 22980, Note_on_c, 9, 42, 73
11, 22980, Note_on_c, 9, 36, 71
11, 23010, Note_on_c, 9, 36, 0
11, 23010, Note_on_c, 9, 42, 0
11, 23040, Note_on_c, 9, 42, 96
11, 23040, Note_on_c, 9, 36, 79
11, 23070, Note_on_c, 9, 36, 0
11, 23070, Note_on_c, 9, 42, 0
11, 23100, Note_on_c, 9, 42, 84
11, 23100, Note_on_c, 9, 36, 94
11, 23130, Note_on_c, 9, 36, 0
11, 23130, Note_on_c, 9, 42, 0
11, 23160, Note_on_c, 9, 38, 104
11, 23160, Note_on_c, 9, 42, 89
11, 23190, Note_on_c, 9, 42, 0
11, 23220, Note_on_c, 9, 38, 0
11, 23220, Note_on_c, 9, 42, 75
11, 23250, Note_on_c, 9, 42, 0
11, 23280, Note_on_c, 9, 36, 99
11, 23280, Note_on_c, 9, 42, 92
11, 23310, Note_on_c, 9, 42, 0
11, 23340, Note_on_c, 9, 36, 0
11, 23340, Note_on_c, 9, 42, 54
11, 23370, Note_on_c, 9, 42, 0
11, 23400, Note_on_c, 9, 38, 101
11, 23400, Note_on_c, 9, 42, 96
11, 23430, Note_on_c, 9, 42, 0
11, 23430, Note_on_c, 9, 38, 0
11, 23460, Note_on_c, 9, 42, 69
11, 23460, Note_on_c, 9, 36, 82
11, 23490, Note_on_c, 9, 36, 0
11, 23490, Note_on_c, 9, 42, 0
11, 23520, Note_on_c, 9, 42, 92
11, 23520, Note_on_c, 9, 36, 82
11, 23550, Note_on_c, 9, 36, 0
11, 23550, Note_on_c, 9, 42, 0
11, 23580, Note_on_c, 9, 42, 81
11, 23580, Note_on_c, 9, 36, 99
11, 23610, Note_on_c, 9, 36, 0
11, 23610, Note_on_c, 9, 42, 0
11, 23640, Note_on_c, 9, 38, 104
11, 23640, Note_on_c, 9, 42, 96
11, 23670, Note_on_c, 9, 42, 0
11, 23700, Note_on_c, 9, 38, 0
11, 23700, Note_on_c, 9, 42, 68
11, 23730, Note_on_c, 9, 42, 0
11, 23760, Note_on_c, 9, 36, 104
11, 23760, Note_on_c, 9, 42, 92
11, 23790, Note_on_c, 9, 42, 0
11, 23820, Note_on_c, 9, 36, 0
11, 23820, Note_on_c, 9, 42, 62
11, 23850, Note_on_c, 9, 42, 0
11, 23880, Note_on_c, 9, 38, 110
11, 23880, Note_on_c, 9, 42, 89
11, 23910, Note_on_c, 9, 42, 0
11, 23910, Note_on_c, 9, 38, 0
11, 23940, Note_on_c, 9, 42, 69
11, 23940, Note_on_c, 9, 36, 88
11, 23970, Note_on_c, 9, 36, 0
11, 23970, Note_on_c, 9, 42, 0
11, 24000, Note_on_c, 9, 42, 89
11, 24000, Note_on_c, 9, 36, 82
11, 24030, Note_on_c, 9, 36, 0
11, 24030, Note_on_c, 9, 42, 0
11, 24060, Note_on_c, 9, 42, 86
11, 24060, Note_on_c, 9, 36, 99
11, 24090, Note_on_c, 9, 36, 0
11, 24090, Note_on_c, 9, 42, 0
11, 24120, Note_on_c, 9, 42, 100
11, 24120, Note_on_c, 9, 38, 113
11, 24150, Note_on_c, 9, 42, 0
11, 24180, Note_on_c, 9, 38, 0
11, 24180, Note_on_c, 9, 42, 69
11, 24210, Note_on_c, 9, 42, 0
11, 24240, Note_on_c, 9, 42, 100
11, 24240, Note_on_c, 9, 36, 107
11, 24270, Note_on_c, 9, 42, 0
11, 24300, Note_on_c, 9, 36, 0
11, 24300, Note_on_c, 9, 42, 77
11, 24330, Note_on_c, 9, 42, 0
11, 24360, Note_on_c, 9, 38, 117
11, 24360, Note_on_c, 9, 42, 96
11, 24390, Note_on_c, 9, 42, 0
11, 24390, Note_on_c, 9, 38, 0
11, 24420, Note_on_c, 9, 36, 82
11, 24420, Note_on_c, 9, 42, 81
11, 24450, Note_on_c, 9, 42, 0
11, 24450, Note_on_c, 9, 36, 0
11, 24480, Note_on_c, 9, 42, 89
11, 24480, Note_on_c, 9, 36, 83
11, 24510, Note_on_c, 9, 36, 0
11, 24510, Note_on_c, 9, 42, 0
11, 24540, Note_on_c, 9, 36, 99
11, 24540, Note_on_c, 9, 42, 84
11, 24570, Note_on_c, 9, 42, 0
11, 24570, Note_on_c, 9, 36, 0
11, 24600, Note_on_c, 9, 42, 96
11, 24600, Note_on_c, 9, 38, 110
11, 24630, Note_on_c, 9, 42, 0
11, 24660, Note_on_c, 9, 38, 0
11, 24660, Note_on_c, 9, 42, 60
11, 24690, Note_on_c, 9, 42, 0
11, 24720, Note_on_c, 9, 36, 97
11, 24720, Note_on_c, 9, 42, 86
11, 24750, Note_on_c, 9, 42, 0
11, 24780, Note_on_c, 9, 36, 0
11, 24780, Note_on_c, 9, 42, 56
11, 24810, Note_on_c, 9, 42, 0
11, 24840, Note_on_c, 9, 38, 110
11, 24840, Note_on_c, 9, 42, 73
11, 24870, Note_on_c, 9, 42, 0
11, 24870, Note_on_c, 9, 38, 0
11, 24900, Note_on_c, 9, 46, 54
11, 24900, Note_on_c, 9, 36, 85
11, 24930, Note_on_c, 9, 36, 0
11, 24930, Note_on_c, 9, 46, 0
11, 24960, Note_on_c, 9, 42, 66
11, 24960, Note_on_c, 9, 36, 86
11, 24990, Note_on_c, 9, 36, 0
11, 24990, Note_on_c, 9, 42, 0
11, 25020, Note_on_c, 9, 42, 62
11, 25020, Note_on_c, 9, 36, 80
11, 25050, Note_on_c, 9, 36, 0
11, 25050, Note_on_c, 9, 42, 0
11, 25080, Note_on_c, 9, 38, 110
11, 25080, Note_on_c, 9, 42, 92
11, 25110, Note_on_c, 9, 42, 0
11, 25140, Note_on_c, 9, 38, 0
11, 25140, Note_on_c, 9, 42, 66
11, 25170, Note_on_c, 9, 42, 0
11, 25200, Note_on_c, 9, 42, 92
11, 25200, Note_on_c, 9, 36, 99
11, 25230, Note_on_c, 9, 42, 0
11, 25260, Note_on_c, 9, 36, 0
11, 25260, Note_on_c, 9, 42, 66
11, 25290, Note_on_c, 9, 42, 0
11, 25320, Note_on_c, 9, 42, 100
11, 25320, Note_on_c, 9, 38, 113
11, 25350, Note_on_c, 9, 38, 0
11, 25350, Note_on_c, 9, 42, 0
11, 25380, Note_on_c, 9, 42, 66
11, 25380, Note_on_c, 9, 36, 82
11, 25410, Note_on_c, 9, 36, 0
11, 25410, Note_on_c, 9, 42, 0
11, 25440, Note_on_c, 9, 42, 86
11, 25440, Note_on_c, 9, 36, 88
11, 25470, Note_on_c, 9, 36, 0
11, 25470, Note_on_c, 9, 42, 0
11, 25500, Note_on_c, 9, 42, 86
11, 25500, Note_on_c, 9, 36, 94
11, 25530, Note_on_c, 9, 36, 0
11, 25530, Note_on_c, 9, 42, 0
11, 25560, Note_on_c, 9, 42, 96
11, 25560, Note_on_c, 9, 38, 104
11, 25590, Note_on_c, 9, 42, 0
11, 25620, Note_on_c, 9, 38, 0
11, 25620, Note_on_c, 9, 42, 63
11, 25650, Note_on_c, 9, 42, 0
11, 25680, Note_on_c, 9, 42, 96
11, 25680, Note_on_c, 9, 36, 101
11, 25710, Note_on_c, 9, 42, 0
11, 25740, Note_on_c, 9, 36, 0
11, 25740, Note_on_c, 9, 42, 62
11, 25770, Note_on_c, 9, 42, 0
11, 25800, Note_on_c, 9, 38, 99
11, 25800, Note_on_c, 9, 42, 92
11, 25830, Note_on_c, 9, 42, 0
11, 25830, Note_on_c, 9, 38, 0
11, 25860, Note_on_c, 9, 36, 73
11, 25860, Note_on_c, 9, 42, 73
11, 25890, Note_on_c, 9, 42, 0
11, 25890, Note_on_c, 9, 36, 0
11, 25920, Note_on_c, 9, 42, 89
11, 25920, Note_on_c, 9, 36, 86
11, 25950, Note_on_c, 9, 36, 0
11, 25950, Note_on_c, 9, 42, 0
11, 25980, Note_on_c, 9, 36, 90
11, 25980, Note_on_c, 9, 42, 84
11, 26010, Note_on_c, 9, 42, 0
11, 26010, Note_on_c, 9, 36, 0
11, 26040, Note_on_c, 9, 38, 113
11, 26040, Note_on_c, 9, 42, 89
11, 26070, Note_on_c, 9, 42, 0
11, 26100, Note_on_c, 9, 38, 0
11, 26100, Note_on_c, 9, 42, 81
11, 26130, Note_on_c, 9, 42, 0
11, 26160, Note_on_c, 9, 36, 101
11, 26160, Note_on_c, 9, 42, 92
11, 26190, Note_on_c, 9, 42, 0
11, 26220, Note_on_c, 9, 36, 0
11, 26220, Note_on_c, 9, 42, 73
11, 26250, Note_on_c, 9, 42, 0
11, 26280, Note_on_c, 9, 42, 86
11, 26280, Note_on_c, 9, 38, 104
11, 26310, Note_on_c, 9, 38, 0
11, 26310, Note_on_c, 9, 42, 0
11, 26340, Note_on_c, 9, 36, 80
11, 26340, Note_on_c, 9, 46, 51
11, 26370, Note_on_c, 9, 46, 0
11, 26370, Note_on_c, 9, 36, 0
11, 26400, Note_on_c, 9, 42, 86
11, 26400, Note_on_c, 9, 36, 90
11, 26430, Note_on_c, 9, 36, 0
11, 26430, Note_on_c, 9, 42, 0
11, 26460, Note_on_c, 9, 36, 65
11, 26460, Note_on_c, 9, 42, 75
11, 26490, Note_on_c, 9, 42, 0
11, 26490, Note_on_c, 9, 36, 0
11, 26520, Note_on_c, 9, 42, 89
11, 26520, Note_on_c, 9, 38, 104
11, 26550, Note_on_c, 9, 42, 0
11, 26580, Note_on_c, 9, 38, 0
11, 26580, Note_on_c, 9, 42, 59
11, 26610, Note_on_c, 9, 42, 0
11, 26640, Note_on_c, 9, 36, 104
11, 26640, Note_on_c, 9, 42, 100
11, 26670, Note_on_c, 9, 42, 0
11, 26700, Note_on_c, 9, 36, 0
11, 26700, Note_on_c, 9, 42, 53
11, 26730, Note_on_c, 9, 42, 0
11, 26760, Note_on_c, 9, 42, 100
11, 26760, Note_on_c, 9, 38, 110
11, 26790, Note_on_c, 9, 38, 0
11, 26790, Note_on_c, 9, 42, 0
11, 26820, Note_on_c, 9, 42, 73
11, 26820, Note_on_c, 9, 36, 71
11, 26850, Note_on_c, 9, 36, 0
11, 26850, Note_on_c, 9, 42, 0
11, 26880, Note_on_c, 9, 42, 96
11, 26880, Note_on_c, 9, 36, 79
11, 26910, Note_on_c, 9, 36, 0
11, 26910, Note_on_c, 9, 42, 0
11, 26940, Note_on_c, 9, 42, 84
11, 26940, Note_on_c, 9, 36, 94
11, 26970, Note_on_c, 9, 36, 0
11, 26970, Note_on_c, 9, 42, 0
11, 27000, Note_on_c, 9, 38, 104
11, 27000, Note_on_c, 9, 42, 89
11, 27030, Note_on_c, 9, 42, 0
11, 27060, Note_on_c, 9, 38, 0
11, 27060, Note_on_c, 9, 42, 75
11, 27090, Note_on_c, 9, 42, 0
11, 27120, Note_on_c, 9, 36, 99
11, 27120, Note_on_c, 9, 42, 92
11, 27150, Note_on_c, 9, 42, 0
11, 27180, Note_on_c, 9, 36, 0
11, 27180, Note_on_c, 9, 42, 54
11, 27210, Note_on_c, 9, 42, 0
11, 27240, Note_on_c, 9, 38, 101
11, 27240, Note_on_c, 9, 42, 96
11, 27270, Note_on_c, 9, 42, 0
11, 27270, Note_on_c, 9, 38, 0
11, 27300, Note_on_c, 9, 42, 69
11, 27300, Note_on_c, 9, 36, 82
11, 27330, Note_on_c, 9, 36, 0
11, 27330, Note_on_c, 9, 42, 0
11, 27360, Note_on_c, 9, 42, 92
11, 27360, Note_on_c, 9, 36, 82
11, 27390, Note_on_c, 9, 36, 0
11, 27390, Note_on_c, 9, 42, 0
11, 27420, Note_on_c, 9, 42, 81
11, 27420, Note_on_c, 9, 36, 99
11, 27450, Note_on_c, 9, 36, 0
11, 27450, Note_on_c, 9, 42, 0
11, 27480, Note_on_c, 9, 38, 104
11, 27480, Note_on_c, 9, 42, 96
11, 27510, Note_on_c, 9, 42, 0
11, 27540, Note_on_c, 9, 38, 0
11, 27540, Note_on_c, 9, 42, 68
11, 27570, Note_on_c, 9, 42, 0
11, 27600, Note_on_c, 9, 36, 104
11, 27600, Note_on_c, 9, 42, 92
11, 27630, Note_on_c, 9, 42, 0
11, 27660, Note_on_c, 9, 36, 0
11, 27660, Note_on_c, 9, 42, 62
11, 27690, Note_on_c, 9, 42, 0
11, 27720, Note_on_c, 9, 38, 110
11, 27720, Note_on_c, 9, 42, 89
11, 27750, Note_on_c, 9, 42, 0
11, 27750, Note_on_c, 9, 38, 0
11, 27780, Note_on_c, 9, 42, 69
11, 27780, Note_on_c, 9, 36, 88
11, 27810, Note_on_c, 9, 36, 0
11, 27810, Note_on_c, 9, 42, 0
11, 27840, Note_on_c, 9, 42, 89
11, 27840, Note_on_c, 9, 36, 82
11, 27870, Note_on_c, 9, 36, 0
11, 27870, Note_on_c, 9, 42, 0
11, 27900, Note_on_c, 9, 42, 86
11, 27900, Note_on_c, 9, 36, 99
11, 27930, Note_on_c, 9, 36, 0
11, 27930, Note_on_c, 9, 42, 0
11, 27960, Note_on_c, 9, 42, 100
11, 27960, Note_on_c, 9, 38, 113
11, 27990, Note_on_c, 9, 42, 0
11, 28020, Note_on_c, 9, 38, 0
11, 28020, Note_on_c, 9, 42, 69
11, 28050, Note_on_c, 9, 42, 0
11, 28080, Note_on_c, 9, 42, 100
11, 28080, Note_on_c, 9, 36, 107
11, 28110, Note_on_c, 9, 42, 0
11, 28140, Note_on_c, 9, 36, 0
11, 28140, Note_on_c, 9, 42, 77
11, 28170, Note_on_c, 9, 42, 0
11, 28200, Note_on_c, 9, 38, 117
11, 28200, Note_on_c, 9, 42, 96
11, 28230, Note_on_c, 9, 42, 0
11, 28230, Note_on_c, 9, 38, 0
11, 28260, Note_on_c, 9, 36, 82
11, 28260, Note_on_c, 9, 42, 81
11, 28290, Note_on_c, 9, 42, 0
11, 28290, Note_on_c, 9, 36, 0
11, 28320, Note_on_c, 9, 42, 89
11, 28320, Note_on_c, 9, 36, 83
11, 28350, Note_on_c, 9, 36, 0
11, 28350, Note_on_c, 9, 42, 0
11, 28380, Note_on_c, 9, 36, 99
11, 28380, Note_on_c, 9, 42, 84
11, 28410, Note_on_c, 9, 42, 0
11, 28410, Note_on_c, 9, 36, 0
11, 28440, Note_on_c, 9, 42, 96
11, 28440, Note_on_c, 9, 38, 110
11, 28470, Note_on_c, 9, 42, 0
11, 28500, Note_on_c, 9, 38, 0
11, 28500, Note_on_c, 9, 42, 60
11, 28530, Note_on_c, 9, 42, 0
11, 28560, Note_on_c, 9, 36, 97
11, 28560, Note_on_c, 9, 42, 86
11, 28590, Note_on_c, 9, 42, 0
11, 28620, Note_on_c, 9, 36, 0
11, 28620, Note_on_c, 9, 42, 56
11, 28650, Note_on_c, 9, 42, 0
11, 28680, Note_on_c, 9, 38, 110
11, 28680, Note_on_c, 9, 42, 73
11, 28710, Note_on_c, 9, 42, 0
11, 28710, Note_on_c, 9, 38, 0
11, 28740, Note_on_c, 9, 46, 54
11, 28740, Note_on_c, 9, 36, 85
11, 28770, Note_on_c, 9, 36, 0
11, 28770, Note_on_c, 9, 46, 0
11, 28800, Note_on_c, 9, 42, 66
11, 28800, Note_on_c, 9, 36, 86
11, 28830, Note_on_c, 9, 36, 0
11, 28830, Note_on_c, 9, 42, 0
11, 28860, Note_on_c, 9, 42, 62
11, 28860, Note_on_c, 9, 36, 80
11, 28890, Note_on_c, 9, 36, 0
11, 28890, Note_on_c, 9, 42, 0
11, 28920, Note_on_c, 9, 38, 110
11, 28920, Note_on_c, 9, 42, 92
11, 28950, Note_on_c, 9, 42, 0
11, 28980, Note_on_c, 9, 38, 0
11, 28980, Note_on_c, 9, 42, 66
11, 29010, Note_on_c, 9, 42, 0
11, 29040, Note_on_c, 9, 42, 92
11, 29040, Note_on_c, 9, 36, 99
11, 29070, Note_on_c, 9, 42, 0
11, 29100, Note_on_c, 9, 36, 0
11, 29100, Note_on_c, 9, 42, 66
11, 29130, Note_on_c, 9, 42, 0
11, 29160, Note_on_c, 9, 42, 100
11, 29160, Note_on_c, 9, 38, 113
11, 29190, Note_on_c, 9, 38, 0
11, 29190, Note_on_c, 9, 42, 0
11, 29220, Note_on_c, 9, 42, 66
11, 29220, Note_on_c, 9, 36, 82
11, 29250, Note_on_c, 9, 36, 0
11, 29250, Note_on_c, 9, 42, 0
11, 29280, Note_on_c, 9, 42, 86
11, 29280, Note_on_c, 9, 36, 88
11, 29310, Note_on_c, 9, 36, 0
11, 29310, Note_on_c, 9, 42, 0
11, 29340, Note_on_c, 9, 42, 86
11, 29340, Note_on_c, 9, 36, 94
11, 29370, Note_on_c, 9, 36, 0
11, 29370, Note_on_c, 9, 42, 0
11, 29400, Note_on_c, 9, 42, 96
11, 29400, Note_on_c, 9, 38, 104
11, 29430, Note_on_c, 9, 42, 0
11, 29460, Note_on_c, 9, 38, 0
11, 29460, Note_on_c, 9, 42, 63
11, 29490, Note_on_c, 9, 42, 0
11, 29520, Note_on_c, 9, 42, 96
11, 29520, Note_on_c, 9, 36, 101
11, 29550, Note_on_c, 9, 42, 0
11, 29580, Note_on_c, 9, 36, 0
11, 29580, Note_on_c, 9, 42, 62
11, 29610, Note_on_c, 9, 42, 0
11, 29640, Note_on_c, 9, 38, 99
11, 29640, Note_on_c, 9, 42, 92
11, 29670, Note_on_c, 9, 42, 0
11, 29670, Note_on_c, 9, 38, 0
11, 29700, Note_on_c, 9, 36, 73
11, 29700, Note_on_c, 9, 42, 73
11, 29730, Note_on_c, 9, 42, 0
11, 29730, Note_on_c, 9, 36, 0
11, 29760, Note_on_c, 9, 42, 89
11, 29760, Note_on_c, 9, 36, 86
11, 29790, Note_on_c, 9, 36, 0
11, 29790, Note_on_c, 9, 42, 0
11, 29820, Note_on_c, 9, 36, 90
11, 29820, Note_on_c, 9, 42, 84
11, 29850, Note_on_c, 9, 42, 0
11, 29850, Note_on_c, 9, 36, 0
11, 29880, Note_on_c, 9, 38, 113
11, 29880, Note_on_c, 9, 42, 89
11, 29910, Note_on_c, 9, 42, 0
11, 29940, Note_on_c, 9, 38, 0
11, 29940, Note_on_c, 9, 42, 81
11, 29970, Note_on_c, 9, 42, 0
11, 30000, Note_on_c, 9, 36, 101
11, 30000, Note_on_c, 9, 42, 92
11, 30030, Note_on_c, 9, 42, 0
11, 30060, Note_on_c, 9, 36, 0
11, 30060, Note_on_c, 9, 42, 73
11, 30090, Note_on_c, 9, 42, 0
11, 30120, Note_on_c, 9, 42, 86
11, 30120, Note_on_c, 9, 38, 104
11, 30150, Note_on_c, 9, 38, 0
11, 30150, Note_on_c, 9, 42, 0
11, 30180, Note_on_c, 9, 36, 80
11, 30180, Note_on_c, 9, 46, 51
11, 30210, Note_on_c, 9, 46, 0
11, 30210, Note_on_c, 9, 36, 0
11, 30240, Note_on_c, 9, 42, 86
11, 30240, Note_on_c, 9, 36, 90
11, 30270, Note_on_c, 9, 36, 0
11, 30270, Note_on_c, 9, 42, 0
11, 30300, Note_on_c, 9, 36, 65
11, 30300, Note_on_c, 9, 42, 75
11, 30330, Note_on_c, 9, 42, 0
11, 30330, Note_on_c, 9, 36, 0
11, 30360, Note_on_c, 9, 42, 89
11, 30360, Note_on_c, 9, 38, 104
11, 30390, Note_on_c, 9, 42, 0
11, 30420, Note_on_c, 9, 38, 0
11, 30420, Note_on_c, 9, 42, 59
11, 30450, Note_on_c, 9, 42, 0
11, 30480, Note_on_c, 9, 36, 104
11, 30480, Note_on_c, 9, 42, 100
11, 30510, Note_on_c, 9, 42, 0
11, 30540, Note_on_c, 9, 36, 0
11, 30540, Note_on_c, 9, 42, 53
11, 30570, Note_on_c, 9, 42, 0
11, 30600, Note_on_c, 9, 42, 100
11, 30600, Note_on_c, 9, 38, 110
11, 30630, Note_on_c, 9, 38, 0
11, 30630, Note_on_c, 9, 42, 0
11, 30660, Note_on_c, 9, 42, 73
11, 30660, Note_on_c, 9, 36, 71
11, 30690, Note_on_c, 9, 36, 0
11, 30690, Note_on_c, 9, 42, 0
11, 30720, Note_on_c, 9, 42, 96
11, 30720, Note_on_c, 9, 36, 79
11, 30750, Note_on_c, 9, 36, 0
11, 30750, Note_on_c, 9, 42, 0
11, 30780, Note_on_c, 9, 42, 84
11, 30780, Note_on_c, 9, 36, 94
11, 30810, Note_on_c, 9, 36, 0
11, 30810, Note_on_c, 9, 42, 0
11, 30840, Note_on_c, 9, 38, 104
11, 30840, Note_on_c, 9, 42, 89
11, 30870, Note_on_c, 9, 42, 0
11, 30900, Note_on_c, 9, 38, 0
11, 30900, Note_on_c, 9, 42, 75
11, 30930, Note_on_c, 9, 42, 0
11, 30960, Note_on_c, 9, 36, 99
11, 30960, Note_on_c, 9, 42, 92
11, 30990, Note_on_c, 9, 42, 0
11, 31020, Note_on_c, 9, 36, 0
11, 31020, Note_on_c, 9, 42, 54
11, 31050, Note_on_c, 9, 42, 0
11, 31080, Note_on_c, 9, 38, 101
11, 31080, Note_on_c, 9, 42, 96
11, 31110, Note_on_c, 9, 42, 0
11, 31110, Note_on_c, 9, 38, 0
11, 31140, Note_on_c, 9, 42, 69
11, 31140, Note_on_c, 9, 36, 82
11, 31170, Note_on_c, 9, 36, 0
11, 31170, Note_on_c, 9, 42, 0
11, 31200, Note_on_c, 9, 42, 92
11, 31200, Note_on_c, 9, 36, 82
11, 31230, Note_on_c, 9, 36, 0
11, 31230, Note_on_c, 9, 42, 0
11, 31260, Note_on_c, 9, 42, 81
11, 31260, Note_on_c, 9, 36, 99
11, 31290, Note_on_c, 9, 36, 0
11, 31290, Note_on_c, 9, 42, 0
11, 31320, Note_on_c, 9, 38, 104
11, 31320, Note_on_c, 9, 42, 96
11, 31350, Note_on_c, 9, 42, 0
11, 31380, Note_on_c, 9, 38, 0
11, 31380, Note_on_c, 9, 42, 68
11, 31410, Note_on_c, 9, 42, 0
11, 31440, Note_on_c, 9, 36, 104
11, 31440, Note_on_c, 9, 42, 92
11, 31470, Note_on_c, 9, 42, 0
11, 31500, Note_on_c, 9, 36, 0
11, 31500, Note_on_c, 9, 42, 62
11, 31530, Note_on_c, 9, 42, 0
11, 31560, Note_on_c, 9, 38, 110
11, 31560, Note_on_c, 9, 42, 89
11, 31590, Note_on_c, 9, 42, 0
11, 31590, Note_on_c, 9, 38, 0
11, 31620, Note_on_c, 9, 42, 69
11, 31620, Note_on_c, 9, 36, 88
11, 31650, Note_on_c, 9, 36, 0
11, 31650, Note_on_c, 9, 42, 0
11, 31680, Note_on_c, 9, 42, 89
11, 31680, Note_on_c, 9, 36, 82
11, 31710, Note_on_c, 9, 36, 0
11, 31710, Note_on_c, 9, 42, 0
11, 31740, Note_on_c, 9, 42, 86
11, 31740, Note_on_c, 9, 36, 99
11, 31770, Note_on_c, 9, 36, 0
11, 31770, Note_on_c, 9, 42, 0
11, 31800, Note_on_c, 9, 42, 100
11, 31800, Note_on_c, 9, 38, 113
11, 31830, Note_on_c, 9, 42, 0
11, 31860, Note_on_c, 9, 38, 0
11, 31860, Note_on_c, 9, 42, 69
11, 31890, Note_on_c, 9, 42, 0
11, 31920, Note_on_c, 9, 42, 100
11, 31920, Note_on_c, 9, 36, 107
11, 31950, Note_on_c, 9, 42, 0
11, 31980, Note_on_c, 9, 36, 0
11, 31980, Note_on_c, 9, 42, 77
11, 32010, Note_on_c, 9, 42, 0
11, 32040, Note_on_c, 9, 38, 117
11, 32040, Note_on_c, 9, 42, 96
11, 32070, Note_on_c, 9, 42, 0
11, 32070, Note_on_c, 9, 38, 0
11, 32100, Note_on_c, 9, 36, 82
11, 32100, Note_on_c, 9, 42, 81
11, 32130, Note_on_c, 9, 42, 0
11, 32130, Note_on_c, 9, 36, 0
11, 32160, Note_on_c, 9, 42, 89
11, 32160, Note_on_c, 9, 36, 83
11, 32190, Note_on_c, 9, 36, 0
11, 32190, Note_on_c, 9, 42, 0
11, 32220, Note_on_c, 9, 36, 99
11, 32220, Note_on_c, 9, 42, 84
11, 32250, Note_on_c, 9, 42, 0
11, 32250, Note_on_c, 9, 36, 0
11, 32280, Note_on_c, 9, 42, 96
11, 32280, Note_on_c, 9, 38, 110
11, 32310, Note_on_c, 9, 42, 0
11, 32340, Note_on_c, 9, 38, 0
11, 32340, Note_on_c, 9, 42, 60
11, 32370, Note_on_c, 9, 42, 0
11, 32400, Note_on_c, 9, 36, 97
11, 32400, Note_on_c, 9, 42, 86
11, 32430, Note_on_c, 9, 42, 0
11, 32460, Note_on_c, 9, 36, 0
11, 32460, Note_on_c, 9, 42, 56
11, 32490, Note_on_c, 9, 42, 0
11, 32520, Note_on_c, 9, 38, 110
11, 32520, Note_on_c, 9, 42, 73
11, 32550, Note_on_c, 9, 42, 0
11, 32550, Note_on_c, 9, 38, 0
11, 32580, Note_on_c, 9, 46, 54
11, 32580, Note_on_c, 9, 36, 85
11, 32610, Note_on_c, 9, 36, 0
11, 32610, Note_on_c, 9, 46, 0
11, 32640, Note_on_c, 9, 42, 66
11, 32640, Note_on_c, 9, 36, 86
11, 32670, Note_on_c, 9, 36, 0
11, 32670, Note_on_c, 9, 42, 0
11, 32700, Note_on_c, 9, 42, 62
11, 32700, Note_on_c, 9, 36, 80
11, 32730, Note_on_c, 9, 36, 0
11, 32730, Note_on_c, 9, 42, 0
11, 32760, Note_on_c, 9, 38, 110
11, 32760, Note_on_c, 9, 42, 92
11, 32790, Note_on_c, 9, 42, 0
11, 32820, Note_on_c, 9, 38, 0
11, 32820, Note_on_c, 9, 42, 66
11, 32850, Note_on_c, 9, 42, 0
11, 32880, Note_on_c, 9, 42, 92
11, 32880, Note_on_c, 9, 36, 99
11, 32910, Note_on_c, 9, 42, 0
11, 32940, Note_on_c, 9, 36, 0
11, 32940, Note_on_c, 9, 42, 66
11, 32970, Note_on_c, 9, 42, 0
11, 33000, Note_on_c, 9, 42, 100
11, 33000, Note_on_c, 9, 38, 113
11, 33030, Note_on_c, 9, 38, 0
11, 33030, Note_on_c, 9, 42, 0
11, 33060, Note_on_c, 9, 42, 66
11, 33060, Note_on_c, 9, 36, 82
11, 33090, Note_on_c, 9, 36, 0
11, 33090, Note_on_c, 9, 42, 0
11, 33120, Note_on_c, 9, 42, 86
11, 33120, Note_on_c, 9, 36, 88
11, 33150, Note_on_c, 9, 36, 0
11, 33150, Note_on_c, 9, 42, 0
11, 33180, Note_on_c, 9, 42, 86
11, 33180, Note_on_c, 9, 36, 94
11, 33210, Note_on_c, 9, 36, 0
11, 33210, Note_on_c, 9, 42, 0
11, 33240, Note_on_c, 9, 42, 96
11, 33240, Note_on_c, 9, 38, 104
11, 33270, Note_on_c, 9, 42, 0
11, 33300, Note_on_c, 9, 38, 0
11, 33300, Note_on_c, 9, 42, 63
11, 33330, Note_on_c, 9, 42, 0
11, 33360, Note_on_c, 9, 42, 96
11, 33360, Note_on_c, 9, 36, 101
11, 33390, Note_on_c, 9, 42, 0
11, 33420, Note_on_c, 9, 36, 0
11, 33420, Note_on_c, 9, 42, 62
11, 33450, Note_on_c, 9, 42, 0
11, 33480, Note_on_c, 9, 38, 99
11, 33480, Note_on_c, 9, 42, 92
11, 33510, Note_on_c, 9, 42, 0
11, 33510, Note_on_c, 9, 38, 0
11, 33540, Note_on_c, 9, 36, 73
11, 33540, Note_on_c, 9, 42, 73
11, 33570, Note_on_c, 9, 42, 0
11, 33570, Note_on_c, 9, 36, 0
11, 33600, Note_on_c, 9, 42, 89
11, 33600, Note_on_c, 9, 36, 86
11, 33630, Note_on_c, 9, 36, 0
11, 33630, Note_on_c, 9, 42, 0
11, 33660, Note_on_c, 9, 36, 90
11, 33660, Note_on_c, 9, 42, 84
11, 33690, Note_on_c, 9, 42, 0
11, 33690, Note_on_c, 9, 36, 0
11, 33720, Note_on_c, 9, 38, 113
11, 33720, Note_on_c, 9, 42, 89
11, 33750, Note_on_c, 9, 42, 0
11, 33780, Note_on_c, 9, 38, 0
11, 33780, Note_on_c, 9, 42, 81
11, 33810, Note_on_c, 9, 42, 0
11, 33840, Note_on_c, 9, 36, 101
11, 33840, Note_on_c, 9, 42, 92
11, 33870, Note_on_c, 9, 42, 0
11, 33900, Note_on_c, 9, 36, 0
11, 33900, Note_on_c, 9, 42, 73
11, 33930, Note_on_c, 9, 42, 0
11, 33960, Note_on_c, 9, 42, 86
11, 33960, Note_on_c, 9, 38, 104
11, 33990, Note_on_c, 9, 38, 0
11, 33990, Note_on_c, 9, 42, 0
11, 34020, Note_on_c, 9, 36, 80
11, 34020, Note_on_c, 9, 46, 51
11, 34050, Note_on_c, 9, 46, 0
11, 34050, Note_on_c, 9, 36, 0
11, 34080, Note_on_c, 9, 42, 86
11, 34080, Note_on_c, 9, 36, 90
11, 34110, Note_on_c, 9, 36, 0
11, 34110, Note_on_c, 9, 42, 0
11, 34140, Note_on_c, 9, 36, 65
11, 34140, Note_on_c, 9, 42, 75
11, 34170, Note_on_c, 9, 42, 0
11, 34170, Note_on_c, 9, 36, 0
11, 34200, Note_on_c, 9, 42, 89
11, 34200, Note_on_c, 9, 38, 104
11, 34230, Note_on_c, 9, 42, 0
11, 34260, Note_on_c, 9, 38, 0
11, 34260, Note_on_c, 9, 42, 59
11, 34290, Note_on_c, 9, 42, 0
11, 34320, Note_on_c, 9, 36, 104
11, 34320, Note_on_c, 9, 42, 100
11, 34350, Note_on_c, 9, 42, 0
11, 34380, Note_on_c, 9, 36, 0
11, 34380, Note_on_c, 9, 42, 53
11, 34410, Note_on_c, 9, 42, 0
11, 34440, Note_on_c, 9, 42, 100
11, 34440, Note_on_c, 9, 38, 110
11, 34470, Note_on_c, 9, 38, 0
11, 34470, Note_on_c, 9, 42, 0
11, 34500, Note_on_c, 9, 42, 73
11, 34500, Note_on_c, 9, 36, 71
11, 34530, Note_on_c, 9, 36, 0
11, 34530, Note_on_c, 9, 42, 0
11, 34560, Note_on_c, 9, 42, 96
11, 34560, Note_on_c, 9, 36, 79
11, 34590, Note_on_c, 9, 36, 0
11, 34590, Note_on_c, 9, 42, 0
11, 34620, Note_on_c, 9, 42, 84
11, 34620, Note_on_c, 9, 36, 94
11, 34650, Note_on_c, 9, 36, 0
11, 34650, Note_on_c, 9, 42, 0
11, 34680, Note_on_c, 9, 38, 104
11, 34680, Note_on_c, 9, 42, 89
11, 34710, Note_on_c, 9, 42, 0
11, 34740, Note_on_c, 9, 38, 0
11, 34740, Note_on_c, 9, 42, 75
11, 34770, Note_on_c, 9, 42, 0
11, 34800, Note_on_c, 9, 36, 99
11, 34800, Note_on_c, 9, 42, 92
11, 34830, Note_on_c, 9, 42, 0
11, 34860, Note_on_c, 9, 36, 0
11, 34860, Note_on_c, 9, 42, 54
11, 34890, Note_on_c, 9, 42, 0
11, 34920, Note_on_c, 9, 38, 101
11, 34920, Note_on_c, 9, 42, 96
11, 34950, Note_on_c, 9, 42, 0
11, 34950, Note_on_c, 9, 38, 0
11, 34980, Note_on_c, 9, 42, 69
11, 34980, Note_on_c, 9, 36, 82
11, 35010, Note_on_c, 9, 36, 0
11, 35010, Note_on_c, 9, 42, 0
11, 35040, Note_on_c, 9, 42, 92
11, 35040, Note_on_c, 9, 36, 82
11, 35070, Note_on_c, 9, 36, 0
11, 35070, Note_on_c, 9, 42, 0
11, 35100, Note_on_c, 9, 42, 81
11, 35100, Note_on_c, 9, 36, 99
11, 35130, Note_on_c, 9, 36, 0
11, 35130, Note_on_c, 9, 42, 0
11, 35160, Note_on_c, 9, 38, 104
11, 35160, Note_on_c, 9, 42, 96
11, 35190, Note_on_c, 9, 42, 0
11, 35220, Note_on_c, 9, 38, 0
11, 35220, Note_on_c, 9, 42, 68
11, 35250, Note_on_c, 9, 42, 0
11, 35280, Note_on_c, 9, 36, 104
11, 35280, Note_on_c, 9, 42, 92
11, 35310, Note_on_c, 9, 42, 0
11, 35340, Note_on_c, 9, 36, 0
11, 35340, Note_on_c, 9, 42, 62
11, 35370, Note_on_c, 9, 42, 0
11, 35400, Note_on_c, 9, 38, 110
11, 35400, Note_on_c, 9, 42, 89
11, 35430, Note_on_c, 9, 42, 0
11, 35430, Note_on_c, 9, 38, 0
11, 35460, Note_on_c, 9, 42, 69
11, 35460, Note_on_c, 9, 36, 88
11, 35490, Note_on_c, 9, 36, 0
11, 35490, Note_on_c, 9, 42, 0
11, 35520, Note_on_c, 9, 42, 89
11, 35520, Note_on_c, 9, 36, 82
11, 35550, Note_on_c, 9, 36, 0
11, 35550, Note_on_c, 9, 42, 0
11, 35580, Note_on_c, 9, 42, 86
11, 35580, Note_on_c, 9, 36, 99
11, 35610, Note_on_c, 9, 36, 0
11, 35610, Note_on_c, 9, 42, 0
11, 35640, Note_on_c, 9, 42, 100
11, 35640, Note_on_c, 9, 38, 113
11, 35670, Note_on_c, 9, 42, 0
11, 35700, Note_on_c, 9, 38, 0
11, 35700, Note_on_c, 9, 42, 69
11, 35730, Note_on_c, 9, 42, 0
11, 35760, Note_on_c, 9, 42, 100
11, 35760, Note_on_c, 9, 36, 107
11, 35790, Note_on_c, 9, 42, 0
11, 35820, Note_on_c, 9, 36, 0
11, 35820, Note_on_c, 9, 42, 77
11, 35850, Note_on_c, 9, 42, 0
11, 35880, Note_on_c, 9, 38, 117
11, 35880, Note_on_c, 9, 42, 96
11, 35910, Note_on_c, 9, 42, 0
11, 35910, Note_on_c, 9, 38, 0
11, 35940, Note_on_c, 9, 36, 82
11, 35940, Note_on_c, 9, 42, 81
11, 35970, Note_on_c, 9, 42, 0
11, 35970, Note_on_c, 9, 36, 0
11, 36000, Note_on_c, 9, 42, 89
11, 36000, Note_on_c, 9, 36, 83
11, 36030, Note_on_c, 9, 36, 0
11, 36030, Note_on_c, 9, 42, 0
11, 36060, Note_on_c, 9, 36, 99
11, 36060, Note_on_c, 9, 42, 84
11, 36090, Note_on_c, 9, 42, 0
11, 36090, Note_on_c, 9, 36, 0
11, 36120, Note_on_c, 9, 42, 96
11, 36120, Note_on_c, 9, 38, 110
11, 36150, Note_on_c, 9, 42, 0
11, 36180, Note_on_c, 9, 38, 0
11, 36180, Note_on_c, 9, 42, 60
11, 36210, Note_on_c, 9, 42, 0
11, 36240, Note_on_c, 9, 36, 97
11, 36240, Note_on_c, 9, 42, 86
11, 36270, Note_on_c, 9, 42, 0
11, 36300, Note_on_c, 9, 36, 0
11, 36300, Note_on_c, 9, 42, 56
11, 36330, Note_on_c, 9, 42, 0
11, 36360, Note_on_c, 9, 38, 110
11, 36360, Note_on_c, 9, 42, 73
11, 36390, Note_on_c, 9, 42, 0
11, 36390, Note_on_c, 9, 38, 0
11, 36420, Note_on_c, 9, 46, 54
11, 36420, Note_on_c, 9, 36, 85
11, 36450, Note_on_c, 9, 36, 0
11, 36450, Note_on_c, 9, 46, 0
11, 36480, Note_on_c, 9, 42, 66
11, 36480, Note_on_c, 9, 36, 86
11, 36510, Note_on_c, 9, 36, 0
11, 36510, Note_on_c, 9, 42, 0
11, 36540, Note_on_c, 9, 42, 62
11, 36540, Note_on_c, 9, 36, 80
11, 36570, Note_on_c, 9, 36, 0
11, 36570, Note_on_c, 9, 42, 0
11, 36600, Note_on_c, 9, 38, 110
11, 36600, Note_on_c, 9, 42, 92
11, 36630, Note_on_c, 9, 42, 0
11, 36660, Note_on_c, 9, 38, 0
11, 36660, Note_on_c, 9, 42, 66
11, 36690, Note_on_c, 9, 42, 0
11, 36720, Note_on_c, 9, 42, 92
11, 36720, Note_on_c, 9, 36, 99
11, 36750, Note_on_c, 9, 42, 0
11, 36780, Note_on_c, 9, 36, 0
11, 36780, Note_on_c, 9, 42, 66
11, 36810, Note_on_c, 9, 42, 0
11, 36840, Note_on_c, 9, 42, 100
11, 36840, Note_on_c, 9, 38, 113
11, 36870, Note_on_c, 9, 38, 0
11, 36870, Note_on_c, 9, 42, 0
11, 36900, Note_on_c, 9, 42, 66
11, 36900, Note_on_c, 9, 36, 82
11, 36930, Note_on_c, 9, 36, 0
11, 36930, Note_on_c, 9, 42, 0
11, 36960, Note_on_c, 9, 42, 86
11, 36960, Note_on_c, 9, 36, 88
11, 36990, Note_on_c, 9, 36, 0
11, 36990, Note_on_c, 9, 42, 0
11, 37020, Note_on_c, 9, 42, 86
11, 37020, Note_on_c, 9, 36, 94
11, 37050, Note_on_c, 9, 36, 0
11, 37050, Note_on_c, 9, 42, 0
11, 37080, Note_on_c, 9, 42, 96
11, 37080, Note_on_c, 9, 38, 104
11, 37110, Note_on_c, 9, 42, 0
11, 37140, Note_on_c, 9, 38, 0
11, 37140, Note_on_c, 9, 42, 63
11, 37170, Note_on_c, 9, 42, 0
11, 37200, Note_on_c, 9, 42, 96
11, 37200, Note_on_c, 9, 36, 101
11, 37230, Note_on_c, 9, 42, 0
11, 37260, Note_on_c, 9, 36, 0
11, 37260, Note_on_c, 9, 42, 62
11, 37290, Note_on_c, 9, 42, 0
11, 37320, Note_on_c, 9, 38, 99
11, 37320, Note_on_c, 9, 42, 92
11, 37350, Note_on_c, 9, 42, 0
11, 37350, Note_on_c, 9, 38, 0
11, 37380, Note_on_c, 9, 36, 73
11, 37380, Note_on_c, 9, 42, 73
11, 37410, Note_on_c, 9, 42, 0
11, 37410, Note_on_c, 9, 36, 0
11, 37440, Note_on_c, 9, 42, 89
11, 37440, Note_on_c, 9, 36, 86
11, 37470, Note_on_c, 9, 36, 0
11, 37470, Note_on_c, 9, 42, 0
11, 37500, Note_on_c, 9, 36, 90
11, 37500, Note_on_c, 9, 42, 84
11, 37530, Note_on_c, 9, 42, 0
11, 37530, Note_on_c, 9, 36, 0
11, 37560, Note_on_c, 9, 38, 113
11, 37560, Note_on_c, 9, 42, 89
11, 37590, Note_on_c, 9, 42, 0
11, 37620, Note_on_c, 9, 38, 0
11, 37620, Note_on_c, 9, 42, 81
11, 37650, Note_on_c, 9, 42, 0
11, 37680, Note_on_c, 9, 36, 101
11, 37680, Note_on_c, 9, 42, 92
11, 37710, Note_on_c, 9, 42, 0
11, 37740, Note_on_c, 9, 36, 0
11, 37740, Note_on_c, 9, 42, 73
11, 37770, Note_on_c, 9, 42, 0
11, 37800, Note_on_c, 9, 42, 86
11, 37800, Note_on_c, 9, 38, 104
11, 37830, Note_on_c, 9, 38, 0
11, 37830, Note_on_c, 9, 42, 0
11, 37860, Note_on_c, 9, 36, 80
11, 37860, Note_on_c, 9, 46, 51
11, 37890, Note_on_c, 9, 46, 0
11, 37890, Note_on_c, 9, 36, 0
11, 37920, Note_on_c, 9, 42, 86
11, 37920, Note_on_c, 9, 36, 90
11, 37950, Note_on_c, 9, 36, 0
11, 37950, Note_on_c, 9, 42, 0
11, 37980, Note_on_c, 9, 36, 65
11, 37980, Note_on_c, 9, 42, 75
11, 38010, Note_on_c, 9, 42, 0
11, 38010, Note_on_c, 9, 36, 0
11, 38040, Note_on_c, 9, 42, 89
11, 38040, Note_on_c, 9, 38, 104
11, 38070, Note_on_c, 9, 42, 0
11, 38100, Note_on_c, 9, 38, 0
11, 38100, Note_on_c, 9, 42, 59
11, 38130, Note_on_c, 9, 42, 0
11, 38160, Note_on_c, 9, 36, 104
11, 38160, Note_on_c, 9, 42, 100
11, 38190, Note_on_c, 9, 42, 0
11, 38220, Note_on_c, 9, 36, 0
11, 38220, Note_on_c, 9, 42, 53
11, 38250, Note_on_c, 9, 42, 0
11, 38280, Note_on_c, 9, 42, 100
11, 38280, Note_on_c, 9, 38, 110
11, 38310, Note_on_c, 9, 38, 0
11, 38310, Note_on_c, 9, 42, 0
11, 38340, Note_on_c, 9, 42, 73
11, 38340, Note_on_c, 9, 36, 71
11, 38370, Note_on_c, 9, 36, 0
11, 38370, Note_on_c, 9, 42, 0
11, 38400, Note_on_c, 9, 42, 96
11, 38400, Note_on_c, 9, 36, 79
11, 38430, Note_on_c, 9, 36, 0
11, 38430, Note_on_c, 9, 42, 0
11, 38460, Note_on_c, 9, 42, 84
11, 38460, Note_on_c, 9, 36, 94
11, 38490, Note_on_c, 9, 36, 0
11, 38490, Note_on_c, 9, 42, 0
11, 38520, Note_on_c, 9, 38, 104
11, 38520, Note_on_c, 9, 42, 89
11, 38550, Note_on_c, 9, 42, 0
11, 38580, Note_on_c, 9, 38, 0
11, 38580, Note_on_c, 9, 42, 75
11, 38610, Note_on_c, 9, 42, 0
11, 38640, Note_on_c, 9, 36, 99
11, 38640, Note_on_c, 9, 42, 92
11, 38670, Note_on_c, 9, 42, 0
11, 38700, Note_on_c, 9, 36, 0
11, 38700, Note_on_c, 9, 42, 54
11, 38730, Note_on_c, 9, 42, 0
11, 38760, Note_on_c, 9, 38, 101
11, 38760, Note_on_c, 9, 42, 96
11, 38790, Note_on_c, 9, 42, 0
11, 38790, Note_on_c, 9, 38, 0
11, 38820, Note_on_c, 9, 42, 69
11, 38820, Note_on_c, 9, 36, 82
11, 38850, Note_on_c, 9, 36, 0
11, 38850, Note_on_c, 9, 42, 0
11, 38880, Note_on_c, 9, 42, 92
11, 38880, Note_on_c, 9, 36, 82
11, 38910, Note_on_c, 9, 36, 0
11, 38910, Note_on_c, 9, 42, 0
11, 38940, Note_on_c, 9, 42, 81
11, 38940, Note_on_c, 9, 36, 99
11, 38970, Note_on_c, 9, 36, 0
11, 38970, Note_on_c, 9, 42, 0
11, 39000, Note_on_c, 9, 38, 104
11, 39000, Note_on_c, 9, 42, 96
11, 39030, Note_on_c, 9, 42, 0
11, 39060, Note_on_c, 9, 38, 0
11, 39060, Note_on_c, 9, 42, 68
11, 39090, Note_on_c, 9, 42, 0
11, 39120, Note_on_c, 9, 36, 104
11, 39120, Note_on_c, 9, 42, 92
11, 39150, Note_on_c, 9, 42, 0
11, 39180, Note_on_c, 9, 36, 0
11, 39180, Note_on_c, 9, 42, 62
11, 39210, Note_on_c, 9, 42, 0
11, 39240, Note_on_c, 9, 38, 110
11, 39240, Note_on_c, 9, 42, 89
11, 39270, Note_on_c, 9, 42, 0
11, 39270, Note_on_c, 9, 38, 0
11, 39300, Note_on_c, 9, 42, 69
11, 39300, Note_on_c, 9, 36, 88
11, 39330, Note_on_c, 9, 36, 0
11, 39330, Note_on_c, 9, 42, 0
11, 39360, Note_on_c, 9, 42, 89
11, 39360, Note_on_c, 9, 36, 82
11, 39390, Note_on_c, 9, 36, 0
11, 39390, Note_on_c, 9, 42, 0
11, 39420, Note_on_c, 9, 42, 86
11, 39420, Note_on_c, 9, 36, 99
11, 39450, Note_on_c, 9, 36, 0
11, 39450, Note_on_c, 9, 42, 0
11, 39480, Note_on_c, 9, 42, 100
11, 39480, Note_on_c, 9, 38, 113
11, 39510, Note_on_c, 9, 42, 0
11, 39540, Note_on_c, 9, 38, 0
11, 39540, Note_on_c, 9, 42, 69
11, 39570, Note_on_c, 9, 42, 0
11, 39600, Note_on_c, 9, 42, 100
11, 39600, Note_on_c, 9, 36, 107
11, 39630, Note_on_c, 9, 42, 0
11, 39660, Note_on_c, 9, 36, 0
11, 39660, Note_on_c, 9, 42, 77
11, 39690, Note_on_c, 9, 42, 0
11, 39720, Note_on_c, 9, 38, 117
11, 39720, Note_on_c, 9, 42, 96
11, 39750, Note_on_c, 9, 42, 0
11, 39750, Note_on_c, 9, 38, 0
11, 39780, Note_on_c, 9, 36, 82
11, 39780, Note_on_c, 9, 42, 81
11, 39810, Note_on_c, 9, 42, 0
11, 39810, Note_on_c, 9, 36, 0
11, 39840, Note_on_c, 9, 42, 89
11, 39840, Note_on_c, 9, 36, 83
11, 39870, Note_on_c, 9, 36, 0
11, 39870, Note_on_c, 9, 42, 0
11, 39900, Note_on_c, 9, 36, 99
11, 39900, Note_on_c, 9, 42, 84
11, 39930, Note_on_c, 9, 42, 0
11, 39930, Note_on_c, 9, 36, 0
11, 39960, Note_on_c, 9, 42, 96
11, 39960, Note_on_c, 9, 38, 110
11, 39990, Note_on_c, 9, 42, 0
11, 40020, Note_on_c, 9, 38, 0
11, 40020, Note_on_c, 9, 42, 60
11, 40050, Note_on_c, 9, 42, 0
11, 40080, Note_on_c, 9, 36, 97
11, 40080, Note_on_c, 9, 42, 86
11, 40110, Note_on_c, 9, 42, 0
11, 40140, Note_on_c, 9, 36, 0
11, 40140, Note_on_c, 9, 42, 56
11, 40170, Note_on_c, 9, 42, 0
11, 40200, Note_on_c, 9, 38, 110
11, 40200, Note_on_c, 9, 42, 73
11, 40230, Note_on_c, 9, 42, 0
11, 40230, Note_on_c, 9, 38, 0
11, 40260, Note_on_c, 9, 46, 54
11, 40260, Note_on_c, 9, 36, 85
11, 40290, Note_on_c, 9, 36, 0
11, 40290, Note_on_c, 9, 46, 0
11, 40320, Note_on_c, 9, 42, 66
11, 40320, Note_on_c, 9, 36, 86
11, 40350, Note_on_c, 9, 36, 0
11, 40350, Note_on_c, 9, 42, 0
11, 40380, Note_on_c, 9, 42, 62
11, 40380, Note_on_c, 9, 36, 80
11, 40410, Note_on_c, 9, 36, 0
11, 40410, Note_on_c, 9, 42, 0
11, 40440, Note_on_c, 9, 38, 110
11, 40440, Note_on_c, 9, 42, 92
11, 40470, Note_on_c, 9, 42, 0
11, 40500, Note_on_c, 9, 38, 0
11, 40500, Note_on_c, 9, 42, 66
11, 40530, Note_on_c, 9, 42, 0
11, 40560, Note_on_c, 9, 42, 92
11, 40560, Note_on_c, 9, 36, 99
11, 40590, Note_on_c, 9, 42, 0
11, 40620, Note_on_c, 9, 36, 0
11, 40620, Note_on_c, 9, 42, 66
11, 40650, Note_on_c, 9, 42, 0
11, 40680, Note_on_c, 9, 42, 100
11, 40680, Note_on_c, 9, 38, 113
11, 40710, Note_on_c, 9, 38, 0
11, 40710, Note_on_c, 9, 42, 0
11, 40740, Note_on_c, 9, 42, 66
11, 40740, Note_on_c, 9, 36, 82
11, 40770, Note_on_c, 9, 36, 0
11, 40770, Note_on_c, 9, 42, 0
11, 40800, Note_on_c, 9, 42, 86
11, 40800, Note_on_c, 9, 36, 88
11, 40830, Note_on_c, 9, 36, 0
11, 40830, Note_on_c, 9, 42, 0
11, 40860, Note_on_c, 9, 42, 86
11, 40860, Note_on_c, 9, 36, 94
11, 40890, Note_on_c, 9, 36, 0
11, 40890, Note_on_c, 9, 42, 0
11, 40920, Note_on_c, 9, 42, 96
11, 40920, Note_on_c, 9, 38, 104
11, 40950, Note_on_c, 9, 42, 0
11, 40980, Note_on_c, 9, 38, 0
11, 40980, Note_on_c, 9, 42, 63
11, 41010, Note_on_c, 9, 42, 0
11, 41040, Note_on_c, 9, 42, 96
11, 41040, Note_on_c, 9, 36, 101
11, 41070, Note_on_c, 9, 42, 0
11, 41100, Note_on_c, 9, 36, 0
11, 41100, Note_on_c, 9, 42, 62
11, 41130, Note_on_c, 9, 42, 0
11, 41160, Note_on_c, 9, 38, 99
11, 41160, Note_on_c, 9, 42, 92
11, 41190, Note_on_c, 9, 42, 0
11, 41190, Note_on_c, 9, 38, 0
11, 41220, Note_on_c, 9, 36, 73
11, 41220, Note_on_c, 9, 42, 73
11, 41250, Note_on_c, 9, 42, 0
11, 41250, Note_on_c, 9, 36, 0
11, 41280, Note_on_c, 9, 42, 89
11, 41280, Note_on_c, 9, 36, 86
11, 41310, Note_on_c, 9, 36, 0
11, 41310, Note_on_c, 9, 42, 0
11, 41340, Note_on_c, 9, 36, 90
11, 41340, Note_on_c, 9, 42, 84
11, 41370, Note_on_c, 9, 42, 0
11, 41370, Note_on_c, 9, 36, 0
11, 41400, Note_on_c, 9, 38, 113
11, 41400, Note_on_c, 9, 42, 89
11, 41430, Note_on_c, 9, 42, 0
11, 41460, Note_on_c, 9, 38, 0
11, 41460, Note_on_c, 9, 42, 81
11, 41490, Note_on_c, 9, 42, 0
11, 41520, Note_on_c, 9, 36, 101
11, 41520, Note_on_c, 9, 42, 92
11, 41550, Note_on_c, 9, 42, 0
11, 41580, Note_on_c, 9, 36, 0
11, 41580, Note_on_c, 9, 42, 73
11, 41610, Note_on_c, 9, 42, 0
11, 41640, Note_on_c, 9, 42, 86
11, 41640, Note_on_c, 9, 38, 104
11, 41670, Note_on_c, 9, 38, 0
11, 41670, Note_on_c, 9, 42, 0
11, 41700, Note_on_c, 9, 36, 80
11, 41700, Note_on_c, 9, 46, 51
11, 41730, Note_on_c, 9, 46, 0
11, 41730, Note_on_c, 9, 36, 0
11, 41760, Note_on_c, 9, 42, 86
11, 41760, Note_on_c, 9, 36, 90
11, 41790, Note_on_c, 9, 36, 0
11, 41790, Note_on_c, 9, 42, 0
11, 41820, Note_on_c, 9, 36, 65
11, 41820, Note_on_c, 9, 42, 75
11, 41850, Note_on_c, 9, 42, 0
11, 41850, Note_on_c, 9, 36, 0
11, 41880, Note_on_c, 9, 42, 89
11, 41880, Note_on_c, 9, 38, 104
11, 41910, Note_on_c, 9, 42, 0
11, 41940, Note_on_c, 9, 38, 0
11, 41940, Note_on_c, 9, 42, 59
11, 41970, Note_on_c, 9, 42, 0
11, 42000, Note_on_c, 9, 36, 104
11, 42000, Note_on_c, 9, 42, 100
11, 42030, Note_on_c, 9, 42, 0
11, 42060, Note_on_c, 9, 36, 0
11, 42060, Note_on_c, 9, 42, 53
11, 42090, Note_on_c, 9, 42, 0
11, 42120, Note_on_c, 9, 42, 100
11, 42120, Note_on_c, 9, 38, 110
11, 42150, Note_on_c, 9, 38, 0
11, 42150, Note_on_c, 9, 42, 0
11, 42180, Note_on_c, 9, 42, 73
11, 42180, Note_on_c, 9, 36, 71
11, 42210, Note_on_c, 9, 36, 0
11, 42210, Note_on_c, 9, 42, 0
11, 42240, Note_on_c, 9, 42, 89
11, 42240, Note_on_c, 9, 36, 82
11, 42270, Note_on_c, 9, 36, 0
11, 42270, Note_on_c, 9, 42, 0
11, 42300, Note_on_c, 9, 42, 86
11, 42300, Note_on_c, 9, 36, 99
11, 42330, Note_on_c, 9, 36, 0
11, 42330, Note_on_c, 9, 42, 0
11, 42360, Note_on_c, 9, 42, 100
11, 42360, Note_on_c, 9, 38, 113
11, 42390, Note_on_c, 9, 42, 0
11, 42420, Note_on_c, 9, 38, 0
11, 42420, Note_on_c, 9, 42, 69
11, 42450, Note_on_c, 9, 42, 0
11, 42480, Note_on_c, 9, 42, 100
11, 42480, Note_on_c, 9, 36, 107
11, 42510, Note_on_c, 9, 42, 0
11, 42540, Note_on_c, 9, 36, 0
11, 42540, Note_on_c, 9, 42, 77
11, 42570, Note_on_c, 9, 42, 0
11, 42600, Note_on_c, 9, 38, 117
11, 42600, Note_on_c, 9, 42, 96
11, 42630, Note_on_c, 9, 42, 0
11, 42630, Note_on_c, 9, 38, 0
11, 42660, Note_on_c, 9, 36, 82
11, 42660, Note_on_c, 9, 42, 81
11, 42690, Note_on_c, 9, 42, 0
11, 42690, Note_on_c, 9, 36, 0
11, 42720, Note_on_c, 9, 42, 89
11, 42720, Note_on_c, 9, 36, 83
11, 42750, Note_on_c, 9, 36, 0
11, 42750, Note_on_c, 9, 42, 0
11, 42780, Note_on_c, 9, 36, 99
11, 42780, Note_on_c, 9, 42, 84
11, 42810, Note_on_c, 9, 42, 0
11, 42810, Note_on_c, 9, 36, 0
11, 42840, Note_on_c, 9, 42, 96
11, 42840, Note_on_c, 9, 38, 110
11, 42870, Note_on_c, 9, 42, 0
11, 42900, Note_on_c, 9, 38, 0
11, 42900, Note_on_c, 9, 42, 60
11, 42930, Note_on_c, 9, 42, 0
11, 42960, Note_on_c, 9, 36, 97
11, 42960, Note_on_c, 9, 42, 86
11, 42990, Note_on_c, 9, 42, 0
11, 43020, Note_on_c, 9, 36, 0
11, 43020, Note_on_c, 9, 42, 56
11, 43050, Note_on_c, 9, 42, 0
11, 43080, Note_on_c, 9, 38, 110
11, 43080, Note_on_c, 9, 42, 73
11, 43110, Note_on_c, 9, 42, 0
11, 43110, Note_on_c, 9, 38, 0
11, 43140, Note_on_c, 9, 46, 54
11, 43140, Note_on_c, 9, 36, 85
11, 43170, Note_on_c, 9, 36, 0
11, 43170, Note_on_c, 9, 46, 0
11, 43200, Note_on_c, 9, 42, 66
11, 43200, Note_on_c, 9, 36, 86
11, 43230, Note_on_c, 9, 36, 0
11, 43230, Note_on_c, 9, 42, 0
11, 43260, Note_on_c, 9, 42, 62
11, 43260, Note_on_c, 9, 36, 80
11, 43290, Note_on_c, 9, 36, 0
11, 43290, Note_on_c, 9, 42, 0
11, 43320, Note_on_c, 9, 38, 110
11, 43320, Note_on_c, 9, 42, 92
11, 43350, Note_on_c, 9, 42, 0
11, 43380, Note_on_c, 9, 38, 0
11, 43380, Note_on_c, 9, 42, 66
11, 43410, Note_on_c, 9, 42, 0
11, 43440, Note_on_c, 9, 42, 92
11, 43440, Note_on_c, 9, 36, 99
11, 43470, Note_on_c, 9, 42, 0
11, 43500, Note_on_c, 9, 36, 0
11, 43500, Note_on_c, 9, 42, 66
11, 43530, Note_on_c, 9, 42, 0
11, 43560, Note_on_c, 9, 42, 100
11, 43560, Note_on_c, 9, 38, 113
11, 43590, Note_on_c, 9, 38, 0
11, 43590, Note_on_c, 9, 42, 0
11, 43620, Note_on_c, 9, 42, 66
11, 43620, Note_on_c, 9, 36, 82
11, 43650, Note_on_c, 9, 36, 0
11, 43650, Note_on_c, 9, 42, 0
11, 43680, Note_on_c, 9, 42, 86
11, 43680, Note_on_c, 9, 36, 88
11, 43710, Note_on_c, 9, 36, 0
11, 43710, Note_on_c, 9, 42, 0
11, 43740, Note_on_c, 9, 42, 86
11, 43740, Note_on_c, 9, 36, 94
11, 43770, Note_on_c, 9, 36, 0
11, 43770, Note_on_c, 9, 42, 0
11, 43800, Note_on_c, 9, 42, 96
11, 43800, Note_on_c, 9, 38, 104
11, 43830, Note_on_c, 9, 42, 0
11, 43860, Note_on_c, 9, 38, 0
11, 43860, Note_on_c, 9, 42, 63
11, 43890, Note_on_c, 9, 42, 0
11, 43920, Note_on_c, 9, 42, 96
11, 43920, Note_on_c, 9, 36, 101
11, 43950, Note_on_c, 9, 42, 0
11, 43980, Note_on_c, 9, 36, 0
11, 43980, Note_on_c, 9, 42, 62
11, 44010, Note_on_c, 9, 42, 0
11, 44040, Note_on_c, 9, 38, 99
11, 44040, Note_on_c, 9, 42, 92
11, 44070, Note_on_c, 9, 42, 0
11, 44070, Note_on_c, 9, 38, 0
11, 44100, Note_on_c, 9, 36, 73
11, 44100, Note_on_c, 9, 42, 73
11, 44130, Note_on_c, 9, 42, 0
11, 44130, Note_on_c, 9, 36, 0
11, 44160, Note_on_c, 9, 42, 89
11, 44160, Note_on_c, 9, 36, 86
11, 44190, Note_on_c, 9, 36, 0
11, 44190, Note_on_c, 9, 42, 0
11, 44220, Note_on_c, 9, 36, 90
11, 44220, Note_on_c, 9, 42, 84
11, 44250, Note_on_c, 9, 42, 0
11, 44250, Note_on_c, 9, 36, 0
11, 44280, Note_on_c, 9, 38, 113
11, 44280, Note_on_c, 9, 42, 89
11, 44310, Note_on_c, 9, 42, 0
11, 44340, Note_on_c, 9, 38, 0
11, 44340, Note_on_c, 9, 42, 81
11, 44370, Note_on_c, 9, 42, 0
11, 44400, Note_on_c, 9, 36, 101
11, 44400, Note_on_c, 9, 42, 92
11, 44430, Note_on_c, 9, 42, 0
11, 44460, Note_on_c, 9, 36, 0
11, 44460, Note_on_c, 9, 42, 73
11, 44490, Note_on_c, 9, 42, 0
11, 44520, Note_on_c, 9, 42, 86
11, 44520, Note_on_c, 9, 38, 104
11, 44550, Note_on_c, 9, 38, 0
11, 44550, Note_on_c, 9, 42, 0
11, 44580, Note_on_c, 9, 36, 80
11, 44580, Note_on_c, 9, 46, 51
11, 44610, Note_on_c, 9, 46, 0
11, 44610, Note_on_c, 9, 36, 0
11, 44640, Note_on_c, 9, 42, 86
11, 44640, Note_on_c, 9, 36, 90
11, 44670, Note_on_c, 9, 36, 0
11, 44670, Note_on_c, 9, 42, 0
11, 44700, Note_on_c, 9, 36, 65
11, 44700, Note_on_c, 9, 42, 75
11, 44730, Note_on_c, 9, 42, 0
11, 44730, Note_on_c, 9, 36, 0
11, 44760, Note_on_c, 9, 42, 89
11, 44760, Note_on_c, 9, 38, 104
11, 44790, Note_on_c, 9, 42, 0
11, 44820, Note_on_c, 9, 38, 0
11, 44820, Note_on_c, 9, 42, 59
11, 44850, Note_on_c, 9, 42, 0
11, 44880, Note_on_c, 9, 36, 104
11, 44880, Note_on_c, 9, 42, 100
11, 44910, Note_on_c, 9, 42, 0
11, 44940, Note_on_c, 9, 36, 0
11, 44940, Note_on_c, 9, 42, 53
11, 44970, Note_on_c, 9, 42, 0
11, 45000, Note_on_c, 9, 42, 100
11, 45000, Note_on_c, 9, 38, 110
11, 45030, Note_on_c, 9, 38, 0
11, 45030, Note_on_c, 9, 42, 0
11, 45060, Note_on_c, 9, 42, 73
11, 45060, Note_on_c, 9, 36, 71
11, 45090, Note_on_c, 9, 36, 0
11, 45090, Note_on_c, 9, 42, 0
11, 45120, Note_on_c, 9, 42, 96
11, 45120, Note_on_c, 9, 36, 79
11, 45150, Note_on_c, 9, 36, 0
11, 45150, Note_on_c, 9, 42, 0
11, 45180, Note_on_c, 9, 42, 84
11, 45180, Note_on_c, 9, 36, 94
11, 45210, Note_on_c, 9, 36, 0
11, 45210, Note_on_c, 9, 42, 0
11, 45240, Note_on_c, 9, 38, 104
11, 45240, Note_on_c, 9, 42, 89
11, 45270, Note_on_c, 9, 42, 0
11, 45300, Note_on_c, 9, 38, 0
11, 45300, Note_on_c, 9, 42, 75
11, 45330, Note_on_c, 9, 42, 0
11, 45360, Note_on_c, 9, 36, 99
11, 45360, Note_on_c, 9, 42, 92
11, 45390, Note_on_c, 9, 42, 0
11, 45420, Note_on_c, 9, 36, 0
11, 45420, Note_on_c, 9, 42, 54
11, 45450, Note_on_c, 9, 42, 0
11, 45480, Note_on_c, 9, 38, 101
11, 45480, Note_on_c, 9, 42, 96
11, 45510, Note_on_c, 9, 42, 0
11, 45510, Note_on_c, 9, 38, 0
11, 45540, Note_on_c, 9, 42, 69
11, 45540, Note_on_c, 9, 36, 82
11, 45570, Note_on_c, 9, 36, 0
11, 45570, Note_on_c, 9, 42, 0
11, 45600, Note_on_c, 9, 42, 92
11, 45600, Note_on_c, 9, 36, 82
11, 45630, Note_on_c, 9, 36, 0
11, 45630, Note_on_c, 9, 42, 0
11, 45660, Note_on_c, 9, 42, 81
11, 45660, Note_on_c, 9, 36, 99
11, 45690, Note_on_c, 9, 36, 0
11, 45690, Note_on_c, 9, 42, 0
11, 45720, Note_on_c, 9, 38, 104
11, 45720, Note_on_c, 9, 42, 96
11, 45750, Note_on_c, 9, 42, 0
11, 45780, Note_on_c, 9, 38, 0
11, 45780, Note_on_c, 9, 42, 68
11, 45810, Note_on_c, 9, 42, 0
11, 45840, Note_on_c, 9, 36, 104
11, 45840, Note_on_c, 9, 42, 92
11, 45870, Note_on_c, 9, 42, 0
11, 45900, Note_on_c, 9, 36, 0
11, 45900, Note_on_c, 9, 42, 62
11, 45930, Note_on_c, 9, 42, 0
11, 45960, Note_on_c, 9, 38, 110
11, 45960, Note_on_c, 9, 42, 89
11, 45990, Note_on_c, 9, 42, 0
11, 45990, Note_on_c, 9, 38, 0
11, 46020, Note_on_c, 9, 42, 69
11, 46020, Note_on_c, 9, 36, 88
11, 46050, Note_on_c, 9, 36, 0
11, 46050, Note_on_c, 9, 42, 0
11, 46080, Note_on_c, 9, 42, 89
11, 46080, Note_on_c, 9, 36, 82
11, 46110, Note_on_c, 9, 36, 0
11, 46110, Note_on_c, 9, 42, 0
11, 46140, Note_on_c, 9, 42, 86
11, 46140, Note_on_c, 9, 36, 99
11, 46170, Note_on_c, 9, 36, 0
11, 46170, Note_on_c, 9, 42, 0
11, 46200, Note_on_c, 9, 42, 100
11, 46200, Note_on_c, 9, 38, 113
11, 46230, Note_on_c, 9, 42, 0
11, 46260, Note_on_c, 9, 38, 0
11, 46260, Note_on_c, 9, 42, 69
11, 46290, Note_on_c, 9, 42, 0
11, 46320, Note_on_c, 9, 42, 100
11, 46320, Note_on_c, 9, 36, 107
11, 46350, Note_on_c, 9, 42, 0
11, 46380, Note_on_c, 9, 36, 0
11, 46380, Note_on_c, 9, 42, 77
11, 46410, Note_on_c, 9, 42, 0
11, 46440, Note_on_c, 9, 38, 117
11, 46440, Note_on_c, 9, 42, 96
11, 46470, Note_on_c, 9, 42, 0
11, 46470, Note_on_c, 9, 38, 0
11, 46500, Note_on_c, 9, 36, 82
11, 46500, Note_on_c, 9, 42, 81
11, 46530, Note_on_c, 9, 42, 0
11, 46530, Note_on_c, 9, 36, 0
11, 46560, Note_on_c, 9, 42, 89
11, 46560, Note_on_c, 9, 36, 83
11, 46590, Note_on_c, 9, 36, 0
11, 46590, Note_on_c, 9, 42, 0
11, 46620, Note_on_c, 9, 36, 99
11, 46620, Note_on_c, 9, 42, 84
11, 46650, Note_on_c, 9, 42, 0
11, 46650, Note_on_c, 9, 36, 0
11, 46680, Note_on_c, 9, 42, 96
11, 46680, Note_on_c, 9, 38, 110
11, 46710, Note_on_c, 9, 42, 0
11, 46740, Note_on_c, 9, 38, 0
11, 46740, Note_on_c, 9, 42, 60
11, 46770, Note_on_c, 9, 42, 0
11, 46800, Note_on_c, 9, 36, 97
11, 46800, Note_on_c, 9, 42, 86
11, 46830, Note_on_c, 9, 42, 0
11, 46860, Note_on_c, 9, 36, 0
11, 46860, Note_on_c, 9, 42, 56
11, 46890, Note_on_c, 9, 42, 0
11, 46920, Note_on_c, 9, 38, 110
11, 46920, Note_on_c, 9, 42, 73
11, 46950, Note_on_c, 9, 42, 0
11, 46950, Note_on_c, 9, 38, 0
11, 46980, Note_on_c, 9, 46, 54
11, 46980, Note_on_c, 9, 36, 85
11, 47010, Note_on_c, 9, 36, 0
11, 47010, Note_on_c, 9, 46, 0
11, 47040, Note_on_c, 9, 42, 66
11, 47040, Note_on_c, 9, 36, 86
11, 47070, Note_on_c, 9, 36, 0
11, 47070, Note_on_c, 9, 42, 0
11, 47100, Note_on_c, 9, 42, 62
11, 47100, Note_on_c, 9, 36, 80
11, 47130, Note_on_c, 9, 36, 0
11, 47130, Note_on_c, 9, 42, 0
11, 47160, Note_on_c, 9, 38, 110
11, 47160, Note_on_c, 9, 42, 92
11, 47190, Note_on_c, 9, 42, 0
11, 47220, Note_on_c, 9, 38, 0
11, 47220, Note_on_c, 9, 42, 66
11, 47250, Note_on_c, 9, 42, 0
11, 47280, Note_on_c, 9, 42, 92
11, 47280, Note_on_c, 9, 36, 99
11, 47310, Note_on_c, 9, 42, 0
11, 47340, Note_on_c, 9, 36, 0
11, 47340, Note_on_c, 9, 42, 66
11, 47370, Note_on_c, 9, 42, 0
11, 47400, Note_on_c, 9, 42, 100
11, 47400, Note_on_c, 9, 38, 113
11, 47430, Note_on_c, 9, 38, 0
11, 47430, Note_on_c, 9, 42, 0
11, 47460, Note_on_c, 9, 42, 66
11, 47460, Note_on_c, 9, 36, 82
11, 47490, Note_on_c, 9, 36, 0
11, 47490, Note_on_c, 9, 42, 0
11, 47520, Note_on_c, 9, 42, 86
11, 47520, Note_on_c, 9, 36, 88
11, 47550, Note_on_c, 9, 36, 0
11, 47550, Note_on_c, 9, 42, 0
11, 47580, Note_on_c, 9, 42, 86
11, 47580, Note_on_c, 9, 36, 94
11, 47610, Note_on_c, 9, 36, 0
11, 47610, Note_on_c, 9, 42, 0
11, 47640, Note_on_c, 9, 42, 96
11, 47640, Note_on_c, 9, 38, 104
11, 47670, Note_on_c, 9, 42, 0
11, 47700, Note_on_c, 9, 38, 0
11, 47700, Note_on_c, 9, 42, 63
11, 47730, Note_on_c, 9, 42, 0
11, 47760, Note_on_c, 9, 42, 96
11, 47760, Note_on_c, 9, 36, 101
11, 47790, Note_on_c, 9, 42, 0
11, 47820, Note_on_c, 9, 36, 0
11, 47820, Note_on_c, 9, 42, 62
11, 47850, Note_on_c, 9, 42, 0
11, 47880, Note_on_c, 9, 38, 99
11, 47880, Note_on_c, 9, 42, 92
11, 47910, Note_on_c, 9, 42, 0
11, 47910, Note_on_c, 9, 38, 0
11, 47940, Note_on_c, 9, 36, 73
11, 47940, Note_on_c, 9, 42, 73
11, 47970, Note_on_c, 9, 42, 0
11, 47970, Note_on_c, 9, 36, 0
11, 48000, Note_on_c, 9, 42, 89
11, 48000, Note_on_c, 9, 36, 86
11, 48030, Note_on_c, 9, 36, 0
11, 48030, Note_on_c, 9, 42, 0
11, 48060, Note_on_c, 9, 36, 90
11, 48060, Note_on_c, 9, 42, 84
11, 48090, Note_on_c, 9, 42, 0
11, 48090, Note_on_c, 9, 36, 0
11, 48120, Note_on_c, 9, 38, 113
11, 48120, Note_on_c, 9, 42, 89
11, 48150, Note_on_c, 9, 42, 0
11, 48180, Note_on_c, 9, 38, 0
11, 48180, Note_on_c, 9, 42, 81
11, 48210, Note_on_c, 9, 42, 0
11, 48240, Note_on_c, 9, 36, 101
11, 48240, Note_on_c, 9, 42, 92
11, 48270, Note_on_c, 9, 42, 0
11, 48300, Note_on_c, 9, 36, 0
11, 48300, Note_on_c, 9, 42, 73
11, 48330, Note_on_c, 9, 42, 0
11, 48360, Note_on_c, 9, 42, 86
11, 48360, Note_on_c, 9, 38, 104
11, 48390, Note_on_c, 9, 38, 0
11, 48390, Note_on_c, 9, 42, 0
11, 48420, Note_on_c, 9, 36, 80
11, 48420, Note_on_c, 9, 46, 51
11, 48450, Note_on_c, 9, 46, 0
11, 48450, Note_on_c, 9, 36, 0
11, 48480, Note_on_c, 9, 42, 86
11, 48480, Note_on_c, 9, 36, 90
11, 48510, Note_on_c, 9, 36, 0
11, 48510, Note_on_c, 9, 42, 0
11, 48540, Note_on_c, 9, 36, 65
11, 48540, Note_on_c, 9, 42, 75
11, 48570, Note_on_c, 9, 42, 0
11, 48570, Note_on_c, 9, 36, 0
11, 48600, Note_on_c, 9, 42, 89
11, 48600, Note_on_c, 9, 38, 104
11, 48630, Note_on_c, 9, 42, 0
11, 48660, Note_on_c, 9, 38, 0
11, 48660, Note_on_c, 9, 42, 59
11, 48690, Note_on_c, 9, 42, 0
11, 48720, Note_on_c, 9, 36, 104
11, 48720, Note_on_c, 9, 42, 100
11, 48750, Note_on_c, 9, 42, 0
11, 48780, Note_on_c, 9, 36, 0
11, 48780, Note_on_c, 9, 42, 53
11, 48810, Note_on_c, 9, 42, 0
11, 48840, Note_on_c, 9, 42, 100
11, 48840, Note_on_c, 9, 38, 110
11, 48870, Note_on_c, 9, 38, 0
11, 48870, Note_on_c, 9, 42, 0
11, 48900, Note_on_c, 9, 42, 73
11, 48900, Note_on_c, 9, 36, 71
11, 48930, Note_on_c, 9, 36, 0
11, 48930, Note_on_c, 9, 42, 0
11, 48960, Note_on_c, 9, 42, 96
11, 48960, Note_on_c, 9, 36, 79
11, 48990, Note_on_c, 9, 36, 0
11, 48990, Note_on_c, 9, 42, 0
11, 49020, Note_on_c, 9, 42, 84
11, 49020, Note_on_c, 9, 36, 94
11, 49050, Note_on_c, 9, 36, 0
11, 49050, Note_on_c, 9, 42, 0
11, 49080, Note_on_c, 9, 38, 104
11, 49080, Note_on_c, 9, 42, 89
11, 49110, Note_on_c, 9, 42, 0
11, 49140, Note_on_c, 9, 38, 0
11, 49140, Note_on_c, 9, 42, 75
11, 49170, Note_on_c, 9, 42, 0
11, 49200, Note_on_c, 9, 36, 99
11, 49200, Note_on_c, 9, 42, 92
11, 49230, Note_on_c, 9, 42, 0
11, 49260, Note_on_c, 9, 36, 0
11, 49260, Note_on_c, 9, 42, 54
11, 49290, Note_on_c, 9, 42, 0
11, 49320, Note_on_c, 9, 38, 101
11, 49320, Note_on_c, 9, 42, 96
11, 49350, Note_on_c, 9, 42, 0
11, 49350, Note_on_c, 9, 38, 0
11, 49380, Note_on_c, 9, 42, 69
11, 49380, Note_on_c, 9, 36, 82
11, 49410, Note_on_c, 9, 36, 0
11, 49410, Note_on_c, 9, 42, 0
11, 49440, Note_on_c, 9, 42, 92
11, 49440, Note_on_c, 9, 36, 82
11, 49470, Note_on_c, 9, 36, 0
11, 49470, Note_on_c, 9, 42, 0
11, 49500, Note_on_c, 9, 42, 81
11, 49500, Note_on_c, 9, 36, 99
11, 49530, Note_on_c, 9, 36, 0
11, 49530, Note_on_c, 9, 42, 0
11, 49560, Note_on_c, 9, 38, 104
11, 49560, Note_on_c, 9, 42, 96
11, 49590, Note_on_c, 9, 42, 0
11, 49620, Note_on_c, 9, 38, 0
11, 49620, Note_on_c, 9, 42, 68
11, 49650, Note_on_c, 9, 42, 0
11, 49680, Note_on_c, 9, 36, 104
11, 49680, Note_on_c, 9, 42, 92
11, 49710, Note_on_c, 9, 42, 0
11, 49740, Note_on_c, 9, 36, 0
11, 49740, Note_on_c, 9, 42, 62
11, 49770, Note_on_c, 9, 42, 0
11, 49800, Note_on_c, 9, 38, 110
11, 49800, Note_on_c, 9, 42, 89
11, 49830, Note_on_c, 9, 42, 0
11, 49830, Note_on_c, 9, 38, 0
11, 49860, Note_on_c, 9, 42, 69
11, 49860, Note_on_c, 9, 36, 88
11, 49890, Note_on_c, 9, 36, 0
11, 49890, Note_on_c, 9, 42, 0
11, 49920, Note_on_c, 9, 42, 89
11, 49920, Note_on_c, 9, 36, 82
11, 49950, Note_on_c, 9, 36, 0
11, 49950, Note_on_c, 9, 42, 0
11, 49980, Note_on_c, 9, 42, 86
11, 49980, Note_on_c, 9, 36, 99
11, 50010, Note_on_c, 9, 36, 0
11, 50010, Note_on_c, 9, 42, 0
11, 50040, Note_on_c, 9, 42, 100
11, 50040, Note_on_c, 9, 38, 113
11, 50070, Note_on_c, 9, 42, 0
11, 50100, Note_on_c, 9, 38, 0
11, 50100, Note_on_c, 9, 42, 69
11, 50130, Note_on_c, 9, 42, 0
11, 50160, Note_on_c, 9, 42, 100
11, 50160, Note_on_c, 9, 36, 107
11, 50190, Note_on_c, 9, 42, 0
11, 50220, Note_on_c, 9, 36, 0
11, 50220, Note_on_c, 9, 42, 77
11, 50250, Note_on_c, 9, 42, 0
11, 50280, Note_on_c, 9, 38, 117
11, 50280, Note_on_c, 9, 42, 96
11, 50310, Note_on_c, 9, 42, 0
11, 50310, Note_on_c, 9, 38, 0
11, 50340, Note_on_c, 9, 36, 82
11, 50340, Note_on_c, 9, 42, 81
11, 50370, Note_on_c, 9, 42, 0
11, 50370, Note_on_c, 9, 36, 0
11, 50400, Note_on_c, 9, 42, 89
11, 50400, Note_on_c, 9, 36, 83
11, 50430, Note_on_c, 9, 36, 0
11, 50430, Note_on_c, 9, 42, 0
11, 50460, Note_on_c, 9, 36, 99
11, 50460, Note_on_c, 9, 42, 84
11, 50490, Note_on_c, 9, 42, 0
11, 50490, Note_on_c, 9, 36, 0
11, 50520, Note_on_c, 9, 42, 96
11, 50520, Note_on_c, 9, 38, 110
11, 50550, Note_on_c, 9, 42, 0
11, 50580, Note_on_c, 9, 38, 0
11, 50580, Note_on_c, 9, 42, 60
11, 50610, Note_on_c, 9, 42, 0
11, 50640, Note_on_c, 9, 36, 97
11, 50640, Note_on_c, 9, 42, 86
11, 50670, Note_on_c, 9, 42, 0
11, 50700, Note_on_c, 9, 36, 0
11, 50700, Note_on_c, 9, 42, 56
11, 50730, Note_on_c, 9, 42, 0
11, 50760, Note_on_c, 9, 38, 110
11, 50760, Note_on_c, 9, 42, 73
11, 50790, Note_on_c, 9, 42, 0
11, 50790, Note_on_c, 9, 38, 0
11, 50820, Note_on_c, 9, 46, 54
11, 50820, Note_on_c, 9, 36, 85
11, 50850, Note_on_c, 9, 36, 0
11, 50850, Note_on_c, 9, 46, 0
11, 50880, Note_on_c, 9, 42, 66
11, 50880, Note_on_c, 9, 36, 86
11, 50910, Note_on_c, 9, 36, 0
11, 50910, Note_on_c, 9, 42, 0
11, 50940, Note_on_c, 9, 42, 62
11, 50940, Note_on_c, 9, 36, 80
11, 50970, Note_on_c, 9, 36, 0
11, 50970, Note_on_c, 9, 42, 0
11, 51000, Note_on_c, 9, 38, 110
11, 51000, Note_on_c, 9, 42, 92
11, 51030, Note_on_c, 9, 42, 0
11, 51060, Note_on_c, 9, 38, 0
11, 51060, Note_on_c, 9, 42, 66
11, 51090, Note_on_c, 9, 42, 0
11, 51120, Note_on_c, 9, 42, 92
11, 51120, Note_on_c, 9, 36, 99
11, 51150, Note_on_c, 9, 42, 0
11, 51180, Note_on_c, 9, 36, 0
11, 51180, Note_on_c, 9, 42, 66
11, 51210, Note_on_c, 9, 42, 0
11, 51240, Note_on_c, 9, 42, 100
11, 51240, Note_on_c, 9, 38, 113
11, 51270, Note_on_c, 9, 38, 0
11, 51270, Note_on_c, 9, 42, 0
11, 51300, Note_on_c, 9, 42, 66
11, 51300, Note_on_c, 9, 36, 82
11, 51330, Note_on_c, 9, 36, 0
11, 51330, Note_on_c, 9, 42, 0
11, 51360, Note_on_c, 9, 42, 86
11, 51360, Note_on_c, 9, 36, 88
11, 51390, Note_on_c, 9, 36, 0
11, 51390, Note_on_c, 9, 42, 0
11, 51420, Note_on_c, 9, 42, 86
11, 51420, Note_on_c, 9, 36, 94
11, 51450, Note_on_c, 9, 36, 0
11, 51450, Note_on_c, 9, 42, 0
11, 51480, Note_on_c, 9, 42, 96
11, 51480, Note_on_c, 9, 38, 104
11, 51510, Note_on_c, 9, 42, 0
11, 51540, Note_on_c, 9, 38, 0
11, 51540, Note_on_c, 9, 42, 63
11, 51570, Note_on_c, 9, 42, 0
11, 51600, Note_on_c, 9, 42, 96
11, 51600, Note_on_c, 9, 36, 101
11, 51630, Note_on_c, 9, 42, 0
11, 51660, Note_on_c, 9, 36, 0
11, 51660, Note_on_c, 9, 42, 62
11, 51690, Note_on_c, 9, 42, 0
11, 51720, Note_on_c, 9, 38, 99
11, 51720, Note_on_c, 9, 42, 92
11, 51750, Note_on_c, 9, 42, 0
11, 51750, Note_on_c, 9, 38, 0
11, 51780, Note_on_c, 9, 36, 73
11, 51780, Note_on_c, 9, 42, 73
11, 51810, Note_on_c, 9, 42, 0
11, 51810, Note_on_c, 9, 36, 0
11, 51840, Note_on_c, 9, 42, 89
11, 51840, Note_on_c, 9, 36, 86
11, 51870, Note_on_c, 9, 36, 0
11, 51870, Note_on_c, 9, 42, 0
11, 51900, Note_on_c, 9, 36, 90
11, 51900, Note_on_c, 9, 42, 84
11, 51930, Note_on_c, 9, 42, 0
11, 51930, Note_on_c, 9, 36, 0
11, 51960, Note_on_c, 9, 38, 113
11, 51960, Note_on_c, 9, 42, 89
11, 51990, Note_on_c, 9, 42, 0
11, 52020, Note_on_c, 9, 38, 0
11, 52020, Note_on_c, 9, 42, 81
11, 52050, Note_on_c, 9, 42, 0
11, 52080, Note_on_c, 9, 36, 101
11, 52080, Note_on_c, 9, 42, 92
11, 52110, Note_on_c, 9, 42, 0
11, 52140, Note_on_c, 9, 36, 0
11, 52140, Note_on_c, 9, 42, 73
11, 52170, Note_on_c, 9, 42, 0
11, 52200, Note_on_c, 9, 42, 86
11, 52200, Note_on_c, 9, 38, 104
11, 52230, Note_on_c, 9, 38, 0
11, 52230, Note_on_c, 9, 42, 0
11, 52260, Note_on_c, 9, 36, 80
11, 52260, Note_on_c, 9, 46, 51
11, 52290, Note_on_c, 9, 46, 0
11, 52290, Note_on_c, 9, 36, 0
11, 52320, Note_on_c, 9, 42, 86
11, 52320, Note_on_c, 9, 36, 90
11, 52350, Note_on_c, 9, 36, 0
11, 52350, Note_on_c, 9, 42, 0
11, 52380, Note_on_c, 9, 36, 65
11, 52380, Note_on_c, 9, 42, 75
11, 52410, Note_on_c, 9, 42, 0
11, 52410, Note_on_c, 9, 36, 0
11, 52440, Note_on_c, 9, 42, 89
11, 52440, Note_on_c, 9, 38, 104
11, 52470, Note_on_c, 9, 42, 0
11, 52500, Note_on_c, 9, 38, 0
11, 52500, Note_on_c, 9, 42, 59
11, 52530, Note_on_c, 9, 42, 0
11, 52560, Note_on_c, 9, 36, 104
11, 52560, Note_on_c, 9, 42, 100
11, 52590, Note_on_c, 9, 42, 0
11, 52620, Note_on_c, 9, 36, 0
11, 52620, Note_on_c, 9, 42, 53
11, 52650, Note_on_c, 9, 42, 0
11, 52680, Note_on_c, 9, 42, 100
11, 52680, Note_on_c, 9, 38, 110
11, 52710, Note_on_c, 9, 38, 0
11, 52710, Note_on_c, 9, 42, 0
11, 52740, Note_on_c, 9, 42, 73
11, 52740, Note_on_c, 9, 36, 71
11, 52770, Note_on_c, 9, 36, 0
11, 52770, Note_on_c, 9, 42, 0
11, 52800, Note_on_c, 9, 42, 96
11, 52800, Note_on_c, 9, 36, 79
11, 52830, Note_on_c, 9, 36, 0
11, 52830, Note_on_c, 9, 42, 0
11, 52860, Note_on_c, 9, 42, 84
11, 52860, Note_on_c, 9, 36, 94
11, 52890, Note_on_c, 9, 36, 0
11, 52890, Note_on_c, 9, 42, 0
11, 52920, Note_on_c, 9, 38, 104
11, 52920, Note_on_c, 9, 42, 89
11, 52950, Note_on_c, 9, 42, 0
11, 52980, Note_on_c, 9, 38, 0
11, 52980, Note_on_c, 9, 42, 75
11, 53010, Note_on_c, 9, 42, 0
11, 53040, Note_on_c, 9, 36, 99
11, 53040, Note_on_c, 9, 42, 92
11, 53070, Note_on_c, 9, 42, 0
11, 53100, Note_on_c, 9, 36, 0
11, 53100, Note_on_c, 9, 42, 54
11, 53130, Note_on_c, 9, 42, 0
11, 53160, Note_on_c, 9, 38, 101
11, 53160, Note_on_c, 9, 42, 96
11, 53190, Note_on_c, 9, 42, 0
11, 53190, Note_on_c, 9, 38, 0
11, 53220, Note_on_c, 9, 42, 69
11, 53220, Note_on_c, 9, 36, 82
11, 53250, Note_on_c, 9, 36, 0
11, 53250, Note_on_c, 9, 42, 0
11, 53280, Note_on_c, 9, 42, 92
11, 53280, Note_on_c, 9, 36, 82
11, 53310, Note_on_c, 9, 36, 0
11, 53310, Note_on_c, 9, 42, 0
11, 53340, Note_on_c, 9, 42, 81
11, 53340, Note_on_c, 9, 36, 99
11, 53370, Note_on_c, 9, 36, 0
11, 53370, Note_on_c, 9, 42, 0
11, 53400, Note_on_c, 9, 38, 104
11, 53400, Note_on_c, 9, 42, 96
11, 53430, Note_on_c, 9, 42, 0
11, 53460, Note_on_c, 9, 38, 0
11, 53460, Note_on_c, 9, 42, 68
11, 53490, Note_on_c, 9, 42, 0
11, 53520, Note_on_c, 9, 36, 104
11, 53520, Note_on_c, 9, 42, 92
11, 53550, Note_on_c, 9, 42, 0
11, 53580, Note_on_c, 9, 36, 0
11, 53580, Note_on_c, 9, 42, 62
11, 53610, Note_on_c, 9, 42, 0
11, 53640, Note_on_c, 9, 38, 110
11, 53640, Note_on_c, 9, 42, 89
11, 53670, Note_on_c, 9, 42, 0
11, 53670, Note_on_c, 9, 38, 0
11, 53700, Note_on_c, 9, 42, 69
11, 53700, Note_on_c, 9, 36, 88
11, 53730, Note_on_c, 9, 36, 0
11, 53730, Note_on_c, 9, 42, 0
11, 53760, Note_on_c, 9, 42, 89
11, 53760, Note_on_c, 9, 36, 82
11, 53790, Note_on_c, 9, 36, 0
11, 53790, Note_on_c, 9, 42, 0
11, 53820, Note_on_c, 9, 42, 86
11, 53820, Note_on_c, 9, 36, 99
11, 53850, Note_on_c, 9, 36, 0
11, 53850, Note_on_c, 9, 42, 0
11, 53880, Note_on_c, 9, 42, 100
11, 53880, Note_on_c, 9, 38, 113
11, 53910, Note_on_c, 9, 42, 0
11, 53940, Note_on_c, 9, 38, 0
11, 53940, Note_on_c, 9, 42, 69
11, 53970, Note_on_c, 9, 42, 0
11, 54000, Note_on_c, 9, 42, 100
11, 54000, Note_on_c, 9, 36, 107
11, 54030, Note_on_c, 9, 42, 0
11, 54060, Note_on_c, 9, 36, 0
11, 54060, Note_on_c, 9, 42, 77
11, 54090, Note_on_c, 9, 42, 0
11, 54120, Note_on_c, 9, 38, 117
11, 54120, Note_on_c, 9, 42, 96
11, 54150, Note_on_c, 9, 42, 0
11, 54150, Note_on_c, 9, 38, 0
11, 54180, Note_on_c, 9, 36, 82
11, 54180, Note_on_c, 9, 42, 81
11, 54210, Note_on_c, 9, 42, 0
11, 54210, Note_on_c, 9, 36, 0
11, 54240, Note_on_c, 9, 42, 89
11, 54240, Note_on_c, 9, 36, 83
11, 54270, Note_on_c, 9, 36, 0
11, 54270, Note_on_c, 9, 42, 0
11, 54300, Note_on_c, 9, 36, 99
11, 54300, Note_on_c, 9, 42, 84
11, 54330, Note_on_c, 9, 42, 0
11, 54330, Note_on_c, 9, 36, 0
11, 54360, Note_on_c, 9, 42, 96
11, 54360, Note_on_c, 9, 38, 110
11, 54390, Note_on_c, 9, 42, 0
11, 54420, Note_on_c, 9, 38, 0
11, 54420, Note_on_c, 9, 42, 60
11, 54450, Note_on_c, 9, 42, 0
11, 54480, Note_on_c, 9, 36, 97
11, 54480, Note_on_c, 9, 42, 86
11, 54510, Note_on_c, 9, 42, 0
11, 54540, Note_on_c, 9, 36, 0
11, 54540, Note_on_c, 9, 42, 56
11, 54570, Note_on_c, 9, 42, 0
11, 54600, Note_on_c, 9, 38, 110
11, 54600, Note_on_c, 9, 42, 73
11, 54630, Note_on_c, 9, 42, 0
11, 54630, Note_on_c, 9, 38, 0
11, 54660, Note_on_c, 9, 46, 54
11, 54660, Note_on_c, 9, 36, 85
11, 54690, Note_on_c, 9, 36, 0
11, 54690, Note_on_c, 9, 46, 0
11, 54720, Note_on_c, 9, 42, 66
11, 54720, Note_on_c, 9, 36, 86
11, 54750, Note_on_c, 9, 36, 0
11, 54750, Note_on_c, 9, 42, 0
11, 54780, Note_on_c, 9, 42, 62
11, 54780, Note_on_c, 9, 36, 80
11, 54810, Note_on_c, 9, 36, 0
11, 54810, Note_on_c, 9, 42, 0
11, 54840, Note_on_c, 9, 38, 110
11, 54840, Note_on_c, 9, 42, 92
11, 54870, Note_on_c, 9, 42, 0
11, 54900, Note_on_c, 9, 38, 0
11, 54900, Note_on_c, 9, 42, 66
11, 54930, Note_on_c, 9, 42, 0
11, 54960, Note_on_c, 9, 42, 92
11, 54960, Note_on_c, 9, 36, 99
11, 54990, Note_on_c, 9, 42, 0
11, 55020, Note_on_c, 9, 36, 0
11, 55020, Note_on_c, 9, 42, 66
11, 55050, Note_on_c, 9, 42, 0
11, 55080, Note_on_c, 9, 42, 100
11, 55080, Note_on_c, 9, 38, 113
11, 55110, Note_on_c, 9, 38, 0
11, 55110, Note_on_c, 9, 42, 0
11, 55140, Note_on_c, 9, 42, 66
11, 55140, Note_on_c, 9, 36, 82
11, 55170, Note_on_c, 9, 36, 0
11, 55170, Note_on_c, 9, 42, 0
11, 55200, Note_on_c, 9, 42, 86
11, 55200, Note_on_c, 9, 36, 88
11, 55230, Note_on_c, 9, 36, 0
11, 55230, Note_on_c, 9, 42, 0
11, 55260, Note_on_c, 9, 42, 86
11, 55260, Note_on_c, 9, 36, 94
11, 55290, Note_on_c, 9, 36, 0
11, 55290, Note_on_c, 9, 42, 0
11, 55320, Note_on_c, 9, 42, 96
11, 55320, Note_on_c, 9, 38, 104
11, 55350, Note_on_c, 9, 42, 0
11, 55380, Note_on_c, 9, 38, 0
11, 55380, Note_on_c, 9, 42, 63
11, 55410, Note_on_c, 9, 42, 0
11, 55440, Note_on_c, 9, 42, 96
11, 55440, Note_on_c, 9, 36, 101
11, 55470, Note_on_c, 9, 42, 0
11, 55500, Note_on_c, 9, 36, 0
11, 55500, Note_on_c, 9, 42, 62
11, 55530, Note_on_c, 9, 42, 0
11, 55560, Note_on_c, 9, 38, 99
11, 55560, Note_on_c, 9, 42, 92
11, 55590, Note_on_c, 9, 42, 0
11, 55590, Note_on_c, 9, 38, 0
11, 55620, Note_on_c, 9, 36, 73
11, 55620, Note_on_c, 9, 42, 73
11, 55650, Note_on_c, 9, 42, 0
11, 55650, Note_on_c, 9, 36, 0
11, 55680, Note_on_c, 9, 42, 89
11, 55680, Note_on_c, 9, 36, 86
11, 55710, Note_on_c, 9, 36, 0
11, 55710, Note_on_c, 9, 42, 0
11, 55740, Note_on_c, 9, 36, 90
11, 55740, Note_on_c, 9, 42, 84
11, 55770, Note_on_c, 9, 42, 0
11, 55770, Note_on_c, 9, 36, 0
11, 55800, Note_on_c, 9, 38, 113
11, 55800, Note_on_c, 9, 42, 89
11, 55830, Note_on_c, 9, 42, 0
11, 55860, Note_on_c, 9, 38, 0
11, 55860, Note_on_c, 9, 42, 81
11, 55890, Note_on_c, 9, 42, 0
11, 55920, Note_on_c, 9, 36, 101
11, 55920, Note_on_c, 9, 42, 92
11, 55950, Note_on_c, 9, 42, 0
11, 55980, Note_on_c, 9, 36, 0
11, 55980, Note_on_c, 9, 42, 73
11, 56010, Note_on_c, 9, 42, 0
11, 56040, Note_on_c, 9, 42, 86
11, 56040, Note_on_c, 9, 38, 104
11, 56070, Note_on_c, 9, 38, 0
11, 56070, Note_on_c, 9, 42, 0
11, 56100, Note_on_c, 9, 36, 80
11, 56100, Note_on_c, 9, 46, 51
11, 56130, Note_on_c, 9, 46, 0
11, 56130, Note_on_c, 9, 36, 0
11, 56160, Note_on_c, 9, 42, 86
11, 56160, Note_on_c, 9, 36, 90
11, 56190, Note_on_c, 9, 36, 0
11, 56190, Note_on_c, 9, 42, 0
11, 56220, Note_on_c, 9, 36, 65
11, 56220, Note_on_c, 9, 42, 75
11, 56250, Note_on_c, 9, 42, 0
11, 56250, Note_on_c, 9, 36, 0
11, 56280, Note_on_c, 9, 42, 89
11, 56280, Note_on_c, 9, 38, 104
11, 56310, Note_on_c, 9, 42, 0
11, 56340, Note_on_c, 9, 38, 0
11, 56340, Note_on_c, 9, 42, 59
11, 56370, Note_on_c, 9, 42, 0
11, 56400, Note_on_c, 9, 36, 104
11, 56400, Note_on_c, 9, 42, 100
11, 56430, Note_on_c, 9, 42, 0
11, 56460, Note_on_c, 9, 36, 0
11, 56460, Note_on_c, 9, 42, 53
11, 56490, Note_on_c, 9, 42, 0
11, 56520, Note_on_c, 9, 42, 100
11, 56520, Note_on_c, 9, 38, 110
11, 56550, Note_on_c, 9, 38, 0
11, 56550, Note_on_c, 9, 42, 0
11, 56580, Note_on_c, 9, 42, 73
11, 56580, Note_on_c, 9, 36, 71
11, 56610, Note_on_c, 9, 36, 0
11, 56610, Note_on_c, 9, 42, 0
11, 56640, Note_on_c, 9, 42, 96
11, 56640, Note_on_c, 9, 36, 79
11, 56670, Note_on_c, 9, 36, 0
11, 56670, Note_on_c, 9, 42, 0
11, 56700, Note_on_c, 9, 42, 84
11, 56700, Note_on_c, 9, 36, 94
11, 56730, Note_on_c, 9, 36, 0
11, 56730, Note_on_c, 9, 42, 0
11, 56760, Note_on_c, 9, 38, 104
11, 56760, Note_on_c, 9, 42, 89
11, 56790, Note_on_c, 9, 42, 0
11, 56820, Note_on_c, 9, 38, 0
11, 56820, Note_on_c, 9, 42, 75
11, 56850, Note_on_c, 9, 42, 0
11, 56880, Note_on_c, 9, 36, 99
11, 56880, Note_on_c, 9, 42, 92
11, 56910, Note_on_c, 9, 42, 0
11, 56940, Note_on_c, 9, 36, 0
11, 56940, Note_on_c, 9, 42, 54
11, 56970, Note_on_c, 9, 42, 0
11, 57000, Note_on_c, 9, 38, 101
11, 57000, Note_on_c, 9, 42, 96
11, 57030, Note_on_c, 9, 42, 0
11, 57030, Note_on_c, 9, 38, 0
11, 57060, Note_on_c, 9, 42, 69
11, 57060, Note_on_c, 9, 36, 82
11, 57090, Note_on_c, 9, 36, 0
11, 57090, Note_on_c, 9, 42, 0
11, 57120, Note_on_c, 9, 42, 92
11, 57120, Note_on_c, 9, 36, 82
11, 57150, Note_on_c, 9, 36, 0
11, 57150, Note_on_c, 9, 42, 0
11, 57180, Note_on_c, 9, 42, 81
11, 57180, Note_on_c, 9, 36, 99
11, 57210, Note_on_c, 9, 36, 0
11, 57210, Note_on_c, 9, 42, 0
11, 57240, Note_on_c, 9, 38, 104
11, 57240, Note_on_c, 9, 42, 96
11, 57270, Note_on_c, 9, 42, 0
11, 57300, Note_on_c, 9, 38, 0
11, 57300, Note_on_c, 9, 42, 68
11, 57330, Note_on_c, 9, 42, 0
11, 57360, Note_on_c, 9, 36, 104
11, 57360, Note_on_c, 9, 42, 92
11, 57390, Note_on_c, 9, 42, 0
11, 57420, Note_on_c, 9, 36, 0
11, 57420, Note_on_c, 9, 42, 62
11, 57450, Note_on_c, 9, 42, 0
11, 57480, Note_on_c, 9, 38, 110
11, 57480, Note_on_c, 9, 42, 89
11, 57510, Note_on_c, 9, 42, 0
11, 57510, Note_on_c, 9, 38, 0
11, 57540, Note_on_c, 9, 42, 69
11, 57540, Note_on_c, 9, 36, 88
11, 57570, Note_on_c, 9, 36, 0
11, 57570, Note_on_c, 9, 42, 0
11, 57600, Note_on_c, 9, 42, 89
11, 57600, Note_on_c, 9, 36, 82
11, 57630, Note_on_c, 9, 36, 0
11, 57630, Note_on_c, 9, 42, 0
11, 57660, Note_on_c, 9, 42, 86
11, 57660, Note_on_c, 9, 36, 99
11, 57690, Note_on_c, 9, 36, 0
11, 57690, Note_on_c, 9, 42, 0
11, 57720, Note_on_c, 9, 42, 100
11, 57720, Note_on_c, 9, 38, 113
11, 57750, Note_on_c, 9, 42, 0
11, 57780, Note_on_c, 9, 38, 0
11, 57780, Note_on_c, 9, 42, 69
11, 57810, Note_on_c, 9, 42, 0
11, 57840, Note_on_c, 9, 42, 100
11, 57840, Note_on_c, 9, 36, 107
11, 57870, Note_on_c, 9, 42, 0
11, 57900, Note_on_c, 9, 36, 0
11, 57900, Note_on_c, 9, 42, 77
11, 57930, Note_on_c, 9, 42, 0
11, 57960, Note_on_c, 9, 38, 117
11, 57960, Note_on_c, 9, 42, 96
11, 57990, Note_on_c, 9, 42, 0
11, 57990, Note_on_c, 9, 38, 0
11, 58020, Note_on_c, 9, 36, 82
11, 58020, Note_on_c, 9, 42, 81
11, 58050, Note_on_c, 9, 42, 0
11, 58050, Note_on_c, 9, 36, 0
11, 58080, Note_on_c, 9, 42, 89
11, 58080, Note_on_c, 9, 36, 83
11, 58110, Note_on_c, 9, 36, 0
11, 58110, Note_on_c, 9, 42, 0
11, 58140, Note_on_c, 9, 36, 99
11, 58140, Note_on_c, 9, 42, 84
11, 58170, Note_on_c, 9, 42, 0
11, 58170, Note_on_c, 9, 36, 0
11, 58200, Note_on_c, 9, 42, 96
11, 58200, Note_on_c, 9, 38, 110
11, 58230, Note_on_c, 9, 42, 0
11, 58260, Note_on_c, 9, 38, 0
11, 58260, Note_on_c, 9, 42, 60
11, 58290, Note_on_c, 9, 42, 0
11, 58320, Note_on_c, 9, 36, 97
11, 58320, Note_on_c, 9, 42, 86
11, 58350, Note_on_c, 9, 42, 0
11, 58380, Note_on_c, 9, 36, 0
11, 58380, Note_on_c, 9, 42, 56
11, 58410, Note_on_c, 9, 42, 0
11, 58440, Note_on_c, 9, 38, 110
11, 58440, Note_on_c, 9, 42, 73
11, 58470, Note_on_c, 9, 42, 0
11, 58470, Note_on_c, 9, 38, 0
11, 58500, Note_on_c, 9, 46, 54
11, 58500, Note_on_c, 9, 36, 85
11, 58530, Note_on_c, 9, 36, 0
11, 58530, Note_on_c, 9, 46, 0
11, 58560, Note_on_c, 9, 42, 66
11, 58560, Note_on_c, 9, 36, 86
11, 58590, Note_on_c, 9, 36, 0
11, 58590, Note_on_c, 9, 42, 0
11, 58620, Note_on_c, 9, 42, 62
11, 58620, Note_on_c, 9, 36, 80
11, 58650, Note_on_c, 9, 36, 0
11, 58650, Note_on_c, 9, 42, 0
11, 58680, Note_on_c, 9, 38, 110
11, 58680, Note_on_c, 9, 42, 92
11, 58710, Note_on_c, 9, 42, 0
11, 58740, Note_on_c, 9, 38, 0
11, 58740, Note_on_c, 9, 42, 66
11, 58770, Note_on_c, 9, 42, 0
11, 58800, Note_on_c, 9, 42, 92
11, 58800, Note_on_c, 9, 36, 99
11, 58830, Note_on_c, 9, 42, 0
11, 58860, Note_on_c, 9, 36, 0
11, 58860, Note_on_c, 9, 42, 66
11, 58890, Note_on_c, 9, 42, 0
11, 58920, Note_on_c, 9, 42, 100
11, 58920, Note_on_c, 9, 38, 113
11, 58950, Note_on_c, 9, 38, 0
11, 58950, Note_on_c, 9, 42, 0
11, 58980, Note_on_c, 9, 42, 66
11, 58980, Note_on_c, 9, 36, 82
11, 59010, Note_on_c, 9, 36, 0
11, 59010, Note_on_c, 9, 42, 0
11, 59040, Note_on_c, 9, 42, 86
11, 59040, Note_on_c, 9, 36, 88
11, 59070, Note_on_c, 9, 36, 0
11, 59070, Note_on_c, 9, 42, 0
11, 59100, Note_on_c, 9, 42, 86
11, 59100, Note_on_c, 9, 36, 94
11, 59130, Note_on_c, 9, 36, 0
11, 59130, Note_on_c, 9, 42, 0
11, 59160, Note_on_c, 9, 42, 96
11, 59160, Note_on_c, 9, 38, 104
11, 59190, Note_on_c, 9, 42, 0
11, 59220, Note_on_c, 9, 38, 0
11, 59220, Note_on_c, 9, 42, 63
11, 59250, Note_on_c, 9, 42, 0
11, 59280, Note_on_c, 9, 42, 96
11, 59280, Note_on_c, 9, 36, 101
11, 59310, Note_on_c, 9, 42, 0
11, 59340, Note_on_c, 9, 36, 0
11, 59340, Note_on_c, 9, 42, 62
11, 59370, Note_on_c, 9, 42, 0
11, 59400, Note_on_c, 9, 38, 99
11, 59400, Note_on_c, 9, 42, 92
11, 59430, Note_on_c, 9, 42, 0
11, 59430, Note_on_c, 9, 38, 0
11, 59460, Note_on_c, 9, 36, 73
11, 59460, Note_on_c, 9, 42, 73
11, 59490, Note_on_c, 9, 42, 0
11, 59490, Note_on_c, 9, 36, 0
11, 59520, Note_on_c, 9, 42, 89
11, 59520, Note_on_c, 9, 36, 86
11, 59550, Note_on_c, 9, 36, 0
11, 59550, Note_on_c, 9, 42, 0
11, 59580, Note_on_c, 9, 36, 90
11, 59580, Note_on_c, 9, 42, 84
11, 59610, Note_on_c, 9, 42, 0
11, 59610, Note_on_c, 9, 36, 0
11, 59640, Note_on_c, 9, 38, 113
11, 59640, Note_on_c, 9, 42, 89
11, 59670, Note_on_c, 9, 42, 0
11, 59700, Note_on_c, 9, 38, 0
11, 59700, Note_on_c, 9, 42, 81
11, 59730, Note_on_c, 9, 42, 0
11, 59760, Note_on_c, 9, 36, 101
11, 59760, Note_on_c, 9, 42, 92
11, 59790, Note_on_c, 9, 42, 0
11, 59820, Note_on_c, 9, 36, 0
11, 59820, Note_on_c, 9, 42, 73
11, 59850, Note_on_c, 9, 42, 0
11, 59880, Note_on_c, 9, 42, 86
11, 59880, Note_on_c, 9, 38, 104
11, 59910, Note_on_c, 9, 38, 0
11, 59910, Note_on_c, 9, 42, 0
11, 59940, Note_on_c, 9, 36, 80
11, 59940, Note_on_c, 9, 46, 51
11, 59970, Note_on_c, 9, 46, 0
11, 59970, Note_on_c, 9, 36, 0
11, 60000, Note_on_c, 9, 42, 86
11, 60000, Note_on_c, 9, 36, 90
11, 60030, Note_on_c, 9, 36, 0
11, 60030, Note_on_c, 9, 42, 0
11, 60060, Note_on_c, 9, 36, 65
11, 60060, Note_on_c, 9, 42, 75
11, 60090, Note_on_c, 9, 42, 0
11, 60090, Note_on_c, 9, 36, 0
11, 60120, Note_on_c, 9, 42, 89
11, 60120, Note_on_c, 9, 38, 104
11, 60150, Note_on_c, 9, 42, 0
11, 60180, Note_on_c, 9, 38, 0
11, 60180, Note_on_c, 9, 42, 59
11, 60210, Note_on_c, 9, 42, 0
11, 60240, Note_on_c, 9, 36, 104
11, 60240, Note_on_c, 9, 42, 100
11, 60270, Note_on_c, 9, 42, 0
11, 60300, Note_on_c, 9, 36, 0
11, 60300, Note_on_c, 9, 42, 53
11, 60330, Note_on_c, 9, 42, 0
11, 60360, Note_on_c, 9, 42, 100
11, 60360, Note_on_c, 9, 38, 110
11, 60390, Note_on_c, 9, 38, 0
11, 60390, Note_on_c, 9, 42, 0
11, 60420, Note_on_c, 9, 42, 73
11, 60420, Note_on_c, 9, 36, 71
11, 60450, Note_on_c, 9, 36, 0
11, 60450, Note_on_c, 9, 42, 0
11, 60480, Note_on_c, 9, 42, 96
11, 60480, Note_on_c, 9, 36, 79
11, 60510, Note_on_c, 9, 36, 0
11, 60510, Note_on_c, 9, 42, 0
11, 60540, Note_on_c, 9, 42, 84
11, 60540, Note_on_c, 9, 36, 94
11, 60570, Note_on_c, 9, 36, 0
11, 60570, Note_on_c, 9, 42, 0
11, 60600, Note_on_c, 9, 38, 104
11, 60600, Note_on_c, 9, 42, 89
11, 60630, Note_on_c, 9, 42, 0
11, 60660, Note_on_c, 9, 38, 0
11, 60660, Note_on_c, 9, 42, 75
11, 60690, Note_on_c, 9, 42, 0
11, 60720, Note_on_c, 9, 36, 99
11, 60720, Note_on_c, 9, 42, 92
11, 60750, Note_on_c, 9, 42, 0
11, 60780, Note_on_c, 9, 36, 0
11, 60780, Note_on_c, 9, 42, 54
11, 60810, Note_on_c, 9, 42, 0
11, 60840, Note_on_c, 9, 38, 101
11, 60840, Note_on_c, 9, 42, 96
11, 60870, Note_on_c, 9, 42, 0
11, 60870, Note_on_c, 9, 38, 0
11, 60900, Note_on_c, 9, 42, 69
11, 60900, Note_on_c, 9, 36, 82
11, 60930, Note_on_c, 9, 36, 0
11, 60930, Note_on_c, 9, 42, 0
11, 60960, Note_on_c, 9, 42, 92
11, 60960, Note_on_c, 9, 36, 82
11, 60990, Note_on_c, 9, 36, 0
11, 60990, Note_on_c, 9, 42, 0
11, 61020, Note_on_c, 9, 42, 81
11, 61020, Note_on_c, 9, 36, 99
11, 61050, Note_on_c, 9, 36, 0
11, 61050, Note_on_c, 9, 42, 0
11, 61080, Note_on_c, 9, 38, 104
11, 61080, Note_on_c, 9, 42, 96
11, 61110, Note_on_c, 9, 42, 0
11, 61140, Note_on_c, 9, 38, 0
11, 61140, Note_on_c, 9, 42, 68
11, 61170, Note_on_c, 9, 42, 0
11, 61200, Note_on_c, 9, 36, 104
11, 61200, Note_on_c, 9, 42, 92
11, 61230, Note_on_c, 9, 42, 0
11, 61260, Note_on_c, 9, 36, 0
11, 61260, Note_on_c, 9, 42, 62
11, 61290, Note_on_c, 9, 42, 0
11, 61320, Note_on_c, 9, 38, 110
11, 61320, Note_on_c, 9, 42, 89
11, 61350, Note_on_c, 9, 42, 0
11, 61350, Note_on_c, 9, 38, 0
11, 61380, Note_on_c, 9, 42, 69
11, 61380, Note_on_c, 9, 36, 88
11, 61410, Note_on_c, 9, 36, 0
11, 61410, Note_on_c, 9, 42, 0
11, 61440, Note_on_c, 9, 42, 89
11, 61440, Note_on_c, 9, 36, 82
11, 61470, Note_on_c, 9, 36, 0
11, 61470, Note_on_c, 9, 42, 0
11, 61500, Note_on_c, 9, 42, 86
11, 61500, Note_on_c, 9, 36, 99
11, 61530, Note_on_c, 9, 36, 0
11, 61530, Note_on_c, 9, 42, 0
11, 61560, Note_on_c, 9, 42, 100
11, 61560, Note_on_c, 9, 38, 113
11, 61590, Note_on_c, 9, 42, 0
11, 61620, Note_on_c, 9, 38, 0
11, 61620, Note_on_c, 9, 42, 69
11, 61650, Note_on_c, 9, 42, 0
11, 61680, Note_on_c, 9, 42, 100
11, 61680, Note_on_c, 9, 36, 107
11, 61710, Note_on_c, 9, 42, 0
11, 61740, Note_on_c, 9, 36, 0
11, 61740, Note_on_c, 9, 42, 77
11, 61770, Note_on_c, 9, 42, 0
11, 61800, Note_on_c, 9, 38, 117
11, 61800, Note_on_c, 9, 42, 96
11, 61830, Note_on_c, 9, 42, 0
11, 61830, Note_on_c, 9, 38, 0
11, 61860, Note_on_c, 9, 36, 82
11, 61860, Note_on_c, 9, 42, 81
11, 61890, Note_on_c, 9, 42, 0
11, 61890, Note_on_c, 9, 36, 0
11, 61920, Note_on_c, 9, 42, 89
11, 61920, Note_on_c, 9, 36, 83
11, 61950, Note_on_c, 9, 36, 0
11, 61950, Note_on_c, 9, 42, 0
11, 61980, Note_on_c, 9, 36, 99
11, 61980, Note_on_c, 9, 42, 84
11, 62010, Note_on_c, 9, 42, 0
11, 62010, Note_on_c, 9, 36, 0
11, 62040, Note_on_c, 9, 42, 96
11, 62040, Note_on_c, 9, 38, 110
11, 62070, Note_on_c, 9, 42, 0
11, 62100, Note_on_c, 9, 38, 0
11, 62100, Note_on_c, 9, 42, 60
11, 62130, Note_on_c, 9, 42, 0
11, 62160, Note_on_c, 9, 36, 97
11, 62160, Note_on_c, 9, 42, 86
11, 62190, Note_on_c, 9, 42, 0
11, 62220, Note_on_c, 9, 36, 0
11, 62220, Note_on_c, 9, 42, 56
11, 62250, Note_on_c, 9, 42, 0
11, 62280, Note_on_c, 9, 38, 110
11, 62280, Note_on_c, 9, 42, 73
11, 62310, Note_on_c, 9, 42, 0
11, 62310, Note_on_c, 9, 38, 0
11, 62340, Note_on_c, 9, 46, 54
11, 62340, Note_on_c, 9, 36, 85
11, 62370, Note_on_c, 9, 36, 0
11, 62370, Note_on_c, 9, 46, 0
11, 62400, Control_c, 9, 7, 114
11, 62400, Note_on_c, 9, 42, 66
11, 62400, Note_on_c, 9, 36, 86
11, 62430, Note_on_c, 9, 36, 0
11, 62430, Note_on_c, 9, 42, 0
11, 62430, Control_c, 9, 7, 113
11, 62460, Control_c, 9, 7, 112
11, 62460, Note_on_c, 9, 42, 62
11, 62460, Note_on_c, 9, 36, 80
11, 62480, Control_c, 9, 7, 111
11, 62490, Note_on_c, 9, 36, 0
11, 62490, Note_on_c, 9, 42, 0
11, 62510, Control_c, 9, 7, 110
11, 62520, Note_on_c, 9, 38, 110
11, 62520, Note_on_c, 9, 42, 92
11, 62530, Control_c, 9, 7, 109
11, 62550, Note_on_c, 9, 42, 0
11, 62560, Control_c, 9, 7, 108
11, 62580, Note_on_c, 9, 38, 0
11, 62580, Control_c, 9, 7, 107
11, 62580, Note_on_c, 9, 42, 66
11, 62610, Note_on_c, 9, 42, 0
11, 62610, Control_c, 9, 7, 106
11, 62640, Control_c, 9, 7, 105
11, 62640, Note_on_c, 9, 42, 92
11, 62640, Note_on_c, 9, 36, 99
11, 62660, Control_c, 9, 7, 104
11, 62670, Note_on_c, 9, 42, 0
11, 62690, Control_c, 9, 7, 103
11, 62700, Note_on_c, 9, 36, 0
11, 62700, Note_on_c, 9, 42, 66
11, 62710, Control_c, 9, 7, 102
11, 62730, Note_on_c, 9, 42, 0
11, 62740, Control_c, 9, 7, 101
11, 62760, Control_c, 9, 7, 100
11, 62760, Note_on_c, 9, 42, 100
11, 62760, Note_on_c, 9, 38, 113
11, 62790, Note_on_c, 9, 38, 0
11, 62790, Note_on_c, 9, 42, 0
11, 62790, Control_c, 9, 7, 99
11, 62810, Control_c, 9, 7, 98
11, 62820, Note_on_c, 9, 42, 66
11, 62820, Note_on_c, 9, 36, 82
11, 62840, Control_c, 9, 7, 97
11, 62850, Note_on_c, 9, 36, 0
11, 62850, Note_on_c, 9, 42, 0
11, 62870, Control_c, 9, 7, 96
11, 62880, Note_on_c, 9, 42, 86
11, 62880, Note_on_c, 9, 36, 88
11, 62890, Control_c, 9, 7, 95
11, 62910, Note_on_c, 9, 36, 0
11, 62910, Note_on_c, 9, 42, 0
11, 62920, Control_c, 9, 7, 94
11, 62940, Control_c, 9, 7, 93
11, 62940, Note_on_c, 9, 42, 86
11, 62940, Note_on_c, 9, 36, 94
11, 62970, Note_on_c, 9, 36, 0
11, 62970, Note_on_c, 9, 42, 0
11, 62970, Control_c, 9, 7, 92
11, 62990, Control_c, 9, 7, 91
11, 63000, Note_on_c, 9, 42, 96
11, 63000, Note_on_c, 9, 38, 104
11, 63020, Control_c, 9, 7, 90
11, 63030, Note_on_c, 9, 42, 0
11, 63040, Control_c, 9, 7, 89
11, 63060, Note_on_c, 9, 38, 0
11, 63060, Note_on_c, 9, 42, 63
11, 63070, Control_c, 9, 7, 88
11, 63090, Note_on_c, 9, 42, 0
11, 63100, Control_c, 9, 7, 87
11, 63120, Control_c, 9, 7, 86
11, 63120, Note_on_c, 9, 42, 96
11, 63120, Note_on_c, 9, 36, 101
11, 63150, Note_on_c, 9, 42, 0
11, 63150, Control_c, 9, 7, 85
11, 63170, Control_c, 9, 7, 84
11, 63180, Note_on_c, 9, 36, 0
11, 63180, Note_on_c, 9, 42, 62
11, 63200, Control_c, 9, 7, 83
11, 63210, Note_on_c, 9, 42, 0
11, 63220, Control_c, 9, 7, 82
11, 63240, Note_on_c, 9, 38, 99
11, 63240, Note_on_c, 9, 42, 92
11, 63250, Control_c, 9, 7, 81
11, 63270, Note_on_c, 9, 42, 0
11, 63270, Note_on_c, 9, 38, 0
11, 63270, Control_c, 9, 7, 80
11, 63300, Control_c, 9, 7, 79
11, 63300, Note_on_c, 9, 36, 73
11, 63300, Note_on_c, 9, 42, 73
11, 63330, Note_on_c, 9, 42, 0
11, 63330, Note_on_c, 9, 36, 0
11, 63330, Control_c, 9, 7, 78
11, 63350, Control_c, 9, 7, 77
11, 63360, Note_on_c, 9, 42, 89
11, 63360, Note_on_c, 9, 36, 86
11, 63380, Control_c, 9, 7, 76
11, 63390, Note_on_c, 9, 36, 0
11, 63390, Note_on_c, 9, 42, 0
11, 63400, Control_c, 9, 7, 75
11, 63420, Note_on_c, 9, 36, 90
11, 63420, Note_on_c, 9, 42, 84
11, 63430, Control_c, 9, 7, 74
11, 63450, Note_on_c, 9, 42, 0
11, 63450, Note_on_c, 9, 36, 0
11, 63450, Control_c, 9, 7, 73
11, 63480, Control_c, 9, 7, 72
11, 63480, Note_on_c, 9, 38, 113
11, 63480, Note_on_c, 9, 42, 89
11, 63500, Control_c, 9, 7, 71
11, 63510, Note_on_c, 9, 42, 0
11, 63530, Control_c, 9, 7, 70
11, 63540, Note_on_c, 9, 38, 0
11, 63540, Note_on_c, 9, 42, 81
11, 63560, Control_c, 9, 7, 69
11, 63570, Note_on_c, 9, 42, 0
11, 63580, Control_c, 9, 7, 68
11, 63600, Note_on_c, 9, 36, 101
11, 63600, Note_on_c, 9, 42, 92
11, 63610, Control_c, 9, 7, 67
11, 63630, Note_on_c, 9, 42, 0
11, 63630, Control_c, 9, 7, 66
11, 63660, Note_on_c, 9, 36, 0
11, 63660, Control_c, 9, 7, 65
11, 63660, Note_on_c, 9, 42, 73
11, 63680, Control_c, 9, 7, 64
11, 63690, Note_on_c, 9, 42, 0
11, 63710, Control_c, 9, 7, 63
11, 63720, Note_on_c, 9, 42, 86
11, 63720, Note_on_c, 9, 38, 104
11, 63730, Control_c, 9, 7, 62
11, 63750, Note_on_c, 9, 38, 0
11, 63750, Note_on_c, 9, 42, 0
11, 63760, Control_c, 9, 7, 61
11, 63780, Note_on_c, 9, 36, 80
11, 63780, Note_on_c, 9, 46, 51
11, 63790, Control_c, 9, 7, 60
11, 63810, Note_on_c, 9, 46, 0
11, 63810, Note_on_c, 9, 36, 0
11, 63810, Control_c, 9, 7, 59
11, 63840, Control_c, 9, 7, 58
11, 63840, Note_on_c, 9, 42, 86
11, 63840, Note_on_c, 9, 36, 90
11, 63860, Control_c, 9, 7, 57
11, 63870, Note_on_c, 9, 36, 0
11, 63870, Note_on_c, 9, 42, 0
11, 63890, Control_c, 9, 7, 56
11, 63900, Note_on_c, 9, 36, 65
11, 63900, Note_on_c, 9, 42, 75
11, 63910, Control_c, 9, 7, 55
11, 63930, Note_on_c, 9, 42, 0
11, 63930, Note_on_c, 9, 36, 0
11, 63940, Control_c, 9, 7, 54
11, 63960, Note_on_c, 9, 42, 89
11, 63960, Note_on_c, 9, 38, 104
11, 63970, Control_c, 9, 7, 53
11, 63990, Note_on_c, 9, 42, 0
11, 63990, Control_c, 9, 7, 52
11, 64020, Note_on_c, 9, 38, 0
11, 64020, Control_c, 9, 7, 51
11, 64020, Note_on_c, 9, 42, 59
11, 64040, Control_c, 9, 7, 50
11, 64050, Note_on_c, 9, 42, 0
11, 64070, Control_c, 9, 7, 49
11, 64080, Note_on_c, 9, 36, 104
11, 64080, Note_on_c, 9, 42, 100
11, 64090, Control_c, 9, 7, 48
11, 64110, Note_on_c, 9, 42, 0
11, 64120, Control_c, 9, 7, 47
11, 64140, Note_on_c, 9, 36, 0
11, 64140, Control_c, 9, 7, 46
11, 64140, Note_on_c, 9, 42, 53
11, 64170, Note_on_c, 9, 42, 0
11, 64170, Control_c, 9, 7, 45
11, 64200, Control_c, 9, 7, 44
11, 64200, Note_on_c, 9, 42, 100
11, 64200, Note_on_c, 9, 38, 110
11, 64220, Control_c, 9, 7, 43
11, 64230, Note_on_c, 9, 38, 0
11, 64230, Note_on_c, 9, 42, 0
11, 64250, Control_c, 9, 7, 42
11, 64260, Note_on_c, 9, 42, 73
11, 64260, Note_on_c, 9, 36, 71
11, 64270, Control_c, 9, 7, 41
11, 64290, Note_on_c, 9, 36, 0
11, 64290, Note_on_c, 9, 42, 0
11, 64300, Control_c, 9, 7, 40
11, 64320, Control_c, 9, 7, 39
11, 64320, Note_on_c, 9, 42, 96
11, 64320, Note_on_c, 9, 36, 79
11, 64350, Note_on_c, 9, 36, 0
11, 64350, Note_on_c, 9, 42, 0
11, 64350, Control_c, 9, 7, 38
11, 64370, Control_c, 9, 7, 37
11, 64380, Note_on_c, 9, 42, 84
11, 64380, Note_on_c, 9, 36, 94
11, 64400, Control_c, 9, 7, 36
11, 64410, Note_on_c, 9, 36, 0
11, 64410, Note_on_c, 9, 42, 0
11, 64430, Control_c, 9, 7, 35
11, 64440, Note_on_c, 9, 38, 104
11, 64440, Note_on_c, 9, 42, 89
11, 64450, Control_c, 9, 7, 34
11, 64470, Note_on_c, 9, 42, 0
11, 64480, Control_c, 9, 7, 33
11, 64500, Note_on_c, 9, 38, 0
11, 64500, Control_c, 9, 7, 32
11, 64500, Note_on_c, 9, 42, 75
11, 64530, Note_on_c, 9, 42, 0
11, 64530, Control_c, 9, 7, 31
11, 64550, Control_c, 9, 7, 30
11, 64560, Note_on_c, 9, 36, 99
11, 64560, Note_on_c, 9, 42, 92
11, 64580, Control_c, 9, 7, 29
11, 64590, Note_on_c, 9, 42, 0
11, 64600, Control_c, 9, 7, 28
11, 64620, Note_on_c, 9, 36, 0
11, 64620, Note_on_c, 9, 42, 54
11, 64630, Control_c, 9, 7, 27
11, 64650, Note_on_c, 9, 42, 0
11, 64660, Control_c, 9, 7, 26
11, 64680, Control_c, 9, 7, 25
11, 64680, Note_on_c, 9, 38, 101
11, 64680, Note_on_c, 9, 42, 96
11, 64710, Note_on_c, 9, 42, 0
11, 64710, Note_on_c, 9, 38, 0
11, 64710, Control_c, 9, 7, 24
11, 64730, Control_c, 9, 7, 23
11, 64740, Note_on_c, 9, 42, 69
11, 64740, Note_on_c, 9, 36, 82
11, 64760, Control_c, 9, 7, 22
11, 64770, Note_on_c, 9, 36, 0
11, 64770, Note_on_c, 9, 42, 0
11, 64780, Control_c, 9, 7, 21
11, 64800, Note_on_c, 9, 42, 92
11, 64800, Note_on_c, 9, 36, 82
11, 64810, Control_c, 9, 7, 20
11, 64830, Note_on_c, 9, 36, 0
11, 64830, Note_on_c, 9, 42, 0
11, 64830, Control_c, 9, 7, 19
11, 64860, Control_c, 9, 7, 18
11, 64860, Note_on_c, 9, 42, 81
11, 64860, Note_on_c, 9, 36, 99
11, 64890, Note_on_c, 9, 36, 0
11, 64890, Note_on_c, 9, 42, 0
11, 64890, Control_c, 9, 7, 17
11, 64910, Control_c, 9, 7, 16
11, 64920, Note_on_c, 9, 38, 104
11, 64920, Note_on_c, 9, 42, 96
11, 64940, Control_c, 9, 7, 15
11, 64950, Note_on_c, 9, 42, 0
11, 64960, Control_c, 9, 7, 14
11, 64980, Note_on_c, 9, 38, 0
11, 64980, Note_on_c, 9, 42, 68
11, 64990, Control_c, 9, 7, 13
11, 65010, Note_on_c, 9, 42, 0
11, 65010, Control_c, 9, 7, 12
11, 65040, Control_c, 9, 7, 11
11, 65040, Note_on_c, 9, 36, 104
11, 65040, Note_on_c, 9, 42, 92
11, 65060, Control_c, 9, 7, 10
11, 65070, Note_on_c, 9, 42, 0
11, 65090, Control_c, 9, 7, 9
11, 65100, Note_on_c, 9, 36, 0
11, 65100, Note_on_c, 9, 42, 62
11, 65120, Control_c, 9, 7, 8
11, 65130, Note_on_c, 9, 42, 0
11, 65140, Control_c, 9, 7, 7
11, 65160, Note_on_c, 9, 38, 110
11, 65160, Note_on_c, 9, 42, 89
11, 65170, Control_c, 9, 7, 6
11, 65190, Note_on_c, 9, 42, 0
11, 65190, Note_on_c, 9, 38, 0
11, 65190, Control_c, 9, 7, 5
11, 65220, Control_c, 9, 7, 4
11, 65220, Note_on_c, 9, 42, 69
11, 65220, Note_on_c, 9, 36, 88
11, 65240, Control_c, 9, 7, 3
11, 65250, Note_on_c, 9, 36, 0
11, 65250, Note_on_c, 9, 42, 0
11, 65270, Control_c, 9, 7, 2
11, 65290, Control_c, 9, 7, 1
11, 65290, End_track
12, 0, Start_track
12, 0, MIDI_port, 0
12, 0, Title_t, "Drums Fill"
12, 0, Control_c, 9, 0, 62
12, 0, Control_c, 9, 32, 0
12, 0, Program_c, 9, 1
12, 0, Control_c, 9, 7, 115
12, 0, Control_c, 9, 10, 63
12, 720, Note_on_c, 9, 55, 101
12, 720, Note_on_c, 9, 36, 120
12, 750, Note_on_c, 9, 36, 0
12, 750, Note_on_c, 9, 55, 0
12, 780, Note_on_c, 9, 36, 101
12, 795, Note_on_c, 9, 36, 0
12, 840, Note_on_c, 9, 57, 125
12, 840, Note_on_c, 9, 59, 120
12, 840, Note_on_c, 9, 36, 117
12, 870, Note_on_c, 9, 59, 0
12, 870, Note_on_c, 9, 57, 0
12, 885, Note_on_c, 9, 36, 0
12, 960, Note_on_c, 9, 57, 117
12, 960, Note_on_c, 9, 57, 101
12, 960, Note_on_c, 9, 49, 119
12, 960, Note_on_c, 9, 58, 86
12, 960, Note_on_c, 9, 36, 125
12, 990, Note_on_c, 9, 58, 0
12, 990, Note_on_c, 9, 57, 0
12, 990, Note_on_c, 9, 57, 0
12, 1005, Note_on_c, 9, 49, 0
12, 1005, Note_on_c, 9, 36, 0
12, 6600, Note_on_c, 9, 55, 117
12, 6615, Note_on_c, 9, 55, 0
12, 11160, Note_on_c, 9, 55, 94
12, 11175, Note_on_c, 9, 55, 0
12, 12480, Note_on_c, 9, 51, 79
12, 12480, Note_on_c, 9, 57, 79
12, 12495, Note_on_c, 9, 57, 0
12, 12495, Note_on_c, 9, 51, 0
12, 12945, Note_on_c, 9, 49, 104
12, 12960, Note_on_c, 9, 49, 0
12, 13200, Note_on_c, 9, 57, 107
12, 13215, Note_on_c, 9, 57, 0
12, 13425, Note_on_c, 9, 57, 110
12, 13440, Note_on_c, 9, 57, 0
12, 15120, Note_on_c, 9, 57, 113
12, 15135, Note_on_c, 9, 57, 0
12, 15360, Note_on_c, 9, 49, 100
12, 15375, Note_on_c, 9, 49, 0
12, 16320, Control_c, 9, 64, 127
12, 16560, Control_c, 9, 64, 0
12, 16680, Note_on_c, 9, 55, 126
12, 16695, Note_on_c, 9, 55, 0
12, 16755, Note_on_c, 9, 50, 120
12, 16770, Note_on_c, 9, 50, 0
12, 16770, Note_on_c, 9, 50, 123
12, 16785, Note_on_c, 9, 50, 0
12, 16785, Note_on_c, 9, 50, 99
12, 16800, Note_on_c, 9, 50, 0
12, 16860, Note_on_c, 9, 48, 117
12, 16860, Note_on_c, 9, 47, 113
12, 16875, Note_on_c, 9, 47, 0
12, 16875, Note_on_c, 9, 48, 0
12, 16920, Note_on_c, 9, 47, 123
12, 16920, Note_on_c, 9, 48, 113
12, 16935, Note_on_c, 9, 48, 0
12, 16935, Note_on_c, 9, 47, 0
12, 16980, Note_on_c, 9, 45, 113
12, 16995, Note_on_c, 9, 45, 0
12, 17040, Note_on_c, 9, 43, 107
12, 17040, Note_on_c, 9, 47, 101
12, 17040, Note_on_c, 9, 45, 99
12, 17055, Note_on_c, 9, 43, 0
12, 17070, Note_on_c, 9, 45, 0
12, 17070, Note_on_c, 9, 47, 0
12, 17100, Note_on_c, 9, 43, 104
12, 17100, Note_on_c, 9, 45, 68
12, 17115, Note_on_c, 9, 45, 0
12, 17115, Note_on_c, 9, 43, 0
12, 17160, Note_on_c, 9, 41, 86
12, 17160, Note_on_c, 9, 43, 90
12, 17160, Note_on_c, 9, 55, 101
12, 17175, Note_on_c, 9, 55, 0
12, 17175, Note_on_c, 9, 43, 0
12, 17175, Note_on_c, 9, 41, 0
12, 17220, Note_on_c, 9, 36, 123
12, 17220, Note_on_c, 9, 52, 101
12, 17220, Note_on_c, 9, 49, 119
12, 17220, Note_on_c, 9, 57, 113
12, 17235, Note_on_c, 9, 57, 0
12, 17250, Note_on_c, 9, 49, 0
12, 17250, Note_on_c, 9, 52, 0
12, 17280, Note_on_c, 9, 36, 0
12, 17340, Note_on_c, 9, 36, 99
12, 17355, Note_on_c, 9, 36, 0
12, 17400, Note_on_c, 9, 54, 96
12, 17430, Note_on_c, 9, 54, 0
12, 17640, Note_on_c, 9, 54, 124
12, 17670, Note_on_c, 9, 54, 0
12, 17880, Note_on_c, 9, 54, 126
12, 17910, Note_on_c, 9, 54, 0
12, 18120, Note_on_c, 9, 54, 127
12, 18150, Note_on_c, 9, 54, 0
12, 18360, Note_on_c, 9, 54, 126
12, 18360, Note_on_c, 9, 56, 66
12, 18390, Note_on_c, 9, 56, 0
12, 18390, Note_on_c, 9, 54, 0
12, 18600, Note_on_c, 9, 54, 126
12, 18630, Note_on_c, 9, 54, 0
12, 18840, Note_on_c, 9, 54, 126
12, 18870, Note_on_c, 9, 54, 0
12, 19080, Note_on_c, 9, 54, 126
12, 19110, Note_on_c, 9, 54, 0
12, 19320, Note_on_c, 9, 54, 124
12, 19350, Note_on_c, 9, 54, 0
12, 19560, Note_on_c, 9, 54, 126
12, 19590, Note_on_c, 9, 54, 0
12, 19800, Note_on_c, 9, 54, 126
12, 19830, Note_on_c, 9, 54, 0
12, 20040, Note_on_c, 9, 54, 126
12, 20070, Note_on_c, 9, 54, 0
12, 20280, Note_on_c, 9, 54, 126
12, 20310, Note_on_c, 9, 54, 0
12, 20520, Note_on_c, 9, 54, 126
12, 20550, Note_on_c, 9, 54, 0
12, 20760, Note_on_c, 9, 54, 124
12, 20790, Note_on_c, 9, 54, 0
12, 21000, Note_on_c, 9, 54, 114
12, 21030, Note_on_c, 9, 54, 0
12, 21120, Note_on_c, 9, 57, 113
12, 21135, Note_on_c, 9, 57, 0
12, 21240, Note_on_c, 9, 54, 100
12, 21270, Note_on_c, 9, 54, 0
12, 21480, Note_on_c, 9, 54, 126
12, 21510, Note_on_c, 9, 54, 0
12, 21960, Note_on_c, 9, 54, 109
12, 21990, Note_on_c, 9, 54, 0
12, 22080, Note_on_c, 9, 55, 101
12, 22095, Note_on_c, 9, 55, 0
12, 33600, Note_on_c, 9, 55, 104
12, 33615, Note_on_c, 9, 55, 0
12, 34080, Note_on_c, 9, 57, 104
12, 34095, Note_on_c, 9, 57, 0
12, 34320, Note_on_c, 9, 49, 104
12, 34335, Note_on_c, 9, 49, 0
12, 34560, Note_on_c, 9, 57, 117
12, 34590, Note_on_c, 9, 57, 0
12, 35460, Note_on_c, 9, 56, 100
12, 35475, Note_on_c, 9, 56, 0
12, 36240, Note_on_c, 9, 55, 123
12, 36255, Note_on_c, 9, 55, 0
12, 36480, Note_on_c, 9, 57, 99
12, 36495, Note_on_c, 9, 57, 0
12, 37380, Note_on_c, 9, 49, 114
12, 37395, Note_on_c, 9, 49, 0
12, 37440, Control_c, 9, 64, 127
12, 37680, Control_c, 9, 64, 0
12, 37875, Note_on_c, 9, 50, 120
12, 37890, Note_on_c, 9, 50, 0
12, 37890, Note_on_c, 9, 50, 123
12, 37905, Note_on_c, 9, 50, 0
12, 37905, Note_on_c, 9, 50, 99
12, 37920, Note_on_c, 9, 50, 0
12, 37920, Note_on_c, 9, 57, 120
12, 37920, Note_on_c, 9, 55, 125
12, 37935, Note_on_c, 9, 55, 0
12, 37935, Note_on_c, 9, 57, 0
12, 37980, Note_on_c, 9, 48, 117
12, 37980, Note_on_c, 9, 47, 113
12, 37995, Note_on_c, 9, 47, 0
12, 37995, Note_on_c, 9, 48, 0
12, 38040, Note_on_c, 9, 47, 123
12, 38040, Note_on_c, 9, 48, 113
12, 38055, Note_on_c, 9, 48, 0
12, 38055, Note_on_c, 9, 47, 0
12, 38100, Note_on_c, 9, 45, 113
12, 38115, Note_on_c, 9, 45, 0
12, 38160, Note_on_c, 9, 43, 107
12, 38160, Note_on_c, 9, 47, 101
12, 38160, Note_on_c, 9, 45, 99
12, 38175, Note_on_c, 9, 43, 0
12, 38190, Note_on_c, 9, 45, 0
12, 38190, Note_on_c, 9, 47, 0
12, 38220, Note_on_c, 9, 43, 104
12, 38220, Note_on_c, 9, 45, 68
12, 38235, Note_on_c, 9, 45, 0
12, 38235, Note_on_c, 9, 43, 0
12, 38280, Note_on_c, 9, 41, 86
12, 38280, Note_on_c, 9, 43, 90
12, 38280, Note_on_c, 9, 55, 92
12, 38295, Note_on_c, 9, 55, 0
12, 38295, Note_on_c, 9, 43, 0
12, 38295, Note_on_c, 9, 41, 0
12, 38340, Note_on_c, 9, 36, 123
12, 38340, Note_on_c, 9, 52, 101
12, 38340, Note_on_c, 9, 49, 119
12, 38370, Note_on_c, 9, 49, 0
12, 38370, Note_on_c, 9, 52, 0
12, 38400, Note_on_c, 9, 36, 0
12, 38460, Note_on_c, 9, 36, 99
12, 38475, Note_on_c, 9, 36, 0
12, 38518, Note_on_c, 9, 53, 73
12, 38520, Note_on_c, 9, 54, 96
12, 38550, Note_on_c, 9, 54, 0
12, 38563, Note_on_c, 9, 53, 0
12, 38760, Note_on_c, 9, 54, 124
12, 38761, Note_on_c, 9, 53, 101
12, 38790, Note_on_c, 9, 54, 0
12, 38797, Note_on_c, 9, 53, 0
12, 38997, Note_on_c, 9, 53, 90
12, 39000, Note_on_c, 9, 54, 126
12, 39030, Note_on_c, 9, 54, 0
12, 39035, Note_on_c, 9, 53, 0
12, 39240, Note_on_c, 9, 54, 127
12, 39250, Note_on_c, 9, 53, 107
12, 39270, Note_on_c, 9, 54, 0
12, 39290, Note_on_c, 9, 53, 0
12, 39480, Note_on_c, 9, 54, 126
12, 39480, Note_on_c, 9, 56, 66
12, 39481, Note_on_c, 9, 53, 107
12, 39510, Note_on_c, 9, 56, 0
12, 39510, Note_on_c, 9, 54, 0
12, 39522, Note_on_c, 9, 53, 0
12, 39720, Note_on_c, 9, 54, 126
12, 39726, Note_on_c, 9, 53, 107
12, 39750, Note_on_c, 9, 54, 0
12, 39769, Note_on_c, 9, 53, 0
12, 39960, Note_on_c, 9, 54, 126
12, 39960, Note_on_c, 9, 53, 94
12, 39990, Note_on_c, 9, 54, 0
12, 40004, Note_on_c, 9, 53, 0
12, 40200, Note_on_c, 9, 54, 126
12, 40214, Note_on_c, 9, 53, 110
12, 40230, Note_on_c, 9, 54, 0
12, 40265, Note_on_c, 9, 53, 0
12, 40440, Note_on_c, 9, 54, 124
12, 40450, Note_on_c, 9, 53, 110
12, 40470, Note_on_c, 9, 54, 0
12, 40494, Note_on_c, 9, 53, 0
12, 40680, Note_on_c, 9, 54, 126
12, 40688, Note_on_c, 9, 53, 104
12, 40710, Note_on_c, 9, 54, 0
12, 40736, Note_on_c, 9, 53, 0
12, 40920, Note_on_c, 9, 54, 126
12, 40928, Note_on_c, 9, 53, 113
12, 40950, Note_on_c, 9, 54, 0
12, 40965, Note_on_c, 9, 53, 0
12, 41160, Note_on_c, 9, 54, 126
12, 41161, Note_on_c, 9, 53, 107
12, 41190, Note_on_c, 9, 54, 0
12, 41211, Note_on_c, 9, 53, 0
12, 41400, Note_on_c, 9, 54, 126
12, 41401, Note_on_c, 9, 53, 113
12, 41430, Note_on_c, 9, 54, 0
12, 41442, Note_on_c, 9, 53, 0
12, 41640, Note_on_c, 9, 54, 126
12, 41648, Note_on_c, 9, 53, 113
12, 41670, Note_on_c, 9, 54, 0
12, 41679, Note_on_c, 9, 53, 0
12, 41878, Note_on_c, 9, 53, 101
12, 41880, Note_on_c, 9, 54, 124
12, 41910, Note_on_c, 9, 54, 0
12, 41912, Note_on_c, 9, 53, 0
12, 42120, Note_on_c, 9, 54, 114
12, 42120, Note_on_c, 9, 53, 123
12, 42150, Note_on_c, 9, 54, 0
12, 42180, Note_on_c, 9, 53, 0
12, 42180, Note_on_c, 9, 55, 123
12, 42195, Note_on_c, 9, 55, 0
12, 42240, Note_on_c, 9, 57, 110
12, 42255, Note_on_c, 9, 57, 0
12, 42360, Note_on_c, 9, 54, 100
12, 42390, Note_on_c, 9, 54, 0
12, 42600, Note_on_c, 9, 54, 126
12, 42630, Note_on_c, 9, 54, 0
12, 43080, Note_on_c, 9, 54, 109
12, 43110, Note_on_c, 9, 54, 0
12, 48015, Note_on_c, 9, 55, 113
12, 48030, Note_on_c, 9, 55, 0
12, 48900, Note_on_c, 9, 57, 110
12, 48915, Note_on_c, 9, 57, 0
12, 49920, Note_on_c, 9, 49, 114
12, 49935, Note_on_c, 9, 49, 0
12, 50340, Note_on_c, 9, 57, 104
12, 50355, Note_on_c, 9, 57, 0
12, 50820, Note_on_c, 9, 49, 119
12, 50835, Note_on_c, 9, 49, 0
12, 50880, Control_c, 9, 64, 127
12, 51120, Control_c, 9, 64, 0
12, 51225, Note_on_c, 9, 55, 125
12, 51240, Note_on_c, 9, 55, 0
12, 51315, Note_on_c, 9, 50, 120
12, 51330, Note_on_c, 9, 50, 0
12, 51330, Note_on_c, 9, 50, 123
12, 51345, Note_on_c, 9, 50, 0
12, 51345, Note_on_c, 9, 50, 99
12, 51360, Note_on_c, 9, 50, 0
12, 51360, Note_on_c, 9, 57, 123
12, 51360, Note_on_c, 9, 55, 126
12, 51375, Note_on_c, 9, 55, 0
12, 51375, Note_on_c, 9, 57, 0
12, 51420, Note_on_c, 9, 48, 117
12, 51420, Note_on_c, 9, 47, 113
12, 51435, Note_on_c, 9, 47, 0
12, 51435, Note_on_c, 9, 48, 0
12, 51480, Note_on_c, 9, 47, 123
12, 51480, Note_on_c, 9, 48, 113
12, 51495, Note_on_c, 9, 48, 0
12, 51495, Note_on_c, 9, 47, 0
12, 51540, Note_on_c, 9, 45, 113
12, 51555, Note_on_c, 9, 45, 0
12, 51600, Note_on_c, 9, 43, 107
12, 51600, Note_on_c, 9, 47, 101
12, 51600, Note_on_c, 9, 45, 99
12, 51615, Note_on_c, 9, 43, 0
12, 51630, Note_on_c, 9, 45, 0
12, 51630, Note_on_c, 9, 47, 0
12, 51660, Note_on_c, 9, 43, 104
12, 51660, Note_on_c, 9, 45, 68
12, 51675, Note_on_c, 9, 45, 0
12, 51675, Note_on_c, 9, 43, 0
12, 51720, Note_on_c, 9, 41, 86
12, 51720, Note_on_c, 9, 43, 90
12, 51735, Note_on_c, 9, 43, 0
12, 51735, Note_on_c, 9, 41, 0
12, 51780, Note_on_c, 9, 36, 123
12, 51780, Note_on_c, 9, 52, 101
12, 51780, Note_on_c, 9, 49, 119
12, 51810, Note_on_c, 9, 49, 0
12, 51810, Note_on_c, 9, 52, 0
12, 51840, Note_on_c, 9, 36, 0
12, 51840, Note_on_c, 9, 57, 110
12, 51855, Note_on_c, 9, 57, 0
12, 51900, Note_on_c, 9, 36, 99
12, 51915, Note_on_c, 9, 36, 0
12, 51957, Note_on_c, 9, 53, 120
12, 51960, Note_on_c, 9, 54, 96
12, 51990, Note_on_c, 9, 54, 0
12, 52007, Note_on_c, 9, 53, 0
12, 52200, Note_on_c, 9, 54, 124
12, 52202, Note_on_c, 9, 53, 113
12, 52230, Note_on_c, 9, 54, 0
12, 52299, Note_on_c, 9, 53, 0
12, 52440, Note_on_c, 9, 54, 126
12, 52447, Note_on_c, 9, 53, 110
12, 52470, Note_on_c, 9, 54, 0
12, 52532, Note_on_c, 9, 53, 0
12, 52680, Note_on_c, 9, 54, 127
12, 52686, Note_on_c, 9, 53, 117
12, 52710, Note_on_c, 9, 54, 0
12, 52749, Note_on_c, 9, 53, 0
12, 52920, Note_on_c, 9, 54, 126
12, 52920, Note_on_c, 9, 56, 66
12, 52925, Note_on_c, 9, 53, 97
12, 52926, Note_on_c, 9, 54, 114
12, 52950, Note_on_c, 9, 56, 0
12, 52950, Note_on_c, 9, 54, 0
12, 52964, Note_on_c, 9, 54, 0
12, 52970, Note_on_c, 9, 53, 0
12, 53160, Note_on_c, 9, 54, 126
12, 53166, Note_on_c, 9, 53, 113
12, 53190, Note_on_c, 9, 54, 0
12, 53222, Note_on_c, 9, 53, 0
12, 53400, Note_on_c, 9, 54, 126
12, 53402, Note_on_c, 9, 53, 107
12, 53430, Note_on_c, 9, 54, 0
12, 53452, Note_on_c, 9, 53, 0
12, 53640, Note_on_c, 9, 54, 126
12, 53650, Note_on_c, 9, 53, 110
12, 53670, Note_on_c, 9, 54, 0
12, 53700, Note_on_c, 9, 53, 0
12, 53880, Note_on_c, 9, 54, 124
12, 53883, Note_on_c, 9, 53, 107
12, 53910, Note_on_c, 9, 54, 0
12, 53932, Note_on_c, 9, 53, 0
12, 54120, Note_on_c, 9, 54, 126
12, 54120, Note_on_c, 9, 53, 101
12, 54150, Note_on_c, 9, 54, 0
12, 54167, Note_on_c, 9, 53, 0
12, 54360, Note_on_c, 9, 54, 126
12, 54363, Note_on_c, 9, 53, 101
12, 54390, Note_on_c, 9, 54, 0
12, 54407, Note_on_c, 9, 53, 0
12, 54600, Note_on_c, 9, 54, 126
12, 54602, Note_on_c, 9, 53, 110
12, 54630, Note_on_c, 9, 54, 0
12, 54652, Note_on_c, 9, 53, 0
12, 54840, Note_on_c, 9, 54, 126
12, 54846, Note_on_c, 9, 53, 110
12, 54870, Note_on_c, 9, 54, 0
12, 54890, Note_on_c, 9, 53, 0
12, 55080, Note_on_c, 9, 54, 126
12, 55083, Note_on_c, 9, 53, 101
12, 55110, Note_on_c, 9, 54, 0
12, 55140, Note_on_c, 9, 53, 0
12, 55320, Note_on_c, 9, 54, 124
12, 55325, Note_on_c, 9, 53, 117
12, 55350, Note_on_c, 9, 54, 0
12, 55381, Note_on_c, 9, 53, 0
12, 55560, Note_on_c, 9, 54, 114
12, 55565, Note_on_c, 9, 53, 117
12, 55590, Note_on_c, 9, 54, 0
12, 55620, Note_on_c, 9, 53, 0
12, 55680, Note_on_c, 9, 55, 120
12, 55680, Note_on_c, 9, 69, 92
12, 55695, Note_on_c, 9, 55, 0
12, 55710, Note_on_c, 9, 69, 0
12, 55740, Note_on_c, 9, 69, 50
12, 55770, Note_on_c, 9, 69, 0
12, 55800, Note_on_c, 9, 54, 124
12, 55800, Note_on_c, 9, 69, 97
12, 55800, Note_on_c, 9, 54, 100
12, 55805, Note_on_c, 9, 53, 113
12, 55830, Note_on_c, 9, 69, 0
12, 55830, Note_on_c, 9, 54, 0
12, 55854, Note_on_c, 9, 53, 0
12, 55860, Note_on_c, 9, 54, 0
12, 55860, Note_on_c, 9, 69, 52
12, 55890, Note_on_c, 9, 69, 0
12, 55920, Note_on_c, 9, 69, 86
12, 55950, Note_on_c, 9, 69, 0
12, 55980, Note_on_c, 9, 69, 61
12, 56010, Note_on_c, 9, 69, 0
12, 56040, Note_on_c, 9, 54, 119
12, 56040, Note_on_c, 9, 69, 75
12, 56040, Note_on_c, 9, 54, 126
12, 56046, Note_on_c, 9, 53, 113
12, 56070, Note_on_c, 9, 69, 0
12, 56070, Note_on_c, 9, 54, 0
12, 56092, Note_on_c, 9, 53, 0
12, 56100, Note_on_c, 9, 54, 0
12, 56100, Note_on_c, 9, 69, 50
12, 56130, Note_on_c, 9, 69, 0
12, 56160, Note_on_c, 9, 69, 92
12, 56190, Note_on_c, 9, 69, 0
12, 56220, Note_on_c, 9, 69, 57
12, 56250, Note_on_c, 9, 69, 0
12, 56280, Note_on_c, 9, 69, 88
12, 56280, Note_on_c, 9, 54, 109
12, 56286, Note_on_c, 9, 53, 120
12, 56310, Note_on_c, 9, 54, 0
12, 56310, Note_on_c, 9, 69, 0
12, 56335, Note_on_c, 9, 53, 0
12, 56340, Note_on_c, 9, 69, 62
12, 56370, Note_on_c, 9, 69, 0
12, 56400, Note_on_c, 9, 69, 94
12, 56430, Note_on_c, 9, 69, 0
12, 56460, Note_on_c, 9, 69, 55
12, 56490, Note_on_c, 9, 69, 0
12, 56520, Note_on_c, 9, 69, 78
12, 56520, Note_on_c, 9, 54, 114
12, 56520, Note_on_c, 9, 54, 109
12, 56527, Note_on_c, 9, 53, 120
12, 56550, Note_on_c, 9, 54, 0
12, 56550, Note_on_c, 9, 69, 0
12, 56550, Note_on_c, 9, 54, 0
12, 56576, Note_on_c, 9, 53, 0
12, 56580, Note_on_c, 9, 69, 75
12, 56610, Note_on_c, 9, 69, 0
12, 56640, Note_on_c, 9, 69, 76
12, 56670, Note_on_c, 9, 69, 0
12, 56700, Note_on_c, 9, 69, 69
12, 56730, Note_on_c, 9, 69, 0
12, 56760, Note_on_c, 9, 69, 97
12, 56760, Note_on_c, 9, 54, 114
12, 56769, Note_on_c, 9, 53, 113
12, 56790, Note_on_c, 9, 54, 0
12, 56790, Note_on_c, 9, 69, 0
12, 56811, Note_on_c, 9, 53, 0
12, 56820, Note_on_c, 9, 69, 74
12, 56850, Note_on_c, 9, 69, 0
12, 56880, Note_on_c, 9, 69, 90
12, 56910, Note_on_c, 9, 69, 0
12, 56940, Note_on_c, 9, 69, 75
12, 56970, Note_on_c, 9, 69, 0
12, 57000, Note_on_c, 9, 69, 90
12, 57000, Note_on_c, 9, 54, 119
12, 57013, Note_on_c, 9, 53, 113
12, 57030, Note_on_c, 9, 54, 0
12, 57030, Note_on_c, 9, 69, 0
12, 57053, Note_on_c, 9, 53, 0
12, 57060, Note_on_c, 9, 69, 66
12, 57090, Note_on_c, 9, 69, 0
12, 57120, Note_on_c, 9, 69, 94
12, 57150, Note_on_c, 9, 69, 0
12, 57180, Note_on_c, 9, 69, 66
12, 57210, Note_on_c, 9, 69, 0
12, 57240, Note_on_c, 9, 69, 90
12, 57240, Note_on_c, 9, 54, 124
12, 57241, Note_on_c, 9, 53, 107
12, 57270, Note_on_c, 9, 54, 0
12, 57270, Note_on_c, 9, 69, 0
12, 57277, Note_on_c, 9, 53, 0
12, 57300, Note_on_c, 9, 69, 62
12, 57330, Note_on_c, 9, 69, 0
12, 57360, Note_on_c, 9, 69, 97
12, 57390, Note_on_c, 9, 69, 0
12, 57420, Note_on_c, 9, 69, 66
12, 57450, Note_on_c, 9, 69, 0
12, 57480, Note_on_c, 9, 54, 124
12, 57480, Note_on_c, 9, 69, 94
12, 57491, Note_on_c, 9, 53, 113
12, 57510, Note_on_c, 9, 69, 0
12, 57510, Note_on_c, 9, 54, 0
12, 57540, Note_on_c, 9, 53, 0
12, 57540, Note_on_c, 9, 69, 66
12, 57570, Note_on_c, 9, 69, 0
12, 57600, Note_on_c, 9, 69, 104
12, 57600, Note_on_c, 9, 53, 104
12, 57615, Note_on_c, 9, 53, 0
12, 57630, Note_on_c, 9, 69, 0
12, 57660, Note_on_c, 9, 69, 60
12, 57690, Note_on_c, 9, 69, 0
12, 57720, Note_on_c, 9, 69, 97
12, 57720, Note_on_c, 9, 54, 124
12, 57726, Note_on_c, 9, 53, 110
12, 57750, Note_on_c, 9, 54, 0
12, 57750, Note_on_c, 9, 69, 0
12, 57769, Note_on_c, 9, 53, 0
12, 57780, Note_on_c, 9, 69, 64
12, 57810, Note_on_c, 9, 69, 0
12, 57840, Note_on_c, 9, 69, 97
12, 57870, Note_on_c, 9, 69, 0
12, 57900, Note_on_c, 9, 69, 70
12, 57930, Note_on_c, 9, 69, 0
12, 57960, Note_on_c, 9, 69, 94
12, 57960, Note_on_c, 9, 54, 124
12, 57963, Note_on_c, 9, 53, 120
12, 57990, Note_on_c, 9, 69, 0
12, 58009, Note_on_c, 9, 53, 0
12, 58020, Note_on_c, 9, 54, 0
12, 58020, Note_on_c, 9, 69, 73
12, 58050, Note_on_c, 9, 69, 0
12, 58080, Note_on_c, 9, 69, 104
12, 58110, Note_on_c, 9, 69, 0
12, 58140, Note_on_c, 9, 69, 72
12, 58170, Note_on_c, 9, 69, 0
12, 58200, Note_on_c, 9, 69, 94
12, 58200, Note_on_c, 9, 54, 124
12, 58203, Note_on_c, 9, 53, 113
12, 58230, Note_on_c, 9, 54, 0
12, 58230, Note_on_c, 9, 69, 0
12, 58247, Note_on_c, 9, 53, 0
12, 58260, Note_on_c, 9, 69, 66
12, 58290, Note_on_c, 9, 69, 0
12, 58320, Note_on_c, 9, 69, 107
12, 58350, Note_on_c, 9, 69, 0
12, 58380, Note_on_c, 9, 69, 66
12, 58410, Note_on_c, 9, 69, 0
12, 58440, Note_on_c, 9, 69, 99
12, 58440, Note_on_c, 9, 54, 126
12, 58447, Note_on_c, 9, 53, 117
12, 58470, Note_on_c, 9, 54, 0
12, 58470, Note_on_c, 9, 69, 0
12, 58497, Note_on_c, 9, 53, 0
12, 58500, Note_on_c, 9, 69, 67
12, 58530, Note_on_c, 9, 69, 0
12, 58560, Note_on_c, 9, 69, 99
12, 58590, Note_on_c, 9, 69, 0
12, 58620, Note_on_c, 9, 69, 71
12, 58650, Note_on_c, 9, 69, 0
12, 58680, Note_on_c, 9, 69, 99
12, 58680, Note_on_c, 9, 54, 119
12, 58684, Note_on_c, 9, 53, 117
12, 58710, Note_on_c, 9, 54, 0
12, 58710, Note_on_c, 9, 69, 0
12, 58735, Note_on_c, 9, 53, 0
12, 58740, Note_on_c, 9, 69, 71
12, 58770, Note_on_c, 9, 69, 0
12, 58800, Note_on_c, 9, 69, 99
12, 58830, Note_on_c, 9, 69, 0
12, 58860, Note_on_c, 9, 69, 76
12, 58890, Note_on_c, 9, 69, 0
12, 58920, Note_on_c, 9, 69, 94
12, 58920, Note_on_c, 9, 54, 119
12, 58923, Note_on_c, 9, 53, 117
12, 58950, Note_on_c, 9, 54, 0
12, 58950, Note_on_c, 9, 69, 0
12, 58980, Note_on_c, 9, 69, 75
12, 58983, Note_on_c, 9, 53, 0
12, 59010, Note_on_c, 9, 69, 0
12, 59040, Note_on_c, 9, 69, 101
12, 59070, Note_on_c, 9, 69, 0
12, 59100, Note_on_c, 9, 69, 75
12, 59130, Note_on_c, 9, 69, 0
12, 59160, Note_on_c, 9, 69, 97
12, 59160, Note_on_c, 9, 54, 124
12, 59162, Note_on_c, 9, 53, 117
12, 59190, Note_on_c, 9, 54, 0
12, 59190, Note_on_c, 9, 69, 0
12, 59218, Note_on_c, 9, 53, 0
12, 59220, Note_on_c, 9, 69, 72
12, 59235, Note_on_c, 9, 48, 110
12, 59250, Note_on_c, 9, 48, 0
12, 59250, Note_on_c, 9, 69, 0
12, 59250, Note_on_c, 9, 48, 107
12, 59265, Note_on_c, 9, 48, 0
12, 59265, Note_on_c, 9, 48, 104
12, 59280, Note_on_c, 9, 48, 0
12, 59280, Note_on_c, 9, 69, 107
12, 59310, Note_on_c, 9, 69, 0
12, 59340, Note_on_c, 9, 69, 69
12, 59340, Note_on_c, 9, 47, 110
12, 59355, Note_on_c, 9, 47, 0
12, 59370, Note_on_c, 9, 69, 0
12, 59397, Note_on_c, 9, 53, 113
12, 59400, Note_on_c, 9, 69, 97
12, 59400, Note_on_c, 9, 54, 124
12, 59400, Note_on_c, 9, 45, 113
12, 59415, Note_on_c, 9, 45, 0
12, 59430, Note_on_c, 9, 54, 0
12, 59430, Note_on_c, 9, 69, 0
12, 59443, Note_on_c, 9, 53, 0
12, 59460, Note_on_c, 9, 69, 72
12, 59460, Note_on_c, 9, 45, 104
12, 59475, Note_on_c, 9, 45, 0
12, 59490, Note_on_c, 9, 69, 0
12, 59520, Note_on_c, 9, 55, 120
12, 59520, Note_on_c, 9, 57, 104
12, 59520, Note_on_c, 9, 59, 83
12, 59520, Note_on_c, 9, 69, 101
12, 59535, Note_on_c, 9, 59, 0
12, 59535, Note_on_c, 9, 55, 0
12, 59535, Note_on_c, 9, 57, 0
12, 59550, Note_on_c, 9, 69, 0
12, 59580, Note_on_c, 9, 69, 55
12, 59610, Note_on_c, 9, 69, 0
12, 59640, Note_on_c, 9, 54, 119
12, 59640, Note_on_c, 9, 69, 101
12, 59652, Note_on_c, 9, 53, 107
12, 59670, Note_on_c, 9, 69, 0
12, 59670, Note_on_c, 9, 54, 0
12, 59697, Note_on_c, 9, 53, 0
12, 59700, Note_on_c, 9, 69, 61
12, 59730, Note_on_c, 9, 69, 0
12, 59760, Note_on_c, 9, 69, 99
12, 59790, Note_on_c, 9, 69, 0
12, 59820, Note_on_c, 9, 69, 36
12, 59850, Note_on_c, 9, 69, 0
12, 59880, Note_on_c, 9, 69, 80
12, 59880, Note_on_c, 9, 54, 124
12, 59882, Note_on_c, 9, 53, 104
12, 59910, Note_on_c, 9, 54, 0
12, 59910, Note_on_c, 9, 69, 0
12, 59927, Note_on_c, 9, 53, 0
12, 59940, Note_on_c, 9, 69, 54
12, 59970, Note_on_c, 9, 69, 0
12, 60000, Note_on_c, 9, 69, 94
12, 60030, Note_on_c, 9, 69, 0
12, 60060, Note_on_c, 9, 69, 56
12, 60090, Note_on_c, 9, 69, 0
12, 60120, Note_on_c, 9, 69, 85
12, 60120, Note_on_c, 9, 54, 124
12, 60126, Note_on_c, 9, 53, 117
12, 60150, Note_on_c, 9, 69, 0
12, 60174, Note_on_c, 9, 53, 0
12, 60180, Note_on_c, 9, 54, 0
12, 60180, Note_on_c, 9, 69, 51
12, 60210, Note_on_c, 9, 69, 0
12, 60240, Note_on_c, 9, 69, 82
12, 60270, Note_on_c, 9, 69, 0
12, 60300, Note_on_c, 9, 69, 60
12, 60330, Note_on_c, 9, 69, 0
12, 60360, Note_on_c, 9, 54, 124
12, 60360, Note_on_c, 9, 69, 83
12, 60362, Note_on_c, 9, 53, 117
12, 60390, Note_on_c, 9, 69, 0
12, 60390, Note_on_c, 9, 54, 0
12, 60406, Note_on_c, 9, 53, 0
12, 60420, Note_on_c, 9, 69, 69
12, 60450, Note_on_c, 9, 69, 0
12, 60480, Note_on_c, 9, 69, 92
12, 60510, Note_on_c, 9, 69, 0
12, 60540, Note_on_c, 9, 69, 73
12, 60570, Note_on_c, 9, 69, 0
12, 60600, Note_on_c, 9, 69, 104
12, 60600, Note_on_c, 9, 54, 126
12, 60605, Note_on_c, 9, 53, 117
12, 60630, Note_on_c, 9, 54, 0
12, 60630, Note_on_c, 9, 69, 0
12, 60646, Note_on_c, 9, 53, 0
12, 60660, Note_on_c, 9, 69, 70
12, 60690, Note_on_c, 9, 69, 0
12, 60720, Note_on_c, 9, 69, 97
12, 60750, Note_on_c, 9, 69, 0
12, 60780, Note_on_c, 9, 69, 76
12, 60810, Note_on_c, 9, 69, 0
12, 60840, Note_on_c, 9, 54, 124
12, 60840, Note_on_c, 9, 69, 88
12, 60840, Note_on_c, 9, 53, 117
12, 60870, Note_on_c, 9, 69, 0
12, 60870, Note_on_c, 9, 54, 0
12, 60891, Note_on_c, 9, 53, 0
12, 60900, Note_on_c, 9, 69, 79
12, 60930, Note_on_c, 9, 69, 0
12, 60960, Note_on_c, 9, 69, 92
12, 60990, Note_on_c, 9, 69, 0
12, 61020, Note_on_c, 9, 69, 85
12, 61050, Note_on_c, 9, 69, 0
12, 61080, Note_on_c, 9, 69, 92
12, 61080, Note_on_c, 9, 54, 124
12, 61085, Note_on_c, 9, 53, 117
12, 61110, Note_on_c, 9, 54, 0
12, 61110, Note_on_c, 9, 69, 0
12, 61132, Note_on_c, 9, 53, 0
12, 61140, Note_on_c, 9, 69, 79
12, 61170, Note_on_c, 9, 69, 0
12, 61200, Note_on_c, 9, 69, 92
12, 61230, Note_on_c, 9, 69, 0
12, 61260, Note_on_c, 9, 69, 80
12, 61290, Note_on_c, 9, 69, 0
12, 61320, Note_on_c, 9, 54, 124
12, 61320, Note_on_c, 9, 69, 94
12, 61326, Note_on_c, 9, 53, 117
12, 61350, Note_on_c, 9, 69, 0
12, 61350, Note_on_c, 9, 54, 0
12, 61375, Note_on_c, 9, 53, 0
12, 61380, Note_on_c, 9, 69, 78
12, 61410, Note_on_c, 9, 69, 0
12, 61440, Note_on_c, 9, 69, 92
12, 61440, Note_on_c, 9, 49, 92
12, 61440, Note_on_c, 9, 57, 82
12, 61455, Note_on_c, 9, 57, 0
12, 61455, Note_on_c, 9, 49, 0
12, 61470, Note_on_c, 9, 69, 0
12, 61500, Note_on_c, 9, 69, 76
12, 61530, Note_on_c, 9, 69, 0
12, 61560, Note_on_c, 9, 54, 126
12, 61560, Note_on_c, 9, 69, 85
12, 61569, Note_on_c, 9, 53, 117
12, 61590, Note_on_c, 9, 69, 0
12, 61590, Note_on_c, 9, 54, 0
12, 61614, Note_on_c, 9, 53, 0
12, 61620, Note_on_c, 9, 69, 80
12, 61650, Note_on_c, 9, 69, 0
12, 61680, Note_on_c, 9, 69, 88
12, 61710, Note_on_c, 9, 69, 0
12, 61740, Note_on_c, 9, 69, 73
12, 61770, Note_on_c, 9, 69, 0
12, 61800, Note_on_c, 9, 54, 126
12, 61800, Note_on_c, 9, 69, 90
12, 61805, Note_on_c, 9, 53, 97
12, 61830, Note_on_c, 9, 69, 0
12, 61830, Note_on_c, 9, 54, 0
12, 61846, Note_on_c, 9, 53, 0
12, 61860, Note_on_c, 9, 69, 79
12, 61890, Note_on_c, 9, 69, 0
12, 61920, Note_on_c, 9, 69, 92
12, 61950, Note_on_c, 9, 69, 0
12, 61980, Note_on_c, 9, 69, 70
12, 62010, Note_on_c, 9, 69, 0
12, 62040, Note_on_c, 9, 69, 92
12, 62040, Note_on_c, 9, 54, 124
12, 62051, Note_on_c, 9, 53, 110
12, 62070, Note_on_c, 9, 54, 0
12, 62070, Note_on_c, 9, 69, 0
12, 62100, Note_on_c, 9, 69, 64
12, 62101, Note_on_c, 9, 53, 0
12, 62130, Note_on_c, 9, 69, 0
12, 62160, Note_on_c, 9, 69, 99
12, 62190, Note_on_c, 9, 69, 0
12, 62220, Note_on_c, 9, 69, 67
12, 62250, Note_on_c, 9, 69, 0
12, 62280, Note_on_c, 9, 69, 92
12, 62280, Note_on_c, 9, 54, 124
12, 62285, Note_on_c, 9, 53, 107
12, 62310, Note_on_c, 9, 54, 0
12, 62310, Note_on_c, 9, 69, 0
12, 62329, Note_on_c, 9, 53, 0
12, 62340, Note_on_c, 9, 69, 67
12, 62370, Note_on_c, 9, 69, 0
12, 62400, Note_on_c, 9, 69, 97
12, 62420, Control_c, 9, 7, 114
12, 62430, Note_on_c, 9, 69, 0
12, 62450, Control_c, 9, 7, 113
12, 62460, Note_on_c, 9, 69, 66
12, 62480, Control_c, 9, 7, 112
12, 62490, Note_on_c, 9, 69, 0
12, 62500, Control_c, 9, 7, 111
12, 62520, Note_on_c, 9, 69, 97
12, 62520, Note_on_c, 9, 54, 119
12, 62524, Note_on_c, 9, 53, 104
12, 62530, Control_c, 9, 7, 110
12, 62550, Note_on_c, 9, 54, 0
12, 62550, Note_on_c, 9, 69, 0
12, 62550, Control_c, 9, 7, 109
12, 62564, Note_on_c, 9, 53, 0
12, 62580, Control_c, 9, 7, 108
12, 62580, Note_on_c, 9, 69, 67
12, 62600, Control_c, 9, 7, 107
12, 62610, Note_on_c, 9, 69, 0
12, 62630, Control_c, 9, 7, 106
12, 62640, Note_on_c, 9, 69, 110
12, 62650, Control_c, 9, 7, 105
12, 62670, Note_on_c, 9, 69, 0
12, 62680, Control_c, 9, 7, 104
12, 62700, Note_on_c, 9, 69, 66
12, 62710, Control_c, 9, 7, 103
12, 62730, Note_on_c, 9, 69, 0
12, 62730, Control_c, 9, 7, 102
12, 62760, Control_c, 9, 7, 101
12, 62760, Note_on_c, 9, 69, 99
12, 62760, Note_on_c, 9, 54, 124
12, 62764, Note_on_c, 9, 53, 104
12, 62780, Control_c, 9, 7, 100
12, 62790, Note_on_c, 9, 54, 0
12, 62790, Note_on_c, 9, 69, 0
12, 62808, Note_on_c, 9, 53, 0
12, 62810, Control_c, 9, 7, 99
12, 62820, Note_on_c, 9, 69, 79
12, 62830, Control_c, 9, 7, 98
12, 62850, Note_on_c, 9, 69, 0
12, 62860, Control_c, 9, 7, 97
12, 62880, Control_c, 9, 7, 96
12, 62880, Note_on_c, 9, 69, 104
12, 62910, Note_on_c, 9, 69, 0
12, 62910, Control_c, 9, 7, 95
12, 62940, Control_c, 9, 7, 94
12, 62940, Note_on_c, 9, 69, 75
12, 62960, Control_c, 9, 7, 93
12, 62970, Note_on_c, 9, 69, 0
12, 62990, Control_c, 9, 7, 92
12, 63000, Note_on_c, 9, 69, 107
12, 63000, Note_on_c, 9, 54, 119
12, 63000, Note_on_c, 9, 53, 110
12, 63010, Control_c, 9, 7, 91
12, 63030, Note_on_c, 9, 69, 0
12, 63040, Note_on_c, 9, 53, 0
12, 63040, Control_c, 9, 7, 90
12, 63060, Note_on_c, 9, 54, 0
12, 63060, Control_c, 9, 7, 89
12, 63060, Note_on_c, 9, 69, 66
12, 63090, Note_on_c, 9, 69, 0
12, 63090, Control_c, 9, 7, 88
12, 63110, Control_c, 9, 7, 87
12, 63120, Note_on_c, 9, 69, 97
12, 63120, Note_on_c, 9, 45, 90
12, 63140, Control_c, 9, 7, 86
12, 63150, Note_on_c, 9, 45, 0
12, 63150, Note_on_c, 9, 69, 0
12, 63170, Control_c, 9, 7, 85
12, 63180, Note_on_c, 9, 69, 69
12, 63180, Note_on_c, 9, 47, 117
12, 63190, Control_c, 9, 7, 84
12, 63210, Note_on_c, 9, 47, 0
12, 63210, Note_on_c, 9, 69, 0
12, 63220, Control_c, 9, 7, 83
12, 63240, Control_c, 9, 7, 82
12, 63240, Note_on_c, 9, 69, 99
12, 63240, Note_on_c, 9, 54, 119
12, 63244, Note_on_c, 9, 53, 107
12, 63255, Note_on_c, 9, 43, 123
12, 63270, Note_on_c, 9, 43, 0
12, 63270, Note_on_c, 9, 69, 0
12, 63270, Note_on_c, 9, 54, 0
12, 63270, Control_c, 9, 7, 81
12, 63284, Note_on_c, 9, 53, 0
12, 63290, Control_c, 9, 7, 80
12, 63300, Note_on_c, 9, 69, 74
12, 63300, Note_on_c, 9, 43, 94
12, 63315, Note_on_c, 9, 43, 0
12, 63320, Control_c, 9, 7, 79
12, 63330, Note_on_c, 9, 69, 0
12, 63340, Control_c, 9, 7, 78
12, 63360, Note_on_c, 9, 69, 104
12, 63360, Note_on_c, 9, 55, 117
12, 63360, Note_on_c, 9, 57, 104
12, 63370, Control_c, 9, 7, 77
12, 63375, Note_on_c, 9, 55, 0
12, 63390, Note_on_c, 9, 57, 0
12, 63390, Note_on_c, 9, 69, 0
12, 63400, Control_c, 9, 7, 76
12, 63420, Control_c, 9, 7, 75
12, 63420, Note_on_c, 9, 69, 66
12, 63450, Note_on_c, 9, 69, 0
12, 63450, Control_c, 9, 7, 74
12, 63470, Control_c, 9, 7, 73
12, 63477, Note_on_c, 9, 53, 78
12, 63480, Note_on_c, 9, 69, 104
12, 63480, Note_on_c, 9, 54, 119
12, 63500, Control_c, 9, 7, 72
12, 63510, Note_on_c, 9, 69, 0
12, 63520, Control_c, 9, 7, 71
12, 63540, Note_on_c, 9, 54, 0
12, 63540, Note_on_c, 9, 69, 63
12, 63547, Note_on_c, 9, 53, 0
12, 63550, Control_c, 9, 7, 70
12, 63570, Note_on_c, 9, 69, 0
12, 63570, Control_c, 9, 7, 69
12, 63600, Control_c, 9, 7, 68
12, 63600, Note_on_c, 9, 69, 104
12, 63630, Note_on_c, 9, 69, 0
12, 63630, Control_c, 9, 7, 67
12, 63650, Control_c, 9, 7, 66
12, 63660, Note_on_c, 9, 69, 58
12, 63680, Control_c, 9, 7, 65
12, 63690, Note_on_c, 9, 69, 0
12, 63700, Control_c, 9, 7, 64
12, 63720, Note_on_c, 9, 69, 110
12, 63720, Note_on_c, 9, 54, 119
12, 63726, Note_on_c, 9, 53, 74
12, 63730, Control_c, 9, 7, 63
12, 63750, Note_on_c, 9, 54, 0
12, 63750, Note_on_c, 9, 69, 0
12, 63750, Control_c, 9, 7, 62
12, 63780, Control_c, 9, 7, 61
12, 63780, Note_on_c, 9, 69, 60
12, 63800, Control_c, 9, 7, 60
12, 63802, Note_on_c, 9, 53, 0
12, 63810, Note_on_c, 9, 69, 0
12, 63830, Control_c, 9, 7, 59
12, 63840, Note_on_c, 9, 69, 107
12, 63850, Control_c, 9, 7, 58
12, 63855, Note_on_c, 9, 55, 120
12, 63870, Note_on_c, 9, 55, 0
12, 63870, Note_on_c, 9, 69, 0
12, 63880, Control_c, 9, 7, 57
12, 63900, Note_on_c, 9, 69, 60
12, 63910, Control_c, 9, 7, 56
12, 63930, Note_on_c, 9, 69, 0
12, 63930, Control_c, 9, 7, 55
12, 63960, Control_c, 9, 7, 54
12, 63960, Note_on_c, 9, 69, 107
12, 63960, Note_on_c, 9, 54, 119
12, 63960, Note_on_c, 9, 53, 78
12, 63980, Control_c, 9, 7, 53
12, 63990, Note_on_c, 9, 54, 0
12, 63990, Note_on_c, 9, 69, 0
12, 63991, Note_on_c, 9, 53, 0
12, 64010, Control_c, 9, 7, 52
12, 64020, Note_on_c, 9, 69, 58
12, 64030, Control_c, 9, 7, 51
12, 64050, Note_on_c, 9, 69, 0
12, 64060, Control_c, 9, 7, 50
12, 64080, Control_c, 9, 7, 49
12, 64080, Note_on_c, 9, 69, 110
12, 64110, Note_on_c, 9, 69, 0
12, 64110, Control_c, 9, 7, 48
12, 64140, Control_c, 9, 7, 47
12, 64140, Note_on_c, 9, 69, 60
12, 64160, Control_c, 9, 7, 46
12, 64170, Note_on_c, 9, 69, 0
12, 64190, Control_c, 9, 7, 45
12, 64200, Note_on_c, 9, 69, 104
12, 64200, Note_on_c, 9, 54, 119
12, 64202, Note_on_c, 9, 53, 54
12, 64210, Control_c, 9, 7, 44
12, 64230, Note_on_c, 9, 54, 0
12, 64230, Note_on_c, 9, 69, 0
12, 64239, Note_on_c, 9, 53, 0
12, 64240, Control_c, 9, 7, 43
12, 64260, Control_c, 9, 7, 42
12, 64260, Note_on_c, 9, 69, 62
12, 64290, Note_on_c, 9, 69, 0
12, 64290, Control_c, 9, 7, 41
12, 64310, Control_c, 9, 7, 40
12, 64320, Note_on_c, 9, 69, 107
12, 64320, Note_on_c, 9, 55, 125
12, 64335, Note_on_c, 9, 55, 0
12, 64340, Control_c, 9, 7, 39
12, 64350, Note_on_c, 9, 69, 0
12, 64370, Control_c, 9, 7, 38
12, 64380, Note_on_c, 9, 69, 57
12, 64390, Control_c, 9, 7, 37
12, 64410, Note_on_c, 9, 69, 0
12, 64420, Control_c, 9, 7, 36
12, 64440, Control_c, 9, 7, 35
12, 64440, Note_on_c, 9, 54, 124
12, 64440, Note_on_c, 9, 69, 104
12, 64444, Note_on_c, 9, 53, 54
12, 64470, Note_on_c, 9, 69, 0
12, 64470, Note_on_c, 9, 54, 0
12, 64470, Control_c, 9, 7, 34
12, 64480, Note_on_c, 9, 53, 0
12, 64490, Control_c, 9, 7, 33
12, 64500, Note_on_c, 9, 69, 61
12, 64520, Control_c, 9, 7, 32
12, 64530, Note_on_c, 9, 69, 0
12, 64540, Control_c, 9, 7, 31
12, 64560, Note_on_c, 9, 69, 104
12, 64570, Control_c, 9, 7, 30
12, 64590, Note_on_c, 9, 69, 0
12, 64600, Control_c, 9, 7, 29
12, 64620, Control_c, 9, 7, 28
12, 64620, Note_on_c, 9, 69, 61
12, 64650, Note_on_c, 9, 69, 0
12, 64650, Control_c, 9, 7, 27
12, 64670, Control_c, 9, 7, 26
12, 64680, Note_on_c, 9, 54, 124
12, 64680, Note_on_c, 9, 69, 101
12, 64684, Note_on_c, 9, 53, 50
12, 64700, Control_c, 9, 7, 25
12, 64710, Note_on_c, 9, 69, 0
12, 64720, Control_c, 9, 7, 24
12, 64721, Note_on_c, 9, 53, 0
12, 64740, Note_on_c, 9, 54, 0
12, 64740, Note_on_c, 9, 69, 74
12, 64750, Control_c, 9, 7, 23
12, 64770, Note_on_c, 9, 69, 0
12, 64770, Control_c, 9, 7, 22
12, 64800, Control_c, 9, 7, 21
12, 64800, Note_on_c, 9, 69, 104
12, 64800, Note_on_c, 9, 55, 125
12, 64830, Note_on_c, 9, 55, 0
12, 64830, Note_on_c, 9, 69, 0
12, 64830, Control_c, 9, 7, 20
12, 64850, Control_c, 9, 7, 19
12, 64860, Note_on_c, 9, 69, 83
12, 64880, Control_c, 9, 7, 18
12, 64890, Note_on_c, 9, 69, 0
12, 64900, Control_c, 9, 7, 17
12, 64914, Note_on_c, 9, 53, 35
12, 64920, Note_on_c, 9, 54, 109
12, 64920, Note_on_c, 9, 69, 104
12, 64930, Control_c, 9, 7, 16
12, 64950, Note_on_c, 9, 69, 0
12, 64950, Note_on_c, 9, 54, 0
12, 64950, Control_c, 9, 7, 15
12, 64955, Note_on_c, 9, 53, 0
12, 64980, Control_c, 9, 7, 14
12, 64980, Note_on_c, 9, 69, 82
12, 65000, Control_c, 9, 7, 13
12, 65010, Note_on_c, 9, 69, 0
12, 65030, Control_c, 9, 7, 12
12, 65040, Note_on_c, 9, 54, 119
12, 65040, Note_on_c, 9, 57, 110
12, 65040, Note_on_c, 9, 69, 107
12, 65060, Control_c, 9, 7, 11
12, 65070, Note_on_c, 9, 69, 0
12, 65070, Note_on_c, 9, 57, 0
12, 65070, Note_on_c, 9, 54, 0
12, 65080, Control_c, 9, 7, 10
12, 65110, Control_c, 9, 7, 9
12, 65130, Control_c, 9, 7, 8
12, 65160, Control_c, 9, 7, 7
12, 65180, Control_c, 9, 7, 6
12, 65210, Control_c, 9, 7, 5
12, 65230, Control_c, 9, 7, 4
12, 65260, Control_c, 9, 7, 3
12, 65280, Note_on_c, 9, 57, 86
12, 65280, Note_on_c, 9, 55, 92
12, 65280, Control_c, 9, 7, 2
12, 65295, Note_on_c, 9, 55, 0
12, 65295, Note_on_c, 9, 57, 0
12, 65295, End_track
13, 0, Start_track
13, 0, MIDI_port, 0
13, 0, Title_t, "Dulcimer"
13, 0, Control_c, 11, 0, 56
13, 0, Control_c, 11, 32, 0
13, 0, Program_c, 11, 15
13, 0, Control_c, 11, 7, 95
13, 0, Control_c, 11, 10, 63
13, 28030, Control_c, 11, 93, 72
13, 28030, Control_c, 11, 93, 73
13, 29045, Control_c, 11, 10, 60
13, 29100, Control_c, 11, 10, 57
13, 29110, Control_c, 11, 10, 54
13, 29125, Control_c, 11, 10, 52
13, 29150, Control_c, 11, 10, 51
13, 29260, Control_c, 11, 10, 48
13, 42240, Note_on_c, 11, 61, 44
13, 42240, Note_on_c, 11, 70, 55
13, 42240, Note_on_c, 11, 65, 53
13, 42270, Note_on_c, 11, 65, 0
13, 42270, Note_on_c, 11, 70, 0
13, 42270, Note_on_c, 11, 61, 100
13, 42270, Note_on_c, 11, 70, 54
13, 42270, Note_on_c, 11, 65, 80
13, 42300, Note_on_c, 11, 65, 0
13, 42300, Note_on_c, 11, 61, 0
13, 42300, Note_on_c, 11, 61, 0
13, 42300, Note_on_c, 11, 70, 0
13, 42330, Note_on_c, 11, 61, 48
13, 42330, Note_on_c, 11, 65, 66
13, 42330, Note_on_c, 11, 70, 57
13, 42360, Note_on_c, 11, 70, 0
13, 42360, Note_on_c, 11, 65, 0
13, 42360, Note_on_c, 11, 61, 0
13, 42360, Note_on_c, 11, 70, 64
13, 42360, Note_on_c, 11, 61, 52
13, 42360, Note_on_c, 11, 65, 71
13, 42390, Note_on_c, 11, 65, 0
13, 42390, Note_on_c, 11, 61, 0
13, 42390, Note_on_c, 11, 70, 0
13, 42480, Note_on_c, 11, 70, 73
13, 42480, Note_on_c, 11, 61, 58
13, 42480, Note_on_c, 11, 65, 73
13, 42510, Note_on_c, 11, 65, 0
13, 42510, Note_on_c, 11, 61, 0
13, 42510, Note_on_c, 11, 70, 0
13, 42510, Note_on_c, 11, 61, 49
13, 42510, Note_on_c, 11, 70, 57
13, 42510, Note_on_c, 11, 65, 67
13, 42540, Note_on_c, 11, 65, 0
13, 42540, Note_on_c, 11, 70, 0
13, 42540, Note_on_c, 11, 61, 0
13, 42570, Note_on_c, 11, 70, 79
13, 42570, Note_on_c, 11, 61, 62
13, 42570, Note_on_c, 11, 65, 78
13, 42600, Note_on_c, 11, 65, 0
13, 42600, Note_on_c, 11, 61, 0
13, 42600, Note_on_c, 11, 70, 0
13, 42600, Note_on_c, 11, 61, 48
13, 42600, Note_on_c, 11, 70, 69
13, 42600, Note_on_c, 11, 65, 75
13, 42630, Note_on_c, 11, 65, 0
13, 42630, Note_on_c, 11, 70, 0
13, 42630, Note_on_c, 11, 61, 0
13, 42720, Note_on_c, 11, 70, 84
13, 42720, Note_on_c, 11, 61, 56
13, 42720, Note_on_c, 11, 65, 79
13, 42750, Note_on_c, 11, 65, 0
13, 42750, Note_on_c, 11, 61, 0
13, 42750, Note_on_c, 11, 70, 0
13, 42750, Note_on_c, 11, 61, 49
13, 42750, Note_on_c, 11, 70, 59
13, 42750, Note_on_c, 11, 65, 69
13, 42780, Note_on_c, 11, 65, 0
13, 42780, Note_on_c, 11, 70, 0
13, 42780, Note_on_c, 11, 61, 0
13, 42810, Note_on_c, 11, 70, 89
13, 42810, Note_on_c, 11, 65, 75
13, 42810, Note_on_c, 11, 61, 48
13, 42840, Note_on_c, 11, 61, 0
13, 42840, Note_on_c, 11, 65, 0
13, 42840, Note_on_c, 11, 70, 0
13, 42840, Note_on_c, 11, 61, 46
13, 42840, Note_on_c, 11, 70, 60
13, 42840, Note_on_c, 11, 65, 73
13, 42870, Note_on_c, 11, 65, 0
13, 42870, Note_on_c, 11, 70, 0
13, 42870, Note_on_c, 11, 61, 0
13, 42960, Note_on_c, 11, 70, 81
13, 42960, Note_on_c, 11, 61, 58
13, 42960, Note_on_c, 11, 65, 80
13, 42990, Note_on_c, 11, 65, 0
13, 42990, Note_on_c, 11, 61, 0
13, 42990, Note_on_c, 11, 70, 0
13, 42990, Note_on_c, 11, 61, 52
13, 42990, Note_on_c, 11, 70, 62
13, 42990, Note_on_c, 11, 65, 74
13, 43020, Note_on_c, 11, 65, 0
13, 43020, Note_on_c, 11, 70, 0
13, 43020, Note_on_c, 11, 61, 0
13, 43050, Note_on_c, 11, 70, 86
13, 43050, Note_on_c, 11, 61, 58
13, 43050, Note_on_c, 11, 65, 79
13, 43080, Note_on_c, 11, 65, 0
13, 43080, Note_on_c, 11, 61, 0
13, 43080, Note_on_c, 11, 70, 0
13, 43080, Note_on_c, 11, 70, 68
13, 43080, Note_on_c, 11, 61, 48
13, 43080, Note_on_c, 11, 65, 75
13, 43110, Note_on_c, 11, 65, 0
13, 43110, Note_on_c, 11, 61, 0
13, 43110, Note_on_c, 11, 70, 0
13, 43200, Note_on_c, 11, 65, 79
13, 43200, Note_on_c, 11, 68, 84
13, 43200, Note_on_c, 11, 60, 60
13, 43230, Note_on_c, 11, 60, 0
13, 43230, Note_on_c, 11, 68, 0
13, 43230, Note_on_c, 11, 65, 0
13, 43230, Note_on_c, 11, 60, 41
13, 43230, Note_on_c, 11, 68, 59
13, 43230, Note_on_c, 11, 65, 63
13, 43260, Note_on_c, 11, 65, 0
13, 43260, Note_on_c, 11, 68, 0
13, 43260, Note_on_c, 11, 60, 0
13, 43290, Note_on_c, 11, 68, 81
13, 43290, Note_on_c, 11, 65, 75
13, 43290, Note_on_c, 11, 60, 64
13, 43320, Note_on_c, 11, 60, 0
13, 43320, Note_on_c, 11, 65, 0
13, 43320, Note_on_c, 11, 68, 0
13, 43320, Note_on_c, 11, 60, 52
13, 43320, Note_on_c, 11, 68, 54
13, 43320, Note_on_c, 11, 65, 48
13, 43350, Note_on_c, 11, 65, 0
13, 43350, Note_on_c, 11, 68, 0
13, 43350, Note_on_c, 11, 60, 0
13, 43440, Note_on_c, 11, 68, 69
13, 43440, Note_on_c, 11, 60, 60
13, 43440, Note_on_c, 11, 65, 62
13, 43470, Note_on_c, 11, 65, 0
13, 43470, Note_on_c, 11, 60, 0
13, 43470, Note_on_c, 11, 68, 0
13, 43470, Note_on_c, 11, 68, 54
13, 43470, Note_on_c, 11, 60, 55
13, 43470, Note_on_c, 11, 65, 64
13, 43500, Note_on_c, 11, 65, 0
13, 43500, Note_on_c, 11, 60, 0
13, 43500, Note_on_c, 11, 68, 0
13, 43530, Note_on_c, 11, 68, 81
13, 43530, Note_on_c, 11, 65, 66
13, 43530, Note_on_c, 11, 60, 60
13, 43560, Note_on_c, 11, 60, 0
13, 43560, Note_on_c, 11, 65, 0
13, 43560, Note_on_c, 11, 68, 0
13, 43560, Note_on_c, 11, 60, 60
13, 43560, Note_on_c, 11, 68, 66
13, 43560, Note_on_c, 11, 65, 65
13, 43590, Note_on_c, 11, 65, 0
13, 43590, Note_on_c, 11, 68, 0
13, 43590, Note_on_c, 11, 60, 0
13, 43680, Note_on_c, 11, 68, 86
13, 43680, Note_on_c, 11, 65, 78
13, 43680, Note_on_c, 11, 60, 65
13, 43710, Note_on_c, 11, 65, 0
13, 43710, Note_on_c, 11, 68, 0
13, 43710, Note_on_c, 11, 68, 54
13, 43710, Note_on_c, 11, 65, 61
13, 43740, Note_on_c, 11, 65, 0
13, 43740, Note_on_c, 11, 68, 0
13, 43740, Note_on_c, 11, 60, 0
13, 43770, Note_on_c, 11, 68, 79
13, 43770, Note_on_c, 11, 65, 69
13, 43770, Note_on_c, 11, 60, 52
13, 43800, Note_on_c, 11, 60, 0
13, 43800, Note_on_c, 11, 65, 0
13, 43800, Note_on_c, 11, 68, 0
13, 43800, Note_on_c, 11, 60, 62
13, 43800, Note_on_c, 11, 68, 66
13, 43800, Note_on_c, 11, 65, 67
13, 43830, Note_on_c, 11, 65, 0
13, 43830, Note_on_c, 11, 68, 0
13, 43830, Note_on_c, 11, 60, 0
13, 43920, Note_on_c, 11, 68, 92
13, 43920, Note_on_c, 11, 65, 82
13, 43920, Note_on_c, 11, 60, 72
13, 43950, Note_on_c, 11, 65, 0
13, 43950, Note_on_c, 11, 68, 0
13, 43950, Note_on_c, 11, 68, 60
13, 43950, Note_on_c, 11, 65, 65
13, 43980, Note_on_c, 11, 65, 0
13, 43980, Note_on_c, 11, 68, 0
13, 43980, Note_on_c, 11, 60, 0
13, 44010, Note_on_c, 11, 68, 86
13, 44010, Note_on_c, 11, 65, 76
13, 44010, Note_on_c, 11, 60, 66
13, 44040, Note_on_c, 11, 60, 0
13, 44040, Note_on_c, 11, 65, 0
13, 44040, Note_on_c, 11, 68, 0
13, 44040, Note_on_c, 11, 60, 55
13, 44040, Note_on_c, 11, 68, 64
13, 44040, Note_on_c, 11, 65, 67
13, 44070, Note_on_c, 11, 65, 0
13, 44070, Note_on_c, 11, 68, 0
13, 44070, Note_on_c, 11, 60, 0
13, 44160, Note_on_c, 11, 70, 69
13, 44160, Note_on_c, 11, 61, 54
13, 44160, Note_on_c, 11, 65, 75
13, 44190, Note_on_c, 11, 65, 0
13, 44190, Note_on_c, 11, 61, 0
13, 44190, Note_on_c, 11, 70, 0
13, 44190, Note_on_c, 11, 61, 35
13, 44190, Note_on_c, 11, 70, 46
13, 44190, Note_on_c, 11, 65, 72
13, 44220, Note_on_c, 11, 65, 0
13, 44220, Note_on_c, 11, 70, 0
13, 44220, Note_on_c, 11, 61, 0
13, 44250, Note_on_c, 11, 70, 79
13, 44250, Note_on_c, 11, 61, 58
13, 44250, Note_on_c, 11, 65, 78
13, 44280, Note_on_c, 11, 65, 0
13, 44280, Note_on_c, 11, 61, 0
13, 44280, Note_on_c, 11, 70, 0
13, 44280, Note_on_c, 11, 61, 47
13, 44280, Note_on_c, 11, 70, 60
13, 44280, Note_on_c, 11, 65, 74
13, 44310, Note_on_c, 11, 65, 0
13, 44310, Note_on_c, 11, 70, 0
13, 44310, Note_on_c, 11, 61, 0
13, 44400, Note_on_c, 11, 70, 69
13, 44400, Note_on_c, 11, 61, 63
13, 44400, Note_on_c, 11, 65, 82
13, 44430, Note_on_c, 11, 65, 0
13, 44430, Note_on_c, 11, 61, 0
13, 44430, Note_on_c, 11, 70, 0
13, 44430, Note_on_c, 11, 61, 46
13, 44430, Note_on_c, 11, 65, 72
13, 44430, Note_on_c, 11, 70, 51
13, 44460, Note_on_c, 11, 70, 0
13, 44460, Note_on_c, 11, 65, 0
13, 44460, Note_on_c, 11, 61, 0
13, 44490, Note_on_c, 11, 70, 79
13, 44490, Note_on_c, 11, 61, 58
13, 44490, Note_on_c, 11, 65, 78
13, 44520, Note_on_c, 11, 65, 0
13, 44520, Note_on_c, 11, 61, 0
13, 44520, Note_on_c, 11, 70, 0
13, 44520, Note_on_c, 11, 61, 49
13, 44520, Note_on_c, 11, 70, 64
13, 44520, Note_on_c, 11, 65, 76
13, 44550, Note_on_c, 11, 65, 0
13, 44550, Note_on_c, 11, 70, 0
13, 44550, Note_on_c, 11, 61, 0
13, 44640, Note_on_c, 11, 61, 57
13, 44640, Note_on_c, 11, 70, 86
13, 44640, Note_on_c, 11, 65, 82
13, 44670, Note_on_c, 11, 65, 0
13, 44670, Note_on_c, 11, 70, 0
13, 44670, Note_on_c, 11, 61, 0
13, 44670, Note_on_c, 11, 61, 49
13, 44670, Note_on_c, 11, 70, 54
13, 44670, Note_on_c, 11, 65, 68
13, 44700, Note_on_c, 11, 65, 0
13, 44700, Note_on_c, 11, 70, 0
13, 44700, Note_on_c, 11, 61, 0
13, 44730, Note_on_c, 11, 70, 86
13, 44730, Note_on_c, 11, 61, 51
13, 44760, Note_on_c, 11, 61, 0
13, 44760, Note_on_c, 11, 70, 0
13, 44760, Note_on_c, 11, 61, 52
13, 44760, Note_on_c, 11, 65, 78
13, 44760, Note_on_c, 11, 70, 63
13, 44790, Note_on_c, 11, 70, 0
13, 44790, Note_on_c, 11, 65, 0
13, 44790, Note_on_c, 11, 61, 0
13, 44880, Note_on_c, 11, 70, 77
13, 44880, Note_on_c, 11, 61, 57
13, 44880, Note_on_c, 11, 65, 75
13, 44910, Note_on_c, 11, 65, 0
13, 44910, Note_on_c, 11, 61, 0
13, 44910, Note_on_c, 11, 70, 0
13, 44910, Note_on_c, 11, 61, 47
13, 44910, Note_on_c, 11, 65, 71
13, 44910, Note_on_c, 11, 70, 56
13, 44940, Note_on_c, 11, 70, 0
13, 44940, Note_on_c, 11, 65, 0
13, 44940, Note_on_c, 11, 61, 0
13, 44970, Note_on_c, 11, 70, 89
13, 44970, Note_on_c, 11, 65, 83
13, 44970, Note_on_c, 11, 61, 56
13, 45000, Note_on_c, 11, 61, 0
13, 45000, Note_on_c, 11, 65, 0
13, 45000, Note_on_c, 11, 70, 0
13, 45000, Note_on_c, 11, 61, 54
13, 45000, Note_on_c, 11, 70, 66
13, 45000, Note_on_c, 11, 65, 80
13, 45030, Note_on_c, 11, 65, 0
13, 45030, Note_on_c, 11, 70, 0
13, 45030, Note_on_c, 11, 61, 0
13, 45120, Note_on_c, 11, 65, 72
13, 45120, Note_on_c, 11, 68, 81
13, 45120, Note_on_c, 11, 60, 57
13, 45150, Note_on_c, 11, 60, 0
13, 45150, Note_on_c, 11, 68, 0
13, 45150, Note_on_c, 11, 65, 0
13, 45150, Note_on_c, 11, 68, 63
13, 45150, Note_on_c, 11, 65, 67
13, 45180, Note_on_c, 11, 65, 0
13, 45180, Note_on_c, 11, 68, 0
13, 45210, Note_on_c, 11, 68, 84
13, 45210, Note_on_c, 11, 65, 72
13, 45210, Note_on_c, 11, 60, 57
13, 45240, Note_on_c, 11, 60, 0
13, 45240, Note_on_c, 11, 65, 0
13, 45240, Note_on_c, 11, 68, 0
13, 45240, Note_on_c, 11, 60, 56
13, 45240, Note_on_c, 11, 68, 63
13, 45240, Note_on_c, 11, 65, 68
13, 45270, Note_on_c, 11, 65, 0
13, 45270, Note_on_c, 11, 68, 0
13, 45270, Note_on_c, 11, 60, 0
13, 45360, Note_on_c, 11, 68, 84
13, 45360, Note_on_c, 11, 65, 78
13, 45360, Note_on_c, 11, 60, 62
13, 45390, Note_on_c, 11, 60, 0
13, 45390, Note_on_c, 11, 65, 0
13, 45390, Note_on_c, 11, 68, 0
13, 45390, Note_on_c, 11, 60, 45
13, 45390, Note_on_c, 11, 68, 59
13, 45390, Note_on_c, 11, 65, 63
13, 45420, Note_on_c, 11, 65, 0
13, 45420, Note_on_c, 11, 68, 0
13, 45420, Note_on_c, 11, 60, 0
13, 45450, Note_on_c, 11, 60, 100
13, 45450, Note_on_c, 11, 65, 100
13, 45450, Note_on_c, 11, 68, 100
13, 45480, Note_on_c, 11, 68, 0
13, 45480, Note_on_c, 11, 65, 0
13, 45480, Note_on_c, 11, 60, 0
13, 45480, Note_on_c, 11, 68, 89
13, 45480, Note_on_c, 11, 60, 62
13, 45480, Note_on_c, 11, 65, 63
13, 45510, Note_on_c, 11, 65, 0
13, 45510, Note_on_c, 11, 60, 0
13, 45510, Note_on_c, 11, 68, 0
13, 45600, Note_on_c, 11, 68, 68
13, 45600, Note_on_c, 11, 65, 63
13, 45600, Note_on_c, 11, 60, 63
13, 45630, Note_on_c, 11, 65, 0
13, 45630, Note_on_c, 11, 68, 0
13, 45630, Note_on_c, 11, 68, 55
13, 45630, Note_on_c, 11, 65, 68
13, 45660, Note_on_c, 11, 65, 0
13, 45660, Note_on_c, 11, 68, 0
13, 45660, Note_on_c, 11, 60, 0
13, 45690, Note_on_c, 11, 68, 79
13, 45690, Note_on_c, 11, 65, 66
13, 45690, Note_on_c, 11, 60, 51
13, 45720, Note_on_c, 11, 60, 0
13, 45720, Note_on_c, 11, 65, 0
13, 45720, Note_on_c, 11, 68, 0
13, 45720, Note_on_c, 11, 60, 58
13, 45720, Note_on_c, 11, 65, 67
13, 45720, Note_on_c, 11, 68, 69
13, 45750, Note_on_c, 11, 68, 0
13, 45750, Note_on_c, 11, 65, 0
13, 45750, Note_on_c, 11, 60, 0
13, 45840, Note_on_c, 11, 68, 81
13, 45840, Note_on_c, 11, 65, 74
13, 45840, Note_on_c, 11, 60, 65
13, 45870, Note_on_c, 11, 60, 0
13, 45870, Note_on_c, 11, 65, 0
13, 45870, Note_on_c, 11, 68, 0
13, 45870, Note_on_c, 11, 68, 57
13, 45870, Note_on_c, 11, 65, 65
13, 45870, Note_on_c, 11, 60, 52
13, 45900, Note_on_c, 11, 60, 0
13, 45900, Note_on_c, 11, 65, 0
13, 45900, Note_on_c, 11, 68, 0
13, 45930, Note_on_c, 11, 68, 79
13, 45930, Note_on_c, 11, 65, 71
13, 45930, Note_on_c, 11, 60, 52
13, 45960, Note_on_c, 11, 60, 0
13, 45960, Note_on_c, 11, 65, 0
13, 45960, Note_on_c, 11, 68, 0
13, 45960, Note_on_c, 11, 60, 57
13, 45960, Note_on_c, 11, 68, 63
13, 45960, Note_on_c, 11, 65, 66
13, 45990, Note_on_c, 11, 65, 0
13, 45990, Note_on_c, 11, 68, 0
13, 45990, Note_on_c, 11, 60, 0
13, 46080, Note_on_c, 11, 70, 79
13, 46080, Note_on_c, 11, 61, 46
13, 46080, Note_on_c, 11, 65, 74
13, 46080, Note_on_c, 11, 68, 68
13, 46110, Note_on_c, 11, 68, 0
13, 46110, Note_on_c, 11, 70, 0
13, 46110, Note_on_c, 11, 61, 0
13, 46110, Note_on_c, 11, 65, 0
13, 46110, Note_on_c, 11, 61, 24
13, 46110, Note_on_c, 11, 65, 74
13, 46110, Note_on_c, 11, 70, 54
13, 46140, Note_on_c, 11, 70, 0
13, 46140, Note_on_c, 11, 65, 0
13, 46140, Note_on_c, 11, 61, 0
13, 46170, Note_on_c, 11, 70, 89
13, 46170, Note_on_c, 11, 65, 82
13, 46170, Note_on_c, 11, 61, 55
13, 46200, Note_on_c, 11, 61, 0
13, 46200, Note_on_c, 11, 65, 0
13, 46200, Note_on_c, 11, 70, 0
13, 46200, Note_on_c, 11, 61, 47
13, 46200, Note_on_c, 11, 65, 73
13, 46200, Note_on_c, 11, 70, 58
13, 46230, Note_on_c, 11, 70, 0
13, 46230, Note_on_c, 11, 65, 0
13, 46230, Note_on_c, 11, 61, 0
13, 46320, Note_on_c, 11, 61, 66
13, 46320, Note_on_c, 11, 70, 89
13, 46320, Note_on_c, 11, 65, 79
13, 46320, Note_on_c, 11, 68, 62
13, 46350, Note_on_c, 11, 68, 0
13, 46350, Note_on_c, 11, 61, 0
13, 46350, Note_on_c, 11, 70, 0
13, 46350, Note_on_c, 11, 65, 0
13, 46350, Note_on_c, 11, 61, 51
13, 46350, Note_on_c, 11, 70, 54
13, 46350, Note_on_c, 11, 65, 72
13, 46380, Note_on_c, 11, 65, 0
13, 46380, Note_on_c, 11, 70, 0
13, 46380, Note_on_c, 11, 61, 0
13, 46410, Note_on_c, 11, 70, 77
13, 46410, Note_on_c, 11, 65, 79
13, 46410, Note_on_c, 11, 61, 54
13, 46440, Note_on_c, 11, 61, 0
13, 46440, Note_on_c, 11, 65, 0
13, 46440, Note_on_c, 11, 70, 0
13, 46440, Note_on_c, 11, 61, 50
13, 46440, Note_on_c, 11, 70, 60
13, 46440, Note_on_c, 11, 65, 75
13, 46470, Note_on_c, 11, 65, 0
13, 46470, Note_on_c, 11, 70, 0
13, 46470, Note_on_c, 11, 61, 0
13, 46560, Note_on_c, 11, 61, 66
13, 46560, Note_on_c, 11, 70, 86
13, 46560, Note_on_c, 11, 65, 82
13, 46590, Note_on_c, 11, 65, 0
13, 46590, Note_on_c, 11, 70, 0
13, 46590, Note_on_c, 11, 61, 0
13, 46590, Note_on_c, 11, 61, 40
13, 46590, Note_on_c, 11, 70, 44
13, 46590, Note_on_c, 11, 65, 69
13, 46620, Note_on_c, 11, 65, 0
13, 46620, Note_on_c, 11, 70, 0
13, 46620, Note_on_c, 11, 61, 0
13, 46650, Note_on_c, 11, 70, 81
13, 46650, Note_on_c, 11, 65, 80
13, 46650, Note_on_c, 11, 61, 57
13, 46680, Note_on_c, 11, 61, 0
13, 46680, Note_on_c, 11, 65, 0
13, 46680, Note_on_c, 11, 70, 0
13, 46680, Note_on_c, 11, 61, 51
13, 46680, Note_on_c, 11, 65, 76
13, 46680, Note_on_c, 11, 70, 62
13, 46710, Note_on_c, 11, 70, 0
13, 46710, Note_on_c, 11, 65, 0
13, 46710, Note_on_c, 11, 61, 0
13, 46800, Note_on_c, 11, 65, 85
13, 46800, Note_on_c, 11, 61, 64
13, 46800, Note_on_c, 11, 70, 84
13, 46830, Note_on_c, 11, 70, 0
13, 46830, Note_on_c, 11, 65, 0
13, 46830, Note_on_c, 11, 65, 72
13, 46830, Note_on_c, 11, 70, 55
13, 46860, Note_on_c, 11, 70, 0
13, 46860, Note_on_c, 11, 65, 0
13, 46860, Note_on_c, 11, 61, 0
13, 46890, Note_on_c, 11, 70, 89
13, 46890, Note_on_c, 11, 65, 83
13, 46890, Note_on_c, 11, 61, 62
13, 46920, Note_on_c, 11, 61, 0
13, 46920, Note_on_c, 11, 65, 0
13, 46920, Note_on_c, 11, 70, 0
13, 46920, Note_on_c, 11, 61, 54
13, 46920, Note_on_c, 11, 70, 66
13, 46920, Note_on_c, 11, 65, 78
13, 46950, Note_on_c, 11, 65, 0
13, 46950, Note_on_c, 11, 70, 0
13, 46950, Note_on_c, 11, 61, 0
13, 47040, Note_on_c, 11, 65, 78
13, 47040, Note_on_c, 11, 68, 84
13, 47040, Note_on_c, 11, 60, 57
13, 47070, Note_on_c, 11, 68, 0
13, 47070, Note_on_c, 11, 65, 0
13, 47070, Note_on_c, 11, 68, 54
13, 47070, Note_on_c, 11, 65, 66
13, 47100, Note_on_c, 11, 65, 0
13, 47100, Note_on_c, 11, 68, 0
13, 47100, Note_on_c, 11, 60, 0
13, 47130, Note_on_c, 11, 68, 79
13, 47130, Note_on_c, 11, 65, 71
13, 47130, Note_on_c, 11, 60, 53
13, 47160, Note_on_c, 11, 60, 0
13, 47160, Note_on_c, 11, 65, 0
13, 47160, Note_on_c, 11, 68, 0
13, 47160, Note_on_c, 11, 60, 59
13, 47160, Note_on_c, 11, 65, 68
13, 47160, Note_on_c, 11, 68, 75
13, 47190, Note_on_c, 11, 68, 0
13, 47190, Note_on_c, 11, 65, 0
13, 47190, Note_on_c, 11, 60, 0
13, 47280, Note_on_c, 11, 65, 82
13, 47280, Note_on_c, 11, 68, 92
13, 47280, Note_on_c, 11, 60, 66
13, 47310, Note_on_c, 11, 68, 0
13, 47310, Note_on_c, 11, 65, 0
13, 47310, Note_on_c, 11, 65, 69
13, 47310, Note_on_c, 11, 68, 57
13, 47340, Note_on_c, 11, 68, 0
13, 47340, Note_on_c, 11, 65, 0
13, 47340, Note_on_c, 11, 60, 0
13, 47370, Note_on_c, 11, 68, 68
13, 47370, Note_on_c, 11, 65, 64
13, 47370, Note_on_c, 11, 60, 46
13, 47400, Note_on_c, 11, 60, 0
13, 47400, Note_on_c, 11, 65, 0
13, 47400, Note_on_c, 11, 68, 0
13, 47400, Note_on_c, 11, 60, 52
13, 47400, Note_on_c, 11, 65, 69
13, 47400, Note_on_c, 11, 68, 69
13, 47430, Note_on_c, 11, 68, 0
13, 47430, Note_on_c, 11, 65, 0
13, 47430, Note_on_c, 11, 60, 0
13, 47520, Note_on_c, 11, 64, 75
13, 47520, Note_on_c, 11, 68, 79
13, 47520, Note_on_c, 11, 59, 60
13, 47550, Note_on_c, 11, 68, 0
13, 47550, Note_on_c, 11, 64, 0
13, 47550, Note_on_c, 11, 68, 48
13, 47550, Note_on_c, 11, 64, 66
13, 47580, Note_on_c, 11, 64, 0
13, 47580, Note_on_c, 11, 68, 0
13, 47580, Note_on_c, 11, 59, 0
13, 47610, Note_on_c, 11, 64, 79
13, 47610, Note_on_c, 11, 68, 68
13, 47610, Note_on_c, 11, 59, 65
13, 47640, Note_on_c, 11, 59, 0
13, 47640, Note_on_c, 11, 68, 0
13, 47640, Note_on_c, 11, 64, 0
13, 47640, Note_on_c, 11, 59, 35
13, 47640, Note_on_c, 11, 68, 66
13, 47640, Note_on_c, 11, 64, 69
13, 47670, Note_on_c, 11, 64, 0
13, 47670, Note_on_c, 11, 68, 0
13, 47670, Note_on_c, 11, 59, 0
13, 47760, Note_on_c, 11, 68, 75
13, 47760, Note_on_c, 11, 64, 74
13, 47760, Note_on_c, 11, 66, 81
13, 47760, Note_on_c, 11, 59, 66
13, 47790, Note_on_c, 11, 59, 0
13, 47790, Note_on_c, 11, 68, 0
13, 47790, Note_on_c, 11, 64, 0
13, 47790, Note_on_c, 11, 66, 0
13, 47790, Note_on_c, 11, 64, 66
13, 47790, Note_on_c, 11, 59, 59
13, 47790, Note_on_c, 11, 68, 73
13, 47820, Note_on_c, 11, 68, 0
13, 47820, Note_on_c, 11, 59, 0
13, 47820, Note_on_c, 11, 64, 0
13, 47850, Note_on_c, 11, 68, 81
13, 47850, Note_on_c, 11, 64, 70
13, 47850, Note_on_c, 11, 59, 54
13, 47880, Note_on_c, 11, 64, 0
13, 47880, Note_on_c, 11, 68, 0
13, 47880, Note_on_c, 11, 64, 66
13, 47880, Note_on_c, 11, 68, 69
13, 47910, Note_on_c, 11, 68, 0
13, 47910, Note_on_c, 11, 64, 0
13, 47910, Note_on_c, 11, 59, 0
13, 47910, End_track
14, 0, Start_track
14, 0, MIDI_port, 0
14, 0, Title_t, "Pan Flute - Vocal Melody"
14, 0, Control_c, 12, 0, 56
14, 0, Control_c, 12, 32, 0
14, 0, Program_c, 12, 79
14, 0, Control_c, 12, 7, 125
14, 0, Control_c, 12, 10, 75
14, 0, Control_c, 12, 93, 64
14, 235, Control_c, 12, 93, 72
14, 265, Control_c, 12, 93, 78
14, 270, Control_c, 12, 93, 84
14, 275, Control_c, 12, 93, 87
14, 280, Control_c, 12, 93, 89
14, 290, Control_c, 12, 93, 93
14, 370, Control_c, 12, 93, 89
14, 375, Control_c, 12, 93, 87
14, 380, Control_c, 12, 93, 84
14, 385, Control_c, 12, 93, 82
14, 3035, Control_c, 12, 91, 80
14, 3066, Control_c, 12, 91, 99
14, 3072, Control_c, 12, 91, 118
14, 3078, Control_c, 12, 91, 119
14, 3084, Control_c, 12, 91, 122
14, 3105, Control_c, 12, 91, 120
14, 3115, Control_c, 12, 91, 123
14, 3166, Control_c, 12, 91, 120
14, 3171, Control_c, 12, 91, 118
14, 3180, Control_c, 12, 91, 117
14, 3183, Control_c, 12, 91, 111
14, 3390, Control_c, 12, 7, 126
14, 3400, Control_c, 12, 7, 125
14, 3410, Control_c, 12, 7, 124
14, 3420, Control_c, 12, 7, 123
14, 3425, Control_c, 12, 7, 122
14, 3430, Control_c, 12, 7, 121
14, 3475, Control_c, 12, 7, 120
14, 3490, Control_c, 12, 7, 119
14, 3500, Control_c, 12, 7, 118
14, 3560, Control_c, 12, 7, 119
14, 3565, Control_c, 12, 7, 120
14, 3570, Control_c, 12, 7, 121
14, 3585, Control_c, 12, 7, 122
14, 4020, Control_c, 12, 7, 123
14, 4374, Control_c, 12, 7, 122
14, 4380, Control_c, 12, 7, 121
14, 4390, Control_c, 12, 7, 120
14, 4450, Control_c, 12, 7, 119
14, 4495, Control_c, 12, 7, 120
14, 4505, Control_c, 12, 7, 121
14, 4520, Control_c, 12, 7, 122
14, 4595, Control_c, 12, 7, 123
14, 4704, Control_c, 12, 7, 122
14, 4710, Control_c, 12, 7, 121
14, 4735, Control_c, 12, 7, 120
14, 4743, Control_c, 12, 7, 119
14, 5065, Control_c, 12, 7, 120
14, 5120, Control_c, 12, 7, 121
14, 5135, Control_c, 12, 7, 122
14, 5273, Note_on_c, 12, 67, 72
14, 5337, Note_on_c, 12, 68, 62
14, 5352, Note_on_c, 12, 67, 0
14, 5449, Note_on_c, 12, 70, 58
14, 5454, Control_c, 12, 7, 123
14, 5463, Note_on_c, 12, 68, 0
14, 5564, Control_c, 12, 7, 122
14, 5569, Note_on_c, 12, 70, 0
14, 5569, Control_c, 12, 7, 121
14, 5569, Note_on_c, 12, 75, 49
14, 5701, Control_c, 12, 64, 127
14, 5798, Control_c, 12, 64, 0
14, 5874, Control_c, 12, 64, 127
14, 5904, Control_c, 12, 64, 0
14, 5932, Note_on_c, 12, 73, 69
14, 5942, Note_on_c, 12, 75, 0
14, 5993, Control_c, 12, 64, 127
14, 6028, Control_c, 12, 64, 0
14, 6047, Note_on_c, 12, 72, 62
14, 6057, Note_on_c, 12, 73, 0
14, 6113, Control_c, 12, 64, 127
14, 6150, Control_c, 12, 7, 120
14, 6159, Control_c, 12, 7, 119
14, 6159, Control_c, 12, 64, 0
14, 6172, Note_on_c, 12, 68, 69
14, 6174, Note_on_c, 12, 72, 0
14, 6390, Control_c, 12, 7, 118
14, 6437, Control_c, 12, 7, 117
14, 6487, Control_c, 12, 7, 116
14, 6492, Control_c, 12, 7, 115
14, 6495, Control_c, 12, 64, 127
14, 6504, Control_c, 12, 64, 0
14, 6529, Note_on_c, 12, 63, 68
14, 6533, Note_on_c, 12, 68, 0
14, 6604, Control_c, 12, 7, 116
14, 6700, Note_on_c, 12, 67, 74
14, 6715, Note_on_c, 12, 63, 0
14, 6746, Control_c, 12, 7, 115
14, 7010, Note_on_c, 12, 68, 56
14, 7014, Note_on_c, 12, 67, 0
14, 7129, Note_on_c, 12, 67, 66
14, 7137, Note_on_c, 12, 68, 0
14, 7150, Control_c, 12, 7, 114
14, 7160, Control_c, 12, 7, 113
14, 7302, Control_c, 12, 64, 127
14, 7353, Note_on_c, 12, 67, 0
14, 7385, Control_c, 12, 7, 112
14, 7390, Control_c, 12, 7, 110
14, 7400, Control_c, 12, 7, 109
14, 7405, Control_c, 12, 7, 108
14, 7440, Control_c, 12, 7, 107
14, 7448, Control_c, 12, 7, 106
14, 7458, Control_c, 12, 7, 105
14, 7476, Control_c, 12, 7, 104
14, 7476, Control_c, 12, 64, 0
14, 7486, Control_c, 12, 7, 103
14, 7492, Control_c, 12, 7, 102
14, 7504, Control_c, 12, 7, 101
14, 7509, Control_c, 12, 7, 99
14, 7514, Control_c, 12, 7, 98
14, 7519, Control_c, 12, 7, 97
14, 7524, Control_c, 12, 7, 96
14, 7530, Control_c, 12, 7, 94
14, 7535, Control_c, 12, 7, 93
14, 7540, Control_c, 12, 7, 91
14, 7555, Control_c, 12, 7, 90
14, 7567, Control_c, 12, 7, 89
14, 7572, Control_c, 12, 7, 88
14, 7590, Control_c, 12, 7, 87
14, 7598, Control_c, 12, 7, 86
14, 7620, Control_c, 12, 7, 85
14, 7689, Control_c, 12, 7, 86
14, 7701, Control_c, 12, 7, 88
14, 7708, Control_c, 12, 7, 90
14, 7712, Control_c, 12, 7, 91
14, 7718, Control_c, 12, 7, 93
14, 7735, Control_c, 12, 7, 94
14, 7742, Control_c, 12, 7, 95
14, 7747, Control_c, 12, 7, 96
14, 7775, Control_c, 12, 7, 97
14, 7781, Control_c, 12, 7, 98
14, 7800, Control_c, 12, 7, 99
14, 7812, Control_c, 12, 7, 100
14, 7835, Control_c, 12, 7, 101
14, 7860, Control_c, 12, 7, 102
14, 7880, Control_c, 12, 7, 103
14, 7975, Control_c, 12, 7, 102
14, 7980, Control_c, 12, 7, 101
14, 7990, Control_c, 12, 7, 100
14, 7995, Control_c, 12, 7, 98
14, 8160, Control_c, 12, 7, 99
14, 8170, Control_c, 12, 7, 100
14, 8285, Control_c, 12, 7, 101
14, 8298, Control_c, 12, 7, 102
14, 8305, Control_c, 12, 7, 103
14, 8334, Control_c, 12, 7, 104
14, 8545, Control_c, 12, 7, 103
14, 8560, Control_c, 12, 7, 102
14, 8771, Control_c, 12, 7, 103
14, 8840, Control_c, 12, 7, 104
14, 8850, Control_c, 12, 7, 105
14, 8860, Control_c, 12, 7, 106
14, 8895, Control_c, 12, 7, 107
14, 8924, Control_c, 12, 7, 108
14, 8940, Note_on_c, 12, 63, 60
14, 9000, Control_c, 12, 7, 109
14, 9012, Control_c, 12, 7, 110
14, 9017, Control_c, 12, 7, 111
14, 9040, Control_c, 12, 7, 112
14, 9043, Control_c, 12, 7, 113
14, 9060, Note_on_c, 12, 63, 0
14, 9060, Note_on_c, 12, 67, 85
14, 9165, Control_c, 12, 7, 114
14, 9180, Note_on_c, 12, 67, 0
14, 9180, Note_on_c, 12, 68, 92
14, 9200, Control_c, 12, 7, 115
14, 9300, Note_on_c, 12, 68, 0
14, 9300, Note_on_c, 12, 70, 84
14, 9420, Note_on_c, 12, 70, 0
14, 9420, Note_on_c, 12, 75, 57
14, 9439, Control_c, 12, 7, 116
14, 9520, Control_c, 12, 7, 117
14, 9611, Control_c, 12, 7, 118
14, 9780, Note_on_c, 12, 75, 0
14, 9780, Note_on_c, 12, 73, 77
14, 9900, Note_on_c, 12, 73, 0
14, 9900, Note_on_c, 12, 72, 68
14, 10020, Note_on_c, 12, 72, 0
14, 10020, Note_on_c, 12, 68, 54
14, 10380, Note_on_c, 12, 68, 0
14, 10380, Note_on_c, 12, 63, 71
14, 10560, Note_on_c, 12, 63, 0
14, 10560, Note_on_c, 12, 67, 76
14, 10860, Note_on_c, 12, 67, 0
14, 10860, Note_on_c, 12, 68, 57
14, 10980, Note_on_c, 12, 68, 0
14, 10980, Note_on_c, 12, 67, 67
14, 11340, Note_on_c, 12, 67, 0
14, 12300, Note_on_c, 12, 68, 75
14, 12450, Note_on_c, 12, 68, 0
14, 12480, Note_on_c, 12, 68, 81
14, 12604, Control_c, 12, 64, 127
14, 12643, Control_c, 12, 64, 0
14, 12660, Note_on_c, 12, 68, 0
14, 12660, Note_on_c, 12, 70, 66
14, 12780, Note_on_c, 12, 70, 0
14, 12780, Note_on_c, 12, 68, 58
14, 12993, Control_c, 12, 64, 127
14, 13002, Control_c, 12, 64, 0
14, 13093, Control_c, 12, 64, 127
14, 13123, Control_c, 12, 64, 0
14, 13177, Control_c, 12, 64, 127
14, 13200, Note_on_c, 12, 68, 0
14, 13402, Control_c, 12, 64, 0
14, 13568, Control_c, 12, 64, 127
14, 13574, Control_c, 12, 64, 0
14, 14190, Note_on_c, 12, 76, 96
14, 14280, Note_on_c, 12, 76, 0
14, 14340, Note_on_c, 12, 79, 79
14, 14460, Note_on_c, 12, 79, 0
14, 14460, Note_on_c, 12, 77, 69
14, 14580, Note_on_c, 12, 77, 0
14, 14580, Note_on_c, 12, 72, 86
14, 14820, Note_on_c, 12, 72, 0
14, 14820, Note_on_c, 12, 79, 71
14, 14940, Note_on_c, 12, 79, 0
14, 14940, Note_on_c, 12, 77, 65
14, 15030, Note_on_c, 12, 77, 0
14, 15060, Note_on_c, 12, 77, 66
14, 15210, Note_on_c, 12, 77, 0
14, 15240, Note_on_c, 12, 77, 74
14, 15300, Note_on_c, 12, 77, 0
14, 15300, Note_on_c, 12, 79, 83
14, 15540, Note_on_c, 12, 79, 0
14, 15540, Note_on_c, 12, 76, 68
14, 15783, Control_c, 12, 7, 117
14, 15820, Control_c, 12, 7, 116
14, 15875, Control_c, 12, 7, 115
14, 15890, Control_c, 12, 7, 114
14, 15910, Control_c, 12, 7, 113
14, 15910, Control_c, 12, 64, 127
14, 15925, Control_c, 12, 7, 112
14, 15945, Control_c, 12, 7, 111
14, 15960, Note_on_c, 12, 76, 0
14, 15968, Control_c, 12, 7, 110
14, 15968, Control_c, 12, 64, 0
14, 15973, Control_c, 12, 7, 109
14, 15990, Control_c, 12, 7, 108
14, 16000, Control_c, 12, 7, 107
14, 16026, Control_c, 12, 64, 127
14, 16070, Control_c, 12, 7, 108
14, 16080, Control_c, 12, 7, 109
14, 16095, Control_c, 12, 7, 111
14, 16119, Control_c, 12, 64, 0
14, 16140, Note_on_c, 12, 76, 68
14, 16171, Control_c, 12, 64, 127
14, 16194, Control_c, 12, 7, 110
14, 16200, Control_c, 12, 7, 109
14, 16205, Control_c, 12, 7, 108
14, 16205, Control_c, 12, 64, 0
14, 16210, Control_c, 12, 7, 107
14, 16255, Control_c, 12, 7, 108
14, 16260, Note_on_c, 12, 76, 0
14, 16260, Note_on_c, 12, 79, 80
14, 16265, Control_c, 12, 7, 109
14, 16265, Control_c, 12, 64, 127
14, 16270, Control_c, 12, 7, 110
14, 16275, Control_c, 12, 7, 111
14, 16289, Control_c, 12, 64, 0
14, 16359, Control_c, 12, 64, 127
14, 16374, Control_c, 12, 7, 112
14, 16374, Control_c, 12, 64, 0
14, 16380, Note_on_c, 12, 79, 0
14, 16380, Control_c, 12, 7, 113
14, 16380, Note_on_c, 12, 77, 79
14, 16460, Control_c, 12, 7, 114
14, 16500, Note_on_c, 12, 77, 0
14, 16500, Note_on_c, 12, 72, 82
14, 16783, Control_c, 12, 7, 113
14, 16793, Control_c, 12, 7, 112
14, 16796, Control_c, 12, 7, 111
14, 16887, Control_c, 12, 64, 127
14, 16905, Control_c, 12, 7, 110
14, 16910, Control_c, 12, 7, 109
14, 16921, Control_c, 12, 7, 108
14, 16928, Control_c, 12, 7, 107
14, 16965, Control_c, 12, 64, 0
14, 16970, Control_c, 12, 7, 108
14, 16979, Control_c, 12, 7, 109
14, 16985, Control_c, 12, 7, 111
14, 16990, Control_c, 12, 7, 112
14, 17005, Control_c, 12, 7, 113
14, 17040, Note_on_c, 12, 72, 0
14, 17040, Note_on_c, 12, 79, 76
14, 17070, Note_on_c, 12, 79, 0
14, 17100, Note_on_c, 12, 79, 74
14, 17130, Control_c, 12, 7, 114
14, 17135, Control_c, 12, 7, 116
14, 17190, Note_on_c, 12, 79, 0
14, 17220, Note_on_c, 12, 79, 85
14, 17348, Control_c, 12, 64, 127
14, 17370, Note_on_c, 12, 79, 0
14, 17375, Control_c, 12, 7, 114
14, 17380, Control_c, 12, 7, 113
14, 17385, Control_c, 12, 7, 112
14, 17429, Control_c, 12, 64, 0
14, 17446, Control_c, 12, 7, 111
14, 17473, Control_c, 12, 7, 110
14, 17478, Control_c, 12, 7, 109
14, 17508, Control_c, 12, 7, 108
14, 17508, Control_c, 12, 64, 127
14, 17530, Control_c, 12, 7, 107
14, 17540, Control_c, 12, 7, 106
14, 17565, Control_c, 12, 7, 105
14, 17569, Control_c, 12, 64, 0
14, 17639, Control_c, 12, 64, 127
14, 17685, Control_c, 12, 64, 0
14, 17752, Control_c, 12, 64, 127
14, 17770, Control_c, 12, 7, 106
14, 17785, Control_c, 12, 7, 108
14, 17791, Control_c, 12, 7, 110
14, 17791, Control_c, 12, 64, 0
14, 17796, Control_c, 12, 7, 111
14, 17811, Control_c, 12, 7, 112
14, 17816, Control_c, 12, 7, 113
14, 17820, Control_c, 12, 7, 114
14, 17820, Note_on_c, 12, 81, 60
14, 17830, Control_c, 12, 7, 115
14, 17835, Control_c, 12, 7, 116
14, 17900, Control_c, 12, 7, 115
14, 17905, Control_c, 12, 7, 113
14, 17910, Note_on_c, 12, 81, 0
14, 17910, Control_c, 12, 7, 112
14, 17937, Control_c, 12, 7, 113
14, 17940, Control_c, 12, 7, 114
14, 17940, Note_on_c, 12, 79, 90
14, 18030, Note_on_c, 12, 79, 0
14, 18030, Note_on_c, 12, 77, 90
14, 18040, Control_c, 12, 7, 116
14, 18085, Control_c, 12, 7, 115
14, 18095, Control_c, 12, 7, 114
14, 18100, Control_c, 12, 7, 113
14, 18110, Control_c, 12, 7, 112
14, 18125, Control_c, 12, 7, 111
14, 18150, Note_on_c, 12, 77, 0
14, 18160, Control_c, 12, 7, 112
14, 18170, Control_c, 12, 7, 113
14, 18175, Control_c, 12, 7, 114
14, 18180, Control_c, 12, 7, 116
14, 18180, Note_on_c, 12, 79, 78
14, 18345, Control_c, 12, 7, 115
14, 18350, Control_c, 12, 7, 113
14, 18360, Note_on_c, 12, 79, 0
14, 18375, Control_c, 12, 7, 112
14, 18724, Control_c, 12, 64, 127
14, 18783, Control_c, 12, 64, 0
14, 18837, Control_c, 12, 64, 127
14, 18913, Control_c, 12, 64, 0
14, 18944, Control_c, 12, 7, 114
14, 18954, Control_c, 12, 7, 116
14, 18960, Control_c, 12, 7, 117
14, 18960, Note_on_c, 12, 79, 78
14, 18979, Control_c, 12, 64, 127
14, 18990, Note_on_c, 12, 79, 0
14, 19020, Note_on_c, 12, 79, 71
14, 19034, Control_c, 12, 64, 0
14, 19070, Control_c, 12, 7, 116
14, 19080, Control_c, 12, 7, 115
14, 19085, Control_c, 12, 7, 114
14, 19091, Control_c, 12, 7, 113
14, 19091, Control_c, 12, 64, 127
14, 19110, Note_on_c, 12, 79, 0
14, 19125, Control_c, 12, 64, 0
14, 19140, Note_on_c, 12, 79, 75
14, 19145, Control_c, 12, 7, 115
14, 19155, Control_c, 12, 7, 116
14, 19160, Control_c, 12, 7, 117
14, 19247, Control_c, 12, 64, 127
14, 19260, Note_on_c, 12, 79, 0
14, 19265, Control_c, 12, 7, 116
14, 19275, Control_c, 12, 7, 115
14, 19280, Control_c, 12, 7, 114
14, 19285, Control_c, 12, 7, 113
14, 19295, Control_c, 12, 64, 0
14, 19355, Control_c, 12, 64, 127
14, 19395, Control_c, 12, 64, 0
14, 19443, Control_c, 12, 64, 127
14, 19495, Control_c, 12, 64, 0
14, 19559, Control_c, 12, 64, 127
14, 19586, Control_c, 12, 64, 0
14, 19665, Control_c, 12, 64, 127
14, 19710, Control_c, 12, 7, 114
14, 19715, Control_c, 12, 7, 115
14, 19720, Control_c, 12, 7, 118
14, 19725, Control_c, 12, 64, 0
14, 19740, Note_on_c, 12, 81, 68
14, 19780, Control_c, 12, 7, 116
14, 19793, Control_c, 12, 64, 127
14, 19810, Control_c, 12, 7, 115
14, 19830, Note_on_c, 12, 81, 0
14, 19830, Note_on_c, 12, 81, 66
14, 19842, Control_c, 12, 7, 116
14, 19852, Control_c, 12, 7, 117
14, 19874, Control_c, 12, 64, 0
14, 19890, Note_on_c, 12, 81, 0
14, 19920, Note_on_c, 12, 79, 67
14, 19920, Note_on_c, 12, 81, 39
14, 19930, Control_c, 12, 7, 116
14, 19941, Control_c, 12, 7, 114
14, 19941, Control_c, 12, 64, 127
14, 19950, Note_on_c, 12, 81, 0
14, 19950, Note_on_c, 12, 79, 0
14, 19950, Note_on_c, 12, 79, 58
14, 20001, Control_c, 12, 64, 0
14, 20015, Control_c, 12, 7, 113
14, 20025, Control_c, 12, 7, 112
14, 20031, Control_c, 12, 7, 111
14, 20040, Note_on_c, 12, 79, 0
14, 20040, Note_on_c, 12, 77, 69
14, 20063, Control_c, 12, 64, 127
14, 20095, Control_c, 12, 7, 112
14, 20100, Note_on_c, 12, 77, 0
14, 20100, Note_on_c, 12, 79, 78
14, 20102, Control_c, 12, 7, 113
14, 20102, Control_c, 12, 64, 0
14, 20112, Control_c, 12, 7, 114
14, 20117, Control_c, 12, 7, 115
14, 20122, Control_c, 12, 7, 116
14, 20144, Control_c, 12, 7, 117
14, 20323, Control_c, 12, 7, 116
14, 20323, Control_c, 12, 64, 127
14, 20357, Control_c, 12, 64, 0
14, 20394, Control_c, 12, 7, 115
14, 20417, Control_c, 12, 7, 114
14, 20417, Control_c, 12, 64, 127
14, 20426, Control_c, 12, 64, 0
14, 20440, Control_c, 12, 7, 113
14, 20485, Control_c, 12, 7, 112
14, 20490, Control_c, 12, 7, 111
14, 20540, Control_c, 12, 7, 110
14, 20550, Control_c, 12, 7, 109
14, 20565, Control_c, 12, 7, 108
14, 20610, Control_c, 12, 7, 107
14, 20615, Control_c, 12, 7, 106
14, 20640, Control_c, 12, 7, 105
14, 20645, Control_c, 12, 7, 104
14, 20655, Control_c, 12, 7, 103
14, 20675, Control_c, 12, 7, 102
14, 20675, Control_c, 12, 64, 127
14, 20685, Control_c, 12, 7, 101
14, 20700, Control_c, 12, 7, 100
14, 20710, Control_c, 12, 7, 99
14, 20715, Control_c, 12, 7, 98
14, 20720, Control_c, 12, 7, 97
14, 20730, Control_c, 12, 7, 96
14, 20745, Control_c, 12, 7, 95
14, 20750, Control_c, 12, 7, 94
14, 20755, Control_c, 12, 7, 93
14, 20765, Control_c, 12, 7, 92
14, 20770, Control_c, 12, 7, 90
14, 20781, Control_c, 12, 7, 89
14, 20781, Control_c, 12, 64, 0
14, 20786, Control_c, 12, 7, 88
14, 20800, Control_c, 12, 7, 87
14, 20805, Control_c, 12, 7, 86
14, 20815, Control_c, 12, 7, 85
14, 20820, Control_c, 12, 7, 83
14, 20835, Control_c, 12, 7, 82
14, 20841, Control_c, 12, 7, 81
14, 20848, Control_c, 12, 7, 80
14, 20848, Control_c, 12, 64, 127
14, 20855, Control_c, 12, 7, 78
14, 20865, Control_c, 12, 7, 76
14, 20875, Control_c, 12, 7, 74
14, 20885, Control_c, 12, 7, 73
14, 20895, Control_c, 12, 7, 72
14, 20900, Control_c, 12, 7, 71
14, 20906, Control_c, 12, 1, 4
14, 20908, Control_c, 12, 1, 7
14, 20908, Control_c, 12, 1, 10
14, 20910, Control_c, 12, 1, 14
14, 20910, Control_c, 12, 1, 17
14, 20911, Control_c, 12, 1, 20
14, 20912, Control_c, 12, 7, 69
14, 20912, Control_c, 12, 1, 22
14, 20914, Control_c, 12, 1, 25
14, 20915, Control_c, 12, 1, 28
14, 20916, Control_c, 12, 1, 31
14, 20917, Control_c, 12, 1, 33
14, 20917, Control_c, 12, 64, 0
14, 20918, Control_c, 12, 7, 68
14, 20918, Control_c, 12, 1, 36
14, 20919, Control_c, 12, 1, 38
14, 20921, Control_c, 12, 1, 40
14, 20921, Control_c, 12, 1, 42
14, 20923, Control_c, 12, 1, 44
14, 20924, Control_c, 12, 7, 66
14, 20924, Control_c, 12, 1, 46
14, 20924, Control_c, 12, 1, 49
14, 20925, Control_c, 12, 1, 52
14, 20926, Control_c, 12, 1, 55
14, 20927, Control_c, 12, 1, 57
14, 20928, Control_c, 12, 1, 60
14, 20929, Control_c, 12, 1, 63
14, 20930, Control_c, 12, 7, 65
14, 20930, Control_c, 12, 1, 68
14, 20932, Control_c, 12, 1, 73
14, 20933, Control_c, 12, 1, 77
14, 20934, Control_c, 12, 1, 82
14, 20935, Control_c, 12, 1, 86
14, 20936, Control_c, 12, 7, 62
14, 20936, Control_c, 12, 1, 91
14, 20937, Control_c, 12, 1, 99
14, 20939, Control_c, 12, 1, 105
14, 20940, Control_c, 12, 1, 111
14, 20941, Control_c, 12, 7, 59
14, 20941, Control_c, 12, 1, 115
14, 20942, Control_c, 12, 1, 119
14, 20942, Control_c, 12, 1, 123
14, 20943, Control_c, 12, 1, 125
14, 20944, Control_c, 12, 7, 54
14, 20944, Control_c, 12, 1, 127
14, 20949, Control_c, 12, 7, 52
14, 20954, Control_c, 12, 7, 47
14, 20964, Control_c, 12, 7, 45
14, 20970, Control_c, 12, 7, 44
14, 20975, Control_c, 12, 7, 43
14, 20975, Control_c, 12, 64, 127
14, 20980, Control_c, 12, 7, 41
14, 20990, Control_c, 12, 7, 39
14, 21005, Control_c, 12, 1, 125
14, 21006, Control_c, 12, 1, 117
14, 21007, Control_c, 12, 1, 107
14, 21008, Control_c, 12, 1, 97
14, 21009, Control_c, 12, 1, 86
14, 21010, Control_c, 12, 1, 80
14, 21011, Control_c, 12, 1, 73
14, 21012, Control_c, 12, 1, 66
14, 21014, Control_c, 12, 1, 60
14, 21014, Control_c, 12, 1, 53
14, 21015, Control_c, 12, 1, 48
14, 21016, Control_c, 12, 1, 42
14, 21017, Control_c, 12, 1, 37
14, 21018, Control_c, 12, 1, 31
14, 21020, Control_c, 12, 1, 26
14, 21021, Control_c, 12, 7, 38
14, 21021, Control_c, 12, 1, 21
14, 21022, Control_c, 12, 1, 15
14, 21023, Control_c, 12, 1, 10
14, 21024, Control_c, 12, 1, 6
14, 21025, Control_c, 12, 1, 3
14, 21026, Control_c, 12, 1, 1
14, 21027, Control_c, 12, 7, 36
14, 21027, Control_c, 12, 1, 0
14, 21030, Pitch_bend_c, 12, 7999
14, 21032, Pitch_bend_c, 12, 7742
14, 21035, Pitch_bend_c, 12, 7581
14, 21036, Pitch_bend_c, 12, 7356
14, 21038, Pitch_bend_c, 12, 7067
14, 21041, Pitch_bend_c, 12, 6746
14, 21042, Pitch_bend_c, 12, 6521
14, 21045, Control_c, 12, 7, 39
14, 21045, Pitch_bend_c, 12, 6296
14, 21047, Pitch_bend_c, 12, 6007
14, 21049, Pitch_bend_c, 12, 5654
14, 21052, Control_c, 12, 7, 45
14, 21052, Pitch_bend_c, 12, 5300
14, 21054, Pitch_bend_c, 12, 5043
14, 21055, Pitch_bend_c, 12, 4818
14, 21057, Control_c, 12, 7, 52
14, 21057, Pitch_bend_c, 12, 4529
14, 21060, Note_on_c, 12, 79, 0
14, 21060, Pitch_bend_c, 12, 4369
14, 21062, Pitch_bend_c, 12, 4272
14, 21064, Control_c, 12, 7, 59
14, 21064, Pitch_bend_c, 12, 4304
14, 21066, Pitch_bend_c, 12, 4369
14, 21066, Control_c, 12, 64, 0
14, 21069, Control_c, 12, 7, 67
14, 21069, Pitch_bend_c, 12, 4433
14, 21071, Pitch_bend_c, 12, 5140
14, 21072, Pitch_bend_c, 12, 5943
14, 21075, Control_c, 12, 7, 74
14, 21075, Pitch_bend_c, 12, 6682
14, 21076, Pitch_bend_c, 12, 7581
14, 21079, Control_c, 12, 7, 82
14, 21079, Pitch_bend_c, 12, 8192
14, 21084, Control_c, 12, 7, 89
14, 21090, Control_c, 12, 7, 96
14, 21095, Control_c, 12, 7, 104
14, 21100, Control_c, 12, 7, 108
14, 21105, Control_c, 12, 7, 113
14, 21115, Control_c, 12, 7, 116
14, 21120, Control_c, 12, 7, 118
14, 21124, Control_c, 12, 7, 119
14, 21131, Control_c, 12, 7, 121
14, 21200, Control_c, 12, 7, 120
14, 21210, Control_c, 12, 7, 119
14, 21222, Control_c, 12, 7, 118
14, 21227, Control_c, 12, 7, 117
14, 21232, Control_c, 12, 7, 116
14, 21251, Control_c, 12, 7, 115
14, 21285, Control_c, 12, 7, 114
14, 21290, Control_c, 12, 7, 113
14, 21403, Control_c, 12, 7, 114
14, 21413, Control_c, 12, 7, 115
14, 25215, Control_c, 12, 7, 118
14, 25230, Control_c, 12, 7, 119
14, 25240, Control_c, 12, 7, 120
14, 25245, Control_c, 12, 7, 121
14, 25260, Control_c, 12, 7, 122
14, 25316, Control_c, 12, 7, 121
14, 25335, Control_c, 12, 7, 120
14, 25340, Control_c, 12, 7, 119
14, 25345, Control_c, 12, 7, 118
14, 26400, Note_on_c, 12, 67, 78
14, 26460, Note_on_c, 12, 67, 0
14, 26460, Note_on_c, 12, 70, 54
14, 26520, Note_on_c, 12, 70, 0
14, 26580, Note_on_c, 12, 70, 49
14, 26700, Note_on_c, 12, 70, 0
14, 26700, Note_on_c, 12, 75, 49
14, 27060, Note_on_c, 12, 75, 0
14, 27060, Note_on_c, 12, 73, 49
14, 27150, Note_on_c, 12, 72, 66
14, 27180, Note_on_c, 12, 73, 0
14, 27300, Note_on_c, 12, 72, 0
14, 27300, Note_on_c, 12, 68, 51
14, 27330, Note_on_c, 12, 68, 0
14, 27330, Note_on_c, 12, 68, 46
14, 27480, Note_on_c, 12, 68, 0
14, 27480, Note_on_c, 12, 68, 69
14, 27660, Note_on_c, 12, 68, 0
14, 27660, Note_on_c, 12, 63, 63
14, 27840, Note_on_c, 12, 63, 0
14, 27840, Note_on_c, 12, 67, 65
14, 28140, Note_on_c, 12, 67, 0
14, 28140, Note_on_c, 12, 68, 44
14, 28260, Note_on_c, 12, 68, 0
14, 28260, Note_on_c, 12, 67, 59
14, 28394, Control_c, 12, 64, 127
14, 28433, Control_c, 12, 64, 0
14, 28590, Note_on_c, 12, 67, 0
14, 30060, Note_on_c, 12, 67, 57
14, 30202, Control_c, 12, 64, 127
14, 30229, Control_c, 12, 64, 0
14, 30300, Note_on_c, 12, 67, 0
14, 30300, Note_on_c, 12, 70, 54
14, 30390, Note_on_c, 12, 70, 0
14, 30398, Control_c, 12, 64, 127
14, 30420, Note_on_c, 12, 70, 60
14, 30432, Control_c, 12, 64, 0
14, 30498, Control_c, 12, 64, 127
14, 30519, Control_c, 12, 64, 0
14, 30540, Note_on_c, 12, 70, 0
14, 30540, Note_on_c, 12, 75, 54
14, 30900, Note_on_c, 12, 73, 49
14, 30930, Note_on_c, 12, 75, 0
14, 31020, Note_on_c, 12, 73, 0
14, 31020, Note_on_c, 12, 72, 63
14, 31140, Note_on_c, 12, 72, 0
14, 31140, Note_on_c, 12, 68, 49
14, 31500, Note_on_c, 12, 68, 0
14, 31500, Note_on_c, 12, 63, 56
14, 31680, Note_on_c, 12, 63, 0
14, 31680, Note_on_c, 12, 67, 58
14, 31980, Note_on_c, 12, 67, 0
14, 31980, Note_on_c, 12, 68, 46
14, 32100, Note_on_c, 12, 68, 0
14, 32100, Note_on_c, 12, 67, 66
14, 32403, Control_c, 12, 64, 127
14, 32452, Control_c, 12, 64, 0
14, 32460, Note_on_c, 12, 67, 0
14, 32500, Control_c, 12, 64, 127
14, 32580, Control_c, 12, 64, 0
14, 32628, Control_c, 12, 64, 127
14, 33265, Control_c, 12, 64, 127
14, 33295, Control_c, 12, 64, 0
14, 33368, Control_c, 12, 64, 127
14, 33398, Control_c, 12, 64, 0
14, 33450, Note_on_c, 12, 70, 20
14, 33480, Control_c, 12, 64, 127
14, 33540, Note_on_c, 12, 70, 0
14, 33544, Control_c, 12, 64, 0
14, 33600, Note_on_c, 12, 68, 73
14, 33625, Control_c, 12, 7, 116
14, 33685, Control_c, 12, 7, 115
14, 33729, Control_c, 12, 64, 127
14, 33737, Control_c, 12, 64, 0
14, 33750, Note_on_c, 12, 68, 0
14, 33750, Note_on_c, 12, 70, 63
14, 33760, Control_c, 12, 7, 116
14, 33780, Control_c, 12, 7, 117
14, 33785, Control_c, 12, 7, 118
14, 33841, Control_c, 12, 64, 127
14, 33874, Control_c, 12, 64, 0
14, 33885, Control_c, 12, 7, 117
14, 33895, Control_c, 12, 7, 115
14, 33900, Note_on_c, 12, 70, 0
14, 33900, Note_on_c, 12, 68, 54
14, 33920, Control_c, 12, 7, 114
14, 33930, Control_c, 12, 7, 113
14, 34055, Control_c, 12, 7, 114
14, 34199, Control_c, 12, 64, 127
14, 34223, Control_c, 12, 64, 0
14, 34305, Control_c, 12, 64, 127
14, 34310, Control_c, 12, 7, 115
14, 34315, Control_c, 12, 7, 116
14, 34347, Control_c, 12, 64, 0
14, 34411, Control_c, 12, 64, 127
14, 34502, Control_c, 12, 64, 0
14, 34560, Note_on_c, 12, 68, 0
14, 34563, Control_c, 12, 64, 127
14, 34600, Control_c, 12, 64, 0
14, 34663, Control_c, 12, 64, 127
14, 34751, Control_c, 12, 64, 0
14, 34808, Control_c, 12, 64, 127
14, 34879, Control_c, 12, 64, 0
14, 34939, Control_c, 12, 64, 127
14, 34993, Control_c, 12, 64, 0
14, 35048, Control_c, 12, 64, 127
14, 35112, Control_c, 12, 64, 0
14, 35175, Control_c, 12, 64, 127
14, 35231, Control_c, 12, 64, 0
14, 35340, Note_on_c, 12, 76, 92
14, 35430, Note_on_c, 12, 76, 0
14, 35460, Note_on_c, 12, 79, 97
14, 35490, Control_c, 12, 7, 117
14, 35550, Note_on_c, 12, 79, 0
14, 35560, Control_c, 12, 7, 118
14, 35575, Control_c, 12, 7, 119
14, 35580, Note_on_c, 12, 77, 86
14, 35670, Note_on_c, 12, 77, 0
14, 35700, Note_on_c, 12, 72, 67
14, 35867, Control_c, 12, 64, 127
14, 35910, Note_on_c, 12, 72, 0
14, 35910, Note_on_c, 12, 79, 54
14, 35921, Control_c, 12, 64, 0
14, 35989, Control_c, 12, 64, 127
14, 36025, Control_c, 12, 7, 118
14, 36037, Control_c, 12, 64, 0
14, 36060, Note_on_c, 12, 79, 0
14, 36060, Note_on_c, 12, 77, 60
14, 36070, Control_c, 12, 7, 117
14, 36085, Control_c, 12, 7, 116
14, 36100, Control_c, 12, 7, 115
14, 36105, Control_c, 12, 7, 113
14, 36110, Control_c, 12, 7, 112
14, 36135, Control_c, 12, 7, 111
14, 36150, Note_on_c, 12, 77, 0
14, 36180, Control_c, 12, 7, 110
14, 36180, Note_on_c, 12, 77, 67
14, 36190, Control_c, 12, 7, 109
14, 36195, Control_c, 12, 7, 108
14, 36210, Control_c, 12, 7, 107
14, 36234, Control_c, 12, 64, 127
14, 36268, Control_c, 12, 7, 108
14, 36270, Note_on_c, 12, 77, 0
14, 36279, Control_c, 12, 64, 0
14, 36284, Control_c, 12, 7, 109
14, 36300, Note_on_c, 12, 77, 69
14, 36305, Control_c, 12, 7, 110
14, 36315, Control_c, 12, 7, 111
14, 36364, Control_c, 12, 7, 110
14, 36364, Control_c, 12, 64, 127
14, 36374, Control_c, 12, 7, 108
14, 36379, Control_c, 12, 7, 107
14, 36401, Control_c, 12, 64, 0
14, 36420, Note_on_c, 12, 77, 0
14, 36420, Note_on_c, 12, 79, 61
14, 36445, Control_c, 12, 7, 108
14, 36450, Control_c, 12, 7, 109
14, 36455, Control_c, 12, 7, 110
14, 36461, Control_c, 12, 7, 111
14, 36467, Control_c, 12, 64, 127
14, 36483, Control_c, 12, 64, 0
14, 36493, Control_c, 12, 7, 112
14, 36549, Control_c, 12, 64, 127
14, 36561, Control_c, 12, 64, 0
14, 36575, Control_c, 12, 7, 113
14, 36645, Control_c, 12, 7, 114
14, 36655, Control_c, 12, 7, 115
14, 36660, Note_on_c, 12, 79, 0
14, 36660, Note_on_c, 12, 76, 66
14, 36663, Control_c, 12, 7, 116
14, 36910, Control_c, 12, 7, 117
14, 36968, Control_c, 12, 64, 127
14, 36996, Control_c, 12, 64, 0
14, 37030, Control_c, 12, 7, 116
14, 37070, Control_c, 12, 7, 115
14, 37075, Control_c, 12, 7, 114
14, 37080, Control_c, 12, 7, 113
14, 37100, Control_c, 12, 7, 112
14, 37110, Control_c, 12, 7, 111
14, 37120, Control_c, 12, 7, 110
14, 37130, Control_c, 12, 7, 109
14, 37135, Control_c, 12, 7, 108
14, 37143, Control_c, 12, 7, 107
14, 37148, Control_c, 12, 7, 106
14, 37153, Control_c, 12, 7, 105
14, 37163, Control_c, 12, 7, 104
14, 37168, Control_c, 12, 7, 103
14, 37170, Note_on_c, 12, 76, 0
14, 37180, Control_c, 12, 7, 102
14, 37200, Control_c, 12, 7, 103
14, 37205, Control_c, 12, 7, 104
14, 37215, Control_c, 12, 7, 105
14, 37221, Control_c, 12, 7, 106
14, 37230, Control_c, 12, 7, 107
14, 37230, Note_on_c, 12, 76, 82
14, 37235, Control_c, 12, 7, 109
14, 37245, Control_c, 12, 7, 110
14, 37250, Control_c, 12, 7, 111
14, 37260, Control_c, 12, 7, 112
14, 37265, Control_c, 12, 7, 113
14, 37280, Control_c, 12, 64, 127
14, 37292, Control_c, 12, 64, 0
14, 37330, Control_c, 12, 7, 114
14, 37345, Control_c, 12, 7, 115
14, 37350, Note_on_c, 12, 76, 0
14, 37356, Control_c, 12, 7, 116
14, 37356, Pitch_bend_c, 12, 7967
14, 37358, Pitch_bend_c, 12, 7710
14, 37360, Pitch_bend_c, 12, 7645
14, 37363, Pitch_bend_c, 12, 7420
14, 37365, Pitch_bend_c, 12, 7260
14, 37367, Pitch_bend_c, 12, 7131
14, 37371, Pitch_bend_c, 12, 6906
14, 37372, Pitch_bend_c, 12, 6810
14, 37374, Pitch_bend_c, 12, 6617
14, 37375, Pitch_bend_c, 12, 6489
14, 37377, Control_c, 12, 7, 117
14, 37377, Pitch_bend_c, 12, 6392
14, 37380, Note_on_c, 12, 79, 94
14, 37386, Pitch_bend_c, 12, 6489
14, 37389, Pitch_bend_c, 12, 6649
14, 37391, Pitch_bend_c, 12, 6842
14, 37392, Pitch_bend_c, 12, 7003
14, 37394, Control_c, 12, 7, 118
14, 37394, Pitch_bend_c, 12, 7196
14, 37396, Pitch_bend_c, 12, 7324
14, 37399, Pitch_bend_c, 12, 7549
14, 37401, Pitch_bend_c, 12, 7677
14, 37403, Pitch_bend_c, 12, 7934
14, 37405, Pitch_bend_c, 12, 8192
14, 37500, Note_on_c, 12, 79, 0
14, 37500, Note_on_c, 12, 77, 104
14, 37545, Control_c, 12, 7, 117
14, 37590, Note_on_c, 12, 77, 0
14, 37595, Control_c, 12, 7, 116
14, 37605, Pitch_bend_c, 12, 7645
14, 37607, Pitch_bend_c, 12, 6810
14, 37608, Control_c, 12, 7, 115
14, 37608, Pitch_bend_c, 12, 5975
14, 37611, Pitch_bend_c, 12, 5140
14, 37612, Pitch_bend_c, 12, 4497
14, 37614, Control_c, 12, 7, 114
14, 37614, Pitch_bend_c, 12, 3887
14, 37617, Pitch_bend_c, 12, 3501
14, 37619, Pitch_bend_c, 12, 3341
14, 37620, Note_on_c, 12, 72, 79
14, 37621, Pitch_bend_c, 12, 3373
14, 37624, Pitch_bend_c, 12, 3565
14, 37625, Pitch_bend_c, 12, 3919
14, 37627, Pitch_bend_c, 12, 4433
14, 37629, Pitch_bend_c, 12, 5043
14, 37632, Pitch_bend_c, 12, 5878
14, 37634, Control_c, 12, 7, 113
14, 37634, Pitch_bend_c, 12, 6746
14, 37636, Pitch_bend_c, 12, 7613
14, 37638, Pitch_bend_c, 12, 8192
14, 37705, Control_c, 12, 7, 112
14, 37739, Control_c, 12, 1, 2
14, 37740, Control_c, 12, 1, 7
14, 37741, Control_c, 12, 1, 14
14, 37742, Control_c, 12, 1, 21
14, 37743, Control_c, 12, 1, 28
14, 37744, Control_c, 12, 1, 35
14, 37746, Control_c, 12, 1, 40
14, 37746, Control_c, 12, 1, 45
14, 37747, Control_c, 12, 1, 50
14, 37748, Control_c, 12, 1, 56
14, 37749, Control_c, 12, 1, 62
14, 37750, Control_c, 12, 1, 69
14, 37752, Control_c, 12, 1, 77
14, 37753, Control_c, 12, 1, 86
14, 37754, Control_c, 12, 1, 103
14, 37755, Control_c, 12, 1, 119
14, 37756, Control_c, 12, 1, 127
14, 37761, Control_c, 12, 7, 111
14, 37785, Control_c, 12, 7, 110
14, 37810, Control_c, 12, 7, 109
14, 37835, Control_c, 12, 7, 108
14, 37885, Control_c, 12, 7, 107
14, 37890, Control_c, 12, 7, 106
14, 37895, Control_c, 12, 7, 105
14, 37927, Control_c, 12, 1, 117
14, 37928, Control_c, 12, 1, 89
14, 37929, Control_c, 12, 1, 73
14, 37930, Control_c, 12, 1, 59
14, 37932, Control_c, 12, 1, 46
14, 37933, Control_c, 12, 1, 35
14, 37934, Control_c, 12, 1, 25
14, 37935, Control_c, 12, 1, 17
14, 37936, Control_c, 12, 1, 9
14, 37937, Control_c, 12, 1, 2
14, 37938, Control_c, 12, 1, 0
14, 38010, Note_on_c, 12, 72, 0
14, 38051, Control_c, 12, 64, 127
14, 38123, Control_c, 12, 64, 0
14, 38129, Pitch_bend_c, 12, 7742
14, 38131, Pitch_bend_c, 12, 6360
14, 38134, Pitch_bend_c, 12, 4754
14, 38136, Pitch_bend_c, 12, 3373
14, 38138, Pitch_bend_c, 12, 1702
14, 38141, Pitch_bend_c, 12, 0
14, 38151, Pitch_bend_c, 12, 1252
14, 38153, Pitch_bend_c, 12, 2955
14, 38156, Pitch_bend_c, 12, 4047
14, 38157, Pitch_bend_c, 12, 5397
14, 38159, Pitch_bend_c, 12, 7067
14, 38160, Note_on_c, 12, 79, 76
14, 38161, Pitch_bend_c, 12, 8192
14, 38190, Note_on_c, 12, 79, 0
14, 38211, Pitch_bend_c, 12, 7710
14, 38212, Pitch_bend_c, 12, 7196
14, 38214, Pitch_bend_c, 12, 6810
14, 38216, Pitch_bend_c, 12, 6714
14, 38218, Pitch_bend_c, 12, 6617
14, 38220, Pitch_bend_c, 12, 6649
14, 38220, Note_on_c, 12, 79, 83
14, 38223, Pitch_bend_c, 12, 6746
14, 38226, Pitch_bend_c, 12, 7067
14, 38227, Pitch_bend_c, 12, 7613
14, 38229, Pitch_bend_c, 12, 8192
14, 38264, Control_c, 12, 64, 127
14, 38281, Control_c, 12, 64, 0
14, 38310, Note_on_c, 12, 79, 0
14, 38321, Pitch_bend_c, 12, 7485
14, 38323, Pitch_bend_c, 12, 5782
14, 38325, Pitch_bend_c, 12, 4176
14, 38326, Pitch_bend_c, 12, 2602
14, 38328, Pitch_bend_c, 12, 160
14, 38331, Pitch_bend_c, 12, 0
14, 38340, Note_on_c, 12, 79, 99
14, 38341, Pitch_bend_c, 12, 224
14, 38343, Pitch_bend_c, 12, 1445
14, 38345, Pitch_bend_c, 12, 2730
14, 38348, Pitch_bend_c, 12, 3598
14, 38350, Pitch_bend_c, 12, 4626
14, 38352, Pitch_bend_c, 12, 5846
14, 38354, Pitch_bend_c, 12, 7196
14, 38356, Pitch_bend_c, 12, 8192
14, 38460, Note_on_c, 12, 79, 0
14, 38475, Control_c, 12, 64, 127
14, 38525, Control_c, 12, 7, 106
14, 38537, Control_c, 12, 64, 0
14, 38550, Control_c, 12, 7, 107
14, 38556, Control_c, 12, 7, 108
14, 38575, Control_c, 12, 7, 109
14, 38609, Control_c, 12, 64, 127
14, 38630, Control_c, 12, 7, 110
14, 38667, Control_c, 12, 7, 111
14, 38667, Control_c, 12, 64, 0
14, 38755, Control_c, 12, 7, 112
14, 38760, Control_c, 12, 7, 113
14, 38773, Control_c, 12, 64, 127
14, 38809, Control_c, 12, 64, 0
14, 38921, Pitch_bend_c, 12, 8063
14, 38923, Pitch_bend_c, 12, 7228
14, 38926, Pitch_bend_c, 12, 6328
14, 38928, Pitch_bend_c, 12, 5493
14, 38930, Control_c, 12, 7, 114
14, 38930, Pitch_bend_c, 12, 4658
14, 38932, Pitch_bend_c, 12, 3951
14, 38934, Pitch_bend_c, 12, 3244
14, 38936, Control_c, 12, 7, 116
14, 38936, Pitch_bend_c, 12, 2216
14, 38938, Pitch_bend_c, 12, 738
14, 38940, Note_on_c, 12, 81, 76
14, 38941, Pitch_bend_c, 12, 0
14, 38955, Pitch_bend_c, 12, 1252
14, 38957, Pitch_bend_c, 12, 2955
14, 38959, Pitch_bend_c, 12, 4112
14, 38962, Pitch_bend_c, 12, 5493
14, 38964, Pitch_bend_c, 12, 7035
14, 38966, Pitch_bend_c, 12, 8192
14, 39060, Note_on_c, 12, 81, 0
14, 39060, Note_on_c, 12, 79, 86
14, 39080, Control_c, 12, 64, 127
14, 39100, Control_c, 12, 7, 117
14, 39112, Control_c, 12, 64, 0
14, 39135, Control_c, 12, 7, 118
14, 39180, Note_on_c, 12, 79, 0
14, 39180, Note_on_c, 12, 77, 101
14, 39270, Note_on_c, 12, 77, 0
14, 39280, Control_c, 12, 7, 117
14, 39290, Pitch_bend_c, 12, 6489
14, 39292, Pitch_bend_c, 12, 4304
14, 39295, Control_c, 12, 7, 116
14, 39295, Pitch_bend_c, 12, 1252
14, 39297, Pitch_bend_c, 12, 0
14, 39300, Control_c, 12, 7, 115
14, 39300, Note_on_c, 12, 79, 110
14, 39332, Pitch_bend_c, 12, 1188
14, 39334, Pitch_bend_c, 12, 2762
14, 39336, Pitch_bend_c, 12, 3662
14, 39338, Pitch_bend_c, 12, 4529
14, 39341, Pitch_bend_c, 12, 5300
14, 39343, Pitch_bend_c, 12, 5975
14, 39345, Pitch_bend_c, 12, 6489
14, 39347, Control_c, 12, 7, 116
14, 39347, Pitch_bend_c, 12, 6810
14, 39350, Pitch_bend_c, 12, 7163
14, 39352, Pitch_bend_c, 12, 7420
14, 39353, Pitch_bend_c, 12, 7613
14, 39355, Pitch_bend_c, 12, 7806
14, 39358, Pitch_bend_c, 12, 7999
14, 39360, Pitch_bend_c, 12, 8192
14, 39366, Control_c, 12, 7, 117
14, 39371, Control_c, 12, 7, 118
14, 39434, Control_c, 12, 1, 4
14, 39434, Control_c, 12, 1, 9
14, 39436, Control_c, 12, 1, 15
14, 39436, Control_c, 12, 1, 23
14, 39437, Control_c, 12, 1, 33
14, 39438, Control_c, 12, 1, 44
14, 39439, Control_c, 12, 1, 56
14, 39440, Control_c, 12, 1, 69
14, 39442, Control_c, 12, 1, 83
14, 39442, Control_c, 12, 1, 105
14, 39444, Control_c, 12, 1, 127
14, 39510, Note_on_c, 12, 79, 0
14, 39519, Control_c, 12, 1, 105
14, 39519, Control_c, 12, 1, 56
14, 39520, Control_c, 12, 1, 22
14, 39521, Control_c, 12, 1, 2
14, 39522, Control_c, 12, 1, 0
14, 39695, Control_c, 12, 7, 116
14, 39745, Control_c, 12, 7, 115
14, 39760, Control_c, 12, 7, 114
14, 39808, Control_c, 12, 7, 115
14, 39815, Control_c, 12, 7, 116
14, 39850, Control_c, 12, 7, 117
14, 39856, Control_c, 12, 7, 118
14, 40073, Pitch_bend_c, 12, 7485
14, 40075, Pitch_bend_c, 12, 6553
14, 40078, Pitch_bend_c, 12, 5621
14, 40080, Pitch_bend_c, 12, 4722
14, 40080, Note_on_c, 12, 79, 101
14, 40082, Pitch_bend_c, 12, 3855
14, 40085, Pitch_bend_c, 12, 3084
14, 40087, Pitch_bend_c, 12, 2216
14, 40088, Pitch_bend_c, 12, 1702
14, 40090, Pitch_bend_c, 12, 1445
14, 40095, Pitch_bend_c, 12, 1831
14, 40097, Pitch_bend_c, 12, 2602
14, 40099, Pitch_bend_c, 12, 3212
14, 40101, Pitch_bend_c, 12, 3822
14, 40104, Pitch_bend_c, 12, 4529
14, 40106, Pitch_bend_c, 12, 5300
14, 40107, Pitch_bend_c, 12, 6328
14, 40110, Pitch_bend_c, 12, 7324
14, 40112, Pitch_bend_c, 12, 8192
14, 40140, Note_on_c, 12, 79, 0
14, 40140, Note_on_c, 12, 79, 73
14, 40170, Control_c, 12, 7, 119
14, 40185, Control_c, 12, 7, 120
14, 40230, Note_on_c, 12, 79, 0
14, 40254, Pitch_bend_c, 12, 7838
14, 40256, Pitch_bend_c, 12, 7131
14, 40258, Pitch_bend_c, 12, 6425
14, 40260, Note_on_c, 12, 79, 85
14, 40260, Pitch_bend_c, 12, 5750
14, 40262, Pitch_bend_c, 12, 5140
14, 40265, Pitch_bend_c, 12, 4658
14, 40266, Pitch_bend_c, 12, 4465
14, 40268, Pitch_bend_c, 12, 4433
14, 40270, Pitch_bend_c, 12, 4465
14, 40273, Pitch_bend_c, 12, 4626
14, 40275, Pitch_bend_c, 12, 4979
14, 40277, Pitch_bend_c, 12, 5397
14, 40279, Pitch_bend_c, 12, 5878
14, 40281, Pitch_bend_c, 12, 6392
14, 40284, Pitch_bend_c, 12, 6906
14, 40286, Pitch_bend_c, 12, 7645
14, 40287, Pitch_bend_c, 12, 8192
14, 40380, Note_on_c, 12, 79, 0
14, 40396, Control_c, 12, 64, 127
14, 40410, Control_c, 12, 7, 119
14, 40416, Control_c, 12, 64, 0
14, 40492, Control_c, 12, 64, 127
14, 40517, Control_c, 12, 64, 0
14, 40596, Control_c, 12, 64, 127
14, 40606, Control_c, 12, 7, 118
14, 40617, Control_c, 12, 64, 0
14, 40640, Control_c, 12, 7, 117
14, 40708, Control_c, 12, 64, 127
14, 40754, Control_c, 12, 64, 0
14, 40770, Note_on_c, 12, 79, 8
14, 40790, Control_c, 12, 7, 118
14, 40805, Control_c, 12, 7, 119
14, 40810, Control_c, 12, 7, 120
14, 40829, Control_c, 12, 64, 127
14, 40830, Note_on_c, 12, 79, 0
14, 40853, Control_c, 12, 64, 0
14, 40860, Note_on_c, 12, 81, 75
14, 40980, Note_on_c, 12, 81, 0
14, 40980, Note_on_c, 12, 79, 94
14, 41085, Control_c, 12, 7, 121
14, 41100, Note_on_c, 12, 79, 0
14, 41100, Control_c, 12, 7, 122
14, 41100, Note_on_c, 12, 77, 78
14, 41105, Control_c, 12, 7, 123
14, 41190, Note_on_c, 12, 77, 0
14, 41200, Control_c, 12, 7, 122
14, 41211, Control_c, 12, 7, 121
14, 41211, Pitch_bend_c, 12, 7677
14, 41213, Pitch_bend_c, 12, 6296
14, 41216, Pitch_bend_c, 12, 4818
14, 41218, Pitch_bend_c, 12, 3501
14, 41220, Note_on_c, 12, 79, 97
14, 41220, Pitch_bend_c, 12, 1959
14, 41221, Pitch_bend_c, 12, 0
14, 41251, Pitch_bend_c, 12, 867
14, 41254, Pitch_bend_c, 12, 2216
14, 41255, Pitch_bend_c, 12, 3148
14, 41257, Pitch_bend_c, 12, 3790
14, 41259, Pitch_bend_c, 12, 4336
14, 41261, Pitch_bend_c, 12, 4818
14, 41264, Pitch_bend_c, 12, 5236
14, 41266, Pitch_bend_c, 12, 5589
14, 41268, Pitch_bend_c, 12, 5943
14, 41271, Pitch_bend_c, 12, 6200
14, 41273, Pitch_bend_c, 12, 6521
14, 41274, Pitch_bend_c, 12, 6746
14, 41276, Pitch_bend_c, 12, 6971
14, 41279, Pitch_bend_c, 12, 7228
14, 41281, Pitch_bend_c, 12, 7485
14, 41283, Pitch_bend_c, 12, 7710
14, 41285, Pitch_bend_c, 12, 7902
14, 41288, Pitch_bend_c, 12, 8192
14, 41298, Control_c, 12, 7, 120
14, 41310, Control_c, 12, 7, 119
14, 41315, Control_c, 12, 7, 118
14, 41334, Control_c, 12, 7, 117
14, 41375, Control_c, 12, 64, 127
14, 41377, Control_c, 12, 1, 2
14, 41378, Control_c, 12, 1, 6
14, 41379, Control_c, 12, 1, 12
14, 41380, Control_c, 12, 1, 17
14, 41381, Control_c, 12, 1, 23
14, 41382, Control_c, 12, 1, 30
14, 41384, Control_c, 12, 1, 36
14, 41385, Control_c, 12, 1, 43
14, 41386, Control_c, 12, 1, 50
14, 41387, Control_c, 12, 1, 55
14, 41388, Control_c, 12, 1, 61
14, 41389, Control_c, 12, 1, 67
14, 41390, Control_c, 12, 1, 72
14, 41392, Control_c, 12, 1, 78
14, 41393, Control_c, 12, 1, 84
14, 41394, Control_c, 12, 1, 91
14, 41395, Control_c, 12, 1, 101
14, 41395, Control_c, 12, 1, 113
14, 41396, Control_c, 12, 1, 123
14, 41397, Control_c, 12, 1, 127
14, 41417, Control_c, 12, 64, 0
14, 41490, Control_c, 12, 64, 127
14, 41505, Control_c, 12, 64, 0
14, 41520, Control_c, 12, 7, 118
14, 41535, Control_c, 12, 7, 119
14, 41545, Control_c, 12, 7, 120
14, 41625, Control_c, 12, 7, 121
14, 41685, Control_c, 12, 7, 122
14, 41690, Control_c, 12, 64, 127
14, 41707, Control_c, 12, 7, 123
14, 41800, Control_c, 12, 7, 124
14, 41810, Control_c, 12, 7, 125
14, 41830, Control_c, 12, 7, 126
14, 42045, Control_c, 12, 7, 125
14, 42050, Control_c, 12, 7, 124
14, 42055, Control_c, 12, 7, 123
14, 42085, Control_c, 12, 7, 122
14, 42090, Control_c, 12, 7, 121
14, 42110, Control_c, 12, 7, 120
14, 42120, Control_c, 12, 7, 119
14, 42124, Pitch_bend_c, 12, 7967
14, 42126, Pitch_bend_c, 12, 7870
14, 42128, Pitch_bend_c, 12, 7710
14, 42130, Pitch_bend_c, 12, 7677
14, 42132, Pitch_bend_c, 12, 7581
14, 42134, Pitch_bend_c, 12, 7517
14, 42136, Pitch_bend_c, 12, 7388
14, 42138, Control_c, 12, 7, 118
14, 42138, Pitch_bend_c, 12, 7324
14, 42140, Pitch_bend_c, 12, 7196
14, 42142, Pitch_bend_c, 12, 7099
14, 42145, Pitch_bend_c, 12, 6971
14, 42147, Pitch_bend_c, 12, 6810
14, 42149, Pitch_bend_c, 12, 6714
14, 42151, Control_c, 12, 7, 117
14, 42151, Pitch_bend_c, 12, 6553
14, 42154, Pitch_bend_c, 12, 6392
14, 42155, Pitch_bend_c, 12, 6232
14, 42156, Control_c, 12, 1, 121
14, 42157, Control_c, 12, 1, 109
14, 42158, Pitch_bend_c, 12, 6071
14, 42158, Control_c, 12, 1, 99
14, 42159, Control_c, 12, 1, 89
14, 42160, Pitch_bend_c, 12, 5878
14, 42161, Control_c, 12, 1, 83
14, 42161, Control_c, 12, 1, 77
14, 42162, Control_c, 12, 7, 116
14, 42162, Pitch_bend_c, 12, 5654
14, 42163, Control_c, 12, 1, 71
14, 42163, Control_c, 12, 1, 65
14, 42164, Pitch_bend_c, 12, 5525
14, 42165, Control_c, 12, 1, 59
14, 42165, Control_c, 12, 1, 52
14, 42166, Pitch_bend_c, 12, 5332
14, 42166, Control_c, 12, 1, 46
14, 42168, Control_c, 12, 1, 41
14, 42169, Pitch_bend_c, 12, 5204
14, 42169, Control_c, 12, 1, 36
14, 42169, Control_c, 12, 1, 31
14, 42170, Pitch_bend_c, 12, 5011
14, 42171, Control_c, 12, 1, 27
14, 42171, Control_c, 12, 1, 23
14, 42172, Pitch_bend_c, 12, 4850
14, 42173, Control_c, 12, 1, 19
14, 42174, Control_c, 12, 7, 115
14, 42174, Control_c, 12, 1, 15
14, 42174, Pitch_bend_c, 12, 4626
14, 42175, Control_c, 12, 1, 11
14, 42176, Control_c, 12, 1, 8
14, 42177, Pitch_bend_c, 12, 4433
14, 42177, Control_c, 12, 1, 4
14, 42178, Control_c, 12, 1, 1
14, 42179, Control_c, 12, 7, 114
14, 42179, Pitch_bend_c, 12, 4272
14, 42179, Control_c, 12, 1, 0
14, 42181, Pitch_bend_c, 12, 4015
14, 42183, Pitch_bend_c, 12, 3822
14, 42185, Control_c, 12, 7, 113
14, 42185, Pitch_bend_c, 12, 3630
14, 42188, Pitch_bend_c, 12, 3437
14, 42189, Pitch_bend_c, 12, 3276
14, 42191, Control_c, 12, 7, 112
14, 42191, Control_c, 12, 64, 0
14, 42191, Pitch_bend_c, 12, 3212
14, 42193, Pitch_bend_c, 12, 3116
14, 42195, Pitch_bend_c, 12, 3084
14, 42205, Control_c, 12, 7, 110
14, 42205, Pitch_bend_c, 12, 3244
14, 42206, Pitch_bend_c, 12, 3501
14, 42208, Pitch_bend_c, 12, 3887
14, 42210, Note_on_c, 12, 79, 0
14, 42210, Pitch_bend_c, 12, 4497
14, 42213, Pitch_bend_c, 12, 5397
14, 42215, Pitch_bend_c, 12, 6649
14, 42217, Control_c, 12, 7, 108
14, 42217, Pitch_bend_c, 12, 7774
14, 42219, Control_c, 12, 7, 107
14, 42219, Pitch_bend_c, 12, 8192
14, 42235, Control_c, 12, 7, 106
14, 42240, Control_c, 12, 7, 105
14, 42247, Control_c, 12, 7, 104
14, 42257, Control_c, 12, 7, 103
14, 42285, Control_c, 12, 7, 102
14, 42295, Control_c, 12, 7, 101
14, 42300, Control_c, 12, 7, 100
14, 42310, Control_c, 12, 7, 99
14, 42314, Control_c, 12, 7, 98
14, 42390, Control_c, 12, 7, 99
14, 42395, Control_c, 12, 7, 100
14, 42404, Control_c, 12, 7, 101
14, 42409, Control_c, 12, 7, 102
14, 42420, Control_c, 12, 7, 103
14, 42430, Control_c, 12, 7, 104
14, 42440, Control_c, 12, 7, 106
14, 42475, Control_c, 12, 7, 108
14, 42496, Control_c, 12, 7, 109
14, 42506, Control_c, 12, 7, 110
14, 42515, Control_c, 12, 7, 111
14, 48535, Control_c, 12, 7, 112
14, 48585, Control_c, 12, 7, 111
14, 48595, Control_c, 12, 7, 110
14, 48630, Control_c, 12, 7, 109
14, 48635, Control_c, 12, 7, 108
14, 48646, Control_c, 12, 7, 107
14, 48660, Control_c, 12, 7, 105
14, 48665, Control_c, 12, 7, 103
14, 48685, Control_c, 12, 7, 102
14, 48695, Control_c, 12, 7, 101
14, 48700, Control_c, 12, 7, 100
14, 48745, Control_c, 12, 7, 102
14, 48750, Control_c, 12, 7, 105
14, 48750, Note_on_c, 12, 76, 88
14, 48765, Control_c, 12, 7, 106
14, 48780, Control_c, 12, 7, 107
14, 48790, Control_c, 12, 7, 108
14, 48835, Control_c, 12, 7, 109
14, 48845, Control_c, 12, 7, 110
14, 48855, Control_c, 12, 7, 111
14, 48870, Note_on_c, 12, 76, 0
14, 48881, Control_c, 12, 7, 112
14, 48886, Control_c, 12, 7, 113
14, 48900, Note_on_c, 12, 79, 86
14, 48975, Control_c, 12, 7, 114
14, 49020, Note_on_c, 12, 79, 0
14, 49020, Note_on_c, 12, 77, 88
14, 49032, Control_c, 12, 7, 115
14, 49050, Control_c, 12, 7, 116
14, 49110, Note_on_c, 12, 77, 0
14, 49140, Note_on_c, 12, 72, 75
14, 49285, Control_c, 12, 7, 115
14, 49380, Note_on_c, 12, 72, 0
14, 49380, Note_on_c, 12, 79, 64
14, 49500, Note_on_c, 12, 77, 76
14, 49530, Note_on_c, 12, 79, 0
14, 49590, Note_on_c, 12, 77, 0
14, 49595, Control_c, 12, 7, 114
14, 49620, Note_on_c, 12, 77, 90
14, 49625, Control_c, 12, 7, 113
14, 49630, Control_c, 12, 7, 112
14, 49650, Control_c, 12, 7, 111
14, 49765, Control_c, 12, 7, 112
14, 49770, Control_c, 12, 7, 113
14, 49785, Control_c, 12, 7, 114
14, 49800, Note_on_c, 12, 77, 0
14, 49800, Note_on_c, 12, 77, 64
14, 49860, Note_on_c, 12, 77, 0
14, 49860, Note_on_c, 12, 79, 80
14, 50100, Note_on_c, 12, 79, 0
14, 50100, Note_on_c, 12, 76, 62
14, 50413, Control_c, 12, 64, 127
14, 50444, Control_c, 12, 64, 0
14, 50510, Control_c, 12, 64, 127
14, 50550, Note_on_c, 12, 76, 0
14, 50596, Control_c, 12, 64, 0
14, 50647, Control_c, 12, 64, 127
14, 50700, Note_on_c, 12, 76, 68
14, 50717, Control_c, 12, 64, 0
14, 50768, Control_c, 12, 64, 127
14, 50808, Control_c, 12, 64, 0
14, 50820, Note_on_c, 12, 76, 0
14, 50820, Note_on_c, 12, 79, 88
14, 50866, Control_c, 12, 64, 127
14, 50880, Control_c, 12, 64, 0
14, 50940, Note_on_c, 12, 79, 0
14, 50940, Note_on_c, 12, 77, 94
14, 50948, Control_c, 12, 64, 127
14, 50960, Control_c, 12, 64, 0
14, 51060, Note_on_c, 12, 77, 0
14, 51060, Note_on_c, 12, 72, 85
14, 51350, Control_c, 12, 64, 127
14, 51372, Control_c, 12, 64, 0
14, 51466, Control_c, 12, 64, 127
14, 51538, Control_c, 12, 64, 0
14, 51600, Note_on_c, 12, 72, 0
14, 51600, Note_on_c, 12, 79, 62
14, 51630, Note_on_c, 12, 79, 0
14, 51660, Note_on_c, 12, 79, 80
14, 51750, Note_on_c, 12, 79, 0
14, 51780, Note_on_c, 12, 79, 76
14, 51921, Control_c, 12, 64, 127
14, 51927, Control_c, 12, 64, 0
14, 51930, Note_on_c, 12, 79, 0
14, 52075, Control_c, 12, 64, 127
14, 52081, Control_c, 12, 64, 0
14, 52218, Control_c, 12, 64, 127
14, 52254, Control_c, 12, 64, 0
14, 52322, Control_c, 12, 64, 127
14, 52364, Control_c, 12, 64, 0
14, 52380, Note_on_c, 12, 81, 71
14, 52428, Control_c, 12, 64, 127
14, 52476, Control_c, 12, 64, 0
14, 52500, Note_on_c, 12, 81, 0
14, 52500, Note_on_c, 12, 79, 101
14, 52539, Control_c, 12, 64, 127
14, 52564, Control_c, 12, 64, 0
14, 52620, Note_on_c, 12, 79, 0
14, 52620, Note_on_c, 12, 77, 76
14, 52740, Note_on_c, 12, 77, 0
14, 52740, Note_on_c, 12, 79, 64
14, 52858, Control_c, 12, 64, 127
14, 52861, Control_c, 12, 64, 0
14, 52920, Note_on_c, 12, 79, 0
14, 52937, Control_c, 12, 64, 127
14, 52974, Control_c, 12, 64, 0
14, 53037, Control_c, 12, 64, 127
14, 53058, Control_c, 12, 64, 0
14, 53168, Control_c, 12, 64, 127
14, 53204, Control_c, 12, 64, 0
14, 53267, Control_c, 12, 64, 127
14, 53301, Control_c, 12, 64, 0
14, 53400, Note_on_c, 12, 79, 67
14, 53407, Control_c, 12, 64, 127
14, 53430, Note_on_c, 12, 79, 0
14, 53452, Control_c, 12, 64, 0
14, 53460, Note_on_c, 12, 79, 66
14, 53531, Control_c, 12, 64, 127
14, 53550, Note_on_c, 12, 79, 0
14, 53558, Control_c, 12, 64, 0
14, 53580, Note_on_c, 12, 79, 44
14, 53626, Control_c, 12, 64, 127
14, 53670, Note_on_c, 12, 79, 0
14, 53670, Note_on_c, 12, 79, 73
14, 53686, Control_c, 12, 64, 0
14, 53759, Control_c, 12, 64, 127
14, 53810, Control_c, 12, 64, 0
14, 53871, Control_c, 12, 64, 127
14, 53880, Note_on_c, 12, 79, 0
14, 53941, Control_c, 12, 64, 0
14, 53995, Control_c, 12, 64, 127
14, 54053, Control_c, 12, 64, 0
14, 54123, Control_c, 12, 64, 127
14, 54156, Control_c, 12, 64, 0
14, 54232, Control_c, 12, 64, 127
14, 54281, Control_c, 12, 64, 0
14, 54300, Note_on_c, 12, 81, 65
14, 54344, Control_c, 12, 64, 127
14, 54386, Control_c, 12, 64, 0
14, 54420, Note_on_c, 12, 81, 0
14, 54420, Note_on_c, 12, 79, 85
14, 54454, Control_c, 12, 64, 127
14, 54474, Control_c, 12, 64, 0
14, 54540, Note_on_c, 12, 79, 0
14, 54540, Note_on_c, 12, 77, 66
14, 54544, Control_c, 12, 64, 127
14, 54551, Control_c, 12, 64, 0
14, 54660, Note_on_c, 12, 77, 0
14, 54660, Note_on_c, 12, 79, 60
14, 54806, Control_c, 12, 64, 127
14, 54835, Control_c, 12, 64, 0
14, 54900, Note_on_c, 12, 79, 0
14, 54902, Control_c, 12, 64, 127
14, 54951, Control_c, 12, 64, 0
14, 54975, Control_c, 12, 7, 116
14, 55014, Control_c, 12, 7, 114
14, 55014, Control_c, 12, 64, 127
14, 55045, Control_c, 12, 64, 0
14, 55050, Control_c, 12, 7, 113
14, 55060, Control_c, 12, 7, 112
14, 55075, Control_c, 12, 7, 111
14, 55094, Control_c, 12, 64, 127
14, 55120, Control_c, 12, 64, 0
14, 55149, Control_c, 12, 7, 112
14, 55154, Control_c, 12, 7, 113
14, 55185, Control_c, 12, 64, 127
14, 55200, Control_c, 12, 7, 114
14, 55233, Control_c, 12, 64, 0
14, 55260, Control_c, 12, 7, 115
14, 55275, Control_c, 12, 7, 116
14, 55318, Control_c, 12, 64, 127
14, 55355, Control_c, 12, 7, 115
14, 55360, Control_c, 12, 7, 114
14, 55373, Control_c, 12, 7, 113
14, 55390, Control_c, 12, 7, 112
14, 55390, Control_c, 12, 64, 0
14, 55435, Control_c, 12, 7, 111
14, 55440, Note_on_c, 12, 79, 76
14, 55450, Control_c, 12, 7, 110
14, 55454, Control_c, 12, 64, 127
14, 55464, Control_c, 12, 7, 109
14, 55470, Note_on_c, 12, 79, 0
14, 55470, Control_c, 12, 7, 108
14, 55497, Control_c, 12, 64, 0
14, 55500, Note_on_c, 12, 79, 73
14, 55535, Control_c, 12, 7, 109
14, 55540, Control_c, 12, 7, 110
14, 55550, Control_c, 12, 7, 111
14, 55566, Control_c, 12, 7, 112
14, 55566, Control_c, 12, 64, 127
14, 55571, Control_c, 12, 7, 113
14, 55581, Control_c, 12, 7, 114
14, 55590, Note_on_c, 12, 79, 0
14, 55600, Control_c, 12, 64, 0
14, 55605, Control_c, 12, 7, 115
14, 55610, Control_c, 12, 7, 116
14, 55620, Note_on_c, 12, 79, 80
14, 55671, Control_c, 12, 7, 117
14, 55706, Control_c, 12, 64, 127
14, 55737, Control_c, 12, 64, 0
14, 55770, Note_on_c, 12, 79, 0
14, 55803, Control_c, 12, 64, 127
14, 55858, Control_c, 12, 64, 0
14, 55916, Control_c, 12, 64, 127
14, 55964, Control_c, 12, 64, 0
14, 56027, Control_c, 12, 64, 127
14, 56055, Control_c, 12, 7, 116
14, 56070, Control_c, 12, 64, 0
14, 56146, Control_c, 12, 64, 127
14, 56197, Control_c, 12, 64, 0
14, 56220, Note_on_c, 12, 81, 74
14, 56261, Control_c, 12, 64, 127
14, 56303, Control_c, 12, 64, 0
14, 56310, Note_on_c, 12, 81, 0
14, 56310, Note_on_c, 12, 79, 76
14, 56383, Control_c, 12, 64, 127
14, 56422, Control_c, 12, 64, 0
14, 56460, Note_on_c, 12, 79, 0
14, 56460, Note_on_c, 12, 77, 60
14, 56488, Control_c, 12, 64, 127
14, 56525, Control_c, 12, 64, 0
14, 56580, Note_on_c, 12, 77, 0
14, 56580, Note_on_c, 12, 79, 60
14, 56670, Control_c, 12, 64, 127
14, 56704, Control_c, 12, 64, 0
14, 56752, Control_c, 12, 64, 127
14, 56789, Control_c, 12, 64, 0
14, 56790, Note_on_c, 12, 79, 0
14, 56883, Control_c, 12, 64, 127
14, 56898, Control_c, 12, 64, 0
14, 57005, Control_c, 12, 64, 127
14, 57007, Control_c, 12, 64, 0
14, 57116, Control_c, 12, 64, 127
14, 57159, Control_c, 12, 64, 0
14, 57180, Note_on_c, 12, 81, 62
14, 57225, Control_c, 12, 64, 127
14, 57262, Control_c, 12, 64, 0
14, 57300, Note_on_c, 12, 81, 0
14, 57300, Note_on_c, 12, 79, 72
14, 57331, Control_c, 12, 64, 127
14, 57362, Control_c, 12, 64, 0
14, 57420, Note_on_c, 12, 79, 0
14, 57420, Note_on_c, 12, 77, 66
14, 57435, Control_c, 12, 64, 127
14, 57438, Control_c, 12, 64, 0
14, 57540, Note_on_c, 12, 77, 0
14, 57540, Note_on_c, 12, 79, 73
14, 57690, Note_on_c, 12, 79, 0
14, 57726, Control_c, 12, 64, 127
14, 57781, Control_c, 12, 64, 0
14, 57841, Control_c, 12, 64, 127
14, 57878, Control_c, 12, 64, 0
14, 57960, Control_c, 12, 64, 127
14, 58005, Control_c, 12, 64, 0
14, 58063, Control_c, 12, 64, 127
14, 58123, Control_c, 12, 64, 0
14, 58140, Note_on_c, 12, 81, 70
14, 58190, Control_c, 12, 64, 127
14, 58230, Control_c, 12, 64, 0
14, 58260, Note_on_c, 12, 81, 0
14, 58260, Note_on_c, 12, 79, 74
14, 58294, Control_c, 12, 64, 127
14, 58341, Control_c, 12, 64, 0
14, 58380, Note_on_c, 12, 79, 0
14, 58380, Note_on_c, 12, 77, 69
14, 58400, Control_c, 12, 64, 127
14, 58448, Control_c, 12, 64, 0
14, 58500, Note_on_c, 12, 77, 0
14, 58500, Note_on_c, 12, 79, 66
14, 59034, Control_c, 12, 64, 127
14, 59043, Control_c, 12, 64, 0
14, 59125, Control_c, 12, 64, 127
14, 59190, Note_on_c, 12, 79, 0
14, 59200, Control_c, 12, 64, 0
14, 59220, Note_on_c, 12, 79, 66
14, 59270, Control_c, 12, 64, 127
14, 59310, Note_on_c, 12, 79, 0
14, 59318, Control_c, 12, 64, 0
14, 59340, Note_on_c, 12, 79, 104
14, 59376, Control_c, 12, 64, 127
14, 59382, Control_c, 12, 64, 0
14, 59430, Note_on_c, 12, 79, 0
14, 59460, Note_on_c, 12, 79, 90
14, 59603, Control_c, 12, 64, 127
14, 59610, Note_on_c, 12, 79, 0
14, 59661, Control_c, 12, 64, 0
14, 59716, Control_c, 12, 64, 127
14, 59749, Control_c, 12, 64, 0
14, 59801, Control_c, 12, 64, 127
14, 59828, Control_c, 12, 64, 0
14, 59895, Control_c, 12, 64, 127
14, 59931, Control_c, 12, 64, 0
14, 59998, Control_c, 12, 64, 127
14, 60047, Control_c, 12, 64, 0
14, 60060, Note_on_c, 12, 81, 72
14, 60107, Control_c, 12, 64, 127
14, 60150, Control_c, 12, 64, 0
14, 60180, Note_on_c, 12, 79, 83
14, 60210, Note_on_c, 12, 81, 0
14, 60213, Control_c, 12, 64, 127
14, 60231, Control_c, 12, 64, 0
14, 60295, Control_c, 12, 64, 127
14, 60300, Note_on_c, 12, 79, 0
14, 60300, Note_on_c, 12, 77, 69
14, 60301, Control_c, 12, 64, 0
14, 60420, Note_on_c, 12, 77, 0
14, 60420, Note_on_c, 12, 79, 86
14, 60522, Control_c, 12, 64, 127
14, 60559, Control_c, 12, 64, 0
14, 60570, Note_on_c, 12, 79, 0
14, 60622, Control_c, 12, 64, 127
14, 60644, Control_c, 12, 64, 0
14, 60707, Control_c, 12, 64, 127
14, 60747, Control_c, 12, 64, 0
14, 60826, Control_c, 12, 64, 127
14, 60844, Control_c, 12, 64, 0
14, 60941, Control_c, 12, 64, 127
14, 60983, Control_c, 12, 64, 0
14, 61020, Note_on_c, 12, 81, 88
14, 61063, Control_c, 12, 64, 127
14, 61095, Control_c, 12, 64, 0
14, 61140, Note_on_c, 12, 79, 70
14, 61168, Control_c, 12, 64, 127
14, 61170, Note_on_c, 12, 81, 0
14, 61174, Control_c, 12, 64, 0
14, 61260, Note_on_c, 12, 79, 0
14, 61260, Note_on_c, 12, 77, 75
14, 61260, Control_c, 12, 64, 127
14, 61262, Control_c, 12, 64, 0
14, 61350, Note_on_c, 12, 79, 68
14, 61380, Note_on_c, 12, 77, 0
14, 61472, Control_c, 12, 64, 127
14, 61478, Control_c, 12, 64, 0
14, 61530, Note_on_c, 12, 79, 0
14, 61554, Control_c, 12, 64, 127
14, 61590, Control_c, 12, 64, 0
14, 61663, Control_c, 12, 64, 127
14, 61705, Control_c, 12, 64, 0
14, 61800, Control_c, 12, 64, 127
14, 61824, Control_c, 12, 64, 0
14, 61905, Control_c, 12, 64, 127
14, 61954, Control_c, 12, 64, 0
14, 61980, Note_on_c, 12, 81, 88
14, 62042, Control_c, 12, 64, 127
14, 62069, Control_c, 12, 64, 0
14, 62100, Note_on_c, 12, 79, 80
14, 62130, Note_on_c, 12, 81, 0
14, 62167, Control_c, 12, 64, 127
14, 62169, Control_c, 12, 64, 0
14, 62220, Note_on_c, 12, 79, 0
14, 62220, Note_on_c, 12, 77, 74
14, 62340, Note_on_c, 12, 77, 0
14, 62340, Note_on_c, 12, 79, 79
14, 62400, Control_c, 12, 7, 120
14, 62430, Control_c, 12, 7, 119
14, 62450, Control_c, 12, 7, 118
14, 62480, Control_c, 12, 7, 117
14, 62500, Control_c, 12, 7, 116
14, 62520, Control_c, 12, 7, 115
14, 62550, Control_c, 12, 7, 114
14, 62550, Note_on_c, 12, 81, 65
14, 62570, Control_c, 12, 7, 113
14, 62600, Control_c, 12, 7, 112
14, 62610, Note_on_c, 12, 81, 0
14, 62620, Control_c, 12, 7, 111
14, 62640, Control_c, 12, 7, 110
14, 62670, Control_c, 12, 7, 109
14, 62690, Control_c, 12, 7, 108
14, 62700, Note_on_c, 12, 77, 58
14, 62720, Control_c, 12, 7, 107
14, 62730, Note_on_c, 12, 79, 0
14, 62740, Control_c, 12, 7, 106
14, 62760, Control_c, 12, 7, 105
14, 62790, Control_c, 12, 7, 104
14, 62810, Control_c, 12, 7, 103
14, 62820, Note_on_c, 12, 77, 0
14, 62820, Note_on_c, 12, 79, 67
14, 62840, Control_c, 12, 7, 102
14, 62860, Control_c, 12, 7, 101
14, 62880, Control_c, 12, 7, 100
14, 62910, Control_c, 12, 7, 99
14, 62930, Control_c, 12, 7, 98
14, 62960, Control_c, 12, 7, 97
14, 62980, Control_c, 12, 7, 96
14, 63000, Control_c, 12, 7, 95
14, 63030, Control_c, 12, 7, 94
14, 63050, Control_c, 12, 7, 93
14, 63080, Control_c, 12, 7, 92
14, 63100, Control_c, 12, 7, 91
14, 63120, Note_on_c, 12, 79, 0
14, 63120, Control_c, 12, 7, 90
14, 63120, Note_on_c, 12, 79, 66
14, 63150, Note_on_c, 12, 79, 0
14, 63150, Control_c, 12, 7, 89
14, 63170, Control_c, 12, 7, 88
14, 63180, Note_on_c, 12, 79, 68
14, 63200, Control_c, 12, 7, 87
14, 63220, Control_c, 12, 7, 86
14, 63240, Control_c, 12, 7, 85
14, 63270, Note_on_c, 12, 79, 0
14, 63270, Control_c, 12, 7, 84
14, 63290, Control_c, 12, 7, 83
14, 63300, Note_on_c, 12, 79, 86
14, 63320, Control_c, 12, 7, 82
14, 63340, Control_c, 12, 7, 81
14, 63360, Control_c, 12, 7, 80
14, 63390, Control_c, 12, 7, 79
14, 63410, Control_c, 12, 7, 78
14, 63440, Control_c, 12, 7, 77
14, 63460, Control_c, 12, 7, 76
14, 63480, Note_on_c, 12, 79, 0
14, 63480, Control_c, 12, 7, 75
14, 63510, Control_c, 12, 7, 74
14, 63530, Control_c, 12, 7, 73
14, 63560, Control_c, 12, 7, 72
14, 63580, Control_c, 12, 7, 71
14, 63600, Control_c, 12, 7, 70
14, 63630, Control_c, 12, 7, 69
14, 63650, Control_c, 12, 7, 68
14, 63680, Control_c, 12, 7, 67
14, 63700, Control_c, 12, 7, 66
14, 63720, Control_c, 12, 7, 65
14, 63750, Control_c, 12, 7, 64
14, 63770, Control_c, 12, 7, 63
14, 63800, Control_c, 12, 7, 62
14, 63820, Control_c, 12, 7, 61
14, 63840, Control_c, 12, 7, 60
14, 63870, Control_c, 12, 7, 59
14, 63890, Control_c, 12, 7, 58
14, 63920, Control_c, 12, 7, 57
14, 63940, Control_c, 12, 7, 56
14, 63960, Control_c, 12, 7, 55
14, 63990, Control_c, 12, 7, 54
14, 64010, Control_c, 12, 7, 53
14, 64040, Control_c, 12, 7, 52
14, 64060, Control_c, 12, 7, 51
14, 64080, Control_c, 12, 7, 50
14, 64110, Control_c, 12, 7, 49
14, 64130, Control_c, 12, 7, 48
14, 64160, Control_c, 12, 7, 47
14, 64180, Control_c, 12, 7, 46
14, 64200, Control_c, 12, 7, 45
14, 64230, Control_c, 12, 7, 44
14, 64250, Control_c, 12, 7, 43
14, 64280, Control_c, 12, 7, 42
14, 64300, Control_c, 12, 7, 41
14, 64320, Control_c, 12, 7, 40
14, 64350, Control_c, 12, 7, 39
14, 64370, Control_c, 12, 7, 38
14, 64400, Control_c, 12, 7, 37
14, 64420, Control_c, 12, 7, 36
14, 64440, Control_c, 12, 7, 35
14, 64470, Control_c, 12, 7, 34
14, 64490, Control_c, 12, 7, 33
14, 64520, Control_c, 12, 7, 32
14, 64540, Control_c, 12, 7, 31
14, 64560, Control_c, 12, 7, 30
14, 64590, Control_c, 12, 7, 29
14, 64610, Control_c, 12, 7, 28
14, 64640, Control_c, 12, 7, 27
14, 64660, Control_c, 12, 7, 26
14, 64680, Control_c, 12, 7, 25
14, 64710, Control_c, 12, 7, 24
14, 64730, Control_c, 12, 7, 23
14, 64760, Control_c, 12, 7, 22
14, 64780, Control_c, 12, 7, 21
14, 64800, Control_c, 12, 7, 20
14, 64830, Control_c, 12, 7, 19
14, 64850, Control_c, 12, 7, 18
14, 64880, Control_c, 12, 7, 17
14, 64900, Control_c, 12, 7, 16
14, 64920, Control_c, 12, 7, 15
14, 64950, Control_c, 12, 7, 14
14, 64970, Control_c, 12, 7, 13
14, 65000, Control_c, 12, 7, 12
14, 65020, Control_c, 12, 7, 11
14, 65040, Control_c, 12, 7, 10
14, 65070, Control_c, 12, 7, 9
14, 65090, Control_c, 12, 7, 8
14, 65120, Control_c, 12, 7, 7
14, 65140, Control_c, 12, 7, 6
14, 65160, Control_c, 12, 7, 5
14, 65190, Control_c, 12, 7, 4
14, 65210, Control_c, 12, 7, 3
14, 65240, Control_c, 12, 7, 2
14, 65260, Control_c, 12, 7, 1
14, 65280, Control_c, 12, 7, 0
14, 65280, End_track
15, 0, Start_track
15, 0, MIDI_port, 0
15, 0, Title_t, "Bird Tweet"
15, 0, Control_c, 15, 0, 56
15, 0, Control_c, 15, 32, 0
15, 0, Program_c, 15, 123
15, 0, Control_c, 15, 7, 100
15, 0, Control_c, 15, 10, 63
15, 1910, Note_on_c, 15, 56, 26
15, 1910, Note_on_c, 15, 63, 31
15, 1916, Note_on_c, 15, 75, 44
15, 2602, Note_on_c, 15, 75, 0
15, 2776, Note_on_c, 15, 63, 0
15, 2796, Note_on_c, 15, 56, 0
15, 3844, Note_on_c, 15, 63, 42
15, 3861, Note_on_c, 15, 75, 8
15, 4530, Note_on_c, 15, 68, 23
15, 4560, Note_on_c, 15, 75, 0
15, 4791, Note_on_c, 15, 63, 0
15, 4799, Note_on_c, 15, 68, 0
15, 4802, Note_on_c, 15, 51, 54
15, 4859, Note_on_c, 15, 51, 0
15, 21587, Note_on_c, 15, 68, 79
15, 21588, Note_on_c, 15, 80, 96
15, 21631, Note_on_c, 15, 68, 0
15, 21633, Note_on_c, 15, 80, 0
15, 21649, Note_on_c, 15, 80, 62
15, 21651, Note_on_c, 15, 68, 54
15, 21710, Note_on_c, 15, 56, 44
15, 21757, Note_on_c, 15, 56, 0
15, 21778, Note_on_c, 15, 56, 71
15, 21811, Note_on_c, 15, 80, 0
15, 21839, Note_on_c, 15, 56, 0
15, 21867, Note_on_c, 15, 56, 75
15, 22111, Note_on_c, 15, 68, 0
15, 22315, Note_on_c, 15, 56, 0
15, 24574, Note_on_c, 15, 56, 31
15, 24693, Note_on_c, 15, 68, 50
15, 25206, Note_on_c, 15, 75, 13
15, 25316, Note_on_c, 15, 56, 0
15, 25560, Note_on_c, 15, 68, 0
15, 25671, Note_on_c, 15, 75, 0
15, 31150, Control_c, 15, 10, 70
15, 31190, Control_c, 15, 10, 74
15, 31195, Control_c, 15, 10, 75
15, 31200, Control_c, 15, 10, 78
15, 31205, Control_c, 15, 10, 80
15, 31211, Control_c, 15, 10, 84
15, 31277, Control_c, 15, 10, 81
15, 31290, Control_c, 15, 10, 79
15, 31299, Control_c, 15, 10, 78
15, 31299, End_track
16, 0, Start_track
16, 0, MIDI_port, 0
16, 0, Title_t, "Lead 3 (calliope lead)"
16, 0, Control_c, 14, 0, 56
16, 0, Control_c, 14, 32, 0
16, 0, Program_c, 14, 85
16, 0, Control_c, 14, 7, 80
16, 0, Control_c, 14, 10, 64
16, 1264, Note_on_c, 14, 65, 68
16, 1310, Note_on_c, 14, 65, 0
16, 1374, Note_on_c, 14, 63, 92
16, 1438, Note_on_c, 14, 63, 0
16, 1908, Control_c, 14, 64, 127
16, 1946, Control_c, 14, 1, 1
16, 1946, Control_c, 14, 1, 3
16, 1947, Control_c, 14, 1, 4
16, 1949, Control_c, 14, 1, 5
16, 1950, Control_c, 14, 1, 7
16, 1951, Control_c, 14, 1, 8
16, 1952, Control_c, 14, 1, 9
16, 1953, Control_c, 14, 1, 10
16, 1954, Control_c, 14, 1, 11
16, 1956, Control_c, 14, 1, 12
16, 1957, Control_c, 14, 1, 13
16, 1958, Control_c, 14, 1, 14
16, 1958, Control_c, 14, 1, 15
16, 1959, Control_c, 14, 1, 16
16, 1960, Control_c, 14, 1, 17
16, 1962, Control_c, 14, 1, 18
16, 1962, Control_c, 14, 1, 19
16, 1964, Control_c, 14, 1, 21
16, 1964, Control_c, 14, 1, 24
16, 1966, Control_c, 14, 1, 26
16, 1967, Control_c, 14, 1, 27
16, 1968, Control_c, 14, 1, 28
16, 1969, Control_c, 14, 1, 30
16, 1970, Control_c, 14, 1, 32
16, 1971, Control_c, 14, 1, 33
16, 1973, Control_c, 14, 1, 34
16, 1974, Control_c, 14, 1, 36
16, 1975, Control_c, 14, 1, 37
16, 1976, Control_c, 14, 1, 38
16, 1977, Control_c, 14, 1, 39
16, 1978, Control_c, 14, 1, 40
16, 1981, Control_c, 14, 1, 41
16, 1983, Control_c, 14, 1, 42
16, 1985, Control_c, 14, 1, 43
16, 1989, Control_c, 14, 1, 44
16, 1995, Control_c, 14, 1, 45
16, 2000, Control_c, 14, 1, 46
16, 2006, Control_c, 14, 1, 47
16, 2012, Control_c, 14, 1, 48
16, 2017, Control_c, 14, 1, 49
16, 2023, Control_c, 14, 1, 50
16, 2028, Control_c, 14, 1, 49
16, 2036, Control_c, 14, 1, 50
16, 2037, Control_c, 14, 1, 51
16, 2040, Control_c, 14, 1, 52
16, 2048, Control_c, 14, 1, 53
16, 2059, Control_c, 14, 1, 52
16, 2064, Control_c, 14, 1, 51
16, 2076, Control_c, 14, 1, 50
16, 2082, Control_c, 14, 1, 49
16, 2089, Note_on_c, 14, 70, 32
16, 2102, Control_c, 14, 1, 48
16, 2107, Note_on_c, 14, 70, 0
16, 2108, Control_c, 14, 1, 47
16, 2109, Control_c, 14, 1, 46
16, 2113, Control_c, 14, 1, 45
16, 2121, Control_c, 14, 1, 44
16, 2133, Control_c, 14, 1, 43
16, 2133, Note_on_c, 14, 70, 32
16, 2136, Control_c, 14, 1, 42
16, 2152, Control_c, 14, 1, 41
16, 2156, Control_c, 14, 1, 40
16, 2157, Control_c, 14, 1, 39
16, 2158, Note_on_c, 14, 70, 0
16, 2160, Control_c, 14, 1, 38
16, 2161, Control_c, 14, 1, 37
16, 2163, Control_c, 14, 1, 36
16, 2164, Control_c, 14, 1, 35
16, 2165, Control_c, 14, 1, 34
16, 2166, Control_c, 14, 1, 33
16, 2167, Control_c, 14, 1, 32
16, 2169, Control_c, 14, 1, 31
16, 2171, Control_c, 14, 1, 30
16, 2172, Control_c, 14, 1, 29
16, 2173, Control_c, 14, 1, 28
16, 2175, Control_c, 14, 1, 27
16, 2178, Control_c, 14, 1, 26
16, 2178, Note_on_c, 14, 70, 36
16, 2182, Control_c, 14, 1, 27
16, 2189, Control_c, 14, 1, 26
16, 2190, Control_c, 14, 1, 25
16, 2190, Control_c, 14, 1, 24
16, 2191, Control_c, 14, 1, 22
16, 2192, Control_c, 14, 1, 21
16, 2193, Control_c, 14, 1, 20
16, 2194, Control_c, 14, 1, 19
16, 2196, Control_c, 14, 1, 18
16, 2198, Control_c, 14, 1, 17
16, 2200, Control_c, 14, 1, 16
16, 2202, Control_c, 14, 1, 15
16, 2204, Note_on_c, 14, 70, 0
16, 2222, Note_on_c, 14, 70, 37
16, 2237, Control_c, 14, 1, 14
16, 2239, Control_c, 14, 1, 13
16, 2243, Control_c, 14, 1, 12
16, 2243, Control_c, 14, 1, 11
16, 2248, Control_c, 14, 1, 10
16, 2250, Note_on_c, 14, 70, 0
16, 2254, Control_c, 14, 1, 11
16, 2265, Note_on_c, 14, 70, 37
16, 2267, Control_c, 14, 1, 10
16, 2282, Control_c, 14, 1, 9
16, 2284, Control_c, 14, 1, 8
16, 2287, Control_c, 14, 1, 7
16, 2292, Note_on_c, 14, 70, 0
16, 2296, Control_c, 14, 1, 6
16, 2308, Note_on_c, 14, 70, 39
16, 2325, Control_c, 14, 1, 5
16, 2335, Control_c, 14, 1, 6
16, 2336, Note_on_c, 14, 70, 0
16, 2347, Control_c, 14, 1, 5
16, 2354, Note_on_c, 14, 70, 38
16, 2359, Control_c, 14, 1, 4
16, 2368, Control_c, 14, 1, 3
16, 2372, Control_c, 14, 1, 2
16, 2381, Note_on_c, 14, 70, 0
16, 2390, Control_c, 14, 1, 1
16, 2403, Note_on_c, 14, 70, 39
16, 2427, Note_on_c, 14, 70, 0
16, 2444, Control_c, 14, 1, 2
16, 2449, Note_on_c, 14, 70, 38
16, 2451, Control_c, 14, 1, 3
16, 2466, Pitch_bend_c, 14, 8063
16, 2467, Control_c, 14, 1, 2
16, 2472, Pitch_bend_c, 14, 8031
16, 2473, Note_on_c, 14, 70, 0
16, 2474, Control_c, 14, 1, 1
16, 2475, Pitch_bend_c, 14, 7967
16, 2478, Pitch_bend_c, 14, 7934
16, 2482, Pitch_bend_c, 14, 7902
16, 2484, Pitch_bend_c, 14, 7806
16, 2487, Pitch_bend_c, 14, 7742
16, 2490, Control_c, 14, 1, 0
16, 2491, Pitch_bend_c, 14, 7677
16, 2493, Pitch_bend_c, 14, 7645
16, 2495, Note_on_c, 14, 70, 36
16, 2497, Pitch_bend_c, 14, 7613
16, 2499, Pitch_bend_c, 14, 7549
16, 2502, Pitch_bend_c, 14, 7517
16, 2504, Pitch_bend_c, 14, 7453
16, 2506, Pitch_bend_c, 14, 7420
16, 2508, Pitch_bend_c, 14, 7356
16, 2513, Pitch_bend_c, 14, 7324
16, 2514, Pitch_bend_c, 14, 7292
16, 2519, Note_on_c, 14, 70, 0
16, 2519, Pitch_bend_c, 14, 7260
16, 2521, Pitch_bend_c, 14, 7196
16, 2525, Pitch_bend_c, 14, 7163
16, 2529, Pitch_bend_c, 14, 7099
16, 2534, Pitch_bend_c, 14, 7067
16, 2535, Pitch_bend_c, 14, 7035
16, 2540, Pitch_bend_c, 14, 7003
16, 2542, Pitch_bend_c, 14, 6971
16, 2544, Pitch_bend_c, 14, 6939
16, 2545, Note_on_c, 14, 70, 25
16, 2547, Pitch_bend_c, 14, 6906
16, 2550, Pitch_bend_c, 14, 6842
16, 2554, Pitch_bend_c, 14, 6746
16, 2559, Pitch_bend_c, 14, 6714
16, 2561, Pitch_bend_c, 14, 6682
16, 2563, Pitch_bend_c, 14, 6649
16, 2567, Pitch_bend_c, 14, 6617
16, 2569, Pitch_bend_c, 14, 6553
16, 2571, Note_on_c, 14, 70, 0
16, 2574, Pitch_bend_c, 14, 6521
16, 2580, Pitch_bend_c, 14, 6489
16, 2585, Pitch_bend_c, 14, 6457
16, 2590, Pitch_bend_c, 14, 6425
16, 2592, Note_on_c, 14, 70, 32
16, 2595, Pitch_bend_c, 14, 6392
16, 2597, Pitch_bend_c, 14, 6360
16, 2604, Pitch_bend_c, 14, 6328
16, 2607, Pitch_bend_c, 14, 6296
16, 2610, Pitch_bend_c, 14, 6264
16, 2612, Pitch_bend_c, 14, 6232
16, 2614, Pitch_bend_c, 14, 6200
16, 2616, Pitch_bend_c, 14, 6135
16, 2617, Note_on_c, 14, 70, 0
16, 2619, Pitch_bend_c, 14, 6103
16, 2623, Pitch_bend_c, 14, 6039
16, 2624, Pitch_bend_c, 14, 6007
16, 2631, Pitch_bend_c, 14, 5943
16, 2633, Pitch_bend_c, 14, 5878
16, 2638, Pitch_bend_c, 14, 5814
16, 2640, Pitch_bend_c, 14, 5750
16, 2642, Note_on_c, 14, 70, 27
16, 2644, Pitch_bend_c, 14, 5654
16, 2645, Pitch_bend_c, 14, 5621
16, 2648, Pitch_bend_c, 14, 5557
16, 2650, Pitch_bend_c, 14, 5525
16, 2655, Pitch_bend_c, 14, 5493
16, 2657, Pitch_bend_c, 14, 5429
16, 2660, Pitch_bend_c, 14, 5364
16, 2663, Pitch_bend_c, 14, 5332
16, 2665, Note_on_c, 14, 70, 0
16, 2667, Pitch_bend_c, 14, 5268
16, 2671, Pitch_bend_c, 14, 5236
16, 2677, Pitch_bend_c, 14, 5204
16, 2679, Pitch_bend_c, 14, 5172
16, 2684, Pitch_bend_c, 14, 5140
16, 2686, Pitch_bend_c, 14, 5107
16, 2688, Pitch_bend_c, 14, 5043
16, 2691, Pitch_bend_c, 14, 5011
16, 2692, Note_on_c, 14, 70, 35
16, 2694, Pitch_bend_c, 14, 4947
16, 2694, Pitch_bend_c, 14, 4883
16, 2696, Pitch_bend_c, 14, 4850
16, 2698, Pitch_bend_c, 14, 4786
16, 2701, Pitch_bend_c, 14, 4722
16, 2703, Pitch_bend_c, 14, 4690
16, 2705, Pitch_bend_c, 14, 4658
16, 2707, Pitch_bend_c, 14, 4593
16, 2710, Pitch_bend_c, 14, 4561
16, 2712, Pitch_bend_c, 14, 4529
16, 2713, Pitch_bend_c, 14, 4497
16, 2715, Pitch_bend_c, 14, 4465
16, 2716, Note_on_c, 14, 70, 0
16, 2718, Pitch_bend_c, 14, 4433
16, 2720, Pitch_bend_c, 14, 4401
16, 2724, Pitch_bend_c, 14, 4369
16, 2726, Pitch_bend_c, 14, 4336
16, 2729, Pitch_bend_c, 14, 4304
16, 2730, Pitch_bend_c, 14, 4272
16, 2732, Pitch_bend_c, 14, 4240
16, 2735, Pitch_bend_c, 14, 4176
16, 2737, Pitch_bend_c, 14, 4079
16, 2739, Pitch_bend_c, 14, 3983
16, 2741, Pitch_bend_c, 14, 3951
16, 2743, Pitch_bend_c, 14, 3855
16, 2746, Pitch_bend_c, 14, 3822
16, 2746, Note_on_c, 14, 70, 26
16, 2747, Pitch_bend_c, 14, 3790
16, 2749, Pitch_bend_c, 14, 3758
16, 2751, Pitch_bend_c, 14, 3726
16, 2754, Pitch_bend_c, 14, 3662
16, 2756, Pitch_bend_c, 14, 3630
16, 2758, Pitch_bend_c, 14, 3565
16, 2761, Pitch_bend_c, 14, 3533
16, 2763, Pitch_bend_c, 14, 3469
16, 2765, Pitch_bend_c, 14, 3405
16, 2766, Pitch_bend_c, 14, 3341
16, 2768, Pitch_bend_c, 14, 3276
16, 2771, Note_on_c, 14, 70, 0
16, 2771, Pitch_bend_c, 14, 3244
16, 2773, Pitch_bend_c, 14, 3212
16, 2775, Pitch_bend_c, 14, 3180
16, 2777, Pitch_bend_c, 14, 3084
16, 2779, Pitch_bend_c, 14, 3019
16, 2782, Pitch_bend_c, 14, 2955
16, 2783, Pitch_bend_c, 14, 2923
16, 2785, Pitch_bend_c, 14, 2891
16, 2787, Pitch_bend_c, 14, 2827
16, 2790, Pitch_bend_c, 14, 2730
16, 2792, Pitch_bend_c, 14, 2602
16, 2794, Pitch_bend_c, 14, 2537
16, 2796, Pitch_bend_c, 14, 2409
16, 2799, Pitch_bend_c, 14, 2280
16, 2800, Pitch_bend_c, 14, 2216
16, 2802, Pitch_bend_c, 14, 2152
16, 2804, Pitch_bend_c, 14, 2088
16, 2807, Pitch_bend_c, 14, 2023
16, 2809, Pitch_bend_c, 14, 1959
16, 2813, Pitch_bend_c, 14, 1831
16, 2818, Pitch_bend_c, 14, 1766
16, 2824, Pitch_bend_c, 14, 1702
16, 2826, Pitch_bend_c, 14, 1638
16, 2828, Pitch_bend_c, 14, 1574
16, 2830, Pitch_bend_c, 14, 1317
16, 2832, Pitch_bend_c, 14, 1188
16, 2835, Pitch_bend_c, 14, 1124
16, 2836, Pitch_bend_c, 14, 1060
16, 2839, Pitch_bend_c, 14, 995
16, 2840, Pitch_bend_c, 14, 867
16, 2843, Pitch_bend_c, 14, 738
16, 2845, Pitch_bend_c, 14, 610
16, 2847, Pitch_bend_c, 14, 546
16, 2849, Pitch_bend_c, 14, 417
16, 2851, Pitch_bend_c, 14, 353
16, 2853, Pitch_bend_c, 14, 289
16, 2858, Pitch_bend_c, 14, 224
16, 2864, Pitch_bend_c, 14, 160
16, 2868, Pitch_bend_c, 14, 96
16, 2870, Pitch_bend_c, 14, 32
16, 2872, Pitch_bend_c, 14, 0
16, 2918, Control_c, 14, 64, 0
16, 3173, Pitch_bend_c, 14, 481
16, 3175, Pitch_bend_c, 14, 1317
16, 3177, Pitch_bend_c, 14, 2152
16, 3180, Pitch_bend_c, 14, 2794
16, 3182, Pitch_bend_c, 14, 3180
16, 3184, Pitch_bend_c, 14, 3501
16, 3186, Pitch_bend_c, 14, 3758
16, 3188, Pitch_bend_c, 14, 4047
16, 3191, Pitch_bend_c, 14, 4369
16, 3192, Pitch_bend_c, 14, 4722
16, 3194, Pitch_bend_c, 14, 5043
16, 3196, Pitch_bend_c, 14, 5397
16, 3198, Pitch_bend_c, 14, 5814
16, 3201, Pitch_bend_c, 14, 6264
16, 3203, Pitch_bend_c, 14, 6649
16, 3205, Pitch_bend_c, 14, 7035
16, 3208, Pitch_bend_c, 14, 7356
16, 3210, Pitch_bend_c, 14, 7710
16, 3212, Pitch_bend_c, 14, 8031
16, 3213, Pitch_bend_c, 14, 8192
16, 4136, Control_c, 14, 1, 1
16, 4143, Control_c, 14, 1, 0
16, 4944, Control_c, 14, 64, 127
16, 5101, Note_on_c, 14, 65, 83
16, 5126, Note_on_c, 14, 65, 0
16, 5177, Control_c, 14, 64, 0
16, 5217, Note_on_c, 14, 63, 81
16, 5284, Note_on_c, 14, 63, 0
16, 5317, Control_c, 14, 64, 127
16, 5380, Control_c, 14, 64, 0
16, 6865, Control_c, 14, 64, 127
16, 7001, Note_on_c, 14, 65, 58
16, 7023, Note_on_c, 14, 65, 58
16, 7029, Note_on_c, 14, 65, 0
16, 7044, Note_on_c, 14, 65, 0
16, 7107, Control_c, 14, 64, 0
16, 7125, Note_on_c, 14, 63, 55
16, 7130, Note_on_c, 14, 63, 42
16, 7151, Note_on_c, 14, 63, 0
16, 7178, Control_c, 14, 64, 127
16, 7235, Note_on_c, 14, 63, 0
16, 7238, Control_c, 14, 64, 127
16, 7346, Control_c, 14, 64, 0
16, 7434, Note_on_c, 14, 82, 69
16, 7458, Note_on_c, 14, 82, 0
16, 8104, Control_c, 14, 64, 0
16, 8939, Note_on_c, 14, 65, 75
16, 8962, Note_on_c, 14, 65, 0
16, 9048, Note_on_c, 14, 63, 73
16, 9086, Control_c, 14, 64, 127
16, 9109, Note_on_c, 14, 63, 0
16, 9364, Note_on_c, 14, 70, 69
16, 9378, Note_on_c, 14, 70, 0
16, 9760, Control_c, 14, 64, 0
16, 9803, Control_c, 14, 64, 127
16, 9872, Control_c, 14, 64, 0
16, 10712, Control_c, 14, 64, 127
16, 10864, Note_on_c, 14, 65, 72
16, 10895, Note_on_c, 14, 65, 0
16, 10933, Control_c, 14, 64, 0
16, 10975, Note_on_c, 14, 63, 75
16, 11004, Note_on_c, 14, 63, 0
16, 11021, Control_c, 14, 64, 127
16, 11137, Control_c, 14, 64, 0
16, 11275, Note_on_c, 14, 82, 34
16, 12080, Control_c, 14, 64, 127
16, 12102, Note_on_c, 14, 82, 0
16, 12262, Control_c, 14, 64, 0
16, 13114, Control_c, 14, 64, 127
16, 13275, Control_c, 14, 64, 0
16, 21021, Control_c, 14, 1, 3
16, 21023, Control_c, 14, 1, 5
16, 21023, Control_c, 14, 1, 8
16, 21025, Control_c, 14, 1, 11
16, 21025, Control_c, 14, 1, 15
16, 21026, Control_c, 14, 1, 18
16, 21028, Control_c, 14, 1, 21
16, 21029, Control_c, 14, 1, 24
16, 21030, Control_c, 14, 1, 27
16, 21031, Control_c, 14, 1, 29
16, 21032, Control_c, 14, 1, 32
16, 21033, Control_c, 14, 1, 34
16, 21034, Control_c, 14, 1, 37
16, 21036, Control_c, 14, 1, 39
16, 21037, Control_c, 14, 1, 42
16, 21038, Control_c, 14, 1, 45
16, 21038, Control_c, 14, 1, 47
16, 21039, Control_c, 14, 1, 48
16, 21040, Control_c, 14, 1, 49
16, 21041, Control_c, 14, 1, 51
16, 21043, Control_c, 14, 1, 52
16, 21044, Control_c, 14, 1, 53
16, 21045, Control_c, 14, 1, 54
16, 21046, Control_c, 14, 1, 56
16, 21047, Control_c, 14, 1, 59
16, 21048, Control_c, 14, 1, 61
16, 21049, Control_c, 14, 1, 63
16, 21050, Control_c, 14, 1, 65
16, 21052, Control_c, 14, 1, 67
16, 21053, Control_c, 14, 1, 69
16, 21054, Control_c, 14, 1, 70
16, 21055, Control_c, 14, 1, 72
16, 21055, Control_c, 14, 1, 74
16, 21056, Control_c, 14, 1, 75
16, 21057, Control_c, 14, 1, 76
16, 21058, Control_c, 14, 1, 77
16, 21060, Control_c, 14, 1, 78
16, 21062, Control_c, 14, 1, 79
16, 21063, Control_c, 14, 1, 80
16, 21064, Control_c, 14, 1, 81
16, 21066, Control_c, 14, 1, 82
16, 21068, Control_c, 14, 1, 83
16, 21069, Control_c, 14, 1, 84
16, 21072, Control_c, 14, 1, 85
16, 21072, Control_c, 14, 1, 86
16, 21073, Control_c, 14, 1, 89
16, 21074, Control_c, 14, 1, 91
16, 21075, Control_c, 14, 1, 93
16, 21079, Control_c, 14, 1, 95
16, 21082, Control_c, 14, 1, 97
16, 21084, Control_c, 14, 1, 99
16, 21086, Control_c, 14, 1, 101
16, 21088, Control_c, 14, 1, 103
16, 21089, Control_c, 14, 1, 105
16, 21090, Control_c, 14, 1, 107
16, 21091, Control_c, 14, 1, 109
16, 21093, Control_c, 14, 1, 111
16, 21094, Control_c, 14, 1, 113
16, 21096, Control_c, 14, 1, 115
16, 21098, Control_c, 14, 1, 117
16, 21102, Control_c, 14, 1, 119
16, 21110, Control_c, 14, 1, 117
16, 21115, Control_c, 14, 1, 115
16, 21119, Control_c, 14, 1, 113
16, 21123, Control_c, 14, 1, 111
16, 21126, Control_c, 14, 1, 109
16, 21127, Control_c, 14, 64, 127
16, 21131, Control_c, 14, 1, 107
16, 21131, Control_c, 14, 1, 105
16, 21144, Control_c, 14, 1, 103
16, 21145, Control_c, 14, 1, 101
16, 21147, Control_c, 14, 1, 99
16, 21159, Control_c, 14, 1, 97
16, 21169, Control_c, 14, 1, 95
16, 21171, Control_c, 14, 1, 93
16, 21173, Control_c, 14, 1, 91
16, 21176, Control_c, 14, 1, 89
16, 21177, Control_c, 14, 1, 87
16, 21180, Control_c, 14, 1, 86
16, 21183, Control_c, 14, 1, 85
16, 21185, Control_c, 14, 1, 84
16, 21190, Control_c, 14, 1, 83
16, 21197, Control_c, 14, 1, 82
16, 21209, Control_c, 14, 1, 81
16, 21210, Control_c, 14, 1, 80
16, 21215, Control_c, 14, 1, 79
16, 21219, Control_c, 14, 1, 78
16, 21223, Control_c, 14, 1, 77
16, 21224, Control_c, 14, 1, 76
16, 21226, Control_c, 14, 1, 75
16, 21248, Control_c, 14, 1, 74
16, 21251, Control_c, 14, 1, 73
16, 21267, Control_c, 14, 1, 72
16, 21270, Control_c, 14, 1, 71
16, 21271, Control_c, 14, 1, 70
16, 21272, Control_c, 14, 1, 69
16, 21274, Control_c, 14, 1, 68
16, 21276, Control_c, 14, 1, 67
16, 21278, Control_c, 14, 1, 66
16, 21279, Control_c, 14, 1, 65
16, 21280, Control_c, 14, 1, 64
16, 21282, Control_c, 14, 1, 63
16, 21288, Control_c, 14, 1, 64
16, 21289, Control_c, 14, 1, 65
16, 21295, Control_c, 14, 1, 66
16, 21320, Control_c, 14, 1, 67
16, 21330, Control_c, 14, 1, 66
16, 21341, Control_c, 14, 1, 67
16, 21343, Control_c, 14, 1, 68
16, 21348, Control_c, 14, 1, 69
16, 21349, Control_c, 14, 1, 70
16, 21351, Control_c, 14, 1, 71
16, 21353, Control_c, 14, 1, 72
16, 21356, Control_c, 14, 1, 73
16, 21360, Control_c, 14, 1, 74
16, 21363, Control_c, 14, 1, 75
16, 21364, Control_c, 14, 1, 76
16, 21369, Control_c, 14, 1, 77
16, 21370, Control_c, 14, 1, 78
16, 21372, Control_c, 14, 1, 79
16, 21377, Control_c, 14, 1, 80
16, 21377, Control_c, 14, 1, 81
16, 21384, Control_c, 14, 1, 82
16, 21393, Control_c, 14, 1, 83
16, 21402, Control_c, 14, 1, 84
16, 21410, Control_c, 14, 1, 83
16, 21414, Control_c, 14, 1, 82
16, 21415, Control_c, 14, 1, 81
16, 21420, Control_c, 14, 1, 80
16, 21423, Control_c, 14, 1, 79
16, 21428, Control_c, 14, 1, 78
16, 21435, Control_c, 14, 1, 77
16, 21442, Control_c, 14, 1, 78
16, 21446, Control_c, 14, 1, 79
16, 21447, Control_c, 14, 1, 80
16, 21450, Control_c, 14, 1, 81
16, 21456, Control_c, 14, 1, 82
16, 21469, Control_c, 14, 1, 83
16, 21477, Control_c, 14, 1, 84
16, 21483, Control_c, 14, 1, 85
16, 21484, Control_c, 14, 1, 86
16, 21488, Control_c, 14, 1, 87
16, 21495, Control_c, 14, 1, 89
16, 21503, Control_c, 14, 1, 91
16, 21511, Control_c, 14, 1, 93
16, 21517, Control_c, 14, 1, 95
16, 21529, Control_c, 14, 1, 97
16, 21545, Control_c, 14, 1, 99
16, 21558, Control_c, 14, 1, 101
16, 21581, Control_c, 14, 1, 99
16, 21586, Control_c, 14, 1, 97
16, 21589, Control_c, 14, 1, 95
16, 21590, Control_c, 14, 1, 93
16, 21593, Note_on_c, 14, 70, 66
16, 21594, Control_c, 14, 1, 91
16, 21595, Control_c, 14, 1, 89
16, 21598, Control_c, 14, 1, 87
16, 21599, Control_c, 14, 1, 86
16, 21607, Control_c, 14, 1, 85
16, 21609, Control_c, 14, 1, 84
16, 21610, Control_c, 14, 1, 83
16, 21613, Note_on_c, 14, 70, 0
16, 21613, Control_c, 14, 1, 82
16, 21613, Control_c, 14, 1, 81
16, 21616, Control_c, 14, 1, 80
16, 21617, Control_c, 14, 1, 79
16, 21618, Control_c, 14, 1, 78
16, 21619, Control_c, 14, 1, 77
16, 21622, Control_c, 14, 1, 76
16, 21626, Control_c, 14, 1, 75
16, 21626, Control_c, 14, 1, 74
16, 21630, Control_c, 14, 1, 73
16, 21634, Control_c, 14, 1, 72
16, 21637, Control_c, 14, 1, 71
16, 21644, Control_c, 14, 1, 70
16, 21645, Control_c, 14, 1, 69
16, 21651, Control_c, 14, 1, 68
16, 21654, Note_on_c, 14, 70, 52
16, 21663, Control_c, 14, 1, 69
16, 21668, Control_c, 14, 1, 70
16, 21670, Note_on_c, 14, 70, 0
16, 21677, Control_c, 14, 1, 71
16, 21679, Control_c, 14, 1, 72
16, 21680, Control_c, 14, 1, 73
16, 21682, Control_c, 14, 1, 74
16, 21684, Control_c, 14, 1, 75
16, 21686, Note_on_c, 14, 70, 49
16, 21693, Control_c, 14, 1, 74
16, 21696, Control_c, 14, 1, 73
16, 21699, Control_c, 14, 1, 72
16, 21700, Control_c, 14, 1, 71
16, 21714, Note_on_c, 14, 70, 0
16, 21724, Control_c, 14, 1, 70
16, 21725, Control_c, 14, 1, 69
16, 21727, Control_c, 14, 1, 68
16, 21728, Control_c, 14, 1, 67
16, 21730, Control_c, 14, 1, 66
16, 21731, Control_c, 14, 1, 65
16, 21733, Control_c, 14, 1, 64
16, 21734, Control_c, 14, 1, 63
16, 21737, Control_c, 14, 1, 62
16, 21740, Control_c, 14, 1, 61
16, 21741, Control_c, 14, 1, 60
16, 21743, Control_c, 14, 1, 59
16, 21747, Note_on_c, 14, 70, 59
16, 21763, Control_c, 14, 1, 60
16, 21764, Control_c, 14, 1, 61
16, 21767, Note_on_c, 14, 70, 0
16, 21768, Control_c, 14, 1, 62
16, 21768, Control_c, 14, 1, 63
16, 21772, Control_c, 14, 1, 64
16, 21776, Control_c, 14, 1, 65
16, 21777, Note_on_c, 14, 70, 55
16, 21782, Control_c, 14, 1, 66
16, 21797, Control_c, 14, 1, 65
16, 21798, Control_c, 14, 1, 64
16, 21800, Control_c, 14, 1, 63
16, 21801, Control_c, 14, 1, 62
16, 21803, Control_c, 14, 1, 61
16, 21804, Control_c, 14, 1, 60
16, 21804, Control_c, 14, 1, 59
16, 21805, Control_c, 14, 1, 58
16, 21806, Control_c, 14, 1, 57
16, 21810, Note_on_c, 14, 70, 0
16, 21811, Control_c, 14, 1, 56
16, 21821, Control_c, 14, 1, 55
16, 21825, Control_c, 14, 1, 54
16, 21826, Control_c, 14, 1, 53
16, 21828, Control_c, 14, 1, 52
16, 21831, Control_c, 14, 1, 51
16, 21833, Control_c, 14, 1, 50
16, 21835, Control_c, 14, 1, 49
16, 21836, Control_c, 14, 1, 48
16, 21838, Control_c, 14, 1, 47
16, 21839, Control_c, 14, 1, 46
16, 21840, Control_c, 14, 1, 45
16, 21843, Control_c, 14, 1, 44
16, 21847, Control_c, 14, 1, 43
16, 21847, Note_on_c, 14, 70, 68
16, 21850, Control_c, 14, 1, 42
16, 21851, Control_c, 14, 1, 41
16, 21853, Control_c, 14, 1, 40
16, 21855, Control_c, 14, 1, 39
16, 21863, Control_c, 14, 1, 38
16, 21865, Note_on_c, 14, 70, 0
16, 21865, Control_c, 14, 1, 37
16, 21869, Control_c, 14, 1, 36
16, 21874, Control_c, 14, 1, 35
16, 21876, Note_on_c, 14, 70, 54
16, 21880, Control_c, 14, 1, 34
16, 21882, Control_c, 14, 1, 33
16, 21886, Control_c, 14, 1, 32
16, 21887, Control_c, 14, 1, 31
16, 21889, Control_c, 14, 1, 30
16, 21892, Control_c, 14, 1, 29
16, 21894, Control_c, 14, 1, 28
16, 21895, Control_c, 14, 1, 27
16, 21900, Control_c, 14, 1, 26
16, 21903, Control_c, 14, 1, 25
16, 21906, Control_c, 14, 1, 24
16, 21911, Note_on_c, 14, 70, 0
16, 21911, Control_c, 14, 1, 23
16, 21916, Control_c, 14, 1, 22
16, 21927, Pitch_bend_c, 14, 8063
16, 21929, Pitch_bend_c, 14, 8031
16, 21932, Pitch_bend_c, 14, 7967
16, 21933, Control_c, 14, 1, 21
16, 21933, Control_c, 14, 1, 20
16, 21935, Control_c, 14, 1, 19
16, 21935, Pitch_bend_c, 14, 7934
16, 21942, Pitch_bend_c, 14, 7902
16, 21944, Pitch_bend_c, 14, 7870
16, 21944, Note_on_c, 14, 70, 50
16, 21949, Pitch_bend_c, 14, 7838
16, 21950, Pitch_bend_c, 14, 7806
16, 21952, Pitch_bend_c, 14, 7742
16, 21954, Control_c, 14, 1, 20
16, 21955, Pitch_bend_c, 14, 7710
16, 21959, Pitch_bend_c, 14, 7677
16, 21961, Pitch_bend_c, 14, 7613
16, 21962, Control_c, 14, 1, 19
16, 21963, Note_on_c, 14, 70, 0
16, 21964, Pitch_bend_c, 14, 7549
16, 21966, Pitch_bend_c, 14, 7517
16, 21966, Control_c, 14, 1, 18
16, 21967, Pitch_bend_c, 14, 7453
16, 21968, Control_c, 14, 1, 17
16, 21969, Pitch_bend_c, 14, 7388
16, 21971, Pitch_bend_c, 14, 7356
16, 21973, Pitch_bend_c, 14, 7324
16, 21974, Control_c, 14, 1, 16
16, 21976, Pitch_bend_c, 14, 7292
16, 21977, Control_c, 14, 1, 15
16, 21977, Control_c, 14, 1, 14
16, 21978, Note_on_c, 14, 70, 51
16, 21980, Control_c, 14, 1, 13
16, 21981, Control_c, 14, 1, 12
16, 21984, Control_c, 14, 1, 11
16, 21986, Pitch_bend_c, 14, 7260
16, 21987, Control_c, 14, 1, 10
16, 21988, Pitch_bend_c, 14, 7228
16, 21991, Pitch_bend_c, 14, 7196
16, 21991, Control_c, 14, 1, 9
16, 21995, Pitch_bend_c, 14, 7163
16, 21997, Control_c, 14, 1, 10
16, 22000, Pitch_bend_c, 14, 7131
16, 22002, Pitch_bend_c, 14, 7099
16, 22004, Pitch_bend_c, 14, 7067
16, 22005, Pitch_bend_c, 14, 7035
16, 22007, Control_c, 14, 1, 11
16, 22007, Pitch_bend_c, 14, 7003
16, 22009, Note_on_c, 14, 70, 0
16, 22010, Pitch_bend_c, 14, 6906
16, 22012, Pitch_bend_c, 14, 6842
16, 22014, Pitch_bend_c, 14, 6746
16, 22016, Pitch_bend_c, 14, 6682
16, 22018, Pitch_bend_c, 14, 6649
16, 22021, Pitch_bend_c, 14, 6585
16, 22021, Control_c, 14, 1, 10
16, 22021, Control_c, 14, 1, 9
16, 22022, Pitch_bend_c, 14, 6553
16, 22024, Pitch_bend_c, 14, 6521
16, 22028, Control_c, 14, 1, 8
16, 22034, Control_c, 14, 1, 7
16, 22035, Control_c, 14, 1, 6
16, 22037, Pitch_bend_c, 14, 6489
16, 22041, Pitch_bend_c, 14, 6457
16, 22042, Control_c, 14, 1, 5
16, 22043, Control_c, 14, 1, 4
16, 22044, Note_on_c, 14, 70, 56
16, 22046, Control_c, 14, 1, 3
16, 22046, Pitch_bend_c, 14, 6425
16, 22048, Control_c, 14, 1, 2
16, 22051, Pitch_bend_c, 14, 6392
16, 22051, Control_c, 14, 1, 1
16, 22053, Pitch_bend_c, 14, 6360
16, 22053, Control_c, 14, 1, 0
16, 22054, Pitch_bend_c, 14, 6328
16, 22056, Pitch_bend_c, 14, 6296
16, 22060, Pitch_bend_c, 14, 6264
16, 22063, Pitch_bend_c, 14, 6232
16, 22065, Note_on_c, 14, 70, 0
16, 22066, Pitch_bend_c, 14, 6200
16, 22067, Pitch_bend_c, 14, 6135
16, 22072, Pitch_bend_c, 14, 6103
16, 22077, Pitch_bend_c, 14, 6071
16, 22080, Pitch_bend_c, 14, 6039
16, 22082, Pitch_bend_c, 14, 6007
16, 22084, Pitch_bend_c, 14, 5975
16, 22084, Note_on_c, 14, 70, 47
16, 22087, Pitch_bend_c, 14, 5878
16, 22089, Pitch_bend_c, 14, 5846
16, 22091, Pitch_bend_c, 14, 5782
16, 22093, Pitch_bend_c, 14, 5654
16, 22094, Pitch_bend_c, 14, 5621
16, 22096, Pitch_bend_c, 14, 5589
16, 22099, Pitch_bend_c, 14, 5525
16, 22103, Pitch_bend_c, 14, 5461
16, 22105, Pitch_bend_c, 14, 5364
16, 22110, Pitch_bend_c, 14, 5268
16, 22113, Pitch_bend_c, 14, 5204
16, 22115, Pitch_bend_c, 14, 5172
16, 22118, Pitch_bend_c, 14, 5140
16, 22120, Pitch_bend_c, 14, 5107
16, 22121, Note_on_c, 14, 70, 0
16, 22123, Pitch_bend_c, 14, 5043
16, 22125, Pitch_bend_c, 14, 5011
16, 22130, Pitch_bend_c, 14, 4979
16, 22133, Pitch_bend_c, 14, 4947
16, 22135, Pitch_bend_c, 14, 4915
16, 22137, Pitch_bend_c, 14, 4883
16, 22139, Pitch_bend_c, 14, 4850
16, 22144, Pitch_bend_c, 14, 4786
16, 22145, Pitch_bend_c, 14, 4754
16, 22147, Pitch_bend_c, 14, 4722
16, 22150, Pitch_bend_c, 14, 4690
16, 22154, Pitch_bend_c, 14, 4658
16, 22156, Pitch_bend_c, 14, 4626
16, 22159, Pitch_bend_c, 14, 4593
16, 22161, Pitch_bend_c, 14, 4561
16, 22164, Pitch_bend_c, 14, 4529
16, 22169, Pitch_bend_c, 14, 4497
16, 22173, Pitch_bend_c, 14, 4465
16, 22175, Pitch_bend_c, 14, 4433
16, 22181, Pitch_bend_c, 14, 4401
16, 22186, Pitch_bend_c, 14, 4369
16, 22190, Pitch_bend_c, 14, 4304
16, 22192, Pitch_bend_c, 14, 4272
16, 22195, Pitch_bend_c, 14, 4240
16, 22197, Pitch_bend_c, 14, 4208
16, 22198, Pitch_bend_c, 14, 4176
16, 22200, Pitch_bend_c, 14, 4112
16, 22202, Pitch_bend_c, 14, 4047
16, 22205, Pitch_bend_c, 14, 3983
16, 22207, Pitch_bend_c, 14, 3951
16, 22209, Pitch_bend_c, 14, 3919
16, 22212, Pitch_bend_c, 14, 3887
16, 22217, Pitch_bend_c, 14, 3855
16, 22219, Pitch_bend_c, 14, 3822
16, 22224, Pitch_bend_c, 14, 3790
16, 22231, Pitch_bend_c, 14, 3758
16, 22233, Pitch_bend_c, 14, 3726
16, 22234, Pitch_bend_c, 14, 3662
16, 22236, Pitch_bend_c, 14, 3630
16, 22239, Pitch_bend_c, 14, 3565
16, 22241, Pitch_bend_c, 14, 3533
16, 22243, Pitch_bend_c, 14, 3469
16, 22245, Pitch_bend_c, 14, 3405
16, 22248, Pitch_bend_c, 14, 3373
16, 22249, Pitch_bend_c, 14, 3341
16, 22252, Pitch_bend_c, 14, 3308
16, 22253, Pitch_bend_c, 14, 3276
16, 22258, Pitch_bend_c, 14, 3244
16, 22268, Pitch_bend_c, 14, 3212
16, 22270, Pitch_bend_c, 14, 3180
16, 22274, Pitch_bend_c, 14, 3116
16, 22277, Pitch_bend_c, 14, 3084
16, 22279, Pitch_bend_c, 14, 3051
16, 22281, Pitch_bend_c, 14, 3019
16, 22284, Pitch_bend_c, 14, 2987
16, 22286, Pitch_bend_c, 14, 2955
16, 22287, Pitch_bend_c, 14, 2923
16, 22294, Pitch_bend_c, 14, 2891
16, 22301, Pitch_bend_c, 14, 2827
16, 22306, Pitch_bend_c, 14, 2794
16, 22309, Pitch_bend_c, 14, 2730
16, 22311, Pitch_bend_c, 14, 2666
16, 22313, Pitch_bend_c, 14, 2602
16, 22315, Pitch_bend_c, 14, 2537
16, 22317, Pitch_bend_c, 14, 2473
16, 22322, Pitch_bend_c, 14, 2409
16, 22325, Pitch_bend_c, 14, 2345
16, 22327, Pitch_bend_c, 14, 2216
16, 22334, Pitch_bend_c, 14, 2152
16, 22336, Pitch_bend_c, 14, 2088
16, 22339, Pitch_bend_c, 14, 1895
16, 22341, Pitch_bend_c, 14, 1831
16, 22342, Pitch_bend_c, 14, 1766
16, 22344, Pitch_bend_c, 14, 1574
16, 22347, Pitch_bend_c, 14, 1445
16, 22349, Pitch_bend_c, 14, 1188
16, 22351, Pitch_bend_c, 14, 1060
16, 22353, Pitch_bend_c, 14, 995
16, 22355, Pitch_bend_c, 14, 867
16, 22358, Pitch_bend_c, 14, 738
16, 22359, Pitch_bend_c, 14, 674
16, 22364, Pitch_bend_c, 14, 610
16, 22368, Pitch_bend_c, 14, 546
16, 22372, Pitch_bend_c, 14, 481
16, 22375, Pitch_bend_c, 14, 353
16, 22377, Pitch_bend_c, 14, 289
16, 22378, Pitch_bend_c, 14, 224
16, 22381, Pitch_bend_c, 14, 96
16, 22383, Pitch_bend_c, 14, 0
16, 22399, Control_c, 14, 64, 0
16, 22637, Pitch_bend_c, 14, 96
16, 22639, Pitch_bend_c, 14, 353
16, 22642, Pitch_bend_c, 14, 738
16, 22643, Pitch_bend_c, 14, 1124
16, 22645, Pitch_bend_c, 14, 1574
16, 22647, Pitch_bend_c, 14, 1831
16, 22650, Pitch_bend_c, 14, 2088
16, 22652, Pitch_bend_c, 14, 2345
16, 22654, Pitch_bend_c, 14, 2602
16, 22656, Pitch_bend_c, 14, 2827
16, 22658, Pitch_bend_c, 14, 2955
16, 22661, Pitch_bend_c, 14, 3019
16, 22662, Pitch_bend_c, 14, 3148
16, 22664, Pitch_bend_c, 14, 3212
16, 22667, Pitch_bend_c, 14, 3276
16, 22669, Pitch_bend_c, 14, 3341
16, 22671, Pitch_bend_c, 14, 3373
16, 22673, Pitch_bend_c, 14, 3501
16, 22675, Pitch_bend_c, 14, 3598
16, 22678, Pitch_bend_c, 14, 3758
16, 22679, Pitch_bend_c, 14, 3855
16, 22681, Pitch_bend_c, 14, 4047
16, 22684, Pitch_bend_c, 14, 4304
16, 22685, Pitch_bend_c, 14, 4465
16, 22688, Pitch_bend_c, 14, 4690
16, 22690, Pitch_bend_c, 14, 4850
16, 22692, Pitch_bend_c, 14, 5011
16, 22695, Pitch_bend_c, 14, 5236
16, 22697, Pitch_bend_c, 14, 5525
16, 22698, Pitch_bend_c, 14, 6039
16, 22700, Pitch_bend_c, 14, 6682
16, 22703, Pitch_bend_c, 14, 7549
16, 22705, Pitch_bend_c, 14, 8192
16, 24303, Note_on_c, 14, 65, 86
16, 24354, Note_on_c, 14, 65, 0
16, 24411, Note_on_c, 14, 63, 79
16, 24538, Note_on_c, 14, 63, 0
16, 26219, Note_on_c, 14, 65, 72
16, 26295, Note_on_c, 14, 65, 0
16, 26342, Note_on_c, 14, 63, 81
16, 26458, Note_on_c, 14, 63, 0
16, 26873, Note_on_c, 14, 82, 35
16, 27796, Note_on_c, 14, 82, 0
16, 28131, Note_on_c, 14, 65, 62
16, 28205, Note_on_c, 14, 65, 0
16, 28245, Note_on_c, 14, 63, 73
16, 28351, Note_on_c, 14, 63, 0
16, 31979, Note_on_c, 14, 65, 68
16, 32042, Note_on_c, 14, 65, 0
16, 32094, Note_on_c, 14, 63, 81
16, 32181, Note_on_c, 14, 63, 0
16, 32181, End_track
17, 0, Start_track
17, 0, MIDI_port, 0
17, 0, Title_t, "******************************"
17, 0, End_track
18, 0, Start_track
18, 0, MIDI_port, 0
18, 0, Title_t, """It's My Life"""
18, 0, End_track
19, 0, Start_track
19, 0, MIDI_port, 0
19, 0, Title_t, "By:  Talk Talk"
19, 0, End_track
20, 0, Start_track
20, 0, MIDI_port, 0
20, 0, Title_t, "Sequenced by: Sean D. Green"
20, 0, End_track
21, 0, Start_track
21, 0, MIDI_port, 0
21, 0, Title_t, "e-mail comments to: sdgreen@flash.net"
21, 0, End_track
22, 0, Start_track
22, 0, MIDI_port, 0
22, 0, Title_t, "The Midi Extreme -"
22, 0, End_track
23, 0, Start_track
23, 0, MIDI_port, 0
23, 0, Title_t, "http://www.flash.net/~questps/midi.htm"
23, 0, End_track
24, 0, Start_track
24, 0, MIDI_port, 0
24, 0, Title_t, "******************************"
24, 0, End_track
0, 0, End_of_file
