0, 0, Header, 1, 5, 960
1, 0, Start_track
1, 0, Control_c, 0, 101, 0
1, 0, Control_c, 0, 100, 0
1, 0, Control_c, 0, 6, 12
1, 0, Control_c, 0, 38, 0
1, 0, Control_c, 1, 101, 0
1, 0, Control_c, 1, 100, 0
1, 0, Control_c, 1, 6, 12
1, 0, Control_c, 1, 38, 0
1, 0, Control_c, 2, 101, 0
1, 0, Control_c, 2, 100, 0
1, 0, Control_c, 2, 6, 12
1, 0, Control_c, 2, 38, 0
1, 0, Control_c, 3, 101, 0
1, 0, Control_c, 3, 100, 0
1, 0, Control_c, 3, 6, 12
1, 0, Control_c, 3, 38, 0
1, 0, Control_c, 4, 101, 0
1, 0, Control_c, 4, 100, 0
1, 0, Control_c, 4, 6, 12
1, 0, Control_c, 4, 38, 0
1, 0, Control_c, 5, 101, 0
1, 0, Control_c, 5, 100, 0
1, 0, Control_c, 5, 6, 12
1, 0, Control_c, 5, 38, 0
1, 0, Control_c, 6, 101, 0
1, 0, Control_c, 6, 100, 0
1, 0, Control_c, 6, 6, 12
1, 0, Control_c, 6, 38, 0
1, 0, Control_c, 7, 101, 0
1, 0, Control_c, 7, 100, 0
1, 0, Control_c, 7, 6, 12
1, 0, Control_c, 7, 38, 0
1, 0, Control_c, 8, 101, 0
1, 0, Control_c, 8, 100, 0
1, 0, Control_c, 8, 6, 12
1, 0, Control_c, 8, 38, 0
1, 0, Control_c, 9, 101, 0
1, 0, Control_c, 9, 100, 0
1, 0, Control_c, 9, 6, 12
1, 0, Control_c, 9, 38, 0
1, 0, Control_c, 10, 101, 0
1, 0, Control_c, 10, 100, 0
1, 0, Control_c, 10, 6, 12
1, 0, Control_c, 10, 38, 0
1, 0, Control_c, 11, 101, 0
1, 0, Control_c, 11, 100, 0
1, 0, Control_c, 11, 6, 12
1, 0, Control_c, 11, 38, 0
1, 0, Control_c, 12, 101, 0
1, 0, Control_c, 12, 100, 0
1, 0, Control_c, 12, 6, 12
1, 0, Control_c, 12, 38, 0
1, 0, Control_c, 13, 101, 0
1, 0, Control_c, 13, 100, 0
1, 0, Control_c, 13, 6, 12
1, 0, Control_c, 13, 38, 0
1, 0, Control_c, 14, 101, 0
1, 0, Control_c, 14, 100, 0
1, 0, Control_c, 14, 6, 12
1, 0, Control_c, 14, 38, 0
1, 0, Control_c, 15, 101, 0
1, 0, Control_c, 15, 100, 0
1, 0, Control_c, 15, 6, 12
1, 0, Control_c, 15, 38, 0
1, 0, Time_signature, 4, 2, 24, 8
1, 0, Tempo, 769230
1, 238080, Tempo, 1538461
1, 238080, End_track
2, 0, Start_track
2, 0, Pitch_bend_c, 0, 8192
2, 0, Control_c, 0, 7, 127
2, 0, Control_c, 0, 10, 63
2, 0, Control_c, 0, 93, 0
2, 0, Control_c, 0, 91, 0
2, 0, Control_c, 0, 95, 0
2, 0, Control_c, 0, 92, 0
2, 0, Control_c, 0, 11, 127
2, 0, Program_c, 0, 0
2, 0, Control_c, 1, 7, 127
2, 0, Control_c, 1, 10, 63
2, 0, Control_c, 1, 93, 0
2, 0, Control_c, 1, 91, 0
2, 0, Control_c, 1, 95, 0
2, 0, Control_c, 1, 92, 0
2, 0, Control_c, 1, 11, 127
2, 0, Program_c, 1, 0
2, 0, Note_on_c, 0, 57, 95
2, 0, Note_on_c, 0, 50, 95
2, 960, Note_off_c, 0, 57, 95
2, 960, Note_off_c, 0, 50, 95
2, 960, Note_on_c, 0, 62, 95
2, 975, Note_on_c, 0, 66, 95
2, 990, Note_on_c, 0, 69, 95
2, 1920, Note_off_c, 0, 69, 95
2, 1920, Note_off_c, 0, 66, 95
2, 1920, Note_off_c, 0, 62, 95
2, 1920, Note_on_c, 0, 50, 95
2, 2400, Note_off_c, 0, 50, 95
2, 2400, Note_on_c, 0, 57, 95
2, 2880, Note_off_c, 0, 57, 95
2, 2880, Note_on_c, 0, 69, 95
2, 2880, Note_on_c, 0, 66, 95
2, 3120, Note_off_c, 0, 69, 95
2, 3120, Note_off_c, 0, 66, 95
2, 3120, Note_on_c, 0, 62, 95
2, 3360, Note_off_c, 0, 62, 95
2, 3360, Note_on_c, 0, 57, 95
2, 3840, Note_off_c, 0, 57, 95
2, 3840, Note_on_c, 0, 55, 95
2, 3840, Note_on_c, 0, 48, 95
2, 4800, Note_off_c, 0, 55, 95
2, 4800, Note_off_c, 0, 48, 95
2, 4800, Note_on_c, 0, 67, 95
2, 4800, Note_on_c, 0, 64, 95
2, 4800, Note_on_c, 0, 60, 95
2, 5760, Note_off_c, 0, 67, 95
2, 5760, Note_off_c, 0, 64, 95
2, 5760, Note_off_c, 0, 60, 95
2, 5760, Note_on_c, 0, 50, 95
2, 5760, Note_on_c, 0, 43, 95
2, 6720, Note_off_c, 0, 50, 95
2, 6720, Note_off_c, 0, 43, 95
2, 6720, Note_on_c, 0, 62, 95
2, 6720, Note_on_c, 0, 59, 95
2, 6720, Note_on_c, 0, 55, 95
2, 7680, Note_off_c, 0, 62, 95
2, 7680, Note_off_c, 0, 59, 95
2, 7680, Note_off_c, 0, 55, 95
2, 7680, Note_on_c, 0, 57, 95
2, 7680, Note_on_c, 0, 50, 95
2, 8400, Note_off_c, 0, 57, 95
2, 8400, Note_off_c, 0, 50, 95
2, 8400, Note_on_c, 0, 57, 95
2, 8400, Note_on_c, 0, 50, 95
2, 8640, Note_off_c, 0, 57, 95
2, 8640, Note_off_c, 0, 50, 95
2, 8640, Note_on_c, 0, 62, 95
2, 8655, Note_on_c, 0, 66, 95
2, 8670, Note_on_c, 0, 69, 95
2, 9600, Note_off_c, 0, 69, 95
2, 9600, Note_off_c, 0, 66, 95
2, 9600, Note_off_c, 0, 62, 95
2, 9600, Note_on_c, 0, 57, 95
2, 9600, Note_on_c, 0, 50, 95
2, 10080, Note_off_c, 0, 57, 95
2, 10080, Note_off_c, 0, 50, 95
2, 10080, Note_on_c, 0, 57, 95
2, 10560, Note_off_c, 0, 57, 95
2, 10560, Note_on_c, 0, 69, 95
2, 10560, Note_on_c, 0, 66, 95
2, 10800, Note_off_c, 0, 69, 95
2, 10800, Note_off_c, 0, 66, 95
2, 10800, Note_on_c, 0, 62, 95
2, 11040, Note_off_c, 0, 62, 95
2, 11040, Note_on_c, 0, 57, 95
2, 11520, Note_off_c, 0, 57, 95
2, 11520, Note_on_c, 0, 55, 95
2, 11520, Note_on_c, 0, 48, 95
2, 12240, Note_off_c, 0, 55, 95
2, 12240, Note_off_c, 0, 48, 95
2, 12240, Note_on_c, 0, 55, 95
2, 12480, Note_off_c, 0, 55, 95
2, 12480, Note_on_c, 0, 67, 95
2, 12480, Note_on_c, 0, 64, 95
2, 12480, Note_on_c, 0, 60, 95
2, 13440, Note_off_c, 0, 67, 95
2, 13440, Note_off_c, 0, 64, 95
2, 13440, Note_off_c, 0, 60, 95
2, 13440, Note_on_c, 0, 43, 95
2, 13920, Note_off_c, 0, 43, 95
2, 13920, Note_on_c, 0, 50, 95
2, 14400, Note_off_c, 0, 50, 95
2, 14400, Note_on_c, 0, 62, 95
2, 14400, Note_on_c, 0, 59, 95
2, 14400, Note_on_c, 0, 55, 95
2, 15360, Note_off_c, 0, 62, 95
2, 15360, Note_off_c, 0, 59, 95
2, 15360, Note_off_c, 0, 55, 95
2, 15360, Note_on_c, 0, 50, 95
2, 15840, Note_off_c, 0, 50, 95
2, 15840, Note_on_c, 0, 57, 95
2, 16320, Note_off_c, 0, 57, 95
2, 16320, Note_on_c, 0, 62, 95
2, 16331, Note_on_c, 0, 66, 95
2, 16342, Note_on_c, 0, 69, 95
2, 17040, Note_off_c, 0, 69, 95
2, 17040, Note_off_c, 0, 66, 95
2, 17040, Note_off_c, 0, 62, 95
2, 17040, Note_on_c, 0, 57, 95
2, 17280, Note_off_c, 0, 57, 95
2, 17280, Note_on_c, 0, 50, 95
2, 17760, Note_off_c, 0, 50, 95
2, 17760, Note_on_c, 0, 57, 95
2, 18240, Note_off_c, 0, 57, 95
2, 18240, Note_on_c, 0, 62, 95
2, 18255, Note_on_c, 0, 66, 95
2, 18270, Note_on_c, 0, 69, 95
2, 19200, Note_off_c, 0, 69, 95
2, 19200, Note_off_c, 0, 66, 95
2, 19200, Note_off_c, 0, 62, 95
2, 19200, Note_on_c, 0, 55, 95
2, 19200, Note_on_c, 0, 48, 95
2, 19920, Note_off_c, 0, 55, 95
2, 19920, Note_off_c, 0, 48, 95
2, 19920, Note_on_c, 0, 55, 95
2, 20160, Note_off_c, 0, 55, 95
2, 20160, Note_on_c, 0, 67, 95
2, 20160, Note_on_c, 0, 64, 95
2, 20160, Note_on_c, 0, 60, 95
2, 20400, Note_off_c, 0, 67, 95
2, 20400, Note_off_c, 0, 64, 95
2, 20400, Note_off_c, 0, 60, 95
2, 20400, Note_on_c, 0, 60, 63
2, 20640, Note_off_c, 0, 60, 63
2, 20640, Note_on_c, 0, 55, 63
2, 20880, Note_off_c, 0, 55, 63
2, 20880, Note_on_c, 0, 48, 63
2, 21120, Note_off_c, 0, 48, 63
2, 21120, Note_on_c, 0, 50, 95
2, 21120, Note_on_c, 0, 43, 95
2, 21840, Note_off_c, 0, 50, 95
2, 21840, Note_off_c, 0, 43, 95
2, 21840, Note_on_c, 0, 50, 95
2, 22080, Note_off_c, 0, 50, 95
2, 22080, Note_on_c, 0, 60, 95
2, 22080, Note_on_c, 0, 62, 95
2, 22080, Note_on_c, 0, 59, 95
2, 22080, Note_on_c, 0, 55, 95
2, 22320, Note_off_c, 0, 60, 95
2, 22320, Note_off_c, 0, 62, 95
2, 22320, Note_off_c, 0, 59, 95
2, 22320, Note_off_c, 0, 55, 95
2, 22320, Note_on_c, 0, 55, 63
2, 22560, Note_off_c, 0, 55, 63
2, 22560, Note_on_c, 0, 50, 63
2, 22800, Note_off_c, 0, 50, 63
2, 22800, Note_on_c, 0, 43, 63
2, 23040, Note_off_c, 0, 43, 63
2, 23040, Note_on_c, 0, 50, 95
2, 23520, Note_off_c, 0, 50, 95
2, 23520, Note_on_c, 0, 57, 95
2, 24000, Note_off_c, 0, 57, 95
2, 24000, Note_on_c, 0, 62, 95
2, 24015, Note_on_c, 0, 66, 95
2, 24030, Note_on_c, 0, 69, 95
2, 24960, Note_off_c, 0, 69, 95
2, 24960, Note_off_c, 0, 66, 95
2, 24960, Note_off_c, 0, 62, 95
2, 24960, Note_on_c, 0, 57, 95
2, 24960, Note_on_c, 0, 50, 95
2, 25920, Note_off_c, 0, 57, 95
2, 25920, Note_off_c, 0, 50, 95
2, 25920, Note_on_c, 0, 62, 95
2, 25935, Note_on_c, 0, 66, 95
2, 25950, Note_on_c, 0, 69, 95
2, 26880, Note_off_c, 0, 69, 95
2, 26880, Note_off_c, 0, 66, 95
2, 26880, Note_off_c, 0, 62, 95
2, 26880, Note_on_c, 0, 55, 95
2, 26880, Note_on_c, 0, 48, 95
2, 27600, Note_off_c, 0, 55, 95
2, 27600, Note_off_c, 0, 48, 95
2, 27600, Note_on_c, 0, 55, 95
2, 27840, Note_off_c, 0, 55, 95
2, 27840, Note_on_c, 0, 67, 95
2, 27840, Note_on_c, 0, 64, 95
2, 27840, Note_on_c, 0, 60, 95
2, 28800, Note_off_c, 0, 67, 95
2, 28800, Note_off_c, 0, 64, 95
2, 28800, Note_off_c, 0, 60, 95
2, 28800, Note_on_c, 0, 43, 95
2, 29280, Note_off_c, 0, 43, 95
2, 29280, Note_on_c, 0, 50, 95
2, 29640, Note_off_c, 0, 50, 95
2, 29640, Note_on_c, 0, 50, 95
2, 29760, Note_off_c, 0, 50, 95
2, 29760, Note_on_c, 0, 62, 95
2, 29760, Note_on_c, 0, 59, 95
2, 29760, Note_on_c, 0, 55, 95
2, 30720, Note_off_c, 0, 62, 95
2, 30720, Note_off_c, 0, 59, 95
2, 30720, Note_off_c, 0, 55, 95
2, 30720, Note_on_c, 0, 48, 95
2, 30720, Note_on_c, 0, 41, 95
2, 31680, Note_off_c, 0, 48, 95
2, 31680, Note_off_c, 0, 41, 95
2, 31680, Note_on_c, 0, 60, 95
2, 31680, Note_on_c, 0, 57, 95
2, 31680, Note_on_c, 0, 53, 95
2, 32640, Note_off_c, 0, 60, 95
2, 32640, Note_off_c, 0, 57, 95
2, 32640, Note_off_c, 0, 53, 95
2, 32640, Note_on_c, 0, 48, 95
2, 32640, Note_on_c, 0, 41, 95
2, 33600, Note_off_c, 0, 48, 95
2, 33600, Note_off_c, 0, 41, 95
2, 33600, Note_on_c, 0, 60, 95
2, 33600, Note_on_c, 0, 57, 95
2, 33600, Note_on_c, 0, 53, 95
2, 34560, Note_off_c, 0, 60, 95
2, 34560, Note_off_c, 0, 57, 95
2, 34560, Note_off_c, 0, 53, 95
2, 34560, Note_on_c, 0, 50, 95
2, 34560, Note_on_c, 0, 43, 95
2, 35520, Note_off_c, 0, 50, 95
2, 35520, Note_off_c, 0, 43, 95
2, 35520, Note_on_c, 0, 62, 95
2, 35520, Note_on_c, 0, 59, 95
2, 35520, Note_on_c, 0, 55, 95
2, 36480, Note_off_c, 0, 62, 95
2, 36480, Note_off_c, 0, 59, 95
2, 36480, Note_off_c, 0, 55, 95
2, 36480, Note_on_c, 0, 50, 95
2, 36480, Note_on_c, 0, 43, 95
2, 37440, Note_off_c, 0, 50, 95
2, 37440, Note_off_c, 0, 43, 95
2, 37440, Note_on_c, 0, 62, 95
2, 37440, Note_on_c, 0, 59, 95
2, 37440, Note_on_c, 0, 55, 95
2, 38400, Note_off_c, 0, 62, 95
2, 38400, Note_off_c, 0, 59, 95
2, 38400, Note_off_c, 0, 55, 95
2, 38400, Note_on_c, 0, 57, 95
2, 38400, Note_on_c, 0, 50, 95
2, 39360, Note_off_c, 0, 57, 95
2, 39360, Note_off_c, 0, 50, 95
2, 39360, Note_on_c, 0, 69, 95
2, 39360, Note_on_c, 0, 66, 95
2, 39360, Note_on_c, 0, 62, 95
2, 40080, Note_off_c, 0, 69, 95
2, 40080, Note_off_c, 0, 66, 95
2, 40080, Note_off_c, 0, 62, 95
2, 40080, Note_on_c, 0, 62, 95
2, 40320, Note_off_c, 0, 62, 95
2, 40320, Note_on_c, 0, 57, 95
2, 40560, Note_off_c, 0, 57, 95
2, 40560, Note_on_c, 0, 50, 95
2, 40800, Note_off_c, 0, 50, 95
2, 40800, Note_on_c, 0, 66, 95
2, 40800, Note_on_c, 0, 62, 95
2, 41040, Note_off_c, 0, 66, 95
2, 41040, Note_off_c, 0, 62, 95
2, 41040, Note_on_c, 0, 67, 95
2, 41040, Note_on_c, 0, 62, 95
2, 41280, Note_off_c, 0, 67, 95
2, 41280, Note_off_c, 0, 62, 95
2, 41520, Note_on_c, 0, 66, 95
2, 41520, Note_on_c, 0, 62, 95
2, 41760, Note_off_c, 0, 66, 95
2, 41760, Note_off_c, 0, 62, 95
2, 42240, Note_on_c, 0, 62, 95
2, 42240, Note_on_c, 0, 57, 95
2, 42720, Note_off_c, 0, 62, 95
2, 42720, Note_off_c, 0, 57, 95
2, 42720, Note_on_c, 0, 66, 95
2, 42720, Note_on_c, 0, 62, 95
2, 43200, Note_off_c, 0, 66, 95
2, 43200, Note_off_c, 0, 62, 95
2, 43440, Note_on_c, 0, 66, 95
2, 43440, Note_on_c, 0, 62, 95
2, 43680, Note_off_c, 0, 66, 95
2, 43680, Note_off_c, 0, 62, 95
2, 43920, Note_on_c, 0, 66, 95
2, 43920, Note_on_c, 0, 62, 95
2, 44160, Note_off_c, 0, 66, 95
2, 44160, Note_off_c, 0, 62, 95
2, 44400, Note_on_c, 0, 66, 95
2, 44400, Note_on_c, 0, 62, 95
2, 44640, Note_off_c, 0, 66, 95
2, 44640, Note_off_c, 0, 62, 95
2, 44880, Note_on_c, 0, 50, 95
2, 45120, Note_off_c, 0, 50, 95
2, 45120, Note_on_c, 0, 62, 95
2, 45360, Note_off_c, 0, 62, 95
2, 45360, Note_on_c, 0, 60, 95
2, 45600, Note_off_c, 0, 60, 95
2, 46080, Note_on_c, 0, 48, 95
2, 46080, Note_on_c, 0, 41, 95
2, 47040, Note_off_c, 0, 48, 95
2, 47040, Note_off_c, 0, 41, 95
2, 47040, Note_on_c, 0, 60, 95
2, 47040, Note_on_c, 0, 57, 95
2, 47040, Note_on_c, 0, 53, 95
2, 48000, Note_off_c, 0, 60, 95
2, 48000, Note_off_c, 0, 57, 95
2, 48000, Note_off_c, 0, 53, 95
2, 48000, Note_on_c, 0, 48, 95
2, 48000, Note_on_c, 0, 41, 95
2, 48960, Note_off_c, 0, 48, 95
2, 48960, Note_off_c, 0, 41, 95
2, 48960, Note_on_c, 0, 60, 95
2, 48960, Note_on_c, 0, 57, 95
2, 48960, Note_on_c, 0, 53, 95
2, 49920, Note_off_c, 0, 60, 95
2, 49920, Note_off_c, 0, 57, 95
2, 49920, Note_off_c, 0, 53, 95
2, 49920, Note_on_c, 0, 50, 95
2, 49920, Note_on_c, 0, 43, 95
2, 50880, Note_off_c, 0, 50, 95
2, 50880, Note_off_c, 0, 43, 95
2, 50880, Note_on_c, 0, 62, 95
2, 50880, Note_on_c, 0, 59, 95
2, 50880, Note_on_c, 0, 55, 95
2, 51840, Note_off_c, 0, 62, 95
2, 51840, Note_off_c, 0, 59, 95
2, 51840, Note_off_c, 0, 55, 95
2, 51840, Note_on_c, 0, 50, 95
2, 51840, Note_on_c, 0, 43, 95
2, 52800, Note_off_c, 0, 50, 95
2, 52800, Note_off_c, 0, 43, 95
2, 52800, Note_on_c, 0, 62, 95
2, 52800, Note_on_c, 0, 59, 95
2, 52800, Note_on_c, 0, 55, 95
2, 53760, Note_off_c, 0, 62, 95
2, 53760, Note_off_c, 0, 59, 95
2, 53760, Note_off_c, 0, 55, 95
2, 53760, Note_on_c, 0, 52, 95
2, 53760, Note_on_c, 0, 45, 95
2, 54720, Note_off_c, 0, 52, 95
2, 54720, Note_off_c, 0, 45, 95
2, 54720, Note_on_c, 0, 64, 95
2, 54720, Note_on_c, 0, 61, 95
2, 54720, Note_on_c, 0, 57, 95
2, 55440, Note_off_c, 0, 64, 95
2, 55440, Note_off_c, 0, 61, 95
2, 55440, Note_off_c, 0, 57, 95
2, 55440, Note_on_c, 0, 57, 95
2, 55440, Note_on_c, 0, 52, 95
2, 55680, Note_off_c, 0, 57, 95
2, 55680, Note_off_c, 0, 52, 95
2, 55680, Note_on_c, 0, 61, 95
2, 55920, Note_off_c, 0, 61, 95
2, 55920, Note_on_c, 0, 57, 95
2, 56160, Note_off_c, 0, 57, 95
2, 56160, Note_on_c, 0, 61, 95
2, 56160, Note_on_c, 0, 57, 95
2, 56400, Note_off_c, 0, 61, 95
2, 56400, Note_off_c, 0, 57, 95
2, 56400, Note_on_c, 0, 62, 95
2, 56400, Note_on_c, 0, 57, 95
2, 56640, Note_off_c, 0, 62, 95
2, 56640, Note_off_c, 0, 57, 95
2, 56880, Note_on_c, 0, 61, 95
2, 56880, Note_on_c, 0, 57, 95
2, 57120, Note_off_c, 0, 61, 95
2, 57120, Note_off_c, 0, 57, 95
2, 57600, Note_on_c, 0, 57, 95
2, 57600, Note_on_c, 0, 52, 95
2, 58080, Note_off_c, 0, 57, 95
2, 58080, Note_off_c, 0, 52, 95
2, 58080, Note_on_c, 0, 61, 95
2, 58080, Note_on_c, 0, 57, 95
2, 58560, Note_off_c, 0, 61, 95
2, 58560, Note_off_c, 0, 57, 95
2, 58800, Note_on_c, 0, 61, 95
2, 58800, Note_on_c, 0, 57, 95
2, 59040, Note_off_c, 0, 61, 95
2, 59040, Note_off_c, 0, 57, 95
2, 59280, Note_on_c, 0, 61, 95
2, 59280, Note_on_c, 0, 57, 95
2, 59520, Note_off_c, 0, 61, 95
2, 59520, Note_off_c, 0, 57, 95
2, 59760, Note_on_c, 0, 61, 95
2, 59760, Note_on_c, 0, 57, 95
2, 60000, Note_off_c, 0, 61, 95
2, 60000, Note_off_c, 0, 57, 95
2, 60240, Note_on_c, 0, 45, 95
2, 60480, Note_off_c, 0, 45, 95
2, 60480, Note_on_c, 0, 61, 95
2, 60720, Note_off_c, 0, 61, 95
2, 60720, Note_on_c, 0, 57, 95
2, 60960, Note_off_c, 0, 57, 95
2, 60960, Note_on_c, 0, 52, 95
2, 61200, Note_off_c, 0, 52, 95
2, 61200, Note_on_c, 0, 57, 95
2, 61440, Note_off_c, 0, 57, 95
2, 61440, Note_on_c, 0, 57, 95
2, 61440, Note_on_c, 0, 50, 95
2, 62160, Note_off_c, 0, 57, 95
2, 62160, Note_off_c, 0, 50, 95
2, 62160, Note_on_c, 0, 57, 95
2, 62400, Note_off_c, 0, 57, 95
2, 62400, Note_on_c, 0, 69, 95
2, 62400, Note_on_c, 0, 67, 95
2, 62400, Note_on_c, 0, 62, 95
2, 63360, Note_off_c, 0, 69, 95
2, 63360, Note_off_c, 0, 67, 95
2, 63360, Note_off_c, 0, 62, 95
2, 63360, Note_on_c, 0, 67, 95
2, 63600, Note_off_c, 0, 67, 95
2, 63600, Note_on_c, 0, 66, 95
2, 63840, Note_off_c, 0, 66, 95
2, 63840, Note_on_c, 0, 62, 95
2, 64080, Note_off_c, 0, 62, 95
2, 64080, Note_on_c, 0, 57, 95
2, 64320, Note_off_c, 0, 57, 95
2, 64320, Note_on_c, 0, 62, 95
2, 64320, Note_on_c, 0, 50, 95
2, 64560, Note_off_c, 0, 62, 95
2, 64560, Note_off_c, 0, 50, 95
2, 64560, Note_on_c, 0, 57, 95
2, 64800, Note_off_c, 0, 57, 95
2, 64800, Note_on_c, 0, 69, 95
2, 64800, Note_on_c, 0, 66, 95
2, 64800, Note_on_c, 0, 62, 95
2, 65280, Note_off_c, 0, 69, 95
2, 65280, Note_off_c, 0, 66, 95
2, 65280, Note_off_c, 0, 62, 95
2, 65280, Note_on_c, 0, 55, 95
2, 65280, Note_on_c, 0, 48, 95
2, 65760, Note_off_c, 0, 55, 95
2, 65760, Note_off_c, 0, 48, 95
2, 65760, Note_on_c, 0, 55, 95
2, 66240, Note_off_c, 0, 55, 95
2, 66240, Note_on_c, 0, 67, 95
2, 66240, Note_on_c, 0, 64, 95
2, 66240, Note_on_c, 0, 60, 95
2, 66480, Note_off_c, 0, 67, 95
2, 66480, Note_off_c, 0, 64, 95
2, 66480, Note_off_c, 0, 60, 95
2, 66480, Note_on_c, 0, 60, 95
2, 66720, Note_off_c, 0, 60, 95
2, 66720, Note_on_c, 0, 55, 95
2, 67200, Note_off_c, 0, 55, 95
2, 67200, Note_on_c, 0, 50, 95
2, 67200, Note_on_c, 0, 43, 95
2, 67680, Note_off_c, 0, 50, 95
2, 67680, Note_off_c, 0, 43, 95
2, 67680, Note_on_c, 0, 62, 95
2, 67680, Note_on_c, 0, 59, 95
2, 67680, Note_on_c, 0, 55, 95
2, 67920, Note_off_c, 0, 62, 95
2, 67920, Note_off_c, 0, 59, 95
2, 67920, Note_off_c, 0, 55, 95
2, 68160, Note_on_c, 0, 62, 95
2, 68160, Note_on_c, 0, 59, 95
2, 68160, Note_on_c, 0, 55, 95
2, 68400, Note_off_c, 0, 62, 95
2, 68400, Note_off_c, 0, 59, 95
2, 68400, Note_off_c, 0, 55, 95
2, 68400, Note_on_c, 0, 65, 95
2, 68400, Note_on_c, 0, 60, 95
2, 68400, Note_on_c, 0, 57, 95
2, 68400, Note_on_c, 0, 53, 95
2, 69120, Note_off_c, 0, 65, 95
2, 69120, Note_off_c, 0, 60, 95
2, 69120, Note_off_c, 0, 57, 95
2, 69120, Note_off_c, 0, 53, 95
2, 69120, Note_on_c, 0, 57, 95
2, 69120, Note_on_c, 0, 50, 95
2, 70080, Note_off_c, 0, 57, 95
2, 70080, Note_off_c, 0, 50, 95
2, 70080, Note_on_c, 0, 62, 95
2, 70091, Note_on_c, 0, 66, 95
2, 70102, Note_on_c, 0, 69, 95
2, 70800, Note_off_c, 0, 69, 95
2, 70800, Note_off_c, 0, 66, 95
2, 70800, Note_off_c, 0, 62, 95
2, 70800, Note_on_c, 0, 50, 95
2, 71040, Note_off_c, 0, 50, 95
2, 71040, Note_on_c, 0, 57, 95
2, 71040, Note_on_c, 0, 50, 95
2, 71520, Note_off_c, 0, 57, 95
2, 71520, Note_off_c, 0, 50, 95
2, 71520, Note_on_c, 0, 67, 95
2, 71520, Note_on_c, 0, 62, 95
2, 72000, Note_off_c, 0, 67, 95
2, 72000, Note_off_c, 0, 62, 95
2, 72000, Note_on_c, 0, 69, 95
2, 72000, Note_on_c, 0, 67, 95
2, 72240, Note_off_c, 0, 69, 95
2, 72240, Note_off_c, 0, 67, 95
2, 72240, Note_on_c, 0, 69, 95
2, 72240, Note_on_c, 0, 66, 95
2, 72480, Note_off_c, 0, 69, 95
2, 72480, Note_off_c, 0, 66, 95
2, 72480, Note_on_c, 0, 62, 95
2, 72720, Note_off_c, 0, 62, 95
2, 72720, Note_on_c, 0, 57, 95
2, 72960, Note_off_c, 0, 57, 95
2, 72960, Note_on_c, 0, 55, 95
2, 72960, Note_on_c, 0, 48, 95
2, 73440, Note_off_c, 0, 55, 95
2, 73440, Note_off_c, 0, 48, 95
2, 73440, Note_on_c, 0, 55, 95
2, 73920, Note_off_c, 0, 55, 95
2, 73920, Note_on_c, 0, 64, 95
2, 73920, Note_on_c, 0, 60, 95
2, 74400, Note_on_c, 0, 55, 95
2, 74880, Note_off_c, 0, 64, 95
2, 74880, Note_off_c, 0, 60, 95
2, 74880, Note_off_c, 0, 55, 95
2, 74880, Note_on_c, 0, 50, 95
2, 74880, Note_on_c, 0, 43, 95
2, 75360, Note_off_c, 0, 50, 95
2, 75360, Note_off_c, 0, 43, 95
2, 75360, Note_on_c, 0, 62, 95
2, 75360, Note_on_c, 0, 59, 95
2, 75360, Note_on_c, 0, 55, 95
2, 75600, Note_off_c, 0, 62, 95
2, 75600, Note_off_c, 0, 59, 95
2, 75600, Note_off_c, 0, 55, 95
2, 75840, Note_on_c, 0, 62, 95
2, 75840, Note_on_c, 0, 59, 95
2, 75840, Note_on_c, 0, 55, 95
2, 76080, Note_off_c, 0, 62, 95
2, 76080, Note_off_c, 0, 59, 95
2, 76080, Note_off_c, 0, 55, 95
2, 76080, Note_on_c, 0, 60, 95
2, 76080, Note_on_c, 0, 57, 95
2, 76080, Note_on_c, 0, 53, 95
2, 76800, Note_off_c, 0, 60, 95
2, 76800, Note_off_c, 0, 57, 95
2, 76800, Note_off_c, 0, 53, 95
2, 76800, Note_on_c, 0, 57, 95
2, 76800, Note_on_c, 0, 50, 95
2, 77760, Note_off_c, 0, 57, 95
2, 77760, Note_off_c, 0, 50, 95
2, 77760, Note_on_c, 0, 62, 95
2, 77775, Note_on_c, 0, 66, 95
2, 77790, Note_on_c, 0, 69, 95
2, 78720, Note_off_c, 0, 69, 95
2, 78720, Note_off_c, 0, 66, 95
2, 78720, Note_off_c, 0, 62, 95
2, 78720, Note_on_c, 0, 57, 95
2, 78720, Note_on_c, 0, 50, 95
2, 79200, Note_off_c, 0, 57, 95
2, 79200, Note_off_c, 0, 50, 95
2, 79200, Note_on_c, 0, 62, 95
2, 79680, Note_off_c, 0, 62, 95
2, 79680, Note_on_c, 0, 69, 95
2, 79680, Note_on_c, 0, 66, 95
2, 79920, Note_off_c, 0, 69, 95
2, 79920, Note_off_c, 0, 66, 95
2, 79920, Note_on_c, 0, 62, 95
2, 80160, Note_off_c, 0, 62, 95
2, 80160, Note_on_c, 0, 57, 95
2, 80640, Note_off_c, 0, 57, 95
2, 80640, Note_on_c, 0, 55, 95
2, 80640, Note_on_c, 0, 48, 95
2, 81120, Note_off_c, 0, 55, 95
2, 81120, Note_off_c, 0, 48, 95
2, 81120, Note_on_c, 0, 60, 95
2, 81600, Note_off_c, 0, 60, 95
2, 81600, Note_on_c, 0, 67, 95
2, 81600, Note_on_c, 0, 64, 95
2, 81600, Note_on_c, 0, 60, 95
2, 82560, Note_off_c, 0, 67, 95
2, 82560, Note_off_c, 0, 64, 95
2, 82560, Note_off_c, 0, 60, 95
2, 82560, Note_on_c, 0, 50, 95
2, 82560, Note_on_c, 0, 43, 95
2, 83040, Note_off_c, 0, 50, 95
2, 83040, Note_off_c, 0, 43, 95
2, 83040, Note_on_c, 0, 55, 95
2, 83520, Note_off_c, 0, 55, 95
2, 83520, Note_on_c, 0, 62, 95
2, 83520, Note_on_c, 0, 59, 95
2, 83520, Note_on_c, 0, 55, 95
2, 84480, Note_off_c, 0, 62, 95
2, 84480, Note_off_c, 0, 59, 95
2, 84480, Note_off_c, 0, 55, 95
2, 84480, Note_on_c, 0, 57, 95
2, 84480, Note_on_c, 0, 50, 95
2, 84960, Note_off_c, 0, 57, 95
2, 84960, Note_off_c, 0, 50, 95
2, 84960, Note_on_c, 0, 57, 95
2, 85440, Note_off_c, 0, 57, 95
2, 85440, Note_on_c, 0, 62, 95
2, 85451, Note_on_c, 0, 66, 95
2, 85462, Note_on_c, 0, 69, 95
2, 86160, Note_off_c, 0, 69, 95
2, 86160, Note_off_c, 0, 66, 95
2, 86160, Note_off_c, 0, 62, 95
2, 86160, Note_on_c, 0, 62, 95
2, 86400, Note_off_c, 0, 62, 95
2, 86400, Note_on_c, 0, 57, 95
2, 86400, Note_on_c, 0, 50, 95
2, 86880, Note_off_c, 0, 57, 95
2, 86880, Note_off_c, 0, 50, 95
2, 86880, Note_on_c, 0, 62, 95
2, 87360, Note_off_c, 0, 62, 95
2, 87360, Note_on_c, 0, 69, 95
2, 87360, Note_on_c, 0, 66, 95
2, 87600, Note_off_c, 0, 69, 95
2, 87600, Note_off_c, 0, 66, 95
2, 87600, Note_on_c, 0, 62, 95
2, 87840, Note_off_c, 0, 62, 95
2, 87840, Note_on_c, 0, 57, 95
2, 88320, Note_off_c, 0, 57, 95
2, 88320, Note_on_c, 0, 55, 95
2, 88320, Note_on_c, 0, 48, 95
2, 88800, Note_off_c, 0, 55, 95
2, 88800, Note_off_c, 0, 48, 95
2, 88800, Note_on_c, 0, 55, 95
2, 89280, Note_off_c, 0, 55, 95
2, 89280, Note_on_c, 0, 67, 95
2, 89280, Note_on_c, 0, 64, 95
2, 89280, Note_on_c, 0, 60, 95
2, 90240, Note_off_c, 0, 67, 95
2, 90240, Note_off_c, 0, 64, 95
2, 90240, Note_off_c, 0, 60, 95
2, 90240, Note_on_c, 0, 50, 95
2, 90240, Note_on_c, 0, 43, 95
2, 90720, Note_off_c, 0, 50, 95
2, 90720, Note_off_c, 0, 43, 95
2, 90720, Note_on_c, 0, 50, 95
2, 91080, Note_off_c, 0, 50, 95
2, 91080, Note_on_c, 0, 55, 95
2, 91200, Note_off_c, 0, 55, 95
2, 91200, Note_on_c, 0, 62, 95
2, 91200, Note_on_c, 0, 59, 95
2, 91200, Note_on_c, 0, 55, 95
2, 92160, Note_off_c, 0, 62, 95
2, 92160, Note_off_c, 0, 59, 95
2, 92160, Note_off_c, 0, 55, 95
2, 92160, Note_on_c, 0, 57, 95
2, 92160, Note_on_c, 0, 50, 95
2, 93120, Note_off_c, 0, 57, 95
2, 93120, Note_off_c, 0, 50, 95
2, 93120, Note_on_c, 0, 62, 95
2, 93135, Note_on_c, 0, 66, 95
2, 93150, Note_on_c, 0, 69, 95
2, 94080, Note_off_c, 0, 69, 95
2, 94080, Note_off_c, 0, 66, 95
2, 94080, Note_off_c, 0, 62, 95
2, 94080, Note_on_c, 0, 57, 95
2, 94080, Note_on_c, 0, 50, 95
2, 94560, Note_off_c, 0, 57, 95
2, 94560, Note_off_c, 0, 50, 95
2, 94560, Note_on_c, 0, 57, 95
2, 95040, Note_off_c, 0, 57, 95
2, 95040, Note_on_c, 0, 62, 95
2, 95055, Note_on_c, 0, 66, 95
2, 95070, Note_on_c, 0, 69, 95
2, 96000, Note_off_c, 0, 69, 95
2, 96000, Note_off_c, 0, 66, 95
2, 96000, Note_off_c, 0, 62, 95
2, 96000, Note_on_c, 0, 55, 95
2, 96000, Note_on_c, 0, 48, 95
2, 96480, Note_off_c, 0, 55, 95
2, 96480, Note_off_c, 0, 48, 95
2, 96480, Note_on_c, 0, 55, 95
2, 96960, Note_off_c, 0, 55, 95
2, 96960, Note_on_c, 0, 67, 95
2, 96960, Note_on_c, 0, 64, 95
2, 96960, Note_on_c, 0, 60, 95
2, 97920, Note_off_c, 0, 67, 95
2, 97920, Note_off_c, 0, 64, 95
2, 97920, Note_off_c, 0, 60, 95
2, 97920, Note_on_c, 0, 50, 95
2, 97920, Note_on_c, 0, 43, 95
2, 98400, Note_off_c, 0, 50, 95
2, 98400, Note_off_c, 0, 43, 95
2, 98400, Note_on_c, 0, 50, 95
2, 98880, Note_off_c, 0, 50, 95
2, 98880, Note_on_c, 0, 62, 95
2, 98880, Note_on_c, 0, 59, 95
2, 98880, Note_on_c, 0, 55, 95
2, 99840, Note_off_c, 0, 62, 95
2, 99840, Note_off_c, 0, 59, 95
2, 99840, Note_off_c, 0, 55, 95
2, 99840, Note_on_c, 0, 57, 95
2, 99840, Note_on_c, 0, 50, 95
2, 100320, Note_off_c, 0, 57, 95
2, 100320, Note_off_c, 0, 50, 95
2, 100320, Note_on_c, 0, 57, 95
2, 100800, Note_off_c, 0, 57, 95
2, 100800, Note_on_c, 0, 62, 95
2, 100815, Note_on_c, 0, 66, 95
2, 100830, Note_on_c, 0, 69, 95
2, 101760, Note_off_c, 0, 69, 95
2, 101760, Note_off_c, 0, 66, 95
2, 101760, Note_off_c, 0, 62, 95
2, 101760, Note_on_c, 0, 57, 95
2, 101760, Note_on_c, 0, 50, 95
2, 102240, Note_off_c, 0, 57, 95
2, 102240, Note_off_c, 0, 50, 95
2, 102240, Note_on_c, 0, 57, 95
2, 102720, Note_off_c, 0, 57, 95
2, 102720, Note_on_c, 0, 62, 95
2, 102735, Note_on_c, 0, 66, 95
2, 102750, Note_on_c, 0, 69, 95
2, 103680, Note_off_c, 0, 69, 95
2, 103680, Note_off_c, 0, 66, 95
2, 103680, Note_off_c, 0, 62, 95
2, 103680, Note_on_c, 0, 55, 95
2, 103680, Note_on_c, 0, 48, 95
2, 104160, Note_off_c, 0, 55, 95
2, 104160, Note_off_c, 0, 48, 95
2, 104160, Note_on_c, 0, 55, 95
2, 104640, Note_off_c, 0, 55, 95
2, 104640, Note_on_c, 0, 67, 95
2, 104640, Note_on_c, 0, 64, 95
2, 104640, Note_on_c, 0, 60, 95
2, 105600, Note_off_c, 0, 67, 95
2, 105600, Note_off_c, 0, 64, 95
2, 105600, Note_off_c, 0, 60, 95
2, 105600, Note_on_c, 0, 50, 95
2, 105600, Note_on_c, 0, 43, 95
2, 106080, Note_off_c, 0, 50, 95
2, 106080, Note_off_c, 0, 43, 95
2, 106080, Note_on_c, 0, 50, 95
2, 106560, Note_off_c, 0, 50, 95
2, 106560, Note_on_c, 0, 62, 95
2, 106560, Note_on_c, 0, 59, 95
2, 106560, Note_on_c, 0, 55, 95
2, 107520, Note_off_c, 0, 62, 95
2, 107520, Note_off_c, 0, 59, 95
2, 107520, Note_off_c, 0, 55, 95
2, 107520, Note_on_c, 0, 48, 95
2, 107520, Note_on_c, 0, 41, 95
2, 108480, Note_off_c, 0, 48, 95
2, 108480, Note_off_c, 0, 41, 95
2, 108480, Note_on_c, 0, 60, 95
2, 108480, Note_on_c, 0, 57, 95
2, 108480, Note_on_c, 0, 53, 95
2, 109440, Note_off_c, 0, 60, 95
2, 109440, Note_off_c, 0, 57, 95
2, 109440, Note_off_c, 0, 53, 95
2, 109440, Note_on_c, 0, 48, 95
2, 109440, Note_on_c, 0, 41, 95
2, 110400, Note_off_c, 0, 48, 95
2, 110400, Note_off_c, 0, 41, 95
2, 110400, Note_on_c, 0, 60, 95
2, 110400, Note_on_c, 0, 57, 95
2, 110400, Note_on_c, 0, 53, 95
2, 111360, Note_off_c, 0, 60, 95
2, 111360, Note_off_c, 0, 57, 95
2, 111360, Note_off_c, 0, 53, 95
2, 111360, Note_on_c, 0, 50, 95
2, 111360, Note_on_c, 0, 43, 95
2, 112320, Note_off_c, 0, 50, 95
2, 112320, Note_off_c, 0, 43, 95
2, 112320, Note_on_c, 0, 62, 95
2, 112320, Note_on_c, 0, 59, 95
2, 112320, Note_on_c, 0, 55, 95
2, 113280, Note_off_c, 0, 62, 95
2, 113280, Note_off_c, 0, 59, 95
2, 113280, Note_off_c, 0, 55, 95
2, 113280, Note_on_c, 0, 50, 95
2, 113280, Note_on_c, 0, 43, 95
2, 114240, Note_off_c, 0, 50, 95
2, 114240, Note_off_c, 0, 43, 95
2, 114240, Note_on_c, 0, 62, 95
2, 114240, Note_on_c, 0, 59, 95
2, 114240, Note_on_c, 0, 55, 95
2, 115200, Note_off_c, 0, 62, 95
2, 115200, Note_off_c, 0, 59, 95
2, 115200, Note_off_c, 0, 55, 95
2, 115200, Note_on_c, 0, 57, 95
2, 115200, Note_on_c, 0, 50, 95
2, 116160, Note_off_c, 0, 57, 95
2, 116160, Note_off_c, 0, 50, 95
2, 116160, Note_on_c, 0, 69, 95
2, 116160, Note_on_c, 0, 66, 95
2, 116160, Note_on_c, 0, 62, 95
2, 116880, Note_off_c, 0, 69, 95
2, 116880, Note_off_c, 0, 66, 95
2, 116880, Note_off_c, 0, 62, 95
2, 116880, Note_on_c, 0, 62, 95
2, 117120, Note_off_c, 0, 62, 95
2, 117120, Note_on_c, 0, 57, 95
2, 117360, Note_off_c, 0, 57, 95
2, 117360, Note_on_c, 0, 50, 95
2, 117600, Note_off_c, 0, 50, 95
2, 117600, Note_on_c, 0, 66, 95
2, 117600, Note_on_c, 0, 62, 95
2, 117840, Note_off_c, 0, 66, 95
2, 117840, Note_off_c, 0, 62, 95
2, 117840, Note_on_c, 0, 67, 95
2, 117840, Note_on_c, 0, 62, 95
2, 118080, Note_off_c, 0, 67, 95
2, 118080, Note_off_c, 0, 62, 95
2, 118320, Note_on_c, 0, 66, 95
2, 118320, Note_on_c, 0, 62, 95
2, 118560, Note_off_c, 0, 66, 95
2, 118560, Note_off_c, 0, 62, 95
2, 119040, Note_on_c, 0, 62, 95
2, 119040, Note_on_c, 0, 57, 95
2, 119520, Note_off_c, 0, 62, 95
2, 119520, Note_off_c, 0, 57, 95
2, 119520, Note_on_c, 0, 66, 95
2, 119520, Note_on_c, 0, 62, 95
2, 120000, Note_off_c, 0, 66, 95
2, 120000, Note_off_c, 0, 62, 95
2, 120240, Note_on_c, 0, 66, 95
2, 120240, Note_on_c, 0, 62, 95
2, 120480, Note_off_c, 0, 66, 95
2, 120480, Note_off_c, 0, 62, 95
2, 120720, Note_on_c, 0, 66, 95
2, 120720, Note_on_c, 0, 62, 95
2, 120960, Note_off_c, 0, 66, 95
2, 120960, Note_off_c, 0, 62, 95
2, 121200, Note_on_c, 0, 66, 95
2, 121200, Note_on_c, 0, 62, 95
2, 121440, Note_off_c, 0, 66, 95
2, 121440, Note_off_c, 0, 62, 95
2, 121680, Note_on_c, 0, 50, 95
2, 121920, Note_off_c, 0, 50, 95
2, 121920, Note_on_c, 0, 62, 95
2, 122160, Note_off_c, 0, 62, 95
2, 122160, Note_on_c, 0, 60, 95
2, 122400, Note_off_c, 0, 60, 95
2, 122880, Note_on_c, 0, 48, 95
2, 122880, Note_on_c, 0, 41, 95
2, 123840, Note_off_c, 0, 48, 95
2, 123840, Note_off_c, 0, 41, 95
2, 123840, Note_on_c, 0, 60, 95
2, 123840, Note_on_c, 0, 57, 95
2, 123840, Note_on_c, 0, 53, 95
2, 124800, Note_off_c, 0, 60, 95
2, 124800, Note_off_c, 0, 57, 95
2, 124800, Note_off_c, 0, 53, 95
2, 124800, Note_on_c, 0, 48, 95
2, 124800, Note_on_c, 0, 41, 95
2, 125760, Note_off_c, 0, 48, 95
2, 125760, Note_off_c, 0, 41, 95
2, 125760, Note_on_c, 0, 60, 95
2, 125760, Note_on_c, 0, 57, 95
2, 125760, Note_on_c, 0, 53, 95
2, 126720, Note_off_c, 0, 60, 95
2, 126720, Note_off_c, 0, 57, 95
2, 126720, Note_off_c, 0, 53, 95
2, 126720, Note_on_c, 0, 50, 95
2, 126720, Note_on_c, 0, 43, 95
2, 127680, Note_off_c, 0, 50, 95
2, 127680, Note_off_c, 0, 43, 95
2, 127680, Note_on_c, 0, 62, 95
2, 127680, Note_on_c, 0, 59, 95
2, 127680, Note_on_c, 0, 55, 95
2, 128640, Note_off_c, 0, 62, 95
2, 128640, Note_off_c, 0, 59, 95
2, 128640, Note_off_c, 0, 55, 95
2, 128640, Note_on_c, 0, 50, 95
2, 128640, Note_on_c, 0, 43, 95
2, 129600, Note_off_c, 0, 50, 95
2, 129600, Note_off_c, 0, 43, 95
2, 129600, Note_on_c, 0, 62, 95
2, 129600, Note_on_c, 0, 59, 95
2, 129600, Note_on_c, 0, 55, 95
2, 130560, Note_off_c, 0, 62, 95
2, 130560, Note_off_c, 0, 59, 95
2, 130560, Note_off_c, 0, 55, 95
2, 130560, Note_on_c, 0, 52, 95
2, 130560, Note_on_c, 0, 45, 95
2, 131520, Note_off_c, 0, 52, 95
2, 131520, Note_off_c, 0, 45, 95
2, 131520, Note_on_c, 0, 64, 95
2, 131520, Note_on_c, 0, 61, 95
2, 131520, Note_on_c, 0, 57, 95
2, 132240, Note_off_c, 0, 64, 95
2, 132240, Note_off_c, 0, 61, 95
2, 132240, Note_off_c, 0, 57, 95
2, 132240, Note_on_c, 0, 57, 95
2, 132240, Note_on_c, 0, 52, 95
2, 132480, Note_off_c, 0, 57, 95
2, 132480, Note_off_c, 0, 52, 95
2, 132480, Note_on_c, 0, 61, 95
2, 132720, Note_off_c, 0, 61, 95
2, 132720, Note_on_c, 0, 57, 95
2, 132960, Note_off_c, 0, 57, 95
2, 132960, Note_on_c, 0, 61, 95
2, 132960, Note_on_c, 0, 57, 95
2, 133200, Note_off_c, 0, 61, 95
2, 133200, Note_off_c, 0, 57, 95
2, 133200, Note_on_c, 0, 62, 95
2, 133200, Note_on_c, 0, 57, 95
2, 133440, Note_off_c, 0, 62, 95
2, 133440, Note_off_c, 0, 57, 95
2, 133680, Note_on_c, 0, 61, 95
2, 133680, Note_on_c, 0, 57, 95
2, 133920, Note_off_c, 0, 61, 95
2, 133920, Note_off_c, 0, 57, 95
2, 134400, Note_on_c, 0, 57, 95
2, 134400, Note_on_c, 0, 52, 95
2, 134880, Note_off_c, 0, 57, 95
2, 134880, Note_off_c, 0, 52, 95
2, 134880, Note_on_c, 0, 61, 95
2, 134880, Note_on_c, 0, 57, 95
2, 135360, Note_off_c, 0, 61, 95
2, 135360, Note_off_c, 0, 57, 95
2, 135600, Note_on_c, 0, 61, 95
2, 135600, Note_on_c, 0, 57, 95
2, 135840, Note_off_c, 0, 61, 95
2, 135840, Note_off_c, 0, 57, 95
2, 136080, Note_on_c, 0, 61, 95
2, 136080, Note_on_c, 0, 57, 95
2, 136320, Note_off_c, 0, 61, 95
2, 136320, Note_off_c, 0, 57, 95
2, 136560, Note_on_c, 0, 61, 95
2, 136560, Note_on_c, 0, 57, 95
2, 136800, Note_off_c, 0, 61, 95
2, 136800, Note_off_c, 0, 57, 95
2, 137040, Note_on_c, 0, 45, 95
2, 137280, Note_off_c, 0, 45, 95
2, 137280, Note_on_c, 0, 61, 95
2, 137520, Note_off_c, 0, 61, 95
2, 137520, Note_on_c, 0, 57, 95
2, 137760, Note_off_c, 0, 57, 95
2, 137760, Note_on_c, 0, 52, 95
2, 138000, Note_off_c, 0, 52, 95
2, 138000, Note_on_c, 0, 57, 95
2, 138240, Note_off_c, 0, 57, 95
2, 138240, Note_on_c, 0, 57, 95
2, 138240, Note_on_c, 0, 50, 95
2, 138960, Note_off_c, 0, 57, 95
2, 138960, Note_off_c, 0, 50, 95
2, 138960, Note_on_c, 0, 57, 95
2, 139200, Note_off_c, 0, 57, 95
2, 139200, Note_on_c, 0, 69, 95
2, 139200, Note_on_c, 0, 67, 95
2, 139200, Note_on_c, 0, 62, 95
2, 140160, Note_off_c, 0, 69, 95
2, 140160, Note_off_c, 0, 67, 95
2, 140160, Note_off_c, 0, 62, 95
2, 140160, Note_on_c, 0, 67, 95
2, 140400, Note_off_c, 0, 67, 95
2, 140400, Note_on_c, 0, 66, 95
2, 140640, Note_off_c, 0, 66, 95
2, 140640, Note_on_c, 0, 62, 95
2, 140880, Note_off_c, 0, 62, 95
2, 140880, Note_on_c, 0, 57, 95
2, 141120, Note_off_c, 0, 57, 95
2, 141120, Note_on_c, 0, 62, 95
2, 141120, Note_on_c, 0, 50, 95
2, 141360, Note_off_c, 0, 62, 95
2, 141360, Note_off_c, 0, 50, 95
2, 141360, Note_on_c, 0, 57, 95
2, 141600, Note_off_c, 0, 57, 95
2, 141600, Note_on_c, 0, 69, 95
2, 141600, Note_on_c, 0, 66, 95
2, 141600, Note_on_c, 0, 62, 95
2, 142080, Note_off_c, 0, 69, 95
2, 142080, Note_off_c, 0, 66, 95
2, 142080, Note_off_c, 0, 62, 95
2, 142080, Note_on_c, 0, 55, 95
2, 142080, Note_on_c, 0, 48, 95
2, 142560, Note_off_c, 0, 55, 95
2, 142560, Note_off_c, 0, 48, 95
2, 142560, Note_on_c, 0, 55, 95
2, 143040, Note_off_c, 0, 55, 95
2, 143040, Note_on_c, 0, 67, 95
2, 143040, Note_on_c, 0, 64, 95
2, 143040, Note_on_c, 0, 60, 95
2, 143280, Note_off_c, 0, 67, 95
2, 143280, Note_off_c, 0, 64, 95
2, 143280, Note_off_c, 0, 60, 95
2, 143280, Note_on_c, 0, 60, 95
2, 143520, Note_off_c, 0, 60, 95
2, 143520, Note_on_c, 0, 55, 95
2, 144000, Note_off_c, 0, 55, 95
2, 144000, Note_on_c, 0, 50, 95
2, 144000, Note_on_c, 0, 43, 95
2, 144480, Note_off_c, 0, 50, 95
2, 144480, Note_off_c, 0, 43, 95
2, 144480, Note_on_c, 0, 62, 95
2, 144480, Note_on_c, 0, 59, 95
2, 144480, Note_on_c, 0, 55, 95
2, 144720, Note_off_c, 0, 62, 95
2, 144720, Note_off_c, 0, 59, 95
2, 144720, Note_off_c, 0, 55, 95
2, 144960, Note_on_c, 0, 62, 95
2, 144960, Note_on_c, 0, 59, 95
2, 144960, Note_on_c, 0, 55, 95
2, 145200, Note_off_c, 0, 62, 95
2, 145200, Note_off_c, 0, 59, 95
2, 145200, Note_off_c, 0, 55, 95
2, 145200, Note_on_c, 0, 65, 95
2, 145200, Note_on_c, 0, 60, 95
2, 145200, Note_on_c, 0, 57, 95
2, 145200, Note_on_c, 0, 53, 95
2, 145920, Note_off_c, 0, 65, 95
2, 145920, Note_off_c, 0, 60, 95
2, 145920, Note_off_c, 0, 57, 95
2, 145920, Note_off_c, 0, 53, 95
2, 145920, Note_on_c, 0, 57, 95
2, 145920, Note_on_c, 0, 50, 95
2, 146880, Note_off_c, 0, 57, 95
2, 146880, Note_off_c, 0, 50, 95
2, 146880, Note_on_c, 0, 62, 95
2, 146891, Note_on_c, 0, 66, 95
2, 146902, Note_on_c, 0, 69, 95
2, 147600, Note_off_c, 0, 69, 95
2, 147600, Note_off_c, 0, 66, 95
2, 147600, Note_off_c, 0, 62, 95
2, 147600, Note_on_c, 0, 50, 95
2, 147840, Note_off_c, 0, 50, 95
2, 147840, Note_on_c, 0, 57, 95
2, 147840, Note_on_c, 0, 50, 95
2, 148320, Note_off_c, 0, 57, 95
2, 148320, Note_off_c, 0, 50, 95
2, 148320, Note_on_c, 0, 67, 95
2, 148320, Note_on_c, 0, 62, 95
2, 148800, Note_off_c, 0, 67, 95
2, 148800, Note_off_c, 0, 62, 95
2, 148800, Note_on_c, 0, 69, 95
2, 148800, Note_on_c, 0, 67, 95
2, 149040, Note_off_c, 0, 69, 95
2, 149040, Note_off_c, 0, 67, 95
2, 149040, Note_on_c, 0, 69, 95
2, 149040, Note_on_c, 0, 66, 95
2, 149280, Note_off_c, 0, 69, 95
2, 149280, Note_off_c, 0, 66, 95
2, 149280, Note_on_c, 0, 62, 95
2, 149520, Note_off_c, 0, 62, 95
2, 149520, Note_on_c, 0, 57, 95
2, 149760, Note_off_c, 0, 57, 95
2, 149760, Note_on_c, 0, 55, 95
2, 149760, Note_on_c, 0, 48, 95
2, 150240, Note_off_c, 0, 55, 95
2, 150240, Note_off_c, 0, 48, 95
2, 150240, Note_on_c, 0, 55, 95
2, 150720, Note_off_c, 0, 55, 95
2, 150720, Note_on_c, 0, 64, 95
2, 150720, Note_on_c, 0, 60, 95
2, 151200, Note_on_c, 0, 55, 95
2, 151680, Note_off_c, 0, 64, 95
2, 151680, Note_off_c, 0, 60, 95
2, 151680, Note_off_c, 0, 55, 95
2, 151680, Note_on_c, 0, 50, 95
2, 151680, Note_on_c, 0, 43, 95
2, 152160, Note_off_c, 0, 50, 95
2, 152160, Note_off_c, 0, 43, 95
2, 152160, Note_on_c, 0, 62, 95
2, 152160, Note_on_c, 0, 59, 95
2, 152160, Note_on_c, 0, 55, 95
2, 152400, Note_off_c, 0, 62, 95
2, 152400, Note_off_c, 0, 59, 95
2, 152400, Note_off_c, 0, 55, 95
2, 152640, Note_on_c, 0, 62, 95
2, 152640, Note_on_c, 0, 59, 95
2, 152640, Note_on_c, 0, 55, 95
2, 152880, Note_off_c, 0, 62, 95
2, 152880, Note_off_c, 0, 59, 95
2, 152880, Note_off_c, 0, 55, 95
2, 152880, Note_on_c, 0, 60, 95
2, 152880, Note_on_c, 0, 57, 95
2, 152880, Note_on_c, 0, 53, 95
2, 153600, Note_off_c, 0, 60, 95
2, 153600, Note_off_c, 0, 57, 95
2, 153600, Note_off_c, 0, 53, 95
2, 153600, Note_on_c, 0, 57, 95
2, 153600, Note_on_c, 0, 50, 95
2, 154320, Note_off_c, 0, 57, 95
2, 154320, Note_off_c, 0, 50, 95
2, 154320, Note_on_c, 0, 57, 95
2, 154560, Note_off_c, 0, 57, 95
2, 154560, Note_on_c, 0, 69, 95
2, 154560, Note_on_c, 0, 67, 95
2, 154560, Note_on_c, 0, 62, 95
2, 155520, Note_off_c, 0, 69, 95
2, 155520, Note_off_c, 0, 67, 95
2, 155520, Note_off_c, 0, 62, 95
2, 155520, Note_on_c, 0, 67, 95
2, 155760, Note_off_c, 0, 67, 95
2, 155760, Note_on_c, 0, 66, 95
2, 156000, Note_off_c, 0, 66, 95
2, 156000, Note_on_c, 0, 62, 95
2, 156240, Note_off_c, 0, 62, 95
2, 156240, Note_on_c, 0, 57, 95
2, 156480, Note_off_c, 0, 57, 95
2, 156480, Note_on_c, 0, 62, 95
2, 156480, Note_on_c, 0, 50, 95
2, 156720, Note_off_c, 0, 62, 95
2, 156720, Note_off_c, 0, 50, 95
2, 156720, Note_on_c, 0, 57, 95
2, 156960, Note_off_c, 0, 57, 95
2, 156960, Note_on_c, 0, 69, 95
2, 156960, Note_on_c, 0, 66, 95
2, 156960, Note_on_c, 0, 62, 95
2, 157440, Note_off_c, 0, 69, 95
2, 157440, Note_off_c, 0, 66, 95
2, 157440, Note_off_c, 0, 62, 95
2, 157440, Note_on_c, 0, 55, 95
2, 157440, Note_on_c, 0, 48, 95
2, 157920, Note_off_c, 0, 55, 95
2, 157920, Note_off_c, 0, 48, 95
2, 157920, Note_on_c, 0, 55, 95
2, 158400, Note_off_c, 0, 55, 95
2, 158400, Note_on_c, 0, 67, 95
2, 158400, Note_on_c, 0, 64, 95
2, 158400, Note_on_c, 0, 60, 95
2, 158640, Note_off_c, 0, 67, 95
2, 158640, Note_off_c, 0, 64, 95
2, 158640, Note_off_c, 0, 60, 95
2, 158640, Note_on_c, 0, 60, 95
2, 158880, Note_off_c, 0, 60, 95
2, 158880, Note_on_c, 0, 55, 95
2, 159360, Note_off_c, 0, 55, 95
2, 159360, Note_on_c, 0, 50, 95
2, 159360, Note_on_c, 0, 43, 95
2, 159840, Note_off_c, 0, 50, 95
2, 159840, Note_off_c, 0, 43, 95
2, 159840, Note_on_c, 0, 62, 95
2, 159840, Note_on_c, 0, 59, 95
2, 159840, Note_on_c, 0, 55, 95
2, 160080, Note_off_c, 0, 62, 95
2, 160080, Note_off_c, 0, 59, 95
2, 160080, Note_off_c, 0, 55, 95
2, 160320, Note_on_c, 0, 62, 95
2, 160320, Note_on_c, 0, 59, 95
2, 160320, Note_on_c, 0, 55, 95
2, 160560, Note_off_c, 0, 62, 95
2, 160560, Note_off_c, 0, 59, 95
2, 160560, Note_off_c, 0, 55, 95
2, 160560, Note_on_c, 0, 65, 95
2, 160560, Note_on_c, 0, 60, 95
2, 160560, Note_on_c, 0, 57, 95
2, 160560, Note_on_c, 0, 53, 95
2, 161280, Note_off_c, 0, 65, 95
2, 161280, Note_off_c, 0, 60, 95
2, 161280, Note_off_c, 0, 57, 95
2, 161280, Note_off_c, 0, 53, 95
2, 161280, Note_on_c, 0, 57, 95
2, 161280, Note_on_c, 0, 50, 95
2, 162240, Note_off_c, 0, 57, 95
2, 162240, Note_off_c, 0, 50, 95
2, 162240, Note_on_c, 0, 62, 95
2, 162251, Note_on_c, 0, 66, 95
2, 162262, Note_on_c, 0, 69, 95
2, 162960, Note_off_c, 0, 69, 95
2, 162960, Note_off_c, 0, 66, 95
2, 162960, Note_off_c, 0, 62, 95
2, 162960, Note_on_c, 0, 50, 95
2, 163200, Note_off_c, 0, 50, 95
2, 163200, Note_on_c, 0, 57, 95
2, 163200, Note_on_c, 0, 50, 95
2, 163680, Note_off_c, 0, 57, 95
2, 163680, Note_off_c, 0, 50, 95
2, 163680, Note_on_c, 0, 67, 95
2, 163680, Note_on_c, 0, 62, 95
2, 164160, Note_off_c, 0, 67, 95
2, 164160, Note_off_c, 0, 62, 95
2, 164160, Note_on_c, 0, 69, 95
2, 164160, Note_on_c, 0, 67, 95
2, 164400, Note_off_c, 0, 69, 95
2, 164400, Note_off_c, 0, 67, 95
2, 164400, Note_on_c, 0, 69, 95
2, 164400, Note_on_c, 0, 66, 95
2, 164640, Note_off_c, 0, 69, 95
2, 164640, Note_off_c, 0, 66, 95
2, 164640, Note_on_c, 0, 62, 95
2, 164880, Note_off_c, 0, 62, 95
2, 164880, Note_on_c, 0, 57, 95
2, 165120, Note_off_c, 0, 57, 95
2, 165120, Note_on_c, 0, 55, 95
2, 165120, Note_on_c, 0, 48, 95
2, 165600, Note_off_c, 0, 55, 95
2, 165600, Note_off_c, 0, 48, 95
2, 165600, Note_on_c, 0, 55, 95
2, 166080, Note_off_c, 0, 55, 95
2, 166080, Note_on_c, 0, 64, 95
2, 166080, Note_on_c, 0, 60, 95
2, 166560, Note_on_c, 0, 55, 95
2, 167040, Note_off_c, 0, 64, 95
2, 167040, Note_off_c, 0, 60, 95
2, 167040, Note_off_c, 0, 55, 95
2, 167040, Note_on_c, 0, 50, 95
2, 167040, Note_on_c, 0, 43, 95
2, 167520, Note_off_c, 0, 50, 95
2, 167520, Note_off_c, 0, 43, 95
2, 167520, Note_on_c, 0, 62, 95
2, 167520, Note_on_c, 0, 59, 95
2, 167520, Note_on_c, 0, 55, 95
2, 167760, Note_off_c, 0, 62, 95
2, 167760, Note_off_c, 0, 59, 95
2, 167760, Note_off_c, 0, 55, 95
2, 168000, Note_on_c, 0, 62, 95
2, 168000, Note_on_c, 0, 59, 95
2, 168000, Note_on_c, 0, 55, 95
2, 168240, Note_off_c, 0, 62, 95
2, 168240, Note_off_c, 0, 59, 95
2, 168240, Note_off_c, 0, 55, 95
2, 168240, Note_on_c, 0, 62, 95
2, 168240, Note_on_c, 0, 59, 95
2, 168240, Note_on_c, 0, 55, 95
2, 168960, Note_off_c, 0, 62, 95
2, 168960, Note_off_c, 0, 59, 95
2, 168960, Note_off_c, 0, 55, 95
2, 168960, Note_on_c, 0, 48, 95
2, 168960, Note_on_c, 0, 41, 95
2, 169920, Note_off_c, 0, 48, 95
2, 169920, Note_off_c, 0, 41, 95
2, 169920, Note_on_c, 0, 60, 95
2, 169920, Note_on_c, 0, 57, 95
2, 169920, Note_on_c, 0, 53, 95
2, 170880, Note_off_c, 0, 60, 95
2, 170880, Note_off_c, 0, 57, 95
2, 170880, Note_off_c, 0, 53, 95
2, 170880, Note_on_c, 0, 48, 95
2, 170880, Note_on_c, 0, 41, 95
2, 171840, Note_off_c, 0, 48, 95
2, 171840, Note_off_c, 0, 41, 95
2, 171840, Note_on_c, 0, 60, 95
2, 171840, Note_on_c, 0, 57, 95
2, 171840, Note_on_c, 0, 53, 95
2, 172800, Note_off_c, 0, 60, 95
2, 172800, Note_off_c, 0, 57, 95
2, 172800, Note_off_c, 0, 53, 95
2, 172800, Note_on_c, 0, 50, 95
2, 172800, Note_on_c, 0, 43, 95
2, 173760, Note_off_c, 0, 50, 95
2, 173760, Note_off_c, 0, 43, 95
2, 173760, Note_on_c, 0, 62, 95
2, 173760, Note_on_c, 0, 59, 95
2, 173760, Note_on_c, 0, 55, 95
2, 174720, Note_off_c, 0, 62, 95
2, 174720, Note_off_c, 0, 59, 95
2, 174720, Note_off_c, 0, 55, 95
2, 174720, Note_on_c, 0, 50, 95
2, 174720, Note_on_c, 0, 43, 95
2, 175680, Note_off_c, 0, 50, 95
2, 175680, Note_off_c, 0, 43, 95
2, 175680, Note_on_c, 0, 62, 95
2, 175680, Note_on_c, 0, 59, 95
2, 175680, Note_on_c, 0, 55, 95
2, 176640, Note_off_c, 0, 62, 95
2, 176640, Note_off_c, 0, 59, 95
2, 176640, Note_off_c, 0, 55, 95
2, 176640, Note_on_c, 0, 57, 95
2, 176640, Note_on_c, 0, 50, 95
2, 177600, Note_off_c, 0, 57, 95
2, 177600, Note_off_c, 0, 50, 95
2, 177600, Note_on_c, 0, 69, 95
2, 177600, Note_on_c, 0, 66, 95
2, 177600, Note_on_c, 0, 62, 95
2, 178320, Note_off_c, 0, 69, 95
2, 178320, Note_off_c, 0, 66, 95
2, 178320, Note_off_c, 0, 62, 95
2, 178320, Note_on_c, 0, 62, 95
2, 178560, Note_off_c, 0, 62, 95
2, 178560, Note_on_c, 0, 57, 95
2, 178800, Note_off_c, 0, 57, 95
2, 178800, Note_on_c, 0, 50, 95
2, 179040, Note_off_c, 0, 50, 95
2, 179040, Note_on_c, 0, 66, 95
2, 179040, Note_on_c, 0, 62, 95
2, 179280, Note_off_c, 0, 66, 95
2, 179280, Note_off_c, 0, 62, 95
2, 179280, Note_on_c, 0, 67, 95
2, 179280, Note_on_c, 0, 62, 95
2, 179520, Note_off_c, 0, 67, 95
2, 179520, Note_off_c, 0, 62, 95
2, 179760, Note_on_c, 0, 66, 95
2, 179760, Note_on_c, 0, 62, 95
2, 180000, Note_off_c, 0, 66, 95
2, 180000, Note_off_c, 0, 62, 95
2, 180480, Note_on_c, 0, 62, 95
2, 180480, Note_on_c, 0, 57, 95
2, 180960, Note_off_c, 0, 62, 95
2, 180960, Note_off_c, 0, 57, 95
2, 180960, Note_on_c, 0, 66, 95
2, 180960, Note_on_c, 0, 62, 95
2, 181440, Note_off_c, 0, 66, 95
2, 181440, Note_off_c, 0, 62, 95
2, 181680, Note_on_c, 0, 66, 95
2, 181680, Note_on_c, 0, 62, 95
2, 181920, Note_off_c, 0, 66, 95
2, 181920, Note_off_c, 0, 62, 95
2, 182160, Note_on_c, 0, 66, 95
2, 182160, Note_on_c, 0, 62, 95
2, 182400, Note_off_c, 0, 66, 95
2, 182400, Note_off_c, 0, 62, 95
2, 182640, Note_on_c, 0, 66, 95
2, 182640, Note_on_c, 0, 62, 95
2, 182880, Note_off_c, 0, 66, 95
2, 182880, Note_off_c, 0, 62, 95
2, 183120, Note_on_c, 0, 50, 95
2, 183360, Note_off_c, 0, 50, 95
2, 183360, Note_on_c, 0, 62, 95
2, 183600, Note_off_c, 0, 62, 95
2, 183600, Note_on_c, 0, 60, 95
2, 183840, Note_off_c, 0, 60, 95
2, 184320, Note_on_c, 0, 48, 95
2, 184320, Note_on_c, 0, 41, 95
2, 185280, Note_off_c, 0, 48, 95
2, 185280, Note_off_c, 0, 41, 95
2, 185280, Note_on_c, 0, 60, 95
2, 185280, Note_on_c, 0, 57, 95
2, 185280, Note_on_c, 0, 53, 95
2, 186240, Note_off_c, 0, 60, 95
2, 186240, Note_off_c, 0, 57, 95
2, 186240, Note_off_c, 0, 53, 95
2, 186240, Note_on_c, 0, 48, 95
2, 186240, Note_on_c, 0, 41, 95
2, 187200, Note_off_c, 0, 48, 95
2, 187200, Note_off_c, 0, 41, 95
2, 187200, Note_on_c, 0, 60, 95
2, 187200, Note_on_c, 0, 57, 95
2, 187200, Note_on_c, 0, 53, 95
2, 188160, Note_off_c, 0, 60, 95
2, 188160, Note_off_c, 0, 57, 95
2, 188160, Note_off_c, 0, 53, 95
2, 188160, Note_on_c, 0, 50, 95
2, 188160, Note_on_c, 0, 43, 95
2, 189120, Note_off_c, 0, 50, 95
2, 189120, Note_off_c, 0, 43, 95
2, 189120, Note_on_c, 0, 62, 95
2, 189120, Note_on_c, 0, 59, 95
2, 189120, Note_on_c, 0, 55, 95
2, 190080, Note_off_c, 0, 62, 95
2, 190080, Note_off_c, 0, 59, 95
2, 190080, Note_off_c, 0, 55, 95
2, 190080, Note_on_c, 0, 50, 95
2, 190080, Note_on_c, 0, 43, 95
2, 191040, Note_off_c, 0, 50, 95
2, 191040, Note_off_c, 0, 43, 95
2, 191040, Note_on_c, 0, 62, 95
2, 191040, Note_on_c, 0, 59, 95
2, 191040, Note_on_c, 0, 55, 95
2, 192000, Note_off_c, 0, 62, 95
2, 192000, Note_off_c, 0, 59, 95
2, 192000, Note_off_c, 0, 55, 95
2, 192000, Note_on_c, 0, 52, 95
2, 192000, Note_on_c, 0, 45, 95
2, 192960, Note_off_c, 0, 52, 95
2, 192960, Note_off_c, 0, 45, 95
2, 192960, Note_on_c, 0, 64, 95
2, 192960, Note_on_c, 0, 61, 95
2, 192960, Note_on_c, 0, 57, 95
2, 193680, Note_off_c, 0, 64, 95
2, 193680, Note_off_c, 0, 61, 95
2, 193680, Note_off_c, 0, 57, 95
2, 193680, Note_on_c, 0, 57, 95
2, 193680, Note_on_c, 0, 52, 95
2, 193920, Note_off_c, 0, 57, 95
2, 193920, Note_off_c, 0, 52, 95
2, 193920, Note_on_c, 0, 61, 95
2, 193920, Note_on_c, 0, 57, 95
2, 194160, Note_off_c, 0, 61, 95
2, 194160, Note_off_c, 0, 57, 95
2, 194400, Note_on_c, 0, 61, 95
2, 194400, Note_on_c, 0, 57, 95
2, 194640, Note_off_c, 0, 61, 95
2, 194640, Note_off_c, 0, 57, 95
2, 194880, Note_on_c, 0, 62, 95
2, 194880, Note_on_c, 0, 57, 95
2, 195120, Note_off_c, 0, 62, 95
2, 195120, Note_off_c, 0, 57, 95
2, 195120, Note_on_c, 0, 61, 95
2, 195360, Note_off_c, 0, 61, 95
2, 195360, Note_on_c, 0, 57, 95
2, 195360, Note_on_c, 0, 52, 95
2, 195840, Note_off_c, 0, 57, 95
2, 195840, Note_off_c, 0, 52, 95
2, 195840, Note_on_c, 0, 57, 95
2, 195840, Note_on_c, 0, 52, 95
2, 196320, Note_off_c, 0, 57, 95
2, 196320, Note_off_c, 0, 52, 95
2, 196320, Note_on_c, 0, 61, 95
2, 196320, Note_on_c, 0, 57, 95
2, 196800, Note_off_c, 0, 61, 95
2, 196800, Note_off_c, 0, 57, 95
2, 197040, Note_on_c, 0, 61, 95
2, 197040, Note_on_c, 0, 57, 95
2, 197280, Note_off_c, 0, 61, 95
2, 197280, Note_off_c, 0, 57, 95
2, 197520, Note_on_c, 0, 62, 95
2, 197520, Note_on_c, 0, 57, 95
2, 197760, Note_off_c, 0, 62, 95
2, 197760, Note_off_c, 0, 57, 95
2, 198000, Note_on_c, 0, 62, 95
2, 198000, Note_on_c, 0, 57, 95
2, 198240, Note_off_c, 0, 62, 95
2, 198240, Note_off_c, 0, 57, 95
2, 198480, Note_on_c, 0, 45, 95
2, 198720, Note_off_c, 0, 45, 95
2, 198720, Note_on_c, 0, 62, 95
2, 198720, Note_on_c, 0, 57, 95
2, 198960, Note_off_c, 0, 62, 95
2, 198960, Note_off_c, 0, 57, 95
2, 198960, Note_on_c, 0, 61, 95
2, 198960, Note_on_c, 0, 57, 95
2, 199680, Note_off_c, 0, 61, 95
2, 199680, Note_off_c, 0, 57, 95
2, 199680, Note_on_c, 0, 57, 95
2, 199680, Note_on_c, 0, 50, 95
2, 200160, Note_off_c, 0, 57, 95
2, 200160, Note_off_c, 0, 50, 95
2, 200160, Note_on_c, 0, 57, 95
2, 200640, Note_off_c, 0, 57, 95
2, 200640, Note_on_c, 0, 69, 95
2, 200640, Note_on_c, 0, 66, 95
2, 200640, Note_on_c, 0, 62, 95
2, 201360, Note_off_c, 0, 69, 95
2, 201360, Note_off_c, 0, 66, 95
2, 201360, Note_off_c, 0, 62, 95
2, 201360, Note_on_c, 0, 62, 95
2, 201600, Note_off_c, 0, 62, 95
2, 201600, Note_on_c, 0, 57, 95
2, 201600, Note_on_c, 0, 50, 95
2, 202080, Note_off_c, 0, 57, 95
2, 202080, Note_off_c, 0, 50, 95
2, 202080, Note_on_c, 0, 57, 95
2, 202320, Note_off_c, 0, 57, 95
2, 202320, Note_on_c, 0, 62, 95
2, 202560, Note_off_c, 0, 62, 95
2, 202560, Note_on_c, 0, 69, 95
2, 202560, Note_on_c, 0, 67, 95
2, 202560, Note_on_c, 0, 62, 95
2, 202800, Note_off_c, 0, 69, 95
2, 202800, Note_off_c, 0, 67, 95
2, 202800, Note_off_c, 0, 62, 95
2, 202800, Note_on_c, 0, 69, 95
2, 202800, Note_on_c, 0, 66, 95
2, 202800, Note_on_c, 0, 62, 95
2, 203040, Note_off_c, 0, 69, 95
2, 203040, Note_off_c, 0, 66, 95
2, 203040, Note_off_c, 0, 62, 95
2, 203040, Note_on_c, 0, 62, 95
2, 203280, Note_off_c, 0, 62, 95
2, 203280, Note_on_c, 0, 57, 95
2, 203520, Note_off_c, 0, 57, 95
2, 203520, Note_on_c, 0, 55, 95
2, 203520, Note_on_c, 0, 48, 95
2, 204000, Note_off_c, 0, 55, 95
2, 204000, Note_off_c, 0, 48, 95
2, 204000, Note_on_c, 0, 55, 95
2, 204480, Note_off_c, 0, 55, 95
2, 204480, Note_on_c, 0, 67, 95
2, 204480, Note_on_c, 0, 64, 95
2, 204480, Note_on_c, 0, 60, 95
2, 204720, Note_off_c, 0, 64, 95
2, 204720, Note_on_c, 0, 62, 95
2, 205440, Note_off_c, 0, 67, 95
2, 205440, Note_off_c, 0, 60, 95
2, 205440, Note_off_c, 0, 62, 95
2, 205440, Note_on_c, 0, 50, 95
2, 205440, Note_on_c, 0, 43, 95
2, 205920, Note_off_c, 0, 50, 95
2, 205920, Note_off_c, 0, 43, 95
2, 205920, Note_on_c, 0, 62, 95
2, 205920, Note_on_c, 0, 59, 95
2, 205920, Note_on_c, 0, 55, 95
2, 206160, Note_off_c, 0, 62, 95
2, 206160, Note_off_c, 0, 59, 95
2, 206160, Note_off_c, 0, 55, 95
2, 206400, Note_on_c, 0, 62, 95
2, 206400, Note_on_c, 0, 59, 95
2, 206400, Note_on_c, 0, 55, 95
2, 206640, Note_off_c, 0, 62, 95
2, 206640, Note_off_c, 0, 59, 95
2, 206640, Note_off_c, 0, 55, 95
2, 206640, Note_on_c, 0, 60, 95
2, 206640, Note_on_c, 0, 57, 95
2, 206640, Note_on_c, 0, 53, 95
2, 207360, Note_off_c, 0, 60, 95
2, 207360, Note_off_c, 0, 57, 95
2, 207360, Note_off_c, 0, 53, 95
2, 207360, Note_on_c, 0, 57, 95
2, 207360, Note_on_c, 0, 50, 95
2, 207840, Note_off_c, 0, 57, 95
2, 207840, Note_off_c, 0, 50, 95
2, 207840, Note_on_c, 0, 57, 95
2, 208320, Note_off_c, 0, 57, 95
2, 208320, Note_on_c, 0, 69, 95
2, 208320, Note_on_c, 0, 66, 95
2, 208320, Note_on_c, 0, 62, 95
2, 209040, Note_off_c, 0, 69, 95
2, 209040, Note_off_c, 0, 66, 95
2, 209040, Note_off_c, 0, 62, 95
2, 209040, Note_on_c, 0, 62, 95
2, 209280, Note_off_c, 0, 62, 95
2, 209280, Note_on_c, 0, 57, 95
2, 209280, Note_on_c, 0, 50, 95
2, 209760, Note_off_c, 0, 57, 95
2, 209760, Note_off_c, 0, 50, 95
2, 209760, Note_on_c, 0, 57, 95
2, 210000, Note_off_c, 0, 57, 95
2, 210000, Note_on_c, 0, 62, 95
2, 210240, Note_off_c, 0, 62, 95
2, 210240, Note_on_c, 0, 69, 95
2, 210240, Note_on_c, 0, 67, 95
2, 210240, Note_on_c, 0, 62, 95
2, 210480, Note_off_c, 0, 69, 95
2, 210480, Note_off_c, 0, 67, 95
2, 210480, Note_off_c, 0, 62, 95
2, 210480, Note_on_c, 0, 69, 95
2, 210480, Note_on_c, 0, 66, 95
2, 210480, Note_on_c, 0, 62, 95
2, 210720, Note_off_c, 0, 69, 95
2, 210720, Note_off_c, 0, 66, 95
2, 210720, Note_off_c, 0, 62, 95
2, 210720, Note_on_c, 0, 62, 95
2, 210960, Note_off_c, 0, 62, 95
2, 210960, Note_on_c, 0, 57, 95
2, 211200, Note_off_c, 0, 57, 95
2, 211200, Note_on_c, 0, 55, 95
2, 211200, Note_on_c, 0, 48, 95
2, 211680, Note_off_c, 0, 55, 95
2, 211680, Note_off_c, 0, 48, 95
2, 211680, Note_on_c, 0, 55, 95
2, 212160, Note_off_c, 0, 55, 95
2, 212160, Note_on_c, 0, 67, 95
2, 212160, Note_on_c, 0, 64, 95
2, 212160, Note_on_c, 0, 60, 95
2, 213120, Note_off_c, 0, 67, 95
2, 213120, Note_off_c, 0, 64, 95
2, 213120, Note_off_c, 0, 60, 95
2, 213120, Note_on_c, 0, 50, 95
2, 213120, Note_on_c, 0, 43, 95
2, 213600, Note_off_c, 0, 50, 95
2, 213600, Note_off_c, 0, 43, 95
2, 213600, Note_on_c, 0, 62, 95
2, 213600, Note_on_c, 0, 59, 95
2, 213600, Note_on_c, 0, 55, 95
2, 213840, Note_off_c, 0, 62, 95
2, 213840, Note_off_c, 0, 59, 95
2, 213840, Note_off_c, 0, 55, 95
2, 214080, Note_on_c, 0, 62, 95
2, 214080, Note_on_c, 0, 59, 95
2, 214080, Note_on_c, 0, 55, 95
2, 214320, Note_off_c, 0, 62, 95
2, 214320, Note_off_c, 0, 59, 95
2, 214320, Note_off_c, 0, 55, 95
2, 214320, Note_on_c, 0, 60, 95
2, 214320, Note_on_c, 0, 57, 95
2, 214320, Note_on_c, 0, 53, 95
2, 215040, Note_off_c, 0, 60, 95
2, 215040, Note_off_c, 0, 57, 95
2, 215040, Note_off_c, 0, 53, 95
2, 215040, Note_on_c, 0, 57, 95
2, 215040, Note_on_c, 0, 50, 95
2, 216000, Note_off_c, 0, 57, 95
2, 216000, Note_off_c, 0, 50, 95
2, 216000, Note_on_c, 0, 62, 95
2, 216011, Note_on_c, 0, 66, 95
2, 216022, Note_on_c, 0, 69, 95
2, 216720, Note_off_c, 0, 69, 95
2, 216720, Note_off_c, 0, 66, 95
2, 216720, Note_off_c, 0, 62, 95
2, 216720, Note_on_c, 0, 62, 95
2, 216960, Note_off_c, 0, 62, 95
2, 216960, Note_on_c, 0, 57, 95
2, 216960, Note_on_c, 0, 50, 95
2, 217440, Note_off_c, 0, 57, 95
2, 217440, Note_off_c, 0, 50, 95
2, 217440, Note_on_c, 0, 57, 95
2, 217920, Note_off_c, 0, 57, 95
2, 217920, Note_on_c, 0, 69, 95
2, 217920, Note_on_c, 0, 66, 95
2, 217920, Note_on_c, 0, 62, 95
2, 218160, Note_off_c, 0, 69, 95
2, 218160, Note_off_c, 0, 66, 95
2, 218160, Note_off_c, 0, 62, 95
2, 218160, Note_on_c, 0, 62, 95
2, 218400, Note_off_c, 0, 62, 95
2, 218400, Note_on_c, 0, 57, 95
2, 218880, Note_off_c, 0, 57, 95
2, 218880, Note_on_c, 0, 55, 95
2, 218880, Note_on_c, 0, 48, 95
2, 219360, Note_off_c, 0, 55, 95
2, 219360, Note_off_c, 0, 48, 95
2, 219360, Note_on_c, 0, 55, 95
2, 219840, Note_off_c, 0, 55, 95
2, 219840, Note_on_c, 0, 67, 95
2, 219840, Note_on_c, 0, 64, 95
2, 219840, Note_on_c, 0, 60, 95
2, 220320, Note_off_c, 0, 67, 95
2, 220320, Note_off_c, 0, 64, 95
2, 220320, Note_off_c, 0, 60, 95
2, 220320, Note_on_c, 0, 55, 95
2, 220800, Note_off_c, 0, 55, 95
2, 220800, Note_on_c, 0, 50, 95
2, 220800, Note_on_c, 0, 43, 95
2, 221280, Note_off_c, 0, 50, 95
2, 221280, Note_off_c, 0, 43, 95
2, 221280, Note_on_c, 0, 50, 95
2, 221760, Note_off_c, 0, 50, 95
2, 221760, Note_on_c, 0, 62, 95
2, 221760, Note_on_c, 0, 59, 95
2, 221760, Note_on_c, 0, 55, 95
2, 222240, Note_off_c, 0, 62, 95
2, 222240, Note_off_c, 0, 59, 95
2, 222240, Note_off_c, 0, 55, 95
2, 222240, Note_on_c, 0, 50, 95
2, 222720, Note_off_c, 0, 50, 95
2, 222720, Note_on_c, 0, 57, 95
2, 222720, Note_on_c, 0, 50, 95
2, 223680, Note_off_c, 0, 57, 95
2, 223680, Note_off_c, 0, 50, 95
2, 223680, Note_on_c, 0, 62, 95
2, 223691, Note_on_c, 0, 66, 95
2, 223702, Note_on_c, 0, 69, 95
2, 224400, Note_off_c, 0, 69, 95
2, 224400, Note_off_c, 0, 66, 95
2, 224400, Note_off_c, 0, 62, 95
2, 224400, Note_on_c, 0, 62, 95
2, 224640, Note_off_c, 0, 62, 95
2, 224640, Note_on_c, 0, 57, 95
2, 224640, Note_on_c, 0, 50, 95
2, 225120, Note_off_c, 0, 57, 95
2, 225120, Note_off_c, 0, 50, 95
2, 225120, Note_on_c, 0, 57, 95
2, 225600, Note_off_c, 0, 57, 95
2, 225600, Note_on_c, 0, 69, 95
2, 225600, Note_on_c, 0, 66, 95
2, 225600, Note_on_c, 0, 62, 95
2, 225840, Note_off_c, 0, 69, 95
2, 225840, Note_off_c, 0, 66, 95
2, 225840, Note_off_c, 0, 62, 95
2, 225840, Note_on_c, 0, 62, 95
2, 226080, Note_off_c, 0, 62, 95
2, 226080, Note_on_c, 0, 57, 95
2, 226560, Note_off_c, 0, 57, 95
2, 226560, Note_on_c, 0, 55, 95
2, 226560, Note_on_c, 0, 48, 95
2, 227040, Note_off_c, 0, 55, 95
2, 227040, Note_off_c, 0, 48, 95
2, 227040, Note_on_c, 0, 55, 95
2, 227520, Note_off_c, 0, 55, 95
2, 227520, Note_on_c, 0, 67, 95
2, 227520, Note_on_c, 0, 64, 95
2, 227520, Note_on_c, 0, 60, 95
2, 228480, Note_off_c, 0, 67, 95
2, 228480, Note_off_c, 0, 64, 95
2, 228480, Note_off_c, 0, 60, 95
2, 228480, Note_on_c, 0, 50, 95
2, 228480, Note_on_c, 0, 43, 95
2, 228960, Note_off_c, 0, 50, 95
2, 228960, Note_off_c, 0, 43, 95
2, 228960, Note_on_c, 0, 50, 95
2, 229440, Note_off_c, 0, 50, 95
2, 229440, Note_on_c, 0, 62, 95
2, 229440, Note_on_c, 0, 59, 95
2, 229440, Note_on_c, 0, 55, 95
2, 230400, Note_off_c, 0, 62, 95
2, 230400, Note_off_c, 0, 59, 95
2, 230400, Note_off_c, 0, 55, 95
2, 230400, Note_on_c, 0, 50, 95
2, 230400, Note_on_c, 0, 43, 95
2, 230880, Note_off_c, 0, 50, 95
2, 230880, Note_off_c, 0, 43, 95
2, 230880, Note_on_c, 0, 50, 95
2, 231360, Note_off_c, 0, 50, 95
2, 231360, Note_on_c, 0, 62, 95
2, 231360, Note_on_c, 0, 59, 95
2, 231360, Note_on_c, 0, 55, 95
2, 231840, Note_off_c, 0, 62, 95
2, 231840, Note_off_c, 0, 59, 95
2, 231840, Note_off_c, 0, 55, 95
2, 231840, Note_on_c, 0, 50, 95
2, 232320, Note_off_c, 0, 50, 95
2, 232320, Note_on_c, 0, 52, 95
2, 232320, Note_on_c, 0, 45, 95
2, 232800, Note_off_c, 0, 52, 95
2, 232800, Note_off_c, 0, 45, 95
2, 232800, Note_on_c, 0, 52, 95
2, 233280, Note_off_c, 0, 52, 95
2, 233280, Note_on_c, 0, 64, 95
2, 233280, Note_on_c, 0, 61, 95
2, 233280, Note_on_c, 0, 57, 95
2, 234240, Note_off_c, 0, 64, 95
2, 234240, Note_off_c, 0, 61, 95
2, 234240, Note_off_c, 0, 57, 95
2, 234240, Note_on_c, 0, 52, 95
2, 234240, Note_on_c, 0, 45, 95
2, 234480, Note_off_c, 0, 52, 95
2, 234480, Note_off_c, 0, 45, 95
2, 234480, Note_on_c, 0, 52, 95
2, 234720, Note_off_c, 0, 52, 95
2, 234720, Note_on_c, 0, 61, 95
2, 234720, Note_on_c, 0, 57, 95
2, 235200, Note_off_c, 0, 61, 95
2, 235200, Note_off_c, 0, 57, 95
2, 235200, Note_on_c, 0, 62, 95
2, 235200, Note_on_c, 0, 57, 95
2, 235440, Note_off_c, 0, 62, 95
2, 235440, Note_on_c, 0, 61, 95
2, 235680, Note_off_c, 0, 57, 95
2, 235680, Note_off_c, 0, 61, 95
2, 235680, Note_on_c, 0, 52, 95
2, 236160, Note_off_c, 0, 52, 95
2, 236160, Note_on_c, 0, 52, 95
2, 236160, Note_on_c, 0, 45, 95
2, 237120, Note_off_c, 0, 52, 95
2, 237120, Note_off_c, 0, 45, 95
2, 237120, Note_on_c, 0, 64, 95
2, 237120, Note_on_c, 0, 61, 95
2, 237120, Note_on_c, 0, 57, 95
2, 238080, Note_off_c, 0, 64, 95
2, 238080, Note_off_c, 0, 61, 95
2, 238080, Note_off_c, 0, 57, 95
2, 238080, Note_on_c, 0, 45, 47
2, 239040, Note_off_c, 0, 45, 47
2, 239040, Note_on_c, 0, 61, 15
2, 240000, Note_off_c, 0, 61, 15
2, 240000, Note_on_c, 0, 69, 95
2, 240000, Note_on_c, 0, 66, 95
2, 240000, Note_on_c, 0, 62, 95
2, 241920, Note_off_c, 0, 69, 95
2, 241920, Note_off_c, 0, 66, 95
2, 241920, Note_off_c, 0, 62, 95
2, 241920, End_track
3, 0, Start_track
3, 0, Pitch_bend_c, 2, 8192
3, 0, Control_c, 2, 7, 119
3, 0, Control_c, 2, 10, 39
3, 0, Control_c, 2, 93, 0
3, 0, Control_c, 2, 91, 0
3, 0, Control_c, 2, 95, 0
3, 0, Control_c, 2, 92, 0
3, 0, Control_c, 2, 11, 127
3, 0, Program_c, 2, 30
3, 0, Control_c, 3, 7, 119
3, 0, Control_c, 3, 10, 39
3, 0, Control_c, 3, 93, 0
3, 0, Control_c, 3, 91, 0
3, 0, Control_c, 3, 95, 0
3, 0, Control_c, 3, 92, 0
3, 0, Control_c, 3, 11, 127
3, 0, Program_c, 3, 30
3, 30720, Note_on_c, 2, 53, 95
3, 30720, Note_on_c, 2, 48, 95
3, 30720, Note_on_c, 2, 41, 95
3, 31680, Note_off_c, 2, 53, 95
3, 31680, Note_off_c, 2, 48, 95
3, 31680, Note_off_c, 2, 41, 95
3, 31680, Note_on_c, 2, 53, 95
3, 31680, Note_on_c, 2, 48, 95
3, 31680, Note_on_c, 2, 41, 95
3, 32640, Note_off_c, 2, 53, 95
3, 32640, Note_off_c, 2, 48, 95
3, 32640, Note_off_c, 2, 41, 95
3, 32640, Note_on_c, 2, 53, 95
3, 32640, Note_on_c, 2, 48, 95
3, 32640, Note_on_c, 2, 41, 95
3, 33600, Note_off_c, 2, 53, 95
3, 33600, Note_off_c, 2, 48, 95
3, 33600, Note_off_c, 2, 41, 95
3, 33600, Note_on_c, 2, 53, 95
3, 33600, Note_on_c, 2, 48, 95
3, 33600, Note_on_c, 2, 41, 95
3, 34080, Note_off_c, 2, 53, 95
3, 34080, Note_off_c, 2, 48, 95
3, 34080, Note_off_c, 2, 41, 95
3, 34080, Note_on_c, 3, 53, 95
3, 34080, Note_on_c, 3, 48, 95
3, 34080, Note_on_c, 3, 41, 95
3, 34200, Pitch_bend_c, 3, 8448
3, 34200, Pitch_bend_c, 3, 8448
3, 34200, Pitch_bend_c, 3, 8448
3, 34320, Pitch_bend_c, 3, 8832
3, 34320, Pitch_bend_c, 3, 8832
3, 34320, Pitch_bend_c, 3, 8832
3, 34440, Pitch_bend_c, 3, 9216
3, 34440, Pitch_bend_c, 3, 9216
3, 34440, Pitch_bend_c, 3, 9216
3, 34560, Pitch_bend_c, 3, 9600
3, 34560, Pitch_bend_c, 3, 8192
3, 34560, Note_off_c, 3, 53, 95
3, 34560, Pitch_bend_c, 3, 9600
3, 34560, Pitch_bend_c, 3, 8192
3, 34560, Note_off_c, 3, 48, 95
3, 34560, Pitch_bend_c, 3, 9600
3, 34560, Pitch_bend_c, 3, 8192
3, 34560, Note_off_c, 3, 41, 95
3, 34560, Note_on_c, 2, 55, 95
3, 34560, Note_on_c, 2, 50, 95
3, 34560, Note_on_c, 2, 43, 95
3, 35520, Note_off_c, 2, 55, 95
3, 35520, Note_off_c, 2, 50, 95
3, 35520, Note_off_c, 2, 43, 95
3, 35520, Note_on_c, 2, 55, 95
3, 35520, Note_on_c, 2, 50, 95
3, 35520, Note_on_c, 2, 43, 95
3, 36480, Note_off_c, 2, 55, 95
3, 36480, Note_off_c, 2, 50, 95
3, 36480, Note_off_c, 2, 43, 95
3, 36480, Note_on_c, 2, 55, 95
3, 36480, Note_on_c, 2, 50, 95
3, 36480, Note_on_c, 2, 43, 95
3, 37440, Note_off_c, 2, 55, 95
3, 37440, Note_off_c, 2, 50, 95
3, 37440, Note_off_c, 2, 43, 95
3, 37440, Note_on_c, 2, 55, 95
3, 37440, Note_on_c, 2, 50, 95
3, 37440, Note_on_c, 2, 43, 95
3, 38400, Note_off_c, 2, 55, 95
3, 38400, Note_off_c, 2, 50, 95
3, 38400, Note_off_c, 2, 43, 95
3, 38400, Note_on_c, 2, 62, 95
3, 38400, Note_on_c, 2, 57, 95
3, 38400, Note_on_c, 2, 50, 95
3, 39360, Note_off_c, 2, 62, 95
3, 39360, Note_off_c, 2, 57, 95
3, 39360, Note_off_c, 2, 50, 95
3, 39360, Note_on_c, 2, 62, 111
3, 39360, Note_on_c, 2, 57, 111
3, 39360, Note_on_c, 2, 50, 111
3, 42240, Note_off_c, 2, 62, 111
3, 42240, Note_off_c, 2, 57, 111
3, 42240, Note_off_c, 2, 50, 111
3, 42240, Note_on_c, 2, 62, 95
3, 42240, Note_on_c, 2, 57, 95
3, 42240, Note_on_c, 2, 50, 95
3, 42480, Note_off_c, 2, 62, 95
3, 42480, Note_off_c, 2, 57, 95
3, 42480, Note_off_c, 2, 50, 95
3, 43200, Note_on_c, 2, 62, 95
3, 43200, Note_on_c, 2, 57, 95
3, 43200, Note_on_c, 2, 50, 95
3, 46080, Note_off_c, 2, 62, 95
3, 46080, Note_off_c, 2, 57, 95
3, 46080, Note_off_c, 2, 50, 95
3, 46080, Note_on_c, 2, 53, 95
3, 46080, Note_on_c, 2, 48, 95
3, 46080, Note_on_c, 2, 41, 95
3, 47040, Note_off_c, 2, 53, 95
3, 47040, Note_off_c, 2, 48, 95
3, 47040, Note_off_c, 2, 41, 95
3, 47040, Note_on_c, 2, 53, 95
3, 47040, Note_on_c, 2, 48, 95
3, 47040, Note_on_c, 2, 41, 95
3, 48000, Note_off_c, 2, 53, 95
3, 48000, Note_off_c, 2, 48, 95
3, 48000, Note_off_c, 2, 41, 95
3, 48000, Note_on_c, 2, 53, 95
3, 48000, Note_on_c, 2, 48, 95
3, 48000, Note_on_c, 2, 41, 95
3, 48960, Note_off_c, 2, 53, 95
3, 48960, Note_off_c, 2, 48, 95
3, 48960, Note_off_c, 2, 41, 95
3, 48960, Note_on_c, 2, 53, 95
3, 48960, Note_on_c, 2, 48, 95
3, 48960, Note_on_c, 2, 41, 95
3, 49440, Note_off_c, 2, 53, 95
3, 49440, Note_off_c, 2, 48, 95
3, 49440, Note_off_c, 2, 41, 95
3, 49440, Note_on_c, 3, 53, 95
3, 49440, Note_on_c, 3, 48, 95
3, 49440, Note_on_c, 3, 41, 95
3, 49560, Pitch_bend_c, 3, 8448
3, 49560, Pitch_bend_c, 3, 8448
3, 49560, Pitch_bend_c, 3, 8448
3, 49680, Pitch_bend_c, 3, 8832
3, 49680, Pitch_bend_c, 3, 8832
3, 49680, Pitch_bend_c, 3, 8832
3, 49800, Pitch_bend_c, 3, 9216
3, 49800, Pitch_bend_c, 3, 9216
3, 49800, Pitch_bend_c, 3, 9216
3, 49920, Pitch_bend_c, 3, 9600
3, 49920, Pitch_bend_c, 3, 8192
3, 49920, Note_off_c, 3, 53, 95
3, 49920, Pitch_bend_c, 3, 9600
3, 49920, Pitch_bend_c, 3, 8192
3, 49920, Note_off_c, 3, 48, 95
3, 49920, Pitch_bend_c, 3, 9600
3, 49920, Pitch_bend_c, 3, 8192
3, 49920, Note_off_c, 3, 41, 95
3, 49920, Note_on_c, 2, 55, 95
3, 49920, Note_on_c, 2, 50, 95
3, 49920, Note_on_c, 2, 43, 95
3, 50880, Note_off_c, 2, 55, 95
3, 50880, Note_off_c, 2, 50, 95
3, 50880, Note_off_c, 2, 43, 95
3, 50880, Note_on_c, 2, 55, 95
3, 50880, Note_on_c, 2, 50, 95
3, 50880, Note_on_c, 2, 43, 95
3, 51840, Note_off_c, 2, 55, 95
3, 51840, Note_off_c, 2, 50, 95
3, 51840, Note_off_c, 2, 43, 95
3, 51840, Note_on_c, 2, 55, 95
3, 51840, Note_on_c, 2, 50, 95
3, 51840, Note_on_c, 2, 43, 95
3, 52800, Note_off_c, 2, 55, 95
3, 52800, Note_off_c, 2, 50, 95
3, 52800, Note_off_c, 2, 43, 95
3, 52800, Note_on_c, 2, 55, 95
3, 52800, Note_on_c, 2, 50, 95
3, 52800, Note_on_c, 2, 43, 95
3, 53280, Note_off_c, 2, 55, 95
3, 53280, Note_off_c, 2, 50, 95
3, 53280, Note_off_c, 2, 43, 95
3, 53280, Note_on_c, 3, 55, 95
3, 53280, Note_on_c, 3, 50, 95
3, 53280, Note_on_c, 3, 43, 95
3, 53400, Pitch_bend_c, 3, 8448
3, 53400, Pitch_bend_c, 3, 8448
3, 53400, Pitch_bend_c, 3, 8448
3, 53520, Pitch_bend_c, 3, 8832
3, 53520, Pitch_bend_c, 3, 8832
3, 53520, Pitch_bend_c, 3, 8832
3, 53640, Pitch_bend_c, 3, 9216
3, 53640, Pitch_bend_c, 3, 9216
3, 53640, Pitch_bend_c, 3, 9216
3, 53760, Pitch_bend_c, 3, 9600
3, 53760, Pitch_bend_c, 3, 8192
3, 53760, Note_off_c, 3, 55, 95
3, 53760, Pitch_bend_c, 3, 9600
3, 53760, Pitch_bend_c, 3, 8192
3, 53760, Note_off_c, 3, 50, 95
3, 53760, Pitch_bend_c, 3, 9600
3, 53760, Pitch_bend_c, 3, 8192
3, 53760, Note_off_c, 3, 43, 95
3, 53760, Note_on_c, 2, 57, 95
3, 53760, Note_on_c, 2, 52, 95
3, 53760, Note_on_c, 2, 45, 95
3, 54720, Note_off_c, 2, 57, 95
3, 54720, Note_off_c, 2, 52, 95
3, 54720, Note_off_c, 2, 45, 95
3, 54720, Note_on_c, 2, 57, 95
3, 54720, Note_on_c, 2, 52, 95
3, 54720, Note_on_c, 2, 45, 95
3, 57600, Note_off_c, 2, 57, 95
3, 57600, Note_off_c, 2, 52, 95
3, 57600, Note_off_c, 2, 45, 95
3, 57600, Note_on_c, 2, 57, 95
3, 57600, Note_on_c, 2, 52, 95
3, 57600, Note_on_c, 2, 45, 95
3, 58560, Note_off_c, 2, 57, 95
3, 58560, Note_off_c, 2, 52, 95
3, 58560, Note_off_c, 2, 45, 95
3, 58560, Note_on_c, 2, 57, 95
3, 58560, Note_on_c, 2, 52, 95
3, 58560, Note_on_c, 2, 45, 95
3, 61440, Note_off_c, 2, 57, 95
3, 61440, Note_off_c, 2, 52, 95
3, 61440, Note_off_c, 2, 45, 95
3, 107520, Note_on_c, 2, 53, 95
3, 107520, Note_on_c, 2, 48, 95
3, 107520, Note_on_c, 2, 41, 95
3, 108480, Note_off_c, 2, 53, 95
3, 108480, Note_off_c, 2, 48, 95
3, 108480, Note_off_c, 2, 41, 95
3, 108480, Note_on_c, 2, 53, 95
3, 108480, Note_on_c, 2, 48, 95
3, 108480, Note_on_c, 2, 41, 95
3, 109440, Note_off_c, 2, 53, 95
3, 109440, Note_off_c, 2, 48, 95
3, 109440, Note_off_c, 2, 41, 95
3, 109440, Note_on_c, 2, 53, 95
3, 109440, Note_on_c, 2, 48, 95
3, 109440, Note_on_c, 2, 41, 95
3, 110400, Note_off_c, 2, 53, 95
3, 110400, Note_off_c, 2, 48, 95
3, 110400, Note_off_c, 2, 41, 95
3, 110400, Note_on_c, 2, 53, 95
3, 110400, Note_on_c, 2, 48, 95
3, 110400, Note_on_c, 2, 41, 95
3, 110880, Note_off_c, 2, 53, 95
3, 110880, Note_off_c, 2, 48, 95
3, 110880, Note_off_c, 2, 41, 95
3, 110880, Note_on_c, 3, 53, 95
3, 110880, Note_on_c, 3, 48, 95
3, 110880, Note_on_c, 3, 41, 95
3, 111000, Pitch_bend_c, 3, 8448
3, 111000, Pitch_bend_c, 3, 8448
3, 111000, Pitch_bend_c, 3, 8448
3, 111120, Pitch_bend_c, 3, 8832
3, 111120, Pitch_bend_c, 3, 8832
3, 111120, Pitch_bend_c, 3, 8832
3, 111240, Pitch_bend_c, 3, 9216
3, 111240, Pitch_bend_c, 3, 9216
3, 111240, Pitch_bend_c, 3, 9216
3, 111360, Pitch_bend_c, 3, 9600
3, 111360, Pitch_bend_c, 3, 8192
3, 111360, Note_off_c, 3, 53, 95
3, 111360, Pitch_bend_c, 3, 9600
3, 111360, Pitch_bend_c, 3, 8192
3, 111360, Note_off_c, 3, 48, 95
3, 111360, Pitch_bend_c, 3, 9600
3, 111360, Pitch_bend_c, 3, 8192
3, 111360, Note_off_c, 3, 41, 95
3, 111360, Note_on_c, 2, 55, 95
3, 111360, Note_on_c, 2, 50, 95
3, 111360, Note_on_c, 2, 43, 95
3, 112320, Note_off_c, 2, 55, 95
3, 112320, Note_off_c, 2, 50, 95
3, 112320, Note_off_c, 2, 43, 95
3, 112320, Note_on_c, 2, 55, 95
3, 112320, Note_on_c, 2, 50, 95
3, 112320, Note_on_c, 2, 43, 95
3, 113280, Note_off_c, 2, 55, 95
3, 113280, Note_off_c, 2, 50, 95
3, 113280, Note_off_c, 2, 43, 95
3, 113280, Note_on_c, 2, 55, 95
3, 113280, Note_on_c, 2, 50, 95
3, 113280, Note_on_c, 2, 43, 95
3, 114240, Note_off_c, 2, 55, 95
3, 114240, Note_off_c, 2, 50, 95
3, 114240, Note_off_c, 2, 43, 95
3, 114240, Note_on_c, 2, 55, 95
3, 114240, Note_on_c, 2, 50, 95
3, 114240, Note_on_c, 2, 43, 95
3, 115200, Note_off_c, 2, 55, 95
3, 115200, Note_off_c, 2, 50, 95
3, 115200, Note_off_c, 2, 43, 95
3, 115200, Note_on_c, 2, 62, 95
3, 115200, Note_on_c, 2, 57, 95
3, 115200, Note_on_c, 2, 50, 95
3, 116160, Note_off_c, 2, 62, 95
3, 116160, Note_off_c, 2, 57, 95
3, 116160, Note_off_c, 2, 50, 95
3, 116160, Note_on_c, 2, 62, 111
3, 116160, Note_on_c, 2, 57, 111
3, 116160, Note_on_c, 2, 50, 111
3, 119040, Note_off_c, 2, 62, 111
3, 119040, Note_off_c, 2, 57, 111
3, 119040, Note_off_c, 2, 50, 111
3, 119040, Note_on_c, 2, 62, 95
3, 119040, Note_on_c, 2, 57, 95
3, 119040, Note_on_c, 2, 50, 95
3, 119280, Note_off_c, 2, 62, 95
3, 119280, Note_off_c, 2, 57, 95
3, 119280, Note_off_c, 2, 50, 95
3, 120000, Note_on_c, 2, 62, 95
3, 120000, Note_on_c, 2, 57, 95
3, 120000, Note_on_c, 2, 50, 95
3, 122880, Note_off_c, 2, 62, 95
3, 122880, Note_off_c, 2, 57, 95
3, 122880, Note_off_c, 2, 50, 95
3, 122880, Note_on_c, 2, 53, 95
3, 122880, Note_on_c, 2, 48, 95
3, 122880, Note_on_c, 2, 41, 95
3, 123840, Note_off_c, 2, 53, 95
3, 123840, Note_off_c, 2, 48, 95
3, 123840, Note_off_c, 2, 41, 95
3, 123840, Note_on_c, 2, 53, 95
3, 123840, Note_on_c, 2, 48, 95
3, 123840, Note_on_c, 2, 41, 95
3, 124800, Note_off_c, 2, 53, 95
3, 124800, Note_off_c, 2, 48, 95
3, 124800, Note_off_c, 2, 41, 95
3, 124800, Note_on_c, 2, 53, 95
3, 124800, Note_on_c, 2, 48, 95
3, 124800, Note_on_c, 2, 41, 95
3, 125760, Note_off_c, 2, 53, 95
3, 125760, Note_off_c, 2, 48, 95
3, 125760, Note_off_c, 2, 41, 95
3, 125760, Note_on_c, 2, 53, 95
3, 125760, Note_on_c, 2, 48, 95
3, 125760, Note_on_c, 2, 41, 95
3, 126240, Note_off_c, 2, 53, 95
3, 126240, Note_off_c, 2, 48, 95
3, 126240, Note_off_c, 2, 41, 95
3, 126240, Note_on_c, 3, 53, 95
3, 126240, Note_on_c, 3, 48, 95
3, 126240, Note_on_c, 3, 41, 95
3, 126360, Pitch_bend_c, 3, 8448
3, 126360, Pitch_bend_c, 3, 8448
3, 126360, Pitch_bend_c, 3, 8448
3, 126480, Pitch_bend_c, 3, 8832
3, 126480, Pitch_bend_c, 3, 8832
3, 126480, Pitch_bend_c, 3, 8832
3, 126600, Pitch_bend_c, 3, 9216
3, 126600, Pitch_bend_c, 3, 9216
3, 126600, Pitch_bend_c, 3, 9216
3, 126720, Pitch_bend_c, 3, 9600
3, 126720, Pitch_bend_c, 3, 8192
3, 126720, Note_off_c, 3, 53, 95
3, 126720, Pitch_bend_c, 3, 9600
3, 126720, Pitch_bend_c, 3, 8192
3, 126720, Note_off_c, 3, 48, 95
3, 126720, Pitch_bend_c, 3, 9600
3, 126720, Pitch_bend_c, 3, 8192
3, 126720, Note_off_c, 3, 41, 95
3, 126720, Note_on_c, 2, 55, 95
3, 126720, Note_on_c, 2, 50, 95
3, 126720, Note_on_c, 2, 43, 95
3, 127680, Note_off_c, 2, 55, 95
3, 127680, Note_off_c, 2, 50, 95
3, 127680, Note_off_c, 2, 43, 95
3, 127680, Note_on_c, 2, 55, 95
3, 127680, Note_on_c, 2, 50, 95
3, 127680, Note_on_c, 2, 43, 95
3, 128640, Note_off_c, 2, 55, 95
3, 128640, Note_off_c, 2, 50, 95
3, 128640, Note_off_c, 2, 43, 95
3, 128640, Note_on_c, 2, 55, 95
3, 128640, Note_on_c, 2, 50, 95
3, 128640, Note_on_c, 2, 43, 95
3, 129600, Note_off_c, 2, 55, 95
3, 129600, Note_off_c, 2, 50, 95
3, 129600, Note_off_c, 2, 43, 95
3, 129600, Note_on_c, 2, 55, 95
3, 129600, Note_on_c, 2, 50, 95
3, 129600, Note_on_c, 2, 43, 95
3, 130080, Note_off_c, 2, 55, 95
3, 130080, Note_off_c, 2, 50, 95
3, 130080, Note_off_c, 2, 43, 95
3, 130080, Note_on_c, 3, 55, 95
3, 130080, Note_on_c, 3, 50, 95
3, 130080, Note_on_c, 3, 43, 95
3, 130200, Pitch_bend_c, 3, 8448
3, 130200, Pitch_bend_c, 3, 8448
3, 130200, Pitch_bend_c, 3, 8448
3, 130320, Pitch_bend_c, 3, 8832
3, 130320, Pitch_bend_c, 3, 8832
3, 130320, Pitch_bend_c, 3, 8832
3, 130440, Pitch_bend_c, 3, 9216
3, 130440, Pitch_bend_c, 3, 9216
3, 130440, Pitch_bend_c, 3, 9216
3, 130560, Pitch_bend_c, 3, 9600
3, 130560, Pitch_bend_c, 3, 8192
3, 130560, Note_off_c, 3, 55, 95
3, 130560, Pitch_bend_c, 3, 9600
3, 130560, Pitch_bend_c, 3, 8192
3, 130560, Note_off_c, 3, 50, 95
3, 130560, Pitch_bend_c, 3, 9600
3, 130560, Pitch_bend_c, 3, 8192
3, 130560, Note_off_c, 3, 43, 95
3, 130560, Note_on_c, 2, 57, 95
3, 130560, Note_on_c, 2, 52, 95
3, 130560, Note_on_c, 2, 45, 95
3, 131520, Note_off_c, 2, 57, 95
3, 131520, Note_off_c, 2, 52, 95
3, 131520, Note_off_c, 2, 45, 95
3, 131520, Note_on_c, 2, 57, 95
3, 131520, Note_on_c, 2, 52, 95
3, 131520, Note_on_c, 2, 45, 95
3, 134400, Note_off_c, 2, 57, 95
3, 134400, Note_off_c, 2, 52, 95
3, 134400, Note_off_c, 2, 45, 95
3, 134400, Note_on_c, 2, 57, 95
3, 134400, Note_on_c, 2, 52, 95
3, 134400, Note_on_c, 2, 45, 95
3, 135360, Note_off_c, 2, 57, 95
3, 135360, Note_off_c, 2, 52, 95
3, 135360, Note_off_c, 2, 45, 95
3, 135360, Note_on_c, 2, 57, 95
3, 135360, Note_on_c, 2, 52, 95
3, 135360, Note_on_c, 2, 45, 95
3, 136320, Note_off_c, 2, 57, 95
3, 136320, Note_off_c, 2, 52, 95
3, 136320, Note_off_c, 2, 45, 95
3, 136320, Note_on_c, 2, 57, 95
3, 136320, Note_on_c, 2, 52, 95
3, 136320, Note_on_c, 2, 45, 95
3, 137280, Note_off_c, 2, 57, 95
3, 137280, Note_off_c, 2, 52, 95
3, 137280, Note_off_c, 2, 45, 95
3, 137280, Note_on_c, 2, 57, 95
3, 137280, Note_on_c, 2, 52, 95
3, 137280, Note_on_c, 2, 45, 95
3, 138240, Note_off_c, 2, 57, 95
3, 138240, Note_off_c, 2, 52, 95
3, 138240, Note_off_c, 2, 45, 95
3, 138240, Note_on_c, 2, 62, 95
3, 138240, Note_on_c, 2, 57, 95
3, 138240, Note_on_c, 2, 50, 95
3, 139200, Note_off_c, 2, 62, 95
3, 139200, Note_off_c, 2, 57, 95
3, 139200, Note_off_c, 2, 50, 95
3, 139200, Note_on_c, 2, 62, 95
3, 139200, Note_on_c, 2, 57, 95
3, 139200, Note_on_c, 2, 50, 95
3, 140160, Note_off_c, 2, 62, 95
3, 140160, Note_off_c, 2, 57, 95
3, 140160, Note_off_c, 2, 50, 95
3, 140160, Note_on_c, 2, 62, 95
3, 140160, Note_on_c, 2, 57, 95
3, 140160, Note_on_c, 2, 50, 95
3, 141120, Note_off_c, 2, 62, 95
3, 141120, Note_off_c, 2, 57, 95
3, 141120, Note_off_c, 2, 50, 95
3, 141120, Note_on_c, 2, 62, 95
3, 141120, Note_on_c, 2, 57, 95
3, 141120, Note_on_c, 2, 50, 95
3, 141600, Note_off_c, 2, 62, 95
3, 141600, Note_off_c, 2, 57, 95
3, 141600, Note_off_c, 2, 50, 95
3, 141600, Note_on_c, 3, 62, 95
3, 141600, Note_on_c, 3, 57, 95
3, 141600, Note_on_c, 3, 50, 95
3, 141720, Pitch_bend_c, 3, 7936
3, 141720, Pitch_bend_c, 3, 7936
3, 141720, Pitch_bend_c, 3, 7936
3, 141840, Pitch_bend_c, 3, 7552
3, 141840, Pitch_bend_c, 3, 7552
3, 141840, Pitch_bend_c, 3, 7552
3, 141960, Pitch_bend_c, 3, 7168
3, 141960, Pitch_bend_c, 3, 7168
3, 141960, Pitch_bend_c, 3, 7168
3, 142080, Pitch_bend_c, 3, 6784
3, 142080, Pitch_bend_c, 3, 8192
3, 142080, Note_off_c, 3, 62, 95
3, 142080, Pitch_bend_c, 3, 6784
3, 142080, Pitch_bend_c, 3, 8192
3, 142080, Note_off_c, 3, 57, 95
3, 142080, Pitch_bend_c, 3, 6784
3, 142080, Pitch_bend_c, 3, 8192
3, 142080, Note_off_c, 3, 50, 95
3, 142080, Note_on_c, 2, 60, 95
3, 142080, Note_on_c, 2, 55, 95
3, 142080, Note_on_c, 2, 48, 95
3, 143040, Note_off_c, 2, 60, 95
3, 143040, Note_off_c, 2, 55, 95
3, 143040, Note_off_c, 2, 48, 95
3, 143040, Note_on_c, 2, 60, 95
3, 143040, Note_on_c, 2, 55, 95
3, 143040, Note_on_c, 2, 48, 95
3, 144000, Note_off_c, 2, 60, 95
3, 144000, Note_off_c, 2, 55, 95
3, 144000, Note_off_c, 2, 48, 95
3, 144000, Note_on_c, 2, 55, 95
3, 144000, Note_on_c, 2, 50, 95
3, 144000, Note_on_c, 2, 43, 95
3, 144960, Note_off_c, 2, 55, 95
3, 144960, Note_off_c, 2, 50, 95
3, 144960, Note_off_c, 2, 43, 95
3, 144960, Note_on_c, 3, 55, 95
3, 144960, Note_on_c, 3, 50, 95
3, 144960, Note_on_c, 3, 43, 95
3, 145080, Pitch_bend_c, 3, 7552
3, 145080, Pitch_bend_c, 3, 7552
3, 145080, Pitch_bend_c, 3, 7552
3, 145200, Pitch_bend_c, 3, 6784
3, 145200, Pitch_bend_c, 3, 8192
3, 145200, Note_off_c, 3, 55, 95
3, 145200, Pitch_bend_c, 3, 6784
3, 145200, Pitch_bend_c, 3, 8192
3, 145200, Note_off_c, 3, 50, 95
3, 145200, Pitch_bend_c, 3, 6784
3, 145200, Pitch_bend_c, 3, 8192
3, 145200, Note_off_c, 3, 43, 95
3, 145200, Note_on_c, 2, 53, 95
3, 145200, Note_on_c, 2, 48, 95
3, 145200, Note_on_c, 2, 41, 95
3, 145920, Note_off_c, 2, 53, 95
3, 145920, Note_off_c, 2, 48, 95
3, 145920, Note_off_c, 2, 41, 95
3, 145920, Note_on_c, 2, 62, 95
3, 145920, Note_on_c, 2, 57, 95
3, 145920, Note_on_c, 2, 50, 95
3, 146880, Note_off_c, 2, 62, 95
3, 146880, Note_off_c, 2, 57, 95
3, 146880, Note_off_c, 2, 50, 95
3, 146880, Note_on_c, 2, 62, 95
3, 146880, Note_on_c, 2, 57, 95
3, 146880, Note_on_c, 2, 50, 95
3, 147840, Note_off_c, 2, 62, 95
3, 147840, Note_off_c, 2, 57, 95
3, 147840, Note_off_c, 2, 50, 95
3, 147840, Note_on_c, 2, 62, 95
3, 147840, Note_on_c, 2, 57, 95
3, 147840, Note_on_c, 2, 50, 95
3, 148800, Note_off_c, 2, 62, 95
3, 148800, Note_off_c, 2, 57, 95
3, 148800, Note_off_c, 2, 50, 95
3, 148800, Note_on_c, 2, 62, 95
3, 148800, Note_on_c, 2, 57, 95
3, 148800, Note_on_c, 2, 50, 95
3, 149280, Note_off_c, 2, 62, 95
3, 149280, Note_off_c, 2, 57, 95
3, 149280, Note_off_c, 2, 50, 95
3, 149280, Note_on_c, 3, 62, 95
3, 149280, Note_on_c, 3, 57, 95
3, 149280, Note_on_c, 3, 50, 95
3, 149400, Pitch_bend_c, 3, 7936
3, 149400, Pitch_bend_c, 3, 7936
3, 149400, Pitch_bend_c, 3, 7936
3, 149520, Pitch_bend_c, 3, 7552
3, 149520, Pitch_bend_c, 3, 7552
3, 149520, Pitch_bend_c, 3, 7552
3, 149640, Pitch_bend_c, 3, 7168
3, 149640, Pitch_bend_c, 3, 7168
3, 149640, Pitch_bend_c, 3, 7168
3, 149760, Pitch_bend_c, 3, 6784
3, 149760, Pitch_bend_c, 3, 8192
3, 149760, Note_off_c, 3, 62, 95
3, 149760, Pitch_bend_c, 3, 6784
3, 149760, Pitch_bend_c, 3, 8192
3, 149760, Note_off_c, 3, 57, 95
3, 149760, Pitch_bend_c, 3, 6784
3, 149760, Pitch_bend_c, 3, 8192
3, 149760, Note_off_c, 3, 50, 95
3, 149760, Note_on_c, 2, 60, 95
3, 149760, Note_on_c, 2, 55, 95
3, 149760, Note_on_c, 2, 48, 95
3, 150720, Note_off_c, 2, 60, 95
3, 150720, Note_off_c, 2, 55, 95
3, 150720, Note_off_c, 2, 48, 95
3, 150720, Note_on_c, 2, 60, 95
3, 150720, Note_on_c, 2, 55, 95
3, 150720, Note_on_c, 2, 48, 95
3, 151680, Note_off_c, 2, 60, 95
3, 151680, Note_off_c, 2, 55, 95
3, 151680, Note_off_c, 2, 48, 95
3, 151680, Note_on_c, 2, 55, 95
3, 151680, Note_on_c, 2, 50, 95
3, 151680, Note_on_c, 2, 43, 95
3, 152640, Note_off_c, 2, 55, 95
3, 152640, Note_off_c, 2, 50, 95
3, 152640, Note_off_c, 2, 43, 95
3, 152640, Note_on_c, 3, 55, 95
3, 152640, Note_on_c, 3, 50, 95
3, 152640, Note_on_c, 3, 43, 95
3, 152760, Pitch_bend_c, 3, 7552
3, 152760, Pitch_bend_c, 3, 7552
3, 152760, Pitch_bend_c, 3, 7552
3, 152880, Pitch_bend_c, 3, 6784
3, 152880, Pitch_bend_c, 3, 8192
3, 152880, Note_off_c, 3, 55, 95
3, 152880, Pitch_bend_c, 3, 6784
3, 152880, Pitch_bend_c, 3, 8192
3, 152880, Note_off_c, 3, 50, 95
3, 152880, Pitch_bend_c, 3, 6784
3, 152880, Pitch_bend_c, 3, 8192
3, 152880, Note_off_c, 3, 43, 95
3, 152880, Note_on_c, 2, 53, 95
3, 152880, Note_on_c, 2, 48, 95
3, 152880, Note_on_c, 2, 41, 95
3, 153600, Note_off_c, 2, 53, 95
3, 153600, Note_off_c, 2, 48, 95
3, 153600, Note_off_c, 2, 41, 95
3, 153600, Note_on_c, 2, 62, 95
3, 153600, Note_on_c, 2, 57, 95
3, 153600, Note_on_c, 2, 50, 95
3, 154560, Note_off_c, 2, 62, 95
3, 154560, Note_off_c, 2, 57, 95
3, 154560, Note_off_c, 2, 50, 95
3, 154560, Note_on_c, 2, 62, 95
3, 154560, Note_on_c, 2, 57, 95
3, 154560, Note_on_c, 2, 50, 95
3, 155520, Note_off_c, 2, 62, 95
3, 155520, Note_off_c, 2, 57, 95
3, 155520, Note_off_c, 2, 50, 95
3, 155520, Note_on_c, 2, 62, 95
3, 155520, Note_on_c, 2, 57, 95
3, 155520, Note_on_c, 2, 50, 95
3, 156480, Note_off_c, 2, 62, 95
3, 156480, Note_off_c, 2, 57, 95
3, 156480, Note_off_c, 2, 50, 95
3, 156480, Note_on_c, 2, 62, 95
3, 156480, Note_on_c, 2, 57, 95
3, 156480, Note_on_c, 2, 50, 95
3, 156960, Note_off_c, 2, 62, 95
3, 156960, Note_off_c, 2, 57, 95
3, 156960, Note_off_c, 2, 50, 95
3, 156960, Note_on_c, 3, 62, 95
3, 156960, Note_on_c, 3, 57, 95
3, 156960, Note_on_c, 3, 50, 95
3, 157080, Pitch_bend_c, 3, 7936
3, 157080, Pitch_bend_c, 3, 7936
3, 157080, Pitch_bend_c, 3, 7936
3, 157200, Pitch_bend_c, 3, 7552
3, 157200, Pitch_bend_c, 3, 7552
3, 157200, Pitch_bend_c, 3, 7552
3, 157320, Pitch_bend_c, 3, 7168
3, 157320, Pitch_bend_c, 3, 7168
3, 157320, Pitch_bend_c, 3, 7168
3, 157440, Pitch_bend_c, 3, 6784
3, 157440, Pitch_bend_c, 3, 8192
3, 157440, Note_off_c, 3, 62, 95
3, 157440, Pitch_bend_c, 3, 6784
3, 157440, Pitch_bend_c, 3, 8192
3, 157440, Note_off_c, 3, 57, 95
3, 157440, Pitch_bend_c, 3, 6784
3, 157440, Pitch_bend_c, 3, 8192
3, 157440, Note_off_c, 3, 50, 95
3, 157440, Note_on_c, 2, 60, 95
3, 157440, Note_on_c, 2, 55, 95
3, 157440, Note_on_c, 2, 48, 95
3, 158400, Note_off_c, 2, 60, 95
3, 158400, Note_off_c, 2, 55, 95
3, 158400, Note_off_c, 2, 48, 95
3, 158400, Note_on_c, 2, 60, 95
3, 158400, Note_on_c, 2, 55, 95
3, 158400, Note_on_c, 2, 48, 95
3, 159360, Note_off_c, 2, 60, 95
3, 159360, Note_off_c, 2, 55, 95
3, 159360, Note_off_c, 2, 48, 95
3, 159360, Note_on_c, 2, 55, 95
3, 159360, Note_on_c, 2, 50, 95
3, 159360, Note_on_c, 2, 43, 95
3, 160320, Note_off_c, 2, 55, 95
3, 160320, Note_off_c, 2, 50, 95
3, 160320, Note_off_c, 2, 43, 95
3, 160320, Note_on_c, 3, 55, 95
3, 160320, Note_on_c, 3, 50, 95
3, 160320, Note_on_c, 3, 43, 95
3, 160440, Pitch_bend_c, 3, 7552
3, 160440, Pitch_bend_c, 3, 7552
3, 160440, Pitch_bend_c, 3, 7552
3, 160560, Pitch_bend_c, 3, 6784
3, 160560, Pitch_bend_c, 3, 8192
3, 160560, Note_off_c, 3, 55, 95
3, 160560, Pitch_bend_c, 3, 6784
3, 160560, Pitch_bend_c, 3, 8192
3, 160560, Note_off_c, 3, 50, 95
3, 160560, Pitch_bend_c, 3, 6784
3, 160560, Pitch_bend_c, 3, 8192
3, 160560, Note_off_c, 3, 43, 95
3, 160560, Note_on_c, 2, 53, 95
3, 160560, Note_on_c, 2, 48, 95
3, 160560, Note_on_c, 2, 41, 95
3, 161280, Note_off_c, 2, 53, 95
3, 161280, Note_off_c, 2, 48, 95
3, 161280, Note_off_c, 2, 41, 95
3, 161280, Note_on_c, 2, 62, 95
3, 161280, Note_on_c, 2, 57, 95
3, 161280, Note_on_c, 2, 50, 95
3, 162240, Note_off_c, 2, 62, 95
3, 162240, Note_off_c, 2, 57, 95
3, 162240, Note_off_c, 2, 50, 95
3, 162240, Note_on_c, 2, 62, 95
3, 162240, Note_on_c, 2, 57, 95
3, 162240, Note_on_c, 2, 50, 95
3, 163200, Note_off_c, 2, 62, 95
3, 163200, Note_off_c, 2, 57, 95
3, 163200, Note_off_c, 2, 50, 95
3, 163200, Note_on_c, 2, 62, 95
3, 163200, Note_on_c, 2, 57, 95
3, 163200, Note_on_c, 2, 50, 95
3, 164160, Note_off_c, 2, 62, 95
3, 164160, Note_off_c, 2, 57, 95
3, 164160, Note_off_c, 2, 50, 95
3, 164160, Note_on_c, 2, 62, 95
3, 164160, Note_on_c, 2, 57, 95
3, 164160, Note_on_c, 2, 50, 95
3, 164640, Note_off_c, 2, 62, 95
3, 164640, Note_off_c, 2, 57, 95
3, 164640, Note_off_c, 2, 50, 95
3, 164640, Note_on_c, 3, 62, 95
3, 164640, Note_on_c, 3, 57, 95
3, 164640, Note_on_c, 3, 50, 95
3, 164760, Pitch_bend_c, 3, 7936
3, 164760, Pitch_bend_c, 3, 7936
3, 164760, Pitch_bend_c, 3, 7936
3, 164880, Pitch_bend_c, 3, 7552
3, 164880, Pitch_bend_c, 3, 7552
3, 164880, Pitch_bend_c, 3, 7552
3, 165000, Pitch_bend_c, 3, 7168
3, 165000, Pitch_bend_c, 3, 7168
3, 165000, Pitch_bend_c, 3, 7168
3, 165120, Pitch_bend_c, 3, 6784
3, 165120, Pitch_bend_c, 3, 8192
3, 165120, Note_off_c, 3, 62, 95
3, 165120, Pitch_bend_c, 3, 6784
3, 165120, Pitch_bend_c, 3, 8192
3, 165120, Note_off_c, 3, 57, 95
3, 165120, Pitch_bend_c, 3, 6784
3, 165120, Pitch_bend_c, 3, 8192
3, 165120, Note_off_c, 3, 50, 95
3, 165120, Note_on_c, 2, 60, 95
3, 165120, Note_on_c, 2, 55, 95
3, 165120, Note_on_c, 2, 48, 95
3, 166080, Note_off_c, 2, 60, 95
3, 166080, Note_off_c, 2, 55, 95
3, 166080, Note_off_c, 2, 48, 95
3, 166080, Note_on_c, 2, 60, 95
3, 166080, Note_on_c, 2, 55, 95
3, 166080, Note_on_c, 2, 48, 95
3, 167040, Note_off_c, 2, 60, 95
3, 167040, Note_off_c, 2, 55, 95
3, 167040, Note_off_c, 2, 48, 95
3, 167040, Note_on_c, 2, 55, 95
3, 167040, Note_on_c, 2, 50, 95
3, 167040, Note_on_c, 2, 43, 95
3, 168000, Note_off_c, 2, 55, 95
3, 168000, Note_off_c, 2, 50, 95
3, 168000, Note_off_c, 2, 43, 95
3, 168000, Note_on_c, 2, 55, 95
3, 168000, Note_on_c, 2, 50, 95
3, 168000, Note_on_c, 2, 43, 95
3, 168480, Note_off_c, 2, 55, 95
3, 168480, Note_off_c, 2, 50, 95
3, 168480, Note_off_c, 2, 43, 95
3, 168480, Note_on_c, 3, 55, 95
3, 168480, Note_on_c, 3, 50, 95
3, 168480, Note_on_c, 3, 43, 95
3, 168600, Pitch_bend_c, 3, 7936
3, 168600, Pitch_bend_c, 3, 7936
3, 168600, Pitch_bend_c, 3, 7936
3, 168720, Pitch_bend_c, 3, 7552
3, 168720, Pitch_bend_c, 3, 7552
3, 168720, Pitch_bend_c, 3, 7552
3, 168840, Pitch_bend_c, 3, 7168
3, 168840, Pitch_bend_c, 3, 7168
3, 168840, Pitch_bend_c, 3, 7168
3, 168960, Pitch_bend_c, 3, 6784
3, 168960, Pitch_bend_c, 3, 8192
3, 168960, Note_off_c, 3, 55, 95
3, 168960, Pitch_bend_c, 3, 6784
3, 168960, Pitch_bend_c, 3, 8192
3, 168960, Note_off_c, 3, 50, 95
3, 168960, Pitch_bend_c, 3, 6784
3, 168960, Pitch_bend_c, 3, 8192
3, 168960, Note_off_c, 3, 43, 95
3, 168960, Note_on_c, 2, 53, 95
3, 168960, Note_on_c, 2, 48, 95
3, 168960, Note_on_c, 2, 41, 95
3, 169920, Note_off_c, 2, 53, 95
3, 169920, Note_off_c, 2, 48, 95
3, 169920, Note_off_c, 2, 41, 95
3, 169920, Note_on_c, 2, 53, 95
3, 169920, Note_on_c, 2, 48, 95
3, 169920, Note_on_c, 2, 41, 95
3, 170880, Note_off_c, 2, 53, 95
3, 170880, Note_off_c, 2, 48, 95
3, 170880, Note_off_c, 2, 41, 95
3, 170880, Note_on_c, 2, 53, 95
3, 170880, Note_on_c, 2, 48, 95
3, 170880, Note_on_c, 2, 41, 95
3, 171840, Note_off_c, 2, 53, 95
3, 171840, Note_off_c, 2, 48, 95
3, 171840, Note_off_c, 2, 41, 95
3, 171840, Note_on_c, 2, 53, 95
3, 171840, Note_on_c, 2, 48, 95
3, 171840, Note_on_c, 2, 41, 95
3, 172320, Note_off_c, 2, 53, 95
3, 172320, Note_off_c, 2, 48, 95
3, 172320, Note_off_c, 2, 41, 95
3, 172320, Note_on_c, 3, 53, 95
3, 172320, Note_on_c, 3, 48, 95
3, 172320, Note_on_c, 3, 41, 95
3, 172440, Pitch_bend_c, 3, 8448
3, 172440, Pitch_bend_c, 3, 8448
3, 172440, Pitch_bend_c, 3, 8448
3, 172560, Pitch_bend_c, 3, 8832
3, 172560, Pitch_bend_c, 3, 8832
3, 172560, Pitch_bend_c, 3, 8832
3, 172680, Pitch_bend_c, 3, 9216
3, 172680, Pitch_bend_c, 3, 9216
3, 172680, Pitch_bend_c, 3, 9216
3, 172800, Pitch_bend_c, 3, 9600
3, 172800, Pitch_bend_c, 3, 8192
3, 172800, Note_off_c, 3, 53, 95
3, 172800, Pitch_bend_c, 3, 9600
3, 172800, Pitch_bend_c, 3, 8192
3, 172800, Note_off_c, 3, 48, 95
3, 172800, Pitch_bend_c, 3, 9600
3, 172800, Pitch_bend_c, 3, 8192
3, 172800, Note_off_c, 3, 41, 95
3, 172800, Note_on_c, 2, 55, 95
3, 172800, Note_on_c, 2, 50, 95
3, 172800, Note_on_c, 2, 43, 95
3, 173760, Note_off_c, 2, 55, 95
3, 173760, Note_off_c, 2, 50, 95
3, 173760, Note_off_c, 2, 43, 95
3, 173760, Note_on_c, 2, 55, 95
3, 173760, Note_on_c, 2, 50, 95
3, 173760, Note_on_c, 2, 43, 95
3, 174720, Note_off_c, 2, 55, 95
3, 174720, Note_off_c, 2, 50, 95
3, 174720, Note_off_c, 2, 43, 95
3, 174720, Note_on_c, 2, 55, 95
3, 174720, Note_on_c, 2, 50, 95
3, 174720, Note_on_c, 2, 43, 95
3, 175680, Note_off_c, 2, 55, 95
3, 175680, Note_off_c, 2, 50, 95
3, 175680, Note_off_c, 2, 43, 95
3, 175680, Note_on_c, 2, 55, 95
3, 175680, Note_on_c, 2, 50, 95
3, 175680, Note_on_c, 2, 43, 95
3, 176640, Note_off_c, 2, 55, 95
3, 176640, Note_off_c, 2, 50, 95
3, 176640, Note_off_c, 2, 43, 95
3, 176640, Note_on_c, 2, 62, 95
3, 176640, Note_on_c, 2, 57, 95
3, 176640, Note_on_c, 2, 50, 95
3, 177600, Note_off_c, 2, 62, 95
3, 177600, Note_off_c, 2, 57, 95
3, 177600, Note_off_c, 2, 50, 95
3, 177600, Note_on_c, 2, 62, 111
3, 177600, Note_on_c, 2, 57, 111
3, 177600, Note_on_c, 2, 50, 111
3, 180480, Note_off_c, 2, 62, 111
3, 180480, Note_off_c, 2, 57, 111
3, 180480, Note_off_c, 2, 50, 111
3, 180480, Note_on_c, 2, 62, 95
3, 180480, Note_on_c, 2, 57, 95
3, 180480, Note_on_c, 2, 50, 95
3, 180720, Note_off_c, 2, 62, 95
3, 180720, Note_off_c, 2, 57, 95
3, 180720, Note_off_c, 2, 50, 95
3, 181440, Note_on_c, 2, 62, 95
3, 181440, Note_on_c, 2, 57, 95
3, 181440, Note_on_c, 2, 50, 95
3, 184320, Note_off_c, 2, 62, 95
3, 184320, Note_off_c, 2, 57, 95
3, 184320, Note_off_c, 2, 50, 95
3, 184320, Note_on_c, 2, 53, 95
3, 184320, Note_on_c, 2, 48, 95
3, 184320, Note_on_c, 2, 41, 95
3, 185280, Note_off_c, 2, 53, 95
3, 185280, Note_off_c, 2, 48, 95
3, 185280, Note_off_c, 2, 41, 95
3, 185280, Note_on_c, 2, 53, 95
3, 185280, Note_on_c, 2, 48, 95
3, 185280, Note_on_c, 2, 41, 95
3, 186240, Note_off_c, 2, 53, 95
3, 186240, Note_off_c, 2, 48, 95
3, 186240, Note_off_c, 2, 41, 95
3, 186240, Note_on_c, 2, 53, 95
3, 186240, Note_on_c, 2, 48, 95
3, 186240, Note_on_c, 2, 41, 95
3, 187200, Note_off_c, 2, 53, 95
3, 187200, Note_off_c, 2, 48, 95
3, 187200, Note_off_c, 2, 41, 95
3, 187200, Note_on_c, 2, 53, 95
3, 187200, Note_on_c, 2, 48, 95
3, 187200, Note_on_c, 2, 41, 95
3, 187680, Note_off_c, 2, 53, 95
3, 187680, Note_off_c, 2, 48, 95
3, 187680, Note_off_c, 2, 41, 95
3, 187680, Note_on_c, 3, 53, 95
3, 187680, Note_on_c, 3, 48, 95
3, 187680, Note_on_c, 3, 41, 95
3, 187800, Pitch_bend_c, 3, 8448
3, 187800, Pitch_bend_c, 3, 8448
3, 187800, Pitch_bend_c, 3, 8448
3, 187920, Pitch_bend_c, 3, 8832
3, 187920, Pitch_bend_c, 3, 8832
3, 187920, Pitch_bend_c, 3, 8832
3, 188040, Pitch_bend_c, 3, 9216
3, 188040, Pitch_bend_c, 3, 9216
3, 188040, Pitch_bend_c, 3, 9216
3, 188160, Pitch_bend_c, 3, 9600
3, 188160, Pitch_bend_c, 3, 8192
3, 188160, Note_off_c, 3, 53, 95
3, 188160, Pitch_bend_c, 3, 9600
3, 188160, Pitch_bend_c, 3, 8192
3, 188160, Note_off_c, 3, 48, 95
3, 188160, Pitch_bend_c, 3, 9600
3, 188160, Pitch_bend_c, 3, 8192
3, 188160, Note_off_c, 3, 41, 95
3, 188160, Note_on_c, 2, 55, 95
3, 188160, Note_on_c, 2, 50, 95
3, 188160, Note_on_c, 2, 43, 95
3, 189120, Note_off_c, 2, 55, 95
3, 189120, Note_off_c, 2, 50, 95
3, 189120, Note_off_c, 2, 43, 95
3, 189120, Note_on_c, 2, 55, 95
3, 189120, Note_on_c, 2, 50, 95
3, 189120, Note_on_c, 2, 43, 95
3, 190080, Note_off_c, 2, 55, 95
3, 190080, Note_off_c, 2, 50, 95
3, 190080, Note_off_c, 2, 43, 95
3, 190080, Note_on_c, 2, 55, 95
3, 190080, Note_on_c, 2, 50, 95
3, 190080, Note_on_c, 2, 43, 95
3, 191040, Note_off_c, 2, 55, 95
3, 191040, Note_off_c, 2, 50, 95
3, 191040, Note_off_c, 2, 43, 95
3, 191040, Note_on_c, 2, 55, 95
3, 191040, Note_on_c, 2, 50, 95
3, 191040, Note_on_c, 2, 43, 95
3, 191520, Note_off_c, 2, 55, 95
3, 191520, Note_off_c, 2, 50, 95
3, 191520, Note_off_c, 2, 43, 95
3, 191520, Note_on_c, 3, 55, 95
3, 191520, Note_on_c, 3, 50, 95
3, 191520, Note_on_c, 3, 43, 95
3, 191640, Pitch_bend_c, 3, 8448
3, 191640, Pitch_bend_c, 3, 8448
3, 191640, Pitch_bend_c, 3, 8448
3, 191760, Pitch_bend_c, 3, 8832
3, 191760, Pitch_bend_c, 3, 8832
3, 191760, Pitch_bend_c, 3, 8832
3, 191880, Pitch_bend_c, 3, 9216
3, 191880, Pitch_bend_c, 3, 9216
3, 191880, Pitch_bend_c, 3, 9216
3, 192000, Pitch_bend_c, 3, 9600
3, 192000, Pitch_bend_c, 3, 8192
3, 192000, Note_off_c, 3, 55, 95
3, 192000, Pitch_bend_c, 3, 9600
3, 192000, Pitch_bend_c, 3, 8192
3, 192000, Note_off_c, 3, 50, 95
3, 192000, Pitch_bend_c, 3, 9600
3, 192000, Pitch_bend_c, 3, 8192
3, 192000, Note_off_c, 3, 43, 95
3, 192000, Note_on_c, 2, 57, 95
3, 192000, Note_on_c, 2, 52, 95
3, 192000, Note_on_c, 2, 45, 95
3, 192960, Note_off_c, 2, 57, 95
3, 192960, Note_off_c, 2, 52, 95
3, 192960, Note_off_c, 2, 45, 95
3, 192960, Note_on_c, 2, 57, 95
3, 192960, Note_on_c, 2, 52, 95
3, 192960, Note_on_c, 2, 45, 95
3, 195840, Note_off_c, 2, 57, 95
3, 195840, Note_off_c, 2, 52, 95
3, 195840, Note_off_c, 2, 45, 95
3, 195840, Note_on_c, 2, 57, 95
3, 195840, Note_on_c, 2, 52, 95
3, 195840, Note_on_c, 2, 45, 95
3, 196800, Note_off_c, 2, 57, 95
3, 196800, Note_off_c, 2, 52, 95
3, 196800, Note_off_c, 2, 45, 95
3, 196800, Note_on_c, 2, 57, 95
3, 196800, Note_on_c, 2, 52, 95
3, 196800, Note_on_c, 2, 45, 95
3, 199680, Note_off_c, 2, 57, 95
3, 199680, Note_off_c, 2, 52, 95
3, 199680, Note_off_c, 2, 45, 95
3, 199680, End_track
4, 0, Start_track
4, 0, Pitch_bend_c, 6, 8192
4, 0, Control_c, 6, 7, 127
4, 0, Control_c, 6, 10, 87
4, 0, Control_c, 6, 93, 0
4, 0, Control_c, 6, 91, 0
4, 0, Control_c, 6, 95, 0
4, 0, Control_c, 6, 92, 0
4, 0, Control_c, 6, 11, 127
4, 0, Program_c, 6, 30
4, 0, Control_c, 7, 7, 127
4, 0, Control_c, 7, 10, 87
4, 0, Control_c, 7, 93, 0
4, 0, Control_c, 7, 91, 0
4, 0, Control_c, 7, 95, 0
4, 0, Control_c, 7, 92, 0
4, 0, Control_c, 7, 11, 127
4, 0, Program_c, 7, 30
4, 134400, Note_on_c, 6, 57, 127
4, 136320, Note_off_c, 6, 57, 127
4, 136320, Note_on_c, 6, 57, 127
4, 137280, Note_off_c, 6, 57, 127
4, 137280, Note_on_c, 6, 57, 127
4, 138240, Note_off_c, 6, 57, 127
4, 138240, Note_on_c, 6, 62, 127
4, 138240, Note_on_c, 6, 57, 127
4, 139200, Note_off_c, 6, 62, 127
4, 139200, Note_off_c, 6, 57, 127
4, 139200, Note_on_c, 6, 66, 127
4, 139440, Note_off_c, 6, 66, 127
4, 139440, Note_on_c, 6, 62, 127
4, 139680, Note_off_c, 6, 62, 127
4, 139680, Note_on_c, 7, 57, 127
4, 139840, Pitch_bend_c, 7, 7936
4, 140000, Pitch_bend_c, 7, 7552
4, 140000, Pitch_bend_c, 7, 8192
4, 140000, Note_off_c, 7, 57, 127
4, 140000, Note_on_c, 7, 56, 127
4, 140160, Pitch_bend_c, 7, 8448
4, 140320, Pitch_bend_c, 7, 8832
4, 140320, Pitch_bend_c, 7, 8192
4, 140320, Note_off_c, 7, 56, 127
4, 140320, Note_on_c, 6, 57, 127
4, 140640, Note_off_c, 6, 57, 127
4, 140640, Note_on_c, 6, 66, 127
4, 141600, Note_off_c, 6, 66, 127
4, 141600, Note_on_c, 7, 69, 127
4, 141720, Pitch_bend_c, 7, 7936
4, 141840, Pitch_bend_c, 7, 7552
4, 141960, Pitch_bend_c, 7, 7168
4, 142080, Pitch_bend_c, 7, 6784
4, 142080, Pitch_bend_c, 7, 8192
4, 142080, Note_off_c, 7, 69, 127
4, 142080, Note_on_c, 6, 67, 127
4, 142080, Note_on_c, 6, 55, 127
4, 142560, Note_off_c, 6, 67, 127
4, 142560, Note_off_c, 6, 55, 127
4, 142560, Note_on_c, 6, 64, 127
4, 143040, Note_off_c, 6, 64, 127
4, 143040, Note_on_c, 7, 67, 127
4, 143160, Pitch_bend_c, 7, 8704
4, 143280, Pitch_bend_c, 7, 9344
4, 143400, Pitch_bend_c, 7, 9984
4, 143520, Pitch_bend_c, 7, 10624
4, 143640, Pitch_bend_c, 7, 11264
4, 143760, Pitch_bend_c, 7, 11776
4, 143880, Pitch_bend_c, 7, 12416
4, 144000, Pitch_bend_c, 7, 13056
4, 144000, Pitch_bend_c, 7, 8192
4, 144000, Note_off_c, 7, 67, 127
4, 144000, Note_on_c, 6, 74, 127
4, 144480, Note_off_c, 6, 74, 127
4, 144480, Note_on_c, 6, 71, 127
4, 144480, Note_on_c, 6, 67, 127
4, 144720, Note_off_c, 6, 71, 127
4, 144720, Note_off_c, 6, 67, 127
4, 144960, Note_on_c, 6, 71, 127
4, 144960, Note_on_c, 6, 67, 127
4, 145200, Note_off_c, 6, 71, 127
4, 145200, Note_off_c, 6, 67, 127
4, 145200, Note_on_c, 6, 69, 127
4, 145200, Note_on_c, 6, 65, 127
4, 145920, Note_off_c, 6, 69, 127
4, 145920, Note_off_c, 6, 65, 127
4, 145920, Note_on_c, 6, 62, 127
4, 146880, Note_off_c, 6, 62, 127
4, 146880, Note_on_c, 6, 69, 127
4, 147120, Note_off_c, 6, 69, 127
4, 147120, Note_on_c, 6, 66, 127
4, 147360, Note_off_c, 6, 66, 127
4, 147360, Note_on_c, 7, 62, 127
4, 147520, Pitch_bend_c, 7, 7936
4, 147680, Pitch_bend_c, 7, 7552
4, 147680, Pitch_bend_c, 7, 8192
4, 147680, Note_off_c, 7, 62, 127
4, 147680, Note_on_c, 7, 61, 127
4, 147840, Pitch_bend_c, 7, 8448
4, 148000, Pitch_bend_c, 7, 8832
4, 148000, Pitch_bend_c, 7, 8192
4, 148000, Note_off_c, 7, 61, 127
4, 148000, Note_on_c, 6, 62, 127
4, 148320, Note_off_c, 6, 62, 127
4, 148320, Note_on_c, 6, 66, 127
4, 149280, Note_off_c, 6, 66, 127
4, 149280, Note_on_c, 7, 62, 127
4, 149400, Pitch_bend_c, 7, 7936
4, 149520, Pitch_bend_c, 7, 7552
4, 149640, Pitch_bend_c, 7, 7168
4, 149760, Pitch_bend_c, 7, 6784
4, 149760, Pitch_bend_c, 7, 8192
4, 149760, Note_off_c, 7, 62, 127
4, 149760, Note_on_c, 6, 60, 127
4, 149760, Note_on_c, 6, 55, 127
4, 150240, Note_off_c, 6, 60, 127
4, 150240, Note_off_c, 6, 55, 127
4, 150240, Note_on_c, 6, 60, 127
4, 150720, Note_off_c, 6, 60, 127
4, 150720, Note_on_c, 6, 64, 127
4, 151680, Note_off_c, 6, 64, 127
4, 151680, Note_on_c, 7, 62, 127
4, 152160, Note_off_c, 7, 62, 127
4, 152160, Note_on_c, 6, 71, 127
4, 152160, Note_on_c, 6, 67, 127
4, 152400, Note_off_c, 6, 71, 127
4, 152400, Note_off_c, 6, 67, 127
4, 152640, Note_on_c, 6, 71, 127
4, 152640, Note_on_c, 6, 67, 127
4, 152880, Note_off_c, 6, 71, 127
4, 152880, Note_off_c, 6, 67, 127
4, 152880, Note_on_c, 6, 69, 127
4, 152880, Note_on_c, 6, 65, 127
4, 153600, Note_off_c, 6, 69, 127
4, 153600, Note_off_c, 6, 65, 127
4, 153600, Note_on_c, 6, 62, 127
4, 154560, Note_off_c, 6, 62, 127
4, 154560, Note_on_c, 6, 69, 127
4, 154800, Note_off_c, 6, 69, 127
4, 154800, Note_on_c, 6, 66, 127
4, 155040, Note_off_c, 6, 66, 127
4, 155040, Note_on_c, 7, 62, 127
4, 155200, Pitch_bend_c, 7, 7936
4, 155360, Pitch_bend_c, 7, 7552
4, 155360, Pitch_bend_c, 7, 8192
4, 155360, Note_off_c, 7, 62, 127
4, 155360, Note_on_c, 7, 61, 127
4, 155520, Pitch_bend_c, 7, 8448
4, 155680, Pitch_bend_c, 7, 8832
4, 155680, Pitch_bend_c, 7, 8192
4, 155680, Note_off_c, 7, 61, 127
4, 155680, Note_on_c, 6, 62, 127
4, 156000, Note_off_c, 6, 62, 127
4, 156000, Note_on_c, 6, 66, 127
4, 156960, Note_off_c, 6, 66, 127
4, 156960, Note_on_c, 7, 62, 127
4, 157080, Pitch_bend_c, 7, 7936
4, 157200, Pitch_bend_c, 7, 7552
4, 157320, Pitch_bend_c, 7, 7168
4, 157440, Pitch_bend_c, 7, 6784
4, 157440, Pitch_bend_c, 7, 8192
4, 157440, Note_off_c, 7, 62, 127
4, 157440, Note_on_c, 6, 60, 127
4, 157920, Note_off_c, 6, 60, 127
4, 157920, Note_on_c, 6, 64, 127
4, 158400, Note_off_c, 6, 64, 127
4, 158400, Note_on_c, 6, 67, 127
4, 158640, Note_off_c, 6, 67, 127
4, 158640, Note_on_c, 6, 64, 127
4, 158880, Note_off_c, 6, 64, 127
4, 158880, Note_on_c, 6, 60, 127
4, 159360, Note_off_c, 6, 60, 127
4, 159360, Note_on_c, 7, 71, 127
4, 159480, Pitch_bend_c, 7, 8192
4, 159600, Pitch_bend_c, 7, 8192
4, 159720, Pitch_bend_c, 7, 8192
4, 159840, Pitch_bend_c, 7, 8192
4, 159840, Pitch_bend_c, 7, 8192
4, 159840, Note_off_c, 7, 71, 127
4, 159840, Note_on_c, 6, 71, 127
4, 159840, Note_on_c, 6, 67, 127
4, 160080, Note_off_c, 6, 71, 127
4, 160080, Note_off_c, 6, 67, 127
4, 160320, Note_on_c, 6, 71, 127
4, 160320, Note_on_c, 6, 67, 127
4, 160560, Note_off_c, 6, 71, 127
4, 160560, Note_off_c, 6, 67, 127
4, 160560, Note_on_c, 6, 69, 127
4, 160560, Note_on_c, 6, 65, 127
4, 161280, Note_off_c, 6, 69, 127
4, 161280, Note_off_c, 6, 65, 127
4, 161280, Note_on_c, 6, 62, 127
4, 162240, Note_off_c, 6, 62, 127
4, 162240, Note_on_c, 6, 69, 127
4, 162480, Note_off_c, 6, 69, 127
4, 162480, Note_on_c, 6, 66, 127
4, 162720, Note_off_c, 6, 66, 127
4, 162720, Note_on_c, 7, 62, 127
4, 162880, Pitch_bend_c, 7, 7936
4, 163040, Pitch_bend_c, 7, 7552
4, 163040, Pitch_bend_c, 7, 8192
4, 163040, Note_off_c, 7, 62, 127
4, 163040, Note_on_c, 7, 61, 127
4, 163200, Pitch_bend_c, 7, 8448
4, 163360, Pitch_bend_c, 7, 8832
4, 163360, Pitch_bend_c, 7, 8192
4, 163360, Note_off_c, 7, 61, 127
4, 163360, Note_on_c, 6, 62, 127
4, 163680, Note_off_c, 6, 62, 127
4, 163680, Note_on_c, 6, 66, 127
4, 164640, Note_off_c, 6, 66, 127
4, 164640, Note_on_c, 7, 62, 127
4, 164760, Pitch_bend_c, 7, 7936
4, 164880, Pitch_bend_c, 7, 7552
4, 165000, Pitch_bend_c, 7, 7168
4, 165120, Pitch_bend_c, 7, 6784
4, 165120, Pitch_bend_c, 7, 8192
4, 165120, Note_off_c, 7, 62, 127
4, 165120, Note_on_c, 6, 60, 127
4, 165600, Note_off_c, 6, 60, 127
4, 165600, Note_on_c, 6, 64, 127
4, 166080, Note_off_c, 6, 64, 127
4, 166080, Note_on_c, 6, 67, 127
4, 166320, Note_off_c, 6, 67, 127
4, 166320, Note_on_c, 6, 64, 127
4, 166560, Note_off_c, 6, 64, 127
4, 166560, Note_on_c, 6, 60, 127
4, 167040, Note_off_c, 6, 60, 127
4, 167040, Note_on_c, 7, 71, 127
4, 167160, Pitch_bend_c, 7, 8192
4, 167280, Pitch_bend_c, 7, 8192
4, 167400, Pitch_bend_c, 7, 8192
4, 167520, Pitch_bend_c, 7, 8192
4, 167520, Pitch_bend_c, 7, 8192
4, 167520, Note_off_c, 7, 71, 127
4, 167520, Note_on_c, 6, 71, 127
4, 167760, Note_off_c, 6, 71, 127
4, 168000, Note_on_c, 6, 71, 127
4, 168240, Note_off_c, 6, 71, 127
4, 168240, Note_on_c, 6, 67, 127
4, 168480, Note_off_c, 6, 67, 127
4, 168480, Note_on_c, 7, 59, 127
4, 168600, Pitch_bend_c, 7, 8320
4, 168720, Pitch_bend_c, 7, 8448
4, 168840, Pitch_bend_c, 7, 8704
4, 168960, Pitch_bend_c, 7, 8832
4, 168960, Pitch_bend_c, 7, 8192
4, 168960, Note_off_c, 7, 59, 127
4, 168960, Note_on_c, 6, 60, 127
4, 172800, Note_off_c, 6, 60, 127
4, 172800, End_track
5, 0, Start_track
5, 0, Pitch_bend_c, 9, 8192
5, 0, Control_c, 9, 7, 127
5, 0, Control_c, 9, 10, 63
5, 0, Control_c, 9, 93, 0
5, 0, Control_c, 9, 91, 0
5, 0, Control_c, 9, 95, 0
5, 0, Control_c, 9, 92, 0
5, 0, Control_c, 9, 11, 127
5, 0, Program_c, 9, 0
5, 7680, Note_on_c, 9, 59, 127
5, 8640, Note_off_c, 9, 59, 127
5, 8640, Note_on_c, 9, 59, 127
5, 9600, Note_off_c, 9, 59, 127
5, 9600, Note_on_c, 9, 59, 127
5, 10560, Note_off_c, 9, 59, 127
5, 10560, Note_on_c, 9, 59, 127
5, 11520, Note_off_c, 9, 59, 127
5, 11520, Note_on_c, 9, 59, 127
5, 12480, Note_off_c, 9, 59, 127
5, 12480, Note_on_c, 9, 59, 127
5, 13440, Note_off_c, 9, 59, 127
5, 13440, Note_on_c, 9, 59, 127
5, 14400, Note_off_c, 9, 59, 127
5, 14400, Note_on_c, 9, 59, 127
5, 15360, Note_off_c, 9, 59, 127
5, 15360, Note_on_c, 9, 59, 127
5, 16320, Note_off_c, 9, 59, 127
5, 16320, Note_on_c, 9, 59, 127
5, 17280, Note_off_c, 9, 59, 127
5, 17280, Note_on_c, 9, 59, 127
5, 18240, Note_off_c, 9, 59, 127
5, 18240, Note_on_c, 9, 59, 127
5, 19200, Note_off_c, 9, 59, 127
5, 19200, Note_on_c, 9, 59, 127
5, 20160, Note_off_c, 9, 59, 127
5, 20160, Note_on_c, 9, 59, 127
5, 21120, Note_off_c, 9, 59, 127
5, 21120, Note_on_c, 9, 59, 127
5, 22080, Note_off_c, 9, 59, 127
5, 22080, Note_on_c, 9, 59, 127
5, 23040, Note_off_c, 9, 59, 127
5, 23040, Note_on_c, 9, 59, 127
5, 24000, Note_off_c, 9, 59, 127
5, 24000, Note_on_c, 9, 59, 127
5, 24960, Note_off_c, 9, 59, 127
5, 24960, Note_on_c, 9, 59, 127
5, 25920, Note_off_c, 9, 59, 127
5, 25920, Note_on_c, 9, 59, 127
5, 26880, Note_off_c, 9, 59, 127
5, 26880, Note_on_c, 9, 59, 127
5, 27840, Note_off_c, 9, 59, 127
5, 27840, Note_on_c, 9, 59, 127
5, 28800, Note_off_c, 9, 59, 127
5, 28800, Note_on_c, 9, 59, 127
5, 29760, Note_off_c, 9, 59, 127
5, 29760, Note_on_c, 9, 59, 127
5, 30720, Note_off_c, 9, 59, 127
5, 30720, Note_on_c, 9, 59, 127
5, 30720, Note_on_c, 9, 35, 127
5, 31680, Note_off_c, 9, 59, 127
5, 31680, Note_off_c, 9, 35, 127
5, 31680, Note_on_c, 9, 59, 127
5, 31680, Note_on_c, 9, 38, 127
5, 32640, Note_off_c, 9, 59, 127
5, 32640, Note_off_c, 9, 38, 127
5, 32640, Note_on_c, 9, 59, 127
5, 32640, Note_on_c, 9, 35, 127
5, 33600, Note_off_c, 9, 59, 127
5, 33600, Note_off_c, 9, 35, 127
5, 33600, Note_on_c, 9, 59, 127
5, 33600, Note_on_c, 9, 38, 127
5, 34560, Note_off_c, 9, 59, 127
5, 34560, Note_off_c, 9, 38, 127
5, 34560, Note_on_c, 9, 59, 127
5, 34560, Note_on_c, 9, 35, 127
5, 35520, Note_off_c, 9, 59, 127
5, 35520, Note_off_c, 9, 35, 127
5, 35520, Note_on_c, 9, 59, 127
5, 35520, Note_on_c, 9, 38, 127
5, 36480, Note_off_c, 9, 59, 127
5, 36480, Note_off_c, 9, 38, 127
5, 36480, Note_on_c, 9, 59, 127
5, 36480, Note_on_c, 9, 35, 127
5, 37440, Note_off_c, 9, 59, 127
5, 37440, Note_off_c, 9, 35, 127
5, 37440, Note_on_c, 9, 59, 127
5, 37440, Note_on_c, 9, 38, 127
5, 38400, Note_off_c, 9, 59, 127
5, 38400, Note_off_c, 9, 38, 127
5, 38400, Note_on_c, 9, 59, 127
5, 38400, Note_on_c, 9, 35, 127
5, 39360, Note_off_c, 9, 59, 127
5, 39360, Note_off_c, 9, 35, 127
5, 39360, Note_on_c, 9, 59, 127
5, 39360, Note_on_c, 9, 38, 127
5, 40320, Note_off_c, 9, 59, 127
5, 40320, Note_off_c, 9, 38, 127
5, 40320, Note_on_c, 9, 59, 127
5, 40320, Note_on_c, 9, 35, 127
5, 41280, Note_off_c, 9, 59, 127
5, 41280, Note_off_c, 9, 35, 127
5, 41280, Note_on_c, 9, 59, 127
5, 41280, Note_on_c, 9, 38, 127
5, 42240, Note_off_c, 9, 59, 127
5, 42240, Note_off_c, 9, 38, 127
5, 42240, Note_on_c, 9, 59, 127
5, 42240, Note_on_c, 9, 35, 127
5, 43200, Note_off_c, 9, 59, 127
5, 43200, Note_off_c, 9, 35, 127
5, 43200, Note_on_c, 9, 59, 127
5, 43200, Note_on_c, 9, 38, 127
5, 44160, Note_off_c, 9, 59, 127
5, 44160, Note_off_c, 9, 38, 127
5, 44160, Note_on_c, 9, 59, 127
5, 44160, Note_on_c, 9, 35, 127
5, 45120, Note_off_c, 9, 59, 127
5, 45120, Note_off_c, 9, 35, 127
5, 45120, Note_on_c, 9, 59, 127
5, 45120, Note_on_c, 9, 38, 127
5, 46080, Note_off_c, 9, 59, 127
5, 46080, Note_off_c, 9, 38, 127
5, 46080, Note_on_c, 9, 59, 127
5, 46080, Note_on_c, 9, 35, 127
5, 47040, Note_off_c, 9, 59, 127
5, 47040, Note_off_c, 9, 35, 127
5, 47040, Note_on_c, 9, 59, 127
5, 47040, Note_on_c, 9, 38, 127
5, 48000, Note_off_c, 9, 59, 127
5, 48000, Note_off_c, 9, 38, 127
5, 48000, Note_on_c, 9, 59, 127
5, 48000, Note_on_c, 9, 35, 127
5, 48960, Note_off_c, 9, 59, 127
5, 48960, Note_off_c, 9, 35, 127
5, 48960, Note_on_c, 9, 59, 127
5, 48960, Note_on_c, 9, 38, 127
5, 49920, Note_off_c, 9, 59, 127
5, 49920, Note_off_c, 9, 38, 127
5, 49920, Note_on_c, 9, 59, 127
5, 49920, Note_on_c, 9, 35, 127
5, 50880, Note_off_c, 9, 59, 127
5, 50880, Note_off_c, 9, 35, 127
5, 50880, Note_on_c, 9, 59, 127
5, 50880, Note_on_c, 9, 38, 127
5, 51840, Note_off_c, 9, 59, 127
5, 51840, Note_off_c, 9, 38, 127
5, 51840, Note_on_c, 9, 59, 127
5, 51840, Note_on_c, 9, 35, 127
5, 52800, Note_off_c, 9, 59, 127
5, 52800, Note_off_c, 9, 35, 127
5, 52800, Note_on_c, 9, 59, 127
5, 52800, Note_on_c, 9, 38, 127
5, 53760, Note_off_c, 9, 59, 127
5, 53760, Note_off_c, 9, 38, 127
5, 53760, Note_on_c, 9, 59, 127
5, 53760, Note_on_c, 9, 35, 127
5, 54720, Note_off_c, 9, 59, 127
5, 54720, Note_off_c, 9, 35, 127
5, 54720, Note_on_c, 9, 59, 127
5, 54720, Note_on_c, 9, 38, 127
5, 55680, Note_off_c, 9, 59, 127
5, 55680, Note_off_c, 9, 38, 127
5, 55680, Note_on_c, 9, 59, 127
5, 55680, Note_on_c, 9, 35, 127
5, 56640, Note_off_c, 9, 59, 127
5, 56640, Note_off_c, 9, 35, 127
5, 56640, Note_on_c, 9, 59, 127
5, 56640, Note_on_c, 9, 38, 127
5, 57600, Note_off_c, 9, 59, 127
5, 57600, Note_off_c, 9, 38, 127
5, 57600, Note_on_c, 9, 59, 127
5, 57600, Note_on_c, 9, 35, 127
5, 58560, Note_off_c, 9, 59, 127
5, 58560, Note_off_c, 9, 35, 127
5, 58560, Note_on_c, 9, 59, 127
5, 58560, Note_on_c, 9, 38, 127
5, 59520, Note_off_c, 9, 59, 127
5, 59520, Note_off_c, 9, 38, 127
5, 59520, Note_on_c, 9, 59, 127
5, 59520, Note_on_c, 9, 35, 127
5, 60480, Note_off_c, 9, 59, 127
5, 60480, Note_off_c, 9, 35, 127
5, 60480, Note_on_c, 9, 59, 127
5, 60480, Note_on_c, 9, 38, 127
5, 61440, Note_off_c, 9, 59, 127
5, 61440, Note_off_c, 9, 38, 127
5, 61440, Note_on_c, 9, 57, 127
5, 61440, Note_on_c, 9, 35, 127
5, 62400, Note_off_c, 9, 57, 127
5, 62400, Note_off_c, 9, 35, 127
5, 62400, Note_on_c, 9, 59, 127
5, 63360, Note_off_c, 9, 59, 127
5, 63360, Note_on_c, 9, 59, 127
5, 64320, Note_off_c, 9, 59, 127
5, 64320, Note_on_c, 9, 59, 127
5, 65280, Note_off_c, 9, 59, 127
5, 65280, Note_on_c, 9, 59, 127
5, 66240, Note_off_c, 9, 59, 127
5, 66240, Note_on_c, 9, 59, 127
5, 67200, Note_off_c, 9, 59, 127
5, 67200, Note_on_c, 9, 59, 127
5, 68160, Note_off_c, 9, 59, 127
5, 68160, Note_on_c, 9, 59, 127
5, 69120, Note_off_c, 9, 59, 127
5, 69120, Note_on_c, 9, 59, 127
5, 70080, Note_off_c, 9, 59, 127
5, 70080, Note_on_c, 9, 59, 127
5, 71040, Note_off_c, 9, 59, 127
5, 71040, Note_on_c, 9, 59, 127
5, 72000, Note_off_c, 9, 59, 127
5, 72000, Note_on_c, 9, 59, 127
5, 72960, Note_off_c, 9, 59, 127
5, 72960, Note_on_c, 9, 59, 127
5, 73920, Note_off_c, 9, 59, 127
5, 73920, Note_on_c, 9, 59, 127
5, 74880, Note_off_c, 9, 59, 127
5, 74880, Note_on_c, 9, 59, 127
5, 75840, Note_off_c, 9, 59, 127
5, 75840, Note_on_c, 9, 59, 127
5, 76800, Note_off_c, 9, 59, 127
5, 76800, Note_on_c, 9, 59, 127
5, 77760, Note_off_c, 9, 59, 127
5, 77760, Note_on_c, 9, 59, 127
5, 78720, Note_off_c, 9, 59, 127
5, 78720, Note_on_c, 9, 59, 127
5, 79680, Note_off_c, 9, 59, 127
5, 79680, Note_on_c, 9, 59, 127
5, 80640, Note_off_c, 9, 59, 127
5, 80640, Note_on_c, 9, 59, 127
5, 81600, Note_off_c, 9, 59, 127
5, 81600, Note_on_c, 9, 59, 127
5, 82560, Note_off_c, 9, 59, 127
5, 82560, Note_on_c, 9, 59, 127
5, 83520, Note_off_c, 9, 59, 127
5, 83520, Note_on_c, 9, 59, 127
5, 84480, Note_off_c, 9, 59, 127
5, 84480, Note_on_c, 9, 59, 127
5, 85440, Note_off_c, 9, 59, 127
5, 85440, Note_on_c, 9, 59, 127
5, 86400, Note_off_c, 9, 59, 127
5, 86400, Note_on_c, 9, 59, 127
5, 87360, Note_off_c, 9, 59, 127
5, 87360, Note_on_c, 9, 59, 127
5, 88320, Note_off_c, 9, 59, 127
5, 88320, Note_on_c, 9, 59, 127
5, 89280, Note_off_c, 9, 59, 127
5, 89280, Note_on_c, 9, 59, 127
5, 90240, Note_off_c, 9, 59, 127
5, 90240, Note_on_c, 9, 59, 127
5, 91200, Note_off_c, 9, 59, 127
5, 91200, Note_on_c, 9, 59, 127
5, 92160, Note_off_c, 9, 59, 127
5, 92160, Note_on_c, 9, 59, 127
5, 92160, Note_on_c, 9, 35, 127
5, 93120, Note_off_c, 9, 59, 127
5, 93120, Note_off_c, 9, 35, 127
5, 93120, Note_on_c, 9, 59, 127
5, 93120, Note_on_c, 9, 38, 127
5, 94080, Note_off_c, 9, 59, 127
5, 94080, Note_off_c, 9, 38, 127
5, 94080, Note_on_c, 9, 59, 127
5, 94080, Note_on_c, 9, 35, 127
5, 95040, Note_off_c, 9, 59, 127
5, 95040, Note_off_c, 9, 35, 127
5, 95040, Note_on_c, 9, 59, 127
5, 95040, Note_on_c, 9, 38, 127
5, 96000, Note_off_c, 9, 59, 127
5, 96000, Note_off_c, 9, 38, 127
5, 96000, Note_on_c, 9, 59, 127
5, 96000, Note_on_c, 9, 35, 127
5, 96960, Note_off_c, 9, 59, 127
5, 96960, Note_off_c, 9, 35, 127
5, 96960, Note_on_c, 9, 59, 127
5, 96960, Note_on_c, 9, 38, 127
5, 97920, Note_off_c, 9, 59, 127
5, 97920, Note_off_c, 9, 38, 127
5, 97920, Note_on_c, 9, 59, 127
5, 97920, Note_on_c, 9, 35, 127
5, 98880, Note_off_c, 9, 59, 127
5, 98880, Note_off_c, 9, 35, 127
5, 98880, Note_on_c, 9, 59, 127
5, 98880, Note_on_c, 9, 38, 127
5, 99840, Note_off_c, 9, 59, 127
5, 99840, Note_off_c, 9, 38, 127
5, 99840, Note_on_c, 9, 59, 127
5, 99840, Note_on_c, 9, 35, 127
5, 100800, Note_off_c, 9, 59, 127
5, 100800, Note_off_c, 9, 35, 127
5, 100800, Note_on_c, 9, 59, 127
5, 100800, Note_on_c, 9, 38, 127
5, 101760, Note_off_c, 9, 59, 127
5, 101760, Note_off_c, 9, 38, 127
5, 101760, Note_on_c, 9, 59, 127
5, 101760, Note_on_c, 9, 35, 127
5, 102720, Note_off_c, 9, 59, 127
5, 102720, Note_off_c, 9, 35, 127
5, 102720, Note_on_c, 9, 59, 127
5, 102720, Note_on_c, 9, 38, 127
5, 103680, Note_off_c, 9, 59, 127
5, 103680, Note_off_c, 9, 38, 127
5, 103680, Note_on_c, 9, 59, 127
5, 103680, Note_on_c, 9, 35, 127
5, 104640, Note_off_c, 9, 59, 127
5, 104640, Note_off_c, 9, 35, 127
5, 104640, Note_on_c, 9, 59, 127
5, 104640, Note_on_c, 9, 38, 127
5, 105600, Note_off_c, 9, 59, 127
5, 105600, Note_off_c, 9, 38, 127
5, 105600, Note_on_c, 9, 59, 127
5, 105600, Note_on_c, 9, 35, 127
5, 106560, Note_off_c, 9, 59, 127
5, 106560, Note_off_c, 9, 35, 127
5, 106560, Note_on_c, 9, 59, 127
5, 106560, Note_on_c, 9, 38, 127
5, 107520, Note_off_c, 9, 59, 127
5, 107520, Note_off_c, 9, 38, 127
5, 107520, Note_on_c, 9, 57, 127
5, 107520, Note_on_c, 9, 35, 127
5, 108480, Note_off_c, 9, 57, 127
5, 108480, Note_off_c, 9, 35, 127
5, 108480, Note_on_c, 9, 57, 127
5, 108480, Note_on_c, 9, 38, 127
5, 109440, Note_off_c, 9, 57, 127
5, 109440, Note_off_c, 9, 38, 127
5, 109440, Note_on_c, 9, 57, 127
5, 109440, Note_on_c, 9, 35, 127
5, 110400, Note_off_c, 9, 57, 127
5, 110400, Note_off_c, 9, 35, 127
5, 110400, Note_on_c, 9, 57, 127
5, 110400, Note_on_c, 9, 38, 127
5, 111360, Note_off_c, 9, 57, 127
5, 111360, Note_off_c, 9, 38, 127
5, 111360, Note_on_c, 9, 57, 127
5, 111360, Note_on_c, 9, 35, 127
5, 112320, Note_off_c, 9, 57, 127
5, 112320, Note_off_c, 9, 35, 127
5, 112320, Note_on_c, 9, 57, 127
5, 112320, Note_on_c, 9, 38, 127
5, 113280, Note_off_c, 9, 57, 127
5, 113280, Note_off_c, 9, 38, 127
5, 113280, Note_on_c, 9, 57, 127
5, 113280, Note_on_c, 9, 35, 127
5, 114240, Note_off_c, 9, 57, 127
5, 114240, Note_off_c, 9, 35, 127
5, 114240, Note_on_c, 9, 57, 127
5, 114240, Note_on_c, 9, 38, 127
5, 115200, Note_off_c, 9, 57, 127
5, 115200, Note_off_c, 9, 38, 127
5, 115200, Note_on_c, 9, 57, 127
5, 115200, Note_on_c, 9, 35, 127
5, 116160, Note_off_c, 9, 57, 127
5, 116160, Note_off_c, 9, 35, 127
5, 116160, Note_on_c, 9, 57, 127
5, 116160, Note_on_c, 9, 38, 127
5, 117120, Note_off_c, 9, 57, 127
5, 117120, Note_off_c, 9, 38, 127
5, 117120, Note_on_c, 9, 57, 127
5, 117120, Note_on_c, 9, 35, 127
5, 118080, Note_off_c, 9, 57, 127
5, 118080, Note_off_c, 9, 35, 127
5, 118080, Note_on_c, 9, 57, 127
5, 118080, Note_on_c, 9, 38, 127
5, 119040, Note_off_c, 9, 57, 127
5, 119040, Note_off_c, 9, 38, 127
5, 119040, Note_on_c, 9, 57, 127
5, 119040, Note_on_c, 9, 35, 127
5, 120000, Note_off_c, 9, 57, 127
5, 120000, Note_off_c, 9, 35, 127
5, 120000, Note_on_c, 9, 57, 127
5, 120000, Note_on_c, 9, 38, 127
5, 120960, Note_off_c, 9, 57, 127
5, 120960, Note_off_c, 9, 38, 127
5, 120960, Note_on_c, 9, 57, 127
5, 120960, Note_on_c, 9, 35, 127
5, 121920, Note_off_c, 9, 57, 127
5, 121920, Note_off_c, 9, 35, 127
5, 121920, Note_on_c, 9, 57, 127
5, 121920, Note_on_c, 9, 38, 127
5, 122880, Note_off_c, 9, 57, 127
5, 122880, Note_off_c, 9, 38, 127
5, 122880, Note_on_c, 9, 57, 127
5, 122880, Note_on_c, 9, 35, 127
5, 123840, Note_off_c, 9, 57, 127
5, 123840, Note_off_c, 9, 35, 127
5, 123840, Note_on_c, 9, 57, 127
5, 123840, Note_on_c, 9, 38, 127
5, 124800, Note_off_c, 9, 57, 127
5, 124800, Note_off_c, 9, 38, 127
5, 124800, Note_on_c, 9, 57, 127
5, 124800, Note_on_c, 9, 35, 127
5, 125760, Note_off_c, 9, 57, 127
5, 125760, Note_off_c, 9, 35, 127
5, 125760, Note_on_c, 9, 57, 127
5, 125760, Note_on_c, 9, 38, 127
5, 126720, Note_off_c, 9, 57, 127
5, 126720, Note_off_c, 9, 38, 127
5, 126720, Note_on_c, 9, 57, 127
5, 126720, Note_on_c, 9, 35, 127
5, 127680, Note_off_c, 9, 57, 127
5, 127680, Note_off_c, 9, 35, 127
5, 127680, Note_on_c, 9, 57, 127
5, 127680, Note_on_c, 9, 38, 127
5, 128640, Note_off_c, 9, 57, 127
5, 128640, Note_off_c, 9, 38, 127
5, 128640, Note_on_c, 9, 57, 127
5, 128640, Note_on_c, 9, 35, 127
5, 129600, Note_off_c, 9, 57, 127
5, 129600, Note_off_c, 9, 35, 127
5, 129600, Note_on_c, 9, 57, 127
5, 129600, Note_on_c, 9, 38, 127
5, 130560, Note_off_c, 9, 57, 127
5, 130560, Note_off_c, 9, 38, 127
5, 130560, Note_on_c, 9, 57, 127
5, 130560, Note_on_c, 9, 35, 127
5, 131520, Note_off_c, 9, 57, 127
5, 131520, Note_off_c, 9, 35, 127
5, 131520, Note_on_c, 9, 57, 127
5, 131520, Note_on_c, 9, 38, 127
5, 132480, Note_off_c, 9, 57, 127
5, 132480, Note_off_c, 9, 38, 127
5, 132480, Note_on_c, 9, 57, 127
5, 132480, Note_on_c, 9, 35, 127
5, 133440, Note_off_c, 9, 57, 127
5, 133440, Note_off_c, 9, 35, 127
5, 133440, Note_on_c, 9, 57, 127
5, 133440, Note_on_c, 9, 38, 127
5, 134400, Note_off_c, 9, 57, 127
5, 134400, Note_off_c, 9, 38, 127
5, 134400, Note_on_c, 9, 57, 127
5, 134400, Note_on_c, 9, 35, 127
5, 135360, Note_off_c, 9, 57, 127
5, 135360, Note_off_c, 9, 35, 127
5, 135360, Note_on_c, 9, 57, 127
5, 135360, Note_on_c, 9, 38, 127
5, 136320, Note_off_c, 9, 57, 127
5, 136320, Note_off_c, 9, 38, 127
5, 136320, Note_on_c, 9, 57, 127
5, 136320, Note_on_c, 9, 35, 127
5, 137280, Note_off_c, 9, 57, 127
5, 137280, Note_off_c, 9, 35, 127
5, 137280, Note_on_c, 9, 57, 127
5, 137280, Note_on_c, 9, 38, 127
5, 138240, Note_off_c, 9, 57, 127
5, 138240, Note_off_c, 9, 38, 127
5, 138240, Note_on_c, 9, 57, 127
5, 138240, Note_on_c, 9, 35, 127
5, 139200, Note_off_c, 9, 57, 127
5, 139200, Note_off_c, 9, 35, 127
5, 139200, Note_on_c, 9, 57, 127
5, 139200, Note_on_c, 9, 38, 127
5, 140160, Note_off_c, 9, 57, 127
5, 140160, Note_off_c, 9, 38, 127
5, 140160, Note_on_c, 9, 57, 127
5, 140160, Note_on_c, 9, 35, 127
5, 141120, Note_off_c, 9, 57, 127
5, 141120, Note_off_c, 9, 35, 127
5, 141120, Note_on_c, 9, 57, 127
5, 141120, Note_on_c, 9, 38, 127
5, 142080, Note_off_c, 9, 57, 127
5, 142080, Note_off_c, 9, 38, 127
5, 142080, Note_on_c, 9, 57, 127
5, 142080, Note_on_c, 9, 35, 127
5, 143040, Note_off_c, 9, 57, 127
5, 143040, Note_off_c, 9, 35, 127
5, 143040, Note_on_c, 9, 57, 127
5, 143040, Note_on_c, 9, 38, 127
5, 144000, Note_off_c, 9, 57, 127
5, 144000, Note_off_c, 9, 38, 127
5, 144000, Note_on_c, 9, 57, 127
5, 144000, Note_on_c, 9, 35, 127
5, 144960, Note_off_c, 9, 57, 127
5, 144960, Note_off_c, 9, 35, 127
5, 144960, Note_on_c, 9, 57, 127
5, 144960, Note_on_c, 9, 38, 127
5, 145920, Note_off_c, 9, 57, 127
5, 145920, Note_off_c, 9, 38, 127
5, 145920, Note_on_c, 9, 57, 127
5, 145920, Note_on_c, 9, 35, 127
5, 146880, Note_off_c, 9, 57, 127
5, 146880, Note_off_c, 9, 35, 127
5, 146880, Note_on_c, 9, 57, 127
5, 146880, Note_on_c, 9, 38, 127
5, 147840, Note_off_c, 9, 57, 127
5, 147840, Note_off_c, 9, 38, 127
5, 147840, Note_on_c, 9, 57, 127
5, 147840, Note_on_c, 9, 35, 127
5, 148800, Note_off_c, 9, 57, 127
5, 148800, Note_off_c, 9, 35, 127
5, 148800, Note_on_c, 9, 57, 127
5, 148800, Note_on_c, 9, 38, 127
5, 149760, Note_off_c, 9, 57, 127
5, 149760, Note_off_c, 9, 38, 127
5, 149760, Note_on_c, 9, 57, 127
5, 149760, Note_on_c, 9, 35, 127
5, 150720, Note_off_c, 9, 57, 127
5, 150720, Note_off_c, 9, 35, 127
5, 150720, Note_on_c, 9, 57, 127
5, 150720, Note_on_c, 9, 38, 127
5, 151680, Note_off_c, 9, 57, 127
5, 151680, Note_off_c, 9, 38, 127
5, 151680, Note_on_c, 9, 57, 127
5, 151680, Note_on_c, 9, 35, 127
5, 152640, Note_off_c, 9, 57, 127
5, 152640, Note_off_c, 9, 35, 127
5, 152640, Note_on_c, 9, 57, 127
5, 152640, Note_on_c, 9, 38, 127
5, 153600, Note_off_c, 9, 57, 127
5, 153600, Note_off_c, 9, 38, 127
5, 153600, Note_on_c, 9, 57, 127
5, 153600, Note_on_c, 9, 35, 127
5, 154560, Note_off_c, 9, 57, 127
5, 154560, Note_off_c, 9, 35, 127
5, 154560, Note_on_c, 9, 57, 127
5, 154560, Note_on_c, 9, 38, 127
5, 155520, Note_off_c, 9, 57, 127
5, 155520, Note_off_c, 9, 38, 127
5, 155520, Note_on_c, 9, 57, 127
5, 155520, Note_on_c, 9, 35, 127
5, 156480, Note_off_c, 9, 57, 127
5, 156480, Note_off_c, 9, 35, 127
5, 156480, Note_on_c, 9, 57, 127
5, 156480, Note_on_c, 9, 38, 127
5, 157440, Note_off_c, 9, 57, 127
5, 157440, Note_off_c, 9, 38, 127
5, 157440, Note_on_c, 9, 57, 127
5, 157440, Note_on_c, 9, 35, 127
5, 158400, Note_off_c, 9, 57, 127
5, 158400, Note_off_c, 9, 35, 127
5, 158400, Note_on_c, 9, 57, 127
5, 158400, Note_on_c, 9, 38, 127
5, 159360, Note_off_c, 9, 57, 127
5, 159360, Note_off_c, 9, 38, 127
5, 159360, Note_on_c, 9, 57, 127
5, 159360, Note_on_c, 9, 35, 127
5, 160320, Note_off_c, 9, 57, 127
5, 160320, Note_off_c, 9, 35, 127
5, 160320, Note_on_c, 9, 57, 127
5, 160320, Note_on_c, 9, 38, 127
5, 161280, Note_off_c, 9, 57, 127
5, 161280, Note_off_c, 9, 38, 127
5, 161280, Note_on_c, 9, 57, 127
5, 161280, Note_on_c, 9, 35, 127
5, 162240, Note_off_c, 9, 57, 127
5, 162240, Note_off_c, 9, 35, 127
5, 162240, Note_on_c, 9, 57, 127
5, 162240, Note_on_c, 9, 38, 127
5, 163200, Note_off_c, 9, 57, 127
5, 163200, Note_off_c, 9, 38, 127
5, 163200, Note_on_c, 9, 57, 127
5, 163200, Note_on_c, 9, 35, 127
5, 164160, Note_off_c, 9, 57, 127
5, 164160, Note_off_c, 9, 35, 127
5, 164160, Note_on_c, 9, 57, 127
5, 164160, Note_on_c, 9, 38, 127
5, 165120, Note_off_c, 9, 57, 127
5, 165120, Note_off_c, 9, 38, 127
5, 165120, Note_on_c, 9, 57, 127
5, 165120, Note_on_c, 9, 35, 127
5, 166080, Note_off_c, 9, 57, 127
5, 166080, Note_off_c, 9, 35, 127
5, 166080, Note_on_c, 9, 57, 127
5, 166080, Note_on_c, 9, 38, 127
5, 167040, Note_off_c, 9, 57, 127
5, 167040, Note_off_c, 9, 38, 127
5, 167040, Note_on_c, 9, 57, 127
5, 167040, Note_on_c, 9, 35, 127
5, 168000, Note_off_c, 9, 57, 127
5, 168000, Note_off_c, 9, 35, 127
5, 168000, Note_on_c, 9, 57, 127
5, 168000, Note_on_c, 9, 38, 127
5, 168960, Note_off_c, 9, 57, 127
5, 168960, Note_off_c, 9, 38, 127
5, 168960, Note_on_c, 9, 57, 127
5, 168960, Note_on_c, 9, 35, 127
5, 169920, Note_off_c, 9, 57, 127
5, 169920, Note_off_c, 9, 35, 127
5, 169920, Note_on_c, 9, 57, 127
5, 169920, Note_on_c, 9, 38, 127
5, 170880, Note_off_c, 9, 57, 127
5, 170880, Note_off_c, 9, 38, 127
5, 170880, Note_on_c, 9, 57, 127
5, 170880, Note_on_c, 9, 35, 127
5, 171840, Note_off_c, 9, 57, 127
5, 171840, Note_off_c, 9, 35, 127
5, 171840, Note_on_c, 9, 57, 127
5, 171840, Note_on_c, 9, 38, 127
5, 172800, Note_off_c, 9, 57, 127
5, 172800, Note_off_c, 9, 38, 127
5, 172800, Note_on_c, 9, 57, 127
5, 172800, Note_on_c, 9, 35, 127
5, 173760, Note_off_c, 9, 57, 127
5, 173760, Note_off_c, 9, 35, 127
5, 173760, Note_on_c, 9, 57, 127
5, 173760, Note_on_c, 9, 38, 127
5, 174720, Note_off_c, 9, 57, 127
5, 174720, Note_off_c, 9, 38, 127
5, 174720, Note_on_c, 9, 57, 127
5, 174720, Note_on_c, 9, 35, 127
5, 175680, Note_off_c, 9, 57, 127
5, 175680, Note_off_c, 9, 35, 127
5, 175680, Note_on_c, 9, 57, 127
5, 175680, Note_on_c, 9, 38, 127
5, 176640, Note_off_c, 9, 57, 127
5, 176640, Note_off_c, 9, 38, 127
5, 176640, Note_on_c, 9, 57, 127
5, 176640, Note_on_c, 9, 35, 127
5, 177600, Note_off_c, 9, 57, 127
5, 177600, Note_off_c, 9, 35, 127
5, 177600, Note_on_c, 9, 57, 127
5, 177600, Note_on_c, 9, 38, 127
5, 178560, Note_off_c, 9, 57, 127
5, 178560, Note_off_c, 9, 38, 127
5, 178560, Note_on_c, 9, 57, 127
5, 178560, Note_on_c, 9, 35, 127
5, 179520, Note_off_c, 9, 57, 127
5, 179520, Note_off_c, 9, 35, 127
5, 179520, Note_on_c, 9, 57, 127
5, 179520, Note_on_c, 9, 38, 127
5, 180480, Note_off_c, 9, 57, 127
5, 180480, Note_off_c, 9, 38, 127
5, 180480, Note_on_c, 9, 57, 127
5, 180480, Note_on_c, 9, 35, 127
5, 181440, Note_off_c, 9, 57, 127
5, 181440, Note_off_c, 9, 35, 127
5, 181440, Note_on_c, 9, 57, 127
5, 181440, Note_on_c, 9, 38, 127
5, 182400, Note_off_c, 9, 57, 127
5, 182400, Note_off_c, 9, 38, 127
5, 182400, Note_on_c, 9, 57, 127
5, 182400, Note_on_c, 9, 35, 127
5, 183360, Note_off_c, 9, 57, 127
5, 183360, Note_off_c, 9, 35, 127
5, 183360, Note_on_c, 9, 57, 127
5, 183360, Note_on_c, 9, 38, 127
5, 184320, Note_off_c, 9, 57, 127
5, 184320, Note_off_c, 9, 38, 127
5, 184320, Note_on_c, 9, 57, 127
5, 184320, Note_on_c, 9, 35, 127
5, 185280, Note_off_c, 9, 57, 127
5, 185280, Note_off_c, 9, 35, 127
5, 185280, Note_on_c, 9, 57, 127
5, 185280, Note_on_c, 9, 38, 127
5, 186240, Note_off_c, 9, 57, 127
5, 186240, Note_off_c, 9, 38, 127
5, 186240, Note_on_c, 9, 57, 127
5, 186240, Note_on_c, 9, 35, 127
5, 187200, Note_off_c, 9, 57, 127
5, 187200, Note_off_c, 9, 35, 127
5, 187200, Note_on_c, 9, 57, 127
5, 187200, Note_on_c, 9, 38, 127
5, 188160, Note_off_c, 9, 57, 127
5, 188160, Note_off_c, 9, 38, 127
5, 188160, Note_on_c, 9, 57, 127
5, 188160, Note_on_c, 9, 35, 127
5, 189120, Note_off_c, 9, 57, 127
5, 189120, Note_off_c, 9, 35, 127
5, 189120, Note_on_c, 9, 57, 127
5, 189120, Note_on_c, 9, 38, 127
5, 190080, Note_off_c, 9, 57, 127
5, 190080, Note_off_c, 9, 38, 127
5, 190080, Note_on_c, 9, 57, 127
5, 190080, Note_on_c, 9, 35, 127
5, 191040, Note_off_c, 9, 57, 127
5, 191040, Note_off_c, 9, 35, 127
5, 191040, Note_on_c, 9, 57, 127
5, 191040, Note_on_c, 9, 38, 127
5, 192000, Note_off_c, 9, 57, 127
5, 192000, Note_off_c, 9, 38, 127
5, 192000, Note_on_c, 9, 57, 127
5, 192000, Note_on_c, 9, 35, 127
5, 192960, Note_off_c, 9, 57, 127
5, 192960, Note_off_c, 9, 35, 127
5, 192960, Note_on_c, 9, 57, 127
5, 192960, Note_on_c, 9, 38, 127
5, 193920, Note_off_c, 9, 57, 127
5, 193920, Note_off_c, 9, 38, 127
5, 193920, Note_on_c, 9, 57, 127
5, 193920, Note_on_c, 9, 35, 127
5, 194880, Note_off_c, 9, 57, 127
5, 194880, Note_off_c, 9, 35, 127
5, 194880, Note_on_c, 9, 57, 127
5, 194880, Note_on_c, 9, 38, 127
5, 195840, Note_off_c, 9, 57, 127
5, 195840, Note_off_c, 9, 38, 127
5, 195840, Note_on_c, 9, 57, 127
5, 195840, Note_on_c, 9, 35, 127
5, 196800, Note_off_c, 9, 57, 127
5, 196800, Note_off_c, 9, 35, 127
5, 196800, Note_on_c, 9, 57, 127
5, 196800, Note_on_c, 9, 38, 127
5, 197760, Note_off_c, 9, 57, 127
5, 197760, Note_off_c, 9, 38, 127
5, 197760, Note_on_c, 9, 57, 127
5, 197760, Note_on_c, 9, 35, 127
5, 198720, Note_off_c, 9, 57, 127
5, 198720, Note_off_c, 9, 35, 127
5, 198720, Note_on_c, 9, 57, 127
5, 198720, Note_on_c, 9, 38, 127
5, 199680, Note_off_c, 9, 57, 127
5, 199680, Note_off_c, 9, 38, 127
5, 199680, Note_on_c, 9, 57, 127
5, 199680, Note_on_c, 9, 35, 127
5, 200640, Note_off_c, 9, 57, 127
5, 200640, Note_off_c, 9, 35, 127
5, 200640, Note_on_c, 9, 59, 127
5, 201600, Note_off_c, 9, 59, 127
5, 201600, Note_on_c, 9, 59, 127
5, 202560, Note_off_c, 9, 59, 127
5, 202560, Note_on_c, 9, 59, 127
5, 203520, Note_off_c, 9, 59, 127
5, 203520, Note_on_c, 9, 59, 127
5, 204480, Note_off_c, 9, 59, 127
5, 204480, Note_on_c, 9, 59, 127
5, 205440, Note_off_c, 9, 59, 127
5, 205440, Note_on_c, 9, 59, 127
5, 206400, Note_off_c, 9, 59, 127
5, 206400, Note_on_c, 9, 59, 127
5, 207360, Note_off_c, 9, 59, 127
5, 207360, Note_on_c, 9, 59, 127
5, 208320, Note_off_c, 9, 59, 127
5, 208320, Note_on_c, 9, 59, 127
5, 209280, Note_off_c, 9, 59, 127
5, 209280, Note_on_c, 9, 59, 127
5, 210240, Note_off_c, 9, 59, 127
5, 210240, Note_on_c, 9, 59, 127
5, 211200, Note_off_c, 9, 59, 127
5, 211200, Note_on_c, 9, 59, 127
5, 212160, Note_off_c, 9, 59, 127
5, 212160, Note_on_c, 9, 59, 127
5, 213120, Note_off_c, 9, 59, 127
5, 213120, Note_on_c, 9, 59, 127
5, 214080, Note_off_c, 9, 59, 127
5, 214080, Note_on_c, 9, 59, 127
5, 215040, Note_off_c, 9, 59, 127
5, 215040, Note_on_c, 9, 59, 127
5, 216000, Note_off_c, 9, 59, 127
5, 216000, Note_on_c, 9, 59, 127
5, 216960, Note_off_c, 9, 59, 127
5, 216960, Note_on_c, 9, 59, 127
5, 217920, Note_off_c, 9, 59, 127
5, 217920, Note_on_c, 9, 59, 127
5, 218880, Note_off_c, 9, 59, 127
5, 218880, Note_on_c, 9, 59, 127
5, 219840, Note_off_c, 9, 59, 127
5, 219840, Note_on_c, 9, 59, 127
5, 220800, Note_off_c, 9, 59, 127
5, 220800, Note_on_c, 9, 59, 127
5, 221760, Note_off_c, 9, 59, 127
5, 221760, Note_on_c, 9, 59, 127
5, 222720, Note_off_c, 9, 59, 127
5, 222720, Note_on_c, 9, 59, 127
5, 223680, Note_off_c, 9, 59, 127
5, 223680, Note_on_c, 9, 59, 127
5, 224640, Note_off_c, 9, 59, 127
5, 224640, Note_on_c, 9, 59, 127
5, 225600, Note_off_c, 9, 59, 127
5, 225600, Note_on_c, 9, 59, 127
5, 226560, Note_off_c, 9, 59, 127
5, 226560, Note_on_c, 9, 59, 127
5, 227520, Note_off_c, 9, 59, 127
5, 227520, Note_on_c, 9, 59, 127
5, 228480, Note_off_c, 9, 59, 127
5, 228480, Note_on_c, 9, 59, 127
5, 229440, Note_off_c, 9, 59, 127
5, 229440, Note_on_c, 9, 59, 127
5, 230400, Note_off_c, 9, 59, 127
5, 230400, Note_on_c, 9, 59, 127
5, 231360, Note_off_c, 9, 59, 127
5, 231360, Note_on_c, 9, 59, 127
5, 232320, Note_off_c, 9, 59, 127
5, 232320, Note_on_c, 9, 59, 127
5, 233280, Note_off_c, 9, 59, 127
5, 233280, Note_on_c, 9, 59, 127
5, 234240, Note_off_c, 9, 59, 127
5, 234240, Note_on_c, 9, 59, 127
5, 235200, Note_off_c, 9, 59, 127
5, 235200, Note_on_c, 9, 59, 127
5, 236160, Note_off_c, 9, 59, 127
5, 236160, Note_on_c, 9, 59, 127
5, 237120, Note_off_c, 9, 59, 127
5, 237120, Note_on_c, 9, 59, 127
5, 238080, Note_off_c, 9, 59, 127
5, 238080, Note_on_c, 9, 59, 127
5, 239040, Note_off_c, 9, 59, 127
5, 239040, Note_on_c, 9, 59, 127
5, 240000, Note_off_c, 9, 59, 127
5, 240000, Note_on_c, 9, 59, 127
5, 240960, Note_off_c, 9, 59, 127
5, 240960, End_track
0, 0, End_of_file
