0, 0, Header, 1, 11, 480
1, 0, Start_track
1, 0, Title_t, "09-radiohead_2007-jigsaw_falling_into_place"
1, 0, Tempo, 352941
1, 0, Time_signature, 4, 2, 24, 8
1, 0, End_track
2, 0, Start_track
2, 0, Title_t, "Yorke"
2, 0, Text_t, "@LENGL"
2, 0, Text_t, "@TJigsaw Falling into Place"
2, 0, Text_t, "@TRadiohead - 2007"
2, 0, Text_t, "@TSequence : "
2, 0, Text_t, "@TTracks 1~6 & 10 : GuitarPro File Tab by El Tito"
2, 0, Text_t, "@Thttp://profile.ultimate-guitar.com/el_tito/"
2, 0, Text_t, "@TTracks 11~13 : GuitarPro File Tab by Balamitz"
2, 0, Text_t, "@Thttp://profile.ultimate-guitar.com/balamitz/"
2, 0, Text_t, "@T(balamitz_182@hotmail.com)"
2, 0, Text_t, "@TGM Format & Remix by Th. Leroy / 2011"
2, 0, Text_t, "@THttp://www.rppmf.com/radiohead.htm"
2, 60, Control_c, 0, 121, 0
2, 60, Control_c, 0, 123, 0
2, 60, Control_c, 0, 100, 0
2, 60, Control_c, 0, 38, 0
2, 60, Control_c, 0, 101, 0
2, 60, Control_c, 0, 6, 12
2, 60, Pitch_bend_c, 0, 8192
2, 120, Program_c, 0, 25
2, 120, Control_c, 0, 7, 48
2, 120, Control_c, 0, 10, 10
2, 1920, Note_on_c, 0, 47, 95
2, 2040, Control_c, 0, 10, 11
2, 2040, Control_c, 0, 7, 96
2, 2160, Control_c, 0, 10, 12
2, 2160, Control_c, 0, 7, 48
2, 2160, Note_on_c, 0, 59, 95
2, 2280, Control_c, 0, 10, 13
2, 2280, Control_c, 0, 7, 96
2, 2400, Control_c, 0, 10, 15
2, 2400, Control_c, 0, 7, 48
2, 2400, Note_on_c, 0, 62, 95
2, 2520, Control_c, 0, 10, 16
2, 2520, Control_c, 0, 7, 96
2, 2632, Note_off_c, 0, 47, 80
2, 2640, Control_c, 0, 10, 17
2, 2640, Note_on_c, 0, 47, 95
2, 2760, Control_c, 0, 10, 18
2, 2872, Note_off_c, 0, 59, 80
2, 2880, Control_c, 0, 10, 19
2, 2880, Note_on_c, 0, 59, 95
2, 3000, Control_c, 0, 10, 20
2, 3112, Note_off_c, 0, 62, 80
2, 3120, Control_c, 0, 10, 21
2, 3120, Note_on_c, 0, 62, 95
2, 3240, Control_c, 0, 10, 22
2, 3352, Note_off_c, 0, 47, 80
2, 3360, Control_c, 0, 10, 24
2, 3360, Note_on_c, 0, 47, 95
2, 3480, Control_c, 0, 10, 25
2, 3592, Note_off_c, 0, 59, 80
2, 3592, Note_off_c, 0, 62, 80
2, 3600, Control_c, 0, 10, 26
2, 3600, Note_on_c, 0, 59, 50
2, 3600, Note_on_c, 0, 62, 95
2, 3720, Control_c, 0, 10, 27
2, 3832, Note_off_c, 0, 47, 80
2, 3840, Control_c, 0, 10, 28
2, 3840, Note_on_c, 0, 47, 95
2, 3960, Control_c, 0, 10, 29
2, 4072, Note_off_c, 0, 59, 80
2, 4080, Control_c, 0, 10, 30
2, 4080, Note_on_c, 0, 59, 95
2, 4200, Control_c, 0, 10, 31
2, 4312, Note_off_c, 0, 62, 80
2, 4320, Control_c, 0, 10, 33
2, 4320, Note_on_c, 0, 62, 95
2, 4440, Control_c, 0, 10, 34
2, 4552, Note_off_c, 0, 47, 80
2, 4560, Control_c, 0, 10, 35
2, 4560, Note_on_c, 0, 47, 95
2, 4680, Control_c, 0, 10, 36
2, 4792, Note_off_c, 0, 59, 80
2, 4800, Control_c, 0, 10, 37
2, 4800, Note_on_c, 0, 59, 95
2, 4920, Control_c, 0, 10, 38
2, 5032, Note_off_c, 0, 62, 80
2, 5040, Control_c, 0, 10, 39
2, 5040, Note_on_c, 0, 62, 95
2, 5160, Control_c, 0, 10, 40
2, 5272, Note_off_c, 0, 47, 80
2, 5280, Control_c, 0, 10, 42
2, 5280, Note_on_c, 0, 47, 95
2, 5400, Control_c, 0, 10, 43
2, 5512, Note_off_c, 0, 59, 80
2, 5512, Note_off_c, 0, 62, 80
2, 5520, Control_c, 0, 10, 44
2, 5520, Note_on_c, 0, 59, 50
2, 5520, Note_on_c, 0, 62, 95
2, 5640, Control_c, 0, 10, 45
2, 5752, Note_off_c, 0, 47, 80
2, 5760, Control_c, 0, 10, 46
2, 5760, Note_on_c, 0, 47, 95
2, 5880, Control_c, 0, 10, 47
2, 5992, Note_off_c, 0, 59, 80
2, 6000, Control_c, 0, 10, 48
2, 6000, Note_on_c, 0, 59, 95
2, 6120, Control_c, 0, 10, 49
2, 6232, Note_off_c, 0, 62, 80
2, 6240, Control_c, 0, 10, 51
2, 6240, Note_on_c, 0, 62, 95
2, 6360, Control_c, 0, 10, 52
2, 6472, Note_off_c, 0, 47, 80
2, 6480, Control_c, 0, 10, 53
2, 6480, Note_on_c, 0, 47, 95
2, 6600, Control_c, 0, 10, 54
2, 6712, Note_off_c, 0, 59, 80
2, 6720, Control_c, 0, 10, 55
2, 6720, Note_on_c, 0, 59, 95
2, 6840, Control_c, 0, 10, 56
2, 6952, Note_off_c, 0, 62, 80
2, 6960, Control_c, 0, 10, 57
2, 6960, Note_on_c, 0, 62, 95
2, 7080, Control_c, 0, 10, 58
2, 7192, Note_off_c, 0, 47, 80
2, 7200, Control_c, 0, 10, 60
2, 7200, Note_on_c, 0, 47, 95
2, 7320, Control_c, 0, 10, 61
2, 7432, Note_off_c, 0, 59, 80
2, 7432, Note_off_c, 0, 62, 80
2, 7440, Control_c, 0, 10, 62
2, 7440, Note_on_c, 0, 59, 50
2, 7440, Note_on_c, 0, 62, 95
2, 7560, Control_c, 0, 10, 63
2, 7672, Note_off_c, 0, 47, 80
2, 7680, Control_c, 0, 10, 64
2, 7680, Note_on_c, 0, 47, 95
2, 7800, Control_c, 0, 10, 65
2, 7912, Note_off_c, 0, 59, 80
2, 7920, Control_c, 0, 10, 66
2, 7920, Note_on_c, 0, 59, 95
2, 8040, Control_c, 0, 10, 67
2, 8152, Note_off_c, 0, 62, 80
2, 8160, Control_c, 0, 10, 69
2, 8160, Note_on_c, 0, 62, 95
2, 8280, Control_c, 0, 10, 70
2, 8392, Note_off_c, 0, 47, 80
2, 8400, Control_c, 0, 10, 71
2, 8400, Note_on_c, 0, 47, 95
2, 8520, Control_c, 0, 10, 72
2, 8632, Note_off_c, 0, 59, 80
2, 8640, Control_c, 0, 10, 73
2, 8640, Note_on_c, 0, 59, 95
2, 8872, Note_off_c, 0, 62, 80
2, 8880, Note_on_c, 0, 62, 95
2, 9112, Note_off_c, 0, 47, 80
2, 9120, Note_on_c, 0, 47, 95
2, 9352, Note_off_c, 0, 59, 80
2, 9352, Note_off_c, 0, 62, 80
2, 9360, Note_on_c, 0, 59, 50
2, 9360, Note_on_c, 0, 62, 95
2, 9592, Note_off_c, 0, 47, 80
2, 9600, Note_on_c, 0, 46, 95
2, 9832, Note_off_c, 0, 59, 80
2, 9840, Note_on_c, 0, 58, 95
2, 10072, Note_off_c, 0, 62, 80
2, 10080, Note_on_c, 0, 61, 95
2, 10312, Note_off_c, 0, 46, 80
2, 10320, Note_on_c, 0, 46, 95
2, 10552, Note_off_c, 0, 58, 80
2, 10560, Note_on_c, 0, 58, 95
2, 10792, Note_off_c, 0, 61, 80
2, 10800, Note_on_c, 0, 61, 95
2, 11032, Note_off_c, 0, 46, 80
2, 11040, Note_on_c, 0, 46, 95
2, 11272, Note_off_c, 0, 58, 80
2, 11272, Note_off_c, 0, 61, 80
2, 11280, Note_on_c, 0, 58, 50
2, 11280, Note_on_c, 0, 61, 95
2, 11512, Note_off_c, 0, 46, 80
2, 11520, Note_on_c, 0, 46, 95
2, 11752, Note_off_c, 0, 58, 80
2, 11760, Note_on_c, 0, 58, 95
2, 11992, Note_off_c, 0, 61, 80
2, 12000, Note_on_c, 0, 61, 95
2, 12232, Note_off_c, 0, 46, 80
2, 12240, Note_on_c, 0, 46, 95
2, 12472, Note_off_c, 0, 58, 80
2, 12480, Note_on_c, 0, 58, 95
2, 12712, Note_off_c, 0, 61, 80
2, 12720, Note_on_c, 0, 61, 95
2, 12952, Note_off_c, 0, 46, 80
2, 12960, Note_on_c, 0, 46, 95
2, 13192, Note_off_c, 0, 58, 80
2, 13192, Note_off_c, 0, 61, 80
2, 13200, Note_on_c, 0, 58, 50
2, 13200, Note_on_c, 0, 61, 95
2, 13432, Note_off_c, 0, 46, 80
2, 13440, Note_on_c, 0, 38, 95
2, 13672, Note_off_c, 0, 58, 80
2, 13680, Note_on_c, 0, 54, 95
2, 13912, Note_off_c, 0, 61, 80
2, 13920, Note_on_c, 0, 61, 95
2, 14152, Note_off_c, 0, 38, 80
2, 14160, Note_on_c, 0, 38, 95
2, 14392, Note_off_c, 0, 54, 80
2, 14400, Note_on_c, 0, 54, 95
2, 14632, Note_off_c, 0, 61, 80
2, 14640, Note_on_c, 0, 61, 95
2, 14872, Note_off_c, 0, 38, 80
2, 14880, Note_on_c, 0, 38, 95
2, 15112, Note_off_c, 0, 54, 80
2, 15112, Note_off_c, 0, 61, 80
2, 15120, Note_on_c, 0, 54, 50
2, 15120, Note_on_c, 0, 61, 95
2, 15352, Note_off_c, 0, 38, 80
2, 15360, Note_on_c, 0, 38, 95
2, 15592, Note_off_c, 0, 54, 80
2, 15600, Note_on_c, 0, 54, 95
2, 15832, Note_off_c, 0, 61, 80
2, 15840, Note_on_c, 0, 59, 95
2, 16072, Note_off_c, 0, 38, 80
2, 16080, Note_on_c, 0, 38, 95
2, 16312, Note_off_c, 0, 54, 80
2, 16320, Note_on_c, 0, 54, 95
2, 16552, Note_off_c, 0, 59, 80
2, 16560, Note_on_c, 0, 59, 95
2, 16792, Note_off_c, 0, 38, 80
2, 16800, Note_on_c, 0, 38, 95
2, 17032, Note_off_c, 0, 54, 80
2, 17032, Note_off_c, 0, 59, 80
2, 17040, Note_on_c, 0, 54, 50
2, 17040, Note_on_c, 0, 59, 95
2, 17272, Note_off_c, 0, 38, 80
2, 17280, Note_on_c, 0, 43, 95
2, 17512, Note_off_c, 0, 54, 80
2, 17520, Note_on_c, 0, 50, 95
2, 17752, Note_off_c, 0, 59, 80
2, 17760, Note_on_c, 0, 55, 95
2, 17992, Note_off_c, 0, 43, 80
2, 18000, Note_on_c, 0, 43, 95
2, 18232, Note_off_c, 0, 50, 80
2, 18240, Note_on_c, 0, 50, 95
2, 18472, Note_off_c, 0, 55, 80
2, 18480, Note_on_c, 0, 59, 95
2, 18712, Note_off_c, 0, 43, 80
2, 18720, Note_on_c, 0, 38, 95
2, 18952, Note_off_c, 0, 59, 80
2, 18952, Note_off_c, 0, 38, 80
2, 18960, Note_on_c, 0, 42, 95
2, 18960, Note_on_c, 0, 61, 95
2, 19432, Note_off_c, 0, 50, 80
2, 19432, Note_off_c, 0, 42, 80
2, 19440, Note_on_c, 0, 50, 95
2, 19680, Note_on_c, 0, 42, 95
2, 19912, Note_off_c, 0, 50, 80
2, 19920, Note_on_c, 0, 50, 95
2, 20152, Note_off_c, 0, 61, 80
2, 20160, Note_on_c, 0, 61, 95
2, 20392, Note_off_c, 0, 61, 80
2, 20400, Note_on_c, 0, 62, 95
2, 20632, Note_off_c, 0, 62, 80
2, 20640, Note_on_c, 0, 61, 95
2, 20872, Note_off_c, 0, 50, 80
2, 20880, Note_on_c, 0, 50, 95
2, 21112, Note_off_c, 0, 42, 80
2, 21120, Note_on_c, 0, 43, 95
2, 21352, Note_off_c, 0, 50, 80
2, 21360, Note_on_c, 0, 50, 95
2, 21592, Note_off_c, 0, 61, 80
2, 21600, Note_on_c, 0, 55, 95
2, 21832, Note_off_c, 0, 43, 80
2, 21840, Note_on_c, 0, 43, 95
2, 22072, Note_off_c, 0, 50, 80
2, 22080, Note_on_c, 0, 50, 95
2, 22312, Note_off_c, 0, 55, 80
2, 22320, Note_on_c, 0, 59, 95
2, 22552, Note_off_c, 0, 43, 80
2, 22560, Note_on_c, 0, 38, 95
2, 22792, Note_off_c, 0, 59, 80
2, 22792, Note_off_c, 0, 38, 80
2, 22800, Note_on_c, 0, 42, 95
2, 22800, Note_on_c, 0, 61, 95
2, 23272, Note_off_c, 0, 50, 80
2, 23272, Note_off_c, 0, 42, 80
2, 23280, Note_on_c, 0, 50, 95
2, 23520, Note_on_c, 0, 42, 95
2, 23752, Note_off_c, 0, 50, 80
2, 23760, Note_on_c, 0, 50, 95
2, 23992, Note_off_c, 0, 61, 80
2, 24000, Note_on_c, 0, 61, 95
2, 24232, Note_off_c, 0, 61, 80
2, 24240, Note_on_c, 0, 62, 95
2, 24472, Note_off_c, 0, 62, 80
2, 24480, Note_on_c, 0, 61, 95
2, 24712, Note_off_c, 0, 50, 80
2, 24720, Note_on_c, 0, 50, 95
2, 24952, Note_off_c, 0, 42, 80
2, 24960, Note_on_c, 0, 47, 95
2, 25192, Note_off_c, 0, 50, 80
2, 25200, Note_on_c, 0, 59, 95
2, 25432, Note_off_c, 0, 61, 80
2, 25440, Note_on_c, 0, 62, 95
2, 25672, Note_off_c, 0, 47, 80
2, 25680, Note_on_c, 0, 47, 95
2, 25912, Note_off_c, 0, 59, 80
2, 25920, Note_on_c, 0, 59, 95
2, 26152, Note_off_c, 0, 62, 80
2, 26160, Note_on_c, 0, 62, 95
2, 26392, Note_off_c, 0, 47, 80
2, 26400, Note_on_c, 0, 47, 95
2, 26632, Note_off_c, 0, 59, 80
2, 26632, Note_off_c, 0, 62, 80
2, 26640, Note_on_c, 0, 59, 50
2, 26640, Note_on_c, 0, 62, 95
2, 26872, Note_off_c, 0, 47, 80
2, 26880, Note_on_c, 0, 47, 95
2, 27112, Note_off_c, 0, 59, 80
2, 27120, Note_on_c, 0, 59, 95
2, 27352, Note_off_c, 0, 62, 80
2, 27360, Note_on_c, 0, 62, 95
2, 27592, Note_off_c, 0, 47, 80
2, 27600, Note_on_c, 0, 47, 95
2, 27832, Note_off_c, 0, 59, 80
2, 27840, Note_on_c, 0, 59, 95
2, 28072, Note_off_c, 0, 62, 80
2, 28080, Note_on_c, 0, 62, 95
2, 28312, Note_off_c, 0, 47, 80
2, 28320, Note_on_c, 0, 47, 95
2, 28552, Note_off_c, 0, 59, 80
2, 28552, Note_off_c, 0, 62, 80
2, 28560, Note_on_c, 0, 59, 50
2, 28560, Note_on_c, 0, 62, 95
2, 28792, Note_off_c, 0, 47, 80
2, 28800, Note_on_c, 0, 47, 95
2, 29032, Note_off_c, 0, 59, 80
2, 29040, Note_on_c, 0, 59, 95
2, 29272, Note_off_c, 0, 62, 80
2, 29280, Note_on_c, 0, 62, 95
2, 29512, Note_off_c, 0, 47, 80
2, 29520, Note_on_c, 0, 47, 95
2, 29752, Note_off_c, 0, 59, 80
2, 29760, Note_on_c, 0, 59, 95
2, 29992, Note_off_c, 0, 62, 80
2, 30000, Note_on_c, 0, 62, 95
2, 30232, Note_off_c, 0, 47, 80
2, 30240, Note_on_c, 0, 47, 95
2, 30472, Note_off_c, 0, 59, 80
2, 30472, Note_off_c, 0, 62, 80
2, 30480, Note_on_c, 0, 59, 50
2, 30480, Note_on_c, 0, 62, 95
2, 30712, Note_off_c, 0, 47, 80
2, 30720, Note_on_c, 0, 47, 95
2, 30952, Note_off_c, 0, 59, 80
2, 30960, Note_on_c, 0, 59, 95
2, 31192, Note_off_c, 0, 62, 80
2, 31200, Note_on_c, 0, 62, 95
2, 31432, Note_off_c, 0, 47, 80
2, 31440, Note_on_c, 0, 47, 95
2, 31672, Note_off_c, 0, 59, 80
2, 31680, Note_on_c, 0, 59, 95
2, 31912, Note_off_c, 0, 62, 80
2, 31920, Note_on_c, 0, 62, 95
2, 32152, Note_off_c, 0, 47, 80
2, 32160, Note_on_c, 0, 47, 95
2, 32392, Note_off_c, 0, 59, 80
2, 32392, Note_off_c, 0, 62, 80
2, 32400, Note_on_c, 0, 59, 50
2, 32400, Note_on_c, 0, 62, 95
2, 32632, Note_off_c, 0, 47, 80
2, 32640, Note_on_c, 0, 46, 95
2, 32872, Note_off_c, 0, 59, 80
2, 32880, Note_on_c, 0, 58, 95
2, 33112, Note_off_c, 0, 62, 80
2, 33120, Note_on_c, 0, 61, 95
2, 33352, Note_off_c, 0, 46, 80
2, 33360, Note_on_c, 0, 46, 95
2, 33592, Note_off_c, 0, 58, 80
2, 33600, Note_on_c, 0, 58, 95
2, 33832, Note_off_c, 0, 61, 80
2, 33840, Note_on_c, 0, 61, 95
2, 34072, Note_off_c, 0, 46, 80
2, 34080, Note_on_c, 0, 46, 95
2, 34312, Note_off_c, 0, 58, 80
2, 34312, Note_off_c, 0, 61, 80
2, 34320, Note_on_c, 0, 58, 50
2, 34320, Note_on_c, 0, 61, 95
2, 34552, Note_off_c, 0, 46, 80
2, 34560, Note_on_c, 0, 46, 95
2, 34792, Note_off_c, 0, 58, 80
2, 34800, Note_on_c, 0, 58, 95
2, 35032, Note_off_c, 0, 61, 80
2, 35040, Note_on_c, 0, 61, 95
2, 35272, Note_off_c, 0, 46, 80
2, 35280, Note_on_c, 0, 46, 95
2, 35512, Note_off_c, 0, 58, 80
2, 35520, Note_on_c, 0, 58, 95
2, 35752, Note_off_c, 0, 61, 80
2, 35760, Note_on_c, 0, 61, 95
2, 35992, Note_off_c, 0, 46, 80
2, 36000, Note_on_c, 0, 46, 95
2, 36232, Note_off_c, 0, 58, 80
2, 36232, Note_off_c, 0, 61, 80
2, 36240, Note_on_c, 0, 58, 50
2, 36240, Note_on_c, 0, 61, 95
2, 36472, Note_off_c, 0, 46, 80
2, 36480, Note_on_c, 0, 38, 95
2, 36712, Note_off_c, 0, 58, 80
2, 36720, Note_on_c, 0, 54, 95
2, 36952, Note_off_c, 0, 61, 80
2, 36960, Note_on_c, 0, 61, 95
2, 37192, Note_off_c, 0, 38, 80
2, 37200, Note_on_c, 0, 38, 95
2, 37432, Note_off_c, 0, 54, 80
2, 37440, Note_on_c, 0, 54, 95
2, 37672, Note_off_c, 0, 61, 80
2, 37680, Note_on_c, 0, 61, 95
2, 37912, Note_off_c, 0, 38, 80
2, 37920, Note_on_c, 0, 38, 95
2, 38152, Note_off_c, 0, 54, 80
2, 38152, Note_off_c, 0, 61, 80
2, 38160, Note_on_c, 0, 54, 50
2, 38160, Note_on_c, 0, 61, 95
2, 38392, Note_off_c, 0, 38, 80
2, 38400, Note_on_c, 0, 38, 95
2, 38632, Note_off_c, 0, 54, 80
2, 38640, Note_on_c, 0, 54, 95
2, 38872, Note_off_c, 0, 61, 80
2, 38880, Note_on_c, 0, 59, 95
2, 39112, Note_off_c, 0, 38, 80
2, 39120, Note_on_c, 0, 38, 95
2, 39352, Note_off_c, 0, 54, 80
2, 39360, Note_on_c, 0, 54, 95
2, 39592, Note_off_c, 0, 59, 80
2, 39600, Note_on_c, 0, 59, 95
2, 39832, Note_off_c, 0, 38, 80
2, 39840, Note_on_c, 0, 38, 95
2, 40072, Note_off_c, 0, 54, 80
2, 40072, Note_off_c, 0, 59, 80
2, 40080, Note_on_c, 0, 54, 50
2, 40080, Note_on_c, 0, 59, 95
2, 40312, Note_off_c, 0, 38, 80
2, 40320, Note_on_c, 0, 43, 95
2, 40552, Note_off_c, 0, 54, 80
2, 40560, Note_on_c, 0, 50, 95
2, 40792, Note_off_c, 0, 59, 80
2, 40800, Note_on_c, 0, 55, 95
2, 41032, Note_off_c, 0, 43, 80
2, 41040, Note_on_c, 0, 43, 95
2, 41272, Note_off_c, 0, 50, 80
2, 41280, Note_on_c, 0, 50, 95
2, 41512, Note_off_c, 0, 55, 80
2, 41520, Note_on_c, 0, 59, 95
2, 41752, Note_off_c, 0, 43, 80
2, 41760, Note_on_c, 0, 38, 95
2, 41992, Note_off_c, 0, 59, 80
2, 41992, Note_off_c, 0, 38, 80
2, 42000, Note_on_c, 0, 42, 95
2, 42000, Note_on_c, 0, 61, 95
2, 42472, Note_off_c, 0, 50, 80
2, 42472, Note_off_c, 0, 42, 80
2, 42480, Note_on_c, 0, 50, 95
2, 42720, Note_on_c, 0, 42, 95
2, 42952, Note_off_c, 0, 50, 80
2, 42960, Note_on_c, 0, 50, 95
2, 43192, Note_off_c, 0, 61, 80
2, 43200, Note_on_c, 0, 61, 95
2, 43432, Note_off_c, 0, 61, 80
2, 43440, Note_on_c, 0, 62, 95
2, 43672, Note_off_c, 0, 62, 80
2, 43680, Note_on_c, 0, 61, 95
2, 43912, Note_off_c, 0, 50, 80
2, 43920, Note_on_c, 0, 50, 95
2, 44152, Note_off_c, 0, 42, 80
2, 44160, Note_on_c, 0, 43, 95
2, 44392, Note_off_c, 0, 50, 80
2, 44400, Note_on_c, 0, 50, 95
2, 44632, Note_off_c, 0, 61, 80
2, 44640, Note_on_c, 0, 55, 95
2, 44872, Note_off_c, 0, 43, 80
2, 44880, Note_on_c, 0, 43, 95
2, 45112, Note_off_c, 0, 50, 80
2, 45120, Note_on_c, 0, 50, 95
2, 45352, Note_off_c, 0, 55, 80
2, 45360, Note_on_c, 0, 59, 95
2, 45592, Note_off_c, 0, 43, 80
2, 45600, Note_on_c, 0, 38, 95
2, 45832, Note_off_c, 0, 59, 80
2, 45832, Note_off_c, 0, 38, 80
2, 45840, Note_on_c, 0, 42, 95
2, 45840, Note_on_c, 0, 61, 95
2, 46312, Note_off_c, 0, 50, 80
2, 46312, Note_off_c, 0, 42, 80
2, 46320, Note_on_c, 0, 50, 95
2, 46560, Note_on_c, 0, 42, 95
2, 46792, Note_off_c, 0, 50, 80
2, 46800, Note_on_c, 0, 50, 95
2, 47032, Note_off_c, 0, 61, 80
2, 47040, Note_on_c, 0, 61, 95
2, 47272, Note_off_c, 0, 61, 80
2, 47280, Note_on_c, 0, 62, 95
2, 47512, Note_off_c, 0, 62, 80
2, 47520, Note_on_c, 0, 61, 95
2, 47752, Note_off_c, 0, 50, 80
2, 47760, Note_on_c, 0, 50, 95
2, 47992, Note_off_c, 0, 42, 80
2, 48000, Note_on_c, 0, 47, 95
2, 48472, Note_off_c, 0, 61, 80
2, 48472, Note_off_c, 0, 50, 80
2, 48480, Note_on_c, 0, 59, 95
2, 48480, Note_on_c, 0, 62, 95
2, 48952, Note_off_c, 0, 47, 80
2, 48952, Note_off_c, 0, 59, 80
2, 48952, Note_off_c, 0, 62, 80
2, 48960, Note_on_c, 0, 47, 95
2, 48960, Note_on_c, 0, 59, 95
2, 48960, Note_on_c, 0, 62, 95
2, 48972, Note_off_c, 0, 59, 80
2, 48972, Note_off_c, 0, 62, 80
2, 49200, Note_on_c, 0, 59, 95
2, 49200, Note_on_c, 0, 62, 95
2, 49432, Note_off_c, 0, 47, 80
2, 49440, Note_on_c, 0, 47, 95
2, 49672, Note_off_c, 0, 59, 80
2, 49672, Note_off_c, 0, 62, 80
2, 49680, Note_on_c, 0, 59, 95
2, 49680, Note_on_c, 0, 62, 95
2, 50152, Note_off_c, 0, 47, 80
2, 50152, Note_off_c, 0, 59, 80
2, 50152, Note_off_c, 0, 62, 80
2, 50160, Note_on_c, 0, 47, 95
2, 50160, Note_on_c, 0, 59, 95
2, 50160, Note_on_c, 0, 62, 95
2, 50392, Note_off_c, 0, 59, 80
2, 50392, Note_off_c, 0, 62, 80
2, 50400, Note_on_c, 0, 59, 95
2, 50400, Note_on_c, 0, 62, 95
2, 50872, Note_off_c, 0, 47, 80
2, 50880, Note_on_c, 0, 47, 95
2, 50880, Note_on_c, 0, 54, 95
2, 50892, Note_off_c, 0, 54, 80
2, 51112, Note_off_c, 0, 47, 80
2, 51120, Note_on_c, 0, 47, 95
2, 51120, Note_on_c, 0, 54, 95
2, 51132, Note_off_c, 0, 54, 80
2, 51352, Note_off_c, 0, 59, 80
2, 51352, Note_off_c, 0, 62, 80
2, 51360, Note_on_c, 0, 59, 95
2, 51360, Note_on_c, 0, 62, 95
2, 51592, Note_off_c, 0, 59, 80
2, 51592, Note_off_c, 0, 62, 80
2, 51600, Note_on_c, 0, 59, 95
2, 51600, Note_on_c, 0, 62, 95
2, 51832, Note_off_c, 0, 47, 80
2, 51840, Note_on_c, 0, 47, 95
2, 52312, Note_off_c, 0, 59, 80
2, 52312, Note_off_c, 0, 62, 80
2, 52320, Note_on_c, 0, 59, 95
2, 52320, Note_on_c, 0, 62, 95
2, 52792, Note_off_c, 0, 47, 80
2, 52792, Note_off_c, 0, 59, 80
2, 52792, Note_off_c, 0, 62, 80
2, 52800, Note_on_c, 0, 47, 95
2, 52800, Note_on_c, 0, 59, 95
2, 52800, Note_on_c, 0, 62, 95
2, 52812, Note_off_c, 0, 59, 80
2, 52812, Note_off_c, 0, 62, 80
2, 53040, Note_on_c, 0, 59, 95
2, 53040, Note_on_c, 0, 62, 95
2, 53272, Note_off_c, 0, 47, 80
2, 53280, Note_on_c, 0, 38, 95
2, 53512, Note_off_c, 0, 38, 80
2, 53520, Note_on_c, 0, 38, 95
2, 53520, Note_on_c, 0, 50, 95
2, 53992, Note_off_c, 0, 38, 80
2, 53992, Note_off_c, 0, 50, 80
2, 54000, Note_on_c, 0, 38, 95
2, 54000, Note_on_c, 0, 52, 95
2, 54472, Note_off_c, 0, 38, 80
2, 54472, Note_off_c, 0, 52, 80
2, 54480, Note_on_c, 0, 38, 95
2, 54480, Note_on_c, 0, 54, 95
2, 54952, Note_off_c, 0, 59, 80
2, 54952, Note_off_c, 0, 62, 80
2, 54952, Note_off_c, 0, 38, 80
2, 54952, Note_off_c, 0, 54, 80
2, 54960, Note_on_c, 0, 38, 95
2, 54960, Note_on_c, 0, 54, 95
2, 54960, Note_on_c, 0, 57, 95
2, 54972, Note_off_c, 0, 54, 80
2, 55432, Note_off_c, 0, 57, 80
2, 55440, Note_on_c, 0, 54, 95
2, 55440, Note_on_c, 0, 59, 95
2, 55452, Note_off_c, 0, 54, 80
2, 55672, Note_off_c, 0, 38, 80
2, 55680, Note_on_c, 0, 47, 95
2, 56152, Note_off_c, 0, 59, 80
2, 56160, Note_on_c, 0, 59, 95
2, 56160, Note_on_c, 0, 62, 95
2, 56632, Note_off_c, 0, 59, 80
2, 56632, Note_off_c, 0, 62, 80
2, 56640, Note_on_c, 0, 59, 95
2, 56640, Note_on_c, 0, 62, 95
2, 56652, Note_off_c, 0, 59, 80
2, 56652, Note_off_c, 0, 62, 80
2, 56880, Note_on_c, 0, 59, 95
2, 56880, Note_on_c, 0, 62, 95
2, 57112, Note_off_c, 0, 47, 80
2, 57120, Note_on_c, 0, 47, 95
2, 57352, Note_off_c, 0, 59, 80
2, 57352, Note_off_c, 0, 62, 80
2, 57360, Note_on_c, 0, 59, 95
2, 57360, Note_on_c, 0, 62, 95
2, 57832, Note_off_c, 0, 59, 80
2, 57832, Note_off_c, 0, 62, 80
2, 57840, Note_on_c, 0, 59, 95
2, 57840, Note_on_c, 0, 62, 95
2, 58072, Note_off_c, 0, 59, 80
2, 58072, Note_off_c, 0, 62, 80
2, 58080, Note_on_c, 0, 59, 95
2, 58080, Note_on_c, 0, 62, 95
2, 58552, Note_off_c, 0, 47, 80
2, 58560, Note_on_c, 0, 47, 95
2, 58560, Note_on_c, 0, 54, 95
2, 58572, Note_off_c, 0, 54, 80
2, 58792, Note_off_c, 0, 47, 80
2, 58800, Note_on_c, 0, 47, 95
2, 58800, Note_on_c, 0, 54, 95
2, 58812, Note_off_c, 0, 54, 80
2, 59032, Note_off_c, 0, 59, 80
2, 59032, Note_off_c, 0, 62, 80
2, 59040, Note_on_c, 0, 59, 95
2, 59040, Note_on_c, 0, 62, 95
2, 59272, Note_off_c, 0, 59, 80
2, 59272, Note_off_c, 0, 62, 80
2, 59280, Note_on_c, 0, 59, 95
2, 59280, Note_on_c, 0, 62, 95
2, 59512, Note_off_c, 0, 47, 80
2, 59520, Note_on_c, 0, 47, 95
2, 59992, Note_off_c, 0, 59, 80
2, 59992, Note_off_c, 0, 62, 80
2, 60000, Note_on_c, 0, 59, 95
2, 60000, Note_on_c, 0, 62, 95
2, 60472, Note_off_c, 0, 59, 80
2, 60472, Note_off_c, 0, 62, 80
2, 60480, Note_on_c, 0, 59, 95
2, 60480, Note_on_c, 0, 62, 95
2, 60492, Note_off_c, 0, 59, 80
2, 60492, Note_off_c, 0, 62, 80
2, 60720, Note_on_c, 0, 59, 95
2, 60720, Note_on_c, 0, 62, 95
2, 60952, Note_off_c, 0, 47, 80
2, 60960, Note_on_c, 0, 38, 95
2, 61192, Note_off_c, 0, 38, 80
2, 61200, Note_on_c, 0, 38, 95
2, 61200, Note_on_c, 0, 50, 95
2, 61672, Note_off_c, 0, 38, 80
2, 61672, Note_off_c, 0, 50, 80
2, 61680, Note_on_c, 0, 38, 95
2, 61680, Note_on_c, 0, 52, 95
2, 62152, Note_off_c, 0, 38, 80
2, 62152, Note_off_c, 0, 52, 80
2, 62160, Note_on_c, 0, 38, 95
2, 62160, Note_on_c, 0, 54, 95
2, 62632, Note_off_c, 0, 59, 80
2, 62632, Note_off_c, 0, 62, 80
2, 62632, Note_off_c, 0, 38, 80
2, 62632, Note_off_c, 0, 54, 80
2, 62640, Note_on_c, 0, 38, 95
2, 62640, Note_on_c, 0, 54, 95
2, 62640, Note_on_c, 0, 57, 95
2, 62652, Note_off_c, 0, 54, 80
2, 63112, Note_off_c, 0, 57, 80
2, 63120, Note_on_c, 0, 54, 95
2, 63120, Note_on_c, 0, 59, 95
2, 63132, Note_off_c, 0, 54, 80
2, 63352, Note_off_c, 0, 38, 80
2, 63352, Note_off_c, 0, 59, 80
2, 63360, Note_on_c, 0, 43, 95
2, 63360, Note_on_c, 0, 50, 95
2, 63360, Note_on_c, 0, 55, 95
2, 63360, Note_on_c, 0, 59, 95
2, 63832, Note_off_c, 0, 43, 80
2, 63832, Note_off_c, 0, 50, 80
2, 63832, Note_off_c, 0, 55, 80
2, 63832, Note_off_c, 0, 59, 80
2, 63840, Note_on_c, 0, 43, 95
2, 63840, Note_on_c, 0, 50, 95
2, 63840, Note_on_c, 0, 55, 95
2, 63840, Note_on_c, 0, 59, 95
2, 64072, Note_off_c, 0, 43, 80
2, 64072, Note_off_c, 0, 50, 80
2, 64072, Note_off_c, 0, 55, 80
2, 64072, Note_off_c, 0, 59, 80
2, 64080, Note_on_c, 0, 43, 95
2, 64080, Note_on_c, 0, 50, 95
2, 64080, Note_on_c, 0, 55, 95
2, 64080, Note_on_c, 0, 59, 95
2, 64312, Note_off_c, 0, 43, 80
2, 64312, Note_off_c, 0, 50, 80
2, 64312, Note_off_c, 0, 55, 80
2, 64312, Note_off_c, 0, 59, 80
2, 64320, Note_on_c, 0, 43, 95
2, 64320, Note_on_c, 0, 50, 95
2, 64320, Note_on_c, 0, 55, 95
2, 64320, Note_on_c, 0, 59, 95
2, 64552, Note_off_c, 0, 43, 80
2, 64552, Note_off_c, 0, 50, 80
2, 64552, Note_off_c, 0, 55, 80
2, 64552, Note_off_c, 0, 59, 80
2, 64560, Note_on_c, 0, 43, 95
2, 64560, Note_on_c, 0, 50, 95
2, 64560, Note_on_c, 0, 55, 95
2, 64560, Note_on_c, 0, 59, 95
2, 64792, Note_off_c, 0, 43, 80
2, 64792, Note_off_c, 0, 50, 80
2, 64792, Note_off_c, 0, 55, 80
2, 64792, Note_off_c, 0, 59, 80
2, 64800, Note_on_c, 0, 43, 95
2, 64800, Note_on_c, 0, 50, 95
2, 64800, Note_on_c, 0, 55, 95
2, 64800, Note_on_c, 0, 59, 95
2, 65032, Note_off_c, 0, 43, 80
2, 65032, Note_off_c, 0, 50, 80
2, 65032, Note_off_c, 0, 55, 80
2, 65032, Note_off_c, 0, 59, 80
2, 65040, Note_on_c, 0, 42, 95
2, 65040, Note_on_c, 0, 49, 95
2, 65040, Note_on_c, 0, 54, 95
2, 65040, Note_on_c, 0, 57, 95
2, 65512, Note_off_c, 0, 42, 80
2, 65512, Note_off_c, 0, 49, 80
2, 65512, Note_off_c, 0, 54, 80
2, 65512, Note_off_c, 0, 57, 80
2, 65520, Note_on_c, 0, 42, 95
2, 65520, Note_on_c, 0, 49, 95
2, 65520, Note_on_c, 0, 54, 95
2, 65520, Note_on_c, 0, 57, 95
2, 65752, Note_off_c, 0, 42, 80
2, 65752, Note_off_c, 0, 49, 80
2, 65752, Note_off_c, 0, 54, 80
2, 65752, Note_off_c, 0, 57, 80
2, 65760, Note_on_c, 0, 42, 95
2, 65760, Note_on_c, 0, 49, 95
2, 65760, Note_on_c, 0, 54, 95
2, 65760, Note_on_c, 0, 57, 95
2, 66472, Note_off_c, 0, 42, 80
2, 66472, Note_off_c, 0, 49, 80
2, 66472, Note_off_c, 0, 54, 80
2, 66472, Note_off_c, 0, 57, 80
2, 66480, Note_on_c, 0, 42, 95
2, 66480, Note_on_c, 0, 49, 95
2, 66480, Note_on_c, 0, 54, 95
2, 66480, Note_on_c, 0, 57, 95
2, 66712, Note_off_c, 0, 42, 80
2, 66712, Note_off_c, 0, 49, 80
2, 66712, Note_off_c, 0, 54, 80
2, 66712, Note_off_c, 0, 57, 80
2, 66720, Note_on_c, 0, 42, 95
2, 66720, Note_on_c, 0, 49, 95
2, 66720, Note_on_c, 0, 54, 95
2, 66720, Note_on_c, 0, 57, 95
2, 66952, Note_off_c, 0, 42, 80
2, 66952, Note_off_c, 0, 49, 80
2, 66952, Note_off_c, 0, 54, 80
2, 66952, Note_off_c, 0, 57, 80
2, 66960, Note_on_c, 0, 42, 95
2, 66960, Note_on_c, 0, 49, 95
2, 66960, Note_on_c, 0, 54, 95
2, 66960, Note_on_c, 0, 57, 95
2, 67192, Note_off_c, 0, 42, 80
2, 67192, Note_off_c, 0, 49, 80
2, 67192, Note_off_c, 0, 54, 80
2, 67192, Note_off_c, 0, 57, 80
2, 67200, Note_on_c, 0, 42, 95
2, 67200, Note_on_c, 0, 49, 95
2, 67200, Note_on_c, 0, 54, 95
2, 67200, Note_on_c, 0, 57, 95
2, 67392, Pitch_bend_c, 0, 8832
2, 67432, Note_off_c, 0, 42, 80
2, 67432, Note_off_c, 0, 49, 80
2, 67432, Note_off_c, 0, 54, 80
2, 67432, Note_off_c, 0, 57, 80
2, 67440, Pitch_bend_c, 0, 8192
2, 67440, Note_on_c, 0, 43, 76
2, 67440, Note_on_c, 0, 50, 76
2, 67440, Note_on_c, 0, 55, 76
2, 67440, Note_on_c, 0, 59, 76
2, 67632, Pitch_bend_c, 0, 7552
2, 67672, Note_off_c, 0, 43, 80
2, 67672, Note_off_c, 0, 50, 80
2, 67672, Note_off_c, 0, 55, 80
2, 67672, Note_off_c, 0, 59, 80
2, 67680, Pitch_bend_c, 0, 8192
2, 67680, Note_on_c, 0, 42, 76
2, 67680, Note_on_c, 0, 49, 76
2, 67680, Note_on_c, 0, 54, 76
2, 67680, Note_on_c, 0, 57, 76
2, 68152, Note_off_c, 0, 42, 80
2, 68152, Note_off_c, 0, 49, 80
2, 68152, Note_off_c, 0, 54, 80
2, 68152, Note_off_c, 0, 57, 80
2, 68160, Note_on_c, 0, 42, 95
2, 68160, Note_on_c, 0, 49, 95
2, 68160, Note_on_c, 0, 54, 95
2, 68160, Note_on_c, 0, 57, 95
2, 68392, Note_off_c, 0, 42, 80
2, 68392, Note_off_c, 0, 49, 80
2, 68392, Note_off_c, 0, 54, 80
2, 68392, Note_off_c, 0, 57, 80
2, 68400, Note_on_c, 0, 42, 95
2, 68400, Note_on_c, 0, 49, 95
2, 68400, Note_on_c, 0, 54, 95
2, 68400, Note_on_c, 0, 57, 95
2, 68632, Note_off_c, 0, 42, 80
2, 68632, Note_off_c, 0, 49, 80
2, 68632, Note_off_c, 0, 54, 80
2, 68632, Note_off_c, 0, 57, 80
2, 68640, Note_on_c, 0, 38, 95
2, 68640, Note_on_c, 0, 45, 95
2, 68640, Note_on_c, 0, 50, 95
2, 68872, Note_off_c, 0, 38, 80
2, 68872, Note_off_c, 0, 45, 80
2, 68872, Note_off_c, 0, 50, 80
2, 68880, Note_on_c, 0, 40, 95
2, 68880, Note_on_c, 0, 47, 95
2, 68880, Note_on_c, 0, 52, 95
2, 68880, Note_on_c, 0, 55, 95
2, 69352, Note_off_c, 0, 40, 80
2, 69352, Note_off_c, 0, 47, 80
2, 69352, Note_off_c, 0, 52, 80
2, 69352, Note_off_c, 0, 55, 80
2, 69360, Note_on_c, 0, 42, 95
2, 69360, Note_on_c, 0, 49, 95
2, 69360, Note_on_c, 0, 54, 95
2, 69360, Note_on_c, 0, 57, 95
2, 69832, Note_off_c, 0, 42, 80
2, 69832, Note_off_c, 0, 49, 80
2, 69832, Note_off_c, 0, 54, 80
2, 69832, Note_off_c, 0, 57, 80
2, 69840, Note_on_c, 0, 40, 95
2, 69840, Note_on_c, 0, 47, 95
2, 69840, Note_on_c, 0, 52, 95
2, 69840, Note_on_c, 0, 55, 95
2, 70312, Note_off_c, 0, 40, 80
2, 70312, Note_off_c, 0, 47, 80
2, 70312, Note_off_c, 0, 52, 80
2, 70312, Note_off_c, 0, 55, 80
2, 70320, Note_on_c, 0, 38, 95
2, 70320, Note_on_c, 0, 45, 95
2, 70320, Note_on_c, 0, 50, 95
2, 70552, Note_off_c, 0, 38, 80
2, 70552, Note_off_c, 0, 45, 80
2, 70552, Note_off_c, 0, 50, 80
2, 70560, Note_on_c, 0, 38, 95
2, 70560, Note_on_c, 0, 45, 95
2, 70560, Note_on_c, 0, 50, 95
2, 71032, Note_off_c, 0, 38, 80
2, 71032, Note_off_c, 0, 45, 80
2, 71032, Note_off_c, 0, 50, 80
2, 71040, Note_on_c, 0, 45, 95
2, 71040, Note_on_c, 0, 52, 95
2, 71040, Note_on_c, 0, 57, 95
2, 71040, Note_on_c, 0, 61, 95
2, 71512, Note_off_c, 0, 45, 80
2, 71512, Note_off_c, 0, 52, 80
2, 71512, Note_off_c, 0, 57, 80
2, 71512, Note_off_c, 0, 61, 80
2, 71520, Note_on_c, 0, 45, 95
2, 71520, Note_on_c, 0, 52, 95
2, 71520, Note_on_c, 0, 57, 95
2, 71520, Note_on_c, 0, 61, 95
2, 71992, Note_off_c, 0, 45, 80
2, 71992, Note_off_c, 0, 52, 80
2, 71992, Note_off_c, 0, 57, 80
2, 71992, Note_off_c, 0, 61, 80
2, 72000, Note_on_c, 0, 45, 95
2, 72000, Note_on_c, 0, 52, 95
2, 72000, Note_on_c, 0, 57, 95
2, 72000, Note_on_c, 0, 61, 95
2, 72232, Note_off_c, 0, 45, 80
2, 72232, Note_off_c, 0, 52, 80
2, 72232, Note_off_c, 0, 57, 80
2, 72232, Note_off_c, 0, 61, 80
2, 72240, Note_on_c, 0, 45, 95
2, 72240, Note_on_c, 0, 52, 95
2, 72240, Note_on_c, 0, 57, 95
2, 72240, Note_on_c, 0, 61, 95
2, 72472, Note_off_c, 0, 45, 80
2, 72472, Note_off_c, 0, 52, 80
2, 72472, Note_off_c, 0, 57, 80
2, 72472, Note_off_c, 0, 61, 80
2, 72480, Note_on_c, 0, 45, 95
2, 72480, Note_on_c, 0, 52, 95
2, 72480, Note_on_c, 0, 57, 95
2, 72480, Note_on_c, 0, 61, 95
2, 72712, Note_off_c, 0, 45, 80
2, 72712, Note_off_c, 0, 52, 80
2, 72712, Note_off_c, 0, 57, 80
2, 72712, Note_off_c, 0, 61, 80
2, 72720, Note_on_c, 0, 43, 95
2, 72720, Note_on_c, 0, 50, 95
2, 72720, Note_on_c, 0, 55, 95
2, 72720, Note_on_c, 0, 59, 95
2, 73192, Note_off_c, 0, 43, 80
2, 73192, Note_off_c, 0, 50, 80
2, 73192, Note_off_c, 0, 55, 80
2, 73192, Note_off_c, 0, 59, 80
2, 73200, Note_on_c, 0, 43, 95
2, 73200, Note_on_c, 0, 50, 95
2, 73200, Note_on_c, 0, 55, 95
2, 73200, Note_on_c, 0, 59, 95
2, 73672, Note_off_c, 0, 43, 80
2, 73672, Note_off_c, 0, 50, 80
2, 73672, Note_off_c, 0, 55, 80
2, 73672, Note_off_c, 0, 59, 80
2, 73680, Note_on_c, 0, 43, 95
2, 73680, Note_on_c, 0, 50, 95
2, 73680, Note_on_c, 0, 55, 95
2, 73680, Note_on_c, 0, 59, 95
2, 74152, Note_off_c, 0, 43, 80
2, 74152, Note_off_c, 0, 50, 80
2, 74152, Note_off_c, 0, 55, 80
2, 74152, Note_off_c, 0, 59, 80
2, 74160, Note_on_c, 0, 43, 95
2, 74160, Note_on_c, 0, 50, 95
2, 74160, Note_on_c, 0, 55, 95
2, 74160, Note_on_c, 0, 59, 95
2, 74392, Note_off_c, 0, 43, 80
2, 74392, Note_off_c, 0, 50, 80
2, 74392, Note_off_c, 0, 55, 80
2, 74392, Note_off_c, 0, 59, 80
2, 74400, Note_on_c, 0, 43, 95
2, 74400, Note_on_c, 0, 50, 95
2, 74400, Note_on_c, 0, 55, 95
2, 74400, Note_on_c, 0, 59, 95
2, 74632, Note_off_c, 0, 43, 80
2, 74632, Note_off_c, 0, 50, 80
2, 74632, Note_off_c, 0, 55, 80
2, 74632, Note_off_c, 0, 59, 80
2, 74640, Note_on_c, 0, 43, 95
2, 74640, Note_on_c, 0, 50, 95
2, 74640, Note_on_c, 0, 55, 95
2, 74640, Note_on_c, 0, 59, 95
2, 74872, Note_off_c, 0, 43, 80
2, 74872, Note_off_c, 0, 50, 80
2, 74872, Note_off_c, 0, 55, 80
2, 74872, Note_off_c, 0, 59, 80
2, 74880, Note_on_c, 0, 40, 95
2, 74880, Note_on_c, 0, 47, 95
2, 74880, Note_on_c, 0, 52, 95
2, 75096, Pitch_bend_c, 0, 8832
2, 75112, Note_off_c, 0, 47, 80
2, 75120, Pitch_bend_c, 0, 9600
2, 75120, Note_on_c, 0, 49, 95
2, 75336, Pitch_bend_c, 0, 8960
2, 75352, Note_off_c, 0, 49, 80
2, 75360, Pitch_bend_c, 0, 8192
2, 75360, Note_on_c, 0, 47, 95
2, 75832, Note_off_c, 0, 40, 80
2, 75832, Note_off_c, 0, 52, 80
2, 75832, Note_off_c, 0, 47, 80
2, 75840, Note_on_c, 0, 40, 95
2, 75840, Note_on_c, 0, 47, 95
2, 75840, Note_on_c, 0, 52, 95
2, 76072, Note_off_c, 0, 40, 80
2, 76072, Note_off_c, 0, 47, 80
2, 76072, Note_off_c, 0, 52, 80
2, 76080, Note_on_c, 0, 40, 95
2, 76080, Note_on_c, 0, 47, 95
2, 76080, Note_on_c, 0, 52, 95
2, 76312, Note_off_c, 0, 40, 80
2, 76312, Note_off_c, 0, 47, 80
2, 76312, Note_off_c, 0, 52, 80
2, 76320, Note_on_c, 0, 38, 95
2, 76320, Note_on_c, 0, 45, 95
2, 76320, Note_on_c, 0, 50, 95
2, 76552, Note_off_c, 0, 38, 80
2, 76552, Note_off_c, 0, 45, 80
2, 76552, Note_off_c, 0, 50, 80
2, 76560, Note_on_c, 0, 40, 95
2, 76560, Note_on_c, 0, 47, 95
2, 76560, Note_on_c, 0, 52, 95
2, 77032, Note_off_c, 0, 40, 80
2, 77032, Note_off_c, 0, 47, 80
2, 77032, Note_off_c, 0, 52, 80
2, 77040, Note_on_c, 0, 42, 95
2, 77040, Note_on_c, 0, 49, 95
2, 77040, Note_on_c, 0, 54, 95
2, 77040, Note_on_c, 0, 57, 95
2, 77512, Note_off_c, 0, 42, 80
2, 77512, Note_off_c, 0, 49, 80
2, 77512, Note_off_c, 0, 54, 80
2, 77512, Note_off_c, 0, 57, 80
2, 77520, Note_on_c, 0, 40, 95
2, 77520, Note_on_c, 0, 47, 95
2, 77520, Note_on_c, 0, 52, 95
2, 77992, Note_off_c, 0, 40, 80
2, 77992, Note_off_c, 0, 47, 80
2, 77992, Note_off_c, 0, 52, 80
2, 78000, Note_on_c, 0, 38, 95
2, 78000, Note_on_c, 0, 45, 95
2, 78000, Note_on_c, 0, 50, 95
2, 78232, Note_off_c, 0, 38, 80
2, 78232, Note_off_c, 0, 45, 80
2, 78232, Note_off_c, 0, 50, 80
2, 78240, Note_on_c, 0, 38, 95
2, 78240, Note_on_c, 0, 45, 95
2, 78240, Note_on_c, 0, 50, 95
2, 78712, Note_off_c, 0, 38, 80
2, 78712, Note_off_c, 0, 45, 80
2, 78712, Note_off_c, 0, 50, 80
2, 78720, Note_on_c, 0, 47, 95
2, 79200, Note_on_c, 0, 59, 95
2, 79200, Note_on_c, 0, 62, 95
2, 79672, Note_off_c, 0, 59, 80
2, 79672, Note_off_c, 0, 62, 80
2, 79680, Note_on_c, 0, 59, 95
2, 79680, Note_on_c, 0, 62, 95
2, 79692, Note_off_c, 0, 59, 80
2, 79692, Note_off_c, 0, 62, 80
2, 79920, Note_on_c, 0, 59, 95
2, 79920, Note_on_c, 0, 62, 95
2, 80152, Note_off_c, 0, 47, 80
2, 80160, Note_on_c, 0, 47, 95
2, 80392, Note_off_c, 0, 59, 80
2, 80392, Note_off_c, 0, 62, 80
2, 80400, Note_on_c, 0, 59, 95
2, 80400, Note_on_c, 0, 62, 95
2, 80872, Note_off_c, 0, 59, 80
2, 80872, Note_off_c, 0, 62, 80
2, 80880, Note_on_c, 0, 59, 95
2, 80880, Note_on_c, 0, 62, 95
2, 81112, Note_off_c, 0, 59, 80
2, 81112, Note_off_c, 0, 62, 80
2, 81120, Note_on_c, 0, 59, 95
2, 81120, Note_on_c, 0, 62, 95
2, 81592, Note_off_c, 0, 47, 80
2, 81600, Note_on_c, 0, 47, 95
2, 81600, Note_on_c, 0, 54, 95
2, 81612, Note_off_c, 0, 54, 80
2, 81832, Note_off_c, 0, 47, 80
2, 81840, Note_on_c, 0, 47, 95
2, 81840, Note_on_c, 0, 54, 95
2, 81852, Note_off_c, 0, 54, 80
2, 82072, Note_off_c, 0, 59, 80
2, 82072, Note_off_c, 0, 62, 80
2, 82080, Note_on_c, 0, 59, 95
2, 82080, Note_on_c, 0, 62, 95
2, 82312, Note_off_c, 0, 59, 80
2, 82312, Note_off_c, 0, 62, 80
2, 82320, Note_on_c, 0, 59, 95
2, 82320, Note_on_c, 0, 62, 95
2, 82552, Note_off_c, 0, 47, 80
2, 82560, Note_on_c, 0, 47, 95
2, 83032, Note_off_c, 0, 59, 80
2, 83032, Note_off_c, 0, 62, 80
2, 83040, Note_on_c, 0, 59, 95
2, 83040, Note_on_c, 0, 62, 95
2, 83512, Note_off_c, 0, 59, 80
2, 83512, Note_off_c, 0, 62, 80
2, 83520, Note_on_c, 0, 59, 95
2, 83520, Note_on_c, 0, 62, 95
2, 83532, Note_off_c, 0, 59, 80
2, 83532, Note_off_c, 0, 62, 80
2, 83760, Note_on_c, 0, 59, 95
2, 83760, Note_on_c, 0, 62, 95
2, 83992, Note_off_c, 0, 47, 80
2, 84000, Note_on_c, 0, 38, 95
2, 84232, Note_off_c, 0, 38, 80
2, 84240, Note_on_c, 0, 38, 95
2, 84240, Note_on_c, 0, 50, 95
2, 84712, Note_off_c, 0, 38, 80
2, 84712, Note_off_c, 0, 50, 80
2, 84720, Note_on_c, 0, 38, 95
2, 84720, Note_on_c, 0, 52, 95
2, 85192, Note_off_c, 0, 38, 80
2, 85192, Note_off_c, 0, 52, 80
2, 85200, Note_on_c, 0, 38, 95
2, 85200, Note_on_c, 0, 54, 95
2, 85672, Note_off_c, 0, 59, 80
2, 85672, Note_off_c, 0, 62, 80
2, 85672, Note_off_c, 0, 38, 80
2, 85672, Note_off_c, 0, 54, 80
2, 85680, Note_on_c, 0, 38, 95
2, 85680, Note_on_c, 0, 54, 95
2, 85680, Note_on_c, 0, 57, 95
2, 85692, Note_off_c, 0, 54, 80
2, 86152, Note_off_c, 0, 57, 80
2, 86160, Note_on_c, 0, 54, 95
2, 86160, Note_on_c, 0, 59, 95
2, 86172, Note_off_c, 0, 54, 80
2, 86392, Note_off_c, 0, 38, 80
2, 86400, Note_on_c, 0, 47, 95
2, 86872, Note_off_c, 0, 59, 80
2, 86880, Note_on_c, 0, 59, 95
2, 86880, Note_on_c, 0, 62, 95
2, 87352, Note_off_c, 0, 59, 80
2, 87352, Note_off_c, 0, 62, 80
2, 87360, Note_on_c, 0, 59, 95
2, 87360, Note_on_c, 0, 62, 95
2, 87372, Note_off_c, 0, 59, 80
2, 87372, Note_off_c, 0, 62, 80
2, 87600, Note_on_c, 0, 59, 95
2, 87600, Note_on_c, 0, 62, 95
2, 87832, Note_off_c, 0, 47, 80
2, 87840, Note_on_c, 0, 47, 95
2, 88072, Note_off_c, 0, 59, 80
2, 88072, Note_off_c, 0, 62, 80
2, 88080, Note_on_c, 0, 59, 95
2, 88080, Note_on_c, 0, 62, 95
2, 88552, Note_off_c, 0, 59, 80
2, 88552, Note_off_c, 0, 62, 80
2, 88560, Note_on_c, 0, 59, 95
2, 88560, Note_on_c, 0, 62, 95
2, 88792, Note_off_c, 0, 59, 80
2, 88792, Note_off_c, 0, 62, 80
2, 88800, Note_on_c, 0, 59, 95
2, 88800, Note_on_c, 0, 62, 95
2, 89272, Note_off_c, 0, 47, 80
2, 89280, Note_on_c, 0, 47, 95
2, 89280, Note_on_c, 0, 54, 95
2, 89292, Note_off_c, 0, 54, 80
2, 89512, Note_off_c, 0, 47, 80
2, 89520, Note_on_c, 0, 47, 95
2, 89520, Note_on_c, 0, 54, 95
2, 89532, Note_off_c, 0, 54, 80
2, 89752, Note_off_c, 0, 59, 80
2, 89752, Note_off_c, 0, 62, 80
2, 89760, Note_on_c, 0, 59, 95
2, 89760, Note_on_c, 0, 62, 95
2, 89992, Note_off_c, 0, 59, 80
2, 89992, Note_off_c, 0, 62, 80
2, 90000, Note_on_c, 0, 59, 95
2, 90000, Note_on_c, 0, 62, 95
2, 90232, Note_off_c, 0, 47, 80
2, 90240, Note_on_c, 0, 47, 95
2, 90712, Note_off_c, 0, 59, 80
2, 90712, Note_off_c, 0, 62, 80
2, 90720, Note_on_c, 0, 59, 95
2, 90720, Note_on_c, 0, 62, 95
2, 91192, Note_off_c, 0, 59, 80
2, 91192, Note_off_c, 0, 62, 80
2, 91200, Note_on_c, 0, 59, 95
2, 91200, Note_on_c, 0, 62, 95
2, 91212, Note_off_c, 0, 59, 80
2, 91212, Note_off_c, 0, 62, 80
2, 91440, Note_on_c, 0, 59, 95
2, 91440, Note_on_c, 0, 62, 95
2, 91672, Note_off_c, 0, 47, 80
2, 91680, Note_on_c, 0, 38, 95
2, 91912, Note_off_c, 0, 38, 80
2, 91920, Note_on_c, 0, 38, 95
2, 91920, Note_on_c, 0, 50, 95
2, 92392, Note_off_c, 0, 38, 80
2, 92392, Note_off_c, 0, 50, 80
2, 92400, Note_on_c, 0, 38, 95
2, 92400, Note_on_c, 0, 52, 95
2, 92872, Note_off_c, 0, 38, 80
2, 92872, Note_off_c, 0, 52, 80
2, 92880, Note_on_c, 0, 38, 95
2, 92880, Note_on_c, 0, 54, 95
2, 93352, Note_off_c, 0, 59, 80
2, 93352, Note_off_c, 0, 62, 80
2, 93352, Note_off_c, 0, 38, 80
2, 93352, Note_off_c, 0, 54, 80
2, 93360, Note_on_c, 0, 38, 95
2, 93360, Note_on_c, 0, 54, 95
2, 93360, Note_on_c, 0, 57, 95
2, 93372, Note_off_c, 0, 54, 80
2, 93832, Note_off_c, 0, 57, 80
2, 93840, Note_on_c, 0, 54, 95
2, 93840, Note_on_c, 0, 59, 95
2, 93852, Note_off_c, 0, 54, 80
2, 94072, Note_off_c, 0, 38, 80
2, 94072, Note_off_c, 0, 59, 80
2, 94080, Note_on_c, 0, 43, 95
2, 94080, Note_on_c, 0, 50, 95
2, 94080, Note_on_c, 0, 55, 95
2, 94080, Note_on_c, 0, 59, 95
2, 94552, Note_off_c, 0, 43, 80
2, 94552, Note_off_c, 0, 50, 80
2, 94552, Note_off_c, 0, 55, 80
2, 94552, Note_off_c, 0, 59, 80
2, 94560, Note_on_c, 0, 43, 95
2, 94560, Note_on_c, 0, 50, 95
2, 94560, Note_on_c, 0, 55, 95
2, 94560, Note_on_c, 0, 59, 95
2, 95032, Note_off_c, 0, 43, 80
2, 95032, Note_off_c, 0, 50, 80
2, 95032, Note_off_c, 0, 55, 80
2, 95032, Note_off_c, 0, 59, 80
2, 95040, Note_on_c, 0, 43, 95
2, 95040, Note_on_c, 0, 50, 95
2, 95040, Note_on_c, 0, 55, 95
2, 95040, Note_on_c, 0, 59, 95
2, 95272, Note_off_c, 0, 43, 80
2, 95272, Note_off_c, 0, 50, 80
2, 95272, Note_off_c, 0, 55, 80
2, 95272, Note_off_c, 0, 59, 80
2, 95280, Note_on_c, 0, 43, 95
2, 95280, Note_on_c, 0, 50, 95
2, 95280, Note_on_c, 0, 55, 95
2, 95280, Note_on_c, 0, 59, 95
2, 95512, Note_off_c, 0, 43, 80
2, 95512, Note_off_c, 0, 50, 80
2, 95512, Note_off_c, 0, 55, 80
2, 95512, Note_off_c, 0, 59, 80
2, 95520, Note_on_c, 0, 43, 95
2, 95520, Note_on_c, 0, 50, 95
2, 95520, Note_on_c, 0, 55, 95
2, 95520, Note_on_c, 0, 59, 95
2, 95752, Note_off_c, 0, 43, 80
2, 95752, Note_off_c, 0, 50, 80
2, 95752, Note_off_c, 0, 55, 80
2, 95752, Note_off_c, 0, 59, 80
2, 95760, Note_on_c, 0, 42, 95
2, 95760, Note_on_c, 0, 49, 95
2, 95760, Note_on_c, 0, 54, 95
2, 95760, Note_on_c, 0, 57, 95
2, 96232, Note_off_c, 0, 42, 80
2, 96232, Note_off_c, 0, 49, 80
2, 96232, Note_off_c, 0, 54, 80
2, 96232, Note_off_c, 0, 57, 80
2, 96240, Note_on_c, 0, 42, 95
2, 96240, Note_on_c, 0, 49, 95
2, 96240, Note_on_c, 0, 54, 95
2, 96240, Note_on_c, 0, 57, 95
2, 96472, Note_off_c, 0, 42, 80
2, 96472, Note_off_c, 0, 49, 80
2, 96472, Note_off_c, 0, 54, 80
2, 96472, Note_off_c, 0, 57, 80
2, 96480, Note_on_c, 0, 42, 95
2, 96480, Note_on_c, 0, 49, 95
2, 96480, Note_on_c, 0, 54, 95
2, 96480, Note_on_c, 0, 57, 95
2, 97192, Note_off_c, 0, 42, 80
2, 97192, Note_off_c, 0, 49, 80
2, 97192, Note_off_c, 0, 54, 80
2, 97192, Note_off_c, 0, 57, 80
2, 97200, Note_on_c, 0, 42, 95
2, 97200, Note_on_c, 0, 49, 95
2, 97200, Note_on_c, 0, 54, 95
2, 97200, Note_on_c, 0, 57, 95
2, 97432, Note_off_c, 0, 42, 80
2, 97432, Note_off_c, 0, 49, 80
2, 97432, Note_off_c, 0, 54, 80
2, 97432, Note_off_c, 0, 57, 80
2, 97440, Note_on_c, 0, 42, 95
2, 97440, Note_on_c, 0, 49, 95
2, 97440, Note_on_c, 0, 54, 95
2, 97440, Note_on_c, 0, 57, 95
2, 97672, Note_off_c, 0, 42, 80
2, 97672, Note_off_c, 0, 49, 80
2, 97672, Note_off_c, 0, 54, 80
2, 97672, Note_off_c, 0, 57, 80
2, 97680, Note_on_c, 0, 42, 95
2, 97680, Note_on_c, 0, 49, 95
2, 97680, Note_on_c, 0, 54, 95
2, 97680, Note_on_c, 0, 57, 95
2, 97912, Note_off_c, 0, 42, 80
2, 97912, Note_off_c, 0, 49, 80
2, 97912, Note_off_c, 0, 54, 80
2, 97912, Note_off_c, 0, 57, 80
2, 97920, Note_on_c, 0, 42, 95
2, 97920, Note_on_c, 0, 49, 95
2, 97920, Note_on_c, 0, 54, 95
2, 97920, Note_on_c, 0, 57, 95
2, 98112, Pitch_bend_c, 0, 8832
2, 98152, Note_off_c, 0, 42, 80
2, 98152, Note_off_c, 0, 49, 80
2, 98152, Note_off_c, 0, 54, 80
2, 98152, Note_off_c, 0, 57, 80
2, 98160, Pitch_bend_c, 0, 8192
2, 98160, Note_on_c, 0, 43, 76
2, 98160, Note_on_c, 0, 50, 76
2, 98160, Note_on_c, 0, 55, 76
2, 98160, Note_on_c, 0, 59, 76
2, 98352, Pitch_bend_c, 0, 7552
2, 98392, Note_off_c, 0, 43, 80
2, 98392, Note_off_c, 0, 50, 80
2, 98392, Note_off_c, 0, 55, 80
2, 98392, Note_off_c, 0, 59, 80
2, 98400, Pitch_bend_c, 0, 8192
2, 98400, Note_on_c, 0, 42, 76
2, 98400, Note_on_c, 0, 49, 76
2, 98400, Note_on_c, 0, 54, 76
2, 98400, Note_on_c, 0, 57, 76
2, 98872, Note_off_c, 0, 42, 80
2, 98872, Note_off_c, 0, 49, 80
2, 98872, Note_off_c, 0, 54, 80
2, 98872, Note_off_c, 0, 57, 80
2, 98880, Note_on_c, 0, 42, 95
2, 98880, Note_on_c, 0, 49, 95
2, 98880, Note_on_c, 0, 54, 95
2, 98880, Note_on_c, 0, 57, 95
2, 99112, Note_off_c, 0, 42, 80
2, 99112, Note_off_c, 0, 49, 80
2, 99112, Note_off_c, 0, 54, 80
2, 99112, Note_off_c, 0, 57, 80
2, 99120, Note_on_c, 0, 42, 95
2, 99120, Note_on_c, 0, 49, 95
2, 99120, Note_on_c, 0, 54, 95
2, 99120, Note_on_c, 0, 57, 95
2, 99352, Note_off_c, 0, 42, 80
2, 99352, Note_off_c, 0, 49, 80
2, 99352, Note_off_c, 0, 54, 80
2, 99352, Note_off_c, 0, 57, 80
2, 99360, Note_on_c, 0, 38, 95
2, 99360, Note_on_c, 0, 45, 95
2, 99360, Note_on_c, 0, 50, 95
2, 99592, Note_off_c, 0, 38, 80
2, 99592, Note_off_c, 0, 45, 80
2, 99592, Note_off_c, 0, 50, 80
2, 99600, Note_on_c, 0, 40, 95
2, 99600, Note_on_c, 0, 47, 95
2, 99600, Note_on_c, 0, 52, 95
2, 99600, Note_on_c, 0, 55, 95
2, 100072, Note_off_c, 0, 40, 80
2, 100072, Note_off_c, 0, 47, 80
2, 100072, Note_off_c, 0, 52, 80
2, 100072, Note_off_c, 0, 55, 80
2, 100080, Note_on_c, 0, 42, 95
2, 100080, Note_on_c, 0, 49, 95
2, 100080, Note_on_c, 0, 54, 95
2, 100080, Note_on_c, 0, 57, 95
2, 100552, Note_off_c, 0, 42, 80
2, 100552, Note_off_c, 0, 49, 80
2, 100552, Note_off_c, 0, 54, 80
2, 100552, Note_off_c, 0, 57, 80
2, 100560, Note_on_c, 0, 40, 95
2, 100560, Note_on_c, 0, 47, 95
2, 100560, Note_on_c, 0, 52, 95
2, 101032, Note_off_c, 0, 40, 80
2, 101032, Note_off_c, 0, 47, 80
2, 101032, Note_off_c, 0, 52, 80
2, 101040, Note_on_c, 0, 38, 95
2, 101040, Note_on_c, 0, 45, 95
2, 101040, Note_on_c, 0, 50, 95
2, 101272, Note_off_c, 0, 38, 80
2, 101272, Note_off_c, 0, 45, 80
2, 101272, Note_off_c, 0, 50, 80
2, 101280, Note_on_c, 0, 38, 95
2, 101280, Note_on_c, 0, 45, 95
2, 101280, Note_on_c, 0, 50, 95
2, 101752, Note_off_c, 0, 38, 80
2, 101752, Note_off_c, 0, 45, 80
2, 101752, Note_off_c, 0, 50, 80
2, 101760, Note_on_c, 0, 45, 95
2, 101760, Note_on_c, 0, 52, 95
2, 101760, Note_on_c, 0, 57, 95
2, 101760, Note_on_c, 0, 61, 95
2, 102232, Note_off_c, 0, 45, 80
2, 102232, Note_off_c, 0, 52, 80
2, 102232, Note_off_c, 0, 57, 80
2, 102232, Note_off_c, 0, 61, 80
2, 102240, Note_on_c, 0, 45, 95
2, 102240, Note_on_c, 0, 52, 95
2, 102240, Note_on_c, 0, 57, 95
2, 102240, Note_on_c, 0, 61, 95
2, 102712, Note_off_c, 0, 45, 80
2, 102712, Note_off_c, 0, 52, 80
2, 102712, Note_off_c, 0, 57, 80
2, 102712, Note_off_c, 0, 61, 80
2, 102720, Note_on_c, 0, 45, 95
2, 102720, Note_on_c, 0, 52, 95
2, 102720, Note_on_c, 0, 57, 95
2, 102720, Note_on_c, 0, 61, 95
2, 102952, Note_off_c, 0, 45, 80
2, 102952, Note_off_c, 0, 52, 80
2, 102952, Note_off_c, 0, 57, 80
2, 102952, Note_off_c, 0, 61, 80
2, 102960, Note_on_c, 0, 45, 95
2, 102960, Note_on_c, 0, 52, 95
2, 102960, Note_on_c, 0, 57, 95
2, 102960, Note_on_c, 0, 61, 95
2, 103192, Note_off_c, 0, 45, 80
2, 103192, Note_off_c, 0, 52, 80
2, 103192, Note_off_c, 0, 57, 80
2, 103192, Note_off_c, 0, 61, 80
2, 103200, Note_on_c, 0, 45, 95
2, 103200, Note_on_c, 0, 52, 95
2, 103200, Note_on_c, 0, 57, 95
2, 103200, Note_on_c, 0, 61, 95
2, 103432, Note_off_c, 0, 45, 80
2, 103432, Note_off_c, 0, 52, 80
2, 103432, Note_off_c, 0, 57, 80
2, 103432, Note_off_c, 0, 61, 80
2, 103440, Note_on_c, 0, 43, 95
2, 103440, Note_on_c, 0, 50, 95
2, 103440, Note_on_c, 0, 55, 95
2, 103440, Note_on_c, 0, 59, 95
2, 103912, Note_off_c, 0, 43, 80
2, 103912, Note_off_c, 0, 50, 80
2, 103912, Note_off_c, 0, 55, 80
2, 103912, Note_off_c, 0, 59, 80
2, 103920, Note_on_c, 0, 43, 95
2, 103920, Note_on_c, 0, 50, 95
2, 103920, Note_on_c, 0, 55, 95
2, 103920, Note_on_c, 0, 59, 95
2, 104392, Note_off_c, 0, 43, 80
2, 104392, Note_off_c, 0, 50, 80
2, 104392, Note_off_c, 0, 55, 80
2, 104392, Note_off_c, 0, 59, 80
2, 104400, Note_on_c, 0, 43, 95
2, 104400, Note_on_c, 0, 50, 95
2, 104400, Note_on_c, 0, 55, 95
2, 104400, Note_on_c, 0, 59, 95
2, 104872, Note_off_c, 0, 43, 80
2, 104872, Note_off_c, 0, 50, 80
2, 104872, Note_off_c, 0, 55, 80
2, 104872, Note_off_c, 0, 59, 80
2, 104880, Note_on_c, 0, 43, 95
2, 104880, Note_on_c, 0, 50, 95
2, 104880, Note_on_c, 0, 55, 95
2, 104880, Note_on_c, 0, 59, 95
2, 105112, Note_off_c, 0, 43, 80
2, 105112, Note_off_c, 0, 50, 80
2, 105112, Note_off_c, 0, 55, 80
2, 105112, Note_off_c, 0, 59, 80
2, 105120, Note_on_c, 0, 43, 95
2, 105120, Note_on_c, 0, 50, 95
2, 105120, Note_on_c, 0, 55, 95
2, 105120, Note_on_c, 0, 59, 95
2, 105352, Note_off_c, 0, 43, 80
2, 105352, Note_off_c, 0, 50, 80
2, 105352, Note_off_c, 0, 55, 80
2, 105352, Note_off_c, 0, 59, 80
2, 105360, Note_on_c, 0, 43, 95
2, 105360, Note_on_c, 0, 50, 95
2, 105360, Note_on_c, 0, 55, 95
2, 105360, Note_on_c, 0, 59, 95
2, 105592, Note_off_c, 0, 43, 80
2, 105592, Note_off_c, 0, 50, 80
2, 105592, Note_off_c, 0, 55, 80
2, 105592, Note_off_c, 0, 59, 80
2, 105600, Note_on_c, 0, 40, 95
2, 105600, Note_on_c, 0, 47, 95
2, 105600, Note_on_c, 0, 52, 95
2, 105816, Pitch_bend_c, 0, 8832
2, 105832, Note_off_c, 0, 47, 80
2, 105840, Pitch_bend_c, 0, 9600
2, 105840, Note_on_c, 0, 49, 95
2, 106056, Pitch_bend_c, 0, 8960
2, 106072, Note_off_c, 0, 49, 80
2, 106080, Pitch_bend_c, 0, 8192
2, 106080, Note_on_c, 0, 47, 95
2, 106552, Note_off_c, 0, 40, 80
2, 106552, Note_off_c, 0, 52, 80
2, 106552, Note_off_c, 0, 47, 80
2, 106560, Note_on_c, 0, 40, 95
2, 106560, Note_on_c, 0, 47, 95
2, 106560, Note_on_c, 0, 52, 95
2, 106792, Note_off_c, 0, 40, 80
2, 106792, Note_off_c, 0, 47, 80
2, 106792, Note_off_c, 0, 52, 80
2, 106800, Note_on_c, 0, 40, 95
2, 106800, Note_on_c, 0, 47, 95
2, 106800, Note_on_c, 0, 52, 95
2, 107032, Note_off_c, 0, 40, 80
2, 107032, Note_off_c, 0, 47, 80
2, 107032, Note_off_c, 0, 52, 80
2, 107040, Note_on_c, 0, 38, 95
2, 107040, Note_on_c, 0, 45, 95
2, 107040, Note_on_c, 0, 50, 95
2, 107272, Note_off_c, 0, 38, 80
2, 107272, Note_off_c, 0, 45, 80
2, 107272, Note_off_c, 0, 50, 80
2, 107280, Note_on_c, 0, 40, 95
2, 107280, Note_on_c, 0, 47, 95
2, 107280, Note_on_c, 0, 52, 95
2, 107752, Note_off_c, 0, 40, 80
2, 107752, Note_off_c, 0, 47, 80
2, 107752, Note_off_c, 0, 52, 80
2, 107760, Note_on_c, 0, 42, 95
2, 107760, Note_on_c, 0, 49, 95
2, 107760, Note_on_c, 0, 54, 95
2, 107760, Note_on_c, 0, 57, 95
2, 108232, Note_off_c, 0, 42, 80
2, 108232, Note_off_c, 0, 49, 80
2, 108232, Note_off_c, 0, 54, 80
2, 108232, Note_off_c, 0, 57, 80
2, 108240, Note_on_c, 0, 40, 95
2, 108240, Note_on_c, 0, 47, 95
2, 108240, Note_on_c, 0, 52, 95
2, 108712, Note_off_c, 0, 40, 80
2, 108712, Note_off_c, 0, 47, 80
2, 108712, Note_off_c, 0, 52, 80
2, 108720, Note_on_c, 0, 38, 95
2, 108720, Note_on_c, 0, 45, 95
2, 108720, Note_on_c, 0, 50, 95
2, 108952, Note_off_c, 0, 38, 80
2, 108952, Note_off_c, 0, 45, 80
2, 108952, Note_off_c, 0, 50, 80
2, 108960, Note_on_c, 0, 38, 95
2, 108960, Note_on_c, 0, 45, 95
2, 108960, Note_on_c, 0, 50, 95
2, 109432, Note_off_c, 0, 38, 80
2, 109432, Note_off_c, 0, 45, 80
2, 109432, Note_off_c, 0, 50, 80
2, 109440, Note_on_c, 0, 47, 95
2, 109920, Note_on_c, 0, 59, 95
2, 109920, Note_on_c, 0, 62, 95
2, 110392, Note_off_c, 0, 59, 80
2, 110392, Note_off_c, 0, 62, 80
2, 110400, Note_on_c, 0, 59, 95
2, 110400, Note_on_c, 0, 62, 95
2, 110412, Note_off_c, 0, 59, 80
2, 110412, Note_off_c, 0, 62, 80
2, 110640, Note_on_c, 0, 59, 95
2, 110640, Note_on_c, 0, 62, 95
2, 110872, Note_off_c, 0, 47, 80
2, 110880, Note_on_c, 0, 47, 95
2, 111112, Note_off_c, 0, 59, 80
2, 111112, Note_off_c, 0, 62, 80
2, 111120, Note_on_c, 0, 59, 95
2, 111120, Note_on_c, 0, 62, 95
2, 111592, Note_off_c, 0, 59, 80
2, 111592, Note_off_c, 0, 62, 80
2, 111600, Note_on_c, 0, 59, 95
2, 111600, Note_on_c, 0, 62, 95
2, 111832, Note_off_c, 0, 59, 80
2, 111832, Note_off_c, 0, 62, 80
2, 111840, Note_on_c, 0, 59, 95
2, 111840, Note_on_c, 0, 62, 95
2, 112312, Note_off_c, 0, 47, 80
2, 112320, Note_on_c, 0, 47, 95
2, 112320, Note_on_c, 0, 54, 95
2, 112332, Note_off_c, 0, 54, 80
2, 112552, Note_off_c, 0, 47, 80
2, 112560, Note_on_c, 0, 47, 95
2, 112560, Note_on_c, 0, 54, 95
2, 112572, Note_off_c, 0, 54, 80
2, 112792, Note_off_c, 0, 59, 80
2, 112792, Note_off_c, 0, 62, 80
2, 112800, Note_on_c, 0, 59, 95
2, 112800, Note_on_c, 0, 62, 95
2, 113032, Note_off_c, 0, 59, 80
2, 113032, Note_off_c, 0, 62, 80
2, 113040, Note_on_c, 0, 59, 95
2, 113040, Note_on_c, 0, 62, 95
2, 113272, Note_off_c, 0, 47, 80
2, 113280, Note_on_c, 0, 47, 95
2, 113752, Note_off_c, 0, 59, 80
2, 113752, Note_off_c, 0, 62, 80
2, 113760, Note_on_c, 0, 59, 95
2, 113760, Note_on_c, 0, 62, 95
2, 114232, Note_off_c, 0, 59, 80
2, 114232, Note_off_c, 0, 62, 80
2, 114240, Note_on_c, 0, 59, 95
2, 114240, Note_on_c, 0, 62, 95
2, 114252, Note_off_c, 0, 59, 80
2, 114252, Note_off_c, 0, 62, 80
2, 114480, Note_on_c, 0, 59, 95
2, 114480, Note_on_c, 0, 62, 95
2, 114712, Note_off_c, 0, 47, 80
2, 114720, Note_on_c, 0, 38, 95
2, 114952, Note_off_c, 0, 38, 80
2, 114960, Note_on_c, 0, 38, 95
2, 114960, Note_on_c, 0, 50, 95
2, 115432, Note_off_c, 0, 38, 80
2, 115432, Note_off_c, 0, 50, 80
2, 115440, Note_on_c, 0, 38, 95
2, 115440, Note_on_c, 0, 52, 95
2, 115912, Note_off_c, 0, 38, 80
2, 115912, Note_off_c, 0, 52, 80
2, 115920, Note_on_c, 0, 38, 95
2, 115920, Note_on_c, 0, 54, 95
2, 116392, Note_off_c, 0, 59, 80
2, 116392, Note_off_c, 0, 62, 80
2, 116392, Note_off_c, 0, 38, 80
2, 116392, Note_off_c, 0, 54, 80
2, 116400, Note_on_c, 0, 38, 95
2, 116400, Note_on_c, 0, 54, 95
2, 116400, Note_on_c, 0, 57, 95
2, 116412, Note_off_c, 0, 54, 80
2, 116872, Note_off_c, 0, 57, 80
2, 116880, Note_on_c, 0, 54, 95
2, 116880, Note_on_c, 0, 59, 95
2, 116892, Note_off_c, 0, 54, 80
2, 117112, Note_off_c, 0, 38, 80
2, 117120, Note_on_c, 0, 47, 95
2, 117592, Note_off_c, 0, 59, 80
2, 117600, Note_on_c, 0, 59, 95
2, 117600, Note_on_c, 0, 62, 95
2, 118072, Note_off_c, 0, 59, 80
2, 118072, Note_off_c, 0, 62, 80
2, 118080, Note_on_c, 0, 59, 95
2, 118080, Note_on_c, 0, 62, 95
2, 118092, Note_off_c, 0, 59, 80
2, 118092, Note_off_c, 0, 62, 80
2, 118320, Note_on_c, 0, 59, 95
2, 118320, Note_on_c, 0, 62, 95
2, 118552, Note_off_c, 0, 47, 80
2, 118560, Note_on_c, 0, 47, 95
2, 118792, Note_off_c, 0, 59, 80
2, 118792, Note_off_c, 0, 62, 80
2, 118800, Note_on_c, 0, 59, 95
2, 118800, Note_on_c, 0, 62, 95
2, 119272, Note_off_c, 0, 59, 80
2, 119272, Note_off_c, 0, 62, 80
2, 119280, Note_on_c, 0, 59, 95
2, 119280, Note_on_c, 0, 62, 95
2, 119512, Note_off_c, 0, 59, 80
2, 119512, Note_off_c, 0, 62, 80
2, 119520, Note_on_c, 0, 59, 95
2, 119520, Note_on_c, 0, 62, 95
2, 119992, Note_off_c, 0, 47, 80
2, 120000, Note_on_c, 0, 47, 95
2, 120000, Note_on_c, 0, 54, 95
2, 120012, Note_off_c, 0, 54, 80
2, 120232, Note_off_c, 0, 47, 80
2, 120240, Note_on_c, 0, 47, 95
2, 120240, Note_on_c, 0, 54, 95
2, 120252, Note_off_c, 0, 54, 80
2, 120472, Note_off_c, 0, 59, 80
2, 120472, Note_off_c, 0, 62, 80
2, 120480, Note_on_c, 0, 59, 95
2, 120480, Note_on_c, 0, 62, 95
2, 120712, Note_off_c, 0, 59, 80
2, 120712, Note_off_c, 0, 62, 80
2, 120720, Note_on_c, 0, 59, 95
2, 120720, Note_on_c, 0, 62, 95
2, 120952, Note_off_c, 0, 47, 80
2, 120960, Note_on_c, 0, 47, 95
2, 121432, Note_off_c, 0, 59, 80
2, 121432, Note_off_c, 0, 62, 80
2, 121440, Note_on_c, 0, 59, 95
2, 121440, Note_on_c, 0, 62, 95
2, 121912, Note_off_c, 0, 59, 80
2, 121912, Note_off_c, 0, 62, 80
2, 121920, Note_on_c, 0, 59, 95
2, 121920, Note_on_c, 0, 62, 95
2, 121932, Note_off_c, 0, 59, 80
2, 121932, Note_off_c, 0, 62, 80
2, 122160, Note_on_c, 0, 59, 95
2, 122160, Note_on_c, 0, 62, 95
2, 122392, Note_off_c, 0, 47, 80
2, 122400, Note_on_c, 0, 38, 95
2, 122632, Note_off_c, 0, 38, 80
2, 122640, Note_on_c, 0, 38, 95
2, 122640, Note_on_c, 0, 50, 95
2, 123112, Note_off_c, 0, 38, 80
2, 123112, Note_off_c, 0, 50, 80
2, 123120, Note_on_c, 0, 38, 95
2, 123120, Note_on_c, 0, 52, 95
2, 123592, Note_off_c, 0, 38, 80
2, 123592, Note_off_c, 0, 52, 80
2, 123600, Note_on_c, 0, 38, 95
2, 123600, Note_on_c, 0, 54, 95
2, 124072, Note_off_c, 0, 59, 80
2, 124072, Note_off_c, 0, 62, 80
2, 124072, Note_off_c, 0, 38, 80
2, 124072, Note_off_c, 0, 54, 80
2, 124080, Note_on_c, 0, 38, 95
2, 124080, Note_on_c, 0, 54, 95
2, 124080, Note_on_c, 0, 57, 95
2, 124092, Note_off_c, 0, 54, 80
2, 124552, Note_off_c, 0, 57, 80
2, 124560, Note_on_c, 0, 54, 95
2, 124560, Note_on_c, 0, 59, 95
2, 124572, Note_off_c, 0, 54, 80
2, 124792, Note_off_c, 0, 38, 80
2, 124792, Note_off_c, 0, 59, 80
2, 124800, Note_on_c, 0, 43, 95
2, 124800, Note_on_c, 0, 50, 95
2, 124800, Note_on_c, 0, 55, 95
2, 124800, Note_on_c, 0, 59, 95
2, 125272, Note_off_c, 0, 43, 80
2, 125272, Note_off_c, 0, 50, 80
2, 125272, Note_off_c, 0, 55, 80
2, 125272, Note_off_c, 0, 59, 80
2, 125280, Note_on_c, 0, 43, 95
2, 125280, Note_on_c, 0, 50, 95
2, 125280, Note_on_c, 0, 55, 95
2, 125280, Note_on_c, 0, 59, 95
2, 125752, Note_off_c, 0, 43, 80
2, 125752, Note_off_c, 0, 50, 80
2, 125752, Note_off_c, 0, 55, 80
2, 125752, Note_off_c, 0, 59, 80
2, 125760, Note_on_c, 0, 43, 95
2, 125760, Note_on_c, 0, 50, 95
2, 125760, Note_on_c, 0, 55, 95
2, 125760, Note_on_c, 0, 59, 95
2, 125992, Note_off_c, 0, 43, 80
2, 125992, Note_off_c, 0, 50, 80
2, 125992, Note_off_c, 0, 55, 80
2, 125992, Note_off_c, 0, 59, 80
2, 126000, Note_on_c, 0, 43, 95
2, 126000, Note_on_c, 0, 50, 95
2, 126000, Note_on_c, 0, 55, 95
2, 126000, Note_on_c, 0, 59, 95
2, 126232, Note_off_c, 0, 43, 80
2, 126232, Note_off_c, 0, 50, 80
2, 126232, Note_off_c, 0, 55, 80
2, 126232, Note_off_c, 0, 59, 80
2, 126240, Note_on_c, 0, 43, 95
2, 126240, Note_on_c, 0, 50, 95
2, 126240, Note_on_c, 0, 55, 95
2, 126240, Note_on_c, 0, 59, 95
2, 126472, Note_off_c, 0, 43, 80
2, 126472, Note_off_c, 0, 50, 80
2, 126472, Note_off_c, 0, 55, 80
2, 126472, Note_off_c, 0, 59, 80
2, 126480, Note_on_c, 0, 42, 95
2, 126480, Note_on_c, 0, 49, 95
2, 126480, Note_on_c, 0, 54, 95
2, 126480, Note_on_c, 0, 57, 95
2, 126952, Note_off_c, 0, 42, 80
2, 126952, Note_off_c, 0, 49, 80
2, 126952, Note_off_c, 0, 54, 80
2, 126952, Note_off_c, 0, 57, 80
2, 126960, Note_on_c, 0, 42, 95
2, 126960, Note_on_c, 0, 49, 95
2, 126960, Note_on_c, 0, 54, 95
2, 126960, Note_on_c, 0, 57, 95
2, 127192, Note_off_c, 0, 42, 80
2, 127192, Note_off_c, 0, 49, 80
2, 127192, Note_off_c, 0, 54, 80
2, 127192, Note_off_c, 0, 57, 80
2, 127200, Note_on_c, 0, 42, 95
2, 127200, Note_on_c, 0, 49, 95
2, 127200, Note_on_c, 0, 54, 95
2, 127200, Note_on_c, 0, 57, 95
2, 127912, Note_off_c, 0, 42, 80
2, 127912, Note_off_c, 0, 49, 80
2, 127912, Note_off_c, 0, 54, 80
2, 127912, Note_off_c, 0, 57, 80
2, 127920, Note_on_c, 0, 42, 95
2, 127920, Note_on_c, 0, 49, 95
2, 127920, Note_on_c, 0, 54, 95
2, 127920, Note_on_c, 0, 57, 95
2, 128152, Note_off_c, 0, 42, 80
2, 128152, Note_off_c, 0, 49, 80
2, 128152, Note_off_c, 0, 54, 80
2, 128152, Note_off_c, 0, 57, 80
2, 128160, Note_on_c, 0, 42, 95
2, 128160, Note_on_c, 0, 49, 95
2, 128160, Note_on_c, 0, 54, 95
2, 128160, Note_on_c, 0, 57, 95
2, 128392, Note_off_c, 0, 42, 80
2, 128392, Note_off_c, 0, 49, 80
2, 128392, Note_off_c, 0, 54, 80
2, 128392, Note_off_c, 0, 57, 80
2, 128400, Note_on_c, 0, 42, 95
2, 128400, Note_on_c, 0, 49, 95
2, 128400, Note_on_c, 0, 54, 95
2, 128400, Note_on_c, 0, 57, 95
2, 128632, Note_off_c, 0, 42, 80
2, 128632, Note_off_c, 0, 49, 80
2, 128632, Note_off_c, 0, 54, 80
2, 128632, Note_off_c, 0, 57, 80
2, 128640, Note_on_c, 0, 42, 95
2, 128640, Note_on_c, 0, 49, 95
2, 128640, Note_on_c, 0, 54, 95
2, 128640, Note_on_c, 0, 57, 95
2, 128832, Pitch_bend_c, 0, 8832
2, 128872, Note_off_c, 0, 42, 80
2, 128872, Note_off_c, 0, 49, 80
2, 128872, Note_off_c, 0, 54, 80
2, 128872, Note_off_c, 0, 57, 80
2, 128880, Pitch_bend_c, 0, 8192
2, 128880, Note_on_c, 0, 43, 76
2, 128880, Note_on_c, 0, 50, 76
2, 128880, Note_on_c, 0, 55, 76
2, 128880, Note_on_c, 0, 59, 76
2, 129072, Pitch_bend_c, 0, 7552
2, 129112, Note_off_c, 0, 43, 80
2, 129112, Note_off_c, 0, 50, 80
2, 129112, Note_off_c, 0, 55, 80
2, 129112, Note_off_c, 0, 59, 80
2, 129120, Pitch_bend_c, 0, 8192
2, 129120, Note_on_c, 0, 42, 76
2, 129120, Note_on_c, 0, 49, 76
2, 129120, Note_on_c, 0, 54, 76
2, 129120, Note_on_c, 0, 57, 76
2, 129592, Note_off_c, 0, 42, 80
2, 129592, Note_off_c, 0, 49, 80
2, 129592, Note_off_c, 0, 54, 80
2, 129592, Note_off_c, 0, 57, 80
2, 129600, Note_on_c, 0, 42, 95
2, 129600, Note_on_c, 0, 49, 95
2, 129600, Note_on_c, 0, 54, 95
2, 129600, Note_on_c, 0, 57, 95
2, 129832, Note_off_c, 0, 42, 80
2, 129832, Note_off_c, 0, 49, 80
2, 129832, Note_off_c, 0, 54, 80
2, 129832, Note_off_c, 0, 57, 80
2, 129840, Note_on_c, 0, 42, 95
2, 129840, Note_on_c, 0, 49, 95
2, 129840, Note_on_c, 0, 54, 95
2, 129840, Note_on_c, 0, 57, 95
2, 130072, Note_off_c, 0, 42, 80
2, 130072, Note_off_c, 0, 49, 80
2, 130072, Note_off_c, 0, 54, 80
2, 130072, Note_off_c, 0, 57, 80
2, 130080, Note_on_c, 0, 38, 95
2, 130080, Note_on_c, 0, 45, 95
2, 130080, Note_on_c, 0, 50, 95
2, 130312, Note_off_c, 0, 38, 80
2, 130312, Note_off_c, 0, 45, 80
2, 130312, Note_off_c, 0, 50, 80
2, 130320, Note_on_c, 0, 40, 95
2, 130320, Note_on_c, 0, 47, 95
2, 130320, Note_on_c, 0, 52, 95
2, 130320, Note_on_c, 0, 55, 95
2, 130792, Note_off_c, 0, 40, 80
2, 130792, Note_off_c, 0, 47, 80
2, 130792, Note_off_c, 0, 52, 80
2, 130792, Note_off_c, 0, 55, 80
2, 130800, Note_on_c, 0, 42, 95
2, 130800, Note_on_c, 0, 49, 95
2, 130800, Note_on_c, 0, 54, 95
2, 130800, Note_on_c, 0, 57, 95
2, 131272, Note_off_c, 0, 42, 80
2, 131272, Note_off_c, 0, 49, 80
2, 131272, Note_off_c, 0, 54, 80
2, 131272, Note_off_c, 0, 57, 80
2, 131280, Note_on_c, 0, 40, 95
2, 131280, Note_on_c, 0, 47, 95
2, 131280, Note_on_c, 0, 52, 95
2, 131752, Note_off_c, 0, 40, 80
2, 131752, Note_off_c, 0, 47, 80
2, 131752, Note_off_c, 0, 52, 80
2, 131760, Note_on_c, 0, 38, 95
2, 131760, Note_on_c, 0, 45, 95
2, 131760, Note_on_c, 0, 50, 95
2, 131992, Note_off_c, 0, 38, 80
2, 131992, Note_off_c, 0, 45, 80
2, 131992, Note_off_c, 0, 50, 80
2, 132000, Note_on_c, 0, 38, 95
2, 132000, Note_on_c, 0, 45, 95
2, 132000, Note_on_c, 0, 50, 95
2, 132472, Note_off_c, 0, 38, 80
2, 132472, Note_off_c, 0, 45, 80
2, 132472, Note_off_c, 0, 50, 80
2, 132480, Note_on_c, 0, 45, 95
2, 132480, Note_on_c, 0, 52, 95
2, 132480, Note_on_c, 0, 57, 95
2, 132480, Note_on_c, 0, 61, 95
2, 132952, Note_off_c, 0, 45, 80
2, 132952, Note_off_c, 0, 52, 80
2, 132952, Note_off_c, 0, 57, 80
2, 132952, Note_off_c, 0, 61, 80
2, 132960, Note_on_c, 0, 45, 95
2, 132960, Note_on_c, 0, 52, 95
2, 132960, Note_on_c, 0, 57, 95
2, 132960, Note_on_c, 0, 61, 95
2, 133432, Note_off_c, 0, 45, 80
2, 133432, Note_off_c, 0, 52, 80
2, 133432, Note_off_c, 0, 57, 80
2, 133432, Note_off_c, 0, 61, 80
2, 133440, Note_on_c, 0, 45, 95
2, 133440, Note_on_c, 0, 52, 95
2, 133440, Note_on_c, 0, 57, 95
2, 133440, Note_on_c, 0, 61, 95
2, 133672, Note_off_c, 0, 45, 80
2, 133672, Note_off_c, 0, 52, 80
2, 133672, Note_off_c, 0, 57, 80
2, 133672, Note_off_c, 0, 61, 80
2, 133680, Note_on_c, 0, 45, 95
2, 133680, Note_on_c, 0, 52, 95
2, 133680, Note_on_c, 0, 57, 95
2, 133680, Note_on_c, 0, 61, 95
2, 133912, Note_off_c, 0, 45, 80
2, 133912, Note_off_c, 0, 52, 80
2, 133912, Note_off_c, 0, 57, 80
2, 133912, Note_off_c, 0, 61, 80
2, 133920, Note_on_c, 0, 45, 95
2, 133920, Note_on_c, 0, 52, 95
2, 133920, Note_on_c, 0, 57, 95
2, 133920, Note_on_c, 0, 61, 95
2, 134152, Note_off_c, 0, 45, 80
2, 134152, Note_off_c, 0, 52, 80
2, 134152, Note_off_c, 0, 57, 80
2, 134152, Note_off_c, 0, 61, 80
2, 134160, Note_on_c, 0, 43, 95
2, 134160, Note_on_c, 0, 50, 95
2, 134160, Note_on_c, 0, 55, 95
2, 134160, Note_on_c, 0, 59, 95
2, 134632, Note_off_c, 0, 43, 80
2, 134632, Note_off_c, 0, 50, 80
2, 134632, Note_off_c, 0, 55, 80
2, 134632, Note_off_c, 0, 59, 80
2, 134640, Note_on_c, 0, 43, 95
2, 134640, Note_on_c, 0, 50, 95
2, 134640, Note_on_c, 0, 55, 95
2, 134640, Note_on_c, 0, 59, 95
2, 135112, Note_off_c, 0, 43, 80
2, 135112, Note_off_c, 0, 50, 80
2, 135112, Note_off_c, 0, 55, 80
2, 135112, Note_off_c, 0, 59, 80
2, 135120, Note_on_c, 0, 43, 95
2, 135120, Note_on_c, 0, 50, 95
2, 135120, Note_on_c, 0, 55, 95
2, 135120, Note_on_c, 0, 59, 95
2, 135592, Note_off_c, 0, 43, 80
2, 135592, Note_off_c, 0, 50, 80
2, 135592, Note_off_c, 0, 55, 80
2, 135592, Note_off_c, 0, 59, 80
2, 135600, Note_on_c, 0, 43, 95
2, 135600, Note_on_c, 0, 50, 95
2, 135600, Note_on_c, 0, 55, 95
2, 135600, Note_on_c, 0, 59, 95
2, 135832, Note_off_c, 0, 43, 80
2, 135832, Note_off_c, 0, 50, 80
2, 135832, Note_off_c, 0, 55, 80
2, 135832, Note_off_c, 0, 59, 80
2, 135840, Note_on_c, 0, 43, 95
2, 135840, Note_on_c, 0, 50, 95
2, 135840, Note_on_c, 0, 55, 95
2, 135840, Note_on_c, 0, 59, 95
2, 136072, Note_off_c, 0, 43, 80
2, 136072, Note_off_c, 0, 50, 80
2, 136072, Note_off_c, 0, 55, 80
2, 136072, Note_off_c, 0, 59, 80
2, 136080, Note_on_c, 0, 43, 95
2, 136080, Note_on_c, 0, 50, 95
2, 136080, Note_on_c, 0, 55, 95
2, 136080, Note_on_c, 0, 59, 95
2, 136312, Note_off_c, 0, 43, 80
2, 136312, Note_off_c, 0, 50, 80
2, 136312, Note_off_c, 0, 55, 80
2, 136312, Note_off_c, 0, 59, 80
2, 136320, Note_on_c, 0, 40, 95
2, 136320, Note_on_c, 0, 47, 95
2, 136320, Note_on_c, 0, 52, 95
2, 136536, Pitch_bend_c, 0, 8832
2, 136552, Note_off_c, 0, 47, 80
2, 136560, Pitch_bend_c, 0, 9600
2, 136560, Note_on_c, 0, 49, 95
2, 136776, Pitch_bend_c, 0, 8960
2, 136792, Note_off_c, 0, 49, 80
2, 136800, Pitch_bend_c, 0, 8192
2, 136800, Note_on_c, 0, 47, 95
2, 137272, Note_off_c, 0, 40, 80
2, 137272, Note_off_c, 0, 52, 80
2, 137272, Note_off_c, 0, 47, 80
2, 137280, Note_on_c, 0, 40, 95
2, 137280, Note_on_c, 0, 47, 95
2, 137280, Note_on_c, 0, 52, 95
2, 137512, Note_off_c, 0, 40, 80
2, 137512, Note_off_c, 0, 47, 80
2, 137512, Note_off_c, 0, 52, 80
2, 137520, Note_on_c, 0, 40, 95
2, 137520, Note_on_c, 0, 47, 95
2, 137520, Note_on_c, 0, 52, 95
2, 137752, Note_off_c, 0, 40, 80
2, 137752, Note_off_c, 0, 47, 80
2, 137752, Note_off_c, 0, 52, 80
2, 137760, Note_on_c, 0, 38, 95
2, 137760, Note_on_c, 0, 45, 95
2, 137760, Note_on_c, 0, 50, 95
2, 137992, Note_off_c, 0, 38, 80
2, 137992, Note_off_c, 0, 45, 80
2, 137992, Note_off_c, 0, 50, 80
2, 138000, Note_on_c, 0, 40, 95
2, 138000, Note_on_c, 0, 47, 95
2, 138000, Note_on_c, 0, 52, 95
2, 138472, Note_off_c, 0, 40, 80
2, 138472, Note_off_c, 0, 47, 80
2, 138472, Note_off_c, 0, 52, 80
2, 138480, Note_on_c, 0, 42, 95
2, 138480, Note_on_c, 0, 49, 95
2, 138480, Note_on_c, 0, 54, 95
2, 138480, Note_on_c, 0, 57, 95
2, 138952, Note_off_c, 0, 42, 80
2, 138952, Note_off_c, 0, 49, 80
2, 138952, Note_off_c, 0, 54, 80
2, 138952, Note_off_c, 0, 57, 80
2, 138960, Note_on_c, 0, 40, 95
2, 138960, Note_on_c, 0, 47, 95
2, 138960, Note_on_c, 0, 52, 95
2, 139432, Note_off_c, 0, 40, 80
2, 139432, Note_off_c, 0, 47, 80
2, 139432, Note_off_c, 0, 52, 80
2, 139440, Note_on_c, 0, 38, 95
2, 139440, Note_on_c, 0, 45, 95
2, 139440, Note_on_c, 0, 50, 95
2, 139672, Note_off_c, 0, 38, 80
2, 139672, Note_off_c, 0, 45, 80
2, 139672, Note_off_c, 0, 50, 80
2, 139680, Note_on_c, 0, 38, 95
2, 139680, Note_on_c, 0, 45, 95
2, 139680, Note_on_c, 0, 50, 95
2, 140152, Note_off_c, 0, 38, 80
2, 140152, Note_off_c, 0, 45, 80
2, 140152, Note_off_c, 0, 50, 80
2, 140160, Note_on_c, 0, 47, 79
2, 140160, Note_on_c, 0, 54, 79
2, 140160, Note_on_c, 0, 59, 79
2, 140632, Note_off_c, 0, 47, 80
2, 140632, Note_off_c, 0, 54, 80
2, 140632, Note_off_c, 0, 59, 80
2, 140640, Note_on_c, 0, 47, 79
2, 140640, Note_on_c, 0, 54, 79
2, 140640, Note_on_c, 0, 59, 79
2, 141112, Note_off_c, 0, 47, 80
2, 141112, Note_off_c, 0, 54, 80
2, 141112, Note_off_c, 0, 59, 80
2, 141120, Note_on_c, 0, 47, 79
2, 141120, Note_on_c, 0, 54, 79
2, 141120, Note_on_c, 0, 59, 79
2, 141352, Note_off_c, 0, 47, 80
2, 141352, Note_off_c, 0, 54, 80
2, 141352, Note_off_c, 0, 59, 80
2, 141360, Note_on_c, 0, 47, 79
2, 141360, Note_on_c, 0, 54, 79
2, 141360, Note_on_c, 0, 59, 79
2, 141832, Note_off_c, 0, 47, 80
2, 141832, Note_off_c, 0, 54, 80
2, 141832, Note_off_c, 0, 59, 80
2, 141840, Note_on_c, 0, 47, 79
2, 141840, Note_on_c, 0, 54, 79
2, 141840, Note_on_c, 0, 59, 79
2, 142552, Note_off_c, 0, 47, 80
2, 142552, Note_off_c, 0, 54, 80
2, 142552, Note_off_c, 0, 59, 80
2, 142560, Note_on_c, 0, 47, 79
2, 142560, Note_on_c, 0, 54, 79
2, 142560, Note_on_c, 0, 59, 79
2, 142792, Note_off_c, 0, 47, 80
2, 142792, Note_off_c, 0, 54, 80
2, 142792, Note_off_c, 0, 59, 80
2, 142800, Note_on_c, 0, 47, 79
2, 142800, Note_on_c, 0, 54, 79
2, 142800, Note_on_c, 0, 59, 79
2, 143272, Note_off_c, 0, 47, 80
2, 143272, Note_off_c, 0, 54, 80
2, 143272, Note_off_c, 0, 59, 80
2, 143280, Note_on_c, 0, 47, 79
2, 143280, Note_on_c, 0, 54, 79
2, 143280, Note_on_c, 0, 59, 79
2, 143752, Note_off_c, 0, 47, 80
2, 143752, Note_off_c, 0, 54, 80
2, 143752, Note_off_c, 0, 59, 80
2, 143760, Note_on_c, 0, 47, 79
2, 143760, Note_on_c, 0, 54, 79
2, 143760, Note_on_c, 0, 59, 79
2, 144472, Note_off_c, 0, 47, 80
2, 144472, Note_off_c, 0, 54, 80
2, 144472, Note_off_c, 0, 59, 80
2, 144480, Note_on_c, 0, 47, 79
2, 144480, Note_on_c, 0, 54, 79
2, 144480, Note_on_c, 0, 59, 79
2, 144952, Note_off_c, 0, 47, 80
2, 144952, Note_off_c, 0, 54, 80
2, 144952, Note_off_c, 0, 59, 80
2, 144960, Note_on_c, 0, 47, 79
2, 144960, Note_on_c, 0, 54, 79
2, 144960, Note_on_c, 0, 59, 79
2, 145192, Note_off_c, 0, 47, 80
2, 145192, Note_off_c, 0, 54, 80
2, 145192, Note_off_c, 0, 59, 80
2, 145200, Note_on_c, 0, 47, 79
2, 145200, Note_on_c, 0, 54, 79
2, 145200, Note_on_c, 0, 59, 79
2, 145672, Note_off_c, 0, 47, 80
2, 145672, Note_off_c, 0, 54, 80
2, 145672, Note_off_c, 0, 59, 80
2, 145680, Note_on_c, 0, 47, 79
2, 145680, Note_on_c, 0, 54, 79
2, 145680, Note_on_c, 0, 59, 79
2, 146392, Note_off_c, 0, 47, 80
2, 146392, Note_off_c, 0, 54, 80
2, 146392, Note_off_c, 0, 59, 80
2, 146400, Note_on_c, 0, 47, 79
2, 146400, Note_on_c, 0, 54, 79
2, 146400, Note_on_c, 0, 59, 79
2, 146632, Note_off_c, 0, 47, 80
2, 146632, Note_off_c, 0, 54, 80
2, 146632, Note_off_c, 0, 59, 80
2, 146640, Note_on_c, 0, 47, 79
2, 146640, Note_on_c, 0, 54, 79
2, 146640, Note_on_c, 0, 59, 79
2, 147112, Note_off_c, 0, 47, 80
2, 147112, Note_off_c, 0, 54, 80
2, 147112, Note_off_c, 0, 59, 80
2, 147120, Note_on_c, 0, 47, 79
2, 147120, Note_on_c, 0, 54, 79
2, 147120, Note_on_c, 0, 59, 79
2, 147592, Note_off_c, 0, 47, 80
2, 147592, Note_off_c, 0, 54, 80
2, 147592, Note_off_c, 0, 59, 80
2, 147600, Note_on_c, 0, 47, 79
2, 147600, Note_on_c, 0, 54, 79
2, 147600, Note_on_c, 0, 59, 79
2, 148312, Note_off_c, 0, 47, 80
2, 148312, Note_off_c, 0, 54, 80
2, 148312, Note_off_c, 0, 59, 80
2, 148320, Note_on_c, 0, 47, 79
2, 148320, Note_on_c, 0, 54, 79
2, 148320, Note_on_c, 0, 59, 79
2, 148792, Note_off_c, 0, 47, 80
2, 148792, Note_off_c, 0, 54, 80
2, 148792, Note_off_c, 0, 59, 80
2, 148800, Note_on_c, 0, 47, 79
2, 148800, Note_on_c, 0, 54, 79
2, 148800, Note_on_c, 0, 59, 79
2, 149032, Note_off_c, 0, 47, 80
2, 149032, Note_off_c, 0, 54, 80
2, 149032, Note_off_c, 0, 59, 80
2, 149040, Note_on_c, 0, 47, 79
2, 149040, Note_on_c, 0, 54, 79
2, 149040, Note_on_c, 0, 59, 79
2, 149512, Note_off_c, 0, 47, 80
2, 149512, Note_off_c, 0, 54, 80
2, 149512, Note_off_c, 0, 59, 80
2, 149520, Note_on_c, 0, 47, 79
2, 149520, Note_on_c, 0, 54, 79
2, 149520, Note_on_c, 0, 59, 79
2, 150232, Note_off_c, 0, 47, 80
2, 150232, Note_off_c, 0, 54, 80
2, 150232, Note_off_c, 0, 59, 80
2, 150240, Note_on_c, 0, 47, 79
2, 150240, Note_on_c, 0, 54, 79
2, 150240, Note_on_c, 0, 59, 79
2, 150472, Note_off_c, 0, 47, 80
2, 150472, Note_off_c, 0, 54, 80
2, 150472, Note_off_c, 0, 59, 80
2, 150480, Note_on_c, 0, 47, 79
2, 150480, Note_on_c, 0, 54, 79
2, 150480, Note_on_c, 0, 59, 79
2, 150952, Note_off_c, 0, 47, 80
2, 150952, Note_off_c, 0, 54, 80
2, 150952, Note_off_c, 0, 59, 80
2, 150960, Note_on_c, 0, 47, 79
2, 150960, Note_on_c, 0, 54, 79
2, 150960, Note_on_c, 0, 59, 79
2, 151432, Note_off_c, 0, 47, 80
2, 151432, Note_off_c, 0, 54, 80
2, 151432, Note_off_c, 0, 59, 80
2, 151440, Note_on_c, 0, 47, 79
2, 151440, Note_on_c, 0, 54, 79
2, 151440, Note_on_c, 0, 59, 79
2, 152152, Note_off_c, 0, 47, 80
2, 152152, Note_off_c, 0, 54, 80
2, 152152, Note_off_c, 0, 59, 80
2, 152160, Note_on_c, 0, 47, 79
2, 152160, Note_on_c, 0, 54, 79
2, 152160, Note_on_c, 0, 59, 79
2, 152632, Note_off_c, 0, 47, 80
2, 152632, Note_off_c, 0, 54, 80
2, 152632, Note_off_c, 0, 59, 80
2, 152640, Note_on_c, 0, 47, 79
2, 152640, Note_on_c, 0, 54, 79
2, 152640, Note_on_c, 0, 59, 79
2, 152872, Note_off_c, 0, 47, 80
2, 152872, Note_off_c, 0, 54, 80
2, 152872, Note_off_c, 0, 59, 80
2, 152880, Note_on_c, 0, 47, 79
2, 152880, Note_on_c, 0, 54, 79
2, 152880, Note_on_c, 0, 59, 79
2, 153352, Note_off_c, 0, 47, 80
2, 153352, Note_off_c, 0, 54, 80
2, 153352, Note_off_c, 0, 59, 80
2, 153360, Note_on_c, 0, 47, 79
2, 153360, Note_on_c, 0, 54, 79
2, 153360, Note_on_c, 0, 59, 79
2, 154072, Note_off_c, 0, 47, 80
2, 154072, Note_off_c, 0, 54, 80
2, 154072, Note_off_c, 0, 59, 80
2, 154080, Note_on_c, 0, 47, 79
2, 154080, Note_on_c, 0, 54, 79
2, 154080, Note_on_c, 0, 59, 79
2, 154312, Note_off_c, 0, 47, 80
2, 154312, Note_off_c, 0, 54, 80
2, 154312, Note_off_c, 0, 59, 80
2, 154320, Note_on_c, 0, 47, 79
2, 154320, Note_on_c, 0, 54, 79
2, 154320, Note_on_c, 0, 59, 79
2, 154792, Note_off_c, 0, 47, 80
2, 154792, Note_off_c, 0, 54, 80
2, 154792, Note_off_c, 0, 59, 80
2, 154800, Note_on_c, 0, 47, 79
2, 154800, Note_on_c, 0, 50, 79
2, 154800, Note_on_c, 0, 59, 79
2, 155272, Note_off_c, 0, 47, 80
2, 155272, Note_off_c, 0, 50, 80
2, 155272, Note_off_c, 0, 59, 80
2, 155280, Note_on_c, 0, 47, 79
2, 155280, Note_on_c, 0, 50, 79
2, 155280, Note_on_c, 0, 57, 79
2, 155280, Note_on_c, 0, 62, 79
2, 155992, Note_off_c, 0, 47, 80
2, 155992, Note_off_c, 0, 50, 80
2, 155992, Note_off_c, 0, 57, 80
2, 155992, Note_off_c, 0, 62, 80
2, 156000, Note_on_c, 0, 47, 79
2, 156000, Note_on_c, 0, 50, 79
2, 156000, Note_on_c, 0, 57, 79
2, 156000, Note_on_c, 0, 62, 79
2, 156472, Note_off_c, 0, 47, 80
2, 156472, Note_off_c, 0, 50, 80
2, 156472, Note_off_c, 0, 57, 80
2, 156472, Note_off_c, 0, 62, 80
2, 156480, Note_on_c, 0, 47, 79
2, 156480, Note_on_c, 0, 50, 79
2, 156480, Note_on_c, 0, 57, 79
2, 156480, Note_on_c, 0, 62, 79
2, 156712, Note_off_c, 0, 47, 80
2, 156712, Note_off_c, 0, 50, 80
2, 156712, Note_off_c, 0, 57, 80
2, 156712, Note_off_c, 0, 62, 80
2, 156720, Note_on_c, 0, 47, 79
2, 156720, Note_on_c, 0, 50, 79
2, 156720, Note_on_c, 0, 57, 79
2, 156720, Note_on_c, 0, 62, 79
2, 157192, Note_off_c, 0, 47, 80
2, 157192, Note_off_c, 0, 50, 80
2, 157192, Note_off_c, 0, 57, 80
2, 157192, Note_off_c, 0, 62, 80
2, 157200, Note_on_c, 0, 47, 79
2, 157200, Note_on_c, 0, 50, 79
2, 157200, Note_on_c, 0, 57, 79
2, 157200, Note_on_c, 0, 62, 79
2, 157912, Note_off_c, 0, 47, 80
2, 157912, Note_off_c, 0, 50, 80
2, 157912, Note_off_c, 0, 57, 80
2, 157912, Note_off_c, 0, 62, 80
2, 157920, Note_on_c, 0, 47, 79
2, 157920, Note_on_c, 0, 50, 79
2, 157920, Note_on_c, 0, 57, 79
2, 157920, Note_on_c, 0, 62, 79
2, 158152, Note_off_c, 0, 47, 80
2, 158152, Note_off_c, 0, 50, 80
2, 158152, Note_off_c, 0, 57, 80
2, 158152, Note_off_c, 0, 62, 80
2, 158160, Note_on_c, 0, 47, 79
2, 158160, Note_on_c, 0, 50, 79
2, 158160, Note_on_c, 0, 57, 79
2, 158160, Note_on_c, 0, 62, 79
2, 158632, Note_off_c, 0, 47, 80
2, 158632, Note_off_c, 0, 50, 80
2, 158632, Note_off_c, 0, 57, 80
2, 158632, Note_off_c, 0, 62, 80
2, 158640, Note_on_c, 0, 47, 79
2, 158640, Note_on_c, 0, 50, 79
2, 158640, Note_on_c, 0, 57, 79
2, 158640, Note_on_c, 0, 62, 79
2, 159112, Note_off_c, 0, 47, 80
2, 159112, Note_off_c, 0, 50, 80
2, 159112, Note_off_c, 0, 57, 80
2, 159112, Note_off_c, 0, 62, 80
2, 159120, Note_on_c, 0, 47, 79
2, 159120, Note_on_c, 0, 50, 79
2, 159120, Note_on_c, 0, 57, 79
2, 159120, Note_on_c, 0, 62, 79
2, 159832, Note_off_c, 0, 47, 80
2, 159832, Note_off_c, 0, 50, 80
2, 159832, Note_off_c, 0, 57, 80
2, 159832, Note_off_c, 0, 62, 80
2, 159840, Note_on_c, 0, 47, 79
2, 159840, Note_on_c, 0, 50, 79
2, 159840, Note_on_c, 0, 57, 79
2, 159840, Note_on_c, 0, 62, 79
2, 160312, Note_off_c, 0, 47, 80
2, 160312, Note_off_c, 0, 50, 80
2, 160312, Note_off_c, 0, 57, 80
2, 160312, Note_off_c, 0, 62, 80
2, 160320, Note_on_c, 0, 47, 79
2, 160320, Note_on_c, 0, 50, 79
2, 160320, Note_on_c, 0, 57, 79
2, 160320, Note_on_c, 0, 62, 79
2, 160552, Note_off_c, 0, 47, 80
2, 160552, Note_off_c, 0, 50, 80
2, 160552, Note_off_c, 0, 57, 80
2, 160552, Note_off_c, 0, 62, 80
2, 160560, Note_on_c, 0, 47, 79
2, 160560, Note_on_c, 0, 50, 79
2, 160560, Note_on_c, 0, 57, 79
2, 160560, Note_on_c, 0, 62, 79
2, 161032, Note_off_c, 0, 47, 80
2, 161032, Note_off_c, 0, 50, 80
2, 161032, Note_off_c, 0, 57, 80
2, 161032, Note_off_c, 0, 62, 80
2, 161040, Note_on_c, 0, 47, 79
2, 161040, Note_on_c, 0, 50, 79
2, 161040, Note_on_c, 0, 57, 79
2, 161040, Note_on_c, 0, 62, 79
2, 161752, Note_off_c, 0, 47, 80
2, 161752, Note_off_c, 0, 50, 80
2, 161752, Note_off_c, 0, 57, 80
2, 161752, Note_off_c, 0, 62, 80
2, 161760, Note_on_c, 0, 47, 79
2, 161760, Note_on_c, 0, 50, 79
2, 161760, Note_on_c, 0, 57, 79
2, 161760, Note_on_c, 0, 62, 79
2, 161992, Note_off_c, 0, 47, 80
2, 161992, Note_off_c, 0, 50, 80
2, 161992, Note_off_c, 0, 57, 80
2, 161992, Note_off_c, 0, 62, 80
2, 162000, Note_on_c, 0, 47, 79
2, 162000, Note_on_c, 0, 50, 79
2, 162000, Note_on_c, 0, 57, 79
2, 162000, Note_on_c, 0, 62, 79
2, 162472, Note_off_c, 0, 47, 80
2, 162472, Note_off_c, 0, 50, 80
2, 162472, Note_off_c, 0, 57, 80
2, 162472, Note_off_c, 0, 62, 80
2, 162480, Note_on_c, 0, 47, 79
2, 162480, Note_on_c, 0, 50, 79
2, 162480, Note_on_c, 0, 57, 79
2, 162480, Note_on_c, 0, 62, 79
2, 162952, Note_off_c, 0, 47, 80
2, 162952, Note_off_c, 0, 50, 80
2, 162952, Note_off_c, 0, 57, 80
2, 162952, Note_off_c, 0, 62, 80
2, 162960, Note_on_c, 0, 47, 79
2, 162960, Note_on_c, 0, 50, 79
2, 162960, Note_on_c, 0, 57, 79
2, 162960, Note_on_c, 0, 62, 79
2, 163672, Note_off_c, 0, 47, 80
2, 163672, Note_off_c, 0, 50, 80
2, 163672, Note_off_c, 0, 57, 80
2, 163672, Note_off_c, 0, 62, 80
2, 163680, Note_on_c, 0, 47, 79
2, 163680, Note_on_c, 0, 50, 79
2, 163680, Note_on_c, 0, 57, 79
2, 163680, Note_on_c, 0, 62, 79
2, 164152, Note_off_c, 0, 47, 80
2, 164152, Note_off_c, 0, 50, 80
2, 164152, Note_off_c, 0, 57, 80
2, 164152, Note_off_c, 0, 62, 80
2, 164160, Note_on_c, 0, 47, 79
2, 164160, Note_on_c, 0, 50, 79
2, 164160, Note_on_c, 0, 57, 79
2, 164160, Note_on_c, 0, 62, 79
2, 164392, Note_off_c, 0, 47, 80
2, 164392, Note_off_c, 0, 50, 80
2, 164392, Note_off_c, 0, 57, 80
2, 164392, Note_off_c, 0, 62, 80
2, 164400, Note_on_c, 0, 47, 79
2, 164400, Note_on_c, 0, 50, 79
2, 164400, Note_on_c, 0, 57, 79
2, 164400, Note_on_c, 0, 62, 79
2, 164872, Note_off_c, 0, 47, 80
2, 164872, Note_off_c, 0, 50, 80
2, 164872, Note_off_c, 0, 57, 80
2, 164872, Note_off_c, 0, 62, 80
2, 164880, Note_on_c, 0, 47, 79
2, 164880, Note_on_c, 0, 50, 79
2, 164880, Note_on_c, 0, 57, 79
2, 164880, Note_on_c, 0, 62, 79
2, 165592, Note_off_c, 0, 47, 80
2, 165592, Note_off_c, 0, 50, 80
2, 165592, Note_off_c, 0, 57, 80
2, 165592, Note_off_c, 0, 62, 80
2, 165600, Note_on_c, 0, 47, 79
2, 165600, Note_on_c, 0, 50, 79
2, 165600, Note_on_c, 0, 57, 79
2, 165600, Note_on_c, 0, 62, 79
2, 165832, Note_off_c, 0, 47, 80
2, 165832, Note_off_c, 0, 50, 80
2, 165832, Note_off_c, 0, 57, 80
2, 165832, Note_off_c, 0, 62, 80
2, 165840, Note_on_c, 0, 47, 79
2, 165840, Note_on_c, 0, 50, 79
2, 165840, Note_on_c, 0, 57, 79
2, 165840, Note_on_c, 0, 62, 79
2, 166312, Note_off_c, 0, 47, 80
2, 166312, Note_off_c, 0, 50, 80
2, 166312, Note_off_c, 0, 57, 80
2, 166312, Note_off_c, 0, 62, 80
2, 166320, Note_on_c, 0, 47, 79
2, 166320, Note_on_c, 0, 50, 79
2, 166320, Note_on_c, 0, 57, 79
2, 166320, Note_on_c, 0, 62, 79
2, 166792, Note_off_c, 0, 47, 80
2, 166792, Note_off_c, 0, 50, 80
2, 166792, Note_off_c, 0, 57, 80
2, 166792, Note_off_c, 0, 62, 80
2, 166800, Note_on_c, 0, 47, 79
2, 166800, Note_on_c, 0, 50, 79
2, 166800, Note_on_c, 0, 57, 79
2, 166800, Note_on_c, 0, 62, 79
2, 167512, Note_off_c, 0, 47, 80
2, 167512, Note_off_c, 0, 50, 80
2, 167512, Note_off_c, 0, 57, 80
2, 167512, Note_off_c, 0, 62, 80
2, 167520, Note_on_c, 0, 47, 79
2, 167520, Note_on_c, 0, 50, 79
2, 167520, Note_on_c, 0, 57, 79
2, 167520, Note_on_c, 0, 62, 79
2, 167992, Note_off_c, 0, 47, 80
2, 167992, Note_off_c, 0, 50, 80
2, 167992, Note_off_c, 0, 57, 80
2, 167992, Note_off_c, 0, 62, 80
2, 168000, Note_on_c, 0, 47, 79
2, 168000, Note_on_c, 0, 50, 79
2, 168000, Note_on_c, 0, 57, 79
2, 168000, Note_on_c, 0, 62, 79
2, 168232, Note_off_c, 0, 47, 80
2, 168232, Note_off_c, 0, 50, 80
2, 168232, Note_off_c, 0, 57, 80
2, 168232, Note_off_c, 0, 62, 80
2, 168240, Note_on_c, 0, 47, 79
2, 168240, Note_on_c, 0, 50, 79
2, 168240, Note_on_c, 0, 57, 79
2, 168240, Note_on_c, 0, 62, 79
2, 168712, Note_off_c, 0, 47, 80
2, 168712, Note_off_c, 0, 50, 80
2, 168712, Note_off_c, 0, 57, 80
2, 168712, Note_off_c, 0, 62, 80
2, 168720, Note_on_c, 0, 47, 79
2, 168720, Note_on_c, 0, 50, 79
2, 168720, Note_on_c, 0, 57, 79
2, 168720, Note_on_c, 0, 62, 79
2, 169432, Note_off_c, 0, 47, 80
2, 169432, Note_off_c, 0, 50, 80
2, 169432, Note_off_c, 0, 57, 80
2, 169432, Note_off_c, 0, 62, 80
2, 169440, Note_on_c, 0, 47, 79
2, 169440, Note_on_c, 0, 50, 79
2, 169440, Note_on_c, 0, 57, 79
2, 169440, Note_on_c, 0, 62, 79
2, 169672, Note_off_c, 0, 47, 80
2, 169672, Note_off_c, 0, 50, 80
2, 169672, Note_off_c, 0, 57, 80
2, 169672, Note_off_c, 0, 62, 80
2, 169680, Note_on_c, 0, 47, 79
2, 169680, Note_on_c, 0, 50, 79
2, 169680, Note_on_c, 0, 57, 79
2, 169680, Note_on_c, 0, 62, 79
2, 170152, Note_off_c, 0, 47, 80
2, 170152, Note_off_c, 0, 50, 80
2, 170152, Note_off_c, 0, 57, 80
2, 170152, Note_off_c, 0, 62, 80
2, 170160, Note_on_c, 0, 47, 79
2, 170160, Note_on_c, 0, 50, 79
2, 170160, Note_on_c, 0, 57, 79
2, 170160, Note_on_c, 0, 62, 79
2, 170632, Note_off_c, 0, 47, 80
2, 170632, Note_off_c, 0, 50, 80
2, 170632, Note_off_c, 0, 57, 80
2, 170632, Note_off_c, 0, 62, 80
2, 170640, Note_on_c, 0, 47, 79
2, 170640, Note_on_c, 0, 50, 79
2, 170640, Note_on_c, 0, 57, 79
2, 170640, Note_on_c, 0, 62, 79
2, 170872, Note_off_c, 0, 47, 80
2, 170872, Note_off_c, 0, 50, 80
2, 170872, Note_off_c, 0, 57, 80
2, 170872, Note_off_c, 0, 62, 80
2, 170880, Note_on_c, 0, 47, 95
2, 171360, Note_on_c, 0, 59, 95
2, 171360, Note_on_c, 0, 62, 95
2, 171832, Note_off_c, 0, 59, 80
2, 171832, Note_off_c, 0, 62, 80
2, 171840, Note_on_c, 0, 59, 95
2, 171840, Note_on_c, 0, 62, 95
2, 171852, Note_off_c, 0, 59, 80
2, 171852, Note_off_c, 0, 62, 80
2, 172080, Note_on_c, 0, 59, 95
2, 172080, Note_on_c, 0, 62, 95
2, 172312, Note_off_c, 0, 47, 80
2, 172320, Note_on_c, 0, 47, 95
2, 172552, Note_off_c, 0, 59, 80
2, 172552, Note_off_c, 0, 62, 80
2, 172560, Note_on_c, 0, 59, 95
2, 172560, Note_on_c, 0, 62, 95
2, 173032, Note_off_c, 0, 59, 80
2, 173032, Note_off_c, 0, 62, 80
2, 173040, Note_on_c, 0, 59, 95
2, 173040, Note_on_c, 0, 62, 95
2, 173272, Note_off_c, 0, 59, 80
2, 173272, Note_off_c, 0, 62, 80
2, 173280, Note_on_c, 0, 59, 95
2, 173280, Note_on_c, 0, 62, 95
2, 173752, Note_off_c, 0, 47, 80
2, 173760, Note_on_c, 0, 47, 95
2, 173760, Note_on_c, 0, 54, 95
2, 173772, Note_off_c, 0, 54, 80
2, 173992, Note_off_c, 0, 47, 80
2, 174000, Note_on_c, 0, 47, 95
2, 174000, Note_on_c, 0, 54, 95
2, 174012, Note_off_c, 0, 54, 80
2, 174232, Note_off_c, 0, 59, 80
2, 174232, Note_off_c, 0, 62, 80
2, 174240, Note_on_c, 0, 59, 95
2, 174240, Note_on_c, 0, 62, 95
2, 174472, Note_off_c, 0, 59, 80
2, 174472, Note_off_c, 0, 62, 80
2, 174480, Note_on_c, 0, 59, 95
2, 174480, Note_on_c, 0, 62, 95
2, 174712, Note_off_c, 0, 47, 80
2, 174720, Note_on_c, 0, 47, 95
2, 175192, Note_off_c, 0, 59, 80
2, 175192, Note_off_c, 0, 62, 80
2, 175200, Note_on_c, 0, 59, 95
2, 175200, Note_on_c, 0, 62, 95
2, 175672, Note_off_c, 0, 59, 80
2, 175672, Note_off_c, 0, 62, 80
2, 175680, Note_on_c, 0, 59, 95
2, 175680, Note_on_c, 0, 62, 95
2, 175692, Note_off_c, 0, 59, 80
2, 175692, Note_off_c, 0, 62, 80
2, 175920, Note_on_c, 0, 59, 95
2, 175920, Note_on_c, 0, 62, 95
2, 176152, Note_off_c, 0, 47, 80
2, 176160, Note_on_c, 0, 38, 95
2, 176392, Note_off_c, 0, 38, 80
2, 176400, Note_on_c, 0, 38, 95
2, 176400, Note_on_c, 0, 50, 95
2, 176872, Note_off_c, 0, 38, 80
2, 176872, Note_off_c, 0, 50, 80
2, 176880, Note_on_c, 0, 38, 95
2, 176880, Note_on_c, 0, 52, 95
2, 177352, Note_off_c, 0, 38, 80
2, 177352, Note_off_c, 0, 52, 80
2, 177360, Note_on_c, 0, 38, 95
2, 177360, Note_on_c, 0, 54, 95
2, 177832, Note_off_c, 0, 59, 80
2, 177832, Note_off_c, 0, 62, 80
2, 177832, Note_off_c, 0, 38, 80
2, 177832, Note_off_c, 0, 54, 80
2, 177840, Note_on_c, 0, 38, 95
2, 177840, Note_on_c, 0, 54, 95
2, 177840, Note_on_c, 0, 57, 95
2, 177852, Note_off_c, 0, 54, 80
2, 178312, Note_off_c, 0, 57, 80
2, 178320, Note_on_c, 0, 54, 95
2, 178320, Note_on_c, 0, 59, 95
2, 178332, Note_off_c, 0, 54, 80
2, 178552, Note_off_c, 0, 38, 80
2, 178560, Note_on_c, 0, 47, 95
2, 179032, Note_off_c, 0, 59, 80
2, 179040, Note_on_c, 0, 59, 95
2, 179040, Note_on_c, 0, 62, 95
2, 179512, Note_off_c, 0, 59, 80
2, 179512, Note_off_c, 0, 62, 80
2, 179520, Note_on_c, 0, 59, 95
2, 179520, Note_on_c, 0, 62, 95
2, 179532, Note_off_c, 0, 59, 80
2, 179532, Note_off_c, 0, 62, 80
2, 179760, Note_on_c, 0, 59, 95
2, 179760, Note_on_c, 0, 62, 95
2, 179992, Note_off_c, 0, 47, 80
2, 180000, Note_on_c, 0, 47, 95
2, 180232, Note_off_c, 0, 59, 80
2, 180232, Note_off_c, 0, 62, 80
2, 180240, Note_on_c, 0, 59, 95
2, 180240, Note_on_c, 0, 62, 95
2, 180712, Note_off_c, 0, 59, 80
2, 180712, Note_off_c, 0, 62, 80
2, 180720, Note_on_c, 0, 59, 95
2, 180720, Note_on_c, 0, 62, 95
2, 180952, Note_off_c, 0, 59, 80
2, 180952, Note_off_c, 0, 62, 80
2, 180960, Note_on_c, 0, 59, 95
2, 180960, Note_on_c, 0, 62, 95
2, 181432, Note_off_c, 0, 47, 80
2, 181440, Note_on_c, 0, 47, 95
2, 181440, Note_on_c, 0, 54, 95
2, 181452, Note_off_c, 0, 54, 80
2, 181672, Note_off_c, 0, 47, 80
2, 181680, Note_on_c, 0, 47, 95
2, 181680, Note_on_c, 0, 54, 95
2, 181692, Note_off_c, 0, 54, 80
2, 181912, Note_off_c, 0, 59, 80
2, 181912, Note_off_c, 0, 62, 80
2, 181920, Note_on_c, 0, 59, 95
2, 181920, Note_on_c, 0, 62, 95
2, 182152, Note_off_c, 0, 59, 80
2, 182152, Note_off_c, 0, 62, 80
2, 182160, Note_on_c, 0, 59, 95
2, 182160, Note_on_c, 0, 62, 95
2, 182392, Note_off_c, 0, 47, 80
2, 182400, Note_on_c, 0, 47, 95
2, 182872, Note_off_c, 0, 59, 80
2, 182872, Note_off_c, 0, 62, 80
2, 182880, Note_on_c, 0, 59, 95
2, 182880, Note_on_c, 0, 62, 95
2, 183352, Note_off_c, 0, 59, 80
2, 183352, Note_off_c, 0, 62, 80
2, 183360, Note_on_c, 0, 59, 95
2, 183360, Note_on_c, 0, 62, 95
2, 183372, Note_off_c, 0, 59, 80
2, 183372, Note_off_c, 0, 62, 80
2, 183600, Note_on_c, 0, 59, 95
2, 183600, Note_on_c, 0, 62, 95
2, 183832, Note_off_c, 0, 47, 80
2, 183840, Note_on_c, 0, 38, 95
2, 184072, Note_off_c, 0, 38, 80
2, 184080, Note_on_c, 0, 38, 95
2, 184080, Note_on_c, 0, 50, 95
2, 184552, Note_off_c, 0, 38, 80
2, 184552, Note_off_c, 0, 50, 80
2, 184560, Note_on_c, 0, 38, 95
2, 184560, Note_on_c, 0, 52, 95
2, 185032, Note_off_c, 0, 38, 80
2, 185032, Note_off_c, 0, 52, 80
2, 185040, Note_on_c, 0, 38, 95
2, 185040, Note_on_c, 0, 54, 95
2, 185512, Note_off_c, 0, 59, 80
2, 185512, Note_off_c, 0, 62, 80
2, 185512, Note_off_c, 0, 38, 80
2, 185512, Note_off_c, 0, 54, 80
2, 185520, Note_on_c, 0, 38, 95
2, 185520, Note_on_c, 0, 54, 95
2, 185520, Note_on_c, 0, 57, 95
2, 185532, Note_off_c, 0, 54, 80
2, 185992, Note_off_c, 0, 57, 80
2, 186000, Note_on_c, 0, 54, 95
2, 186000, Note_on_c, 0, 59, 95
2, 186012, Note_off_c, 0, 54, 80
2, 186232, Note_off_c, 0, 38, 80
2, 186232, Note_off_c, 0, 59, 80
2, 186240, Note_on_c, 0, 43, 95
2, 186240, Note_on_c, 0, 50, 95
2, 186240, Note_on_c, 0, 55, 95
2, 186240, Note_on_c, 0, 59, 95
2, 186712, Note_off_c, 0, 43, 80
2, 186712, Note_off_c, 0, 50, 80
2, 186712, Note_off_c, 0, 55, 80
2, 186712, Note_off_c, 0, 59, 80
2, 186720, Note_on_c, 0, 43, 95
2, 186720, Note_on_c, 0, 50, 95
2, 186720, Note_on_c, 0, 55, 95
2, 186720, Note_on_c, 0, 59, 95
2, 187192, Note_off_c, 0, 43, 80
2, 187192, Note_off_c, 0, 50, 80
2, 187192, Note_off_c, 0, 55, 80
2, 187192, Note_off_c, 0, 59, 80
2, 187200, Note_on_c, 0, 43, 95
2, 187200, Note_on_c, 0, 50, 95
2, 187200, Note_on_c, 0, 55, 95
2, 187200, Note_on_c, 0, 59, 95
2, 187432, Note_off_c, 0, 43, 80
2, 187432, Note_off_c, 0, 50, 80
2, 187432, Note_off_c, 0, 55, 80
2, 187432, Note_off_c, 0, 59, 80
2, 187440, Note_on_c, 0, 43, 95
2, 187440, Note_on_c, 0, 50, 95
2, 187440, Note_on_c, 0, 55, 95
2, 187440, Note_on_c, 0, 59, 95
2, 187672, Note_off_c, 0, 43, 80
2, 187672, Note_off_c, 0, 50, 80
2, 187672, Note_off_c, 0, 55, 80
2, 187672, Note_off_c, 0, 59, 80
2, 187680, Note_on_c, 0, 43, 95
2, 187680, Note_on_c, 0, 50, 95
2, 187680, Note_on_c, 0, 55, 95
2, 187680, Note_on_c, 0, 59, 95
2, 187912, Note_off_c, 0, 43, 80
2, 187912, Note_off_c, 0, 50, 80
2, 187912, Note_off_c, 0, 55, 80
2, 187912, Note_off_c, 0, 59, 80
2, 187920, Note_on_c, 0, 42, 95
2, 187920, Note_on_c, 0, 49, 95
2, 187920, Note_on_c, 0, 54, 95
2, 187920, Note_on_c, 0, 57, 95
2, 188392, Note_off_c, 0, 42, 80
2, 188392, Note_off_c, 0, 49, 80
2, 188392, Note_off_c, 0, 54, 80
2, 188392, Note_off_c, 0, 57, 80
2, 188400, Note_on_c, 0, 42, 95
2, 188400, Note_on_c, 0, 49, 95
2, 188400, Note_on_c, 0, 54, 95
2, 188400, Note_on_c, 0, 57, 95
2, 188632, Note_off_c, 0, 42, 80
2, 188632, Note_off_c, 0, 49, 80
2, 188632, Note_off_c, 0, 54, 80
2, 188632, Note_off_c, 0, 57, 80
2, 188640, Note_on_c, 0, 42, 95
2, 188640, Note_on_c, 0, 49, 95
2, 188640, Note_on_c, 0, 54, 95
2, 188640, Note_on_c, 0, 57, 95
2, 189352, Note_off_c, 0, 42, 80
2, 189352, Note_off_c, 0, 49, 80
2, 189352, Note_off_c, 0, 54, 80
2, 189352, Note_off_c, 0, 57, 80
2, 189360, Note_on_c, 0, 42, 95
2, 189360, Note_on_c, 0, 49, 95
2, 189360, Note_on_c, 0, 54, 95
2, 189360, Note_on_c, 0, 57, 95
2, 189592, Note_off_c, 0, 42, 80
2, 189592, Note_off_c, 0, 49, 80
2, 189592, Note_off_c, 0, 54, 80
2, 189592, Note_off_c, 0, 57, 80
2, 189600, Note_on_c, 0, 42, 95
2, 189600, Note_on_c, 0, 49, 95
2, 189600, Note_on_c, 0, 54, 95
2, 189600, Note_on_c, 0, 57, 95
2, 189832, Note_off_c, 0, 42, 80
2, 189832, Note_off_c, 0, 49, 80
2, 189832, Note_off_c, 0, 54, 80
2, 189832, Note_off_c, 0, 57, 80
2, 189840, Note_on_c, 0, 42, 95
2, 189840, Note_on_c, 0, 49, 95
2, 189840, Note_on_c, 0, 54, 95
2, 189840, Note_on_c, 0, 57, 95
2, 190072, Note_off_c, 0, 42, 80
2, 190072, Note_off_c, 0, 49, 80
2, 190072, Note_off_c, 0, 54, 80
2, 190072, Note_off_c, 0, 57, 80
2, 190080, Note_on_c, 0, 42, 95
2, 190080, Note_on_c, 0, 49, 95
2, 190080, Note_on_c, 0, 54, 95
2, 190080, Note_on_c, 0, 57, 95
2, 190272, Pitch_bend_c, 0, 8832
2, 190312, Note_off_c, 0, 42, 80
2, 190312, Note_off_c, 0, 49, 80
2, 190312, Note_off_c, 0, 54, 80
2, 190312, Note_off_c, 0, 57, 80
2, 190320, Pitch_bend_c, 0, 8192
2, 190320, Note_on_c, 0, 43, 76
2, 190320, Note_on_c, 0, 50, 76
2, 190320, Note_on_c, 0, 55, 76
2, 190320, Note_on_c, 0, 59, 76
2, 190512, Pitch_bend_c, 0, 7552
2, 190552, Note_off_c, 0, 43, 80
2, 190552, Note_off_c, 0, 50, 80
2, 190552, Note_off_c, 0, 55, 80
2, 190552, Note_off_c, 0, 59, 80
2, 190560, Pitch_bend_c, 0, 8192
2, 190560, Note_on_c, 0, 42, 76
2, 190560, Note_on_c, 0, 49, 76
2, 190560, Note_on_c, 0, 54, 76
2, 190560, Note_on_c, 0, 57, 76
2, 191032, Note_off_c, 0, 42, 80
2, 191032, Note_off_c, 0, 49, 80
2, 191032, Note_off_c, 0, 54, 80
2, 191032, Note_off_c, 0, 57, 80
2, 191040, Note_on_c, 0, 42, 95
2, 191040, Note_on_c, 0, 49, 95
2, 191040, Note_on_c, 0, 54, 95
2, 191040, Note_on_c, 0, 57, 95
2, 191272, Note_off_c, 0, 42, 80
2, 191272, Note_off_c, 0, 49, 80
2, 191272, Note_off_c, 0, 54, 80
2, 191272, Note_off_c, 0, 57, 80
2, 191280, Note_on_c, 0, 42, 95
2, 191280, Note_on_c, 0, 49, 95
2, 191280, Note_on_c, 0, 54, 95
2, 191280, Note_on_c, 0, 57, 95
2, 191512, Note_off_c, 0, 42, 80
2, 191512, Note_off_c, 0, 49, 80
2, 191512, Note_off_c, 0, 54, 80
2, 191512, Note_off_c, 0, 57, 80
2, 191520, Note_on_c, 0, 38, 95
2, 191520, Note_on_c, 0, 45, 95
2, 191520, Note_on_c, 0, 50, 95
2, 191752, Note_off_c, 0, 38, 80
2, 191752, Note_off_c, 0, 45, 80
2, 191752, Note_off_c, 0, 50, 80
2, 191760, Note_on_c, 0, 40, 95
2, 191760, Note_on_c, 0, 47, 95
2, 191760, Note_on_c, 0, 52, 95
2, 191760, Note_on_c, 0, 55, 95
2, 192232, Note_off_c, 0, 40, 80
2, 192232, Note_off_c, 0, 47, 80
2, 192232, Note_off_c, 0, 52, 80
2, 192232, Note_off_c, 0, 55, 80
2, 192240, Note_on_c, 0, 42, 95
2, 192240, Note_on_c, 0, 49, 95
2, 192240, Note_on_c, 0, 54, 95
2, 192240, Note_on_c, 0, 57, 95
2, 192712, Note_off_c, 0, 42, 80
2, 192712, Note_off_c, 0, 49, 80
2, 192712, Note_off_c, 0, 54, 80
2, 192712, Note_off_c, 0, 57, 80
2, 192720, Note_on_c, 0, 40, 95
2, 192720, Note_on_c, 0, 47, 95
2, 192720, Note_on_c, 0, 52, 95
2, 193192, Note_off_c, 0, 40, 80
2, 193192, Note_off_c, 0, 47, 80
2, 193192, Note_off_c, 0, 52, 80
2, 193200, Note_on_c, 0, 38, 95
2, 193200, Note_on_c, 0, 45, 95
2, 193200, Note_on_c, 0, 50, 95
2, 193432, Note_off_c, 0, 38, 80
2, 193432, Note_off_c, 0, 45, 80
2, 193432, Note_off_c, 0, 50, 80
2, 193440, Note_on_c, 0, 38, 95
2, 193440, Note_on_c, 0, 45, 95
2, 193440, Note_on_c, 0, 50, 95
2, 193912, Note_off_c, 0, 38, 80
2, 193912, Note_off_c, 0, 45, 80
2, 193912, Note_off_c, 0, 50, 80
2, 193920, Note_on_c, 0, 45, 95
2, 193920, Note_on_c, 0, 52, 95
2, 193920, Note_on_c, 0, 57, 95
2, 193920, Note_on_c, 0, 61, 95
2, 194392, Note_off_c, 0, 45, 80
2, 194392, Note_off_c, 0, 52, 80
2, 194392, Note_off_c, 0, 57, 80
2, 194392, Note_off_c, 0, 61, 80
2, 194400, Note_on_c, 0, 45, 95
2, 194400, Note_on_c, 0, 52, 95
2, 194400, Note_on_c, 0, 57, 95
2, 194400, Note_on_c, 0, 61, 95
2, 194872, Note_off_c, 0, 45, 80
2, 194872, Note_off_c, 0, 52, 80
2, 194872, Note_off_c, 0, 57, 80
2, 194872, Note_off_c, 0, 61, 80
2, 194880, Note_on_c, 0, 45, 95
2, 194880, Note_on_c, 0, 52, 95
2, 194880, Note_on_c, 0, 57, 95
2, 194880, Note_on_c, 0, 61, 95
2, 195112, Note_off_c, 0, 45, 80
2, 195112, Note_off_c, 0, 52, 80
2, 195112, Note_off_c, 0, 57, 80
2, 195112, Note_off_c, 0, 61, 80
2, 195120, Note_on_c, 0, 45, 95
2, 195120, Note_on_c, 0, 52, 95
2, 195120, Note_on_c, 0, 57, 95
2, 195120, Note_on_c, 0, 61, 95
2, 195352, Note_off_c, 0, 45, 80
2, 195352, Note_off_c, 0, 52, 80
2, 195352, Note_off_c, 0, 57, 80
2, 195352, Note_off_c, 0, 61, 80
2, 195360, Note_on_c, 0, 45, 95
2, 195360, Note_on_c, 0, 52, 95
2, 195360, Note_on_c, 0, 57, 95
2, 195360, Note_on_c, 0, 61, 95
2, 195592, Note_off_c, 0, 45, 80
2, 195592, Note_off_c, 0, 52, 80
2, 195592, Note_off_c, 0, 57, 80
2, 195592, Note_off_c, 0, 61, 80
2, 195600, Note_on_c, 0, 43, 95
2, 195600, Note_on_c, 0, 50, 95
2, 195600, Note_on_c, 0, 55, 95
2, 195600, Note_on_c, 0, 59, 95
2, 196072, Note_off_c, 0, 43, 80
2, 196072, Note_off_c, 0, 50, 80
2, 196072, Note_off_c, 0, 55, 80
2, 196072, Note_off_c, 0, 59, 80
2, 196080, Note_on_c, 0, 43, 95
2, 196080, Note_on_c, 0, 50, 95
2, 196080, Note_on_c, 0, 55, 95
2, 196080, Note_on_c, 0, 59, 95
2, 196552, Note_off_c, 0, 43, 80
2, 196552, Note_off_c, 0, 50, 80
2, 196552, Note_off_c, 0, 55, 80
2, 196552, Note_off_c, 0, 59, 80
2, 196560, Note_on_c, 0, 43, 95
2, 196560, Note_on_c, 0, 50, 95
2, 196560, Note_on_c, 0, 55, 95
2, 196560, Note_on_c, 0, 59, 95
2, 197032, Note_off_c, 0, 43, 80
2, 197032, Note_off_c, 0, 50, 80
2, 197032, Note_off_c, 0, 55, 80
2, 197032, Note_off_c, 0, 59, 80
2, 197040, Note_on_c, 0, 43, 95
2, 197040, Note_on_c, 0, 50, 95
2, 197040, Note_on_c, 0, 55, 95
2, 197040, Note_on_c, 0, 59, 95
2, 197272, Note_off_c, 0, 43, 80
2, 197272, Note_off_c, 0, 50, 80
2, 197272, Note_off_c, 0, 55, 80
2, 197272, Note_off_c, 0, 59, 80
2, 197280, Note_on_c, 0, 43, 95
2, 197280, Note_on_c, 0, 50, 95
2, 197280, Note_on_c, 0, 55, 95
2, 197280, Note_on_c, 0, 59, 95
2, 197512, Note_off_c, 0, 43, 80
2, 197512, Note_off_c, 0, 50, 80
2, 197512, Note_off_c, 0, 55, 80
2, 197512, Note_off_c, 0, 59, 80
2, 197520, Note_on_c, 0, 43, 95
2, 197520, Note_on_c, 0, 50, 95
2, 197520, Note_on_c, 0, 55, 95
2, 197520, Note_on_c, 0, 59, 95
2, 197752, Note_off_c, 0, 43, 80
2, 197752, Note_off_c, 0, 50, 80
2, 197752, Note_off_c, 0, 55, 80
2, 197752, Note_off_c, 0, 59, 80
2, 197760, Note_on_c, 0, 40, 95
2, 197760, Note_on_c, 0, 47, 95
2, 197760, Note_on_c, 0, 52, 95
2, 197976, Pitch_bend_c, 0, 8832
2, 197992, Note_off_c, 0, 47, 80
2, 198000, Pitch_bend_c, 0, 9600
2, 198000, Note_on_c, 0, 49, 95
2, 198216, Pitch_bend_c, 0, 8960
2, 198232, Note_off_c, 0, 49, 80
2, 198240, Pitch_bend_c, 0, 8192
2, 198240, Note_on_c, 0, 47, 95
2, 198712, Note_off_c, 0, 40, 80
2, 198712, Note_off_c, 0, 52, 80
2, 198712, Note_off_c, 0, 47, 80
2, 198720, Note_on_c, 0, 40, 95
2, 198720, Note_on_c, 0, 47, 95
2, 198720, Note_on_c, 0, 52, 95
2, 198952, Note_off_c, 0, 40, 80
2, 198952, Note_off_c, 0, 47, 80
2, 198952, Note_off_c, 0, 52, 80
2, 198960, Note_on_c, 0, 40, 95
2, 198960, Note_on_c, 0, 47, 95
2, 198960, Note_on_c, 0, 52, 95
2, 199192, Note_off_c, 0, 40, 80
2, 199192, Note_off_c, 0, 47, 80
2, 199192, Note_off_c, 0, 52, 80
2, 199200, Note_on_c, 0, 38, 95
2, 199200, Note_on_c, 0, 45, 95
2, 199200, Note_on_c, 0, 50, 95
2, 199432, Note_off_c, 0, 38, 80
2, 199432, Note_off_c, 0, 45, 80
2, 199432, Note_off_c, 0, 50, 80
2, 199440, Note_on_c, 0, 40, 95
2, 199440, Note_on_c, 0, 47, 95
2, 199440, Note_on_c, 0, 52, 95
2, 199912, Note_off_c, 0, 40, 80
2, 199912, Note_off_c, 0, 47, 80
2, 199912, Note_off_c, 0, 52, 80
2, 199920, Note_on_c, 0, 42, 95
2, 199920, Note_on_c, 0, 49, 95
2, 199920, Note_on_c, 0, 54, 95
2, 199920, Note_on_c, 0, 57, 95
2, 200392, Note_off_c, 0, 42, 80
2, 200392, Note_off_c, 0, 49, 80
2, 200392, Note_off_c, 0, 54, 80
2, 200392, Note_off_c, 0, 57, 80
2, 200400, Note_on_c, 0, 40, 95
2, 200400, Note_on_c, 0, 47, 95
2, 200400, Note_on_c, 0, 52, 95
2, 200872, Note_off_c, 0, 40, 80
2, 200872, Note_off_c, 0, 47, 80
2, 200872, Note_off_c, 0, 52, 80
2, 200880, Note_on_c, 0, 38, 95
2, 200880, Note_on_c, 0, 45, 95
2, 200880, Note_on_c, 0, 50, 95
2, 201112, Note_off_c, 0, 38, 80
2, 201112, Note_off_c, 0, 45, 80
2, 201112, Note_off_c, 0, 50, 80
2, 201120, Note_on_c, 0, 38, 95
2, 201120, Note_on_c, 0, 45, 95
2, 201120, Note_on_c, 0, 50, 95
2, 201592, Note_off_c, 0, 38, 80
2, 201592, Note_off_c, 0, 45, 80
2, 201592, Note_off_c, 0, 50, 80
2, 201600, Note_on_c, 0, 47, 95
2, 202080, Note_on_c, 0, 59, 95
2, 202080, Note_on_c, 0, 62, 95
2, 202552, Note_off_c, 0, 59, 80
2, 202552, Note_off_c, 0, 62, 80
2, 202560, Note_on_c, 0, 59, 95
2, 202560, Note_on_c, 0, 62, 95
2, 202572, Note_off_c, 0, 59, 80
2, 202572, Note_off_c, 0, 62, 80
2, 202800, Note_on_c, 0, 59, 95
2, 202800, Note_on_c, 0, 62, 95
2, 203032, Note_off_c, 0, 47, 80
2, 203040, Note_on_c, 0, 47, 95
2, 203272, Note_off_c, 0, 59, 80
2, 203272, Note_off_c, 0, 62, 80
2, 203280, Note_on_c, 0, 59, 95
2, 203280, Note_on_c, 0, 62, 95
2, 203752, Note_off_c, 0, 59, 80
2, 203752, Note_off_c, 0, 62, 80
2, 203760, Note_on_c, 0, 59, 95
2, 203760, Note_on_c, 0, 62, 95
2, 203992, Note_off_c, 0, 59, 80
2, 203992, Note_off_c, 0, 62, 80
2, 204000, Note_on_c, 0, 59, 95
2, 204000, Note_on_c, 0, 62, 95
2, 204472, Note_off_c, 0, 47, 80
2, 204480, Note_on_c, 0, 47, 95
2, 204480, Note_on_c, 0, 54, 95
2, 204492, Note_off_c, 0, 54, 80
2, 204712, Note_off_c, 0, 47, 80
2, 204720, Note_on_c, 0, 47, 95
2, 204720, Note_on_c, 0, 54, 95
2, 204732, Note_off_c, 0, 54, 80
2, 204952, Note_off_c, 0, 59, 80
2, 204952, Note_off_c, 0, 62, 80
2, 204960, Note_on_c, 0, 59, 95
2, 204960, Note_on_c, 0, 62, 95
2, 205192, Note_off_c, 0, 59, 80
2, 205192, Note_off_c, 0, 62, 80
2, 205200, Note_on_c, 0, 59, 95
2, 205200, Note_on_c, 0, 62, 95
2, 205432, Note_off_c, 0, 47, 80
2, 205440, Note_on_c, 0, 47, 95
2, 205912, Note_off_c, 0, 59, 80
2, 205912, Note_off_c, 0, 62, 80
2, 205920, Note_on_c, 0, 59, 95
2, 205920, Note_on_c, 0, 62, 95
2, 206392, Note_off_c, 0, 59, 80
2, 206392, Note_off_c, 0, 62, 80
2, 206400, Note_on_c, 0, 59, 95
2, 206400, Note_on_c, 0, 62, 95
2, 206412, Note_off_c, 0, 59, 80
2, 206412, Note_off_c, 0, 62, 80
2, 206640, Note_on_c, 0, 59, 95
2, 206640, Note_on_c, 0, 62, 95
2, 206872, Note_off_c, 0, 47, 80
2, 206880, Note_on_c, 0, 38, 95
2, 207112, Note_off_c, 0, 38, 80
2, 207120, Note_on_c, 0, 38, 95
2, 207120, Note_on_c, 0, 50, 95
2, 207592, Note_off_c, 0, 38, 80
2, 207592, Note_off_c, 0, 50, 80
2, 207600, Note_on_c, 0, 38, 95
2, 207600, Note_on_c, 0, 52, 95
2, 208072, Note_off_c, 0, 38, 80
2, 208072, Note_off_c, 0, 52, 80
2, 208080, Note_on_c, 0, 38, 95
2, 208080, Note_on_c, 0, 54, 95
2, 208552, Note_off_c, 0, 59, 80
2, 208552, Note_off_c, 0, 62, 80
2, 208552, Note_off_c, 0, 38, 80
2, 208552, Note_off_c, 0, 54, 80
2, 208560, Note_on_c, 0, 38, 95
2, 208560, Note_on_c, 0, 54, 95
2, 208560, Note_on_c, 0, 57, 95
2, 208572, Note_off_c, 0, 54, 80
2, 209032, Note_off_c, 0, 57, 80
2, 209040, Note_on_c, 0, 54, 95
2, 209040, Note_on_c, 0, 59, 95
2, 209052, Note_off_c, 0, 54, 80
2, 209272, Note_off_c, 0, 38, 80
2, 209280, Note_on_c, 0, 47, 95
2, 209752, Note_off_c, 0, 59, 80
2, 209760, Note_on_c, 0, 59, 95
2, 209760, Note_on_c, 0, 62, 95
2, 210232, Note_off_c, 0, 59, 80
2, 210232, Note_off_c, 0, 62, 80
2, 210240, Note_on_c, 0, 59, 95
2, 210240, Note_on_c, 0, 62, 95
2, 210252, Note_off_c, 0, 59, 80
2, 210252, Note_off_c, 0, 62, 80
2, 210480, Note_on_c, 0, 59, 95
2, 210480, Note_on_c, 0, 62, 95
2, 210712, Note_off_c, 0, 47, 80
2, 210720, Note_on_c, 0, 47, 95
2, 210952, Note_off_c, 0, 59, 80
2, 210952, Note_off_c, 0, 62, 80
2, 210960, Note_on_c, 0, 59, 95
2, 210960, Note_on_c, 0, 62, 95
2, 211432, Note_off_c, 0, 59, 80
2, 211432, Note_off_c, 0, 62, 80
2, 211440, Note_on_c, 0, 59, 95
2, 211440, Note_on_c, 0, 62, 95
2, 211672, Note_off_c, 0, 59, 80
2, 211672, Note_off_c, 0, 62, 80
2, 211680, Note_on_c, 0, 59, 95
2, 211680, Note_on_c, 0, 62, 95
2, 212152, Note_off_c, 0, 47, 80
2, 212160, Note_on_c, 0, 47, 95
2, 212160, Note_on_c, 0, 54, 95
2, 212172, Note_off_c, 0, 54, 80
2, 212392, Note_off_c, 0, 47, 80
2, 212400, Note_on_c, 0, 47, 95
2, 212400, Note_on_c, 0, 54, 95
2, 212412, Note_off_c, 0, 54, 80
2, 212632, Note_off_c, 0, 59, 80
2, 212632, Note_off_c, 0, 62, 80
2, 212640, Note_on_c, 0, 59, 95
2, 212640, Note_on_c, 0, 62, 95
2, 212872, Note_off_c, 0, 59, 80
2, 212872, Note_off_c, 0, 62, 80
2, 212880, Note_on_c, 0, 59, 95
2, 212880, Note_on_c, 0, 62, 95
2, 213112, Note_off_c, 0, 47, 80
2, 213120, Note_on_c, 0, 47, 95
2, 213592, Note_off_c, 0, 59, 80
2, 213592, Note_off_c, 0, 62, 80
2, 213600, Note_on_c, 0, 59, 95
2, 213600, Note_on_c, 0, 62, 95
2, 214072, Note_off_c, 0, 59, 80
2, 214072, Note_off_c, 0, 62, 80
2, 214080, Note_on_c, 0, 59, 95
2, 214080, Note_on_c, 0, 62, 95
2, 214092, Note_off_c, 0, 59, 80
2, 214092, Note_off_c, 0, 62, 80
2, 214320, Note_on_c, 0, 59, 95
2, 214320, Note_on_c, 0, 62, 95
2, 214552, Note_off_c, 0, 47, 80
2, 214560, Note_on_c, 0, 38, 95
2, 214792, Note_off_c, 0, 38, 80
2, 214800, Note_on_c, 0, 38, 95
2, 214800, Note_on_c, 0, 50, 95
2, 215272, Note_off_c, 0, 38, 80
2, 215272, Note_off_c, 0, 50, 80
2, 215280, Note_on_c, 0, 38, 95
2, 215280, Note_on_c, 0, 52, 95
2, 215752, Note_off_c, 0, 38, 80
2, 215752, Note_off_c, 0, 52, 80
2, 215760, Note_on_c, 0, 38, 95
2, 215760, Note_on_c, 0, 54, 95
2, 216232, Note_off_c, 0, 59, 80
2, 216232, Note_off_c, 0, 62, 80
2, 216232, Note_off_c, 0, 38, 80
2, 216232, Note_off_c, 0, 54, 80
2, 216240, Note_on_c, 0, 38, 95
2, 216240, Note_on_c, 0, 54, 95
2, 216240, Note_on_c, 0, 57, 95
2, 216252, Note_off_c, 0, 54, 80
2, 216712, Note_off_c, 0, 57, 80
2, 216720, Note_on_c, 0, 54, 95
2, 216720, Note_on_c, 0, 59, 95
2, 216732, Note_off_c, 0, 54, 80
2, 216952, Note_off_c, 0, 38, 80
2, 216952, Note_off_c, 0, 59, 80
2, 216960, Note_on_c, 0, 43, 95
2, 216960, Note_on_c, 0, 50, 95
2, 216960, Note_on_c, 0, 55, 95
2, 216960, Note_on_c, 0, 59, 95
2, 217432, Note_off_c, 0, 43, 80
2, 217432, Note_off_c, 0, 50, 80
2, 217432, Note_off_c, 0, 55, 80
2, 217432, Note_off_c, 0, 59, 80
2, 217440, Note_on_c, 0, 43, 95
2, 217440, Note_on_c, 0, 50, 95
2, 217440, Note_on_c, 0, 55, 95
2, 217440, Note_on_c, 0, 59, 95
2, 217912, Note_off_c, 0, 43, 80
2, 217912, Note_off_c, 0, 50, 80
2, 217912, Note_off_c, 0, 55, 80
2, 217912, Note_off_c, 0, 59, 80
2, 217920, Note_on_c, 0, 43, 95
2, 217920, Note_on_c, 0, 50, 95
2, 217920, Note_on_c, 0, 55, 95
2, 217920, Note_on_c, 0, 59, 95
2, 218152, Note_off_c, 0, 43, 80
2, 218152, Note_off_c, 0, 50, 80
2, 218152, Note_off_c, 0, 55, 80
2, 218152, Note_off_c, 0, 59, 80
2, 218160, Note_on_c, 0, 43, 95
2, 218160, Note_on_c, 0, 50, 95
2, 218160, Note_on_c, 0, 55, 95
2, 218160, Note_on_c, 0, 59, 95
2, 218392, Note_off_c, 0, 43, 80
2, 218392, Note_off_c, 0, 50, 80
2, 218392, Note_off_c, 0, 55, 80
2, 218392, Note_off_c, 0, 59, 80
2, 218400, Note_on_c, 0, 43, 95
2, 218400, Note_on_c, 0, 50, 95
2, 218400, Note_on_c, 0, 55, 95
2, 218400, Note_on_c, 0, 59, 95
2, 218632, Note_off_c, 0, 43, 80
2, 218632, Note_off_c, 0, 50, 80
2, 218632, Note_off_c, 0, 55, 80
2, 218632, Note_off_c, 0, 59, 80
2, 218640, Note_on_c, 0, 42, 95
2, 218640, Note_on_c, 0, 49, 95
2, 218640, Note_on_c, 0, 54, 95
2, 218640, Note_on_c, 0, 57, 95
2, 219112, Note_off_c, 0, 42, 80
2, 219112, Note_off_c, 0, 49, 80
2, 219112, Note_off_c, 0, 54, 80
2, 219112, Note_off_c, 0, 57, 80
2, 219120, Note_on_c, 0, 42, 95
2, 219120, Note_on_c, 0, 49, 95
2, 219120, Note_on_c, 0, 54, 95
2, 219120, Note_on_c, 0, 57, 95
2, 219352, Note_off_c, 0, 42, 80
2, 219352, Note_off_c, 0, 49, 80
2, 219352, Note_off_c, 0, 54, 80
2, 219352, Note_off_c, 0, 57, 80
2, 219360, Note_on_c, 0, 42, 95
2, 219360, Note_on_c, 0, 49, 95
2, 219360, Note_on_c, 0, 54, 95
2, 219360, Note_on_c, 0, 57, 95
2, 220072, Note_off_c, 0, 42, 80
2, 220072, Note_off_c, 0, 49, 80
2, 220072, Note_off_c, 0, 54, 80
2, 220072, Note_off_c, 0, 57, 80
2, 220080, Note_on_c, 0, 42, 95
2, 220080, Note_on_c, 0, 49, 95
2, 220080, Note_on_c, 0, 54, 95
2, 220080, Note_on_c, 0, 57, 95
2, 220312, Note_off_c, 0, 42, 80
2, 220312, Note_off_c, 0, 49, 80
2, 220312, Note_off_c, 0, 54, 80
2, 220312, Note_off_c, 0, 57, 80
2, 220320, Note_on_c, 0, 42, 95
2, 220320, Note_on_c, 0, 49, 95
2, 220320, Note_on_c, 0, 54, 95
2, 220320, Note_on_c, 0, 57, 95
2, 220552, Note_off_c, 0, 42, 80
2, 220552, Note_off_c, 0, 49, 80
2, 220552, Note_off_c, 0, 54, 80
2, 220552, Note_off_c, 0, 57, 80
2, 220560, Note_on_c, 0, 42, 95
2, 220560, Note_on_c, 0, 49, 95
2, 220560, Note_on_c, 0, 54, 95
2, 220560, Note_on_c, 0, 57, 95
2, 220792, Note_off_c, 0, 42, 80
2, 220792, Note_off_c, 0, 49, 80
2, 220792, Note_off_c, 0, 54, 80
2, 220792, Note_off_c, 0, 57, 80
2, 220800, Note_on_c, 0, 42, 95
2, 220800, Note_on_c, 0, 49, 95
2, 220800, Note_on_c, 0, 54, 95
2, 220800, Note_on_c, 0, 57, 95
2, 220992, Pitch_bend_c, 0, 8832
2, 221032, Note_off_c, 0, 42, 80
2, 221032, Note_off_c, 0, 49, 80
2, 221032, Note_off_c, 0, 54, 80
2, 221032, Note_off_c, 0, 57, 80
2, 221040, Pitch_bend_c, 0, 8192
2, 221040, Note_on_c, 0, 43, 76
2, 221040, Note_on_c, 0, 50, 76
2, 221040, Note_on_c, 0, 55, 76
2, 221040, Note_on_c, 0, 59, 76
2, 221232, Pitch_bend_c, 0, 7552
2, 221272, Note_off_c, 0, 43, 80
2, 221272, Note_off_c, 0, 50, 80
2, 221272, Note_off_c, 0, 55, 80
2, 221272, Note_off_c, 0, 59, 80
2, 221280, Pitch_bend_c, 0, 8192
2, 221280, Note_on_c, 0, 42, 76
2, 221280, Note_on_c, 0, 49, 76
2, 221280, Note_on_c, 0, 54, 76
2, 221280, Note_on_c, 0, 57, 76
2, 221752, Note_off_c, 0, 42, 80
2, 221752, Note_off_c, 0, 49, 80
2, 221752, Note_off_c, 0, 54, 80
2, 221752, Note_off_c, 0, 57, 80
2, 221760, Note_on_c, 0, 42, 95
2, 221760, Note_on_c, 0, 49, 95
2, 221760, Note_on_c, 0, 54, 95
2, 221760, Note_on_c, 0, 57, 95
2, 221992, Note_off_c, 0, 42, 80
2, 221992, Note_off_c, 0, 49, 80
2, 221992, Note_off_c, 0, 54, 80
2, 221992, Note_off_c, 0, 57, 80
2, 222000, Note_on_c, 0, 42, 95
2, 222000, Note_on_c, 0, 49, 95
2, 222000, Note_on_c, 0, 54, 95
2, 222000, Note_on_c, 0, 57, 95
2, 222232, Note_off_c, 0, 42, 80
2, 222232, Note_off_c, 0, 49, 80
2, 222232, Note_off_c, 0, 54, 80
2, 222232, Note_off_c, 0, 57, 80
2, 222240, Note_on_c, 0, 38, 95
2, 222240, Note_on_c, 0, 45, 95
2, 222240, Note_on_c, 0, 50, 95
2, 222472, Note_off_c, 0, 38, 80
2, 222472, Note_off_c, 0, 45, 80
2, 222472, Note_off_c, 0, 50, 80
2, 222480, Note_on_c, 0, 40, 95
2, 222480, Note_on_c, 0, 47, 95
2, 222480, Note_on_c, 0, 52, 95
2, 222480, Note_on_c, 0, 55, 95
2, 222952, Note_off_c, 0, 40, 80
2, 222952, Note_off_c, 0, 47, 80
2, 222952, Note_off_c, 0, 52, 80
2, 222952, Note_off_c, 0, 55, 80
2, 222960, Note_on_c, 0, 42, 95
2, 222960, Note_on_c, 0, 49, 95
2, 222960, Note_on_c, 0, 54, 95
2, 222960, Note_on_c, 0, 57, 95
2, 223432, Note_off_c, 0, 42, 80
2, 223432, Note_off_c, 0, 49, 80
2, 223432, Note_off_c, 0, 54, 80
2, 223432, Note_off_c, 0, 57, 80
2, 223440, Note_on_c, 0, 40, 95
2, 223440, Note_on_c, 0, 47, 95
2, 223440, Note_on_c, 0, 52, 95
2, 223912, Note_off_c, 0, 40, 80
2, 223912, Note_off_c, 0, 47, 80
2, 223912, Note_off_c, 0, 52, 80
2, 223920, Note_on_c, 0, 38, 95
2, 223920, Note_on_c, 0, 45, 95
2, 223920, Note_on_c, 0, 50, 95
2, 224152, Note_off_c, 0, 38, 80
2, 224152, Note_off_c, 0, 45, 80
2, 224152, Note_off_c, 0, 50, 80
2, 224160, Note_on_c, 0, 38, 95
2, 224160, Note_on_c, 0, 45, 95
2, 224160, Note_on_c, 0, 50, 95
2, 224632, Note_off_c, 0, 38, 80
2, 224632, Note_off_c, 0, 45, 80
2, 224632, Note_off_c, 0, 50, 80
2, 224640, Note_on_c, 0, 45, 95
2, 224640, Note_on_c, 0, 52, 95
2, 224640, Note_on_c, 0, 57, 95
2, 224640, Note_on_c, 0, 61, 95
2, 225112, Note_off_c, 0, 45, 80
2, 225112, Note_off_c, 0, 52, 80
2, 225112, Note_off_c, 0, 57, 80
2, 225112, Note_off_c, 0, 61, 80
2, 225120, Note_on_c, 0, 45, 95
2, 225120, Note_on_c, 0, 52, 95
2, 225120, Note_on_c, 0, 57, 95
2, 225120, Note_on_c, 0, 61, 95
2, 225592, Note_off_c, 0, 45, 80
2, 225592, Note_off_c, 0, 52, 80
2, 225592, Note_off_c, 0, 57, 80
2, 225592, Note_off_c, 0, 61, 80
2, 225600, Note_on_c, 0, 45, 95
2, 225600, Note_on_c, 0, 52, 95
2, 225600, Note_on_c, 0, 57, 95
2, 225600, Note_on_c, 0, 61, 95
2, 225832, Note_off_c, 0, 45, 80
2, 225832, Note_off_c, 0, 52, 80
2, 225832, Note_off_c, 0, 57, 80
2, 225832, Note_off_c, 0, 61, 80
2, 225840, Note_on_c, 0, 45, 95
2, 225840, Note_on_c, 0, 52, 95
2, 225840, Note_on_c, 0, 57, 95
2, 225840, Note_on_c, 0, 61, 95
2, 226072, Note_off_c, 0, 45, 80
2, 226072, Note_off_c, 0, 52, 80
2, 226072, Note_off_c, 0, 57, 80
2, 226072, Note_off_c, 0, 61, 80
2, 226080, Note_on_c, 0, 45, 95
2, 226080, Note_on_c, 0, 52, 95
2, 226080, Note_on_c, 0, 57, 95
2, 226080, Note_on_c, 0, 61, 95
2, 226312, Note_off_c, 0, 45, 80
2, 226312, Note_off_c, 0, 52, 80
2, 226312, Note_off_c, 0, 57, 80
2, 226312, Note_off_c, 0, 61, 80
2, 226320, Note_on_c, 0, 43, 95
2, 226320, Note_on_c, 0, 50, 95
2, 226320, Note_on_c, 0, 55, 95
2, 226320, Note_on_c, 0, 59, 95
2, 226792, Note_off_c, 0, 43, 80
2, 226792, Note_off_c, 0, 50, 80
2, 226792, Note_off_c, 0, 55, 80
2, 226792, Note_off_c, 0, 59, 80
2, 226800, Note_on_c, 0, 43, 95
2, 226800, Note_on_c, 0, 50, 95
2, 226800, Note_on_c, 0, 55, 95
2, 226800, Note_on_c, 0, 59, 95
2, 227272, Note_off_c, 0, 43, 80
2, 227272, Note_off_c, 0, 50, 80
2, 227272, Note_off_c, 0, 55, 80
2, 227272, Note_off_c, 0, 59, 80
2, 227280, Note_on_c, 0, 43, 95
2, 227280, Note_on_c, 0, 50, 95
2, 227280, Note_on_c, 0, 55, 95
2, 227280, Note_on_c, 0, 59, 95
2, 227752, Note_off_c, 0, 43, 80
2, 227752, Note_off_c, 0, 50, 80
2, 227752, Note_off_c, 0, 55, 80
2, 227752, Note_off_c, 0, 59, 80
2, 227760, Note_on_c, 0, 43, 95
2, 227760, Note_on_c, 0, 50, 95
2, 227760, Note_on_c, 0, 55, 95
2, 227760, Note_on_c, 0, 59, 95
2, 227992, Note_off_c, 0, 43, 80
2, 227992, Note_off_c, 0, 50, 80
2, 227992, Note_off_c, 0, 55, 80
2, 227992, Note_off_c, 0, 59, 80
2, 228000, Note_on_c, 0, 43, 95
2, 228000, Note_on_c, 0, 50, 95
2, 228000, Note_on_c, 0, 55, 95
2, 228000, Note_on_c, 0, 59, 95
2, 228232, Note_off_c, 0, 43, 80
2, 228232, Note_off_c, 0, 50, 80
2, 228232, Note_off_c, 0, 55, 80
2, 228232, Note_off_c, 0, 59, 80
2, 228240, Note_on_c, 0, 43, 95
2, 228240, Note_on_c, 0, 50, 95
2, 228240, Note_on_c, 0, 55, 95
2, 228240, Note_on_c, 0, 59, 95
2, 228472, Note_off_c, 0, 43, 80
2, 228472, Note_off_c, 0, 50, 80
2, 228472, Note_off_c, 0, 55, 80
2, 228472, Note_off_c, 0, 59, 80
2, 228480, Note_on_c, 0, 40, 95
2, 228480, Note_on_c, 0, 47, 95
2, 228480, Note_on_c, 0, 52, 95
2, 228696, Pitch_bend_c, 0, 8832
2, 228712, Note_off_c, 0, 47, 80
2, 228720, Pitch_bend_c, 0, 9600
2, 228720, Note_on_c, 0, 49, 95
2, 228936, Pitch_bend_c, 0, 8960
2, 228952, Note_off_c, 0, 49, 80
2, 228960, Pitch_bend_c, 0, 8192
2, 228960, Note_on_c, 0, 47, 95
2, 229432, Note_off_c, 0, 40, 80
2, 229432, Note_off_c, 0, 52, 80
2, 229432, Note_off_c, 0, 47, 80
2, 229440, Note_on_c, 0, 40, 95
2, 229440, Note_on_c, 0, 47, 95
2, 229440, Note_on_c, 0, 52, 95
2, 229672, Note_off_c, 0, 40, 80
2, 229672, Note_off_c, 0, 47, 80
2, 229672, Note_off_c, 0, 52, 80
2, 229680, Note_on_c, 0, 40, 95
2, 229680, Note_on_c, 0, 47, 95
2, 229680, Note_on_c, 0, 52, 95
2, 229912, Note_off_c, 0, 40, 80
2, 229912, Note_off_c, 0, 47, 80
2, 229912, Note_off_c, 0, 52, 80
2, 229920, Note_on_c, 0, 38, 95
2, 229920, Note_on_c, 0, 45, 95
2, 229920, Note_on_c, 0, 50, 95
2, 230152, Note_off_c, 0, 38, 80
2, 230152, Note_off_c, 0, 45, 80
2, 230152, Note_off_c, 0, 50, 80
2, 230160, Note_on_c, 0, 40, 95
2, 230160, Note_on_c, 0, 47, 95
2, 230160, Note_on_c, 0, 52, 95
2, 230632, Note_off_c, 0, 40, 80
2, 230632, Note_off_c, 0, 47, 80
2, 230632, Note_off_c, 0, 52, 80
2, 230640, Note_on_c, 0, 42, 95
2, 230640, Note_on_c, 0, 49, 95
2, 230640, Note_on_c, 0, 54, 95
2, 230640, Note_on_c, 0, 57, 95
2, 231112, Note_off_c, 0, 42, 80
2, 231112, Note_off_c, 0, 49, 80
2, 231112, Note_off_c, 0, 54, 80
2, 231112, Note_off_c, 0, 57, 80
2, 231120, Note_on_c, 0, 40, 95
2, 231120, Note_on_c, 0, 47, 95
2, 231120, Note_on_c, 0, 52, 95
2, 231592, Note_off_c, 0, 40, 80
2, 231592, Note_off_c, 0, 47, 80
2, 231592, Note_off_c, 0, 52, 80
2, 231600, Note_on_c, 0, 38, 95
2, 231600, Note_on_c, 0, 45, 95
2, 231600, Note_on_c, 0, 50, 95
2, 231832, Note_off_c, 0, 38, 80
2, 231832, Note_off_c, 0, 45, 80
2, 231832, Note_off_c, 0, 50, 80
2, 231840, Note_on_c, 0, 38, 95
2, 231840, Note_on_c, 0, 45, 95
2, 231840, Note_on_c, 0, 50, 95
2, 232312, Note_off_c, 0, 38, 80
2, 232312, Note_off_c, 0, 45, 80
2, 232312, Note_off_c, 0, 50, 80
2, 232320, Control_c, 0, 7, 104
2, 232320, Control_c, 0, 10, 81
2, 232320, Note_on_c, 0, 47, 95
2, 232560, Note_on_c, 0, 59, 95
2, 232800, Note_on_c, 0, 62, 95
2, 233032, Note_off_c, 0, 47, 80
2, 233040, Note_on_c, 0, 47, 95
2, 233272, Note_off_c, 0, 59, 80
2, 233280, Note_on_c, 0, 59, 95
2, 233512, Note_off_c, 0, 62, 80
2, 233520, Note_on_c, 0, 62, 95
2, 233752, Note_off_c, 0, 47, 80
2, 233760, Note_on_c, 0, 47, 95
2, 233992, Note_off_c, 0, 59, 80
2, 233992, Note_off_c, 0, 62, 80
2, 234000, Note_on_c, 0, 59, 50
2, 234000, Note_on_c, 0, 62, 95
2, 234232, Note_off_c, 0, 47, 80
2, 234240, Note_on_c, 0, 47, 95
2, 234472, Note_off_c, 0, 59, 80
2, 234480, Note_on_c, 0, 59, 95
2, 234712, Note_off_c, 0, 62, 80
2, 234720, Note_on_c, 0, 62, 95
2, 234952, Note_off_c, 0, 47, 80
2, 234960, Note_on_c, 0, 47, 95
2, 235192, Note_off_c, 0, 59, 80
2, 235200, Note_on_c, 0, 59, 95
2, 235432, Note_off_c, 0, 62, 80
2, 235440, Note_on_c, 0, 62, 95
2, 235672, Note_off_c, 0, 47, 80
2, 235680, Note_on_c, 0, 47, 95
2, 235912, Note_off_c, 0, 59, 80
2, 235912, Note_off_c, 0, 62, 80
2, 235920, Note_on_c, 0, 59, 50
2, 235920, Note_on_c, 0, 62, 95
2, 236152, Note_off_c, 0, 47, 80
2, 236160, Note_on_c, 0, 47, 95
2, 236392, Note_off_c, 0, 59, 80
2, 236400, Note_on_c, 0, 59, 95
2, 236632, Note_off_c, 0, 62, 80
2, 236640, Note_on_c, 0, 62, 95
2, 236872, Note_off_c, 0, 47, 80
2, 236880, Note_on_c, 0, 47, 95
2, 237112, Note_off_c, 0, 59, 80
2, 237120, Note_on_c, 0, 59, 95
2, 237352, Note_off_c, 0, 62, 80
2, 237360, Note_on_c, 0, 62, 95
2, 237592, Note_off_c, 0, 47, 80
2, 237600, Note_on_c, 0, 47, 95
2, 237832, Note_off_c, 0, 59, 80
2, 237832, Note_off_c, 0, 62, 80
2, 237840, Note_on_c, 0, 59, 50
2, 237840, Note_on_c, 0, 62, 95
2, 238072, Note_off_c, 0, 47, 80
2, 238080, Note_on_c, 0, 47, 95
2, 238312, Note_off_c, 0, 59, 80
2, 238320, Note_on_c, 0, 59, 95
2, 238552, Note_off_c, 0, 62, 80
2, 238560, Note_on_c, 0, 62, 95
2, 238792, Note_off_c, 0, 47, 80
2, 238800, Note_on_c, 0, 47, 95
2, 239032, Note_off_c, 0, 59, 80
2, 239040, Note_on_c, 0, 59, 95
2, 239272, Note_off_c, 0, 62, 80
2, 239280, Note_on_c, 0, 62, 95
2, 239512, Note_off_c, 0, 47, 80
2, 239520, Note_on_c, 0, 47, 95
2, 239752, Note_off_c, 0, 59, 80
2, 239752, Note_off_c, 0, 62, 80
2, 239760, Note_on_c, 0, 59, 50
2, 239760, Note_on_c, 0, 62, 95
2, 239992, Note_off_c, 0, 47, 80
2, 240000, Note_on_c, 0, 46, 95
2, 240232, Note_off_c, 0, 59, 80
2, 240240, Note_on_c, 0, 58, 95
2, 240472, Note_off_c, 0, 62, 80
2, 240480, Note_on_c, 0, 61, 95
2, 240712, Note_off_c, 0, 46, 80
2, 240720, Note_on_c, 0, 46, 95
2, 240952, Note_off_c, 0, 58, 80
2, 240960, Note_on_c, 0, 58, 95
2, 241192, Note_off_c, 0, 61, 80
2, 241200, Note_on_c, 0, 61, 95
2, 241432, Note_off_c, 0, 46, 80
2, 241440, Note_on_c, 0, 46, 95
2, 241672, Note_off_c, 0, 58, 80
2, 241672, Note_off_c, 0, 61, 80
2, 241680, Note_on_c, 0, 58, 50
2, 241680, Note_on_c, 0, 61, 95
2, 241912, Note_off_c, 0, 46, 80
2, 241920, Note_on_c, 0, 46, 95
2, 242152, Note_off_c, 0, 58, 80
2, 242160, Note_on_c, 0, 58, 95
2, 242392, Note_off_c, 0, 61, 80
2, 242400, Note_on_c, 0, 61, 95
2, 242632, Note_off_c, 0, 46, 80
2, 242640, Note_on_c, 0, 46, 95
2, 242872, Note_off_c, 0, 58, 80
2, 242880, Note_on_c, 0, 58, 95
2, 243112, Note_off_c, 0, 61, 80
2, 243120, Note_on_c, 0, 61, 95
2, 243352, Note_off_c, 0, 46, 80
2, 243360, Note_on_c, 0, 46, 95
2, 243592, Note_off_c, 0, 58, 80
2, 243592, Note_off_c, 0, 61, 80
2, 243600, Note_on_c, 0, 58, 50
2, 243600, Note_on_c, 0, 61, 95
2, 243832, Note_off_c, 0, 46, 80
2, 243840, Note_on_c, 0, 38, 95
2, 244072, Note_off_c, 0, 58, 80
2, 244080, Note_on_c, 0, 54, 95
2, 244312, Note_off_c, 0, 61, 80
2, 244320, Note_on_c, 0, 61, 95
2, 244552, Note_off_c, 0, 38, 80
2, 244560, Note_on_c, 0, 38, 95
2, 244792, Note_off_c, 0, 54, 80
2, 244800, Note_on_c, 0, 54, 95
2, 245032, Note_off_c, 0, 61, 80
2, 245040, Note_on_c, 0, 61, 95
2, 245272, Note_off_c, 0, 38, 80
2, 245280, Note_on_c, 0, 38, 95
2, 245512, Note_off_c, 0, 54, 80
2, 245512, Note_off_c, 0, 61, 80
2, 245520, Note_on_c, 0, 54, 50
2, 245520, Note_on_c, 0, 61, 95
2, 245752, Note_off_c, 0, 38, 80
2, 245760, Note_on_c, 0, 38, 95
2, 245992, Note_off_c, 0, 54, 80
2, 246000, Note_on_c, 0, 54, 95
2, 246232, Note_off_c, 0, 61, 80
2, 246240, Note_on_c, 0, 59, 95
2, 246472, Note_off_c, 0, 38, 80
2, 246480, Note_on_c, 0, 38, 95
2, 246712, Note_off_c, 0, 54, 80
2, 246720, Note_on_c, 0, 54, 95
2, 246952, Note_off_c, 0, 59, 80
2, 246960, Note_on_c, 0, 59, 95
2, 247192, Note_off_c, 0, 38, 80
2, 247200, Note_on_c, 0, 38, 95
2, 247432, Note_off_c, 0, 54, 80
2, 247432, Note_off_c, 0, 59, 80
2, 247440, Note_on_c, 0, 54, 50
2, 247440, Note_on_c, 0, 59, 95
2, 247672, Note_off_c, 0, 38, 80
2, 247680, Note_on_c, 0, 43, 95
2, 247912, Note_off_c, 0, 54, 80
2, 247920, Note_on_c, 0, 50, 95
2, 248152, Note_off_c, 0, 59, 80
2, 248160, Note_on_c, 0, 55, 95
2, 248392, Note_off_c, 0, 43, 80
2, 248400, Note_on_c, 0, 43, 95
2, 248632, Note_off_c, 0, 50, 80
2, 248640, Note_on_c, 0, 50, 95
2, 248872, Note_off_c, 0, 55, 80
2, 248880, Note_on_c, 0, 59, 95
2, 249112, Note_off_c, 0, 43, 80
2, 249120, Note_on_c, 0, 38, 95
2, 249352, Note_off_c, 0, 59, 80
2, 249352, Note_off_c, 0, 38, 80
2, 249360, Note_on_c, 0, 42, 95
2, 249360, Note_on_c, 0, 61, 95
2, 249832, Note_off_c, 0, 50, 80
2, 249832, Note_off_c, 0, 42, 80
2, 249840, Note_on_c, 0, 50, 95
2, 250080, Note_on_c, 0, 42, 95
2, 250312, Note_off_c, 0, 50, 80
2, 250320, Note_on_c, 0, 50, 95
2, 250552, Note_off_c, 0, 61, 80
2, 250560, Note_on_c, 0, 61, 95
2, 250792, Note_off_c, 0, 61, 80
2, 250800, Note_on_c, 0, 62, 95
2, 251032, Note_off_c, 0, 62, 80
2, 251040, Note_on_c, 0, 61, 95
2, 251272, Note_off_c, 0, 50, 80
2, 251280, Note_on_c, 0, 50, 95
2, 251512, Note_off_c, 0, 42, 80
2, 251520, Note_on_c, 0, 43, 95
2, 251752, Note_off_c, 0, 50, 80
2, 251760, Note_on_c, 0, 50, 95
2, 251992, Note_off_c, 0, 61, 80
2, 252000, Note_on_c, 0, 55, 95
2, 252232, Note_off_c, 0, 43, 80
2, 252240, Note_on_c, 0, 43, 95
2, 252472, Note_off_c, 0, 50, 80
2, 252480, Note_on_c, 0, 50, 95
2, 252712, Note_off_c, 0, 55, 80
2, 252720, Note_on_c, 0, 59, 95
2, 252952, Note_off_c, 0, 43, 80
2, 252960, Note_on_c, 0, 38, 95
2, 253192, Note_off_c, 0, 59, 80
2, 253192, Note_off_c, 0, 38, 80
2, 253200, Note_on_c, 0, 42, 95
2, 253200, Note_on_c, 0, 61, 95
2, 253672, Note_off_c, 0, 50, 80
2, 253672, Note_off_c, 0, 42, 80
2, 253680, Note_on_c, 0, 50, 95
2, 253920, Note_on_c, 0, 42, 95
2, 254152, Note_off_c, 0, 50, 80
2, 254160, Note_on_c, 0, 50, 95
2, 254392, Note_off_c, 0, 61, 80
2, 254400, Note_on_c, 0, 61, 95
2, 254632, Note_off_c, 0, 61, 80
2, 254640, Note_on_c, 0, 62, 95
2, 254872, Note_off_c, 0, 62, 80
2, 254880, Note_on_c, 0, 61, 95
2, 255112, Note_off_c, 0, 50, 80
2, 255120, Note_on_c, 0, 50, 95
2, 255360, Note_on_c, 0, 64, 95
2, 255592, Note_off_c, 0, 50, 80
2, 255600, Note_on_c, 0, 59, 95
2, 255832, Note_off_c, 0, 42, 80
2, 255832, Note_off_c, 0, 61, 80
2, 255840, Note_on_c, 0, 62, 95
2, 256072, Note_off_c, 0, 64, 80
2, 256080, Note_on_c, 0, 64, 95
2, 256312, Note_off_c, 0, 59, 80
2, 256320, Note_on_c, 0, 59, 95
2, 256552, Note_off_c, 0, 62, 80
2, 256560, Note_on_c, 0, 62, 95
2, 256792, Note_off_c, 0, 64, 80
2, 256800, Note_on_c, 0, 64, 95
2, 257032, Note_off_c, 0, 59, 80
2, 257032, Note_off_c, 0, 62, 80
2, 257040, Note_on_c, 0, 59, 76
2, 257040, Note_on_c, 0, 62, 95
2, 257272, Note_off_c, 0, 64, 80
2, 257280, Note_on_c, 0, 64, 95
2, 257512, Note_off_c, 0, 59, 80
2, 257520, Note_on_c, 0, 59, 95
2, 257752, Note_off_c, 0, 62, 80
2, 257760, Note_on_c, 0, 62, 95
2, 257992, Note_off_c, 0, 64, 80
2, 258000, Note_on_c, 0, 64, 95
2, 258232, Note_off_c, 0, 59, 80
2, 258240, Note_on_c, 0, 59, 95
2, 258472, Note_off_c, 0, 62, 80
2, 258480, Note_on_c, 0, 62, 95
2, 258712, Note_off_c, 0, 64, 80
2, 258720, Note_on_c, 0, 64, 95
2, 258952, Note_off_c, 0, 59, 80
2, 258952, Note_off_c, 0, 62, 80
2, 258960, Note_on_c, 0, 59, 76
2, 258960, Note_on_c, 0, 62, 95
2, 259192, Note_off_c, 0, 64, 80
2, 259200, Note_on_c, 0, 64, 95
2, 259432, Note_off_c, 0, 59, 80
2, 259440, Note_on_c, 0, 59, 95
2, 259672, Note_off_c, 0, 62, 80
2, 259680, Note_on_c, 0, 62, 95
2, 259912, Note_off_c, 0, 64, 80
2, 259920, Note_on_c, 0, 64, 95
2, 260152, Note_off_c, 0, 59, 80
2, 260160, Note_on_c, 0, 59, 95
2, 260392, Note_off_c, 0, 62, 80
2, 260400, Note_on_c, 0, 62, 95
2, 260632, Note_off_c, 0, 64, 80
2, 260640, Note_on_c, 0, 64, 95
2, 260872, Note_off_c, 0, 59, 80
2, 260872, Note_off_c, 0, 62, 80
2, 260880, Note_on_c, 0, 59, 76
2, 260880, Note_on_c, 0, 62, 95
2, 261112, Note_off_c, 0, 64, 80
2, 261120, Note_on_c, 0, 64, 95
2, 261352, Note_off_c, 0, 59, 80
2, 261360, Note_on_c, 0, 59, 95
2, 261592, Note_off_c, 0, 62, 80
2, 261600, Note_on_c, 0, 62, 95
2, 261832, Note_off_c, 0, 64, 80
2, 261840, Note_on_c, 0, 64, 95
2, 262072, Note_off_c, 0, 59, 80
2, 262080, Note_on_c, 0, 59, 95
2, 262312, Note_off_c, 0, 62, 80
2, 262320, Note_on_c, 0, 62, 95
2, 262552, Note_off_c, 0, 64, 80
2, 262560, Note_on_c, 0, 64, 95
2, 262792, Note_off_c, 0, 59, 80
2, 262792, Note_off_c, 0, 62, 80
2, 262800, Note_on_c, 0, 59, 76
2, 262800, Note_on_c, 0, 62, 95
2, 263032, Note_off_c, 0, 64, 80
2, 263040, Note_on_c, 0, 64, 95
2, 263272, Note_off_c, 0, 59, 80
2, 263280, Note_on_c, 0, 58, 95
2, 263512, Note_off_c, 0, 62, 80
2, 263520, Note_on_c, 0, 61, 95
2, 263752, Note_off_c, 0, 64, 80
2, 263760, Note_on_c, 0, 64, 95
2, 263992, Note_off_c, 0, 58, 80
2, 264000, Note_on_c, 0, 58, 95
2, 264232, Note_off_c, 0, 61, 80
2, 264240, Note_on_c, 0, 61, 95
2, 264472, Note_off_c, 0, 64, 80
2, 264480, Note_on_c, 0, 64, 95
2, 264712, Note_off_c, 0, 58, 80
2, 264712, Note_off_c, 0, 61, 80
2, 264720, Note_on_c, 0, 58, 76
2, 264720, Note_on_c, 0, 61, 95
2, 264952, Note_off_c, 0, 64, 80
2, 264960, Note_on_c, 0, 64, 95
2, 265192, Note_off_c, 0, 58, 80
2, 265200, Note_on_c, 0, 58, 95
2, 265432, Note_off_c, 0, 61, 80
2, 265440, Note_on_c, 0, 61, 95
2, 265672, Note_off_c, 0, 64, 80
2, 265680, Note_on_c, 0, 64, 95
2, 265912, Note_off_c, 0, 58, 80
2, 265920, Note_on_c, 0, 58, 95
2, 266152, Note_off_c, 0, 61, 80
2, 266160, Note_on_c, 0, 61, 95
2, 266392, Note_off_c, 0, 64, 80
2, 266400, Note_on_c, 0, 64, 95
2, 266632, Note_off_c, 0, 58, 80
2, 266632, Note_off_c, 0, 61, 80
2, 266640, Note_on_c, 0, 58, 76
2, 266640, Note_on_c, 0, 61, 95
2, 266872, Note_off_c, 0, 64, 80
2, 266880, Note_on_c, 0, 64, 95
2, 267112, Note_off_c, 0, 58, 80
2, 267120, Note_on_c, 0, 54, 95
2, 267352, Note_off_c, 0, 61, 80
2, 267360, Note_on_c, 0, 61, 95
2, 267592, Note_off_c, 0, 64, 80
2, 267600, Note_on_c, 0, 64, 95
2, 267832, Note_off_c, 0, 54, 80
2, 267840, Note_on_c, 0, 54, 95
2, 268072, Note_off_c, 0, 61, 80
2, 268080, Note_on_c, 0, 61, 95
2, 268312, Note_off_c, 0, 64, 80
2, 268320, Note_on_c, 0, 64, 95
2, 268552, Note_off_c, 0, 54, 80
2, 268552, Note_off_c, 0, 61, 80
2, 268560, Note_on_c, 0, 54, 76
2, 268560, Note_on_c, 0, 61, 95
2, 268792, Note_off_c, 0, 64, 80
2, 268800, Note_on_c, 0, 64, 95
2, 269032, Note_off_c, 0, 54, 80
2, 269040, Note_on_c, 0, 54, 95
2, 269272, Note_off_c, 0, 61, 80
2, 269280, Note_on_c, 0, 59, 95
2, 269512, Note_off_c, 0, 64, 80
2, 269520, Note_on_c, 0, 64, 95
2, 269752, Note_off_c, 0, 54, 80
2, 269760, Note_on_c, 0, 54, 95
2, 269992, Note_off_c, 0, 59, 80
2, 270000, Note_on_c, 0, 59, 95
2, 270232, Note_off_c, 0, 64, 80
2, 270240, Note_on_c, 0, 64, 95
2, 270472, Note_off_c, 0, 54, 80
2, 270472, Note_off_c, 0, 59, 80
2, 270480, Note_on_c, 0, 54, 76
2, 270480, Note_on_c, 0, 59, 95
2, 270712, Note_off_c, 0, 64, 80
2, 270720, Note_on_c, 0, 64, 95
2, 270952, Note_off_c, 0, 54, 80
2, 270960, Note_on_c, 0, 50, 95
2, 271192, Note_off_c, 0, 59, 80
2, 271200, Note_on_c, 0, 55, 95
2, 271432, Note_off_c, 0, 64, 80
2, 271440, Note_on_c, 0, 64, 95
2, 271672, Note_off_c, 0, 50, 80
2, 271680, Note_on_c, 0, 50, 95
2, 271912, Note_off_c, 0, 55, 80
2, 271920, Note_on_c, 0, 59, 95
2, 272152, Note_off_c, 0, 64, 80
2, 272160, Note_on_c, 0, 64, 95
2, 272392, Note_off_c, 0, 59, 80
2, 272400, Note_on_c, 0, 61, 95
2, 272632, Note_off_c, 0, 64, 80
2, 272640, Note_on_c, 0, 64, 95
2, 272872, Note_off_c, 0, 50, 80
2, 272880, Note_on_c, 0, 50, 95
2, 273112, Note_off_c, 0, 64, 80
2, 273120, Note_on_c, 0, 64, 95
2, 273352, Note_off_c, 0, 50, 80
2, 273360, Note_on_c, 0, 50, 95
2, 273592, Note_off_c, 0, 61, 80
2, 273600, Note_on_c, 0, 61, 95
2, 273832, Note_off_c, 0, 61, 80
2, 273840, Note_on_c, 0, 62, 95
2, 274072, Note_off_c, 0, 62, 80
2, 274080, Note_on_c, 0, 61, 95
2, 274312, Note_off_c, 0, 50, 80
2, 274320, Note_on_c, 0, 50, 95
2, 274552, Note_off_c, 0, 64, 80
2, 274560, Note_on_c, 0, 64, 95
2, 274792, Note_off_c, 0, 50, 80
2, 274800, Note_on_c, 0, 50, 95
2, 275032, Note_off_c, 0, 61, 80
2, 275040, Note_on_c, 0, 55, 95
2, 275272, Note_off_c, 0, 64, 80
2, 275280, Note_on_c, 0, 64, 95
2, 275512, Note_off_c, 0, 50, 80
2, 275520, Note_on_c, 0, 50, 95
2, 275752, Note_off_c, 0, 55, 80
2, 275760, Note_on_c, 0, 59, 95
2, 275992, Note_off_c, 0, 64, 80
2, 276000, Note_on_c, 0, 64, 95
2, 276232, Note_off_c, 0, 59, 80
2, 276240, Note_on_c, 0, 61, 95
2, 276472, Note_off_c, 0, 64, 80
2, 276480, Note_on_c, 0, 64, 95
2, 276712, Note_off_c, 0, 50, 80
2, 276720, Note_on_c, 0, 50, 95
2, 276952, Note_off_c, 0, 64, 80
2, 276960, Note_on_c, 0, 64, 95
2, 277192, Note_off_c, 0, 50, 80
2, 277200, Note_on_c, 0, 50, 95
2, 277432, Note_off_c, 0, 61, 80
2, 277440, Note_on_c, 0, 61, 95
2, 277672, Note_off_c, 0, 61, 80
2, 277680, Note_on_c, 0, 62, 95
2, 277912, Note_off_c, 0, 62, 80
2, 277920, Note_on_c, 0, 61, 95
2, 278152, Note_off_c, 0, 50, 80
2, 278160, Note_on_c, 0, 50, 95
2, 278392, Note_off_c, 0, 64, 80
2, 278400, Note_on_c, 0, 64, 95
2, 278632, Note_off_c, 0, 50, 80
2, 278640, Note_on_c, 0, 59, 95
2, 278872, Note_off_c, 0, 61, 80
2, 278880, Note_on_c, 0, 62, 95
2, 279112, Note_off_c, 0, 64, 80
2, 279120, Note_on_c, 0, 64, 95
2, 279352, Note_off_c, 0, 59, 80
2, 279360, Note_on_c, 0, 59, 95
2, 279592, Note_off_c, 0, 62, 80
2, 279600, Note_on_c, 0, 62, 95
2, 279832, Note_off_c, 0, 64, 80
2, 279840, Note_on_c, 0, 64, 95
2, 280072, Note_off_c, 0, 59, 80
2, 280072, Note_off_c, 0, 62, 80
2, 280080, Note_on_c, 0, 59, 76
2, 280080, Note_on_c, 0, 62, 95
2, 280312, Note_off_c, 0, 64, 80
2, 280320, Note_on_c, 0, 64, 95
2, 280552, Note_off_c, 0, 59, 80
2, 280560, Note_on_c, 0, 59, 95
2, 280792, Note_off_c, 0, 62, 80
2, 280800, Note_on_c, 0, 62, 95
2, 281032, Note_off_c, 0, 64, 80
2, 281040, Note_on_c, 0, 64, 95
2, 281272, Note_off_c, 0, 59, 80
2, 281280, Note_on_c, 0, 59, 95
2, 281512, Note_off_c, 0, 62, 80
2, 281520, Note_on_c, 0, 62, 95
2, 281752, Note_off_c, 0, 64, 80
2, 281760, Note_on_c, 0, 64, 95
2, 281992, Note_off_c, 0, 59, 80
2, 281992, Note_off_c, 0, 62, 80
2, 282000, Note_on_c, 0, 59, 76
2, 282000, Note_on_c, 0, 62, 95
2, 282232, Note_off_c, 0, 64, 80
2, 282240, Note_on_c, 0, 64, 95
2, 282472, Note_off_c, 0, 59, 80
2, 282480, Note_on_c, 0, 59, 95
2, 282712, Note_off_c, 0, 62, 80
2, 282720, Note_on_c, 0, 62, 95
2, 282952, Note_off_c, 0, 64, 80
2, 282960, Note_on_c, 0, 64, 95
2, 283192, Note_off_c, 0, 59, 80
2, 283200, Note_on_c, 0, 59, 95
2, 283432, Note_off_c, 0, 62, 80
2, 283440, Note_on_c, 0, 62, 95
2, 283672, Note_off_c, 0, 64, 80
2, 283680, Note_on_c, 0, 64, 95
2, 283912, Note_off_c, 0, 59, 80
2, 283912, Note_off_c, 0, 62, 80
2, 283920, Note_on_c, 0, 59, 76
2, 283920, Note_on_c, 0, 62, 95
2, 284152, Note_off_c, 0, 64, 80
2, 284160, Note_on_c, 0, 64, 95
2, 284392, Note_off_c, 0, 59, 80
2, 284400, Note_on_c, 0, 59, 95
2, 284632, Note_off_c, 0, 62, 80
2, 284640, Note_on_c, 0, 62, 95
2, 284872, Note_off_c, 0, 64, 80
2, 284880, Note_on_c, 0, 64, 95
2, 285112, Note_off_c, 0, 59, 80
2, 285120, Note_on_c, 0, 59, 95
2, 285352, Note_off_c, 0, 62, 80
2, 285360, Note_on_c, 0, 62, 95
2, 285592, Note_off_c, 0, 64, 80
2, 285600, Note_on_c, 0, 64, 95
2, 285832, Note_off_c, 0, 59, 80
2, 285832, Note_off_c, 0, 62, 80
2, 285840, Note_on_c, 0, 59, 76
2, 285840, Note_on_c, 0, 62, 95
2, 286072, Note_off_c, 0, 64, 80
2, 286080, Note_on_c, 0, 64, 95
2, 286312, Note_off_c, 0, 59, 80
2, 286320, Note_on_c, 0, 58, 95
2, 286552, Note_off_c, 0, 62, 80
2, 286560, Note_on_c, 0, 61, 95
2, 286792, Note_off_c, 0, 64, 80
2, 286800, Note_on_c, 0, 64, 95
2, 287032, Note_off_c, 0, 58, 80
2, 287040, Note_on_c, 0, 58, 95
2, 287272, Note_off_c, 0, 61, 80
2, 287280, Note_on_c, 0, 61, 95
2, 287512, Note_off_c, 0, 64, 80
2, 287520, Note_on_c, 0, 64, 95
2, 287752, Note_off_c, 0, 58, 80
2, 287752, Note_off_c, 0, 61, 80
2, 287760, Note_on_c, 0, 58, 76
2, 287760, Note_on_c, 0, 61, 95
2, 287992, Note_off_c, 0, 64, 80
2, 288000, Note_on_c, 0, 64, 95
2, 288232, Note_off_c, 0, 58, 80
2, 288240, Note_on_c, 0, 58, 95
2, 288472, Note_off_c, 0, 61, 80
2, 288480, Note_on_c, 0, 61, 95
2, 288712, Note_off_c, 0, 64, 80
2, 288720, Note_on_c, 0, 64, 95
2, 288952, Note_off_c, 0, 58, 80
2, 288960, Note_on_c, 0, 58, 95
2, 289192, Note_off_c, 0, 61, 80
2, 289200, Note_on_c, 0, 61, 95
2, 289432, Note_off_c, 0, 64, 80
2, 289440, Note_on_c, 0, 64, 95
2, 289672, Note_off_c, 0, 58, 80
2, 289672, Note_off_c, 0, 61, 80
2, 289680, Note_on_c, 0, 58, 76
2, 289680, Note_on_c, 0, 61, 95
2, 289912, Note_off_c, 0, 64, 80
2, 289920, Note_on_c, 0, 64, 95
2, 290152, Note_off_c, 0, 58, 80
2, 290160, Note_on_c, 0, 54, 95
2, 290392, Note_off_c, 0, 61, 80
2, 290400, Note_on_c, 0, 61, 95
2, 290632, Note_off_c, 0, 64, 80
2, 290640, Note_on_c, 0, 64, 95
2, 290872, Note_off_c, 0, 54, 80
2, 290880, Note_on_c, 0, 54, 95
2, 291112, Note_off_c, 0, 61, 80
2, 291120, Note_on_c, 0, 61, 95
2, 291352, Note_off_c, 0, 64, 80
2, 291360, Note_on_c, 0, 64, 95
2, 291592, Note_off_c, 0, 54, 80
2, 291592, Note_off_c, 0, 61, 80
2, 291600, Note_on_c, 0, 54, 76
2, 291600, Note_on_c, 0, 61, 95
2, 291832, Note_off_c, 0, 64, 80
2, 291840, Note_on_c, 0, 64, 95
2, 292072, Note_off_c, 0, 54, 80
2, 292080, Note_on_c, 0, 54, 95
2, 292312, Note_off_c, 0, 61, 80
2, 292320, Note_on_c, 0, 59, 95
2, 292552, Note_off_c, 0, 64, 80
2, 292560, Note_on_c, 0, 64, 95
2, 292792, Note_off_c, 0, 54, 80
2, 292800, Note_on_c, 0, 54, 95
2, 293032, Note_off_c, 0, 59, 80
2, 293040, Note_on_c, 0, 59, 95
2, 293272, Note_off_c, 0, 64, 80
2, 293280, Note_on_c, 0, 64, 95
2, 293512, Note_off_c, 0, 54, 80
2, 293512, Note_off_c, 0, 59, 80
2, 293520, Note_on_c, 0, 54, 76
2, 293520, Note_on_c, 0, 59, 95
2, 293752, Note_off_c, 0, 64, 80
2, 293760, Note_on_c, 0, 64, 95
2, 293992, Note_off_c, 0, 54, 80
2, 294000, Note_on_c, 0, 50, 95
2, 294232, Note_off_c, 0, 59, 80
2, 294240, Note_on_c, 0, 55, 95
2, 294472, Note_off_c, 0, 64, 80
2, 294480, Note_on_c, 0, 64, 95
2, 294712, Note_off_c, 0, 50, 80
2, 294720, Note_on_c, 0, 50, 95
2, 294952, Note_off_c, 0, 55, 80
2, 294960, Note_on_c, 0, 59, 95
2, 295192, Note_off_c, 0, 64, 80
2, 295200, Note_on_c, 0, 64, 95
2, 295432, Note_off_c, 0, 59, 80
2, 295440, Note_on_c, 0, 61, 95
2, 295672, Note_off_c, 0, 64, 80
2, 295680, Note_on_c, 0, 64, 95
2, 295912, Note_off_c, 0, 50, 80
2, 295920, Note_on_c, 0, 50, 95
2, 296152, Note_off_c, 0, 64, 80
2, 296160, Note_on_c, 0, 64, 95
2, 296392, Note_off_c, 0, 50, 80
2, 296400, Note_on_c, 0, 50, 95
2, 296632, Note_off_c, 0, 61, 80
2, 296640, Note_on_c, 0, 61, 95
2, 296872, Note_off_c, 0, 61, 80
2, 296880, Note_on_c, 0, 62, 95
2, 297112, Note_off_c, 0, 62, 80
2, 297120, Note_on_c, 0, 61, 95
2, 297352, Note_off_c, 0, 50, 80
2, 297360, Note_on_c, 0, 50, 95
2, 297592, Note_off_c, 0, 64, 80
2, 297600, Note_on_c, 0, 64, 95
2, 297832, Note_off_c, 0, 50, 80
2, 297840, Note_on_c, 0, 50, 95
2, 298072, Note_off_c, 0, 61, 80
2, 298080, Note_on_c, 0, 55, 95
2, 298312, Note_off_c, 0, 64, 80
2, 298320, Note_on_c, 0, 64, 95
2, 298552, Note_off_c, 0, 50, 80
2, 298560, Note_on_c, 0, 50, 95
2, 298792, Note_off_c, 0, 55, 80
2, 298800, Note_on_c, 0, 59, 95
2, 299032, Note_off_c, 0, 64, 80
2, 299040, Note_on_c, 0, 64, 95
2, 299272, Note_off_c, 0, 59, 80
2, 299280, Note_on_c, 0, 61, 95
2, 299512, Note_off_c, 0, 64, 80
2, 299520, Note_on_c, 0, 64, 95
2, 299752, Note_off_c, 0, 50, 80
2, 299760, Note_on_c, 0, 50, 95
2, 299992, Note_off_c, 0, 64, 80
2, 300000, Note_on_c, 0, 64, 95
2, 300232, Note_off_c, 0, 50, 80
2, 300240, Note_on_c, 0, 50, 95
2, 300472, Note_off_c, 0, 61, 80
2, 300480, Note_on_c, 0, 61, 95
2, 300712, Note_off_c, 0, 61, 80
2, 300720, Note_on_c, 0, 62, 95
2, 300952, Note_off_c, 0, 62, 80
2, 300960, Note_on_c, 0, 61, 95
2, 301192, Note_off_c, 0, 50, 80
2, 301200, Note_on_c, 0, 50, 95
2, 301440, Note_on_c, 0, 47, 95
2, 301672, Note_off_c, 0, 50, 80
2, 301680, Note_on_c, 0, 59, 95
2, 301912, Note_off_c, 0, 64, 80
2, 301912, Note_off_c, 0, 61, 80
2, 301920, Note_on_c, 0, 62, 95
2, 302152, Note_off_c, 0, 47, 80
2, 302160, Note_on_c, 0, 47, 95
2, 302392, Note_off_c, 0, 59, 80
2, 302400, Note_on_c, 0, 59, 95
2, 302632, Note_off_c, 0, 62, 80
2, 302640, Note_on_c, 0, 62, 95
2, 302872, Note_off_c, 0, 47, 80
2, 302880, Note_on_c, 0, 47, 95
2, 303112, Note_off_c, 0, 59, 80
2, 303112, Note_off_c, 0, 62, 80
2, 303120, Note_on_c, 0, 59, 50
2, 303120, Note_on_c, 0, 62, 95
2, 303352, Note_off_c, 0, 47, 80
2, 303360, Note_on_c, 0, 47, 95
2, 303592, Note_off_c, 0, 59, 80
2, 303600, Note_on_c, 0, 59, 95
2, 303832, Note_off_c, 0, 62, 80
2, 303840, Note_on_c, 0, 62, 95
2, 304072, Note_off_c, 0, 47, 80
2, 304080, Note_on_c, 0, 47, 95
2, 304312, Note_off_c, 0, 59, 80
2, 304320, Note_on_c, 0, 59, 95
2, 304552, Note_off_c, 0, 62, 80
2, 304560, Note_on_c, 0, 62, 95
2, 304792, Note_off_c, 0, 47, 80
2, 304800, Note_on_c, 0, 47, 95
2, 305032, Note_off_c, 0, 59, 80
2, 305032, Note_off_c, 0, 62, 80
2, 305040, Note_on_c, 0, 59, 50
2, 305040, Note_on_c, 0, 62, 95
2, 305272, Note_off_c, 0, 47, 80
2, 305280, Note_on_c, 0, 47, 95
2, 305512, Note_off_c, 0, 59, 80
2, 305520, Note_on_c, 0, 59, 95
2, 305752, Note_off_c, 0, 62, 80
2, 305760, Note_on_c, 0, 62, 95
2, 305992, Note_off_c, 0, 47, 80
2, 306000, Note_on_c, 0, 47, 95
2, 306232, Note_off_c, 0, 59, 80
2, 306240, Note_on_c, 0, 59, 95
2, 306472, Note_off_c, 0, 62, 80
2, 306480, Note_on_c, 0, 62, 95
2, 306712, Note_off_c, 0, 47, 80
2, 306720, Note_on_c, 0, 47, 95
2, 306952, Note_off_c, 0, 59, 80
2, 306952, Note_off_c, 0, 62, 80
2, 306960, Note_on_c, 0, 59, 50
2, 306960, Note_on_c, 0, 62, 95
2, 307192, Note_off_c, 0, 47, 80
2, 307200, Note_on_c, 0, 47, 95
2, 307432, Note_off_c, 0, 59, 80
2, 307440, Note_on_c, 0, 59, 95
2, 307672, Note_off_c, 0, 62, 80
2, 307680, Note_on_c, 0, 62, 95
2, 307912, Note_off_c, 0, 47, 80
2, 307920, Note_on_c, 0, 47, 95
2, 308152, Note_off_c, 0, 59, 80
2, 308160, Note_on_c, 0, 59, 95
2, 308392, Note_off_c, 0, 62, 80
2, 308400, Note_on_c, 0, 62, 95
2, 308632, Note_off_c, 0, 47, 80
2, 308640, Note_on_c, 0, 47, 95
2, 308872, Note_off_c, 0, 59, 80
2, 308872, Note_off_c, 0, 62, 80
2, 308880, Note_on_c, 0, 59, 50
2, 308880, Note_on_c, 0, 62, 95
2, 309112, Note_off_c, 0, 47, 80
2, 309120, Note_on_c, 0, 47, 95
2, 309352, Note_off_c, 0, 59, 80
2, 309360, Note_on_c, 0, 59, 95
2, 309592, Note_off_c, 0, 62, 80
2, 309600, Note_on_c, 0, 62, 95
2, 309832, Note_off_c, 0, 47, 80
2, 309840, Note_on_c, 0, 47, 95
2, 310072, Note_off_c, 0, 59, 80
2, 310080, Note_on_c, 0, 59, 95
2, 310312, Note_off_c, 0, 62, 80
2, 310320, Note_on_c, 0, 62, 95
2, 310552, Note_off_c, 0, 47, 80
2, 310560, Note_on_c, 0, 47, 95
2, 310792, Note_off_c, 0, 59, 80
2, 310792, Note_off_c, 0, 62, 80
2, 310800, Note_on_c, 0, 59, 50
2, 310800, Note_on_c, 0, 62, 95
2, 311032, Note_off_c, 0, 47, 80
2, 311040, Note_on_c, 0, 47, 95
2, 311272, Note_off_c, 0, 59, 80
2, 311280, Note_on_c, 0, 59, 95
2, 311512, Note_off_c, 0, 62, 80
2, 311520, Note_on_c, 0, 62, 95
2, 311752, Note_off_c, 0, 47, 80
2, 311760, Note_on_c, 0, 47, 95
2, 311992, Note_off_c, 0, 59, 80
2, 312000, Note_on_c, 0, 59, 95
2, 312232, Note_off_c, 0, 62, 80
2, 312240, Note_on_c, 0, 62, 95
2, 312472, Note_off_c, 0, 47, 80
2, 312480, Note_on_c, 0, 47, 95
2, 312712, Note_off_c, 0, 59, 80
2, 312712, Note_off_c, 0, 62, 80
2, 312720, Note_on_c, 0, 59, 50
2, 312720, Note_on_c, 0, 62, 95
2, 312952, Note_off_c, 0, 47, 80
2, 312960, Note_on_c, 0, 47, 95
2, 313192, Note_off_c, 0, 59, 80
2, 313200, Note_on_c, 0, 59, 95
2, 313432, Note_off_c, 0, 62, 80
2, 313440, Note_on_c, 0, 62, 95
2, 313672, Note_off_c, 0, 47, 80
2, 313680, Note_on_c, 0, 47, 95
2, 313912, Note_off_c, 0, 59, 80
2, 313920, Note_on_c, 0, 59, 95
2, 314152, Note_off_c, 0, 62, 80
2, 314160, Note_on_c, 0, 62, 95
2, 314392, Note_off_c, 0, 47, 80
2, 314400, Note_on_c, 0, 47, 95
2, 314632, Note_off_c, 0, 59, 80
2, 314632, Note_off_c, 0, 62, 80
2, 314640, Note_on_c, 0, 59, 50
2, 314640, Note_on_c, 0, 62, 95
2, 314872, Note_off_c, 0, 47, 80
2, 314880, Note_on_c, 0, 47, 95
2, 315112, Note_off_c, 0, 59, 80
2, 315120, Note_on_c, 0, 59, 95
2, 315352, Note_off_c, 0, 62, 80
2, 315360, Note_on_c, 0, 62, 95
2, 315592, Note_off_c, 0, 47, 80
2, 315600, Note_on_c, 0, 47, 95
2, 315832, Note_off_c, 0, 59, 80
2, 315840, Note_on_c, 0, 59, 95
2, 316072, Note_off_c, 0, 62, 80
2, 316080, Note_on_c, 0, 62, 95
2, 316312, Note_off_c, 0, 47, 80
2, 316320, Note_on_c, 0, 47, 95
2, 316552, Note_off_c, 0, 59, 80
2, 316552, Note_off_c, 0, 62, 80
2, 316560, Note_on_c, 0, 59, 50
2, 316560, Note_on_c, 0, 62, 95
2, 316792, Note_off_c, 0, 47, 80
2, 316792, Note_off_c, 0, 59, 80
2, 316792, Note_off_c, 0, 62, 80
2, 316800, Note_on_c, 0, 47, 95
2, 316880, Note_on_c, 0, 59, 95
2, 316960, Note_on_c, 0, 62, 95
2, 320632, Note_off_c, 0, 47, 80
2, 320632, Note_off_c, 0, 62, 80
2, 320632, Note_off_c, 0, 59, 80
2, 320632, End_track
3, 0, Start_track
3, 0, Title_t, "C. Greenwood"
3, 180, Control_c, 1, 121, 0
3, 180, Control_c, 1, 123, 0
3, 180, Control_c, 1, 100, 0
3, 180, Control_c, 1, 38, 0
3, 180, Control_c, 1, 101, 0
3, 180, Control_c, 1, 6, 12
3, 180, Pitch_bend_c, 1, 8192
3, 240, Program_c, 1, 33
3, 240, Control_c, 1, 7, 106
3, 240, Control_c, 1, 10, 64
3, 24960, Note_on_c, 1, 35, 109
3, 25438, Note_off_c, 1, 35, 80
3, 25440, Note_on_c, 1, 35, 109
3, 25678, Note_off_c, 1, 35, 80
3, 26160, Note_on_c, 1, 35, 109
3, 26638, Note_off_c, 1, 35, 80
3, 26640, Note_on_c, 1, 35, 109
3, 27118, Note_off_c, 1, 35, 80
3, 27120, Note_on_c, 1, 35, 109
3, 27598, Note_off_c, 1, 35, 80
3, 28320, Note_on_c, 1, 35, 109
3, 28798, Note_off_c, 1, 35, 80
3, 28800, Note_on_c, 1, 35, 109
3, 29278, Note_off_c, 1, 35, 80
3, 29280, Note_on_c, 1, 35, 109
3, 29518, Note_off_c, 1, 35, 80
3, 30000, Note_on_c, 1, 35, 109
3, 30478, Note_off_c, 1, 35, 80
3, 30480, Note_on_c, 1, 35, 109
3, 30958, Note_off_c, 1, 35, 80
3, 30960, Note_on_c, 1, 35, 109
3, 31198, Note_off_c, 1, 35, 80
3, 32160, Note_on_c, 1, 35, 109
3, 32638, Note_off_c, 1, 35, 80
3, 32640, Note_on_c, 1, 34, 109
3, 33118, Note_off_c, 1, 34, 80
3, 33120, Note_on_c, 1, 34, 109
3, 33358, Note_off_c, 1, 34, 80
3, 33840, Note_on_c, 1, 34, 109
3, 34318, Note_off_c, 1, 34, 80
3, 34320, Note_on_c, 1, 34, 109
3, 34798, Note_off_c, 1, 34, 80
3, 34800, Note_on_c, 1, 34, 109
3, 35038, Note_off_c, 1, 34, 80
3, 36000, Note_on_c, 1, 34, 109
3, 36360, Pitch_bend_c, 1, 6144
3, 36360, Note_on_c, 1, 38, 109
3, 36400, Pitch_bend_c, 1, 6784
3, 36440, Pitch_bend_c, 1, 7552
3, 36478, Note_off_c, 1, 34, 80
3, 36480, Pitch_bend_c, 1, 8192
3, 36958, Note_off_c, 1, 38, 80
3, 36960, Note_on_c, 1, 38, 109
3, 37198, Note_off_c, 1, 38, 80
3, 37680, Note_on_c, 1, 38, 109
3, 38158, Note_off_c, 1, 38, 80
3, 38160, Note_on_c, 1, 38, 109
3, 38638, Note_off_c, 1, 38, 80
3, 38640, Note_on_c, 1, 38, 109
3, 39118, Note_off_c, 1, 38, 80
3, 39840, Note_on_c, 1, 38, 109
3, 40200, Pitch_bend_c, 1, 10240
3, 40200, Note_on_c, 1, 31, 109
3, 40240, Pitch_bend_c, 1, 9600
3, 40280, Pitch_bend_c, 1, 8832
3, 40318, Note_off_c, 1, 38, 80
3, 40320, Pitch_bend_c, 1, 8192
3, 40798, Note_off_c, 1, 31, 80
3, 40800, Note_on_c, 1, 31, 109
3, 41038, Note_off_c, 1, 31, 80
3, 41520, Note_on_c, 1, 31, 109
3, 41758, Note_off_c, 1, 31, 80
3, 41760, Note_on_c, 1, 26, 109
3, 41878, Note_off_c, 1, 26, 80
3, 41921, Pitch_bend_c, 1, 6144
3, 41921, Note_on_c, 1, 30, 109
3, 41947, Pitch_bend_c, 1, 6784
3, 41974, Pitch_bend_c, 1, 7552
3, 42000, Pitch_bend_c, 1, 8192
3, 42478, Note_off_c, 1, 30, 80
3, 42480, Note_on_c, 1, 30, 109
3, 42958, Note_off_c, 1, 30, 80
3, 43680, Note_on_c, 1, 30, 109
3, 44040, Pitch_bend_c, 1, 10240
3, 44040, Note_on_c, 1, 31, 109
3, 44080, Pitch_bend_c, 1, 9600
3, 44120, Pitch_bend_c, 1, 8832
3, 44158, Note_off_c, 1, 30, 80
3, 44160, Pitch_bend_c, 1, 8192
3, 44638, Note_off_c, 1, 31, 80
3, 44640, Note_on_c, 1, 31, 109
3, 44878, Note_off_c, 1, 31, 80
3, 45360, Note_on_c, 1, 31, 109
3, 45598, Note_off_c, 1, 31, 80
3, 45600, Note_on_c, 1, 26, 109
3, 45718, Note_off_c, 1, 26, 80
3, 45761, Pitch_bend_c, 1, 6144
3, 45761, Note_on_c, 1, 30, 109
3, 45787, Pitch_bend_c, 1, 6784
3, 45814, Pitch_bend_c, 1, 7552
3, 45840, Pitch_bend_c, 1, 8192
3, 46318, Note_off_c, 1, 30, 80
3, 46320, Note_on_c, 1, 30, 109
3, 46798, Note_off_c, 1, 30, 80
3, 47520, Note_on_c, 1, 30, 109
3, 47998, Note_off_c, 1, 30, 80
3, 48000, Note_on_c, 1, 38, 109
3, 48958, Note_off_c, 1, 38, 80
3, 48960, Note_on_c, 1, 35, 109
3, 50638, Note_off_c, 1, 35, 80
3, 50640, Note_on_c, 1, 35, 109
3, 50878, Note_off_c, 1, 35, 80
3, 50880, Note_on_c, 1, 26, 109
3, 51118, Note_off_c, 1, 26, 80
3, 51120, Note_on_c, 1, 35, 109
3, 51598, Note_off_c, 1, 35, 80
3, 51600, Note_on_c, 1, 26, 109
3, 51838, Note_off_c, 1, 26, 80
3, 51840, Note_on_c, 1, 35, 109
3, 52558, Note_off_c, 1, 35, 80
3, 52560, Note_on_c, 1, 35, 109
3, 52798, Note_off_c, 1, 35, 80
3, 52800, Note_on_c, 1, 26, 109
3, 53278, Note_off_c, 1, 26, 80
3, 53280, Note_on_c, 1, 26, 109
3, 53518, Note_off_c, 1, 26, 80
3, 53520, Note_on_c, 1, 35, 109
3, 53998, Note_off_c, 1, 35, 80
3, 54000, Note_on_c, 1, 35, 109
3, 54478, Note_off_c, 1, 35, 80
3, 54480, Note_on_c, 1, 35, 109
3, 54718, Note_off_c, 1, 35, 80
3, 54720, Note_on_c, 1, 26, 109
3, 54958, Note_off_c, 1, 26, 80
3, 54960, Note_on_c, 1, 35, 109
3, 55438, Note_off_c, 1, 35, 80
3, 55440, Note_on_c, 1, 26, 109
3, 55678, Note_off_c, 1, 26, 80
3, 55680, Note_on_c, 1, 38, 109
3, 56398, Note_off_c, 1, 38, 80
3, 56400, Note_on_c, 1, 40, 109
3, 56638, Note_off_c, 1, 40, 80
3, 56640, Note_on_c, 1, 35, 109
3, 58318, Note_off_c, 1, 35, 80
3, 58320, Note_on_c, 1, 35, 109
3, 58558, Note_off_c, 1, 35, 80
3, 58560, Note_on_c, 1, 26, 109
3, 58798, Note_off_c, 1, 26, 80
3, 58800, Note_on_c, 1, 35, 109
3, 59278, Note_off_c, 1, 35, 80
3, 59280, Note_on_c, 1, 26, 109
3, 59518, Note_off_c, 1, 26, 80
3, 59520, Note_on_c, 1, 35, 109
3, 60238, Note_off_c, 1, 35, 80
3, 60240, Note_on_c, 1, 35, 109
3, 60478, Note_off_c, 1, 35, 80
3, 60480, Note_on_c, 1, 26, 109
3, 60958, Note_off_c, 1, 26, 80
3, 60960, Note_on_c, 1, 26, 109
3, 61198, Note_off_c, 1, 26, 80
3, 61200, Note_on_c, 1, 35, 109
3, 61678, Note_off_c, 1, 35, 80
3, 61680, Note_on_c, 1, 35, 109
3, 62158, Note_off_c, 1, 35, 80
3, 62160, Note_on_c, 1, 35, 109
3, 62398, Note_off_c, 1, 35, 80
3, 62400, Note_on_c, 1, 26, 109
3, 62638, Note_off_c, 1, 26, 80
3, 62640, Note_on_c, 1, 35, 109
3, 63118, Note_off_c, 1, 35, 80
3, 63120, Note_on_c, 1, 26, 109
3, 63358, Note_off_c, 1, 26, 80
3, 63360, Note_on_c, 1, 43, 109
3, 64318, Note_off_c, 1, 43, 80
3, 64320, Note_on_c, 1, 42, 109
3, 65038, Note_off_c, 1, 42, 80
3, 65040, Note_on_c, 1, 42, 109
3, 65518, Note_off_c, 1, 42, 80
3, 65520, Note_on_c, 1, 43, 109
3, 65758, Note_off_c, 1, 43, 80
3, 65760, Note_on_c, 1, 40, 109
3, 68158, Note_off_c, 1, 40, 80
3, 68160, Note_on_c, 1, 30, 109
3, 68398, Note_off_c, 1, 30, 80
3, 68400, Note_on_c, 1, 30, 109
3, 68638, Note_off_c, 1, 30, 80
3, 68640, Note_on_c, 1, 26, 109
3, 68878, Note_off_c, 1, 26, 80
3, 68880, Note_on_c, 1, 28, 109
3, 69358, Note_off_c, 1, 28, 80
3, 69360, Note_on_c, 1, 30, 109
3, 69838, Note_off_c, 1, 30, 80
3, 69840, Note_on_c, 1, 28, 109
3, 70318, Note_off_c, 1, 28, 80
3, 70320, Note_on_c, 1, 26, 109
3, 70558, Note_off_c, 1, 26, 80
3, 70560, Note_on_c, 1, 26, 109
3, 71038, Note_off_c, 1, 26, 80
3, 71040, Note_on_c, 1, 45, 109
3, 71998, Note_off_c, 1, 45, 80
3, 72000, Note_on_c, 1, 43, 109
3, 72718, Note_off_c, 1, 43, 80
3, 72720, Note_on_c, 1, 42, 109
3, 73198, Note_off_c, 1, 42, 80
3, 73200, Note_on_c, 1, 43, 109
3, 73438, Note_off_c, 1, 43, 80
3, 73440, Note_on_c, 1, 40, 109
3, 74878, Note_off_c, 1, 40, 80
3, 74880, Note_on_c, 1, 28, 109
3, 75096, Pitch_bend_c, 1, 8832
3, 75120, Pitch_bend_c, 1, 9600
3, 75336, Pitch_bend_c, 1, 8960
3, 75360, Pitch_bend_c, 1, 8192
3, 75838, Note_off_c, 1, 28, 80
3, 75840, Note_on_c, 1, 28, 109
3, 76078, Note_off_c, 1, 28, 80
3, 76080, Note_on_c, 1, 28, 109
3, 76318, Note_off_c, 1, 28, 80
3, 76320, Note_on_c, 1, 26, 109
3, 76558, Note_off_c, 1, 26, 80
3, 76560, Note_on_c, 1, 28, 109
3, 77038, Note_off_c, 1, 28, 80
3, 77040, Note_on_c, 1, 30, 109
3, 77518, Note_off_c, 1, 30, 80
3, 77520, Note_on_c, 1, 28, 109
3, 77758, Note_off_c, 1, 28, 80
3, 77760, Note_on_c, 1, 28, 109
3, 77998, Note_off_c, 1, 28, 80
3, 78000, Note_on_c, 1, 30, 109
3, 78478, Note_off_c, 1, 30, 80
3, 78480, Note_on_c, 1, 30, 109
3, 78718, Note_off_c, 1, 30, 80
3, 78720, Note_on_c, 1, 38, 109
3, 79678, Note_off_c, 1, 38, 80
3, 79680, Note_on_c, 1, 35, 109
3, 82558, Note_off_c, 1, 35, 80
3, 82560, Note_on_c, 1, 35, 109
3, 83278, Note_off_c, 1, 35, 80
3, 83280, Note_on_c, 1, 35, 109
3, 83518, Note_off_c, 1, 35, 80
3, 83520, Note_on_c, 1, 26, 109
3, 83998, Note_off_c, 1, 26, 80
3, 84000, Note_on_c, 1, 26, 109
3, 84238, Note_off_c, 1, 26, 80
3, 84240, Note_on_c, 1, 35, 109
3, 84718, Note_off_c, 1, 35, 80
3, 84720, Note_on_c, 1, 35, 109
3, 85198, Note_off_c, 1, 35, 80
3, 85200, Note_on_c, 1, 35, 109
3, 85438, Note_off_c, 1, 35, 80
3, 85440, Note_on_c, 1, 26, 109
3, 85678, Note_off_c, 1, 26, 80
3, 85680, Note_on_c, 1, 35, 109
3, 86158, Note_off_c, 1, 35, 80
3, 86160, Note_on_c, 1, 26, 109
3, 86398, Note_off_c, 1, 26, 80
3, 86400, Note_on_c, 1, 38, 109
3, 87118, Note_off_c, 1, 38, 80
3, 87120, Note_on_c, 1, 40, 109
3, 87358, Note_off_c, 1, 40, 80
3, 87360, Note_on_c, 1, 35, 109
3, 90238, Note_off_c, 1, 35, 80
3, 90240, Note_on_c, 1, 35, 109
3, 90958, Note_off_c, 1, 35, 80
3, 90960, Note_on_c, 1, 35, 109
3, 91198, Note_off_c, 1, 35, 80
3, 91200, Note_on_c, 1, 26, 109
3, 91678, Note_off_c, 1, 26, 80
3, 91680, Note_on_c, 1, 26, 109
3, 91918, Note_off_c, 1, 26, 80
3, 91920, Note_on_c, 1, 35, 109
3, 92398, Note_off_c, 1, 35, 80
3, 92400, Note_on_c, 1, 35, 109
3, 92878, Note_off_c, 1, 35, 80
3, 92880, Note_on_c, 1, 35, 109
3, 93118, Note_off_c, 1, 35, 80
3, 93120, Note_on_c, 1, 26, 109
3, 93358, Note_off_c, 1, 26, 80
3, 93360, Note_on_c, 1, 35, 109
3, 93838, Note_off_c, 1, 35, 80
3, 93840, Note_on_c, 1, 26, 109
3, 94078, Note_off_c, 1, 26, 80
3, 94080, Note_on_c, 1, 43, 109
3, 95038, Note_off_c, 1, 43, 80
3, 95040, Note_on_c, 1, 42, 109
3, 95758, Note_off_c, 1, 42, 80
3, 95760, Note_on_c, 1, 42, 109
3, 96238, Note_off_c, 1, 42, 80
3, 96240, Note_on_c, 1, 43, 109
3, 96478, Note_off_c, 1, 43, 80
3, 96480, Note_on_c, 1, 40, 109
3, 97198, Note_off_c, 1, 40, 80
3, 97200, Note_on_c, 1, 38, 109
3, 97438, Note_off_c, 1, 38, 80
3, 97440, Note_on_c, 1, 40, 109
3, 97678, Note_off_c, 1, 40, 80
3, 97680, Note_on_c, 1, 38, 109
3, 97918, Note_off_c, 1, 38, 80
3, 97920, Note_on_c, 1, 42, 109
3, 98158, Note_off_c, 1, 42, 80
3, 98160, Note_on_c, 1, 43, 109
3, 98398, Note_off_c, 1, 43, 80
3, 98400, Note_on_c, 1, 42, 109
3, 98878, Note_off_c, 1, 42, 80
3, 98880, Note_on_c, 1, 42, 109
3, 99118, Note_off_c, 1, 42, 80
3, 99120, Note_on_c, 1, 42, 109
3, 99358, Note_off_c, 1, 42, 80
3, 99360, Note_on_c, 1, 38, 109
3, 99598, Note_off_c, 1, 38, 80
3, 99600, Note_on_c, 1, 40, 109
3, 100078, Note_off_c, 1, 40, 80
3, 100080, Note_on_c, 1, 42, 109
3, 100558, Note_off_c, 1, 42, 80
3, 100560, Note_on_c, 1, 40, 109
3, 101038, Note_off_c, 1, 40, 80
3, 101040, Note_on_c, 1, 38, 109
3, 101278, Note_off_c, 1, 38, 80
3, 101280, Note_on_c, 1, 38, 109
3, 101758, Note_off_c, 1, 38, 80
3, 101760, Note_on_c, 1, 45, 109
3, 102718, Note_off_c, 1, 45, 80
3, 102720, Note_on_c, 1, 43, 109
3, 103438, Note_off_c, 1, 43, 80
3, 103440, Note_on_c, 1, 42, 109
3, 103918, Note_off_c, 1, 42, 80
3, 103920, Note_on_c, 1, 43, 109
3, 104158, Note_off_c, 1, 43, 80
3, 104160, Note_on_c, 1, 40, 109
3, 104878, Note_off_c, 1, 40, 80
3, 104880, Note_on_c, 1, 38, 109
3, 105118, Note_off_c, 1, 38, 80
3, 105120, Note_on_c, 1, 40, 109
3, 105358, Note_off_c, 1, 40, 80
3, 105360, Note_on_c, 1, 38, 109
3, 105598, Note_off_c, 1, 38, 80
3, 105600, Note_on_c, 1, 40, 109
3, 105838, Note_off_c, 1, 40, 80
3, 105840, Note_on_c, 1, 42, 109
3, 106078, Note_off_c, 1, 42, 80
3, 106080, Note_on_c, 1, 40, 109
3, 106558, Note_off_c, 1, 40, 80
3, 106560, Note_on_c, 1, 40, 109
3, 106798, Note_off_c, 1, 40, 80
3, 106800, Note_on_c, 1, 40, 109
3, 107038, Note_off_c, 1, 40, 80
3, 107040, Note_on_c, 1, 38, 109
3, 107278, Note_off_c, 1, 38, 80
3, 107280, Note_on_c, 1, 40, 109
3, 107758, Note_off_c, 1, 40, 80
3, 107760, Note_on_c, 1, 42, 109
3, 108238, Note_off_c, 1, 42, 80
3, 108240, Note_on_c, 1, 40, 109
3, 108718, Note_off_c, 1, 40, 80
3, 108720, Note_on_c, 1, 38, 109
3, 108958, Note_off_c, 1, 38, 80
3, 108960, Note_on_c, 1, 38, 109
3, 109438, Note_off_c, 1, 38, 80
3, 109440, Note_on_c, 1, 38, 109
3, 110398, Note_off_c, 1, 38, 80
3, 110400, Note_on_c, 1, 35, 109
3, 113278, Note_off_c, 1, 35, 80
3, 113280, Note_on_c, 1, 35, 109
3, 113998, Note_off_c, 1, 35, 80
3, 114000, Note_on_c, 1, 35, 109
3, 114238, Note_off_c, 1, 35, 80
3, 114240, Note_on_c, 1, 26, 109
3, 114718, Note_off_c, 1, 26, 80
3, 114720, Note_on_c, 1, 26, 109
3, 114958, Note_off_c, 1, 26, 80
3, 114960, Note_on_c, 1, 35, 109
3, 115438, Note_off_c, 1, 35, 80
3, 115440, Note_on_c, 1, 35, 109
3, 115918, Note_off_c, 1, 35, 80
3, 115920, Note_on_c, 1, 35, 109
3, 116158, Note_off_c, 1, 35, 80
3, 116160, Note_on_c, 1, 26, 109
3, 116398, Note_off_c, 1, 26, 80
3, 116400, Note_on_c, 1, 35, 109
3, 116878, Note_off_c, 1, 35, 80
3, 116880, Note_on_c, 1, 26, 109
3, 117118, Note_off_c, 1, 26, 80
3, 117120, Note_on_c, 1, 38, 109
3, 117838, Note_off_c, 1, 38, 80
3, 117840, Note_on_c, 1, 40, 109
3, 118078, Note_off_c, 1, 40, 80
3, 118080, Note_on_c, 1, 35, 109
3, 120958, Note_off_c, 1, 35, 80
3, 120960, Note_on_c, 1, 35, 109
3, 121678, Note_off_c, 1, 35, 80
3, 121680, Note_on_c, 1, 35, 109
3, 121918, Note_off_c, 1, 35, 80
3, 121920, Note_on_c, 1, 26, 109
3, 122398, Note_off_c, 1, 26, 80
3, 122400, Note_on_c, 1, 26, 109
3, 122638, Note_off_c, 1, 26, 80
3, 122640, Note_on_c, 1, 35, 109
3, 123118, Note_off_c, 1, 35, 80
3, 123120, Note_on_c, 1, 35, 109
3, 123598, Note_off_c, 1, 35, 80
3, 123600, Note_on_c, 1, 35, 109
3, 123838, Note_off_c, 1, 35, 80
3, 123840, Note_on_c, 1, 26, 109
3, 124078, Note_off_c, 1, 26, 80
3, 124080, Note_on_c, 1, 35, 109
3, 124558, Note_off_c, 1, 35, 80
3, 124560, Note_on_c, 1, 26, 109
3, 124798, Note_off_c, 1, 26, 80
3, 124800, Note_on_c, 1, 43, 109
3, 125758, Note_off_c, 1, 43, 80
3, 125760, Note_on_c, 1, 42, 109
3, 126478, Note_off_c, 1, 42, 80
3, 126480, Note_on_c, 1, 42, 109
3, 126958, Note_off_c, 1, 42, 80
3, 126960, Note_on_c, 1, 43, 109
3, 127198, Note_off_c, 1, 43, 80
3, 127200, Note_on_c, 1, 40, 109
3, 127918, Note_off_c, 1, 40, 80
3, 127920, Note_on_c, 1, 38, 109
3, 128158, Note_off_c, 1, 38, 80
3, 128160, Note_on_c, 1, 40, 109
3, 128398, Note_off_c, 1, 40, 80
3, 128400, Note_on_c, 1, 38, 109
3, 128638, Note_off_c, 1, 38, 80
3, 128640, Note_on_c, 1, 42, 109
3, 128878, Note_off_c, 1, 42, 80
3, 128880, Note_on_c, 1, 43, 109
3, 129118, Note_off_c, 1, 43, 80
3, 129120, Note_on_c, 1, 42, 109
3, 129598, Note_off_c, 1, 42, 80
3, 129600, Note_on_c, 1, 42, 109
3, 129838, Note_off_c, 1, 42, 80
3, 129840, Note_on_c, 1, 42, 109
3, 130078, Note_off_c, 1, 42, 80
3, 130080, Note_on_c, 1, 38, 109
3, 130318, Note_off_c, 1, 38, 80
3, 130320, Note_on_c, 1, 40, 109
3, 130798, Note_off_c, 1, 40, 80
3, 130800, Note_on_c, 1, 42, 109
3, 131278, Note_off_c, 1, 42, 80
3, 131280, Note_on_c, 1, 40, 109
3, 131758, Note_off_c, 1, 40, 80
3, 131760, Note_on_c, 1, 38, 109
3, 131998, Note_off_c, 1, 38, 80
3, 132000, Note_on_c, 1, 38, 109
3, 132478, Note_off_c, 1, 38, 80
3, 132480, Note_on_c, 1, 45, 109
3, 133438, Note_off_c, 1, 45, 80
3, 133440, Note_on_c, 1, 43, 109
3, 134158, Note_off_c, 1, 43, 80
3, 134160, Note_on_c, 1, 42, 109
3, 134638, Note_off_c, 1, 42, 80
3, 134640, Note_on_c, 1, 43, 109
3, 134878, Note_off_c, 1, 43, 80
3, 134880, Note_on_c, 1, 40, 109
3, 135598, Note_off_c, 1, 40, 80
3, 135600, Note_on_c, 1, 38, 109
3, 135838, Note_off_c, 1, 38, 80
3, 135840, Note_on_c, 1, 40, 109
3, 136078, Note_off_c, 1, 40, 80
3, 136080, Note_on_c, 1, 38, 109
3, 136318, Note_off_c, 1, 38, 80
3, 136320, Note_on_c, 1, 40, 109
3, 136558, Note_off_c, 1, 40, 80
3, 136560, Note_on_c, 1, 42, 109
3, 136798, Note_off_c, 1, 42, 80
3, 136800, Note_on_c, 1, 40, 109
3, 137278, Note_off_c, 1, 40, 80
3, 137280, Note_on_c, 1, 40, 109
3, 137518, Note_off_c, 1, 40, 80
3, 137520, Note_on_c, 1, 40, 109
3, 137758, Note_off_c, 1, 40, 80
3, 137760, Note_on_c, 1, 38, 109
3, 137998, Note_off_c, 1, 38, 80
3, 138000, Note_on_c, 1, 40, 109
3, 138478, Note_off_c, 1, 40, 80
3, 138480, Note_on_c, 1, 42, 109
3, 138958, Note_off_c, 1, 42, 80
3, 138960, Note_on_c, 1, 40, 109
3, 139438, Note_off_c, 1, 40, 80
3, 139440, Note_on_c, 1, 38, 109
3, 139678, Note_off_c, 1, 38, 80
3, 139680, Note_on_c, 1, 38, 109
3, 140158, Note_off_c, 1, 38, 80
3, 140160, Note_on_c, 1, 26, 109
3, 140638, Note_off_c, 1, 26, 80
3, 140640, Note_on_c, 1, 26, 109
3, 140878, Note_off_c, 1, 26, 80
3, 140880, Note_on_c, 1, 26, 109
3, 141118, Note_off_c, 1, 26, 80
3, 141120, Note_on_c, 1, 26, 109
3, 141358, Note_off_c, 1, 26, 80
3, 141360, Note_on_c, 1, 26, 109
3, 141598, Note_off_c, 1, 26, 80
3, 141600, Note_on_c, 1, 26, 109
3, 141838, Note_off_c, 1, 26, 80
3, 141840, Note_on_c, 1, 26, 109
3, 142078, Note_off_c, 1, 26, 80
3, 142320, Note_on_c, 1, 28, 109
3, 142558, Note_off_c, 1, 28, 80
3, 142560, Note_on_c, 1, 28, 109
3, 142798, Note_off_c, 1, 28, 80
3, 142800, Note_on_c, 1, 30, 109
3, 143038, Note_off_c, 1, 30, 80
3, 143040, Note_on_c, 1, 30, 109
3, 143278, Note_off_c, 1, 30, 80
3, 143280, Note_on_c, 1, 33, 109
3, 143518, Note_off_c, 1, 33, 80
3, 143520, Note_on_c, 1, 33, 109
3, 143758, Note_off_c, 1, 33, 80
3, 143760, Note_on_c, 1, 35, 109
3, 143998, Note_off_c, 1, 35, 80
3, 144240, Note_on_c, 1, 35, 109
3, 144478, Note_off_c, 1, 35, 80
3, 144480, Note_on_c, 1, 26, 109
3, 144718, Note_off_c, 1, 26, 80
3, 144720, Note_on_c, 1, 26, 109
3, 144958, Note_off_c, 1, 26, 80
3, 144960, Note_on_c, 1, 26, 109
3, 145198, Note_off_c, 1, 26, 80
3, 145200, Note_on_c, 1, 26, 109
3, 145438, Note_off_c, 1, 26, 80
3, 145440, Note_on_c, 1, 26, 109
3, 145678, Note_off_c, 1, 26, 80
3, 145680, Note_on_c, 1, 26, 109
3, 145918, Note_off_c, 1, 26, 80
3, 146160, Note_on_c, 1, 28, 109
3, 146398, Note_off_c, 1, 28, 80
3, 146400, Note_on_c, 1, 28, 109
3, 146638, Note_off_c, 1, 28, 80
3, 146640, Note_on_c, 1, 30, 109
3, 146878, Note_off_c, 1, 30, 80
3, 146880, Note_on_c, 1, 30, 109
3, 147118, Note_off_c, 1, 30, 80
3, 147120, Note_on_c, 1, 33, 109
3, 147358, Note_off_c, 1, 33, 80
3, 147360, Note_on_c, 1, 33, 109
3, 147598, Note_off_c, 1, 33, 80
3, 147600, Note_on_c, 1, 35, 109
3, 147838, Note_off_c, 1, 35, 80
3, 148080, Note_on_c, 1, 35, 109
3, 148318, Note_off_c, 1, 35, 80
3, 148320, Note_on_c, 1, 26, 109
3, 148558, Note_off_c, 1, 26, 80
3, 148560, Note_on_c, 1, 26, 109
3, 148798, Note_off_c, 1, 26, 80
3, 148800, Note_on_c, 1, 26, 109
3, 149038, Note_off_c, 1, 26, 80
3, 149040, Note_on_c, 1, 26, 109
3, 149278, Note_off_c, 1, 26, 80
3, 149280, Note_on_c, 1, 26, 109
3, 149518, Note_off_c, 1, 26, 80
3, 149520, Note_on_c, 1, 26, 109
3, 149758, Note_off_c, 1, 26, 80
3, 150000, Note_on_c, 1, 28, 109
3, 150238, Note_off_c, 1, 28, 80
3, 150240, Note_on_c, 1, 28, 109
3, 150478, Note_off_c, 1, 28, 80
3, 150480, Note_on_c, 1, 30, 109
3, 150718, Note_off_c, 1, 30, 80
3, 150720, Note_on_c, 1, 30, 109
3, 150958, Note_off_c, 1, 30, 80
3, 150960, Note_on_c, 1, 33, 109
3, 151198, Note_off_c, 1, 33, 80
3, 151200, Note_on_c, 1, 33, 109
3, 151438, Note_off_c, 1, 33, 80
3, 151440, Note_on_c, 1, 35, 109
3, 151678, Note_off_c, 1, 35, 80
3, 151920, Note_on_c, 1, 35, 109
3, 152158, Note_off_c, 1, 35, 80
3, 152160, Note_on_c, 1, 26, 109
3, 152398, Note_off_c, 1, 26, 80
3, 152400, Note_on_c, 1, 26, 109
3, 152638, Note_off_c, 1, 26, 80
3, 152640, Note_on_c, 1, 26, 109
3, 152878, Note_off_c, 1, 26, 80
3, 152880, Note_on_c, 1, 26, 109
3, 153118, Note_off_c, 1, 26, 80
3, 153120, Note_on_c, 1, 26, 109
3, 153358, Note_off_c, 1, 26, 80
3, 153360, Note_on_c, 1, 26, 109
3, 153598, Note_off_c, 1, 26, 80
3, 153840, Note_on_c, 1, 28, 109
3, 154078, Note_off_c, 1, 28, 80
3, 154080, Note_on_c, 1, 28, 109
3, 154318, Note_off_c, 1, 28, 80
3, 154320, Note_on_c, 1, 30, 109
3, 154558, Note_off_c, 1, 30, 80
3, 154560, Note_on_c, 1, 30, 109
3, 154798, Note_off_c, 1, 30, 80
3, 154800, Note_on_c, 1, 38, 109
3, 155038, Note_off_c, 1, 38, 80
3, 155040, Note_on_c, 1, 38, 109
3, 155278, Note_off_c, 1, 38, 80
3, 155280, Note_on_c, 1, 35, 109
3, 155518, Note_off_c, 1, 35, 80
3, 155760, Note_on_c, 1, 35, 109
3, 155998, Note_off_c, 1, 35, 80
3, 156000, Note_on_c, 1, 26, 109
3, 156238, Note_off_c, 1, 26, 80
3, 156240, Note_on_c, 1, 26, 109
3, 156478, Note_off_c, 1, 26, 80
3, 156480, Note_on_c, 1, 26, 109
3, 156718, Note_off_c, 1, 26, 80
3, 156720, Note_on_c, 1, 26, 109
3, 156958, Note_off_c, 1, 26, 80
3, 156960, Note_on_c, 1, 26, 109
3, 157198, Note_off_c, 1, 26, 80
3, 157200, Note_on_c, 1, 26, 109
3, 157438, Note_off_c, 1, 26, 80
3, 157680, Note_on_c, 1, 28, 109
3, 157918, Note_off_c, 1, 28, 80
3, 157920, Note_on_c, 1, 28, 109
3, 158158, Note_off_c, 1, 28, 80
3, 158160, Note_on_c, 1, 30, 109
3, 158398, Note_off_c, 1, 30, 80
3, 158400, Note_on_c, 1, 30, 109
3, 158638, Note_off_c, 1, 30, 80
3, 158640, Note_on_c, 1, 33, 109
3, 158878, Note_off_c, 1, 33, 80
3, 158880, Note_on_c, 1, 33, 109
3, 159118, Note_off_c, 1, 33, 80
3, 159120, Note_on_c, 1, 35, 109
3, 159358, Note_off_c, 1, 35, 80
3, 159600, Note_on_c, 1, 35, 109
3, 159838, Note_off_c, 1, 35, 80
3, 159840, Note_on_c, 1, 26, 109
3, 160078, Note_off_c, 1, 26, 80
3, 160080, Note_on_c, 1, 26, 109
3, 160318, Note_off_c, 1, 26, 80
3, 160320, Note_on_c, 1, 26, 109
3, 160558, Note_off_c, 1, 26, 80
3, 160560, Note_on_c, 1, 26, 109
3, 160798, Note_off_c, 1, 26, 80
3, 160800, Note_on_c, 1, 26, 109
3, 161038, Note_off_c, 1, 26, 80
3, 161040, Note_on_c, 1, 26, 109
3, 161278, Note_off_c, 1, 26, 80
3, 161520, Note_on_c, 1, 28, 109
3, 161758, Note_off_c, 1, 28, 80
3, 161760, Note_on_c, 1, 28, 109
3, 161998, Note_off_c, 1, 28, 80
3, 162000, Note_on_c, 1, 30, 109
3, 162238, Note_off_c, 1, 30, 80
3, 162240, Note_on_c, 1, 30, 109
3, 162478, Note_off_c, 1, 30, 80
3, 162480, Note_on_c, 1, 33, 109
3, 162718, Note_off_c, 1, 33, 80
3, 162720, Note_on_c, 1, 33, 109
3, 162958, Note_off_c, 1, 33, 80
3, 162960, Note_on_c, 1, 35, 109
3, 163198, Note_off_c, 1, 35, 80
3, 163440, Note_on_c, 1, 35, 109
3, 163678, Note_off_c, 1, 35, 80
3, 163680, Note_on_c, 1, 26, 109
3, 163918, Note_off_c, 1, 26, 80
3, 163920, Note_on_c, 1, 26, 109
3, 164158, Note_off_c, 1, 26, 80
3, 164160, Note_on_c, 1, 26, 109
3, 164398, Note_off_c, 1, 26, 80
3, 164400, Note_on_c, 1, 26, 109
3, 164638, Note_off_c, 1, 26, 80
3, 164640, Note_on_c, 1, 26, 109
3, 164878, Note_off_c, 1, 26, 80
3, 164880, Note_on_c, 1, 26, 109
3, 165118, Note_off_c, 1, 26, 80
3, 165360, Note_on_c, 1, 28, 109
3, 165598, Note_off_c, 1, 28, 80
3, 165600, Note_on_c, 1, 28, 109
3, 165838, Note_off_c, 1, 28, 80
3, 165840, Note_on_c, 1, 30, 109
3, 166078, Note_off_c, 1, 30, 80
3, 166080, Note_on_c, 1, 30, 109
3, 166318, Note_off_c, 1, 30, 80
3, 166320, Note_on_c, 1, 33, 109
3, 166558, Note_off_c, 1, 33, 80
3, 166560, Note_on_c, 1, 33, 109
3, 166798, Note_off_c, 1, 33, 80
3, 166800, Note_on_c, 1, 35, 109
3, 167038, Note_off_c, 1, 35, 80
3, 167280, Note_on_c, 1, 35, 109
3, 167518, Note_off_c, 1, 35, 80
3, 167520, Note_on_c, 1, 26, 109
3, 167758, Note_off_c, 1, 26, 80
3, 167760, Note_on_c, 1, 26, 109
3, 167998, Note_off_c, 1, 26, 80
3, 168000, Note_on_c, 1, 26, 109
3, 168238, Note_off_c, 1, 26, 80
3, 168240, Note_on_c, 1, 26, 109
3, 168478, Note_off_c, 1, 26, 80
3, 168480, Note_on_c, 1, 26, 109
3, 168718, Note_off_c, 1, 26, 80
3, 168720, Note_on_c, 1, 26, 109
3, 168958, Note_off_c, 1, 26, 80
3, 169200, Note_on_c, 1, 28, 109
3, 169438, Note_off_c, 1, 28, 80
3, 169440, Note_on_c, 1, 28, 109
3, 169678, Note_off_c, 1, 28, 80
3, 169680, Note_on_c, 1, 30, 109
3, 169918, Note_off_c, 1, 30, 80
3, 169920, Note_on_c, 1, 30, 109
3, 170158, Note_off_c, 1, 30, 80
3, 170160, Note_on_c, 1, 38, 109
3, 170398, Note_off_c, 1, 38, 80
3, 170400, Note_on_c, 1, 38, 109
3, 170638, Note_off_c, 1, 38, 80
3, 170640, Note_on_c, 1, 35, 109
3, 170878, Note_off_c, 1, 35, 80
3, 170880, Note_on_c, 1, 38, 109
3, 171838, Note_off_c, 1, 38, 80
3, 171840, Note_on_c, 1, 35, 109
3, 174718, Note_off_c, 1, 35, 80
3, 174720, Note_on_c, 1, 35, 109
3, 175438, Note_off_c, 1, 35, 80
3, 175440, Note_on_c, 1, 35, 109
3, 175678, Note_off_c, 1, 35, 80
3, 175680, Note_on_c, 1, 26, 109
3, 176158, Note_off_c, 1, 26, 80
3, 176160, Note_on_c, 1, 26, 109
3, 176398, Note_off_c, 1, 26, 80
3, 176400, Note_on_c, 1, 35, 109
3, 176878, Note_off_c, 1, 35, 80
3, 176880, Note_on_c, 1, 35, 109
3, 177358, Note_off_c, 1, 35, 80
3, 177360, Note_on_c, 1, 35, 109
3, 177598, Note_off_c, 1, 35, 80
3, 177600, Note_on_c, 1, 26, 109
3, 177838, Note_off_c, 1, 26, 80
3, 177840, Note_on_c, 1, 35, 109
3, 178318, Note_off_c, 1, 35, 80
3, 178320, Note_on_c, 1, 26, 109
3, 178558, Note_off_c, 1, 26, 80
3, 178560, Note_on_c, 1, 38, 109
3, 179278, Note_off_c, 1, 38, 80
3, 179280, Note_on_c, 1, 40, 109
3, 179518, Note_off_c, 1, 40, 80
3, 179520, Note_on_c, 1, 35, 109
3, 182398, Note_off_c, 1, 35, 80
3, 182400, Note_on_c, 1, 35, 109
3, 183118, Note_off_c, 1, 35, 80
3, 183120, Note_on_c, 1, 35, 109
3, 183358, Note_off_c, 1, 35, 80
3, 183360, Note_on_c, 1, 26, 109
3, 183838, Note_off_c, 1, 26, 80
3, 183840, Note_on_c, 1, 26, 109
3, 184078, Note_off_c, 1, 26, 80
3, 184080, Note_on_c, 1, 35, 109
3, 184558, Note_off_c, 1, 35, 80
3, 184560, Note_on_c, 1, 35, 109
3, 185038, Note_off_c, 1, 35, 80
3, 185040, Note_on_c, 1, 35, 109
3, 185278, Note_off_c, 1, 35, 80
3, 185280, Note_on_c, 1, 26, 109
3, 185518, Note_off_c, 1, 26, 80
3, 185520, Note_on_c, 1, 35, 109
3, 185998, Note_off_c, 1, 35, 80
3, 186000, Note_on_c, 1, 26, 109
3, 186238, Note_off_c, 1, 26, 80
3, 186240, Note_on_c, 1, 43, 109
3, 187198, Note_off_c, 1, 43, 80
3, 187200, Note_on_c, 1, 42, 109
3, 187918, Note_off_c, 1, 42, 80
3, 187920, Note_on_c, 1, 42, 109
3, 188398, Note_off_c, 1, 42, 80
3, 188400, Note_on_c, 1, 43, 109
3, 188638, Note_off_c, 1, 43, 80
3, 188640, Note_on_c, 1, 40, 109
3, 189358, Note_off_c, 1, 40, 80
3, 189360, Note_on_c, 1, 38, 109
3, 189598, Note_off_c, 1, 38, 80
3, 189600, Note_on_c, 1, 40, 109
3, 189838, Note_off_c, 1, 40, 80
3, 189840, Note_on_c, 1, 38, 109
3, 190078, Note_off_c, 1, 38, 80
3, 190080, Note_on_c, 1, 42, 109
3, 190318, Note_off_c, 1, 42, 80
3, 190320, Note_on_c, 1, 43, 109
3, 190558, Note_off_c, 1, 43, 80
3, 190560, Note_on_c, 1, 42, 109
3, 191038, Note_off_c, 1, 42, 80
3, 191040, Note_on_c, 1, 42, 109
3, 191278, Note_off_c, 1, 42, 80
3, 191280, Note_on_c, 1, 42, 109
3, 191518, Note_off_c, 1, 42, 80
3, 191520, Note_on_c, 1, 38, 109
3, 191758, Note_off_c, 1, 38, 80
3, 191760, Note_on_c, 1, 40, 109
3, 192238, Note_off_c, 1, 40, 80
3, 192240, Note_on_c, 1, 42, 109
3, 192718, Note_off_c, 1, 42, 80
3, 192720, Note_on_c, 1, 40, 109
3, 193198, Note_off_c, 1, 40, 80
3, 193200, Note_on_c, 1, 38, 109
3, 193438, Note_off_c, 1, 38, 80
3, 193440, Note_on_c, 1, 38, 109
3, 193918, Note_off_c, 1, 38, 80
3, 193920, Note_on_c, 1, 45, 109
3, 194878, Note_off_c, 1, 45, 80
3, 194880, Note_on_c, 1, 43, 109
3, 195598, Note_off_c, 1, 43, 80
3, 195600, Note_on_c, 1, 42, 109
3, 196078, Note_off_c, 1, 42, 80
3, 196080, Note_on_c, 1, 43, 109
3, 196318, Note_off_c, 1, 43, 80
3, 196320, Note_on_c, 1, 40, 109
3, 197038, Note_off_c, 1, 40, 80
3, 197040, Note_on_c, 1, 38, 109
3, 197278, Note_off_c, 1, 38, 80
3, 197280, Note_on_c, 1, 40, 109
3, 197518, Note_off_c, 1, 40, 80
3, 197520, Note_on_c, 1, 38, 109
3, 197758, Note_off_c, 1, 38, 80
3, 197760, Note_on_c, 1, 40, 109
3, 197998, Note_off_c, 1, 40, 80
3, 198000, Note_on_c, 1, 42, 109
3, 198238, Note_off_c, 1, 42, 80
3, 198240, Note_on_c, 1, 40, 109
3, 198718, Note_off_c, 1, 40, 80
3, 198720, Note_on_c, 1, 40, 109
3, 198958, Note_off_c, 1, 40, 80
3, 198960, Note_on_c, 1, 40, 109
3, 199198, Note_off_c, 1, 40, 80
3, 199200, Note_on_c, 1, 38, 109
3, 199438, Note_off_c, 1, 38, 80
3, 199440, Note_on_c, 1, 40, 109
3, 199918, Note_off_c, 1, 40, 80
3, 199920, Note_on_c, 1, 42, 109
3, 200398, Note_off_c, 1, 42, 80
3, 200400, Note_on_c, 1, 40, 109
3, 200878, Note_off_c, 1, 40, 80
3, 200880, Note_on_c, 1, 38, 109
3, 201118, Note_off_c, 1, 38, 80
3, 201120, Note_on_c, 1, 38, 109
3, 201598, Note_off_c, 1, 38, 80
3, 201600, Note_on_c, 1, 38, 109
3, 202558, Note_off_c, 1, 38, 80
3, 202560, Note_on_c, 1, 35, 109
3, 205438, Note_off_c, 1, 35, 80
3, 205440, Note_on_c, 1, 35, 109
3, 206158, Note_off_c, 1, 35, 80
3, 206160, Note_on_c, 1, 35, 109
3, 206398, Note_off_c, 1, 35, 80
3, 206400, Note_on_c, 1, 26, 109
3, 206878, Note_off_c, 1, 26, 80
3, 206880, Note_on_c, 1, 26, 109
3, 207118, Note_off_c, 1, 26, 80
3, 207120, Note_on_c, 1, 35, 109
3, 207598, Note_off_c, 1, 35, 80
3, 207600, Note_on_c, 1, 35, 109
3, 208078, Note_off_c, 1, 35, 80
3, 208080, Note_on_c, 1, 35, 109
3, 208318, Note_off_c, 1, 35, 80
3, 208320, Note_on_c, 1, 26, 109
3, 208558, Note_off_c, 1, 26, 80
3, 208560, Note_on_c, 1, 35, 109
3, 209038, Note_off_c, 1, 35, 80
3, 209040, Note_on_c, 1, 26, 109
3, 209278, Note_off_c, 1, 26, 80
3, 209280, Note_on_c, 1, 38, 109
3, 209998, Note_off_c, 1, 38, 80
3, 210000, Note_on_c, 1, 40, 109
3, 210238, Note_off_c, 1, 40, 80
3, 210240, Note_on_c, 1, 35, 109
3, 213118, Note_off_c, 1, 35, 80
3, 213120, Note_on_c, 1, 35, 109
3, 213838, Note_off_c, 1, 35, 80
3, 213840, Note_on_c, 1, 35, 109
3, 214078, Note_off_c, 1, 35, 80
3, 214080, Note_on_c, 1, 26, 109
3, 214558, Note_off_c, 1, 26, 80
3, 214560, Note_on_c, 1, 26, 109
3, 214798, Note_off_c, 1, 26, 80
3, 214800, Note_on_c, 1, 35, 109
3, 215278, Note_off_c, 1, 35, 80
3, 215280, Note_on_c, 1, 35, 109
3, 215758, Note_off_c, 1, 35, 80
3, 215760, Note_on_c, 1, 35, 109
3, 215998, Note_off_c, 1, 35, 80
3, 216000, Note_on_c, 1, 26, 109
3, 216238, Note_off_c, 1, 26, 80
3, 216240, Note_on_c, 1, 35, 109
3, 216718, Note_off_c, 1, 35, 80
3, 216720, Note_on_c, 1, 26, 109
3, 216958, Note_off_c, 1, 26, 80
3, 216960, Note_on_c, 1, 43, 109
3, 217918, Note_off_c, 1, 43, 80
3, 217920, Note_on_c, 1, 42, 109
3, 218638, Note_off_c, 1, 42, 80
3, 218640, Note_on_c, 1, 42, 109
3, 219118, Note_off_c, 1, 42, 80
3, 219120, Note_on_c, 1, 43, 109
3, 219358, Note_off_c, 1, 43, 80
3, 219360, Note_on_c, 1, 40, 109
3, 220078, Note_off_c, 1, 40, 80
3, 220080, Note_on_c, 1, 38, 109
3, 220318, Note_off_c, 1, 38, 80
3, 220320, Note_on_c, 1, 40, 109
3, 220558, Note_off_c, 1, 40, 80
3, 220560, Note_on_c, 1, 38, 109
3, 220798, Note_off_c, 1, 38, 80
3, 220800, Note_on_c, 1, 42, 109
3, 221038, Note_off_c, 1, 42, 80
3, 221040, Note_on_c, 1, 43, 109
3, 221278, Note_off_c, 1, 43, 80
3, 221280, Note_on_c, 1, 42, 109
3, 221758, Note_off_c, 1, 42, 80
3, 221760, Note_on_c, 1, 42, 109
3, 221998, Note_off_c, 1, 42, 80
3, 222000, Note_on_c, 1, 42, 109
3, 222238, Note_off_c, 1, 42, 80
3, 222240, Note_on_c, 1, 38, 109
3, 222478, Note_off_c, 1, 38, 80
3, 222480, Note_on_c, 1, 40, 109
3, 222958, Note_off_c, 1, 40, 80
3, 222960, Note_on_c, 1, 42, 109
3, 223438, Note_off_c, 1, 42, 80
3, 223440, Note_on_c, 1, 40, 109
3, 223918, Note_off_c, 1, 40, 80
3, 223920, Note_on_c, 1, 38, 109
3, 224158, Note_off_c, 1, 38, 80
3, 224160, Note_on_c, 1, 38, 109
3, 224638, Note_off_c, 1, 38, 80
3, 224640, Note_on_c, 1, 45, 109
3, 225598, Note_off_c, 1, 45, 80
3, 225600, Note_on_c, 1, 43, 109
3, 226318, Note_off_c, 1, 43, 80
3, 226320, Note_on_c, 1, 42, 109
3, 226798, Note_off_c, 1, 42, 80
3, 226800, Note_on_c, 1, 43, 109
3, 227038, Note_off_c, 1, 43, 80
3, 227040, Note_on_c, 1, 40, 109
3, 227758, Note_off_c, 1, 40, 80
3, 227760, Note_on_c, 1, 38, 109
3, 227998, Note_off_c, 1, 38, 80
3, 228000, Note_on_c, 1, 40, 109
3, 228238, Note_off_c, 1, 40, 80
3, 228240, Note_on_c, 1, 38, 109
3, 228478, Note_off_c, 1, 38, 80
3, 228480, Note_on_c, 1, 40, 109
3, 228718, Note_off_c, 1, 40, 80
3, 228720, Note_on_c, 1, 42, 109
3, 228958, Note_off_c, 1, 42, 80
3, 228960, Note_on_c, 1, 40, 109
3, 229438, Note_off_c, 1, 40, 80
3, 229440, Note_on_c, 1, 40, 109
3, 229678, Note_off_c, 1, 40, 80
3, 229680, Note_on_c, 1, 40, 109
3, 229918, Note_off_c, 1, 40, 80
3, 229920, Note_on_c, 1, 38, 109
3, 230158, Note_off_c, 1, 38, 80
3, 230160, Note_on_c, 1, 40, 109
3, 230638, Note_off_c, 1, 40, 80
3, 230640, Note_on_c, 1, 42, 109
3, 231118, Note_off_c, 1, 42, 80
3, 231120, Note_on_c, 1, 40, 109
3, 231598, Note_off_c, 1, 40, 80
3, 231600, Note_on_c, 1, 38, 109
3, 231838, Note_off_c, 1, 38, 80
3, 231840, Note_on_c, 1, 38, 109
3, 232318, Note_off_c, 1, 38, 80
3, 232320, Note_on_c, 1, 35, 109
3, 232798, Note_off_c, 1, 35, 80
3, 232800, Note_on_c, 1, 35, 109
3, 233038, Note_off_c, 1, 35, 80
3, 233040, Note_on_c, 1, 35, 109
3, 233518, Note_off_c, 1, 35, 80
3, 233520, Note_on_c, 1, 35, 109
3, 233998, Note_off_c, 1, 35, 80
3, 234000, Note_on_c, 1, 35, 109
3, 234238, Note_off_c, 1, 35, 80
3, 234480, Note_on_c, 1, 35, 109
3, 234718, Note_off_c, 1, 35, 80
3, 234960, Note_on_c, 1, 35, 109
3, 235198, Note_off_c, 1, 35, 80
3, 235200, Note_on_c, 1, 35, 109
3, 235678, Note_off_c, 1, 35, 80
3, 235680, Note_on_c, 1, 35, 109
3, 236158, Note_off_c, 1, 35, 80
3, 236160, Note_on_c, 1, 35, 109
3, 236638, Note_off_c, 1, 35, 80
3, 236640, Note_on_c, 1, 35, 109
3, 236878, Note_off_c, 1, 35, 80
3, 236880, Note_on_c, 1, 35, 109
3, 237358, Note_off_c, 1, 35, 80
3, 237360, Note_on_c, 1, 35, 109
3, 237838, Note_off_c, 1, 35, 80
3, 237840, Note_on_c, 1, 35, 109
3, 238078, Note_off_c, 1, 35, 80
3, 238320, Note_on_c, 1, 35, 109
3, 238558, Note_off_c, 1, 35, 80
3, 238800, Note_on_c, 1, 35, 109
3, 239038, Note_off_c, 1, 35, 80
3, 239040, Note_on_c, 1, 35, 109
3, 239518, Note_off_c, 1, 35, 80
3, 239520, Note_on_c, 1, 35, 109
3, 239998, Note_off_c, 1, 35, 80
3, 240000, Note_on_c, 1, 34, 109
3, 240478, Note_off_c, 1, 34, 80
3, 240480, Note_on_c, 1, 34, 109
3, 240718, Note_off_c, 1, 34, 80
3, 240720, Note_on_c, 1, 34, 109
3, 241198, Note_off_c, 1, 34, 80
3, 241200, Note_on_c, 1, 34, 109
3, 241678, Note_off_c, 1, 34, 80
3, 241680, Note_on_c, 1, 34, 109
3, 241918, Note_off_c, 1, 34, 80
3, 242160, Note_on_c, 1, 34, 109
3, 242398, Note_off_c, 1, 34, 80
3, 242640, Note_on_c, 1, 34, 109
3, 242878, Note_off_c, 1, 34, 80
3, 242880, Note_on_c, 1, 34, 109
3, 243358, Note_off_c, 1, 34, 80
3, 243360, Note_on_c, 1, 34, 109
3, 243720, Pitch_bend_c, 1, 6144
3, 243720, Note_on_c, 1, 38, 109
3, 243760, Pitch_bend_c, 1, 6784
3, 243800, Pitch_bend_c, 1, 7552
3, 243838, Note_off_c, 1, 34, 80
3, 243840, Pitch_bend_c, 1, 8192
3, 244318, Note_off_c, 1, 38, 80
3, 244320, Note_on_c, 1, 38, 109
3, 244558, Note_off_c, 1, 38, 80
3, 244560, Note_on_c, 1, 38, 109
3, 245038, Note_off_c, 1, 38, 80
3, 245040, Note_on_c, 1, 38, 109
3, 245518, Note_off_c, 1, 38, 80
3, 245520, Note_on_c, 1, 38, 109
3, 245758, Note_off_c, 1, 38, 80
3, 246000, Note_on_c, 1, 38, 109
3, 246238, Note_off_c, 1, 38, 80
3, 246480, Note_on_c, 1, 38, 109
3, 246718, Note_off_c, 1, 38, 80
3, 246720, Note_on_c, 1, 38, 109
3, 247198, Note_off_c, 1, 38, 80
3, 247200, Note_on_c, 1, 38, 109
3, 247560, Pitch_bend_c, 1, 10240
3, 247560, Note_on_c, 1, 31, 109
3, 247600, Pitch_bend_c, 1, 9600
3, 247640, Pitch_bend_c, 1, 8832
3, 247678, Note_off_c, 1, 38, 80
3, 247680, Pitch_bend_c, 1, 8192
3, 248158, Note_off_c, 1, 31, 80
3, 248160, Note_on_c, 1, 31, 109
3, 248398, Note_off_c, 1, 31, 80
3, 248400, Note_on_c, 1, 31, 109
3, 248878, Note_off_c, 1, 31, 80
3, 248880, Note_on_c, 1, 31, 109
3, 249118, Note_off_c, 1, 31, 80
3, 249120, Note_on_c, 1, 26, 109
3, 249238, Note_off_c, 1, 26, 80
3, 249281, Pitch_bend_c, 1, 6144
3, 249281, Note_on_c, 1, 30, 109
3, 249307, Pitch_bend_c, 1, 6784
3, 249334, Pitch_bend_c, 1, 7552
3, 249360, Pitch_bend_c, 1, 8192
3, 249598, Note_off_c, 1, 30, 80
3, 249840, Note_on_c, 1, 30, 109
3, 250078, Note_off_c, 1, 30, 80
3, 250080, Note_on_c, 1, 30, 109
3, 250318, Note_off_c, 1, 30, 80
3, 250320, Note_on_c, 1, 30, 109
3, 250558, Note_off_c, 1, 30, 80
3, 250560, Note_on_c, 1, 30, 109
3, 251038, Note_off_c, 1, 30, 80
3, 251040, Note_on_c, 1, 30, 109
3, 251400, Pitch_bend_c, 1, 10240
3, 251400, Note_on_c, 1, 31, 109
3, 251440, Pitch_bend_c, 1, 9600
3, 251480, Pitch_bend_c, 1, 8832
3, 251518, Note_off_c, 1, 30, 80
3, 251520, Pitch_bend_c, 1, 8192
3, 251998, Note_off_c, 1, 31, 80
3, 252000, Note_on_c, 1, 31, 109
3, 252238, Note_off_c, 1, 31, 80
3, 252240, Note_on_c, 1, 31, 109
3, 252718, Note_off_c, 1, 31, 80
3, 252720, Note_on_c, 1, 31, 109
3, 252958, Note_off_c, 1, 31, 80
3, 252960, Note_on_c, 1, 26, 109
3, 253078, Note_off_c, 1, 26, 80
3, 253121, Pitch_bend_c, 1, 6144
3, 253121, Note_on_c, 1, 30, 109
3, 253147, Pitch_bend_c, 1, 6784
3, 253174, Pitch_bend_c, 1, 7552
3, 253200, Pitch_bend_c, 1, 8192
3, 253438, Note_off_c, 1, 30, 80
3, 253680, Note_on_c, 1, 30, 109
3, 253918, Note_off_c, 1, 30, 80
3, 254160, Note_on_c, 1, 30, 109
3, 254398, Note_off_c, 1, 30, 80
3, 254400, Note_on_c, 1, 30, 109
3, 254878, Note_off_c, 1, 30, 80
3, 254880, Note_on_c, 1, 30, 109
3, 255358, Note_off_c, 1, 30, 80
3, 255360, Note_on_c, 1, 35, 109
3, 255598, Note_off_c, 1, 35, 80
3, 255600, Note_on_c, 1, 35, 109
3, 255838, Note_off_c, 1, 35, 80
3, 256080, Note_on_c, 1, 35, 109
3, 256318, Note_off_c, 1, 35, 80
3, 256320, Note_on_c, 1, 35, 109
3, 256558, Note_off_c, 1, 35, 80
3, 257040, Note_on_c, 1, 35, 109
3, 257278, Note_off_c, 1, 35, 80
3, 257280, Note_on_c, 1, 35, 109
3, 257518, Note_off_c, 1, 35, 80
3, 257520, Note_on_c, 1, 35, 109
3, 257758, Note_off_c, 1, 35, 80
3, 258000, Note_on_c, 1, 35, 109
3, 258238, Note_off_c, 1, 35, 80
3, 258240, Note_on_c, 1, 35, 109
3, 258478, Note_off_c, 1, 35, 80
3, 258960, Note_on_c, 1, 35, 109
3, 259198, Note_off_c, 1, 35, 80
3, 259200, Note_on_c, 1, 35, 109
3, 259438, Note_off_c, 1, 35, 80
3, 259440, Note_on_c, 1, 35, 109
3, 259678, Note_off_c, 1, 35, 80
3, 259920, Note_on_c, 1, 35, 109
3, 260158, Note_off_c, 1, 35, 80
3, 260160, Note_on_c, 1, 35, 109
3, 260398, Note_off_c, 1, 35, 80
3, 260880, Note_on_c, 1, 35, 109
3, 261118, Note_off_c, 1, 35, 80
3, 261120, Note_on_c, 1, 35, 109
3, 261358, Note_off_c, 1, 35, 80
3, 261360, Note_on_c, 1, 35, 109
3, 261598, Note_off_c, 1, 35, 80
3, 261840, Note_on_c, 1, 35, 109
3, 262078, Note_off_c, 1, 35, 80
3, 262080, Note_on_c, 1, 35, 109
3, 262318, Note_off_c, 1, 35, 80
3, 262800, Note_on_c, 1, 35, 109
3, 263038, Note_off_c, 1, 35, 80
3, 263040, Note_on_c, 1, 34, 109
3, 263278, Note_off_c, 1, 34, 80
3, 263280, Note_on_c, 1, 34, 109
3, 263518, Note_off_c, 1, 34, 80
3, 263760, Note_on_c, 1, 34, 109
3, 263998, Note_off_c, 1, 34, 80
3, 264000, Note_on_c, 1, 34, 109
3, 264238, Note_off_c, 1, 34, 80
3, 264720, Note_on_c, 1, 34, 109
3, 264958, Note_off_c, 1, 34, 80
3, 264960, Note_on_c, 1, 34, 109
3, 265198, Note_off_c, 1, 34, 80
3, 265200, Note_on_c, 1, 34, 109
3, 265438, Note_off_c, 1, 34, 80
3, 265680, Note_on_c, 1, 34, 109
3, 265918, Note_off_c, 1, 34, 80
3, 265920, Note_on_c, 1, 34, 109
3, 266158, Note_off_c, 1, 34, 80
3, 266640, Note_on_c, 1, 34, 109
3, 266878, Note_off_c, 1, 34, 80
3, 266880, Note_on_c, 1, 38, 109
3, 267118, Note_off_c, 1, 38, 80
3, 267120, Note_on_c, 1, 38, 109
3, 267358, Note_off_c, 1, 38, 80
3, 267600, Note_on_c, 1, 38, 109
3, 267838, Note_off_c, 1, 38, 80
3, 267840, Note_on_c, 1, 38, 109
3, 268078, Note_off_c, 1, 38, 80
3, 268560, Note_on_c, 1, 38, 109
3, 268798, Note_off_c, 1, 38, 80
3, 268800, Note_on_c, 1, 38, 109
3, 269038, Note_off_c, 1, 38, 80
3, 269040, Note_on_c, 1, 38, 109
3, 269278, Note_off_c, 1, 38, 80
3, 269520, Note_on_c, 1, 38, 109
3, 269758, Note_off_c, 1, 38, 80
3, 269760, Note_on_c, 1, 38, 109
3, 269998, Note_off_c, 1, 38, 80
3, 270480, Note_on_c, 1, 38, 109
3, 270718, Note_off_c, 1, 38, 80
3, 270720, Note_on_c, 1, 31, 109
3, 271198, Note_off_c, 1, 31, 80
3, 271200, Note_on_c, 1, 31, 109
3, 271438, Note_off_c, 1, 31, 80
3, 271440, Note_on_c, 1, 31, 109
3, 271678, Note_off_c, 1, 31, 80
3, 271680, Note_on_c, 1, 31, 109
3, 272158, Note_off_c, 1, 31, 80
3, 272160, Note_on_c, 1, 26, 109
3, 272398, Note_off_c, 1, 26, 80
3, 272400, Note_on_c, 1, 30, 109
3, 272638, Note_off_c, 1, 30, 80
3, 272640, Note_on_c, 1, 30, 109
3, 272878, Note_off_c, 1, 30, 80
3, 273120, Note_on_c, 1, 30, 109
3, 273598, Note_off_c, 1, 30, 80
3, 273600, Note_on_c, 1, 30, 109
3, 273838, Note_off_c, 1, 30, 80
3, 273840, Note_on_c, 1, 30, 109
3, 274318, Note_off_c, 1, 30, 80
3, 274320, Note_on_c, 1, 30, 109
3, 274558, Note_off_c, 1, 30, 80
3, 274560, Note_on_c, 1, 31, 109
3, 274798, Note_off_c, 1, 31, 80
3, 274800, Note_on_c, 1, 31, 109
3, 275278, Note_off_c, 1, 31, 80
3, 275280, Note_on_c, 1, 31, 109
3, 275518, Note_off_c, 1, 31, 80
3, 275520, Note_on_c, 1, 31, 109
3, 275998, Note_off_c, 1, 31, 80
3, 276000, Note_on_c, 1, 26, 109
3, 276238, Note_off_c, 1, 26, 80
3, 276240, Note_on_c, 1, 30, 109
3, 276478, Note_off_c, 1, 30, 80
3, 276480, Note_on_c, 1, 30, 109
3, 276718, Note_off_c, 1, 30, 80
3, 276960, Note_on_c, 1, 30, 109
3, 277438, Note_off_c, 1, 30, 80
3, 277440, Note_on_c, 1, 30, 109
3, 277678, Note_off_c, 1, 30, 80
3, 277680, Note_on_c, 1, 30, 109
3, 278158, Note_off_c, 1, 30, 80
3, 278160, Note_on_c, 1, 30, 109
3, 278398, Note_off_c, 1, 30, 80
3, 278400, Note_on_c, 1, 35, 109
3, 278638, Note_off_c, 1, 35, 80
3, 278640, Note_on_c, 1, 35, 109
3, 278878, Note_off_c, 1, 35, 80
3, 279120, Note_on_c, 1, 35, 109
3, 279358, Note_off_c, 1, 35, 80
3, 279360, Note_on_c, 1, 35, 109
3, 279598, Note_off_c, 1, 35, 80
3, 280080, Note_on_c, 1, 35, 109
3, 280318, Note_off_c, 1, 35, 80
3, 280320, Note_on_c, 1, 35, 109
3, 280558, Note_off_c, 1, 35, 80
3, 280560, Note_on_c, 1, 35, 109
3, 280798, Note_off_c, 1, 35, 80
3, 281040, Note_on_c, 1, 35, 109
3, 281278, Note_off_c, 1, 35, 80
3, 281280, Note_on_c, 1, 35, 109
3, 281518, Note_off_c, 1, 35, 80
3, 282000, Note_on_c, 1, 35, 109
3, 282238, Note_off_c, 1, 35, 80
3, 282240, Note_on_c, 1, 35, 109
3, 282478, Note_off_c, 1, 35, 80
3, 282480, Note_on_c, 1, 35, 109
3, 282718, Note_off_c, 1, 35, 80
3, 282960, Note_on_c, 1, 35, 109
3, 283198, Note_off_c, 1, 35, 80
3, 283200, Note_on_c, 1, 35, 109
3, 283438, Note_off_c, 1, 35, 80
3, 283920, Note_on_c, 1, 35, 109
3, 284158, Note_off_c, 1, 35, 80
3, 284160, Note_on_c, 1, 35, 109
3, 284398, Note_off_c, 1, 35, 80
3, 284400, Note_on_c, 1, 35, 109
3, 284638, Note_off_c, 1, 35, 80
3, 284880, Note_on_c, 1, 35, 109
3, 285118, Note_off_c, 1, 35, 80
3, 285120, Note_on_c, 1, 35, 109
3, 285358, Note_off_c, 1, 35, 80
3, 285840, Note_on_c, 1, 35, 109
3, 286078, Note_off_c, 1, 35, 80
3, 286080, Note_on_c, 1, 34, 109
3, 286318, Note_off_c, 1, 34, 80
3, 286320, Note_on_c, 1, 34, 109
3, 286558, Note_off_c, 1, 34, 80
3, 286800, Note_on_c, 1, 34, 109
3, 287038, Note_off_c, 1, 34, 80
3, 287040, Note_on_c, 1, 34, 109
3, 287278, Note_off_c, 1, 34, 80
3, 287760, Note_on_c, 1, 34, 109
3, 287998, Note_off_c, 1, 34, 80
3, 288000, Note_on_c, 1, 34, 109
3, 288238, Note_off_c, 1, 34, 80
3, 288240, Note_on_c, 1, 34, 109
3, 288478, Note_off_c, 1, 34, 80
3, 288720, Note_on_c, 1, 34, 109
3, 288958, Note_off_c, 1, 34, 80
3, 288960, Note_on_c, 1, 34, 109
3, 289198, Note_off_c, 1, 34, 80
3, 289680, Note_on_c, 1, 34, 109
3, 289918, Note_off_c, 1, 34, 80
3, 289920, Note_on_c, 1, 38, 109
3, 290158, Note_off_c, 1, 38, 80
3, 290160, Note_on_c, 1, 38, 109
3, 290398, Note_off_c, 1, 38, 80
3, 290640, Note_on_c, 1, 38, 109
3, 290878, Note_off_c, 1, 38, 80
3, 290880, Note_on_c, 1, 38, 109
3, 291118, Note_off_c, 1, 38, 80
3, 291600, Note_on_c, 1, 38, 109
3, 291838, Note_off_c, 1, 38, 80
3, 291840, Note_on_c, 1, 38, 109
3, 292078, Note_off_c, 1, 38, 80
3, 292080, Note_on_c, 1, 38, 109
3, 292318, Note_off_c, 1, 38, 80
3, 292560, Note_on_c, 1, 38, 109
3, 292798, Note_off_c, 1, 38, 80
3, 292800, Note_on_c, 1, 38, 109
3, 293038, Note_off_c, 1, 38, 80
3, 293520, Note_on_c, 1, 38, 109
3, 293758, Note_off_c, 1, 38, 80
3, 293760, Note_on_c, 1, 31, 109
3, 294238, Note_off_c, 1, 31, 80
3, 294240, Note_on_c, 1, 31, 109
3, 294478, Note_off_c, 1, 31, 80
3, 294480, Note_on_c, 1, 31, 109
3, 294718, Note_off_c, 1, 31, 80
3, 294720, Note_on_c, 1, 31, 109
3, 295198, Note_off_c, 1, 31, 80
3, 295200, Note_on_c, 1, 26, 109
3, 295438, Note_off_c, 1, 26, 80
3, 295440, Note_on_c, 1, 30, 109
3, 295678, Note_off_c, 1, 30, 80
3, 295680, Note_on_c, 1, 30, 109
3, 295918, Note_off_c, 1, 30, 80
3, 296160, Note_on_c, 1, 30, 109
3, 296638, Note_off_c, 1, 30, 80
3, 296640, Note_on_c, 1, 30, 109
3, 296878, Note_off_c, 1, 30, 80
3, 296880, Note_on_c, 1, 30, 109
3, 297358, Note_off_c, 1, 30, 80
3, 297360, Note_on_c, 1, 30, 109
3, 297598, Note_off_c, 1, 30, 80
3, 297600, Note_on_c, 1, 31, 109
3, 297838, Note_off_c, 1, 31, 80
3, 297840, Note_on_c, 1, 31, 109
3, 298318, Note_off_c, 1, 31, 80
3, 298320, Note_on_c, 1, 31, 109
3, 298558, Note_off_c, 1, 31, 80
3, 298560, Note_on_c, 1, 31, 109
3, 299038, Note_off_c, 1, 31, 80
3, 299040, Note_on_c, 1, 26, 109
3, 299278, Note_off_c, 1, 26, 80
3, 299280, Note_on_c, 1, 30, 109
3, 299518, Note_off_c, 1, 30, 80
3, 299520, Note_on_c, 1, 30, 109
3, 299758, Note_off_c, 1, 30, 80
3, 300000, Note_on_c, 1, 30, 109
3, 300478, Note_off_c, 1, 30, 80
3, 300480, Note_on_c, 1, 30, 109
3, 300718, Note_off_c, 1, 30, 80
3, 300720, Note_on_c, 1, 30, 109
3, 301198, Note_off_c, 1, 30, 80
3, 301200, Note_on_c, 1, 30, 109
3, 301438, Note_off_c, 1, 30, 80
3, 301440, Note_on_c, 1, 38, 109
3, 302398, Note_off_c, 1, 38, 80
3, 302400, Note_on_c, 1, 35, 109
3, 304078, Note_off_c, 1, 35, 80
3, 304080, Note_on_c, 1, 35, 109
3, 304318, Note_off_c, 1, 35, 80
3, 304320, Note_on_c, 1, 26, 109
3, 304558, Note_off_c, 1, 26, 80
3, 304560, Note_on_c, 1, 35, 109
3, 305038, Note_off_c, 1, 35, 80
3, 305040, Note_on_c, 1, 26, 109
3, 305278, Note_off_c, 1, 26, 80
3, 305280, Note_on_c, 1, 35, 109
3, 305998, Note_off_c, 1, 35, 80
3, 306000, Note_on_c, 1, 35, 109
3, 306238, Note_off_c, 1, 35, 80
3, 306240, Note_on_c, 1, 26, 109
3, 306718, Note_off_c, 1, 26, 80
3, 306720, Note_on_c, 1, 26, 109
3, 306958, Note_off_c, 1, 26, 80
3, 306960, Note_on_c, 1, 35, 109
3, 307438, Note_off_c, 1, 35, 80
3, 307440, Note_on_c, 1, 35, 109
3, 307918, Note_off_c, 1, 35, 80
3, 307920, Note_on_c, 1, 35, 109
3, 308158, Note_off_c, 1, 35, 80
3, 308160, Note_on_c, 1, 26, 109
3, 308398, Note_off_c, 1, 26, 80
3, 308400, Note_on_c, 1, 35, 109
3, 308878, Note_off_c, 1, 35, 80
3, 308880, Note_on_c, 1, 26, 109
3, 309118, Note_off_c, 1, 26, 80
3, 309120, Note_on_c, 1, 38, 109
3, 309838, Note_off_c, 1, 38, 80
3, 309840, Note_on_c, 1, 40, 109
3, 310078, Note_off_c, 1, 40, 80
3, 310080, Note_on_c, 1, 35, 109
3, 311758, Note_off_c, 1, 35, 80
3, 311760, Note_on_c, 1, 35, 109
3, 311998, Note_off_c, 1, 35, 80
3, 312000, Note_on_c, 1, 26, 109
3, 312238, Note_off_c, 1, 26, 80
3, 312240, Note_on_c, 1, 35, 109
3, 312718, Note_off_c, 1, 35, 80
3, 312720, Note_on_c, 1, 26, 109
3, 312958, Note_off_c, 1, 26, 80
3, 312960, Note_on_c, 1, 35, 109
3, 313678, Note_off_c, 1, 35, 80
3, 313680, Note_on_c, 1, 35, 109
3, 313918, Note_off_c, 1, 35, 80
3, 313920, Note_on_c, 1, 26, 109
3, 314398, Note_off_c, 1, 26, 80
3, 314400, Note_on_c, 1, 26, 109
3, 314638, Note_off_c, 1, 26, 80
3, 314640, Note_on_c, 1, 35, 109
3, 315118, Note_off_c, 1, 35, 80
3, 315120, Note_on_c, 1, 35, 109
3, 315598, Note_off_c, 1, 35, 80
3, 315600, Note_on_c, 1, 35, 109
3, 315838, Note_off_c, 1, 35, 80
3, 315840, Note_on_c, 1, 26, 109
3, 316078, Note_off_c, 1, 26, 80
3, 316080, Note_on_c, 1, 35, 109
3, 316558, Note_off_c, 1, 35, 80
3, 316560, Note_on_c, 1, 26, 109
3, 316721, Pitch_bend_c, 1, 6144
3, 316721, Note_on_c, 1, 35, 109
3, 316747, Pitch_bend_c, 1, 6784
3, 316774, Pitch_bend_c, 1, 7552
3, 316798, Note_off_c, 1, 26, 80
3, 316800, Pitch_bend_c, 1, 8192
3, 320638, Note_off_c, 1, 35, 80
3, 320638, End_track
4, 0, Start_track
4, 0, Title_t, "Yorke"
4, 300, Control_c, 2, 121, 0
4, 300, Control_c, 2, 123, 0
4, 300, Control_c, 2, 100, 0
4, 300, Control_c, 2, 38, 0
4, 300, Control_c, 2, 101, 0
4, 300, Control_c, 2, 6, 12
4, 300, Pitch_bend_c, 2, 8192
4, 360, Program_c, 2, 65
4, 360, Control_c, 2, 7, 110
4, 360, Control_c, 2, 10, 64
4, 47520, Note_on_c, 2, 69, 111
4, 47880, Pitch_bend_c, 2, 8832
4, 47910, Pitch_bend_c, 2, 9600
4, 47940, Pitch_bend_c, 2, 10240
4, 47970, Pitch_bend_c, 2, 10880
4, 48000, Pitch_bend_c, 2, 11648
4, 48816, Pitch_bend_c, 2, 11008
4, 48888, Pitch_bend_c, 2, 10240
4, 48958, Note_off_c, 2, 69, 80
4, 48960, Pitch_bend_c, 2, 8192
4, 48960, Note_on_c, 2, 71, 89
4, 55198, Note_off_c, 2, 71, 80
4, 55200, Note_on_c, 2, 69, 111
4, 55560, Pitch_bend_c, 2, 8832
4, 55590, Pitch_bend_c, 2, 9600
4, 55620, Pitch_bend_c, 2, 10240
4, 55650, Pitch_bend_c, 2, 10880
4, 55680, Pitch_bend_c, 2, 11648
4, 56328, Pitch_bend_c, 2, 12288
4, 56400, Pitch_bend_c, 2, 13056
4, 56580, Pitch_bend_c, 2, 12416
4, 56595, Pitch_bend_c, 2, 11648
4, 56610, Pitch_bend_c, 2, 11008
4, 56625, Pitch_bend_c, 2, 10368
4, 56640, Pitch_bend_c, 2, 9600
4, 62878, Note_off_c, 2, 69, 80
4, 62880, Pitch_bend_c, 2, 8192
4, 62880, Note_on_c, 2, 69, 111
4, 63240, Pitch_bend_c, 2, 8832
4, 63270, Pitch_bend_c, 2, 9600
4, 63300, Pitch_bend_c, 2, 10240
4, 63330, Pitch_bend_c, 2, 10880
4, 63360, Pitch_bend_c, 2, 11648
4, 64128, Pitch_bend_c, 2, 11008
4, 64318, Note_off_c, 2, 69, 80
4, 64320, Pitch_bend_c, 2, 8192
4, 64320, Note_on_c, 2, 73, 89
4, 65038, Note_off_c, 2, 73, 80
4, 65040, Note_on_c, 2, 73, 111
4, 65472, Pitch_bend_c, 2, 8832
4, 65518, Note_off_c, 2, 73, 80
4, 65520, Pitch_bend_c, 2, 8192
4, 65520, Note_on_c, 2, 74, 89
4, 65724, Pitch_bend_c, 2, 7552
4, 65742, Pitch_bend_c, 2, 6784
4, 65758, Note_off_c, 2, 74, 80
4, 65760, Pitch_bend_c, 2, 8192
4, 65760, Note_on_c, 2, 71, 89
4, 70558, Note_off_c, 2, 71, 80
4, 70560, Note_on_c, 2, 69, 111
4, 70872, Pitch_bend_c, 2, 8832
4, 70900, Pitch_bend_c, 2, 9600
4, 70928, Pitch_bend_c, 2, 10240
4, 70956, Pitch_bend_c, 2, 10880
4, 70984, Pitch_bend_c, 2, 11648
4, 71012, Pitch_bend_c, 2, 12288
4, 71040, Pitch_bend_c, 2, 12928
4, 71904, Pitch_bend_c, 2, 12288
4, 71998, Note_off_c, 2, 69, 80
4, 72000, Pitch_bend_c, 2, 8192
4, 72000, Note_on_c, 2, 74, 89
4, 72576, Pitch_bend_c, 2, 7552
4, 72718, Note_off_c, 2, 74, 80
4, 72720, Pitch_bend_c, 2, 8192
4, 72720, Note_on_c, 2, 73, 89
4, 73152, Pitch_bend_c, 2, 8832
4, 73198, Note_off_c, 2, 73, 80
4, 73200, Pitch_bend_c, 2, 8192
4, 73200, Note_on_c, 2, 74, 89
4, 73404, Pitch_bend_c, 2, 7552
4, 73422, Pitch_bend_c, 2, 6784
4, 73438, Note_off_c, 2, 74, 80
4, 73440, Pitch_bend_c, 2, 8192
4, 73440, Note_on_c, 2, 71, 89
4, 78238, Note_off_c, 2, 71, 80
4, 79200, Note_on_c, 2, 64, 111
4, 79678, Note_off_c, 2, 64, 80
4, 79680, Note_on_c, 2, 64, 111
4, 80158, Note_off_c, 2, 64, 80
4, 80160, Note_on_c, 2, 62, 111
4, 80398, Note_off_c, 2, 62, 80
4, 80400, Note_on_c, 2, 64, 111
4, 80878, Note_off_c, 2, 64, 80
4, 80880, Note_on_c, 2, 66, 111
4, 81358, Note_off_c, 2, 66, 80
4, 81360, Note_on_c, 2, 62, 111
4, 82078, Note_off_c, 2, 62, 80
4, 83040, Note_on_c, 2, 64, 111
4, 83518, Note_off_c, 2, 64, 80
4, 83520, Note_on_c, 2, 64, 111
4, 83998, Note_off_c, 2, 64, 80
4, 84000, Note_on_c, 2, 62, 111
4, 84238, Note_off_c, 2, 62, 80
4, 84240, Note_on_c, 2, 64, 111
4, 84718, Note_off_c, 2, 64, 80
4, 84720, Note_on_c, 2, 66, 111
4, 85198, Note_off_c, 2, 66, 80
4, 85200, Note_on_c, 2, 62, 111
4, 85678, Note_off_c, 2, 62, 80
4, 85680, Note_on_c, 2, 64, 111
4, 85918, Note_off_c, 2, 64, 80
4, 85920, Note_on_c, 2, 62, 111
4, 86398, Note_off_c, 2, 62, 80
4, 86880, Note_on_c, 2, 64, 111
4, 87118, Note_off_c, 2, 64, 80
4, 87120, Note_on_c, 2, 64, 111
4, 87838, Note_off_c, 2, 64, 80
4, 87840, Note_on_c, 2, 62, 111
4, 88078, Note_off_c, 2, 62, 80
4, 88080, Note_on_c, 2, 64, 111
4, 88558, Note_off_c, 2, 64, 80
4, 88560, Note_on_c, 2, 66, 111
4, 89038, Note_off_c, 2, 66, 80
4, 89040, Note_on_c, 2, 62, 111
4, 89758, Note_off_c, 2, 62, 80
4, 90720, Note_on_c, 2, 64, 111
4, 91198, Note_off_c, 2, 64, 80
4, 91200, Note_on_c, 2, 64, 111
4, 91678, Note_off_c, 2, 64, 80
4, 91680, Note_on_c, 2, 62, 111
4, 91918, Note_off_c, 2, 62, 80
4, 91920, Note_on_c, 2, 64, 111
4, 92398, Note_off_c, 2, 64, 80
4, 92400, Note_on_c, 2, 66, 111
4, 92878, Note_off_c, 2, 66, 80
4, 92880, Note_on_c, 2, 62, 111
4, 93358, Note_off_c, 2, 62, 80
4, 93360, Note_on_c, 2, 64, 111
4, 93598, Note_off_c, 2, 64, 80
4, 93600, Note_on_c, 2, 62, 111
4, 94078, Note_off_c, 2, 62, 80
4, 94560, Note_on_c, 2, 64, 111
4, 95038, Note_off_c, 2, 64, 80
4, 95040, Note_on_c, 2, 64, 111
4, 95278, Note_off_c, 2, 64, 80
4, 95280, Note_on_c, 2, 64, 111
4, 95758, Note_off_c, 2, 64, 80
4, 95760, Note_on_c, 2, 64, 111
4, 96238, Note_off_c, 2, 64, 80
4, 96240, Note_on_c, 2, 62, 111
4, 96718, Note_off_c, 2, 62, 80
4, 96720, Note_on_c, 2, 62, 111
4, 97438, Note_off_c, 2, 62, 80
4, 98400, Note_on_c, 2, 64, 111
4, 98878, Note_off_c, 2, 64, 80
4, 98880, Note_on_c, 2, 64, 111
4, 99358, Note_off_c, 2, 64, 80
4, 99360, Note_on_c, 2, 62, 111
4, 99598, Note_off_c, 2, 62, 80
4, 99600, Note_on_c, 2, 64, 111
4, 100078, Note_off_c, 2, 64, 80
4, 100080, Note_on_c, 2, 66, 111
4, 100558, Note_off_c, 2, 66, 80
4, 100560, Note_on_c, 2, 62, 111
4, 100918, Note_off_c, 2, 62, 80
4, 100920, Pitch_bend_c, 2, 6144
4, 100920, Note_on_c, 2, 64, 111
4, 100960, Pitch_bend_c, 2, 6784
4, 101000, Pitch_bend_c, 2, 7552
4, 101040, Pitch_bend_c, 2, 8192
4, 101278, Note_off_c, 2, 64, 80
4, 101280, Note_on_c, 2, 62, 111
4, 101758, Note_off_c, 2, 62, 80
4, 102240, Note_on_c, 2, 64, 111
4, 102478, Note_off_c, 2, 64, 80
4, 102480, Note_on_c, 2, 64, 111
4, 103198, Note_off_c, 2, 64, 80
4, 103200, Note_on_c, 2, 62, 111
4, 103438, Note_off_c, 2, 62, 80
4, 103440, Note_on_c, 2, 64, 111
4, 104158, Note_off_c, 2, 64, 80
4, 104160, Note_on_c, 2, 64, 111
4, 104398, Note_off_c, 2, 64, 80
4, 104400, Note_on_c, 2, 62, 111
4, 105118, Note_off_c, 2, 62, 80
4, 106080, Note_on_c, 2, 64, 111
4, 106558, Note_off_c, 2, 64, 80
4, 106560, Note_on_c, 2, 64, 111
4, 107038, Note_off_c, 2, 64, 80
4, 107040, Note_on_c, 2, 62, 111
4, 107278, Note_off_c, 2, 62, 80
4, 107280, Note_on_c, 2, 64, 111
4, 108238, Note_off_c, 2, 64, 80
4, 108240, Note_on_c, 2, 64, 111
4, 108478, Note_off_c, 2, 64, 80
4, 108480, Note_on_c, 2, 62, 111
4, 108718, Note_off_c, 2, 62, 80
4, 108720, Note_on_c, 2, 62, 111
4, 109438, Note_off_c, 2, 62, 80
4, 109920, Note_on_c, 2, 64, 111
4, 110158, Note_off_c, 2, 64, 80
4, 110160, Note_on_c, 2, 64, 111
4, 110878, Note_off_c, 2, 64, 80
4, 110880, Note_on_c, 2, 62, 111
4, 111118, Note_off_c, 2, 62, 80
4, 111120, Note_on_c, 2, 64, 111
4, 111598, Note_off_c, 2, 64, 80
4, 111600, Note_on_c, 2, 66, 111
4, 112078, Note_off_c, 2, 66, 80
4, 112080, Note_on_c, 2, 62, 111
4, 112798, Note_off_c, 2, 62, 80
4, 113760, Note_on_c, 2, 64, 111
4, 114238, Note_off_c, 2, 64, 80
4, 114240, Note_on_c, 2, 64, 111
4, 114718, Note_off_c, 2, 64, 80
4, 114720, Note_on_c, 2, 62, 111
4, 114958, Note_off_c, 2, 62, 80
4, 114960, Note_on_c, 2, 64, 111
4, 115438, Note_off_c, 2, 64, 80
4, 115440, Note_on_c, 2, 66, 111
4, 115918, Note_off_c, 2, 66, 80
4, 115920, Note_on_c, 2, 62, 111
4, 116398, Note_off_c, 2, 62, 80
4, 116400, Note_on_c, 2, 64, 111
4, 116616, Pitch_bend_c, 2, 7552
4, 116640, Pitch_bend_c, 2, 6784
4, 117058, Note_off_c, 2, 64, 80
4, 117060, Pitch_bend_c, 2, 8192
4, 117540, Pitch_bend_c, 2, 6784
4, 117540, Note_on_c, 2, 64, 111
4, 117570, Pitch_bend_c, 2, 7552
4, 117600, Pitch_bend_c, 2, 8192
4, 118078, Note_off_c, 2, 64, 80
4, 118080, Note_on_c, 2, 64, 111
4, 118558, Note_off_c, 2, 64, 80
4, 118560, Note_on_c, 2, 62, 111
4, 118798, Note_off_c, 2, 62, 80
4, 118800, Note_on_c, 2, 64, 111
4, 119278, Note_off_c, 2, 64, 80
4, 119280, Note_on_c, 2, 66, 111
4, 119758, Note_off_c, 2, 66, 80
4, 119760, Note_on_c, 2, 62, 111
4, 120478, Note_off_c, 2, 62, 80
4, 121440, Note_on_c, 2, 64, 111
4, 121918, Note_off_c, 2, 64, 80
4, 121920, Note_on_c, 2, 64, 111
4, 122398, Note_off_c, 2, 64, 80
4, 122400, Note_on_c, 2, 62, 111
4, 122638, Note_off_c, 2, 62, 80
4, 122640, Note_on_c, 2, 64, 111
4, 123118, Note_off_c, 2, 64, 80
4, 123120, Note_on_c, 2, 66, 111
4, 123598, Note_off_c, 2, 66, 80
4, 123600, Note_on_c, 2, 62, 111
4, 124078, Note_off_c, 2, 62, 80
4, 124080, Note_on_c, 2, 64, 111
4, 124296, Pitch_bend_c, 2, 7552
4, 124320, Pitch_bend_c, 2, 6784
4, 124798, Note_off_c, 2, 64, 80
4, 124800, Pitch_bend_c, 2, 8192
4, 125280, Note_on_c, 2, 64, 111
4, 125518, Note_off_c, 2, 64, 80
4, 125520, Note_on_c, 2, 64, 111
4, 126238, Note_off_c, 2, 64, 80
4, 126240, Note_on_c, 2, 64, 111
4, 126478, Note_off_c, 2, 64, 80
4, 126480, Note_on_c, 2, 64, 111
4, 126958, Note_off_c, 2, 64, 80
4, 126960, Note_on_c, 2, 62, 111
4, 128158, Note_off_c, 2, 62, 80
4, 129120, Note_on_c, 2, 64, 111
4, 129598, Note_off_c, 2, 64, 80
4, 129600, Note_on_c, 2, 64, 111
4, 130078, Note_off_c, 2, 64, 80
4, 130080, Note_on_c, 2, 62, 111
4, 130318, Note_off_c, 2, 62, 80
4, 130320, Note_on_c, 2, 64, 111
4, 130798, Note_off_c, 2, 64, 80
4, 130800, Note_on_c, 2, 66, 111
4, 131278, Note_off_c, 2, 66, 80
4, 131280, Note_on_c, 2, 62, 111
4, 131736, Pitch_bend_c, 2, 8832
4, 131760, Pitch_bend_c, 2, 9600
4, 131976, Pitch_bend_c, 2, 8960
4, 132000, Pitch_bend_c, 2, 8192
4, 132478, Note_off_c, 2, 62, 80
4, 132960, Note_on_c, 2, 64, 111
4, 133438, Note_off_c, 2, 64, 80
4, 133440, Note_on_c, 2, 64, 111
4, 133678, Note_off_c, 2, 64, 80
4, 133680, Note_on_c, 2, 64, 111
4, 134158, Note_off_c, 2, 64, 80
4, 134160, Note_on_c, 2, 64, 111
4, 134638, Note_off_c, 2, 64, 80
4, 134640, Note_on_c, 2, 62, 111
4, 135118, Note_off_c, 2, 62, 80
4, 135120, Note_on_c, 2, 62, 111
4, 135838, Note_off_c, 2, 62, 80
4, 136800, Note_on_c, 2, 64, 111
4, 137278, Note_off_c, 2, 64, 80
4, 137280, Note_on_c, 2, 64, 111
4, 137758, Note_off_c, 2, 64, 80
4, 137760, Note_on_c, 2, 64, 111
4, 137998, Note_off_c, 2, 64, 80
4, 138000, Note_on_c, 2, 64, 111
4, 138958, Note_off_c, 2, 64, 80
4, 138960, Note_on_c, 2, 62, 111
4, 139678, Note_off_c, 2, 62, 80
4, 139680, Note_on_c, 2, 62, 111
4, 140638, Note_off_c, 2, 62, 80
4, 170880, Control_c, 2, 7, 127
4, 171120, Note_on_c, 2, 64, 111
4, 171358, Note_off_c, 2, 64, 80
4, 171360, Note_on_c, 2, 64, 111
4, 171598, Note_off_c, 2, 64, 80
4, 171600, Note_on_c, 2, 64, 111
4, 171838, Note_off_c, 2, 64, 80
4, 171840, Note_on_c, 2, 64, 111
4, 172078, Note_off_c, 2, 64, 80
4, 172080, Note_on_c, 2, 64, 111
4, 172558, Note_off_c, 2, 64, 80
4, 172560, Note_on_c, 2, 64, 111
4, 173038, Note_off_c, 2, 64, 80
4, 173040, Note_on_c, 2, 62, 111
4, 173518, Note_off_c, 2, 62, 80
4, 173520, Note_on_c, 2, 62, 111
4, 174238, Note_off_c, 2, 62, 80
4, 175200, Note_on_c, 2, 64, 111
4, 175678, Note_off_c, 2, 64, 80
4, 175680, Note_on_c, 2, 64, 111
4, 176158, Note_off_c, 2, 64, 80
4, 176160, Note_on_c, 2, 62, 111
4, 176398, Note_off_c, 2, 62, 80
4, 176400, Note_on_c, 2, 64, 111
4, 176878, Note_off_c, 2, 64, 80
4, 176880, Note_on_c, 2, 66, 111
4, 177358, Note_off_c, 2, 66, 80
4, 177360, Note_on_c, 2, 62, 111
4, 177838, Note_off_c, 2, 62, 80
4, 177840, Note_on_c, 2, 64, 111
4, 178078, Note_off_c, 2, 64, 80
4, 178080, Note_on_c, 2, 62, 111
4, 178558, Note_off_c, 2, 62, 80
4, 179040, Note_on_c, 2, 64, 111
4, 179278, Note_off_c, 2, 64, 80
4, 179280, Note_on_c, 2, 64, 111
4, 179758, Note_off_c, 2, 64, 80
4, 179760, Note_on_c, 2, 62, 111
4, 180238, Note_off_c, 2, 62, 80
4, 180240, Note_on_c, 2, 64, 111
4, 180718, Note_off_c, 2, 64, 80
4, 180720, Note_on_c, 2, 66, 111
4, 181198, Note_off_c, 2, 66, 80
4, 181200, Note_on_c, 2, 62, 111
4, 182398, Note_off_c, 2, 62, 80
4, 182880, Note_on_c, 2, 76, 111
4, 183118, Note_off_c, 2, 76, 80
4, 183120, Note_on_c, 2, 76, 111
4, 183598, Note_off_c, 2, 76, 80
4, 183600, Note_on_c, 2, 76, 111
4, 184078, Note_off_c, 2, 76, 80
4, 184080, Note_on_c, 2, 76, 111
4, 185038, Note_off_c, 2, 76, 80
4, 185040, Note_on_c, 2, 74, 111
4, 185758, Note_off_c, 2, 74, 80
4, 185760, Note_on_c, 2, 74, 111
4, 186238, Note_off_c, 2, 74, 80
4, 186480, Note_on_c, 2, 76, 111
4, 186718, Note_off_c, 2, 76, 80
4, 186720, Note_on_c, 2, 76, 111
4, 186958, Note_off_c, 2, 76, 80
4, 186960, Note_on_c, 2, 76, 111
4, 187198, Note_off_c, 2, 76, 80
4, 187200, Note_on_c, 2, 76, 111
4, 187438, Note_off_c, 2, 76, 80
4, 187440, Note_on_c, 2, 76, 111
4, 187918, Note_off_c, 2, 76, 80
4, 187920, Note_on_c, 2, 76, 111
4, 188398, Note_off_c, 2, 76, 80
4, 188400, Note_on_c, 2, 74, 111
4, 188638, Note_off_c, 2, 74, 80
4, 188640, Note_on_c, 2, 74, 111
4, 189358, Note_off_c, 2, 74, 80
4, 190560, Note_on_c, 2, 76, 111
4, 191038, Note_off_c, 2, 76, 80
4, 191040, Note_on_c, 2, 76, 111
4, 191518, Note_off_c, 2, 76, 80
4, 191520, Note_on_c, 2, 74, 111
4, 191758, Note_off_c, 2, 74, 80
4, 191760, Note_on_c, 2, 76, 111
4, 192238, Note_off_c, 2, 76, 80
4, 192240, Note_on_c, 2, 78, 111
4, 192718, Note_off_c, 2, 78, 80
4, 192720, Note_on_c, 2, 74, 111
4, 193176, Pitch_bend_c, 2, 8832
4, 193198, Note_off_c, 2, 74, 80
4, 193200, Pitch_bend_c, 2, 8192
4, 193200, Note_on_c, 2, 76, 89
4, 193678, Note_off_c, 2, 76, 80
4, 194400, Note_on_c, 2, 76, 111
4, 194638, Note_off_c, 2, 76, 80
4, 194640, Note_on_c, 2, 76, 111
4, 194878, Note_off_c, 2, 76, 80
4, 194880, Note_on_c, 2, 76, 111
4, 195118, Note_off_c, 2, 76, 80
4, 195120, Note_on_c, 2, 76, 111
4, 195598, Note_off_c, 2, 76, 80
4, 195600, Note_on_c, 2, 76, 111
4, 196078, Note_off_c, 2, 76, 80
4, 196080, Note_on_c, 2, 78, 111
4, 196558, Note_off_c, 2, 78, 80
4, 196560, Note_on_c, 2, 74, 111
4, 197278, Note_off_c, 2, 74, 80
4, 198240, Note_on_c, 2, 76, 111
4, 198718, Note_off_c, 2, 76, 80
4, 198720, Note_on_c, 2, 76, 111
4, 198958, Note_off_c, 2, 76, 80
4, 198960, Note_on_c, 2, 76, 111
4, 199438, Note_off_c, 2, 76, 80
4, 199440, Note_on_c, 2, 76, 111
4, 199918, Note_off_c, 2, 76, 80
4, 199920, Note_on_c, 2, 78, 111
4, 200398, Note_off_c, 2, 78, 80
4, 200400, Note_on_c, 2, 74, 111
4, 200878, Note_off_c, 2, 74, 80
4, 200880, Note_on_c, 2, 74, 111
4, 201598, Note_off_c, 2, 74, 80
4, 202080, Note_on_c, 2, 76, 111
4, 202318, Note_off_c, 2, 76, 80
4, 202320, Note_on_c, 2, 76, 111
4, 203038, Note_off_c, 2, 76, 80
4, 203040, Note_on_c, 2, 74, 111
4, 203278, Note_off_c, 2, 74, 80
4, 203280, Note_on_c, 2, 76, 111
4, 203758, Note_off_c, 2, 76, 80
4, 203760, Note_on_c, 2, 78, 111
4, 204238, Note_off_c, 2, 78, 80
4, 204240, Note_on_c, 2, 74, 111
4, 205198, Note_off_c, 2, 74, 80
4, 205920, Note_on_c, 2, 76, 111
4, 206158, Note_off_c, 2, 76, 80
4, 206160, Note_on_c, 2, 76, 111
4, 206878, Note_off_c, 2, 76, 80
4, 206880, Note_on_c, 2, 74, 111
4, 207118, Note_off_c, 2, 74, 80
4, 207120, Note_on_c, 2, 76, 111
4, 207598, Note_off_c, 2, 76, 80
4, 207600, Note_on_c, 2, 78, 111
4, 208078, Note_off_c, 2, 78, 80
4, 208080, Note_on_c, 2, 74, 111
4, 208831, Pitch_bend_c, 2, 8320
4, 208855, Pitch_bend_c, 2, 8448
4, 208911, Pitch_bend_c, 2, 8320
4, 208935, Pitch_bend_c, 2, 8192
4, 208958, Pitch_bend_c, 2, 8064
4, 208982, Pitch_bend_c, 2, 7936
4, 209038, Note_off_c, 2, 74, 80
4, 209038, Pitch_bend_c, 2, 8064
4, 209040, Pitch_bend_c, 2, 8192
4, 209760, Note_on_c, 2, 76, 111
4, 210238, Note_off_c, 2, 76, 80
4, 210240, Note_on_c, 2, 76, 111
4, 210718, Note_off_c, 2, 76, 80
4, 210720, Note_on_c, 2, 74, 111
4, 210958, Note_off_c, 2, 74, 80
4, 210960, Note_on_c, 2, 76, 111
4, 211438, Note_off_c, 2, 76, 80
4, 211440, Note_on_c, 2, 78, 111
4, 211918, Note_off_c, 2, 78, 80
4, 211920, Note_on_c, 2, 74, 111
4, 212878, Note_off_c, 2, 74, 80
4, 213600, Note_on_c, 2, 76, 111
4, 213838, Note_off_c, 2, 76, 80
4, 213840, Note_on_c, 2, 76, 111
4, 214558, Note_off_c, 2, 76, 80
4, 214560, Note_on_c, 2, 74, 111
4, 214798, Note_off_c, 2, 74, 80
4, 214800, Note_on_c, 2, 76, 111
4, 215278, Note_off_c, 2, 76, 80
4, 215280, Note_on_c, 2, 78, 111
4, 215758, Note_off_c, 2, 78, 80
4, 215760, Note_on_c, 2, 74, 111
4, 216718, Note_off_c, 2, 74, 80
4, 217200, Note_on_c, 2, 76, 111
4, 217438, Note_off_c, 2, 76, 80
4, 217440, Note_on_c, 2, 76, 111
4, 217678, Note_off_c, 2, 76, 80
4, 217680, Note_on_c, 2, 76, 111
4, 217918, Note_off_c, 2, 76, 80
4, 217920, Note_on_c, 2, 76, 111
4, 218158, Note_off_c, 2, 76, 80
4, 218160, Note_on_c, 2, 76, 111
4, 218638, Note_off_c, 2, 76, 80
4, 218640, Note_on_c, 2, 76, 111
4, 219118, Note_off_c, 2, 76, 80
4, 219120, Note_on_c, 2, 74, 111
4, 219598, Note_off_c, 2, 74, 80
4, 219600, Note_on_c, 2, 74, 111
4, 220318, Note_off_c, 2, 74, 80
4, 221280, Note_on_c, 2, 76, 111
4, 221758, Note_off_c, 2, 76, 80
4, 221760, Note_on_c, 2, 76, 111
4, 222238, Note_off_c, 2, 76, 80
4, 222240, Note_on_c, 2, 74, 111
4, 222478, Note_off_c, 2, 74, 80
4, 222480, Note_on_c, 2, 76, 111
4, 222958, Note_off_c, 2, 76, 80
4, 222960, Note_on_c, 2, 78, 111
4, 223438, Note_off_c, 2, 78, 80
4, 223440, Note_on_c, 2, 74, 111
4, 223918, Note_off_c, 2, 74, 80
4, 223920, Note_on_c, 2, 76, 111
4, 224158, Note_off_c, 2, 76, 80
4, 224160, Note_on_c, 2, 74, 111
4, 224638, Note_off_c, 2, 74, 80
4, 225120, Note_on_c, 2, 76, 111
4, 225598, Note_off_c, 2, 76, 80
4, 225600, Note_on_c, 2, 76, 111
4, 225838, Note_off_c, 2, 76, 80
4, 225840, Note_on_c, 2, 76, 111
4, 226318, Note_off_c, 2, 76, 80
4, 226320, Note_on_c, 2, 76, 111
4, 226798, Note_off_c, 2, 76, 80
4, 226800, Note_on_c, 2, 78, 111
4, 227278, Note_off_c, 2, 78, 80
4, 227280, Note_on_c, 2, 74, 111
4, 227998, Note_off_c, 2, 74, 80
4, 228960, Note_on_c, 2, 76, 111
4, 229198, Note_off_c, 2, 76, 80
4, 229200, Note_on_c, 2, 76, 111
4, 229918, Note_off_c, 2, 76, 80
4, 229920, Note_on_c, 2, 76, 111
4, 230158, Note_off_c, 2, 76, 80
4, 230160, Note_on_c, 2, 76, 111
4, 231358, Note_off_c, 2, 76, 80
4, 231360, Note_on_c, 2, 74, 111
4, 232318, Note_off_c, 2, 74, 80
4, 232320, Note_on_c, 2, 74, 127
4, 233278, Note_off_c, 2, 74, 80
4, 233280, Note_on_c, 2, 74, 111
4, 234238, Note_off_c, 2, 74, 80
4, 234240, Note_on_c, 2, 74, 95
4, 235198, Note_off_c, 2, 74, 80
4, 235200, Note_on_c, 2, 74, 95
4, 236158, Note_off_c, 2, 74, 80
4, 236160, Note_on_c, 2, 74, 79
4, 237118, Note_off_c, 2, 74, 80
4, 237120, Note_on_c, 2, 74, 63
4, 238078, Note_off_c, 2, 74, 80
4, 238080, Note_on_c, 2, 74, 63
4, 239998, Note_off_c, 2, 74, 80
4, 255360, Note_on_c, 2, 76, 127
4, 255838, Note_off_c, 2, 76, 80
4, 255840, Note_on_c, 2, 78, 127
4, 256318, Note_off_c, 2, 78, 80
4, 256320, Note_on_c, 2, 78, 127
4, 256558, Note_off_c, 2, 78, 80
4, 256560, Note_on_c, 2, 78, 127
4, 257038, Note_off_c, 2, 78, 80
4, 257040, Note_on_c, 2, 76, 127
4, 257518, Note_off_c, 2, 76, 80
4, 257520, Note_on_c, 2, 78, 127
4, 257998, Note_off_c, 2, 78, 80
4, 258000, Note_on_c, 2, 78, 127
4, 258958, Note_off_c, 2, 78, 80
4, 259200, Note_on_c, 2, 76, 127
4, 259678, Note_off_c, 2, 76, 80
4, 259680, Note_on_c, 2, 78, 127
4, 260158, Note_off_c, 2, 78, 80
4, 260160, Note_on_c, 2, 78, 127
4, 260398, Note_off_c, 2, 78, 80
4, 260400, Note_on_c, 2, 78, 127
4, 260878, Note_off_c, 2, 78, 80
4, 260880, Note_on_c, 2, 81, 127
4, 261118, Note_off_c, 2, 81, 80
4, 261120, Note_on_c, 2, 83, 127
4, 261358, Note_off_c, 2, 83, 80
4, 261360, Note_on_c, 2, 81, 127
4, 261838, Note_off_c, 2, 81, 80
4, 261840, Note_on_c, 2, 78, 127
4, 262318, Note_off_c, 2, 78, 80
4, 262320, Note_on_c, 2, 76, 127
4, 262798, Note_off_c, 2, 76, 80
4, 262800, Note_on_c, 2, 76, 127
4, 263038, Note_off_c, 2, 76, 80
4, 263040, Note_on_c, 2, 76, 127
4, 263518, Note_off_c, 2, 76, 80
4, 263520, Note_on_c, 2, 78, 127
4, 263998, Note_off_c, 2, 78, 80
4, 264000, Note_on_c, 2, 78, 127
4, 264238, Note_off_c, 2, 78, 80
4, 264240, Note_on_c, 2, 78, 127
4, 264718, Note_off_c, 2, 78, 80
4, 264720, Note_on_c, 2, 76, 127
4, 265198, Note_off_c, 2, 76, 80
4, 265200, Note_on_c, 2, 78, 127
4, 265678, Note_off_c, 2, 78, 80
4, 265680, Note_on_c, 2, 78, 127
4, 266638, Note_off_c, 2, 78, 80
4, 266880, Note_on_c, 2, 76, 127
4, 267358, Note_off_c, 2, 76, 80
4, 267360, Note_on_c, 2, 78, 127
4, 267838, Note_off_c, 2, 78, 80
4, 267840, Note_on_c, 2, 78, 127
4, 268318, Note_off_c, 2, 78, 80
4, 268560, Note_on_c, 2, 83, 127
4, 269038, Note_off_c, 2, 83, 80
4, 269040, Note_on_c, 2, 81, 127
4, 269518, Note_off_c, 2, 81, 80
4, 269520, Note_on_c, 2, 78, 127
4, 269998, Note_off_c, 2, 78, 80
4, 270000, Note_on_c, 2, 76, 127
4, 270718, Note_off_c, 2, 76, 80
4, 270720, Note_on_c, 2, 76, 127
4, 271198, Note_off_c, 2, 76, 80
4, 271200, Note_on_c, 2, 74, 127
4, 272398, Note_off_c, 2, 74, 80
4, 272400, Note_on_c, 2, 74, 127
4, 273216, Pitch_bend_c, 2, 7552
4, 274558, Note_off_c, 2, 74, 80
4, 274560, Pitch_bend_c, 2, 8192
4, 274560, Note_on_c, 2, 76, 127
4, 275038, Note_off_c, 2, 76, 80
4, 275040, Note_on_c, 2, 74, 127
4, 276238, Note_off_c, 2, 74, 80
4, 276240, Note_on_c, 2, 74, 127
4, 277056, Pitch_bend_c, 2, 7552
4, 278398, Note_off_c, 2, 74, 80
4, 278400, Pitch_bend_c, 2, 8192
4, 278400, Note_on_c, 2, 76, 127
4, 278878, Note_off_c, 2, 76, 80
4, 278880, Note_on_c, 2, 78, 127
4, 279358, Note_off_c, 2, 78, 80
4, 279360, Note_on_c, 2, 78, 127
4, 279598, Note_off_c, 2, 78, 80
4, 279600, Note_on_c, 2, 78, 127
4, 280078, Note_off_c, 2, 78, 80
4, 280080, Note_on_c, 2, 76, 127
4, 280536, Pitch_bend_c, 2, 8832
4, 280560, Pitch_bend_c, 2, 9600
4, 281038, Note_off_c, 2, 76, 80
4, 281040, Pitch_bend_c, 2, 8192
4, 281040, Note_on_c, 2, 78, 127
4, 281998, Note_off_c, 2, 78, 80
4, 282240, Note_on_c, 2, 76, 127
4, 282718, Note_off_c, 2, 76, 80
4, 282720, Note_on_c, 2, 78, 127
4, 283198, Note_off_c, 2, 78, 80
4, 283200, Note_on_c, 2, 78, 127
4, 283438, Note_off_c, 2, 78, 80
4, 283440, Note_on_c, 2, 78, 127
4, 283918, Note_off_c, 2, 78, 80
4, 283920, Note_on_c, 2, 79, 127
4, 284352, Pitch_bend_c, 2, 7552
4, 284878, Note_off_c, 2, 79, 80
4, 284880, Pitch_bend_c, 2, 8192
4, 284880, Note_on_c, 2, 78, 127
4, 285358, Note_off_c, 2, 78, 80
4, 285360, Note_on_c, 2, 78, 127
4, 285598, Note_off_c, 2, 78, 80
4, 285600, Note_on_c, 2, 78, 127
4, 285838, Note_off_c, 2, 78, 80
4, 285840, Note_on_c, 2, 78, 127
4, 286078, Note_off_c, 2, 78, 80
4, 286080, Note_on_c, 2, 78, 127
4, 286498, Note_off_c, 2, 78, 80
4, 286500, Pitch_bend_c, 2, 6784
4, 286500, Note_on_c, 2, 78, 127
4, 286530, Pitch_bend_c, 2, 7552
4, 286560, Pitch_bend_c, 2, 8192
4, 286798, Note_off_c, 2, 78, 80
4, 286800, Note_on_c, 2, 78, 127
4, 287038, Note_off_c, 2, 78, 80
4, 287040, Note_on_c, 2, 78, 127
4, 287278, Note_off_c, 2, 78, 80
4, 287280, Note_on_c, 2, 78, 127
4, 287758, Note_off_c, 2, 78, 80
4, 287760, Note_on_c, 2, 76, 127
4, 288238, Note_off_c, 2, 76, 80
4, 288240, Note_on_c, 2, 78, 127
4, 288718, Note_off_c, 2, 78, 80
4, 288720, Note_on_c, 2, 78, 127
4, 289678, Note_off_c, 2, 78, 80
4, 289680, Note_on_c, 2, 76, 127
4, 289918, Note_off_c, 2, 76, 80
4, 289920, Note_on_c, 2, 78, 127
4, 290338, Note_off_c, 2, 78, 80
4, 290340, Pitch_bend_c, 2, 6784
4, 290340, Note_on_c, 2, 78, 127
4, 290370, Pitch_bend_c, 2, 7552
4, 290400, Pitch_bend_c, 2, 8192
4, 290638, Note_off_c, 2, 78, 80
4, 290640, Note_on_c, 2, 78, 127
4, 290878, Note_off_c, 2, 78, 80
4, 290880, Note_on_c, 2, 78, 127
4, 291118, Note_off_c, 2, 78, 80
4, 291120, Note_on_c, 2, 78, 127
4, 291598, Note_off_c, 2, 78, 80
4, 291600, Note_on_c, 2, 83, 127
4, 292078, Note_off_c, 2, 83, 80
4, 292080, Note_on_c, 2, 81, 127
4, 292558, Note_off_c, 2, 81, 80
4, 292560, Note_on_c, 2, 78, 127
4, 292992, Pitch_bend_c, 2, 7552
4, 293040, Pitch_bend_c, 2, 6784
4, 293568, Pitch_bend_c, 2, 6656
4, 293608, Pitch_bend_c, 2, 6784
4, 293695, Pitch_bend_c, 2, 6912
4, 293735, Pitch_bend_c, 2, 6784
4, 293758, Note_off_c, 2, 78, 80
4, 293760, Pitch_bend_c, 2, 8192
4, 293760, Note_on_c, 2, 76, 127
4, 294238, Note_off_c, 2, 76, 80
4, 294240, Note_on_c, 2, 74, 127
4, 295438, Note_off_c, 2, 74, 80
4, 295440, Note_on_c, 2, 74, 127
4, 296328, Pitch_bend_c, 2, 8832
4, 296400, Pitch_bend_c, 2, 9600
4, 297598, Note_off_c, 2, 74, 80
4, 297600, Pitch_bend_c, 2, 8192
4, 297600, Note_on_c, 2, 76, 127
4, 298078, Note_off_c, 2, 76, 80
4, 298080, Note_on_c, 2, 74, 127
4, 299278, Note_off_c, 2, 74, 80
4, 299280, Note_on_c, 2, 74, 127
4, 300432, Pitch_bend_c, 2, 7552
4, 300958, Note_off_c, 2, 74, 80
4, 300960, Pitch_bend_c, 2, 8192
4, 300960, Note_on_c, 2, 69, 127
4, 301320, Pitch_bend_c, 2, 8832
4, 301350, Pitch_bend_c, 2, 9600
4, 301380, Pitch_bend_c, 2, 10240
4, 301410, Pitch_bend_c, 2, 10880
4, 301440, Pitch_bend_c, 2, 11648
4, 302256, Pitch_bend_c, 2, 11008
4, 302328, Pitch_bend_c, 2, 10240
4, 302398, Note_off_c, 2, 69, 80
4, 302400, Pitch_bend_c, 2, 8192
4, 302400, Note_on_c, 2, 71, 102
4, 308638, Note_off_c, 2, 71, 80
4, 308640, Note_on_c, 2, 69, 127
4, 309000, Pitch_bend_c, 2, 8832
4, 309030, Pitch_bend_c, 2, 9600
4, 309060, Pitch_bend_c, 2, 10240
4, 309090, Pitch_bend_c, 2, 10880
4, 309120, Pitch_bend_c, 2, 11648
4, 309768, Pitch_bend_c, 2, 12288
4, 309840, Pitch_bend_c, 2, 13056
4, 310020, Pitch_bend_c, 2, 12416
4, 310035, Pitch_bend_c, 2, 11648
4, 310050, Pitch_bend_c, 2, 11008
4, 310065, Pitch_bend_c, 2, 10368
4, 310080, Pitch_bend_c, 2, 9600
4, 312958, Note_off_c, 2, 69, 80
4, 312958, End_track
5, 0, Start_track
5, 0, Title_t, "J. Greenwood"
5, 420, Control_c, 3, 121, 0
5, 420, Control_c, 3, 123, 0
5, 420, Control_c, 3, 100, 0
5, 420, Control_c, 3, 38, 0
5, 420, Control_c, 3, 101, 0
5, 420, Control_c, 3, 6, 12
5, 420, Pitch_bend_c, 3, 8192
5, 480, Program_c, 3, 16
5, 480, Control_c, 3, 7, 80
5, 480, Control_c, 3, 10, 36
5, 47520, Note_on_c, 3, 69, 89
5, 47880, Pitch_bend_c, 3, 8832
5, 47910, Pitch_bend_c, 3, 9600
5, 47940, Pitch_bend_c, 3, 10240
5, 47970, Pitch_bend_c, 3, 10880
5, 48000, Pitch_bend_c, 3, 11648
5, 48816, Pitch_bend_c, 3, 11008
5, 48888, Pitch_bend_c, 3, 10240
5, 48958, Note_off_c, 3, 69, 80
5, 48960, Pitch_bend_c, 3, 8192
5, 48960, Note_on_c, 3, 71, 70
5, 55198, Note_off_c, 3, 71, 80
5, 55200, Note_on_c, 3, 69, 89
5, 55560, Pitch_bend_c, 3, 8832
5, 55590, Pitch_bend_c, 3, 9600
5, 55620, Pitch_bend_c, 3, 10240
5, 55650, Pitch_bend_c, 3, 10880
5, 55680, Pitch_bend_c, 3, 11648
5, 56328, Pitch_bend_c, 3, 12288
5, 56400, Pitch_bend_c, 3, 13056
5, 56580, Pitch_bend_c, 3, 12416
5, 56595, Pitch_bend_c, 3, 11648
5, 56610, Pitch_bend_c, 3, 11008
5, 56625, Pitch_bend_c, 3, 10368
5, 56640, Pitch_bend_c, 3, 9600
5, 62878, Note_off_c, 3, 69, 80
5, 62880, Pitch_bend_c, 3, 8192
5, 62880, Note_on_c, 3, 69, 89
5, 63240, Pitch_bend_c, 3, 8832
5, 63270, Pitch_bend_c, 3, 9600
5, 63300, Pitch_bend_c, 3, 10240
5, 63330, Pitch_bend_c, 3, 10880
5, 63360, Pitch_bend_c, 3, 11648
5, 64128, Pitch_bend_c, 3, 11008
5, 64318, Note_off_c, 3, 69, 80
5, 64320, Pitch_bend_c, 3, 8192
5, 64320, Note_on_c, 3, 73, 70
5, 65038, Note_off_c, 3, 73, 80
5, 65040, Note_on_c, 3, 73, 89
5, 65472, Pitch_bend_c, 3, 8832
5, 65518, Note_off_c, 3, 73, 80
5, 65520, Pitch_bend_c, 3, 8192
5, 65520, Note_on_c, 3, 74, 70
5, 65724, Pitch_bend_c, 3, 7552
5, 65742, Pitch_bend_c, 3, 6784
5, 65758, Note_off_c, 3, 74, 80
5, 65760, Pitch_bend_c, 3, 8192
5, 65760, Note_on_c, 3, 71, 70
5, 70558, Note_off_c, 3, 71, 80
5, 70560, Note_on_c, 3, 69, 89
5, 70872, Pitch_bend_c, 3, 8832
5, 70900, Pitch_bend_c, 3, 9600
5, 70928, Pitch_bend_c, 3, 10240
5, 70956, Pitch_bend_c, 3, 10880
5, 70984, Pitch_bend_c, 3, 11648
5, 71012, Pitch_bend_c, 3, 12288
5, 71040, Pitch_bend_c, 3, 12928
5, 71904, Pitch_bend_c, 3, 12288
5, 71998, Note_off_c, 3, 69, 80
5, 72000, Pitch_bend_c, 3, 8192
5, 72000, Note_on_c, 3, 74, 70
5, 72576, Pitch_bend_c, 3, 7552
5, 72718, Note_off_c, 3, 74, 80
5, 72720, Pitch_bend_c, 3, 8192
5, 72720, Note_on_c, 3, 73, 70
5, 73152, Pitch_bend_c, 3, 8832
5, 73198, Note_off_c, 3, 73, 80
5, 73200, Pitch_bend_c, 3, 8192
5, 73200, Note_on_c, 3, 74, 70
5, 73404, Pitch_bend_c, 3, 7552
5, 73422, Pitch_bend_c, 3, 6784
5, 73438, Note_off_c, 3, 74, 80
5, 73440, Pitch_bend_c, 3, 8192
5, 73440, Note_on_c, 3, 71, 70
5, 78238, Note_off_c, 3, 71, 80
5, 78240, Note_on_c, 3, 69, 89
5, 78600, Pitch_bend_c, 3, 8832
5, 78630, Pitch_bend_c, 3, 9600
5, 78660, Pitch_bend_c, 3, 10240
5, 78690, Pitch_bend_c, 3, 10880
5, 78720, Pitch_bend_c, 3, 11648
5, 79536, Pitch_bend_c, 3, 11008
5, 79608, Pitch_bend_c, 3, 10240
5, 79678, Note_off_c, 3, 69, 80
5, 79680, Pitch_bend_c, 3, 8192
5, 79680, Note_on_c, 3, 71, 70
5, 85918, Note_off_c, 3, 71, 80
5, 85920, Note_on_c, 3, 69, 89
5, 86280, Pitch_bend_c, 3, 8832
5, 86310, Pitch_bend_c, 3, 9600
5, 86340, Pitch_bend_c, 3, 10240
5, 86370, Pitch_bend_c, 3, 10880
5, 86400, Pitch_bend_c, 3, 11648
5, 87048, Pitch_bend_c, 3, 12288
5, 87120, Pitch_bend_c, 3, 13056
5, 87300, Pitch_bend_c, 3, 12416
5, 87315, Pitch_bend_c, 3, 11648
5, 87330, Pitch_bend_c, 3, 11008
5, 87345, Pitch_bend_c, 3, 10368
5, 87360, Pitch_bend_c, 3, 9600
5, 93598, Note_off_c, 3, 69, 80
5, 93600, Pitch_bend_c, 3, 8192
5, 93600, Note_on_c, 3, 69, 89
5, 93960, Pitch_bend_c, 3, 8832
5, 93990, Pitch_bend_c, 3, 9600
5, 94020, Pitch_bend_c, 3, 10240
5, 94050, Pitch_bend_c, 3, 10880
5, 94080, Pitch_bend_c, 3, 11648
5, 94848, Pitch_bend_c, 3, 11008
5, 95038, Note_off_c, 3, 69, 80
5, 95040, Pitch_bend_c, 3, 8192
5, 95040, Note_on_c, 3, 73, 70
5, 95758, Note_off_c, 3, 73, 80
5, 95760, Note_on_c, 3, 73, 89
5, 96192, Pitch_bend_c, 3, 8832
5, 96238, Note_off_c, 3, 73, 80
5, 96240, Pitch_bend_c, 3, 8192
5, 96240, Note_on_c, 3, 74, 70
5, 96478, Note_off_c, 3, 74, 80
5, 96480, Note_on_c, 3, 71, 89
5, 101278, Note_off_c, 3, 71, 80
5, 101280, Note_on_c, 3, 69, 89
5, 101592, Pitch_bend_c, 3, 8832
5, 101620, Pitch_bend_c, 3, 9600
5, 101648, Pitch_bend_c, 3, 10240
5, 101676, Pitch_bend_c, 3, 10880
5, 101704, Pitch_bend_c, 3, 11648
5, 101732, Pitch_bend_c, 3, 12288
5, 101760, Pitch_bend_c, 3, 12928
5, 102624, Pitch_bend_c, 3, 12288
5, 102718, Note_off_c, 3, 69, 80
5, 102720, Pitch_bend_c, 3, 8192
5, 102720, Note_on_c, 3, 74, 70
5, 103296, Pitch_bend_c, 3, 7552
5, 103438, Note_off_c, 3, 74, 80
5, 103440, Pitch_bend_c, 3, 8192
5, 103440, Note_on_c, 3, 73, 70
5, 103872, Pitch_bend_c, 3, 8832
5, 103918, Note_off_c, 3, 73, 80
5, 103920, Pitch_bend_c, 3, 8192
5, 103920, Note_on_c, 3, 74, 70
5, 104124, Pitch_bend_c, 3, 7552
5, 104142, Pitch_bend_c, 3, 6784
5, 104158, Note_off_c, 3, 74, 80
5, 104160, Pitch_bend_c, 3, 8192
5, 104160, Note_on_c, 3, 71, 70
5, 109438, Note_off_c, 3, 71, 80
5, 109440, Note_on_c, 3, 74, 89
5, 110256, Pitch_bend_c, 3, 7552
5, 110328, Pitch_bend_c, 3, 6784
5, 110398, Note_off_c, 3, 74, 80
5, 110400, Pitch_bend_c, 3, 8192
5, 110400, Note_on_c, 3, 71, 70
5, 116638, Note_off_c, 3, 71, 80
5, 116640, Note_on_c, 3, 69, 89
5, 117000, Pitch_bend_c, 3, 8832
5, 117030, Pitch_bend_c, 3, 9600
5, 117060, Pitch_bend_c, 3, 10240
5, 117090, Pitch_bend_c, 3, 10880
5, 117120, Pitch_bend_c, 3, 11648
5, 117768, Pitch_bend_c, 3, 12288
5, 117840, Pitch_bend_c, 3, 13056
5, 118020, Pitch_bend_c, 3, 12416
5, 118035, Pitch_bend_c, 3, 11648
5, 118050, Pitch_bend_c, 3, 11008
5, 118065, Pitch_bend_c, 3, 10368
5, 118080, Pitch_bend_c, 3, 9600
5, 124318, Note_off_c, 3, 69, 80
5, 124320, Pitch_bend_c, 3, 8192
5, 124320, Note_on_c, 3, 69, 89
5, 124680, Pitch_bend_c, 3, 8832
5, 124710, Pitch_bend_c, 3, 9600
5, 124740, Pitch_bend_c, 3, 10240
5, 124770, Pitch_bend_c, 3, 10880
5, 124800, Pitch_bend_c, 3, 11648
5, 125568, Pitch_bend_c, 3, 11008
5, 125758, Note_off_c, 3, 69, 80
5, 125760, Pitch_bend_c, 3, 8192
5, 125760, Note_on_c, 3, 73, 70
5, 126478, Note_off_c, 3, 73, 80
5, 126480, Note_on_c, 3, 73, 89
5, 126912, Pitch_bend_c, 3, 8832
5, 127164, Pitch_bend_c, 3, 8192
5, 127182, Pitch_bend_c, 3, 7424
5, 127198, Note_off_c, 3, 73, 80
5, 127200, Pitch_bend_c, 3, 8192
5, 127200, Note_on_c, 3, 71, 70
5, 131998, Note_off_c, 3, 71, 80
5, 132000, Note_on_c, 3, 69, 89
5, 132312, Pitch_bend_c, 3, 8832
5, 132340, Pitch_bend_c, 3, 9600
5, 132368, Pitch_bend_c, 3, 10240
5, 132396, Pitch_bend_c, 3, 10880
5, 132424, Pitch_bend_c, 3, 11648
5, 132452, Pitch_bend_c, 3, 12288
5, 132480, Pitch_bend_c, 3, 12928
5, 133344, Pitch_bend_c, 3, 12288
5, 133438, Note_off_c, 3, 69, 80
5, 133440, Pitch_bend_c, 3, 8192
5, 133440, Note_on_c, 3, 74, 70
5, 134016, Pitch_bend_c, 3, 7552
5, 134158, Note_off_c, 3, 74, 80
5, 134160, Pitch_bend_c, 3, 8192
5, 134160, Note_on_c, 3, 73, 70
5, 134592, Pitch_bend_c, 3, 8832
5, 134844, Pitch_bend_c, 3, 8192
5, 134862, Pitch_bend_c, 3, 7424
5, 134878, Note_off_c, 3, 73, 80
5, 134880, Pitch_bend_c, 3, 8192
5, 134880, Note_on_c, 3, 71, 70
5, 140158, Note_off_c, 3, 71, 80
5, 170880, Note_on_c, 3, 74, 89
5, 171696, Pitch_bend_c, 3, 7552
5, 171768, Pitch_bend_c, 3, 6784
5, 171838, Note_off_c, 3, 74, 80
5, 171840, Pitch_bend_c, 3, 8192
5, 171840, Note_on_c, 3, 71, 70
5, 178078, Note_off_c, 3, 71, 80
5, 178080, Note_on_c, 3, 69, 89
5, 178440, Pitch_bend_c, 3, 8832
5, 178470, Pitch_bend_c, 3, 9600
5, 178500, Pitch_bend_c, 3, 10240
5, 178530, Pitch_bend_c, 3, 10880
5, 178560, Pitch_bend_c, 3, 11648
5, 179208, Pitch_bend_c, 3, 12288
5, 179280, Pitch_bend_c, 3, 13056
5, 179460, Pitch_bend_c, 3, 12416
5, 179475, Pitch_bend_c, 3, 11648
5, 179490, Pitch_bend_c, 3, 11008
5, 179505, Pitch_bend_c, 3, 10368
5, 179520, Pitch_bend_c, 3, 9600
5, 185758, Note_off_c, 3, 69, 80
5, 185760, Pitch_bend_c, 3, 8192
5, 185760, Note_on_c, 3, 69, 89
5, 186120, Pitch_bend_c, 3, 8832
5, 186150, Pitch_bend_c, 3, 9600
5, 186180, Pitch_bend_c, 3, 10240
5, 186210, Pitch_bend_c, 3, 10880
5, 186240, Pitch_bend_c, 3, 11648
5, 187008, Pitch_bend_c, 3, 11008
5, 187198, Note_off_c, 3, 69, 80
5, 187200, Pitch_bend_c, 3, 8192
5, 187200, Note_on_c, 3, 73, 70
5, 187918, Note_off_c, 3, 73, 80
5, 187920, Note_on_c, 3, 73, 89
5, 188352, Pitch_bend_c, 3, 8832
5, 188398, Note_off_c, 3, 73, 80
5, 188400, Pitch_bend_c, 3, 8192
5, 188400, Note_on_c, 3, 74, 70
5, 188638, Note_off_c, 3, 74, 80
5, 188640, Note_on_c, 3, 71, 89
5, 193438, Note_off_c, 3, 71, 80
5, 193440, Note_on_c, 3, 69, 89
5, 193752, Pitch_bend_c, 3, 8832
5, 193780, Pitch_bend_c, 3, 9600
5, 193808, Pitch_bend_c, 3, 10240
5, 193836, Pitch_bend_c, 3, 10880
5, 193864, Pitch_bend_c, 3, 11648
5, 193892, Pitch_bend_c, 3, 12288
5, 193920, Pitch_bend_c, 3, 12928
5, 194784, Pitch_bend_c, 3, 12288
5, 194878, Note_off_c, 3, 69, 80
5, 194880, Pitch_bend_c, 3, 8192
5, 194880, Note_on_c, 3, 74, 70
5, 195456, Pitch_bend_c, 3, 7552
5, 195598, Note_off_c, 3, 74, 80
5, 195600, Pitch_bend_c, 3, 8192
5, 195600, Note_on_c, 3, 73, 70
5, 196032, Pitch_bend_c, 3, 8832
5, 196078, Note_off_c, 3, 73, 80
5, 196080, Pitch_bend_c, 3, 8192
5, 196080, Note_on_c, 3, 74, 70
5, 196284, Pitch_bend_c, 3, 7552
5, 196302, Pitch_bend_c, 3, 6784
5, 196318, Note_off_c, 3, 74, 80
5, 196320, Pitch_bend_c, 3, 8192
5, 196320, Note_on_c, 3, 71, 70
5, 201598, Note_off_c, 3, 71, 80
5, 201600, Note_on_c, 3, 74, 89
5, 202416, Pitch_bend_c, 3, 7552
5, 202488, Pitch_bend_c, 3, 6784
5, 202558, Note_off_c, 3, 74, 80
5, 202560, Pitch_bend_c, 3, 8192
5, 202560, Note_on_c, 3, 71, 70
5, 208798, Note_off_c, 3, 71, 80
5, 208800, Note_on_c, 3, 69, 89
5, 209160, Pitch_bend_c, 3, 8832
5, 209190, Pitch_bend_c, 3, 9600
5, 209220, Pitch_bend_c, 3, 10240
5, 209250, Pitch_bend_c, 3, 10880
5, 209280, Pitch_bend_c, 3, 11648
5, 209928, Pitch_bend_c, 3, 12288
5, 210000, Pitch_bend_c, 3, 13056
5, 210180, Pitch_bend_c, 3, 12416
5, 210195, Pitch_bend_c, 3, 11648
5, 210210, Pitch_bend_c, 3, 11008
5, 210225, Pitch_bend_c, 3, 10368
5, 210240, Pitch_bend_c, 3, 9600
5, 216478, Note_off_c, 3, 69, 80
5, 216480, Pitch_bend_c, 3, 8192
5, 216480, Note_on_c, 3, 69, 89
5, 216840, Pitch_bend_c, 3, 8832
5, 216870, Pitch_bend_c, 3, 9600
5, 216900, Pitch_bend_c, 3, 10240
5, 216930, Pitch_bend_c, 3, 10880
5, 216960, Pitch_bend_c, 3, 11648
5, 217728, Pitch_bend_c, 3, 11008
5, 217918, Note_off_c, 3, 69, 80
5, 217920, Pitch_bend_c, 3, 8192
5, 217920, Note_on_c, 3, 73, 70
5, 218638, Note_off_c, 3, 73, 80
5, 218640, Note_on_c, 3, 73, 89
5, 219072, Pitch_bend_c, 3, 8832
5, 219118, Note_off_c, 3, 73, 80
5, 219120, Pitch_bend_c, 3, 8192
5, 219120, Note_on_c, 3, 74, 70
5, 219358, Note_off_c, 3, 74, 80
5, 219360, Note_on_c, 3, 71, 89
5, 224158, Note_off_c, 3, 71, 80
5, 224160, Note_on_c, 3, 69, 89
5, 224472, Pitch_bend_c, 3, 8832
5, 224500, Pitch_bend_c, 3, 9600
5, 224528, Pitch_bend_c, 3, 10240
5, 224556, Pitch_bend_c, 3, 10880
5, 224584, Pitch_bend_c, 3, 11648
5, 224612, Pitch_bend_c, 3, 12288
5, 224640, Pitch_bend_c, 3, 12928
5, 225504, Pitch_bend_c, 3, 12288
5, 225598, Note_off_c, 3, 69, 80
5, 225600, Pitch_bend_c, 3, 8192
5, 225600, Note_on_c, 3, 74, 70
5, 226176, Pitch_bend_c, 3, 7552
5, 226318, Note_off_c, 3, 74, 80
5, 226320, Pitch_bend_c, 3, 8192
5, 226320, Note_on_c, 3, 73, 70
5, 226752, Pitch_bend_c, 3, 8832
5, 226798, Note_off_c, 3, 73, 80
5, 226800, Pitch_bend_c, 3, 8192
5, 226800, Note_on_c, 3, 74, 70
5, 227004, Pitch_bend_c, 3, 7552
5, 227022, Pitch_bend_c, 3, 6784
5, 227038, Note_off_c, 3, 74, 80
5, 227040, Pitch_bend_c, 3, 8192
5, 227040, Note_on_c, 3, 71, 70
5, 232318, Note_off_c, 3, 71, 80
5, 255360, Note_on_c, 3, 59, 105
5, 255360, Note_on_c, 3, 71, 105
5, 255360, Note_on_c, 3, 83, 105
5, 263038, Note_off_c, 3, 59, 80
5, 263038, Note_off_c, 3, 71, 80
5, 263038, Note_off_c, 3, 83, 80
5, 263040, Note_on_c, 3, 61, 105
5, 263040, Note_on_c, 3, 73, 105
5, 263040, Note_on_c, 3, 85, 105
5, 270718, Note_off_c, 3, 61, 80
5, 270718, Note_off_c, 3, 73, 80
5, 270718, Note_off_c, 3, 85, 80
5, 270720, Note_on_c, 3, 62, 105
5, 270720, Note_on_c, 3, 74, 105
5, 270720, Note_on_c, 3, 86, 105
5, 271920, Pitch_bend_c, 3, 7552
5, 271947, Pitch_bend_c, 3, 6784
5, 271973, Pitch_bend_c, 3, 6144
5, 272000, Pitch_bend_c, 3, 5504
5, 272027, Pitch_bend_c, 3, 4736
5, 272053, Pitch_bend_c, 3, 4096
5, 272080, Pitch_bend_c, 3, 3456
5, 272107, Pitch_bend_c, 3, 2688
5, 272112, Pitch_bend_c, 3, 8832
5, 272133, Pitch_bend_c, 3, 2048
5, 272158, Note_off_c, 3, 74, 80
5, 272160, Pitch_bend_c, 3, 1408
5, 272160, Pitch_bend_c, 3, 9600
5, 272160, Note_on_c, 3, 76, 105
5, 272638, Note_off_c, 3, 62, 80
5, 272638, Note_off_c, 3, 86, 80
5, 272638, Note_off_c, 3, 76, 80
5, 272640, Pitch_bend_c, 3, 8192
5, 272640, Note_on_c, 3, 64, 105
5, 272640, Note_on_c, 3, 76, 105
5, 272904, Pitch_bend_c, 3, 8832
5, 272931, Pitch_bend_c, 3, 9600
5, 272958, Pitch_bend_c, 3, 10240
5, 272985, Pitch_bend_c, 3, 10880
5, 273012, Pitch_bend_c, 3, 11648
5, 273039, Pitch_bend_c, 3, 12288
5, 273048, Pitch_bend_c, 3, 7552
5, 273066, Pitch_bend_c, 3, 12928
5, 273084, Pitch_bend_c, 3, 6784
5, 273093, Pitch_bend_c, 3, 13696
5, 273120, Pitch_bend_c, 3, 8192
5, 273120, Pitch_bend_c, 3, 6144
5, 273120, Note_on_c, 3, 85, 83
5, 274078, Note_off_c, 3, 64, 80
5, 274078, Note_off_c, 3, 76, 80
5, 274078, Note_off_c, 3, 85, 80
5, 274080, Pitch_bend_c, 3, 8192
5, 274080, Note_on_c, 3, 61, 105
5, 274080, Note_on_c, 3, 73, 105
5, 274080, Note_on_c, 3, 85, 105
5, 274200, Pitch_bend_c, 3, 7552
5, 274251, Pitch_bend_c, 3, 6784
5, 274303, Pitch_bend_c, 3, 6144
5, 274354, Pitch_bend_c, 3, 5504
5, 274406, Pitch_bend_c, 3, 4736
5, 274457, Pitch_bend_c, 3, 4096
5, 274509, Pitch_bend_c, 3, 3456
5, 274558, Note_off_c, 3, 61, 80
5, 274558, Note_off_c, 3, 73, 80
5, 274558, Note_off_c, 3, 85, 80
5, 274560, Pitch_bend_c, 3, 8192
5, 274560, Note_on_c, 3, 66, 105
5, 274560, Note_on_c, 3, 78, 105
5, 276432, Pitch_bend_c, 3, 7552
5, 276480, Pitch_bend_c, 3, 6784
5, 278280, Pitch_bend_c, 3, 6144
5, 278280, Note_on_c, 3, 71, 105
5, 278320, Pitch_bend_c, 3, 6784
5, 278360, Pitch_bend_c, 3, 7552
5, 278398, Note_off_c, 3, 66, 80
5, 278398, Note_off_c, 3, 78, 80
5, 278400, Pitch_bend_c, 3, 8192
5, 278400, Note_on_c, 3, 59, 105
5, 278400, Note_on_c, 3, 83, 105
5, 285960, Pitch_bend_c, 3, 6144
5, 285960, Note_on_c, 3, 73, 105
5, 286000, Pitch_bend_c, 3, 6784
5, 286040, Pitch_bend_c, 3, 7552
5, 286078, Note_off_c, 3, 71, 80
5, 286078, Note_off_c, 3, 59, 80
5, 286078, Note_off_c, 3, 83, 80
5, 286080, Pitch_bend_c, 3, 8192
5, 286080, Note_on_c, 3, 61, 105
5, 286080, Note_on_c, 3, 85, 105
5, 293758, Note_off_c, 3, 73, 80
5, 293758, Note_off_c, 3, 61, 80
5, 293758, Note_off_c, 3, 85, 80
5, 293760, Note_on_c, 3, 62, 105
5, 293760, Note_on_c, 3, 74, 105
5, 293760, Note_on_c, 3, 86, 105
5, 294480, Pitch_bend_c, 3, 7552
5, 294560, Pitch_bend_c, 3, 6784
5, 294640, Pitch_bend_c, 3, 6144
5, 294720, Pitch_bend_c, 3, 5504
5, 294800, Pitch_bend_c, 3, 4736
5, 294880, Pitch_bend_c, 3, 4096
5, 294960, Pitch_bend_c, 3, 3456
5, 295040, Pitch_bend_c, 3, 2688
5, 295056, Pitch_bend_c, 3, 8832
5, 295120, Pitch_bend_c, 3, 2048
5, 295198, Note_off_c, 3, 74, 80
5, 295200, Pitch_bend_c, 3, 1408
5, 295200, Pitch_bend_c, 3, 9600
5, 295200, Note_on_c, 3, 76, 105
5, 295678, Note_off_c, 3, 62, 80
5, 295678, Note_off_c, 3, 86, 80
5, 295678, Note_off_c, 3, 76, 80
5, 295680, Pitch_bend_c, 3, 8192
5, 295680, Note_on_c, 3, 64, 105
5, 295680, Note_on_c, 3, 76, 105
5, 295944, Pitch_bend_c, 3, 8832
5, 295971, Pitch_bend_c, 3, 9600
5, 295998, Pitch_bend_c, 3, 10240
5, 296025, Pitch_bend_c, 3, 10880
5, 296052, Pitch_bend_c, 3, 11648
5, 296079, Pitch_bend_c, 3, 12288
5, 296088, Pitch_bend_c, 3, 7552
5, 296106, Pitch_bend_c, 3, 12928
5, 296124, Pitch_bend_c, 3, 6784
5, 296133, Pitch_bend_c, 3, 13696
5, 296160, Pitch_bend_c, 3, 8192
5, 296160, Pitch_bend_c, 3, 6144
5, 296160, Note_on_c, 3, 85, 83
5, 297118, Note_off_c, 3, 64, 80
5, 297118, Note_off_c, 3, 76, 80
5, 297118, Note_off_c, 3, 85, 80
5, 297120, Pitch_bend_c, 3, 8192
5, 297120, Note_on_c, 3, 61, 105
5, 297120, Note_on_c, 3, 73, 105
5, 297120, Note_on_c, 3, 85, 105
5, 297240, Pitch_bend_c, 3, 7552
5, 297291, Pitch_bend_c, 3, 6784
5, 297343, Pitch_bend_c, 3, 6144
5, 297394, Pitch_bend_c, 3, 5504
5, 297446, Pitch_bend_c, 3, 4736
5, 297497, Pitch_bend_c, 3, 4096
5, 297549, Pitch_bend_c, 3, 3456
5, 297598, Note_off_c, 3, 61, 80
5, 297598, Note_off_c, 3, 73, 80
5, 297598, Note_off_c, 3, 85, 80
5, 297600, Pitch_bend_c, 3, 8192
5, 297600, Note_on_c, 3, 66, 105
5, 297600, Note_on_c, 3, 78, 105
5, 299328, Pitch_bend_c, 3, 7552
5, 299520, Pitch_bend_c, 3, 6784
5, 300958, Note_off_c, 3, 78, 80
5, 300960, Pitch_bend_c, 3, 8192
5, 300960, Note_on_c, 3, 69, 89
5, 301320, Pitch_bend_c, 3, 8832
5, 301350, Pitch_bend_c, 3, 9600
5, 301380, Pitch_bend_c, 3, 10240
5, 301410, Pitch_bend_c, 3, 10880
5, 301438, Note_off_c, 3, 66, 80
5, 301440, Pitch_bend_c, 3, 8192
5, 301440, Pitch_bend_c, 3, 11648
5, 302256, Pitch_bend_c, 3, 11008
5, 302328, Pitch_bend_c, 3, 10240
5, 302400, Pitch_bend_c, 3, 9600
5, 308638, Note_off_c, 3, 69, 80
5, 308640, Pitch_bend_c, 3, 8192
5, 308640, Note_on_c, 3, 69, 89
5, 309000, Pitch_bend_c, 3, 8832
5, 309030, Pitch_bend_c, 3, 9600
5, 309060, Pitch_bend_c, 3, 10240
5, 309090, Pitch_bend_c, 3, 10880
5, 309120, Pitch_bend_c, 3, 11648
5, 309768, Pitch_bend_c, 3, 12288
5, 309840, Pitch_bend_c, 3, 13056
5, 310020, Pitch_bend_c, 3, 12416
5, 310035, Pitch_bend_c, 3, 11648
5, 310050, Pitch_bend_c, 3, 11008
5, 310065, Pitch_bend_c, 3, 10368
5, 310080, Pitch_bend_c, 3, 9600
5, 320638, Note_off_c, 3, 69, 80
5, 320638, End_track
6, 0, Start_track
6, 0, Title_t, "J. Greenwood"
6, 540, Control_c, 4, 121, 0
6, 540, Control_c, 4, 123, 0
6, 540, Control_c, 4, 100, 0
6, 540, Control_c, 4, 38, 0
6, 540, Control_c, 4, 101, 0
6, 540, Control_c, 4, 6, 12
6, 540, Pitch_bend_c, 4, 8192
6, 600, Program_c, 4, 28
6, 600, Control_c, 4, 7, 88
6, 600, Control_c, 4, 10, 120
6, 140160, Note_on_c, 4, 50, 84
6, 140632, Note_off_c, 4, 50, 80
6, 140640, Note_on_c, 4, 50, 84
6, 140880, Note_on_c, 4, 47, 84
6, 141112, Note_off_c, 4, 50, 80
6, 141120, Note_on_c, 4, 50, 84
6, 141352, Note_off_c, 4, 50, 80
6, 141360, Note_on_c, 4, 50, 84
6, 141592, Note_off_c, 4, 47, 80
6, 141600, Note_on_c, 4, 50, 39
6, 141832, Note_off_c, 4, 50, 80
6, 141840, Note_on_c, 4, 50, 84
6, 142312, Note_off_c, 4, 50, 80
6, 142320, Note_on_c, 4, 52, 84
6, 142792, Note_off_c, 4, 52, 80
6, 142800, Note_on_c, 4, 54, 84
6, 143280, Note_on_c, 4, 57, 84
6, 143752, Note_off_c, 4, 50, 80
6, 143752, Note_off_c, 4, 57, 80
6, 143760, Note_on_c, 4, 59, 84
6, 144472, Note_off_c, 4, 54, 80
6, 144480, Note_on_c, 4, 50, 84
6, 144720, Note_on_c, 4, 47, 84
6, 144952, Note_off_c, 4, 50, 80
6, 144960, Note_on_c, 4, 50, 84
6, 145432, Note_off_c, 4, 47, 80
6, 145440, Note_on_c, 4, 50, 39
6, 145672, Note_off_c, 4, 59, 80
6, 145672, Note_off_c, 4, 50, 80
6, 145680, Note_on_c, 4, 50, 84
6, 146152, Note_off_c, 4, 50, 80
6, 146160, Note_on_c, 4, 52, 84
6, 146632, Note_off_c, 4, 52, 80
6, 146640, Note_on_c, 4, 54, 84
6, 147120, Note_on_c, 4, 57, 84
6, 147592, Note_off_c, 4, 50, 80
6, 147592, Note_off_c, 4, 57, 80
6, 147600, Note_on_c, 4, 59, 84
6, 148320, Note_on_c, 4, 62, 84
6, 148552, Note_off_c, 4, 54, 80
6, 148552, Note_off_c, 4, 59, 80
6, 148560, Note_on_c, 4, 55, 84
6, 148792, Note_off_c, 4, 62, 80
6, 148800, Note_on_c, 4, 62, 84
6, 149280, Note_on_c, 4, 50, 39
6, 149512, Note_off_c, 4, 50, 80
6, 149520, Note_on_c, 4, 50, 84
6, 149976, Pitch_bend_c, 4, 8832
6, 150000, Pitch_bend_c, 4, 9600
6, 150472, Note_off_c, 4, 55, 80
6, 150472, Note_off_c, 4, 50, 80
6, 150480, Pitch_bend_c, 4, 8192
6, 150480, Note_on_c, 4, 54, 84
6, 150952, Note_off_c, 4, 62, 80
6, 150960, Note_on_c, 4, 57, 84
6, 151432, Note_off_c, 4, 57, 80
6, 151440, Note_on_c, 4, 59, 84
6, 151680, Note_on_c, 4, 71, 84
6, 152152, Note_off_c, 4, 59, 80
6, 152160, Note_on_c, 4, 50, 84
6, 152392, Note_off_c, 4, 54, 80
6, 152400, Note_on_c, 4, 47, 84
6, 152632, Note_off_c, 4, 50, 80
6, 152640, Note_on_c, 4, 50, 84
6, 153112, Note_off_c, 4, 47, 80
6, 153120, Note_on_c, 4, 50, 39
6, 153352, Note_off_c, 4, 50, 80
6, 153360, Note_on_c, 4, 50, 84
6, 153592, Note_off_c, 4, 71, 80
6, 153832, Note_off_c, 4, 50, 80
6, 153840, Note_on_c, 4, 52, 84
6, 154312, Note_off_c, 4, 52, 80
6, 154320, Note_on_c, 4, 54, 84
6, 154792, Note_off_c, 4, 54, 80
6, 154800, Note_on_c, 4, 57, 84
6, 154800, Note_on_c, 4, 62, 84
6, 155272, Note_off_c, 4, 50, 80
6, 155272, Note_off_c, 4, 57, 80
6, 155272, Note_off_c, 4, 62, 80
6, 155280, Note_on_c, 4, 59, 84
6, 155520, Note_on_c, 4, 74, 84
6, 157192, Note_off_c, 4, 59, 80
6, 157200, Note_on_c, 4, 59, 84
6, 157432, Note_off_c, 4, 74, 80
6, 157432, Note_off_c, 4, 59, 80
6, 157440, Note_on_c, 4, 59, 84
6, 157656, Pitch_bend_c, 4, 7552
6, 157672, Note_off_c, 4, 59, 80
6, 157680, Pitch_bend_c, 4, 8192
6, 157680, Note_on_c, 4, 57, 65
6, 158160, Note_on_c, 4, 54, 84
6, 158592, Pitch_bend_c, 4, 7552
6, 158632, Note_off_c, 4, 54, 80
6, 158640, Pitch_bend_c, 4, 8192
6, 158640, Note_on_c, 4, 52, 65
6, 158872, Note_off_c, 4, 57, 80
6, 158880, Note_on_c, 4, 59, 84
6, 159120, Note_on_c, 4, 47, 84
6, 159360, Note_on_c, 4, 71, 84
6, 160312, Note_off_c, 4, 59, 80
6, 160320, Note_on_c, 4, 50, 84
6, 160792, Note_off_c, 4, 52, 80
6, 160800, Note_on_c, 4, 50, 39
6, 161032, Note_off_c, 4, 47, 80
6, 161032, Note_off_c, 4, 50, 80
6, 161040, Note_on_c, 4, 50, 84
6, 161272, Note_off_c, 4, 71, 80
6, 161512, Note_off_c, 4, 50, 80
6, 161520, Note_on_c, 4, 52, 84
6, 161992, Note_off_c, 4, 52, 80
6, 162000, Note_on_c, 4, 54, 84
6, 162480, Note_on_c, 4, 57, 84
6, 162952, Note_off_c, 4, 50, 80
6, 162952, Note_off_c, 4, 57, 80
6, 162960, Note_on_c, 4, 59, 84
6, 163672, Note_off_c, 4, 54, 80
6, 163680, Note_on_c, 4, 50, 84
6, 163920, Note_on_c, 4, 47, 84
6, 164152, Note_off_c, 4, 50, 80
6, 164160, Note_on_c, 4, 50, 84
6, 164632, Note_off_c, 4, 47, 80
6, 164640, Note_on_c, 4, 50, 39
6, 164872, Note_off_c, 4, 59, 80
6, 164872, Note_off_c, 4, 50, 80
6, 164880, Note_on_c, 4, 50, 84
6, 165352, Note_off_c, 4, 50, 80
6, 165360, Note_on_c, 4, 52, 84
6, 165832, Note_off_c, 4, 52, 80
6, 165840, Note_on_c, 4, 54, 84
6, 166320, Note_on_c, 4, 57, 84
6, 166792, Note_off_c, 4, 50, 80
6, 166792, Note_off_c, 4, 57, 80
6, 166800, Note_on_c, 4, 59, 84
6, 167512, Note_off_c, 4, 54, 80
6, 167520, Note_on_c, 4, 50, 84
6, 167760, Note_on_c, 4, 47, 84
6, 167992, Note_off_c, 4, 50, 80
6, 168000, Note_on_c, 4, 50, 84
6, 168472, Note_off_c, 4, 47, 80
6, 168480, Note_on_c, 4, 50, 39
6, 168712, Note_off_c, 4, 59, 80
6, 168712, Note_off_c, 4, 50, 80
6, 168720, Note_on_c, 4, 50, 84
6, 169192, Note_off_c, 4, 50, 80
6, 169200, Note_on_c, 4, 52, 84
6, 169672, Note_off_c, 4, 52, 80
6, 169680, Note_on_c, 4, 54, 84
6, 170160, Note_on_c, 4, 57, 84
6, 170160, Note_on_c, 4, 62, 84
6, 170632, Note_off_c, 4, 50, 80
6, 170632, Note_off_c, 4, 57, 80
6, 170632, Note_off_c, 4, 62, 80
6, 170640, Note_on_c, 4, 59, 84
6, 171832, Note_off_c, 4, 54, 80
6, 172792, Note_off_c, 4, 59, 80
6, 201600, Note_on_c, 4, 50, 84
6, 202072, Note_off_c, 4, 50, 80
6, 202080, Note_on_c, 4, 50, 84
6, 202320, Note_on_c, 4, 47, 84
6, 202552, Note_off_c, 4, 50, 80
6, 202560, Note_on_c, 4, 50, 84
6, 202792, Note_off_c, 4, 50, 80
6, 202800, Note_on_c, 4, 50, 84
6, 203032, Note_off_c, 4, 47, 80
6, 203040, Note_on_c, 4, 50, 39
6, 203272, Note_off_c, 4, 50, 80
6, 203280, Note_on_c, 4, 50, 84
6, 203752, Note_off_c, 4, 50, 80
6, 203760, Note_on_c, 4, 52, 84
6, 204232, Note_off_c, 4, 52, 80
6, 204240, Note_on_c, 4, 54, 84
6, 204720, Note_on_c, 4, 57, 84
6, 205192, Note_off_c, 4, 50, 80
6, 205192, Note_off_c, 4, 57, 80
6, 205200, Note_on_c, 4, 59, 84
6, 205912, Note_off_c, 4, 54, 80
6, 205920, Note_on_c, 4, 50, 84
6, 206160, Note_on_c, 4, 47, 84
6, 206392, Note_off_c, 4, 50, 80
6, 206400, Note_on_c, 4, 50, 84
6, 206872, Note_off_c, 4, 47, 80
6, 206880, Note_on_c, 4, 50, 39
6, 207112, Note_off_c, 4, 59, 80
6, 207112, Note_off_c, 4, 50, 80
6, 207120, Note_on_c, 4, 50, 84
6, 207592, Note_off_c, 4, 50, 80
6, 207600, Note_on_c, 4, 52, 84
6, 208072, Note_off_c, 4, 52, 80
6, 208080, Note_on_c, 4, 54, 84
6, 208560, Note_on_c, 4, 57, 84
6, 209032, Note_off_c, 4, 50, 80
6, 209032, Note_off_c, 4, 57, 80
6, 209040, Note_on_c, 4, 59, 84
6, 209760, Note_on_c, 4, 62, 84
6, 209992, Note_off_c, 4, 54, 80
6, 209992, Note_off_c, 4, 59, 80
6, 210000, Note_on_c, 4, 55, 84
6, 210232, Note_off_c, 4, 62, 80
6, 210240, Note_on_c, 4, 62, 84
6, 210720, Note_on_c, 4, 50, 39
6, 210952, Note_off_c, 4, 50, 80
6, 210960, Note_on_c, 4, 50, 84
6, 211416, Pitch_bend_c, 4, 8832
6, 211440, Pitch_bend_c, 4, 9600
6, 211912, Note_off_c, 4, 55, 80
6, 211912, Note_off_c, 4, 50, 80
6, 211920, Pitch_bend_c, 4, 8192
6, 211920, Note_on_c, 4, 54, 84
6, 212392, Note_off_c, 4, 62, 80
6, 212400, Note_on_c, 4, 57, 84
6, 212872, Note_off_c, 4, 57, 80
6, 212880, Note_on_c, 4, 59, 84
6, 213120, Note_on_c, 4, 71, 84
6, 213592, Note_off_c, 4, 59, 80
6, 213600, Note_on_c, 4, 50, 84
6, 213832, Note_off_c, 4, 54, 80
6, 213840, Note_on_c, 4, 47, 84
6, 214072, Note_off_c, 4, 50, 80
6, 214080, Note_on_c, 4, 50, 84
6, 214552, Note_off_c, 4, 47, 80
6, 214560, Note_on_c, 4, 50, 39
6, 214792, Note_off_c, 4, 50, 80
6, 214800, Note_on_c, 4, 50, 84
6, 215032, Note_off_c, 4, 71, 80
6, 215272, Note_off_c, 4, 50, 80
6, 215280, Note_on_c, 4, 52, 84
6, 215752, Note_off_c, 4, 52, 80
6, 215760, Note_on_c, 4, 54, 84
6, 216232, Note_off_c, 4, 54, 80
6, 216240, Note_on_c, 4, 57, 84
6, 216240, Note_on_c, 4, 62, 84
6, 216712, Note_off_c, 4, 50, 80
6, 216712, Note_off_c, 4, 57, 80
6, 216712, Note_off_c, 4, 62, 80
6, 216720, Note_on_c, 4, 59, 84
6, 216960, Note_on_c, 4, 74, 84
6, 218632, Note_off_c, 4, 59, 80
6, 218640, Note_on_c, 4, 59, 84
6, 218872, Note_off_c, 4, 74, 80
6, 218872, Note_off_c, 4, 59, 80
6, 218880, Note_on_c, 4, 59, 84
6, 219096, Pitch_bend_c, 4, 7552
6, 219112, Note_off_c, 4, 59, 80
6, 219120, Pitch_bend_c, 4, 8192
6, 219120, Note_on_c, 4, 57, 65
6, 219600, Note_on_c, 4, 54, 84
6, 220032, Pitch_bend_c, 4, 7552
6, 220072, Note_off_c, 4, 54, 80
6, 220080, Pitch_bend_c, 4, 8192
6, 220080, Note_on_c, 4, 52, 65
6, 220312, Note_off_c, 4, 57, 80
6, 220320, Note_on_c, 4, 59, 84
6, 220560, Note_on_c, 4, 47, 84
6, 220800, Note_on_c, 4, 71, 84
6, 221752, Note_off_c, 4, 59, 80
6, 221760, Note_on_c, 4, 50, 84
6, 222232, Note_off_c, 4, 52, 80
6, 222240, Note_on_c, 4, 50, 39
6, 222472, Note_off_c, 4, 47, 80
6, 222472, Note_off_c, 4, 50, 80
6, 222480, Note_on_c, 4, 50, 84
6, 222712, Note_off_c, 4, 71, 80
6, 222952, Note_off_c, 4, 50, 80
6, 222960, Note_on_c, 4, 52, 84
6, 223432, Note_off_c, 4, 52, 80
6, 223440, Note_on_c, 4, 54, 84
6, 223920, Note_on_c, 4, 57, 84
6, 224392, Note_off_c, 4, 50, 80
6, 224392, Note_off_c, 4, 57, 80
6, 224400, Note_on_c, 4, 59, 84
6, 225112, Note_off_c, 4, 54, 80
6, 225120, Note_on_c, 4, 50, 84
6, 225360, Note_on_c, 4, 47, 84
6, 225592, Note_off_c, 4, 50, 80
6, 225600, Note_on_c, 4, 50, 84
6, 226072, Note_off_c, 4, 47, 80
6, 226080, Note_on_c, 4, 50, 39
6, 226312, Note_off_c, 4, 59, 80
6, 226312, Note_off_c, 4, 50, 80
6, 226320, Note_on_c, 4, 50, 84
6, 226792, Note_off_c, 4, 50, 80
6, 226800, Note_on_c, 4, 52, 84
6, 227272, Note_off_c, 4, 52, 80
6, 227280, Note_on_c, 4, 54, 84
6, 227760, Note_on_c, 4, 57, 84
6, 228232, Note_off_c, 4, 50, 80
6, 228232, Note_off_c, 4, 57, 80
6, 228240, Note_on_c, 4, 59, 84
6, 228952, Note_off_c, 4, 54, 80
6, 228960, Note_on_c, 4, 50, 84
6, 229200, Note_on_c, 4, 47, 84
6, 229432, Note_off_c, 4, 50, 80
6, 229440, Note_on_c, 4, 50, 84
6, 229912, Note_off_c, 4, 47, 80
6, 229920, Note_on_c, 4, 50, 39
6, 230152, Note_off_c, 4, 59, 80
6, 230152, Note_off_c, 4, 50, 80
6, 230160, Note_on_c, 4, 50, 84
6, 230632, Note_off_c, 4, 50, 80
6, 230640, Note_on_c, 4, 52, 84
6, 231112, Note_off_c, 4, 52, 80
6, 231120, Note_on_c, 4, 54, 84
6, 231600, Note_on_c, 4, 57, 84
6, 231600, Note_on_c, 4, 62, 84
6, 232072, Note_off_c, 4, 50, 80
6, 232072, Note_off_c, 4, 57, 80
6, 232072, Note_off_c, 4, 62, 80
6, 232080, Note_on_c, 4, 59, 84
6, 233272, Note_off_c, 4, 54, 80
6, 234232, Note_off_c, 4, 59, 80
6, 255360, Program_c, 4, 25
6, 255360, Control_c, 4, 7, 42
6, 255360, Note_on_c, 4, 71, 84
6, 255600, Note_on_c, 4, 59, 84
6, 255840, Note_on_c, 4, 62, 84
6, 256072, Note_off_c, 4, 71, 80
6, 256080, Note_on_c, 4, 71, 84
6, 256312, Note_off_c, 4, 59, 80
6, 256320, Note_on_c, 4, 59, 84
6, 256552, Note_off_c, 4, 62, 80
6, 256560, Note_on_c, 4, 62, 84
6, 256792, Note_off_c, 4, 71, 80
6, 256800, Note_on_c, 4, 71, 84
6, 257032, Note_off_c, 4, 59, 80
6, 257040, Note_on_c, 4, 59, 84
6, 257272, Note_off_c, 4, 71, 80
6, 257280, Note_on_c, 4, 71, 84
6, 257512, Note_off_c, 4, 59, 80
6, 257520, Note_on_c, 4, 59, 84
6, 257752, Note_off_c, 4, 62, 80
6, 257760, Note_on_c, 4, 62, 84
6, 257992, Note_off_c, 4, 71, 80
6, 258000, Note_on_c, 4, 71, 84
6, 258232, Note_off_c, 4, 59, 80
6, 258240, Note_on_c, 4, 59, 84
6, 258472, Note_off_c, 4, 62, 80
6, 258480, Note_on_c, 4, 62, 84
6, 258712, Note_off_c, 4, 71, 80
6, 258720, Note_on_c, 4, 71, 84
6, 258952, Note_off_c, 4, 59, 80
6, 258960, Note_on_c, 4, 59, 84
6, 259192, Note_off_c, 4, 71, 80
6, 259200, Control_c, 4, 7, 43
6, 259200, Note_on_c, 4, 71, 84
6, 259320, Control_c, 4, 7, 44
6, 259432, Note_off_c, 4, 59, 80
6, 259440, Control_c, 4, 7, 45
6, 259440, Note_on_c, 4, 59, 84
6, 259560, Control_c, 4, 7, 46
6, 259672, Note_off_c, 4, 62, 80
6, 259680, Control_c, 4, 7, 47
6, 259680, Note_on_c, 4, 62, 84
6, 259800, Control_c, 4, 7, 48
6, 259912, Note_off_c, 4, 71, 80
6, 259920, Control_c, 4, 7, 49
6, 259920, Note_on_c, 4, 71, 84
6, 260040, Control_c, 4, 7, 50
6, 260152, Note_off_c, 4, 59, 80
6, 260160, Control_c, 4, 7, 51
6, 260160, Note_on_c, 4, 59, 84
6, 260280, Control_c, 4, 7, 52
6, 260392, Note_off_c, 4, 62, 80
6, 260400, Control_c, 4, 7, 53
6, 260400, Note_on_c, 4, 62, 84
6, 260520, Control_c, 4, 7, 54
6, 260632, Note_off_c, 4, 71, 80
6, 260640, Note_on_c, 4, 71, 84
6, 260760, Control_c, 4, 7, 55
6, 260872, Note_off_c, 4, 59, 80
6, 260880, Control_c, 4, 7, 56
6, 260880, Note_on_c, 4, 59, 84
6, 261000, Control_c, 4, 7, 57
6, 261112, Note_off_c, 4, 71, 80
6, 261120, Control_c, 4, 7, 58
6, 261120, Note_on_c, 4, 71, 84
6, 261240, Control_c, 4, 7, 59
6, 261352, Note_off_c, 4, 59, 80
6, 261360, Control_c, 4, 7, 60
6, 261360, Note_on_c, 4, 59, 84
6, 261480, Control_c, 4, 7, 61
6, 261592, Note_off_c, 4, 62, 80
6, 261600, Control_c, 4, 7, 62
6, 261600, Note_on_c, 4, 62, 84
6, 261720, Control_c, 4, 7, 63
6, 261832, Note_off_c, 4, 71, 80
6, 261840, Control_c, 4, 7, 64
6, 261840, Note_on_c, 4, 71, 84
6, 261960, Control_c, 4, 7, 65
6, 262072, Note_off_c, 4, 59, 80
6, 262080, Control_c, 4, 7, 66
6, 262080, Note_on_c, 4, 59, 84
6, 262312, Note_off_c, 4, 62, 80
6, 262320, Note_on_c, 4, 62, 84
6, 262552, Note_off_c, 4, 71, 80
6, 262560, Note_on_c, 4, 71, 84
6, 262792, Note_off_c, 4, 59, 80
6, 262800, Note_on_c, 4, 59, 84
6, 263032, Note_off_c, 4, 71, 80
6, 263040, Note_on_c, 4, 71, 84
6, 263272, Note_off_c, 4, 59, 80
6, 263280, Note_on_c, 4, 59, 84
6, 263512, Note_off_c, 4, 62, 80
6, 263520, Note_on_c, 4, 61, 84
6, 263752, Note_off_c, 4, 71, 80
6, 263760, Note_on_c, 4, 71, 84
6, 263992, Note_off_c, 4, 59, 80
6, 264000, Note_on_c, 4, 59, 84
6, 264232, Note_off_c, 4, 61, 80
6, 264240, Note_on_c, 4, 61, 84
6, 264472, Note_off_c, 4, 71, 80
6, 264480, Note_on_c, 4, 71, 84
6, 264712, Note_off_c, 4, 59, 80
6, 264720, Note_on_c, 4, 59, 84
6, 264952, Note_off_c, 4, 71, 80
6, 264960, Note_on_c, 4, 71, 84
6, 265192, Note_off_c, 4, 59, 80
6, 265200, Note_on_c, 4, 59, 84
6, 265432, Note_off_c, 4, 61, 80
6, 265440, Note_on_c, 4, 61, 84
6, 265672, Note_off_c, 4, 71, 80
6, 265680, Note_on_c, 4, 71, 84
6, 265912, Note_off_c, 4, 59, 80
6, 265920, Note_on_c, 4, 59, 84
6, 266152, Note_off_c, 4, 61, 80
6, 266160, Note_on_c, 4, 61, 84
6, 266392, Note_off_c, 4, 71, 80
6, 266400, Note_on_c, 4, 71, 84
6, 266632, Note_off_c, 4, 59, 80
6, 266640, Note_on_c, 4, 59, 84
6, 266872, Note_off_c, 4, 71, 80
6, 266880, Note_on_c, 4, 71, 84
6, 267112, Note_off_c, 4, 59, 80
6, 267120, Note_on_c, 4, 59, 84
6, 267352, Note_off_c, 4, 61, 80
6, 267360, Note_on_c, 4, 61, 84
6, 267592, Note_off_c, 4, 71, 80
6, 267600, Note_on_c, 4, 71, 84
6, 267832, Note_off_c, 4, 59, 80
6, 267840, Note_on_c, 4, 59, 84
6, 268072, Note_off_c, 4, 61, 80
6, 268080, Note_on_c, 4, 61, 84
6, 268312, Note_off_c, 4, 71, 80
6, 268320, Note_on_c, 4, 71, 84
6, 268552, Note_off_c, 4, 59, 80
6, 268560, Note_on_c, 4, 59, 84
6, 268792, Note_off_c, 4, 71, 80
6, 268800, Note_on_c, 4, 71, 84
6, 268920, Control_c, 4, 7, 67
6, 269032, Note_off_c, 4, 59, 80
6, 269040, Note_on_c, 4, 59, 84
6, 269160, Control_c, 4, 7, 68
6, 269272, Note_off_c, 4, 61, 80
6, 269280, Note_on_c, 4, 59, 84
6, 269400, Control_c, 4, 7, 69
6, 269512, Note_off_c, 4, 71, 80
6, 269520, Note_on_c, 4, 71, 84
6, 269640, Control_c, 4, 7, 70
6, 269752, Note_off_c, 4, 59, 80
6, 269760, Note_on_c, 4, 59, 84
6, 269880, Control_c, 4, 7, 71
6, 269992, Note_off_c, 4, 59, 80
6, 270000, Note_on_c, 4, 59, 84
6, 270120, Control_c, 4, 7, 72
6, 270232, Note_off_c, 4, 71, 80
6, 270240, Note_on_c, 4, 71, 84
6, 270360, Control_c, 4, 7, 73
6, 270472, Note_off_c, 4, 59, 80
6, 270480, Note_on_c, 4, 59, 84
6, 270600, Control_c, 4, 7, 74
6, 270712, Note_off_c, 4, 71, 80
6, 270720, Note_on_c, 4, 71, 84
6, 270840, Control_c, 4, 7, 75
6, 270952, Note_off_c, 4, 59, 80
6, 270960, Note_on_c, 4, 59, 84
6, 271080, Control_c, 4, 7, 76
6, 271192, Note_off_c, 4, 59, 80
6, 271200, Note_on_c, 4, 55, 84
6, 271320, Control_c, 4, 7, 77
6, 271432, Note_off_c, 4, 71, 80
6, 271440, Note_on_c, 4, 71, 84
6, 271560, Control_c, 4, 7, 78
6, 271672, Note_off_c, 4, 59, 80
6, 271680, Note_on_c, 4, 59, 84
6, 271800, Control_c, 4, 7, 79
6, 271912, Note_off_c, 4, 55, 80
6, 271920, Note_on_c, 4, 59, 84
6, 272040, Control_c, 4, 7, 80
6, 272152, Note_off_c, 4, 71, 80
6, 272160, Note_on_c, 4, 71, 84
6, 272280, Control_c, 4, 7, 81
6, 272392, Note_off_c, 4, 59, 80
6, 272392, Note_off_c, 4, 59, 80
6, 272400, Note_on_c, 4, 59, 84
6, 272400, Note_on_c, 4, 61, 84
6, 272520, Control_c, 4, 7, 82
6, 272632, Note_off_c, 4, 71, 80
6, 272640, Note_on_c, 4, 71, 84
6, 272872, Note_off_c, 4, 59, 80
6, 272880, Note_on_c, 4, 59, 84
6, 273112, Note_off_c, 4, 61, 80
6, 273120, Note_on_c, 4, 61, 84
6, 273352, Note_off_c, 4, 71, 80
6, 273360, Note_on_c, 4, 71, 84
6, 273592, Note_off_c, 4, 59, 80
6, 273600, Note_on_c, 4, 59, 84
6, 273832, Note_off_c, 4, 61, 80
6, 273840, Note_on_c, 4, 62, 84
6, 274072, Note_off_c, 4, 71, 80
6, 274080, Note_on_c, 4, 71, 84
6, 274312, Note_off_c, 4, 59, 80
6, 274320, Note_on_c, 4, 59, 84
6, 274552, Note_off_c, 4, 71, 80
6, 274560, Note_on_c, 4, 71, 84
6, 274792, Note_off_c, 4, 59, 80
6, 274800, Note_on_c, 4, 59, 84
6, 275032, Note_off_c, 4, 62, 80
6, 275040, Note_on_c, 4, 55, 84
6, 275272, Note_off_c, 4, 71, 80
6, 275280, Note_on_c, 4, 71, 84
6, 275512, Note_off_c, 4, 59, 80
6, 275520, Note_on_c, 4, 59, 84
6, 275752, Note_off_c, 4, 55, 80
6, 275760, Note_on_c, 4, 59, 84
6, 275992, Note_off_c, 4, 71, 80
6, 276000, Note_on_c, 4, 71, 84
6, 276232, Note_off_c, 4, 59, 80
6, 276232, Note_off_c, 4, 59, 80
6, 276240, Note_on_c, 4, 59, 84
6, 276240, Note_on_c, 4, 61, 84
6, 276472, Note_off_c, 4, 71, 80
6, 276480, Note_on_c, 4, 71, 84
6, 276712, Note_off_c, 4, 59, 80
6, 276720, Note_on_c, 4, 59, 84
6, 276952, Note_off_c, 4, 61, 80
6, 276960, Note_on_c, 4, 61, 84
6, 277192, Note_off_c, 4, 71, 80
6, 277200, Note_on_c, 4, 71, 84
6, 277432, Note_off_c, 4, 59, 80
6, 277440, Note_on_c, 4, 59, 84
6, 277672, Note_off_c, 4, 61, 80
6, 277680, Note_on_c, 4, 62, 84
6, 277800, Control_c, 4, 7, 83
6, 277912, Note_off_c, 4, 71, 80
6, 277920, Note_on_c, 4, 71, 84
6, 278152, Note_off_c, 4, 59, 80
6, 278160, Control_c, 4, 7, 84
6, 278160, Note_on_c, 4, 59, 84
6, 278392, Note_off_c, 4, 71, 80
6, 278400, Note_on_c, 4, 71, 84
6, 278520, Control_c, 4, 7, 85
6, 278632, Note_off_c, 4, 59, 80
6, 278640, Note_on_c, 4, 59, 84
6, 278872, Note_off_c, 4, 62, 80
6, 278880, Control_c, 4, 7, 86
6, 278880, Note_on_c, 4, 62, 84
6, 279112, Note_off_c, 4, 71, 80
6, 279120, Note_on_c, 4, 71, 84
6, 279352, Note_off_c, 4, 59, 80
6, 279360, Control_c, 4, 7, 87
6, 279360, Note_on_c, 4, 59, 84
6, 279592, Note_off_c, 4, 62, 80
6, 279600, Note_on_c, 4, 62, 84
6, 279720, Control_c, 4, 7, 88
6, 279832, Note_off_c, 4, 71, 80
6, 279840, Note_on_c, 4, 71, 84
6, 280072, Note_off_c, 4, 59, 80
6, 280080, Control_c, 4, 7, 89
6, 280080, Note_on_c, 4, 59, 84
6, 280312, Note_off_c, 4, 71, 80
6, 280320, Note_on_c, 4, 71, 84
6, 280440, Control_c, 4, 7, 90
6, 280552, Note_off_c, 4, 59, 80
6, 280560, Note_on_c, 4, 59, 84
6, 280792, Note_off_c, 4, 62, 80
6, 280800, Note_on_c, 4, 62, 84
6, 281032, Note_off_c, 4, 71, 80
6, 281040, Note_on_c, 4, 71, 84
6, 281272, Note_off_c, 4, 59, 80
6, 281280, Note_on_c, 4, 59, 84
6, 281512, Note_off_c, 4, 62, 80
6, 281520, Note_on_c, 4, 62, 84
6, 281752, Note_off_c, 4, 71, 80
6, 281760, Note_on_c, 4, 71, 84
6, 281992, Note_off_c, 4, 59, 80
6, 282000, Note_on_c, 4, 59, 84
6, 282232, Note_off_c, 4, 71, 80
6, 282240, Note_on_c, 4, 71, 84
6, 282472, Note_off_c, 4, 59, 80
6, 282480, Note_on_c, 4, 59, 84
6, 282712, Note_off_c, 4, 62, 80
6, 282720, Note_on_c, 4, 62, 84
6, 282952, Note_off_c, 4, 71, 80
6, 282960, Note_on_c, 4, 71, 84
6, 283192, Note_off_c, 4, 59, 80
6, 283200, Note_on_c, 4, 59, 84
6, 283432, Note_off_c, 4, 62, 80
6, 283440, Note_on_c, 4, 62, 84
6, 283672, Note_off_c, 4, 71, 80
6, 283680, Note_on_c, 4, 71, 84
6, 283912, Note_off_c, 4, 59, 80
6, 283920, Note_on_c, 4, 59, 84
6, 284152, Note_off_c, 4, 71, 80
6, 284160, Note_on_c, 4, 71, 84
6, 284392, Note_off_c, 4, 59, 80
6, 284400, Note_on_c, 4, 59, 84
6, 284632, Note_off_c, 4, 62, 80
6, 284640, Note_on_c, 4, 62, 84
6, 284872, Note_off_c, 4, 71, 80
6, 284880, Note_on_c, 4, 71, 84
6, 285112, Note_off_c, 4, 59, 80
6, 285120, Note_on_c, 4, 59, 84
6, 285352, Note_off_c, 4, 62, 80
6, 285360, Note_on_c, 4, 62, 84
6, 285592, Note_off_c, 4, 71, 80
6, 285600, Note_on_c, 4, 71, 84
6, 285832, Note_off_c, 4, 59, 80
6, 285840, Note_on_c, 4, 59, 84
6, 286072, Note_off_c, 4, 71, 80
6, 286080, Note_on_c, 4, 71, 84
6, 286312, Note_off_c, 4, 59, 80
6, 286320, Note_on_c, 4, 59, 84
6, 286552, Note_off_c, 4, 62, 80
6, 286560, Note_on_c, 4, 61, 84
6, 286792, Note_off_c, 4, 71, 80
6, 286800, Note_on_c, 4, 71, 84
6, 287032, Note_off_c, 4, 59, 80
6, 287040, Note_on_c, 4, 59, 84
6, 287272, Note_off_c, 4, 61, 80
6, 287280, Note_on_c, 4, 61, 84
6, 287512, Note_off_c, 4, 71, 80
6, 287520, Note_on_c, 4, 71, 84
6, 287752, Note_off_c, 4, 59, 80
6, 287760, Note_on_c, 4, 59, 84
6, 287992, Note_off_c, 4, 71, 80
6, 288000, Note_on_c, 4, 71, 84
6, 288232, Note_off_c, 4, 59, 80
6, 288240, Note_on_c, 4, 59, 84
6, 288472, Note_off_c, 4, 61, 80
6, 288480, Note_on_c, 4, 61, 84
6, 288712, Note_off_c, 4, 71, 80
6, 288720, Note_on_c, 4, 71, 84
6, 288952, Note_off_c, 4, 59, 80
6, 288960, Note_on_c, 4, 59, 84
6, 289192, Note_off_c, 4, 61, 80
6, 289200, Note_on_c, 4, 61, 84
6, 289432, Note_off_c, 4, 71, 80
6, 289440, Note_on_c, 4, 71, 84
6, 289672, Note_off_c, 4, 59, 80
6, 289680, Note_on_c, 4, 59, 84
6, 289912, Note_off_c, 4, 71, 80
6, 289920, Note_on_c, 4, 71, 84
6, 290152, Note_off_c, 4, 59, 80
6, 290160, Note_on_c, 4, 59, 84
6, 290392, Note_off_c, 4, 61, 80
6, 290400, Note_on_c, 4, 61, 84
6, 290632, Note_off_c, 4, 71, 80
6, 290640, Note_on_c, 4, 71, 84
6, 290872, Note_off_c, 4, 59, 80
6, 290880, Note_on_c, 4, 59, 84
6, 291112, Note_off_c, 4, 61, 80
6, 291120, Note_on_c, 4, 61, 84
6, 291352, Note_off_c, 4, 71, 80
6, 291360, Note_on_c, 4, 71, 84
6, 291592, Note_off_c, 4, 59, 80
6, 291600, Note_on_c, 4, 59, 84
6, 291832, Note_off_c, 4, 71, 80
6, 291840, Note_on_c, 4, 71, 84
6, 292072, Note_off_c, 4, 59, 80
6, 292080, Note_on_c, 4, 59, 84
6, 292312, Note_off_c, 4, 61, 80
6, 292320, Note_on_c, 4, 59, 84
6, 292552, Note_off_c, 4, 71, 80
6, 292560, Note_on_c, 4, 71, 84
6, 292792, Note_off_c, 4, 59, 80
6, 292800, Note_on_c, 4, 59, 84
6, 293032, Note_off_c, 4, 59, 80
6, 293040, Note_on_c, 4, 59, 84
6, 293272, Note_off_c, 4, 71, 80
6, 293280, Note_on_c, 4, 71, 84
6, 293512, Note_off_c, 4, 59, 80
6, 293520, Note_on_c, 4, 59, 84
6, 293752, Note_off_c, 4, 71, 80
6, 293760, Note_on_c, 4, 71, 84
6, 293992, Note_off_c, 4, 59, 80
6, 294000, Note_on_c, 4, 59, 84
6, 294232, Note_off_c, 4, 59, 80
6, 294240, Note_on_c, 4, 55, 84
6, 294472, Note_off_c, 4, 71, 80
6, 294480, Note_on_c, 4, 71, 84
6, 294712, Note_off_c, 4, 59, 80
6, 294720, Note_on_c, 4, 59, 84
6, 294952, Note_off_c, 4, 55, 80
6, 294960, Note_on_c, 4, 59, 84
6, 295192, Note_off_c, 4, 71, 80
6, 295200, Note_on_c, 4, 71, 84
6, 295432, Note_off_c, 4, 59, 80
6, 295432, Note_off_c, 4, 59, 80
6, 295440, Note_on_c, 4, 59, 84
6, 295440, Note_on_c, 4, 61, 84
6, 295672, Note_off_c, 4, 71, 80
6, 295680, Note_on_c, 4, 71, 84
6, 295912, Note_off_c, 4, 59, 80
6, 295920, Note_on_c, 4, 59, 84
6, 296152, Note_off_c, 4, 61, 80
6, 296160, Note_on_c, 4, 61, 84
6, 296392, Note_off_c, 4, 71, 80
6, 296400, Note_on_c, 4, 71, 84
6, 296632, Note_off_c, 4, 59, 80
6, 296640, Note_on_c, 4, 59, 84
6, 296872, Note_off_c, 4, 61, 80
6, 296880, Note_on_c, 4, 62, 84
6, 297112, Note_off_c, 4, 71, 80
6, 297120, Note_on_c, 4, 71, 84
6, 297352, Note_off_c, 4, 59, 80
6, 297360, Note_on_c, 4, 59, 84
6, 297592, Note_off_c, 4, 71, 80
6, 297600, Note_on_c, 4, 71, 84
6, 297832, Note_off_c, 4, 59, 80
6, 297840, Note_on_c, 4, 59, 84
6, 298072, Note_off_c, 4, 62, 80
6, 298080, Note_on_c, 4, 55, 84
6, 298312, Note_off_c, 4, 71, 80
6, 298320, Note_on_c, 4, 71, 84
6, 298552, Note_off_c, 4, 59, 80
6, 298560, Note_on_c, 4, 59, 84
6, 298792, Note_off_c, 4, 55, 80
6, 298800, Note_on_c, 4, 59, 84
6, 299032, Note_off_c, 4, 71, 80
6, 299040, Note_on_c, 4, 71, 84
6, 299272, Note_off_c, 4, 59, 80
6, 299272, Note_off_c, 4, 59, 80
6, 299280, Note_on_c, 4, 59, 84
6, 299280, Note_on_c, 4, 61, 84
6, 299512, Note_off_c, 4, 71, 80
6, 299520, Note_on_c, 4, 71, 84
6, 299752, Note_off_c, 4, 59, 80
6, 299760, Note_on_c, 4, 59, 84
6, 299992, Note_off_c, 4, 61, 80
6, 300000, Note_on_c, 4, 61, 84
6, 300232, Note_off_c, 4, 71, 80
6, 300240, Note_on_c, 4, 71, 84
6, 300472, Note_off_c, 4, 59, 80
6, 300480, Note_on_c, 4, 59, 84
6, 300712, Note_off_c, 4, 61, 80
6, 300720, Note_on_c, 4, 62, 84
6, 300952, Note_off_c, 4, 71, 80
6, 300960, Note_on_c, 4, 71, 84
6, 301192, Note_off_c, 4, 59, 80
6, 301200, Note_on_c, 4, 59, 84
6, 301432, Note_off_c, 4, 71, 80
6, 301440, Control_c, 4, 7, 90
6, 301440, Note_on_c, 4, 71, 84
6, 301672, Note_off_c, 4, 59, 80
6, 301680, Note_on_c, 4, 59, 84
6, 301912, Note_off_c, 4, 62, 80
6, 301920, Note_on_c, 4, 62, 84
6, 302152, Note_off_c, 4, 71, 80
6, 302160, Note_on_c, 4, 71, 84
6, 302392, Note_off_c, 4, 59, 80
6, 302400, Note_on_c, 4, 59, 84
6, 302632, Note_off_c, 4, 62, 80
6, 302640, Note_on_c, 4, 62, 84
6, 302872, Note_off_c, 4, 71, 80
6, 302880, Note_on_c, 4, 71, 84
6, 303112, Note_off_c, 4, 59, 80
6, 303120, Note_on_c, 4, 59, 84
6, 303352, Note_off_c, 4, 71, 80
6, 303360, Note_on_c, 4, 71, 84
6, 303592, Note_off_c, 4, 59, 80
6, 303600, Note_on_c, 4, 59, 84
6, 303832, Note_off_c, 4, 62, 80
6, 303840, Note_on_c, 4, 62, 84
6, 304072, Note_off_c, 4, 71, 80
6, 304080, Note_on_c, 4, 71, 84
6, 304312, Note_off_c, 4, 59, 80
6, 304320, Note_on_c, 4, 59, 84
6, 304552, Note_off_c, 4, 62, 80
6, 304560, Note_on_c, 4, 62, 84
6, 304792, Note_off_c, 4, 71, 80
6, 304800, Note_on_c, 4, 71, 84
6, 305032, Note_off_c, 4, 59, 80
6, 305040, Note_on_c, 4, 59, 84
6, 305272, Note_off_c, 4, 71, 80
6, 305280, Note_on_c, 4, 71, 84
6, 305512, Note_off_c, 4, 59, 80
6, 305520, Note_on_c, 4, 59, 84
6, 305752, Note_off_c, 4, 62, 80
6, 305760, Note_on_c, 4, 62, 84
6, 305992, Note_off_c, 4, 71, 80
6, 306000, Note_on_c, 4, 71, 84
6, 306232, Note_off_c, 4, 59, 80
6, 306240, Note_on_c, 4, 59, 84
6, 306472, Note_off_c, 4, 62, 80
6, 306480, Note_on_c, 4, 62, 84
6, 306712, Note_off_c, 4, 71, 80
6, 306720, Note_on_c, 4, 71, 84
6, 306952, Note_off_c, 4, 59, 80
6, 306960, Note_on_c, 4, 59, 84
6, 307192, Note_off_c, 4, 71, 80
6, 307200, Note_on_c, 4, 71, 84
6, 307432, Note_off_c, 4, 59, 80
6, 307440, Note_on_c, 4, 59, 84
6, 307672, Note_off_c, 4, 62, 80
6, 307680, Note_on_c, 4, 62, 84
6, 307912, Note_off_c, 4, 71, 80
6, 307920, Note_on_c, 4, 71, 84
6, 308152, Note_off_c, 4, 59, 80
6, 308160, Note_on_c, 4, 59, 84
6, 308392, Note_off_c, 4, 62, 80
6, 308400, Note_on_c, 4, 62, 84
6, 308632, Note_off_c, 4, 71, 80
6, 308640, Note_on_c, 4, 71, 84
6, 308872, Note_off_c, 4, 59, 80
6, 308880, Note_on_c, 4, 59, 84
6, 309112, Note_off_c, 4, 71, 80
6, 309120, Note_on_c, 4, 71, 84
6, 309352, Note_off_c, 4, 59, 80
6, 309360, Note_on_c, 4, 59, 84
6, 309592, Note_off_c, 4, 62, 80
6, 309600, Note_on_c, 4, 62, 84
6, 309832, Note_off_c, 4, 71, 80
6, 309840, Note_on_c, 4, 71, 84
6, 310072, Note_off_c, 4, 59, 80
6, 310080, Note_on_c, 4, 59, 84
6, 310312, Note_off_c, 4, 62, 80
6, 310320, Note_on_c, 4, 62, 84
6, 310552, Note_off_c, 4, 71, 80
6, 310560, Note_on_c, 4, 71, 84
6, 310792, Note_off_c, 4, 59, 80
6, 310800, Note_on_c, 4, 59, 84
6, 311032, Note_off_c, 4, 71, 80
6, 311040, Note_on_c, 4, 71, 84
6, 311272, Note_off_c, 4, 59, 80
6, 311280, Note_on_c, 4, 59, 84
6, 311512, Note_off_c, 4, 62, 80
6, 311520, Note_on_c, 4, 62, 84
6, 311752, Note_off_c, 4, 71, 80
6, 311760, Note_on_c, 4, 71, 84
6, 311992, Note_off_c, 4, 59, 80
6, 312000, Note_on_c, 4, 59, 84
6, 312232, Note_off_c, 4, 62, 80
6, 312240, Note_on_c, 4, 62, 84
6, 312472, Note_off_c, 4, 71, 80
6, 312480, Note_on_c, 4, 71, 84
6, 312712, Note_off_c, 4, 59, 80
6, 312720, Note_on_c, 4, 59, 84
6, 312952, Note_off_c, 4, 71, 80
6, 312960, Note_on_c, 4, 71, 84
6, 313192, Note_off_c, 4, 59, 80
6, 313200, Note_on_c, 4, 59, 84
6, 313432, Note_off_c, 4, 62, 80
6, 313440, Note_on_c, 4, 62, 84
6, 313672, Note_off_c, 4, 71, 80
6, 313680, Note_on_c, 4, 71, 84
6, 313912, Note_off_c, 4, 59, 80
6, 313920, Note_on_c, 4, 59, 84
6, 314152, Note_off_c, 4, 62, 80
6, 314160, Note_on_c, 4, 62, 84
6, 314392, Note_off_c, 4, 71, 80
6, 314400, Note_on_c, 4, 71, 84
6, 314632, Note_off_c, 4, 59, 80
6, 314640, Note_on_c, 4, 59, 84
6, 314872, Note_off_c, 4, 71, 80
6, 314880, Note_on_c, 4, 71, 84
6, 315112, Note_off_c, 4, 59, 80
6, 315120, Note_on_c, 4, 59, 84
6, 315352, Note_off_c, 4, 62, 80
6, 315360, Note_on_c, 4, 62, 84
6, 315592, Note_off_c, 4, 71, 80
6, 315600, Note_on_c, 4, 71, 84
6, 315832, Note_off_c, 4, 59, 80
6, 315840, Note_on_c, 4, 59, 84
6, 316072, Note_off_c, 4, 62, 80
6, 316080, Note_on_c, 4, 62, 84
6, 316312, Note_off_c, 4, 71, 80
6, 316320, Note_on_c, 4, 71, 84
6, 316552, Note_off_c, 4, 59, 80
6, 316560, Note_on_c, 4, 59, 84
6, 316792, Note_off_c, 4, 62, 80
6, 316800, Note_on_c, 4, 62, 84
6, 316912, Note_off_c, 4, 59, 80
6, 316920, Note_on_c, 4, 59, 84
6, 317032, Note_off_c, 4, 71, 80
6, 317040, Note_on_c, 4, 71, 84
6, 318712, Note_off_c, 4, 62, 80
6, 320632, Note_off_c, 4, 59, 80
6, 320632, Note_off_c, 4, 71, 80
6, 320632, End_track
7, 0, Start_track
7, 0, Title_t, "O'Brien"
7, 660, Control_c, 5, 121, 0
7, 660, Control_c, 5, 123, 0
7, 660, Control_c, 5, 100, 0
7, 660, Control_c, 5, 38, 0
7, 660, Control_c, 5, 101, 0
7, 660, Control_c, 5, 6, 12
7, 660, Pitch_bend_c, 5, 8192
7, 720, Program_c, 5, 25
7, 720, Control_c, 5, 7, 82
7, 720, Control_c, 5, 10, 38
7, 140160, Note_on_c, 5, 38, 96
7, 140638, Note_off_c, 5, 38, 80
7, 140640, Note_on_c, 5, 38, 96
7, 140658, Note_off_c, 5, 38, 80
7, 140880, Note_on_c, 5, 38, 96
7, 140898, Note_off_c, 5, 38, 80
7, 141120, Note_on_c, 5, 38, 96
7, 141138, Note_off_c, 5, 38, 80
7, 141360, Note_on_c, 5, 38, 96
7, 141378, Note_off_c, 5, 38, 80
7, 141600, Note_on_c, 5, 38, 96
7, 141618, Note_off_c, 5, 38, 80
7, 141840, Note_on_c, 5, 38, 96
7, 142318, Note_off_c, 5, 38, 80
7, 142320, Note_on_c, 5, 40, 96
7, 142798, Note_off_c, 5, 40, 80
7, 142800, Note_on_c, 5, 42, 96
7, 143278, Note_off_c, 5, 42, 80
7, 143280, Note_on_c, 5, 45, 96
7, 143758, Note_off_c, 5, 45, 80
7, 143760, Note_on_c, 5, 47, 96
7, 144478, Note_off_c, 5, 47, 80
7, 144480, Note_on_c, 5, 38, 96
7, 144498, Note_off_c, 5, 38, 80
7, 144720, Note_on_c, 5, 38, 96
7, 144738, Note_off_c, 5, 38, 80
7, 144960, Note_on_c, 5, 38, 96
7, 144978, Note_off_c, 5, 38, 80
7, 145200, Note_on_c, 5, 38, 96
7, 145218, Note_off_c, 5, 38, 80
7, 145440, Note_on_c, 5, 38, 96
7, 145458, Note_off_c, 5, 38, 80
7, 145680, Note_on_c, 5, 38, 96
7, 146158, Note_off_c, 5, 38, 80
7, 146160, Note_on_c, 5, 40, 96
7, 146638, Note_off_c, 5, 40, 80
7, 146640, Note_on_c, 5, 42, 96
7, 147118, Note_off_c, 5, 42, 80
7, 147120, Note_on_c, 5, 45, 96
7, 147598, Note_off_c, 5, 45, 80
7, 147600, Note_on_c, 5, 47, 96
7, 148078, Note_off_c, 5, 47, 80
7, 148080, Note_on_c, 5, 47, 96
7, 148318, Note_off_c, 5, 47, 80
7, 148320, Note_on_c, 5, 38, 96
7, 148338, Note_off_c, 5, 38, 80
7, 148560, Note_on_c, 5, 38, 96
7, 148578, Note_off_c, 5, 38, 80
7, 148800, Note_on_c, 5, 38, 96
7, 148818, Note_off_c, 5, 38, 80
7, 149040, Note_on_c, 5, 38, 96
7, 149058, Note_off_c, 5, 38, 80
7, 149280, Note_on_c, 5, 38, 96
7, 149298, Note_off_c, 5, 38, 80
7, 149520, Note_on_c, 5, 38, 96
7, 149998, Note_off_c, 5, 38, 80
7, 150000, Note_on_c, 5, 40, 96
7, 150478, Note_off_c, 5, 40, 80
7, 150480, Note_on_c, 5, 42, 96
7, 150958, Note_off_c, 5, 42, 80
7, 150960, Note_on_c, 5, 45, 96
7, 151438, Note_off_c, 5, 45, 80
7, 151440, Note_on_c, 5, 47, 96
7, 152158, Note_off_c, 5, 47, 80
7, 152160, Note_on_c, 5, 38, 96
7, 152178, Note_off_c, 5, 38, 80
7, 152400, Note_on_c, 5, 38, 96
7, 152418, Note_off_c, 5, 38, 80
7, 152640, Note_on_c, 5, 38, 96
7, 152658, Note_off_c, 5, 38, 80
7, 152880, Note_on_c, 5, 38, 96
7, 152898, Note_off_c, 5, 38, 80
7, 153120, Note_on_c, 5, 38, 96
7, 153138, Note_off_c, 5, 38, 80
7, 153360, Note_on_c, 5, 38, 96
7, 153838, Note_off_c, 5, 38, 80
7, 153840, Note_on_c, 5, 40, 96
7, 154318, Note_off_c, 5, 40, 80
7, 154320, Note_on_c, 5, 42, 96
7, 154798, Note_off_c, 5, 42, 80
7, 154800, Note_on_c, 5, 50, 96
7, 155278, Note_off_c, 5, 50, 80
7, 155280, Note_on_c, 5, 47, 96
7, 155998, Note_off_c, 5, 47, 80
7, 156000, Note_on_c, 5, 38, 96
7, 156018, Note_off_c, 5, 38, 80
7, 156240, Note_on_c, 5, 38, 96
7, 156258, Note_off_c, 5, 38, 80
7, 156480, Note_on_c, 5, 38, 96
7, 156498, Note_off_c, 5, 38, 80
7, 156720, Note_on_c, 5, 38, 96
7, 156738, Note_off_c, 5, 38, 80
7, 156960, Note_on_c, 5, 38, 96
7, 156978, Note_off_c, 5, 38, 80
7, 157200, Note_on_c, 5, 38, 96
7, 157678, Note_off_c, 5, 38, 80
7, 157680, Note_on_c, 5, 40, 96
7, 158158, Note_off_c, 5, 40, 80
7, 158160, Note_on_c, 5, 42, 96
7, 158638, Note_off_c, 5, 42, 80
7, 158640, Note_on_c, 5, 45, 96
7, 159118, Note_off_c, 5, 45, 80
7, 159120, Note_on_c, 5, 47, 96
7, 159838, Note_off_c, 5, 47, 80
7, 159840, Note_on_c, 5, 38, 96
7, 159858, Note_off_c, 5, 38, 80
7, 160080, Note_on_c, 5, 38, 96
7, 160098, Note_off_c, 5, 38, 80
7, 160320, Note_on_c, 5, 38, 96
7, 160338, Note_off_c, 5, 38, 80
7, 160560, Note_on_c, 5, 38, 96
7, 160578, Note_off_c, 5, 38, 80
7, 160800, Note_on_c, 5, 38, 96
7, 160818, Note_off_c, 5, 38, 80
7, 161040, Note_on_c, 5, 38, 96
7, 161518, Note_off_c, 5, 38, 80
7, 161520, Note_on_c, 5, 40, 96
7, 161998, Note_off_c, 5, 40, 80
7, 162000, Note_on_c, 5, 42, 96
7, 162478, Note_off_c, 5, 42, 80
7, 162480, Note_on_c, 5, 45, 96
7, 162958, Note_off_c, 5, 45, 80
7, 162960, Note_on_c, 5, 47, 96
7, 163438, Note_off_c, 5, 47, 80
7, 163440, Note_on_c, 5, 47, 96
7, 163678, Note_off_c, 5, 47, 80
7, 163680, Note_on_c, 5, 38, 96
7, 163698, Note_off_c, 5, 38, 80
7, 163920, Note_on_c, 5, 38, 96
7, 163938, Note_off_c, 5, 38, 80
7, 164160, Note_on_c, 5, 38, 96
7, 164178, Note_off_c, 5, 38, 80
7, 164400, Note_on_c, 5, 38, 96
7, 164418, Note_off_c, 5, 38, 80
7, 164640, Note_on_c, 5, 38, 96
7, 164658, Note_off_c, 5, 38, 80
7, 164880, Note_on_c, 5, 38, 96
7, 165358, Note_off_c, 5, 38, 80
7, 165360, Note_on_c, 5, 40, 96
7, 165838, Note_off_c, 5, 40, 80
7, 165840, Note_on_c, 5, 42, 96
7, 166318, Note_off_c, 5, 42, 80
7, 166320, Note_on_c, 5, 45, 96
7, 166798, Note_off_c, 5, 45, 80
7, 166800, Note_on_c, 5, 47, 96
7, 167278, Note_off_c, 5, 47, 80
7, 167280, Note_on_c, 5, 47, 96
7, 167518, Note_off_c, 5, 47, 80
7, 167520, Note_on_c, 5, 38, 96
7, 167538, Note_off_c, 5, 38, 80
7, 167760, Note_on_c, 5, 38, 96
7, 167778, Note_off_c, 5, 38, 80
7, 168000, Note_on_c, 5, 38, 96
7, 168018, Note_off_c, 5, 38, 80
7, 168240, Note_on_c, 5, 38, 96
7, 168258, Note_off_c, 5, 38, 80
7, 168480, Note_on_c, 5, 38, 96
7, 168498, Note_off_c, 5, 38, 80
7, 168720, Note_on_c, 5, 38, 96
7, 169198, Note_off_c, 5, 38, 80
7, 169200, Note_on_c, 5, 40, 96
7, 169678, Note_off_c, 5, 40, 80
7, 169680, Note_on_c, 5, 42, 96
7, 170158, Note_off_c, 5, 42, 80
7, 170160, Note_on_c, 5, 50, 96
7, 170638, Note_off_c, 5, 50, 80
7, 170640, Note_on_c, 5, 47, 96
7, 170878, Note_off_c, 5, 47, 80
7, 170880, Control_c, 5, 7, 96
7, 170880, Note_on_c, 5, 47, 48
7, 170880, Note_on_c, 5, 54, 48
7, 170880, Note_on_c, 5, 59, 48
7, 171358, Note_off_c, 5, 47, 80
7, 171358, Note_off_c, 5, 54, 80
7, 171358, Note_off_c, 5, 59, 80
7, 171360, Note_on_c, 5, 47, 48
7, 171360, Note_on_c, 5, 54, 48
7, 171360, Note_on_c, 5, 59, 48
7, 171838, Note_off_c, 5, 47, 80
7, 171838, Note_off_c, 5, 54, 80
7, 171838, Note_off_c, 5, 59, 80
7, 171840, Note_on_c, 5, 47, 48
7, 171840, Note_on_c, 5, 54, 48
7, 171840, Note_on_c, 5, 59, 48
7, 172078, Note_off_c, 5, 47, 80
7, 172078, Note_off_c, 5, 54, 80
7, 172078, Note_off_c, 5, 59, 80
7, 172080, Note_on_c, 5, 47, 48
7, 172080, Note_on_c, 5, 54, 48
7, 172080, Note_on_c, 5, 59, 48
7, 172558, Note_off_c, 5, 47, 80
7, 172558, Note_off_c, 5, 54, 80
7, 172558, Note_off_c, 5, 59, 80
7, 172560, Note_on_c, 5, 47, 48
7, 172560, Note_on_c, 5, 54, 48
7, 172560, Note_on_c, 5, 59, 48
7, 173278, Note_off_c, 5, 47, 80
7, 173278, Note_off_c, 5, 54, 80
7, 173278, Note_off_c, 5, 59, 80
7, 173280, Note_on_c, 5, 47, 48
7, 173280, Note_on_c, 5, 54, 48
7, 173280, Note_on_c, 5, 59, 48
7, 173518, Note_off_c, 5, 47, 80
7, 173518, Note_off_c, 5, 54, 80
7, 173518, Note_off_c, 5, 59, 80
7, 173520, Note_on_c, 5, 47, 48
7, 173520, Note_on_c, 5, 54, 48
7, 173520, Note_on_c, 5, 59, 48
7, 173998, Note_off_c, 5, 47, 80
7, 173998, Note_off_c, 5, 54, 80
7, 173998, Note_off_c, 5, 59, 80
7, 174000, Note_on_c, 5, 47, 48
7, 174000, Note_on_c, 5, 54, 48
7, 174000, Note_on_c, 5, 59, 48
7, 174478, Note_off_c, 5, 47, 80
7, 174478, Note_off_c, 5, 54, 80
7, 174478, Note_off_c, 5, 59, 80
7, 174480, Note_on_c, 5, 47, 48
7, 174480, Note_on_c, 5, 54, 48
7, 174480, Note_on_c, 5, 59, 48
7, 175198, Note_off_c, 5, 47, 80
7, 175198, Note_off_c, 5, 54, 80
7, 175198, Note_off_c, 5, 59, 80
7, 175200, Note_on_c, 5, 47, 48
7, 175200, Note_on_c, 5, 54, 48
7, 175200, Note_on_c, 5, 59, 48
7, 175678, Note_off_c, 5, 47, 80
7, 175678, Note_off_c, 5, 54, 80
7, 175678, Note_off_c, 5, 59, 80
7, 175680, Note_on_c, 5, 47, 48
7, 175680, Note_on_c, 5, 54, 48
7, 175680, Note_on_c, 5, 59, 48
7, 175918, Note_off_c, 5, 47, 80
7, 175918, Note_off_c, 5, 54, 80
7, 175918, Note_off_c, 5, 59, 80
7, 175920, Note_on_c, 5, 47, 48
7, 175920, Note_on_c, 5, 54, 48
7, 175920, Note_on_c, 5, 59, 48
7, 176398, Note_off_c, 5, 47, 80
7, 176398, Note_off_c, 5, 54, 80
7, 176398, Note_off_c, 5, 59, 80
7, 176400, Note_on_c, 5, 47, 48
7, 176400, Note_on_c, 5, 54, 48
7, 176400, Note_on_c, 5, 59, 48
7, 177118, Note_off_c, 5, 47, 80
7, 177118, Note_off_c, 5, 54, 80
7, 177118, Note_off_c, 5, 59, 80
7, 177120, Note_on_c, 5, 47, 48
7, 177120, Note_on_c, 5, 54, 48
7, 177120, Note_on_c, 5, 59, 48
7, 177358, Note_off_c, 5, 47, 80
7, 177358, Note_off_c, 5, 54, 80
7, 177358, Note_off_c, 5, 59, 80
7, 177360, Note_on_c, 5, 47, 48
7, 177360, Note_on_c, 5, 54, 48
7, 177360, Note_on_c, 5, 59, 48
7, 177838, Note_off_c, 5, 47, 80
7, 177838, Note_off_c, 5, 54, 80
7, 177838, Note_off_c, 5, 59, 80
7, 177840, Note_on_c, 5, 47, 48
7, 177840, Note_on_c, 5, 54, 48
7, 177840, Note_on_c, 5, 59, 48
7, 178318, Note_off_c, 5, 47, 80
7, 178318, Note_off_c, 5, 54, 80
7, 178318, Note_off_c, 5, 59, 80
7, 178320, Note_on_c, 5, 47, 48
7, 178320, Note_on_c, 5, 54, 48
7, 178320, Note_on_c, 5, 59, 48
7, 179038, Note_off_c, 5, 47, 80
7, 179038, Note_off_c, 5, 54, 80
7, 179038, Note_off_c, 5, 59, 80
7, 179040, Note_on_c, 5, 47, 48
7, 179040, Note_on_c, 5, 54, 48
7, 179040, Note_on_c, 5, 59, 48
7, 179518, Note_off_c, 5, 47, 80
7, 179518, Note_off_c, 5, 54, 80
7, 179518, Note_off_c, 5, 59, 80
7, 179520, Note_on_c, 5, 47, 48
7, 179520, Note_on_c, 5, 54, 48
7, 179520, Note_on_c, 5, 59, 48
7, 179758, Note_off_c, 5, 47, 80
7, 179758, Note_off_c, 5, 54, 80
7, 179758, Note_off_c, 5, 59, 80
7, 179760, Note_on_c, 5, 47, 48
7, 179760, Note_on_c, 5, 54, 48
7, 179760, Note_on_c, 5, 59, 48
7, 180238, Note_off_c, 5, 47, 80
7, 180238, Note_off_c, 5, 54, 80
7, 180238, Note_off_c, 5, 59, 80
7, 180240, Note_on_c, 5, 47, 48
7, 180240, Note_on_c, 5, 54, 48
7, 180240, Note_on_c, 5, 59, 48
7, 180958, Note_off_c, 5, 47, 80
7, 180958, Note_off_c, 5, 54, 80
7, 180958, Note_off_c, 5, 59, 80
7, 180960, Note_on_c, 5, 47, 48
7, 180960, Note_on_c, 5, 54, 48
7, 180960, Note_on_c, 5, 59, 48
7, 181198, Note_off_c, 5, 47, 80
7, 181198, Note_off_c, 5, 54, 80
7, 181198, Note_off_c, 5, 59, 80
7, 181200, Note_on_c, 5, 47, 48
7, 181200, Note_on_c, 5, 54, 48
7, 181200, Note_on_c, 5, 59, 48
7, 181678, Note_off_c, 5, 47, 80
7, 181678, Note_off_c, 5, 54, 80
7, 181678, Note_off_c, 5, 59, 80
7, 181680, Note_on_c, 5, 47, 48
7, 181680, Note_on_c, 5, 54, 48
7, 181680, Note_on_c, 5, 59, 48
7, 182158, Note_off_c, 5, 47, 80
7, 182158, Note_off_c, 5, 54, 80
7, 182158, Note_off_c, 5, 59, 80
7, 182160, Note_on_c, 5, 47, 48
7, 182160, Note_on_c, 5, 54, 48
7, 182160, Note_on_c, 5, 59, 48
7, 182878, Note_off_c, 5, 47, 80
7, 182878, Note_off_c, 5, 54, 80
7, 182878, Note_off_c, 5, 59, 80
7, 182880, Note_on_c, 5, 47, 48
7, 182880, Note_on_c, 5, 54, 48
7, 182880, Note_on_c, 5, 59, 48
7, 183358, Note_off_c, 5, 47, 80
7, 183358, Note_off_c, 5, 54, 80
7, 183358, Note_off_c, 5, 59, 80
7, 183360, Note_on_c, 5, 47, 48
7, 183360, Note_on_c, 5, 54, 48
7, 183360, Note_on_c, 5, 59, 48
7, 183598, Note_off_c, 5, 47, 80
7, 183598, Note_off_c, 5, 54, 80
7, 183598, Note_off_c, 5, 59, 80
7, 183600, Note_on_c, 5, 47, 48
7, 183600, Note_on_c, 5, 54, 48
7, 183600, Note_on_c, 5, 59, 48
7, 184078, Note_off_c, 5, 47, 80
7, 184078, Note_off_c, 5, 54, 80
7, 184078, Note_off_c, 5, 59, 80
7, 184080, Note_on_c, 5, 47, 48
7, 184080, Note_on_c, 5, 54, 48
7, 184080, Note_on_c, 5, 59, 48
7, 184798, Note_off_c, 5, 47, 80
7, 184798, Note_off_c, 5, 54, 80
7, 184798, Note_off_c, 5, 59, 80
7, 184800, Note_on_c, 5, 47, 48
7, 184800, Note_on_c, 5, 54, 48
7, 184800, Note_on_c, 5, 59, 48
7, 185038, Note_off_c, 5, 47, 80
7, 185038, Note_off_c, 5, 54, 80
7, 185038, Note_off_c, 5, 59, 80
7, 185040, Note_on_c, 5, 47, 48
7, 185040, Note_on_c, 5, 54, 48
7, 185040, Note_on_c, 5, 59, 48
7, 185518, Note_off_c, 5, 47, 80
7, 185518, Note_off_c, 5, 54, 80
7, 185518, Note_off_c, 5, 59, 80
7, 185520, Note_on_c, 5, 47, 48
7, 185520, Note_on_c, 5, 50, 48
7, 185520, Note_on_c, 5, 59, 48
7, 185998, Note_off_c, 5, 47, 80
7, 185998, Note_off_c, 5, 50, 80
7, 185998, Note_off_c, 5, 59, 80
7, 186000, Note_on_c, 5, 47, 48
7, 186000, Note_on_c, 5, 50, 48
7, 186000, Note_on_c, 5, 57, 48
7, 186000, Note_on_c, 5, 62, 48
7, 186238, Note_off_c, 5, 47, 80
7, 186238, Note_off_c, 5, 50, 80
7, 186238, Note_off_c, 5, 57, 80
7, 186238, Note_off_c, 5, 62, 80
7, 201600, Note_on_c, 5, 64, 48
7, 201840, Note_on_c, 5, 59, 48
7, 202080, Note_on_c, 5, 62, 48
7, 202318, Note_off_c, 5, 64, 80
7, 202320, Note_on_c, 5, 64, 48
7, 202558, Note_off_c, 5, 59, 80
7, 202560, Note_on_c, 5, 59, 48
7, 202798, Note_off_c, 5, 62, 80
7, 202800, Note_on_c, 5, 62, 48
7, 203038, Note_off_c, 5, 64, 80
7, 203040, Note_on_c, 5, 64, 48
7, 203278, Note_off_c, 5, 59, 80
7, 203278, Note_off_c, 5, 62, 80
7, 203280, Note_on_c, 5, 59, 32
7, 203280, Note_on_c, 5, 62, 48
7, 203518, Note_off_c, 5, 64, 80
7, 203520, Note_on_c, 5, 64, 48
7, 203758, Note_off_c, 5, 59, 80
7, 203760, Note_on_c, 5, 59, 48
7, 203998, Note_off_c, 5, 62, 80
7, 204000, Note_on_c, 5, 62, 48
7, 204238, Note_off_c, 5, 64, 80
7, 204240, Note_on_c, 5, 64, 48
7, 204478, Note_off_c, 5, 59, 80
7, 204480, Note_on_c, 5, 59, 48
7, 204718, Note_off_c, 5, 62, 80
7, 204720, Note_on_c, 5, 62, 48
7, 204958, Note_off_c, 5, 64, 80
7, 204960, Note_on_c, 5, 64, 48
7, 205198, Note_off_c, 5, 59, 80
7, 205198, Note_off_c, 5, 62, 80
7, 205200, Note_on_c, 5, 59, 32
7, 205200, Note_on_c, 5, 62, 48
7, 205438, Note_off_c, 5, 64, 80
7, 205440, Note_on_c, 5, 64, 48
7, 205678, Note_off_c, 5, 59, 80
7, 205680, Note_on_c, 5, 59, 48
7, 205918, Note_off_c, 5, 62, 80
7, 205920, Note_on_c, 5, 62, 48
7, 206158, Note_off_c, 5, 64, 80
7, 206160, Note_on_c, 5, 64, 48
7, 206398, Note_off_c, 5, 59, 80
7, 206400, Note_on_c, 5, 59, 48
7, 206638, Note_off_c, 5, 62, 80
7, 206640, Note_on_c, 5, 62, 48
7, 206878, Note_off_c, 5, 64, 80
7, 206880, Note_on_c, 5, 64, 48
7, 207118, Note_off_c, 5, 59, 80
7, 207118, Note_off_c, 5, 62, 80
7, 207120, Note_on_c, 5, 59, 32
7, 207120, Note_on_c, 5, 62, 48
7, 207358, Note_off_c, 5, 64, 80
7, 207360, Note_on_c, 5, 64, 48
7, 207598, Note_off_c, 5, 59, 80
7, 207600, Note_on_c, 5, 59, 48
7, 207838, Note_off_c, 5, 62, 80
7, 207840, Note_on_c, 5, 62, 48
7, 208078, Note_off_c, 5, 64, 80
7, 208080, Note_on_c, 5, 64, 48
7, 208318, Note_off_c, 5, 59, 80
7, 208320, Note_on_c, 5, 59, 48
7, 208558, Note_off_c, 5, 62, 80
7, 208560, Note_on_c, 5, 62, 48
7, 208798, Note_off_c, 5, 64, 80
7, 208800, Note_on_c, 5, 64, 48
7, 209038, Note_off_c, 5, 59, 80
7, 209038, Note_off_c, 5, 62, 80
7, 209040, Note_on_c, 5, 59, 32
7, 209040, Note_on_c, 5, 62, 48
7, 209278, Note_off_c, 5, 64, 80
7, 209280, Note_on_c, 5, 64, 48
7, 209518, Note_off_c, 5, 59, 80
7, 209520, Note_on_c, 5, 59, 48
7, 209758, Note_off_c, 5, 62, 80
7, 209760, Note_on_c, 5, 62, 48
7, 209998, Note_off_c, 5, 64, 80
7, 210000, Note_on_c, 5, 64, 48
7, 210238, Note_off_c, 5, 59, 80
7, 210240, Note_on_c, 5, 59, 48
7, 210478, Note_off_c, 5, 62, 80
7, 210480, Note_on_c, 5, 62, 48
7, 210718, Note_off_c, 5, 64, 80
7, 210720, Note_on_c, 5, 64, 48
7, 210958, Note_off_c, 5, 59, 80
7, 210958, Note_off_c, 5, 62, 80
7, 210960, Note_on_c, 5, 59, 32
7, 210960, Note_on_c, 5, 62, 48
7, 211198, Note_off_c, 5, 64, 80
7, 211200, Note_on_c, 5, 64, 48
7, 211438, Note_off_c, 5, 59, 80
7, 211440, Note_on_c, 5, 59, 48
7, 211678, Note_off_c, 5, 62, 80
7, 211680, Note_on_c, 5, 62, 48
7, 211918, Note_off_c, 5, 64, 80
7, 211920, Note_on_c, 5, 64, 48
7, 212158, Note_off_c, 5, 59, 80
7, 212160, Note_on_c, 5, 59, 48
7, 212398, Note_off_c, 5, 62, 80
7, 212400, Note_on_c, 5, 62, 48
7, 212638, Note_off_c, 5, 64, 80
7, 212640, Note_on_c, 5, 64, 48
7, 212878, Note_off_c, 5, 59, 80
7, 212878, Note_off_c, 5, 62, 80
7, 212880, Note_on_c, 5, 59, 32
7, 212880, Note_on_c, 5, 62, 48
7, 213118, Note_off_c, 5, 64, 80
7, 213120, Note_on_c, 5, 64, 48
7, 213358, Note_off_c, 5, 59, 80
7, 213360, Note_on_c, 5, 59, 48
7, 213598, Note_off_c, 5, 62, 80
7, 213600, Note_on_c, 5, 62, 48
7, 213838, Note_off_c, 5, 64, 80
7, 213840, Note_on_c, 5, 64, 48
7, 214078, Note_off_c, 5, 59, 80
7, 214080, Note_on_c, 5, 59, 48
7, 214318, Note_off_c, 5, 62, 80
7, 214320, Note_on_c, 5, 62, 48
7, 214558, Note_off_c, 5, 64, 80
7, 214560, Note_on_c, 5, 64, 48
7, 214798, Note_off_c, 5, 59, 80
7, 214798, Note_off_c, 5, 62, 80
7, 214800, Note_on_c, 5, 59, 32
7, 214800, Note_on_c, 5, 62, 48
7, 215038, Note_off_c, 5, 64, 80
7, 215040, Note_on_c, 5, 64, 48
7, 215278, Note_off_c, 5, 59, 80
7, 215280, Note_on_c, 5, 59, 48
7, 215518, Note_off_c, 5, 62, 80
7, 215520, Note_on_c, 5, 62, 48
7, 215758, Note_off_c, 5, 64, 80
7, 215760, Note_on_c, 5, 64, 48
7, 215998, Note_off_c, 5, 59, 80
7, 216000, Note_on_c, 5, 59, 48
7, 216238, Note_off_c, 5, 62, 80
7, 216240, Note_on_c, 5, 62, 48
7, 216478, Note_off_c, 5, 64, 80
7, 216480, Note_on_c, 5, 64, 48
7, 216718, Note_off_c, 5, 59, 80
7, 216718, Note_off_c, 5, 62, 80
7, 216720, Note_on_c, 5, 59, 32
7, 216720, Note_on_c, 5, 62, 48
7, 216958, Note_off_c, 5, 64, 80
7, 216960, Note_on_c, 5, 64, 48
7, 217198, Note_off_c, 5, 59, 80
7, 217200, Note_on_c, 5, 55, 48
7, 217438, Note_off_c, 5, 62, 80
7, 217440, Note_on_c, 5, 59, 48
7, 217678, Note_off_c, 5, 64, 80
7, 217680, Note_on_c, 5, 64, 48
7, 217918, Note_off_c, 5, 55, 80
7, 217920, Note_on_c, 5, 55, 48
7, 218158, Note_off_c, 5, 59, 80
7, 218160, Note_on_c, 5, 59, 48
7, 218398, Note_off_c, 5, 64, 80
7, 218400, Note_on_c, 5, 64, 48
7, 218638, Note_off_c, 5, 55, 80
7, 218638, Note_off_c, 5, 59, 80
7, 218640, Note_on_c, 5, 54, 32
7, 218640, Note_on_c, 5, 57, 48
7, 218878, Note_off_c, 5, 64, 80
7, 218880, Note_on_c, 5, 64, 48
7, 219118, Note_off_c, 5, 54, 80
7, 219120, Note_on_c, 5, 54, 48
7, 219358, Note_off_c, 5, 57, 80
7, 219360, Note_on_c, 5, 57, 48
7, 219598, Note_off_c, 5, 64, 80
7, 219600, Note_on_c, 5, 64, 48
7, 219838, Note_off_c, 5, 54, 80
7, 219840, Note_on_c, 5, 54, 48
7, 220078, Note_off_c, 5, 57, 80
7, 220080, Note_on_c, 5, 57, 48
7, 220318, Note_off_c, 5, 64, 80
7, 220320, Note_on_c, 5, 64, 48
7, 220558, Note_off_c, 5, 54, 80
7, 220558, Note_off_c, 5, 57, 80
7, 220560, Note_on_c, 5, 54, 32
7, 220560, Note_on_c, 5, 57, 48
7, 220798, Note_off_c, 5, 64, 80
7, 220800, Note_on_c, 5, 64, 48
7, 221038, Note_off_c, 5, 54, 80
7, 221040, Note_on_c, 5, 55, 48
7, 221278, Note_off_c, 5, 57, 80
7, 221280, Note_on_c, 5, 57, 48
7, 221518, Note_off_c, 5, 64, 80
7, 221520, Note_on_c, 5, 64, 48
7, 221758, Note_off_c, 5, 55, 80
7, 221760, Note_on_c, 5, 54, 48
7, 221998, Note_off_c, 5, 57, 80
7, 222000, Note_on_c, 5, 57, 48
7, 222238, Note_off_c, 5, 64, 80
7, 222240, Note_on_c, 5, 64, 48
7, 222478, Note_off_c, 5, 57, 80
7, 222480, Note_on_c, 5, 55, 48
7, 222718, Note_off_c, 5, 64, 80
7, 222720, Note_on_c, 5, 64, 48
7, 222958, Note_off_c, 5, 54, 80
7, 222960, Note_on_c, 5, 50, 48
7, 223198, Note_off_c, 5, 64, 80
7, 223200, Note_on_c, 5, 64, 48
7, 223438, Note_off_c, 5, 50, 80
7, 223440, Note_on_c, 5, 50, 48
7, 223678, Note_off_c, 5, 55, 80
7, 223680, Note_on_c, 5, 61, 48
7, 223918, Note_off_c, 5, 61, 80
7, 223920, Note_on_c, 5, 62, 48
7, 224158, Note_off_c, 5, 62, 80
7, 224160, Note_on_c, 5, 61, 48
7, 224398, Note_off_c, 5, 50, 80
7, 224400, Note_on_c, 5, 50, 48
7, 224638, Note_off_c, 5, 64, 80
7, 224640, Note_on_c, 5, 64, 48
7, 224878, Note_off_c, 5, 50, 80
7, 224880, Note_on_c, 5, 55, 48
7, 225118, Note_off_c, 5, 61, 80
7, 225120, Note_on_c, 5, 59, 48
7, 225358, Note_off_c, 5, 64, 80
7, 225360, Note_on_c, 5, 64, 48
7, 225598, Note_off_c, 5, 55, 80
7, 225600, Note_on_c, 5, 55, 48
7, 225838, Note_off_c, 5, 59, 80
7, 225840, Note_on_c, 5, 59, 48
7, 226078, Note_off_c, 5, 64, 80
7, 226080, Note_on_c, 5, 64, 48
7, 226318, Note_off_c, 5, 55, 80
7, 226318, Note_off_c, 5, 59, 80
7, 226320, Note_on_c, 5, 54, 32
7, 226320, Note_on_c, 5, 57, 48
7, 226558, Note_off_c, 5, 64, 80
7, 226560, Note_on_c, 5, 64, 48
7, 226798, Note_off_c, 5, 54, 80
7, 226800, Note_on_c, 5, 54, 48
7, 227038, Note_off_c, 5, 57, 80
7, 227040, Note_on_c, 5, 57, 48
7, 227278, Note_off_c, 5, 64, 80
7, 227280, Note_on_c, 5, 64, 48
7, 227518, Note_off_c, 5, 54, 80
7, 227520, Note_on_c, 5, 54, 48
7, 227758, Note_off_c, 5, 57, 80
7, 227760, Note_on_c, 5, 57, 48
7, 227998, Note_off_c, 5, 64, 80
7, 228000, Note_on_c, 5, 64, 48
7, 228238, Note_off_c, 5, 54, 80
7, 228238, Note_off_c, 5, 57, 80
7, 228240, Note_on_c, 5, 54, 32
7, 228240, Note_on_c, 5, 57, 48
7, 228478, Note_off_c, 5, 64, 80
7, 228480, Note_on_c, 5, 64, 48
7, 228718, Note_off_c, 5, 54, 80
7, 228720, Note_on_c, 5, 55, 48
7, 228958, Note_off_c, 5, 57, 80
7, 228960, Note_on_c, 5, 57, 48
7, 229198, Note_off_c, 5, 64, 80
7, 229200, Note_on_c, 5, 64, 48
7, 229438, Note_off_c, 5, 55, 80
7, 229440, Note_on_c, 5, 54, 48
7, 229678, Note_off_c, 5, 57, 80
7, 229680, Note_on_c, 5, 57, 48
7, 229918, Note_off_c, 5, 64, 80
7, 229920, Note_on_c, 5, 64, 48
7, 230158, Note_off_c, 5, 57, 80
7, 230160, Note_on_c, 5, 55, 48
7, 230398, Note_off_c, 5, 64, 80
7, 230400, Note_on_c, 5, 64, 48
7, 230638, Note_off_c, 5, 54, 80
7, 230640, Note_on_c, 5, 50, 48
7, 230878, Note_off_c, 5, 64, 80
7, 230880, Note_on_c, 5, 64, 48
7, 231118, Note_off_c, 5, 50, 80
7, 231120, Note_on_c, 5, 50, 48
7, 231358, Note_off_c, 5, 55, 80
7, 231360, Note_on_c, 5, 61, 48
7, 231598, Note_off_c, 5, 61, 80
7, 231600, Note_on_c, 5, 62, 48
7, 231838, Note_off_c, 5, 62, 80
7, 231840, Note_on_c, 5, 61, 48
7, 232078, Note_off_c, 5, 50, 80
7, 232080, Note_on_c, 5, 50, 48
7, 232318, Note_off_c, 5, 64, 80
7, 232320, Note_on_c, 5, 64, 64
7, 232558, Note_off_c, 5, 50, 80
7, 232560, Note_on_c, 5, 59, 64
7, 232798, Note_off_c, 5, 61, 80
7, 232800, Note_on_c, 5, 62, 64
7, 233038, Note_off_c, 5, 64, 80
7, 233040, Note_on_c, 5, 64, 64
7, 233278, Note_off_c, 5, 59, 80
7, 233280, Note_on_c, 5, 59, 64
7, 233518, Note_off_c, 5, 62, 80
7, 233520, Note_on_c, 5, 62, 64
7, 233758, Note_off_c, 5, 64, 80
7, 233760, Note_on_c, 5, 64, 64
7, 233998, Note_off_c, 5, 59, 80
7, 233998, Note_off_c, 5, 62, 80
7, 234000, Note_on_c, 5, 59, 45
7, 234000, Note_on_c, 5, 62, 64
7, 234238, Note_off_c, 5, 64, 80
7, 234240, Note_on_c, 5, 64, 64
7, 234478, Note_off_c, 5, 59, 80
7, 234480, Note_on_c, 5, 59, 64
7, 234718, Note_off_c, 5, 62, 80
7, 234720, Note_on_c, 5, 62, 64
7, 234958, Note_off_c, 5, 64, 80
7, 234960, Note_on_c, 5, 64, 64
7, 235198, Note_off_c, 5, 59, 80
7, 235200, Note_on_c, 5, 59, 64
7, 235438, Note_off_c, 5, 62, 80
7, 235440, Note_on_c, 5, 62, 64
7, 235678, Note_off_c, 5, 64, 80
7, 235680, Note_on_c, 5, 64, 64
7, 235918, Note_off_c, 5, 59, 80
7, 235918, Note_off_c, 5, 62, 80
7, 235920, Note_on_c, 5, 59, 45
7, 235920, Note_on_c, 5, 62, 64
7, 236158, Note_off_c, 5, 64, 80
7, 236160, Note_on_c, 5, 64, 64
7, 236398, Note_off_c, 5, 59, 80
7, 236400, Note_on_c, 5, 59, 64
7, 236638, Note_off_c, 5, 62, 80
7, 236640, Note_on_c, 5, 62, 64
7, 236878, Note_off_c, 5, 64, 80
7, 236880, Note_on_c, 5, 64, 64
7, 237118, Note_off_c, 5, 59, 80
7, 237120, Note_on_c, 5, 59, 64
7, 237358, Note_off_c, 5, 62, 80
7, 237360, Note_on_c, 5, 62, 64
7, 237598, Note_off_c, 5, 64, 80
7, 237600, Note_on_c, 5, 64, 64
7, 237838, Note_off_c, 5, 59, 80
7, 237838, Note_off_c, 5, 62, 80
7, 237840, Note_on_c, 5, 59, 45
7, 237840, Note_on_c, 5, 62, 64
7, 238078, Note_off_c, 5, 64, 80
7, 238080, Note_on_c, 5, 64, 64
7, 238318, Note_off_c, 5, 59, 80
7, 238320, Note_on_c, 5, 59, 64
7, 238558, Note_off_c, 5, 62, 80
7, 238560, Note_on_c, 5, 62, 64
7, 238798, Note_off_c, 5, 64, 80
7, 238800, Note_on_c, 5, 64, 64
7, 239038, Note_off_c, 5, 59, 80
7, 239040, Note_on_c, 5, 59, 64
7, 239278, Note_off_c, 5, 62, 80
7, 239280, Note_on_c, 5, 62, 64
7, 239518, Note_off_c, 5, 64, 80
7, 239520, Note_on_c, 5, 64, 64
7, 239758, Note_off_c, 5, 59, 80
7, 239758, Note_off_c, 5, 62, 80
7, 239760, Note_on_c, 5, 59, 45
7, 239760, Note_on_c, 5, 62, 64
7, 239998, Note_off_c, 5, 64, 80
7, 240000, Note_on_c, 5, 64, 64
7, 240238, Note_off_c, 5, 59, 80
7, 240240, Note_on_c, 5, 58, 64
7, 240478, Note_off_c, 5, 62, 80
7, 240480, Note_on_c, 5, 61, 64
7, 240718, Note_off_c, 5, 64, 80
7, 240720, Note_on_c, 5, 64, 64
7, 240958, Note_off_c, 5, 58, 80
7, 240960, Note_on_c, 5, 58, 64
7, 241198, Note_off_c, 5, 61, 80
7, 241200, Note_on_c, 5, 61, 64
7, 241438, Note_off_c, 5, 64, 80
7, 241440, Note_on_c, 5, 64, 64
7, 241678, Note_off_c, 5, 58, 80
7, 241678, Note_off_c, 5, 61, 80
7, 241680, Note_on_c, 5, 58, 45
7, 241680, Note_on_c, 5, 61, 64
7, 241918, Note_off_c, 5, 64, 80
7, 241920, Note_on_c, 5, 64, 64
7, 242158, Note_off_c, 5, 58, 80
7, 242160, Note_on_c, 5, 58, 64
7, 242398, Note_off_c, 5, 61, 80
7, 242400, Note_on_c, 5, 61, 64
7, 242638, Note_off_c, 5, 64, 80
7, 242640, Note_on_c, 5, 64, 64
7, 242878, Note_off_c, 5, 58, 80
7, 242880, Note_on_c, 5, 58, 64
7, 243118, Note_off_c, 5, 61, 80
7, 243120, Note_on_c, 5, 61, 64
7, 243358, Note_off_c, 5, 64, 80
7, 243360, Note_on_c, 5, 64, 64
7, 243598, Note_off_c, 5, 58, 80
7, 243598, Note_off_c, 5, 61, 80
7, 243600, Note_on_c, 5, 58, 45
7, 243600, Note_on_c, 5, 61, 64
7, 243838, Note_off_c, 5, 64, 80
7, 243840, Note_on_c, 5, 64, 64
7, 244078, Note_off_c, 5, 58, 80
7, 244080, Note_on_c, 5, 54, 64
7, 244318, Note_off_c, 5, 61, 80
7, 244320, Note_on_c, 5, 61, 64
7, 244558, Note_off_c, 5, 64, 80
7, 244560, Note_on_c, 5, 64, 64
7, 244798, Note_off_c, 5, 54, 80
7, 244800, Note_on_c, 5, 54, 64
7, 245038, Note_off_c, 5, 61, 80
7, 245040, Note_on_c, 5, 61, 64
7, 245278, Note_off_c, 5, 64, 80
7, 245280, Note_on_c, 5, 64, 64
7, 245518, Note_off_c, 5, 54, 80
7, 245518, Note_off_c, 5, 61, 80
7, 245520, Note_on_c, 5, 54, 45
7, 245520, Note_on_c, 5, 61, 64
7, 245758, Note_off_c, 5, 64, 80
7, 245760, Note_on_c, 5, 64, 64
7, 245998, Note_off_c, 5, 54, 80
7, 246000, Note_on_c, 5, 54, 64
7, 246238, Note_off_c, 5, 61, 80
7, 246240, Note_on_c, 5, 59, 64
7, 246478, Note_off_c, 5, 64, 80
7, 246480, Note_on_c, 5, 64, 64
7, 246718, Note_off_c, 5, 54, 80
7, 246720, Note_on_c, 5, 54, 64
7, 246958, Note_off_c, 5, 59, 80
7, 246960, Note_on_c, 5, 59, 64
7, 247198, Note_off_c, 5, 64, 80
7, 247200, Note_on_c, 5, 64, 64
7, 247438, Note_off_c, 5, 54, 80
7, 247438, Note_off_c, 5, 59, 80
7, 247440, Note_on_c, 5, 54, 45
7, 247440, Note_on_c, 5, 59, 64
7, 247678, Note_off_c, 5, 64, 80
7, 247680, Note_on_c, 5, 64, 64
7, 247918, Note_off_c, 5, 54, 80
7, 247920, Note_on_c, 5, 50, 64
7, 248158, Note_off_c, 5, 59, 80
7, 248160, Note_on_c, 5, 55, 64
7, 248398, Note_off_c, 5, 64, 80
7, 248400, Note_on_c, 5, 64, 64
7, 248638, Note_off_c, 5, 50, 80
7, 248640, Note_on_c, 5, 50, 64
7, 248878, Note_off_c, 5, 55, 80
7, 248880, Note_on_c, 5, 59, 64
7, 249118, Note_off_c, 5, 64, 80
7, 249120, Note_on_c, 5, 64, 64
7, 249358, Note_off_c, 5, 59, 80
7, 249360, Note_on_c, 5, 61, 64
7, 249598, Note_off_c, 5, 64, 80
7, 249600, Note_on_c, 5, 64, 64
7, 249838, Note_off_c, 5, 50, 80
7, 249840, Note_on_c, 5, 50, 64
7, 250078, Note_off_c, 5, 64, 80
7, 250080, Note_on_c, 5, 64, 64
7, 250318, Note_off_c, 5, 50, 80
7, 250320, Note_on_c, 5, 50, 64
7, 250558, Note_off_c, 5, 61, 80
7, 250560, Note_on_c, 5, 61, 64
7, 250798, Note_off_c, 5, 61, 80
7, 250800, Note_on_c, 5, 62, 64
7, 251038, Note_off_c, 5, 62, 80
7, 251040, Note_on_c, 5, 61, 64
7, 251278, Note_off_c, 5, 50, 80
7, 251280, Note_on_c, 5, 50, 64
7, 251518, Note_off_c, 5, 64, 80
7, 251520, Note_on_c, 5, 64, 64
7, 251758, Note_off_c, 5, 50, 80
7, 251760, Note_on_c, 5, 50, 64
7, 251998, Note_off_c, 5, 61, 80
7, 252000, Note_on_c, 5, 55, 64
7, 252238, Note_off_c, 5, 64, 80
7, 252240, Note_on_c, 5, 64, 64
7, 252478, Note_off_c, 5, 50, 80
7, 252480, Note_on_c, 5, 50, 64
7, 252718, Note_off_c, 5, 55, 80
7, 252720, Note_on_c, 5, 59, 64
7, 252958, Note_off_c, 5, 64, 80
7, 252960, Note_on_c, 5, 64, 64
7, 253198, Note_off_c, 5, 59, 80
7, 253200, Note_on_c, 5, 61, 64
7, 253438, Note_off_c, 5, 64, 80
7, 253440, Note_on_c, 5, 64, 64
7, 253678, Note_off_c, 5, 50, 80
7, 253680, Note_on_c, 5, 50, 64
7, 253918, Note_off_c, 5, 64, 80
7, 253920, Note_on_c, 5, 64, 64
7, 254158, Note_off_c, 5, 50, 80
7, 254160, Note_on_c, 5, 50, 64
7, 254398, Note_off_c, 5, 61, 80
7, 254400, Note_on_c, 5, 61, 64
7, 254638, Note_off_c, 5, 61, 80
7, 254640, Note_on_c, 5, 62, 64
7, 254878, Note_off_c, 5, 62, 80
7, 254880, Note_on_c, 5, 61, 64
7, 255118, Note_off_c, 5, 50, 80
7, 255120, Note_on_c, 5, 50, 64
7, 255360, Control_c, 5, 7, 112
7, 255360, Note_on_c, 5, 47, 64
7, 255838, Note_off_c, 5, 64, 80
7, 255838, Note_off_c, 5, 61, 80
7, 255838, Note_off_c, 5, 50, 80
7, 255840, Note_on_c, 5, 59, 64
7, 255840, Note_on_c, 5, 62, 64
7, 256318, Note_off_c, 5, 59, 80
7, 256318, Note_off_c, 5, 62, 80
7, 256320, Note_on_c, 5, 59, 64
7, 256320, Note_on_c, 5, 62, 64
7, 256558, Note_off_c, 5, 59, 80
7, 256558, Note_off_c, 5, 62, 80
7, 256560, Note_on_c, 5, 59, 64
7, 256560, Note_on_c, 5, 62, 64
7, 257038, Note_off_c, 5, 47, 80
7, 257040, Note_on_c, 5, 47, 64
7, 257518, Note_off_c, 5, 59, 80
7, 257518, Note_off_c, 5, 62, 80
7, 257520, Note_on_c, 5, 59, 64
7, 257520, Note_on_c, 5, 62, 64
7, 257998, Note_off_c, 5, 59, 80
7, 257998, Note_off_c, 5, 62, 80
7, 258000, Note_on_c, 5, 59, 64
7, 258000, Note_on_c, 5, 62, 64
7, 258718, Note_off_c, 5, 59, 80
7, 258718, Note_off_c, 5, 62, 80
7, 258720, Note_on_c, 5, 59, 64
7, 258720, Note_on_c, 5, 62, 64
7, 258958, Note_off_c, 5, 47, 80
7, 258958, Note_off_c, 5, 59, 80
7, 258958, Note_off_c, 5, 62, 80
7, 258960, Note_on_c, 5, 59, 64
7, 258960, Note_on_c, 5, 62, 64
7, 259200, Note_on_c, 5, 47, 64
7, 259678, Note_off_c, 5, 59, 80
7, 259678, Note_off_c, 5, 62, 80
7, 259680, Note_on_c, 5, 59, 64
7, 259680, Note_on_c, 5, 62, 64
7, 260158, Note_off_c, 5, 59, 80
7, 260158, Note_off_c, 5, 62, 80
7, 260160, Note_on_c, 5, 59, 64
7, 260160, Note_on_c, 5, 62, 64
7, 260398, Note_off_c, 5, 59, 80
7, 260398, Note_off_c, 5, 62, 80
7, 260400, Note_on_c, 5, 59, 64
7, 260400, Note_on_c, 5, 62, 64
7, 260878, Note_off_c, 5, 47, 80
7, 260880, Note_on_c, 5, 47, 64
7, 261358, Note_off_c, 5, 59, 80
7, 261358, Note_off_c, 5, 62, 80
7, 261360, Note_on_c, 5, 59, 64
7, 261360, Note_on_c, 5, 62, 64
7, 261838, Note_off_c, 5, 59, 80
7, 261838, Note_off_c, 5, 62, 80
7, 261840, Note_on_c, 5, 59, 64
7, 261840, Note_on_c, 5, 62, 64
7, 262558, Note_off_c, 5, 59, 80
7, 262558, Note_off_c, 5, 62, 80
7, 262560, Note_on_c, 5, 59, 64
7, 262560, Note_on_c, 5, 62, 64
7, 262798, Note_off_c, 5, 47, 80
7, 262798, Note_off_c, 5, 59, 80
7, 262798, Note_off_c, 5, 62, 80
7, 262800, Note_on_c, 5, 59, 64
7, 262800, Note_on_c, 5, 62, 64
7, 263040, Note_on_c, 5, 46, 64
7, 263518, Note_off_c, 5, 59, 80
7, 263518, Note_off_c, 5, 62, 80
7, 263520, Note_on_c, 5, 58, 64
7, 263520, Note_on_c, 5, 61, 64
7, 263998, Note_off_c, 5, 58, 80
7, 263998, Note_off_c, 5, 61, 80
7, 264000, Note_on_c, 5, 58, 64
7, 264000, Note_on_c, 5, 61, 64
7, 264238, Note_off_c, 5, 58, 80
7, 264238, Note_off_c, 5, 61, 80
7, 264240, Note_on_c, 5, 58, 64
7, 264240, Note_on_c, 5, 61, 64
7, 264718, Note_off_c, 5, 46, 80
7, 264720, Note_on_c, 5, 46, 64
7, 265198, Note_off_c, 5, 58, 80
7, 265198, Note_off_c, 5, 61, 80
7, 265200, Note_on_c, 5, 58, 64
7, 265200, Note_on_c, 5, 61, 64
7, 265678, Note_off_c, 5, 58, 80
7, 265678, Note_off_c, 5, 61, 80
7, 265680, Note_on_c, 5, 58, 64
7, 265680, Note_on_c, 5, 61, 64
7, 266398, Note_off_c, 5, 58, 80
7, 266398, Note_off_c, 5, 61, 80
7, 266400, Note_on_c, 5, 58, 64
7, 266400, Note_on_c, 5, 61, 64
7, 266638, Note_off_c, 5, 46, 80
7, 266638, Note_off_c, 5, 58, 80
7, 266638, Note_off_c, 5, 61, 80
7, 266640, Note_on_c, 5, 58, 64
7, 266640, Note_on_c, 5, 61, 64
7, 266880, Note_on_c, 5, 38, 64
7, 267358, Note_off_c, 5, 58, 80
7, 267358, Note_off_c, 5, 61, 80
7, 267360, Note_on_c, 5, 54, 64
7, 267360, Note_on_c, 5, 61, 64
7, 267838, Note_off_c, 5, 54, 80
7, 267838, Note_off_c, 5, 61, 80
7, 267840, Note_on_c, 5, 54, 64
7, 267840, Note_on_c, 5, 61, 64
7, 268078, Note_off_c, 5, 54, 80
7, 268078, Note_off_c, 5, 61, 80
7, 268080, Note_on_c, 5, 54, 64
7, 268080, Note_on_c, 5, 61, 64
7, 268558, Note_off_c, 5, 38, 80
7, 268560, Note_on_c, 5, 38, 64
7, 269038, Note_off_c, 5, 54, 80
7, 269038, Note_off_c, 5, 61, 80
7, 269040, Note_on_c, 5, 54, 64
7, 269040, Note_on_c, 5, 59, 64
7, 269518, Note_off_c, 5, 54, 80
7, 269518, Note_off_c, 5, 59, 80
7, 269520, Note_on_c, 5, 54, 64
7, 269520, Note_on_c, 5, 59, 64
7, 269998, Note_off_c, 5, 54, 80
7, 269998, Note_off_c, 5, 59, 80
7, 270000, Note_on_c, 5, 54, 64
7, 270000, Note_on_c, 5, 59, 64
7, 270238, Note_off_c, 5, 54, 80
7, 270238, Note_off_c, 5, 59, 80
7, 270240, Note_on_c, 5, 54, 64
7, 270240, Note_on_c, 5, 59, 64
7, 270478, Note_off_c, 5, 38, 80
7, 270478, Note_off_c, 5, 54, 80
7, 270478, Note_off_c, 5, 59, 80
7, 270480, Note_on_c, 5, 54, 64
7, 270480, Note_on_c, 5, 59, 64
7, 270720, Note_on_c, 5, 43, 64
7, 271198, Note_off_c, 5, 54, 80
7, 271198, Note_off_c, 5, 59, 80
7, 271200, Note_on_c, 5, 50, 64
7, 271200, Note_on_c, 5, 55, 64
7, 271678, Note_off_c, 5, 43, 80
7, 271680, Note_on_c, 5, 43, 64
7, 271918, Note_off_c, 5, 50, 80
7, 271918, Note_off_c, 5, 55, 80
7, 271920, Note_on_c, 5, 50, 64
7, 271920, Note_on_c, 5, 59, 64
7, 272398, Note_off_c, 5, 43, 80
7, 272400, Note_on_c, 5, 42, 64
7, 272878, Note_off_c, 5, 42, 80
7, 272880, Note_on_c, 5, 42, 64
7, 273118, Note_off_c, 5, 50, 80
7, 273118, Note_off_c, 5, 59, 80
7, 273120, Note_on_c, 5, 54, 64
7, 273120, Note_on_c, 5, 61, 64
7, 273358, Note_off_c, 5, 42, 80
7, 273360, Note_on_c, 5, 42, 64
7, 273598, Note_off_c, 5, 54, 80
7, 273598, Note_off_c, 5, 61, 80
7, 273600, Note_on_c, 5, 54, 64
7, 273600, Note_on_c, 5, 61, 64
7, 274078, Note_off_c, 5, 54, 80
7, 274078, Note_off_c, 5, 61, 80
7, 274080, Note_on_c, 5, 54, 64
7, 274080, Note_on_c, 5, 62, 64
7, 274558, Note_off_c, 5, 42, 80
7, 274560, Note_on_c, 5, 43, 64
7, 275038, Note_off_c, 5, 54, 80
7, 275038, Note_off_c, 5, 62, 80
7, 275040, Note_on_c, 5, 50, 64
7, 275040, Note_on_c, 5, 55, 64
7, 275518, Note_off_c, 5, 43, 80
7, 275520, Note_on_c, 5, 43, 64
7, 275758, Note_off_c, 5, 50, 80
7, 275758, Note_off_c, 5, 55, 80
7, 275760, Note_on_c, 5, 50, 64
7, 275760, Note_on_c, 5, 59, 64
7, 276238, Note_off_c, 5, 43, 80
7, 276240, Note_on_c, 5, 42, 64
7, 276718, Note_off_c, 5, 42, 80
7, 276720, Note_on_c, 5, 42, 64
7, 276958, Note_off_c, 5, 50, 80
7, 276958, Note_off_c, 5, 59, 80
7, 276960, Note_on_c, 5, 54, 64
7, 276960, Note_on_c, 5, 61, 64
7, 277198, Note_off_c, 5, 42, 80
7, 277200, Note_on_c, 5, 42, 64
7, 277438, Note_off_c, 5, 54, 80
7, 277438, Note_off_c, 5, 61, 80
7, 277440, Note_on_c, 5, 54, 64
7, 277440, Note_on_c, 5, 61, 64
7, 277918, Note_off_c, 5, 54, 80
7, 277918, Note_off_c, 5, 61, 80
7, 277920, Note_on_c, 5, 54, 64
7, 277920, Note_on_c, 5, 62, 64
7, 278398, Note_off_c, 5, 42, 80
7, 278400, Note_on_c, 5, 47, 64
7, 278878, Note_off_c, 5, 54, 80
7, 278878, Note_off_c, 5, 62, 80
7, 278880, Note_on_c, 5, 59, 64
7, 278880, Note_on_c, 5, 62, 64
7, 279358, Note_off_c, 5, 59, 80
7, 279358, Note_off_c, 5, 62, 80
7, 279360, Note_on_c, 5, 59, 64
7, 279360, Note_on_c, 5, 62, 64
7, 279598, Note_off_c, 5, 59, 80
7, 279598, Note_off_c, 5, 62, 80
7, 279600, Note_on_c, 5, 59, 64
7, 279600, Note_on_c, 5, 62, 64
7, 280078, Note_off_c, 5, 47, 80
7, 280080, Note_on_c, 5, 47, 64
7, 280558, Note_off_c, 5, 59, 80
7, 280558, Note_off_c, 5, 62, 80
7, 280560, Note_on_c, 5, 59, 64
7, 280560, Note_on_c, 5, 62, 64
7, 281038, Note_off_c, 5, 59, 80
7, 281038, Note_off_c, 5, 62, 80
7, 281040, Note_on_c, 5, 59, 64
7, 281040, Note_on_c, 5, 62, 64
7, 281758, Note_off_c, 5, 59, 80
7, 281758, Note_off_c, 5, 62, 80
7, 281760, Note_on_c, 5, 59, 64
7, 281760, Note_on_c, 5, 62, 64
7, 281998, Note_off_c, 5, 47, 80
7, 281998, Note_off_c, 5, 59, 80
7, 281998, Note_off_c, 5, 62, 80
7, 282000, Note_on_c, 5, 59, 64
7, 282000, Note_on_c, 5, 62, 64
7, 282240, Note_on_c, 5, 47, 64
7, 282718, Note_off_c, 5, 59, 80
7, 282718, Note_off_c, 5, 62, 80
7, 282720, Note_on_c, 5, 59, 64
7, 282720, Note_on_c, 5, 62, 64
7, 283198, Note_off_c, 5, 59, 80
7, 283198, Note_off_c, 5, 62, 80
7, 283200, Note_on_c, 5, 59, 64
7, 283200, Note_on_c, 5, 62, 64
7, 283438, Note_off_c, 5, 59, 80
7, 283438, Note_off_c, 5, 62, 80
7, 283440, Note_on_c, 5, 59, 64
7, 283440, Note_on_c, 5, 62, 64
7, 283918, Note_off_c, 5, 47, 80
7, 283920, Note_on_c, 5, 47, 64
7, 284398, Note_off_c, 5, 59, 80
7, 284398, Note_off_c, 5, 62, 80
7, 284400, Note_on_c, 5, 59, 64
7, 284400, Note_on_c, 5, 62, 64
7, 284878, Note_off_c, 5, 59, 80
7, 284878, Note_off_c, 5, 62, 80
7, 284880, Note_on_c, 5, 59, 64
7, 284880, Note_on_c, 5, 62, 64
7, 285598, Note_off_c, 5, 59, 80
7, 285598, Note_off_c, 5, 62, 80
7, 285600, Note_on_c, 5, 59, 64
7, 285600, Note_on_c, 5, 62, 64
7, 285838, Note_off_c, 5, 47, 80
7, 285838, Note_off_c, 5, 59, 80
7, 285838, Note_off_c, 5, 62, 80
7, 285840, Note_on_c, 5, 59, 64
7, 285840, Note_on_c, 5, 62, 64
7, 286080, Note_on_c, 5, 46, 64
7, 286558, Note_off_c, 5, 59, 80
7, 286558, Note_off_c, 5, 62, 80
7, 286560, Note_on_c, 5, 58, 64
7, 286560, Note_on_c, 5, 61, 64
7, 287038, Note_off_c, 5, 58, 80
7, 287038, Note_off_c, 5, 61, 80
7, 287040, Note_on_c, 5, 58, 64
7, 287040, Note_on_c, 5, 61, 64
7, 287278, Note_off_c, 5, 58, 80
7, 287278, Note_off_c, 5, 61, 80
7, 287280, Note_on_c, 5, 58, 64
7, 287280, Note_on_c, 5, 61, 64
7, 287758, Note_off_c, 5, 46, 80
7, 287760, Note_on_c, 5, 46, 64
7, 288238, Note_off_c, 5, 58, 80
7, 288238, Note_off_c, 5, 61, 80
7, 288240, Note_on_c, 5, 58, 64
7, 288240, Note_on_c, 5, 61, 64
7, 288718, Note_off_c, 5, 58, 80
7, 288718, Note_off_c, 5, 61, 80
7, 288720, Note_on_c, 5, 58, 64
7, 288720, Note_on_c, 5, 61, 64
7, 289438, Note_off_c, 5, 58, 80
7, 289438, Note_off_c, 5, 61, 80
7, 289440, Note_on_c, 5, 58, 64
7, 289440, Note_on_c, 5, 61, 64
7, 289678, Note_off_c, 5, 46, 80
7, 289678, Note_off_c, 5, 58, 80
7, 289678, Note_off_c, 5, 61, 80
7, 289680, Note_on_c, 5, 58, 64
7, 289680, Note_on_c, 5, 61, 64
7, 289920, Note_on_c, 5, 38, 64
7, 290398, Note_off_c, 5, 58, 80
7, 290398, Note_off_c, 5, 61, 80
7, 290400, Note_on_c, 5, 54, 64
7, 290400, Note_on_c, 5, 61, 64
7, 290878, Note_off_c, 5, 54, 80
7, 290878, Note_off_c, 5, 61, 80
7, 290880, Note_on_c, 5, 54, 64
7, 290880, Note_on_c, 5, 61, 64
7, 291118, Note_off_c, 5, 54, 80
7, 291118, Note_off_c, 5, 61, 80
7, 291120, Note_on_c, 5, 54, 64
7, 291120, Note_on_c, 5, 61, 64
7, 291598, Note_off_c, 5, 38, 80
7, 291600, Note_on_c, 5, 38, 64
7, 292078, Note_off_c, 5, 54, 80
7, 292078, Note_off_c, 5, 61, 80
7, 292080, Note_on_c, 5, 54, 64
7, 292080, Note_on_c, 5, 59, 64
7, 292558, Note_off_c, 5, 54, 80
7, 292558, Note_off_c, 5, 59, 80
7, 292560, Note_on_c, 5, 54, 64
7, 292560, Note_on_c, 5, 59, 64
7, 293038, Note_off_c, 5, 54, 80
7, 293038, Note_off_c, 5, 59, 80
7, 293040, Note_on_c, 5, 54, 64
7, 293040, Note_on_c, 5, 59, 64
7, 293278, Note_off_c, 5, 54, 80
7, 293278, Note_off_c, 5, 59, 80
7, 293280, Note_on_c, 5, 54, 64
7, 293280, Note_on_c, 5, 59, 64
7, 293518, Note_off_c, 5, 38, 80
7, 293518, Note_off_c, 5, 54, 80
7, 293518, Note_off_c, 5, 59, 80
7, 293520, Note_on_c, 5, 54, 64
7, 293520, Note_on_c, 5, 59, 64
7, 293760, Note_on_c, 5, 43, 64
7, 294238, Note_off_c, 5, 54, 80
7, 294238, Note_off_c, 5, 59, 80
7, 294240, Note_on_c, 5, 50, 64
7, 294240, Note_on_c, 5, 55, 64
7, 294718, Note_off_c, 5, 43, 80
7, 294720, Note_on_c, 5, 43, 64
7, 294958, Note_off_c, 5, 50, 80
7, 294958, Note_off_c, 5, 55, 80
7, 294960, Note_on_c, 5, 50, 64
7, 294960, Note_on_c, 5, 59, 64
7, 295438, Note_off_c, 5, 43, 80
7, 295440, Note_on_c, 5, 42, 64
7, 295918, Note_off_c, 5, 42, 80
7, 295920, Note_on_c, 5, 42, 64
7, 296158, Note_off_c, 5, 50, 80
7, 296158, Note_off_c, 5, 59, 80
7, 296160, Note_on_c, 5, 54, 64
7, 296160, Note_on_c, 5, 61, 64
7, 296398, Note_off_c, 5, 42, 80
7, 296400, Note_on_c, 5, 42, 64
7, 296638, Note_off_c, 5, 54, 80
7, 296638, Note_off_c, 5, 61, 80
7, 296640, Note_on_c, 5, 54, 64
7, 296640, Note_on_c, 5, 61, 64
7, 297118, Note_off_c, 5, 54, 80
7, 297118, Note_off_c, 5, 61, 80
7, 297120, Note_on_c, 5, 54, 64
7, 297120, Note_on_c, 5, 62, 64
7, 297598, Note_off_c, 5, 42, 80
7, 297600, Note_on_c, 5, 43, 64
7, 298078, Note_off_c, 5, 54, 80
7, 298078, Note_off_c, 5, 62, 80
7, 298080, Note_on_c, 5, 50, 64
7, 298080, Note_on_c, 5, 55, 64
7, 298558, Note_off_c, 5, 43, 80
7, 298560, Note_on_c, 5, 43, 64
7, 298798, Note_off_c, 5, 50, 80
7, 298798, Note_off_c, 5, 55, 80
7, 298800, Note_on_c, 5, 50, 64
7, 298800, Note_on_c, 5, 59, 64
7, 299278, Note_off_c, 5, 43, 80
7, 299280, Note_on_c, 5, 42, 64
7, 299758, Note_off_c, 5, 42, 80
7, 299760, Note_on_c, 5, 42, 64
7, 299998, Note_off_c, 5, 50, 80
7, 299998, Note_off_c, 5, 59, 80
7, 300000, Note_on_c, 5, 54, 64
7, 300000, Note_on_c, 5, 61, 64
7, 300238, Note_off_c, 5, 42, 80
7, 300240, Note_on_c, 5, 42, 64
7, 300478, Note_off_c, 5, 54, 80
7, 300478, Note_off_c, 5, 61, 80
7, 300480, Note_on_c, 5, 54, 64
7, 300480, Note_on_c, 5, 61, 64
7, 300958, Note_off_c, 5, 54, 80
7, 300958, Note_off_c, 5, 61, 80
7, 300960, Note_on_c, 5, 54, 64
7, 300960, Note_on_c, 5, 62, 64
7, 301440, Note_on_c, 5, 64, 32
7, 301678, Note_off_c, 5, 54, 80
7, 301680, Note_on_c, 5, 59, 32
7, 301918, Note_off_c, 5, 62, 80
7, 301920, Note_on_c, 5, 62, 32
7, 302158, Note_off_c, 5, 42, 80
7, 302158, Note_off_c, 5, 64, 80
7, 302160, Note_on_c, 5, 64, 32
7, 302398, Note_off_c, 5, 59, 80
7, 302400, Note_on_c, 5, 59, 32
7, 302638, Note_off_c, 5, 62, 80
7, 302640, Note_on_c, 5, 62, 32
7, 302878, Note_off_c, 5, 64, 80
7, 302880, Note_on_c, 5, 64, 32
7, 303118, Note_off_c, 5, 59, 80
7, 303118, Note_off_c, 5, 62, 80
7, 303120, Note_on_c, 5, 59, 19
7, 303120, Note_on_c, 5, 62, 32
7, 303358, Note_off_c, 5, 64, 80
7, 303360, Note_on_c, 5, 64, 32
7, 303598, Note_off_c, 5, 59, 80
7, 303600, Note_on_c, 5, 59, 32
7, 303838, Note_off_c, 5, 62, 80
7, 303840, Note_on_c, 5, 62, 32
7, 304078, Note_off_c, 5, 64, 80
7, 304080, Note_on_c, 5, 64, 32
7, 304318, Note_off_c, 5, 59, 80
7, 304320, Note_on_c, 5, 59, 32
7, 304558, Note_off_c, 5, 62, 80
7, 304560, Note_on_c, 5, 62, 32
7, 304798, Note_off_c, 5, 64, 80
7, 304800, Note_on_c, 5, 64, 32
7, 305038, Note_off_c, 5, 59, 80
7, 305038, Note_off_c, 5, 62, 80
7, 305040, Note_on_c, 5, 59, 19
7, 305040, Note_on_c, 5, 62, 32
7, 305278, Note_off_c, 5, 64, 80
7, 305280, Note_on_c, 5, 64, 32
7, 305518, Note_off_c, 5, 59, 80
7, 305520, Note_on_c, 5, 59, 32
7, 305758, Note_off_c, 5, 62, 80
7, 305760, Note_on_c, 5, 62, 32
7, 305998, Note_off_c, 5, 64, 80
7, 306000, Note_on_c, 5, 64, 32
7, 306238, Note_off_c, 5, 59, 80
7, 306240, Note_on_c, 5, 59, 32
7, 306478, Note_off_c, 5, 62, 80
7, 306480, Note_on_c, 5, 62, 32
7, 306718, Note_off_c, 5, 64, 80
7, 306720, Note_on_c, 5, 64, 32
7, 306958, Note_off_c, 5, 59, 80
7, 306958, Note_off_c, 5, 62, 80
7, 306960, Note_on_c, 5, 59, 19
7, 306960, Note_on_c, 5, 62, 32
7, 307198, Note_off_c, 5, 64, 80
7, 307200, Note_on_c, 5, 64, 32
7, 307438, Note_off_c, 5, 59, 80
7, 307440, Note_on_c, 5, 59, 32
7, 307678, Note_off_c, 5, 62, 80
7, 307680, Note_on_c, 5, 62, 32
7, 307918, Note_off_c, 5, 64, 80
7, 307920, Note_on_c, 5, 64, 32
7, 308158, Note_off_c, 5, 59, 80
7, 308160, Note_on_c, 5, 59, 32
7, 308398, Note_off_c, 5, 62, 80
7, 308400, Note_on_c, 5, 62, 32
7, 308638, Note_off_c, 5, 64, 80
7, 308640, Note_on_c, 5, 64, 32
7, 308878, Note_off_c, 5, 59, 80
7, 308878, Note_off_c, 5, 62, 80
7, 308880, Note_on_c, 5, 59, 19
7, 308880, Note_on_c, 5, 62, 32
7, 309118, Note_off_c, 5, 64, 80
7, 309120, Note_on_c, 5, 64, 32
7, 309358, Note_off_c, 5, 59, 80
7, 309360, Note_on_c, 5, 59, 32
7, 309598, Note_off_c, 5, 62, 80
7, 309600, Note_on_c, 5, 62, 32
7, 309838, Note_off_c, 5, 64, 80
7, 309840, Note_on_c, 5, 64, 32
7, 310078, Note_off_c, 5, 59, 80
7, 310080, Note_on_c, 5, 59, 32
7, 310318, Note_off_c, 5, 62, 80
7, 310320, Note_on_c, 5, 62, 32
7, 310558, Note_off_c, 5, 64, 80
7, 310560, Note_on_c, 5, 64, 32
7, 310798, Note_off_c, 5, 59, 80
7, 310798, Note_off_c, 5, 62, 80
7, 310800, Note_on_c, 5, 59, 19
7, 310800, Note_on_c, 5, 62, 32
7, 311038, Note_off_c, 5, 64, 80
7, 311040, Note_on_c, 5, 64, 32
7, 311278, Note_off_c, 5, 59, 80
7, 311280, Note_on_c, 5, 59, 32
7, 311518, Note_off_c, 5, 62, 80
7, 311520, Note_on_c, 5, 62, 32
7, 311758, Note_off_c, 5, 64, 80
7, 311760, Note_on_c, 5, 64, 32
7, 311998, Note_off_c, 5, 59, 80
7, 312000, Note_on_c, 5, 59, 32
7, 312238, Note_off_c, 5, 62, 80
7, 312240, Note_on_c, 5, 62, 32
7, 312478, Note_off_c, 5, 64, 80
7, 312480, Note_on_c, 5, 64, 32
7, 312718, Note_off_c, 5, 59, 80
7, 312718, Note_off_c, 5, 62, 80
7, 312720, Note_on_c, 5, 59, 19
7, 312720, Note_on_c, 5, 62, 32
7, 312958, Note_off_c, 5, 64, 80
7, 312960, Note_on_c, 5, 64, 32
7, 313198, Note_off_c, 5, 59, 80
7, 313200, Note_on_c, 5, 59, 32
7, 313438, Note_off_c, 5, 62, 80
7, 313440, Note_on_c, 5, 62, 32
7, 313678, Note_off_c, 5, 64, 80
7, 313680, Note_on_c, 5, 64, 32
7, 313918, Note_off_c, 5, 59, 80
7, 313920, Note_on_c, 5, 59, 32
7, 314158, Note_off_c, 5, 62, 80
7, 314160, Note_on_c, 5, 62, 32
7, 314398, Note_off_c, 5, 64, 80
7, 314400, Note_on_c, 5, 64, 32
7, 314638, Note_off_c, 5, 59, 80
7, 314638, Note_off_c, 5, 62, 80
7, 314640, Note_on_c, 5, 59, 19
7, 314640, Note_on_c, 5, 62, 32
7, 314878, Note_off_c, 5, 64, 80
7, 314880, Note_on_c, 5, 64, 32
7, 315118, Note_off_c, 5, 59, 80
7, 315120, Note_on_c, 5, 59, 32
7, 315358, Note_off_c, 5, 62, 80
7, 315360, Note_on_c, 5, 62, 32
7, 315598, Note_off_c, 5, 64, 80
7, 315600, Note_on_c, 5, 64, 32
7, 315838, Note_off_c, 5, 59, 80
7, 315840, Note_on_c, 5, 59, 32
7, 316078, Note_off_c, 5, 62, 80
7, 316080, Note_on_c, 5, 62, 32
7, 316318, Note_off_c, 5, 64, 80
7, 316320, Note_on_c, 5, 64, 32
7, 316558, Note_off_c, 5, 59, 80
7, 316558, Note_off_c, 5, 62, 80
7, 316560, Note_on_c, 5, 59, 19
7, 316560, Note_on_c, 5, 62, 32
7, 316798, Note_off_c, 5, 64, 80
7, 316798, Note_off_c, 5, 59, 80
7, 316798, Note_off_c, 5, 62, 80
7, 316800, Note_on_c, 5, 64, 64
7, 316880, Note_on_c, 5, 62, 64
7, 316960, Note_on_c, 5, 59, 64
7, 320638, Note_off_c, 5, 64, 80
7, 320638, Note_off_c, 5, 59, 80
7, 320638, Note_off_c, 5, 62, 80
7, 320638, End_track
8, 0, Start_track
8, 0, Title_t, "Selway"
8, 780, Control_c, 9, 121, 0
8, 780, Control_c, 9, 123, 0
8, 840, Program_c, 9, 0
8, 840, Control_c, 9, 7, 120
8, 1920, Note_on_c, 9, 42, 95
8, 2158, Note_off_c, 9, 42, 80
8, 2160, Note_on_c, 9, 37, 50
8, 2398, Note_off_c, 9, 37, 80
8, 2400, Note_on_c, 9, 42, 95
8, 2638, Note_off_c, 9, 42, 80
8, 2640, Note_on_c, 9, 37, 50
8, 2878, Note_off_c, 9, 37, 80
8, 2880, Note_on_c, 9, 42, 95
8, 3118, Note_off_c, 9, 42, 80
8, 3120, Note_on_c, 9, 37, 50
8, 3358, Note_off_c, 9, 37, 80
8, 3360, Note_on_c, 9, 42, 95
8, 3598, Note_off_c, 9, 42, 80
8, 3600, Note_on_c, 9, 37, 50
8, 3838, Note_off_c, 9, 37, 80
8, 3840, Note_on_c, 9, 42, 95
8, 4078, Note_off_c, 9, 42, 80
8, 4080, Note_on_c, 9, 37, 50
8, 4318, Note_off_c, 9, 37, 80
8, 4320, Note_on_c, 9, 42, 95
8, 4558, Note_off_c, 9, 42, 80
8, 4560, Note_on_c, 9, 37, 50
8, 4798, Note_off_c, 9, 37, 80
8, 4800, Note_on_c, 9, 42, 95
8, 5038, Note_off_c, 9, 42, 80
8, 5040, Note_on_c, 9, 37, 50
8, 5278, Note_off_c, 9, 37, 80
8, 5280, Note_on_c, 9, 42, 95
8, 5518, Note_off_c, 9, 42, 80
8, 5520, Note_on_c, 9, 37, 50
8, 5758, Note_off_c, 9, 37, 80
8, 5760, Note_on_c, 9, 42, 95
8, 5998, Note_off_c, 9, 42, 80
8, 6000, Note_on_c, 9, 37, 50
8, 6238, Note_off_c, 9, 37, 80
8, 6240, Note_on_c, 9, 42, 95
8, 6478, Note_off_c, 9, 42, 80
8, 6480, Note_on_c, 9, 37, 50
8, 6718, Note_off_c, 9, 37, 80
8, 6720, Note_on_c, 9, 42, 95
8, 6958, Note_off_c, 9, 42, 80
8, 6960, Note_on_c, 9, 37, 50
8, 7198, Note_off_c, 9, 37, 80
8, 7200, Note_on_c, 9, 42, 95
8, 7438, Note_off_c, 9, 42, 80
8, 7440, Note_on_c, 9, 37, 50
8, 7678, Note_off_c, 9, 37, 80
8, 7680, Note_on_c, 9, 42, 95
8, 7918, Note_off_c, 9, 42, 80
8, 7920, Note_on_c, 9, 37, 50
8, 8158, Note_off_c, 9, 37, 80
8, 8160, Note_on_c, 9, 42, 95
8, 8398, Note_off_c, 9, 42, 80
8, 8400, Note_on_c, 9, 37, 50
8, 8638, Note_off_c, 9, 37, 80
8, 8640, Note_on_c, 9, 42, 95
8, 8878, Note_off_c, 9, 42, 80
8, 8880, Note_on_c, 9, 37, 50
8, 9118, Note_off_c, 9, 37, 80
8, 9120, Note_on_c, 9, 42, 95
8, 9358, Note_off_c, 9, 42, 80
8, 9360, Note_on_c, 9, 37, 50
8, 9598, Note_off_c, 9, 37, 80
8, 9600, Note_on_c, 9, 42, 95
8, 9838, Note_off_c, 9, 42, 80
8, 9840, Note_on_c, 9, 37, 50
8, 10078, Note_off_c, 9, 37, 80
8, 10080, Note_on_c, 9, 42, 95
8, 10318, Note_off_c, 9, 42, 80
8, 10320, Note_on_c, 9, 37, 50
8, 10558, Note_off_c, 9, 37, 80
8, 10560, Note_on_c, 9, 42, 95
8, 10798, Note_off_c, 9, 42, 80
8, 10800, Note_on_c, 9, 37, 50
8, 11038, Note_off_c, 9, 37, 80
8, 11040, Note_on_c, 9, 42, 95
8, 11278, Note_off_c, 9, 42, 80
8, 11280, Note_on_c, 9, 37, 50
8, 11518, Note_off_c, 9, 37, 80
8, 11520, Note_on_c, 9, 42, 95
8, 11758, Note_off_c, 9, 42, 80
8, 11760, Note_on_c, 9, 37, 50
8, 11998, Note_off_c, 9, 37, 80
8, 12000, Note_on_c, 9, 42, 95
8, 12238, Note_off_c, 9, 42, 80
8, 12240, Note_on_c, 9, 37, 50
8, 12478, Note_off_c, 9, 37, 80
8, 12480, Note_on_c, 9, 42, 95
8, 12718, Note_off_c, 9, 42, 80
8, 12720, Note_on_c, 9, 37, 50
8, 12958, Note_off_c, 9, 37, 80
8, 12960, Note_on_c, 9, 42, 95
8, 13198, Note_off_c, 9, 42, 80
8, 13200, Note_on_c, 9, 37, 50
8, 13438, Note_off_c, 9, 37, 80
8, 13440, Note_on_c, 9, 42, 95
8, 13678, Note_off_c, 9, 42, 80
8, 13680, Note_on_c, 9, 37, 63
8, 13918, Note_off_c, 9, 37, 80
8, 13920, Note_on_c, 9, 42, 95
8, 14158, Note_off_c, 9, 42, 80
8, 14160, Note_on_c, 9, 37, 63
8, 14398, Note_off_c, 9, 37, 80
8, 14400, Note_on_c, 9, 42, 95
8, 14638, Note_off_c, 9, 42, 80
8, 14640, Note_on_c, 9, 37, 63
8, 14878, Note_off_c, 9, 37, 80
8, 14880, Note_on_c, 9, 42, 95
8, 15118, Note_off_c, 9, 42, 80
8, 15120, Note_on_c, 9, 37, 63
8, 15358, Note_off_c, 9, 37, 80
8, 15360, Note_on_c, 9, 42, 95
8, 15598, Note_off_c, 9, 42, 80
8, 15600, Note_on_c, 9, 37, 63
8, 15838, Note_off_c, 9, 37, 80
8, 15840, Note_on_c, 9, 42, 95
8, 16078, Note_off_c, 9, 42, 80
8, 16080, Note_on_c, 9, 37, 63
8, 16318, Note_off_c, 9, 37, 80
8, 16320, Note_on_c, 9, 42, 95
8, 16558, Note_off_c, 9, 42, 80
8, 16560, Note_on_c, 9, 37, 63
8, 16798, Note_off_c, 9, 37, 80
8, 16800, Note_on_c, 9, 42, 95
8, 17038, Note_off_c, 9, 42, 80
8, 17040, Note_on_c, 9, 37, 63
8, 17278, Note_off_c, 9, 37, 80
8, 17280, Note_on_c, 9, 42, 95
8, 17518, Note_off_c, 9, 42, 80
8, 17520, Note_on_c, 9, 37, 63
8, 17758, Note_off_c, 9, 37, 80
8, 17760, Note_on_c, 9, 42, 95
8, 17998, Note_off_c, 9, 42, 80
8, 18000, Note_on_c, 9, 37, 63
8, 18238, Note_off_c, 9, 37, 80
8, 18240, Note_on_c, 9, 42, 95
8, 18478, Note_off_c, 9, 42, 80
8, 18480, Note_on_c, 9, 37, 63
8, 18718, Note_off_c, 9, 37, 80
8, 18720, Note_on_c, 9, 42, 95
8, 18958, Note_off_c, 9, 42, 80
8, 18960, Note_on_c, 9, 37, 63
8, 19198, Note_off_c, 9, 37, 80
8, 19200, Note_on_c, 9, 42, 95
8, 19438, Note_off_c, 9, 42, 80
8, 19440, Note_on_c, 9, 37, 76
8, 19678, Note_off_c, 9, 37, 80
8, 19680, Note_on_c, 9, 42, 95
8, 19918, Note_off_c, 9, 42, 80
8, 19920, Note_on_c, 9, 37, 76
8, 20158, Note_off_c, 9, 37, 80
8, 20160, Note_on_c, 9, 42, 95
8, 20398, Note_off_c, 9, 42, 80
8, 20400, Note_on_c, 9, 37, 76
8, 20638, Note_off_c, 9, 37, 80
8, 20640, Note_on_c, 9, 42, 95
8, 20878, Note_off_c, 9, 42, 80
8, 20880, Note_on_c, 9, 37, 76
8, 21118, Note_off_c, 9, 37, 80
8, 21120, Note_on_c, 9, 42, 95
8, 21358, Note_off_c, 9, 42, 80
8, 21360, Note_on_c, 9, 37, 76
8, 21598, Note_off_c, 9, 37, 80
8, 21600, Note_on_c, 9, 42, 95
8, 21838, Note_off_c, 9, 42, 80
8, 21840, Note_on_c, 9, 37, 76
8, 22078, Note_off_c, 9, 37, 80
8, 22080, Note_on_c, 9, 42, 95
8, 22318, Note_off_c, 9, 42, 80
8, 22320, Note_on_c, 9, 37, 76
8, 22558, Note_off_c, 9, 37, 80
8, 22560, Note_on_c, 9, 42, 95
8, 22798, Note_off_c, 9, 42, 80
8, 22800, Note_on_c, 9, 37, 76
8, 23038, Note_off_c, 9, 37, 80
8, 23040, Note_on_c, 9, 42, 95
8, 23278, Note_off_c, 9, 42, 80
8, 23280, Note_on_c, 9, 37, 76
8, 23518, Note_off_c, 9, 37, 80
8, 23520, Note_on_c, 9, 42, 95
8, 23758, Note_off_c, 9, 42, 80
8, 23760, Note_on_c, 9, 37, 76
8, 23998, Note_off_c, 9, 37, 80
8, 24000, Note_on_c, 9, 42, 95
8, 24238, Note_off_c, 9, 42, 80
8, 24240, Note_on_c, 9, 37, 76
8, 24478, Note_off_c, 9, 37, 80
8, 24480, Note_on_c, 9, 42, 95
8, 24718, Note_off_c, 9, 42, 80
8, 24720, Note_on_c, 9, 37, 76
8, 24958, Note_off_c, 9, 37, 80
8, 24960, Control_c, 9, 10, 64
8, 24960, Control_c, 9, 93, 48
8, 24960, Note_on_c, 9, 36, 95
8, 24960, Note_on_c, 9, 42, 95
8, 24960, Note_on_c, 9, 49, 95
8, 25198, Note_off_c, 9, 36, 80
8, 25198, Note_off_c, 9, 42, 80
8, 25198, Note_off_c, 9, 49, 80
8, 25200, Note_on_c, 9, 42, 95
8, 25438, Note_off_c, 9, 42, 80
8, 25440, Note_on_c, 9, 40, 95
8, 25440, Note_on_c, 9, 42, 95
8, 25678, Note_off_c, 9, 40, 80
8, 25678, Note_off_c, 9, 42, 80
8, 25680, Note_on_c, 9, 42, 95
8, 25918, Note_off_c, 9, 42, 80
8, 25920, Note_on_c, 9, 36, 95
8, 25920, Note_on_c, 9, 42, 95
8, 26158, Note_off_c, 9, 36, 80
8, 26158, Note_off_c, 9, 42, 80
8, 26160, Note_on_c, 9, 42, 95
8, 26398, Note_off_c, 9, 42, 80
8, 26400, Note_on_c, 9, 40, 95
8, 26400, Note_on_c, 9, 42, 95
8, 26638, Note_off_c, 9, 40, 80
8, 26638, Note_off_c, 9, 42, 80
8, 26640, Note_on_c, 9, 36, 95
8, 26640, Note_on_c, 9, 42, 95
8, 26878, Note_off_c, 9, 36, 80
8, 26878, Note_off_c, 9, 42, 80
8, 26880, Note_on_c, 9, 36, 95
8, 26880, Note_on_c, 9, 42, 95
8, 27118, Note_off_c, 9, 36, 80
8, 27118, Note_off_c, 9, 42, 80
8, 27120, Note_on_c, 9, 42, 95
8, 27358, Note_off_c, 9, 42, 80
8, 27360, Note_on_c, 9, 40, 95
8, 27360, Note_on_c, 9, 42, 95
8, 27598, Note_off_c, 9, 40, 80
8, 27598, Note_off_c, 9, 42, 80
8, 27600, Note_on_c, 9, 42, 95
8, 27838, Note_off_c, 9, 42, 80
8, 27840, Note_on_c, 9, 36, 95
8, 27840, Note_on_c, 9, 42, 95
8, 28078, Note_off_c, 9, 36, 80
8, 28078, Note_off_c, 9, 42, 80
8, 28080, Note_on_c, 9, 42, 95
8, 28318, Note_off_c, 9, 42, 80
8, 28320, Note_on_c, 9, 40, 95
8, 28320, Note_on_c, 9, 42, 95
8, 28558, Note_off_c, 9, 40, 80
8, 28558, Note_off_c, 9, 42, 80
8, 28560, Note_on_c, 9, 36, 95
8, 28560, Note_on_c, 9, 42, 95
8, 28798, Note_off_c, 9, 36, 80
8, 28798, Note_off_c, 9, 42, 80
8, 28800, Note_on_c, 9, 36, 95
8, 28800, Note_on_c, 9, 42, 95
8, 29038, Note_off_c, 9, 36, 80
8, 29038, Note_off_c, 9, 42, 80
8, 29040, Note_on_c, 9, 42, 95
8, 29278, Note_off_c, 9, 42, 80
8, 29280, Note_on_c, 9, 40, 95
8, 29280, Note_on_c, 9, 42, 95
8, 29518, Note_off_c, 9, 40, 80
8, 29518, Note_off_c, 9, 42, 80
8, 29520, Note_on_c, 9, 42, 95
8, 29758, Note_off_c, 9, 42, 80
8, 29760, Note_on_c, 9, 36, 95
8, 29760, Note_on_c, 9, 42, 95
8, 29998, Note_off_c, 9, 36, 80
8, 29998, Note_off_c, 9, 42, 80
8, 30000, Note_on_c, 9, 42, 95
8, 30238, Note_off_c, 9, 42, 80
8, 30240, Note_on_c, 9, 40, 95
8, 30240, Note_on_c, 9, 42, 95
8, 30478, Note_off_c, 9, 40, 80
8, 30478, Note_off_c, 9, 42, 80
8, 30480, Note_on_c, 9, 36, 95
8, 30480, Note_on_c, 9, 42, 95
8, 30718, Note_off_c, 9, 36, 80
8, 30718, Note_off_c, 9, 42, 80
8, 30720, Note_on_c, 9, 36, 95
8, 30720, Note_on_c, 9, 42, 95
8, 30958, Note_off_c, 9, 36, 80
8, 30958, Note_off_c, 9, 42, 80
8, 30960, Note_on_c, 9, 42, 95
8, 31198, Note_off_c, 9, 42, 80
8, 31200, Note_on_c, 9, 40, 95
8, 31200, Note_on_c, 9, 42, 95
8, 31438, Note_off_c, 9, 40, 80
8, 31438, Note_off_c, 9, 42, 80
8, 31440, Note_on_c, 9, 42, 95
8, 31678, Note_off_c, 9, 42, 80
8, 31680, Note_on_c, 9, 36, 95
8, 31680, Note_on_c, 9, 42, 95
8, 31918, Note_off_c, 9, 36, 80
8, 31918, Note_off_c, 9, 42, 80
8, 31920, Note_on_c, 9, 42, 95
8, 32158, Note_off_c, 9, 42, 80
8, 32160, Note_on_c, 9, 40, 95
8, 32160, Note_on_c, 9, 42, 95
8, 32398, Note_off_c, 9, 40, 80
8, 32398, Note_off_c, 9, 42, 80
8, 32400, Note_on_c, 9, 36, 95
8, 32400, Note_on_c, 9, 42, 95
8, 32638, Note_off_c, 9, 36, 80
8, 32638, Note_off_c, 9, 42, 80
8, 32640, Note_on_c, 9, 36, 95
8, 32640, Note_on_c, 9, 42, 95
8, 32878, Note_off_c, 9, 36, 80
8, 32878, Note_off_c, 9, 42, 80
8, 32880, Note_on_c, 9, 42, 95
8, 33118, Note_off_c, 9, 42, 80
8, 33120, Note_on_c, 9, 40, 95
8, 33120, Note_on_c, 9, 42, 95
8, 33358, Note_off_c, 9, 40, 80
8, 33358, Note_off_c, 9, 42, 80
8, 33360, Note_on_c, 9, 42, 95
8, 33598, Note_off_c, 9, 42, 80
8, 33600, Note_on_c, 9, 36, 95
8, 33600, Note_on_c, 9, 42, 95
8, 33838, Note_off_c, 9, 36, 80
8, 33838, Note_off_c, 9, 42, 80
8, 33840, Note_on_c, 9, 42, 95
8, 34078, Note_off_c, 9, 42, 80
8, 34080, Note_on_c, 9, 40, 95
8, 34080, Note_on_c, 9, 42, 95
8, 34318, Note_off_c, 9, 40, 80
8, 34318, Note_off_c, 9, 42, 80
8, 34320, Note_on_c, 9, 36, 95
8, 34320, Note_on_c, 9, 42, 95
8, 34558, Note_off_c, 9, 36, 80
8, 34558, Note_off_c, 9, 42, 80
8, 34560, Note_on_c, 9, 36, 95
8, 34560, Note_on_c, 9, 42, 95
8, 34798, Note_off_c, 9, 36, 80
8, 34798, Note_off_c, 9, 42, 80
8, 34800, Note_on_c, 9, 42, 95
8, 35038, Note_off_c, 9, 42, 80
8, 35040, Note_on_c, 9, 40, 95
8, 35040, Note_on_c, 9, 42, 95
8, 35278, Note_off_c, 9, 40, 80
8, 35278, Note_off_c, 9, 42, 80
8, 35280, Note_on_c, 9, 42, 95
8, 35518, Note_off_c, 9, 42, 80
8, 35520, Note_on_c, 9, 36, 95
8, 35520, Note_on_c, 9, 42, 95
8, 35758, Note_off_c, 9, 36, 80
8, 35758, Note_off_c, 9, 42, 80
8, 35760, Note_on_c, 9, 42, 95
8, 35998, Note_off_c, 9, 42, 80
8, 36000, Note_on_c, 9, 40, 95
8, 36000, Note_on_c, 9, 42, 95
8, 36238, Note_off_c, 9, 40, 80
8, 36238, Note_off_c, 9, 42, 80
8, 36240, Note_on_c, 9, 36, 95
8, 36240, Note_on_c, 9, 42, 95
8, 36478, Note_off_c, 9, 36, 80
8, 36478, Note_off_c, 9, 42, 80
8, 36480, Note_on_c, 9, 36, 95
8, 36480, Note_on_c, 9, 42, 95
8, 36718, Note_off_c, 9, 36, 80
8, 36718, Note_off_c, 9, 42, 80
8, 36720, Note_on_c, 9, 42, 95
8, 36958, Note_off_c, 9, 42, 80
8, 36960, Note_on_c, 9, 40, 95
8, 36960, Note_on_c, 9, 42, 95
8, 37198, Note_off_c, 9, 40, 80
8, 37198, Note_off_c, 9, 42, 80
8, 37200, Note_on_c, 9, 42, 95
8, 37438, Note_off_c, 9, 42, 80
8, 37440, Note_on_c, 9, 36, 95
8, 37440, Note_on_c, 9, 42, 95
8, 37678, Note_off_c, 9, 36, 80
8, 37678, Note_off_c, 9, 42, 80
8, 37680, Note_on_c, 9, 42, 95
8, 37918, Note_off_c, 9, 42, 80
8, 37920, Note_on_c, 9, 40, 95
8, 37920, Note_on_c, 9, 42, 95
8, 38158, Note_off_c, 9, 40, 80
8, 38158, Note_off_c, 9, 42, 80
8, 38160, Note_on_c, 9, 36, 95
8, 38160, Note_on_c, 9, 42, 95
8, 38398, Note_off_c, 9, 36, 80
8, 38398, Note_off_c, 9, 42, 80
8, 38400, Note_on_c, 9, 36, 95
8, 38400, Note_on_c, 9, 42, 95
8, 38638, Note_off_c, 9, 36, 80
8, 38638, Note_off_c, 9, 42, 80
8, 38640, Note_on_c, 9, 42, 95
8, 38878, Note_off_c, 9, 42, 80
8, 38880, Note_on_c, 9, 40, 95
8, 38880, Note_on_c, 9, 42, 95
8, 39118, Note_off_c, 9, 40, 80
8, 39118, Note_off_c, 9, 42, 80
8, 39120, Note_on_c, 9, 42, 95
8, 39358, Note_off_c, 9, 42, 80
8, 39360, Note_on_c, 9, 36, 95
8, 39360, Note_on_c, 9, 42, 95
8, 39598, Note_off_c, 9, 36, 80
8, 39598, Note_off_c, 9, 42, 80
8, 39600, Note_on_c, 9, 42, 95
8, 39838, Note_off_c, 9, 42, 80
8, 39840, Note_on_c, 9, 40, 95
8, 39840, Note_on_c, 9, 42, 95
8, 40078, Note_off_c, 9, 40, 80
8, 40078, Note_off_c, 9, 42, 80
8, 40080, Note_on_c, 9, 36, 95
8, 40080, Note_on_c, 9, 42, 95
8, 40318, Note_off_c, 9, 36, 80
8, 40318, Note_off_c, 9, 42, 80
8, 40320, Note_on_c, 9, 36, 95
8, 40320, Note_on_c, 9, 42, 95
8, 40558, Note_off_c, 9, 36, 80
8, 40558, Note_off_c, 9, 42, 80
8, 40560, Note_on_c, 9, 42, 95
8, 40798, Note_off_c, 9, 42, 80
8, 40800, Note_on_c, 9, 40, 95
8, 40800, Note_on_c, 9, 42, 95
8, 41038, Note_off_c, 9, 40, 80
8, 41038, Note_off_c, 9, 42, 80
8, 41040, Note_on_c, 9, 42, 95
8, 41278, Note_off_c, 9, 42, 80
8, 41280, Note_on_c, 9, 36, 95
8, 41280, Note_on_c, 9, 42, 95
8, 41518, Note_off_c, 9, 36, 80
8, 41518, Note_off_c, 9, 42, 80
8, 41520, Note_on_c, 9, 42, 95
8, 41758, Note_off_c, 9, 42, 80
8, 41760, Note_on_c, 9, 40, 95
8, 41760, Note_on_c, 9, 42, 95
8, 41998, Note_off_c, 9, 40, 80
8, 41998, Note_off_c, 9, 42, 80
8, 42000, Note_on_c, 9, 36, 95
8, 42000, Note_on_c, 9, 42, 95
8, 42238, Note_off_c, 9, 36, 80
8, 42238, Note_off_c, 9, 42, 80
8, 42240, Note_on_c, 9, 36, 95
8, 42240, Note_on_c, 9, 42, 95
8, 42478, Note_off_c, 9, 36, 80
8, 42478, Note_off_c, 9, 42, 80
8, 42480, Note_on_c, 9, 42, 95
8, 42718, Note_off_c, 9, 42, 80
8, 42720, Note_on_c, 9, 40, 95
8, 42720, Note_on_c, 9, 42, 95
8, 42958, Note_off_c, 9, 40, 80
8, 42958, Note_off_c, 9, 42, 80
8, 42960, Note_on_c, 9, 42, 95
8, 43198, Note_off_c, 9, 42, 80
8, 43200, Note_on_c, 9, 36, 95
8, 43200, Note_on_c, 9, 42, 95
8, 43438, Note_off_c, 9, 36, 80
8, 43438, Note_off_c, 9, 42, 80
8, 43440, Note_on_c, 9, 42, 95
8, 43678, Note_off_c, 9, 42, 80
8, 43680, Note_on_c, 9, 40, 95
8, 43680, Note_on_c, 9, 42, 95
8, 43918, Note_off_c, 9, 40, 80
8, 43918, Note_off_c, 9, 42, 80
8, 43920, Note_on_c, 9, 36, 95
8, 43920, Note_on_c, 9, 42, 95
8, 44158, Note_off_c, 9, 36, 80
8, 44158, Note_off_c, 9, 42, 80
8, 44160, Note_on_c, 9, 36, 95
8, 44160, Note_on_c, 9, 42, 95
8, 44398, Note_off_c, 9, 36, 80
8, 44398, Note_off_c, 9, 42, 80
8, 44400, Note_on_c, 9, 42, 95
8, 44638, Note_off_c, 9, 42, 80
8, 44640, Note_on_c, 9, 40, 95
8, 44640, Note_on_c, 9, 42, 95
8, 44878, Note_off_c, 9, 40, 80
8, 44878, Note_off_c, 9, 42, 80
8, 44880, Note_on_c, 9, 42, 95
8, 45118, Note_off_c, 9, 42, 80
8, 45120, Note_on_c, 9, 36, 95
8, 45120, Note_on_c, 9, 42, 95
8, 45358, Note_off_c, 9, 36, 80
8, 45358, Note_off_c, 9, 42, 80
8, 45360, Note_on_c, 9, 42, 95
8, 45598, Note_off_c, 9, 42, 80
8, 45600, Note_on_c, 9, 40, 95
8, 45600, Note_on_c, 9, 42, 95
8, 45838, Note_off_c, 9, 40, 80
8, 45838, Note_off_c, 9, 42, 80
8, 45840, Note_on_c, 9, 36, 95
8, 45840, Note_on_c, 9, 42, 95
8, 46078, Note_off_c, 9, 36, 80
8, 46078, Note_off_c, 9, 42, 80
8, 46080, Note_on_c, 9, 36, 95
8, 46080, Note_on_c, 9, 42, 95
8, 46318, Note_off_c, 9, 36, 80
8, 46318, Note_off_c, 9, 42, 80
8, 46320, Note_on_c, 9, 42, 95
8, 46558, Note_off_c, 9, 42, 80
8, 46560, Note_on_c, 9, 40, 95
8, 46560, Note_on_c, 9, 42, 95
8, 46798, Note_off_c, 9, 40, 80
8, 46798, Note_off_c, 9, 42, 80
8, 46800, Note_on_c, 9, 42, 95
8, 47038, Note_off_c, 9, 42, 80
8, 47040, Note_on_c, 9, 36, 95
8, 47040, Note_on_c, 9, 42, 95
8, 47278, Note_off_c, 9, 36, 80
8, 47278, Note_off_c, 9, 42, 80
8, 47280, Note_on_c, 9, 42, 95
8, 47518, Note_off_c, 9, 42, 80
8, 47520, Note_on_c, 9, 40, 95
8, 47520, Note_on_c, 9, 42, 95
8, 47758, Note_off_c, 9, 40, 80
8, 47758, Note_off_c, 9, 42, 80
8, 47760, Note_on_c, 9, 36, 95
8, 47760, Note_on_c, 9, 42, 95
8, 47998, Note_off_c, 9, 36, 80
8, 47998, Note_off_c, 9, 42, 80
8, 48000, Note_on_c, 9, 36, 95
8, 48000, Note_on_c, 9, 42, 95
8, 48000, Note_on_c, 9, 49, 95
8, 48238, Note_off_c, 9, 36, 80
8, 48238, Note_off_c, 9, 42, 80
8, 48238, Note_off_c, 9, 49, 80
8, 48240, Note_on_c, 9, 42, 95
8, 48478, Note_off_c, 9, 42, 80
8, 48480, Note_on_c, 9, 40, 95
8, 48480, Note_on_c, 9, 42, 95
8, 48718, Note_off_c, 9, 40, 80
8, 48718, Note_off_c, 9, 42, 80
8, 48720, Note_on_c, 9, 42, 95
8, 48958, Note_off_c, 9, 42, 80
8, 48960, Note_on_c, 9, 36, 95
8, 48960, Note_on_c, 9, 42, 95
8, 49198, Note_off_c, 9, 36, 80
8, 49198, Note_off_c, 9, 42, 80
8, 49200, Note_on_c, 9, 42, 95
8, 49438, Note_off_c, 9, 42, 80
8, 49440, Note_on_c, 9, 40, 95
8, 49440, Note_on_c, 9, 42, 95
8, 49678, Note_off_c, 9, 40, 80
8, 49678, Note_off_c, 9, 42, 80
8, 49680, Note_on_c, 9, 36, 95
8, 49680, Note_on_c, 9, 42, 95
8, 49918, Note_off_c, 9, 36, 80
8, 49918, Note_off_c, 9, 42, 80
8, 49920, Note_on_c, 9, 36, 95
8, 49920, Note_on_c, 9, 42, 95
8, 50158, Note_off_c, 9, 36, 80
8, 50158, Note_off_c, 9, 42, 80
8, 50160, Note_on_c, 9, 42, 95
8, 50398, Note_off_c, 9, 42, 80
8, 50400, Note_on_c, 9, 40, 95
8, 50400, Note_on_c, 9, 42, 95
8, 50638, Note_off_c, 9, 40, 80
8, 50638, Note_off_c, 9, 42, 80
8, 50640, Note_on_c, 9, 42, 95
8, 50878, Note_off_c, 9, 42, 80
8, 50880, Note_on_c, 9, 36, 95
8, 50880, Note_on_c, 9, 42, 95
8, 51118, Note_off_c, 9, 36, 80
8, 51118, Note_off_c, 9, 42, 80
8, 51120, Note_on_c, 9, 42, 95
8, 51358, Note_off_c, 9, 42, 80
8, 51360, Note_on_c, 9, 40, 95
8, 51360, Note_on_c, 9, 42, 95
8, 51598, Note_off_c, 9, 40, 80
8, 51598, Note_off_c, 9, 42, 80
8, 51600, Note_on_c, 9, 36, 95
8, 51600, Note_on_c, 9, 42, 95
8, 51838, Note_off_c, 9, 36, 80
8, 51838, Note_off_c, 9, 42, 80
8, 51840, Note_on_c, 9, 36, 95
8, 51840, Note_on_c, 9, 42, 95
8, 52078, Note_off_c, 9, 36, 80
8, 52078, Note_off_c, 9, 42, 80
8, 52080, Note_on_c, 9, 42, 95
8, 52318, Note_off_c, 9, 42, 80
8, 52320, Note_on_c, 9, 40, 95
8, 52320, Note_on_c, 9, 42, 95
8, 52558, Note_off_c, 9, 40, 80
8, 52558, Note_off_c, 9, 42, 80
8, 52560, Note_on_c, 9, 42, 95
8, 52798, Note_off_c, 9, 42, 80
8, 52800, Note_on_c, 9, 36, 95
8, 52800, Note_on_c, 9, 42, 95
8, 53038, Note_off_c, 9, 36, 80
8, 53038, Note_off_c, 9, 42, 80
8, 53040, Note_on_c, 9, 42, 95
8, 53278, Note_off_c, 9, 42, 80
8, 53280, Note_on_c, 9, 40, 95
8, 53280, Note_on_c, 9, 42, 95
8, 53518, Note_off_c, 9, 40, 80
8, 53518, Note_off_c, 9, 42, 80
8, 53520, Note_on_c, 9, 36, 95
8, 53520, Note_on_c, 9, 42, 95
8, 53758, Note_off_c, 9, 36, 80
8, 53758, Note_off_c, 9, 42, 80
8, 53760, Note_on_c, 9, 36, 95
8, 53760, Note_on_c, 9, 42, 95
8, 53998, Note_off_c, 9, 36, 80
8, 53998, Note_off_c, 9, 42, 80
8, 54000, Note_on_c, 9, 42, 95
8, 54238, Note_off_c, 9, 42, 80
8, 54240, Note_on_c, 9, 40, 95
8, 54240, Note_on_c, 9, 42, 95
8, 54478, Note_off_c, 9, 40, 80
8, 54478, Note_off_c, 9, 42, 80
8, 54480, Note_on_c, 9, 42, 95
8, 54718, Note_off_c, 9, 42, 80
8, 54720, Note_on_c, 9, 36, 95
8, 54720, Note_on_c, 9, 42, 95
8, 54958, Note_off_c, 9, 36, 80
8, 54958, Note_off_c, 9, 42, 80
8, 54960, Note_on_c, 9, 42, 95
8, 55198, Note_off_c, 9, 42, 80
8, 55200, Note_on_c, 9, 40, 95
8, 55200, Note_on_c, 9, 42, 95
8, 55438, Note_off_c, 9, 40, 80
8, 55438, Note_off_c, 9, 42, 80
8, 55440, Note_on_c, 9, 36, 95
8, 55440, Note_on_c, 9, 42, 95
8, 55678, Note_off_c, 9, 36, 80
8, 55678, Note_off_c, 9, 42, 80
8, 55680, Note_on_c, 9, 36, 95
8, 55680, Note_on_c, 9, 42, 95
8, 55918, Note_off_c, 9, 36, 80
8, 55918, Note_off_c, 9, 42, 80
8, 55920, Note_on_c, 9, 42, 95
8, 56158, Note_off_c, 9, 42, 80
8, 56160, Note_on_c, 9, 40, 95
8, 56160, Note_on_c, 9, 42, 95
8, 56398, Note_off_c, 9, 40, 80
8, 56398, Note_off_c, 9, 42, 80
8, 56400, Note_on_c, 9, 42, 95
8, 56638, Note_off_c, 9, 42, 80
8, 56640, Note_on_c, 9, 36, 95
8, 56640, Note_on_c, 9, 42, 95
8, 56878, Note_off_c, 9, 36, 80
8, 56878, Note_off_c, 9, 42, 80
8, 56880, Note_on_c, 9, 42, 95
8, 57118, Note_off_c, 9, 42, 80
8, 57120, Note_on_c, 9, 40, 95
8, 57120, Note_on_c, 9, 42, 95
8, 57358, Note_off_c, 9, 40, 80
8, 57358, Note_off_c, 9, 42, 80
8, 57360, Note_on_c, 9, 36, 95
8, 57360, Note_on_c, 9, 42, 95
8, 57598, Note_off_c, 9, 36, 80
8, 57598, Note_off_c, 9, 42, 80
8, 57600, Note_on_c, 9, 36, 95
8, 57600, Note_on_c, 9, 42, 95
8, 57838, Note_off_c, 9, 36, 80
8, 57838, Note_off_c, 9, 42, 80
8, 57840, Note_on_c, 9, 42, 95
8, 58078, Note_off_c, 9, 42, 80
8, 58080, Note_on_c, 9, 40, 95
8, 58080, Note_on_c, 9, 42, 95
8, 58318, Note_off_c, 9, 40, 80
8, 58318, Note_off_c, 9, 42, 80
8, 58320, Note_on_c, 9, 42, 95
8, 58558, Note_off_c, 9, 42, 80
8, 58560, Note_on_c, 9, 36, 95
8, 58560, Note_on_c, 9, 42, 95
8, 58798, Note_off_c, 9, 36, 80
8, 58798, Note_off_c, 9, 42, 80
8, 58800, Note_on_c, 9, 42, 95
8, 59038, Note_off_c, 9, 42, 80
8, 59040, Note_on_c, 9, 40, 95
8, 59040, Note_on_c, 9, 42, 95
8, 59278, Note_off_c, 9, 40, 80
8, 59278, Note_off_c, 9, 42, 80
8, 59280, Note_on_c, 9, 36, 95
8, 59280, Note_on_c, 9, 42, 95
8, 59518, Note_off_c, 9, 36, 80
8, 59518, Note_off_c, 9, 42, 80
8, 59520, Note_on_c, 9, 36, 95
8, 59520, Note_on_c, 9, 42, 95
8, 59758, Note_off_c, 9, 36, 80
8, 59758, Note_off_c, 9, 42, 80
8, 59760, Note_on_c, 9, 42, 95
8, 59998, Note_off_c, 9, 42, 80
8, 60000, Note_on_c, 9, 40, 95
8, 60000, Note_on_c, 9, 42, 95
8, 60238, Note_off_c, 9, 40, 80
8, 60238, Note_off_c, 9, 42, 80
8, 60240, Note_on_c, 9, 42, 95
8, 60478, Note_off_c, 9, 42, 80
8, 60480, Note_on_c, 9, 36, 95
8, 60480, Note_on_c, 9, 42, 95
8, 60718, Note_off_c, 9, 36, 80
8, 60718, Note_off_c, 9, 42, 80
8, 60720, Note_on_c, 9, 42, 95
8, 60958, Note_off_c, 9, 42, 80
8, 60960, Note_on_c, 9, 40, 95
8, 60960, Note_on_c, 9, 42, 95
8, 61198, Note_off_c, 9, 40, 80
8, 61198, Note_off_c, 9, 42, 80
8, 61200, Note_on_c, 9, 36, 95
8, 61200, Note_on_c, 9, 42, 95
8, 61438, Note_off_c, 9, 36, 80
8, 61438, Note_off_c, 9, 42, 80
8, 61440, Note_on_c, 9, 36, 95
8, 61440, Note_on_c, 9, 42, 95
8, 61678, Note_off_c, 9, 36, 80
8, 61678, Note_off_c, 9, 42, 80
8, 61680, Note_on_c, 9, 42, 95
8, 61918, Note_off_c, 9, 42, 80
8, 61920, Note_on_c, 9, 40, 95
8, 61920, Note_on_c, 9, 42, 95
8, 62158, Note_off_c, 9, 40, 80
8, 62158, Note_off_c, 9, 42, 80
8, 62160, Note_on_c, 9, 42, 95
8, 62398, Note_off_c, 9, 42, 80
8, 62400, Note_on_c, 9, 36, 95
8, 62400, Note_on_c, 9, 42, 95
8, 62638, Note_off_c, 9, 36, 80
8, 62638, Note_off_c, 9, 42, 80
8, 62640, Note_on_c, 9, 42, 95
8, 62878, Note_off_c, 9, 42, 80
8, 62880, Note_on_c, 9, 40, 95
8, 62880, Note_on_c, 9, 42, 95
8, 63118, Note_off_c, 9, 40, 80
8, 63118, Note_off_c, 9, 42, 80
8, 63120, Note_on_c, 9, 36, 95
8, 63120, Note_on_c, 9, 42, 95
8, 63358, Note_off_c, 9, 36, 80
8, 63358, Note_off_c, 9, 42, 80
8, 63360, Note_on_c, 9, 36, 95
8, 63360, Note_on_c, 9, 42, 95
8, 63598, Note_off_c, 9, 36, 80
8, 63598, Note_off_c, 9, 42, 80
8, 63600, Note_on_c, 9, 42, 95
8, 63838, Note_off_c, 9, 42, 80
8, 63840, Note_on_c, 9, 40, 95
8, 63840, Note_on_c, 9, 42, 95
8, 64078, Note_off_c, 9, 40, 80
8, 64078, Note_off_c, 9, 42, 80
8, 64080, Note_on_c, 9, 42, 95
8, 64318, Note_off_c, 9, 42, 80
8, 64320, Note_on_c, 9, 36, 95
8, 64320, Note_on_c, 9, 42, 95
8, 64558, Note_off_c, 9, 36, 80
8, 64558, Note_off_c, 9, 42, 80
8, 64560, Note_on_c, 9, 42, 95
8, 64798, Note_off_c, 9, 42, 80
8, 64800, Note_on_c, 9, 40, 95
8, 64800, Note_on_c, 9, 42, 95
8, 65038, Note_off_c, 9, 40, 80
8, 65038, Note_off_c, 9, 42, 80
8, 65040, Note_on_c, 9, 36, 95
8, 65040, Note_on_c, 9, 42, 95
8, 65278, Note_off_c, 9, 36, 80
8, 65278, Note_off_c, 9, 42, 80
8, 65280, Note_on_c, 9, 36, 95
8, 65280, Note_on_c, 9, 42, 95
8, 65518, Note_off_c, 9, 36, 80
8, 65518, Note_off_c, 9, 42, 80
8, 65520, Note_on_c, 9, 42, 95
8, 65758, Note_off_c, 9, 42, 80
8, 65760, Note_on_c, 9, 40, 95
8, 65760, Note_on_c, 9, 42, 95
8, 65998, Note_off_c, 9, 40, 80
8, 65998, Note_off_c, 9, 42, 80
8, 66000, Note_on_c, 9, 42, 95
8, 66238, Note_off_c, 9, 42, 80
8, 66240, Note_on_c, 9, 36, 95
8, 66240, Note_on_c, 9, 42, 95
8, 66478, Note_off_c, 9, 36, 80
8, 66478, Note_off_c, 9, 42, 80
8, 66480, Note_on_c, 9, 42, 95
8, 66718, Note_off_c, 9, 42, 80
8, 66720, Note_on_c, 9, 40, 95
8, 66720, Note_on_c, 9, 42, 95
8, 66958, Note_off_c, 9, 40, 80
8, 66958, Note_off_c, 9, 42, 80
8, 66960, Note_on_c, 9, 36, 95
8, 66960, Note_on_c, 9, 42, 95
8, 67198, Note_off_c, 9, 36, 80
8, 67198, Note_off_c, 9, 42, 80
8, 67200, Note_on_c, 9, 36, 95
8, 67200, Note_on_c, 9, 42, 95
8, 67438, Note_off_c, 9, 36, 80
8, 67438, Note_off_c, 9, 42, 80
8, 67440, Note_on_c, 9, 42, 95
8, 67678, Note_off_c, 9, 42, 80
8, 67680, Note_on_c, 9, 40, 95
8, 67680, Note_on_c, 9, 42, 95
8, 67918, Note_off_c, 9, 40, 80
8, 67918, Note_off_c, 9, 42, 80
8, 67920, Note_on_c, 9, 42, 95
8, 68158, Note_off_c, 9, 42, 80
8, 68160, Note_on_c, 9, 36, 95
8, 68160, Note_on_c, 9, 42, 95
8, 68398, Note_off_c, 9, 36, 80
8, 68398, Note_off_c, 9, 42, 80
8, 68400, Note_on_c, 9, 42, 95
8, 68638, Note_off_c, 9, 42, 80
8, 68640, Note_on_c, 9, 40, 95
8, 68640, Note_on_c, 9, 42, 95
8, 68878, Note_off_c, 9, 40, 80
8, 68878, Note_off_c, 9, 42, 80
8, 68880, Note_on_c, 9, 36, 95
8, 68880, Note_on_c, 9, 42, 95
8, 69118, Note_off_c, 9, 36, 80
8, 69118, Note_off_c, 9, 42, 80
8, 69120, Note_on_c, 9, 36, 95
8, 69120, Note_on_c, 9, 42, 95
8, 69358, Note_off_c, 9, 36, 80
8, 69358, Note_off_c, 9, 42, 80
8, 69360, Note_on_c, 9, 42, 95
8, 69598, Note_off_c, 9, 42, 80
8, 69600, Note_on_c, 9, 40, 95
8, 69600, Note_on_c, 9, 42, 95
8, 69838, Note_off_c, 9, 40, 80
8, 69838, Note_off_c, 9, 42, 80
8, 69840, Note_on_c, 9, 42, 95
8, 70078, Note_off_c, 9, 42, 80
8, 70080, Note_on_c, 9, 36, 95
8, 70080, Note_on_c, 9, 42, 95
8, 70318, Note_off_c, 9, 36, 80
8, 70318, Note_off_c, 9, 42, 80
8, 70320, Note_on_c, 9, 42, 95
8, 70558, Note_off_c, 9, 42, 80
8, 70560, Note_on_c, 9, 40, 95
8, 70560, Note_on_c, 9, 42, 95
8, 70798, Note_off_c, 9, 40, 80
8, 70798, Note_off_c, 9, 42, 80
8, 70800, Note_on_c, 9, 36, 95
8, 70800, Note_on_c, 9, 42, 95
8, 71038, Note_off_c, 9, 36, 80
8, 71038, Note_off_c, 9, 42, 80
8, 71040, Note_on_c, 9, 36, 95
8, 71040, Note_on_c, 9, 42, 95
8, 71278, Note_off_c, 9, 36, 80
8, 71278, Note_off_c, 9, 42, 80
8, 71280, Note_on_c, 9, 42, 95
8, 71518, Note_off_c, 9, 42, 80
8, 71520, Note_on_c, 9, 40, 95
8, 71520, Note_on_c, 9, 42, 95
8, 71758, Note_off_c, 9, 40, 80
8, 71758, Note_off_c, 9, 42, 80
8, 71760, Note_on_c, 9, 42, 95
8, 71998, Note_off_c, 9, 42, 80
8, 72000, Note_on_c, 9, 36, 95
8, 72000, Note_on_c, 9, 42, 95
8, 72238, Note_off_c, 9, 36, 80
8, 72238, Note_off_c, 9, 42, 80
8, 72240, Note_on_c, 9, 42, 95
8, 72478, Note_off_c, 9, 42, 80
8, 72480, Note_on_c, 9, 40, 95
8, 72480, Note_on_c, 9, 42, 95
8, 72718, Note_off_c, 9, 40, 80
8, 72718, Note_off_c, 9, 42, 80
8, 72720, Note_on_c, 9, 36, 95
8, 72720, Note_on_c, 9, 42, 95
8, 72958, Note_off_c, 9, 36, 80
8, 72958, Note_off_c, 9, 42, 80
8, 72960, Note_on_c, 9, 36, 95
8, 72960, Note_on_c, 9, 42, 95
8, 73198, Note_off_c, 9, 36, 80
8, 73198, Note_off_c, 9, 42, 80
8, 73200, Note_on_c, 9, 42, 95
8, 73438, Note_off_c, 9, 42, 80
8, 73440, Note_on_c, 9, 40, 95
8, 73440, Note_on_c, 9, 42, 95
8, 73678, Note_off_c, 9, 40, 80
8, 73678, Note_off_c, 9, 42, 80
8, 73680, Note_on_c, 9, 42, 95
8, 73918, Note_off_c, 9, 42, 80
8, 73920, Note_on_c, 9, 36, 95
8, 73920, Note_on_c, 9, 42, 95
8, 74158, Note_off_c, 9, 36, 80
8, 74158, Note_off_c, 9, 42, 80
8, 74160, Note_on_c, 9, 42, 95
8, 74398, Note_off_c, 9, 42, 80
8, 74400, Note_on_c, 9, 40, 95
8, 74400, Note_on_c, 9, 42, 95
8, 74638, Note_off_c, 9, 40, 80
8, 74638, Note_off_c, 9, 42, 80
8, 74640, Note_on_c, 9, 36, 95
8, 74640, Note_on_c, 9, 42, 95
8, 74878, Note_off_c, 9, 36, 80
8, 74878, Note_off_c, 9, 42, 80
8, 74880, Note_on_c, 9, 36, 95
8, 74880, Note_on_c, 9, 42, 95
8, 75118, Note_off_c, 9, 36, 80
8, 75118, Note_off_c, 9, 42, 80
8, 75120, Note_on_c, 9, 42, 95
8, 75358, Note_off_c, 9, 42, 80
8, 75360, Note_on_c, 9, 40, 95
8, 75360, Note_on_c, 9, 42, 95
8, 75598, Note_off_c, 9, 40, 80
8, 75598, Note_off_c, 9, 42, 80
8, 75600, Note_on_c, 9, 42, 95
8, 75838, Note_off_c, 9, 42, 80
8, 75840, Note_on_c, 9, 36, 95
8, 75840, Note_on_c, 9, 42, 95
8, 76078, Note_off_c, 9, 36, 80
8, 76078, Note_off_c, 9, 42, 80
8, 76080, Note_on_c, 9, 42, 95
8, 76318, Note_off_c, 9, 42, 80
8, 76320, Note_on_c, 9, 40, 95
8, 76320, Note_on_c, 9, 42, 95
8, 76558, Note_off_c, 9, 40, 80
8, 76558, Note_off_c, 9, 42, 80
8, 76560, Note_on_c, 9, 36, 95
8, 76560, Note_on_c, 9, 42, 95
8, 76798, Note_off_c, 9, 36, 80
8, 76798, Note_off_c, 9, 42, 80
8, 76800, Note_on_c, 9, 36, 95
8, 76800, Note_on_c, 9, 42, 95
8, 77038, Note_off_c, 9, 36, 80
8, 77038, Note_off_c, 9, 42, 80
8, 77040, Note_on_c, 9, 42, 95
8, 77278, Note_off_c, 9, 42, 80
8, 77280, Note_on_c, 9, 40, 95
8, 77280, Note_on_c, 9, 42, 95
8, 77518, Note_off_c, 9, 40, 80
8, 77518, Note_off_c, 9, 42, 80
8, 77520, Note_on_c, 9, 42, 95
8, 77758, Note_off_c, 9, 42, 80
8, 77760, Note_on_c, 9, 36, 95
8, 77760, Note_on_c, 9, 42, 95
8, 77998, Note_off_c, 9, 36, 80
8, 77998, Note_off_c, 9, 42, 80
8, 78000, Note_on_c, 9, 42, 95
8, 78238, Note_off_c, 9, 42, 80
8, 78240, Note_on_c, 9, 40, 95
8, 78240, Note_on_c, 9, 42, 95
8, 78478, Note_off_c, 9, 40, 80
8, 78478, Note_off_c, 9, 42, 80
8, 78480, Note_on_c, 9, 36, 95
8, 78480, Note_on_c, 9, 42, 95
8, 78718, Note_off_c, 9, 36, 80
8, 78718, Note_off_c, 9, 42, 80
8, 78720, Note_on_c, 9, 36, 95
8, 78720, Note_on_c, 9, 42, 95
8, 78720, Note_on_c, 9, 49, 95
8, 78958, Note_off_c, 9, 36, 80
8, 78958, Note_off_c, 9, 42, 80
8, 78958, Note_off_c, 9, 49, 80
8, 78960, Note_on_c, 9, 42, 95
8, 79198, Note_off_c, 9, 42, 80
8, 79200, Note_on_c, 9, 40, 95
8, 79200, Note_on_c, 9, 42, 95
8, 79438, Note_off_c, 9, 40, 80
8, 79438, Note_off_c, 9, 42, 80
8, 79440, Note_on_c, 9, 42, 95
8, 79678, Note_off_c, 9, 42, 80
8, 79680, Note_on_c, 9, 36, 95
8, 79680, Note_on_c, 9, 42, 95
8, 79918, Note_off_c, 9, 36, 80
8, 79918, Note_off_c, 9, 42, 80
8, 79920, Note_on_c, 9, 42, 95
8, 80158, Note_off_c, 9, 42, 80
8, 80160, Note_on_c, 9, 40, 95
8, 80160, Note_on_c, 9, 42, 95
8, 80398, Note_off_c, 9, 40, 80
8, 80398, Note_off_c, 9, 42, 80
8, 80400, Note_on_c, 9, 36, 95
8, 80400, Note_on_c, 9, 42, 95
8, 80638, Note_off_c, 9, 36, 80
8, 80638, Note_off_c, 9, 42, 80
8, 80640, Note_on_c, 9, 36, 95
8, 80640, Note_on_c, 9, 42, 95
8, 80878, Note_off_c, 9, 36, 80
8, 80878, Note_off_c, 9, 42, 80
8, 80880, Note_on_c, 9, 42, 95
8, 81118, Note_off_c, 9, 42, 80
8, 81120, Note_on_c, 9, 40, 95
8, 81120, Note_on_c, 9, 42, 95
8, 81358, Note_off_c, 9, 40, 80
8, 81358, Note_off_c, 9, 42, 80
8, 81360, Note_on_c, 9, 42, 95
8, 81598, Note_off_c, 9, 42, 80
8, 81600, Note_on_c, 9, 36, 95
8, 81600, Note_on_c, 9, 42, 95
8, 81838, Note_off_c, 9, 36, 80
8, 81838, Note_off_c, 9, 42, 80
8, 81840, Note_on_c, 9, 42, 95
8, 82078, Note_off_c, 9, 42, 80
8, 82080, Note_on_c, 9, 40, 95
8, 82080, Note_on_c, 9, 42, 95
8, 82318, Note_off_c, 9, 40, 80
8, 82318, Note_off_c, 9, 42, 80
8, 82320, Note_on_c, 9, 36, 95
8, 82320, Note_on_c, 9, 42, 95
8, 82558, Note_off_c, 9, 36, 80
8, 82558, Note_off_c, 9, 42, 80
8, 82560, Note_on_c, 9, 36, 95
8, 82560, Note_on_c, 9, 42, 95
8, 82798, Note_off_c, 9, 36, 80
8, 82798, Note_off_c, 9, 42, 80
8, 82800, Note_on_c, 9, 42, 95
8, 83038, Note_off_c, 9, 42, 80
8, 83040, Note_on_c, 9, 40, 95
8, 83040, Note_on_c, 9, 42, 95
8, 83278, Note_off_c, 9, 40, 80
8, 83278, Note_off_c, 9, 42, 80
8, 83280, Note_on_c, 9, 42, 95
8, 83518, Note_off_c, 9, 42, 80
8, 83520, Note_on_c, 9, 36, 95
8, 83520, Note_on_c, 9, 42, 95
8, 83758, Note_off_c, 9, 36, 80
8, 83758, Note_off_c, 9, 42, 80
8, 83760, Note_on_c, 9, 42, 95
8, 83998, Note_off_c, 9, 42, 80
8, 84000, Note_on_c, 9, 40, 95
8, 84000, Note_on_c, 9, 42, 95
8, 84238, Note_off_c, 9, 40, 80
8, 84238, Note_off_c, 9, 42, 80
8, 84240, Note_on_c, 9, 36, 95
8, 84240, Note_on_c, 9, 42, 95
8, 84478, Note_off_c, 9, 36, 80
8, 84478, Note_off_c, 9, 42, 80
8, 84480, Note_on_c, 9, 36, 95
8, 84480, Note_on_c, 9, 42, 95
8, 84718, Note_off_c, 9, 36, 80
8, 84718, Note_off_c, 9, 42, 80
8, 84720, Note_on_c, 9, 42, 95
8, 84958, Note_off_c, 9, 42, 80
8, 84960, Note_on_c, 9, 40, 95
8, 84960, Note_on_c, 9, 42, 95
8, 85198, Note_off_c, 9, 40, 80
8, 85198, Note_off_c, 9, 42, 80
8, 85200, Note_on_c, 9, 42, 95
8, 85438, Note_off_c, 9, 42, 80
8, 85440, Note_on_c, 9, 36, 95
8, 85440, Note_on_c, 9, 42, 95
8, 85678, Note_off_c, 9, 36, 80
8, 85678, Note_off_c, 9, 42, 80
8, 85680, Note_on_c, 9, 42, 95
8, 85918, Note_off_c, 9, 42, 80
8, 85920, Note_on_c, 9, 40, 95
8, 85920, Note_on_c, 9, 42, 95
8, 86158, Note_off_c, 9, 40, 80
8, 86158, Note_off_c, 9, 42, 80
8, 86160, Note_on_c, 9, 36, 95
8, 86160, Note_on_c, 9, 42, 95
8, 86398, Note_off_c, 9, 36, 80
8, 86398, Note_off_c, 9, 42, 80
8, 86400, Note_on_c, 9, 36, 95
8, 86400, Note_on_c, 9, 42, 95
8, 86638, Note_off_c, 9, 36, 80
8, 86638, Note_off_c, 9, 42, 80
8, 86640, Note_on_c, 9, 42, 95
8, 86878, Note_off_c, 9, 42, 80
8, 86880, Note_on_c, 9, 40, 95
8, 86880, Note_on_c, 9, 42, 95
8, 87118, Note_off_c, 9, 40, 80
8, 87118, Note_off_c, 9, 42, 80
8, 87120, Note_on_c, 9, 42, 95
8, 87358, Note_off_c, 9, 42, 80
8, 87360, Note_on_c, 9, 36, 95
8, 87360, Note_on_c, 9, 42, 95
8, 87598, Note_off_c, 9, 36, 80
8, 87598, Note_off_c, 9, 42, 80
8, 87600, Note_on_c, 9, 42, 95
8, 87838, Note_off_c, 9, 42, 80
8, 87840, Note_on_c, 9, 40, 95
8, 87840, Note_on_c, 9, 42, 95
8, 88078, Note_off_c, 9, 40, 80
8, 88078, Note_off_c, 9, 42, 80
8, 88080, Note_on_c, 9, 36, 95
8, 88080, Note_on_c, 9, 42, 95
8, 88318, Note_off_c, 9, 36, 80
8, 88318, Note_off_c, 9, 42, 80
8, 88320, Note_on_c, 9, 36, 95
8, 88320, Note_on_c, 9, 42, 95
8, 88558, Note_off_c, 9, 36, 80
8, 88558, Note_off_c, 9, 42, 80
8, 88560, Note_on_c, 9, 42, 95
8, 88798, Note_off_c, 9, 42, 80
8, 88800, Note_on_c, 9, 40, 95
8, 88800, Note_on_c, 9, 42, 95
8, 89038, Note_off_c, 9, 40, 80
8, 89038, Note_off_c, 9, 42, 80
8, 89040, Note_on_c, 9, 42, 95
8, 89278, Note_off_c, 9, 42, 80
8, 89280, Note_on_c, 9, 36, 95
8, 89280, Note_on_c, 9, 42, 95
8, 89518, Note_off_c, 9, 36, 80
8, 89518, Note_off_c, 9, 42, 80
8, 89520, Note_on_c, 9, 42, 95
8, 89758, Note_off_c, 9, 42, 80
8, 89760, Note_on_c, 9, 40, 95
8, 89760, Note_on_c, 9, 42, 95
8, 89998, Note_off_c, 9, 40, 80
8, 89998, Note_off_c, 9, 42, 80
8, 90000, Note_on_c, 9, 36, 95
8, 90000, Note_on_c, 9, 42, 95
8, 90238, Note_off_c, 9, 36, 80
8, 90238, Note_off_c, 9, 42, 80
8, 90240, Note_on_c, 9, 36, 95
8, 90240, Note_on_c, 9, 42, 95
8, 90478, Note_off_c, 9, 36, 80
8, 90478, Note_off_c, 9, 42, 80
8, 90480, Note_on_c, 9, 42, 95
8, 90718, Note_off_c, 9, 42, 80
8, 90720, Note_on_c, 9, 40, 95
8, 90720, Note_on_c, 9, 42, 95
8, 90958, Note_off_c, 9, 40, 80
8, 90958, Note_off_c, 9, 42, 80
8, 90960, Note_on_c, 9, 42, 95
8, 91198, Note_off_c, 9, 42, 80
8, 91200, Note_on_c, 9, 36, 95
8, 91200, Note_on_c, 9, 42, 95
8, 91438, Note_off_c, 9, 36, 80
8, 91438, Note_off_c, 9, 42, 80
8, 91440, Note_on_c, 9, 42, 95
8, 91678, Note_off_c, 9, 42, 80
8, 91680, Note_on_c, 9, 40, 95
8, 91680, Note_on_c, 9, 42, 95
8, 91918, Note_off_c, 9, 40, 80
8, 91918, Note_off_c, 9, 42, 80
8, 91920, Note_on_c, 9, 36, 95
8, 91920, Note_on_c, 9, 42, 95
8, 92158, Note_off_c, 9, 36, 80
8, 92158, Note_off_c, 9, 42, 80
8, 92160, Note_on_c, 9, 36, 95
8, 92160, Note_on_c, 9, 42, 95
8, 92398, Note_off_c, 9, 36, 80
8, 92398, Note_off_c, 9, 42, 80
8, 92400, Note_on_c, 9, 42, 95
8, 92638, Note_off_c, 9, 42, 80
8, 92640, Note_on_c, 9, 40, 95
8, 92640, Note_on_c, 9, 42, 95
8, 92878, Note_off_c, 9, 40, 80
8, 92878, Note_off_c, 9, 42, 80
8, 92880, Note_on_c, 9, 42, 95
8, 93118, Note_off_c, 9, 42, 80
8, 93120, Note_on_c, 9, 36, 95
8, 93120, Note_on_c, 9, 42, 95
8, 93358, Note_off_c, 9, 36, 80
8, 93358, Note_off_c, 9, 42, 80
8, 93360, Note_on_c, 9, 42, 95
8, 93598, Note_off_c, 9, 42, 80
8, 93600, Note_on_c, 9, 40, 95
8, 93600, Note_on_c, 9, 42, 95
8, 93838, Note_off_c, 9, 40, 80
8, 93838, Note_off_c, 9, 42, 80
8, 93840, Note_on_c, 9, 36, 95
8, 93840, Note_on_c, 9, 42, 95
8, 94078, Note_off_c, 9, 36, 80
8, 94078, Note_off_c, 9, 42, 80
8, 94080, Note_on_c, 9, 36, 95
8, 94080, Note_on_c, 9, 42, 95
8, 94318, Note_off_c, 9, 36, 80
8, 94318, Note_off_c, 9, 42, 80
8, 94320, Note_on_c, 9, 42, 95
8, 94558, Note_off_c, 9, 42, 80
8, 94560, Note_on_c, 9, 40, 95
8, 94560, Note_on_c, 9, 42, 95
8, 94798, Note_off_c, 9, 40, 80
8, 94798, Note_off_c, 9, 42, 80
8, 94800, Note_on_c, 9, 42, 95
8, 95038, Note_off_c, 9, 42, 80
8, 95040, Note_on_c, 9, 36, 95
8, 95040, Note_on_c, 9, 42, 95
8, 95278, Note_off_c, 9, 36, 80
8, 95278, Note_off_c, 9, 42, 80
8, 95280, Note_on_c, 9, 42, 95
8, 95518, Note_off_c, 9, 42, 80
8, 95520, Note_on_c, 9, 40, 95
8, 95520, Note_on_c, 9, 42, 95
8, 95758, Note_off_c, 9, 40, 80
8, 95758, Note_off_c, 9, 42, 80
8, 95760, Note_on_c, 9, 36, 95
8, 95760, Note_on_c, 9, 42, 95
8, 95998, Note_off_c, 9, 36, 80
8, 95998, Note_off_c, 9, 42, 80
8, 96000, Note_on_c, 9, 36, 95
8, 96000, Note_on_c, 9, 42, 95
8, 96238, Note_off_c, 9, 36, 80
8, 96238, Note_off_c, 9, 42, 80
8, 96240, Note_on_c, 9, 42, 95
8, 96478, Note_off_c, 9, 42, 80
8, 96480, Note_on_c, 9, 40, 95
8, 96480, Note_on_c, 9, 42, 95
8, 96718, Note_off_c, 9, 40, 80
8, 96718, Note_off_c, 9, 42, 80
8, 96720, Note_on_c, 9, 42, 95
8, 96958, Note_off_c, 9, 42, 80
8, 96960, Note_on_c, 9, 36, 95
8, 96960, Note_on_c, 9, 42, 95
8, 97198, Note_off_c, 9, 36, 80
8, 97198, Note_off_c, 9, 42, 80
8, 97200, Note_on_c, 9, 42, 95
8, 97438, Note_off_c, 9, 42, 80
8, 97440, Note_on_c, 9, 40, 95
8, 97440, Note_on_c, 9, 42, 95
8, 97678, Note_off_c, 9, 40, 80
8, 97678, Note_off_c, 9, 42, 80
8, 97680, Note_on_c, 9, 36, 95
8, 97680, Note_on_c, 9, 42, 95
8, 97918, Note_off_c, 9, 36, 80
8, 97918, Note_off_c, 9, 42, 80
8, 97920, Note_on_c, 9, 36, 95
8, 97920, Note_on_c, 9, 42, 95
8, 98158, Note_off_c, 9, 36, 80
8, 98158, Note_off_c, 9, 42, 80
8, 98160, Note_on_c, 9, 42, 95
8, 98398, Note_off_c, 9, 42, 80
8, 98400, Note_on_c, 9, 40, 95
8, 98400, Note_on_c, 9, 42, 95
8, 98638, Note_off_c, 9, 40, 80
8, 98638, Note_off_c, 9, 42, 80
8, 98640, Note_on_c, 9, 42, 95
8, 98878, Note_off_c, 9, 42, 80
8, 98880, Note_on_c, 9, 36, 95
8, 98880, Note_on_c, 9, 42, 95
8, 99118, Note_off_c, 9, 36, 80
8, 99118, Note_off_c, 9, 42, 80
8, 99120, Note_on_c, 9, 42, 95
8, 99358, Note_off_c, 9, 42, 80
8, 99360, Note_on_c, 9, 40, 95
8, 99360, Note_on_c, 9, 42, 95
8, 99598, Note_off_c, 9, 40, 80
8, 99598, Note_off_c, 9, 42, 80
8, 99600, Note_on_c, 9, 36, 95
8, 99600, Note_on_c, 9, 42, 95
8, 99838, Note_off_c, 9, 36, 80
8, 99838, Note_off_c, 9, 42, 80
8, 99840, Note_on_c, 9, 36, 95
8, 99840, Note_on_c, 9, 42, 95
8, 100078, Note_off_c, 9, 36, 80
8, 100078, Note_off_c, 9, 42, 80
8, 100080, Note_on_c, 9, 42, 95
8, 100318, Note_off_c, 9, 42, 80
8, 100320, Note_on_c, 9, 40, 95
8, 100320, Note_on_c, 9, 42, 95
8, 100558, Note_off_c, 9, 40, 80
8, 100558, Note_off_c, 9, 42, 80
8, 100560, Note_on_c, 9, 42, 95
8, 100798, Note_off_c, 9, 42, 80
8, 100800, Note_on_c, 9, 36, 95
8, 100800, Note_on_c, 9, 42, 95
8, 101038, Note_off_c, 9, 36, 80
8, 101038, Note_off_c, 9, 42, 80
8, 101040, Note_on_c, 9, 42, 95
8, 101278, Note_off_c, 9, 42, 80
8, 101280, Note_on_c, 9, 40, 95
8, 101280, Note_on_c, 9, 42, 95
8, 101518, Note_off_c, 9, 40, 80
8, 101518, Note_off_c, 9, 42, 80
8, 101520, Note_on_c, 9, 36, 95
8, 101520, Note_on_c, 9, 42, 95
8, 101758, Note_off_c, 9, 36, 80
8, 101758, Note_off_c, 9, 42, 80
8, 101760, Note_on_c, 9, 36, 95
8, 101760, Note_on_c, 9, 42, 95
8, 101998, Note_off_c, 9, 36, 80
8, 101998, Note_off_c, 9, 42, 80
8, 102000, Note_on_c, 9, 42, 95
8, 102238, Note_off_c, 9, 42, 80
8, 102240, Note_on_c, 9, 40, 95
8, 102240, Note_on_c, 9, 42, 95
8, 102478, Note_off_c, 9, 40, 80
8, 102478, Note_off_c, 9, 42, 80
8, 102480, Note_on_c, 9, 42, 95
8, 102718, Note_off_c, 9, 42, 80
8, 102720, Note_on_c, 9, 36, 95
8, 102720, Note_on_c, 9, 42, 95
8, 102958, Note_off_c, 9, 36, 80
8, 102958, Note_off_c, 9, 42, 80
8, 102960, Note_on_c, 9, 42, 95
8, 103198, Note_off_c, 9, 42, 80
8, 103200, Note_on_c, 9, 40, 95
8, 103200, Note_on_c, 9, 42, 95
8, 103438, Note_off_c, 9, 40, 80
8, 103438, Note_off_c, 9, 42, 80
8, 103440, Note_on_c, 9, 36, 95
8, 103440, Note_on_c, 9, 42, 95
8, 103678, Note_off_c, 9, 36, 80
8, 103678, Note_off_c, 9, 42, 80
8, 103680, Note_on_c, 9, 36, 95
8, 103680, Note_on_c, 9, 42, 95
8, 103918, Note_off_c, 9, 36, 80
8, 103918, Note_off_c, 9, 42, 80
8, 103920, Note_on_c, 9, 42, 95
8, 104158, Note_off_c, 9, 42, 80
8, 104160, Note_on_c, 9, 40, 95
8, 104160, Note_on_c, 9, 42, 95
8, 104398, Note_off_c, 9, 40, 80
8, 104398, Note_off_c, 9, 42, 80
8, 104400, Note_on_c, 9, 42, 95
8, 104638, Note_off_c, 9, 42, 80
8, 104640, Note_on_c, 9, 36, 95
8, 104640, Note_on_c, 9, 42, 95
8, 104878, Note_off_c, 9, 36, 80
8, 104878, Note_off_c, 9, 42, 80
8, 104880, Note_on_c, 9, 42, 95
8, 105118, Note_off_c, 9, 42, 80
8, 105120, Note_on_c, 9, 40, 95
8, 105120, Note_on_c, 9, 42, 95
8, 105358, Note_off_c, 9, 40, 80
8, 105358, Note_off_c, 9, 42, 80
8, 105360, Note_on_c, 9, 36, 95
8, 105360, Note_on_c, 9, 42, 95
8, 105598, Note_off_c, 9, 36, 80
8, 105598, Note_off_c, 9, 42, 80
8, 105600, Note_on_c, 9, 36, 95
8, 105600, Note_on_c, 9, 42, 95
8, 105838, Note_off_c, 9, 36, 80
8, 105838, Note_off_c, 9, 42, 80
8, 105840, Note_on_c, 9, 42, 95
8, 106078, Note_off_c, 9, 42, 80
8, 106080, Note_on_c, 9, 40, 95
8, 106080, Note_on_c, 9, 42, 95
8, 106318, Note_off_c, 9, 40, 80
8, 106318, Note_off_c, 9, 42, 80
8, 106320, Note_on_c, 9, 42, 95
8, 106558, Note_off_c, 9, 42, 80
8, 106560, Note_on_c, 9, 36, 95
8, 106560, Note_on_c, 9, 42, 95
8, 106798, Note_off_c, 9, 36, 80
8, 106798, Note_off_c, 9, 42, 80
8, 106800, Note_on_c, 9, 42, 95
8, 107038, Note_off_c, 9, 42, 80
8, 107040, Note_on_c, 9, 40, 95
8, 107040, Note_on_c, 9, 42, 95
8, 107278, Note_off_c, 9, 40, 80
8, 107278, Note_off_c, 9, 42, 80
8, 107280, Note_on_c, 9, 36, 95
8, 107280, Note_on_c, 9, 42, 95
8, 107518, Note_off_c, 9, 36, 80
8, 107518, Note_off_c, 9, 42, 80
8, 107520, Note_on_c, 9, 36, 95
8, 107520, Note_on_c, 9, 42, 95
8, 107758, Note_off_c, 9, 36, 80
8, 107758, Note_off_c, 9, 42, 80
8, 107760, Note_on_c, 9, 42, 95
8, 107998, Note_off_c, 9, 42, 80
8, 108000, Note_on_c, 9, 40, 95
8, 108000, Note_on_c, 9, 42, 95
8, 108238, Note_off_c, 9, 40, 80
8, 108238, Note_off_c, 9, 42, 80
8, 108240, Note_on_c, 9, 42, 95
8, 108478, Note_off_c, 9, 42, 80
8, 108480, Note_on_c, 9, 36, 95
8, 108480, Note_on_c, 9, 42, 95
8, 108718, Note_off_c, 9, 36, 80
8, 108718, Note_off_c, 9, 42, 80
8, 108720, Note_on_c, 9, 42, 95
8, 108958, Note_off_c, 9, 42, 80
8, 108960, Note_on_c, 9, 40, 95
8, 108960, Note_on_c, 9, 42, 95
8, 109198, Note_off_c, 9, 40, 80
8, 109198, Note_off_c, 9, 42, 80
8, 109200, Note_on_c, 9, 36, 95
8, 109200, Note_on_c, 9, 42, 95
8, 109438, Note_off_c, 9, 36, 80
8, 109438, Note_off_c, 9, 42, 80
8, 109440, Note_on_c, 9, 36, 95
8, 109440, Note_on_c, 9, 42, 95
8, 109440, Note_on_c, 9, 49, 95
8, 109678, Note_off_c, 9, 36, 80
8, 109678, Note_off_c, 9, 42, 80
8, 109678, Note_off_c, 9, 49, 80
8, 109680, Note_on_c, 9, 42, 95
8, 109918, Note_off_c, 9, 42, 80
8, 109920, Note_on_c, 9, 40, 95
8, 109920, Note_on_c, 9, 42, 95
8, 110158, Note_off_c, 9, 40, 80
8, 110158, Note_off_c, 9, 42, 80
8, 110160, Note_on_c, 9, 42, 95
8, 110398, Note_off_c, 9, 42, 80
8, 110400, Note_on_c, 9, 36, 95
8, 110400, Note_on_c, 9, 42, 95
8, 110638, Note_off_c, 9, 36, 80
8, 110638, Note_off_c, 9, 42, 80
8, 110640, Note_on_c, 9, 42, 95
8, 110878, Note_off_c, 9, 42, 80
8, 110880, Note_on_c, 9, 40, 95
8, 110880, Note_on_c, 9, 42, 95
8, 111118, Note_off_c, 9, 40, 80
8, 111118, Note_off_c, 9, 42, 80
8, 111120, Note_on_c, 9, 36, 95
8, 111120, Note_on_c, 9, 42, 95
8, 111358, Note_off_c, 9, 36, 80
8, 111358, Note_off_c, 9, 42, 80
8, 111360, Note_on_c, 9, 36, 95
8, 111360, Note_on_c, 9, 42, 95
8, 111598, Note_off_c, 9, 36, 80
8, 111598, Note_off_c, 9, 42, 80
8, 111600, Note_on_c, 9, 42, 95
8, 111838, Note_off_c, 9, 42, 80
8, 111840, Note_on_c, 9, 40, 95
8, 111840, Note_on_c, 9, 42, 95
8, 112078, Note_off_c, 9, 40, 80
8, 112078, Note_off_c, 9, 42, 80
8, 112080, Note_on_c, 9, 42, 95
8, 112318, Note_off_c, 9, 42, 80
8, 112320, Note_on_c, 9, 36, 95
8, 112320, Note_on_c, 9, 42, 95
8, 112558, Note_off_c, 9, 36, 80
8, 112558, Note_off_c, 9, 42, 80
8, 112560, Note_on_c, 9, 42, 95
8, 112798, Note_off_c, 9, 42, 80
8, 112800, Note_on_c, 9, 40, 95
8, 112800, Note_on_c, 9, 42, 95
8, 113038, Note_off_c, 9, 40, 80
8, 113038, Note_off_c, 9, 42, 80
8, 113040, Note_on_c, 9, 36, 95
8, 113040, Note_on_c, 9, 42, 95
8, 113278, Note_off_c, 9, 36, 80
8, 113278, Note_off_c, 9, 42, 80
8, 113280, Note_on_c, 9, 36, 95
8, 113280, Note_on_c, 9, 42, 95
8, 113518, Note_off_c, 9, 36, 80
8, 113518, Note_off_c, 9, 42, 80
8, 113520, Note_on_c, 9, 42, 95
8, 113758, Note_off_c, 9, 42, 80
8, 113760, Note_on_c, 9, 40, 95
8, 113760, Note_on_c, 9, 42, 95
8, 113998, Note_off_c, 9, 40, 80
8, 113998, Note_off_c, 9, 42, 80
8, 114000, Note_on_c, 9, 42, 95
8, 114238, Note_off_c, 9, 42, 80
8, 114240, Note_on_c, 9, 36, 95
8, 114240, Note_on_c, 9, 42, 95
8, 114478, Note_off_c, 9, 36, 80
8, 114478, Note_off_c, 9, 42, 80
8, 114480, Note_on_c, 9, 42, 95
8, 114718, Note_off_c, 9, 42, 80
8, 114720, Note_on_c, 9, 40, 95
8, 114720, Note_on_c, 9, 42, 95
8, 114958, Note_off_c, 9, 40, 80
8, 114958, Note_off_c, 9, 42, 80
8, 114960, Note_on_c, 9, 36, 95
8, 114960, Note_on_c, 9, 42, 95
8, 115198, Note_off_c, 9, 36, 80
8, 115198, Note_off_c, 9, 42, 80
8, 115200, Note_on_c, 9, 36, 95
8, 115200, Note_on_c, 9, 42, 95
8, 115438, Note_off_c, 9, 36, 80
8, 115438, Note_off_c, 9, 42, 80
8, 115440, Note_on_c, 9, 42, 95
8, 115678, Note_off_c, 9, 42, 80
8, 115680, Note_on_c, 9, 40, 95
8, 115680, Note_on_c, 9, 42, 95
8, 115918, Note_off_c, 9, 40, 80
8, 115918, Note_off_c, 9, 42, 80
8, 115920, Note_on_c, 9, 42, 95
8, 116158, Note_off_c, 9, 42, 80
8, 116160, Note_on_c, 9, 36, 95
8, 116160, Note_on_c, 9, 42, 95
8, 116398, Note_off_c, 9, 36, 80
8, 116398, Note_off_c, 9, 42, 80
8, 116400, Note_on_c, 9, 42, 95
8, 116638, Note_off_c, 9, 42, 80
8, 116640, Note_on_c, 9, 40, 95
8, 116640, Note_on_c, 9, 42, 95
8, 116878, Note_off_c, 9, 40, 80
8, 116878, Note_off_c, 9, 42, 80
8, 116880, Note_on_c, 9, 36, 95
8, 116880, Note_on_c, 9, 42, 95
8, 117118, Note_off_c, 9, 36, 80
8, 117118, Note_off_c, 9, 42, 80
8, 117120, Note_on_c, 9, 36, 95
8, 117120, Note_on_c, 9, 42, 95
8, 117358, Note_off_c, 9, 36, 80
8, 117358, Note_off_c, 9, 42, 80
8, 117360, Note_on_c, 9, 42, 95
8, 117598, Note_off_c, 9, 42, 80
8, 117600, Note_on_c, 9, 40, 95
8, 117600, Note_on_c, 9, 42, 95
8, 117838, Note_off_c, 9, 40, 80
8, 117838, Note_off_c, 9, 42, 80
8, 117840, Note_on_c, 9, 42, 95
8, 118078, Note_off_c, 9, 42, 80
8, 118080, Note_on_c, 9, 36, 95
8, 118080, Note_on_c, 9, 42, 95
8, 118318, Note_off_c, 9, 36, 80
8, 118318, Note_off_c, 9, 42, 80
8, 118320, Note_on_c, 9, 42, 95
8, 118558, Note_off_c, 9, 42, 80
8, 118560, Note_on_c, 9, 40, 95
8, 118560, Note_on_c, 9, 42, 95
8, 118798, Note_off_c, 9, 40, 80
8, 118798, Note_off_c, 9, 42, 80
8, 118800, Note_on_c, 9, 36, 95
8, 118800, Note_on_c, 9, 42, 95
8, 119038, Note_off_c, 9, 36, 80
8, 119038, Note_off_c, 9, 42, 80
8, 119040, Note_on_c, 9, 36, 95
8, 119040, Note_on_c, 9, 42, 95
8, 119278, Note_off_c, 9, 36, 80
8, 119278, Note_off_c, 9, 42, 80
8, 119280, Note_on_c, 9, 42, 95
8, 119518, Note_off_c, 9, 42, 80
8, 119520, Note_on_c, 9, 40, 95
8, 119520, Note_on_c, 9, 42, 95
8, 119758, Note_off_c, 9, 40, 80
8, 119758, Note_off_c, 9, 42, 80
8, 119760, Note_on_c, 9, 42, 95
8, 119998, Note_off_c, 9, 42, 80
8, 120000, Note_on_c, 9, 36, 95
8, 120000, Note_on_c, 9, 42, 95
8, 120238, Note_off_c, 9, 36, 80
8, 120238, Note_off_c, 9, 42, 80
8, 120240, Note_on_c, 9, 42, 95
8, 120478, Note_off_c, 9, 42, 80
8, 120480, Note_on_c, 9, 40, 95
8, 120480, Note_on_c, 9, 42, 95
8, 120718, Note_off_c, 9, 40, 80
8, 120718, Note_off_c, 9, 42, 80
8, 120720, Note_on_c, 9, 36, 95
8, 120720, Note_on_c, 9, 42, 95
8, 120958, Note_off_c, 9, 36, 80
8, 120958, Note_off_c, 9, 42, 80
8, 120960, Note_on_c, 9, 36, 95
8, 120960, Note_on_c, 9, 42, 95
8, 121198, Note_off_c, 9, 36, 80
8, 121198, Note_off_c, 9, 42, 80
8, 121200, Note_on_c, 9, 42, 95
8, 121438, Note_off_c, 9, 42, 80
8, 121440, Note_on_c, 9, 40, 95
8, 121440, Note_on_c, 9, 42, 95
8, 121678, Note_off_c, 9, 40, 80
8, 121678, Note_off_c, 9, 42, 80
8, 121680, Note_on_c, 9, 42, 95
8, 121918, Note_off_c, 9, 42, 80
8, 121920, Note_on_c, 9, 36, 95
8, 121920, Note_on_c, 9, 42, 95
8, 122158, Note_off_c, 9, 36, 80
8, 122158, Note_off_c, 9, 42, 80
8, 122160, Note_on_c, 9, 42, 95
8, 122398, Note_off_c, 9, 42, 80
8, 122400, Note_on_c, 9, 40, 95
8, 122400, Note_on_c, 9, 42, 95
8, 122638, Note_off_c, 9, 40, 80
8, 122638, Note_off_c, 9, 42, 80
8, 122640, Note_on_c, 9, 36, 95
8, 122640, Note_on_c, 9, 42, 95
8, 122878, Note_off_c, 9, 36, 80
8, 122878, Note_off_c, 9, 42, 80
8, 122880, Note_on_c, 9, 36, 95
8, 122880, Note_on_c, 9, 42, 95
8, 123118, Note_off_c, 9, 36, 80
8, 123118, Note_off_c, 9, 42, 80
8, 123120, Note_on_c, 9, 42, 95
8, 123358, Note_off_c, 9, 42, 80
8, 123360, Note_on_c, 9, 40, 95
8, 123360, Note_on_c, 9, 42, 95
8, 123598, Note_off_c, 9, 40, 80
8, 123598, Note_off_c, 9, 42, 80
8, 123600, Note_on_c, 9, 42, 95
8, 123838, Note_off_c, 9, 42, 80
8, 123840, Note_on_c, 9, 36, 95
8, 123840, Note_on_c, 9, 42, 95
8, 124078, Note_off_c, 9, 36, 80
8, 124078, Note_off_c, 9, 42, 80
8, 124080, Note_on_c, 9, 42, 95
8, 124318, Note_off_c, 9, 42, 80
8, 124320, Note_on_c, 9, 40, 95
8, 124320, Note_on_c, 9, 42, 95
8, 124558, Note_off_c, 9, 40, 80
8, 124558, Note_off_c, 9, 42, 80
8, 124560, Note_on_c, 9, 36, 95
8, 124560, Note_on_c, 9, 42, 95
8, 124798, Note_off_c, 9, 36, 80
8, 124798, Note_off_c, 9, 42, 80
8, 124800, Note_on_c, 9, 36, 95
8, 124800, Note_on_c, 9, 42, 95
8, 125038, Note_off_c, 9, 36, 80
8, 125038, Note_off_c, 9, 42, 80
8, 125040, Note_on_c, 9, 42, 95
8, 125278, Note_off_c, 9, 42, 80
8, 125280, Note_on_c, 9, 40, 95
8, 125280, Note_on_c, 9, 42, 95
8, 125518, Note_off_c, 9, 40, 80
8, 125518, Note_off_c, 9, 42, 80
8, 125520, Note_on_c, 9, 42, 95
8, 125758, Note_off_c, 9, 42, 80
8, 125760, Note_on_c, 9, 36, 95
8, 125760, Note_on_c, 9, 42, 95
8, 125998, Note_off_c, 9, 36, 80
8, 125998, Note_off_c, 9, 42, 80
8, 126000, Note_on_c, 9, 42, 95
8, 126238, Note_off_c, 9, 42, 80
8, 126240, Note_on_c, 9, 40, 95
8, 126240, Note_on_c, 9, 42, 95
8, 126478, Note_off_c, 9, 40, 80
8, 126478, Note_off_c, 9, 42, 80
8, 126480, Note_on_c, 9, 36, 95
8, 126480, Note_on_c, 9, 42, 95
8, 126718, Note_off_c, 9, 36, 80
8, 126718, Note_off_c, 9, 42, 80
8, 126720, Note_on_c, 9, 36, 95
8, 126720, Note_on_c, 9, 42, 95
8, 126958, Note_off_c, 9, 36, 80
8, 126958, Note_off_c, 9, 42, 80
8, 126960, Note_on_c, 9, 42, 95
8, 127198, Note_off_c, 9, 42, 80
8, 127200, Note_on_c, 9, 40, 95
8, 127200, Note_on_c, 9, 42, 95
8, 127438, Note_off_c, 9, 40, 80
8, 127438, Note_off_c, 9, 42, 80
8, 127440, Note_on_c, 9, 42, 95
8, 127678, Note_off_c, 9, 42, 80
8, 127680, Note_on_c, 9, 36, 95
8, 127680, Note_on_c, 9, 42, 95
8, 127918, Note_off_c, 9, 36, 80
8, 127918, Note_off_c, 9, 42, 80
8, 127920, Note_on_c, 9, 42, 95
8, 128158, Note_off_c, 9, 42, 80
8, 128160, Note_on_c, 9, 40, 95
8, 128160, Note_on_c, 9, 42, 95
8, 128398, Note_off_c, 9, 40, 80
8, 128398, Note_off_c, 9, 42, 80
8, 128400, Note_on_c, 9, 36, 95
8, 128400, Note_on_c, 9, 42, 95
8, 128638, Note_off_c, 9, 36, 80
8, 128638, Note_off_c, 9, 42, 80
8, 128640, Note_on_c, 9, 36, 95
8, 128640, Note_on_c, 9, 42, 95
8, 128878, Note_off_c, 9, 36, 80
8, 128878, Note_off_c, 9, 42, 80
8, 128880, Note_on_c, 9, 42, 95
8, 129118, Note_off_c, 9, 42, 80
8, 129120, Note_on_c, 9, 40, 95
8, 129120, Note_on_c, 9, 42, 95
8, 129358, Note_off_c, 9, 40, 80
8, 129358, Note_off_c, 9, 42, 80
8, 129360, Note_on_c, 9, 42, 95
8, 129598, Note_off_c, 9, 42, 80
8, 129600, Note_on_c, 9, 36, 95
8, 129600, Note_on_c, 9, 42, 95
8, 129838, Note_off_c, 9, 36, 80
8, 129838, Note_off_c, 9, 42, 80
8, 129840, Note_on_c, 9, 42, 95
8, 130078, Note_off_c, 9, 42, 80
8, 130080, Note_on_c, 9, 40, 95
8, 130080, Note_on_c, 9, 42, 95
8, 130318, Note_off_c, 9, 40, 80
8, 130318, Note_off_c, 9, 42, 80
8, 130320, Note_on_c, 9, 36, 95
8, 130320, Note_on_c, 9, 42, 95
8, 130558, Note_off_c, 9, 36, 80
8, 130558, Note_off_c, 9, 42, 80
8, 130560, Note_on_c, 9, 36, 95
8, 130560, Note_on_c, 9, 42, 95
8, 130798, Note_off_c, 9, 36, 80
8, 130798, Note_off_c, 9, 42, 80
8, 130800, Note_on_c, 9, 42, 95
8, 131038, Note_off_c, 9, 42, 80
8, 131040, Note_on_c, 9, 40, 95
8, 131040, Note_on_c, 9, 42, 95
8, 131278, Note_off_c, 9, 40, 80
8, 131278, Note_off_c, 9, 42, 80
8, 131280, Note_on_c, 9, 42, 95
8, 131518, Note_off_c, 9, 42, 80
8, 131520, Note_on_c, 9, 36, 95
8, 131520, Note_on_c, 9, 42, 95
8, 131758, Note_off_c, 9, 36, 80
8, 131758, Note_off_c, 9, 42, 80
8, 131760, Note_on_c, 9, 42, 95
8, 131998, Note_off_c, 9, 42, 80
8, 132000, Note_on_c, 9, 40, 95
8, 132000, Note_on_c, 9, 42, 95
8, 132238, Note_off_c, 9, 40, 80
8, 132238, Note_off_c, 9, 42, 80
8, 132240, Note_on_c, 9, 36, 95
8, 132240, Note_on_c, 9, 42, 95
8, 132478, Note_off_c, 9, 36, 80
8, 132478, Note_off_c, 9, 42, 80
8, 132480, Note_on_c, 9, 36, 95
8, 132480, Note_on_c, 9, 42, 95
8, 132718, Note_off_c, 9, 36, 80
8, 132718, Note_off_c, 9, 42, 80
8, 132720, Note_on_c, 9, 42, 95
8, 132958, Note_off_c, 9, 42, 80
8, 132960, Note_on_c, 9, 40, 95
8, 132960, Note_on_c, 9, 42, 95
8, 133198, Note_off_c, 9, 40, 80
8, 133198, Note_off_c, 9, 42, 80
8, 133200, Note_on_c, 9, 42, 95
8, 133438, Note_off_c, 9, 42, 80
8, 133440, Note_on_c, 9, 36, 95
8, 133440, Note_on_c, 9, 42, 95
8, 133678, Note_off_c, 9, 36, 80
8, 133678, Note_off_c, 9, 42, 80
8, 133680, Note_on_c, 9, 42, 95
8, 133918, Note_off_c, 9, 42, 80
8, 133920, Note_on_c, 9, 40, 95
8, 133920, Note_on_c, 9, 42, 95
8, 134158, Note_off_c, 9, 40, 80
8, 134158, Note_off_c, 9, 42, 80
8, 134160, Note_on_c, 9, 36, 95
8, 134160, Note_on_c, 9, 42, 95
8, 134398, Note_off_c, 9, 36, 80
8, 134398, Note_off_c, 9, 42, 80
8, 134400, Note_on_c, 9, 36, 95
8, 134400, Note_on_c, 9, 42, 95
8, 134638, Note_off_c, 9, 36, 80
8, 134638, Note_off_c, 9, 42, 80
8, 134640, Note_on_c, 9, 42, 95
8, 134878, Note_off_c, 9, 42, 80
8, 134880, Note_on_c, 9, 40, 95
8, 134880, Note_on_c, 9, 42, 95
8, 135118, Note_off_c, 9, 40, 80
8, 135118, Note_off_c, 9, 42, 80
8, 135120, Note_on_c, 9, 42, 95
8, 135358, Note_off_c, 9, 42, 80
8, 135360, Note_on_c, 9, 36, 95
8, 135360, Note_on_c, 9, 42, 95
8, 135598, Note_off_c, 9, 36, 80
8, 135598, Note_off_c, 9, 42, 80
8, 135600, Note_on_c, 9, 42, 95
8, 135838, Note_off_c, 9, 42, 80
8, 135840, Note_on_c, 9, 40, 95
8, 135840, Note_on_c, 9, 42, 95
8, 136078, Note_off_c, 9, 40, 80
8, 136078, Note_off_c, 9, 42, 80
8, 136080, Note_on_c, 9, 36, 95
8, 136080, Note_on_c, 9, 42, 95
8, 136318, Note_off_c, 9, 36, 80
8, 136318, Note_off_c, 9, 42, 80
8, 136320, Note_on_c, 9, 36, 95
8, 136320, Note_on_c, 9, 42, 95
8, 136558, Note_off_c, 9, 36, 80
8, 136558, Note_off_c, 9, 42, 80
8, 136560, Note_on_c, 9, 42, 95
8, 136798, Note_off_c, 9, 42, 80
8, 136800, Note_on_c, 9, 40, 95
8, 136800, Note_on_c, 9, 42, 95
8, 137038, Note_off_c, 9, 40, 80
8, 137038, Note_off_c, 9, 42, 80
8, 137040, Note_on_c, 9, 42, 95
8, 137278, Note_off_c, 9, 42, 80
8, 137280, Note_on_c, 9, 36, 95
8, 137280, Note_on_c, 9, 42, 95
8, 137518, Note_off_c, 9, 36, 80
8, 137518, Note_off_c, 9, 42, 80
8, 137520, Note_on_c, 9, 42, 95
8, 137758, Note_off_c, 9, 42, 80
8, 137760, Note_on_c, 9, 40, 95
8, 137760, Note_on_c, 9, 42, 95
8, 137998, Note_off_c, 9, 40, 80
8, 137998, Note_off_c, 9, 42, 80
8, 138000, Note_on_c, 9, 36, 95
8, 138000, Note_on_c, 9, 42, 95
8, 138238, Note_off_c, 9, 36, 80
8, 138238, Note_off_c, 9, 42, 80
8, 138240, Note_on_c, 9, 36, 95
8, 138240, Note_on_c, 9, 42, 95
8, 138478, Note_off_c, 9, 36, 80
8, 138478, Note_off_c, 9, 42, 80
8, 138480, Note_on_c, 9, 42, 95
8, 138718, Note_off_c, 9, 42, 80
8, 138720, Note_on_c, 9, 40, 95
8, 138720, Note_on_c, 9, 42, 95
8, 138958, Note_off_c, 9, 40, 80
8, 138958, Note_off_c, 9, 42, 80
8, 138960, Note_on_c, 9, 42, 95
8, 139198, Note_off_c, 9, 42, 80
8, 139200, Note_on_c, 9, 36, 95
8, 139200, Note_on_c, 9, 40, 95
8, 139318, Note_off_c, 9, 36, 80
8, 139318, Note_off_c, 9, 40, 80
8, 139320, Note_on_c, 9, 40, 95
8, 139438, Note_off_c, 9, 40, 80
8, 139440, Note_on_c, 9, 40, 95
8, 139558, Note_off_c, 9, 40, 80
8, 139560, Note_on_c, 9, 40, 50
8, 139678, Note_off_c, 9, 40, 80
8, 139680, Note_on_c, 9, 45, 95
8, 139798, Note_off_c, 9, 45, 80
8, 139800, Note_on_c, 9, 45, 95
8, 139918, Note_off_c, 9, 45, 80
8, 139920, Note_on_c, 9, 45, 95
8, 140038, Note_off_c, 9, 45, 80
8, 140040, Note_on_c, 9, 45, 50
8, 140158, Note_off_c, 9, 45, 80
8, 140160, Note_on_c, 9, 36, 95
8, 140638, Note_off_c, 9, 36, 80
8, 140640, Note_on_c, 9, 40, 111
8, 140640, Note_on_c, 9, 52, 47
8, 140640, Note_on_c, 9, 55, 111
8, 140878, Note_off_c, 9, 40, 80
8, 140878, Note_off_c, 9, 52, 80
8, 140878, Note_off_c, 9, 55, 80
8, 140880, Note_on_c, 9, 51, 38
8, 141118, Note_off_c, 9, 51, 80
8, 141120, Note_on_c, 9, 36, 95
8, 141120, Note_on_c, 9, 51, 63
8, 141358, Note_off_c, 9, 36, 80
8, 141358, Note_off_c, 9, 51, 80
8, 141360, Note_on_c, 9, 51, 79
8, 141598, Note_off_c, 9, 51, 80
8, 141600, Note_on_c, 9, 40, 95
8, 141600, Note_on_c, 9, 51, 95
8, 141838, Note_off_c, 9, 40, 80
8, 141838, Note_off_c, 9, 51, 80
8, 141840, Note_on_c, 9, 36, 79
8, 141840, Note_on_c, 9, 51, 95
8, 142078, Note_off_c, 9, 36, 80
8, 142078, Note_off_c, 9, 51, 80
8, 142080, Note_on_c, 9, 51, 95
8, 142318, Note_off_c, 9, 51, 80
8, 142320, Note_on_c, 9, 36, 79
8, 142320, Note_on_c, 9, 51, 79
8, 142558, Note_off_c, 9, 36, 80
8, 142558, Note_off_c, 9, 51, 80
8, 142560, Note_on_c, 9, 40, 79
8, 142560, Note_on_c, 9, 51, 79
8, 142798, Note_off_c, 9, 40, 80
8, 142798, Note_off_c, 9, 51, 80
8, 142800, Note_on_c, 9, 51, 79
8, 143038, Note_off_c, 9, 51, 80
8, 143040, Note_on_c, 9, 36, 79
8, 143040, Note_on_c, 9, 51, 79
8, 143278, Note_off_c, 9, 36, 80
8, 143278, Note_off_c, 9, 51, 80
8, 143280, Note_on_c, 9, 51, 79
8, 143518, Note_off_c, 9, 51, 80
8, 143520, Note_on_c, 9, 40, 79
8, 143520, Note_on_c, 9, 51, 79
8, 143758, Note_off_c, 9, 40, 80
8, 143758, Note_off_c, 9, 51, 80
8, 143760, Note_on_c, 9, 40, 79
8, 143760, Note_on_c, 9, 51, 79
8, 143998, Note_off_c, 9, 40, 80
8, 143998, Note_off_c, 9, 51, 80
8, 144000, Note_on_c, 9, 36, 79
8, 144000, Note_on_c, 9, 51, 95
8, 144238, Note_off_c, 9, 36, 80
8, 144238, Note_off_c, 9, 51, 80
8, 144240, Note_on_c, 9, 51, 79
8, 144478, Note_off_c, 9, 51, 80
8, 144480, Note_on_c, 9, 40, 79
8, 144480, Note_on_c, 9, 51, 79
8, 144718, Note_off_c, 9, 40, 80
8, 144718, Note_off_c, 9, 51, 80
8, 144720, Note_on_c, 9, 51, 79
8, 144958, Note_off_c, 9, 51, 80
8, 144960, Note_on_c, 9, 36, 79
8, 144960, Note_on_c, 9, 51, 79
8, 145198, Note_off_c, 9, 36, 80
8, 145198, Note_off_c, 9, 51, 80
8, 145200, Note_on_c, 9, 51, 79
8, 145438, Note_off_c, 9, 51, 80
8, 145440, Note_on_c, 9, 40, 79
8, 145440, Note_on_c, 9, 51, 79
8, 145678, Note_off_c, 9, 40, 80
8, 145678, Note_off_c, 9, 51, 80
8, 145680, Note_on_c, 9, 36, 79
8, 145680, Note_on_c, 9, 51, 79
8, 145918, Note_off_c, 9, 36, 80
8, 145918, Note_off_c, 9, 51, 80
8, 145920, Note_on_c, 9, 51, 95
8, 146158, Note_off_c, 9, 51, 80
8, 146160, Note_on_c, 9, 36, 79
8, 146160, Note_on_c, 9, 51, 79
8, 146398, Note_off_c, 9, 36, 80
8, 146398, Note_off_c, 9, 51, 80
8, 146400, Note_on_c, 9, 40, 79
8, 146400, Note_on_c, 9, 51, 79
8, 146638, Note_off_c, 9, 40, 80
8, 146638, Note_off_c, 9, 51, 80
8, 146640, Note_on_c, 9, 51, 79
8, 146878, Note_off_c, 9, 51, 80
8, 146880, Note_on_c, 9, 36, 79
8, 146880, Note_on_c, 9, 51, 79
8, 147118, Note_off_c, 9, 36, 80
8, 147118, Note_off_c, 9, 51, 80
8, 147120, Note_on_c, 9, 51, 79
8, 147358, Note_off_c, 9, 51, 80
8, 147360, Note_on_c, 9, 40, 79
8, 147360, Note_on_c, 9, 51, 79
8, 147598, Note_off_c, 9, 40, 80
8, 147598, Note_off_c, 9, 51, 80
8, 147600, Note_on_c, 9, 40, 79
8, 147600, Note_on_c, 9, 51, 79
8, 147838, Note_off_c, 9, 40, 80
8, 147838, Note_off_c, 9, 51, 80
8, 147840, Note_on_c, 9, 36, 79
8, 147840, Note_on_c, 9, 51, 95
8, 148078, Note_off_c, 9, 36, 80
8, 148078, Note_off_c, 9, 51, 80
8, 148080, Note_on_c, 9, 51, 79
8, 148318, Note_off_c, 9, 51, 80
8, 148320, Note_on_c, 9, 40, 79
8, 148320, Note_on_c, 9, 51, 79
8, 148558, Note_off_c, 9, 40, 80
8, 148558, Note_off_c, 9, 51, 80
8, 148560, Note_on_c, 9, 51, 79
8, 148798, Note_off_c, 9, 51, 80
8, 148800, Note_on_c, 9, 36, 79
8, 148800, Note_on_c, 9, 51, 79
8, 149038, Note_off_c, 9, 36, 80
8, 149038, Note_off_c, 9, 51, 80
8, 149040, Note_on_c, 9, 51, 79
8, 149278, Note_off_c, 9, 51, 80
8, 149280, Note_on_c, 9, 40, 79
8, 149280, Note_on_c, 9, 51, 79
8, 149518, Note_off_c, 9, 40, 80
8, 149518, Note_off_c, 9, 51, 80
8, 149520, Note_on_c, 9, 36, 79
8, 149520, Note_on_c, 9, 51, 79
8, 149758, Note_off_c, 9, 36, 80
8, 149758, Note_off_c, 9, 51, 80
8, 149760, Note_on_c, 9, 51, 95
8, 149998, Note_off_c, 9, 51, 80
8, 150000, Note_on_c, 9, 36, 79
8, 150000, Note_on_c, 9, 51, 79
8, 150238, Note_off_c, 9, 36, 80
8, 150238, Note_off_c, 9, 51, 80
8, 150240, Note_on_c, 9, 40, 79
8, 150240, Note_on_c, 9, 51, 79
8, 150478, Note_off_c, 9, 40, 80
8, 150478, Note_off_c, 9, 51, 80
8, 150480, Note_on_c, 9, 51, 79
8, 150718, Note_off_c, 9, 51, 80
8, 150720, Note_on_c, 9, 36, 79
8, 150720, Note_on_c, 9, 51, 79
8, 150958, Note_off_c, 9, 36, 80
8, 150958, Note_off_c, 9, 51, 80
8, 150960, Note_on_c, 9, 51, 79
8, 151198, Note_off_c, 9, 51, 80
8, 151200, Note_on_c, 9, 40, 79
8, 151200, Note_on_c, 9, 51, 79
8, 151438, Note_off_c, 9, 40, 80
8, 151438, Note_off_c, 9, 51, 80
8, 151440, Note_on_c, 9, 40, 79
8, 151440, Note_on_c, 9, 51, 79
8, 151678, Note_off_c, 9, 40, 80
8, 151678, Note_off_c, 9, 51, 80
8, 151680, Note_on_c, 9, 36, 79
8, 151680, Note_on_c, 9, 51, 95
8, 151918, Note_off_c, 9, 36, 80
8, 151918, Note_off_c, 9, 51, 80
8, 151920, Note_on_c, 9, 51, 79
8, 152158, Note_off_c, 9, 51, 80
8, 152160, Note_on_c, 9, 40, 79
8, 152160, Note_on_c, 9, 51, 79
8, 152398, Note_off_c, 9, 40, 80
8, 152398, Note_off_c, 9, 51, 80
8, 152400, Note_on_c, 9, 51, 79
8, 152638, Note_off_c, 9, 51, 80
8, 152640, Note_on_c, 9, 36, 79
8, 152640, Note_on_c, 9, 51, 79
8, 152878, Note_off_c, 9, 36, 80
8, 152878, Note_off_c, 9, 51, 80
8, 152880, Note_on_c, 9, 51, 79
8, 153118, Note_off_c, 9, 51, 80
8, 153120, Note_on_c, 9, 40, 79
8, 153120, Note_on_c, 9, 51, 79
8, 153358, Note_off_c, 9, 40, 80
8, 153358, Note_off_c, 9, 51, 80
8, 153360, Note_on_c, 9, 36, 79
8, 153360, Note_on_c, 9, 51, 79
8, 153598, Note_off_c, 9, 36, 80
8, 153598, Note_off_c, 9, 51, 80
8, 153600, Note_on_c, 9, 51, 95
8, 153838, Note_off_c, 9, 51, 80
8, 153840, Note_on_c, 9, 36, 79
8, 153840, Note_on_c, 9, 51, 79
8, 154078, Note_off_c, 9, 36, 80
8, 154078, Note_off_c, 9, 51, 80
8, 154080, Note_on_c, 9, 40, 79
8, 154080, Note_on_c, 9, 51, 79
8, 154318, Note_off_c, 9, 40, 80
8, 154318, Note_off_c, 9, 51, 80
8, 154320, Note_on_c, 9, 51, 79
8, 154558, Note_off_c, 9, 51, 80
8, 154560, Note_on_c, 9, 36, 79
8, 154560, Note_on_c, 9, 51, 79
8, 154798, Note_off_c, 9, 36, 80
8, 154798, Note_off_c, 9, 51, 80
8, 154800, Note_on_c, 9, 51, 79
8, 155038, Note_off_c, 9, 51, 80
8, 155040, Note_on_c, 9, 40, 79
8, 155040, Note_on_c, 9, 51, 79
8, 155278, Note_off_c, 9, 40, 80
8, 155278, Note_off_c, 9, 51, 80
8, 155280, Note_on_c, 9, 40, 79
8, 155280, Note_on_c, 9, 51, 79
8, 155518, Note_off_c, 9, 40, 80
8, 155518, Note_off_c, 9, 51, 80
8, 155520, Note_on_c, 9, 36, 79
8, 155520, Note_on_c, 9, 51, 95
8, 155758, Note_off_c, 9, 36, 80
8, 155758, Note_off_c, 9, 51, 80
8, 155760, Note_on_c, 9, 51, 79
8, 155998, Note_off_c, 9, 51, 80
8, 156000, Note_on_c, 9, 40, 79
8, 156000, Note_on_c, 9, 52, 79
8, 156238, Note_off_c, 9, 40, 80
8, 156238, Note_off_c, 9, 52, 80
8, 156240, Note_on_c, 9, 51, 79
8, 156478, Note_off_c, 9, 51, 80
8, 156480, Note_on_c, 9, 36, 79
8, 156480, Note_on_c, 9, 51, 79
8, 156718, Note_off_c, 9, 36, 80
8, 156718, Note_off_c, 9, 51, 80
8, 156720, Note_on_c, 9, 51, 79
8, 156958, Note_off_c, 9, 51, 80
8, 156960, Note_on_c, 9, 40, 79
8, 156960, Note_on_c, 9, 51, 79
8, 157198, Note_off_c, 9, 40, 80
8, 157198, Note_off_c, 9, 51, 80
8, 157200, Note_on_c, 9, 51, 79
8, 157438, Note_off_c, 9, 51, 80
8, 157440, Note_on_c, 9, 36, 79
8, 157440, Note_on_c, 9, 51, 95
8, 157678, Note_off_c, 9, 36, 80
8, 157678, Note_off_c, 9, 51, 80
8, 157680, Note_on_c, 9, 51, 79
8, 157918, Note_off_c, 9, 51, 80
8, 157920, Note_on_c, 9, 40, 79
8, 157920, Note_on_c, 9, 51, 79
8, 158158, Note_off_c, 9, 40, 80
8, 158158, Note_off_c, 9, 51, 80
8, 158160, Note_on_c, 9, 51, 79
8, 158398, Note_off_c, 9, 51, 80
8, 158400, Note_on_c, 9, 36, 79
8, 158400, Note_on_c, 9, 51, 79
8, 158638, Note_off_c, 9, 36, 80
8, 158638, Note_off_c, 9, 51, 80
8, 158640, Note_on_c, 9, 51, 79
8, 158878, Note_off_c, 9, 51, 80
8, 158880, Note_on_c, 9, 40, 79
8, 158880, Note_on_c, 9, 51, 79
8, 159118, Note_off_c, 9, 40, 80
8, 159118, Note_off_c, 9, 51, 80
8, 159120, Note_on_c, 9, 40, 79
8, 159120, Note_on_c, 9, 51, 79
8, 159358, Note_off_c, 9, 40, 80
8, 159358, Note_off_c, 9, 51, 80
8, 159360, Note_on_c, 9, 36, 79
8, 159360, Note_on_c, 9, 51, 95
8, 159598, Note_off_c, 9, 36, 80
8, 159598, Note_off_c, 9, 51, 80
8, 159600, Note_on_c, 9, 51, 79
8, 159838, Note_off_c, 9, 51, 80
8, 159840, Note_on_c, 9, 40, 79
8, 159840, Note_on_c, 9, 51, 79
8, 160078, Note_off_c, 9, 40, 80
8, 160078, Note_off_c, 9, 51, 80
8, 160080, Note_on_c, 9, 51, 79
8, 160318, Note_off_c, 9, 51, 80
8, 160320, Note_on_c, 9, 36, 79
8, 160320, Note_on_c, 9, 51, 79
8, 160558, Note_off_c, 9, 36, 80
8, 160558, Note_off_c, 9, 51, 80
8, 160560, Note_on_c, 9, 51, 79
8, 160798, Note_off_c, 9, 51, 80
8, 160800, Note_on_c, 9, 40, 79
8, 160800, Note_on_c, 9, 51, 79
8, 161038, Note_off_c, 9, 40, 80
8, 161038, Note_off_c, 9, 51, 80
8, 161040, Note_on_c, 9, 51, 79
8, 161278, Note_off_c, 9, 51, 80
8, 161280, Note_on_c, 9, 36, 79
8, 161280, Note_on_c, 9, 51, 95
8, 161518, Note_off_c, 9, 36, 80
8, 161518, Note_off_c, 9, 51, 80
8, 161520, Note_on_c, 9, 51, 79
8, 161758, Note_off_c, 9, 51, 80
8, 161760, Note_on_c, 9, 40, 79
8, 161760, Note_on_c, 9, 51, 79
8, 161998, Note_off_c, 9, 40, 80
8, 161998, Note_off_c, 9, 51, 80
8, 162000, Note_on_c, 9, 51, 79
8, 162238, Note_off_c, 9, 51, 80
8, 162240, Note_on_c, 9, 36, 79
8, 162240, Note_on_c, 9, 51, 79
8, 162478, Note_off_c, 9, 36, 80
8, 162478, Note_off_c, 9, 51, 80
8, 162480, Note_on_c, 9, 51, 79
8, 162718, Note_off_c, 9, 51, 80
8, 162720, Note_on_c, 9, 40, 79
8, 162720, Note_on_c, 9, 51, 79
8, 162958, Note_off_c, 9, 40, 80
8, 162958, Note_off_c, 9, 51, 80
8, 162960, Note_on_c, 9, 40, 79
8, 162960, Note_on_c, 9, 51, 79
8, 163198, Note_off_c, 9, 40, 80
8, 163198, Note_off_c, 9, 51, 80
8, 163200, Note_on_c, 9, 36, 79
8, 163200, Note_on_c, 9, 51, 95
8, 163438, Note_off_c, 9, 36, 80
8, 163438, Note_off_c, 9, 51, 80
8, 163440, Note_on_c, 9, 51, 79
8, 163678, Note_off_c, 9, 51, 80
8, 163680, Note_on_c, 9, 40, 79
8, 163680, Note_on_c, 9, 51, 79
8, 163918, Note_off_c, 9, 40, 80
8, 163918, Note_off_c, 9, 51, 80
8, 163920, Note_on_c, 9, 51, 79
8, 164158, Note_off_c, 9, 51, 80
8, 164160, Note_on_c, 9, 36, 79
8, 164160, Note_on_c, 9, 51, 79
8, 164398, Note_off_c, 9, 36, 80
8, 164398, Note_off_c, 9, 51, 80
8, 164400, Note_on_c, 9, 51, 79
8, 164638, Note_off_c, 9, 51, 80
8, 164640, Note_on_c, 9, 40, 79
8, 164640, Note_on_c, 9, 51, 79
8, 164878, Note_off_c, 9, 40, 80
8, 164878, Note_off_c, 9, 51, 80
8, 164880, Note_on_c, 9, 36, 79
8, 164880, Note_on_c, 9, 51, 79
8, 165118, Note_off_c, 9, 36, 80
8, 165118, Note_off_c, 9, 51, 80
8, 165120, Note_on_c, 9, 51, 95
8, 165358, Note_off_c, 9, 51, 80
8, 165360, Note_on_c, 9, 36, 79
8, 165360, Note_on_c, 9, 51, 79
8, 165598, Note_off_c, 9, 36, 80
8, 165598, Note_off_c, 9, 51, 80
8, 165600, Note_on_c, 9, 40, 79
8, 165600, Note_on_c, 9, 51, 79
8, 165838, Note_off_c, 9, 40, 80
8, 165838, Note_off_c, 9, 51, 80
8, 165840, Note_on_c, 9, 51, 79
8, 166078, Note_off_c, 9, 51, 80
8, 166080, Note_on_c, 9, 36, 79
8, 166080, Note_on_c, 9, 51, 79
8, 166318, Note_off_c, 9, 36, 80
8, 166318, Note_off_c, 9, 51, 80
8, 166320, Note_on_c, 9, 51, 79
8, 166558, Note_off_c, 9, 51, 80
8, 166560, Note_on_c, 9, 40, 79
8, 166560, Note_on_c, 9, 51, 79
8, 166798, Note_off_c, 9, 40, 80
8, 166798, Note_off_c, 9, 51, 80
8, 166800, Note_on_c, 9, 40, 79
8, 166800, Note_on_c, 9, 51, 79
8, 167038, Note_off_c, 9, 40, 80
8, 167038, Note_off_c, 9, 51, 80
8, 167040, Note_on_c, 9, 36, 79
8, 167040, Note_on_c, 9, 51, 95
8, 167278, Note_off_c, 9, 36, 80
8, 167278, Note_off_c, 9, 51, 80
8, 167280, Note_on_c, 9, 51, 79
8, 167518, Note_off_c, 9, 51, 80
8, 167520, Note_on_c, 9, 40, 79
8, 167520, Note_on_c, 9, 51, 79
8, 167758, Note_off_c, 9, 40, 80
8, 167758, Note_off_c, 9, 51, 80
8, 167760, Note_on_c, 9, 51, 79
8, 167998, Note_off_c, 9, 51, 80
8, 168000, Note_on_c, 9, 36, 79
8, 168000, Note_on_c, 9, 51, 79
8, 168238, Note_off_c, 9, 36, 80
8, 168238, Note_off_c, 9, 51, 80
8, 168240, Note_on_c, 9, 51, 79
8, 168478, Note_off_c, 9, 51, 80
8, 168480, Note_on_c, 9, 40, 79
8, 168480, Note_on_c, 9, 51, 79
8, 168718, Note_off_c, 9, 40, 80
8, 168718, Note_off_c, 9, 51, 80
8, 168720, Note_on_c, 9, 51, 79
8, 168958, Note_off_c, 9, 51, 80
8, 168960, Note_on_c, 9, 36, 79
8, 168960, Note_on_c, 9, 51, 95
8, 169198, Note_off_c, 9, 36, 80
8, 169198, Note_off_c, 9, 51, 80
8, 169200, Note_on_c, 9, 51, 79
8, 169438, Note_off_c, 9, 51, 80
8, 169440, Note_on_c, 9, 40, 79
8, 169440, Note_on_c, 9, 51, 79
8, 169678, Note_off_c, 9, 40, 80
8, 169678, Note_off_c, 9, 51, 80
8, 169680, Note_on_c, 9, 51, 79
8, 169918, Note_off_c, 9, 51, 80
8, 169920, Note_on_c, 9, 36, 79
8, 169920, Note_on_c, 9, 51, 79
8, 170158, Note_off_c, 9, 36, 80
8, 170158, Note_off_c, 9, 51, 80
8, 170160, Note_on_c, 9, 51, 79
8, 170398, Note_off_c, 9, 51, 80
8, 170400, Note_on_c, 9, 40, 79
8, 170400, Note_on_c, 9, 51, 79
8, 170638, Note_off_c, 9, 40, 80
8, 170638, Note_off_c, 9, 51, 80
8, 170640, Note_on_c, 9, 40, 79
8, 170640, Note_on_c, 9, 51, 79
8, 170878, Note_off_c, 9, 40, 80
8, 170878, Note_off_c, 9, 51, 80
8, 170880, Note_on_c, 9, 36, 95
8, 170880, Note_on_c, 9, 42, 95
8, 170880, Note_on_c, 9, 49, 95
8, 171118, Note_off_c, 9, 36, 80
8, 171118, Note_off_c, 9, 42, 80
8, 171118, Note_off_c, 9, 49, 80
8, 171120, Note_on_c, 9, 42, 95
8, 171358, Note_off_c, 9, 42, 80
8, 171360, Note_on_c, 9, 40, 95
8, 171360, Note_on_c, 9, 42, 95
8, 171598, Note_off_c, 9, 40, 80
8, 171598, Note_off_c, 9, 42, 80
8, 171600, Note_on_c, 9, 42, 95
8, 171838, Note_off_c, 9, 42, 80
8, 171840, Note_on_c, 9, 36, 95
8, 171840, Note_on_c, 9, 42, 95
8, 172078, Note_off_c, 9, 36, 80
8, 172078, Note_off_c, 9, 42, 80
8, 172080, Note_on_c, 9, 42, 95
8, 172318, Note_off_c, 9, 42, 80
8, 172320, Note_on_c, 9, 40, 95
8, 172320, Note_on_c, 9, 42, 95
8, 172558, Note_off_c, 9, 40, 80
8, 172558, Note_off_c, 9, 42, 80
8, 172560, Note_on_c, 9, 36, 95
8, 172560, Note_on_c, 9, 42, 95
8, 172798, Note_off_c, 9, 36, 80
8, 172798, Note_off_c, 9, 42, 80
8, 172800, Note_on_c, 9, 36, 95
8, 172800, Note_on_c, 9, 42, 95
8, 173038, Note_off_c, 9, 36, 80
8, 173038, Note_off_c, 9, 42, 80
8, 173040, Note_on_c, 9, 42, 95
8, 173278, Note_off_c, 9, 42, 80
8, 173280, Note_on_c, 9, 40, 95
8, 173280, Note_on_c, 9, 42, 95
8, 173518, Note_off_c, 9, 40, 80
8, 173518, Note_off_c, 9, 42, 80
8, 173520, Note_on_c, 9, 42, 95
8, 173758, Note_off_c, 9, 42, 80
8, 173760, Note_on_c, 9, 36, 95
8, 173760, Note_on_c, 9, 42, 95
8, 173998, Note_off_c, 9, 36, 80
8, 173998, Note_off_c, 9, 42, 80
8, 174000, Note_on_c, 9, 42, 95
8, 174238, Note_off_c, 9, 42, 80
8, 174240, Note_on_c, 9, 40, 95
8, 174240, Note_on_c, 9, 42, 95
8, 174478, Note_off_c, 9, 40, 80
8, 174478, Note_off_c, 9, 42, 80
8, 174480, Note_on_c, 9, 36, 95
8, 174480, Note_on_c, 9, 42, 95
8, 174718, Note_off_c, 9, 36, 80
8, 174718, Note_off_c, 9, 42, 80
8, 174720, Note_on_c, 9, 36, 95
8, 174720, Note_on_c, 9, 42, 95
8, 174958, Note_off_c, 9, 36, 80
8, 174958, Note_off_c, 9, 42, 80
8, 174960, Note_on_c, 9, 42, 95
8, 175198, Note_off_c, 9, 42, 80
8, 175200, Note_on_c, 9, 40, 95
8, 175200, Note_on_c, 9, 42, 95
8, 175438, Note_off_c, 9, 40, 80
8, 175438, Note_off_c, 9, 42, 80
8, 175440, Note_on_c, 9, 42, 95
8, 175678, Note_off_c, 9, 42, 80
8, 175680, Note_on_c, 9, 36, 95
8, 175680, Note_on_c, 9, 42, 95
8, 175918, Note_off_c, 9, 36, 80
8, 175918, Note_off_c, 9, 42, 80
8, 175920, Note_on_c, 9, 42, 95
8, 176158, Note_off_c, 9, 42, 80
8, 176160, Note_on_c, 9, 40, 95
8, 176160, Note_on_c, 9, 42, 95
8, 176398, Note_off_c, 9, 40, 80
8, 176398, Note_off_c, 9, 42, 80
8, 176400, Note_on_c, 9, 36, 95
8, 176400, Note_on_c, 9, 42, 95
8, 176638, Note_off_c, 9, 36, 80
8, 176638, Note_off_c, 9, 42, 80
8, 176640, Note_on_c, 9, 36, 95
8, 176640, Note_on_c, 9, 42, 95
8, 176878, Note_off_c, 9, 36, 80
8, 176878, Note_off_c, 9, 42, 80
8, 176880, Note_on_c, 9, 42, 95
8, 177118, Note_off_c, 9, 42, 80
8, 177120, Note_on_c, 9, 40, 95
8, 177120, Note_on_c, 9, 42, 95
8, 177358, Note_off_c, 9, 40, 80
8, 177358, Note_off_c, 9, 42, 80
8, 177360, Note_on_c, 9, 42, 95
8, 177598, Note_off_c, 9, 42, 80
8, 177600, Note_on_c, 9, 36, 95
8, 177600, Note_on_c, 9, 42, 95
8, 177838, Note_off_c, 9, 36, 80
8, 177838, Note_off_c, 9, 42, 80
8, 177840, Note_on_c, 9, 42, 95
8, 178078, Note_off_c, 9, 42, 80
8, 178080, Note_on_c, 9, 40, 95
8, 178080, Note_on_c, 9, 42, 95
8, 178318, Note_off_c, 9, 40, 80
8, 178318, Note_off_c, 9, 42, 80
8, 178320, Note_on_c, 9, 36, 95
8, 178320, Note_on_c, 9, 42, 95
8, 178558, Note_off_c, 9, 36, 80
8, 178558, Note_off_c, 9, 42, 80
8, 178560, Note_on_c, 9, 36, 95
8, 178560, Note_on_c, 9, 42, 95
8, 178798, Note_off_c, 9, 36, 80
8, 178798, Note_off_c, 9, 42, 80
8, 178800, Note_on_c, 9, 42, 95
8, 179038, Note_off_c, 9, 42, 80
8, 179040, Note_on_c, 9, 40, 95
8, 179040, Note_on_c, 9, 42, 95
8, 179278, Note_off_c, 9, 40, 80
8, 179278, Note_off_c, 9, 42, 80
8, 179280, Note_on_c, 9, 42, 95
8, 179518, Note_off_c, 9, 42, 80
8, 179520, Note_on_c, 9, 36, 95
8, 179520, Note_on_c, 9, 42, 95
8, 179758, Note_off_c, 9, 36, 80
8, 179758, Note_off_c, 9, 42, 80
8, 179760, Note_on_c, 9, 42, 95
8, 179998, Note_off_c, 9, 42, 80
8, 180000, Note_on_c, 9, 40, 95
8, 180000, Note_on_c, 9, 42, 95
8, 180238, Note_off_c, 9, 40, 80
8, 180238, Note_off_c, 9, 42, 80
8, 180240, Note_on_c, 9, 36, 95
8, 180240, Note_on_c, 9, 42, 95
8, 180478, Note_off_c, 9, 36, 80
8, 180478, Note_off_c, 9, 42, 80
8, 180480, Note_on_c, 9, 36, 95
8, 180480, Note_on_c, 9, 42, 95
8, 180718, Note_off_c, 9, 36, 80
8, 180718, Note_off_c, 9, 42, 80
8, 180720, Note_on_c, 9, 42, 95
8, 180958, Note_off_c, 9, 42, 80
8, 180960, Note_on_c, 9, 40, 95
8, 180960, Note_on_c, 9, 42, 95
8, 181198, Note_off_c, 9, 40, 80
8, 181198, Note_off_c, 9, 42, 80
8, 181200, Note_on_c, 9, 42, 95
8, 181438, Note_off_c, 9, 42, 80
8, 181440, Note_on_c, 9, 36, 95
8, 181440, Note_on_c, 9, 42, 95
8, 181678, Note_off_c, 9, 36, 80
8, 181678, Note_off_c, 9, 42, 80
8, 181680, Note_on_c, 9, 42, 95
8, 181918, Note_off_c, 9, 42, 80
8, 181920, Note_on_c, 9, 40, 95
8, 181920, Note_on_c, 9, 42, 95
8, 182158, Note_off_c, 9, 40, 80
8, 182158, Note_off_c, 9, 42, 80
8, 182160, Note_on_c, 9, 36, 95
8, 182160, Note_on_c, 9, 42, 95
8, 182398, Note_off_c, 9, 36, 80
8, 182398, Note_off_c, 9, 42, 80
8, 182400, Note_on_c, 9, 36, 95
8, 182400, Note_on_c, 9, 42, 95
8, 182638, Note_off_c, 9, 36, 80
8, 182638, Note_off_c, 9, 42, 80
8, 182640, Note_on_c, 9, 42, 95
8, 182878, Note_off_c, 9, 42, 80
8, 182880, Note_on_c, 9, 40, 95
8, 182880, Note_on_c, 9, 42, 95
8, 183118, Note_off_c, 9, 40, 80
8, 183118, Note_off_c, 9, 42, 80
8, 183120, Note_on_c, 9, 42, 95
8, 183358, Note_off_c, 9, 42, 80
8, 183360, Note_on_c, 9, 36, 95
8, 183360, Note_on_c, 9, 42, 95
8, 183598, Note_off_c, 9, 36, 80
8, 183598, Note_off_c, 9, 42, 80
8, 183600, Note_on_c, 9, 42, 95
8, 183838, Note_off_c, 9, 42, 80
8, 183840, Note_on_c, 9, 40, 95
8, 183840, Note_on_c, 9, 42, 95
8, 184078, Note_off_c, 9, 40, 80
8, 184078, Note_off_c, 9, 42, 80
8, 184080, Note_on_c, 9, 36, 95
8, 184080, Note_on_c, 9, 42, 95
8, 184318, Note_off_c, 9, 36, 80
8, 184318, Note_off_c, 9, 42, 80
8, 184320, Note_on_c, 9, 36, 95
8, 184320, Note_on_c, 9, 42, 95
8, 184558, Note_off_c, 9, 36, 80
8, 184558, Note_off_c, 9, 42, 80
8, 184560, Note_on_c, 9, 42, 95
8, 184798, Note_off_c, 9, 42, 80
8, 184800, Note_on_c, 9, 40, 95
8, 184800, Note_on_c, 9, 42, 95
8, 185038, Note_off_c, 9, 40, 80
8, 185038, Note_off_c, 9, 42, 80
8, 185040, Note_on_c, 9, 42, 95
8, 185278, Note_off_c, 9, 42, 80
8, 185280, Note_on_c, 9, 36, 95
8, 185280, Note_on_c, 9, 42, 95
8, 185518, Note_off_c, 9, 36, 80
8, 185518, Note_off_c, 9, 42, 80
8, 185520, Note_on_c, 9, 42, 95
8, 185758, Note_off_c, 9, 42, 80
8, 185760, Note_on_c, 9, 40, 95
8, 185760, Note_on_c, 9, 42, 95
8, 185998, Note_off_c, 9, 40, 80
8, 185998, Note_off_c, 9, 42, 80
8, 186000, Note_on_c, 9, 36, 95
8, 186000, Note_on_c, 9, 42, 95
8, 186238, Note_off_c, 9, 36, 80
8, 186238, Note_off_c, 9, 42, 80
8, 186240, Note_on_c, 9, 36, 95
8, 186240, Note_on_c, 9, 42, 95
8, 186478, Note_off_c, 9, 36, 80
8, 186478, Note_off_c, 9, 42, 80
8, 186480, Note_on_c, 9, 42, 95
8, 186718, Note_off_c, 9, 42, 80
8, 186720, Note_on_c, 9, 40, 95
8, 186720, Note_on_c, 9, 42, 95
8, 186958, Note_off_c, 9, 40, 80
8, 186958, Note_off_c, 9, 42, 80
8, 186960, Note_on_c, 9, 42, 95
8, 187198, Note_off_c, 9, 42, 80
8, 187200, Note_on_c, 9, 36, 95
8, 187200, Note_on_c, 9, 42, 95
8, 187438, Note_off_c, 9, 36, 80
8, 187438, Note_off_c, 9, 42, 80
8, 187440, Note_on_c, 9, 42, 95
8, 187678, Note_off_c, 9, 42, 80
8, 187680, Note_on_c, 9, 40, 95
8, 187680, Note_on_c, 9, 42, 95
8, 187918, Note_off_c, 9, 40, 80
8, 187918, Note_off_c, 9, 42, 80
8, 187920, Note_on_c, 9, 36, 95
8, 187920, Note_on_c, 9, 42, 95
8, 188158, Note_off_c, 9, 36, 80
8, 188158, Note_off_c, 9, 42, 80
8, 188160, Note_on_c, 9, 36, 95
8, 188160, Note_on_c, 9, 42, 95
8, 188398, Note_off_c, 9, 36, 80
8, 188398, Note_off_c, 9, 42, 80
8, 188400, Note_on_c, 9, 42, 95
8, 188638, Note_off_c, 9, 42, 80
8, 188640, Note_on_c, 9, 40, 95
8, 188640, Note_on_c, 9, 42, 95
8, 188878, Note_off_c, 9, 40, 80
8, 188878, Note_off_c, 9, 42, 80
8, 188880, Note_on_c, 9, 42, 95
8, 189118, Note_off_c, 9, 42, 80
8, 189120, Note_on_c, 9, 36, 95
8, 189120, Note_on_c, 9, 42, 95
8, 189358, Note_off_c, 9, 36, 80
8, 189358, Note_off_c, 9, 42, 80
8, 189360, Note_on_c, 9, 42, 95
8, 189598, Note_off_c, 9, 42, 80
8, 189600, Note_on_c, 9, 40, 95
8, 189600, Note_on_c, 9, 42, 95
8, 189838, Note_off_c, 9, 40, 80
8, 189838, Note_off_c, 9, 42, 80
8, 189840, Note_on_c, 9, 36, 95
8, 189840, Note_on_c, 9, 42, 95
8, 190078, Note_off_c, 9, 36, 80
8, 190078, Note_off_c, 9, 42, 80
8, 190080, Note_on_c, 9, 36, 95
8, 190080, Note_on_c, 9, 42, 95
8, 190318, Note_off_c, 9, 36, 80
8, 190318, Note_off_c, 9, 42, 80
8, 190320, Note_on_c, 9, 42, 95
8, 190558, Note_off_c, 9, 42, 80
8, 190560, Note_on_c, 9, 40, 95
8, 190560, Note_on_c, 9, 42, 95
8, 190798, Note_off_c, 9, 40, 80
8, 190798, Note_off_c, 9, 42, 80
8, 190800, Note_on_c, 9, 42, 95
8, 191038, Note_off_c, 9, 42, 80
8, 191040, Note_on_c, 9, 36, 95
8, 191040, Note_on_c, 9, 42, 95
8, 191278, Note_off_c, 9, 36, 80
8, 191278, Note_off_c, 9, 42, 80
8, 191280, Note_on_c, 9, 42, 95
8, 191518, Note_off_c, 9, 42, 80
8, 191520, Note_on_c, 9, 40, 95
8, 191520, Note_on_c, 9, 42, 95
8, 191758, Note_off_c, 9, 40, 80
8, 191758, Note_off_c, 9, 42, 80
8, 191760, Note_on_c, 9, 36, 95
8, 191760, Note_on_c, 9, 42, 95
8, 191998, Note_off_c, 9, 36, 80
8, 191998, Note_off_c, 9, 42, 80
8, 192000, Note_on_c, 9, 36, 95
8, 192000, Note_on_c, 9, 42, 95
8, 192238, Note_off_c, 9, 36, 80
8, 192238, Note_off_c, 9, 42, 80
8, 192240, Note_on_c, 9, 42, 95
8, 192478, Note_off_c, 9, 42, 80
8, 192480, Note_on_c, 9, 40, 95
8, 192480, Note_on_c, 9, 42, 95
8, 192718, Note_off_c, 9, 40, 80
8, 192718, Note_off_c, 9, 42, 80
8, 192720, Note_on_c, 9, 42, 95
8, 192958, Note_off_c, 9, 42, 80
8, 192960, Note_on_c, 9, 36, 95
8, 192960, Note_on_c, 9, 42, 95
8, 193198, Note_off_c, 9, 36, 80
8, 193198, Note_off_c, 9, 42, 80
8, 193200, Note_on_c, 9, 42, 95
8, 193438, Note_off_c, 9, 42, 80
8, 193440, Note_on_c, 9, 40, 95
8, 193440, Note_on_c, 9, 42, 95
8, 193678, Note_off_c, 9, 40, 80
8, 193678, Note_off_c, 9, 42, 80
8, 193680, Note_on_c, 9, 36, 95
8, 193680, Note_on_c, 9, 42, 95
8, 193918, Note_off_c, 9, 36, 80
8, 193918, Note_off_c, 9, 42, 80
8, 193920, Note_on_c, 9, 36, 95
8, 193920, Note_on_c, 9, 42, 95
8, 194158, Note_off_c, 9, 36, 80
8, 194158, Note_off_c, 9, 42, 80
8, 194160, Note_on_c, 9, 42, 95
8, 194398, Note_off_c, 9, 42, 80
8, 194400, Note_on_c, 9, 40, 95
8, 194400, Note_on_c, 9, 42, 95
8, 194638, Note_off_c, 9, 40, 80
8, 194638, Note_off_c, 9, 42, 80
8, 194640, Note_on_c, 9, 42, 95
8, 194878, Note_off_c, 9, 42, 80
8, 194880, Note_on_c, 9, 36, 95
8, 194880, Note_on_c, 9, 42, 95
8, 195118, Note_off_c, 9, 36, 80
8, 195118, Note_off_c, 9, 42, 80
8, 195120, Note_on_c, 9, 42, 95
8, 195358, Note_off_c, 9, 42, 80
8, 195360, Note_on_c, 9, 40, 95
8, 195360, Note_on_c, 9, 42, 95
8, 195598, Note_off_c, 9, 40, 80
8, 195598, Note_off_c, 9, 42, 80
8, 195600, Note_on_c, 9, 36, 95
8, 195600, Note_on_c, 9, 42, 95
8, 195838, Note_off_c, 9, 36, 80
8, 195838, Note_off_c, 9, 42, 80
8, 195840, Note_on_c, 9, 36, 95
8, 195840, Note_on_c, 9, 42, 95
8, 196078, Note_off_c, 9, 36, 80
8, 196078, Note_off_c, 9, 42, 80
8, 196080, Note_on_c, 9, 42, 95
8, 196318, Note_off_c, 9, 42, 80
8, 196320, Note_on_c, 9, 40, 95
8, 196320, Note_on_c, 9, 42, 95
8, 196558, Note_off_c, 9, 40, 80
8, 196558, Note_off_c, 9, 42, 80
8, 196560, Note_on_c, 9, 42, 95
8, 196798, Note_off_c, 9, 42, 80
8, 196800, Note_on_c, 9, 36, 95
8, 196800, Note_on_c, 9, 42, 95
8, 197038, Note_off_c, 9, 36, 80
8, 197038, Note_off_c, 9, 42, 80
8, 197040, Note_on_c, 9, 42, 95
8, 197278, Note_off_c, 9, 42, 80
8, 197280, Note_on_c, 9, 40, 95
8, 197280, Note_on_c, 9, 42, 95
8, 197518, Note_off_c, 9, 40, 80
8, 197518, Note_off_c, 9, 42, 80
8, 197520, Note_on_c, 9, 36, 95
8, 197520, Note_on_c, 9, 42, 95
8, 197758, Note_off_c, 9, 36, 80
8, 197758, Note_off_c, 9, 42, 80
8, 197760, Note_on_c, 9, 36, 95
8, 197760, Note_on_c, 9, 42, 95
8, 197998, Note_off_c, 9, 36, 80
8, 197998, Note_off_c, 9, 42, 80
8, 198000, Note_on_c, 9, 42, 95
8, 198238, Note_off_c, 9, 42, 80
8, 198240, Note_on_c, 9, 40, 95
8, 198240, Note_on_c, 9, 42, 95
8, 198478, Note_off_c, 9, 40, 80
8, 198478, Note_off_c, 9, 42, 80
8, 198480, Note_on_c, 9, 42, 95
8, 198718, Note_off_c, 9, 42, 80
8, 198720, Note_on_c, 9, 36, 95
8, 198720, Note_on_c, 9, 42, 95
8, 198958, Note_off_c, 9, 36, 80
8, 198958, Note_off_c, 9, 42, 80
8, 198960, Note_on_c, 9, 42, 95
8, 199198, Note_off_c, 9, 42, 80
8, 199200, Note_on_c, 9, 40, 95
8, 199200, Note_on_c, 9, 42, 95
8, 199438, Note_off_c, 9, 40, 80
8, 199438, Note_off_c, 9, 42, 80
8, 199440, Note_on_c, 9, 36, 95
8, 199440, Note_on_c, 9, 42, 95
8, 199678, Note_off_c, 9, 36, 80
8, 199678, Note_off_c, 9, 42, 80
8, 199680, Note_on_c, 9, 36, 95
8, 199680, Note_on_c, 9, 42, 95
8, 199918, Note_off_c, 9, 36, 80
8, 199918, Note_off_c, 9, 42, 80
8, 199920, Note_on_c, 9, 42, 95
8, 200158, Note_off_c, 9, 42, 80
8, 200160, Note_on_c, 9, 40, 95
8, 200160, Note_on_c, 9, 42, 95
8, 200398, Note_off_c, 9, 40, 80
8, 200398, Note_off_c, 9, 42, 80
8, 200400, Note_on_c, 9, 42, 95
8, 200638, Note_off_c, 9, 42, 80
8, 200640, Note_on_c, 9, 36, 95
8, 200640, Note_on_c, 9, 42, 95
8, 200878, Note_off_c, 9, 36, 80
8, 200878, Note_off_c, 9, 42, 80
8, 200880, Note_on_c, 9, 42, 95
8, 201118, Note_off_c, 9, 42, 80
8, 201120, Note_on_c, 9, 40, 95
8, 201120, Note_on_c, 9, 42, 95
8, 201358, Note_off_c, 9, 40, 80
8, 201358, Note_off_c, 9, 42, 80
8, 201360, Note_on_c, 9, 36, 95
8, 201360, Note_on_c, 9, 42, 95
8, 201598, Note_off_c, 9, 36, 80
8, 201598, Note_off_c, 9, 42, 80
8, 201600, Note_on_c, 9, 36, 95
8, 201600, Note_on_c, 9, 42, 95
8, 201600, Note_on_c, 9, 49, 95
8, 201838, Note_off_c, 9, 36, 80
8, 201838, Note_off_c, 9, 42, 80
8, 201838, Note_off_c, 9, 49, 80
8, 201840, Note_on_c, 9, 42, 95
8, 202078, Note_off_c, 9, 42, 80
8, 202080, Note_on_c, 9, 40, 95
8, 202080, Note_on_c, 9, 42, 95
8, 202318, Note_off_c, 9, 40, 80
8, 202318, Note_off_c, 9, 42, 80
8, 202320, Note_on_c, 9, 42, 95
8, 202558, Note_off_c, 9, 42, 80
8, 202560, Note_on_c, 9, 36, 95
8, 202560, Note_on_c, 9, 42, 95
8, 202798, Note_off_c, 9, 36, 80
8, 202798, Note_off_c, 9, 42, 80
8, 202800, Note_on_c, 9, 42, 95
8, 203038, Note_off_c, 9, 42, 80
8, 203040, Note_on_c, 9, 40, 95
8, 203040, Note_on_c, 9, 42, 95
8, 203278, Note_off_c, 9, 40, 80
8, 203278, Note_off_c, 9, 42, 80
8, 203280, Note_on_c, 9, 36, 95
8, 203280, Note_on_c, 9, 42, 95
8, 203518, Note_off_c, 9, 36, 80
8, 203518, Note_off_c, 9, 42, 80
8, 203520, Note_on_c, 9, 36, 95
8, 203520, Note_on_c, 9, 42, 95
8, 203758, Note_off_c, 9, 36, 80
8, 203758, Note_off_c, 9, 42, 80
8, 203760, Note_on_c, 9, 42, 95
8, 203998, Note_off_c, 9, 42, 80
8, 204000, Note_on_c, 9, 40, 95
8, 204000, Note_on_c, 9, 42, 95
8, 204238, Note_off_c, 9, 40, 80
8, 204238, Note_off_c, 9, 42, 80
8, 204240, Note_on_c, 9, 42, 95
8, 204478, Note_off_c, 9, 42, 80
8, 204480, Note_on_c, 9, 36, 95
8, 204480, Note_on_c, 9, 42, 95
8, 204718, Note_off_c, 9, 36, 80
8, 204718, Note_off_c, 9, 42, 80
8, 204720, Note_on_c, 9, 42, 95
8, 204958, Note_off_c, 9, 42, 80
8, 204960, Note_on_c, 9, 40, 95
8, 204960, Note_on_c, 9, 42, 95
8, 205198, Note_off_c, 9, 40, 80
8, 205198, Note_off_c, 9, 42, 80
8, 205200, Note_on_c, 9, 36, 95
8, 205200, Note_on_c, 9, 42, 95
8, 205438, Note_off_c, 9, 36, 80
8, 205438, Note_off_c, 9, 42, 80
8, 205440, Note_on_c, 9, 36, 95
8, 205440, Note_on_c, 9, 42, 95
8, 205678, Note_off_c, 9, 36, 80
8, 205678, Note_off_c, 9, 42, 80
8, 205680, Note_on_c, 9, 42, 95
8, 205918, Note_off_c, 9, 42, 80
8, 205920, Note_on_c, 9, 40, 95
8, 205920, Note_on_c, 9, 42, 95
8, 206158, Note_off_c, 9, 40, 80
8, 206158, Note_off_c, 9, 42, 80
8, 206160, Note_on_c, 9, 42, 95
8, 206398, Note_off_c, 9, 42, 80
8, 206400, Note_on_c, 9, 36, 95
8, 206400, Note_on_c, 9, 42, 95
8, 206638, Note_off_c, 9, 36, 80
8, 206638, Note_off_c, 9, 42, 80
8, 206640, Note_on_c, 9, 42, 95
8, 206878, Note_off_c, 9, 42, 80
8, 206880, Note_on_c, 9, 40, 95
8, 206880, Note_on_c, 9, 42, 95
8, 207118, Note_off_c, 9, 40, 80
8, 207118, Note_off_c, 9, 42, 80
8, 207120, Note_on_c, 9, 36, 95
8, 207120, Note_on_c, 9, 42, 95
8, 207358, Note_off_c, 9, 36, 80
8, 207358, Note_off_c, 9, 42, 80
8, 207360, Note_on_c, 9, 36, 95
8, 207360, Note_on_c, 9, 42, 95
8, 207598, Note_off_c, 9, 36, 80
8, 207598, Note_off_c, 9, 42, 80
8, 207600, Note_on_c, 9, 42, 95
8, 207838, Note_off_c, 9, 42, 80
8, 207840, Note_on_c, 9, 40, 95
8, 207840, Note_on_c, 9, 42, 95
8, 208078, Note_off_c, 9, 40, 80
8, 208078, Note_off_c, 9, 42, 80
8, 208080, Note_on_c, 9, 42, 95
8, 208318, Note_off_c, 9, 42, 80
8, 208320, Note_on_c, 9, 36, 95
8, 208320, Note_on_c, 9, 42, 95
8, 208558, Note_off_c, 9, 36, 80
8, 208558, Note_off_c, 9, 42, 80
8, 208560, Note_on_c, 9, 42, 95
8, 208798, Note_off_c, 9, 42, 80
8, 208800, Note_on_c, 9, 40, 95
8, 208800, Note_on_c, 9, 42, 95
8, 209038, Note_off_c, 9, 40, 80
8, 209038, Note_off_c, 9, 42, 80
8, 209040, Note_on_c, 9, 36, 95
8, 209040, Note_on_c, 9, 42, 95
8, 209278, Note_off_c, 9, 36, 80
8, 209278, Note_off_c, 9, 42, 80
8, 209280, Note_on_c, 9, 36, 95
8, 209280, Note_on_c, 9, 42, 95
8, 209518, Note_off_c, 9, 36, 80
8, 209518, Note_off_c, 9, 42, 80
8, 209520, Note_on_c, 9, 42, 95
8, 209758, Note_off_c, 9, 42, 80
8, 209760, Note_on_c, 9, 40, 95
8, 209760, Note_on_c, 9, 42, 95
8, 209998, Note_off_c, 9, 40, 80
8, 209998, Note_off_c, 9, 42, 80
8, 210000, Note_on_c, 9, 42, 95
8, 210238, Note_off_c, 9, 42, 80
8, 210240, Note_on_c, 9, 36, 95
8, 210240, Note_on_c, 9, 42, 95
8, 210478, Note_off_c, 9, 36, 80
8, 210478, Note_off_c, 9, 42, 80
8, 210480, Note_on_c, 9, 42, 95
8, 210718, Note_off_c, 9, 42, 80
8, 210720, Note_on_c, 9, 40, 95
8, 210720, Note_on_c, 9, 42, 95
8, 210958, Note_off_c, 9, 40, 80
8, 210958, Note_off_c, 9, 42, 80
8, 210960, Note_on_c, 9, 36, 95
8, 210960, Note_on_c, 9, 42, 95
8, 211198, Note_off_c, 9, 36, 80
8, 211198, Note_off_c, 9, 42, 80
8, 211200, Note_on_c, 9, 36, 95
8, 211200, Note_on_c, 9, 42, 95
8, 211438, Note_off_c, 9, 36, 80
8, 211438, Note_off_c, 9, 42, 80
8, 211440, Note_on_c, 9, 42, 95
8, 211678, Note_off_c, 9, 42, 80
8, 211680, Note_on_c, 9, 40, 95
8, 211680, Note_on_c, 9, 42, 95
8, 211918, Note_off_c, 9, 40, 80
8, 211918, Note_off_c, 9, 42, 80
8, 211920, Note_on_c, 9, 42, 95
8, 212158, Note_off_c, 9, 42, 80
8, 212160, Note_on_c, 9, 36, 95
8, 212160, Note_on_c, 9, 42, 95
8, 212398, Note_off_c, 9, 36, 80
8, 212398, Note_off_c, 9, 42, 80
8, 212400, Note_on_c, 9, 42, 95
8, 212638, Note_off_c, 9, 42, 80
8, 212640, Note_on_c, 9, 40, 95
8, 212640, Note_on_c, 9, 42, 95
8, 212878, Note_off_c, 9, 40, 80
8, 212878, Note_off_c, 9, 42, 80
8, 212880, Note_on_c, 9, 36, 95
8, 212880, Note_on_c, 9, 42, 95
8, 213118, Note_off_c, 9, 36, 80
8, 213118, Note_off_c, 9, 42, 80
8, 213120, Note_on_c, 9, 36, 95
8, 213120, Note_on_c, 9, 42, 95
8, 213358, Note_off_c, 9, 36, 80
8, 213358, Note_off_c, 9, 42, 80
8, 213360, Note_on_c, 9, 42, 95
8, 213598, Note_off_c, 9, 42, 80
8, 213600, Note_on_c, 9, 40, 95
8, 213600, Note_on_c, 9, 42, 95
8, 213838, Note_off_c, 9, 40, 80
8, 213838, Note_off_c, 9, 42, 80
8, 213840, Note_on_c, 9, 42, 95
8, 214078, Note_off_c, 9, 42, 80
8, 214080, Note_on_c, 9, 36, 95
8, 214080, Note_on_c, 9, 42, 95
8, 214318, Note_off_c, 9, 36, 80
8, 214318, Note_off_c, 9, 42, 80
8, 214320, Note_on_c, 9, 42, 95
8, 214558, Note_off_c, 9, 42, 80
8, 214560, Note_on_c, 9, 40, 95
8, 214560, Note_on_c, 9, 42, 95
8, 214798, Note_off_c, 9, 40, 80
8, 214798, Note_off_c, 9, 42, 80
8, 214800, Note_on_c, 9, 36, 95
8, 214800, Note_on_c, 9, 42, 95
8, 215038, Note_off_c, 9, 36, 80
8, 215038, Note_off_c, 9, 42, 80
8, 215040, Note_on_c, 9, 36, 95
8, 215040, Note_on_c, 9, 42, 95
8, 215278, Note_off_c, 9, 36, 80
8, 215278, Note_off_c, 9, 42, 80
8, 215280, Note_on_c, 9, 42, 95
8, 215518, Note_off_c, 9, 42, 80
8, 215520, Note_on_c, 9, 40, 95
8, 215520, Note_on_c, 9, 42, 95
8, 215758, Note_off_c, 9, 40, 80
8, 215758, Note_off_c, 9, 42, 80
8, 215760, Note_on_c, 9, 42, 95
8, 215998, Note_off_c, 9, 42, 80
8, 216000, Note_on_c, 9, 36, 95
8, 216000, Note_on_c, 9, 42, 95
8, 216238, Note_off_c, 9, 36, 80
8, 216238, Note_off_c, 9, 42, 80
8, 216240, Note_on_c, 9, 42, 95
8, 216478, Note_off_c, 9, 42, 80
8, 216480, Note_on_c, 9, 40, 95
8, 216480, Note_on_c, 9, 42, 95
8, 216718, Note_off_c, 9, 40, 80
8, 216718, Note_off_c, 9, 42, 80
8, 216720, Note_on_c, 9, 36, 95
8, 216720, Note_on_c, 9, 42, 95
8, 216958, Note_off_c, 9, 36, 80
8, 216958, Note_off_c, 9, 42, 80
8, 216960, Note_on_c, 9, 36, 95
8, 216960, Note_on_c, 9, 42, 95
8, 217198, Note_off_c, 9, 36, 80
8, 217198, Note_off_c, 9, 42, 80
8, 217200, Note_on_c, 9, 42, 95
8, 217438, Note_off_c, 9, 42, 80
8, 217440, Note_on_c, 9, 40, 95
8, 217440, Note_on_c, 9, 42, 95
8, 217678, Note_off_c, 9, 40, 80
8, 217678, Note_off_c, 9, 42, 80
8, 217680, Note_on_c, 9, 42, 95
8, 217918, Note_off_c, 9, 42, 80
8, 217920, Note_on_c, 9, 36, 95
8, 217920, Note_on_c, 9, 42, 95
8, 218158, Note_off_c, 9, 36, 80
8, 218158, Note_off_c, 9, 42, 80
8, 218160, Note_on_c, 9, 42, 95
8, 218398, Note_off_c, 9, 42, 80
8, 218400, Note_on_c, 9, 40, 95
8, 218400, Note_on_c, 9, 42, 95
8, 218638, Note_off_c, 9, 40, 80
8, 218638, Note_off_c, 9, 42, 80
8, 218640, Note_on_c, 9, 36, 95
8, 218640, Note_on_c, 9, 42, 95
8, 218878, Note_off_c, 9, 36, 80
8, 218878, Note_off_c, 9, 42, 80
8, 218880, Note_on_c, 9, 36, 95
8, 218880, Note_on_c, 9, 42, 95
8, 219118, Note_off_c, 9, 36, 80
8, 219118, Note_off_c, 9, 42, 80
8, 219120, Note_on_c, 9, 42, 95
8, 219358, Note_off_c, 9, 42, 80
8, 219360, Note_on_c, 9, 40, 95
8, 219360, Note_on_c, 9, 42, 95
8, 219598, Note_off_c, 9, 40, 80
8, 219598, Note_off_c, 9, 42, 80
8, 219600, Note_on_c, 9, 42, 95
8, 219838, Note_off_c, 9, 42, 80
8, 219840, Note_on_c, 9, 36, 95
8, 219840, Note_on_c, 9, 42, 95
8, 220078, Note_off_c, 9, 36, 80
8, 220078, Note_off_c, 9, 42, 80
8, 220080, Note_on_c, 9, 42, 95
8, 220318, Note_off_c, 9, 42, 80
8, 220320, Note_on_c, 9, 40, 95
8, 220320, Note_on_c, 9, 42, 95
8, 220558, Note_off_c, 9, 40, 80
8, 220558, Note_off_c, 9, 42, 80
8, 220560, Note_on_c, 9, 36, 95
8, 220560, Note_on_c, 9, 42, 95
8, 220798, Note_off_c, 9, 36, 80
8, 220798, Note_off_c, 9, 42, 80
8, 220800, Note_on_c, 9, 36, 95
8, 220800, Note_on_c, 9, 42, 95
8, 221038, Note_off_c, 9, 36, 80
8, 221038, Note_off_c, 9, 42, 80
8, 221040, Note_on_c, 9, 42, 95
8, 221278, Note_off_c, 9, 42, 80
8, 221280, Note_on_c, 9, 40, 95
8, 221280, Note_on_c, 9, 42, 95
8, 221518, Note_off_c, 9, 40, 80
8, 221518, Note_off_c, 9, 42, 80
8, 221520, Note_on_c, 9, 42, 95
8, 221758, Note_off_c, 9, 42, 80
8, 221760, Note_on_c, 9, 36, 95
8, 221760, Note_on_c, 9, 42, 95
8, 221998, Note_off_c, 9, 36, 80
8, 221998, Note_off_c, 9, 42, 80
8, 222000, Note_on_c, 9, 42, 95
8, 222238, Note_off_c, 9, 42, 80
8, 222240, Note_on_c, 9, 40, 95
8, 222240, Note_on_c, 9, 42, 95
8, 222478, Note_off_c, 9, 40, 80
8, 222478, Note_off_c, 9, 42, 80
8, 222480, Note_on_c, 9, 36, 95
8, 222480, Note_on_c, 9, 42, 95
8, 222718, Note_off_c, 9, 36, 80
8, 222718, Note_off_c, 9, 42, 80
8, 222720, Note_on_c, 9, 36, 95
8, 222720, Note_on_c, 9, 42, 95
8, 222958, Note_off_c, 9, 36, 80
8, 222958, Note_off_c, 9, 42, 80
8, 222960, Note_on_c, 9, 42, 95
8, 223198, Note_off_c, 9, 42, 80
8, 223200, Note_on_c, 9, 40, 95
8, 223200, Note_on_c, 9, 42, 95
8, 223438, Note_off_c, 9, 40, 80
8, 223438, Note_off_c, 9, 42, 80
8, 223440, Note_on_c, 9, 42, 95
8, 223678, Note_off_c, 9, 42, 80
8, 223680, Note_on_c, 9, 36, 95
8, 223680, Note_on_c, 9, 42, 95
8, 223918, Note_off_c, 9, 36, 80
8, 223918, Note_off_c, 9, 42, 80
8, 223920, Note_on_c, 9, 42, 95
8, 224158, Note_off_c, 9, 42, 80
8, 224160, Note_on_c, 9, 40, 95
8, 224160, Note_on_c, 9, 42, 95
8, 224398, Note_off_c, 9, 40, 80
8, 224398, Note_off_c, 9, 42, 80
8, 224400, Note_on_c, 9, 36, 95
8, 224400, Note_on_c, 9, 42, 95
8, 224638, Note_off_c, 9, 36, 80
8, 224638, Note_off_c, 9, 42, 80
8, 224640, Note_on_c, 9, 36, 95
8, 224640, Note_on_c, 9, 42, 95
8, 224878, Note_off_c, 9, 36, 80
8, 224878, Note_off_c, 9, 42, 80
8, 224880, Note_on_c, 9, 42, 95
8, 225118, Note_off_c, 9, 42, 80
8, 225120, Note_on_c, 9, 40, 95
8, 225120, Note_on_c, 9, 42, 95
8, 225358, Note_off_c, 9, 40, 80
8, 225358, Note_off_c, 9, 42, 80
8, 225360, Note_on_c, 9, 42, 95
8, 225598, Note_off_c, 9, 42, 80
8, 225600, Note_on_c, 9, 36, 95
8, 225600, Note_on_c, 9, 42, 95
8, 225838, Note_off_c, 9, 36, 80
8, 225838, Note_off_c, 9, 42, 80
8, 225840, Note_on_c, 9, 42, 95
8, 226078, Note_off_c, 9, 42, 80
8, 226080, Note_on_c, 9, 40, 95
8, 226080, Note_on_c, 9, 42, 95
8, 226318, Note_off_c, 9, 40, 80
8, 226318, Note_off_c, 9, 42, 80
8, 226320, Note_on_c, 9, 36, 95
8, 226320, Note_on_c, 9, 42, 95
8, 226558, Note_off_c, 9, 36, 80
8, 226558, Note_off_c, 9, 42, 80
8, 226560, Note_on_c, 9, 36, 95
8, 226560, Note_on_c, 9, 42, 95
8, 226798, Note_off_c, 9, 36, 80
8, 226798, Note_off_c, 9, 42, 80
8, 226800, Note_on_c, 9, 42, 95
8, 227038, Note_off_c, 9, 42, 80
8, 227040, Note_on_c, 9, 40, 95
8, 227040, Note_on_c, 9, 42, 95
8, 227278, Note_off_c, 9, 40, 80
8, 227278, Note_off_c, 9, 42, 80
8, 227280, Note_on_c, 9, 42, 95
8, 227518, Note_off_c, 9, 42, 80
8, 227520, Note_on_c, 9, 36, 95
8, 227520, Note_on_c, 9, 42, 95
8, 227758, Note_off_c, 9, 36, 80
8, 227758, Note_off_c, 9, 42, 80
8, 227760, Note_on_c, 9, 42, 95
8, 227998, Note_off_c, 9, 42, 80
8, 228000, Note_on_c, 9, 40, 95
8, 228000, Note_on_c, 9, 42, 95
8, 228238, Note_off_c, 9, 40, 80
8, 228238, Note_off_c, 9, 42, 80
8, 228240, Note_on_c, 9, 36, 95
8, 228240, Note_on_c, 9, 42, 95
8, 228478, Note_off_c, 9, 36, 80
8, 228478, Note_off_c, 9, 42, 80
8, 228480, Note_on_c, 9, 36, 95
8, 228480, Note_on_c, 9, 42, 95
8, 228718, Note_off_c, 9, 36, 80
8, 228718, Note_off_c, 9, 42, 80
8, 228720, Note_on_c, 9, 42, 95
8, 228958, Note_off_c, 9, 42, 80
8, 228960, Note_on_c, 9, 40, 95
8, 228960, Note_on_c, 9, 42, 95
8, 229198, Note_off_c, 9, 40, 80
8, 229198, Note_off_c, 9, 42, 80
8, 229200, Note_on_c, 9, 42, 95
8, 229438, Note_off_c, 9, 42, 80
8, 229440, Note_on_c, 9, 36, 95
8, 229440, Note_on_c, 9, 42, 95
8, 229678, Note_off_c, 9, 36, 80
8, 229678, Note_off_c, 9, 42, 80
8, 229680, Note_on_c, 9, 42, 95
8, 229918, Note_off_c, 9, 42, 80
8, 229920, Note_on_c, 9, 40, 95
8, 229920, Note_on_c, 9, 42, 95
8, 230158, Note_off_c, 9, 40, 80
8, 230158, Note_off_c, 9, 42, 80
8, 230160, Note_on_c, 9, 36, 95
8, 230160, Note_on_c, 9, 42, 95
8, 230398, Note_off_c, 9, 36, 80
8, 230398, Note_off_c, 9, 42, 80
8, 230400, Note_on_c, 9, 36, 95
8, 230400, Note_on_c, 9, 42, 95
8, 230638, Note_off_c, 9, 36, 80
8, 230638, Note_off_c, 9, 42, 80
8, 230640, Note_on_c, 9, 42, 95
8, 230878, Note_off_c, 9, 42, 80
8, 230880, Note_on_c, 9, 40, 95
8, 230880, Note_on_c, 9, 42, 95
8, 231118, Note_off_c, 9, 40, 80
8, 231118, Note_off_c, 9, 42, 80
8, 231120, Note_on_c, 9, 42, 95
8, 231358, Note_off_c, 9, 42, 80
8, 231360, Note_on_c, 9, 36, 95
8, 231360, Note_on_c, 9, 40, 95
8, 231478, Note_off_c, 9, 36, 80
8, 231478, Note_off_c, 9, 40, 80
8, 231480, Note_on_c, 9, 40, 95
8, 231598, Note_off_c, 9, 40, 80
8, 231600, Note_on_c, 9, 40, 95
8, 231718, Note_off_c, 9, 40, 80
8, 231720, Note_on_c, 9, 40, 50
8, 231838, Note_off_c, 9, 40, 80
8, 231840, Note_on_c, 9, 45, 95
8, 231958, Note_off_c, 9, 45, 80
8, 231960, Note_on_c, 9, 45, 95
8, 232078, Note_off_c, 9, 45, 80
8, 232080, Note_on_c, 9, 45, 95
8, 232198, Note_off_c, 9, 45, 80
8, 232200, Note_on_c, 9, 45, 50
8, 232318, Note_off_c, 9, 45, 80
8, 232320, Note_on_c, 9, 36, 95
8, 232798, Note_off_c, 9, 36, 80
8, 232800, Note_on_c, 9, 40, 95
8, 232800, Note_on_c, 9, 52, 95
8, 232800, Note_on_c, 9, 55, 95
8, 233038, Note_off_c, 9, 40, 80
8, 233038, Note_off_c, 9, 52, 80
8, 233038, Note_off_c, 9, 55, 80
8, 233040, Note_on_c, 9, 51, 76
8, 233278, Note_off_c, 9, 51, 80
8, 233280, Note_on_c, 9, 36, 95
8, 233280, Note_on_c, 9, 51, 95
8, 233518, Note_off_c, 9, 36, 80
8, 233518, Note_off_c, 9, 51, 80
8, 233520, Note_on_c, 9, 51, 95
8, 233758, Note_off_c, 9, 51, 80
8, 233760, Note_on_c, 9, 40, 95
8, 233760, Note_on_c, 9, 51, 95
8, 233998, Note_off_c, 9, 40, 80
8, 233998, Note_off_c, 9, 51, 80
8, 234000, Note_on_c, 9, 36, 95
8, 234000, Note_on_c, 9, 51, 95
8, 234238, Note_off_c, 9, 36, 80
8, 234238, Note_off_c, 9, 51, 80
8, 234240, Note_on_c, 9, 51, 95
8, 234478, Note_off_c, 9, 51, 80
8, 234480, Note_on_c, 9, 36, 95
8, 234480, Note_on_c, 9, 51, 95
8, 234718, Note_off_c, 9, 36, 80
8, 234718, Note_off_c, 9, 51, 80
8, 234720, Note_on_c, 9, 40, 95
8, 234720, Note_on_c, 9, 51, 95
8, 234958, Note_off_c, 9, 40, 80
8, 234958, Note_off_c, 9, 51, 80
8, 234960, Note_on_c, 9, 51, 95
8, 235198, Note_off_c, 9, 51, 80
8, 235200, Note_on_c, 9, 36, 95
8, 235200, Note_on_c, 9, 51, 95
8, 235438, Note_off_c, 9, 36, 80
8, 235438, Note_off_c, 9, 51, 80
8, 235440, Note_on_c, 9, 51, 95
8, 235678, Note_off_c, 9, 51, 80
8, 235680, Note_on_c, 9, 40, 95
8, 235680, Note_on_c, 9, 51, 95
8, 235918, Note_off_c, 9, 40, 80
8, 235918, Note_off_c, 9, 51, 80
8, 235920, Note_on_c, 9, 40, 95
8, 235920, Note_on_c, 9, 51, 95
8, 236158, Note_off_c, 9, 40, 80
8, 236158, Note_off_c, 9, 51, 80
8, 236160, Note_on_c, 9, 36, 95
8, 236160, Note_on_c, 9, 51, 95
8, 236398, Note_off_c, 9, 36, 80
8, 236398, Note_off_c, 9, 51, 80
8, 236400, Note_on_c, 9, 51, 95
8, 236638, Note_off_c, 9, 51, 80
8, 236640, Note_on_c, 9, 40, 95
8, 236640, Note_on_c, 9, 51, 95
8, 236878, Note_off_c, 9, 40, 80
8, 236878, Note_off_c, 9, 51, 80
8, 236880, Note_on_c, 9, 51, 95
8, 237118, Note_off_c, 9, 51, 80
8, 237120, Note_on_c, 9, 36, 95
8, 237120, Note_on_c, 9, 51, 95
8, 237358, Note_off_c, 9, 36, 80
8, 237358, Note_off_c, 9, 51, 80
8, 237360, Note_on_c, 9, 51, 95
8, 237598, Note_off_c, 9, 51, 80
8, 237600, Note_on_c, 9, 40, 95
8, 237600, Note_on_c, 9, 51, 95
8, 237838, Note_off_c, 9, 40, 80
8, 237838, Note_off_c, 9, 51, 80
8, 237840, Note_on_c, 9, 36, 95
8, 237840, Note_on_c, 9, 51, 95
8, 238078, Note_off_c, 9, 36, 80
8, 238078, Note_off_c, 9, 51, 80
8, 238080, Note_on_c, 9, 51, 95
8, 238318, Note_off_c, 9, 51, 80
8, 238320, Note_on_c, 9, 36, 95
8, 238320, Note_on_c, 9, 51, 95
8, 238558, Note_off_c, 9, 36, 80
8, 238558, Note_off_c, 9, 51, 80
8, 238560, Note_on_c, 9, 40, 95
8, 238560, Note_on_c, 9, 51, 95
8, 238798, Note_off_c, 9, 40, 80
8, 238798, Note_off_c, 9, 51, 80
8, 238800, Note_on_c, 9, 51, 95
8, 239038, Note_off_c, 9, 51, 80
8, 239040, Note_on_c, 9, 36, 95
8, 239040, Note_on_c, 9, 51, 95
8, 239278, Note_off_c, 9, 36, 80
8, 239278, Note_off_c, 9, 51, 80
8, 239280, Note_on_c, 9, 51, 95
8, 239518, Note_off_c, 9, 51, 80
8, 239520, Note_on_c, 9, 40, 95
8, 239520, Note_on_c, 9, 51, 95
8, 239758, Note_off_c, 9, 40, 80
8, 239758, Note_off_c, 9, 51, 80
8, 239760, Note_on_c, 9, 40, 95
8, 239760, Note_on_c, 9, 51, 95
8, 239998, Note_off_c, 9, 40, 80
8, 239998, Note_off_c, 9, 51, 80
8, 240000, Note_on_c, 9, 36, 95
8, 240000, Note_on_c, 9, 51, 95
8, 240238, Note_off_c, 9, 36, 80
8, 240238, Note_off_c, 9, 51, 80
8, 240240, Note_on_c, 9, 51, 95
8, 240478, Note_off_c, 9, 51, 80
8, 240480, Note_on_c, 9, 40, 95
8, 240480, Note_on_c, 9, 51, 95
8, 240718, Note_off_c, 9, 40, 80
8, 240718, Note_off_c, 9, 51, 80
8, 240720, Note_on_c, 9, 51, 95
8, 240958, Note_off_c, 9, 51, 80
8, 240960, Note_on_c, 9, 36, 95
8, 240960, Note_on_c, 9, 51, 95
8, 241198, Note_off_c, 9, 36, 80
8, 241198, Note_off_c, 9, 51, 80
8, 241200, Note_on_c, 9, 51, 95
8, 241438, Note_off_c, 9, 51, 80
8, 241440, Note_on_c, 9, 40, 95
8, 241440, Note_on_c, 9, 51, 95
8, 241678, Note_off_c, 9, 40, 80
8, 241678, Note_off_c, 9, 51, 80
8, 241680, Note_on_c, 9, 36, 95
8, 241680, Note_on_c, 9, 51, 95
8, 241918, Note_off_c, 9, 36, 80
8, 241918, Note_off_c, 9, 51, 80
8, 241920, Note_on_c, 9, 51, 95
8, 242158, Note_off_c, 9, 51, 80
8, 242160, Note_on_c, 9, 36, 95
8, 242160, Note_on_c, 9, 51, 95
8, 242398, Note_off_c, 9, 36, 80
8, 242398, Note_off_c, 9, 51, 80
8, 242400, Note_on_c, 9, 40, 95
8, 242400, Note_on_c, 9, 51, 95
8, 242638, Note_off_c, 9, 40, 80
8, 242638, Note_off_c, 9, 51, 80
8, 242640, Note_on_c, 9, 51, 95
8, 242878, Note_off_c, 9, 51, 80
8, 242880, Note_on_c, 9, 36, 95
8, 242880, Note_on_c, 9, 51, 95
8, 243118, Note_off_c, 9, 36, 80
8, 243118, Note_off_c, 9, 51, 80
8, 243120, Note_on_c, 9, 51, 95
8, 243358, Note_off_c, 9, 51, 80
8, 243360, Note_on_c, 9, 40, 95
8, 243360, Note_on_c, 9, 51, 95
8, 243598, Note_off_c, 9, 40, 80
8, 243598, Note_off_c, 9, 51, 80
8, 243600, Note_on_c, 9, 40, 95
8, 243600, Note_on_c, 9, 51, 95
8, 243838, Note_off_c, 9, 40, 80
8, 243838, Note_off_c, 9, 51, 80
8, 243840, Note_on_c, 9, 36, 95
8, 243840, Note_on_c, 9, 51, 95
8, 244078, Note_off_c, 9, 36, 80
8, 244078, Note_off_c, 9, 51, 80
8, 244080, Note_on_c, 9, 51, 95
8, 244318, Note_off_c, 9, 51, 80
8, 244320, Note_on_c, 9, 40, 95
8, 244320, Note_on_c, 9, 51, 95
8, 244558, Note_off_c, 9, 40, 80
8, 244558, Note_off_c, 9, 51, 80
8, 244560, Note_on_c, 9, 51, 95
8, 244798, Note_off_c, 9, 51, 80
8, 244800, Note_on_c, 9, 36, 95
8, 244800, Note_on_c, 9, 51, 95
8, 245038, Note_off_c, 9, 36, 80
8, 245038, Note_off_c, 9, 51, 80
8, 245040, Note_on_c, 9, 51, 95
8, 245278, Note_off_c, 9, 51, 80
8, 245280, Note_on_c, 9, 40, 95
8, 245280, Note_on_c, 9, 51, 95
8, 245518, Note_off_c, 9, 40, 80
8, 245518, Note_off_c, 9, 51, 80
8, 245520, Note_on_c, 9, 36, 95
8, 245520, Note_on_c, 9, 51, 95
8, 245758, Note_off_c, 9, 36, 80
8, 245758, Note_off_c, 9, 51, 80
8, 245760, Note_on_c, 9, 51, 95
8, 245998, Note_off_c, 9, 51, 80
8, 246000, Note_on_c, 9, 36, 95
8, 246000, Note_on_c, 9, 51, 95
8, 246238, Note_off_c, 9, 36, 80
8, 246238, Note_off_c, 9, 51, 80
8, 246240, Note_on_c, 9, 40, 95
8, 246240, Note_on_c, 9, 51, 95
8, 246478, Note_off_c, 9, 40, 80
8, 246478, Note_off_c, 9, 51, 80
8, 246480, Note_on_c, 9, 51, 95
8, 246718, Note_off_c, 9, 51, 80
8, 246720, Note_on_c, 9, 36, 95
8, 246720, Note_on_c, 9, 51, 95
8, 246958, Note_off_c, 9, 36, 80
8, 246958, Note_off_c, 9, 51, 80
8, 246960, Note_on_c, 9, 51, 95
8, 247198, Note_off_c, 9, 51, 80
8, 247200, Note_on_c, 9, 40, 95
8, 247200, Note_on_c, 9, 51, 95
8, 247438, Note_off_c, 9, 40, 80
8, 247438, Note_off_c, 9, 51, 80
8, 247440, Note_on_c, 9, 40, 95
8, 247440, Note_on_c, 9, 51, 95
8, 247678, Note_off_c, 9, 40, 80
8, 247678, Note_off_c, 9, 51, 80
8, 247680, Note_on_c, 9, 36, 95
8, 247680, Note_on_c, 9, 51, 95
8, 247918, Note_off_c, 9, 36, 80
8, 247918, Note_off_c, 9, 51, 80
8, 247920, Note_on_c, 9, 51, 95
8, 248158, Note_off_c, 9, 51, 80
8, 248160, Note_on_c, 9, 40, 95
8, 248160, Note_on_c, 9, 49, 95
8, 248160, Note_on_c, 9, 52, 95
8, 248398, Note_off_c, 9, 40, 80
8, 248398, Note_off_c, 9, 49, 80
8, 248398, Note_off_c, 9, 52, 80
8, 248400, Note_on_c, 9, 51, 95
8, 248638, Note_off_c, 9, 51, 80
8, 248640, Note_on_c, 9, 36, 95
8, 248640, Note_on_c, 9, 51, 95
8, 248878, Note_off_c, 9, 36, 80
8, 248878, Note_off_c, 9, 51, 80
8, 248880, Note_on_c, 9, 51, 95
8, 249118, Note_off_c, 9, 51, 80
8, 249120, Note_on_c, 9, 40, 95
8, 249120, Note_on_c, 9, 51, 95
8, 249358, Note_off_c, 9, 40, 80
8, 249358, Note_off_c, 9, 51, 80
8, 249360, Note_on_c, 9, 51, 95
8, 249598, Note_off_c, 9, 51, 80
8, 249600, Note_on_c, 9, 36, 95
8, 249600, Note_on_c, 9, 51, 95
8, 249838, Note_off_c, 9, 36, 80
8, 249838, Note_off_c, 9, 51, 80
8, 249840, Note_on_c, 9, 51, 95
8, 250078, Note_off_c, 9, 51, 80
8, 250080, Note_on_c, 9, 40, 95
8, 250080, Note_on_c, 9, 51, 95
8, 250318, Note_off_c, 9, 40, 80
8, 250318, Note_off_c, 9, 51, 80
8, 250320, Note_on_c, 9, 51, 95
8, 250558, Note_off_c, 9, 51, 80
8, 250560, Note_on_c, 9, 36, 95
8, 250560, Note_on_c, 9, 51, 95
8, 250798, Note_off_c, 9, 36, 80
8, 250798, Note_off_c, 9, 51, 80
8, 250800, Note_on_c, 9, 51, 95
8, 251038, Note_off_c, 9, 51, 80
8, 251040, Note_on_c, 9, 40, 95
8, 251040, Note_on_c, 9, 51, 95
8, 251278, Note_off_c, 9, 40, 80
8, 251278, Note_off_c, 9, 51, 80
8, 251280, Note_on_c, 9, 40, 95
8, 251280, Note_on_c, 9, 51, 95
8, 251518, Note_off_c, 9, 40, 80
8, 251518, Note_off_c, 9, 51, 80
8, 251520, Note_on_c, 9, 36, 95
8, 251520, Note_on_c, 9, 51, 95
8, 251758, Note_off_c, 9, 36, 80
8, 251758, Note_off_c, 9, 51, 80
8, 251760, Note_on_c, 9, 51, 95
8, 251998, Note_off_c, 9, 51, 80
8, 252000, Note_on_c, 9, 40, 95
8, 252000, Note_on_c, 9, 51, 95
8, 252238, Note_off_c, 9, 40, 80
8, 252238, Note_off_c, 9, 51, 80
8, 252240, Note_on_c, 9, 51, 95
8, 252478, Note_off_c, 9, 51, 80
8, 252480, Note_on_c, 9, 36, 95
8, 252480, Note_on_c, 9, 51, 95
8, 252718, Note_off_c, 9, 36, 80
8, 252718, Note_off_c, 9, 51, 80
8, 252720, Note_on_c, 9, 51, 95
8, 252958, Note_off_c, 9, 51, 80
8, 252960, Note_on_c, 9, 40, 95
8, 252960, Note_on_c, 9, 51, 95
8, 253198, Note_off_c, 9, 40, 80
8, 253198, Note_off_c, 9, 51, 80
8, 253200, Note_on_c, 9, 51, 95
8, 253438, Note_off_c, 9, 51, 80
8, 253440, Note_on_c, 9, 36, 95
8, 253440, Note_on_c, 9, 51, 95
8, 253678, Note_off_c, 9, 36, 80
8, 253678, Note_off_c, 9, 51, 80
8, 253680, Note_on_c, 9, 51, 95
8, 253918, Note_off_c, 9, 51, 80
8, 253920, Note_on_c, 9, 40, 95
8, 253920, Note_on_c, 9, 51, 95
8, 254158, Note_off_c, 9, 40, 80
8, 254158, Note_off_c, 9, 51, 80
8, 254160, Note_on_c, 9, 51, 95
8, 254398, Note_off_c, 9, 51, 80
8, 254400, Note_on_c, 9, 36, 95
8, 254400, Note_on_c, 9, 51, 95
8, 254638, Note_off_c, 9, 36, 80
8, 254638, Note_off_c, 9, 51, 80
8, 254640, Note_on_c, 9, 51, 95
8, 254878, Note_off_c, 9, 51, 80
8, 254880, Note_on_c, 9, 40, 95
8, 254880, Note_on_c, 9, 51, 95
8, 255118, Note_off_c, 9, 40, 80
8, 255118, Note_off_c, 9, 51, 80
8, 255120, Note_on_c, 9, 40, 95
8, 255238, Note_off_c, 9, 40, 80
8, 255240, Note_on_c, 9, 40, 95
8, 255358, Note_off_c, 9, 40, 80
8, 255360, Note_on_c, 9, 36, 95
8, 255360, Note_on_c, 9, 51, 95
8, 255598, Note_off_c, 9, 36, 80
8, 255598, Note_off_c, 9, 51, 80
8, 255600, Note_on_c, 9, 51, 95
8, 255838, Note_off_c, 9, 51, 80
8, 255840, Note_on_c, 9, 40, 95
8, 255840, Note_on_c, 9, 49, 95
8, 255840, Note_on_c, 9, 52, 95
8, 256078, Note_off_c, 9, 40, 80
8, 256078, Note_off_c, 9, 49, 80
8, 256078, Note_off_c, 9, 52, 80
8, 256080, Note_on_c, 9, 51, 76
8, 256318, Note_off_c, 9, 51, 80
8, 256320, Note_on_c, 9, 36, 95
8, 256320, Note_on_c, 9, 51, 95
8, 256558, Note_off_c, 9, 36, 80
8, 256558, Note_off_c, 9, 51, 80
8, 256560, Note_on_c, 9, 51, 95
8, 256798, Note_off_c, 9, 51, 80
8, 256800, Note_on_c, 9, 40, 95
8, 256800, Note_on_c, 9, 51, 95
8, 257038, Note_off_c, 9, 40, 80
8, 257038, Note_off_c, 9, 51, 80
8, 257040, Note_on_c, 9, 36, 95
8, 257040, Note_on_c, 9, 51, 95
8, 257278, Note_off_c, 9, 36, 80
8, 257278, Note_off_c, 9, 51, 80
8, 257280, Note_on_c, 9, 51, 95
8, 257518, Note_off_c, 9, 51, 80
8, 257520, Note_on_c, 9, 36, 95
8, 257520, Note_on_c, 9, 51, 95
8, 257758, Note_off_c, 9, 36, 80
8, 257758, Note_off_c, 9, 51, 80
8, 257760, Note_on_c, 9, 40, 95
8, 257760, Note_on_c, 9, 51, 95
8, 257998, Note_off_c, 9, 40, 80
8, 257998, Note_off_c, 9, 51, 80
8, 258000, Note_on_c, 9, 51, 95
8, 258238, Note_off_c, 9, 51, 80
8, 258240, Note_on_c, 9, 36, 95
8, 258240, Note_on_c, 9, 51, 95
8, 258478, Note_off_c, 9, 36, 80
8, 258478, Note_off_c, 9, 51, 80
8, 258480, Note_on_c, 9, 51, 95
8, 258718, Note_off_c, 9, 51, 80
8, 258720, Note_on_c, 9, 40, 95
8, 258720, Note_on_c, 9, 51, 95
8, 258958, Note_off_c, 9, 40, 80
8, 258958, Note_off_c, 9, 51, 80
8, 258960, Note_on_c, 9, 40, 95
8, 258960, Note_on_c, 9, 51, 95
8, 259198, Note_off_c, 9, 40, 80
8, 259198, Note_off_c, 9, 51, 80
8, 259200, Note_on_c, 9, 36, 95
8, 259200, Note_on_c, 9, 51, 95
8, 259438, Note_off_c, 9, 36, 80
8, 259438, Note_off_c, 9, 51, 80
8, 259440, Note_on_c, 9, 51, 95
8, 259678, Note_off_c, 9, 51, 80
8, 259680, Note_on_c, 9, 40, 95
8, 259680, Note_on_c, 9, 51, 95
8, 259918, Note_off_c, 9, 40, 80
8, 259918, Note_off_c, 9, 51, 80
8, 259920, Note_on_c, 9, 51, 95
8, 260158, Note_off_c, 9, 51, 80
8, 260160, Note_on_c, 9, 36, 95
8, 260160, Note_on_c, 9, 51, 95
8, 260398, Note_off_c, 9, 36, 80
8, 260398, Note_off_c, 9, 51, 80
8, 260400, Note_on_c, 9, 51, 95
8, 260638, Note_off_c, 9, 51, 80
8, 260640, Note_on_c, 9, 40, 95
8, 260640, Note_on_c, 9, 51, 95
8, 260878, Note_off_c, 9, 40, 80
8, 260878, Note_off_c, 9, 51, 80
8, 260880, Note_on_c, 9, 36, 95
8, 260880, Note_on_c, 9, 51, 95
8, 261118, Note_off_c, 9, 36, 80
8, 261118, Note_off_c, 9, 51, 80
8, 261120, Note_on_c, 9, 51, 95
8, 261358, Note_off_c, 9, 51, 80
8, 261360, Note_on_c, 9, 36, 95
8, 261360, Note_on_c, 9, 51, 95
8, 261598, Note_off_c, 9, 36, 80
8, 261598, Note_off_c, 9, 51, 80
8, 261600, Note_on_c, 9, 40, 95
8, 261600, Note_on_c, 9, 51, 95
8, 261838, Note_off_c, 9, 40, 80
8, 261838, Note_off_c, 9, 51, 80
8, 261840, Note_on_c, 9, 51, 95
8, 262078, Note_off_c, 9, 51, 80
8, 262080, Note_on_c, 9, 36, 95
8, 262080, Note_on_c, 9, 51, 95
8, 262318, Note_off_c, 9, 36, 80
8, 262318, Note_off_c, 9, 51, 80
8, 262320, Note_on_c, 9, 51, 95
8, 262558, Note_off_c, 9, 51, 80
8, 262560, Note_on_c, 9, 40, 95
8, 262560, Note_on_c, 9, 51, 95
8, 262798, Note_off_c, 9, 40, 80
8, 262798, Note_off_c, 9, 51, 80
8, 262800, Note_on_c, 9, 40, 95
8, 262800, Note_on_c, 9, 51, 95
8, 263038, Note_off_c, 9, 40, 80
8, 263038, Note_off_c, 9, 51, 80
8, 263040, Note_on_c, 9, 36, 95
8, 263040, Note_on_c, 9, 51, 95
8, 263278, Note_off_c, 9, 36, 80
8, 263278, Note_off_c, 9, 51, 80
8, 263280, Note_on_c, 9, 51, 95
8, 263518, Note_off_c, 9, 51, 80
8, 263520, Note_on_c, 9, 40, 95
8, 263520, Note_on_c, 9, 51, 95
8, 263758, Note_off_c, 9, 40, 80
8, 263758, Note_off_c, 9, 51, 80
8, 263760, Note_on_c, 9, 51, 95
8, 263998, Note_off_c, 9, 51, 80
8, 264000, Note_on_c, 9, 36, 95
8, 264000, Note_on_c, 9, 51, 95
8, 264238, Note_off_c, 9, 36, 80
8, 264238, Note_off_c, 9, 51, 80
8, 264240, Note_on_c, 9, 51, 95
8, 264478, Note_off_c, 9, 51, 80
8, 264480, Note_on_c, 9, 40, 95
8, 264480, Note_on_c, 9, 51, 95
8, 264718, Note_off_c, 9, 40, 80
8, 264718, Note_off_c, 9, 51, 80
8, 264720, Note_on_c, 9, 36, 95
8, 264720, Note_on_c, 9, 51, 95
8, 264958, Note_off_c, 9, 36, 80
8, 264958, Note_off_c, 9, 51, 80
8, 264960, Note_on_c, 9, 51, 95
8, 265198, Note_off_c, 9, 51, 80
8, 265200, Note_on_c, 9, 36, 95
8, 265200, Note_on_c, 9, 51, 95
8, 265438, Note_off_c, 9, 36, 80
8, 265438, Note_off_c, 9, 51, 80
8, 265440, Note_on_c, 9, 40, 95
8, 265440, Note_on_c, 9, 51, 95
8, 265678, Note_off_c, 9, 40, 80
8, 265678, Note_off_c, 9, 51, 80
8, 265680, Note_on_c, 9, 51, 95
8, 265918, Note_off_c, 9, 51, 80
8, 265920, Note_on_c, 9, 36, 95
8, 265920, Note_on_c, 9, 51, 95
8, 266158, Note_off_c, 9, 36, 80
8, 266158, Note_off_c, 9, 51, 80
8, 266160, Note_on_c, 9, 51, 95
8, 266398, Note_off_c, 9, 51, 80
8, 266400, Note_on_c, 9, 40, 95
8, 266400, Note_on_c, 9, 51, 95
8, 266638, Note_off_c, 9, 40, 80
8, 266638, Note_off_c, 9, 51, 80
8, 266640, Note_on_c, 9, 40, 95
8, 266640, Note_on_c, 9, 51, 95
8, 266878, Note_off_c, 9, 40, 80
8, 266878, Note_off_c, 9, 51, 80
8, 266880, Note_on_c, 9, 36, 95
8, 266880, Note_on_c, 9, 51, 95
8, 267118, Note_off_c, 9, 36, 80
8, 267118, Note_off_c, 9, 51, 80
8, 267120, Note_on_c, 9, 51, 95
8, 267358, Note_off_c, 9, 51, 80
8, 267360, Note_on_c, 9, 40, 95
8, 267360, Note_on_c, 9, 51, 95
8, 267598, Note_off_c, 9, 40, 80
8, 267598, Note_off_c, 9, 51, 80
8, 267600, Note_on_c, 9, 51, 95
8, 267838, Note_off_c, 9, 51, 80
8, 267840, Note_on_c, 9, 36, 95
8, 267840, Note_on_c, 9, 51, 95
8, 268078, Note_off_c, 9, 36, 80
8, 268078, Note_off_c, 9, 51, 80
8, 268080, Note_on_c, 9, 51, 95
8, 268318, Note_off_c, 9, 51, 80
8, 268320, Note_on_c, 9, 40, 95
8, 268320, Note_on_c, 9, 51, 95
8, 268558, Note_off_c, 9, 40, 80
8, 268558, Note_off_c, 9, 51, 80
8, 268560, Note_on_c, 9, 36, 95
8, 268560, Note_on_c, 9, 51, 95
8, 268798, Note_off_c, 9, 36, 80
8, 268798, Note_off_c, 9, 51, 80
8, 268800, Note_on_c, 9, 51, 95
8, 269038, Note_off_c, 9, 51, 80
8, 269040, Note_on_c, 9, 36, 95
8, 269040, Note_on_c, 9, 51, 95
8, 269278, Note_off_c, 9, 36, 80
8, 269278, Note_off_c, 9, 51, 80
8, 269280, Note_on_c, 9, 40, 95
8, 269280, Note_on_c, 9, 51, 95
8, 269518, Note_off_c, 9, 40, 80
8, 269518, Note_off_c, 9, 51, 80
8, 269520, Note_on_c, 9, 51, 95
8, 269758, Note_off_c, 9, 51, 80
8, 269760, Note_on_c, 9, 36, 95
8, 269760, Note_on_c, 9, 51, 95
8, 269998, Note_off_c, 9, 36, 80
8, 269998, Note_off_c, 9, 51, 80
8, 270000, Note_on_c, 9, 51, 95
8, 270238, Note_off_c, 9, 51, 80
8, 270240, Note_on_c, 9, 40, 95
8, 270240, Note_on_c, 9, 51, 95
8, 270478, Note_off_c, 9, 40, 80
8, 270478, Note_off_c, 9, 51, 80
8, 270480, Note_on_c, 9, 40, 95
8, 270480, Note_on_c, 9, 51, 95
8, 270718, Note_off_c, 9, 40, 80
8, 270718, Note_off_c, 9, 51, 80
8, 270720, Note_on_c, 9, 36, 95
8, 270720, Note_on_c, 9, 51, 95
8, 270958, Note_off_c, 9, 36, 80
8, 270958, Note_off_c, 9, 51, 80
8, 270960, Note_on_c, 9, 51, 95
8, 271198, Note_off_c, 9, 51, 80
8, 271200, Note_on_c, 9, 40, 95
8, 271200, Note_on_c, 9, 49, 95
8, 271200, Note_on_c, 9, 52, 95
8, 271438, Note_off_c, 9, 40, 80
8, 271438, Note_off_c, 9, 49, 80
8, 271438, Note_off_c, 9, 52, 80
8, 271440, Note_on_c, 9, 51, 95
8, 271678, Note_off_c, 9, 51, 80
8, 271680, Note_on_c, 9, 36, 95
8, 271680, Note_on_c, 9, 51, 95
8, 271918, Note_off_c, 9, 36, 80
8, 271918, Note_off_c, 9, 51, 80
8, 271920, Note_on_c, 9, 51, 95
8, 272158, Note_off_c, 9, 51, 80
8, 272160, Note_on_c, 9, 40, 95
8, 272160, Note_on_c, 9, 51, 95
8, 272398, Note_off_c, 9, 40, 80
8, 272398, Note_off_c, 9, 51, 80
8, 272400, Note_on_c, 9, 51, 95
8, 272638, Note_off_c, 9, 51, 80
8, 272640, Note_on_c, 9, 36, 95
8, 272640, Note_on_c, 9, 51, 95
8, 272878, Note_off_c, 9, 36, 80
8, 272878, Note_off_c, 9, 51, 80
8, 272880, Note_on_c, 9, 51, 95
8, 273118, Note_off_c, 9, 51, 80
8, 273120, Note_on_c, 9, 40, 95
8, 273120, Note_on_c, 9, 51, 95
8, 273358, Note_off_c, 9, 40, 80
8, 273358, Note_off_c, 9, 51, 80
8, 273360, Note_on_c, 9, 51, 95
8, 273598, Note_off_c, 9, 51, 80
8, 273600, Note_on_c, 9, 36, 95
8, 273600, Note_on_c, 9, 51, 95
8, 273838, Note_off_c, 9, 36, 80
8, 273838, Note_off_c, 9, 51, 80
8, 273840, Note_on_c, 9, 51, 95
8, 274078, Note_off_c, 9, 51, 80
8, 274080, Note_on_c, 9, 40, 95
8, 274080, Note_on_c, 9, 51, 95
8, 274318, Note_off_c, 9, 40, 80
8, 274318, Note_off_c, 9, 51, 80
8, 274320, Note_on_c, 9, 40, 95
8, 274320, Note_on_c, 9, 51, 95
8, 274558, Note_off_c, 9, 40, 80
8, 274558, Note_off_c, 9, 51, 80
8, 274560, Note_on_c, 9, 36, 95
8, 274560, Note_on_c, 9, 51, 95
8, 274798, Note_off_c, 9, 36, 80
8, 274798, Note_off_c, 9, 51, 80
8, 274800, Note_on_c, 9, 51, 95
8, 275038, Note_off_c, 9, 51, 80
8, 275040, Note_on_c, 9, 40, 95
8, 275040, Note_on_c, 9, 51, 95
8, 275278, Note_off_c, 9, 40, 80
8, 275278, Note_off_c, 9, 51, 80
8, 275280, Note_on_c, 9, 51, 95
8, 275518, Note_off_c, 9, 51, 80
8, 275520, Note_on_c, 9, 36, 95
8, 275520, Note_on_c, 9, 51, 95
8, 275758, Note_off_c, 9, 36, 80
8, 275758, Note_off_c, 9, 51, 80
8, 275760, Note_on_c, 9, 51, 95
8, 275998, Note_off_c, 9, 51, 80
8, 276000, Note_on_c, 9, 40, 95
8, 276000, Note_on_c, 9, 51, 95
8, 276238, Note_off_c, 9, 40, 80
8, 276238, Note_off_c, 9, 51, 80
8, 276240, Note_on_c, 9, 36, 95
8, 276240, Note_on_c, 9, 51, 95
8, 276478, Note_off_c, 9, 36, 80
8, 276478, Note_off_c, 9, 51, 80
8, 276480, Note_on_c, 9, 51, 95
8, 276718, Note_off_c, 9, 51, 80
8, 276720, Note_on_c, 9, 36, 95
8, 276720, Note_on_c, 9, 51, 95
8, 276958, Note_off_c, 9, 36, 80
8, 276958, Note_off_c, 9, 51, 80
8, 276960, Note_on_c, 9, 40, 95
8, 276960, Note_on_c, 9, 51, 95
8, 277198, Note_off_c, 9, 40, 80
8, 277198, Note_off_c, 9, 51, 80
8, 277200, Note_on_c, 9, 51, 95
8, 277438, Note_off_c, 9, 51, 80
8, 277440, Note_on_c, 9, 36, 95
8, 277440, Note_on_c, 9, 51, 95
8, 277678, Note_off_c, 9, 36, 80
8, 277678, Note_off_c, 9, 51, 80
8, 277680, Note_on_c, 9, 51, 95
8, 277918, Note_off_c, 9, 51, 80
8, 277920, Note_on_c, 9, 40, 95
8, 277920, Note_on_c, 9, 51, 95
8, 278158, Note_off_c, 9, 40, 80
8, 278158, Note_off_c, 9, 51, 80
8, 278160, Note_on_c, 9, 40, 95
8, 278160, Note_on_c, 9, 51, 95
8, 278398, Note_off_c, 9, 40, 80
8, 278398, Note_off_c, 9, 51, 80
8, 278400, Note_on_c, 9, 36, 95
8, 278400, Note_on_c, 9, 51, 95
8, 278638, Note_off_c, 9, 36, 80
8, 278638, Note_off_c, 9, 51, 80
8, 278640, Note_on_c, 9, 51, 95
8, 278878, Note_off_c, 9, 51, 80
8, 278880, Note_on_c, 9, 40, 95
8, 278880, Note_on_c, 9, 49, 95
8, 278880, Note_on_c, 9, 52, 95
8, 279118, Note_off_c, 9, 40, 80
8, 279118, Note_off_c, 9, 49, 80
8, 279118, Note_off_c, 9, 52, 80
8, 279120, Note_on_c, 9, 51, 76
8, 279358, Note_off_c, 9, 51, 80
8, 279360, Note_on_c, 9, 36, 95
8, 279360, Note_on_c, 9, 51, 95
8, 279598, Note_off_c, 9, 36, 80
8, 279598, Note_off_c, 9, 51, 80
8, 279600, Note_on_c, 9, 51, 95
8, 279838, Note_off_c, 9, 51, 80
8, 279840, Note_on_c, 9, 40, 95
8, 279840, Note_on_c, 9, 51, 95
8, 280078, Note_off_c, 9, 40, 80
8, 280078, Note_off_c, 9, 51, 80
8, 280080, Note_on_c, 9, 36, 95
8, 280080, Note_on_c, 9, 51, 95
8, 280318, Note_off_c, 9, 36, 80
8, 280318, Note_off_c, 9, 51, 80
8, 280320, Note_on_c, 9, 51, 95
8, 280558, Note_off_c, 9, 51, 80
8, 280560, Note_on_c, 9, 36, 95
8, 280560, Note_on_c, 9, 51, 95
8, 280798, Note_off_c, 9, 36, 80
8, 280798, Note_off_c, 9, 51, 80
8, 280800, Note_on_c, 9, 40, 95
8, 280800, Note_on_c, 9, 51, 95
8, 281038, Note_off_c, 9, 40, 80
8, 281038, Note_off_c, 9, 51, 80
8, 281040, Note_on_c, 9, 51, 95
8, 281278, Note_off_c, 9, 51, 80
8, 281280, Note_on_c, 9, 36, 95
8, 281280, Note_on_c, 9, 51, 95
8, 281518, Note_off_c, 9, 36, 80
8, 281518, Note_off_c, 9, 51, 80
8, 281520, Note_on_c, 9, 51, 95
8, 281758, Note_off_c, 9, 51, 80
8, 281760, Note_on_c, 9, 40, 95
8, 281760, Note_on_c, 9, 51, 95
8, 281998, Note_off_c, 9, 40, 80
8, 281998, Note_off_c, 9, 51, 80
8, 282000, Note_on_c, 9, 40, 95
8, 282000, Note_on_c, 9, 51, 95
8, 282238, Note_off_c, 9, 40, 80
8, 282238, Note_off_c, 9, 51, 80
8, 282240, Note_on_c, 9, 36, 95
8, 282240, Note_on_c, 9, 51, 95
8, 282478, Note_off_c, 9, 36, 80
8, 282478, Note_off_c, 9, 51, 80
8, 282480, Note_on_c, 9, 51, 95
8, 282718, Note_off_c, 9, 51, 80
8, 282720, Note_on_c, 9, 40, 95
8, 282720, Note_on_c, 9, 51, 95
8, 282958, Note_off_c, 9, 40, 80
8, 282958, Note_off_c, 9, 51, 80
8, 282960, Note_on_c, 9, 51, 95
8, 283198, Note_off_c, 9, 51, 80
8, 283200, Note_on_c, 9, 36, 95
8, 283200, Note_on_c, 9, 51, 95
8, 283438, Note_off_c, 9, 36, 80
8, 283438, Note_off_c, 9, 51, 80
8, 283440, Note_on_c, 9, 51, 95
8, 283678, Note_off_c, 9, 51, 80
8, 283680, Note_on_c, 9, 40, 95
8, 283680, Note_on_c, 9, 51, 95
8, 283918, Note_off_c, 9, 40, 80
8, 283918, Note_off_c, 9, 51, 80
8, 283920, Note_on_c, 9, 36, 95
8, 283920, Note_on_c, 9, 51, 95
8, 284158, Note_off_c, 9, 36, 80
8, 284158, Note_off_c, 9, 51, 80
8, 284160, Note_on_c, 9, 51, 95
8, 284398, Note_off_c, 9, 51, 80
8, 284400, Note_on_c, 9, 36, 95
8, 284400, Note_on_c, 9, 51, 95
8, 284638, Note_off_c, 9, 36, 80
8, 284638, Note_off_c, 9, 51, 80
8, 284640, Note_on_c, 9, 40, 95
8, 284640, Note_on_c, 9, 51, 95
8, 284878, Note_off_c, 9, 40, 80
8, 284878, Note_off_c, 9, 51, 80
8, 284880, Note_on_c, 9, 51, 95
8, 285118, Note_off_c, 9, 51, 80
8, 285120, Note_on_c, 9, 36, 95
8, 285120, Note_on_c, 9, 51, 95
8, 285358, Note_off_c, 9, 36, 80
8, 285358, Note_off_c, 9, 51, 80
8, 285360, Note_on_c, 9, 51, 95
8, 285598, Note_off_c, 9, 51, 80
8, 285600, Note_on_c, 9, 40, 95
8, 285600, Note_on_c, 9, 51, 95
8, 285838, Note_off_c, 9, 40, 80
8, 285838, Note_off_c, 9, 51, 80
8, 285840, Note_on_c, 9, 40, 95
8, 285840, Note_on_c, 9, 51, 95
8, 286078, Note_off_c, 9, 40, 80
8, 286078, Note_off_c, 9, 51, 80
8, 286080, Note_on_c, 9, 36, 95
8, 286080, Note_on_c, 9, 51, 95
8, 286318, Note_off_c, 9, 36, 80
8, 286318, Note_off_c, 9, 51, 80
8, 286320, Note_on_c, 9, 51, 95
8, 286558, Note_off_c, 9, 51, 80
8, 286560, Note_on_c, 9, 40, 95
8, 286560, Note_on_c, 9, 51, 95
8, 286798, Note_off_c, 9, 40, 80
8, 286798, Note_off_c, 9, 51, 80
8, 286800, Note_on_c, 9, 51, 95
8, 287038, Note_off_c, 9, 51, 80
8, 287040, Note_on_c, 9, 36, 95
8, 287040, Note_on_c, 9, 51, 95
8, 287278, Note_off_c, 9, 36, 80
8, 287278, Note_off_c, 9, 51, 80
8, 287280, Note_on_c, 9, 51, 95
8, 287518, Note_off_c, 9, 51, 80
8, 287520, Note_on_c, 9, 40, 95
8, 287520, Note_on_c, 9, 51, 95
8, 287758, Note_off_c, 9, 40, 80
8, 287758, Note_off_c, 9, 51, 80
8, 287760, Note_on_c, 9, 36, 95
8, 287760, Note_on_c, 9, 51, 95
8, 287998, Note_off_c, 9, 36, 80
8, 287998, Note_off_c, 9, 51, 80
8, 288000, Note_on_c, 9, 51, 95
8, 288238, Note_off_c, 9, 51, 80
8, 288240, Note_on_c, 9, 36, 95
8, 288240, Note_on_c, 9, 51, 95
8, 288478, Note_off_c, 9, 36, 80
8, 288478, Note_off_c, 9, 51, 80
8, 288480, Note_on_c, 9, 40, 95
8, 288480, Note_on_c, 9, 51, 95
8, 288718, Note_off_c, 9, 40, 80
8, 288718, Note_off_c, 9, 51, 80
8, 288720, Note_on_c, 9, 51, 95
8, 288958, Note_off_c, 9, 51, 80
8, 288960, Note_on_c, 9, 36, 95
8, 288960, Note_on_c, 9, 51, 95
8, 289198, Note_off_c, 9, 36, 80
8, 289198, Note_off_c, 9, 51, 80
8, 289200, Note_on_c, 9, 51, 95
8, 289438, Note_off_c, 9, 51, 80
8, 289440, Note_on_c, 9, 40, 95
8, 289440, Note_on_c, 9, 51, 95
8, 289678, Note_off_c, 9, 40, 80
8, 289678, Note_off_c, 9, 51, 80
8, 289680, Note_on_c, 9, 40, 95
8, 289680, Note_on_c, 9, 51, 95
8, 289918, Note_off_c, 9, 40, 80
8, 289918, Note_off_c, 9, 51, 80
8, 289920, Note_on_c, 9, 36, 95
8, 289920, Note_on_c, 9, 51, 95
8, 290158, Note_off_c, 9, 36, 80
8, 290158, Note_off_c, 9, 51, 80
8, 290160, Note_on_c, 9, 51, 95
8, 290398, Note_off_c, 9, 51, 80
8, 290400, Note_on_c, 9, 40, 95
8, 290400, Note_on_c, 9, 51, 95
8, 290638, Note_off_c, 9, 40, 80
8, 290638, Note_off_c, 9, 51, 80
8, 290640, Note_on_c, 9, 51, 95
8, 290878, Note_off_c, 9, 51, 80
8, 290880, Note_on_c, 9, 36, 95
8, 290880, Note_on_c, 9, 51, 95
8, 291118, Note_off_c, 9, 36, 80
8, 291118, Note_off_c, 9, 51, 80
8, 291120, Note_on_c, 9, 51, 95
8, 291358, Note_off_c, 9, 51, 80
8, 291360, Note_on_c, 9, 40, 95
8, 291360, Note_on_c, 9, 51, 95
8, 291598, Note_off_c, 9, 40, 80
8, 291598, Note_off_c, 9, 51, 80
8, 291600, Note_on_c, 9, 36, 95
8, 291600, Note_on_c, 9, 51, 95
8, 291838, Note_off_c, 9, 36, 80
8, 291838, Note_off_c, 9, 51, 80
8, 291840, Note_on_c, 9, 51, 95
8, 292078, Note_off_c, 9, 51, 80
8, 292080, Note_on_c, 9, 36, 95
8, 292080, Note_on_c, 9, 51, 95
8, 292318, Note_off_c, 9, 36, 80
8, 292318, Note_off_c, 9, 51, 80
8, 292320, Note_on_c, 9, 40, 95
8, 292320, Note_on_c, 9, 51, 95
8, 292558, Note_off_c, 9, 40, 80
8, 292558, Note_off_c, 9, 51, 80
8, 292560, Note_on_c, 9, 51, 95
8, 292798, Note_off_c, 9, 51, 80
8, 292800, Note_on_c, 9, 36, 95
8, 292800, Note_on_c, 9, 51, 95
8, 293038, Note_off_c, 9, 36, 80
8, 293038, Note_off_c, 9, 51, 80
8, 293040, Note_on_c, 9, 51, 95
8, 293278, Note_off_c, 9, 51, 80
8, 293280, Note_on_c, 9, 40, 95
8, 293280, Note_on_c, 9, 51, 95
8, 293518, Note_off_c, 9, 40, 80
8, 293518, Note_off_c, 9, 51, 80
8, 293520, Note_on_c, 9, 40, 95
8, 293520, Note_on_c, 9, 51, 95
8, 293758, Note_off_c, 9, 40, 80
8, 293758, Note_off_c, 9, 51, 80
8, 293760, Note_on_c, 9, 36, 95
8, 293760, Note_on_c, 9, 51, 95
8, 293998, Note_off_c, 9, 36, 80
8, 293998, Note_off_c, 9, 51, 80
8, 294000, Note_on_c, 9, 51, 95
8, 294238, Note_off_c, 9, 51, 80
8, 294240, Note_on_c, 9, 40, 95
8, 294240, Note_on_c, 9, 49, 95
8, 294240, Note_on_c, 9, 52, 95
8, 294478, Note_off_c, 9, 40, 80
8, 294478, Note_off_c, 9, 49, 80
8, 294478, Note_off_c, 9, 52, 80
8, 294480, Note_on_c, 9, 51, 95
8, 294718, Note_off_c, 9, 51, 80
8, 294720, Note_on_c, 9, 36, 95
8, 294720, Note_on_c, 9, 51, 95
8, 294958, Note_off_c, 9, 36, 80
8, 294958, Note_off_c, 9, 51, 80
8, 294960, Note_on_c, 9, 51, 95
8, 295198, Note_off_c, 9, 51, 80
8, 295200, Note_on_c, 9, 40, 95
8, 295200, Note_on_c, 9, 51, 95
8, 295438, Note_off_c, 9, 40, 80
8, 295438, Note_off_c, 9, 51, 80
8, 295440, Note_on_c, 9, 36, 95
8, 295440, Note_on_c, 9, 51, 95
8, 295678, Note_off_c, 9, 36, 80
8, 295678, Note_off_c, 9, 51, 80
8, 295680, Note_on_c, 9, 51, 95
8, 295918, Note_off_c, 9, 51, 80
8, 295920, Note_on_c, 9, 36, 95
8, 295920, Note_on_c, 9, 51, 95
8, 296158, Note_off_c, 9, 36, 80
8, 296158, Note_off_c, 9, 51, 80
8, 296160, Note_on_c, 9, 40, 95
8, 296160, Note_on_c, 9, 51, 95
8, 296398, Note_off_c, 9, 40, 80
8, 296398, Note_off_c, 9, 51, 80
8, 296400, Note_on_c, 9, 51, 95
8, 296638, Note_off_c, 9, 51, 80
8, 296640, Note_on_c, 9, 36, 95
8, 296640, Note_on_c, 9, 51, 95
8, 296878, Note_off_c, 9, 36, 80
8, 296878, Note_off_c, 9, 51, 80
8, 296880, Note_on_c, 9, 51, 95
8, 297118, Note_off_c, 9, 51, 80
8, 297120, Note_on_c, 9, 40, 95
8, 297120, Note_on_c, 9, 51, 95
8, 297358, Note_off_c, 9, 40, 80
8, 297358, Note_off_c, 9, 51, 80
8, 297360, Note_on_c, 9, 40, 95
8, 297360, Note_on_c, 9, 51, 95
8, 297598, Note_off_c, 9, 40, 80
8, 297598, Note_off_c, 9, 51, 80
8, 297600, Note_on_c, 9, 36, 95
8, 297600, Note_on_c, 9, 51, 95
8, 297838, Note_off_c, 9, 36, 80
8, 297838, Note_off_c, 9, 51, 80
8, 297840, Note_on_c, 9, 51, 95
8, 298078, Note_off_c, 9, 51, 80
8, 298080, Note_on_c, 9, 40, 95
8, 298080, Note_on_c, 9, 51, 95
8, 298318, Note_off_c, 9, 40, 80
8, 298318, Note_off_c, 9, 51, 80
8, 298320, Note_on_c, 9, 51, 95
8, 298558, Note_off_c, 9, 51, 80
8, 298560, Note_on_c, 9, 36, 95
8, 298560, Note_on_c, 9, 51, 95
8, 298798, Note_off_c, 9, 36, 80
8, 298798, Note_off_c, 9, 51, 80
8, 298800, Note_on_c, 9, 51, 95
8, 299038, Note_off_c, 9, 51, 80
8, 299040, Note_on_c, 9, 40, 95
8, 299040, Note_on_c, 9, 51, 95
8, 299278, Note_off_c, 9, 40, 80
8, 299278, Note_off_c, 9, 51, 80
8, 299280, Note_on_c, 9, 36, 95
8, 299280, Note_on_c, 9, 51, 95
8, 299518, Note_off_c, 9, 36, 80
8, 299518, Note_off_c, 9, 51, 80
8, 299520, Note_on_c, 9, 51, 95
8, 299758, Note_off_c, 9, 51, 80
8, 299760, Note_on_c, 9, 36, 95
8, 299760, Note_on_c, 9, 51, 95
8, 299998, Note_off_c, 9, 36, 80
8, 299998, Note_off_c, 9, 51, 80
8, 300000, Note_on_c, 9, 40, 95
8, 300000, Note_on_c, 9, 51, 95
8, 300238, Note_off_c, 9, 40, 80
8, 300238, Note_off_c, 9, 51, 80
8, 300240, Note_on_c, 9, 51, 95
8, 300478, Note_off_c, 9, 51, 80
8, 300480, Note_on_c, 9, 36, 95
8, 300480, Note_on_c, 9, 51, 95
8, 300718, Note_off_c, 9, 36, 80
8, 300718, Note_off_c, 9, 51, 80
8, 300720, Note_on_c, 9, 51, 95
8, 300958, Note_off_c, 9, 51, 80
8, 300960, Note_on_c, 9, 40, 95
8, 300960, Note_on_c, 9, 51, 95
8, 301198, Note_off_c, 9, 40, 80
8, 301198, Note_off_c, 9, 51, 80
8, 301200, Note_on_c, 9, 40, 95
8, 301200, Note_on_c, 9, 51, 95
8, 301438, Note_off_c, 9, 40, 80
8, 301438, Note_off_c, 9, 51, 80
8, 301440, Note_on_c, 9, 36, 95
8, 301440, Note_on_c, 9, 42, 95
8, 301440, Note_on_c, 9, 49, 95
8, 301678, Note_off_c, 9, 36, 80
8, 301678, Note_off_c, 9, 42, 80
8, 301678, Note_off_c, 9, 49, 80
8, 301680, Note_on_c, 9, 42, 95
8, 301918, Note_off_c, 9, 42, 80
8, 301920, Note_on_c, 9, 40, 95
8, 301920, Note_on_c, 9, 42, 95
8, 302158, Note_off_c, 9, 40, 80
8, 302158, Note_off_c, 9, 42, 80
8, 302160, Note_on_c, 9, 42, 95
8, 302398, Note_off_c, 9, 42, 80
8, 302400, Note_on_c, 9, 36, 95
8, 302400, Note_on_c, 9, 42, 95
8, 302638, Note_off_c, 9, 36, 80
8, 302638, Note_off_c, 9, 42, 80
8, 302640, Note_on_c, 9, 42, 95
8, 302878, Note_off_c, 9, 42, 80
8, 302880, Note_on_c, 9, 40, 95
8, 302880, Note_on_c, 9, 42, 95
8, 303118, Note_off_c, 9, 40, 80
8, 303118, Note_off_c, 9, 42, 80
8, 303120, Note_on_c, 9, 36, 95
8, 303120, Note_on_c, 9, 42, 95
8, 303358, Note_off_c, 9, 36, 80
8, 303358, Note_off_c, 9, 42, 80
8, 303360, Note_on_c, 9, 36, 95
8, 303360, Note_on_c, 9, 42, 95
8, 303598, Note_off_c, 9, 36, 80
8, 303598, Note_off_c, 9, 42, 80
8, 303600, Note_on_c, 9, 42, 95
8, 303838, Note_off_c, 9, 42, 80
8, 303840, Note_on_c, 9, 40, 95
8, 303840, Note_on_c, 9, 42, 95
8, 304078, Note_off_c, 9, 40, 80
8, 304078, Note_off_c, 9, 42, 80
8, 304080, Note_on_c, 9, 42, 95
8, 304318, Note_off_c, 9, 42, 80
8, 304320, Note_on_c, 9, 36, 95
8, 304320, Note_on_c, 9, 42, 95
8, 304558, Note_off_c, 9, 36, 80
8, 304558, Note_off_c, 9, 42, 80
8, 304560, Note_on_c, 9, 42, 95
8, 304798, Note_off_c, 9, 42, 80
8, 304800, Note_on_c, 9, 40, 95
8, 304800, Note_on_c, 9, 42, 95
8, 305038, Note_off_c, 9, 40, 80
8, 305038, Note_off_c, 9, 42, 80
8, 305040, Note_on_c, 9, 36, 95
8, 305040, Note_on_c, 9, 42, 95
8, 305278, Note_off_c, 9, 36, 80
8, 305278, Note_off_c, 9, 42, 80
8, 305280, Note_on_c, 9, 36, 95
8, 305280, Note_on_c, 9, 42, 95
8, 305518, Note_off_c, 9, 36, 80
8, 305518, Note_off_c, 9, 42, 80
8, 305520, Note_on_c, 9, 42, 95
8, 305758, Note_off_c, 9, 42, 80
8, 305760, Note_on_c, 9, 40, 95
8, 305760, Note_on_c, 9, 42, 95
8, 305998, Note_off_c, 9, 40, 80
8, 305998, Note_off_c, 9, 42, 80
8, 306000, Note_on_c, 9, 42, 95
8, 306238, Note_off_c, 9, 42, 80
8, 306240, Note_on_c, 9, 36, 95
8, 306240, Note_on_c, 9, 42, 95
8, 306478, Note_off_c, 9, 36, 80
8, 306478, Note_off_c, 9, 42, 80
8, 306480, Note_on_c, 9, 42, 95
8, 306718, Note_off_c, 9, 42, 80
8, 306720, Note_on_c, 9, 40, 95
8, 306720, Note_on_c, 9, 42, 95
8, 306958, Note_off_c, 9, 40, 80
8, 306958, Note_off_c, 9, 42, 80
8, 306960, Note_on_c, 9, 36, 95
8, 306960, Note_on_c, 9, 42, 95
8, 307198, Note_off_c, 9, 36, 80
8, 307198, Note_off_c, 9, 42, 80
8, 307200, Note_on_c, 9, 36, 95
8, 307200, Note_on_c, 9, 42, 95
8, 307438, Note_off_c, 9, 36, 80
8, 307438, Note_off_c, 9, 42, 80
8, 307440, Note_on_c, 9, 42, 95
8, 307678, Note_off_c, 9, 42, 80
8, 307680, Note_on_c, 9, 40, 95
8, 307680, Note_on_c, 9, 42, 95
8, 307918, Note_off_c, 9, 40, 80
8, 307918, Note_off_c, 9, 42, 80
8, 307920, Note_on_c, 9, 42, 95
8, 308158, Note_off_c, 9, 42, 80
8, 308160, Note_on_c, 9, 36, 95
8, 308160, Note_on_c, 9, 42, 95
8, 308398, Note_off_c, 9, 36, 80
8, 308398, Note_off_c, 9, 42, 80
8, 308400, Note_on_c, 9, 42, 95
8, 308638, Note_off_c, 9, 42, 80
8, 308640, Note_on_c, 9, 40, 95
8, 308640, Note_on_c, 9, 42, 95
8, 308878, Note_off_c, 9, 40, 80
8, 308878, Note_off_c, 9, 42, 80
8, 308880, Note_on_c, 9, 36, 95
8, 308880, Note_on_c, 9, 42, 95
8, 309118, Note_off_c, 9, 36, 80
8, 309118, Note_off_c, 9, 42, 80
8, 309120, Note_on_c, 9, 36, 95
8, 309120, Note_on_c, 9, 42, 95
8, 309358, Note_off_c, 9, 36, 80
8, 309358, Note_off_c, 9, 42, 80
8, 309360, Note_on_c, 9, 42, 95
8, 309598, Note_off_c, 9, 42, 80
8, 309600, Note_on_c, 9, 40, 95
8, 309600, Note_on_c, 9, 42, 95
8, 309838, Note_off_c, 9, 40, 80
8, 309838, Note_off_c, 9, 42, 80
8, 309840, Note_on_c, 9, 42, 95
8, 310078, Note_off_c, 9, 42, 80
8, 310080, Note_on_c, 9, 36, 95
8, 310080, Note_on_c, 9, 42, 95
8, 310318, Note_off_c, 9, 36, 80
8, 310318, Note_off_c, 9, 42, 80
8, 310320, Note_on_c, 9, 42, 95
8, 310558, Note_off_c, 9, 42, 80
8, 310560, Note_on_c, 9, 40, 95
8, 310560, Note_on_c, 9, 42, 95
8, 310798, Note_off_c, 9, 40, 80
8, 310798, Note_off_c, 9, 42, 80
8, 310800, Note_on_c, 9, 36, 95
8, 310800, Note_on_c, 9, 42, 95
8, 311038, Note_off_c, 9, 36, 80
8, 311038, Note_off_c, 9, 42, 80
8, 311040, Note_on_c, 9, 36, 95
8, 311040, Note_on_c, 9, 42, 95
8, 311278, Note_off_c, 9, 36, 80
8, 311278, Note_off_c, 9, 42, 80
8, 311280, Note_on_c, 9, 42, 95
8, 311518, Note_off_c, 9, 42, 80
8, 311520, Note_on_c, 9, 40, 95
8, 311520, Note_on_c, 9, 42, 95
8, 311758, Note_off_c, 9, 40, 80
8, 311758, Note_off_c, 9, 42, 80
8, 311760, Note_on_c, 9, 42, 95
8, 311998, Note_off_c, 9, 42, 80
8, 312000, Note_on_c, 9, 36, 95
8, 312000, Note_on_c, 9, 42, 95
8, 312238, Note_off_c, 9, 36, 80
8, 312238, Note_off_c, 9, 42, 80
8, 312240, Note_on_c, 9, 42, 95
8, 312478, Note_off_c, 9, 42, 80
8, 312480, Note_on_c, 9, 40, 95
8, 312480, Note_on_c, 9, 42, 95
8, 312718, Note_off_c, 9, 40, 80
8, 312718, Note_off_c, 9, 42, 80
8, 312720, Note_on_c, 9, 36, 95
8, 312720, Note_on_c, 9, 42, 95
8, 312958, Note_off_c, 9, 36, 80
8, 312958, Note_off_c, 9, 42, 80
8, 312960, Note_on_c, 9, 36, 95
8, 312960, Note_on_c, 9, 42, 95
8, 313198, Note_off_c, 9, 36, 80
8, 313198, Note_off_c, 9, 42, 80
8, 313200, Note_on_c, 9, 42, 95
8, 313438, Note_off_c, 9, 42, 80
8, 313440, Note_on_c, 9, 40, 95
8, 313440, Note_on_c, 9, 42, 95
8, 313678, Note_off_c, 9, 40, 80
8, 313678, Note_off_c, 9, 42, 80
8, 313680, Note_on_c, 9, 42, 95
8, 313918, Note_off_c, 9, 42, 80
8, 313920, Note_on_c, 9, 36, 95
8, 313920, Note_on_c, 9, 42, 95
8, 314158, Note_off_c, 9, 36, 80
8, 314158, Note_off_c, 9, 42, 80
8, 314160, Note_on_c, 9, 42, 95
8, 314398, Note_off_c, 9, 42, 80
8, 314400, Note_on_c, 9, 40, 95
8, 314400, Note_on_c, 9, 42, 95
8, 314638, Note_off_c, 9, 40, 80
8, 314638, Note_off_c, 9, 42, 80
8, 314640, Note_on_c, 9, 36, 95
8, 314640, Note_on_c, 9, 42, 95
8, 314878, Note_off_c, 9, 36, 80
8, 314878, Note_off_c, 9, 42, 80
8, 314880, Note_on_c, 9, 36, 95
8, 314880, Note_on_c, 9, 42, 95
8, 315118, Note_off_c, 9, 36, 80
8, 315118, Note_off_c, 9, 42, 80
8, 315120, Note_on_c, 9, 42, 95
8, 315358, Note_off_c, 9, 42, 80
8, 315360, Note_on_c, 9, 40, 95
8, 315360, Note_on_c, 9, 42, 95
8, 315598, Note_off_c, 9, 40, 80
8, 315598, Note_off_c, 9, 42, 80
8, 315600, Note_on_c, 9, 42, 95
8, 315838, Note_off_c, 9, 42, 80
8, 315840, Note_on_c, 9, 36, 95
8, 315840, Note_on_c, 9, 42, 95
8, 316078, Note_off_c, 9, 36, 80
8, 316078, Note_off_c, 9, 42, 80
8, 316080, Note_on_c, 9, 42, 95
8, 316318, Note_off_c, 9, 42, 80
8, 316320, Note_on_c, 9, 40, 95
8, 316320, Note_on_c, 9, 42, 95
8, 316558, Note_off_c, 9, 40, 80
8, 316558, Note_off_c, 9, 42, 80
8, 316560, Note_on_c, 9, 40, 95
8, 316678, Note_off_c, 9, 40, 80
8, 316680, Note_on_c, 9, 40, 95
8, 316798, Note_off_c, 9, 40, 80
8, 316800, Note_on_c, 9, 49, 95
8, 316800, Note_on_c, 9, 57, 95
8, 318718, Note_off_c, 9, 49, 80
8, 318718, Note_off_c, 9, 57, 80
8, 318718, End_track
9, 0, Start_track
9, 0, Title_t, "Strings Add"
9, 900, Control_c, 10, 121, 0
9, 900, Control_c, 10, 123, 0
9, 900, Control_c, 10, 100, 0
9, 900, Control_c, 10, 38, 0
9, 900, Control_c, 10, 101, 0
9, 900, Control_c, 10, 6, 12
9, 900, Pitch_bend_c, 10, 8192
9, 960, Program_c, 10, 40
9, 960, Control_c, 10, 7, 86
9, 960, Control_c, 10, 10, 104
9, 47520, Note_on_c, 10, 54, 95
9, 47998, Note_off_c, 10, 54, 80
9, 48000, Note_on_c, 10, 62, 95
9, 48816, Pitch_bend_c, 10, 7552
9, 48888, Pitch_bend_c, 10, 6784
9, 48960, Pitch_bend_c, 10, 6144
9, 55198, Note_off_c, 10, 62, 80
9, 55200, Pitch_bend_c, 10, 8192
9, 55200, Note_on_c, 10, 54, 95
9, 55678, Note_off_c, 10, 54, 80
9, 55680, Note_on_c, 10, 62, 95
9, 56328, Pitch_bend_c, 10, 8832
9, 56398, Note_off_c, 10, 62, 80
9, 56400, Pitch_bend_c, 10, 8192
9, 56400, Note_on_c, 10, 64, 76
9, 56580, Pitch_bend_c, 10, 7552
9, 56595, Pitch_bend_c, 10, 6784
9, 56610, Pitch_bend_c, 10, 6144
9, 56625, Pitch_bend_c, 10, 5504
9, 56638, Note_off_c, 10, 64, 80
9, 56640, Pitch_bend_c, 10, 8192
9, 56640, Note_on_c, 10, 59, 76
9, 62878, Note_off_c, 10, 59, 80
9, 62880, Note_on_c, 10, 52, 95
9, 63358, Note_off_c, 10, 52, 80
9, 63360, Note_on_c, 10, 62, 95
9, 64128, Pitch_bend_c, 10, 7552
9, 64318, Note_off_c, 10, 62, 80
9, 64320, Pitch_bend_c, 10, 8192
9, 64320, Note_on_c, 10, 61, 76
9, 65038, Note_off_c, 10, 61, 80
9, 65040, Note_on_c, 10, 61, 95
9, 65232, Pitch_bend_c, 10, 8832
9, 65278, Note_off_c, 10, 61, 80
9, 65280, Pitch_bend_c, 10, 8192
9, 65280, Note_on_c, 10, 62, 76
9, 65688, Pitch_bend_c, 10, 7552
9, 65724, Pitch_bend_c, 10, 6784
9, 65758, Note_off_c, 10, 62, 80
9, 65760, Pitch_bend_c, 10, 8192
9, 65760, Note_on_c, 10, 59, 76
9, 70558, Note_off_c, 10, 59, 80
9, 70560, Note_on_c, 10, 52, 95
9, 71038, Note_off_c, 10, 52, 80
9, 71040, Note_on_c, 10, 64, 95
9, 71998, Note_off_c, 10, 64, 80
9, 72000, Note_on_c, 10, 62, 95
9, 72576, Pitch_bend_c, 10, 7552
9, 72718, Note_off_c, 10, 62, 80
9, 72720, Pitch_bend_c, 10, 8192
9, 72720, Note_on_c, 10, 61, 76
9, 72958, Note_off_c, 10, 61, 80
9, 72960, Note_on_c, 10, 61, 95
9, 73152, Pitch_bend_c, 10, 8832
9, 73608, Pitch_bend_c, 10, 8192
9, 73644, Pitch_bend_c, 10, 7424
9, 73680, Pitch_bend_c, 10, 6784
9, 78718, Note_off_c, 10, 61, 80
9, 170400, Note_on_c, 10, 66, 95
9, 170878, Note_off_c, 10, 66, 80
9, 170880, Note_on_c, 10, 74, 95
9, 171696, Pitch_bend_c, 10, 7552
9, 171768, Pitch_bend_c, 10, 6784
9, 171840, Pitch_bend_c, 10, 6144
9, 178078, Note_off_c, 10, 74, 80
9, 178080, Pitch_bend_c, 10, 8192
9, 178080, Note_on_c, 10, 66, 95
9, 178558, Note_off_c, 10, 66, 80
9, 178560, Note_on_c, 10, 74, 95
9, 179208, Pitch_bend_c, 10, 8832
9, 179278, Note_off_c, 10, 74, 80
9, 179280, Pitch_bend_c, 10, 8192
9, 179280, Note_on_c, 10, 76, 76
9, 179460, Pitch_bend_c, 10, 7552
9, 179475, Pitch_bend_c, 10, 6784
9, 179490, Pitch_bend_c, 10, 6144
9, 179505, Pitch_bend_c, 10, 5504
9, 179518, Note_off_c, 10, 76, 80
9, 179520, Pitch_bend_c, 10, 8192
9, 179520, Note_on_c, 10, 71, 76
9, 185758, Note_off_c, 10, 71, 80
9, 185760, Note_on_c, 10, 66, 95
9, 186238, Note_off_c, 10, 66, 80
9, 186240, Note_on_c, 10, 74, 95
9, 187008, Pitch_bend_c, 10, 7552
9, 187198, Note_off_c, 10, 74, 80
9, 187200, Pitch_bend_c, 10, 8192
9, 187200, Note_on_c, 10, 73, 76
9, 187918, Note_off_c, 10, 73, 80
9, 187920, Note_on_c, 10, 73, 95
9, 188158, Note_off_c, 10, 73, 80
9, 188160, Note_on_c, 10, 74, 50
9, 188352, Pitch_bend_c, 10, 8832
9, 188398, Note_off_c, 10, 74, 80
9, 188400, Pitch_bend_c, 10, 8192
9, 188400, Note_on_c, 10, 74, 76
9, 188808, Pitch_bend_c, 10, 7552
9, 188844, Pitch_bend_c, 10, 6784
9, 188880, Pitch_bend_c, 10, 6144
9, 193438, Note_off_c, 10, 74, 80
9, 193440, Pitch_bend_c, 10, 8192
9, 193440, Note_on_c, 10, 66, 95
9, 193918, Note_off_c, 10, 66, 80
9, 193920, Note_on_c, 10, 76, 95
9, 194784, Pitch_bend_c, 10, 7552
9, 194878, Note_off_c, 10, 76, 80
9, 194880, Pitch_bend_c, 10, 8192
9, 194880, Note_on_c, 10, 74, 76
9, 195456, Pitch_bend_c, 10, 7552
9, 195598, Note_off_c, 10, 74, 80
9, 195600, Pitch_bend_c, 10, 8192
9, 195600, Note_on_c, 10, 73, 76
9, 195838, Note_off_c, 10, 73, 80
9, 195840, Note_on_c, 10, 73, 50
9, 196032, Pitch_bend_c, 10, 8832
9, 196488, Pitch_bend_c, 10, 8192
9, 196524, Pitch_bend_c, 10, 7424
9, 196560, Pitch_bend_c, 10, 6784
9, 201598, Note_off_c, 10, 73, 80
9, 201600, Pitch_bend_c, 10, 8192
9, 201600, Note_on_c, 10, 74, 95
9, 202416, Pitch_bend_c, 10, 7552
9, 202488, Pitch_bend_c, 10, 6784
9, 202560, Pitch_bend_c, 10, 6144
9, 208798, Note_off_c, 10, 74, 80
9, 208800, Pitch_bend_c, 10, 8192
9, 208800, Note_on_c, 10, 66, 95
9, 209278, Note_off_c, 10, 66, 80
9, 209280, Note_on_c, 10, 74, 95
9, 209928, Pitch_bend_c, 10, 8832
9, 209998, Note_off_c, 10, 74, 80
9, 210000, Pitch_bend_c, 10, 8192
9, 210000, Note_on_c, 10, 76, 76
9, 210180, Pitch_bend_c, 10, 7552
9, 210195, Pitch_bend_c, 10, 6784
9, 210210, Pitch_bend_c, 10, 6144
9, 210225, Pitch_bend_c, 10, 5504
9, 210238, Note_off_c, 10, 76, 80
9, 210240, Pitch_bend_c, 10, 8192
9, 210240, Note_on_c, 10, 71, 76
9, 216478, Note_off_c, 10, 71, 80
9, 216480, Note_on_c, 10, 66, 95
9, 216958, Note_off_c, 10, 66, 80
9, 216960, Note_on_c, 10, 74, 95
9, 217728, Pitch_bend_c, 10, 7552
9, 217918, Note_off_c, 10, 74, 80
9, 217920, Pitch_bend_c, 10, 8192
9, 217920, Note_on_c, 10, 73, 76
9, 218638, Note_off_c, 10, 73, 80
9, 218640, Note_on_c, 10, 73, 95
9, 218878, Note_off_c, 10, 73, 80
9, 218880, Note_on_c, 10, 74, 50
9, 219072, Pitch_bend_c, 10, 8832
9, 219118, Note_off_c, 10, 74, 80
9, 219120, Pitch_bend_c, 10, 8192
9, 219120, Note_on_c, 10, 74, 76
9, 219528, Pitch_bend_c, 10, 7552
9, 219564, Pitch_bend_c, 10, 6784
9, 219600, Pitch_bend_c, 10, 6144
9, 224158, Note_off_c, 10, 74, 80
9, 224160, Pitch_bend_c, 10, 8192
9, 224160, Note_on_c, 10, 66, 95
9, 224638, Note_off_c, 10, 66, 80
9, 224640, Note_on_c, 10, 76, 95
9, 225504, Pitch_bend_c, 10, 7552
9, 225598, Note_off_c, 10, 76, 80
9, 225600, Pitch_bend_c, 10, 8192
9, 225600, Note_on_c, 10, 74, 76
9, 226176, Pitch_bend_c, 10, 7552
9, 226318, Note_off_c, 10, 74, 80
9, 226320, Pitch_bend_c, 10, 8192
9, 226320, Note_on_c, 10, 73, 76
9, 226558, Note_off_c, 10, 73, 80
9, 226560, Note_on_c, 10, 73, 95
9, 226752, Pitch_bend_c, 10, 8832
9, 227208, Pitch_bend_c, 10, 8192
9, 227244, Pitch_bend_c, 10, 7424
9, 227280, Pitch_bend_c, 10, 6784
9, 232320, Pitch_bend_c, 10, 8192
9, 232477, Pitch_bend_c, 10, 8320
9, 232507, Pitch_bend_c, 10, 8192
9, 232545, Pitch_bend_c, 10, 8064
9, 232575, Pitch_bend_c, 10, 8192
9, 232605, Pitch_bend_c, 10, 8320
9, 232652, Pitch_bend_c, 10, 8192
9, 232673, Pitch_bend_c, 10, 8064
9, 232720, Pitch_bend_c, 10, 8192
9, 232736, Pitch_bend_c, 10, 8320
9, 232758, Pitch_bend_c, 10, 8448
9, 232770, Pitch_bend_c, 10, 8320
9, 232792, Pitch_bend_c, 10, 8192
9, 232804, Pitch_bend_c, 10, 8064
9, 232826, Pitch_bend_c, 10, 7936
9, 232838, Pitch_bend_c, 10, 8064
9, 232860, Pitch_bend_c, 10, 8192
9, 232872, Pitch_bend_c, 10, 8320
9, 232890, Pitch_bend_c, 10, 8448
9, 232911, Pitch_bend_c, 10, 8320
9, 232928, Pitch_bend_c, 10, 8192
9, 232940, Pitch_bend_c, 10, 8064
9, 232958, Pitch_bend_c, 10, 7936
9, 232979, Pitch_bend_c, 10, 8064
9, 232996, Pitch_bend_c, 10, 8192
9, 233004, Pitch_bend_c, 10, 8320
9, 233013, Pitch_bend_c, 10, 8448
9, 233026, Pitch_bend_c, 10, 8576
9, 233047, Pitch_bend_c, 10, 8448
9, 233060, Pitch_bend_c, 10, 8320
9, 233068, Pitch_bend_c, 10, 8192
9, 233072, Pitch_bend_c, 10, 8064
9, 233081, Pitch_bend_c, 10, 7936
9, 233094, Pitch_bend_c, 10, 7808
9, 233115, Pitch_bend_c, 10, 7936
9, 233128, Pitch_bend_c, 10, 8064
9, 233136, Pitch_bend_c, 10, 8192
9, 233140, Pitch_bend_c, 10, 8320
9, 233149, Pitch_bend_c, 10, 8448
9, 233162, Pitch_bend_c, 10, 8576
9, 233183, Pitch_bend_c, 10, 8448
9, 233196, Pitch_bend_c, 10, 8320
9, 233204, Pitch_bend_c, 10, 8192
9, 233208, Pitch_bend_c, 10, 8064
9, 233217, Pitch_bend_c, 10, 7936
9, 233230, Pitch_bend_c, 10, 7808
9, 233251, Pitch_bend_c, 10, 7936
9, 233264, Pitch_bend_c, 10, 8064
9, 233272, Pitch_bend_c, 10, 8192
9, 233276, Pitch_bend_c, 10, 8320
9, 233285, Pitch_bend_c, 10, 8448
9, 233293, Pitch_bend_c, 10, 8576
9, 233323, Pitch_bend_c, 10, 8448
9, 233332, Pitch_bend_c, 10, 8320
9, 233340, Pitch_bend_c, 10, 8192
9, 233344, Pitch_bend_c, 10, 8064
9, 233353, Pitch_bend_c, 10, 7936
9, 233361, Pitch_bend_c, 10, 7808
9, 233391, Pitch_bend_c, 10, 7936
9, 233400, Pitch_bend_c, 10, 8064
9, 233408, Pitch_bend_c, 10, 8192
9, 233412, Pitch_bend_c, 10, 8320
9, 233421, Pitch_bend_c, 10, 8448
9, 233425, Pitch_bend_c, 10, 8576
9, 233434, Pitch_bend_c, 10, 8704
9, 233455, Pitch_bend_c, 10, 8576
9, 233463, Pitch_bend_c, 10, 8448
9, 233468, Pitch_bend_c, 10, 8320
9, 233476, Pitch_bend_c, 10, 8192
9, 233480, Pitch_bend_c, 10, 8064
9, 233489, Pitch_bend_c, 10, 7936
9, 233493, Pitch_bend_c, 10, 7808
9, 233502, Pitch_bend_c, 10, 7680
9, 233523, Pitch_bend_c, 10, 7808
9, 233531, Pitch_bend_c, 10, 7936
9, 233536, Pitch_bend_c, 10, 8064
9, 233544, Pitch_bend_c, 10, 8192
9, 233548, Pitch_bend_c, 10, 8320
9, 233557, Pitch_bend_c, 10, 8448
9, 233561, Pitch_bend_c, 10, 8576
9, 233570, Pitch_bend_c, 10, 8704
9, 233591, Pitch_bend_c, 10, 8576
9, 233599, Pitch_bend_c, 10, 8448
9, 233604, Pitch_bend_c, 10, 8320
9, 233612, Pitch_bend_c, 10, 8192
9, 233616, Pitch_bend_c, 10, 8064
9, 233625, Pitch_bend_c, 10, 7936
9, 233629, Pitch_bend_c, 10, 7808
9, 233638, Pitch_bend_c, 10, 7680
9, 233640, Control_c, 10, 7, 84
9, 233659, Pitch_bend_c, 10, 7808
9, 233667, Pitch_bend_c, 10, 7936
9, 233672, Pitch_bend_c, 10, 8064
9, 233680, Pitch_bend_c, 10, 8192
9, 233684, Pitch_bend_c, 10, 8320
9, 233693, Pitch_bend_c, 10, 8448
9, 233697, Pitch_bend_c, 10, 8576
9, 233701, Pitch_bend_c, 10, 8704
9, 233731, Pitch_bend_c, 10, 8576
9, 233735, Pitch_bend_c, 10, 8448
9, 233740, Pitch_bend_c, 10, 8320
9, 233748, Pitch_bend_c, 10, 8192
9, 233752, Pitch_bend_c, 10, 8064
9, 233760, Control_c, 10, 7, 83
9, 233761, Pitch_bend_c, 10, 7936
9, 233765, Pitch_bend_c, 10, 7808
9, 233769, Pitch_bend_c, 10, 7680
9, 233799, Pitch_bend_c, 10, 7808
9, 233803, Pitch_bend_c, 10, 7936
9, 233808, Pitch_bend_c, 10, 8064
9, 233816, Pitch_bend_c, 10, 8192
9, 233820, Pitch_bend_c, 10, 8320
9, 233829, Pitch_bend_c, 10, 8448
9, 233833, Pitch_bend_c, 10, 8576
9, 233837, Pitch_bend_c, 10, 8704
9, 233867, Pitch_bend_c, 10, 8576
9, 233871, Pitch_bend_c, 10, 8448
9, 233876, Pitch_bend_c, 10, 8320
9, 233880, Control_c, 10, 7, 81
9, 233884, Pitch_bend_c, 10, 8192
9, 233888, Pitch_bend_c, 10, 8064
9, 233897, Pitch_bend_c, 10, 7936
9, 233901, Pitch_bend_c, 10, 7808
9, 233905, Pitch_bend_c, 10, 7680
9, 233935, Pitch_bend_c, 10, 7808
9, 233939, Pitch_bend_c, 10, 7936
9, 233944, Pitch_bend_c, 10, 8064
9, 233952, Pitch_bend_c, 10, 8192
9, 233956, Pitch_bend_c, 10, 8320
9, 233960, Pitch_bend_c, 10, 8448
9, 233965, Pitch_bend_c, 10, 8576
9, 233973, Pitch_bend_c, 10, 8704
9, 233982, Pitch_bend_c, 10, 8832
9, 233994, Pitch_bend_c, 10, 8704
9, 234000, Control_c, 10, 7, 80
9, 234003, Pitch_bend_c, 10, 8576
9, 234012, Pitch_bend_c, 10, 8448
9, 234016, Pitch_bend_c, 10, 8320
9, 234020, Pitch_bend_c, 10, 8192
9, 234024, Pitch_bend_c, 10, 8064
9, 234028, Pitch_bend_c, 10, 7936
9, 234033, Pitch_bend_c, 10, 7808
9, 234041, Pitch_bend_c, 10, 7680
9, 234050, Pitch_bend_c, 10, 7552
9, 234062, Pitch_bend_c, 10, 7680
9, 234071, Pitch_bend_c, 10, 7808
9, 234080, Pitch_bend_c, 10, 7936
9, 234084, Pitch_bend_c, 10, 8064
9, 234088, Pitch_bend_c, 10, 8192
9, 234092, Pitch_bend_c, 10, 8320
9, 234096, Pitch_bend_c, 10, 8448
9, 234105, Pitch_bend_c, 10, 8576
9, 234109, Pitch_bend_c, 10, 8704
9, 234120, Control_c, 10, 7, 78
9, 234139, Pitch_bend_c, 10, 8576
9, 234143, Pitch_bend_c, 10, 8448
9, 234152, Pitch_bend_c, 10, 8320
9, 234156, Pitch_bend_c, 10, 8192
9, 234160, Pitch_bend_c, 10, 8064
9, 234164, Pitch_bend_c, 10, 7936
9, 234173, Pitch_bend_c, 10, 7808
9, 234177, Pitch_bend_c, 10, 7680
9, 234207, Pitch_bend_c, 10, 7808
9, 234211, Pitch_bend_c, 10, 7936
9, 234220, Pitch_bend_c, 10, 8064
9, 234224, Pitch_bend_c, 10, 8192
9, 234228, Pitch_bend_c, 10, 8320
9, 234232, Pitch_bend_c, 10, 8448
9, 234240, Control_c, 10, 7, 76
9, 234241, Pitch_bend_c, 10, 8576
9, 234245, Pitch_bend_c, 10, 8704
9, 234275, Pitch_bend_c, 10, 8576
9, 234279, Pitch_bend_c, 10, 8448
9, 234288, Pitch_bend_c, 10, 8320
9, 234292, Pitch_bend_c, 10, 8192
9, 234296, Pitch_bend_c, 10, 8064
9, 234300, Pitch_bend_c, 10, 7936
9, 234309, Pitch_bend_c, 10, 7808
9, 234313, Pitch_bend_c, 10, 7680
9, 234343, Pitch_bend_c, 10, 7808
9, 234347, Pitch_bend_c, 10, 7936
9, 234356, Pitch_bend_c, 10, 8064
9, 234360, Control_c, 10, 7, 75
9, 234360, Pitch_bend_c, 10, 8192
9, 234364, Pitch_bend_c, 10, 8320
9, 234373, Pitch_bend_c, 10, 8448
9, 234377, Pitch_bend_c, 10, 8576
9, 234386, Pitch_bend_c, 10, 8704
9, 234407, Pitch_bend_c, 10, 8576
9, 234415, Pitch_bend_c, 10, 8448
9, 234420, Pitch_bend_c, 10, 8320
9, 234428, Pitch_bend_c, 10, 8192
9, 234432, Pitch_bend_c, 10, 8064
9, 234441, Pitch_bend_c, 10, 7936
9, 234445, Pitch_bend_c, 10, 7808
9, 234454, Pitch_bend_c, 10, 7680
9, 234475, Pitch_bend_c, 10, 7808
9, 234480, Control_c, 10, 7, 73
9, 234483, Pitch_bend_c, 10, 7936
9, 234488, Pitch_bend_c, 10, 8064
9, 234496, Pitch_bend_c, 10, 8192
9, 234500, Pitch_bend_c, 10, 8320
9, 234504, Pitch_bend_c, 10, 8448
9, 234513, Pitch_bend_c, 10, 8576
9, 234517, Pitch_bend_c, 10, 8704
9, 234547, Pitch_bend_c, 10, 8576
9, 234551, Pitch_bend_c, 10, 8448
9, 234560, Pitch_bend_c, 10, 8320
9, 234564, Pitch_bend_c, 10, 8192
9, 234568, Pitch_bend_c, 10, 8064
9, 234572, Pitch_bend_c, 10, 7936
9, 234581, Pitch_bend_c, 10, 7808
9, 234585, Pitch_bend_c, 10, 7680
9, 234600, Control_c, 10, 7, 71
9, 234615, Pitch_bend_c, 10, 7808
9, 234619, Pitch_bend_c, 10, 7936
9, 234628, Pitch_bend_c, 10, 8064
9, 234632, Pitch_bend_c, 10, 8192
9, 234636, Pitch_bend_c, 10, 8320
9, 234645, Pitch_bend_c, 10, 8448
9, 234649, Pitch_bend_c, 10, 8576
9, 234653, Pitch_bend_c, 10, 8704
9, 234683, Pitch_bend_c, 10, 8576
9, 234687, Pitch_bend_c, 10, 8448
9, 234692, Pitch_bend_c, 10, 8320
9, 234700, Pitch_bend_c, 10, 8192
9, 234704, Pitch_bend_c, 10, 8064
9, 234713, Pitch_bend_c, 10, 7936
9, 234717, Pitch_bend_c, 10, 7808
9, 234720, Control_c, 10, 7, 70
9, 234721, Pitch_bend_c, 10, 7680
9, 234751, Pitch_bend_c, 10, 7808
9, 234755, Pitch_bend_c, 10, 7936
9, 234760, Pitch_bend_c, 10, 8064
9, 234768, Pitch_bend_c, 10, 8192
9, 234772, Pitch_bend_c, 10, 8320
9, 234776, Pitch_bend_c, 10, 8448
9, 234785, Pitch_bend_c, 10, 8576
9, 234789, Pitch_bend_c, 10, 8704
9, 234819, Pitch_bend_c, 10, 8576
9, 234823, Pitch_bend_c, 10, 8448
9, 234832, Pitch_bend_c, 10, 8320
9, 234836, Pitch_bend_c, 10, 8192
9, 234840, Control_c, 10, 7, 68
9, 234840, Pitch_bend_c, 10, 8064
9, 234844, Pitch_bend_c, 10, 7936
9, 234853, Pitch_bend_c, 10, 7808
9, 234857, Pitch_bend_c, 10, 7680
9, 234887, Pitch_bend_c, 10, 7808
9, 234891, Pitch_bend_c, 10, 7936
9, 234900, Pitch_bend_c, 10, 8064
9, 234904, Pitch_bend_c, 10, 8192
9, 234908, Pitch_bend_c, 10, 8320
9, 234917, Pitch_bend_c, 10, 8448
9, 234921, Pitch_bend_c, 10, 8576
9, 234930, Pitch_bend_c, 10, 8704
9, 234951, Pitch_bend_c, 10, 8576
9, 234959, Pitch_bend_c, 10, 8448
9, 234960, Control_c, 10, 7, 66
9, 234964, Pitch_bend_c, 10, 8320
9, 234972, Pitch_bend_c, 10, 8192
9, 234976, Pitch_bend_c, 10, 8064
9, 234985, Pitch_bend_c, 10, 7936
9, 234989, Pitch_bend_c, 10, 7808
9, 234998, Pitch_bend_c, 10, 7680
9, 235019, Pitch_bend_c, 10, 7808
9, 235027, Pitch_bend_c, 10, 7936
9, 235032, Pitch_bend_c, 10, 8064
9, 235040, Pitch_bend_c, 10, 8192
9, 235044, Pitch_bend_c, 10, 8320
9, 235048, Pitch_bend_c, 10, 8448
9, 235057, Pitch_bend_c, 10, 8576
9, 235061, Pitch_bend_c, 10, 8704
9, 235080, Control_c, 10, 7, 65
9, 235091, Pitch_bend_c, 10, 8576
9, 235095, Pitch_bend_c, 10, 8448
9, 235104, Pitch_bend_c, 10, 8320
9, 235108, Pitch_bend_c, 10, 8192
9, 235112, Pitch_bend_c, 10, 8064
9, 235116, Pitch_bend_c, 10, 7936
9, 235125, Pitch_bend_c, 10, 7808
9, 235129, Pitch_bend_c, 10, 7680
9, 235159, Pitch_bend_c, 10, 7808
9, 235163, Pitch_bend_c, 10, 7936
9, 235172, Pitch_bend_c, 10, 8064
9, 235176, Pitch_bend_c, 10, 8192
9, 235180, Pitch_bend_c, 10, 8320
9, 235184, Pitch_bend_c, 10, 8448
9, 235189, Pitch_bend_c, 10, 8576
9, 235197, Pitch_bend_c, 10, 8704
9, 235200, Control_c, 10, 7, 63
9, 235206, Pitch_bend_c, 10, 8832
9, 235218, Pitch_bend_c, 10, 8704
9, 235227, Pitch_bend_c, 10, 8576
9, 235236, Pitch_bend_c, 10, 8448
9, 235240, Pitch_bend_c, 10, 8320
9, 235244, Pitch_bend_c, 10, 8192
9, 235248, Pitch_bend_c, 10, 8064
9, 235252, Pitch_bend_c, 10, 7936
9, 235257, Pitch_bend_c, 10, 7808
9, 235265, Pitch_bend_c, 10, 7680
9, 235274, Pitch_bend_c, 10, 7552
9, 235286, Pitch_bend_c, 10, 7680
9, 235295, Pitch_bend_c, 10, 7808
9, 235304, Pitch_bend_c, 10, 7936
9, 235308, Pitch_bend_c, 10, 8064
9, 235312, Pitch_bend_c, 10, 8192
9, 235316, Pitch_bend_c, 10, 8320
9, 235320, Control_c, 10, 7, 62
9, 235325, Pitch_bend_c, 10, 8448
9, 235329, Pitch_bend_c, 10, 8576
9, 235338, Pitch_bend_c, 10, 8704
9, 235359, Pitch_bend_c, 10, 8576
9, 235367, Pitch_bend_c, 10, 8448
9, 235372, Pitch_bend_c, 10, 8320
9, 235380, Pitch_bend_c, 10, 8192
9, 235384, Pitch_bend_c, 10, 8064
9, 235393, Pitch_bend_c, 10, 7936
9, 235397, Pitch_bend_c, 10, 7808
9, 235406, Pitch_bend_c, 10, 7680
9, 235427, Pitch_bend_c, 10, 7808
9, 235435, Pitch_bend_c, 10, 7936
9, 235440, Control_c, 10, 7, 60
9, 235440, Pitch_bend_c, 10, 8064
9, 235448, Pitch_bend_c, 10, 8192
9, 235452, Pitch_bend_c, 10, 8320
9, 235461, Pitch_bend_c, 10, 8448
9, 235465, Pitch_bend_c, 10, 8576
9, 235474, Pitch_bend_c, 10, 8704
9, 235495, Pitch_bend_c, 10, 8576
9, 235503, Pitch_bend_c, 10, 8448
9, 235508, Pitch_bend_c, 10, 8320
9, 235516, Pitch_bend_c, 10, 8192
9, 235520, Pitch_bend_c, 10, 8064
9, 235529, Pitch_bend_c, 10, 7936
9, 235533, Pitch_bend_c, 10, 7808
9, 235542, Pitch_bend_c, 10, 7680
9, 235560, Control_c, 10, 7, 58
9, 235563, Pitch_bend_c, 10, 7808
9, 235571, Pitch_bend_c, 10, 7936
9, 235576, Pitch_bend_c, 10, 8064
9, 235584, Pitch_bend_c, 10, 8192
9, 235588, Pitch_bend_c, 10, 8320
9, 235592, Pitch_bend_c, 10, 8448
9, 235597, Pitch_bend_c, 10, 8576
9, 235605, Pitch_bend_c, 10, 8704
9, 235618, Pitch_bend_c, 10, 8832
9, 235622, Pitch_bend_c, 10, 8704
9, 235635, Pitch_bend_c, 10, 8576
9, 235644, Pitch_bend_c, 10, 8448
9, 235648, Pitch_bend_c, 10, 8320
9, 235652, Pitch_bend_c, 10, 8192
9, 235656, Pitch_bend_c, 10, 8064
9, 235660, Pitch_bend_c, 10, 7936
9, 235665, Pitch_bend_c, 10, 7808
9, 235673, Pitch_bend_c, 10, 7680
9, 235680, Control_c, 10, 7, 57
9, 235686, Pitch_bend_c, 10, 7552
9, 235690, Pitch_bend_c, 10, 7680
9, 235703, Pitch_bend_c, 10, 7808
9, 235712, Pitch_bend_c, 10, 7936
9, 235716, Pitch_bend_c, 10, 8064
9, 235720, Pitch_bend_c, 10, 8192
9, 235724, Pitch_bend_c, 10, 8320
9, 235733, Pitch_bend_c, 10, 8448
9, 235737, Pitch_bend_c, 10, 8576
9, 235746, Pitch_bend_c, 10, 8704
9, 235767, Pitch_bend_c, 10, 8576
9, 235775, Pitch_bend_c, 10, 8448
9, 235780, Pitch_bend_c, 10, 8320
9, 235788, Pitch_bend_c, 10, 8192
9, 235792, Pitch_bend_c, 10, 8064
9, 235800, Control_c, 10, 7, 55
9, 235801, Pitch_bend_c, 10, 7936
9, 235805, Pitch_bend_c, 10, 7808
9, 235814, Pitch_bend_c, 10, 7680
9, 235835, Pitch_bend_c, 10, 7808
9, 235843, Pitch_bend_c, 10, 7936
9, 235848, Pitch_bend_c, 10, 8064
9, 235856, Pitch_bend_c, 10, 8192
9, 235860, Pitch_bend_c, 10, 8320
9, 235869, Pitch_bend_c, 10, 8448
9, 235873, Pitch_bend_c, 10, 8576
9, 235882, Pitch_bend_c, 10, 8704
9, 235903, Pitch_bend_c, 10, 8576
9, 235911, Pitch_bend_c, 10, 8448
9, 235916, Pitch_bend_c, 10, 8320
9, 235920, Control_c, 10, 7, 53
9, 235924, Pitch_bend_c, 10, 8192
9, 235928, Pitch_bend_c, 10, 8064
9, 235937, Pitch_bend_c, 10, 7936
9, 235941, Pitch_bend_c, 10, 7808
9, 235950, Pitch_bend_c, 10, 7680
9, 235971, Pitch_bend_c, 10, 7808
9, 235979, Pitch_bend_c, 10, 7936
9, 235984, Pitch_bend_c, 10, 8064
9, 235992, Pitch_bend_c, 10, 8192
9, 235996, Pitch_bend_c, 10, 8320
9, 236000, Pitch_bend_c, 10, 8448
9, 236009, Pitch_bend_c, 10, 8576
9, 236013, Pitch_bend_c, 10, 8704
9, 236040, Control_c, 10, 7, 52
9, 236043, Pitch_bend_c, 10, 8576
9, 236047, Pitch_bend_c, 10, 8448
9, 236056, Pitch_bend_c, 10, 8320
9, 236060, Pitch_bend_c, 10, 8192
9, 236064, Pitch_bend_c, 10, 8064
9, 236068, Pitch_bend_c, 10, 7936
9, 236077, Pitch_bend_c, 10, 7808
9, 236081, Pitch_bend_c, 10, 7680
9, 236111, Pitch_bend_c, 10, 7808
9, 236115, Pitch_bend_c, 10, 7936
9, 236124, Pitch_bend_c, 10, 8064
9, 236128, Pitch_bend_c, 10, 8192
9, 236132, Pitch_bend_c, 10, 8320
9, 236136, Pitch_bend_c, 10, 8448
9, 236141, Pitch_bend_c, 10, 8576
9, 236149, Pitch_bend_c, 10, 8704
9, 236160, Control_c, 10, 7, 50
9, 236179, Pitch_bend_c, 10, 8576
9, 236188, Pitch_bend_c, 10, 8448
9, 236192, Pitch_bend_c, 10, 8320
9, 236196, Pitch_bend_c, 10, 8192
9, 236200, Pitch_bend_c, 10, 8064
9, 236204, Pitch_bend_c, 10, 7936
9, 236209, Pitch_bend_c, 10, 7808
9, 236217, Pitch_bend_c, 10, 7680
9, 236247, Pitch_bend_c, 10, 7808
9, 236256, Pitch_bend_c, 10, 7936
9, 236260, Pitch_bend_c, 10, 8064
9, 236264, Pitch_bend_c, 10, 8192
9, 236268, Pitch_bend_c, 10, 8320
9, 236277, Pitch_bend_c, 10, 8448
9, 236280, Control_c, 10, 7, 48
9, 236281, Pitch_bend_c, 10, 8576
9, 236290, Pitch_bend_c, 10, 8704
9, 236311, Pitch_bend_c, 10, 8576
9, 236319, Pitch_bend_c, 10, 8448
9, 236324, Pitch_bend_c, 10, 8320
9, 236332, Pitch_bend_c, 10, 8192
9, 236336, Pitch_bend_c, 10, 8064
9, 236345, Pitch_bend_c, 10, 7936
9, 236349, Pitch_bend_c, 10, 7808
9, 236358, Pitch_bend_c, 10, 7680
9, 236379, Pitch_bend_c, 10, 7808
9, 236387, Pitch_bend_c, 10, 7936
9, 236392, Pitch_bend_c, 10, 8064
9, 236400, Control_c, 10, 7, 47
9, 236400, Pitch_bend_c, 10, 8192
9, 236404, Pitch_bend_c, 10, 8320
9, 236408, Pitch_bend_c, 10, 8448
9, 236417, Pitch_bend_c, 10, 8576
9, 236421, Pitch_bend_c, 10, 8704
9, 236451, Pitch_bend_c, 10, 8576
9, 236455, Pitch_bend_c, 10, 8448
9, 236464, Pitch_bend_c, 10, 8320
9, 236468, Pitch_bend_c, 10, 8192
9, 236472, Pitch_bend_c, 10, 8064
9, 236476, Pitch_bend_c, 10, 7936
9, 236485, Pitch_bend_c, 10, 7808
9, 236489, Pitch_bend_c, 10, 7680
9, 236519, Pitch_bend_c, 10, 7808
9, 236520, Control_c, 10, 7, 45
9, 236523, Pitch_bend_c, 10, 7936
9, 236532, Pitch_bend_c, 10, 8064
9, 236536, Pitch_bend_c, 10, 8192
9, 236540, Pitch_bend_c, 10, 8320
9, 236549, Pitch_bend_c, 10, 8448
9, 236553, Pitch_bend_c, 10, 8576
9, 236557, Pitch_bend_c, 10, 8704
9, 236587, Pitch_bend_c, 10, 8576
9, 236591, Pitch_bend_c, 10, 8448
9, 236596, Pitch_bend_c, 10, 8320
9, 236604, Pitch_bend_c, 10, 8192
9, 236608, Pitch_bend_c, 10, 8064
9, 236617, Pitch_bend_c, 10, 7936
9, 236621, Pitch_bend_c, 10, 7808
9, 236625, Pitch_bend_c, 10, 7680
9, 236640, Control_c, 10, 7, 44
9, 236655, Pitch_bend_c, 10, 7808
9, 236659, Pitch_bend_c, 10, 7936
9, 236664, Pitch_bend_c, 10, 8064
9, 236672, Pitch_bend_c, 10, 8192
9, 236676, Pitch_bend_c, 10, 8320
9, 236685, Pitch_bend_c, 10, 8448
9, 236689, Pitch_bend_c, 10, 8576
9, 236698, Pitch_bend_c, 10, 8704
9, 236719, Pitch_bend_c, 10, 8576
9, 236727, Pitch_bend_c, 10, 8448
9, 236732, Pitch_bend_c, 10, 8320
9, 236740, Pitch_bend_c, 10, 8192
9, 236744, Pitch_bend_c, 10, 8064
9, 236753, Pitch_bend_c, 10, 7936
9, 236757, Pitch_bend_c, 10, 7808
9, 236760, Control_c, 10, 7, 42
9, 236766, Pitch_bend_c, 10, 7680
9, 236787, Pitch_bend_c, 10, 7808
9, 236795, Pitch_bend_c, 10, 7936
9, 236800, Pitch_bend_c, 10, 8064
9, 236808, Pitch_bend_c, 10, 8192
9, 236812, Pitch_bend_c, 10, 8320
9, 236816, Pitch_bend_c, 10, 8448
9, 236821, Pitch_bend_c, 10, 8576
9, 236829, Pitch_bend_c, 10, 8704
9, 236859, Pitch_bend_c, 10, 8576
9, 236868, Pitch_bend_c, 10, 8448
9, 236872, Pitch_bend_c, 10, 8320
9, 236876, Pitch_bend_c, 10, 8192
9, 236880, Control_c, 10, 7, 40
9, 236880, Pitch_bend_c, 10, 8064
9, 236884, Pitch_bend_c, 10, 7936
9, 236889, Pitch_bend_c, 10, 7808
9, 236897, Pitch_bend_c, 10, 7680
9, 236927, Pitch_bend_c, 10, 7808
9, 236936, Pitch_bend_c, 10, 7936
9, 236940, Pitch_bend_c, 10, 8064
9, 236944, Pitch_bend_c, 10, 8192
9, 236948, Pitch_bend_c, 10, 8320
9, 236952, Pitch_bend_c, 10, 8448
9, 236961, Pitch_bend_c, 10, 8576
9, 236965, Pitch_bend_c, 10, 8704
9, 236995, Pitch_bend_c, 10, 8576
9, 236999, Pitch_bend_c, 10, 8448
9, 237000, Control_c, 10, 7, 39
9, 237008, Pitch_bend_c, 10, 8320
9, 237012, Pitch_bend_c, 10, 8192
9, 237016, Pitch_bend_c, 10, 8064
9, 237020, Pitch_bend_c, 10, 7936
9, 237029, Pitch_bend_c, 10, 7808
9, 237033, Pitch_bend_c, 10, 7680
9, 237063, Pitch_bend_c, 10, 7808
9, 237067, Pitch_bend_c, 10, 7936
9, 237076, Pitch_bend_c, 10, 8064
9, 237080, Pitch_bend_c, 10, 8192
9, 237084, Pitch_bend_c, 10, 8320
9, 237093, Pitch_bend_c, 10, 8448
9, 237097, Pitch_bend_c, 10, 8576
9, 237106, Pitch_bend_c, 10, 8704
9, 237120, Control_c, 10, 7, 37
9, 237127, Pitch_bend_c, 10, 8576
9, 237135, Pitch_bend_c, 10, 8448
9, 237140, Pitch_bend_c, 10, 8320
9, 237148, Pitch_bend_c, 10, 8192
9, 237152, Pitch_bend_c, 10, 8064
9, 237161, Pitch_bend_c, 10, 7936
9, 237165, Pitch_bend_c, 10, 7808
9, 237174, Pitch_bend_c, 10, 7680
9, 237195, Pitch_bend_c, 10, 7808
9, 237203, Pitch_bend_c, 10, 7936
9, 237208, Pitch_bend_c, 10, 8064
9, 237216, Pitch_bend_c, 10, 8192
9, 237220, Pitch_bend_c, 10, 8320
9, 237229, Pitch_bend_c, 10, 8448
9, 237233, Pitch_bend_c, 10, 8576
9, 237240, Control_c, 10, 7, 35
9, 237242, Pitch_bend_c, 10, 8704
9, 237263, Pitch_bend_c, 10, 8576
9, 237271, Pitch_bend_c, 10, 8448
9, 237276, Pitch_bend_c, 10, 8320
9, 237284, Pitch_bend_c, 10, 8192
9, 237288, Pitch_bend_c, 10, 8064
9, 237297, Pitch_bend_c, 10, 7936
9, 237301, Pitch_bend_c, 10, 7808
9, 237310, Pitch_bend_c, 10, 7680
9, 237331, Pitch_bend_c, 10, 7808
9, 237339, Pitch_bend_c, 10, 7936
9, 237344, Pitch_bend_c, 10, 8064
9, 237352, Pitch_bend_c, 10, 8192
9, 237356, Pitch_bend_c, 10, 8320
9, 237360, Control_c, 10, 7, 34
9, 237360, Pitch_bend_c, 10, 8448
9, 237365, Pitch_bend_c, 10, 8576
9, 237373, Pitch_bend_c, 10, 8704
9, 237386, Pitch_bend_c, 10, 8832
9, 237390, Pitch_bend_c, 10, 8704
9, 237403, Pitch_bend_c, 10, 8576
9, 237412, Pitch_bend_c, 10, 8448
9, 237416, Pitch_bend_c, 10, 8320
9, 237420, Pitch_bend_c, 10, 8192
9, 237424, Pitch_bend_c, 10, 8064
9, 237428, Pitch_bend_c, 10, 7936
9, 237433, Pitch_bend_c, 10, 7808
9, 237441, Pitch_bend_c, 10, 7680
9, 237454, Pitch_bend_c, 10, 7552
9, 237458, Pitch_bend_c, 10, 7680
9, 237471, Pitch_bend_c, 10, 7808
9, 237480, Control_c, 10, 7, 32
9, 237480, Pitch_bend_c, 10, 7936
9, 237484, Pitch_bend_c, 10, 8064
9, 237488, Pitch_bend_c, 10, 8192
9, 237492, Pitch_bend_c, 10, 8320
9, 237496, Pitch_bend_c, 10, 8448
9, 237501, Pitch_bend_c, 10, 8576
9, 237509, Pitch_bend_c, 10, 8704
9, 237522, Pitch_bend_c, 10, 8832
9, 237526, Pitch_bend_c, 10, 8704
9, 237539, Pitch_bend_c, 10, 8576
9, 237548, Pitch_bend_c, 10, 8448
9, 237552, Pitch_bend_c, 10, 8320
9, 237556, Pitch_bend_c, 10, 8192
9, 237560, Pitch_bend_c, 10, 8064
9, 237564, Pitch_bend_c, 10, 7936
9, 237569, Pitch_bend_c, 10, 7808
9, 237577, Pitch_bend_c, 10, 7680
9, 237590, Pitch_bend_c, 10, 7552
9, 237594, Pitch_bend_c, 10, 7680
9, 237600, Control_c, 10, 7, 31
9, 237607, Pitch_bend_c, 10, 7808
9, 237616, Pitch_bend_c, 10, 7936
9, 237620, Pitch_bend_c, 10, 8064
9, 237624, Pitch_bend_c, 10, 8192
9, 237628, Pitch_bend_c, 10, 8320
9, 237632, Pitch_bend_c, 10, 8448
9, 237641, Pitch_bend_c, 10, 8576
9, 237645, Pitch_bend_c, 10, 8704
9, 237675, Pitch_bend_c, 10, 8576
9, 237679, Pitch_bend_c, 10, 8448
9, 237688, Pitch_bend_c, 10, 8320
9, 237692, Pitch_bend_c, 10, 8192
9, 237696, Pitch_bend_c, 10, 8064
9, 237700, Pitch_bend_c, 10, 7936
9, 237709, Pitch_bend_c, 10, 7808
9, 237713, Pitch_bend_c, 10, 7680
9, 237720, Control_c, 10, 7, 29
9, 237743, Pitch_bend_c, 10, 7808
9, 237747, Pitch_bend_c, 10, 7936
9, 237756, Pitch_bend_c, 10, 8064
9, 237760, Pitch_bend_c, 10, 8192
9, 237764, Pitch_bend_c, 10, 8320
9, 237768, Pitch_bend_c, 10, 8448
9, 237773, Pitch_bend_c, 10, 8576
9, 237781, Pitch_bend_c, 10, 8704
9, 237811, Pitch_bend_c, 10, 8576
9, 237820, Pitch_bend_c, 10, 8448
9, 237824, Pitch_bend_c, 10, 8320
9, 237828, Pitch_bend_c, 10, 8192
9, 237832, Pitch_bend_c, 10, 8064
9, 237836, Pitch_bend_c, 10, 7936
9, 237840, Control_c, 10, 7, 27
9, 237841, Pitch_bend_c, 10, 7808
9, 237849, Pitch_bend_c, 10, 7680
9, 237879, Pitch_bend_c, 10, 7808
9, 237888, Pitch_bend_c, 10, 7936
9, 237892, Pitch_bend_c, 10, 8064
9, 237896, Pitch_bend_c, 10, 8192
9, 237900, Pitch_bend_c, 10, 8320
9, 237904, Pitch_bend_c, 10, 8448
9, 237913, Pitch_bend_c, 10, 8576
9, 237917, Pitch_bend_c, 10, 8704
9, 237947, Pitch_bend_c, 10, 8576
9, 237951, Pitch_bend_c, 10, 8448
9, 237960, Control_c, 10, 7, 26
9, 237960, Pitch_bend_c, 10, 8320
9, 237964, Pitch_bend_c, 10, 8192
9, 237968, Pitch_bend_c, 10, 8064
9, 237972, Pitch_bend_c, 10, 7936
9, 237981, Pitch_bend_c, 10, 7808
9, 237985, Pitch_bend_c, 10, 7680
9, 238015, Pitch_bend_c, 10, 7808
9, 238019, Pitch_bend_c, 10, 7936
9, 238028, Pitch_bend_c, 10, 8064
9, 238032, Pitch_bend_c, 10, 8192
9, 238036, Pitch_bend_c, 10, 8320
9, 238045, Pitch_bend_c, 10, 8448
9, 238049, Pitch_bend_c, 10, 8576
9, 238058, Pitch_bend_c, 10, 8704
9, 238079, Pitch_bend_c, 10, 8576
9, 238080, Control_c, 10, 7, 24
9, 238087, Pitch_bend_c, 10, 8448
9, 238092, Pitch_bend_c, 10, 8320
9, 238100, Pitch_bend_c, 10, 8192
9, 238104, Pitch_bend_c, 10, 8064
9, 238113, Pitch_bend_c, 10, 7936
9, 238117, Pitch_bend_c, 10, 7808
9, 238126, Pitch_bend_c, 10, 7680
9, 238147, Pitch_bend_c, 10, 7808
9, 238155, Pitch_bend_c, 10, 7936
9, 238160, Pitch_bend_c, 10, 8064
9, 238168, Pitch_bend_c, 10, 8192
9, 238172, Pitch_bend_c, 10, 8320
9, 238176, Pitch_bend_c, 10, 8448
9, 238181, Pitch_bend_c, 10, 8576
9, 238189, Pitch_bend_c, 10, 8704
9, 238198, Pitch_bend_c, 10, 8832
9, 238210, Pitch_bend_c, 10, 8704
9, 238219, Pitch_bend_c, 10, 8576
9, 238228, Pitch_bend_c, 10, 8448
9, 238232, Pitch_bend_c, 10, 8320
9, 238236, Pitch_bend_c, 10, 8192
9, 238240, Pitch_bend_c, 10, 8064
9, 238244, Pitch_bend_c, 10, 7936
9, 238249, Pitch_bend_c, 10, 7808
9, 238257, Pitch_bend_c, 10, 7680
9, 238266, Pitch_bend_c, 10, 7552
9, 238278, Pitch_bend_c, 10, 7680
9, 238287, Pitch_bend_c, 10, 7808
9, 238296, Pitch_bend_c, 10, 7936
9, 238300, Pitch_bend_c, 10, 8064
9, 238304, Pitch_bend_c, 10, 8192
9, 238308, Pitch_bend_c, 10, 8320
9, 238317, Pitch_bend_c, 10, 8448
9, 238321, Pitch_bend_c, 10, 8576
9, 238330, Pitch_bend_c, 10, 8704
9, 238351, Pitch_bend_c, 10, 8576
9, 238359, Pitch_bend_c, 10, 8448
9, 238364, Pitch_bend_c, 10, 8320
9, 238372, Pitch_bend_c, 10, 8192
9, 238376, Pitch_bend_c, 10, 8064
9, 238385, Pitch_bend_c, 10, 7936
9, 238389, Pitch_bend_c, 10, 7808
9, 238398, Pitch_bend_c, 10, 7680
9, 238419, Pitch_bend_c, 10, 7808
9, 238427, Pitch_bend_c, 10, 7936
9, 238432, Pitch_bend_c, 10, 8064
9, 238440, Pitch_bend_c, 10, 8192
9, 238444, Pitch_bend_c, 10, 8320
9, 238448, Pitch_bend_c, 10, 8448
9, 238453, Pitch_bend_c, 10, 8576
9, 238461, Pitch_bend_c, 10, 8704
9, 238491, Pitch_bend_c, 10, 8576
9, 238500, Pitch_bend_c, 10, 8448
9, 238504, Pitch_bend_c, 10, 8320
9, 238508, Pitch_bend_c, 10, 8192
9, 238512, Pitch_bend_c, 10, 8064
9, 238516, Pitch_bend_c, 10, 7936
9, 238521, Pitch_bend_c, 10, 7808
9, 238529, Pitch_bend_c, 10, 7680
9, 238559, Pitch_bend_c, 10, 7808
9, 238568, Pitch_bend_c, 10, 7936
9, 238572, Pitch_bend_c, 10, 8064
9, 238576, Pitch_bend_c, 10, 8192
9, 238580, Pitch_bend_c, 10, 8320
9, 238584, Pitch_bend_c, 10, 8448
9, 238589, Pitch_bend_c, 10, 8576
9, 238597, Pitch_bend_c, 10, 8704
9, 238610, Pitch_bend_c, 10, 8832
9, 238614, Pitch_bend_c, 10, 8704
9, 238627, Pitch_bend_c, 10, 8576
9, 238636, Pitch_bend_c, 10, 8448
9, 238640, Pitch_bend_c, 10, 8320
9, 238644, Pitch_bend_c, 10, 8192
9, 238648, Pitch_bend_c, 10, 8064
9, 238652, Pitch_bend_c, 10, 7936
9, 238657, Pitch_bend_c, 10, 7808
9, 238665, Pitch_bend_c, 10, 7680
9, 238678, Pitch_bend_c, 10, 7552
9, 238682, Pitch_bend_c, 10, 7680
9, 238695, Pitch_bend_c, 10, 7808
9, 238704, Pitch_bend_c, 10, 7936
9, 238708, Pitch_bend_c, 10, 8064
9, 238712, Pitch_bend_c, 10, 8192
9, 238716, Pitch_bend_c, 10, 8320
9, 238725, Pitch_bend_c, 10, 8448
9, 238729, Pitch_bend_c, 10, 8576
9, 238738, Pitch_bend_c, 10, 8704
9, 238759, Pitch_bend_c, 10, 8576
9, 238767, Pitch_bend_c, 10, 8448
9, 238772, Pitch_bend_c, 10, 8320
9, 238780, Pitch_bend_c, 10, 8192
9, 238784, Pitch_bend_c, 10, 8064
9, 238793, Pitch_bend_c, 10, 7936
9, 238797, Pitch_bend_c, 10, 7808
9, 238806, Pitch_bend_c, 10, 7680
9, 238827, Pitch_bend_c, 10, 7808
9, 238835, Pitch_bend_c, 10, 7936
9, 238840, Pitch_bend_c, 10, 8064
9, 238848, Pitch_bend_c, 10, 8192
9, 238852, Pitch_bend_c, 10, 8320
9, 238856, Pitch_bend_c, 10, 8448
9, 238861, Pitch_bend_c, 10, 8576
9, 238869, Pitch_bend_c, 10, 8704
9, 238878, Pitch_bend_c, 10, 8832
9, 238890, Pitch_bend_c, 10, 8704
9, 238899, Pitch_bend_c, 10, 8576
9, 238908, Pitch_bend_c, 10, 8448
9, 238912, Pitch_bend_c, 10, 8320
9, 238916, Pitch_bend_c, 10, 8192
9, 238920, Pitch_bend_c, 10, 8064
9, 238924, Pitch_bend_c, 10, 7936
9, 238929, Pitch_bend_c, 10, 7808
9, 238937, Pitch_bend_c, 10, 7680
9, 238946, Pitch_bend_c, 10, 7552
9, 238958, Pitch_bend_c, 10, 7680
9, 238967, Pitch_bend_c, 10, 7808
9, 238976, Pitch_bend_c, 10, 7936
9, 238980, Pitch_bend_c, 10, 8064
9, 238984, Pitch_bend_c, 10, 8192
9, 238988, Pitch_bend_c, 10, 8320
9, 238997, Pitch_bend_c, 10, 8448
9, 239001, Pitch_bend_c, 10, 8576
9, 239014, Pitch_bend_c, 10, 8704
9, 239026, Pitch_bend_c, 10, 8576
9, 239039, Pitch_bend_c, 10, 8448
9, 239044, Pitch_bend_c, 10, 8320
9, 239052, Pitch_bend_c, 10, 8192
9, 239056, Pitch_bend_c, 10, 8064
9, 239065, Pitch_bend_c, 10, 7936
9, 239069, Pitch_bend_c, 10, 7808
9, 239082, Pitch_bend_c, 10, 7680
9, 239094, Pitch_bend_c, 10, 7808
9, 239107, Pitch_bend_c, 10, 7936
9, 239112, Pitch_bend_c, 10, 8064
9, 239120, Pitch_bend_c, 10, 8192
9, 239124, Pitch_bend_c, 10, 8320
9, 239133, Pitch_bend_c, 10, 8448
9, 239141, Pitch_bend_c, 10, 8576
9, 239171, Pitch_bend_c, 10, 8448
9, 239180, Pitch_bend_c, 10, 8320
9, 239188, Pitch_bend_c, 10, 8192
9, 239192, Pitch_bend_c, 10, 8064
9, 239201, Pitch_bend_c, 10, 7936
9, 239209, Pitch_bend_c, 10, 7808
9, 239239, Pitch_bend_c, 10, 7936
9, 239248, Pitch_bend_c, 10, 8064
9, 239256, Pitch_bend_c, 10, 8192
9, 239260, Pitch_bend_c, 10, 8320
9, 239269, Pitch_bend_c, 10, 8448
9, 239277, Pitch_bend_c, 10, 8576
9, 239307, Pitch_bend_c, 10, 8448
9, 239316, Pitch_bend_c, 10, 8320
9, 239324, Pitch_bend_c, 10, 8192
9, 239328, Pitch_bend_c, 10, 8064
9, 239337, Pitch_bend_c, 10, 7936
9, 239345, Pitch_bend_c, 10, 7808
9, 239375, Pitch_bend_c, 10, 7936
9, 239384, Pitch_bend_c, 10, 8064
9, 239392, Pitch_bend_c, 10, 8192
9, 239400, Pitch_bend_c, 10, 8320
9, 239413, Pitch_bend_c, 10, 8448
9, 239443, Pitch_bend_c, 10, 8320
9, 239456, Pitch_bend_c, 10, 8192
9, 239468, Pitch_bend_c, 10, 8064
9, 239481, Pitch_bend_c, 10, 7936
9, 239511, Pitch_bend_c, 10, 8064
9, 239524, Pitch_bend_c, 10, 8192
9, 239536, Pitch_bend_c, 10, 8320
9, 239549, Pitch_bend_c, 10, 8448
9, 239579, Pitch_bend_c, 10, 8320
9, 239592, Pitch_bend_c, 10, 8192
9, 239604, Pitch_bend_c, 10, 8064
9, 239617, Pitch_bend_c, 10, 7936
9, 239647, Pitch_bend_c, 10, 8064
9, 239660, Pitch_bend_c, 10, 8192
9, 239677, Pitch_bend_c, 10, 8320
9, 239724, Pitch_bend_c, 10, 8192
9, 239745, Pitch_bend_c, 10, 8064
9, 239792, Pitch_bend_c, 10, 8192
9, 239826, Pitch_bend_c, 10, 8320
9, 239847, Pitch_bend_c, 10, 8192
9, 239894, Pitch_bend_c, 10, 8064
9, 239915, Pitch_bend_c, 10, 8192
9, 239998, Note_off_c, 10, 73, 80
9, 240000, Control_c, 10, 7, 88
9, 247680, Note_on_c, 10, 74, 95
9, 248256, Pitch_bend_c, 10, 7552
9, 248311, Pitch_bend_c, 10, 6784
9, 248366, Pitch_bend_c, 10, 6144
9, 248421, Pitch_bend_c, 10, 5504
9, 248475, Pitch_bend_c, 10, 4736
9, 248530, Pitch_bend_c, 10, 4096
9, 248585, Pitch_bend_c, 10, 3456
9, 248640, Pitch_bend_c, 10, 2688
9, 249504, Pitch_bend_c, 10, 2048
9, 249600, Pitch_bend_c, 10, 1280
9, 250320, Pitch_bend_c, 10, 1920
9, 250380, Pitch_bend_c, 10, 2688
9, 250440, Pitch_bend_c, 10, 3328
9, 250500, Pitch_bend_c, 10, 3968
9, 250560, Pitch_bend_c, 10, 4736
9, 251376, Pitch_bend_c, 10, 4096
9, 251448, Pitch_bend_c, 10, 3328
9, 251520, Pitch_bend_c, 10, 2688
9, 253248, Pitch_bend_c, 10, 2048
9, 253440, Pitch_bend_c, 10, 1280
9, 254688, Pitch_bend_c, 10, 1920
9, 254800, Pitch_bend_c, 10, 2688
9, 254912, Pitch_bend_c, 10, 3328
9, 255024, Pitch_bend_c, 10, 3968
9, 255136, Pitch_bend_c, 10, 4736
9, 255248, Pitch_bend_c, 10, 5376
9, 255358, Note_off_c, 10, 74, 80
9, 255360, Pitch_bend_c, 10, 8192
9, 255360, Note_on_c, 10, 71, 76
9, 262848, Pitch_bend_c, 10, 8832
9, 263038, Note_off_c, 10, 71, 80
9, 263040, Pitch_bend_c, 10, 8192
9, 263040, Note_on_c, 10, 73, 76
9, 270336, Pitch_bend_c, 10, 8832
9, 270718, Note_off_c, 10, 73, 80
9, 270720, Pitch_bend_c, 10, 8192
9, 270720, Note_on_c, 10, 74, 76
9, 271678, Note_off_c, 10, 74, 80
9, 271680, Note_on_c, 10, 66, 95
9, 272544, Pitch_bend_c, 10, 7552
9, 272640, Pitch_bend_c, 10, 6784
9, 273360, Pitch_bend_c, 10, 7424
9, 273420, Pitch_bend_c, 10, 8192
9, 273480, Pitch_bend_c, 10, 8832
9, 273540, Pitch_bend_c, 10, 9472
9, 273600, Pitch_bend_c, 10, 10240
9, 274416, Pitch_bend_c, 10, 9600
9, 274488, Pitch_bend_c, 10, 8832
9, 274560, Pitch_bend_c, 10, 8192
9, 276288, Pitch_bend_c, 10, 7552
9, 276480, Pitch_bend_c, 10, 6784
9, 277728, Pitch_bend_c, 10, 7424
9, 277840, Pitch_bend_c, 10, 8192
9, 277952, Pitch_bend_c, 10, 8832
9, 278064, Pitch_bend_c, 10, 9472
9, 278176, Pitch_bend_c, 10, 10240
9, 278288, Pitch_bend_c, 10, 10880
9, 278398, Note_off_c, 10, 66, 80
9, 278400, Pitch_bend_c, 10, 8192
9, 278400, Note_on_c, 10, 71, 76
9, 285888, Pitch_bend_c, 10, 8832
9, 286078, Note_off_c, 10, 71, 80
9, 286080, Pitch_bend_c, 10, 8192
9, 286080, Note_on_c, 10, 73, 76
9, 293376, Pitch_bend_c, 10, 8832
9, 293758, Note_off_c, 10, 73, 80
9, 293760, Pitch_bend_c, 10, 8192
9, 293760, Note_on_c, 10, 74, 76
9, 294718, Note_off_c, 10, 74, 80
9, 294720, Note_on_c, 10, 66, 95
9, 295584, Pitch_bend_c, 10, 7552
9, 295680, Pitch_bend_c, 10, 6784
9, 296400, Pitch_bend_c, 10, 7424
9, 296460, Pitch_bend_c, 10, 8192
9, 296520, Pitch_bend_c, 10, 8832
9, 296580, Pitch_bend_c, 10, 9472
9, 296640, Pitch_bend_c, 10, 10240
9, 297456, Pitch_bend_c, 10, 9600
9, 297528, Pitch_bend_c, 10, 8832
9, 297600, Pitch_bend_c, 10, 8192
9, 299328, Pitch_bend_c, 10, 7552
9, 299520, Pitch_bend_c, 10, 6784
9, 300958, Note_off_c, 10, 66, 80
9, 300960, Pitch_bend_c, 10, 8192
9, 300960, Note_on_c, 10, 54, 95
9, 301438, Note_off_c, 10, 54, 80
9, 301440, Note_on_c, 10, 62, 95
9, 302256, Pitch_bend_c, 10, 7552
9, 302328, Pitch_bend_c, 10, 6784
9, 302400, Pitch_bend_c, 10, 6144
9, 308638, Note_off_c, 10, 62, 80
9, 308640, Pitch_bend_c, 10, 8192
9, 308640, Note_on_c, 10, 54, 95
9, 309118, Note_off_c, 10, 54, 80
9, 309120, Note_on_c, 10, 62, 95
9, 309768, Pitch_bend_c, 10, 8832
9, 309838, Note_off_c, 10, 62, 80
9, 309840, Pitch_bend_c, 10, 8192
9, 309840, Note_on_c, 10, 64, 76
9, 310020, Pitch_bend_c, 10, 7552
9, 310035, Pitch_bend_c, 10, 6784
9, 310050, Pitch_bend_c, 10, 6144
9, 310065, Pitch_bend_c, 10, 5504
9, 310078, Note_off_c, 10, 64, 80
9, 310080, Pitch_bend_c, 10, 8192
9, 310080, Note_on_c, 10, 59, 76
9, 316318, Note_off_c, 10, 59, 80
9, 316318, End_track
10, 0, Start_track
10, 0, Title_t, "Johnny Greenwood (El. Gtr Add)"
10, 1020, Control_c, 11, 121, 0
10, 1020, Control_c, 11, 123, 0
10, 1020, Control_c, 11, 100, 0
10, 1020, Control_c, 11, 38, 0
10, 1020, Control_c, 11, 101, 0
10, 1020, Control_c, 11, 6, 12
10, 1020, Pitch_bend_c, 11, 8192
10, 1080, Program_c, 11, 26
10, 1080, Control_c, 11, 7, 74
10, 1080, Control_c, 11, 10, 86
10, 48000, Note_on_c, 11, 74, 64
10, 48240, Note_on_c, 11, 59, 64
10, 48480, Note_on_c, 11, 66, 64
10, 48720, Note_on_c, 11, 62, 64
10, 48954, Note_off_c, 11, 59, 80
10, 48960, Note_on_c, 11, 59, 64
10, 49194, Note_off_c, 11, 62, 80
10, 49200, Note_on_c, 11, 62, 64
10, 49434, Note_off_c, 11, 59, 80
10, 49440, Note_on_c, 11, 59, 64
10, 49674, Note_off_c, 11, 62, 80
10, 49680, Note_on_c, 11, 62, 64
10, 49914, Note_off_c, 11, 74, 80
10, 49914, Note_off_c, 11, 66, 80
10, 49920, Note_on_c, 11, 66, 64
10, 50154, Note_off_c, 11, 62, 80
10, 50160, Note_on_c, 11, 62, 64
10, 50394, Note_off_c, 11, 59, 80
10, 50400, Note_on_c, 11, 59, 64
10, 50634, Note_off_c, 11, 66, 80
10, 50640, Note_on_c, 11, 69, 64
10, 50874, Note_off_c, 11, 62, 80
10, 50880, Note_on_c, 11, 62, 64
10, 51120, Note_on_c, 11, 71, 64
10, 51354, Note_off_c, 11, 62, 80
10, 51360, Note_on_c, 11, 62, 64
10, 51594, Note_off_c, 11, 59, 80
10, 51600, Note_on_c, 11, 59, 64
10, 51834, Note_off_c, 11, 69, 80
10, 51840, Note_on_c, 11, 66, 64
10, 52074, Note_off_c, 11, 62, 80
10, 52080, Note_on_c, 11, 62, 64
10, 52314, Note_off_c, 11, 59, 80
10, 52320, Note_on_c, 11, 59, 64
10, 52554, Note_off_c, 11, 66, 80
10, 52560, Note_on_c, 11, 69, 64
10, 52794, Note_off_c, 11, 69, 80
10, 52800, Note_on_c, 11, 66, 64
10, 53034, Note_off_c, 11, 71, 80
10, 53040, Note_on_c, 11, 71, 64
10, 53274, Note_off_c, 11, 66, 80
10, 53280, Note_on_c, 11, 66, 64
10, 53514, Note_off_c, 11, 71, 80
10, 53520, Note_on_c, 11, 74, 64
10, 53754, Note_off_c, 11, 66, 80
10, 53760, Note_on_c, 11, 66, 64
10, 53994, Note_off_c, 11, 62, 80
10, 53994, Note_off_c, 11, 74, 80
10, 54000, Note_on_c, 11, 71, 64
10, 54234, Note_off_c, 11, 59, 80
10, 54234, Note_off_c, 11, 66, 80
10, 54240, Note_on_c, 11, 66, 64
10, 54474, Note_off_c, 11, 66, 80
10, 54480, Note_on_c, 11, 69, 64
10, 54714, Note_off_c, 11, 69, 80
10, 54720, Note_on_c, 11, 66, 64
10, 54960, Note_on_c, 11, 59, 64
10, 55200, Note_on_c, 11, 62, 64
10, 55434, Note_off_c, 11, 59, 80
10, 55440, Note_on_c, 11, 59, 64
10, 55674, Note_off_c, 11, 71, 80
10, 55680, Note_on_c, 11, 74, 64
10, 55914, Note_off_c, 11, 59, 80
10, 55920, Note_on_c, 11, 59, 64
10, 56154, Note_off_c, 11, 66, 80
10, 56160, Note_on_c, 11, 66, 64
10, 56394, Note_off_c, 11, 62, 80
10, 56400, Note_on_c, 11, 62, 64
10, 56634, Note_off_c, 11, 59, 80
10, 56640, Note_on_c, 11, 59, 64
10, 56874, Note_off_c, 11, 62, 80
10, 56880, Note_on_c, 11, 62, 64
10, 57114, Note_off_c, 11, 59, 80
10, 57120, Note_on_c, 11, 59, 64
10, 57354, Note_off_c, 11, 62, 80
10, 57360, Note_on_c, 11, 62, 64
10, 57594, Note_off_c, 11, 74, 80
10, 57594, Note_off_c, 11, 66, 80
10, 57600, Note_on_c, 11, 66, 64
10, 57834, Note_off_c, 11, 62, 80
10, 57840, Note_on_c, 11, 62, 64
10, 58074, Note_off_c, 11, 59, 80
10, 58080, Note_on_c, 11, 59, 64
10, 58314, Note_off_c, 11, 66, 80
10, 58320, Note_on_c, 11, 69, 64
10, 58554, Note_off_c, 11, 62, 80
10, 58560, Note_on_c, 11, 62, 64
10, 58800, Note_on_c, 11, 71, 64
10, 59034, Note_off_c, 11, 62, 80
10, 59040, Note_on_c, 11, 62, 64
10, 59274, Note_off_c, 11, 59, 80
10, 59280, Note_on_c, 11, 59, 64
10, 59514, Note_off_c, 11, 69, 80
10, 59520, Note_on_c, 11, 66, 64
10, 59754, Note_off_c, 11, 62, 80
10, 59760, Note_on_c, 11, 62, 64
10, 59994, Note_off_c, 11, 59, 80
10, 60000, Note_on_c, 11, 59, 64
10, 60234, Note_off_c, 11, 66, 80
10, 60240, Note_on_c, 11, 69, 64
10, 60474, Note_off_c, 11, 69, 80
10, 60480, Note_on_c, 11, 66, 64
10, 60714, Note_off_c, 11, 71, 80
10, 60720, Note_on_c, 11, 71, 64
10, 60954, Note_off_c, 11, 66, 80
10, 60960, Note_on_c, 11, 66, 64
10, 61194, Note_off_c, 11, 71, 80
10, 61200, Note_on_c, 11, 74, 64
10, 61434, Note_off_c, 11, 66, 80
10, 61440, Note_on_c, 11, 66, 64
10, 61674, Note_off_c, 11, 62, 80
10, 61674, Note_off_c, 11, 74, 80
10, 61680, Note_on_c, 11, 71, 64
10, 61914, Note_off_c, 11, 59, 80
10, 61914, Note_off_c, 11, 66, 80
10, 61920, Note_on_c, 11, 66, 64
10, 62154, Note_off_c, 11, 66, 80
10, 62160, Note_on_c, 11, 69, 64
10, 62394, Note_off_c, 11, 69, 80
10, 62400, Note_on_c, 11, 66, 64
10, 62640, Note_on_c, 11, 59, 64
10, 62880, Note_on_c, 11, 62, 64
10, 63114, Note_off_c, 11, 59, 80
10, 63120, Note_on_c, 11, 59, 64
10, 63354, Note_off_c, 11, 71, 80
10, 63360, Note_on_c, 11, 74, 64
10, 63594, Note_off_c, 11, 59, 80
10, 63600, Note_on_c, 11, 59, 64
10, 63834, Note_off_c, 11, 66, 80
10, 63840, Note_on_c, 11, 66, 64
10, 64074, Note_off_c, 11, 62, 80
10, 64080, Note_on_c, 11, 62, 64
10, 64314, Note_off_c, 11, 59, 80
10, 64320, Note_on_c, 11, 59, 64
10, 64554, Note_off_c, 11, 62, 80
10, 64560, Note_on_c, 11, 62, 64
10, 64794, Note_off_c, 11, 59, 80
10, 64800, Note_on_c, 11, 59, 64
10, 65034, Note_off_c, 11, 62, 80
10, 65040, Note_on_c, 11, 62, 64
10, 65274, Note_off_c, 11, 74, 80
10, 65274, Note_off_c, 11, 66, 80
10, 65280, Note_on_c, 11, 66, 64
10, 65514, Note_off_c, 11, 62, 80
10, 65520, Note_on_c, 11, 62, 64
10, 65754, Note_off_c, 11, 59, 80
10, 65760, Note_on_c, 11, 59, 64
10, 65994, Note_off_c, 11, 66, 80
10, 66000, Note_on_c, 11, 69, 64
10, 66234, Note_off_c, 11, 62, 80
10, 66240, Note_on_c, 11, 62, 64
10, 66480, Note_on_c, 11, 71, 64
10, 66714, Note_off_c, 11, 62, 80
10, 66720, Note_on_c, 11, 62, 64
10, 66954, Note_off_c, 11, 59, 80
10, 66960, Note_on_c, 11, 59, 64
10, 67194, Note_off_c, 11, 69, 80
10, 67200, Note_on_c, 11, 66, 64
10, 67434, Note_off_c, 11, 62, 80
10, 67440, Note_on_c, 11, 62, 64
10, 67674, Note_off_c, 11, 59, 80
10, 67680, Note_on_c, 11, 59, 64
10, 67914, Note_off_c, 11, 66, 80
10, 67920, Note_on_c, 11, 69, 64
10, 68154, Note_off_c, 11, 69, 80
10, 68160, Note_on_c, 11, 66, 64
10, 68394, Note_off_c, 11, 71, 80
10, 68400, Note_on_c, 11, 71, 64
10, 68634, Note_off_c, 11, 66, 80
10, 68640, Note_on_c, 11, 66, 64
10, 68874, Note_off_c, 11, 71, 80
10, 68880, Note_on_c, 11, 74, 64
10, 69114, Note_off_c, 11, 66, 80
10, 69120, Note_on_c, 11, 66, 64
10, 69354, Note_off_c, 11, 62, 80
10, 69354, Note_off_c, 11, 74, 80
10, 69360, Note_on_c, 11, 71, 64
10, 69594, Note_off_c, 11, 59, 80
10, 69594, Note_off_c, 11, 66, 80
10, 69600, Note_on_c, 11, 66, 64
10, 69834, Note_off_c, 11, 66, 80
10, 69840, Note_on_c, 11, 69, 64
10, 70074, Note_off_c, 11, 69, 80
10, 70080, Note_on_c, 11, 66, 64
10, 70320, Note_on_c, 11, 59, 64
10, 70560, Note_on_c, 11, 62, 64
10, 70794, Note_off_c, 11, 59, 80
10, 70800, Note_on_c, 11, 59, 64
10, 71034, Note_off_c, 11, 71, 80
10, 71040, Note_on_c, 11, 74, 64
10, 71274, Note_off_c, 11, 59, 80
10, 71280, Note_on_c, 11, 59, 64
10, 71514, Note_off_c, 11, 66, 80
10, 71520, Note_on_c, 11, 66, 64
10, 71754, Note_off_c, 11, 62, 80
10, 71760, Note_on_c, 11, 62, 64
10, 71994, Note_off_c, 11, 59, 80
10, 72000, Note_on_c, 11, 59, 64
10, 72234, Note_off_c, 11, 62, 80
10, 72240, Note_on_c, 11, 62, 64
10, 72474, Note_off_c, 11, 59, 80
10, 72480, Note_on_c, 11, 59, 64
10, 72714, Note_off_c, 11, 62, 80
10, 72720, Note_on_c, 11, 62, 64
10, 72954, Note_off_c, 11, 74, 80
10, 72954, Note_off_c, 11, 66, 80
10, 72960, Note_on_c, 11, 66, 64
10, 73194, Note_off_c, 11, 62, 80
10, 73200, Note_on_c, 11, 62, 64
10, 73434, Note_off_c, 11, 59, 80
10, 73440, Note_on_c, 11, 59, 64
10, 73674, Note_off_c, 11, 66, 80
10, 73680, Note_on_c, 11, 69, 64
10, 73914, Note_off_c, 11, 62, 80
10, 73920, Note_on_c, 11, 62, 64
10, 74160, Note_on_c, 11, 71, 64
10, 74394, Note_off_c, 11, 62, 80
10, 74400, Note_on_c, 11, 62, 64
10, 74634, Note_off_c, 11, 59, 80
10, 74640, Note_on_c, 11, 59, 64
10, 74874, Note_off_c, 11, 69, 80
10, 74880, Note_on_c, 11, 66, 64
10, 75114, Note_off_c, 11, 62, 80
10, 75120, Note_on_c, 11, 62, 64
10, 75354, Note_off_c, 11, 59, 80
10, 75360, Note_on_c, 11, 59, 64
10, 75594, Note_off_c, 11, 66, 80
10, 75600, Note_on_c, 11, 69, 64
10, 75834, Note_off_c, 11, 69, 80
10, 75840, Note_on_c, 11, 66, 64
10, 76074, Note_off_c, 11, 71, 80
10, 76080, Note_on_c, 11, 71, 64
10, 76314, Note_off_c, 11, 66, 80
10, 76320, Note_on_c, 11, 66, 64
10, 76554, Note_off_c, 11, 71, 80
10, 76560, Note_on_c, 11, 74, 64
10, 76794, Note_off_c, 11, 66, 80
10, 76800, Note_on_c, 11, 66, 64
10, 77034, Note_off_c, 11, 62, 80
10, 77034, Note_off_c, 11, 74, 80
10, 77040, Note_on_c, 11, 71, 64
10, 77274, Note_off_c, 11, 59, 80
10, 77274, Note_off_c, 11, 66, 80
10, 77280, Note_on_c, 11, 66, 64
10, 77514, Note_off_c, 11, 66, 80
10, 77520, Note_on_c, 11, 69, 64
10, 77754, Note_off_c, 11, 69, 80
10, 77760, Note_on_c, 11, 66, 64
10, 78000, Note_on_c, 11, 59, 64
10, 78240, Note_on_c, 11, 62, 64
10, 78474, Note_off_c, 11, 59, 80
10, 78480, Note_on_c, 11, 59, 64
10, 79194, Note_off_c, 11, 71, 80
10, 79674, Note_off_c, 11, 66, 80
10, 80154, Note_off_c, 11, 62, 80
10, 80634, Note_off_c, 11, 59, 80
10, 140640, Note_on_c, 11, 49, 96
10, 140874, Note_off_c, 11, 49, 80
10, 140880, Note_on_c, 11, 47, 96
10, 141120, Note_on_c, 11, 50, 96
10, 141354, Note_off_c, 11, 47, 80
10, 141360, Note_on_c, 11, 49, 96
10, 141834, Note_off_c, 11, 50, 80
10, 141840, Note_on_c, 11, 50, 96
10, 142314, Note_off_c, 11, 50, 80
10, 142320, Note_on_c, 11, 52, 96
10, 142794, Note_off_c, 11, 52, 80
10, 142800, Note_on_c, 11, 54, 96
10, 143274, Note_off_c, 11, 49, 80
10, 143280, Note_on_c, 11, 57, 96
10, 143754, Note_off_c, 11, 57, 80
10, 143760, Note_on_c, 11, 59, 96
10, 144234, Note_off_c, 11, 54, 80
10, 144234, Note_off_c, 11, 59, 80
10, 144480, Note_on_c, 11, 49, 96
10, 144714, Note_off_c, 11, 49, 80
10, 144720, Note_on_c, 11, 47, 96
10, 144960, Note_on_c, 11, 50, 96
10, 145194, Note_off_c, 11, 47, 80
10, 145200, Note_on_c, 11, 49, 96
10, 145674, Note_off_c, 11, 50, 80
10, 145680, Note_on_c, 11, 50, 96
10, 146154, Note_off_c, 11, 50, 80
10, 146160, Note_on_c, 11, 52, 96
10, 146634, Note_off_c, 11, 52, 80
10, 146640, Note_on_c, 11, 54, 96
10, 147114, Note_off_c, 11, 49, 80
10, 147120, Note_on_c, 11, 57, 96
10, 147594, Note_off_c, 11, 57, 80
10, 147600, Note_on_c, 11, 59, 96
10, 148074, Note_off_c, 11, 54, 80
10, 148074, Note_off_c, 11, 59, 80
10, 148320, Note_on_c, 11, 49, 96
10, 148554, Note_off_c, 11, 49, 80
10, 148560, Note_on_c, 11, 47, 96
10, 148800, Note_on_c, 11, 50, 96
10, 149034, Note_off_c, 11, 47, 80
10, 149040, Note_on_c, 11, 49, 96
10, 149514, Note_off_c, 11, 50, 80
10, 149520, Note_on_c, 11, 50, 96
10, 149994, Note_off_c, 11, 50, 80
10, 150000, Note_on_c, 11, 52, 96
10, 150474, Note_off_c, 11, 52, 80
10, 150480, Note_on_c, 11, 54, 96
10, 150954, Note_off_c, 11, 49, 80
10, 150960, Note_on_c, 11, 57, 96
10, 151434, Note_off_c, 11, 57, 80
10, 151440, Note_on_c, 11, 59, 96
10, 151914, Note_off_c, 11, 54, 80
10, 151914, Note_off_c, 11, 59, 80
10, 152160, Note_on_c, 11, 49, 96
10, 152394, Note_off_c, 11, 49, 80
10, 152400, Note_on_c, 11, 47, 96
10, 152640, Note_on_c, 11, 50, 96
10, 152874, Note_off_c, 11, 47, 80
10, 152880, Note_on_c, 11, 49, 96
10, 153354, Note_off_c, 11, 50, 80
10, 153360, Note_on_c, 11, 50, 96
10, 153834, Note_off_c, 11, 49, 80
10, 153840, Note_on_c, 11, 49, 96
10, 154314, Note_off_c, 11, 49, 80
10, 154320, Note_on_c, 11, 47, 96
10, 154794, Note_off_c, 11, 47, 80
10, 154800, Note_on_c, 11, 50, 96
10, 155034, Note_off_c, 11, 50, 80
10, 155040, Note_on_c, 11, 49, 71
10, 155274, Note_off_c, 11, 49, 80
10, 155280, Note_on_c, 11, 47, 71
10, 155754, Note_off_c, 11, 50, 80
10, 155754, Note_off_c, 11, 47, 80
10, 156000, Note_on_c, 11, 49, 96
10, 156234, Note_off_c, 11, 49, 80
10, 156240, Note_on_c, 11, 47, 96
10, 156480, Note_on_c, 11, 50, 96
10, 156714, Note_off_c, 11, 47, 80
10, 156720, Note_on_c, 11, 49, 96
10, 157194, Note_off_c, 11, 50, 80
10, 157200, Note_on_c, 11, 50, 96
10, 157674, Note_off_c, 11, 50, 80
10, 157680, Note_on_c, 11, 52, 96
10, 158154, Note_off_c, 11, 52, 80
10, 158160, Note_on_c, 11, 54, 96
10, 158634, Note_off_c, 11, 49, 80
10, 158640, Note_on_c, 11, 57, 96
10, 159114, Note_off_c, 11, 57, 80
10, 159120, Note_on_c, 11, 59, 96
10, 159594, Note_off_c, 11, 54, 80
10, 159594, Note_off_c, 11, 59, 80
10, 159840, Note_on_c, 11, 49, 96
10, 160074, Note_off_c, 11, 49, 80
10, 160080, Note_on_c, 11, 47, 96
10, 160320, Note_on_c, 11, 50, 96
10, 160554, Note_off_c, 11, 47, 80
10, 160560, Note_on_c, 11, 49, 96
10, 161034, Note_off_c, 11, 50, 80
10, 161040, Note_on_c, 11, 50, 96
10, 161514, Note_off_c, 11, 50, 80
10, 161520, Note_on_c, 11, 52, 96
10, 161994, Note_off_c, 11, 52, 80
10, 162000, Note_on_c, 11, 54, 96
10, 162474, Note_off_c, 11, 49, 80
10, 162480, Note_on_c, 11, 57, 96
10, 162954, Note_off_c, 11, 57, 80
10, 162960, Note_on_c, 11, 59, 96
10, 163434, Note_off_c, 11, 54, 80
10, 163434, Note_off_c, 11, 59, 80
10, 163680, Note_on_c, 11, 49, 96
10, 163914, Note_off_c, 11, 49, 80
10, 163920, Note_on_c, 11, 47, 96
10, 164160, Note_on_c, 11, 50, 96
10, 164394, Note_off_c, 11, 47, 80
10, 164400, Note_on_c, 11, 49, 96
10, 164874, Note_off_c, 11, 50, 80
10, 164880, Note_on_c, 11, 50, 96
10, 165354, Note_off_c, 11, 50, 80
10, 165360, Note_on_c, 11, 52, 96
10, 165834, Note_off_c, 11, 52, 80
10, 165840, Note_on_c, 11, 54, 96
10, 166314, Note_off_c, 11, 49, 80
10, 166320, Note_on_c, 11, 57, 96
10, 166794, Note_off_c, 11, 57, 80
10, 166800, Note_on_c, 11, 59, 96
10, 167274, Note_off_c, 11, 54, 80
10, 167274, Note_off_c, 11, 59, 80
10, 167520, Note_on_c, 11, 49, 96
10, 167754, Note_off_c, 11, 49, 80
10, 167760, Note_on_c, 11, 47, 96
10, 168000, Note_on_c, 11, 50, 96
10, 168234, Note_off_c, 11, 47, 80
10, 168240, Note_on_c, 11, 49, 96
10, 168714, Note_off_c, 11, 50, 80
10, 168720, Note_on_c, 11, 50, 96
10, 169194, Note_off_c, 11, 49, 80
10, 169200, Note_on_c, 11, 49, 96
10, 169674, Note_off_c, 11, 49, 80
10, 169680, Note_on_c, 11, 47, 96
10, 170154, Note_off_c, 11, 47, 80
10, 170160, Note_on_c, 11, 50, 96
10, 170394, Note_off_c, 11, 50, 80
10, 170400, Note_on_c, 11, 49, 71
10, 170634, Note_off_c, 11, 50, 80
10, 170634, Note_off_c, 11, 49, 80
10, 170640, Note_on_c, 11, 47, 71
10, 171834, Note_off_c, 11, 47, 80
10, 201600, Note_on_c, 11, 74, 64
10, 201840, Note_on_c, 11, 59, 64
10, 202080, Note_on_c, 11, 66, 64
10, 202320, Note_on_c, 11, 62, 64
10, 202554, Note_off_c, 11, 59, 80
10, 202560, Note_on_c, 11, 59, 64
10, 202794, Note_off_c, 11, 62, 80
10, 202800, Note_on_c, 11, 62, 64
10, 203034, Note_off_c, 11, 59, 80
10, 203040, Note_on_c, 11, 59, 64
10, 203274, Note_off_c, 11, 62, 80
10, 203280, Note_on_c, 11, 62, 64
10, 203514, Note_off_c, 11, 74, 80
10, 203514, Note_off_c, 11, 66, 80
10, 203520, Note_on_c, 11, 66, 64
10, 203754, Note_off_c, 11, 62, 80
10, 203760, Note_on_c, 11, 62, 64
10, 203994, Note_off_c, 11, 59, 80
10, 204000, Note_on_c, 11, 59, 64
10, 204234, Note_off_c, 11, 66, 80
10, 204240, Note_on_c, 11, 69, 64
10, 204474, Note_off_c, 11, 62, 80
10, 204480, Note_on_c, 11, 62, 64
10, 204720, Note_on_c, 11, 71, 64
10, 204954, Note_off_c, 11, 62, 80
10, 204960, Note_on_c, 11, 62, 64
10, 205194, Note_off_c, 11, 59, 80
10, 205200, Note_on_c, 11, 59, 64
10, 205434, Note_off_c, 11, 69, 80
10, 205440, Note_on_c, 11, 66, 64
10, 205674, Note_off_c, 11, 62, 80
10, 205680, Note_on_c, 11, 62, 64
10, 205914, Note_off_c, 11, 59, 80
10, 205920, Note_on_c, 11, 59, 64
10, 206154, Note_off_c, 11, 66, 80
10, 206160, Note_on_c, 11, 69, 64
10, 206394, Note_off_c, 11, 69, 80
10, 206400, Note_on_c, 11, 66, 64
10, 206634, Note_off_c, 11, 71, 80
10, 206640, Note_on_c, 11, 71, 64
10, 206874, Note_off_c, 11, 66, 80
10, 206880, Note_on_c, 11, 66, 64
10, 207114, Note_off_c, 11, 71, 80
10, 207120, Note_on_c, 11, 74, 64
10, 207354, Note_off_c, 11, 66, 80
10, 207360, Note_on_c, 11, 66, 64
10, 207594, Note_off_c, 11, 62, 80
10, 207594, Note_off_c, 11, 74, 80
10, 207600, Note_on_c, 11, 71, 64
10, 207834, Note_off_c, 11, 59, 80
10, 207834, Note_off_c, 11, 66, 80
10, 207840, Note_on_c, 11, 66, 64
10, 208074, Note_off_c, 11, 66, 80
10, 208080, Note_on_c, 11, 69, 64
10, 208314, Note_off_c, 11, 69, 80
10, 208320, Note_on_c, 11, 66, 64
10, 208560, Note_on_c, 11, 59, 64
10, 208800, Note_on_c, 11, 62, 64
10, 209034, Note_off_c, 11, 59, 80
10, 209040, Note_on_c, 11, 59, 64
10, 209274, Note_off_c, 11, 71, 80
10, 209280, Note_on_c, 11, 74, 64
10, 209514, Note_off_c, 11, 59, 80
10, 209520, Note_on_c, 11, 59, 64
10, 209754, Note_off_c, 11, 66, 80
10, 209760, Note_on_c, 11, 66, 64
10, 209994, Note_off_c, 11, 62, 80
10, 210000, Note_on_c, 11, 62, 64
10, 210234, Note_off_c, 11, 59, 80
10, 210240, Note_on_c, 11, 59, 64
10, 210474, Note_off_c, 11, 62, 80
10, 210480, Note_on_c, 11, 62, 64
10, 210714, Note_off_c, 11, 59, 80
10, 210720, Note_on_c, 11, 59, 64
10, 210954, Note_off_c, 11, 62, 80
10, 210960, Note_on_c, 11, 62, 64
10, 211194, Note_off_c, 11, 74, 80
10, 211194, Note_off_c, 11, 66, 80
10, 211200, Note_on_c, 11, 66, 64
10, 211434, Note_off_c, 11, 62, 80
10, 211440, Note_on_c, 11, 62, 64
10, 211674, Note_off_c, 11, 59, 80
10, 211680, Note_on_c, 11, 59, 64
10, 211914, Note_off_c, 11, 66, 80
10, 211920, Note_on_c, 11, 69, 64
10, 212154, Note_off_c, 11, 62, 80
10, 212160, Note_on_c, 11, 62, 64
10, 212400, Note_on_c, 11, 71, 64
10, 212634, Note_off_c, 11, 62, 80
10, 212640, Note_on_c, 11, 62, 64
10, 212874, Note_off_c, 11, 59, 80
10, 212880, Note_on_c, 11, 59, 64
10, 213114, Note_off_c, 11, 69, 80
10, 213120, Note_on_c, 11, 66, 64
10, 213354, Note_off_c, 11, 62, 80
10, 213360, Note_on_c, 11, 62, 64
10, 213594, Note_off_c, 11, 59, 80
10, 213600, Note_on_c, 11, 59, 64
10, 213834, Note_off_c, 11, 66, 80
10, 213840, Note_on_c, 11, 69, 64
10, 214074, Note_off_c, 11, 69, 80
10, 214080, Note_on_c, 11, 66, 64
10, 214314, Note_off_c, 11, 71, 80
10, 214320, Note_on_c, 11, 71, 64
10, 214554, Note_off_c, 11, 66, 80
10, 214560, Note_on_c, 11, 66, 64
10, 214794, Note_off_c, 11, 71, 80
10, 214800, Note_on_c, 11, 74, 64
10, 215034, Note_off_c, 11, 66, 80
10, 215040, Note_on_c, 11, 66, 64
10, 215274, Note_off_c, 11, 62, 80
10, 215274, Note_off_c, 11, 74, 80
10, 215280, Note_on_c, 11, 71, 64
10, 215514, Note_off_c, 11, 59, 80
10, 215514, Note_off_c, 11, 66, 80
10, 215520, Note_on_c, 11, 66, 64
10, 215754, Note_off_c, 11, 66, 80
10, 215760, Note_on_c, 11, 69, 64
10, 215994, Note_off_c, 11, 69, 80
10, 216000, Note_on_c, 11, 66, 64
10, 216240, Note_on_c, 11, 59, 64
10, 216480, Note_on_c, 11, 62, 64
10, 216714, Note_off_c, 11, 59, 80
10, 216720, Note_on_c, 11, 59, 64
10, 216954, Note_off_c, 11, 71, 80
10, 216960, Note_on_c, 11, 74, 64
10, 217194, Note_off_c, 11, 59, 80
10, 217200, Note_on_c, 11, 59, 64
10, 217434, Note_off_c, 11, 66, 80
10, 217440, Note_on_c, 11, 66, 64
10, 217674, Note_off_c, 11, 62, 80
10, 217680, Note_on_c, 11, 62, 64
10, 217914, Note_off_c, 11, 59, 80
10, 217920, Note_on_c, 11, 59, 64
10, 218154, Note_off_c, 11, 62, 80
10, 218160, Note_on_c, 11, 62, 64
10, 218394, Note_off_c, 11, 59, 80
10, 218400, Note_on_c, 11, 59, 64
10, 218634, Note_off_c, 11, 62, 80
10, 218640, Note_on_c, 11, 62, 64
10, 218874, Note_off_c, 11, 74, 80
10, 218874, Note_off_c, 11, 66, 80
10, 218880, Note_on_c, 11, 66, 64
10, 219114, Note_off_c, 11, 62, 80
10, 219120, Note_on_c, 11, 62, 64
10, 219354, Note_off_c, 11, 59, 80
10, 219360, Note_on_c, 11, 59, 64
10, 219594, Note_off_c, 11, 66, 80
10, 219600, Note_on_c, 11, 69, 64
10, 219834, Note_off_c, 11, 62, 80
10, 219840, Note_on_c, 11, 62, 64
10, 220080, Note_on_c, 11, 71, 64
10, 220314, Note_off_c, 11, 62, 80
10, 220320, Note_on_c, 11, 62, 64
10, 220554, Note_off_c, 11, 59, 80
10, 220560, Note_on_c, 11, 59, 64
10, 220794, Note_off_c, 11, 69, 80
10, 220800, Note_on_c, 11, 66, 64
10, 221034, Note_off_c, 11, 62, 80
10, 221040, Note_on_c, 11, 62, 64
10, 221274, Note_off_c, 11, 59, 80
10, 221280, Note_on_c, 11, 59, 64
10, 221514, Note_off_c, 11, 66, 80
10, 221520, Note_on_c, 11, 69, 64
10, 221754, Note_off_c, 11, 69, 80
10, 221760, Note_on_c, 11, 66, 64
10, 221994, Note_off_c, 11, 71, 80
10, 222000, Note_on_c, 11, 71, 64
10, 222234, Note_off_c, 11, 66, 80
10, 222240, Note_on_c, 11, 66, 64
10, 222474, Note_off_c, 11, 71, 80
10, 222480, Note_on_c, 11, 74, 64
10, 222714, Note_off_c, 11, 66, 80
10, 222720, Note_on_c, 11, 66, 64
10, 222954, Note_off_c, 11, 62, 80
10, 222954, Note_off_c, 11, 74, 80
10, 222960, Note_on_c, 11, 71, 64
10, 223194, Note_off_c, 11, 59, 80
10, 223194, Note_off_c, 11, 66, 80
10, 223200, Note_on_c, 11, 66, 64
10, 223434, Note_off_c, 11, 66, 80
10, 223440, Note_on_c, 11, 69, 64
10, 223674, Note_off_c, 11, 69, 80
10, 223680, Note_on_c, 11, 66, 64
10, 223920, Note_on_c, 11, 59, 64
10, 224160, Note_on_c, 11, 62, 64
10, 224394, Note_off_c, 11, 59, 80
10, 224400, Note_on_c, 11, 59, 64
10, 224634, Note_off_c, 11, 71, 80
10, 224640, Note_on_c, 11, 74, 64
10, 224874, Note_off_c, 11, 59, 80
10, 224880, Note_on_c, 11, 59, 64
10, 225114, Note_off_c, 11, 66, 80
10, 225120, Note_on_c, 11, 66, 64
10, 225354, Note_off_c, 11, 62, 80
10, 225360, Note_on_c, 11, 62, 64
10, 225594, Note_off_c, 11, 59, 80
10, 225600, Note_on_c, 11, 59, 64
10, 225834, Note_off_c, 11, 62, 80
10, 225840, Note_on_c, 11, 62, 64
10, 226074, Note_off_c, 11, 59, 80
10, 226080, Note_on_c, 11, 59, 64
10, 226314, Note_off_c, 11, 62, 80
10, 226320, Note_on_c, 11, 62, 64
10, 226554, Note_off_c, 11, 74, 80
10, 226554, Note_off_c, 11, 66, 80
10, 226560, Note_on_c, 11, 66, 64
10, 226794, Note_off_c, 11, 62, 80
10, 226800, Note_on_c, 11, 62, 64
10, 227034, Note_off_c, 11, 59, 80
10, 227040, Note_on_c, 11, 59, 64
10, 227274, Note_off_c, 11, 66, 80
10, 227280, Note_on_c, 11, 69, 64
10, 227514, Note_off_c, 11, 62, 80
10, 227520, Note_on_c, 11, 62, 64
10, 227760, Note_on_c, 11, 71, 64
10, 227994, Note_off_c, 11, 62, 80
10, 228000, Note_on_c, 11, 62, 64
10, 228234, Note_off_c, 11, 59, 80
10, 228240, Note_on_c, 11, 59, 64
10, 228474, Note_off_c, 11, 69, 80
10, 228480, Note_on_c, 11, 66, 64
10, 228714, Note_off_c, 11, 62, 80
10, 228720, Note_on_c, 11, 62, 64
10, 228954, Note_off_c, 11, 59, 80
10, 228960, Note_on_c, 11, 59, 64
10, 229194, Note_off_c, 11, 66, 80
10, 229200, Note_on_c, 11, 69, 64
10, 229434, Note_off_c, 11, 69, 80
10, 229440, Note_on_c, 11, 66, 64
10, 229674, Note_off_c, 11, 71, 80
10, 229680, Note_on_c, 11, 71, 64
10, 229914, Note_off_c, 11, 66, 80
10, 229920, Note_on_c, 11, 66, 64
10, 230154, Note_off_c, 11, 71, 80
10, 230160, Note_on_c, 11, 74, 64
10, 230394, Note_off_c, 11, 66, 80
10, 230400, Note_on_c, 11, 66, 64
10, 230634, Note_off_c, 11, 62, 80
10, 230634, Note_off_c, 11, 74, 80
10, 230640, Note_on_c, 11, 71, 64
10, 230874, Note_off_c, 11, 59, 80
10, 230874, Note_off_c, 11, 66, 80
10, 230880, Note_on_c, 11, 66, 64
10, 231114, Note_off_c, 11, 66, 80
10, 231120, Note_on_c, 11, 69, 64
10, 231354, Note_off_c, 11, 69, 80
10, 231360, Note_on_c, 11, 66, 64
10, 231600, Note_on_c, 11, 59, 64
10, 231840, Note_on_c, 11, 62, 64
10, 232074, Note_off_c, 11, 59, 80
10, 232080, Note_on_c, 11, 59, 64
10, 232314, Note_off_c, 11, 71, 80
10, 232320, Control_c, 11, 7, 112
10, 232320, Note_on_c, 11, 71, 64
10, 232554, Note_off_c, 11, 66, 80
10, 232554, Note_off_c, 11, 71, 80
10, 232560, Note_on_c, 11, 59, 64
10, 232794, Note_off_c, 11, 59, 80
10, 232800, Note_on_c, 11, 59, 64
10, 233034, Note_off_c, 11, 59, 80
10, 233040, Note_on_c, 11, 71, 64
10, 233274, Note_off_c, 11, 71, 80
10, 233280, Note_on_c, 11, 59, 64
10, 233514, Note_off_c, 11, 59, 80
10, 233520, Note_on_c, 11, 59, 64
10, 233754, Note_off_c, 11, 62, 80
10, 233754, Note_off_c, 11, 59, 80
10, 233760, Note_on_c, 11, 71, 64
10, 233994, Note_off_c, 11, 59, 80
10, 233994, Note_off_c, 11, 71, 80
10, 234000, Note_on_c, 11, 59, 64
10, 234234, Note_off_c, 11, 59, 80
10, 234240, Note_on_c, 11, 59, 64
10, 234474, Note_off_c, 11, 59, 80
10, 234480, Note_on_c, 11, 71, 64
10, 234714, Note_off_c, 11, 71, 80
10, 234720, Note_on_c, 11, 59, 64
10, 234954, Note_off_c, 11, 59, 80
10, 234960, Note_on_c, 11, 59, 64
10, 235194, Note_off_c, 11, 59, 80
10, 235200, Note_on_c, 11, 71, 64
10, 235434, Note_off_c, 11, 71, 80
10, 235440, Note_on_c, 11, 59, 64
10, 235674, Note_off_c, 11, 59, 80
10, 235680, Note_on_c, 11, 59, 64
10, 235914, Note_off_c, 11, 59, 80
10, 235920, Note_on_c, 11, 71, 64
10, 236154, Note_off_c, 11, 71, 80
10, 236160, Note_on_c, 11, 59, 64
10, 236394, Note_off_c, 11, 59, 80
10, 236400, Note_on_c, 11, 59, 64
10, 236634, Note_off_c, 11, 59, 80
10, 236640, Note_on_c, 11, 59, 64
10, 236874, Note_off_c, 11, 59, 80
10, 236880, Note_on_c, 11, 71, 64
10, 237114, Note_off_c, 11, 71, 80
10, 237120, Note_on_c, 11, 71, 64
10, 237354, Note_off_c, 11, 71, 80
10, 237360, Note_on_c, 11, 71, 64
10, 237594, Note_off_c, 11, 71, 80
10, 237600, Note_on_c, 11, 59, 64
10, 237834, Note_off_c, 11, 59, 80
10, 237840, Note_on_c, 11, 71, 64
10, 238074, Note_off_c, 11, 71, 80
10, 238080, Note_on_c, 11, 71, 64
10, 238314, Note_off_c, 11, 71, 80
10, 238320, Note_on_c, 11, 71, 64
10, 238554, Note_off_c, 11, 71, 80
10, 238560, Note_on_c, 11, 59, 64
10, 238794, Note_off_c, 11, 59, 80
10, 238800, Note_on_c, 11, 71, 64
10, 239034, Note_off_c, 11, 71, 80
10, 239040, Note_on_c, 11, 59, 64
10, 239274, Note_off_c, 11, 59, 80
10, 239280, Note_on_c, 11, 59, 64
10, 239514, Note_off_c, 11, 59, 80
10, 239520, Note_on_c, 11, 73, 64
10, 239754, Note_off_c, 11, 73, 80
10, 239760, Note_on_c, 11, 70, 64
10, 239994, Note_off_c, 11, 70, 80
10, 240000, Note_on_c, 11, 70, 64
10, 240234, Note_off_c, 11, 70, 80
10, 240240, Note_on_c, 11, 73, 64
10, 240474, Note_off_c, 11, 73, 80
10, 240480, Note_on_c, 11, 70, 64
10, 240714, Note_off_c, 11, 70, 80
10, 240720, Note_on_c, 11, 70, 64
10, 240954, Note_off_c, 11, 70, 80
10, 240960, Note_on_c, 11, 73, 64
10, 241194, Note_off_c, 11, 73, 80
10, 241200, Note_on_c, 11, 70, 64
10, 241434, Note_off_c, 11, 70, 80
10, 241440, Note_on_c, 11, 70, 64
10, 241674, Note_off_c, 11, 70, 80
10, 241680, Note_on_c, 11, 73, 64
10, 241914, Note_off_c, 11, 73, 80
10, 241920, Note_on_c, 11, 70, 64
10, 242154, Note_off_c, 11, 70, 80
10, 242160, Note_on_c, 11, 70, 64
10, 242394, Note_off_c, 11, 70, 80
10, 242400, Note_on_c, 11, 73, 64
10, 242634, Note_off_c, 11, 73, 80
10, 242640, Note_on_c, 11, 70, 64
10, 242874, Note_off_c, 11, 70, 80
10, 242880, Note_on_c, 11, 70, 64
10, 243114, Note_off_c, 11, 70, 80
10, 243120, Note_on_c, 11, 73, 64
10, 243354, Note_off_c, 11, 73, 80
10, 243360, Note_on_c, 11, 70, 64
10, 243594, Note_off_c, 11, 70, 80
10, 243600, Note_on_c, 11, 69, 64
10, 243834, Note_off_c, 11, 69, 80
10, 243840, Note_on_c, 11, 73, 64
10, 244074, Note_off_c, 11, 73, 80
10, 244080, Note_on_c, 11, 69, 64
10, 244314, Note_off_c, 11, 69, 80
10, 244320, Note_on_c, 11, 69, 64
10, 244554, Note_off_c, 11, 69, 80
10, 244560, Note_on_c, 11, 73, 64
10, 244794, Note_off_c, 11, 73, 80
10, 244800, Note_on_c, 11, 69, 64
10, 245034, Note_off_c, 11, 69, 80
10, 245040, Note_on_c, 11, 69, 64
10, 245274, Note_off_c, 11, 69, 80
10, 245280, Note_on_c, 11, 73, 64
10, 245514, Note_off_c, 11, 73, 80
10, 245520, Note_on_c, 11, 69, 64
10, 245754, Note_off_c, 11, 69, 80
10, 245760, Note_on_c, 11, 69, 64
10, 245994, Note_off_c, 11, 69, 80
10, 246000, Note_on_c, 11, 73, 64
10, 246234, Note_off_c, 11, 73, 80
10, 246240, Note_on_c, 11, 69, 64
10, 246474, Note_off_c, 11, 69, 80
10, 246480, Note_on_c, 11, 69, 64
10, 246714, Note_off_c, 11, 69, 80
10, 246720, Note_on_c, 11, 73, 64
10, 246954, Note_off_c, 11, 73, 80
10, 246960, Note_on_c, 11, 69, 64
10, 247194, Note_off_c, 11, 69, 80
10, 247200, Note_on_c, 11, 69, 64
10, 247434, Note_off_c, 11, 69, 80
10, 247440, Note_on_c, 11, 74, 64
10, 247674, Note_off_c, 11, 74, 80
10, 247680, Note_on_c, 11, 66, 64
10, 247914, Note_off_c, 11, 66, 80
10, 247920, Note_on_c, 11, 66, 64
10, 248154, Note_off_c, 11, 66, 80
10, 248160, Note_on_c, 11, 66, 64
10, 248394, Note_off_c, 11, 66, 80
10, 248400, Note_on_c, 11, 66, 64
10, 248874, Note_off_c, 11, 66, 80
10, 248880, Note_on_c, 11, 74, 64
10, 249354, Note_off_c, 11, 74, 80
10, 249360, Note_on_c, 11, 73, 64
10, 249594, Note_off_c, 11, 73, 80
10, 249600, Note_on_c, 11, 73, 64
10, 249834, Note_off_c, 11, 73, 80
10, 249840, Note_on_c, 11, 69, 64
10, 250074, Note_off_c, 11, 69, 80
10, 250080, Note_on_c, 11, 69, 64
10, 250314, Note_off_c, 11, 69, 80
10, 250320, Note_on_c, 11, 69, 64
10, 250794, Note_off_c, 11, 69, 80
10, 250800, Note_on_c, 11, 73, 64
10, 251034, Note_off_c, 11, 73, 80
10, 251040, Note_on_c, 11, 69, 64
10, 251274, Note_off_c, 11, 69, 80
10, 251280, Note_on_c, 11, 73, 64
10, 251514, Note_off_c, 11, 73, 80
10, 251520, Note_on_c, 11, 66, 64
10, 251754, Note_off_c, 11, 66, 80
10, 251760, Note_on_c, 11, 66, 64
10, 251994, Note_off_c, 11, 66, 80
10, 252000, Note_on_c, 11, 66, 64
10, 252234, Note_off_c, 11, 66, 80
10, 252240, Note_on_c, 11, 66, 64
10, 252714, Note_off_c, 11, 66, 80
10, 252720, Note_on_c, 11, 74, 64
10, 253194, Note_off_c, 11, 74, 80
10, 253200, Note_on_c, 11, 73, 64
10, 253434, Note_off_c, 11, 73, 80
10, 253440, Note_on_c, 11, 73, 64
10, 253674, Note_off_c, 11, 73, 80
10, 253680, Note_on_c, 11, 69, 64
10, 253914, Note_off_c, 11, 69, 80
10, 253920, Note_on_c, 11, 69, 64
10, 254154, Note_off_c, 11, 69, 80
10, 254160, Note_on_c, 11, 69, 64
10, 254634, Note_off_c, 11, 69, 80
10, 254640, Note_on_c, 11, 73, 64
10, 254874, Note_off_c, 11, 73, 80
10, 254880, Note_on_c, 11, 69, 64
10, 255114, Note_off_c, 11, 69, 80
10, 255120, Note_on_c, 11, 71, 64
10, 255354, Note_off_c, 11, 71, 80
10, 255360, Note_on_c, 11, 71, 64
10, 255594, Note_off_c, 11, 71, 80
10, 255600, Note_on_c, 11, 59, 64
10, 255834, Note_off_c, 11, 59, 80
10, 255840, Note_on_c, 11, 59, 64
10, 256074, Note_off_c, 11, 59, 80
10, 256080, Note_on_c, 11, 71, 64
10, 256314, Note_off_c, 11, 71, 80
10, 256320, Note_on_c, 11, 59, 64
10, 256554, Note_off_c, 11, 59, 80
10, 256560, Note_on_c, 11, 59, 64
10, 256794, Note_off_c, 11, 59, 80
10, 256800, Note_on_c, 11, 71, 64
10, 257034, Note_off_c, 11, 71, 80
10, 257040, Note_on_c, 11, 59, 64
10, 257274, Note_off_c, 11, 59, 80
10, 257280, Note_on_c, 11, 59, 64
10, 257514, Note_off_c, 11, 59, 80
10, 257520, Note_on_c, 11, 71, 64
10, 257754, Note_off_c, 11, 71, 80
10, 257760, Note_on_c, 11, 59, 64
10, 257994, Note_off_c, 11, 59, 80
10, 258000, Note_on_c, 11, 59, 64
10, 258234, Note_off_c, 11, 59, 80
10, 258240, Note_on_c, 11, 71, 64
10, 258474, Note_off_c, 11, 71, 80
10, 258480, Note_on_c, 11, 59, 64
10, 258714, Note_off_c, 11, 59, 80
10, 258720, Note_on_c, 11, 59, 64
10, 258954, Note_off_c, 11, 59, 80
10, 258960, Note_on_c, 11, 71, 64
10, 259194, Note_off_c, 11, 71, 80
10, 259200, Note_on_c, 11, 59, 64
10, 259434, Note_off_c, 11, 59, 80
10, 259440, Note_on_c, 11, 59, 64
10, 259674, Note_off_c, 11, 59, 80
10, 259680, Note_on_c, 11, 59, 64
10, 259914, Note_off_c, 11, 59, 80
10, 259920, Note_on_c, 11, 71, 64
10, 260154, Note_off_c, 11, 71, 80
10, 260160, Note_on_c, 11, 71, 64
10, 260394, Note_off_c, 11, 71, 80
10, 260400, Note_on_c, 11, 71, 64
10, 260634, Note_off_c, 11, 71, 80
10, 260640, Note_on_c, 11, 59, 64
10, 260874, Note_off_c, 11, 59, 80
10, 260880, Note_on_c, 11, 71, 64
10, 261114, Note_off_c, 11, 71, 80
10, 261120, Note_on_c, 11, 71, 64
10, 261354, Note_off_c, 11, 71, 80
10, 261360, Note_on_c, 11, 71, 64
10, 261594, Note_off_c, 11, 71, 80
10, 261600, Note_on_c, 11, 59, 64
10, 261834, Note_off_c, 11, 59, 80
10, 261840, Note_on_c, 11, 71, 64
10, 262074, Note_off_c, 11, 71, 80
10, 262080, Note_on_c, 11, 59, 64
10, 262314, Note_off_c, 11, 59, 80
10, 262320, Note_on_c, 11, 59, 64
10, 262554, Note_off_c, 11, 59, 80
10, 262560, Note_on_c, 11, 73, 64
10, 262794, Note_off_c, 11, 73, 80
10, 262800, Note_on_c, 11, 70, 64
10, 263034, Note_off_c, 11, 70, 80
10, 263040, Note_on_c, 11, 70, 64
10, 263274, Note_off_c, 11, 70, 80
10, 263280, Note_on_c, 11, 73, 64
10, 263514, Note_off_c, 11, 73, 80
10, 263520, Note_on_c, 11, 70, 64
10, 263754, Note_off_c, 11, 70, 80
10, 263760, Note_on_c, 11, 70, 64
10, 263994, Note_off_c, 11, 70, 80
10, 264000, Note_on_c, 11, 73, 64
10, 264234, Note_off_c, 11, 73, 80
10, 264240, Note_on_c, 11, 70, 64
10, 264474, Note_off_c, 11, 70, 80
10, 264480, Note_on_c, 11, 70, 64
10, 264714, Note_off_c, 11, 70, 80
10, 264720, Note_on_c, 11, 73, 64
10, 264954, Note_off_c, 11, 73, 80
10, 264960, Note_on_c, 11, 70, 64
10, 265194, Note_off_c, 11, 70, 80
10, 265200, Note_on_c, 11, 70, 64
10, 265434, Note_off_c, 11, 70, 80
10, 265440, Note_on_c, 11, 73, 64
10, 265674, Note_off_c, 11, 73, 80
10, 265680, Note_on_c, 11, 70, 64
10, 265914, Note_off_c, 11, 70, 80
10, 265920, Note_on_c, 11, 70, 64
10, 266154, Note_off_c, 11, 70, 80
10, 266160, Note_on_c, 11, 73, 64
10, 266394, Note_off_c, 11, 73, 80
10, 266400, Note_on_c, 11, 70, 64
10, 266634, Note_off_c, 11, 70, 80
10, 266640, Note_on_c, 11, 69, 64
10, 266874, Note_off_c, 11, 69, 80
10, 266880, Note_on_c, 11, 73, 64
10, 267114, Note_off_c, 11, 73, 80
10, 267120, Note_on_c, 11, 69, 64
10, 267354, Note_off_c, 11, 69, 80
10, 267360, Note_on_c, 11, 69, 64
10, 267594, Note_off_c, 11, 69, 80
10, 267600, Note_on_c, 11, 73, 64
10, 267834, Note_off_c, 11, 73, 80
10, 267840, Note_on_c, 11, 69, 64
10, 268074, Note_off_c, 11, 69, 80
10, 268080, Note_on_c, 11, 69, 64
10, 268314, Note_off_c, 11, 69, 80
10, 268320, Note_on_c, 11, 73, 64
10, 268554, Note_off_c, 11, 73, 80
10, 268560, Note_on_c, 11, 69, 64
10, 268794, Note_off_c, 11, 69, 80
10, 268800, Note_on_c, 11, 69, 64
10, 269034, Note_off_c, 11, 69, 80
10, 269040, Note_on_c, 11, 73, 64
10, 269274, Note_off_c, 11, 73, 80
10, 269280, Note_on_c, 11, 69, 64
10, 269514, Note_off_c, 11, 69, 80
10, 269520, Note_on_c, 11, 69, 64
10, 269754, Note_off_c, 11, 69, 80
10, 269760, Note_on_c, 11, 73, 64
10, 269994, Note_off_c, 11, 73, 80
10, 270000, Note_on_c, 11, 69, 64
10, 270234, Note_off_c, 11, 69, 80
10, 270240, Note_on_c, 11, 69, 64
10, 270474, Note_off_c, 11, 69, 80
10, 270480, Note_on_c, 11, 74, 64
10, 270714, Note_off_c, 11, 74, 80
10, 270720, Note_on_c, 11, 66, 64
10, 270954, Note_off_c, 11, 66, 80
10, 270960, Note_on_c, 11, 66, 64
10, 271194, Note_off_c, 11, 66, 80
10, 271200, Note_on_c, 11, 66, 64
10, 271434, Note_off_c, 11, 66, 80
10, 271440, Note_on_c, 11, 66, 64
10, 271914, Note_off_c, 11, 66, 80
10, 271920, Note_on_c, 11, 74, 64
10, 272394, Note_off_c, 11, 74, 80
10, 272400, Note_on_c, 11, 73, 64
10, 272634, Note_off_c, 11, 73, 80
10, 272640, Note_on_c, 11, 73, 64
10, 272874, Note_off_c, 11, 73, 80
10, 272880, Note_on_c, 11, 69, 64
10, 273114, Note_off_c, 11, 69, 80
10, 273120, Note_on_c, 11, 69, 64
10, 273354, Note_off_c, 11, 69, 80
10, 273360, Note_on_c, 11, 69, 64
10, 273834, Note_off_c, 11, 69, 80
10, 273840, Note_on_c, 11, 73, 64
10, 274074, Note_off_c, 11, 73, 80
10, 274080, Note_on_c, 11, 69, 64
10, 274314, Note_off_c, 11, 69, 80
10, 274320, Note_on_c, 11, 73, 64
10, 274554, Note_off_c, 11, 73, 80
10, 274560, Note_on_c, 11, 66, 64
10, 274794, Note_off_c, 11, 66, 80
10, 274800, Note_on_c, 11, 66, 64
10, 275034, Note_off_c, 11, 66, 80
10, 275040, Note_on_c, 11, 66, 64
10, 275274, Note_off_c, 11, 66, 80
10, 275280, Note_on_c, 11, 66, 64
10, 275754, Note_off_c, 11, 66, 80
10, 275760, Note_on_c, 11, 74, 64
10, 276234, Note_off_c, 11, 74, 80
10, 276240, Note_on_c, 11, 73, 64
10, 276474, Note_off_c, 11, 73, 80
10, 276480, Note_on_c, 11, 73, 64
10, 276714, Note_off_c, 11, 73, 80
10, 276720, Note_on_c, 11, 69, 64
10, 276954, Note_off_c, 11, 69, 80
10, 276960, Note_on_c, 11, 69, 64
10, 277194, Note_off_c, 11, 69, 80
10, 277200, Note_on_c, 11, 69, 64
10, 277674, Note_off_c, 11, 69, 80
10, 277680, Note_on_c, 11, 73, 64
10, 277914, Note_off_c, 11, 73, 80
10, 277920, Note_on_c, 11, 69, 64
10, 278154, Note_off_c, 11, 69, 80
10, 278160, Note_on_c, 11, 71, 64
10, 278394, Note_off_c, 11, 71, 80
10, 278400, Note_on_c, 11, 71, 64
10, 278634, Note_off_c, 11, 71, 80
10, 278640, Note_on_c, 11, 59, 64
10, 278874, Note_off_c, 11, 59, 80
10, 278880, Note_on_c, 11, 59, 64
10, 279114, Note_off_c, 11, 59, 80
10, 279120, Note_on_c, 11, 71, 64
10, 279354, Note_off_c, 11, 71, 80
10, 279360, Note_on_c, 11, 59, 64
10, 279594, Note_off_c, 11, 59, 80
10, 279600, Note_on_c, 11, 59, 64
10, 279834, Note_off_c, 11, 59, 80
10, 279840, Note_on_c, 11, 71, 64
10, 280074, Note_off_c, 11, 71, 80
10, 280080, Note_on_c, 11, 59, 64
10, 280314, Note_off_c, 11, 59, 80
10, 280320, Note_on_c, 11, 59, 64
10, 280554, Note_off_c, 11, 59, 80
10, 280560, Note_on_c, 11, 71, 64
10, 280794, Note_off_c, 11, 71, 80
10, 280800, Note_on_c, 11, 59, 64
10, 281034, Note_off_c, 11, 59, 80
10, 281040, Note_on_c, 11, 59, 64
10, 281274, Note_off_c, 11, 59, 80
10, 281280, Note_on_c, 11, 71, 64
10, 281514, Note_off_c, 11, 71, 80
10, 281520, Note_on_c, 11, 59, 64
10, 281754, Note_off_c, 11, 59, 80
10, 281760, Note_on_c, 11, 59, 64
10, 281994, Note_off_c, 11, 59, 80
10, 282000, Note_on_c, 11, 71, 64
10, 282234, Note_off_c, 11, 71, 80
10, 282240, Note_on_c, 11, 59, 64
10, 282474, Note_off_c, 11, 59, 80
10, 282480, Note_on_c, 11, 59, 64
10, 282714, Note_off_c, 11, 59, 80
10, 282720, Note_on_c, 11, 59, 64
10, 282954, Note_off_c, 11, 59, 80
10, 282960, Note_on_c, 11, 71, 64
10, 283194, Note_off_c, 11, 71, 80
10, 283200, Note_on_c, 11, 71, 64
10, 283434, Note_off_c, 11, 71, 80
10, 283440, Note_on_c, 11, 71, 64
10, 283674, Note_off_c, 11, 71, 80
10, 283680, Note_on_c, 11, 59, 64
10, 283914, Note_off_c, 11, 59, 80
10, 283920, Note_on_c, 11, 71, 64
10, 284154, Note_off_c, 11, 71, 80
10, 284160, Note_on_c, 11, 71, 64
10, 284394, Note_off_c, 11, 71, 80
10, 284400, Note_on_c, 11, 71, 64
10, 284634, Note_off_c, 11, 71, 80
10, 284640, Note_on_c, 11, 59, 64
10, 284874, Note_off_c, 11, 59, 80
10, 284880, Note_on_c, 11, 71, 64
10, 285114, Note_off_c, 11, 71, 80
10, 285120, Note_on_c, 11, 59, 64
10, 285354, Note_off_c, 11, 59, 80
10, 285360, Note_on_c, 11, 59, 64
10, 285594, Note_off_c, 11, 59, 80
10, 285600, Note_on_c, 11, 73, 64
10, 285834, Note_off_c, 11, 73, 80
10, 285840, Note_on_c, 11, 70, 64
10, 286074, Note_off_c, 11, 70, 80
10, 286080, Note_on_c, 11, 70, 64
10, 286314, Note_off_c, 11, 70, 80
10, 286320, Note_on_c, 11, 73, 64
10, 286554, Note_off_c, 11, 73, 80
10, 286560, Note_on_c, 11, 70, 64
10, 286794, Note_off_c, 11, 70, 80
10, 286800, Note_on_c, 11, 70, 64
10, 287034, Note_off_c, 11, 70, 80
10, 287040, Note_on_c, 11, 73, 64
10, 287274, Note_off_c, 11, 73, 80
10, 287280, Note_on_c, 11, 70, 64
10, 287514, Note_off_c, 11, 70, 80
10, 287520, Note_on_c, 11, 70, 64
10, 287754, Note_off_c, 11, 70, 80
10, 287760, Note_on_c, 11, 73, 64
10, 287994, Note_off_c, 11, 73, 80
10, 288000, Note_on_c, 11, 70, 64
10, 288234, Note_off_c, 11, 70, 80
10, 288240, Note_on_c, 11, 70, 64
10, 288474, Note_off_c, 11, 70, 80
10, 288480, Note_on_c, 11, 73, 64
10, 288714, Note_off_c, 11, 73, 80
10, 288720, Note_on_c, 11, 70, 64
10, 288954, Note_off_c, 11, 70, 80
10, 288960, Note_on_c, 11, 70, 64
10, 289194, Note_off_c, 11, 70, 80
10, 289200, Note_on_c, 11, 73, 64
10, 289434, Note_off_c, 11, 73, 80
10, 289440, Note_on_c, 11, 70, 64
10, 289674, Note_off_c, 11, 70, 80
10, 289680, Note_on_c, 11, 69, 64
10, 289914, Note_off_c, 11, 69, 80
10, 289920, Note_on_c, 11, 73, 64
10, 290154, Note_off_c, 11, 73, 80
10, 290160, Note_on_c, 11, 69, 64
10, 290394, Note_off_c, 11, 69, 80
10, 290400, Note_on_c, 11, 69, 64
10, 290634, Note_off_c, 11, 69, 80
10, 290640, Note_on_c, 11, 73, 64
10, 290874, Note_off_c, 11, 73, 80
10, 290880, Note_on_c, 11, 69, 64
10, 291114, Note_off_c, 11, 69, 80
10, 291120, Note_on_c, 11, 69, 64
10, 291354, Note_off_c, 11, 69, 80
10, 291360, Note_on_c, 11, 73, 64
10, 291594, Note_off_c, 11, 73, 80
10, 291600, Note_on_c, 11, 69, 64
10, 291834, Note_off_c, 11, 69, 80
10, 291840, Note_on_c, 11, 69, 64
10, 292074, Note_off_c, 11, 69, 80
10, 292080, Note_on_c, 11, 73, 64
10, 292314, Note_off_c, 11, 73, 80
10, 292320, Note_on_c, 11, 69, 64
10, 292554, Note_off_c, 11, 69, 80
10, 292560, Note_on_c, 11, 69, 64
10, 292794, Note_off_c, 11, 69, 80
10, 292800, Note_on_c, 11, 73, 64
10, 293034, Note_off_c, 11, 73, 80
10, 293040, Note_on_c, 11, 69, 64
10, 293274, Note_off_c, 11, 69, 80
10, 293280, Note_on_c, 11, 69, 64
10, 293514, Note_off_c, 11, 69, 80
10, 293520, Note_on_c, 11, 74, 64
10, 293754, Note_off_c, 11, 74, 80
10, 293760, Note_on_c, 11, 66, 64
10, 293994, Note_off_c, 11, 66, 80
10, 294000, Note_on_c, 11, 66, 64
10, 294234, Note_off_c, 11, 66, 80
10, 294240, Note_on_c, 11, 66, 64
10, 294474, Note_off_c, 11, 66, 80
10, 294480, Note_on_c, 11, 66, 64
10, 294954, Note_off_c, 11, 66, 80
10, 294960, Note_on_c, 11, 74, 64
10, 295434, Note_off_c, 11, 74, 80
10, 295440, Note_on_c, 11, 73, 64
10, 295674, Note_off_c, 11, 73, 80
10, 295680, Note_on_c, 11, 73, 64
10, 295914, Note_off_c, 11, 73, 80
10, 295920, Note_on_c, 11, 69, 64
10, 296154, Note_off_c, 11, 69, 80
10, 296160, Note_on_c, 11, 69, 64
10, 296394, Note_off_c, 11, 69, 80
10, 296400, Note_on_c, 11, 69, 64
10, 296874, Note_off_c, 11, 69, 80
10, 296880, Note_on_c, 11, 73, 64
10, 297114, Note_off_c, 11, 73, 80
10, 297120, Note_on_c, 11, 69, 64
10, 297354, Note_off_c, 11, 69, 80
10, 297360, Note_on_c, 11, 73, 64
10, 297594, Note_off_c, 11, 73, 80
10, 297600, Note_on_c, 11, 66, 64
10, 297834, Note_off_c, 11, 66, 80
10, 297840, Note_on_c, 11, 66, 64
10, 298074, Note_off_c, 11, 66, 80
10, 298080, Note_on_c, 11, 66, 64
10, 298314, Note_off_c, 11, 66, 80
10, 298320, Note_on_c, 11, 66, 64
10, 298794, Note_off_c, 11, 66, 80
10, 298800, Note_on_c, 11, 74, 64
10, 299274, Note_off_c, 11, 74, 80
10, 299280, Note_on_c, 11, 73, 64
10, 299514, Note_off_c, 11, 73, 80
10, 299520, Note_on_c, 11, 73, 64
10, 299754, Note_off_c, 11, 73, 80
10, 299760, Note_on_c, 11, 69, 64
10, 299994, Note_off_c, 11, 69, 80
10, 300000, Note_on_c, 11, 69, 64
10, 300234, Note_off_c, 11, 69, 80
10, 300240, Note_on_c, 11, 69, 64
10, 300714, Note_off_c, 11, 69, 80
10, 300720, Note_on_c, 11, 73, 64
10, 300954, Note_off_c, 11, 73, 80
10, 300960, Note_on_c, 11, 69, 64
10, 301194, Note_off_c, 11, 69, 80
10, 301200, Note_on_c, 11, 71, 64
10, 301434, Note_off_c, 11, 71, 80
10, 301440, Note_on_c, 11, 71, 64
10, 301674, Note_off_c, 11, 71, 80
10, 301680, Note_on_c, 11, 59, 64
10, 301914, Note_off_c, 11, 59, 80
10, 301920, Note_on_c, 11, 59, 64
10, 302154, Note_off_c, 11, 59, 80
10, 302160, Note_on_c, 11, 71, 64
10, 302394, Note_off_c, 11, 71, 80
10, 302400, Note_on_c, 11, 59, 64
10, 302634, Note_off_c, 11, 59, 80
10, 302640, Note_on_c, 11, 59, 64
10, 302874, Note_off_c, 11, 59, 80
10, 302880, Note_on_c, 11, 71, 64
10, 303114, Note_off_c, 11, 71, 80
10, 303120, Note_on_c, 11, 59, 64
10, 303354, Note_off_c, 11, 59, 80
10, 303360, Note_on_c, 11, 59, 64
10, 303594, Note_off_c, 11, 59, 80
10, 303600, Note_on_c, 11, 71, 64
10, 303834, Note_off_c, 11, 71, 80
10, 303840, Note_on_c, 11, 59, 64
10, 304074, Note_off_c, 11, 59, 80
10, 304080, Note_on_c, 11, 59, 64
10, 304314, Note_off_c, 11, 59, 80
10, 304320, Note_on_c, 11, 71, 64
10, 304554, Note_off_c, 11, 71, 80
10, 304560, Note_on_c, 11, 59, 64
10, 304794, Note_off_c, 11, 59, 80
10, 304800, Note_on_c, 11, 59, 64
10, 305034, Note_off_c, 11, 59, 80
10, 305040, Note_on_c, 11, 71, 64
10, 305274, Note_off_c, 11, 71, 80
10, 305280, Note_on_c, 11, 71, 64
10, 305514, Note_off_c, 11, 71, 80
10, 305520, Note_on_c, 11, 59, 64
10, 305754, Note_off_c, 11, 59, 80
10, 305760, Note_on_c, 11, 59, 64
10, 305994, Note_off_c, 11, 59, 80
10, 306000, Note_on_c, 11, 71, 64
10, 306234, Note_off_c, 11, 71, 80
10, 306240, Note_on_c, 11, 59, 64
10, 306474, Note_off_c, 11, 59, 80
10, 306480, Note_on_c, 11, 59, 64
10, 306714, Note_off_c, 11, 59, 80
10, 306720, Note_on_c, 11, 71, 64
10, 306954, Note_off_c, 11, 71, 80
10, 306960, Note_on_c, 11, 59, 64
10, 307194, Note_off_c, 11, 59, 80
10, 307200, Note_on_c, 11, 59, 64
10, 307434, Note_off_c, 11, 59, 80
10, 307440, Note_on_c, 11, 71, 64
10, 307674, Note_off_c, 11, 71, 80
10, 307680, Note_on_c, 11, 59, 64
10, 307914, Note_off_c, 11, 59, 80
10, 307920, Note_on_c, 11, 59, 64
10, 308154, Note_off_c, 11, 59, 80
10, 308160, Note_on_c, 11, 71, 64
10, 308394, Note_off_c, 11, 71, 80
10, 308400, Note_on_c, 11, 59, 64
10, 308634, Note_off_c, 11, 59, 80
10, 308640, Note_on_c, 11, 59, 64
10, 308874, Note_off_c, 11, 59, 80
10, 308880, Note_on_c, 11, 71, 64
10, 309114, Note_off_c, 11, 71, 80
10, 309120, Note_on_c, 11, 71, 64
10, 309354, Note_off_c, 11, 71, 80
10, 309360, Note_on_c, 11, 59, 64
10, 309594, Note_off_c, 11, 59, 80
10, 309600, Note_on_c, 11, 59, 64
10, 309834, Note_off_c, 11, 59, 80
10, 309840, Note_on_c, 11, 71, 64
10, 310074, Note_off_c, 11, 71, 80
10, 310080, Note_on_c, 11, 59, 64
10, 310314, Note_off_c, 11, 59, 80
10, 310320, Note_on_c, 11, 59, 64
10, 310554, Note_off_c, 11, 59, 80
10, 310560, Note_on_c, 11, 71, 64
10, 310794, Note_off_c, 11, 71, 80
10, 310800, Note_on_c, 11, 59, 64
10, 311034, Note_off_c, 11, 59, 80
10, 311040, Note_on_c, 11, 59, 64
10, 311274, Note_off_c, 11, 59, 80
10, 311280, Note_on_c, 11, 71, 64
10, 311514, Note_off_c, 11, 71, 80
10, 311520, Note_on_c, 11, 59, 64
10, 311754, Note_off_c, 11, 59, 80
10, 311760, Note_on_c, 11, 59, 64
10, 311994, Note_off_c, 11, 59, 80
10, 312000, Note_on_c, 11, 71, 64
10, 312234, Note_off_c, 11, 71, 80
10, 312240, Note_on_c, 11, 59, 64
10, 312474, Note_off_c, 11, 59, 80
10, 312480, Note_on_c, 11, 59, 64
10, 312714, Note_off_c, 11, 59, 80
10, 312720, Note_on_c, 11, 71, 64
10, 312954, Note_off_c, 11, 71, 80
10, 312960, Note_on_c, 11, 71, 64
10, 313194, Note_off_c, 11, 71, 80
10, 313200, Note_on_c, 11, 59, 64
10, 313434, Note_off_c, 11, 59, 80
10, 313440, Note_on_c, 11, 59, 64
10, 313674, Note_off_c, 11, 59, 80
10, 313680, Note_on_c, 11, 71, 64
10, 313914, Note_off_c, 11, 71, 80
10, 313920, Note_on_c, 11, 59, 64
10, 314154, Note_off_c, 11, 59, 80
10, 314160, Note_on_c, 11, 59, 64
10, 314394, Note_off_c, 11, 59, 80
10, 314400, Note_on_c, 11, 71, 64
10, 314634, Note_off_c, 11, 71, 80
10, 314640, Note_on_c, 11, 59, 64
10, 314874, Note_off_c, 11, 59, 80
10, 314880, Note_on_c, 11, 59, 64
10, 315114, Note_off_c, 11, 59, 80
10, 315120, Note_on_c, 11, 71, 64
10, 315354, Note_off_c, 11, 71, 80
10, 315360, Note_on_c, 11, 59, 64
10, 315594, Note_off_c, 11, 59, 80
10, 315600, Note_on_c, 11, 59, 64
10, 315834, Note_off_c, 11, 59, 80
10, 315840, Note_on_c, 11, 71, 64
10, 316074, Note_off_c, 11, 71, 80
10, 316080, Note_on_c, 11, 59, 64
10, 316314, Note_off_c, 11, 59, 80
10, 316320, Note_on_c, 11, 59, 64
10, 316554, Note_off_c, 11, 59, 80
10, 316560, Note_on_c, 11, 71, 64
10, 316794, Note_off_c, 11, 71, 80
10, 316800, Note_on_c, 11, 71, 64
10, 320518, Note_off_c, 11, 71, 80
10, 320518, End_track
11, 0, Start_track
11, 0, Title_t, "Ed OBrien (El. Gtr Add)"
11, 1140, Control_c, 12, 121, 0
11, 1140, Control_c, 12, 123, 0
11, 1140, Control_c, 12, 100, 0
11, 1140, Control_c, 12, 38, 0
11, 1140, Control_c, 12, 101, 0
11, 1140, Control_c, 12, 6, 12
11, 1140, Pitch_bend_c, 12, 8192
11, 1200, Program_c, 12, 28
11, 1200, Control_c, 12, 7, 88
11, 1200, Control_c, 12, 10, 7
11, 148320, Note_on_c, 12, 50, 70
11, 148320, Note_on_c, 12, 54, 70
11, 148320, Note_on_c, 12, 57, 70
11, 148558, Note_off_c, 12, 50, 80
11, 148558, Note_off_c, 12, 54, 80
11, 148558, Note_off_c, 12, 57, 80
11, 148560, Note_on_c, 12, 50, 70
11, 148560, Note_on_c, 12, 54, 70
11, 148560, Note_on_c, 12, 57, 70
11, 148798, Note_off_c, 12, 50, 80
11, 148798, Note_off_c, 12, 54, 80
11, 148798, Note_off_c, 12, 57, 80
11, 148800, Note_on_c, 12, 50, 70
11, 148800, Note_on_c, 12, 54, 70
11, 148800, Note_on_c, 12, 57, 70
11, 149038, Note_off_c, 12, 50, 80
11, 149038, Note_off_c, 12, 54, 80
11, 149038, Note_off_c, 12, 57, 80
11, 149040, Note_on_c, 12, 50, 70
11, 149040, Note_on_c, 12, 54, 70
11, 149040, Note_on_c, 12, 57, 70
11, 149518, Note_off_c, 12, 50, 80
11, 149518, Note_off_c, 12, 54, 80
11, 149518, Note_off_c, 12, 57, 80
11, 149520, Note_on_c, 12, 50, 89
11, 149520, Note_on_c, 12, 54, 89
11, 149520, Note_on_c, 12, 57, 89
11, 149998, Note_off_c, 12, 50, 80
11, 149998, Note_off_c, 12, 54, 80
11, 149998, Note_off_c, 12, 57, 80
11, 150000, Note_on_c, 12, 50, 89
11, 150000, Note_on_c, 12, 54, 89
11, 150000, Note_on_c, 12, 59, 89
11, 150478, Note_off_c, 12, 50, 80
11, 150478, Note_off_c, 12, 54, 80
11, 150478, Note_off_c, 12, 59, 80
11, 150480, Note_on_c, 12, 50, 89
11, 150480, Note_on_c, 12, 54, 89
11, 150958, Note_off_c, 12, 50, 80
11, 150958, Note_off_c, 12, 54, 80
11, 150960, Note_on_c, 12, 52, 89
11, 151438, Note_off_c, 12, 52, 80
11, 151440, Note_on_c, 12, 50, 89
11, 151440, Note_on_c, 12, 54, 89
11, 152158, Note_off_c, 12, 50, 80
11, 152158, Note_off_c, 12, 54, 80
11, 152160, Note_on_c, 12, 50, 70
11, 152160, Note_on_c, 12, 54, 70
11, 152160, Note_on_c, 12, 57, 70
11, 152398, Note_off_c, 12, 50, 80
11, 152398, Note_off_c, 12, 54, 80
11, 152398, Note_off_c, 12, 57, 80
11, 152400, Note_on_c, 12, 50, 70
11, 152400, Note_on_c, 12, 54, 70
11, 152400, Note_on_c, 12, 57, 70
11, 152638, Note_off_c, 12, 50, 80
11, 152638, Note_off_c, 12, 54, 80
11, 152638, Note_off_c, 12, 57, 80
11, 152640, Note_on_c, 12, 50, 70
11, 152640, Note_on_c, 12, 54, 70
11, 152640, Note_on_c, 12, 57, 70
11, 152878, Note_off_c, 12, 50, 80
11, 152878, Note_off_c, 12, 54, 80
11, 152878, Note_off_c, 12, 57, 80
11, 152880, Note_on_c, 12, 50, 70
11, 152880, Note_on_c, 12, 54, 70
11, 152880, Note_on_c, 12, 57, 70
11, 153358, Note_off_c, 12, 50, 80
11, 153358, Note_off_c, 12, 54, 80
11, 153358, Note_off_c, 12, 57, 80
11, 153360, Note_on_c, 12, 50, 89
11, 153360, Note_on_c, 12, 54, 89
11, 153360, Note_on_c, 12, 57, 89
11, 153838, Note_off_c, 12, 50, 80
11, 153838, Note_off_c, 12, 54, 80
11, 153838, Note_off_c, 12, 57, 80
11, 153840, Note_on_c, 12, 50, 89
11, 153840, Note_on_c, 12, 54, 89
11, 153840, Note_on_c, 12, 59, 89
11, 154318, Note_off_c, 12, 50, 80
11, 154318, Note_off_c, 12, 54, 80
11, 154318, Note_off_c, 12, 59, 80
11, 154320, Note_on_c, 12, 61, 89
11, 154798, Note_off_c, 12, 61, 80
11, 154800, Note_on_c, 12, 62, 89
11, 155278, Note_off_c, 12, 62, 80
11, 155280, Note_on_c, 12, 54, 89
11, 155280, Note_on_c, 12, 59, 89
11, 155998, Note_off_c, 12, 54, 80
11, 155998, Note_off_c, 12, 59, 80
11, 156000, Note_on_c, 12, 50, 70
11, 156000, Note_on_c, 12, 54, 70
11, 156000, Note_on_c, 12, 57, 70
11, 156238, Note_off_c, 12, 50, 80
11, 156238, Note_off_c, 12, 54, 80
11, 156238, Note_off_c, 12, 57, 80
11, 156240, Note_on_c, 12, 50, 70
11, 156240, Note_on_c, 12, 54, 70
11, 156240, Note_on_c, 12, 57, 70
11, 156478, Note_off_c, 12, 50, 80
11, 156478, Note_off_c, 12, 54, 80
11, 156478, Note_off_c, 12, 57, 80
11, 156480, Note_on_c, 12, 50, 70
11, 156480, Note_on_c, 12, 54, 70
11, 156480, Note_on_c, 12, 57, 70
11, 156718, Note_off_c, 12, 50, 80
11, 156718, Note_off_c, 12, 54, 80
11, 156718, Note_off_c, 12, 57, 80
11, 156720, Note_on_c, 12, 50, 70
11, 156720, Note_on_c, 12, 54, 70
11, 156720, Note_on_c, 12, 57, 70
11, 157198, Note_off_c, 12, 50, 80
11, 157198, Note_off_c, 12, 54, 80
11, 157198, Note_off_c, 12, 57, 80
11, 157200, Note_on_c, 12, 50, 89
11, 157200, Note_on_c, 12, 54, 89
11, 157200, Note_on_c, 12, 57, 89
11, 157678, Note_off_c, 12, 50, 80
11, 157678, Note_off_c, 12, 54, 80
11, 157678, Note_off_c, 12, 57, 80
11, 157680, Note_on_c, 12, 50, 89
11, 157680, Note_on_c, 12, 54, 89
11, 157680, Note_on_c, 12, 59, 89
11, 158158, Note_off_c, 12, 50, 80
11, 158158, Note_off_c, 12, 54, 80
11, 158158, Note_off_c, 12, 59, 80
11, 158160, Note_on_c, 12, 50, 89
11, 158160, Note_on_c, 12, 54, 89
11, 158638, Note_off_c, 12, 50, 80
11, 158638, Note_off_c, 12, 54, 80
11, 158640, Note_on_c, 12, 52, 89
11, 159118, Note_off_c, 12, 52, 80
11, 159120, Note_on_c, 12, 50, 89
11, 159120, Note_on_c, 12, 54, 89
11, 159838, Note_off_c, 12, 50, 80
11, 159838, Note_off_c, 12, 54, 80
11, 159840, Note_on_c, 12, 50, 70
11, 159840, Note_on_c, 12, 54, 70
11, 159840, Note_on_c, 12, 57, 70
11, 160078, Note_off_c, 12, 50, 80
11, 160078, Note_off_c, 12, 54, 80
11, 160078, Note_off_c, 12, 57, 80
11, 160080, Note_on_c, 12, 50, 70
11, 160080, Note_on_c, 12, 54, 70
11, 160080, Note_on_c, 12, 57, 70
11, 160318, Note_off_c, 12, 50, 80
11, 160318, Note_off_c, 12, 54, 80
11, 160318, Note_off_c, 12, 57, 80
11, 160320, Note_on_c, 12, 50, 70
11, 160320, Note_on_c, 12, 54, 70
11, 160320, Note_on_c, 12, 57, 70
11, 160558, Note_off_c, 12, 50, 80
11, 160558, Note_off_c, 12, 54, 80
11, 160558, Note_off_c, 12, 57, 80
11, 160560, Note_on_c, 12, 50, 70
11, 160560, Note_on_c, 12, 54, 70
11, 160560, Note_on_c, 12, 57, 70
11, 161038, Note_off_c, 12, 50, 80
11, 161038, Note_off_c, 12, 54, 80
11, 161038, Note_off_c, 12, 57, 80
11, 161040, Note_on_c, 12, 50, 89
11, 161040, Note_on_c, 12, 54, 89
11, 161040, Note_on_c, 12, 57, 89
11, 161518, Note_off_c, 12, 50, 80
11, 161518, Note_off_c, 12, 54, 80
11, 161518, Note_off_c, 12, 57, 80
11, 161520, Note_on_c, 12, 50, 89
11, 161520, Note_on_c, 12, 54, 89
11, 161520, Note_on_c, 12, 59, 89
11, 161998, Note_off_c, 12, 50, 80
11, 161998, Note_off_c, 12, 54, 80
11, 161998, Note_off_c, 12, 59, 80
11, 162000, Note_on_c, 12, 61, 89
11, 162478, Note_off_c, 12, 61, 80
11, 162480, Note_on_c, 12, 62, 89
11, 162958, Note_off_c, 12, 62, 80
11, 162960, Note_on_c, 12, 54, 89
11, 162960, Note_on_c, 12, 59, 89
11, 163198, Note_off_c, 12, 54, 80
11, 163198, Note_off_c, 12, 59, 80
11, 163680, Note_on_c, 12, 50, 70
11, 163680, Note_on_c, 12, 54, 70
11, 163680, Note_on_c, 12, 57, 70
11, 163918, Note_off_c, 12, 50, 80
11, 163918, Note_off_c, 12, 54, 80
11, 163918, Note_off_c, 12, 57, 80
11, 163920, Note_on_c, 12, 50, 70
11, 163920, Note_on_c, 12, 54, 70
11, 163920, Note_on_c, 12, 57, 70
11, 164158, Note_off_c, 12, 50, 80
11, 164158, Note_off_c, 12, 54, 80
11, 164158, Note_off_c, 12, 57, 80
11, 164160, Note_on_c, 12, 50, 70
11, 164160, Note_on_c, 12, 54, 70
11, 164160, Note_on_c, 12, 57, 70
11, 164398, Note_off_c, 12, 50, 80
11, 164398, Note_off_c, 12, 54, 80
11, 164398, Note_off_c, 12, 57, 80
11, 164400, Note_on_c, 12, 50, 70
11, 164400, Note_on_c, 12, 54, 70
11, 164400, Note_on_c, 12, 57, 70
11, 164878, Note_off_c, 12, 50, 80
11, 164878, Note_off_c, 12, 54, 80
11, 164878, Note_off_c, 12, 57, 80
11, 164880, Note_on_c, 12, 50, 89
11, 164880, Note_on_c, 12, 54, 89
11, 164880, Note_on_c, 12, 57, 89
11, 165358, Note_off_c, 12, 50, 80
11, 165358, Note_off_c, 12, 54, 80
11, 165358, Note_off_c, 12, 57, 80
11, 165360, Note_on_c, 12, 50, 89
11, 165360, Note_on_c, 12, 54, 89
11, 165360, Note_on_c, 12, 59, 89
11, 165838, Note_off_c, 12, 50, 80
11, 165838, Note_off_c, 12, 54, 80
11, 165838, Note_off_c, 12, 59, 80
11, 165840, Note_on_c, 12, 50, 89
11, 165840, Note_on_c, 12, 54, 89
11, 166318, Note_off_c, 12, 50, 80
11, 166318, Note_off_c, 12, 54, 80
11, 166320, Note_on_c, 12, 52, 89
11, 166798, Note_off_c, 12, 52, 80
11, 166800, Note_on_c, 12, 50, 89
11, 166800, Note_on_c, 12, 54, 89
11, 167518, Note_off_c, 12, 50, 80
11, 167518, Note_off_c, 12, 54, 80
11, 167520, Note_on_c, 12, 50, 70
11, 167520, Note_on_c, 12, 54, 70
11, 167520, Note_on_c, 12, 57, 70
11, 167758, Note_off_c, 12, 50, 80
11, 167758, Note_off_c, 12, 54, 80
11, 167758, Note_off_c, 12, 57, 80
11, 167760, Note_on_c, 12, 50, 70
11, 167760, Note_on_c, 12, 54, 70
11, 167760, Note_on_c, 12, 57, 70
11, 167998, Note_off_c, 12, 50, 80
11, 167998, Note_off_c, 12, 54, 80
11, 167998, Note_off_c, 12, 57, 80
11, 168000, Note_on_c, 12, 50, 70
11, 168000, Note_on_c, 12, 54, 70
11, 168000, Note_on_c, 12, 57, 70
11, 168238, Note_off_c, 12, 50, 80
11, 168238, Note_off_c, 12, 54, 80
11, 168238, Note_off_c, 12, 57, 80
11, 168240, Note_on_c, 12, 50, 70
11, 168240, Note_on_c, 12, 54, 70
11, 168240, Note_on_c, 12, 57, 70
11, 168718, Note_off_c, 12, 50, 80
11, 168718, Note_off_c, 12, 54, 80
11, 168718, Note_off_c, 12, 57, 80
11, 168720, Note_on_c, 12, 50, 89
11, 168720, Note_on_c, 12, 54, 89
11, 168720, Note_on_c, 12, 57, 89
11, 169198, Note_off_c, 12, 50, 80
11, 169198, Note_off_c, 12, 54, 80
11, 169198, Note_off_c, 12, 57, 80
11, 169200, Note_on_c, 12, 50, 89
11, 169200, Note_on_c, 12, 54, 89
11, 169200, Note_on_c, 12, 59, 89
11, 169678, Note_off_c, 12, 50, 80
11, 169678, Note_off_c, 12, 54, 80
11, 169678, Note_off_c, 12, 59, 80
11, 169680, Note_on_c, 12, 61, 89
11, 170158, Note_off_c, 12, 61, 80
11, 170160, Note_on_c, 12, 62, 89
11, 170638, Note_off_c, 12, 62, 80
11, 170640, Note_on_c, 12, 54, 89
11, 170640, Note_on_c, 12, 59, 89
11, 170878, Note_off_c, 12, 54, 80
11, 170878, Note_off_c, 12, 59, 80
11, 232320, Control_c, 12, 7, 92
11, 232320, Note_on_c, 12, 59, 89
11, 232558, Note_off_c, 12, 59, 80
11, 232560, Note_on_c, 12, 66, 89
11, 232798, Note_off_c, 12, 66, 80
11, 232800, Note_on_c, 12, 59, 89
11, 233038, Note_off_c, 12, 59, 80
11, 233040, Note_on_c, 12, 66, 89
11, 233278, Note_off_c, 12, 66, 80
11, 233280, Note_on_c, 12, 59, 89
11, 233518, Note_off_c, 12, 59, 80
11, 233520, Note_on_c, 12, 59, 89
11, 233758, Note_off_c, 12, 59, 80
11, 233760, Note_on_c, 12, 66, 89
11, 233998, Note_off_c, 12, 66, 80
11, 234000, Note_on_c, 12, 59, 89
11, 234238, Note_off_c, 12, 59, 80
11, 234240, Note_on_c, 12, 66, 89
11, 234478, Note_off_c, 12, 66, 80
11, 234480, Note_on_c, 12, 66, 89
11, 234718, Note_off_c, 12, 66, 80
11, 234720, Note_on_c, 12, 59, 89
11, 234958, Note_off_c, 12, 59, 80
11, 234960, Note_on_c, 12, 66, 89
11, 235198, Note_off_c, 12, 66, 80
11, 235200, Note_on_c, 12, 66, 89
11, 235438, Note_off_c, 12, 66, 80
11, 235440, Note_on_c, 12, 59, 89
11, 235678, Note_off_c, 12, 59, 80
11, 235680, Note_on_c, 12, 59, 89
11, 235918, Note_off_c, 12, 59, 80
11, 235920, Note_on_c, 12, 66, 89
11, 236158, Note_off_c, 12, 66, 80
11, 236160, Note_on_c, 12, 66, 89
11, 236398, Note_off_c, 12, 66, 80
11, 236400, Note_on_c, 12, 59, 89
11, 236638, Note_off_c, 12, 59, 80
11, 236640, Note_on_c, 12, 59, 89
11, 236878, Note_off_c, 12, 59, 80
11, 236880, Note_on_c, 12, 66, 89
11, 237118, Note_off_c, 12, 66, 80
11, 237120, Note_on_c, 12, 66, 89
11, 237358, Note_off_c, 12, 66, 80
11, 237360, Note_on_c, 12, 59, 89
11, 237598, Note_off_c, 12, 59, 80
11, 237600, Note_on_c, 12, 59, 89
11, 237838, Note_off_c, 12, 59, 80
11, 237840, Note_on_c, 12, 66, 89
11, 238078, Note_off_c, 12, 66, 80
11, 238080, Note_on_c, 12, 66, 89
11, 238318, Note_off_c, 12, 66, 80
11, 238320, Note_on_c, 12, 59, 89
11, 238558, Note_off_c, 12, 59, 80
11, 238560, Note_on_c, 12, 66, 89
11, 238798, Note_off_c, 12, 66, 80
11, 238800, Note_on_c, 12, 66, 89
11, 239038, Note_off_c, 12, 66, 80
11, 239040, Note_on_c, 12, 66, 89
11, 239278, Note_off_c, 12, 66, 80
11, 239280, Note_on_c, 12, 59, 89
11, 239518, Note_off_c, 12, 59, 80
11, 239520, Note_on_c, 12, 66, 89
11, 239758, Note_off_c, 12, 66, 80
11, 239760, Note_on_c, 12, 66, 89
11, 239998, Note_off_c, 12, 66, 80
11, 240000, Note_on_c, 12, 59, 89
11, 240238, Note_off_c, 12, 59, 80
11, 240240, Note_on_c, 12, 66, 89
11, 240478, Note_off_c, 12, 66, 80
11, 240480, Note_on_c, 12, 59, 89
11, 240718, Note_off_c, 12, 59, 80
11, 240720, Note_on_c, 12, 66, 89
11, 240958, Note_off_c, 12, 66, 80
11, 240960, Note_on_c, 12, 59, 89
11, 241198, Note_off_c, 12, 59, 80
11, 241200, Note_on_c, 12, 59, 89
11, 241438, Note_off_c, 12, 59, 80
11, 241440, Note_on_c, 12, 66, 89
11, 241678, Note_off_c, 12, 66, 80
11, 241680, Note_on_c, 12, 59, 89
11, 241918, Note_off_c, 12, 59, 80
11, 241920, Note_on_c, 12, 66, 89
11, 242158, Note_off_c, 12, 66, 80
11, 242160, Note_on_c, 12, 66, 89
11, 242398, Note_off_c, 12, 66, 80
11, 242400, Note_on_c, 12, 59, 89
11, 242638, Note_off_c, 12, 59, 80
11, 242640, Note_on_c, 12, 66, 89
11, 242878, Note_off_c, 12, 66, 80
11, 242880, Note_on_c, 12, 66, 89
11, 243118, Note_off_c, 12, 66, 80
11, 243120, Note_on_c, 12, 59, 89
11, 243358, Note_off_c, 12, 59, 80
11, 243360, Note_on_c, 12, 59, 89
11, 243598, Note_off_c, 12, 59, 80
11, 243600, Note_on_c, 12, 66, 89
11, 243838, Note_off_c, 12, 66, 80
11, 243840, Note_on_c, 12, 66, 89
11, 244078, Note_off_c, 12, 66, 80
11, 244080, Note_on_c, 12, 59, 89
11, 244318, Note_off_c, 12, 59, 80
11, 244320, Note_on_c, 12, 59, 89
11, 244558, Note_off_c, 12, 59, 80
11, 244560, Note_on_c, 12, 66, 89
11, 244798, Note_off_c, 12, 66, 80
11, 244800, Note_on_c, 12, 66, 89
11, 245038, Note_off_c, 12, 66, 80
11, 245040, Note_on_c, 12, 59, 89
11, 245278, Note_off_c, 12, 59, 80
11, 245280, Note_on_c, 12, 59, 89
11, 245518, Note_off_c, 12, 59, 80
11, 245520, Note_on_c, 12, 66, 89
11, 245758, Note_off_c, 12, 66, 80
11, 245760, Note_on_c, 12, 66, 89
11, 245998, Note_off_c, 12, 66, 80
11, 246000, Note_on_c, 12, 59, 89
11, 246238, Note_off_c, 12, 59, 80
11, 246240, Note_on_c, 12, 66, 89
11, 246478, Note_off_c, 12, 66, 80
11, 246480, Note_on_c, 12, 66, 89
11, 246718, Note_off_c, 12, 66, 80
11, 246720, Note_on_c, 12, 66, 89
11, 246958, Note_off_c, 12, 66, 80
11, 246960, Note_on_c, 12, 59, 89
11, 247198, Note_off_c, 12, 59, 80
11, 247200, Note_on_c, 12, 66, 89
11, 247438, Note_off_c, 12, 66, 80
11, 247440, Note_on_c, 12, 66, 89
11, 247678, Note_off_c, 12, 66, 80
11, 247680, Note_on_c, 12, 59, 89
11, 247918, Note_off_c, 12, 59, 80
11, 247920, Note_on_c, 12, 66, 89
11, 248158, Note_off_c, 12, 66, 80
11, 248160, Note_on_c, 12, 59, 89
11, 248398, Note_off_c, 12, 59, 80
11, 248400, Note_on_c, 12, 66, 89
11, 248638, Note_off_c, 12, 66, 80
11, 248640, Note_on_c, 12, 59, 89
11, 248878, Note_off_c, 12, 59, 80
11, 248880, Note_on_c, 12, 59, 89
11, 249118, Note_off_c, 12, 59, 80
11, 249120, Note_on_c, 12, 66, 89
11, 249358, Note_off_c, 12, 66, 80
11, 249360, Note_on_c, 12, 59, 89
11, 249598, Note_off_c, 12, 59, 80
11, 249600, Note_on_c, 12, 66, 89
11, 249838, Note_off_c, 12, 66, 80
11, 249840, Note_on_c, 12, 66, 89
11, 250078, Note_off_c, 12, 66, 80
11, 250080, Note_on_c, 12, 59, 89
11, 250318, Note_off_c, 12, 59, 80
11, 250320, Note_on_c, 12, 66, 89
11, 250558, Note_off_c, 12, 66, 80
11, 250560, Note_on_c, 12, 66, 89
11, 250798, Note_off_c, 12, 66, 80
11, 250800, Note_on_c, 12, 59, 89
11, 251038, Note_off_c, 12, 59, 80
11, 251040, Note_on_c, 12, 59, 89
11, 251278, Note_off_c, 12, 59, 80
11, 251280, Note_on_c, 12, 66, 89
11, 251518, Note_off_c, 12, 66, 80
11, 251520, Note_on_c, 12, 66, 89
11, 251758, Note_off_c, 12, 66, 80
11, 251760, Note_on_c, 12, 59, 89
11, 251998, Note_off_c, 12, 59, 80
11, 252000, Note_on_c, 12, 59, 89
11, 252238, Note_off_c, 12, 59, 80
11, 252240, Note_on_c, 12, 66, 89
11, 252478, Note_off_c, 12, 66, 80
11, 252480, Note_on_c, 12, 66, 89
11, 252718, Note_off_c, 12, 66, 80
11, 252720, Note_on_c, 12, 59, 89
11, 252958, Note_off_c, 12, 59, 80
11, 252960, Note_on_c, 12, 59, 89
11, 253198, Note_off_c, 12, 59, 80
11, 253200, Note_on_c, 12, 66, 89
11, 253438, Note_off_c, 12, 66, 80
11, 253440, Note_on_c, 12, 66, 89
11, 253678, Note_off_c, 12, 66, 80
11, 253680, Note_on_c, 12, 59, 89
11, 253918, Note_off_c, 12, 59, 80
11, 253920, Note_on_c, 12, 66, 89
11, 254158, Note_off_c, 12, 66, 80
11, 254160, Note_on_c, 12, 66, 89
11, 254398, Note_off_c, 12, 66, 80
11, 254400, Note_on_c, 12, 66, 89
11, 254638, Note_off_c, 12, 66, 80
11, 254640, Note_on_c, 12, 59, 89
11, 254878, Note_off_c, 12, 59, 80
11, 254880, Note_on_c, 12, 66, 89
11, 255118, Note_off_c, 12, 66, 80
11, 255120, Note_on_c, 12, 66, 89
11, 255358, Note_off_c, 12, 66, 80
11, 255360, Note_on_c, 12, 59, 89
11, 255598, Note_off_c, 12, 59, 80
11, 255600, Note_on_c, 12, 66, 89
11, 255838, Note_off_c, 12, 66, 80
11, 255840, Note_on_c, 12, 59, 89
11, 256078, Note_off_c, 12, 59, 80
11, 256080, Note_on_c, 12, 66, 89
11, 256318, Note_off_c, 12, 66, 80
11, 256320, Note_on_c, 12, 59, 89
11, 256558, Note_off_c, 12, 59, 80
11, 256560, Note_on_c, 12, 59, 89
11, 256798, Note_off_c, 12, 59, 80
11, 256800, Note_on_c, 12, 66, 89
11, 257038, Note_off_c, 12, 66, 80
11, 257040, Note_on_c, 12, 59, 89
11, 257278, Note_off_c, 12, 59, 80
11, 257280, Note_on_c, 12, 66, 89
11, 257518, Note_off_c, 12, 66, 80
11, 257520, Note_on_c, 12, 66, 89
11, 257758, Note_off_c, 12, 66, 80
11, 257760, Note_on_c, 12, 59, 89
11, 257998, Note_off_c, 12, 59, 80
11, 258000, Note_on_c, 12, 66, 89
11, 258238, Note_off_c, 12, 66, 80
11, 258240, Note_on_c, 12, 66, 89
11, 258478, Note_off_c, 12, 66, 80
11, 258480, Note_on_c, 12, 59, 89
11, 258718, Note_off_c, 12, 59, 80
11, 258720, Note_on_c, 12, 59, 89
11, 258958, Note_off_c, 12, 59, 80
11, 258960, Note_on_c, 12, 66, 89
11, 259198, Note_off_c, 12, 66, 80
11, 259200, Note_on_c, 12, 66, 89
11, 259438, Note_off_c, 12, 66, 80
11, 259440, Note_on_c, 12, 59, 89
11, 259678, Note_off_c, 12, 59, 80
11, 259680, Note_on_c, 12, 59, 89
11, 259918, Note_off_c, 12, 59, 80
11, 259920, Note_on_c, 12, 66, 89
11, 260158, Note_off_c, 12, 66, 80
11, 260160, Note_on_c, 12, 66, 89
11, 260398, Note_off_c, 12, 66, 80
11, 260400, Note_on_c, 12, 59, 89
11, 260638, Note_off_c, 12, 59, 80
11, 260640, Note_on_c, 12, 59, 89
11, 260878, Note_off_c, 12, 59, 80
11, 260880, Note_on_c, 12, 66, 89
11, 261118, Note_off_c, 12, 66, 80
11, 261120, Note_on_c, 12, 66, 89
11, 261358, Note_off_c, 12, 66, 80
11, 261360, Note_on_c, 12, 59, 89
11, 261598, Note_off_c, 12, 59, 80
11, 261600, Note_on_c, 12, 66, 89
11, 261838, Note_off_c, 12, 66, 80
11, 261840, Note_on_c, 12, 66, 89
11, 262078, Note_off_c, 12, 66, 80
11, 262080, Note_on_c, 12, 66, 89
11, 262318, Note_off_c, 12, 66, 80
11, 262320, Note_on_c, 12, 59, 89
11, 262558, Note_off_c, 12, 59, 80
11, 262560, Note_on_c, 12, 66, 89
11, 262798, Note_off_c, 12, 66, 80
11, 262800, Note_on_c, 12, 66, 89
11, 263038, Note_off_c, 12, 66, 80
11, 263040, Note_on_c, 12, 59, 89
11, 263278, Note_off_c, 12, 59, 80
11, 263280, Note_on_c, 12, 66, 89
11, 263518, Note_off_c, 12, 66, 80
11, 263520, Note_on_c, 12, 59, 89
11, 263758, Note_off_c, 12, 59, 80
11, 263760, Note_on_c, 12, 66, 89
11, 263998, Note_off_c, 12, 66, 80
11, 264000, Note_on_c, 12, 59, 89
11, 264238, Note_off_c, 12, 59, 80
11, 264240, Note_on_c, 12, 59, 89
11, 264478, Note_off_c, 12, 59, 80
11, 264480, Note_on_c, 12, 66, 89
11, 264718, Note_off_c, 12, 66, 80
11, 264720, Note_on_c, 12, 59, 89
11, 264958, Note_off_c, 12, 59, 80
11, 264960, Note_on_c, 12, 66, 89
11, 265198, Note_off_c, 12, 66, 80
11, 265200, Note_on_c, 12, 66, 89
11, 265438, Note_off_c, 12, 66, 80
11, 265440, Note_on_c, 12, 59, 89
11, 265678, Note_off_c, 12, 59, 80
11, 265680, Note_on_c, 12, 66, 89
11, 265918, Note_off_c, 12, 66, 80
11, 265920, Note_on_c, 12, 66, 89
11, 266158, Note_off_c, 12, 66, 80
11, 266160, Note_on_c, 12, 59, 89
11, 266398, Note_off_c, 12, 59, 80
11, 266400, Note_on_c, 12, 59, 89
11, 266638, Note_off_c, 12, 59, 80
11, 266640, Note_on_c, 12, 66, 89
11, 266878, Note_off_c, 12, 66, 80
11, 266880, Note_on_c, 12, 66, 89
11, 267118, Note_off_c, 12, 66, 80
11, 267120, Note_on_c, 12, 59, 89
11, 267358, Note_off_c, 12, 59, 80
11, 267360, Note_on_c, 12, 59, 89
11, 267598, Note_off_c, 12, 59, 80
11, 267600, Note_on_c, 12, 66, 89
11, 267838, Note_off_c, 12, 66, 80
11, 267840, Note_on_c, 12, 66, 89
11, 268078, Note_off_c, 12, 66, 80
11, 268080, Note_on_c, 12, 59, 89
11, 268318, Note_off_c, 12, 59, 80
11, 268320, Note_on_c, 12, 59, 89
11, 268558, Note_off_c, 12, 59, 80
11, 268560, Note_on_c, 12, 66, 89
11, 268798, Note_off_c, 12, 66, 80
11, 268800, Note_on_c, 12, 66, 89
11, 269038, Note_off_c, 12, 66, 80
11, 269040, Note_on_c, 12, 59, 89
11, 269278, Note_off_c, 12, 59, 80
11, 269280, Note_on_c, 12, 66, 89
11, 269518, Note_off_c, 12, 66, 80
11, 269520, Note_on_c, 12, 66, 89
11, 269758, Note_off_c, 12, 66, 80
11, 269760, Note_on_c, 12, 66, 89
11, 269998, Note_off_c, 12, 66, 80
11, 270000, Note_on_c, 12, 59, 89
11, 270238, Note_off_c, 12, 59, 80
11, 270240, Note_on_c, 12, 66, 89
11, 270478, Note_off_c, 12, 66, 80
11, 270480, Note_on_c, 12, 66, 89
11, 270718, Note_off_c, 12, 66, 80
11, 270720, Note_on_c, 12, 59, 89
11, 270958, Note_off_c, 12, 59, 80
11, 270960, Note_on_c, 12, 66, 89
11, 271198, Note_off_c, 12, 66, 80
11, 271200, Note_on_c, 12, 59, 89
11, 271438, Note_off_c, 12, 59, 80
11, 271440, Note_on_c, 12, 66, 89
11, 271678, Note_off_c, 12, 66, 80
11, 271680, Note_on_c, 12, 59, 89
11, 271918, Note_off_c, 12, 59, 80
11, 271920, Note_on_c, 12, 59, 89
11, 272158, Note_off_c, 12, 59, 80
11, 272160, Note_on_c, 12, 66, 89
11, 272398, Note_off_c, 12, 66, 80
11, 272400, Note_on_c, 12, 59, 89
11, 272638, Note_off_c, 12, 59, 80
11, 272640, Note_on_c, 12, 66, 89
11, 272878, Note_off_c, 12, 66, 80
11, 272880, Note_on_c, 12, 66, 89
11, 273118, Note_off_c, 12, 66, 80
11, 273120, Note_on_c, 12, 59, 89
11, 273358, Note_off_c, 12, 59, 80
11, 273360, Note_on_c, 12, 66, 89
11, 273598, Note_off_c, 12, 66, 80
11, 273600, Note_on_c, 12, 66, 89
11, 273838, Note_off_c, 12, 66, 80
11, 273840, Note_on_c, 12, 59, 89
11, 274078, Note_off_c, 12, 59, 80
11, 274080, Note_on_c, 12, 59, 89
11, 274318, Note_off_c, 12, 59, 80
11, 274320, Note_on_c, 12, 66, 89
11, 274558, Note_off_c, 12, 66, 80
11, 274560, Note_on_c, 12, 66, 89
11, 274798, Note_off_c, 12, 66, 80
11, 274800, Note_on_c, 12, 59, 89
11, 275038, Note_off_c, 12, 59, 80
11, 275040, Note_on_c, 12, 59, 89
11, 275278, Note_off_c, 12, 59, 80
11, 275280, Note_on_c, 12, 66, 89
11, 275518, Note_off_c, 12, 66, 80
11, 275520, Note_on_c, 12, 66, 89
11, 275758, Note_off_c, 12, 66, 80
11, 275760, Note_on_c, 12, 59, 89
11, 275998, Note_off_c, 12, 59, 80
11, 276000, Note_on_c, 12, 59, 89
11, 276238, Note_off_c, 12, 59, 80
11, 276240, Note_on_c, 12, 66, 89
11, 276478, Note_off_c, 12, 66, 80
11, 276480, Note_on_c, 12, 66, 89
11, 276718, Note_off_c, 12, 66, 80
11, 276720, Note_on_c, 12, 59, 89
11, 276958, Note_off_c, 12, 59, 80
11, 276960, Note_on_c, 12, 66, 89
11, 277198, Note_off_c, 12, 66, 80
11, 277200, Note_on_c, 12, 66, 89
11, 277438, Note_off_c, 12, 66, 80
11, 277440, Note_on_c, 12, 66, 89
11, 277678, Note_off_c, 12, 66, 80
11, 277680, Note_on_c, 12, 59, 89
11, 277918, Note_off_c, 12, 59, 80
11, 277920, Note_on_c, 12, 66, 89
11, 278158, Note_off_c, 12, 66, 80
11, 278160, Note_on_c, 12, 66, 89
11, 278398, Note_off_c, 12, 66, 80
11, 278400, Note_on_c, 12, 59, 89
11, 278638, Note_off_c, 12, 59, 80
11, 278640, Note_on_c, 12, 66, 89
11, 278878, Note_off_c, 12, 66, 80
11, 278880, Note_on_c, 12, 59, 89
11, 279118, Note_off_c, 12, 59, 80
11, 279120, Note_on_c, 12, 66, 89
11, 279358, Note_off_c, 12, 66, 80
11, 279360, Note_on_c, 12, 59, 89
11, 279598, Note_off_c, 12, 59, 80
11, 279600, Note_on_c, 12, 59, 89
11, 279838, Note_off_c, 12, 59, 80
11, 279840, Note_on_c, 12, 66, 89
11, 280078, Note_off_c, 12, 66, 80
11, 280080, Note_on_c, 12, 59, 89
11, 280318, Note_off_c, 12, 59, 80
11, 280320, Note_on_c, 12, 66, 89
11, 280558, Note_off_c, 12, 66, 80
11, 280560, Note_on_c, 12, 66, 89
11, 280798, Note_off_c, 12, 66, 80
11, 280800, Note_on_c, 12, 59, 89
11, 281038, Note_off_c, 12, 59, 80
11, 281040, Note_on_c, 12, 66, 89
11, 281278, Note_off_c, 12, 66, 80
11, 281280, Note_on_c, 12, 66, 89
11, 281518, Note_off_c, 12, 66, 80
11, 281520, Note_on_c, 12, 59, 89
11, 281758, Note_off_c, 12, 59, 80
11, 281760, Note_on_c, 12, 59, 89
11, 281998, Note_off_c, 12, 59, 80
11, 282000, Note_on_c, 12, 66, 89
11, 282238, Note_off_c, 12, 66, 80
11, 282240, Note_on_c, 12, 66, 89
11, 282478, Note_off_c, 12, 66, 80
11, 282480, Note_on_c, 12, 59, 89
11, 282718, Note_off_c, 12, 59, 80
11, 282720, Note_on_c, 12, 59, 89
11, 282958, Note_off_c, 12, 59, 80
11, 282960, Note_on_c, 12, 66, 89
11, 283198, Note_off_c, 12, 66, 80
11, 283200, Note_on_c, 12, 66, 89
11, 283438, Note_off_c, 12, 66, 80
11, 283440, Note_on_c, 12, 59, 89
11, 283678, Note_off_c, 12, 59, 80
11, 283680, Note_on_c, 12, 59, 89
11, 283918, Note_off_c, 12, 59, 80
11, 283920, Note_on_c, 12, 66, 89
11, 284158, Note_off_c, 12, 66, 80
11, 284160, Note_on_c, 12, 66, 89
11, 284398, Note_off_c, 12, 66, 80
11, 284400, Note_on_c, 12, 59, 89
11, 284638, Note_off_c, 12, 59, 80
11, 284640, Note_on_c, 12, 66, 89
11, 284878, Note_off_c, 12, 66, 80
11, 284880, Note_on_c, 12, 66, 89
11, 285118, Note_off_c, 12, 66, 80
11, 285120, Note_on_c, 12, 66, 89
11, 285358, Note_off_c, 12, 66, 80
11, 285360, Note_on_c, 12, 59, 89
11, 285598, Note_off_c, 12, 59, 80
11, 285600, Note_on_c, 12, 66, 89
11, 285838, Note_off_c, 12, 66, 80
11, 285840, Note_on_c, 12, 66, 89
11, 286078, Note_off_c, 12, 66, 80
11, 286080, Note_on_c, 12, 59, 89
11, 286318, Note_off_c, 12, 59, 80
11, 286320, Note_on_c, 12, 66, 89
11, 286558, Note_off_c, 12, 66, 80
11, 286560, Note_on_c, 12, 59, 89
11, 286798, Note_off_c, 12, 59, 80
11, 286800, Note_on_c, 12, 66, 89
11, 287038, Note_off_c, 12, 66, 80
11, 287040, Note_on_c, 12, 59, 89
11, 287278, Note_off_c, 12, 59, 80
11, 287280, Note_on_c, 12, 59, 89
11, 287518, Note_off_c, 12, 59, 80
11, 287520, Note_on_c, 12, 66, 89
11, 287758, Note_off_c, 12, 66, 80
11, 287760, Note_on_c, 12, 59, 89
11, 287998, Note_off_c, 12, 59, 80
11, 288000, Note_on_c, 12, 66, 89
11, 288238, Note_off_c, 12, 66, 80
11, 288240, Note_on_c, 12, 66, 89
11, 288478, Note_off_c, 12, 66, 80
11, 288480, Note_on_c, 12, 59, 89
11, 288718, Note_off_c, 12, 59, 80
11, 288720, Note_on_c, 12, 66, 89
11, 288958, Note_off_c, 12, 66, 80
11, 288960, Note_on_c, 12, 66, 89
11, 289198, Note_off_c, 12, 66, 80
11, 289200, Note_on_c, 12, 59, 89
11, 289438, Note_off_c, 12, 59, 80
11, 289440, Note_on_c, 12, 59, 89
11, 289678, Note_off_c, 12, 59, 80
11, 289680, Note_on_c, 12, 66, 89
11, 289918, Note_off_c, 12, 66, 80
11, 289920, Note_on_c, 12, 66, 89
11, 290158, Note_off_c, 12, 66, 80
11, 290160, Note_on_c, 12, 59, 89
11, 290398, Note_off_c, 12, 59, 80
11, 290400, Note_on_c, 12, 59, 89
11, 290638, Note_off_c, 12, 59, 80
11, 290640, Note_on_c, 12, 66, 89
11, 290878, Note_off_c, 12, 66, 80
11, 290880, Note_on_c, 12, 66, 89
11, 291118, Note_off_c, 12, 66, 80
11, 291120, Note_on_c, 12, 59, 89
11, 291358, Note_off_c, 12, 59, 80
11, 291360, Note_on_c, 12, 59, 89
11, 291598, Note_off_c, 12, 59, 80
11, 291600, Note_on_c, 12, 66, 89
11, 291838, Note_off_c, 12, 66, 80
11, 291840, Note_on_c, 12, 66, 89
11, 292078, Note_off_c, 12, 66, 80
11, 292080, Note_on_c, 12, 59, 89
11, 292318, Note_off_c, 12, 59, 80
11, 292320, Note_on_c, 12, 66, 89
11, 292558, Note_off_c, 12, 66, 80
11, 292560, Note_on_c, 12, 66, 89
11, 292798, Note_off_c, 12, 66, 80
11, 292800, Note_on_c, 12, 66, 89
11, 293038, Note_off_c, 12, 66, 80
11, 293040, Note_on_c, 12, 59, 89
11, 293278, Note_off_c, 12, 59, 80
11, 293280, Note_on_c, 12, 66, 89
11, 293518, Note_off_c, 12, 66, 80
11, 293520, Note_on_c, 12, 66, 89
11, 293758, Note_off_c, 12, 66, 80
11, 293760, Note_on_c, 12, 59, 89
11, 293998, Note_off_c, 12, 59, 80
11, 294000, Note_on_c, 12, 66, 89
11, 294238, Note_off_c, 12, 66, 80
11, 294240, Note_on_c, 12, 59, 89
11, 294478, Note_off_c, 12, 59, 80
11, 294480, Note_on_c, 12, 66, 89
11, 294718, Note_off_c, 12, 66, 80
11, 294720, Note_on_c, 12, 59, 89
11, 294958, Note_off_c, 12, 59, 80
11, 294960, Note_on_c, 12, 59, 89
11, 295198, Note_off_c, 12, 59, 80
11, 295200, Note_on_c, 12, 66, 89
11, 295438, Note_off_c, 12, 66, 80
11, 295440, Note_on_c, 12, 59, 89
11, 295678, Note_off_c, 12, 59, 80
11, 295680, Note_on_c, 12, 66, 89
11, 295918, Note_off_c, 12, 66, 80
11, 295920, Note_on_c, 12, 66, 89
11, 296158, Note_off_c, 12, 66, 80
11, 296160, Note_on_c, 12, 59, 89
11, 296398, Note_off_c, 12, 59, 80
11, 296400, Note_on_c, 12, 66, 89
11, 296638, Note_off_c, 12, 66, 80
11, 296640, Note_on_c, 12, 66, 89
11, 296878, Note_off_c, 12, 66, 80
11, 296880, Note_on_c, 12, 59, 89
11, 297118, Note_off_c, 12, 59, 80
11, 297120, Note_on_c, 12, 59, 89
11, 297358, Note_off_c, 12, 59, 80
11, 297360, Note_on_c, 12, 66, 89
11, 297598, Note_off_c, 12, 66, 80
11, 297600, Note_on_c, 12, 66, 89
11, 297838, Note_off_c, 12, 66, 80
11, 297840, Note_on_c, 12, 59, 89
11, 298078, Note_off_c, 12, 59, 80
11, 298080, Note_on_c, 12, 59, 89
11, 298318, Note_off_c, 12, 59, 80
11, 298320, Note_on_c, 12, 66, 89
11, 298558, Note_off_c, 12, 66, 80
11, 298560, Note_on_c, 12, 66, 89
11, 298798, Note_off_c, 12, 66, 80
11, 298800, Note_on_c, 12, 59, 89
11, 299038, Note_off_c, 12, 59, 80
11, 299040, Note_on_c, 12, 59, 89
11, 299278, Note_off_c, 12, 59, 80
11, 299280, Note_on_c, 12, 66, 89
11, 299518, Note_off_c, 12, 66, 80
11, 299520, Note_on_c, 12, 66, 89
11, 299758, Note_off_c, 12, 66, 80
11, 299760, Note_on_c, 12, 59, 89
11, 299998, Note_off_c, 12, 59, 80
11, 300000, Note_on_c, 12, 66, 89
11, 300238, Note_off_c, 12, 66, 80
11, 300240, Note_on_c, 12, 66, 89
11, 300478, Note_off_c, 12, 66, 80
11, 300480, Note_on_c, 12, 66, 89
11, 300718, Note_off_c, 12, 66, 80
11, 300720, Note_on_c, 12, 59, 89
11, 300958, Note_off_c, 12, 59, 80
11, 300960, Note_on_c, 12, 66, 89
11, 301198, Note_off_c, 12, 66, 80
11, 301200, Note_on_c, 12, 66, 89
11, 301438, Note_off_c, 12, 66, 80
11, 301438, End_track
0, 0, End_of_file
