0, 0, Header, 1, 17, 120
1, 0, Start_track
1, 0, Title_t, "The Man Machine"
1, 0, Copyright_t, "Copyright © 1978 Klingklang"
1, 0, Text_t, "J. Talbert"
1, 0, Text_t, "From the Resonance Underground Musik Lab\012"
1, 0, Text_t, "   http://www.ameritech.net/users/jtalbert/mainpage.htm\012"
1, 0, MIDI_port, 0
1, 0, System_exclusive, 5, 126, 127, 9, 1, 247
1, 0, MIDI_port, 0
1, 0, Time_signature, 4, 2, 24, 8
1, 0, Key_signature, 0, "major"
1, 0, Tempo, 666667
1, 480, Marker_t, "Main"
1, 480, Marker_t, "Intro"
1, 10080, Marker_t, "Main Riff"
1, 10080, Marker_t, "Verse"
1, 10080, Marker_t, "Verse              "
1, 13920, Marker_t, "Chorus"
1, 21600, Marker_t, "Breakdown"
1, 25440, Marker_t, "Main Riff"
1, 25440, Marker_t, "Verse"
1, 25440, Marker_t, "Verse              "
1, 29280, Marker_t, "Chorus"
1, 36960, Marker_t, "Breakdown"
1, 52320, Marker_t, "Coda"
1, 52320, End_track
2, 0, Start_track
2, 0, MIDI_port, 0
2, 0, Title_t, "Vox"
2, 0, Control_c, 0, 91, 90
2, 122, Program_c, 0, 81
2, 123, Control_c, 0, 7, 127
2, 123, Control_c, 0, 10, 64
2, 10080, Note_on_c, 0, 41, 100
2, 10388, Note_on_c, 0, 41, 0
2, 10503, Note_on_c, 0, 44, 79
2, 10523, Note_on_c, 0, 44, 0
2, 10560, Note_on_c, 0, 46, 87
2, 10968, Note_on_c, 0, 46, 0
2, 11040, Note_on_c, 0, 41, 60
2, 11045, Note_on_c, 0, 41, 0
2, 11160, Note_on_c, 0, 41, 84
2, 11273, Note_on_c, 0, 41, 0
2, 11280, Note_on_c, 0, 41, 84
2, 11457, Note_on_c, 0, 41, 0
2, 11460, Note_on_c, 0, 44, 69
2, 11496, Note_on_c, 0, 44, 0
2, 11520, Note_on_c, 0, 46, 79
2, 11925, Note_on_c, 0, 46, 0
2, 12000, Note_on_c, 0, 41, 100
2, 12308, Note_on_c, 0, 41, 0
2, 12423, Note_on_c, 0, 44, 79
2, 12443, Note_on_c, 0, 44, 0
2, 12480, Note_on_c, 0, 46, 79
2, 12904, Note_on_c, 0, 46, 0
2, 12960, Note_on_c, 0, 41, 69
2, 12973, Note_on_c, 0, 41, 0
2, 13080, Note_on_c, 0, 41, 75
2, 13191, Note_on_c, 0, 41, 0
2, 13200, Note_on_c, 0, 41, 75
2, 13371, Note_on_c, 0, 41, 0
2, 13380, Note_on_c, 0, 44, 72
2, 13419, Note_on_c, 0, 44, 0
2, 13440, Note_on_c, 0, 46, 72
2, 13814, Note_on_c, 0, 46, 0
2, 13860, Note_on_c, 0, 36, 87
2, 13917, Note_on_c, 0, 36, 0
2, 13920, Note_on_c, 0, 41, 65
2, 13965, Note_on_c, 0, 41, 0
2, 13980, Note_on_c, 0, 41, 87
2, 14023, Note_on_c, 0, 41, 0
2, 14040, Note_on_c, 0, 44, 60
2, 14080, Note_on_c, 0, 44, 0
2, 14100, Note_on_c, 0, 44, 94
2, 14100, Note_on_c, 0, 41, 52
2, 14128, Note_on_c, 0, 41, 0
2, 14137, Note_on_c, 0, 44, 0
2, 14160, Note_on_c, 0, 48, 45
2, 14160, Note_on_c, 0, 44, 59
2, 14160, Note_on_c, 0, 41, 65
2, 14196, Note_on_c, 0, 41, 0
2, 14201, Note_on_c, 0, 44, 0
2, 14202, Note_on_c, 0, 48, 0
2, 14220, Note_on_c, 0, 48, 100
2, 14220, Note_on_c, 0, 44, 56
2, 14220, Note_on_c, 0, 41, 58
2, 14253, Note_on_c, 0, 44, 0
2, 14257, Note_on_c, 0, 41, 0
2, 14262, Note_on_c, 0, 48, 0
2, 14280, Note_on_c, 0, 48, 65
2, 14280, Note_on_c, 0, 44, 56
2, 14280, Note_on_c, 0, 41, 58
2, 14316, Note_on_c, 0, 44, 0
2, 14320, Note_on_c, 0, 41, 0
2, 14325, Note_on_c, 0, 48, 0
2, 14340, Note_on_c, 0, 48, 100
2, 14340, Note_on_c, 0, 44, 50
2, 14340, Note_on_c, 0, 41, 53
2, 14371, Note_on_c, 0, 44, 0
2, 14376, Note_on_c, 0, 41, 0
2, 14383, Note_on_c, 0, 48, 0
2, 14400, Note_on_c, 0, 53, 59
2, 14400, Note_on_c, 0, 48, 55
2, 14400, Note_on_c, 0, 44, 63
2, 14436, Note_on_c, 0, 48, 0
2, 14438, Note_on_c, 0, 44, 0
2, 14442, Note_on_c, 0, 53, 0
2, 14460, Note_on_c, 0, 53, 100
2, 14460, Note_on_c, 0, 48, 47
2, 14460, Note_on_c, 0, 44, 59
2, 14493, Note_on_c, 0, 44, 0
2, 14498, Note_on_c, 0, 48, 0
2, 14505, Note_on_c, 0, 53, 0
2, 14520, Note_on_c, 0, 56, 65
2, 14520, Note_on_c, 0, 53, 58
2, 14520, Note_on_c, 0, 48, 58
2, 14560, Note_on_c, 0, 48, 0
2, 14560, Note_on_c, 0, 53, 0
2, 14561, Note_on_c, 0, 56, 0
2, 14580, Note_on_c, 0, 56, 87
2, 14580, Note_on_c, 0, 53, 58
2, 14580, Note_on_c, 0, 48, 69
2, 14615, Note_on_c, 0, 48, 0
2, 14616, Note_on_c, 0, 53, 0
2, 14623, Note_on_c, 0, 56, 0
2, 14640, Note_on_c, 0, 60, 48
2, 14640, Note_on_c, 0, 56, 65
2, 14640, Note_on_c, 0, 53, 51
2, 14679, Note_on_c, 0, 56, 0
2, 14680, Note_on_c, 0, 53, 0
2, 14681, Note_on_c, 0, 60, 0
2, 14700, Note_on_c, 0, 60, 84
2, 14700, Note_on_c, 0, 56, 51
2, 14700, Note_on_c, 0, 53, 75
2, 14735, Note_on_c, 0, 53, 0
2, 14735, Note_on_c, 0, 56, 0
2, 14742, Note_on_c, 0, 60, 0
2, 14760, Note_on_c, 0, 60, 65
2, 14760, Note_on_c, 0, 56, 65
2, 14760, Note_on_c, 0, 53, 55
2, 14796, Note_on_c, 0, 56, 0
2, 14804, Note_on_c, 0, 53, 0
2, 14806, Note_on_c, 0, 60, 0
2, 14820, Note_on_c, 0, 63, 84
2, 14820, Note_on_c, 0, 60, 53
2, 14820, Note_on_c, 0, 56, 65
2, 14852, Note_on_c, 0, 60, 0
2, 14854, Note_on_c, 0, 56, 0
2, 14858, Note_on_c, 0, 63, 0
2, 14880, Note_on_c, 0, 60, 58
2, 14880, Note_on_c, 0, 56, 58
2, 14880, Note_on_c, 0, 53, 60
2, 15240, Note_on_c, 0, 44, 84
2, 15318, Note_on_c, 0, 44, 0
2, 15360, Note_on_c, 0, 46, 100
2, 15741, Note_on_c, 0, 46, 0
2, 15746, Note_on_c, 0, 60, 0
2, 15752, Note_on_c, 0, 56, 0
2, 15780, Note_on_c, 0, 38, 60
2, 15809, Note_on_c, 0, 53, 0
2, 15833, Note_on_c, 0, 38, 0
2, 15840, Note_on_c, 0, 43, 62
2, 15883, Note_on_c, 0, 43, 0
2, 15900, Note_on_c, 0, 43, 67
2, 15942, Note_on_c, 0, 43, 0
2, 15960, Note_on_c, 0, 46, 39
2, 16001, Note_on_c, 0, 46, 0
2, 16020, Note_on_c, 0, 46, 87
2, 16020, Note_on_c, 0, 43, 60
2, 16051, Note_on_c, 0, 43, 0
2, 16056, Note_on_c, 0, 46, 0
2, 16080, Note_on_c, 0, 50, 50
2, 16080, Note_on_c, 0, 46, 65
2, 16080, Note_on_c, 0, 43, 69
2, 16112, Note_on_c, 0, 46, 0
2, 16117, Note_on_c, 0, 43, 0
2, 16123, Note_on_c, 0, 50, 0
2, 16140, Note_on_c, 0, 50, 84
2, 16140, Note_on_c, 0, 46, 53
2, 16140, Note_on_c, 0, 43, 61
2, 16168, Note_on_c, 0, 46, 0
2, 16175, Note_on_c, 0, 43, 0
2, 16178, Note_on_c, 0, 50, 0
2, 16200, Note_on_c, 0, 50, 57
2, 16200, Note_on_c, 0, 46, 63
2, 16200, Note_on_c, 0, 43, 54
2, 16234, Note_on_c, 0, 46, 0
2, 16238, Note_on_c, 0, 43, 0
2, 16242, Note_on_c, 0, 50, 0
2, 16260, Note_on_c, 0, 50, 84
2, 16260, Note_on_c, 0, 46, 52
2, 16260, Note_on_c, 0, 43, 75
2, 16293, Note_on_c, 0, 46, 0
2, 16297, Note_on_c, 0, 43, 0
2, 16303, Note_on_c, 0, 50, 0
2, 16320, Note_on_c, 0, 55, 53
2, 16320, Note_on_c, 0, 50, 60
2, 16320, Note_on_c, 0, 46, 46
2, 16356, Note_on_c, 0, 50, 0
2, 16359, Note_on_c, 0, 46, 0
2, 16369, Note_on_c, 0, 55, 0
2, 16380, Note_on_c, 0, 55, 87
2, 16380, Note_on_c, 0, 50, 49
2, 16380, Note_on_c, 0, 46, 72
2, 16414, Note_on_c, 0, 50, 0
2, 16417, Note_on_c, 0, 46, 0
2, 16422, Note_on_c, 0, 55, 0
2, 16440, Note_on_c, 0, 58, 39
2, 16440, Note_on_c, 0, 55, 59
2, 16440, Note_on_c, 0, 50, 53
2, 16479, Note_on_c, 0, 58, 0
2, 16480, Note_on_c, 0, 50, 0
2, 16482, Note_on_c, 0, 55, 0
2, 16500, Note_on_c, 0, 58, 84
2, 16500, Note_on_c, 0, 55, 51
2, 16500, Note_on_c, 0, 50, 72
2, 16537, Note_on_c, 0, 50, 0
2, 16538, Note_on_c, 0, 58, 0
2, 16539, Note_on_c, 0, 55, 0
2, 16560, Note_on_c, 0, 62, 49
2, 16560, Note_on_c, 0, 58, 72
2, 16560, Note_on_c, 0, 55, 44
2, 16598, Note_on_c, 0, 58, 0
2, 16603, Note_on_c, 0, 55, 0
2, 16607, Note_on_c, 0, 62, 0
2, 16620, Note_on_c, 0, 62, 84
2, 16620, Note_on_c, 0, 58, 53
2, 16620, Note_on_c, 0, 55, 65
2, 16655, Note_on_c, 0, 58, 0
2, 16656, Note_on_c, 0, 62, 0
2, 16657, Note_on_c, 0, 55, 0
2, 16680, Note_on_c, 0, 62, 48
2, 16680, Note_on_c, 0, 58, 54
2, 16680, Note_on_c, 0, 55, 45
2, 16715, Note_on_c, 0, 58, 0
2, 16725, Note_on_c, 0, 62, 0
2, 16729, Note_on_c, 0, 55, 0
2, 16740, Note_on_c, 0, 65, 87
2, 16740, Note_on_c, 0, 62, 55
2, 16740, Note_on_c, 0, 58, 62
2, 16774, Note_on_c, 0, 62, 0
2, 16776, Note_on_c, 0, 58, 0
2, 16777, Note_on_c, 0, 65, 0
2, 16800, Note_on_c, 0, 62, 47
2, 16800, Note_on_c, 0, 58, 47
2, 16800, Note_on_c, 0, 55, 47
2, 17160, Note_on_c, 0, 46, 100
2, 17235, Note_on_c, 0, 46, 0
2, 17280, Note_on_c, 0, 48, 84
2, 17640, Note_on_c, 0, 58, 0
2, 17654, Note_on_c, 0, 48, 0
2, 17660, Note_on_c, 0, 62, 0
2, 17700, Note_on_c, 0, 36, 100
2, 17703, Note_on_c, 0, 55, 0
2, 17760, Note_on_c, 0, 41, 63
2, 17761, Note_on_c, 0, 36, 0
2, 17807, Note_on_c, 0, 41, 0
2, 17820, Note_on_c, 0, 41, 75
2, 17868, Note_on_c, 0, 41, 0
2, 17880, Note_on_c, 0, 44, 47
2, 17921, Note_on_c, 0, 44, 0
2, 17940, Note_on_c, 0, 44, 87
2, 17940, Note_on_c, 0, 41, 58
2, 17970, Note_on_c, 0, 41, 0
2, 17974, Note_on_c, 0, 44, 0
2, 18000, Note_on_c, 0, 48, 53
2, 18000, Note_on_c, 0, 44, 54
2, 18000, Note_on_c, 0, 41, 64
2, 18033, Note_on_c, 0, 44, 0
2, 18038, Note_on_c, 0, 41, 0
2, 18047, Note_on_c, 0, 48, 0
2, 18060, Note_on_c, 0, 48, 84
2, 18060, Note_on_c, 0, 44, 53
2, 18060, Note_on_c, 0, 41, 53
2, 18092, Note_on_c, 0, 44, 0
2, 18095, Note_on_c, 0, 41, 0
2, 18095, Note_on_c, 0, 48, 0
2, 18120, Note_on_c, 0, 48, 60
2, 18120, Note_on_c, 0, 44, 58
2, 18120, Note_on_c, 0, 41, 53
2, 18156, Note_on_c, 0, 44, 0
2, 18161, Note_on_c, 0, 41, 0
2, 18165, Note_on_c, 0, 48, 0
2, 18180, Note_on_c, 0, 48, 100
2, 18180, Note_on_c, 0, 44, 50
2, 18180, Note_on_c, 0, 41, 72
2, 18213, Note_on_c, 0, 41, 0
2, 18213, Note_on_c, 0, 44, 0
2, 18221, Note_on_c, 0, 48, 0
2, 18240, Note_on_c, 0, 53, 60
2, 18240, Note_on_c, 0, 48, 59
2, 18240, Note_on_c, 0, 44, 46
2, 18276, Note_on_c, 0, 48, 0
2, 18282, Note_on_c, 0, 44, 0
2, 18291, Note_on_c, 0, 53, 0
2, 18300, Note_on_c, 0, 53, 94
2, 18300, Note_on_c, 0, 48, 51
2, 18300, Note_on_c, 0, 44, 72
2, 18336, Note_on_c, 0, 44, 0
2, 18336, Note_on_c, 0, 48, 0
2, 18340, Note_on_c, 0, 53, 0
2, 18360, Note_on_c, 0, 56, 55
2, 18360, Note_on_c, 0, 53, 59
2, 18360, Note_on_c, 0, 48, 52
2, 18401, Note_on_c, 0, 48, 0
2, 18402, Note_on_c, 0, 53, 0
2, 18404, Note_on_c, 0, 56, 0
2, 18420, Note_on_c, 0, 56, 87
2, 18420, Note_on_c, 0, 53, 69
2, 18420, Note_on_c, 0, 48, 72
2, 18450, Note_on_c, 0, 56, 0
2, 18458, Note_on_c, 0, 48, 0
2, 18458, Note_on_c, 0, 53, 0
2, 18480, Note_on_c, 0, 60, 45
2, 18480, Note_on_c, 0, 56, 60
2, 18480, Note_on_c, 0, 53, 45
2, 18519, Note_on_c, 0, 56, 0
2, 18523, Note_on_c, 0, 53, 0
2, 18526, Note_on_c, 0, 60, 0
2, 18540, Note_on_c, 0, 60, 84
2, 18540, Note_on_c, 0, 56, 65
2, 18540, Note_on_c, 0, 53, 72
2, 18565, Note_on_c, 0, 60, 0
2, 18576, Note_on_c, 0, 53, 0
2, 18579, Note_on_c, 0, 56, 0
2, 18600, Note_on_c, 0, 60, 59
2, 18600, Note_on_c, 0, 56, 72
2, 18600, Note_on_c, 0, 53, 61
2, 18641, Note_on_c, 0, 56, 0
2, 18644, Note_on_c, 0, 53, 0
2, 18646, Note_on_c, 0, 60, 0
2, 18660, Note_on_c, 0, 63, 94
2, 18660, Note_on_c, 0, 60, 60
2, 18660, Note_on_c, 0, 56, 54
2, 18693, Note_on_c, 0, 63, 0
2, 18698, Note_on_c, 0, 56, 0
2, 18699, Note_on_c, 0, 60, 0
2, 18720, Note_on_c, 0, 60, 59
2, 18720, Note_on_c, 0, 56, 49
2, 18720, Note_on_c, 0, 53, 59
2, 19080, Note_on_c, 0, 44, 100
2, 19160, Note_on_c, 0, 44, 0
2, 19200, Note_on_c, 0, 46, 87
2, 19564, Note_on_c, 0, 46, 0
2, 19575, Note_on_c, 0, 60, 0
2, 19608, Note_on_c, 0, 56, 0
2, 19618, Note_on_c, 0, 53, 0
2, 19620, Note_on_c, 0, 38, 50
2, 19672, Note_on_c, 0, 38, 0
2, 19680, Note_on_c, 0, 43, 74
2, 19723, Note_on_c, 0, 43, 0
2, 19740, Note_on_c, 0, 43, 87
2, 19782, Note_on_c, 0, 43, 0
2, 19800, Note_on_c, 0, 46, 58
2, 19842, Note_on_c, 0, 46, 0
2, 19860, Note_on_c, 0, 46, 100
2, 19860, Note_on_c, 0, 38, 55
2, 19891, Note_on_c, 0, 38, 0
2, 19892, Note_on_c, 0, 46, 0
2, 19920, Note_on_c, 0, 50, 56
2, 19920, Note_on_c, 0, 43, 59
2, 19920, Note_on_c, 0, 43, 59
2, 19957, Note_on_c, 0, 43, 0
2, 19959, Note_on_c, 0, 43, 0
2, 19964, Note_on_c, 0, 50, 0
2, 19980, Note_on_c, 0, 50, 94
2, 19980, Note_on_c, 0, 43, 51
2, 19980, Note_on_c, 0, 43, 75
2, 20010, Note_on_c, 0, 50, 0
2, 20016, Note_on_c, 0, 43, 0
2, 20019, Note_on_c, 0, 43, 0
2, 20040, Note_on_c, 0, 50, 69
2, 20040, Note_on_c, 0, 46, 58
2, 20040, Note_on_c, 0, 43, 50
2, 20078, Note_on_c, 0, 43, 0
2, 20080, Note_on_c, 0, 46, 0
2, 20083, Note_on_c, 0, 50, 0
2, 20100, Note_on_c, 0, 50, 87
2, 20100, Note_on_c, 0, 46, 53
2, 20100, Note_on_c, 0, 43, 72
2, 20134, Note_on_c, 0, 43, 0
2, 20134, Note_on_c, 0, 46, 0
2, 20138, Note_on_c, 0, 50, 0
2, 20160, Note_on_c, 0, 55, 59
2, 20160, Note_on_c, 0, 50, 62
2, 20160, Note_on_c, 0, 46, 49
2, 20198, Note_on_c, 0, 46, 0
2, 20205, Note_on_c, 0, 50, 0
2, 20206, Note_on_c, 0, 55, 0
2, 20220, Note_on_c, 0, 55, 100
2, 20220, Note_on_c, 0, 50, 46
2, 20220, Note_on_c, 0, 46, 84
2, 20251, Note_on_c, 0, 50, 0
2, 20253, Note_on_c, 0, 46, 0
2, 20260, Note_on_c, 0, 55, 0
2, 20280, Note_on_c, 0, 58, 67
2, 20280, Note_on_c, 0, 55, 59
2, 20280, Note_on_c, 0, 50, 54
2, 20315, Note_on_c, 0, 50, 0
2, 20320, Note_on_c, 0, 58, 0
2, 20326, Note_on_c, 0, 55, 0
2, 20340, Note_on_c, 0, 58, 94
2, 20340, Note_on_c, 0, 55, 60
2, 20340, Note_on_c, 0, 50, 72
2, 20376, Note_on_c, 0, 50, 0
2, 20380, Note_on_c, 0, 55, 0
2, 20381, Note_on_c, 0, 58, 0
2, 20400, Note_on_c, 0, 62, 52
2, 20400, Note_on_c, 0, 58, 74
2, 20400, Note_on_c, 0, 55, 58
2, 20439, Note_on_c, 0, 55, 0
2, 20440, Note_on_c, 0, 62, 0
2, 20441, Note_on_c, 0, 58, 0
2, 20460, Note_on_c, 0, 62, 84
2, 20460, Note_on_c, 0, 58, 59
2, 20460, Note_on_c, 0, 55, 72
2, 20493, Note_on_c, 0, 62, 0
2, 20496, Note_on_c, 0, 55, 0
2, 20501, Note_on_c, 0, 58, 0
2, 20520, Note_on_c, 0, 62, 60
2, 20520, Note_on_c, 0, 58, 61
2, 20520, Note_on_c, 0, 55, 59
2, 20559, Note_on_c, 0, 55, 0
2, 20563, Note_on_c, 0, 58, 0
2, 20567, Note_on_c, 0, 62, 0
2, 20580, Note_on_c, 0, 65, 100
2, 20580, Note_on_c, 0, 62, 57
2, 20580, Note_on_c, 0, 58, 59
2, 20610, Note_on_c, 0, 58, 0
2, 20610, Note_on_c, 0, 65, 0
2, 20621, Note_on_c, 0, 62, 0
2, 20640, Note_on_c, 0, 62, 51
2, 20640, Note_on_c, 0, 58, 54
2, 20640, Note_on_c, 0, 55, 51
2, 21000, Note_on_c, 0, 46, 87
2, 21070, Note_on_c, 0, 46, 0
2, 21120, Note_on_c, 0, 48, 75
2, 21566, Note_on_c, 0, 48, 0
2, 21566, Note_on_c, 0, 62, 0
2, 21579, Note_on_c, 0, 58, 0
2, 21595, Note_on_c, 0, 55, 0
2, 25440, Note_on_c, 0, 41, 100
2, 25748, Note_on_c, 0, 41, 0
2, 25863, Note_on_c, 0, 44, 79
2, 25883, Note_on_c, 0, 44, 0
2, 25920, Note_on_c, 0, 46, 87
2, 26328, Note_on_c, 0, 46, 0
2, 26400, Note_on_c, 0, 41, 60
2, 26405, Note_on_c, 0, 41, 0
2, 26520, Note_on_c, 0, 41, 84
2, 26633, Note_on_c, 0, 41, 0
2, 26640, Note_on_c, 0, 41, 84
2, 26817, Note_on_c, 0, 41, 0
2, 26820, Note_on_c, 0, 44, 69
2, 26856, Note_on_c, 0, 44, 0
2, 26880, Note_on_c, 0, 46, 79
2, 27285, Note_on_c, 0, 46, 0
2, 27360, Note_on_c, 0, 41, 100
2, 27668, Note_on_c, 0, 41, 0
2, 27783, Note_on_c, 0, 44, 79
2, 27803, Note_on_c, 0, 44, 0
2, 27840, Note_on_c, 0, 46, 79
2, 28264, Note_on_c, 0, 46, 0
2, 28320, Note_on_c, 0, 41, 69
2, 28333, Note_on_c, 0, 41, 0
2, 28440, Note_on_c, 0, 41, 75
2, 28551, Note_on_c, 0, 41, 0
2, 28560, Note_on_c, 0, 41, 75
2, 28731, Note_on_c, 0, 41, 0
2, 28740, Note_on_c, 0, 44, 72
2, 28779, Note_on_c, 0, 44, 0
2, 28800, Note_on_c, 0, 46, 72
2, 29174, Note_on_c, 0, 46, 0
2, 29220, Note_on_c, 0, 36, 87
2, 29277, Note_on_c, 0, 36, 0
2, 29280, Note_on_c, 0, 41, 65
2, 29325, Note_on_c, 0, 41, 0
2, 29340, Note_on_c, 0, 41, 87
2, 29383, Note_on_c, 0, 41, 0
2, 29400, Note_on_c, 0, 44, 60
2, 29440, Note_on_c, 0, 44, 0
2, 29460, Note_on_c, 0, 44, 94
2, 29460, Note_on_c, 0, 41, 52
2, 29488, Note_on_c, 0, 41, 0
2, 29497, Note_on_c, 0, 44, 0
2, 29520, Note_on_c, 0, 48, 45
2, 29520, Note_on_c, 0, 44, 59
2, 29520, Note_on_c, 0, 41, 65
2, 29556, Note_on_c, 0, 41, 0
2, 29561, Note_on_c, 0, 44, 0
2, 29562, Note_on_c, 0, 48, 0
2, 29580, Note_on_c, 0, 48, 100
2, 29580, Note_on_c, 0, 44, 56
2, 29580, Note_on_c, 0, 41, 58
2, 29613, Note_on_c, 0, 44, 0
2, 29617, Note_on_c, 0, 41, 0
2, 29622, Note_on_c, 0, 48, 0
2, 29640, Note_on_c, 0, 48, 65
2, 29640, Note_on_c, 0, 44, 56
2, 29640, Note_on_c, 0, 41, 58
2, 29676, Note_on_c, 0, 44, 0
2, 29680, Note_on_c, 0, 41, 0
2, 29685, Note_on_c, 0, 48, 0
2, 29700, Note_on_c, 0, 48, 100
2, 29700, Note_on_c, 0, 44, 50
2, 29700, Note_on_c, 0, 41, 53
2, 29731, Note_on_c, 0, 44, 0
2, 29736, Note_on_c, 0, 41, 0
2, 29743, Note_on_c, 0, 48, 0
2, 29760, Note_on_c, 0, 53, 59
2, 29760, Note_on_c, 0, 48, 55
2, 29760, Note_on_c, 0, 44, 63
2, 29796, Note_on_c, 0, 48, 0
2, 29798, Note_on_c, 0, 44, 0
2, 29802, Note_on_c, 0, 53, 0
2, 29820, Note_on_c, 0, 53, 100
2, 29820, Note_on_c, 0, 48, 47
2, 29820, Note_on_c, 0, 44, 59
2, 29853, Note_on_c, 0, 44, 0
2, 29858, Note_on_c, 0, 48, 0
2, 29865, Note_on_c, 0, 53, 0
2, 29880, Note_on_c, 0, 56, 65
2, 29880, Note_on_c, 0, 53, 58
2, 29880, Note_on_c, 0, 48, 58
2, 29920, Note_on_c, 0, 48, 0
2, 29920, Note_on_c, 0, 53, 0
2, 29921, Note_on_c, 0, 56, 0
2, 29940, Note_on_c, 0, 56, 87
2, 29940, Note_on_c, 0, 53, 58
2, 29940, Note_on_c, 0, 48, 69
2, 29975, Note_on_c, 0, 48, 0
2, 29976, Note_on_c, 0, 53, 0
2, 29983, Note_on_c, 0, 56, 0
2, 30000, Note_on_c, 0, 60, 48
2, 30000, Note_on_c, 0, 56, 65
2, 30000, Note_on_c, 0, 53, 51
2, 30039, Note_on_c, 0, 56, 0
2, 30040, Note_on_c, 0, 53, 0
2, 30041, Note_on_c, 0, 60, 0
2, 30060, Note_on_c, 0, 60, 84
2, 30060, Note_on_c, 0, 56, 51
2, 30060, Note_on_c, 0, 53, 75
2, 30095, Note_on_c, 0, 53, 0
2, 30095, Note_on_c, 0, 56, 0
2, 30102, Note_on_c, 0, 60, 0
2, 30120, Note_on_c, 0, 60, 65
2, 30120, Note_on_c, 0, 56, 65
2, 30120, Note_on_c, 0, 53, 55
2, 30156, Note_on_c, 0, 56, 0
2, 30164, Note_on_c, 0, 53, 0
2, 30166, Note_on_c, 0, 60, 0
2, 30180, Note_on_c, 0, 63, 84
2, 30180, Note_on_c, 0, 60, 53
2, 30180, Note_on_c, 0, 56, 65
2, 30212, Note_on_c, 0, 60, 0
2, 30214, Note_on_c, 0, 56, 0
2, 30218, Note_on_c, 0, 63, 0
2, 30240, Note_on_c, 0, 60, 58
2, 30240, Note_on_c, 0, 56, 58
2, 30240, Note_on_c, 0, 53, 60
2, 30600, Note_on_c, 0, 44, 84
2, 30678, Note_on_c, 0, 44, 0
2, 30720, Note_on_c, 0, 46, 100
2, 31101, Note_on_c, 0, 46, 0
2, 31106, Note_on_c, 0, 60, 0
2, 31112, Note_on_c, 0, 56, 0
2, 31140, Note_on_c, 0, 38, 60
2, 31169, Note_on_c, 0, 53, 0
2, 31193, Note_on_c, 0, 38, 0
2, 31200, Note_on_c, 0, 43, 62
2, 31243, Note_on_c, 0, 43, 0
2, 31260, Note_on_c, 0, 43, 67
2, 31302, Note_on_c, 0, 43, 0
2, 31320, Note_on_c, 0, 46, 39
2, 31361, Note_on_c, 0, 46, 0
2, 31380, Note_on_c, 0, 46, 87
2, 31380, Note_on_c, 0, 43, 60
2, 31411, Note_on_c, 0, 43, 0
2, 31416, Note_on_c, 0, 46, 0
2, 31440, Note_on_c, 0, 50, 50
2, 31440, Note_on_c, 0, 46, 65
2, 31440, Note_on_c, 0, 43, 69
2, 31472, Note_on_c, 0, 46, 0
2, 31477, Note_on_c, 0, 43, 0
2, 31483, Note_on_c, 0, 50, 0
2, 31500, Note_on_c, 0, 50, 84
2, 31500, Note_on_c, 0, 46, 53
2, 31500, Note_on_c, 0, 43, 61
2, 31528, Note_on_c, 0, 46, 0
2, 31535, Note_on_c, 0, 43, 0
2, 31538, Note_on_c, 0, 50, 0
2, 31560, Note_on_c, 0, 50, 57
2, 31560, Note_on_c, 0, 46, 63
2, 31560, Note_on_c, 0, 43, 54
2, 31594, Note_on_c, 0, 46, 0
2, 31598, Note_on_c, 0, 43, 0
2, 31602, Note_on_c, 0, 50, 0
2, 31620, Note_on_c, 0, 50, 84
2, 31620, Note_on_c, 0, 46, 52
2, 31620, Note_on_c, 0, 43, 75
2, 31653, Note_on_c, 0, 46, 0
2, 31657, Note_on_c, 0, 43, 0
2, 31663, Note_on_c, 0, 50, 0
2, 31680, Note_on_c, 0, 55, 53
2, 31680, Note_on_c, 0, 50, 60
2, 31680, Note_on_c, 0, 46, 46
2, 31716, Note_on_c, 0, 50, 0
2, 31719, Note_on_c, 0, 46, 0
2, 31729, Note_on_c, 0, 55, 0
2, 31740, Note_on_c, 0, 55, 87
2, 31740, Note_on_c, 0, 50, 49
2, 31740, Note_on_c, 0, 46, 72
2, 31774, Note_on_c, 0, 50, 0
2, 31777, Note_on_c, 0, 46, 0
2, 31782, Note_on_c, 0, 55, 0
2, 31800, Note_on_c, 0, 58, 39
2, 31800, Note_on_c, 0, 55, 59
2, 31800, Note_on_c, 0, 50, 53
2, 31839, Note_on_c, 0, 58, 0
2, 31840, Note_on_c, 0, 50, 0
2, 31842, Note_on_c, 0, 55, 0
2, 31860, Note_on_c, 0, 58, 84
2, 31860, Note_on_c, 0, 55, 51
2, 31860, Note_on_c, 0, 50, 72
2, 31897, Note_on_c, 0, 50, 0
2, 31898, Note_on_c, 0, 58, 0
2, 31899, Note_on_c, 0, 55, 0
2, 31920, Note_on_c, 0, 62, 49
2, 31920, Note_on_c, 0, 58, 72
2, 31920, Note_on_c, 0, 55, 44
2, 31958, Note_on_c, 0, 58, 0
2, 31963, Note_on_c, 0, 55, 0
2, 31967, Note_on_c, 0, 62, 0
2, 31980, Note_on_c, 0, 62, 84
2, 31980, Note_on_c, 0, 58, 53
2, 31980, Note_on_c, 0, 55, 65
2, 32015, Note_on_c, 0, 58, 0
2, 32016, Note_on_c, 0, 62, 0
2, 32017, Note_on_c, 0, 55, 0
2, 32040, Note_on_c, 0, 62, 48
2, 32040, Note_on_c, 0, 58, 54
2, 32040, Note_on_c, 0, 55, 45
2, 32075, Note_on_c, 0, 58, 0
2, 32085, Note_on_c, 0, 62, 0
2, 32089, Note_on_c, 0, 55, 0
2, 32100, Note_on_c, 0, 65, 87
2, 32100, Note_on_c, 0, 62, 55
2, 32100, Note_on_c, 0, 58, 62
2, 32134, Note_on_c, 0, 62, 0
2, 32136, Note_on_c, 0, 58, 0
2, 32137, Note_on_c, 0, 65, 0
2, 32160, Note_on_c, 0, 62, 47
2, 32160, Note_on_c, 0, 58, 47
2, 32160, Note_on_c, 0, 55, 47
2, 32520, Note_on_c, 0, 46, 100
2, 32595, Note_on_c, 0, 46, 0
2, 32640, Note_on_c, 0, 48, 84
2, 33000, Note_on_c, 0, 58, 0
2, 33014, Note_on_c, 0, 48, 0
2, 33020, Note_on_c, 0, 62, 0
2, 33060, Note_on_c, 0, 36, 100
2, 33063, Note_on_c, 0, 55, 0
2, 33120, Note_on_c, 0, 41, 63
2, 33121, Note_on_c, 0, 36, 0
2, 33167, Note_on_c, 0, 41, 0
2, 33180, Note_on_c, 0, 41, 75
2, 33228, Note_on_c, 0, 41, 0
2, 33240, Note_on_c, 0, 44, 47
2, 33281, Note_on_c, 0, 44, 0
2, 33300, Note_on_c, 0, 44, 87
2, 33300, Note_on_c, 0, 41, 58
2, 33330, Note_on_c, 0, 41, 0
2, 33334, Note_on_c, 0, 44, 0
2, 33360, Note_on_c, 0, 48, 53
2, 33360, Note_on_c, 0, 44, 54
2, 33360, Note_on_c, 0, 41, 64
2, 33393, Note_on_c, 0, 44, 0
2, 33398, Note_on_c, 0, 41, 0
2, 33407, Note_on_c, 0, 48, 0
2, 33420, Note_on_c, 0, 48, 84
2, 33420, Note_on_c, 0, 44, 53
2, 33420, Note_on_c, 0, 41, 53
2, 33452, Note_on_c, 0, 44, 0
2, 33455, Note_on_c, 0, 41, 0
2, 33455, Note_on_c, 0, 48, 0
2, 33480, Note_on_c, 0, 48, 60
2, 33480, Note_on_c, 0, 44, 58
2, 33480, Note_on_c, 0, 41, 53
2, 33516, Note_on_c, 0, 44, 0
2, 33521, Note_on_c, 0, 41, 0
2, 33525, Note_on_c, 0, 48, 0
2, 33540, Note_on_c, 0, 48, 100
2, 33540, Note_on_c, 0, 44, 50
2, 33540, Note_on_c, 0, 41, 72
2, 33573, Note_on_c, 0, 41, 0
2, 33573, Note_on_c, 0, 44, 0
2, 33581, Note_on_c, 0, 48, 0
2, 33600, Note_on_c, 0, 53, 60
2, 33600, Note_on_c, 0, 48, 59
2, 33600, Note_on_c, 0, 44, 46
2, 33636, Note_on_c, 0, 48, 0
2, 33642, Note_on_c, 0, 44, 0
2, 33651, Note_on_c, 0, 53, 0
2, 33660, Note_on_c, 0, 53, 94
2, 33660, Note_on_c, 0, 48, 51
2, 33660, Note_on_c, 0, 44, 72
2, 33696, Note_on_c, 0, 44, 0
2, 33696, Note_on_c, 0, 48, 0
2, 33700, Note_on_c, 0, 53, 0
2, 33720, Note_on_c, 0, 56, 55
2, 33720, Note_on_c, 0, 53, 59
2, 33720, Note_on_c, 0, 48, 52
2, 33761, Note_on_c, 0, 48, 0
2, 33762, Note_on_c, 0, 53, 0
2, 33764, Note_on_c, 0, 56, 0
2, 33780, Note_on_c, 0, 56, 87
2, 33780, Note_on_c, 0, 53, 69
2, 33780, Note_on_c, 0, 48, 72
2, 33810, Note_on_c, 0, 56, 0
2, 33818, Note_on_c, 0, 48, 0
2, 33818, Note_on_c, 0, 53, 0
2, 33840, Note_on_c, 0, 60, 45
2, 33840, Note_on_c, 0, 56, 60
2, 33840, Note_on_c, 0, 53, 45
2, 33879, Note_on_c, 0, 56, 0
2, 33883, Note_on_c, 0, 53, 0
2, 33886, Note_on_c, 0, 60, 0
2, 33900, Note_on_c, 0, 60, 84
2, 33900, Note_on_c, 0, 56, 65
2, 33900, Note_on_c, 0, 53, 72
2, 33925, Note_on_c, 0, 60, 0
2, 33936, Note_on_c, 0, 53, 0
2, 33939, Note_on_c, 0, 56, 0
2, 33960, Note_on_c, 0, 60, 59
2, 33960, Note_on_c, 0, 56, 72
2, 33960, Note_on_c, 0, 53, 61
2, 34001, Note_on_c, 0, 56, 0
2, 34004, Note_on_c, 0, 53, 0
2, 34006, Note_on_c, 0, 60, 0
2, 34020, Note_on_c, 0, 63, 94
2, 34020, Note_on_c, 0, 60, 60
2, 34020, Note_on_c, 0, 56, 54
2, 34053, Note_on_c, 0, 63, 0
2, 34058, Note_on_c, 0, 56, 0
2, 34059, Note_on_c, 0, 60, 0
2, 34080, Note_on_c, 0, 60, 59
2, 34080, Note_on_c, 0, 56, 49
2, 34080, Note_on_c, 0, 53, 59
2, 34440, Note_on_c, 0, 44, 100
2, 34520, Note_on_c, 0, 44, 0
2, 34560, Note_on_c, 0, 46, 87
2, 34924, Note_on_c, 0, 46, 0
2, 34935, Note_on_c, 0, 60, 0
2, 34968, Note_on_c, 0, 56, 0
2, 34978, Note_on_c, 0, 53, 0
2, 34980, Note_on_c, 0, 38, 50
2, 35032, Note_on_c, 0, 38, 0
2, 35040, Note_on_c, 0, 43, 74
2, 35083, Note_on_c, 0, 43, 0
2, 35100, Note_on_c, 0, 43, 87
2, 35142, Note_on_c, 0, 43, 0
2, 35160, Note_on_c, 0, 46, 58
2, 35202, Note_on_c, 0, 46, 0
2, 35220, Note_on_c, 0, 46, 100
2, 35220, Note_on_c, 0, 38, 55
2, 35251, Note_on_c, 0, 38, 0
2, 35252, Note_on_c, 0, 46, 0
2, 35280, Note_on_c, 0, 50, 56
2, 35280, Note_on_c, 0, 43, 59
2, 35280, Note_on_c, 0, 43, 59
2, 35317, Note_on_c, 0, 43, 0
2, 35319, Note_on_c, 0, 43, 0
2, 35324, Note_on_c, 0, 50, 0
2, 35340, Note_on_c, 0, 50, 94
2, 35340, Note_on_c, 0, 43, 51
2, 35340, Note_on_c, 0, 43, 75
2, 35370, Note_on_c, 0, 50, 0
2, 35376, Note_on_c, 0, 43, 0
2, 35379, Note_on_c, 0, 43, 0
2, 35400, Note_on_c, 0, 50, 69
2, 35400, Note_on_c, 0, 46, 58
2, 35400, Note_on_c, 0, 43, 50
2, 35438, Note_on_c, 0, 43, 0
2, 35440, Note_on_c, 0, 46, 0
2, 35443, Note_on_c, 0, 50, 0
2, 35460, Note_on_c, 0, 50, 87
2, 35460, Note_on_c, 0, 46, 53
2, 35460, Note_on_c, 0, 43, 72
2, 35494, Note_on_c, 0, 43, 0
2, 35494, Note_on_c, 0, 46, 0
2, 35498, Note_on_c, 0, 50, 0
2, 35520, Note_on_c, 0, 55, 59
2, 35520, Note_on_c, 0, 50, 62
2, 35520, Note_on_c, 0, 46, 49
2, 35558, Note_on_c, 0, 46, 0
2, 35565, Note_on_c, 0, 50, 0
2, 35566, Note_on_c, 0, 55, 0
2, 35580, Note_on_c, 0, 55, 100
2, 35580, Note_on_c, 0, 50, 46
2, 35580, Note_on_c, 0, 46, 84
2, 35611, Note_on_c, 0, 50, 0
2, 35613, Note_on_c, 0, 46, 0
2, 35620, Note_on_c, 0, 55, 0
2, 35640, Note_on_c, 0, 58, 67
2, 35640, Note_on_c, 0, 55, 59
2, 35640, Note_on_c, 0, 50, 54
2, 35675, Note_on_c, 0, 50, 0
2, 35680, Note_on_c, 0, 58, 0
2, 35686, Note_on_c, 0, 55, 0
2, 35700, Note_on_c, 0, 58, 94
2, 35700, Note_on_c, 0, 55, 60
2, 35700, Note_on_c, 0, 50, 72
2, 35736, Note_on_c, 0, 50, 0
2, 35740, Note_on_c, 0, 55, 0
2, 35741, Note_on_c, 0, 58, 0
2, 35760, Note_on_c, 0, 62, 52
2, 35760, Note_on_c, 0, 58, 74
2, 35760, Note_on_c, 0, 55, 58
2, 35799, Note_on_c, 0, 55, 0
2, 35800, Note_on_c, 0, 62, 0
2, 35801, Note_on_c, 0, 58, 0
2, 35820, Note_on_c, 0, 62, 84
2, 35820, Note_on_c, 0, 58, 59
2, 35820, Note_on_c, 0, 55, 72
2, 35853, Note_on_c, 0, 62, 0
2, 35856, Note_on_c, 0, 55, 0
2, 35861, Note_on_c, 0, 58, 0
2, 35880, Note_on_c, 0, 62, 60
2, 35880, Note_on_c, 0, 58, 61
2, 35880, Note_on_c, 0, 55, 59
2, 35919, Note_on_c, 0, 55, 0
2, 35923, Note_on_c, 0, 58, 0
2, 35927, Note_on_c, 0, 62, 0
2, 35940, Note_on_c, 0, 65, 100
2, 35940, Note_on_c, 0, 62, 57
2, 35940, Note_on_c, 0, 58, 59
2, 35970, Note_on_c, 0, 58, 0
2, 35970, Note_on_c, 0, 65, 0
2, 35981, Note_on_c, 0, 62, 0
2, 36000, Note_on_c, 0, 62, 51
2, 36000, Note_on_c, 0, 58, 54
2, 36000, Note_on_c, 0, 55, 51
2, 36360, Note_on_c, 0, 46, 87
2, 36430, Note_on_c, 0, 46, 0
2, 36480, Note_on_c, 0, 48, 75
2, 36926, Note_on_c, 0, 48, 0
2, 36926, Note_on_c, 0, 62, 0
2, 36939, Note_on_c, 0, 58, 0
2, 36955, Note_on_c, 0, 55, 0
2, 48480, Note_on_c, 0, 41, 100
2, 48788, Note_on_c, 0, 41, 0
2, 48903, Note_on_c, 0, 44, 79
2, 48923, Note_on_c, 0, 44, 0
2, 48960, Note_on_c, 0, 46, 87
2, 49368, Note_on_c, 0, 46, 0
2, 49440, Note_on_c, 0, 41, 60
2, 49445, Note_on_c, 0, 41, 0
2, 49560, Note_on_c, 0, 41, 84
2, 49673, Note_on_c, 0, 41, 0
2, 49680, Note_on_c, 0, 41, 84
2, 49857, Note_on_c, 0, 41, 0
2, 49860, Note_on_c, 0, 44, 69
2, 49896, Note_on_c, 0, 44, 0
2, 49920, Note_on_c, 0, 46, 79
2, 50325, Note_on_c, 0, 46, 0
2, 50400, Note_on_c, 0, 41, 100
2, 50708, Note_on_c, 0, 41, 0
2, 50823, Note_on_c, 0, 44, 79
2, 50843, Note_on_c, 0, 44, 0
2, 50880, Note_on_c, 0, 46, 79
2, 51304, Note_on_c, 0, 46, 0
2, 51360, Note_on_c, 0, 41, 69
2, 51373, Note_on_c, 0, 41, 0
2, 51480, Note_on_c, 0, 41, 75
2, 51591, Note_on_c, 0, 41, 0
2, 51600, Note_on_c, 0, 41, 75
2, 51771, Note_on_c, 0, 41, 0
2, 51780, Note_on_c, 0, 44, 72
2, 51819, Note_on_c, 0, 44, 0
2, 51840, Note_on_c, 0, 46, 72
2, 52214, Note_on_c, 0, 46, 0
2, 52260, Note_on_c, 0, 36, 87
2, 52317, Note_on_c, 0, 36, 0
2, 52320, Note_on_c, 0, 41, 65
2, 52365, Note_on_c, 0, 41, 0
2, 52380, Note_on_c, 0, 41, 87
2, 52423, Note_on_c, 0, 41, 0
2, 52440, Note_on_c, 0, 44, 60
2, 52480, Note_on_c, 0, 44, 0
2, 52500, Note_on_c, 0, 41, 52
2, 52500, Note_on_c, 0, 44, 94
2, 52528, Note_on_c, 0, 41, 0
2, 52537, Note_on_c, 0, 44, 0
2, 52560, Note_on_c, 0, 44, 59
2, 52560, Note_on_c, 0, 48, 45
2, 52560, Note_on_c, 0, 41, 65
2, 52596, Note_on_c, 0, 41, 0
2, 52601, Note_on_c, 0, 44, 0
2, 52602, Note_on_c, 0, 48, 0
2, 52620, Note_on_c, 0, 48, 100
2, 52620, Note_on_c, 0, 44, 56
2, 52620, Note_on_c, 0, 41, 58
2, 52653, Note_on_c, 0, 44, 0
2, 52657, Note_on_c, 0, 41, 0
2, 52662, Note_on_c, 0, 48, 0
2, 52680, Note_on_c, 0, 48, 65
2, 52680, Note_on_c, 0, 41, 58
2, 52680, Note_on_c, 0, 44, 56
2, 52716, Note_on_c, 0, 44, 0
2, 52720, Note_on_c, 0, 41, 0
2, 52725, Note_on_c, 0, 48, 0
2, 52740, Note_on_c, 0, 44, 50
2, 52740, Note_on_c, 0, 48, 100
2, 52740, Note_on_c, 0, 41, 53
2, 52771, Note_on_c, 0, 44, 0
2, 52776, Note_on_c, 0, 41, 0
2, 52783, Note_on_c, 0, 48, 0
2, 52800, Note_on_c, 0, 48, 55
2, 52800, Note_on_c, 0, 44, 63
2, 52800, Note_on_c, 0, 53, 59
2, 52836, Note_on_c, 0, 48, 0
2, 52838, Note_on_c, 0, 44, 0
2, 52842, Note_on_c, 0, 53, 0
2, 52860, Note_on_c, 0, 48, 47
2, 52860, Note_on_c, 0, 44, 59
2, 52860, Note_on_c, 0, 53, 100
2, 52893, Note_on_c, 0, 44, 0
2, 52898, Note_on_c, 0, 48, 0
2, 52905, Note_on_c, 0, 53, 0
2, 52920, Note_on_c, 0, 53, 58
2, 52920, Note_on_c, 0, 56, 65
2, 52920, Note_on_c, 0, 48, 58
2, 52960, Note_on_c, 0, 48, 0
2, 52960, Note_on_c, 0, 53, 0
2, 52961, Note_on_c, 0, 56, 0
2, 52980, Note_on_c, 0, 56, 87
2, 52980, Note_on_c, 0, 53, 58
2, 52980, Note_on_c, 0, 48, 69
2, 53015, Note_on_c, 0, 48, 0
2, 53016, Note_on_c, 0, 53, 0
2, 53023, Note_on_c, 0, 56, 0
2, 53040, Note_on_c, 0, 60, 48
2, 53040, Note_on_c, 0, 53, 51
2, 53040, Note_on_c, 0, 56, 65
2, 53079, Note_on_c, 0, 56, 0
2, 53080, Note_on_c, 0, 53, 0
2, 53081, Note_on_c, 0, 60, 0
2, 53100, Note_on_c, 0, 56, 51
2, 53100, Note_on_c, 0, 53, 75
2, 53100, Note_on_c, 0, 60, 84
2, 53135, Note_on_c, 0, 53, 0
2, 53135, Note_on_c, 0, 56, 0
2, 53142, Note_on_c, 0, 60, 0
2, 53160, Note_on_c, 0, 56, 65
2, 53160, Note_on_c, 0, 53, 55
2, 53160, Note_on_c, 0, 60, 65
2, 53196, Note_on_c, 0, 56, 0
2, 53204, Note_on_c, 0, 53, 0
2, 53206, Note_on_c, 0, 60, 0
2, 53220, Note_on_c, 0, 60, 53
2, 53220, Note_on_c, 0, 63, 84
2, 53220, Note_on_c, 0, 56, 65
2, 53252, Note_on_c, 0, 60, 0
2, 53254, Note_on_c, 0, 56, 0
2, 53258, Note_on_c, 0, 63, 0
2, 53280, Note_on_c, 0, 53, 60
2, 53280, Note_on_c, 0, 56, 58
2, 53280, Note_on_c, 0, 60, 58
2, 54146, Note_on_c, 0, 60, 0
2, 54152, Note_on_c, 0, 56, 0
2, 54180, Note_on_c, 0, 36, 60
2, 54209, Note_on_c, 0, 53, 0
2, 54233, Note_on_c, 0, 36, 0
2, 54240, Note_on_c, 0, 41, 65
2, 54285, Note_on_c, 0, 41, 0
2, 54300, Note_on_c, 0, 41, 87
2, 54343, Note_on_c, 0, 41, 0
2, 54360, Note_on_c, 0, 44, 60
2, 54400, Note_on_c, 0, 44, 0
2, 54420, Note_on_c, 0, 41, 52
2, 54420, Note_on_c, 0, 44, 94
2, 54448, Note_on_c, 0, 41, 0
2, 54457, Note_on_c, 0, 44, 0
2, 54480, Note_on_c, 0, 44, 59
2, 54480, Note_on_c, 0, 48, 45
2, 54480, Note_on_c, 0, 41, 65
2, 54516, Note_on_c, 0, 41, 0
2, 54521, Note_on_c, 0, 44, 0
2, 54522, Note_on_c, 0, 48, 0
2, 54540, Note_on_c, 0, 48, 100
2, 54540, Note_on_c, 0, 44, 56
2, 54540, Note_on_c, 0, 41, 58
2, 54573, Note_on_c, 0, 44, 0
2, 54577, Note_on_c, 0, 41, 0
2, 54582, Note_on_c, 0, 48, 0
2, 54600, Note_on_c, 0, 48, 65
2, 54600, Note_on_c, 0, 41, 58
2, 54600, Note_on_c, 0, 44, 56
2, 54636, Note_on_c, 0, 44, 0
2, 54640, Note_on_c, 0, 41, 0
2, 54645, Note_on_c, 0, 48, 0
2, 54660, Note_on_c, 0, 44, 50
2, 54660, Note_on_c, 0, 48, 100
2, 54660, Note_on_c, 0, 41, 53
2, 54691, Note_on_c, 0, 44, 0
2, 54696, Note_on_c, 0, 41, 0
2, 54703, Note_on_c, 0, 48, 0
2, 54720, Note_on_c, 0, 48, 55
2, 54720, Note_on_c, 0, 44, 63
2, 54720, Note_on_c, 0, 53, 59
2, 54756, Note_on_c, 0, 48, 0
2, 54758, Note_on_c, 0, 44, 0
2, 54762, Note_on_c, 0, 53, 0
2, 54780, Note_on_c, 0, 48, 47
2, 54780, Note_on_c, 0, 44, 59
2, 54780, Note_on_c, 0, 53, 100
2, 54813, Note_on_c, 0, 44, 0
2, 54818, Note_on_c, 0, 48, 0
2, 54825, Note_on_c, 0, 53, 0
2, 54840, Note_on_c, 0, 53, 58
2, 54840, Note_on_c, 0, 56, 65
2, 54840, Note_on_c, 0, 48, 58
2, 54880, Note_on_c, 0, 48, 0
2, 54880, Note_on_c, 0, 53, 0
2, 54881, Note_on_c, 0, 56, 0
2, 54900, Note_on_c, 0, 56, 87
2, 54900, Note_on_c, 0, 53, 58
2, 54900, Note_on_c, 0, 48, 69
2, 54935, Note_on_c, 0, 48, 0
2, 54936, Note_on_c, 0, 53, 0
2, 54943, Note_on_c, 0, 56, 0
2, 54960, Note_on_c, 0, 60, 48
2, 54960, Note_on_c, 0, 53, 51
2, 54960, Note_on_c, 0, 56, 65
2, 54999, Note_on_c, 0, 56, 0
2, 55000, Note_on_c, 0, 53, 0
2, 55001, Note_on_c, 0, 60, 0
2, 55020, Note_on_c, 0, 56, 51
2, 55020, Note_on_c, 0, 53, 75
2, 55020, Note_on_c, 0, 60, 84
2, 55055, Note_on_c, 0, 53, 0
2, 55055, Note_on_c, 0, 56, 0
2, 55062, Note_on_c, 0, 60, 0
2, 55080, Note_on_c, 0, 56, 65
2, 55080, Note_on_c, 0, 53, 55
2, 55080, Note_on_c, 0, 60, 65
2, 55116, Note_on_c, 0, 56, 0
2, 55124, Note_on_c, 0, 53, 0
2, 55126, Note_on_c, 0, 60, 0
2, 55140, Note_on_c, 0, 60, 53
2, 55140, Note_on_c, 0, 63, 84
2, 55140, Note_on_c, 0, 56, 65
2, 55172, Note_on_c, 0, 60, 0
2, 55174, Note_on_c, 0, 56, 0
2, 55178, Note_on_c, 0, 63, 0
2, 55200, Note_on_c, 0, 53, 60
2, 55200, Note_on_c, 0, 56, 58
2, 55200, Note_on_c, 0, 60, 58
2, 56066, Note_on_c, 0, 60, 0
2, 56072, Note_on_c, 0, 56, 0
2, 56100, Note_on_c, 0, 36, 60
2, 56129, Note_on_c, 0, 53, 0
2, 56153, Note_on_c, 0, 36, 0
2, 56164, Note_on_c, 0, 41, 59
2, 56164, Note_on_c, 0, 53, 84
2, 56540, Note_on_c, 0, 41, 0
2, 56545, Note_on_c, 0, 53, 0
2, 56577, Note_on_c, 0, 48, 54
2, 56579, Note_on_c, 0, 60, 59
2, 56610, Note_on_c, 0, 48, 0
2, 56612, Note_on_c, 0, 60, 0
2, 56635, Note_on_c, 0, 46, 58
2, 56636, Note_on_c, 0, 58, 59
2, 56701, Note_on_c, 0, 60, 69
2, 56742, Note_on_c, 0, 60, 0
2, 56762, Note_on_c, 0, 58, 60
2, 56814, Note_on_c, 0, 48, 51
2, 56847, Note_on_c, 0, 48, 0
2, 56875, Note_on_c, 0, 46, 52
2, 56908, Note_on_c, 0, 58, 0
2, 57056, Note_on_c, 0, 46, 0
2, 57062, Note_on_c, 0, 58, 0
2, 57120, Note_on_c, 0, 46, 0
2, 57120, Note_on_c, 0, 41, 56
2, 57120, Note_on_c, 0, 53, 84
2, 57141, Note_on_c, 0, 53, 0
2, 57142, Note_on_c, 0, 41, 0
2, 57245, Note_on_c, 0, 53, 63
2, 57245, Note_on_c, 0, 41, 53
2, 57340, Note_on_c, 0, 41, 0
2, 57347, Note_on_c, 0, 53, 0
2, 57354, Note_on_c, 0, 53, 65
2, 57358, Note_on_c, 0, 41, 51
2, 57528, Note_on_c, 0, 41, 0
2, 57531, Note_on_c, 0, 53, 0
2, 57537, Note_on_c, 0, 48, 54
2, 57542, Note_on_c, 0, 60, 59
2, 57579, Note_on_c, 0, 48, 0
2, 57588, Note_on_c, 0, 60, 0
2, 57600, Note_on_c, 0, 46, 53
2, 57603, Note_on_c, 0, 58, 67
2, 57660, Note_on_c, 0, 60, 65
2, 57697, Note_on_c, 0, 60, 0
2, 57719, Note_on_c, 0, 58, 54
2, 57776, Note_on_c, 0, 48, 53
2, 57813, Note_on_c, 0, 48, 0
2, 57835, Note_on_c, 0, 46, 50
2, 57868, Note_on_c, 0, 58, 0
2, 57994, Note_on_c, 0, 46, 0
2, 58000, Note_on_c, 0, 58, 0
2, 58078, Note_on_c, 0, 41, 50
2, 58079, Note_on_c, 0, 53, 67
2, 58084, Note_on_c, 0, 46, 0
2, 58449, Note_on_c, 0, 41, 0
2, 58458, Note_on_c, 0, 53, 0
2, 58498, Note_on_c, 0, 48, 57
2, 58500, Note_on_c, 0, 60, 58
2, 58520, Note_on_c, 0, 48, 0
2, 58525, Note_on_c, 0, 60, 0
2, 58557, Note_on_c, 0, 46, 59
2, 58559, Note_on_c, 0, 58, 62
2, 58621, Note_on_c, 0, 60, 75
2, 58663, Note_on_c, 0, 60, 0
2, 58681, Note_on_c, 0, 58, 50
2, 58740, Note_on_c, 0, 48, 65
2, 58785, Note_on_c, 0, 48, 0
2, 58795, Note_on_c, 0, 46, 55
2, 58833, Note_on_c, 0, 58, 0
2, 58858, Note_on_c, 0, 60, 37
2, 58892, Note_on_c, 0, 60, 0
2, 58920, Note_on_c, 0, 58, 41
2, 58967, Note_on_c, 0, 46, 0
2, 58973, Note_on_c, 0, 58, 0
2, 59015, Note_on_c, 0, 58, 0
2, 59025, Note_on_c, 0, 46, 0
2, 59039, Note_on_c, 0, 53, 60
2, 59041, Note_on_c, 0, 41, 48
2, 59058, Note_on_c, 0, 41, 0
2, 59058, Note_on_c, 0, 53, 0
2, 59158, Note_on_c, 0, 41, 57
2, 59159, Note_on_c, 0, 53, 61
2, 59248, Note_on_c, 0, 41, 0
2, 59263, Note_on_c, 0, 53, 0
2, 59272, Note_on_c, 0, 53, 61
2, 59274, Note_on_c, 0, 41, 45
2, 59419, Note_on_c, 0, 41, 0
2, 59426, Note_on_c, 0, 53, 0
2, 59454, Note_on_c, 0, 48, 52
2, 59454, Note_on_c, 0, 60, 57
2, 59484, Note_on_c, 0, 48, 0
2, 59496, Note_on_c, 0, 60, 0
2, 59514, Note_on_c, 0, 46, 58
2, 59515, Note_on_c, 0, 58, 61
2, 59578, Note_on_c, 0, 60, 63
2, 59618, Note_on_c, 0, 60, 0
2, 59637, Note_on_c, 0, 58, 56
2, 59698, Note_on_c, 0, 48, 46
2, 59732, Note_on_c, 0, 48, 0
2, 59757, Note_on_c, 0, 46, 51
2, 59808, Note_on_c, 0, 58, 0
2, 59814, Note_on_c, 0, 60, 46
2, 59848, Note_on_c, 0, 60, 0
2, 59881, Note_on_c, 0, 58, 44
2, 59937, Note_on_c, 0, 46, 0
2, 59937, Note_on_c, 0, 58, 0
2, 59994, Note_on_c, 0, 41, 52
2, 59997, Note_on_c, 0, 53, 58
2, 60001, Note_on_c, 0, 58, 0
2, 60005, Note_on_c, 0, 46, 0
2, 60361, Note_on_c, 0, 41, 0
2, 60369, Note_on_c, 0, 53, 0
2, 60417, Note_on_c, 0, 48, 58
2, 60418, Note_on_c, 0, 60, 58
2, 60439, Note_on_c, 0, 48, 0
2, 60445, Note_on_c, 0, 60, 0
2, 60477, Note_on_c, 0, 46, 59
2, 60479, Note_on_c, 0, 58, 60
2, 60539, Note_on_c, 0, 60, 75
2, 60586, Note_on_c, 0, 60, 0
2, 60598, Note_on_c, 0, 58, 54
2, 60659, Note_on_c, 0, 48, 51
2, 60699, Note_on_c, 0, 48, 0
2, 60716, Note_on_c, 0, 46, 53
2, 60775, Note_on_c, 0, 60, 42
2, 60778, Note_on_c, 0, 58, 0
2, 60805, Note_on_c, 0, 60, 0
2, 60841, Note_on_c, 0, 58, 55
2, 60882, Note_on_c, 0, 46, 0
2, 60884, Note_on_c, 0, 58, 0
2, 60954, Note_on_c, 0, 41, 47
2, 60958, Note_on_c, 0, 53, 55
2, 60960, Note_on_c, 0, 58, 0
2, 60963, Note_on_c, 0, 46, 0
2, 60981, Note_on_c, 0, 41, 0
2, 60981, Note_on_c, 0, 53, 0
2, 61077, Note_on_c, 0, 41, 51
2, 61079, Note_on_c, 0, 53, 63
2, 61170, Note_on_c, 0, 41, 0
2, 61183, Note_on_c, 0, 53, 0
2, 61197, Note_on_c, 0, 41, 50
2, 61197, Note_on_c, 0, 53, 63
2, 61337, Note_on_c, 0, 41, 0
2, 61346, Note_on_c, 0, 53, 0
2, 61382, Note_on_c, 0, 48, 48
2, 61383, Note_on_c, 0, 60, 59
2, 61430, Note_on_c, 0, 48, 0
2, 61431, Note_on_c, 0, 60, 0
2, 61439, Note_on_c, 0, 46, 58
2, 61443, Note_on_c, 0, 58, 63
2, 61499, Note_on_c, 0, 60, 60
2, 61541, Note_on_c, 0, 60, 0
2, 61559, Note_on_c, 0, 58, 53
2, 61615, Note_on_c, 0, 48, 50
2, 61648, Note_on_c, 0, 48, 0
2, 61676, Note_on_c, 0, 46, 54
2, 61717, Note_on_c, 0, 58, 0
2, 61739, Note_on_c, 0, 60, 48
2, 61783, Note_on_c, 0, 60, 0
2, 61801, Note_on_c, 0, 58, 49
2, 61832, Note_on_c, 0, 46, 0
2, 61833, Note_on_c, 0, 58, 0
2, 61911, Note_on_c, 0, 58, 0
2, 61916, Note_on_c, 0, 46, 0
2, 61918, Note_on_c, 0, 53, 60
2, 61919, Note_on_c, 0, 41, 53
2, 62287, Note_on_c, 0, 41, 0
2, 62294, Note_on_c, 0, 53, 0
2, 62335, Note_on_c, 0, 60, 54
2, 62335, Note_on_c, 0, 48, 50
2, 62365, Note_on_c, 0, 60, 0
2, 62366, Note_on_c, 0, 48, 0
2, 62394, Note_on_c, 0, 46, 59
2, 62396, Note_on_c, 0, 58, 59
2, 62460, Note_on_c, 0, 60, 64
2, 62508, Note_on_c, 0, 60, 0
2, 62521, Note_on_c, 0, 58, 56
2, 62578, Note_on_c, 0, 48, 47
2, 62612, Note_on_c, 0, 48, 0
2, 62639, Note_on_c, 0, 46, 53
2, 62682, Note_on_c, 0, 58, 0
2, 62697, Note_on_c, 0, 60, 44
2, 62723, Note_on_c, 0, 60, 0
2, 62764, Note_on_c, 0, 58, 52
2, 62782, Note_on_c, 0, 58, 0
2, 62786, Note_on_c, 0, 46, 0
2, 62876, Note_on_c, 0, 41, 59
2, 62877, Note_on_c, 0, 53, 58
2, 62880, Note_on_c, 0, 58, 0
2, 62881, Note_on_c, 0, 46, 0
2, 62895, Note_on_c, 0, 53, 0
2, 62896, Note_on_c, 0, 41, 0
2, 62999, Note_on_c, 0, 41, 50
2, 63001, Note_on_c, 0, 53, 63
2, 63091, Note_on_c, 0, 41, 0
2, 63102, Note_on_c, 0, 53, 0
2, 63116, Note_on_c, 0, 53, 61
2, 63118, Note_on_c, 0, 41, 52
2, 63247, Note_on_c, 0, 41, 0
2, 63255, Note_on_c, 0, 53, 0
2, 63302, Note_on_c, 0, 48, 47
2, 63304, Note_on_c, 0, 60, 58
2, 63351, Note_on_c, 0, 48, 0
2, 63358, Note_on_c, 0, 60, 0
2, 63360, Note_on_c, 0, 46, 55
2, 63364, Note_on_c, 0, 58, 57
2, 63418, Note_on_c, 0, 60, 69
2, 63462, Note_on_c, 0, 60, 0
2, 63478, Note_on_c, 0, 58, 62
2, 63537, Note_on_c, 0, 48, 45
2, 63573, Note_on_c, 0, 48, 0
2, 63590, Note_on_c, 0, 46, 52
2, 63739, Note_on_c, 0, 58, 0
2, 63740, Note_on_c, 0, 46, 0
2, 63837, Note_on_c, 0, 58, 0
2, 63838, Note_on_c, 0, 46, 0
2, 63840, Note_on_c, 0, 41, 65
2, 63885, Note_on_c, 0, 41, 0
2, 63900, Note_on_c, 0, 41, 87
2, 63943, Note_on_c, 0, 41, 0
2, 63960, Note_on_c, 0, 44, 60
2, 64000, Note_on_c, 0, 44, 0
2, 64020, Note_on_c, 0, 44, 94
2, 64020, Note_on_c, 0, 41, 52
2, 64048, Note_on_c, 0, 41, 0
2, 64057, Note_on_c, 0, 44, 0
2, 64080, Note_on_c, 0, 44, 59
2, 64080, Note_on_c, 0, 48, 45
2, 64080, Note_on_c, 0, 41, 65
2, 64116, Note_on_c, 0, 41, 0
2, 64121, Note_on_c, 0, 44, 0
2, 64122, Note_on_c, 0, 48, 0
2, 64140, Note_on_c, 0, 48, 100
2, 64140, Note_on_c, 0, 41, 58
2, 64140, Note_on_c, 0, 44, 56
2, 64173, Note_on_c, 0, 44, 0
2, 64177, Note_on_c, 0, 41, 0
2, 64182, Note_on_c, 0, 48, 0
2, 64200, Note_on_c, 0, 44, 56
2, 64200, Note_on_c, 0, 41, 58
2, 64200, Note_on_c, 0, 48, 65
2, 64236, Note_on_c, 0, 44, 0
2, 64240, Note_on_c, 0, 41, 0
2, 64245, Note_on_c, 0, 48, 0
2, 64260, Note_on_c, 0, 41, 53
2, 64260, Note_on_c, 0, 44, 50
2, 64260, Note_on_c, 0, 48, 100
2, 64291, Note_on_c, 0, 44, 0
2, 64296, Note_on_c, 0, 41, 0
2, 64303, Note_on_c, 0, 48, 0
2, 64320, Note_on_c, 0, 44, 63
2, 64320, Note_on_c, 0, 48, 55
2, 64320, Note_on_c, 0, 53, 59
2, 64356, Note_on_c, 0, 48, 0
2, 64358, Note_on_c, 0, 44, 0
2, 64362, Note_on_c, 0, 53, 0
2, 64380, Note_on_c, 0, 53, 100
2, 64380, Note_on_c, 0, 48, 47
2, 64380, Note_on_c, 0, 44, 59
2, 64413, Note_on_c, 0, 44, 0
2, 64418, Note_on_c, 0, 48, 0
2, 64425, Note_on_c, 0, 53, 0
2, 64440, Note_on_c, 0, 56, 65
2, 64440, Note_on_c, 0, 53, 58
2, 64440, Note_on_c, 0, 48, 58
2, 64480, Note_on_c, 0, 48, 0
2, 64480, Note_on_c, 0, 53, 0
2, 64481, Note_on_c, 0, 56, 0
2, 64500, Note_on_c, 0, 53, 58
2, 64500, Note_on_c, 0, 56, 87
2, 64500, Note_on_c, 0, 48, 69
2, 64535, Note_on_c, 0, 48, 0
2, 64536, Note_on_c, 0, 53, 0
2, 64543, Note_on_c, 0, 56, 0
2, 64560, Note_on_c, 0, 53, 51
2, 64560, Note_on_c, 0, 56, 65
2, 64560, Note_on_c, 0, 60, 48
2, 64599, Note_on_c, 0, 56, 0
2, 64600, Note_on_c, 0, 53, 0
2, 64601, Note_on_c, 0, 60, 0
2, 64620, Note_on_c, 0, 60, 84
2, 64620, Note_on_c, 0, 53, 75
2, 64620, Note_on_c, 0, 56, 51
2, 64655, Note_on_c, 0, 56, 0
2, 64655, Note_on_c, 0, 53, 0
2, 64662, Note_on_c, 0, 60, 0
2, 64680, Note_on_c, 0, 56, 65
2, 64680, Note_on_c, 0, 53, 55
2, 64680, Note_on_c, 0, 60, 65
2, 64716, Note_on_c, 0, 56, 0
2, 64724, Note_on_c, 0, 53, 0
2, 64726, Note_on_c, 0, 60, 0
2, 64740, Note_on_c, 0, 60, 53
2, 64740, Note_on_c, 0, 56, 65
2, 64740, Note_on_c, 0, 63, 84
2, 64772, Note_on_c, 0, 60, 0
2, 64774, Note_on_c, 0, 56, 0
2, 64778, Note_on_c, 0, 63, 0
2, 64800, Note_on_c, 0, 53, 60
2, 64800, Note_on_c, 0, 60, 58
2, 64800, Note_on_c, 0, 56, 58
2, 65666, Note_on_c, 0, 60, 0
2, 65672, Note_on_c, 0, 56, 0
2, 65704, Note_on_c, 0, 36, 60
2, 65729, Note_on_c, 0, 53, 0
2, 65757, Note_on_c, 0, 36, 0
2, 65760, Note_on_c, 0, 41, 65
2, 65805, Note_on_c, 0, 41, 0
2, 65820, Note_on_c, 0, 41, 87
2, 65863, Note_on_c, 0, 41, 0
2, 65880, Note_on_c, 0, 44, 60
2, 65920, Note_on_c, 0, 44, 0
2, 65940, Note_on_c, 0, 44, 94
2, 65940, Note_on_c, 0, 41, 52
2, 65968, Note_on_c, 0, 41, 0
2, 65977, Note_on_c, 0, 44, 0
2, 66000, Note_on_c, 0, 44, 59
2, 66000, Note_on_c, 0, 48, 45
2, 66000, Note_on_c, 0, 41, 65
2, 66036, Note_on_c, 0, 41, 0
2, 66041, Note_on_c, 0, 44, 0
2, 66042, Note_on_c, 0, 48, 0
2, 66060, Note_on_c, 0, 48, 100
2, 66060, Note_on_c, 0, 41, 58
2, 66060, Note_on_c, 0, 44, 56
2, 66093, Note_on_c, 0, 44, 0
2, 66097, Note_on_c, 0, 41, 0
2, 66102, Note_on_c, 0, 48, 0
2, 66120, Note_on_c, 0, 44, 56
2, 66120, Note_on_c, 0, 41, 58
2, 66120, Note_on_c, 0, 48, 65
2, 66156, Note_on_c, 0, 44, 0
2, 66160, Note_on_c, 0, 41, 0
2, 66165, Note_on_c, 0, 48, 0
2, 66180, Note_on_c, 0, 41, 53
2, 66180, Note_on_c, 0, 44, 50
2, 66180, Note_on_c, 0, 48, 100
2, 66211, Note_on_c, 0, 44, 0
2, 66216, Note_on_c, 0, 41, 0
2, 66223, Note_on_c, 0, 48, 0
2, 66240, Note_on_c, 0, 44, 63
2, 66240, Note_on_c, 0, 48, 55
2, 66240, Note_on_c, 0, 53, 59
2, 66276, Note_on_c, 0, 48, 0
2, 66278, Note_on_c, 0, 44, 0
2, 66282, Note_on_c, 0, 53, 0
2, 66300, Note_on_c, 0, 53, 100
2, 66300, Note_on_c, 0, 48, 47
2, 66300, Note_on_c, 0, 44, 59
2, 66333, Note_on_c, 0, 44, 0
2, 66338, Note_on_c, 0, 48, 0
2, 66345, Note_on_c, 0, 53, 0
2, 66360, Note_on_c, 0, 56, 65
2, 66360, Note_on_c, 0, 53, 58
2, 66360, Note_on_c, 0, 48, 58
2, 66400, Note_on_c, 0, 48, 0
2, 66400, Note_on_c, 0, 53, 0
2, 66401, Note_on_c, 0, 56, 0
2, 66420, Note_on_c, 0, 53, 58
2, 66420, Note_on_c, 0, 56, 87
2, 66420, Note_on_c, 0, 48, 69
2, 66455, Note_on_c, 0, 48, 0
2, 66456, Note_on_c, 0, 53, 0
2, 66463, Note_on_c, 0, 56, 0
2, 66480, Note_on_c, 0, 53, 51
2, 66480, Note_on_c, 0, 56, 65
2, 66480, Note_on_c, 0, 60, 48
2, 66519, Note_on_c, 0, 56, 0
2, 66520, Note_on_c, 0, 53, 0
2, 66521, Note_on_c, 0, 60, 0
2, 66540, Note_on_c, 0, 60, 84
2, 66540, Note_on_c, 0, 53, 75
2, 66540, Note_on_c, 0, 56, 51
2, 66575, Note_on_c, 0, 56, 0
2, 66575, Note_on_c, 0, 53, 0
2, 66582, Note_on_c, 0, 60, 0
2, 66600, Note_on_c, 0, 56, 65
2, 66600, Note_on_c, 0, 53, 55
2, 66600, Note_on_c, 0, 60, 65
2, 66636, Note_on_c, 0, 56, 0
2, 66644, Note_on_c, 0, 53, 0
2, 66646, Note_on_c, 0, 60, 0
2, 66660, Note_on_c, 0, 60, 53
2, 66660, Note_on_c, 0, 56, 65
2, 66660, Note_on_c, 0, 63, 84
2, 66692, Note_on_c, 0, 60, 0
2, 66694, Note_on_c, 0, 56, 0
2, 66698, Note_on_c, 0, 63, 0
2, 66720, Note_on_c, 0, 53, 60
2, 66720, Note_on_c, 0, 60, 58
2, 66720, Note_on_c, 0, 56, 58
2, 66783, Note_on_c, 0, 63, 45
2, 66819, Note_on_c, 0, 63, 0
2, 66846, Note_on_c, 0, 60, 46
2, 67680, Note_on_c, 0, 53, 0
2, 67680, Note_on_c, 0, 56, 0
2, 67680, Note_on_c, 0, 60, 0
2, 67686, Note_on_c, 0, 60, 0
2, 67686, End_track
3, 0, Start_track
3, 0, MIDI_port, 0
3, 0, Title_t, "Bass"
3, 0, Control_c, 1, 91, 0
3, 127, Program_c, 1, 37
3, 128, Control_c, 1, 7, 108
3, 128, Control_c, 1, 10, 64
3, 4320, Note_on_c, 1, 32, 127
3, 4334, Note_on_c, 1, 32, 0
3, 4350, Note_on_c, 1, 29, 127
3, 4363, Note_on_c, 1, 29, 0
3, 4380, Note_on_c, 1, 32, 127
3, 4394, Note_on_c, 1, 32, 0
3, 4410, Note_on_c, 1, 44, 127
3, 4426, Note_on_c, 1, 44, 0
3, 4800, Note_on_c, 1, 32, 127
3, 4817, Note_on_c, 1, 32, 0
3, 4830, Note_on_c, 1, 29, 127
3, 4847, Note_on_c, 1, 29, 0
3, 4860, Note_on_c, 1, 32, 127
3, 4874, Note_on_c, 1, 32, 0
3, 4890, Note_on_c, 1, 44, 127
3, 4907, Note_on_c, 1, 44, 0
3, 5280, Note_on_c, 1, 32, 127
3, 5294, Note_on_c, 1, 32, 0
3, 5310, Note_on_c, 1, 29, 127
3, 5323, Note_on_c, 1, 29, 0
3, 5340, Note_on_c, 1, 32, 127
3, 5354, Note_on_c, 1, 32, 0
3, 5370, Note_on_c, 1, 44, 127
3, 5386, Note_on_c, 1, 44, 0
3, 5760, Note_on_c, 1, 32, 127
3, 5777, Note_on_c, 1, 32, 0
3, 5790, Note_on_c, 1, 29, 127
3, 5807, Note_on_c, 1, 29, 0
3, 5820, Note_on_c, 1, 32, 127
3, 5834, Note_on_c, 1, 32, 0
3, 5850, Note_on_c, 1, 44, 127
3, 5867, Note_on_c, 1, 44, 0
3, 6240, Note_on_c, 1, 32, 127
3, 6254, Note_on_c, 1, 32, 0
3, 6270, Note_on_c, 1, 29, 127
3, 6283, Note_on_c, 1, 29, 0
3, 6300, Note_on_c, 1, 32, 127
3, 6314, Note_on_c, 1, 32, 0
3, 6330, Note_on_c, 1, 44, 127
3, 6346, Note_on_c, 1, 44, 0
3, 6720, Note_on_c, 1, 32, 127
3, 6737, Note_on_c, 1, 32, 0
3, 6750, Note_on_c, 1, 29, 127
3, 6767, Note_on_c, 1, 29, 0
3, 6780, Note_on_c, 1, 32, 127
3, 6794, Note_on_c, 1, 32, 0
3, 6810, Note_on_c, 1, 44, 127
3, 6827, Note_on_c, 1, 44, 0
3, 7200, Note_on_c, 1, 32, 127
3, 7214, Note_on_c, 1, 32, 0
3, 7230, Note_on_c, 1, 29, 127
3, 7243, Note_on_c, 1, 29, 0
3, 7260, Note_on_c, 1, 32, 127
3, 7274, Note_on_c, 1, 32, 0
3, 7290, Note_on_c, 1, 44, 127
3, 7306, Note_on_c, 1, 44, 0
3, 7680, Note_on_c, 1, 32, 127
3, 7697, Note_on_c, 1, 32, 0
3, 7710, Note_on_c, 1, 29, 127
3, 7727, Note_on_c, 1, 29, 0
3, 7740, Note_on_c, 1, 32, 127
3, 7754, Note_on_c, 1, 32, 0
3, 7770, Note_on_c, 1, 44, 127
3, 7787, Note_on_c, 1, 44, 0
3, 8160, Note_on_c, 1, 32, 127
3, 8174, Note_on_c, 1, 32, 0
3, 8190, Note_on_c, 1, 29, 127
3, 8203, Note_on_c, 1, 29, 0
3, 8220, Note_on_c, 1, 32, 127
3, 8234, Note_on_c, 1, 32, 0
3, 8250, Note_on_c, 1, 44, 127
3, 8266, Note_on_c, 1, 44, 0
3, 8640, Note_on_c, 1, 32, 127
3, 8657, Note_on_c, 1, 32, 0
3, 8670, Note_on_c, 1, 29, 127
3, 8687, Note_on_c, 1, 29, 0
3, 8700, Note_on_c, 1, 32, 127
3, 8714, Note_on_c, 1, 32, 0
3, 8730, Note_on_c, 1, 44, 127
3, 8747, Note_on_c, 1, 44, 0
3, 9120, Note_on_c, 1, 32, 127
3, 9134, Note_on_c, 1, 32, 0
3, 9150, Note_on_c, 1, 29, 127
3, 9163, Note_on_c, 1, 29, 0
3, 9180, Note_on_c, 1, 32, 127
3, 9194, Note_on_c, 1, 32, 0
3, 9210, Note_on_c, 1, 44, 127
3, 9226, Note_on_c, 1, 44, 0
3, 9600, Note_on_c, 1, 32, 127
3, 9617, Note_on_c, 1, 32, 0
3, 9630, Note_on_c, 1, 29, 127
3, 9647, Note_on_c, 1, 29, 0
3, 9660, Note_on_c, 1, 32, 127
3, 9674, Note_on_c, 1, 32, 0
3, 9690, Note_on_c, 1, 44, 127
3, 9707, Note_on_c, 1, 44, 0
3, 10080, Note_on_c, 1, 32, 127
3, 10094, Note_on_c, 1, 32, 0
3, 10110, Note_on_c, 1, 29, 127
3, 10123, Note_on_c, 1, 29, 0
3, 10140, Note_on_c, 1, 32, 127
3, 10154, Note_on_c, 1, 32, 0
3, 10170, Note_on_c, 1, 44, 127
3, 10186, Note_on_c, 1, 44, 0
3, 10560, Note_on_c, 1, 32, 127
3, 10577, Note_on_c, 1, 32, 0
3, 10590, Note_on_c, 1, 29, 127
3, 10607, Note_on_c, 1, 29, 0
3, 10620, Note_on_c, 1, 32, 127
3, 10634, Note_on_c, 1, 32, 0
3, 10650, Note_on_c, 1, 44, 127
3, 10667, Note_on_c, 1, 44, 0
3, 11040, Note_on_c, 1, 32, 127
3, 11054, Note_on_c, 1, 32, 0
3, 11070, Note_on_c, 1, 29, 127
3, 11083, Note_on_c, 1, 29, 0
3, 11100, Note_on_c, 1, 32, 127
3, 11114, Note_on_c, 1, 32, 0
3, 11130, Note_on_c, 1, 44, 127
3, 11146, Note_on_c, 1, 44, 0
3, 11520, Note_on_c, 1, 32, 127
3, 11537, Note_on_c, 1, 32, 0
3, 11550, Note_on_c, 1, 29, 127
3, 11567, Note_on_c, 1, 29, 0
3, 11580, Note_on_c, 1, 32, 127
3, 11594, Note_on_c, 1, 32, 0
3, 11610, Note_on_c, 1, 44, 127
3, 11627, Note_on_c, 1, 44, 0
3, 12000, Note_on_c, 1, 32, 127
3, 12014, Note_on_c, 1, 32, 0
3, 12030, Note_on_c, 1, 29, 127
3, 12043, Note_on_c, 1, 29, 0
3, 12060, Note_on_c, 1, 32, 127
3, 12074, Note_on_c, 1, 32, 0
3, 12090, Note_on_c, 1, 44, 127
3, 12106, Note_on_c, 1, 44, 0
3, 12480, Note_on_c, 1, 32, 127
3, 12497, Note_on_c, 1, 32, 0
3, 12510, Note_on_c, 1, 29, 127
3, 12527, Note_on_c, 1, 29, 0
3, 12540, Note_on_c, 1, 32, 127
3, 12554, Note_on_c, 1, 32, 0
3, 12570, Note_on_c, 1, 44, 127
3, 12587, Note_on_c, 1, 44, 0
3, 12960, Note_on_c, 1, 32, 127
3, 12974, Note_on_c, 1, 32, 0
3, 12990, Note_on_c, 1, 29, 127
3, 13003, Note_on_c, 1, 29, 0
3, 13020, Note_on_c, 1, 32, 127
3, 13034, Note_on_c, 1, 32, 0
3, 13050, Note_on_c, 1, 44, 127
3, 13066, Note_on_c, 1, 44, 0
3, 13440, Note_on_c, 1, 32, 127
3, 13457, Note_on_c, 1, 32, 0
3, 13470, Note_on_c, 1, 29, 127
3, 13487, Note_on_c, 1, 29, 0
3, 13500, Note_on_c, 1, 32, 127
3, 13514, Note_on_c, 1, 32, 0
3, 13530, Note_on_c, 1, 44, 127
3, 13547, Note_on_c, 1, 44, 0
3, 13920, Note_on_c, 1, 29, 127
3, 14218, Note_on_c, 1, 29, 0
3, 14280, Note_on_c, 1, 27, 127
3, 14357, Note_on_c, 1, 27, 0
3, 14400, Note_on_c, 1, 29, 127
3, 14816, Note_on_c, 1, 29, 0
3, 14880, Note_on_c, 1, 29, 127
3, 15186, Note_on_c, 1, 29, 0
3, 15240, Note_on_c, 1, 32, 127
3, 15320, Note_on_c, 1, 32, 0
3, 15360, Note_on_c, 1, 34, 127
3, 15784, Note_on_c, 1, 34, 0
3, 15840, Note_on_c, 1, 31, 127
3, 16146, Note_on_c, 1, 31, 0
3, 16200, Note_on_c, 1, 29, 127
3, 16282, Note_on_c, 1, 29, 0
3, 16320, Note_on_c, 1, 31, 127
3, 16693, Note_on_c, 1, 31, 0
3, 16800, Note_on_c, 1, 31, 127
3, 17110, Note_on_c, 1, 31, 0
3, 17160, Note_on_c, 1, 34, 127
3, 17239, Note_on_c, 1, 34, 0
3, 17280, Note_on_c, 1, 36, 127
3, 17692, Note_on_c, 1, 36, 0
3, 17760, Note_on_c, 1, 29, 127
3, 18058, Note_on_c, 1, 29, 0
3, 18120, Note_on_c, 1, 27, 127
3, 18197, Note_on_c, 1, 27, 0
3, 18240, Note_on_c, 1, 29, 127
3, 18656, Note_on_c, 1, 29, 0
3, 18720, Note_on_c, 1, 29, 127
3, 19026, Note_on_c, 1, 29, 0
3, 19080, Note_on_c, 1, 32, 127
3, 19160, Note_on_c, 1, 32, 0
3, 19200, Note_on_c, 1, 34, 127
3, 19624, Note_on_c, 1, 34, 0
3, 19680, Note_on_c, 1, 31, 127
3, 19986, Note_on_c, 1, 31, 0
3, 20040, Note_on_c, 1, 29, 127
3, 20122, Note_on_c, 1, 29, 0
3, 20160, Note_on_c, 1, 31, 127
3, 20533, Note_on_c, 1, 31, 0
3, 20640, Note_on_c, 1, 31, 127
3, 20950, Note_on_c, 1, 31, 0
3, 21000, Note_on_c, 1, 34, 127
3, 21079, Note_on_c, 1, 34, 0
3, 21120, Note_on_c, 1, 36, 127
3, 21532, Note_on_c, 1, 36, 0
3, 21600, Note_on_c, 1, 32, 127
3, 21600, Note_on_c, 1, 32, 127
3, 21617, Note_on_c, 1, 32, 0
3, 21617, Note_on_c, 1, 32, 0
3, 21630, Note_on_c, 1, 29, 127
3, 21647, Note_on_c, 1, 29, 0
3, 21660, Note_on_c, 1, 32, 127
3, 21673, Note_on_c, 1, 32, 0
3, 21690, Note_on_c, 1, 44, 127
3, 21705, Note_on_c, 1, 44, 0
3, 21870, Note_on_c, 1, 29, 127
3, 21885, Note_on_c, 1, 29, 0
3, 21900, Note_on_c, 1, 32, 127
3, 21917, Note_on_c, 1, 32, 0
3, 21930, Note_on_c, 1, 44, 127
3, 21942, Note_on_c, 1, 44, 0
3, 22080, Note_on_c, 1, 32, 127
3, 22097, Note_on_c, 1, 32, 0
3, 22110, Note_on_c, 1, 29, 127
3, 22124, Note_on_c, 1, 29, 0
3, 22140, Note_on_c, 1, 32, 127
3, 22152, Note_on_c, 1, 32, 0
3, 22170, Note_on_c, 1, 44, 127
3, 22185, Note_on_c, 1, 44, 0
3, 22350, Note_on_c, 1, 29, 127
3, 22364, Note_on_c, 1, 29, 0
3, 22380, Note_on_c, 1, 32, 127
3, 22394, Note_on_c, 1, 32, 0
3, 22410, Note_on_c, 1, 44, 127
3, 22426, Note_on_c, 1, 44, 0
3, 22560, Note_on_c, 1, 32, 127
3, 22574, Note_on_c, 1, 32, 0
3, 22590, Note_on_c, 1, 29, 127
3, 22607, Note_on_c, 1, 29, 0
3, 22620, Note_on_c, 1, 32, 127
3, 22634, Note_on_c, 1, 32, 0
3, 22650, Note_on_c, 1, 44, 127
3, 22665, Note_on_c, 1, 44, 0
3, 22830, Note_on_c, 1, 29, 127
3, 22845, Note_on_c, 1, 29, 0
3, 22860, Note_on_c, 1, 32, 127
3, 22875, Note_on_c, 1, 32, 0
3, 22890, Note_on_c, 1, 44, 127
3, 22905, Note_on_c, 1, 44, 0
3, 23040, Note_on_c, 1, 32, 127
3, 23055, Note_on_c, 1, 32, 0
3, 23070, Note_on_c, 1, 29, 127
3, 23083, Note_on_c, 1, 29, 0
3, 23100, Note_on_c, 1, 32, 127
3, 23113, Note_on_c, 1, 32, 0
3, 23130, Note_on_c, 1, 44, 127
3, 23146, Note_on_c, 1, 44, 0
3, 23310, Note_on_c, 1, 29, 127
3, 23325, Note_on_c, 1, 29, 0
3, 23340, Note_on_c, 1, 32, 127
3, 23355, Note_on_c, 1, 32, 0
3, 23370, Note_on_c, 1, 44, 127
3, 23384, Note_on_c, 1, 44, 0
3, 23520, Note_on_c, 1, 32, 127
3, 23535, Note_on_c, 1, 32, 0
3, 23550, Note_on_c, 1, 29, 127
3, 23568, Note_on_c, 1, 29, 0
3, 23580, Note_on_c, 1, 32, 127
3, 23593, Note_on_c, 1, 32, 0
3, 23610, Note_on_c, 1, 44, 127
3, 23626, Note_on_c, 1, 44, 0
3, 23790, Note_on_c, 1, 29, 127
3, 23804, Note_on_c, 1, 29, 0
3, 23820, Note_on_c, 1, 32, 127
3, 23835, Note_on_c, 1, 32, 0
3, 23850, Note_on_c, 1, 44, 127
3, 23864, Note_on_c, 1, 44, 0
3, 24000, Note_on_c, 1, 32, 127
3, 24018, Note_on_c, 1, 32, 0
3, 24030, Note_on_c, 1, 29, 127
3, 24047, Note_on_c, 1, 29, 0
3, 24060, Note_on_c, 1, 32, 127
3, 24074, Note_on_c, 1, 32, 0
3, 24090, Note_on_c, 1, 44, 127
3, 24106, Note_on_c, 1, 44, 0
3, 24270, Note_on_c, 1, 29, 127
3, 24287, Note_on_c, 1, 29, 0
3, 24300, Note_on_c, 1, 32, 127
3, 24316, Note_on_c, 1, 32, 0
3, 24330, Note_on_c, 1, 44, 127
3, 24344, Note_on_c, 1, 44, 0
3, 24480, Note_on_c, 1, 32, 127
3, 24498, Note_on_c, 1, 32, 0
3, 24510, Note_on_c, 1, 29, 127
3, 24528, Note_on_c, 1, 29, 0
3, 24540, Note_on_c, 1, 32, 127
3, 24555, Note_on_c, 1, 32, 0
3, 24570, Note_on_c, 1, 44, 127
3, 24585, Note_on_c, 1, 44, 0
3, 24750, Note_on_c, 1, 29, 127
3, 24766, Note_on_c, 1, 29, 0
3, 24780, Note_on_c, 1, 32, 127
3, 24799, Note_on_c, 1, 32, 0
3, 24810, Note_on_c, 1, 44, 127
3, 24824, Note_on_c, 1, 44, 0
3, 24960, Note_on_c, 1, 32, 127
3, 24977, Note_on_c, 1, 32, 0
3, 24990, Note_on_c, 1, 29, 127
3, 25008, Note_on_c, 1, 29, 0
3, 25020, Note_on_c, 1, 32, 127
3, 25032, Note_on_c, 1, 32, 0
3, 25050, Note_on_c, 1, 44, 127
3, 25066, Note_on_c, 1, 44, 0
3, 25230, Note_on_c, 1, 29, 127
3, 25245, Note_on_c, 1, 29, 0
3, 25260, Note_on_c, 1, 32, 127
3, 25273, Note_on_c, 1, 32, 0
3, 25290, Note_on_c, 1, 44, 127
3, 25303, Note_on_c, 1, 44, 0
3, 25440, Note_on_c, 1, 32, 127
3, 25454, Note_on_c, 1, 32, 0
3, 25470, Note_on_c, 1, 29, 127
3, 25483, Note_on_c, 1, 29, 0
3, 25500, Note_on_c, 1, 32, 127
3, 25514, Note_on_c, 1, 32, 0
3, 25530, Note_on_c, 1, 44, 127
3, 25546, Note_on_c, 1, 44, 0
3, 25920, Note_on_c, 1, 32, 127
3, 25937, Note_on_c, 1, 32, 0
3, 25950, Note_on_c, 1, 29, 127
3, 25967, Note_on_c, 1, 29, 0
3, 25980, Note_on_c, 1, 32, 127
3, 25994, Note_on_c, 1, 32, 0
3, 26010, Note_on_c, 1, 44, 127
3, 26027, Note_on_c, 1, 44, 0
3, 26400, Note_on_c, 1, 32, 127
3, 26414, Note_on_c, 1, 32, 0
3, 26430, Note_on_c, 1, 29, 127
3, 26443, Note_on_c, 1, 29, 0
3, 26460, Note_on_c, 1, 32, 127
3, 26474, Note_on_c, 1, 32, 0
3, 26490, Note_on_c, 1, 44, 127
3, 26506, Note_on_c, 1, 44, 0
3, 26880, Note_on_c, 1, 32, 127
3, 26897, Note_on_c, 1, 32, 0
3, 26910, Note_on_c, 1, 29, 127
3, 26927, Note_on_c, 1, 29, 0
3, 26940, Note_on_c, 1, 32, 127
3, 26954, Note_on_c, 1, 32, 0
3, 26970, Note_on_c, 1, 44, 127
3, 26987, Note_on_c, 1, 44, 0
3, 27360, Note_on_c, 1, 32, 127
3, 27374, Note_on_c, 1, 32, 0
3, 27390, Note_on_c, 1, 29, 127
3, 27403, Note_on_c, 1, 29, 0
3, 27420, Note_on_c, 1, 32, 127
3, 27434, Note_on_c, 1, 32, 0
3, 27450, Note_on_c, 1, 44, 127
3, 27466, Note_on_c, 1, 44, 0
3, 27840, Note_on_c, 1, 32, 127
3, 27857, Note_on_c, 1, 32, 0
3, 27870, Note_on_c, 1, 29, 127
3, 27887, Note_on_c, 1, 29, 0
3, 27900, Note_on_c, 1, 32, 127
3, 27914, Note_on_c, 1, 32, 0
3, 27930, Note_on_c, 1, 44, 127
3, 27947, Note_on_c, 1, 44, 0
3, 28320, Note_on_c, 1, 32, 127
3, 28334, Note_on_c, 1, 32, 0
3, 28350, Note_on_c, 1, 29, 127
3, 28363, Note_on_c, 1, 29, 0
3, 28380, Note_on_c, 1, 32, 127
3, 28394, Note_on_c, 1, 32, 0
3, 28410, Note_on_c, 1, 44, 127
3, 28426, Note_on_c, 1, 44, 0
3, 28800, Note_on_c, 1, 32, 127
3, 28817, Note_on_c, 1, 32, 0
3, 28830, Note_on_c, 1, 29, 127
3, 28847, Note_on_c, 1, 29, 0
3, 28860, Note_on_c, 1, 32, 127
3, 28874, Note_on_c, 1, 32, 0
3, 28890, Note_on_c, 1, 44, 127
3, 28907, Note_on_c, 1, 44, 0
3, 29280, Note_on_c, 1, 29, 127
3, 29578, Note_on_c, 1, 29, 0
3, 29640, Note_on_c, 1, 27, 127
3, 29717, Note_on_c, 1, 27, 0
3, 29760, Note_on_c, 1, 29, 127
3, 30176, Note_on_c, 1, 29, 0
3, 30240, Note_on_c, 1, 29, 127
3, 30546, Note_on_c, 1, 29, 0
3, 30600, Note_on_c, 1, 32, 127
3, 30680, Note_on_c, 1, 32, 0
3, 30720, Note_on_c, 1, 34, 127
3, 31144, Note_on_c, 1, 34, 0
3, 31200, Note_on_c, 1, 31, 127
3, 31506, Note_on_c, 1, 31, 0
3, 31560, Note_on_c, 1, 29, 127
3, 31642, Note_on_c, 1, 29, 0
3, 31680, Note_on_c, 1, 31, 127
3, 32053, Note_on_c, 1, 31, 0
3, 32160, Note_on_c, 1, 31, 127
3, 32470, Note_on_c, 1, 31, 0
3, 32520, Note_on_c, 1, 34, 127
3, 32599, Note_on_c, 1, 34, 0
3, 32640, Note_on_c, 1, 36, 127
3, 33052, Note_on_c, 1, 36, 0
3, 33120, Note_on_c, 1, 29, 127
3, 33418, Note_on_c, 1, 29, 0
3, 33480, Note_on_c, 1, 27, 127
3, 33557, Note_on_c, 1, 27, 0
3, 33600, Note_on_c, 1, 29, 127
3, 34016, Note_on_c, 1, 29, 0
3, 34080, Note_on_c, 1, 29, 127
3, 34386, Note_on_c, 1, 29, 0
3, 34440, Note_on_c, 1, 32, 127
3, 34520, Note_on_c, 1, 32, 0
3, 34560, Note_on_c, 1, 34, 127
3, 34984, Note_on_c, 1, 34, 0
3, 35040, Note_on_c, 1, 31, 127
3, 35346, Note_on_c, 1, 31, 0
3, 35400, Note_on_c, 1, 29, 127
3, 35482, Note_on_c, 1, 29, 0
3, 35520, Note_on_c, 1, 31, 127
3, 35893, Note_on_c, 1, 31, 0
3, 36000, Note_on_c, 1, 31, 127
3, 36310, Note_on_c, 1, 31, 0
3, 36360, Note_on_c, 1, 34, 127
3, 36439, Note_on_c, 1, 34, 0
3, 36480, Note_on_c, 1, 36, 127
3, 36892, Note_on_c, 1, 36, 0
3, 36960, Note_on_c, 1, 32, 127
3, 36960, Note_on_c, 1, 32, 127
3, 36977, Note_on_c, 1, 32, 0
3, 36977, Note_on_c, 1, 32, 0
3, 36990, Note_on_c, 1, 29, 127
3, 37007, Note_on_c, 1, 29, 0
3, 37020, Note_on_c, 1, 32, 127
3, 37033, Note_on_c, 1, 32, 0
3, 37050, Note_on_c, 1, 44, 127
3, 37065, Note_on_c, 1, 44, 0
3, 37230, Note_on_c, 1, 29, 127
3, 37245, Note_on_c, 1, 29, 0
3, 37260, Note_on_c, 1, 32, 127
3, 37277, Note_on_c, 1, 32, 0
3, 37290, Note_on_c, 1, 44, 127
3, 37302, Note_on_c, 1, 44, 0
3, 37440, Note_on_c, 1, 32, 127
3, 37457, Note_on_c, 1, 32, 0
3, 37470, Note_on_c, 1, 29, 127
3, 37484, Note_on_c, 1, 29, 0
3, 37500, Note_on_c, 1, 32, 127
3, 37512, Note_on_c, 1, 32, 0
3, 37530, Note_on_c, 1, 44, 127
3, 37545, Note_on_c, 1, 44, 0
3, 37710, Note_on_c, 1, 29, 127
3, 37724, Note_on_c, 1, 29, 0
3, 37740, Note_on_c, 1, 32, 127
3, 37754, Note_on_c, 1, 32, 0
3, 37770, Note_on_c, 1, 44, 127
3, 37786, Note_on_c, 1, 44, 0
3, 37920, Note_on_c, 1, 32, 127
3, 37934, Note_on_c, 1, 32, 0
3, 37950, Note_on_c, 1, 29, 127
3, 37967, Note_on_c, 1, 29, 0
3, 37980, Note_on_c, 1, 32, 127
3, 37994, Note_on_c, 1, 32, 0
3, 38010, Note_on_c, 1, 44, 127
3, 38025, Note_on_c, 1, 44, 0
3, 38190, Note_on_c, 1, 29, 127
3, 38205, Note_on_c, 1, 29, 0
3, 38220, Note_on_c, 1, 32, 127
3, 38235, Note_on_c, 1, 32, 0
3, 38250, Note_on_c, 1, 44, 127
3, 38265, Note_on_c, 1, 44, 0
3, 38400, Note_on_c, 1, 32, 127
3, 38415, Note_on_c, 1, 32, 0
3, 38430, Note_on_c, 1, 29, 127
3, 38443, Note_on_c, 1, 29, 0
3, 38460, Note_on_c, 1, 32, 127
3, 38473, Note_on_c, 1, 32, 0
3, 38490, Note_on_c, 1, 44, 127
3, 38506, Note_on_c, 1, 44, 0
3, 38670, Note_on_c, 1, 29, 127
3, 38685, Note_on_c, 1, 29, 0
3, 38700, Note_on_c, 1, 32, 127
3, 38715, Note_on_c, 1, 32, 0
3, 38730, Note_on_c, 1, 44, 127
3, 38744, Note_on_c, 1, 44, 0
3, 38880, Note_on_c, 1, 32, 127
3, 38895, Note_on_c, 1, 32, 0
3, 38910, Note_on_c, 1, 29, 127
3, 38928, Note_on_c, 1, 29, 0
3, 38940, Note_on_c, 1, 32, 127
3, 38953, Note_on_c, 1, 32, 0
3, 38970, Note_on_c, 1, 44, 127
3, 38986, Note_on_c, 1, 44, 0
3, 39150, Note_on_c, 1, 29, 127
3, 39164, Note_on_c, 1, 29, 0
3, 39180, Note_on_c, 1, 32, 127
3, 39195, Note_on_c, 1, 32, 0
3, 39210, Note_on_c, 1, 44, 127
3, 39224, Note_on_c, 1, 44, 0
3, 39360, Note_on_c, 1, 32, 127
3, 39378, Note_on_c, 1, 32, 0
3, 39390, Note_on_c, 1, 29, 127
3, 39407, Note_on_c, 1, 29, 0
3, 39420, Note_on_c, 1, 32, 127
3, 39434, Note_on_c, 1, 32, 0
3, 39450, Note_on_c, 1, 44, 127
3, 39466, Note_on_c, 1, 44, 0
3, 39630, Note_on_c, 1, 29, 127
3, 39647, Note_on_c, 1, 29, 0
3, 39660, Note_on_c, 1, 32, 127
3, 39676, Note_on_c, 1, 32, 0
3, 39690, Note_on_c, 1, 44, 127
3, 39704, Note_on_c, 1, 44, 0
3, 39840, Note_on_c, 1, 32, 127
3, 39858, Note_on_c, 1, 32, 0
3, 39870, Note_on_c, 1, 29, 127
3, 39888, Note_on_c, 1, 29, 0
3, 39900, Note_on_c, 1, 32, 127
3, 39915, Note_on_c, 1, 32, 0
3, 39930, Note_on_c, 1, 44, 127
3, 39945, Note_on_c, 1, 44, 0
3, 40110, Note_on_c, 1, 29, 127
3, 40126, Note_on_c, 1, 29, 0
3, 40140, Note_on_c, 1, 32, 127
3, 40159, Note_on_c, 1, 32, 0
3, 40170, Note_on_c, 1, 44, 127
3, 40184, Note_on_c, 1, 44, 0
3, 40320, Note_on_c, 1, 32, 127
3, 40337, Note_on_c, 1, 32, 0
3, 40350, Note_on_c, 1, 29, 127
3, 40368, Note_on_c, 1, 29, 0
3, 40380, Note_on_c, 1, 32, 127
3, 40392, Note_on_c, 1, 32, 0
3, 40410, Note_on_c, 1, 44, 127
3, 40426, Note_on_c, 1, 44, 0
3, 40590, Note_on_c, 1, 29, 127
3, 40605, Note_on_c, 1, 29, 0
3, 40620, Note_on_c, 1, 32, 127
3, 40633, Note_on_c, 1, 32, 0
3, 40650, Note_on_c, 1, 44, 127
3, 40663, Note_on_c, 1, 44, 0
3, 40800, Note_on_c, 1, 32, 127
3, 40817, Note_on_c, 1, 32, 0
3, 40830, Note_on_c, 1, 29, 127
3, 40847, Note_on_c, 1, 29, 0
3, 40860, Note_on_c, 1, 32, 127
3, 40873, Note_on_c, 1, 32, 0
3, 40890, Note_on_c, 1, 44, 127
3, 40905, Note_on_c, 1, 44, 0
3, 41070, Note_on_c, 1, 29, 127
3, 41085, Note_on_c, 1, 29, 0
3, 41100, Note_on_c, 1, 32, 127
3, 41117, Note_on_c, 1, 32, 0
3, 41130, Note_on_c, 1, 44, 127
3, 41142, Note_on_c, 1, 44, 0
3, 41280, Note_on_c, 1, 32, 127
3, 41297, Note_on_c, 1, 32, 0
3, 41310, Note_on_c, 1, 29, 127
3, 41324, Note_on_c, 1, 29, 0
3, 41340, Note_on_c, 1, 32, 127
3, 41352, Note_on_c, 1, 32, 0
3, 41370, Note_on_c, 1, 44, 127
3, 41385, Note_on_c, 1, 44, 0
3, 41550, Note_on_c, 1, 29, 127
3, 41564, Note_on_c, 1, 29, 0
3, 41580, Note_on_c, 1, 32, 127
3, 41594, Note_on_c, 1, 32, 0
3, 41610, Note_on_c, 1, 44, 127
3, 41626, Note_on_c, 1, 44, 0
3, 41760, Note_on_c, 1, 32, 127
3, 41774, Note_on_c, 1, 32, 0
3, 41790, Note_on_c, 1, 29, 127
3, 41807, Note_on_c, 1, 29, 0
3, 41820, Note_on_c, 1, 32, 127
3, 41834, Note_on_c, 1, 32, 0
3, 41850, Note_on_c, 1, 44, 127
3, 41865, Note_on_c, 1, 44, 0
3, 42030, Note_on_c, 1, 29, 127
3, 42045, Note_on_c, 1, 29, 0
3, 42060, Note_on_c, 1, 32, 127
3, 42075, Note_on_c, 1, 32, 0
3, 42090, Note_on_c, 1, 44, 127
3, 42105, Note_on_c, 1, 44, 0
3, 42240, Note_on_c, 1, 32, 127
3, 42255, Note_on_c, 1, 32, 0
3, 42270, Note_on_c, 1, 29, 127
3, 42283, Note_on_c, 1, 29, 0
3, 42300, Note_on_c, 1, 32, 127
3, 42313, Note_on_c, 1, 32, 0
3, 42330, Note_on_c, 1, 44, 127
3, 42346, Note_on_c, 1, 44, 0
3, 42510, Note_on_c, 1, 29, 127
3, 42525, Note_on_c, 1, 29, 0
3, 42540, Note_on_c, 1, 32, 127
3, 42555, Note_on_c, 1, 32, 0
3, 42570, Note_on_c, 1, 44, 127
3, 42584, Note_on_c, 1, 44, 0
3, 42720, Note_on_c, 1, 32, 127
3, 42735, Note_on_c, 1, 32, 0
3, 42750, Note_on_c, 1, 29, 127
3, 42768, Note_on_c, 1, 29, 0
3, 42780, Note_on_c, 1, 32, 127
3, 42793, Note_on_c, 1, 32, 0
3, 42810, Note_on_c, 1, 44, 127
3, 42826, Note_on_c, 1, 44, 0
3, 42990, Note_on_c, 1, 29, 127
3, 43004, Note_on_c, 1, 29, 0
3, 43020, Note_on_c, 1, 32, 127
3, 43035, Note_on_c, 1, 32, 0
3, 43050, Note_on_c, 1, 44, 127
3, 43064, Note_on_c, 1, 44, 0
3, 43200, Note_on_c, 1, 32, 127
3, 43218, Note_on_c, 1, 32, 0
3, 43230, Note_on_c, 1, 29, 127
3, 43247, Note_on_c, 1, 29, 0
3, 43260, Note_on_c, 1, 32, 127
3, 43274, Note_on_c, 1, 32, 0
3, 43290, Note_on_c, 1, 44, 127
3, 43306, Note_on_c, 1, 44, 0
3, 43470, Note_on_c, 1, 29, 127
3, 43487, Note_on_c, 1, 29, 0
3, 43500, Note_on_c, 1, 32, 127
3, 43516, Note_on_c, 1, 32, 0
3, 43530, Note_on_c, 1, 44, 127
3, 43544, Note_on_c, 1, 44, 0
3, 43680, Note_on_c, 1, 32, 127
3, 43698, Note_on_c, 1, 32, 0
3, 43710, Note_on_c, 1, 29, 127
3, 43728, Note_on_c, 1, 29, 0
3, 43740, Note_on_c, 1, 32, 127
3, 43755, Note_on_c, 1, 32, 0
3, 43770, Note_on_c, 1, 44, 127
3, 43785, Note_on_c, 1, 44, 0
3, 43950, Note_on_c, 1, 29, 127
3, 43966, Note_on_c, 1, 29, 0
3, 43980, Note_on_c, 1, 32, 127
3, 43999, Note_on_c, 1, 32, 0
3, 44010, Note_on_c, 1, 44, 127
3, 44024, Note_on_c, 1, 44, 0
3, 44160, Note_on_c, 1, 32, 127
3, 44177, Note_on_c, 1, 32, 0
3, 44190, Note_on_c, 1, 29, 127
3, 44208, Note_on_c, 1, 29, 0
3, 44220, Note_on_c, 1, 32, 127
3, 44232, Note_on_c, 1, 32, 0
3, 44250, Note_on_c, 1, 44, 127
3, 44266, Note_on_c, 1, 44, 0
3, 44430, Note_on_c, 1, 29, 127
3, 44445, Note_on_c, 1, 29, 0
3, 44460, Note_on_c, 1, 32, 127
3, 44473, Note_on_c, 1, 32, 0
3, 44490, Note_on_c, 1, 44, 127
3, 44503, Note_on_c, 1, 44, 0
3, 44640, Note_on_c, 1, 32, 127
3, 44640, Note_on_c, 1, 32, 127
3, 44657, Note_on_c, 1, 32, 0
3, 44657, Note_on_c, 1, 32, 0
3, 44670, Note_on_c, 1, 29, 127
3, 44687, Note_on_c, 1, 29, 0
3, 44700, Note_on_c, 1, 32, 127
3, 44713, Note_on_c, 1, 32, 0
3, 44730, Note_on_c, 1, 44, 127
3, 44745, Note_on_c, 1, 44, 0
3, 44910, Note_on_c, 1, 29, 127
3, 44925, Note_on_c, 1, 29, 0
3, 44940, Note_on_c, 1, 32, 127
3, 44957, Note_on_c, 1, 32, 0
3, 44970, Note_on_c, 1, 44, 127
3, 44982, Note_on_c, 1, 44, 0
3, 45120, Note_on_c, 1, 32, 127
3, 45137, Note_on_c, 1, 32, 0
3, 45150, Note_on_c, 1, 29, 127
3, 45164, Note_on_c, 1, 29, 0
3, 45180, Note_on_c, 1, 32, 127
3, 45192, Note_on_c, 1, 32, 0
3, 45210, Note_on_c, 1, 44, 127
3, 45225, Note_on_c, 1, 44, 0
3, 45390, Note_on_c, 1, 29, 127
3, 45404, Note_on_c, 1, 29, 0
3, 45420, Note_on_c, 1, 32, 127
3, 45434, Note_on_c, 1, 32, 0
3, 45450, Note_on_c, 1, 44, 127
3, 45466, Note_on_c, 1, 44, 0
3, 45600, Note_on_c, 1, 32, 127
3, 45614, Note_on_c, 1, 32, 0
3, 45630, Note_on_c, 1, 29, 127
3, 45647, Note_on_c, 1, 29, 0
3, 45660, Note_on_c, 1, 32, 127
3, 45674, Note_on_c, 1, 32, 0
3, 45690, Note_on_c, 1, 44, 127
3, 45705, Note_on_c, 1, 44, 0
3, 45870, Note_on_c, 1, 29, 127
3, 45885, Note_on_c, 1, 29, 0
3, 45900, Note_on_c, 1, 32, 127
3, 45915, Note_on_c, 1, 32, 0
3, 45930, Note_on_c, 1, 44, 127
3, 45945, Note_on_c, 1, 44, 0
3, 46080, Note_on_c, 1, 32, 127
3, 46095, Note_on_c, 1, 32, 0
3, 46110, Note_on_c, 1, 29, 127
3, 46123, Note_on_c, 1, 29, 0
3, 46140, Note_on_c, 1, 32, 127
3, 46153, Note_on_c, 1, 32, 0
3, 46170, Note_on_c, 1, 44, 127
3, 46186, Note_on_c, 1, 44, 0
3, 46350, Note_on_c, 1, 29, 127
3, 46365, Note_on_c, 1, 29, 0
3, 46380, Note_on_c, 1, 32, 127
3, 46395, Note_on_c, 1, 32, 0
3, 46410, Note_on_c, 1, 44, 127
3, 46424, Note_on_c, 1, 44, 0
3, 46560, Note_on_c, 1, 32, 127
3, 46575, Note_on_c, 1, 32, 0
3, 46590, Note_on_c, 1, 29, 127
3, 46608, Note_on_c, 1, 29, 0
3, 46620, Note_on_c, 1, 32, 127
3, 46633, Note_on_c, 1, 32, 0
3, 46650, Note_on_c, 1, 44, 127
3, 46666, Note_on_c, 1, 44, 0
3, 46830, Note_on_c, 1, 29, 127
3, 46844, Note_on_c, 1, 29, 0
3, 46860, Note_on_c, 1, 32, 127
3, 46875, Note_on_c, 1, 32, 0
3, 46890, Note_on_c, 1, 44, 127
3, 46904, Note_on_c, 1, 44, 0
3, 47040, Note_on_c, 1, 32, 127
3, 47058, Note_on_c, 1, 32, 0
3, 47070, Note_on_c, 1, 29, 127
3, 47087, Note_on_c, 1, 29, 0
3, 47100, Note_on_c, 1, 32, 127
3, 47114, Note_on_c, 1, 32, 0
3, 47130, Note_on_c, 1, 44, 127
3, 47146, Note_on_c, 1, 44, 0
3, 47310, Note_on_c, 1, 29, 127
3, 47327, Note_on_c, 1, 29, 0
3, 47340, Note_on_c, 1, 32, 127
3, 47356, Note_on_c, 1, 32, 0
3, 47370, Note_on_c, 1, 44, 127
3, 47384, Note_on_c, 1, 44, 0
3, 47520, Note_on_c, 1, 32, 127
3, 47538, Note_on_c, 1, 32, 0
3, 47550, Note_on_c, 1, 29, 127
3, 47568, Note_on_c, 1, 29, 0
3, 47580, Note_on_c, 1, 32, 127
3, 47595, Note_on_c, 1, 32, 0
3, 47610, Note_on_c, 1, 44, 127
3, 47625, Note_on_c, 1, 44, 0
3, 47790, Note_on_c, 1, 29, 127
3, 47806, Note_on_c, 1, 29, 0
3, 47820, Note_on_c, 1, 32, 127
3, 47839, Note_on_c, 1, 32, 0
3, 47850, Note_on_c, 1, 44, 127
3, 47864, Note_on_c, 1, 44, 0
3, 48000, Note_on_c, 1, 32, 127
3, 48017, Note_on_c, 1, 32, 0
3, 48030, Note_on_c, 1, 29, 127
3, 48048, Note_on_c, 1, 29, 0
3, 48060, Note_on_c, 1, 32, 127
3, 48072, Note_on_c, 1, 32, 0
3, 48090, Note_on_c, 1, 44, 127
3, 48106, Note_on_c, 1, 44, 0
3, 48270, Note_on_c, 1, 29, 127
3, 48285, Note_on_c, 1, 29, 0
3, 48300, Note_on_c, 1, 32, 127
3, 48313, Note_on_c, 1, 32, 0
3, 48330, Note_on_c, 1, 44, 127
3, 48343, Note_on_c, 1, 44, 0
3, 48480, Note_on_c, 1, 32, 127
3, 48480, Note_on_c, 1, 32, 127
3, 48497, Note_on_c, 1, 32, 0
3, 48497, Note_on_c, 1, 32, 0
3, 48510, Note_on_c, 1, 29, 127
3, 48527, Note_on_c, 1, 29, 0
3, 48540, Note_on_c, 1, 32, 127
3, 48553, Note_on_c, 1, 32, 0
3, 48570, Note_on_c, 1, 44, 127
3, 48585, Note_on_c, 1, 44, 0
3, 48750, Note_on_c, 1, 29, 127
3, 48765, Note_on_c, 1, 29, 0
3, 48780, Note_on_c, 1, 32, 127
3, 48797, Note_on_c, 1, 32, 0
3, 48810, Note_on_c, 1, 44, 127
3, 48822, Note_on_c, 1, 44, 0
3, 48960, Note_on_c, 1, 32, 127
3, 48977, Note_on_c, 1, 32, 0
3, 48990, Note_on_c, 1, 29, 127
3, 49004, Note_on_c, 1, 29, 0
3, 49020, Note_on_c, 1, 32, 127
3, 49032, Note_on_c, 1, 32, 0
3, 49050, Note_on_c, 1, 44, 127
3, 49065, Note_on_c, 1, 44, 0
3, 49230, Note_on_c, 1, 29, 127
3, 49244, Note_on_c, 1, 29, 0
3, 49260, Note_on_c, 1, 32, 127
3, 49274, Note_on_c, 1, 32, 0
3, 49290, Note_on_c, 1, 44, 127
3, 49306, Note_on_c, 1, 44, 0
3, 49440, Note_on_c, 1, 32, 127
3, 49454, Note_on_c, 1, 32, 0
3, 49470, Note_on_c, 1, 29, 127
3, 49487, Note_on_c, 1, 29, 0
3, 49500, Note_on_c, 1, 32, 127
3, 49514, Note_on_c, 1, 32, 0
3, 49530, Note_on_c, 1, 44, 127
3, 49545, Note_on_c, 1, 44, 0
3, 49710, Note_on_c, 1, 29, 127
3, 49725, Note_on_c, 1, 29, 0
3, 49740, Note_on_c, 1, 32, 127
3, 49755, Note_on_c, 1, 32, 0
3, 49770, Note_on_c, 1, 44, 127
3, 49785, Note_on_c, 1, 44, 0
3, 49920, Note_on_c, 1, 32, 127
3, 49935, Note_on_c, 1, 32, 0
3, 49950, Note_on_c, 1, 29, 127
3, 49963, Note_on_c, 1, 29, 0
3, 49980, Note_on_c, 1, 32, 127
3, 49993, Note_on_c, 1, 32, 0
3, 50010, Note_on_c, 1, 44, 127
3, 50026, Note_on_c, 1, 44, 0
3, 50190, Note_on_c, 1, 29, 127
3, 50205, Note_on_c, 1, 29, 0
3, 50220, Note_on_c, 1, 32, 127
3, 50235, Note_on_c, 1, 32, 0
3, 50250, Note_on_c, 1, 44, 127
3, 50264, Note_on_c, 1, 44, 0
3, 50400, Note_on_c, 1, 32, 127
3, 50415, Note_on_c, 1, 32, 0
3, 50430, Note_on_c, 1, 29, 127
3, 50448, Note_on_c, 1, 29, 0
3, 50460, Note_on_c, 1, 32, 127
3, 50473, Note_on_c, 1, 32, 0
3, 50490, Note_on_c, 1, 44, 127
3, 50506, Note_on_c, 1, 44, 0
3, 50670, Note_on_c, 1, 29, 127
3, 50684, Note_on_c, 1, 29, 0
3, 50700, Note_on_c, 1, 32, 127
3, 50715, Note_on_c, 1, 32, 0
3, 50730, Note_on_c, 1, 44, 127
3, 50744, Note_on_c, 1, 44, 0
3, 50880, Note_on_c, 1, 32, 127
3, 50898, Note_on_c, 1, 32, 0
3, 50910, Note_on_c, 1, 29, 127
3, 50927, Note_on_c, 1, 29, 0
3, 50940, Note_on_c, 1, 32, 127
3, 50954, Note_on_c, 1, 32, 0
3, 50970, Note_on_c, 1, 44, 127
3, 50986, Note_on_c, 1, 44, 0
3, 51150, Note_on_c, 1, 29, 127
3, 51167, Note_on_c, 1, 29, 0
3, 51180, Note_on_c, 1, 32, 127
3, 51196, Note_on_c, 1, 32, 0
3, 51210, Note_on_c, 1, 44, 127
3, 51224, Note_on_c, 1, 44, 0
3, 51360, Note_on_c, 1, 32, 127
3, 51378, Note_on_c, 1, 32, 0
3, 51390, Note_on_c, 1, 29, 127
3, 51408, Note_on_c, 1, 29, 0
3, 51420, Note_on_c, 1, 32, 127
3, 51435, Note_on_c, 1, 32, 0
3, 51450, Note_on_c, 1, 44, 127
3, 51465, Note_on_c, 1, 44, 0
3, 51630, Note_on_c, 1, 29, 127
3, 51646, Note_on_c, 1, 29, 0
3, 51660, Note_on_c, 1, 32, 127
3, 51679, Note_on_c, 1, 32, 0
3, 51690, Note_on_c, 1, 44, 127
3, 51704, Note_on_c, 1, 44, 0
3, 51840, Note_on_c, 1, 32, 127
3, 51857, Note_on_c, 1, 32, 0
3, 51870, Note_on_c, 1, 29, 127
3, 51888, Note_on_c, 1, 29, 0
3, 51900, Note_on_c, 1, 32, 127
3, 51912, Note_on_c, 1, 32, 0
3, 51930, Note_on_c, 1, 44, 127
3, 51946, Note_on_c, 1, 44, 0
3, 52110, Note_on_c, 1, 29, 127
3, 52125, Note_on_c, 1, 29, 0
3, 52140, Note_on_c, 1, 32, 127
3, 52153, Note_on_c, 1, 32, 0
3, 52170, Note_on_c, 1, 44, 127
3, 52183, Note_on_c, 1, 44, 0
3, 52320, Note_on_c, 1, 32, 127
3, 52320, Note_on_c, 1, 32, 127
3, 52337, Note_on_c, 1, 32, 0
3, 52337, Note_on_c, 1, 32, 0
3, 52350, Note_on_c, 1, 29, 127
3, 52367, Note_on_c, 1, 29, 0
3, 52380, Note_on_c, 1, 32, 127
3, 52393, Note_on_c, 1, 32, 0
3, 52410, Note_on_c, 1, 44, 127
3, 52425, Note_on_c, 1, 44, 0
3, 52590, Note_on_c, 1, 29, 127
3, 52605, Note_on_c, 1, 29, 0
3, 52620, Note_on_c, 1, 32, 127
3, 52637, Note_on_c, 1, 32, 0
3, 52650, Note_on_c, 1, 44, 127
3, 52662, Note_on_c, 1, 44, 0
3, 52800, Note_on_c, 1, 32, 127
3, 52817, Note_on_c, 1, 32, 0
3, 52830, Note_on_c, 1, 29, 127
3, 52844, Note_on_c, 1, 29, 0
3, 52860, Note_on_c, 1, 32, 127
3, 52872, Note_on_c, 1, 32, 0
3, 52890, Note_on_c, 1, 44, 127
3, 52905, Note_on_c, 1, 44, 0
3, 53070, Note_on_c, 1, 29, 127
3, 53084, Note_on_c, 1, 29, 0
3, 53100, Note_on_c, 1, 32, 127
3, 53114, Note_on_c, 1, 32, 0
3, 53130, Note_on_c, 1, 44, 127
3, 53146, Note_on_c, 1, 44, 0
3, 53280, Note_on_c, 1, 32, 127
3, 53294, Note_on_c, 1, 32, 0
3, 53310, Note_on_c, 1, 29, 127
3, 53327, Note_on_c, 1, 29, 0
3, 53340, Note_on_c, 1, 32, 127
3, 53354, Note_on_c, 1, 32, 0
3, 53370, Note_on_c, 1, 44, 127
3, 53385, Note_on_c, 1, 44, 0
3, 53550, Note_on_c, 1, 29, 127
3, 53565, Note_on_c, 1, 29, 0
3, 53580, Note_on_c, 1, 32, 127
3, 53595, Note_on_c, 1, 32, 0
3, 53610, Note_on_c, 1, 44, 127
3, 53625, Note_on_c, 1, 44, 0
3, 53760, Note_on_c, 1, 32, 127
3, 53775, Note_on_c, 1, 32, 0
3, 53790, Note_on_c, 1, 29, 127
3, 53803, Note_on_c, 1, 29, 0
3, 53820, Note_on_c, 1, 32, 127
3, 53833, Note_on_c, 1, 32, 0
3, 53850, Note_on_c, 1, 44, 127
3, 53866, Note_on_c, 1, 44, 0
3, 54030, Note_on_c, 1, 29, 127
3, 54045, Note_on_c, 1, 29, 0
3, 54060, Note_on_c, 1, 32, 127
3, 54075, Note_on_c, 1, 32, 0
3, 54090, Note_on_c, 1, 44, 127
3, 54104, Note_on_c, 1, 44, 0
3, 54240, Note_on_c, 1, 32, 127
3, 54240, Note_on_c, 1, 32, 127
3, 54257, Note_on_c, 1, 32, 0
3, 54257, Note_on_c, 1, 32, 0
3, 54270, Note_on_c, 1, 29, 127
3, 54287, Note_on_c, 1, 29, 0
3, 54300, Note_on_c, 1, 32, 127
3, 54313, Note_on_c, 1, 32, 0
3, 54330, Note_on_c, 1, 44, 127
3, 54345, Note_on_c, 1, 44, 0
3, 54510, Note_on_c, 1, 29, 127
3, 54525, Note_on_c, 1, 29, 0
3, 54540, Note_on_c, 1, 32, 127
3, 54557, Note_on_c, 1, 32, 0
3, 54570, Note_on_c, 1, 44, 127
3, 54582, Note_on_c, 1, 44, 0
3, 54720, Note_on_c, 1, 32, 127
3, 54737, Note_on_c, 1, 32, 0
3, 54750, Note_on_c, 1, 29, 127
3, 54764, Note_on_c, 1, 29, 0
3, 54780, Note_on_c, 1, 32, 127
3, 54792, Note_on_c, 1, 32, 0
3, 54810, Note_on_c, 1, 44, 127
3, 54825, Note_on_c, 1, 44, 0
3, 54990, Note_on_c, 1, 29, 127
3, 55004, Note_on_c, 1, 29, 0
3, 55020, Note_on_c, 1, 32, 127
3, 55034, Note_on_c, 1, 32, 0
3, 55050, Note_on_c, 1, 44, 127
3, 55066, Note_on_c, 1, 44, 0
3, 55200, Note_on_c, 1, 32, 127
3, 55214, Note_on_c, 1, 32, 0
3, 55230, Note_on_c, 1, 29, 127
3, 55247, Note_on_c, 1, 29, 0
3, 55260, Note_on_c, 1, 32, 127
3, 55274, Note_on_c, 1, 32, 0
3, 55290, Note_on_c, 1, 44, 127
3, 55305, Note_on_c, 1, 44, 0
3, 55470, Note_on_c, 1, 29, 127
3, 55485, Note_on_c, 1, 29, 0
3, 55500, Note_on_c, 1, 32, 127
3, 55515, Note_on_c, 1, 32, 0
3, 55530, Note_on_c, 1, 44, 127
3, 55545, Note_on_c, 1, 44, 0
3, 55680, Note_on_c, 1, 32, 127
3, 55695, Note_on_c, 1, 32, 0
3, 55710, Note_on_c, 1, 29, 127
3, 55723, Note_on_c, 1, 29, 0
3, 55740, Note_on_c, 1, 32, 127
3, 55753, Note_on_c, 1, 32, 0
3, 55770, Note_on_c, 1, 44, 127
3, 55786, Note_on_c, 1, 44, 0
3, 55950, Note_on_c, 1, 29, 127
3, 55965, Note_on_c, 1, 29, 0
3, 55980, Note_on_c, 1, 32, 127
3, 55995, Note_on_c, 1, 32, 0
3, 56010, Note_on_c, 1, 44, 127
3, 56024, Note_on_c, 1, 44, 0
3, 56160, Note_on_c, 1, 32, 127
3, 56160, Note_on_c, 1, 32, 127
3, 56177, Note_on_c, 1, 32, 0
3, 56177, Note_on_c, 1, 32, 0
3, 56190, Note_on_c, 1, 29, 127
3, 56207, Note_on_c, 1, 29, 0
3, 56220, Note_on_c, 1, 32, 127
3, 56233, Note_on_c, 1, 32, 0
3, 56250, Note_on_c, 1, 44, 127
3, 56265, Note_on_c, 1, 44, 0
3, 56430, Note_on_c, 1, 29, 127
3, 56445, Note_on_c, 1, 29, 0
3, 56460, Note_on_c, 1, 32, 127
3, 56477, Note_on_c, 1, 32, 0
3, 56490, Note_on_c, 1, 44, 127
3, 56502, Note_on_c, 1, 44, 0
3, 56640, Note_on_c, 1, 32, 127
3, 56657, Note_on_c, 1, 32, 0
3, 56670, Note_on_c, 1, 29, 127
3, 56684, Note_on_c, 1, 29, 0
3, 56700, Note_on_c, 1, 32, 127
3, 56712, Note_on_c, 1, 32, 0
3, 56730, Note_on_c, 1, 44, 127
3, 56745, Note_on_c, 1, 44, 0
3, 56910, Note_on_c, 1, 29, 127
3, 56924, Note_on_c, 1, 29, 0
3, 56940, Note_on_c, 1, 32, 127
3, 56954, Note_on_c, 1, 32, 0
3, 56970, Note_on_c, 1, 44, 127
3, 56986, Note_on_c, 1, 44, 0
3, 57120, Note_on_c, 1, 32, 127
3, 57134, Note_on_c, 1, 32, 0
3, 57150, Note_on_c, 1, 29, 127
3, 57167, Note_on_c, 1, 29, 0
3, 57180, Note_on_c, 1, 32, 127
3, 57194, Note_on_c, 1, 32, 0
3, 57210, Note_on_c, 1, 44, 127
3, 57225, Note_on_c, 1, 44, 0
3, 57390, Note_on_c, 1, 29, 127
3, 57405, Note_on_c, 1, 29, 0
3, 57420, Note_on_c, 1, 32, 127
3, 57435, Note_on_c, 1, 32, 0
3, 57450, Note_on_c, 1, 44, 127
3, 57465, Note_on_c, 1, 44, 0
3, 57600, Note_on_c, 1, 32, 127
3, 57615, Note_on_c, 1, 32, 0
3, 57630, Note_on_c, 1, 29, 127
3, 57643, Note_on_c, 1, 29, 0
3, 57660, Note_on_c, 1, 32, 127
3, 57673, Note_on_c, 1, 32, 0
3, 57690, Note_on_c, 1, 44, 127
3, 57706, Note_on_c, 1, 44, 0
3, 57870, Note_on_c, 1, 29, 127
3, 57885, Note_on_c, 1, 29, 0
3, 57900, Note_on_c, 1, 32, 127
3, 57915, Note_on_c, 1, 32, 0
3, 57930, Note_on_c, 1, 44, 127
3, 57944, Note_on_c, 1, 44, 0
3, 58080, Note_on_c, 1, 32, 127
3, 58080, Note_on_c, 1, 32, 127
3, 58097, Note_on_c, 1, 32, 0
3, 58097, Note_on_c, 1, 32, 0
3, 58110, Note_on_c, 1, 29, 127
3, 58127, Note_on_c, 1, 29, 0
3, 58140, Note_on_c, 1, 32, 127
3, 58153, Note_on_c, 1, 32, 0
3, 58170, Note_on_c, 1, 44, 127
3, 58185, Note_on_c, 1, 44, 0
3, 58350, Note_on_c, 1, 29, 127
3, 58365, Note_on_c, 1, 29, 0
3, 58380, Note_on_c, 1, 32, 127
3, 58397, Note_on_c, 1, 32, 0
3, 58410, Note_on_c, 1, 44, 127
3, 58422, Note_on_c, 1, 44, 0
3, 58560, Note_on_c, 1, 32, 127
3, 58577, Note_on_c, 1, 32, 0
3, 58590, Note_on_c, 1, 29, 127
3, 58604, Note_on_c, 1, 29, 0
3, 58620, Note_on_c, 1, 32, 127
3, 58632, Note_on_c, 1, 32, 0
3, 58650, Note_on_c, 1, 44, 127
3, 58665, Note_on_c, 1, 44, 0
3, 58830, Note_on_c, 1, 29, 127
3, 58844, Note_on_c, 1, 29, 0
3, 58860, Note_on_c, 1, 32, 127
3, 58874, Note_on_c, 1, 32, 0
3, 58890, Note_on_c, 1, 44, 127
3, 58906, Note_on_c, 1, 44, 0
3, 59040, Note_on_c, 1, 32, 127
3, 59054, Note_on_c, 1, 32, 0
3, 59070, Note_on_c, 1, 29, 127
3, 59087, Note_on_c, 1, 29, 0
3, 59100, Note_on_c, 1, 32, 127
3, 59114, Note_on_c, 1, 32, 0
3, 59130, Note_on_c, 1, 44, 127
3, 59145, Note_on_c, 1, 44, 0
3, 59310, Note_on_c, 1, 29, 127
3, 59325, Note_on_c, 1, 29, 0
3, 59340, Note_on_c, 1, 32, 127
3, 59355, Note_on_c, 1, 32, 0
3, 59370, Note_on_c, 1, 44, 127
3, 59385, Note_on_c, 1, 44, 0
3, 59520, Note_on_c, 1, 32, 127
3, 59535, Note_on_c, 1, 32, 0
3, 59550, Note_on_c, 1, 29, 127
3, 59563, Note_on_c, 1, 29, 0
3, 59580, Note_on_c, 1, 32, 127
3, 59593, Note_on_c, 1, 32, 0
3, 59610, Note_on_c, 1, 44, 127
3, 59626, Note_on_c, 1, 44, 0
3, 59790, Note_on_c, 1, 29, 127
3, 59805, Note_on_c, 1, 29, 0
3, 59820, Note_on_c, 1, 32, 127
3, 59835, Note_on_c, 1, 32, 0
3, 59850, Note_on_c, 1, 44, 127
3, 59864, Note_on_c, 1, 44, 0
3, 60000, Note_on_c, 1, 32, 127
3, 60000, Note_on_c, 1, 32, 127
3, 60017, Note_on_c, 1, 32, 0
3, 60017, Note_on_c, 1, 32, 0
3, 60030, Note_on_c, 1, 29, 127
3, 60047, Note_on_c, 1, 29, 0
3, 60060, Note_on_c, 1, 32, 127
3, 60073, Note_on_c, 1, 32, 0
3, 60090, Note_on_c, 1, 44, 127
3, 60105, Note_on_c, 1, 44, 0
3, 60270, Note_on_c, 1, 29, 127
3, 60285, Note_on_c, 1, 29, 0
3, 60300, Note_on_c, 1, 32, 127
3, 60317, Note_on_c, 1, 32, 0
3, 60330, Note_on_c, 1, 44, 127
3, 60342, Note_on_c, 1, 44, 0
3, 60480, Note_on_c, 1, 32, 127
3, 60497, Note_on_c, 1, 32, 0
3, 60510, Note_on_c, 1, 29, 127
3, 60524, Note_on_c, 1, 29, 0
3, 60540, Note_on_c, 1, 32, 127
3, 60552, Note_on_c, 1, 32, 0
3, 60570, Note_on_c, 1, 44, 127
3, 60585, Note_on_c, 1, 44, 0
3, 60750, Note_on_c, 1, 29, 127
3, 60764, Note_on_c, 1, 29, 0
3, 60780, Note_on_c, 1, 32, 127
3, 60794, Note_on_c, 1, 32, 0
3, 60810, Note_on_c, 1, 44, 127
3, 60826, Note_on_c, 1, 44, 0
3, 60960, Note_on_c, 1, 32, 127
3, 60974, Note_on_c, 1, 32, 0
3, 60990, Note_on_c, 1, 29, 127
3, 61007, Note_on_c, 1, 29, 0
3, 61020, Note_on_c, 1, 32, 127
3, 61034, Note_on_c, 1, 32, 0
3, 61050, Note_on_c, 1, 44, 127
3, 61065, Note_on_c, 1, 44, 0
3, 61230, Note_on_c, 1, 29, 127
3, 61245, Note_on_c, 1, 29, 0
3, 61260, Note_on_c, 1, 32, 127
3, 61275, Note_on_c, 1, 32, 0
3, 61290, Note_on_c, 1, 44, 127
3, 61305, Note_on_c, 1, 44, 0
3, 61440, Note_on_c, 1, 32, 127
3, 61455, Note_on_c, 1, 32, 0
3, 61470, Note_on_c, 1, 29, 127
3, 61483, Note_on_c, 1, 29, 0
3, 61500, Note_on_c, 1, 32, 127
3, 61513, Note_on_c, 1, 32, 0
3, 61530, Note_on_c, 1, 44, 127
3, 61546, Note_on_c, 1, 44, 0
3, 61710, Note_on_c, 1, 29, 127
3, 61725, Note_on_c, 1, 29, 0
3, 61740, Note_on_c, 1, 32, 127
3, 61755, Note_on_c, 1, 32, 0
3, 61770, Note_on_c, 1, 44, 127
3, 61784, Note_on_c, 1, 44, 0
3, 61920, Note_on_c, 1, 32, 127
3, 61920, Note_on_c, 1, 32, 127
3, 61937, Note_on_c, 1, 32, 0
3, 61937, Note_on_c, 1, 32, 0
3, 61950, Note_on_c, 1, 29, 127
3, 61967, Note_on_c, 1, 29, 0
3, 61980, Note_on_c, 1, 32, 127
3, 61993, Note_on_c, 1, 32, 0
3, 62010, Note_on_c, 1, 44, 127
3, 62025, Note_on_c, 1, 44, 0
3, 62190, Note_on_c, 1, 29, 127
3, 62205, Note_on_c, 1, 29, 0
3, 62220, Note_on_c, 1, 32, 127
3, 62237, Note_on_c, 1, 32, 0
3, 62250, Note_on_c, 1, 44, 127
3, 62262, Note_on_c, 1, 44, 0
3, 62400, Note_on_c, 1, 32, 127
3, 62417, Note_on_c, 1, 32, 0
3, 62430, Note_on_c, 1, 29, 127
3, 62444, Note_on_c, 1, 29, 0
3, 62460, Note_on_c, 1, 32, 127
3, 62472, Note_on_c, 1, 32, 0
3, 62490, Note_on_c, 1, 44, 127
3, 62505, Note_on_c, 1, 44, 0
3, 62670, Note_on_c, 1, 29, 127
3, 62684, Note_on_c, 1, 29, 0
3, 62700, Note_on_c, 1, 32, 127
3, 62714, Note_on_c, 1, 32, 0
3, 62730, Note_on_c, 1, 44, 127
3, 62746, Note_on_c, 1, 44, 0
3, 62880, Note_on_c, 1, 32, 127
3, 62894, Note_on_c, 1, 32, 0
3, 62910, Note_on_c, 1, 29, 127
3, 62927, Note_on_c, 1, 29, 0
3, 62940, Note_on_c, 1, 32, 127
3, 62954, Note_on_c, 1, 32, 0
3, 62970, Note_on_c, 1, 44, 127
3, 62985, Note_on_c, 1, 44, 0
3, 63150, Note_on_c, 1, 29, 127
3, 63165, Note_on_c, 1, 29, 0
3, 63180, Note_on_c, 1, 32, 127
3, 63195, Note_on_c, 1, 32, 0
3, 63210, Note_on_c, 1, 44, 127
3, 63225, Note_on_c, 1, 44, 0
3, 63360, Note_on_c, 1, 32, 127
3, 63375, Note_on_c, 1, 32, 0
3, 63390, Note_on_c, 1, 29, 127
3, 63403, Note_on_c, 1, 29, 0
3, 63420, Note_on_c, 1, 32, 127
3, 63433, Note_on_c, 1, 32, 0
3, 63450, Note_on_c, 1, 44, 127
3, 63466, Note_on_c, 1, 44, 0
3, 63630, Note_on_c, 1, 29, 127
3, 63645, Note_on_c, 1, 29, 0
3, 63660, Note_on_c, 1, 32, 127
3, 63675, Note_on_c, 1, 32, 0
3, 63690, Note_on_c, 1, 44, 127
3, 63704, Note_on_c, 1, 44, 0
3, 63836, Note_on_c, 1, 29, 127
3, 63840, Note_on_c, 1, 32, 127
3, 63857, Note_on_c, 1, 32, 0
3, 65719, Note_on_c, 1, 29, 0
3, 65719, End_track
4, 0, Start_track
4, 0, MIDI_port, 0
4, 0, Title_t, "Percussive Eights"
4, 0, Control_c, 2, 91, 60
4, 132, Program_c, 2, 80
4, 133, Control_c, 2, 7, 100
4, 133, Control_c, 2, 10, 93
4, 2400, Note_on_c, 2, 68, 91
4, 2411, Note_on_c, 2, 68, 0
4, 2460, Note_on_c, 2, 68, 91
4, 2471, Note_on_c, 2, 68, 0
4, 2520, Note_on_c, 2, 67, 91
4, 2532, Note_on_c, 2, 67, 0
4, 2580, Note_on_c, 2, 67, 91
4, 2594, Note_on_c, 2, 67, 0
4, 2850, Note_on_c, 2, 65, 91
4, 2862, Note_on_c, 2, 65, 0
4, 2880, Note_on_c, 2, 68, 91
4, 2892, Note_on_c, 2, 68, 0
4, 2940, Note_on_c, 2, 68, 91
4, 2951, Note_on_c, 2, 68, 0
4, 3000, Note_on_c, 2, 67, 91
4, 3008, Note_on_c, 2, 67, 0
4, 3060, Note_on_c, 2, 67, 91
4, 3073, Note_on_c, 2, 67, 0
4, 3330, Note_on_c, 2, 65, 91
4, 3341, Note_on_c, 2, 65, 0
4, 3360, Note_on_c, 2, 68, 91
4, 3371, Note_on_c, 2, 68, 0
4, 3420, Note_on_c, 2, 68, 91
4, 3431, Note_on_c, 2, 68, 0
4, 3480, Note_on_c, 2, 67, 91
4, 3492, Note_on_c, 2, 67, 0
4, 3540, Note_on_c, 2, 67, 91
4, 3554, Note_on_c, 2, 67, 0
4, 3810, Note_on_c, 2, 65, 91
4, 3822, Note_on_c, 2, 65, 0
4, 3840, Note_on_c, 2, 68, 91
4, 3852, Note_on_c, 2, 68, 0
4, 3900, Note_on_c, 2, 68, 91
4, 3911, Note_on_c, 2, 68, 0
4, 3960, Note_on_c, 2, 67, 91
4, 3968, Note_on_c, 2, 67, 0
4, 4020, Note_on_c, 2, 67, 91
4, 4033, Note_on_c, 2, 67, 0
4, 4290, Note_on_c, 2, 65, 91
4, 4301, Note_on_c, 2, 65, 0
4, 4320, Note_on_c, 2, 68, 91
4, 4331, Note_on_c, 2, 68, 0
4, 4380, Note_on_c, 2, 68, 91
4, 4391, Note_on_c, 2, 68, 0
4, 4440, Note_on_c, 2, 67, 91
4, 4452, Note_on_c, 2, 67, 0
4, 4500, Note_on_c, 2, 67, 91
4, 4514, Note_on_c, 2, 67, 0
4, 4770, Note_on_c, 2, 65, 91
4, 4782, Note_on_c, 2, 65, 0
4, 4800, Note_on_c, 2, 68, 91
4, 4812, Note_on_c, 2, 68, 0
4, 4860, Note_on_c, 2, 68, 91
4, 4871, Note_on_c, 2, 68, 0
4, 4920, Note_on_c, 2, 67, 91
4, 4928, Note_on_c, 2, 67, 0
4, 4980, Note_on_c, 2, 67, 91
4, 4993, Note_on_c, 2, 67, 0
4, 5250, Note_on_c, 2, 65, 91
4, 5261, Note_on_c, 2, 65, 0
4, 5280, Note_on_c, 2, 68, 91
4, 5291, Note_on_c, 2, 68, 0
4, 5340, Note_on_c, 2, 68, 91
4, 5351, Note_on_c, 2, 68, 0
4, 5400, Note_on_c, 2, 67, 91
4, 5412, Note_on_c, 2, 67, 0
4, 5460, Note_on_c, 2, 67, 91
4, 5474, Note_on_c, 2, 67, 0
4, 5730, Note_on_c, 2, 65, 91
4, 5742, Note_on_c, 2, 65, 0
4, 5760, Note_on_c, 2, 68, 91
4, 5772, Note_on_c, 2, 68, 0
4, 5820, Note_on_c, 2, 68, 91
4, 5831, Note_on_c, 2, 68, 0
4, 5880, Note_on_c, 2, 67, 91
4, 5888, Note_on_c, 2, 67, 0
4, 5940, Note_on_c, 2, 67, 91
4, 5953, Note_on_c, 2, 67, 0
4, 6210, Note_on_c, 2, 65, 91
4, 6221, Note_on_c, 2, 65, 0
4, 6240, Note_on_c, 2, 68, 91
4, 6251, Note_on_c, 2, 68, 0
4, 6300, Note_on_c, 2, 68, 91
4, 6311, Note_on_c, 2, 68, 0
4, 6360, Note_on_c, 2, 67, 91
4, 6372, Note_on_c, 2, 67, 0
4, 6420, Note_on_c, 2, 67, 91
4, 6434, Note_on_c, 2, 67, 0
4, 6690, Note_on_c, 2, 65, 91
4, 6702, Note_on_c, 2, 65, 0
4, 6720, Note_on_c, 2, 68, 91
4, 6732, Note_on_c, 2, 68, 0
4, 6780, Note_on_c, 2, 68, 91
4, 6791, Note_on_c, 2, 68, 0
4, 6840, Note_on_c, 2, 67, 91
4, 6848, Note_on_c, 2, 67, 0
4, 6900, Note_on_c, 2, 67, 91
4, 6913, Note_on_c, 2, 67, 0
4, 7170, Note_on_c, 2, 65, 91
4, 7181, Note_on_c, 2, 65, 0
4, 7200, Note_on_c, 2, 68, 91
4, 7211, Note_on_c, 2, 68, 0
4, 7260, Note_on_c, 2, 68, 91
4, 7271, Note_on_c, 2, 68, 0
4, 7320, Note_on_c, 2, 67, 91
4, 7332, Note_on_c, 2, 67, 0
4, 7380, Note_on_c, 2, 67, 91
4, 7394, Note_on_c, 2, 67, 0
4, 7650, Note_on_c, 2, 65, 91
4, 7662, Note_on_c, 2, 65, 0
4, 7680, Note_on_c, 2, 68, 91
4, 7692, Note_on_c, 2, 68, 0
4, 7740, Note_on_c, 2, 68, 91
4, 7751, Note_on_c, 2, 68, 0
4, 7800, Note_on_c, 2, 67, 91
4, 7808, Note_on_c, 2, 67, 0
4, 7860, Note_on_c, 2, 67, 91
4, 7873, Note_on_c, 2, 67, 0
4, 8130, Note_on_c, 2, 65, 91
4, 8141, Note_on_c, 2, 65, 0
4, 8160, Note_on_c, 2, 68, 91
4, 8171, Note_on_c, 2, 68, 0
4, 8220, Note_on_c, 2, 68, 91
4, 8231, Note_on_c, 2, 68, 0
4, 8280, Note_on_c, 2, 67, 91
4, 8292, Note_on_c, 2, 67, 0
4, 8340, Note_on_c, 2, 67, 91
4, 8354, Note_on_c, 2, 67, 0
4, 8610, Note_on_c, 2, 65, 91
4, 8622, Note_on_c, 2, 65, 0
4, 8640, Note_on_c, 2, 68, 91
4, 8652, Note_on_c, 2, 68, 0
4, 8700, Note_on_c, 2, 68, 91
4, 8711, Note_on_c, 2, 68, 0
4, 8760, Note_on_c, 2, 67, 91
4, 8768, Note_on_c, 2, 67, 0
4, 8820, Note_on_c, 2, 67, 91
4, 8833, Note_on_c, 2, 67, 0
4, 9090, Note_on_c, 2, 65, 91
4, 9101, Note_on_c, 2, 65, 0
4, 9120, Note_on_c, 2, 68, 91
4, 9131, Note_on_c, 2, 68, 0
4, 9180, Note_on_c, 2, 68, 91
4, 9191, Note_on_c, 2, 68, 0
4, 9240, Note_on_c, 2, 67, 91
4, 9252, Note_on_c, 2, 67, 0
4, 9300, Note_on_c, 2, 67, 91
4, 9314, Note_on_c, 2, 67, 0
4, 9570, Note_on_c, 2, 65, 91
4, 9582, Note_on_c, 2, 65, 0
4, 9600, Note_on_c, 2, 68, 91
4, 9612, Note_on_c, 2, 68, 0
4, 9660, Note_on_c, 2, 68, 91
4, 9671, Note_on_c, 2, 68, 0
4, 9720, Note_on_c, 2, 67, 91
4, 9728, Note_on_c, 2, 67, 0
4, 9780, Note_on_c, 2, 67, 91
4, 9793, Note_on_c, 2, 67, 0
4, 10050, Note_on_c, 2, 65, 91
4, 10061, Note_on_c, 2, 65, 0
4, 10080, Note_on_c, 2, 68, 91
4, 10091, Note_on_c, 2, 68, 0
4, 10140, Note_on_c, 2, 68, 91
4, 10151, Note_on_c, 2, 68, 0
4, 10200, Note_on_c, 2, 67, 91
4, 10212, Note_on_c, 2, 67, 0
4, 10260, Note_on_c, 2, 67, 91
4, 10274, Note_on_c, 2, 67, 0
4, 10530, Note_on_c, 2, 65, 91
4, 10542, Note_on_c, 2, 65, 0
4, 10560, Note_on_c, 2, 68, 91
4, 10572, Note_on_c, 2, 68, 0
4, 10620, Note_on_c, 2, 68, 91
4, 10631, Note_on_c, 2, 68, 0
4, 10680, Note_on_c, 2, 67, 91
4, 10688, Note_on_c, 2, 67, 0
4, 10740, Note_on_c, 2, 67, 91
4, 10753, Note_on_c, 2, 67, 0
4, 11010, Note_on_c, 2, 65, 91
4, 11021, Note_on_c, 2, 65, 0
4, 11040, Note_on_c, 2, 68, 91
4, 11051, Note_on_c, 2, 68, 0
4, 11100, Note_on_c, 2, 68, 91
4, 11111, Note_on_c, 2, 68, 0
4, 11160, Note_on_c, 2, 67, 91
4, 11172, Note_on_c, 2, 67, 0
4, 11220, Note_on_c, 2, 67, 91
4, 11234, Note_on_c, 2, 67, 0
4, 11490, Note_on_c, 2, 65, 91
4, 11502, Note_on_c, 2, 65, 0
4, 11520, Note_on_c, 2, 68, 91
4, 11532, Note_on_c, 2, 68, 0
4, 11580, Note_on_c, 2, 68, 91
4, 11591, Note_on_c, 2, 68, 0
4, 11640, Note_on_c, 2, 67, 91
4, 11648, Note_on_c, 2, 67, 0
4, 11700, Note_on_c, 2, 67, 91
4, 11713, Note_on_c, 2, 67, 0
4, 11970, Note_on_c, 2, 65, 91
4, 11981, Note_on_c, 2, 65, 0
4, 12000, Note_on_c, 2, 68, 91
4, 12011, Note_on_c, 2, 68, 0
4, 12060, Note_on_c, 2, 68, 91
4, 12071, Note_on_c, 2, 68, 0
4, 12120, Note_on_c, 2, 67, 91
4, 12132, Note_on_c, 2, 67, 0
4, 12180, Note_on_c, 2, 67, 91
4, 12194, Note_on_c, 2, 67, 0
4, 12450, Note_on_c, 2, 65, 91
4, 12462, Note_on_c, 2, 65, 0
4, 12480, Note_on_c, 2, 68, 91
4, 12492, Note_on_c, 2, 68, 0
4, 12540, Note_on_c, 2, 68, 91
4, 12551, Note_on_c, 2, 68, 0
4, 12600, Note_on_c, 2, 67, 91
4, 12608, Note_on_c, 2, 67, 0
4, 12660, Note_on_c, 2, 67, 91
4, 12673, Note_on_c, 2, 67, 0
4, 12930, Note_on_c, 2, 65, 91
4, 12941, Note_on_c, 2, 65, 0
4, 12960, Note_on_c, 2, 68, 91
4, 12971, Note_on_c, 2, 68, 0
4, 13020, Note_on_c, 2, 68, 91
4, 13031, Note_on_c, 2, 68, 0
4, 13080, Note_on_c, 2, 67, 91
4, 13092, Note_on_c, 2, 67, 0
4, 13140, Note_on_c, 2, 67, 91
4, 13154, Note_on_c, 2, 67, 0
4, 13410, Note_on_c, 2, 65, 91
4, 13422, Note_on_c, 2, 65, 0
4, 13440, Note_on_c, 2, 68, 91
4, 13452, Note_on_c, 2, 68, 0
4, 13500, Note_on_c, 2, 68, 91
4, 13511, Note_on_c, 2, 68, 0
4, 13560, Note_on_c, 2, 67, 91
4, 13568, Note_on_c, 2, 67, 0
4, 13620, Note_on_c, 2, 67, 91
4, 13633, Note_on_c, 2, 67, 0
4, 13890, Note_on_c, 2, 65, 91
4, 13901, Note_on_c, 2, 65, 0
4, 13920, Note_on_c, 2, 68, 91
4, 13931, Note_on_c, 2, 68, 0
4, 13980, Note_on_c, 2, 68, 91
4, 13991, Note_on_c, 2, 68, 0
4, 14040, Note_on_c, 2, 67, 91
4, 14052, Note_on_c, 2, 67, 0
4, 14100, Note_on_c, 2, 67, 91
4, 14114, Note_on_c, 2, 67, 0
4, 14370, Note_on_c, 2, 65, 91
4, 14382, Note_on_c, 2, 65, 0
4, 14400, Note_on_c, 2, 68, 91
4, 14412, Note_on_c, 2, 68, 0
4, 14460, Note_on_c, 2, 68, 91
4, 14471, Note_on_c, 2, 68, 0
4, 14520, Note_on_c, 2, 67, 91
4, 14528, Note_on_c, 2, 67, 0
4, 14580, Note_on_c, 2, 67, 91
4, 14593, Note_on_c, 2, 67, 0
4, 14850, Note_on_c, 2, 65, 91
4, 14861, Note_on_c, 2, 65, 0
4, 14880, Note_on_c, 2, 68, 91
4, 14891, Note_on_c, 2, 68, 0
4, 14940, Note_on_c, 2, 68, 91
4, 14951, Note_on_c, 2, 68, 0
4, 15000, Note_on_c, 2, 67, 91
4, 15012, Note_on_c, 2, 67, 0
4, 15060, Note_on_c, 2, 67, 91
4, 15074, Note_on_c, 2, 67, 0
4, 15330, Note_on_c, 2, 65, 91
4, 15342, Note_on_c, 2, 65, 0
4, 15360, Note_on_c, 2, 68, 91
4, 15372, Note_on_c, 2, 68, 0
4, 15420, Note_on_c, 2, 68, 91
4, 15431, Note_on_c, 2, 68, 0
4, 15480, Note_on_c, 2, 67, 91
4, 15488, Note_on_c, 2, 67, 0
4, 15540, Note_on_c, 2, 67, 91
4, 15553, Note_on_c, 2, 67, 0
4, 15812, Note_on_c, 2, 67, 91
4, 15823, Note_on_c, 2, 67, 0
4, 15844, Note_on_c, 2, 70, 91
4, 15855, Note_on_c, 2, 70, 0
4, 15904, Note_on_c, 2, 70, 91
4, 15915, Note_on_c, 2, 70, 0
4, 15964, Note_on_c, 2, 69, 91
4, 15976, Note_on_c, 2, 69, 0
4, 16024, Note_on_c, 2, 69, 91
4, 16038, Note_on_c, 2, 69, 0
4, 16290, Note_on_c, 2, 67, 91
4, 16302, Note_on_c, 2, 67, 0
4, 16320, Note_on_c, 2, 70, 91
4, 16331, Note_on_c, 2, 70, 0
4, 16380, Note_on_c, 2, 70, 91
4, 16391, Note_on_c, 2, 70, 0
4, 16440, Note_on_c, 2, 69, 91
4, 16452, Note_on_c, 2, 69, 0
4, 16500, Note_on_c, 2, 69, 91
4, 16514, Note_on_c, 2, 69, 0
4, 16766, Note_on_c, 2, 67, 91
4, 16778, Note_on_c, 2, 67, 0
4, 16804, Note_on_c, 2, 70, 91
4, 16815, Note_on_c, 2, 70, 0
4, 16864, Note_on_c, 2, 70, 91
4, 16875, Note_on_c, 2, 70, 0
4, 16924, Note_on_c, 2, 69, 91
4, 16936, Note_on_c, 2, 69, 0
4, 16984, Note_on_c, 2, 69, 91
4, 16998, Note_on_c, 2, 69, 0
4, 17246, Note_on_c, 2, 67, 91
4, 17251, Note_on_c, 2, 67, 0
4, 17284, Note_on_c, 2, 70, 91
4, 17295, Note_on_c, 2, 70, 0
4, 17342, Note_on_c, 2, 70, 91
4, 17353, Note_on_c, 2, 70, 0
4, 17400, Note_on_c, 2, 69, 91
4, 17408, Note_on_c, 2, 69, 0
4, 17460, Note_on_c, 2, 69, 91
4, 17473, Note_on_c, 2, 69, 0
4, 17730, Note_on_c, 2, 65, 91
4, 17741, Note_on_c, 2, 65, 0
4, 17760, Note_on_c, 2, 68, 91
4, 17771, Note_on_c, 2, 68, 0
4, 17820, Note_on_c, 2, 68, 91
4, 17831, Note_on_c, 2, 68, 0
4, 17880, Note_on_c, 2, 67, 91
4, 17892, Note_on_c, 2, 67, 0
4, 17940, Note_on_c, 2, 67, 91
4, 17954, Note_on_c, 2, 67, 0
4, 18210, Note_on_c, 2, 65, 91
4, 18222, Note_on_c, 2, 65, 0
4, 18240, Note_on_c, 2, 68, 91
4, 18252, Note_on_c, 2, 68, 0
4, 18300, Note_on_c, 2, 68, 91
4, 18311, Note_on_c, 2, 68, 0
4, 18360, Note_on_c, 2, 67, 91
4, 18368, Note_on_c, 2, 67, 0
4, 18420, Note_on_c, 2, 67, 91
4, 18433, Note_on_c, 2, 67, 0
4, 18690, Note_on_c, 2, 65, 91
4, 18701, Note_on_c, 2, 65, 0
4, 18720, Note_on_c, 2, 68, 91
4, 18731, Note_on_c, 2, 68, 0
4, 18780, Note_on_c, 2, 68, 91
4, 18791, Note_on_c, 2, 68, 0
4, 18840, Note_on_c, 2, 67, 91
4, 18852, Note_on_c, 2, 67, 0
4, 18900, Note_on_c, 2, 67, 91
4, 18914, Note_on_c, 2, 67, 0
4, 19170, Note_on_c, 2, 65, 91
4, 19182, Note_on_c, 2, 65, 0
4, 19200, Note_on_c, 2, 68, 91
4, 19212, Note_on_c, 2, 68, 0
4, 19260, Note_on_c, 2, 68, 91
4, 19271, Note_on_c, 2, 68, 0
4, 19320, Note_on_c, 2, 67, 91
4, 19328, Note_on_c, 2, 67, 0
4, 19380, Note_on_c, 2, 67, 91
4, 19393, Note_on_c, 2, 67, 0
4, 19650, Note_on_c, 2, 67, 91
4, 19661, Note_on_c, 2, 67, 0
4, 19684, Note_on_c, 2, 70, 91
4, 19695, Note_on_c, 2, 70, 0
4, 19744, Note_on_c, 2, 70, 91
4, 19755, Note_on_c, 2, 70, 0
4, 19804, Note_on_c, 2, 69, 91
4, 19816, Note_on_c, 2, 69, 0
4, 19864, Note_on_c, 2, 69, 91
4, 19878, Note_on_c, 2, 69, 0
4, 20130, Note_on_c, 2, 67, 91
4, 20142, Note_on_c, 2, 67, 0
4, 20160, Note_on_c, 2, 70, 91
4, 20171, Note_on_c, 2, 70, 0
4, 20220, Note_on_c, 2, 70, 91
4, 20231, Note_on_c, 2, 70, 0
4, 20280, Note_on_c, 2, 69, 91
4, 20292, Note_on_c, 2, 69, 0
4, 20340, Note_on_c, 2, 69, 91
4, 20354, Note_on_c, 2, 69, 0
4, 20606, Note_on_c, 2, 67, 91
4, 20618, Note_on_c, 2, 67, 0
4, 20644, Note_on_c, 2, 70, 91
4, 20655, Note_on_c, 2, 70, 0
4, 20704, Note_on_c, 2, 70, 91
4, 20715, Note_on_c, 2, 70, 0
4, 20764, Note_on_c, 2, 69, 91
4, 20776, Note_on_c, 2, 69, 0
4, 20824, Note_on_c, 2, 69, 91
4, 20838, Note_on_c, 2, 69, 0
4, 21086, Note_on_c, 2, 67, 91
4, 21093, Note_on_c, 2, 67, 0
4, 21124, Note_on_c, 2, 70, 91
4, 21135, Note_on_c, 2, 70, 0
4, 21182, Note_on_c, 2, 70, 91
4, 21193, Note_on_c, 2, 70, 0
4, 21240, Note_on_c, 2, 69, 91
4, 21248, Note_on_c, 2, 69, 0
4, 21300, Note_on_c, 2, 69, 91
4, 21313, Note_on_c, 2, 69, 0
4, 23520, Note_on_c, 2, 68, 91
4, 23531, Note_on_c, 2, 68, 0
4, 23580, Note_on_c, 2, 68, 91
4, 23591, Note_on_c, 2, 68, 0
4, 23640, Note_on_c, 2, 67, 91
4, 23652, Note_on_c, 2, 67, 0
4, 23700, Note_on_c, 2, 67, 91
4, 23714, Note_on_c, 2, 67, 0
4, 23970, Note_on_c, 2, 65, 91
4, 23982, Note_on_c, 2, 65, 0
4, 24000, Note_on_c, 2, 68, 91
4, 24012, Note_on_c, 2, 68, 0
4, 24060, Note_on_c, 2, 68, 91
4, 24071, Note_on_c, 2, 68, 0
4, 24120, Note_on_c, 2, 67, 91
4, 24128, Note_on_c, 2, 67, 0
4, 24180, Note_on_c, 2, 67, 91
4, 24193, Note_on_c, 2, 67, 0
4, 24450, Note_on_c, 2, 65, 91
4, 24461, Note_on_c, 2, 65, 0
4, 24480, Note_on_c, 2, 68, 91
4, 24491, Note_on_c, 2, 68, 0
4, 24540, Note_on_c, 2, 68, 91
4, 24551, Note_on_c, 2, 68, 0
4, 24600, Note_on_c, 2, 67, 91
4, 24612, Note_on_c, 2, 67, 0
4, 24660, Note_on_c, 2, 67, 91
4, 24674, Note_on_c, 2, 67, 0
4, 24930, Note_on_c, 2, 65, 91
4, 24942, Note_on_c, 2, 65, 0
4, 24960, Note_on_c, 2, 68, 91
4, 24972, Note_on_c, 2, 68, 0
4, 25020, Note_on_c, 2, 68, 91
4, 25031, Note_on_c, 2, 68, 0
4, 25080, Note_on_c, 2, 67, 91
4, 25088, Note_on_c, 2, 67, 0
4, 25140, Note_on_c, 2, 67, 91
4, 25153, Note_on_c, 2, 67, 0
4, 25410, Note_on_c, 2, 65, 91
4, 25421, Note_on_c, 2, 65, 0
4, 25440, Note_on_c, 2, 68, 91
4, 25451, Note_on_c, 2, 68, 0
4, 25500, Note_on_c, 2, 68, 91
4, 25511, Note_on_c, 2, 68, 0
4, 25560, Note_on_c, 2, 67, 91
4, 25572, Note_on_c, 2, 67, 0
4, 25620, Note_on_c, 2, 67, 91
4, 25634, Note_on_c, 2, 67, 0
4, 25890, Note_on_c, 2, 65, 91
4, 25902, Note_on_c, 2, 65, 0
4, 25920, Note_on_c, 2, 68, 91
4, 25932, Note_on_c, 2, 68, 0
4, 25980, Note_on_c, 2, 68, 91
4, 25991, Note_on_c, 2, 68, 0
4, 26040, Note_on_c, 2, 67, 91
4, 26048, Note_on_c, 2, 67, 0
4, 26100, Note_on_c, 2, 67, 91
4, 26113, Note_on_c, 2, 67, 0
4, 26370, Note_on_c, 2, 65, 91
4, 26381, Note_on_c, 2, 65, 0
4, 26400, Note_on_c, 2, 68, 91
4, 26411, Note_on_c, 2, 68, 0
4, 26460, Note_on_c, 2, 68, 91
4, 26471, Note_on_c, 2, 68, 0
4, 26520, Note_on_c, 2, 67, 91
4, 26532, Note_on_c, 2, 67, 0
4, 26580, Note_on_c, 2, 67, 91
4, 26594, Note_on_c, 2, 67, 0
4, 26850, Note_on_c, 2, 65, 91
4, 26862, Note_on_c, 2, 65, 0
4, 26880, Note_on_c, 2, 68, 91
4, 26892, Note_on_c, 2, 68, 0
4, 26940, Note_on_c, 2, 68, 91
4, 26951, Note_on_c, 2, 68, 0
4, 27000, Note_on_c, 2, 67, 91
4, 27008, Note_on_c, 2, 67, 0
4, 27060, Note_on_c, 2, 67, 91
4, 27073, Note_on_c, 2, 67, 0
4, 27330, Note_on_c, 2, 65, 91
4, 27341, Note_on_c, 2, 65, 0
4, 27360, Note_on_c, 2, 68, 91
4, 27371, Note_on_c, 2, 68, 0
4, 27420, Note_on_c, 2, 68, 91
4, 27431, Note_on_c, 2, 68, 0
4, 27480, Note_on_c, 2, 67, 91
4, 27492, Note_on_c, 2, 67, 0
4, 27540, Note_on_c, 2, 67, 91
4, 27554, Note_on_c, 2, 67, 0
4, 27810, Note_on_c, 2, 65, 91
4, 27822, Note_on_c, 2, 65, 0
4, 27840, Note_on_c, 2, 68, 91
4, 27852, Note_on_c, 2, 68, 0
4, 27900, Note_on_c, 2, 68, 91
4, 27911, Note_on_c, 2, 68, 0
4, 27960, Note_on_c, 2, 67, 91
4, 27968, Note_on_c, 2, 67, 0
4, 28020, Note_on_c, 2, 67, 91
4, 28033, Note_on_c, 2, 67, 0
4, 28290, Note_on_c, 2, 65, 91
4, 28301, Note_on_c, 2, 65, 0
4, 28320, Note_on_c, 2, 68, 91
4, 28331, Note_on_c, 2, 68, 0
4, 28380, Note_on_c, 2, 68, 91
4, 28391, Note_on_c, 2, 68, 0
4, 28440, Note_on_c, 2, 67, 91
4, 28452, Note_on_c, 2, 67, 0
4, 28500, Note_on_c, 2, 67, 91
4, 28514, Note_on_c, 2, 67, 0
4, 28770, Note_on_c, 2, 65, 91
4, 28782, Note_on_c, 2, 65, 0
4, 28800, Note_on_c, 2, 68, 91
4, 28812, Note_on_c, 2, 68, 0
4, 28860, Note_on_c, 2, 68, 91
4, 28871, Note_on_c, 2, 68, 0
4, 28920, Note_on_c, 2, 67, 91
4, 28928, Note_on_c, 2, 67, 0
4, 28980, Note_on_c, 2, 67, 91
4, 28993, Note_on_c, 2, 67, 0
4, 29250, Note_on_c, 2, 65, 91
4, 29261, Note_on_c, 2, 65, 0
4, 29280, Note_on_c, 2, 68, 91
4, 29291, Note_on_c, 2, 68, 0
4, 29340, Note_on_c, 2, 68, 91
4, 29351, Note_on_c, 2, 68, 0
4, 29400, Note_on_c, 2, 67, 91
4, 29412, Note_on_c, 2, 67, 0
4, 29460, Note_on_c, 2, 67, 91
4, 29474, Note_on_c, 2, 67, 0
4, 29730, Note_on_c, 2, 65, 91
4, 29742, Note_on_c, 2, 65, 0
4, 29760, Note_on_c, 2, 68, 91
4, 29772, Note_on_c, 2, 68, 0
4, 29820, Note_on_c, 2, 68, 91
4, 29831, Note_on_c, 2, 68, 0
4, 29880, Note_on_c, 2, 67, 91
4, 29888, Note_on_c, 2, 67, 0
4, 29940, Note_on_c, 2, 67, 91
4, 29953, Note_on_c, 2, 67, 0
4, 30210, Note_on_c, 2, 65, 91
4, 30221, Note_on_c, 2, 65, 0
4, 30240, Note_on_c, 2, 68, 91
4, 30251, Note_on_c, 2, 68, 0
4, 30300, Note_on_c, 2, 68, 91
4, 30311, Note_on_c, 2, 68, 0
4, 30360, Note_on_c, 2, 67, 91
4, 30372, Note_on_c, 2, 67, 0
4, 30420, Note_on_c, 2, 67, 91
4, 30434, Note_on_c, 2, 67, 0
4, 30690, Note_on_c, 2, 65, 91
4, 30702, Note_on_c, 2, 65, 0
4, 30720, Note_on_c, 2, 68, 91
4, 30732, Note_on_c, 2, 68, 0
4, 30780, Note_on_c, 2, 68, 91
4, 30791, Note_on_c, 2, 68, 0
4, 30840, Note_on_c, 2, 67, 91
4, 30848, Note_on_c, 2, 67, 0
4, 30900, Note_on_c, 2, 67, 91
4, 30913, Note_on_c, 2, 67, 0
4, 31172, Note_on_c, 2, 67, 91
4, 31183, Note_on_c, 2, 67, 0
4, 31204, Note_on_c, 2, 70, 91
4, 31215, Note_on_c, 2, 70, 0
4, 31264, Note_on_c, 2, 70, 91
4, 31275, Note_on_c, 2, 70, 0
4, 31324, Note_on_c, 2, 69, 91
4, 31336, Note_on_c, 2, 69, 0
4, 31384, Note_on_c, 2, 69, 91
4, 31398, Note_on_c, 2, 69, 0
4, 31650, Note_on_c, 2, 67, 91
4, 31662, Note_on_c, 2, 67, 0
4, 31680, Note_on_c, 2, 70, 91
4, 31691, Note_on_c, 2, 70, 0
4, 31740, Note_on_c, 2, 70, 91
4, 31751, Note_on_c, 2, 70, 0
4, 31800, Note_on_c, 2, 69, 91
4, 31812, Note_on_c, 2, 69, 0
4, 31860, Note_on_c, 2, 69, 91
4, 31874, Note_on_c, 2, 69, 0
4, 32126, Note_on_c, 2, 67, 91
4, 32138, Note_on_c, 2, 67, 0
4, 32164, Note_on_c, 2, 70, 91
4, 32175, Note_on_c, 2, 70, 0
4, 32224, Note_on_c, 2, 70, 91
4, 32235, Note_on_c, 2, 70, 0
4, 32284, Note_on_c, 2, 69, 91
4, 32296, Note_on_c, 2, 69, 0
4, 32344, Note_on_c, 2, 69, 91
4, 32358, Note_on_c, 2, 69, 0
4, 32606, Note_on_c, 2, 67, 91
4, 32611, Note_on_c, 2, 67, 0
4, 32644, Note_on_c, 2, 70, 91
4, 32655, Note_on_c, 2, 70, 0
4, 32702, Note_on_c, 2, 70, 91
4, 32713, Note_on_c, 2, 70, 0
4, 32760, Note_on_c, 2, 69, 91
4, 32768, Note_on_c, 2, 69, 0
4, 32820, Note_on_c, 2, 69, 91
4, 32833, Note_on_c, 2, 69, 0
4, 33090, Note_on_c, 2, 65, 91
4, 33101, Note_on_c, 2, 65, 0
4, 33120, Note_on_c, 2, 68, 91
4, 33131, Note_on_c, 2, 68, 0
4, 33180, Note_on_c, 2, 68, 91
4, 33191, Note_on_c, 2, 68, 0
4, 33240, Note_on_c, 2, 67, 91
4, 33252, Note_on_c, 2, 67, 0
4, 33300, Note_on_c, 2, 67, 91
4, 33314, Note_on_c, 2, 67, 0
4, 33570, Note_on_c, 2, 65, 91
4, 33582, Note_on_c, 2, 65, 0
4, 33600, Note_on_c, 2, 68, 91
4, 33612, Note_on_c, 2, 68, 0
4, 33660, Note_on_c, 2, 68, 91
4, 33671, Note_on_c, 2, 68, 0
4, 33720, Note_on_c, 2, 67, 91
4, 33728, Note_on_c, 2, 67, 0
4, 33780, Note_on_c, 2, 67, 91
4, 33793, Note_on_c, 2, 67, 0
4, 34050, Note_on_c, 2, 65, 91
4, 34061, Note_on_c, 2, 65, 0
4, 34080, Note_on_c, 2, 68, 91
4, 34091, Note_on_c, 2, 68, 0
4, 34140, Note_on_c, 2, 68, 91
4, 34151, Note_on_c, 2, 68, 0
4, 34200, Note_on_c, 2, 67, 91
4, 34212, Note_on_c, 2, 67, 0
4, 34260, Note_on_c, 2, 67, 91
4, 34274, Note_on_c, 2, 67, 0
4, 34530, Note_on_c, 2, 65, 91
4, 34542, Note_on_c, 2, 65, 0
4, 34560, Note_on_c, 2, 68, 91
4, 34572, Note_on_c, 2, 68, 0
4, 34620, Note_on_c, 2, 68, 91
4, 34631, Note_on_c, 2, 68, 0
4, 34680, Note_on_c, 2, 67, 91
4, 34688, Note_on_c, 2, 67, 0
4, 34740, Note_on_c, 2, 67, 91
4, 34753, Note_on_c, 2, 67, 0
4, 35010, Note_on_c, 2, 67, 91
4, 35021, Note_on_c, 2, 67, 0
4, 35044, Note_on_c, 2, 70, 91
4, 35055, Note_on_c, 2, 70, 0
4, 35104, Note_on_c, 2, 70, 91
4, 35115, Note_on_c, 2, 70, 0
4, 35164, Note_on_c, 2, 69, 91
4, 35176, Note_on_c, 2, 69, 0
4, 35224, Note_on_c, 2, 69, 91
4, 35238, Note_on_c, 2, 69, 0
4, 35490, Note_on_c, 2, 67, 91
4, 35502, Note_on_c, 2, 67, 0
4, 35520, Note_on_c, 2, 70, 91
4, 35531, Note_on_c, 2, 70, 0
4, 35580, Note_on_c, 2, 70, 91
4, 35591, Note_on_c, 2, 70, 0
4, 35640, Note_on_c, 2, 69, 91
4, 35652, Note_on_c, 2, 69, 0
4, 35700, Note_on_c, 2, 69, 91
4, 35714, Note_on_c, 2, 69, 0
4, 35966, Note_on_c, 2, 67, 91
4, 35978, Note_on_c, 2, 67, 0
4, 36004, Note_on_c, 2, 70, 91
4, 36015, Note_on_c, 2, 70, 0
4, 36064, Note_on_c, 2, 70, 91
4, 36075, Note_on_c, 2, 70, 0
4, 36124, Note_on_c, 2, 69, 91
4, 36136, Note_on_c, 2, 69, 0
4, 36184, Note_on_c, 2, 69, 91
4, 36198, Note_on_c, 2, 69, 0
4, 36446, Note_on_c, 2, 67, 91
4, 36453, Note_on_c, 2, 67, 0
4, 36484, Note_on_c, 2, 70, 91
4, 36495, Note_on_c, 2, 70, 0
4, 36542, Note_on_c, 2, 70, 91
4, 36553, Note_on_c, 2, 70, 0
4, 36600, Note_on_c, 2, 69, 91
4, 36608, Note_on_c, 2, 69, 0
4, 36660, Note_on_c, 2, 69, 91
4, 36673, Note_on_c, 2, 69, 0
4, 46560, Note_on_c, 2, 68, 91
4, 46571, Note_on_c, 2, 68, 0
4, 46620, Note_on_c, 2, 68, 91
4, 46631, Note_on_c, 2, 68, 0
4, 46680, Note_on_c, 2, 67, 91
4, 46692, Note_on_c, 2, 67, 0
4, 46740, Note_on_c, 2, 67, 91
4, 46754, Note_on_c, 2, 67, 0
4, 47010, Note_on_c, 2, 65, 91
4, 47022, Note_on_c, 2, 65, 0
4, 47040, Note_on_c, 2, 68, 91
4, 47052, Note_on_c, 2, 68, 0
4, 47100, Note_on_c, 2, 68, 91
4, 47111, Note_on_c, 2, 68, 0
4, 47160, Note_on_c, 2, 67, 91
4, 47168, Note_on_c, 2, 67, 0
4, 47220, Note_on_c, 2, 67, 91
4, 47233, Note_on_c, 2, 67, 0
4, 47490, Note_on_c, 2, 65, 91
4, 47501, Note_on_c, 2, 65, 0
4, 47520, Note_on_c, 2, 68, 91
4, 47531, Note_on_c, 2, 68, 0
4, 47580, Note_on_c, 2, 68, 91
4, 47591, Note_on_c, 2, 68, 0
4, 47640, Note_on_c, 2, 67, 91
4, 47652, Note_on_c, 2, 67, 0
4, 47700, Note_on_c, 2, 67, 91
4, 47714, Note_on_c, 2, 67, 0
4, 47970, Note_on_c, 2, 65, 91
4, 47982, Note_on_c, 2, 65, 0
4, 48000, Note_on_c, 2, 68, 91
4, 48012, Note_on_c, 2, 68, 0
4, 48060, Note_on_c, 2, 68, 91
4, 48071, Note_on_c, 2, 68, 0
4, 48120, Note_on_c, 2, 67, 91
4, 48128, Note_on_c, 2, 67, 0
4, 48180, Note_on_c, 2, 67, 91
4, 48193, Note_on_c, 2, 67, 0
4, 48450, Note_on_c, 2, 65, 91
4, 48461, Note_on_c, 2, 65, 0
4, 48480, Note_on_c, 2, 68, 91
4, 48491, Note_on_c, 2, 68, 0
4, 48540, Note_on_c, 2, 68, 91
4, 48551, Note_on_c, 2, 68, 0
4, 48600, Note_on_c, 2, 67, 91
4, 48612, Note_on_c, 2, 67, 0
4, 48660, Note_on_c, 2, 67, 91
4, 48674, Note_on_c, 2, 67, 0
4, 48930, Note_on_c, 2, 65, 91
4, 48942, Note_on_c, 2, 65, 0
4, 48960, Note_on_c, 2, 68, 91
4, 48972, Note_on_c, 2, 68, 0
4, 49020, Note_on_c, 2, 68, 91
4, 49031, Note_on_c, 2, 68, 0
4, 49080, Note_on_c, 2, 67, 91
4, 49088, Note_on_c, 2, 67, 0
4, 49140, Note_on_c, 2, 67, 91
4, 49153, Note_on_c, 2, 67, 0
4, 49410, Note_on_c, 2, 65, 91
4, 49421, Note_on_c, 2, 65, 0
4, 49440, Note_on_c, 2, 68, 91
4, 49451, Note_on_c, 2, 68, 0
4, 49500, Note_on_c, 2, 68, 91
4, 49511, Note_on_c, 2, 68, 0
4, 49560, Note_on_c, 2, 67, 91
4, 49572, Note_on_c, 2, 67, 0
4, 49620, Note_on_c, 2, 67, 91
4, 49634, Note_on_c, 2, 67, 0
4, 49890, Note_on_c, 2, 65, 91
4, 49902, Note_on_c, 2, 65, 0
4, 49920, Note_on_c, 2, 68, 91
4, 49932, Note_on_c, 2, 68, 0
4, 49980, Note_on_c, 2, 68, 91
4, 49991, Note_on_c, 2, 68, 0
4, 50040, Note_on_c, 2, 67, 91
4, 50048, Note_on_c, 2, 67, 0
4, 50100, Note_on_c, 2, 67, 91
4, 50113, Note_on_c, 2, 67, 0
4, 50370, Note_on_c, 2, 65, 91
4, 50381, Note_on_c, 2, 65, 0
4, 50400, Note_on_c, 2, 68, 91
4, 50411, Note_on_c, 2, 68, 0
4, 50460, Note_on_c, 2, 68, 91
4, 50471, Note_on_c, 2, 68, 0
4, 50520, Note_on_c, 2, 67, 91
4, 50532, Note_on_c, 2, 67, 0
4, 50580, Note_on_c, 2, 67, 91
4, 50594, Note_on_c, 2, 67, 0
4, 50850, Note_on_c, 2, 65, 91
4, 50862, Note_on_c, 2, 65, 0
4, 50880, Note_on_c, 2, 68, 91
4, 50892, Note_on_c, 2, 68, 0
4, 50940, Note_on_c, 2, 68, 91
4, 50951, Note_on_c, 2, 68, 0
4, 51000, Note_on_c, 2, 67, 91
4, 51008, Note_on_c, 2, 67, 0
4, 51060, Note_on_c, 2, 67, 91
4, 51073, Note_on_c, 2, 67, 0
4, 51330, Note_on_c, 2, 65, 91
4, 51341, Note_on_c, 2, 65, 0
4, 51360, Note_on_c, 2, 68, 91
4, 51371, Note_on_c, 2, 68, 0
4, 51420, Note_on_c, 2, 68, 91
4, 51431, Note_on_c, 2, 68, 0
4, 51480, Note_on_c, 2, 67, 91
4, 51492, Note_on_c, 2, 67, 0
4, 51540, Note_on_c, 2, 67, 91
4, 51554, Note_on_c, 2, 67, 0
4, 51810, Note_on_c, 2, 65, 91
4, 51822, Note_on_c, 2, 65, 0
4, 51840, Note_on_c, 2, 68, 91
4, 51852, Note_on_c, 2, 68, 0
4, 51900, Note_on_c, 2, 68, 91
4, 51911, Note_on_c, 2, 68, 0
4, 51960, Note_on_c, 2, 67, 91
4, 51968, Note_on_c, 2, 67, 0
4, 52020, Note_on_c, 2, 67, 91
4, 52033, Note_on_c, 2, 67, 0
4, 52290, Note_on_c, 2, 65, 91
4, 52301, Note_on_c, 2, 65, 0
4, 52320, Note_on_c, 2, 68, 91
4, 52331, Note_on_c, 2, 68, 0
4, 52380, Note_on_c, 2, 68, 91
4, 52391, Note_on_c, 2, 68, 0
4, 52440, Note_on_c, 2, 67, 91
4, 52452, Note_on_c, 2, 67, 0
4, 52500, Note_on_c, 2, 67, 91
4, 52514, Note_on_c, 2, 67, 0
4, 52770, Note_on_c, 2, 65, 91
4, 52782, Note_on_c, 2, 65, 0
4, 52800, Note_on_c, 2, 68, 91
4, 52812, Note_on_c, 2, 68, 0
4, 52860, Note_on_c, 2, 68, 91
4, 52871, Note_on_c, 2, 68, 0
4, 52920, Note_on_c, 2, 67, 91
4, 52928, Note_on_c, 2, 67, 0
4, 52980, Note_on_c, 2, 67, 91
4, 52993, Note_on_c, 2, 67, 0
4, 53250, Note_on_c, 2, 65, 91
4, 53261, Note_on_c, 2, 65, 0
4, 53280, Note_on_c, 2, 68, 91
4, 53291, Note_on_c, 2, 68, 0
4, 53340, Note_on_c, 2, 68, 91
4, 53351, Note_on_c, 2, 68, 0
4, 53400, Note_on_c, 2, 67, 91
4, 53412, Note_on_c, 2, 67, 0
4, 53460, Note_on_c, 2, 67, 91
4, 53474, Note_on_c, 2, 67, 0
4, 53730, Note_on_c, 2, 65, 91
4, 53742, Note_on_c, 2, 65, 0
4, 53760, Note_on_c, 2, 68, 91
4, 53772, Note_on_c, 2, 68, 0
4, 53820, Note_on_c, 2, 68, 91
4, 53831, Note_on_c, 2, 68, 0
4, 53880, Note_on_c, 2, 67, 91
4, 53888, Note_on_c, 2, 67, 0
4, 53940, Note_on_c, 2, 67, 91
4, 53953, Note_on_c, 2, 67, 0
4, 54212, Note_on_c, 2, 65, 91
4, 54223, Note_on_c, 2, 65, 0
4, 54240, Note_on_c, 2, 68, 91
4, 54251, Note_on_c, 2, 68, 0
4, 54300, Note_on_c, 2, 68, 91
4, 54311, Note_on_c, 2, 68, 0
4, 54360, Note_on_c, 2, 67, 91
4, 54372, Note_on_c, 2, 67, 0
4, 54420, Note_on_c, 2, 67, 91
4, 54434, Note_on_c, 2, 67, 0
4, 54690, Note_on_c, 2, 65, 91
4, 54702, Note_on_c, 2, 65, 0
4, 54720, Note_on_c, 2, 68, 91
4, 54732, Note_on_c, 2, 68, 0
4, 54780, Note_on_c, 2, 68, 91
4, 54791, Note_on_c, 2, 68, 0
4, 54840, Note_on_c, 2, 67, 91
4, 54848, Note_on_c, 2, 67, 0
4, 54900, Note_on_c, 2, 67, 91
4, 54913, Note_on_c, 2, 67, 0
4, 55170, Note_on_c, 2, 65, 91
4, 55181, Note_on_c, 2, 65, 0
4, 55200, Note_on_c, 2, 68, 91
4, 55211, Note_on_c, 2, 68, 0
4, 55260, Note_on_c, 2, 68, 91
4, 55271, Note_on_c, 2, 68, 0
4, 55320, Note_on_c, 2, 67, 91
4, 55332, Note_on_c, 2, 67, 0
4, 55380, Note_on_c, 2, 67, 91
4, 55394, Note_on_c, 2, 67, 0
4, 55650, Note_on_c, 2, 65, 91
4, 55662, Note_on_c, 2, 65, 0
4, 55680, Note_on_c, 2, 68, 91
4, 55692, Note_on_c, 2, 68, 0
4, 55740, Note_on_c, 2, 68, 91
4, 55751, Note_on_c, 2, 68, 0
4, 55800, Note_on_c, 2, 67, 91
4, 55808, Note_on_c, 2, 67, 0
4, 55860, Note_on_c, 2, 67, 91
4, 55873, Note_on_c, 2, 67, 0
4, 56130, Note_on_c, 2, 65, 91
4, 56141, Note_on_c, 2, 65, 0
4, 56160, Note_on_c, 2, 68, 91
4, 56171, Note_on_c, 2, 68, 0
4, 56220, Note_on_c, 2, 68, 91
4, 56231, Note_on_c, 2, 68, 0
4, 56280, Note_on_c, 2, 67, 91
4, 56292, Note_on_c, 2, 67, 0
4, 56340, Note_on_c, 2, 67, 91
4, 56354, Note_on_c, 2, 67, 0
4, 56610, Note_on_c, 2, 65, 91
4, 56622, Note_on_c, 2, 65, 0
4, 56640, Note_on_c, 2, 68, 91
4, 56652, Note_on_c, 2, 68, 0
4, 56700, Note_on_c, 2, 68, 91
4, 56711, Note_on_c, 2, 68, 0
4, 56760, Note_on_c, 2, 67, 91
4, 56768, Note_on_c, 2, 67, 0
4, 56820, Note_on_c, 2, 67, 91
4, 56833, Note_on_c, 2, 67, 0
4, 57090, Note_on_c, 2, 65, 91
4, 57101, Note_on_c, 2, 65, 0
4, 57120, Note_on_c, 2, 68, 91
4, 57131, Note_on_c, 2, 68, 0
4, 57180, Note_on_c, 2, 68, 91
4, 57191, Note_on_c, 2, 68, 0
4, 57240, Note_on_c, 2, 67, 91
4, 57252, Note_on_c, 2, 67, 0
4, 57300, Note_on_c, 2, 67, 91
4, 57314, Note_on_c, 2, 67, 0
4, 57570, Note_on_c, 2, 65, 91
4, 57582, Note_on_c, 2, 65, 0
4, 57600, Note_on_c, 2, 68, 91
4, 57612, Note_on_c, 2, 68, 0
4, 57660, Note_on_c, 2, 68, 91
4, 57671, Note_on_c, 2, 68, 0
4, 57720, Note_on_c, 2, 67, 91
4, 57728, Note_on_c, 2, 67, 0
4, 57780, Note_on_c, 2, 67, 91
4, 57793, Note_on_c, 2, 67, 0
4, 58052, Note_on_c, 2, 65, 91
4, 58063, Note_on_c, 2, 65, 0
4, 58080, Note_on_c, 2, 68, 91
4, 58091, Note_on_c, 2, 68, 0
4, 58140, Note_on_c, 2, 68, 91
4, 58151, Note_on_c, 2, 68, 0
4, 58200, Note_on_c, 2, 67, 91
4, 58212, Note_on_c, 2, 67, 0
4, 58260, Note_on_c, 2, 67, 91
4, 58274, Note_on_c, 2, 67, 0
4, 58530, Note_on_c, 2, 65, 91
4, 58542, Note_on_c, 2, 65, 0
4, 58560, Note_on_c, 2, 68, 91
4, 58572, Note_on_c, 2, 68, 0
4, 58620, Note_on_c, 2, 68, 91
4, 58631, Note_on_c, 2, 68, 0
4, 58680, Note_on_c, 2, 67, 91
4, 58688, Note_on_c, 2, 67, 0
4, 58740, Note_on_c, 2, 67, 91
4, 58753, Note_on_c, 2, 67, 0
4, 59010, Note_on_c, 2, 65, 91
4, 59021, Note_on_c, 2, 65, 0
4, 59040, Note_on_c, 2, 68, 91
4, 59051, Note_on_c, 2, 68, 0
4, 59100, Note_on_c, 2, 68, 91
4, 59111, Note_on_c, 2, 68, 0
4, 59160, Note_on_c, 2, 67, 91
4, 59172, Note_on_c, 2, 67, 0
4, 59220, Note_on_c, 2, 67, 91
4, 59234, Note_on_c, 2, 67, 0
4, 59490, Note_on_c, 2, 65, 91
4, 59502, Note_on_c, 2, 65, 0
4, 59520, Note_on_c, 2, 68, 91
4, 59532, Note_on_c, 2, 68, 0
4, 59580, Note_on_c, 2, 68, 91
4, 59591, Note_on_c, 2, 68, 0
4, 59640, Note_on_c, 2, 67, 91
4, 59648, Note_on_c, 2, 67, 0
4, 59700, Note_on_c, 2, 67, 91
4, 59713, Note_on_c, 2, 67, 0
4, 59970, Note_on_c, 2, 65, 91
4, 59981, Note_on_c, 2, 65, 0
4, 60000, Note_on_c, 2, 68, 91
4, 60011, Note_on_c, 2, 68, 0
4, 60060, Note_on_c, 2, 68, 91
4, 60071, Note_on_c, 2, 68, 0
4, 60120, Note_on_c, 2, 67, 91
4, 60132, Note_on_c, 2, 67, 0
4, 60180, Note_on_c, 2, 67, 91
4, 60194, Note_on_c, 2, 67, 0
4, 60450, Note_on_c, 2, 65, 91
4, 60462, Note_on_c, 2, 65, 0
4, 60480, Note_on_c, 2, 68, 91
4, 60492, Note_on_c, 2, 68, 0
4, 60540, Note_on_c, 2, 68, 91
4, 60551, Note_on_c, 2, 68, 0
4, 60600, Note_on_c, 2, 67, 91
4, 60608, Note_on_c, 2, 67, 0
4, 60660, Note_on_c, 2, 67, 91
4, 60673, Note_on_c, 2, 67, 0
4, 60930, Note_on_c, 2, 65, 91
4, 60941, Note_on_c, 2, 65, 0
4, 60960, Note_on_c, 2, 68, 91
4, 60971, Note_on_c, 2, 68, 0
4, 61020, Note_on_c, 2, 68, 91
4, 61031, Note_on_c, 2, 68, 0
4, 61080, Note_on_c, 2, 67, 91
4, 61092, Note_on_c, 2, 67, 0
4, 61140, Note_on_c, 2, 67, 91
4, 61154, Note_on_c, 2, 67, 0
4, 61410, Note_on_c, 2, 65, 91
4, 61422, Note_on_c, 2, 65, 0
4, 61440, Note_on_c, 2, 68, 91
4, 61452, Note_on_c, 2, 68, 0
4, 61500, Note_on_c, 2, 68, 91
4, 61511, Note_on_c, 2, 68, 0
4, 61560, Note_on_c, 2, 67, 91
4, 61568, Note_on_c, 2, 67, 0
4, 61620, Note_on_c, 2, 67, 91
4, 61633, Note_on_c, 2, 67, 0
4, 61890, Note_on_c, 2, 65, 91
4, 61901, Note_on_c, 2, 65, 0
4, 61920, Note_on_c, 2, 68, 91
4, 61931, Note_on_c, 2, 68, 0
4, 61980, Note_on_c, 2, 68, 91
4, 61991, Note_on_c, 2, 68, 0
4, 62040, Note_on_c, 2, 67, 91
4, 62052, Note_on_c, 2, 67, 0
4, 62100, Note_on_c, 2, 67, 91
4, 62114, Note_on_c, 2, 67, 0
4, 62370, Note_on_c, 2, 65, 91
4, 62382, Note_on_c, 2, 65, 0
4, 62400, Note_on_c, 2, 68, 91
4, 62412, Note_on_c, 2, 68, 0
4, 62460, Note_on_c, 2, 68, 91
4, 62471, Note_on_c, 2, 68, 0
4, 62520, Note_on_c, 2, 67, 91
4, 62528, Note_on_c, 2, 67, 0
4, 62580, Note_on_c, 2, 67, 91
4, 62593, Note_on_c, 2, 67, 0
4, 62850, Note_on_c, 2, 65, 91
4, 62861, Note_on_c, 2, 65, 0
4, 62880, Note_on_c, 2, 68, 91
4, 62891, Note_on_c, 2, 68, 0
4, 62940, Note_on_c, 2, 68, 91
4, 62951, Note_on_c, 2, 68, 0
4, 63000, Note_on_c, 2, 67, 91
4, 63012, Note_on_c, 2, 67, 0
4, 63060, Note_on_c, 2, 67, 91
4, 63074, Note_on_c, 2, 67, 0
4, 63330, Note_on_c, 2, 65, 91
4, 63342, Note_on_c, 2, 65, 0
4, 63360, Note_on_c, 2, 68, 91
4, 63372, Note_on_c, 2, 68, 0
4, 63420, Note_on_c, 2, 68, 91
4, 63431, Note_on_c, 2, 68, 0
4, 63480, Note_on_c, 2, 67, 91
4, 63488, Note_on_c, 2, 67, 0
4, 63540, Note_on_c, 2, 67, 91
4, 63553, Note_on_c, 2, 67, 0
4, 63810, Note_on_c, 2, 65, 91
4, 63821, Note_on_c, 2, 65, 0
4, 63840, Note_on_c, 2, 68, 91
4, 63851, Note_on_c, 2, 68, 0
4, 63851, End_track
5, 0, Start_track
5, 0, MIDI_port, 0
5, 0, Title_t, "Single Note Riff"
5, 0, Control_c, 3, 91, 67
5, 137, Program_c, 3, 81
5, 138, Control_c, 3, 7, 70
5, 138, Control_c, 3, 10, 36
5, 2430, Note_on_c, 3, 80, 127
5, 2442, Note_on_c, 3, 80, 0
5, 2490, Note_on_c, 3, 80, 127
5, 2502, Note_on_c, 3, 80, 0
5, 2580, Note_on_c, 3, 77, 127
5, 2592, Note_on_c, 3, 77, 0
5, 2610, Note_on_c, 3, 79, 127
5, 2623, Note_on_c, 3, 79, 0
5, 2640, Note_on_c, 3, 80, 127
5, 2650, Note_on_c, 3, 80, 0
5, 2700, Note_on_c, 3, 79, 127
5, 2715, Note_on_c, 3, 79, 0
5, 2730, Note_on_c, 3, 80, 127
5, 2743, Note_on_c, 3, 80, 0
5, 2760, Note_on_c, 3, 82, 127
5, 2769, Note_on_c, 3, 82, 0
5, 2790, Note_on_c, 3, 77, 127
5, 2803, Note_on_c, 3, 77, 0
5, 2910, Note_on_c, 3, 80, 127
5, 2920, Note_on_c, 3, 80, 0
5, 2970, Note_on_c, 3, 80, 127
5, 2982, Note_on_c, 3, 80, 0
5, 3060, Note_on_c, 3, 77, 127
5, 3074, Note_on_c, 3, 77, 0
5, 3090, Note_on_c, 3, 79, 127
5, 3103, Note_on_c, 3, 79, 0
5, 3120, Note_on_c, 3, 80, 127
5, 3127, Note_on_c, 3, 80, 0
5, 3180, Note_on_c, 3, 79, 127
5, 3196, Note_on_c, 3, 79, 0
5, 3210, Note_on_c, 3, 80, 127
5, 3223, Note_on_c, 3, 80, 0
5, 3240, Note_on_c, 3, 82, 127
5, 3250, Note_on_c, 3, 82, 0
5, 3270, Note_on_c, 3, 77, 127
5, 3279, Note_on_c, 3, 77, 0
5, 3390, Note_on_c, 3, 80, 127
5, 3402, Note_on_c, 3, 80, 0
5, 3450, Note_on_c, 3, 80, 127
5, 3462, Note_on_c, 3, 80, 0
5, 3540, Note_on_c, 3, 77, 127
5, 3552, Note_on_c, 3, 77, 0
5, 3570, Note_on_c, 3, 79, 127
5, 3583, Note_on_c, 3, 79, 0
5, 3600, Note_on_c, 3, 80, 127
5, 3610, Note_on_c, 3, 80, 0
5, 3660, Note_on_c, 3, 79, 127
5, 3675, Note_on_c, 3, 79, 0
5, 3690, Note_on_c, 3, 80, 127
5, 3703, Note_on_c, 3, 80, 0
5, 3720, Note_on_c, 3, 82, 127
5, 3729, Note_on_c, 3, 82, 0
5, 3750, Note_on_c, 3, 77, 127
5, 3763, Note_on_c, 3, 77, 0
5, 3870, Note_on_c, 3, 80, 127
5, 3880, Note_on_c, 3, 80, 0
5, 3930, Note_on_c, 3, 80, 127
5, 3942, Note_on_c, 3, 80, 0
5, 4020, Note_on_c, 3, 77, 127
5, 4034, Note_on_c, 3, 77, 0
5, 4050, Note_on_c, 3, 79, 127
5, 4063, Note_on_c, 3, 79, 0
5, 4080, Note_on_c, 3, 80, 127
5, 4087, Note_on_c, 3, 80, 0
5, 4140, Note_on_c, 3, 79, 127
5, 4156, Note_on_c, 3, 79, 0
5, 4170, Note_on_c, 3, 80, 127
5, 4183, Note_on_c, 3, 80, 0
5, 4200, Note_on_c, 3, 82, 127
5, 4210, Note_on_c, 3, 82, 0
5, 4230, Note_on_c, 3, 77, 127
5, 4239, Note_on_c, 3, 77, 0
5, 4350, Note_on_c, 3, 80, 127
5, 4362, Note_on_c, 3, 80, 0
5, 4410, Note_on_c, 3, 80, 127
5, 4422, Note_on_c, 3, 80, 0
5, 4500, Note_on_c, 3, 77, 127
5, 4512, Note_on_c, 3, 77, 0
5, 4530, Note_on_c, 3, 79, 127
5, 4543, Note_on_c, 3, 79, 0
5, 4560, Note_on_c, 3, 80, 127
5, 4570, Note_on_c, 3, 80, 0
5, 4620, Note_on_c, 3, 79, 127
5, 4635, Note_on_c, 3, 79, 0
5, 4650, Note_on_c, 3, 80, 127
5, 4663, Note_on_c, 3, 80, 0
5, 4680, Note_on_c, 3, 82, 127
5, 4689, Note_on_c, 3, 82, 0
5, 4710, Note_on_c, 3, 77, 127
5, 4723, Note_on_c, 3, 77, 0
5, 4830, Note_on_c, 3, 80, 127
5, 4840, Note_on_c, 3, 80, 0
5, 4890, Note_on_c, 3, 80, 127
5, 4902, Note_on_c, 3, 80, 0
5, 4980, Note_on_c, 3, 77, 127
5, 4994, Note_on_c, 3, 77, 0
5, 5010, Note_on_c, 3, 79, 127
5, 5023, Note_on_c, 3, 79, 0
5, 5040, Note_on_c, 3, 80, 127
5, 5047, Note_on_c, 3, 80, 0
5, 5100, Note_on_c, 3, 79, 127
5, 5116, Note_on_c, 3, 79, 0
5, 5130, Note_on_c, 3, 80, 127
5, 5143, Note_on_c, 3, 80, 0
5, 5160, Note_on_c, 3, 82, 127
5, 5170, Note_on_c, 3, 82, 0
5, 5190, Note_on_c, 3, 77, 127
5, 5199, Note_on_c, 3, 77, 0
5, 5310, Note_on_c, 3, 80, 127
5, 5322, Note_on_c, 3, 80, 0
5, 5370, Note_on_c, 3, 80, 127
5, 5382, Note_on_c, 3, 80, 0
5, 5460, Note_on_c, 3, 77, 127
5, 5472, Note_on_c, 3, 77, 0
5, 5490, Note_on_c, 3, 79, 127
5, 5503, Note_on_c, 3, 79, 0
5, 5520, Note_on_c, 3, 80, 127
5, 5530, Note_on_c, 3, 80, 0
5, 5580, Note_on_c, 3, 79, 127
5, 5595, Note_on_c, 3, 79, 0
5, 5610, Note_on_c, 3, 80, 127
5, 5623, Note_on_c, 3, 80, 0
5, 5640, Note_on_c, 3, 82, 127
5, 5649, Note_on_c, 3, 82, 0
5, 5670, Note_on_c, 3, 77, 127
5, 5683, Note_on_c, 3, 77, 0
5, 5790, Note_on_c, 3, 80, 127
5, 5800, Note_on_c, 3, 80, 0
5, 5850, Note_on_c, 3, 80, 127
5, 5862, Note_on_c, 3, 80, 0
5, 5940, Note_on_c, 3, 77, 127
5, 5954, Note_on_c, 3, 77, 0
5, 5970, Note_on_c, 3, 79, 127
5, 5983, Note_on_c, 3, 79, 0
5, 6000, Note_on_c, 3, 80, 127
5, 6007, Note_on_c, 3, 80, 0
5, 6060, Note_on_c, 3, 79, 127
5, 6076, Note_on_c, 3, 79, 0
5, 6090, Note_on_c, 3, 80, 127
5, 6103, Note_on_c, 3, 80, 0
5, 6120, Note_on_c, 3, 82, 127
5, 6130, Note_on_c, 3, 82, 0
5, 6150, Note_on_c, 3, 77, 127
5, 6159, Note_on_c, 3, 77, 0
5, 6270, Note_on_c, 3, 80, 127
5, 6282, Note_on_c, 3, 80, 0
5, 6330, Note_on_c, 3, 80, 127
5, 6342, Note_on_c, 3, 80, 0
5, 6420, Note_on_c, 3, 77, 127
5, 6432, Note_on_c, 3, 77, 0
5, 6450, Note_on_c, 3, 79, 127
5, 6463, Note_on_c, 3, 79, 0
5, 6480, Note_on_c, 3, 80, 127
5, 6490, Note_on_c, 3, 80, 0
5, 6540, Note_on_c, 3, 79, 127
5, 6555, Note_on_c, 3, 79, 0
5, 6570, Note_on_c, 3, 80, 127
5, 6583, Note_on_c, 3, 80, 0
5, 6600, Note_on_c, 3, 82, 127
5, 6609, Note_on_c, 3, 82, 0
5, 6630, Note_on_c, 3, 77, 127
5, 6643, Note_on_c, 3, 77, 0
5, 6750, Note_on_c, 3, 80, 127
5, 6760, Note_on_c, 3, 80, 0
5, 6810, Note_on_c, 3, 80, 127
5, 6822, Note_on_c, 3, 80, 0
5, 6900, Note_on_c, 3, 77, 127
5, 6914, Note_on_c, 3, 77, 0
5, 6930, Note_on_c, 3, 79, 127
5, 6943, Note_on_c, 3, 79, 0
5, 6960, Note_on_c, 3, 80, 127
5, 6967, Note_on_c, 3, 80, 0
5, 7020, Note_on_c, 3, 79, 127
5, 7036, Note_on_c, 3, 79, 0
5, 7050, Note_on_c, 3, 80, 127
5, 7063, Note_on_c, 3, 80, 0
5, 7080, Note_on_c, 3, 82, 127
5, 7090, Note_on_c, 3, 82, 0
5, 7110, Note_on_c, 3, 77, 127
5, 7119, Note_on_c, 3, 77, 0
5, 7230, Note_on_c, 3, 80, 127
5, 7242, Note_on_c, 3, 80, 0
5, 7290, Note_on_c, 3, 80, 127
5, 7302, Note_on_c, 3, 80, 0
5, 7380, Note_on_c, 3, 77, 127
5, 7392, Note_on_c, 3, 77, 0
5, 7410, Note_on_c, 3, 79, 127
5, 7423, Note_on_c, 3, 79, 0
5, 7440, Note_on_c, 3, 80, 127
5, 7450, Note_on_c, 3, 80, 0
5, 7500, Note_on_c, 3, 79, 127
5, 7515, Note_on_c, 3, 79, 0
5, 7530, Note_on_c, 3, 80, 127
5, 7543, Note_on_c, 3, 80, 0
5, 7560, Note_on_c, 3, 82, 127
5, 7569, Note_on_c, 3, 82, 0
5, 7590, Note_on_c, 3, 77, 127
5, 7603, Note_on_c, 3, 77, 0
5, 7710, Note_on_c, 3, 80, 127
5, 7720, Note_on_c, 3, 80, 0
5, 7770, Note_on_c, 3, 80, 127
5, 7782, Note_on_c, 3, 80, 0
5, 7860, Note_on_c, 3, 77, 127
5, 7874, Note_on_c, 3, 77, 0
5, 7890, Note_on_c, 3, 79, 127
5, 7903, Note_on_c, 3, 79, 0
5, 7920, Note_on_c, 3, 80, 127
5, 7927, Note_on_c, 3, 80, 0
5, 7980, Note_on_c, 3, 79, 127
5, 7996, Note_on_c, 3, 79, 0
5, 8010, Note_on_c, 3, 80, 127
5, 8023, Note_on_c, 3, 80, 0
5, 8040, Note_on_c, 3, 82, 127
5, 8050, Note_on_c, 3, 82, 0
5, 8070, Note_on_c, 3, 77, 127
5, 8079, Note_on_c, 3, 77, 0
5, 8190, Note_on_c, 3, 80, 127
5, 8202, Note_on_c, 3, 80, 0
5, 8250, Note_on_c, 3, 80, 127
5, 8262, Note_on_c, 3, 80, 0
5, 8340, Note_on_c, 3, 77, 127
5, 8352, Note_on_c, 3, 77, 0
5, 8370, Note_on_c, 3, 79, 127
5, 8383, Note_on_c, 3, 79, 0
5, 8400, Note_on_c, 3, 80, 127
5, 8410, Note_on_c, 3, 80, 0
5, 8460, Note_on_c, 3, 79, 127
5, 8475, Note_on_c, 3, 79, 0
5, 8490, Note_on_c, 3, 80, 127
5, 8503, Note_on_c, 3, 80, 0
5, 8520, Note_on_c, 3, 82, 127
5, 8529, Note_on_c, 3, 82, 0
5, 8550, Note_on_c, 3, 77, 127
5, 8563, Note_on_c, 3, 77, 0
5, 8670, Note_on_c, 3, 80, 127
5, 8680, Note_on_c, 3, 80, 0
5, 8730, Note_on_c, 3, 80, 127
5, 8742, Note_on_c, 3, 80, 0
5, 8820, Note_on_c, 3, 77, 127
5, 8834, Note_on_c, 3, 77, 0
5, 8850, Note_on_c, 3, 79, 127
5, 8863, Note_on_c, 3, 79, 0
5, 8880, Note_on_c, 3, 80, 127
5, 8887, Note_on_c, 3, 80, 0
5, 8940, Note_on_c, 3, 79, 127
5, 8956, Note_on_c, 3, 79, 0
5, 8970, Note_on_c, 3, 80, 127
5, 8983, Note_on_c, 3, 80, 0
5, 9000, Note_on_c, 3, 82, 127
5, 9010, Note_on_c, 3, 82, 0
5, 9030, Note_on_c, 3, 77, 127
5, 9039, Note_on_c, 3, 77, 0
5, 9150, Note_on_c, 3, 80, 127
5, 9162, Note_on_c, 3, 80, 0
5, 9210, Note_on_c, 3, 80, 127
5, 9222, Note_on_c, 3, 80, 0
5, 9300, Note_on_c, 3, 77, 127
5, 9312, Note_on_c, 3, 77, 0
5, 9330, Note_on_c, 3, 79, 127
5, 9343, Note_on_c, 3, 79, 0
5, 9360, Note_on_c, 3, 80, 127
5, 9370, Note_on_c, 3, 80, 0
5, 9420, Note_on_c, 3, 79, 127
5, 9435, Note_on_c, 3, 79, 0
5, 9450, Note_on_c, 3, 80, 127
5, 9463, Note_on_c, 3, 80, 0
5, 9480, Note_on_c, 3, 82, 127
5, 9489, Note_on_c, 3, 82, 0
5, 9510, Note_on_c, 3, 77, 127
5, 9523, Note_on_c, 3, 77, 0
5, 9630, Note_on_c, 3, 80, 127
5, 9640, Note_on_c, 3, 80, 0
5, 9690, Note_on_c, 3, 80, 127
5, 9702, Note_on_c, 3, 80, 0
5, 9780, Note_on_c, 3, 77, 127
5, 9794, Note_on_c, 3, 77, 0
5, 9810, Note_on_c, 3, 79, 127
5, 9823, Note_on_c, 3, 79, 0
5, 9840, Note_on_c, 3, 80, 127
5, 9847, Note_on_c, 3, 80, 0
5, 9900, Note_on_c, 3, 79, 127
5, 9916, Note_on_c, 3, 79, 0
5, 9930, Note_on_c, 3, 80, 127
5, 9943, Note_on_c, 3, 80, 0
5, 9960, Note_on_c, 3, 82, 127
5, 9970, Note_on_c, 3, 82, 0
5, 9990, Note_on_c, 3, 77, 127
5, 9999, Note_on_c, 3, 77, 0
5, 10110, Note_on_c, 3, 80, 127
5, 10122, Note_on_c, 3, 80, 0
5, 10170, Note_on_c, 3, 80, 127
5, 10182, Note_on_c, 3, 80, 0
5, 10260, Note_on_c, 3, 77, 127
5, 10272, Note_on_c, 3, 77, 0
5, 10290, Note_on_c, 3, 79, 127
5, 10303, Note_on_c, 3, 79, 0
5, 10320, Note_on_c, 3, 80, 127
5, 10330, Note_on_c, 3, 80, 0
5, 10380, Note_on_c, 3, 79, 127
5, 10395, Note_on_c, 3, 79, 0
5, 10410, Note_on_c, 3, 80, 127
5, 10423, Note_on_c, 3, 80, 0
5, 10440, Note_on_c, 3, 82, 127
5, 10449, Note_on_c, 3, 82, 0
5, 10470, Note_on_c, 3, 77, 127
5, 10483, Note_on_c, 3, 77, 0
5, 10590, Note_on_c, 3, 80, 127
5, 10600, Note_on_c, 3, 80, 0
5, 10650, Note_on_c, 3, 80, 127
5, 10662, Note_on_c, 3, 80, 0
5, 10740, Note_on_c, 3, 77, 127
5, 10754, Note_on_c, 3, 77, 0
5, 10770, Note_on_c, 3, 79, 127
5, 10783, Note_on_c, 3, 79, 0
5, 10800, Note_on_c, 3, 80, 127
5, 10807, Note_on_c, 3, 80, 0
5, 10860, Note_on_c, 3, 79, 127
5, 10876, Note_on_c, 3, 79, 0
5, 10890, Note_on_c, 3, 80, 127
5, 10903, Note_on_c, 3, 80, 0
5, 10920, Note_on_c, 3, 82, 127
5, 10930, Note_on_c, 3, 82, 0
5, 10950, Note_on_c, 3, 77, 127
5, 10959, Note_on_c, 3, 77, 0
5, 11070, Note_on_c, 3, 80, 127
5, 11082, Note_on_c, 3, 80, 0
5, 11130, Note_on_c, 3, 80, 127
5, 11142, Note_on_c, 3, 80, 0
5, 11220, Note_on_c, 3, 77, 127
5, 11232, Note_on_c, 3, 77, 0
5, 11250, Note_on_c, 3, 79, 127
5, 11263, Note_on_c, 3, 79, 0
5, 11280, Note_on_c, 3, 80, 127
5, 11290, Note_on_c, 3, 80, 0
5, 11340, Note_on_c, 3, 79, 127
5, 11355, Note_on_c, 3, 79, 0
5, 11370, Note_on_c, 3, 80, 127
5, 11383, Note_on_c, 3, 80, 0
5, 11400, Note_on_c, 3, 82, 127
5, 11409, Note_on_c, 3, 82, 0
5, 11430, Note_on_c, 3, 77, 127
5, 11443, Note_on_c, 3, 77, 0
5, 11550, Note_on_c, 3, 80, 127
5, 11560, Note_on_c, 3, 80, 0
5, 11610, Note_on_c, 3, 80, 127
5, 11622, Note_on_c, 3, 80, 0
5, 11700, Note_on_c, 3, 77, 127
5, 11714, Note_on_c, 3, 77, 0
5, 11730, Note_on_c, 3, 79, 127
5, 11743, Note_on_c, 3, 79, 0
5, 11760, Note_on_c, 3, 80, 127
5, 11767, Note_on_c, 3, 80, 0
5, 11820, Note_on_c, 3, 79, 127
5, 11836, Note_on_c, 3, 79, 0
5, 11850, Note_on_c, 3, 80, 127
5, 11863, Note_on_c, 3, 80, 0
5, 11880, Note_on_c, 3, 82, 127
5, 11890, Note_on_c, 3, 82, 0
5, 11910, Note_on_c, 3, 77, 127
5, 11919, Note_on_c, 3, 77, 0
5, 12030, Note_on_c, 3, 80, 127
5, 12042, Note_on_c, 3, 80, 0
5, 12090, Note_on_c, 3, 80, 127
5, 12102, Note_on_c, 3, 80, 0
5, 12180, Note_on_c, 3, 77, 127
5, 12192, Note_on_c, 3, 77, 0
5, 12210, Note_on_c, 3, 79, 127
5, 12223, Note_on_c, 3, 79, 0
5, 12240, Note_on_c, 3, 80, 127
5, 12250, Note_on_c, 3, 80, 0
5, 12300, Note_on_c, 3, 79, 127
5, 12315, Note_on_c, 3, 79, 0
5, 12330, Note_on_c, 3, 80, 127
5, 12343, Note_on_c, 3, 80, 0
5, 12360, Note_on_c, 3, 82, 127
5, 12369, Note_on_c, 3, 82, 0
5, 12390, Note_on_c, 3, 77, 127
5, 12403, Note_on_c, 3, 77, 0
5, 12510, Note_on_c, 3, 80, 127
5, 12520, Note_on_c, 3, 80, 0
5, 12570, Note_on_c, 3, 80, 127
5, 12582, Note_on_c, 3, 80, 0
5, 12660, Note_on_c, 3, 77, 127
5, 12674, Note_on_c, 3, 77, 0
5, 12690, Note_on_c, 3, 79, 127
5, 12703, Note_on_c, 3, 79, 0
5, 12720, Note_on_c, 3, 80, 127
5, 12727, Note_on_c, 3, 80, 0
5, 12780, Note_on_c, 3, 79, 127
5, 12796, Note_on_c, 3, 79, 0
5, 12810, Note_on_c, 3, 80, 127
5, 12823, Note_on_c, 3, 80, 0
5, 12840, Note_on_c, 3, 82, 127
5, 12850, Note_on_c, 3, 82, 0
5, 12870, Note_on_c, 3, 77, 127
5, 12879, Note_on_c, 3, 77, 0
5, 12990, Note_on_c, 3, 80, 127
5, 13002, Note_on_c, 3, 80, 0
5, 13050, Note_on_c, 3, 80, 127
5, 13062, Note_on_c, 3, 80, 0
5, 13140, Note_on_c, 3, 77, 127
5, 13152, Note_on_c, 3, 77, 0
5, 13170, Note_on_c, 3, 79, 127
5, 13183, Note_on_c, 3, 79, 0
5, 13200, Note_on_c, 3, 80, 127
5, 13210, Note_on_c, 3, 80, 0
5, 13260, Note_on_c, 3, 79, 127
5, 13275, Note_on_c, 3, 79, 0
5, 13290, Note_on_c, 3, 80, 127
5, 13303, Note_on_c, 3, 80, 0
5, 13320, Note_on_c, 3, 82, 127
5, 13329, Note_on_c, 3, 82, 0
5, 13350, Note_on_c, 3, 77, 127
5, 13363, Note_on_c, 3, 77, 0
5, 13470, Note_on_c, 3, 80, 127
5, 13480, Note_on_c, 3, 80, 0
5, 13530, Note_on_c, 3, 80, 127
5, 13542, Note_on_c, 3, 80, 0
5, 13620, Note_on_c, 3, 77, 127
5, 13634, Note_on_c, 3, 77, 0
5, 13650, Note_on_c, 3, 79, 127
5, 13663, Note_on_c, 3, 79, 0
5, 13680, Note_on_c, 3, 80, 127
5, 13687, Note_on_c, 3, 80, 0
5, 13740, Note_on_c, 3, 79, 127
5, 13756, Note_on_c, 3, 79, 0
5, 13770, Note_on_c, 3, 80, 127
5, 13783, Note_on_c, 3, 80, 0
5, 13800, Note_on_c, 3, 82, 127
5, 13810, Note_on_c, 3, 82, 0
5, 13830, Note_on_c, 3, 77, 127
5, 13839, Note_on_c, 3, 77, 0
5, 13950, Note_on_c, 3, 80, 127
5, 13962, Note_on_c, 3, 80, 0
5, 14010, Note_on_c, 3, 80, 127
5, 14022, Note_on_c, 3, 80, 0
5, 14100, Note_on_c, 3, 77, 127
5, 14112, Note_on_c, 3, 77, 0
5, 14130, Note_on_c, 3, 79, 127
5, 14143, Note_on_c, 3, 79, 0
5, 14160, Note_on_c, 3, 80, 127
5, 14170, Note_on_c, 3, 80, 0
5, 14220, Note_on_c, 3, 79, 127
5, 14235, Note_on_c, 3, 79, 0
5, 14250, Note_on_c, 3, 80, 127
5, 14263, Note_on_c, 3, 80, 0
5, 14280, Note_on_c, 3, 82, 127
5, 14289, Note_on_c, 3, 82, 0
5, 14310, Note_on_c, 3, 77, 127
5, 14323, Note_on_c, 3, 77, 0
5, 14430, Note_on_c, 3, 80, 127
5, 14440, Note_on_c, 3, 80, 0
5, 14490, Note_on_c, 3, 80, 127
5, 14502, Note_on_c, 3, 80, 0
5, 14580, Note_on_c, 3, 77, 127
5, 14594, Note_on_c, 3, 77, 0
5, 14610, Note_on_c, 3, 79, 127
5, 14623, Note_on_c, 3, 79, 0
5, 14640, Note_on_c, 3, 80, 127
5, 14647, Note_on_c, 3, 80, 0
5, 14700, Note_on_c, 3, 79, 127
5, 14716, Note_on_c, 3, 79, 0
5, 14730, Note_on_c, 3, 80, 127
5, 14743, Note_on_c, 3, 80, 0
5, 14760, Note_on_c, 3, 82, 127
5, 14770, Note_on_c, 3, 82, 0
5, 14790, Note_on_c, 3, 77, 127
5, 14799, Note_on_c, 3, 77, 0
5, 14910, Note_on_c, 3, 80, 127
5, 14922, Note_on_c, 3, 80, 0
5, 14970, Note_on_c, 3, 80, 127
5, 14982, Note_on_c, 3, 80, 0
5, 15060, Note_on_c, 3, 77, 127
5, 15072, Note_on_c, 3, 77, 0
5, 15090, Note_on_c, 3, 79, 127
5, 15103, Note_on_c, 3, 79, 0
5, 15120, Note_on_c, 3, 80, 127
5, 15130, Note_on_c, 3, 80, 0
5, 15180, Note_on_c, 3, 79, 127
5, 15195, Note_on_c, 3, 79, 0
5, 15210, Note_on_c, 3, 80, 127
5, 15223, Note_on_c, 3, 80, 0
5, 15240, Note_on_c, 3, 82, 127
5, 15249, Note_on_c, 3, 82, 0
5, 15270, Note_on_c, 3, 77, 127
5, 15283, Note_on_c, 3, 77, 0
5, 15390, Note_on_c, 3, 80, 127
5, 15400, Note_on_c, 3, 80, 0
5, 15450, Note_on_c, 3, 80, 127
5, 15462, Note_on_c, 3, 80, 0
5, 15540, Note_on_c, 3, 77, 127
5, 15554, Note_on_c, 3, 77, 0
5, 15570, Note_on_c, 3, 79, 127
5, 15583, Note_on_c, 3, 79, 0
5, 15600, Note_on_c, 3, 80, 127
5, 15607, Note_on_c, 3, 80, 0
5, 15660, Note_on_c, 3, 79, 127
5, 15676, Note_on_c, 3, 79, 0
5, 15690, Note_on_c, 3, 80, 127
5, 15703, Note_on_c, 3, 80, 0
5, 15720, Note_on_c, 3, 82, 127
5, 15730, Note_on_c, 3, 82, 0
5, 15750, Note_on_c, 3, 77, 127
5, 15759, Note_on_c, 3, 77, 0
5, 15870, Note_on_c, 3, 82, 127
5, 15882, Note_on_c, 3, 82, 0
5, 15930, Note_on_c, 3, 82, 127
5, 15942, Note_on_c, 3, 82, 0
5, 16020, Note_on_c, 3, 79, 127
5, 16032, Note_on_c, 3, 79, 0
5, 16050, Note_on_c, 3, 81, 127
5, 16063, Note_on_c, 3, 81, 0
5, 16080, Note_on_c, 3, 82, 127
5, 16090, Note_on_c, 3, 82, 0
5, 16140, Note_on_c, 3, 81, 127
5, 16155, Note_on_c, 3, 81, 0
5, 16170, Note_on_c, 3, 82, 127
5, 16183, Note_on_c, 3, 82, 0
5, 16200, Note_on_c, 3, 84, 127
5, 16209, Note_on_c, 3, 84, 0
5, 16230, Note_on_c, 3, 79, 127
5, 16243, Note_on_c, 3, 79, 0
5, 16350, Note_on_c, 3, 82, 127
5, 16360, Note_on_c, 3, 82, 0
5, 16410, Note_on_c, 3, 82, 127
5, 16422, Note_on_c, 3, 82, 0
5, 16500, Note_on_c, 3, 79, 127
5, 16514, Note_on_c, 3, 79, 0
5, 16530, Note_on_c, 3, 81, 127
5, 16543, Note_on_c, 3, 81, 0
5, 16560, Note_on_c, 3, 82, 127
5, 16567, Note_on_c, 3, 82, 0
5, 16620, Note_on_c, 3, 81, 127
5, 16636, Note_on_c, 3, 81, 0
5, 16650, Note_on_c, 3, 82, 127
5, 16663, Note_on_c, 3, 82, 0
5, 16680, Note_on_c, 3, 84, 127
5, 16690, Note_on_c, 3, 84, 0
5, 16710, Note_on_c, 3, 79, 127
5, 16719, Note_on_c, 3, 79, 0
5, 16829, Note_on_c, 3, 82, 127
5, 16841, Note_on_c, 3, 82, 0
5, 16889, Note_on_c, 3, 82, 127
5, 16901, Note_on_c, 3, 82, 0
5, 16979, Note_on_c, 3, 79, 127
5, 16991, Note_on_c, 3, 79, 0
5, 17009, Note_on_c, 3, 81, 127
5, 17022, Note_on_c, 3, 81, 0
5, 17039, Note_on_c, 3, 82, 127
5, 17049, Note_on_c, 3, 82, 0
5, 17099, Note_on_c, 3, 81, 127
5, 17114, Note_on_c, 3, 81, 0
5, 17129, Note_on_c, 3, 82, 127
5, 17142, Note_on_c, 3, 82, 0
5, 17159, Note_on_c, 3, 84, 127
5, 17168, Note_on_c, 3, 84, 0
5, 17189, Note_on_c, 3, 79, 127
5, 17202, Note_on_c, 3, 79, 0
5, 17309, Note_on_c, 3, 82, 127
5, 17319, Note_on_c, 3, 82, 0
5, 17369, Note_on_c, 3, 82, 127
5, 17381, Note_on_c, 3, 82, 0
5, 17459, Note_on_c, 3, 79, 127
5, 17473, Note_on_c, 3, 79, 0
5, 17489, Note_on_c, 3, 81, 127
5, 17502, Note_on_c, 3, 81, 0
5, 17519, Note_on_c, 3, 82, 127
5, 17526, Note_on_c, 3, 82, 0
5, 17579, Note_on_c, 3, 81, 127
5, 17595, Note_on_c, 3, 81, 0
5, 17609, Note_on_c, 3, 82, 127
5, 17622, Note_on_c, 3, 82, 0
5, 17639, Note_on_c, 3, 84, 127
5, 17649, Note_on_c, 3, 84, 0
5, 17669, Note_on_c, 3, 79, 127
5, 17678, Note_on_c, 3, 79, 0
5, 17790, Note_on_c, 3, 80, 127
5, 17802, Note_on_c, 3, 80, 0
5, 17850, Note_on_c, 3, 80, 127
5, 17862, Note_on_c, 3, 80, 0
5, 17940, Note_on_c, 3, 77, 127
5, 17952, Note_on_c, 3, 77, 0
5, 17970, Note_on_c, 3, 79, 127
5, 17983, Note_on_c, 3, 79, 0
5, 18000, Note_on_c, 3, 80, 127
5, 18010, Note_on_c, 3, 80, 0
5, 18060, Note_on_c, 3, 79, 127
5, 18075, Note_on_c, 3, 79, 0
5, 18090, Note_on_c, 3, 80, 127
5, 18103, Note_on_c, 3, 80, 0
5, 18120, Note_on_c, 3, 82, 127
5, 18129, Note_on_c, 3, 82, 0
5, 18150, Note_on_c, 3, 77, 127
5, 18163, Note_on_c, 3, 77, 0
5, 18270, Note_on_c, 3, 80, 127
5, 18280, Note_on_c, 3, 80, 0
5, 18330, Note_on_c, 3, 80, 127
5, 18342, Note_on_c, 3, 80, 0
5, 18420, Note_on_c, 3, 77, 127
5, 18434, Note_on_c, 3, 77, 0
5, 18450, Note_on_c, 3, 79, 127
5, 18463, Note_on_c, 3, 79, 0
5, 18480, Note_on_c, 3, 80, 127
5, 18487, Note_on_c, 3, 80, 0
5, 18540, Note_on_c, 3, 79, 127
5, 18556, Note_on_c, 3, 79, 0
5, 18570, Note_on_c, 3, 80, 127
5, 18583, Note_on_c, 3, 80, 0
5, 18600, Note_on_c, 3, 82, 127
5, 18610, Note_on_c, 3, 82, 0
5, 18630, Note_on_c, 3, 77, 127
5, 18639, Note_on_c, 3, 77, 0
5, 18750, Note_on_c, 3, 80, 127
5, 18762, Note_on_c, 3, 80, 0
5, 18810, Note_on_c, 3, 80, 127
5, 18822, Note_on_c, 3, 80, 0
5, 18900, Note_on_c, 3, 77, 127
5, 18912, Note_on_c, 3, 77, 0
5, 18930, Note_on_c, 3, 79, 127
5, 18943, Note_on_c, 3, 79, 0
5, 18960, Note_on_c, 3, 80, 127
5, 18970, Note_on_c, 3, 80, 0
5, 19020, Note_on_c, 3, 79, 127
5, 19035, Note_on_c, 3, 79, 0
5, 19050, Note_on_c, 3, 80, 127
5, 19063, Note_on_c, 3, 80, 0
5, 19080, Note_on_c, 3, 82, 127
5, 19089, Note_on_c, 3, 82, 0
5, 19110, Note_on_c, 3, 77, 127
5, 19123, Note_on_c, 3, 77, 0
5, 19230, Note_on_c, 3, 80, 127
5, 19240, Note_on_c, 3, 80, 0
5, 19290, Note_on_c, 3, 80, 127
5, 19302, Note_on_c, 3, 80, 0
5, 19380, Note_on_c, 3, 77, 127
5, 19394, Note_on_c, 3, 77, 0
5, 19410, Note_on_c, 3, 79, 127
5, 19423, Note_on_c, 3, 79, 0
5, 19440, Note_on_c, 3, 80, 127
5, 19447, Note_on_c, 3, 80, 0
5, 19500, Note_on_c, 3, 79, 127
5, 19516, Note_on_c, 3, 79, 0
5, 19530, Note_on_c, 3, 80, 127
5, 19543, Note_on_c, 3, 80, 0
5, 19560, Note_on_c, 3, 82, 127
5, 19570, Note_on_c, 3, 82, 0
5, 19590, Note_on_c, 3, 77, 127
5, 19599, Note_on_c, 3, 77, 0
5, 19710, Note_on_c, 3, 82, 127
5, 19722, Note_on_c, 3, 82, 0
5, 19770, Note_on_c, 3, 82, 127
5, 19782, Note_on_c, 3, 82, 0
5, 19860, Note_on_c, 3, 79, 127
5, 19872, Note_on_c, 3, 79, 0
5, 19890, Note_on_c, 3, 81, 127
5, 19903, Note_on_c, 3, 81, 0
5, 19920, Note_on_c, 3, 82, 127
5, 19930, Note_on_c, 3, 82, 0
5, 19980, Note_on_c, 3, 81, 127
5, 19995, Note_on_c, 3, 81, 0
5, 20010, Note_on_c, 3, 82, 127
5, 20023, Note_on_c, 3, 82, 0
5, 20040, Note_on_c, 3, 84, 127
5, 20049, Note_on_c, 3, 84, 0
5, 20070, Note_on_c, 3, 79, 127
5, 20083, Note_on_c, 3, 79, 0
5, 20190, Note_on_c, 3, 82, 127
5, 20200, Note_on_c, 3, 82, 0
5, 20250, Note_on_c, 3, 82, 127
5, 20262, Note_on_c, 3, 82, 0
5, 20340, Note_on_c, 3, 79, 127
5, 20354, Note_on_c, 3, 79, 0
5, 20370, Note_on_c, 3, 81, 127
5, 20383, Note_on_c, 3, 81, 0
5, 20400, Note_on_c, 3, 82, 127
5, 20407, Note_on_c, 3, 82, 0
5, 20460, Note_on_c, 3, 81, 127
5, 20476, Note_on_c, 3, 81, 0
5, 20490, Note_on_c, 3, 82, 127
5, 20503, Note_on_c, 3, 82, 0
5, 20520, Note_on_c, 3, 84, 127
5, 20530, Note_on_c, 3, 84, 0
5, 20550, Note_on_c, 3, 79, 127
5, 20559, Note_on_c, 3, 79, 0
5, 20669, Note_on_c, 3, 82, 127
5, 20681, Note_on_c, 3, 82, 0
5, 20729, Note_on_c, 3, 82, 127
5, 20741, Note_on_c, 3, 82, 0
5, 20819, Note_on_c, 3, 79, 127
5, 20831, Note_on_c, 3, 79, 0
5, 20849, Note_on_c, 3, 81, 127
5, 20862, Note_on_c, 3, 81, 0
5, 20879, Note_on_c, 3, 82, 127
5, 20889, Note_on_c, 3, 82, 0
5, 20939, Note_on_c, 3, 81, 127
5, 20954, Note_on_c, 3, 81, 0
5, 20969, Note_on_c, 3, 82, 127
5, 20982, Note_on_c, 3, 82, 0
5, 20999, Note_on_c, 3, 84, 127
5, 21008, Note_on_c, 3, 84, 0
5, 21029, Note_on_c, 3, 79, 127
5, 21042, Note_on_c, 3, 79, 0
5, 21149, Note_on_c, 3, 82, 127
5, 21159, Note_on_c, 3, 82, 0
5, 21209, Note_on_c, 3, 82, 127
5, 21221, Note_on_c, 3, 82, 0
5, 21299, Note_on_c, 3, 79, 127
5, 21313, Note_on_c, 3, 79, 0
5, 21329, Note_on_c, 3, 81, 127
5, 21342, Note_on_c, 3, 81, 0
5, 21359, Note_on_c, 3, 82, 127
5, 21366, Note_on_c, 3, 82, 0
5, 21419, Note_on_c, 3, 81, 127
5, 21435, Note_on_c, 3, 81, 0
5, 21449, Note_on_c, 3, 82, 127
5, 21462, Note_on_c, 3, 82, 0
5, 21479, Note_on_c, 3, 84, 127
5, 21489, Note_on_c, 3, 84, 0
5, 21509, Note_on_c, 3, 79, 127
5, 21518, Note_on_c, 3, 79, 0
5, 23550, Note_on_c, 3, 80, 127
5, 23562, Note_on_c, 3, 80, 0
5, 23610, Note_on_c, 3, 80, 127
5, 23622, Note_on_c, 3, 80, 0
5, 23700, Note_on_c, 3, 77, 127
5, 23712, Note_on_c, 3, 77, 0
5, 23730, Note_on_c, 3, 79, 127
5, 23743, Note_on_c, 3, 79, 0
5, 23760, Note_on_c, 3, 80, 127
5, 23770, Note_on_c, 3, 80, 0
5, 23820, Note_on_c, 3, 79, 127
5, 23835, Note_on_c, 3, 79, 0
5, 23850, Note_on_c, 3, 80, 127
5, 23863, Note_on_c, 3, 80, 0
5, 23880, Note_on_c, 3, 82, 127
5, 23889, Note_on_c, 3, 82, 0
5, 23910, Note_on_c, 3, 77, 127
5, 23923, Note_on_c, 3, 77, 0
5, 24030, Note_on_c, 3, 80, 127
5, 24040, Note_on_c, 3, 80, 0
5, 24090, Note_on_c, 3, 80, 127
5, 24102, Note_on_c, 3, 80, 0
5, 24180, Note_on_c, 3, 77, 127
5, 24194, Note_on_c, 3, 77, 0
5, 24210, Note_on_c, 3, 79, 127
5, 24223, Note_on_c, 3, 79, 0
5, 24240, Note_on_c, 3, 80, 127
5, 24247, Note_on_c, 3, 80, 0
5, 24300, Note_on_c, 3, 79, 127
5, 24316, Note_on_c, 3, 79, 0
5, 24330, Note_on_c, 3, 80, 127
5, 24343, Note_on_c, 3, 80, 0
5, 24360, Note_on_c, 3, 82, 127
5, 24370, Note_on_c, 3, 82, 0
5, 24390, Note_on_c, 3, 77, 127
5, 24399, Note_on_c, 3, 77, 0
5, 24510, Note_on_c, 3, 80, 127
5, 24522, Note_on_c, 3, 80, 0
5, 24570, Note_on_c, 3, 80, 127
5, 24582, Note_on_c, 3, 80, 0
5, 24660, Note_on_c, 3, 77, 127
5, 24672, Note_on_c, 3, 77, 0
5, 24690, Note_on_c, 3, 79, 127
5, 24703, Note_on_c, 3, 79, 0
5, 24720, Note_on_c, 3, 80, 127
5, 24730, Note_on_c, 3, 80, 0
5, 24780, Note_on_c, 3, 79, 127
5, 24795, Note_on_c, 3, 79, 0
5, 24810, Note_on_c, 3, 80, 127
5, 24823, Note_on_c, 3, 80, 0
5, 24840, Note_on_c, 3, 82, 127
5, 24849, Note_on_c, 3, 82, 0
5, 24870, Note_on_c, 3, 77, 127
5, 24883, Note_on_c, 3, 77, 0
5, 24990, Note_on_c, 3, 80, 127
5, 25000, Note_on_c, 3, 80, 0
5, 25050, Note_on_c, 3, 80, 127
5, 25062, Note_on_c, 3, 80, 0
5, 25140, Note_on_c, 3, 77, 127
5, 25154, Note_on_c, 3, 77, 0
5, 25170, Note_on_c, 3, 79, 127
5, 25183, Note_on_c, 3, 79, 0
5, 25200, Note_on_c, 3, 80, 127
5, 25207, Note_on_c, 3, 80, 0
5, 25260, Note_on_c, 3, 79, 127
5, 25276, Note_on_c, 3, 79, 0
5, 25290, Note_on_c, 3, 80, 127
5, 25303, Note_on_c, 3, 80, 0
5, 25320, Note_on_c, 3, 82, 127
5, 25330, Note_on_c, 3, 82, 0
5, 25350, Note_on_c, 3, 77, 127
5, 25359, Note_on_c, 3, 77, 0
5, 25470, Note_on_c, 3, 80, 127
5, 25482, Note_on_c, 3, 80, 0
5, 25530, Note_on_c, 3, 80, 127
5, 25542, Note_on_c, 3, 80, 0
5, 25620, Note_on_c, 3, 77, 127
5, 25632, Note_on_c, 3, 77, 0
5, 25650, Note_on_c, 3, 79, 127
5, 25663, Note_on_c, 3, 79, 0
5, 25680, Note_on_c, 3, 80, 127
5, 25690, Note_on_c, 3, 80, 0
5, 25740, Note_on_c, 3, 79, 127
5, 25755, Note_on_c, 3, 79, 0
5, 25770, Note_on_c, 3, 80, 127
5, 25783, Note_on_c, 3, 80, 0
5, 25800, Note_on_c, 3, 82, 127
5, 25809, Note_on_c, 3, 82, 0
5, 25830, Note_on_c, 3, 77, 127
5, 25843, Note_on_c, 3, 77, 0
5, 25950, Note_on_c, 3, 80, 127
5, 25960, Note_on_c, 3, 80, 0
5, 26010, Note_on_c, 3, 80, 127
5, 26022, Note_on_c, 3, 80, 0
5, 26100, Note_on_c, 3, 77, 127
5, 26114, Note_on_c, 3, 77, 0
5, 26130, Note_on_c, 3, 79, 127
5, 26143, Note_on_c, 3, 79, 0
5, 26160, Note_on_c, 3, 80, 127
5, 26167, Note_on_c, 3, 80, 0
5, 26220, Note_on_c, 3, 79, 127
5, 26236, Note_on_c, 3, 79, 0
5, 26250, Note_on_c, 3, 80, 127
5, 26263, Note_on_c, 3, 80, 0
5, 26280, Note_on_c, 3, 82, 127
5, 26290, Note_on_c, 3, 82, 0
5, 26310, Note_on_c, 3, 77, 127
5, 26319, Note_on_c, 3, 77, 0
5, 26430, Note_on_c, 3, 80, 127
5, 26442, Note_on_c, 3, 80, 0
5, 26490, Note_on_c, 3, 80, 127
5, 26502, Note_on_c, 3, 80, 0
5, 26580, Note_on_c, 3, 77, 127
5, 26592, Note_on_c, 3, 77, 0
5, 26610, Note_on_c, 3, 79, 127
5, 26623, Note_on_c, 3, 79, 0
5, 26640, Note_on_c, 3, 80, 127
5, 26650, Note_on_c, 3, 80, 0
5, 26700, Note_on_c, 3, 79, 127
5, 26715, Note_on_c, 3, 79, 0
5, 26730, Note_on_c, 3, 80, 127
5, 26743, Note_on_c, 3, 80, 0
5, 26760, Note_on_c, 3, 82, 127
5, 26769, Note_on_c, 3, 82, 0
5, 26790, Note_on_c, 3, 77, 127
5, 26803, Note_on_c, 3, 77, 0
5, 26910, Note_on_c, 3, 80, 127
5, 26920, Note_on_c, 3, 80, 0
5, 26970, Note_on_c, 3, 80, 127
5, 26982, Note_on_c, 3, 80, 0
5, 27060, Note_on_c, 3, 77, 127
5, 27074, Note_on_c, 3, 77, 0
5, 27090, Note_on_c, 3, 79, 127
5, 27103, Note_on_c, 3, 79, 0
5, 27120, Note_on_c, 3, 80, 127
5, 27127, Note_on_c, 3, 80, 0
5, 27180, Note_on_c, 3, 79, 127
5, 27196, Note_on_c, 3, 79, 0
5, 27210, Note_on_c, 3, 80, 127
5, 27223, Note_on_c, 3, 80, 0
5, 27240, Note_on_c, 3, 82, 127
5, 27250, Note_on_c, 3, 82, 0
5, 27270, Note_on_c, 3, 77, 127
5, 27279, Note_on_c, 3, 77, 0
5, 27390, Note_on_c, 3, 80, 127
5, 27402, Note_on_c, 3, 80, 0
5, 27450, Note_on_c, 3, 80, 127
5, 27462, Note_on_c, 3, 80, 0
5, 27540, Note_on_c, 3, 77, 127
5, 27552, Note_on_c, 3, 77, 0
5, 27570, Note_on_c, 3, 79, 127
5, 27583, Note_on_c, 3, 79, 0
5, 27600, Note_on_c, 3, 80, 127
5, 27610, Note_on_c, 3, 80, 0
5, 27660, Note_on_c, 3, 79, 127
5, 27675, Note_on_c, 3, 79, 0
5, 27690, Note_on_c, 3, 80, 127
5, 27703, Note_on_c, 3, 80, 0
5, 27720, Note_on_c, 3, 82, 127
5, 27729, Note_on_c, 3, 82, 0
5, 27750, Note_on_c, 3, 77, 127
5, 27763, Note_on_c, 3, 77, 0
5, 27870, Note_on_c, 3, 80, 127
5, 27880, Note_on_c, 3, 80, 0
5, 27930, Note_on_c, 3, 80, 127
5, 27942, Note_on_c, 3, 80, 0
5, 28020, Note_on_c, 3, 77, 127
5, 28034, Note_on_c, 3, 77, 0
5, 28050, Note_on_c, 3, 79, 127
5, 28063, Note_on_c, 3, 79, 0
5, 28080, Note_on_c, 3, 80, 127
5, 28087, Note_on_c, 3, 80, 0
5, 28140, Note_on_c, 3, 79, 127
5, 28156, Note_on_c, 3, 79, 0
5, 28170, Note_on_c, 3, 80, 127
5, 28183, Note_on_c, 3, 80, 0
5, 28200, Note_on_c, 3, 82, 127
5, 28210, Note_on_c, 3, 82, 0
5, 28230, Note_on_c, 3, 77, 127
5, 28239, Note_on_c, 3, 77, 0
5, 28350, Note_on_c, 3, 80, 127
5, 28362, Note_on_c, 3, 80, 0
5, 28410, Note_on_c, 3, 80, 127
5, 28422, Note_on_c, 3, 80, 0
5, 28500, Note_on_c, 3, 77, 127
5, 28512, Note_on_c, 3, 77, 0
5, 28530, Note_on_c, 3, 79, 127
5, 28543, Note_on_c, 3, 79, 0
5, 28560, Note_on_c, 3, 80, 127
5, 28570, Note_on_c, 3, 80, 0
5, 28620, Note_on_c, 3, 79, 127
5, 28635, Note_on_c, 3, 79, 0
5, 28650, Note_on_c, 3, 80, 127
5, 28663, Note_on_c, 3, 80, 0
5, 28680, Note_on_c, 3, 82, 127
5, 28689, Note_on_c, 3, 82, 0
5, 28710, Note_on_c, 3, 77, 127
5, 28723, Note_on_c, 3, 77, 0
5, 28830, Note_on_c, 3, 80, 127
5, 28840, Note_on_c, 3, 80, 0
5, 28890, Note_on_c, 3, 80, 127
5, 28902, Note_on_c, 3, 80, 0
5, 28980, Note_on_c, 3, 77, 127
5, 28994, Note_on_c, 3, 77, 0
5, 29010, Note_on_c, 3, 79, 127
5, 29023, Note_on_c, 3, 79, 0
5, 29040, Note_on_c, 3, 80, 127
5, 29047, Note_on_c, 3, 80, 0
5, 29100, Note_on_c, 3, 79, 127
5, 29116, Note_on_c, 3, 79, 0
5, 29130, Note_on_c, 3, 80, 127
5, 29143, Note_on_c, 3, 80, 0
5, 29160, Note_on_c, 3, 82, 127
5, 29170, Note_on_c, 3, 82, 0
5, 29190, Note_on_c, 3, 77, 127
5, 29199, Note_on_c, 3, 77, 0
5, 29310, Note_on_c, 3, 80, 127
5, 29322, Note_on_c, 3, 80, 0
5, 29370, Note_on_c, 3, 80, 127
5, 29382, Note_on_c, 3, 80, 0
5, 29460, Note_on_c, 3, 77, 127
5, 29472, Note_on_c, 3, 77, 0
5, 29490, Note_on_c, 3, 79, 127
5, 29503, Note_on_c, 3, 79, 0
5, 29520, Note_on_c, 3, 80, 127
5, 29530, Note_on_c, 3, 80, 0
5, 29580, Note_on_c, 3, 79, 127
5, 29595, Note_on_c, 3, 79, 0
5, 29610, Note_on_c, 3, 80, 127
5, 29623, Note_on_c, 3, 80, 0
5, 29640, Note_on_c, 3, 82, 127
5, 29649, Note_on_c, 3, 82, 0
5, 29670, Note_on_c, 3, 77, 127
5, 29683, Note_on_c, 3, 77, 0
5, 29790, Note_on_c, 3, 80, 127
5, 29800, Note_on_c, 3, 80, 0
5, 29850, Note_on_c, 3, 80, 127
5, 29862, Note_on_c, 3, 80, 0
5, 29940, Note_on_c, 3, 77, 127
5, 29954, Note_on_c, 3, 77, 0
5, 29970, Note_on_c, 3, 79, 127
5, 29983, Note_on_c, 3, 79, 0
5, 30000, Note_on_c, 3, 80, 127
5, 30007, Note_on_c, 3, 80, 0
5, 30060, Note_on_c, 3, 79, 127
5, 30076, Note_on_c, 3, 79, 0
5, 30090, Note_on_c, 3, 80, 127
5, 30103, Note_on_c, 3, 80, 0
5, 30120, Note_on_c, 3, 82, 127
5, 30130, Note_on_c, 3, 82, 0
5, 30150, Note_on_c, 3, 77, 127
5, 30159, Note_on_c, 3, 77, 0
5, 30270, Note_on_c, 3, 80, 127
5, 30282, Note_on_c, 3, 80, 0
5, 30330, Note_on_c, 3, 80, 127
5, 30342, Note_on_c, 3, 80, 0
5, 30420, Note_on_c, 3, 77, 127
5, 30432, Note_on_c, 3, 77, 0
5, 30450, Note_on_c, 3, 79, 127
5, 30463, Note_on_c, 3, 79, 0
5, 30480, Note_on_c, 3, 80, 127
5, 30490, Note_on_c, 3, 80, 0
5, 30540, Note_on_c, 3, 79, 127
5, 30555, Note_on_c, 3, 79, 0
5, 30570, Note_on_c, 3, 80, 127
5, 30583, Note_on_c, 3, 80, 0
5, 30600, Note_on_c, 3, 82, 127
5, 30609, Note_on_c, 3, 82, 0
5, 30630, Note_on_c, 3, 77, 127
5, 30643, Note_on_c, 3, 77, 0
5, 30750, Note_on_c, 3, 80, 127
5, 30760, Note_on_c, 3, 80, 0
5, 30810, Note_on_c, 3, 80, 127
5, 30822, Note_on_c, 3, 80, 0
5, 30900, Note_on_c, 3, 77, 127
5, 30914, Note_on_c, 3, 77, 0
5, 30930, Note_on_c, 3, 79, 127
5, 30943, Note_on_c, 3, 79, 0
5, 30960, Note_on_c, 3, 80, 127
5, 30967, Note_on_c, 3, 80, 0
5, 31020, Note_on_c, 3, 79, 127
5, 31036, Note_on_c, 3, 79, 0
5, 31050, Note_on_c, 3, 80, 127
5, 31063, Note_on_c, 3, 80, 0
5, 31080, Note_on_c, 3, 82, 127
5, 31090, Note_on_c, 3, 82, 0
5, 31110, Note_on_c, 3, 77, 127
5, 31119, Note_on_c, 3, 77, 0
5, 31230, Note_on_c, 3, 82, 127
5, 31242, Note_on_c, 3, 82, 0
5, 31290, Note_on_c, 3, 82, 127
5, 31302, Note_on_c, 3, 82, 0
5, 31380, Note_on_c, 3, 79, 127
5, 31392, Note_on_c, 3, 79, 0
5, 31410, Note_on_c, 3, 81, 127
5, 31423, Note_on_c, 3, 81, 0
5, 31440, Note_on_c, 3, 82, 127
5, 31450, Note_on_c, 3, 82, 0
5, 31500, Note_on_c, 3, 81, 127
5, 31515, Note_on_c, 3, 81, 0
5, 31530, Note_on_c, 3, 82, 127
5, 31543, Note_on_c, 3, 82, 0
5, 31560, Note_on_c, 3, 84, 127
5, 31569, Note_on_c, 3, 84, 0
5, 31590, Note_on_c, 3, 79, 127
5, 31603, Note_on_c, 3, 79, 0
5, 31710, Note_on_c, 3, 82, 127
5, 31720, Note_on_c, 3, 82, 0
5, 31770, Note_on_c, 3, 82, 127
5, 31782, Note_on_c, 3, 82, 0
5, 31860, Note_on_c, 3, 79, 127
5, 31874, Note_on_c, 3, 79, 0
5, 31890, Note_on_c, 3, 81, 127
5, 31903, Note_on_c, 3, 81, 0
5, 31920, Note_on_c, 3, 82, 127
5, 31927, Note_on_c, 3, 82, 0
5, 31980, Note_on_c, 3, 81, 127
5, 31996, Note_on_c, 3, 81, 0
5, 32010, Note_on_c, 3, 82, 127
5, 32023, Note_on_c, 3, 82, 0
5, 32040, Note_on_c, 3, 84, 127
5, 32050, Note_on_c, 3, 84, 0
5, 32070, Note_on_c, 3, 79, 127
5, 32079, Note_on_c, 3, 79, 0
5, 32189, Note_on_c, 3, 82, 127
5, 32201, Note_on_c, 3, 82, 0
5, 32249, Note_on_c, 3, 82, 127
5, 32261, Note_on_c, 3, 82, 0
5, 32339, Note_on_c, 3, 79, 127
5, 32351, Note_on_c, 3, 79, 0
5, 32369, Note_on_c, 3, 81, 127
5, 32382, Note_on_c, 3, 81, 0
5, 32399, Note_on_c, 3, 82, 127
5, 32409, Note_on_c, 3, 82, 0
5, 32459, Note_on_c, 3, 81, 127
5, 32474, Note_on_c, 3, 81, 0
5, 32489, Note_on_c, 3, 82, 127
5, 32502, Note_on_c, 3, 82, 0
5, 32519, Note_on_c, 3, 84, 127
5, 32528, Note_on_c, 3, 84, 0
5, 32549, Note_on_c, 3, 79, 127
5, 32562, Note_on_c, 3, 79, 0
5, 32669, Note_on_c, 3, 82, 127
5, 32679, Note_on_c, 3, 82, 0
5, 32729, Note_on_c, 3, 82, 127
5, 32741, Note_on_c, 3, 82, 0
5, 32819, Note_on_c, 3, 79, 127
5, 32833, Note_on_c, 3, 79, 0
5, 32849, Note_on_c, 3, 81, 127
5, 32862, Note_on_c, 3, 81, 0
5, 32879, Note_on_c, 3, 82, 127
5, 32886, Note_on_c, 3, 82, 0
5, 32939, Note_on_c, 3, 81, 127
5, 32955, Note_on_c, 3, 81, 0
5, 32969, Note_on_c, 3, 82, 127
5, 32982, Note_on_c, 3, 82, 0
5, 32999, Note_on_c, 3, 84, 127
5, 33009, Note_on_c, 3, 84, 0
5, 33029, Note_on_c, 3, 79, 127
5, 33038, Note_on_c, 3, 79, 0
5, 33150, Note_on_c, 3, 80, 127
5, 33162, Note_on_c, 3, 80, 0
5, 33210, Note_on_c, 3, 80, 127
5, 33222, Note_on_c, 3, 80, 0
5, 33300, Note_on_c, 3, 77, 127
5, 33312, Note_on_c, 3, 77, 0
5, 33330, Note_on_c, 3, 79, 127
5, 33343, Note_on_c, 3, 79, 0
5, 33360, Note_on_c, 3, 80, 127
5, 33370, Note_on_c, 3, 80, 0
5, 33420, Note_on_c, 3, 79, 127
5, 33435, Note_on_c, 3, 79, 0
5, 33450, Note_on_c, 3, 80, 127
5, 33463, Note_on_c, 3, 80, 0
5, 33480, Note_on_c, 3, 82, 127
5, 33489, Note_on_c, 3, 82, 0
5, 33510, Note_on_c, 3, 77, 127
5, 33523, Note_on_c, 3, 77, 0
5, 33630, Note_on_c, 3, 80, 127
5, 33640, Note_on_c, 3, 80, 0
5, 33690, Note_on_c, 3, 80, 127
5, 33702, Note_on_c, 3, 80, 0
5, 33780, Note_on_c, 3, 77, 127
5, 33794, Note_on_c, 3, 77, 0
5, 33810, Note_on_c, 3, 79, 127
5, 33823, Note_on_c, 3, 79, 0
5, 33840, Note_on_c, 3, 80, 127
5, 33847, Note_on_c, 3, 80, 0
5, 33900, Note_on_c, 3, 79, 127
5, 33916, Note_on_c, 3, 79, 0
5, 33930, Note_on_c, 3, 80, 127
5, 33943, Note_on_c, 3, 80, 0
5, 33960, Note_on_c, 3, 82, 127
5, 33970, Note_on_c, 3, 82, 0
5, 33990, Note_on_c, 3, 77, 127
5, 33999, Note_on_c, 3, 77, 0
5, 34110, Note_on_c, 3, 80, 127
5, 34122, Note_on_c, 3, 80, 0
5, 34170, Note_on_c, 3, 80, 127
5, 34182, Note_on_c, 3, 80, 0
5, 34260, Note_on_c, 3, 77, 127
5, 34272, Note_on_c, 3, 77, 0
5, 34290, Note_on_c, 3, 79, 127
5, 34303, Note_on_c, 3, 79, 0
5, 34320, Note_on_c, 3, 80, 127
5, 34330, Note_on_c, 3, 80, 0
5, 34380, Note_on_c, 3, 79, 127
5, 34395, Note_on_c, 3, 79, 0
5, 34410, Note_on_c, 3, 80, 127
5, 34423, Note_on_c, 3, 80, 0
5, 34440, Note_on_c, 3, 82, 127
5, 34449, Note_on_c, 3, 82, 0
5, 34470, Note_on_c, 3, 77, 127
5, 34483, Note_on_c, 3, 77, 0
5, 34590, Note_on_c, 3, 80, 127
5, 34600, Note_on_c, 3, 80, 0
5, 34650, Note_on_c, 3, 80, 127
5, 34662, Note_on_c, 3, 80, 0
5, 34740, Note_on_c, 3, 77, 127
5, 34754, Note_on_c, 3, 77, 0
5, 34770, Note_on_c, 3, 79, 127
5, 34783, Note_on_c, 3, 79, 0
5, 34800, Note_on_c, 3, 80, 127
5, 34807, Note_on_c, 3, 80, 0
5, 34860, Note_on_c, 3, 79, 127
5, 34876, Note_on_c, 3, 79, 0
5, 34890, Note_on_c, 3, 80, 127
5, 34903, Note_on_c, 3, 80, 0
5, 34920, Note_on_c, 3, 82, 127
5, 34930, Note_on_c, 3, 82, 0
5, 34950, Note_on_c, 3, 77, 127
5, 34959, Note_on_c, 3, 77, 0
5, 35070, Note_on_c, 3, 82, 127
5, 35082, Note_on_c, 3, 82, 0
5, 35130, Note_on_c, 3, 82, 127
5, 35142, Note_on_c, 3, 82, 0
5, 35220, Note_on_c, 3, 79, 127
5, 35232, Note_on_c, 3, 79, 0
5, 35250, Note_on_c, 3, 81, 127
5, 35263, Note_on_c, 3, 81, 0
5, 35280, Note_on_c, 3, 82, 127
5, 35290, Note_on_c, 3, 82, 0
5, 35340, Note_on_c, 3, 81, 127
5, 35355, Note_on_c, 3, 81, 0
5, 35370, Note_on_c, 3, 82, 127
5, 35383, Note_on_c, 3, 82, 0
5, 35400, Note_on_c, 3, 84, 127
5, 35409, Note_on_c, 3, 84, 0
5, 35430, Note_on_c, 3, 79, 127
5, 35443, Note_on_c, 3, 79, 0
5, 35550, Note_on_c, 3, 82, 127
5, 35560, Note_on_c, 3, 82, 0
5, 35610, Note_on_c, 3, 82, 127
5, 35622, Note_on_c, 3, 82, 0
5, 35700, Note_on_c, 3, 79, 127
5, 35714, Note_on_c, 3, 79, 0
5, 35730, Note_on_c, 3, 81, 127
5, 35743, Note_on_c, 3, 81, 0
5, 35760, Note_on_c, 3, 82, 127
5, 35767, Note_on_c, 3, 82, 0
5, 35820, Note_on_c, 3, 81, 127
5, 35836, Note_on_c, 3, 81, 0
5, 35850, Note_on_c, 3, 82, 127
5, 35863, Note_on_c, 3, 82, 0
5, 35880, Note_on_c, 3, 84, 127
5, 35890, Note_on_c, 3, 84, 0
5, 35910, Note_on_c, 3, 79, 127
5, 35919, Note_on_c, 3, 79, 0
5, 36029, Note_on_c, 3, 82, 127
5, 36041, Note_on_c, 3, 82, 0
5, 36089, Note_on_c, 3, 82, 127
5, 36101, Note_on_c, 3, 82, 0
5, 36179, Note_on_c, 3, 79, 127
5, 36191, Note_on_c, 3, 79, 0
5, 36209, Note_on_c, 3, 81, 127
5, 36222, Note_on_c, 3, 81, 0
5, 36239, Note_on_c, 3, 82, 127
5, 36249, Note_on_c, 3, 82, 0
5, 36299, Note_on_c, 3, 81, 127
5, 36314, Note_on_c, 3, 81, 0
5, 36329, Note_on_c, 3, 82, 127
5, 36342, Note_on_c, 3, 82, 0
5, 36359, Note_on_c, 3, 84, 127
5, 36368, Note_on_c, 3, 84, 0
5, 36389, Note_on_c, 3, 79, 127
5, 36402, Note_on_c, 3, 79, 0
5, 36509, Note_on_c, 3, 82, 127
5, 36519, Note_on_c, 3, 82, 0
5, 36569, Note_on_c, 3, 82, 127
5, 36581, Note_on_c, 3, 82, 0
5, 36659, Note_on_c, 3, 79, 127
5, 36673, Note_on_c, 3, 79, 0
5, 36689, Note_on_c, 3, 81, 127
5, 36702, Note_on_c, 3, 81, 0
5, 36719, Note_on_c, 3, 82, 127
5, 36726, Note_on_c, 3, 82, 0
5, 36779, Note_on_c, 3, 81, 127
5, 36795, Note_on_c, 3, 81, 0
5, 36809, Note_on_c, 3, 82, 127
5, 36822, Note_on_c, 3, 82, 0
5, 36839, Note_on_c, 3, 84, 127
5, 36849, Note_on_c, 3, 84, 0
5, 36869, Note_on_c, 3, 79, 127
5, 36878, Note_on_c, 3, 79, 0
5, 46590, Note_on_c, 3, 80, 127
5, 46602, Note_on_c, 3, 80, 0
5, 46650, Note_on_c, 3, 80, 127
5, 46662, Note_on_c, 3, 80, 0
5, 46740, Note_on_c, 3, 77, 127
5, 46752, Note_on_c, 3, 77, 0
5, 46770, Note_on_c, 3, 79, 127
5, 46783, Note_on_c, 3, 79, 0
5, 46800, Note_on_c, 3, 80, 127
5, 46810, Note_on_c, 3, 80, 0
5, 46860, Note_on_c, 3, 79, 127
5, 46875, Note_on_c, 3, 79, 0
5, 46890, Note_on_c, 3, 80, 127
5, 46903, Note_on_c, 3, 80, 0
5, 46920, Note_on_c, 3, 82, 127
5, 46929, Note_on_c, 3, 82, 0
5, 46950, Note_on_c, 3, 77, 127
5, 46963, Note_on_c, 3, 77, 0
5, 47070, Note_on_c, 3, 80, 127
5, 47080, Note_on_c, 3, 80, 0
5, 47130, Note_on_c, 3, 80, 127
5, 47142, Note_on_c, 3, 80, 0
5, 47220, Note_on_c, 3, 77, 127
5, 47234, Note_on_c, 3, 77, 0
5, 47250, Note_on_c, 3, 79, 127
5, 47263, Note_on_c, 3, 79, 0
5, 47280, Note_on_c, 3, 80, 127
5, 47287, Note_on_c, 3, 80, 0
5, 47340, Note_on_c, 3, 79, 127
5, 47356, Note_on_c, 3, 79, 0
5, 47370, Note_on_c, 3, 80, 127
5, 47383, Note_on_c, 3, 80, 0
5, 47400, Note_on_c, 3, 82, 127
5, 47410, Note_on_c, 3, 82, 0
5, 47430, Note_on_c, 3, 77, 127
5, 47439, Note_on_c, 3, 77, 0
5, 47550, Note_on_c, 3, 80, 127
5, 47562, Note_on_c, 3, 80, 0
5, 47610, Note_on_c, 3, 80, 127
5, 47622, Note_on_c, 3, 80, 0
5, 47700, Note_on_c, 3, 77, 127
5, 47712, Note_on_c, 3, 77, 0
5, 47730, Note_on_c, 3, 79, 127
5, 47743, Note_on_c, 3, 79, 0
5, 47760, Note_on_c, 3, 80, 127
5, 47770, Note_on_c, 3, 80, 0
5, 47820, Note_on_c, 3, 79, 127
5, 47835, Note_on_c, 3, 79, 0
5, 47850, Note_on_c, 3, 80, 127
5, 47863, Note_on_c, 3, 80, 0
5, 47880, Note_on_c, 3, 82, 127
5, 47889, Note_on_c, 3, 82, 0
5, 47910, Note_on_c, 3, 77, 127
5, 47923, Note_on_c, 3, 77, 0
5, 48030, Note_on_c, 3, 80, 127
5, 48040, Note_on_c, 3, 80, 0
5, 48090, Note_on_c, 3, 80, 127
5, 48102, Note_on_c, 3, 80, 0
5, 48180, Note_on_c, 3, 77, 127
5, 48194, Note_on_c, 3, 77, 0
5, 48210, Note_on_c, 3, 79, 127
5, 48223, Note_on_c, 3, 79, 0
5, 48240, Note_on_c, 3, 80, 127
5, 48247, Note_on_c, 3, 80, 0
5, 48300, Note_on_c, 3, 79, 127
5, 48316, Note_on_c, 3, 79, 0
5, 48330, Note_on_c, 3, 80, 127
5, 48343, Note_on_c, 3, 80, 0
5, 48360, Note_on_c, 3, 82, 127
5, 48370, Note_on_c, 3, 82, 0
5, 48390, Note_on_c, 3, 77, 127
5, 48399, Note_on_c, 3, 77, 0
5, 48510, Note_on_c, 3, 80, 127
5, 48522, Note_on_c, 3, 80, 0
5, 48570, Note_on_c, 3, 80, 127
5, 48582, Note_on_c, 3, 80, 0
5, 48660, Note_on_c, 3, 77, 127
5, 48672, Note_on_c, 3, 77, 0
5, 48690, Note_on_c, 3, 79, 127
5, 48703, Note_on_c, 3, 79, 0
5, 48720, Note_on_c, 3, 80, 127
5, 48730, Note_on_c, 3, 80, 0
5, 48780, Note_on_c, 3, 79, 127
5, 48795, Note_on_c, 3, 79, 0
5, 48810, Note_on_c, 3, 80, 127
5, 48823, Note_on_c, 3, 80, 0
5, 48840, Note_on_c, 3, 82, 127
5, 48849, Note_on_c, 3, 82, 0
5, 48870, Note_on_c, 3, 77, 127
5, 48883, Note_on_c, 3, 77, 0
5, 48990, Note_on_c, 3, 80, 127
5, 49000, Note_on_c, 3, 80, 0
5, 49050, Note_on_c, 3, 80, 127
5, 49062, Note_on_c, 3, 80, 0
5, 49140, Note_on_c, 3, 77, 127
5, 49154, Note_on_c, 3, 77, 0
5, 49170, Note_on_c, 3, 79, 127
5, 49183, Note_on_c, 3, 79, 0
5, 49200, Note_on_c, 3, 80, 127
5, 49207, Note_on_c, 3, 80, 0
5, 49260, Note_on_c, 3, 79, 127
5, 49276, Note_on_c, 3, 79, 0
5, 49290, Note_on_c, 3, 80, 127
5, 49303, Note_on_c, 3, 80, 0
5, 49320, Note_on_c, 3, 82, 127
5, 49330, Note_on_c, 3, 82, 0
5, 49350, Note_on_c, 3, 77, 127
5, 49359, Note_on_c, 3, 77, 0
5, 49470, Note_on_c, 3, 80, 127
5, 49482, Note_on_c, 3, 80, 0
5, 49530, Note_on_c, 3, 80, 127
5, 49542, Note_on_c, 3, 80, 0
5, 49620, Note_on_c, 3, 77, 127
5, 49632, Note_on_c, 3, 77, 0
5, 49650, Note_on_c, 3, 79, 127
5, 49663, Note_on_c, 3, 79, 0
5, 49680, Note_on_c, 3, 80, 127
5, 49690, Note_on_c, 3, 80, 0
5, 49740, Note_on_c, 3, 79, 127
5, 49755, Note_on_c, 3, 79, 0
5, 49770, Note_on_c, 3, 80, 127
5, 49783, Note_on_c, 3, 80, 0
5, 49800, Note_on_c, 3, 82, 127
5, 49809, Note_on_c, 3, 82, 0
5, 49830, Note_on_c, 3, 77, 127
5, 49843, Note_on_c, 3, 77, 0
5, 49950, Note_on_c, 3, 80, 127
5, 49960, Note_on_c, 3, 80, 0
5, 50010, Note_on_c, 3, 80, 127
5, 50022, Note_on_c, 3, 80, 0
5, 50100, Note_on_c, 3, 77, 127
5, 50114, Note_on_c, 3, 77, 0
5, 50130, Note_on_c, 3, 79, 127
5, 50143, Note_on_c, 3, 79, 0
5, 50160, Note_on_c, 3, 80, 127
5, 50167, Note_on_c, 3, 80, 0
5, 50220, Note_on_c, 3, 79, 127
5, 50236, Note_on_c, 3, 79, 0
5, 50250, Note_on_c, 3, 80, 127
5, 50263, Note_on_c, 3, 80, 0
5, 50280, Note_on_c, 3, 82, 127
5, 50290, Note_on_c, 3, 82, 0
5, 50310, Note_on_c, 3, 77, 127
5, 50319, Note_on_c, 3, 77, 0
5, 50430, Note_on_c, 3, 80, 127
5, 50442, Note_on_c, 3, 80, 0
5, 50490, Note_on_c, 3, 80, 127
5, 50502, Note_on_c, 3, 80, 0
5, 50580, Note_on_c, 3, 77, 127
5, 50592, Note_on_c, 3, 77, 0
5, 50610, Note_on_c, 3, 79, 127
5, 50623, Note_on_c, 3, 79, 0
5, 50640, Note_on_c, 3, 80, 127
5, 50650, Note_on_c, 3, 80, 0
5, 50700, Note_on_c, 3, 79, 127
5, 50715, Note_on_c, 3, 79, 0
5, 50730, Note_on_c, 3, 80, 127
5, 50743, Note_on_c, 3, 80, 0
5, 50760, Note_on_c, 3, 82, 127
5, 50769, Note_on_c, 3, 82, 0
5, 50790, Note_on_c, 3, 77, 127
5, 50803, Note_on_c, 3, 77, 0
5, 50910, Note_on_c, 3, 80, 127
5, 50920, Note_on_c, 3, 80, 0
5, 50970, Note_on_c, 3, 80, 127
5, 50982, Note_on_c, 3, 80, 0
5, 51060, Note_on_c, 3, 77, 127
5, 51074, Note_on_c, 3, 77, 0
5, 51090, Note_on_c, 3, 79, 127
5, 51103, Note_on_c, 3, 79, 0
5, 51120, Note_on_c, 3, 80, 127
5, 51127, Note_on_c, 3, 80, 0
5, 51180, Note_on_c, 3, 79, 127
5, 51196, Note_on_c, 3, 79, 0
5, 51210, Note_on_c, 3, 80, 127
5, 51223, Note_on_c, 3, 80, 0
5, 51240, Note_on_c, 3, 82, 127
5, 51250, Note_on_c, 3, 82, 0
5, 51270, Note_on_c, 3, 77, 127
5, 51279, Note_on_c, 3, 77, 0
5, 51390, Note_on_c, 3, 80, 127
5, 51402, Note_on_c, 3, 80, 0
5, 51450, Note_on_c, 3, 80, 127
5, 51462, Note_on_c, 3, 80, 0
5, 51540, Note_on_c, 3, 77, 127
5, 51552, Note_on_c, 3, 77, 0
5, 51570, Note_on_c, 3, 79, 127
5, 51583, Note_on_c, 3, 79, 0
5, 51600, Note_on_c, 3, 80, 127
5, 51610, Note_on_c, 3, 80, 0
5, 51660, Note_on_c, 3, 79, 127
5, 51675, Note_on_c, 3, 79, 0
5, 51690, Note_on_c, 3, 80, 127
5, 51703, Note_on_c, 3, 80, 0
5, 51720, Note_on_c, 3, 82, 127
5, 51729, Note_on_c, 3, 82, 0
5, 51750, Note_on_c, 3, 77, 127
5, 51763, Note_on_c, 3, 77, 0
5, 51870, Note_on_c, 3, 80, 127
5, 51880, Note_on_c, 3, 80, 0
5, 51930, Note_on_c, 3, 80, 127
5, 51942, Note_on_c, 3, 80, 0
5, 52020, Note_on_c, 3, 77, 127
5, 52034, Note_on_c, 3, 77, 0
5, 52050, Note_on_c, 3, 79, 127
5, 52063, Note_on_c, 3, 79, 0
5, 52080, Note_on_c, 3, 80, 127
5, 52087, Note_on_c, 3, 80, 0
5, 52140, Note_on_c, 3, 79, 127
5, 52156, Note_on_c, 3, 79, 0
5, 52170, Note_on_c, 3, 80, 127
5, 52183, Note_on_c, 3, 80, 0
5, 52200, Note_on_c, 3, 82, 127
5, 52210, Note_on_c, 3, 82, 0
5, 52230, Note_on_c, 3, 77, 127
5, 52239, Note_on_c, 3, 77, 0
5, 52350, Note_on_c, 3, 80, 127
5, 52362, Note_on_c, 3, 80, 0
5, 52410, Note_on_c, 3, 80, 127
5, 52422, Note_on_c, 3, 80, 0
5, 52500, Note_on_c, 3, 77, 127
5, 52512, Note_on_c, 3, 77, 0
5, 52530, Note_on_c, 3, 79, 127
5, 52543, Note_on_c, 3, 79, 0
5, 52560, Note_on_c, 3, 80, 127
5, 52570, Note_on_c, 3, 80, 0
5, 52620, Note_on_c, 3, 79, 127
5, 52635, Note_on_c, 3, 79, 0
5, 52650, Note_on_c, 3, 80, 127
5, 52663, Note_on_c, 3, 80, 0
5, 52680, Note_on_c, 3, 82, 127
5, 52689, Note_on_c, 3, 82, 0
5, 52710, Note_on_c, 3, 77, 127
5, 52723, Note_on_c, 3, 77, 0
5, 52830, Note_on_c, 3, 80, 127
5, 52840, Note_on_c, 3, 80, 0
5, 52890, Note_on_c, 3, 80, 127
5, 52902, Note_on_c, 3, 80, 0
5, 52980, Note_on_c, 3, 77, 127
5, 52994, Note_on_c, 3, 77, 0
5, 53010, Note_on_c, 3, 79, 127
5, 53023, Note_on_c, 3, 79, 0
5, 53040, Note_on_c, 3, 80, 127
5, 53047, Note_on_c, 3, 80, 0
5, 53100, Note_on_c, 3, 79, 127
5, 53116, Note_on_c, 3, 79, 0
5, 53130, Note_on_c, 3, 80, 127
5, 53143, Note_on_c, 3, 80, 0
5, 53160, Note_on_c, 3, 82, 127
5, 53170, Note_on_c, 3, 82, 0
5, 53190, Note_on_c, 3, 77, 127
5, 53199, Note_on_c, 3, 77, 0
5, 53310, Note_on_c, 3, 80, 127
5, 53322, Note_on_c, 3, 80, 0
5, 53370, Note_on_c, 3, 80, 127
5, 53382, Note_on_c, 3, 80, 0
5, 53460, Note_on_c, 3, 77, 127
5, 53472, Note_on_c, 3, 77, 0
5, 53490, Note_on_c, 3, 79, 127
5, 53503, Note_on_c, 3, 79, 0
5, 53520, Note_on_c, 3, 80, 127
5, 53530, Note_on_c, 3, 80, 0
5, 53580, Note_on_c, 3, 79, 127
5, 53595, Note_on_c, 3, 79, 0
5, 53610, Note_on_c, 3, 80, 127
5, 53623, Note_on_c, 3, 80, 0
5, 53640, Note_on_c, 3, 82, 127
5, 53649, Note_on_c, 3, 82, 0
5, 53670, Note_on_c, 3, 77, 127
5, 53683, Note_on_c, 3, 77, 0
5, 53790, Note_on_c, 3, 80, 127
5, 53800, Note_on_c, 3, 80, 0
5, 53850, Note_on_c, 3, 80, 127
5, 53862, Note_on_c, 3, 80, 0
5, 53940, Note_on_c, 3, 77, 127
5, 53954, Note_on_c, 3, 77, 0
5, 53970, Note_on_c, 3, 79, 127
5, 53983, Note_on_c, 3, 79, 0
5, 54000, Note_on_c, 3, 80, 127
5, 54007, Note_on_c, 3, 80, 0
5, 54060, Note_on_c, 3, 79, 127
5, 54076, Note_on_c, 3, 79, 0
5, 54090, Note_on_c, 3, 80, 127
5, 54103, Note_on_c, 3, 80, 0
5, 54120, Note_on_c, 3, 82, 127
5, 54130, Note_on_c, 3, 82, 0
5, 54150, Note_on_c, 3, 77, 127
5, 54159, Note_on_c, 3, 77, 0
5, 54270, Note_on_c, 3, 80, 127
5, 54282, Note_on_c, 3, 80, 0
5, 54330, Note_on_c, 3, 80, 127
5, 54342, Note_on_c, 3, 80, 0
5, 54420, Note_on_c, 3, 77, 127
5, 54432, Note_on_c, 3, 77, 0
5, 54450, Note_on_c, 3, 79, 127
5, 54463, Note_on_c, 3, 79, 0
5, 54480, Note_on_c, 3, 80, 127
5, 54490, Note_on_c, 3, 80, 0
5, 54540, Note_on_c, 3, 79, 127
5, 54555, Note_on_c, 3, 79, 0
5, 54570, Note_on_c, 3, 80, 127
5, 54583, Note_on_c, 3, 80, 0
5, 54600, Note_on_c, 3, 82, 127
5, 54609, Note_on_c, 3, 82, 0
5, 54630, Note_on_c, 3, 77, 127
5, 54643, Note_on_c, 3, 77, 0
5, 54750, Note_on_c, 3, 80, 127
5, 54760, Note_on_c, 3, 80, 0
5, 54810, Note_on_c, 3, 80, 127
5, 54822, Note_on_c, 3, 80, 0
5, 54900, Note_on_c, 3, 77, 127
5, 54914, Note_on_c, 3, 77, 0
5, 54930, Note_on_c, 3, 79, 127
5, 54943, Note_on_c, 3, 79, 0
5, 54960, Note_on_c, 3, 80, 127
5, 54967, Note_on_c, 3, 80, 0
5, 55020, Note_on_c, 3, 79, 127
5, 55036, Note_on_c, 3, 79, 0
5, 55050, Note_on_c, 3, 80, 127
5, 55063, Note_on_c, 3, 80, 0
5, 55080, Note_on_c, 3, 82, 127
5, 55090, Note_on_c, 3, 82, 0
5, 55110, Note_on_c, 3, 77, 127
5, 55119, Note_on_c, 3, 77, 0
5, 55230, Note_on_c, 3, 80, 127
5, 55242, Note_on_c, 3, 80, 0
5, 55290, Note_on_c, 3, 80, 127
5, 55302, Note_on_c, 3, 80, 0
5, 55380, Note_on_c, 3, 77, 127
5, 55392, Note_on_c, 3, 77, 0
5, 55410, Note_on_c, 3, 79, 127
5, 55423, Note_on_c, 3, 79, 0
5, 55440, Note_on_c, 3, 80, 127
5, 55450, Note_on_c, 3, 80, 0
5, 55500, Note_on_c, 3, 79, 127
5, 55515, Note_on_c, 3, 79, 0
5, 55530, Note_on_c, 3, 80, 127
5, 55543, Note_on_c, 3, 80, 0
5, 55560, Note_on_c, 3, 82, 127
5, 55569, Note_on_c, 3, 82, 0
5, 55590, Note_on_c, 3, 77, 127
5, 55603, Note_on_c, 3, 77, 0
5, 55710, Note_on_c, 3, 80, 127
5, 55720, Note_on_c, 3, 80, 0
5, 55770, Note_on_c, 3, 80, 127
5, 55782, Note_on_c, 3, 80, 0
5, 55860, Note_on_c, 3, 77, 127
5, 55874, Note_on_c, 3, 77, 0
5, 55890, Note_on_c, 3, 79, 127
5, 55903, Note_on_c, 3, 79, 0
5, 55920, Note_on_c, 3, 80, 127
5, 55927, Note_on_c, 3, 80, 0
5, 55980, Note_on_c, 3, 79, 127
5, 55996, Note_on_c, 3, 79, 0
5, 56010, Note_on_c, 3, 80, 127
5, 56023, Note_on_c, 3, 80, 0
5, 56040, Note_on_c, 3, 82, 127
5, 56050, Note_on_c, 3, 82, 0
5, 56070, Note_on_c, 3, 77, 127
5, 56079, Note_on_c, 3, 77, 0
5, 56190, Note_on_c, 3, 80, 127
5, 56202, Note_on_c, 3, 80, 0
5, 56250, Note_on_c, 3, 80, 127
5, 56262, Note_on_c, 3, 80, 0
5, 56340, Note_on_c, 3, 77, 127
5, 56352, Note_on_c, 3, 77, 0
5, 56370, Note_on_c, 3, 79, 127
5, 56383, Note_on_c, 3, 79, 0
5, 56400, Note_on_c, 3, 80, 127
5, 56410, Note_on_c, 3, 80, 0
5, 56460, Note_on_c, 3, 79, 127
5, 56475, Note_on_c, 3, 79, 0
5, 56490, Note_on_c, 3, 80, 127
5, 56503, Note_on_c, 3, 80, 0
5, 56520, Note_on_c, 3, 82, 127
5, 56529, Note_on_c, 3, 82, 0
5, 56550, Note_on_c, 3, 77, 127
5, 56563, Note_on_c, 3, 77, 0
5, 56670, Note_on_c, 3, 80, 127
5, 56680, Note_on_c, 3, 80, 0
5, 56730, Note_on_c, 3, 80, 127
5, 56742, Note_on_c, 3, 80, 0
5, 56820, Note_on_c, 3, 77, 127
5, 56834, Note_on_c, 3, 77, 0
5, 56850, Note_on_c, 3, 79, 127
5, 56863, Note_on_c, 3, 79, 0
5, 56880, Note_on_c, 3, 80, 127
5, 56887, Note_on_c, 3, 80, 0
5, 56940, Note_on_c, 3, 79, 127
5, 56956, Note_on_c, 3, 79, 0
5, 56970, Note_on_c, 3, 80, 127
5, 56983, Note_on_c, 3, 80, 0
5, 57000, Note_on_c, 3, 82, 127
5, 57010, Note_on_c, 3, 82, 0
5, 57030, Note_on_c, 3, 77, 127
5, 57039, Note_on_c, 3, 77, 0
5, 57150, Note_on_c, 3, 80, 127
5, 57162, Note_on_c, 3, 80, 0
5, 57210, Note_on_c, 3, 80, 127
5, 57222, Note_on_c, 3, 80, 0
5, 57300, Note_on_c, 3, 77, 127
5, 57312, Note_on_c, 3, 77, 0
5, 57330, Note_on_c, 3, 79, 127
5, 57343, Note_on_c, 3, 79, 0
5, 57360, Note_on_c, 3, 80, 127
5, 57370, Note_on_c, 3, 80, 0
5, 57420, Note_on_c, 3, 79, 127
5, 57435, Note_on_c, 3, 79, 0
5, 57450, Note_on_c, 3, 80, 127
5, 57463, Note_on_c, 3, 80, 0
5, 57480, Note_on_c, 3, 82, 127
5, 57489, Note_on_c, 3, 82, 0
5, 57510, Note_on_c, 3, 77, 127
5, 57523, Note_on_c, 3, 77, 0
5, 57630, Note_on_c, 3, 80, 127
5, 57640, Note_on_c, 3, 80, 0
5, 57690, Note_on_c, 3, 80, 127
5, 57702, Note_on_c, 3, 80, 0
5, 57780, Note_on_c, 3, 77, 127
5, 57794, Note_on_c, 3, 77, 0
5, 57810, Note_on_c, 3, 79, 127
5, 57823, Note_on_c, 3, 79, 0
5, 57840, Note_on_c, 3, 80, 127
5, 57847, Note_on_c, 3, 80, 0
5, 57900, Note_on_c, 3, 79, 127
5, 57916, Note_on_c, 3, 79, 0
5, 57930, Note_on_c, 3, 80, 127
5, 57943, Note_on_c, 3, 80, 0
5, 57960, Note_on_c, 3, 82, 127
5, 57970, Note_on_c, 3, 82, 0
5, 57990, Note_on_c, 3, 77, 127
5, 57999, Note_on_c, 3, 77, 0
5, 58110, Note_on_c, 3, 80, 127
5, 58122, Note_on_c, 3, 80, 0
5, 58170, Note_on_c, 3, 80, 127
5, 58182, Note_on_c, 3, 80, 0
5, 58260, Note_on_c, 3, 77, 127
5, 58272, Note_on_c, 3, 77, 0
5, 58290, Note_on_c, 3, 79, 127
5, 58303, Note_on_c, 3, 79, 0
5, 58320, Note_on_c, 3, 80, 127
5, 58330, Note_on_c, 3, 80, 0
5, 58380, Note_on_c, 3, 79, 127
5, 58395, Note_on_c, 3, 79, 0
5, 58410, Note_on_c, 3, 80, 127
5, 58423, Note_on_c, 3, 80, 0
5, 58440, Note_on_c, 3, 82, 127
5, 58449, Note_on_c, 3, 82, 0
5, 58470, Note_on_c, 3, 77, 127
5, 58483, Note_on_c, 3, 77, 0
5, 58590, Note_on_c, 3, 80, 127
5, 58600, Note_on_c, 3, 80, 0
5, 58650, Note_on_c, 3, 80, 127
5, 58662, Note_on_c, 3, 80, 0
5, 58740, Note_on_c, 3, 77, 127
5, 58754, Note_on_c, 3, 77, 0
5, 58770, Note_on_c, 3, 79, 127
5, 58783, Note_on_c, 3, 79, 0
5, 58800, Note_on_c, 3, 80, 127
5, 58807, Note_on_c, 3, 80, 0
5, 58860, Note_on_c, 3, 79, 127
5, 58876, Note_on_c, 3, 79, 0
5, 58890, Note_on_c, 3, 80, 127
5, 58903, Note_on_c, 3, 80, 0
5, 58920, Note_on_c, 3, 82, 127
5, 58930, Note_on_c, 3, 82, 0
5, 58950, Note_on_c, 3, 77, 127
5, 58959, Note_on_c, 3, 77, 0
5, 59070, Note_on_c, 3, 80, 127
5, 59082, Note_on_c, 3, 80, 0
5, 59130, Note_on_c, 3, 80, 127
5, 59142, Note_on_c, 3, 80, 0
5, 59220, Note_on_c, 3, 77, 127
5, 59232, Note_on_c, 3, 77, 0
5, 59250, Note_on_c, 3, 79, 127
5, 59263, Note_on_c, 3, 79, 0
5, 59280, Note_on_c, 3, 80, 127
5, 59290, Note_on_c, 3, 80, 0
5, 59340, Note_on_c, 3, 79, 127
5, 59355, Note_on_c, 3, 79, 0
5, 59370, Note_on_c, 3, 80, 127
5, 59383, Note_on_c, 3, 80, 0
5, 59400, Note_on_c, 3, 82, 127
5, 59409, Note_on_c, 3, 82, 0
5, 59430, Note_on_c, 3, 77, 127
5, 59443, Note_on_c, 3, 77, 0
5, 59550, Note_on_c, 3, 80, 127
5, 59560, Note_on_c, 3, 80, 0
5, 59610, Note_on_c, 3, 80, 127
5, 59622, Note_on_c, 3, 80, 0
5, 59700, Note_on_c, 3, 77, 127
5, 59714, Note_on_c, 3, 77, 0
5, 59730, Note_on_c, 3, 79, 127
5, 59743, Note_on_c, 3, 79, 0
5, 59760, Note_on_c, 3, 80, 127
5, 59767, Note_on_c, 3, 80, 0
5, 59820, Note_on_c, 3, 79, 127
5, 59836, Note_on_c, 3, 79, 0
5, 59850, Note_on_c, 3, 80, 127
5, 59863, Note_on_c, 3, 80, 0
5, 59880, Note_on_c, 3, 82, 127
5, 59890, Note_on_c, 3, 82, 0
5, 59910, Note_on_c, 3, 77, 127
5, 59919, Note_on_c, 3, 77, 0
5, 60030, Note_on_c, 3, 80, 127
5, 60042, Note_on_c, 3, 80, 0
5, 60090, Note_on_c, 3, 80, 127
5, 60102, Note_on_c, 3, 80, 0
5, 60180, Note_on_c, 3, 77, 127
5, 60192, Note_on_c, 3, 77, 0
5, 60210, Note_on_c, 3, 79, 127
5, 60223, Note_on_c, 3, 79, 0
5, 60240, Note_on_c, 3, 80, 127
5, 60250, Note_on_c, 3, 80, 0
5, 60300, Note_on_c, 3, 79, 127
5, 60315, Note_on_c, 3, 79, 0
5, 60330, Note_on_c, 3, 80, 127
5, 60343, Note_on_c, 3, 80, 0
5, 60360, Note_on_c, 3, 82, 127
5, 60369, Note_on_c, 3, 82, 0
5, 60390, Note_on_c, 3, 77, 127
5, 60403, Note_on_c, 3, 77, 0
5, 60510, Note_on_c, 3, 80, 127
5, 60520, Note_on_c, 3, 80, 0
5, 60570, Note_on_c, 3, 80, 127
5, 60582, Note_on_c, 3, 80, 0
5, 60660, Note_on_c, 3, 77, 127
5, 60674, Note_on_c, 3, 77, 0
5, 60690, Note_on_c, 3, 79, 127
5, 60703, Note_on_c, 3, 79, 0
5, 60720, Note_on_c, 3, 80, 127
5, 60727, Note_on_c, 3, 80, 0
5, 60780, Note_on_c, 3, 79, 127
5, 60796, Note_on_c, 3, 79, 0
5, 60810, Note_on_c, 3, 80, 127
5, 60823, Note_on_c, 3, 80, 0
5, 60840, Note_on_c, 3, 82, 127
5, 60850, Note_on_c, 3, 82, 0
5, 60870, Note_on_c, 3, 77, 127
5, 60879, Note_on_c, 3, 77, 0
5, 60990, Note_on_c, 3, 80, 127
5, 61002, Note_on_c, 3, 80, 0
5, 61050, Note_on_c, 3, 80, 127
5, 61062, Note_on_c, 3, 80, 0
5, 61140, Note_on_c, 3, 77, 127
5, 61152, Note_on_c, 3, 77, 0
5, 61170, Note_on_c, 3, 79, 127
5, 61183, Note_on_c, 3, 79, 0
5, 61200, Note_on_c, 3, 80, 127
5, 61210, Note_on_c, 3, 80, 0
5, 61260, Note_on_c, 3, 79, 127
5, 61275, Note_on_c, 3, 79, 0
5, 61290, Note_on_c, 3, 80, 127
5, 61303, Note_on_c, 3, 80, 0
5, 61320, Note_on_c, 3, 82, 127
5, 61329, Note_on_c, 3, 82, 0
5, 61350, Note_on_c, 3, 77, 127
5, 61363, Note_on_c, 3, 77, 0
5, 61470, Note_on_c, 3, 80, 127
5, 61480, Note_on_c, 3, 80, 0
5, 61530, Note_on_c, 3, 80, 127
5, 61542, Note_on_c, 3, 80, 0
5, 61620, Note_on_c, 3, 77, 127
5, 61634, Note_on_c, 3, 77, 0
5, 61650, Note_on_c, 3, 79, 127
5, 61663, Note_on_c, 3, 79, 0
5, 61680, Note_on_c, 3, 80, 127
5, 61687, Note_on_c, 3, 80, 0
5, 61740, Note_on_c, 3, 79, 127
5, 61756, Note_on_c, 3, 79, 0
5, 61770, Note_on_c, 3, 80, 127
5, 61783, Note_on_c, 3, 80, 0
5, 61800, Note_on_c, 3, 82, 127
5, 61810, Note_on_c, 3, 82, 0
5, 61830, Note_on_c, 3, 77, 127
5, 61839, Note_on_c, 3, 77, 0
5, 61950, Note_on_c, 3, 80, 127
5, 61962, Note_on_c, 3, 80, 0
5, 62010, Note_on_c, 3, 80, 127
5, 62022, Note_on_c, 3, 80, 0
5, 62100, Note_on_c, 3, 77, 127
5, 62112, Note_on_c, 3, 77, 0
5, 62130, Note_on_c, 3, 79, 127
5, 62143, Note_on_c, 3, 79, 0
5, 62160, Note_on_c, 3, 80, 127
5, 62170, Note_on_c, 3, 80, 0
5, 62220, Note_on_c, 3, 79, 127
5, 62235, Note_on_c, 3, 79, 0
5, 62250, Note_on_c, 3, 80, 127
5, 62263, Note_on_c, 3, 80, 0
5, 62280, Note_on_c, 3, 82, 127
5, 62289, Note_on_c, 3, 82, 0
5, 62310, Note_on_c, 3, 77, 127
5, 62323, Note_on_c, 3, 77, 0
5, 62430, Note_on_c, 3, 80, 127
5, 62440, Note_on_c, 3, 80, 0
5, 62490, Note_on_c, 3, 80, 127
5, 62502, Note_on_c, 3, 80, 0
5, 62580, Note_on_c, 3, 77, 127
5, 62594, Note_on_c, 3, 77, 0
5, 62610, Note_on_c, 3, 79, 127
5, 62623, Note_on_c, 3, 79, 0
5, 62640, Note_on_c, 3, 80, 127
5, 62647, Note_on_c, 3, 80, 0
5, 62700, Note_on_c, 3, 79, 127
5, 62716, Note_on_c, 3, 79, 0
5, 62730, Note_on_c, 3, 80, 127
5, 62743, Note_on_c, 3, 80, 0
5, 62760, Note_on_c, 3, 82, 127
5, 62770, Note_on_c, 3, 82, 0
5, 62790, Note_on_c, 3, 77, 127
5, 62799, Note_on_c, 3, 77, 0
5, 62910, Note_on_c, 3, 80, 127
5, 62922, Note_on_c, 3, 80, 0
5, 62970, Note_on_c, 3, 80, 127
5, 62982, Note_on_c, 3, 80, 0
5, 63060, Note_on_c, 3, 77, 127
5, 63072, Note_on_c, 3, 77, 0
5, 63090, Note_on_c, 3, 79, 127
5, 63103, Note_on_c, 3, 79, 0
5, 63120, Note_on_c, 3, 80, 127
5, 63130, Note_on_c, 3, 80, 0
5, 63180, Note_on_c, 3, 79, 127
5, 63195, Note_on_c, 3, 79, 0
5, 63210, Note_on_c, 3, 80, 127
5, 63223, Note_on_c, 3, 80, 0
5, 63240, Note_on_c, 3, 82, 127
5, 63249, Note_on_c, 3, 82, 0
5, 63270, Note_on_c, 3, 77, 127
5, 63283, Note_on_c, 3, 77, 0
5, 63390, Note_on_c, 3, 80, 127
5, 63400, Note_on_c, 3, 80, 0
5, 63450, Note_on_c, 3, 80, 127
5, 63462, Note_on_c, 3, 80, 0
5, 63540, Note_on_c, 3, 77, 127
5, 63554, Note_on_c, 3, 77, 0
5, 63570, Note_on_c, 3, 79, 127
5, 63583, Note_on_c, 3, 79, 0
5, 63600, Note_on_c, 3, 80, 127
5, 63607, Note_on_c, 3, 80, 0
5, 63660, Note_on_c, 3, 79, 127
5, 63676, Note_on_c, 3, 79, 0
5, 63690, Note_on_c, 3, 80, 127
5, 63703, Note_on_c, 3, 80, 0
5, 63720, Note_on_c, 3, 82, 127
5, 63730, Note_on_c, 3, 82, 0
5, 63750, Note_on_c, 3, 77, 127
5, 63759, Note_on_c, 3, 77, 0
5, 63836, Note_on_c, 3, 41, 79
5, 63870, Note_on_c, 3, 80, 127
5, 63882, Note_on_c, 3, 80, 0
5, 63930, Note_on_c, 3, 80, 127
5, 63942, Note_on_c, 3, 80, 0
5, 64020, Note_on_c, 3, 77, 127
5, 64032, Note_on_c, 3, 77, 0
5, 64050, Note_on_c, 3, 79, 127
5, 64063, Note_on_c, 3, 79, 0
5, 64080, Note_on_c, 3, 80, 127
5, 64090, Note_on_c, 3, 80, 0
5, 64140, Note_on_c, 3, 79, 127
5, 64155, Note_on_c, 3, 79, 0
5, 64170, Note_on_c, 3, 80, 127
5, 64183, Note_on_c, 3, 80, 0
5, 64200, Note_on_c, 3, 82, 127
5, 64209, Note_on_c, 3, 82, 0
5, 64230, Note_on_c, 3, 77, 127
5, 64243, Note_on_c, 3, 77, 0
5, 67676, Note_on_c, 3, 41, 0
5, 67676, End_track
6, 0, Start_track
6, 0, MIDI_port, 0
6, 0, Title_t, "Chords"
6, 0, Control_c, 4, 91, 21
6, 142, Program_c, 4, 26
6, 143, Control_c, 4, 7, 60
6, 143, Control_c, 4, 10, 119
6, 8160, Note_on_c, 4, 65, 127
6, 8160, Note_on_c, 4, 68, 127
6, 8168, Note_on_c, 4, 68, 0
6, 8168, Note_on_c, 4, 65, 0
6, 8190, Note_on_c, 4, 68, 127
6, 8190, Note_on_c, 4, 65, 127
6, 8196, Note_on_c, 4, 65, 0
6, 8198, Note_on_c, 4, 68, 0
6, 8220, Note_on_c, 4, 68, 127
6, 8220, Note_on_c, 4, 65, 127
6, 8229, Note_on_c, 4, 65, 0
6, 8229, Note_on_c, 4, 68, 0
6, 8250, Note_on_c, 4, 68, 127
6, 8250, Note_on_c, 4, 65, 127
6, 8259, Note_on_c, 4, 65, 0
6, 8259, Note_on_c, 4, 68, 0
6, 8280, Note_on_c, 4, 68, 127
6, 8280, Note_on_c, 4, 65, 127
6, 8289, Note_on_c, 4, 65, 0
6, 8291, Note_on_c, 4, 68, 0
6, 8310, Note_on_c, 4, 65, 127
6, 8310, Note_on_c, 4, 68, 127
6, 8319, Note_on_c, 4, 65, 0
6, 8320, Note_on_c, 4, 68, 0
6, 8340, Note_on_c, 4, 68, 127
6, 8340, Note_on_c, 4, 65, 127
6, 8348, Note_on_c, 4, 65, 0
6, 8349, Note_on_c, 4, 68, 0
6, 8370, Note_on_c, 4, 68, 127
6, 8370, Note_on_c, 4, 65, 127
6, 8379, Note_on_c, 4, 65, 0
6, 8379, Note_on_c, 4, 68, 0
6, 8400, Note_on_c, 4, 68, 127
6, 8400, Note_on_c, 4, 65, 127
6, 8410, Note_on_c, 4, 65, 0
6, 8411, Note_on_c, 4, 68, 0
6, 8430, Note_on_c, 4, 68, 127
6, 8430, Note_on_c, 4, 65, 127
6, 8439, Note_on_c, 4, 65, 0
6, 8439, Note_on_c, 4, 68, 0
6, 8460, Note_on_c, 4, 68, 127
6, 8460, Note_on_c, 4, 65, 127
6, 8469, Note_on_c, 4, 65, 0
6, 8469, Note_on_c, 4, 68, 0
6, 8490, Note_on_c, 4, 68, 127
6, 8490, Note_on_c, 4, 65, 127
6, 8498, Note_on_c, 4, 65, 0
6, 8500, Note_on_c, 4, 68, 0
6, 8520, Note_on_c, 4, 65, 127
6, 8520, Note_on_c, 4, 68, 127
6, 8530, Note_on_c, 4, 65, 0
6, 8531, Note_on_c, 4, 68, 0
6, 8550, Note_on_c, 4, 68, 127
6, 8550, Note_on_c, 4, 65, 127
6, 8558, Note_on_c, 4, 65, 0
6, 8561, Note_on_c, 4, 68, 0
6, 8580, Note_on_c, 4, 68, 127
6, 8580, Note_on_c, 4, 65, 127
6, 8589, Note_on_c, 4, 68, 0
6, 8590, Note_on_c, 4, 65, 0
6, 8610, Note_on_c, 4, 68, 127
6, 8610, Note_on_c, 4, 65, 127
6, 8618, Note_on_c, 4, 65, 0
6, 8620, Note_on_c, 4, 68, 0
6, 8640, Note_on_c, 4, 65, 127
6, 8640, Note_on_c, 4, 70, 127
6, 8650, Note_on_c, 4, 65, 0
6, 8651, Note_on_c, 4, 70, 0
6, 8670, Note_on_c, 4, 65, 127
6, 8670, Note_on_c, 4, 70, 127
6, 8678, Note_on_c, 4, 65, 0
6, 8679, Note_on_c, 4, 70, 0
6, 8700, Note_on_c, 4, 70, 127
6, 8700, Note_on_c, 4, 65, 127
6, 8708, Note_on_c, 4, 70, 0
6, 8709, Note_on_c, 4, 65, 0
6, 8730, Note_on_c, 4, 70, 127
6, 8730, Note_on_c, 4, 65, 127
6, 8740, Note_on_c, 4, 65, 0
6, 8741, Note_on_c, 4, 70, 0
6, 8760, Note_on_c, 4, 65, 127
6, 8760, Note_on_c, 4, 70, 127
6, 8769, Note_on_c, 4, 70, 0
6, 8770, Note_on_c, 4, 65, 0
6, 8790, Note_on_c, 4, 70, 127
6, 8790, Note_on_c, 4, 65, 127
6, 8798, Note_on_c, 4, 65, 0
6, 8799, Note_on_c, 4, 70, 0
6, 8820, Note_on_c, 4, 70, 127
6, 8820, Note_on_c, 4, 65, 127
6, 8829, Note_on_c, 4, 65, 0
6, 8829, Note_on_c, 4, 70, 0
6, 8850, Note_on_c, 4, 70, 127
6, 8850, Note_on_c, 4, 65, 127
6, 8859, Note_on_c, 4, 65, 0
6, 8859, Note_on_c, 4, 70, 0
6, 8880, Note_on_c, 4, 70, 127
6, 8880, Note_on_c, 4, 65, 127
6, 8888, Note_on_c, 4, 65, 0
6, 8889, Note_on_c, 4, 70, 0
6, 8910, Note_on_c, 4, 70, 127
6, 8910, Note_on_c, 4, 65, 127
6, 8917, Note_on_c, 4, 65, 0
6, 8919, Note_on_c, 4, 70, 0
6, 8940, Note_on_c, 4, 65, 127
6, 8940, Note_on_c, 4, 70, 127
6, 8948, Note_on_c, 4, 70, 0
6, 8950, Note_on_c, 4, 65, 0
6, 8970, Note_on_c, 4, 70, 127
6, 8970, Note_on_c, 4, 65, 127
6, 8979, Note_on_c, 4, 65, 0
6, 8980, Note_on_c, 4, 70, 0
6, 9000, Note_on_c, 4, 70, 127
6, 9000, Note_on_c, 4, 65, 127
6, 9009, Note_on_c, 4, 65, 0
6, 9009, Note_on_c, 4, 70, 0
6, 9030, Note_on_c, 4, 70, 127
6, 9030, Note_on_c, 4, 65, 127
6, 9039, Note_on_c, 4, 65, 0
6, 9040, Note_on_c, 4, 70, 0
6, 9060, Note_on_c, 4, 70, 127
6, 9060, Note_on_c, 4, 65, 127
6, 9068, Note_on_c, 4, 65, 0
6, 9069, Note_on_c, 4, 70, 0
6, 9090, Note_on_c, 4, 70, 127
6, 9090, Note_on_c, 4, 65, 127
6, 9096, Note_on_c, 4, 70, 0
6, 9098, Note_on_c, 4, 65, 0
6, 9120, Note_on_c, 4, 65, 127
6, 9120, Note_on_c, 4, 68, 127
6, 9128, Note_on_c, 4, 68, 0
6, 9128, Note_on_c, 4, 65, 0
6, 9150, Note_on_c, 4, 68, 127
6, 9150, Note_on_c, 4, 65, 127
6, 9156, Note_on_c, 4, 65, 0
6, 9158, Note_on_c, 4, 68, 0
6, 9180, Note_on_c, 4, 68, 127
6, 9180, Note_on_c, 4, 65, 127
6, 9189, Note_on_c, 4, 65, 0
6, 9189, Note_on_c, 4, 68, 0
6, 9210, Note_on_c, 4, 68, 127
6, 9210, Note_on_c, 4, 65, 127
6, 9219, Note_on_c, 4, 65, 0
6, 9219, Note_on_c, 4, 68, 0
6, 9240, Note_on_c, 4, 68, 127
6, 9240, Note_on_c, 4, 65, 127
6, 9249, Note_on_c, 4, 65, 0
6, 9251, Note_on_c, 4, 68, 0
6, 9270, Note_on_c, 4, 65, 127
6, 9270, Note_on_c, 4, 68, 127
6, 9279, Note_on_c, 4, 65, 0
6, 9280, Note_on_c, 4, 68, 0
6, 9300, Note_on_c, 4, 68, 127
6, 9300, Note_on_c, 4, 65, 127
6, 9308, Note_on_c, 4, 65, 0
6, 9309, Note_on_c, 4, 68, 0
6, 9330, Note_on_c, 4, 68, 127
6, 9330, Note_on_c, 4, 65, 127
6, 9339, Note_on_c, 4, 65, 0
6, 9339, Note_on_c, 4, 68, 0
6, 9360, Note_on_c, 4, 68, 127
6, 9360, Note_on_c, 4, 65, 127
6, 9370, Note_on_c, 4, 65, 0
6, 9371, Note_on_c, 4, 68, 0
6, 9390, Note_on_c, 4, 68, 127
6, 9390, Note_on_c, 4, 65, 127
6, 9399, Note_on_c, 4, 65, 0
6, 9399, Note_on_c, 4, 68, 0
6, 9420, Note_on_c, 4, 68, 127
6, 9420, Note_on_c, 4, 65, 127
6, 9429, Note_on_c, 4, 65, 0
6, 9429, Note_on_c, 4, 68, 0
6, 9450, Note_on_c, 4, 68, 127
6, 9450, Note_on_c, 4, 65, 127
6, 9458, Note_on_c, 4, 65, 0
6, 9460, Note_on_c, 4, 68, 0
6, 9480, Note_on_c, 4, 65, 127
6, 9480, Note_on_c, 4, 68, 127
6, 9490, Note_on_c, 4, 65, 0
6, 9491, Note_on_c, 4, 68, 0
6, 9510, Note_on_c, 4, 68, 127
6, 9510, Note_on_c, 4, 65, 127
6, 9518, Note_on_c, 4, 65, 0
6, 9521, Note_on_c, 4, 68, 0
6, 9540, Note_on_c, 4, 68, 127
6, 9540, Note_on_c, 4, 65, 127
6, 9549, Note_on_c, 4, 68, 0
6, 9550, Note_on_c, 4, 65, 0
6, 9570, Note_on_c, 4, 68, 127
6, 9570, Note_on_c, 4, 65, 127
6, 9578, Note_on_c, 4, 65, 0
6, 9580, Note_on_c, 4, 68, 0
6, 9600, Note_on_c, 4, 65, 127
6, 9600, Note_on_c, 4, 70, 127
6, 9610, Note_on_c, 4, 65, 0
6, 9611, Note_on_c, 4, 70, 0
6, 9630, Note_on_c, 4, 65, 127
6, 9630, Note_on_c, 4, 70, 127
6, 9638, Note_on_c, 4, 65, 0
6, 9639, Note_on_c, 4, 70, 0
6, 9660, Note_on_c, 4, 70, 127
6, 9660, Note_on_c, 4, 65, 127
6, 9668, Note_on_c, 4, 70, 0
6, 9669, Note_on_c, 4, 65, 0
6, 9690, Note_on_c, 4, 70, 127
6, 9690, Note_on_c, 4, 65, 127
6, 9700, Note_on_c, 4, 65, 0
6, 9701, Note_on_c, 4, 70, 0
6, 9720, Note_on_c, 4, 65, 127
6, 9720, Note_on_c, 4, 70, 127
6, 9729, Note_on_c, 4, 70, 0
6, 9730, Note_on_c, 4, 65, 0
6, 9750, Note_on_c, 4, 70, 127
6, 9750, Note_on_c, 4, 65, 127
6, 9758, Note_on_c, 4, 65, 0
6, 9759, Note_on_c, 4, 70, 0
6, 9780, Note_on_c, 4, 70, 127
6, 9780, Note_on_c, 4, 65, 127
6, 9789, Note_on_c, 4, 65, 0
6, 9789, Note_on_c, 4, 70, 0
6, 9810, Note_on_c, 4, 70, 127
6, 9810, Note_on_c, 4, 65, 127
6, 9819, Note_on_c, 4, 65, 0
6, 9819, Note_on_c, 4, 70, 0
6, 9840, Note_on_c, 4, 70, 127
6, 9840, Note_on_c, 4, 65, 127
6, 9848, Note_on_c, 4, 65, 0
6, 9849, Note_on_c, 4, 70, 0
6, 9870, Note_on_c, 4, 70, 127
6, 9870, Note_on_c, 4, 65, 127
6, 9877, Note_on_c, 4, 65, 0
6, 9879, Note_on_c, 4, 70, 0
6, 9900, Note_on_c, 4, 65, 127
6, 9900, Note_on_c, 4, 70, 127
6, 9908, Note_on_c, 4, 70, 0
6, 9910, Note_on_c, 4, 65, 0
6, 9930, Note_on_c, 4, 70, 127
6, 9930, Note_on_c, 4, 65, 127
6, 9939, Note_on_c, 4, 65, 0
6, 9940, Note_on_c, 4, 70, 0
6, 9960, Note_on_c, 4, 70, 127
6, 9960, Note_on_c, 4, 65, 127
6, 9969, Note_on_c, 4, 65, 0
6, 9969, Note_on_c, 4, 70, 0
6, 9990, Note_on_c, 4, 70, 127
6, 9990, Note_on_c, 4, 65, 127
6, 9999, Note_on_c, 4, 65, 0
6, 10000, Note_on_c, 4, 70, 0
6, 10020, Note_on_c, 4, 70, 127
6, 10020, Note_on_c, 4, 65, 127
6, 10028, Note_on_c, 4, 65, 0
6, 10029, Note_on_c, 4, 70, 0
6, 10050, Note_on_c, 4, 70, 127
6, 10050, Note_on_c, 4, 65, 127
6, 10056, Note_on_c, 4, 70, 0
6, 10058, Note_on_c, 4, 65, 0
6, 10080, Note_on_c, 4, 65, 127
6, 10080, Note_on_c, 4, 68, 127
6, 10088, Note_on_c, 4, 68, 0
6, 10088, Note_on_c, 4, 65, 0
6, 10110, Note_on_c, 4, 68, 127
6, 10110, Note_on_c, 4, 65, 127
6, 10116, Note_on_c, 4, 65, 0
6, 10118, Note_on_c, 4, 68, 0
6, 10140, Note_on_c, 4, 68, 127
6, 10140, Note_on_c, 4, 65, 127
6, 10149, Note_on_c, 4, 65, 0
6, 10149, Note_on_c, 4, 68, 0
6, 10170, Note_on_c, 4, 68, 127
6, 10170, Note_on_c, 4, 65, 127
6, 10179, Note_on_c, 4, 65, 0
6, 10179, Note_on_c, 4, 68, 0
6, 10200, Note_on_c, 4, 68, 127
6, 10200, Note_on_c, 4, 65, 127
6, 10209, Note_on_c, 4, 65, 0
6, 10211, Note_on_c, 4, 68, 0
6, 10230, Note_on_c, 4, 65, 127
6, 10230, Note_on_c, 4, 68, 127
6, 10239, Note_on_c, 4, 65, 0
6, 10240, Note_on_c, 4, 68, 0
6, 10260, Note_on_c, 4, 68, 127
6, 10260, Note_on_c, 4, 65, 127
6, 10268, Note_on_c, 4, 65, 0
6, 10269, Note_on_c, 4, 68, 0
6, 10290, Note_on_c, 4, 68, 127
6, 10290, Note_on_c, 4, 65, 127
6, 10299, Note_on_c, 4, 65, 0
6, 10299, Note_on_c, 4, 68, 0
6, 10320, Note_on_c, 4, 68, 127
6, 10320, Note_on_c, 4, 65, 127
6, 10330, Note_on_c, 4, 65, 0
6, 10331, Note_on_c, 4, 68, 0
6, 10350, Note_on_c, 4, 68, 127
6, 10350, Note_on_c, 4, 65, 127
6, 10359, Note_on_c, 4, 65, 0
6, 10359, Note_on_c, 4, 68, 0
6, 10380, Note_on_c, 4, 68, 127
6, 10380, Note_on_c, 4, 65, 127
6, 10389, Note_on_c, 4, 65, 0
6, 10389, Note_on_c, 4, 68, 0
6, 10410, Note_on_c, 4, 68, 127
6, 10410, Note_on_c, 4, 65, 127
6, 10418, Note_on_c, 4, 65, 0
6, 10420, Note_on_c, 4, 68, 0
6, 10440, Note_on_c, 4, 65, 127
6, 10440, Note_on_c, 4, 68, 127
6, 10450, Note_on_c, 4, 65, 0
6, 10451, Note_on_c, 4, 68, 0
6, 10470, Note_on_c, 4, 68, 127
6, 10470, Note_on_c, 4, 65, 127
6, 10478, Note_on_c, 4, 65, 0
6, 10481, Note_on_c, 4, 68, 0
6, 10500, Note_on_c, 4, 68, 127
6, 10500, Note_on_c, 4, 65, 127
6, 10509, Note_on_c, 4, 68, 0
6, 10510, Note_on_c, 4, 65, 0
6, 10530, Note_on_c, 4, 68, 127
6, 10530, Note_on_c, 4, 65, 127
6, 10538, Note_on_c, 4, 65, 0
6, 10540, Note_on_c, 4, 68, 0
6, 10560, Note_on_c, 4, 65, 127
6, 10560, Note_on_c, 4, 70, 127
6, 10570, Note_on_c, 4, 65, 0
6, 10571, Note_on_c, 4, 70, 0
6, 10590, Note_on_c, 4, 65, 127
6, 10590, Note_on_c, 4, 70, 127
6, 10598, Note_on_c, 4, 65, 0
6, 10599, Note_on_c, 4, 70, 0
6, 10620, Note_on_c, 4, 70, 127
6, 10620, Note_on_c, 4, 65, 127
6, 10628, Note_on_c, 4, 70, 0
6, 10629, Note_on_c, 4, 65, 0
6, 10650, Note_on_c, 4, 70, 127
6, 10650, Note_on_c, 4, 65, 127
6, 10660, Note_on_c, 4, 65, 0
6, 10661, Note_on_c, 4, 70, 0
6, 10680, Note_on_c, 4, 65, 127
6, 10680, Note_on_c, 4, 70, 127
6, 10689, Note_on_c, 4, 70, 0
6, 10690, Note_on_c, 4, 65, 0
6, 10710, Note_on_c, 4, 70, 127
6, 10710, Note_on_c, 4, 65, 127
6, 10718, Note_on_c, 4, 65, 0
6, 10719, Note_on_c, 4, 70, 0
6, 10740, Note_on_c, 4, 70, 127
6, 10740, Note_on_c, 4, 65, 127
6, 10749, Note_on_c, 4, 65, 0
6, 10749, Note_on_c, 4, 70, 0
6, 10770, Note_on_c, 4, 70, 127
6, 10770, Note_on_c, 4, 65, 127
6, 10779, Note_on_c, 4, 65, 0
6, 10779, Note_on_c, 4, 70, 0
6, 10800, Note_on_c, 4, 70, 127
6, 10800, Note_on_c, 4, 65, 127
6, 10808, Note_on_c, 4, 65, 0
6, 10809, Note_on_c, 4, 70, 0
6, 10830, Note_on_c, 4, 70, 127
6, 10830, Note_on_c, 4, 65, 127
6, 10837, Note_on_c, 4, 65, 0
6, 10839, Note_on_c, 4, 70, 0
6, 10860, Note_on_c, 4, 65, 127
6, 10860, Note_on_c, 4, 70, 127
6, 10868, Note_on_c, 4, 70, 0
6, 10870, Note_on_c, 4, 65, 0
6, 10890, Note_on_c, 4, 70, 127
6, 10890, Note_on_c, 4, 65, 127
6, 10899, Note_on_c, 4, 65, 0
6, 10900, Note_on_c, 4, 70, 0
6, 10920, Note_on_c, 4, 70, 127
6, 10920, Note_on_c, 4, 65, 127
6, 10929, Note_on_c, 4, 65, 0
6, 10929, Note_on_c, 4, 70, 0
6, 10950, Note_on_c, 4, 70, 127
6, 10950, Note_on_c, 4, 65, 127
6, 10959, Note_on_c, 4, 65, 0
6, 10960, Note_on_c, 4, 70, 0
6, 10980, Note_on_c, 4, 70, 127
6, 10980, Note_on_c, 4, 65, 127
6, 10988, Note_on_c, 4, 65, 0
6, 10989, Note_on_c, 4, 70, 0
6, 11010, Note_on_c, 4, 70, 127
6, 11010, Note_on_c, 4, 65, 127
6, 11016, Note_on_c, 4, 70, 0
6, 11018, Note_on_c, 4, 65, 0
6, 11040, Note_on_c, 4, 65, 127
6, 11040, Note_on_c, 4, 68, 127
6, 11048, Note_on_c, 4, 68, 0
6, 11048, Note_on_c, 4, 65, 0
6, 11070, Note_on_c, 4, 68, 127
6, 11070, Note_on_c, 4, 65, 127
6, 11076, Note_on_c, 4, 65, 0
6, 11078, Note_on_c, 4, 68, 0
6, 11100, Note_on_c, 4, 68, 127
6, 11100, Note_on_c, 4, 65, 127
6, 11109, Note_on_c, 4, 65, 0
6, 11109, Note_on_c, 4, 68, 0
6, 11130, Note_on_c, 4, 68, 127
6, 11130, Note_on_c, 4, 65, 127
6, 11139, Note_on_c, 4, 65, 0
6, 11139, Note_on_c, 4, 68, 0
6, 11160, Note_on_c, 4, 68, 127
6, 11160, Note_on_c, 4, 65, 127
6, 11169, Note_on_c, 4, 65, 0
6, 11171, Note_on_c, 4, 68, 0
6, 11190, Note_on_c, 4, 65, 127
6, 11190, Note_on_c, 4, 68, 127
6, 11199, Note_on_c, 4, 65, 0
6, 11200, Note_on_c, 4, 68, 0
6, 11220, Note_on_c, 4, 68, 127
6, 11220, Note_on_c, 4, 65, 127
6, 11228, Note_on_c, 4, 65, 0
6, 11229, Note_on_c, 4, 68, 0
6, 11250, Note_on_c, 4, 68, 127
6, 11250, Note_on_c, 4, 65, 127
6, 11259, Note_on_c, 4, 65, 0
6, 11259, Note_on_c, 4, 68, 0
6, 11280, Note_on_c, 4, 68, 127
6, 11280, Note_on_c, 4, 65, 127
6, 11290, Note_on_c, 4, 65, 0
6, 11291, Note_on_c, 4, 68, 0
6, 11310, Note_on_c, 4, 68, 127
6, 11310, Note_on_c, 4, 65, 127
6, 11319, Note_on_c, 4, 65, 0
6, 11319, Note_on_c, 4, 68, 0
6, 11340, Note_on_c, 4, 68, 127
6, 11340, Note_on_c, 4, 65, 127
6, 11349, Note_on_c, 4, 65, 0
6, 11349, Note_on_c, 4, 68, 0
6, 11370, Note_on_c, 4, 68, 127
6, 11370, Note_on_c, 4, 65, 127
6, 11378, Note_on_c, 4, 65, 0
6, 11380, Note_on_c, 4, 68, 0
6, 11400, Note_on_c, 4, 65, 127
6, 11400, Note_on_c, 4, 68, 127
6, 11410, Note_on_c, 4, 65, 0
6, 11411, Note_on_c, 4, 68, 0
6, 11430, Note_on_c, 4, 68, 127
6, 11430, Note_on_c, 4, 65, 127
6, 11438, Note_on_c, 4, 65, 0
6, 11441, Note_on_c, 4, 68, 0
6, 11460, Note_on_c, 4, 68, 127
6, 11460, Note_on_c, 4, 65, 127
6, 11469, Note_on_c, 4, 68, 0
6, 11470, Note_on_c, 4, 65, 0
6, 11490, Note_on_c, 4, 68, 127
6, 11490, Note_on_c, 4, 65, 127
6, 11498, Note_on_c, 4, 65, 0
6, 11500, Note_on_c, 4, 68, 0
6, 11520, Note_on_c, 4, 65, 127
6, 11520, Note_on_c, 4, 70, 127
6, 11530, Note_on_c, 4, 65, 0
6, 11531, Note_on_c, 4, 70, 0
6, 11550, Note_on_c, 4, 65, 127
6, 11550, Note_on_c, 4, 70, 127
6, 11558, Note_on_c, 4, 65, 0
6, 11559, Note_on_c, 4, 70, 0
6, 11580, Note_on_c, 4, 70, 127
6, 11580, Note_on_c, 4, 65, 127
6, 11588, Note_on_c, 4, 70, 0
6, 11589, Note_on_c, 4, 65, 0
6, 11610, Note_on_c, 4, 70, 127
6, 11610, Note_on_c, 4, 65, 127
6, 11620, Note_on_c, 4, 65, 0
6, 11621, Note_on_c, 4, 70, 0
6, 11640, Note_on_c, 4, 65, 127
6, 11640, Note_on_c, 4, 70, 127
6, 11649, Note_on_c, 4, 70, 0
6, 11650, Note_on_c, 4, 65, 0
6, 11670, Note_on_c, 4, 70, 127
6, 11670, Note_on_c, 4, 65, 127
6, 11678, Note_on_c, 4, 65, 0
6, 11679, Note_on_c, 4, 70, 0
6, 11700, Note_on_c, 4, 70, 127
6, 11700, Note_on_c, 4, 65, 127
6, 11709, Note_on_c, 4, 65, 0
6, 11709, Note_on_c, 4, 70, 0
6, 11730, Note_on_c, 4, 70, 127
6, 11730, Note_on_c, 4, 65, 127
6, 11739, Note_on_c, 4, 65, 0
6, 11739, Note_on_c, 4, 70, 0
6, 11760, Note_on_c, 4, 70, 127
6, 11760, Note_on_c, 4, 65, 127
6, 11768, Note_on_c, 4, 65, 0
6, 11769, Note_on_c, 4, 70, 0
6, 11790, Note_on_c, 4, 70, 127
6, 11790, Note_on_c, 4, 65, 127
6, 11797, Note_on_c, 4, 65, 0
6, 11799, Note_on_c, 4, 70, 0
6, 11820, Note_on_c, 4, 65, 127
6, 11820, Note_on_c, 4, 70, 127
6, 11828, Note_on_c, 4, 70, 0
6, 11830, Note_on_c, 4, 65, 0
6, 11850, Note_on_c, 4, 70, 127
6, 11850, Note_on_c, 4, 65, 127
6, 11859, Note_on_c, 4, 65, 0
6, 11860, Note_on_c, 4, 70, 0
6, 11880, Note_on_c, 4, 70, 127
6, 11880, Note_on_c, 4, 65, 127
6, 11889, Note_on_c, 4, 65, 0
6, 11889, Note_on_c, 4, 70, 0
6, 11910, Note_on_c, 4, 70, 127
6, 11910, Note_on_c, 4, 65, 127
6, 11919, Note_on_c, 4, 65, 0
6, 11920, Note_on_c, 4, 70, 0
6, 11940, Note_on_c, 4, 70, 127
6, 11940, Note_on_c, 4, 65, 127
6, 11948, Note_on_c, 4, 65, 0
6, 11949, Note_on_c, 4, 70, 0
6, 11970, Note_on_c, 4, 70, 127
6, 11970, Note_on_c, 4, 65, 127
6, 11976, Note_on_c, 4, 70, 0
6, 11978, Note_on_c, 4, 65, 0
6, 12000, Note_on_c, 4, 65, 127
6, 12000, Note_on_c, 4, 68, 127
6, 12008, Note_on_c, 4, 68, 0
6, 12008, Note_on_c, 4, 65, 0
6, 12030, Note_on_c, 4, 68, 127
6, 12030, Note_on_c, 4, 65, 127
6, 12036, Note_on_c, 4, 65, 0
6, 12038, Note_on_c, 4, 68, 0
6, 12060, Note_on_c, 4, 68, 127
6, 12060, Note_on_c, 4, 65, 127
6, 12069, Note_on_c, 4, 65, 0
6, 12069, Note_on_c, 4, 68, 0
6, 12090, Note_on_c, 4, 68, 127
6, 12090, Note_on_c, 4, 65, 127
6, 12099, Note_on_c, 4, 65, 0
6, 12099, Note_on_c, 4, 68, 0
6, 12120, Note_on_c, 4, 68, 127
6, 12120, Note_on_c, 4, 65, 127
6, 12129, Note_on_c, 4, 65, 0
6, 12131, Note_on_c, 4, 68, 0
6, 12150, Note_on_c, 4, 65, 127
6, 12150, Note_on_c, 4, 68, 127
6, 12159, Note_on_c, 4, 65, 0
6, 12160, Note_on_c, 4, 68, 0
6, 12180, Note_on_c, 4, 68, 127
6, 12180, Note_on_c, 4, 65, 127
6, 12188, Note_on_c, 4, 65, 0
6, 12189, Note_on_c, 4, 68, 0
6, 12210, Note_on_c, 4, 68, 127
6, 12210, Note_on_c, 4, 65, 127
6, 12219, Note_on_c, 4, 65, 0
6, 12219, Note_on_c, 4, 68, 0
6, 12240, Note_on_c, 4, 68, 127
6, 12240, Note_on_c, 4, 65, 127
6, 12250, Note_on_c, 4, 65, 0
6, 12251, Note_on_c, 4, 68, 0
6, 12270, Note_on_c, 4, 68, 127
6, 12270, Note_on_c, 4, 65, 127
6, 12279, Note_on_c, 4, 65, 0
6, 12279, Note_on_c, 4, 68, 0
6, 12300, Note_on_c, 4, 68, 127
6, 12300, Note_on_c, 4, 65, 127
6, 12309, Note_on_c, 4, 65, 0
6, 12309, Note_on_c, 4, 68, 0
6, 12330, Note_on_c, 4, 68, 127
6, 12330, Note_on_c, 4, 65, 127
6, 12338, Note_on_c, 4, 65, 0
6, 12340, Note_on_c, 4, 68, 0
6, 12360, Note_on_c, 4, 65, 127
6, 12360, Note_on_c, 4, 68, 127
6, 12370, Note_on_c, 4, 65, 0
6, 12371, Note_on_c, 4, 68, 0
6, 12390, Note_on_c, 4, 68, 127
6, 12390, Note_on_c, 4, 65, 127
6, 12398, Note_on_c, 4, 65, 0
6, 12401, Note_on_c, 4, 68, 0
6, 12420, Note_on_c, 4, 68, 127
6, 12420, Note_on_c, 4, 65, 127
6, 12429, Note_on_c, 4, 68, 0
6, 12430, Note_on_c, 4, 65, 0
6, 12450, Note_on_c, 4, 68, 127
6, 12450, Note_on_c, 4, 65, 127
6, 12458, Note_on_c, 4, 65, 0
6, 12460, Note_on_c, 4, 68, 0
6, 12480, Note_on_c, 4, 65, 127
6, 12480, Note_on_c, 4, 70, 127
6, 12490, Note_on_c, 4, 65, 0
6, 12491, Note_on_c, 4, 70, 0
6, 12510, Note_on_c, 4, 65, 127
6, 12510, Note_on_c, 4, 70, 127
6, 12518, Note_on_c, 4, 65, 0
6, 12519, Note_on_c, 4, 70, 0
6, 12540, Note_on_c, 4, 70, 127
6, 12540, Note_on_c, 4, 65, 127
6, 12548, Note_on_c, 4, 70, 0
6, 12549, Note_on_c, 4, 65, 0
6, 12570, Note_on_c, 4, 70, 127
6, 12570, Note_on_c, 4, 65, 127
6, 12580, Note_on_c, 4, 65, 0
6, 12581, Note_on_c, 4, 70, 0
6, 12600, Note_on_c, 4, 65, 127
6, 12600, Note_on_c, 4, 70, 127
6, 12609, Note_on_c, 4, 70, 0
6, 12610, Note_on_c, 4, 65, 0
6, 12630, Note_on_c, 4, 70, 127
6, 12630, Note_on_c, 4, 65, 127
6, 12638, Note_on_c, 4, 65, 0
6, 12639, Note_on_c, 4, 70, 0
6, 12660, Note_on_c, 4, 70, 127
6, 12660, Note_on_c, 4, 65, 127
6, 12669, Note_on_c, 4, 65, 0
6, 12669, Note_on_c, 4, 70, 0
6, 12690, Note_on_c, 4, 70, 127
6, 12690, Note_on_c, 4, 65, 127
6, 12699, Note_on_c, 4, 65, 0
6, 12699, Note_on_c, 4, 70, 0
6, 12720, Note_on_c, 4, 70, 127
6, 12720, Note_on_c, 4, 65, 127
6, 12728, Note_on_c, 4, 65, 0
6, 12729, Note_on_c, 4, 70, 0
6, 12750, Note_on_c, 4, 70, 127
6, 12750, Note_on_c, 4, 65, 127
6, 12757, Note_on_c, 4, 65, 0
6, 12759, Note_on_c, 4, 70, 0
6, 12780, Note_on_c, 4, 65, 127
6, 12780, Note_on_c, 4, 70, 127
6, 12788, Note_on_c, 4, 70, 0
6, 12790, Note_on_c, 4, 65, 0
6, 12810, Note_on_c, 4, 70, 127
6, 12810, Note_on_c, 4, 65, 127
6, 12819, Note_on_c, 4, 65, 0
6, 12820, Note_on_c, 4, 70, 0
6, 12840, Note_on_c, 4, 70, 127
6, 12840, Note_on_c, 4, 65, 127
6, 12849, Note_on_c, 4, 65, 0
6, 12849, Note_on_c, 4, 70, 0
6, 12870, Note_on_c, 4, 70, 127
6, 12870, Note_on_c, 4, 65, 127
6, 12879, Note_on_c, 4, 65, 0
6, 12880, Note_on_c, 4, 70, 0
6, 12900, Note_on_c, 4, 70, 127
6, 12900, Note_on_c, 4, 65, 127
6, 12908, Note_on_c, 4, 65, 0
6, 12909, Note_on_c, 4, 70, 0
6, 12930, Note_on_c, 4, 70, 127
6, 12930, Note_on_c, 4, 65, 127
6, 12936, Note_on_c, 4, 70, 0
6, 12938, Note_on_c, 4, 65, 0
6, 12960, Note_on_c, 4, 65, 127
6, 12960, Note_on_c, 4, 68, 127
6, 12968, Note_on_c, 4, 68, 0
6, 12968, Note_on_c, 4, 65, 0
6, 12990, Note_on_c, 4, 68, 127
6, 12990, Note_on_c, 4, 65, 127
6, 12996, Note_on_c, 4, 65, 0
6, 12998, Note_on_c, 4, 68, 0
6, 13020, Note_on_c, 4, 68, 127
6, 13020, Note_on_c, 4, 65, 127
6, 13029, Note_on_c, 4, 65, 0
6, 13029, Note_on_c, 4, 68, 0
6, 13050, Note_on_c, 4, 68, 127
6, 13050, Note_on_c, 4, 65, 127
6, 13059, Note_on_c, 4, 65, 0
6, 13059, Note_on_c, 4, 68, 0
6, 13080, Note_on_c, 4, 68, 127
6, 13080, Note_on_c, 4, 65, 127
6, 13089, Note_on_c, 4, 65, 0
6, 13091, Note_on_c, 4, 68, 0
6, 13110, Note_on_c, 4, 65, 127
6, 13110, Note_on_c, 4, 68, 127
6, 13119, Note_on_c, 4, 65, 0
6, 13120, Note_on_c, 4, 68, 0
6, 13140, Note_on_c, 4, 68, 127
6, 13140, Note_on_c, 4, 65, 127
6, 13148, Note_on_c, 4, 65, 0
6, 13149, Note_on_c, 4, 68, 0
6, 13170, Note_on_c, 4, 68, 127
6, 13170, Note_on_c, 4, 65, 127
6, 13179, Note_on_c, 4, 65, 0
6, 13179, Note_on_c, 4, 68, 0
6, 13200, Note_on_c, 4, 68, 127
6, 13200, Note_on_c, 4, 65, 127
6, 13210, Note_on_c, 4, 65, 0
6, 13211, Note_on_c, 4, 68, 0
6, 13230, Note_on_c, 4, 68, 127
6, 13230, Note_on_c, 4, 65, 127
6, 13239, Note_on_c, 4, 65, 0
6, 13239, Note_on_c, 4, 68, 0
6, 13260, Note_on_c, 4, 68, 127
6, 13260, Note_on_c, 4, 65, 127
6, 13269, Note_on_c, 4, 65, 0
6, 13269, Note_on_c, 4, 68, 0
6, 13290, Note_on_c, 4, 68, 127
6, 13290, Note_on_c, 4, 65, 127
6, 13298, Note_on_c, 4, 65, 0
6, 13300, Note_on_c, 4, 68, 0
6, 13320, Note_on_c, 4, 65, 127
6, 13320, Note_on_c, 4, 68, 127
6, 13330, Note_on_c, 4, 65, 0
6, 13331, Note_on_c, 4, 68, 0
6, 13350, Note_on_c, 4, 68, 127
6, 13350, Note_on_c, 4, 65, 127
6, 13358, Note_on_c, 4, 65, 0
6, 13361, Note_on_c, 4, 68, 0
6, 13380, Note_on_c, 4, 68, 127
6, 13380, Note_on_c, 4, 65, 127
6, 13389, Note_on_c, 4, 68, 0
6, 13390, Note_on_c, 4, 65, 0
6, 13410, Note_on_c, 4, 68, 127
6, 13410, Note_on_c, 4, 65, 127
6, 13418, Note_on_c, 4, 65, 0
6, 13420, Note_on_c, 4, 68, 0
6, 13440, Note_on_c, 4, 65, 127
6, 13440, Note_on_c, 4, 70, 127
6, 13450, Note_on_c, 4, 65, 0
6, 13451, Note_on_c, 4, 70, 0
6, 13470, Note_on_c, 4, 65, 127
6, 13470, Note_on_c, 4, 70, 127
6, 13478, Note_on_c, 4, 65, 0
6, 13479, Note_on_c, 4, 70, 0
6, 13500, Note_on_c, 4, 70, 127
6, 13500, Note_on_c, 4, 65, 127
6, 13508, Note_on_c, 4, 70, 0
6, 13509, Note_on_c, 4, 65, 0
6, 13530, Note_on_c, 4, 70, 127
6, 13530, Note_on_c, 4, 65, 127
6, 13540, Note_on_c, 4, 65, 0
6, 13541, Note_on_c, 4, 70, 0
6, 13560, Note_on_c, 4, 65, 127
6, 13560, Note_on_c, 4, 70, 127
6, 13569, Note_on_c, 4, 70, 0
6, 13570, Note_on_c, 4, 65, 0
6, 13590, Note_on_c, 4, 70, 127
6, 13590, Note_on_c, 4, 65, 127
6, 13598, Note_on_c, 4, 65, 0
6, 13599, Note_on_c, 4, 70, 0
6, 13620, Note_on_c, 4, 70, 127
6, 13620, Note_on_c, 4, 65, 127
6, 13629, Note_on_c, 4, 65, 0
6, 13629, Note_on_c, 4, 70, 0
6, 13650, Note_on_c, 4, 70, 127
6, 13650, Note_on_c, 4, 65, 127
6, 13659, Note_on_c, 4, 65, 0
6, 13659, Note_on_c, 4, 70, 0
6, 13680, Note_on_c, 4, 70, 127
6, 13680, Note_on_c, 4, 65, 127
6, 13688, Note_on_c, 4, 65, 0
6, 13689, Note_on_c, 4, 70, 0
6, 13710, Note_on_c, 4, 70, 127
6, 13710, Note_on_c, 4, 65, 127
6, 13717, Note_on_c, 4, 65, 0
6, 13719, Note_on_c, 4, 70, 0
6, 13740, Note_on_c, 4, 65, 127
6, 13740, Note_on_c, 4, 70, 127
6, 13748, Note_on_c, 4, 70, 0
6, 13750, Note_on_c, 4, 65, 0
6, 13770, Note_on_c, 4, 70, 127
6, 13770, Note_on_c, 4, 65, 127
6, 13779, Note_on_c, 4, 65, 0
6, 13780, Note_on_c, 4, 70, 0
6, 13800, Note_on_c, 4, 70, 127
6, 13800, Note_on_c, 4, 65, 127
6, 13809, Note_on_c, 4, 65, 0
6, 13809, Note_on_c, 4, 70, 0
6, 13830, Note_on_c, 4, 70, 127
6, 13830, Note_on_c, 4, 65, 127
6, 13839, Note_on_c, 4, 65, 0
6, 13840, Note_on_c, 4, 70, 0
6, 13860, Note_on_c, 4, 70, 127
6, 13860, Note_on_c, 4, 65, 127
6, 13868, Note_on_c, 4, 65, 0
6, 13869, Note_on_c, 4, 70, 0
6, 13890, Note_on_c, 4, 70, 127
6, 13890, Note_on_c, 4, 65, 127
6, 13896, Note_on_c, 4, 70, 0
6, 13898, Note_on_c, 4, 65, 0
6, 25440, Note_on_c, 4, 65, 127
6, 25440, Note_on_c, 4, 68, 127
6, 25448, Note_on_c, 4, 68, 0
6, 25448, Note_on_c, 4, 65, 0
6, 25470, Note_on_c, 4, 68, 127
6, 25470, Note_on_c, 4, 65, 127
6, 25476, Note_on_c, 4, 65, 0
6, 25478, Note_on_c, 4, 68, 0
6, 25500, Note_on_c, 4, 68, 127
6, 25500, Note_on_c, 4, 65, 127
6, 25509, Note_on_c, 4, 65, 0
6, 25509, Note_on_c, 4, 68, 0
6, 25530, Note_on_c, 4, 68, 127
6, 25530, Note_on_c, 4, 65, 127
6, 25539, Note_on_c, 4, 65, 0
6, 25539, Note_on_c, 4, 68, 0
6, 25560, Note_on_c, 4, 68, 127
6, 25560, Note_on_c, 4, 65, 127
6, 25569, Note_on_c, 4, 65, 0
6, 25571, Note_on_c, 4, 68, 0
6, 25590, Note_on_c, 4, 65, 127
6, 25590, Note_on_c, 4, 68, 127
6, 25599, Note_on_c, 4, 65, 0
6, 25600, Note_on_c, 4, 68, 0
6, 25620, Note_on_c, 4, 68, 127
6, 25620, Note_on_c, 4, 65, 127
6, 25628, Note_on_c, 4, 65, 0
6, 25629, Note_on_c, 4, 68, 0
6, 25650, Note_on_c, 4, 68, 127
6, 25650, Note_on_c, 4, 65, 127
6, 25659, Note_on_c, 4, 65, 0
6, 25659, Note_on_c, 4, 68, 0
6, 25680, Note_on_c, 4, 68, 127
6, 25680, Note_on_c, 4, 65, 127
6, 25690, Note_on_c, 4, 65, 0
6, 25691, Note_on_c, 4, 68, 0
6, 25710, Note_on_c, 4, 68, 127
6, 25710, Note_on_c, 4, 65, 127
6, 25719, Note_on_c, 4, 65, 0
6, 25719, Note_on_c, 4, 68, 0
6, 25740, Note_on_c, 4, 68, 127
6, 25740, Note_on_c, 4, 65, 127
6, 25749, Note_on_c, 4, 65, 0
6, 25749, Note_on_c, 4, 68, 0
6, 25770, Note_on_c, 4, 68, 127
6, 25770, Note_on_c, 4, 65, 127
6, 25778, Note_on_c, 4, 65, 0
6, 25780, Note_on_c, 4, 68, 0
6, 25800, Note_on_c, 4, 65, 127
6, 25800, Note_on_c, 4, 68, 127
6, 25810, Note_on_c, 4, 65, 0
6, 25811, Note_on_c, 4, 68, 0
6, 25830, Note_on_c, 4, 68, 127
6, 25830, Note_on_c, 4, 65, 127
6, 25838, Note_on_c, 4, 65, 0
6, 25841, Note_on_c, 4, 68, 0
6, 25860, Note_on_c, 4, 68, 127
6, 25860, Note_on_c, 4, 65, 127
6, 25869, Note_on_c, 4, 68, 0
6, 25870, Note_on_c, 4, 65, 0
6, 25890, Note_on_c, 4, 68, 127
6, 25890, Note_on_c, 4, 65, 127
6, 25898, Note_on_c, 4, 65, 0
6, 25900, Note_on_c, 4, 68, 0
6, 25920, Note_on_c, 4, 65, 127
6, 25920, Note_on_c, 4, 70, 127
6, 25930, Note_on_c, 4, 65, 0
6, 25931, Note_on_c, 4, 70, 0
6, 25950, Note_on_c, 4, 65, 127
6, 25950, Note_on_c, 4, 70, 127
6, 25958, Note_on_c, 4, 65, 0
6, 25959, Note_on_c, 4, 70, 0
6, 25980, Note_on_c, 4, 70, 127
6, 25980, Note_on_c, 4, 65, 127
6, 25988, Note_on_c, 4, 70, 0
6, 25989, Note_on_c, 4, 65, 0
6, 26010, Note_on_c, 4, 70, 127
6, 26010, Note_on_c, 4, 65, 127
6, 26020, Note_on_c, 4, 65, 0
6, 26021, Note_on_c, 4, 70, 0
6, 26040, Note_on_c, 4, 65, 127
6, 26040, Note_on_c, 4, 70, 127
6, 26049, Note_on_c, 4, 70, 0
6, 26050, Note_on_c, 4, 65, 0
6, 26070, Note_on_c, 4, 70, 127
6, 26070, Note_on_c, 4, 65, 127
6, 26078, Note_on_c, 4, 65, 0
6, 26079, Note_on_c, 4, 70, 0
6, 26100, Note_on_c, 4, 70, 127
6, 26100, Note_on_c, 4, 65, 127
6, 26109, Note_on_c, 4, 65, 0
6, 26109, Note_on_c, 4, 70, 0
6, 26130, Note_on_c, 4, 70, 127
6, 26130, Note_on_c, 4, 65, 127
6, 26139, Note_on_c, 4, 65, 0
6, 26139, Note_on_c, 4, 70, 0
6, 26160, Note_on_c, 4, 70, 127
6, 26160, Note_on_c, 4, 65, 127
6, 26168, Note_on_c, 4, 65, 0
6, 26169, Note_on_c, 4, 70, 0
6, 26190, Note_on_c, 4, 70, 127
6, 26190, Note_on_c, 4, 65, 127
6, 26197, Note_on_c, 4, 65, 0
6, 26199, Note_on_c, 4, 70, 0
6, 26220, Note_on_c, 4, 65, 127
6, 26220, Note_on_c, 4, 70, 127
6, 26228, Note_on_c, 4, 70, 0
6, 26230, Note_on_c, 4, 65, 0
6, 26250, Note_on_c, 4, 70, 127
6, 26250, Note_on_c, 4, 65, 127
6, 26259, Note_on_c, 4, 65, 0
6, 26260, Note_on_c, 4, 70, 0
6, 26280, Note_on_c, 4, 70, 127
6, 26280, Note_on_c, 4, 65, 127
6, 26289, Note_on_c, 4, 65, 0
6, 26289, Note_on_c, 4, 70, 0
6, 26310, Note_on_c, 4, 70, 127
6, 26310, Note_on_c, 4, 65, 127
6, 26319, Note_on_c, 4, 65, 0
6, 26320, Note_on_c, 4, 70, 0
6, 26340, Note_on_c, 4, 70, 127
6, 26340, Note_on_c, 4, 65, 127
6, 26348, Note_on_c, 4, 65, 0
6, 26349, Note_on_c, 4, 70, 0
6, 26370, Note_on_c, 4, 70, 127
6, 26370, Note_on_c, 4, 65, 127
6, 26376, Note_on_c, 4, 70, 0
6, 26378, Note_on_c, 4, 65, 0
6, 26400, Note_on_c, 4, 65, 127
6, 26400, Note_on_c, 4, 68, 127
6, 26408, Note_on_c, 4, 68, 0
6, 26408, Note_on_c, 4, 65, 0
6, 26430, Note_on_c, 4, 68, 127
6, 26430, Note_on_c, 4, 65, 127
6, 26436, Note_on_c, 4, 65, 0
6, 26438, Note_on_c, 4, 68, 0
6, 26460, Note_on_c, 4, 68, 127
6, 26460, Note_on_c, 4, 65, 127
6, 26469, Note_on_c, 4, 65, 0
6, 26469, Note_on_c, 4, 68, 0
6, 26490, Note_on_c, 4, 68, 127
6, 26490, Note_on_c, 4, 65, 127
6, 26499, Note_on_c, 4, 65, 0
6, 26499, Note_on_c, 4, 68, 0
6, 26520, Note_on_c, 4, 68, 127
6, 26520, Note_on_c, 4, 65, 127
6, 26529, Note_on_c, 4, 65, 0
6, 26531, Note_on_c, 4, 68, 0
6, 26550, Note_on_c, 4, 65, 127
6, 26550, Note_on_c, 4, 68, 127
6, 26559, Note_on_c, 4, 65, 0
6, 26560, Note_on_c, 4, 68, 0
6, 26580, Note_on_c, 4, 68, 127
6, 26580, Note_on_c, 4, 65, 127
6, 26588, Note_on_c, 4, 65, 0
6, 26589, Note_on_c, 4, 68, 0
6, 26610, Note_on_c, 4, 68, 127
6, 26610, Note_on_c, 4, 65, 127
6, 26619, Note_on_c, 4, 65, 0
6, 26619, Note_on_c, 4, 68, 0
6, 26640, Note_on_c, 4, 68, 127
6, 26640, Note_on_c, 4, 65, 127
6, 26650, Note_on_c, 4, 65, 0
6, 26651, Note_on_c, 4, 68, 0
6, 26670, Note_on_c, 4, 68, 127
6, 26670, Note_on_c, 4, 65, 127
6, 26679, Note_on_c, 4, 65, 0
6, 26679, Note_on_c, 4, 68, 0
6, 26700, Note_on_c, 4, 68, 127
6, 26700, Note_on_c, 4, 65, 127
6, 26709, Note_on_c, 4, 65, 0
6, 26709, Note_on_c, 4, 68, 0
6, 26730, Note_on_c, 4, 68, 127
6, 26730, Note_on_c, 4, 65, 127
6, 26738, Note_on_c, 4, 65, 0
6, 26740, Note_on_c, 4, 68, 0
6, 26760, Note_on_c, 4, 65, 127
6, 26760, Note_on_c, 4, 68, 127
6, 26770, Note_on_c, 4, 65, 0
6, 26771, Note_on_c, 4, 68, 0
6, 26790, Note_on_c, 4, 68, 127
6, 26790, Note_on_c, 4, 65, 127
6, 26798, Note_on_c, 4, 65, 0
6, 26801, Note_on_c, 4, 68, 0
6, 26820, Note_on_c, 4, 68, 127
6, 26820, Note_on_c, 4, 65, 127
6, 26829, Note_on_c, 4, 68, 0
6, 26830, Note_on_c, 4, 65, 0
6, 26850, Note_on_c, 4, 68, 127
6, 26850, Note_on_c, 4, 65, 127
6, 26858, Note_on_c, 4, 65, 0
6, 26860, Note_on_c, 4, 68, 0
6, 26880, Note_on_c, 4, 65, 127
6, 26880, Note_on_c, 4, 70, 127
6, 26890, Note_on_c, 4, 65, 0
6, 26891, Note_on_c, 4, 70, 0
6, 26910, Note_on_c, 4, 65, 127
6, 26910, Note_on_c, 4, 70, 127
6, 26918, Note_on_c, 4, 65, 0
6, 26919, Note_on_c, 4, 70, 0
6, 26940, Note_on_c, 4, 70, 127
6, 26940, Note_on_c, 4, 65, 127
6, 26948, Note_on_c, 4, 70, 0
6, 26949, Note_on_c, 4, 65, 0
6, 26970, Note_on_c, 4, 70, 127
6, 26970, Note_on_c, 4, 65, 127
6, 26980, Note_on_c, 4, 65, 0
6, 26981, Note_on_c, 4, 70, 0
6, 27000, Note_on_c, 4, 65, 127
6, 27000, Note_on_c, 4, 70, 127
6, 27009, Note_on_c, 4, 70, 0
6, 27010, Note_on_c, 4, 65, 0
6, 27030, Note_on_c, 4, 70, 127
6, 27030, Note_on_c, 4, 65, 127
6, 27038, Note_on_c, 4, 65, 0
6, 27039, Note_on_c, 4, 70, 0
6, 27060, Note_on_c, 4, 70, 127
6, 27060, Note_on_c, 4, 65, 127
6, 27069, Note_on_c, 4, 65, 0
6, 27069, Note_on_c, 4, 70, 0
6, 27090, Note_on_c, 4, 70, 127
6, 27090, Note_on_c, 4, 65, 127
6, 27099, Note_on_c, 4, 65, 0
6, 27099, Note_on_c, 4, 70, 0
6, 27120, Note_on_c, 4, 70, 127
6, 27120, Note_on_c, 4, 65, 127
6, 27128, Note_on_c, 4, 65, 0
6, 27129, Note_on_c, 4, 70, 0
6, 27150, Note_on_c, 4, 70, 127
6, 27150, Note_on_c, 4, 65, 127
6, 27157, Note_on_c, 4, 65, 0
6, 27159, Note_on_c, 4, 70, 0
6, 27180, Note_on_c, 4, 65, 127
6, 27180, Note_on_c, 4, 70, 127
6, 27188, Note_on_c, 4, 70, 0
6, 27190, Note_on_c, 4, 65, 0
6, 27210, Note_on_c, 4, 70, 127
6, 27210, Note_on_c, 4, 65, 127
6, 27219, Note_on_c, 4, 65, 0
6, 27220, Note_on_c, 4, 70, 0
6, 27240, Note_on_c, 4, 70, 127
6, 27240, Note_on_c, 4, 65, 127
6, 27249, Note_on_c, 4, 65, 0
6, 27249, Note_on_c, 4, 70, 0
6, 27270, Note_on_c, 4, 70, 127
6, 27270, Note_on_c, 4, 65, 127
6, 27279, Note_on_c, 4, 65, 0
6, 27280, Note_on_c, 4, 70, 0
6, 27300, Note_on_c, 4, 70, 127
6, 27300, Note_on_c, 4, 65, 127
6, 27308, Note_on_c, 4, 65, 0
6, 27309, Note_on_c, 4, 70, 0
6, 27330, Note_on_c, 4, 70, 127
6, 27330, Note_on_c, 4, 65, 127
6, 27336, Note_on_c, 4, 70, 0
6, 27338, Note_on_c, 4, 65, 0
6, 27360, Note_on_c, 4, 65, 127
6, 27360, Note_on_c, 4, 68, 127
6, 27368, Note_on_c, 4, 68, 0
6, 27368, Note_on_c, 4, 65, 0
6, 27390, Note_on_c, 4, 68, 127
6, 27390, Note_on_c, 4, 65, 127
6, 27396, Note_on_c, 4, 65, 0
6, 27398, Note_on_c, 4, 68, 0
6, 27420, Note_on_c, 4, 68, 127
6, 27420, Note_on_c, 4, 65, 127
6, 27429, Note_on_c, 4, 65, 0
6, 27429, Note_on_c, 4, 68, 0
6, 27450, Note_on_c, 4, 68, 127
6, 27450, Note_on_c, 4, 65, 127
6, 27459, Note_on_c, 4, 65, 0
6, 27459, Note_on_c, 4, 68, 0
6, 27480, Note_on_c, 4, 68, 127
6, 27480, Note_on_c, 4, 65, 127
6, 27489, Note_on_c, 4, 65, 0
6, 27491, Note_on_c, 4, 68, 0
6, 27510, Note_on_c, 4, 65, 127
6, 27510, Note_on_c, 4, 68, 127
6, 27519, Note_on_c, 4, 65, 0
6, 27520, Note_on_c, 4, 68, 0
6, 27540, Note_on_c, 4, 68, 127
6, 27540, Note_on_c, 4, 65, 127
6, 27548, Note_on_c, 4, 65, 0
6, 27549, Note_on_c, 4, 68, 0
6, 27570, Note_on_c, 4, 68, 127
6, 27570, Note_on_c, 4, 65, 127
6, 27579, Note_on_c, 4, 65, 0
6, 27579, Note_on_c, 4, 68, 0
6, 27600, Note_on_c, 4, 68, 127
6, 27600, Note_on_c, 4, 65, 127
6, 27610, Note_on_c, 4, 65, 0
6, 27611, Note_on_c, 4, 68, 0
6, 27630, Note_on_c, 4, 68, 127
6, 27630, Note_on_c, 4, 65, 127
6, 27639, Note_on_c, 4, 65, 0
6, 27639, Note_on_c, 4, 68, 0
6, 27660, Note_on_c, 4, 68, 127
6, 27660, Note_on_c, 4, 65, 127
6, 27669, Note_on_c, 4, 65, 0
6, 27669, Note_on_c, 4, 68, 0
6, 27690, Note_on_c, 4, 68, 127
6, 27690, Note_on_c, 4, 65, 127
6, 27698, Note_on_c, 4, 65, 0
6, 27700, Note_on_c, 4, 68, 0
6, 27720, Note_on_c, 4, 65, 127
6, 27720, Note_on_c, 4, 68, 127
6, 27730, Note_on_c, 4, 65, 0
6, 27731, Note_on_c, 4, 68, 0
6, 27750, Note_on_c, 4, 68, 127
6, 27750, Note_on_c, 4, 65, 127
6, 27758, Note_on_c, 4, 65, 0
6, 27761, Note_on_c, 4, 68, 0
6, 27780, Note_on_c, 4, 68, 127
6, 27780, Note_on_c, 4, 65, 127
6, 27789, Note_on_c, 4, 68, 0
6, 27790, Note_on_c, 4, 65, 0
6, 27810, Note_on_c, 4, 68, 127
6, 27810, Note_on_c, 4, 65, 127
6, 27818, Note_on_c, 4, 65, 0
6, 27820, Note_on_c, 4, 68, 0
6, 27840, Note_on_c, 4, 65, 127
6, 27840, Note_on_c, 4, 70, 127
6, 27850, Note_on_c, 4, 65, 0
6, 27851, Note_on_c, 4, 70, 0
6, 27870, Note_on_c, 4, 65, 127
6, 27870, Note_on_c, 4, 70, 127
6, 27878, Note_on_c, 4, 65, 0
6, 27879, Note_on_c, 4, 70, 0
6, 27900, Note_on_c, 4, 70, 127
6, 27900, Note_on_c, 4, 65, 127
6, 27908, Note_on_c, 4, 70, 0
6, 27909, Note_on_c, 4, 65, 0
6, 27930, Note_on_c, 4, 70, 127
6, 27930, Note_on_c, 4, 65, 127
6, 27940, Note_on_c, 4, 65, 0
6, 27941, Note_on_c, 4, 70, 0
6, 27960, Note_on_c, 4, 65, 127
6, 27960, Note_on_c, 4, 70, 127
6, 27969, Note_on_c, 4, 70, 0
6, 27970, Note_on_c, 4, 65, 0
6, 27990, Note_on_c, 4, 70, 127
6, 27990, Note_on_c, 4, 65, 127
6, 27998, Note_on_c, 4, 65, 0
6, 27999, Note_on_c, 4, 70, 0
6, 28020, Note_on_c, 4, 70, 127
6, 28020, Note_on_c, 4, 65, 127
6, 28029, Note_on_c, 4, 65, 0
6, 28029, Note_on_c, 4, 70, 0
6, 28050, Note_on_c, 4, 70, 127
6, 28050, Note_on_c, 4, 65, 127
6, 28059, Note_on_c, 4, 65, 0
6, 28059, Note_on_c, 4, 70, 0
6, 28080, Note_on_c, 4, 70, 127
6, 28080, Note_on_c, 4, 65, 127
6, 28088, Note_on_c, 4, 65, 0
6, 28089, Note_on_c, 4, 70, 0
6, 28110, Note_on_c, 4, 70, 127
6, 28110, Note_on_c, 4, 65, 127
6, 28117, Note_on_c, 4, 65, 0
6, 28119, Note_on_c, 4, 70, 0
6, 28140, Note_on_c, 4, 65, 127
6, 28140, Note_on_c, 4, 70, 127
6, 28148, Note_on_c, 4, 70, 0
6, 28150, Note_on_c, 4, 65, 0
6, 28170, Note_on_c, 4, 70, 127
6, 28170, Note_on_c, 4, 65, 127
6, 28179, Note_on_c, 4, 65, 0
6, 28180, Note_on_c, 4, 70, 0
6, 28200, Note_on_c, 4, 70, 127
6, 28200, Note_on_c, 4, 65, 127
6, 28209, Note_on_c, 4, 65, 0
6, 28209, Note_on_c, 4, 70, 0
6, 28230, Note_on_c, 4, 70, 127
6, 28230, Note_on_c, 4, 65, 127
6, 28239, Note_on_c, 4, 65, 0
6, 28240, Note_on_c, 4, 70, 0
6, 28260, Note_on_c, 4, 70, 127
6, 28260, Note_on_c, 4, 65, 127
6, 28268, Note_on_c, 4, 65, 0
6, 28269, Note_on_c, 4, 70, 0
6, 28290, Note_on_c, 4, 70, 127
6, 28290, Note_on_c, 4, 65, 127
6, 28296, Note_on_c, 4, 70, 0
6, 28298, Note_on_c, 4, 65, 0
6, 28320, Note_on_c, 4, 65, 127
6, 28320, Note_on_c, 4, 68, 127
6, 28328, Note_on_c, 4, 68, 0
6, 28328, Note_on_c, 4, 65, 0
6, 28350, Note_on_c, 4, 68, 127
6, 28350, Note_on_c, 4, 65, 127
6, 28356, Note_on_c, 4, 65, 0
6, 28358, Note_on_c, 4, 68, 0
6, 28380, Note_on_c, 4, 68, 127
6, 28380, Note_on_c, 4, 65, 127
6, 28389, Note_on_c, 4, 65, 0
6, 28389, Note_on_c, 4, 68, 0
6, 28410, Note_on_c, 4, 68, 127
6, 28410, Note_on_c, 4, 65, 127
6, 28419, Note_on_c, 4, 65, 0
6, 28419, Note_on_c, 4, 68, 0
6, 28440, Note_on_c, 4, 68, 127
6, 28440, Note_on_c, 4, 65, 127
6, 28449, Note_on_c, 4, 65, 0
6, 28451, Note_on_c, 4, 68, 0
6, 28470, Note_on_c, 4, 65, 127
6, 28470, Note_on_c, 4, 68, 127
6, 28479, Note_on_c, 4, 65, 0
6, 28480, Note_on_c, 4, 68, 0
6, 28500, Note_on_c, 4, 68, 127
6, 28500, Note_on_c, 4, 65, 127
6, 28508, Note_on_c, 4, 65, 0
6, 28509, Note_on_c, 4, 68, 0
6, 28530, Note_on_c, 4, 68, 127
6, 28530, Note_on_c, 4, 65, 127
6, 28539, Note_on_c, 4, 65, 0
6, 28539, Note_on_c, 4, 68, 0
6, 28560, Note_on_c, 4, 68, 127
6, 28560, Note_on_c, 4, 65, 127
6, 28570, Note_on_c, 4, 65, 0
6, 28571, Note_on_c, 4, 68, 0
6, 28590, Note_on_c, 4, 68, 127
6, 28590, Note_on_c, 4, 65, 127
6, 28599, Note_on_c, 4, 65, 0
6, 28599, Note_on_c, 4, 68, 0
6, 28620, Note_on_c, 4, 68, 127
6, 28620, Note_on_c, 4, 65, 127
6, 28629, Note_on_c, 4, 65, 0
6, 28629, Note_on_c, 4, 68, 0
6, 28650, Note_on_c, 4, 68, 127
6, 28650, Note_on_c, 4, 65, 127
6, 28658, Note_on_c, 4, 65, 0
6, 28660, Note_on_c, 4, 68, 0
6, 28680, Note_on_c, 4, 65, 127
6, 28680, Note_on_c, 4, 68, 127
6, 28690, Note_on_c, 4, 65, 0
6, 28691, Note_on_c, 4, 68, 0
6, 28710, Note_on_c, 4, 68, 127
6, 28710, Note_on_c, 4, 65, 127
6, 28718, Note_on_c, 4, 65, 0
6, 28721, Note_on_c, 4, 68, 0
6, 28740, Note_on_c, 4, 68, 127
6, 28740, Note_on_c, 4, 65, 127
6, 28749, Note_on_c, 4, 68, 0
6, 28750, Note_on_c, 4, 65, 0
6, 28770, Note_on_c, 4, 68, 127
6, 28770, Note_on_c, 4, 65, 127
6, 28778, Note_on_c, 4, 65, 0
6, 28780, Note_on_c, 4, 68, 0
6, 28800, Note_on_c, 4, 65, 127
6, 28800, Note_on_c, 4, 70, 127
6, 28810, Note_on_c, 4, 65, 0
6, 28811, Note_on_c, 4, 70, 0
6, 28830, Note_on_c, 4, 65, 127
6, 28830, Note_on_c, 4, 70, 127
6, 28838, Note_on_c, 4, 65, 0
6, 28839, Note_on_c, 4, 70, 0
6, 28860, Note_on_c, 4, 70, 127
6, 28860, Note_on_c, 4, 65, 127
6, 28868, Note_on_c, 4, 70, 0
6, 28869, Note_on_c, 4, 65, 0
6, 28890, Note_on_c, 4, 70, 127
6, 28890, Note_on_c, 4, 65, 127
6, 28900, Note_on_c, 4, 65, 0
6, 28901, Note_on_c, 4, 70, 0
6, 28920, Note_on_c, 4, 65, 127
6, 28920, Note_on_c, 4, 70, 127
6, 28929, Note_on_c, 4, 70, 0
6, 28930, Note_on_c, 4, 65, 0
6, 28950, Note_on_c, 4, 70, 127
6, 28950, Note_on_c, 4, 65, 127
6, 28958, Note_on_c, 4, 65, 0
6, 28959, Note_on_c, 4, 70, 0
6, 28980, Note_on_c, 4, 70, 127
6, 28980, Note_on_c, 4, 65, 127
6, 28989, Note_on_c, 4, 65, 0
6, 28989, Note_on_c, 4, 70, 0
6, 29010, Note_on_c, 4, 70, 127
6, 29010, Note_on_c, 4, 65, 127
6, 29019, Note_on_c, 4, 65, 0
6, 29019, Note_on_c, 4, 70, 0
6, 29040, Note_on_c, 4, 70, 127
6, 29040, Note_on_c, 4, 65, 127
6, 29048, Note_on_c, 4, 65, 0
6, 29049, Note_on_c, 4, 70, 0
6, 29070, Note_on_c, 4, 70, 127
6, 29070, Note_on_c, 4, 65, 127
6, 29077, Note_on_c, 4, 65, 0
6, 29079, Note_on_c, 4, 70, 0
6, 29100, Note_on_c, 4, 65, 127
6, 29100, Note_on_c, 4, 70, 127
6, 29108, Note_on_c, 4, 70, 0
6, 29110, Note_on_c, 4, 65, 0
6, 29130, Note_on_c, 4, 70, 127
6, 29130, Note_on_c, 4, 65, 127
6, 29139, Note_on_c, 4, 65, 0
6, 29140, Note_on_c, 4, 70, 0
6, 29160, Note_on_c, 4, 70, 127
6, 29160, Note_on_c, 4, 65, 127
6, 29169, Note_on_c, 4, 65, 0
6, 29169, Note_on_c, 4, 70, 0
6, 29190, Note_on_c, 4, 70, 127
6, 29190, Note_on_c, 4, 65, 127
6, 29199, Note_on_c, 4, 65, 0
6, 29200, Note_on_c, 4, 70, 0
6, 29220, Note_on_c, 4, 70, 127
6, 29220, Note_on_c, 4, 65, 127
6, 29228, Note_on_c, 4, 65, 0
6, 29229, Note_on_c, 4, 70, 0
6, 29250, Note_on_c, 4, 70, 127
6, 29250, Note_on_c, 4, 65, 127
6, 29256, Note_on_c, 4, 70, 0
6, 29258, Note_on_c, 4, 65, 0
6, 44640, Note_on_c, 4, 65, 127
6, 44640, Note_on_c, 4, 68, 127
6, 44648, Note_on_c, 4, 68, 0
6, 44648, Note_on_c, 4, 65, 0
6, 44670, Note_on_c, 4, 68, 127
6, 44670, Note_on_c, 4, 65, 127
6, 44676, Note_on_c, 4, 65, 0
6, 44678, Note_on_c, 4, 68, 0
6, 44700, Note_on_c, 4, 68, 127
6, 44700, Note_on_c, 4, 65, 127
6, 44709, Note_on_c, 4, 65, 0
6, 44709, Note_on_c, 4, 68, 0
6, 44730, Note_on_c, 4, 68, 127
6, 44730, Note_on_c, 4, 65, 127
6, 44739, Note_on_c, 4, 65, 0
6, 44739, Note_on_c, 4, 68, 0
6, 44760, Note_on_c, 4, 68, 127
6, 44760, Note_on_c, 4, 65, 127
6, 44769, Note_on_c, 4, 65, 0
6, 44771, Note_on_c, 4, 68, 0
6, 44790, Note_on_c, 4, 65, 127
6, 44790, Note_on_c, 4, 68, 127
6, 44799, Note_on_c, 4, 65, 0
6, 44800, Note_on_c, 4, 68, 0
6, 44820, Note_on_c, 4, 68, 127
6, 44820, Note_on_c, 4, 65, 127
6, 44828, Note_on_c, 4, 65, 0
6, 44829, Note_on_c, 4, 68, 0
6, 44850, Note_on_c, 4, 68, 127
6, 44850, Note_on_c, 4, 65, 127
6, 44859, Note_on_c, 4, 65, 0
6, 44859, Note_on_c, 4, 68, 0
6, 44880, Note_on_c, 4, 68, 127
6, 44880, Note_on_c, 4, 65, 127
6, 44890, Note_on_c, 4, 65, 0
6, 44891, Note_on_c, 4, 68, 0
6, 44910, Note_on_c, 4, 68, 127
6, 44910, Note_on_c, 4, 65, 127
6, 44919, Note_on_c, 4, 65, 0
6, 44919, Note_on_c, 4, 68, 0
6, 44940, Note_on_c, 4, 68, 127
6, 44940, Note_on_c, 4, 65, 127
6, 44949, Note_on_c, 4, 65, 0
6, 44949, Note_on_c, 4, 68, 0
6, 44970, Note_on_c, 4, 68, 127
6, 44970, Note_on_c, 4, 65, 127
6, 44978, Note_on_c, 4, 65, 0
6, 44980, Note_on_c, 4, 68, 0
6, 45000, Note_on_c, 4, 65, 127
6, 45000, Note_on_c, 4, 68, 127
6, 45010, Note_on_c, 4, 65, 0
6, 45011, Note_on_c, 4, 68, 0
6, 45030, Note_on_c, 4, 68, 127
6, 45030, Note_on_c, 4, 65, 127
6, 45038, Note_on_c, 4, 65, 0
6, 45041, Note_on_c, 4, 68, 0
6, 45060, Note_on_c, 4, 68, 127
6, 45060, Note_on_c, 4, 65, 127
6, 45069, Note_on_c, 4, 68, 0
6, 45070, Note_on_c, 4, 65, 0
6, 45090, Note_on_c, 4, 68, 127
6, 45090, Note_on_c, 4, 65, 127
6, 45098, Note_on_c, 4, 65, 0
6, 45100, Note_on_c, 4, 68, 0
6, 45120, Note_on_c, 4, 65, 127
6, 45120, Note_on_c, 4, 70, 127
6, 45130, Note_on_c, 4, 65, 0
6, 45131, Note_on_c, 4, 70, 0
6, 45150, Note_on_c, 4, 65, 127
6, 45150, Note_on_c, 4, 70, 127
6, 45158, Note_on_c, 4, 65, 0
6, 45159, Note_on_c, 4, 70, 0
6, 45180, Note_on_c, 4, 70, 127
6, 45180, Note_on_c, 4, 65, 127
6, 45188, Note_on_c, 4, 70, 0
6, 45189, Note_on_c, 4, 65, 0
6, 45210, Note_on_c, 4, 70, 127
6, 45210, Note_on_c, 4, 65, 127
6, 45220, Note_on_c, 4, 65, 0
6, 45221, Note_on_c, 4, 70, 0
6, 45240, Note_on_c, 4, 65, 127
6, 45240, Note_on_c, 4, 70, 127
6, 45249, Note_on_c, 4, 70, 0
6, 45250, Note_on_c, 4, 65, 0
6, 45270, Note_on_c, 4, 70, 127
6, 45270, Note_on_c, 4, 65, 127
6, 45278, Note_on_c, 4, 65, 0
6, 45279, Note_on_c, 4, 70, 0
6, 45300, Note_on_c, 4, 70, 127
6, 45300, Note_on_c, 4, 65, 127
6, 45309, Note_on_c, 4, 65, 0
6, 45309, Note_on_c, 4, 70, 0
6, 45330, Note_on_c, 4, 70, 127
6, 45330, Note_on_c, 4, 65, 127
6, 45339, Note_on_c, 4, 65, 0
6, 45339, Note_on_c, 4, 70, 0
6, 45360, Note_on_c, 4, 70, 127
6, 45360, Note_on_c, 4, 65, 127
6, 45368, Note_on_c, 4, 65, 0
6, 45369, Note_on_c, 4, 70, 0
6, 45390, Note_on_c, 4, 70, 127
6, 45390, Note_on_c, 4, 65, 127
6, 45397, Note_on_c, 4, 65, 0
6, 45399, Note_on_c, 4, 70, 0
6, 45420, Note_on_c, 4, 65, 127
6, 45420, Note_on_c, 4, 70, 127
6, 45428, Note_on_c, 4, 70, 0
6, 45430, Note_on_c, 4, 65, 0
6, 45450, Note_on_c, 4, 70, 127
6, 45450, Note_on_c, 4, 65, 127
6, 45459, Note_on_c, 4, 65, 0
6, 45460, Note_on_c, 4, 70, 0
6, 45480, Note_on_c, 4, 70, 127
6, 45480, Note_on_c, 4, 65, 127
6, 45489, Note_on_c, 4, 65, 0
6, 45489, Note_on_c, 4, 70, 0
6, 45510, Note_on_c, 4, 70, 127
6, 45510, Note_on_c, 4, 65, 127
6, 45519, Note_on_c, 4, 65, 0
6, 45520, Note_on_c, 4, 70, 0
6, 45540, Note_on_c, 4, 70, 127
6, 45540, Note_on_c, 4, 65, 127
6, 45548, Note_on_c, 4, 65, 0
6, 45549, Note_on_c, 4, 70, 0
6, 45570, Note_on_c, 4, 70, 127
6, 45570, Note_on_c, 4, 65, 127
6, 45576, Note_on_c, 4, 70, 0
6, 45578, Note_on_c, 4, 65, 0
6, 45600, Note_on_c, 4, 65, 127
6, 45600, Note_on_c, 4, 68, 127
6, 45608, Note_on_c, 4, 68, 0
6, 45608, Note_on_c, 4, 65, 0
6, 45630, Note_on_c, 4, 68, 127
6, 45630, Note_on_c, 4, 65, 127
6, 45636, Note_on_c, 4, 65, 0
6, 45638, Note_on_c, 4, 68, 0
6, 45660, Note_on_c, 4, 68, 127
6, 45660, Note_on_c, 4, 65, 127
6, 45669, Note_on_c, 4, 65, 0
6, 45669, Note_on_c, 4, 68, 0
6, 45690, Note_on_c, 4, 68, 127
6, 45690, Note_on_c, 4, 65, 127
6, 45699, Note_on_c, 4, 65, 0
6, 45699, Note_on_c, 4, 68, 0
6, 45720, Note_on_c, 4, 68, 127
6, 45720, Note_on_c, 4, 65, 127
6, 45729, Note_on_c, 4, 65, 0
6, 45731, Note_on_c, 4, 68, 0
6, 45750, Note_on_c, 4, 65, 127
6, 45750, Note_on_c, 4, 68, 127
6, 45759, Note_on_c, 4, 65, 0
6, 45760, Note_on_c, 4, 68, 0
6, 45780, Note_on_c, 4, 68, 127
6, 45780, Note_on_c, 4, 65, 127
6, 45788, Note_on_c, 4, 65, 0
6, 45789, Note_on_c, 4, 68, 0
6, 45810, Note_on_c, 4, 68, 127
6, 45810, Note_on_c, 4, 65, 127
6, 45819, Note_on_c, 4, 65, 0
6, 45819, Note_on_c, 4, 68, 0
6, 45840, Note_on_c, 4, 68, 127
6, 45840, Note_on_c, 4, 65, 127
6, 45850, Note_on_c, 4, 65, 0
6, 45851, Note_on_c, 4, 68, 0
6, 45870, Note_on_c, 4, 68, 127
6, 45870, Note_on_c, 4, 65, 127
6, 45879, Note_on_c, 4, 65, 0
6, 45879, Note_on_c, 4, 68, 0
6, 45900, Note_on_c, 4, 68, 127
6, 45900, Note_on_c, 4, 65, 127
6, 45909, Note_on_c, 4, 65, 0
6, 45909, Note_on_c, 4, 68, 0
6, 45930, Note_on_c, 4, 68, 127
6, 45930, Note_on_c, 4, 65, 127
6, 45938, Note_on_c, 4, 65, 0
6, 45940, Note_on_c, 4, 68, 0
6, 45960, Note_on_c, 4, 65, 127
6, 45960, Note_on_c, 4, 68, 127
6, 45970, Note_on_c, 4, 65, 0
6, 45971, Note_on_c, 4, 68, 0
6, 45990, Note_on_c, 4, 68, 127
6, 45990, Note_on_c, 4, 65, 127
6, 45998, Note_on_c, 4, 65, 0
6, 46001, Note_on_c, 4, 68, 0
6, 46020, Note_on_c, 4, 68, 127
6, 46020, Note_on_c, 4, 65, 127
6, 46029, Note_on_c, 4, 68, 0
6, 46030, Note_on_c, 4, 65, 0
6, 46050, Note_on_c, 4, 68, 127
6, 46050, Note_on_c, 4, 65, 127
6, 46058, Note_on_c, 4, 65, 0
6, 46060, Note_on_c, 4, 68, 0
6, 46080, Note_on_c, 4, 65, 127
6, 46080, Note_on_c, 4, 70, 127
6, 46090, Note_on_c, 4, 65, 0
6, 46091, Note_on_c, 4, 70, 0
6, 46110, Note_on_c, 4, 65, 127
6, 46110, Note_on_c, 4, 70, 127
6, 46118, Note_on_c, 4, 65, 0
6, 46119, Note_on_c, 4, 70, 0
6, 46140, Note_on_c, 4, 70, 127
6, 46140, Note_on_c, 4, 65, 127
6, 46148, Note_on_c, 4, 70, 0
6, 46149, Note_on_c, 4, 65, 0
6, 46170, Note_on_c, 4, 70, 127
6, 46170, Note_on_c, 4, 65, 127
6, 46180, Note_on_c, 4, 65, 0
6, 46181, Note_on_c, 4, 70, 0
6, 46200, Note_on_c, 4, 65, 127
6, 46200, Note_on_c, 4, 70, 127
6, 46209, Note_on_c, 4, 70, 0
6, 46210, Note_on_c, 4, 65, 0
6, 46230, Note_on_c, 4, 70, 127
6, 46230, Note_on_c, 4, 65, 127
6, 46238, Note_on_c, 4, 65, 0
6, 46239, Note_on_c, 4, 70, 0
6, 46260, Note_on_c, 4, 70, 127
6, 46260, Note_on_c, 4, 65, 127
6, 46269, Note_on_c, 4, 65, 0
6, 46269, Note_on_c, 4, 70, 0
6, 46290, Note_on_c, 4, 70, 127
6, 46290, Note_on_c, 4, 65, 127
6, 46299, Note_on_c, 4, 65, 0
6, 46299, Note_on_c, 4, 70, 0
6, 46320, Note_on_c, 4, 70, 127
6, 46320, Note_on_c, 4, 65, 127
6, 46328, Note_on_c, 4, 65, 0
6, 46329, Note_on_c, 4, 70, 0
6, 46350, Note_on_c, 4, 70, 127
6, 46350, Note_on_c, 4, 65, 127
6, 46357, Note_on_c, 4, 65, 0
6, 46359, Note_on_c, 4, 70, 0
6, 46380, Note_on_c, 4, 65, 127
6, 46380, Note_on_c, 4, 70, 127
6, 46388, Note_on_c, 4, 70, 0
6, 46390, Note_on_c, 4, 65, 0
6, 46410, Note_on_c, 4, 70, 127
6, 46410, Note_on_c, 4, 65, 127
6, 46419, Note_on_c, 4, 65, 0
6, 46420, Note_on_c, 4, 70, 0
6, 46440, Note_on_c, 4, 70, 127
6, 46440, Note_on_c, 4, 65, 127
6, 46449, Note_on_c, 4, 65, 0
6, 46449, Note_on_c, 4, 70, 0
6, 46470, Note_on_c, 4, 70, 127
6, 46470, Note_on_c, 4, 65, 127
6, 46479, Note_on_c, 4, 65, 0
6, 46480, Note_on_c, 4, 70, 0
6, 46500, Note_on_c, 4, 70, 127
6, 46500, Note_on_c, 4, 65, 127
6, 46508, Note_on_c, 4, 65, 0
6, 46509, Note_on_c, 4, 70, 0
6, 46530, Note_on_c, 4, 70, 127
6, 46530, Note_on_c, 4, 65, 127
6, 46536, Note_on_c, 4, 70, 0
6, 46538, Note_on_c, 4, 65, 0
6, 46560, Note_on_c, 4, 65, 127
6, 46560, Note_on_c, 4, 68, 127
6, 46568, Note_on_c, 4, 68, 0
6, 46568, Note_on_c, 4, 65, 0
6, 46590, Note_on_c, 4, 68, 127
6, 46590, Note_on_c, 4, 65, 127
6, 46596, Note_on_c, 4, 65, 0
6, 46598, Note_on_c, 4, 68, 0
6, 46620, Note_on_c, 4, 68, 127
6, 46620, Note_on_c, 4, 65, 127
6, 46629, Note_on_c, 4, 65, 0
6, 46629, Note_on_c, 4, 68, 0
6, 46650, Note_on_c, 4, 68, 127
6, 46650, Note_on_c, 4, 65, 127
6, 46659, Note_on_c, 4, 65, 0
6, 46659, Note_on_c, 4, 68, 0
6, 46680, Note_on_c, 4, 68, 127
6, 46680, Note_on_c, 4, 65, 127
6, 46689, Note_on_c, 4, 65, 0
6, 46691, Note_on_c, 4, 68, 0
6, 46710, Note_on_c, 4, 65, 127
6, 46710, Note_on_c, 4, 68, 127
6, 46719, Note_on_c, 4, 65, 0
6, 46720, Note_on_c, 4, 68, 0
6, 46740, Note_on_c, 4, 68, 127
6, 46740, Note_on_c, 4, 65, 127
6, 46748, Note_on_c, 4, 65, 0
6, 46749, Note_on_c, 4, 68, 0
6, 46770, Note_on_c, 4, 68, 127
6, 46770, Note_on_c, 4, 65, 127
6, 46779, Note_on_c, 4, 65, 0
6, 46779, Note_on_c, 4, 68, 0
6, 46800, Note_on_c, 4, 68, 127
6, 46800, Note_on_c, 4, 65, 127
6, 46810, Note_on_c, 4, 65, 0
6, 46811, Note_on_c, 4, 68, 0
6, 46830, Note_on_c, 4, 68, 127
6, 46830, Note_on_c, 4, 65, 127
6, 46839, Note_on_c, 4, 65, 0
6, 46839, Note_on_c, 4, 68, 0
6, 46860, Note_on_c, 4, 68, 127
6, 46860, Note_on_c, 4, 65, 127
6, 46869, Note_on_c, 4, 65, 0
6, 46869, Note_on_c, 4, 68, 0
6, 46890, Note_on_c, 4, 68, 127
6, 46890, Note_on_c, 4, 65, 127
6, 46898, Note_on_c, 4, 65, 0
6, 46900, Note_on_c, 4, 68, 0
6, 46920, Note_on_c, 4, 65, 127
6, 46920, Note_on_c, 4, 68, 127
6, 46930, Note_on_c, 4, 65, 0
6, 46931, Note_on_c, 4, 68, 0
6, 46950, Note_on_c, 4, 68, 127
6, 46950, Note_on_c, 4, 65, 127
6, 46958, Note_on_c, 4, 65, 0
6, 46961, Note_on_c, 4, 68, 0
6, 46980, Note_on_c, 4, 68, 127
6, 46980, Note_on_c, 4, 65, 127
6, 46989, Note_on_c, 4, 68, 0
6, 46990, Note_on_c, 4, 65, 0
6, 47010, Note_on_c, 4, 68, 127
6, 47010, Note_on_c, 4, 65, 127
6, 47018, Note_on_c, 4, 65, 0
6, 47020, Note_on_c, 4, 68, 0
6, 47040, Note_on_c, 4, 65, 127
6, 47040, Note_on_c, 4, 70, 127
6, 47050, Note_on_c, 4, 65, 0
6, 47051, Note_on_c, 4, 70, 0
6, 47070, Note_on_c, 4, 65, 127
6, 47070, Note_on_c, 4, 70, 127
6, 47078, Note_on_c, 4, 65, 0
6, 47079, Note_on_c, 4, 70, 0
6, 47100, Note_on_c, 4, 70, 127
6, 47100, Note_on_c, 4, 65, 127
6, 47108, Note_on_c, 4, 70, 0
6, 47109, Note_on_c, 4, 65, 0
6, 47130, Note_on_c, 4, 70, 127
6, 47130, Note_on_c, 4, 65, 127
6, 47140, Note_on_c, 4, 65, 0
6, 47141, Note_on_c, 4, 70, 0
6, 47160, Note_on_c, 4, 65, 127
6, 47160, Note_on_c, 4, 70, 127
6, 47169, Note_on_c, 4, 70, 0
6, 47170, Note_on_c, 4, 65, 0
6, 47190, Note_on_c, 4, 70, 127
6, 47190, Note_on_c, 4, 65, 127
6, 47198, Note_on_c, 4, 65, 0
6, 47199, Note_on_c, 4, 70, 0
6, 47220, Note_on_c, 4, 70, 127
6, 47220, Note_on_c, 4, 65, 127
6, 47229, Note_on_c, 4, 65, 0
6, 47229, Note_on_c, 4, 70, 0
6, 47250, Note_on_c, 4, 70, 127
6, 47250, Note_on_c, 4, 65, 127
6, 47259, Note_on_c, 4, 65, 0
6, 47259, Note_on_c, 4, 70, 0
6, 47280, Note_on_c, 4, 70, 127
6, 47280, Note_on_c, 4, 65, 127
6, 47288, Note_on_c, 4, 65, 0
6, 47289, Note_on_c, 4, 70, 0
6, 47310, Note_on_c, 4, 70, 127
6, 47310, Note_on_c, 4, 65, 127
6, 47317, Note_on_c, 4, 65, 0
6, 47319, Note_on_c, 4, 70, 0
6, 47340, Note_on_c, 4, 65, 127
6, 47340, Note_on_c, 4, 70, 127
6, 47348, Note_on_c, 4, 70, 0
6, 47350, Note_on_c, 4, 65, 0
6, 47370, Note_on_c, 4, 70, 127
6, 47370, Note_on_c, 4, 65, 127
6, 47379, Note_on_c, 4, 65, 0
6, 47380, Note_on_c, 4, 70, 0
6, 47400, Note_on_c, 4, 70, 127
6, 47400, Note_on_c, 4, 65, 127
6, 47409, Note_on_c, 4, 65, 0
6, 47409, Note_on_c, 4, 70, 0
6, 47430, Note_on_c, 4, 70, 127
6, 47430, Note_on_c, 4, 65, 127
6, 47439, Note_on_c, 4, 65, 0
6, 47440, Note_on_c, 4, 70, 0
6, 47460, Note_on_c, 4, 70, 127
6, 47460, Note_on_c, 4, 65, 127
6, 47468, Note_on_c, 4, 65, 0
6, 47469, Note_on_c, 4, 70, 0
6, 47490, Note_on_c, 4, 70, 127
6, 47490, Note_on_c, 4, 65, 127
6, 47496, Note_on_c, 4, 70, 0
6, 47498, Note_on_c, 4, 65, 0
6, 47520, Note_on_c, 4, 65, 127
6, 47520, Note_on_c, 4, 68, 127
6, 47528, Note_on_c, 4, 68, 0
6, 47528, Note_on_c, 4, 65, 0
6, 47550, Note_on_c, 4, 68, 127
6, 47550, Note_on_c, 4, 65, 127
6, 47556, Note_on_c, 4, 65, 0
6, 47558, Note_on_c, 4, 68, 0
6, 47580, Note_on_c, 4, 68, 127
6, 47580, Note_on_c, 4, 65, 127
6, 47589, Note_on_c, 4, 65, 0
6, 47589, Note_on_c, 4, 68, 0
6, 47610, Note_on_c, 4, 68, 127
6, 47610, Note_on_c, 4, 65, 127
6, 47619, Note_on_c, 4, 65, 0
6, 47619, Note_on_c, 4, 68, 0
6, 47640, Note_on_c, 4, 68, 127
6, 47640, Note_on_c, 4, 65, 127
6, 47649, Note_on_c, 4, 65, 0
6, 47651, Note_on_c, 4, 68, 0
6, 47670, Note_on_c, 4, 65, 127
6, 47670, Note_on_c, 4, 68, 127
6, 47679, Note_on_c, 4, 65, 0
6, 47680, Note_on_c, 4, 68, 0
6, 47700, Note_on_c, 4, 68, 127
6, 47700, Note_on_c, 4, 65, 127
6, 47708, Note_on_c, 4, 65, 0
6, 47709, Note_on_c, 4, 68, 0
6, 47730, Note_on_c, 4, 68, 127
6, 47730, Note_on_c, 4, 65, 127
6, 47739, Note_on_c, 4, 65, 0
6, 47739, Note_on_c, 4, 68, 0
6, 47760, Note_on_c, 4, 68, 127
6, 47760, Note_on_c, 4, 65, 127
6, 47770, Note_on_c, 4, 65, 0
6, 47771, Note_on_c, 4, 68, 0
6, 47790, Note_on_c, 4, 68, 127
6, 47790, Note_on_c, 4, 65, 127
6, 47799, Note_on_c, 4, 65, 0
6, 47799, Note_on_c, 4, 68, 0
6, 47820, Note_on_c, 4, 68, 127
6, 47820, Note_on_c, 4, 65, 127
6, 47829, Note_on_c, 4, 65, 0
6, 47829, Note_on_c, 4, 68, 0
6, 47850, Note_on_c, 4, 68, 127
6, 47850, Note_on_c, 4, 65, 127
6, 47858, Note_on_c, 4, 65, 0
6, 47860, Note_on_c, 4, 68, 0
6, 47880, Note_on_c, 4, 65, 127
6, 47880, Note_on_c, 4, 68, 127
6, 47890, Note_on_c, 4, 65, 0
6, 47891, Note_on_c, 4, 68, 0
6, 47910, Note_on_c, 4, 68, 127
6, 47910, Note_on_c, 4, 65, 127
6, 47918, Note_on_c, 4, 65, 0
6, 47921, Note_on_c, 4, 68, 0
6, 47940, Note_on_c, 4, 68, 127
6, 47940, Note_on_c, 4, 65, 127
6, 47949, Note_on_c, 4, 68, 0
6, 47950, Note_on_c, 4, 65, 0
6, 47970, Note_on_c, 4, 68, 127
6, 47970, Note_on_c, 4, 65, 127
6, 47978, Note_on_c, 4, 65, 0
6, 47980, Note_on_c, 4, 68, 0
6, 48000, Note_on_c, 4, 65, 127
6, 48000, Note_on_c, 4, 70, 127
6, 48010, Note_on_c, 4, 65, 0
6, 48011, Note_on_c, 4, 70, 0
6, 48030, Note_on_c, 4, 65, 127
6, 48030, Note_on_c, 4, 70, 127
6, 48038, Note_on_c, 4, 65, 0
6, 48039, Note_on_c, 4, 70, 0
6, 48060, Note_on_c, 4, 70, 127
6, 48060, Note_on_c, 4, 65, 127
6, 48068, Note_on_c, 4, 70, 0
6, 48069, Note_on_c, 4, 65, 0
6, 48090, Note_on_c, 4, 70, 127
6, 48090, Note_on_c, 4, 65, 127
6, 48100, Note_on_c, 4, 65, 0
6, 48101, Note_on_c, 4, 70, 0
6, 48120, Note_on_c, 4, 65, 127
6, 48120, Note_on_c, 4, 70, 127
6, 48129, Note_on_c, 4, 70, 0
6, 48130, Note_on_c, 4, 65, 0
6, 48150, Note_on_c, 4, 70, 127
6, 48150, Note_on_c, 4, 65, 127
6, 48158, Note_on_c, 4, 65, 0
6, 48159, Note_on_c, 4, 70, 0
6, 48180, Note_on_c, 4, 70, 127
6, 48180, Note_on_c, 4, 65, 127
6, 48189, Note_on_c, 4, 65, 0
6, 48189, Note_on_c, 4, 70, 0
6, 48210, Note_on_c, 4, 70, 127
6, 48210, Note_on_c, 4, 65, 127
6, 48219, Note_on_c, 4, 65, 0
6, 48219, Note_on_c, 4, 70, 0
6, 48240, Note_on_c, 4, 70, 127
6, 48240, Note_on_c, 4, 65, 127
6, 48248, Note_on_c, 4, 65, 0
6, 48249, Note_on_c, 4, 70, 0
6, 48270, Note_on_c, 4, 70, 127
6, 48270, Note_on_c, 4, 65, 127
6, 48277, Note_on_c, 4, 65, 0
6, 48279, Note_on_c, 4, 70, 0
6, 48300, Note_on_c, 4, 65, 127
6, 48300, Note_on_c, 4, 70, 127
6, 48308, Note_on_c, 4, 70, 0
6, 48310, Note_on_c, 4, 65, 0
6, 48330, Note_on_c, 4, 70, 127
6, 48330, Note_on_c, 4, 65, 127
6, 48339, Note_on_c, 4, 65, 0
6, 48340, Note_on_c, 4, 70, 0
6, 48360, Note_on_c, 4, 70, 127
6, 48360, Note_on_c, 4, 65, 127
6, 48369, Note_on_c, 4, 65, 0
6, 48369, Note_on_c, 4, 70, 0
6, 48390, Note_on_c, 4, 70, 127
6, 48390, Note_on_c, 4, 65, 127
6, 48399, Note_on_c, 4, 65, 0
6, 48400, Note_on_c, 4, 70, 0
6, 48420, Note_on_c, 4, 70, 127
6, 48420, Note_on_c, 4, 65, 127
6, 48428, Note_on_c, 4, 65, 0
6, 48429, Note_on_c, 4, 70, 0
6, 48450, Note_on_c, 4, 70, 127
6, 48450, Note_on_c, 4, 65, 127
6, 48456, Note_on_c, 4, 70, 0
6, 48458, Note_on_c, 4, 65, 0
6, 48480, Note_on_c, 4, 65, 127
6, 48480, Note_on_c, 4, 68, 127
6, 48488, Note_on_c, 4, 68, 0
6, 48488, Note_on_c, 4, 65, 0
6, 48510, Note_on_c, 4, 68, 127
6, 48510, Note_on_c, 4, 65, 127
6, 48516, Note_on_c, 4, 65, 0
6, 48518, Note_on_c, 4, 68, 0
6, 48540, Note_on_c, 4, 68, 127
6, 48540, Note_on_c, 4, 65, 127
6, 48549, Note_on_c, 4, 65, 0
6, 48549, Note_on_c, 4, 68, 0
6, 48570, Note_on_c, 4, 68, 127
6, 48570, Note_on_c, 4, 65, 127
6, 48579, Note_on_c, 4, 65, 0
6, 48579, Note_on_c, 4, 68, 0
6, 48600, Note_on_c, 4, 68, 127
6, 48600, Note_on_c, 4, 65, 127
6, 48609, Note_on_c, 4, 65, 0
6, 48611, Note_on_c, 4, 68, 0
6, 48630, Note_on_c, 4, 65, 127
6, 48630, Note_on_c, 4, 68, 127
6, 48639, Note_on_c, 4, 65, 0
6, 48640, Note_on_c, 4, 68, 0
6, 48660, Note_on_c, 4, 68, 127
6, 48660, Note_on_c, 4, 65, 127
6, 48668, Note_on_c, 4, 65, 0
6, 48669, Note_on_c, 4, 68, 0
6, 48690, Note_on_c, 4, 68, 127
6, 48690, Note_on_c, 4, 65, 127
6, 48699, Note_on_c, 4, 65, 0
6, 48699, Note_on_c, 4, 68, 0
6, 48720, Note_on_c, 4, 68, 127
6, 48720, Note_on_c, 4, 65, 127
6, 48730, Note_on_c, 4, 65, 0
6, 48731, Note_on_c, 4, 68, 0
6, 48750, Note_on_c, 4, 68, 127
6, 48750, Note_on_c, 4, 65, 127
6, 48759, Note_on_c, 4, 65, 0
6, 48759, Note_on_c, 4, 68, 0
6, 48780, Note_on_c, 4, 68, 127
6, 48780, Note_on_c, 4, 65, 127
6, 48789, Note_on_c, 4, 65, 0
6, 48789, Note_on_c, 4, 68, 0
6, 48810, Note_on_c, 4, 68, 127
6, 48810, Note_on_c, 4, 65, 127
6, 48818, Note_on_c, 4, 65, 0
6, 48820, Note_on_c, 4, 68, 0
6, 48840, Note_on_c, 4, 65, 127
6, 48840, Note_on_c, 4, 68, 127
6, 48850, Note_on_c, 4, 65, 0
6, 48851, Note_on_c, 4, 68, 0
6, 48870, Note_on_c, 4, 68, 127
6, 48870, Note_on_c, 4, 65, 127
6, 48878, Note_on_c, 4, 65, 0
6, 48881, Note_on_c, 4, 68, 0
6, 48900, Note_on_c, 4, 68, 127
6, 48900, Note_on_c, 4, 65, 127
6, 48909, Note_on_c, 4, 68, 0
6, 48910, Note_on_c, 4, 65, 0
6, 48930, Note_on_c, 4, 68, 127
6, 48930, Note_on_c, 4, 65, 127
6, 48938, Note_on_c, 4, 65, 0
6, 48940, Note_on_c, 4, 68, 0
6, 48960, Note_on_c, 4, 65, 127
6, 48960, Note_on_c, 4, 70, 127
6, 48970, Note_on_c, 4, 65, 0
6, 48971, Note_on_c, 4, 70, 0
6, 48990, Note_on_c, 4, 65, 127
6, 48990, Note_on_c, 4, 70, 127
6, 48998, Note_on_c, 4, 65, 0
6, 48999, Note_on_c, 4, 70, 0
6, 49020, Note_on_c, 4, 70, 127
6, 49020, Note_on_c, 4, 65, 127
6, 49028, Note_on_c, 4, 70, 0
6, 49029, Note_on_c, 4, 65, 0
6, 49050, Note_on_c, 4, 70, 127
6, 49050, Note_on_c, 4, 65, 127
6, 49060, Note_on_c, 4, 65, 0
6, 49061, Note_on_c, 4, 70, 0
6, 49080, Note_on_c, 4, 65, 127
6, 49080, Note_on_c, 4, 70, 127
6, 49089, Note_on_c, 4, 70, 0
6, 49090, Note_on_c, 4, 65, 0
6, 49110, Note_on_c, 4, 70, 127
6, 49110, Note_on_c, 4, 65, 127
6, 49118, Note_on_c, 4, 65, 0
6, 49119, Note_on_c, 4, 70, 0
6, 49140, Note_on_c, 4, 70, 127
6, 49140, Note_on_c, 4, 65, 127
6, 49149, Note_on_c, 4, 65, 0
6, 49149, Note_on_c, 4, 70, 0
6, 49170, Note_on_c, 4, 70, 127
6, 49170, Note_on_c, 4, 65, 127
6, 49179, Note_on_c, 4, 65, 0
6, 49179, Note_on_c, 4, 70, 0
6, 49200, Note_on_c, 4, 70, 127
6, 49200, Note_on_c, 4, 65, 127
6, 49208, Note_on_c, 4, 65, 0
6, 49209, Note_on_c, 4, 70, 0
6, 49230, Note_on_c, 4, 70, 127
6, 49230, Note_on_c, 4, 65, 127
6, 49237, Note_on_c, 4, 65, 0
6, 49239, Note_on_c, 4, 70, 0
6, 49260, Note_on_c, 4, 65, 127
6, 49260, Note_on_c, 4, 70, 127
6, 49268, Note_on_c, 4, 70, 0
6, 49270, Note_on_c, 4, 65, 0
6, 49290, Note_on_c, 4, 70, 127
6, 49290, Note_on_c, 4, 65, 127
6, 49299, Note_on_c, 4, 65, 0
6, 49300, Note_on_c, 4, 70, 0
6, 49320, Note_on_c, 4, 70, 127
6, 49320, Note_on_c, 4, 65, 127
6, 49329, Note_on_c, 4, 65, 0
6, 49329, Note_on_c, 4, 70, 0
6, 49350, Note_on_c, 4, 70, 127
6, 49350, Note_on_c, 4, 65, 127
6, 49359, Note_on_c, 4, 65, 0
6, 49360, Note_on_c, 4, 70, 0
6, 49380, Note_on_c, 4, 70, 127
6, 49380, Note_on_c, 4, 65, 127
6, 49388, Note_on_c, 4, 65, 0
6, 49389, Note_on_c, 4, 70, 0
6, 49410, Note_on_c, 4, 70, 127
6, 49410, Note_on_c, 4, 65, 127
6, 49416, Note_on_c, 4, 70, 0
6, 49418, Note_on_c, 4, 65, 0
6, 49440, Note_on_c, 4, 65, 127
6, 49440, Note_on_c, 4, 68, 127
6, 49448, Note_on_c, 4, 68, 0
6, 49448, Note_on_c, 4, 65, 0
6, 49470, Note_on_c, 4, 68, 127
6, 49470, Note_on_c, 4, 65, 127
6, 49476, Note_on_c, 4, 65, 0
6, 49478, Note_on_c, 4, 68, 0
6, 49500, Note_on_c, 4, 68, 127
6, 49500, Note_on_c, 4, 65, 127
6, 49509, Note_on_c, 4, 65, 0
6, 49509, Note_on_c, 4, 68, 0
6, 49530, Note_on_c, 4, 68, 127
6, 49530, Note_on_c, 4, 65, 127
6, 49539, Note_on_c, 4, 65, 0
6, 49539, Note_on_c, 4, 68, 0
6, 49560, Note_on_c, 4, 68, 127
6, 49560, Note_on_c, 4, 65, 127
6, 49569, Note_on_c, 4, 65, 0
6, 49571, Note_on_c, 4, 68, 0
6, 49590, Note_on_c, 4, 65, 127
6, 49590, Note_on_c, 4, 68, 127
6, 49599, Note_on_c, 4, 65, 0
6, 49600, Note_on_c, 4, 68, 0
6, 49620, Note_on_c, 4, 68, 127
6, 49620, Note_on_c, 4, 65, 127
6, 49628, Note_on_c, 4, 65, 0
6, 49629, Note_on_c, 4, 68, 0
6, 49650, Note_on_c, 4, 68, 127
6, 49650, Note_on_c, 4, 65, 127
6, 49659, Note_on_c, 4, 65, 0
6, 49659, Note_on_c, 4, 68, 0
6, 49680, Note_on_c, 4, 68, 127
6, 49680, Note_on_c, 4, 65, 127
6, 49690, Note_on_c, 4, 65, 0
6, 49691, Note_on_c, 4, 68, 0
6, 49710, Note_on_c, 4, 68, 127
6, 49710, Note_on_c, 4, 65, 127
6, 49719, Note_on_c, 4, 65, 0
6, 49719, Note_on_c, 4, 68, 0
6, 49740, Note_on_c, 4, 68, 127
6, 49740, Note_on_c, 4, 65, 127
6, 49749, Note_on_c, 4, 65, 0
6, 49749, Note_on_c, 4, 68, 0
6, 49770, Note_on_c, 4, 68, 127
6, 49770, Note_on_c, 4, 65, 127
6, 49778, Note_on_c, 4, 65, 0
6, 49780, Note_on_c, 4, 68, 0
6, 49800, Note_on_c, 4, 65, 127
6, 49800, Note_on_c, 4, 68, 127
6, 49810, Note_on_c, 4, 65, 0
6, 49811, Note_on_c, 4, 68, 0
6, 49830, Note_on_c, 4, 68, 127
6, 49830, Note_on_c, 4, 65, 127
6, 49838, Note_on_c, 4, 65, 0
6, 49841, Note_on_c, 4, 68, 0
6, 49860, Note_on_c, 4, 68, 127
6, 49860, Note_on_c, 4, 65, 127
6, 49869, Note_on_c, 4, 68, 0
6, 49870, Note_on_c, 4, 65, 0
6, 49890, Note_on_c, 4, 68, 127
6, 49890, Note_on_c, 4, 65, 127
6, 49898, Note_on_c, 4, 65, 0
6, 49900, Note_on_c, 4, 68, 0
6, 49920, Note_on_c, 4, 65, 127
6, 49920, Note_on_c, 4, 70, 127
6, 49930, Note_on_c, 4, 65, 0
6, 49931, Note_on_c, 4, 70, 0
6, 49950, Note_on_c, 4, 65, 127
6, 49950, Note_on_c, 4, 70, 127
6, 49958, Note_on_c, 4, 65, 0
6, 49959, Note_on_c, 4, 70, 0
6, 49980, Note_on_c, 4, 70, 127
6, 49980, Note_on_c, 4, 65, 127
6, 49988, Note_on_c, 4, 70, 0
6, 49989, Note_on_c, 4, 65, 0
6, 50010, Note_on_c, 4, 70, 127
6, 50010, Note_on_c, 4, 65, 127
6, 50020, Note_on_c, 4, 65, 0
6, 50021, Note_on_c, 4, 70, 0
6, 50040, Note_on_c, 4, 65, 127
6, 50040, Note_on_c, 4, 70, 127
6, 50049, Note_on_c, 4, 70, 0
6, 50050, Note_on_c, 4, 65, 0
6, 50070, Note_on_c, 4, 70, 127
6, 50070, Note_on_c, 4, 65, 127
6, 50078, Note_on_c, 4, 65, 0
6, 50079, Note_on_c, 4, 70, 0
6, 50100, Note_on_c, 4, 70, 127
6, 50100, Note_on_c, 4, 65, 127
6, 50109, Note_on_c, 4, 65, 0
6, 50109, Note_on_c, 4, 70, 0
6, 50130, Note_on_c, 4, 70, 127
6, 50130, Note_on_c, 4, 65, 127
6, 50139, Note_on_c, 4, 65, 0
6, 50139, Note_on_c, 4, 70, 0
6, 50160, Note_on_c, 4, 70, 127
6, 50160, Note_on_c, 4, 65, 127
6, 50168, Note_on_c, 4, 65, 0
6, 50169, Note_on_c, 4, 70, 0
6, 50190, Note_on_c, 4, 70, 127
6, 50190, Note_on_c, 4, 65, 127
6, 50197, Note_on_c, 4, 65, 0
6, 50199, Note_on_c, 4, 70, 0
6, 50220, Note_on_c, 4, 65, 127
6, 50220, Note_on_c, 4, 70, 127
6, 50228, Note_on_c, 4, 70, 0
6, 50230, Note_on_c, 4, 65, 0
6, 50250, Note_on_c, 4, 70, 127
6, 50250, Note_on_c, 4, 65, 127
6, 50259, Note_on_c, 4, 65, 0
6, 50260, Note_on_c, 4, 70, 0
6, 50280, Note_on_c, 4, 70, 127
6, 50280, Note_on_c, 4, 65, 127
6, 50289, Note_on_c, 4, 65, 0
6, 50289, Note_on_c, 4, 70, 0
6, 50310, Note_on_c, 4, 70, 127
6, 50310, Note_on_c, 4, 65, 127
6, 50319, Note_on_c, 4, 65, 0
6, 50320, Note_on_c, 4, 70, 0
6, 50340, Note_on_c, 4, 70, 127
6, 50340, Note_on_c, 4, 65, 127
6, 50348, Note_on_c, 4, 65, 0
6, 50349, Note_on_c, 4, 70, 0
6, 50370, Note_on_c, 4, 70, 127
6, 50370, Note_on_c, 4, 65, 127
6, 50376, Note_on_c, 4, 70, 0
6, 50378, Note_on_c, 4, 65, 0
6, 50400, Note_on_c, 4, 65, 127
6, 50400, Note_on_c, 4, 68, 127
6, 50408, Note_on_c, 4, 68, 0
6, 50408, Note_on_c, 4, 65, 0
6, 50430, Note_on_c, 4, 68, 127
6, 50430, Note_on_c, 4, 65, 127
6, 50436, Note_on_c, 4, 65, 0
6, 50438, Note_on_c, 4, 68, 0
6, 50460, Note_on_c, 4, 68, 127
6, 50460, Note_on_c, 4, 65, 127
6, 50469, Note_on_c, 4, 65, 0
6, 50469, Note_on_c, 4, 68, 0
6, 50490, Note_on_c, 4, 68, 127
6, 50490, Note_on_c, 4, 65, 127
6, 50499, Note_on_c, 4, 65, 0
6, 50499, Note_on_c, 4, 68, 0
6, 50520, Note_on_c, 4, 68, 127
6, 50520, Note_on_c, 4, 65, 127
6, 50529, Note_on_c, 4, 65, 0
6, 50531, Note_on_c, 4, 68, 0
6, 50550, Note_on_c, 4, 65, 127
6, 50550, Note_on_c, 4, 68, 127
6, 50559, Note_on_c, 4, 65, 0
6, 50560, Note_on_c, 4, 68, 0
6, 50580, Note_on_c, 4, 68, 127
6, 50580, Note_on_c, 4, 65, 127
6, 50588, Note_on_c, 4, 65, 0
6, 50589, Note_on_c, 4, 68, 0
6, 50610, Note_on_c, 4, 68, 127
6, 50610, Note_on_c, 4, 65, 127
6, 50619, Note_on_c, 4, 65, 0
6, 50619, Note_on_c, 4, 68, 0
6, 50640, Note_on_c, 4, 68, 127
6, 50640, Note_on_c, 4, 65, 127
6, 50650, Note_on_c, 4, 65, 0
6, 50651, Note_on_c, 4, 68, 0
6, 50670, Note_on_c, 4, 68, 127
6, 50670, Note_on_c, 4, 65, 127
6, 50679, Note_on_c, 4, 65, 0
6, 50679, Note_on_c, 4, 68, 0
6, 50700, Note_on_c, 4, 68, 127
6, 50700, Note_on_c, 4, 65, 127
6, 50709, Note_on_c, 4, 65, 0
6, 50709, Note_on_c, 4, 68, 0
6, 50730, Note_on_c, 4, 68, 127
6, 50730, Note_on_c, 4, 65, 127
6, 50738, Note_on_c, 4, 65, 0
6, 50740, Note_on_c, 4, 68, 0
6, 50760, Note_on_c, 4, 65, 127
6, 50760, Note_on_c, 4, 68, 127
6, 50770, Note_on_c, 4, 65, 0
6, 50771, Note_on_c, 4, 68, 0
6, 50790, Note_on_c, 4, 68, 127
6, 50790, Note_on_c, 4, 65, 127
6, 50798, Note_on_c, 4, 65, 0
6, 50801, Note_on_c, 4, 68, 0
6, 50820, Note_on_c, 4, 68, 127
6, 50820, Note_on_c, 4, 65, 127
6, 50829, Note_on_c, 4, 68, 0
6, 50830, Note_on_c, 4, 65, 0
6, 50850, Note_on_c, 4, 68, 127
6, 50850, Note_on_c, 4, 65, 127
6, 50858, Note_on_c, 4, 65, 0
6, 50860, Note_on_c, 4, 68, 0
6, 50880, Note_on_c, 4, 65, 127
6, 50880, Note_on_c, 4, 70, 127
6, 50890, Note_on_c, 4, 65, 0
6, 50891, Note_on_c, 4, 70, 0
6, 50910, Note_on_c, 4, 65, 127
6, 50910, Note_on_c, 4, 70, 127
6, 50918, Note_on_c, 4, 65, 0
6, 50919, Note_on_c, 4, 70, 0
6, 50940, Note_on_c, 4, 70, 127
6, 50940, Note_on_c, 4, 65, 127
6, 50948, Note_on_c, 4, 70, 0
6, 50949, Note_on_c, 4, 65, 0
6, 50970, Note_on_c, 4, 70, 127
6, 50970, Note_on_c, 4, 65, 127
6, 50980, Note_on_c, 4, 65, 0
6, 50981, Note_on_c, 4, 70, 0
6, 51000, Note_on_c, 4, 65, 127
6, 51000, Note_on_c, 4, 70, 127
6, 51009, Note_on_c, 4, 70, 0
6, 51010, Note_on_c, 4, 65, 0
6, 51030, Note_on_c, 4, 70, 127
6, 51030, Note_on_c, 4, 65, 127
6, 51038, Note_on_c, 4, 65, 0
6, 51039, Note_on_c, 4, 70, 0
6, 51060, Note_on_c, 4, 70, 127
6, 51060, Note_on_c, 4, 65, 127
6, 51069, Note_on_c, 4, 65, 0
6, 51069, Note_on_c, 4, 70, 0
6, 51090, Note_on_c, 4, 70, 127
6, 51090, Note_on_c, 4, 65, 127
6, 51099, Note_on_c, 4, 65, 0
6, 51099, Note_on_c, 4, 70, 0
6, 51120, Note_on_c, 4, 70, 127
6, 51120, Note_on_c, 4, 65, 127
6, 51128, Note_on_c, 4, 65, 0
6, 51129, Note_on_c, 4, 70, 0
6, 51150, Note_on_c, 4, 70, 127
6, 51150, Note_on_c, 4, 65, 127
6, 51157, Note_on_c, 4, 65, 0
6, 51159, Note_on_c, 4, 70, 0
6, 51180, Note_on_c, 4, 65, 127
6, 51180, Note_on_c, 4, 70, 127
6, 51188, Note_on_c, 4, 70, 0
6, 51190, Note_on_c, 4, 65, 0
6, 51210, Note_on_c, 4, 70, 127
6, 51210, Note_on_c, 4, 65, 127
6, 51219, Note_on_c, 4, 65, 0
6, 51220, Note_on_c, 4, 70, 0
6, 51240, Note_on_c, 4, 70, 127
6, 51240, Note_on_c, 4, 65, 127
6, 51249, Note_on_c, 4, 65, 0
6, 51249, Note_on_c, 4, 70, 0
6, 51270, Note_on_c, 4, 70, 127
6, 51270, Note_on_c, 4, 65, 127
6, 51279, Note_on_c, 4, 65, 0
6, 51280, Note_on_c, 4, 70, 0
6, 51300, Note_on_c, 4, 70, 127
6, 51300, Note_on_c, 4, 65, 127
6, 51308, Note_on_c, 4, 65, 0
6, 51309, Note_on_c, 4, 70, 0
6, 51330, Note_on_c, 4, 70, 127
6, 51330, Note_on_c, 4, 65, 127
6, 51336, Note_on_c, 4, 70, 0
6, 51338, Note_on_c, 4, 65, 0
6, 51360, Note_on_c, 4, 65, 127
6, 51360, Note_on_c, 4, 68, 127
6, 51368, Note_on_c, 4, 68, 0
6, 51368, Note_on_c, 4, 65, 0
6, 51390, Note_on_c, 4, 68, 127
6, 51390, Note_on_c, 4, 65, 127
6, 51396, Note_on_c, 4, 65, 0
6, 51398, Note_on_c, 4, 68, 0
6, 51420, Note_on_c, 4, 68, 127
6, 51420, Note_on_c, 4, 65, 127
6, 51429, Note_on_c, 4, 65, 0
6, 51429, Note_on_c, 4, 68, 0
6, 51450, Note_on_c, 4, 68, 127
6, 51450, Note_on_c, 4, 65, 127
6, 51459, Note_on_c, 4, 65, 0
6, 51459, Note_on_c, 4, 68, 0
6, 51480, Note_on_c, 4, 68, 127
6, 51480, Note_on_c, 4, 65, 127
6, 51489, Note_on_c, 4, 65, 0
6, 51491, Note_on_c, 4, 68, 0
6, 51510, Note_on_c, 4, 65, 127
6, 51510, Note_on_c, 4, 68, 127
6, 51519, Note_on_c, 4, 65, 0
6, 51520, Note_on_c, 4, 68, 0
6, 51540, Note_on_c, 4, 68, 127
6, 51540, Note_on_c, 4, 65, 127
6, 51548, Note_on_c, 4, 65, 0
6, 51549, Note_on_c, 4, 68, 0
6, 51570, Note_on_c, 4, 68, 127
6, 51570, Note_on_c, 4, 65, 127
6, 51579, Note_on_c, 4, 65, 0
6, 51579, Note_on_c, 4, 68, 0
6, 51600, Note_on_c, 4, 68, 127
6, 51600, Note_on_c, 4, 65, 127
6, 51610, Note_on_c, 4, 65, 0
6, 51611, Note_on_c, 4, 68, 0
6, 51630, Note_on_c, 4, 68, 127
6, 51630, Note_on_c, 4, 65, 127
6, 51639, Note_on_c, 4, 65, 0
6, 51639, Note_on_c, 4, 68, 0
6, 51660, Note_on_c, 4, 68, 127
6, 51660, Note_on_c, 4, 65, 127
6, 51669, Note_on_c, 4, 65, 0
6, 51669, Note_on_c, 4, 68, 0
6, 51690, Note_on_c, 4, 68, 127
6, 51690, Note_on_c, 4, 65, 127
6, 51698, Note_on_c, 4, 65, 0
6, 51700, Note_on_c, 4, 68, 0
6, 51720, Note_on_c, 4, 65, 127
6, 51720, Note_on_c, 4, 68, 127
6, 51730, Note_on_c, 4, 65, 0
6, 51731, Note_on_c, 4, 68, 0
6, 51750, Note_on_c, 4, 68, 127
6, 51750, Note_on_c, 4, 65, 127
6, 51758, Note_on_c, 4, 65, 0
6, 51761, Note_on_c, 4, 68, 0
6, 51780, Note_on_c, 4, 68, 127
6, 51780, Note_on_c, 4, 65, 127
6, 51789, Note_on_c, 4, 68, 0
6, 51790, Note_on_c, 4, 65, 0
6, 51810, Note_on_c, 4, 68, 127
6, 51810, Note_on_c, 4, 65, 127
6, 51818, Note_on_c, 4, 65, 0
6, 51820, Note_on_c, 4, 68, 0
6, 51840, Note_on_c, 4, 65, 127
6, 51840, Note_on_c, 4, 70, 127
6, 51850, Note_on_c, 4, 65, 0
6, 51851, Note_on_c, 4, 70, 0
6, 51870, Note_on_c, 4, 65, 127
6, 51870, Note_on_c, 4, 70, 127
6, 51878, Note_on_c, 4, 65, 0
6, 51879, Note_on_c, 4, 70, 0
6, 51900, Note_on_c, 4, 70, 127
6, 51900, Note_on_c, 4, 65, 127
6, 51908, Note_on_c, 4, 70, 0
6, 51909, Note_on_c, 4, 65, 0
6, 51930, Note_on_c, 4, 70, 127
6, 51930, Note_on_c, 4, 65, 127
6, 51940, Note_on_c, 4, 65, 0
6, 51941, Note_on_c, 4, 70, 0
6, 51960, Note_on_c, 4, 65, 127
6, 51960, Note_on_c, 4, 70, 127
6, 51969, Note_on_c, 4, 70, 0
6, 51970, Note_on_c, 4, 65, 0
6, 51990, Note_on_c, 4, 70, 127
6, 51990, Note_on_c, 4, 65, 127
6, 51998, Note_on_c, 4, 65, 0
6, 51999, Note_on_c, 4, 70, 0
6, 52020, Note_on_c, 4, 70, 127
6, 52020, Note_on_c, 4, 65, 127
6, 52029, Note_on_c, 4, 65, 0
6, 52029, Note_on_c, 4, 70, 0
6, 52050, Note_on_c, 4, 70, 127
6, 52050, Note_on_c, 4, 65, 127
6, 52059, Note_on_c, 4, 65, 0
6, 52059, Note_on_c, 4, 70, 0
6, 52080, Note_on_c, 4, 70, 127
6, 52080, Note_on_c, 4, 65, 127
6, 52088, Note_on_c, 4, 65, 0
6, 52089, Note_on_c, 4, 70, 0
6, 52110, Note_on_c, 4, 70, 127
6, 52110, Note_on_c, 4, 65, 127
6, 52117, Note_on_c, 4, 65, 0
6, 52119, Note_on_c, 4, 70, 0
6, 52140, Note_on_c, 4, 65, 127
6, 52140, Note_on_c, 4, 70, 127
6, 52148, Note_on_c, 4, 70, 0
6, 52150, Note_on_c, 4, 65, 0
6, 52170, Note_on_c, 4, 70, 127
6, 52170, Note_on_c, 4, 65, 127
6, 52179, Note_on_c, 4, 65, 0
6, 52180, Note_on_c, 4, 70, 0
6, 52200, Note_on_c, 4, 70, 127
6, 52200, Note_on_c, 4, 65, 127
6, 52209, Note_on_c, 4, 65, 0
6, 52209, Note_on_c, 4, 70, 0
6, 52230, Note_on_c, 4, 70, 127
6, 52230, Note_on_c, 4, 65, 127
6, 52239, Note_on_c, 4, 65, 0
6, 52240, Note_on_c, 4, 70, 0
6, 52260, Note_on_c, 4, 70, 127
6, 52260, Note_on_c, 4, 65, 127
6, 52268, Note_on_c, 4, 65, 0
6, 52269, Note_on_c, 4, 70, 0
6, 52290, Note_on_c, 4, 70, 127
6, 52290, Note_on_c, 4, 65, 127
6, 52296, Note_on_c, 4, 70, 0
6, 52298, Note_on_c, 4, 65, 0
6, 52320, Note_on_c, 4, 65, 127
6, 52320, Note_on_c, 4, 68, 127
6, 52328, Note_on_c, 4, 68, 0
6, 52328, Note_on_c, 4, 65, 0
6, 52350, Note_on_c, 4, 68, 127
6, 52350, Note_on_c, 4, 65, 127
6, 52356, Note_on_c, 4, 65, 0
6, 52358, Note_on_c, 4, 68, 0
6, 52380, Note_on_c, 4, 68, 127
6, 52380, Note_on_c, 4, 65, 127
6, 52389, Note_on_c, 4, 65, 0
6, 52389, Note_on_c, 4, 68, 0
6, 52410, Note_on_c, 4, 68, 127
6, 52410, Note_on_c, 4, 65, 127
6, 52419, Note_on_c, 4, 65, 0
6, 52419, Note_on_c, 4, 68, 0
6, 52440, Note_on_c, 4, 68, 127
6, 52440, Note_on_c, 4, 65, 127
6, 52449, Note_on_c, 4, 65, 0
6, 52451, Note_on_c, 4, 68, 0
6, 52470, Note_on_c, 4, 65, 127
6, 52470, Note_on_c, 4, 68, 127
6, 52479, Note_on_c, 4, 65, 0
6, 52480, Note_on_c, 4, 68, 0
6, 52500, Note_on_c, 4, 68, 127
6, 52500, Note_on_c, 4, 65, 127
6, 52508, Note_on_c, 4, 65, 0
6, 52509, Note_on_c, 4, 68, 0
6, 52530, Note_on_c, 4, 68, 127
6, 52530, Note_on_c, 4, 65, 127
6, 52539, Note_on_c, 4, 65, 0
6, 52539, Note_on_c, 4, 68, 0
6, 52560, Note_on_c, 4, 68, 127
6, 52560, Note_on_c, 4, 65, 127
6, 52570, Note_on_c, 4, 65, 0
6, 52571, Note_on_c, 4, 68, 0
6, 52590, Note_on_c, 4, 68, 127
6, 52590, Note_on_c, 4, 65, 127
6, 52599, Note_on_c, 4, 65, 0
6, 52599, Note_on_c, 4, 68, 0
6, 52620, Note_on_c, 4, 68, 127
6, 52620, Note_on_c, 4, 65, 127
6, 52629, Note_on_c, 4, 65, 0
6, 52629, Note_on_c, 4, 68, 0
6, 52650, Note_on_c, 4, 68, 127
6, 52650, Note_on_c, 4, 65, 127
6, 52658, Note_on_c, 4, 65, 0
6, 52660, Note_on_c, 4, 68, 0
6, 52680, Note_on_c, 4, 65, 127
6, 52680, Note_on_c, 4, 68, 127
6, 52690, Note_on_c, 4, 65, 0
6, 52691, Note_on_c, 4, 68, 0
6, 52710, Note_on_c, 4, 68, 127
6, 52710, Note_on_c, 4, 65, 127
6, 52718, Note_on_c, 4, 65, 0
6, 52721, Note_on_c, 4, 68, 0
6, 52740, Note_on_c, 4, 68, 127
6, 52740, Note_on_c, 4, 65, 127
6, 52749, Note_on_c, 4, 68, 0
6, 52750, Note_on_c, 4, 65, 0
6, 52770, Note_on_c, 4, 68, 127
6, 52770, Note_on_c, 4, 65, 127
6, 52778, Note_on_c, 4, 65, 0
6, 52780, Note_on_c, 4, 68, 0
6, 52800, Note_on_c, 4, 65, 127
6, 52800, Note_on_c, 4, 70, 127
6, 52810, Note_on_c, 4, 65, 0
6, 52811, Note_on_c, 4, 70, 0
6, 52830, Note_on_c, 4, 65, 127
6, 52830, Note_on_c, 4, 70, 127
6, 52838, Note_on_c, 4, 65, 0
6, 52839, Note_on_c, 4, 70, 0
6, 52860, Note_on_c, 4, 70, 127
6, 52860, Note_on_c, 4, 65, 127
6, 52868, Note_on_c, 4, 70, 0
6, 52869, Note_on_c, 4, 65, 0
6, 52890, Note_on_c, 4, 70, 127
6, 52890, Note_on_c, 4, 65, 127
6, 52900, Note_on_c, 4, 65, 0
6, 52901, Note_on_c, 4, 70, 0
6, 52920, Note_on_c, 4, 65, 127
6, 52920, Note_on_c, 4, 70, 127
6, 52929, Note_on_c, 4, 70, 0
6, 52930, Note_on_c, 4, 65, 0
6, 52950, Note_on_c, 4, 70, 127
6, 52950, Note_on_c, 4, 65, 127
6, 52958, Note_on_c, 4, 65, 0
6, 52959, Note_on_c, 4, 70, 0
6, 52980, Note_on_c, 4, 70, 127
6, 52980, Note_on_c, 4, 65, 127
6, 52989, Note_on_c, 4, 65, 0
6, 52989, Note_on_c, 4, 70, 0
6, 53010, Note_on_c, 4, 70, 127
6, 53010, Note_on_c, 4, 65, 127
6, 53019, Note_on_c, 4, 65, 0
6, 53019, Note_on_c, 4, 70, 0
6, 53040, Note_on_c, 4, 70, 127
6, 53040, Note_on_c, 4, 65, 127
6, 53048, Note_on_c, 4, 65, 0
6, 53049, Note_on_c, 4, 70, 0
6, 53070, Note_on_c, 4, 70, 127
6, 53070, Note_on_c, 4, 65, 127
6, 53077, Note_on_c, 4, 65, 0
6, 53079, Note_on_c, 4, 70, 0
6, 53100, Note_on_c, 4, 65, 127
6, 53100, Note_on_c, 4, 70, 127
6, 53108, Note_on_c, 4, 70, 0
6, 53110, Note_on_c, 4, 65, 0
6, 53130, Note_on_c, 4, 70, 127
6, 53130, Note_on_c, 4, 65, 127
6, 53139, Note_on_c, 4, 65, 0
6, 53140, Note_on_c, 4, 70, 0
6, 53160, Note_on_c, 4, 70, 127
6, 53160, Note_on_c, 4, 65, 127
6, 53169, Note_on_c, 4, 65, 0
6, 53169, Note_on_c, 4, 70, 0
6, 53190, Note_on_c, 4, 70, 127
6, 53190, Note_on_c, 4, 65, 127
6, 53199, Note_on_c, 4, 65, 0
6, 53200, Note_on_c, 4, 70, 0
6, 53220, Note_on_c, 4, 70, 127
6, 53220, Note_on_c, 4, 65, 127
6, 53228, Note_on_c, 4, 65, 0
6, 53229, Note_on_c, 4, 70, 0
6, 53250, Note_on_c, 4, 70, 127
6, 53250, Note_on_c, 4, 65, 127
6, 53256, Note_on_c, 4, 70, 0
6, 53258, Note_on_c, 4, 65, 0
6, 53280, Note_on_c, 4, 65, 127
6, 53280, Note_on_c, 4, 68, 127
6, 53288, Note_on_c, 4, 68, 0
6, 53288, Note_on_c, 4, 65, 0
6, 53310, Note_on_c, 4, 68, 127
6, 53310, Note_on_c, 4, 65, 127
6, 53316, Note_on_c, 4, 65, 0
6, 53318, Note_on_c, 4, 68, 0
6, 53340, Note_on_c, 4, 68, 127
6, 53340, Note_on_c, 4, 65, 127
6, 53349, Note_on_c, 4, 65, 0
6, 53349, Note_on_c, 4, 68, 0
6, 53370, Note_on_c, 4, 68, 127
6, 53370, Note_on_c, 4, 65, 127
6, 53379, Note_on_c, 4, 65, 0
6, 53379, Note_on_c, 4, 68, 0
6, 53400, Note_on_c, 4, 68, 127
6, 53400, Note_on_c, 4, 65, 127
6, 53409, Note_on_c, 4, 65, 0
6, 53411, Note_on_c, 4, 68, 0
6, 53430, Note_on_c, 4, 65, 127
6, 53430, Note_on_c, 4, 68, 127
6, 53439, Note_on_c, 4, 65, 0
6, 53440, Note_on_c, 4, 68, 0
6, 53460, Note_on_c, 4, 68, 127
6, 53460, Note_on_c, 4, 65, 127
6, 53468, Note_on_c, 4, 65, 0
6, 53469, Note_on_c, 4, 68, 0
6, 53490, Note_on_c, 4, 68, 127
6, 53490, Note_on_c, 4, 65, 127
6, 53499, Note_on_c, 4, 65, 0
6, 53499, Note_on_c, 4, 68, 0
6, 53520, Note_on_c, 4, 68, 127
6, 53520, Note_on_c, 4, 65, 127
6, 53530, Note_on_c, 4, 65, 0
6, 53531, Note_on_c, 4, 68, 0
6, 53550, Note_on_c, 4, 68, 127
6, 53550, Note_on_c, 4, 65, 127
6, 53559, Note_on_c, 4, 65, 0
6, 53559, Note_on_c, 4, 68, 0
6, 53580, Note_on_c, 4, 68, 127
6, 53580, Note_on_c, 4, 65, 127
6, 53589, Note_on_c, 4, 65, 0
6, 53589, Note_on_c, 4, 68, 0
6, 53610, Note_on_c, 4, 68, 127
6, 53610, Note_on_c, 4, 65, 127
6, 53618, Note_on_c, 4, 65, 0
6, 53620, Note_on_c, 4, 68, 0
6, 53640, Note_on_c, 4, 65, 127
6, 53640, Note_on_c, 4, 68, 127
6, 53650, Note_on_c, 4, 65, 0
6, 53651, Note_on_c, 4, 68, 0
6, 53670, Note_on_c, 4, 68, 127
6, 53670, Note_on_c, 4, 65, 127
6, 53678, Note_on_c, 4, 65, 0
6, 53681, Note_on_c, 4, 68, 0
6, 53700, Note_on_c, 4, 68, 127
6, 53700, Note_on_c, 4, 65, 127
6, 53709, Note_on_c, 4, 68, 0
6, 53710, Note_on_c, 4, 65, 0
6, 53730, Note_on_c, 4, 68, 127
6, 53730, Note_on_c, 4, 65, 127
6, 53738, Note_on_c, 4, 65, 0
6, 53740, Note_on_c, 4, 68, 0
6, 53760, Note_on_c, 4, 65, 127
6, 53760, Note_on_c, 4, 70, 127
6, 53770, Note_on_c, 4, 65, 0
6, 53771, Note_on_c, 4, 70, 0
6, 53790, Note_on_c, 4, 65, 127
6, 53790, Note_on_c, 4, 70, 127
6, 53798, Note_on_c, 4, 65, 0
6, 53799, Note_on_c, 4, 70, 0
6, 53820, Note_on_c, 4, 70, 127
6, 53820, Note_on_c, 4, 65, 127
6, 53828, Note_on_c, 4, 70, 0
6, 53829, Note_on_c, 4, 65, 0
6, 53850, Note_on_c, 4, 70, 127
6, 53850, Note_on_c, 4, 65, 127
6, 53860, Note_on_c, 4, 65, 0
6, 53861, Note_on_c, 4, 70, 0
6, 53880, Note_on_c, 4, 65, 127
6, 53880, Note_on_c, 4, 70, 127
6, 53889, Note_on_c, 4, 70, 0
6, 53890, Note_on_c, 4, 65, 0
6, 53910, Note_on_c, 4, 70, 127
6, 53910, Note_on_c, 4, 65, 127
6, 53918, Note_on_c, 4, 65, 0
6, 53919, Note_on_c, 4, 70, 0
6, 53940, Note_on_c, 4, 70, 127
6, 53940, Note_on_c, 4, 65, 127
6, 53949, Note_on_c, 4, 65, 0
6, 53949, Note_on_c, 4, 70, 0
6, 53970, Note_on_c, 4, 70, 127
6, 53970, Note_on_c, 4, 65, 127
6, 53979, Note_on_c, 4, 65, 0
6, 53979, Note_on_c, 4, 70, 0
6, 54000, Note_on_c, 4, 70, 127
6, 54000, Note_on_c, 4, 65, 127
6, 54008, Note_on_c, 4, 65, 0
6, 54009, Note_on_c, 4, 70, 0
6, 54030, Note_on_c, 4, 70, 127
6, 54030, Note_on_c, 4, 65, 127
6, 54037, Note_on_c, 4, 65, 0
6, 54039, Note_on_c, 4, 70, 0
6, 54060, Note_on_c, 4, 65, 127
6, 54060, Note_on_c, 4, 70, 127
6, 54068, Note_on_c, 4, 70, 0
6, 54070, Note_on_c, 4, 65, 0
6, 54090, Note_on_c, 4, 70, 127
6, 54090, Note_on_c, 4, 65, 127
6, 54099, Note_on_c, 4, 65, 0
6, 54100, Note_on_c, 4, 70, 0
6, 54120, Note_on_c, 4, 70, 127
6, 54120, Note_on_c, 4, 65, 127
6, 54129, Note_on_c, 4, 65, 0
6, 54129, Note_on_c, 4, 70, 0
6, 54150, Note_on_c, 4, 70, 127
6, 54150, Note_on_c, 4, 65, 127
6, 54159, Note_on_c, 4, 65, 0
6, 54160, Note_on_c, 4, 70, 0
6, 54180, Note_on_c, 4, 70, 127
6, 54180, Note_on_c, 4, 65, 127
6, 54188, Note_on_c, 4, 65, 0
6, 54189, Note_on_c, 4, 70, 0
6, 54210, Note_on_c, 4, 70, 127
6, 54210, Note_on_c, 4, 65, 127
6, 54216, Note_on_c, 4, 70, 0
6, 54218, Note_on_c, 4, 65, 0
6, 54240, Note_on_c, 4, 65, 127
6, 54240, Note_on_c, 4, 68, 127
6, 54248, Note_on_c, 4, 68, 0
6, 54248, Note_on_c, 4, 65, 0
6, 54270, Note_on_c, 4, 68, 127
6, 54270, Note_on_c, 4, 65, 127
6, 54276, Note_on_c, 4, 65, 0
6, 54278, Note_on_c, 4, 68, 0
6, 54300, Note_on_c, 4, 68, 127
6, 54300, Note_on_c, 4, 65, 127
6, 54309, Note_on_c, 4, 65, 0
6, 54309, Note_on_c, 4, 68, 0
6, 54330, Note_on_c, 4, 68, 127
6, 54330, Note_on_c, 4, 65, 127
6, 54339, Note_on_c, 4, 65, 0
6, 54339, Note_on_c, 4, 68, 0
6, 54360, Note_on_c, 4, 68, 127
6, 54360, Note_on_c, 4, 65, 127
6, 54369, Note_on_c, 4, 65, 0
6, 54371, Note_on_c, 4, 68, 0
6, 54390, Note_on_c, 4, 65, 127
6, 54390, Note_on_c, 4, 68, 127
6, 54399, Note_on_c, 4, 65, 0
6, 54400, Note_on_c, 4, 68, 0
6, 54420, Note_on_c, 4, 68, 127
6, 54420, Note_on_c, 4, 65, 127
6, 54428, Note_on_c, 4, 65, 0
6, 54429, Note_on_c, 4, 68, 0
6, 54450, Note_on_c, 4, 68, 127
6, 54450, Note_on_c, 4, 65, 127
6, 54459, Note_on_c, 4, 65, 0
6, 54459, Note_on_c, 4, 68, 0
6, 54480, Note_on_c, 4, 68, 127
6, 54480, Note_on_c, 4, 65, 127
6, 54490, Note_on_c, 4, 65, 0
6, 54491, Note_on_c, 4, 68, 0
6, 54510, Note_on_c, 4, 68, 127
6, 54510, Note_on_c, 4, 65, 127
6, 54519, Note_on_c, 4, 65, 0
6, 54519, Note_on_c, 4, 68, 0
6, 54540, Note_on_c, 4, 68, 127
6, 54540, Note_on_c, 4, 65, 127
6, 54549, Note_on_c, 4, 65, 0
6, 54549, Note_on_c, 4, 68, 0
6, 54570, Note_on_c, 4, 68, 127
6, 54570, Note_on_c, 4, 65, 127
6, 54578, Note_on_c, 4, 65, 0
6, 54580, Note_on_c, 4, 68, 0
6, 54600, Note_on_c, 4, 65, 127
6, 54600, Note_on_c, 4, 68, 127
6, 54610, Note_on_c, 4, 65, 0
6, 54611, Note_on_c, 4, 68, 0
6, 54630, Note_on_c, 4, 68, 127
6, 54630, Note_on_c, 4, 65, 127
6, 54638, Note_on_c, 4, 65, 0
6, 54641, Note_on_c, 4, 68, 0
6, 54660, Note_on_c, 4, 68, 127
6, 54660, Note_on_c, 4, 65, 127
6, 54669, Note_on_c, 4, 68, 0
6, 54670, Note_on_c, 4, 65, 0
6, 54690, Note_on_c, 4, 68, 127
6, 54690, Note_on_c, 4, 65, 127
6, 54698, Note_on_c, 4, 65, 0
6, 54700, Note_on_c, 4, 68, 0
6, 54720, Note_on_c, 4, 65, 127
6, 54720, Note_on_c, 4, 70, 127
6, 54730, Note_on_c, 4, 65, 0
6, 54731, Note_on_c, 4, 70, 0
6, 54750, Note_on_c, 4, 65, 127
6, 54750, Note_on_c, 4, 70, 127
6, 54758, Note_on_c, 4, 65, 0
6, 54759, Note_on_c, 4, 70, 0
6, 54780, Note_on_c, 4, 70, 127
6, 54780, Note_on_c, 4, 65, 127
6, 54788, Note_on_c, 4, 70, 0
6, 54789, Note_on_c, 4, 65, 0
6, 54810, Note_on_c, 4, 70, 127
6, 54810, Note_on_c, 4, 65, 127
6, 54820, Note_on_c, 4, 65, 0
6, 54821, Note_on_c, 4, 70, 0
6, 54840, Note_on_c, 4, 65, 127
6, 54840, Note_on_c, 4, 70, 127
6, 54849, Note_on_c, 4, 70, 0
6, 54850, Note_on_c, 4, 65, 0
6, 54870, Note_on_c, 4, 70, 127
6, 54870, Note_on_c, 4, 65, 127
6, 54878, Note_on_c, 4, 65, 0
6, 54879, Note_on_c, 4, 70, 0
6, 54900, Note_on_c, 4, 70, 127
6, 54900, Note_on_c, 4, 65, 127
6, 54909, Note_on_c, 4, 65, 0
6, 54909, Note_on_c, 4, 70, 0
6, 54930, Note_on_c, 4, 70, 127
6, 54930, Note_on_c, 4, 65, 127
6, 54939, Note_on_c, 4, 65, 0
6, 54939, Note_on_c, 4, 70, 0
6, 54960, Note_on_c, 4, 70, 127
6, 54960, Note_on_c, 4, 65, 127
6, 54968, Note_on_c, 4, 65, 0
6, 54969, Note_on_c, 4, 70, 0
6, 54990, Note_on_c, 4, 70, 127
6, 54990, Note_on_c, 4, 65, 127
6, 54997, Note_on_c, 4, 65, 0
6, 54999, Note_on_c, 4, 70, 0
6, 55020, Note_on_c, 4, 65, 127
6, 55020, Note_on_c, 4, 70, 127
6, 55028, Note_on_c, 4, 70, 0
6, 55030, Note_on_c, 4, 65, 0
6, 55050, Note_on_c, 4, 70, 127
6, 55050, Note_on_c, 4, 65, 127
6, 55059, Note_on_c, 4, 65, 0
6, 55060, Note_on_c, 4, 70, 0
6, 55080, Note_on_c, 4, 70, 127
6, 55080, Note_on_c, 4, 65, 127
6, 55089, Note_on_c, 4, 65, 0
6, 55089, Note_on_c, 4, 70, 0
6, 55110, Note_on_c, 4, 70, 127
6, 55110, Note_on_c, 4, 65, 127
6, 55119, Note_on_c, 4, 65, 0
6, 55120, Note_on_c, 4, 70, 0
6, 55140, Note_on_c, 4, 70, 127
6, 55140, Note_on_c, 4, 65, 127
6, 55148, Note_on_c, 4, 65, 0
6, 55149, Note_on_c, 4, 70, 0
6, 55170, Note_on_c, 4, 70, 127
6, 55170, Note_on_c, 4, 65, 127
6, 55176, Note_on_c, 4, 70, 0
6, 55178, Note_on_c, 4, 65, 0
6, 55200, Note_on_c, 4, 65, 127
6, 55200, Note_on_c, 4, 68, 127
6, 55208, Note_on_c, 4, 68, 0
6, 55208, Note_on_c, 4, 65, 0
6, 55230, Note_on_c, 4, 68, 127
6, 55230, Note_on_c, 4, 65, 127
6, 55236, Note_on_c, 4, 65, 0
6, 55238, Note_on_c, 4, 68, 0
6, 55260, Note_on_c, 4, 68, 127
6, 55260, Note_on_c, 4, 65, 127
6, 55269, Note_on_c, 4, 65, 0
6, 55269, Note_on_c, 4, 68, 0
6, 55290, Note_on_c, 4, 68, 127
6, 55290, Note_on_c, 4, 65, 127
6, 55299, Note_on_c, 4, 65, 0
6, 55299, Note_on_c, 4, 68, 0
6, 55320, Note_on_c, 4, 68, 127
6, 55320, Note_on_c, 4, 65, 127
6, 55329, Note_on_c, 4, 65, 0
6, 55331, Note_on_c, 4, 68, 0
6, 55350, Note_on_c, 4, 65, 127
6, 55350, Note_on_c, 4, 68, 127
6, 55359, Note_on_c, 4, 65, 0
6, 55360, Note_on_c, 4, 68, 0
6, 55380, Note_on_c, 4, 68, 127
6, 55380, Note_on_c, 4, 65, 127
6, 55388, Note_on_c, 4, 65, 0
6, 55389, Note_on_c, 4, 68, 0
6, 55410, Note_on_c, 4, 68, 127
6, 55410, Note_on_c, 4, 65, 127
6, 55419, Note_on_c, 4, 65, 0
6, 55419, Note_on_c, 4, 68, 0
6, 55440, Note_on_c, 4, 68, 127
6, 55440, Note_on_c, 4, 65, 127
6, 55450, Note_on_c, 4, 65, 0
6, 55451, Note_on_c, 4, 68, 0
6, 55470, Note_on_c, 4, 68, 127
6, 55470, Note_on_c, 4, 65, 127
6, 55479, Note_on_c, 4, 65, 0
6, 55479, Note_on_c, 4, 68, 0
6, 55500, Note_on_c, 4, 68, 127
6, 55500, Note_on_c, 4, 65, 127
6, 55509, Note_on_c, 4, 65, 0
6, 55509, Note_on_c, 4, 68, 0
6, 55530, Note_on_c, 4, 68, 127
6, 55530, Note_on_c, 4, 65, 127
6, 55538, Note_on_c, 4, 65, 0
6, 55540, Note_on_c, 4, 68, 0
6, 55560, Note_on_c, 4, 65, 127
6, 55560, Note_on_c, 4, 68, 127
6, 55570, Note_on_c, 4, 65, 0
6, 55571, Note_on_c, 4, 68, 0
6, 55590, Note_on_c, 4, 68, 127
6, 55590, Note_on_c, 4, 65, 127
6, 55598, Note_on_c, 4, 65, 0
6, 55601, Note_on_c, 4, 68, 0
6, 55620, Note_on_c, 4, 68, 127
6, 55620, Note_on_c, 4, 65, 127
6, 55629, Note_on_c, 4, 68, 0
6, 55630, Note_on_c, 4, 65, 0
6, 55650, Note_on_c, 4, 68, 127
6, 55650, Note_on_c, 4, 65, 127
6, 55658, Note_on_c, 4, 65, 0
6, 55660, Note_on_c, 4, 68, 0
6, 55680, Note_on_c, 4, 65, 127
6, 55680, Note_on_c, 4, 70, 127
6, 55690, Note_on_c, 4, 65, 0
6, 55691, Note_on_c, 4, 70, 0
6, 55710, Note_on_c, 4, 65, 127
6, 55710, Note_on_c, 4, 70, 127
6, 55718, Note_on_c, 4, 65, 0
6, 55719, Note_on_c, 4, 70, 0
6, 55740, Note_on_c, 4, 70, 127
6, 55740, Note_on_c, 4, 65, 127
6, 55748, Note_on_c, 4, 70, 0
6, 55749, Note_on_c, 4, 65, 0
6, 55770, Note_on_c, 4, 70, 127
6, 55770, Note_on_c, 4, 65, 127
6, 55780, Note_on_c, 4, 65, 0
6, 55781, Note_on_c, 4, 70, 0
6, 55800, Note_on_c, 4, 65, 127
6, 55800, Note_on_c, 4, 70, 127
6, 55809, Note_on_c, 4, 70, 0
6, 55810, Note_on_c, 4, 65, 0
6, 55830, Note_on_c, 4, 70, 127
6, 55830, Note_on_c, 4, 65, 127
6, 55838, Note_on_c, 4, 65, 0
6, 55839, Note_on_c, 4, 70, 0
6, 55860, Note_on_c, 4, 70, 127
6, 55860, Note_on_c, 4, 65, 127
6, 55869, Note_on_c, 4, 65, 0
6, 55869, Note_on_c, 4, 70, 0
6, 55890, Note_on_c, 4, 70, 127
6, 55890, Note_on_c, 4, 65, 127
6, 55899, Note_on_c, 4, 65, 0
6, 55899, Note_on_c, 4, 70, 0
6, 55920, Note_on_c, 4, 70, 127
6, 55920, Note_on_c, 4, 65, 127
6, 55928, Note_on_c, 4, 65, 0
6, 55929, Note_on_c, 4, 70, 0
6, 55950, Note_on_c, 4, 70, 127
6, 55950, Note_on_c, 4, 65, 127
6, 55957, Note_on_c, 4, 65, 0
6, 55959, Note_on_c, 4, 70, 0
6, 55980, Note_on_c, 4, 65, 127
6, 55980, Note_on_c, 4, 70, 127
6, 55988, Note_on_c, 4, 70, 0
6, 55990, Note_on_c, 4, 65, 0
6, 56010, Note_on_c, 4, 70, 127
6, 56010, Note_on_c, 4, 65, 127
6, 56019, Note_on_c, 4, 65, 0
6, 56020, Note_on_c, 4, 70, 0
6, 56040, Note_on_c, 4, 70, 127
6, 56040, Note_on_c, 4, 65, 127
6, 56049, Note_on_c, 4, 65, 0
6, 56049, Note_on_c, 4, 70, 0
6, 56070, Note_on_c, 4, 70, 127
6, 56070, Note_on_c, 4, 65, 127
6, 56079, Note_on_c, 4, 65, 0
6, 56080, Note_on_c, 4, 70, 0
6, 56100, Note_on_c, 4, 70, 127
6, 56100, Note_on_c, 4, 65, 127
6, 56108, Note_on_c, 4, 65, 0
6, 56109, Note_on_c, 4, 70, 0
6, 56130, Note_on_c, 4, 70, 127
6, 56130, Note_on_c, 4, 65, 127
6, 56136, Note_on_c, 4, 70, 0
6, 56138, Note_on_c, 4, 65, 0
6, 56160, Note_on_c, 4, 65, 127
6, 56160, Note_on_c, 4, 68, 127
6, 56168, Note_on_c, 4, 68, 0
6, 56168, Note_on_c, 4, 65, 0
6, 56190, Note_on_c, 4, 68, 127
6, 56190, Note_on_c, 4, 65, 127
6, 56196, Note_on_c, 4, 65, 0
6, 56198, Note_on_c, 4, 68, 0
6, 56220, Note_on_c, 4, 68, 127
6, 56220, Note_on_c, 4, 65, 127
6, 56229, Note_on_c, 4, 65, 0
6, 56229, Note_on_c, 4, 68, 0
6, 56250, Note_on_c, 4, 68, 127
6, 56250, Note_on_c, 4, 65, 127
6, 56259, Note_on_c, 4, 65, 0
6, 56259, Note_on_c, 4, 68, 0
6, 56280, Note_on_c, 4, 68, 127
6, 56280, Note_on_c, 4, 65, 127
6, 56289, Note_on_c, 4, 65, 0
6, 56291, Note_on_c, 4, 68, 0
6, 56310, Note_on_c, 4, 65, 127
6, 56310, Note_on_c, 4, 68, 127
6, 56319, Note_on_c, 4, 65, 0
6, 56320, Note_on_c, 4, 68, 0
6, 56340, Note_on_c, 4, 68, 127
6, 56340, Note_on_c, 4, 65, 127
6, 56348, Note_on_c, 4, 65, 0
6, 56349, Note_on_c, 4, 68, 0
6, 56370, Note_on_c, 4, 68, 127
6, 56370, Note_on_c, 4, 65, 127
6, 56379, Note_on_c, 4, 65, 0
6, 56379, Note_on_c, 4, 68, 0
6, 56400, Note_on_c, 4, 68, 127
6, 56400, Note_on_c, 4, 65, 127
6, 56410, Note_on_c, 4, 65, 0
6, 56411, Note_on_c, 4, 68, 0
6, 56430, Note_on_c, 4, 68, 127
6, 56430, Note_on_c, 4, 65, 127
6, 56439, Note_on_c, 4, 65, 0
6, 56439, Note_on_c, 4, 68, 0
6, 56460, Note_on_c, 4, 68, 127
6, 56460, Note_on_c, 4, 65, 127
6, 56469, Note_on_c, 4, 65, 0
6, 56469, Note_on_c, 4, 68, 0
6, 56490, Note_on_c, 4, 68, 127
6, 56490, Note_on_c, 4, 65, 127
6, 56498, Note_on_c, 4, 65, 0
6, 56500, Note_on_c, 4, 68, 0
6, 56520, Note_on_c, 4, 65, 127
6, 56520, Note_on_c, 4, 68, 127
6, 56530, Note_on_c, 4, 65, 0
6, 56531, Note_on_c, 4, 68, 0
6, 56550, Note_on_c, 4, 68, 127
6, 56550, Note_on_c, 4, 65, 127
6, 56558, Note_on_c, 4, 65, 0
6, 56561, Note_on_c, 4, 68, 0
6, 56580, Note_on_c, 4, 68, 127
6, 56580, Note_on_c, 4, 65, 127
6, 56589, Note_on_c, 4, 68, 0
6, 56590, Note_on_c, 4, 65, 0
6, 56610, Note_on_c, 4, 68, 127
6, 56610, Note_on_c, 4, 65, 127
6, 56618, Note_on_c, 4, 65, 0
6, 56620, Note_on_c, 4, 68, 0
6, 56640, Note_on_c, 4, 65, 127
6, 56640, Note_on_c, 4, 70, 127
6, 56650, Note_on_c, 4, 65, 0
6, 56651, Note_on_c, 4, 70, 0
6, 56670, Note_on_c, 4, 65, 127
6, 56670, Note_on_c, 4, 70, 127
6, 56678, Note_on_c, 4, 65, 0
6, 56679, Note_on_c, 4, 70, 0
6, 56700, Note_on_c, 4, 70, 127
6, 56700, Note_on_c, 4, 65, 127
6, 56708, Note_on_c, 4, 70, 0
6, 56709, Note_on_c, 4, 65, 0
6, 56730, Note_on_c, 4, 70, 127
6, 56730, Note_on_c, 4, 65, 127
6, 56740, Note_on_c, 4, 65, 0
6, 56741, Note_on_c, 4, 70, 0
6, 56760, Note_on_c, 4, 65, 127
6, 56760, Note_on_c, 4, 70, 127
6, 56769, Note_on_c, 4, 70, 0
6, 56770, Note_on_c, 4, 65, 0
6, 56790, Note_on_c, 4, 70, 127
6, 56790, Note_on_c, 4, 65, 127
6, 56798, Note_on_c, 4, 65, 0
6, 56799, Note_on_c, 4, 70, 0
6, 56820, Note_on_c, 4, 70, 127
6, 56820, Note_on_c, 4, 65, 127
6, 56829, Note_on_c, 4, 65, 0
6, 56829, Note_on_c, 4, 70, 0
6, 56850, Note_on_c, 4, 70, 127
6, 56850, Note_on_c, 4, 65, 127
6, 56859, Note_on_c, 4, 65, 0
6, 56859, Note_on_c, 4, 70, 0
6, 56880, Note_on_c, 4, 70, 127
6, 56880, Note_on_c, 4, 65, 127
6, 56888, Note_on_c, 4, 65, 0
6, 56889, Note_on_c, 4, 70, 0
6, 56910, Note_on_c, 4, 70, 127
6, 56910, Note_on_c, 4, 65, 127
6, 56917, Note_on_c, 4, 65, 0
6, 56919, Note_on_c, 4, 70, 0
6, 56940, Note_on_c, 4, 65, 127
6, 56940, Note_on_c, 4, 70, 127
6, 56948, Note_on_c, 4, 70, 0
6, 56950, Note_on_c, 4, 65, 0
6, 56970, Note_on_c, 4, 70, 127
6, 56970, Note_on_c, 4, 65, 127
6, 56979, Note_on_c, 4, 65, 0
6, 56980, Note_on_c, 4, 70, 0
6, 57000, Note_on_c, 4, 70, 127
6, 57000, Note_on_c, 4, 65, 127
6, 57009, Note_on_c, 4, 65, 0
6, 57009, Note_on_c, 4, 70, 0
6, 57030, Note_on_c, 4, 70, 127
6, 57030, Note_on_c, 4, 65, 127
6, 57039, Note_on_c, 4, 65, 0
6, 57040, Note_on_c, 4, 70, 0
6, 57060, Note_on_c, 4, 70, 127
6, 57060, Note_on_c, 4, 65, 127
6, 57068, Note_on_c, 4, 65, 0
6, 57069, Note_on_c, 4, 70, 0
6, 57090, Note_on_c, 4, 70, 127
6, 57090, Note_on_c, 4, 65, 127
6, 57096, Note_on_c, 4, 70, 0
6, 57098, Note_on_c, 4, 65, 0
6, 57120, Note_on_c, 4, 65, 127
6, 57120, Note_on_c, 4, 68, 127
6, 57128, Note_on_c, 4, 68, 0
6, 57128, Note_on_c, 4, 65, 0
6, 57150, Note_on_c, 4, 68, 127
6, 57150, Note_on_c, 4, 65, 127
6, 57156, Note_on_c, 4, 65, 0
6, 57158, Note_on_c, 4, 68, 0
6, 57180, Note_on_c, 4, 68, 127
6, 57180, Note_on_c, 4, 65, 127
6, 57189, Note_on_c, 4, 65, 0
6, 57189, Note_on_c, 4, 68, 0
6, 57210, Note_on_c, 4, 68, 127
6, 57210, Note_on_c, 4, 65, 127
6, 57219, Note_on_c, 4, 65, 0
6, 57219, Note_on_c, 4, 68, 0
6, 57240, Note_on_c, 4, 68, 127
6, 57240, Note_on_c, 4, 65, 127
6, 57249, Note_on_c, 4, 65, 0
6, 57251, Note_on_c, 4, 68, 0
6, 57270, Note_on_c, 4, 65, 127
6, 57270, Note_on_c, 4, 68, 127
6, 57279, Note_on_c, 4, 65, 0
6, 57280, Note_on_c, 4, 68, 0
6, 57300, Note_on_c, 4, 68, 127
6, 57300, Note_on_c, 4, 65, 127
6, 57308, Note_on_c, 4, 65, 0
6, 57309, Note_on_c, 4, 68, 0
6, 57330, Note_on_c, 4, 68, 127
6, 57330, Note_on_c, 4, 65, 127
6, 57339, Note_on_c, 4, 65, 0
6, 57339, Note_on_c, 4, 68, 0
6, 57360, Note_on_c, 4, 68, 127
6, 57360, Note_on_c, 4, 65, 127
6, 57370, Note_on_c, 4, 65, 0
6, 57371, Note_on_c, 4, 68, 0
6, 57390, Note_on_c, 4, 68, 127
6, 57390, Note_on_c, 4, 65, 127
6, 57399, Note_on_c, 4, 65, 0
6, 57399, Note_on_c, 4, 68, 0
6, 57420, Note_on_c, 4, 68, 127
6, 57420, Note_on_c, 4, 65, 127
6, 57429, Note_on_c, 4, 65, 0
6, 57429, Note_on_c, 4, 68, 0
6, 57450, Note_on_c, 4, 68, 127
6, 57450, Note_on_c, 4, 65, 127
6, 57458, Note_on_c, 4, 65, 0
6, 57460, Note_on_c, 4, 68, 0
6, 57480, Note_on_c, 4, 65, 127
6, 57480, Note_on_c, 4, 68, 127
6, 57490, Note_on_c, 4, 65, 0
6, 57491, Note_on_c, 4, 68, 0
6, 57510, Note_on_c, 4, 68, 127
6, 57510, Note_on_c, 4, 65, 127
6, 57518, Note_on_c, 4, 65, 0
6, 57521, Note_on_c, 4, 68, 0
6, 57540, Note_on_c, 4, 68, 127
6, 57540, Note_on_c, 4, 65, 127
6, 57549, Note_on_c, 4, 68, 0
6, 57550, Note_on_c, 4, 65, 0
6, 57570, Note_on_c, 4, 68, 127
6, 57570, Note_on_c, 4, 65, 127
6, 57578, Note_on_c, 4, 65, 0
6, 57580, Note_on_c, 4, 68, 0
6, 57600, Note_on_c, 4, 65, 127
6, 57600, Note_on_c, 4, 70, 127
6, 57610, Note_on_c, 4, 65, 0
6, 57611, Note_on_c, 4, 70, 0
6, 57630, Note_on_c, 4, 65, 127
6, 57630, Note_on_c, 4, 70, 127
6, 57638, Note_on_c, 4, 65, 0
6, 57639, Note_on_c, 4, 70, 0
6, 57660, Note_on_c, 4, 70, 127
6, 57660, Note_on_c, 4, 65, 127
6, 57668, Note_on_c, 4, 70, 0
6, 57669, Note_on_c, 4, 65, 0
6, 57690, Note_on_c, 4, 70, 127
6, 57690, Note_on_c, 4, 65, 127
6, 57700, Note_on_c, 4, 65, 0
6, 57701, Note_on_c, 4, 70, 0
6, 57720, Note_on_c, 4, 65, 127
6, 57720, Note_on_c, 4, 70, 127
6, 57729, Note_on_c, 4, 70, 0
6, 57730, Note_on_c, 4, 65, 0
6, 57750, Note_on_c, 4, 70, 127
6, 57750, Note_on_c, 4, 65, 127
6, 57758, Note_on_c, 4, 65, 0
6, 57759, Note_on_c, 4, 70, 0
6, 57780, Note_on_c, 4, 70, 127
6, 57780, Note_on_c, 4, 65, 127
6, 57789, Note_on_c, 4, 65, 0
6, 57789, Note_on_c, 4, 70, 0
6, 57810, Note_on_c, 4, 70, 127
6, 57810, Note_on_c, 4, 65, 127
6, 57819, Note_on_c, 4, 65, 0
6, 57819, Note_on_c, 4, 70, 0
6, 57840, Note_on_c, 4, 70, 127
6, 57840, Note_on_c, 4, 65, 127
6, 57848, Note_on_c, 4, 65, 0
6, 57849, Note_on_c, 4, 70, 0
6, 57870, Note_on_c, 4, 70, 127
6, 57870, Note_on_c, 4, 65, 127
6, 57877, Note_on_c, 4, 65, 0
6, 57879, Note_on_c, 4, 70, 0
6, 57900, Note_on_c, 4, 65, 127
6, 57900, Note_on_c, 4, 70, 127
6, 57908, Note_on_c, 4, 70, 0
6, 57910, Note_on_c, 4, 65, 0
6, 57930, Note_on_c, 4, 70, 127
6, 57930, Note_on_c, 4, 65, 127
6, 57939, Note_on_c, 4, 65, 0
6, 57940, Note_on_c, 4, 70, 0
6, 57960, Note_on_c, 4, 70, 127
6, 57960, Note_on_c, 4, 65, 127
6, 57969, Note_on_c, 4, 65, 0
6, 57969, Note_on_c, 4, 70, 0
6, 57990, Note_on_c, 4, 70, 127
6, 57990, Note_on_c, 4, 65, 127
6, 57999, Note_on_c, 4, 65, 0
6, 58000, Note_on_c, 4, 70, 0
6, 58020, Note_on_c, 4, 70, 127
6, 58020, Note_on_c, 4, 65, 127
6, 58028, Note_on_c, 4, 65, 0
6, 58029, Note_on_c, 4, 70, 0
6, 58050, Note_on_c, 4, 70, 127
6, 58050, Note_on_c, 4, 65, 127
6, 58056, Note_on_c, 4, 70, 0
6, 58058, Note_on_c, 4, 65, 0
6, 58080, Note_on_c, 4, 65, 127
6, 58080, Note_on_c, 4, 68, 127
6, 58088, Note_on_c, 4, 68, 0
6, 58088, Note_on_c, 4, 65, 0
6, 58110, Note_on_c, 4, 68, 127
6, 58110, Note_on_c, 4, 65, 127
6, 58116, Note_on_c, 4, 65, 0
6, 58118, Note_on_c, 4, 68, 0
6, 58140, Note_on_c, 4, 68, 127
6, 58140, Note_on_c, 4, 65, 127
6, 58149, Note_on_c, 4, 65, 0
6, 58149, Note_on_c, 4, 68, 0
6, 58170, Note_on_c, 4, 68, 127
6, 58170, Note_on_c, 4, 65, 127
6, 58179, Note_on_c, 4, 65, 0
6, 58179, Note_on_c, 4, 68, 0
6, 58200, Note_on_c, 4, 68, 127
6, 58200, Note_on_c, 4, 65, 127
6, 58209, Note_on_c, 4, 65, 0
6, 58211, Note_on_c, 4, 68, 0
6, 58230, Note_on_c, 4, 65, 127
6, 58230, Note_on_c, 4, 68, 127
6, 58239, Note_on_c, 4, 65, 0
6, 58240, Note_on_c, 4, 68, 0
6, 58260, Note_on_c, 4, 68, 127
6, 58260, Note_on_c, 4, 65, 127
6, 58268, Note_on_c, 4, 65, 0
6, 58269, Note_on_c, 4, 68, 0
6, 58290, Note_on_c, 4, 68, 127
6, 58290, Note_on_c, 4, 65, 127
6, 58299, Note_on_c, 4, 65, 0
6, 58299, Note_on_c, 4, 68, 0
6, 58320, Note_on_c, 4, 68, 127
6, 58320, Note_on_c, 4, 65, 127
6, 58330, Note_on_c, 4, 65, 0
6, 58331, Note_on_c, 4, 68, 0
6, 58350, Note_on_c, 4, 68, 127
6, 58350, Note_on_c, 4, 65, 127
6, 58359, Note_on_c, 4, 65, 0
6, 58359, Note_on_c, 4, 68, 0
6, 58380, Note_on_c, 4, 68, 127
6, 58380, Note_on_c, 4, 65, 127
6, 58389, Note_on_c, 4, 65, 0
6, 58389, Note_on_c, 4, 68, 0
6, 58410, Note_on_c, 4, 68, 127
6, 58410, Note_on_c, 4, 65, 127
6, 58418, Note_on_c, 4, 65, 0
6, 58420, Note_on_c, 4, 68, 0
6, 58440, Note_on_c, 4, 65, 127
6, 58440, Note_on_c, 4, 68, 127
6, 58450, Note_on_c, 4, 65, 0
6, 58451, Note_on_c, 4, 68, 0
6, 58470, Note_on_c, 4, 68, 127
6, 58470, Note_on_c, 4, 65, 127
6, 58478, Note_on_c, 4, 65, 0
6, 58481, Note_on_c, 4, 68, 0
6, 58500, Note_on_c, 4, 68, 127
6, 58500, Note_on_c, 4, 65, 127
6, 58509, Note_on_c, 4, 68, 0
6, 58510, Note_on_c, 4, 65, 0
6, 58530, Note_on_c, 4, 68, 127
6, 58530, Note_on_c, 4, 65, 127
6, 58538, Note_on_c, 4, 65, 0
6, 58540, Note_on_c, 4, 68, 0
6, 58560, Note_on_c, 4, 65, 127
6, 58560, Note_on_c, 4, 70, 127
6, 58570, Note_on_c, 4, 65, 0
6, 58571, Note_on_c, 4, 70, 0
6, 58590, Note_on_c, 4, 65, 127
6, 58590, Note_on_c, 4, 70, 127
6, 58598, Note_on_c, 4, 65, 0
6, 58599, Note_on_c, 4, 70, 0
6, 58620, Note_on_c, 4, 70, 127
6, 58620, Note_on_c, 4, 65, 127
6, 58628, Note_on_c, 4, 70, 0
6, 58629, Note_on_c, 4, 65, 0
6, 58650, Note_on_c, 4, 70, 127
6, 58650, Note_on_c, 4, 65, 127
6, 58660, Note_on_c, 4, 65, 0
6, 58661, Note_on_c, 4, 70, 0
6, 58680, Note_on_c, 4, 65, 127
6, 58680, Note_on_c, 4, 70, 127
6, 58689, Note_on_c, 4, 70, 0
6, 58690, Note_on_c, 4, 65, 0
6, 58710, Note_on_c, 4, 70, 127
6, 58710, Note_on_c, 4, 65, 127
6, 58718, Note_on_c, 4, 65, 0
6, 58719, Note_on_c, 4, 70, 0
6, 58740, Note_on_c, 4, 70, 127
6, 58740, Note_on_c, 4, 65, 127
6, 58749, Note_on_c, 4, 65, 0
6, 58749, Note_on_c, 4, 70, 0
6, 58770, Note_on_c, 4, 70, 127
6, 58770, Note_on_c, 4, 65, 127
6, 58779, Note_on_c, 4, 65, 0
6, 58779, Note_on_c, 4, 70, 0
6, 58800, Note_on_c, 4, 70, 127
6, 58800, Note_on_c, 4, 65, 127
6, 58808, Note_on_c, 4, 65, 0
6, 58809, Note_on_c, 4, 70, 0
6, 58830, Note_on_c, 4, 70, 127
6, 58830, Note_on_c, 4, 65, 127
6, 58837, Note_on_c, 4, 65, 0
6, 58839, Note_on_c, 4, 70, 0
6, 58860, Note_on_c, 4, 65, 127
6, 58860, Note_on_c, 4, 70, 127
6, 58868, Note_on_c, 4, 70, 0
6, 58870, Note_on_c, 4, 65, 0
6, 58890, Note_on_c, 4, 70, 127
6, 58890, Note_on_c, 4, 65, 127
6, 58899, Note_on_c, 4, 65, 0
6, 58900, Note_on_c, 4, 70, 0
6, 58920, Note_on_c, 4, 70, 127
6, 58920, Note_on_c, 4, 65, 127
6, 58929, Note_on_c, 4, 65, 0
6, 58929, Note_on_c, 4, 70, 0
6, 58950, Note_on_c, 4, 70, 127
6, 58950, Note_on_c, 4, 65, 127
6, 58959, Note_on_c, 4, 65, 0
6, 58960, Note_on_c, 4, 70, 0
6, 58980, Note_on_c, 4, 70, 127
6, 58980, Note_on_c, 4, 65, 127
6, 58988, Note_on_c, 4, 65, 0
6, 58989, Note_on_c, 4, 70, 0
6, 59010, Note_on_c, 4, 70, 127
6, 59010, Note_on_c, 4, 65, 127
6, 59016, Note_on_c, 4, 70, 0
6, 59018, Note_on_c, 4, 65, 0
6, 59040, Note_on_c, 4, 65, 127
6, 59040, Note_on_c, 4, 68, 127
6, 59048, Note_on_c, 4, 68, 0
6, 59048, Note_on_c, 4, 65, 0
6, 59070, Note_on_c, 4, 68, 127
6, 59070, Note_on_c, 4, 65, 127
6, 59076, Note_on_c, 4, 65, 0
6, 59078, Note_on_c, 4, 68, 0
6, 59100, Note_on_c, 4, 68, 127
6, 59100, Note_on_c, 4, 65, 127
6, 59109, Note_on_c, 4, 65, 0
6, 59109, Note_on_c, 4, 68, 0
6, 59130, Note_on_c, 4, 68, 127
6, 59130, Note_on_c, 4, 65, 127
6, 59139, Note_on_c, 4, 65, 0
6, 59139, Note_on_c, 4, 68, 0
6, 59160, Note_on_c, 4, 68, 127
6, 59160, Note_on_c, 4, 65, 127
6, 59169, Note_on_c, 4, 65, 0
6, 59171, Note_on_c, 4, 68, 0
6, 59190, Note_on_c, 4, 65, 127
6, 59190, Note_on_c, 4, 68, 127
6, 59199, Note_on_c, 4, 65, 0
6, 59200, Note_on_c, 4, 68, 0
6, 59220, Note_on_c, 4, 68, 127
6, 59220, Note_on_c, 4, 65, 127
6, 59228, Note_on_c, 4, 65, 0
6, 59229, Note_on_c, 4, 68, 0
6, 59250, Note_on_c, 4, 68, 127
6, 59250, Note_on_c, 4, 65, 127
6, 59259, Note_on_c, 4, 65, 0
6, 59259, Note_on_c, 4, 68, 0
6, 59280, Note_on_c, 4, 68, 127
6, 59280, Note_on_c, 4, 65, 127
6, 59290, Note_on_c, 4, 65, 0
6, 59291, Note_on_c, 4, 68, 0
6, 59310, Note_on_c, 4, 68, 127
6, 59310, Note_on_c, 4, 65, 127
6, 59319, Note_on_c, 4, 65, 0
6, 59319, Note_on_c, 4, 68, 0
6, 59340, Note_on_c, 4, 68, 127
6, 59340, Note_on_c, 4, 65, 127
6, 59349, Note_on_c, 4, 65, 0
6, 59349, Note_on_c, 4, 68, 0
6, 59370, Note_on_c, 4, 68, 127
6, 59370, Note_on_c, 4, 65, 127
6, 59378, Note_on_c, 4, 65, 0
6, 59380, Note_on_c, 4, 68, 0
6, 59400, Note_on_c, 4, 65, 127
6, 59400, Note_on_c, 4, 68, 127
6, 59410, Note_on_c, 4, 65, 0
6, 59411, Note_on_c, 4, 68, 0
6, 59430, Note_on_c, 4, 68, 127
6, 59430, Note_on_c, 4, 65, 127
6, 59438, Note_on_c, 4, 65, 0
6, 59441, Note_on_c, 4, 68, 0
6, 59460, Note_on_c, 4, 68, 127
6, 59460, Note_on_c, 4, 65, 127
6, 59469, Note_on_c, 4, 68, 0
6, 59470, Note_on_c, 4, 65, 0
6, 59490, Note_on_c, 4, 68, 127
6, 59490, Note_on_c, 4, 65, 127
6, 59498, Note_on_c, 4, 65, 0
6, 59500, Note_on_c, 4, 68, 0
6, 59520, Note_on_c, 4, 65, 127
6, 59520, Note_on_c, 4, 70, 127
6, 59530, Note_on_c, 4, 65, 0
6, 59531, Note_on_c, 4, 70, 0
6, 59550, Note_on_c, 4, 65, 127
6, 59550, Note_on_c, 4, 70, 127
6, 59558, Note_on_c, 4, 65, 0
6, 59559, Note_on_c, 4, 70, 0
6, 59580, Note_on_c, 4, 70, 127
6, 59580, Note_on_c, 4, 65, 127
6, 59588, Note_on_c, 4, 70, 0
6, 59589, Note_on_c, 4, 65, 0
6, 59610, Note_on_c, 4, 70, 127
6, 59610, Note_on_c, 4, 65, 127
6, 59620, Note_on_c, 4, 65, 0
6, 59621, Note_on_c, 4, 70, 0
6, 59640, Note_on_c, 4, 65, 127
6, 59640, Note_on_c, 4, 70, 127
6, 59649, Note_on_c, 4, 70, 0
6, 59650, Note_on_c, 4, 65, 0
6, 59670, Note_on_c, 4, 70, 127
6, 59670, Note_on_c, 4, 65, 127
6, 59678, Note_on_c, 4, 65, 0
6, 59679, Note_on_c, 4, 70, 0
6, 59700, Note_on_c, 4, 70, 127
6, 59700, Note_on_c, 4, 65, 127
6, 59709, Note_on_c, 4, 65, 0
6, 59709, Note_on_c, 4, 70, 0
6, 59730, Note_on_c, 4, 70, 127
6, 59730, Note_on_c, 4, 65, 127
6, 59739, Note_on_c, 4, 65, 0
6, 59739, Note_on_c, 4, 70, 0
6, 59760, Note_on_c, 4, 70, 127
6, 59760, Note_on_c, 4, 65, 127
6, 59768, Note_on_c, 4, 65, 0
6, 59769, Note_on_c, 4, 70, 0
6, 59790, Note_on_c, 4, 70, 127
6, 59790, Note_on_c, 4, 65, 127
6, 59797, Note_on_c, 4, 65, 0
6, 59799, Note_on_c, 4, 70, 0
6, 59820, Note_on_c, 4, 65, 127
6, 59820, Note_on_c, 4, 70, 127
6, 59828, Note_on_c, 4, 70, 0
6, 59830, Note_on_c, 4, 65, 0
6, 59850, Note_on_c, 4, 70, 127
6, 59850, Note_on_c, 4, 65, 127
6, 59859, Note_on_c, 4, 65, 0
6, 59860, Note_on_c, 4, 70, 0
6, 59880, Note_on_c, 4, 70, 127
6, 59880, Note_on_c, 4, 65, 127
6, 59889, Note_on_c, 4, 65, 0
6, 59889, Note_on_c, 4, 70, 0
6, 59910, Note_on_c, 4, 70, 127
6, 59910, Note_on_c, 4, 65, 127
6, 59919, Note_on_c, 4, 65, 0
6, 59920, Note_on_c, 4, 70, 0
6, 59940, Note_on_c, 4, 70, 127
6, 59940, Note_on_c, 4, 65, 127
6, 59948, Note_on_c, 4, 65, 0
6, 59949, Note_on_c, 4, 70, 0
6, 59970, Note_on_c, 4, 70, 127
6, 59970, Note_on_c, 4, 65, 127
6, 59976, Note_on_c, 4, 70, 0
6, 59978, Note_on_c, 4, 65, 0
6, 60000, Note_on_c, 4, 65, 127
6, 60000, Note_on_c, 4, 68, 127
6, 60008, Note_on_c, 4, 68, 0
6, 60008, Note_on_c, 4, 65, 0
6, 60030, Note_on_c, 4, 68, 127
6, 60030, Note_on_c, 4, 65, 127
6, 60036, Note_on_c, 4, 65, 0
6, 60038, Note_on_c, 4, 68, 0
6, 60060, Note_on_c, 4, 68, 127
6, 60060, Note_on_c, 4, 65, 127
6, 60069, Note_on_c, 4, 65, 0
6, 60069, Note_on_c, 4, 68, 0
6, 60090, Note_on_c, 4, 68, 127
6, 60090, Note_on_c, 4, 65, 127
6, 60099, Note_on_c, 4, 65, 0
6, 60099, Note_on_c, 4, 68, 0
6, 60120, Note_on_c, 4, 68, 127
6, 60120, Note_on_c, 4, 65, 127
6, 60129, Note_on_c, 4, 65, 0
6, 60131, Note_on_c, 4, 68, 0
6, 60150, Note_on_c, 4, 65, 127
6, 60150, Note_on_c, 4, 68, 127
6, 60159, Note_on_c, 4, 65, 0
6, 60160, Note_on_c, 4, 68, 0
6, 60180, Note_on_c, 4, 68, 127
6, 60180, Note_on_c, 4, 65, 127
6, 60188, Note_on_c, 4, 65, 0
6, 60189, Note_on_c, 4, 68, 0
6, 60210, Note_on_c, 4, 68, 127
6, 60210, Note_on_c, 4, 65, 127
6, 60219, Note_on_c, 4, 65, 0
6, 60219, Note_on_c, 4, 68, 0
6, 60240, Note_on_c, 4, 68, 127
6, 60240, Note_on_c, 4, 65, 127
6, 60250, Note_on_c, 4, 65, 0
6, 60251, Note_on_c, 4, 68, 0
6, 60270, Note_on_c, 4, 68, 127
6, 60270, Note_on_c, 4, 65, 127
6, 60279, Note_on_c, 4, 65, 0
6, 60279, Note_on_c, 4, 68, 0
6, 60300, Note_on_c, 4, 68, 127
6, 60300, Note_on_c, 4, 65, 127
6, 60309, Note_on_c, 4, 65, 0
6, 60309, Note_on_c, 4, 68, 0
6, 60330, Note_on_c, 4, 68, 127
6, 60330, Note_on_c, 4, 65, 127
6, 60338, Note_on_c, 4, 65, 0
6, 60340, Note_on_c, 4, 68, 0
6, 60360, Note_on_c, 4, 65, 127
6, 60360, Note_on_c, 4, 68, 127
6, 60370, Note_on_c, 4, 65, 0
6, 60371, Note_on_c, 4, 68, 0
6, 60390, Note_on_c, 4, 68, 127
6, 60390, Note_on_c, 4, 65, 127
6, 60398, Note_on_c, 4, 65, 0
6, 60401, Note_on_c, 4, 68, 0
6, 60420, Note_on_c, 4, 68, 127
6, 60420, Note_on_c, 4, 65, 127
6, 60429, Note_on_c, 4, 68, 0
6, 60430, Note_on_c, 4, 65, 0
6, 60450, Note_on_c, 4, 68, 127
6, 60450, Note_on_c, 4, 65, 127
6, 60458, Note_on_c, 4, 65, 0
6, 60460, Note_on_c, 4, 68, 0
6, 60480, Note_on_c, 4, 65, 127
6, 60480, Note_on_c, 4, 70, 127
6, 60490, Note_on_c, 4, 65, 0
6, 60491, Note_on_c, 4, 70, 0
6, 60510, Note_on_c, 4, 65, 127
6, 60510, Note_on_c, 4, 70, 127
6, 60518, Note_on_c, 4, 65, 0
6, 60519, Note_on_c, 4, 70, 0
6, 60540, Note_on_c, 4, 70, 127
6, 60540, Note_on_c, 4, 65, 127
6, 60548, Note_on_c, 4, 70, 0
6, 60549, Note_on_c, 4, 65, 0
6, 60570, Note_on_c, 4, 70, 127
6, 60570, Note_on_c, 4, 65, 127
6, 60580, Note_on_c, 4, 65, 0
6, 60581, Note_on_c, 4, 70, 0
6, 60600, Note_on_c, 4, 65, 127
6, 60600, Note_on_c, 4, 70, 127
6, 60609, Note_on_c, 4, 70, 0
6, 60610, Note_on_c, 4, 65, 0
6, 60630, Note_on_c, 4, 70, 127
6, 60630, Note_on_c, 4, 65, 127
6, 60638, Note_on_c, 4, 65, 0
6, 60639, Note_on_c, 4, 70, 0
6, 60660, Note_on_c, 4, 70, 127
6, 60660, Note_on_c, 4, 65, 127
6, 60669, Note_on_c, 4, 65, 0
6, 60669, Note_on_c, 4, 70, 0
6, 60690, Note_on_c, 4, 70, 127
6, 60690, Note_on_c, 4, 65, 127
6, 60699, Note_on_c, 4, 65, 0
6, 60699, Note_on_c, 4, 70, 0
6, 60720, Note_on_c, 4, 70, 127
6, 60720, Note_on_c, 4, 65, 127
6, 60728, Note_on_c, 4, 65, 0
6, 60729, Note_on_c, 4, 70, 0
6, 60750, Note_on_c, 4, 70, 127
6, 60750, Note_on_c, 4, 65, 127
6, 60757, Note_on_c, 4, 65, 0
6, 60759, Note_on_c, 4, 70, 0
6, 60780, Note_on_c, 4, 65, 127
6, 60780, Note_on_c, 4, 70, 127
6, 60788, Note_on_c, 4, 70, 0
6, 60790, Note_on_c, 4, 65, 0
6, 60810, Note_on_c, 4, 70, 127
6, 60810, Note_on_c, 4, 65, 127
6, 60819, Note_on_c, 4, 65, 0
6, 60820, Note_on_c, 4, 70, 0
6, 60840, Note_on_c, 4, 70, 127
6, 60840, Note_on_c, 4, 65, 127
6, 60849, Note_on_c, 4, 65, 0
6, 60849, Note_on_c, 4, 70, 0
6, 60870, Note_on_c, 4, 70, 127
6, 60870, Note_on_c, 4, 65, 127
6, 60879, Note_on_c, 4, 65, 0
6, 60880, Note_on_c, 4, 70, 0
6, 60900, Note_on_c, 4, 70, 127
6, 60900, Note_on_c, 4, 65, 127
6, 60908, Note_on_c, 4, 65, 0
6, 60909, Note_on_c, 4, 70, 0
6, 60930, Note_on_c, 4, 70, 127
6, 60930, Note_on_c, 4, 65, 127
6, 60936, Note_on_c, 4, 70, 0
6, 60938, Note_on_c, 4, 65, 0
6, 60960, Note_on_c, 4, 65, 127
6, 60960, Note_on_c, 4, 68, 127
6, 60968, Note_on_c, 4, 68, 0
6, 60968, Note_on_c, 4, 65, 0
6, 60990, Note_on_c, 4, 68, 127
6, 60990, Note_on_c, 4, 65, 127
6, 60996, Note_on_c, 4, 65, 0
6, 60998, Note_on_c, 4, 68, 0
6, 61020, Note_on_c, 4, 68, 127
6, 61020, Note_on_c, 4, 65, 127
6, 61029, Note_on_c, 4, 65, 0
6, 61029, Note_on_c, 4, 68, 0
6, 61050, Note_on_c, 4, 68, 127
6, 61050, Note_on_c, 4, 65, 127
6, 61059, Note_on_c, 4, 65, 0
6, 61059, Note_on_c, 4, 68, 0
6, 61080, Note_on_c, 4, 68, 127
6, 61080, Note_on_c, 4, 65, 127
6, 61089, Note_on_c, 4, 65, 0
6, 61091, Note_on_c, 4, 68, 0
6, 61110, Note_on_c, 4, 65, 127
6, 61110, Note_on_c, 4, 68, 127
6, 61119, Note_on_c, 4, 65, 0
6, 61120, Note_on_c, 4, 68, 0
6, 61140, Note_on_c, 4, 68, 127
6, 61140, Note_on_c, 4, 65, 127
6, 61148, Note_on_c, 4, 65, 0
6, 61149, Note_on_c, 4, 68, 0
6, 61170, Note_on_c, 4, 68, 127
6, 61170, Note_on_c, 4, 65, 127
6, 61179, Note_on_c, 4, 65, 0
6, 61179, Note_on_c, 4, 68, 0
6, 61200, Note_on_c, 4, 68, 127
6, 61200, Note_on_c, 4, 65, 127
6, 61210, Note_on_c, 4, 65, 0
6, 61211, Note_on_c, 4, 68, 0
6, 61230, Note_on_c, 4, 68, 127
6, 61230, Note_on_c, 4, 65, 127
6, 61239, Note_on_c, 4, 65, 0
6, 61239, Note_on_c, 4, 68, 0
6, 61260, Note_on_c, 4, 68, 127
6, 61260, Note_on_c, 4, 65, 127
6, 61269, Note_on_c, 4, 65, 0
6, 61269, Note_on_c, 4, 68, 0
6, 61290, Note_on_c, 4, 68, 127
6, 61290, Note_on_c, 4, 65, 127
6, 61298, Note_on_c, 4, 65, 0
6, 61300, Note_on_c, 4, 68, 0
6, 61320, Note_on_c, 4, 65, 127
6, 61320, Note_on_c, 4, 68, 127
6, 61330, Note_on_c, 4, 65, 0
6, 61331, Note_on_c, 4, 68, 0
6, 61350, Note_on_c, 4, 68, 127
6, 61350, Note_on_c, 4, 65, 127
6, 61358, Note_on_c, 4, 65, 0
6, 61361, Note_on_c, 4, 68, 0
6, 61380, Note_on_c, 4, 68, 127
6, 61380, Note_on_c, 4, 65, 127
6, 61389, Note_on_c, 4, 68, 0
6, 61390, Note_on_c, 4, 65, 0
6, 61410, Note_on_c, 4, 68, 127
6, 61410, Note_on_c, 4, 65, 127
6, 61418, Note_on_c, 4, 65, 0
6, 61420, Note_on_c, 4, 68, 0
6, 61440, Note_on_c, 4, 65, 127
6, 61440, Note_on_c, 4, 70, 127
6, 61450, Note_on_c, 4, 65, 0
6, 61451, Note_on_c, 4, 70, 0
6, 61470, Note_on_c, 4, 65, 127
6, 61470, Note_on_c, 4, 70, 127
6, 61478, Note_on_c, 4, 65, 0
6, 61479, Note_on_c, 4, 70, 0
6, 61500, Note_on_c, 4, 70, 127
6, 61500, Note_on_c, 4, 65, 127
6, 61508, Note_on_c, 4, 70, 0
6, 61509, Note_on_c, 4, 65, 0
6, 61530, Note_on_c, 4, 70, 127
6, 61530, Note_on_c, 4, 65, 127
6, 61540, Note_on_c, 4, 65, 0
6, 61541, Note_on_c, 4, 70, 0
6, 61560, Note_on_c, 4, 65, 127
6, 61560, Note_on_c, 4, 70, 127
6, 61569, Note_on_c, 4, 70, 0
6, 61570, Note_on_c, 4, 65, 0
6, 61590, Note_on_c, 4, 70, 127
6, 61590, Note_on_c, 4, 65, 127
6, 61598, Note_on_c, 4, 65, 0
6, 61599, Note_on_c, 4, 70, 0
6, 61620, Note_on_c, 4, 70, 127
6, 61620, Note_on_c, 4, 65, 127
6, 61629, Note_on_c, 4, 65, 0
6, 61629, Note_on_c, 4, 70, 0
6, 61650, Note_on_c, 4, 70, 127
6, 61650, Note_on_c, 4, 65, 127
6, 61659, Note_on_c, 4, 65, 0
6, 61659, Note_on_c, 4, 70, 0
6, 61680, Note_on_c, 4, 70, 127
6, 61680, Note_on_c, 4, 65, 127
6, 61688, Note_on_c, 4, 65, 0
6, 61689, Note_on_c, 4, 70, 0
6, 61710, Note_on_c, 4, 70, 127
6, 61710, Note_on_c, 4, 65, 127
6, 61717, Note_on_c, 4, 65, 0
6, 61719, Note_on_c, 4, 70, 0
6, 61740, Note_on_c, 4, 65, 127
6, 61740, Note_on_c, 4, 70, 127
6, 61748, Note_on_c, 4, 70, 0
6, 61750, Note_on_c, 4, 65, 0
6, 61770, Note_on_c, 4, 70, 127
6, 61770, Note_on_c, 4, 65, 127
6, 61779, Note_on_c, 4, 65, 0
6, 61780, Note_on_c, 4, 70, 0
6, 61800, Note_on_c, 4, 70, 127
6, 61800, Note_on_c, 4, 65, 127
6, 61809, Note_on_c, 4, 65, 0
6, 61809, Note_on_c, 4, 70, 0
6, 61830, Note_on_c, 4, 70, 127
6, 61830, Note_on_c, 4, 65, 127
6, 61839, Note_on_c, 4, 65, 0
6, 61840, Note_on_c, 4, 70, 0
6, 61860, Note_on_c, 4, 70, 127
6, 61860, Note_on_c, 4, 65, 127
6, 61868, Note_on_c, 4, 65, 0
6, 61869, Note_on_c, 4, 70, 0
6, 61890, Note_on_c, 4, 70, 127
6, 61890, Note_on_c, 4, 65, 127
6, 61896, Note_on_c, 4, 70, 0
6, 61898, Note_on_c, 4, 65, 0
6, 61920, Note_on_c, 4, 65, 127
6, 61920, Note_on_c, 4, 68, 127
6, 61928, Note_on_c, 4, 68, 0
6, 61928, Note_on_c, 4, 65, 0
6, 61950, Note_on_c, 4, 68, 127
6, 61950, Note_on_c, 4, 65, 127
6, 61956, Note_on_c, 4, 65, 0
6, 61958, Note_on_c, 4, 68, 0
6, 61980, Note_on_c, 4, 68, 127
6, 61980, Note_on_c, 4, 65, 127
6, 61989, Note_on_c, 4, 65, 0
6, 61989, Note_on_c, 4, 68, 0
6, 62010, Note_on_c, 4, 68, 127
6, 62010, Note_on_c, 4, 65, 127
6, 62019, Note_on_c, 4, 65, 0
6, 62019, Note_on_c, 4, 68, 0
6, 62040, Note_on_c, 4, 68, 127
6, 62040, Note_on_c, 4, 65, 127
6, 62049, Note_on_c, 4, 65, 0
6, 62051, Note_on_c, 4, 68, 0
6, 62070, Note_on_c, 4, 65, 127
6, 62070, Note_on_c, 4, 68, 127
6, 62079, Note_on_c, 4, 65, 0
6, 62080, Note_on_c, 4, 68, 0
6, 62100, Note_on_c, 4, 68, 127
6, 62100, Note_on_c, 4, 65, 127
6, 62108, Note_on_c, 4, 65, 0
6, 62109, Note_on_c, 4, 68, 0
6, 62130, Note_on_c, 4, 68, 127
6, 62130, Note_on_c, 4, 65, 127
6, 62139, Note_on_c, 4, 65, 0
6, 62139, Note_on_c, 4, 68, 0
6, 62160, Note_on_c, 4, 68, 127
6, 62160, Note_on_c, 4, 65, 127
6, 62170, Note_on_c, 4, 65, 0
6, 62171, Note_on_c, 4, 68, 0
6, 62190, Note_on_c, 4, 68, 127
6, 62190, Note_on_c, 4, 65, 127
6, 62199, Note_on_c, 4, 65, 0
6, 62199, Note_on_c, 4, 68, 0
6, 62220, Note_on_c, 4, 68, 127
6, 62220, Note_on_c, 4, 65, 127
6, 62229, Note_on_c, 4, 65, 0
6, 62229, Note_on_c, 4, 68, 0
6, 62250, Note_on_c, 4, 68, 127
6, 62250, Note_on_c, 4, 65, 127
6, 62258, Note_on_c, 4, 65, 0
6, 62260, Note_on_c, 4, 68, 0
6, 62280, Note_on_c, 4, 65, 127
6, 62280, Note_on_c, 4, 68, 127
6, 62290, Note_on_c, 4, 65, 0
6, 62291, Note_on_c, 4, 68, 0
6, 62310, Note_on_c, 4, 68, 127
6, 62310, Note_on_c, 4, 65, 127
6, 62318, Note_on_c, 4, 65, 0
6, 62321, Note_on_c, 4, 68, 0
6, 62340, Note_on_c, 4, 68, 127
6, 62340, Note_on_c, 4, 65, 127
6, 62349, Note_on_c, 4, 68, 0
6, 62350, Note_on_c, 4, 65, 0
6, 62370, Note_on_c, 4, 68, 127
6, 62370, Note_on_c, 4, 65, 127
6, 62378, Note_on_c, 4, 65, 0
6, 62380, Note_on_c, 4, 68, 0
6, 62400, Note_on_c, 4, 65, 127
6, 62400, Note_on_c, 4, 70, 127
6, 62410, Note_on_c, 4, 65, 0
6, 62411, Note_on_c, 4, 70, 0
6, 62430, Note_on_c, 4, 65, 127
6, 62430, Note_on_c, 4, 70, 127
6, 62438, Note_on_c, 4, 65, 0
6, 62439, Note_on_c, 4, 70, 0
6, 62460, Note_on_c, 4, 70, 127
6, 62460, Note_on_c, 4, 65, 127
6, 62468, Note_on_c, 4, 70, 0
6, 62469, Note_on_c, 4, 65, 0
6, 62490, Note_on_c, 4, 70, 127
6, 62490, Note_on_c, 4, 65, 127
6, 62500, Note_on_c, 4, 65, 0
6, 62501, Note_on_c, 4, 70, 0
6, 62520, Note_on_c, 4, 65, 127
6, 62520, Note_on_c, 4, 70, 127
6, 62529, Note_on_c, 4, 70, 0
6, 62530, Note_on_c, 4, 65, 0
6, 62550, Note_on_c, 4, 70, 127
6, 62550, Note_on_c, 4, 65, 127
6, 62558, Note_on_c, 4, 65, 0
6, 62559, Note_on_c, 4, 70, 0
6, 62580, Note_on_c, 4, 70, 127
6, 62580, Note_on_c, 4, 65, 127
6, 62589, Note_on_c, 4, 65, 0
6, 62589, Note_on_c, 4, 70, 0
6, 62610, Note_on_c, 4, 70, 127
6, 62610, Note_on_c, 4, 65, 127
6, 62619, Note_on_c, 4, 65, 0
6, 62619, Note_on_c, 4, 70, 0
6, 62640, Note_on_c, 4, 70, 127
6, 62640, Note_on_c, 4, 65, 127
6, 62648, Note_on_c, 4, 65, 0
6, 62649, Note_on_c, 4, 70, 0
6, 62670, Note_on_c, 4, 70, 127
6, 62670, Note_on_c, 4, 65, 127
6, 62677, Note_on_c, 4, 65, 0
6, 62679, Note_on_c, 4, 70, 0
6, 62700, Note_on_c, 4, 65, 127
6, 62700, Note_on_c, 4, 70, 127
6, 62708, Note_on_c, 4, 70, 0
6, 62710, Note_on_c, 4, 65, 0
6, 62730, Note_on_c, 4, 70, 127
6, 62730, Note_on_c, 4, 65, 127
6, 62739, Note_on_c, 4, 65, 0
6, 62740, Note_on_c, 4, 70, 0
6, 62760, Note_on_c, 4, 70, 127
6, 62760, Note_on_c, 4, 65, 127
6, 62769, Note_on_c, 4, 65, 0
6, 62769, Note_on_c, 4, 70, 0
6, 62790, Note_on_c, 4, 70, 127
6, 62790, Note_on_c, 4, 65, 127
6, 62799, Note_on_c, 4, 65, 0
6, 62800, Note_on_c, 4, 70, 0
6, 62820, Note_on_c, 4, 70, 127
6, 62820, Note_on_c, 4, 65, 127
6, 62828, Note_on_c, 4, 65, 0
6, 62829, Note_on_c, 4, 70, 0
6, 62850, Note_on_c, 4, 70, 127
6, 62850, Note_on_c, 4, 65, 127
6, 62856, Note_on_c, 4, 70, 0
6, 62858, Note_on_c, 4, 65, 0
6, 62880, Note_on_c, 4, 65, 127
6, 62880, Note_on_c, 4, 68, 127
6, 62888, Note_on_c, 4, 68, 0
6, 62888, Note_on_c, 4, 65, 0
6, 62910, Note_on_c, 4, 68, 127
6, 62910, Note_on_c, 4, 65, 127
6, 62916, Note_on_c, 4, 65, 0
6, 62918, Note_on_c, 4, 68, 0
6, 62940, Note_on_c, 4, 68, 127
6, 62940, Note_on_c, 4, 65, 127
6, 62949, Note_on_c, 4, 65, 0
6, 62949, Note_on_c, 4, 68, 0
6, 62970, Note_on_c, 4, 68, 127
6, 62970, Note_on_c, 4, 65, 127
6, 62979, Note_on_c, 4, 65, 0
6, 62979, Note_on_c, 4, 68, 0
6, 63000, Note_on_c, 4, 68, 127
6, 63000, Note_on_c, 4, 65, 127
6, 63009, Note_on_c, 4, 65, 0
6, 63011, Note_on_c, 4, 68, 0
6, 63030, Note_on_c, 4, 65, 127
6, 63030, Note_on_c, 4, 68, 127
6, 63039, Note_on_c, 4, 65, 0
6, 63040, Note_on_c, 4, 68, 0
6, 63060, Note_on_c, 4, 68, 127
6, 63060, Note_on_c, 4, 65, 127
6, 63068, Note_on_c, 4, 65, 0
6, 63069, Note_on_c, 4, 68, 0
6, 63090, Note_on_c, 4, 68, 127
6, 63090, Note_on_c, 4, 65, 127
6, 63099, Note_on_c, 4, 65, 0
6, 63099, Note_on_c, 4, 68, 0
6, 63120, Note_on_c, 4, 68, 127
6, 63120, Note_on_c, 4, 65, 127
6, 63130, Note_on_c, 4, 65, 0
6, 63131, Note_on_c, 4, 68, 0
6, 63150, Note_on_c, 4, 68, 127
6, 63150, Note_on_c, 4, 65, 127
6, 63159, Note_on_c, 4, 65, 0
6, 63159, Note_on_c, 4, 68, 0
6, 63180, Note_on_c, 4, 68, 127
6, 63180, Note_on_c, 4, 65, 127
6, 63189, Note_on_c, 4, 65, 0
6, 63189, Note_on_c, 4, 68, 0
6, 63210, Note_on_c, 4, 68, 127
6, 63210, Note_on_c, 4, 65, 127
6, 63218, Note_on_c, 4, 65, 0
6, 63220, Note_on_c, 4, 68, 0
6, 63240, Note_on_c, 4, 65, 127
6, 63240, Note_on_c, 4, 68, 127
6, 63250, Note_on_c, 4, 65, 0
6, 63251, Note_on_c, 4, 68, 0
6, 63270, Note_on_c, 4, 68, 127
6, 63270, Note_on_c, 4, 65, 127
6, 63278, Note_on_c, 4, 65, 0
6, 63281, Note_on_c, 4, 68, 0
6, 63300, Note_on_c, 4, 68, 127
6, 63300, Note_on_c, 4, 65, 127
6, 63309, Note_on_c, 4, 68, 0
6, 63310, Note_on_c, 4, 65, 0
6, 63330, Note_on_c, 4, 68, 127
6, 63330, Note_on_c, 4, 65, 127
6, 63338, Note_on_c, 4, 65, 0
6, 63340, Note_on_c, 4, 68, 0
6, 63360, Note_on_c, 4, 65, 127
6, 63360, Note_on_c, 4, 70, 127
6, 63370, Note_on_c, 4, 65, 0
6, 63371, Note_on_c, 4, 70, 0
6, 63390, Note_on_c, 4, 65, 127
6, 63390, Note_on_c, 4, 70, 127
6, 63398, Note_on_c, 4, 65, 0
6, 63399, Note_on_c, 4, 70, 0
6, 63420, Note_on_c, 4, 70, 127
6, 63420, Note_on_c, 4, 65, 127
6, 63428, Note_on_c, 4, 70, 0
6, 63429, Note_on_c, 4, 65, 0
6, 63450, Note_on_c, 4, 70, 127
6, 63450, Note_on_c, 4, 65, 127
6, 63460, Note_on_c, 4, 65, 0
6, 63461, Note_on_c, 4, 70, 0
6, 63480, Note_on_c, 4, 65, 127
6, 63480, Note_on_c, 4, 70, 127
6, 63489, Note_on_c, 4, 70, 0
6, 63490, Note_on_c, 4, 65, 0
6, 63510, Note_on_c, 4, 70, 127
6, 63510, Note_on_c, 4, 65, 127
6, 63518, Note_on_c, 4, 65, 0
6, 63519, Note_on_c, 4, 70, 0
6, 63540, Note_on_c, 4, 70, 127
6, 63540, Note_on_c, 4, 65, 127
6, 63549, Note_on_c, 4, 65, 0
6, 63549, Note_on_c, 4, 70, 0
6, 63570, Note_on_c, 4, 70, 127
6, 63570, Note_on_c, 4, 65, 127
6, 63579, Note_on_c, 4, 65, 0
6, 63579, Note_on_c, 4, 70, 0
6, 63600, Note_on_c, 4, 70, 127
6, 63600, Note_on_c, 4, 65, 127
6, 63608, Note_on_c, 4, 65, 0
6, 63609, Note_on_c, 4, 70, 0
6, 63630, Note_on_c, 4, 70, 127
6, 63630, Note_on_c, 4, 65, 127
6, 63637, Note_on_c, 4, 65, 0
6, 63639, Note_on_c, 4, 70, 0
6, 63660, Note_on_c, 4, 65, 127
6, 63660, Note_on_c, 4, 70, 127
6, 63668, Note_on_c, 4, 70, 0
6, 63670, Note_on_c, 4, 65, 0
6, 63690, Note_on_c, 4, 70, 127
6, 63690, Note_on_c, 4, 65, 127
6, 63699, Note_on_c, 4, 65, 0
6, 63700, Note_on_c, 4, 70, 0
6, 63720, Note_on_c, 4, 70, 127
6, 63720, Note_on_c, 4, 65, 127
6, 63729, Note_on_c, 4, 65, 0
6, 63729, Note_on_c, 4, 70, 0
6, 63750, Note_on_c, 4, 70, 127
6, 63750, Note_on_c, 4, 65, 127
6, 63759, Note_on_c, 4, 65, 0
6, 63760, Note_on_c, 4, 70, 0
6, 63780, Note_on_c, 4, 70, 127
6, 63780, Note_on_c, 4, 65, 127
6, 63788, Note_on_c, 4, 65, 0
6, 63789, Note_on_c, 4, 70, 0
6, 63810, Note_on_c, 4, 70, 127
6, 63810, Note_on_c, 4, 65, 127
6, 63816, Note_on_c, 4, 70, 0
6, 63818, Note_on_c, 4, 65, 0
6, 63840, Control_c, 4, 7, 112
6, 63840, Note_on_c, 4, 65, 127
6, 63840, Note_on_c, 4, 68, 127
6, 63842, Control_c, 4, 10, 29
6, 63844, Control_c, 4, 10, 30
6, 63844, Control_c, 4, 7, 107
6, 63846, Control_c, 4, 7, 105
6, 63848, Note_on_c, 4, 68, 0
6, 63848, Note_on_c, 4, 65, 0
6, 63848, Control_c, 4, 10, 31
6, 63848, Control_c, 4, 7, 104
6, 63850, Control_c, 4, 10, 33
6, 63850, Control_c, 4, 7, 103
6, 63852, Control_c, 4, 10, 34
6, 63852, Control_c, 4, 7, 102
6, 63856, Control_c, 4, 7, 101
6, 63858, Control_c, 4, 10, 37
6, 63860, Control_c, 4, 10, 38
6, 63862, Control_c, 4, 10, 39
6, 63862, Control_c, 4, 7, 100
6, 63864, Control_c, 4, 7, 99
6, 63866, Control_c, 4, 10, 41
6, 63868, Control_c, 4, 10, 43
6, 63870, Control_c, 4, 7, 98
6, 63870, Note_on_c, 4, 68, 127
6, 63870, Note_on_c, 4, 65, 127
6, 63872, Control_c, 4, 10, 45
6, 63872, Control_c, 4, 7, 97
6, 63874, Control_c, 4, 10, 46
6, 63876, Note_on_c, 4, 65, 0
6, 63878, Note_on_c, 4, 68, 0
6, 63878, Control_c, 4, 10, 47
6, 63878, Control_c, 4, 7, 96
6, 63880, Control_c, 4, 10, 48
6, 63882, Control_c, 4, 10, 49
6, 63882, Control_c, 4, 7, 95
6, 63884, Control_c, 4, 10, 50
6, 63884, Control_c, 4, 7, 94
6, 63886, Control_c, 4, 10, 51
6, 63890, Control_c, 4, 10, 53
6, 63890, Control_c, 4, 7, 93
6, 63892, Control_c, 4, 10, 54
6, 63892, Control_c, 4, 7, 92
6, 63896, Control_c, 4, 10, 55
6, 63898, Control_c, 4, 10, 57
6, 63900, Control_c, 4, 10, 58
6, 63900, Note_on_c, 4, 68, 127
6, 63900, Note_on_c, 4, 65, 127
6, 63904, Control_c, 4, 10, 59
6, 63904, Control_c, 4, 7, 91
6, 63906, Control_c, 4, 7, 89
6, 63908, Control_c, 4, 10, 61
6, 63909, Note_on_c, 4, 65, 0
6, 63909, Note_on_c, 4, 68, 0
6, 63910, Control_c, 4, 10, 62
6, 63916, Control_c, 4, 10, 63
6, 63918, Control_c, 4, 10, 65
6, 63920, Control_c, 4, 7, 87
6, 63922, Control_c, 4, 10, 66
6, 63924, Control_c, 4, 10, 67
6, 63926, Control_c, 4, 10, 68
6, 63928, Control_c, 4, 10, 69
6, 63930, Control_c, 4, 10, 70
6, 63930, Note_on_c, 4, 68, 127
6, 63930, Note_on_c, 4, 65, 127
6, 63932, Control_c, 4, 7, 86
6, 63934, Control_c, 4, 10, 71
6, 63938, Control_c, 4, 10, 73
6, 63939, Note_on_c, 4, 65, 0
6, 63939, Note_on_c, 4, 68, 0
6, 63940, Control_c, 4, 10, 74
6, 63946, Control_c, 4, 10, 75
6, 63948, Control_c, 4, 10, 77
6, 63948, Control_c, 4, 7, 85
6, 63950, Control_c, 4, 10, 78
6, 63954, Control_c, 4, 10, 79
6, 63956, Control_c, 4, 10, 80
6, 63960, Control_c, 4, 10, 82
6, 63960, Control_c, 4, 7, 79
6, 63962, Note_on_c, 4, 65, 127
6, 63962, Note_on_c, 4, 68, 127
6, 63964, Control_c, 4, 7, 78
6, 63966, Control_c, 4, 10, 84
6, 63970, Note_on_c, 4, 68, 0
6, 63970, Note_on_c, 4, 65, 0
6, 63970, Control_c, 4, 10, 86
6, 63974, Control_c, 4, 10, 87
6, 63976, Control_c, 4, 7, 76
6, 63978, Control_c, 4, 10, 88
6, 63978, Control_c, 4, 7, 75
6, 63980, Control_c, 4, 10, 90
6, 63982, Control_c, 4, 7, 74
6, 63986, Control_c, 4, 10, 91
6, 63988, Control_c, 4, 10, 93
6, 63988, Control_c, 4, 7, 73
6, 63990, Control_c, 4, 10, 94
6, 63992, Note_on_c, 4, 68, 127
6, 63992, Note_on_c, 4, 65, 127
6, 63994, Control_c, 4, 10, 96
6, 63996, Control_c, 4, 10, 98
6, 63998, Note_on_c, 4, 65, 0
6, 64000, Note_on_c, 4, 68, 0
6, 64000, Control_c, 4, 10, 99
6, 64000, Control_c, 4, 7, 72
6, 64002, Control_c, 4, 10, 101
6, 64004, Control_c, 4, 10, 102
6, 64004, Control_c, 4, 7, 70
6, 64010, Control_c, 4, 10, 103
6, 64012, Control_c, 4, 10, 105
6, 64014, Control_c, 4, 10, 106
6, 64014, Control_c, 4, 7, 69
6, 64016, Control_c, 4, 7, 67
6, 64020, Control_c, 4, 10, 107
6, 64022, Control_c, 4, 7, 66
6, 64022, Note_on_c, 4, 68, 127
6, 64022, Note_on_c, 4, 65, 127
6, 64024, Control_c, 4, 10, 108
6, 64026, Control_c, 4, 7, 65
6, 64028, Control_c, 4, 10, 109
6, 64028, Control_c, 4, 7, 64
6, 64030, Control_c, 4, 10, 110
6, 64031, Note_on_c, 4, 65, 0
6, 64031, Note_on_c, 4, 68, 0
6, 64032, Control_c, 4, 7, 63
6, 64034, Control_c, 4, 10, 111
6, 64034, Control_c, 4, 7, 62
6, 64036, Control_c, 4, 10, 113
6, 64038, Control_c, 4, 10, 114
6, 64044, Control_c, 4, 10, 115
6, 64046, Control_c, 4, 7, 61
6, 64050, Control_c, 4, 10, 116
6, 64050, Control_c, 4, 7, 60
6, 64052, Note_on_c, 4, 68, 127
6, 64052, Note_on_c, 4, 65, 127
6, 64054, Control_c, 4, 10, 117
6, 64056, Control_c, 4, 7, 59
6, 64058, Control_c, 4, 10, 118
6, 64058, Control_c, 4, 7, 58
6, 64061, Note_on_c, 4, 65, 0
6, 64061, Note_on_c, 4, 68, 0
6, 64062, Control_c, 4, 10, 119
6, 64066, Control_c, 4, 10, 121
6, 64068, Control_c, 4, 10, 122
6, 64074, Control_c, 4, 10, 123
6, 64076, Control_c, 4, 10, 124
6, 64078, Control_c, 4, 10, 126
6, 64078, Control_c, 4, 7, 56
6, 64080, Note_on_c, 4, 65, 127
6, 64080, Note_on_c, 4, 68, 127
6, 64088, Note_on_c, 4, 68, 0
6, 64088, Note_on_c, 4, 65, 0
6, 64090, Control_c, 4, 7, 55
6, 64094, Control_c, 4, 7, 54
6, 64106, Control_c, 4, 7, 52
6, 64108, Control_c, 4, 7, 51
6, 64110, Note_on_c, 4, 68, 127
6, 64110, Note_on_c, 4, 65, 127
6, 64112, Control_c, 4, 7, 50
6, 64116, Note_on_c, 4, 65, 0
6, 64118, Note_on_c, 4, 68, 0
6, 64118, Control_c, 4, 7, 49
6, 64122, Control_c, 4, 7, 48
6, 64124, Control_c, 4, 7, 47
6, 64128, Control_c, 4, 7, 46
6, 64136, Control_c, 4, 7, 45
6, 64140, Note_on_c, 4, 68, 127
6, 64140, Note_on_c, 4, 65, 127
6, 64142, Control_c, 4, 7, 44
6, 64146, Control_c, 4, 7, 43
6, 64148, Control_c, 4, 7, 42
6, 64149, Note_on_c, 4, 65, 0
6, 64149, Note_on_c, 4, 68, 0
6, 64160, Control_c, 4, 7, 40
6, 64164, Control_c, 4, 7, 38
6, 64170, Note_on_c, 4, 68, 127
6, 64170, Note_on_c, 4, 65, 127
6, 64172, Control_c, 4, 7, 36
6, 64176, Control_c, 4, 7, 34
6, 64179, Note_on_c, 4, 65, 0
6, 64179, Note_on_c, 4, 68, 0
6, 64182, Control_c, 4, 7, 33
6, 64186, Control_c, 4, 7, 31
6, 64194, Control_c, 4, 7, 30
6, 64199, Note_on_c, 4, 65, 127
6, 64199, Note_on_c, 4, 68, 127
6, 64202, Control_c, 4, 7, 29
6, 64207, Note_on_c, 4, 68, 0
6, 64207, Note_on_c, 4, 65, 0
6, 64212, Control_c, 4, 7, 28
6, 64216, Control_c, 4, 7, 27
6, 64224, Control_c, 4, 7, 26
6, 64229, Note_on_c, 4, 68, 127
6, 64229, Note_on_c, 4, 65, 127
6, 64234, Control_c, 4, 7, 25
6, 64235, Note_on_c, 4, 65, 0
6, 64237, Note_on_c, 4, 68, 0
6, 64238, Control_c, 4, 7, 24
6, 64242, Control_c, 4, 7, 23
6, 64248, Control_c, 4, 7, 22
6, 64259, Note_on_c, 4, 68, 127
6, 64259, Note_on_c, 4, 65, 127
6, 64268, Note_on_c, 4, 65, 0
6, 64268, Note_on_c, 4, 68, 0
6, 64272, Control_c, 4, 7, 21
6, 64276, Control_c, 4, 7, 20
6, 64282, Control_c, 4, 7, 19
6, 64288, Control_c, 4, 7, 18
6, 64289, Note_on_c, 4, 68, 127
6, 64289, Note_on_c, 4, 65, 127
6, 64298, Note_on_c, 4, 65, 0
6, 64298, Note_on_c, 4, 68, 0
6, 64298, End_track
7, 0, Start_track
7, 0, MIDI_port, 0
7, 0, Title_t, "Noise"
7, 0, Control_c, 5, 91, 127
7, 147, Program_c, 5, 124
7, 148, Control_c, 5, 7, 38
7, 148, Control_c, 5, 10, 30
7, 8160, Note_on_c, 5, 80, 127
7, 8175, Note_on_c, 5, 80, 0
7, 8220, Note_on_c, 5, 80, 127
7, 8232, Note_on_c, 5, 80, 0
7, 8280, Note_on_c, 5, 77, 127
7, 8297, Note_on_c, 5, 77, 0
7, 8310, Note_on_c, 5, 72, 127
7, 8325, Note_on_c, 5, 72, 0
7, 8340, Note_on_c, 5, 70, 127
7, 8355, Note_on_c, 5, 70, 0
7, 8370, Note_on_c, 5, 68, 127
7, 8377, Note_on_c, 5, 68, 0
7, 8400, Note_on_c, 5, 77, 127
7, 8413, Note_on_c, 5, 77, 0
7, 8460, Note_on_c, 5, 72, 127
7, 8470, Note_on_c, 5, 72, 0
7, 8520, Note_on_c, 5, 72, 127
7, 8534, Note_on_c, 5, 72, 0
7, 8550, Note_on_c, 5, 70, 127
7, 8565, Note_on_c, 5, 70, 0
7, 8580, Note_on_c, 5, 65, 127
7, 8593, Note_on_c, 5, 65, 0
7, 8610, Note_on_c, 5, 68, 127
7, 8616, Note_on_c, 5, 68, 0
7, 8640, Note_on_c, 5, 70, 127
7, 8654, Note_on_c, 5, 70, 0
7, 8700, Note_on_c, 5, 70, 127
7, 8717, Note_on_c, 5, 70, 0
7, 8760, Note_on_c, 5, 65, 127
7, 8773, Note_on_c, 5, 65, 0
7, 8850, Note_on_c, 5, 68, 127
7, 8863, Note_on_c, 5, 68, 0
7, 8880, Note_on_c, 5, 70, 127
7, 8891, Note_on_c, 5, 70, 0
7, 8910, Note_on_c, 5, 65, 127
7, 8922, Note_on_c, 5, 65, 0
7, 8940, Note_on_c, 5, 68, 127
7, 8954, Note_on_c, 5, 68, 0
7, 9000, Note_on_c, 5, 70, 127
7, 9015, Note_on_c, 5, 70, 0
7, 9030, Note_on_c, 5, 72, 127
7, 9043, Note_on_c, 5, 72, 0
7, 9060, Note_on_c, 5, 75, 127
7, 9071, Note_on_c, 5, 75, 0
7, 9090, Note_on_c, 5, 82, 127
7, 9101, Note_on_c, 5, 82, 0
7, 9120, Note_on_c, 5, 80, 127
7, 9135, Note_on_c, 5, 80, 0
7, 9180, Note_on_c, 5, 80, 127
7, 9192, Note_on_c, 5, 80, 0
7, 9240, Note_on_c, 5, 77, 127
7, 9257, Note_on_c, 5, 77, 0
7, 9270, Note_on_c, 5, 72, 127
7, 9285, Note_on_c, 5, 72, 0
7, 9300, Note_on_c, 5, 70, 127
7, 9315, Note_on_c, 5, 70, 0
7, 9330, Note_on_c, 5, 68, 127
7, 9337, Note_on_c, 5, 68, 0
7, 9360, Note_on_c, 5, 77, 127
7, 9373, Note_on_c, 5, 77, 0
7, 9420, Note_on_c, 5, 72, 127
7, 9430, Note_on_c, 5, 72, 0
7, 9480, Note_on_c, 5, 72, 127
7, 9494, Note_on_c, 5, 72, 0
7, 9510, Note_on_c, 5, 70, 127
7, 9525, Note_on_c, 5, 70, 0
7, 9540, Note_on_c, 5, 65, 127
7, 9553, Note_on_c, 5, 65, 0
7, 9570, Note_on_c, 5, 68, 127
7, 9576, Note_on_c, 5, 68, 0
7, 9600, Note_on_c, 5, 70, 127
7, 9614, Note_on_c, 5, 70, 0
7, 9660, Note_on_c, 5, 70, 127
7, 9677, Note_on_c, 5, 70, 0
7, 9720, Note_on_c, 5, 65, 127
7, 9733, Note_on_c, 5, 65, 0
7, 9810, Note_on_c, 5, 68, 127
7, 9823, Note_on_c, 5, 68, 0
7, 9840, Note_on_c, 5, 70, 127
7, 9851, Note_on_c, 5, 70, 0
7, 9870, Note_on_c, 5, 65, 127
7, 9882, Note_on_c, 5, 65, 0
7, 9900, Note_on_c, 5, 68, 127
7, 9914, Note_on_c, 5, 68, 0
7, 9960, Note_on_c, 5, 70, 127
7, 9975, Note_on_c, 5, 70, 0
7, 9990, Note_on_c, 5, 72, 127
7, 10003, Note_on_c, 5, 72, 0
7, 10020, Note_on_c, 5, 75, 127
7, 10031, Note_on_c, 5, 75, 0
7, 10050, Note_on_c, 5, 82, 127
7, 10061, Note_on_c, 5, 82, 0
7, 10080, Note_on_c, 5, 80, 127
7, 10095, Note_on_c, 5, 80, 0
7, 10140, Note_on_c, 5, 80, 127
7, 10152, Note_on_c, 5, 80, 0
7, 10200, Note_on_c, 5, 77, 127
7, 10217, Note_on_c, 5, 77, 0
7, 10230, Note_on_c, 5, 72, 127
7, 10245, Note_on_c, 5, 72, 0
7, 10260, Note_on_c, 5, 70, 127
7, 10275, Note_on_c, 5, 70, 0
7, 10290, Note_on_c, 5, 68, 127
7, 10297, Note_on_c, 5, 68, 0
7, 10320, Note_on_c, 5, 77, 127
7, 10333, Note_on_c, 5, 77, 0
7, 10380, Note_on_c, 5, 72, 127
7, 10390, Note_on_c, 5, 72, 0
7, 10440, Note_on_c, 5, 72, 127
7, 10454, Note_on_c, 5, 72, 0
7, 10470, Note_on_c, 5, 70, 127
7, 10485, Note_on_c, 5, 70, 0
7, 10500, Note_on_c, 5, 65, 127
7, 10513, Note_on_c, 5, 65, 0
7, 10530, Note_on_c, 5, 68, 127
7, 10536, Note_on_c, 5, 68, 0
7, 10560, Note_on_c, 5, 70, 127
7, 10574, Note_on_c, 5, 70, 0
7, 10620, Note_on_c, 5, 70, 127
7, 10637, Note_on_c, 5, 70, 0
7, 10680, Note_on_c, 5, 65, 127
7, 10693, Note_on_c, 5, 65, 0
7, 10770, Note_on_c, 5, 68, 127
7, 10783, Note_on_c, 5, 68, 0
7, 10800, Note_on_c, 5, 70, 127
7, 10811, Note_on_c, 5, 70, 0
7, 10830, Note_on_c, 5, 65, 127
7, 10842, Note_on_c, 5, 65, 0
7, 10860, Note_on_c, 5, 68, 127
7, 10874, Note_on_c, 5, 68, 0
7, 10920, Note_on_c, 5, 70, 127
7, 10935, Note_on_c, 5, 70, 0
7, 10950, Note_on_c, 5, 72, 127
7, 10963, Note_on_c, 5, 72, 0
7, 10980, Note_on_c, 5, 75, 127
7, 10991, Note_on_c, 5, 75, 0
7, 11010, Note_on_c, 5, 82, 127
7, 11021, Note_on_c, 5, 82, 0
7, 11040, Note_on_c, 5, 80, 127
7, 11055, Note_on_c, 5, 80, 0
7, 11100, Note_on_c, 5, 80, 127
7, 11112, Note_on_c, 5, 80, 0
7, 11160, Note_on_c, 5, 77, 127
7, 11177, Note_on_c, 5, 77, 0
7, 11190, Note_on_c, 5, 72, 127
7, 11205, Note_on_c, 5, 72, 0
7, 11220, Note_on_c, 5, 70, 127
7, 11235, Note_on_c, 5, 70, 0
7, 11250, Note_on_c, 5, 68, 127
7, 11257, Note_on_c, 5, 68, 0
7, 11280, Note_on_c, 5, 77, 127
7, 11293, Note_on_c, 5, 77, 0
7, 11340, Note_on_c, 5, 72, 127
7, 11350, Note_on_c, 5, 72, 0
7, 11400, Note_on_c, 5, 72, 127
7, 11414, Note_on_c, 5, 72, 0
7, 11430, Note_on_c, 5, 70, 127
7, 11445, Note_on_c, 5, 70, 0
7, 11460, Note_on_c, 5, 65, 127
7, 11473, Note_on_c, 5, 65, 0
7, 11490, Note_on_c, 5, 68, 127
7, 11496, Note_on_c, 5, 68, 0
7, 11520, Note_on_c, 5, 70, 127
7, 11534, Note_on_c, 5, 70, 0
7, 11580, Note_on_c, 5, 70, 127
7, 11597, Note_on_c, 5, 70, 0
7, 11640, Note_on_c, 5, 65, 127
7, 11653, Note_on_c, 5, 65, 0
7, 11730, Note_on_c, 5, 68, 127
7, 11743, Note_on_c, 5, 68, 0
7, 11760, Note_on_c, 5, 70, 127
7, 11771, Note_on_c, 5, 70, 0
7, 11790, Note_on_c, 5, 65, 127
7, 11802, Note_on_c, 5, 65, 0
7, 11820, Note_on_c, 5, 68, 127
7, 11834, Note_on_c, 5, 68, 0
7, 11880, Note_on_c, 5, 70, 127
7, 11895, Note_on_c, 5, 70, 0
7, 11910, Note_on_c, 5, 72, 127
7, 11923, Note_on_c, 5, 72, 0
7, 11940, Note_on_c, 5, 75, 127
7, 11951, Note_on_c, 5, 75, 0
7, 11970, Note_on_c, 5, 82, 127
7, 11981, Note_on_c, 5, 82, 0
7, 12000, Note_on_c, 5, 80, 127
7, 12015, Note_on_c, 5, 80, 0
7, 12060, Note_on_c, 5, 80, 127
7, 12072, Note_on_c, 5, 80, 0
7, 12120, Note_on_c, 5, 77, 127
7, 12137, Note_on_c, 5, 77, 0
7, 12150, Note_on_c, 5, 72, 127
7, 12165, Note_on_c, 5, 72, 0
7, 12180, Note_on_c, 5, 70, 127
7, 12195, Note_on_c, 5, 70, 0
7, 12210, Note_on_c, 5, 68, 127
7, 12217, Note_on_c, 5, 68, 0
7, 12240, Note_on_c, 5, 77, 127
7, 12253, Note_on_c, 5, 77, 0
7, 12300, Note_on_c, 5, 72, 127
7, 12310, Note_on_c, 5, 72, 0
7, 12360, Note_on_c, 5, 72, 127
7, 12374, Note_on_c, 5, 72, 0
7, 12390, Note_on_c, 5, 70, 127
7, 12405, Note_on_c, 5, 70, 0
7, 12420, Note_on_c, 5, 65, 127
7, 12433, Note_on_c, 5, 65, 0
7, 12450, Note_on_c, 5, 68, 127
7, 12456, Note_on_c, 5, 68, 0
7, 12480, Note_on_c, 5, 70, 127
7, 12494, Note_on_c, 5, 70, 0
7, 12540, Note_on_c, 5, 70, 127
7, 12557, Note_on_c, 5, 70, 0
7, 12600, Note_on_c, 5, 65, 127
7, 12613, Note_on_c, 5, 65, 0
7, 12690, Note_on_c, 5, 68, 127
7, 12703, Note_on_c, 5, 68, 0
7, 12720, Note_on_c, 5, 70, 127
7, 12731, Note_on_c, 5, 70, 0
7, 12750, Note_on_c, 5, 65, 127
7, 12762, Note_on_c, 5, 65, 0
7, 12780, Note_on_c, 5, 68, 127
7, 12794, Note_on_c, 5, 68, 0
7, 12840, Note_on_c, 5, 70, 127
7, 12855, Note_on_c, 5, 70, 0
7, 12870, Note_on_c, 5, 72, 127
7, 12883, Note_on_c, 5, 72, 0
7, 12900, Note_on_c, 5, 75, 127
7, 12911, Note_on_c, 5, 75, 0
7, 12930, Note_on_c, 5, 82, 127
7, 12941, Note_on_c, 5, 82, 0
7, 12960, Note_on_c, 5, 80, 127
7, 12975, Note_on_c, 5, 80, 0
7, 13020, Note_on_c, 5, 80, 127
7, 13032, Note_on_c, 5, 80, 0
7, 13080, Note_on_c, 5, 77, 127
7, 13097, Note_on_c, 5, 77, 0
7, 13110, Note_on_c, 5, 72, 127
7, 13125, Note_on_c, 5, 72, 0
7, 13140, Note_on_c, 5, 70, 127
7, 13155, Note_on_c, 5, 70, 0
7, 13170, Note_on_c, 5, 68, 127
7, 13177, Note_on_c, 5, 68, 0
7, 13200, Note_on_c, 5, 77, 127
7, 13213, Note_on_c, 5, 77, 0
7, 13260, Note_on_c, 5, 72, 127
7, 13270, Note_on_c, 5, 72, 0
7, 13320, Note_on_c, 5, 72, 127
7, 13334, Note_on_c, 5, 72, 0
7, 13350, Note_on_c, 5, 70, 127
7, 13365, Note_on_c, 5, 70, 0
7, 13380, Note_on_c, 5, 65, 127
7, 13393, Note_on_c, 5, 65, 0
7, 13410, Note_on_c, 5, 68, 127
7, 13416, Note_on_c, 5, 68, 0
7, 13440, Note_on_c, 5, 70, 127
7, 13454, Note_on_c, 5, 70, 0
7, 13500, Note_on_c, 5, 70, 127
7, 13517, Note_on_c, 5, 70, 0
7, 13560, Note_on_c, 5, 65, 127
7, 13573, Note_on_c, 5, 65, 0
7, 13650, Note_on_c, 5, 68, 127
7, 13663, Note_on_c, 5, 68, 0
7, 13680, Note_on_c, 5, 70, 127
7, 13691, Note_on_c, 5, 70, 0
7, 13710, Note_on_c, 5, 65, 127
7, 13722, Note_on_c, 5, 65, 0
7, 13740, Note_on_c, 5, 68, 127
7, 13754, Note_on_c, 5, 68, 0
7, 13800, Note_on_c, 5, 70, 127
7, 13815, Note_on_c, 5, 70, 0
7, 13830, Note_on_c, 5, 72, 127
7, 13843, Note_on_c, 5, 72, 0
7, 13860, Note_on_c, 5, 75, 127
7, 13871, Note_on_c, 5, 75, 0
7, 13890, Note_on_c, 5, 82, 127
7, 13901, Note_on_c, 5, 82, 0
7, 14880, Note_on_c, 5, 80, 127
7, 14881, Note_on_c, 5, 80, 0
7, 15840, Note_on_c, 5, 80, 127
7, 15841, Note_on_c, 5, 80, 0
7, 16800, Note_on_c, 5, 80, 127
7, 16801, Note_on_c, 5, 80, 0
7, 18720, Note_on_c, 5, 80, 127
7, 18721, Note_on_c, 5, 80, 0
7, 19680, Note_on_c, 5, 80, 127
7, 19681, Note_on_c, 5, 80, 0
7, 20640, Note_on_c, 5, 80, 127
7, 20641, Note_on_c, 5, 80, 0
7, 25440, Note_on_c, 5, 80, 127
7, 25455, Note_on_c, 5, 80, 0
7, 25500, Note_on_c, 5, 80, 127
7, 25512, Note_on_c, 5, 80, 0
7, 25560, Note_on_c, 5, 77, 127
7, 25577, Note_on_c, 5, 77, 0
7, 25590, Note_on_c, 5, 72, 127
7, 25605, Note_on_c, 5, 72, 0
7, 25620, Note_on_c, 5, 70, 127
7, 25635, Note_on_c, 5, 70, 0
7, 25650, Note_on_c, 5, 68, 127
7, 25657, Note_on_c, 5, 68, 0
7, 25680, Note_on_c, 5, 77, 127
7, 25693, Note_on_c, 5, 77, 0
7, 25740, Note_on_c, 5, 72, 127
7, 25750, Note_on_c, 5, 72, 0
7, 25800, Note_on_c, 5, 72, 127
7, 25814, Note_on_c, 5, 72, 0
7, 25830, Note_on_c, 5, 70, 127
7, 25845, Note_on_c, 5, 70, 0
7, 25860, Note_on_c, 5, 65, 127
7, 25873, Note_on_c, 5, 65, 0
7, 25890, Note_on_c, 5, 68, 127
7, 25896, Note_on_c, 5, 68, 0
7, 25920, Note_on_c, 5, 70, 127
7, 25934, Note_on_c, 5, 70, 0
7, 25980, Note_on_c, 5, 70, 127
7, 25997, Note_on_c, 5, 70, 0
7, 26040, Note_on_c, 5, 65, 127
7, 26053, Note_on_c, 5, 65, 0
7, 26130, Note_on_c, 5, 68, 127
7, 26143, Note_on_c, 5, 68, 0
7, 26160, Note_on_c, 5, 70, 127
7, 26171, Note_on_c, 5, 70, 0
7, 26190, Note_on_c, 5, 65, 127
7, 26202, Note_on_c, 5, 65, 0
7, 26220, Note_on_c, 5, 68, 127
7, 26234, Note_on_c, 5, 68, 0
7, 26280, Note_on_c, 5, 70, 127
7, 26295, Note_on_c, 5, 70, 0
7, 26310, Note_on_c, 5, 72, 127
7, 26323, Note_on_c, 5, 72, 0
7, 26340, Note_on_c, 5, 75, 127
7, 26351, Note_on_c, 5, 75, 0
7, 26370, Note_on_c, 5, 82, 127
7, 26381, Note_on_c, 5, 82, 0
7, 26400, Note_on_c, 5, 80, 127
7, 26415, Note_on_c, 5, 80, 0
7, 26460, Note_on_c, 5, 80, 127
7, 26472, Note_on_c, 5, 80, 0
7, 26520, Note_on_c, 5, 77, 127
7, 26537, Note_on_c, 5, 77, 0
7, 26550, Note_on_c, 5, 72, 127
7, 26565, Note_on_c, 5, 72, 0
7, 26580, Note_on_c, 5, 70, 127
7, 26595, Note_on_c, 5, 70, 0
7, 26610, Note_on_c, 5, 68, 127
7, 26617, Note_on_c, 5, 68, 0
7, 26640, Note_on_c, 5, 77, 127
7, 26653, Note_on_c, 5, 77, 0
7, 26700, Note_on_c, 5, 72, 127
7, 26710, Note_on_c, 5, 72, 0
7, 26760, Note_on_c, 5, 72, 127
7, 26774, Note_on_c, 5, 72, 0
7, 26790, Note_on_c, 5, 70, 127
7, 26805, Note_on_c, 5, 70, 0
7, 26820, Note_on_c, 5, 65, 127
7, 26833, Note_on_c, 5, 65, 0
7, 26850, Note_on_c, 5, 68, 127
7, 26856, Note_on_c, 5, 68, 0
7, 26880, Note_on_c, 5, 70, 127
7, 26894, Note_on_c, 5, 70, 0
7, 26940, Note_on_c, 5, 70, 127
7, 26957, Note_on_c, 5, 70, 0
7, 27000, Note_on_c, 5, 65, 127
7, 27013, Note_on_c, 5, 65, 0
7, 27090, Note_on_c, 5, 68, 127
7, 27103, Note_on_c, 5, 68, 0
7, 27120, Note_on_c, 5, 70, 127
7, 27131, Note_on_c, 5, 70, 0
7, 27150, Note_on_c, 5, 65, 127
7, 27162, Note_on_c, 5, 65, 0
7, 27180, Note_on_c, 5, 68, 127
7, 27194, Note_on_c, 5, 68, 0
7, 27240, Note_on_c, 5, 70, 127
7, 27255, Note_on_c, 5, 70, 0
7, 27270, Note_on_c, 5, 72, 127
7, 27283, Note_on_c, 5, 72, 0
7, 27300, Note_on_c, 5, 75, 127
7, 27311, Note_on_c, 5, 75, 0
7, 27330, Note_on_c, 5, 82, 127
7, 27341, Note_on_c, 5, 82, 0
7, 27360, Note_on_c, 5, 80, 127
7, 27375, Note_on_c, 5, 80, 0
7, 27420, Note_on_c, 5, 80, 127
7, 27432, Note_on_c, 5, 80, 0
7, 27480, Note_on_c, 5, 77, 127
7, 27497, Note_on_c, 5, 77, 0
7, 27510, Note_on_c, 5, 72, 127
7, 27525, Note_on_c, 5, 72, 0
7, 27540, Note_on_c, 5, 70, 127
7, 27555, Note_on_c, 5, 70, 0
7, 27570, Note_on_c, 5, 68, 127
7, 27577, Note_on_c, 5, 68, 0
7, 27600, Note_on_c, 5, 77, 127
7, 27613, Note_on_c, 5, 77, 0
7, 27660, Note_on_c, 5, 72, 127
7, 27670, Note_on_c, 5, 72, 0
7, 27720, Note_on_c, 5, 72, 127
7, 27734, Note_on_c, 5, 72, 0
7, 27750, Note_on_c, 5, 70, 127
7, 27765, Note_on_c, 5, 70, 0
7, 27780, Note_on_c, 5, 65, 127
7, 27793, Note_on_c, 5, 65, 0
7, 27810, Note_on_c, 5, 68, 127
7, 27816, Note_on_c, 5, 68, 0
7, 27840, Note_on_c, 5, 70, 127
7, 27854, Note_on_c, 5, 70, 0
7, 27900, Note_on_c, 5, 70, 127
7, 27917, Note_on_c, 5, 70, 0
7, 27960, Note_on_c, 5, 65, 127
7, 27973, Note_on_c, 5, 65, 0
7, 28050, Note_on_c, 5, 68, 127
7, 28063, Note_on_c, 5, 68, 0
7, 28080, Note_on_c, 5, 70, 127
7, 28091, Note_on_c, 5, 70, 0
7, 28110, Note_on_c, 5, 65, 127
7, 28122, Note_on_c, 5, 65, 0
7, 28140, Note_on_c, 5, 68, 127
7, 28154, Note_on_c, 5, 68, 0
7, 28200, Note_on_c, 5, 70, 127
7, 28215, Note_on_c, 5, 70, 0
7, 28230, Note_on_c, 5, 72, 127
7, 28243, Note_on_c, 5, 72, 0
7, 28260, Note_on_c, 5, 75, 127
7, 28271, Note_on_c, 5, 75, 0
7, 28290, Note_on_c, 5, 82, 127
7, 28301, Note_on_c, 5, 82, 0
7, 28320, Note_on_c, 5, 80, 127
7, 28335, Note_on_c, 5, 80, 0
7, 28380, Note_on_c, 5, 80, 127
7, 28392, Note_on_c, 5, 80, 0
7, 28440, Note_on_c, 5, 77, 127
7, 28457, Note_on_c, 5, 77, 0
7, 28470, Note_on_c, 5, 72, 127
7, 28485, Note_on_c, 5, 72, 0
7, 28500, Note_on_c, 5, 70, 127
7, 28515, Note_on_c, 5, 70, 0
7, 28530, Note_on_c, 5, 68, 127
7, 28537, Note_on_c, 5, 68, 0
7, 28560, Note_on_c, 5, 77, 127
7, 28573, Note_on_c, 5, 77, 0
7, 28620, Note_on_c, 5, 72, 127
7, 28630, Note_on_c, 5, 72, 0
7, 28680, Note_on_c, 5, 72, 127
7, 28694, Note_on_c, 5, 72, 0
7, 28710, Note_on_c, 5, 70, 127
7, 28725, Note_on_c, 5, 70, 0
7, 28740, Note_on_c, 5, 65, 127
7, 28753, Note_on_c, 5, 65, 0
7, 28770, Note_on_c, 5, 68, 127
7, 28776, Note_on_c, 5, 68, 0
7, 28800, Note_on_c, 5, 70, 127
7, 28814, Note_on_c, 5, 70, 0
7, 28860, Note_on_c, 5, 70, 127
7, 28877, Note_on_c, 5, 70, 0
7, 28920, Note_on_c, 5, 65, 127
7, 28933, Note_on_c, 5, 65, 0
7, 29010, Note_on_c, 5, 68, 127
7, 29023, Note_on_c, 5, 68, 0
7, 29040, Note_on_c, 5, 70, 127
7, 29051, Note_on_c, 5, 70, 0
7, 29070, Note_on_c, 5, 65, 127
7, 29082, Note_on_c, 5, 65, 0
7, 29100, Note_on_c, 5, 68, 127
7, 29114, Note_on_c, 5, 68, 0
7, 29160, Note_on_c, 5, 70, 127
7, 29175, Note_on_c, 5, 70, 0
7, 29190, Note_on_c, 5, 72, 127
7, 29203, Note_on_c, 5, 72, 0
7, 29220, Note_on_c, 5, 75, 127
7, 29231, Note_on_c, 5, 75, 0
7, 29250, Note_on_c, 5, 82, 127
7, 29261, Note_on_c, 5, 82, 0
7, 30240, Note_on_c, 5, 80, 127
7, 30241, Note_on_c, 5, 80, 0
7, 31200, Note_on_c, 5, 80, 127
7, 31201, Note_on_c, 5, 80, 0
7, 32160, Note_on_c, 5, 80, 127
7, 32161, Note_on_c, 5, 80, 0
7, 34080, Note_on_c, 5, 80, 127
7, 34081, Note_on_c, 5, 80, 0
7, 35040, Note_on_c, 5, 80, 127
7, 35041, Note_on_c, 5, 80, 0
7, 36000, Note_on_c, 5, 80, 127
7, 36001, Note_on_c, 5, 80, 0
7, 44640, Note_on_c, 5, 80, 127
7, 44655, Note_on_c, 5, 80, 0
7, 44700, Note_on_c, 5, 80, 127
7, 44712, Note_on_c, 5, 80, 0
7, 44760, Note_on_c, 5, 77, 127
7, 44777, Note_on_c, 5, 77, 0
7, 44790, Note_on_c, 5, 72, 127
7, 44805, Note_on_c, 5, 72, 0
7, 44820, Note_on_c, 5, 70, 127
7, 44835, Note_on_c, 5, 70, 0
7, 44850, Note_on_c, 5, 68, 127
7, 44857, Note_on_c, 5, 68, 0
7, 44880, Note_on_c, 5, 77, 127
7, 44893, Note_on_c, 5, 77, 0
7, 44940, Note_on_c, 5, 72, 127
7, 44950, Note_on_c, 5, 72, 0
7, 45000, Note_on_c, 5, 72, 127
7, 45014, Note_on_c, 5, 72, 0
7, 45030, Note_on_c, 5, 70, 127
7, 45045, Note_on_c, 5, 70, 0
7, 45060, Note_on_c, 5, 65, 127
7, 45073, Note_on_c, 5, 65, 0
7, 45090, Note_on_c, 5, 68, 127
7, 45096, Note_on_c, 5, 68, 0
7, 45120, Note_on_c, 5, 70, 127
7, 45134, Note_on_c, 5, 70, 0
7, 45180, Note_on_c, 5, 70, 127
7, 45197, Note_on_c, 5, 70, 0
7, 45240, Note_on_c, 5, 65, 127
7, 45253, Note_on_c, 5, 65, 0
7, 45330, Note_on_c, 5, 68, 127
7, 45343, Note_on_c, 5, 68, 0
7, 45360, Note_on_c, 5, 70, 127
7, 45371, Note_on_c, 5, 70, 0
7, 45390, Note_on_c, 5, 65, 127
7, 45402, Note_on_c, 5, 65, 0
7, 45420, Note_on_c, 5, 68, 127
7, 45434, Note_on_c, 5, 68, 0
7, 45480, Note_on_c, 5, 70, 127
7, 45495, Note_on_c, 5, 70, 0
7, 45510, Note_on_c, 5, 72, 127
7, 45523, Note_on_c, 5, 72, 0
7, 45540, Note_on_c, 5, 75, 127
7, 45551, Note_on_c, 5, 75, 0
7, 45570, Note_on_c, 5, 82, 127
7, 45581, Note_on_c, 5, 82, 0
7, 45600, Note_on_c, 5, 80, 127
7, 45615, Note_on_c, 5, 80, 0
7, 45660, Note_on_c, 5, 80, 127
7, 45672, Note_on_c, 5, 80, 0
7, 45720, Note_on_c, 5, 77, 127
7, 45737, Note_on_c, 5, 77, 0
7, 45750, Note_on_c, 5, 72, 127
7, 45765, Note_on_c, 5, 72, 0
7, 45780, Note_on_c, 5, 70, 127
7, 45795, Note_on_c, 5, 70, 0
7, 45810, Note_on_c, 5, 68, 127
7, 45817, Note_on_c, 5, 68, 0
7, 45840, Note_on_c, 5, 77, 127
7, 45853, Note_on_c, 5, 77, 0
7, 45900, Note_on_c, 5, 72, 127
7, 45910, Note_on_c, 5, 72, 0
7, 45960, Note_on_c, 5, 72, 127
7, 45974, Note_on_c, 5, 72, 0
7, 45990, Note_on_c, 5, 70, 127
7, 46005, Note_on_c, 5, 70, 0
7, 46020, Note_on_c, 5, 65, 127
7, 46033, Note_on_c, 5, 65, 0
7, 46050, Note_on_c, 5, 68, 127
7, 46056, Note_on_c, 5, 68, 0
7, 46080, Note_on_c, 5, 70, 127
7, 46094, Note_on_c, 5, 70, 0
7, 46140, Note_on_c, 5, 70, 127
7, 46157, Note_on_c, 5, 70, 0
7, 46200, Note_on_c, 5, 65, 127
7, 46213, Note_on_c, 5, 65, 0
7, 46290, Note_on_c, 5, 68, 127
7, 46303, Note_on_c, 5, 68, 0
7, 46320, Note_on_c, 5, 70, 127
7, 46331, Note_on_c, 5, 70, 0
7, 46350, Note_on_c, 5, 65, 127
7, 46362, Note_on_c, 5, 65, 0
7, 46380, Note_on_c, 5, 68, 127
7, 46394, Note_on_c, 5, 68, 0
7, 46440, Note_on_c, 5, 70, 127
7, 46455, Note_on_c, 5, 70, 0
7, 46470, Note_on_c, 5, 72, 127
7, 46483, Note_on_c, 5, 72, 0
7, 46500, Note_on_c, 5, 75, 127
7, 46511, Note_on_c, 5, 75, 0
7, 46530, Note_on_c, 5, 82, 127
7, 46541, Note_on_c, 5, 82, 0
7, 46560, Note_on_c, 5, 80, 127
7, 46575, Note_on_c, 5, 80, 0
7, 46620, Note_on_c, 5, 80, 127
7, 46632, Note_on_c, 5, 80, 0
7, 46680, Note_on_c, 5, 77, 127
7, 46697, Note_on_c, 5, 77, 0
7, 46710, Note_on_c, 5, 72, 127
7, 46725, Note_on_c, 5, 72, 0
7, 46740, Note_on_c, 5, 70, 127
7, 46755, Note_on_c, 5, 70, 0
7, 46770, Note_on_c, 5, 68, 127
7, 46777, Note_on_c, 5, 68, 0
7, 46800, Note_on_c, 5, 77, 127
7, 46813, Note_on_c, 5, 77, 0
7, 46860, Note_on_c, 5, 72, 127
7, 46870, Note_on_c, 5, 72, 0
7, 46920, Note_on_c, 5, 72, 127
7, 46934, Note_on_c, 5, 72, 0
7, 46950, Note_on_c, 5, 70, 127
7, 46965, Note_on_c, 5, 70, 0
7, 46980, Note_on_c, 5, 65, 127
7, 46993, Note_on_c, 5, 65, 0
7, 47010, Note_on_c, 5, 68, 127
7, 47016, Note_on_c, 5, 68, 0
7, 47040, Note_on_c, 5, 70, 127
7, 47054, Note_on_c, 5, 70, 0
7, 47100, Note_on_c, 5, 70, 127
7, 47117, Note_on_c, 5, 70, 0
7, 47160, Note_on_c, 5, 65, 127
7, 47173, Note_on_c, 5, 65, 0
7, 47250, Note_on_c, 5, 68, 127
7, 47263, Note_on_c, 5, 68, 0
7, 47280, Note_on_c, 5, 70, 127
7, 47291, Note_on_c, 5, 70, 0
7, 47310, Note_on_c, 5, 65, 127
7, 47322, Note_on_c, 5, 65, 0
7, 47340, Note_on_c, 5, 68, 127
7, 47354, Note_on_c, 5, 68, 0
7, 47400, Note_on_c, 5, 70, 127
7, 47415, Note_on_c, 5, 70, 0
7, 47430, Note_on_c, 5, 72, 127
7, 47443, Note_on_c, 5, 72, 0
7, 47460, Note_on_c, 5, 75, 127
7, 47471, Note_on_c, 5, 75, 0
7, 47490, Note_on_c, 5, 82, 127
7, 47501, Note_on_c, 5, 82, 0
7, 47520, Note_on_c, 5, 80, 127
7, 47535, Note_on_c, 5, 80, 0
7, 47580, Note_on_c, 5, 80, 127
7, 47592, Note_on_c, 5, 80, 0
7, 47640, Note_on_c, 5, 77, 127
7, 47657, Note_on_c, 5, 77, 0
7, 47670, Note_on_c, 5, 72, 127
7, 47685, Note_on_c, 5, 72, 0
7, 47700, Note_on_c, 5, 70, 127
7, 47715, Note_on_c, 5, 70, 0
7, 47730, Note_on_c, 5, 68, 127
7, 47737, Note_on_c, 5, 68, 0
7, 47760, Note_on_c, 5, 77, 127
7, 47773, Note_on_c, 5, 77, 0
7, 47820, Note_on_c, 5, 72, 127
7, 47830, Note_on_c, 5, 72, 0
7, 47880, Note_on_c, 5, 72, 127
7, 47894, Note_on_c, 5, 72, 0
7, 47910, Note_on_c, 5, 70, 127
7, 47925, Note_on_c, 5, 70, 0
7, 47940, Note_on_c, 5, 65, 127
7, 47953, Note_on_c, 5, 65, 0
7, 47970, Note_on_c, 5, 68, 127
7, 47976, Note_on_c, 5, 68, 0
7, 48000, Note_on_c, 5, 70, 127
7, 48014, Note_on_c, 5, 70, 0
7, 48060, Note_on_c, 5, 70, 127
7, 48077, Note_on_c, 5, 70, 0
7, 48120, Note_on_c, 5, 65, 127
7, 48133, Note_on_c, 5, 65, 0
7, 48210, Note_on_c, 5, 68, 127
7, 48223, Note_on_c, 5, 68, 0
7, 48240, Note_on_c, 5, 70, 127
7, 48251, Note_on_c, 5, 70, 0
7, 48270, Note_on_c, 5, 65, 127
7, 48282, Note_on_c, 5, 65, 0
7, 48300, Note_on_c, 5, 68, 127
7, 48314, Note_on_c, 5, 68, 0
7, 48360, Note_on_c, 5, 70, 127
7, 48375, Note_on_c, 5, 70, 0
7, 48390, Note_on_c, 5, 72, 127
7, 48403, Note_on_c, 5, 72, 0
7, 48420, Note_on_c, 5, 75, 127
7, 48431, Note_on_c, 5, 75, 0
7, 48450, Note_on_c, 5, 82, 127
7, 48461, Note_on_c, 5, 82, 0
7, 48480, Note_on_c, 5, 80, 127
7, 48495, Note_on_c, 5, 80, 0
7, 48540, Note_on_c, 5, 80, 127
7, 48552, Note_on_c, 5, 80, 0
7, 48600, Note_on_c, 5, 77, 127
7, 48617, Note_on_c, 5, 77, 0
7, 48630, Note_on_c, 5, 72, 127
7, 48645, Note_on_c, 5, 72, 0
7, 48660, Note_on_c, 5, 70, 127
7, 48675, Note_on_c, 5, 70, 0
7, 48690, Note_on_c, 5, 68, 127
7, 48697, Note_on_c, 5, 68, 0
7, 48720, Note_on_c, 5, 77, 127
7, 48733, Note_on_c, 5, 77, 0
7, 48780, Note_on_c, 5, 72, 127
7, 48790, Note_on_c, 5, 72, 0
7, 48840, Note_on_c, 5, 72, 127
7, 48854, Note_on_c, 5, 72, 0
7, 48870, Note_on_c, 5, 70, 127
7, 48885, Note_on_c, 5, 70, 0
7, 48900, Note_on_c, 5, 65, 127
7, 48913, Note_on_c, 5, 65, 0
7, 48930, Note_on_c, 5, 68, 127
7, 48936, Note_on_c, 5, 68, 0
7, 48960, Note_on_c, 5, 70, 127
7, 48974, Note_on_c, 5, 70, 0
7, 49020, Note_on_c, 5, 70, 127
7, 49037, Note_on_c, 5, 70, 0
7, 49080, Note_on_c, 5, 65, 127
7, 49093, Note_on_c, 5, 65, 0
7, 49170, Note_on_c, 5, 68, 127
7, 49183, Note_on_c, 5, 68, 0
7, 49200, Note_on_c, 5, 70, 127
7, 49211, Note_on_c, 5, 70, 0
7, 49230, Note_on_c, 5, 65, 127
7, 49242, Note_on_c, 5, 65, 0
7, 49260, Note_on_c, 5, 68, 127
7, 49274, Note_on_c, 5, 68, 0
7, 49320, Note_on_c, 5, 70, 127
7, 49335, Note_on_c, 5, 70, 0
7, 49350, Note_on_c, 5, 72, 127
7, 49363, Note_on_c, 5, 72, 0
7, 49380, Note_on_c, 5, 75, 127
7, 49391, Note_on_c, 5, 75, 0
7, 49410, Note_on_c, 5, 82, 127
7, 49421, Note_on_c, 5, 82, 0
7, 49440, Note_on_c, 5, 80, 127
7, 49455, Note_on_c, 5, 80, 0
7, 49500, Note_on_c, 5, 80, 127
7, 49512, Note_on_c, 5, 80, 0
7, 49560, Note_on_c, 5, 77, 127
7, 49577, Note_on_c, 5, 77, 0
7, 49590, Note_on_c, 5, 72, 127
7, 49605, Note_on_c, 5, 72, 0
7, 49620, Note_on_c, 5, 70, 127
7, 49635, Note_on_c, 5, 70, 0
7, 49650, Note_on_c, 5, 68, 127
7, 49657, Note_on_c, 5, 68, 0
7, 49680, Note_on_c, 5, 77, 127
7, 49693, Note_on_c, 5, 77, 0
7, 49740, Note_on_c, 5, 72, 127
7, 49750, Note_on_c, 5, 72, 0
7, 49800, Note_on_c, 5, 72, 127
7, 49814, Note_on_c, 5, 72, 0
7, 49830, Note_on_c, 5, 70, 127
7, 49845, Note_on_c, 5, 70, 0
7, 49860, Note_on_c, 5, 65, 127
7, 49873, Note_on_c, 5, 65, 0
7, 49890, Note_on_c, 5, 68, 127
7, 49896, Note_on_c, 5, 68, 0
7, 49920, Note_on_c, 5, 70, 127
7, 49934, Note_on_c, 5, 70, 0
7, 49980, Note_on_c, 5, 70, 127
7, 49997, Note_on_c, 5, 70, 0
7, 50040, Note_on_c, 5, 65, 127
7, 50053, Note_on_c, 5, 65, 0
7, 50130, Note_on_c, 5, 68, 127
7, 50143, Note_on_c, 5, 68, 0
7, 50160, Note_on_c, 5, 70, 127
7, 50171, Note_on_c, 5, 70, 0
7, 50190, Note_on_c, 5, 65, 127
7, 50202, Note_on_c, 5, 65, 0
7, 50220, Note_on_c, 5, 68, 127
7, 50234, Note_on_c, 5, 68, 0
7, 50280, Note_on_c, 5, 70, 127
7, 50295, Note_on_c, 5, 70, 0
7, 50310, Note_on_c, 5, 72, 127
7, 50323, Note_on_c, 5, 72, 0
7, 50340, Note_on_c, 5, 75, 127
7, 50351, Note_on_c, 5, 75, 0
7, 50370, Note_on_c, 5, 82, 127
7, 50381, Note_on_c, 5, 82, 0
7, 50400, Note_on_c, 5, 80, 127
7, 50415, Note_on_c, 5, 80, 0
7, 50460, Note_on_c, 5, 80, 127
7, 50472, Note_on_c, 5, 80, 0
7, 50520, Note_on_c, 5, 77, 127
7, 50537, Note_on_c, 5, 77, 0
7, 50550, Note_on_c, 5, 72, 127
7, 50565, Note_on_c, 5, 72, 0
7, 50580, Note_on_c, 5, 70, 127
7, 50595, Note_on_c, 5, 70, 0
7, 50610, Note_on_c, 5, 68, 127
7, 50617, Note_on_c, 5, 68, 0
7, 50640, Note_on_c, 5, 77, 127
7, 50653, Note_on_c, 5, 77, 0
7, 50700, Note_on_c, 5, 72, 127
7, 50710, Note_on_c, 5, 72, 0
7, 50760, Note_on_c, 5, 72, 127
7, 50774, Note_on_c, 5, 72, 0
7, 50790, Note_on_c, 5, 70, 127
7, 50805, Note_on_c, 5, 70, 0
7, 50820, Note_on_c, 5, 65, 127
7, 50833, Note_on_c, 5, 65, 0
7, 50850, Note_on_c, 5, 68, 127
7, 50856, Note_on_c, 5, 68, 0
7, 50880, Note_on_c, 5, 70, 127
7, 50894, Note_on_c, 5, 70, 0
7, 50940, Note_on_c, 5, 70, 127
7, 50957, Note_on_c, 5, 70, 0
7, 51000, Note_on_c, 5, 65, 127
7, 51013, Note_on_c, 5, 65, 0
7, 51090, Note_on_c, 5, 68, 127
7, 51103, Note_on_c, 5, 68, 0
7, 51120, Note_on_c, 5, 70, 127
7, 51131, Note_on_c, 5, 70, 0
7, 51150, Note_on_c, 5, 65, 127
7, 51162, Note_on_c, 5, 65, 0
7, 51180, Note_on_c, 5, 68, 127
7, 51194, Note_on_c, 5, 68, 0
7, 51240, Note_on_c, 5, 70, 127
7, 51255, Note_on_c, 5, 70, 0
7, 51270, Note_on_c, 5, 72, 127
7, 51283, Note_on_c, 5, 72, 0
7, 51300, Note_on_c, 5, 75, 127
7, 51311, Note_on_c, 5, 75, 0
7, 51330, Note_on_c, 5, 82, 127
7, 51341, Note_on_c, 5, 82, 0
7, 51360, Note_on_c, 5, 80, 127
7, 51375, Note_on_c, 5, 80, 0
7, 51420, Note_on_c, 5, 80, 127
7, 51432, Note_on_c, 5, 80, 0
7, 51480, Note_on_c, 5, 77, 127
7, 51497, Note_on_c, 5, 77, 0
7, 51510, Note_on_c, 5, 72, 127
7, 51525, Note_on_c, 5, 72, 0
7, 51540, Note_on_c, 5, 70, 127
7, 51555, Note_on_c, 5, 70, 0
7, 51570, Note_on_c, 5, 68, 127
7, 51577, Note_on_c, 5, 68, 0
7, 51600, Note_on_c, 5, 77, 127
7, 51613, Note_on_c, 5, 77, 0
7, 51660, Note_on_c, 5, 72, 127
7, 51670, Note_on_c, 5, 72, 0
7, 51720, Note_on_c, 5, 72, 127
7, 51734, Note_on_c, 5, 72, 0
7, 51750, Note_on_c, 5, 70, 127
7, 51765, Note_on_c, 5, 70, 0
7, 51780, Note_on_c, 5, 65, 127
7, 51793, Note_on_c, 5, 65, 0
7, 51810, Note_on_c, 5, 68, 127
7, 51816, Note_on_c, 5, 68, 0
7, 51840, Note_on_c, 5, 70, 127
7, 51854, Note_on_c, 5, 70, 0
7, 51900, Note_on_c, 5, 70, 127
7, 51917, Note_on_c, 5, 70, 0
7, 51960, Note_on_c, 5, 65, 127
7, 51973, Note_on_c, 5, 65, 0
7, 52050, Note_on_c, 5, 68, 127
7, 52063, Note_on_c, 5, 68, 0
7, 52080, Note_on_c, 5, 70, 127
7, 52091, Note_on_c, 5, 70, 0
7, 52110, Note_on_c, 5, 65, 127
7, 52122, Note_on_c, 5, 65, 0
7, 52140, Note_on_c, 5, 68, 127
7, 52154, Note_on_c, 5, 68, 0
7, 52200, Note_on_c, 5, 70, 127
7, 52215, Note_on_c, 5, 70, 0
7, 52230, Note_on_c, 5, 72, 127
7, 52243, Note_on_c, 5, 72, 0
7, 52260, Note_on_c, 5, 75, 127
7, 52271, Note_on_c, 5, 75, 0
7, 52290, Note_on_c, 5, 82, 127
7, 52301, Note_on_c, 5, 82, 0
7, 52320, Note_on_c, 5, 80, 127
7, 52335, Note_on_c, 5, 80, 0
7, 52380, Note_on_c, 5, 80, 127
7, 52392, Note_on_c, 5, 80, 0
7, 52440, Note_on_c, 5, 77, 127
7, 52457, Note_on_c, 5, 77, 0
7, 52470, Note_on_c, 5, 72, 127
7, 52485, Note_on_c, 5, 72, 0
7, 52500, Note_on_c, 5, 70, 127
7, 52515, Note_on_c, 5, 70, 0
7, 52530, Note_on_c, 5, 68, 127
7, 52537, Note_on_c, 5, 68, 0
7, 52560, Note_on_c, 5, 77, 127
7, 52573, Note_on_c, 5, 77, 0
7, 52620, Note_on_c, 5, 72, 127
7, 52630, Note_on_c, 5, 72, 0
7, 52680, Note_on_c, 5, 72, 127
7, 52694, Note_on_c, 5, 72, 0
7, 52710, Note_on_c, 5, 70, 127
7, 52725, Note_on_c, 5, 70, 0
7, 52740, Note_on_c, 5, 65, 127
7, 52753, Note_on_c, 5, 65, 0
7, 52770, Note_on_c, 5, 68, 127
7, 52776, Note_on_c, 5, 68, 0
7, 52800, Note_on_c, 5, 70, 127
7, 52814, Note_on_c, 5, 70, 0
7, 52860, Note_on_c, 5, 70, 127
7, 52877, Note_on_c, 5, 70, 0
7, 52920, Note_on_c, 5, 65, 127
7, 52933, Note_on_c, 5, 65, 0
7, 53010, Note_on_c, 5, 68, 127
7, 53023, Note_on_c, 5, 68, 0
7, 53040, Note_on_c, 5, 70, 127
7, 53051, Note_on_c, 5, 70, 0
7, 53070, Note_on_c, 5, 65, 127
7, 53082, Note_on_c, 5, 65, 0
7, 53100, Note_on_c, 5, 68, 127
7, 53114, Note_on_c, 5, 68, 0
7, 53160, Note_on_c, 5, 70, 127
7, 53175, Note_on_c, 5, 70, 0
7, 53190, Note_on_c, 5, 72, 127
7, 53203, Note_on_c, 5, 72, 0
7, 53220, Note_on_c, 5, 75, 127
7, 53231, Note_on_c, 5, 75, 0
7, 53250, Note_on_c, 5, 82, 127
7, 53261, Note_on_c, 5, 82, 0
7, 53280, Note_on_c, 5, 80, 127
7, 53295, Note_on_c, 5, 80, 0
7, 53340, Note_on_c, 5, 80, 127
7, 53352, Note_on_c, 5, 80, 0
7, 53400, Note_on_c, 5, 77, 127
7, 53417, Note_on_c, 5, 77, 0
7, 53430, Note_on_c, 5, 72, 127
7, 53445, Note_on_c, 5, 72, 0
7, 53460, Note_on_c, 5, 70, 127
7, 53475, Note_on_c, 5, 70, 0
7, 53490, Note_on_c, 5, 68, 127
7, 53497, Note_on_c, 5, 68, 0
7, 53520, Note_on_c, 5, 77, 127
7, 53533, Note_on_c, 5, 77, 0
7, 53580, Note_on_c, 5, 72, 127
7, 53590, Note_on_c, 5, 72, 0
7, 53640, Note_on_c, 5, 72, 127
7, 53654, Note_on_c, 5, 72, 0
7, 53670, Note_on_c, 5, 70, 127
7, 53685, Note_on_c, 5, 70, 0
7, 53700, Note_on_c, 5, 65, 127
7, 53713, Note_on_c, 5, 65, 0
7, 53730, Note_on_c, 5, 68, 127
7, 53736, Note_on_c, 5, 68, 0
7, 53760, Note_on_c, 5, 70, 127
7, 53774, Note_on_c, 5, 70, 0
7, 53820, Note_on_c, 5, 70, 127
7, 53837, Note_on_c, 5, 70, 0
7, 53880, Note_on_c, 5, 65, 127
7, 53893, Note_on_c, 5, 65, 0
7, 53970, Note_on_c, 5, 68, 127
7, 53983, Note_on_c, 5, 68, 0
7, 54000, Note_on_c, 5, 70, 127
7, 54011, Note_on_c, 5, 70, 0
7, 54030, Note_on_c, 5, 65, 127
7, 54042, Note_on_c, 5, 65, 0
7, 54060, Note_on_c, 5, 68, 127
7, 54074, Note_on_c, 5, 68, 0
7, 54120, Note_on_c, 5, 70, 127
7, 54135, Note_on_c, 5, 70, 0
7, 54150, Note_on_c, 5, 72, 127
7, 54163, Note_on_c, 5, 72, 0
7, 54180, Note_on_c, 5, 75, 127
7, 54191, Note_on_c, 5, 75, 0
7, 54210, Note_on_c, 5, 82, 127
7, 54221, Note_on_c, 5, 82, 0
7, 54240, Note_on_c, 5, 80, 127
7, 54255, Note_on_c, 5, 80, 0
7, 54300, Note_on_c, 5, 80, 127
7, 54312, Note_on_c, 5, 80, 0
7, 54360, Note_on_c, 5, 77, 127
7, 54377, Note_on_c, 5, 77, 0
7, 54390, Note_on_c, 5, 72, 127
7, 54405, Note_on_c, 5, 72, 0
7, 54420, Note_on_c, 5, 70, 127
7, 54435, Note_on_c, 5, 70, 0
7, 54450, Note_on_c, 5, 68, 127
7, 54457, Note_on_c, 5, 68, 0
7, 54480, Note_on_c, 5, 77, 127
7, 54493, Note_on_c, 5, 77, 0
7, 54540, Note_on_c, 5, 72, 127
7, 54550, Note_on_c, 5, 72, 0
7, 54600, Note_on_c, 5, 72, 127
7, 54614, Note_on_c, 5, 72, 0
7, 54630, Note_on_c, 5, 70, 127
7, 54645, Note_on_c, 5, 70, 0
7, 54660, Note_on_c, 5, 65, 127
7, 54673, Note_on_c, 5, 65, 0
7, 54690, Note_on_c, 5, 68, 127
7, 54696, Note_on_c, 5, 68, 0
7, 54720, Note_on_c, 5, 70, 127
7, 54734, Note_on_c, 5, 70, 0
7, 54780, Note_on_c, 5, 70, 127
7, 54797, Note_on_c, 5, 70, 0
7, 54840, Note_on_c, 5, 65, 127
7, 54853, Note_on_c, 5, 65, 0
7, 54930, Note_on_c, 5, 68, 127
7, 54943, Note_on_c, 5, 68, 0
7, 54960, Note_on_c, 5, 70, 127
7, 54971, Note_on_c, 5, 70, 0
7, 54990, Note_on_c, 5, 65, 127
7, 55002, Note_on_c, 5, 65, 0
7, 55020, Note_on_c, 5, 68, 127
7, 55034, Note_on_c, 5, 68, 0
7, 55080, Note_on_c, 5, 70, 127
7, 55095, Note_on_c, 5, 70, 0
7, 55110, Note_on_c, 5, 72, 127
7, 55123, Note_on_c, 5, 72, 0
7, 55140, Note_on_c, 5, 75, 127
7, 55151, Note_on_c, 5, 75, 0
7, 55170, Note_on_c, 5, 82, 127
7, 55181, Note_on_c, 5, 82, 0
7, 55200, Note_on_c, 5, 80, 127
7, 55215, Note_on_c, 5, 80, 0
7, 55260, Note_on_c, 5, 80, 127
7, 55272, Note_on_c, 5, 80, 0
7, 55320, Note_on_c, 5, 77, 127
7, 55337, Note_on_c, 5, 77, 0
7, 55350, Note_on_c, 5, 72, 127
7, 55365, Note_on_c, 5, 72, 0
7, 55380, Note_on_c, 5, 70, 127
7, 55395, Note_on_c, 5, 70, 0
7, 55410, Note_on_c, 5, 68, 127
7, 55417, Note_on_c, 5, 68, 0
7, 55440, Note_on_c, 5, 77, 127
7, 55453, Note_on_c, 5, 77, 0
7, 55500, Note_on_c, 5, 72, 127
7, 55510, Note_on_c, 5, 72, 0
7, 55560, Note_on_c, 5, 72, 127
7, 55574, Note_on_c, 5, 72, 0
7, 55590, Note_on_c, 5, 70, 127
7, 55605, Note_on_c, 5, 70, 0
7, 55620, Note_on_c, 5, 65, 127
7, 55633, Note_on_c, 5, 65, 0
7, 55650, Note_on_c, 5, 68, 127
7, 55656, Note_on_c, 5, 68, 0
7, 55680, Note_on_c, 5, 70, 127
7, 55694, Note_on_c, 5, 70, 0
7, 55740, Note_on_c, 5, 70, 127
7, 55757, Note_on_c, 5, 70, 0
7, 55800, Note_on_c, 5, 65, 127
7, 55813, Note_on_c, 5, 65, 0
7, 55890, Note_on_c, 5, 68, 127
7, 55903, Note_on_c, 5, 68, 0
7, 55920, Note_on_c, 5, 70, 127
7, 55931, Note_on_c, 5, 70, 0
7, 55950, Note_on_c, 5, 65, 127
7, 55962, Note_on_c, 5, 65, 0
7, 55980, Note_on_c, 5, 68, 127
7, 55994, Note_on_c, 5, 68, 0
7, 56040, Note_on_c, 5, 70, 127
7, 56055, Note_on_c, 5, 70, 0
7, 56070, Note_on_c, 5, 72, 127
7, 56083, Note_on_c, 5, 72, 0
7, 56100, Note_on_c, 5, 75, 127
7, 56111, Note_on_c, 5, 75, 0
7, 56130, Note_on_c, 5, 82, 127
7, 56141, Note_on_c, 5, 82, 0
7, 56160, Note_on_c, 5, 80, 127
7, 56175, Note_on_c, 5, 80, 0
7, 56220, Note_on_c, 5, 80, 127
7, 56232, Note_on_c, 5, 80, 0
7, 56280, Note_on_c, 5, 77, 127
7, 56297, Note_on_c, 5, 77, 0
7, 56310, Note_on_c, 5, 72, 127
7, 56325, Note_on_c, 5, 72, 0
7, 56340, Note_on_c, 5, 70, 127
7, 56355, Note_on_c, 5, 70, 0
7, 56370, Note_on_c, 5, 68, 127
7, 56377, Note_on_c, 5, 68, 0
7, 56400, Note_on_c, 5, 77, 127
7, 56413, Note_on_c, 5, 77, 0
7, 56460, Note_on_c, 5, 72, 127
7, 56470, Note_on_c, 5, 72, 0
7, 56520, Note_on_c, 5, 72, 127
7, 56534, Note_on_c, 5, 72, 0
7, 56550, Note_on_c, 5, 70, 127
7, 56565, Note_on_c, 5, 70, 0
7, 56580, Note_on_c, 5, 65, 127
7, 56593, Note_on_c, 5, 65, 0
7, 56610, Note_on_c, 5, 68, 127
7, 56616, Note_on_c, 5, 68, 0
7, 56640, Note_on_c, 5, 70, 127
7, 56654, Note_on_c, 5, 70, 0
7, 56700, Note_on_c, 5, 70, 127
7, 56717, Note_on_c, 5, 70, 0
7, 56760, Note_on_c, 5, 65, 127
7, 56773, Note_on_c, 5, 65, 0
7, 56850, Note_on_c, 5, 68, 127
7, 56863, Note_on_c, 5, 68, 0
7, 56880, Note_on_c, 5, 70, 127
7, 56891, Note_on_c, 5, 70, 0
7, 56910, Note_on_c, 5, 65, 127
7, 56922, Note_on_c, 5, 65, 0
7, 56940, Note_on_c, 5, 68, 127
7, 56954, Note_on_c, 5, 68, 0
7, 57000, Note_on_c, 5, 70, 127
7, 57015, Note_on_c, 5, 70, 0
7, 57030, Note_on_c, 5, 72, 127
7, 57043, Note_on_c, 5, 72, 0
7, 57060, Note_on_c, 5, 75, 127
7, 57071, Note_on_c, 5, 75, 0
7, 57090, Note_on_c, 5, 82, 127
7, 57101, Note_on_c, 5, 82, 0
7, 57120, Note_on_c, 5, 80, 127
7, 57135, Note_on_c, 5, 80, 0
7, 57180, Note_on_c, 5, 80, 127
7, 57192, Note_on_c, 5, 80, 0
7, 57240, Note_on_c, 5, 77, 127
7, 57257, Note_on_c, 5, 77, 0
7, 57270, Note_on_c, 5, 72, 127
7, 57285, Note_on_c, 5, 72, 0
7, 57300, Note_on_c, 5, 70, 127
7, 57315, Note_on_c, 5, 70, 0
7, 57330, Note_on_c, 5, 68, 127
7, 57337, Note_on_c, 5, 68, 0
7, 57360, Note_on_c, 5, 77, 127
7, 57373, Note_on_c, 5, 77, 0
7, 57420, Note_on_c, 5, 72, 127
7, 57430, Note_on_c, 5, 72, 0
7, 57480, Note_on_c, 5, 72, 127
7, 57494, Note_on_c, 5, 72, 0
7, 57510, Note_on_c, 5, 70, 127
7, 57525, Note_on_c, 5, 70, 0
7, 57540, Note_on_c, 5, 65, 127
7, 57553, Note_on_c, 5, 65, 0
7, 57570, Note_on_c, 5, 68, 127
7, 57576, Note_on_c, 5, 68, 0
7, 57600, Note_on_c, 5, 70, 127
7, 57614, Note_on_c, 5, 70, 0
7, 57660, Note_on_c, 5, 70, 127
7, 57677, Note_on_c, 5, 70, 0
7, 57720, Note_on_c, 5, 65, 127
7, 57733, Note_on_c, 5, 65, 0
7, 57810, Note_on_c, 5, 68, 127
7, 57823, Note_on_c, 5, 68, 0
7, 57840, Note_on_c, 5, 70, 127
7, 57851, Note_on_c, 5, 70, 0
7, 57870, Note_on_c, 5, 65, 127
7, 57882, Note_on_c, 5, 65, 0
7, 57900, Note_on_c, 5, 68, 127
7, 57914, Note_on_c, 5, 68, 0
7, 57960, Note_on_c, 5, 70, 127
7, 57975, Note_on_c, 5, 70, 0
7, 57990, Note_on_c, 5, 72, 127
7, 58003, Note_on_c, 5, 72, 0
7, 58020, Note_on_c, 5, 75, 127
7, 58031, Note_on_c, 5, 75, 0
7, 58050, Note_on_c, 5, 82, 127
7, 58061, Note_on_c, 5, 82, 0
7, 58080, Note_on_c, 5, 80, 127
7, 58095, Note_on_c, 5, 80, 0
7, 58140, Note_on_c, 5, 80, 127
7, 58152, Note_on_c, 5, 80, 0
7, 58200, Note_on_c, 5, 77, 127
7, 58217, Note_on_c, 5, 77, 0
7, 58230, Note_on_c, 5, 72, 127
7, 58245, Note_on_c, 5, 72, 0
7, 58260, Note_on_c, 5, 70, 127
7, 58275, Note_on_c, 5, 70, 0
7, 58290, Note_on_c, 5, 68, 127
7, 58297, Note_on_c, 5, 68, 0
7, 58320, Note_on_c, 5, 77, 127
7, 58333, Note_on_c, 5, 77, 0
7, 58380, Note_on_c, 5, 72, 127
7, 58390, Note_on_c, 5, 72, 0
7, 58440, Note_on_c, 5, 72, 127
7, 58454, Note_on_c, 5, 72, 0
7, 58470, Note_on_c, 5, 70, 127
7, 58485, Note_on_c, 5, 70, 0
7, 58500, Note_on_c, 5, 65, 127
7, 58513, Note_on_c, 5, 65, 0
7, 58530, Note_on_c, 5, 68, 127
7, 58536, Note_on_c, 5, 68, 0
7, 58560, Note_on_c, 5, 70, 127
7, 58574, Note_on_c, 5, 70, 0
7, 58620, Note_on_c, 5, 70, 127
7, 58637, Note_on_c, 5, 70, 0
7, 58680, Note_on_c, 5, 65, 127
7, 58693, Note_on_c, 5, 65, 0
7, 58770, Note_on_c, 5, 68, 127
7, 58783, Note_on_c, 5, 68, 0
7, 58800, Note_on_c, 5, 70, 127
7, 58811, Note_on_c, 5, 70, 0
7, 58830, Note_on_c, 5, 65, 127
7, 58842, Note_on_c, 5, 65, 0
7, 58860, Note_on_c, 5, 68, 127
7, 58874, Note_on_c, 5, 68, 0
7, 58920, Note_on_c, 5, 70, 127
7, 58935, Note_on_c, 5, 70, 0
7, 58950, Note_on_c, 5, 72, 127
7, 58963, Note_on_c, 5, 72, 0
7, 58980, Note_on_c, 5, 75, 127
7, 58991, Note_on_c, 5, 75, 0
7, 59010, Note_on_c, 5, 82, 127
7, 59021, Note_on_c, 5, 82, 0
7, 59040, Note_on_c, 5, 80, 127
7, 59055, Note_on_c, 5, 80, 0
7, 59100, Note_on_c, 5, 80, 127
7, 59112, Note_on_c, 5, 80, 0
7, 59160, Note_on_c, 5, 77, 127
7, 59177, Note_on_c, 5, 77, 0
7, 59190, Note_on_c, 5, 72, 127
7, 59205, Note_on_c, 5, 72, 0
7, 59220, Note_on_c, 5, 70, 127
7, 59235, Note_on_c, 5, 70, 0
7, 59250, Note_on_c, 5, 68, 127
7, 59257, Note_on_c, 5, 68, 0
7, 59280, Note_on_c, 5, 77, 127
7, 59293, Note_on_c, 5, 77, 0
7, 59340, Note_on_c, 5, 72, 127
7, 59350, Note_on_c, 5, 72, 0
7, 59400, Note_on_c, 5, 72, 127
7, 59414, Note_on_c, 5, 72, 0
7, 59430, Note_on_c, 5, 70, 127
7, 59445, Note_on_c, 5, 70, 0
7, 59460, Note_on_c, 5, 65, 127
7, 59473, Note_on_c, 5, 65, 0
7, 59490, Note_on_c, 5, 68, 127
7, 59496, Note_on_c, 5, 68, 0
7, 59520, Note_on_c, 5, 70, 127
7, 59534, Note_on_c, 5, 70, 0
7, 59580, Note_on_c, 5, 70, 127
7, 59597, Note_on_c, 5, 70, 0
7, 59640, Note_on_c, 5, 65, 127
7, 59653, Note_on_c, 5, 65, 0
7, 59730, Note_on_c, 5, 68, 127
7, 59743, Note_on_c, 5, 68, 0
7, 59760, Note_on_c, 5, 70, 127
7, 59771, Note_on_c, 5, 70, 0
7, 59790, Note_on_c, 5, 65, 127
7, 59802, Note_on_c, 5, 65, 0
7, 59820, Note_on_c, 5, 68, 127
7, 59834, Note_on_c, 5, 68, 0
7, 59880, Note_on_c, 5, 70, 127
7, 59895, Note_on_c, 5, 70, 0
7, 59910, Note_on_c, 5, 72, 127
7, 59923, Note_on_c, 5, 72, 0
7, 59940, Note_on_c, 5, 75, 127
7, 59951, Note_on_c, 5, 75, 0
7, 59970, Note_on_c, 5, 82, 127
7, 59981, Note_on_c, 5, 82, 0
7, 60000, Note_on_c, 5, 80, 127
7, 60015, Note_on_c, 5, 80, 0
7, 60060, Note_on_c, 5, 80, 127
7, 60072, Note_on_c, 5, 80, 0
7, 60120, Note_on_c, 5, 77, 127
7, 60137, Note_on_c, 5, 77, 0
7, 60150, Note_on_c, 5, 72, 127
7, 60165, Note_on_c, 5, 72, 0
7, 60180, Note_on_c, 5, 70, 127
7, 60195, Note_on_c, 5, 70, 0
7, 60210, Note_on_c, 5, 68, 127
7, 60217, Note_on_c, 5, 68, 0
7, 60240, Note_on_c, 5, 77, 127
7, 60253, Note_on_c, 5, 77, 0
7, 60300, Note_on_c, 5, 72, 127
7, 60310, Note_on_c, 5, 72, 0
7, 60360, Note_on_c, 5, 72, 127
7, 60374, Note_on_c, 5, 72, 0
7, 60390, Note_on_c, 5, 70, 127
7, 60405, Note_on_c, 5, 70, 0
7, 60420, Note_on_c, 5, 65, 127
7, 60433, Note_on_c, 5, 65, 0
7, 60450, Note_on_c, 5, 68, 127
7, 60456, Note_on_c, 5, 68, 0
7, 60480, Note_on_c, 5, 70, 127
7, 60494, Note_on_c, 5, 70, 0
7, 60540, Note_on_c, 5, 70, 127
7, 60557, Note_on_c, 5, 70, 0
7, 60600, Note_on_c, 5, 65, 127
7, 60613, Note_on_c, 5, 65, 0
7, 60690, Note_on_c, 5, 68, 127
7, 60703, Note_on_c, 5, 68, 0
7, 60720, Note_on_c, 5, 70, 127
7, 60731, Note_on_c, 5, 70, 0
7, 60750, Note_on_c, 5, 65, 127
7, 60762, Note_on_c, 5, 65, 0
7, 60780, Note_on_c, 5, 68, 127
7, 60794, Note_on_c, 5, 68, 0
7, 60840, Note_on_c, 5, 70, 127
7, 60855, Note_on_c, 5, 70, 0
7, 60870, Note_on_c, 5, 72, 127
7, 60883, Note_on_c, 5, 72, 0
7, 60900, Note_on_c, 5, 75, 127
7, 60911, Note_on_c, 5, 75, 0
7, 60930, Note_on_c, 5, 82, 127
7, 60941, Note_on_c, 5, 82, 0
7, 60960, Note_on_c, 5, 80, 127
7, 60975, Note_on_c, 5, 80, 0
7, 61020, Note_on_c, 5, 80, 127
7, 61032, Note_on_c, 5, 80, 0
7, 61080, Note_on_c, 5, 77, 127
7, 61097, Note_on_c, 5, 77, 0
7, 61110, Note_on_c, 5, 72, 127
7, 61125, Note_on_c, 5, 72, 0
7, 61140, Note_on_c, 5, 70, 127
7, 61155, Note_on_c, 5, 70, 0
7, 61170, Note_on_c, 5, 68, 127
7, 61177, Note_on_c, 5, 68, 0
7, 61200, Note_on_c, 5, 77, 127
7, 61213, Note_on_c, 5, 77, 0
7, 61260, Note_on_c, 5, 72, 127
7, 61270, Note_on_c, 5, 72, 0
7, 61320, Note_on_c, 5, 72, 127
7, 61334, Note_on_c, 5, 72, 0
7, 61350, Note_on_c, 5, 70, 127
7, 61365, Note_on_c, 5, 70, 0
7, 61380, Note_on_c, 5, 65, 127
7, 61393, Note_on_c, 5, 65, 0
7, 61410, Note_on_c, 5, 68, 127
7, 61416, Note_on_c, 5, 68, 0
7, 61440, Note_on_c, 5, 70, 127
7, 61454, Note_on_c, 5, 70, 0
7, 61500, Note_on_c, 5, 70, 127
7, 61517, Note_on_c, 5, 70, 0
7, 61560, Note_on_c, 5, 65, 127
7, 61573, Note_on_c, 5, 65, 0
7, 61650, Note_on_c, 5, 68, 127
7, 61663, Note_on_c, 5, 68, 0
7, 61680, Note_on_c, 5, 70, 127
7, 61691, Note_on_c, 5, 70, 0
7, 61710, Note_on_c, 5, 65, 127
7, 61722, Note_on_c, 5, 65, 0
7, 61740, Note_on_c, 5, 68, 127
7, 61754, Note_on_c, 5, 68, 0
7, 61800, Note_on_c, 5, 70, 127
7, 61815, Note_on_c, 5, 70, 0
7, 61830, Note_on_c, 5, 72, 127
7, 61843, Note_on_c, 5, 72, 0
7, 61860, Note_on_c, 5, 75, 127
7, 61871, Note_on_c, 5, 75, 0
7, 61890, Note_on_c, 5, 82, 127
7, 61901, Note_on_c, 5, 82, 0
7, 61920, Note_on_c, 5, 80, 127
7, 61935, Note_on_c, 5, 80, 0
7, 61980, Note_on_c, 5, 80, 127
7, 61992, Note_on_c, 5, 80, 0
7, 62040, Note_on_c, 5, 77, 127
7, 62057, Note_on_c, 5, 77, 0
7, 62070, Note_on_c, 5, 72, 127
7, 62085, Note_on_c, 5, 72, 0
7, 62100, Note_on_c, 5, 70, 127
7, 62115, Note_on_c, 5, 70, 0
7, 62130, Note_on_c, 5, 68, 127
7, 62137, Note_on_c, 5, 68, 0
7, 62160, Note_on_c, 5, 77, 127
7, 62173, Note_on_c, 5, 77, 0
7, 62220, Note_on_c, 5, 72, 127
7, 62230, Note_on_c, 5, 72, 0
7, 62280, Note_on_c, 5, 72, 127
7, 62294, Note_on_c, 5, 72, 0
7, 62310, Note_on_c, 5, 70, 127
7, 62325, Note_on_c, 5, 70, 0
7, 62340, Note_on_c, 5, 65, 127
7, 62353, Note_on_c, 5, 65, 0
7, 62370, Note_on_c, 5, 68, 127
7, 62376, Note_on_c, 5, 68, 0
7, 62400, Note_on_c, 5, 70, 127
7, 62414, Note_on_c, 5, 70, 0
7, 62460, Note_on_c, 5, 70, 127
7, 62477, Note_on_c, 5, 70, 0
7, 62520, Note_on_c, 5, 65, 127
7, 62533, Note_on_c, 5, 65, 0
7, 62610, Note_on_c, 5, 68, 127
7, 62623, Note_on_c, 5, 68, 0
7, 62640, Note_on_c, 5, 70, 127
7, 62651, Note_on_c, 5, 70, 0
7, 62670, Note_on_c, 5, 65, 127
7, 62682, Note_on_c, 5, 65, 0
7, 62700, Note_on_c, 5, 68, 127
7, 62714, Note_on_c, 5, 68, 0
7, 62760, Note_on_c, 5, 70, 127
7, 62775, Note_on_c, 5, 70, 0
7, 62790, Note_on_c, 5, 72, 127
7, 62803, Note_on_c, 5, 72, 0
7, 62820, Note_on_c, 5, 75, 127
7, 62831, Note_on_c, 5, 75, 0
7, 62850, Note_on_c, 5, 82, 127
7, 62861, Note_on_c, 5, 82, 0
7, 62880, Note_on_c, 5, 80, 127
7, 62895, Note_on_c, 5, 80, 0
7, 62940, Note_on_c, 5, 80, 127
7, 62952, Note_on_c, 5, 80, 0
7, 63000, Note_on_c, 5, 77, 127
7, 63017, Note_on_c, 5, 77, 0
7, 63030, Note_on_c, 5, 72, 127
7, 63045, Note_on_c, 5, 72, 0
7, 63060, Note_on_c, 5, 70, 127
7, 63075, Note_on_c, 5, 70, 0
7, 63090, Note_on_c, 5, 68, 127
7, 63097, Note_on_c, 5, 68, 0
7, 63120, Note_on_c, 5, 77, 127
7, 63133, Note_on_c, 5, 77, 0
7, 63180, Note_on_c, 5, 72, 127
7, 63190, Note_on_c, 5, 72, 0
7, 63240, Note_on_c, 5, 72, 127
7, 63254, Note_on_c, 5, 72, 0
7, 63270, Note_on_c, 5, 70, 127
7, 63285, Note_on_c, 5, 70, 0
7, 63300, Note_on_c, 5, 65, 127
7, 63313, Note_on_c, 5, 65, 0
7, 63330, Note_on_c, 5, 68, 127
7, 63336, Note_on_c, 5, 68, 0
7, 63360, Note_on_c, 5, 70, 127
7, 63374, Note_on_c, 5, 70, 0
7, 63420, Note_on_c, 5, 70, 127
7, 63437, Note_on_c, 5, 70, 0
7, 63480, Note_on_c, 5, 65, 127
7, 63493, Note_on_c, 5, 65, 0
7, 63570, Note_on_c, 5, 68, 127
7, 63583, Note_on_c, 5, 68, 0
7, 63600, Note_on_c, 5, 70, 127
7, 63611, Note_on_c, 5, 70, 0
7, 63630, Note_on_c, 5, 65, 127
7, 63642, Note_on_c, 5, 65, 0
7, 63660, Note_on_c, 5, 68, 127
7, 63674, Note_on_c, 5, 68, 0
7, 63720, Note_on_c, 5, 70, 127
7, 63735, Note_on_c, 5, 70, 0
7, 63750, Note_on_c, 5, 72, 127
7, 63763, Note_on_c, 5, 72, 0
7, 63780, Note_on_c, 5, 75, 127
7, 63791, Note_on_c, 5, 75, 0
7, 63810, Note_on_c, 5, 82, 127
7, 63821, Note_on_c, 5, 82, 0
7, 63840, Note_on_c, 5, 80, 127
7, 63855, Note_on_c, 5, 80, 0
7, 63855, End_track
8, 0, Start_track
8, 0, MIDI_port, 0
8, 0, Title_t, "Delay Effect + Trill"
8, 0, Control_c, 6, 91, 101
8, 152, Program_c, 6, 76
8, 153, Control_c, 6, 7, 56
8, 153, Control_c, 6, 10, 105
8, 2490, Note_on_c, 6, 80, 127
8, 2502, Note_on_c, 6, 80, 0
8, 2550, Note_on_c, 6, 80, 127
8, 2562, Note_on_c, 6, 80, 0
8, 2640, Note_on_c, 6, 77, 127
8, 2652, Note_on_c, 6, 77, 0
8, 2670, Note_on_c, 6, 79, 127
8, 2683, Note_on_c, 6, 79, 0
8, 2700, Note_on_c, 6, 80, 127
8, 2710, Note_on_c, 6, 80, 0
8, 2760, Note_on_c, 6, 79, 127
8, 2775, Note_on_c, 6, 79, 0
8, 2790, Note_on_c, 6, 80, 127
8, 2803, Note_on_c, 6, 80, 0
8, 2820, Note_on_c, 6, 82, 127
8, 2829, Note_on_c, 6, 82, 0
8, 2850, Note_on_c, 6, 77, 127
8, 2863, Note_on_c, 6, 77, 0
8, 2970, Note_on_c, 6, 80, 127
8, 2980, Note_on_c, 6, 80, 0
8, 3030, Note_on_c, 6, 80, 127
8, 3042, Note_on_c, 6, 80, 0
8, 3120, Note_on_c, 6, 77, 127
8, 3134, Note_on_c, 6, 77, 0
8, 3150, Note_on_c, 6, 79, 127
8, 3163, Note_on_c, 6, 79, 0
8, 3180, Note_on_c, 6, 80, 127
8, 3187, Note_on_c, 6, 80, 0
8, 3240, Note_on_c, 6, 79, 127
8, 3256, Note_on_c, 6, 79, 0
8, 3270, Note_on_c, 6, 80, 127
8, 3283, Note_on_c, 6, 80, 0
8, 3300, Note_on_c, 6, 82, 127
8, 3310, Note_on_c, 6, 82, 0
8, 3330, Note_on_c, 6, 77, 127
8, 3339, Note_on_c, 6, 77, 0
8, 3450, Note_on_c, 6, 80, 127
8, 3462, Note_on_c, 6, 80, 0
8, 3510, Note_on_c, 6, 80, 127
8, 3522, Note_on_c, 6, 80, 0
8, 3600, Note_on_c, 6, 77, 127
8, 3612, Note_on_c, 6, 77, 0
8, 3630, Note_on_c, 6, 79, 127
8, 3643, Note_on_c, 6, 79, 0
8, 3660, Note_on_c, 6, 80, 127
8, 3670, Note_on_c, 6, 80, 0
8, 3720, Note_on_c, 6, 79, 127
8, 3735, Note_on_c, 6, 79, 0
8, 3750, Note_on_c, 6, 80, 127
8, 3763, Note_on_c, 6, 80, 0
8, 3780, Note_on_c, 6, 82, 127
8, 3789, Note_on_c, 6, 82, 0
8, 3810, Note_on_c, 6, 77, 127
8, 3823, Note_on_c, 6, 77, 0
8, 3930, Note_on_c, 6, 80, 127
8, 3940, Note_on_c, 6, 80, 0
8, 3990, Note_on_c, 6, 80, 127
8, 4002, Note_on_c, 6, 80, 0
8, 4080, Note_on_c, 6, 77, 127
8, 4094, Note_on_c, 6, 77, 0
8, 4110, Note_on_c, 6, 79, 127
8, 4123, Note_on_c, 6, 79, 0
8, 4140, Note_on_c, 6, 80, 127
8, 4147, Note_on_c, 6, 80, 0
8, 4200, Note_on_c, 6, 79, 127
8, 4216, Note_on_c, 6, 79, 0
8, 4230, Note_on_c, 6, 80, 127
8, 4243, Note_on_c, 6, 80, 0
8, 4260, Note_on_c, 6, 82, 127
8, 4270, Note_on_c, 6, 82, 0
8, 4290, Note_on_c, 6, 77, 127
8, 4299, Note_on_c, 6, 77, 0
8, 4410, Note_on_c, 6, 80, 127
8, 4422, Note_on_c, 6, 80, 0
8, 4470, Note_on_c, 6, 80, 127
8, 4482, Note_on_c, 6, 80, 0
8, 4560, Note_on_c, 6, 77, 127
8, 4572, Note_on_c, 6, 77, 0
8, 4590, Note_on_c, 6, 79, 127
8, 4603, Note_on_c, 6, 79, 0
8, 4620, Note_on_c, 6, 80, 127
8, 4630, Note_on_c, 6, 80, 0
8, 4680, Note_on_c, 6, 79, 127
8, 4695, Note_on_c, 6, 79, 0
8, 4710, Note_on_c, 6, 80, 127
8, 4723, Note_on_c, 6, 80, 0
8, 4740, Note_on_c, 6, 82, 127
8, 4749, Note_on_c, 6, 82, 0
8, 4770, Note_on_c, 6, 77, 127
8, 4783, Note_on_c, 6, 77, 0
8, 4890, Note_on_c, 6, 80, 127
8, 4900, Note_on_c, 6, 80, 0
8, 4950, Note_on_c, 6, 80, 127
8, 4962, Note_on_c, 6, 80, 0
8, 5040, Note_on_c, 6, 77, 127
8, 5054, Note_on_c, 6, 77, 0
8, 5070, Note_on_c, 6, 79, 127
8, 5083, Note_on_c, 6, 79, 0
8, 5100, Note_on_c, 6, 80, 127
8, 5107, Note_on_c, 6, 80, 0
8, 5160, Note_on_c, 6, 79, 127
8, 5176, Note_on_c, 6, 79, 0
8, 5190, Note_on_c, 6, 80, 127
8, 5203, Note_on_c, 6, 80, 0
8, 5220, Note_on_c, 6, 82, 127
8, 5230, Note_on_c, 6, 82, 0
8, 5250, Note_on_c, 6, 77, 127
8, 5259, Note_on_c, 6, 77, 0
8, 5370, Note_on_c, 6, 80, 127
8, 5382, Note_on_c, 6, 80, 0
8, 5430, Note_on_c, 6, 80, 127
8, 5442, Note_on_c, 6, 80, 0
8, 5520, Note_on_c, 6, 77, 127
8, 5532, Note_on_c, 6, 77, 0
8, 5550, Note_on_c, 6, 79, 127
8, 5563, Note_on_c, 6, 79, 0
8, 5580, Note_on_c, 6, 80, 127
8, 5590, Note_on_c, 6, 80, 0
8, 5640, Note_on_c, 6, 79, 127
8, 5655, Note_on_c, 6, 79, 0
8, 5670, Note_on_c, 6, 80, 127
8, 5683, Note_on_c, 6, 80, 0
8, 5700, Note_on_c, 6, 82, 127
8, 5709, Note_on_c, 6, 82, 0
8, 5730, Note_on_c, 6, 77, 127
8, 5743, Note_on_c, 6, 77, 0
8, 5850, Note_on_c, 6, 80, 127
8, 5860, Note_on_c, 6, 80, 0
8, 5910, Note_on_c, 6, 80, 127
8, 5922, Note_on_c, 6, 80, 0
8, 6000, Note_on_c, 6, 77, 127
8, 6014, Note_on_c, 6, 77, 0
8, 6030, Note_on_c, 6, 79, 127
8, 6043, Note_on_c, 6, 79, 0
8, 6060, Note_on_c, 6, 80, 127
8, 6067, Note_on_c, 6, 80, 0
8, 6120, Note_on_c, 6, 79, 127
8, 6136, Note_on_c, 6, 79, 0
8, 6150, Note_on_c, 6, 80, 127
8, 6163, Note_on_c, 6, 80, 0
8, 6180, Note_on_c, 6, 82, 127
8, 6190, Note_on_c, 6, 82, 0
8, 6210, Note_on_c, 6, 77, 127
8, 6219, Note_on_c, 6, 77, 0
8, 6330, Note_on_c, 6, 80, 127
8, 6342, Note_on_c, 6, 80, 0
8, 6390, Note_on_c, 6, 80, 127
8, 6402, Note_on_c, 6, 80, 0
8, 6480, Note_on_c, 6, 77, 127
8, 6492, Note_on_c, 6, 77, 0
8, 6510, Note_on_c, 6, 79, 127
8, 6523, Note_on_c, 6, 79, 0
8, 6540, Note_on_c, 6, 80, 127
8, 6550, Note_on_c, 6, 80, 0
8, 6600, Note_on_c, 6, 79, 127
8, 6615, Note_on_c, 6, 79, 0
8, 6630, Note_on_c, 6, 80, 127
8, 6643, Note_on_c, 6, 80, 0
8, 6660, Note_on_c, 6, 82, 127
8, 6669, Note_on_c, 6, 82, 0
8, 6690, Note_on_c, 6, 77, 127
8, 6703, Note_on_c, 6, 77, 0
8, 6810, Note_on_c, 6, 80, 127
8, 6820, Note_on_c, 6, 80, 0
8, 6870, Note_on_c, 6, 80, 127
8, 6882, Note_on_c, 6, 80, 0
8, 6960, Note_on_c, 6, 77, 127
8, 6974, Note_on_c, 6, 77, 0
8, 6990, Note_on_c, 6, 79, 127
8, 7003, Note_on_c, 6, 79, 0
8, 7020, Note_on_c, 6, 80, 127
8, 7027, Note_on_c, 6, 80, 0
8, 7080, Note_on_c, 6, 79, 127
8, 7096, Note_on_c, 6, 79, 0
8, 7110, Note_on_c, 6, 80, 127
8, 7123, Note_on_c, 6, 80, 0
8, 7140, Note_on_c, 6, 82, 127
8, 7150, Note_on_c, 6, 82, 0
8, 7170, Note_on_c, 6, 77, 127
8, 7179, Note_on_c, 6, 77, 0
8, 7290, Note_on_c, 6, 80, 127
8, 7302, Note_on_c, 6, 80, 0
8, 7350, Note_on_c, 6, 80, 127
8, 7362, Note_on_c, 6, 80, 0
8, 7440, Note_on_c, 6, 77, 127
8, 7452, Note_on_c, 6, 77, 0
8, 7470, Note_on_c, 6, 79, 127
8, 7483, Note_on_c, 6, 79, 0
8, 7500, Note_on_c, 6, 80, 127
8, 7510, Note_on_c, 6, 80, 0
8, 7560, Note_on_c, 6, 79, 127
8, 7575, Note_on_c, 6, 79, 0
8, 7590, Note_on_c, 6, 80, 127
8, 7603, Note_on_c, 6, 80, 0
8, 7620, Note_on_c, 6, 82, 127
8, 7629, Note_on_c, 6, 82, 0
8, 7650, Note_on_c, 6, 77, 127
8, 7663, Note_on_c, 6, 77, 0
8, 7770, Note_on_c, 6, 80, 127
8, 7780, Note_on_c, 6, 80, 0
8, 7830, Note_on_c, 6, 80, 127
8, 7842, Note_on_c, 6, 80, 0
8, 7920, Note_on_c, 6, 77, 127
8, 7934, Note_on_c, 6, 77, 0
8, 7950, Note_on_c, 6, 79, 127
8, 7963, Note_on_c, 6, 79, 0
8, 7980, Note_on_c, 6, 80, 127
8, 7987, Note_on_c, 6, 80, 0
8, 8040, Note_on_c, 6, 79, 127
8, 8056, Note_on_c, 6, 79, 0
8, 8070, Note_on_c, 6, 80, 127
8, 8083, Note_on_c, 6, 80, 0
8, 8100, Note_on_c, 6, 82, 127
8, 8110, Note_on_c, 6, 82, 0
8, 8130, Note_on_c, 6, 77, 127
8, 8139, Note_on_c, 6, 77, 0
8, 8250, Note_on_c, 6, 80, 127
8, 8262, Note_on_c, 6, 80, 0
8, 8310, Note_on_c, 6, 80, 127
8, 8322, Note_on_c, 6, 80, 0
8, 8400, Note_on_c, 6, 77, 127
8, 8412, Note_on_c, 6, 77, 0
8, 8430, Note_on_c, 6, 79, 127
8, 8443, Note_on_c, 6, 79, 0
8, 8460, Note_on_c, 6, 80, 127
8, 8470, Note_on_c, 6, 80, 0
8, 8520, Note_on_c, 6, 79, 127
8, 8535, Note_on_c, 6, 79, 0
8, 8550, Note_on_c, 6, 80, 127
8, 8563, Note_on_c, 6, 80, 0
8, 8580, Note_on_c, 6, 82, 127
8, 8589, Note_on_c, 6, 82, 0
8, 8610, Note_on_c, 6, 77, 127
8, 8623, Note_on_c, 6, 77, 0
8, 8730, Note_on_c, 6, 80, 127
8, 8740, Note_on_c, 6, 80, 0
8, 8790, Note_on_c, 6, 80, 127
8, 8802, Note_on_c, 6, 80, 0
8, 8880, Note_on_c, 6, 77, 127
8, 8894, Note_on_c, 6, 77, 0
8, 8910, Note_on_c, 6, 79, 127
8, 8923, Note_on_c, 6, 79, 0
8, 8940, Note_on_c, 6, 80, 127
8, 8947, Note_on_c, 6, 80, 0
8, 9000, Note_on_c, 6, 79, 127
8, 9016, Note_on_c, 6, 79, 0
8, 9030, Note_on_c, 6, 80, 127
8, 9043, Note_on_c, 6, 80, 0
8, 9060, Note_on_c, 6, 82, 127
8, 9070, Note_on_c, 6, 82, 0
8, 9090, Note_on_c, 6, 77, 127
8, 9099, Note_on_c, 6, 77, 0
8, 9210, Note_on_c, 6, 80, 127
8, 9222, Note_on_c, 6, 80, 0
8, 9270, Note_on_c, 6, 80, 127
8, 9282, Note_on_c, 6, 80, 0
8, 9360, Note_on_c, 6, 77, 127
8, 9372, Note_on_c, 6, 77, 0
8, 9390, Note_on_c, 6, 79, 127
8, 9403, Note_on_c, 6, 79, 0
8, 9420, Note_on_c, 6, 80, 127
8, 9430, Note_on_c, 6, 80, 0
8, 9480, Note_on_c, 6, 79, 127
8, 9495, Note_on_c, 6, 79, 0
8, 9510, Note_on_c, 6, 80, 127
8, 9523, Note_on_c, 6, 80, 0
8, 9540, Note_on_c, 6, 82, 127
8, 9549, Note_on_c, 6, 82, 0
8, 9570, Note_on_c, 6, 77, 127
8, 9583, Note_on_c, 6, 77, 0
8, 9690, Note_on_c, 6, 80, 127
8, 9700, Note_on_c, 6, 80, 0
8, 9750, Note_on_c, 6, 80, 127
8, 9762, Note_on_c, 6, 80, 0
8, 9840, Note_on_c, 6, 77, 127
8, 9854, Note_on_c, 6, 77, 0
8, 9870, Note_on_c, 6, 79, 127
8, 9883, Note_on_c, 6, 79, 0
8, 9900, Note_on_c, 6, 80, 127
8, 9907, Note_on_c, 6, 80, 0
8, 9960, Note_on_c, 6, 79, 127
8, 9976, Note_on_c, 6, 79, 0
8, 9990, Note_on_c, 6, 80, 127
8, 10003, Note_on_c, 6, 80, 0
8, 10020, Note_on_c, 6, 82, 127
8, 10030, Note_on_c, 6, 82, 0
8, 10050, Note_on_c, 6, 77, 127
8, 10059, Note_on_c, 6, 77, 0
8, 10170, Note_on_c, 6, 80, 127
8, 10182, Note_on_c, 6, 80, 0
8, 10230, Note_on_c, 6, 80, 127
8, 10242, Note_on_c, 6, 80, 0
8, 10320, Note_on_c, 6, 77, 127
8, 10332, Note_on_c, 6, 77, 0
8, 10350, Note_on_c, 6, 79, 127
8, 10363, Note_on_c, 6, 79, 0
8, 10380, Note_on_c, 6, 80, 127
8, 10390, Note_on_c, 6, 80, 0
8, 10440, Note_on_c, 6, 79, 127
8, 10455, Note_on_c, 6, 79, 0
8, 10470, Note_on_c, 6, 80, 127
8, 10483, Note_on_c, 6, 80, 0
8, 10500, Note_on_c, 6, 82, 127
8, 10509, Note_on_c, 6, 82, 0
8, 10530, Note_on_c, 6, 77, 127
8, 10543, Note_on_c, 6, 77, 0
8, 10650, Note_on_c, 6, 80, 127
8, 10660, Note_on_c, 6, 80, 0
8, 10710, Note_on_c, 6, 80, 127
8, 10722, Note_on_c, 6, 80, 0
8, 10800, Note_on_c, 6, 77, 127
8, 10814, Note_on_c, 6, 77, 0
8, 10830, Note_on_c, 6, 79, 127
8, 10843, Note_on_c, 6, 79, 0
8, 10860, Note_on_c, 6, 80, 127
8, 10867, Note_on_c, 6, 80, 0
8, 10920, Note_on_c, 6, 79, 127
8, 10936, Note_on_c, 6, 79, 0
8, 10950, Note_on_c, 6, 80, 127
8, 10963, Note_on_c, 6, 80, 0
8, 10980, Note_on_c, 6, 82, 127
8, 10990, Note_on_c, 6, 82, 0
8, 11010, Note_on_c, 6, 77, 127
8, 11019, Note_on_c, 6, 77, 0
8, 11130, Note_on_c, 6, 80, 127
8, 11142, Note_on_c, 6, 80, 0
8, 11190, Note_on_c, 6, 80, 127
8, 11202, Note_on_c, 6, 80, 0
8, 11280, Note_on_c, 6, 77, 127
8, 11292, Note_on_c, 6, 77, 0
8, 11310, Note_on_c, 6, 79, 127
8, 11323, Note_on_c, 6, 79, 0
8, 11340, Note_on_c, 6, 80, 127
8, 11350, Note_on_c, 6, 80, 0
8, 11400, Note_on_c, 6, 79, 127
8, 11415, Note_on_c, 6, 79, 0
8, 11430, Note_on_c, 6, 80, 127
8, 11443, Note_on_c, 6, 80, 0
8, 11460, Note_on_c, 6, 82, 127
8, 11469, Note_on_c, 6, 82, 0
8, 11490, Note_on_c, 6, 77, 127
8, 11503, Note_on_c, 6, 77, 0
8, 11610, Note_on_c, 6, 80, 127
8, 11620, Note_on_c, 6, 80, 0
8, 11670, Note_on_c, 6, 80, 127
8, 11682, Note_on_c, 6, 80, 0
8, 11760, Note_on_c, 6, 77, 127
8, 11774, Note_on_c, 6, 77, 0
8, 11790, Note_on_c, 6, 79, 127
8, 11803, Note_on_c, 6, 79, 0
8, 11820, Note_on_c, 6, 80, 127
8, 11827, Note_on_c, 6, 80, 0
8, 11880, Note_on_c, 6, 79, 127
8, 11896, Note_on_c, 6, 79, 0
8, 11910, Note_on_c, 6, 80, 127
8, 11923, Note_on_c, 6, 80, 0
8, 11940, Note_on_c, 6, 82, 127
8, 11950, Note_on_c, 6, 82, 0
8, 11970, Note_on_c, 6, 77, 127
8, 11979, Note_on_c, 6, 77, 0
8, 12090, Note_on_c, 6, 80, 127
8, 12102, Note_on_c, 6, 80, 0
8, 12150, Note_on_c, 6, 80, 127
8, 12162, Note_on_c, 6, 80, 0
8, 12240, Note_on_c, 6, 77, 127
8, 12252, Note_on_c, 6, 77, 0
8, 12270, Note_on_c, 6, 79, 127
8, 12283, Note_on_c, 6, 79, 0
8, 12300, Note_on_c, 6, 80, 127
8, 12310, Note_on_c, 6, 80, 0
8, 12360, Note_on_c, 6, 79, 127
8, 12375, Note_on_c, 6, 79, 0
8, 12390, Note_on_c, 6, 80, 127
8, 12403, Note_on_c, 6, 80, 0
8, 12420, Note_on_c, 6, 82, 127
8, 12429, Note_on_c, 6, 82, 0
8, 12450, Note_on_c, 6, 77, 127
8, 12463, Note_on_c, 6, 77, 0
8, 12570, Note_on_c, 6, 80, 127
8, 12580, Note_on_c, 6, 80, 0
8, 12630, Note_on_c, 6, 80, 127
8, 12642, Note_on_c, 6, 80, 0
8, 12720, Note_on_c, 6, 77, 127
8, 12734, Note_on_c, 6, 77, 0
8, 12750, Note_on_c, 6, 79, 127
8, 12763, Note_on_c, 6, 79, 0
8, 12780, Note_on_c, 6, 80, 127
8, 12787, Note_on_c, 6, 80, 0
8, 12840, Note_on_c, 6, 79, 127
8, 12856, Note_on_c, 6, 79, 0
8, 12870, Note_on_c, 6, 80, 127
8, 12883, Note_on_c, 6, 80, 0
8, 12900, Note_on_c, 6, 82, 127
8, 12910, Note_on_c, 6, 82, 0
8, 12930, Note_on_c, 6, 77, 127
8, 12939, Note_on_c, 6, 77, 0
8, 13050, Note_on_c, 6, 80, 127
8, 13062, Note_on_c, 6, 80, 0
8, 13110, Note_on_c, 6, 80, 127
8, 13122, Note_on_c, 6, 80, 0
8, 13200, Note_on_c, 6, 77, 127
8, 13212, Note_on_c, 6, 77, 0
8, 13230, Note_on_c, 6, 79, 127
8, 13243, Note_on_c, 6, 79, 0
8, 13260, Note_on_c, 6, 80, 127
8, 13270, Note_on_c, 6, 80, 0
8, 13320, Note_on_c, 6, 79, 127
8, 13335, Note_on_c, 6, 79, 0
8, 13350, Note_on_c, 6, 80, 127
8, 13363, Note_on_c, 6, 80, 0
8, 13380, Note_on_c, 6, 82, 127
8, 13389, Note_on_c, 6, 82, 0
8, 13410, Note_on_c, 6, 77, 127
8, 13423, Note_on_c, 6, 77, 0
8, 13530, Note_on_c, 6, 80, 127
8, 13540, Note_on_c, 6, 80, 0
8, 13590, Note_on_c, 6, 80, 127
8, 13602, Note_on_c, 6, 80, 0
8, 13680, Note_on_c, 6, 77, 127
8, 13694, Note_on_c, 6, 77, 0
8, 13710, Note_on_c, 6, 79, 127
8, 13723, Note_on_c, 6, 79, 0
8, 13740, Note_on_c, 6, 80, 127
8, 13747, Note_on_c, 6, 80, 0
8, 13800, Note_on_c, 6, 79, 127
8, 13816, Note_on_c, 6, 79, 0
8, 13830, Note_on_c, 6, 80, 127
8, 13843, Note_on_c, 6, 80, 0
8, 13860, Note_on_c, 6, 82, 127
8, 13870, Note_on_c, 6, 82, 0
8, 13890, Note_on_c, 6, 77, 127
8, 13899, Note_on_c, 6, 77, 0
8, 14010, Note_on_c, 6, 80, 127
8, 14022, Note_on_c, 6, 80, 0
8, 14070, Note_on_c, 6, 80, 127
8, 14082, Note_on_c, 6, 80, 0
8, 14160, Note_on_c, 6, 77, 127
8, 14172, Note_on_c, 6, 77, 0
8, 14190, Note_on_c, 6, 79, 127
8, 14203, Note_on_c, 6, 79, 0
8, 14220, Note_on_c, 6, 80, 127
8, 14230, Note_on_c, 6, 80, 0
8, 14280, Note_on_c, 6, 79, 127
8, 14295, Note_on_c, 6, 79, 0
8, 14310, Note_on_c, 6, 80, 127
8, 14323, Note_on_c, 6, 80, 0
8, 14340, Note_on_c, 6, 82, 127
8, 14349, Note_on_c, 6, 82, 0
8, 14370, Note_on_c, 6, 77, 127
8, 14383, Note_on_c, 6, 77, 0
8, 14490, Note_on_c, 6, 80, 127
8, 14500, Note_on_c, 6, 80, 0
8, 14550, Note_on_c, 6, 80, 127
8, 14562, Note_on_c, 6, 80, 0
8, 14640, Note_on_c, 6, 77, 127
8, 14654, Note_on_c, 6, 77, 0
8, 14670, Note_on_c, 6, 79, 127
8, 14683, Note_on_c, 6, 79, 0
8, 14700, Note_on_c, 6, 80, 127
8, 14707, Note_on_c, 6, 80, 0
8, 14760, Note_on_c, 6, 79, 127
8, 14776, Note_on_c, 6, 79, 0
8, 14790, Note_on_c, 6, 80, 127
8, 14803, Note_on_c, 6, 80, 0
8, 14820, Note_on_c, 6, 82, 127
8, 14830, Note_on_c, 6, 82, 0
8, 14850, Note_on_c, 6, 77, 127
8, 14859, Note_on_c, 6, 77, 0
8, 14970, Note_on_c, 6, 80, 127
8, 14982, Note_on_c, 6, 80, 0
8, 15030, Note_on_c, 6, 80, 127
8, 15042, Note_on_c, 6, 80, 0
8, 15120, Note_on_c, 6, 77, 127
8, 15132, Note_on_c, 6, 77, 0
8, 15150, Note_on_c, 6, 79, 127
8, 15163, Note_on_c, 6, 79, 0
8, 15180, Note_on_c, 6, 80, 127
8, 15190, Note_on_c, 6, 80, 0
8, 15240, Note_on_c, 6, 79, 127
8, 15255, Note_on_c, 6, 79, 0
8, 15270, Note_on_c, 6, 80, 127
8, 15283, Note_on_c, 6, 80, 0
8, 15300, Note_on_c, 6, 82, 127
8, 15309, Note_on_c, 6, 82, 0
8, 15330, Note_on_c, 6, 77, 127
8, 15343, Note_on_c, 6, 77, 0
8, 15450, Note_on_c, 6, 80, 127
8, 15460, Note_on_c, 6, 80, 0
8, 15510, Note_on_c, 6, 80, 127
8, 15522, Note_on_c, 6, 80, 0
8, 15600, Note_on_c, 6, 77, 127
8, 15614, Note_on_c, 6, 77, 0
8, 15630, Note_on_c, 6, 79, 127
8, 15643, Note_on_c, 6, 79, 0
8, 15660, Note_on_c, 6, 80, 127
8, 15667, Note_on_c, 6, 80, 0
8, 15720, Note_on_c, 6, 79, 127
8, 15736, Note_on_c, 6, 79, 0
8, 15750, Note_on_c, 6, 80, 127
8, 15763, Note_on_c, 6, 80, 0
8, 15780, Note_on_c, 6, 82, 127
8, 15790, Note_on_c, 6, 82, 0
8, 15810, Note_on_c, 6, 77, 127
8, 15819, Note_on_c, 6, 77, 0
8, 15930, Note_on_c, 6, 82, 127
8, 15942, Note_on_c, 6, 82, 0
8, 15990, Note_on_c, 6, 82, 127
8, 16002, Note_on_c, 6, 82, 0
8, 16081, Note_on_c, 6, 79, 127
8, 16093, Note_on_c, 6, 79, 0
8, 16111, Note_on_c, 6, 81, 127
8, 16124, Note_on_c, 6, 81, 0
8, 16141, Note_on_c, 6, 82, 127
8, 16151, Note_on_c, 6, 82, 0
8, 16200, Note_on_c, 6, 81, 127
8, 16215, Note_on_c, 6, 81, 0
8, 16230, Note_on_c, 6, 82, 127
8, 16243, Note_on_c, 6, 82, 0
8, 16260, Note_on_c, 6, 84, 127
8, 16269, Note_on_c, 6, 84, 0
8, 16290, Note_on_c, 6, 79, 127
8, 16303, Note_on_c, 6, 79, 0
8, 16410, Note_on_c, 6, 82, 127
8, 16420, Note_on_c, 6, 82, 0
8, 16470, Note_on_c, 6, 82, 127
8, 16482, Note_on_c, 6, 82, 0
8, 16560, Note_on_c, 6, 79, 127
8, 16574, Note_on_c, 6, 79, 0
8, 16590, Note_on_c, 6, 81, 127
8, 16603, Note_on_c, 6, 81, 0
8, 16620, Note_on_c, 6, 82, 127
8, 16627, Note_on_c, 6, 82, 0
8, 16680, Note_on_c, 6, 81, 127
8, 16696, Note_on_c, 6, 81, 0
8, 16710, Note_on_c, 6, 82, 127
8, 16723, Note_on_c, 6, 82, 0
8, 16740, Note_on_c, 6, 84, 127
8, 16750, Note_on_c, 6, 84, 0
8, 16770, Note_on_c, 6, 79, 127
8, 16779, Note_on_c, 6, 79, 0
8, 16891, Note_on_c, 6, 82, 127
8, 16903, Note_on_c, 6, 82, 0
8, 16951, Note_on_c, 6, 82, 127
8, 16963, Note_on_c, 6, 82, 0
8, 17041, Note_on_c, 6, 79, 127
8, 17053, Note_on_c, 6, 79, 0
8, 17071, Note_on_c, 6, 81, 127
8, 17084, Note_on_c, 6, 81, 0
8, 17101, Note_on_c, 6, 82, 127
8, 17111, Note_on_c, 6, 82, 0
8, 17161, Note_on_c, 6, 81, 127
8, 17176, Note_on_c, 6, 81, 0
8, 17191, Note_on_c, 6, 82, 127
8, 17204, Note_on_c, 6, 82, 0
8, 17221, Note_on_c, 6, 84, 127
8, 17230, Note_on_c, 6, 84, 0
8, 17251, Note_on_c, 6, 79, 127
8, 17264, Note_on_c, 6, 79, 0
8, 17373, Note_on_c, 6, 82, 127
8, 17383, Note_on_c, 6, 82, 0
8, 17433, Note_on_c, 6, 82, 127
8, 17445, Note_on_c, 6, 82, 0
8, 17523, Note_on_c, 6, 79, 127
8, 17537, Note_on_c, 6, 79, 0
8, 17553, Note_on_c, 6, 81, 127
8, 17566, Note_on_c, 6, 81, 0
8, 17583, Note_on_c, 6, 82, 127
8, 17590, Note_on_c, 6, 82, 0
8, 17643, Note_on_c, 6, 81, 127
8, 17659, Note_on_c, 6, 81, 0
8, 17673, Note_on_c, 6, 82, 127
8, 17686, Note_on_c, 6, 82, 0
8, 17703, Note_on_c, 6, 84, 127
8, 17713, Note_on_c, 6, 84, 0
8, 17733, Note_on_c, 6, 79, 127
8, 17742, Note_on_c, 6, 79, 0
8, 17850, Note_on_c, 6, 80, 127
8, 17862, Note_on_c, 6, 80, 0
8, 17910, Note_on_c, 6, 80, 127
8, 17922, Note_on_c, 6, 80, 0
8, 18000, Note_on_c, 6, 77, 127
8, 18012, Note_on_c, 6, 77, 0
8, 18030, Note_on_c, 6, 79, 127
8, 18043, Note_on_c, 6, 79, 0
8, 18060, Note_on_c, 6, 80, 127
8, 18070, Note_on_c, 6, 80, 0
8, 18120, Note_on_c, 6, 79, 127
8, 18135, Note_on_c, 6, 79, 0
8, 18150, Note_on_c, 6, 80, 127
8, 18163, Note_on_c, 6, 80, 0
8, 18180, Note_on_c, 6, 82, 127
8, 18189, Note_on_c, 6, 82, 0
8, 18210, Note_on_c, 6, 77, 127
8, 18223, Note_on_c, 6, 77, 0
8, 18330, Note_on_c, 6, 80, 127
8, 18340, Note_on_c, 6, 80, 0
8, 18390, Note_on_c, 6, 80, 127
8, 18402, Note_on_c, 6, 80, 0
8, 18480, Note_on_c, 6, 77, 127
8, 18494, Note_on_c, 6, 77, 0
8, 18510, Note_on_c, 6, 79, 127
8, 18523, Note_on_c, 6, 79, 0
8, 18540, Note_on_c, 6, 80, 127
8, 18547, Note_on_c, 6, 80, 0
8, 18600, Note_on_c, 6, 79, 127
8, 18616, Note_on_c, 6, 79, 0
8, 18630, Note_on_c, 6, 80, 127
8, 18643, Note_on_c, 6, 80, 0
8, 18660, Note_on_c, 6, 82, 127
8, 18670, Note_on_c, 6, 82, 0
8, 18690, Note_on_c, 6, 77, 127
8, 18699, Note_on_c, 6, 77, 0
8, 18810, Note_on_c, 6, 80, 127
8, 18822, Note_on_c, 6, 80, 0
8, 18870, Note_on_c, 6, 80, 127
8, 18882, Note_on_c, 6, 80, 0
8, 18960, Note_on_c, 6, 77, 127
8, 18972, Note_on_c, 6, 77, 0
8, 18990, Note_on_c, 6, 79, 127
8, 19003, Note_on_c, 6, 79, 0
8, 19020, Note_on_c, 6, 80, 127
8, 19030, Note_on_c, 6, 80, 0
8, 19080, Note_on_c, 6, 79, 127
8, 19095, Note_on_c, 6, 79, 0
8, 19110, Note_on_c, 6, 80, 127
8, 19123, Note_on_c, 6, 80, 0
8, 19140, Note_on_c, 6, 82, 127
8, 19149, Note_on_c, 6, 82, 0
8, 19170, Note_on_c, 6, 77, 127
8, 19183, Note_on_c, 6, 77, 0
8, 19290, Note_on_c, 6, 80, 127
8, 19300, Note_on_c, 6, 80, 0
8, 19350, Note_on_c, 6, 80, 127
8, 19362, Note_on_c, 6, 80, 0
8, 19440, Note_on_c, 6, 77, 127
8, 19454, Note_on_c, 6, 77, 0
8, 19470, Note_on_c, 6, 79, 127
8, 19483, Note_on_c, 6, 79, 0
8, 19500, Note_on_c, 6, 80, 127
8, 19507, Note_on_c, 6, 80, 0
8, 19560, Note_on_c, 6, 79, 127
8, 19576, Note_on_c, 6, 79, 0
8, 19590, Note_on_c, 6, 80, 127
8, 19603, Note_on_c, 6, 80, 0
8, 19620, Note_on_c, 6, 82, 127
8, 19630, Note_on_c, 6, 82, 0
8, 19650, Note_on_c, 6, 77, 127
8, 19659, Note_on_c, 6, 77, 0
8, 19770, Note_on_c, 6, 82, 127
8, 19782, Note_on_c, 6, 82, 0
8, 19830, Note_on_c, 6, 82, 127
8, 19842, Note_on_c, 6, 82, 0
8, 19921, Note_on_c, 6, 79, 127
8, 19933, Note_on_c, 6, 79, 0
8, 19951, Note_on_c, 6, 81, 127
8, 19964, Note_on_c, 6, 81, 0
8, 19981, Note_on_c, 6, 82, 127
8, 19991, Note_on_c, 6, 82, 0
8, 20040, Note_on_c, 6, 81, 127
8, 20055, Note_on_c, 6, 81, 0
8, 20070, Note_on_c, 6, 82, 127
8, 20083, Note_on_c, 6, 82, 0
8, 20100, Note_on_c, 6, 84, 127
8, 20109, Note_on_c, 6, 84, 0
8, 20130, Note_on_c, 6, 79, 127
8, 20143, Note_on_c, 6, 79, 0
8, 20250, Note_on_c, 6, 82, 127
8, 20260, Note_on_c, 6, 82, 0
8, 20310, Note_on_c, 6, 82, 127
8, 20322, Note_on_c, 6, 82, 0
8, 20400, Note_on_c, 6, 79, 127
8, 20414, Note_on_c, 6, 79, 0
8, 20430, Note_on_c, 6, 81, 127
8, 20443, Note_on_c, 6, 81, 0
8, 20460, Note_on_c, 6, 82, 127
8, 20467, Note_on_c, 6, 82, 0
8, 20520, Note_on_c, 6, 81, 127
8, 20536, Note_on_c, 6, 81, 0
8, 20550, Note_on_c, 6, 82, 127
8, 20563, Note_on_c, 6, 82, 0
8, 20580, Note_on_c, 6, 84, 127
8, 20590, Note_on_c, 6, 84, 0
8, 20610, Note_on_c, 6, 79, 127
8, 20619, Note_on_c, 6, 79, 0
8, 20731, Note_on_c, 6, 82, 127
8, 20743, Note_on_c, 6, 82, 0
8, 20791, Note_on_c, 6, 82, 127
8, 20803, Note_on_c, 6, 82, 0
8, 20881, Note_on_c, 6, 79, 127
8, 20893, Note_on_c, 6, 79, 0
8, 20911, Note_on_c, 6, 81, 127
8, 20924, Note_on_c, 6, 81, 0
8, 20941, Note_on_c, 6, 82, 127
8, 20951, Note_on_c, 6, 82, 0
8, 21001, Note_on_c, 6, 81, 127
8, 21016, Note_on_c, 6, 81, 0
8, 21031, Note_on_c, 6, 82, 127
8, 21044, Note_on_c, 6, 82, 0
8, 21061, Note_on_c, 6, 84, 127
8, 21070, Note_on_c, 6, 84, 0
8, 21091, Note_on_c, 6, 79, 127
8, 21104, Note_on_c, 6, 79, 0
8, 21213, Note_on_c, 6, 82, 127
8, 21223, Note_on_c, 6, 82, 0
8, 21273, Note_on_c, 6, 82, 127
8, 21285, Note_on_c, 6, 82, 0
8, 21363, Note_on_c, 6, 79, 127
8, 21377, Note_on_c, 6, 79, 0
8, 21393, Note_on_c, 6, 81, 127
8, 21406, Note_on_c, 6, 81, 0
8, 21423, Note_on_c, 6, 82, 127
8, 21430, Note_on_c, 6, 82, 0
8, 21483, Note_on_c, 6, 81, 127
8, 21499, Note_on_c, 6, 81, 0
8, 21513, Note_on_c, 6, 82, 127
8, 21526, Note_on_c, 6, 82, 0
8, 21543, Note_on_c, 6, 84, 127
8, 21553, Note_on_c, 6, 84, 0
8, 21573, Note_on_c, 6, 79, 127
8, 21582, Note_on_c, 6, 79, 0
8, 22382, Note_on_c, 6, 51, 127
8, 22391, Note_on_c, 6, 52, 127
8, 22392, Note_on_c, 6, 51, 0
8, 22399, Note_on_c, 6, 52, 0
8, 22399, Note_on_c, 6, 51, 127
8, 22409, Note_on_c, 6, 51, 0
8, 22409, Note_on_c, 6, 52, 127
8, 22416, Note_on_c, 6, 51, 127
8, 22417, Note_on_c, 6, 52, 0
8, 22425, Note_on_c, 6, 52, 127
8, 22427, Note_on_c, 6, 51, 0
8, 22431, Note_on_c, 6, 52, 0
8, 22432, Note_on_c, 6, 51, 127
8, 22451, Note_on_c, 6, 51, 0
8, 23348, Note_on_c, 6, 51, 127
8, 23357, Note_on_c, 6, 52, 127
8, 23358, Note_on_c, 6, 51, 0
8, 23365, Note_on_c, 6, 52, 0
8, 23365, Note_on_c, 6, 51, 127
8, 23375, Note_on_c, 6, 51, 0
8, 23375, Note_on_c, 6, 52, 127
8, 23382, Note_on_c, 6, 51, 127
8, 23383, Note_on_c, 6, 52, 0
8, 23391, Note_on_c, 6, 52, 127
8, 23393, Note_on_c, 6, 51, 0
8, 23397, Note_on_c, 6, 52, 0
8, 23398, Note_on_c, 6, 51, 127
8, 23417, Note_on_c, 6, 51, 0
8, 23610, Note_on_c, 6, 80, 127
8, 23622, Note_on_c, 6, 80, 0
8, 23670, Note_on_c, 6, 80, 127
8, 23682, Note_on_c, 6, 80, 0
8, 23760, Note_on_c, 6, 77, 127
8, 23772, Note_on_c, 6, 77, 0
8, 23790, Note_on_c, 6, 79, 127
8, 23803, Note_on_c, 6, 79, 0
8, 23820, Note_on_c, 6, 80, 127
8, 23830, Note_on_c, 6, 80, 0
8, 23880, Note_on_c, 6, 79, 127
8, 23895, Note_on_c, 6, 79, 0
8, 23910, Note_on_c, 6, 80, 127
8, 23923, Note_on_c, 6, 80, 0
8, 23940, Note_on_c, 6, 82, 127
8, 23949, Note_on_c, 6, 82, 0
8, 23970, Note_on_c, 6, 77, 127
8, 23983, Note_on_c, 6, 77, 0
8, 24090, Note_on_c, 6, 80, 127
8, 24100, Note_on_c, 6, 80, 0
8, 24150, Note_on_c, 6, 80, 127
8, 24162, Note_on_c, 6, 80, 0
8, 24240, Note_on_c, 6, 77, 127
8, 24254, Note_on_c, 6, 77, 0
8, 24270, Note_on_c, 6, 79, 127
8, 24283, Note_on_c, 6, 79, 0
8, 24300, Note_on_c, 6, 80, 127
8, 24307, Note_on_c, 6, 80, 0
8, 24308, Note_on_c, 6, 51, 127
8, 24317, Note_on_c, 6, 52, 127
8, 24318, Note_on_c, 6, 51, 0
8, 24325, Note_on_c, 6, 52, 0
8, 24325, Note_on_c, 6, 51, 127
8, 24335, Note_on_c, 6, 51, 0
8, 24335, Note_on_c, 6, 52, 127
8, 24342, Note_on_c, 6, 51, 127
8, 24343, Note_on_c, 6, 52, 0
8, 24351, Note_on_c, 6, 52, 127
8, 24353, Note_on_c, 6, 51, 0
8, 24357, Note_on_c, 6, 52, 0
8, 24358, Note_on_c, 6, 51, 127
8, 24360, Note_on_c, 6, 79, 127
8, 24376, Note_on_c, 6, 79, 0
8, 24377, Note_on_c, 6, 51, 0
8, 24390, Note_on_c, 6, 80, 127
8, 24403, Note_on_c, 6, 80, 0
8, 24420, Note_on_c, 6, 82, 127
8, 24430, Note_on_c, 6, 82, 0
8, 24450, Note_on_c, 6, 77, 127
8, 24459, Note_on_c, 6, 77, 0
8, 24570, Note_on_c, 6, 80, 127
8, 24582, Note_on_c, 6, 80, 0
8, 24630, Note_on_c, 6, 80, 127
8, 24642, Note_on_c, 6, 80, 0
8, 24720, Note_on_c, 6, 77, 127
8, 24732, Note_on_c, 6, 77, 0
8, 24750, Note_on_c, 6, 79, 127
8, 24763, Note_on_c, 6, 79, 0
8, 24780, Note_on_c, 6, 80, 127
8, 24790, Note_on_c, 6, 80, 0
8, 24840, Note_on_c, 6, 79, 127
8, 24855, Note_on_c, 6, 79, 0
8, 24870, Note_on_c, 6, 80, 127
8, 24883, Note_on_c, 6, 80, 0
8, 24900, Note_on_c, 6, 82, 127
8, 24909, Note_on_c, 6, 82, 0
8, 24930, Note_on_c, 6, 77, 127
8, 24943, Note_on_c, 6, 77, 0
8, 25050, Note_on_c, 6, 80, 127
8, 25060, Note_on_c, 6, 80, 0
8, 25110, Note_on_c, 6, 80, 127
8, 25122, Note_on_c, 6, 80, 0
8, 25200, Note_on_c, 6, 77, 127
8, 25214, Note_on_c, 6, 77, 0
8, 25230, Note_on_c, 6, 79, 127
8, 25243, Note_on_c, 6, 79, 0
8, 25260, Note_on_c, 6, 80, 127
8, 25267, Note_on_c, 6, 80, 0
8, 25268, Note_on_c, 6, 51, 127
8, 25277, Note_on_c, 6, 52, 127
8, 25278, Note_on_c, 6, 51, 0
8, 25285, Note_on_c, 6, 52, 0
8, 25285, Note_on_c, 6, 51, 127
8, 25295, Note_on_c, 6, 51, 0
8, 25295, Note_on_c, 6, 52, 127
8, 25302, Note_on_c, 6, 51, 127
8, 25303, Note_on_c, 6, 52, 0
8, 25311, Note_on_c, 6, 52, 127
8, 25313, Note_on_c, 6, 51, 0
8, 25317, Note_on_c, 6, 52, 0
8, 25318, Note_on_c, 6, 51, 127
8, 25320, Note_on_c, 6, 79, 127
8, 25336, Note_on_c, 6, 79, 0
8, 25337, Note_on_c, 6, 51, 0
8, 25350, Note_on_c, 6, 80, 127
8, 25363, Note_on_c, 6, 80, 0
8, 25380, Note_on_c, 6, 82, 127
8, 25390, Note_on_c, 6, 82, 0
8, 25410, Note_on_c, 6, 77, 127
8, 25419, Note_on_c, 6, 77, 0
8, 25530, Note_on_c, 6, 80, 127
8, 25542, Note_on_c, 6, 80, 0
8, 25590, Note_on_c, 6, 80, 127
8, 25602, Note_on_c, 6, 80, 0
8, 25680, Note_on_c, 6, 77, 127
8, 25692, Note_on_c, 6, 77, 0
8, 25710, Note_on_c, 6, 79, 127
8, 25723, Note_on_c, 6, 79, 0
8, 25740, Note_on_c, 6, 80, 127
8, 25750, Note_on_c, 6, 80, 0
8, 25800, Note_on_c, 6, 79, 127
8, 25815, Note_on_c, 6, 79, 0
8, 25830, Note_on_c, 6, 80, 127
8, 25843, Note_on_c, 6, 80, 0
8, 25860, Note_on_c, 6, 82, 127
8, 25869, Note_on_c, 6, 82, 0
8, 25890, Note_on_c, 6, 77, 127
8, 25903, Note_on_c, 6, 77, 0
8, 26010, Note_on_c, 6, 80, 127
8, 26020, Note_on_c, 6, 80, 0
8, 26070, Note_on_c, 6, 80, 127
8, 26082, Note_on_c, 6, 80, 0
8, 26160, Note_on_c, 6, 77, 127
8, 26174, Note_on_c, 6, 77, 0
8, 26190, Note_on_c, 6, 79, 127
8, 26203, Note_on_c, 6, 79, 0
8, 26220, Note_on_c, 6, 80, 127
8, 26227, Note_on_c, 6, 80, 0
8, 26280, Note_on_c, 6, 79, 127
8, 26296, Note_on_c, 6, 79, 0
8, 26310, Note_on_c, 6, 80, 127
8, 26323, Note_on_c, 6, 80, 0
8, 26340, Note_on_c, 6, 82, 127
8, 26350, Note_on_c, 6, 82, 0
8, 26370, Note_on_c, 6, 77, 127
8, 26379, Note_on_c, 6, 77, 0
8, 26490, Note_on_c, 6, 80, 127
8, 26502, Note_on_c, 6, 80, 0
8, 26550, Note_on_c, 6, 80, 127
8, 26562, Note_on_c, 6, 80, 0
8, 26640, Note_on_c, 6, 77, 127
8, 26652, Note_on_c, 6, 77, 0
8, 26670, Note_on_c, 6, 79, 127
8, 26683, Note_on_c, 6, 79, 0
8, 26700, Note_on_c, 6, 80, 127
8, 26710, Note_on_c, 6, 80, 0
8, 26760, Note_on_c, 6, 79, 127
8, 26775, Note_on_c, 6, 79, 0
8, 26790, Note_on_c, 6, 80, 127
8, 26803, Note_on_c, 6, 80, 0
8, 26820, Note_on_c, 6, 82, 127
8, 26829, Note_on_c, 6, 82, 0
8, 26850, Note_on_c, 6, 77, 127
8, 26863, Note_on_c, 6, 77, 0
8, 26970, Note_on_c, 6, 80, 127
8, 26980, Note_on_c, 6, 80, 0
8, 27030, Note_on_c, 6, 80, 127
8, 27042, Note_on_c, 6, 80, 0
8, 27120, Note_on_c, 6, 77, 127
8, 27134, Note_on_c, 6, 77, 0
8, 27150, Note_on_c, 6, 79, 127
8, 27163, Note_on_c, 6, 79, 0
8, 27180, Note_on_c, 6, 80, 127
8, 27187, Note_on_c, 6, 80, 0
8, 27240, Note_on_c, 6, 79, 127
8, 27256, Note_on_c, 6, 79, 0
8, 27270, Note_on_c, 6, 80, 127
8, 27283, Note_on_c, 6, 80, 0
8, 27300, Note_on_c, 6, 82, 127
8, 27310, Note_on_c, 6, 82, 0
8, 27330, Note_on_c, 6, 77, 127
8, 27339, Note_on_c, 6, 77, 0
8, 27450, Note_on_c, 6, 80, 127
8, 27462, Note_on_c, 6, 80, 0
8, 27510, Note_on_c, 6, 80, 127
8, 27522, Note_on_c, 6, 80, 0
8, 27600, Note_on_c, 6, 77, 127
8, 27612, Note_on_c, 6, 77, 0
8, 27630, Note_on_c, 6, 79, 127
8, 27643, Note_on_c, 6, 79, 0
8, 27660, Note_on_c, 6, 80, 127
8, 27670, Note_on_c, 6, 80, 0
8, 27720, Note_on_c, 6, 79, 127
8, 27735, Note_on_c, 6, 79, 0
8, 27750, Note_on_c, 6, 80, 127
8, 27763, Note_on_c, 6, 80, 0
8, 27780, Note_on_c, 6, 82, 127
8, 27789, Note_on_c, 6, 82, 0
8, 27810, Note_on_c, 6, 77, 127
8, 27823, Note_on_c, 6, 77, 0
8, 27930, Note_on_c, 6, 80, 127
8, 27940, Note_on_c, 6, 80, 0
8, 27990, Note_on_c, 6, 80, 127
8, 28002, Note_on_c, 6, 80, 0
8, 28080, Note_on_c, 6, 77, 127
8, 28094, Note_on_c, 6, 77, 0
8, 28110, Note_on_c, 6, 79, 127
8, 28123, Note_on_c, 6, 79, 0
8, 28140, Note_on_c, 6, 80, 127
8, 28147, Note_on_c, 6, 80, 0
8, 28200, Note_on_c, 6, 79, 127
8, 28216, Note_on_c, 6, 79, 0
8, 28230, Note_on_c, 6, 80, 127
8, 28243, Note_on_c, 6, 80, 0
8, 28260, Note_on_c, 6, 82, 127
8, 28270, Note_on_c, 6, 82, 0
8, 28290, Note_on_c, 6, 77, 127
8, 28299, Note_on_c, 6, 77, 0
8, 28410, Note_on_c, 6, 80, 127
8, 28422, Note_on_c, 6, 80, 0
8, 28470, Note_on_c, 6, 80, 127
8, 28482, Note_on_c, 6, 80, 0
8, 28560, Note_on_c, 6, 77, 127
8, 28572, Note_on_c, 6, 77, 0
8, 28590, Note_on_c, 6, 79, 127
8, 28603, Note_on_c, 6, 79, 0
8, 28620, Note_on_c, 6, 80, 127
8, 28630, Note_on_c, 6, 80, 0
8, 28680, Note_on_c, 6, 79, 127
8, 28695, Note_on_c, 6, 79, 0
8, 28710, Note_on_c, 6, 80, 127
8, 28723, Note_on_c, 6, 80, 0
8, 28740, Note_on_c, 6, 82, 127
8, 28749, Note_on_c, 6, 82, 0
8, 28770, Note_on_c, 6, 77, 127
8, 28783, Note_on_c, 6, 77, 0
8, 28890, Note_on_c, 6, 80, 127
8, 28900, Note_on_c, 6, 80, 0
8, 28950, Note_on_c, 6, 80, 127
8, 28962, Note_on_c, 6, 80, 0
8, 29040, Note_on_c, 6, 77, 127
8, 29054, Note_on_c, 6, 77, 0
8, 29070, Note_on_c, 6, 79, 127
8, 29083, Note_on_c, 6, 79, 0
8, 29100, Note_on_c, 6, 80, 127
8, 29107, Note_on_c, 6, 80, 0
8, 29160, Note_on_c, 6, 79, 127
8, 29176, Note_on_c, 6, 79, 0
8, 29190, Note_on_c, 6, 80, 127
8, 29203, Note_on_c, 6, 80, 0
8, 29220, Note_on_c, 6, 82, 127
8, 29230, Note_on_c, 6, 82, 0
8, 29250, Note_on_c, 6, 77, 127
8, 29259, Note_on_c, 6, 77, 0
8, 29370, Note_on_c, 6, 80, 127
8, 29382, Note_on_c, 6, 80, 0
8, 29430, Note_on_c, 6, 80, 127
8, 29442, Note_on_c, 6, 80, 0
8, 29520, Note_on_c, 6, 77, 127
8, 29532, Note_on_c, 6, 77, 0
8, 29550, Note_on_c, 6, 79, 127
8, 29563, Note_on_c, 6, 79, 0
8, 29580, Note_on_c, 6, 80, 127
8, 29590, Note_on_c, 6, 80, 0
8, 29640, Note_on_c, 6, 79, 127
8, 29655, Note_on_c, 6, 79, 0
8, 29670, Note_on_c, 6, 80, 127
8, 29683, Note_on_c, 6, 80, 0
8, 29700, Note_on_c, 6, 82, 127
8, 29709, Note_on_c, 6, 82, 0
8, 29730, Note_on_c, 6, 77, 127
8, 29743, Note_on_c, 6, 77, 0
8, 29850, Note_on_c, 6, 80, 127
8, 29860, Note_on_c, 6, 80, 0
8, 29910, Note_on_c, 6, 80, 127
8, 29922, Note_on_c, 6, 80, 0
8, 30000, Note_on_c, 6, 77, 127
8, 30014, Note_on_c, 6, 77, 0
8, 30030, Note_on_c, 6, 79, 127
8, 30043, Note_on_c, 6, 79, 0
8, 30060, Note_on_c, 6, 80, 127
8, 30067, Note_on_c, 6, 80, 0
8, 30120, Note_on_c, 6, 79, 127
8, 30136, Note_on_c, 6, 79, 0
8, 30150, Note_on_c, 6, 80, 127
8, 30163, Note_on_c, 6, 80, 0
8, 30180, Note_on_c, 6, 82, 127
8, 30190, Note_on_c, 6, 82, 0
8, 30210, Note_on_c, 6, 77, 127
8, 30219, Note_on_c, 6, 77, 0
8, 30330, Note_on_c, 6, 80, 127
8, 30342, Note_on_c, 6, 80, 0
8, 30390, Note_on_c, 6, 80, 127
8, 30402, Note_on_c, 6, 80, 0
8, 30480, Note_on_c, 6, 77, 127
8, 30492, Note_on_c, 6, 77, 0
8, 30510, Note_on_c, 6, 79, 127
8, 30523, Note_on_c, 6, 79, 0
8, 30540, Note_on_c, 6, 80, 127
8, 30550, Note_on_c, 6, 80, 0
8, 30600, Note_on_c, 6, 79, 127
8, 30615, Note_on_c, 6, 79, 0
8, 30630, Note_on_c, 6, 80, 127
8, 30643, Note_on_c, 6, 80, 0
8, 30660, Note_on_c, 6, 82, 127
8, 30669, Note_on_c, 6, 82, 0
8, 30690, Note_on_c, 6, 77, 127
8, 30703, Note_on_c, 6, 77, 0
8, 30810, Note_on_c, 6, 80, 127
8, 30820, Note_on_c, 6, 80, 0
8, 30870, Note_on_c, 6, 80, 127
8, 30882, Note_on_c, 6, 80, 0
8, 30960, Note_on_c, 6, 77, 127
8, 30974, Note_on_c, 6, 77, 0
8, 30990, Note_on_c, 6, 79, 127
8, 31003, Note_on_c, 6, 79, 0
8, 31020, Note_on_c, 6, 80, 127
8, 31027, Note_on_c, 6, 80, 0
8, 31080, Note_on_c, 6, 79, 127
8, 31096, Note_on_c, 6, 79, 0
8, 31110, Note_on_c, 6, 80, 127
8, 31123, Note_on_c, 6, 80, 0
8, 31140, Note_on_c, 6, 82, 127
8, 31150, Note_on_c, 6, 82, 0
8, 31170, Note_on_c, 6, 77, 127
8, 31179, Note_on_c, 6, 77, 0
8, 31290, Note_on_c, 6, 82, 127
8, 31302, Note_on_c, 6, 82, 0
8, 31350, Note_on_c, 6, 82, 127
8, 31362, Note_on_c, 6, 82, 0
8, 31441, Note_on_c, 6, 79, 127
8, 31453, Note_on_c, 6, 79, 0
8, 31471, Note_on_c, 6, 81, 127
8, 31484, Note_on_c, 6, 81, 0
8, 31501, Note_on_c, 6, 82, 127
8, 31511, Note_on_c, 6, 82, 0
8, 31560, Note_on_c, 6, 81, 127
8, 31575, Note_on_c, 6, 81, 0
8, 31590, Note_on_c, 6, 82, 127
8, 31603, Note_on_c, 6, 82, 0
8, 31620, Note_on_c, 6, 84, 127
8, 31629, Note_on_c, 6, 84, 0
8, 31650, Note_on_c, 6, 79, 127
8, 31663, Note_on_c, 6, 79, 0
8, 31770, Note_on_c, 6, 82, 127
8, 31780, Note_on_c, 6, 82, 0
8, 31830, Note_on_c, 6, 82, 127
8, 31842, Note_on_c, 6, 82, 0
8, 31920, Note_on_c, 6, 79, 127
8, 31934, Note_on_c, 6, 79, 0
8, 31950, Note_on_c, 6, 81, 127
8, 31963, Note_on_c, 6, 81, 0
8, 31980, Note_on_c, 6, 82, 127
8, 31987, Note_on_c, 6, 82, 0
8, 32040, Note_on_c, 6, 81, 127
8, 32056, Note_on_c, 6, 81, 0
8, 32070, Note_on_c, 6, 82, 127
8, 32083, Note_on_c, 6, 82, 0
8, 32100, Note_on_c, 6, 84, 127
8, 32110, Note_on_c, 6, 84, 0
8, 32130, Note_on_c, 6, 79, 127
8, 32139, Note_on_c, 6, 79, 0
8, 32251, Note_on_c, 6, 82, 127
8, 32263, Note_on_c, 6, 82, 0
8, 32311, Note_on_c, 6, 82, 127
8, 32323, Note_on_c, 6, 82, 0
8, 32401, Note_on_c, 6, 79, 127
8, 32413, Note_on_c, 6, 79, 0
8, 32431, Note_on_c, 6, 81, 127
8, 32444, Note_on_c, 6, 81, 0
8, 32461, Note_on_c, 6, 82, 127
8, 32471, Note_on_c, 6, 82, 0
8, 32521, Note_on_c, 6, 81, 127
8, 32536, Note_on_c, 6, 81, 0
8, 32551, Note_on_c, 6, 82, 127
8, 32564, Note_on_c, 6, 82, 0
8, 32581, Note_on_c, 6, 84, 127
8, 32590, Note_on_c, 6, 84, 0
8, 32611, Note_on_c, 6, 79, 127
8, 32624, Note_on_c, 6, 79, 0
8, 32733, Note_on_c, 6, 82, 127
8, 32743, Note_on_c, 6, 82, 0
8, 32793, Note_on_c, 6, 82, 127
8, 32805, Note_on_c, 6, 82, 0
8, 32883, Note_on_c, 6, 79, 127
8, 32897, Note_on_c, 6, 79, 0
8, 32913, Note_on_c, 6, 81, 127
8, 32926, Note_on_c, 6, 81, 0
8, 32943, Note_on_c, 6, 82, 127
8, 32950, Note_on_c, 6, 82, 0
8, 33003, Note_on_c, 6, 81, 127
8, 33019, Note_on_c, 6, 81, 0
8, 33033, Note_on_c, 6, 82, 127
8, 33046, Note_on_c, 6, 82, 0
8, 33063, Note_on_c, 6, 84, 127
8, 33073, Note_on_c, 6, 84, 0
8, 33093, Note_on_c, 6, 79, 127
8, 33102, Note_on_c, 6, 79, 0
8, 33210, Note_on_c, 6, 80, 127
8, 33222, Note_on_c, 6, 80, 0
8, 33270, Note_on_c, 6, 80, 127
8, 33282, Note_on_c, 6, 80, 0
8, 33360, Note_on_c, 6, 77, 127
8, 33372, Note_on_c, 6, 77, 0
8, 33390, Note_on_c, 6, 79, 127
8, 33403, Note_on_c, 6, 79, 0
8, 33420, Note_on_c, 6, 80, 127
8, 33430, Note_on_c, 6, 80, 0
8, 33480, Note_on_c, 6, 79, 127
8, 33495, Note_on_c, 6, 79, 0
8, 33510, Note_on_c, 6, 80, 127
8, 33523, Note_on_c, 6, 80, 0
8, 33540, Note_on_c, 6, 82, 127
8, 33549, Note_on_c, 6, 82, 0
8, 33570, Note_on_c, 6, 77, 127
8, 33583, Note_on_c, 6, 77, 0
8, 33690, Note_on_c, 6, 80, 127
8, 33700, Note_on_c, 6, 80, 0
8, 33750, Note_on_c, 6, 80, 127
8, 33762, Note_on_c, 6, 80, 0
8, 33840, Note_on_c, 6, 77, 127
8, 33854, Note_on_c, 6, 77, 0
8, 33870, Note_on_c, 6, 79, 127
8, 33883, Note_on_c, 6, 79, 0
8, 33900, Note_on_c, 6, 80, 127
8, 33907, Note_on_c, 6, 80, 0
8, 33960, Note_on_c, 6, 79, 127
8, 33976, Note_on_c, 6, 79, 0
8, 33990, Note_on_c, 6, 80, 127
8, 34003, Note_on_c, 6, 80, 0
8, 34020, Note_on_c, 6, 82, 127
8, 34030, Note_on_c, 6, 82, 0
8, 34050, Note_on_c, 6, 77, 127
8, 34059, Note_on_c, 6, 77, 0
8, 34170, Note_on_c, 6, 80, 127
8, 34182, Note_on_c, 6, 80, 0
8, 34230, Note_on_c, 6, 80, 127
8, 34242, Note_on_c, 6, 80, 0
8, 34320, Note_on_c, 6, 77, 127
8, 34332, Note_on_c, 6, 77, 0
8, 34350, Note_on_c, 6, 79, 127
8, 34363, Note_on_c, 6, 79, 0
8, 34380, Note_on_c, 6, 80, 127
8, 34390, Note_on_c, 6, 80, 0
8, 34440, Note_on_c, 6, 79, 127
8, 34455, Note_on_c, 6, 79, 0
8, 34470, Note_on_c, 6, 80, 127
8, 34483, Note_on_c, 6, 80, 0
8, 34500, Note_on_c, 6, 82, 127
8, 34509, Note_on_c, 6, 82, 0
8, 34530, Note_on_c, 6, 77, 127
8, 34543, Note_on_c, 6, 77, 0
8, 34650, Note_on_c, 6, 80, 127
8, 34660, Note_on_c, 6, 80, 0
8, 34710, Note_on_c, 6, 80, 127
8, 34722, Note_on_c, 6, 80, 0
8, 34800, Note_on_c, 6, 77, 127
8, 34814, Note_on_c, 6, 77, 0
8, 34830, Note_on_c, 6, 79, 127
8, 34843, Note_on_c, 6, 79, 0
8, 34860, Note_on_c, 6, 80, 127
8, 34867, Note_on_c, 6, 80, 0
8, 34920, Note_on_c, 6, 79, 127
8, 34936, Note_on_c, 6, 79, 0
8, 34950, Note_on_c, 6, 80, 127
8, 34963, Note_on_c, 6, 80, 0
8, 34980, Note_on_c, 6, 82, 127
8, 34990, Note_on_c, 6, 82, 0
8, 35010, Note_on_c, 6, 77, 127
8, 35019, Note_on_c, 6, 77, 0
8, 35130, Note_on_c, 6, 82, 127
8, 35142, Note_on_c, 6, 82, 0
8, 35190, Note_on_c, 6, 82, 127
8, 35202, Note_on_c, 6, 82, 0
8, 35281, Note_on_c, 6, 79, 127
8, 35293, Note_on_c, 6, 79, 0
8, 35311, Note_on_c, 6, 81, 127
8, 35324, Note_on_c, 6, 81, 0
8, 35341, Note_on_c, 6, 82, 127
8, 35351, Note_on_c, 6, 82, 0
8, 35400, Note_on_c, 6, 81, 127
8, 35415, Note_on_c, 6, 81, 0
8, 35430, Note_on_c, 6, 82, 127
8, 35443, Note_on_c, 6, 82, 0
8, 35460, Note_on_c, 6, 84, 127
8, 35469, Note_on_c, 6, 84, 0
8, 35490, Note_on_c, 6, 79, 127
8, 35503, Note_on_c, 6, 79, 0
8, 35610, Note_on_c, 6, 82, 127
8, 35620, Note_on_c, 6, 82, 0
8, 35670, Note_on_c, 6, 82, 127
8, 35682, Note_on_c, 6, 82, 0
8, 35760, Note_on_c, 6, 79, 127
8, 35774, Note_on_c, 6, 79, 0
8, 35790, Note_on_c, 6, 81, 127
8, 35803, Note_on_c, 6, 81, 0
8, 35820, Note_on_c, 6, 82, 127
8, 35827, Note_on_c, 6, 82, 0
8, 35880, Note_on_c, 6, 81, 127
8, 35896, Note_on_c, 6, 81, 0
8, 35910, Note_on_c, 6, 82, 127
8, 35923, Note_on_c, 6, 82, 0
8, 35940, Note_on_c, 6, 84, 127
8, 35950, Note_on_c, 6, 84, 0
8, 35970, Note_on_c, 6, 79, 127
8, 35979, Note_on_c, 6, 79, 0
8, 36091, Note_on_c, 6, 82, 127
8, 36103, Note_on_c, 6, 82, 0
8, 36151, Note_on_c, 6, 82, 127
8, 36163, Note_on_c, 6, 82, 0
8, 36241, Note_on_c, 6, 79, 127
8, 36253, Note_on_c, 6, 79, 0
8, 36271, Note_on_c, 6, 81, 127
8, 36284, Note_on_c, 6, 81, 0
8, 36301, Note_on_c, 6, 82, 127
8, 36311, Note_on_c, 6, 82, 0
8, 36361, Note_on_c, 6, 81, 127
8, 36376, Note_on_c, 6, 81, 0
8, 36391, Note_on_c, 6, 82, 127
8, 36404, Note_on_c, 6, 82, 0
8, 36421, Note_on_c, 6, 84, 127
8, 36430, Note_on_c, 6, 84, 0
8, 36451, Note_on_c, 6, 79, 127
8, 36464, Note_on_c, 6, 79, 0
8, 36573, Note_on_c, 6, 82, 127
8, 36583, Note_on_c, 6, 82, 0
8, 36633, Note_on_c, 6, 82, 127
8, 36645, Note_on_c, 6, 82, 0
8, 36723, Note_on_c, 6, 79, 127
8, 36737, Note_on_c, 6, 79, 0
8, 36753, Note_on_c, 6, 81, 127
8, 36766, Note_on_c, 6, 81, 0
8, 36783, Note_on_c, 6, 82, 127
8, 36790, Note_on_c, 6, 82, 0
8, 36843, Note_on_c, 6, 81, 127
8, 36859, Note_on_c, 6, 81, 0
8, 36873, Note_on_c, 6, 82, 127
8, 36886, Note_on_c, 6, 82, 0
8, 36903, Note_on_c, 6, 84, 127
8, 36913, Note_on_c, 6, 84, 0
8, 36933, Note_on_c, 6, 79, 127
8, 36942, Note_on_c, 6, 79, 0
8, 37742, Note_on_c, 6, 51, 127
8, 37751, Note_on_c, 6, 52, 127
8, 37752, Note_on_c, 6, 51, 0
8, 37759, Note_on_c, 6, 52, 0
8, 37759, Note_on_c, 6, 51, 127
8, 37769, Note_on_c, 6, 51, 0
8, 37769, Note_on_c, 6, 52, 127
8, 37776, Note_on_c, 6, 51, 127
8, 37777, Note_on_c, 6, 52, 0
8, 37785, Note_on_c, 6, 52, 127
8, 37787, Note_on_c, 6, 51, 0
8, 37791, Note_on_c, 6, 52, 0
8, 37792, Note_on_c, 6, 51, 127
8, 37811, Note_on_c, 6, 51, 0
8, 38708, Note_on_c, 6, 51, 127
8, 38717, Note_on_c, 6, 52, 127
8, 38718, Note_on_c, 6, 51, 0
8, 38725, Note_on_c, 6, 52, 0
8, 38725, Note_on_c, 6, 51, 127
8, 38735, Note_on_c, 6, 51, 0
8, 38735, Note_on_c, 6, 52, 127
8, 38742, Note_on_c, 6, 51, 127
8, 38743, Note_on_c, 6, 52, 0
8, 38751, Note_on_c, 6, 52, 127
8, 38753, Note_on_c, 6, 51, 0
8, 38757, Note_on_c, 6, 52, 0
8, 38758, Note_on_c, 6, 51, 127
8, 38777, Note_on_c, 6, 51, 0
8, 39668, Note_on_c, 6, 51, 127
8, 39677, Note_on_c, 6, 52, 127
8, 39678, Note_on_c, 6, 51, 0
8, 39685, Note_on_c, 6, 52, 0
8, 39685, Note_on_c, 6, 51, 127
8, 39695, Note_on_c, 6, 51, 0
8, 39695, Note_on_c, 6, 52, 127
8, 39702, Note_on_c, 6, 51, 127
8, 39703, Note_on_c, 6, 52, 0
8, 39711, Note_on_c, 6, 52, 127
8, 39713, Note_on_c, 6, 51, 0
8, 39717, Note_on_c, 6, 52, 0
8, 39718, Note_on_c, 6, 51, 127
8, 39737, Note_on_c, 6, 51, 0
8, 40628, Note_on_c, 6, 51, 127
8, 40637, Note_on_c, 6, 52, 127
8, 40638, Note_on_c, 6, 51, 0
8, 40645, Note_on_c, 6, 52, 0
8, 40645, Note_on_c, 6, 51, 127
8, 40655, Note_on_c, 6, 51, 0
8, 40655, Note_on_c, 6, 52, 127
8, 40662, Note_on_c, 6, 51, 127
8, 40663, Note_on_c, 6, 52, 0
8, 40671, Note_on_c, 6, 52, 127
8, 40673, Note_on_c, 6, 51, 0
8, 40677, Note_on_c, 6, 52, 0
8, 40678, Note_on_c, 6, 51, 127
8, 40697, Note_on_c, 6, 51, 0
8, 41582, Note_on_c, 6, 51, 127
8, 41591, Note_on_c, 6, 52, 127
8, 41592, Note_on_c, 6, 51, 0
8, 41599, Note_on_c, 6, 52, 0
8, 41599, Note_on_c, 6, 51, 127
8, 41609, Note_on_c, 6, 51, 0
8, 41609, Note_on_c, 6, 52, 127
8, 41616, Note_on_c, 6, 51, 127
8, 41617, Note_on_c, 6, 52, 0
8, 41625, Note_on_c, 6, 52, 127
8, 41627, Note_on_c, 6, 51, 0
8, 41631, Note_on_c, 6, 52, 0
8, 41632, Note_on_c, 6, 51, 127
8, 41651, Note_on_c, 6, 51, 0
8, 42548, Note_on_c, 6, 51, 127
8, 42557, Note_on_c, 6, 52, 127
8, 42558, Note_on_c, 6, 51, 0
8, 42565, Note_on_c, 6, 52, 0
8, 42565, Note_on_c, 6, 51, 127
8, 42575, Note_on_c, 6, 51, 0
8, 42575, Note_on_c, 6, 52, 127
8, 42582, Note_on_c, 6, 51, 127
8, 42583, Note_on_c, 6, 52, 0
8, 42591, Note_on_c, 6, 52, 127
8, 42593, Note_on_c, 6, 51, 0
8, 42597, Note_on_c, 6, 52, 0
8, 42598, Note_on_c, 6, 51, 127
8, 42617, Note_on_c, 6, 51, 0
8, 43508, Note_on_c, 6, 51, 127
8, 43517, Note_on_c, 6, 52, 127
8, 43518, Note_on_c, 6, 51, 0
8, 43525, Note_on_c, 6, 52, 0
8, 43525, Note_on_c, 6, 51, 127
8, 43535, Note_on_c, 6, 51, 0
8, 43535, Note_on_c, 6, 52, 127
8, 43542, Note_on_c, 6, 51, 127
8, 43543, Note_on_c, 6, 52, 0
8, 43551, Note_on_c, 6, 52, 127
8, 43553, Note_on_c, 6, 51, 0
8, 43557, Note_on_c, 6, 52, 0
8, 43558, Note_on_c, 6, 51, 127
8, 43577, Note_on_c, 6, 51, 0
8, 44468, Note_on_c, 6, 51, 127
8, 44477, Note_on_c, 6, 52, 127
8, 44478, Note_on_c, 6, 51, 0
8, 44485, Note_on_c, 6, 52, 0
8, 44485, Note_on_c, 6, 51, 127
8, 44495, Note_on_c, 6, 51, 0
8, 44495, Note_on_c, 6, 52, 127
8, 44502, Note_on_c, 6, 51, 127
8, 44503, Note_on_c, 6, 52, 0
8, 44511, Note_on_c, 6, 52, 127
8, 44513, Note_on_c, 6, 51, 0
8, 44517, Note_on_c, 6, 52, 0
8, 44518, Note_on_c, 6, 51, 127
8, 44537, Note_on_c, 6, 51, 0
8, 45422, Note_on_c, 6, 51, 127
8, 45431, Note_on_c, 6, 52, 127
8, 45432, Note_on_c, 6, 51, 0
8, 45439, Note_on_c, 6, 52, 0
8, 45439, Note_on_c, 6, 51, 127
8, 45449, Note_on_c, 6, 51, 0
8, 45449, Note_on_c, 6, 52, 127
8, 45456, Note_on_c, 6, 51, 127
8, 45457, Note_on_c, 6, 52, 0
8, 45465, Note_on_c, 6, 52, 127
8, 45467, Note_on_c, 6, 51, 0
8, 45471, Note_on_c, 6, 52, 0
8, 45472, Note_on_c, 6, 51, 127
8, 45491, Note_on_c, 6, 51, 0
8, 46388, Note_on_c, 6, 51, 127
8, 46397, Note_on_c, 6, 52, 127
8, 46398, Note_on_c, 6, 51, 0
8, 46405, Note_on_c, 6, 52, 0
8, 46405, Note_on_c, 6, 51, 127
8, 46415, Note_on_c, 6, 51, 0
8, 46415, Note_on_c, 6, 52, 127
8, 46422, Note_on_c, 6, 51, 127
8, 46423, Note_on_c, 6, 52, 0
8, 46431, Note_on_c, 6, 52, 127
8, 46433, Note_on_c, 6, 51, 0
8, 46437, Note_on_c, 6, 52, 0
8, 46438, Note_on_c, 6, 51, 127
8, 46457, Note_on_c, 6, 51, 0
8, 46650, Note_on_c, 6, 80, 127
8, 46662, Note_on_c, 6, 80, 0
8, 46710, Note_on_c, 6, 80, 127
8, 46722, Note_on_c, 6, 80, 0
8, 46800, Note_on_c, 6, 77, 127
8, 46812, Note_on_c, 6, 77, 0
8, 46830, Note_on_c, 6, 79, 127
8, 46843, Note_on_c, 6, 79, 0
8, 46860, Note_on_c, 6, 80, 127
8, 46870, Note_on_c, 6, 80, 0
8, 46920, Note_on_c, 6, 79, 127
8, 46935, Note_on_c, 6, 79, 0
8, 46950, Note_on_c, 6, 80, 127
8, 46963, Note_on_c, 6, 80, 0
8, 46980, Note_on_c, 6, 82, 127
8, 46989, Note_on_c, 6, 82, 0
8, 47010, Note_on_c, 6, 77, 127
8, 47023, Note_on_c, 6, 77, 0
8, 47130, Note_on_c, 6, 80, 127
8, 47140, Note_on_c, 6, 80, 0
8, 47190, Note_on_c, 6, 80, 127
8, 47202, Note_on_c, 6, 80, 0
8, 47280, Note_on_c, 6, 77, 127
8, 47294, Note_on_c, 6, 77, 0
8, 47310, Note_on_c, 6, 79, 127
8, 47323, Note_on_c, 6, 79, 0
8, 47340, Note_on_c, 6, 80, 127
8, 47347, Note_on_c, 6, 80, 0
8, 47348, Note_on_c, 6, 51, 127
8, 47357, Note_on_c, 6, 52, 127
8, 47358, Note_on_c, 6, 51, 0
8, 47365, Note_on_c, 6, 52, 0
8, 47365, Note_on_c, 6, 51, 127
8, 47375, Note_on_c, 6, 51, 0
8, 47375, Note_on_c, 6, 52, 127
8, 47382, Note_on_c, 6, 51, 127
8, 47383, Note_on_c, 6, 52, 0
8, 47391, Note_on_c, 6, 52, 127
8, 47393, Note_on_c, 6, 51, 0
8, 47397, Note_on_c, 6, 52, 0
8, 47398, Note_on_c, 6, 51, 127
8, 47400, Note_on_c, 6, 79, 127
8, 47416, Note_on_c, 6, 79, 0
8, 47417, Note_on_c, 6, 51, 0
8, 47430, Note_on_c, 6, 80, 127
8, 47443, Note_on_c, 6, 80, 0
8, 47460, Note_on_c, 6, 82, 127
8, 47470, Note_on_c, 6, 82, 0
8, 47490, Note_on_c, 6, 77, 127
8, 47499, Note_on_c, 6, 77, 0
8, 47610, Note_on_c, 6, 80, 127
8, 47622, Note_on_c, 6, 80, 0
8, 47670, Note_on_c, 6, 80, 127
8, 47682, Note_on_c, 6, 80, 0
8, 47760, Note_on_c, 6, 77, 127
8, 47772, Note_on_c, 6, 77, 0
8, 47790, Note_on_c, 6, 79, 127
8, 47803, Note_on_c, 6, 79, 0
8, 47820, Note_on_c, 6, 80, 127
8, 47830, Note_on_c, 6, 80, 0
8, 47880, Note_on_c, 6, 79, 127
8, 47895, Note_on_c, 6, 79, 0
8, 47910, Note_on_c, 6, 80, 127
8, 47923, Note_on_c, 6, 80, 0
8, 47940, Note_on_c, 6, 82, 127
8, 47949, Note_on_c, 6, 82, 0
8, 47970, Note_on_c, 6, 77, 127
8, 47983, Note_on_c, 6, 77, 0
8, 48090, Note_on_c, 6, 80, 127
8, 48100, Note_on_c, 6, 80, 0
8, 48150, Note_on_c, 6, 80, 127
8, 48162, Note_on_c, 6, 80, 0
8, 48240, Note_on_c, 6, 77, 127
8, 48254, Note_on_c, 6, 77, 0
8, 48270, Note_on_c, 6, 79, 127
8, 48283, Note_on_c, 6, 79, 0
8, 48300, Note_on_c, 6, 80, 127
8, 48307, Note_on_c, 6, 80, 0
8, 48308, Note_on_c, 6, 51, 127
8, 48317, Note_on_c, 6, 52, 127
8, 48318, Note_on_c, 6, 51, 0
8, 48325, Note_on_c, 6, 52, 0
8, 48325, Note_on_c, 6, 51, 127
8, 48335, Note_on_c, 6, 51, 0
8, 48335, Note_on_c, 6, 52, 127
8, 48342, Note_on_c, 6, 51, 127
8, 48343, Note_on_c, 6, 52, 0
8, 48351, Note_on_c, 6, 52, 127
8, 48353, Note_on_c, 6, 51, 0
8, 48357, Note_on_c, 6, 52, 0
8, 48358, Note_on_c, 6, 51, 127
8, 48360, Note_on_c, 6, 79, 127
8, 48376, Note_on_c, 6, 79, 0
8, 48377, Note_on_c, 6, 51, 0
8, 48390, Note_on_c, 6, 80, 127
8, 48403, Note_on_c, 6, 80, 0
8, 48420, Note_on_c, 6, 82, 127
8, 48430, Note_on_c, 6, 82, 0
8, 48450, Note_on_c, 6, 77, 127
8, 48459, Note_on_c, 6, 77, 0
8, 48570, Note_on_c, 6, 80, 127
8, 48582, Note_on_c, 6, 80, 0
8, 48630, Note_on_c, 6, 80, 127
8, 48642, Note_on_c, 6, 80, 0
8, 48720, Note_on_c, 6, 77, 127
8, 48732, Note_on_c, 6, 77, 0
8, 48750, Note_on_c, 6, 79, 127
8, 48763, Note_on_c, 6, 79, 0
8, 48780, Note_on_c, 6, 80, 127
8, 48790, Note_on_c, 6, 80, 0
8, 48840, Note_on_c, 6, 79, 127
8, 48855, Note_on_c, 6, 79, 0
8, 48870, Note_on_c, 6, 80, 127
8, 48883, Note_on_c, 6, 80, 0
8, 48900, Note_on_c, 6, 82, 127
8, 48909, Note_on_c, 6, 82, 0
8, 48930, Note_on_c, 6, 77, 127
8, 48943, Note_on_c, 6, 77, 0
8, 49050, Note_on_c, 6, 80, 127
8, 49060, Note_on_c, 6, 80, 0
8, 49110, Note_on_c, 6, 80, 127
8, 49122, Note_on_c, 6, 80, 0
8, 49200, Note_on_c, 6, 77, 127
8, 49214, Note_on_c, 6, 77, 0
8, 49230, Note_on_c, 6, 79, 127
8, 49243, Note_on_c, 6, 79, 0
8, 49260, Note_on_c, 6, 80, 127
8, 49262, Note_on_c, 6, 51, 127
8, 49267, Note_on_c, 6, 80, 0
8, 49268, Note_on_c, 6, 51, 127
8, 49271, Note_on_c, 6, 52, 127
8, 49272, Note_on_c, 6, 51, 0
8, 49277, Note_on_c, 6, 52, 127
8, 49278, Note_on_c, 6, 51, 0
8, 49279, Note_on_c, 6, 52, 0
8, 49279, Note_on_c, 6, 51, 127
8, 49285, Note_on_c, 6, 52, 0
8, 49285, Note_on_c, 6, 51, 127
8, 49289, Note_on_c, 6, 51, 0
8, 49289, Note_on_c, 6, 52, 127
8, 49295, Note_on_c, 6, 51, 0
8, 49295, Note_on_c, 6, 52, 127
8, 49296, Note_on_c, 6, 51, 127
8, 49297, Note_on_c, 6, 52, 0
8, 49302, Note_on_c, 6, 51, 127
8, 49303, Note_on_c, 6, 52, 0
8, 49305, Note_on_c, 6, 52, 127
8, 49307, Note_on_c, 6, 51, 0
8, 49311, Note_on_c, 6, 52, 0
8, 49311, Note_on_c, 6, 52, 127
8, 49312, Note_on_c, 6, 51, 127
8, 49313, Note_on_c, 6, 51, 0
8, 49317, Note_on_c, 6, 52, 0
8, 49318, Note_on_c, 6, 51, 127
8, 49320, Note_on_c, 6, 79, 127
8, 49331, Note_on_c, 6, 51, 0
8, 49336, Note_on_c, 6, 79, 0
8, 49337, Note_on_c, 6, 51, 0
8, 49350, Note_on_c, 6, 80, 127
8, 49363, Note_on_c, 6, 80, 0
8, 49380, Note_on_c, 6, 82, 127
8, 49390, Note_on_c, 6, 82, 0
8, 49410, Note_on_c, 6, 77, 127
8, 49419, Note_on_c, 6, 77, 0
8, 49530, Note_on_c, 6, 80, 127
8, 49542, Note_on_c, 6, 80, 0
8, 49590, Note_on_c, 6, 80, 127
8, 49602, Note_on_c, 6, 80, 0
8, 49680, Note_on_c, 6, 77, 127
8, 49692, Note_on_c, 6, 77, 0
8, 49710, Note_on_c, 6, 79, 127
8, 49723, Note_on_c, 6, 79, 0
8, 49740, Note_on_c, 6, 80, 127
8, 49750, Note_on_c, 6, 80, 0
8, 49800, Note_on_c, 6, 79, 127
8, 49815, Note_on_c, 6, 79, 0
8, 49830, Note_on_c, 6, 80, 127
8, 49843, Note_on_c, 6, 80, 0
8, 49860, Note_on_c, 6, 82, 127
8, 49869, Note_on_c, 6, 82, 0
8, 49890, Note_on_c, 6, 77, 127
8, 49903, Note_on_c, 6, 77, 0
8, 50010, Note_on_c, 6, 80, 127
8, 50020, Note_on_c, 6, 80, 0
8, 50070, Note_on_c, 6, 80, 127
8, 50082, Note_on_c, 6, 80, 0
8, 50160, Note_on_c, 6, 77, 127
8, 50174, Note_on_c, 6, 77, 0
8, 50190, Note_on_c, 6, 79, 127
8, 50203, Note_on_c, 6, 79, 0
8, 50220, Note_on_c, 6, 80, 127
8, 50227, Note_on_c, 6, 80, 0
8, 50228, Note_on_c, 6, 51, 127
8, 50228, Note_on_c, 6, 51, 127
8, 50237, Note_on_c, 6, 52, 127
8, 50237, Note_on_c, 6, 52, 127
8, 50238, Note_on_c, 6, 51, 0
8, 50238, Note_on_c, 6, 51, 0
8, 50245, Note_on_c, 6, 52, 0
8, 50245, Note_on_c, 6, 52, 0
8, 50245, Note_on_c, 6, 51, 127
8, 50245, Note_on_c, 6, 51, 127
8, 50255, Note_on_c, 6, 51, 0
8, 50255, Note_on_c, 6, 51, 0
8, 50255, Note_on_c, 6, 52, 127
8, 50255, Note_on_c, 6, 52, 127
8, 50262, Note_on_c, 6, 51, 127
8, 50262, Note_on_c, 6, 51, 127
8, 50263, Note_on_c, 6, 52, 0
8, 50263, Note_on_c, 6, 52, 0
8, 50271, Note_on_c, 6, 52, 127
8, 50271, Note_on_c, 6, 52, 127
8, 50273, Note_on_c, 6, 51, 0
8, 50273, Note_on_c, 6, 51, 0
8, 50277, Note_on_c, 6, 52, 0
8, 50277, Note_on_c, 6, 52, 0
8, 50278, Note_on_c, 6, 51, 127
8, 50278, Note_on_c, 6, 51, 127
8, 50280, Note_on_c, 6, 79, 127
8, 50296, Note_on_c, 6, 79, 0
8, 50297, Note_on_c, 6, 51, 0
8, 50297, Note_on_c, 6, 51, 0
8, 50310, Note_on_c, 6, 80, 127
8, 50323, Note_on_c, 6, 80, 0
8, 50340, Note_on_c, 6, 82, 127
8, 50350, Note_on_c, 6, 82, 0
8, 50370, Note_on_c, 6, 77, 127
8, 50379, Note_on_c, 6, 77, 0
8, 50490, Note_on_c, 6, 80, 127
8, 50502, Note_on_c, 6, 80, 0
8, 50550, Note_on_c, 6, 80, 127
8, 50562, Note_on_c, 6, 80, 0
8, 50640, Note_on_c, 6, 77, 127
8, 50652, Note_on_c, 6, 77, 0
8, 50670, Note_on_c, 6, 79, 127
8, 50683, Note_on_c, 6, 79, 0
8, 50700, Note_on_c, 6, 80, 127
8, 50710, Note_on_c, 6, 80, 0
8, 50760, Note_on_c, 6, 79, 127
8, 50775, Note_on_c, 6, 79, 0
8, 50790, Note_on_c, 6, 80, 127
8, 50803, Note_on_c, 6, 80, 0
8, 50820, Note_on_c, 6, 82, 127
8, 50829, Note_on_c, 6, 82, 0
8, 50850, Note_on_c, 6, 77, 127
8, 50863, Note_on_c, 6, 77, 0
8, 50970, Note_on_c, 6, 80, 127
8, 50980, Note_on_c, 6, 80, 0
8, 51030, Note_on_c, 6, 80, 127
8, 51042, Note_on_c, 6, 80, 0
8, 51120, Note_on_c, 6, 77, 127
8, 51134, Note_on_c, 6, 77, 0
8, 51150, Note_on_c, 6, 79, 127
8, 51163, Note_on_c, 6, 79, 0
8, 51180, Note_on_c, 6, 80, 127
8, 51187, Note_on_c, 6, 80, 0
8, 51188, Note_on_c, 6, 51, 127
8, 51197, Note_on_c, 6, 52, 127
8, 51198, Note_on_c, 6, 51, 0
8, 51205, Note_on_c, 6, 52, 0
8, 51205, Note_on_c, 6, 51, 127
8, 51215, Note_on_c, 6, 51, 0
8, 51215, Note_on_c, 6, 52, 127
8, 51222, Note_on_c, 6, 51, 127
8, 51223, Note_on_c, 6, 52, 0
8, 51231, Note_on_c, 6, 52, 127
8, 51233, Note_on_c, 6, 51, 0
8, 51237, Note_on_c, 6, 52, 0
8, 51238, Note_on_c, 6, 51, 127
8, 51240, Note_on_c, 6, 79, 127
8, 51256, Note_on_c, 6, 79, 0
8, 51257, Note_on_c, 6, 51, 0
8, 51270, Note_on_c, 6, 80, 127
8, 51283, Note_on_c, 6, 80, 0
8, 51300, Note_on_c, 6, 82, 127
8, 51310, Note_on_c, 6, 82, 0
8, 51330, Note_on_c, 6, 77, 127
8, 51339, Note_on_c, 6, 77, 0
8, 51450, Note_on_c, 6, 80, 127
8, 51462, Note_on_c, 6, 80, 0
8, 51510, Note_on_c, 6, 80, 127
8, 51522, Note_on_c, 6, 80, 0
8, 51600, Note_on_c, 6, 77, 127
8, 51612, Note_on_c, 6, 77, 0
8, 51630, Note_on_c, 6, 79, 127
8, 51643, Note_on_c, 6, 79, 0
8, 51660, Note_on_c, 6, 80, 127
8, 51670, Note_on_c, 6, 80, 0
8, 51720, Note_on_c, 6, 79, 127
8, 51735, Note_on_c, 6, 79, 0
8, 51750, Note_on_c, 6, 80, 127
8, 51763, Note_on_c, 6, 80, 0
8, 51780, Note_on_c, 6, 82, 127
8, 51789, Note_on_c, 6, 82, 0
8, 51810, Note_on_c, 6, 77, 127
8, 51823, Note_on_c, 6, 77, 0
8, 51930, Note_on_c, 6, 80, 127
8, 51940, Note_on_c, 6, 80, 0
8, 51990, Note_on_c, 6, 80, 127
8, 52002, Note_on_c, 6, 80, 0
8, 52080, Note_on_c, 6, 77, 127
8, 52094, Note_on_c, 6, 77, 0
8, 52110, Note_on_c, 6, 79, 127
8, 52123, Note_on_c, 6, 79, 0
8, 52140, Note_on_c, 6, 80, 127
8, 52147, Note_on_c, 6, 80, 0
8, 52148, Note_on_c, 6, 51, 127
8, 52157, Note_on_c, 6, 52, 127
8, 52158, Note_on_c, 6, 51, 0
8, 52165, Note_on_c, 6, 52, 0
8, 52165, Note_on_c, 6, 51, 127
8, 52175, Note_on_c, 6, 51, 0
8, 52175, Note_on_c, 6, 52, 127
8, 52182, Note_on_c, 6, 51, 127
8, 52183, Note_on_c, 6, 52, 0
8, 52191, Note_on_c, 6, 52, 127
8, 52193, Note_on_c, 6, 51, 0
8, 52197, Note_on_c, 6, 52, 0
8, 52198, Note_on_c, 6, 51, 127
8, 52200, Note_on_c, 6, 79, 127
8, 52216, Note_on_c, 6, 79, 0
8, 52217, Note_on_c, 6, 51, 0
8, 52230, Note_on_c, 6, 80, 127
8, 52243, Note_on_c, 6, 80, 0
8, 52260, Note_on_c, 6, 82, 127
8, 52270, Note_on_c, 6, 82, 0
8, 52290, Note_on_c, 6, 77, 127
8, 52299, Note_on_c, 6, 77, 0
8, 52410, Note_on_c, 6, 80, 127
8, 52422, Note_on_c, 6, 80, 0
8, 52470, Note_on_c, 6, 80, 127
8, 52482, Note_on_c, 6, 80, 0
8, 52560, Note_on_c, 6, 77, 127
8, 52572, Note_on_c, 6, 77, 0
8, 52590, Note_on_c, 6, 79, 127
8, 52603, Note_on_c, 6, 79, 0
8, 52620, Note_on_c, 6, 80, 127
8, 52630, Note_on_c, 6, 80, 0
8, 52680, Note_on_c, 6, 79, 127
8, 52695, Note_on_c, 6, 79, 0
8, 52710, Note_on_c, 6, 80, 127
8, 52723, Note_on_c, 6, 80, 0
8, 52740, Note_on_c, 6, 82, 127
8, 52749, Note_on_c, 6, 82, 0
8, 52770, Note_on_c, 6, 77, 127
8, 52783, Note_on_c, 6, 77, 0
8, 52890, Note_on_c, 6, 80, 127
8, 52900, Note_on_c, 6, 80, 0
8, 52950, Note_on_c, 6, 80, 127
8, 52962, Note_on_c, 6, 80, 0
8, 53040, Note_on_c, 6, 77, 127
8, 53054, Note_on_c, 6, 77, 0
8, 53070, Note_on_c, 6, 79, 127
8, 53083, Note_on_c, 6, 79, 0
8, 53100, Note_on_c, 6, 80, 127
8, 53102, Note_on_c, 6, 51, 127
8, 53107, Note_on_c, 6, 80, 0
8, 53108, Note_on_c, 6, 51, 127
8, 53111, Note_on_c, 6, 52, 127
8, 53112, Note_on_c, 6, 51, 0
8, 53117, Note_on_c, 6, 52, 127
8, 53118, Note_on_c, 6, 51, 0
8, 53119, Note_on_c, 6, 52, 0
8, 53119, Note_on_c, 6, 51, 127
8, 53125, Note_on_c, 6, 52, 0
8, 53125, Note_on_c, 6, 51, 127
8, 53129, Note_on_c, 6, 51, 0
8, 53129, Note_on_c, 6, 52, 127
8, 53135, Note_on_c, 6, 51, 0
8, 53135, Note_on_c, 6, 52, 127
8, 53136, Note_on_c, 6, 51, 127
8, 53137, Note_on_c, 6, 52, 0
8, 53142, Note_on_c, 6, 51, 127
8, 53143, Note_on_c, 6, 52, 0
8, 53145, Note_on_c, 6, 52, 127
8, 53147, Note_on_c, 6, 51, 0
8, 53151, Note_on_c, 6, 52, 0
8, 53151, Note_on_c, 6, 52, 127
8, 53152, Note_on_c, 6, 51, 127
8, 53153, Note_on_c, 6, 51, 0
8, 53157, Note_on_c, 6, 52, 0
8, 53158, Note_on_c, 6, 51, 127
8, 53160, Note_on_c, 6, 79, 127
8, 53171, Note_on_c, 6, 51, 0
8, 53176, Note_on_c, 6, 79, 0
8, 53177, Note_on_c, 6, 51, 0
8, 53190, Note_on_c, 6, 80, 127
8, 53203, Note_on_c, 6, 80, 0
8, 53220, Note_on_c, 6, 82, 127
8, 53230, Note_on_c, 6, 82, 0
8, 53250, Note_on_c, 6, 77, 127
8, 53259, Note_on_c, 6, 77, 0
8, 53370, Note_on_c, 6, 80, 127
8, 53382, Note_on_c, 6, 80, 0
8, 53430, Note_on_c, 6, 80, 127
8, 53442, Note_on_c, 6, 80, 0
8, 53520, Note_on_c, 6, 77, 127
8, 53532, Note_on_c, 6, 77, 0
8, 53550, Note_on_c, 6, 79, 127
8, 53563, Note_on_c, 6, 79, 0
8, 53580, Note_on_c, 6, 80, 127
8, 53590, Note_on_c, 6, 80, 0
8, 53640, Note_on_c, 6, 79, 127
8, 53655, Note_on_c, 6, 79, 0
8, 53670, Note_on_c, 6, 80, 127
8, 53683, Note_on_c, 6, 80, 0
8, 53700, Note_on_c, 6, 82, 127
8, 53709, Note_on_c, 6, 82, 0
8, 53730, Note_on_c, 6, 77, 127
8, 53743, Note_on_c, 6, 77, 0
8, 53850, Note_on_c, 6, 80, 127
8, 53860, Note_on_c, 6, 80, 0
8, 53910, Note_on_c, 6, 80, 127
8, 53922, Note_on_c, 6, 80, 0
8, 54000, Note_on_c, 6, 77, 127
8, 54014, Note_on_c, 6, 77, 0
8, 54030, Note_on_c, 6, 79, 127
8, 54043, Note_on_c, 6, 79, 0
8, 54060, Note_on_c, 6, 80, 127
8, 54067, Note_on_c, 6, 80, 0
8, 54068, Note_on_c, 6, 51, 127
8, 54068, Note_on_c, 6, 51, 127
8, 54077, Note_on_c, 6, 52, 127
8, 54077, Note_on_c, 6, 52, 127
8, 54078, Note_on_c, 6, 51, 0
8, 54078, Note_on_c, 6, 51, 0
8, 54085, Note_on_c, 6, 52, 0
8, 54085, Note_on_c, 6, 52, 0
8, 54085, Note_on_c, 6, 51, 127
8, 54085, Note_on_c, 6, 51, 127
8, 54095, Note_on_c, 6, 51, 0
8, 54095, Note_on_c, 6, 51, 0
8, 54095, Note_on_c, 6, 52, 127
8, 54095, Note_on_c, 6, 52, 127
8, 54102, Note_on_c, 6, 51, 127
8, 54102, Note_on_c, 6, 51, 127
8, 54103, Note_on_c, 6, 52, 0
8, 54103, Note_on_c, 6, 52, 0
8, 54111, Note_on_c, 6, 52, 127
8, 54111, Note_on_c, 6, 52, 127
8, 54113, Note_on_c, 6, 51, 0
8, 54113, Note_on_c, 6, 51, 0
8, 54117, Note_on_c, 6, 52, 0
8, 54117, Note_on_c, 6, 52, 0
8, 54118, Note_on_c, 6, 51, 127
8, 54118, Note_on_c, 6, 51, 127
8, 54120, Note_on_c, 6, 79, 127
8, 54136, Note_on_c, 6, 79, 0
8, 54137, Note_on_c, 6, 51, 0
8, 54137, Note_on_c, 6, 51, 0
8, 54150, Note_on_c, 6, 80, 127
8, 54163, Note_on_c, 6, 80, 0
8, 54180, Note_on_c, 6, 82, 127
8, 54190, Note_on_c, 6, 82, 0
8, 54210, Note_on_c, 6, 77, 127
8, 54219, Note_on_c, 6, 77, 0
8, 54330, Note_on_c, 6, 80, 127
8, 54342, Note_on_c, 6, 80, 0
8, 54390, Note_on_c, 6, 80, 127
8, 54402, Note_on_c, 6, 80, 0
8, 54480, Note_on_c, 6, 77, 127
8, 54492, Note_on_c, 6, 77, 0
8, 54510, Note_on_c, 6, 79, 127
8, 54523, Note_on_c, 6, 79, 0
8, 54540, Note_on_c, 6, 80, 127
8, 54550, Note_on_c, 6, 80, 0
8, 54600, Note_on_c, 6, 79, 127
8, 54615, Note_on_c, 6, 79, 0
8, 54630, Note_on_c, 6, 80, 127
8, 54643, Note_on_c, 6, 80, 0
8, 54660, Note_on_c, 6, 82, 127
8, 54669, Note_on_c, 6, 82, 0
8, 54690, Note_on_c, 6, 77, 127
8, 54703, Note_on_c, 6, 77, 0
8, 54810, Note_on_c, 6, 80, 127
8, 54820, Note_on_c, 6, 80, 0
8, 54870, Note_on_c, 6, 80, 127
8, 54882, Note_on_c, 6, 80, 0
8, 54960, Note_on_c, 6, 77, 127
8, 54974, Note_on_c, 6, 77, 0
8, 54990, Note_on_c, 6, 79, 127
8, 55003, Note_on_c, 6, 79, 0
8, 55020, Note_on_c, 6, 80, 127
8, 55022, Note_on_c, 6, 51, 127
8, 55027, Note_on_c, 6, 80, 0
8, 55028, Note_on_c, 6, 51, 127
8, 55031, Note_on_c, 6, 52, 127
8, 55032, Note_on_c, 6, 51, 0
8, 55037, Note_on_c, 6, 52, 127
8, 55038, Note_on_c, 6, 51, 0
8, 55039, Note_on_c, 6, 52, 0
8, 55039, Note_on_c, 6, 51, 127
8, 55045, Note_on_c, 6, 52, 0
8, 55045, Note_on_c, 6, 51, 127
8, 55049, Note_on_c, 6, 51, 0
8, 55049, Note_on_c, 6, 52, 127
8, 55055, Note_on_c, 6, 51, 0
8, 55055, Note_on_c, 6, 52, 127
8, 55056, Note_on_c, 6, 51, 127
8, 55057, Note_on_c, 6, 52, 0
8, 55062, Note_on_c, 6, 51, 127
8, 55063, Note_on_c, 6, 52, 0
8, 55065, Note_on_c, 6, 52, 127
8, 55067, Note_on_c, 6, 51, 0
8, 55071, Note_on_c, 6, 52, 0
8, 55071, Note_on_c, 6, 52, 127
8, 55072, Note_on_c, 6, 51, 127
8, 55073, Note_on_c, 6, 51, 0
8, 55077, Note_on_c, 6, 52, 0
8, 55078, Note_on_c, 6, 51, 127
8, 55080, Note_on_c, 6, 79, 127
8, 55091, Note_on_c, 6, 51, 0
8, 55096, Note_on_c, 6, 79, 0
8, 55097, Note_on_c, 6, 51, 0
8, 55110, Note_on_c, 6, 80, 127
8, 55123, Note_on_c, 6, 80, 0
8, 55140, Note_on_c, 6, 82, 127
8, 55150, Note_on_c, 6, 82, 0
8, 55170, Note_on_c, 6, 77, 127
8, 55179, Note_on_c, 6, 77, 0
8, 55290, Note_on_c, 6, 80, 127
8, 55302, Note_on_c, 6, 80, 0
8, 55350, Note_on_c, 6, 80, 127
8, 55362, Note_on_c, 6, 80, 0
8, 55440, Note_on_c, 6, 77, 127
8, 55452, Note_on_c, 6, 77, 0
8, 55470, Note_on_c, 6, 79, 127
8, 55483, Note_on_c, 6, 79, 0
8, 55500, Note_on_c, 6, 80, 127
8, 55510, Note_on_c, 6, 80, 0
8, 55560, Note_on_c, 6, 79, 127
8, 55575, Note_on_c, 6, 79, 0
8, 55590, Note_on_c, 6, 80, 127
8, 55603, Note_on_c, 6, 80, 0
8, 55620, Note_on_c, 6, 82, 127
8, 55629, Note_on_c, 6, 82, 0
8, 55650, Note_on_c, 6, 77, 127
8, 55663, Note_on_c, 6, 77, 0
8, 55770, Note_on_c, 6, 80, 127
8, 55780, Note_on_c, 6, 80, 0
8, 55830, Note_on_c, 6, 80, 127
8, 55842, Note_on_c, 6, 80, 0
8, 55920, Note_on_c, 6, 77, 127
8, 55934, Note_on_c, 6, 77, 0
8, 55950, Note_on_c, 6, 79, 127
8, 55963, Note_on_c, 6, 79, 0
8, 55980, Note_on_c, 6, 80, 127
8, 55987, Note_on_c, 6, 80, 0
8, 55988, Note_on_c, 6, 51, 127
8, 55988, Note_on_c, 6, 51, 127
8, 55997, Note_on_c, 6, 52, 127
8, 55997, Note_on_c, 6, 52, 127
8, 55998, Note_on_c, 6, 51, 0
8, 55998, Note_on_c, 6, 51, 0
8, 56005, Note_on_c, 6, 52, 0
8, 56005, Note_on_c, 6, 52, 0
8, 56005, Note_on_c, 6, 51, 127
8, 56005, Note_on_c, 6, 51, 127
8, 56015, Note_on_c, 6, 51, 0
8, 56015, Note_on_c, 6, 51, 0
8, 56015, Note_on_c, 6, 52, 127
8, 56015, Note_on_c, 6, 52, 127
8, 56022, Note_on_c, 6, 51, 127
8, 56022, Note_on_c, 6, 51, 127
8, 56023, Note_on_c, 6, 52, 0
8, 56023, Note_on_c, 6, 52, 0
8, 56031, Note_on_c, 6, 52, 127
8, 56031, Note_on_c, 6, 52, 127
8, 56033, Note_on_c, 6, 51, 0
8, 56033, Note_on_c, 6, 51, 0
8, 56037, Note_on_c, 6, 52, 0
8, 56037, Note_on_c, 6, 52, 0
8, 56038, Note_on_c, 6, 51, 127
8, 56038, Note_on_c, 6, 51, 127
8, 56040, Note_on_c, 6, 79, 127
8, 56056, Note_on_c, 6, 79, 0
8, 56057, Note_on_c, 6, 51, 0
8, 56057, Note_on_c, 6, 51, 0
8, 56070, Note_on_c, 6, 80, 127
8, 56083, Note_on_c, 6, 80, 0
8, 56100, Note_on_c, 6, 82, 127
8, 56110, Note_on_c, 6, 82, 0
8, 56130, Note_on_c, 6, 77, 127
8, 56139, Note_on_c, 6, 77, 0
8, 56250, Note_on_c, 6, 80, 127
8, 56262, Note_on_c, 6, 80, 0
8, 56310, Note_on_c, 6, 80, 127
8, 56322, Note_on_c, 6, 80, 0
8, 56400, Note_on_c, 6, 77, 127
8, 56412, Note_on_c, 6, 77, 0
8, 56430, Note_on_c, 6, 79, 127
8, 56443, Note_on_c, 6, 79, 0
8, 56460, Note_on_c, 6, 80, 127
8, 56470, Note_on_c, 6, 80, 0
8, 56520, Note_on_c, 6, 79, 127
8, 56535, Note_on_c, 6, 79, 0
8, 56550, Note_on_c, 6, 80, 127
8, 56563, Note_on_c, 6, 80, 0
8, 56580, Note_on_c, 6, 82, 127
8, 56589, Note_on_c, 6, 82, 0
8, 56610, Note_on_c, 6, 77, 127
8, 56623, Note_on_c, 6, 77, 0
8, 56730, Note_on_c, 6, 80, 127
8, 56740, Note_on_c, 6, 80, 0
8, 56790, Note_on_c, 6, 80, 127
8, 56802, Note_on_c, 6, 80, 0
8, 56880, Note_on_c, 6, 77, 127
8, 56894, Note_on_c, 6, 77, 0
8, 56910, Note_on_c, 6, 79, 127
8, 56923, Note_on_c, 6, 79, 0
8, 56940, Note_on_c, 6, 80, 127
8, 56942, Note_on_c, 6, 51, 127
8, 56947, Note_on_c, 6, 80, 0
8, 56948, Note_on_c, 6, 51, 127
8, 56951, Note_on_c, 6, 52, 127
8, 56952, Note_on_c, 6, 51, 0
8, 56957, Note_on_c, 6, 52, 127
8, 56958, Note_on_c, 6, 51, 0
8, 56959, Note_on_c, 6, 52, 0
8, 56959, Note_on_c, 6, 51, 127
8, 56965, Note_on_c, 6, 52, 0
8, 56965, Note_on_c, 6, 51, 127
8, 56969, Note_on_c, 6, 51, 0
8, 56969, Note_on_c, 6, 52, 127
8, 56975, Note_on_c, 6, 51, 0
8, 56975, Note_on_c, 6, 52, 127
8, 56976, Note_on_c, 6, 51, 127
8, 56977, Note_on_c, 6, 52, 0
8, 56982, Note_on_c, 6, 51, 127
8, 56983, Note_on_c, 6, 52, 0
8, 56985, Note_on_c, 6, 52, 127
8, 56987, Note_on_c, 6, 51, 0
8, 56991, Note_on_c, 6, 52, 0
8, 56991, Note_on_c, 6, 52, 127
8, 56992, Note_on_c, 6, 51, 127
8, 56993, Note_on_c, 6, 51, 0
8, 56997, Note_on_c, 6, 52, 0
8, 56998, Note_on_c, 6, 51, 127
8, 57000, Note_on_c, 6, 79, 127
8, 57011, Note_on_c, 6, 51, 0
8, 57016, Note_on_c, 6, 79, 0
8, 57017, Note_on_c, 6, 51, 0
8, 57030, Note_on_c, 6, 80, 127
8, 57043, Note_on_c, 6, 80, 0
8, 57060, Note_on_c, 6, 82, 127
8, 57070, Note_on_c, 6, 82, 0
8, 57090, Note_on_c, 6, 77, 127
8, 57099, Note_on_c, 6, 77, 0
8, 57210, Note_on_c, 6, 80, 127
8, 57222, Note_on_c, 6, 80, 0
8, 57270, Note_on_c, 6, 80, 127
8, 57282, Note_on_c, 6, 80, 0
8, 57360, Note_on_c, 6, 77, 127
8, 57372, Note_on_c, 6, 77, 0
8, 57390, Note_on_c, 6, 79, 127
8, 57403, Note_on_c, 6, 79, 0
8, 57420, Note_on_c, 6, 80, 127
8, 57430, Note_on_c, 6, 80, 0
8, 57480, Note_on_c, 6, 79, 127
8, 57495, Note_on_c, 6, 79, 0
8, 57510, Note_on_c, 6, 80, 127
8, 57523, Note_on_c, 6, 80, 0
8, 57540, Note_on_c, 6, 82, 127
8, 57549, Note_on_c, 6, 82, 0
8, 57570, Note_on_c, 6, 77, 127
8, 57583, Note_on_c, 6, 77, 0
8, 57690, Note_on_c, 6, 80, 127
8, 57700, Note_on_c, 6, 80, 0
8, 57750, Note_on_c, 6, 80, 127
8, 57762, Note_on_c, 6, 80, 0
8, 57840, Note_on_c, 6, 77, 127
8, 57854, Note_on_c, 6, 77, 0
8, 57870, Note_on_c, 6, 79, 127
8, 57883, Note_on_c, 6, 79, 0
8, 57900, Note_on_c, 6, 80, 127
8, 57907, Note_on_c, 6, 80, 0
8, 57908, Note_on_c, 6, 51, 127
8, 57908, Note_on_c, 6, 51, 127
8, 57917, Note_on_c, 6, 52, 127
8, 57917, Note_on_c, 6, 52, 127
8, 57918, Note_on_c, 6, 51, 0
8, 57918, Note_on_c, 6, 51, 0
8, 57925, Note_on_c, 6, 52, 0
8, 57925, Note_on_c, 6, 52, 0
8, 57925, Note_on_c, 6, 51, 127
8, 57925, Note_on_c, 6, 51, 127
8, 57935, Note_on_c, 6, 51, 0
8, 57935, Note_on_c, 6, 51, 0
8, 57935, Note_on_c, 6, 52, 127
8, 57935, Note_on_c, 6, 52, 127
8, 57942, Note_on_c, 6, 51, 127
8, 57942, Note_on_c, 6, 51, 127
8, 57943, Note_on_c, 6, 52, 0
8, 57943, Note_on_c, 6, 52, 0
8, 57951, Note_on_c, 6, 52, 127
8, 57951, Note_on_c, 6, 52, 127
8, 57953, Note_on_c, 6, 51, 0
8, 57953, Note_on_c, 6, 51, 0
8, 57957, Note_on_c, 6, 52, 0
8, 57957, Note_on_c, 6, 52, 0
8, 57958, Note_on_c, 6, 51, 127
8, 57958, Note_on_c, 6, 51, 127
8, 57960, Note_on_c, 6, 79, 127
8, 57976, Note_on_c, 6, 79, 0
8, 57977, Note_on_c, 6, 51, 0
8, 57977, Note_on_c, 6, 51, 0
8, 57990, Note_on_c, 6, 80, 127
8, 58003, Note_on_c, 6, 80, 0
8, 58020, Note_on_c, 6, 82, 127
8, 58030, Note_on_c, 6, 82, 0
8, 58050, Note_on_c, 6, 77, 127
8, 58059, Note_on_c, 6, 77, 0
8, 58170, Note_on_c, 6, 80, 127
8, 58182, Note_on_c, 6, 80, 0
8, 58230, Note_on_c, 6, 80, 127
8, 58242, Note_on_c, 6, 80, 0
8, 58320, Note_on_c, 6, 77, 127
8, 58332, Note_on_c, 6, 77, 0
8, 58350, Note_on_c, 6, 79, 127
8, 58363, Note_on_c, 6, 79, 0
8, 58380, Note_on_c, 6, 80, 127
8, 58390, Note_on_c, 6, 80, 0
8, 58440, Note_on_c, 6, 79, 127
8, 58455, Note_on_c, 6, 79, 0
8, 58470, Note_on_c, 6, 80, 127
8, 58483, Note_on_c, 6, 80, 0
8, 58500, Note_on_c, 6, 82, 127
8, 58509, Note_on_c, 6, 82, 0
8, 58530, Note_on_c, 6, 77, 127
8, 58543, Note_on_c, 6, 77, 0
8, 58650, Note_on_c, 6, 80, 127
8, 58660, Note_on_c, 6, 80, 0
8, 58710, Note_on_c, 6, 80, 127
8, 58722, Note_on_c, 6, 80, 0
8, 58800, Note_on_c, 6, 77, 127
8, 58814, Note_on_c, 6, 77, 0
8, 58830, Note_on_c, 6, 79, 127
8, 58843, Note_on_c, 6, 79, 0
8, 58860, Note_on_c, 6, 80, 127
8, 58862, Note_on_c, 6, 51, 127
8, 58867, Note_on_c, 6, 80, 0
8, 58868, Note_on_c, 6, 51, 127
8, 58871, Note_on_c, 6, 52, 127
8, 58872, Note_on_c, 6, 51, 0
8, 58877, Note_on_c, 6, 52, 127
8, 58878, Note_on_c, 6, 51, 0
8, 58879, Note_on_c, 6, 52, 0
8, 58879, Note_on_c, 6, 51, 127
8, 58885, Note_on_c, 6, 52, 0
8, 58885, Note_on_c, 6, 51, 127
8, 58889, Note_on_c, 6, 51, 0
8, 58889, Note_on_c, 6, 52, 127
8, 58895, Note_on_c, 6, 51, 0
8, 58895, Note_on_c, 6, 52, 127
8, 58896, Note_on_c, 6, 51, 127
8, 58897, Note_on_c, 6, 52, 0
8, 58902, Note_on_c, 6, 51, 127
8, 58903, Note_on_c, 6, 52, 0
8, 58905, Note_on_c, 6, 52, 127
8, 58907, Note_on_c, 6, 51, 0
8, 58911, Note_on_c, 6, 52, 0
8, 58911, Note_on_c, 6, 52, 127
8, 58912, Note_on_c, 6, 51, 127
8, 58913, Note_on_c, 6, 51, 0
8, 58917, Note_on_c, 6, 52, 0
8, 58918, Note_on_c, 6, 51, 127
8, 58920, Note_on_c, 6, 79, 127
8, 58931, Note_on_c, 6, 51, 0
8, 58936, Note_on_c, 6, 79, 0
8, 58937, Note_on_c, 6, 51, 0
8, 58950, Note_on_c, 6, 80, 127
8, 58963, Note_on_c, 6, 80, 0
8, 58980, Note_on_c, 6, 82, 127
8, 58990, Note_on_c, 6, 82, 0
8, 59010, Note_on_c, 6, 77, 127
8, 59019, Note_on_c, 6, 77, 0
8, 59130, Note_on_c, 6, 80, 127
8, 59142, Note_on_c, 6, 80, 0
8, 59190, Note_on_c, 6, 80, 127
8, 59202, Note_on_c, 6, 80, 0
8, 59280, Note_on_c, 6, 77, 127
8, 59292, Note_on_c, 6, 77, 0
8, 59310, Note_on_c, 6, 79, 127
8, 59323, Note_on_c, 6, 79, 0
8, 59340, Note_on_c, 6, 80, 127
8, 59350, Note_on_c, 6, 80, 0
8, 59400, Note_on_c, 6, 79, 127
8, 59415, Note_on_c, 6, 79, 0
8, 59430, Note_on_c, 6, 80, 127
8, 59443, Note_on_c, 6, 80, 0
8, 59460, Note_on_c, 6, 82, 127
8, 59469, Note_on_c, 6, 82, 0
8, 59490, Note_on_c, 6, 77, 127
8, 59503, Note_on_c, 6, 77, 0
8, 59610, Note_on_c, 6, 80, 127
8, 59620, Note_on_c, 6, 80, 0
8, 59670, Note_on_c, 6, 80, 127
8, 59682, Note_on_c, 6, 80, 0
8, 59760, Note_on_c, 6, 77, 127
8, 59774, Note_on_c, 6, 77, 0
8, 59790, Note_on_c, 6, 79, 127
8, 59803, Note_on_c, 6, 79, 0
8, 59820, Note_on_c, 6, 80, 127
8, 59827, Note_on_c, 6, 80, 0
8, 59828, Note_on_c, 6, 51, 127
8, 59828, Note_on_c, 6, 51, 127
8, 59837, Note_on_c, 6, 52, 127
8, 59837, Note_on_c, 6, 52, 127
8, 59838, Note_on_c, 6, 51, 0
8, 59838, Note_on_c, 6, 51, 0
8, 59845, Note_on_c, 6, 52, 0
8, 59845, Note_on_c, 6, 52, 0
8, 59845, Note_on_c, 6, 51, 127
8, 59845, Note_on_c, 6, 51, 127
8, 59855, Note_on_c, 6, 51, 0
8, 59855, Note_on_c, 6, 51, 0
8, 59855, Note_on_c, 6, 52, 127
8, 59855, Note_on_c, 6, 52, 127
8, 59862, Note_on_c, 6, 51, 127
8, 59862, Note_on_c, 6, 51, 127
8, 59863, Note_on_c, 6, 52, 0
8, 59863, Note_on_c, 6, 52, 0
8, 59871, Note_on_c, 6, 52, 127
8, 59871, Note_on_c, 6, 52, 127
8, 59873, Note_on_c, 6, 51, 0
8, 59873, Note_on_c, 6, 51, 0
8, 59877, Note_on_c, 6, 52, 0
8, 59877, Note_on_c, 6, 52, 0
8, 59878, Note_on_c, 6, 51, 127
8, 59878, Note_on_c, 6, 51, 127
8, 59880, Note_on_c, 6, 79, 127
8, 59896, Note_on_c, 6, 79, 0
8, 59897, Note_on_c, 6, 51, 0
8, 59897, Note_on_c, 6, 51, 0
8, 59910, Note_on_c, 6, 80, 127
8, 59923, Note_on_c, 6, 80, 0
8, 59940, Note_on_c, 6, 82, 127
8, 59950, Note_on_c, 6, 82, 0
8, 59970, Note_on_c, 6, 77, 127
8, 59979, Note_on_c, 6, 77, 0
8, 60090, Note_on_c, 6, 80, 127
8, 60102, Note_on_c, 6, 80, 0
8, 60150, Note_on_c, 6, 80, 127
8, 60162, Note_on_c, 6, 80, 0
8, 60240, Note_on_c, 6, 77, 127
8, 60252, Note_on_c, 6, 77, 0
8, 60270, Note_on_c, 6, 79, 127
8, 60283, Note_on_c, 6, 79, 0
8, 60300, Note_on_c, 6, 80, 127
8, 60310, Note_on_c, 6, 80, 0
8, 60360, Note_on_c, 6, 79, 127
8, 60375, Note_on_c, 6, 79, 0
8, 60390, Note_on_c, 6, 80, 127
8, 60403, Note_on_c, 6, 80, 0
8, 60420, Note_on_c, 6, 82, 127
8, 60429, Note_on_c, 6, 82, 0
8, 60450, Note_on_c, 6, 77, 127
8, 60463, Note_on_c, 6, 77, 0
8, 60570, Note_on_c, 6, 80, 127
8, 60580, Note_on_c, 6, 80, 0
8, 60630, Note_on_c, 6, 80, 127
8, 60642, Note_on_c, 6, 80, 0
8, 60720, Note_on_c, 6, 77, 127
8, 60734, Note_on_c, 6, 77, 0
8, 60750, Note_on_c, 6, 79, 127
8, 60763, Note_on_c, 6, 79, 0
8, 60780, Note_on_c, 6, 80, 127
8, 60782, Note_on_c, 6, 51, 127
8, 60787, Note_on_c, 6, 80, 0
8, 60788, Note_on_c, 6, 51, 127
8, 60791, Note_on_c, 6, 52, 127
8, 60792, Note_on_c, 6, 51, 0
8, 60797, Note_on_c, 6, 52, 127
8, 60798, Note_on_c, 6, 51, 0
8, 60799, Note_on_c, 6, 52, 0
8, 60799, Note_on_c, 6, 51, 127
8, 60805, Note_on_c, 6, 52, 0
8, 60805, Note_on_c, 6, 51, 127
8, 60809, Note_on_c, 6, 51, 0
8, 60809, Note_on_c, 6, 52, 127
8, 60815, Note_on_c, 6, 51, 0
8, 60815, Note_on_c, 6, 52, 127
8, 60816, Note_on_c, 6, 51, 127
8, 60817, Note_on_c, 6, 52, 0
8, 60822, Note_on_c, 6, 51, 127
8, 60823, Note_on_c, 6, 52, 0
8, 60825, Note_on_c, 6, 52, 127
8, 60827, Note_on_c, 6, 51, 0
8, 60831, Note_on_c, 6, 52, 0
8, 60831, Note_on_c, 6, 52, 127
8, 60832, Note_on_c, 6, 51, 127
8, 60833, Note_on_c, 6, 51, 0
8, 60837, Note_on_c, 6, 52, 0
8, 60838, Note_on_c, 6, 51, 127
8, 60840, Note_on_c, 6, 79, 127
8, 60851, Note_on_c, 6, 51, 0
8, 60856, Note_on_c, 6, 79, 0
8, 60857, Note_on_c, 6, 51, 0
8, 60870, Note_on_c, 6, 80, 127
8, 60883, Note_on_c, 6, 80, 0
8, 60900, Note_on_c, 6, 82, 127
8, 60910, Note_on_c, 6, 82, 0
8, 60930, Note_on_c, 6, 77, 127
8, 60939, Note_on_c, 6, 77, 0
8, 61050, Note_on_c, 6, 80, 127
8, 61062, Note_on_c, 6, 80, 0
8, 61110, Note_on_c, 6, 80, 127
8, 61122, Note_on_c, 6, 80, 0
8, 61200, Note_on_c, 6, 77, 127
8, 61212, Note_on_c, 6, 77, 0
8, 61230, Note_on_c, 6, 79, 127
8, 61243, Note_on_c, 6, 79, 0
8, 61260, Note_on_c, 6, 80, 127
8, 61270, Note_on_c, 6, 80, 0
8, 61320, Note_on_c, 6, 79, 127
8, 61335, Note_on_c, 6, 79, 0
8, 61350, Note_on_c, 6, 80, 127
8, 61363, Note_on_c, 6, 80, 0
8, 61380, Note_on_c, 6, 82, 127
8, 61389, Note_on_c, 6, 82, 0
8, 61410, Note_on_c, 6, 77, 127
8, 61423, Note_on_c, 6, 77, 0
8, 61530, Note_on_c, 6, 80, 127
8, 61540, Note_on_c, 6, 80, 0
8, 61590, Note_on_c, 6, 80, 127
8, 61602, Note_on_c, 6, 80, 0
8, 61680, Note_on_c, 6, 77, 127
8, 61694, Note_on_c, 6, 77, 0
8, 61710, Note_on_c, 6, 79, 127
8, 61723, Note_on_c, 6, 79, 0
8, 61740, Note_on_c, 6, 80, 127
8, 61747, Note_on_c, 6, 80, 0
8, 61748, Note_on_c, 6, 51, 127
8, 61748, Note_on_c, 6, 51, 127
8, 61757, Note_on_c, 6, 52, 127
8, 61757, Note_on_c, 6, 52, 127
8, 61758, Note_on_c, 6, 51, 0
8, 61758, Note_on_c, 6, 51, 0
8, 61765, Note_on_c, 6, 52, 0
8, 61765, Note_on_c, 6, 52, 0
8, 61765, Note_on_c, 6, 51, 127
8, 61765, Note_on_c, 6, 51, 127
8, 61775, Note_on_c, 6, 51, 0
8, 61775, Note_on_c, 6, 51, 0
8, 61775, Note_on_c, 6, 52, 127
8, 61775, Note_on_c, 6, 52, 127
8, 61782, Note_on_c, 6, 51, 127
8, 61782, Note_on_c, 6, 51, 127
8, 61783, Note_on_c, 6, 52, 0
8, 61783, Note_on_c, 6, 52, 0
8, 61791, Note_on_c, 6, 52, 127
8, 61791, Note_on_c, 6, 52, 127
8, 61793, Note_on_c, 6, 51, 0
8, 61793, Note_on_c, 6, 51, 0
8, 61797, Note_on_c, 6, 52, 0
8, 61797, Note_on_c, 6, 52, 0
8, 61798, Note_on_c, 6, 51, 127
8, 61798, Note_on_c, 6, 51, 127
8, 61800, Note_on_c, 6, 79, 127
8, 61816, Note_on_c, 6, 79, 0
8, 61817, Note_on_c, 6, 51, 0
8, 61817, Note_on_c, 6, 51, 0
8, 61830, Note_on_c, 6, 80, 127
8, 61843, Note_on_c, 6, 80, 0
8, 61860, Note_on_c, 6, 82, 127
8, 61870, Note_on_c, 6, 82, 0
8, 61890, Note_on_c, 6, 77, 127
8, 61899, Note_on_c, 6, 77, 0
8, 62010, Note_on_c, 6, 80, 127
8, 62022, Note_on_c, 6, 80, 0
8, 62070, Note_on_c, 6, 80, 127
8, 62082, Note_on_c, 6, 80, 0
8, 62160, Note_on_c, 6, 77, 127
8, 62172, Note_on_c, 6, 77, 0
8, 62190, Note_on_c, 6, 79, 127
8, 62203, Note_on_c, 6, 79, 0
8, 62220, Note_on_c, 6, 80, 127
8, 62230, Note_on_c, 6, 80, 0
8, 62280, Note_on_c, 6, 79, 127
8, 62295, Note_on_c, 6, 79, 0
8, 62310, Note_on_c, 6, 80, 127
8, 62323, Note_on_c, 6, 80, 0
8, 62340, Note_on_c, 6, 82, 127
8, 62349, Note_on_c, 6, 82, 0
8, 62370, Note_on_c, 6, 77, 127
8, 62383, Note_on_c, 6, 77, 0
8, 62490, Note_on_c, 6, 80, 127
8, 62500, Note_on_c, 6, 80, 0
8, 62550, Note_on_c, 6, 80, 127
8, 62562, Note_on_c, 6, 80, 0
8, 62640, Note_on_c, 6, 77, 127
8, 62654, Note_on_c, 6, 77, 0
8, 62670, Note_on_c, 6, 79, 127
8, 62683, Note_on_c, 6, 79, 0
8, 62700, Note_on_c, 6, 80, 127
8, 62702, Note_on_c, 6, 51, 127
8, 62707, Note_on_c, 6, 80, 0
8, 62708, Note_on_c, 6, 51, 127
8, 62711, Note_on_c, 6, 52, 127
8, 62712, Note_on_c, 6, 51, 0
8, 62717, Note_on_c, 6, 52, 127
8, 62718, Note_on_c, 6, 51, 0
8, 62719, Note_on_c, 6, 52, 0
8, 62719, Note_on_c, 6, 51, 127
8, 62725, Note_on_c, 6, 52, 0
8, 62725, Note_on_c, 6, 51, 127
8, 62729, Note_on_c, 6, 51, 0
8, 62729, Note_on_c, 6, 52, 127
8, 62735, Note_on_c, 6, 51, 0
8, 62735, Note_on_c, 6, 52, 127
8, 62736, Note_on_c, 6, 51, 127
8, 62737, Note_on_c, 6, 52, 0
8, 62742, Note_on_c, 6, 51, 127
8, 62743, Note_on_c, 6, 52, 0
8, 62745, Note_on_c, 6, 52, 127
8, 62747, Note_on_c, 6, 51, 0
8, 62751, Note_on_c, 6, 52, 0
8, 62751, Note_on_c, 6, 52, 127
8, 62752, Note_on_c, 6, 51, 127
8, 62753, Note_on_c, 6, 51, 0
8, 62757, Note_on_c, 6, 52, 0
8, 62758, Note_on_c, 6, 51, 127
8, 62760, Note_on_c, 6, 79, 127
8, 62771, Note_on_c, 6, 51, 0
8, 62776, Note_on_c, 6, 79, 0
8, 62777, Note_on_c, 6, 51, 0
8, 62790, Note_on_c, 6, 80, 127
8, 62803, Note_on_c, 6, 80, 0
8, 62820, Note_on_c, 6, 82, 127
8, 62830, Note_on_c, 6, 82, 0
8, 62850, Note_on_c, 6, 77, 127
8, 62859, Note_on_c, 6, 77, 0
8, 62970, Note_on_c, 6, 80, 127
8, 62982, Note_on_c, 6, 80, 0
8, 63030, Note_on_c, 6, 80, 127
8, 63042, Note_on_c, 6, 80, 0
8, 63120, Note_on_c, 6, 77, 127
8, 63132, Note_on_c, 6, 77, 0
8, 63150, Note_on_c, 6, 79, 127
8, 63163, Note_on_c, 6, 79, 0
8, 63180, Note_on_c, 6, 80, 127
8, 63190, Note_on_c, 6, 80, 0
8, 63240, Note_on_c, 6, 79, 127
8, 63255, Note_on_c, 6, 79, 0
8, 63270, Note_on_c, 6, 80, 127
8, 63283, Note_on_c, 6, 80, 0
8, 63300, Note_on_c, 6, 82, 127
8, 63309, Note_on_c, 6, 82, 0
8, 63330, Note_on_c, 6, 77, 127
8, 63343, Note_on_c, 6, 77, 0
8, 63450, Note_on_c, 6, 80, 127
8, 63460, Note_on_c, 6, 80, 0
8, 63510, Note_on_c, 6, 80, 127
8, 63522, Note_on_c, 6, 80, 0
8, 63600, Note_on_c, 6, 77, 127
8, 63614, Note_on_c, 6, 77, 0
8, 63630, Note_on_c, 6, 79, 127
8, 63643, Note_on_c, 6, 79, 0
8, 63660, Note_on_c, 6, 80, 127
8, 63667, Note_on_c, 6, 80, 0
8, 63668, Note_on_c, 6, 51, 127
8, 63668, Note_on_c, 6, 51, 127
8, 63677, Note_on_c, 6, 52, 127
8, 63677, Note_on_c, 6, 52, 127
8, 63678, Note_on_c, 6, 51, 0
8, 63678, Note_on_c, 6, 51, 0
8, 63685, Note_on_c, 6, 52, 0
8, 63685, Note_on_c, 6, 52, 0
8, 63685, Note_on_c, 6, 51, 127
8, 63685, Note_on_c, 6, 51, 127
8, 63695, Note_on_c, 6, 51, 0
8, 63695, Note_on_c, 6, 51, 0
8, 63695, Note_on_c, 6, 52, 127
8, 63695, Note_on_c, 6, 52, 127
8, 63702, Note_on_c, 6, 51, 127
8, 63702, Note_on_c, 6, 51, 127
8, 63703, Note_on_c, 6, 52, 0
8, 63703, Note_on_c, 6, 52, 0
8, 63711, Note_on_c, 6, 52, 127
8, 63711, Note_on_c, 6, 52, 127
8, 63713, Note_on_c, 6, 51, 0
8, 63713, Note_on_c, 6, 51, 0
8, 63717, Note_on_c, 6, 52, 0
8, 63717, Note_on_c, 6, 52, 0
8, 63718, Note_on_c, 6, 51, 127
8, 63718, Note_on_c, 6, 51, 127
8, 63720, Note_on_c, 6, 79, 127
8, 63736, Note_on_c, 6, 79, 0
8, 63737, Note_on_c, 6, 51, 0
8, 63737, Note_on_c, 6, 51, 0
8, 63750, Note_on_c, 6, 80, 127
8, 63763, Note_on_c, 6, 80, 0
8, 63780, Note_on_c, 6, 82, 127
8, 63790, Note_on_c, 6, 82, 0
8, 63810, Note_on_c, 6, 77, 127
8, 63819, Note_on_c, 6, 77, 0
8, 63930, Note_on_c, 6, 80, 127
8, 63942, Note_on_c, 6, 80, 0
8, 63990, Note_on_c, 6, 80, 127
8, 64002, Note_on_c, 6, 80, 0
8, 64080, Note_on_c, 6, 77, 127
8, 64092, Note_on_c, 6, 77, 0
8, 64110, Note_on_c, 6, 79, 127
8, 64123, Note_on_c, 6, 79, 0
8, 64140, Note_on_c, 6, 80, 127
8, 64150, Note_on_c, 6, 80, 0
8, 64200, Note_on_c, 6, 79, 127
8, 64215, Note_on_c, 6, 79, 0
8, 64230, Note_on_c, 6, 80, 127
8, 64243, Note_on_c, 6, 80, 0
8, 64260, Note_on_c, 6, 82, 127
8, 64269, Note_on_c, 6, 82, 0
8, 64290, Note_on_c, 6, 77, 127
8, 64303, Note_on_c, 6, 77, 0
8, 64622, Note_on_c, 6, 51, 127
8, 64628, Note_on_c, 6, 51, 127
8, 64631, Note_on_c, 6, 52, 127
8, 64632, Note_on_c, 6, 51, 0
8, 64637, Note_on_c, 6, 52, 127
8, 64638, Note_on_c, 6, 51, 0
8, 64639, Note_on_c, 6, 52, 0
8, 64639, Note_on_c, 6, 51, 127
8, 64645, Note_on_c, 6, 52, 0
8, 64645, Note_on_c, 6, 51, 127
8, 64649, Note_on_c, 6, 51, 0
8, 64649, Note_on_c, 6, 52, 127
8, 64655, Note_on_c, 6, 51, 0
8, 64655, Note_on_c, 6, 52, 127
8, 64656, Note_on_c, 6, 51, 127
8, 64657, Note_on_c, 6, 52, 0
8, 64662, Note_on_c, 6, 51, 127
8, 64663, Note_on_c, 6, 52, 0
8, 64665, Note_on_c, 6, 52, 127
8, 64667, Note_on_c, 6, 51, 0
8, 64671, Note_on_c, 6, 52, 0
8, 64671, Note_on_c, 6, 52, 127
8, 64672, Note_on_c, 6, 51, 127
8, 64673, Note_on_c, 6, 51, 0
8, 64677, Note_on_c, 6, 52, 0
8, 64678, Note_on_c, 6, 51, 127
8, 64691, Note_on_c, 6, 51, 0
8, 64697, Note_on_c, 6, 51, 0
8, 64697, End_track
9, 0, Start_track
9, 0, MIDI_port, 0
9, 0, Title_t, "Twang!"
9, 0, Control_c, 9, 91, 93
9, 168, Control_c, 9, 7, 67
9, 168, Control_c, 9, 10, 4
9, 21900, Note_on_c, 9, 34, 127
9, 21917, Note_on_c, 9, 34, 0
9, 21930, Note_on_c, 9, 34, 127
9, 21997, Note_on_c, 9, 34, 0
9, 22860, Note_on_c, 9, 34, 127
9, 22881, Note_on_c, 9, 34, 0
9, 22890, Note_on_c, 9, 34, 127
9, 22929, Note_on_c, 9, 34, 0
9, 23820, Note_on_c, 9, 34, 127
9, 23841, Note_on_c, 9, 34, 0
9, 23850, Note_on_c, 9, 34, 127
9, 23889, Note_on_c, 9, 34, 0
9, 24785, Note_on_c, 9, 34, 127
9, 24806, Note_on_c, 9, 34, 0
9, 24815, Note_on_c, 9, 34, 127
9, 24854, Note_on_c, 9, 34, 0
9, 37260, Note_on_c, 9, 34, 127
9, 37277, Note_on_c, 9, 34, 0
9, 37290, Note_on_c, 9, 34, 127
9, 37357, Note_on_c, 9, 34, 0
9, 38220, Note_on_c, 9, 34, 127
9, 38241, Note_on_c, 9, 34, 0
9, 38250, Note_on_c, 9, 34, 127
9, 38289, Note_on_c, 9, 34, 0
9, 39180, Note_on_c, 9, 34, 127
9, 39201, Note_on_c, 9, 34, 0
9, 39210, Note_on_c, 9, 34, 127
9, 39249, Note_on_c, 9, 34, 0
9, 40145, Note_on_c, 9, 34, 127
9, 40166, Note_on_c, 9, 34, 0
9, 40175, Note_on_c, 9, 34, 127
9, 40214, Note_on_c, 9, 34, 0
9, 41100, Note_on_c, 9, 34, 127
9, 41117, Note_on_c, 9, 34, 0
9, 41130, Note_on_c, 9, 34, 127
9, 41197, Note_on_c, 9, 34, 0
9, 42060, Note_on_c, 9, 34, 127
9, 42081, Note_on_c, 9, 34, 0
9, 42090, Note_on_c, 9, 34, 127
9, 42129, Note_on_c, 9, 34, 0
9, 43020, Note_on_c, 9, 34, 127
9, 43041, Note_on_c, 9, 34, 0
9, 43050, Note_on_c, 9, 34, 127
9, 43089, Note_on_c, 9, 34, 0
9, 43985, Note_on_c, 9, 34, 127
9, 44006, Note_on_c, 9, 34, 0
9, 44015, Note_on_c, 9, 34, 127
9, 44054, Note_on_c, 9, 34, 0
9, 44940, Note_on_c, 9, 34, 127
9, 44957, Note_on_c, 9, 34, 0
9, 44970, Note_on_c, 9, 34, 127
9, 45037, Note_on_c, 9, 34, 0
9, 45900, Note_on_c, 9, 34, 127
9, 45921, Note_on_c, 9, 34, 0
9, 45930, Note_on_c, 9, 34, 127
9, 45969, Note_on_c, 9, 34, 0
9, 46860, Note_on_c, 9, 34, 127
9, 46881, Note_on_c, 9, 34, 0
9, 46890, Note_on_c, 9, 34, 127
9, 46929, Note_on_c, 9, 34, 0
9, 47825, Note_on_c, 9, 34, 127
9, 47846, Note_on_c, 9, 34, 0
9, 47855, Note_on_c, 9, 34, 127
9, 47894, Note_on_c, 9, 34, 0
9, 48780, Note_on_c, 9, 34, 127
9, 48797, Note_on_c, 9, 34, 0
9, 48810, Note_on_c, 9, 34, 127
9, 48877, Note_on_c, 9, 34, 0
9, 49740, Note_on_c, 9, 34, 127
9, 49761, Note_on_c, 9, 34, 0
9, 49770, Note_on_c, 9, 34, 127
9, 49809, Note_on_c, 9, 34, 0
9, 50700, Note_on_c, 9, 34, 127
9, 50721, Note_on_c, 9, 34, 0
9, 50730, Note_on_c, 9, 34, 127
9, 50769, Note_on_c, 9, 34, 0
9, 51665, Note_on_c, 9, 34, 127
9, 51686, Note_on_c, 9, 34, 0
9, 51695, Note_on_c, 9, 34, 127
9, 51734, Note_on_c, 9, 34, 0
9, 52620, Note_on_c, 9, 34, 127
9, 52637, Note_on_c, 9, 34, 0
9, 52650, Note_on_c, 9, 34, 127
9, 52717, Note_on_c, 9, 34, 0
9, 53580, Note_on_c, 9, 34, 127
9, 53601, Note_on_c, 9, 34, 0
9, 53610, Note_on_c, 9, 34, 127
9, 53649, Note_on_c, 9, 34, 0
9, 54540, Note_on_c, 9, 34, 127
9, 54557, Note_on_c, 9, 34, 0
9, 54570, Note_on_c, 9, 34, 127
9, 54637, Note_on_c, 9, 34, 0
9, 55500, Note_on_c, 9, 34, 127
9, 55521, Note_on_c, 9, 34, 0
9, 55530, Note_on_c, 9, 34, 127
9, 55569, Note_on_c, 9, 34, 0
9, 56460, Note_on_c, 9, 34, 127
9, 56477, Note_on_c, 9, 34, 0
9, 56490, Note_on_c, 9, 34, 127
9, 56557, Note_on_c, 9, 34, 0
9, 57420, Note_on_c, 9, 34, 127
9, 57441, Note_on_c, 9, 34, 0
9, 57450, Note_on_c, 9, 34, 127
9, 57489, Note_on_c, 9, 34, 0
9, 58380, Note_on_c, 9, 34, 127
9, 58397, Note_on_c, 9, 34, 0
9, 58410, Note_on_c, 9, 34, 127
9, 58477, Note_on_c, 9, 34, 0
9, 59340, Note_on_c, 9, 34, 127
9, 59361, Note_on_c, 9, 34, 0
9, 59370, Note_on_c, 9, 34, 127
9, 59409, Note_on_c, 9, 34, 0
9, 60300, Note_on_c, 9, 34, 127
9, 60317, Note_on_c, 9, 34, 0
9, 60330, Note_on_c, 9, 34, 127
9, 60397, Note_on_c, 9, 34, 0
9, 61260, Note_on_c, 9, 34, 127
9, 61281, Note_on_c, 9, 34, 0
9, 61290, Note_on_c, 9, 34, 127
9, 61329, Note_on_c, 9, 34, 0
9, 62220, Note_on_c, 9, 34, 127
9, 62237, Note_on_c, 9, 34, 0
9, 62250, Note_on_c, 9, 34, 127
9, 62317, Note_on_c, 9, 34, 0
9, 63180, Note_on_c, 9, 34, 127
9, 63201, Note_on_c, 9, 34, 0
9, 63210, Note_on_c, 9, 34, 127
9, 63249, Note_on_c, 9, 34, 0
9, 63249, End_track
10, 0, Start_track
10, 0, MIDI_port, 0
10, 0, Title_t, "Up Upy"
10, 0, Control_c, 8, 91, 118
10, 162, Program_c, 8, 123
10, 163, Control_c, 8, 7, 46
10, 163, Control_c, 8, 10, 127
10, 21958, Note_on_c, 8, 56, 127
10, 21958, Note_on_c, 8, 64, 127
10, 21959, Note_on_c, 8, 76, 127
10, 21959, Note_on_c, 8, 71, 127
10, 21967, Note_on_c, 8, 71, 0
10, 21968, Note_on_c, 8, 76, 0
10, 21968, Note_on_c, 8, 64, 0
10, 21970, Note_on_c, 8, 56, 0
10, 22920, Note_on_c, 8, 56, 127
10, 22921, Note_on_c, 8, 64, 127
10, 22921, Note_on_c, 8, 76, 127
10, 22922, Note_on_c, 8, 71, 127
10, 22929, Note_on_c, 8, 64, 0
10, 22929, Note_on_c, 8, 56, 0
10, 22930, Note_on_c, 8, 76, 0
10, 22930, Note_on_c, 8, 71, 0
10, 23880, Note_on_c, 8, 56, 127
10, 23881, Note_on_c, 8, 76, 127
10, 23882, Note_on_c, 8, 64, 127
10, 23882, Note_on_c, 8, 71, 127
10, 23891, Note_on_c, 8, 71, 0
10, 23892, Note_on_c, 8, 64, 0
10, 23892, Note_on_c, 8, 56, 0
10, 23893, Note_on_c, 8, 76, 0
10, 24846, Note_on_c, 8, 56, 127
10, 24847, Note_on_c, 8, 64, 127
10, 24847, Note_on_c, 8, 76, 127
10, 24847, Note_on_c, 8, 71, 127
10, 24855, Note_on_c, 8, 71, 0
10, 24856, Note_on_c, 8, 56, 0
10, 24856, Note_on_c, 8, 64, 0
10, 24856, Note_on_c, 8, 76, 0
10, 37318, Note_on_c, 8, 56, 127
10, 37318, Note_on_c, 8, 64, 127
10, 37319, Note_on_c, 8, 76, 127
10, 37319, Note_on_c, 8, 71, 127
10, 37327, Note_on_c, 8, 71, 0
10, 37328, Note_on_c, 8, 76, 0
10, 37328, Note_on_c, 8, 64, 0
10, 37330, Note_on_c, 8, 56, 0
10, 38280, Note_on_c, 8, 56, 127
10, 38281, Note_on_c, 8, 64, 127
10, 38281, Note_on_c, 8, 76, 127
10, 38282, Note_on_c, 8, 71, 127
10, 38289, Note_on_c, 8, 64, 0
10, 38289, Note_on_c, 8, 56, 0
10, 38290, Note_on_c, 8, 76, 0
10, 38290, Note_on_c, 8, 71, 0
10, 39240, Note_on_c, 8, 56, 127
10, 39241, Note_on_c, 8, 76, 127
10, 39242, Note_on_c, 8, 64, 127
10, 39242, Note_on_c, 8, 71, 127
10, 39251, Note_on_c, 8, 71, 0
10, 39252, Note_on_c, 8, 64, 0
10, 39252, Note_on_c, 8, 56, 0
10, 39253, Note_on_c, 8, 76, 0
10, 40206, Note_on_c, 8, 56, 127
10, 40207, Note_on_c, 8, 64, 127
10, 40207, Note_on_c, 8, 76, 127
10, 40207, Note_on_c, 8, 71, 127
10, 40215, Note_on_c, 8, 71, 0
10, 40216, Note_on_c, 8, 56, 0
10, 40216, Note_on_c, 8, 64, 0
10, 40216, Note_on_c, 8, 76, 0
10, 41158, Note_on_c, 8, 56, 127
10, 41158, Note_on_c, 8, 64, 127
10, 41159, Note_on_c, 8, 76, 127
10, 41159, Note_on_c, 8, 71, 127
10, 41167, Note_on_c, 8, 71, 0
10, 41168, Note_on_c, 8, 76, 0
10, 41168, Note_on_c, 8, 64, 0
10, 41170, Note_on_c, 8, 56, 0
10, 42120, Note_on_c, 8, 56, 127
10, 42121, Note_on_c, 8, 64, 127
10, 42121, Note_on_c, 8, 76, 127
10, 42122, Note_on_c, 8, 71, 127
10, 42129, Note_on_c, 8, 64, 0
10, 42129, Note_on_c, 8, 56, 0
10, 42130, Note_on_c, 8, 76, 0
10, 42130, Note_on_c, 8, 71, 0
10, 43080, Note_on_c, 8, 56, 127
10, 43081, Note_on_c, 8, 76, 127
10, 43082, Note_on_c, 8, 64, 127
10, 43082, Note_on_c, 8, 71, 127
10, 43091, Note_on_c, 8, 71, 0
10, 43092, Note_on_c, 8, 64, 0
10, 43092, Note_on_c, 8, 56, 0
10, 43093, Note_on_c, 8, 76, 0
10, 44046, Note_on_c, 8, 56, 127
10, 44047, Note_on_c, 8, 64, 127
10, 44047, Note_on_c, 8, 76, 127
10, 44047, Note_on_c, 8, 71, 127
10, 44055, Note_on_c, 8, 71, 0
10, 44056, Note_on_c, 8, 56, 0
10, 44056, Note_on_c, 8, 64, 0
10, 44056, Note_on_c, 8, 76, 0
10, 44998, Note_on_c, 8, 56, 127
10, 44998, Note_on_c, 8, 64, 127
10, 44999, Note_on_c, 8, 76, 127
10, 44999, Note_on_c, 8, 71, 127
10, 45007, Note_on_c, 8, 71, 0
10, 45008, Note_on_c, 8, 76, 0
10, 45008, Note_on_c, 8, 64, 0
10, 45010, Note_on_c, 8, 56, 0
10, 45960, Note_on_c, 8, 56, 127
10, 45961, Note_on_c, 8, 64, 127
10, 45961, Note_on_c, 8, 76, 127
10, 45962, Note_on_c, 8, 71, 127
10, 45969, Note_on_c, 8, 64, 0
10, 45969, Note_on_c, 8, 56, 0
10, 45970, Note_on_c, 8, 76, 0
10, 45970, Note_on_c, 8, 71, 0
10, 46920, Note_on_c, 8, 56, 127
10, 46921, Note_on_c, 8, 76, 127
10, 46922, Note_on_c, 8, 64, 127
10, 46922, Note_on_c, 8, 71, 127
10, 46931, Note_on_c, 8, 71, 0
10, 46932, Note_on_c, 8, 64, 0
10, 46932, Note_on_c, 8, 56, 0
10, 46933, Note_on_c, 8, 76, 0
10, 47886, Note_on_c, 8, 56, 127
10, 47887, Note_on_c, 8, 64, 127
10, 47887, Note_on_c, 8, 76, 127
10, 47887, Note_on_c, 8, 71, 127
10, 47895, Note_on_c, 8, 71, 0
10, 47896, Note_on_c, 8, 56, 0
10, 47896, Note_on_c, 8, 64, 0
10, 47896, Note_on_c, 8, 76, 0
10, 48838, Note_on_c, 8, 56, 127
10, 48838, Note_on_c, 8, 64, 127
10, 48839, Note_on_c, 8, 76, 127
10, 48839, Note_on_c, 8, 71, 127
10, 48847, Note_on_c, 8, 71, 0
10, 48848, Note_on_c, 8, 76, 0
10, 48848, Note_on_c, 8, 64, 0
10, 48850, Note_on_c, 8, 56, 0
10, 49800, Note_on_c, 8, 56, 127
10, 49801, Note_on_c, 8, 64, 127
10, 49801, Note_on_c, 8, 76, 127
10, 49802, Note_on_c, 8, 71, 127
10, 49809, Note_on_c, 8, 64, 0
10, 49809, Note_on_c, 8, 56, 0
10, 49810, Note_on_c, 8, 76, 0
10, 49810, Note_on_c, 8, 71, 0
10, 50760, Note_on_c, 8, 56, 127
10, 50761, Note_on_c, 8, 76, 127
10, 50762, Note_on_c, 8, 64, 127
10, 50762, Note_on_c, 8, 71, 127
10, 50771, Note_on_c, 8, 71, 0
10, 50772, Note_on_c, 8, 64, 0
10, 50772, Note_on_c, 8, 56, 0
10, 50773, Note_on_c, 8, 76, 0
10, 51726, Note_on_c, 8, 56, 127
10, 51727, Note_on_c, 8, 64, 127
10, 51727, Note_on_c, 8, 76, 127
10, 51727, Note_on_c, 8, 71, 127
10, 51735, Note_on_c, 8, 71, 0
10, 51736, Note_on_c, 8, 56, 0
10, 51736, Note_on_c, 8, 64, 0
10, 51736, Note_on_c, 8, 76, 0
10, 52678, Note_on_c, 8, 56, 127
10, 52678, Note_on_c, 8, 64, 127
10, 52679, Note_on_c, 8, 76, 127
10, 52679, Note_on_c, 8, 71, 127
10, 52687, Note_on_c, 8, 71, 0
10, 52688, Note_on_c, 8, 76, 0
10, 52688, Note_on_c, 8, 64, 0
10, 52690, Note_on_c, 8, 56, 0
10, 53640, Note_on_c, 8, 56, 127
10, 53641, Note_on_c, 8, 64, 127
10, 53641, Note_on_c, 8, 76, 127
10, 53642, Note_on_c, 8, 71, 127
10, 53649, Note_on_c, 8, 64, 0
10, 53649, Note_on_c, 8, 56, 0
10, 53650, Note_on_c, 8, 76, 0
10, 53650, Note_on_c, 8, 71, 0
10, 54598, Note_on_c, 8, 56, 127
10, 54598, Note_on_c, 8, 64, 127
10, 54599, Note_on_c, 8, 76, 127
10, 54599, Note_on_c, 8, 71, 127
10, 54607, Note_on_c, 8, 71, 0
10, 54608, Note_on_c, 8, 76, 0
10, 54608, Note_on_c, 8, 64, 0
10, 54610, Note_on_c, 8, 56, 0
10, 55560, Note_on_c, 8, 56, 127
10, 55561, Note_on_c, 8, 64, 127
10, 55561, Note_on_c, 8, 76, 127
10, 55562, Note_on_c, 8, 71, 127
10, 55569, Note_on_c, 8, 64, 0
10, 55569, Note_on_c, 8, 56, 0
10, 55570, Note_on_c, 8, 76, 0
10, 55570, Note_on_c, 8, 71, 0
10, 56518, Note_on_c, 8, 56, 127
10, 56518, Note_on_c, 8, 64, 127
10, 56519, Note_on_c, 8, 76, 127
10, 56519, Note_on_c, 8, 71, 127
10, 56527, Note_on_c, 8, 71, 0
10, 56528, Note_on_c, 8, 76, 0
10, 56528, Note_on_c, 8, 64, 0
10, 56530, Note_on_c, 8, 56, 0
10, 57480, Note_on_c, 8, 56, 127
10, 57481, Note_on_c, 8, 64, 127
10, 57481, Note_on_c, 8, 76, 127
10, 57482, Note_on_c, 8, 71, 127
10, 57489, Note_on_c, 8, 64, 0
10, 57489, Note_on_c, 8, 56, 0
10, 57490, Note_on_c, 8, 76, 0
10, 57490, Note_on_c, 8, 71, 0
10, 58438, Note_on_c, 8, 56, 127
10, 58438, Note_on_c, 8, 64, 127
10, 58439, Note_on_c, 8, 76, 127
10, 58439, Note_on_c, 8, 71, 127
10, 58447, Note_on_c, 8, 71, 0
10, 58448, Note_on_c, 8, 76, 0
10, 58448, Note_on_c, 8, 64, 0
10, 58450, Note_on_c, 8, 56, 0
10, 59400, Note_on_c, 8, 56, 127
10, 59401, Note_on_c, 8, 64, 127
10, 59401, Note_on_c, 8, 76, 127
10, 59402, Note_on_c, 8, 71, 127
10, 59409, Note_on_c, 8, 64, 0
10, 59409, Note_on_c, 8, 56, 0
10, 59410, Note_on_c, 8, 76, 0
10, 59410, Note_on_c, 8, 71, 0
10, 60358, Note_on_c, 8, 56, 127
10, 60358, Note_on_c, 8, 64, 127
10, 60359, Note_on_c, 8, 76, 127
10, 60359, Note_on_c, 8, 71, 127
10, 60367, Note_on_c, 8, 71, 0
10, 60368, Note_on_c, 8, 76, 0
10, 60368, Note_on_c, 8, 64, 0
10, 60370, Note_on_c, 8, 56, 0
10, 61320, Note_on_c, 8, 56, 127
10, 61321, Note_on_c, 8, 64, 127
10, 61321, Note_on_c, 8, 76, 127
10, 61322, Note_on_c, 8, 71, 127
10, 61329, Note_on_c, 8, 64, 0
10, 61329, Note_on_c, 8, 56, 0
10, 61330, Note_on_c, 8, 76, 0
10, 61330, Note_on_c, 8, 71, 0
10, 62278, Note_on_c, 8, 56, 127
10, 62278, Note_on_c, 8, 64, 127
10, 62279, Note_on_c, 8, 76, 127
10, 62279, Note_on_c, 8, 71, 127
10, 62287, Note_on_c, 8, 71, 0
10, 62288, Note_on_c, 8, 76, 0
10, 62288, Note_on_c, 8, 64, 0
10, 62290, Note_on_c, 8, 56, 0
10, 63240, Note_on_c, 8, 56, 127
10, 63241, Note_on_c, 8, 64, 127
10, 63241, Note_on_c, 8, 76, 127
10, 63242, Note_on_c, 8, 71, 127
10, 63249, Note_on_c, 8, 64, 0
10, 63249, Note_on_c, 8, 56, 0
10, 63250, Note_on_c, 8, 76, 0
10, 63250, Note_on_c, 8, 71, 0
10, 63250, End_track
11, 0, Start_track
11, 0, MIDI_port, 0
11, 0, Title_t, "Drums & Percussion"
11, 0, Control_c, 9, 91, 54
11, 168, Control_c, 9, 7, 118
11, 168, Control_c, 9, 10, 64
11, 480, Note_on_c, 9, 37, 127
11, 480, Note_on_c, 9, 42, 127
11, 493, Note_on_c, 9, 37, 0
11, 494, Note_on_c, 9, 42, 0
11, 510, Note_on_c, 9, 37, 127
11, 510, Note_on_c, 9, 42, 127
11, 522, Note_on_c, 9, 42, 0
11, 523, Note_on_c, 9, 37, 0
11, 540, Note_on_c, 9, 37, 127
11, 540, Note_on_c, 9, 42, 127
11, 552, Note_on_c, 9, 42, 0
11, 554, Note_on_c, 9, 37, 0
11, 570, Note_on_c, 9, 37, 127
11, 570, Note_on_c, 9, 42, 127
11, 584, Note_on_c, 9, 42, 0
11, 584, Note_on_c, 9, 37, 0
11, 600, Note_on_c, 9, 37, 127
11, 600, Note_on_c, 9, 42, 127
11, 615, Note_on_c, 9, 42, 0
11, 617, Note_on_c, 9, 37, 0
11, 660, Note_on_c, 9, 37, 127
11, 660, Note_on_c, 9, 42, 127
11, 673, Note_on_c, 9, 37, 0
11, 675, Note_on_c, 9, 42, 0
11, 690, Note_on_c, 9, 37, 127
11, 690, Note_on_c, 9, 42, 127
11, 703, Note_on_c, 9, 42, 0
11, 703, Note_on_c, 9, 37, 0
11, 720, Note_on_c, 9, 37, 127
11, 720, Note_on_c, 9, 42, 127
11, 735, Note_on_c, 9, 42, 0
11, 737, Note_on_c, 9, 37, 0
11, 780, Note_on_c, 9, 37, 127
11, 780, Note_on_c, 9, 42, 127
11, 795, Note_on_c, 9, 42, 0
11, 796, Note_on_c, 9, 37, 0
11, 840, Note_on_c, 9, 37, 127
11, 840, Note_on_c, 9, 42, 127
11, 853, Note_on_c, 9, 42, 0
11, 853, Note_on_c, 9, 37, 0
11, 870, Note_on_c, 9, 37, 127
11, 870, Note_on_c, 9, 42, 127
11, 880, Note_on_c, 9, 42, 0
11, 885, Note_on_c, 9, 37, 0
11, 961, Note_on_c, 9, 37, 127
11, 961, Note_on_c, 9, 42, 127
11, 974, Note_on_c, 9, 37, 0
11, 975, Note_on_c, 9, 42, 0
11, 991, Note_on_c, 9, 37, 127
11, 991, Note_on_c, 9, 42, 127
11, 1003, Note_on_c, 9, 42, 0
11, 1004, Note_on_c, 9, 37, 0
11, 1021, Note_on_c, 9, 37, 127
11, 1021, Note_on_c, 9, 42, 127
11, 1033, Note_on_c, 9, 42, 0
11, 1035, Note_on_c, 9, 37, 0
11, 1051, Note_on_c, 9, 37, 127
11, 1051, Note_on_c, 9, 42, 127
11, 1065, Note_on_c, 9, 42, 0
11, 1065, Note_on_c, 9, 37, 0
11, 1081, Note_on_c, 9, 37, 127
11, 1081, Note_on_c, 9, 42, 127
11, 1096, Note_on_c, 9, 42, 0
11, 1098, Note_on_c, 9, 37, 0
11, 1141, Note_on_c, 9, 37, 127
11, 1141, Note_on_c, 9, 42, 127
11, 1154, Note_on_c, 9, 37, 0
11, 1156, Note_on_c, 9, 42, 0
11, 1171, Note_on_c, 9, 37, 127
11, 1171, Note_on_c, 9, 42, 127
11, 1184, Note_on_c, 9, 42, 0
11, 1184, Note_on_c, 9, 37, 0
11, 1201, Note_on_c, 9, 37, 127
11, 1201, Note_on_c, 9, 42, 127
11, 1216, Note_on_c, 9, 42, 0
11, 1218, Note_on_c, 9, 37, 0
11, 1261, Note_on_c, 9, 37, 127
11, 1261, Note_on_c, 9, 42, 127
11, 1276, Note_on_c, 9, 42, 0
11, 1277, Note_on_c, 9, 37, 0
11, 1321, Note_on_c, 9, 37, 127
11, 1321, Note_on_c, 9, 42, 127
11, 1334, Note_on_c, 9, 42, 0
11, 1334, Note_on_c, 9, 37, 0
11, 1351, Note_on_c, 9, 37, 127
11, 1351, Note_on_c, 9, 42, 127
11, 1361, Note_on_c, 9, 42, 0
11, 1366, Note_on_c, 9, 37, 0
11, 1441, Note_on_c, 9, 42, 127
11, 1441, Note_on_c, 9, 37, 127
11, 1454, Note_on_c, 9, 37, 0
11, 1455, Note_on_c, 9, 42, 0
11, 1471, Note_on_c, 9, 42, 127
11, 1471, Note_on_c, 9, 37, 127
11, 1483, Note_on_c, 9, 42, 0
11, 1484, Note_on_c, 9, 37, 0
11, 1501, Note_on_c, 9, 42, 127
11, 1501, Note_on_c, 9, 37, 127
11, 1513, Note_on_c, 9, 42, 0
11, 1515, Note_on_c, 9, 37, 0
11, 1531, Note_on_c, 9, 42, 127
11, 1531, Note_on_c, 9, 37, 127
11, 1545, Note_on_c, 9, 37, 0
11, 1545, Note_on_c, 9, 42, 0
11, 1561, Note_on_c, 9, 42, 127
11, 1561, Note_on_c, 9, 37, 127
11, 1576, Note_on_c, 9, 42, 0
11, 1578, Note_on_c, 9, 37, 0
11, 1621, Note_on_c, 9, 42, 127
11, 1621, Note_on_c, 9, 37, 127
11, 1634, Note_on_c, 9, 37, 0
11, 1636, Note_on_c, 9, 42, 0
11, 1651, Note_on_c, 9, 42, 127
11, 1651, Note_on_c, 9, 37, 127
11, 1664, Note_on_c, 9, 37, 0
11, 1664, Note_on_c, 9, 42, 0
11, 1681, Note_on_c, 9, 42, 127
11, 1681, Note_on_c, 9, 37, 127
11, 1696, Note_on_c, 9, 42, 0
11, 1698, Note_on_c, 9, 37, 0
11, 1741, Note_on_c, 9, 42, 127
11, 1741, Note_on_c, 9, 37, 127
11, 1756, Note_on_c, 9, 42, 0
11, 1757, Note_on_c, 9, 37, 0
11, 1801, Note_on_c, 9, 42, 127
11, 1801, Note_on_c, 9, 37, 127
11, 1814, Note_on_c, 9, 37, 0
11, 1814, Note_on_c, 9, 42, 0
11, 1831, Note_on_c, 9, 42, 127
11, 1831, Note_on_c, 9, 37, 127
11, 1841, Note_on_c, 9, 42, 0
11, 1846, Note_on_c, 9, 37, 0
11, 1922, Note_on_c, 9, 42, 127
11, 1922, Note_on_c, 9, 37, 127
11, 1935, Note_on_c, 9, 37, 0
11, 1936, Note_on_c, 9, 42, 0
11, 1952, Note_on_c, 9, 42, 127
11, 1952, Note_on_c, 9, 37, 127
11, 1964, Note_on_c, 9, 42, 0
11, 1965, Note_on_c, 9, 37, 0
11, 1982, Note_on_c, 9, 42, 127
11, 1982, Note_on_c, 9, 37, 127
11, 1994, Note_on_c, 9, 42, 0
11, 1996, Note_on_c, 9, 37, 0
11, 2012, Note_on_c, 9, 42, 127
11, 2012, Note_on_c, 9, 37, 127
11, 2026, Note_on_c, 9, 37, 0
11, 2026, Note_on_c, 9, 42, 0
11, 2042, Note_on_c, 9, 42, 127
11, 2042, Note_on_c, 9, 37, 127
11, 2057, Note_on_c, 9, 42, 0
11, 2059, Note_on_c, 9, 37, 0
11, 2102, Note_on_c, 9, 42, 127
11, 2102, Note_on_c, 9, 37, 127
11, 2115, Note_on_c, 9, 37, 0
11, 2117, Note_on_c, 9, 42, 0
11, 2132, Note_on_c, 9, 42, 127
11, 2132, Note_on_c, 9, 37, 127
11, 2145, Note_on_c, 9, 37, 0
11, 2145, Note_on_c, 9, 42, 0
11, 2162, Note_on_c, 9, 42, 127
11, 2162, Note_on_c, 9, 37, 127
11, 2177, Note_on_c, 9, 42, 0
11, 2179, Note_on_c, 9, 37, 0
11, 2222, Note_on_c, 9, 42, 127
11, 2222, Note_on_c, 9, 37, 127
11, 2237, Note_on_c, 9, 42, 0
11, 2238, Note_on_c, 9, 37, 0
11, 2282, Note_on_c, 9, 42, 127
11, 2282, Note_on_c, 9, 37, 127
11, 2295, Note_on_c, 9, 37, 0
11, 2295, Note_on_c, 9, 42, 0
11, 2312, Note_on_c, 9, 42, 127
11, 2312, Note_on_c, 9, 37, 127
11, 2322, Note_on_c, 9, 42, 0
11, 2327, Note_on_c, 9, 37, 0
11, 2405, Note_on_c, 9, 42, 127
11, 2405, Note_on_c, 9, 37, 127
11, 2418, Note_on_c, 9, 37, 0
11, 2419, Note_on_c, 9, 42, 0
11, 2435, Note_on_c, 9, 42, 127
11, 2435, Note_on_c, 9, 37, 127
11, 2447, Note_on_c, 9, 42, 0
11, 2448, Note_on_c, 9, 37, 0
11, 2465, Note_on_c, 9, 42, 127
11, 2465, Note_on_c, 9, 37, 127
11, 2477, Note_on_c, 9, 42, 0
11, 2479, Note_on_c, 9, 37, 0
11, 2495, Note_on_c, 9, 42, 127
11, 2495, Note_on_c, 9, 37, 127
11, 2509, Note_on_c, 9, 37, 0
11, 2509, Note_on_c, 9, 42, 0
11, 2525, Note_on_c, 9, 42, 127
11, 2525, Note_on_c, 9, 37, 127
11, 2540, Note_on_c, 9, 42, 0
11, 2542, Note_on_c, 9, 37, 0
11, 2585, Note_on_c, 9, 42, 127
11, 2585, Note_on_c, 9, 37, 127
11, 2598, Note_on_c, 9, 37, 0
11, 2600, Note_on_c, 9, 42, 0
11, 2615, Note_on_c, 9, 42, 127
11, 2615, Note_on_c, 9, 37, 127
11, 2628, Note_on_c, 9, 37, 0
11, 2628, Note_on_c, 9, 42, 0
11, 2645, Note_on_c, 9, 42, 127
11, 2645, Note_on_c, 9, 37, 127
11, 2660, Note_on_c, 9, 42, 0
11, 2662, Note_on_c, 9, 37, 0
11, 2705, Note_on_c, 9, 42, 127
11, 2705, Note_on_c, 9, 37, 127
11, 2720, Note_on_c, 9, 42, 0
11, 2721, Note_on_c, 9, 37, 0
11, 2765, Note_on_c, 9, 42, 127
11, 2765, Note_on_c, 9, 37, 127
11, 2778, Note_on_c, 9, 37, 0
11, 2778, Note_on_c, 9, 42, 0
11, 2795, Note_on_c, 9, 42, 127
11, 2795, Note_on_c, 9, 37, 127
11, 2805, Note_on_c, 9, 42, 0
11, 2810, Note_on_c, 9, 37, 0
11, 2881, Note_on_c, 9, 37, 127
11, 2881, Note_on_c, 9, 42, 127
11, 2894, Note_on_c, 9, 37, 0
11, 2895, Note_on_c, 9, 42, 0
11, 2911, Note_on_c, 9, 37, 127
11, 2911, Note_on_c, 9, 42, 127
11, 2923, Note_on_c, 9, 42, 0
11, 2924, Note_on_c, 9, 37, 0
11, 2941, Note_on_c, 9, 37, 127
11, 2941, Note_on_c, 9, 42, 127
11, 2953, Note_on_c, 9, 42, 0
11, 2955, Note_on_c, 9, 37, 0
11, 2971, Note_on_c, 9, 37, 127
11, 2971, Note_on_c, 9, 42, 127
11, 2985, Note_on_c, 9, 42, 0
11, 2985, Note_on_c, 9, 37, 0
11, 3001, Note_on_c, 9, 37, 127
11, 3001, Note_on_c, 9, 42, 127
11, 3016, Note_on_c, 9, 42, 0
11, 3018, Note_on_c, 9, 37, 0
11, 3061, Note_on_c, 9, 37, 127
11, 3061, Note_on_c, 9, 42, 127
11, 3074, Note_on_c, 9, 37, 0
11, 3076, Note_on_c, 9, 42, 0
11, 3091, Note_on_c, 9, 37, 127
11, 3091, Note_on_c, 9, 42, 127
11, 3104, Note_on_c, 9, 42, 0
11, 3104, Note_on_c, 9, 37, 0
11, 3121, Note_on_c, 9, 37, 127
11, 3121, Note_on_c, 9, 42, 127
11, 3136, Note_on_c, 9, 42, 0
11, 3138, Note_on_c, 9, 37, 0
11, 3181, Note_on_c, 9, 37, 127
11, 3181, Note_on_c, 9, 42, 127
11, 3196, Note_on_c, 9, 42, 0
11, 3197, Note_on_c, 9, 37, 0
11, 3241, Note_on_c, 9, 37, 127
11, 3241, Note_on_c, 9, 42, 127
11, 3254, Note_on_c, 9, 42, 0
11, 3254, Note_on_c, 9, 37, 0
11, 3271, Note_on_c, 9, 37, 127
11, 3271, Note_on_c, 9, 42, 127
11, 3281, Note_on_c, 9, 42, 0
11, 3286, Note_on_c, 9, 37, 0
11, 3361, Note_on_c, 9, 37, 127
11, 3361, Note_on_c, 9, 42, 127
11, 3374, Note_on_c, 9, 37, 0
11, 3375, Note_on_c, 9, 42, 0
11, 3391, Note_on_c, 9, 37, 127
11, 3391, Note_on_c, 9, 42, 127
11, 3403, Note_on_c, 9, 42, 0
11, 3404, Note_on_c, 9, 37, 0
11, 3421, Note_on_c, 9, 37, 127
11, 3421, Note_on_c, 9, 42, 127
11, 3433, Note_on_c, 9, 42, 0
11, 3435, Note_on_c, 9, 37, 0
11, 3451, Note_on_c, 9, 37, 127
11, 3451, Note_on_c, 9, 42, 127
11, 3465, Note_on_c, 9, 42, 0
11, 3465, Note_on_c, 9, 37, 0
11, 3481, Note_on_c, 9, 37, 127
11, 3481, Note_on_c, 9, 42, 127
11, 3496, Note_on_c, 9, 42, 0
11, 3498, Note_on_c, 9, 37, 0
11, 3541, Note_on_c, 9, 37, 127
11, 3541, Note_on_c, 9, 42, 127
11, 3554, Note_on_c, 9, 37, 0
11, 3556, Note_on_c, 9, 42, 0
11, 3571, Note_on_c, 9, 37, 127
11, 3571, Note_on_c, 9, 42, 127
11, 3584, Note_on_c, 9, 42, 0
11, 3584, Note_on_c, 9, 37, 0
11, 3601, Note_on_c, 9, 37, 127
11, 3601, Note_on_c, 9, 42, 127
11, 3616, Note_on_c, 9, 42, 0
11, 3618, Note_on_c, 9, 37, 0
11, 3661, Note_on_c, 9, 37, 127
11, 3661, Note_on_c, 9, 42, 127
11, 3676, Note_on_c, 9, 42, 0
11, 3677, Note_on_c, 9, 37, 0
11, 3721, Note_on_c, 9, 37, 127
11, 3721, Note_on_c, 9, 42, 127
11, 3734, Note_on_c, 9, 42, 0
11, 3734, Note_on_c, 9, 37, 0
11, 3751, Note_on_c, 9, 37, 127
11, 3751, Note_on_c, 9, 42, 127
11, 3761, Note_on_c, 9, 42, 0
11, 3766, Note_on_c, 9, 37, 0
11, 3842, Note_on_c, 9, 42, 127
11, 3842, Note_on_c, 9, 37, 127
11, 3855, Note_on_c, 9, 37, 0
11, 3856, Note_on_c, 9, 42, 0
11, 3872, Note_on_c, 9, 42, 127
11, 3872, Note_on_c, 9, 37, 127
11, 3884, Note_on_c, 9, 42, 0
11, 3885, Note_on_c, 9, 37, 0
11, 3902, Note_on_c, 9, 42, 127
11, 3902, Note_on_c, 9, 37, 127
11, 3914, Note_on_c, 9, 42, 0
11, 3916, Note_on_c, 9, 37, 0
11, 3932, Note_on_c, 9, 42, 127
11, 3932, Note_on_c, 9, 37, 127
11, 3946, Note_on_c, 9, 37, 0
11, 3946, Note_on_c, 9, 42, 0
11, 3962, Note_on_c, 9, 42, 127
11, 3962, Note_on_c, 9, 37, 127
11, 3977, Note_on_c, 9, 42, 0
11, 3979, Note_on_c, 9, 37, 0
11, 4022, Note_on_c, 9, 42, 127
11, 4022, Note_on_c, 9, 37, 127
11, 4035, Note_on_c, 9, 37, 0
11, 4037, Note_on_c, 9, 42, 0
11, 4052, Note_on_c, 9, 42, 127
11, 4052, Note_on_c, 9, 37, 127
11, 4065, Note_on_c, 9, 37, 0
11, 4065, Note_on_c, 9, 42, 0
11, 4082, Note_on_c, 9, 42, 127
11, 4082, Note_on_c, 9, 37, 127
11, 4097, Note_on_c, 9, 42, 0
11, 4099, Note_on_c, 9, 37, 0
11, 4142, Note_on_c, 9, 42, 127
11, 4142, Note_on_c, 9, 37, 127
11, 4157, Note_on_c, 9, 42, 0
11, 4158, Note_on_c, 9, 37, 0
11, 4202, Note_on_c, 9, 42, 127
11, 4202, Note_on_c, 9, 37, 127
11, 4215, Note_on_c, 9, 37, 0
11, 4215, Note_on_c, 9, 42, 0
11, 4232, Note_on_c, 9, 42, 127
11, 4232, Note_on_c, 9, 37, 127
11, 4242, Note_on_c, 9, 42, 0
11, 4247, Note_on_c, 9, 37, 0
11, 4322, Note_on_c, 9, 42, 127
11, 4322, Note_on_c, 9, 37, 127
11, 4335, Note_on_c, 9, 37, 0
11, 4336, Note_on_c, 9, 42, 0
11, 4352, Note_on_c, 9, 42, 127
11, 4352, Note_on_c, 9, 37, 127
11, 4364, Note_on_c, 9, 42, 0
11, 4365, Note_on_c, 9, 37, 0
11, 4382, Note_on_c, 9, 42, 127
11, 4382, Note_on_c, 9, 37, 127
11, 4394, Note_on_c, 9, 42, 0
11, 4396, Note_on_c, 9, 37, 0
11, 4412, Note_on_c, 9, 42, 127
11, 4412, Note_on_c, 9, 37, 127
11, 4426, Note_on_c, 9, 37, 0
11, 4426, Note_on_c, 9, 42, 0
11, 4442, Note_on_c, 9, 42, 127
11, 4442, Note_on_c, 9, 37, 127
11, 4457, Note_on_c, 9, 42, 0
11, 4459, Note_on_c, 9, 37, 0
11, 4502, Note_on_c, 9, 42, 127
11, 4502, Note_on_c, 9, 37, 127
11, 4515, Note_on_c, 9, 37, 0
11, 4517, Note_on_c, 9, 42, 0
11, 4532, Note_on_c, 9, 42, 127
11, 4532, Note_on_c, 9, 37, 127
11, 4545, Note_on_c, 9, 37, 0
11, 4545, Note_on_c, 9, 42, 0
11, 4562, Note_on_c, 9, 42, 127
11, 4562, Note_on_c, 9, 37, 127
11, 4577, Note_on_c, 9, 42, 0
11, 4579, Note_on_c, 9, 37, 0
11, 4622, Note_on_c, 9, 42, 127
11, 4622, Note_on_c, 9, 37, 127
11, 4637, Note_on_c, 9, 42, 0
11, 4638, Note_on_c, 9, 37, 0
11, 4682, Note_on_c, 9, 42, 127
11, 4682, Note_on_c, 9, 37, 127
11, 4695, Note_on_c, 9, 37, 0
11, 4695, Note_on_c, 9, 42, 0
11, 4712, Note_on_c, 9, 42, 127
11, 4712, Note_on_c, 9, 37, 127
11, 4722, Note_on_c, 9, 42, 0
11, 4727, Note_on_c, 9, 37, 0
11, 4802, Note_on_c, 9, 42, 127
11, 4802, Note_on_c, 9, 37, 127
11, 4815, Note_on_c, 9, 37, 0
11, 4816, Note_on_c, 9, 42, 0
11, 4832, Note_on_c, 9, 42, 127
11, 4832, Note_on_c, 9, 37, 127
11, 4844, Note_on_c, 9, 42, 0
11, 4845, Note_on_c, 9, 37, 0
11, 4862, Note_on_c, 9, 42, 127
11, 4862, Note_on_c, 9, 37, 127
11, 4874, Note_on_c, 9, 42, 0
11, 4876, Note_on_c, 9, 37, 0
11, 4892, Note_on_c, 9, 42, 127
11, 4892, Note_on_c, 9, 37, 127
11, 4906, Note_on_c, 9, 37, 0
11, 4906, Note_on_c, 9, 42, 0
11, 4922, Note_on_c, 9, 42, 127
11, 4922, Note_on_c, 9, 37, 127
11, 4937, Note_on_c, 9, 42, 0
11, 4939, Note_on_c, 9, 37, 0
11, 4982, Note_on_c, 9, 42, 127
11, 4982, Note_on_c, 9, 37, 127
11, 4995, Note_on_c, 9, 37, 0
11, 4997, Note_on_c, 9, 42, 0
11, 5012, Note_on_c, 9, 42, 127
11, 5012, Note_on_c, 9, 37, 127
11, 5025, Note_on_c, 9, 37, 0
11, 5025, Note_on_c, 9, 42, 0
11, 5042, Note_on_c, 9, 42, 127
11, 5042, Note_on_c, 9, 37, 127
11, 5057, Note_on_c, 9, 42, 0
11, 5059, Note_on_c, 9, 37, 0
11, 5102, Note_on_c, 9, 42, 127
11, 5102, Note_on_c, 9, 37, 127
11, 5117, Note_on_c, 9, 42, 0
11, 5118, Note_on_c, 9, 37, 0
11, 5162, Note_on_c, 9, 42, 127
11, 5162, Note_on_c, 9, 37, 127
11, 5175, Note_on_c, 9, 37, 0
11, 5175, Note_on_c, 9, 42, 0
11, 5192, Note_on_c, 9, 42, 127
11, 5192, Note_on_c, 9, 37, 127
11, 5202, Note_on_c, 9, 42, 0
11, 5207, Note_on_c, 9, 37, 0
11, 5282, Note_on_c, 9, 37, 127
11, 5282, Note_on_c, 9, 42, 127
11, 5295, Note_on_c, 9, 37, 0
11, 5296, Note_on_c, 9, 42, 0
11, 5312, Note_on_c, 9, 37, 127
11, 5312, Note_on_c, 9, 42, 127
11, 5324, Note_on_c, 9, 42, 0
11, 5325, Note_on_c, 9, 37, 0
11, 5342, Note_on_c, 9, 37, 127
11, 5342, Note_on_c, 9, 42, 127
11, 5354, Note_on_c, 9, 42, 0
11, 5356, Note_on_c, 9, 37, 0
11, 5372, Note_on_c, 9, 37, 127
11, 5372, Note_on_c, 9, 42, 127
11, 5386, Note_on_c, 9, 42, 0
11, 5386, Note_on_c, 9, 37, 0
11, 5402, Note_on_c, 9, 37, 127
11, 5402, Note_on_c, 9, 42, 127
11, 5417, Note_on_c, 9, 42, 0
11, 5419, Note_on_c, 9, 37, 0
11, 5462, Note_on_c, 9, 37, 127
11, 5462, Note_on_c, 9, 42, 127
11, 5475, Note_on_c, 9, 37, 0
11, 5477, Note_on_c, 9, 42, 0
11, 5492, Note_on_c, 9, 37, 127
11, 5492, Note_on_c, 9, 42, 127
11, 5505, Note_on_c, 9, 42, 0
11, 5505, Note_on_c, 9, 37, 0
11, 5522, Note_on_c, 9, 37, 127
11, 5522, Note_on_c, 9, 42, 127
11, 5537, Note_on_c, 9, 42, 0
11, 5539, Note_on_c, 9, 37, 0
11, 5582, Note_on_c, 9, 37, 127
11, 5582, Note_on_c, 9, 42, 127
11, 5597, Note_on_c, 9, 42, 0
11, 5598, Note_on_c, 9, 37, 0
11, 5642, Note_on_c, 9, 37, 127
11, 5642, Note_on_c, 9, 42, 127
11, 5655, Note_on_c, 9, 42, 0
11, 5655, Note_on_c, 9, 37, 0
11, 5672, Note_on_c, 9, 37, 127
11, 5672, Note_on_c, 9, 42, 127
11, 5682, Note_on_c, 9, 42, 0
11, 5687, Note_on_c, 9, 37, 0
11, 5762, Note_on_c, 9, 37, 127
11, 5762, Note_on_c, 9, 42, 127
11, 5775, Note_on_c, 9, 37, 0
11, 5776, Note_on_c, 9, 42, 0
11, 5792, Note_on_c, 9, 37, 127
11, 5792, Note_on_c, 9, 42, 127
11, 5804, Note_on_c, 9, 42, 0
11, 5805, Note_on_c, 9, 37, 0
11, 5822, Note_on_c, 9, 37, 127
11, 5822, Note_on_c, 9, 42, 127
11, 5834, Note_on_c, 9, 42, 0
11, 5836, Note_on_c, 9, 37, 0
11, 5852, Note_on_c, 9, 37, 127
11, 5852, Note_on_c, 9, 42, 127
11, 5866, Note_on_c, 9, 42, 0
11, 5866, Note_on_c, 9, 37, 0
11, 5882, Note_on_c, 9, 37, 127
11, 5882, Note_on_c, 9, 42, 127
11, 5897, Note_on_c, 9, 42, 0
11, 5899, Note_on_c, 9, 37, 0
11, 5942, Note_on_c, 9, 37, 127
11, 5942, Note_on_c, 9, 42, 127
11, 5955, Note_on_c, 9, 37, 0
11, 5957, Note_on_c, 9, 42, 0
11, 5972, Note_on_c, 9, 37, 127
11, 5972, Note_on_c, 9, 42, 127
11, 5985, Note_on_c, 9, 42, 0
11, 5985, Note_on_c, 9, 37, 0
11, 6002, Note_on_c, 9, 37, 127
11, 6002, Note_on_c, 9, 42, 127
11, 6017, Note_on_c, 9, 42, 0
11, 6019, Note_on_c, 9, 37, 0
11, 6062, Note_on_c, 9, 37, 127
11, 6062, Note_on_c, 9, 42, 127
11, 6077, Note_on_c, 9, 42, 0
11, 6078, Note_on_c, 9, 37, 0
11, 6122, Note_on_c, 9, 37, 127
11, 6122, Note_on_c, 9, 42, 127
11, 6135, Note_on_c, 9, 42, 0
11, 6135, Note_on_c, 9, 37, 0
11, 6152, Note_on_c, 9, 37, 127
11, 6152, Note_on_c, 9, 42, 127
11, 6162, Note_on_c, 9, 42, 0
11, 6167, Note_on_c, 9, 37, 0
11, 6240, Note_on_c, 9, 62, 100
11, 6247, Note_on_c, 9, 37, 127
11, 6247, Note_on_c, 9, 42, 127
11, 6260, Note_on_c, 9, 37, 0
11, 6261, Note_on_c, 9, 42, 0
11, 6277, Note_on_c, 9, 37, 127
11, 6277, Note_on_c, 9, 36, 127
11, 6277, Note_on_c, 9, 42, 127
11, 6289, Note_on_c, 9, 42, 0
11, 6290, Note_on_c, 9, 37, 0
11, 6293, Note_on_c, 9, 36, 0
11, 6307, Note_on_c, 9, 37, 127
11, 6307, Note_on_c, 9, 42, 127
11, 6319, Note_on_c, 9, 42, 0
11, 6321, Note_on_c, 9, 37, 0
11, 6337, Note_on_c, 9, 37, 127
11, 6337, Note_on_c, 9, 42, 127
11, 6351, Note_on_c, 9, 42, 0
11, 6351, Note_on_c, 9, 37, 0
11, 6360, Note_on_c, 9, 62, 0
11, 6360, Note_on_c, 9, 62, 127
11, 6367, Note_on_c, 9, 37, 127
11, 6367, Note_on_c, 9, 42, 127
11, 6382, Note_on_c, 9, 42, 0
11, 6384, Note_on_c, 9, 37, 0
11, 6385, Note_on_c, 9, 62, 0
11, 6427, Note_on_c, 9, 37, 127
11, 6427, Note_on_c, 9, 42, 127
11, 6427, Note_on_c, 9, 36, 127
11, 6440, Note_on_c, 9, 37, 0
11, 6441, Note_on_c, 9, 36, 0
11, 6442, Note_on_c, 9, 42, 0
11, 6457, Note_on_c, 9, 37, 127
11, 6457, Note_on_c, 9, 42, 127
11, 6457, Note_on_c, 9, 36, 127
11, 6470, Note_on_c, 9, 42, 0
11, 6470, Note_on_c, 9, 37, 0
11, 6476, Note_on_c, 9, 36, 0
11, 6487, Note_on_c, 9, 37, 127
11, 6487, Note_on_c, 9, 42, 127
11, 6502, Note_on_c, 9, 42, 0
11, 6504, Note_on_c, 9, 37, 0
11, 6547, Note_on_c, 9, 37, 127
11, 6547, Note_on_c, 9, 36, 127
11, 6547, Note_on_c, 9, 42, 127
11, 6562, Note_on_c, 9, 42, 0
11, 6563, Note_on_c, 9, 37, 0
11, 6566, Note_on_c, 9, 36, 0
11, 6600, Note_on_c, 9, 62, 127
11, 6607, Note_on_c, 9, 37, 127
11, 6607, Note_on_c, 9, 42, 127
11, 6620, Note_on_c, 9, 42, 0
11, 6620, Note_on_c, 9, 37, 0
11, 6621, Note_on_c, 9, 62, 0
11, 6637, Note_on_c, 9, 37, 127
11, 6637, Note_on_c, 9, 42, 127
11, 6647, Note_on_c, 9, 42, 0
11, 6652, Note_on_c, 9, 37, 0
11, 6720, Note_on_c, 9, 62, 127
11, 6720, Note_on_c, 9, 42, 127
11, 6720, Note_on_c, 9, 37, 127
11, 6733, Note_on_c, 9, 37, 0
11, 6734, Note_on_c, 9, 42, 0
11, 6744, Note_on_c, 9, 62, 0
11, 6750, Note_on_c, 9, 42, 127
11, 6750, Note_on_c, 9, 37, 127
11, 6750, Note_on_c, 9, 36, 127
11, 6762, Note_on_c, 9, 42, 0
11, 6763, Note_on_c, 9, 37, 0
11, 6766, Note_on_c, 9, 36, 0
11, 6780, Note_on_c, 9, 42, 127
11, 6780, Note_on_c, 9, 37, 127
11, 6792, Note_on_c, 9, 42, 0
11, 6794, Note_on_c, 9, 37, 0
11, 6810, Note_on_c, 9, 42, 127
11, 6810, Note_on_c, 9, 37, 127
11, 6824, Note_on_c, 9, 37, 0
11, 6824, Note_on_c, 9, 42, 0
11, 6840, Note_on_c, 9, 62, 127
11, 6840, Note_on_c, 9, 42, 127
11, 6840, Note_on_c, 9, 37, 127
11, 6855, Note_on_c, 9, 42, 0
11, 6857, Note_on_c, 9, 37, 0
11, 6861, Note_on_c, 9, 62, 0
11, 6900, Note_on_c, 9, 42, 127
11, 6900, Note_on_c, 9, 37, 127
11, 6900, Note_on_c, 9, 36, 127
11, 6913, Note_on_c, 9, 37, 0
11, 6914, Note_on_c, 9, 36, 0
11, 6915, Note_on_c, 9, 42, 0
11, 6930, Note_on_c, 9, 42, 127
11, 6930, Note_on_c, 9, 37, 127
11, 6930, Note_on_c, 9, 36, 127
11, 6943, Note_on_c, 9, 37, 0
11, 6943, Note_on_c, 9, 42, 0
11, 6949, Note_on_c, 9, 36, 0
11, 6960, Note_on_c, 9, 42, 127
11, 6960, Note_on_c, 9, 37, 127
11, 6975, Note_on_c, 9, 42, 0
11, 6977, Note_on_c, 9, 37, 0
11, 7020, Note_on_c, 9, 42, 127
11, 7020, Note_on_c, 9, 37, 127
11, 7020, Note_on_c, 9, 36, 127
11, 7035, Note_on_c, 9, 42, 0
11, 7036, Note_on_c, 9, 37, 0
11, 7039, Note_on_c, 9, 36, 0
11, 7080, Note_on_c, 9, 62, 127
11, 7080, Note_on_c, 9, 42, 127
11, 7080, Note_on_c, 9, 37, 127
11, 7093, Note_on_c, 9, 37, 0
11, 7093, Note_on_c, 9, 42, 0
11, 7098, Note_on_c, 9, 62, 0
11, 7110, Note_on_c, 9, 42, 127
11, 7110, Note_on_c, 9, 37, 127
11, 7120, Note_on_c, 9, 42, 0
11, 7125, Note_on_c, 9, 37, 0
11, 7200, Note_on_c, 9, 62, 127
11, 7200, Note_on_c, 9, 42, 127
11, 7200, Note_on_c, 9, 37, 127
11, 7210, Note_on_c, 9, 42, 0
11, 7213, Note_on_c, 9, 37, 0
11, 7230, Note_on_c, 9, 42, 127
11, 7230, Note_on_c, 9, 37, 127
11, 7230, Note_on_c, 9, 36, 127
11, 7233, Note_on_c, 9, 62, 0
11, 7241, Note_on_c, 9, 42, 0
11, 7243, Note_on_c, 9, 37, 0
11, 7252, Note_on_c, 9, 36, 0
11, 7260, Note_on_c, 9, 42, 127
11, 7260, Note_on_c, 9, 37, 127
11, 7270, Note_on_c, 9, 42, 0
11, 7274, Note_on_c, 9, 37, 0
11, 7290, Note_on_c, 9, 42, 127
11, 7290, Note_on_c, 9, 37, 127
11, 7302, Note_on_c, 9, 42, 0
11, 7304, Note_on_c, 9, 37, 0
11, 7320, Note_on_c, 9, 62, 127
11, 7320, Note_on_c, 9, 42, 127
11, 7320, Note_on_c, 9, 37, 127
11, 7335, Note_on_c, 9, 42, 0
11, 7337, Note_on_c, 9, 37, 0
11, 7345, Note_on_c, 9, 62, 0
11, 7380, Note_on_c, 9, 42, 127
11, 7380, Note_on_c, 9, 37, 127
11, 7380, Note_on_c, 9, 36, 127
11, 7393, Note_on_c, 9, 37, 0
11, 7393, Note_on_c, 9, 42, 0
11, 7396, Note_on_c, 9, 36, 0
11, 7410, Note_on_c, 9, 42, 127
11, 7410, Note_on_c, 9, 37, 127
11, 7410, Note_on_c, 9, 36, 127
11, 7422, Note_on_c, 9, 42, 0
11, 7423, Note_on_c, 9, 37, 0
11, 7429, Note_on_c, 9, 36, 0
11, 7440, Note_on_c, 9, 42, 127
11, 7440, Note_on_c, 9, 37, 127
11, 7455, Note_on_c, 9, 42, 0
11, 7457, Note_on_c, 9, 37, 0
11, 7500, Note_on_c, 9, 42, 127
11, 7500, Note_on_c, 9, 37, 127
11, 7500, Note_on_c, 9, 36, 127
11, 7516, Note_on_c, 9, 36, 0
11, 7516, Note_on_c, 9, 37, 0
11, 7516, Note_on_c, 9, 42, 0
11, 7560, Note_on_c, 9, 62, 127
11, 7560, Note_on_c, 9, 42, 127
11, 7560, Note_on_c, 9, 37, 127
11, 7573, Note_on_c, 9, 37, 0
11, 7574, Note_on_c, 9, 42, 0
11, 7581, Note_on_c, 9, 62, 0
11, 7590, Note_on_c, 9, 42, 127
11, 7590, Note_on_c, 9, 37, 127
11, 7604, Note_on_c, 9, 42, 0
11, 7605, Note_on_c, 9, 37, 0
11, 7680, Note_on_c, 9, 62, 127
11, 7680, Note_on_c, 9, 42, 127
11, 7680, Note_on_c, 9, 37, 127
11, 7693, Note_on_c, 9, 37, 0
11, 7694, Note_on_c, 9, 42, 0
11, 7704, Note_on_c, 9, 62, 0
11, 7710, Note_on_c, 9, 42, 127
11, 7710, Note_on_c, 9, 36, 127
11, 7710, Note_on_c, 9, 37, 127
11, 7722, Note_on_c, 9, 42, 0
11, 7723, Note_on_c, 9, 37, 0
11, 7726, Note_on_c, 9, 36, 0
11, 7740, Note_on_c, 9, 42, 127
11, 7740, Note_on_c, 9, 37, 127
11, 7752, Note_on_c, 9, 42, 0
11, 7754, Note_on_c, 9, 37, 0
11, 7770, Note_on_c, 9, 42, 127
11, 7770, Note_on_c, 9, 37, 127
11, 7784, Note_on_c, 9, 37, 0
11, 7784, Note_on_c, 9, 42, 0
11, 7800, Note_on_c, 9, 62, 127
11, 7800, Note_on_c, 9, 42, 127
11, 7800, Note_on_c, 9, 37, 127
11, 7815, Note_on_c, 9, 42, 0
11, 7817, Note_on_c, 9, 37, 0
11, 7821, Note_on_c, 9, 62, 0
11, 7860, Note_on_c, 9, 42, 127
11, 7860, Note_on_c, 9, 36, 127
11, 7860, Note_on_c, 9, 37, 127
11, 7873, Note_on_c, 9, 37, 0
11, 7874, Note_on_c, 9, 36, 0
11, 7875, Note_on_c, 9, 42, 0
11, 7890, Note_on_c, 9, 42, 127
11, 7890, Note_on_c, 9, 36, 127
11, 7890, Note_on_c, 9, 37, 127
11, 7903, Note_on_c, 9, 37, 0
11, 7903, Note_on_c, 9, 42, 0
11, 7909, Note_on_c, 9, 36, 0
11, 7920, Note_on_c, 9, 42, 127
11, 7920, Note_on_c, 9, 37, 127
11, 7935, Note_on_c, 9, 42, 0
11, 7937, Note_on_c, 9, 37, 0
11, 7980, Note_on_c, 9, 42, 127
11, 7980, Note_on_c, 9, 36, 127
11, 7980, Note_on_c, 9, 37, 127
11, 7995, Note_on_c, 9, 42, 0
11, 7996, Note_on_c, 9, 37, 0
11, 7999, Note_on_c, 9, 36, 0
11, 8040, Note_on_c, 9, 62, 127
11, 8040, Note_on_c, 9, 42, 127
11, 8040, Note_on_c, 9, 37, 127
11, 8053, Note_on_c, 9, 37, 0
11, 8053, Note_on_c, 9, 42, 0
11, 8058, Note_on_c, 9, 62, 0
11, 8070, Note_on_c, 9, 42, 127
11, 8070, Note_on_c, 9, 37, 127
11, 8080, Note_on_c, 9, 42, 0
11, 8085, Note_on_c, 9, 37, 0
11, 8160, Note_on_c, 9, 62, 127
11, 8160, Note_on_c, 9, 42, 127
11, 8160, Note_on_c, 9, 37, 127
11, 8170, Note_on_c, 9, 42, 0
11, 8173, Note_on_c, 9, 37, 0
11, 8190, Note_on_c, 9, 37, 127
11, 8190, Note_on_c, 9, 36, 127
11, 8190, Note_on_c, 9, 42, 127
11, 8193, Note_on_c, 9, 62, 0
11, 8201, Note_on_c, 9, 42, 0
11, 8203, Note_on_c, 9, 37, 0
11, 8212, Note_on_c, 9, 36, 0
11, 8220, Note_on_c, 9, 37, 127
11, 8220, Note_on_c, 9, 42, 127
11, 8230, Note_on_c, 9, 42, 0
11, 8234, Note_on_c, 9, 37, 0
11, 8250, Note_on_c, 9, 37, 127
11, 8250, Note_on_c, 9, 42, 127
11, 8262, Note_on_c, 9, 42, 0
11, 8264, Note_on_c, 9, 37, 0
11, 8280, Note_on_c, 9, 62, 127
11, 8280, Note_on_c, 9, 37, 127
11, 8280, Note_on_c, 9, 42, 127
11, 8295, Note_on_c, 9, 42, 0
11, 8297, Note_on_c, 9, 37, 0
11, 8305, Note_on_c, 9, 62, 0
11, 8340, Note_on_c, 9, 37, 127
11, 8340, Note_on_c, 9, 36, 127
11, 8340, Note_on_c, 9, 42, 127
11, 8353, Note_on_c, 9, 42, 0
11, 8353, Note_on_c, 9, 37, 0
11, 8356, Note_on_c, 9, 36, 0
11, 8370, Note_on_c, 9, 37, 127
11, 8370, Note_on_c, 9, 36, 127
11, 8370, Note_on_c, 9, 42, 127
11, 8382, Note_on_c, 9, 42, 0
11, 8383, Note_on_c, 9, 37, 0
11, 8389, Note_on_c, 9, 36, 0
11, 8400, Note_on_c, 9, 37, 127
11, 8400, Note_on_c, 9, 42, 127
11, 8415, Note_on_c, 9, 42, 0
11, 8417, Note_on_c, 9, 37, 0
11, 8460, Note_on_c, 9, 37, 127
11, 8460, Note_on_c, 9, 36, 127
11, 8460, Note_on_c, 9, 42, 127
11, 8476, Note_on_c, 9, 42, 0
11, 8476, Note_on_c, 9, 36, 0
11, 8476, Note_on_c, 9, 37, 0
11, 8520, Note_on_c, 9, 62, 127
11, 8520, Note_on_c, 9, 37, 127
11, 8520, Note_on_c, 9, 42, 127
11, 8533, Note_on_c, 9, 37, 0
11, 8534, Note_on_c, 9, 42, 0
11, 8541, Note_on_c, 9, 62, 0
11, 8550, Note_on_c, 9, 37, 127
11, 8550, Note_on_c, 9, 42, 127
11, 8564, Note_on_c, 9, 42, 0
11, 8565, Note_on_c, 9, 37, 0
11, 8640, Note_on_c, 9, 62, 127
11, 8640, Note_on_c, 9, 42, 127
11, 8640, Note_on_c, 9, 37, 127
11, 8653, Note_on_c, 9, 37, 0
11, 8654, Note_on_c, 9, 42, 0
11, 8664, Note_on_c, 9, 62, 0
11, 8670, Note_on_c, 9, 36, 127
11, 8670, Note_on_c, 9, 42, 127
11, 8670, Note_on_c, 9, 37, 127
11, 8682, Note_on_c, 9, 42, 0
11, 8683, Note_on_c, 9, 37, 0
11, 8686, Note_on_c, 9, 36, 0
11, 8700, Note_on_c, 9, 42, 127
11, 8700, Note_on_c, 9, 37, 127
11, 8712, Note_on_c, 9, 42, 0
11, 8714, Note_on_c, 9, 37, 0
11, 8730, Note_on_c, 9, 42, 127
11, 8730, Note_on_c, 9, 37, 127
11, 8744, Note_on_c, 9, 37, 0
11, 8744, Note_on_c, 9, 42, 0
11, 8760, Note_on_c, 9, 62, 127
11, 8760, Note_on_c, 9, 42, 127
11, 8760, Note_on_c, 9, 37, 127
11, 8775, Note_on_c, 9, 42, 0
11, 8777, Note_on_c, 9, 37, 0
11, 8781, Note_on_c, 9, 62, 0
11, 8820, Note_on_c, 9, 36, 127
11, 8820, Note_on_c, 9, 42, 127
11, 8820, Note_on_c, 9, 37, 127
11, 8833, Note_on_c, 9, 37, 0
11, 8834, Note_on_c, 9, 36, 0
11, 8835, Note_on_c, 9, 42, 0
11, 8850, Note_on_c, 9, 36, 127
11, 8850, Note_on_c, 9, 42, 127
11, 8850, Note_on_c, 9, 37, 127
11, 8863, Note_on_c, 9, 37, 0
11, 8863, Note_on_c, 9, 42, 0
11, 8869, Note_on_c, 9, 36, 0
11, 8880, Note_on_c, 9, 42, 127
11, 8880, Note_on_c, 9, 37, 127
11, 8895, Note_on_c, 9, 42, 0
11, 8897, Note_on_c, 9, 37, 0
11, 8940, Note_on_c, 9, 36, 127
11, 8940, Note_on_c, 9, 42, 127
11, 8940, Note_on_c, 9, 37, 127
11, 8955, Note_on_c, 9, 42, 0
11, 8956, Note_on_c, 9, 37, 0
11, 8959, Note_on_c, 9, 36, 0
11, 9000, Note_on_c, 9, 62, 127
11, 9000, Note_on_c, 9, 42, 127
11, 9000, Note_on_c, 9, 37, 127
11, 9013, Note_on_c, 9, 37, 0
11, 9013, Note_on_c, 9, 42, 0
11, 9018, Note_on_c, 9, 62, 0
11, 9030, Note_on_c, 9, 42, 127
11, 9030, Note_on_c, 9, 37, 127
11, 9040, Note_on_c, 9, 42, 0
11, 9045, Note_on_c, 9, 37, 0
11, 9120, Note_on_c, 9, 62, 127
11, 9120, Note_on_c, 9, 42, 127
11, 9120, Note_on_c, 9, 37, 127
11, 9130, Note_on_c, 9, 42, 0
11, 9133, Note_on_c, 9, 37, 0
11, 9150, Note_on_c, 9, 37, 127
11, 9150, Note_on_c, 9, 36, 127
11, 9150, Note_on_c, 9, 42, 127
11, 9153, Note_on_c, 9, 62, 0
11, 9161, Note_on_c, 9, 42, 0
11, 9163, Note_on_c, 9, 37, 0
11, 9172, Note_on_c, 9, 36, 0
11, 9180, Note_on_c, 9, 37, 127
11, 9180, Note_on_c, 9, 42, 127
11, 9190, Note_on_c, 9, 42, 0
11, 9194, Note_on_c, 9, 37, 0
11, 9210, Note_on_c, 9, 37, 127
11, 9210, Note_on_c, 9, 42, 127
11, 9222, Note_on_c, 9, 42, 0
11, 9224, Note_on_c, 9, 37, 0
11, 9240, Note_on_c, 9, 62, 127
11, 9240, Note_on_c, 9, 37, 127
11, 9240, Note_on_c, 9, 42, 127
11, 9255, Note_on_c, 9, 42, 0
11, 9257, Note_on_c, 9, 37, 0
11, 9265, Note_on_c, 9, 62, 0
11, 9300, Note_on_c, 9, 37, 127
11, 9300, Note_on_c, 9, 36, 127
11, 9300, Note_on_c, 9, 42, 127
11, 9313, Note_on_c, 9, 42, 0
11, 9313, Note_on_c, 9, 37, 0
11, 9316, Note_on_c, 9, 36, 0
11, 9330, Note_on_c, 9, 37, 127
11, 9330, Note_on_c, 9, 36, 127
11, 9330, Note_on_c, 9, 42, 127
11, 9342, Note_on_c, 9, 42, 0
11, 9343, Note_on_c, 9, 37, 0
11, 9349, Note_on_c, 9, 36, 0
11, 9360, Note_on_c, 9, 37, 127
11, 9360, Note_on_c, 9, 42, 127
11, 9375, Note_on_c, 9, 42, 0
11, 9377, Note_on_c, 9, 37, 0
11, 9420, Note_on_c, 9, 37, 127
11, 9420, Note_on_c, 9, 36, 127
11, 9420, Note_on_c, 9, 42, 127
11, 9436, Note_on_c, 9, 42, 0
11, 9436, Note_on_c, 9, 36, 0
11, 9436, Note_on_c, 9, 37, 0
11, 9480, Note_on_c, 9, 62, 127
11, 9480, Note_on_c, 9, 37, 127
11, 9480, Note_on_c, 9, 42, 127
11, 9493, Note_on_c, 9, 37, 0
11, 9494, Note_on_c, 9, 42, 0
11, 9501, Note_on_c, 9, 62, 0
11, 9510, Note_on_c, 9, 37, 127
11, 9510, Note_on_c, 9, 42, 127
11, 9524, Note_on_c, 9, 42, 0
11, 9525, Note_on_c, 9, 37, 0
11, 9600, Note_on_c, 9, 62, 127
11, 9600, Note_on_c, 9, 42, 127
11, 9600, Note_on_c, 9, 37, 127
11, 9613, Note_on_c, 9, 37, 0
11, 9614, Note_on_c, 9, 42, 0
11, 9624, Note_on_c, 9, 62, 0
11, 9630, Note_on_c, 9, 36, 127
11, 9630, Note_on_c, 9, 42, 127
11, 9630, Note_on_c, 9, 37, 127
11, 9642, Note_on_c, 9, 42, 0
11, 9643, Note_on_c, 9, 37, 0
11, 9646, Note_on_c, 9, 36, 0
11, 9660, Note_on_c, 9, 42, 127
11, 9660, Note_on_c, 9, 37, 127
11, 9672, Note_on_c, 9, 42, 0
11, 9674, Note_on_c, 9, 37, 0
11, 9690, Note_on_c, 9, 42, 127
11, 9690, Note_on_c, 9, 37, 127
11, 9704, Note_on_c, 9, 37, 0
11, 9704, Note_on_c, 9, 42, 0
11, 9720, Note_on_c, 9, 62, 127
11, 9720, Note_on_c, 9, 42, 127
11, 9720, Note_on_c, 9, 37, 127
11, 9735, Note_on_c, 9, 42, 0
11, 9737, Note_on_c, 9, 37, 0
11, 9741, Note_on_c, 9, 62, 0
11, 9780, Note_on_c, 9, 36, 127
11, 9780, Note_on_c, 9, 42, 127
11, 9780, Note_on_c, 9, 37, 127
11, 9793, Note_on_c, 9, 37, 0
11, 9794, Note_on_c, 9, 36, 0
11, 9795, Note_on_c, 9, 42, 0
11, 9810, Note_on_c, 9, 36, 127
11, 9810, Note_on_c, 9, 42, 127
11, 9810, Note_on_c, 9, 37, 127
11, 9823, Note_on_c, 9, 37, 0
11, 9823, Note_on_c, 9, 42, 0
11, 9829, Note_on_c, 9, 36, 0
11, 9840, Note_on_c, 9, 42, 127
11, 9840, Note_on_c, 9, 37, 127
11, 9855, Note_on_c, 9, 42, 0
11, 9857, Note_on_c, 9, 37, 0
11, 9900, Note_on_c, 9, 36, 127
11, 9900, Note_on_c, 9, 42, 127
11, 9900, Note_on_c, 9, 37, 127
11, 9915, Note_on_c, 9, 42, 0
11, 9916, Note_on_c, 9, 37, 0
11, 9919, Note_on_c, 9, 36, 0
11, 9960, Note_on_c, 9, 62, 127
11, 9960, Note_on_c, 9, 42, 127
11, 9960, Note_on_c, 9, 37, 127
11, 9973, Note_on_c, 9, 37, 0
11, 9973, Note_on_c, 9, 42, 0
11, 9978, Note_on_c, 9, 62, 0
11, 9990, Note_on_c, 9, 42, 127
11, 9990, Note_on_c, 9, 37, 127
11, 10000, Note_on_c, 9, 42, 0
11, 10005, Note_on_c, 9, 37, 0
11, 10080, Note_on_c, 9, 62, 127
11, 10080, Note_on_c, 9, 42, 127
11, 10080, Note_on_c, 9, 37, 127
11, 10090, Note_on_c, 9, 42, 0
11, 10093, Note_on_c, 9, 37, 0
11, 10110, Note_on_c, 9, 42, 127
11, 10110, Note_on_c, 9, 37, 127
11, 10110, Note_on_c, 9, 36, 127
11, 10113, Note_on_c, 9, 62, 0
11, 10121, Note_on_c, 9, 42, 0
11, 10123, Note_on_c, 9, 37, 0
11, 10132, Note_on_c, 9, 36, 0
11, 10140, Note_on_c, 9, 42, 127
11, 10140, Note_on_c, 9, 37, 127
11, 10150, Note_on_c, 9, 42, 0
11, 10154, Note_on_c, 9, 37, 0
11, 10170, Note_on_c, 9, 42, 127
11, 10170, Note_on_c, 9, 37, 127
11, 10182, Note_on_c, 9, 42, 0
11, 10184, Note_on_c, 9, 37, 0
11, 10200, Note_on_c, 9, 62, 127
11, 10200, Note_on_c, 9, 42, 127
11, 10200, Note_on_c, 9, 37, 127
11, 10215, Note_on_c, 9, 42, 0
11, 10217, Note_on_c, 9, 37, 0
11, 10225, Note_on_c, 9, 62, 0
11, 10260, Note_on_c, 9, 42, 127
11, 10260, Note_on_c, 9, 37, 127
11, 10260, Note_on_c, 9, 36, 127
11, 10273, Note_on_c, 9, 37, 0
11, 10273, Note_on_c, 9, 42, 0
11, 10276, Note_on_c, 9, 36, 0
11, 10290, Note_on_c, 9, 42, 127
11, 10290, Note_on_c, 9, 37, 127
11, 10290, Note_on_c, 9, 36, 127
11, 10302, Note_on_c, 9, 42, 0
11, 10303, Note_on_c, 9, 37, 0
11, 10309, Note_on_c, 9, 36, 0
11, 10320, Note_on_c, 9, 42, 127
11, 10320, Note_on_c, 9, 37, 127
11, 10335, Note_on_c, 9, 42, 0
11, 10337, Note_on_c, 9, 37, 0
11, 10380, Note_on_c, 9, 42, 127
11, 10380, Note_on_c, 9, 37, 127
11, 10380, Note_on_c, 9, 36, 127
11, 10396, Note_on_c, 9, 36, 0
11, 10396, Note_on_c, 9, 37, 0
11, 10396, Note_on_c, 9, 42, 0
11, 10440, Note_on_c, 9, 62, 127
11, 10440, Note_on_c, 9, 42, 127
11, 10440, Note_on_c, 9, 37, 127
11, 10453, Note_on_c, 9, 37, 0
11, 10454, Note_on_c, 9, 42, 0
11, 10461, Note_on_c, 9, 62, 0
11, 10470, Note_on_c, 9, 42, 127
11, 10470, Note_on_c, 9, 37, 127
11, 10484, Note_on_c, 9, 42, 0
11, 10485, Note_on_c, 9, 37, 0
11, 10560, Note_on_c, 9, 62, 127
11, 10560, Note_on_c, 9, 42, 127
11, 10560, Note_on_c, 9, 37, 127
11, 10573, Note_on_c, 9, 37, 0
11, 10574, Note_on_c, 9, 42, 0
11, 10584, Note_on_c, 9, 62, 0
11, 10590, Note_on_c, 9, 42, 127
11, 10590, Note_on_c, 9, 36, 127
11, 10590, Note_on_c, 9, 37, 127
11, 10602, Note_on_c, 9, 42, 0
11, 10603, Note_on_c, 9, 37, 0
11, 10606, Note_on_c, 9, 36, 0
11, 10620, Note_on_c, 9, 42, 127
11, 10620, Note_on_c, 9, 37, 127
11, 10632, Note_on_c, 9, 42, 0
11, 10634, Note_on_c, 9, 37, 0
11, 10650, Note_on_c, 9, 42, 127
11, 10650, Note_on_c, 9, 37, 127
11, 10664, Note_on_c, 9, 37, 0
11, 10664, Note_on_c, 9, 42, 0
11, 10680, Note_on_c, 9, 62, 127
11, 10680, Note_on_c, 9, 42, 127
11, 10680, Note_on_c, 9, 37, 127
11, 10695, Note_on_c, 9, 42, 0
11, 10697, Note_on_c, 9, 37, 0
11, 10701, Note_on_c, 9, 62, 0
11, 10740, Note_on_c, 9, 42, 127
11, 10740, Note_on_c, 9, 36, 127
11, 10740, Note_on_c, 9, 37, 127
11, 10753, Note_on_c, 9, 37, 0
11, 10754, Note_on_c, 9, 36, 0
11, 10755, Note_on_c, 9, 42, 0
11, 10770, Note_on_c, 9, 42, 127
11, 10770, Note_on_c, 9, 36, 127
11, 10770, Note_on_c, 9, 37, 127
11, 10783, Note_on_c, 9, 37, 0
11, 10783, Note_on_c, 9, 42, 0
11, 10789, Note_on_c, 9, 36, 0
11, 10800, Note_on_c, 9, 42, 127
11, 10800, Note_on_c, 9, 37, 127
11, 10815, Note_on_c, 9, 42, 0
11, 10817, Note_on_c, 9, 37, 0
11, 10860, Note_on_c, 9, 42, 127
11, 10860, Note_on_c, 9, 36, 127
11, 10860, Note_on_c, 9, 37, 127
11, 10875, Note_on_c, 9, 42, 0
11, 10876, Note_on_c, 9, 37, 0
11, 10879, Note_on_c, 9, 36, 0
11, 10920, Note_on_c, 9, 62, 127
11, 10920, Note_on_c, 9, 42, 127
11, 10920, Note_on_c, 9, 37, 127
11, 10933, Note_on_c, 9, 37, 0
11, 10933, Note_on_c, 9, 42, 0
11, 10938, Note_on_c, 9, 62, 0
11, 10950, Note_on_c, 9, 42, 127
11, 10950, Note_on_c, 9, 37, 127
11, 10960, Note_on_c, 9, 42, 0
11, 10965, Note_on_c, 9, 37, 0
11, 11040, Note_on_c, 9, 62, 127
11, 11040, Note_on_c, 9, 42, 127
11, 11040, Note_on_c, 9, 37, 127
11, 11050, Note_on_c, 9, 42, 0
11, 11053, Note_on_c, 9, 37, 0
11, 11070, Note_on_c, 9, 37, 127
11, 11070, Note_on_c, 9, 36, 127
11, 11070, Note_on_c, 9, 42, 127
11, 11073, Note_on_c, 9, 62, 0
11, 11081, Note_on_c, 9, 42, 0
11, 11083, Note_on_c, 9, 37, 0
11, 11092, Note_on_c, 9, 36, 0
11, 11100, Note_on_c, 9, 37, 127
11, 11100, Note_on_c, 9, 42, 127
11, 11110, Note_on_c, 9, 42, 0
11, 11114, Note_on_c, 9, 37, 0
11, 11130, Note_on_c, 9, 37, 127
11, 11130, Note_on_c, 9, 42, 127
11, 11142, Note_on_c, 9, 42, 0
11, 11144, Note_on_c, 9, 37, 0
11, 11160, Note_on_c, 9, 62, 127
11, 11160, Note_on_c, 9, 37, 127
11, 11160, Note_on_c, 9, 42, 127
11, 11175, Note_on_c, 9, 42, 0
11, 11177, Note_on_c, 9, 37, 0
11, 11185, Note_on_c, 9, 62, 0
11, 11220, Note_on_c, 9, 37, 127
11, 11220, Note_on_c, 9, 36, 127
11, 11220, Note_on_c, 9, 42, 127
11, 11233, Note_on_c, 9, 42, 0
11, 11233, Note_on_c, 9, 37, 0
11, 11236, Note_on_c, 9, 36, 0
11, 11250, Note_on_c, 9, 37, 127
11, 11250, Note_on_c, 9, 36, 127
11, 11250, Note_on_c, 9, 42, 127
11, 11262, Note_on_c, 9, 42, 0
11, 11263, Note_on_c, 9, 37, 0
11, 11269, Note_on_c, 9, 36, 0
11, 11280, Note_on_c, 9, 37, 127
11, 11280, Note_on_c, 9, 42, 127
11, 11295, Note_on_c, 9, 42, 0
11, 11297, Note_on_c, 9, 37, 0
11, 11340, Note_on_c, 9, 37, 127
11, 11340, Note_on_c, 9, 36, 127
11, 11340, Note_on_c, 9, 42, 127
11, 11356, Note_on_c, 9, 42, 0
11, 11356, Note_on_c, 9, 36, 0
11, 11356, Note_on_c, 9, 37, 0
11, 11400, Note_on_c, 9, 62, 127
11, 11400, Note_on_c, 9, 37, 127
11, 11400, Note_on_c, 9, 42, 127
11, 11413, Note_on_c, 9, 37, 0
11, 11414, Note_on_c, 9, 42, 0
11, 11421, Note_on_c, 9, 62, 0
11, 11430, Note_on_c, 9, 37, 127
11, 11430, Note_on_c, 9, 42, 127
11, 11444, Note_on_c, 9, 42, 0
11, 11445, Note_on_c, 9, 37, 0
11, 11520, Note_on_c, 9, 62, 127
11, 11520, Note_on_c, 9, 42, 127
11, 11520, Note_on_c, 9, 37, 127
11, 11533, Note_on_c, 9, 37, 0
11, 11534, Note_on_c, 9, 42, 0
11, 11544, Note_on_c, 9, 62, 0
11, 11550, Note_on_c, 9, 36, 127
11, 11550, Note_on_c, 9, 42, 127
11, 11550, Note_on_c, 9, 37, 127
11, 11562, Note_on_c, 9, 42, 0
11, 11563, Note_on_c, 9, 37, 0
11, 11566, Note_on_c, 9, 36, 0
11, 11580, Note_on_c, 9, 42, 127
11, 11580, Note_on_c, 9, 37, 127
11, 11592, Note_on_c, 9, 42, 0
11, 11594, Note_on_c, 9, 37, 0
11, 11610, Note_on_c, 9, 42, 127
11, 11610, Note_on_c, 9, 37, 127
11, 11624, Note_on_c, 9, 37, 0
11, 11624, Note_on_c, 9, 42, 0
11, 11640, Note_on_c, 9, 62, 127
11, 11640, Note_on_c, 9, 42, 127
11, 11640, Note_on_c, 9, 37, 127
11, 11655, Note_on_c, 9, 42, 0
11, 11657, Note_on_c, 9, 37, 0
11, 11661, Note_on_c, 9, 62, 0
11, 11700, Note_on_c, 9, 36, 127
11, 11700, Note_on_c, 9, 42, 127
11, 11700, Note_on_c, 9, 37, 127
11, 11713, Note_on_c, 9, 37, 0
11, 11714, Note_on_c, 9, 36, 0
11, 11715, Note_on_c, 9, 42, 0
11, 11730, Note_on_c, 9, 36, 127
11, 11730, Note_on_c, 9, 42, 127
11, 11730, Note_on_c, 9, 37, 127
11, 11743, Note_on_c, 9, 37, 0
11, 11743, Note_on_c, 9, 42, 0
11, 11749, Note_on_c, 9, 36, 0
11, 11760, Note_on_c, 9, 42, 127
11, 11760, Note_on_c, 9, 37, 127
11, 11775, Note_on_c, 9, 42, 0
11, 11777, Note_on_c, 9, 37, 0
11, 11820, Note_on_c, 9, 36, 127
11, 11820, Note_on_c, 9, 42, 127
11, 11820, Note_on_c, 9, 37, 127
11, 11835, Note_on_c, 9, 42, 0
11, 11836, Note_on_c, 9, 37, 0
11, 11839, Note_on_c, 9, 36, 0
11, 11880, Note_on_c, 9, 62, 127
11, 11880, Note_on_c, 9, 42, 127
11, 11880, Note_on_c, 9, 37, 127
11, 11893, Note_on_c, 9, 37, 0
11, 11893, Note_on_c, 9, 42, 0
11, 11898, Note_on_c, 9, 62, 0
11, 11910, Note_on_c, 9, 42, 127
11, 11910, Note_on_c, 9, 37, 127
11, 11920, Note_on_c, 9, 42, 0
11, 11925, Note_on_c, 9, 37, 0
11, 12000, Note_on_c, 9, 62, 127
11, 12000, Note_on_c, 9, 42, 127
11, 12000, Note_on_c, 9, 37, 127
11, 12010, Note_on_c, 9, 42, 0
11, 12013, Note_on_c, 9, 37, 0
11, 12030, Note_on_c, 9, 37, 127
11, 12030, Note_on_c, 9, 36, 127
11, 12030, Note_on_c, 9, 42, 127
11, 12033, Note_on_c, 9, 62, 0
11, 12041, Note_on_c, 9, 42, 0
11, 12043, Note_on_c, 9, 37, 0
11, 12052, Note_on_c, 9, 36, 0
11, 12060, Note_on_c, 9, 37, 127
11, 12060, Note_on_c, 9, 42, 127
11, 12070, Note_on_c, 9, 42, 0
11, 12074, Note_on_c, 9, 37, 0
11, 12090, Note_on_c, 9, 37, 127
11, 12090, Note_on_c, 9, 42, 127
11, 12102, Note_on_c, 9, 42, 0
11, 12104, Note_on_c, 9, 37, 0
11, 12120, Note_on_c, 9, 62, 127
11, 12120, Note_on_c, 9, 37, 127
11, 12120, Note_on_c, 9, 42, 127
11, 12135, Note_on_c, 9, 42, 0
11, 12137, Note_on_c, 9, 37, 0
11, 12145, Note_on_c, 9, 62, 0
11, 12180, Note_on_c, 9, 37, 127
11, 12180, Note_on_c, 9, 36, 127
11, 12180, Note_on_c, 9, 42, 127
11, 12193, Note_on_c, 9, 42, 0
11, 12193, Note_on_c, 9, 37, 0
11, 12196, Note_on_c, 9, 36, 0
11, 12210, Note_on_c, 9, 37, 127
11, 12210, Note_on_c, 9, 36, 127
11, 12210, Note_on_c, 9, 42, 127
11, 12222, Note_on_c, 9, 42, 0
11, 12223, Note_on_c, 9, 37, 0
11, 12229, Note_on_c, 9, 36, 0
11, 12240, Note_on_c, 9, 37, 127
11, 12240, Note_on_c, 9, 42, 127
11, 12255, Note_on_c, 9, 42, 0
11, 12257, Note_on_c, 9, 37, 0
11, 12300, Note_on_c, 9, 37, 127
11, 12300, Note_on_c, 9, 36, 127
11, 12300, Note_on_c, 9, 42, 127
11, 12316, Note_on_c, 9, 42, 0
11, 12316, Note_on_c, 9, 36, 0
11, 12316, Note_on_c, 9, 37, 0
11, 12360, Note_on_c, 9, 62, 127
11, 12360, Note_on_c, 9, 37, 127
11, 12360, Note_on_c, 9, 42, 127
11, 12373, Note_on_c, 9, 37, 0
11, 12374, Note_on_c, 9, 42, 0
11, 12381, Note_on_c, 9, 62, 0
11, 12390, Note_on_c, 9, 37, 127
11, 12390, Note_on_c, 9, 42, 127
11, 12404, Note_on_c, 9, 42, 0
11, 12405, Note_on_c, 9, 37, 0
11, 12480, Note_on_c, 9, 62, 127
11, 12480, Note_on_c, 9, 42, 127
11, 12480, Note_on_c, 9, 37, 127
11, 12493, Note_on_c, 9, 37, 0
11, 12494, Note_on_c, 9, 42, 0
11, 12504, Note_on_c, 9, 62, 0
11, 12510, Note_on_c, 9, 36, 127
11, 12510, Note_on_c, 9, 42, 127
11, 12510, Note_on_c, 9, 37, 127
11, 12522, Note_on_c, 9, 42, 0
11, 12523, Note_on_c, 9, 37, 0
11, 12526, Note_on_c, 9, 36, 0
11, 12540, Note_on_c, 9, 42, 127
11, 12540, Note_on_c, 9, 37, 127
11, 12552, Note_on_c, 9, 42, 0
11, 12554, Note_on_c, 9, 37, 0
11, 12570, Note_on_c, 9, 42, 127
11, 12570, Note_on_c, 9, 37, 127
11, 12584, Note_on_c, 9, 37, 0
11, 12584, Note_on_c, 9, 42, 0
11, 12600, Note_on_c, 9, 62, 127
11, 12600, Note_on_c, 9, 42, 127
11, 12600, Note_on_c, 9, 37, 127
11, 12615, Note_on_c, 9, 42, 0
11, 12617, Note_on_c, 9, 37, 0
11, 12621, Note_on_c, 9, 62, 0
11, 12660, Note_on_c, 9, 36, 127
11, 12660, Note_on_c, 9, 42, 127
11, 12660, Note_on_c, 9, 37, 127
11, 12673, Note_on_c, 9, 37, 0
11, 12674, Note_on_c, 9, 36, 0
11, 12675, Note_on_c, 9, 42, 0
11, 12690, Note_on_c, 9, 36, 127
11, 12690, Note_on_c, 9, 42, 127
11, 12690, Note_on_c, 9, 37, 127
11, 12703, Note_on_c, 9, 37, 0
11, 12703, Note_on_c, 9, 42, 0
11, 12709, Note_on_c, 9, 36, 0
11, 12720, Note_on_c, 9, 42, 127
11, 12720, Note_on_c, 9, 37, 127
11, 12735, Note_on_c, 9, 42, 0
11, 12737, Note_on_c, 9, 37, 0
11, 12780, Note_on_c, 9, 36, 127
11, 12780, Note_on_c, 9, 42, 127
11, 12780, Note_on_c, 9, 37, 127
11, 12795, Note_on_c, 9, 42, 0
11, 12796, Note_on_c, 9, 37, 0
11, 12799, Note_on_c, 9, 36, 0
11, 12840, Note_on_c, 9, 62, 127
11, 12840, Note_on_c, 9, 42, 127
11, 12840, Note_on_c, 9, 37, 127
11, 12853, Note_on_c, 9, 37, 0
11, 12853, Note_on_c, 9, 42, 0
11, 12858, Note_on_c, 9, 62, 0
11, 12870, Note_on_c, 9, 42, 127
11, 12870, Note_on_c, 9, 37, 127
11, 12880, Note_on_c, 9, 42, 0
11, 12885, Note_on_c, 9, 37, 0
11, 12960, Note_on_c, 9, 62, 127
11, 12960, Note_on_c, 9, 42, 127
11, 12960, Note_on_c, 9, 37, 127
11, 12970, Note_on_c, 9, 42, 0
11, 12973, Note_on_c, 9, 37, 0
11, 12990, Note_on_c, 9, 37, 127
11, 12990, Note_on_c, 9, 36, 127
11, 12990, Note_on_c, 9, 42, 127
11, 12993, Note_on_c, 9, 62, 0
11, 13001, Note_on_c, 9, 42, 0
11, 13003, Note_on_c, 9, 37, 0
11, 13012, Note_on_c, 9, 36, 0
11, 13020, Note_on_c, 9, 37, 127
11, 13020, Note_on_c, 9, 42, 127
11, 13030, Note_on_c, 9, 42, 0
11, 13034, Note_on_c, 9, 37, 0
11, 13050, Note_on_c, 9, 37, 127
11, 13050, Note_on_c, 9, 42, 127
11, 13062, Note_on_c, 9, 42, 0
11, 13064, Note_on_c, 9, 37, 0
11, 13080, Note_on_c, 9, 62, 127
11, 13080, Note_on_c, 9, 37, 127
11, 13080, Note_on_c, 9, 42, 127
11, 13095, Note_on_c, 9, 42, 0
11, 13097, Note_on_c, 9, 37, 0
11, 13105, Note_on_c, 9, 62, 0
11, 13140, Note_on_c, 9, 37, 127
11, 13140, Note_on_c, 9, 36, 127
11, 13140, Note_on_c, 9, 42, 127
11, 13153, Note_on_c, 9, 42, 0
11, 13153, Note_on_c, 9, 37, 0
11, 13156, Note_on_c, 9, 36, 0
11, 13170, Note_on_c, 9, 37, 127
11, 13170, Note_on_c, 9, 36, 127
11, 13170, Note_on_c, 9, 42, 127
11, 13182, Note_on_c, 9, 42, 0
11, 13183, Note_on_c, 9, 37, 0
11, 13189, Note_on_c, 9, 36, 0
11, 13200, Note_on_c, 9, 37, 127
11, 13200, Note_on_c, 9, 42, 127
11, 13215, Note_on_c, 9, 42, 0
11, 13217, Note_on_c, 9, 37, 0
11, 13260, Note_on_c, 9, 37, 127
11, 13260, Note_on_c, 9, 36, 127
11, 13260, Note_on_c, 9, 42, 127
11, 13276, Note_on_c, 9, 42, 0
11, 13276, Note_on_c, 9, 36, 0
11, 13276, Note_on_c, 9, 37, 0
11, 13320, Note_on_c, 9, 62, 127
11, 13320, Note_on_c, 9, 37, 127
11, 13320, Note_on_c, 9, 42, 127
11, 13333, Note_on_c, 9, 37, 0
11, 13334, Note_on_c, 9, 42, 0
11, 13341, Note_on_c, 9, 62, 0
11, 13350, Note_on_c, 9, 37, 127
11, 13350, Note_on_c, 9, 42, 127
11, 13364, Note_on_c, 9, 42, 0
11, 13365, Note_on_c, 9, 37, 0
11, 13440, Note_on_c, 9, 62, 127
11, 13440, Note_on_c, 9, 42, 127
11, 13440, Note_on_c, 9, 37, 127
11, 13453, Note_on_c, 9, 37, 0
11, 13454, Note_on_c, 9, 42, 0
11, 13464, Note_on_c, 9, 62, 0
11, 13470, Note_on_c, 9, 36, 127
11, 13470, Note_on_c, 9, 42, 127
11, 13470, Note_on_c, 9, 37, 127
11, 13482, Note_on_c, 9, 42, 0
11, 13483, Note_on_c, 9, 37, 0
11, 13486, Note_on_c, 9, 36, 0
11, 13500, Note_on_c, 9, 42, 127
11, 13500, Note_on_c, 9, 37, 127
11, 13512, Note_on_c, 9, 42, 0
11, 13514, Note_on_c, 9, 37, 0
11, 13530, Note_on_c, 9, 42, 127
11, 13530, Note_on_c, 9, 37, 127
11, 13544, Note_on_c, 9, 37, 0
11, 13544, Note_on_c, 9, 42, 0
11, 13560, Note_on_c, 9, 62, 127
11, 13560, Note_on_c, 9, 42, 127
11, 13560, Note_on_c, 9, 37, 127
11, 13575, Note_on_c, 9, 42, 0
11, 13577, Note_on_c, 9, 37, 0
11, 13581, Note_on_c, 9, 62, 0
11, 13620, Note_on_c, 9, 36, 127
11, 13620, Note_on_c, 9, 42, 127
11, 13620, Note_on_c, 9, 37, 127
11, 13633, Note_on_c, 9, 37, 0
11, 13634, Note_on_c, 9, 36, 0
11, 13635, Note_on_c, 9, 42, 0
11, 13650, Note_on_c, 9, 36, 127
11, 13650, Note_on_c, 9, 42, 127
11, 13650, Note_on_c, 9, 37, 127
11, 13663, Note_on_c, 9, 37, 0
11, 13663, Note_on_c, 9, 42, 0
11, 13669, Note_on_c, 9, 36, 0
11, 13680, Note_on_c, 9, 42, 127
11, 13680, Note_on_c, 9, 37, 127
11, 13695, Note_on_c, 9, 42, 0
11, 13697, Note_on_c, 9, 37, 0
11, 13740, Note_on_c, 9, 36, 127
11, 13740, Note_on_c, 9, 42, 127
11, 13740, Note_on_c, 9, 37, 127
11, 13755, Note_on_c, 9, 42, 0
11, 13756, Note_on_c, 9, 37, 0
11, 13759, Note_on_c, 9, 36, 0
11, 13800, Note_on_c, 9, 62, 127
11, 13800, Note_on_c, 9, 42, 127
11, 13800, Note_on_c, 9, 37, 127
11, 13813, Note_on_c, 9, 37, 0
11, 13813, Note_on_c, 9, 42, 0
11, 13818, Note_on_c, 9, 62, 0
11, 13830, Note_on_c, 9, 42, 127
11, 13830, Note_on_c, 9, 37, 127
11, 13840, Note_on_c, 9, 42, 0
11, 13845, Note_on_c, 9, 37, 0
11, 13920, Note_on_c, 9, 62, 127
11, 13920, Note_on_c, 9, 42, 127
11, 13920, Note_on_c, 9, 37, 127
11, 13930, Note_on_c, 9, 42, 0
11, 13933, Note_on_c, 9, 37, 0
11, 13950, Note_on_c, 9, 37, 127
11, 13950, Note_on_c, 9, 36, 127
11, 13950, Note_on_c, 9, 42, 127
11, 13953, Note_on_c, 9, 62, 0
11, 13961, Note_on_c, 9, 42, 0
11, 13963, Note_on_c, 9, 37, 0
11, 13972, Note_on_c, 9, 36, 0
11, 13980, Note_on_c, 9, 37, 127
11, 13980, Note_on_c, 9, 42, 127
11, 13990, Note_on_c, 9, 42, 0
11, 13994, Note_on_c, 9, 37, 0
11, 14010, Note_on_c, 9, 37, 127
11, 14010, Note_on_c, 9, 42, 127
11, 14022, Note_on_c, 9, 42, 0
11, 14024, Note_on_c, 9, 37, 0
11, 14040, Note_on_c, 9, 62, 127
11, 14040, Note_on_c, 9, 37, 127
11, 14040, Note_on_c, 9, 42, 127
11, 14055, Note_on_c, 9, 42, 0
11, 14057, Note_on_c, 9, 37, 0
11, 14065, Note_on_c, 9, 62, 0
11, 14100, Note_on_c, 9, 37, 127
11, 14100, Note_on_c, 9, 36, 127
11, 14100, Note_on_c, 9, 42, 127
11, 14113, Note_on_c, 9, 42, 0
11, 14113, Note_on_c, 9, 37, 0
11, 14116, Note_on_c, 9, 36, 0
11, 14130, Note_on_c, 9, 37, 127
11, 14130, Note_on_c, 9, 36, 127
11, 14130, Note_on_c, 9, 42, 127
11, 14142, Note_on_c, 9, 42, 0
11, 14143, Note_on_c, 9, 37, 0
11, 14149, Note_on_c, 9, 36, 0
11, 14160, Note_on_c, 9, 37, 127
11, 14160, Note_on_c, 9, 42, 127
11, 14175, Note_on_c, 9, 42, 0
11, 14177, Note_on_c, 9, 37, 0
11, 14220, Note_on_c, 9, 37, 127
11, 14220, Note_on_c, 9, 36, 127
11, 14220, Note_on_c, 9, 42, 127
11, 14236, Note_on_c, 9, 42, 0
11, 14236, Note_on_c, 9, 36, 0
11, 14236, Note_on_c, 9, 37, 0
11, 14280, Note_on_c, 9, 62, 127
11, 14280, Note_on_c, 9, 37, 127
11, 14280, Note_on_c, 9, 42, 127
11, 14293, Note_on_c, 9, 37, 0
11, 14294, Note_on_c, 9, 42, 0
11, 14301, Note_on_c, 9, 62, 0
11, 14310, Note_on_c, 9, 37, 127
11, 14310, Note_on_c, 9, 42, 127
11, 14324, Note_on_c, 9, 42, 0
11, 14325, Note_on_c, 9, 37, 0
11, 14400, Note_on_c, 9, 62, 127
11, 14400, Note_on_c, 9, 42, 127
11, 14400, Note_on_c, 9, 37, 127
11, 14413, Note_on_c, 9, 37, 0
11, 14414, Note_on_c, 9, 42, 0
11, 14424, Note_on_c, 9, 62, 0
11, 14430, Note_on_c, 9, 36, 127
11, 14430, Note_on_c, 9, 42, 127
11, 14430, Note_on_c, 9, 37, 127
11, 14442, Note_on_c, 9, 42, 0
11, 14443, Note_on_c, 9, 37, 0
11, 14446, Note_on_c, 9, 36, 0
11, 14460, Note_on_c, 9, 42, 127
11, 14460, Note_on_c, 9, 37, 127
11, 14472, Note_on_c, 9, 42, 0
11, 14474, Note_on_c, 9, 37, 0
11, 14490, Note_on_c, 9, 42, 127
11, 14490, Note_on_c, 9, 37, 127
11, 14504, Note_on_c, 9, 37, 0
11, 14504, Note_on_c, 9, 42, 0
11, 14520, Note_on_c, 9, 62, 127
11, 14520, Note_on_c, 9, 42, 127
11, 14520, Note_on_c, 9, 37, 127
11, 14535, Note_on_c, 9, 42, 0
11, 14537, Note_on_c, 9, 37, 0
11, 14541, Note_on_c, 9, 62, 0
11, 14580, Note_on_c, 9, 36, 127
11, 14580, Note_on_c, 9, 42, 127
11, 14580, Note_on_c, 9, 37, 127
11, 14593, Note_on_c, 9, 37, 0
11, 14594, Note_on_c, 9, 36, 0
11, 14595, Note_on_c, 9, 42, 0
11, 14610, Note_on_c, 9, 36, 127
11, 14610, Note_on_c, 9, 42, 127
11, 14610, Note_on_c, 9, 37, 127
11, 14623, Note_on_c, 9, 37, 0
11, 14623, Note_on_c, 9, 42, 0
11, 14629, Note_on_c, 9, 36, 0
11, 14640, Note_on_c, 9, 42, 127
11, 14640, Note_on_c, 9, 37, 127
11, 14655, Note_on_c, 9, 42, 0
11, 14657, Note_on_c, 9, 37, 0
11, 14700, Note_on_c, 9, 36, 127
11, 14700, Note_on_c, 9, 42, 127
11, 14700, Note_on_c, 9, 37, 127
11, 14715, Note_on_c, 9, 42, 0
11, 14716, Note_on_c, 9, 37, 0
11, 14719, Note_on_c, 9, 36, 0
11, 14760, Note_on_c, 9, 62, 127
11, 14760, Note_on_c, 9, 42, 127
11, 14760, Note_on_c, 9, 37, 127
11, 14773, Note_on_c, 9, 37, 0
11, 14773, Note_on_c, 9, 42, 0
11, 14778, Note_on_c, 9, 62, 0
11, 14790, Note_on_c, 9, 42, 127
11, 14790, Note_on_c, 9, 37, 127
11, 14800, Note_on_c, 9, 42, 0
11, 14805, Note_on_c, 9, 37, 0
11, 14880, Note_on_c, 9, 62, 127
11, 14880, Note_on_c, 9, 42, 127
11, 14880, Note_on_c, 9, 37, 127
11, 14890, Note_on_c, 9, 42, 0
11, 14893, Note_on_c, 9, 37, 0
11, 14910, Note_on_c, 9, 42, 127
11, 14910, Note_on_c, 9, 37, 127
11, 14910, Note_on_c, 9, 36, 127
11, 14913, Note_on_c, 9, 62, 0
11, 14921, Note_on_c, 9, 42, 0
11, 14923, Note_on_c, 9, 37, 0
11, 14932, Note_on_c, 9, 36, 0
11, 14940, Note_on_c, 9, 42, 127
11, 14940, Note_on_c, 9, 37, 127
11, 14950, Note_on_c, 9, 42, 0
11, 14954, Note_on_c, 9, 37, 0
11, 14970, Note_on_c, 9, 42, 127
11, 14970, Note_on_c, 9, 37, 127
11, 14982, Note_on_c, 9, 42, 0
11, 14984, Note_on_c, 9, 37, 0
11, 15000, Note_on_c, 9, 62, 127
11, 15000, Note_on_c, 9, 42, 127
11, 15000, Note_on_c, 9, 37, 127
11, 15015, Note_on_c, 9, 42, 0
11, 15017, Note_on_c, 9, 37, 0
11, 15025, Note_on_c, 9, 62, 0
11, 15060, Note_on_c, 9, 42, 127
11, 15060, Note_on_c, 9, 37, 127
11, 15060, Note_on_c, 9, 36, 127
11, 15073, Note_on_c, 9, 37, 0
11, 15073, Note_on_c, 9, 42, 0
11, 15076, Note_on_c, 9, 36, 0
11, 15090, Note_on_c, 9, 42, 127
11, 15090, Note_on_c, 9, 37, 127
11, 15090, Note_on_c, 9, 36, 127
11, 15102, Note_on_c, 9, 42, 0
11, 15103, Note_on_c, 9, 37, 0
11, 15109, Note_on_c, 9, 36, 0
11, 15120, Note_on_c, 9, 42, 127
11, 15120, Note_on_c, 9, 37, 127
11, 15135, Note_on_c, 9, 42, 0
11, 15137, Note_on_c, 9, 37, 0
11, 15180, Note_on_c, 9, 42, 127
11, 15180, Note_on_c, 9, 37, 127
11, 15180, Note_on_c, 9, 36, 127
11, 15196, Note_on_c, 9, 36, 0
11, 15196, Note_on_c, 9, 37, 0
11, 15196, Note_on_c, 9, 42, 0
11, 15240, Note_on_c, 9, 62, 127
11, 15240, Note_on_c, 9, 42, 127
11, 15240, Note_on_c, 9, 37, 127
11, 15253, Note_on_c, 9, 37, 0
11, 15254, Note_on_c, 9, 42, 0
11, 15261, Note_on_c, 9, 62, 0
11, 15270, Note_on_c, 9, 42, 127
11, 15270, Note_on_c, 9, 37, 127
11, 15284, Note_on_c, 9, 42, 0
11, 15285, Note_on_c, 9, 37, 0
11, 15360, Note_on_c, 9, 62, 127
11, 15360, Note_on_c, 9, 42, 127
11, 15360, Note_on_c, 9, 37, 127
11, 15373, Note_on_c, 9, 37, 0
11, 15374, Note_on_c, 9, 42, 0
11, 15384, Note_on_c, 9, 62, 0
11, 15390, Note_on_c, 9, 42, 127
11, 15390, Note_on_c, 9, 36, 127
11, 15390, Note_on_c, 9, 37, 127
11, 15402, Note_on_c, 9, 42, 0
11, 15403, Note_on_c, 9, 37, 0
11, 15406, Note_on_c, 9, 36, 0
11, 15420, Note_on_c, 9, 42, 127
11, 15420, Note_on_c, 9, 37, 127
11, 15432, Note_on_c, 9, 42, 0
11, 15434, Note_on_c, 9, 37, 0
11, 15450, Note_on_c, 9, 42, 127
11, 15450, Note_on_c, 9, 37, 127
11, 15464, Note_on_c, 9, 37, 0
11, 15464, Note_on_c, 9, 42, 0
11, 15480, Note_on_c, 9, 62, 127
11, 15480, Note_on_c, 9, 42, 127
11, 15480, Note_on_c, 9, 37, 127
11, 15495, Note_on_c, 9, 42, 0
11, 15497, Note_on_c, 9, 37, 0
11, 15501, Note_on_c, 9, 62, 0
11, 15540, Note_on_c, 9, 42, 127
11, 15540, Note_on_c, 9, 36, 127
11, 15540, Note_on_c, 9, 37, 127
11, 15553, Note_on_c, 9, 37, 0
11, 15554, Note_on_c, 9, 36, 0
11, 15555, Note_on_c, 9, 42, 0
11, 15570, Note_on_c, 9, 42, 127
11, 15570, Note_on_c, 9, 36, 127
11, 15570, Note_on_c, 9, 37, 127
11, 15583, Note_on_c, 9, 37, 0
11, 15583, Note_on_c, 9, 42, 0
11, 15589, Note_on_c, 9, 36, 0
11, 15600, Note_on_c, 9, 42, 127
11, 15600, Note_on_c, 9, 37, 127
11, 15615, Note_on_c, 9, 42, 0
11, 15617, Note_on_c, 9, 37, 0
11, 15660, Note_on_c, 9, 42, 127
11, 15660, Note_on_c, 9, 36, 127
11, 15660, Note_on_c, 9, 37, 127
11, 15675, Note_on_c, 9, 42, 0
11, 15676, Note_on_c, 9, 37, 0
11, 15679, Note_on_c, 9, 36, 0
11, 15720, Note_on_c, 9, 62, 127
11, 15720, Note_on_c, 9, 42, 127
11, 15720, Note_on_c, 9, 37, 127
11, 15733, Note_on_c, 9, 37, 0
11, 15733, Note_on_c, 9, 42, 0
11, 15738, Note_on_c, 9, 62, 0
11, 15750, Note_on_c, 9, 42, 127
11, 15750, Note_on_c, 9, 37, 127
11, 15760, Note_on_c, 9, 42, 0
11, 15765, Note_on_c, 9, 37, 0
11, 15840, Note_on_c, 9, 62, 127
11, 15840, Note_on_c, 9, 42, 127
11, 15840, Note_on_c, 9, 37, 127
11, 15850, Note_on_c, 9, 42, 0
11, 15853, Note_on_c, 9, 37, 0
11, 15870, Note_on_c, 9, 37, 127
11, 15870, Note_on_c, 9, 36, 127
11, 15870, Note_on_c, 9, 42, 127
11, 15873, Note_on_c, 9, 62, 0
11, 15881, Note_on_c, 9, 42, 0
11, 15883, Note_on_c, 9, 37, 0
11, 15892, Note_on_c, 9, 36, 0
11, 15900, Note_on_c, 9, 37, 127
11, 15900, Note_on_c, 9, 42, 127
11, 15910, Note_on_c, 9, 42, 0
11, 15914, Note_on_c, 9, 37, 0
11, 15930, Note_on_c, 9, 37, 127
11, 15930, Note_on_c, 9, 42, 127
11, 15942, Note_on_c, 9, 42, 0
11, 15944, Note_on_c, 9, 37, 0
11, 15960, Note_on_c, 9, 62, 127
11, 15960, Note_on_c, 9, 37, 127
11, 15960, Note_on_c, 9, 42, 127
11, 15975, Note_on_c, 9, 42, 0
11, 15977, Note_on_c, 9, 37, 0
11, 15985, Note_on_c, 9, 62, 0
11, 16020, Note_on_c, 9, 37, 127
11, 16020, Note_on_c, 9, 36, 127
11, 16020, Note_on_c, 9, 42, 127
11, 16033, Note_on_c, 9, 42, 0
11, 16033, Note_on_c, 9, 37, 0
11, 16036, Note_on_c, 9, 36, 0
11, 16050, Note_on_c, 9, 37, 127
11, 16050, Note_on_c, 9, 36, 127
11, 16050, Note_on_c, 9, 42, 127
11, 16062, Note_on_c, 9, 42, 0
11, 16063, Note_on_c, 9, 37, 0
11, 16069, Note_on_c, 9, 36, 0
11, 16080, Note_on_c, 9, 37, 127
11, 16080, Note_on_c, 9, 42, 127
11, 16095, Note_on_c, 9, 42, 0
11, 16097, Note_on_c, 9, 37, 0
11, 16140, Note_on_c, 9, 37, 127
11, 16140, Note_on_c, 9, 36, 127
11, 16140, Note_on_c, 9, 42, 127
11, 16156, Note_on_c, 9, 42, 0
11, 16156, Note_on_c, 9, 36, 0
11, 16156, Note_on_c, 9, 37, 0
11, 16200, Note_on_c, 9, 62, 127
11, 16200, Note_on_c, 9, 37, 127
11, 16200, Note_on_c, 9, 42, 127
11, 16213, Note_on_c, 9, 37, 0
11, 16214, Note_on_c, 9, 42, 0
11, 16221, Note_on_c, 9, 62, 0
11, 16230, Note_on_c, 9, 37, 127
11, 16230, Note_on_c, 9, 42, 127
11, 16244, Note_on_c, 9, 42, 0
11, 16245, Note_on_c, 9, 37, 0
11, 16320, Note_on_c, 9, 62, 127
11, 16320, Note_on_c, 9, 42, 127
11, 16320, Note_on_c, 9, 37, 127
11, 16333, Note_on_c, 9, 37, 0
11, 16334, Note_on_c, 9, 42, 0
11, 16344, Note_on_c, 9, 62, 0
11, 16350, Note_on_c, 9, 36, 127
11, 16350, Note_on_c, 9, 42, 127
11, 16350, Note_on_c, 9, 37, 127
11, 16362, Note_on_c, 9, 42, 0
11, 16363, Note_on_c, 9, 37, 0
11, 16366, Note_on_c, 9, 36, 0
11, 16380, Note_on_c, 9, 42, 127
11, 16380, Note_on_c, 9, 37, 127
11, 16392, Note_on_c, 9, 42, 0
11, 16394, Note_on_c, 9, 37, 0
11, 16410, Note_on_c, 9, 42, 127
11, 16410, Note_on_c, 9, 37, 127
11, 16424, Note_on_c, 9, 37, 0
11, 16424, Note_on_c, 9, 42, 0
11, 16440, Note_on_c, 9, 62, 127
11, 16440, Note_on_c, 9, 42, 127
11, 16440, Note_on_c, 9, 37, 127
11, 16455, Note_on_c, 9, 42, 0
11, 16457, Note_on_c, 9, 37, 0
11, 16461, Note_on_c, 9, 62, 0
11, 16500, Note_on_c, 9, 36, 127
11, 16500, Note_on_c, 9, 42, 127
11, 16500, Note_on_c, 9, 37, 127
11, 16513, Note_on_c, 9, 37, 0
11, 16514, Note_on_c, 9, 36, 0
11, 16515, Note_on_c, 9, 42, 0
11, 16530, Note_on_c, 9, 36, 127
11, 16530, Note_on_c, 9, 42, 127
11, 16530, Note_on_c, 9, 37, 127
11, 16543, Note_on_c, 9, 37, 0
11, 16543, Note_on_c, 9, 42, 0
11, 16549, Note_on_c, 9, 36, 0
11, 16560, Note_on_c, 9, 42, 127
11, 16560, Note_on_c, 9, 37, 127
11, 16575, Note_on_c, 9, 42, 0
11, 16577, Note_on_c, 9, 37, 0
11, 16620, Note_on_c, 9, 36, 127
11, 16620, Note_on_c, 9, 42, 127
11, 16620, Note_on_c, 9, 37, 127
11, 16635, Note_on_c, 9, 42, 0
11, 16636, Note_on_c, 9, 37, 0
11, 16639, Note_on_c, 9, 36, 0
11, 16680, Note_on_c, 9, 62, 127
11, 16680, Note_on_c, 9, 42, 127
11, 16680, Note_on_c, 9, 37, 127
11, 16693, Note_on_c, 9, 37, 0
11, 16693, Note_on_c, 9, 42, 0
11, 16698, Note_on_c, 9, 62, 0
11, 16710, Note_on_c, 9, 42, 127
11, 16710, Note_on_c, 9, 37, 127
11, 16720, Note_on_c, 9, 42, 0
11, 16725, Note_on_c, 9, 37, 0
11, 16800, Note_on_c, 9, 62, 127
11, 16800, Note_on_c, 9, 42, 127
11, 16800, Note_on_c, 9, 37, 127
11, 16810, Note_on_c, 9, 42, 0
11, 16813, Note_on_c, 9, 37, 0
11, 16830, Note_on_c, 9, 42, 127
11, 16830, Note_on_c, 9, 37, 127
11, 16830, Note_on_c, 9, 36, 127
11, 16833, Note_on_c, 9, 62, 0
11, 16841, Note_on_c, 9, 42, 0
11, 16843, Note_on_c, 9, 37, 0
11, 16852, Note_on_c, 9, 36, 0
11, 16860, Note_on_c, 9, 42, 127
11, 16860, Note_on_c, 9, 37, 127
11, 16870, Note_on_c, 9, 42, 0
11, 16874, Note_on_c, 9, 37, 0
11, 16890, Note_on_c, 9, 42, 127
11, 16890, Note_on_c, 9, 37, 127
11, 16902, Note_on_c, 9, 42, 0
11, 16904, Note_on_c, 9, 37, 0
11, 16920, Note_on_c, 9, 62, 127
11, 16920, Note_on_c, 9, 42, 127
11, 16920, Note_on_c, 9, 37, 127
11, 16935, Note_on_c, 9, 42, 0
11, 16937, Note_on_c, 9, 37, 0
11, 16945, Note_on_c, 9, 62, 0
11, 16980, Note_on_c, 9, 42, 127
11, 16980, Note_on_c, 9, 37, 127
11, 16980, Note_on_c, 9, 36, 127
11, 16993, Note_on_c, 9, 37, 0
11, 16993, Note_on_c, 9, 42, 0
11, 16996, Note_on_c, 9, 36, 0
11, 17010, Note_on_c, 9, 42, 127
11, 17010, Note_on_c, 9, 37, 127
11, 17010, Note_on_c, 9, 36, 127
11, 17022, Note_on_c, 9, 42, 0
11, 17023, Note_on_c, 9, 37, 0
11, 17029, Note_on_c, 9, 36, 0
11, 17040, Note_on_c, 9, 42, 127
11, 17040, Note_on_c, 9, 37, 127
11, 17055, Note_on_c, 9, 42, 0
11, 17057, Note_on_c, 9, 37, 0
11, 17100, Note_on_c, 9, 42, 127
11, 17100, Note_on_c, 9, 37, 127
11, 17100, Note_on_c, 9, 36, 127
11, 17116, Note_on_c, 9, 36, 0
11, 17116, Note_on_c, 9, 37, 0
11, 17116, Note_on_c, 9, 42, 0
11, 17160, Note_on_c, 9, 62, 127
11, 17160, Note_on_c, 9, 42, 127
11, 17160, Note_on_c, 9, 37, 127
11, 17173, Note_on_c, 9, 37, 0
11, 17174, Note_on_c, 9, 42, 0
11, 17181, Note_on_c, 9, 62, 0
11, 17190, Note_on_c, 9, 42, 127
11, 17190, Note_on_c, 9, 37, 127
11, 17204, Note_on_c, 9, 42, 0
11, 17205, Note_on_c, 9, 37, 0
11, 17280, Note_on_c, 9, 62, 127
11, 17280, Note_on_c, 9, 42, 127
11, 17280, Note_on_c, 9, 37, 127
11, 17293, Note_on_c, 9, 37, 0
11, 17294, Note_on_c, 9, 42, 0
11, 17304, Note_on_c, 9, 62, 0
11, 17310, Note_on_c, 9, 42, 127
11, 17310, Note_on_c, 9, 36, 127
11, 17310, Note_on_c, 9, 37, 127
11, 17322, Note_on_c, 9, 42, 0
11, 17323, Note_on_c, 9, 37, 0
11, 17326, Note_on_c, 9, 36, 0
11, 17340, Note_on_c, 9, 42, 127
11, 17340, Note_on_c, 9, 37, 127
11, 17352, Note_on_c, 9, 42, 0
11, 17354, Note_on_c, 9, 37, 0
11, 17370, Note_on_c, 9, 42, 127
11, 17370, Note_on_c, 9, 37, 127
11, 17384, Note_on_c, 9, 37, 0
11, 17384, Note_on_c, 9, 42, 0
11, 17400, Note_on_c, 9, 62, 127
11, 17400, Note_on_c, 9, 42, 127
11, 17400, Note_on_c, 9, 37, 127
11, 17415, Note_on_c, 9, 42, 0
11, 17417, Note_on_c, 9, 37, 0
11, 17421, Note_on_c, 9, 62, 0
11, 17460, Note_on_c, 9, 42, 127
11, 17460, Note_on_c, 9, 36, 127
11, 17460, Note_on_c, 9, 37, 127
11, 17473, Note_on_c, 9, 37, 0
11, 17474, Note_on_c, 9, 36, 0
11, 17475, Note_on_c, 9, 42, 0
11, 17490, Note_on_c, 9, 42, 127
11, 17490, Note_on_c, 9, 36, 127
11, 17490, Note_on_c, 9, 37, 127
11, 17503, Note_on_c, 9, 37, 0
11, 17503, Note_on_c, 9, 42, 0
11, 17509, Note_on_c, 9, 36, 0
11, 17520, Note_on_c, 9, 42, 127
11, 17520, Note_on_c, 9, 37, 127
11, 17535, Note_on_c, 9, 42, 0
11, 17537, Note_on_c, 9, 37, 0
11, 17580, Note_on_c, 9, 42, 127
11, 17580, Note_on_c, 9, 36, 127
11, 17580, Note_on_c, 9, 37, 127
11, 17595, Note_on_c, 9, 42, 0
11, 17596, Note_on_c, 9, 37, 0
11, 17599, Note_on_c, 9, 36, 0
11, 17640, Note_on_c, 9, 62, 127
11, 17640, Note_on_c, 9, 42, 127
11, 17640, Note_on_c, 9, 37, 127
11, 17653, Note_on_c, 9, 37, 0
11, 17653, Note_on_c, 9, 42, 0
11, 17658, Note_on_c, 9, 62, 0
11, 17670, Note_on_c, 9, 42, 127
11, 17670, Note_on_c, 9, 37, 127
11, 17680, Note_on_c, 9, 42, 0
11, 17685, Note_on_c, 9, 37, 0
11, 17760, Note_on_c, 9, 62, 127
11, 17760, Note_on_c, 9, 42, 127
11, 17760, Note_on_c, 9, 37, 127
11, 17770, Note_on_c, 9, 42, 0
11, 17773, Note_on_c, 9, 37, 0
11, 17790, Note_on_c, 9, 37, 127
11, 17790, Note_on_c, 9, 36, 127
11, 17790, Note_on_c, 9, 42, 127
11, 17793, Note_on_c, 9, 62, 0
11, 17801, Note_on_c, 9, 42, 0
11, 17803, Note_on_c, 9, 37, 0
11, 17812, Note_on_c, 9, 36, 0
11, 17820, Note_on_c, 9, 37, 127
11, 17820, Note_on_c, 9, 42, 127
11, 17830, Note_on_c, 9, 42, 0
11, 17834, Note_on_c, 9, 37, 0
11, 17850, Note_on_c, 9, 37, 127
11, 17850, Note_on_c, 9, 42, 127
11, 17862, Note_on_c, 9, 42, 0
11, 17864, Note_on_c, 9, 37, 0
11, 17880, Note_on_c, 9, 62, 127
11, 17880, Note_on_c, 9, 37, 127
11, 17880, Note_on_c, 9, 42, 127
11, 17895, Note_on_c, 9, 42, 0
11, 17897, Note_on_c, 9, 37, 0
11, 17905, Note_on_c, 9, 62, 0
11, 17940, Note_on_c, 9, 37, 127
11, 17940, Note_on_c, 9, 36, 127
11, 17940, Note_on_c, 9, 42, 127
11, 17953, Note_on_c, 9, 42, 0
11, 17953, Note_on_c, 9, 37, 0
11, 17956, Note_on_c, 9, 36, 0
11, 17970, Note_on_c, 9, 37, 127
11, 17970, Note_on_c, 9, 36, 127
11, 17970, Note_on_c, 9, 42, 127
11, 17982, Note_on_c, 9, 42, 0
11, 17983, Note_on_c, 9, 37, 0
11, 17989, Note_on_c, 9, 36, 0
11, 18000, Note_on_c, 9, 37, 127
11, 18000, Note_on_c, 9, 42, 127
11, 18015, Note_on_c, 9, 42, 0
11, 18017, Note_on_c, 9, 37, 0
11, 18060, Note_on_c, 9, 37, 127
11, 18060, Note_on_c, 9, 36, 127
11, 18060, Note_on_c, 9, 42, 127
11, 18076, Note_on_c, 9, 42, 0
11, 18076, Note_on_c, 9, 36, 0
11, 18076, Note_on_c, 9, 37, 0
11, 18120, Note_on_c, 9, 62, 127
11, 18120, Note_on_c, 9, 37, 127
11, 18120, Note_on_c, 9, 42, 127
11, 18133, Note_on_c, 9, 37, 0
11, 18134, Note_on_c, 9, 42, 0
11, 18141, Note_on_c, 9, 62, 0
11, 18150, Note_on_c, 9, 37, 127
11, 18150, Note_on_c, 9, 42, 127
11, 18164, Note_on_c, 9, 42, 0
11, 18165, Note_on_c, 9, 37, 0
11, 18240, Note_on_c, 9, 62, 127
11, 18240, Note_on_c, 9, 42, 127
11, 18240, Note_on_c, 9, 37, 127
11, 18253, Note_on_c, 9, 37, 0
11, 18254, Note_on_c, 9, 42, 0
11, 18264, Note_on_c, 9, 62, 0
11, 18270, Note_on_c, 9, 36, 127
11, 18270, Note_on_c, 9, 42, 127
11, 18270, Note_on_c, 9, 37, 127
11, 18282, Note_on_c, 9, 42, 0
11, 18283, Note_on_c, 9, 37, 0
11, 18286, Note_on_c, 9, 36, 0
11, 18300, Note_on_c, 9, 42, 127
11, 18300, Note_on_c, 9, 37, 127
11, 18312, Note_on_c, 9, 42, 0
11, 18314, Note_on_c, 9, 37, 0
11, 18330, Note_on_c, 9, 42, 127
11, 18330, Note_on_c, 9, 37, 127
11, 18344, Note_on_c, 9, 37, 0
11, 18344, Note_on_c, 9, 42, 0
11, 18360, Note_on_c, 9, 62, 127
11, 18360, Note_on_c, 9, 42, 127
11, 18360, Note_on_c, 9, 37, 127
11, 18375, Note_on_c, 9, 42, 0
11, 18377, Note_on_c, 9, 37, 0
11, 18381, Note_on_c, 9, 62, 0
11, 18420, Note_on_c, 9, 36, 127
11, 18420, Note_on_c, 9, 42, 127
11, 18420, Note_on_c, 9, 37, 127
11, 18433, Note_on_c, 9, 37, 0
11, 18434, Note_on_c, 9, 36, 0
11, 18435, Note_on_c, 9, 42, 0
11, 18450, Note_on_c, 9, 36, 127
11, 18450, Note_on_c, 9, 42, 127
11, 18450, Note_on_c, 9, 37, 127
11, 18463, Note_on_c, 9, 37, 0
11, 18463, Note_on_c, 9, 42, 0
11, 18469, Note_on_c, 9, 36, 0
11, 18480, Note_on_c, 9, 42, 127
11, 18480, Note_on_c, 9, 37, 127
11, 18495, Note_on_c, 9, 42, 0
11, 18497, Note_on_c, 9, 37, 0
11, 18540, Note_on_c, 9, 36, 127
11, 18540, Note_on_c, 9, 42, 127
11, 18540, Note_on_c, 9, 37, 127
11, 18555, Note_on_c, 9, 42, 0
11, 18556, Note_on_c, 9, 37, 0
11, 18559, Note_on_c, 9, 36, 0
11, 18600, Note_on_c, 9, 62, 127
11, 18600, Note_on_c, 9, 42, 127
11, 18600, Note_on_c, 9, 37, 127
11, 18613, Note_on_c, 9, 37, 0
11, 18613, Note_on_c, 9, 42, 0
11, 18618, Note_on_c, 9, 62, 0
11, 18630, Note_on_c, 9, 42, 127
11, 18630, Note_on_c, 9, 37, 127
11, 18640, Note_on_c, 9, 42, 0
11, 18645, Note_on_c, 9, 37, 0
11, 18720, Note_on_c, 9, 62, 127
11, 18720, Note_on_c, 9, 42, 127
11, 18720, Note_on_c, 9, 37, 127
11, 18730, Note_on_c, 9, 42, 0
11, 18733, Note_on_c, 9, 37, 0
11, 18750, Note_on_c, 9, 37, 127
11, 18750, Note_on_c, 9, 36, 127
11, 18750, Note_on_c, 9, 42, 127
11, 18753, Note_on_c, 9, 62, 0
11, 18761, Note_on_c, 9, 42, 0
11, 18763, Note_on_c, 9, 37, 0
11, 18772, Note_on_c, 9, 36, 0
11, 18780, Note_on_c, 9, 37, 127
11, 18780, Note_on_c, 9, 42, 127
11, 18790, Note_on_c, 9, 42, 0
11, 18794, Note_on_c, 9, 37, 0
11, 18810, Note_on_c, 9, 37, 127
11, 18810, Note_on_c, 9, 42, 127
11, 18822, Note_on_c, 9, 42, 0
11, 18824, Note_on_c, 9, 37, 0
11, 18840, Note_on_c, 9, 62, 127
11, 18840, Note_on_c, 9, 37, 127
11, 18840, Note_on_c, 9, 42, 127
11, 18855, Note_on_c, 9, 42, 0
11, 18857, Note_on_c, 9, 37, 0
11, 18865, Note_on_c, 9, 62, 0
11, 18900, Note_on_c, 9, 37, 127
11, 18900, Note_on_c, 9, 36, 127
11, 18900, Note_on_c, 9, 42, 127
11, 18913, Note_on_c, 9, 42, 0
11, 18913, Note_on_c, 9, 37, 0
11, 18916, Note_on_c, 9, 36, 0
11, 18930, Note_on_c, 9, 37, 127
11, 18930, Note_on_c, 9, 36, 127
11, 18930, Note_on_c, 9, 42, 127
11, 18942, Note_on_c, 9, 42, 0
11, 18943, Note_on_c, 9, 37, 0
11, 18949, Note_on_c, 9, 36, 0
11, 18960, Note_on_c, 9, 37, 127
11, 18960, Note_on_c, 9, 42, 127
11, 18975, Note_on_c, 9, 42, 0
11, 18977, Note_on_c, 9, 37, 0
11, 19020, Note_on_c, 9, 37, 127
11, 19020, Note_on_c, 9, 36, 127
11, 19020, Note_on_c, 9, 42, 127
11, 19036, Note_on_c, 9, 42, 0
11, 19036, Note_on_c, 9, 36, 0
11, 19036, Note_on_c, 9, 37, 0
11, 19080, Note_on_c, 9, 62, 127
11, 19080, Note_on_c, 9, 37, 127
11, 19080, Note_on_c, 9, 42, 127
11, 19093, Note_on_c, 9, 37, 0
11, 19094, Note_on_c, 9, 42, 0
11, 19101, Note_on_c, 9, 62, 0
11, 19110, Note_on_c, 9, 37, 127
11, 19110, Note_on_c, 9, 42, 127
11, 19124, Note_on_c, 9, 42, 0
11, 19125, Note_on_c, 9, 37, 0
11, 19200, Note_on_c, 9, 62, 127
11, 19200, Note_on_c, 9, 42, 127
11, 19200, Note_on_c, 9, 37, 127
11, 19213, Note_on_c, 9, 37, 0
11, 19214, Note_on_c, 9, 42, 0
11, 19224, Note_on_c, 9, 62, 0
11, 19230, Note_on_c, 9, 36, 127
11, 19230, Note_on_c, 9, 42, 127
11, 19230, Note_on_c, 9, 37, 127
11, 19242, Note_on_c, 9, 42, 0
11, 19243, Note_on_c, 9, 37, 0
11, 19246, Note_on_c, 9, 36, 0
11, 19260, Note_on_c, 9, 42, 127
11, 19260, Note_on_c, 9, 37, 127
11, 19272, Note_on_c, 9, 42, 0
11, 19274, Note_on_c, 9, 37, 0
11, 19290, Note_on_c, 9, 42, 127
11, 19290, Note_on_c, 9, 37, 127
11, 19304, Note_on_c, 9, 37, 0
11, 19304, Note_on_c, 9, 42, 0
11, 19320, Note_on_c, 9, 62, 127
11, 19320, Note_on_c, 9, 42, 127
11, 19320, Note_on_c, 9, 37, 127
11, 19335, Note_on_c, 9, 42, 0
11, 19337, Note_on_c, 9, 37, 0
11, 19341, Note_on_c, 9, 62, 0
11, 19380, Note_on_c, 9, 36, 127
11, 19380, Note_on_c, 9, 42, 127
11, 19380, Note_on_c, 9, 37, 127
11, 19393, Note_on_c, 9, 37, 0
11, 19394, Note_on_c, 9, 36, 0
11, 19395, Note_on_c, 9, 42, 0
11, 19410, Note_on_c, 9, 36, 127
11, 19410, Note_on_c, 9, 42, 127
11, 19410, Note_on_c, 9, 37, 127
11, 19423, Note_on_c, 9, 37, 0
11, 19423, Note_on_c, 9, 42, 0
11, 19429, Note_on_c, 9, 36, 0
11, 19440, Note_on_c, 9, 42, 127
11, 19440, Note_on_c, 9, 37, 127
11, 19455, Note_on_c, 9, 42, 0
11, 19457, Note_on_c, 9, 37, 0
11, 19500, Note_on_c, 9, 36, 127
11, 19500, Note_on_c, 9, 42, 127
11, 19500, Note_on_c, 9, 37, 127
11, 19515, Note_on_c, 9, 42, 0
11, 19516, Note_on_c, 9, 37, 0
11, 19519, Note_on_c, 9, 36, 0
11, 19560, Note_on_c, 9, 62, 127
11, 19560, Note_on_c, 9, 42, 127
11, 19560, Note_on_c, 9, 37, 127
11, 19573, Note_on_c, 9, 37, 0
11, 19573, Note_on_c, 9, 42, 0
11, 19578, Note_on_c, 9, 62, 0
11, 19590, Note_on_c, 9, 42, 127
11, 19590, Note_on_c, 9, 37, 127
11, 19600, Note_on_c, 9, 42, 0
11, 19605, Note_on_c, 9, 37, 0
11, 19680, Note_on_c, 9, 62, 127
11, 19680, Note_on_c, 9, 42, 127
11, 19680, Note_on_c, 9, 37, 127
11, 19690, Note_on_c, 9, 42, 0
11, 19693, Note_on_c, 9, 37, 0
11, 19710, Note_on_c, 9, 42, 127
11, 19710, Note_on_c, 9, 37, 127
11, 19710, Note_on_c, 9, 36, 127
11, 19713, Note_on_c, 9, 62, 0
11, 19721, Note_on_c, 9, 42, 0
11, 19723, Note_on_c, 9, 37, 0
11, 19732, Note_on_c, 9, 36, 0
11, 19740, Note_on_c, 9, 42, 127
11, 19740, Note_on_c, 9, 37, 127
11, 19750, Note_on_c, 9, 42, 0
11, 19754, Note_on_c, 9, 37, 0
11, 19770, Note_on_c, 9, 42, 127
11, 19770, Note_on_c, 9, 37, 127
11, 19782, Note_on_c, 9, 42, 0
11, 19784, Note_on_c, 9, 37, 0
11, 19800, Note_on_c, 9, 62, 127
11, 19800, Note_on_c, 9, 42, 127
11, 19800, Note_on_c, 9, 37, 127
11, 19815, Note_on_c, 9, 42, 0
11, 19817, Note_on_c, 9, 37, 0
11, 19825, Note_on_c, 9, 62, 0
11, 19860, Note_on_c, 9, 42, 127
11, 19860, Note_on_c, 9, 37, 127
11, 19860, Note_on_c, 9, 36, 127
11, 19873, Note_on_c, 9, 37, 0
11, 19873, Note_on_c, 9, 42, 0
11, 19876, Note_on_c, 9, 36, 0
11, 19890, Note_on_c, 9, 42, 127
11, 19890, Note_on_c, 9, 37, 127
11, 19890, Note_on_c, 9, 36, 127
11, 19902, Note_on_c, 9, 42, 0
11, 19903, Note_on_c, 9, 37, 0
11, 19909, Note_on_c, 9, 36, 0
11, 19920, Note_on_c, 9, 42, 127
11, 19920, Note_on_c, 9, 37, 127
11, 19935, Note_on_c, 9, 42, 0
11, 19937, Note_on_c, 9, 37, 0
11, 19980, Note_on_c, 9, 42, 127
11, 19980, Note_on_c, 9, 37, 127
11, 19980, Note_on_c, 9, 36, 127
11, 19996, Note_on_c, 9, 36, 0
11, 19996, Note_on_c, 9, 37, 0
11, 19996, Note_on_c, 9, 42, 0
11, 20040, Note_on_c, 9, 62, 127
11, 20040, Note_on_c, 9, 42, 127
11, 20040, Note_on_c, 9, 37, 127
11, 20053, Note_on_c, 9, 37, 0
11, 20054, Note_on_c, 9, 42, 0
11, 20061, Note_on_c, 9, 62, 0
11, 20070, Note_on_c, 9, 42, 127
11, 20070, Note_on_c, 9, 37, 127
11, 20084, Note_on_c, 9, 42, 0
11, 20085, Note_on_c, 9, 37, 0
11, 20160, Note_on_c, 9, 62, 127
11, 20160, Note_on_c, 9, 42, 127
11, 20160, Note_on_c, 9, 37, 127
11, 20173, Note_on_c, 9, 37, 0
11, 20174, Note_on_c, 9, 42, 0
11, 20184, Note_on_c, 9, 62, 0
11, 20190, Note_on_c, 9, 42, 127
11, 20190, Note_on_c, 9, 36, 127
11, 20190, Note_on_c, 9, 37, 127
11, 20202, Note_on_c, 9, 42, 0
11, 20203, Note_on_c, 9, 37, 0
11, 20206, Note_on_c, 9, 36, 0
11, 20220, Note_on_c, 9, 42, 127
11, 20220, Note_on_c, 9, 37, 127
11, 20232, Note_on_c, 9, 42, 0
11, 20234, Note_on_c, 9, 37, 0
11, 20250, Note_on_c, 9, 42, 127
11, 20250, Note_on_c, 9, 37, 127
11, 20264, Note_on_c, 9, 37, 0
11, 20264, Note_on_c, 9, 42, 0
11, 20280, Note_on_c, 9, 62, 127
11, 20280, Note_on_c, 9, 42, 127
11, 20280, Note_on_c, 9, 37, 127
11, 20295, Note_on_c, 9, 42, 0
11, 20297, Note_on_c, 9, 37, 0
11, 20301, Note_on_c, 9, 62, 0
11, 20340, Note_on_c, 9, 42, 127
11, 20340, Note_on_c, 9, 36, 127
11, 20340, Note_on_c, 9, 37, 127
11, 20353, Note_on_c, 9, 37, 0
11, 20354, Note_on_c, 9, 36, 0
11, 20355, Note_on_c, 9, 42, 0
11, 20370, Note_on_c, 9, 42, 127
11, 20370, Note_on_c, 9, 36, 127
11, 20370, Note_on_c, 9, 37, 127
11, 20383, Note_on_c, 9, 37, 0
11, 20383, Note_on_c, 9, 42, 0
11, 20389, Note_on_c, 9, 36, 0
11, 20400, Note_on_c, 9, 42, 127
11, 20400, Note_on_c, 9, 37, 127
11, 20415, Note_on_c, 9, 42, 0
11, 20417, Note_on_c, 9, 37, 0
11, 20460, Note_on_c, 9, 42, 127
11, 20460, Note_on_c, 9, 36, 127
11, 20460, Note_on_c, 9, 37, 127
11, 20475, Note_on_c, 9, 42, 0
11, 20476, Note_on_c, 9, 37, 0
11, 20479, Note_on_c, 9, 36, 0
11, 20520, Note_on_c, 9, 62, 127
11, 20520, Note_on_c, 9, 42, 127
11, 20520, Note_on_c, 9, 37, 127
11, 20533, Note_on_c, 9, 37, 0
11, 20533, Note_on_c, 9, 42, 0
11, 20538, Note_on_c, 9, 62, 0
11, 20550, Note_on_c, 9, 42, 127
11, 20550, Note_on_c, 9, 37, 127
11, 20560, Note_on_c, 9, 42, 0
11, 20565, Note_on_c, 9, 37, 0
11, 20640, Note_on_c, 9, 62, 127
11, 20640, Note_on_c, 9, 42, 127
11, 20640, Note_on_c, 9, 37, 127
11, 20650, Note_on_c, 9, 42, 0
11, 20653, Note_on_c, 9, 37, 0
11, 20670, Note_on_c, 9, 37, 127
11, 20670, Note_on_c, 9, 36, 127
11, 20670, Note_on_c, 9, 42, 127
11, 20673, Note_on_c, 9, 62, 0
11, 20681, Note_on_c, 9, 42, 0
11, 20683, Note_on_c, 9, 37, 0
11, 20692, Note_on_c, 9, 36, 0
11, 20700, Note_on_c, 9, 37, 127
11, 20700, Note_on_c, 9, 42, 127
11, 20710, Note_on_c, 9, 42, 0
11, 20714, Note_on_c, 9, 37, 0
11, 20730, Note_on_c, 9, 37, 127
11, 20730, Note_on_c, 9, 42, 127
11, 20742, Note_on_c, 9, 42, 0
11, 20744, Note_on_c, 9, 37, 0
11, 20760, Note_on_c, 9, 62, 127
11, 20760, Note_on_c, 9, 37, 127
11, 20760, Note_on_c, 9, 42, 127
11, 20775, Note_on_c, 9, 42, 0
11, 20777, Note_on_c, 9, 37, 0
11, 20785, Note_on_c, 9, 62, 0
11, 20820, Note_on_c, 9, 37, 127
11, 20820, Note_on_c, 9, 36, 127
11, 20820, Note_on_c, 9, 42, 127
11, 20833, Note_on_c, 9, 42, 0
11, 20833, Note_on_c, 9, 37, 0
11, 20836, Note_on_c, 9, 36, 0
11, 20850, Note_on_c, 9, 37, 127
11, 20850, Note_on_c, 9, 36, 127
11, 20850, Note_on_c, 9, 42, 127
11, 20862, Note_on_c, 9, 42, 0
11, 20863, Note_on_c, 9, 37, 0
11, 20869, Note_on_c, 9, 36, 0
11, 20880, Note_on_c, 9, 37, 127
11, 20880, Note_on_c, 9, 42, 127
11, 20895, Note_on_c, 9, 42, 0
11, 20897, Note_on_c, 9, 37, 0
11, 20940, Note_on_c, 9, 37, 127
11, 20940, Note_on_c, 9, 36, 127
11, 20940, Note_on_c, 9, 42, 127
11, 20956, Note_on_c, 9, 42, 0
11, 20956, Note_on_c, 9, 36, 0
11, 20956, Note_on_c, 9, 37, 0
11, 21000, Note_on_c, 9, 62, 127
11, 21000, Note_on_c, 9, 37, 127
11, 21000, Note_on_c, 9, 42, 127
11, 21013, Note_on_c, 9, 37, 0
11, 21014, Note_on_c, 9, 42, 0
11, 21021, Note_on_c, 9, 62, 0
11, 21030, Note_on_c, 9, 37, 127
11, 21030, Note_on_c, 9, 42, 127
11, 21044, Note_on_c, 9, 42, 0
11, 21045, Note_on_c, 9, 37, 0
11, 21120, Note_on_c, 9, 62, 127
11, 21120, Note_on_c, 9, 42, 127
11, 21120, Note_on_c, 9, 37, 127
11, 21133, Note_on_c, 9, 37, 0
11, 21134, Note_on_c, 9, 42, 0
11, 21144, Note_on_c, 9, 62, 0
11, 21150, Note_on_c, 9, 36, 127
11, 21150, Note_on_c, 9, 42, 127
11, 21150, Note_on_c, 9, 37, 127
11, 21162, Note_on_c, 9, 42, 0
11, 21163, Note_on_c, 9, 37, 0
11, 21166, Note_on_c, 9, 36, 0
11, 21180, Note_on_c, 9, 42, 127
11, 21180, Note_on_c, 9, 37, 127
11, 21192, Note_on_c, 9, 42, 0
11, 21194, Note_on_c, 9, 37, 0
11, 21210, Note_on_c, 9, 42, 127
11, 21210, Note_on_c, 9, 37, 127
11, 21224, Note_on_c, 9, 37, 0
11, 21224, Note_on_c, 9, 42, 0
11, 21240, Note_on_c, 9, 62, 127
11, 21240, Note_on_c, 9, 42, 127
11, 21240, Note_on_c, 9, 37, 127
11, 21255, Note_on_c, 9, 42, 0
11, 21257, Note_on_c, 9, 37, 0
11, 21261, Note_on_c, 9, 62, 0
11, 21300, Note_on_c, 9, 36, 127
11, 21300, Note_on_c, 9, 42, 127
11, 21300, Note_on_c, 9, 37, 127
11, 21313, Note_on_c, 9, 37, 0
11, 21314, Note_on_c, 9, 36, 0
11, 21315, Note_on_c, 9, 42, 0
11, 21330, Note_on_c, 9, 36, 127
11, 21330, Note_on_c, 9, 42, 127
11, 21330, Note_on_c, 9, 37, 127
11, 21343, Note_on_c, 9, 37, 0
11, 21343, Note_on_c, 9, 42, 0
11, 21349, Note_on_c, 9, 36, 0
11, 21360, Note_on_c, 9, 42, 127
11, 21360, Note_on_c, 9, 37, 127
11, 21375, Note_on_c, 9, 42, 0
11, 21377, Note_on_c, 9, 37, 0
11, 21420, Note_on_c, 9, 36, 127
11, 21420, Note_on_c, 9, 42, 127
11, 21420, Note_on_c, 9, 37, 127
11, 21435, Note_on_c, 9, 42, 0
11, 21436, Note_on_c, 9, 37, 0
11, 21439, Note_on_c, 9, 36, 0
11, 21480, Note_on_c, 9, 62, 127
11, 21480, Note_on_c, 9, 42, 127
11, 21480, Note_on_c, 9, 37, 127
11, 21493, Note_on_c, 9, 37, 0
11, 21493, Note_on_c, 9, 42, 0
11, 21498, Note_on_c, 9, 62, 0
11, 21510, Note_on_c, 9, 42, 127
11, 21510, Note_on_c, 9, 37, 127
11, 21520, Note_on_c, 9, 42, 0
11, 21525, Note_on_c, 9, 37, 0
11, 21600, Note_on_c, 9, 35, 127
11, 21600, Note_on_c, 9, 62, 127
11, 21600, Note_on_c, 9, 42, 127
11, 21600, Note_on_c, 9, 37, 127
11, 21610, Note_on_c, 9, 42, 0
11, 21613, Note_on_c, 9, 37, 0
11, 21629, Note_on_c, 9, 35, 127
11, 21630, Note_on_c, 9, 35, 0
11, 21630, Note_on_c, 9, 42, 127
11, 21630, Note_on_c, 9, 37, 127
11, 21633, Note_on_c, 9, 62, 0
11, 21641, Note_on_c, 9, 42, 0
11, 21643, Note_on_c, 9, 37, 0
11, 21659, Note_on_c, 9, 35, 0
11, 21659, Note_on_c, 9, 35, 127
11, 21660, Note_on_c, 9, 42, 127
11, 21660, Note_on_c, 9, 37, 127
11, 21670, Note_on_c, 9, 42, 0
11, 21674, Note_on_c, 9, 37, 0
11, 21689, Note_on_c, 9, 35, 0
11, 21689, Note_on_c, 9, 35, 127
11, 21690, Note_on_c, 9, 42, 127
11, 21690, Note_on_c, 9, 37, 127
11, 21702, Note_on_c, 9, 42, 0
11, 21704, Note_on_c, 9, 37, 0
11, 21719, Note_on_c, 9, 35, 0
11, 21720, Note_on_c, 9, 62, 127
11, 21720, Note_on_c, 9, 42, 127
11, 21720, Note_on_c, 9, 35, 127
11, 21720, Note_on_c, 9, 37, 127
11, 21735, Note_on_c, 9, 42, 0
11, 21737, Note_on_c, 9, 37, 0
11, 21745, Note_on_c, 9, 62, 0
11, 21746, Note_on_c, 9, 35, 127
11, 21750, Note_on_c, 9, 35, 0
11, 21776, Note_on_c, 9, 35, 0
11, 21780, Note_on_c, 9, 42, 127
11, 21780, Note_on_c, 9, 35, 127
11, 21780, Note_on_c, 9, 37, 127
11, 21780, Note_on_c, 9, 36, 127
11, 21793, Note_on_c, 9, 37, 0
11, 21793, Note_on_c, 9, 42, 0
11, 21796, Note_on_c, 9, 36, 0
11, 21810, Note_on_c, 9, 35, 0
11, 21810, Note_on_c, 9, 42, 127
11, 21810, Note_on_c, 9, 37, 127
11, 21810, Note_on_c, 9, 36, 127
11, 21811, Note_on_c, 9, 35, 127
11, 21822, Note_on_c, 9, 42, 0
11, 21823, Note_on_c, 9, 37, 0
11, 21829, Note_on_c, 9, 36, 0
11, 21840, Note_on_c, 9, 42, 127
11, 21840, Note_on_c, 9, 37, 127
11, 21841, Note_on_c, 9, 35, 0
11, 21855, Note_on_c, 9, 42, 0
11, 21857, Note_on_c, 9, 37, 0
11, 21900, Note_on_c, 9, 42, 127
11, 21900, Note_on_c, 9, 37, 127
11, 21900, Note_on_c, 9, 36, 127
11, 21916, Note_on_c, 9, 36, 0
11, 21916, Note_on_c, 9, 37, 0
11, 21916, Note_on_c, 9, 42, 0
11, 21960, Note_on_c, 9, 62, 127
11, 21960, Note_on_c, 9, 42, 127
11, 21960, Note_on_c, 9, 37, 127
11, 21973, Note_on_c, 9, 37, 0
11, 21974, Note_on_c, 9, 42, 0
11, 21981, Note_on_c, 9, 62, 0
11, 21990, Note_on_c, 9, 42, 127
11, 21990, Note_on_c, 9, 37, 127
11, 22004, Note_on_c, 9, 42, 0
11, 22005, Note_on_c, 9, 37, 0
11, 22080, Note_on_c, 9, 62, 127
11, 22080, Note_on_c, 9, 42, 127
11, 22080, Note_on_c, 9, 37, 127
11, 22093, Note_on_c, 9, 37, 0
11, 22094, Note_on_c, 9, 42, 0
11, 22104, Note_on_c, 9, 62, 0
11, 22110, Note_on_c, 9, 42, 127
11, 22110, Note_on_c, 9, 36, 127
11, 22110, Note_on_c, 9, 37, 127
11, 22122, Note_on_c, 9, 42, 0
11, 22123, Note_on_c, 9, 37, 0
11, 22126, Note_on_c, 9, 36, 0
11, 22140, Note_on_c, 9, 42, 127
11, 22140, Note_on_c, 9, 37, 127
11, 22152, Note_on_c, 9, 42, 0
11, 22154, Note_on_c, 9, 37, 0
11, 22170, Note_on_c, 9, 42, 127
11, 22170, Note_on_c, 9, 37, 127
11, 22184, Note_on_c, 9, 37, 0
11, 22184, Note_on_c, 9, 42, 0
11, 22200, Note_on_c, 9, 62, 127
11, 22200, Note_on_c, 9, 42, 127
11, 22200, Note_on_c, 9, 37, 127
11, 22215, Note_on_c, 9, 42, 0
11, 22217, Note_on_c, 9, 37, 0
11, 22221, Note_on_c, 9, 62, 0
11, 22260, Note_on_c, 9, 42, 127
11, 22260, Note_on_c, 9, 36, 127
11, 22260, Note_on_c, 9, 37, 127
11, 22273, Note_on_c, 9, 37, 0
11, 22274, Note_on_c, 9, 36, 0
11, 22275, Note_on_c, 9, 42, 0
11, 22290, Note_on_c, 9, 42, 127
11, 22290, Note_on_c, 9, 36, 127
11, 22290, Note_on_c, 9, 37, 127
11, 22303, Note_on_c, 9, 37, 0
11, 22303, Note_on_c, 9, 42, 0
11, 22309, Note_on_c, 9, 36, 0
11, 22320, Note_on_c, 9, 42, 127
11, 22320, Note_on_c, 9, 37, 127
11, 22335, Note_on_c, 9, 42, 0
11, 22337, Note_on_c, 9, 37, 0
11, 22380, Note_on_c, 9, 42, 127
11, 22380, Note_on_c, 9, 36, 127
11, 22380, Note_on_c, 9, 37, 127
11, 22395, Note_on_c, 9, 42, 0
11, 22396, Note_on_c, 9, 37, 0
11, 22399, Note_on_c, 9, 36, 0
11, 22440, Note_on_c, 9, 62, 127
11, 22440, Note_on_c, 9, 42, 127
11, 22440, Note_on_c, 9, 37, 127
11, 22440, Note_on_c, 9, 40, 90
11, 22451, Note_on_c, 9, 40, 0
11, 22453, Note_on_c, 9, 37, 0
11, 22453, Note_on_c, 9, 42, 0
11, 22455, Note_on_c, 9, 40, 90
11, 22458, Note_on_c, 9, 62, 0
11, 22464, Note_on_c, 9, 40, 0
11, 22470, Note_on_c, 9, 42, 127
11, 22470, Note_on_c, 9, 37, 127
11, 22470, Note_on_c, 9, 40, 90
11, 22480, Note_on_c, 9, 42, 0
11, 22482, Note_on_c, 9, 40, 0
11, 22485, Note_on_c, 9, 37, 0
11, 22485, Note_on_c, 9, 40, 90
11, 22498, Note_on_c, 9, 40, 0
11, 22500, Note_on_c, 9, 40, 90
11, 22508, Note_on_c, 9, 40, 0
11, 22560, Note_on_c, 9, 35, 127
11, 22560, Note_on_c, 9, 62, 127
11, 22560, Note_on_c, 9, 42, 127
11, 22560, Note_on_c, 9, 37, 127
11, 22570, Note_on_c, 9, 42, 0
11, 22573, Note_on_c, 9, 37, 0
11, 22590, Note_on_c, 9, 35, 0
11, 22590, Note_on_c, 9, 35, 127
11, 22590, Note_on_c, 9, 42, 127
11, 22590, Note_on_c, 9, 37, 127
11, 22590, Note_on_c, 9, 36, 127
11, 22593, Note_on_c, 9, 62, 0
11, 22601, Note_on_c, 9, 42, 0
11, 22603, Note_on_c, 9, 37, 0
11, 22612, Note_on_c, 9, 36, 0
11, 22620, Note_on_c, 9, 35, 0
11, 22620, Note_on_c, 9, 42, 127
11, 22620, Note_on_c, 9, 35, 127
11, 22620, Note_on_c, 9, 37, 127
11, 22630, Note_on_c, 9, 42, 0
11, 22634, Note_on_c, 9, 37, 0
11, 22650, Note_on_c, 9, 35, 0
11, 22650, Note_on_c, 9, 42, 127
11, 22650, Note_on_c, 9, 35, 127
11, 22650, Note_on_c, 9, 37, 127
11, 22662, Note_on_c, 9, 42, 0
11, 22664, Note_on_c, 9, 37, 0
11, 22680, Note_on_c, 9, 35, 0
11, 22680, Note_on_c, 9, 62, 127
11, 22680, Note_on_c, 9, 35, 127
11, 22680, Note_on_c, 9, 42, 127
11, 22680, Note_on_c, 9, 37, 127
11, 22695, Note_on_c, 9, 42, 0
11, 22697, Note_on_c, 9, 37, 0
11, 22705, Note_on_c, 9, 62, 0
11, 22710, Note_on_c, 9, 35, 0
11, 22710, Note_on_c, 9, 35, 127
11, 22740, Note_on_c, 9, 35, 0
11, 22740, Note_on_c, 9, 35, 127
11, 22740, Note_on_c, 9, 42, 127
11, 22740, Note_on_c, 9, 37, 127
11, 22740, Note_on_c, 9, 36, 127
11, 22753, Note_on_c, 9, 37, 0
11, 22753, Note_on_c, 9, 42, 0
11, 22756, Note_on_c, 9, 36, 0
11, 22770, Note_on_c, 9, 35, 0
11, 22770, Note_on_c, 9, 35, 127
11, 22770, Note_on_c, 9, 42, 127
11, 22770, Note_on_c, 9, 37, 127
11, 22770, Note_on_c, 9, 36, 127
11, 22782, Note_on_c, 9, 42, 0
11, 22783, Note_on_c, 9, 37, 0
11, 22789, Note_on_c, 9, 36, 0
11, 22800, Note_on_c, 9, 35, 0
11, 22800, Note_on_c, 9, 42, 127
11, 22800, Note_on_c, 9, 37, 127
11, 22815, Note_on_c, 9, 42, 0
11, 22817, Note_on_c, 9, 37, 0
11, 22860, Note_on_c, 9, 42, 127
11, 22860, Note_on_c, 9, 37, 127
11, 22860, Note_on_c, 9, 36, 127
11, 22876, Note_on_c, 9, 36, 0
11, 22876, Note_on_c, 9, 37, 0
11, 22876, Note_on_c, 9, 42, 0
11, 22920, Note_on_c, 9, 62, 127
11, 22920, Note_on_c, 9, 42, 127
11, 22920, Note_on_c, 9, 37, 127
11, 22933, Note_on_c, 9, 37, 0
11, 22934, Note_on_c, 9, 42, 0
11, 22941, Note_on_c, 9, 62, 0
11, 22950, Note_on_c, 9, 42, 127
11, 22950, Note_on_c, 9, 37, 127
11, 22964, Note_on_c, 9, 42, 0
11, 22965, Note_on_c, 9, 37, 0
11, 23040, Note_on_c, 9, 62, 127
11, 23040, Note_on_c, 9, 42, 127
11, 23040, Note_on_c, 9, 37, 127
11, 23053, Note_on_c, 9, 37, 0
11, 23054, Note_on_c, 9, 42, 0
11, 23064, Note_on_c, 9, 62, 0
11, 23070, Note_on_c, 9, 42, 127
11, 23070, Note_on_c, 9, 36, 127
11, 23070, Note_on_c, 9, 37, 127
11, 23082, Note_on_c, 9, 42, 0
11, 23083, Note_on_c, 9, 37, 0
11, 23086, Note_on_c, 9, 36, 0
11, 23100, Note_on_c, 9, 42, 127
11, 23100, Note_on_c, 9, 37, 127
11, 23112, Note_on_c, 9, 42, 0
11, 23114, Note_on_c, 9, 37, 0
11, 23130, Note_on_c, 9, 42, 127
11, 23130, Note_on_c, 9, 37, 127
11, 23144, Note_on_c, 9, 37, 0
11, 23144, Note_on_c, 9, 42, 0
11, 23160, Note_on_c, 9, 62, 127
11, 23160, Note_on_c, 9, 42, 127
11, 23160, Note_on_c, 9, 37, 127
11, 23175, Note_on_c, 9, 42, 0
11, 23177, Note_on_c, 9, 37, 0
11, 23181, Note_on_c, 9, 62, 0
11, 23220, Note_on_c, 9, 42, 127
11, 23220, Note_on_c, 9, 36, 127
11, 23220, Note_on_c, 9, 37, 127
11, 23233, Note_on_c, 9, 37, 0
11, 23234, Note_on_c, 9, 36, 0
11, 23235, Note_on_c, 9, 42, 0
11, 23250, Note_on_c, 9, 42, 127
11, 23250, Note_on_c, 9, 36, 127
11, 23250, Note_on_c, 9, 37, 127
11, 23263, Note_on_c, 9, 37, 0
11, 23263, Note_on_c, 9, 42, 0
11, 23269, Note_on_c, 9, 36, 0
11, 23280, Note_on_c, 9, 42, 127
11, 23280, Note_on_c, 9, 37, 127
11, 23295, Note_on_c, 9, 42, 0
11, 23297, Note_on_c, 9, 37, 0
11, 23340, Note_on_c, 9, 42, 127
11, 23340, Note_on_c, 9, 36, 127
11, 23340, Note_on_c, 9, 37, 127
11, 23355, Note_on_c, 9, 42, 0
11, 23356, Note_on_c, 9, 37, 0
11, 23359, Note_on_c, 9, 36, 0
11, 23400, Note_on_c, 9, 62, 127
11, 23400, Note_on_c, 9, 42, 127
11, 23400, Note_on_c, 9, 40, 90
11, 23400, Note_on_c, 9, 37, 127
11, 23409, Note_on_c, 9, 40, 0
11, 23413, Note_on_c, 9, 37, 0
11, 23413, Note_on_c, 9, 42, 0
11, 23415, Note_on_c, 9, 40, 90
11, 23418, Note_on_c, 9, 62, 0
11, 23423, Note_on_c, 9, 40, 0
11, 23430, Note_on_c, 9, 42, 127
11, 23430, Note_on_c, 9, 40, 90
11, 23430, Note_on_c, 9, 37, 127
11, 23440, Note_on_c, 9, 42, 0
11, 23441, Note_on_c, 9, 40, 0
11, 23445, Note_on_c, 9, 37, 0
11, 23445, Note_on_c, 9, 40, 90
11, 23456, Note_on_c, 9, 40, 0
11, 23460, Note_on_c, 9, 40, 90
11, 23470, Note_on_c, 9, 40, 0
11, 23520, Note_on_c, 9, 62, 127
11, 23520, Note_on_c, 9, 35, 127
11, 23520, Note_on_c, 9, 42, 127
11, 23520, Note_on_c, 9, 37, 127
11, 23530, Note_on_c, 9, 42, 0
11, 23533, Note_on_c, 9, 37, 0
11, 23549, Note_on_c, 9, 35, 127
11, 23550, Note_on_c, 9, 35, 0
11, 23550, Note_on_c, 9, 37, 127
11, 23550, Note_on_c, 9, 42, 127
11, 23553, Note_on_c, 9, 62, 0
11, 23561, Note_on_c, 9, 42, 0
11, 23563, Note_on_c, 9, 37, 0
11, 23579, Note_on_c, 9, 35, 0
11, 23579, Note_on_c, 9, 35, 127
11, 23580, Note_on_c, 9, 37, 127
11, 23580, Note_on_c, 9, 42, 127
11, 23590, Note_on_c, 9, 42, 0
11, 23594, Note_on_c, 9, 37, 0
11, 23609, Note_on_c, 9, 35, 0
11, 23609, Note_on_c, 9, 35, 127
11, 23610, Note_on_c, 9, 37, 127
11, 23610, Note_on_c, 9, 42, 127
11, 23622, Note_on_c, 9, 42, 0
11, 23624, Note_on_c, 9, 37, 0
11, 23639, Note_on_c, 9, 35, 0
11, 23640, Note_on_c, 9, 62, 127
11, 23640, Note_on_c, 9, 37, 127
11, 23640, Note_on_c, 9, 35, 127
11, 23640, Note_on_c, 9, 42, 127
11, 23655, Note_on_c, 9, 42, 0
11, 23657, Note_on_c, 9, 37, 0
11, 23665, Note_on_c, 9, 62, 0
11, 23666, Note_on_c, 9, 35, 127
11, 23670, Note_on_c, 9, 35, 0
11, 23696, Note_on_c, 9, 35, 0
11, 23700, Note_on_c, 9, 35, 127
11, 23700, Note_on_c, 9, 37, 127
11, 23700, Note_on_c, 9, 36, 127
11, 23700, Note_on_c, 9, 42, 127
11, 23713, Note_on_c, 9, 42, 0
11, 23713, Note_on_c, 9, 37, 0
11, 23716, Note_on_c, 9, 36, 0
11, 23730, Note_on_c, 9, 35, 0
11, 23730, Note_on_c, 9, 42, 127
11, 23730, Note_on_c, 9, 37, 127
11, 23730, Note_on_c, 9, 36, 127
11, 23731, Note_on_c, 9, 35, 127
11, 23742, Note_on_c, 9, 42, 0
11, 23743, Note_on_c, 9, 37, 0
11, 23749, Note_on_c, 9, 36, 0
11, 23760, Note_on_c, 9, 37, 127
11, 23760, Note_on_c, 9, 42, 127
11, 23761, Note_on_c, 9, 35, 0
11, 23775, Note_on_c, 9, 42, 0
11, 23777, Note_on_c, 9, 37, 0
11, 23820, Note_on_c, 9, 42, 127
11, 23820, Note_on_c, 9, 37, 127
11, 23820, Note_on_c, 9, 36, 127
11, 23836, Note_on_c, 9, 36, 0
11, 23836, Note_on_c, 9, 37, 0
11, 23836, Note_on_c, 9, 42, 0
11, 23880, Note_on_c, 9, 62, 127
11, 23880, Note_on_c, 9, 37, 127
11, 23880, Note_on_c, 9, 42, 127
11, 23893, Note_on_c, 9, 37, 0
11, 23894, Note_on_c, 9, 42, 0
11, 23901, Note_on_c, 9, 62, 0
11, 23910, Note_on_c, 9, 37, 127
11, 23910, Note_on_c, 9, 42, 127
11, 23924, Note_on_c, 9, 42, 0
11, 23925, Note_on_c, 9, 37, 0
11, 24000, Note_on_c, 9, 62, 127
11, 24000, Note_on_c, 9, 37, 127
11, 24000, Note_on_c, 9, 42, 127
11, 24013, Note_on_c, 9, 37, 0
11, 24014, Note_on_c, 9, 42, 0
11, 24024, Note_on_c, 9, 62, 0
11, 24030, Note_on_c, 9, 37, 127
11, 24030, Note_on_c, 9, 42, 127
11, 24030, Note_on_c, 9, 36, 127
11, 24042, Note_on_c, 9, 42, 0
11, 24043, Note_on_c, 9, 37, 0
11, 24046, Note_on_c, 9, 36, 0
11, 24060, Note_on_c, 9, 37, 127
11, 24060, Note_on_c, 9, 42, 127
11, 24072, Note_on_c, 9, 42, 0
11, 24074, Note_on_c, 9, 37, 0
11, 24090, Note_on_c, 9, 37, 127
11, 24090, Note_on_c, 9, 42, 127
11, 24104, Note_on_c, 9, 42, 0
11, 24104, Note_on_c, 9, 37, 0
11, 24120, Note_on_c, 9, 62, 127
11, 24120, Note_on_c, 9, 37, 127
11, 24120, Note_on_c, 9, 42, 127
11, 24135, Note_on_c, 9, 42, 0
11, 24137, Note_on_c, 9, 37, 0
11, 24141, Note_on_c, 9, 62, 0
11, 24180, Note_on_c, 9, 37, 127
11, 24180, Note_on_c, 9, 42, 127
11, 24180, Note_on_c, 9, 36, 127
11, 24193, Note_on_c, 9, 37, 0
11, 24194, Note_on_c, 9, 36, 0
11, 24195, Note_on_c, 9, 42, 0
11, 24210, Note_on_c, 9, 37, 127
11, 24210, Note_on_c, 9, 42, 127
11, 24210, Note_on_c, 9, 36, 127
11, 24223, Note_on_c, 9, 42, 0
11, 24223, Note_on_c, 9, 37, 0
11, 24229, Note_on_c, 9, 36, 0
11, 24240, Note_on_c, 9, 37, 127
11, 24240, Note_on_c, 9, 42, 127
11, 24255, Note_on_c, 9, 42, 0
11, 24257, Note_on_c, 9, 37, 0
11, 24300, Note_on_c, 9, 37, 127
11, 24300, Note_on_c, 9, 42, 127
11, 24300, Note_on_c, 9, 36, 127
11, 24315, Note_on_c, 9, 42, 0
11, 24316, Note_on_c, 9, 37, 0
11, 24319, Note_on_c, 9, 36, 0
11, 24360, Note_on_c, 9, 62, 127
11, 24360, Note_on_c, 9, 40, 90
11, 24360, Note_on_c, 9, 37, 127
11, 24360, Note_on_c, 9, 42, 127
11, 24370, Note_on_c, 9, 40, 0
11, 24373, Note_on_c, 9, 42, 0
11, 24373, Note_on_c, 9, 37, 0
11, 24375, Note_on_c, 9, 40, 90
11, 24378, Note_on_c, 9, 62, 0
11, 24383, Note_on_c, 9, 40, 0
11, 24390, Note_on_c, 9, 40, 90
11, 24390, Note_on_c, 9, 37, 127
11, 24390, Note_on_c, 9, 42, 127
11, 24398, Note_on_c, 9, 40, 0
11, 24400, Note_on_c, 9, 42, 0
11, 24405, Note_on_c, 9, 37, 0
11, 24405, Note_on_c, 9, 40, 90
11, 24418, Note_on_c, 9, 40, 0
11, 24420, Note_on_c, 9, 40, 90
11, 24429, Note_on_c, 9, 40, 0
11, 24480, Note_on_c, 9, 62, 127
11, 24480, Note_on_c, 9, 35, 127
11, 24480, Note_on_c, 9, 42, 127
11, 24480, Note_on_c, 9, 37, 127
11, 24490, Note_on_c, 9, 42, 0
11, 24493, Note_on_c, 9, 37, 0
11, 24510, Note_on_c, 9, 35, 0
11, 24510, Note_on_c, 9, 35, 127
11, 24510, Note_on_c, 9, 37, 127
11, 24510, Note_on_c, 9, 42, 127
11, 24513, Note_on_c, 9, 62, 0
11, 24521, Note_on_c, 9, 42, 0
11, 24523, Note_on_c, 9, 37, 0
11, 24540, Note_on_c, 9, 35, 0
11, 24540, Note_on_c, 9, 35, 127
11, 24540, Note_on_c, 9, 37, 127
11, 24540, Note_on_c, 9, 42, 127
11, 24550, Note_on_c, 9, 42, 0
11, 24554, Note_on_c, 9, 37, 0
11, 24570, Note_on_c, 9, 35, 0
11, 24570, Note_on_c, 9, 35, 127
11, 24570, Note_on_c, 9, 37, 127
11, 24570, Note_on_c, 9, 42, 127
11, 24582, Note_on_c, 9, 42, 0
11, 24584, Note_on_c, 9, 37, 0
11, 24600, Note_on_c, 9, 35, 0
11, 24600, Note_on_c, 9, 62, 127
11, 24600, Note_on_c, 9, 37, 127
11, 24600, Note_on_c, 9, 35, 127
11, 24600, Note_on_c, 9, 42, 127
11, 24615, Note_on_c, 9, 42, 0
11, 24617, Note_on_c, 9, 37, 0
11, 24625, Note_on_c, 9, 62, 0
11, 24630, Note_on_c, 9, 35, 0
11, 24630, Note_on_c, 9, 35, 127
11, 24660, Note_on_c, 9, 35, 0
11, 24660, Note_on_c, 9, 35, 127
11, 24660, Note_on_c, 9, 37, 127
11, 24660, Note_on_c, 9, 36, 127
11, 24660, Note_on_c, 9, 42, 127
11, 24673, Note_on_c, 9, 42, 0
11, 24673, Note_on_c, 9, 37, 0
11, 24676, Note_on_c, 9, 36, 0
11, 24690, Note_on_c, 9, 35, 0
11, 24690, Note_on_c, 9, 42, 127
11, 24690, Note_on_c, 9, 37, 127
11, 24690, Note_on_c, 9, 36, 127
11, 24690, Note_on_c, 9, 35, 127
11, 24702, Note_on_c, 9, 42, 0
11, 24703, Note_on_c, 9, 37, 0
11, 24709, Note_on_c, 9, 36, 0
11, 24720, Note_on_c, 9, 35, 0
11, 24720, Note_on_c, 9, 37, 127
11, 24720, Note_on_c, 9, 42, 127
11, 24735, Note_on_c, 9, 42, 0
11, 24737, Note_on_c, 9, 37, 0
11, 24780, Note_on_c, 9, 42, 127
11, 24780, Note_on_c, 9, 37, 127
11, 24780, Note_on_c, 9, 36, 127
11, 24796, Note_on_c, 9, 36, 0
11, 24796, Note_on_c, 9, 37, 0
11, 24796, Note_on_c, 9, 42, 0
11, 24840, Note_on_c, 9, 62, 127
11, 24840, Note_on_c, 9, 37, 127
11, 24840, Note_on_c, 9, 42, 127
11, 24853, Note_on_c, 9, 37, 0
11, 24854, Note_on_c, 9, 42, 0
11, 24861, Note_on_c, 9, 62, 0
11, 24870, Note_on_c, 9, 37, 127
11, 24870, Note_on_c, 9, 42, 127
11, 24884, Note_on_c, 9, 42, 0
11, 24885, Note_on_c, 9, 37, 0
11, 24960, Note_on_c, 9, 62, 127
11, 24960, Note_on_c, 9, 42, 127
11, 24960, Note_on_c, 9, 37, 127
11, 24973, Note_on_c, 9, 37, 0
11, 24974, Note_on_c, 9, 42, 0
11, 24984, Note_on_c, 9, 62, 0
11, 24990, Note_on_c, 9, 42, 127
11, 24990, Note_on_c, 9, 37, 127
11, 24990, Note_on_c, 9, 36, 127
11, 25002, Note_on_c, 9, 42, 0
11, 25003, Note_on_c, 9, 37, 0
11, 25006, Note_on_c, 9, 36, 0
11, 25020, Note_on_c, 9, 42, 127
11, 25020, Note_on_c, 9, 37, 127
11, 25032, Note_on_c, 9, 42, 0
11, 25034, Note_on_c, 9, 37, 0
11, 25050, Note_on_c, 9, 42, 127
11, 25050, Note_on_c, 9, 37, 127
11, 25064, Note_on_c, 9, 37, 0
11, 25064, Note_on_c, 9, 42, 0
11, 25080, Note_on_c, 9, 62, 127
11, 25080, Note_on_c, 9, 42, 127
11, 25080, Note_on_c, 9, 37, 127
11, 25095, Note_on_c, 9, 42, 0
11, 25097, Note_on_c, 9, 37, 0
11, 25101, Note_on_c, 9, 62, 0
11, 25140, Note_on_c, 9, 42, 127
11, 25140, Note_on_c, 9, 37, 127
11, 25140, Note_on_c, 9, 36, 127
11, 25153, Note_on_c, 9, 37, 0
11, 25154, Note_on_c, 9, 36, 0
11, 25155, Note_on_c, 9, 42, 0
11, 25170, Note_on_c, 9, 42, 127
11, 25170, Note_on_c, 9, 37, 127
11, 25170, Note_on_c, 9, 36, 127
11, 25183, Note_on_c, 9, 37, 0
11, 25183, Note_on_c, 9, 42, 0
11, 25189, Note_on_c, 9, 36, 0
11, 25200, Note_on_c, 9, 42, 127
11, 25200, Note_on_c, 9, 37, 127
11, 25215, Note_on_c, 9, 42, 0
11, 25217, Note_on_c, 9, 37, 0
11, 25260, Note_on_c, 9, 42, 127
11, 25260, Note_on_c, 9, 37, 127
11, 25260, Note_on_c, 9, 36, 127
11, 25275, Note_on_c, 9, 42, 0
11, 25276, Note_on_c, 9, 37, 0
11, 25279, Note_on_c, 9, 36, 0
11, 25320, Note_on_c, 9, 62, 127
11, 25320, Note_on_c, 9, 42, 127
11, 25320, Note_on_c, 9, 40, 90
11, 25320, Note_on_c, 9, 37, 127
11, 25331, Note_on_c, 9, 40, 0
11, 25333, Note_on_c, 9, 37, 0
11, 25333, Note_on_c, 9, 42, 0
11, 25335, Note_on_c, 9, 40, 90
11, 25338, Note_on_c, 9, 62, 0
11, 25344, Note_on_c, 9, 40, 0
11, 25350, Note_on_c, 9, 42, 127
11, 25350, Note_on_c, 9, 40, 90
11, 25350, Note_on_c, 9, 37, 127
11, 25359, Note_on_c, 9, 40, 0
11, 25360, Note_on_c, 9, 42, 0
11, 25365, Note_on_c, 9, 37, 0
11, 25365, Note_on_c, 9, 40, 90
11, 25377, Note_on_c, 9, 40, 0
11, 25380, Note_on_c, 9, 40, 90
11, 25389, Note_on_c, 9, 40, 0
11, 25440, Note_on_c, 9, 62, 127
11, 25440, Note_on_c, 9, 42, 127
11, 25440, Note_on_c, 9, 37, 127
11, 25450, Note_on_c, 9, 42, 0
11, 25453, Note_on_c, 9, 37, 0
11, 25470, Note_on_c, 9, 37, 127
11, 25470, Note_on_c, 9, 36, 127
11, 25470, Note_on_c, 9, 42, 127
11, 25473, Note_on_c, 9, 62, 0
11, 25481, Note_on_c, 9, 42, 0
11, 25483, Note_on_c, 9, 37, 0
11, 25492, Note_on_c, 9, 36, 0
11, 25500, Note_on_c, 9, 37, 127
11, 25500, Note_on_c, 9, 42, 127
11, 25510, Note_on_c, 9, 42, 0
11, 25514, Note_on_c, 9, 37, 0
11, 25530, Note_on_c, 9, 37, 127
11, 25530, Note_on_c, 9, 42, 127
11, 25542, Note_on_c, 9, 42, 0
11, 25544, Note_on_c, 9, 37, 0
11, 25560, Note_on_c, 9, 62, 127
11, 25560, Note_on_c, 9, 37, 127
11, 25560, Note_on_c, 9, 42, 127
11, 25575, Note_on_c, 9, 42, 0
11, 25577, Note_on_c, 9, 37, 0
11, 25585, Note_on_c, 9, 62, 0
11, 25620, Note_on_c, 9, 37, 127
11, 25620, Note_on_c, 9, 36, 127
11, 25620, Note_on_c, 9, 42, 127
11, 25633, Note_on_c, 9, 42, 0
11, 25633, Note_on_c, 9, 37, 0
11, 25636, Note_on_c, 9, 36, 0
11, 25650, Note_on_c, 9, 37, 127
11, 25650, Note_on_c, 9, 36, 127
11, 25650, Note_on_c, 9, 42, 127
11, 25662, Note_on_c, 9, 42, 0
11, 25663, Note_on_c, 9, 37, 0
11, 25669, Note_on_c, 9, 36, 0
11, 25680, Note_on_c, 9, 37, 127
11, 25680, Note_on_c, 9, 42, 127
11, 25695, Note_on_c, 9, 42, 0
11, 25697, Note_on_c, 9, 37, 0
11, 25740, Note_on_c, 9, 37, 127
11, 25740, Note_on_c, 9, 36, 127
11, 25740, Note_on_c, 9, 42, 127
11, 25756, Note_on_c, 9, 42, 0
11, 25756, Note_on_c, 9, 36, 0
11, 25756, Note_on_c, 9, 37, 0
11, 25800, Note_on_c, 9, 62, 127
11, 25800, Note_on_c, 9, 37, 127
11, 25800, Note_on_c, 9, 42, 127
11, 25813, Note_on_c, 9, 37, 0
11, 25814, Note_on_c, 9, 42, 0
11, 25821, Note_on_c, 9, 62, 0
11, 25830, Note_on_c, 9, 37, 127
11, 25830, Note_on_c, 9, 42, 127
11, 25844, Note_on_c, 9, 42, 0
11, 25845, Note_on_c, 9, 37, 0
11, 25920, Note_on_c, 9, 62, 127
11, 25920, Note_on_c, 9, 42, 127
11, 25920, Note_on_c, 9, 37, 127
11, 25933, Note_on_c, 9, 37, 0
11, 25934, Note_on_c, 9, 42, 0
11, 25944, Note_on_c, 9, 62, 0
11, 25950, Note_on_c, 9, 36, 127
11, 25950, Note_on_c, 9, 42, 127
11, 25950, Note_on_c, 9, 37, 127
11, 25962, Note_on_c, 9, 42, 0
11, 25963, Note_on_c, 9, 37, 0
11, 25966, Note_on_c, 9, 36, 0
11, 25980, Note_on_c, 9, 42, 127
11, 25980, Note_on_c, 9, 37, 127
11, 25992, Note_on_c, 9, 42, 0
11, 25994, Note_on_c, 9, 37, 0
11, 26010, Note_on_c, 9, 42, 127
11, 26010, Note_on_c, 9, 37, 127
11, 26024, Note_on_c, 9, 37, 0
11, 26024, Note_on_c, 9, 42, 0
11, 26040, Note_on_c, 9, 62, 127
11, 26040, Note_on_c, 9, 42, 127
11, 26040, Note_on_c, 9, 37, 127
11, 26055, Note_on_c, 9, 42, 0
11, 26057, Note_on_c, 9, 37, 0
11, 26061, Note_on_c, 9, 62, 0
11, 26100, Note_on_c, 9, 36, 127
11, 26100, Note_on_c, 9, 42, 127
11, 26100, Note_on_c, 9, 37, 127
11, 26113, Note_on_c, 9, 37, 0
11, 26114, Note_on_c, 9, 36, 0
11, 26115, Note_on_c, 9, 42, 0
11, 26130, Note_on_c, 9, 36, 127
11, 26130, Note_on_c, 9, 42, 127
11, 26130, Note_on_c, 9, 37, 127
11, 26143, Note_on_c, 9, 37, 0
11, 26143, Note_on_c, 9, 42, 0
11, 26149, Note_on_c, 9, 36, 0
11, 26160, Note_on_c, 9, 42, 127
11, 26160, Note_on_c, 9, 37, 127
11, 26175, Note_on_c, 9, 42, 0
11, 26177, Note_on_c, 9, 37, 0
11, 26220, Note_on_c, 9, 36, 127
11, 26220, Note_on_c, 9, 42, 127
11, 26220, Note_on_c, 9, 37, 127
11, 26235, Note_on_c, 9, 42, 0
11, 26236, Note_on_c, 9, 37, 0
11, 26239, Note_on_c, 9, 36, 0
11, 26280, Note_on_c, 9, 62, 127
11, 26280, Note_on_c, 9, 42, 127
11, 26280, Note_on_c, 9, 37, 127
11, 26293, Note_on_c, 9, 37, 0
11, 26293, Note_on_c, 9, 42, 0
11, 26298, Note_on_c, 9, 62, 0
11, 26310, Note_on_c, 9, 42, 127
11, 26310, Note_on_c, 9, 37, 127
11, 26320, Note_on_c, 9, 42, 0
11, 26325, Note_on_c, 9, 37, 0
11, 26400, Note_on_c, 9, 62, 127
11, 26400, Note_on_c, 9, 42, 127
11, 26400, Note_on_c, 9, 37, 127
11, 26410, Note_on_c, 9, 42, 0
11, 26413, Note_on_c, 9, 37, 0
11, 26430, Note_on_c, 9, 42, 127
11, 26430, Note_on_c, 9, 37, 127
11, 26430, Note_on_c, 9, 36, 127
11, 26433, Note_on_c, 9, 62, 0
11, 26441, Note_on_c, 9, 42, 0
11, 26443, Note_on_c, 9, 37, 0
11, 26452, Note_on_c, 9, 36, 0
11, 26460, Note_on_c, 9, 42, 127
11, 26460, Note_on_c, 9, 37, 127
11, 26470, Note_on_c, 9, 42, 0
11, 26474, Note_on_c, 9, 37, 0
11, 26490, Note_on_c, 9, 42, 127
11, 26490, Note_on_c, 9, 37, 127
11, 26502, Note_on_c, 9, 42, 0
11, 26504, Note_on_c, 9, 37, 0
11, 26520, Note_on_c, 9, 62, 127
11, 26520, Note_on_c, 9, 42, 127
11, 26520, Note_on_c, 9, 37, 127
11, 26535, Note_on_c, 9, 42, 0
11, 26537, Note_on_c, 9, 37, 0
11, 26545, Note_on_c, 9, 62, 0
11, 26580, Note_on_c, 9, 42, 127
11, 26580, Note_on_c, 9, 37, 127
11, 26580, Note_on_c, 9, 36, 127
11, 26593, Note_on_c, 9, 37, 0
11, 26593, Note_on_c, 9, 42, 0
11, 26596, Note_on_c, 9, 36, 0
11, 26610, Note_on_c, 9, 42, 127
11, 26610, Note_on_c, 9, 37, 127
11, 26610, Note_on_c, 9, 36, 127
11, 26622, Note_on_c, 9, 42, 0
11, 26623, Note_on_c, 9, 37, 0
11, 26629, Note_on_c, 9, 36, 0
11, 26640, Note_on_c, 9, 42, 127
11, 26640, Note_on_c, 9, 37, 127
11, 26655, Note_on_c, 9, 42, 0
11, 26657, Note_on_c, 9, 37, 0
11, 26700, Note_on_c, 9, 42, 127
11, 26700, Note_on_c, 9, 37, 127
11, 26700, Note_on_c, 9, 36, 127
11, 26716, Note_on_c, 9, 36, 0
11, 26716, Note_on_c, 9, 37, 0
11, 26716, Note_on_c, 9, 42, 0
11, 26760, Note_on_c, 9, 62, 127
11, 26760, Note_on_c, 9, 42, 127
11, 26760, Note_on_c, 9, 37, 127
11, 26773, Note_on_c, 9, 37, 0
11, 26774, Note_on_c, 9, 42, 0
11, 26781, Note_on_c, 9, 62, 0
11, 26790, Note_on_c, 9, 42, 127
11, 26790, Note_on_c, 9, 37, 127
11, 26804, Note_on_c, 9, 42, 0
11, 26805, Note_on_c, 9, 37, 0
11, 26880, Note_on_c, 9, 62, 127
11, 26880, Note_on_c, 9, 42, 127
11, 26880, Note_on_c, 9, 37, 127
11, 26893, Note_on_c, 9, 37, 0
11, 26894, Note_on_c, 9, 42, 0
11, 26904, Note_on_c, 9, 62, 0
11, 26910, Note_on_c, 9, 42, 127
11, 26910, Note_on_c, 9, 36, 127
11, 26910, Note_on_c, 9, 37, 127
11, 26922, Note_on_c, 9, 42, 0
11, 26923, Note_on_c, 9, 37, 0
11, 26926, Note_on_c, 9, 36, 0
11, 26940, Note_on_c, 9, 42, 127
11, 26940, Note_on_c, 9, 37, 127
11, 26952, Note_on_c, 9, 42, 0
11, 26954, Note_on_c, 9, 37, 0
11, 26970, Note_on_c, 9, 42, 127
11, 26970, Note_on_c, 9, 37, 127
11, 26984, Note_on_c, 9, 37, 0
11, 26984, Note_on_c, 9, 42, 0
11, 27000, Note_on_c, 9, 62, 127
11, 27000, Note_on_c, 9, 42, 127
11, 27000, Note_on_c, 9, 37, 127
11, 27015, Note_on_c, 9, 42, 0
11, 27017, Note_on_c, 9, 37, 0
11, 27021, Note_on_c, 9, 62, 0
11, 27060, Note_on_c, 9, 42, 127
11, 27060, Note_on_c, 9, 36, 127
11, 27060, Note_on_c, 9, 37, 127
11, 27073, Note_on_c, 9, 37, 0
11, 27074, Note_on_c, 9, 36, 0
11, 27075, Note_on_c, 9, 42, 0
11, 27090, Note_on_c, 9, 42, 127
11, 27090, Note_on_c, 9, 36, 127
11, 27090, Note_on_c, 9, 37, 127
11, 27103, Note_on_c, 9, 37, 0
11, 27103, Note_on_c, 9, 42, 0
11, 27109, Note_on_c, 9, 36, 0
11, 27120, Note_on_c, 9, 42, 127
11, 27120, Note_on_c, 9, 37, 127
11, 27135, Note_on_c, 9, 42, 0
11, 27137, Note_on_c, 9, 37, 0
11, 27180, Note_on_c, 9, 42, 127
11, 27180, Note_on_c, 9, 36, 127
11, 27180, Note_on_c, 9, 37, 127
11, 27195, Note_on_c, 9, 42, 0
11, 27196, Note_on_c, 9, 37, 0
11, 27199, Note_on_c, 9, 36, 0
11, 27240, Note_on_c, 9, 62, 127
11, 27240, Note_on_c, 9, 42, 127
11, 27240, Note_on_c, 9, 37, 127
11, 27253, Note_on_c, 9, 37, 0
11, 27253, Note_on_c, 9, 42, 0
11, 27258, Note_on_c, 9, 62, 0
11, 27270, Note_on_c, 9, 42, 127
11, 27270, Note_on_c, 9, 37, 127
11, 27280, Note_on_c, 9, 42, 0
11, 27285, Note_on_c, 9, 37, 0
11, 27360, Note_on_c, 9, 62, 127
11, 27360, Note_on_c, 9, 42, 127
11, 27360, Note_on_c, 9, 37, 127
11, 27370, Note_on_c, 9, 42, 0
11, 27373, Note_on_c, 9, 37, 0
11, 27390, Note_on_c, 9, 42, 127
11, 27390, Note_on_c, 9, 37, 127
11, 27390, Note_on_c, 9, 36, 127
11, 27393, Note_on_c, 9, 62, 0
11, 27401, Note_on_c, 9, 42, 0
11, 27403, Note_on_c, 9, 37, 0
11, 27412, Note_on_c, 9, 36, 0
11, 27420, Note_on_c, 9, 42, 127
11, 27420, Note_on_c, 9, 37, 127
11, 27430, Note_on_c, 9, 42, 0
11, 27434, Note_on_c, 9, 37, 0
11, 27450, Note_on_c, 9, 42, 127
11, 27450, Note_on_c, 9, 37, 127
11, 27462, Note_on_c, 9, 42, 0
11, 27464, Note_on_c, 9, 37, 0
11, 27480, Note_on_c, 9, 62, 127
11, 27480, Note_on_c, 9, 42, 127
11, 27480, Note_on_c, 9, 37, 127
11, 27495, Note_on_c, 9, 42, 0
11, 27497, Note_on_c, 9, 37, 0
11, 27505, Note_on_c, 9, 62, 0
11, 27540, Note_on_c, 9, 42, 127
11, 27540, Note_on_c, 9, 37, 127
11, 27540, Note_on_c, 9, 36, 127
11, 27553, Note_on_c, 9, 37, 0
11, 27553, Note_on_c, 9, 42, 0
11, 27556, Note_on_c, 9, 36, 0
11, 27570, Note_on_c, 9, 42, 127
11, 27570, Note_on_c, 9, 37, 127
11, 27570, Note_on_c, 9, 36, 127
11, 27582, Note_on_c, 9, 42, 0
11, 27583, Note_on_c, 9, 37, 0
11, 27589, Note_on_c, 9, 36, 0
11, 27600, Note_on_c, 9, 42, 127
11, 27600, Note_on_c, 9, 37, 127
11, 27615, Note_on_c, 9, 42, 0
11, 27617, Note_on_c, 9, 37, 0
11, 27660, Note_on_c, 9, 42, 127
11, 27660, Note_on_c, 9, 37, 127
11, 27660, Note_on_c, 9, 36, 127
11, 27676, Note_on_c, 9, 36, 0
11, 27676, Note_on_c, 9, 37, 0
11, 27676, Note_on_c, 9, 42, 0
11, 27720, Note_on_c, 9, 62, 127
11, 27720, Note_on_c, 9, 42, 127
11, 27720, Note_on_c, 9, 37, 127
11, 27733, Note_on_c, 9, 37, 0
11, 27734, Note_on_c, 9, 42, 0
11, 27741, Note_on_c, 9, 62, 0
11, 27750, Note_on_c, 9, 42, 127
11, 27750, Note_on_c, 9, 37, 127
11, 27764, Note_on_c, 9, 42, 0
11, 27765, Note_on_c, 9, 37, 0
11, 27840, Note_on_c, 9, 62, 127
11, 27840, Note_on_c, 9, 42, 127
11, 27840, Note_on_c, 9, 37, 127
11, 27853, Note_on_c, 9, 37, 0
11, 27854, Note_on_c, 9, 42, 0
11, 27864, Note_on_c, 9, 62, 0
11, 27870, Note_on_c, 9, 42, 127
11, 27870, Note_on_c, 9, 36, 127
11, 27870, Note_on_c, 9, 37, 127
11, 27882, Note_on_c, 9, 42, 0
11, 27883, Note_on_c, 9, 37, 0
11, 27886, Note_on_c, 9, 36, 0
11, 27900, Note_on_c, 9, 42, 127
11, 27900, Note_on_c, 9, 37, 127
11, 27912, Note_on_c, 9, 42, 0
11, 27914, Note_on_c, 9, 37, 0
11, 27930, Note_on_c, 9, 42, 127
11, 27930, Note_on_c, 9, 37, 127
11, 27944, Note_on_c, 9, 37, 0
11, 27944, Note_on_c, 9, 42, 0
11, 27960, Note_on_c, 9, 62, 127
11, 27960, Note_on_c, 9, 42, 127
11, 27960, Note_on_c, 9, 37, 127
11, 27975, Note_on_c, 9, 42, 0
11, 27977, Note_on_c, 9, 37, 0
11, 27981, Note_on_c, 9, 62, 0
11, 28020, Note_on_c, 9, 42, 127
11, 28020, Note_on_c, 9, 36, 127
11, 28020, Note_on_c, 9, 37, 127
11, 28033, Note_on_c, 9, 37, 0
11, 28034, Note_on_c, 9, 36, 0
11, 28035, Note_on_c, 9, 42, 0
11, 28050, Note_on_c, 9, 42, 127
11, 28050, Note_on_c, 9, 36, 127
11, 28050, Note_on_c, 9, 37, 127
11, 28063, Note_on_c, 9, 37, 0
11, 28063, Note_on_c, 9, 42, 0
11, 28069, Note_on_c, 9, 36, 0
11, 28080, Note_on_c, 9, 42, 127
11, 28080, Note_on_c, 9, 37, 127
11, 28095, Note_on_c, 9, 42, 0
11, 28097, Note_on_c, 9, 37, 0
11, 28140, Note_on_c, 9, 42, 127
11, 28140, Note_on_c, 9, 36, 127
11, 28140, Note_on_c, 9, 37, 127
11, 28155, Note_on_c, 9, 42, 0
11, 28156, Note_on_c, 9, 37, 0
11, 28159, Note_on_c, 9, 36, 0
11, 28200, Note_on_c, 9, 62, 127
11, 28200, Note_on_c, 9, 42, 127
11, 28200, Note_on_c, 9, 37, 127
11, 28213, Note_on_c, 9, 37, 0
11, 28213, Note_on_c, 9, 42, 0
11, 28218, Note_on_c, 9, 62, 0
11, 28230, Note_on_c, 9, 42, 127
11, 28230, Note_on_c, 9, 37, 127
11, 28240, Note_on_c, 9, 42, 0
11, 28245, Note_on_c, 9, 37, 0
11, 28320, Note_on_c, 9, 62, 127
11, 28320, Note_on_c, 9, 42, 127
11, 28320, Note_on_c, 9, 37, 127
11, 28330, Note_on_c, 9, 42, 0
11, 28333, Note_on_c, 9, 37, 0
11, 28350, Note_on_c, 9, 37, 127
11, 28350, Note_on_c, 9, 36, 127
11, 28350, Note_on_c, 9, 42, 127
11, 28353, Note_on_c, 9, 62, 0
11, 28361, Note_on_c, 9, 42, 0
11, 28363, Note_on_c, 9, 37, 0
11, 28372, Note_on_c, 9, 36, 0
11, 28380, Note_on_c, 9, 37, 127
11, 28380, Note_on_c, 9, 42, 127
11, 28390, Note_on_c, 9, 42, 0
11, 28394, Note_on_c, 9, 37, 0
11, 28410, Note_on_c, 9, 37, 127
11, 28410, Note_on_c, 9, 42, 127
11, 28422, Note_on_c, 9, 42, 0
11, 28424, Note_on_c, 9, 37, 0
11, 28440, Note_on_c, 9, 62, 127
11, 28440, Note_on_c, 9, 37, 127
11, 28440, Note_on_c, 9, 42, 127
11, 28455, Note_on_c, 9, 42, 0
11, 28457, Note_on_c, 9, 37, 0
11, 28465, Note_on_c, 9, 62, 0
11, 28500, Note_on_c, 9, 37, 127
11, 28500, Note_on_c, 9, 36, 127
11, 28500, Note_on_c, 9, 42, 127
11, 28513, Note_on_c, 9, 42, 0
11, 28513, Note_on_c, 9, 37, 0
11, 28516, Note_on_c, 9, 36, 0
11, 28530, Note_on_c, 9, 37, 127
11, 28530, Note_on_c, 9, 36, 127
11, 28530, Note_on_c, 9, 42, 127
11, 28542, Note_on_c, 9, 42, 0
11, 28543, Note_on_c, 9, 37, 0
11, 28549, Note_on_c, 9, 36, 0
11, 28560, Note_on_c, 9, 37, 127
11, 28560, Note_on_c, 9, 42, 127
11, 28575, Note_on_c, 9, 42, 0
11, 28577, Note_on_c, 9, 37, 0
11, 28620, Note_on_c, 9, 37, 127
11, 28620, Note_on_c, 9, 36, 127
11, 28620, Note_on_c, 9, 42, 127
11, 28636, Note_on_c, 9, 42, 0
11, 28636, Note_on_c, 9, 36, 0
11, 28636, Note_on_c, 9, 37, 0
11, 28680, Note_on_c, 9, 62, 127
11, 28680, Note_on_c, 9, 37, 127
11, 28680, Note_on_c, 9, 42, 127
11, 28693, Note_on_c, 9, 37, 0
11, 28694, Note_on_c, 9, 42, 0
11, 28701, Note_on_c, 9, 62, 0
11, 28710, Note_on_c, 9, 37, 127
11, 28710, Note_on_c, 9, 42, 127
11, 28724, Note_on_c, 9, 42, 0
11, 28725, Note_on_c, 9, 37, 0
11, 28800, Note_on_c, 9, 62, 127
11, 28800, Note_on_c, 9, 42, 127
11, 28800, Note_on_c, 9, 37, 127
11, 28813, Note_on_c, 9, 37, 0
11, 28814, Note_on_c, 9, 42, 0
11, 28824, Note_on_c, 9, 62, 0
11, 28830, Note_on_c, 9, 36, 127
11, 28830, Note_on_c, 9, 42, 127
11, 28830, Note_on_c, 9, 37, 127
11, 28842, Note_on_c, 9, 42, 0
11, 28843, Note_on_c, 9, 37, 0
11, 28846, Note_on_c, 9, 36, 0
11, 28860, Note_on_c, 9, 42, 127
11, 28860, Note_on_c, 9, 37, 127
11, 28872, Note_on_c, 9, 42, 0
11, 28874, Note_on_c, 9, 37, 0
11, 28890, Note_on_c, 9, 42, 127
11, 28890, Note_on_c, 9, 37, 127
11, 28904, Note_on_c, 9, 37, 0
11, 28904, Note_on_c, 9, 42, 0
11, 28920, Note_on_c, 9, 62, 127
11, 28920, Note_on_c, 9, 42, 127
11, 28920, Note_on_c, 9, 37, 127
11, 28935, Note_on_c, 9, 42, 0
11, 28937, Note_on_c, 9, 37, 0
11, 28941, Note_on_c, 9, 62, 0
11, 28980, Note_on_c, 9, 36, 127
11, 28980, Note_on_c, 9, 42, 127
11, 28980, Note_on_c, 9, 37, 127
11, 28993, Note_on_c, 9, 37, 0
11, 28994, Note_on_c, 9, 36, 0
11, 28995, Note_on_c, 9, 42, 0
11, 29010, Note_on_c, 9, 36, 127
11, 29010, Note_on_c, 9, 42, 127
11, 29010, Note_on_c, 9, 37, 127
11, 29023, Note_on_c, 9, 37, 0
11, 29023, Note_on_c, 9, 42, 0
11, 29029, Note_on_c, 9, 36, 0
11, 29040, Note_on_c, 9, 42, 127
11, 29040, Note_on_c, 9, 37, 127
11, 29055, Note_on_c, 9, 42, 0
11, 29057, Note_on_c, 9, 37, 0
11, 29100, Note_on_c, 9, 36, 127
11, 29100, Note_on_c, 9, 42, 127
11, 29100, Note_on_c, 9, 37, 127
11, 29115, Note_on_c, 9, 42, 0
11, 29116, Note_on_c, 9, 37, 0
11, 29119, Note_on_c, 9, 36, 0
11, 29160, Note_on_c, 9, 62, 127
11, 29160, Note_on_c, 9, 42, 127
11, 29160, Note_on_c, 9, 37, 127
11, 29173, Note_on_c, 9, 37, 0
11, 29173, Note_on_c, 9, 42, 0
11, 29178, Note_on_c, 9, 62, 0
11, 29190, Note_on_c, 9, 42, 127
11, 29190, Note_on_c, 9, 37, 127
11, 29200, Note_on_c, 9, 42, 0
11, 29205, Note_on_c, 9, 37, 0
11, 29280, Note_on_c, 9, 62, 127
11, 29280, Note_on_c, 9, 42, 127
11, 29280, Note_on_c, 9, 37, 127
11, 29290, Note_on_c, 9, 42, 0
11, 29293, Note_on_c, 9, 37, 0
11, 29310, Note_on_c, 9, 37, 127
11, 29310, Note_on_c, 9, 36, 127
11, 29310, Note_on_c, 9, 42, 127
11, 29313, Note_on_c, 9, 62, 0
11, 29321, Note_on_c, 9, 42, 0
11, 29323, Note_on_c, 9, 37, 0
11, 29332, Note_on_c, 9, 36, 0
11, 29340, Note_on_c, 9, 37, 127
11, 29340, Note_on_c, 9, 42, 127
11, 29350, Note_on_c, 9, 42, 0
11, 29354, Note_on_c, 9, 37, 0
11, 29370, Note_on_c, 9, 37, 127
11, 29370, Note_on_c, 9, 42, 127
11, 29382, Note_on_c, 9, 42, 0
11, 29384, Note_on_c, 9, 37, 0
11, 29400, Note_on_c, 9, 62, 127
11, 29400, Note_on_c, 9, 37, 127
11, 29400, Note_on_c, 9, 42, 127
11, 29415, Note_on_c, 9, 42, 0
11, 29417, Note_on_c, 9, 37, 0
11, 29425, Note_on_c, 9, 62, 0
11, 29460, Note_on_c, 9, 37, 127
11, 29460, Note_on_c, 9, 36, 127
11, 29460, Note_on_c, 9, 42, 127
11, 29473, Note_on_c, 9, 42, 0
11, 29473, Note_on_c, 9, 37, 0
11, 29476, Note_on_c, 9, 36, 0
11, 29490, Note_on_c, 9, 37, 127
11, 29490, Note_on_c, 9, 36, 127
11, 29490, Note_on_c, 9, 42, 127
11, 29502, Note_on_c, 9, 42, 0
11, 29503, Note_on_c, 9, 37, 0
11, 29509, Note_on_c, 9, 36, 0
11, 29520, Note_on_c, 9, 37, 127
11, 29520, Note_on_c, 9, 42, 127
11, 29535, Note_on_c, 9, 42, 0
11, 29537, Note_on_c, 9, 37, 0
11, 29580, Note_on_c, 9, 37, 127
11, 29580, Note_on_c, 9, 36, 127
11, 29580, Note_on_c, 9, 42, 127
11, 29596, Note_on_c, 9, 42, 0
11, 29596, Note_on_c, 9, 36, 0
11, 29596, Note_on_c, 9, 37, 0
11, 29640, Note_on_c, 9, 62, 127
11, 29640, Note_on_c, 9, 37, 127
11, 29640, Note_on_c, 9, 42, 127
11, 29653, Note_on_c, 9, 37, 0
11, 29654, Note_on_c, 9, 42, 0
11, 29661, Note_on_c, 9, 62, 0
11, 29670, Note_on_c, 9, 37, 127
11, 29670, Note_on_c, 9, 42, 127
11, 29684, Note_on_c, 9, 42, 0
11, 29685, Note_on_c, 9, 37, 0
11, 29760, Note_on_c, 9, 62, 127
11, 29760, Note_on_c, 9, 42, 127
11, 29760, Note_on_c, 9, 37, 127
11, 29773, Note_on_c, 9, 37, 0
11, 29774, Note_on_c, 9, 42, 0
11, 29784, Note_on_c, 9, 62, 0
11, 29790, Note_on_c, 9, 36, 127
11, 29790, Note_on_c, 9, 42, 127
11, 29790, Note_on_c, 9, 37, 127
11, 29802, Note_on_c, 9, 42, 0
11, 29803, Note_on_c, 9, 37, 0
11, 29806, Note_on_c, 9, 36, 0
11, 29820, Note_on_c, 9, 42, 127
11, 29820, Note_on_c, 9, 37, 127
11, 29832, Note_on_c, 9, 42, 0
11, 29834, Note_on_c, 9, 37, 0
11, 29850, Note_on_c, 9, 42, 127
11, 29850, Note_on_c, 9, 37, 127
11, 29864, Note_on_c, 9, 37, 0
11, 29864, Note_on_c, 9, 42, 0
11, 29880, Note_on_c, 9, 62, 127
11, 29880, Note_on_c, 9, 42, 127
11, 29880, Note_on_c, 9, 37, 127
11, 29895, Note_on_c, 9, 42, 0
11, 29897, Note_on_c, 9, 37, 0
11, 29901, Note_on_c, 9, 62, 0
11, 29940, Note_on_c, 9, 36, 127
11, 29940, Note_on_c, 9, 42, 127
11, 29940, Note_on_c, 9, 37, 127
11, 29953, Note_on_c, 9, 37, 0
11, 29954, Note_on_c, 9, 36, 0
11, 29955, Note_on_c, 9, 42, 0
11, 29970, Note_on_c, 9, 36, 127
11, 29970, Note_on_c, 9, 42, 127
11, 29970, Note_on_c, 9, 37, 127
11, 29983, Note_on_c, 9, 37, 0
11, 29983, Note_on_c, 9, 42, 0
11, 29989, Note_on_c, 9, 36, 0
11, 30000, Note_on_c, 9, 42, 127
11, 30000, Note_on_c, 9, 37, 127
11, 30015, Note_on_c, 9, 42, 0
11, 30017, Note_on_c, 9, 37, 0
11, 30060, Note_on_c, 9, 36, 127
11, 30060, Note_on_c, 9, 42, 127
11, 30060, Note_on_c, 9, 37, 127
11, 30075, Note_on_c, 9, 42, 0
11, 30076, Note_on_c, 9, 37, 0
11, 30079, Note_on_c, 9, 36, 0
11, 30120, Note_on_c, 9, 62, 127
11, 30120, Note_on_c, 9, 42, 127
11, 30120, Note_on_c, 9, 37, 127
11, 30133, Note_on_c, 9, 37, 0
11, 30133, Note_on_c, 9, 42, 0
11, 30138, Note_on_c, 9, 62, 0
11, 30150, Note_on_c, 9, 42, 127
11, 30150, Note_on_c, 9, 37, 127
11, 30160, Note_on_c, 9, 42, 0
11, 30165, Note_on_c, 9, 37, 0
11, 30240, Note_on_c, 9, 62, 127
11, 30240, Note_on_c, 9, 42, 127
11, 30240, Note_on_c, 9, 37, 127
11, 30250, Note_on_c, 9, 42, 0
11, 30253, Note_on_c, 9, 37, 0
11, 30270, Note_on_c, 9, 42, 127
11, 30270, Note_on_c, 9, 37, 127
11, 30270, Note_on_c, 9, 36, 127
11, 30273, Note_on_c, 9, 62, 0
11, 30281, Note_on_c, 9, 42, 0
11, 30283, Note_on_c, 9, 37, 0
11, 30292, Note_on_c, 9, 36, 0
11, 30300, Note_on_c, 9, 42, 127
11, 30300, Note_on_c, 9, 37, 127
11, 30310, Note_on_c, 9, 42, 0
11, 30314, Note_on_c, 9, 37, 0
11, 30330, Note_on_c, 9, 42, 127
11, 30330, Note_on_c, 9, 37, 127
11, 30342, Note_on_c, 9, 42, 0
11, 30344, Note_on_c, 9, 37, 0
11, 30360, Note_on_c, 9, 62, 127
11, 30360, Note_on_c, 9, 42, 127
11, 30360, Note_on_c, 9, 37, 127
11, 30375, Note_on_c, 9, 42, 0
11, 30377, Note_on_c, 9, 37, 0
11, 30385, Note_on_c, 9, 62, 0
11, 30420, Note_on_c, 9, 42, 127
11, 30420, Note_on_c, 9, 37, 127
11, 30420, Note_on_c, 9, 36, 127
11, 30433, Note_on_c, 9, 37, 0
11, 30433, Note_on_c, 9, 42, 0
11, 30436, Note_on_c, 9, 36, 0
11, 30450, Note_on_c, 9, 42, 127
11, 30450, Note_on_c, 9, 37, 127
11, 30450, Note_on_c, 9, 36, 127
11, 30462, Note_on_c, 9, 42, 0
11, 30463, Note_on_c, 9, 37, 0
11, 30469, Note_on_c, 9, 36, 0
11, 30480, Note_on_c, 9, 42, 127
11, 30480, Note_on_c, 9, 37, 127
11, 30495, Note_on_c, 9, 42, 0
11, 30497, Note_on_c, 9, 37, 0
11, 30540, Note_on_c, 9, 42, 127
11, 30540, Note_on_c, 9, 37, 127
11, 30540, Note_on_c, 9, 36, 127
11, 30556, Note_on_c, 9, 36, 0
11, 30556, Note_on_c, 9, 37, 0
11, 30556, Note_on_c, 9, 42, 0
11, 30600, Note_on_c, 9, 62, 127
11, 30600, Note_on_c, 9, 42, 127
11, 30600, Note_on_c, 9, 37, 127
11, 30613, Note_on_c, 9, 37, 0
11, 30614, Note_on_c, 9, 42, 0
11, 30621, Note_on_c, 9, 62, 0
11, 30630, Note_on_c, 9, 42, 127
11, 30630, Note_on_c, 9, 37, 127
11, 30644, Note_on_c, 9, 42, 0
11, 30645, Note_on_c, 9, 37, 0
11, 30720, Note_on_c, 9, 62, 127
11, 30720, Note_on_c, 9, 42, 127
11, 30720, Note_on_c, 9, 37, 127
11, 30733, Note_on_c, 9, 37, 0
11, 30734, Note_on_c, 9, 42, 0
11, 30744, Note_on_c, 9, 62, 0
11, 30750, Note_on_c, 9, 42, 127
11, 30750, Note_on_c, 9, 36, 127
11, 30750, Note_on_c, 9, 37, 127
11, 30762, Note_on_c, 9, 42, 0
11, 30763, Note_on_c, 9, 37, 0
11, 30766, Note_on_c, 9, 36, 0
11, 30780, Note_on_c, 9, 42, 127
11, 30780, Note_on_c, 9, 37, 127
11, 30792, Note_on_c, 9, 42, 0
11, 30794, Note_on_c, 9, 37, 0
11, 30810, Note_on_c, 9, 42, 127
11, 30810, Note_on_c, 9, 37, 127
11, 30824, Note_on_c, 9, 37, 0
11, 30824, Note_on_c, 9, 42, 0
11, 30840, Note_on_c, 9, 62, 127
11, 30840, Note_on_c, 9, 42, 127
11, 30840, Note_on_c, 9, 37, 127
11, 30855, Note_on_c, 9, 42, 0
11, 30857, Note_on_c, 9, 37, 0
11, 30861, Note_on_c, 9, 62, 0
11, 30900, Note_on_c, 9, 42, 127
11, 30900, Note_on_c, 9, 36, 127
11, 30900, Note_on_c, 9, 37, 127
11, 30913, Note_on_c, 9, 37, 0
11, 30914, Note_on_c, 9, 36, 0
11, 30915, Note_on_c, 9, 42, 0
11, 30930, Note_on_c, 9, 42, 127
11, 30930, Note_on_c, 9, 36, 127
11, 30930, Note_on_c, 9, 37, 127
11, 30943, Note_on_c, 9, 37, 0
11, 30943, Note_on_c, 9, 42, 0
11, 30949, Note_on_c, 9, 36, 0
11, 30960, Note_on_c, 9, 42, 127
11, 30960, Note_on_c, 9, 37, 127
11, 30975, Note_on_c, 9, 42, 0
11, 30977, Note_on_c, 9, 37, 0
11, 31020, Note_on_c, 9, 42, 127
11, 31020, Note_on_c, 9, 36, 127
11, 31020, Note_on_c, 9, 37, 127
11, 31035, Note_on_c, 9, 42, 0
11, 31036, Note_on_c, 9, 37, 0
11, 31039, Note_on_c, 9, 36, 0
11, 31080, Note_on_c, 9, 62, 127
11, 31080, Note_on_c, 9, 42, 127
11, 31080, Note_on_c, 9, 37, 127
11, 31093, Note_on_c, 9, 37, 0
11, 31093, Note_on_c, 9, 42, 0
11, 31098, Note_on_c, 9, 62, 0
11, 31110, Note_on_c, 9, 42, 127
11, 31110, Note_on_c, 9, 37, 127
11, 31120, Note_on_c, 9, 42, 0
11, 31125, Note_on_c, 9, 37, 0
11, 31200, Note_on_c, 9, 62, 127
11, 31200, Note_on_c, 9, 42, 127
11, 31200, Note_on_c, 9, 37, 127
11, 31210, Note_on_c, 9, 42, 0
11, 31213, Note_on_c, 9, 37, 0
11, 31230, Note_on_c, 9, 37, 127
11, 31230, Note_on_c, 9, 36, 127
11, 31230, Note_on_c, 9, 42, 127
11, 31233, Note_on_c, 9, 62, 0
11, 31241, Note_on_c, 9, 42, 0
11, 31243, Note_on_c, 9, 37, 0
11, 31252, Note_on_c, 9, 36, 0
11, 31260, Note_on_c, 9, 37, 127
11, 31260, Note_on_c, 9, 42, 127
11, 31270, Note_on_c, 9, 42, 0
11, 31274, Note_on_c, 9, 37, 0
11, 31290, Note_on_c, 9, 37, 127
11, 31290, Note_on_c, 9, 42, 127
11, 31302, Note_on_c, 9, 42, 0
11, 31304, Note_on_c, 9, 37, 0
11, 31320, Note_on_c, 9, 62, 127
11, 31320, Note_on_c, 9, 37, 127
11, 31320, Note_on_c, 9, 42, 127
11, 31335, Note_on_c, 9, 42, 0
11, 31337, Note_on_c, 9, 37, 0
11, 31345, Note_on_c, 9, 62, 0
11, 31380, Note_on_c, 9, 37, 127
11, 31380, Note_on_c, 9, 36, 127
11, 31380, Note_on_c, 9, 42, 127
11, 31393, Note_on_c, 9, 42, 0
11, 31393, Note_on_c, 9, 37, 0
11, 31396, Note_on_c, 9, 36, 0
11, 31410, Note_on_c, 9, 37, 127
11, 31410, Note_on_c, 9, 36, 127
11, 31410, Note_on_c, 9, 42, 127
11, 31422, Note_on_c, 9, 42, 0
11, 31423, Note_on_c, 9, 37, 0
11, 31429, Note_on_c, 9, 36, 0
11, 31440, Note_on_c, 9, 37, 127
11, 31440, Note_on_c, 9, 42, 127
11, 31455, Note_on_c, 9, 42, 0
11, 31457, Note_on_c, 9, 37, 0
11, 31500, Note_on_c, 9, 37, 127
11, 31500, Note_on_c, 9, 36, 127
11, 31500, Note_on_c, 9, 42, 127
11, 31516, Note_on_c, 9, 42, 0
11, 31516, Note_on_c, 9, 36, 0
11, 31516, Note_on_c, 9, 37, 0
11, 31560, Note_on_c, 9, 62, 127
11, 31560, Note_on_c, 9, 37, 127
11, 31560, Note_on_c, 9, 42, 127
11, 31573, Note_on_c, 9, 37, 0
11, 31574, Note_on_c, 9, 42, 0
11, 31581, Note_on_c, 9, 62, 0
11, 31590, Note_on_c, 9, 37, 127
11, 31590, Note_on_c, 9, 42, 127
11, 31604, Note_on_c, 9, 42, 0
11, 31605, Note_on_c, 9, 37, 0
11, 31680, Note_on_c, 9, 62, 127
11, 31680, Note_on_c, 9, 42, 127
11, 31680, Note_on_c, 9, 37, 127
11, 31693, Note_on_c, 9, 37, 0
11, 31694, Note_on_c, 9, 42, 0
11, 31704, Note_on_c, 9, 62, 0
11, 31710, Note_on_c, 9, 36, 127
11, 31710, Note_on_c, 9, 42, 127
11, 31710, Note_on_c, 9, 37, 127
11, 31722, Note_on_c, 9, 42, 0
11, 31723, Note_on_c, 9, 37, 0
11, 31726, Note_on_c, 9, 36, 0
11, 31740, Note_on_c, 9, 42, 127
11, 31740, Note_on_c, 9, 37, 127
11, 31752, Note_on_c, 9, 42, 0
11, 31754, Note_on_c, 9, 37, 0
11, 31770, Note_on_c, 9, 42, 127
11, 31770, Note_on_c, 9, 37, 127
11, 31784, Note_on_c, 9, 37, 0
11, 31784, Note_on_c, 9, 42, 0
11, 31800, Note_on_c, 9, 62, 127
11, 31800, Note_on_c, 9, 42, 127
11, 31800, Note_on_c, 9, 37, 127
11, 31815, Note_on_c, 9, 42, 0
11, 31817, Note_on_c, 9, 37, 0
11, 31821, Note_on_c, 9, 62, 0
11, 31860, Note_on_c, 9, 36, 127
11, 31860, Note_on_c, 9, 42, 127
11, 31860, Note_on_c, 9, 37, 127
11, 31873, Note_on_c, 9, 37, 0
11, 31874, Note_on_c, 9, 36, 0
11, 31875, Note_on_c, 9, 42, 0
11, 31890, Note_on_c, 9, 36, 127
11, 31890, Note_on_c, 9, 42, 127
11, 31890, Note_on_c, 9, 37, 127
11, 31903, Note_on_c, 9, 37, 0
11, 31903, Note_on_c, 9, 42, 0
11, 31909, Note_on_c, 9, 36, 0
11, 31920, Note_on_c, 9, 42, 127
11, 31920, Note_on_c, 9, 37, 127
11, 31935, Note_on_c, 9, 42, 0
11, 31937, Note_on_c, 9, 37, 0
11, 31980, Note_on_c, 9, 36, 127
11, 31980, Note_on_c, 9, 42, 127
11, 31980, Note_on_c, 9, 37, 127
11, 31995, Note_on_c, 9, 42, 0
11, 31996, Note_on_c, 9, 37, 0
11, 31999, Note_on_c, 9, 36, 0
11, 32040, Note_on_c, 9, 62, 127
11, 32040, Note_on_c, 9, 42, 127
11, 32040, Note_on_c, 9, 37, 127
11, 32053, Note_on_c, 9, 37, 0
11, 32053, Note_on_c, 9, 42, 0
11, 32058, Note_on_c, 9, 62, 0
11, 32070, Note_on_c, 9, 42, 127
11, 32070, Note_on_c, 9, 37, 127
11, 32080, Note_on_c, 9, 42, 0
11, 32085, Note_on_c, 9, 37, 0
11, 32160, Note_on_c, 9, 62, 127
11, 32160, Note_on_c, 9, 42, 127
11, 32160, Note_on_c, 9, 37, 127
11, 32170, Note_on_c, 9, 42, 0
11, 32173, Note_on_c, 9, 37, 0
11, 32190, Note_on_c, 9, 42, 127
11, 32190, Note_on_c, 9, 37, 127
11, 32190, Note_on_c, 9, 36, 127
11, 32193, Note_on_c, 9, 62, 0
11, 32201, Note_on_c, 9, 42, 0
11, 32203, Note_on_c, 9, 37, 0
11, 32212, Note_on_c, 9, 36, 0
11, 32220, Note_on_c, 9, 42, 127
11, 32220, Note_on_c, 9, 37, 127
11, 32230, Note_on_c, 9, 42, 0
11, 32234, Note_on_c, 9, 37, 0
11, 32250, Note_on_c, 9, 42, 127
11, 32250, Note_on_c, 9, 37, 127
11, 32262, Note_on_c, 9, 42, 0
11, 32264, Note_on_c, 9, 37, 0
11, 32280, Note_on_c, 9, 62, 127
11, 32280, Note_on_c, 9, 42, 127
11, 32280, Note_on_c, 9, 37, 127
11, 32295, Note_on_c, 9, 42, 0
11, 32297, Note_on_c, 9, 37, 0
11, 32305, Note_on_c, 9, 62, 0
11, 32340, Note_on_c, 9, 42, 127
11, 32340, Note_on_c, 9, 37, 127
11, 32340, Note_on_c, 9, 36, 127
11, 32353, Note_on_c, 9, 37, 0
11, 32353, Note_on_c, 9, 42, 0
11, 32356, Note_on_c, 9, 36, 0
11, 32370, Note_on_c, 9, 42, 127
11, 32370, Note_on_c, 9, 37, 127
11, 32370, Note_on_c, 9, 36, 127
11, 32382, Note_on_c, 9, 42, 0
11, 32383, Note_on_c, 9, 37, 0
11, 32389, Note_on_c, 9, 36, 0
11, 32400, Note_on_c, 9, 42, 127
11, 32400, Note_on_c, 9, 37, 127
11, 32415, Note_on_c, 9, 42, 0
11, 32417, Note_on_c, 9, 37, 0
11, 32460, Note_on_c, 9, 42, 127
11, 32460, Note_on_c, 9, 37, 127
11, 32460, Note_on_c, 9, 36, 127
11, 32476, Note_on_c, 9, 36, 0
11, 32476, Note_on_c, 9, 37, 0
11, 32476, Note_on_c, 9, 42, 0
11, 32520, Note_on_c, 9, 62, 127
11, 32520, Note_on_c, 9, 42, 127
11, 32520, Note_on_c, 9, 37, 127
11, 32533, Note_on_c, 9, 37, 0
11, 32534, Note_on_c, 9, 42, 0
11, 32541, Note_on_c, 9, 62, 0
11, 32550, Note_on_c, 9, 42, 127
11, 32550, Note_on_c, 9, 37, 127
11, 32564, Note_on_c, 9, 42, 0
11, 32565, Note_on_c, 9, 37, 0
11, 32640, Note_on_c, 9, 62, 127
11, 32640, Note_on_c, 9, 42, 127
11, 32640, Note_on_c, 9, 37, 127
11, 32653, Note_on_c, 9, 37, 0
11, 32654, Note_on_c, 9, 42, 0
11, 32664, Note_on_c, 9, 62, 0
11, 32670, Note_on_c, 9, 42, 127
11, 32670, Note_on_c, 9, 36, 127
11, 32670, Note_on_c, 9, 37, 127
11, 32682, Note_on_c, 9, 42, 0
11, 32683, Note_on_c, 9, 37, 0
11, 32686, Note_on_c, 9, 36, 0
11, 32700, Note_on_c, 9, 42, 127
11, 32700, Note_on_c, 9, 37, 127
11, 32712, Note_on_c, 9, 42, 0
11, 32714, Note_on_c, 9, 37, 0
11, 32730, Note_on_c, 9, 42, 127
11, 32730, Note_on_c, 9, 37, 127
11, 32744, Note_on_c, 9, 37, 0
11, 32744, Note_on_c, 9, 42, 0
11, 32760, Note_on_c, 9, 62, 127
11, 32760, Note_on_c, 9, 42, 127
11, 32760, Note_on_c, 9, 37, 127
11, 32775, Note_on_c, 9, 42, 0
11, 32777, Note_on_c, 9, 37, 0
11, 32781, Note_on_c, 9, 62, 0
11, 32820, Note_on_c, 9, 42, 127
11, 32820, Note_on_c, 9, 36, 127
11, 32820, Note_on_c, 9, 37, 127
11, 32833, Note_on_c, 9, 37, 0
11, 32834, Note_on_c, 9, 36, 0
11, 32835, Note_on_c, 9, 42, 0
11, 32850, Note_on_c, 9, 42, 127
11, 32850, Note_on_c, 9, 36, 127
11, 32850, Note_on_c, 9, 37, 127
11, 32863, Note_on_c, 9, 37, 0
11, 32863, Note_on_c, 9, 42, 0
11, 32869, Note_on_c, 9, 36, 0
11, 32880, Note_on_c, 9, 42, 127
11, 32880, Note_on_c, 9, 37, 127
11, 32895, Note_on_c, 9, 42, 0
11, 32897, Note_on_c, 9, 37, 0
11, 32940, Note_on_c, 9, 42, 127
11, 32940, Note_on_c, 9, 36, 127
11, 32940, Note_on_c, 9, 37, 127
11, 32955, Note_on_c, 9, 42, 0
11, 32956, Note_on_c, 9, 37, 0
11, 32959, Note_on_c, 9, 36, 0
11, 33000, Note_on_c, 9, 62, 127
11, 33000, Note_on_c, 9, 42, 127
11, 33000, Note_on_c, 9, 37, 127
11, 33013, Note_on_c, 9, 37, 0
11, 33013, Note_on_c, 9, 42, 0
11, 33018, Note_on_c, 9, 62, 0
11, 33030, Note_on_c, 9, 42, 127
11, 33030, Note_on_c, 9, 37, 127
11, 33040, Note_on_c, 9, 42, 0
11, 33045, Note_on_c, 9, 37, 0
11, 33120, Note_on_c, 9, 62, 127
11, 33120, Note_on_c, 9, 42, 127
11, 33120, Note_on_c, 9, 37, 127
11, 33130, Note_on_c, 9, 42, 0
11, 33133, Note_on_c, 9, 37, 0
11, 33150, Note_on_c, 9, 37, 127
11, 33150, Note_on_c, 9, 36, 127
11, 33150, Note_on_c, 9, 42, 127
11, 33153, Note_on_c, 9, 62, 0
11, 33161, Note_on_c, 9, 42, 0
11, 33163, Note_on_c, 9, 37, 0
11, 33172, Note_on_c, 9, 36, 0
11, 33180, Note_on_c, 9, 37, 127
11, 33180, Note_on_c, 9, 42, 127
11, 33190, Note_on_c, 9, 42, 0
11, 33194, Note_on_c, 9, 37, 0
11, 33210, Note_on_c, 9, 37, 127
11, 33210, Note_on_c, 9, 42, 127
11, 33222, Note_on_c, 9, 42, 0
11, 33224, Note_on_c, 9, 37, 0
11, 33240, Note_on_c, 9, 62, 127
11, 33240, Note_on_c, 9, 37, 127
11, 33240, Note_on_c, 9, 42, 127
11, 33255, Note_on_c, 9, 42, 0
11, 33257, Note_on_c, 9, 37, 0
11, 33265, Note_on_c, 9, 62, 0
11, 33300, Note_on_c, 9, 37, 127
11, 33300, Note_on_c, 9, 36, 127
11, 33300, Note_on_c, 9, 42, 127
11, 33313, Note_on_c, 9, 42, 0
11, 33313, Note_on_c, 9, 37, 0
11, 33316, Note_on_c, 9, 36, 0
11, 33330, Note_on_c, 9, 37, 127
11, 33330, Note_on_c, 9, 36, 127
11, 33330, Note_on_c, 9, 42, 127
11, 33342, Note_on_c, 9, 42, 0
11, 33343, Note_on_c, 9, 37, 0
11, 33349, Note_on_c, 9, 36, 0
11, 33360, Note_on_c, 9, 37, 127
11, 33360, Note_on_c, 9, 42, 127
11, 33375, Note_on_c, 9, 42, 0
11, 33377, Note_on_c, 9, 37, 0
11, 33420, Note_on_c, 9, 37, 127
11, 33420, Note_on_c, 9, 36, 127
11, 33420, Note_on_c, 9, 42, 127
11, 33436, Note_on_c, 9, 42, 0
11, 33436, Note_on_c, 9, 36, 0
11, 33436, Note_on_c, 9, 37, 0
11, 33480, Note_on_c, 9, 62, 127
11, 33480, Note_on_c, 9, 37, 127
11, 33480, Note_on_c, 9, 42, 127
11, 33493, Note_on_c, 9, 37, 0
11, 33494, Note_on_c, 9, 42, 0
11, 33501, Note_on_c, 9, 62, 0
11, 33510, Note_on_c, 9, 37, 127
11, 33510, Note_on_c, 9, 42, 127
11, 33524, Note_on_c, 9, 42, 0
11, 33525, Note_on_c, 9, 37, 0
11, 33600, Note_on_c, 9, 62, 127
11, 33600, Note_on_c, 9, 42, 127
11, 33600, Note_on_c, 9, 37, 127
11, 33613, Note_on_c, 9, 37, 0
11, 33614, Note_on_c, 9, 42, 0
11, 33624, Note_on_c, 9, 62, 0
11, 33630, Note_on_c, 9, 36, 127
11, 33630, Note_on_c, 9, 42, 127
11, 33630, Note_on_c, 9, 37, 127
11, 33642, Note_on_c, 9, 42, 0
11, 33643, Note_on_c, 9, 37, 0
11, 33646, Note_on_c, 9, 36, 0
11, 33660, Note_on_c, 9, 42, 127
11, 33660, Note_on_c, 9, 37, 127
11, 33672, Note_on_c, 9, 42, 0
11, 33674, Note_on_c, 9, 37, 0
11, 33690, Note_on_c, 9, 42, 127
11, 33690, Note_on_c, 9, 37, 127
11, 33704, Note_on_c, 9, 37, 0
11, 33704, Note_on_c, 9, 42, 0
11, 33720, Note_on_c, 9, 62, 127
11, 33720, Note_on_c, 9, 42, 127
11, 33720, Note_on_c, 9, 37, 127
11, 33735, Note_on_c, 9, 42, 0
11, 33737, Note_on_c, 9, 37, 0
11, 33741, Note_on_c, 9, 62, 0
11, 33780, Note_on_c, 9, 36, 127
11, 33780, Note_on_c, 9, 42, 127
11, 33780, Note_on_c, 9, 37, 127
11, 33793, Note_on_c, 9, 37, 0
11, 33794, Note_on_c, 9, 36, 0
11, 33795, Note_on_c, 9, 42, 0
11, 33810, Note_on_c, 9, 36, 127
11, 33810, Note_on_c, 9, 42, 127
11, 33810, Note_on_c, 9, 37, 127
11, 33823, Note_on_c, 9, 37, 0
11, 33823, Note_on_c, 9, 42, 0
11, 33829, Note_on_c, 9, 36, 0
11, 33840, Note_on_c, 9, 42, 127
11, 33840, Note_on_c, 9, 37, 127
11, 33855, Note_on_c, 9, 42, 0
11, 33857, Note_on_c, 9, 37, 0
11, 33900, Note_on_c, 9, 36, 127
11, 33900, Note_on_c, 9, 42, 127
11, 33900, Note_on_c, 9, 37, 127
11, 33915, Note_on_c, 9, 42, 0
11, 33916, Note_on_c, 9, 37, 0
11, 33919, Note_on_c, 9, 36, 0
11, 33960, Note_on_c, 9, 62, 127
11, 33960, Note_on_c, 9, 42, 127
11, 33960, Note_on_c, 9, 37, 127
11, 33973, Note_on_c, 9, 37, 0
11, 33973, Note_on_c, 9, 42, 0
11, 33978, Note_on_c, 9, 62, 0
11, 33990, Note_on_c, 9, 42, 127
11, 33990, Note_on_c, 9, 37, 127
11, 34000, Note_on_c, 9, 42, 0
11, 34005, Note_on_c, 9, 37, 0
11, 34080, Note_on_c, 9, 62, 127
11, 34080, Note_on_c, 9, 42, 127
11, 34080, Note_on_c, 9, 37, 127
11, 34090, Note_on_c, 9, 42, 0
11, 34093, Note_on_c, 9, 37, 0
11, 34110, Note_on_c, 9, 37, 127
11, 34110, Note_on_c, 9, 36, 127
11, 34110, Note_on_c, 9, 42, 127
11, 34113, Note_on_c, 9, 62, 0
11, 34121, Note_on_c, 9, 42, 0
11, 34123, Note_on_c, 9, 37, 0
11, 34132, Note_on_c, 9, 36, 0
11, 34140, Note_on_c, 9, 37, 127
11, 34140, Note_on_c, 9, 42, 127
11, 34150, Note_on_c, 9, 42, 0
11, 34154, Note_on_c, 9, 37, 0
11, 34170, Note_on_c, 9, 37, 127
11, 34170, Note_on_c, 9, 42, 127
11, 34182, Note_on_c, 9, 42, 0
11, 34184, Note_on_c, 9, 37, 0
11, 34200, Note_on_c, 9, 62, 127
11, 34200, Note_on_c, 9, 37, 127
11, 34200, Note_on_c, 9, 42, 127
11, 34215, Note_on_c, 9, 42, 0
11, 34217, Note_on_c, 9, 37, 0
11, 34225, Note_on_c, 9, 62, 0
11, 34260, Note_on_c, 9, 37, 127
11, 34260, Note_on_c, 9, 36, 127
11, 34260, Note_on_c, 9, 42, 127
11, 34273, Note_on_c, 9, 42, 0
11, 34273, Note_on_c, 9, 37, 0
11, 34276, Note_on_c, 9, 36, 0
11, 34290, Note_on_c, 9, 37, 127
11, 34290, Note_on_c, 9, 36, 127
11, 34290, Note_on_c, 9, 42, 127
11, 34302, Note_on_c, 9, 42, 0
11, 34303, Note_on_c, 9, 37, 0
11, 34309, Note_on_c, 9, 36, 0
11, 34320, Note_on_c, 9, 37, 127
11, 34320, Note_on_c, 9, 42, 127
11, 34335, Note_on_c, 9, 42, 0
11, 34337, Note_on_c, 9, 37, 0
11, 34380, Note_on_c, 9, 37, 127
11, 34380, Note_on_c, 9, 36, 127
11, 34380, Note_on_c, 9, 42, 127
11, 34396, Note_on_c, 9, 42, 0
11, 34396, Note_on_c, 9, 36, 0
11, 34396, Note_on_c, 9, 37, 0
11, 34440, Note_on_c, 9, 62, 127
11, 34440, Note_on_c, 9, 37, 127
11, 34440, Note_on_c, 9, 42, 127
11, 34453, Note_on_c, 9, 37, 0
11, 34454, Note_on_c, 9, 42, 0
11, 34461, Note_on_c, 9, 62, 0
11, 34470, Note_on_c, 9, 37, 127
11, 34470, Note_on_c, 9, 42, 127
11, 34484, Note_on_c, 9, 42, 0
11, 34485, Note_on_c, 9, 37, 0
11, 34560, Note_on_c, 9, 62, 127
11, 34560, Note_on_c, 9, 42, 127
11, 34560, Note_on_c, 9, 37, 127
11, 34573, Note_on_c, 9, 37, 0
11, 34574, Note_on_c, 9, 42, 0
11, 34584, Note_on_c, 9, 62, 0
11, 34590, Note_on_c, 9, 36, 127
11, 34590, Note_on_c, 9, 42, 127
11, 34590, Note_on_c, 9, 37, 127
11, 34602, Note_on_c, 9, 42, 0
11, 34603, Note_on_c, 9, 37, 0
11, 34606, Note_on_c, 9, 36, 0
11, 34620, Note_on_c, 9, 42, 127
11, 34620, Note_on_c, 9, 37, 127
11, 34632, Note_on_c, 9, 42, 0
11, 34634, Note_on_c, 9, 37, 0
11, 34650, Note_on_c, 9, 42, 127
11, 34650, Note_on_c, 9, 37, 127
11, 34664, Note_on_c, 9, 37, 0
11, 34664, Note_on_c, 9, 42, 0
11, 34680, Note_on_c, 9, 62, 127
11, 34680, Note_on_c, 9, 42, 127
11, 34680, Note_on_c, 9, 37, 127
11, 34695, Note_on_c, 9, 42, 0
11, 34697, Note_on_c, 9, 37, 0
11, 34701, Note_on_c, 9, 62, 0
11, 34740, Note_on_c, 9, 36, 127
11, 34740, Note_on_c, 9, 42, 127
11, 34740, Note_on_c, 9, 37, 127
11, 34753, Note_on_c, 9, 37, 0
11, 34754, Note_on_c, 9, 36, 0
11, 34755, Note_on_c, 9, 42, 0
11, 34770, Note_on_c, 9, 36, 127
11, 34770, Note_on_c, 9, 42, 127
11, 34770, Note_on_c, 9, 37, 127
11, 34783, Note_on_c, 9, 37, 0
11, 34783, Note_on_c, 9, 42, 0
11, 34789, Note_on_c, 9, 36, 0
11, 34800, Note_on_c, 9, 42, 127
11, 34800, Note_on_c, 9, 37, 127
11, 34815, Note_on_c, 9, 42, 0
11, 34817, Note_on_c, 9, 37, 0
11, 34860, Note_on_c, 9, 36, 127
11, 34860, Note_on_c, 9, 42, 127
11, 34860, Note_on_c, 9, 37, 127
11, 34875, Note_on_c, 9, 42, 0
11, 34876, Note_on_c, 9, 37, 0
11, 34879, Note_on_c, 9, 36, 0
11, 34920, Note_on_c, 9, 62, 127
11, 34920, Note_on_c, 9, 42, 127
11, 34920, Note_on_c, 9, 37, 127
11, 34933, Note_on_c, 9, 37, 0
11, 34933, Note_on_c, 9, 42, 0
11, 34938, Note_on_c, 9, 62, 0
11, 34950, Note_on_c, 9, 42, 127
11, 34950, Note_on_c, 9, 37, 127
11, 34960, Note_on_c, 9, 42, 0
11, 34965, Note_on_c, 9, 37, 0
11, 35040, Note_on_c, 9, 62, 127
11, 35040, Note_on_c, 9, 42, 127
11, 35040, Note_on_c, 9, 37, 127
11, 35050, Note_on_c, 9, 42, 0
11, 35053, Note_on_c, 9, 37, 0
11, 35070, Note_on_c, 9, 42, 127
11, 35070, Note_on_c, 9, 37, 127
11, 35070, Note_on_c, 9, 36, 127
11, 35073, Note_on_c, 9, 62, 0
11, 35081, Note_on_c, 9, 42, 0
11, 35083, Note_on_c, 9, 37, 0
11, 35092, Note_on_c, 9, 36, 0
11, 35100, Note_on_c, 9, 42, 127
11, 35100, Note_on_c, 9, 37, 127
11, 35110, Note_on_c, 9, 42, 0
11, 35114, Note_on_c, 9, 37, 0
11, 35130, Note_on_c, 9, 42, 127
11, 35130, Note_on_c, 9, 37, 127
11, 35142, Note_on_c, 9, 42, 0
11, 35144, Note_on_c, 9, 37, 0
11, 35160, Note_on_c, 9, 62, 127
11, 35160, Note_on_c, 9, 42, 127
11, 35160, Note_on_c, 9, 37, 127
11, 35175, Note_on_c, 9, 42, 0
11, 35177, Note_on_c, 9, 37, 0
11, 35185, Note_on_c, 9, 62, 0
11, 35220, Note_on_c, 9, 42, 127
11, 35220, Note_on_c, 9, 37, 127
11, 35220, Note_on_c, 9, 36, 127
11, 35233, Note_on_c, 9, 37, 0
11, 35233, Note_on_c, 9, 42, 0
11, 35236, Note_on_c, 9, 36, 0
11, 35250, Note_on_c, 9, 42, 127
11, 35250, Note_on_c, 9, 37, 127
11, 35250, Note_on_c, 9, 36, 127
11, 35262, Note_on_c, 9, 42, 0
11, 35263, Note_on_c, 9, 37, 0
11, 35269, Note_on_c, 9, 36, 0
11, 35280, Note_on_c, 9, 42, 127
11, 35280, Note_on_c, 9, 37, 127
11, 35295, Note_on_c, 9, 42, 0
11, 35297, Note_on_c, 9, 37, 0
11, 35340, Note_on_c, 9, 42, 127
11, 35340, Note_on_c, 9, 37, 127
11, 35340, Note_on_c, 9, 36, 127
11, 35356, Note_on_c, 9, 36, 0
11, 35356, Note_on_c, 9, 37, 0
11, 35356, Note_on_c, 9, 42, 0
11, 35400, Note_on_c, 9, 62, 127
11, 35400, Note_on_c, 9, 42, 127
11, 35400, Note_on_c, 9, 37, 127
11, 35413, Note_on_c, 9, 37, 0
11, 35414, Note_on_c, 9, 42, 0
11, 35421, Note_on_c, 9, 62, 0
11, 35430, Note_on_c, 9, 42, 127
11, 35430, Note_on_c, 9, 37, 127
11, 35444, Note_on_c, 9, 42, 0
11, 35445, Note_on_c, 9, 37, 0
11, 35520, Note_on_c, 9, 62, 127
11, 35520, Note_on_c, 9, 42, 127
11, 35520, Note_on_c, 9, 37, 127
11, 35533, Note_on_c, 9, 37, 0
11, 35534, Note_on_c, 9, 42, 0
11, 35544, Note_on_c, 9, 62, 0
11, 35550, Note_on_c, 9, 42, 127
11, 35550, Note_on_c, 9, 36, 127
11, 35550, Note_on_c, 9, 37, 127
11, 35562, Note_on_c, 9, 42, 0
11, 35563, Note_on_c, 9, 37, 0
11, 35566, Note_on_c, 9, 36, 0
11, 35580, Note_on_c, 9, 42, 127
11, 35580, Note_on_c, 9, 37, 127
11, 35592, Note_on_c, 9, 42, 0
11, 35594, Note_on_c, 9, 37, 0
11, 35610, Note_on_c, 9, 42, 127
11, 35610, Note_on_c, 9, 37, 127
11, 35624, Note_on_c, 9, 37, 0
11, 35624, Note_on_c, 9, 42, 0
11, 35640, Note_on_c, 9, 62, 127
11, 35640, Note_on_c, 9, 42, 127
11, 35640, Note_on_c, 9, 37, 127
11, 35655, Note_on_c, 9, 42, 0
11, 35657, Note_on_c, 9, 37, 0
11, 35661, Note_on_c, 9, 62, 0
11, 35700, Note_on_c, 9, 42, 127
11, 35700, Note_on_c, 9, 36, 127
11, 35700, Note_on_c, 9, 37, 127
11, 35713, Note_on_c, 9, 37, 0
11, 35714, Note_on_c, 9, 36, 0
11, 35715, Note_on_c, 9, 42, 0
11, 35730, Note_on_c, 9, 42, 127
11, 35730, Note_on_c, 9, 36, 127
11, 35730, Note_on_c, 9, 37, 127
11, 35743, Note_on_c, 9, 37, 0
11, 35743, Note_on_c, 9, 42, 0
11, 35749, Note_on_c, 9, 36, 0
11, 35760, Note_on_c, 9, 42, 127
11, 35760, Note_on_c, 9, 37, 127
11, 35775, Note_on_c, 9, 42, 0
11, 35777, Note_on_c, 9, 37, 0
11, 35820, Note_on_c, 9, 42, 127
11, 35820, Note_on_c, 9, 36, 127
11, 35820, Note_on_c, 9, 37, 127
11, 35835, Note_on_c, 9, 42, 0
11, 35836, Note_on_c, 9, 37, 0
11, 35839, Note_on_c, 9, 36, 0
11, 35880, Note_on_c, 9, 62, 127
11, 35880, Note_on_c, 9, 42, 127
11, 35880, Note_on_c, 9, 37, 127
11, 35893, Note_on_c, 9, 37, 0
11, 35893, Note_on_c, 9, 42, 0
11, 35898, Note_on_c, 9, 62, 0
11, 35910, Note_on_c, 9, 42, 127
11, 35910, Note_on_c, 9, 37, 127
11, 35920, Note_on_c, 9, 42, 0
11, 35925, Note_on_c, 9, 37, 0
11, 36000, Note_on_c, 9, 62, 127
11, 36000, Note_on_c, 9, 42, 127
11, 36000, Note_on_c, 9, 37, 127
11, 36010, Note_on_c, 9, 42, 0
11, 36013, Note_on_c, 9, 37, 0
11, 36030, Note_on_c, 9, 37, 127
11, 36030, Note_on_c, 9, 36, 127
11, 36030, Note_on_c, 9, 42, 127
11, 36033, Note_on_c, 9, 62, 0
11, 36041, Note_on_c, 9, 42, 0
11, 36043, Note_on_c, 9, 37, 0
11, 36052, Note_on_c, 9, 36, 0
11, 36060, Note_on_c, 9, 37, 127
11, 36060, Note_on_c, 9, 42, 127
11, 36070, Note_on_c, 9, 42, 0
11, 36074, Note_on_c, 9, 37, 0
11, 36090, Note_on_c, 9, 37, 127
11, 36090, Note_on_c, 9, 42, 127
11, 36102, Note_on_c, 9, 42, 0
11, 36104, Note_on_c, 9, 37, 0
11, 36120, Note_on_c, 9, 62, 127
11, 36120, Note_on_c, 9, 37, 127
11, 36120, Note_on_c, 9, 42, 127
11, 36135, Note_on_c, 9, 42, 0
11, 36137, Note_on_c, 9, 37, 0
11, 36145, Note_on_c, 9, 62, 0
11, 36180, Note_on_c, 9, 37, 127
11, 36180, Note_on_c, 9, 36, 127
11, 36180, Note_on_c, 9, 42, 127
11, 36193, Note_on_c, 9, 42, 0
11, 36193, Note_on_c, 9, 37, 0
11, 36196, Note_on_c, 9, 36, 0
11, 36210, Note_on_c, 9, 37, 127
11, 36210, Note_on_c, 9, 36, 127
11, 36210, Note_on_c, 9, 42, 127
11, 36222, Note_on_c, 9, 42, 0
11, 36223, Note_on_c, 9, 37, 0
11, 36229, Note_on_c, 9, 36, 0
11, 36240, Note_on_c, 9, 37, 127
11, 36240, Note_on_c, 9, 42, 127
11, 36255, Note_on_c, 9, 42, 0
11, 36257, Note_on_c, 9, 37, 0
11, 36300, Note_on_c, 9, 37, 127
11, 36300, Note_on_c, 9, 36, 127
11, 36300, Note_on_c, 9, 42, 127
11, 36316, Note_on_c, 9, 42, 0
11, 36316, Note_on_c, 9, 36, 0
11, 36316, Note_on_c, 9, 37, 0
11, 36360, Note_on_c, 9, 62, 127
11, 36360, Note_on_c, 9, 37, 127
11, 36360, Note_on_c, 9, 42, 127
11, 36373, Note_on_c, 9, 37, 0
11, 36374, Note_on_c, 9, 42, 0
11, 36381, Note_on_c, 9, 62, 0
11, 36390, Note_on_c, 9, 37, 127
11, 36390, Note_on_c, 9, 42, 127
11, 36404, Note_on_c, 9, 42, 0
11, 36405, Note_on_c, 9, 37, 0
11, 36480, Note_on_c, 9, 62, 127
11, 36480, Note_on_c, 9, 42, 127
11, 36480, Note_on_c, 9, 37, 127
11, 36493, Note_on_c, 9, 37, 0
11, 36494, Note_on_c, 9, 42, 0
11, 36504, Note_on_c, 9, 62, 0
11, 36510, Note_on_c, 9, 36, 127
11, 36510, Note_on_c, 9, 42, 127
11, 36510, Note_on_c, 9, 37, 127
11, 36522, Note_on_c, 9, 42, 0
11, 36523, Note_on_c, 9, 37, 0
11, 36526, Note_on_c, 9, 36, 0
11, 36540, Note_on_c, 9, 42, 127
11, 36540, Note_on_c, 9, 37, 127
11, 36552, Note_on_c, 9, 42, 0
11, 36554, Note_on_c, 9, 37, 0
11, 36570, Note_on_c, 9, 42, 127
11, 36570, Note_on_c, 9, 37, 127
11, 36584, Note_on_c, 9, 37, 0
11, 36584, Note_on_c, 9, 42, 0
11, 36600, Note_on_c, 9, 62, 127
11, 36600, Note_on_c, 9, 42, 127
11, 36600, Note_on_c, 9, 37, 127
11, 36615, Note_on_c, 9, 42, 0
11, 36617, Note_on_c, 9, 37, 0
11, 36621, Note_on_c, 9, 62, 0
11, 36660, Note_on_c, 9, 36, 127
11, 36660, Note_on_c, 9, 42, 127
11, 36660, Note_on_c, 9, 37, 127
11, 36673, Note_on_c, 9, 37, 0
11, 36674, Note_on_c, 9, 36, 0
11, 36675, Note_on_c, 9, 42, 0
11, 36690, Note_on_c, 9, 36, 127
11, 36690, Note_on_c, 9, 42, 127
11, 36690, Note_on_c, 9, 37, 127
11, 36703, Note_on_c, 9, 37, 0
11, 36703, Note_on_c, 9, 42, 0
11, 36709, Note_on_c, 9, 36, 0
11, 36720, Note_on_c, 9, 42, 127
11, 36720, Note_on_c, 9, 37, 127
11, 36735, Note_on_c, 9, 42, 0
11, 36737, Note_on_c, 9, 37, 0
11, 36780, Note_on_c, 9, 36, 127
11, 36780, Note_on_c, 9, 42, 127
11, 36780, Note_on_c, 9, 37, 127
11, 36795, Note_on_c, 9, 42, 0
11, 36796, Note_on_c, 9, 37, 0
11, 36799, Note_on_c, 9, 36, 0
11, 36840, Note_on_c, 9, 62, 127
11, 36840, Note_on_c, 9, 42, 127
11, 36840, Note_on_c, 9, 37, 127
11, 36853, Note_on_c, 9, 37, 0
11, 36853, Note_on_c, 9, 42, 0
11, 36858, Note_on_c, 9, 62, 0
11, 36870, Note_on_c, 9, 42, 127
11, 36870, Note_on_c, 9, 37, 127
11, 36880, Note_on_c, 9, 42, 0
11, 36885, Note_on_c, 9, 37, 0
11, 36960, Note_on_c, 9, 35, 127
11, 36960, Note_on_c, 9, 62, 127
11, 36960, Note_on_c, 9, 42, 127
11, 36960, Note_on_c, 9, 37, 127
11, 36970, Note_on_c, 9, 42, 0
11, 36973, Note_on_c, 9, 37, 0
11, 36989, Note_on_c, 9, 35, 127
11, 36990, Note_on_c, 9, 35, 0
11, 36990, Note_on_c, 9, 37, 127
11, 36990, Note_on_c, 9, 42, 127
11, 36993, Note_on_c, 9, 62, 0
11, 37001, Note_on_c, 9, 42, 0
11, 37003, Note_on_c, 9, 37, 0
11, 37019, Note_on_c, 9, 35, 0
11, 37019, Note_on_c, 9, 35, 127
11, 37020, Note_on_c, 9, 37, 127
11, 37020, Note_on_c, 9, 42, 127
11, 37030, Note_on_c, 9, 42, 0
11, 37034, Note_on_c, 9, 37, 0
11, 37049, Note_on_c, 9, 35, 0
11, 37049, Note_on_c, 9, 35, 127
11, 37050, Note_on_c, 9, 37, 127
11, 37050, Note_on_c, 9, 42, 127
11, 37062, Note_on_c, 9, 42, 0
11, 37064, Note_on_c, 9, 37, 0
11, 37079, Note_on_c, 9, 35, 0
11, 37080, Note_on_c, 9, 62, 127
11, 37080, Note_on_c, 9, 35, 127
11, 37080, Note_on_c, 9, 37, 127
11, 37080, Note_on_c, 9, 42, 127
11, 37095, Note_on_c, 9, 42, 0
11, 37097, Note_on_c, 9, 37, 0
11, 37105, Note_on_c, 9, 62, 0
11, 37106, Note_on_c, 9, 35, 127
11, 37110, Note_on_c, 9, 35, 0
11, 37136, Note_on_c, 9, 35, 0
11, 37140, Note_on_c, 9, 35, 127
11, 37140, Note_on_c, 9, 37, 127
11, 37140, Note_on_c, 9, 36, 127
11, 37140, Note_on_c, 9, 42, 127
11, 37153, Note_on_c, 9, 42, 0
11, 37153, Note_on_c, 9, 37, 0
11, 37156, Note_on_c, 9, 36, 0
11, 37170, Note_on_c, 9, 35, 0
11, 37170, Note_on_c, 9, 37, 127
11, 37170, Note_on_c, 9, 36, 127
11, 37170, Note_on_c, 9, 42, 127
11, 37171, Note_on_c, 9, 35, 127
11, 37182, Note_on_c, 9, 42, 0
11, 37183, Note_on_c, 9, 37, 0
11, 37189, Note_on_c, 9, 36, 0
11, 37200, Note_on_c, 9, 37, 127
11, 37200, Note_on_c, 9, 42, 127
11, 37201, Note_on_c, 9, 35, 0
11, 37215, Note_on_c, 9, 42, 0
11, 37217, Note_on_c, 9, 37, 0
11, 37260, Note_on_c, 9, 37, 127
11, 37260, Note_on_c, 9, 36, 127
11, 37260, Note_on_c, 9, 42, 127
11, 37276, Note_on_c, 9, 42, 0
11, 37276, Note_on_c, 9, 36, 0
11, 37276, Note_on_c, 9, 37, 0
11, 37320, Note_on_c, 9, 62, 127
11, 37320, Note_on_c, 9, 37, 127
11, 37320, Note_on_c, 9, 42, 127
11, 37333, Note_on_c, 9, 37, 0
11, 37334, Note_on_c, 9, 42, 0
11, 37341, Note_on_c, 9, 62, 0
11, 37350, Note_on_c, 9, 37, 127
11, 37350, Note_on_c, 9, 42, 127
11, 37364, Note_on_c, 9, 42, 0
11, 37365, Note_on_c, 9, 37, 0
11, 37440, Note_on_c, 9, 62, 127
11, 37440, Note_on_c, 9, 42, 127
11, 37440, Note_on_c, 9, 37, 127
11, 37453, Note_on_c, 9, 37, 0
11, 37454, Note_on_c, 9, 42, 0
11, 37464, Note_on_c, 9, 62, 0
11, 37470, Note_on_c, 9, 36, 127
11, 37470, Note_on_c, 9, 42, 127
11, 37470, Note_on_c, 9, 37, 127
11, 37482, Note_on_c, 9, 42, 0
11, 37483, Note_on_c, 9, 37, 0
11, 37486, Note_on_c, 9, 36, 0
11, 37500, Note_on_c, 9, 42, 127
11, 37500, Note_on_c, 9, 37, 127
11, 37512, Note_on_c, 9, 42, 0
11, 37514, Note_on_c, 9, 37, 0
11, 37530, Note_on_c, 9, 42, 127
11, 37530, Note_on_c, 9, 37, 127
11, 37544, Note_on_c, 9, 37, 0
11, 37544, Note_on_c, 9, 42, 0
11, 37560, Note_on_c, 9, 62, 127
11, 37560, Note_on_c, 9, 42, 127
11, 37560, Note_on_c, 9, 37, 127
11, 37575, Note_on_c, 9, 42, 0
11, 37577, Note_on_c, 9, 37, 0
11, 37581, Note_on_c, 9, 62, 0
11, 37620, Note_on_c, 9, 36, 127
11, 37620, Note_on_c, 9, 42, 127
11, 37620, Note_on_c, 9, 37, 127
11, 37633, Note_on_c, 9, 37, 0
11, 37634, Note_on_c, 9, 36, 0
11, 37635, Note_on_c, 9, 42, 0
11, 37650, Note_on_c, 9, 36, 127
11, 37650, Note_on_c, 9, 42, 127
11, 37650, Note_on_c, 9, 37, 127
11, 37663, Note_on_c, 9, 37, 0
11, 37663, Note_on_c, 9, 42, 0
11, 37669, Note_on_c, 9, 36, 0
11, 37680, Note_on_c, 9, 42, 127
11, 37680, Note_on_c, 9, 37, 127
11, 37695, Note_on_c, 9, 42, 0
11, 37697, Note_on_c, 9, 37, 0
11, 37740, Note_on_c, 9, 36, 127
11, 37740, Note_on_c, 9, 42, 127
11, 37740, Note_on_c, 9, 37, 127
11, 37755, Note_on_c, 9, 42, 0
11, 37756, Note_on_c, 9, 37, 0
11, 37759, Note_on_c, 9, 36, 0
11, 37800, Note_on_c, 9, 62, 127
11, 37800, Note_on_c, 9, 42, 127
11, 37800, Note_on_c, 9, 37, 127
11, 37800, Note_on_c, 9, 40, 90
11, 37811, Note_on_c, 9, 40, 0
11, 37813, Note_on_c, 9, 37, 0
11, 37813, Note_on_c, 9, 42, 0
11, 37815, Note_on_c, 9, 40, 90
11, 37818, Note_on_c, 9, 62, 0
11, 37824, Note_on_c, 9, 40, 0
11, 37830, Note_on_c, 9, 42, 127
11, 37830, Note_on_c, 9, 37, 127
11, 37830, Note_on_c, 9, 40, 90
11, 37840, Note_on_c, 9, 42, 0
11, 37842, Note_on_c, 9, 40, 0
11, 37845, Note_on_c, 9, 37, 0
11, 37845, Note_on_c, 9, 40, 90
11, 37858, Note_on_c, 9, 40, 0
11, 37860, Note_on_c, 9, 40, 90
11, 37868, Note_on_c, 9, 40, 0
11, 37920, Note_on_c, 9, 35, 127
11, 37920, Note_on_c, 9, 62, 127
11, 37920, Note_on_c, 9, 42, 127
11, 37920, Note_on_c, 9, 37, 127
11, 37930, Note_on_c, 9, 42, 0
11, 37933, Note_on_c, 9, 37, 0
11, 37950, Note_on_c, 9, 35, 0
11, 37950, Note_on_c, 9, 37, 127
11, 37950, Note_on_c, 9, 36, 127
11, 37950, Note_on_c, 9, 35, 127
11, 37950, Note_on_c, 9, 42, 127
11, 37953, Note_on_c, 9, 62, 0
11, 37961, Note_on_c, 9, 42, 0
11, 37963, Note_on_c, 9, 37, 0
11, 37972, Note_on_c, 9, 36, 0
11, 37980, Note_on_c, 9, 35, 0
11, 37980, Note_on_c, 9, 37, 127
11, 37980, Note_on_c, 9, 42, 127
11, 37980, Note_on_c, 9, 35, 127
11, 37990, Note_on_c, 9, 42, 0
11, 37994, Note_on_c, 9, 37, 0
11, 38010, Note_on_c, 9, 35, 0
11, 38010, Note_on_c, 9, 37, 127
11, 38010, Note_on_c, 9, 42, 127
11, 38010, Note_on_c, 9, 35, 127
11, 38022, Note_on_c, 9, 42, 0
11, 38024, Note_on_c, 9, 37, 0
11, 38040, Note_on_c, 9, 35, 0
11, 38040, Note_on_c, 9, 62, 127
11, 38040, Note_on_c, 9, 37, 127
11, 38040, Note_on_c, 9, 35, 127
11, 38040, Note_on_c, 9, 42, 127
11, 38055, Note_on_c, 9, 42, 0
11, 38057, Note_on_c, 9, 37, 0
11, 38065, Note_on_c, 9, 62, 0
11, 38070, Note_on_c, 9, 35, 0
11, 38070, Note_on_c, 9, 35, 127
11, 38100, Note_on_c, 9, 35, 0
11, 38100, Note_on_c, 9, 37, 127
11, 38100, Note_on_c, 9, 36, 127
11, 38100, Note_on_c, 9, 35, 127
11, 38100, Note_on_c, 9, 42, 127
11, 38113, Note_on_c, 9, 42, 0
11, 38113, Note_on_c, 9, 37, 0
11, 38116, Note_on_c, 9, 36, 0
11, 38130, Note_on_c, 9, 35, 0
11, 38130, Note_on_c, 9, 37, 127
11, 38130, Note_on_c, 9, 36, 127
11, 38130, Note_on_c, 9, 35, 127
11, 38130, Note_on_c, 9, 42, 127
11, 38142, Note_on_c, 9, 42, 0
11, 38143, Note_on_c, 9, 37, 0
11, 38149, Note_on_c, 9, 36, 0
11, 38160, Note_on_c, 9, 35, 0
11, 38160, Note_on_c, 9, 37, 127
11, 38160, Note_on_c, 9, 42, 127
11, 38175, Note_on_c, 9, 42, 0
11, 38177, Note_on_c, 9, 37, 0
11, 38220, Note_on_c, 9, 37, 127
11, 38220, Note_on_c, 9, 36, 127
11, 38220, Note_on_c, 9, 42, 127
11, 38236, Note_on_c, 9, 42, 0
11, 38236, Note_on_c, 9, 36, 0
11, 38236, Note_on_c, 9, 37, 0
11, 38280, Note_on_c, 9, 62, 127
11, 38280, Note_on_c, 9, 37, 127
11, 38280, Note_on_c, 9, 42, 127
11, 38293, Note_on_c, 9, 37, 0
11, 38294, Note_on_c, 9, 42, 0
11, 38301, Note_on_c, 9, 62, 0
11, 38310, Note_on_c, 9, 37, 127
11, 38310, Note_on_c, 9, 42, 127
11, 38324, Note_on_c, 9, 42, 0
11, 38325, Note_on_c, 9, 37, 0
11, 38400, Note_on_c, 9, 62, 127
11, 38400, Note_on_c, 9, 42, 127
11, 38400, Note_on_c, 9, 37, 127
11, 38413, Note_on_c, 9, 37, 0
11, 38414, Note_on_c, 9, 42, 0
11, 38424, Note_on_c, 9, 62, 0
11, 38430, Note_on_c, 9, 36, 127
11, 38430, Note_on_c, 9, 42, 127
11, 38430, Note_on_c, 9, 37, 127
11, 38442, Note_on_c, 9, 42, 0
11, 38443, Note_on_c, 9, 37, 0
11, 38446, Note_on_c, 9, 36, 0
11, 38460, Note_on_c, 9, 42, 127
11, 38460, Note_on_c, 9, 37, 127
11, 38472, Note_on_c, 9, 42, 0
11, 38474, Note_on_c, 9, 37, 0
11, 38490, Note_on_c, 9, 42, 127
11, 38490, Note_on_c, 9, 37, 127
11, 38504, Note_on_c, 9, 37, 0
11, 38504, Note_on_c, 9, 42, 0
11, 38520, Note_on_c, 9, 62, 127
11, 38520, Note_on_c, 9, 42, 127
11, 38520, Note_on_c, 9, 37, 127
11, 38535, Note_on_c, 9, 42, 0
11, 38537, Note_on_c, 9, 37, 0
11, 38541, Note_on_c, 9, 62, 0
11, 38580, Note_on_c, 9, 36, 127
11, 38580, Note_on_c, 9, 42, 127
11, 38580, Note_on_c, 9, 37, 127
11, 38593, Note_on_c, 9, 37, 0
11, 38594, Note_on_c, 9, 36, 0
11, 38595, Note_on_c, 9, 42, 0
11, 38610, Note_on_c, 9, 36, 127
11, 38610, Note_on_c, 9, 42, 127
11, 38610, Note_on_c, 9, 37, 127
11, 38623, Note_on_c, 9, 37, 0
11, 38623, Note_on_c, 9, 42, 0
11, 38629, Note_on_c, 9, 36, 0
11, 38640, Note_on_c, 9, 42, 127
11, 38640, Note_on_c, 9, 37, 127
11, 38655, Note_on_c, 9, 42, 0
11, 38657, Note_on_c, 9, 37, 0
11, 38700, Note_on_c, 9, 36, 127
11, 38700, Note_on_c, 9, 42, 127
11, 38700, Note_on_c, 9, 37, 127
11, 38715, Note_on_c, 9, 42, 0
11, 38716, Note_on_c, 9, 37, 0
11, 38719, Note_on_c, 9, 36, 0
11, 38760, Note_on_c, 9, 62, 127
11, 38760, Note_on_c, 9, 42, 127
11, 38760, Note_on_c, 9, 40, 90
11, 38760, Note_on_c, 9, 37, 127
11, 38769, Note_on_c, 9, 40, 0
11, 38773, Note_on_c, 9, 37, 0
11, 38773, Note_on_c, 9, 42, 0
11, 38775, Note_on_c, 9, 40, 90
11, 38778, Note_on_c, 9, 62, 0
11, 38783, Note_on_c, 9, 40, 0
11, 38790, Note_on_c, 9, 42, 127
11, 38790, Note_on_c, 9, 40, 90
11, 38790, Note_on_c, 9, 37, 127
11, 38800, Note_on_c, 9, 42, 0
11, 38801, Note_on_c, 9, 40, 0
11, 38805, Note_on_c, 9, 37, 0
11, 38805, Note_on_c, 9, 40, 90
11, 38816, Note_on_c, 9, 40, 0
11, 38820, Note_on_c, 9, 40, 90
11, 38830, Note_on_c, 9, 40, 0
11, 38880, Note_on_c, 9, 35, 127
11, 38880, Note_on_c, 9, 42, 127
11, 38880, Note_on_c, 9, 37, 127
11, 38880, Note_on_c, 9, 62, 127
11, 38890, Note_on_c, 9, 42, 0
11, 38893, Note_on_c, 9, 37, 0
11, 38909, Note_on_c, 9, 35, 127
11, 38910, Note_on_c, 9, 35, 0
11, 38910, Note_on_c, 9, 37, 127
11, 38910, Note_on_c, 9, 42, 127
11, 38913, Note_on_c, 9, 62, 0
11, 38921, Note_on_c, 9, 42, 0
11, 38923, Note_on_c, 9, 37, 0
11, 38939, Note_on_c, 9, 35, 0
11, 38939, Note_on_c, 9, 35, 127
11, 38940, Note_on_c, 9, 37, 127
11, 38940, Note_on_c, 9, 42, 127
11, 38950, Note_on_c, 9, 42, 0
11, 38954, Note_on_c, 9, 37, 0
11, 38969, Note_on_c, 9, 35, 0
11, 38969, Note_on_c, 9, 35, 127
11, 38970, Note_on_c, 9, 37, 127
11, 38970, Note_on_c, 9, 42, 127
11, 38982, Note_on_c, 9, 42, 0
11, 38984, Note_on_c, 9, 37, 0
11, 38999, Note_on_c, 9, 35, 0
11, 39000, Note_on_c, 9, 37, 127
11, 39000, Note_on_c, 9, 35, 127
11, 39000, Note_on_c, 9, 42, 127
11, 39000, Note_on_c, 9, 62, 127
11, 39015, Note_on_c, 9, 42, 0
11, 39017, Note_on_c, 9, 37, 0
11, 39025, Note_on_c, 9, 62, 0
11, 39026, Note_on_c, 9, 35, 127
11, 39030, Note_on_c, 9, 35, 0
11, 39056, Note_on_c, 9, 35, 0
11, 39060, Note_on_c, 9, 35, 127
11, 39060, Note_on_c, 9, 37, 127
11, 39060, Note_on_c, 9, 36, 127
11, 39060, Note_on_c, 9, 42, 127
11, 39073, Note_on_c, 9, 42, 0
11, 39073, Note_on_c, 9, 37, 0
11, 39076, Note_on_c, 9, 36, 0
11, 39090, Note_on_c, 9, 35, 0
11, 39090, Note_on_c, 9, 42, 127
11, 39090, Note_on_c, 9, 37, 127
11, 39090, Note_on_c, 9, 36, 127
11, 39091, Note_on_c, 9, 35, 127
11, 39102, Note_on_c, 9, 42, 0
11, 39103, Note_on_c, 9, 37, 0
11, 39109, Note_on_c, 9, 36, 0
11, 39120, Note_on_c, 9, 37, 127
11, 39120, Note_on_c, 9, 42, 127
11, 39121, Note_on_c, 9, 35, 0
11, 39135, Note_on_c, 9, 42, 0
11, 39137, Note_on_c, 9, 37, 0
11, 39180, Note_on_c, 9, 42, 127
11, 39180, Note_on_c, 9, 37, 127
11, 39180, Note_on_c, 9, 36, 127
11, 39196, Note_on_c, 9, 36, 0
11, 39196, Note_on_c, 9, 37, 0
11, 39196, Note_on_c, 9, 42, 0
11, 39240, Note_on_c, 9, 37, 127
11, 39240, Note_on_c, 9, 42, 127
11, 39240, Note_on_c, 9, 62, 127
11, 39253, Note_on_c, 9, 37, 0
11, 39254, Note_on_c, 9, 42, 0
11, 39261, Note_on_c, 9, 62, 0
11, 39270, Note_on_c, 9, 37, 127
11, 39270, Note_on_c, 9, 42, 127
11, 39284, Note_on_c, 9, 42, 0
11, 39285, Note_on_c, 9, 37, 0
11, 39360, Note_on_c, 9, 62, 127
11, 39360, Note_on_c, 9, 37, 127
11, 39360, Note_on_c, 9, 42, 127
11, 39373, Note_on_c, 9, 37, 0
11, 39374, Note_on_c, 9, 42, 0
11, 39384, Note_on_c, 9, 62, 0
11, 39390, Note_on_c, 9, 37, 127
11, 39390, Note_on_c, 9, 42, 127
11, 39390, Note_on_c, 9, 36, 127
11, 39402, Note_on_c, 9, 42, 0
11, 39403, Note_on_c, 9, 37, 0
11, 39406, Note_on_c, 9, 36, 0
11, 39420, Note_on_c, 9, 37, 127
11, 39420, Note_on_c, 9, 42, 127
11, 39432, Note_on_c, 9, 42, 0
11, 39434, Note_on_c, 9, 37, 0
11, 39450, Note_on_c, 9, 37, 127
11, 39450, Note_on_c, 9, 42, 127
11, 39464, Note_on_c, 9, 42, 0
11, 39464, Note_on_c, 9, 37, 0
11, 39480, Note_on_c, 9, 62, 127
11, 39480, Note_on_c, 9, 37, 127
11, 39480, Note_on_c, 9, 42, 127
11, 39495, Note_on_c, 9, 42, 0
11, 39497, Note_on_c, 9, 37, 0
11, 39501, Note_on_c, 9, 62, 0
11, 39540, Note_on_c, 9, 37, 127
11, 39540, Note_on_c, 9, 42, 127
11, 39540, Note_on_c, 9, 36, 127
11, 39553, Note_on_c, 9, 37, 0
11, 39554, Note_on_c, 9, 36, 0
11, 39555, Note_on_c, 9, 42, 0
11, 39570, Note_on_c, 9, 37, 127
11, 39570, Note_on_c, 9, 42, 127
11, 39570, Note_on_c, 9, 36, 127
11, 39583, Note_on_c, 9, 42, 0
11, 39583, Note_on_c, 9, 37, 0
11, 39589, Note_on_c, 9, 36, 0
11, 39600, Note_on_c, 9, 37, 127
11, 39600, Note_on_c, 9, 42, 127
11, 39615, Note_on_c, 9, 42, 0
11, 39617, Note_on_c, 9, 37, 0
11, 39660, Note_on_c, 9, 37, 127
11, 39660, Note_on_c, 9, 42, 127
11, 39660, Note_on_c, 9, 36, 127
11, 39675, Note_on_c, 9, 42, 0
11, 39676, Note_on_c, 9, 37, 0
11, 39679, Note_on_c, 9, 36, 0
11, 39720, Note_on_c, 9, 62, 127
11, 39720, Note_on_c, 9, 40, 90
11, 39720, Note_on_c, 9, 37, 127
11, 39720, Note_on_c, 9, 42, 127
11, 39730, Note_on_c, 9, 40, 0
11, 39733, Note_on_c, 9, 42, 0
11, 39733, Note_on_c, 9, 37, 0
11, 39735, Note_on_c, 9, 40, 90
11, 39738, Note_on_c, 9, 62, 0
11, 39743, Note_on_c, 9, 40, 0
11, 39750, Note_on_c, 9, 40, 90
11, 39750, Note_on_c, 9, 37, 127
11, 39750, Note_on_c, 9, 42, 127
11, 39758, Note_on_c, 9, 40, 0
11, 39760, Note_on_c, 9, 42, 0
11, 39765, Note_on_c, 9, 37, 0
11, 39765, Note_on_c, 9, 40, 90
11, 39778, Note_on_c, 9, 40, 0
11, 39780, Note_on_c, 9, 40, 90
11, 39789, Note_on_c, 9, 40, 0
11, 39840, Note_on_c, 9, 62, 127
11, 39840, Note_on_c, 9, 35, 127
11, 39840, Note_on_c, 9, 42, 127
11, 39840, Note_on_c, 9, 37, 127
11, 39850, Note_on_c, 9, 42, 0
11, 39853, Note_on_c, 9, 37, 0
11, 39870, Note_on_c, 9, 35, 0
11, 39870, Note_on_c, 9, 35, 127
11, 39870, Note_on_c, 9, 37, 127
11, 39870, Note_on_c, 9, 42, 127
11, 39873, Note_on_c, 9, 62, 0
11, 39881, Note_on_c, 9, 42, 0
11, 39883, Note_on_c, 9, 37, 0
11, 39900, Note_on_c, 9, 35, 0
11, 39900, Note_on_c, 9, 35, 127
11, 39900, Note_on_c, 9, 37, 127
11, 39900, Note_on_c, 9, 42, 127
11, 39910, Note_on_c, 9, 42, 0
11, 39914, Note_on_c, 9, 37, 0
11, 39930, Note_on_c, 9, 35, 0
11, 39930, Note_on_c, 9, 35, 127
11, 39930, Note_on_c, 9, 37, 127
11, 39930, Note_on_c, 9, 42, 127
11, 39942, Note_on_c, 9, 42, 0
11, 39944, Note_on_c, 9, 37, 0
11, 39960, Note_on_c, 9, 35, 0
11, 39960, Note_on_c, 9, 62, 127
11, 39960, Note_on_c, 9, 37, 127
11, 39960, Note_on_c, 9, 35, 127
11, 39960, Note_on_c, 9, 42, 127
11, 39975, Note_on_c, 9, 42, 0
11, 39977, Note_on_c, 9, 37, 0
11, 39985, Note_on_c, 9, 62, 0
11, 39990, Note_on_c, 9, 35, 0
11, 39990, Note_on_c, 9, 35, 127
11, 40020, Note_on_c, 9, 35, 0
11, 40020, Note_on_c, 9, 35, 127
11, 40020, Note_on_c, 9, 37, 127
11, 40020, Note_on_c, 9, 36, 127
11, 40020, Note_on_c, 9, 42, 127
11, 40033, Note_on_c, 9, 42, 0
11, 40033, Note_on_c, 9, 37, 0
11, 40036, Note_on_c, 9, 36, 0
11, 40050, Note_on_c, 9, 35, 0
11, 40050, Note_on_c, 9, 42, 127
11, 40050, Note_on_c, 9, 37, 127
11, 40050, Note_on_c, 9, 36, 127
11, 40050, Note_on_c, 9, 35, 127
11, 40062, Note_on_c, 9, 42, 0
11, 40063, Note_on_c, 9, 37, 0
11, 40069, Note_on_c, 9, 36, 0
11, 40080, Note_on_c, 9, 35, 0
11, 40080, Note_on_c, 9, 37, 127
11, 40080, Note_on_c, 9, 42, 127
11, 40095, Note_on_c, 9, 42, 0
11, 40097, Note_on_c, 9, 37, 0
11, 40140, Note_on_c, 9, 42, 127
11, 40140, Note_on_c, 9, 37, 127
11, 40140, Note_on_c, 9, 36, 127
11, 40156, Note_on_c, 9, 36, 0
11, 40156, Note_on_c, 9, 37, 0
11, 40156, Note_on_c, 9, 42, 0
11, 40200, Note_on_c, 9, 62, 127
11, 40200, Note_on_c, 9, 37, 127
11, 40200, Note_on_c, 9, 42, 127
11, 40213, Note_on_c, 9, 37, 0
11, 40214, Note_on_c, 9, 42, 0
11, 40221, Note_on_c, 9, 62, 0
11, 40230, Note_on_c, 9, 37, 127
11, 40230, Note_on_c, 9, 42, 127
11, 40244, Note_on_c, 9, 42, 0
11, 40245, Note_on_c, 9, 37, 0
11, 40320, Note_on_c, 9, 62, 127
11, 40320, Note_on_c, 9, 42, 127
11, 40320, Note_on_c, 9, 37, 127
11, 40333, Note_on_c, 9, 37, 0
11, 40334, Note_on_c, 9, 42, 0
11, 40344, Note_on_c, 9, 62, 0
11, 40350, Note_on_c, 9, 42, 127
11, 40350, Note_on_c, 9, 37, 127
11, 40350, Note_on_c, 9, 36, 127
11, 40362, Note_on_c, 9, 42, 0
11, 40363, Note_on_c, 9, 37, 0
11, 40366, Note_on_c, 9, 36, 0
11, 40380, Note_on_c, 9, 42, 127
11, 40380, Note_on_c, 9, 37, 127
11, 40392, Note_on_c, 9, 42, 0
11, 40394, Note_on_c, 9, 37, 0
11, 40410, Note_on_c, 9, 42, 127
11, 40410, Note_on_c, 9, 37, 127
11, 40424, Note_on_c, 9, 37, 0
11, 40424, Note_on_c, 9, 42, 0
11, 40440, Note_on_c, 9, 62, 127
11, 40440, Note_on_c, 9, 42, 127
11, 40440, Note_on_c, 9, 37, 127
11, 40455, Note_on_c, 9, 42, 0
11, 40457, Note_on_c, 9, 37, 0
11, 40461, Note_on_c, 9, 62, 0
11, 40500, Note_on_c, 9, 42, 127
11, 40500, Note_on_c, 9, 37, 127
11, 40500, Note_on_c, 9, 36, 127
11, 40513, Note_on_c, 9, 37, 0
11, 40514, Note_on_c, 9, 36, 0
11, 40515, Note_on_c, 9, 42, 0
11, 40530, Note_on_c, 9, 42, 127
11, 40530, Note_on_c, 9, 37, 127
11, 40530, Note_on_c, 9, 36, 127
11, 40543, Note_on_c, 9, 37, 0
11, 40543, Note_on_c, 9, 42, 0
11, 40549, Note_on_c, 9, 36, 0
11, 40560, Note_on_c, 9, 42, 127
11, 40560, Note_on_c, 9, 37, 127
11, 40575, Note_on_c, 9, 42, 0
11, 40577, Note_on_c, 9, 37, 0
11, 40620, Note_on_c, 9, 42, 127
11, 40620, Note_on_c, 9, 37, 127
11, 40620, Note_on_c, 9, 36, 127
11, 40635, Note_on_c, 9, 42, 0
11, 40636, Note_on_c, 9, 37, 0
11, 40639, Note_on_c, 9, 36, 0
11, 40680, Note_on_c, 9, 62, 127
11, 40680, Note_on_c, 9, 42, 127
11, 40680, Note_on_c, 9, 40, 90
11, 40680, Note_on_c, 9, 37, 127
11, 40691, Note_on_c, 9, 40, 0
11, 40693, Note_on_c, 9, 37, 0
11, 40693, Note_on_c, 9, 42, 0
11, 40695, Note_on_c, 9, 40, 90
11, 40698, Note_on_c, 9, 62, 0
11, 40704, Note_on_c, 9, 40, 0
11, 40710, Note_on_c, 9, 42, 127
11, 40710, Note_on_c, 9, 40, 90
11, 40710, Note_on_c, 9, 37, 127
11, 40719, Note_on_c, 9, 40, 0
11, 40720, Note_on_c, 9, 42, 0
11, 40725, Note_on_c, 9, 37, 0
11, 40725, Note_on_c, 9, 40, 90
11, 40737, Note_on_c, 9, 40, 0
11, 40740, Note_on_c, 9, 40, 90
11, 40749, Note_on_c, 9, 40, 0
11, 40800, Note_on_c, 9, 35, 127
11, 40800, Note_on_c, 9, 62, 127
11, 40800, Note_on_c, 9, 42, 127
11, 40800, Note_on_c, 9, 37, 127
11, 40810, Note_on_c, 9, 42, 0
11, 40813, Note_on_c, 9, 37, 0
11, 40829, Note_on_c, 9, 35, 127
11, 40830, Note_on_c, 9, 35, 0
11, 40830, Note_on_c, 9, 42, 127
11, 40830, Note_on_c, 9, 37, 127
11, 40833, Note_on_c, 9, 62, 0
11, 40841, Note_on_c, 9, 42, 0
11, 40843, Note_on_c, 9, 37, 0
11, 40859, Note_on_c, 9, 35, 0
11, 40859, Note_on_c, 9, 35, 127
11, 40860, Note_on_c, 9, 42, 127
11, 40860, Note_on_c, 9, 37, 127
11, 40870, Note_on_c, 9, 42, 0
11, 40874, Note_on_c, 9, 37, 0
11, 40889, Note_on_c, 9, 35, 0
11, 40889, Note_on_c, 9, 35, 127
11, 40890, Note_on_c, 9, 42, 127
11, 40890, Note_on_c, 9, 37, 127
11, 40902, Note_on_c, 9, 42, 0
11, 40904, Note_on_c, 9, 37, 0
11, 40919, Note_on_c, 9, 35, 0
11, 40920, Note_on_c, 9, 62, 127
11, 40920, Note_on_c, 9, 42, 127
11, 40920, Note_on_c, 9, 35, 127
11, 40920, Note_on_c, 9, 37, 127
11, 40935, Note_on_c, 9, 42, 0
11, 40937, Note_on_c, 9, 37, 0
11, 40945, Note_on_c, 9, 62, 0
11, 40946, Note_on_c, 9, 35, 127
11, 40950, Note_on_c, 9, 35, 0
11, 40976, Note_on_c, 9, 35, 0
11, 40980, Note_on_c, 9, 42, 127
11, 40980, Note_on_c, 9, 35, 127
11, 40980, Note_on_c, 9, 37, 127
11, 40980, Note_on_c, 9, 36, 127
11, 40993, Note_on_c, 9, 37, 0
11, 40993, Note_on_c, 9, 42, 0
11, 40996, Note_on_c, 9, 36, 0
11, 41010, Note_on_c, 9, 35, 0
11, 41010, Note_on_c, 9, 42, 127
11, 41010, Note_on_c, 9, 37, 127
11, 41010, Note_on_c, 9, 36, 127
11, 41011, Note_on_c, 9, 35, 127
11, 41022, Note_on_c, 9, 42, 0
11, 41023, Note_on_c, 9, 37, 0
11, 41029, Note_on_c, 9, 36, 0
11, 41040, Note_on_c, 9, 42, 127
11, 41040, Note_on_c, 9, 37, 127
11, 41041, Note_on_c, 9, 35, 0
11, 41055, Note_on_c, 9, 42, 0
11, 41057, Note_on_c, 9, 37, 0
11, 41100, Note_on_c, 9, 42, 127
11, 41100, Note_on_c, 9, 37, 127
11, 41100, Note_on_c, 9, 36, 127
11, 41116, Note_on_c, 9, 36, 0
11, 41116, Note_on_c, 9, 37, 0
11, 41116, Note_on_c, 9, 42, 0
11, 41160, Note_on_c, 9, 62, 127
11, 41160, Note_on_c, 9, 42, 127
11, 41160, Note_on_c, 9, 37, 127
11, 41173, Note_on_c, 9, 37, 0
11, 41174, Note_on_c, 9, 42, 0
11, 41181, Note_on_c, 9, 62, 0
11, 41190, Note_on_c, 9, 42, 127
11, 41190, Note_on_c, 9, 37, 127
11, 41204, Note_on_c, 9, 42, 0
11, 41205, Note_on_c, 9, 37, 0
11, 41280, Note_on_c, 9, 62, 127
11, 41280, Note_on_c, 9, 42, 127
11, 41280, Note_on_c, 9, 37, 127
11, 41293, Note_on_c, 9, 37, 0
11, 41294, Note_on_c, 9, 42, 0
11, 41304, Note_on_c, 9, 62, 0
11, 41310, Note_on_c, 9, 42, 127
11, 41310, Note_on_c, 9, 36, 127
11, 41310, Note_on_c, 9, 37, 127
11, 41322, Note_on_c, 9, 42, 0
11, 41323, Note_on_c, 9, 37, 0
11, 41326, Note_on_c, 9, 36, 0
11, 41340, Note_on_c, 9, 42, 127
11, 41340, Note_on_c, 9, 37, 127
11, 41352, Note_on_c, 9, 42, 0
11, 41354, Note_on_c, 9, 37, 0
11, 41370, Note_on_c, 9, 42, 127
11, 41370, Note_on_c, 9, 37, 127
11, 41384, Note_on_c, 9, 37, 0
11, 41384, Note_on_c, 9, 42, 0
11, 41400, Note_on_c, 9, 62, 127
11, 41400, Note_on_c, 9, 42, 127
11, 41400, Note_on_c, 9, 37, 127
11, 41415, Note_on_c, 9, 42, 0
11, 41417, Note_on_c, 9, 37, 0
11, 41421, Note_on_c, 9, 62, 0
11, 41460, Note_on_c, 9, 42, 127
11, 41460, Note_on_c, 9, 36, 127
11, 41460, Note_on_c, 9, 37, 127
11, 41473, Note_on_c, 9, 37, 0
11, 41474, Note_on_c, 9, 36, 0
11, 41475, Note_on_c, 9, 42, 0
11, 41490, Note_on_c, 9, 42, 127
11, 41490, Note_on_c, 9, 36, 127
11, 41490, Note_on_c, 9, 37, 127
11, 41503, Note_on_c, 9, 37, 0
11, 41503, Note_on_c, 9, 42, 0
11, 41509, Note_on_c, 9, 36, 0
11, 41520, Note_on_c, 9, 42, 127
11, 41520, Note_on_c, 9, 37, 127
11, 41535, Note_on_c, 9, 42, 0
11, 41537, Note_on_c, 9, 37, 0
11, 41580, Note_on_c, 9, 42, 127
11, 41580, Note_on_c, 9, 36, 127
11, 41580, Note_on_c, 9, 37, 127
11, 41595, Note_on_c, 9, 42, 0
11, 41596, Note_on_c, 9, 37, 0
11, 41599, Note_on_c, 9, 36, 0
11, 41640, Note_on_c, 9, 62, 127
11, 41640, Note_on_c, 9, 42, 127
11, 41640, Note_on_c, 9, 37, 127
11, 41640, Note_on_c, 9, 40, 90
11, 41651, Note_on_c, 9, 40, 0
11, 41653, Note_on_c, 9, 37, 0
11, 41653, Note_on_c, 9, 42, 0
11, 41655, Note_on_c, 9, 40, 90
11, 41658, Note_on_c, 9, 62, 0
11, 41664, Note_on_c, 9, 40, 0
11, 41670, Note_on_c, 9, 42, 127
11, 41670, Note_on_c, 9, 37, 127
11, 41670, Note_on_c, 9, 40, 90
11, 41680, Note_on_c, 9, 42, 0
11, 41682, Note_on_c, 9, 40, 0
11, 41685, Note_on_c, 9, 37, 0
11, 41685, Note_on_c, 9, 40, 90
11, 41698, Note_on_c, 9, 40, 0
11, 41700, Note_on_c, 9, 40, 90
11, 41708, Note_on_c, 9, 40, 0
11, 41760, Note_on_c, 9, 35, 127
11, 41760, Note_on_c, 9, 62, 127
11, 41760, Note_on_c, 9, 42, 127
11, 41760, Note_on_c, 9, 37, 127
11, 41770, Note_on_c, 9, 42, 0
11, 41773, Note_on_c, 9, 37, 0
11, 41790, Note_on_c, 9, 35, 0
11, 41790, Note_on_c, 9, 37, 127
11, 41790, Note_on_c, 9, 36, 127
11, 41790, Note_on_c, 9, 35, 127
11, 41790, Note_on_c, 9, 42, 127
11, 41793, Note_on_c, 9, 62, 0
11, 41801, Note_on_c, 9, 42, 0
11, 41803, Note_on_c, 9, 37, 0
11, 41812, Note_on_c, 9, 36, 0
11, 41820, Note_on_c, 9, 35, 0
11, 41820, Note_on_c, 9, 37, 127
11, 41820, Note_on_c, 9, 42, 127
11, 41820, Note_on_c, 9, 35, 127
11, 41830, Note_on_c, 9, 42, 0
11, 41834, Note_on_c, 9, 37, 0
11, 41850, Note_on_c, 9, 35, 0
11, 41850, Note_on_c, 9, 37, 127
11, 41850, Note_on_c, 9, 42, 127
11, 41850, Note_on_c, 9, 35, 127
11, 41862, Note_on_c, 9, 42, 0
11, 41864, Note_on_c, 9, 37, 0
11, 41880, Note_on_c, 9, 35, 0
11, 41880, Note_on_c, 9, 62, 127
11, 41880, Note_on_c, 9, 37, 127
11, 41880, Note_on_c, 9, 35, 127
11, 41880, Note_on_c, 9, 42, 127
11, 41895, Note_on_c, 9, 42, 0
11, 41897, Note_on_c, 9, 37, 0
11, 41905, Note_on_c, 9, 62, 0
11, 41910, Note_on_c, 9, 35, 0
11, 41910, Note_on_c, 9, 35, 127
11, 41940, Note_on_c, 9, 35, 0
11, 41940, Note_on_c, 9, 37, 127
11, 41940, Note_on_c, 9, 36, 127
11, 41940, Note_on_c, 9, 35, 127
11, 41940, Note_on_c, 9, 42, 127
11, 41953, Note_on_c, 9, 42, 0
11, 41953, Note_on_c, 9, 37, 0
11, 41956, Note_on_c, 9, 36, 0
11, 41970, Note_on_c, 9, 35, 0
11, 41970, Note_on_c, 9, 37, 127
11, 41970, Note_on_c, 9, 36, 127
11, 41970, Note_on_c, 9, 35, 127
11, 41970, Note_on_c, 9, 42, 127
11, 41982, Note_on_c, 9, 42, 0
11, 41983, Note_on_c, 9, 37, 0
11, 41989, Note_on_c, 9, 36, 0
11, 42000, Note_on_c, 9, 35, 0
11, 42000, Note_on_c, 9, 37, 127
11, 42000, Note_on_c, 9, 42, 127
11, 42015, Note_on_c, 9, 42, 0
11, 42017, Note_on_c, 9, 37, 0
11, 42060, Note_on_c, 9, 37, 127
11, 42060, Note_on_c, 9, 36, 127
11, 42060, Note_on_c, 9, 42, 127
11, 42076, Note_on_c, 9, 42, 0
11, 42076, Note_on_c, 9, 36, 0
11, 42076, Note_on_c, 9, 37, 0
11, 42120, Note_on_c, 9, 62, 127
11, 42120, Note_on_c, 9, 37, 127
11, 42120, Note_on_c, 9, 42, 127
11, 42133, Note_on_c, 9, 37, 0
11, 42134, Note_on_c, 9, 42, 0
11, 42141, Note_on_c, 9, 62, 0
11, 42150, Note_on_c, 9, 37, 127
11, 42150, Note_on_c, 9, 42, 127
11, 42164, Note_on_c, 9, 42, 0
11, 42165, Note_on_c, 9, 37, 0
11, 42240, Note_on_c, 9, 62, 127
11, 42240, Note_on_c, 9, 42, 127
11, 42240, Note_on_c, 9, 37, 127
11, 42253, Note_on_c, 9, 37, 0
11, 42254, Note_on_c, 9, 42, 0
11, 42264, Note_on_c, 9, 62, 0
11, 42270, Note_on_c, 9, 36, 127
11, 42270, Note_on_c, 9, 42, 127
11, 42270, Note_on_c, 9, 37, 127
11, 42282, Note_on_c, 9, 42, 0
11, 42283, Note_on_c, 9, 37, 0
11, 42286, Note_on_c, 9, 36, 0
11, 42300, Note_on_c, 9, 42, 127
11, 42300, Note_on_c, 9, 37, 127
11, 42312, Note_on_c, 9, 42, 0
11, 42314, Note_on_c, 9, 37, 0
11, 42330, Note_on_c, 9, 42, 127
11, 42330, Note_on_c, 9, 37, 127
11, 42344, Note_on_c, 9, 37, 0
11, 42344, Note_on_c, 9, 42, 0
11, 42360, Note_on_c, 9, 62, 127
11, 42360, Note_on_c, 9, 42, 127
11, 42360, Note_on_c, 9, 37, 127
11, 42375, Note_on_c, 9, 42, 0
11, 42377, Note_on_c, 9, 37, 0
11, 42381, Note_on_c, 9, 62, 0
11, 42420, Note_on_c, 9, 36, 127
11, 42420, Note_on_c, 9, 42, 127
11, 42420, Note_on_c, 9, 37, 127
11, 42433, Note_on_c, 9, 37, 0
11, 42434, Note_on_c, 9, 36, 0
11, 42435, Note_on_c, 9, 42, 0
11, 42450, Note_on_c, 9, 36, 127
11, 42450, Note_on_c, 9, 42, 127
11, 42450, Note_on_c, 9, 37, 127
11, 42463, Note_on_c, 9, 37, 0
11, 42463, Note_on_c, 9, 42, 0
11, 42469, Note_on_c, 9, 36, 0
11, 42480, Note_on_c, 9, 42, 127
11, 42480, Note_on_c, 9, 37, 127
11, 42495, Note_on_c, 9, 42, 0
11, 42497, Note_on_c, 9, 37, 0
11, 42540, Note_on_c, 9, 36, 127
11, 42540, Note_on_c, 9, 42, 127
11, 42540, Note_on_c, 9, 37, 127
11, 42555, Note_on_c, 9, 42, 0
11, 42556, Note_on_c, 9, 37, 0
11, 42559, Note_on_c, 9, 36, 0
11, 42600, Note_on_c, 9, 62, 127
11, 42600, Note_on_c, 9, 42, 127
11, 42600, Note_on_c, 9, 40, 90
11, 42600, Note_on_c, 9, 37, 127
11, 42609, Note_on_c, 9, 40, 0
11, 42613, Note_on_c, 9, 37, 0
11, 42613, Note_on_c, 9, 42, 0
11, 42615, Note_on_c, 9, 40, 90
11, 42618, Note_on_c, 9, 62, 0
11, 42623, Note_on_c, 9, 40, 0
11, 42630, Note_on_c, 9, 42, 127
11, 42630, Note_on_c, 9, 40, 90
11, 42630, Note_on_c, 9, 37, 127
11, 42640, Note_on_c, 9, 42, 0
11, 42641, Note_on_c, 9, 40, 0
11, 42645, Note_on_c, 9, 37, 0
11, 42645, Note_on_c, 9, 40, 90
11, 42656, Note_on_c, 9, 40, 0
11, 42660, Note_on_c, 9, 40, 90
11, 42670, Note_on_c, 9, 40, 0
11, 42720, Note_on_c, 9, 62, 127
11, 42720, Note_on_c, 9, 35, 127
11, 42720, Note_on_c, 9, 42, 127
11, 42720, Note_on_c, 9, 37, 127
11, 42730, Note_on_c, 9, 42, 0
11, 42733, Note_on_c, 9, 37, 0
11, 42749, Note_on_c, 9, 35, 127
11, 42750, Note_on_c, 9, 35, 0
11, 42750, Note_on_c, 9, 37, 127
11, 42750, Note_on_c, 9, 42, 127
11, 42753, Note_on_c, 9, 62, 0
11, 42761, Note_on_c, 9, 42, 0
11, 42763, Note_on_c, 9, 37, 0
11, 42779, Note_on_c, 9, 35, 0
11, 42779, Note_on_c, 9, 35, 127
11, 42780, Note_on_c, 9, 37, 127
11, 42780, Note_on_c, 9, 42, 127
11, 42790, Note_on_c, 9, 42, 0
11, 42794, Note_on_c, 9, 37, 0
11, 42809, Note_on_c, 9, 35, 0
11, 42809, Note_on_c, 9, 35, 127
11, 42810, Note_on_c, 9, 37, 127
11, 42810, Note_on_c, 9, 42, 127
11, 42822, Note_on_c, 9, 42, 0
11, 42824, Note_on_c, 9, 37, 0
11, 42839, Note_on_c, 9, 35, 0
11, 42840, Note_on_c, 9, 62, 127
11, 42840, Note_on_c, 9, 37, 127
11, 42840, Note_on_c, 9, 35, 127
11, 42840, Note_on_c, 9, 42, 127
11, 42855, Note_on_c, 9, 42, 0
11, 42857, Note_on_c, 9, 37, 0
11, 42865, Note_on_c, 9, 62, 0
11, 42866, Note_on_c, 9, 35, 127
11, 42870, Note_on_c, 9, 35, 0
11, 42896, Note_on_c, 9, 35, 0
11, 42900, Note_on_c, 9, 35, 127
11, 42900, Note_on_c, 9, 37, 127
11, 42900, Note_on_c, 9, 36, 127
11, 42900, Note_on_c, 9, 42, 127
11, 42913, Note_on_c, 9, 42, 0
11, 42913, Note_on_c, 9, 37, 0
11, 42916, Note_on_c, 9, 36, 0
11, 42930, Note_on_c, 9, 35, 0
11, 42930, Note_on_c, 9, 42, 127
11, 42930, Note_on_c, 9, 37, 127
11, 42930, Note_on_c, 9, 36, 127
11, 42931, Note_on_c, 9, 35, 127
11, 42942, Note_on_c, 9, 42, 0
11, 42943, Note_on_c, 9, 37, 0
11, 42949, Note_on_c, 9, 36, 0
11, 42960, Note_on_c, 9, 37, 127
11, 42960, Note_on_c, 9, 42, 127
11, 42961, Note_on_c, 9, 35, 0
11, 42975, Note_on_c, 9, 42, 0
11, 42977, Note_on_c, 9, 37, 0
11, 43020, Note_on_c, 9, 42, 127
11, 43020, Note_on_c, 9, 37, 127
11, 43020, Note_on_c, 9, 36, 127
11, 43036, Note_on_c, 9, 36, 0
11, 43036, Note_on_c, 9, 37, 0
11, 43036, Note_on_c, 9, 42, 0
11, 43080, Note_on_c, 9, 62, 127
11, 43080, Note_on_c, 9, 37, 127
11, 43080, Note_on_c, 9, 42, 127
11, 43093, Note_on_c, 9, 37, 0
11, 43094, Note_on_c, 9, 42, 0
11, 43101, Note_on_c, 9, 62, 0
11, 43110, Note_on_c, 9, 37, 127
11, 43110, Note_on_c, 9, 42, 127
11, 43124, Note_on_c, 9, 42, 0
11, 43125, Note_on_c, 9, 37, 0
11, 43200, Note_on_c, 9, 62, 127
11, 43200, Note_on_c, 9, 42, 127
11, 43200, Note_on_c, 9, 37, 127
11, 43213, Note_on_c, 9, 37, 0
11, 43214, Note_on_c, 9, 42, 0
11, 43224, Note_on_c, 9, 62, 0
11, 43230, Note_on_c, 9, 42, 127
11, 43230, Note_on_c, 9, 37, 127
11, 43230, Note_on_c, 9, 36, 127
11, 43242, Note_on_c, 9, 42, 0
11, 43243, Note_on_c, 9, 37, 0
11, 43246, Note_on_c, 9, 36, 0
11, 43260, Note_on_c, 9, 42, 127
11, 43260, Note_on_c, 9, 37, 127
11, 43272, Note_on_c, 9, 42, 0
11, 43274, Note_on_c, 9, 37, 0
11, 43290, Note_on_c, 9, 42, 127
11, 43290, Note_on_c, 9, 37, 127
11, 43304, Note_on_c, 9, 37, 0
11, 43304, Note_on_c, 9, 42, 0
11, 43320, Note_on_c, 9, 62, 127
11, 43320, Note_on_c, 9, 42, 127
11, 43320, Note_on_c, 9, 37, 127
11, 43335, Note_on_c, 9, 42, 0
11, 43337, Note_on_c, 9, 37, 0
11, 43341, Note_on_c, 9, 62, 0
11, 43380, Note_on_c, 9, 42, 127
11, 43380, Note_on_c, 9, 37, 127
11, 43380, Note_on_c, 9, 36, 127
11, 43393, Note_on_c, 9, 37, 0
11, 43394, Note_on_c, 9, 36, 0
11, 43395, Note_on_c, 9, 42, 0
11, 43410, Note_on_c, 9, 42, 127
11, 43410, Note_on_c, 9, 37, 127
11, 43410, Note_on_c, 9, 36, 127
11, 43423, Note_on_c, 9, 37, 0
11, 43423, Note_on_c, 9, 42, 0
11, 43429, Note_on_c, 9, 36, 0
11, 43440, Note_on_c, 9, 42, 127
11, 43440, Note_on_c, 9, 37, 127
11, 43455, Note_on_c, 9, 42, 0
11, 43457, Note_on_c, 9, 37, 0
11, 43500, Note_on_c, 9, 42, 127
11, 43500, Note_on_c, 9, 37, 127
11, 43500, Note_on_c, 9, 36, 127
11, 43515, Note_on_c, 9, 42, 0
11, 43516, Note_on_c, 9, 37, 0
11, 43519, Note_on_c, 9, 36, 0
11, 43560, Note_on_c, 9, 62, 127
11, 43560, Note_on_c, 9, 42, 127
11, 43560, Note_on_c, 9, 40, 90
11, 43560, Note_on_c, 9, 37, 127
11, 43570, Note_on_c, 9, 40, 0
11, 43573, Note_on_c, 9, 37, 0
11, 43573, Note_on_c, 9, 42, 0
11, 43575, Note_on_c, 9, 40, 90
11, 43578, Note_on_c, 9, 62, 0
11, 43583, Note_on_c, 9, 40, 0
11, 43590, Note_on_c, 9, 42, 127
11, 43590, Note_on_c, 9, 40, 90
11, 43590, Note_on_c, 9, 37, 127
11, 43598, Note_on_c, 9, 40, 0
11, 43600, Note_on_c, 9, 42, 0
11, 43605, Note_on_c, 9, 37, 0
11, 43605, Note_on_c, 9, 40, 90
11, 43618, Note_on_c, 9, 40, 0
11, 43620, Note_on_c, 9, 40, 90
11, 43629, Note_on_c, 9, 40, 0
11, 43680, Note_on_c, 9, 62, 127
11, 43680, Note_on_c, 9, 35, 127
11, 43680, Note_on_c, 9, 42, 127
11, 43680, Note_on_c, 9, 37, 127
11, 43690, Note_on_c, 9, 42, 0
11, 43693, Note_on_c, 9, 37, 0
11, 43710, Note_on_c, 9, 35, 0
11, 43710, Note_on_c, 9, 35, 127
11, 43710, Note_on_c, 9, 37, 127
11, 43710, Note_on_c, 9, 42, 127
11, 43713, Note_on_c, 9, 62, 0
11, 43721, Note_on_c, 9, 42, 0
11, 43723, Note_on_c, 9, 37, 0
11, 43740, Note_on_c, 9, 35, 0
11, 43740, Note_on_c, 9, 35, 127
11, 43740, Note_on_c, 9, 37, 127
11, 43740, Note_on_c, 9, 42, 127
11, 43750, Note_on_c, 9, 42, 0
11, 43754, Note_on_c, 9, 37, 0
11, 43770, Note_on_c, 9, 35, 0
11, 43770, Note_on_c, 9, 35, 127
11, 43770, Note_on_c, 9, 37, 127
11, 43770, Note_on_c, 9, 42, 127
11, 43782, Note_on_c, 9, 42, 0
11, 43784, Note_on_c, 9, 37, 0
11, 43800, Note_on_c, 9, 35, 0
11, 43800, Note_on_c, 9, 62, 127
11, 43800, Note_on_c, 9, 37, 127
11, 43800, Note_on_c, 9, 35, 127
11, 43800, Note_on_c, 9, 42, 127
11, 43815, Note_on_c, 9, 42, 0
11, 43817, Note_on_c, 9, 37, 0
11, 43825, Note_on_c, 9, 62, 0
11, 43830, Note_on_c, 9, 35, 0
11, 43830, Note_on_c, 9, 35, 127
11, 43860, Note_on_c, 9, 35, 0
11, 43860, Note_on_c, 9, 35, 127
11, 43860, Note_on_c, 9, 37, 127
11, 43860, Note_on_c, 9, 36, 127
11, 43860, Note_on_c, 9, 42, 127
11, 43873, Note_on_c, 9, 42, 0
11, 43873, Note_on_c, 9, 37, 0
11, 43876, Note_on_c, 9, 36, 0
11, 43890, Note_on_c, 9, 35, 0
11, 43890, Note_on_c, 9, 42, 127
11, 43890, Note_on_c, 9, 37, 127
11, 43890, Note_on_c, 9, 36, 127
11, 43890, Note_on_c, 9, 35, 127
11, 43902, Note_on_c, 9, 42, 0
11, 43903, Note_on_c, 9, 37, 0
11, 43909, Note_on_c, 9, 36, 0
11, 43920, Note_on_c, 9, 35, 0
11, 43920, Note_on_c, 9, 37, 127
11, 43920, Note_on_c, 9, 42, 127
11, 43935, Note_on_c, 9, 42, 0
11, 43937, Note_on_c, 9, 37, 0
11, 43980, Note_on_c, 9, 42, 127
11, 43980, Note_on_c, 9, 37, 127
11, 43980, Note_on_c, 9, 36, 127
11, 43996, Note_on_c, 9, 36, 0
11, 43996, Note_on_c, 9, 37, 0
11, 43996, Note_on_c, 9, 42, 0
11, 44040, Note_on_c, 9, 62, 127
11, 44040, Note_on_c, 9, 37, 127
11, 44040, Note_on_c, 9, 42, 127
11, 44053, Note_on_c, 9, 37, 0
11, 44054, Note_on_c, 9, 42, 0
11, 44061, Note_on_c, 9, 62, 0
11, 44070, Note_on_c, 9, 37, 127
11, 44070, Note_on_c, 9, 42, 127
11, 44084, Note_on_c, 9, 42, 0
11, 44085, Note_on_c, 9, 37, 0
11, 44160, Note_on_c, 9, 62, 127
11, 44160, Note_on_c, 9, 42, 127
11, 44160, Note_on_c, 9, 37, 127
11, 44173, Note_on_c, 9, 37, 0
11, 44174, Note_on_c, 9, 42, 0
11, 44184, Note_on_c, 9, 62, 0
11, 44190, Note_on_c, 9, 42, 127
11, 44190, Note_on_c, 9, 37, 127
11, 44190, Note_on_c, 9, 36, 127
11, 44202, Note_on_c, 9, 42, 0
11, 44203, Note_on_c, 9, 37, 0
11, 44206, Note_on_c, 9, 36, 0
11, 44220, Note_on_c, 9, 42, 127
11, 44220, Note_on_c, 9, 37, 127
11, 44232, Note_on_c, 9, 42, 0
11, 44234, Note_on_c, 9, 37, 0
11, 44250, Note_on_c, 9, 42, 127
11, 44250, Note_on_c, 9, 37, 127
11, 44264, Note_on_c, 9, 37, 0
11, 44264, Note_on_c, 9, 42, 0
11, 44280, Note_on_c, 9, 62, 127
11, 44280, Note_on_c, 9, 42, 127
11, 44280, Note_on_c, 9, 37, 127
11, 44295, Note_on_c, 9, 42, 0
11, 44297, Note_on_c, 9, 37, 0
11, 44301, Note_on_c, 9, 62, 0
11, 44340, Note_on_c, 9, 42, 127
11, 44340, Note_on_c, 9, 37, 127
11, 44340, Note_on_c, 9, 36, 127
11, 44353, Note_on_c, 9, 37, 0
11, 44354, Note_on_c, 9, 36, 0
11, 44355, Note_on_c, 9, 42, 0
11, 44370, Note_on_c, 9, 42, 127
11, 44370, Note_on_c, 9, 37, 127
11, 44370, Note_on_c, 9, 36, 127
11, 44383, Note_on_c, 9, 37, 0
11, 44383, Note_on_c, 9, 42, 0
11, 44389, Note_on_c, 9, 36, 0
11, 44400, Note_on_c, 9, 42, 127
11, 44400, Note_on_c, 9, 37, 127
11, 44415, Note_on_c, 9, 42, 0
11, 44417, Note_on_c, 9, 37, 0
11, 44460, Note_on_c, 9, 42, 127
11, 44460, Note_on_c, 9, 37, 127
11, 44460, Note_on_c, 9, 36, 127
11, 44475, Note_on_c, 9, 42, 0
11, 44476, Note_on_c, 9, 37, 0
11, 44479, Note_on_c, 9, 36, 0
11, 44520, Note_on_c, 9, 62, 127
11, 44520, Note_on_c, 9, 42, 127
11, 44520, Note_on_c, 9, 40, 90
11, 44520, Note_on_c, 9, 37, 127
11, 44531, Note_on_c, 9, 40, 0
11, 44533, Note_on_c, 9, 37, 0
11, 44533, Note_on_c, 9, 42, 0
11, 44535, Note_on_c, 9, 40, 90
11, 44538, Note_on_c, 9, 62, 0
11, 44544, Note_on_c, 9, 40, 0
11, 44550, Note_on_c, 9, 42, 127
11, 44550, Note_on_c, 9, 40, 90
11, 44550, Note_on_c, 9, 37, 127
11, 44559, Note_on_c, 9, 40, 0
11, 44560, Note_on_c, 9, 42, 0
11, 44565, Note_on_c, 9, 37, 0
11, 44565, Note_on_c, 9, 40, 90
11, 44577, Note_on_c, 9, 40, 0
11, 44580, Note_on_c, 9, 40, 90
11, 44589, Note_on_c, 9, 40, 0
11, 44640, Note_on_c, 9, 35, 127
11, 44640, Note_on_c, 9, 62, 127
11, 44640, Note_on_c, 9, 42, 127
11, 44640, Note_on_c, 9, 37, 127
11, 44650, Note_on_c, 9, 42, 0
11, 44653, Note_on_c, 9, 37, 0
11, 44669, Note_on_c, 9, 35, 127
11, 44670, Note_on_c, 9, 35, 0
11, 44670, Note_on_c, 9, 42, 127
11, 44670, Note_on_c, 9, 37, 127
11, 44673, Note_on_c, 9, 62, 0
11, 44681, Note_on_c, 9, 42, 0
11, 44683, Note_on_c, 9, 37, 0
11, 44699, Note_on_c, 9, 35, 0
11, 44699, Note_on_c, 9, 35, 127
11, 44700, Note_on_c, 9, 42, 127
11, 44700, Note_on_c, 9, 37, 127
11, 44710, Note_on_c, 9, 42, 0
11, 44714, Note_on_c, 9, 37, 0
11, 44729, Note_on_c, 9, 35, 0
11, 44729, Note_on_c, 9, 35, 127
11, 44730, Note_on_c, 9, 42, 127
11, 44730, Note_on_c, 9, 37, 127
11, 44742, Note_on_c, 9, 42, 0
11, 44744, Note_on_c, 9, 37, 0
11, 44759, Note_on_c, 9, 35, 0
11, 44760, Note_on_c, 9, 62, 127
11, 44760, Note_on_c, 9, 42, 127
11, 44760, Note_on_c, 9, 35, 127
11, 44760, Note_on_c, 9, 37, 127
11, 44775, Note_on_c, 9, 42, 0
11, 44777, Note_on_c, 9, 37, 0
11, 44785, Note_on_c, 9, 62, 0
11, 44786, Note_on_c, 9, 35, 127
11, 44790, Note_on_c, 9, 35, 0
11, 44816, Note_on_c, 9, 35, 0
11, 44820, Note_on_c, 9, 42, 127
11, 44820, Note_on_c, 9, 35, 127
11, 44820, Note_on_c, 9, 37, 127
11, 44820, Note_on_c, 9, 36, 127
11, 44833, Note_on_c, 9, 37, 0
11, 44833, Note_on_c, 9, 42, 0
11, 44836, Note_on_c, 9, 36, 0
11, 44850, Note_on_c, 9, 35, 0
11, 44850, Note_on_c, 9, 42, 127
11, 44850, Note_on_c, 9, 37, 127
11, 44850, Note_on_c, 9, 36, 127
11, 44851, Note_on_c, 9, 35, 127
11, 44862, Note_on_c, 9, 42, 0
11, 44863, Note_on_c, 9, 37, 0
11, 44869, Note_on_c, 9, 36, 0
11, 44880, Note_on_c, 9, 42, 127
11, 44880, Note_on_c, 9, 37, 127
11, 44881, Note_on_c, 9, 35, 0
11, 44895, Note_on_c, 9, 42, 0
11, 44897, Note_on_c, 9, 37, 0
11, 44940, Note_on_c, 9, 42, 127
11, 44940, Note_on_c, 9, 37, 127
11, 44940, Note_on_c, 9, 36, 127
11, 44956, Note_on_c, 9, 36, 0
11, 44956, Note_on_c, 9, 37, 0
11, 44956, Note_on_c, 9, 42, 0
11, 45000, Note_on_c, 9, 62, 127
11, 45000, Note_on_c, 9, 42, 127
11, 45000, Note_on_c, 9, 37, 127
11, 45013, Note_on_c, 9, 37, 0
11, 45014, Note_on_c, 9, 42, 0
11, 45021, Note_on_c, 9, 62, 0
11, 45030, Note_on_c, 9, 42, 127
11, 45030, Note_on_c, 9, 37, 127
11, 45044, Note_on_c, 9, 42, 0
11, 45045, Note_on_c, 9, 37, 0
11, 45120, Note_on_c, 9, 62, 127
11, 45120, Note_on_c, 9, 42, 127
11, 45120, Note_on_c, 9, 37, 127
11, 45133, Note_on_c, 9, 37, 0
11, 45134, Note_on_c, 9, 42, 0
11, 45144, Note_on_c, 9, 62, 0
11, 45150, Note_on_c, 9, 42, 127
11, 45150, Note_on_c, 9, 36, 127
11, 45150, Note_on_c, 9, 37, 127
11, 45162, Note_on_c, 9, 42, 0
11, 45163, Note_on_c, 9, 37, 0
11, 45166, Note_on_c, 9, 36, 0
11, 45180, Note_on_c, 9, 42, 127
11, 45180, Note_on_c, 9, 37, 127
11, 45192, Note_on_c, 9, 42, 0
11, 45194, Note_on_c, 9, 37, 0
11, 45210, Note_on_c, 9, 42, 127
11, 45210, Note_on_c, 9, 37, 127
11, 45224, Note_on_c, 9, 37, 0
11, 45224, Note_on_c, 9, 42, 0
11, 45240, Note_on_c, 9, 62, 127
11, 45240, Note_on_c, 9, 42, 127
11, 45240, Note_on_c, 9, 37, 127
11, 45255, Note_on_c, 9, 42, 0
11, 45257, Note_on_c, 9, 37, 0
11, 45261, Note_on_c, 9, 62, 0
11, 45300, Note_on_c, 9, 42, 127
11, 45300, Note_on_c, 9, 36, 127
11, 45300, Note_on_c, 9, 37, 127
11, 45313, Note_on_c, 9, 37, 0
11, 45314, Note_on_c, 9, 36, 0
11, 45315, Note_on_c, 9, 42, 0
11, 45330, Note_on_c, 9, 42, 127
11, 45330, Note_on_c, 9, 36, 127
11, 45330, Note_on_c, 9, 37, 127
11, 45343, Note_on_c, 9, 37, 0
11, 45343, Note_on_c, 9, 42, 0
11, 45349, Note_on_c, 9, 36, 0
11, 45360, Note_on_c, 9, 42, 127
11, 45360, Note_on_c, 9, 37, 127
11, 45375, Note_on_c, 9, 42, 0
11, 45377, Note_on_c, 9, 37, 0
11, 45420, Note_on_c, 9, 42, 127
11, 45420, Note_on_c, 9, 36, 127
11, 45420, Note_on_c, 9, 37, 127
11, 45435, Note_on_c, 9, 42, 0
11, 45436, Note_on_c, 9, 37, 0
11, 45439, Note_on_c, 9, 36, 0
11, 45480, Note_on_c, 9, 62, 127
11, 45480, Note_on_c, 9, 42, 127
11, 45480, Note_on_c, 9, 37, 127
11, 45480, Note_on_c, 9, 40, 90
11, 45491, Note_on_c, 9, 40, 0
11, 45493, Note_on_c, 9, 37, 0
11, 45493, Note_on_c, 9, 42, 0
11, 45495, Note_on_c, 9, 40, 90
11, 45498, Note_on_c, 9, 62, 0
11, 45504, Note_on_c, 9, 40, 0
11, 45510, Note_on_c, 9, 42, 127
11, 45510, Note_on_c, 9, 37, 127
11, 45510, Note_on_c, 9, 40, 90
11, 45520, Note_on_c, 9, 42, 0
11, 45522, Note_on_c, 9, 40, 0
11, 45525, Note_on_c, 9, 37, 0
11, 45525, Note_on_c, 9, 40, 90
11, 45538, Note_on_c, 9, 40, 0
11, 45540, Note_on_c, 9, 40, 90
11, 45548, Note_on_c, 9, 40, 0
11, 45600, Note_on_c, 9, 35, 127
11, 45600, Note_on_c, 9, 62, 127
11, 45600, Note_on_c, 9, 42, 127
11, 45600, Note_on_c, 9, 37, 127
11, 45610, Note_on_c, 9, 42, 0
11, 45613, Note_on_c, 9, 37, 0
11, 45630, Note_on_c, 9, 35, 0
11, 45630, Note_on_c, 9, 37, 127
11, 45630, Note_on_c, 9, 36, 127
11, 45630, Note_on_c, 9, 35, 127
11, 45630, Note_on_c, 9, 42, 127
11, 45633, Note_on_c, 9, 62, 0
11, 45641, Note_on_c, 9, 42, 0
11, 45643, Note_on_c, 9, 37, 0
11, 45652, Note_on_c, 9, 36, 0
11, 45660, Note_on_c, 9, 35, 0
11, 45660, Note_on_c, 9, 37, 127
11, 45660, Note_on_c, 9, 42, 127
11, 45660, Note_on_c, 9, 35, 127
11, 45670, Note_on_c, 9, 42, 0
11, 45674, Note_on_c, 9, 37, 0
11, 45690, Note_on_c, 9, 35, 0
11, 45690, Note_on_c, 9, 37, 127
11, 45690, Note_on_c, 9, 42, 127
11, 45690, Note_on_c, 9, 35, 127
11, 45702, Note_on_c, 9, 42, 0
11, 45704, Note_on_c, 9, 37, 0
11, 45720, Note_on_c, 9, 35, 0
11, 45720, Note_on_c, 9, 62, 127
11, 45720, Note_on_c, 9, 37, 127
11, 45720, Note_on_c, 9, 35, 127
11, 45720, Note_on_c, 9, 42, 127
11, 45735, Note_on_c, 9, 42, 0
11, 45737, Note_on_c, 9, 37, 0
11, 45745, Note_on_c, 9, 62, 0
11, 45750, Note_on_c, 9, 35, 0
11, 45750, Note_on_c, 9, 35, 127
11, 45780, Note_on_c, 9, 35, 0
11, 45780, Note_on_c, 9, 37, 127
11, 45780, Note_on_c, 9, 36, 127
11, 45780, Note_on_c, 9, 35, 127
11, 45780, Note_on_c, 9, 42, 127
11, 45793, Note_on_c, 9, 42, 0
11, 45793, Note_on_c, 9, 37, 0
11, 45796, Note_on_c, 9, 36, 0
11, 45810, Note_on_c, 9, 35, 0
11, 45810, Note_on_c, 9, 37, 127
11, 45810, Note_on_c, 9, 36, 127
11, 45810, Note_on_c, 9, 35, 127
11, 45810, Note_on_c, 9, 42, 127
11, 45822, Note_on_c, 9, 42, 0
11, 45823, Note_on_c, 9, 37, 0
11, 45829, Note_on_c, 9, 36, 0
11, 45840, Note_on_c, 9, 35, 0
11, 45840, Note_on_c, 9, 37, 127
11, 45840, Note_on_c, 9, 42, 127
11, 45855, Note_on_c, 9, 42, 0
11, 45857, Note_on_c, 9, 37, 0
11, 45900, Note_on_c, 9, 37, 127
11, 45900, Note_on_c, 9, 36, 127
11, 45900, Note_on_c, 9, 42, 127
11, 45916, Note_on_c, 9, 42, 0
11, 45916, Note_on_c, 9, 36, 0
11, 45916, Note_on_c, 9, 37, 0
11, 45960, Note_on_c, 9, 62, 127
11, 45960, Note_on_c, 9, 37, 127
11, 45960, Note_on_c, 9, 42, 127
11, 45973, Note_on_c, 9, 37, 0
11, 45974, Note_on_c, 9, 42, 0
11, 45981, Note_on_c, 9, 62, 0
11, 45990, Note_on_c, 9, 37, 127
11, 45990, Note_on_c, 9, 42, 127
11, 46004, Note_on_c, 9, 42, 0
11, 46005, Note_on_c, 9, 37, 0
11, 46080, Note_on_c, 9, 62, 127
11, 46080, Note_on_c, 9, 42, 127
11, 46080, Note_on_c, 9, 37, 127
11, 46093, Note_on_c, 9, 37, 0
11, 46094, Note_on_c, 9, 42, 0
11, 46104, Note_on_c, 9, 62, 0
11, 46110, Note_on_c, 9, 36, 127
11, 46110, Note_on_c, 9, 42, 127
11, 46110, Note_on_c, 9, 37, 127
11, 46122, Note_on_c, 9, 42, 0
11, 46123, Note_on_c, 9, 37, 0
11, 46126, Note_on_c, 9, 36, 0
11, 46140, Note_on_c, 9, 42, 127
11, 46140, Note_on_c, 9, 37, 127
11, 46152, Note_on_c, 9, 42, 0
11, 46154, Note_on_c, 9, 37, 0
11, 46170, Note_on_c, 9, 42, 127
11, 46170, Note_on_c, 9, 37, 127
11, 46184, Note_on_c, 9, 37, 0
11, 46184, Note_on_c, 9, 42, 0
11, 46200, Note_on_c, 9, 62, 127
11, 46200, Note_on_c, 9, 42, 127
11, 46200, Note_on_c, 9, 37, 127
11, 46215, Note_on_c, 9, 42, 0
11, 46217, Note_on_c, 9, 37, 0
11, 46221, Note_on_c, 9, 62, 0
11, 46260, Note_on_c, 9, 36, 127
11, 46260, Note_on_c, 9, 42, 127
11, 46260, Note_on_c, 9, 37, 127
11, 46273, Note_on_c, 9, 37, 0
11, 46274, Note_on_c, 9, 36, 0
11, 46275, Note_on_c, 9, 42, 0
11, 46290, Note_on_c, 9, 36, 127
11, 46290, Note_on_c, 9, 42, 127
11, 46290, Note_on_c, 9, 37, 127
11, 46303, Note_on_c, 9, 37, 0
11, 46303, Note_on_c, 9, 42, 0
11, 46309, Note_on_c, 9, 36, 0
11, 46320, Note_on_c, 9, 42, 127
11, 46320, Note_on_c, 9, 37, 127
11, 46335, Note_on_c, 9, 42, 0
11, 46337, Note_on_c, 9, 37, 0
11, 46380, Note_on_c, 9, 36, 127
11, 46380, Note_on_c, 9, 42, 127
11, 46380, Note_on_c, 9, 37, 127
11, 46395, Note_on_c, 9, 42, 0
11, 46396, Note_on_c, 9, 37, 0
11, 46399, Note_on_c, 9, 36, 0
11, 46440, Note_on_c, 9, 62, 127
11, 46440, Note_on_c, 9, 42, 127
11, 46440, Note_on_c, 9, 40, 90
11, 46440, Note_on_c, 9, 37, 127
11, 46449, Note_on_c, 9, 40, 0
11, 46453, Note_on_c, 9, 37, 0
11, 46453, Note_on_c, 9, 42, 0
11, 46455, Note_on_c, 9, 40, 90
11, 46458, Note_on_c, 9, 62, 0
11, 46463, Note_on_c, 9, 40, 0
11, 46470, Note_on_c, 9, 42, 127
11, 46470, Note_on_c, 9, 40, 90
11, 46470, Note_on_c, 9, 37, 127
11, 46480, Note_on_c, 9, 42, 0
11, 46481, Note_on_c, 9, 40, 0
11, 46485, Note_on_c, 9, 37, 0
11, 46485, Note_on_c, 9, 40, 90
11, 46496, Note_on_c, 9, 40, 0
11, 46500, Note_on_c, 9, 40, 90
11, 46510, Note_on_c, 9, 40, 0
11, 46560, Note_on_c, 9, 35, 127
11, 46560, Note_on_c, 9, 42, 127
11, 46560, Note_on_c, 9, 37, 127
11, 46560, Note_on_c, 9, 62, 127
11, 46570, Note_on_c, 9, 42, 0
11, 46573, Note_on_c, 9, 37, 0
11, 46589, Note_on_c, 9, 35, 127
11, 46590, Note_on_c, 9, 35, 0
11, 46590, Note_on_c, 9, 37, 127
11, 46590, Note_on_c, 9, 42, 127
11, 46593, Note_on_c, 9, 62, 0
11, 46601, Note_on_c, 9, 42, 0
11, 46603, Note_on_c, 9, 37, 0
11, 46619, Note_on_c, 9, 35, 0
11, 46619, Note_on_c, 9, 35, 127
11, 46620, Note_on_c, 9, 37, 127
11, 46620, Note_on_c, 9, 42, 127
11, 46630, Note_on_c, 9, 42, 0
11, 46634, Note_on_c, 9, 37, 0
11, 46649, Note_on_c, 9, 35, 0
11, 46649, Note_on_c, 9, 35, 127
11, 46650, Note_on_c, 9, 37, 127
11, 46650, Note_on_c, 9, 42, 127
11, 46662, Note_on_c, 9, 42, 0
11, 46664, Note_on_c, 9, 37, 0
11, 46679, Note_on_c, 9, 35, 0
11, 46680, Note_on_c, 9, 37, 127
11, 46680, Note_on_c, 9, 35, 127
11, 46680, Note_on_c, 9, 42, 127
11, 46680, Note_on_c, 9, 62, 127
11, 46695, Note_on_c, 9, 42, 0
11, 46697, Note_on_c, 9, 37, 0
11, 46705, Note_on_c, 9, 62, 0
11, 46706, Note_on_c, 9, 35, 127
11, 46710, Note_on_c, 9, 35, 0
11, 46736, Note_on_c, 9, 35, 0
11, 46740, Note_on_c, 9, 35, 127
11, 46740, Note_on_c, 9, 37, 127
11, 46740, Note_on_c, 9, 36, 127
11, 46740, Note_on_c, 9, 42, 127
11, 46753, Note_on_c, 9, 42, 0
11, 46753, Note_on_c, 9, 37, 0
11, 46756, Note_on_c, 9, 36, 0
11, 46770, Note_on_c, 9, 35, 0
11, 46770, Note_on_c, 9, 42, 127
11, 46770, Note_on_c, 9, 37, 127
11, 46770, Note_on_c, 9, 36, 127
11, 46771, Note_on_c, 9, 35, 127
11, 46782, Note_on_c, 9, 42, 0
11, 46783, Note_on_c, 9, 37, 0
11, 46789, Note_on_c, 9, 36, 0
11, 46800, Note_on_c, 9, 37, 127
11, 46800, Note_on_c, 9, 42, 127
11, 46801, Note_on_c, 9, 35, 0
11, 46815, Note_on_c, 9, 42, 0
11, 46817, Note_on_c, 9, 37, 0
11, 46860, Note_on_c, 9, 42, 127
11, 46860, Note_on_c, 9, 37, 127
11, 46860, Note_on_c, 9, 36, 127
11, 46876, Note_on_c, 9, 36, 0
11, 46876, Note_on_c, 9, 37, 0
11, 46876, Note_on_c, 9, 42, 0
11, 46920, Note_on_c, 9, 37, 127
11, 46920, Note_on_c, 9, 42, 127
11, 46920, Note_on_c, 9, 62, 127
11, 46933, Note_on_c, 9, 37, 0
11, 46934, Note_on_c, 9, 42, 0
11, 46941, Note_on_c, 9, 62, 0
11, 46950, Note_on_c, 9, 37, 127
11, 46950, Note_on_c, 9, 42, 127
11, 46964, Note_on_c, 9, 42, 0
11, 46965, Note_on_c, 9, 37, 0
11, 47040, Note_on_c, 9, 62, 127
11, 47040, Note_on_c, 9, 42, 127
11, 47040, Note_on_c, 9, 37, 127
11, 47053, Note_on_c, 9, 37, 0
11, 47054, Note_on_c, 9, 42, 0
11, 47064, Note_on_c, 9, 62, 0
11, 47070, Note_on_c, 9, 42, 127
11, 47070, Note_on_c, 9, 37, 127
11, 47070, Note_on_c, 9, 36, 127
11, 47082, Note_on_c, 9, 42, 0
11, 47083, Note_on_c, 9, 37, 0
11, 47086, Note_on_c, 9, 36, 0
11, 47100, Note_on_c, 9, 42, 127
11, 47100, Note_on_c, 9, 37, 127
11, 47112, Note_on_c, 9, 42, 0
11, 47114, Note_on_c, 9, 37, 0
11, 47130, Note_on_c, 9, 42, 127
11, 47130, Note_on_c, 9, 37, 127
11, 47144, Note_on_c, 9, 37, 0
11, 47144, Note_on_c, 9, 42, 0
11, 47160, Note_on_c, 9, 62, 127
11, 47160, Note_on_c, 9, 42, 127
11, 47160, Note_on_c, 9, 37, 127
11, 47175, Note_on_c, 9, 42, 0
11, 47177, Note_on_c, 9, 37, 0
11, 47181, Note_on_c, 9, 62, 0
11, 47220, Note_on_c, 9, 42, 127
11, 47220, Note_on_c, 9, 37, 127
11, 47220, Note_on_c, 9, 36, 127
11, 47233, Note_on_c, 9, 37, 0
11, 47234, Note_on_c, 9, 36, 0
11, 47235, Note_on_c, 9, 42, 0
11, 47250, Note_on_c, 9, 42, 127
11, 47250, Note_on_c, 9, 37, 127
11, 47250, Note_on_c, 9, 36, 127
11, 47263, Note_on_c, 9, 37, 0
11, 47263, Note_on_c, 9, 42, 0
11, 47269, Note_on_c, 9, 36, 0
11, 47280, Note_on_c, 9, 42, 127
11, 47280, Note_on_c, 9, 37, 127
11, 47295, Note_on_c, 9, 42, 0
11, 47297, Note_on_c, 9, 37, 0
11, 47340, Note_on_c, 9, 42, 127
11, 47340, Note_on_c, 9, 37, 127
11, 47340, Note_on_c, 9, 36, 127
11, 47355, Note_on_c, 9, 42, 0
11, 47356, Note_on_c, 9, 37, 0
11, 47359, Note_on_c, 9, 36, 0
11, 47400, Note_on_c, 9, 62, 127
11, 47400, Note_on_c, 9, 42, 127
11, 47400, Note_on_c, 9, 40, 90
11, 47400, Note_on_c, 9, 37, 127
11, 47410, Note_on_c, 9, 40, 0
11, 47413, Note_on_c, 9, 37, 0
11, 47413, Note_on_c, 9, 42, 0
11, 47415, Note_on_c, 9, 40, 90
11, 47418, Note_on_c, 9, 62, 0
11, 47423, Note_on_c, 9, 40, 0
11, 47430, Note_on_c, 9, 42, 127
11, 47430, Note_on_c, 9, 40, 90
11, 47430, Note_on_c, 9, 37, 127
11, 47438, Note_on_c, 9, 40, 0
11, 47440, Note_on_c, 9, 42, 0
11, 47445, Note_on_c, 9, 37, 0
11, 47445, Note_on_c, 9, 40, 90
11, 47458, Note_on_c, 9, 40, 0
11, 47460, Note_on_c, 9, 40, 90
11, 47469, Note_on_c, 9, 40, 0
11, 47520, Note_on_c, 9, 62, 127
11, 47520, Note_on_c, 9, 35, 127
11, 47520, Note_on_c, 9, 42, 127
11, 47520, Note_on_c, 9, 37, 127
11, 47530, Note_on_c, 9, 42, 0
11, 47533, Note_on_c, 9, 37, 0
11, 47550, Note_on_c, 9, 35, 0
11, 47550, Note_on_c, 9, 35, 127
11, 47550, Note_on_c, 9, 37, 127
11, 47550, Note_on_c, 9, 42, 127
11, 47553, Note_on_c, 9, 62, 0
11, 47561, Note_on_c, 9, 42, 0
11, 47563, Note_on_c, 9, 37, 0
11, 47580, Note_on_c, 9, 35, 0
11, 47580, Note_on_c, 9, 35, 127
11, 47580, Note_on_c, 9, 37, 127
11, 47580, Note_on_c, 9, 42, 127
11, 47590, Note_on_c, 9, 42, 0
11, 47594, Note_on_c, 9, 37, 0
11, 47610, Note_on_c, 9, 35, 0
11, 47610, Note_on_c, 9, 35, 127
11, 47610, Note_on_c, 9, 37, 127
11, 47610, Note_on_c, 9, 42, 127
11, 47622, Note_on_c, 9, 42, 0
11, 47624, Note_on_c, 9, 37, 0
11, 47640, Note_on_c, 9, 35, 0
11, 47640, Note_on_c, 9, 62, 127
11, 47640, Note_on_c, 9, 37, 127
11, 47640, Note_on_c, 9, 35, 127
11, 47640, Note_on_c, 9, 42, 127
11, 47655, Note_on_c, 9, 42, 0
11, 47657, Note_on_c, 9, 37, 0
11, 47665, Note_on_c, 9, 62, 0
11, 47670, Note_on_c, 9, 35, 0
11, 47670, Note_on_c, 9, 35, 127
11, 47700, Note_on_c, 9, 35, 0
11, 47700, Note_on_c, 9, 35, 127
11, 47700, Note_on_c, 9, 37, 127
11, 47700, Note_on_c, 9, 36, 127
11, 47700, Note_on_c, 9, 42, 127
11, 47713, Note_on_c, 9, 42, 0
11, 47713, Note_on_c, 9, 37, 0
11, 47716, Note_on_c, 9, 36, 0
11, 47730, Note_on_c, 9, 35, 0
11, 47730, Note_on_c, 9, 42, 127
11, 47730, Note_on_c, 9, 37, 127
11, 47730, Note_on_c, 9, 36, 127
11, 47730, Note_on_c, 9, 35, 127
11, 47742, Note_on_c, 9, 42, 0
11, 47743, Note_on_c, 9, 37, 0
11, 47749, Note_on_c, 9, 36, 0
11, 47760, Note_on_c, 9, 35, 0
11, 47760, Note_on_c, 9, 37, 127
11, 47760, Note_on_c, 9, 42, 127
11, 47775, Note_on_c, 9, 42, 0
11, 47777, Note_on_c, 9, 37, 0
11, 47820, Note_on_c, 9, 42, 127
11, 47820, Note_on_c, 9, 37, 127
11, 47820, Note_on_c, 9, 36, 127
11, 47836, Note_on_c, 9, 36, 0
11, 47836, Note_on_c, 9, 37, 0
11, 47836, Note_on_c, 9, 42, 0
11, 47880, Note_on_c, 9, 62, 127
11, 47880, Note_on_c, 9, 37, 127
11, 47880, Note_on_c, 9, 42, 127
11, 47893, Note_on_c, 9, 37, 0
11, 47894, Note_on_c, 9, 42, 0
11, 47901, Note_on_c, 9, 62, 0
11, 47910, Note_on_c, 9, 37, 127
11, 47910, Note_on_c, 9, 42, 127
11, 47924, Note_on_c, 9, 42, 0
11, 47925, Note_on_c, 9, 37, 0
11, 48000, Note_on_c, 9, 62, 127
11, 48000, Note_on_c, 9, 37, 127
11, 48000, Note_on_c, 9, 42, 127
11, 48013, Note_on_c, 9, 37, 0
11, 48014, Note_on_c, 9, 42, 0
11, 48024, Note_on_c, 9, 62, 0
11, 48030, Note_on_c, 9, 37, 127
11, 48030, Note_on_c, 9, 42, 127
11, 48030, Note_on_c, 9, 36, 127
11, 48042, Note_on_c, 9, 42, 0
11, 48043, Note_on_c, 9, 37, 0
11, 48046, Note_on_c, 9, 36, 0
11, 48060, Note_on_c, 9, 37, 127
11, 48060, Note_on_c, 9, 42, 127
11, 48072, Note_on_c, 9, 42, 0
11, 48074, Note_on_c, 9, 37, 0
11, 48090, Note_on_c, 9, 37, 127
11, 48090, Note_on_c, 9, 42, 127
11, 48104, Note_on_c, 9, 42, 0
11, 48104, Note_on_c, 9, 37, 0
11, 48120, Note_on_c, 9, 62, 127
11, 48120, Note_on_c, 9, 37, 127
11, 48120, Note_on_c, 9, 42, 127
11, 48135, Note_on_c, 9, 42, 0
11, 48137, Note_on_c, 9, 37, 0
11, 48141, Note_on_c, 9, 62, 0
11, 48180, Note_on_c, 9, 37, 127
11, 48180, Note_on_c, 9, 42, 127
11, 48180, Note_on_c, 9, 36, 127
11, 48193, Note_on_c, 9, 37, 0
11, 48194, Note_on_c, 9, 36, 0
11, 48195, Note_on_c, 9, 42, 0
11, 48210, Note_on_c, 9, 37, 127
11, 48210, Note_on_c, 9, 42, 127
11, 48210, Note_on_c, 9, 36, 127
11, 48223, Note_on_c, 9, 42, 0
11, 48223, Note_on_c, 9, 37, 0
11, 48229, Note_on_c, 9, 36, 0
11, 48240, Note_on_c, 9, 37, 127
11, 48240, Note_on_c, 9, 42, 127
11, 48255, Note_on_c, 9, 42, 0
11, 48257, Note_on_c, 9, 37, 0
11, 48300, Note_on_c, 9, 37, 127
11, 48300, Note_on_c, 9, 42, 127
11, 48300, Note_on_c, 9, 36, 127
11, 48315, Note_on_c, 9, 42, 0
11, 48316, Note_on_c, 9, 37, 0
11, 48319, Note_on_c, 9, 36, 0
11, 48360, Note_on_c, 9, 62, 127
11, 48360, Note_on_c, 9, 40, 90
11, 48360, Note_on_c, 9, 37, 127
11, 48360, Note_on_c, 9, 42, 127
11, 48371, Note_on_c, 9, 40, 0
11, 48373, Note_on_c, 9, 42, 0
11, 48373, Note_on_c, 9, 37, 0
11, 48375, Note_on_c, 9, 40, 90
11, 48378, Note_on_c, 9, 62, 0
11, 48384, Note_on_c, 9, 40, 0
11, 48390, Note_on_c, 9, 40, 90
11, 48390, Note_on_c, 9, 37, 127
11, 48390, Note_on_c, 9, 42, 127
11, 48399, Note_on_c, 9, 40, 0
11, 48400, Note_on_c, 9, 42, 0
11, 48405, Note_on_c, 9, 37, 0
11, 48405, Note_on_c, 9, 40, 90
11, 48417, Note_on_c, 9, 40, 0
11, 48420, Note_on_c, 9, 40, 90
11, 48429, Note_on_c, 9, 40, 0
11, 48480, Note_on_c, 9, 35, 127
11, 48480, Note_on_c, 9, 62, 127
11, 48480, Note_on_c, 9, 42, 127
11, 48480, Note_on_c, 9, 37, 127
11, 48490, Note_on_c, 9, 42, 0
11, 48493, Note_on_c, 9, 37, 0
11, 48509, Note_on_c, 9, 35, 127
11, 48510, Note_on_c, 9, 35, 0
11, 48510, Note_on_c, 9, 37, 127
11, 48510, Note_on_c, 9, 42, 127
11, 48513, Note_on_c, 9, 62, 0
11, 48521, Note_on_c, 9, 42, 0
11, 48523, Note_on_c, 9, 37, 0
11, 48539, Note_on_c, 9, 35, 0
11, 48539, Note_on_c, 9, 35, 127
11, 48540, Note_on_c, 9, 37, 127
11, 48540, Note_on_c, 9, 42, 127
11, 48550, Note_on_c, 9, 42, 0
11, 48554, Note_on_c, 9, 37, 0
11, 48569, Note_on_c, 9, 35, 0
11, 48569, Note_on_c, 9, 35, 127
11, 48570, Note_on_c, 9, 37, 127
11, 48570, Note_on_c, 9, 42, 127
11, 48582, Note_on_c, 9, 42, 0
11, 48584, Note_on_c, 9, 37, 0
11, 48599, Note_on_c, 9, 35, 0
11, 48600, Note_on_c, 9, 62, 127
11, 48600, Note_on_c, 9, 35, 127
11, 48600, Note_on_c, 9, 37, 127
11, 48600, Note_on_c, 9, 42, 127
11, 48615, Note_on_c, 9, 42, 0
11, 48617, Note_on_c, 9, 37, 0
11, 48625, Note_on_c, 9, 62, 0
11, 48626, Note_on_c, 9, 35, 127
11, 48630, Note_on_c, 9, 35, 0
11, 48656, Note_on_c, 9, 35, 0
11, 48660, Note_on_c, 9, 35, 127
11, 48660, Note_on_c, 9, 37, 127
11, 48660, Note_on_c, 9, 36, 127
11, 48660, Note_on_c, 9, 42, 127
11, 48673, Note_on_c, 9, 42, 0
11, 48673, Note_on_c, 9, 37, 0
11, 48676, Note_on_c, 9, 36, 0
11, 48690, Note_on_c, 9, 35, 0
11, 48690, Note_on_c, 9, 37, 127
11, 48690, Note_on_c, 9, 36, 127
11, 48690, Note_on_c, 9, 42, 127
11, 48691, Note_on_c, 9, 35, 127
11, 48702, Note_on_c, 9, 42, 0
11, 48703, Note_on_c, 9, 37, 0
11, 48709, Note_on_c, 9, 36, 0
11, 48720, Note_on_c, 9, 37, 127
11, 48720, Note_on_c, 9, 42, 127
11, 48721, Note_on_c, 9, 35, 0
11, 48735, Note_on_c, 9, 42, 0
11, 48737, Note_on_c, 9, 37, 0
11, 48780, Note_on_c, 9, 37, 127
11, 48780, Note_on_c, 9, 36, 127
11, 48780, Note_on_c, 9, 42, 127
11, 48796, Note_on_c, 9, 42, 0
11, 48796, Note_on_c, 9, 36, 0
11, 48796, Note_on_c, 9, 37, 0
11, 48840, Note_on_c, 9, 62, 127
11, 48840, Note_on_c, 9, 37, 127
11, 48840, Note_on_c, 9, 42, 127
11, 48853, Note_on_c, 9, 37, 0
11, 48854, Note_on_c, 9, 42, 0
11, 48861, Note_on_c, 9, 62, 0
11, 48870, Note_on_c, 9, 37, 127
11, 48870, Note_on_c, 9, 42, 127
11, 48884, Note_on_c, 9, 42, 0
11, 48885, Note_on_c, 9, 37, 0
11, 48960, Note_on_c, 9, 62, 127
11, 48960, Note_on_c, 9, 42, 127
11, 48960, Note_on_c, 9, 37, 127
11, 48973, Note_on_c, 9, 37, 0
11, 48974, Note_on_c, 9, 42, 0
11, 48984, Note_on_c, 9, 62, 0
11, 48990, Note_on_c, 9, 36, 127
11, 48990, Note_on_c, 9, 42, 127
11, 48990, Note_on_c, 9, 37, 127
11, 49002, Note_on_c, 9, 42, 0
11, 49003, Note_on_c, 9, 37, 0
11, 49006, Note_on_c, 9, 36, 0
11, 49020, Note_on_c, 9, 42, 127
11, 49020, Note_on_c, 9, 37, 127
11, 49032, Note_on_c, 9, 42, 0
11, 49034, Note_on_c, 9, 37, 0
11, 49050, Note_on_c, 9, 42, 127
11, 49050, Note_on_c, 9, 37, 127
11, 49064, Note_on_c, 9, 37, 0
11, 49064, Note_on_c, 9, 42, 0
11, 49080, Note_on_c, 9, 62, 127
11, 49080, Note_on_c, 9, 42, 127
11, 49080, Note_on_c, 9, 37, 127
11, 49095, Note_on_c, 9, 42, 0
11, 49097, Note_on_c, 9, 37, 0
11, 49101, Note_on_c, 9, 62, 0
11, 49140, Note_on_c, 9, 36, 127
11, 49140, Note_on_c, 9, 42, 127
11, 49140, Note_on_c, 9, 37, 127
11, 49153, Note_on_c, 9, 37, 0
11, 49154, Note_on_c, 9, 36, 0
11, 49155, Note_on_c, 9, 42, 0
11, 49170, Note_on_c, 9, 36, 127
11, 49170, Note_on_c, 9, 42, 127
11, 49170, Note_on_c, 9, 37, 127
11, 49183, Note_on_c, 9, 37, 0
11, 49183, Note_on_c, 9, 42, 0
11, 49189, Note_on_c, 9, 36, 0
11, 49200, Note_on_c, 9, 42, 127
11, 49200, Note_on_c, 9, 37, 127
11, 49215, Note_on_c, 9, 42, 0
11, 49217, Note_on_c, 9, 37, 0
11, 49260, Note_on_c, 9, 36, 127
11, 49260, Note_on_c, 9, 42, 127
11, 49260, Note_on_c, 9, 37, 127
11, 49275, Note_on_c, 9, 42, 0
11, 49276, Note_on_c, 9, 37, 0
11, 49279, Note_on_c, 9, 36, 0
11, 49320, Note_on_c, 9, 62, 127
11, 49320, Note_on_c, 9, 42, 127
11, 49320, Note_on_c, 9, 37, 127
11, 49320, Note_on_c, 9, 40, 90
11, 49331, Note_on_c, 9, 40, 0
11, 49333, Note_on_c, 9, 37, 0
11, 49333, Note_on_c, 9, 42, 0
11, 49335, Note_on_c, 9, 40, 90
11, 49338, Note_on_c, 9, 62, 0
11, 49344, Note_on_c, 9, 40, 0
11, 49350, Note_on_c, 9, 42, 127
11, 49350, Note_on_c, 9, 37, 127
11, 49350, Note_on_c, 9, 40, 90
11, 49360, Note_on_c, 9, 42, 0
11, 49362, Note_on_c, 9, 40, 0
11, 49365, Note_on_c, 9, 37, 0
11, 49365, Note_on_c, 9, 40, 90
11, 49378, Note_on_c, 9, 40, 0
11, 49380, Note_on_c, 9, 40, 90
11, 49388, Note_on_c, 9, 40, 0
11, 49440, Note_on_c, 9, 35, 127
11, 49440, Note_on_c, 9, 62, 127
11, 49440, Note_on_c, 9, 42, 127
11, 49440, Note_on_c, 9, 37, 127
11, 49450, Note_on_c, 9, 42, 0
11, 49453, Note_on_c, 9, 37, 0
11, 49470, Note_on_c, 9, 35, 0
11, 49470, Note_on_c, 9, 37, 127
11, 49470, Note_on_c, 9, 36, 127
11, 49470, Note_on_c, 9, 35, 127
11, 49470, Note_on_c, 9, 42, 127
11, 49473, Note_on_c, 9, 62, 0
11, 49481, Note_on_c, 9, 42, 0
11, 49483, Note_on_c, 9, 37, 0
11, 49492, Note_on_c, 9, 36, 0
11, 49500, Note_on_c, 9, 35, 0
11, 49500, Note_on_c, 9, 37, 127
11, 49500, Note_on_c, 9, 42, 127
11, 49500, Note_on_c, 9, 35, 127
11, 49510, Note_on_c, 9, 42, 0
11, 49514, Note_on_c, 9, 37, 0
11, 49530, Note_on_c, 9, 35, 0
11, 49530, Note_on_c, 9, 37, 127
11, 49530, Note_on_c, 9, 42, 127
11, 49530, Note_on_c, 9, 35, 127
11, 49542, Note_on_c, 9, 42, 0
11, 49544, Note_on_c, 9, 37, 0
11, 49560, Note_on_c, 9, 35, 0
11, 49560, Note_on_c, 9, 62, 127
11, 49560, Note_on_c, 9, 37, 127
11, 49560, Note_on_c, 9, 35, 127
11, 49560, Note_on_c, 9, 42, 127
11, 49575, Note_on_c, 9, 42, 0
11, 49577, Note_on_c, 9, 37, 0
11, 49585, Note_on_c, 9, 62, 0
11, 49590, Note_on_c, 9, 35, 0
11, 49590, Note_on_c, 9, 35, 127
11, 49620, Note_on_c, 9, 35, 0
11, 49620, Note_on_c, 9, 37, 127
11, 49620, Note_on_c, 9, 36, 127
11, 49620, Note_on_c, 9, 35, 127
11, 49620, Note_on_c, 9, 42, 127
11, 49633, Note_on_c, 9, 42, 0
11, 49633, Note_on_c, 9, 37, 0
11, 49636, Note_on_c, 9, 36, 0
11, 49650, Note_on_c, 9, 35, 0
11, 49650, Note_on_c, 9, 37, 127
11, 49650, Note_on_c, 9, 36, 127
11, 49650, Note_on_c, 9, 35, 127
11, 49650, Note_on_c, 9, 42, 127
11, 49662, Note_on_c, 9, 42, 0
11, 49663, Note_on_c, 9, 37, 0
11, 49669, Note_on_c, 9, 36, 0
11, 49680, Note_on_c, 9, 35, 0
11, 49680, Note_on_c, 9, 37, 127
11, 49680, Note_on_c, 9, 42, 127
11, 49695, Note_on_c, 9, 42, 0
11, 49697, Note_on_c, 9, 37, 0
11, 49740, Note_on_c, 9, 37, 127
11, 49740, Note_on_c, 9, 36, 127
11, 49740, Note_on_c, 9, 42, 127
11, 49756, Note_on_c, 9, 42, 0
11, 49756, Note_on_c, 9, 36, 0
11, 49756, Note_on_c, 9, 37, 0
11, 49800, Note_on_c, 9, 62, 127
11, 49800, Note_on_c, 9, 37, 127
11, 49800, Note_on_c, 9, 42, 127
11, 49813, Note_on_c, 9, 37, 0
11, 49814, Note_on_c, 9, 42, 0
11, 49821, Note_on_c, 9, 62, 0
11, 49830, Note_on_c, 9, 37, 127
11, 49830, Note_on_c, 9, 42, 127
11, 49844, Note_on_c, 9, 42, 0
11, 49845, Note_on_c, 9, 37, 0
11, 49920, Note_on_c, 9, 62, 127
11, 49920, Note_on_c, 9, 42, 127
11, 49920, Note_on_c, 9, 37, 127
11, 49933, Note_on_c, 9, 37, 0
11, 49934, Note_on_c, 9, 42, 0
11, 49944, Note_on_c, 9, 62, 0
11, 49950, Note_on_c, 9, 36, 127
11, 49950, Note_on_c, 9, 42, 127
11, 49950, Note_on_c, 9, 37, 127
11, 49962, Note_on_c, 9, 42, 0
11, 49963, Note_on_c, 9, 37, 0
11, 49966, Note_on_c, 9, 36, 0
11, 49980, Note_on_c, 9, 42, 127
11, 49980, Note_on_c, 9, 37, 127
11, 49992, Note_on_c, 9, 42, 0
11, 49994, Note_on_c, 9, 37, 0
11, 50010, Note_on_c, 9, 42, 127
11, 50010, Note_on_c, 9, 37, 127
11, 50024, Note_on_c, 9, 37, 0
11, 50024, Note_on_c, 9, 42, 0
11, 50040, Note_on_c, 9, 62, 127
11, 50040, Note_on_c, 9, 42, 127
11, 50040, Note_on_c, 9, 37, 127
11, 50055, Note_on_c, 9, 42, 0
11, 50057, Note_on_c, 9, 37, 0
11, 50061, Note_on_c, 9, 62, 0
11, 50100, Note_on_c, 9, 36, 127
11, 50100, Note_on_c, 9, 42, 127
11, 50100, Note_on_c, 9, 37, 127
11, 50113, Note_on_c, 9, 37, 0
11, 50114, Note_on_c, 9, 36, 0
11, 50115, Note_on_c, 9, 42, 0
11, 50130, Note_on_c, 9, 36, 127
11, 50130, Note_on_c, 9, 42, 127
11, 50130, Note_on_c, 9, 37, 127
11, 50143, Note_on_c, 9, 37, 0
11, 50143, Note_on_c, 9, 42, 0
11, 50149, Note_on_c, 9, 36, 0
11, 50160, Note_on_c, 9, 42, 127
11, 50160, Note_on_c, 9, 37, 127
11, 50175, Note_on_c, 9, 42, 0
11, 50177, Note_on_c, 9, 37, 0
11, 50220, Note_on_c, 9, 36, 127
11, 50220, Note_on_c, 9, 42, 127
11, 50220, Note_on_c, 9, 37, 127
11, 50235, Note_on_c, 9, 42, 0
11, 50236, Note_on_c, 9, 37, 0
11, 50239, Note_on_c, 9, 36, 0
11, 50280, Note_on_c, 9, 62, 127
11, 50280, Note_on_c, 9, 42, 127
11, 50280, Note_on_c, 9, 40, 90
11, 50280, Note_on_c, 9, 37, 127
11, 50289, Note_on_c, 9, 40, 0
11, 50293, Note_on_c, 9, 37, 0
11, 50293, Note_on_c, 9, 42, 0
11, 50295, Note_on_c, 9, 40, 90
11, 50298, Note_on_c, 9, 62, 0
11, 50303, Note_on_c, 9, 40, 0
11, 50310, Note_on_c, 9, 42, 127
11, 50310, Note_on_c, 9, 40, 90
11, 50310, Note_on_c, 9, 37, 127
11, 50320, Note_on_c, 9, 42, 0
11, 50321, Note_on_c, 9, 40, 0
11, 50325, Note_on_c, 9, 37, 0
11, 50325, Note_on_c, 9, 40, 90
11, 50336, Note_on_c, 9, 40, 0
11, 50340, Note_on_c, 9, 40, 90
11, 50350, Note_on_c, 9, 40, 0
11, 50400, Note_on_c, 9, 62, 127
11, 50400, Note_on_c, 9, 35, 127
11, 50400, Note_on_c, 9, 42, 127
11, 50400, Note_on_c, 9, 37, 127
11, 50410, Note_on_c, 9, 42, 0
11, 50413, Note_on_c, 9, 37, 0
11, 50429, Note_on_c, 9, 35, 127
11, 50430, Note_on_c, 9, 35, 0
11, 50430, Note_on_c, 9, 37, 127
11, 50430, Note_on_c, 9, 42, 127
11, 50433, Note_on_c, 9, 62, 0
11, 50441, Note_on_c, 9, 42, 0
11, 50443, Note_on_c, 9, 37, 0
11, 50459, Note_on_c, 9, 35, 0
11, 50459, Note_on_c, 9, 35, 127
11, 50460, Note_on_c, 9, 37, 127
11, 50460, Note_on_c, 9, 42, 127
11, 50470, Note_on_c, 9, 42, 0
11, 50474, Note_on_c, 9, 37, 0
11, 50489, Note_on_c, 9, 35, 0
11, 50489, Note_on_c, 9, 35, 127
11, 50490, Note_on_c, 9, 37, 127
11, 50490, Note_on_c, 9, 42, 127
11, 50502, Note_on_c, 9, 42, 0
11, 50504, Note_on_c, 9, 37, 0
11, 50519, Note_on_c, 9, 35, 0
11, 50520, Note_on_c, 9, 62, 127
11, 50520, Note_on_c, 9, 37, 127
11, 50520, Note_on_c, 9, 35, 127
11, 50520, Note_on_c, 9, 42, 127
11, 50535, Note_on_c, 9, 42, 0
11, 50537, Note_on_c, 9, 37, 0
11, 50545, Note_on_c, 9, 62, 0
11, 50546, Note_on_c, 9, 35, 127
11, 50550, Note_on_c, 9, 35, 0
11, 50576, Note_on_c, 9, 35, 0
11, 50580, Note_on_c, 9, 35, 127
11, 50580, Note_on_c, 9, 37, 127
11, 50580, Note_on_c, 9, 36, 127
11, 50580, Note_on_c, 9, 42, 127
11, 50593, Note_on_c, 9, 42, 0
11, 50593, Note_on_c, 9, 37, 0
11, 50596, Note_on_c, 9, 36, 0
11, 50610, Note_on_c, 9, 35, 0
11, 50610, Note_on_c, 9, 42, 127
11, 50610, Note_on_c, 9, 37, 127
11, 50610, Note_on_c, 9, 36, 127
11, 50611, Note_on_c, 9, 35, 127
11, 50622, Note_on_c, 9, 42, 0
11, 50623, Note_on_c, 9, 37, 0
11, 50629, Note_on_c, 9, 36, 0
11, 50640, Note_on_c, 9, 37, 127
11, 50640, Note_on_c, 9, 42, 127
11, 50641, Note_on_c, 9, 35, 0
11, 50655, Note_on_c, 9, 42, 0
11, 50657, Note_on_c, 9, 37, 0
11, 50700, Note_on_c, 9, 42, 127
11, 50700, Note_on_c, 9, 37, 127
11, 50700, Note_on_c, 9, 36, 127
11, 50716, Note_on_c, 9, 36, 0
11, 50716, Note_on_c, 9, 37, 0
11, 50716, Note_on_c, 9, 42, 0
11, 50760, Note_on_c, 9, 62, 127
11, 50760, Note_on_c, 9, 37, 127
11, 50760, Note_on_c, 9, 42, 127
11, 50773, Note_on_c, 9, 37, 0
11, 50774, Note_on_c, 9, 42, 0
11, 50781, Note_on_c, 9, 62, 0
11, 50790, Note_on_c, 9, 37, 127
11, 50790, Note_on_c, 9, 42, 127
11, 50804, Note_on_c, 9, 42, 0
11, 50805, Note_on_c, 9, 37, 0
11, 50880, Note_on_c, 9, 62, 127
11, 50880, Note_on_c, 9, 42, 127
11, 50880, Note_on_c, 9, 37, 127
11, 50893, Note_on_c, 9, 37, 0
11, 50894, Note_on_c, 9, 42, 0
11, 50904, Note_on_c, 9, 62, 0
11, 50910, Note_on_c, 9, 42, 127
11, 50910, Note_on_c, 9, 37, 127
11, 50910, Note_on_c, 9, 36, 127
11, 50922, Note_on_c, 9, 42, 0
11, 50923, Note_on_c, 9, 37, 0
11, 50926, Note_on_c, 9, 36, 0
11, 50940, Note_on_c, 9, 42, 127
11, 50940, Note_on_c, 9, 37, 127
11, 50952, Note_on_c, 9, 42, 0
11, 50954, Note_on_c, 9, 37, 0
11, 50970, Note_on_c, 9, 42, 127
11, 50970, Note_on_c, 9, 37, 127
11, 50984, Note_on_c, 9, 37, 0
11, 50984, Note_on_c, 9, 42, 0
11, 51000, Note_on_c, 9, 62, 127
11, 51000, Note_on_c, 9, 42, 127
11, 51000, Note_on_c, 9, 37, 127
11, 51015, Note_on_c, 9, 42, 0
11, 51017, Note_on_c, 9, 37, 0
11, 51021, Note_on_c, 9, 62, 0
11, 51060, Note_on_c, 9, 42, 127
11, 51060, Note_on_c, 9, 37, 127
11, 51060, Note_on_c, 9, 36, 127
11, 51073, Note_on_c, 9, 37, 0
11, 51074, Note_on_c, 9, 36, 0
11, 51075, Note_on_c, 9, 42, 0
11, 51090, Note_on_c, 9, 42, 127
11, 51090, Note_on_c, 9, 37, 127
11, 51090, Note_on_c, 9, 36, 127
11, 51103, Note_on_c, 9, 37, 0
11, 51103, Note_on_c, 9, 42, 0
11, 51109, Note_on_c, 9, 36, 0
11, 51120, Note_on_c, 9, 42, 127
11, 51120, Note_on_c, 9, 37, 127
11, 51135, Note_on_c, 9, 42, 0
11, 51137, Note_on_c, 9, 37, 0
11, 51180, Note_on_c, 9, 42, 127
11, 51180, Note_on_c, 9, 37, 127
11, 51180, Note_on_c, 9, 36, 127
11, 51195, Note_on_c, 9, 42, 0
11, 51196, Note_on_c, 9, 37, 0
11, 51199, Note_on_c, 9, 36, 0
11, 51240, Note_on_c, 9, 62, 127
11, 51240, Note_on_c, 9, 42, 127
11, 51240, Note_on_c, 9, 40, 90
11, 51240, Note_on_c, 9, 37, 127
11, 51250, Note_on_c, 9, 40, 0
11, 51253, Note_on_c, 9, 37, 0
11, 51253, Note_on_c, 9, 42, 0
11, 51255, Note_on_c, 9, 40, 90
11, 51258, Note_on_c, 9, 62, 0
11, 51263, Note_on_c, 9, 40, 0
11, 51270, Note_on_c, 9, 42, 127
11, 51270, Note_on_c, 9, 40, 90
11, 51270, Note_on_c, 9, 37, 127
11, 51278, Note_on_c, 9, 40, 0
11, 51280, Note_on_c, 9, 42, 0
11, 51285, Note_on_c, 9, 37, 0
11, 51285, Note_on_c, 9, 40, 90
11, 51298, Note_on_c, 9, 40, 0
11, 51300, Note_on_c, 9, 40, 90
11, 51309, Note_on_c, 9, 40, 0
11, 51360, Note_on_c, 9, 35, 127
11, 51360, Note_on_c, 9, 42, 127
11, 51360, Note_on_c, 9, 37, 127
11, 51360, Note_on_c, 9, 62, 127
11, 51370, Note_on_c, 9, 42, 0
11, 51373, Note_on_c, 9, 37, 0
11, 51390, Note_on_c, 9, 35, 0
11, 51390, Note_on_c, 9, 35, 127
11, 51390, Note_on_c, 9, 37, 127
11, 51390, Note_on_c, 9, 42, 127
11, 51393, Note_on_c, 9, 62, 0
11, 51401, Note_on_c, 9, 42, 0
11, 51403, Note_on_c, 9, 37, 0
11, 51420, Note_on_c, 9, 35, 0
11, 51420, Note_on_c, 9, 35, 127
11, 51420, Note_on_c, 9, 37, 127
11, 51420, Note_on_c, 9, 42, 127
11, 51430, Note_on_c, 9, 42, 0
11, 51434, Note_on_c, 9, 37, 0
11, 51450, Note_on_c, 9, 35, 0
11, 51450, Note_on_c, 9, 35, 127
11, 51450, Note_on_c, 9, 37, 127
11, 51450, Note_on_c, 9, 42, 127
11, 51462, Note_on_c, 9, 42, 0
11, 51464, Note_on_c, 9, 37, 0
11, 51480, Note_on_c, 9, 35, 0
11, 51480, Note_on_c, 9, 37, 127
11, 51480, Note_on_c, 9, 35, 127
11, 51480, Note_on_c, 9, 42, 127
11, 51480, Note_on_c, 9, 62, 127
11, 51495, Note_on_c, 9, 42, 0
11, 51497, Note_on_c, 9, 37, 0
11, 51505, Note_on_c, 9, 62, 0
11, 51510, Note_on_c, 9, 35, 0
11, 51510, Note_on_c, 9, 35, 127
11, 51540, Note_on_c, 9, 35, 0
11, 51540, Note_on_c, 9, 35, 127
11, 51540, Note_on_c, 9, 37, 127
11, 51540, Note_on_c, 9, 36, 127
11, 51540, Note_on_c, 9, 42, 127
11, 51553, Note_on_c, 9, 42, 0
11, 51553, Note_on_c, 9, 37, 0
11, 51556, Note_on_c, 9, 36, 0
11, 51570, Note_on_c, 9, 35, 0
11, 51570, Note_on_c, 9, 42, 127
11, 51570, Note_on_c, 9, 37, 127
11, 51570, Note_on_c, 9, 36, 127
11, 51570, Note_on_c, 9, 35, 127
11, 51582, Note_on_c, 9, 42, 0
11, 51583, Note_on_c, 9, 37, 0
11, 51589, Note_on_c, 9, 36, 0
11, 51600, Note_on_c, 9, 35, 0
11, 51600, Note_on_c, 9, 37, 127
11, 51600, Note_on_c, 9, 42, 127
11, 51615, Note_on_c, 9, 42, 0
11, 51617, Note_on_c, 9, 37, 0
11, 51660, Note_on_c, 9, 42, 127
11, 51660, Note_on_c, 9, 37, 127
11, 51660, Note_on_c, 9, 36, 127
11, 51676, Note_on_c, 9, 36, 0
11, 51676, Note_on_c, 9, 37, 0
11, 51676, Note_on_c, 9, 42, 0
11, 51720, Note_on_c, 9, 37, 127
11, 51720, Note_on_c, 9, 42, 127
11, 51720, Note_on_c, 9, 62, 127
11, 51733, Note_on_c, 9, 37, 0
11, 51734, Note_on_c, 9, 42, 0
11, 51741, Note_on_c, 9, 62, 0
11, 51750, Note_on_c, 9, 37, 127
11, 51750, Note_on_c, 9, 42, 127
11, 51764, Note_on_c, 9, 42, 0
11, 51765, Note_on_c, 9, 37, 0
11, 51840, Note_on_c, 9, 62, 127
11, 51840, Note_on_c, 9, 42, 127
11, 51840, Note_on_c, 9, 37, 127
11, 51853, Note_on_c, 9, 37, 0
11, 51854, Note_on_c, 9, 42, 0
11, 51864, Note_on_c, 9, 62, 0
11, 51870, Note_on_c, 9, 42, 127
11, 51870, Note_on_c, 9, 37, 127
11, 51870, Note_on_c, 9, 36, 127
11, 51882, Note_on_c, 9, 42, 0
11, 51883, Note_on_c, 9, 37, 0
11, 51886, Note_on_c, 9, 36, 0
11, 51900, Note_on_c, 9, 42, 127
11, 51900, Note_on_c, 9, 37, 127
11, 51912, Note_on_c, 9, 42, 0
11, 51914, Note_on_c, 9, 37, 0
11, 51930, Note_on_c, 9, 42, 127
11, 51930, Note_on_c, 9, 37, 127
11, 51944, Note_on_c, 9, 37, 0
11, 51944, Note_on_c, 9, 42, 0
11, 51960, Note_on_c, 9, 62, 127
11, 51960, Note_on_c, 9, 42, 127
11, 51960, Note_on_c, 9, 37, 127
11, 51975, Note_on_c, 9, 42, 0
11, 51977, Note_on_c, 9, 37, 0
11, 51981, Note_on_c, 9, 62, 0
11, 52020, Note_on_c, 9, 42, 127
11, 52020, Note_on_c, 9, 37, 127
11, 52020, Note_on_c, 9, 36, 127
11, 52033, Note_on_c, 9, 37, 0
11, 52034, Note_on_c, 9, 36, 0
11, 52035, Note_on_c, 9, 42, 0
11, 52050, Note_on_c, 9, 42, 127
11, 52050, Note_on_c, 9, 37, 127
11, 52050, Note_on_c, 9, 36, 127
11, 52063, Note_on_c, 9, 37, 0
11, 52063, Note_on_c, 9, 42, 0
11, 52069, Note_on_c, 9, 36, 0
11, 52080, Note_on_c, 9, 42, 127
11, 52080, Note_on_c, 9, 37, 127
11, 52095, Note_on_c, 9, 42, 0
11, 52097, Note_on_c, 9, 37, 0
11, 52140, Note_on_c, 9, 42, 127
11, 52140, Note_on_c, 9, 37, 127
11, 52140, Note_on_c, 9, 36, 127
11, 52155, Note_on_c, 9, 42, 0
11, 52156, Note_on_c, 9, 37, 0
11, 52159, Note_on_c, 9, 36, 0
11, 52200, Note_on_c, 9, 62, 127
11, 52200, Note_on_c, 9, 42, 127
11, 52200, Note_on_c, 9, 40, 90
11, 52200, Note_on_c, 9, 37, 127
11, 52211, Note_on_c, 9, 40, 0
11, 52213, Note_on_c, 9, 37, 0
11, 52213, Note_on_c, 9, 42, 0
11, 52215, Note_on_c, 9, 40, 90
11, 52218, Note_on_c, 9, 62, 0
11, 52224, Note_on_c, 9, 40, 0
11, 52230, Note_on_c, 9, 42, 127
11, 52230, Note_on_c, 9, 40, 90
11, 52230, Note_on_c, 9, 37, 127
11, 52239, Note_on_c, 9, 40, 0
11, 52240, Note_on_c, 9, 42, 0
11, 52245, Note_on_c, 9, 37, 0
11, 52245, Note_on_c, 9, 40, 90
11, 52257, Note_on_c, 9, 40, 0
11, 52260, Note_on_c, 9, 40, 90
11, 52269, Note_on_c, 9, 40, 0
11, 52320, Note_on_c, 9, 35, 127
11, 52320, Note_on_c, 9, 62, 127
11, 52320, Note_on_c, 9, 42, 127
11, 52320, Note_on_c, 9, 37, 127
11, 52330, Note_on_c, 9, 42, 0
11, 52333, Note_on_c, 9, 37, 0
11, 52349, Note_on_c, 9, 35, 127
11, 52350, Note_on_c, 9, 35, 0
11, 52350, Note_on_c, 9, 42, 127
11, 52350, Note_on_c, 9, 37, 127
11, 52353, Note_on_c, 9, 62, 0
11, 52361, Note_on_c, 9, 42, 0
11, 52363, Note_on_c, 9, 37, 0
11, 52379, Note_on_c, 9, 35, 0
11, 52379, Note_on_c, 9, 35, 127
11, 52380, Note_on_c, 9, 42, 127
11, 52380, Note_on_c, 9, 37, 127
11, 52390, Note_on_c, 9, 42, 0
11, 52394, Note_on_c, 9, 37, 0
11, 52409, Note_on_c, 9, 35, 0
11, 52409, Note_on_c, 9, 35, 127
11, 52410, Note_on_c, 9, 42, 127
11, 52410, Note_on_c, 9, 37, 127
11, 52422, Note_on_c, 9, 42, 0
11, 52424, Note_on_c, 9, 37, 0
11, 52439, Note_on_c, 9, 35, 0
11, 52440, Note_on_c, 9, 62, 127
11, 52440, Note_on_c, 9, 42, 127
11, 52440, Note_on_c, 9, 35, 127
11, 52440, Note_on_c, 9, 37, 127
11, 52455, Note_on_c, 9, 42, 0
11, 52457, Note_on_c, 9, 37, 0
11, 52465, Note_on_c, 9, 62, 0
11, 52466, Note_on_c, 9, 35, 127
11, 52470, Note_on_c, 9, 35, 0
11, 52496, Note_on_c, 9, 35, 0
11, 52500, Note_on_c, 9, 42, 127
11, 52500, Note_on_c, 9, 35, 127
11, 52500, Note_on_c, 9, 37, 127
11, 52500, Note_on_c, 9, 36, 127
11, 52513, Note_on_c, 9, 37, 0
11, 52513, Note_on_c, 9, 42, 0
11, 52516, Note_on_c, 9, 36, 0
11, 52530, Note_on_c, 9, 35, 0
11, 52530, Note_on_c, 9, 42, 127
11, 52530, Note_on_c, 9, 37, 127
11, 52530, Note_on_c, 9, 36, 127
11, 52531, Note_on_c, 9, 35, 127
11, 52542, Note_on_c, 9, 42, 0
11, 52543, Note_on_c, 9, 37, 0
11, 52549, Note_on_c, 9, 36, 0
11, 52560, Note_on_c, 9, 42, 127
11, 52560, Note_on_c, 9, 37, 127
11, 52561, Note_on_c, 9, 35, 0
11, 52575, Note_on_c, 9, 42, 0
11, 52577, Note_on_c, 9, 37, 0
11, 52620, Note_on_c, 9, 42, 127
11, 52620, Note_on_c, 9, 37, 127
11, 52620, Note_on_c, 9, 36, 127
11, 52636, Note_on_c, 9, 36, 0
11, 52636, Note_on_c, 9, 37, 0
11, 52636, Note_on_c, 9, 42, 0
11, 52680, Note_on_c, 9, 62, 127
11, 52680, Note_on_c, 9, 42, 127
11, 52680, Note_on_c, 9, 37, 127
11, 52693, Note_on_c, 9, 37, 0
11, 52694, Note_on_c, 9, 42, 0
11, 52701, Note_on_c, 9, 62, 0
11, 52710, Note_on_c, 9, 42, 127
11, 52710, Note_on_c, 9, 37, 127
11, 52724, Note_on_c, 9, 42, 0
11, 52725, Note_on_c, 9, 37, 0
11, 52800, Note_on_c, 9, 62, 127
11, 52800, Note_on_c, 9, 42, 127
11, 52800, Note_on_c, 9, 37, 127
11, 52813, Note_on_c, 9, 37, 0
11, 52814, Note_on_c, 9, 42, 0
11, 52824, Note_on_c, 9, 62, 0
11, 52830, Note_on_c, 9, 42, 127
11, 52830, Note_on_c, 9, 36, 127
11, 52830, Note_on_c, 9, 37, 127
11, 52842, Note_on_c, 9, 42, 0
11, 52843, Note_on_c, 9, 37, 0
11, 52846, Note_on_c, 9, 36, 0
11, 52860, Note_on_c, 9, 42, 127
11, 52860, Note_on_c, 9, 37, 127
11, 52872, Note_on_c, 9, 42, 0
11, 52874, Note_on_c, 9, 37, 0
11, 52890, Note_on_c, 9, 42, 127
11, 52890, Note_on_c, 9, 37, 127
11, 52904, Note_on_c, 9, 37, 0
11, 52904, Note_on_c, 9, 42, 0
11, 52920, Note_on_c, 9, 62, 127
11, 52920, Note_on_c, 9, 42, 127
11, 52920, Note_on_c, 9, 37, 127
11, 52935, Note_on_c, 9, 42, 0
11, 52937, Note_on_c, 9, 37, 0
11, 52941, Note_on_c, 9, 62, 0
11, 52980, Note_on_c, 9, 42, 127
11, 52980, Note_on_c, 9, 36, 127
11, 52980, Note_on_c, 9, 37, 127
11, 52993, Note_on_c, 9, 37, 0
11, 52994, Note_on_c, 9, 36, 0
11, 52995, Note_on_c, 9, 42, 0
11, 53010, Note_on_c, 9, 42, 127
11, 53010, Note_on_c, 9, 36, 127
11, 53010, Note_on_c, 9, 37, 127
11, 53023, Note_on_c, 9, 37, 0
11, 53023, Note_on_c, 9, 42, 0
11, 53029, Note_on_c, 9, 36, 0
11, 53040, Note_on_c, 9, 42, 127
11, 53040, Note_on_c, 9, 37, 127
11, 53055, Note_on_c, 9, 42, 0
11, 53057, Note_on_c, 9, 37, 0
11, 53100, Note_on_c, 9, 42, 127
11, 53100, Note_on_c, 9, 36, 127
11, 53100, Note_on_c, 9, 37, 127
11, 53115, Note_on_c, 9, 42, 0
11, 53116, Note_on_c, 9, 37, 0
11, 53119, Note_on_c, 9, 36, 0
11, 53160, Note_on_c, 9, 62, 127
11, 53160, Note_on_c, 9, 42, 127
11, 53160, Note_on_c, 9, 37, 127
11, 53160, Note_on_c, 9, 40, 90
11, 53171, Note_on_c, 9, 40, 0
11, 53173, Note_on_c, 9, 37, 0
11, 53173, Note_on_c, 9, 42, 0
11, 53175, Note_on_c, 9, 40, 90
11, 53178, Note_on_c, 9, 62, 0
11, 53184, Note_on_c, 9, 40, 0
11, 53190, Note_on_c, 9, 42, 127
11, 53190, Note_on_c, 9, 37, 127
11, 53190, Note_on_c, 9, 40, 90
11, 53200, Note_on_c, 9, 42, 0
11, 53202, Note_on_c, 9, 40, 0
11, 53205, Note_on_c, 9, 37, 0
11, 53205, Note_on_c, 9, 40, 90
11, 53218, Note_on_c, 9, 40, 0
11, 53220, Note_on_c, 9, 40, 90
11, 53228, Note_on_c, 9, 40, 0
11, 53280, Note_on_c, 9, 35, 127
11, 53280, Note_on_c, 9, 62, 127
11, 53280, Note_on_c, 9, 42, 127
11, 53280, Note_on_c, 9, 37, 127
11, 53290, Note_on_c, 9, 42, 0
11, 53293, Note_on_c, 9, 37, 0
11, 53310, Note_on_c, 9, 35, 0
11, 53310, Note_on_c, 9, 35, 127
11, 53310, Note_on_c, 9, 42, 127
11, 53310, Note_on_c, 9, 37, 127
11, 53310, Note_on_c, 9, 36, 127
11, 53313, Note_on_c, 9, 62, 0
11, 53321, Note_on_c, 9, 42, 0
11, 53323, Note_on_c, 9, 37, 0
11, 53332, Note_on_c, 9, 36, 0
11, 53340, Note_on_c, 9, 35, 0
11, 53340, Note_on_c, 9, 42, 127
11, 53340, Note_on_c, 9, 35, 127
11, 53340, Note_on_c, 9, 37, 127
11, 53350, Note_on_c, 9, 42, 0
11, 53354, Note_on_c, 9, 37, 0
11, 53370, Note_on_c, 9, 35, 0
11, 53370, Note_on_c, 9, 42, 127
11, 53370, Note_on_c, 9, 35, 127
11, 53370, Note_on_c, 9, 37, 127
11, 53382, Note_on_c, 9, 42, 0
11, 53384, Note_on_c, 9, 37, 0
11, 53400, Note_on_c, 9, 35, 0
11, 53400, Note_on_c, 9, 62, 127
11, 53400, Note_on_c, 9, 35, 127
11, 53400, Note_on_c, 9, 42, 127
11, 53400, Note_on_c, 9, 37, 127
11, 53415, Note_on_c, 9, 42, 0
11, 53417, Note_on_c, 9, 37, 0
11, 53425, Note_on_c, 9, 62, 0
11, 53430, Note_on_c, 9, 35, 0
11, 53430, Note_on_c, 9, 35, 127
11, 53460, Note_on_c, 9, 35, 0
11, 53460, Note_on_c, 9, 35, 127
11, 53460, Note_on_c, 9, 42, 127
11, 53460, Note_on_c, 9, 37, 127
11, 53460, Note_on_c, 9, 36, 127
11, 53473, Note_on_c, 9, 37, 0
11, 53473, Note_on_c, 9, 42, 0
11, 53476, Note_on_c, 9, 36, 0
11, 53490, Note_on_c, 9, 35, 0
11, 53490, Note_on_c, 9, 35, 127
11, 53490, Note_on_c, 9, 42, 127
11, 53490, Note_on_c, 9, 37, 127
11, 53490, Note_on_c, 9, 36, 127
11, 53502, Note_on_c, 9, 42, 0
11, 53503, Note_on_c, 9, 37, 0
11, 53509, Note_on_c, 9, 36, 0
11, 53520, Note_on_c, 9, 35, 0
11, 53520, Note_on_c, 9, 42, 127
11, 53520, Note_on_c, 9, 37, 127
11, 53535, Note_on_c, 9, 42, 0
11, 53537, Note_on_c, 9, 37, 0
11, 53580, Note_on_c, 9, 42, 127
11, 53580, Note_on_c, 9, 37, 127
11, 53580, Note_on_c, 9, 36, 127
11, 53596, Note_on_c, 9, 36, 0
11, 53596, Note_on_c, 9, 37, 0
11, 53596, Note_on_c, 9, 42, 0
11, 53640, Note_on_c, 9, 62, 127
11, 53640, Note_on_c, 9, 42, 127
11, 53640, Note_on_c, 9, 37, 127
11, 53653, Note_on_c, 9, 37, 0
11, 53654, Note_on_c, 9, 42, 0
11, 53661, Note_on_c, 9, 62, 0
11, 53670, Note_on_c, 9, 42, 127
11, 53670, Note_on_c, 9, 37, 127
11, 53684, Note_on_c, 9, 42, 0
11, 53685, Note_on_c, 9, 37, 0
11, 53760, Note_on_c, 9, 62, 127
11, 53760, Note_on_c, 9, 42, 127
11, 53760, Note_on_c, 9, 37, 127
11, 53773, Note_on_c, 9, 37, 0
11, 53774, Note_on_c, 9, 42, 0
11, 53784, Note_on_c, 9, 62, 0
11, 53790, Note_on_c, 9, 42, 127
11, 53790, Note_on_c, 9, 36, 127
11, 53790, Note_on_c, 9, 37, 127
11, 53802, Note_on_c, 9, 42, 0
11, 53803, Note_on_c, 9, 37, 0
11, 53806, Note_on_c, 9, 36, 0
11, 53820, Note_on_c, 9, 42, 127
11, 53820, Note_on_c, 9, 37, 127
11, 53832, Note_on_c, 9, 42, 0
11, 53834, Note_on_c, 9, 37, 0
11, 53850, Note_on_c, 9, 42, 127
11, 53850, Note_on_c, 9, 37, 127
11, 53864, Note_on_c, 9, 37, 0
11, 53864, Note_on_c, 9, 42, 0
11, 53880, Note_on_c, 9, 62, 127
11, 53880, Note_on_c, 9, 42, 127
11, 53880, Note_on_c, 9, 37, 127
11, 53895, Note_on_c, 9, 42, 0
11, 53897, Note_on_c, 9, 37, 0
11, 53901, Note_on_c, 9, 62, 0
11, 53940, Note_on_c, 9, 42, 127
11, 53940, Note_on_c, 9, 36, 127
11, 53940, Note_on_c, 9, 37, 127
11, 53953, Note_on_c, 9, 37, 0
11, 53954, Note_on_c, 9, 36, 0
11, 53955, Note_on_c, 9, 42, 0
11, 53970, Note_on_c, 9, 42, 127
11, 53970, Note_on_c, 9, 36, 127
11, 53970, Note_on_c, 9, 37, 127
11, 53983, Note_on_c, 9, 37, 0
11, 53983, Note_on_c, 9, 42, 0
11, 53989, Note_on_c, 9, 36, 0
11, 54000, Note_on_c, 9, 42, 127
11, 54000, Note_on_c, 9, 37, 127
11, 54015, Note_on_c, 9, 42, 0
11, 54017, Note_on_c, 9, 37, 0
11, 54060, Note_on_c, 9, 42, 127
11, 54060, Note_on_c, 9, 36, 127
11, 54060, Note_on_c, 9, 37, 127
11, 54075, Note_on_c, 9, 42, 0
11, 54076, Note_on_c, 9, 37, 0
11, 54079, Note_on_c, 9, 36, 0
11, 54120, Note_on_c, 9, 62, 127
11, 54120, Note_on_c, 9, 42, 127
11, 54120, Note_on_c, 9, 40, 90
11, 54120, Note_on_c, 9, 37, 127
11, 54129, Note_on_c, 9, 40, 0
11, 54133, Note_on_c, 9, 37, 0
11, 54133, Note_on_c, 9, 42, 0
11, 54135, Note_on_c, 9, 40, 90
11, 54138, Note_on_c, 9, 62, 0
11, 54143, Note_on_c, 9, 40, 0
11, 54150, Note_on_c, 9, 42, 127
11, 54150, Note_on_c, 9, 40, 90
11, 54150, Note_on_c, 9, 37, 127
11, 54160, Note_on_c, 9, 42, 0
11, 54161, Note_on_c, 9, 40, 0
11, 54165, Note_on_c, 9, 37, 0
11, 54165, Note_on_c, 9, 40, 90
11, 54176, Note_on_c, 9, 40, 0
11, 54180, Note_on_c, 9, 40, 90
11, 54190, Note_on_c, 9, 40, 0
11, 54240, Note_on_c, 9, 35, 127
11, 54240, Note_on_c, 9, 62, 127
11, 54240, Note_on_c, 9, 42, 127
11, 54240, Note_on_c, 9, 37, 127
11, 54250, Note_on_c, 9, 42, 0
11, 54253, Note_on_c, 9, 37, 0
11, 54269, Note_on_c, 9, 35, 127
11, 54270, Note_on_c, 9, 35, 0
11, 54270, Note_on_c, 9, 42, 127
11, 54270, Note_on_c, 9, 37, 127
11, 54273, Note_on_c, 9, 62, 0
11, 54281, Note_on_c, 9, 42, 0
11, 54283, Note_on_c, 9, 37, 0
11, 54299, Note_on_c, 9, 35, 0
11, 54299, Note_on_c, 9, 35, 127
11, 54300, Note_on_c, 9, 42, 127
11, 54300, Note_on_c, 9, 37, 127
11, 54310, Note_on_c, 9, 42, 0
11, 54314, Note_on_c, 9, 37, 0
11, 54329, Note_on_c, 9, 35, 0
11, 54329, Note_on_c, 9, 35, 127
11, 54330, Note_on_c, 9, 42, 127
11, 54330, Note_on_c, 9, 37, 127
11, 54342, Note_on_c, 9, 42, 0
11, 54344, Note_on_c, 9, 37, 0
11, 54359, Note_on_c, 9, 35, 0
11, 54360, Note_on_c, 9, 62, 127
11, 54360, Note_on_c, 9, 42, 127
11, 54360, Note_on_c, 9, 35, 127
11, 54360, Note_on_c, 9, 37, 127
11, 54375, Note_on_c, 9, 42, 0
11, 54377, Note_on_c, 9, 37, 0
11, 54385, Note_on_c, 9, 62, 0
11, 54386, Note_on_c, 9, 35, 127
11, 54390, Note_on_c, 9, 35, 0
11, 54416, Note_on_c, 9, 35, 0
11, 54420, Note_on_c, 9, 42, 127
11, 54420, Note_on_c, 9, 35, 127
11, 54420, Note_on_c, 9, 37, 127
11, 54420, Note_on_c, 9, 36, 127
11, 54433, Note_on_c, 9, 37, 0
11, 54433, Note_on_c, 9, 42, 0
11, 54436, Note_on_c, 9, 36, 0
11, 54450, Note_on_c, 9, 35, 0
11, 54450, Note_on_c, 9, 42, 127
11, 54450, Note_on_c, 9, 37, 127
11, 54450, Note_on_c, 9, 36, 127
11, 54451, Note_on_c, 9, 35, 127
11, 54462, Note_on_c, 9, 42, 0
11, 54463, Note_on_c, 9, 37, 0
11, 54469, Note_on_c, 9, 36, 0
11, 54480, Note_on_c, 9, 42, 127
11, 54480, Note_on_c, 9, 37, 127
11, 54481, Note_on_c, 9, 35, 0
11, 54495, Note_on_c, 9, 42, 0
11, 54497, Note_on_c, 9, 37, 0
11, 54540, Note_on_c, 9, 42, 127
11, 54540, Note_on_c, 9, 37, 127
11, 54540, Note_on_c, 9, 36, 127
11, 54556, Note_on_c, 9, 36, 0
11, 54556, Note_on_c, 9, 37, 0
11, 54556, Note_on_c, 9, 42, 0
11, 54600, Note_on_c, 9, 62, 127
11, 54600, Note_on_c, 9, 42, 127
11, 54600, Note_on_c, 9, 37, 127
11, 54613, Note_on_c, 9, 37, 0
11, 54614, Note_on_c, 9, 42, 0
11, 54621, Note_on_c, 9, 62, 0
11, 54630, Note_on_c, 9, 42, 127
11, 54630, Note_on_c, 9, 37, 127
11, 54644, Note_on_c, 9, 42, 0
11, 54645, Note_on_c, 9, 37, 0
11, 54720, Note_on_c, 9, 62, 127
11, 54720, Note_on_c, 9, 42, 127
11, 54720, Note_on_c, 9, 37, 127
11, 54733, Note_on_c, 9, 37, 0
11, 54734, Note_on_c, 9, 42, 0
11, 54744, Note_on_c, 9, 62, 0
11, 54750, Note_on_c, 9, 42, 127
11, 54750, Note_on_c, 9, 36, 127
11, 54750, Note_on_c, 9, 37, 127
11, 54762, Note_on_c, 9, 42, 0
11, 54763, Note_on_c, 9, 37, 0
11, 54766, Note_on_c, 9, 36, 0
11, 54780, Note_on_c, 9, 42, 127
11, 54780, Note_on_c, 9, 37, 127
11, 54792, Note_on_c, 9, 42, 0
11, 54794, Note_on_c, 9, 37, 0
11, 54810, Note_on_c, 9, 42, 127
11, 54810, Note_on_c, 9, 37, 127
11, 54824, Note_on_c, 9, 37, 0
11, 54824, Note_on_c, 9, 42, 0
11, 54840, Note_on_c, 9, 62, 127
11, 54840, Note_on_c, 9, 42, 127
11, 54840, Note_on_c, 9, 37, 127
11, 54855, Note_on_c, 9, 42, 0
11, 54857, Note_on_c, 9, 37, 0
11, 54861, Note_on_c, 9, 62, 0
11, 54900, Note_on_c, 9, 42, 127
11, 54900, Note_on_c, 9, 36, 127
11, 54900, Note_on_c, 9, 37, 127
11, 54913, Note_on_c, 9, 37, 0
11, 54914, Note_on_c, 9, 36, 0
11, 54915, Note_on_c, 9, 42, 0
11, 54930, Note_on_c, 9, 42, 127
11, 54930, Note_on_c, 9, 36, 127
11, 54930, Note_on_c, 9, 37, 127
11, 54943, Note_on_c, 9, 37, 0
11, 54943, Note_on_c, 9, 42, 0
11, 54949, Note_on_c, 9, 36, 0
11, 54960, Note_on_c, 9, 42, 127
11, 54960, Note_on_c, 9, 37, 127
11, 54975, Note_on_c, 9, 42, 0
11, 54977, Note_on_c, 9, 37, 0
11, 55020, Note_on_c, 9, 42, 127
11, 55020, Note_on_c, 9, 36, 127
11, 55020, Note_on_c, 9, 37, 127
11, 55035, Note_on_c, 9, 42, 0
11, 55036, Note_on_c, 9, 37, 0
11, 55039, Note_on_c, 9, 36, 0
11, 55080, Note_on_c, 9, 62, 127
11, 55080, Note_on_c, 9, 40, 90
11, 55080, Note_on_c, 9, 42, 127
11, 55080, Note_on_c, 9, 37, 127
11, 55091, Note_on_c, 9, 40, 0
11, 55093, Note_on_c, 9, 37, 0
11, 55093, Note_on_c, 9, 42, 0
11, 55095, Note_on_c, 9, 40, 90
11, 55098, Note_on_c, 9, 62, 0
11, 55104, Note_on_c, 9, 40, 0
11, 55110, Note_on_c, 9, 40, 90
11, 55110, Note_on_c, 9, 42, 127
11, 55110, Note_on_c, 9, 37, 127
11, 55120, Note_on_c, 9, 42, 0
11, 55122, Note_on_c, 9, 40, 0
11, 55125, Note_on_c, 9, 37, 0
11, 55125, Note_on_c, 9, 40, 90
11, 55138, Note_on_c, 9, 40, 0
11, 55140, Note_on_c, 9, 40, 90
11, 55148, Note_on_c, 9, 40, 0
11, 55200, Note_on_c, 9, 35, 127
11, 55200, Note_on_c, 9, 62, 127
11, 55200, Note_on_c, 9, 42, 127
11, 55200, Note_on_c, 9, 37, 127
11, 55210, Note_on_c, 9, 42, 0
11, 55213, Note_on_c, 9, 37, 0
11, 55230, Note_on_c, 9, 35, 0
11, 55230, Note_on_c, 9, 35, 127
11, 55230, Note_on_c, 9, 42, 127
11, 55230, Note_on_c, 9, 37, 127
11, 55230, Note_on_c, 9, 36, 127
11, 55233, Note_on_c, 9, 62, 0
11, 55241, Note_on_c, 9, 42, 0
11, 55243, Note_on_c, 9, 37, 0
11, 55252, Note_on_c, 9, 36, 0
11, 55260, Note_on_c, 9, 35, 0
11, 55260, Note_on_c, 9, 42, 127
11, 55260, Note_on_c, 9, 35, 127
11, 55260, Note_on_c, 9, 37, 127
11, 55270, Note_on_c, 9, 42, 0
11, 55274, Note_on_c, 9, 37, 0
11, 55290, Note_on_c, 9, 35, 0
11, 55290, Note_on_c, 9, 42, 127
11, 55290, Note_on_c, 9, 35, 127
11, 55290, Note_on_c, 9, 37, 127
11, 55302, Note_on_c, 9, 42, 0
11, 55304, Note_on_c, 9, 37, 0
11, 55320, Note_on_c, 9, 35, 0
11, 55320, Note_on_c, 9, 62, 127
11, 55320, Note_on_c, 9, 35, 127
11, 55320, Note_on_c, 9, 42, 127
11, 55320, Note_on_c, 9, 37, 127
11, 55335, Note_on_c, 9, 42, 0
11, 55337, Note_on_c, 9, 37, 0
11, 55345, Note_on_c, 9, 62, 0
11, 55350, Note_on_c, 9, 35, 0
11, 55350, Note_on_c, 9, 35, 127
11, 55380, Note_on_c, 9, 35, 0
11, 55380, Note_on_c, 9, 35, 127
11, 55380, Note_on_c, 9, 42, 127
11, 55380, Note_on_c, 9, 37, 127
11, 55380, Note_on_c, 9, 36, 127
11, 55393, Note_on_c, 9, 37, 0
11, 55393, Note_on_c, 9, 42, 0
11, 55396, Note_on_c, 9, 36, 0
11, 55410, Note_on_c, 9, 35, 0
11, 55410, Note_on_c, 9, 35, 127
11, 55410, Note_on_c, 9, 42, 127
11, 55410, Note_on_c, 9, 37, 127
11, 55410, Note_on_c, 9, 36, 127
11, 55422, Note_on_c, 9, 42, 0
11, 55423, Note_on_c, 9, 37, 0
11, 55429, Note_on_c, 9, 36, 0
11, 55440, Note_on_c, 9, 35, 0
11, 55440, Note_on_c, 9, 42, 127
11, 55440, Note_on_c, 9, 37, 127
11, 55455, Note_on_c, 9, 42, 0
11, 55457, Note_on_c, 9, 37, 0
11, 55500, Note_on_c, 9, 42, 127
11, 55500, Note_on_c, 9, 37, 127
11, 55500, Note_on_c, 9, 36, 127
11, 55516, Note_on_c, 9, 36, 0
11, 55516, Note_on_c, 9, 37, 0
11, 55516, Note_on_c, 9, 42, 0
11, 55560, Note_on_c, 9, 62, 127
11, 55560, Note_on_c, 9, 42, 127
11, 55560, Note_on_c, 9, 37, 127
11, 55573, Note_on_c, 9, 37, 0
11, 55574, Note_on_c, 9, 42, 0
11, 55581, Note_on_c, 9, 62, 0
11, 55590, Note_on_c, 9, 42, 127
11, 55590, Note_on_c, 9, 37, 127
11, 55604, Note_on_c, 9, 42, 0
11, 55605, Note_on_c, 9, 37, 0
11, 55680, Note_on_c, 9, 62, 127
11, 55680, Note_on_c, 9, 42, 127
11, 55680, Note_on_c, 9, 37, 127
11, 55693, Note_on_c, 9, 37, 0
11, 55694, Note_on_c, 9, 42, 0
11, 55704, Note_on_c, 9, 62, 0
11, 55710, Note_on_c, 9, 42, 127
11, 55710, Note_on_c, 9, 36, 127
11, 55710, Note_on_c, 9, 37, 127
11, 55722, Note_on_c, 9, 42, 0
11, 55723, Note_on_c, 9, 37, 0
11, 55726, Note_on_c, 9, 36, 0
11, 55740, Note_on_c, 9, 42, 127
11, 55740, Note_on_c, 9, 37, 127
11, 55752, Note_on_c, 9, 42, 0
11, 55754, Note_on_c, 9, 37, 0
11, 55770, Note_on_c, 9, 42, 127
11, 55770, Note_on_c, 9, 37, 127
11, 55784, Note_on_c, 9, 37, 0
11, 55784, Note_on_c, 9, 42, 0
11, 55800, Note_on_c, 9, 62, 127
11, 55800, Note_on_c, 9, 42, 127
11, 55800, Note_on_c, 9, 37, 127
11, 55815, Note_on_c, 9, 42, 0
11, 55817, Note_on_c, 9, 37, 0
11, 55821, Note_on_c, 9, 62, 0
11, 55860, Note_on_c, 9, 42, 127
11, 55860, Note_on_c, 9, 36, 127
11, 55860, Note_on_c, 9, 37, 127
11, 55873, Note_on_c, 9, 37, 0
11, 55874, Note_on_c, 9, 36, 0
11, 55875, Note_on_c, 9, 42, 0
11, 55890, Note_on_c, 9, 42, 127
11, 55890, Note_on_c, 9, 36, 127
11, 55890, Note_on_c, 9, 37, 127
11, 55903, Note_on_c, 9, 37, 0
11, 55903, Note_on_c, 9, 42, 0
11, 55909, Note_on_c, 9, 36, 0
11, 55920, Note_on_c, 9, 42, 127
11, 55920, Note_on_c, 9, 37, 127
11, 55935, Note_on_c, 9, 42, 0
11, 55937, Note_on_c, 9, 37, 0
11, 55980, Note_on_c, 9, 42, 127
11, 55980, Note_on_c, 9, 36, 127
11, 55980, Note_on_c, 9, 37, 127
11, 55995, Note_on_c, 9, 42, 0
11, 55996, Note_on_c, 9, 37, 0
11, 55999, Note_on_c, 9, 36, 0
11, 56040, Note_on_c, 9, 62, 127
11, 56040, Note_on_c, 9, 42, 127
11, 56040, Note_on_c, 9, 40, 90
11, 56040, Note_on_c, 9, 37, 127
11, 56049, Note_on_c, 9, 40, 0
11, 56053, Note_on_c, 9, 37, 0
11, 56053, Note_on_c, 9, 42, 0
11, 56055, Note_on_c, 9, 40, 90
11, 56058, Note_on_c, 9, 62, 0
11, 56063, Note_on_c, 9, 40, 0
11, 56070, Note_on_c, 9, 42, 127
11, 56070, Note_on_c, 9, 40, 90
11, 56070, Note_on_c, 9, 37, 127
11, 56080, Note_on_c, 9, 42, 0
11, 56081, Note_on_c, 9, 40, 0
11, 56085, Note_on_c, 9, 37, 0
11, 56085, Note_on_c, 9, 40, 90
11, 56096, Note_on_c, 9, 40, 0
11, 56100, Note_on_c, 9, 40, 90
11, 56110, Note_on_c, 9, 40, 0
11, 56160, Note_on_c, 9, 35, 127
11, 56160, Note_on_c, 9, 62, 127
11, 56160, Note_on_c, 9, 42, 127
11, 56160, Note_on_c, 9, 37, 127
11, 56170, Note_on_c, 9, 42, 0
11, 56173, Note_on_c, 9, 37, 0
11, 56189, Note_on_c, 9, 35, 127
11, 56190, Note_on_c, 9, 35, 0
11, 56190, Note_on_c, 9, 37, 127
11, 56190, Note_on_c, 9, 42, 127
11, 56193, Note_on_c, 9, 62, 0
11, 56201, Note_on_c, 9, 42, 0
11, 56203, Note_on_c, 9, 37, 0
11, 56219, Note_on_c, 9, 35, 0
11, 56219, Note_on_c, 9, 35, 127
11, 56220, Note_on_c, 9, 37, 127
11, 56220, Note_on_c, 9, 42, 127
11, 56230, Note_on_c, 9, 42, 0
11, 56234, Note_on_c, 9, 37, 0
11, 56249, Note_on_c, 9, 35, 0
11, 56249, Note_on_c, 9, 35, 127
11, 56250, Note_on_c, 9, 37, 127
11, 56250, Note_on_c, 9, 42, 127
11, 56262, Note_on_c, 9, 42, 0
11, 56264, Note_on_c, 9, 37, 0
11, 56279, Note_on_c, 9, 35, 0
11, 56280, Note_on_c, 9, 62, 127
11, 56280, Note_on_c, 9, 35, 127
11, 56280, Note_on_c, 9, 37, 127
11, 56280, Note_on_c, 9, 42, 127
11, 56295, Note_on_c, 9, 42, 0
11, 56297, Note_on_c, 9, 37, 0
11, 56305, Note_on_c, 9, 62, 0
11, 56306, Note_on_c, 9, 35, 127
11, 56310, Note_on_c, 9, 35, 0
11, 56336, Note_on_c, 9, 35, 0
11, 56340, Note_on_c, 9, 35, 127
11, 56340, Note_on_c, 9, 37, 127
11, 56340, Note_on_c, 9, 36, 127
11, 56340, Note_on_c, 9, 42, 127
11, 56353, Note_on_c, 9, 42, 0
11, 56353, Note_on_c, 9, 37, 0
11, 56356, Note_on_c, 9, 36, 0
11, 56370, Note_on_c, 9, 35, 0
11, 56370, Note_on_c, 9, 37, 127
11, 56370, Note_on_c, 9, 36, 127
11, 56370, Note_on_c, 9, 42, 127
11, 56371, Note_on_c, 9, 35, 127
11, 56382, Note_on_c, 9, 42, 0
11, 56383, Note_on_c, 9, 37, 0
11, 56389, Note_on_c, 9, 36, 0
11, 56400, Note_on_c, 9, 37, 127
11, 56400, Note_on_c, 9, 42, 127
11, 56401, Note_on_c, 9, 35, 0
11, 56415, Note_on_c, 9, 42, 0
11, 56417, Note_on_c, 9, 37, 0
11, 56460, Note_on_c, 9, 37, 127
11, 56460, Note_on_c, 9, 36, 127
11, 56460, Note_on_c, 9, 42, 127
11, 56476, Note_on_c, 9, 42, 0
11, 56476, Note_on_c, 9, 36, 0
11, 56476, Note_on_c, 9, 37, 0
11, 56520, Note_on_c, 9, 62, 127
11, 56520, Note_on_c, 9, 37, 127
11, 56520, Note_on_c, 9, 42, 127
11, 56533, Note_on_c, 9, 37, 0
11, 56534, Note_on_c, 9, 42, 0
11, 56541, Note_on_c, 9, 62, 0
11, 56550, Note_on_c, 9, 37, 127
11, 56550, Note_on_c, 9, 42, 127
11, 56564, Note_on_c, 9, 42, 0
11, 56565, Note_on_c, 9, 37, 0
11, 56640, Note_on_c, 9, 62, 127
11, 56640, Note_on_c, 9, 42, 127
11, 56640, Note_on_c, 9, 37, 127
11, 56653, Note_on_c, 9, 37, 0
11, 56654, Note_on_c, 9, 42, 0
11, 56664, Note_on_c, 9, 62, 0
11, 56670, Note_on_c, 9, 36, 127
11, 56670, Note_on_c, 9, 42, 127
11, 56670, Note_on_c, 9, 37, 127
11, 56682, Note_on_c, 9, 42, 0
11, 56683, Note_on_c, 9, 37, 0
11, 56686, Note_on_c, 9, 36, 0
11, 56700, Note_on_c, 9, 42, 127
11, 56700, Note_on_c, 9, 37, 127
11, 56712, Note_on_c, 9, 42, 0
11, 56714, Note_on_c, 9, 37, 0
11, 56730, Note_on_c, 9, 42, 127
11, 56730, Note_on_c, 9, 37, 127
11, 56744, Note_on_c, 9, 37, 0
11, 56744, Note_on_c, 9, 42, 0
11, 56760, Note_on_c, 9, 62, 127
11, 56760, Note_on_c, 9, 42, 127
11, 56760, Note_on_c, 9, 37, 127
11, 56775, Note_on_c, 9, 42, 0
11, 56777, Note_on_c, 9, 37, 0
11, 56781, Note_on_c, 9, 62, 0
11, 56820, Note_on_c, 9, 36, 127
11, 56820, Note_on_c, 9, 42, 127
11, 56820, Note_on_c, 9, 37, 127
11, 56833, Note_on_c, 9, 37, 0
11, 56834, Note_on_c, 9, 36, 0
11, 56835, Note_on_c, 9, 42, 0
11, 56850, Note_on_c, 9, 36, 127
11, 56850, Note_on_c, 9, 42, 127
11, 56850, Note_on_c, 9, 37, 127
11, 56863, Note_on_c, 9, 37, 0
11, 56863, Note_on_c, 9, 42, 0
11, 56869, Note_on_c, 9, 36, 0
11, 56880, Note_on_c, 9, 42, 127
11, 56880, Note_on_c, 9, 37, 127
11, 56895, Note_on_c, 9, 42, 0
11, 56897, Note_on_c, 9, 37, 0
11, 56940, Note_on_c, 9, 36, 127
11, 56940, Note_on_c, 9, 42, 127
11, 56940, Note_on_c, 9, 37, 127
11, 56955, Note_on_c, 9, 42, 0
11, 56956, Note_on_c, 9, 37, 0
11, 56959, Note_on_c, 9, 36, 0
11, 57000, Note_on_c, 9, 62, 127
11, 57000, Note_on_c, 9, 40, 90
11, 57000, Note_on_c, 9, 42, 127
11, 57000, Note_on_c, 9, 37, 127
11, 57011, Note_on_c, 9, 40, 0
11, 57013, Note_on_c, 9, 37, 0
11, 57013, Note_on_c, 9, 42, 0
11, 57015, Note_on_c, 9, 40, 90
11, 57018, Note_on_c, 9, 62, 0
11, 57024, Note_on_c, 9, 40, 0
11, 57030, Note_on_c, 9, 40, 90
11, 57030, Note_on_c, 9, 42, 127
11, 57030, Note_on_c, 9, 37, 127
11, 57040, Note_on_c, 9, 42, 0
11, 57042, Note_on_c, 9, 40, 0
11, 57045, Note_on_c, 9, 37, 0
11, 57045, Note_on_c, 9, 40, 90
11, 57058, Note_on_c, 9, 40, 0
11, 57060, Note_on_c, 9, 40, 90
11, 57068, Note_on_c, 9, 40, 0
11, 57120, Note_on_c, 9, 35, 127
11, 57120, Note_on_c, 9, 62, 127
11, 57120, Note_on_c, 9, 42, 127
11, 57120, Note_on_c, 9, 37, 127
11, 57130, Note_on_c, 9, 42, 0
11, 57133, Note_on_c, 9, 37, 0
11, 57150, Note_on_c, 9, 35, 0
11, 57150, Note_on_c, 9, 35, 127
11, 57150, Note_on_c, 9, 42, 127
11, 57150, Note_on_c, 9, 37, 127
11, 57150, Note_on_c, 9, 36, 127
11, 57153, Note_on_c, 9, 62, 0
11, 57161, Note_on_c, 9, 42, 0
11, 57163, Note_on_c, 9, 37, 0
11, 57172, Note_on_c, 9, 36, 0
11, 57180, Note_on_c, 9, 35, 0
11, 57180, Note_on_c, 9, 42, 127
11, 57180, Note_on_c, 9, 35, 127
11, 57180, Note_on_c, 9, 37, 127
11, 57190, Note_on_c, 9, 42, 0
11, 57194, Note_on_c, 9, 37, 0
11, 57210, Note_on_c, 9, 35, 0
11, 57210, Note_on_c, 9, 42, 127
11, 57210, Note_on_c, 9, 35, 127
11, 57210, Note_on_c, 9, 37, 127
11, 57222, Note_on_c, 9, 42, 0
11, 57224, Note_on_c, 9, 37, 0
11, 57240, Note_on_c, 9, 35, 0
11, 57240, Note_on_c, 9, 62, 127
11, 57240, Note_on_c, 9, 35, 127
11, 57240, Note_on_c, 9, 42, 127
11, 57240, Note_on_c, 9, 37, 127
11, 57255, Note_on_c, 9, 42, 0
11, 57257, Note_on_c, 9, 37, 0
11, 57265, Note_on_c, 9, 62, 0
11, 57270, Note_on_c, 9, 35, 0
11, 57270, Note_on_c, 9, 35, 127
11, 57300, Note_on_c, 9, 35, 0
11, 57300, Note_on_c, 9, 35, 127
11, 57300, Note_on_c, 9, 42, 127
11, 57300, Note_on_c, 9, 37, 127
11, 57300, Note_on_c, 9, 36, 127
11, 57313, Note_on_c, 9, 37, 0
11, 57313, Note_on_c, 9, 42, 0
11, 57316, Note_on_c, 9, 36, 0
11, 57330, Note_on_c, 9, 35, 0
11, 57330, Note_on_c, 9, 35, 127
11, 57330, Note_on_c, 9, 42, 127
11, 57330, Note_on_c, 9, 37, 127
11, 57330, Note_on_c, 9, 36, 127
11, 57342, Note_on_c, 9, 42, 0
11, 57343, Note_on_c, 9, 37, 0
11, 57349, Note_on_c, 9, 36, 0
11, 57360, Note_on_c, 9, 35, 0
11, 57360, Note_on_c, 9, 42, 127
11, 57360, Note_on_c, 9, 37, 127
11, 57375, Note_on_c, 9, 42, 0
11, 57377, Note_on_c, 9, 37, 0
11, 57420, Note_on_c, 9, 42, 127
11, 57420, Note_on_c, 9, 37, 127
11, 57420, Note_on_c, 9, 36, 127
11, 57436, Note_on_c, 9, 36, 0
11, 57436, Note_on_c, 9, 37, 0
11, 57436, Note_on_c, 9, 42, 0
11, 57480, Note_on_c, 9, 62, 127
11, 57480, Note_on_c, 9, 42, 127
11, 57480, Note_on_c, 9, 37, 127
11, 57493, Note_on_c, 9, 37, 0
11, 57494, Note_on_c, 9, 42, 0
11, 57501, Note_on_c, 9, 62, 0
11, 57510, Note_on_c, 9, 42, 127
11, 57510, Note_on_c, 9, 37, 127
11, 57524, Note_on_c, 9, 42, 0
11, 57525, Note_on_c, 9, 37, 0
11, 57600, Note_on_c, 9, 62, 127
11, 57600, Note_on_c, 9, 42, 127
11, 57600, Note_on_c, 9, 37, 127
11, 57613, Note_on_c, 9, 37, 0
11, 57614, Note_on_c, 9, 42, 0
11, 57624, Note_on_c, 9, 62, 0
11, 57630, Note_on_c, 9, 42, 127
11, 57630, Note_on_c, 9, 36, 127
11, 57630, Note_on_c, 9, 37, 127
11, 57642, Note_on_c, 9, 42, 0
11, 57643, Note_on_c, 9, 37, 0
11, 57646, Note_on_c, 9, 36, 0
11, 57660, Note_on_c, 9, 42, 127
11, 57660, Note_on_c, 9, 37, 127
11, 57672, Note_on_c, 9, 42, 0
11, 57674, Note_on_c, 9, 37, 0
11, 57690, Note_on_c, 9, 42, 127
11, 57690, Note_on_c, 9, 37, 127
11, 57704, Note_on_c, 9, 37, 0
11, 57704, Note_on_c, 9, 42, 0
11, 57720, Note_on_c, 9, 62, 127
11, 57720, Note_on_c, 9, 42, 127
11, 57720, Note_on_c, 9, 37, 127
11, 57735, Note_on_c, 9, 42, 0
11, 57737, Note_on_c, 9, 37, 0
11, 57741, Note_on_c, 9, 62, 0
11, 57780, Note_on_c, 9, 42, 127
11, 57780, Note_on_c, 9, 36, 127
11, 57780, Note_on_c, 9, 37, 127
11, 57793, Note_on_c, 9, 37, 0
11, 57794, Note_on_c, 9, 36, 0
11, 57795, Note_on_c, 9, 42, 0
11, 57810, Note_on_c, 9, 42, 127
11, 57810, Note_on_c, 9, 36, 127
11, 57810, Note_on_c, 9, 37, 127
11, 57823, Note_on_c, 9, 37, 0
11, 57823, Note_on_c, 9, 42, 0
11, 57829, Note_on_c, 9, 36, 0
11, 57840, Note_on_c, 9, 42, 127
11, 57840, Note_on_c, 9, 37, 127
11, 57855, Note_on_c, 9, 42, 0
11, 57857, Note_on_c, 9, 37, 0
11, 57900, Note_on_c, 9, 42, 127
11, 57900, Note_on_c, 9, 36, 127
11, 57900, Note_on_c, 9, 37, 127
11, 57915, Note_on_c, 9, 42, 0
11, 57916, Note_on_c, 9, 37, 0
11, 57919, Note_on_c, 9, 36, 0
11, 57960, Note_on_c, 9, 62, 127
11, 57960, Note_on_c, 9, 42, 127
11, 57960, Note_on_c, 9, 40, 90
11, 57960, Note_on_c, 9, 37, 127
11, 57969, Note_on_c, 9, 40, 0
11, 57973, Note_on_c, 9, 37, 0
11, 57973, Note_on_c, 9, 42, 0
11, 57975, Note_on_c, 9, 40, 90
11, 57978, Note_on_c, 9, 62, 0
11, 57983, Note_on_c, 9, 40, 0
11, 57990, Note_on_c, 9, 42, 127
11, 57990, Note_on_c, 9, 40, 90
11, 57990, Note_on_c, 9, 37, 127
11, 58000, Note_on_c, 9, 42, 0
11, 58001, Note_on_c, 9, 40, 0
11, 58005, Note_on_c, 9, 37, 0
11, 58005, Note_on_c, 9, 40, 90
11, 58016, Note_on_c, 9, 40, 0
11, 58020, Note_on_c, 9, 40, 90
11, 58030, Note_on_c, 9, 40, 0
11, 58080, Note_on_c, 9, 35, 127
11, 58080, Note_on_c, 9, 62, 127
11, 58080, Note_on_c, 9, 42, 127
11, 58080, Note_on_c, 9, 37, 127
11, 58090, Note_on_c, 9, 42, 0
11, 58093, Note_on_c, 9, 37, 0
11, 58109, Note_on_c, 9, 35, 127
11, 58110, Note_on_c, 9, 35, 0
11, 58110, Note_on_c, 9, 42, 127
11, 58110, Note_on_c, 9, 37, 127
11, 58113, Note_on_c, 9, 62, 0
11, 58121, Note_on_c, 9, 42, 0
11, 58123, Note_on_c, 9, 37, 0
11, 58139, Note_on_c, 9, 35, 0
11, 58139, Note_on_c, 9, 35, 127
11, 58140, Note_on_c, 9, 42, 127
11, 58140, Note_on_c, 9, 37, 127
11, 58150, Note_on_c, 9, 42, 0
11, 58154, Note_on_c, 9, 37, 0
11, 58169, Note_on_c, 9, 35, 0
11, 58169, Note_on_c, 9, 35, 127
11, 58170, Note_on_c, 9, 42, 127
11, 58170, Note_on_c, 9, 37, 127
11, 58182, Note_on_c, 9, 42, 0
11, 58184, Note_on_c, 9, 37, 0
11, 58199, Note_on_c, 9, 35, 0
11, 58200, Note_on_c, 9, 62, 127
11, 58200, Note_on_c, 9, 42, 127
11, 58200, Note_on_c, 9, 35, 127
11, 58200, Note_on_c, 9, 37, 127
11, 58215, Note_on_c, 9, 42, 0
11, 58217, Note_on_c, 9, 37, 0
11, 58225, Note_on_c, 9, 62, 0
11, 58226, Note_on_c, 9, 35, 127
11, 58230, Note_on_c, 9, 35, 0
11, 58256, Note_on_c, 9, 35, 0
11, 58260, Note_on_c, 9, 42, 127
11, 58260, Note_on_c, 9, 35, 127
11, 58260, Note_on_c, 9, 37, 127
11, 58260, Note_on_c, 9, 36, 127
11, 58273, Note_on_c, 9, 37, 0
11, 58273, Note_on_c, 9, 42, 0
11, 58276, Note_on_c, 9, 36, 0
11, 58290, Note_on_c, 9, 35, 0
11, 58290, Note_on_c, 9, 42, 127
11, 58290, Note_on_c, 9, 37, 127
11, 58290, Note_on_c, 9, 36, 127
11, 58291, Note_on_c, 9, 35, 127
11, 58302, Note_on_c, 9, 42, 0
11, 58303, Note_on_c, 9, 37, 0
11, 58309, Note_on_c, 9, 36, 0
11, 58320, Note_on_c, 9, 42, 127
11, 58320, Note_on_c, 9, 37, 127
11, 58321, Note_on_c, 9, 35, 0
11, 58335, Note_on_c, 9, 42, 0
11, 58337, Note_on_c, 9, 37, 0
11, 58380, Note_on_c, 9, 42, 127
11, 58380, Note_on_c, 9, 37, 127
11, 58380, Note_on_c, 9, 36, 127
11, 58396, Note_on_c, 9, 36, 0
11, 58396, Note_on_c, 9, 37, 0
11, 58396, Note_on_c, 9, 42, 0
11, 58440, Note_on_c, 9, 62, 127
11, 58440, Note_on_c, 9, 42, 127
11, 58440, Note_on_c, 9, 37, 127
11, 58453, Note_on_c, 9, 37, 0
11, 58454, Note_on_c, 9, 42, 0
11, 58461, Note_on_c, 9, 62, 0
11, 58470, Note_on_c, 9, 42, 127
11, 58470, Note_on_c, 9, 37, 127
11, 58484, Note_on_c, 9, 42, 0
11, 58485, Note_on_c, 9, 37, 0
11, 58560, Note_on_c, 9, 62, 127
11, 58560, Note_on_c, 9, 42, 127
11, 58560, Note_on_c, 9, 37, 127
11, 58573, Note_on_c, 9, 37, 0
11, 58574, Note_on_c, 9, 42, 0
11, 58584, Note_on_c, 9, 62, 0
11, 58590, Note_on_c, 9, 42, 127
11, 58590, Note_on_c, 9, 36, 127
11, 58590, Note_on_c, 9, 37, 127
11, 58602, Note_on_c, 9, 42, 0
11, 58603, Note_on_c, 9, 37, 0
11, 58606, Note_on_c, 9, 36, 0
11, 58620, Note_on_c, 9, 42, 127
11, 58620, Note_on_c, 9, 37, 127
11, 58632, Note_on_c, 9, 42, 0
11, 58634, Note_on_c, 9, 37, 0
11, 58650, Note_on_c, 9, 42, 127
11, 58650, Note_on_c, 9, 37, 127
11, 58664, Note_on_c, 9, 37, 0
11, 58664, Note_on_c, 9, 42, 0
11, 58680, Note_on_c, 9, 62, 127
11, 58680, Note_on_c, 9, 42, 127
11, 58680, Note_on_c, 9, 37, 127
11, 58695, Note_on_c, 9, 42, 0
11, 58697, Note_on_c, 9, 37, 0
11, 58701, Note_on_c, 9, 62, 0
11, 58740, Note_on_c, 9, 42, 127
11, 58740, Note_on_c, 9, 36, 127
11, 58740, Note_on_c, 9, 37, 127
11, 58753, Note_on_c, 9, 37, 0
11, 58754, Note_on_c, 9, 36, 0
11, 58755, Note_on_c, 9, 42, 0
11, 58770, Note_on_c, 9, 42, 127
11, 58770, Note_on_c, 9, 36, 127
11, 58770, Note_on_c, 9, 37, 127
11, 58783, Note_on_c, 9, 37, 0
11, 58783, Note_on_c, 9, 42, 0
11, 58789, Note_on_c, 9, 36, 0
11, 58800, Note_on_c, 9, 42, 127
11, 58800, Note_on_c, 9, 37, 127
11, 58815, Note_on_c, 9, 42, 0
11, 58817, Note_on_c, 9, 37, 0
11, 58860, Note_on_c, 9, 42, 127
11, 58860, Note_on_c, 9, 36, 127
11, 58860, Note_on_c, 9, 37, 127
11, 58875, Note_on_c, 9, 42, 0
11, 58876, Note_on_c, 9, 37, 0
11, 58879, Note_on_c, 9, 36, 0
11, 58920, Note_on_c, 9, 62, 127
11, 58920, Note_on_c, 9, 40, 90
11, 58920, Note_on_c, 9, 42, 127
11, 58920, Note_on_c, 9, 37, 127
11, 58931, Note_on_c, 9, 40, 0
11, 58933, Note_on_c, 9, 37, 0
11, 58933, Note_on_c, 9, 42, 0
11, 58935, Note_on_c, 9, 40, 90
11, 58938, Note_on_c, 9, 62, 0
11, 58944, Note_on_c, 9, 40, 0
11, 58950, Note_on_c, 9, 40, 90
11, 58950, Note_on_c, 9, 42, 127
11, 58950, Note_on_c, 9, 37, 127
11, 58960, Note_on_c, 9, 42, 0
11, 58962, Note_on_c, 9, 40, 0
11, 58965, Note_on_c, 9, 37, 0
11, 58965, Note_on_c, 9, 40, 90
11, 58978, Note_on_c, 9, 40, 0
11, 58980, Note_on_c, 9, 40, 90
11, 58988, Note_on_c, 9, 40, 0
11, 59040, Note_on_c, 9, 35, 127
11, 59040, Note_on_c, 9, 62, 127
11, 59040, Note_on_c, 9, 42, 127
11, 59040, Note_on_c, 9, 37, 127
11, 59050, Note_on_c, 9, 42, 0
11, 59053, Note_on_c, 9, 37, 0
11, 59070, Note_on_c, 9, 35, 0
11, 59070, Note_on_c, 9, 35, 127
11, 59070, Note_on_c, 9, 42, 127
11, 59070, Note_on_c, 9, 37, 127
11, 59070, Note_on_c, 9, 36, 127
11, 59073, Note_on_c, 9, 62, 0
11, 59081, Note_on_c, 9, 42, 0
11, 59083, Note_on_c, 9, 37, 0
11, 59092, Note_on_c, 9, 36, 0
11, 59100, Note_on_c, 9, 35, 0
11, 59100, Note_on_c, 9, 42, 127
11, 59100, Note_on_c, 9, 35, 127
11, 59100, Note_on_c, 9, 37, 127
11, 59110, Note_on_c, 9, 42, 0
11, 59114, Note_on_c, 9, 37, 0
11, 59130, Note_on_c, 9, 35, 0
11, 59130, Note_on_c, 9, 42, 127
11, 59130, Note_on_c, 9, 35, 127
11, 59130, Note_on_c, 9, 37, 127
11, 59142, Note_on_c, 9, 42, 0
11, 59144, Note_on_c, 9, 37, 0
11, 59160, Note_on_c, 9, 35, 0
11, 59160, Note_on_c, 9, 62, 127
11, 59160, Note_on_c, 9, 35, 127
11, 59160, Note_on_c, 9, 42, 127
11, 59160, Note_on_c, 9, 37, 127
11, 59175, Note_on_c, 9, 42, 0
11, 59177, Note_on_c, 9, 37, 0
11, 59185, Note_on_c, 9, 62, 0
11, 59190, Note_on_c, 9, 35, 0
11, 59190, Note_on_c, 9, 35, 127
11, 59220, Note_on_c, 9, 35, 0
11, 59220, Note_on_c, 9, 35, 127
11, 59220, Note_on_c, 9, 42, 127
11, 59220, Note_on_c, 9, 37, 127
11, 59220, Note_on_c, 9, 36, 127
11, 59233, Note_on_c, 9, 37, 0
11, 59233, Note_on_c, 9, 42, 0
11, 59236, Note_on_c, 9, 36, 0
11, 59250, Note_on_c, 9, 35, 0
11, 59250, Note_on_c, 9, 35, 127
11, 59250, Note_on_c, 9, 42, 127
11, 59250, Note_on_c, 9, 37, 127
11, 59250, Note_on_c, 9, 36, 127
11, 59262, Note_on_c, 9, 42, 0
11, 59263, Note_on_c, 9, 37, 0
11, 59269, Note_on_c, 9, 36, 0
11, 59280, Note_on_c, 9, 35, 0
11, 59280, Note_on_c, 9, 42, 127
11, 59280, Note_on_c, 9, 37, 127
11, 59295, Note_on_c, 9, 42, 0
11, 59297, Note_on_c, 9, 37, 0
11, 59340, Note_on_c, 9, 42, 127
11, 59340, Note_on_c, 9, 37, 127
11, 59340, Note_on_c, 9, 36, 127
11, 59356, Note_on_c, 9, 36, 0
11, 59356, Note_on_c, 9, 37, 0
11, 59356, Note_on_c, 9, 42, 0
11, 59400, Note_on_c, 9, 62, 127
11, 59400, Note_on_c, 9, 42, 127
11, 59400, Note_on_c, 9, 37, 127
11, 59413, Note_on_c, 9, 37, 0
11, 59414, Note_on_c, 9, 42, 0
11, 59421, Note_on_c, 9, 62, 0
11, 59430, Note_on_c, 9, 42, 127
11, 59430, Note_on_c, 9, 37, 127
11, 59444, Note_on_c, 9, 42, 0
11, 59445, Note_on_c, 9, 37, 0
11, 59520, Note_on_c, 9, 62, 127
11, 59520, Note_on_c, 9, 42, 127
11, 59520, Note_on_c, 9, 37, 127
11, 59533, Note_on_c, 9, 37, 0
11, 59534, Note_on_c, 9, 42, 0
11, 59544, Note_on_c, 9, 62, 0
11, 59550, Note_on_c, 9, 42, 127
11, 59550, Note_on_c, 9, 36, 127
11, 59550, Note_on_c, 9, 37, 127
11, 59562, Note_on_c, 9, 42, 0
11, 59563, Note_on_c, 9, 37, 0
11, 59566, Note_on_c, 9, 36, 0
11, 59580, Note_on_c, 9, 42, 127
11, 59580, Note_on_c, 9, 37, 127
11, 59592, Note_on_c, 9, 42, 0
11, 59594, Note_on_c, 9, 37, 0
11, 59610, Note_on_c, 9, 42, 127
11, 59610, Note_on_c, 9, 37, 127
11, 59624, Note_on_c, 9, 37, 0
11, 59624, Note_on_c, 9, 42, 0
11, 59640, Note_on_c, 9, 62, 127
11, 59640, Note_on_c, 9, 42, 127
11, 59640, Note_on_c, 9, 37, 127
11, 59655, Note_on_c, 9, 42, 0
11, 59657, Note_on_c, 9, 37, 0
11, 59661, Note_on_c, 9, 62, 0
11, 59700, Note_on_c, 9, 42, 127
11, 59700, Note_on_c, 9, 36, 127
11, 59700, Note_on_c, 9, 37, 127
11, 59713, Note_on_c, 9, 37, 0
11, 59714, Note_on_c, 9, 36, 0
11, 59715, Note_on_c, 9, 42, 0
11, 59730, Note_on_c, 9, 42, 127
11, 59730, Note_on_c, 9, 36, 127
11, 59730, Note_on_c, 9, 37, 127
11, 59743, Note_on_c, 9, 37, 0
11, 59743, Note_on_c, 9, 42, 0
11, 59749, Note_on_c, 9, 36, 0
11, 59760, Note_on_c, 9, 42, 127
11, 59760, Note_on_c, 9, 37, 127
11, 59775, Note_on_c, 9, 42, 0
11, 59777, Note_on_c, 9, 37, 0
11, 59820, Note_on_c, 9, 42, 127
11, 59820, Note_on_c, 9, 36, 127
11, 59820, Note_on_c, 9, 37, 127
11, 59835, Note_on_c, 9, 42, 0
11, 59836, Note_on_c, 9, 37, 0
11, 59839, Note_on_c, 9, 36, 0
11, 59880, Note_on_c, 9, 62, 127
11, 59880, Note_on_c, 9, 42, 127
11, 59880, Note_on_c, 9, 40, 90
11, 59880, Note_on_c, 9, 37, 127
11, 59889, Note_on_c, 9, 40, 0
11, 59893, Note_on_c, 9, 37, 0
11, 59893, Note_on_c, 9, 42, 0
11, 59895, Note_on_c, 9, 40, 90
11, 59898, Note_on_c, 9, 62, 0
11, 59903, Note_on_c, 9, 40, 0
11, 59910, Note_on_c, 9, 42, 127
11, 59910, Note_on_c, 9, 40, 90
11, 59910, Note_on_c, 9, 37, 127
11, 59920, Note_on_c, 9, 42, 0
11, 59921, Note_on_c, 9, 40, 0
11, 59925, Note_on_c, 9, 37, 0
11, 59925, Note_on_c, 9, 40, 90
11, 59936, Note_on_c, 9, 40, 0
11, 59940, Note_on_c, 9, 40, 90
11, 59950, Note_on_c, 9, 40, 0
11, 60000, Note_on_c, 9, 35, 127
11, 60000, Note_on_c, 9, 62, 127
11, 60000, Note_on_c, 9, 42, 127
11, 60000, Note_on_c, 9, 37, 127
11, 60010, Note_on_c, 9, 42, 0
11, 60013, Note_on_c, 9, 37, 0
11, 60029, Note_on_c, 9, 35, 127
11, 60030, Note_on_c, 9, 35, 0
11, 60030, Note_on_c, 9, 37, 127
11, 60030, Note_on_c, 9, 42, 127
11, 60033, Note_on_c, 9, 62, 0
11, 60041, Note_on_c, 9, 42, 0
11, 60043, Note_on_c, 9, 37, 0
11, 60059, Note_on_c, 9, 35, 0
11, 60059, Note_on_c, 9, 35, 127
11, 60060, Note_on_c, 9, 37, 127
11, 60060, Note_on_c, 9, 42, 127
11, 60070, Note_on_c, 9, 42, 0
11, 60074, Note_on_c, 9, 37, 0
11, 60089, Note_on_c, 9, 35, 0
11, 60089, Note_on_c, 9, 35, 127
11, 60090, Note_on_c, 9, 37, 127
11, 60090, Note_on_c, 9, 42, 127
11, 60102, Note_on_c, 9, 42, 0
11, 60104, Note_on_c, 9, 37, 0
11, 60119, Note_on_c, 9, 35, 0
11, 60120, Note_on_c, 9, 62, 127
11, 60120, Note_on_c, 9, 35, 127
11, 60120, Note_on_c, 9, 37, 127
11, 60120, Note_on_c, 9, 42, 127
11, 60135, Note_on_c, 9, 42, 0
11, 60137, Note_on_c, 9, 37, 0
11, 60145, Note_on_c, 9, 62, 0
11, 60146, Note_on_c, 9, 35, 127
11, 60150, Note_on_c, 9, 35, 0
11, 60176, Note_on_c, 9, 35, 0
11, 60180, Note_on_c, 9, 35, 127
11, 60180, Note_on_c, 9, 37, 127
11, 60180, Note_on_c, 9, 36, 127
11, 60180, Note_on_c, 9, 42, 127
11, 60193, Note_on_c, 9, 42, 0
11, 60193, Note_on_c, 9, 37, 0
11, 60196, Note_on_c, 9, 36, 0
11, 60210, Note_on_c, 9, 35, 0
11, 60210, Note_on_c, 9, 37, 127
11, 60210, Note_on_c, 9, 36, 127
11, 60210, Note_on_c, 9, 42, 127
11, 60211, Note_on_c, 9, 35, 127
11, 60222, Note_on_c, 9, 42, 0
11, 60223, Note_on_c, 9, 37, 0
11, 60229, Note_on_c, 9, 36, 0
11, 60240, Note_on_c, 9, 37, 127
11, 60240, Note_on_c, 9, 42, 127
11, 60241, Note_on_c, 9, 35, 0
11, 60255, Note_on_c, 9, 42, 0
11, 60257, Note_on_c, 9, 37, 0
11, 60300, Note_on_c, 9, 37, 127
11, 60300, Note_on_c, 9, 36, 127
11, 60300, Note_on_c, 9, 42, 127
11, 60316, Note_on_c, 9, 42, 0
11, 60316, Note_on_c, 9, 36, 0
11, 60316, Note_on_c, 9, 37, 0
11, 60360, Note_on_c, 9, 62, 127
11, 60360, Note_on_c, 9, 37, 127
11, 60360, Note_on_c, 9, 42, 127
11, 60373, Note_on_c, 9, 37, 0
11, 60374, Note_on_c, 9, 42, 0
11, 60381, Note_on_c, 9, 62, 0
11, 60390, Note_on_c, 9, 37, 127
11, 60390, Note_on_c, 9, 42, 127
11, 60404, Note_on_c, 9, 42, 0
11, 60405, Note_on_c, 9, 37, 0
11, 60480, Note_on_c, 9, 62, 127
11, 60480, Note_on_c, 9, 42, 127
11, 60480, Note_on_c, 9, 37, 127
11, 60493, Note_on_c, 9, 37, 0
11, 60494, Note_on_c, 9, 42, 0
11, 60504, Note_on_c, 9, 62, 0
11, 60510, Note_on_c, 9, 36, 127
11, 60510, Note_on_c, 9, 42, 127
11, 60510, Note_on_c, 9, 37, 127
11, 60522, Note_on_c, 9, 42, 0
11, 60523, Note_on_c, 9, 37, 0
11, 60526, Note_on_c, 9, 36, 0
11, 60540, Note_on_c, 9, 42, 127
11, 60540, Note_on_c, 9, 37, 127
11, 60552, Note_on_c, 9, 42, 0
11, 60554, Note_on_c, 9, 37, 0
11, 60570, Note_on_c, 9, 42, 127
11, 60570, Note_on_c, 9, 37, 127
11, 60584, Note_on_c, 9, 37, 0
11, 60584, Note_on_c, 9, 42, 0
11, 60600, Note_on_c, 9, 62, 127
11, 60600, Note_on_c, 9, 42, 127
11, 60600, Note_on_c, 9, 37, 127
11, 60615, Note_on_c, 9, 42, 0
11, 60617, Note_on_c, 9, 37, 0
11, 60621, Note_on_c, 9, 62, 0
11, 60660, Note_on_c, 9, 36, 127
11, 60660, Note_on_c, 9, 42, 127
11, 60660, Note_on_c, 9, 37, 127
11, 60673, Note_on_c, 9, 37, 0
11, 60674, Note_on_c, 9, 36, 0
11, 60675, Note_on_c, 9, 42, 0
11, 60690, Note_on_c, 9, 36, 127
11, 60690, Note_on_c, 9, 42, 127
11, 60690, Note_on_c, 9, 37, 127
11, 60703, Note_on_c, 9, 37, 0
11, 60703, Note_on_c, 9, 42, 0
11, 60709, Note_on_c, 9, 36, 0
11, 60720, Note_on_c, 9, 42, 127
11, 60720, Note_on_c, 9, 37, 127
11, 60735, Note_on_c, 9, 42, 0
11, 60737, Note_on_c, 9, 37, 0
11, 60780, Note_on_c, 9, 36, 127
11, 60780, Note_on_c, 9, 42, 127
11, 60780, Note_on_c, 9, 37, 127
11, 60795, Note_on_c, 9, 42, 0
11, 60796, Note_on_c, 9, 37, 0
11, 60799, Note_on_c, 9, 36, 0
11, 60840, Note_on_c, 9, 62, 127
11, 60840, Note_on_c, 9, 40, 90
11, 60840, Note_on_c, 9, 42, 127
11, 60840, Note_on_c, 9, 37, 127
11, 60851, Note_on_c, 9, 40, 0
11, 60853, Note_on_c, 9, 37, 0
11, 60853, Note_on_c, 9, 42, 0
11, 60855, Note_on_c, 9, 40, 90
11, 60858, Note_on_c, 9, 62, 0
11, 60864, Note_on_c, 9, 40, 0
11, 60870, Note_on_c, 9, 40, 90
11, 60870, Note_on_c, 9, 42, 127
11, 60870, Note_on_c, 9, 37, 127
11, 60880, Note_on_c, 9, 42, 0
11, 60882, Note_on_c, 9, 40, 0
11, 60885, Note_on_c, 9, 37, 0
11, 60885, Note_on_c, 9, 40, 90
11, 60898, Note_on_c, 9, 40, 0
11, 60900, Note_on_c, 9, 40, 90
11, 60908, Note_on_c, 9, 40, 0
11, 60960, Note_on_c, 9, 35, 127
11, 60960, Note_on_c, 9, 62, 127
11, 60960, Note_on_c, 9, 42, 127
11, 60960, Note_on_c, 9, 37, 127
11, 60970, Note_on_c, 9, 42, 0
11, 60973, Note_on_c, 9, 37, 0
11, 60990, Note_on_c, 9, 35, 0
11, 60990, Note_on_c, 9, 37, 127
11, 60990, Note_on_c, 9, 36, 127
11, 60990, Note_on_c, 9, 35, 127
11, 60990, Note_on_c, 9, 42, 127
11, 60993, Note_on_c, 9, 62, 0
11, 61001, Note_on_c, 9, 42, 0
11, 61003, Note_on_c, 9, 37, 0
11, 61012, Note_on_c, 9, 36, 0
11, 61020, Note_on_c, 9, 35, 0
11, 61020, Note_on_c, 9, 37, 127
11, 61020, Note_on_c, 9, 42, 127
11, 61020, Note_on_c, 9, 35, 127
11, 61030, Note_on_c, 9, 42, 0
11, 61034, Note_on_c, 9, 37, 0
11, 61050, Note_on_c, 9, 35, 0
11, 61050, Note_on_c, 9, 37, 127
11, 61050, Note_on_c, 9, 42, 127
11, 61050, Note_on_c, 9, 35, 127
11, 61062, Note_on_c, 9, 42, 0
11, 61064, Note_on_c, 9, 37, 0
11, 61080, Note_on_c, 9, 35, 0
11, 61080, Note_on_c, 9, 62, 127
11, 61080, Note_on_c, 9, 37, 127
11, 61080, Note_on_c, 9, 35, 127
11, 61080, Note_on_c, 9, 42, 127
11, 61095, Note_on_c, 9, 42, 0
11, 61097, Note_on_c, 9, 37, 0
11, 61105, Note_on_c, 9, 62, 0
11, 61110, Note_on_c, 9, 35, 0
11, 61110, Note_on_c, 9, 35, 127
11, 61140, Note_on_c, 9, 35, 0
11, 61140, Note_on_c, 9, 37, 127
11, 61140, Note_on_c, 9, 36, 127
11, 61140, Note_on_c, 9, 35, 127
11, 61140, Note_on_c, 9, 42, 127
11, 61153, Note_on_c, 9, 42, 0
11, 61153, Note_on_c, 9, 37, 0
11, 61156, Note_on_c, 9, 36, 0
11, 61170, Note_on_c, 9, 35, 0
11, 61170, Note_on_c, 9, 37, 127
11, 61170, Note_on_c, 9, 36, 127
11, 61170, Note_on_c, 9, 35, 127
11, 61170, Note_on_c, 9, 42, 127
11, 61182, Note_on_c, 9, 42, 0
11, 61183, Note_on_c, 9, 37, 0
11, 61189, Note_on_c, 9, 36, 0
11, 61200, Note_on_c, 9, 35, 0
11, 61200, Note_on_c, 9, 37, 127
11, 61200, Note_on_c, 9, 42, 127
11, 61215, Note_on_c, 9, 42, 0
11, 61217, Note_on_c, 9, 37, 0
11, 61260, Note_on_c, 9, 37, 127
11, 61260, Note_on_c, 9, 36, 127
11, 61260, Note_on_c, 9, 42, 127
11, 61276, Note_on_c, 9, 42, 0
11, 61276, Note_on_c, 9, 36, 0
11, 61276, Note_on_c, 9, 37, 0
11, 61320, Note_on_c, 9, 62, 127
11, 61320, Note_on_c, 9, 37, 127
11, 61320, Note_on_c, 9, 42, 127
11, 61333, Note_on_c, 9, 37, 0
11, 61334, Note_on_c, 9, 42, 0
11, 61341, Note_on_c, 9, 62, 0
11, 61350, Note_on_c, 9, 37, 127
11, 61350, Note_on_c, 9, 42, 127
11, 61364, Note_on_c, 9, 42, 0
11, 61365, Note_on_c, 9, 37, 0
11, 61440, Note_on_c, 9, 62, 127
11, 61440, Note_on_c, 9, 42, 127
11, 61440, Note_on_c, 9, 37, 127
11, 61453, Note_on_c, 9, 37, 0
11, 61454, Note_on_c, 9, 42, 0
11, 61464, Note_on_c, 9, 62, 0
11, 61470, Note_on_c, 9, 36, 127
11, 61470, Note_on_c, 9, 42, 127
11, 61470, Note_on_c, 9, 37, 127
11, 61482, Note_on_c, 9, 42, 0
11, 61483, Note_on_c, 9, 37, 0
11, 61486, Note_on_c, 9, 36, 0
11, 61500, Note_on_c, 9, 42, 127
11, 61500, Note_on_c, 9, 37, 127
11, 61512, Note_on_c, 9, 42, 0
11, 61514, Note_on_c, 9, 37, 0
11, 61530, Note_on_c, 9, 42, 127
11, 61530, Note_on_c, 9, 37, 127
11, 61544, Note_on_c, 9, 37, 0
11, 61544, Note_on_c, 9, 42, 0
11, 61560, Note_on_c, 9, 62, 127
11, 61560, Note_on_c, 9, 42, 127
11, 61560, Note_on_c, 9, 37, 127
11, 61575, Note_on_c, 9, 42, 0
11, 61577, Note_on_c, 9, 37, 0
11, 61581, Note_on_c, 9, 62, 0
11, 61620, Note_on_c, 9, 36, 127
11, 61620, Note_on_c, 9, 42, 127
11, 61620, Note_on_c, 9, 37, 127
11, 61633, Note_on_c, 9, 37, 0
11, 61634, Note_on_c, 9, 36, 0
11, 61635, Note_on_c, 9, 42, 0
11, 61650, Note_on_c, 9, 36, 127
11, 61650, Note_on_c, 9, 42, 127
11, 61650, Note_on_c, 9, 37, 127
11, 61663, Note_on_c, 9, 37, 0
11, 61663, Note_on_c, 9, 42, 0
11, 61669, Note_on_c, 9, 36, 0
11, 61680, Note_on_c, 9, 42, 127
11, 61680, Note_on_c, 9, 37, 127
11, 61695, Note_on_c, 9, 42, 0
11, 61697, Note_on_c, 9, 37, 0
11, 61740, Note_on_c, 9, 36, 127
11, 61740, Note_on_c, 9, 42, 127
11, 61740, Note_on_c, 9, 37, 127
11, 61755, Note_on_c, 9, 42, 0
11, 61756, Note_on_c, 9, 37, 0
11, 61759, Note_on_c, 9, 36, 0
11, 61800, Note_on_c, 9, 62, 127
11, 61800, Note_on_c, 9, 42, 127
11, 61800, Note_on_c, 9, 40, 90
11, 61800, Note_on_c, 9, 37, 127
11, 61809, Note_on_c, 9, 40, 0
11, 61813, Note_on_c, 9, 37, 0
11, 61813, Note_on_c, 9, 42, 0
11, 61815, Note_on_c, 9, 40, 90
11, 61818, Note_on_c, 9, 62, 0
11, 61823, Note_on_c, 9, 40, 0
11, 61830, Note_on_c, 9, 42, 127
11, 61830, Note_on_c, 9, 40, 90
11, 61830, Note_on_c, 9, 37, 127
11, 61840, Note_on_c, 9, 42, 0
11, 61841, Note_on_c, 9, 40, 0
11, 61845, Note_on_c, 9, 37, 0
11, 61845, Note_on_c, 9, 40, 90
11, 61856, Note_on_c, 9, 40, 0
11, 61860, Note_on_c, 9, 40, 90
11, 61870, Note_on_c, 9, 40, 0
11, 61920, Note_on_c, 9, 35, 127
11, 61920, Note_on_c, 9, 62, 127
11, 61920, Note_on_c, 9, 42, 127
11, 61920, Note_on_c, 9, 37, 127
11, 61930, Note_on_c, 9, 42, 0
11, 61933, Note_on_c, 9, 37, 0
11, 61949, Note_on_c, 9, 35, 127
11, 61950, Note_on_c, 9, 35, 0
11, 61950, Note_on_c, 9, 37, 127
11, 61950, Note_on_c, 9, 42, 127
11, 61953, Note_on_c, 9, 62, 0
11, 61961, Note_on_c, 9, 42, 0
11, 61963, Note_on_c, 9, 37, 0
11, 61979, Note_on_c, 9, 35, 0
11, 61979, Note_on_c, 9, 35, 127
11, 61980, Note_on_c, 9, 37, 127
11, 61980, Note_on_c, 9, 42, 127
11, 61990, Note_on_c, 9, 42, 0
11, 61994, Note_on_c, 9, 37, 0
11, 62009, Note_on_c, 9, 35, 0
11, 62009, Note_on_c, 9, 35, 127
11, 62010, Note_on_c, 9, 37, 127
11, 62010, Note_on_c, 9, 42, 127
11, 62022, Note_on_c, 9, 42, 0
11, 62024, Note_on_c, 9, 37, 0
11, 62039, Note_on_c, 9, 35, 0
11, 62040, Note_on_c, 9, 62, 127
11, 62040, Note_on_c, 9, 35, 127
11, 62040, Note_on_c, 9, 37, 127
11, 62040, Note_on_c, 9, 42, 127
11, 62055, Note_on_c, 9, 42, 0
11, 62057, Note_on_c, 9, 37, 0
11, 62065, Note_on_c, 9, 62, 0
11, 62066, Note_on_c, 9, 35, 127
11, 62070, Note_on_c, 9, 35, 0
11, 62096, Note_on_c, 9, 35, 0
11, 62100, Note_on_c, 9, 35, 127
11, 62100, Note_on_c, 9, 37, 127
11, 62100, Note_on_c, 9, 36, 127
11, 62100, Note_on_c, 9, 42, 127
11, 62113, Note_on_c, 9, 42, 0
11, 62113, Note_on_c, 9, 37, 0
11, 62116, Note_on_c, 9, 36, 0
11, 62130, Note_on_c, 9, 35, 0
11, 62130, Note_on_c, 9, 37, 127
11, 62130, Note_on_c, 9, 36, 127
11, 62130, Note_on_c, 9, 42, 127
11, 62131, Note_on_c, 9, 35, 127
11, 62142, Note_on_c, 9, 42, 0
11, 62143, Note_on_c, 9, 37, 0
11, 62149, Note_on_c, 9, 36, 0
11, 62160, Note_on_c, 9, 37, 127
11, 62160, Note_on_c, 9, 42, 127
11, 62161, Note_on_c, 9, 35, 0
11, 62175, Note_on_c, 9, 42, 0
11, 62177, Note_on_c, 9, 37, 0
11, 62220, Note_on_c, 9, 37, 127
11, 62220, Note_on_c, 9, 36, 127
11, 62220, Note_on_c, 9, 42, 127
11, 62236, Note_on_c, 9, 42, 0
11, 62236, Note_on_c, 9, 36, 0
11, 62236, Note_on_c, 9, 37, 0
11, 62280, Note_on_c, 9, 62, 127
11, 62280, Note_on_c, 9, 37, 127
11, 62280, Note_on_c, 9, 42, 127
11, 62293, Note_on_c, 9, 37, 0
11, 62294, Note_on_c, 9, 42, 0
11, 62301, Note_on_c, 9, 62, 0
11, 62310, Note_on_c, 9, 37, 127
11, 62310, Note_on_c, 9, 42, 127
11, 62324, Note_on_c, 9, 42, 0
11, 62325, Note_on_c, 9, 37, 0
11, 62400, Note_on_c, 9, 62, 127
11, 62400, Note_on_c, 9, 42, 127
11, 62400, Note_on_c, 9, 37, 127
11, 62413, Note_on_c, 9, 37, 0
11, 62414, Note_on_c, 9, 42, 0
11, 62424, Note_on_c, 9, 62, 0
11, 62430, Note_on_c, 9, 36, 127
11, 62430, Note_on_c, 9, 42, 127
11, 62430, Note_on_c, 9, 37, 127
11, 62442, Note_on_c, 9, 42, 0
11, 62443, Note_on_c, 9, 37, 0
11, 62446, Note_on_c, 9, 36, 0
11, 62460, Note_on_c, 9, 42, 127
11, 62460, Note_on_c, 9, 37, 127
11, 62472, Note_on_c, 9, 42, 0
11, 62474, Note_on_c, 9, 37, 0
11, 62490, Note_on_c, 9, 42, 127
11, 62490, Note_on_c, 9, 37, 127
11, 62504, Note_on_c, 9, 37, 0
11, 62504, Note_on_c, 9, 42, 0
11, 62520, Note_on_c, 9, 62, 127
11, 62520, Note_on_c, 9, 42, 127
11, 62520, Note_on_c, 9, 37, 127
11, 62535, Note_on_c, 9, 42, 0
11, 62537, Note_on_c, 9, 37, 0
11, 62541, Note_on_c, 9, 62, 0
11, 62580, Note_on_c, 9, 36, 127
11, 62580, Note_on_c, 9, 42, 127
11, 62580, Note_on_c, 9, 37, 127
11, 62593, Note_on_c, 9, 37, 0
11, 62594, Note_on_c, 9, 36, 0
11, 62595, Note_on_c, 9, 42, 0
11, 62610, Note_on_c, 9, 36, 127
11, 62610, Note_on_c, 9, 42, 127
11, 62610, Note_on_c, 9, 37, 127
11, 62623, Note_on_c, 9, 37, 0
11, 62623, Note_on_c, 9, 42, 0
11, 62629, Note_on_c, 9, 36, 0
11, 62640, Note_on_c, 9, 42, 127
11, 62640, Note_on_c, 9, 37, 127
11, 62655, Note_on_c, 9, 42, 0
11, 62657, Note_on_c, 9, 37, 0
11, 62700, Note_on_c, 9, 36, 127
11, 62700, Note_on_c, 9, 42, 127
11, 62700, Note_on_c, 9, 37, 127
11, 62715, Note_on_c, 9, 42, 0
11, 62716, Note_on_c, 9, 37, 0
11, 62719, Note_on_c, 9, 36, 0
11, 62760, Note_on_c, 9, 62, 127
11, 62760, Note_on_c, 9, 40, 90
11, 62760, Note_on_c, 9, 42, 127
11, 62760, Note_on_c, 9, 37, 127
11, 62771, Note_on_c, 9, 40, 0
11, 62773, Note_on_c, 9, 37, 0
11, 62773, Note_on_c, 9, 42, 0
11, 62775, Note_on_c, 9, 40, 90
11, 62778, Note_on_c, 9, 62, 0
11, 62784, Note_on_c, 9, 40, 0
11, 62790, Note_on_c, 9, 40, 90
11, 62790, Note_on_c, 9, 42, 127
11, 62790, Note_on_c, 9, 37, 127
11, 62800, Note_on_c, 9, 42, 0
11, 62802, Note_on_c, 9, 40, 0
11, 62805, Note_on_c, 9, 37, 0
11, 62805, Note_on_c, 9, 40, 90
11, 62818, Note_on_c, 9, 40, 0
11, 62820, Note_on_c, 9, 40, 90
11, 62828, Note_on_c, 9, 40, 0
11, 62880, Note_on_c, 9, 35, 127
11, 62880, Note_on_c, 9, 62, 127
11, 62880, Note_on_c, 9, 42, 127
11, 62880, Note_on_c, 9, 37, 127
11, 62890, Note_on_c, 9, 42, 0
11, 62893, Note_on_c, 9, 37, 0
11, 62910, Note_on_c, 9, 35, 0
11, 62910, Note_on_c, 9, 35, 127
11, 62910, Note_on_c, 9, 42, 127
11, 62910, Note_on_c, 9, 37, 127
11, 62910, Note_on_c, 9, 36, 127
11, 62913, Note_on_c, 9, 62, 0
11, 62921, Note_on_c, 9, 42, 0
11, 62923, Note_on_c, 9, 37, 0
11, 62932, Note_on_c, 9, 36, 0
11, 62940, Note_on_c, 9, 35, 0
11, 62940, Note_on_c, 9, 42, 127
11, 62940, Note_on_c, 9, 35, 127
11, 62940, Note_on_c, 9, 37, 127
11, 62950, Note_on_c, 9, 42, 0
11, 62954, Note_on_c, 9, 37, 0
11, 62970, Note_on_c, 9, 35, 0
11, 62970, Note_on_c, 9, 42, 127
11, 62970, Note_on_c, 9, 35, 127
11, 62970, Note_on_c, 9, 37, 127
11, 62982, Note_on_c, 9, 42, 0
11, 62984, Note_on_c, 9, 37, 0
11, 63000, Note_on_c, 9, 35, 0
11, 63000, Note_on_c, 9, 62, 127
11, 63000, Note_on_c, 9, 35, 127
11, 63000, Note_on_c, 9, 42, 127
11, 63000, Note_on_c, 9, 37, 127
11, 63015, Note_on_c, 9, 42, 0
11, 63017, Note_on_c, 9, 37, 0
11, 63025, Note_on_c, 9, 62, 0
11, 63030, Note_on_c, 9, 35, 0
11, 63030, Note_on_c, 9, 35, 127
11, 63060, Note_on_c, 9, 35, 0
11, 63060, Note_on_c, 9, 35, 127
11, 63060, Note_on_c, 9, 42, 127
11, 63060, Note_on_c, 9, 37, 127
11, 63060, Note_on_c, 9, 36, 127
11, 63073, Note_on_c, 9, 37, 0
11, 63073, Note_on_c, 9, 42, 0
11, 63076, Note_on_c, 9, 36, 0
11, 63090, Note_on_c, 9, 35, 0
11, 63090, Note_on_c, 9, 35, 127
11, 63090, Note_on_c, 9, 42, 127
11, 63090, Note_on_c, 9, 37, 127
11, 63090, Note_on_c, 9, 36, 127
11, 63102, Note_on_c, 9, 42, 0
11, 63103, Note_on_c, 9, 37, 0
11, 63109, Note_on_c, 9, 36, 0
11, 63120, Note_on_c, 9, 35, 0
11, 63120, Note_on_c, 9, 42, 127
11, 63120, Note_on_c, 9, 37, 127
11, 63135, Note_on_c, 9, 42, 0
11, 63137, Note_on_c, 9, 37, 0
11, 63180, Note_on_c, 9, 42, 127
11, 63180, Note_on_c, 9, 37, 127
11, 63180, Note_on_c, 9, 36, 127
11, 63196, Note_on_c, 9, 36, 0
11, 63196, Note_on_c, 9, 37, 0
11, 63196, Note_on_c, 9, 42, 0
11, 63240, Note_on_c, 9, 62, 127
11, 63240, Note_on_c, 9, 42, 127
11, 63240, Note_on_c, 9, 37, 127
11, 63253, Note_on_c, 9, 37, 0
11, 63254, Note_on_c, 9, 42, 0
11, 63261, Note_on_c, 9, 62, 0
11, 63270, Note_on_c, 9, 42, 127
11, 63270, Note_on_c, 9, 37, 127
11, 63284, Note_on_c, 9, 42, 0
11, 63285, Note_on_c, 9, 37, 0
11, 63360, Note_on_c, 9, 62, 127
11, 63360, Note_on_c, 9, 42, 127
11, 63360, Note_on_c, 9, 37, 127
11, 63373, Note_on_c, 9, 37, 0
11, 63374, Note_on_c, 9, 42, 0
11, 63384, Note_on_c, 9, 62, 0
11, 63390, Note_on_c, 9, 42, 127
11, 63390, Note_on_c, 9, 36, 127
11, 63390, Note_on_c, 9, 37, 127
11, 63402, Note_on_c, 9, 42, 0
11, 63403, Note_on_c, 9, 37, 0
11, 63406, Note_on_c, 9, 36, 0
11, 63420, Note_on_c, 9, 42, 127
11, 63420, Note_on_c, 9, 37, 127
11, 63432, Note_on_c, 9, 42, 0
11, 63434, Note_on_c, 9, 37, 0
11, 63450, Note_on_c, 9, 42, 127
11, 63450, Note_on_c, 9, 37, 127
11, 63464, Note_on_c, 9, 37, 0
11, 63464, Note_on_c, 9, 42, 0
11, 63480, Note_on_c, 9, 62, 127
11, 63480, Note_on_c, 9, 42, 127
11, 63480, Note_on_c, 9, 37, 127
11, 63495, Note_on_c, 9, 42, 0
11, 63497, Note_on_c, 9, 37, 0
11, 63501, Note_on_c, 9, 62, 0
11, 63540, Note_on_c, 9, 42, 127
11, 63540, Note_on_c, 9, 36, 127
11, 63540, Note_on_c, 9, 37, 127
11, 63553, Note_on_c, 9, 37, 0
11, 63554, Note_on_c, 9, 36, 0
11, 63555, Note_on_c, 9, 42, 0
11, 63570, Note_on_c, 9, 42, 127
11, 63570, Note_on_c, 9, 36, 127
11, 63570, Note_on_c, 9, 37, 127
11, 63583, Note_on_c, 9, 37, 0
11, 63583, Note_on_c, 9, 42, 0
11, 63589, Note_on_c, 9, 36, 0
11, 63600, Note_on_c, 9, 42, 127
11, 63600, Note_on_c, 9, 37, 127
11, 63615, Note_on_c, 9, 42, 0
11, 63617, Note_on_c, 9, 37, 0
11, 63660, Note_on_c, 9, 42, 127
11, 63660, Note_on_c, 9, 36, 127
11, 63660, Note_on_c, 9, 37, 127
11, 63675, Note_on_c, 9, 42, 0
11, 63676, Note_on_c, 9, 37, 0
11, 63679, Note_on_c, 9, 36, 0
11, 63720, Note_on_c, 9, 62, 127
11, 63720, Note_on_c, 9, 42, 127
11, 63720, Note_on_c, 9, 40, 90
11, 63720, Note_on_c, 9, 37, 127
11, 63729, Note_on_c, 9, 40, 0
11, 63733, Note_on_c, 9, 37, 0
11, 63733, Note_on_c, 9, 42, 0
11, 63735, Note_on_c, 9, 40, 90
11, 63738, Note_on_c, 9, 62, 0
11, 63743, Note_on_c, 9, 40, 0
11, 63750, Note_on_c, 9, 42, 127
11, 63750, Note_on_c, 9, 40, 90
11, 63750, Note_on_c, 9, 37, 127
11, 63760, Note_on_c, 9, 42, 0
11, 63761, Note_on_c, 9, 40, 0
11, 63765, Note_on_c, 9, 37, 0
11, 63765, Note_on_c, 9, 40, 90
11, 63776, Note_on_c, 9, 40, 0
11, 63780, Note_on_c, 9, 40, 90
11, 63790, Note_on_c, 9, 40, 0
11, 63840, Note_on_c, 9, 35, 127
11, 63840, Note_on_c, 9, 62, 127
11, 63840, Note_on_c, 9, 42, 127
11, 63840, Note_on_c, 9, 37, 127
11, 63850, Note_on_c, 9, 42, 0
11, 63853, Note_on_c, 9, 37, 0
11, 63870, Note_on_c, 9, 35, 0
11, 63873, Note_on_c, 9, 62, 0
11, 63873, End_track
12, 0, Start_track
12, 0, MIDI_port, 0
12, 0, Title_t, "--Reserved--"
12, 0, End_track
13, 0, Start_track
13, 0, MIDI_port, 0
13, 0, Title_t, "--Reserved--"
13, 0, End_track
14, 0, Start_track
14, 0, MIDI_port, 0
14, 0, Title_t, "--Reserved--"
14, 0, End_track
15, 0, Start_track
15, 0, MIDI_port, 0
15, 0, Title_t, "--Reserved--"
15, 0, End_track
16, 0, Start_track
16, 0, MIDI_port, 0
16, 0, Title_t, "--Reserved--"
16, 0, End_track
17, 0, Start_track
17, 0, MIDI_port, 0
17, 0, Title_t, "--Reserved--"
17, 0, End_track
0, 0, End_of_file
