0, 0, Header, 1, 9, 960
1, 0, Start_track
1, 0, Control_c, 0, 101, 0
1, 0, Control_c, 0, 100, 0
1, 0, Control_c, 0, 6, 12
1, 0, Control_c, 0, 38, 0
1, 0, Control_c, 1, 101, 0
1, 0, Control_c, 1, 100, 0
1, 0, Control_c, 1, 6, 12
1, 0, Control_c, 1, 38, 0
1, 0, Control_c, 2, 101, 0
1, 0, Control_c, 2, 100, 0
1, 0, Control_c, 2, 6, 12
1, 0, Control_c, 2, 38, 0
1, 0, Control_c, 3, 101, 0
1, 0, Control_c, 3, 100, 0
1, 0, Control_c, 3, 6, 12
1, 0, Control_c, 3, 38, 0
1, 0, Control_c, 4, 101, 0
1, 0, Control_c, 4, 100, 0
1, 0, Control_c, 4, 6, 12
1, 0, Control_c, 4, 38, 0
1, 0, Control_c, 5, 101, 0
1, 0, Control_c, 5, 100, 0
1, 0, Control_c, 5, 6, 12
1, 0, Control_c, 5, 38, 0
1, 0, Control_c, 6, 101, 0
1, 0, Control_c, 6, 100, 0
1, 0, Control_c, 6, 6, 12
1, 0, Control_c, 6, 38, 0
1, 0, Control_c, 7, 101, 0
1, 0, Control_c, 7, 100, 0
1, 0, Control_c, 7, 6, 12
1, 0, Control_c, 7, 38, 0
1, 0, Control_c, 8, 101, 0
1, 0, Control_c, 8, 100, 0
1, 0, Control_c, 8, 6, 12
1, 0, Control_c, 8, 38, 0
1, 0, Control_c, 9, 101, 0
1, 0, Control_c, 9, 100, 0
1, 0, Control_c, 9, 6, 12
1, 0, Control_c, 9, 38, 0
1, 0, Control_c, 10, 101, 0
1, 0, Control_c, 10, 100, 0
1, 0, Control_c, 10, 6, 12
1, 0, Control_c, 10, 38, 0
1, 0, Control_c, 11, 101, 0
1, 0, Control_c, 11, 100, 0
1, 0, Control_c, 11, 6, 12
1, 0, Control_c, 11, 38, 0
1, 0, Control_c, 12, 101, 0
1, 0, Control_c, 12, 100, 0
1, 0, Control_c, 12, 6, 12
1, 0, Control_c, 12, 38, 0
1, 0, Control_c, 13, 101, 0
1, 0, Control_c, 13, 100, 0
1, 0, Control_c, 13, 6, 12
1, 0, Control_c, 13, 38, 0
1, 0, Control_c, 14, 101, 0
1, 0, Control_c, 14, 100, 0
1, 0, Control_c, 14, 6, 12
1, 0, Control_c, 14, 38, 0
1, 0, Control_c, 15, 101, 0
1, 0, Control_c, 15, 100, 0
1, 0, Control_c, 15, 6, 12
1, 0, Control_c, 15, 38, 0
1, 0, Time_signature, 4, 2, 24, 8
1, 0, Tempo, 416666
1, 0, End_track
2, 0, Start_track
2, 0, Pitch_bend_c, 0, 8192
2, 0, Control_c, 0, 7, 63
2, 0, Control_c, 0, 10, 63
2, 0, Control_c, 0, 93, 0
2, 0, Control_c, 0, 91, 0
2, 0, Control_c, 0, 95, 0
2, 0, Control_c, 0, 92, 0
2, 0, Control_c, 0, 11, 127
2, 0, Program_c, 0, 30
2, 0, Control_c, 1, 7, 63
2, 0, Control_c, 1, 10, 63
2, 0, Control_c, 1, 93, 0
2, 0, Control_c, 1, 91, 0
2, 0, Control_c, 1, 95, 0
2, 0, Control_c, 1, 92, 0
2, 0, Control_c, 1, 11, 127
2, 0, Program_c, 1, 30
2, 0, Note_on_c, 0, 71, 95
2, 0, Note_on_c, 0, 67, 95
2, 0, Note_on_c, 0, 64, 95
2, 0, Note_on_c, 0, 59, 95
2, 0, Note_on_c, 0, 52, 95
2, 960, Note_off_c, 0, 71, 95
2, 960, Note_off_c, 0, 67, 95
2, 960, Note_off_c, 0, 64, 95
2, 960, Note_off_c, 0, 59, 95
2, 960, Note_off_c, 0, 52, 95
2, 960, Note_on_c, 0, 71, 95
2, 960, Note_on_c, 0, 67, 95
2, 960, Note_on_c, 0, 64, 95
2, 960, Note_on_c, 0, 59, 95
2, 960, Note_on_c, 0, 52, 95
2, 1920, Note_off_c, 0, 71, 95
2, 1920, Note_off_c, 0, 67, 95
2, 1920, Note_off_c, 0, 64, 95
2, 1920, Note_off_c, 0, 59, 95
2, 1920, Note_off_c, 0, 52, 95
2, 1920, Note_on_c, 0, 71, 95
2, 1920, Note_on_c, 0, 67, 95
2, 1920, Note_on_c, 0, 64, 95
2, 1920, Note_on_c, 0, 59, 95
2, 1920, Note_on_c, 0, 52, 95
2, 2880, Note_off_c, 0, 71, 95
2, 2880, Note_off_c, 0, 67, 95
2, 2880, Note_off_c, 0, 64, 95
2, 2880, Note_off_c, 0, 59, 95
2, 2880, Note_off_c, 0, 52, 95
2, 2880, Note_on_c, 0, 71, 95
2, 2880, Note_on_c, 0, 67, 95
2, 2880, Note_on_c, 0, 64, 95
2, 2880, Note_on_c, 0, 59, 95
2, 2880, Note_on_c, 0, 52, 95
2, 3840, Note_off_c, 0, 71, 95
2, 3840, Note_off_c, 0, 67, 95
2, 3840, Note_off_c, 0, 64, 95
2, 3840, Note_off_c, 0, 59, 95
2, 3840, Note_off_c, 0, 52, 95
2, 3840, Note_on_c, 0, 71, 95
2, 3840, Note_on_c, 0, 67, 95
2, 3840, Note_on_c, 0, 64, 95
2, 3840, Note_on_c, 0, 59, 95
2, 3840, Note_on_c, 0, 52, 95
2, 4800, Note_off_c, 0, 71, 95
2, 4800, Note_off_c, 0, 67, 95
2, 4800, Note_off_c, 0, 64, 95
2, 4800, Note_off_c, 0, 59, 95
2, 4800, Note_off_c, 0, 52, 95
2, 4800, Note_on_c, 0, 71, 95
2, 4800, Note_on_c, 0, 67, 95
2, 4800, Note_on_c, 0, 64, 95
2, 4800, Note_on_c, 0, 59, 95
2, 4800, Note_on_c, 0, 52, 95
2, 5760, Note_off_c, 0, 71, 95
2, 5760, Note_off_c, 0, 67, 95
2, 5760, Note_off_c, 0, 64, 95
2, 5760, Note_off_c, 0, 59, 95
2, 5760, Note_off_c, 0, 52, 95
2, 5760, Note_on_c, 0, 71, 95
2, 5760, Note_on_c, 0, 67, 95
2, 5760, Note_on_c, 0, 64, 95
2, 5760, Note_on_c, 0, 59, 95
2, 5760, Note_on_c, 0, 52, 95
2, 6720, Note_off_c, 0, 71, 95
2, 6720, Note_off_c, 0, 67, 95
2, 6720, Note_off_c, 0, 64, 95
2, 6720, Note_off_c, 0, 59, 95
2, 6720, Note_off_c, 0, 52, 95
2, 6720, Note_on_c, 0, 71, 95
2, 6720, Note_on_c, 0, 67, 95
2, 6720, Note_on_c, 0, 64, 95
2, 6720, Note_on_c, 0, 59, 95
2, 6720, Note_on_c, 0, 52, 95
2, 7680, Note_off_c, 0, 71, 95
2, 7680, Note_off_c, 0, 67, 95
2, 7680, Note_off_c, 0, 64, 95
2, 7680, Note_off_c, 0, 59, 95
2, 7680, Note_off_c, 0, 52, 95
2, 7680, Note_on_c, 0, 71, 95
2, 7680, Note_on_c, 0, 67, 95
2, 7680, Note_on_c, 0, 64, 95
2, 7680, Note_on_c, 0, 59, 95
2, 7680, Note_on_c, 0, 52, 95
2, 8640, Note_off_c, 0, 71, 95
2, 8640, Note_off_c, 0, 67, 95
2, 8640, Note_off_c, 0, 64, 95
2, 8640, Note_off_c, 0, 59, 95
2, 8640, Note_off_c, 0, 52, 95
2, 8640, Note_on_c, 0, 71, 95
2, 8640, Note_on_c, 0, 67, 95
2, 8640, Note_on_c, 0, 64, 95
2, 8640, Note_on_c, 0, 59, 95
2, 8640, Note_on_c, 0, 52, 95
2, 9600, Note_off_c, 0, 71, 95
2, 9600, Note_off_c, 0, 67, 95
2, 9600, Note_off_c, 0, 64, 95
2, 9600, Note_off_c, 0, 59, 95
2, 9600, Note_off_c, 0, 52, 95
2, 9600, Note_on_c, 0, 71, 95
2, 9600, Note_on_c, 0, 67, 95
2, 9600, Note_on_c, 0, 64, 95
2, 9600, Note_on_c, 0, 59, 95
2, 9600, Note_on_c, 0, 52, 95
2, 10560, Note_off_c, 0, 71, 95
2, 10560, Note_off_c, 0, 67, 95
2, 10560, Note_off_c, 0, 64, 95
2, 10560, Note_off_c, 0, 59, 95
2, 10560, Note_off_c, 0, 52, 95
2, 10560, Note_on_c, 0, 71, 95
2, 10560, Note_on_c, 0, 67, 95
2, 10560, Note_on_c, 0, 64, 95
2, 10560, Note_on_c, 0, 59, 95
2, 10560, Note_on_c, 0, 52, 95
2, 11520, Note_off_c, 0, 71, 95
2, 11520, Note_off_c, 0, 67, 95
2, 11520, Note_off_c, 0, 64, 95
2, 11520, Note_off_c, 0, 59, 95
2, 11520, Note_off_c, 0, 52, 95
2, 11520, Note_on_c, 0, 71, 95
2, 11520, Note_on_c, 0, 67, 95
2, 11520, Note_on_c, 0, 64, 95
2, 11520, Note_on_c, 0, 59, 95
2, 11520, Note_on_c, 0, 52, 95
2, 12480, Note_off_c, 0, 71, 95
2, 12480, Note_off_c, 0, 67, 95
2, 12480, Note_off_c, 0, 64, 95
2, 12480, Note_off_c, 0, 59, 95
2, 12480, Note_off_c, 0, 52, 95
2, 12480, Note_on_c, 0, 71, 95
2, 12480, Note_on_c, 0, 67, 95
2, 12480, Note_on_c, 0, 64, 95
2, 12480, Note_on_c, 0, 59, 95
2, 12480, Note_on_c, 0, 52, 95
2, 13440, Note_off_c, 0, 71, 95
2, 13440, Note_off_c, 0, 67, 95
2, 13440, Note_off_c, 0, 64, 95
2, 13440, Note_off_c, 0, 59, 95
2, 13440, Note_off_c, 0, 52, 95
2, 13440, Note_on_c, 0, 71, 95
2, 13440, Note_on_c, 0, 67, 95
2, 13440, Note_on_c, 0, 64, 95
2, 13440, Note_on_c, 0, 59, 95
2, 13440, Note_on_c, 0, 52, 95
2, 14400, Note_off_c, 0, 71, 95
2, 14400, Note_off_c, 0, 67, 95
2, 14400, Note_off_c, 0, 64, 95
2, 14400, Note_off_c, 0, 59, 95
2, 14400, Note_off_c, 0, 52, 95
2, 14400, Note_on_c, 0, 71, 95
2, 14400, Note_on_c, 0, 67, 95
2, 14400, Note_on_c, 0, 64, 95
2, 14400, Note_on_c, 0, 59, 95
2, 14400, Note_on_c, 0, 52, 95
2, 15360, Note_off_c, 0, 71, 95
2, 15360, Note_off_c, 0, 67, 95
2, 15360, Note_off_c, 0, 64, 95
2, 15360, Note_off_c, 0, 59, 95
2, 15360, Note_off_c, 0, 52, 95
2, 15360, Note_on_c, 0, 71, 95
2, 15360, Note_on_c, 0, 67, 95
2, 15360, Note_on_c, 0, 64, 95
2, 15360, Note_on_c, 0, 59, 95
2, 15360, Note_on_c, 0, 52, 95
2, 16320, Note_off_c, 0, 71, 95
2, 16320, Note_off_c, 0, 67, 95
2, 16320, Note_off_c, 0, 64, 95
2, 16320, Note_off_c, 0, 59, 95
2, 16320, Note_off_c, 0, 52, 95
2, 16320, Note_on_c, 0, 71, 95
2, 16320, Note_on_c, 0, 67, 95
2, 16320, Note_on_c, 0, 64, 95
2, 16320, Note_on_c, 0, 59, 95
2, 16320, Note_on_c, 0, 52, 95
2, 17280, Note_off_c, 0, 71, 95
2, 17280, Note_off_c, 0, 67, 95
2, 17280, Note_off_c, 0, 64, 95
2, 17280, Note_off_c, 0, 59, 95
2, 17280, Note_off_c, 0, 52, 95
2, 17280, Note_on_c, 0, 71, 95
2, 17280, Note_on_c, 0, 67, 95
2, 17280, Note_on_c, 0, 64, 95
2, 17280, Note_on_c, 0, 59, 95
2, 17280, Note_on_c, 0, 52, 95
2, 18240, Note_off_c, 0, 71, 95
2, 18240, Note_off_c, 0, 67, 95
2, 18240, Note_off_c, 0, 64, 95
2, 18240, Note_off_c, 0, 59, 95
2, 18240, Note_off_c, 0, 52, 95
2, 18240, Note_on_c, 0, 71, 95
2, 18240, Note_on_c, 0, 67, 95
2, 18240, Note_on_c, 0, 64, 95
2, 18240, Note_on_c, 0, 59, 95
2, 18240, Note_on_c, 0, 52, 95
2, 19200, Note_off_c, 0, 71, 95
2, 19200, Note_off_c, 0, 67, 95
2, 19200, Note_off_c, 0, 64, 95
2, 19200, Note_off_c, 0, 59, 95
2, 19200, Note_off_c, 0, 52, 95
2, 19200, Note_on_c, 0, 71, 95
2, 19200, Note_on_c, 0, 67, 95
2, 19200, Note_on_c, 0, 64, 95
2, 19200, Note_on_c, 0, 59, 95
2, 19200, Note_on_c, 0, 52, 95
2, 20160, Note_off_c, 0, 71, 95
2, 20160, Note_off_c, 0, 67, 95
2, 20160, Note_off_c, 0, 64, 95
2, 20160, Note_off_c, 0, 59, 95
2, 20160, Note_off_c, 0, 52, 95
2, 20160, Note_on_c, 0, 71, 95
2, 20160, Note_on_c, 0, 67, 95
2, 20160, Note_on_c, 0, 64, 95
2, 20160, Note_on_c, 0, 59, 95
2, 20160, Note_on_c, 0, 52, 95
2, 21120, Note_off_c, 0, 71, 95
2, 21120, Note_off_c, 0, 67, 95
2, 21120, Note_off_c, 0, 64, 95
2, 21120, Note_off_c, 0, 59, 95
2, 21120, Note_off_c, 0, 52, 95
2, 21120, Note_on_c, 0, 71, 95
2, 21120, Note_on_c, 0, 67, 95
2, 21120, Note_on_c, 0, 64, 95
2, 21120, Note_on_c, 0, 59, 95
2, 21120, Note_on_c, 0, 52, 95
2, 22080, Note_off_c, 0, 71, 95
2, 22080, Note_off_c, 0, 67, 95
2, 22080, Note_off_c, 0, 64, 95
2, 22080, Note_off_c, 0, 59, 95
2, 22080, Note_off_c, 0, 52, 95
2, 22080, Note_on_c, 0, 71, 95
2, 22080, Note_on_c, 0, 67, 95
2, 22080, Note_on_c, 0, 64, 95
2, 22080, Note_on_c, 0, 59, 95
2, 22080, Note_on_c, 0, 52, 95
2, 23040, Note_off_c, 0, 71, 95
2, 23040, Note_off_c, 0, 67, 95
2, 23040, Note_off_c, 0, 64, 95
2, 23040, Note_off_c, 0, 59, 95
2, 23040, Note_off_c, 0, 52, 95
2, 23040, Note_on_c, 0, 71, 95
2, 23040, Note_on_c, 0, 67, 95
2, 23040, Note_on_c, 0, 64, 95
2, 23040, Note_on_c, 0, 59, 95
2, 23040, Note_on_c, 0, 52, 95
2, 24000, Note_off_c, 0, 71, 95
2, 24000, Note_off_c, 0, 67, 95
2, 24000, Note_off_c, 0, 64, 95
2, 24000, Note_off_c, 0, 59, 95
2, 24000, Note_off_c, 0, 52, 95
2, 24000, Note_on_c, 0, 71, 95
2, 24000, Note_on_c, 0, 67, 95
2, 24000, Note_on_c, 0, 64, 95
2, 24000, Note_on_c, 0, 59, 95
2, 24000, Note_on_c, 0, 52, 95
2, 24960, Note_off_c, 0, 71, 95
2, 24960, Note_off_c, 0, 67, 95
2, 24960, Note_off_c, 0, 64, 95
2, 24960, Note_off_c, 0, 59, 95
2, 24960, Note_off_c, 0, 52, 95
2, 24960, Note_on_c, 0, 71, 95
2, 24960, Note_on_c, 0, 67, 95
2, 24960, Note_on_c, 0, 64, 95
2, 24960, Note_on_c, 0, 59, 95
2, 24960, Note_on_c, 0, 52, 95
2, 25920, Note_off_c, 0, 71, 95
2, 25920, Note_off_c, 0, 67, 95
2, 25920, Note_off_c, 0, 64, 95
2, 25920, Note_off_c, 0, 59, 95
2, 25920, Note_off_c, 0, 52, 95
2, 25920, Note_on_c, 0, 71, 95
2, 25920, Note_on_c, 0, 67, 95
2, 25920, Note_on_c, 0, 64, 95
2, 25920, Note_on_c, 0, 59, 95
2, 25920, Note_on_c, 0, 52, 95
2, 26880, Note_off_c, 0, 71, 95
2, 26880, Note_off_c, 0, 67, 95
2, 26880, Note_off_c, 0, 64, 95
2, 26880, Note_off_c, 0, 59, 95
2, 26880, Note_off_c, 0, 52, 95
2, 26880, Note_on_c, 0, 71, 95
2, 26880, Note_on_c, 0, 67, 95
2, 26880, Note_on_c, 0, 64, 95
2, 26880, Note_on_c, 0, 59, 95
2, 26880, Note_on_c, 0, 52, 95
2, 27840, Note_off_c, 0, 71, 95
2, 27840, Note_off_c, 0, 67, 95
2, 27840, Note_off_c, 0, 64, 95
2, 27840, Note_off_c, 0, 59, 95
2, 27840, Note_off_c, 0, 52, 95
2, 27840, Note_on_c, 0, 71, 95
2, 27840, Note_on_c, 0, 67, 95
2, 27840, Note_on_c, 0, 64, 95
2, 27840, Note_on_c, 0, 59, 95
2, 27840, Note_on_c, 0, 52, 95
2, 28800, Note_off_c, 0, 71, 95
2, 28800, Note_off_c, 0, 67, 95
2, 28800, Note_off_c, 0, 64, 95
2, 28800, Note_off_c, 0, 59, 95
2, 28800, Note_off_c, 0, 52, 95
2, 28800, Note_on_c, 0, 71, 95
2, 28800, Note_on_c, 0, 67, 95
2, 28800, Note_on_c, 0, 64, 95
2, 28800, Note_on_c, 0, 59, 95
2, 28800, Note_on_c, 0, 52, 95
2, 29760, Note_off_c, 0, 71, 95
2, 29760, Note_off_c, 0, 67, 95
2, 29760, Note_off_c, 0, 64, 95
2, 29760, Note_off_c, 0, 59, 95
2, 29760, Note_off_c, 0, 52, 95
2, 29760, Note_on_c, 0, 71, 95
2, 29760, Note_on_c, 0, 67, 95
2, 29760, Note_on_c, 0, 64, 95
2, 29760, Note_on_c, 0, 59, 95
2, 29760, Note_on_c, 0, 52, 95
2, 30720, Note_off_c, 0, 71, 95
2, 30720, Note_off_c, 0, 67, 95
2, 30720, Note_off_c, 0, 64, 95
2, 30720, Note_off_c, 0, 59, 95
2, 30720, Note_off_c, 0, 52, 95
2, 30720, Note_on_c, 0, 71, 95
2, 30720, Note_on_c, 0, 67, 95
2, 30720, Note_on_c, 0, 64, 95
2, 30720, Note_on_c, 0, 59, 95
2, 30720, Note_on_c, 0, 52, 95
2, 31680, Note_off_c, 0, 71, 95
2, 31680, Note_off_c, 0, 67, 95
2, 31680, Note_off_c, 0, 64, 95
2, 31680, Note_off_c, 0, 59, 95
2, 31680, Note_off_c, 0, 52, 95
2, 31680, Note_on_c, 0, 71, 95
2, 31680, Note_on_c, 0, 67, 95
2, 31680, Note_on_c, 0, 64, 95
2, 31680, Note_on_c, 0, 59, 95
2, 31680, Note_on_c, 0, 52, 95
2, 32640, Note_off_c, 0, 71, 95
2, 32640, Note_off_c, 0, 67, 95
2, 32640, Note_off_c, 0, 64, 95
2, 32640, Note_off_c, 0, 59, 95
2, 32640, Note_off_c, 0, 52, 95
2, 32640, Note_on_c, 0, 71, 95
2, 32640, Note_on_c, 0, 67, 95
2, 32640, Note_on_c, 0, 64, 95
2, 32640, Note_on_c, 0, 59, 95
2, 32640, Note_on_c, 0, 52, 95
2, 33600, Note_off_c, 0, 71, 95
2, 33600, Note_off_c, 0, 67, 95
2, 33600, Note_off_c, 0, 64, 95
2, 33600, Note_off_c, 0, 59, 95
2, 33600, Note_off_c, 0, 52, 95
2, 33600, Note_on_c, 0, 71, 95
2, 33600, Note_on_c, 0, 67, 95
2, 33600, Note_on_c, 0, 64, 95
2, 33600, Note_on_c, 0, 59, 95
2, 33600, Note_on_c, 0, 52, 95
2, 34560, Note_off_c, 0, 71, 95
2, 34560, Note_off_c, 0, 67, 95
2, 34560, Note_off_c, 0, 64, 95
2, 34560, Note_off_c, 0, 59, 95
2, 34560, Note_off_c, 0, 52, 95
2, 34560, Note_on_c, 0, 71, 95
2, 34560, Note_on_c, 0, 67, 95
2, 34560, Note_on_c, 0, 64, 95
2, 34560, Note_on_c, 0, 59, 95
2, 34560, Note_on_c, 0, 52, 95
2, 35520, Note_off_c, 0, 71, 95
2, 35520, Note_off_c, 0, 67, 95
2, 35520, Note_off_c, 0, 64, 95
2, 35520, Note_off_c, 0, 59, 95
2, 35520, Note_off_c, 0, 52, 95
2, 35520, Note_on_c, 0, 71, 95
2, 35520, Note_on_c, 0, 67, 95
2, 35520, Note_on_c, 0, 64, 95
2, 35520, Note_on_c, 0, 59, 95
2, 35520, Note_on_c, 0, 52, 95
2, 36480, Note_off_c, 0, 71, 95
2, 36480, Note_off_c, 0, 67, 95
2, 36480, Note_off_c, 0, 64, 95
2, 36480, Note_off_c, 0, 59, 95
2, 36480, Note_off_c, 0, 52, 95
2, 36480, Note_on_c, 0, 71, 95
2, 36480, Note_on_c, 0, 67, 95
2, 36480, Note_on_c, 0, 64, 95
2, 36480, Note_on_c, 0, 59, 95
2, 36480, Note_on_c, 0, 52, 95
2, 37440, Note_off_c, 0, 71, 95
2, 37440, Note_off_c, 0, 67, 95
2, 37440, Note_off_c, 0, 64, 95
2, 37440, Note_off_c, 0, 59, 95
2, 37440, Note_off_c, 0, 52, 95
2, 37440, Note_on_c, 0, 71, 95
2, 37440, Note_on_c, 0, 67, 95
2, 37440, Note_on_c, 0, 64, 95
2, 37440, Note_on_c, 0, 59, 95
2, 37440, Note_on_c, 0, 52, 95
2, 38400, Note_off_c, 0, 71, 95
2, 38400, Note_off_c, 0, 67, 95
2, 38400, Note_off_c, 0, 64, 95
2, 38400, Note_off_c, 0, 59, 95
2, 38400, Note_off_c, 0, 52, 95
2, 38400, Note_on_c, 0, 71, 95
2, 38400, Note_on_c, 0, 67, 95
2, 38400, Note_on_c, 0, 64, 95
2, 38400, Note_on_c, 0, 59, 95
2, 38400, Note_on_c, 0, 52, 95
2, 39360, Note_off_c, 0, 71, 95
2, 39360, Note_off_c, 0, 67, 95
2, 39360, Note_off_c, 0, 64, 95
2, 39360, Note_off_c, 0, 59, 95
2, 39360, Note_off_c, 0, 52, 95
2, 39360, Note_on_c, 0, 71, 95
2, 39360, Note_on_c, 0, 67, 95
2, 39360, Note_on_c, 0, 64, 95
2, 39360, Note_on_c, 0, 59, 95
2, 39360, Note_on_c, 0, 52, 95
2, 40320, Note_off_c, 0, 71, 95
2, 40320, Note_off_c, 0, 67, 95
2, 40320, Note_off_c, 0, 64, 95
2, 40320, Note_off_c, 0, 59, 95
2, 40320, Note_off_c, 0, 52, 95
2, 40320, Note_on_c, 0, 71, 95
2, 40320, Note_on_c, 0, 67, 95
2, 40320, Note_on_c, 0, 64, 95
2, 40320, Note_on_c, 0, 59, 95
2, 40320, Note_on_c, 0, 52, 95
2, 41280, Note_off_c, 0, 71, 95
2, 41280, Note_off_c, 0, 67, 95
2, 41280, Note_off_c, 0, 64, 95
2, 41280, Note_off_c, 0, 59, 95
2, 41280, Note_off_c, 0, 52, 95
2, 41280, Note_on_c, 0, 71, 95
2, 41280, Note_on_c, 0, 67, 95
2, 41280, Note_on_c, 0, 64, 95
2, 41280, Note_on_c, 0, 59, 95
2, 41280, Note_on_c, 0, 52, 95
2, 42240, Note_off_c, 0, 71, 95
2, 42240, Note_off_c, 0, 67, 95
2, 42240, Note_off_c, 0, 64, 95
2, 42240, Note_off_c, 0, 59, 95
2, 42240, Note_off_c, 0, 52, 95
2, 42240, Note_on_c, 0, 71, 95
2, 42240, Note_on_c, 0, 67, 95
2, 42240, Note_on_c, 0, 64, 95
2, 42240, Note_on_c, 0, 59, 95
2, 42240, Note_on_c, 0, 52, 95
2, 43200, Note_off_c, 0, 71, 95
2, 43200, Note_off_c, 0, 67, 95
2, 43200, Note_off_c, 0, 64, 95
2, 43200, Note_off_c, 0, 59, 95
2, 43200, Note_off_c, 0, 52, 95
2, 43200, Note_on_c, 0, 71, 95
2, 43200, Note_on_c, 0, 67, 95
2, 43200, Note_on_c, 0, 64, 95
2, 43200, Note_on_c, 0, 59, 95
2, 43200, Note_on_c, 0, 52, 95
2, 44160, Note_off_c, 0, 71, 95
2, 44160, Note_off_c, 0, 67, 95
2, 44160, Note_off_c, 0, 64, 95
2, 44160, Note_off_c, 0, 59, 95
2, 44160, Note_off_c, 0, 52, 95
2, 44160, Note_on_c, 0, 71, 95
2, 44160, Note_on_c, 0, 67, 95
2, 44160, Note_on_c, 0, 64, 95
2, 44160, Note_on_c, 0, 59, 95
2, 44160, Note_on_c, 0, 52, 95
2, 45120, Note_off_c, 0, 71, 95
2, 45120, Note_off_c, 0, 67, 95
2, 45120, Note_off_c, 0, 64, 95
2, 45120, Note_off_c, 0, 59, 95
2, 45120, Note_off_c, 0, 52, 95
2, 45120, Note_on_c, 0, 71, 95
2, 45120, Note_on_c, 0, 67, 95
2, 45120, Note_on_c, 0, 64, 95
2, 45120, Note_on_c, 0, 59, 95
2, 45120, Note_on_c, 0, 52, 95
2, 46080, Note_off_c, 0, 71, 95
2, 46080, Note_off_c, 0, 67, 95
2, 46080, Note_off_c, 0, 64, 95
2, 46080, Note_off_c, 0, 59, 95
2, 46080, Note_off_c, 0, 52, 95
2, 46080, Note_on_c, 0, 64, 95
2, 46080, Note_on_c, 0, 59, 95
2, 46080, Note_on_c, 0, 55, 95
2, 46080, Note_on_c, 0, 50, 95
2, 46152, Note_off_c, 0, 64, 95
2, 46152, Note_off_c, 0, 59, 95
2, 46152, Note_off_c, 0, 55, 95
2, 46152, Note_off_c, 0, 50, 95
2, 46720, Note_on_c, 0, 64, 95
2, 46720, Note_on_c, 0, 59, 95
2, 46720, Note_on_c, 0, 55, 95
2, 46720, Note_on_c, 0, 50, 95
2, 46792, Note_off_c, 0, 64, 95
2, 46792, Note_off_c, 0, 59, 95
2, 46792, Note_off_c, 0, 55, 95
2, 46792, Note_off_c, 0, 50, 95
2, 47040, Note_on_c, 0, 76, 95
2, 47040, Note_on_c, 0, 71, 95
2, 47040, Note_on_c, 0, 67, 95
2, 47040, Note_on_c, 0, 64, 95
2, 47680, Note_off_c, 0, 76, 95
2, 47680, Note_off_c, 0, 71, 95
2, 47680, Note_off_c, 0, 67, 95
2, 47680, Note_off_c, 0, 64, 95
2, 47680, Note_on_c, 0, 76, 95
2, 47680, Note_on_c, 0, 71, 95
2, 47680, Note_on_c, 0, 67, 95
2, 47680, Note_on_c, 0, 64, 95
2, 48000, Note_off_c, 0, 76, 95
2, 48000, Note_off_c, 0, 71, 95
2, 48000, Note_off_c, 0, 67, 95
2, 48000, Note_off_c, 0, 64, 95
2, 48000, Note_on_c, 0, 64, 95
2, 48000, Note_on_c, 0, 59, 95
2, 48000, Note_on_c, 0, 55, 95
2, 48000, Note_on_c, 0, 50, 95
2, 48072, Note_off_c, 0, 64, 95
2, 48072, Note_off_c, 0, 59, 95
2, 48072, Note_off_c, 0, 55, 95
2, 48072, Note_off_c, 0, 50, 95
2, 48640, Note_on_c, 0, 64, 95
2, 48640, Note_on_c, 0, 59, 95
2, 48640, Note_on_c, 0, 55, 95
2, 48640, Note_on_c, 0, 50, 95
2, 48712, Note_off_c, 0, 64, 95
2, 48712, Note_off_c, 0, 59, 95
2, 48712, Note_off_c, 0, 55, 95
2, 48712, Note_off_c, 0, 50, 95
2, 48960, Note_on_c, 0, 76, 95
2, 48960, Note_on_c, 0, 71, 95
2, 48960, Note_on_c, 0, 67, 95
2, 48960, Note_on_c, 0, 64, 95
2, 49600, Note_off_c, 0, 76, 95
2, 49600, Note_off_c, 0, 71, 95
2, 49600, Note_off_c, 0, 67, 95
2, 49600, Note_off_c, 0, 64, 95
2, 49600, Note_on_c, 0, 76, 95
2, 49600, Note_on_c, 0, 71, 95
2, 49600, Note_on_c, 0, 67, 95
2, 49600, Note_on_c, 0, 64, 95
2, 49920, Note_off_c, 0, 76, 95
2, 49920, Note_off_c, 0, 71, 95
2, 49920, Note_off_c, 0, 67, 95
2, 49920, Note_off_c, 0, 64, 95
2, 49920, Note_on_c, 0, 64, 95
2, 49920, Note_on_c, 0, 59, 95
2, 49920, Note_on_c, 0, 55, 95
2, 49920, Note_on_c, 0, 50, 95
2, 49992, Note_off_c, 0, 64, 95
2, 49992, Note_off_c, 0, 59, 95
2, 49992, Note_off_c, 0, 55, 95
2, 49992, Note_off_c, 0, 50, 95
2, 50560, Note_on_c, 0, 64, 95
2, 50560, Note_on_c, 0, 59, 95
2, 50560, Note_on_c, 0, 55, 95
2, 50560, Note_on_c, 0, 50, 95
2, 50632, Note_off_c, 0, 64, 95
2, 50632, Note_off_c, 0, 59, 95
2, 50632, Note_off_c, 0, 55, 95
2, 50632, Note_off_c, 0, 50, 95
2, 50880, Note_on_c, 0, 76, 95
2, 50880, Note_on_c, 0, 71, 95
2, 50880, Note_on_c, 0, 67, 95
2, 50880, Note_on_c, 0, 64, 95
2, 51520, Note_off_c, 0, 76, 95
2, 51520, Note_off_c, 0, 71, 95
2, 51520, Note_off_c, 0, 67, 95
2, 51520, Note_off_c, 0, 64, 95
2, 51520, Note_on_c, 0, 76, 95
2, 51520, Note_on_c, 0, 71, 95
2, 51520, Note_on_c, 0, 67, 95
2, 51520, Note_on_c, 0, 64, 95
2, 51840, Note_off_c, 0, 76, 95
2, 51840, Note_off_c, 0, 71, 95
2, 51840, Note_off_c, 0, 67, 95
2, 51840, Note_off_c, 0, 64, 95
2, 51840, Note_on_c, 0, 64, 95
2, 51840, Note_on_c, 0, 59, 95
2, 51840, Note_on_c, 0, 55, 95
2, 51840, Note_on_c, 0, 50, 95
2, 51912, Note_off_c, 0, 64, 95
2, 51912, Note_off_c, 0, 59, 95
2, 51912, Note_off_c, 0, 55, 95
2, 51912, Note_off_c, 0, 50, 95
2, 52480, Note_on_c, 0, 64, 95
2, 52480, Note_on_c, 0, 59, 95
2, 52480, Note_on_c, 0, 55, 95
2, 52480, Note_on_c, 0, 50, 95
2, 52552, Note_off_c, 0, 64, 95
2, 52552, Note_off_c, 0, 59, 95
2, 52552, Note_off_c, 0, 55, 95
2, 52552, Note_off_c, 0, 50, 95
2, 52800, Note_on_c, 0, 76, 95
2, 52800, Note_on_c, 0, 71, 95
2, 52800, Note_on_c, 0, 67, 95
2, 52800, Note_on_c, 0, 64, 95
2, 53440, Note_off_c, 0, 76, 95
2, 53440, Note_off_c, 0, 71, 95
2, 53440, Note_off_c, 0, 67, 95
2, 53440, Note_off_c, 0, 64, 95
2, 53440, Note_on_c, 0, 76, 95
2, 53440, Note_on_c, 0, 71, 95
2, 53440, Note_on_c, 0, 67, 95
2, 53440, Note_on_c, 0, 64, 95
2, 53760, Note_off_c, 0, 76, 95
2, 53760, Note_off_c, 0, 71, 95
2, 53760, Note_off_c, 0, 67, 95
2, 53760, Note_off_c, 0, 64, 95
2, 53760, Note_on_c, 0, 64, 95
2, 53760, Note_on_c, 0, 59, 95
2, 53760, Note_on_c, 0, 55, 95
2, 53760, Note_on_c, 0, 50, 95
2, 53832, Note_off_c, 0, 64, 95
2, 53832, Note_off_c, 0, 59, 95
2, 53832, Note_off_c, 0, 55, 95
2, 53832, Note_off_c, 0, 50, 95
2, 54400, Note_on_c, 0, 64, 95
2, 54400, Note_on_c, 0, 59, 95
2, 54400, Note_on_c, 0, 55, 95
2, 54400, Note_on_c, 0, 50, 95
2, 54472, Note_off_c, 0, 64, 95
2, 54472, Note_off_c, 0, 59, 95
2, 54472, Note_off_c, 0, 55, 95
2, 54472, Note_off_c, 0, 50, 95
2, 54720, Note_on_c, 0, 76, 95
2, 54720, Note_on_c, 0, 71, 95
2, 54720, Note_on_c, 0, 67, 95
2, 54720, Note_on_c, 0, 64, 95
2, 55360, Note_off_c, 0, 76, 95
2, 55360, Note_off_c, 0, 71, 95
2, 55360, Note_off_c, 0, 67, 95
2, 55360, Note_off_c, 0, 64, 95
2, 55360, Note_on_c, 0, 76, 95
2, 55360, Note_on_c, 0, 71, 95
2, 55360, Note_on_c, 0, 67, 95
2, 55360, Note_on_c, 0, 64, 95
2, 55680, Note_off_c, 0, 76, 95
2, 55680, Note_off_c, 0, 71, 95
2, 55680, Note_off_c, 0, 67, 95
2, 55680, Note_off_c, 0, 64, 95
2, 55680, Note_on_c, 0, 64, 95
2, 55680, Note_on_c, 0, 59, 95
2, 55680, Note_on_c, 0, 55, 95
2, 55680, Note_on_c, 0, 50, 95
2, 55752, Note_off_c, 0, 64, 95
2, 55752, Note_off_c, 0, 59, 95
2, 55752, Note_off_c, 0, 55, 95
2, 55752, Note_off_c, 0, 50, 95
2, 56320, Note_on_c, 0, 64, 95
2, 56320, Note_on_c, 0, 59, 95
2, 56320, Note_on_c, 0, 55, 95
2, 56320, Note_on_c, 0, 50, 95
2, 56392, Note_off_c, 0, 64, 95
2, 56392, Note_off_c, 0, 59, 95
2, 56392, Note_off_c, 0, 55, 95
2, 56392, Note_off_c, 0, 50, 95
2, 56640, Note_on_c, 0, 76, 95
2, 56640, Note_on_c, 0, 71, 95
2, 56640, Note_on_c, 0, 67, 95
2, 56640, Note_on_c, 0, 64, 95
2, 57280, Note_off_c, 0, 76, 95
2, 57280, Note_off_c, 0, 71, 95
2, 57280, Note_off_c, 0, 67, 95
2, 57280, Note_off_c, 0, 64, 95
2, 57280, Note_on_c, 0, 76, 95
2, 57280, Note_on_c, 0, 71, 95
2, 57280, Note_on_c, 0, 67, 95
2, 57280, Note_on_c, 0, 64, 95
2, 57600, Note_off_c, 0, 76, 95
2, 57600, Note_off_c, 0, 71, 95
2, 57600, Note_off_c, 0, 67, 95
2, 57600, Note_off_c, 0, 64, 95
2, 57600, Note_on_c, 0, 59, 95
2, 57600, Note_on_c, 0, 55, 95
2, 57600, Note_on_c, 0, 50, 95
2, 57672, Note_off_c, 0, 59, 95
2, 57672, Note_off_c, 0, 55, 95
2, 57672, Note_off_c, 0, 50, 95
2, 58240, Note_on_c, 0, 74, 95
2, 58240, Note_on_c, 0, 67, 95
2, 58240, Note_on_c, 0, 62, 95
2, 58560, Note_off_c, 0, 74, 95
2, 58560, Note_off_c, 0, 67, 95
2, 58560, Note_off_c, 0, 62, 95
2, 58560, Note_on_c, 0, 74, 95
2, 58560, Note_on_c, 0, 67, 95
2, 58560, Note_on_c, 0, 62, 95
2, 59200, Note_off_c, 0, 74, 95
2, 59200, Note_off_c, 0, 67, 95
2, 59200, Note_off_c, 0, 62, 95
2, 59200, Note_on_c, 0, 74, 95
2, 59200, Note_on_c, 0, 67, 95
2, 59200, Note_on_c, 0, 62, 95
2, 59520, Note_off_c, 0, 74, 95
2, 59520, Note_off_c, 0, 67, 95
2, 59520, Note_off_c, 0, 62, 95
2, 59520, Note_on_c, 0, 59, 95
2, 59520, Note_on_c, 0, 55, 95
2, 59520, Note_on_c, 0, 50, 95
2, 59592, Note_off_c, 0, 59, 95
2, 59592, Note_off_c, 0, 55, 95
2, 59592, Note_off_c, 0, 50, 95
2, 60160, Note_on_c, 0, 59, 95
2, 60160, Note_on_c, 0, 55, 95
2, 60160, Note_on_c, 0, 50, 95
2, 60232, Note_off_c, 0, 59, 95
2, 60232, Note_off_c, 0, 55, 95
2, 60232, Note_off_c, 0, 50, 95
2, 60480, Note_on_c, 0, 74, 95
2, 60480, Note_on_c, 0, 67, 95
2, 60480, Note_on_c, 0, 62, 95
2, 61120, Note_off_c, 0, 74, 95
2, 61120, Note_off_c, 0, 67, 95
2, 61120, Note_off_c, 0, 62, 95
2, 61120, Note_on_c, 0, 74, 95
2, 61120, Note_on_c, 0, 67, 95
2, 61120, Note_on_c, 0, 62, 95
2, 61440, Note_off_c, 0, 74, 95
2, 61440, Note_off_c, 0, 67, 95
2, 61440, Note_off_c, 0, 62, 95
2, 61440, Note_on_c, 0, 64, 95
2, 61440, Note_on_c, 0, 59, 95
2, 61440, Note_on_c, 0, 55, 95
2, 61440, Note_on_c, 0, 50, 95
2, 61512, Note_off_c, 0, 64, 95
2, 61512, Note_off_c, 0, 59, 95
2, 61512, Note_off_c, 0, 55, 95
2, 61512, Note_off_c, 0, 50, 95
2, 62080, Note_on_c, 0, 64, 95
2, 62080, Note_on_c, 0, 59, 95
2, 62080, Note_on_c, 0, 55, 95
2, 62080, Note_on_c, 0, 50, 95
2, 62152, Note_off_c, 0, 64, 95
2, 62152, Note_off_c, 0, 59, 95
2, 62152, Note_off_c, 0, 55, 95
2, 62152, Note_off_c, 0, 50, 95
2, 62400, Note_on_c, 0, 76, 95
2, 62400, Note_on_c, 0, 71, 95
2, 62400, Note_on_c, 0, 67, 95
2, 62400, Note_on_c, 0, 64, 95
2, 63040, Note_off_c, 0, 76, 95
2, 63040, Note_off_c, 0, 71, 95
2, 63040, Note_off_c, 0, 67, 95
2, 63040, Note_off_c, 0, 64, 95
2, 63040, Note_on_c, 0, 76, 95
2, 63040, Note_on_c, 0, 71, 95
2, 63040, Note_on_c, 0, 67, 95
2, 63040, Note_on_c, 0, 64, 95
2, 63360, Note_off_c, 0, 76, 95
2, 63360, Note_off_c, 0, 71, 95
2, 63360, Note_off_c, 0, 67, 95
2, 63360, Note_off_c, 0, 64, 95
2, 63360, Note_on_c, 0, 64, 95
2, 63360, Note_on_c, 0, 59, 95
2, 63360, Note_on_c, 0, 55, 95
2, 63360, Note_on_c, 0, 50, 95
2, 63360, Note_on_c, 0, 45, 95
2, 63432, Note_off_c, 0, 64, 95
2, 63432, Note_off_c, 0, 59, 95
2, 63432, Note_off_c, 0, 55, 95
2, 63432, Note_off_c, 0, 50, 95
2, 63432, Note_off_c, 0, 45, 95
2, 64000, Note_on_c, 0, 64, 95
2, 64000, Note_on_c, 0, 59, 95
2, 64000, Note_on_c, 0, 55, 95
2, 64000, Note_on_c, 0, 50, 95
2, 64072, Note_off_c, 0, 64, 95
2, 64072, Note_off_c, 0, 59, 95
2, 64072, Note_off_c, 0, 55, 95
2, 64072, Note_off_c, 0, 50, 95
2, 64320, Note_on_c, 0, 76, 95
2, 64320, Note_on_c, 0, 71, 95
2, 64320, Note_on_c, 0, 67, 95
2, 64320, Note_on_c, 0, 64, 95
2, 64960, Note_off_c, 0, 76, 95
2, 64960, Note_off_c, 0, 71, 95
2, 64960, Note_off_c, 0, 67, 95
2, 64960, Note_off_c, 0, 64, 95
2, 64960, Note_on_c, 0, 76, 95
2, 64960, Note_on_c, 0, 71, 95
2, 64960, Note_on_c, 0, 67, 95
2, 64960, Note_on_c, 0, 64, 95
2, 65280, Note_off_c, 0, 76, 95
2, 65280, Note_off_c, 0, 71, 95
2, 65280, Note_off_c, 0, 67, 95
2, 65280, Note_off_c, 0, 64, 95
2, 65280, Note_on_c, 0, 64, 95
2, 65280, Note_on_c, 0, 59, 95
2, 65280, Note_on_c, 0, 55, 95
2, 65280, Note_on_c, 0, 50, 95
2, 65352, Note_off_c, 0, 64, 95
2, 65352, Note_off_c, 0, 59, 95
2, 65352, Note_off_c, 0, 55, 95
2, 65352, Note_off_c, 0, 50, 95
2, 65920, Note_on_c, 0, 64, 95
2, 65920, Note_on_c, 0, 59, 95
2, 65920, Note_on_c, 0, 55, 95
2, 65920, Note_on_c, 0, 50, 95
2, 65992, Note_off_c, 0, 64, 95
2, 65992, Note_off_c, 0, 59, 95
2, 65992, Note_off_c, 0, 55, 95
2, 65992, Note_off_c, 0, 50, 95
2, 66240, Note_on_c, 0, 76, 95
2, 66240, Note_on_c, 0, 71, 95
2, 66240, Note_on_c, 0, 67, 95
2, 66240, Note_on_c, 0, 64, 95
2, 66880, Note_off_c, 0, 76, 95
2, 66880, Note_off_c, 0, 71, 95
2, 66880, Note_off_c, 0, 67, 95
2, 66880, Note_off_c, 0, 64, 95
2, 66880, Note_on_c, 0, 76, 95
2, 66880, Note_on_c, 0, 71, 95
2, 66880, Note_on_c, 0, 67, 95
2, 66880, Note_on_c, 0, 64, 95
2, 67200, Note_off_c, 0, 76, 95
2, 67200, Note_off_c, 0, 71, 95
2, 67200, Note_off_c, 0, 67, 95
2, 67200, Note_off_c, 0, 64, 95
2, 67200, Note_on_c, 0, 64, 95
2, 67200, Note_on_c, 0, 59, 95
2, 67200, Note_on_c, 0, 55, 95
2, 67200, Note_on_c, 0, 50, 95
2, 67200, Note_on_c, 0, 45, 95
2, 67272, Note_off_c, 0, 64, 95
2, 67272, Note_off_c, 0, 59, 95
2, 67272, Note_off_c, 0, 55, 95
2, 67272, Note_off_c, 0, 50, 95
2, 67272, Note_off_c, 0, 45, 95
2, 67840, Note_on_c, 0, 64, 95
2, 67840, Note_on_c, 0, 59, 95
2, 67840, Note_on_c, 0, 55, 95
2, 67840, Note_on_c, 0, 50, 95
2, 67912, Note_off_c, 0, 64, 95
2, 67912, Note_off_c, 0, 59, 95
2, 67912, Note_off_c, 0, 55, 95
2, 67912, Note_off_c, 0, 50, 95
2, 68160, Note_on_c, 0, 76, 95
2, 68160, Note_on_c, 0, 71, 95
2, 68160, Note_on_c, 0, 67, 95
2, 68160, Note_on_c, 0, 64, 95
2, 68800, Note_off_c, 0, 76, 95
2, 68800, Note_off_c, 0, 71, 95
2, 68800, Note_off_c, 0, 67, 95
2, 68800, Note_off_c, 0, 64, 95
2, 68800, Note_on_c, 0, 76, 95
2, 68800, Note_on_c, 0, 71, 95
2, 68800, Note_on_c, 0, 67, 95
2, 68800, Note_on_c, 0, 64, 95
2, 69120, Note_off_c, 0, 76, 95
2, 69120, Note_off_c, 0, 71, 95
2, 69120, Note_off_c, 0, 67, 95
2, 69120, Note_off_c, 0, 64, 95
2, 69120, Note_on_c, 0, 64, 95
2, 69120, Note_on_c, 0, 59, 95
2, 69120, Note_on_c, 0, 55, 95
2, 69120, Note_on_c, 0, 50, 95
2, 69192, Note_off_c, 0, 64, 95
2, 69192, Note_off_c, 0, 59, 95
2, 69192, Note_off_c, 0, 55, 95
2, 69192, Note_off_c, 0, 50, 95
2, 69760, Note_on_c, 0, 64, 95
2, 69760, Note_on_c, 0, 59, 95
2, 69760, Note_on_c, 0, 55, 95
2, 69760, Note_on_c, 0, 50, 95
2, 69832, Note_off_c, 0, 64, 95
2, 69832, Note_off_c, 0, 59, 95
2, 69832, Note_off_c, 0, 55, 95
2, 69832, Note_off_c, 0, 50, 95
2, 70080, Note_on_c, 0, 76, 95
2, 70080, Note_on_c, 0, 71, 95
2, 70080, Note_on_c, 0, 67, 95
2, 70080, Note_on_c, 0, 64, 95
2, 70720, Note_off_c, 0, 76, 95
2, 70720, Note_off_c, 0, 71, 95
2, 70720, Note_off_c, 0, 67, 95
2, 70720, Note_off_c, 0, 64, 95
2, 70720, Note_on_c, 0, 76, 95
2, 70720, Note_on_c, 0, 71, 95
2, 70720, Note_on_c, 0, 67, 95
2, 70720, Note_on_c, 0, 64, 95
2, 71040, Note_off_c, 0, 76, 95
2, 71040, Note_off_c, 0, 71, 95
2, 71040, Note_off_c, 0, 67, 95
2, 71040, Note_off_c, 0, 64, 95
2, 71040, Note_on_c, 0, 64, 95
2, 71040, Note_on_c, 0, 59, 95
2, 71040, Note_on_c, 0, 55, 95
2, 71040, Note_on_c, 0, 50, 95
2, 71040, Note_on_c, 0, 45, 95
2, 71112, Note_off_c, 0, 64, 95
2, 71112, Note_off_c, 0, 59, 95
2, 71112, Note_off_c, 0, 55, 95
2, 71112, Note_off_c, 0, 50, 95
2, 71112, Note_off_c, 0, 45, 95
2, 71680, Note_on_c, 0, 64, 95
2, 71680, Note_on_c, 0, 59, 95
2, 71680, Note_on_c, 0, 55, 95
2, 71680, Note_on_c, 0, 50, 95
2, 71752, Note_off_c, 0, 64, 95
2, 71752, Note_off_c, 0, 59, 95
2, 71752, Note_off_c, 0, 55, 95
2, 71752, Note_off_c, 0, 50, 95
2, 72000, Note_on_c, 0, 76, 95
2, 72000, Note_on_c, 0, 71, 95
2, 72000, Note_on_c, 0, 67, 95
2, 72000, Note_on_c, 0, 64, 95
2, 72640, Note_off_c, 0, 76, 95
2, 72640, Note_off_c, 0, 71, 95
2, 72640, Note_off_c, 0, 67, 95
2, 72640, Note_off_c, 0, 64, 95
2, 72640, Note_on_c, 0, 76, 95
2, 72640, Note_on_c, 0, 71, 95
2, 72640, Note_on_c, 0, 67, 95
2, 72640, Note_on_c, 0, 64, 95
2, 72960, Note_off_c, 0, 76, 95
2, 72960, Note_off_c, 0, 71, 95
2, 72960, Note_off_c, 0, 67, 95
2, 72960, Note_off_c, 0, 64, 95
2, 72960, Note_on_c, 0, 64, 95
2, 72960, Note_on_c, 0, 59, 95
2, 72960, Note_on_c, 0, 55, 95
2, 72960, Note_on_c, 0, 50, 95
2, 73032, Note_off_c, 0, 64, 95
2, 73032, Note_off_c, 0, 59, 95
2, 73032, Note_off_c, 0, 55, 95
2, 73032, Note_off_c, 0, 50, 95
2, 73600, Note_on_c, 0, 64, 95
2, 73600, Note_on_c, 0, 59, 95
2, 73600, Note_on_c, 0, 55, 95
2, 73600, Note_on_c, 0, 50, 95
2, 73672, Note_off_c, 0, 64, 95
2, 73672, Note_off_c, 0, 59, 95
2, 73672, Note_off_c, 0, 55, 95
2, 73672, Note_off_c, 0, 50, 95
2, 73920, Note_on_c, 0, 74, 95
2, 73920, Note_on_c, 0, 67, 95
2, 73920, Note_on_c, 0, 62, 95
2, 74560, Note_off_c, 0, 74, 95
2, 74560, Note_off_c, 0, 67, 95
2, 74560, Note_off_c, 0, 62, 95
2, 74560, Note_on_c, 0, 74, 95
2, 74560, Note_on_c, 0, 67, 95
2, 74560, Note_on_c, 0, 62, 95
2, 74880, Note_off_c, 0, 74, 95
2, 74880, Note_off_c, 0, 67, 95
2, 74880, Note_off_c, 0, 62, 95
2, 74880, Note_on_c, 0, 64, 95
2, 74880, Note_on_c, 0, 59, 95
2, 74880, Note_on_c, 0, 55, 95
2, 74880, Note_on_c, 0, 50, 95
2, 74952, Note_off_c, 0, 64, 95
2, 74952, Note_off_c, 0, 59, 95
2, 74952, Note_off_c, 0, 55, 95
2, 74952, Note_off_c, 0, 50, 95
2, 75520, Note_on_c, 0, 74, 95
2, 75520, Note_on_c, 0, 67, 95
2, 75520, Note_on_c, 0, 62, 95
2, 75840, Note_off_c, 0, 74, 95
2, 75840, Note_off_c, 0, 67, 95
2, 75840, Note_off_c, 0, 62, 95
2, 75840, Note_on_c, 0, 74, 95
2, 75840, Note_on_c, 0, 67, 95
2, 75840, Note_on_c, 0, 62, 95
2, 76800, Note_off_c, 0, 74, 95
2, 76800, Note_off_c, 0, 67, 95
2, 76800, Note_off_c, 0, 62, 95
2, 76800, Note_on_c, 0, 71, 95
2, 76800, Note_on_c, 0, 67, 95
2, 76800, Note_on_c, 0, 64, 95
2, 76800, Note_on_c, 0, 59, 95
2, 76800, Note_on_c, 0, 52, 95
2, 77760, Note_off_c, 0, 71, 95
2, 77760, Note_off_c, 0, 67, 95
2, 77760, Note_off_c, 0, 64, 95
2, 77760, Note_off_c, 0, 59, 95
2, 77760, Note_off_c, 0, 52, 95
2, 77760, Note_on_c, 0, 71, 95
2, 77760, Note_on_c, 0, 67, 95
2, 77760, Note_on_c, 0, 64, 95
2, 77760, Note_on_c, 0, 59, 95
2, 77760, Note_on_c, 0, 52, 95
2, 78720, Note_off_c, 0, 71, 95
2, 78720, Note_off_c, 0, 67, 95
2, 78720, Note_off_c, 0, 64, 95
2, 78720, Note_off_c, 0, 59, 95
2, 78720, Note_off_c, 0, 52, 95
2, 78720, Note_on_c, 0, 71, 95
2, 78720, Note_on_c, 0, 67, 95
2, 78720, Note_on_c, 0, 64, 95
2, 78720, Note_on_c, 0, 59, 95
2, 78720, Note_on_c, 0, 52, 95
2, 79680, Note_off_c, 0, 71, 95
2, 79680, Note_off_c, 0, 67, 95
2, 79680, Note_off_c, 0, 64, 95
2, 79680, Note_off_c, 0, 59, 95
2, 79680, Note_off_c, 0, 52, 95
2, 79680, Note_on_c, 0, 71, 95
2, 79680, Note_on_c, 0, 67, 95
2, 79680, Note_on_c, 0, 64, 95
2, 79680, Note_on_c, 0, 59, 95
2, 79680, Note_on_c, 0, 52, 95
2, 80640, Note_off_c, 0, 71, 95
2, 80640, Note_off_c, 0, 67, 95
2, 80640, Note_off_c, 0, 64, 95
2, 80640, Note_off_c, 0, 59, 95
2, 80640, Note_off_c, 0, 52, 95
2, 80640, Note_on_c, 0, 71, 95
2, 80640, Note_on_c, 0, 67, 95
2, 80640, Note_on_c, 0, 64, 95
2, 80640, Note_on_c, 0, 59, 95
2, 80640, Note_on_c, 0, 52, 95
2, 81600, Note_off_c, 0, 71, 95
2, 81600, Note_off_c, 0, 67, 95
2, 81600, Note_off_c, 0, 64, 95
2, 81600, Note_off_c, 0, 59, 95
2, 81600, Note_off_c, 0, 52, 95
2, 81600, Note_on_c, 0, 71, 95
2, 81600, Note_on_c, 0, 67, 95
2, 81600, Note_on_c, 0, 64, 95
2, 81600, Note_on_c, 0, 59, 95
2, 81600, Note_on_c, 0, 52, 95
2, 82560, Note_off_c, 0, 71, 95
2, 82560, Note_off_c, 0, 67, 95
2, 82560, Note_off_c, 0, 64, 95
2, 82560, Note_off_c, 0, 59, 95
2, 82560, Note_off_c, 0, 52, 95
2, 82560, Note_on_c, 0, 71, 95
2, 82560, Note_on_c, 0, 67, 95
2, 82560, Note_on_c, 0, 64, 95
2, 82560, Note_on_c, 0, 59, 95
2, 82560, Note_on_c, 0, 52, 95
2, 83520, Note_off_c, 0, 71, 95
2, 83520, Note_off_c, 0, 67, 95
2, 83520, Note_off_c, 0, 64, 95
2, 83520, Note_off_c, 0, 59, 95
2, 83520, Note_off_c, 0, 52, 95
2, 83520, Note_on_c, 0, 71, 95
2, 83520, Note_on_c, 0, 67, 95
2, 83520, Note_on_c, 0, 64, 95
2, 83520, Note_on_c, 0, 59, 95
2, 83520, Note_on_c, 0, 52, 95
2, 84480, Note_off_c, 0, 71, 95
2, 84480, Note_off_c, 0, 67, 95
2, 84480, Note_off_c, 0, 64, 95
2, 84480, Note_off_c, 0, 59, 95
2, 84480, Note_off_c, 0, 52, 95
2, 84480, Note_on_c, 0, 71, 95
2, 84480, Note_on_c, 0, 67, 95
2, 84480, Note_on_c, 0, 64, 95
2, 84480, Note_on_c, 0, 59, 95
2, 84480, Note_on_c, 0, 52, 95
2, 85440, Note_off_c, 0, 71, 95
2, 85440, Note_off_c, 0, 67, 95
2, 85440, Note_off_c, 0, 64, 95
2, 85440, Note_off_c, 0, 59, 95
2, 85440, Note_off_c, 0, 52, 95
2, 85440, Note_on_c, 0, 71, 95
2, 85440, Note_on_c, 0, 67, 95
2, 85440, Note_on_c, 0, 64, 95
2, 85440, Note_on_c, 0, 59, 95
2, 85440, Note_on_c, 0, 52, 95
2, 86400, Note_off_c, 0, 71, 95
2, 86400, Note_off_c, 0, 67, 95
2, 86400, Note_off_c, 0, 64, 95
2, 86400, Note_off_c, 0, 59, 95
2, 86400, Note_off_c, 0, 52, 95
2, 86400, Note_on_c, 0, 71, 95
2, 86400, Note_on_c, 0, 67, 95
2, 86400, Note_on_c, 0, 64, 95
2, 86400, Note_on_c, 0, 59, 95
2, 86400, Note_on_c, 0, 52, 95
2, 87360, Note_off_c, 0, 71, 95
2, 87360, Note_off_c, 0, 67, 95
2, 87360, Note_off_c, 0, 64, 95
2, 87360, Note_off_c, 0, 59, 95
2, 87360, Note_off_c, 0, 52, 95
2, 87360, Note_on_c, 0, 71, 95
2, 87360, Note_on_c, 0, 67, 95
2, 87360, Note_on_c, 0, 64, 95
2, 87360, Note_on_c, 0, 59, 95
2, 87360, Note_on_c, 0, 52, 95
2, 88320, Note_off_c, 0, 71, 95
2, 88320, Note_off_c, 0, 67, 95
2, 88320, Note_off_c, 0, 64, 95
2, 88320, Note_off_c, 0, 59, 95
2, 88320, Note_off_c, 0, 52, 95
2, 88320, Note_on_c, 0, 71, 95
2, 88320, Note_on_c, 0, 67, 95
2, 88320, Note_on_c, 0, 62, 95
2, 88320, Note_on_c, 0, 55, 95
2, 89280, Note_off_c, 0, 71, 95
2, 89280, Note_off_c, 0, 67, 95
2, 89280, Note_off_c, 0, 62, 95
2, 89280, Note_off_c, 0, 55, 95
2, 89280, Note_on_c, 0, 71, 95
2, 89280, Note_on_c, 0, 67, 95
2, 89280, Note_on_c, 0, 62, 95
2, 89280, Note_on_c, 0, 55, 95
2, 90240, Note_off_c, 0, 71, 95
2, 90240, Note_off_c, 0, 67, 95
2, 90240, Note_off_c, 0, 62, 95
2, 90240, Note_off_c, 0, 55, 95
2, 90240, Note_on_c, 0, 71, 95
2, 90240, Note_on_c, 0, 67, 95
2, 90240, Note_on_c, 0, 62, 95
2, 90240, Note_on_c, 0, 55, 95
2, 91200, Note_off_c, 0, 71, 95
2, 91200, Note_off_c, 0, 67, 95
2, 91200, Note_off_c, 0, 62, 95
2, 91200, Note_off_c, 0, 55, 95
2, 91200, Note_on_c, 0, 71, 95
2, 91200, Note_on_c, 0, 67, 95
2, 91200, Note_on_c, 0, 62, 95
2, 91200, Note_on_c, 0, 55, 95
2, 92160, Note_off_c, 0, 71, 95
2, 92160, Note_off_c, 0, 67, 95
2, 92160, Note_off_c, 0, 62, 95
2, 92160, Note_off_c, 0, 55, 95
2, 92160, Note_on_c, 0, 71, 95
2, 92160, Note_on_c, 0, 67, 95
2, 92160, Note_on_c, 0, 64, 95
2, 92160, Note_on_c, 0, 59, 95
2, 92160, Note_on_c, 0, 52, 95
2, 93120, Note_off_c, 0, 71, 95
2, 93120, Note_off_c, 0, 67, 95
2, 93120, Note_off_c, 0, 64, 95
2, 93120, Note_off_c, 0, 59, 95
2, 93120, Note_off_c, 0, 52, 95
2, 93120, Note_on_c, 0, 71, 95
2, 93120, Note_on_c, 0, 67, 95
2, 93120, Note_on_c, 0, 64, 95
2, 93120, Note_on_c, 0, 59, 95
2, 93120, Note_on_c, 0, 52, 95
2, 94080, Note_off_c, 0, 71, 95
2, 94080, Note_off_c, 0, 67, 95
2, 94080, Note_off_c, 0, 64, 95
2, 94080, Note_off_c, 0, 59, 95
2, 94080, Note_off_c, 0, 52, 95
2, 94080, Note_on_c, 0, 71, 95
2, 94080, Note_on_c, 0, 67, 95
2, 94080, Note_on_c, 0, 64, 95
2, 94080, Note_on_c, 0, 59, 95
2, 94080, Note_on_c, 0, 52, 95
2, 95040, Note_off_c, 0, 71, 95
2, 95040, Note_off_c, 0, 67, 95
2, 95040, Note_off_c, 0, 64, 95
2, 95040, Note_off_c, 0, 59, 95
2, 95040, Note_off_c, 0, 52, 95
2, 95040, Note_on_c, 0, 71, 95
2, 95040, Note_on_c, 0, 67, 95
2, 95040, Note_on_c, 0, 64, 95
2, 95040, Note_on_c, 0, 59, 95
2, 95040, Note_on_c, 0, 52, 95
2, 96000, Note_off_c, 0, 71, 95
2, 96000, Note_off_c, 0, 67, 95
2, 96000, Note_off_c, 0, 64, 95
2, 96000, Note_off_c, 0, 59, 95
2, 96000, Note_off_c, 0, 52, 95
2, 96000, Note_on_c, 0, 71, 95
2, 96000, Note_on_c, 0, 67, 95
2, 96000, Note_on_c, 0, 64, 95
2, 96000, Note_on_c, 0, 59, 95
2, 96000, Note_on_c, 0, 52, 95
2, 96960, Note_off_c, 0, 71, 95
2, 96960, Note_off_c, 0, 67, 95
2, 96960, Note_off_c, 0, 64, 95
2, 96960, Note_off_c, 0, 59, 95
2, 96960, Note_off_c, 0, 52, 95
2, 96960, Note_on_c, 0, 71, 95
2, 96960, Note_on_c, 0, 67, 95
2, 96960, Note_on_c, 0, 64, 95
2, 96960, Note_on_c, 0, 59, 95
2, 96960, Note_on_c, 0, 52, 95
2, 97920, Note_off_c, 0, 71, 95
2, 97920, Note_off_c, 0, 67, 95
2, 97920, Note_off_c, 0, 64, 95
2, 97920, Note_off_c, 0, 59, 95
2, 97920, Note_off_c, 0, 52, 95
2, 97920, Note_on_c, 0, 71, 95
2, 97920, Note_on_c, 0, 67, 95
2, 97920, Note_on_c, 0, 64, 95
2, 97920, Note_on_c, 0, 59, 95
2, 97920, Note_on_c, 0, 52, 95
2, 98880, Note_off_c, 0, 71, 95
2, 98880, Note_off_c, 0, 67, 95
2, 98880, Note_off_c, 0, 64, 95
2, 98880, Note_off_c, 0, 59, 95
2, 98880, Note_off_c, 0, 52, 95
2, 98880, Note_on_c, 0, 71, 95
2, 98880, Note_on_c, 0, 67, 95
2, 98880, Note_on_c, 0, 64, 95
2, 98880, Note_on_c, 0, 59, 95
2, 98880, Note_on_c, 0, 52, 95
2, 99840, Note_off_c, 0, 71, 95
2, 99840, Note_off_c, 0, 67, 95
2, 99840, Note_off_c, 0, 64, 95
2, 99840, Note_off_c, 0, 59, 95
2, 99840, Note_off_c, 0, 52, 95
2, 99840, Note_on_c, 0, 71, 95
2, 99840, Note_on_c, 0, 67, 95
2, 99840, Note_on_c, 0, 64, 95
2, 99840, Note_on_c, 0, 59, 95
2, 99840, Note_on_c, 0, 52, 95
2, 100800, Note_off_c, 0, 71, 95
2, 100800, Note_off_c, 0, 67, 95
2, 100800, Note_off_c, 0, 64, 95
2, 100800, Note_off_c, 0, 59, 95
2, 100800, Note_off_c, 0, 52, 95
2, 100800, Note_on_c, 0, 71, 95
2, 100800, Note_on_c, 0, 67, 95
2, 100800, Note_on_c, 0, 64, 95
2, 100800, Note_on_c, 0, 59, 95
2, 100800, Note_on_c, 0, 52, 95
2, 101760, Note_off_c, 0, 71, 95
2, 101760, Note_off_c, 0, 67, 95
2, 101760, Note_off_c, 0, 64, 95
2, 101760, Note_off_c, 0, 59, 95
2, 101760, Note_off_c, 0, 52, 95
2, 101760, Note_on_c, 0, 71, 95
2, 101760, Note_on_c, 0, 67, 95
2, 101760, Note_on_c, 0, 64, 95
2, 101760, Note_on_c, 0, 59, 95
2, 101760, Note_on_c, 0, 52, 95
2, 102720, Note_off_c, 0, 71, 95
2, 102720, Note_off_c, 0, 67, 95
2, 102720, Note_off_c, 0, 64, 95
2, 102720, Note_off_c, 0, 59, 95
2, 102720, Note_off_c, 0, 52, 95
2, 102720, Note_on_c, 0, 71, 95
2, 102720, Note_on_c, 0, 67, 95
2, 102720, Note_on_c, 0, 64, 95
2, 102720, Note_on_c, 0, 59, 95
2, 102720, Note_on_c, 0, 52, 95
2, 103680, Note_off_c, 0, 71, 95
2, 103680, Note_off_c, 0, 67, 95
2, 103680, Note_off_c, 0, 64, 95
2, 103680, Note_off_c, 0, 59, 95
2, 103680, Note_off_c, 0, 52, 95
2, 103680, Note_on_c, 0, 71, 95
2, 103680, Note_on_c, 0, 67, 95
2, 103680, Note_on_c, 0, 62, 95
2, 103680, Note_on_c, 0, 55, 95
2, 104640, Note_off_c, 0, 71, 95
2, 104640, Note_off_c, 0, 67, 95
2, 104640, Note_off_c, 0, 62, 95
2, 104640, Note_off_c, 0, 55, 95
2, 104640, Note_on_c, 0, 71, 95
2, 104640, Note_on_c, 0, 67, 95
2, 104640, Note_on_c, 0, 62, 95
2, 104640, Note_on_c, 0, 55, 95
2, 105600, Note_off_c, 0, 71, 95
2, 105600, Note_off_c, 0, 67, 95
2, 105600, Note_off_c, 0, 62, 95
2, 105600, Note_off_c, 0, 55, 95
2, 105600, Note_on_c, 0, 71, 95
2, 105600, Note_on_c, 0, 67, 95
2, 105600, Note_on_c, 0, 62, 95
2, 105600, Note_on_c, 0, 55, 95
2, 106560, Note_off_c, 0, 71, 95
2, 106560, Note_off_c, 0, 67, 95
2, 106560, Note_off_c, 0, 62, 95
2, 106560, Note_off_c, 0, 55, 95
2, 106560, Note_on_c, 1, 71, 95
2, 106560, Note_on_c, 1, 67, 95
2, 106560, Note_on_c, 1, 62, 95
2, 106560, Note_on_c, 1, 55, 95
2, 106680, Pitch_bend_c, 1, 7168
2, 106680, Pitch_bend_c, 1, 7168
2, 106680, Pitch_bend_c, 1, 7168
2, 106680, Pitch_bend_c, 1, 7424
2, 106800, Pitch_bend_c, 1, 6144
2, 106800, Pitch_bend_c, 1, 6144
2, 106800, Pitch_bend_c, 1, 6144
2, 106800, Pitch_bend_c, 1, 6528
2, 106920, Pitch_bend_c, 1, 5120
2, 106920, Pitch_bend_c, 1, 5120
2, 106920, Pitch_bend_c, 1, 5120
2, 106920, Pitch_bend_c, 1, 5632
2, 107040, Pitch_bend_c, 1, 3968
2, 107040, Pitch_bend_c, 1, 3968
2, 107040, Pitch_bend_c, 1, 3968
2, 107040, Pitch_bend_c, 1, 4736
2, 107160, Pitch_bend_c, 1, 2944
2, 107160, Pitch_bend_c, 1, 2944
2, 107160, Pitch_bend_c, 1, 2944
2, 107160, Pitch_bend_c, 1, 3840
2, 107280, Pitch_bend_c, 1, 1920
2, 107280, Pitch_bend_c, 1, 1920
2, 107280, Pitch_bend_c, 1, 1920
2, 107280, Pitch_bend_c, 1, 2944
2, 107400, Pitch_bend_c, 1, 896
2, 107400, Pitch_bend_c, 1, 896
2, 107400, Pitch_bend_c, 1, 896
2, 107400, Pitch_bend_c, 1, 2048
2, 107520, Pitch_bend_c, 1, 0
2, 107520, Pitch_bend_c, 1, 8192
2, 107520, Note_off_c, 1, 71, 95
2, 107520, Pitch_bend_c, 1, 0
2, 107520, Pitch_bend_c, 1, 8192
2, 107520, Note_off_c, 1, 67, 95
2, 107520, Pitch_bend_c, 1, 0
2, 107520, Pitch_bend_c, 1, 8192
2, 107520, Note_off_c, 1, 62, 95
2, 107520, Pitch_bend_c, 1, 1152
2, 107520, Pitch_bend_c, 1, 8192
2, 107520, Note_off_c, 1, 55, 95
2, 107520, Note_on_c, 0, 64, 95
2, 107520, Note_on_c, 0, 59, 95
2, 107520, Note_on_c, 0, 55, 95
2, 107520, Note_on_c, 0, 50, 95
2, 107520, Note_on_c, 0, 45, 95
2, 107592, Note_off_c, 0, 64, 95
2, 107592, Note_off_c, 0, 59, 95
2, 107592, Note_off_c, 0, 55, 95
2, 107592, Note_off_c, 0, 50, 95
2, 107592, Note_off_c, 0, 45, 95
2, 108160, Note_on_c, 0, 64, 95
2, 108160, Note_on_c, 0, 59, 95
2, 108160, Note_on_c, 0, 55, 95
2, 108160, Note_on_c, 0, 50, 95
2, 108160, Note_on_c, 0, 45, 95
2, 108232, Note_off_c, 0, 64, 95
2, 108232, Note_off_c, 0, 59, 95
2, 108232, Note_off_c, 0, 55, 95
2, 108232, Note_off_c, 0, 50, 95
2, 108232, Note_off_c, 0, 45, 95
2, 108480, Note_on_c, 0, 71, 95
2, 108480, Note_on_c, 0, 67, 95
2, 108480, Note_on_c, 0, 64, 95
2, 108480, Note_on_c, 0, 59, 95
2, 108480, Note_on_c, 0, 52, 95
2, 109120, Note_off_c, 0, 71, 95
2, 109120, Note_off_c, 0, 67, 95
2, 109120, Note_off_c, 0, 64, 95
2, 109120, Note_off_c, 0, 59, 95
2, 109120, Note_off_c, 0, 52, 95
2, 109120, Note_on_c, 0, 71, 95
2, 109120, Note_on_c, 0, 67, 95
2, 109120, Note_on_c, 0, 64, 95
2, 109120, Note_on_c, 0, 59, 95
2, 109120, Note_on_c, 0, 52, 95
2, 109440, Note_off_c, 0, 71, 95
2, 109440, Note_off_c, 0, 67, 95
2, 109440, Note_off_c, 0, 64, 95
2, 109440, Note_off_c, 0, 59, 95
2, 109440, Note_off_c, 0, 52, 95
2, 109440, Note_on_c, 0, 64, 95
2, 109440, Note_on_c, 0, 59, 95
2, 109440, Note_on_c, 0, 55, 95
2, 109440, Note_on_c, 0, 50, 95
2, 109440, Note_on_c, 0, 45, 95
2, 109512, Note_off_c, 0, 64, 95
2, 109512, Note_off_c, 0, 59, 95
2, 109512, Note_off_c, 0, 55, 95
2, 109512, Note_off_c, 0, 50, 95
2, 109512, Note_off_c, 0, 45, 95
2, 110080, Note_on_c, 0, 64, 95
2, 110080, Note_on_c, 0, 59, 95
2, 110080, Note_on_c, 0, 55, 95
2, 110080, Note_on_c, 0, 50, 95
2, 110080, Note_on_c, 0, 45, 95
2, 110152, Note_off_c, 0, 64, 95
2, 110152, Note_off_c, 0, 59, 95
2, 110152, Note_off_c, 0, 55, 95
2, 110152, Note_off_c, 0, 50, 95
2, 110152, Note_off_c, 0, 45, 95
2, 110400, Note_on_c, 0, 71, 95
2, 110400, Note_on_c, 0, 67, 95
2, 110400, Note_on_c, 0, 64, 95
2, 110400, Note_on_c, 0, 59, 95
2, 110400, Note_on_c, 0, 52, 95
2, 111040, Note_off_c, 0, 71, 95
2, 111040, Note_off_c, 0, 67, 95
2, 111040, Note_off_c, 0, 64, 95
2, 111040, Note_off_c, 0, 59, 95
2, 111040, Note_off_c, 0, 52, 95
2, 111040, Note_on_c, 0, 71, 95
2, 111040, Note_on_c, 0, 67, 95
2, 111040, Note_on_c, 0, 64, 95
2, 111040, Note_on_c, 0, 59, 95
2, 111040, Note_on_c, 0, 52, 95
2, 111360, Note_off_c, 0, 71, 95
2, 111360, Note_off_c, 0, 67, 95
2, 111360, Note_off_c, 0, 64, 95
2, 111360, Note_off_c, 0, 59, 95
2, 111360, Note_off_c, 0, 52, 95
2, 111360, Note_on_c, 0, 64, 95
2, 111360, Note_on_c, 0, 59, 95
2, 111360, Note_on_c, 0, 55, 95
2, 111360, Note_on_c, 0, 50, 95
2, 111360, Note_on_c, 0, 45, 95
2, 111432, Note_off_c, 0, 64, 95
2, 111432, Note_off_c, 0, 59, 95
2, 111432, Note_off_c, 0, 55, 95
2, 111432, Note_off_c, 0, 50, 95
2, 111432, Note_off_c, 0, 45, 95
2, 112000, Note_on_c, 0, 64, 95
2, 112000, Note_on_c, 0, 59, 95
2, 112000, Note_on_c, 0, 55, 95
2, 112000, Note_on_c, 0, 50, 95
2, 112000, Note_on_c, 0, 45, 95
2, 112072, Note_off_c, 0, 64, 95
2, 112072, Note_off_c, 0, 59, 95
2, 112072, Note_off_c, 0, 55, 95
2, 112072, Note_off_c, 0, 50, 95
2, 112072, Note_off_c, 0, 45, 95
2, 112320, Note_on_c, 0, 71, 95
2, 112320, Note_on_c, 0, 67, 95
2, 112320, Note_on_c, 0, 62, 95
2, 112320, Note_on_c, 0, 55, 95
2, 112960, Note_off_c, 0, 71, 95
2, 112960, Note_off_c, 0, 67, 95
2, 112960, Note_off_c, 0, 62, 95
2, 112960, Note_off_c, 0, 55, 95
2, 112960, Note_on_c, 0, 71, 95
2, 112960, Note_on_c, 0, 67, 95
2, 112960, Note_on_c, 0, 62, 95
2, 112960, Note_on_c, 0, 55, 95
2, 113280, Note_off_c, 0, 71, 95
2, 113280, Note_off_c, 0, 67, 95
2, 113280, Note_off_c, 0, 62, 95
2, 113280, Note_off_c, 0, 55, 95
2, 113280, Note_on_c, 0, 64, 95
2, 113280, Note_on_c, 0, 59, 95
2, 113280, Note_on_c, 0, 55, 95
2, 113280, Note_on_c, 0, 50, 95
2, 113280, Note_on_c, 0, 45, 95
2, 113352, Note_off_c, 0, 64, 95
2, 113352, Note_off_c, 0, 59, 95
2, 113352, Note_off_c, 0, 55, 95
2, 113352, Note_off_c, 0, 50, 95
2, 113352, Note_off_c, 0, 45, 95
2, 113920, Note_on_c, 0, 64, 95
2, 113920, Note_on_c, 0, 59, 95
2, 113920, Note_on_c, 0, 55, 95
2, 113920, Note_on_c, 0, 50, 95
2, 113920, Note_on_c, 0, 45, 95
2, 113992, Note_off_c, 0, 64, 95
2, 113992, Note_off_c, 0, 59, 95
2, 113992, Note_off_c, 0, 55, 95
2, 113992, Note_off_c, 0, 50, 95
2, 113992, Note_off_c, 0, 45, 95
2, 114240, Note_on_c, 0, 71, 95
2, 114240, Note_on_c, 0, 67, 95
2, 114240, Note_on_c, 0, 62, 95
2, 114240, Note_on_c, 0, 55, 95
2, 114880, Note_off_c, 0, 71, 95
2, 114880, Note_off_c, 0, 67, 95
2, 114880, Note_off_c, 0, 62, 95
2, 114880, Note_off_c, 0, 55, 95
2, 114880, Note_on_c, 0, 71, 95
2, 114880, Note_on_c, 0, 67, 95
2, 114880, Note_on_c, 0, 62, 95
2, 114880, Note_on_c, 0, 55, 95
2, 115200, Note_off_c, 0, 71, 95
2, 115200, Note_off_c, 0, 67, 95
2, 115200, Note_off_c, 0, 62, 95
2, 115200, Note_off_c, 0, 55, 95
2, 115200, Note_on_c, 0, 64, 95
2, 115200, Note_on_c, 0, 59, 95
2, 115200, Note_on_c, 0, 55, 95
2, 115200, Note_on_c, 0, 50, 95
2, 115200, Note_on_c, 0, 45, 95
2, 115272, Note_off_c, 0, 64, 95
2, 115272, Note_off_c, 0, 59, 95
2, 115272, Note_off_c, 0, 55, 95
2, 115272, Note_off_c, 0, 50, 95
2, 115272, Note_off_c, 0, 45, 95
2, 115840, Note_on_c, 0, 64, 95
2, 115840, Note_on_c, 0, 59, 95
2, 115840, Note_on_c, 0, 55, 95
2, 115840, Note_on_c, 0, 50, 95
2, 115840, Note_on_c, 0, 45, 95
2, 115912, Note_off_c, 0, 64, 95
2, 115912, Note_off_c, 0, 59, 95
2, 115912, Note_off_c, 0, 55, 95
2, 115912, Note_off_c, 0, 50, 95
2, 115912, Note_off_c, 0, 45, 95
2, 116160, Note_on_c, 0, 71, 95
2, 116160, Note_on_c, 0, 68, 95
2, 116160, Note_on_c, 0, 64, 95
2, 116160, Note_on_c, 0, 59, 95
2, 116160, Note_on_c, 0, 52, 95
2, 116800, Note_off_c, 0, 71, 95
2, 116800, Note_off_c, 0, 68, 95
2, 116800, Note_off_c, 0, 64, 95
2, 116800, Note_off_c, 0, 59, 95
2, 116800, Note_off_c, 0, 52, 95
2, 116800, Note_on_c, 0, 71, 95
2, 116800, Note_on_c, 0, 68, 95
2, 116800, Note_on_c, 0, 64, 95
2, 116800, Note_on_c, 0, 59, 95
2, 116800, Note_on_c, 0, 52, 95
2, 117120, Note_off_c, 0, 71, 95
2, 117120, Note_off_c, 0, 68, 95
2, 117120, Note_off_c, 0, 64, 95
2, 117120, Note_off_c, 0, 59, 95
2, 117120, Note_off_c, 0, 52, 95
2, 117120, Note_on_c, 0, 64, 95
2, 117120, Note_on_c, 0, 59, 95
2, 117120, Note_on_c, 0, 55, 95
2, 117120, Note_on_c, 0, 50, 95
2, 117120, Note_on_c, 0, 45, 95
2, 117192, Note_off_c, 0, 64, 95
2, 117192, Note_off_c, 0, 59, 95
2, 117192, Note_off_c, 0, 55, 95
2, 117192, Note_off_c, 0, 50, 95
2, 117192, Note_off_c, 0, 45, 95
2, 117760, Note_on_c, 0, 64, 95
2, 117760, Note_on_c, 0, 59, 95
2, 117760, Note_on_c, 0, 55, 95
2, 117760, Note_on_c, 0, 50, 95
2, 117760, Note_on_c, 0, 45, 95
2, 117832, Note_off_c, 0, 64, 95
2, 117832, Note_off_c, 0, 59, 95
2, 117832, Note_off_c, 0, 55, 95
2, 117832, Note_off_c, 0, 50, 95
2, 117832, Note_off_c, 0, 45, 95
2, 118080, Note_on_c, 0, 71, 95
2, 118080, Note_on_c, 0, 68, 95
2, 118080, Note_on_c, 0, 64, 95
2, 118080, Note_on_c, 0, 59, 95
2, 118080, Note_on_c, 0, 52, 95
2, 118720, Note_off_c, 0, 71, 95
2, 118720, Note_off_c, 0, 68, 95
2, 118720, Note_off_c, 0, 64, 95
2, 118720, Note_off_c, 0, 59, 95
2, 118720, Note_off_c, 0, 52, 95
2, 118720, Note_on_c, 0, 71, 95
2, 118720, Note_on_c, 0, 68, 95
2, 118720, Note_on_c, 0, 64, 95
2, 118720, Note_on_c, 0, 59, 95
2, 118720, Note_on_c, 0, 52, 95
2, 119040, Note_off_c, 0, 71, 95
2, 119040, Note_off_c, 0, 68, 95
2, 119040, Note_off_c, 0, 64, 95
2, 119040, Note_off_c, 0, 59, 95
2, 119040, Note_off_c, 0, 52, 95
2, 119040, Note_on_c, 0, 64, 95
2, 119040, Note_on_c, 0, 59, 95
2, 119040, Note_on_c, 0, 55, 95
2, 119040, Note_on_c, 0, 50, 95
2, 119040, Note_on_c, 0, 45, 95
2, 119112, Note_off_c, 0, 64, 95
2, 119112, Note_off_c, 0, 59, 95
2, 119112, Note_off_c, 0, 55, 95
2, 119112, Note_off_c, 0, 50, 95
2, 119112, Note_off_c, 0, 45, 95
2, 119680, Note_on_c, 0, 64, 95
2, 119680, Note_on_c, 0, 59, 95
2, 119680, Note_on_c, 0, 55, 95
2, 119680, Note_on_c, 0, 50, 95
2, 119680, Note_on_c, 0, 45, 95
2, 119752, Note_off_c, 0, 64, 95
2, 119752, Note_off_c, 0, 59, 95
2, 119752, Note_off_c, 0, 55, 95
2, 119752, Note_off_c, 0, 50, 95
2, 119752, Note_off_c, 0, 45, 95
2, 120000, Note_on_c, 0, 71, 95
2, 120000, Note_on_c, 0, 67, 95
2, 120000, Note_on_c, 0, 64, 95
2, 120000, Note_on_c, 0, 59, 95
2, 120000, Note_on_c, 0, 52, 95
2, 120640, Note_off_c, 0, 71, 95
2, 120640, Note_off_c, 0, 67, 95
2, 120640, Note_off_c, 0, 64, 95
2, 120640, Note_off_c, 0, 59, 95
2, 120640, Note_off_c, 0, 52, 95
2, 120640, Note_on_c, 0, 71, 95
2, 120640, Note_on_c, 0, 67, 95
2, 120640, Note_on_c, 0, 64, 95
2, 120640, Note_on_c, 0, 59, 95
2, 120640, Note_on_c, 0, 52, 95
2, 120960, Note_off_c, 0, 71, 95
2, 120960, Note_off_c, 0, 67, 95
2, 120960, Note_off_c, 0, 64, 95
2, 120960, Note_off_c, 0, 59, 95
2, 120960, Note_off_c, 0, 52, 95
2, 120960, Note_on_c, 0, 64, 95
2, 120960, Note_on_c, 0, 59, 95
2, 120960, Note_on_c, 0, 55, 95
2, 120960, Note_on_c, 0, 50, 95
2, 120960, Note_on_c, 0, 45, 95
2, 121032, Note_off_c, 0, 64, 95
2, 121032, Note_off_c, 0, 59, 95
2, 121032, Note_off_c, 0, 55, 95
2, 121032, Note_off_c, 0, 50, 95
2, 121032, Note_off_c, 0, 45, 95
2, 121600, Note_on_c, 0, 64, 95
2, 121600, Note_on_c, 0, 59, 95
2, 121600, Note_on_c, 0, 55, 95
2, 121600, Note_on_c, 0, 50, 95
2, 121600, Note_on_c, 0, 45, 95
2, 121672, Note_off_c, 0, 64, 95
2, 121672, Note_off_c, 0, 59, 95
2, 121672, Note_off_c, 0, 55, 95
2, 121672, Note_off_c, 0, 50, 95
2, 121672, Note_off_c, 0, 45, 95
2, 121920, Note_on_c, 0, 71, 95
2, 121920, Note_on_c, 0, 67, 95
2, 121920, Note_on_c, 0, 64, 95
2, 121920, Note_on_c, 0, 59, 95
2, 121920, Note_on_c, 0, 52, 95
2, 122560, Note_off_c, 0, 71, 95
2, 122560, Note_off_c, 0, 67, 95
2, 122560, Note_off_c, 0, 64, 95
2, 122560, Note_off_c, 0, 59, 95
2, 122560, Note_off_c, 0, 52, 95
2, 122560, Note_on_c, 0, 71, 95
2, 122560, Note_on_c, 0, 67, 95
2, 122560, Note_on_c, 0, 64, 95
2, 122560, Note_on_c, 0, 59, 95
2, 122560, Note_on_c, 0, 52, 95
2, 122880, Note_off_c, 0, 71, 95
2, 122880, Note_off_c, 0, 67, 95
2, 122880, Note_off_c, 0, 64, 95
2, 122880, Note_off_c, 0, 59, 95
2, 122880, Note_off_c, 0, 52, 95
2, 172800, Note_on_c, 0, 71, 95
2, 172800, Note_on_c, 0, 67, 95
2, 172800, Note_on_c, 0, 64, 95
2, 172800, Note_on_c, 0, 59, 95
2, 172800, Note_on_c, 0, 52, 95
2, 173760, Note_off_c, 0, 71, 95
2, 173760, Note_off_c, 0, 67, 95
2, 173760, Note_off_c, 0, 64, 95
2, 173760, Note_off_c, 0, 59, 95
2, 173760, Note_off_c, 0, 52, 95
2, 173760, Note_on_c, 0, 71, 95
2, 173760, Note_on_c, 0, 67, 95
2, 173760, Note_on_c, 0, 64, 95
2, 173760, Note_on_c, 0, 59, 95
2, 173760, Note_on_c, 0, 52, 95
2, 174720, Note_off_c, 0, 71, 95
2, 174720, Note_off_c, 0, 67, 95
2, 174720, Note_off_c, 0, 64, 95
2, 174720, Note_off_c, 0, 59, 95
2, 174720, Note_off_c, 0, 52, 95
2, 174720, Note_on_c, 0, 71, 95
2, 174720, Note_on_c, 0, 67, 95
2, 174720, Note_on_c, 0, 64, 95
2, 174720, Note_on_c, 0, 59, 95
2, 174720, Note_on_c, 0, 52, 95
2, 175680, Note_off_c, 0, 71, 95
2, 175680, Note_off_c, 0, 67, 95
2, 175680, Note_off_c, 0, 64, 95
2, 175680, Note_off_c, 0, 59, 95
2, 175680, Note_off_c, 0, 52, 95
2, 175680, Note_on_c, 0, 71, 95
2, 175680, Note_on_c, 0, 67, 95
2, 175680, Note_on_c, 0, 64, 95
2, 175680, Note_on_c, 0, 59, 95
2, 175680, Note_on_c, 0, 52, 95
2, 176640, Note_off_c, 0, 71, 95
2, 176640, Note_off_c, 0, 67, 95
2, 176640, Note_off_c, 0, 64, 95
2, 176640, Note_off_c, 0, 59, 95
2, 176640, Note_off_c, 0, 52, 95
2, 176640, Note_on_c, 0, 71, 95
2, 176640, Note_on_c, 0, 67, 95
2, 176640, Note_on_c, 0, 64, 95
2, 176640, Note_on_c, 0, 59, 95
2, 176640, Note_on_c, 0, 52, 95
2, 177600, Note_off_c, 0, 71, 95
2, 177600, Note_off_c, 0, 67, 95
2, 177600, Note_off_c, 0, 64, 95
2, 177600, Note_off_c, 0, 59, 95
2, 177600, Note_off_c, 0, 52, 95
2, 177600, Note_on_c, 0, 71, 95
2, 177600, Note_on_c, 0, 67, 95
2, 177600, Note_on_c, 0, 64, 95
2, 177600, Note_on_c, 0, 59, 95
2, 177600, Note_on_c, 0, 52, 95
2, 178560, Note_off_c, 0, 71, 95
2, 178560, Note_off_c, 0, 67, 95
2, 178560, Note_off_c, 0, 64, 95
2, 178560, Note_off_c, 0, 59, 95
2, 178560, Note_off_c, 0, 52, 95
2, 178560, Note_on_c, 0, 71, 95
2, 178560, Note_on_c, 0, 67, 95
2, 178560, Note_on_c, 0, 64, 95
2, 178560, Note_on_c, 0, 59, 95
2, 178560, Note_on_c, 0, 52, 95
2, 179520, Note_off_c, 0, 71, 95
2, 179520, Note_off_c, 0, 67, 95
2, 179520, Note_off_c, 0, 64, 95
2, 179520, Note_off_c, 0, 59, 95
2, 179520, Note_off_c, 0, 52, 95
2, 179520, Note_on_c, 0, 71, 95
2, 179520, Note_on_c, 0, 67, 95
2, 179520, Note_on_c, 0, 64, 95
2, 179520, Note_on_c, 0, 59, 95
2, 179520, Note_on_c, 0, 52, 95
2, 180480, Note_off_c, 0, 71, 95
2, 180480, Note_off_c, 0, 67, 95
2, 180480, Note_off_c, 0, 64, 95
2, 180480, Note_off_c, 0, 59, 95
2, 180480, Note_off_c, 0, 52, 95
2, 180480, Note_on_c, 0, 71, 95
2, 180480, Note_on_c, 0, 67, 95
2, 180480, Note_on_c, 0, 64, 95
2, 180480, Note_on_c, 0, 59, 95
2, 180480, Note_on_c, 0, 52, 95
2, 181440, Note_off_c, 0, 71, 95
2, 181440, Note_off_c, 0, 67, 95
2, 181440, Note_off_c, 0, 64, 95
2, 181440, Note_off_c, 0, 59, 95
2, 181440, Note_off_c, 0, 52, 95
2, 181440, Note_on_c, 0, 71, 95
2, 181440, Note_on_c, 0, 67, 95
2, 181440, Note_on_c, 0, 64, 95
2, 181440, Note_on_c, 0, 59, 95
2, 181440, Note_on_c, 0, 52, 95
2, 182400, Note_off_c, 0, 71, 95
2, 182400, Note_off_c, 0, 67, 95
2, 182400, Note_off_c, 0, 64, 95
2, 182400, Note_off_c, 0, 59, 95
2, 182400, Note_off_c, 0, 52, 95
2, 182400, Note_on_c, 0, 71, 95
2, 182400, Note_on_c, 0, 67, 95
2, 182400, Note_on_c, 0, 64, 95
2, 182400, Note_on_c, 0, 59, 95
2, 182400, Note_on_c, 0, 52, 95
2, 183360, Note_off_c, 0, 71, 95
2, 183360, Note_off_c, 0, 67, 95
2, 183360, Note_off_c, 0, 64, 95
2, 183360, Note_off_c, 0, 59, 95
2, 183360, Note_off_c, 0, 52, 95
2, 183360, Note_on_c, 0, 71, 95
2, 183360, Note_on_c, 0, 67, 95
2, 183360, Note_on_c, 0, 64, 95
2, 183360, Note_on_c, 0, 59, 95
2, 183360, Note_on_c, 0, 52, 95
2, 184320, Note_off_c, 0, 71, 95
2, 184320, Note_off_c, 0, 67, 95
2, 184320, Note_off_c, 0, 64, 95
2, 184320, Note_off_c, 0, 59, 95
2, 184320, Note_off_c, 0, 52, 95
2, 184320, Note_on_c, 0, 71, 95
2, 184320, Note_on_c, 0, 67, 95
2, 184320, Note_on_c, 0, 62, 95
2, 184320, Note_on_c, 0, 55, 95
2, 185280, Note_off_c, 0, 71, 95
2, 185280, Note_off_c, 0, 67, 95
2, 185280, Note_off_c, 0, 62, 95
2, 185280, Note_off_c, 0, 55, 95
2, 185280, Note_on_c, 0, 71, 95
2, 185280, Note_on_c, 0, 67, 95
2, 185280, Note_on_c, 0, 62, 95
2, 185280, Note_on_c, 0, 55, 95
2, 186240, Note_off_c, 0, 71, 95
2, 186240, Note_off_c, 0, 67, 95
2, 186240, Note_off_c, 0, 62, 95
2, 186240, Note_off_c, 0, 55, 95
2, 186240, Note_on_c, 0, 71, 95
2, 186240, Note_on_c, 0, 67, 95
2, 186240, Note_on_c, 0, 62, 95
2, 186240, Note_on_c, 0, 55, 95
2, 187200, Note_off_c, 0, 71, 95
2, 187200, Note_off_c, 0, 67, 95
2, 187200, Note_off_c, 0, 62, 95
2, 187200, Note_off_c, 0, 55, 95
2, 187200, Note_on_c, 0, 71, 95
2, 187200, Note_on_c, 0, 67, 95
2, 187200, Note_on_c, 0, 62, 95
2, 187200, Note_on_c, 0, 55, 95
2, 188160, Note_off_c, 0, 71, 95
2, 188160, Note_off_c, 0, 67, 95
2, 188160, Note_off_c, 0, 62, 95
2, 188160, Note_off_c, 0, 55, 95
2, 188160, Note_on_c, 0, 71, 95
2, 188160, Note_on_c, 0, 67, 95
2, 188160, Note_on_c, 0, 64, 95
2, 188160, Note_on_c, 0, 59, 95
2, 188160, Note_on_c, 0, 52, 95
2, 189120, Note_off_c, 0, 71, 95
2, 189120, Note_off_c, 0, 67, 95
2, 189120, Note_off_c, 0, 64, 95
2, 189120, Note_off_c, 0, 59, 95
2, 189120, Note_off_c, 0, 52, 95
2, 189120, Note_on_c, 0, 71, 95
2, 189120, Note_on_c, 0, 67, 95
2, 189120, Note_on_c, 0, 64, 95
2, 189120, Note_on_c, 0, 59, 95
2, 189120, Note_on_c, 0, 52, 95
2, 190080, Note_off_c, 0, 71, 95
2, 190080, Note_off_c, 0, 67, 95
2, 190080, Note_off_c, 0, 64, 95
2, 190080, Note_off_c, 0, 59, 95
2, 190080, Note_off_c, 0, 52, 95
2, 190080, Note_on_c, 0, 71, 95
2, 190080, Note_on_c, 0, 67, 95
2, 190080, Note_on_c, 0, 64, 95
2, 190080, Note_on_c, 0, 59, 95
2, 190080, Note_on_c, 0, 52, 95
2, 191040, Note_off_c, 0, 71, 95
2, 191040, Note_off_c, 0, 67, 95
2, 191040, Note_off_c, 0, 64, 95
2, 191040, Note_off_c, 0, 59, 95
2, 191040, Note_off_c, 0, 52, 95
2, 191040, Note_on_c, 0, 71, 95
2, 191040, Note_on_c, 0, 67, 95
2, 191040, Note_on_c, 0, 64, 95
2, 191040, Note_on_c, 0, 59, 95
2, 191040, Note_on_c, 0, 52, 95
2, 192000, Note_off_c, 0, 71, 95
2, 192000, Note_off_c, 0, 67, 95
2, 192000, Note_off_c, 0, 64, 95
2, 192000, Note_off_c, 0, 59, 95
2, 192000, Note_off_c, 0, 52, 95
2, 192000, Note_on_c, 0, 71, 95
2, 192000, Note_on_c, 0, 67, 95
2, 192000, Note_on_c, 0, 64, 95
2, 192000, Note_on_c, 0, 59, 95
2, 192000, Note_on_c, 0, 52, 95
2, 192960, Note_off_c, 0, 71, 95
2, 192960, Note_off_c, 0, 67, 95
2, 192960, Note_off_c, 0, 64, 95
2, 192960, Note_off_c, 0, 59, 95
2, 192960, Note_off_c, 0, 52, 95
2, 192960, Note_on_c, 0, 71, 95
2, 192960, Note_on_c, 0, 67, 95
2, 192960, Note_on_c, 0, 64, 95
2, 192960, Note_on_c, 0, 59, 95
2, 192960, Note_on_c, 0, 52, 95
2, 193920, Note_off_c, 0, 71, 95
2, 193920, Note_off_c, 0, 67, 95
2, 193920, Note_off_c, 0, 64, 95
2, 193920, Note_off_c, 0, 59, 95
2, 193920, Note_off_c, 0, 52, 95
2, 193920, Note_on_c, 0, 71, 95
2, 193920, Note_on_c, 0, 67, 95
2, 193920, Note_on_c, 0, 64, 95
2, 193920, Note_on_c, 0, 59, 95
2, 193920, Note_on_c, 0, 52, 95
2, 194880, Note_off_c, 0, 71, 95
2, 194880, Note_off_c, 0, 67, 95
2, 194880, Note_off_c, 0, 64, 95
2, 194880, Note_off_c, 0, 59, 95
2, 194880, Note_off_c, 0, 52, 95
2, 194880, Note_on_c, 0, 71, 95
2, 194880, Note_on_c, 0, 67, 95
2, 194880, Note_on_c, 0, 64, 95
2, 194880, Note_on_c, 0, 59, 95
2, 194880, Note_on_c, 0, 52, 95
2, 195840, Note_off_c, 0, 71, 95
2, 195840, Note_off_c, 0, 67, 95
2, 195840, Note_off_c, 0, 64, 95
2, 195840, Note_off_c, 0, 59, 95
2, 195840, Note_off_c, 0, 52, 95
2, 195840, Note_on_c, 0, 71, 95
2, 195840, Note_on_c, 0, 67, 95
2, 195840, Note_on_c, 0, 64, 95
2, 195840, Note_on_c, 0, 59, 95
2, 195840, Note_on_c, 0, 52, 95
2, 196800, Note_off_c, 0, 71, 95
2, 196800, Note_off_c, 0, 67, 95
2, 196800, Note_off_c, 0, 64, 95
2, 196800, Note_off_c, 0, 59, 95
2, 196800, Note_off_c, 0, 52, 95
2, 196800, Note_on_c, 0, 71, 95
2, 196800, Note_on_c, 0, 67, 95
2, 196800, Note_on_c, 0, 64, 95
2, 196800, Note_on_c, 0, 59, 95
2, 196800, Note_on_c, 0, 52, 95
2, 197760, Note_off_c, 0, 71, 95
2, 197760, Note_off_c, 0, 67, 95
2, 197760, Note_off_c, 0, 64, 95
2, 197760, Note_off_c, 0, 59, 95
2, 197760, Note_off_c, 0, 52, 95
2, 197760, Note_on_c, 0, 71, 95
2, 197760, Note_on_c, 0, 67, 95
2, 197760, Note_on_c, 0, 64, 95
2, 197760, Note_on_c, 0, 59, 95
2, 197760, Note_on_c, 0, 52, 95
2, 198720, Note_off_c, 0, 71, 95
2, 198720, Note_off_c, 0, 67, 95
2, 198720, Note_off_c, 0, 64, 95
2, 198720, Note_off_c, 0, 59, 95
2, 198720, Note_off_c, 0, 52, 95
2, 198720, Note_on_c, 0, 71, 95
2, 198720, Note_on_c, 0, 67, 95
2, 198720, Note_on_c, 0, 64, 95
2, 198720, Note_on_c, 0, 59, 95
2, 198720, Note_on_c, 0, 52, 95
2, 199680, Note_off_c, 0, 71, 95
2, 199680, Note_off_c, 0, 67, 95
2, 199680, Note_off_c, 0, 64, 95
2, 199680, Note_off_c, 0, 59, 95
2, 199680, Note_off_c, 0, 52, 95
2, 199680, Note_on_c, 0, 71, 95
2, 199680, Note_on_c, 0, 67, 95
2, 199680, Note_on_c, 0, 62, 95
2, 199680, Note_on_c, 0, 55, 95
2, 200640, Note_off_c, 0, 71, 95
2, 200640, Note_off_c, 0, 67, 95
2, 200640, Note_off_c, 0, 62, 95
2, 200640, Note_off_c, 0, 55, 95
2, 200640, Note_on_c, 0, 71, 95
2, 200640, Note_on_c, 0, 67, 95
2, 200640, Note_on_c, 0, 62, 95
2, 200640, Note_on_c, 0, 55, 95
2, 201600, Note_off_c, 0, 71, 95
2, 201600, Note_off_c, 0, 67, 95
2, 201600, Note_off_c, 0, 62, 95
2, 201600, Note_off_c, 0, 55, 95
2, 201600, Note_on_c, 0, 71, 95
2, 201600, Note_on_c, 0, 67, 95
2, 201600, Note_on_c, 0, 62, 95
2, 201600, Note_on_c, 0, 55, 95
2, 202560, Note_off_c, 0, 71, 95
2, 202560, Note_off_c, 0, 67, 95
2, 202560, Note_off_c, 0, 62, 95
2, 202560, Note_off_c, 0, 55, 95
2, 202560, Note_on_c, 1, 71, 95
2, 202560, Note_on_c, 1, 67, 95
2, 202560, Note_on_c, 1, 62, 95
2, 202560, Note_on_c, 1, 55, 95
2, 202680, Pitch_bend_c, 1, 7168
2, 202680, Pitch_bend_c, 1, 7168
2, 202680, Pitch_bend_c, 1, 7168
2, 202680, Pitch_bend_c, 1, 7424
2, 202800, Pitch_bend_c, 1, 6144
2, 202800, Pitch_bend_c, 1, 6144
2, 202800, Pitch_bend_c, 1, 6144
2, 202800, Pitch_bend_c, 1, 6528
2, 202920, Pitch_bend_c, 1, 5120
2, 202920, Pitch_bend_c, 1, 5120
2, 202920, Pitch_bend_c, 1, 5120
2, 202920, Pitch_bend_c, 1, 5632
2, 203040, Pitch_bend_c, 1, 3968
2, 203040, Pitch_bend_c, 1, 3968
2, 203040, Pitch_bend_c, 1, 3968
2, 203040, Pitch_bend_c, 1, 4736
2, 203160, Pitch_bend_c, 1, 2944
2, 203160, Pitch_bend_c, 1, 2944
2, 203160, Pitch_bend_c, 1, 2944
2, 203160, Pitch_bend_c, 1, 3840
2, 203280, Pitch_bend_c, 1, 1920
2, 203280, Pitch_bend_c, 1, 1920
2, 203280, Pitch_bend_c, 1, 1920
2, 203280, Pitch_bend_c, 1, 2944
2, 203400, Pitch_bend_c, 1, 896
2, 203400, Pitch_bend_c, 1, 896
2, 203400, Pitch_bend_c, 1, 896
2, 203400, Pitch_bend_c, 1, 2048
2, 203520, Pitch_bend_c, 1, 0
2, 203520, Pitch_bend_c, 1, 8192
2, 203520, Note_off_c, 1, 71, 95
2, 203520, Pitch_bend_c, 1, 0
2, 203520, Pitch_bend_c, 1, 8192
2, 203520, Note_off_c, 1, 67, 95
2, 203520, Pitch_bend_c, 1, 0
2, 203520, Pitch_bend_c, 1, 8192
2, 203520, Note_off_c, 1, 62, 95
2, 203520, Pitch_bend_c, 1, 1152
2, 203520, Pitch_bend_c, 1, 8192
2, 203520, Note_off_c, 1, 55, 95
2, 203520, Note_on_c, 0, 64, 95
2, 203520, Note_on_c, 0, 59, 95
2, 203520, Note_on_c, 0, 55, 95
2, 203520, Note_on_c, 0, 50, 95
2, 203520, Note_on_c, 0, 45, 95
2, 203592, Note_off_c, 0, 64, 95
2, 203592, Note_off_c, 0, 59, 95
2, 203592, Note_off_c, 0, 55, 95
2, 203592, Note_off_c, 0, 50, 95
2, 203592, Note_off_c, 0, 45, 95
2, 204160, Note_on_c, 0, 64, 95
2, 204160, Note_on_c, 0, 59, 95
2, 204160, Note_on_c, 0, 55, 95
2, 204160, Note_on_c, 0, 50, 95
2, 204160, Note_on_c, 0, 45, 95
2, 204232, Note_off_c, 0, 64, 95
2, 204232, Note_off_c, 0, 59, 95
2, 204232, Note_off_c, 0, 55, 95
2, 204232, Note_off_c, 0, 50, 95
2, 204232, Note_off_c, 0, 45, 95
2, 204480, Note_on_c, 0, 71, 95
2, 204480, Note_on_c, 0, 67, 95
2, 204480, Note_on_c, 0, 64, 95
2, 204480, Note_on_c, 0, 59, 95
2, 204480, Note_on_c, 0, 52, 95
2, 205120, Note_off_c, 0, 71, 95
2, 205120, Note_off_c, 0, 67, 95
2, 205120, Note_off_c, 0, 64, 95
2, 205120, Note_off_c, 0, 59, 95
2, 205120, Note_off_c, 0, 52, 95
2, 205120, Note_on_c, 0, 71, 95
2, 205120, Note_on_c, 0, 67, 95
2, 205120, Note_on_c, 0, 64, 95
2, 205120, Note_on_c, 0, 59, 95
2, 205120, Note_on_c, 0, 52, 95
2, 205440, Note_off_c, 0, 71, 95
2, 205440, Note_off_c, 0, 67, 95
2, 205440, Note_off_c, 0, 64, 95
2, 205440, Note_off_c, 0, 59, 95
2, 205440, Note_off_c, 0, 52, 95
2, 205440, Note_on_c, 0, 64, 95
2, 205440, Note_on_c, 0, 59, 95
2, 205440, Note_on_c, 0, 55, 95
2, 205440, Note_on_c, 0, 50, 95
2, 205440, Note_on_c, 0, 45, 95
2, 205512, Note_off_c, 0, 64, 95
2, 205512, Note_off_c, 0, 59, 95
2, 205512, Note_off_c, 0, 55, 95
2, 205512, Note_off_c, 0, 50, 95
2, 205512, Note_off_c, 0, 45, 95
2, 206080, Note_on_c, 0, 64, 95
2, 206080, Note_on_c, 0, 59, 95
2, 206080, Note_on_c, 0, 55, 95
2, 206080, Note_on_c, 0, 50, 95
2, 206080, Note_on_c, 0, 45, 95
2, 206152, Note_off_c, 0, 64, 95
2, 206152, Note_off_c, 0, 59, 95
2, 206152, Note_off_c, 0, 55, 95
2, 206152, Note_off_c, 0, 50, 95
2, 206152, Note_off_c, 0, 45, 95
2, 206400, Note_on_c, 0, 71, 95
2, 206400, Note_on_c, 0, 67, 95
2, 206400, Note_on_c, 0, 64, 95
2, 206400, Note_on_c, 0, 59, 95
2, 206400, Note_on_c, 0, 52, 95
2, 207040, Note_off_c, 0, 71, 95
2, 207040, Note_off_c, 0, 67, 95
2, 207040, Note_off_c, 0, 64, 95
2, 207040, Note_off_c, 0, 59, 95
2, 207040, Note_off_c, 0, 52, 95
2, 207040, Note_on_c, 0, 71, 95
2, 207040, Note_on_c, 0, 67, 95
2, 207040, Note_on_c, 0, 64, 95
2, 207040, Note_on_c, 0, 59, 95
2, 207040, Note_on_c, 0, 52, 95
2, 207360, Note_off_c, 0, 71, 95
2, 207360, Note_off_c, 0, 67, 95
2, 207360, Note_off_c, 0, 64, 95
2, 207360, Note_off_c, 0, 59, 95
2, 207360, Note_off_c, 0, 52, 95
2, 207360, Note_on_c, 0, 64, 95
2, 207360, Note_on_c, 0, 59, 95
2, 207360, Note_on_c, 0, 55, 95
2, 207360, Note_on_c, 0, 50, 95
2, 207360, Note_on_c, 0, 45, 95
2, 207432, Note_off_c, 0, 64, 95
2, 207432, Note_off_c, 0, 59, 95
2, 207432, Note_off_c, 0, 55, 95
2, 207432, Note_off_c, 0, 50, 95
2, 207432, Note_off_c, 0, 45, 95
2, 208000, Note_on_c, 0, 64, 95
2, 208000, Note_on_c, 0, 59, 95
2, 208000, Note_on_c, 0, 55, 95
2, 208000, Note_on_c, 0, 50, 95
2, 208000, Note_on_c, 0, 45, 95
2, 208072, Note_off_c, 0, 64, 95
2, 208072, Note_off_c, 0, 59, 95
2, 208072, Note_off_c, 0, 55, 95
2, 208072, Note_off_c, 0, 50, 95
2, 208072, Note_off_c, 0, 45, 95
2, 208320, Note_on_c, 0, 71, 95
2, 208320, Note_on_c, 0, 67, 95
2, 208320, Note_on_c, 0, 62, 95
2, 208320, Note_on_c, 0, 55, 95
2, 208960, Note_off_c, 0, 71, 95
2, 208960, Note_off_c, 0, 67, 95
2, 208960, Note_off_c, 0, 62, 95
2, 208960, Note_off_c, 0, 55, 95
2, 208960, Note_on_c, 0, 71, 95
2, 208960, Note_on_c, 0, 67, 95
2, 208960, Note_on_c, 0, 62, 95
2, 208960, Note_on_c, 0, 55, 95
2, 209280, Note_off_c, 0, 71, 95
2, 209280, Note_off_c, 0, 67, 95
2, 209280, Note_off_c, 0, 62, 95
2, 209280, Note_off_c, 0, 55, 95
2, 209280, Note_on_c, 0, 64, 95
2, 209280, Note_on_c, 0, 59, 95
2, 209280, Note_on_c, 0, 55, 95
2, 209280, Note_on_c, 0, 50, 95
2, 209280, Note_on_c, 0, 45, 95
2, 209352, Note_off_c, 0, 64, 95
2, 209352, Note_off_c, 0, 59, 95
2, 209352, Note_off_c, 0, 55, 95
2, 209352, Note_off_c, 0, 50, 95
2, 209352, Note_off_c, 0, 45, 95
2, 209920, Note_on_c, 0, 64, 95
2, 209920, Note_on_c, 0, 59, 95
2, 209920, Note_on_c, 0, 55, 95
2, 209920, Note_on_c, 0, 50, 95
2, 209920, Note_on_c, 0, 45, 95
2, 209992, Note_off_c, 0, 64, 95
2, 209992, Note_off_c, 0, 59, 95
2, 209992, Note_off_c, 0, 55, 95
2, 209992, Note_off_c, 0, 50, 95
2, 209992, Note_off_c, 0, 45, 95
2, 210240, Note_on_c, 0, 71, 95
2, 210240, Note_on_c, 0, 67, 95
2, 210240, Note_on_c, 0, 62, 95
2, 210240, Note_on_c, 0, 55, 95
2, 210880, Note_off_c, 0, 71, 95
2, 210880, Note_off_c, 0, 67, 95
2, 210880, Note_off_c, 0, 62, 95
2, 210880, Note_off_c, 0, 55, 95
2, 210880, Note_on_c, 0, 71, 95
2, 210880, Note_on_c, 0, 67, 95
2, 210880, Note_on_c, 0, 62, 95
2, 210880, Note_on_c, 0, 55, 95
2, 211200, Note_off_c, 0, 71, 95
2, 211200, Note_off_c, 0, 67, 95
2, 211200, Note_off_c, 0, 62, 95
2, 211200, Note_off_c, 0, 55, 95
2, 211200, Note_on_c, 0, 64, 95
2, 211200, Note_on_c, 0, 59, 95
2, 211200, Note_on_c, 0, 55, 95
2, 211200, Note_on_c, 0, 50, 95
2, 211200, Note_on_c, 0, 45, 95
2, 211272, Note_off_c, 0, 64, 95
2, 211272, Note_off_c, 0, 59, 95
2, 211272, Note_off_c, 0, 55, 95
2, 211272, Note_off_c, 0, 50, 95
2, 211272, Note_off_c, 0, 45, 95
2, 211840, Note_on_c, 0, 64, 95
2, 211840, Note_on_c, 0, 59, 95
2, 211840, Note_on_c, 0, 55, 95
2, 211840, Note_on_c, 0, 50, 95
2, 211840, Note_on_c, 0, 45, 95
2, 211912, Note_off_c, 0, 64, 95
2, 211912, Note_off_c, 0, 59, 95
2, 211912, Note_off_c, 0, 55, 95
2, 211912, Note_off_c, 0, 50, 95
2, 211912, Note_off_c, 0, 45, 95
2, 212160, Note_on_c, 0, 71, 95
2, 212160, Note_on_c, 0, 68, 95
2, 212160, Note_on_c, 0, 64, 95
2, 212160, Note_on_c, 0, 59, 95
2, 212160, Note_on_c, 0, 52, 95
2, 212800, Note_off_c, 0, 71, 95
2, 212800, Note_off_c, 0, 68, 95
2, 212800, Note_off_c, 0, 64, 95
2, 212800, Note_off_c, 0, 59, 95
2, 212800, Note_off_c, 0, 52, 95
2, 212800, Note_on_c, 0, 71, 95
2, 212800, Note_on_c, 0, 68, 95
2, 212800, Note_on_c, 0, 64, 95
2, 212800, Note_on_c, 0, 59, 95
2, 212800, Note_on_c, 0, 52, 95
2, 213120, Note_off_c, 0, 71, 95
2, 213120, Note_off_c, 0, 68, 95
2, 213120, Note_off_c, 0, 64, 95
2, 213120, Note_off_c, 0, 59, 95
2, 213120, Note_off_c, 0, 52, 95
2, 213120, Note_on_c, 0, 64, 95
2, 213120, Note_on_c, 0, 59, 95
2, 213120, Note_on_c, 0, 55, 95
2, 213120, Note_on_c, 0, 50, 95
2, 213120, Note_on_c, 0, 45, 95
2, 213192, Note_off_c, 0, 64, 95
2, 213192, Note_off_c, 0, 59, 95
2, 213192, Note_off_c, 0, 55, 95
2, 213192, Note_off_c, 0, 50, 95
2, 213192, Note_off_c, 0, 45, 95
2, 213760, Note_on_c, 0, 64, 95
2, 213760, Note_on_c, 0, 59, 95
2, 213760, Note_on_c, 0, 55, 95
2, 213760, Note_on_c, 0, 50, 95
2, 213760, Note_on_c, 0, 45, 95
2, 213832, Note_off_c, 0, 64, 95
2, 213832, Note_off_c, 0, 59, 95
2, 213832, Note_off_c, 0, 55, 95
2, 213832, Note_off_c, 0, 50, 95
2, 213832, Note_off_c, 0, 45, 95
2, 214080, Note_on_c, 0, 71, 95
2, 214080, Note_on_c, 0, 68, 95
2, 214080, Note_on_c, 0, 64, 95
2, 214080, Note_on_c, 0, 59, 95
2, 214080, Note_on_c, 0, 52, 95
2, 214720, Note_off_c, 0, 71, 95
2, 214720, Note_off_c, 0, 68, 95
2, 214720, Note_off_c, 0, 64, 95
2, 214720, Note_off_c, 0, 59, 95
2, 214720, Note_off_c, 0, 52, 95
2, 214720, Note_on_c, 0, 71, 95
2, 214720, Note_on_c, 0, 68, 95
2, 214720, Note_on_c, 0, 64, 95
2, 214720, Note_on_c, 0, 59, 95
2, 214720, Note_on_c, 0, 52, 95
2, 215040, Note_off_c, 0, 71, 95
2, 215040, Note_off_c, 0, 68, 95
2, 215040, Note_off_c, 0, 64, 95
2, 215040, Note_off_c, 0, 59, 95
2, 215040, Note_off_c, 0, 52, 95
2, 215040, Note_on_c, 0, 64, 95
2, 215040, Note_on_c, 0, 59, 95
2, 215040, Note_on_c, 0, 55, 95
2, 215040, Note_on_c, 0, 50, 95
2, 215040, Note_on_c, 0, 45, 95
2, 215112, Note_off_c, 0, 64, 95
2, 215112, Note_off_c, 0, 59, 95
2, 215112, Note_off_c, 0, 55, 95
2, 215112, Note_off_c, 0, 50, 95
2, 215112, Note_off_c, 0, 45, 95
2, 215680, Note_on_c, 0, 64, 95
2, 215680, Note_on_c, 0, 59, 95
2, 215680, Note_on_c, 0, 55, 95
2, 215680, Note_on_c, 0, 50, 95
2, 215680, Note_on_c, 0, 45, 95
2, 215752, Note_off_c, 0, 64, 95
2, 215752, Note_off_c, 0, 59, 95
2, 215752, Note_off_c, 0, 55, 95
2, 215752, Note_off_c, 0, 50, 95
2, 215752, Note_off_c, 0, 45, 95
2, 216000, Note_on_c, 0, 71, 95
2, 216000, Note_on_c, 0, 67, 95
2, 216000, Note_on_c, 0, 64, 95
2, 216000, Note_on_c, 0, 59, 95
2, 216000, Note_on_c, 0, 52, 95
2, 216640, Note_off_c, 0, 71, 95
2, 216640, Note_off_c, 0, 67, 95
2, 216640, Note_off_c, 0, 64, 95
2, 216640, Note_off_c, 0, 59, 95
2, 216640, Note_off_c, 0, 52, 95
2, 216640, Note_on_c, 0, 71, 95
2, 216640, Note_on_c, 0, 67, 95
2, 216640, Note_on_c, 0, 64, 95
2, 216640, Note_on_c, 0, 59, 95
2, 216640, Note_on_c, 0, 52, 95
2, 216960, Note_off_c, 0, 71, 95
2, 216960, Note_off_c, 0, 67, 95
2, 216960, Note_off_c, 0, 64, 95
2, 216960, Note_off_c, 0, 59, 95
2, 216960, Note_off_c, 0, 52, 95
2, 216960, Note_on_c, 0, 64, 95
2, 216960, Note_on_c, 0, 59, 95
2, 216960, Note_on_c, 0, 55, 95
2, 216960, Note_on_c, 0, 50, 95
2, 216960, Note_on_c, 0, 45, 95
2, 217032, Note_off_c, 0, 64, 95
2, 217032, Note_off_c, 0, 59, 95
2, 217032, Note_off_c, 0, 55, 95
2, 217032, Note_off_c, 0, 50, 95
2, 217032, Note_off_c, 0, 45, 95
2, 217600, Note_on_c, 0, 64, 95
2, 217600, Note_on_c, 0, 59, 95
2, 217600, Note_on_c, 0, 55, 95
2, 217600, Note_on_c, 0, 50, 95
2, 217600, Note_on_c, 0, 45, 95
2, 217672, Note_off_c, 0, 64, 95
2, 217672, Note_off_c, 0, 59, 95
2, 217672, Note_off_c, 0, 55, 95
2, 217672, Note_off_c, 0, 50, 95
2, 217672, Note_off_c, 0, 45, 95
2, 217920, Note_on_c, 0, 71, 95
2, 217920, Note_on_c, 0, 67, 95
2, 217920, Note_on_c, 0, 64, 95
2, 217920, Note_on_c, 0, 59, 95
2, 217920, Note_on_c, 0, 52, 95
2, 218560, Note_off_c, 0, 71, 95
2, 218560, Note_off_c, 0, 67, 95
2, 218560, Note_off_c, 0, 64, 95
2, 218560, Note_off_c, 0, 59, 95
2, 218560, Note_off_c, 0, 52, 95
2, 218560, Note_on_c, 0, 71, 95
2, 218560, Note_on_c, 0, 67, 95
2, 218560, Note_on_c, 0, 64, 95
2, 218560, Note_on_c, 0, 59, 95
2, 218560, Note_on_c, 0, 52, 95
2, 218880, Note_off_c, 0, 71, 95
2, 218880, Note_off_c, 0, 67, 95
2, 218880, Note_off_c, 0, 64, 95
2, 218880, Note_off_c, 0, 59, 95
2, 218880, Note_off_c, 0, 52, 95
2, 226560, Note_on_c, 0, 64, 95
2, 226560, Note_on_c, 0, 59, 95
2, 226560, Note_on_c, 0, 55, 95
2, 226560, Note_on_c, 0, 50, 95
2, 226560, Note_on_c, 0, 45, 95
2, 226632, Note_off_c, 0, 64, 95
2, 226632, Note_off_c, 0, 59, 95
2, 226632, Note_off_c, 0, 55, 95
2, 226632, Note_off_c, 0, 50, 95
2, 226632, Note_off_c, 0, 45, 95
2, 227200, Note_on_c, 0, 64, 95
2, 227200, Note_on_c, 0, 59, 95
2, 227200, Note_on_c, 0, 55, 95
2, 227200, Note_on_c, 0, 50, 95
2, 227200, Note_on_c, 0, 45, 95
2, 227272, Note_off_c, 0, 64, 95
2, 227272, Note_off_c, 0, 59, 95
2, 227272, Note_off_c, 0, 55, 95
2, 227272, Note_off_c, 0, 50, 95
2, 227272, Note_off_c, 0, 45, 95
2, 227520, Note_on_c, 0, 71, 95
2, 227520, Note_on_c, 0, 67, 95
2, 227520, Note_on_c, 0, 64, 95
2, 227520, Note_on_c, 0, 59, 95
2, 227520, Note_on_c, 0, 52, 95
2, 228160, Note_off_c, 0, 71, 95
2, 228160, Note_off_c, 0, 67, 95
2, 228160, Note_off_c, 0, 64, 95
2, 228160, Note_off_c, 0, 59, 95
2, 228160, Note_off_c, 0, 52, 95
2, 228160, Note_on_c, 0, 71, 95
2, 228160, Note_on_c, 0, 67, 95
2, 228160, Note_on_c, 0, 64, 95
2, 228160, Note_on_c, 0, 59, 95
2, 228160, Note_on_c, 0, 52, 95
2, 228480, Note_off_c, 0, 71, 95
2, 228480, Note_off_c, 0, 67, 95
2, 228480, Note_off_c, 0, 64, 95
2, 228480, Note_off_c, 0, 59, 95
2, 228480, Note_off_c, 0, 52, 95
2, 228480, Note_on_c, 0, 64, 95
2, 228480, Note_on_c, 0, 59, 95
2, 228480, Note_on_c, 0, 55, 95
2, 228480, Note_on_c, 0, 50, 95
2, 228480, Note_on_c, 0, 45, 95
2, 228552, Note_off_c, 0, 64, 95
2, 228552, Note_off_c, 0, 59, 95
2, 228552, Note_off_c, 0, 55, 95
2, 228552, Note_off_c, 0, 50, 95
2, 228552, Note_off_c, 0, 45, 95
2, 229120, Note_on_c, 0, 64, 95
2, 229120, Note_on_c, 0, 59, 95
2, 229120, Note_on_c, 0, 55, 95
2, 229120, Note_on_c, 0, 50, 95
2, 229120, Note_on_c, 0, 45, 95
2, 229192, Note_off_c, 0, 64, 95
2, 229192, Note_off_c, 0, 59, 95
2, 229192, Note_off_c, 0, 55, 95
2, 229192, Note_off_c, 0, 50, 95
2, 229192, Note_off_c, 0, 45, 95
2, 229440, Note_on_c, 0, 71, 95
2, 229440, Note_on_c, 0, 67, 95
2, 229440, Note_on_c, 0, 64, 95
2, 229440, Note_on_c, 0, 59, 95
2, 229440, Note_on_c, 0, 52, 95
2, 230400, Note_off_c, 0, 71, 95
2, 230400, Note_off_c, 0, 67, 95
2, 230400, Note_off_c, 0, 64, 95
2, 230400, Note_off_c, 0, 59, 95
2, 230400, Note_off_c, 0, 52, 95
2, 230400, Note_on_c, 0, 66, 95
2, 230400, Note_on_c, 0, 62, 95
2, 230400, Note_on_c, 0, 57, 95
2, 230400, Note_on_c, 0, 50, 95
2, 231040, Note_off_c, 0, 66, 95
2, 231040, Note_off_c, 0, 62, 95
2, 231040, Note_off_c, 0, 57, 95
2, 231040, Note_off_c, 0, 50, 95
2, 231040, Note_on_c, 0, 66, 95
2, 231040, Note_on_c, 0, 62, 95
2, 231040, Note_on_c, 0, 57, 95
2, 231040, Note_on_c, 0, 50, 95
2, 231360, Note_off_c, 0, 66, 95
2, 231360, Note_off_c, 0, 62, 95
2, 231360, Note_off_c, 0, 57, 95
2, 231360, Note_off_c, 0, 50, 95
2, 231360, Note_on_c, 0, 66, 95
2, 231360, Note_on_c, 0, 62, 95
2, 231360, Note_on_c, 0, 57, 95
2, 231360, Note_on_c, 0, 50, 95
2, 232000, Note_off_c, 0, 66, 95
2, 232000, Note_off_c, 0, 62, 95
2, 232000, Note_off_c, 0, 57, 95
2, 232000, Note_off_c, 0, 50, 95
2, 232000, Note_on_c, 0, 66, 95
2, 232000, Note_on_c, 0, 62, 95
2, 232000, Note_on_c, 0, 57, 95
2, 232000, Note_on_c, 0, 50, 95
2, 232320, Note_off_c, 0, 66, 95
2, 232320, Note_off_c, 0, 62, 95
2, 232320, Note_off_c, 0, 57, 95
2, 232320, Note_off_c, 0, 50, 95
2, 232320, Note_on_c, 0, 66, 95
2, 232320, Note_on_c, 0, 62, 95
2, 232320, Note_on_c, 0, 57, 95
2, 232320, Note_on_c, 0, 50, 95
2, 233280, Note_off_c, 0, 66, 95
2, 233280, Note_off_c, 0, 62, 95
2, 233280, Note_off_c, 0, 57, 95
2, 233280, Note_off_c, 0, 50, 95
2, 233280, Note_on_c, 0, 66, 95
2, 233280, Note_on_c, 0, 62, 95
2, 233280, Note_on_c, 0, 57, 95
2, 233280, Note_on_c, 0, 50, 95
2, 233920, Note_off_c, 0, 66, 95
2, 233920, Note_off_c, 0, 62, 95
2, 233920, Note_off_c, 0, 57, 95
2, 233920, Note_off_c, 0, 50, 95
2, 233920, Note_on_c, 0, 66, 95
2, 233920, Note_on_c, 0, 62, 95
2, 233920, Note_on_c, 0, 57, 95
2, 233920, Note_on_c, 0, 50, 95
2, 234720, Note_off_c, 0, 66, 95
2, 234720, Note_off_c, 0, 62, 95
2, 234720, Note_off_c, 0, 57, 95
2, 234720, Note_off_c, 0, 50, 95
2, 234880, Note_on_c, 0, 66, 95
2, 234880, Note_on_c, 0, 62, 95
2, 234880, Note_on_c, 0, 57, 95
2, 234880, Note_on_c, 0, 50, 95
2, 235200, Note_off_c, 0, 66, 95
2, 235200, Note_off_c, 0, 62, 95
2, 235200, Note_off_c, 0, 57, 95
2, 235200, Note_off_c, 0, 50, 95
2, 235200, Note_on_c, 0, 66, 95
2, 235200, Note_on_c, 0, 62, 95
2, 235200, Note_on_c, 0, 57, 95
2, 235200, Note_on_c, 0, 50, 95
2, 236160, Note_off_c, 0, 66, 95
2, 236160, Note_off_c, 0, 62, 95
2, 236160, Note_off_c, 0, 57, 95
2, 236160, Note_off_c, 0, 50, 95
2, 236160, Note_on_c, 0, 66, 95
2, 236160, Note_on_c, 0, 62, 95
2, 236160, Note_on_c, 0, 57, 95
2, 236160, Note_on_c, 0, 50, 95
2, 237120, Note_off_c, 0, 66, 95
2, 237120, Note_off_c, 0, 62, 95
2, 237120, Note_off_c, 0, 57, 95
2, 237120, Note_off_c, 0, 50, 95
2, 237120, Note_on_c, 0, 66, 95
2, 237120, Note_on_c, 0, 62, 95
2, 237120, Note_on_c, 0, 57, 95
2, 237120, Note_on_c, 0, 50, 95
2, 238080, Note_off_c, 0, 66, 95
2, 238080, Note_off_c, 0, 62, 95
2, 238080, Note_off_c, 0, 57, 95
2, 238080, Note_off_c, 0, 50, 95
2, 238080, Note_on_c, 0, 71, 95
2, 238080, Note_on_c, 0, 67, 95
2, 238080, Note_on_c, 0, 64, 95
2, 238080, Note_on_c, 0, 59, 95
2, 238080, Note_on_c, 0, 52, 95
2, 239040, Note_off_c, 0, 71, 95
2, 239040, Note_off_c, 0, 67, 95
2, 239040, Note_off_c, 0, 64, 95
2, 239040, Note_off_c, 0, 59, 95
2, 239040, Note_off_c, 0, 52, 95
2, 239040, Note_on_c, 0, 71, 95
2, 239040, Note_on_c, 0, 67, 95
2, 239040, Note_on_c, 0, 64, 95
2, 239040, Note_on_c, 0, 59, 95
2, 239040, Note_on_c, 0, 52, 95
2, 240000, Note_off_c, 0, 71, 95
2, 240000, Note_off_c, 0, 67, 95
2, 240000, Note_off_c, 0, 64, 95
2, 240000, Note_off_c, 0, 59, 95
2, 240000, Note_off_c, 0, 52, 95
2, 240000, Note_on_c, 0, 71, 95
2, 240000, Note_on_c, 0, 67, 95
2, 240000, Note_on_c, 0, 64, 95
2, 240000, Note_on_c, 0, 59, 95
2, 240000, Note_on_c, 0, 52, 95
2, 240960, Note_off_c, 0, 71, 95
2, 240960, Note_off_c, 0, 67, 95
2, 240960, Note_off_c, 0, 64, 95
2, 240960, Note_off_c, 0, 59, 95
2, 240960, Note_off_c, 0, 52, 95
2, 240960, Note_on_c, 0, 71, 95
2, 240960, Note_on_c, 0, 67, 95
2, 240960, Note_on_c, 0, 64, 95
2, 240960, Note_on_c, 0, 59, 95
2, 240960, Note_on_c, 0, 52, 95
2, 241920, Note_off_c, 0, 71, 95
2, 241920, Note_off_c, 0, 67, 95
2, 241920, Note_off_c, 0, 64, 95
2, 241920, Note_off_c, 0, 59, 95
2, 241920, Note_off_c, 0, 52, 95
2, 241920, Note_on_c, 0, 71, 95
2, 241920, Note_on_c, 0, 69, 95
2, 241920, Note_on_c, 0, 65, 95
2, 241920, Note_on_c, 0, 60, 95
2, 241920, Note_on_c, 0, 52, 95
2, 242880, Note_off_c, 0, 71, 95
2, 242880, Note_off_c, 0, 69, 95
2, 242880, Note_off_c, 0, 65, 95
2, 242880, Note_off_c, 0, 60, 95
2, 242880, Note_off_c, 0, 52, 95
2, 242880, Note_on_c, 0, 71, 95
2, 242880, Note_on_c, 0, 69, 95
2, 242880, Note_on_c, 0, 65, 95
2, 242880, Note_on_c, 0, 60, 95
2, 242880, Note_on_c, 0, 52, 95
2, 243840, Note_off_c, 0, 71, 95
2, 243840, Note_off_c, 0, 69, 95
2, 243840, Note_off_c, 0, 65, 95
2, 243840, Note_off_c, 0, 60, 95
2, 243840, Note_off_c, 0, 52, 95
2, 243840, Note_on_c, 0, 71, 95
2, 243840, Note_on_c, 0, 69, 95
2, 243840, Note_on_c, 0, 65, 95
2, 243840, Note_on_c, 0, 60, 95
2, 243840, Note_on_c, 0, 52, 95
2, 244800, Note_off_c, 0, 71, 95
2, 244800, Note_off_c, 0, 69, 95
2, 244800, Note_off_c, 0, 65, 95
2, 244800, Note_off_c, 0, 60, 95
2, 244800, Note_off_c, 0, 52, 95
2, 244800, Note_on_c, 0, 71, 95
2, 244800, Note_on_c, 0, 69, 95
2, 244800, Note_on_c, 0, 65, 95
2, 244800, Note_on_c, 0, 60, 95
2, 244800, Note_on_c, 0, 52, 95
2, 245760, Note_off_c, 0, 71, 95
2, 245760, Note_off_c, 0, 69, 95
2, 245760, Note_off_c, 0, 65, 95
2, 245760, Note_off_c, 0, 60, 95
2, 245760, Note_off_c, 0, 52, 95
2, 245760, Note_on_c, 0, 71, 95
2, 245760, Note_on_c, 0, 67, 95
2, 245760, Note_on_c, 0, 64, 95
2, 245760, Note_on_c, 0, 59, 95
2, 245760, Note_on_c, 0, 52, 95
2, 246720, Note_off_c, 0, 71, 95
2, 246720, Note_off_c, 0, 67, 95
2, 246720, Note_off_c, 0, 64, 95
2, 246720, Note_off_c, 0, 59, 95
2, 246720, Note_off_c, 0, 52, 95
2, 246720, Note_on_c, 0, 71, 95
2, 246720, Note_on_c, 0, 67, 95
2, 246720, Note_on_c, 0, 64, 95
2, 246720, Note_on_c, 0, 59, 95
2, 246720, Note_on_c, 0, 52, 95
2, 247680, Note_off_c, 0, 71, 95
2, 247680, Note_off_c, 0, 67, 95
2, 247680, Note_off_c, 0, 64, 95
2, 247680, Note_off_c, 0, 59, 95
2, 247680, Note_off_c, 0, 52, 95
2, 247680, Note_on_c, 0, 71, 95
2, 247680, Note_on_c, 0, 67, 95
2, 247680, Note_on_c, 0, 64, 95
2, 247680, Note_on_c, 0, 59, 95
2, 247680, Note_on_c, 0, 52, 95
2, 248640, Note_off_c, 0, 71, 95
2, 248640, Note_off_c, 0, 67, 95
2, 248640, Note_off_c, 0, 64, 95
2, 248640, Note_off_c, 0, 59, 95
2, 248640, Note_off_c, 0, 52, 95
2, 248640, Note_on_c, 0, 71, 95
2, 248640, Note_on_c, 0, 67, 95
2, 248640, Note_on_c, 0, 64, 95
2, 248640, Note_on_c, 0, 59, 95
2, 248640, Note_on_c, 0, 52, 95
2, 249600, Note_off_c, 0, 71, 95
2, 249600, Note_off_c, 0, 67, 95
2, 249600, Note_off_c, 0, 64, 95
2, 249600, Note_off_c, 0, 59, 95
2, 249600, Note_off_c, 0, 52, 95
2, 249600, Note_on_c, 0, 71, 95
2, 249600, Note_on_c, 0, 69, 95
2, 249600, Note_on_c, 0, 65, 95
2, 249600, Note_on_c, 0, 60, 95
2, 249600, Note_on_c, 0, 52, 95
2, 250560, Note_off_c, 0, 71, 95
2, 250560, Note_off_c, 0, 69, 95
2, 250560, Note_off_c, 0, 65, 95
2, 250560, Note_off_c, 0, 60, 95
2, 250560, Note_off_c, 0, 52, 95
2, 250560, Note_on_c, 0, 71, 95
2, 250560, Note_on_c, 0, 69, 95
2, 250560, Note_on_c, 0, 65, 95
2, 250560, Note_on_c, 0, 60, 95
2, 250560, Note_on_c, 0, 52, 95
2, 251520, Note_off_c, 0, 71, 95
2, 251520, Note_off_c, 0, 69, 95
2, 251520, Note_off_c, 0, 65, 95
2, 251520, Note_off_c, 0, 60, 95
2, 251520, Note_off_c, 0, 52, 95
2, 251520, Note_on_c, 0, 71, 95
2, 251520, Note_on_c, 0, 69, 95
2, 251520, Note_on_c, 0, 65, 95
2, 251520, Note_on_c, 0, 60, 95
2, 251520, Note_on_c, 0, 52, 95
2, 252480, Note_off_c, 0, 71, 95
2, 252480, Note_off_c, 0, 69, 95
2, 252480, Note_off_c, 0, 65, 95
2, 252480, Note_off_c, 0, 60, 95
2, 252480, Note_off_c, 0, 52, 95
2, 252480, Note_on_c, 0, 71, 95
2, 252480, Note_on_c, 0, 69, 95
2, 252480, Note_on_c, 0, 65, 95
2, 252480, Note_on_c, 0, 60, 95
2, 252480, Note_on_c, 0, 52, 95
2, 253440, Note_off_c, 0, 71, 95
2, 253440, Note_off_c, 0, 69, 95
2, 253440, Note_off_c, 0, 65, 95
2, 253440, Note_off_c, 0, 60, 95
2, 253440, Note_off_c, 0, 52, 95
2, 253440, Note_on_c, 0, 71, 95
2, 253440, Note_on_c, 0, 67, 95
2, 253440, Note_on_c, 0, 64, 95
2, 253440, Note_on_c, 0, 59, 95
2, 253440, Note_on_c, 0, 52, 95
2, 254400, Note_off_c, 0, 71, 95
2, 254400, Note_off_c, 0, 67, 95
2, 254400, Note_off_c, 0, 64, 95
2, 254400, Note_off_c, 0, 59, 95
2, 254400, Note_off_c, 0, 52, 95
2, 254400, Note_on_c, 0, 71, 95
2, 254400, Note_on_c, 0, 67, 95
2, 254400, Note_on_c, 0, 64, 95
2, 254400, Note_on_c, 0, 59, 95
2, 254400, Note_on_c, 0, 52, 95
2, 255360, Note_off_c, 0, 71, 95
2, 255360, Note_off_c, 0, 67, 95
2, 255360, Note_off_c, 0, 64, 95
2, 255360, Note_off_c, 0, 59, 95
2, 255360, Note_off_c, 0, 52, 95
2, 255360, Note_on_c, 0, 71, 95
2, 255360, Note_on_c, 0, 67, 95
2, 255360, Note_on_c, 0, 64, 95
2, 255360, Note_on_c, 0, 59, 95
2, 255360, Note_on_c, 0, 52, 95
2, 256320, Note_off_c, 0, 71, 95
2, 256320, Note_off_c, 0, 67, 95
2, 256320, Note_off_c, 0, 64, 95
2, 256320, Note_off_c, 0, 59, 95
2, 256320, Note_off_c, 0, 52, 95
2, 256320, Note_on_c, 0, 71, 95
2, 256320, Note_on_c, 0, 67, 95
2, 256320, Note_on_c, 0, 64, 95
2, 256320, Note_on_c, 0, 59, 95
2, 256320, Note_on_c, 0, 52, 95
2, 257280, Note_off_c, 0, 71, 95
2, 257280, Note_off_c, 0, 67, 95
2, 257280, Note_off_c, 0, 64, 95
2, 257280, Note_off_c, 0, 59, 95
2, 257280, Note_off_c, 0, 52, 95
2, 257280, Note_on_c, 0, 71, 95
2, 257280, Note_on_c, 0, 69, 95
2, 257280, Note_on_c, 0, 65, 95
2, 257280, Note_on_c, 0, 60, 95
2, 257280, Note_on_c, 0, 52, 95
2, 258240, Note_off_c, 0, 71, 95
2, 258240, Note_off_c, 0, 69, 95
2, 258240, Note_off_c, 0, 65, 95
2, 258240, Note_off_c, 0, 60, 95
2, 258240, Note_off_c, 0, 52, 95
2, 258240, Note_on_c, 0, 71, 95
2, 258240, Note_on_c, 0, 69, 95
2, 258240, Note_on_c, 0, 65, 95
2, 258240, Note_on_c, 0, 60, 95
2, 258240, Note_on_c, 0, 52, 95
2, 259200, Note_off_c, 0, 71, 95
2, 259200, Note_off_c, 0, 69, 95
2, 259200, Note_off_c, 0, 65, 95
2, 259200, Note_off_c, 0, 60, 95
2, 259200, Note_off_c, 0, 52, 95
2, 259200, Note_on_c, 0, 71, 95
2, 259200, Note_on_c, 0, 69, 95
2, 259200, Note_on_c, 0, 65, 95
2, 259200, Note_on_c, 0, 60, 95
2, 259200, Note_on_c, 0, 52, 95
2, 260160, Note_off_c, 0, 71, 95
2, 260160, Note_off_c, 0, 69, 95
2, 260160, Note_off_c, 0, 65, 95
2, 260160, Note_off_c, 0, 60, 95
2, 260160, Note_off_c, 0, 52, 95
2, 260160, Note_on_c, 0, 71, 95
2, 260160, Note_on_c, 0, 69, 95
2, 260160, Note_on_c, 0, 65, 95
2, 260160, Note_on_c, 0, 60, 95
2, 260160, Note_on_c, 0, 52, 95
2, 261120, Note_off_c, 0, 71, 95
2, 261120, Note_off_c, 0, 69, 95
2, 261120, Note_off_c, 0, 65, 95
2, 261120, Note_off_c, 0, 60, 95
2, 261120, Note_off_c, 0, 52, 95
2, 261120, Note_on_c, 0, 71, 95
2, 261120, Note_on_c, 0, 67, 95
2, 261120, Note_on_c, 0, 64, 95
2, 261120, Note_on_c, 0, 59, 95
2, 261120, Note_on_c, 0, 52, 95
2, 262080, Note_off_c, 0, 71, 95
2, 262080, Note_off_c, 0, 67, 95
2, 262080, Note_off_c, 0, 64, 95
2, 262080, Note_off_c, 0, 59, 95
2, 262080, Note_off_c, 0, 52, 95
2, 262080, Note_on_c, 0, 71, 95
2, 262080, Note_on_c, 0, 67, 95
2, 262080, Note_on_c, 0, 64, 95
2, 262080, Note_on_c, 0, 59, 95
2, 262080, Note_on_c, 0, 52, 95
2, 263040, Note_off_c, 0, 71, 95
2, 263040, Note_off_c, 0, 67, 95
2, 263040, Note_off_c, 0, 64, 95
2, 263040, Note_off_c, 0, 59, 95
2, 263040, Note_off_c, 0, 52, 95
2, 263040, Note_on_c, 0, 71, 95
2, 263040, Note_on_c, 0, 67, 95
2, 263040, Note_on_c, 0, 64, 95
2, 263040, Note_on_c, 0, 59, 95
2, 263040, Note_on_c, 0, 52, 95
2, 264000, Note_off_c, 0, 71, 95
2, 264000, Note_off_c, 0, 67, 95
2, 264000, Note_off_c, 0, 64, 95
2, 264000, Note_off_c, 0, 59, 95
2, 264000, Note_off_c, 0, 52, 95
2, 264000, Note_on_c, 0, 71, 95
2, 264000, Note_on_c, 0, 67, 95
2, 264000, Note_on_c, 0, 64, 95
2, 264000, Note_on_c, 0, 59, 95
2, 264000, Note_on_c, 0, 52, 95
2, 264960, Note_off_c, 0, 71, 95
2, 264960, Note_off_c, 0, 67, 95
2, 264960, Note_off_c, 0, 64, 95
2, 264960, Note_off_c, 0, 59, 95
2, 264960, Note_off_c, 0, 52, 95
2, 264960, Note_on_c, 0, 71, 95
2, 264960, Note_on_c, 0, 69, 95
2, 264960, Note_on_c, 0, 65, 95
2, 264960, Note_on_c, 0, 60, 95
2, 264960, Note_on_c, 0, 52, 95
2, 265920, Note_off_c, 0, 71, 95
2, 265920, Note_off_c, 0, 69, 95
2, 265920, Note_off_c, 0, 65, 95
2, 265920, Note_off_c, 0, 60, 95
2, 265920, Note_off_c, 0, 52, 95
2, 265920, Note_on_c, 0, 71, 95
2, 265920, Note_on_c, 0, 69, 95
2, 265920, Note_on_c, 0, 65, 95
2, 265920, Note_on_c, 0, 60, 95
2, 265920, Note_on_c, 0, 52, 95
2, 266880, Note_off_c, 0, 71, 95
2, 266880, Note_off_c, 0, 69, 95
2, 266880, Note_off_c, 0, 65, 95
2, 266880, Note_off_c, 0, 60, 95
2, 266880, Note_off_c, 0, 52, 95
2, 266880, Note_on_c, 0, 71, 95
2, 266880, Note_on_c, 0, 69, 95
2, 266880, Note_on_c, 0, 65, 95
2, 266880, Note_on_c, 0, 60, 95
2, 266880, Note_on_c, 0, 52, 95
2, 267840, Note_off_c, 0, 71, 95
2, 267840, Note_off_c, 0, 69, 95
2, 267840, Note_off_c, 0, 65, 95
2, 267840, Note_off_c, 0, 60, 95
2, 267840, Note_off_c, 0, 52, 95
2, 267840, Note_on_c, 0, 71, 95
2, 267840, Note_on_c, 0, 69, 95
2, 267840, Note_on_c, 0, 65, 95
2, 267840, Note_on_c, 0, 60, 95
2, 267840, Note_on_c, 0, 52, 95
2, 268800, Note_off_c, 0, 71, 95
2, 268800, Note_off_c, 0, 69, 95
2, 268800, Note_off_c, 0, 65, 95
2, 268800, Note_off_c, 0, 60, 95
2, 268800, Note_off_c, 0, 52, 95
2, 268800, Note_on_c, 0, 71, 95
2, 268800, Note_on_c, 0, 67, 95
2, 268800, Note_on_c, 0, 64, 95
2, 268800, Note_on_c, 0, 59, 95
2, 268800, Note_on_c, 0, 52, 95
2, 269440, Note_off_c, 0, 71, 95
2, 269440, Note_off_c, 0, 67, 95
2, 269440, Note_off_c, 0, 64, 95
2, 269440, Note_off_c, 0, 59, 95
2, 269440, Note_off_c, 0, 52, 95
2, 269440, Note_on_c, 0, 71, 95
2, 269440, Note_on_c, 0, 67, 95
2, 269440, Note_on_c, 0, 64, 95
2, 269440, Note_on_c, 0, 59, 95
2, 269440, Note_on_c, 0, 52, 95
2, 269760, Note_off_c, 0, 71, 95
2, 269760, Note_off_c, 0, 67, 95
2, 269760, Note_off_c, 0, 64, 95
2, 269760, Note_off_c, 0, 59, 95
2, 269760, Note_off_c, 0, 52, 95
2, 269760, Note_on_c, 0, 71, 95
2, 269760, Note_on_c, 0, 67, 95
2, 269760, Note_on_c, 0, 64, 95
2, 269760, Note_on_c, 0, 59, 95
2, 269760, Note_on_c, 0, 52, 95
2, 270720, Note_off_c, 0, 71, 95
2, 270720, Note_off_c, 0, 67, 95
2, 270720, Note_off_c, 0, 64, 95
2, 270720, Note_off_c, 0, 59, 95
2, 270720, Note_off_c, 0, 52, 95
2, 270720, Note_on_c, 0, 71, 95
2, 270720, Note_on_c, 0, 67, 95
2, 270720, Note_on_c, 0, 64, 95
2, 270720, Note_on_c, 0, 59, 95
2, 270720, Note_on_c, 0, 52, 95
2, 271360, Note_off_c, 0, 71, 95
2, 271360, Note_off_c, 0, 67, 95
2, 271360, Note_off_c, 0, 64, 95
2, 271360, Note_off_c, 0, 59, 95
2, 271360, Note_off_c, 0, 52, 95
2, 271360, Note_on_c, 0, 71, 95
2, 271360, Note_on_c, 0, 67, 95
2, 271360, Note_on_c, 0, 64, 95
2, 271360, Note_on_c, 0, 59, 95
2, 271360, Note_on_c, 0, 52, 95
2, 271680, Note_off_c, 0, 71, 95
2, 271680, Note_off_c, 0, 67, 95
2, 271680, Note_off_c, 0, 64, 95
2, 271680, Note_off_c, 0, 59, 95
2, 271680, Note_off_c, 0, 52, 95
2, 271680, Note_on_c, 0, 71, 95
2, 271680, Note_on_c, 0, 67, 95
2, 271680, Note_on_c, 0, 64, 95
2, 271680, Note_on_c, 0, 59, 95
2, 271680, Note_on_c, 0, 52, 95
2, 272640, Note_off_c, 0, 71, 95
2, 272640, Note_off_c, 0, 67, 95
2, 272640, Note_off_c, 0, 64, 95
2, 272640, Note_off_c, 0, 59, 95
2, 272640, Note_off_c, 0, 52, 95
2, 272640, Note_on_c, 0, 67, 95
2, 272640, Note_on_c, 0, 64, 95
2, 273280, Note_off_c, 0, 67, 95
2, 273280, Note_off_c, 0, 64, 95
2, 273280, Note_on_c, 0, 69, 95
2, 273280, Note_on_c, 0, 65, 95
2, 273600, Note_off_c, 0, 69, 95
2, 273600, Note_off_c, 0, 65, 95
2, 273600, Note_on_c, 0, 67, 95
2, 273600, Note_on_c, 0, 64, 95
2, 274240, Note_off_c, 0, 67, 95
2, 274240, Note_off_c, 0, 64, 95
2, 274240, Note_on_c, 0, 69, 95
2, 274240, Note_on_c, 0, 65, 95
2, 274560, Note_off_c, 0, 69, 95
2, 274560, Note_off_c, 0, 65, 95
2, 274560, Note_on_c, 0, 67, 95
2, 274560, Note_on_c, 0, 64, 95
2, 275200, Note_off_c, 0, 67, 95
2, 275200, Note_off_c, 0, 64, 95
2, 275200, Note_on_c, 0, 69, 95
2, 275200, Note_on_c, 0, 65, 95
2, 275520, Note_off_c, 0, 69, 95
2, 275520, Note_off_c, 0, 65, 95
2, 275520, Note_on_c, 0, 67, 95
2, 275520, Note_on_c, 0, 64, 95
2, 276160, Note_off_c, 0, 67, 95
2, 276160, Note_off_c, 0, 64, 95
2, 276160, Note_on_c, 0, 59, 95
2, 276160, Note_on_c, 0, 55, 95
2, 276232, Note_off_c, 0, 59, 95
2, 276232, Note_off_c, 0, 55, 95
2, 276480, Note_on_c, 0, 71, 95
2, 276480, Note_on_c, 0, 67, 95
2, 276480, Note_on_c, 0, 64, 95
2, 276480, Note_on_c, 0, 59, 95
2, 277120, Note_off_c, 0, 71, 95
2, 277120, Note_off_c, 0, 67, 95
2, 277120, Note_off_c, 0, 64, 95
2, 277120, Note_off_c, 0, 59, 95
2, 277120, Note_on_c, 0, 71, 95
2, 277120, Note_on_c, 0, 67, 95
2, 277120, Note_on_c, 0, 64, 95
2, 277120, Note_on_c, 0, 59, 95
2, 277440, Note_off_c, 0, 71, 95
2, 277440, Note_off_c, 0, 67, 95
2, 277440, Note_off_c, 0, 64, 95
2, 277440, Note_off_c, 0, 59, 95
2, 277440, Note_on_c, 0, 71, 95
2, 277440, Note_on_c, 0, 67, 95
2, 277440, Note_on_c, 0, 64, 95
2, 277440, Note_on_c, 0, 59, 95
2, 278080, Note_off_c, 0, 71, 95
2, 278080, Note_off_c, 0, 67, 95
2, 278080, Note_off_c, 0, 64, 95
2, 278080, Note_off_c, 0, 59, 95
2, 278080, Note_on_c, 0, 64, 95
2, 278080, Note_on_c, 0, 59, 95
2, 278080, Note_on_c, 0, 55, 95
2, 278080, Note_on_c, 0, 50, 95
2, 278152, Note_off_c, 0, 64, 95
2, 278152, Note_off_c, 0, 59, 95
2, 278152, Note_off_c, 0, 55, 95
2, 278152, Note_off_c, 0, 50, 95
2, 278400, Note_on_c, 0, 71, 95
2, 278400, Note_on_c, 0, 67, 95
2, 278400, Note_on_c, 0, 64, 95
2, 278400, Note_on_c, 0, 59, 95
2, 279040, Note_off_c, 0, 71, 95
2, 279040, Note_off_c, 0, 67, 95
2, 279040, Note_off_c, 0, 64, 95
2, 279040, Note_off_c, 0, 59, 95
2, 279040, Note_on_c, 0, 71, 95
2, 279040, Note_on_c, 0, 67, 95
2, 279040, Note_on_c, 0, 64, 95
2, 279040, Note_on_c, 0, 59, 95
2, 279360, Note_off_c, 0, 71, 95
2, 279360, Note_off_c, 0, 67, 95
2, 279360, Note_off_c, 0, 64, 95
2, 279360, Note_off_c, 0, 59, 95
2, 279360, Note_on_c, 0, 71, 95
2, 279360, Note_on_c, 0, 67, 95
2, 279360, Note_on_c, 0, 64, 95
2, 279360, Note_on_c, 0, 59, 95
2, 280000, Note_off_c, 0, 71, 95
2, 280000, Note_off_c, 0, 67, 95
2, 280000, Note_off_c, 0, 64, 95
2, 280000, Note_off_c, 0, 59, 95
2, 280000, Note_on_c, 0, 64, 95
2, 280000, Note_on_c, 0, 59, 95
2, 280000, Note_on_c, 0, 55, 95
2, 280000, Note_on_c, 0, 50, 95
2, 280072, Note_off_c, 0, 64, 95
2, 280072, Note_off_c, 0, 59, 95
2, 280072, Note_off_c, 0, 55, 95
2, 280072, Note_off_c, 0, 50, 95
2, 280320, Note_on_c, 0, 64, 95
2, 280320, Note_on_c, 0, 59, 95
2, 280320, Note_on_c, 0, 55, 95
2, 280320, Note_on_c, 0, 50, 95
2, 280320, Note_on_c, 0, 45, 95
2, 280392, Note_off_c, 0, 64, 95
2, 280392, Note_off_c, 0, 59, 95
2, 280392, Note_off_c, 0, 55, 95
2, 280392, Note_off_c, 0, 50, 95
2, 280392, Note_off_c, 0, 45, 95
2, 280960, Note_on_c, 0, 71, 95
2, 280960, Note_on_c, 0, 67, 95
2, 280960, Note_on_c, 0, 62, 95
2, 280960, Note_on_c, 0, 55, 95
2, 281280, Note_off_c, 0, 71, 95
2, 281280, Note_off_c, 0, 67, 95
2, 281280, Note_off_c, 0, 62, 95
2, 281280, Note_off_c, 0, 55, 95
2, 281280, Note_on_c, 0, 64, 95
2, 281280, Note_on_c, 0, 59, 95
2, 281280, Note_on_c, 0, 55, 95
2, 281280, Note_on_c, 0, 50, 95
2, 281280, Note_on_c, 0, 45, 95
2, 281352, Note_off_c, 0, 64, 95
2, 281352, Note_off_c, 0, 59, 95
2, 281352, Note_off_c, 0, 55, 95
2, 281352, Note_off_c, 0, 50, 95
2, 281352, Note_off_c, 0, 45, 95
2, 281920, Note_on_c, 0, 71, 95
2, 281920, Note_on_c, 0, 67, 95
2, 281920, Note_on_c, 0, 62, 95
2, 281920, Note_on_c, 0, 55, 95
2, 282240, Note_off_c, 0, 71, 95
2, 282240, Note_off_c, 0, 67, 95
2, 282240, Note_off_c, 0, 62, 95
2, 282240, Note_off_c, 0, 55, 95
2, 282240, Note_on_c, 0, 64, 95
2, 282240, Note_on_c, 0, 59, 95
2, 282240, Note_on_c, 0, 55, 95
2, 282240, Note_on_c, 0, 50, 95
2, 282240, Note_on_c, 0, 45, 95
2, 282312, Note_off_c, 0, 64, 95
2, 282312, Note_off_c, 0, 59, 95
2, 282312, Note_off_c, 0, 55, 95
2, 282312, Note_off_c, 0, 50, 95
2, 282312, Note_off_c, 0, 45, 95
2, 282880, Note_on_c, 0, 71, 95
2, 282880, Note_on_c, 0, 67, 95
2, 282880, Note_on_c, 0, 62, 95
2, 282880, Note_on_c, 0, 55, 95
2, 283200, Note_off_c, 0, 71, 95
2, 283200, Note_off_c, 0, 67, 95
2, 283200, Note_off_c, 0, 62, 95
2, 283200, Note_off_c, 0, 55, 95
2, 283200, Note_on_c, 0, 64, 95
2, 283200, Note_on_c, 0, 59, 95
2, 283200, Note_on_c, 0, 55, 95
2, 283200, Note_on_c, 0, 50, 95
2, 283200, Note_on_c, 0, 45, 95
2, 283272, Note_off_c, 0, 64, 95
2, 283272, Note_off_c, 0, 59, 95
2, 283272, Note_off_c, 0, 55, 95
2, 283272, Note_off_c, 0, 50, 95
2, 283272, Note_off_c, 0, 45, 95
2, 283840, Note_on_c, 0, 71, 95
2, 283840, Note_on_c, 0, 67, 95
2, 283840, Note_on_c, 0, 62, 95
2, 283840, Note_on_c, 0, 55, 95
2, 284160, Note_off_c, 0, 71, 95
2, 284160, Note_off_c, 0, 67, 95
2, 284160, Note_off_c, 0, 62, 95
2, 284160, Note_off_c, 0, 55, 95
2, 284160, Note_on_c, 0, 67, 95
2, 284160, Note_on_c, 0, 64, 95
2, 284800, Note_off_c, 0, 67, 95
2, 284800, Note_off_c, 0, 64, 95
2, 284800, Note_on_c, 0, 69, 95
2, 284800, Note_on_c, 0, 65, 95
2, 285120, Note_off_c, 0, 69, 95
2, 285120, Note_off_c, 0, 65, 95
2, 285120, Note_on_c, 0, 67, 95
2, 285120, Note_on_c, 0, 64, 95
2, 285760, Note_off_c, 0, 67, 95
2, 285760, Note_off_c, 0, 64, 95
2, 285760, Note_on_c, 0, 69, 95
2, 285760, Note_on_c, 0, 65, 95
2, 286080, Note_off_c, 0, 69, 95
2, 286080, Note_off_c, 0, 65, 95
2, 286080, Note_on_c, 0, 67, 95
2, 286080, Note_on_c, 0, 64, 95
2, 286720, Note_off_c, 0, 67, 95
2, 286720, Note_off_c, 0, 64, 95
2, 286720, Note_on_c, 0, 69, 95
2, 286720, Note_on_c, 0, 65, 95
2, 287040, Note_off_c, 0, 69, 95
2, 287040, Note_off_c, 0, 65, 95
2, 287040, Note_on_c, 0, 67, 95
2, 287040, Note_on_c, 0, 64, 95
2, 287680, Note_off_c, 0, 67, 95
2, 287680, Note_off_c, 0, 64, 95
2, 287680, Note_on_c, 0, 59, 95
2, 287680, Note_on_c, 0, 55, 95
2, 287752, Note_off_c, 0, 59, 95
2, 287752, Note_off_c, 0, 55, 95
2, 288000, Note_on_c, 0, 71, 95
2, 288000, Note_on_c, 0, 67, 95
2, 288000, Note_on_c, 0, 64, 95
2, 288000, Note_on_c, 0, 59, 95
2, 288640, Note_off_c, 0, 71, 95
2, 288640, Note_off_c, 0, 67, 95
2, 288640, Note_off_c, 0, 64, 95
2, 288640, Note_off_c, 0, 59, 95
2, 288640, Note_on_c, 0, 71, 95
2, 288640, Note_on_c, 0, 67, 95
2, 288640, Note_on_c, 0, 64, 95
2, 288640, Note_on_c, 0, 59, 95
2, 288960, Note_off_c, 0, 71, 95
2, 288960, Note_off_c, 0, 67, 95
2, 288960, Note_off_c, 0, 64, 95
2, 288960, Note_off_c, 0, 59, 95
2, 288960, Note_on_c, 0, 71, 95
2, 288960, Note_on_c, 0, 67, 95
2, 288960, Note_on_c, 0, 64, 95
2, 288960, Note_on_c, 0, 59, 95
2, 289600, Note_off_c, 0, 71, 95
2, 289600, Note_off_c, 0, 67, 95
2, 289600, Note_off_c, 0, 64, 95
2, 289600, Note_off_c, 0, 59, 95
2, 289600, Note_on_c, 0, 64, 95
2, 289600, Note_on_c, 0, 59, 95
2, 289600, Note_on_c, 0, 55, 95
2, 289600, Note_on_c, 0, 50, 95
2, 289672, Note_off_c, 0, 64, 95
2, 289672, Note_off_c, 0, 59, 95
2, 289672, Note_off_c, 0, 55, 95
2, 289672, Note_off_c, 0, 50, 95
2, 289920, Note_on_c, 0, 71, 95
2, 289920, Note_on_c, 0, 67, 95
2, 289920, Note_on_c, 0, 64, 95
2, 289920, Note_on_c, 0, 59, 95
2, 290560, Note_off_c, 0, 71, 95
2, 290560, Note_off_c, 0, 67, 95
2, 290560, Note_off_c, 0, 64, 95
2, 290560, Note_off_c, 0, 59, 95
2, 290560, Note_on_c, 0, 71, 95
2, 290560, Note_on_c, 0, 67, 95
2, 290560, Note_on_c, 0, 64, 95
2, 290560, Note_on_c, 0, 59, 95
2, 290880, Note_off_c, 0, 71, 95
2, 290880, Note_off_c, 0, 67, 95
2, 290880, Note_off_c, 0, 64, 95
2, 290880, Note_off_c, 0, 59, 95
2, 290880, Note_on_c, 0, 71, 95
2, 290880, Note_on_c, 0, 67, 95
2, 290880, Note_on_c, 0, 64, 95
2, 290880, Note_on_c, 0, 59, 95
2, 291520, Note_off_c, 0, 71, 95
2, 291520, Note_off_c, 0, 67, 95
2, 291520, Note_off_c, 0, 64, 95
2, 291520, Note_off_c, 0, 59, 95
2, 291520, Note_on_c, 0, 64, 95
2, 291520, Note_on_c, 0, 59, 95
2, 291520, Note_on_c, 0, 55, 95
2, 291520, Note_on_c, 0, 50, 95
2, 291592, Note_off_c, 0, 64, 95
2, 291592, Note_off_c, 0, 59, 95
2, 291592, Note_off_c, 0, 55, 95
2, 291592, Note_off_c, 0, 50, 95
2, 291840, Note_on_c, 0, 64, 95
2, 291840, Note_on_c, 0, 59, 95
2, 291840, Note_on_c, 0, 55, 95
2, 291840, Note_on_c, 0, 50, 95
2, 291840, Note_on_c, 0, 45, 95
2, 291912, Note_off_c, 0, 64, 95
2, 291912, Note_off_c, 0, 59, 95
2, 291912, Note_off_c, 0, 55, 95
2, 291912, Note_off_c, 0, 50, 95
2, 291912, Note_off_c, 0, 45, 95
2, 292480, Note_on_c, 0, 71, 95
2, 292480, Note_on_c, 0, 67, 95
2, 292480, Note_on_c, 0, 62, 95
2, 292480, Note_on_c, 0, 55, 95
2, 292800, Note_off_c, 0, 71, 95
2, 292800, Note_off_c, 0, 67, 95
2, 292800, Note_off_c, 0, 62, 95
2, 292800, Note_off_c, 0, 55, 95
2, 292800, Note_on_c, 0, 64, 95
2, 292800, Note_on_c, 0, 59, 95
2, 292800, Note_on_c, 0, 55, 95
2, 292800, Note_on_c, 0, 50, 95
2, 292800, Note_on_c, 0, 45, 95
2, 292872, Note_off_c, 0, 64, 95
2, 292872, Note_off_c, 0, 59, 95
2, 292872, Note_off_c, 0, 55, 95
2, 292872, Note_off_c, 0, 50, 95
2, 292872, Note_off_c, 0, 45, 95
2, 293440, Note_on_c, 0, 71, 95
2, 293440, Note_on_c, 0, 67, 95
2, 293440, Note_on_c, 0, 62, 95
2, 293440, Note_on_c, 0, 55, 95
2, 293760, Note_off_c, 0, 71, 95
2, 293760, Note_off_c, 0, 67, 95
2, 293760, Note_off_c, 0, 62, 95
2, 293760, Note_off_c, 0, 55, 95
2, 293760, Note_on_c, 0, 64, 95
2, 293760, Note_on_c, 0, 59, 95
2, 293760, Note_on_c, 0, 55, 95
2, 293760, Note_on_c, 0, 50, 95
2, 293760, Note_on_c, 0, 45, 95
2, 293832, Note_off_c, 0, 64, 95
2, 293832, Note_off_c, 0, 59, 95
2, 293832, Note_off_c, 0, 55, 95
2, 293832, Note_off_c, 0, 50, 95
2, 293832, Note_off_c, 0, 45, 95
2, 294400, Note_on_c, 0, 71, 95
2, 294400, Note_on_c, 0, 67, 95
2, 294400, Note_on_c, 0, 62, 95
2, 294400, Note_on_c, 0, 55, 95
2, 294720, Note_off_c, 0, 71, 95
2, 294720, Note_off_c, 0, 67, 95
2, 294720, Note_off_c, 0, 62, 95
2, 294720, Note_off_c, 0, 55, 95
2, 294720, Note_on_c, 0, 64, 95
2, 294720, Note_on_c, 0, 59, 95
2, 294720, Note_on_c, 0, 55, 95
2, 294720, Note_on_c, 0, 50, 95
2, 294720, Note_on_c, 0, 45, 95
2, 294792, Note_off_c, 0, 64, 95
2, 294792, Note_off_c, 0, 59, 95
2, 294792, Note_off_c, 0, 55, 95
2, 294792, Note_off_c, 0, 50, 95
2, 294792, Note_off_c, 0, 45, 95
2, 295360, Note_on_c, 0, 71, 95
2, 295360, Note_on_c, 0, 67, 95
2, 295360, Note_on_c, 0, 62, 95
2, 295360, Note_on_c, 0, 55, 95
2, 295680, Note_off_c, 0, 71, 95
2, 295680, Note_off_c, 0, 67, 95
2, 295680, Note_off_c, 0, 62, 95
2, 295680, Note_off_c, 0, 55, 95
2, 299520, Note_on_c, 0, 64, 95
2, 299520, Note_on_c, 0, 59, 95
2, 299520, Note_on_c, 0, 55, 95
2, 299520, Note_on_c, 0, 50, 95
2, 299520, Note_on_c, 0, 45, 95
2, 299592, Note_off_c, 0, 64, 95
2, 299592, Note_off_c, 0, 59, 95
2, 299592, Note_off_c, 0, 55, 95
2, 299592, Note_off_c, 0, 50, 95
2, 299592, Note_off_c, 0, 45, 95
2, 300160, Note_on_c, 0, 64, 95
2, 300160, Note_on_c, 0, 59, 95
2, 300160, Note_on_c, 0, 55, 95
2, 300160, Note_on_c, 0, 50, 95
2, 300160, Note_on_c, 0, 45, 95
2, 300232, Note_off_c, 0, 64, 95
2, 300232, Note_off_c, 0, 59, 95
2, 300232, Note_off_c, 0, 55, 95
2, 300232, Note_off_c, 0, 50, 95
2, 300232, Note_off_c, 0, 45, 95
2, 300480, Note_on_c, 0, 71, 95
2, 300480, Note_on_c, 0, 67, 95
2, 300480, Note_on_c, 0, 64, 95
2, 300480, Note_on_c, 0, 59, 95
2, 300480, Note_on_c, 0, 52, 95
2, 301120, Note_off_c, 0, 71, 95
2, 301120, Note_off_c, 0, 67, 95
2, 301120, Note_off_c, 0, 64, 95
2, 301120, Note_off_c, 0, 59, 95
2, 301120, Note_off_c, 0, 52, 95
2, 301120, Note_on_c, 0, 71, 95
2, 301120, Note_on_c, 0, 67, 95
2, 301120, Note_on_c, 0, 64, 95
2, 301120, Note_on_c, 0, 59, 95
2, 301120, Note_on_c, 0, 52, 95
2, 301440, Note_off_c, 0, 71, 95
2, 301440, Note_off_c, 0, 67, 95
2, 301440, Note_off_c, 0, 64, 95
2, 301440, Note_off_c, 0, 59, 95
2, 301440, Note_off_c, 0, 52, 95
2, 301440, Note_on_c, 0, 64, 95
2, 301440, Note_on_c, 0, 59, 95
2, 301440, Note_on_c, 0, 55, 95
2, 301440, Note_on_c, 0, 50, 95
2, 301440, Note_on_c, 0, 45, 95
2, 301512, Note_off_c, 0, 64, 95
2, 301512, Note_off_c, 0, 59, 95
2, 301512, Note_off_c, 0, 55, 95
2, 301512, Note_off_c, 0, 50, 95
2, 301512, Note_off_c, 0, 45, 95
2, 302080, Note_on_c, 0, 64, 95
2, 302080, Note_on_c, 0, 59, 95
2, 302080, Note_on_c, 0, 55, 95
2, 302080, Note_on_c, 0, 50, 95
2, 302080, Note_on_c, 0, 45, 95
2, 302152, Note_off_c, 0, 64, 95
2, 302152, Note_off_c, 0, 59, 95
2, 302152, Note_off_c, 0, 55, 95
2, 302152, Note_off_c, 0, 50, 95
2, 302152, Note_off_c, 0, 45, 95
2, 302400, Note_on_c, 0, 71, 95
2, 302400, Note_on_c, 0, 67, 95
2, 302400, Note_on_c, 0, 64, 95
2, 302400, Note_on_c, 0, 59, 95
2, 302400, Note_on_c, 0, 52, 95
2, 303040, Note_off_c, 0, 71, 95
2, 303040, Note_off_c, 0, 67, 95
2, 303040, Note_off_c, 0, 64, 95
2, 303040, Note_off_c, 0, 59, 95
2, 303040, Note_off_c, 0, 52, 95
2, 303040, Note_on_c, 0, 71, 95
2, 303040, Note_on_c, 0, 67, 95
2, 303040, Note_on_c, 0, 64, 95
2, 303040, Note_on_c, 0, 59, 95
2, 303040, Note_on_c, 0, 52, 95
2, 303360, Note_off_c, 0, 71, 95
2, 303360, Note_off_c, 0, 67, 95
2, 303360, Note_off_c, 0, 64, 95
2, 303360, Note_off_c, 0, 59, 95
2, 303360, Note_off_c, 0, 52, 95
2, 303360, Note_on_c, 0, 64, 95
2, 303360, Note_on_c, 0, 59, 95
2, 303360, Note_on_c, 0, 55, 95
2, 303360, Note_on_c, 0, 50, 95
2, 303360, Note_on_c, 0, 45, 95
2, 303432, Note_off_c, 0, 64, 95
2, 303432, Note_off_c, 0, 59, 95
2, 303432, Note_off_c, 0, 55, 95
2, 303432, Note_off_c, 0, 50, 95
2, 303432, Note_off_c, 0, 45, 95
2, 304000, Note_on_c, 0, 64, 95
2, 304000, Note_on_c, 0, 59, 95
2, 304000, Note_on_c, 0, 55, 95
2, 304000, Note_on_c, 0, 50, 95
2, 304000, Note_on_c, 0, 45, 95
2, 304072, Note_off_c, 0, 64, 95
2, 304072, Note_off_c, 0, 59, 95
2, 304072, Note_off_c, 0, 55, 95
2, 304072, Note_off_c, 0, 50, 95
2, 304072, Note_off_c, 0, 45, 95
2, 304320, Note_on_c, 0, 71, 95
2, 304320, Note_on_c, 0, 67, 95
2, 304320, Note_on_c, 0, 62, 95
2, 304320, Note_on_c, 0, 55, 95
2, 304960, Note_off_c, 0, 71, 95
2, 304960, Note_off_c, 0, 67, 95
2, 304960, Note_off_c, 0, 62, 95
2, 304960, Note_off_c, 0, 55, 95
2, 304960, Note_on_c, 0, 71, 95
2, 304960, Note_on_c, 0, 67, 95
2, 304960, Note_on_c, 0, 62, 95
2, 304960, Note_on_c, 0, 55, 95
2, 305280, Note_off_c, 0, 71, 95
2, 305280, Note_off_c, 0, 67, 95
2, 305280, Note_off_c, 0, 62, 95
2, 305280, Note_off_c, 0, 55, 95
2, 305280, Note_on_c, 0, 64, 95
2, 305280, Note_on_c, 0, 59, 95
2, 305280, Note_on_c, 0, 55, 95
2, 305280, Note_on_c, 0, 50, 95
2, 305280, Note_on_c, 0, 45, 95
2, 305352, Note_off_c, 0, 64, 95
2, 305352, Note_off_c, 0, 59, 95
2, 305352, Note_off_c, 0, 55, 95
2, 305352, Note_off_c, 0, 50, 95
2, 305352, Note_off_c, 0, 45, 95
2, 305920, Note_on_c, 0, 64, 95
2, 305920, Note_on_c, 0, 59, 95
2, 305920, Note_on_c, 0, 55, 95
2, 305920, Note_on_c, 0, 50, 95
2, 305920, Note_on_c, 0, 45, 95
2, 305992, Note_off_c, 0, 64, 95
2, 305992, Note_off_c, 0, 59, 95
2, 305992, Note_off_c, 0, 55, 95
2, 305992, Note_off_c, 0, 50, 95
2, 305992, Note_off_c, 0, 45, 95
2, 306240, Note_on_c, 0, 71, 95
2, 306240, Note_on_c, 0, 67, 95
2, 306240, Note_on_c, 0, 62, 95
2, 306240, Note_on_c, 0, 55, 95
2, 306880, Note_off_c, 0, 71, 95
2, 306880, Note_off_c, 0, 67, 95
2, 306880, Note_off_c, 0, 62, 95
2, 306880, Note_off_c, 0, 55, 95
2, 306880, Note_on_c, 0, 71, 95
2, 306880, Note_on_c, 0, 67, 95
2, 306880, Note_on_c, 0, 62, 95
2, 306880, Note_on_c, 0, 55, 95
2, 307200, Note_off_c, 0, 71, 95
2, 307200, Note_off_c, 0, 67, 95
2, 307200, Note_off_c, 0, 62, 95
2, 307200, Note_off_c, 0, 55, 95
2, 307200, Note_on_c, 0, 64, 95
2, 307200, Note_on_c, 0, 59, 95
2, 307200, Note_on_c, 0, 55, 95
2, 307200, Note_on_c, 0, 50, 95
2, 307200, Note_on_c, 0, 45, 95
2, 307272, Note_off_c, 0, 64, 95
2, 307272, Note_off_c, 0, 59, 95
2, 307272, Note_off_c, 0, 55, 95
2, 307272, Note_off_c, 0, 50, 95
2, 307272, Note_off_c, 0, 45, 95
2, 307840, Note_on_c, 0, 64, 95
2, 307840, Note_on_c, 0, 59, 95
2, 307840, Note_on_c, 0, 55, 95
2, 307840, Note_on_c, 0, 50, 95
2, 307840, Note_on_c, 0, 45, 95
2, 307912, Note_off_c, 0, 64, 95
2, 307912, Note_off_c, 0, 59, 95
2, 307912, Note_off_c, 0, 55, 95
2, 307912, Note_off_c, 0, 50, 95
2, 307912, Note_off_c, 0, 45, 95
2, 308160, Note_on_c, 0, 71, 95
2, 308160, Note_on_c, 0, 68, 95
2, 308160, Note_on_c, 0, 64, 95
2, 308160, Note_on_c, 0, 59, 95
2, 308160, Note_on_c, 0, 52, 95
2, 308800, Note_off_c, 0, 71, 95
2, 308800, Note_off_c, 0, 68, 95
2, 308800, Note_off_c, 0, 64, 95
2, 308800, Note_off_c, 0, 59, 95
2, 308800, Note_off_c, 0, 52, 95
2, 308800, Note_on_c, 0, 71, 95
2, 308800, Note_on_c, 0, 68, 95
2, 308800, Note_on_c, 0, 64, 95
2, 308800, Note_on_c, 0, 59, 95
2, 308800, Note_on_c, 0, 52, 95
2, 309120, Note_off_c, 0, 71, 95
2, 309120, Note_off_c, 0, 68, 95
2, 309120, Note_off_c, 0, 64, 95
2, 309120, Note_off_c, 0, 59, 95
2, 309120, Note_off_c, 0, 52, 95
2, 309120, Note_on_c, 0, 64, 95
2, 309120, Note_on_c, 0, 59, 95
2, 309120, Note_on_c, 0, 55, 95
2, 309120, Note_on_c, 0, 50, 95
2, 309120, Note_on_c, 0, 45, 95
2, 309192, Note_off_c, 0, 64, 95
2, 309192, Note_off_c, 0, 59, 95
2, 309192, Note_off_c, 0, 55, 95
2, 309192, Note_off_c, 0, 50, 95
2, 309192, Note_off_c, 0, 45, 95
2, 309760, Note_on_c, 0, 64, 95
2, 309760, Note_on_c, 0, 59, 95
2, 309760, Note_on_c, 0, 55, 95
2, 309760, Note_on_c, 0, 50, 95
2, 309760, Note_on_c, 0, 45, 95
2, 309832, Note_off_c, 0, 64, 95
2, 309832, Note_off_c, 0, 59, 95
2, 309832, Note_off_c, 0, 55, 95
2, 309832, Note_off_c, 0, 50, 95
2, 309832, Note_off_c, 0, 45, 95
2, 310080, Note_on_c, 0, 71, 95
2, 310080, Note_on_c, 0, 68, 95
2, 310080, Note_on_c, 0, 64, 95
2, 310080, Note_on_c, 0, 59, 95
2, 310080, Note_on_c, 0, 52, 95
2, 310720, Note_off_c, 0, 71, 95
2, 310720, Note_off_c, 0, 68, 95
2, 310720, Note_off_c, 0, 64, 95
2, 310720, Note_off_c, 0, 59, 95
2, 310720, Note_off_c, 0, 52, 95
2, 310720, Note_on_c, 0, 71, 95
2, 310720, Note_on_c, 0, 68, 95
2, 310720, Note_on_c, 0, 64, 95
2, 310720, Note_on_c, 0, 59, 95
2, 310720, Note_on_c, 0, 52, 95
2, 311040, Note_off_c, 0, 71, 95
2, 311040, Note_off_c, 0, 68, 95
2, 311040, Note_off_c, 0, 64, 95
2, 311040, Note_off_c, 0, 59, 95
2, 311040, Note_off_c, 0, 52, 95
2, 311040, Note_on_c, 0, 64, 95
2, 311040, Note_on_c, 0, 59, 95
2, 311040, Note_on_c, 0, 55, 95
2, 311040, Note_on_c, 0, 50, 95
2, 311040, Note_on_c, 0, 45, 95
2, 311112, Note_off_c, 0, 64, 95
2, 311112, Note_off_c, 0, 59, 95
2, 311112, Note_off_c, 0, 55, 95
2, 311112, Note_off_c, 0, 50, 95
2, 311112, Note_off_c, 0, 45, 95
2, 311680, Note_on_c, 0, 64, 95
2, 311680, Note_on_c, 0, 59, 95
2, 311680, Note_on_c, 0, 55, 95
2, 311680, Note_on_c, 0, 50, 95
2, 311680, Note_on_c, 0, 45, 95
2, 311752, Note_off_c, 0, 64, 95
2, 311752, Note_off_c, 0, 59, 95
2, 311752, Note_off_c, 0, 55, 95
2, 311752, Note_off_c, 0, 50, 95
2, 311752, Note_off_c, 0, 45, 95
2, 312000, Note_on_c, 0, 71, 95
2, 312000, Note_on_c, 0, 67, 95
2, 312000, Note_on_c, 0, 64, 95
2, 312000, Note_on_c, 0, 59, 95
2, 312000, Note_on_c, 0, 52, 95
2, 312640, Note_off_c, 0, 71, 95
2, 312640, Note_off_c, 0, 67, 95
2, 312640, Note_off_c, 0, 64, 95
2, 312640, Note_off_c, 0, 59, 95
2, 312640, Note_off_c, 0, 52, 95
2, 312640, Note_on_c, 0, 71, 95
2, 312640, Note_on_c, 0, 67, 95
2, 312640, Note_on_c, 0, 64, 95
2, 312640, Note_on_c, 0, 59, 95
2, 312640, Note_on_c, 0, 52, 95
2, 312960, Note_off_c, 0, 71, 95
2, 312960, Note_off_c, 0, 67, 95
2, 312960, Note_off_c, 0, 64, 95
2, 312960, Note_off_c, 0, 59, 95
2, 312960, Note_off_c, 0, 52, 95
2, 312960, Note_on_c, 0, 64, 95
2, 312960, Note_on_c, 0, 59, 95
2, 312960, Note_on_c, 0, 55, 95
2, 312960, Note_on_c, 0, 50, 95
2, 312960, Note_on_c, 0, 45, 95
2, 313032, Note_off_c, 0, 64, 95
2, 313032, Note_off_c, 0, 59, 95
2, 313032, Note_off_c, 0, 55, 95
2, 313032, Note_off_c, 0, 50, 95
2, 313032, Note_off_c, 0, 45, 95
2, 313600, Note_on_c, 0, 64, 95
2, 313600, Note_on_c, 0, 59, 95
2, 313600, Note_on_c, 0, 55, 95
2, 313600, Note_on_c, 0, 50, 95
2, 313600, Note_on_c, 0, 45, 95
2, 313672, Note_off_c, 0, 64, 95
2, 313672, Note_off_c, 0, 59, 95
2, 313672, Note_off_c, 0, 55, 95
2, 313672, Note_off_c, 0, 50, 95
2, 313672, Note_off_c, 0, 45, 95
2, 313920, Note_on_c, 0, 71, 95
2, 313920, Note_on_c, 0, 67, 95
2, 313920, Note_on_c, 0, 64, 95
2, 313920, Note_on_c, 0, 59, 95
2, 313920, Note_on_c, 0, 52, 95
2, 314560, Note_off_c, 0, 71, 95
2, 314560, Note_off_c, 0, 67, 95
2, 314560, Note_off_c, 0, 64, 95
2, 314560, Note_off_c, 0, 59, 95
2, 314560, Note_off_c, 0, 52, 95
2, 314560, Note_on_c, 0, 71, 95
2, 314560, Note_on_c, 0, 67, 95
2, 314560, Note_on_c, 0, 64, 95
2, 314560, Note_on_c, 0, 59, 95
2, 314560, Note_on_c, 0, 52, 95
2, 314880, Note_off_c, 0, 71, 95
2, 314880, Note_off_c, 0, 67, 95
2, 314880, Note_off_c, 0, 64, 95
2, 314880, Note_off_c, 0, 59, 95
2, 314880, Note_off_c, 0, 52, 95
2, 322560, Note_on_c, 0, 64, 95
2, 322560, Note_on_c, 0, 59, 95
2, 322560, Note_on_c, 0, 55, 95
2, 322560, Note_on_c, 0, 50, 95
2, 322560, Note_on_c, 0, 45, 95
2, 322632, Note_off_c, 0, 64, 95
2, 322632, Note_off_c, 0, 59, 95
2, 322632, Note_off_c, 0, 55, 95
2, 322632, Note_off_c, 0, 50, 95
2, 322632, Note_off_c, 0, 45, 95
2, 323200, Note_on_c, 0, 64, 95
2, 323200, Note_on_c, 0, 59, 95
2, 323200, Note_on_c, 0, 55, 95
2, 323200, Note_on_c, 0, 50, 95
2, 323200, Note_on_c, 0, 45, 95
2, 323272, Note_off_c, 0, 64, 95
2, 323272, Note_off_c, 0, 59, 95
2, 323272, Note_off_c, 0, 55, 95
2, 323272, Note_off_c, 0, 50, 95
2, 323272, Note_off_c, 0, 45, 95
2, 323520, Note_on_c, 0, 71, 95
2, 323520, Note_on_c, 0, 67, 95
2, 323520, Note_on_c, 0, 64, 95
2, 323520, Note_on_c, 0, 59, 95
2, 323520, Note_on_c, 0, 52, 95
2, 324160, Note_off_c, 0, 71, 95
2, 324160, Note_off_c, 0, 67, 95
2, 324160, Note_off_c, 0, 64, 95
2, 324160, Note_off_c, 0, 59, 95
2, 324160, Note_off_c, 0, 52, 95
2, 324160, Note_on_c, 0, 71, 95
2, 324160, Note_on_c, 0, 67, 95
2, 324160, Note_on_c, 0, 64, 95
2, 324160, Note_on_c, 0, 59, 95
2, 324160, Note_on_c, 0, 52, 95
2, 324480, Note_off_c, 0, 71, 95
2, 324480, Note_off_c, 0, 67, 95
2, 324480, Note_off_c, 0, 64, 95
2, 324480, Note_off_c, 0, 59, 95
2, 324480, Note_off_c, 0, 52, 95
2, 324480, Note_on_c, 0, 64, 95
2, 324480, Note_on_c, 0, 59, 95
2, 324480, Note_on_c, 0, 55, 95
2, 324480, Note_on_c, 0, 50, 95
2, 324480, Note_on_c, 0, 45, 95
2, 324552, Note_off_c, 0, 64, 95
2, 324552, Note_off_c, 0, 59, 95
2, 324552, Note_off_c, 0, 55, 95
2, 324552, Note_off_c, 0, 50, 95
2, 324552, Note_off_c, 0, 45, 95
2, 325120, Note_on_c, 0, 64, 95
2, 325120, Note_on_c, 0, 59, 95
2, 325120, Note_on_c, 0, 55, 95
2, 325120, Note_on_c, 0, 50, 95
2, 325120, Note_on_c, 0, 45, 95
2, 325192, Note_off_c, 0, 64, 95
2, 325192, Note_off_c, 0, 59, 95
2, 325192, Note_off_c, 0, 55, 95
2, 325192, Note_off_c, 0, 50, 95
2, 325192, Note_off_c, 0, 45, 95
2, 325440, Note_on_c, 0, 71, 95
2, 325440, Note_on_c, 0, 67, 95
2, 325440, Note_on_c, 0, 64, 95
2, 325440, Note_on_c, 0, 59, 95
2, 325440, Note_on_c, 0, 52, 95
2, 326400, Note_off_c, 0, 71, 95
2, 326400, Note_off_c, 0, 67, 95
2, 326400, Note_off_c, 0, 64, 95
2, 326400, Note_off_c, 0, 59, 95
2, 326400, Note_off_c, 0, 52, 95
2, 326400, Note_on_c, 0, 66, 95
2, 326400, Note_on_c, 0, 62, 95
2, 326400, Note_on_c, 0, 57, 95
2, 326400, Note_on_c, 0, 50, 95
2, 327040, Note_off_c, 0, 66, 95
2, 327040, Note_off_c, 0, 62, 95
2, 327040, Note_off_c, 0, 57, 95
2, 327040, Note_off_c, 0, 50, 95
2, 327040, Note_on_c, 0, 66, 95
2, 327040, Note_on_c, 0, 62, 95
2, 327040, Note_on_c, 0, 57, 95
2, 327040, Note_on_c, 0, 50, 95
2, 327360, Note_off_c, 0, 66, 95
2, 327360, Note_off_c, 0, 62, 95
2, 327360, Note_off_c, 0, 57, 95
2, 327360, Note_off_c, 0, 50, 95
2, 327360, Note_on_c, 0, 66, 95
2, 327360, Note_on_c, 0, 62, 95
2, 327360, Note_on_c, 0, 57, 95
2, 327360, Note_on_c, 0, 50, 95
2, 328000, Note_off_c, 0, 66, 95
2, 328000, Note_off_c, 0, 62, 95
2, 328000, Note_off_c, 0, 57, 95
2, 328000, Note_off_c, 0, 50, 95
2, 328000, Note_on_c, 0, 66, 95
2, 328000, Note_on_c, 0, 62, 95
2, 328000, Note_on_c, 0, 57, 95
2, 328000, Note_on_c, 0, 50, 95
2, 328320, Note_off_c, 0, 66, 95
2, 328320, Note_off_c, 0, 62, 95
2, 328320, Note_off_c, 0, 57, 95
2, 328320, Note_off_c, 0, 50, 95
2, 328320, Note_on_c, 0, 66, 95
2, 328320, Note_on_c, 0, 62, 95
2, 328320, Note_on_c, 0, 57, 95
2, 328320, Note_on_c, 0, 50, 95
2, 329280, Note_off_c, 0, 66, 95
2, 329280, Note_off_c, 0, 62, 95
2, 329280, Note_off_c, 0, 57, 95
2, 329280, Note_off_c, 0, 50, 95
2, 329280, Note_on_c, 0, 66, 95
2, 329280, Note_on_c, 0, 62, 95
2, 329280, Note_on_c, 0, 57, 95
2, 329280, Note_on_c, 0, 50, 95
2, 329920, Note_off_c, 0, 66, 95
2, 329920, Note_off_c, 0, 62, 95
2, 329920, Note_off_c, 0, 57, 95
2, 329920, Note_off_c, 0, 50, 95
2, 329920, Note_on_c, 0, 66, 95
2, 329920, Note_on_c, 0, 62, 95
2, 329920, Note_on_c, 0, 57, 95
2, 329920, Note_on_c, 0, 50, 95
2, 330720, Note_off_c, 0, 66, 95
2, 330720, Note_off_c, 0, 62, 95
2, 330720, Note_off_c, 0, 57, 95
2, 330720, Note_off_c, 0, 50, 95
2, 330880, Note_on_c, 0, 66, 95
2, 330880, Note_on_c, 0, 62, 95
2, 330880, Note_on_c, 0, 57, 95
2, 330880, Note_on_c, 0, 50, 95
2, 331200, Note_off_c, 0, 66, 95
2, 331200, Note_off_c, 0, 62, 95
2, 331200, Note_off_c, 0, 57, 95
2, 331200, Note_off_c, 0, 50, 95
2, 331200, Note_on_c, 0, 66, 95
2, 331200, Note_on_c, 0, 62, 95
2, 331200, Note_on_c, 0, 57, 95
2, 331200, Note_on_c, 0, 50, 95
2, 332160, Note_off_c, 0, 66, 95
2, 332160, Note_off_c, 0, 62, 95
2, 332160, Note_off_c, 0, 57, 95
2, 332160, Note_off_c, 0, 50, 95
2, 332160, Note_on_c, 0, 66, 95
2, 332160, Note_on_c, 0, 62, 95
2, 332160, Note_on_c, 0, 57, 95
2, 332160, Note_on_c, 0, 50, 95
2, 333120, Note_off_c, 0, 66, 95
2, 333120, Note_off_c, 0, 62, 95
2, 333120, Note_off_c, 0, 57, 95
2, 333120, Note_off_c, 0, 50, 95
2, 333120, Note_on_c, 0, 66, 95
2, 333120, Note_on_c, 0, 62, 95
2, 333120, Note_on_c, 0, 57, 95
2, 333120, Note_on_c, 0, 50, 95
2, 334080, Note_off_c, 0, 66, 95
2, 334080, Note_off_c, 0, 62, 95
2, 334080, Note_off_c, 0, 57, 95
2, 334080, Note_off_c, 0, 50, 95
2, 334080, Note_on_c, 0, 71, 95
2, 334080, Note_on_c, 0, 67, 95
2, 334080, Note_on_c, 0, 64, 95
2, 334080, Note_on_c, 0, 59, 95
2, 334080, Note_on_c, 0, 52, 95
2, 335040, Note_off_c, 0, 71, 95
2, 335040, Note_off_c, 0, 67, 95
2, 335040, Note_off_c, 0, 64, 95
2, 335040, Note_off_c, 0, 59, 95
2, 335040, Note_off_c, 0, 52, 95
2, 335040, Note_on_c, 0, 71, 95
2, 335040, Note_on_c, 0, 67, 95
2, 335040, Note_on_c, 0, 64, 95
2, 335040, Note_on_c, 0, 59, 95
2, 335040, Note_on_c, 0, 52, 95
2, 336000, Note_off_c, 0, 71, 95
2, 336000, Note_off_c, 0, 67, 95
2, 336000, Note_off_c, 0, 64, 95
2, 336000, Note_off_c, 0, 59, 95
2, 336000, Note_off_c, 0, 52, 95
2, 336000, Note_on_c, 0, 71, 95
2, 336000, Note_on_c, 0, 67, 95
2, 336000, Note_on_c, 0, 64, 95
2, 336000, Note_on_c, 0, 59, 95
2, 336000, Note_on_c, 0, 52, 95
2, 336960, Note_off_c, 0, 71, 95
2, 336960, Note_off_c, 0, 67, 95
2, 336960, Note_off_c, 0, 64, 95
2, 336960, Note_off_c, 0, 59, 95
2, 336960, Note_off_c, 0, 52, 95
2, 336960, Note_on_c, 0, 71, 95
2, 336960, Note_on_c, 0, 67, 95
2, 336960, Note_on_c, 0, 64, 95
2, 336960, Note_on_c, 0, 59, 95
2, 336960, Note_on_c, 0, 52, 95
2, 337920, Note_off_c, 0, 71, 95
2, 337920, Note_off_c, 0, 67, 95
2, 337920, Note_off_c, 0, 64, 95
2, 337920, Note_off_c, 0, 59, 95
2, 337920, Note_off_c, 0, 52, 95
2, 337920, Note_on_c, 0, 71, 95
2, 337920, Note_on_c, 0, 67, 95
2, 337920, Note_on_c, 0, 64, 95
2, 337920, Note_on_c, 0, 59, 95
2, 337920, Note_on_c, 0, 52, 95
2, 338880, Note_off_c, 0, 71, 95
2, 338880, Note_off_c, 0, 67, 95
2, 338880, Note_off_c, 0, 64, 95
2, 338880, Note_off_c, 0, 59, 95
2, 338880, Note_off_c, 0, 52, 95
2, 338880, Note_on_c, 0, 71, 95
2, 338880, Note_on_c, 0, 67, 95
2, 338880, Note_on_c, 0, 64, 95
2, 338880, Note_on_c, 0, 59, 95
2, 338880, Note_on_c, 0, 52, 95
2, 339840, Note_off_c, 0, 71, 95
2, 339840, Note_off_c, 0, 67, 95
2, 339840, Note_off_c, 0, 64, 95
2, 339840, Note_off_c, 0, 59, 95
2, 339840, Note_off_c, 0, 52, 95
2, 339840, Note_on_c, 0, 71, 95
2, 339840, Note_on_c, 0, 67, 95
2, 339840, Note_on_c, 0, 64, 95
2, 339840, Note_on_c, 0, 59, 95
2, 339840, Note_on_c, 0, 52, 95
2, 340800, Note_off_c, 0, 71, 95
2, 340800, Note_off_c, 0, 67, 95
2, 340800, Note_off_c, 0, 64, 95
2, 340800, Note_off_c, 0, 59, 95
2, 340800, Note_off_c, 0, 52, 95
2, 340800, Note_on_c, 0, 71, 95
2, 340800, Note_on_c, 0, 67, 95
2, 340800, Note_on_c, 0, 64, 95
2, 340800, Note_on_c, 0, 59, 95
2, 340800, Note_on_c, 0, 52, 95
2, 341760, Note_off_c, 0, 71, 95
2, 341760, Note_off_c, 0, 67, 95
2, 341760, Note_off_c, 0, 64, 95
2, 341760, Note_off_c, 0, 59, 95
2, 341760, Note_off_c, 0, 52, 95
2, 341760, Note_on_c, 0, 71, 95
2, 341760, Note_on_c, 0, 67, 95
2, 341760, Note_on_c, 0, 64, 95
2, 341760, Note_on_c, 0, 59, 95
2, 341760, Note_on_c, 0, 52, 95
2, 342720, Note_off_c, 0, 71, 95
2, 342720, Note_off_c, 0, 67, 95
2, 342720, Note_off_c, 0, 64, 95
2, 342720, Note_off_c, 0, 59, 95
2, 342720, Note_off_c, 0, 52, 95
2, 342720, Note_on_c, 0, 71, 95
2, 342720, Note_on_c, 0, 67, 95
2, 342720, Note_on_c, 0, 64, 95
2, 342720, Note_on_c, 0, 59, 95
2, 342720, Note_on_c, 0, 52, 95
2, 343680, Note_off_c, 0, 71, 95
2, 343680, Note_off_c, 0, 67, 95
2, 343680, Note_off_c, 0, 64, 95
2, 343680, Note_off_c, 0, 59, 95
2, 343680, Note_off_c, 0, 52, 95
2, 343680, Note_on_c, 0, 71, 95
2, 343680, Note_on_c, 0, 67, 95
2, 343680, Note_on_c, 0, 64, 95
2, 343680, Note_on_c, 0, 59, 95
2, 343680, Note_on_c, 0, 52, 95
2, 344640, Note_off_c, 0, 71, 95
2, 344640, Note_off_c, 0, 67, 95
2, 344640, Note_off_c, 0, 64, 95
2, 344640, Note_off_c, 0, 59, 95
2, 344640, Note_off_c, 0, 52, 95
2, 344640, Note_on_c, 0, 71, 95
2, 344640, Note_on_c, 0, 67, 95
2, 344640, Note_on_c, 0, 64, 95
2, 344640, Note_on_c, 0, 59, 95
2, 344640, Note_on_c, 0, 52, 95
2, 345600, Note_off_c, 0, 71, 95
2, 345600, Note_off_c, 0, 67, 95
2, 345600, Note_off_c, 0, 64, 95
2, 345600, Note_off_c, 0, 59, 95
2, 345600, Note_off_c, 0, 52, 95
2, 345600, Note_on_c, 0, 71, 95
2, 345600, Note_on_c, 0, 67, 95
2, 345600, Note_on_c, 0, 64, 95
2, 345600, Note_on_c, 0, 59, 95
2, 345600, Note_on_c, 0, 52, 95
2, 346560, Note_off_c, 0, 71, 95
2, 346560, Note_off_c, 0, 67, 95
2, 346560, Note_off_c, 0, 64, 95
2, 346560, Note_off_c, 0, 59, 95
2, 346560, Note_off_c, 0, 52, 95
2, 346560, Note_on_c, 0, 71, 95
2, 346560, Note_on_c, 0, 67, 95
2, 346560, Note_on_c, 0, 64, 95
2, 346560, Note_on_c, 0, 59, 95
2, 346560, Note_on_c, 0, 52, 95
2, 347520, Note_off_c, 0, 71, 95
2, 347520, Note_off_c, 0, 67, 95
2, 347520, Note_off_c, 0, 64, 95
2, 347520, Note_off_c, 0, 59, 95
2, 347520, Note_off_c, 0, 52, 95
2, 347520, Note_on_c, 0, 71, 95
2, 347520, Note_on_c, 0, 67, 95
2, 347520, Note_on_c, 0, 64, 95
2, 347520, Note_on_c, 0, 59, 95
2, 347520, Note_on_c, 0, 52, 95
2, 348480, Note_off_c, 0, 71, 95
2, 348480, Note_off_c, 0, 67, 95
2, 348480, Note_off_c, 0, 64, 95
2, 348480, Note_off_c, 0, 59, 95
2, 348480, Note_off_c, 0, 52, 95
2, 348480, Note_on_c, 0, 71, 95
2, 348480, Note_on_c, 0, 67, 95
2, 348480, Note_on_c, 0, 64, 95
2, 348480, Note_on_c, 0, 59, 95
2, 348480, Note_on_c, 0, 52, 95
2, 349440, Note_off_c, 0, 71, 95
2, 349440, Note_off_c, 0, 67, 95
2, 349440, Note_off_c, 0, 64, 95
2, 349440, Note_off_c, 0, 59, 95
2, 349440, Note_off_c, 0, 52, 95
2, 364800, Note_on_c, 0, 71, 95
2, 364800, Note_on_c, 0, 67, 95
2, 364800, Note_on_c, 0, 64, 95
2, 364800, Note_on_c, 0, 59, 95
2, 364800, Note_on_c, 0, 52, 95
2, 365760, Note_off_c, 0, 71, 95
2, 365760, Note_off_c, 0, 67, 95
2, 365760, Note_off_c, 0, 64, 95
2, 365760, Note_off_c, 0, 59, 95
2, 365760, Note_off_c, 0, 52, 95
2, 365760, Note_on_c, 0, 71, 95
2, 365760, Note_on_c, 0, 67, 95
2, 365760, Note_on_c, 0, 64, 95
2, 365760, Note_on_c, 0, 59, 95
2, 365760, Note_on_c, 0, 52, 95
2, 366720, Note_off_c, 0, 71, 95
2, 366720, Note_off_c, 0, 67, 95
2, 366720, Note_off_c, 0, 64, 95
2, 366720, Note_off_c, 0, 59, 95
2, 366720, Note_off_c, 0, 52, 95
2, 366720, Note_on_c, 0, 71, 95
2, 366720, Note_on_c, 0, 67, 95
2, 366720, Note_on_c, 0, 64, 95
2, 366720, Note_on_c, 0, 59, 95
2, 366720, Note_on_c, 0, 52, 95
2, 367680, Note_off_c, 0, 71, 95
2, 367680, Note_off_c, 0, 67, 95
2, 367680, Note_off_c, 0, 64, 95
2, 367680, Note_off_c, 0, 59, 95
2, 367680, Note_off_c, 0, 52, 95
2, 367680, Note_on_c, 0, 71, 95
2, 367680, Note_on_c, 0, 67, 95
2, 367680, Note_on_c, 0, 64, 95
2, 367680, Note_on_c, 0, 59, 95
2, 367680, Note_on_c, 0, 52, 95
2, 368640, Note_off_c, 0, 71, 95
2, 368640, Note_off_c, 0, 67, 95
2, 368640, Note_off_c, 0, 64, 95
2, 368640, Note_off_c, 0, 59, 95
2, 368640, Note_off_c, 0, 52, 95
2, 368640, Note_on_c, 0, 71, 95
2, 368640, Note_on_c, 0, 67, 95
2, 368640, Note_on_c, 0, 64, 95
2, 368640, Note_on_c, 0, 59, 95
2, 368640, Note_on_c, 0, 52, 95
2, 369600, Note_off_c, 0, 71, 95
2, 369600, Note_off_c, 0, 67, 95
2, 369600, Note_off_c, 0, 64, 95
2, 369600, Note_off_c, 0, 59, 95
2, 369600, Note_off_c, 0, 52, 95
2, 369600, Note_on_c, 0, 71, 95
2, 369600, Note_on_c, 0, 67, 95
2, 369600, Note_on_c, 0, 64, 95
2, 369600, Note_on_c, 0, 59, 95
2, 369600, Note_on_c, 0, 52, 95
2, 370560, Note_off_c, 0, 71, 95
2, 370560, Note_off_c, 0, 67, 95
2, 370560, Note_off_c, 0, 64, 95
2, 370560, Note_off_c, 0, 59, 95
2, 370560, Note_off_c, 0, 52, 95
2, 370560, Note_on_c, 0, 71, 95
2, 370560, Note_on_c, 0, 67, 95
2, 370560, Note_on_c, 0, 64, 95
2, 370560, Note_on_c, 0, 59, 95
2, 370560, Note_on_c, 0, 52, 95
2, 371520, Note_off_c, 0, 71, 95
2, 371520, Note_off_c, 0, 67, 95
2, 371520, Note_off_c, 0, 64, 95
2, 371520, Note_off_c, 0, 59, 95
2, 371520, Note_off_c, 0, 52, 95
2, 371520, Note_on_c, 0, 71, 95
2, 371520, Note_on_c, 0, 67, 95
2, 371520, Note_on_c, 0, 64, 95
2, 371520, Note_on_c, 0, 59, 95
2, 371520, Note_on_c, 0, 52, 95
2, 372480, Note_off_c, 0, 71, 95
2, 372480, Note_off_c, 0, 67, 95
2, 372480, Note_off_c, 0, 64, 95
2, 372480, Note_off_c, 0, 59, 95
2, 372480, Note_off_c, 0, 52, 95
2, 372480, Note_on_c, 0, 71, 95
2, 372480, Note_on_c, 0, 67, 95
2, 372480, Note_on_c, 0, 64, 95
2, 372480, Note_on_c, 0, 59, 95
2, 372480, Note_on_c, 0, 52, 95
2, 373440, Note_off_c, 0, 71, 95
2, 373440, Note_off_c, 0, 67, 95
2, 373440, Note_off_c, 0, 64, 95
2, 373440, Note_off_c, 0, 59, 95
2, 373440, Note_off_c, 0, 52, 95
2, 373440, Note_on_c, 0, 71, 95
2, 373440, Note_on_c, 0, 67, 95
2, 373440, Note_on_c, 0, 64, 95
2, 373440, Note_on_c, 0, 59, 95
2, 373440, Note_on_c, 0, 52, 95
2, 374400, Note_off_c, 0, 71, 95
2, 374400, Note_off_c, 0, 67, 95
2, 374400, Note_off_c, 0, 64, 95
2, 374400, Note_off_c, 0, 59, 95
2, 374400, Note_off_c, 0, 52, 95
2, 374400, Note_on_c, 0, 71, 95
2, 374400, Note_on_c, 0, 67, 95
2, 374400, Note_on_c, 0, 64, 95
2, 374400, Note_on_c, 0, 59, 95
2, 374400, Note_on_c, 0, 52, 95
2, 375360, Note_off_c, 0, 71, 95
2, 375360, Note_off_c, 0, 67, 95
2, 375360, Note_off_c, 0, 64, 95
2, 375360, Note_off_c, 0, 59, 95
2, 375360, Note_off_c, 0, 52, 95
2, 375360, Note_on_c, 0, 71, 95
2, 375360, Note_on_c, 0, 67, 95
2, 375360, Note_on_c, 0, 64, 95
2, 375360, Note_on_c, 0, 59, 95
2, 375360, Note_on_c, 0, 52, 95
2, 376320, Note_off_c, 0, 71, 95
2, 376320, Note_off_c, 0, 67, 95
2, 376320, Note_off_c, 0, 64, 95
2, 376320, Note_off_c, 0, 59, 95
2, 376320, Note_off_c, 0, 52, 95
2, 376320, Note_on_c, 0, 71, 95
2, 376320, Note_on_c, 0, 67, 95
2, 376320, Note_on_c, 0, 64, 95
2, 376320, Note_on_c, 0, 59, 95
2, 376320, Note_on_c, 0, 52, 95
2, 377280, Note_off_c, 0, 71, 95
2, 377280, Note_off_c, 0, 67, 95
2, 377280, Note_off_c, 0, 64, 95
2, 377280, Note_off_c, 0, 59, 95
2, 377280, Note_off_c, 0, 52, 95
2, 377280, Note_on_c, 0, 71, 95
2, 377280, Note_on_c, 0, 67, 95
2, 377280, Note_on_c, 0, 64, 95
2, 377280, Note_on_c, 0, 59, 95
2, 377280, Note_on_c, 0, 52, 95
2, 378240, Note_off_c, 0, 71, 95
2, 378240, Note_off_c, 0, 67, 95
2, 378240, Note_off_c, 0, 64, 95
2, 378240, Note_off_c, 0, 59, 95
2, 378240, Note_off_c, 0, 52, 95
2, 378240, Note_on_c, 0, 71, 95
2, 378240, Note_on_c, 0, 67, 95
2, 378240, Note_on_c, 0, 64, 95
2, 378240, Note_on_c, 0, 59, 95
2, 378240, Note_on_c, 0, 52, 95
2, 379200, Note_off_c, 0, 71, 95
2, 379200, Note_off_c, 0, 67, 95
2, 379200, Note_off_c, 0, 64, 95
2, 379200, Note_off_c, 0, 59, 95
2, 379200, Note_off_c, 0, 52, 95
2, 379200, Note_on_c, 0, 71, 95
2, 379200, Note_on_c, 0, 67, 95
2, 379200, Note_on_c, 0, 64, 95
2, 379200, Note_on_c, 0, 59, 95
2, 379200, Note_on_c, 0, 52, 95
2, 380160, Note_off_c, 0, 71, 95
2, 380160, Note_off_c, 0, 67, 95
2, 380160, Note_off_c, 0, 64, 95
2, 380160, Note_off_c, 0, 59, 95
2, 380160, Note_off_c, 0, 52, 95
2, 380160, Note_on_c, 0, 71, 95
2, 380160, Note_on_c, 0, 67, 95
2, 380160, Note_on_c, 0, 64, 95
2, 380160, Note_on_c, 0, 59, 95
2, 380160, Note_on_c, 0, 52, 95
2, 381120, Note_off_c, 0, 71, 95
2, 381120, Note_off_c, 0, 67, 95
2, 381120, Note_off_c, 0, 64, 95
2, 381120, Note_off_c, 0, 59, 95
2, 381120, Note_off_c, 0, 52, 95
2, 381120, Note_on_c, 0, 71, 95
2, 381120, Note_on_c, 0, 67, 95
2, 381120, Note_on_c, 0, 64, 95
2, 381120, Note_on_c, 0, 59, 95
2, 381120, Note_on_c, 0, 52, 95
2, 382080, Note_off_c, 0, 71, 95
2, 382080, Note_off_c, 0, 67, 95
2, 382080, Note_off_c, 0, 64, 95
2, 382080, Note_off_c, 0, 59, 95
2, 382080, Note_off_c, 0, 52, 95
2, 382080, Note_on_c, 0, 71, 95
2, 382080, Note_on_c, 0, 67, 95
2, 382080, Note_on_c, 0, 64, 95
2, 382080, Note_on_c, 0, 59, 95
2, 382080, Note_on_c, 0, 52, 95
2, 383040, Note_off_c, 0, 71, 95
2, 383040, Note_off_c, 0, 67, 95
2, 383040, Note_off_c, 0, 64, 95
2, 383040, Note_off_c, 0, 59, 95
2, 383040, Note_off_c, 0, 52, 95
2, 383040, Note_on_c, 0, 71, 95
2, 383040, Note_on_c, 0, 67, 95
2, 383040, Note_on_c, 0, 64, 95
2, 383040, Note_on_c, 0, 59, 95
2, 383040, Note_on_c, 0, 52, 95
2, 384000, Note_off_c, 0, 71, 95
2, 384000, Note_off_c, 0, 67, 95
2, 384000, Note_off_c, 0, 64, 95
2, 384000, Note_off_c, 0, 59, 95
2, 384000, Note_off_c, 0, 52, 95
2, 384000, Note_on_c, 0, 71, 95
2, 384000, Note_on_c, 0, 67, 95
2, 384000, Note_on_c, 0, 64, 95
2, 384000, Note_on_c, 0, 59, 95
2, 384000, Note_on_c, 0, 52, 95
2, 384960, Note_off_c, 0, 71, 95
2, 384960, Note_off_c, 0, 67, 95
2, 384960, Note_off_c, 0, 64, 95
2, 384960, Note_off_c, 0, 59, 95
2, 384960, Note_off_c, 0, 52, 95
2, 384960, Note_on_c, 0, 71, 95
2, 384960, Note_on_c, 0, 67, 95
2, 384960, Note_on_c, 0, 64, 95
2, 384960, Note_on_c, 0, 59, 95
2, 384960, Note_on_c, 0, 52, 95
2, 385920, Note_off_c, 0, 71, 95
2, 385920, Note_off_c, 0, 67, 95
2, 385920, Note_off_c, 0, 64, 95
2, 385920, Note_off_c, 0, 59, 95
2, 385920, Note_off_c, 0, 52, 95
2, 385920, Note_on_c, 0, 71, 95
2, 385920, Note_on_c, 0, 67, 95
2, 385920, Note_on_c, 0, 64, 95
2, 385920, Note_on_c, 0, 59, 95
2, 385920, Note_on_c, 0, 52, 95
2, 386880, Note_off_c, 0, 71, 95
2, 386880, Note_off_c, 0, 67, 95
2, 386880, Note_off_c, 0, 64, 95
2, 386880, Note_off_c, 0, 59, 95
2, 386880, Note_off_c, 0, 52, 95
2, 386880, Note_on_c, 0, 71, 95
2, 386880, Note_on_c, 0, 67, 95
2, 386880, Note_on_c, 0, 64, 95
2, 386880, Note_on_c, 0, 59, 95
2, 386880, Note_on_c, 0, 52, 95
2, 387840, Note_off_c, 0, 71, 95
2, 387840, Note_off_c, 0, 67, 95
2, 387840, Note_off_c, 0, 64, 95
2, 387840, Note_off_c, 0, 59, 95
2, 387840, Note_off_c, 0, 52, 95
2, 387840, Note_on_c, 0, 71, 95
2, 387840, Note_on_c, 0, 67, 95
2, 387840, Note_on_c, 0, 64, 95
2, 387840, Note_on_c, 0, 59, 95
2, 387840, Note_on_c, 0, 52, 95
2, 388800, Note_off_c, 0, 71, 95
2, 388800, Note_off_c, 0, 67, 95
2, 388800, Note_off_c, 0, 64, 95
2, 388800, Note_off_c, 0, 59, 95
2, 388800, Note_off_c, 0, 52, 95
2, 388800, Note_on_c, 0, 71, 95
2, 388800, Note_on_c, 0, 67, 95
2, 388800, Note_on_c, 0, 64, 95
2, 388800, Note_on_c, 0, 59, 95
2, 388800, Note_on_c, 0, 52, 95
2, 389760, Note_off_c, 0, 71, 95
2, 389760, Note_off_c, 0, 67, 95
2, 389760, Note_off_c, 0, 64, 95
2, 389760, Note_off_c, 0, 59, 95
2, 389760, Note_off_c, 0, 52, 95
2, 389760, Note_on_c, 0, 71, 95
2, 389760, Note_on_c, 0, 67, 95
2, 389760, Note_on_c, 0, 64, 95
2, 389760, Note_on_c, 0, 59, 95
2, 389760, Note_on_c, 0, 52, 95
2, 390720, Note_off_c, 0, 71, 95
2, 390720, Note_off_c, 0, 67, 95
2, 390720, Note_off_c, 0, 64, 95
2, 390720, Note_off_c, 0, 59, 95
2, 390720, Note_off_c, 0, 52, 95
2, 390720, Note_on_c, 0, 71, 95
2, 390720, Note_on_c, 0, 67, 95
2, 390720, Note_on_c, 0, 64, 95
2, 390720, Note_on_c, 0, 59, 95
2, 390720, Note_on_c, 0, 52, 95
2, 391680, Note_off_c, 0, 71, 95
2, 391680, Note_off_c, 0, 67, 95
2, 391680, Note_off_c, 0, 64, 95
2, 391680, Note_off_c, 0, 59, 95
2, 391680, Note_off_c, 0, 52, 95
2, 391680, Note_on_c, 0, 71, 95
2, 391680, Note_on_c, 0, 67, 95
2, 391680, Note_on_c, 0, 64, 95
2, 391680, Note_on_c, 0, 59, 95
2, 391680, Note_on_c, 0, 52, 95
2, 392640, Note_off_c, 0, 71, 95
2, 392640, Note_off_c, 0, 67, 95
2, 392640, Note_off_c, 0, 64, 95
2, 392640, Note_off_c, 0, 59, 95
2, 392640, Note_off_c, 0, 52, 95
2, 392640, Note_on_c, 0, 71, 95
2, 392640, Note_on_c, 0, 67, 95
2, 392640, Note_on_c, 0, 64, 95
2, 392640, Note_on_c, 0, 59, 95
2, 392640, Note_on_c, 0, 52, 95
2, 393600, Note_off_c, 0, 71, 95
2, 393600, Note_off_c, 0, 67, 95
2, 393600, Note_off_c, 0, 64, 95
2, 393600, Note_off_c, 0, 59, 95
2, 393600, Note_off_c, 0, 52, 95
2, 393600, Note_on_c, 0, 71, 95
2, 393600, Note_on_c, 0, 67, 95
2, 393600, Note_on_c, 0, 64, 95
2, 393600, Note_on_c, 0, 59, 95
2, 393600, Note_on_c, 0, 52, 95
2, 394560, Note_off_c, 0, 71, 95
2, 394560, Note_off_c, 0, 67, 95
2, 394560, Note_off_c, 0, 64, 95
2, 394560, Note_off_c, 0, 59, 95
2, 394560, Note_off_c, 0, 52, 95
2, 394560, Note_on_c, 0, 71, 95
2, 394560, Note_on_c, 0, 67, 95
2, 394560, Note_on_c, 0, 64, 95
2, 394560, Note_on_c, 0, 59, 95
2, 394560, Note_on_c, 0, 52, 95
2, 395520, Note_off_c, 0, 71, 95
2, 395520, Note_off_c, 0, 67, 95
2, 395520, Note_off_c, 0, 64, 95
2, 395520, Note_off_c, 0, 59, 95
2, 395520, Note_off_c, 0, 52, 95
2, 395520, Note_on_c, 0, 71, 95
2, 395520, Note_on_c, 0, 67, 95
2, 395520, Note_on_c, 0, 64, 95
2, 395520, Note_on_c, 0, 59, 95
2, 395520, Note_on_c, 0, 52, 95
2, 396480, Note_off_c, 0, 71, 95
2, 396480, Note_off_c, 0, 67, 95
2, 396480, Note_off_c, 0, 64, 95
2, 396480, Note_off_c, 0, 59, 95
2, 396480, Note_off_c, 0, 52, 95
2, 396480, Note_on_c, 0, 71, 95
2, 396480, Note_on_c, 0, 67, 95
2, 396480, Note_on_c, 0, 64, 95
2, 396480, Note_on_c, 0, 59, 95
2, 396480, Note_on_c, 0, 52, 95
2, 397440, Note_off_c, 0, 71, 95
2, 397440, Note_off_c, 0, 67, 95
2, 397440, Note_off_c, 0, 64, 95
2, 397440, Note_off_c, 0, 59, 95
2, 397440, Note_off_c, 0, 52, 95
2, 397440, Note_on_c, 0, 71, 95
2, 397440, Note_on_c, 0, 67, 95
2, 397440, Note_on_c, 0, 64, 95
2, 397440, Note_on_c, 0, 59, 95
2, 397440, Note_on_c, 0, 52, 95
2, 398400, Note_off_c, 0, 71, 95
2, 398400, Note_off_c, 0, 67, 95
2, 398400, Note_off_c, 0, 64, 95
2, 398400, Note_off_c, 0, 59, 95
2, 398400, Note_off_c, 0, 52, 95
2, 398400, Note_on_c, 0, 71, 95
2, 398400, Note_on_c, 0, 67, 95
2, 398400, Note_on_c, 0, 64, 95
2, 398400, Note_on_c, 0, 59, 95
2, 398400, Note_on_c, 0, 52, 95
2, 399360, Note_off_c, 0, 71, 95
2, 399360, Note_off_c, 0, 67, 95
2, 399360, Note_off_c, 0, 64, 95
2, 399360, Note_off_c, 0, 59, 95
2, 399360, Note_off_c, 0, 52, 95
2, 399360, Note_on_c, 0, 71, 95
2, 399360, Note_on_c, 0, 67, 95
2, 399360, Note_on_c, 0, 64, 95
2, 399360, Note_on_c, 0, 59, 95
2, 399360, Note_on_c, 0, 52, 95
2, 400320, Note_off_c, 0, 71, 95
2, 400320, Note_off_c, 0, 67, 95
2, 400320, Note_off_c, 0, 64, 95
2, 400320, Note_off_c, 0, 59, 95
2, 400320, Note_off_c, 0, 52, 95
2, 400320, Note_on_c, 0, 71, 95
2, 400320, Note_on_c, 0, 67, 95
2, 400320, Note_on_c, 0, 64, 95
2, 400320, Note_on_c, 0, 59, 95
2, 400320, Note_on_c, 0, 52, 95
2, 401280, Note_off_c, 0, 71, 95
2, 401280, Note_off_c, 0, 67, 95
2, 401280, Note_off_c, 0, 64, 95
2, 401280, Note_off_c, 0, 59, 95
2, 401280, Note_off_c, 0, 52, 95
2, 401280, Note_on_c, 0, 71, 95
2, 401280, Note_on_c, 0, 67, 95
2, 401280, Note_on_c, 0, 64, 95
2, 401280, Note_on_c, 0, 59, 95
2, 401280, Note_on_c, 0, 52, 95
2, 402240, Note_off_c, 0, 71, 95
2, 402240, Note_off_c, 0, 67, 95
2, 402240, Note_off_c, 0, 64, 95
2, 402240, Note_off_c, 0, 59, 95
2, 402240, Note_off_c, 0, 52, 95
2, 402240, Note_on_c, 0, 71, 95
2, 402240, Note_on_c, 0, 67, 95
2, 402240, Note_on_c, 0, 64, 95
2, 402240, Note_on_c, 0, 59, 95
2, 402240, Note_on_c, 0, 52, 95
2, 403200, Note_off_c, 0, 71, 95
2, 403200, Note_off_c, 0, 67, 95
2, 403200, Note_off_c, 0, 64, 95
2, 403200, Note_off_c, 0, 59, 95
2, 403200, Note_off_c, 0, 52, 95
2, 403200, Note_on_c, 0, 71, 95
2, 403200, Note_on_c, 0, 67, 95
2, 403200, Note_on_c, 0, 64, 95
2, 403200, Note_on_c, 0, 59, 95
2, 403200, Note_on_c, 0, 52, 95
2, 404160, Note_off_c, 0, 71, 95
2, 404160, Note_off_c, 0, 67, 95
2, 404160, Note_off_c, 0, 64, 95
2, 404160, Note_off_c, 0, 59, 95
2, 404160, Note_off_c, 0, 52, 95
2, 404160, Note_on_c, 0, 71, 95
2, 404160, Note_on_c, 0, 67, 95
2, 404160, Note_on_c, 0, 64, 95
2, 404160, Note_on_c, 0, 59, 95
2, 404160, Note_on_c, 0, 52, 95
2, 405120, Note_off_c, 0, 71, 95
2, 405120, Note_off_c, 0, 67, 95
2, 405120, Note_off_c, 0, 64, 95
2, 405120, Note_off_c, 0, 59, 95
2, 405120, Note_off_c, 0, 52, 95
2, 405120, Note_on_c, 0, 71, 95
2, 405120, Note_on_c, 0, 67, 95
2, 405120, Note_on_c, 0, 64, 95
2, 405120, Note_on_c, 0, 59, 95
2, 405120, Note_on_c, 0, 52, 95
2, 406080, Note_off_c, 0, 71, 95
2, 406080, Note_off_c, 0, 67, 95
2, 406080, Note_off_c, 0, 64, 95
2, 406080, Note_off_c, 0, 59, 95
2, 406080, Note_off_c, 0, 52, 95
2, 406080, Note_on_c, 0, 71, 95
2, 406080, Note_on_c, 0, 67, 95
2, 406080, Note_on_c, 0, 64, 95
2, 406080, Note_on_c, 0, 59, 95
2, 406080, Note_on_c, 0, 52, 95
2, 407040, Note_off_c, 0, 71, 95
2, 407040, Note_off_c, 0, 67, 95
2, 407040, Note_off_c, 0, 64, 95
2, 407040, Note_off_c, 0, 59, 95
2, 407040, Note_off_c, 0, 52, 95
2, 407040, Note_on_c, 0, 71, 95
2, 407040, Note_on_c, 0, 67, 95
2, 407040, Note_on_c, 0, 64, 95
2, 407040, Note_on_c, 0, 59, 95
2, 407040, Note_on_c, 0, 52, 95
2, 408000, Note_off_c, 0, 71, 95
2, 408000, Note_off_c, 0, 67, 95
2, 408000, Note_off_c, 0, 64, 95
2, 408000, Note_off_c, 0, 59, 95
2, 408000, Note_off_c, 0, 52, 95
2, 408000, Note_on_c, 0, 71, 95
2, 408000, Note_on_c, 0, 67, 95
2, 408000, Note_on_c, 0, 64, 95
2, 408000, Note_on_c, 0, 59, 95
2, 408000, Note_on_c, 0, 52, 95
2, 408960, Note_off_c, 0, 71, 95
2, 408960, Note_off_c, 0, 67, 95
2, 408960, Note_off_c, 0, 64, 95
2, 408960, Note_off_c, 0, 59, 95
2, 408960, Note_off_c, 0, 52, 95
2, 408960, Note_on_c, 0, 71, 95
2, 408960, Note_on_c, 0, 67, 95
2, 408960, Note_on_c, 0, 64, 95
2, 408960, Note_on_c, 0, 59, 95
2, 408960, Note_on_c, 0, 52, 95
2, 409920, Note_off_c, 0, 71, 95
2, 409920, Note_off_c, 0, 67, 95
2, 409920, Note_off_c, 0, 64, 95
2, 409920, Note_off_c, 0, 59, 95
2, 409920, Note_off_c, 0, 52, 95
2, 409920, Note_on_c, 0, 71, 95
2, 409920, Note_on_c, 0, 67, 95
2, 409920, Note_on_c, 0, 64, 95
2, 409920, Note_on_c, 0, 59, 95
2, 409920, Note_on_c, 0, 52, 95
2, 410880, Note_off_c, 0, 71, 95
2, 410880, Note_off_c, 0, 67, 95
2, 410880, Note_off_c, 0, 64, 95
2, 410880, Note_off_c, 0, 59, 95
2, 410880, Note_off_c, 0, 52, 95
2, 410880, Note_on_c, 0, 71, 95
2, 410880, Note_on_c, 0, 67, 95
2, 410880, Note_on_c, 0, 64, 95
2, 410880, Note_on_c, 0, 59, 95
2, 410880, Note_on_c, 0, 52, 95
2, 426240, Note_off_c, 0, 71, 95
2, 426240, Note_off_c, 0, 67, 95
2, 426240, Note_off_c, 0, 64, 95
2, 426240, Note_off_c, 0, 59, 95
2, 426240, Note_off_c, 0, 52, 95
2, 426240, End_track
3, 0, Start_track
3, 0, Pitch_bend_c, 2, 8192
3, 0, Control_c, 2, 7, 63
3, 0, Control_c, 2, 10, 63
3, 0, Control_c, 2, 93, 0
3, 0, Control_c, 2, 91, 0
3, 0, Control_c, 2, 95, 0
3, 0, Control_c, 2, 92, 0
3, 0, Control_c, 2, 11, 127
3, 0, Program_c, 2, 30
3, 0, Control_c, 3, 7, 63
3, 0, Control_c, 3, 10, 63
3, 0, Control_c, 3, 93, 0
3, 0, Control_c, 3, 91, 0
3, 0, Control_c, 3, 95, 0
3, 0, Control_c, 3, 92, 0
3, 0, Control_c, 3, 11, 127
3, 0, Program_c, 3, 30
3, 0, Note_on_c, 2, 71, 95
3, 0, Note_on_c, 2, 67, 95
3, 0, Note_on_c, 2, 64, 95
3, 0, Note_on_c, 2, 59, 95
3, 0, Note_on_c, 2, 52, 95
3, 960, Note_off_c, 2, 71, 95
3, 960, Note_off_c, 2, 67, 95
3, 960, Note_off_c, 2, 64, 95
3, 960, Note_off_c, 2, 59, 95
3, 960, Note_off_c, 2, 52, 95
3, 960, Note_on_c, 2, 71, 95
3, 960, Note_on_c, 2, 67, 95
3, 960, Note_on_c, 2, 64, 95
3, 960, Note_on_c, 2, 59, 95
3, 960, Note_on_c, 2, 52, 95
3, 1920, Note_off_c, 2, 71, 95
3, 1920, Note_off_c, 2, 67, 95
3, 1920, Note_off_c, 2, 64, 95
3, 1920, Note_off_c, 2, 59, 95
3, 1920, Note_off_c, 2, 52, 95
3, 1920, Note_on_c, 2, 71, 95
3, 1920, Note_on_c, 2, 67, 95
3, 1920, Note_on_c, 2, 64, 95
3, 1920, Note_on_c, 2, 59, 95
3, 1920, Note_on_c, 2, 52, 95
3, 2880, Note_off_c, 2, 71, 95
3, 2880, Note_off_c, 2, 67, 95
3, 2880, Note_off_c, 2, 64, 95
3, 2880, Note_off_c, 2, 59, 95
3, 2880, Note_off_c, 2, 52, 95
3, 2880, Note_on_c, 2, 71, 95
3, 2880, Note_on_c, 2, 67, 95
3, 2880, Note_on_c, 2, 64, 95
3, 2880, Note_on_c, 2, 59, 95
3, 2880, Note_on_c, 2, 52, 95
3, 3840, Note_off_c, 2, 71, 95
3, 3840, Note_off_c, 2, 67, 95
3, 3840, Note_off_c, 2, 64, 95
3, 3840, Note_off_c, 2, 59, 95
3, 3840, Note_off_c, 2, 52, 95
3, 3840, Note_on_c, 2, 71, 95
3, 3840, Note_on_c, 2, 67, 95
3, 3840, Note_on_c, 2, 64, 95
3, 3840, Note_on_c, 2, 59, 95
3, 3840, Note_on_c, 2, 52, 95
3, 4800, Note_off_c, 2, 71, 95
3, 4800, Note_off_c, 2, 67, 95
3, 4800, Note_off_c, 2, 64, 95
3, 4800, Note_off_c, 2, 59, 95
3, 4800, Note_off_c, 2, 52, 95
3, 4800, Note_on_c, 2, 71, 95
3, 4800, Note_on_c, 2, 67, 95
3, 4800, Note_on_c, 2, 64, 95
3, 4800, Note_on_c, 2, 59, 95
3, 4800, Note_on_c, 2, 52, 95
3, 5760, Note_off_c, 2, 71, 95
3, 5760, Note_off_c, 2, 67, 95
3, 5760, Note_off_c, 2, 64, 95
3, 5760, Note_off_c, 2, 59, 95
3, 5760, Note_off_c, 2, 52, 95
3, 5760, Note_on_c, 2, 71, 95
3, 5760, Note_on_c, 2, 67, 95
3, 5760, Note_on_c, 2, 64, 95
3, 5760, Note_on_c, 2, 59, 95
3, 5760, Note_on_c, 2, 52, 95
3, 6720, Note_off_c, 2, 71, 95
3, 6720, Note_off_c, 2, 67, 95
3, 6720, Note_off_c, 2, 64, 95
3, 6720, Note_off_c, 2, 59, 95
3, 6720, Note_off_c, 2, 52, 95
3, 6720, Note_on_c, 2, 71, 95
3, 6720, Note_on_c, 2, 67, 95
3, 6720, Note_on_c, 2, 64, 95
3, 6720, Note_on_c, 2, 59, 95
3, 6720, Note_on_c, 2, 52, 95
3, 7680, Note_off_c, 2, 71, 95
3, 7680, Note_off_c, 2, 67, 95
3, 7680, Note_off_c, 2, 64, 95
3, 7680, Note_off_c, 2, 59, 95
3, 7680, Note_off_c, 2, 52, 95
3, 7680, Note_on_c, 2, 71, 95
3, 7680, Note_on_c, 2, 67, 95
3, 7680, Note_on_c, 2, 64, 95
3, 7680, Note_on_c, 2, 59, 95
3, 7680, Note_on_c, 2, 52, 95
3, 8640, Note_off_c, 2, 71, 95
3, 8640, Note_off_c, 2, 67, 95
3, 8640, Note_off_c, 2, 64, 95
3, 8640, Note_off_c, 2, 59, 95
3, 8640, Note_off_c, 2, 52, 95
3, 8640, Note_on_c, 2, 71, 95
3, 8640, Note_on_c, 2, 67, 95
3, 8640, Note_on_c, 2, 64, 95
3, 8640, Note_on_c, 2, 59, 95
3, 8640, Note_on_c, 2, 52, 95
3, 9600, Note_off_c, 2, 71, 95
3, 9600, Note_off_c, 2, 67, 95
3, 9600, Note_off_c, 2, 64, 95
3, 9600, Note_off_c, 2, 59, 95
3, 9600, Note_off_c, 2, 52, 95
3, 9600, Note_on_c, 2, 71, 95
3, 9600, Note_on_c, 2, 67, 95
3, 9600, Note_on_c, 2, 64, 95
3, 9600, Note_on_c, 2, 59, 95
3, 9600, Note_on_c, 2, 52, 95
3, 10560, Note_off_c, 2, 71, 95
3, 10560, Note_off_c, 2, 67, 95
3, 10560, Note_off_c, 2, 64, 95
3, 10560, Note_off_c, 2, 59, 95
3, 10560, Note_off_c, 2, 52, 95
3, 10560, Note_on_c, 2, 71, 95
3, 10560, Note_on_c, 2, 67, 95
3, 10560, Note_on_c, 2, 64, 95
3, 10560, Note_on_c, 2, 59, 95
3, 10560, Note_on_c, 2, 52, 95
3, 11520, Note_off_c, 2, 71, 95
3, 11520, Note_off_c, 2, 67, 95
3, 11520, Note_off_c, 2, 64, 95
3, 11520, Note_off_c, 2, 59, 95
3, 11520, Note_off_c, 2, 52, 95
3, 11520, Note_on_c, 2, 71, 95
3, 11520, Note_on_c, 2, 67, 95
3, 11520, Note_on_c, 2, 64, 95
3, 11520, Note_on_c, 2, 59, 95
3, 11520, Note_on_c, 2, 52, 95
3, 12480, Note_off_c, 2, 71, 95
3, 12480, Note_off_c, 2, 67, 95
3, 12480, Note_off_c, 2, 64, 95
3, 12480, Note_off_c, 2, 59, 95
3, 12480, Note_off_c, 2, 52, 95
3, 12480, Note_on_c, 2, 71, 95
3, 12480, Note_on_c, 2, 67, 95
3, 12480, Note_on_c, 2, 64, 95
3, 12480, Note_on_c, 2, 59, 95
3, 12480, Note_on_c, 2, 52, 95
3, 13440, Note_off_c, 2, 71, 95
3, 13440, Note_off_c, 2, 67, 95
3, 13440, Note_off_c, 2, 64, 95
3, 13440, Note_off_c, 2, 59, 95
3, 13440, Note_off_c, 2, 52, 95
3, 13440, Note_on_c, 2, 71, 95
3, 13440, Note_on_c, 2, 67, 95
3, 13440, Note_on_c, 2, 64, 95
3, 13440, Note_on_c, 2, 59, 95
3, 13440, Note_on_c, 2, 52, 95
3, 14400, Note_off_c, 2, 71, 95
3, 14400, Note_off_c, 2, 67, 95
3, 14400, Note_off_c, 2, 64, 95
3, 14400, Note_off_c, 2, 59, 95
3, 14400, Note_off_c, 2, 52, 95
3, 14400, Note_on_c, 2, 71, 95
3, 14400, Note_on_c, 2, 67, 95
3, 14400, Note_on_c, 2, 64, 95
3, 14400, Note_on_c, 2, 59, 95
3, 14400, Note_on_c, 2, 52, 95
3, 15360, Note_off_c, 2, 71, 95
3, 15360, Note_off_c, 2, 67, 95
3, 15360, Note_off_c, 2, 64, 95
3, 15360, Note_off_c, 2, 59, 95
3, 15360, Note_off_c, 2, 52, 95
3, 15360, Note_on_c, 2, 74, 95
3, 15360, Note_on_c, 2, 67, 95
3, 16320, Note_off_c, 2, 74, 95
3, 16320, Note_off_c, 2, 67, 95
3, 16320, Note_on_c, 2, 74, 95
3, 16320, Note_on_c, 2, 67, 95
3, 17280, Note_off_c, 2, 74, 95
3, 17280, Note_off_c, 2, 67, 95
3, 17280, Note_on_c, 2, 74, 95
3, 17280, Note_on_c, 2, 67, 95
3, 18240, Note_off_c, 2, 74, 95
3, 18240, Note_off_c, 2, 67, 95
3, 18240, Note_on_c, 2, 74, 95
3, 18240, Note_on_c, 2, 67, 95
3, 19200, Note_off_c, 2, 74, 95
3, 19200, Note_off_c, 2, 67, 95
3, 19200, Note_on_c, 2, 74, 95
3, 19200, Note_on_c, 2, 67, 95
3, 20160, Note_off_c, 2, 74, 95
3, 20160, Note_off_c, 2, 67, 95
3, 20160, Note_on_c, 2, 74, 95
3, 20160, Note_on_c, 2, 67, 95
3, 21120, Note_off_c, 2, 74, 95
3, 21120, Note_off_c, 2, 67, 95
3, 21120, Note_on_c, 2, 74, 95
3, 21120, Note_on_c, 2, 67, 95
3, 22080, Note_off_c, 2, 74, 95
3, 22080, Note_off_c, 2, 67, 95
3, 22080, Note_on_c, 2, 74, 95
3, 22080, Note_on_c, 2, 67, 95
3, 23040, Note_off_c, 2, 74, 95
3, 23040, Note_off_c, 2, 67, 95
3, 23040, Note_on_c, 2, 74, 95
3, 23040, Note_on_c, 2, 67, 95
3, 24000, Note_off_c, 2, 74, 95
3, 24000, Note_off_c, 2, 67, 95
3, 24000, Note_on_c, 2, 74, 95
3, 24000, Note_on_c, 2, 67, 95
3, 24960, Note_off_c, 2, 74, 95
3, 24960, Note_off_c, 2, 67, 95
3, 24960, Note_on_c, 2, 74, 95
3, 24960, Note_on_c, 2, 67, 95
3, 25920, Note_off_c, 2, 74, 95
3, 25920, Note_off_c, 2, 67, 95
3, 25920, Note_on_c, 2, 74, 95
3, 25920, Note_on_c, 2, 67, 95
3, 26880, Note_off_c, 2, 74, 95
3, 26880, Note_off_c, 2, 67, 95
3, 26880, Note_on_c, 2, 74, 95
3, 26880, Note_on_c, 2, 67, 95
3, 27840, Note_off_c, 2, 74, 95
3, 27840, Note_off_c, 2, 67, 95
3, 27840, Note_on_c, 2, 74, 95
3, 27840, Note_on_c, 2, 67, 95
3, 28800, Note_off_c, 2, 74, 95
3, 28800, Note_off_c, 2, 67, 95
3, 28800, Note_on_c, 2, 74, 95
3, 28800, Note_on_c, 2, 67, 95
3, 29760, Note_off_c, 2, 74, 95
3, 29760, Note_off_c, 2, 67, 95
3, 29760, Note_on_c, 2, 74, 95
3, 29760, Note_on_c, 2, 67, 95
3, 30720, Note_off_c, 2, 74, 95
3, 30720, Note_off_c, 2, 67, 95
3, 30720, Note_on_c, 2, 79, 95
3, 30720, Note_on_c, 2, 59, 95
3, 30720, Note_on_c, 2, 67, 95
3, 30792, Note_off_c, 2, 59, 95
3, 31680, Note_off_c, 2, 79, 95
3, 31680, Note_off_c, 2, 67, 95
3, 31680, Note_on_c, 2, 79, 95
3, 31680, Note_on_c, 2, 59, 95
3, 31680, Note_on_c, 2, 67, 95
3, 31752, Note_off_c, 2, 59, 95
3, 32640, Note_off_c, 2, 79, 95
3, 32640, Note_off_c, 2, 67, 95
3, 32640, Note_on_c, 2, 79, 95
3, 32640, Note_on_c, 2, 59, 95
3, 32640, Note_on_c, 2, 67, 95
3, 32712, Note_off_c, 2, 59, 95
3, 33600, Note_off_c, 2, 79, 95
3, 33600, Note_off_c, 2, 67, 95
3, 33600, Note_on_c, 2, 79, 95
3, 33600, Note_on_c, 2, 59, 95
3, 33600, Note_on_c, 2, 67, 95
3, 33672, Note_off_c, 2, 59, 95
3, 34560, Note_off_c, 2, 79, 95
3, 34560, Note_off_c, 2, 67, 95
3, 34560, Note_on_c, 2, 79, 95
3, 34560, Note_on_c, 2, 59, 95
3, 34560, Note_on_c, 2, 67, 95
3, 34632, Note_off_c, 2, 59, 95
3, 35520, Note_off_c, 2, 79, 95
3, 35520, Note_off_c, 2, 67, 95
3, 35520, Note_on_c, 2, 79, 95
3, 35520, Note_on_c, 2, 59, 95
3, 35520, Note_on_c, 2, 67, 95
3, 35592, Note_off_c, 2, 59, 95
3, 36480, Note_off_c, 2, 79, 95
3, 36480, Note_off_c, 2, 67, 95
3, 36480, Note_on_c, 2, 79, 95
3, 36480, Note_on_c, 2, 59, 95
3, 36480, Note_on_c, 2, 67, 95
3, 36552, Note_off_c, 2, 59, 95
3, 37440, Note_off_c, 2, 79, 95
3, 37440, Note_off_c, 2, 67, 95
3, 37440, Note_on_c, 2, 79, 95
3, 37440, Note_on_c, 2, 59, 95
3, 37440, Note_on_c, 2, 67, 95
3, 37512, Note_off_c, 2, 59, 95
3, 38400, Note_off_c, 2, 79, 95
3, 38400, Note_off_c, 2, 67, 95
3, 38400, Note_on_c, 2, 79, 95
3, 38400, Note_on_c, 2, 59, 95
3, 38400, Note_on_c, 2, 67, 95
3, 38472, Note_off_c, 2, 59, 95
3, 39360, Note_off_c, 2, 79, 95
3, 39360, Note_off_c, 2, 67, 95
3, 39360, Note_on_c, 2, 79, 95
3, 39360, Note_on_c, 2, 59, 95
3, 39360, Note_on_c, 2, 67, 95
3, 39432, Note_off_c, 2, 59, 95
3, 40320, Note_off_c, 2, 79, 95
3, 40320, Note_off_c, 2, 67, 95
3, 40320, Note_on_c, 2, 79, 95
3, 40320, Note_on_c, 2, 59, 95
3, 40320, Note_on_c, 2, 67, 95
3, 40392, Note_off_c, 2, 59, 95
3, 41280, Note_off_c, 2, 79, 95
3, 41280, Note_off_c, 2, 67, 95
3, 41280, Note_on_c, 2, 79, 95
3, 41280, Note_on_c, 2, 59, 95
3, 41280, Note_on_c, 2, 67, 95
3, 41352, Note_off_c, 2, 59, 95
3, 42240, Note_off_c, 2, 79, 95
3, 42240, Note_off_c, 2, 67, 95
3, 42240, Note_on_c, 2, 79, 95
3, 42240, Note_on_c, 2, 59, 95
3, 42240, Note_on_c, 2, 67, 95
3, 42312, Note_off_c, 2, 59, 95
3, 43200, Note_off_c, 2, 79, 95
3, 43200, Note_off_c, 2, 67, 95
3, 43200, Note_on_c, 2, 79, 95
3, 43200, Note_on_c, 2, 59, 95
3, 43200, Note_on_c, 2, 67, 95
3, 43272, Note_off_c, 2, 59, 95
3, 44160, Note_off_c, 2, 79, 95
3, 44160, Note_off_c, 2, 67, 95
3, 44160, Note_on_c, 2, 79, 95
3, 44160, Note_on_c, 2, 59, 95
3, 44160, Note_on_c, 2, 67, 95
3, 44232, Note_off_c, 2, 59, 95
3, 45120, Note_off_c, 2, 79, 95
3, 45120, Note_off_c, 2, 67, 95
3, 45120, Note_on_c, 2, 79, 95
3, 45120, Note_on_c, 2, 59, 95
3, 45120, Note_on_c, 2, 67, 95
3, 45192, Note_off_c, 2, 59, 95
3, 46080, Note_off_c, 2, 79, 95
3, 46080, Note_off_c, 2, 67, 95
3, 46080, Note_on_c, 3, 79, 95
3, 46080, Note_on_c, 2, 59, 95
3, 46080, Note_on_c, 3, 67, 95
3, 46152, Note_off_c, 2, 59, 95
3, 47040, Note_off_c, 3, 79, 95
3, 47040, Note_off_c, 3, 67, 95
3, 108480, Note_on_c, 3, 76, 95
3, 108480, Note_on_c, 3, 71, 95
3, 108480, Note_on_c, 3, 67, 95
3, 109440, Note_off_c, 3, 76, 95
3, 109440, Note_off_c, 3, 71, 95
3, 109440, Note_off_c, 3, 67, 95
3, 113920, Note_on_c, 2, 71, 95
3, 113920, Note_on_c, 2, 67, 95
3, 114240, Note_off_c, 2, 71, 95
3, 114240, Note_off_c, 2, 67, 95
3, 114240, Note_on_c, 3, 69, 95
3, 114240, Note_on_c, 3, 66, 95
3, 115200, Note_off_c, 3, 69, 95
3, 115200, Note_off_c, 3, 66, 95
3, 116160, Note_on_c, 3, 76, 95
3, 116160, Note_on_c, 3, 71, 95
3, 116160, Note_on_c, 3, 67, 95
3, 117120, Note_off_c, 3, 76, 95
3, 117120, Note_off_c, 3, 71, 95
3, 117120, Note_off_c, 3, 67, 95
3, 121600, Note_on_c, 2, 76, 95
3, 121600, Note_on_c, 2, 71, 95
3, 121600, Note_on_c, 2, 67, 95
3, 121920, Note_off_c, 2, 76, 95
3, 121920, Note_off_c, 2, 71, 95
3, 121920, Note_off_c, 2, 67, 95
3, 121920, Note_on_c, 2, 74, 95
3, 121920, Note_on_c, 2, 69, 95
3, 121920, Note_on_c, 2, 66, 95
3, 122880, Note_off_c, 2, 74, 95
3, 122880, Note_off_c, 2, 69, 95
3, 122880, Note_off_c, 2, 66, 95
3, 123840, Note_on_c, 3, 76, 95
3, 123840, Note_on_c, 3, 71, 95
3, 123840, Note_on_c, 3, 67, 95
3, 124800, Note_off_c, 3, 76, 95
3, 124800, Note_off_c, 3, 71, 95
3, 124800, Note_off_c, 3, 67, 95
3, 129280, Note_on_c, 2, 76, 95
3, 129280, Note_on_c, 2, 71, 95
3, 129280, Note_on_c, 2, 67, 95
3, 129600, Note_off_c, 2, 76, 95
3, 129600, Note_off_c, 2, 71, 95
3, 129600, Note_off_c, 2, 67, 95
3, 129600, Note_on_c, 2, 74, 95
3, 129600, Note_on_c, 2, 69, 95
3, 129600, Note_on_c, 2, 66, 95
3, 130560, Note_off_c, 2, 74, 95
3, 130560, Note_off_c, 2, 69, 95
3, 130560, Note_off_c, 2, 66, 95
3, 131520, Note_on_c, 3, 76, 95
3, 131520, Note_on_c, 3, 71, 95
3, 131520, Note_on_c, 3, 67, 95
3, 132480, Note_off_c, 3, 76, 95
3, 132480, Note_off_c, 3, 71, 95
3, 132480, Note_off_c, 3, 67, 95
3, 134400, Note_on_c, 2, 62, 95
3, 141600, Note_off_c, 2, 62, 95
3, 141720, Pitch_bend_c, 3, 8448
3, 141760, Note_on_c, 3, 57, 95
3, 141840, Pitch_bend_c, 3, 8832
3, 141960, Pitch_bend_c, 3, 9216
3, 142080, Pitch_bend_c, 3, 9600
3, 142080, Pitch_bend_c, 3, 8192
3, 142080, Note_off_c, 3, 57, 95
3, 142080, Note_on_c, 2, 59, 95
3, 143040, Note_off_c, 2, 59, 95
3, 143040, Note_on_c, 2, 67, 95
3, 156480, Note_off_c, 2, 67, 95
3, 156480, Note_on_c, 3, 76, 95
3, 156480, Note_on_c, 3, 71, 95
3, 156480, Note_on_c, 3, 67, 95
3, 157440, Note_off_c, 3, 76, 95
3, 157440, Note_off_c, 3, 71, 95
3, 157440, Note_off_c, 3, 67, 95
3, 204480, Note_on_c, 3, 76, 95
3, 204480, Note_on_c, 3, 71, 95
3, 204480, Note_on_c, 3, 67, 95
3, 205440, Note_off_c, 3, 76, 95
3, 205440, Note_off_c, 3, 71, 95
3, 205440, Note_off_c, 3, 67, 95
3, 206400, Note_on_c, 2, 55, 95
3, 207360, Note_off_c, 2, 55, 95
3, 209920, Note_on_c, 2, 71, 95
3, 209920, Note_on_c, 2, 67, 95
3, 210240, Note_off_c, 2, 71, 95
3, 210240, Note_off_c, 2, 67, 95
3, 210240, Note_on_c, 3, 69, 95
3, 210240, Note_on_c, 3, 66, 95
3, 211200, Note_off_c, 3, 69, 95
3, 211200, Note_off_c, 3, 66, 95
3, 212160, Note_on_c, 3, 76, 95
3, 212160, Note_on_c, 3, 71, 95
3, 212160, Note_on_c, 3, 67, 95
3, 213120, Note_off_c, 3, 76, 95
3, 213120, Note_off_c, 3, 71, 95
3, 213120, Note_off_c, 3, 67, 95
3, 217600, Note_on_c, 2, 71, 95
3, 217600, Note_on_c, 2, 67, 95
3, 217920, Note_off_c, 2, 71, 95
3, 217920, Note_off_c, 2, 67, 95
3, 217920, Note_on_c, 2, 69, 95
3, 217920, Note_on_c, 2, 66, 95
3, 218880, Note_off_c, 2, 69, 95
3, 218880, Note_off_c, 2, 66, 95
3, 219840, Note_on_c, 3, 76, 95
3, 219840, Note_on_c, 3, 71, 95
3, 219840, Note_on_c, 3, 67, 95
3, 220800, Note_off_c, 3, 76, 95
3, 220800, Note_off_c, 3, 71, 95
3, 220800, Note_off_c, 3, 67, 95
3, 225280, Note_on_c, 2, 71, 95
3, 225280, Note_on_c, 2, 67, 95
3, 225600, Note_off_c, 2, 71, 95
3, 225600, Note_off_c, 2, 67, 95
3, 225600, Note_on_c, 2, 69, 95
3, 225600, Note_on_c, 2, 66, 95
3, 226560, Note_off_c, 2, 69, 95
3, 226560, Note_off_c, 2, 66, 95
3, 227520, Note_on_c, 3, 76, 95
3, 227520, Note_on_c, 3, 71, 95
3, 227520, Note_on_c, 3, 67, 95
3, 228480, Note_off_c, 3, 76, 95
3, 228480, Note_off_c, 3, 71, 95
3, 228480, Note_off_c, 3, 67, 95
3, 230400, Note_on_c, 2, 62, 95
3, 243840, Note_off_c, 2, 62, 95
3, 253920, Note_on_c, 2, 62, 95
3, 253920, Note_on_c, 2, 57, 95
3, 268800, Note_off_c, 2, 62, 95
3, 268800, Note_off_c, 2, 57, 95
3, 300480, Note_on_c, 3, 76, 95
3, 300480, Note_on_c, 3, 71, 95
3, 300480, Note_on_c, 3, 67, 95
3, 301440, Note_off_c, 3, 76, 95
3, 301440, Note_off_c, 3, 71, 95
3, 301440, Note_off_c, 3, 67, 95
3, 302400, Note_on_c, 2, 55, 95
3, 303360, Note_off_c, 2, 55, 95
3, 305920, Note_on_c, 2, 71, 95
3, 305920, Note_on_c, 2, 67, 95
3, 306240, Note_off_c, 2, 71, 95
3, 306240, Note_off_c, 2, 67, 95
3, 306240, Note_on_c, 3, 69, 95
3, 306240, Note_on_c, 3, 66, 95
3, 307200, Note_off_c, 3, 69, 95
3, 307200, Note_off_c, 3, 66, 95
3, 308160, Note_on_c, 3, 76, 95
3, 308160, Note_on_c, 3, 71, 95
3, 308160, Note_on_c, 3, 67, 95
3, 309120, Note_off_c, 3, 76, 95
3, 309120, Note_off_c, 3, 71, 95
3, 309120, Note_off_c, 3, 67, 95
3, 313600, Note_on_c, 2, 71, 95
3, 313600, Note_on_c, 2, 67, 95
3, 313920, Note_off_c, 2, 71, 95
3, 313920, Note_off_c, 2, 67, 95
3, 313920, Note_on_c, 2, 69, 95
3, 313920, Note_on_c, 2, 66, 95
3, 314880, Note_off_c, 2, 69, 95
3, 314880, Note_off_c, 2, 66, 95
3, 315840, Note_on_c, 3, 76, 95
3, 315840, Note_on_c, 3, 71, 95
3, 315840, Note_on_c, 3, 67, 95
3, 316800, Note_off_c, 3, 76, 95
3, 316800, Note_off_c, 3, 71, 95
3, 316800, Note_off_c, 3, 67, 95
3, 321280, Note_on_c, 2, 71, 95
3, 321280, Note_on_c, 2, 67, 95
3, 321600, Note_off_c, 2, 71, 95
3, 321600, Note_off_c, 2, 67, 95
3, 321600, Note_on_c, 2, 69, 95
3, 321600, Note_on_c, 2, 66, 95
3, 322560, Note_off_c, 2, 69, 95
3, 322560, Note_off_c, 2, 66, 95
3, 323520, Note_on_c, 3, 76, 95
3, 323520, Note_on_c, 3, 71, 95
3, 323520, Note_on_c, 3, 67, 95
3, 324480, Note_off_c, 3, 76, 95
3, 324480, Note_off_c, 3, 71, 95
3, 324480, Note_off_c, 3, 67, 95
3, 326400, Note_on_c, 2, 62, 95
3, 334080, Note_off_c, 2, 62, 95
3, 380160, Note_on_c, 3, 71, 95
3, 380160, Note_on_c, 3, 67, 95
3, 380160, Note_on_c, 3, 64, 95
3, 380160, Note_on_c, 3, 59, 95
3, 380160, Note_on_c, 3, 52, 95
3, 382080, Note_off_c, 3, 71, 95
3, 382080, Note_off_c, 3, 67, 95
3, 382080, Note_off_c, 3, 64, 95
3, 382080, Note_off_c, 3, 59, 95
3, 382080, Note_off_c, 3, 52, 95
3, 387840, Note_on_c, 2, 71, 95
3, 387840, Note_on_c, 2, 67, 95
3, 387840, Note_on_c, 2, 64, 95
3, 387840, Note_on_c, 2, 59, 95
3, 387840, Note_on_c, 2, 52, 95
3, 391680, Note_off_c, 2, 71, 95
3, 391680, Note_off_c, 2, 67, 95
3, 391680, Note_off_c, 2, 64, 95
3, 391680, Note_off_c, 2, 59, 95
3, 391680, Note_off_c, 2, 52, 95
3, 391680, Note_on_c, 2, 64, 95
3, 391680, Note_on_c, 2, 60, 95
3, 391680, Note_on_c, 2, 55, 95
3, 391680, Note_on_c, 2, 48, 95
3, 395520, Note_off_c, 2, 64, 95
3, 395520, Note_off_c, 2, 60, 95
3, 395520, Note_off_c, 2, 55, 95
3, 395520, Note_off_c, 2, 48, 95
3, 395520, Note_on_c, 3, 71, 95
3, 395520, Note_on_c, 3, 67, 95
3, 395520, Note_on_c, 3, 64, 95
3, 395520, Note_on_c, 3, 59, 95
3, 395520, Note_on_c, 3, 52, 95
3, 395640, Pitch_bend_c, 3, 8192
3, 395640, Pitch_bend_c, 3, 8192
3, 395640, Pitch_bend_c, 3, 8192
3, 395640, Pitch_bend_c, 3, 8192
3, 395640, Pitch_bend_c, 3, 8192
3, 395760, Pitch_bend_c, 3, 8192
3, 395760, Pitch_bend_c, 3, 8192
3, 395760, Pitch_bend_c, 3, 8192
3, 395760, Pitch_bend_c, 3, 8192
3, 395760, Pitch_bend_c, 3, 8192
3, 395880, Pitch_bend_c, 3, 8192
3, 395880, Pitch_bend_c, 3, 8192
3, 395880, Pitch_bend_c, 3, 8192
3, 395880, Pitch_bend_c, 3, 8192
3, 395880, Pitch_bend_c, 3, 8192
3, 396000, Pitch_bend_c, 3, 8192
3, 396000, Pitch_bend_c, 3, 8192
3, 396000, Pitch_bend_c, 3, 8192
3, 396000, Pitch_bend_c, 3, 8192
3, 396000, Pitch_bend_c, 3, 8192
3, 396120, Pitch_bend_c, 3, 8192
3, 396120, Pitch_bend_c, 3, 8192
3, 396120, Pitch_bend_c, 3, 8192
3, 396120, Pitch_bend_c, 3, 8192
3, 396120, Pitch_bend_c, 3, 8192
3, 396240, Pitch_bend_c, 3, 8192
3, 396240, Pitch_bend_c, 3, 8192
3, 396240, Pitch_bend_c, 3, 8192
3, 396240, Pitch_bend_c, 3, 8192
3, 396240, Pitch_bend_c, 3, 8192
3, 396360, Pitch_bend_c, 3, 8192
3, 396360, Pitch_bend_c, 3, 8192
3, 396360, Pitch_bend_c, 3, 8192
3, 396360, Pitch_bend_c, 3, 8192
3, 396360, Pitch_bend_c, 3, 8192
3, 396480, Pitch_bend_c, 3, 8192
3, 396480, Pitch_bend_c, 3, 8192
3, 396480, Pitch_bend_c, 3, 8192
3, 396480, Pitch_bend_c, 3, 8192
3, 396480, Pitch_bend_c, 3, 8192
3, 396480, Pitch_bend_c, 3, 8192
3, 396480, Pitch_bend_c, 3, 8192
3, 396480, Pitch_bend_c, 3, 8192
3, 396480, Pitch_bend_c, 3, 8192
3, 396480, Pitch_bend_c, 3, 8192
3, 397440, Note_off_c, 3, 71, 95
3, 397440, Note_off_c, 3, 67, 95
3, 397440, Note_off_c, 3, 64, 95
3, 397440, Note_off_c, 3, 59, 95
3, 397440, Note_off_c, 3, 52, 95
3, 402560, Note_on_c, 2, 71, 95
3, 402560, Note_on_c, 2, 67, 95
3, 402560, Note_on_c, 2, 64, 95
3, 402560, Note_on_c, 2, 59, 95
3, 402560, Note_on_c, 2, 52, 95
3, 402880, Note_off_c, 2, 71, 95
3, 402880, Note_off_c, 2, 67, 95
3, 402880, Note_off_c, 2, 64, 95
3, 402880, Note_off_c, 2, 59, 95
3, 402880, Note_off_c, 2, 52, 95
3, 402880, Note_on_c, 2, 71, 95
3, 402880, Note_on_c, 2, 67, 95
3, 402880, Note_on_c, 2, 64, 95
3, 402880, Note_on_c, 2, 59, 95
3, 402880, Note_on_c, 2, 52, 95
3, 403200, Note_off_c, 2, 71, 95
3, 403200, Note_off_c, 2, 67, 95
3, 403200, Note_off_c, 2, 64, 95
3, 403200, Note_off_c, 2, 59, 95
3, 403200, Note_off_c, 2, 52, 95
3, 403200, Note_on_c, 2, 71, 95
3, 403200, Note_on_c, 2, 67, 95
3, 403200, Note_on_c, 2, 64, 95
3, 403200, Note_on_c, 2, 59, 95
3, 403200, Note_on_c, 2, 52, 95
3, 406560, Note_off_c, 2, 71, 95
3, 406560, Note_off_c, 2, 67, 95
3, 406560, Note_off_c, 2, 64, 95
3, 406560, Note_off_c, 2, 59, 95
3, 406560, Note_off_c, 2, 52, 95
3, 406720, Note_on_c, 2, 72, 95
3, 406720, Note_on_c, 2, 67, 95
3, 406720, Note_on_c, 2, 65, 95
3, 406720, Note_on_c, 2, 60, 95
3, 406720, Note_on_c, 2, 53, 95
3, 407040, Note_off_c, 2, 72, 95
3, 407040, Note_off_c, 2, 67, 95
3, 407040, Note_off_c, 2, 65, 95
3, 407040, Note_off_c, 2, 60, 95
3, 407040, Note_off_c, 2, 53, 95
3, 407040, Note_on_c, 2, 72, 95
3, 407040, Note_on_c, 2, 67, 95
3, 407040, Note_on_c, 2, 65, 95
3, 407040, Note_on_c, 2, 60, 95
3, 407040, Note_on_c, 2, 53, 95
3, 410880, Note_off_c, 2, 72, 95
3, 410880, Note_off_c, 2, 67, 95
3, 410880, Note_off_c, 2, 65, 95
3, 410880, Note_off_c, 2, 60, 95
3, 410880, Note_off_c, 2, 53, 95
3, 410880, Note_on_c, 2, 71, 95
3, 410880, Note_on_c, 2, 67, 95
3, 410880, Note_on_c, 2, 64, 95
3, 410880, Note_on_c, 2, 59, 95
3, 410880, Note_on_c, 2, 52, 95
3, 426240, Note_off_c, 2, 71, 95
3, 426240, Note_off_c, 2, 67, 95
3, 426240, Note_off_c, 2, 64, 95
3, 426240, Note_off_c, 2, 59, 95
3, 426240, Note_off_c, 2, 52, 95
3, 426240, End_track
4, 0, Start_track
4, 0, Pitch_bend_c, 4, 8192
4, 0, Control_c, 4, 7, 63
4, 0, Control_c, 4, 10, 63
4, 0, Control_c, 4, 93, 0
4, 0, Control_c, 4, 91, 127
4, 0, Control_c, 4, 95, 0
4, 0, Control_c, 4, 92, 0
4, 0, Control_c, 4, 11, 127
4, 0, Program_c, 4, 27
4, 0, Control_c, 5, 7, 63
4, 0, Control_c, 5, 10, 63
4, 0, Control_c, 5, 93, 0
4, 0, Control_c, 5, 91, 127
4, 0, Control_c, 5, 95, 0
4, 0, Control_c, 5, 92, 0
4, 0, Control_c, 5, 11, 127
4, 0, Program_c, 5, 27
4, 0, Note_on_c, 4, 71, 95
4, 0, Note_on_c, 4, 67, 95
4, 0, Note_on_c, 4, 64, 95
4, 0, Note_on_c, 4, 59, 95
4, 0, Note_on_c, 4, 52, 95
4, 960, Note_off_c, 4, 71, 95
4, 960, Note_off_c, 4, 67, 95
4, 960, Note_off_c, 4, 64, 95
4, 960, Note_off_c, 4, 59, 95
4, 960, Note_off_c, 4, 52, 95
4, 960, Note_on_c, 4, 71, 95
4, 960, Note_on_c, 4, 67, 95
4, 960, Note_on_c, 4, 64, 95
4, 960, Note_on_c, 4, 59, 95
4, 960, Note_on_c, 4, 52, 95
4, 1920, Note_off_c, 4, 71, 95
4, 1920, Note_off_c, 4, 67, 95
4, 1920, Note_off_c, 4, 64, 95
4, 1920, Note_off_c, 4, 59, 95
4, 1920, Note_off_c, 4, 52, 95
4, 1920, Note_on_c, 4, 71, 95
4, 1920, Note_on_c, 4, 67, 95
4, 1920, Note_on_c, 4, 64, 95
4, 1920, Note_on_c, 4, 59, 95
4, 1920, Note_on_c, 4, 52, 95
4, 2880, Note_off_c, 4, 71, 95
4, 2880, Note_off_c, 4, 67, 95
4, 2880, Note_off_c, 4, 64, 95
4, 2880, Note_off_c, 4, 59, 95
4, 2880, Note_off_c, 4, 52, 95
4, 2880, Note_on_c, 4, 71, 95
4, 2880, Note_on_c, 4, 67, 95
4, 2880, Note_on_c, 4, 64, 95
4, 2880, Note_on_c, 4, 59, 95
4, 2880, Note_on_c, 4, 52, 95
4, 3840, Note_off_c, 4, 71, 95
4, 3840, Note_off_c, 4, 67, 95
4, 3840, Note_off_c, 4, 64, 95
4, 3840, Note_off_c, 4, 59, 95
4, 3840, Note_off_c, 4, 52, 95
4, 3840, Note_on_c, 4, 71, 95
4, 3840, Note_on_c, 4, 69, 95
4, 3840, Note_on_c, 4, 65, 95
4, 3840, Note_on_c, 4, 60, 95
4, 3840, Note_on_c, 4, 52, 95
4, 4800, Note_off_c, 4, 71, 95
4, 4800, Note_off_c, 4, 69, 95
4, 4800, Note_off_c, 4, 65, 95
4, 4800, Note_off_c, 4, 60, 95
4, 4800, Note_off_c, 4, 52, 95
4, 4800, Note_on_c, 4, 71, 95
4, 4800, Note_on_c, 4, 69, 95
4, 4800, Note_on_c, 4, 65, 95
4, 4800, Note_on_c, 4, 60, 95
4, 4800, Note_on_c, 4, 52, 95
4, 5760, Note_off_c, 4, 71, 95
4, 5760, Note_off_c, 4, 69, 95
4, 5760, Note_off_c, 4, 65, 95
4, 5760, Note_off_c, 4, 60, 95
4, 5760, Note_off_c, 4, 52, 95
4, 5760, Note_on_c, 4, 71, 95
4, 5760, Note_on_c, 4, 69, 95
4, 5760, Note_on_c, 4, 65, 95
4, 5760, Note_on_c, 4, 60, 95
4, 5760, Note_on_c, 4, 52, 95
4, 6720, Note_off_c, 4, 71, 95
4, 6720, Note_off_c, 4, 69, 95
4, 6720, Note_off_c, 4, 65, 95
4, 6720, Note_off_c, 4, 60, 95
4, 6720, Note_off_c, 4, 52, 95
4, 6720, Note_on_c, 4, 71, 95
4, 6720, Note_on_c, 4, 69, 95
4, 6720, Note_on_c, 4, 65, 95
4, 6720, Note_on_c, 4, 60, 95
4, 6720, Note_on_c, 4, 52, 95
4, 7680, Note_off_c, 4, 71, 95
4, 7680, Note_off_c, 4, 69, 95
4, 7680, Note_off_c, 4, 65, 95
4, 7680, Note_off_c, 4, 60, 95
4, 7680, Note_off_c, 4, 52, 95
4, 7680, Note_on_c, 4, 71, 95
4, 7680, Note_on_c, 4, 67, 95
4, 7680, Note_on_c, 4, 64, 95
4, 7680, Note_on_c, 4, 59, 95
4, 7680, Note_on_c, 4, 52, 95
4, 8640, Note_off_c, 4, 71, 95
4, 8640, Note_off_c, 4, 67, 95
4, 8640, Note_off_c, 4, 64, 95
4, 8640, Note_off_c, 4, 59, 95
4, 8640, Note_off_c, 4, 52, 95
4, 8640, Note_on_c, 4, 71, 95
4, 8640, Note_on_c, 4, 67, 95
4, 8640, Note_on_c, 4, 64, 95
4, 8640, Note_on_c, 4, 59, 95
4, 8640, Note_on_c, 4, 52, 95
4, 9600, Note_off_c, 4, 71, 95
4, 9600, Note_off_c, 4, 67, 95
4, 9600, Note_off_c, 4, 64, 95
4, 9600, Note_off_c, 4, 59, 95
4, 9600, Note_off_c, 4, 52, 95
4, 9600, Note_on_c, 4, 71, 95
4, 9600, Note_on_c, 4, 67, 95
4, 9600, Note_on_c, 4, 64, 95
4, 9600, Note_on_c, 4, 59, 95
4, 9600, Note_on_c, 4, 52, 95
4, 10560, Note_off_c, 4, 71, 95
4, 10560, Note_off_c, 4, 67, 95
4, 10560, Note_off_c, 4, 64, 95
4, 10560, Note_off_c, 4, 59, 95
4, 10560, Note_off_c, 4, 52, 95
4, 10560, Note_on_c, 4, 71, 95
4, 10560, Note_on_c, 4, 67, 95
4, 10560, Note_on_c, 4, 64, 95
4, 10560, Note_on_c, 4, 59, 95
4, 10560, Note_on_c, 4, 52, 95
4, 11520, Note_off_c, 4, 71, 95
4, 11520, Note_off_c, 4, 67, 95
4, 11520, Note_off_c, 4, 64, 95
4, 11520, Note_off_c, 4, 59, 95
4, 11520, Note_off_c, 4, 52, 95
4, 11520, Note_on_c, 4, 71, 95
4, 11520, Note_on_c, 4, 69, 95
4, 11520, Note_on_c, 4, 65, 95
4, 11520, Note_on_c, 4, 60, 95
4, 11520, Note_on_c, 4, 52, 95
4, 12480, Note_off_c, 4, 71, 95
4, 12480, Note_off_c, 4, 69, 95
4, 12480, Note_off_c, 4, 65, 95
4, 12480, Note_off_c, 4, 60, 95
4, 12480, Note_off_c, 4, 52, 95
4, 12480, Note_on_c, 4, 71, 95
4, 12480, Note_on_c, 4, 69, 95
4, 12480, Note_on_c, 4, 65, 95
4, 12480, Note_on_c, 4, 60, 95
4, 12480, Note_on_c, 4, 52, 95
4, 13440, Note_off_c, 4, 71, 95
4, 13440, Note_off_c, 4, 69, 95
4, 13440, Note_off_c, 4, 65, 95
4, 13440, Note_off_c, 4, 60, 95
4, 13440, Note_off_c, 4, 52, 95
4, 13440, Note_on_c, 4, 71, 95
4, 13440, Note_on_c, 4, 69, 95
4, 13440, Note_on_c, 4, 65, 95
4, 13440, Note_on_c, 4, 60, 95
4, 13440, Note_on_c, 4, 52, 95
4, 14400, Note_off_c, 4, 71, 95
4, 14400, Note_off_c, 4, 69, 95
4, 14400, Note_off_c, 4, 65, 95
4, 14400, Note_off_c, 4, 60, 95
4, 14400, Note_off_c, 4, 52, 95
4, 14400, Note_on_c, 4, 71, 95
4, 14400, Note_on_c, 4, 69, 95
4, 14400, Note_on_c, 4, 65, 95
4, 14400, Note_on_c, 4, 60, 95
4, 14400, Note_on_c, 4, 52, 95
4, 15360, Note_off_c, 4, 71, 95
4, 15360, Note_off_c, 4, 69, 95
4, 15360, Note_off_c, 4, 65, 95
4, 15360, Note_off_c, 4, 60, 95
4, 15360, Note_off_c, 4, 52, 95
4, 15360, Note_on_c, 4, 71, 95
4, 15360, Note_on_c, 4, 67, 95
4, 15360, Note_on_c, 4, 64, 95
4, 15360, Note_on_c, 4, 59, 95
4, 15360, Note_on_c, 4, 52, 95
4, 16320, Note_off_c, 4, 71, 95
4, 16320, Note_off_c, 4, 67, 95
4, 16320, Note_off_c, 4, 64, 95
4, 16320, Note_off_c, 4, 59, 95
4, 16320, Note_off_c, 4, 52, 95
4, 16320, Note_on_c, 4, 71, 95
4, 16320, Note_on_c, 4, 67, 95
4, 16320, Note_on_c, 4, 64, 95
4, 16320, Note_on_c, 4, 59, 95
4, 16320, Note_on_c, 4, 52, 95
4, 17280, Note_off_c, 4, 71, 95
4, 17280, Note_off_c, 4, 67, 95
4, 17280, Note_off_c, 4, 64, 95
4, 17280, Note_off_c, 4, 59, 95
4, 17280, Note_off_c, 4, 52, 95
4, 17280, Note_on_c, 4, 71, 95
4, 17280, Note_on_c, 4, 67, 95
4, 17280, Note_on_c, 4, 64, 95
4, 17280, Note_on_c, 4, 59, 95
4, 17280, Note_on_c, 4, 52, 95
4, 18240, Note_off_c, 4, 71, 95
4, 18240, Note_off_c, 4, 67, 95
4, 18240, Note_off_c, 4, 64, 95
4, 18240, Note_off_c, 4, 59, 95
4, 18240, Note_off_c, 4, 52, 95
4, 18240, Note_on_c, 4, 71, 95
4, 18240, Note_on_c, 4, 67, 95
4, 18240, Note_on_c, 4, 64, 95
4, 18240, Note_on_c, 4, 59, 95
4, 18240, Note_on_c, 4, 52, 95
4, 19200, Note_off_c, 4, 71, 95
4, 19200, Note_off_c, 4, 67, 95
4, 19200, Note_off_c, 4, 64, 95
4, 19200, Note_off_c, 4, 59, 95
4, 19200, Note_off_c, 4, 52, 95
4, 19200, Note_on_c, 4, 71, 95
4, 19200, Note_on_c, 4, 69, 95
4, 19200, Note_on_c, 4, 65, 95
4, 19200, Note_on_c, 4, 60, 95
4, 19200, Note_on_c, 4, 52, 95
4, 20160, Note_off_c, 4, 71, 95
4, 20160, Note_off_c, 4, 69, 95
4, 20160, Note_off_c, 4, 65, 95
4, 20160, Note_off_c, 4, 60, 95
4, 20160, Note_off_c, 4, 52, 95
4, 20160, Note_on_c, 4, 71, 95
4, 20160, Note_on_c, 4, 69, 95
4, 20160, Note_on_c, 4, 65, 95
4, 20160, Note_on_c, 4, 60, 95
4, 20160, Note_on_c, 4, 52, 95
4, 21120, Note_off_c, 4, 71, 95
4, 21120, Note_off_c, 4, 69, 95
4, 21120, Note_off_c, 4, 65, 95
4, 21120, Note_off_c, 4, 60, 95
4, 21120, Note_off_c, 4, 52, 95
4, 21120, Note_on_c, 4, 71, 95
4, 21120, Note_on_c, 4, 69, 95
4, 21120, Note_on_c, 4, 65, 95
4, 21120, Note_on_c, 4, 60, 95
4, 21120, Note_on_c, 4, 52, 95
4, 22080, Note_off_c, 4, 71, 95
4, 22080, Note_off_c, 4, 69, 95
4, 22080, Note_off_c, 4, 65, 95
4, 22080, Note_off_c, 4, 60, 95
4, 22080, Note_off_c, 4, 52, 95
4, 22080, Note_on_c, 4, 71, 95
4, 22080, Note_on_c, 4, 69, 95
4, 22080, Note_on_c, 4, 65, 95
4, 22080, Note_on_c, 4, 60, 95
4, 22080, Note_on_c, 4, 52, 95
4, 23040, Note_off_c, 4, 71, 95
4, 23040, Note_off_c, 4, 69, 95
4, 23040, Note_off_c, 4, 65, 95
4, 23040, Note_off_c, 4, 60, 95
4, 23040, Note_off_c, 4, 52, 95
4, 23040, Note_on_c, 4, 71, 95
4, 23040, Note_on_c, 4, 67, 95
4, 23040, Note_on_c, 4, 64, 95
4, 23040, Note_on_c, 4, 59, 95
4, 23040, Note_on_c, 4, 52, 95
4, 24000, Note_off_c, 4, 71, 95
4, 24000, Note_off_c, 4, 67, 95
4, 24000, Note_off_c, 4, 64, 95
4, 24000, Note_off_c, 4, 59, 95
4, 24000, Note_off_c, 4, 52, 95
4, 24000, Note_on_c, 4, 71, 95
4, 24000, Note_on_c, 4, 67, 95
4, 24000, Note_on_c, 4, 64, 95
4, 24000, Note_on_c, 4, 59, 95
4, 24000, Note_on_c, 4, 52, 95
4, 24960, Note_off_c, 4, 71, 95
4, 24960, Note_off_c, 4, 67, 95
4, 24960, Note_off_c, 4, 64, 95
4, 24960, Note_off_c, 4, 59, 95
4, 24960, Note_off_c, 4, 52, 95
4, 24960, Note_on_c, 4, 71, 95
4, 24960, Note_on_c, 4, 67, 95
4, 24960, Note_on_c, 4, 64, 95
4, 24960, Note_on_c, 4, 59, 95
4, 24960, Note_on_c, 4, 52, 95
4, 25920, Note_off_c, 4, 71, 95
4, 25920, Note_off_c, 4, 67, 95
4, 25920, Note_off_c, 4, 64, 95
4, 25920, Note_off_c, 4, 59, 95
4, 25920, Note_off_c, 4, 52, 95
4, 25920, Note_on_c, 4, 71, 95
4, 25920, Note_on_c, 4, 67, 95
4, 25920, Note_on_c, 4, 64, 95
4, 25920, Note_on_c, 4, 59, 95
4, 25920, Note_on_c, 4, 52, 95
4, 26880, Note_off_c, 4, 71, 95
4, 26880, Note_off_c, 4, 67, 95
4, 26880, Note_off_c, 4, 64, 95
4, 26880, Note_off_c, 4, 59, 95
4, 26880, Note_off_c, 4, 52, 95
4, 26880, Note_on_c, 4, 71, 95
4, 26880, Note_on_c, 4, 69, 95
4, 26880, Note_on_c, 4, 65, 95
4, 26880, Note_on_c, 4, 60, 95
4, 26880, Note_on_c, 4, 52, 95
4, 27840, Note_off_c, 4, 71, 95
4, 27840, Note_off_c, 4, 69, 95
4, 27840, Note_off_c, 4, 65, 95
4, 27840, Note_off_c, 4, 60, 95
4, 27840, Note_off_c, 4, 52, 95
4, 27840, Note_on_c, 4, 71, 95
4, 27840, Note_on_c, 4, 69, 95
4, 27840, Note_on_c, 4, 65, 95
4, 27840, Note_on_c, 4, 60, 95
4, 27840, Note_on_c, 4, 52, 95
4, 28800, Note_off_c, 4, 71, 95
4, 28800, Note_off_c, 4, 69, 95
4, 28800, Note_off_c, 4, 65, 95
4, 28800, Note_off_c, 4, 60, 95
4, 28800, Note_off_c, 4, 52, 95
4, 28800, Note_on_c, 4, 71, 95
4, 28800, Note_on_c, 4, 69, 95
4, 28800, Note_on_c, 4, 65, 95
4, 28800, Note_on_c, 4, 60, 95
4, 28800, Note_on_c, 4, 52, 95
4, 29760, Note_off_c, 4, 71, 95
4, 29760, Note_off_c, 4, 69, 95
4, 29760, Note_off_c, 4, 65, 95
4, 29760, Note_off_c, 4, 60, 95
4, 29760, Note_off_c, 4, 52, 95
4, 29760, Note_on_c, 4, 71, 95
4, 29760, Note_on_c, 4, 69, 95
4, 29760, Note_on_c, 4, 65, 95
4, 29760, Note_on_c, 4, 60, 95
4, 29760, Note_on_c, 4, 52, 95
4, 30720, Note_off_c, 4, 71, 95
4, 30720, Note_off_c, 4, 69, 95
4, 30720, Note_off_c, 4, 65, 95
4, 30720, Note_off_c, 4, 60, 95
4, 30720, Note_off_c, 4, 52, 95
4, 30720, Note_on_c, 4, 71, 95
4, 30720, Note_on_c, 4, 67, 95
4, 30720, Note_on_c, 4, 64, 95
4, 30720, Note_on_c, 4, 59, 95
4, 30720, Note_on_c, 4, 52, 95
4, 31680, Note_off_c, 4, 71, 95
4, 31680, Note_off_c, 4, 67, 95
4, 31680, Note_off_c, 4, 64, 95
4, 31680, Note_off_c, 4, 59, 95
4, 31680, Note_off_c, 4, 52, 95
4, 31680, Note_on_c, 4, 71, 95
4, 31680, Note_on_c, 4, 67, 95
4, 31680, Note_on_c, 4, 64, 95
4, 31680, Note_on_c, 4, 59, 95
4, 31680, Note_on_c, 4, 52, 95
4, 32640, Note_off_c, 4, 71, 95
4, 32640, Note_off_c, 4, 67, 95
4, 32640, Note_off_c, 4, 64, 95
4, 32640, Note_off_c, 4, 59, 95
4, 32640, Note_off_c, 4, 52, 95
4, 32640, Note_on_c, 4, 71, 95
4, 32640, Note_on_c, 4, 67, 95
4, 32640, Note_on_c, 4, 64, 95
4, 32640, Note_on_c, 4, 59, 95
4, 32640, Note_on_c, 4, 52, 95
4, 33600, Note_off_c, 4, 71, 95
4, 33600, Note_off_c, 4, 67, 95
4, 33600, Note_off_c, 4, 64, 95
4, 33600, Note_off_c, 4, 59, 95
4, 33600, Note_off_c, 4, 52, 95
4, 33600, Note_on_c, 4, 71, 95
4, 33600, Note_on_c, 4, 67, 95
4, 33600, Note_on_c, 4, 64, 95
4, 33600, Note_on_c, 4, 59, 95
4, 33600, Note_on_c, 4, 52, 95
4, 34560, Note_off_c, 4, 71, 95
4, 34560, Note_off_c, 4, 67, 95
4, 34560, Note_off_c, 4, 64, 95
4, 34560, Note_off_c, 4, 59, 95
4, 34560, Note_off_c, 4, 52, 95
4, 34560, Note_on_c, 4, 71, 95
4, 34560, Note_on_c, 4, 69, 95
4, 34560, Note_on_c, 4, 65, 95
4, 34560, Note_on_c, 4, 60, 95
4, 34560, Note_on_c, 4, 52, 95
4, 35520, Note_off_c, 4, 71, 95
4, 35520, Note_off_c, 4, 69, 95
4, 35520, Note_off_c, 4, 65, 95
4, 35520, Note_off_c, 4, 60, 95
4, 35520, Note_off_c, 4, 52, 95
4, 35520, Note_on_c, 4, 71, 95
4, 35520, Note_on_c, 4, 69, 95
4, 35520, Note_on_c, 4, 65, 95
4, 35520, Note_on_c, 4, 60, 95
4, 35520, Note_on_c, 4, 52, 95
4, 36480, Note_off_c, 4, 71, 95
4, 36480, Note_off_c, 4, 69, 95
4, 36480, Note_off_c, 4, 65, 95
4, 36480, Note_off_c, 4, 60, 95
4, 36480, Note_off_c, 4, 52, 95
4, 36480, Note_on_c, 4, 71, 95
4, 36480, Note_on_c, 4, 69, 95
4, 36480, Note_on_c, 4, 65, 95
4, 36480, Note_on_c, 4, 60, 95
4, 36480, Note_on_c, 4, 52, 95
4, 37440, Note_off_c, 4, 71, 95
4, 37440, Note_off_c, 4, 69, 95
4, 37440, Note_off_c, 4, 65, 95
4, 37440, Note_off_c, 4, 60, 95
4, 37440, Note_off_c, 4, 52, 95
4, 37440, Note_on_c, 4, 71, 95
4, 37440, Note_on_c, 4, 69, 95
4, 37440, Note_on_c, 4, 65, 95
4, 37440, Note_on_c, 4, 60, 95
4, 37440, Note_on_c, 4, 52, 95
4, 38400, Note_off_c, 4, 71, 95
4, 38400, Note_off_c, 4, 69, 95
4, 38400, Note_off_c, 4, 65, 95
4, 38400, Note_off_c, 4, 60, 95
4, 38400, Note_off_c, 4, 52, 95
4, 38400, Note_on_c, 4, 71, 95
4, 38400, Note_on_c, 4, 67, 95
4, 38400, Note_on_c, 4, 64, 95
4, 38400, Note_on_c, 4, 59, 95
4, 38400, Note_on_c, 4, 52, 95
4, 39360, Note_off_c, 4, 71, 95
4, 39360, Note_off_c, 4, 67, 95
4, 39360, Note_off_c, 4, 64, 95
4, 39360, Note_off_c, 4, 59, 95
4, 39360, Note_off_c, 4, 52, 95
4, 39360, Note_on_c, 4, 71, 95
4, 39360, Note_on_c, 4, 67, 95
4, 39360, Note_on_c, 4, 64, 95
4, 39360, Note_on_c, 4, 59, 95
4, 39360, Note_on_c, 4, 52, 95
4, 40320, Note_off_c, 4, 71, 95
4, 40320, Note_off_c, 4, 67, 95
4, 40320, Note_off_c, 4, 64, 95
4, 40320, Note_off_c, 4, 59, 95
4, 40320, Note_off_c, 4, 52, 95
4, 40320, Note_on_c, 4, 71, 95
4, 40320, Note_on_c, 4, 67, 95
4, 40320, Note_on_c, 4, 64, 95
4, 40320, Note_on_c, 4, 59, 95
4, 40320, Note_on_c, 4, 52, 95
4, 41280, Note_off_c, 4, 71, 95
4, 41280, Note_off_c, 4, 67, 95
4, 41280, Note_off_c, 4, 64, 95
4, 41280, Note_off_c, 4, 59, 95
4, 41280, Note_off_c, 4, 52, 95
4, 41280, Note_on_c, 4, 71, 95
4, 41280, Note_on_c, 4, 67, 95
4, 41280, Note_on_c, 4, 64, 95
4, 41280, Note_on_c, 4, 59, 95
4, 41280, Note_on_c, 4, 52, 95
4, 42240, Note_off_c, 4, 71, 95
4, 42240, Note_off_c, 4, 67, 95
4, 42240, Note_off_c, 4, 64, 95
4, 42240, Note_off_c, 4, 59, 95
4, 42240, Note_off_c, 4, 52, 95
4, 42240, Note_on_c, 4, 71, 95
4, 42240, Note_on_c, 4, 69, 95
4, 42240, Note_on_c, 4, 65, 95
4, 42240, Note_on_c, 4, 60, 95
4, 42240, Note_on_c, 4, 52, 95
4, 43200, Note_off_c, 4, 71, 95
4, 43200, Note_off_c, 4, 69, 95
4, 43200, Note_off_c, 4, 65, 95
4, 43200, Note_off_c, 4, 60, 95
4, 43200, Note_off_c, 4, 52, 95
4, 43200, Note_on_c, 4, 71, 95
4, 43200, Note_on_c, 4, 69, 95
4, 43200, Note_on_c, 4, 65, 95
4, 43200, Note_on_c, 4, 60, 95
4, 43200, Note_on_c, 4, 52, 95
4, 44160, Note_off_c, 4, 71, 95
4, 44160, Note_off_c, 4, 69, 95
4, 44160, Note_off_c, 4, 65, 95
4, 44160, Note_off_c, 4, 60, 95
4, 44160, Note_off_c, 4, 52, 95
4, 44160, Note_on_c, 4, 71, 95
4, 44160, Note_on_c, 4, 69, 95
4, 44160, Note_on_c, 4, 65, 95
4, 44160, Note_on_c, 4, 60, 95
4, 44160, Note_on_c, 4, 52, 95
4, 45120, Note_off_c, 4, 71, 95
4, 45120, Note_off_c, 4, 69, 95
4, 45120, Note_off_c, 4, 65, 95
4, 45120, Note_off_c, 4, 60, 95
4, 45120, Note_off_c, 4, 52, 95
4, 45120, Note_on_c, 4, 71, 95
4, 45120, Note_on_c, 4, 69, 95
4, 45120, Note_on_c, 4, 65, 95
4, 45120, Note_on_c, 4, 60, 95
4, 45120, Note_on_c, 4, 52, 95
4, 46080, Note_off_c, 4, 71, 95
4, 46080, Note_off_c, 4, 69, 95
4, 46080, Note_off_c, 4, 65, 95
4, 46080, Note_off_c, 4, 60, 95
4, 46080, Note_off_c, 4, 52, 95
4, 46080, Note_on_c, 4, 64, 95
4, 46080, Note_on_c, 4, 59, 95
4, 46080, Note_on_c, 4, 55, 95
4, 46080, Note_on_c, 4, 50, 95
4, 46152, Note_off_c, 4, 64, 95
4, 46152, Note_off_c, 4, 59, 95
4, 46152, Note_off_c, 4, 55, 95
4, 46152, Note_off_c, 4, 50, 95
4, 46720, Note_on_c, 4, 64, 95
4, 46720, Note_on_c, 4, 59, 95
4, 46720, Note_on_c, 4, 55, 95
4, 46720, Note_on_c, 4, 50, 95
4, 46792, Note_off_c, 4, 64, 95
4, 46792, Note_off_c, 4, 59, 95
4, 46792, Note_off_c, 4, 55, 95
4, 46792, Note_off_c, 4, 50, 95
4, 47040, Note_on_c, 4, 76, 95
4, 47040, Note_on_c, 4, 71, 95
4, 47040, Note_on_c, 4, 67, 95
4, 47040, Note_on_c, 4, 64, 95
4, 47680, Note_off_c, 4, 76, 95
4, 47680, Note_off_c, 4, 71, 95
4, 47680, Note_off_c, 4, 67, 95
4, 47680, Note_off_c, 4, 64, 95
4, 47680, Note_on_c, 4, 76, 95
4, 47680, Note_on_c, 4, 71, 95
4, 47680, Note_on_c, 4, 67, 95
4, 47680, Note_on_c, 4, 64, 95
4, 48000, Note_off_c, 4, 76, 95
4, 48000, Note_off_c, 4, 71, 95
4, 48000, Note_off_c, 4, 67, 95
4, 48000, Note_off_c, 4, 64, 95
4, 48000, Note_on_c, 4, 64, 95
4, 48000, Note_on_c, 4, 59, 95
4, 48000, Note_on_c, 4, 55, 95
4, 48000, Note_on_c, 4, 50, 95
4, 48072, Note_off_c, 4, 64, 95
4, 48072, Note_off_c, 4, 59, 95
4, 48072, Note_off_c, 4, 55, 95
4, 48072, Note_off_c, 4, 50, 95
4, 48640, Note_on_c, 4, 64, 95
4, 48640, Note_on_c, 4, 59, 95
4, 48640, Note_on_c, 4, 55, 95
4, 48640, Note_on_c, 4, 50, 95
4, 48712, Note_off_c, 4, 64, 95
4, 48712, Note_off_c, 4, 59, 95
4, 48712, Note_off_c, 4, 55, 95
4, 48712, Note_off_c, 4, 50, 95
4, 48960, Note_on_c, 4, 76, 95
4, 48960, Note_on_c, 4, 71, 95
4, 48960, Note_on_c, 4, 67, 95
4, 48960, Note_on_c, 4, 64, 95
4, 49600, Note_off_c, 4, 76, 95
4, 49600, Note_off_c, 4, 71, 95
4, 49600, Note_off_c, 4, 67, 95
4, 49600, Note_off_c, 4, 64, 95
4, 49600, Note_on_c, 4, 76, 95
4, 49600, Note_on_c, 4, 71, 95
4, 49600, Note_on_c, 4, 67, 95
4, 49600, Note_on_c, 4, 64, 95
4, 49920, Note_off_c, 4, 76, 95
4, 49920, Note_off_c, 4, 71, 95
4, 49920, Note_off_c, 4, 67, 95
4, 49920, Note_off_c, 4, 64, 95
4, 49920, Note_on_c, 4, 64, 95
4, 49920, Note_on_c, 4, 59, 95
4, 49920, Note_on_c, 4, 55, 95
4, 49920, Note_on_c, 4, 50, 95
4, 49992, Note_off_c, 4, 64, 95
4, 49992, Note_off_c, 4, 59, 95
4, 49992, Note_off_c, 4, 55, 95
4, 49992, Note_off_c, 4, 50, 95
4, 50560, Note_on_c, 4, 64, 95
4, 50560, Note_on_c, 4, 59, 95
4, 50560, Note_on_c, 4, 55, 95
4, 50560, Note_on_c, 4, 50, 95
4, 50632, Note_off_c, 4, 64, 95
4, 50632, Note_off_c, 4, 59, 95
4, 50632, Note_off_c, 4, 55, 95
4, 50632, Note_off_c, 4, 50, 95
4, 50880, Note_on_c, 4, 76, 95
4, 50880, Note_on_c, 4, 71, 95
4, 50880, Note_on_c, 4, 67, 95
4, 50880, Note_on_c, 4, 64, 95
4, 51520, Note_off_c, 4, 76, 95
4, 51520, Note_off_c, 4, 71, 95
4, 51520, Note_off_c, 4, 67, 95
4, 51520, Note_off_c, 4, 64, 95
4, 51520, Note_on_c, 4, 76, 95
4, 51520, Note_on_c, 4, 71, 95
4, 51520, Note_on_c, 4, 67, 95
4, 51520, Note_on_c, 4, 64, 95
4, 51840, Note_off_c, 4, 76, 95
4, 51840, Note_off_c, 4, 71, 95
4, 51840, Note_off_c, 4, 67, 95
4, 51840, Note_off_c, 4, 64, 95
4, 51840, Note_on_c, 4, 64, 95
4, 51840, Note_on_c, 4, 59, 95
4, 51840, Note_on_c, 4, 55, 95
4, 51840, Note_on_c, 4, 50, 95
4, 51912, Note_off_c, 4, 64, 95
4, 51912, Note_off_c, 4, 59, 95
4, 51912, Note_off_c, 4, 55, 95
4, 51912, Note_off_c, 4, 50, 95
4, 52480, Note_on_c, 4, 64, 95
4, 52480, Note_on_c, 4, 59, 95
4, 52480, Note_on_c, 4, 55, 95
4, 52480, Note_on_c, 4, 50, 95
4, 52552, Note_off_c, 4, 64, 95
4, 52552, Note_off_c, 4, 59, 95
4, 52552, Note_off_c, 4, 55, 95
4, 52552, Note_off_c, 4, 50, 95
4, 52800, Note_on_c, 4, 76, 95
4, 52800, Note_on_c, 4, 71, 95
4, 52800, Note_on_c, 4, 67, 95
4, 52800, Note_on_c, 4, 64, 95
4, 53440, Note_off_c, 4, 76, 95
4, 53440, Note_off_c, 4, 71, 95
4, 53440, Note_off_c, 4, 67, 95
4, 53440, Note_off_c, 4, 64, 95
4, 53440, Note_on_c, 4, 76, 95
4, 53440, Note_on_c, 4, 71, 95
4, 53440, Note_on_c, 4, 67, 95
4, 53440, Note_on_c, 4, 64, 95
4, 53760, Note_off_c, 4, 76, 95
4, 53760, Note_off_c, 4, 71, 95
4, 53760, Note_off_c, 4, 67, 95
4, 53760, Note_off_c, 4, 64, 95
4, 53760, Note_on_c, 4, 64, 95
4, 53760, Note_on_c, 4, 59, 95
4, 53760, Note_on_c, 4, 55, 95
4, 53760, Note_on_c, 4, 50, 95
4, 53832, Note_off_c, 4, 64, 95
4, 53832, Note_off_c, 4, 59, 95
4, 53832, Note_off_c, 4, 55, 95
4, 53832, Note_off_c, 4, 50, 95
4, 54400, Note_on_c, 4, 64, 95
4, 54400, Note_on_c, 4, 59, 95
4, 54400, Note_on_c, 4, 55, 95
4, 54400, Note_on_c, 4, 50, 95
4, 54472, Note_off_c, 4, 64, 95
4, 54472, Note_off_c, 4, 59, 95
4, 54472, Note_off_c, 4, 55, 95
4, 54472, Note_off_c, 4, 50, 95
4, 54720, Note_on_c, 4, 76, 95
4, 54720, Note_on_c, 4, 71, 95
4, 54720, Note_on_c, 4, 67, 95
4, 54720, Note_on_c, 4, 64, 95
4, 55360, Note_off_c, 4, 76, 95
4, 55360, Note_off_c, 4, 71, 95
4, 55360, Note_off_c, 4, 67, 95
4, 55360, Note_off_c, 4, 64, 95
4, 55360, Note_on_c, 4, 76, 95
4, 55360, Note_on_c, 4, 71, 95
4, 55360, Note_on_c, 4, 67, 95
4, 55360, Note_on_c, 4, 64, 95
4, 55680, Note_off_c, 4, 76, 95
4, 55680, Note_off_c, 4, 71, 95
4, 55680, Note_off_c, 4, 67, 95
4, 55680, Note_off_c, 4, 64, 95
4, 55680, Note_on_c, 4, 64, 95
4, 55680, Note_on_c, 4, 59, 95
4, 55680, Note_on_c, 4, 55, 95
4, 55680, Note_on_c, 4, 50, 95
4, 55752, Note_off_c, 4, 64, 95
4, 55752, Note_off_c, 4, 59, 95
4, 55752, Note_off_c, 4, 55, 95
4, 55752, Note_off_c, 4, 50, 95
4, 56320, Note_on_c, 4, 64, 95
4, 56320, Note_on_c, 4, 59, 95
4, 56320, Note_on_c, 4, 55, 95
4, 56320, Note_on_c, 4, 50, 95
4, 56392, Note_off_c, 4, 64, 95
4, 56392, Note_off_c, 4, 59, 95
4, 56392, Note_off_c, 4, 55, 95
4, 56392, Note_off_c, 4, 50, 95
4, 56640, Note_on_c, 4, 76, 95
4, 56640, Note_on_c, 4, 71, 95
4, 56640, Note_on_c, 4, 67, 95
4, 56640, Note_on_c, 4, 64, 95
4, 57280, Note_off_c, 4, 76, 95
4, 57280, Note_off_c, 4, 71, 95
4, 57280, Note_off_c, 4, 67, 95
4, 57280, Note_off_c, 4, 64, 95
4, 57280, Note_on_c, 4, 76, 95
4, 57280, Note_on_c, 4, 71, 95
4, 57280, Note_on_c, 4, 67, 95
4, 57280, Note_on_c, 4, 64, 95
4, 57600, Note_off_c, 4, 76, 95
4, 57600, Note_off_c, 4, 71, 95
4, 57600, Note_off_c, 4, 67, 95
4, 57600, Note_off_c, 4, 64, 95
4, 57600, Note_on_c, 4, 59, 95
4, 57600, Note_on_c, 4, 55, 95
4, 57600, Note_on_c, 4, 50, 95
4, 57672, Note_off_c, 4, 59, 95
4, 57672, Note_off_c, 4, 55, 95
4, 57672, Note_off_c, 4, 50, 95
4, 58240, Note_on_c, 4, 74, 95
4, 58240, Note_on_c, 4, 67, 95
4, 58240, Note_on_c, 4, 62, 95
4, 58560, Note_off_c, 4, 74, 95
4, 58560, Note_off_c, 4, 67, 95
4, 58560, Note_off_c, 4, 62, 95
4, 58560, Note_on_c, 4, 74, 95
4, 58560, Note_on_c, 4, 67, 95
4, 58560, Note_on_c, 4, 62, 95
4, 59200, Note_off_c, 4, 74, 95
4, 59200, Note_off_c, 4, 67, 95
4, 59200, Note_off_c, 4, 62, 95
4, 59200, Note_on_c, 4, 74, 95
4, 59200, Note_on_c, 4, 67, 95
4, 59200, Note_on_c, 4, 62, 95
4, 59520, Note_off_c, 4, 74, 95
4, 59520, Note_off_c, 4, 67, 95
4, 59520, Note_off_c, 4, 62, 95
4, 59520, Note_on_c, 4, 59, 95
4, 59520, Note_on_c, 4, 55, 95
4, 59520, Note_on_c, 4, 50, 95
4, 59592, Note_off_c, 4, 59, 95
4, 59592, Note_off_c, 4, 55, 95
4, 59592, Note_off_c, 4, 50, 95
4, 60160, Note_on_c, 4, 59, 95
4, 60160, Note_on_c, 4, 55, 95
4, 60160, Note_on_c, 4, 50, 95
4, 60232, Note_off_c, 4, 59, 95
4, 60232, Note_off_c, 4, 55, 95
4, 60232, Note_off_c, 4, 50, 95
4, 60480, Note_on_c, 4, 74, 95
4, 60480, Note_on_c, 4, 67, 95
4, 60480, Note_on_c, 4, 62, 95
4, 61120, Note_off_c, 4, 74, 95
4, 61120, Note_off_c, 4, 67, 95
4, 61120, Note_off_c, 4, 62, 95
4, 61120, Note_on_c, 4, 74, 95
4, 61120, Note_on_c, 4, 67, 95
4, 61120, Note_on_c, 4, 62, 95
4, 61440, Note_off_c, 4, 74, 95
4, 61440, Note_off_c, 4, 67, 95
4, 61440, Note_off_c, 4, 62, 95
4, 61440, Note_on_c, 4, 64, 95
4, 61440, Note_on_c, 4, 59, 95
4, 61440, Note_on_c, 4, 55, 95
4, 61440, Note_on_c, 4, 50, 95
4, 61512, Note_off_c, 4, 64, 95
4, 61512, Note_off_c, 4, 59, 95
4, 61512, Note_off_c, 4, 55, 95
4, 61512, Note_off_c, 4, 50, 95
4, 62080, Note_on_c, 4, 64, 95
4, 62080, Note_on_c, 4, 59, 95
4, 62080, Note_on_c, 4, 55, 95
4, 62080, Note_on_c, 4, 50, 95
4, 62152, Note_off_c, 4, 64, 95
4, 62152, Note_off_c, 4, 59, 95
4, 62152, Note_off_c, 4, 55, 95
4, 62152, Note_off_c, 4, 50, 95
4, 62400, Note_on_c, 4, 76, 95
4, 62400, Note_on_c, 4, 71, 95
4, 62400, Note_on_c, 4, 67, 95
4, 62400, Note_on_c, 4, 64, 95
4, 63040, Note_off_c, 4, 76, 95
4, 63040, Note_off_c, 4, 71, 95
4, 63040, Note_off_c, 4, 67, 95
4, 63040, Note_off_c, 4, 64, 95
4, 63040, Note_on_c, 4, 76, 95
4, 63040, Note_on_c, 4, 71, 95
4, 63040, Note_on_c, 4, 67, 95
4, 63040, Note_on_c, 4, 64, 95
4, 63360, Note_off_c, 4, 76, 95
4, 63360, Note_off_c, 4, 71, 95
4, 63360, Note_off_c, 4, 67, 95
4, 63360, Note_off_c, 4, 64, 95
4, 63360, Note_on_c, 4, 64, 95
4, 63360, Note_on_c, 4, 59, 95
4, 63360, Note_on_c, 4, 55, 95
4, 63360, Note_on_c, 4, 50, 95
4, 63360, Note_on_c, 4, 45, 95
4, 63432, Note_off_c, 4, 64, 95
4, 63432, Note_off_c, 4, 59, 95
4, 63432, Note_off_c, 4, 55, 95
4, 63432, Note_off_c, 4, 50, 95
4, 63432, Note_off_c, 4, 45, 95
4, 64000, Note_on_c, 4, 64, 95
4, 64000, Note_on_c, 4, 59, 95
4, 64000, Note_on_c, 4, 55, 95
4, 64000, Note_on_c, 4, 50, 95
4, 64072, Note_off_c, 4, 64, 95
4, 64072, Note_off_c, 4, 59, 95
4, 64072, Note_off_c, 4, 55, 95
4, 64072, Note_off_c, 4, 50, 95
4, 64320, Note_on_c, 4, 76, 95
4, 64320, Note_on_c, 4, 71, 95
4, 64320, Note_on_c, 4, 67, 95
4, 64320, Note_on_c, 4, 64, 95
4, 64960, Note_off_c, 4, 76, 95
4, 64960, Note_off_c, 4, 71, 95
4, 64960, Note_off_c, 4, 67, 95
4, 64960, Note_off_c, 4, 64, 95
4, 64960, Note_on_c, 4, 76, 95
4, 64960, Note_on_c, 4, 71, 95
4, 64960, Note_on_c, 4, 67, 95
4, 64960, Note_on_c, 4, 64, 95
4, 65280, Note_off_c, 4, 76, 95
4, 65280, Note_off_c, 4, 71, 95
4, 65280, Note_off_c, 4, 67, 95
4, 65280, Note_off_c, 4, 64, 95
4, 65280, Note_on_c, 4, 64, 95
4, 65280, Note_on_c, 4, 59, 95
4, 65280, Note_on_c, 4, 55, 95
4, 65280, Note_on_c, 4, 50, 95
4, 65352, Note_off_c, 4, 64, 95
4, 65352, Note_off_c, 4, 59, 95
4, 65352, Note_off_c, 4, 55, 95
4, 65352, Note_off_c, 4, 50, 95
4, 65920, Note_on_c, 4, 64, 95
4, 65920, Note_on_c, 4, 59, 95
4, 65920, Note_on_c, 4, 55, 95
4, 65920, Note_on_c, 4, 50, 95
4, 65992, Note_off_c, 4, 64, 95
4, 65992, Note_off_c, 4, 59, 95
4, 65992, Note_off_c, 4, 55, 95
4, 65992, Note_off_c, 4, 50, 95
4, 66240, Note_on_c, 4, 76, 95
4, 66240, Note_on_c, 4, 71, 95
4, 66240, Note_on_c, 4, 67, 95
4, 66240, Note_on_c, 4, 64, 95
4, 66880, Note_off_c, 4, 76, 95
4, 66880, Note_off_c, 4, 71, 95
4, 66880, Note_off_c, 4, 67, 95
4, 66880, Note_off_c, 4, 64, 95
4, 66880, Note_on_c, 4, 76, 95
4, 66880, Note_on_c, 4, 71, 95
4, 66880, Note_on_c, 4, 67, 95
4, 66880, Note_on_c, 4, 64, 95
4, 67200, Note_off_c, 4, 76, 95
4, 67200, Note_off_c, 4, 71, 95
4, 67200, Note_off_c, 4, 67, 95
4, 67200, Note_off_c, 4, 64, 95
4, 67200, Note_on_c, 4, 64, 95
4, 67200, Note_on_c, 4, 59, 95
4, 67200, Note_on_c, 4, 55, 95
4, 67200, Note_on_c, 4, 50, 95
4, 67200, Note_on_c, 4, 45, 95
4, 67272, Note_off_c, 4, 64, 95
4, 67272, Note_off_c, 4, 59, 95
4, 67272, Note_off_c, 4, 55, 95
4, 67272, Note_off_c, 4, 50, 95
4, 67272, Note_off_c, 4, 45, 95
4, 67840, Note_on_c, 4, 64, 95
4, 67840, Note_on_c, 4, 59, 95
4, 67840, Note_on_c, 4, 55, 95
4, 67840, Note_on_c, 4, 50, 95
4, 67912, Note_off_c, 4, 64, 95
4, 67912, Note_off_c, 4, 59, 95
4, 67912, Note_off_c, 4, 55, 95
4, 67912, Note_off_c, 4, 50, 95
4, 68160, Note_on_c, 4, 76, 95
4, 68160, Note_on_c, 4, 71, 95
4, 68160, Note_on_c, 4, 67, 95
4, 68160, Note_on_c, 4, 64, 95
4, 68800, Note_off_c, 4, 76, 95
4, 68800, Note_off_c, 4, 71, 95
4, 68800, Note_off_c, 4, 67, 95
4, 68800, Note_off_c, 4, 64, 95
4, 68800, Note_on_c, 4, 76, 95
4, 68800, Note_on_c, 4, 71, 95
4, 68800, Note_on_c, 4, 67, 95
4, 68800, Note_on_c, 4, 64, 95
4, 69120, Note_off_c, 4, 76, 95
4, 69120, Note_off_c, 4, 71, 95
4, 69120, Note_off_c, 4, 67, 95
4, 69120, Note_off_c, 4, 64, 95
4, 69120, Note_on_c, 4, 64, 95
4, 69120, Note_on_c, 4, 59, 95
4, 69120, Note_on_c, 4, 55, 95
4, 69120, Note_on_c, 4, 50, 95
4, 69192, Note_off_c, 4, 64, 95
4, 69192, Note_off_c, 4, 59, 95
4, 69192, Note_off_c, 4, 55, 95
4, 69192, Note_off_c, 4, 50, 95
4, 69760, Note_on_c, 4, 64, 95
4, 69760, Note_on_c, 4, 59, 95
4, 69760, Note_on_c, 4, 55, 95
4, 69760, Note_on_c, 4, 50, 95
4, 69832, Note_off_c, 4, 64, 95
4, 69832, Note_off_c, 4, 59, 95
4, 69832, Note_off_c, 4, 55, 95
4, 69832, Note_off_c, 4, 50, 95
4, 70080, Note_on_c, 4, 76, 95
4, 70080, Note_on_c, 4, 71, 95
4, 70080, Note_on_c, 4, 67, 95
4, 70080, Note_on_c, 4, 64, 95
4, 70720, Note_off_c, 4, 76, 95
4, 70720, Note_off_c, 4, 71, 95
4, 70720, Note_off_c, 4, 67, 95
4, 70720, Note_off_c, 4, 64, 95
4, 70720, Note_on_c, 4, 76, 95
4, 70720, Note_on_c, 4, 71, 95
4, 70720, Note_on_c, 4, 67, 95
4, 70720, Note_on_c, 4, 64, 95
4, 71040, Note_off_c, 4, 76, 95
4, 71040, Note_off_c, 4, 71, 95
4, 71040, Note_off_c, 4, 67, 95
4, 71040, Note_off_c, 4, 64, 95
4, 71040, Note_on_c, 4, 64, 95
4, 71040, Note_on_c, 4, 59, 95
4, 71040, Note_on_c, 4, 55, 95
4, 71040, Note_on_c, 4, 50, 95
4, 71040, Note_on_c, 4, 45, 95
4, 71112, Note_off_c, 4, 64, 95
4, 71112, Note_off_c, 4, 59, 95
4, 71112, Note_off_c, 4, 55, 95
4, 71112, Note_off_c, 4, 50, 95
4, 71112, Note_off_c, 4, 45, 95
4, 71680, Note_on_c, 4, 64, 95
4, 71680, Note_on_c, 4, 59, 95
4, 71680, Note_on_c, 4, 55, 95
4, 71680, Note_on_c, 4, 50, 95
4, 71752, Note_off_c, 4, 64, 95
4, 71752, Note_off_c, 4, 59, 95
4, 71752, Note_off_c, 4, 55, 95
4, 71752, Note_off_c, 4, 50, 95
4, 72000, Note_on_c, 4, 76, 95
4, 72000, Note_on_c, 4, 71, 95
4, 72000, Note_on_c, 4, 67, 95
4, 72000, Note_on_c, 4, 64, 95
4, 72640, Note_off_c, 4, 76, 95
4, 72640, Note_off_c, 4, 71, 95
4, 72640, Note_off_c, 4, 67, 95
4, 72640, Note_off_c, 4, 64, 95
4, 72640, Note_on_c, 4, 76, 95
4, 72640, Note_on_c, 4, 71, 95
4, 72640, Note_on_c, 4, 67, 95
4, 72640, Note_on_c, 4, 64, 95
4, 72960, Note_off_c, 4, 76, 95
4, 72960, Note_off_c, 4, 71, 95
4, 72960, Note_off_c, 4, 67, 95
4, 72960, Note_off_c, 4, 64, 95
4, 72960, Note_on_c, 4, 64, 95
4, 72960, Note_on_c, 4, 59, 95
4, 72960, Note_on_c, 4, 55, 95
4, 72960, Note_on_c, 4, 50, 95
4, 73032, Note_off_c, 4, 64, 95
4, 73032, Note_off_c, 4, 59, 95
4, 73032, Note_off_c, 4, 55, 95
4, 73032, Note_off_c, 4, 50, 95
4, 73600, Note_on_c, 4, 64, 95
4, 73600, Note_on_c, 4, 59, 95
4, 73600, Note_on_c, 4, 55, 95
4, 73600, Note_on_c, 4, 50, 95
4, 73672, Note_off_c, 4, 64, 95
4, 73672, Note_off_c, 4, 59, 95
4, 73672, Note_off_c, 4, 55, 95
4, 73672, Note_off_c, 4, 50, 95
4, 73920, Note_on_c, 4, 74, 95
4, 73920, Note_on_c, 4, 67, 95
4, 73920, Note_on_c, 4, 62, 95
4, 74560, Note_off_c, 4, 74, 95
4, 74560, Note_off_c, 4, 67, 95
4, 74560, Note_off_c, 4, 62, 95
4, 74560, Note_on_c, 4, 74, 95
4, 74560, Note_on_c, 4, 67, 95
4, 74560, Note_on_c, 4, 62, 95
4, 74880, Note_off_c, 4, 74, 95
4, 74880, Note_off_c, 4, 67, 95
4, 74880, Note_off_c, 4, 62, 95
4, 74880, Note_on_c, 4, 64, 95
4, 74880, Note_on_c, 4, 59, 95
4, 74880, Note_on_c, 4, 55, 95
4, 74880, Note_on_c, 4, 50, 95
4, 74952, Note_off_c, 4, 64, 95
4, 74952, Note_off_c, 4, 59, 95
4, 74952, Note_off_c, 4, 55, 95
4, 74952, Note_off_c, 4, 50, 95
4, 75520, Note_on_c, 4, 74, 95
4, 75520, Note_on_c, 4, 67, 95
4, 75520, Note_on_c, 4, 62, 95
4, 75840, Note_off_c, 4, 74, 95
4, 75840, Note_off_c, 4, 67, 95
4, 75840, Note_off_c, 4, 62, 95
4, 75840, Note_on_c, 4, 74, 95
4, 75840, Note_on_c, 4, 67, 95
4, 75840, Note_on_c, 4, 62, 95
4, 76800, Note_off_c, 4, 74, 95
4, 76800, Note_off_c, 4, 67, 95
4, 76800, Note_off_c, 4, 62, 95
4, 76800, Note_on_c, 4, 71, 95
4, 76800, Note_on_c, 4, 67, 95
4, 76800, Note_on_c, 4, 64, 95
4, 76800, Note_on_c, 4, 59, 95
4, 76800, Note_on_c, 4, 52, 95
4, 77760, Note_off_c, 4, 71, 95
4, 77760, Note_off_c, 4, 67, 95
4, 77760, Note_off_c, 4, 64, 95
4, 77760, Note_off_c, 4, 59, 95
4, 77760, Note_off_c, 4, 52, 95
4, 77760, Note_on_c, 4, 71, 95
4, 77760, Note_on_c, 4, 67, 95
4, 77760, Note_on_c, 4, 64, 95
4, 77760, Note_on_c, 4, 59, 95
4, 77760, Note_on_c, 4, 52, 95
4, 78720, Note_off_c, 4, 71, 95
4, 78720, Note_off_c, 4, 67, 95
4, 78720, Note_off_c, 4, 64, 95
4, 78720, Note_off_c, 4, 59, 95
4, 78720, Note_off_c, 4, 52, 95
4, 78720, Note_on_c, 4, 71, 95
4, 78720, Note_on_c, 4, 67, 95
4, 78720, Note_on_c, 4, 64, 95
4, 78720, Note_on_c, 4, 59, 95
4, 78720, Note_on_c, 4, 52, 95
4, 79680, Note_off_c, 4, 71, 95
4, 79680, Note_off_c, 4, 67, 95
4, 79680, Note_off_c, 4, 64, 95
4, 79680, Note_off_c, 4, 59, 95
4, 79680, Note_off_c, 4, 52, 95
4, 79680, Note_on_c, 4, 71, 95
4, 79680, Note_on_c, 4, 67, 95
4, 79680, Note_on_c, 4, 64, 95
4, 79680, Note_on_c, 4, 59, 95
4, 79680, Note_on_c, 4, 52, 95
4, 80640, Note_off_c, 4, 71, 95
4, 80640, Note_off_c, 4, 67, 95
4, 80640, Note_off_c, 4, 64, 95
4, 80640, Note_off_c, 4, 59, 95
4, 80640, Note_off_c, 4, 52, 95
4, 80640, Note_on_c, 4, 71, 95
4, 80640, Note_on_c, 4, 67, 95
4, 80640, Note_on_c, 4, 64, 95
4, 80640, Note_on_c, 4, 59, 95
4, 80640, Note_on_c, 4, 52, 95
4, 81600, Note_off_c, 4, 71, 95
4, 81600, Note_off_c, 4, 67, 95
4, 81600, Note_off_c, 4, 64, 95
4, 81600, Note_off_c, 4, 59, 95
4, 81600, Note_off_c, 4, 52, 95
4, 81600, Note_on_c, 4, 71, 95
4, 81600, Note_on_c, 4, 67, 95
4, 81600, Note_on_c, 4, 64, 95
4, 81600, Note_on_c, 4, 59, 95
4, 81600, Note_on_c, 4, 52, 95
4, 82560, Note_off_c, 4, 71, 95
4, 82560, Note_off_c, 4, 67, 95
4, 82560, Note_off_c, 4, 64, 95
4, 82560, Note_off_c, 4, 59, 95
4, 82560, Note_off_c, 4, 52, 95
4, 82560, Note_on_c, 4, 71, 95
4, 82560, Note_on_c, 4, 67, 95
4, 82560, Note_on_c, 4, 64, 95
4, 82560, Note_on_c, 4, 59, 95
4, 82560, Note_on_c, 4, 52, 95
4, 83520, Note_off_c, 4, 71, 95
4, 83520, Note_off_c, 4, 67, 95
4, 83520, Note_off_c, 4, 64, 95
4, 83520, Note_off_c, 4, 59, 95
4, 83520, Note_off_c, 4, 52, 95
4, 83520, Note_on_c, 4, 71, 95
4, 83520, Note_on_c, 4, 67, 95
4, 83520, Note_on_c, 4, 64, 95
4, 83520, Note_on_c, 4, 59, 95
4, 83520, Note_on_c, 4, 52, 95
4, 84480, Note_off_c, 4, 71, 95
4, 84480, Note_off_c, 4, 67, 95
4, 84480, Note_off_c, 4, 64, 95
4, 84480, Note_off_c, 4, 59, 95
4, 84480, Note_off_c, 4, 52, 95
4, 84480, Note_on_c, 4, 71, 95
4, 84480, Note_on_c, 4, 67, 95
4, 84480, Note_on_c, 4, 64, 95
4, 84480, Note_on_c, 4, 59, 95
4, 84480, Note_on_c, 4, 52, 95
4, 85440, Note_off_c, 4, 71, 95
4, 85440, Note_off_c, 4, 67, 95
4, 85440, Note_off_c, 4, 64, 95
4, 85440, Note_off_c, 4, 59, 95
4, 85440, Note_off_c, 4, 52, 95
4, 85440, Note_on_c, 4, 71, 95
4, 85440, Note_on_c, 4, 67, 95
4, 85440, Note_on_c, 4, 64, 95
4, 85440, Note_on_c, 4, 59, 95
4, 85440, Note_on_c, 4, 52, 95
4, 86400, Note_off_c, 4, 71, 95
4, 86400, Note_off_c, 4, 67, 95
4, 86400, Note_off_c, 4, 64, 95
4, 86400, Note_off_c, 4, 59, 95
4, 86400, Note_off_c, 4, 52, 95
4, 86400, Note_on_c, 4, 71, 95
4, 86400, Note_on_c, 4, 67, 95
4, 86400, Note_on_c, 4, 64, 95
4, 86400, Note_on_c, 4, 59, 95
4, 86400, Note_on_c, 4, 52, 95
4, 87360, Note_off_c, 4, 71, 95
4, 87360, Note_off_c, 4, 67, 95
4, 87360, Note_off_c, 4, 64, 95
4, 87360, Note_off_c, 4, 59, 95
4, 87360, Note_off_c, 4, 52, 95
4, 87360, Note_on_c, 4, 71, 95
4, 87360, Note_on_c, 4, 67, 95
4, 87360, Note_on_c, 4, 64, 95
4, 87360, Note_on_c, 4, 59, 95
4, 87360, Note_on_c, 4, 52, 95
4, 88320, Note_off_c, 4, 71, 95
4, 88320, Note_off_c, 4, 67, 95
4, 88320, Note_off_c, 4, 64, 95
4, 88320, Note_off_c, 4, 59, 95
4, 88320, Note_off_c, 4, 52, 95
4, 88320, Note_on_c, 4, 71, 95
4, 88320, Note_on_c, 4, 67, 95
4, 88320, Note_on_c, 4, 62, 95
4, 88320, Note_on_c, 4, 55, 95
4, 89280, Note_off_c, 4, 71, 95
4, 89280, Note_off_c, 4, 67, 95
4, 89280, Note_off_c, 4, 62, 95
4, 89280, Note_off_c, 4, 55, 95
4, 89280, Note_on_c, 4, 71, 95
4, 89280, Note_on_c, 4, 67, 95
4, 89280, Note_on_c, 4, 62, 95
4, 89280, Note_on_c, 4, 55, 95
4, 90240, Note_off_c, 4, 71, 95
4, 90240, Note_off_c, 4, 67, 95
4, 90240, Note_off_c, 4, 62, 95
4, 90240, Note_off_c, 4, 55, 95
4, 90240, Note_on_c, 4, 71, 95
4, 90240, Note_on_c, 4, 67, 95
4, 90240, Note_on_c, 4, 62, 95
4, 90240, Note_on_c, 4, 55, 95
4, 91200, Note_off_c, 4, 71, 95
4, 91200, Note_off_c, 4, 67, 95
4, 91200, Note_off_c, 4, 62, 95
4, 91200, Note_off_c, 4, 55, 95
4, 91200, Note_on_c, 4, 71, 95
4, 91200, Note_on_c, 4, 67, 95
4, 91200, Note_on_c, 4, 62, 95
4, 91200, Note_on_c, 4, 55, 95
4, 92160, Note_off_c, 4, 71, 95
4, 92160, Note_off_c, 4, 67, 95
4, 92160, Note_off_c, 4, 62, 95
4, 92160, Note_off_c, 4, 55, 95
4, 92160, Note_on_c, 4, 71, 95
4, 92160, Note_on_c, 4, 67, 95
4, 92160, Note_on_c, 4, 64, 95
4, 92160, Note_on_c, 4, 59, 95
4, 92160, Note_on_c, 4, 52, 95
4, 93120, Note_off_c, 4, 71, 95
4, 93120, Note_off_c, 4, 67, 95
4, 93120, Note_off_c, 4, 64, 95
4, 93120, Note_off_c, 4, 59, 95
4, 93120, Note_off_c, 4, 52, 95
4, 93120, Note_on_c, 4, 71, 95
4, 93120, Note_on_c, 4, 67, 95
4, 93120, Note_on_c, 4, 64, 95
4, 93120, Note_on_c, 4, 59, 95
4, 93120, Note_on_c, 4, 52, 95
4, 94080, Note_off_c, 4, 71, 95
4, 94080, Note_off_c, 4, 67, 95
4, 94080, Note_off_c, 4, 64, 95
4, 94080, Note_off_c, 4, 59, 95
4, 94080, Note_off_c, 4, 52, 95
4, 94080, Note_on_c, 4, 71, 95
4, 94080, Note_on_c, 4, 67, 95
4, 94080, Note_on_c, 4, 64, 95
4, 94080, Note_on_c, 4, 59, 95
4, 94080, Note_on_c, 4, 52, 95
4, 95040, Note_off_c, 4, 71, 95
4, 95040, Note_off_c, 4, 67, 95
4, 95040, Note_off_c, 4, 64, 95
4, 95040, Note_off_c, 4, 59, 95
4, 95040, Note_off_c, 4, 52, 95
4, 95040, Note_on_c, 4, 71, 95
4, 95040, Note_on_c, 4, 67, 95
4, 95040, Note_on_c, 4, 64, 95
4, 95040, Note_on_c, 4, 59, 95
4, 95040, Note_on_c, 4, 52, 95
4, 96000, Note_off_c, 4, 71, 95
4, 96000, Note_off_c, 4, 67, 95
4, 96000, Note_off_c, 4, 64, 95
4, 96000, Note_off_c, 4, 59, 95
4, 96000, Note_off_c, 4, 52, 95
4, 96000, Note_on_c, 4, 71, 95
4, 96000, Note_on_c, 4, 67, 95
4, 96000, Note_on_c, 4, 64, 95
4, 96000, Note_on_c, 4, 59, 95
4, 96000, Note_on_c, 4, 52, 95
4, 96960, Note_off_c, 4, 71, 95
4, 96960, Note_off_c, 4, 67, 95
4, 96960, Note_off_c, 4, 64, 95
4, 96960, Note_off_c, 4, 59, 95
4, 96960, Note_off_c, 4, 52, 95
4, 96960, Note_on_c, 4, 71, 95
4, 96960, Note_on_c, 4, 67, 95
4, 96960, Note_on_c, 4, 64, 95
4, 96960, Note_on_c, 4, 59, 95
4, 96960, Note_on_c, 4, 52, 95
4, 97920, Note_off_c, 4, 71, 95
4, 97920, Note_off_c, 4, 67, 95
4, 97920, Note_off_c, 4, 64, 95
4, 97920, Note_off_c, 4, 59, 95
4, 97920, Note_off_c, 4, 52, 95
4, 97920, Note_on_c, 4, 71, 95
4, 97920, Note_on_c, 4, 67, 95
4, 97920, Note_on_c, 4, 64, 95
4, 97920, Note_on_c, 4, 59, 95
4, 97920, Note_on_c, 4, 52, 95
4, 98880, Note_off_c, 4, 71, 95
4, 98880, Note_off_c, 4, 67, 95
4, 98880, Note_off_c, 4, 64, 95
4, 98880, Note_off_c, 4, 59, 95
4, 98880, Note_off_c, 4, 52, 95
4, 98880, Note_on_c, 4, 71, 95
4, 98880, Note_on_c, 4, 67, 95
4, 98880, Note_on_c, 4, 64, 95
4, 98880, Note_on_c, 4, 59, 95
4, 98880, Note_on_c, 4, 52, 95
4, 99840, Note_off_c, 4, 71, 95
4, 99840, Note_off_c, 4, 67, 95
4, 99840, Note_off_c, 4, 64, 95
4, 99840, Note_off_c, 4, 59, 95
4, 99840, Note_off_c, 4, 52, 95
4, 99840, Note_on_c, 4, 71, 95
4, 99840, Note_on_c, 4, 67, 95
4, 99840, Note_on_c, 4, 64, 95
4, 99840, Note_on_c, 4, 59, 95
4, 99840, Note_on_c, 4, 52, 95
4, 100800, Note_off_c, 4, 71, 95
4, 100800, Note_off_c, 4, 67, 95
4, 100800, Note_off_c, 4, 64, 95
4, 100800, Note_off_c, 4, 59, 95
4, 100800, Note_off_c, 4, 52, 95
4, 100800, Note_on_c, 4, 71, 95
4, 100800, Note_on_c, 4, 67, 95
4, 100800, Note_on_c, 4, 64, 95
4, 100800, Note_on_c, 4, 59, 95
4, 100800, Note_on_c, 4, 52, 95
4, 101760, Note_off_c, 4, 71, 95
4, 101760, Note_off_c, 4, 67, 95
4, 101760, Note_off_c, 4, 64, 95
4, 101760, Note_off_c, 4, 59, 95
4, 101760, Note_off_c, 4, 52, 95
4, 101760, Note_on_c, 4, 71, 95
4, 101760, Note_on_c, 4, 67, 95
4, 101760, Note_on_c, 4, 64, 95
4, 101760, Note_on_c, 4, 59, 95
4, 101760, Note_on_c, 4, 52, 95
4, 102720, Note_off_c, 4, 71, 95
4, 102720, Note_off_c, 4, 67, 95
4, 102720, Note_off_c, 4, 64, 95
4, 102720, Note_off_c, 4, 59, 95
4, 102720, Note_off_c, 4, 52, 95
4, 102720, Note_on_c, 4, 71, 95
4, 102720, Note_on_c, 4, 67, 95
4, 102720, Note_on_c, 4, 64, 95
4, 102720, Note_on_c, 4, 59, 95
4, 102720, Note_on_c, 4, 52, 95
4, 103680, Note_off_c, 4, 71, 95
4, 103680, Note_off_c, 4, 67, 95
4, 103680, Note_off_c, 4, 64, 95
4, 103680, Note_off_c, 4, 59, 95
4, 103680, Note_off_c, 4, 52, 95
4, 103680, Note_on_c, 4, 71, 95
4, 103680, Note_on_c, 4, 67, 95
4, 103680, Note_on_c, 4, 62, 95
4, 103680, Note_on_c, 4, 55, 95
4, 104640, Note_off_c, 4, 71, 95
4, 104640, Note_off_c, 4, 67, 95
4, 104640, Note_off_c, 4, 62, 95
4, 104640, Note_off_c, 4, 55, 95
4, 104640, Note_on_c, 4, 71, 95
4, 104640, Note_on_c, 4, 67, 95
4, 104640, Note_on_c, 4, 62, 95
4, 104640, Note_on_c, 4, 55, 95
4, 105600, Note_off_c, 4, 71, 95
4, 105600, Note_off_c, 4, 67, 95
4, 105600, Note_off_c, 4, 62, 95
4, 105600, Note_off_c, 4, 55, 95
4, 105600, Note_on_c, 4, 71, 95
4, 105600, Note_on_c, 4, 67, 95
4, 105600, Note_on_c, 4, 62, 95
4, 105600, Note_on_c, 4, 55, 95
4, 106560, Note_off_c, 4, 71, 95
4, 106560, Note_off_c, 4, 67, 95
4, 106560, Note_off_c, 4, 62, 95
4, 106560, Note_off_c, 4, 55, 95
4, 106560, Note_on_c, 5, 71, 95
4, 106560, Note_on_c, 5, 67, 95
4, 106560, Note_on_c, 5, 62, 95
4, 106560, Note_on_c, 5, 55, 95
4, 106680, Pitch_bend_c, 5, 7168
4, 106680, Pitch_bend_c, 5, 7168
4, 106680, Pitch_bend_c, 5, 7168
4, 106680, Pitch_bend_c, 5, 7424
4, 106800, Pitch_bend_c, 5, 6144
4, 106800, Pitch_bend_c, 5, 6144
4, 106800, Pitch_bend_c, 5, 6144
4, 106800, Pitch_bend_c, 5, 6528
4, 106920, Pitch_bend_c, 5, 5120
4, 106920, Pitch_bend_c, 5, 5120
4, 106920, Pitch_bend_c, 5, 5120
4, 106920, Pitch_bend_c, 5, 5632
4, 107040, Pitch_bend_c, 5, 3968
4, 107040, Pitch_bend_c, 5, 3968
4, 107040, Pitch_bend_c, 5, 3968
4, 107040, Pitch_bend_c, 5, 4736
4, 107160, Pitch_bend_c, 5, 2944
4, 107160, Pitch_bend_c, 5, 2944
4, 107160, Pitch_bend_c, 5, 2944
4, 107160, Pitch_bend_c, 5, 3840
4, 107280, Pitch_bend_c, 5, 1920
4, 107280, Pitch_bend_c, 5, 1920
4, 107280, Pitch_bend_c, 5, 1920
4, 107280, Pitch_bend_c, 5, 2944
4, 107400, Pitch_bend_c, 5, 896
4, 107400, Pitch_bend_c, 5, 896
4, 107400, Pitch_bend_c, 5, 896
4, 107400, Pitch_bend_c, 5, 2048
4, 107520, Pitch_bend_c, 5, 0
4, 107520, Pitch_bend_c, 5, 8192
4, 107520, Note_off_c, 5, 71, 95
4, 107520, Pitch_bend_c, 5, 0
4, 107520, Pitch_bend_c, 5, 8192
4, 107520, Note_off_c, 5, 67, 95
4, 107520, Pitch_bend_c, 5, 0
4, 107520, Pitch_bend_c, 5, 8192
4, 107520, Note_off_c, 5, 62, 95
4, 107520, Pitch_bend_c, 5, 1152
4, 107520, Pitch_bend_c, 5, 8192
4, 107520, Note_off_c, 5, 55, 95
4, 107520, Note_on_c, 4, 64, 95
4, 107520, Note_on_c, 4, 59, 95
4, 107520, Note_on_c, 4, 55, 95
4, 107520, Note_on_c, 4, 50, 95
4, 107520, Note_on_c, 4, 45, 95
4, 107592, Note_off_c, 4, 64, 95
4, 107592, Note_off_c, 4, 59, 95
4, 107592, Note_off_c, 4, 55, 95
4, 107592, Note_off_c, 4, 50, 95
4, 107592, Note_off_c, 4, 45, 95
4, 108160, Note_on_c, 4, 64, 95
4, 108160, Note_on_c, 4, 59, 95
4, 108160, Note_on_c, 4, 55, 95
4, 108160, Note_on_c, 4, 50, 95
4, 108160, Note_on_c, 4, 45, 95
4, 108232, Note_off_c, 4, 64, 95
4, 108232, Note_off_c, 4, 59, 95
4, 108232, Note_off_c, 4, 55, 95
4, 108232, Note_off_c, 4, 50, 95
4, 108232, Note_off_c, 4, 45, 95
4, 108480, Note_on_c, 4, 71, 95
4, 108480, Note_on_c, 4, 67, 95
4, 108480, Note_on_c, 4, 64, 95
4, 108480, Note_on_c, 4, 59, 95
4, 108480, Note_on_c, 4, 52, 95
4, 109120, Note_off_c, 4, 71, 95
4, 109120, Note_off_c, 4, 67, 95
4, 109120, Note_off_c, 4, 64, 95
4, 109120, Note_off_c, 4, 59, 95
4, 109120, Note_off_c, 4, 52, 95
4, 109120, Note_on_c, 4, 71, 95
4, 109120, Note_on_c, 4, 67, 95
4, 109120, Note_on_c, 4, 64, 95
4, 109120, Note_on_c, 4, 59, 95
4, 109120, Note_on_c, 4, 52, 95
4, 109440, Note_off_c, 4, 71, 95
4, 109440, Note_off_c, 4, 67, 95
4, 109440, Note_off_c, 4, 64, 95
4, 109440, Note_off_c, 4, 59, 95
4, 109440, Note_off_c, 4, 52, 95
4, 109440, Note_on_c, 4, 64, 95
4, 109440, Note_on_c, 4, 59, 95
4, 109440, Note_on_c, 4, 55, 95
4, 109440, Note_on_c, 4, 50, 95
4, 109440, Note_on_c, 4, 45, 95
4, 109512, Note_off_c, 4, 64, 95
4, 109512, Note_off_c, 4, 59, 95
4, 109512, Note_off_c, 4, 55, 95
4, 109512, Note_off_c, 4, 50, 95
4, 109512, Note_off_c, 4, 45, 95
4, 110080, Note_on_c, 4, 64, 95
4, 110080, Note_on_c, 4, 59, 95
4, 110080, Note_on_c, 4, 55, 95
4, 110080, Note_on_c, 4, 50, 95
4, 110080, Note_on_c, 4, 45, 95
4, 110152, Note_off_c, 4, 64, 95
4, 110152, Note_off_c, 4, 59, 95
4, 110152, Note_off_c, 4, 55, 95
4, 110152, Note_off_c, 4, 50, 95
4, 110152, Note_off_c, 4, 45, 95
4, 110400, Note_on_c, 4, 71, 95
4, 110400, Note_on_c, 4, 67, 95
4, 110400, Note_on_c, 4, 64, 95
4, 110400, Note_on_c, 4, 59, 95
4, 110400, Note_on_c, 4, 52, 95
4, 111040, Note_off_c, 4, 71, 95
4, 111040, Note_off_c, 4, 67, 95
4, 111040, Note_off_c, 4, 64, 95
4, 111040, Note_off_c, 4, 59, 95
4, 111040, Note_off_c, 4, 52, 95
4, 111040, Note_on_c, 4, 71, 95
4, 111040, Note_on_c, 4, 67, 95
4, 111040, Note_on_c, 4, 64, 95
4, 111040, Note_on_c, 4, 59, 95
4, 111040, Note_on_c, 4, 52, 95
4, 111360, Note_off_c, 4, 71, 95
4, 111360, Note_off_c, 4, 67, 95
4, 111360, Note_off_c, 4, 64, 95
4, 111360, Note_off_c, 4, 59, 95
4, 111360, Note_off_c, 4, 52, 95
4, 111360, Note_on_c, 4, 64, 95
4, 111360, Note_on_c, 4, 59, 95
4, 111360, Note_on_c, 4, 55, 95
4, 111360, Note_on_c, 4, 50, 95
4, 111360, Note_on_c, 4, 45, 95
4, 111432, Note_off_c, 4, 64, 95
4, 111432, Note_off_c, 4, 59, 95
4, 111432, Note_off_c, 4, 55, 95
4, 111432, Note_off_c, 4, 50, 95
4, 111432, Note_off_c, 4, 45, 95
4, 112000, Note_on_c, 4, 64, 95
4, 112000, Note_on_c, 4, 59, 95
4, 112000, Note_on_c, 4, 55, 95
4, 112000, Note_on_c, 4, 50, 95
4, 112000, Note_on_c, 4, 45, 95
4, 112072, Note_off_c, 4, 64, 95
4, 112072, Note_off_c, 4, 59, 95
4, 112072, Note_off_c, 4, 55, 95
4, 112072, Note_off_c, 4, 50, 95
4, 112072, Note_off_c, 4, 45, 95
4, 112320, Note_on_c, 4, 71, 95
4, 112320, Note_on_c, 4, 67, 95
4, 112320, Note_on_c, 4, 62, 95
4, 112320, Note_on_c, 4, 55, 95
4, 112960, Note_off_c, 4, 71, 95
4, 112960, Note_off_c, 4, 67, 95
4, 112960, Note_off_c, 4, 62, 95
4, 112960, Note_off_c, 4, 55, 95
4, 112960, Note_on_c, 4, 71, 95
4, 112960, Note_on_c, 4, 67, 95
4, 112960, Note_on_c, 4, 62, 95
4, 112960, Note_on_c, 4, 55, 95
4, 113280, Note_off_c, 4, 71, 95
4, 113280, Note_off_c, 4, 67, 95
4, 113280, Note_off_c, 4, 62, 95
4, 113280, Note_off_c, 4, 55, 95
4, 113280, Note_on_c, 4, 64, 95
4, 113280, Note_on_c, 4, 59, 95
4, 113280, Note_on_c, 4, 55, 95
4, 113280, Note_on_c, 4, 50, 95
4, 113280, Note_on_c, 4, 45, 95
4, 113352, Note_off_c, 4, 64, 95
4, 113352, Note_off_c, 4, 59, 95
4, 113352, Note_off_c, 4, 55, 95
4, 113352, Note_off_c, 4, 50, 95
4, 113352, Note_off_c, 4, 45, 95
4, 113920, Note_on_c, 4, 64, 95
4, 113920, Note_on_c, 4, 59, 95
4, 113920, Note_on_c, 4, 55, 95
4, 113920, Note_on_c, 4, 50, 95
4, 113920, Note_on_c, 4, 45, 95
4, 113992, Note_off_c, 4, 64, 95
4, 113992, Note_off_c, 4, 59, 95
4, 113992, Note_off_c, 4, 55, 95
4, 113992, Note_off_c, 4, 50, 95
4, 113992, Note_off_c, 4, 45, 95
4, 114240, Note_on_c, 4, 71, 95
4, 114240, Note_on_c, 4, 67, 95
4, 114240, Note_on_c, 4, 62, 95
4, 114240, Note_on_c, 4, 55, 95
4, 114880, Note_off_c, 4, 71, 95
4, 114880, Note_off_c, 4, 67, 95
4, 114880, Note_off_c, 4, 62, 95
4, 114880, Note_off_c, 4, 55, 95
4, 114880, Note_on_c, 4, 71, 95
4, 114880, Note_on_c, 4, 67, 95
4, 114880, Note_on_c, 4, 62, 95
4, 114880, Note_on_c, 4, 55, 95
4, 115200, Note_off_c, 4, 71, 95
4, 115200, Note_off_c, 4, 67, 95
4, 115200, Note_off_c, 4, 62, 95
4, 115200, Note_off_c, 4, 55, 95
4, 115200, Note_on_c, 4, 64, 95
4, 115200, Note_on_c, 4, 59, 95
4, 115200, Note_on_c, 4, 55, 95
4, 115200, Note_on_c, 4, 50, 95
4, 115200, Note_on_c, 4, 45, 95
4, 115272, Note_off_c, 4, 64, 95
4, 115272, Note_off_c, 4, 59, 95
4, 115272, Note_off_c, 4, 55, 95
4, 115272, Note_off_c, 4, 50, 95
4, 115272, Note_off_c, 4, 45, 95
4, 115840, Note_on_c, 4, 64, 95
4, 115840, Note_on_c, 4, 59, 95
4, 115840, Note_on_c, 4, 55, 95
4, 115840, Note_on_c, 4, 50, 95
4, 115840, Note_on_c, 4, 45, 95
4, 115912, Note_off_c, 4, 64, 95
4, 115912, Note_off_c, 4, 59, 95
4, 115912, Note_off_c, 4, 55, 95
4, 115912, Note_off_c, 4, 50, 95
4, 115912, Note_off_c, 4, 45, 95
4, 116160, Note_on_c, 4, 71, 95
4, 116160, Note_on_c, 4, 68, 95
4, 116160, Note_on_c, 4, 64, 95
4, 116160, Note_on_c, 4, 59, 95
4, 116160, Note_on_c, 4, 52, 95
4, 116800, Note_off_c, 4, 71, 95
4, 116800, Note_off_c, 4, 68, 95
4, 116800, Note_off_c, 4, 64, 95
4, 116800, Note_off_c, 4, 59, 95
4, 116800, Note_off_c, 4, 52, 95
4, 116800, Note_on_c, 4, 71, 95
4, 116800, Note_on_c, 4, 68, 95
4, 116800, Note_on_c, 4, 64, 95
4, 116800, Note_on_c, 4, 59, 95
4, 116800, Note_on_c, 4, 52, 95
4, 117120, Note_off_c, 4, 71, 95
4, 117120, Note_off_c, 4, 68, 95
4, 117120, Note_off_c, 4, 64, 95
4, 117120, Note_off_c, 4, 59, 95
4, 117120, Note_off_c, 4, 52, 95
4, 117120, Note_on_c, 4, 64, 95
4, 117120, Note_on_c, 4, 59, 95
4, 117120, Note_on_c, 4, 55, 95
4, 117120, Note_on_c, 4, 50, 95
4, 117120, Note_on_c, 4, 45, 95
4, 117192, Note_off_c, 4, 64, 95
4, 117192, Note_off_c, 4, 59, 95
4, 117192, Note_off_c, 4, 55, 95
4, 117192, Note_off_c, 4, 50, 95
4, 117192, Note_off_c, 4, 45, 95
4, 117760, Note_on_c, 4, 64, 95
4, 117760, Note_on_c, 4, 59, 95
4, 117760, Note_on_c, 4, 55, 95
4, 117760, Note_on_c, 4, 50, 95
4, 117760, Note_on_c, 4, 45, 95
4, 117832, Note_off_c, 4, 64, 95
4, 117832, Note_off_c, 4, 59, 95
4, 117832, Note_off_c, 4, 55, 95
4, 117832, Note_off_c, 4, 50, 95
4, 117832, Note_off_c, 4, 45, 95
4, 118080, Note_on_c, 4, 71, 95
4, 118080, Note_on_c, 4, 68, 95
4, 118080, Note_on_c, 4, 64, 95
4, 118080, Note_on_c, 4, 59, 95
4, 118080, Note_on_c, 4, 52, 95
4, 118720, Note_off_c, 4, 71, 95
4, 118720, Note_off_c, 4, 68, 95
4, 118720, Note_off_c, 4, 64, 95
4, 118720, Note_off_c, 4, 59, 95
4, 118720, Note_off_c, 4, 52, 95
4, 118720, Note_on_c, 4, 71, 95
4, 118720, Note_on_c, 4, 68, 95
4, 118720, Note_on_c, 4, 64, 95
4, 118720, Note_on_c, 4, 59, 95
4, 118720, Note_on_c, 4, 52, 95
4, 119040, Note_off_c, 4, 71, 95
4, 119040, Note_off_c, 4, 68, 95
4, 119040, Note_off_c, 4, 64, 95
4, 119040, Note_off_c, 4, 59, 95
4, 119040, Note_off_c, 4, 52, 95
4, 119040, Note_on_c, 4, 64, 95
4, 119040, Note_on_c, 4, 59, 95
4, 119040, Note_on_c, 4, 55, 95
4, 119040, Note_on_c, 4, 50, 95
4, 119040, Note_on_c, 4, 45, 95
4, 119112, Note_off_c, 4, 64, 95
4, 119112, Note_off_c, 4, 59, 95
4, 119112, Note_off_c, 4, 55, 95
4, 119112, Note_off_c, 4, 50, 95
4, 119112, Note_off_c, 4, 45, 95
4, 119680, Note_on_c, 4, 64, 95
4, 119680, Note_on_c, 4, 59, 95
4, 119680, Note_on_c, 4, 55, 95
4, 119680, Note_on_c, 4, 50, 95
4, 119680, Note_on_c, 4, 45, 95
4, 119752, Note_off_c, 4, 64, 95
4, 119752, Note_off_c, 4, 59, 95
4, 119752, Note_off_c, 4, 55, 95
4, 119752, Note_off_c, 4, 50, 95
4, 119752, Note_off_c, 4, 45, 95
4, 120000, Note_on_c, 4, 71, 95
4, 120000, Note_on_c, 4, 67, 95
4, 120000, Note_on_c, 4, 64, 95
4, 120000, Note_on_c, 4, 59, 95
4, 120000, Note_on_c, 4, 52, 95
4, 120640, Note_off_c, 4, 71, 95
4, 120640, Note_off_c, 4, 67, 95
4, 120640, Note_off_c, 4, 64, 95
4, 120640, Note_off_c, 4, 59, 95
4, 120640, Note_off_c, 4, 52, 95
4, 120640, Note_on_c, 4, 71, 95
4, 120640, Note_on_c, 4, 67, 95
4, 120640, Note_on_c, 4, 64, 95
4, 120640, Note_on_c, 4, 59, 95
4, 120640, Note_on_c, 4, 52, 95
4, 120960, Note_off_c, 4, 71, 95
4, 120960, Note_off_c, 4, 67, 95
4, 120960, Note_off_c, 4, 64, 95
4, 120960, Note_off_c, 4, 59, 95
4, 120960, Note_off_c, 4, 52, 95
4, 120960, Note_on_c, 4, 64, 95
4, 120960, Note_on_c, 4, 59, 95
4, 120960, Note_on_c, 4, 55, 95
4, 120960, Note_on_c, 4, 50, 95
4, 120960, Note_on_c, 4, 45, 95
4, 121032, Note_off_c, 4, 64, 95
4, 121032, Note_off_c, 4, 59, 95
4, 121032, Note_off_c, 4, 55, 95
4, 121032, Note_off_c, 4, 50, 95
4, 121032, Note_off_c, 4, 45, 95
4, 121600, Note_on_c, 4, 64, 95
4, 121600, Note_on_c, 4, 59, 95
4, 121600, Note_on_c, 4, 55, 95
4, 121600, Note_on_c, 4, 50, 95
4, 121600, Note_on_c, 4, 45, 95
4, 121672, Note_off_c, 4, 64, 95
4, 121672, Note_off_c, 4, 59, 95
4, 121672, Note_off_c, 4, 55, 95
4, 121672, Note_off_c, 4, 50, 95
4, 121672, Note_off_c, 4, 45, 95
4, 121920, Note_on_c, 4, 71, 95
4, 121920, Note_on_c, 4, 67, 95
4, 121920, Note_on_c, 4, 64, 95
4, 121920, Note_on_c, 4, 59, 95
4, 121920, Note_on_c, 4, 52, 95
4, 122560, Note_off_c, 4, 71, 95
4, 122560, Note_off_c, 4, 67, 95
4, 122560, Note_off_c, 4, 64, 95
4, 122560, Note_off_c, 4, 59, 95
4, 122560, Note_off_c, 4, 52, 95
4, 122560, Note_on_c, 4, 71, 95
4, 122560, Note_on_c, 4, 67, 95
4, 122560, Note_on_c, 4, 64, 95
4, 122560, Note_on_c, 4, 59, 95
4, 122560, Note_on_c, 4, 52, 95
4, 122880, Note_off_c, 4, 71, 95
4, 122880, Note_off_c, 4, 67, 95
4, 122880, Note_off_c, 4, 64, 95
4, 122880, Note_off_c, 4, 59, 95
4, 122880, Note_off_c, 4, 52, 95
4, 122880, Note_on_c, 4, 66, 95
4, 122880, Note_on_c, 4, 62, 95
4, 122880, Note_on_c, 4, 57, 95
4, 122880, Note_on_c, 4, 50, 95
4, 123840, Note_off_c, 4, 66, 95
4, 123840, Note_off_c, 4, 62, 95
4, 123840, Note_off_c, 4, 57, 95
4, 123840, Note_off_c, 4, 50, 95
4, 123840, Note_on_c, 4, 66, 95
4, 123840, Note_on_c, 4, 62, 95
4, 123840, Note_on_c, 4, 57, 95
4, 123840, Note_on_c, 4, 50, 95
4, 124800, Note_off_c, 4, 66, 95
4, 124800, Note_off_c, 4, 62, 95
4, 124800, Note_off_c, 4, 57, 95
4, 124800, Note_off_c, 4, 50, 95
4, 124800, Note_on_c, 4, 66, 95
4, 124800, Note_on_c, 4, 62, 95
4, 124800, Note_on_c, 4, 57, 95
4, 124800, Note_on_c, 4, 50, 95
4, 125760, Note_off_c, 4, 66, 95
4, 125760, Note_off_c, 4, 62, 95
4, 125760, Note_off_c, 4, 57, 95
4, 125760, Note_off_c, 4, 50, 95
4, 125760, Note_on_c, 4, 66, 95
4, 125760, Note_on_c, 4, 62, 95
4, 125760, Note_on_c, 4, 57, 95
4, 125760, Note_on_c, 4, 50, 95
4, 126400, Note_off_c, 4, 66, 95
4, 126400, Note_off_c, 4, 62, 95
4, 126400, Note_off_c, 4, 57, 95
4, 126400, Note_off_c, 4, 50, 95
4, 126400, Note_on_c, 4, 66, 95
4, 126400, Note_on_c, 4, 62, 95
4, 126400, Note_on_c, 4, 57, 95
4, 126400, Note_on_c, 4, 50, 95
4, 126720, Note_off_c, 4, 66, 95
4, 126720, Note_off_c, 4, 62, 95
4, 126720, Note_off_c, 4, 57, 95
4, 126720, Note_off_c, 4, 50, 95
4, 126720, Note_on_c, 4, 66, 95
4, 126720, Note_on_c, 4, 62, 95
4, 126720, Note_on_c, 4, 57, 95
4, 126720, Note_on_c, 4, 50, 95
4, 127360, Note_off_c, 4, 66, 95
4, 127360, Note_off_c, 4, 62, 95
4, 127360, Note_off_c, 4, 57, 95
4, 127360, Note_off_c, 4, 50, 95
4, 127360, Note_on_c, 4, 66, 95
4, 127360, Note_on_c, 4, 62, 95
4, 127360, Note_on_c, 4, 57, 95
4, 127360, Note_on_c, 4, 50, 95
4, 127680, Note_off_c, 4, 66, 95
4, 127680, Note_off_c, 4, 62, 95
4, 127680, Note_off_c, 4, 57, 95
4, 127680, Note_off_c, 4, 50, 95
4, 127680, Note_on_c, 4, 66, 95
4, 127680, Note_on_c, 4, 62, 95
4, 127680, Note_on_c, 4, 57, 95
4, 127680, Note_on_c, 4, 50, 95
4, 128640, Note_off_c, 4, 66, 95
4, 128640, Note_off_c, 4, 62, 95
4, 128640, Note_off_c, 4, 57, 95
4, 128640, Note_off_c, 4, 50, 95
4, 128640, Note_on_c, 4, 66, 95
4, 128640, Note_on_c, 4, 62, 95
4, 128640, Note_on_c, 4, 57, 95
4, 128640, Note_on_c, 4, 50, 95
4, 129600, Note_off_c, 4, 66, 95
4, 129600, Note_off_c, 4, 62, 95
4, 129600, Note_off_c, 4, 57, 95
4, 129600, Note_off_c, 4, 50, 95
4, 129600, Note_on_c, 4, 66, 95
4, 129600, Note_on_c, 4, 62, 95
4, 129600, Note_on_c, 4, 57, 95
4, 129600, Note_on_c, 4, 50, 95
4, 130560, Note_off_c, 4, 66, 95
4, 130560, Note_off_c, 4, 62, 95
4, 130560, Note_off_c, 4, 57, 95
4, 130560, Note_off_c, 4, 50, 95
4, 130560, Note_on_c, 4, 71, 95
4, 130560, Note_on_c, 4, 67, 95
4, 130560, Note_on_c, 4, 64, 95
4, 130560, Note_on_c, 4, 59, 95
4, 130560, Note_on_c, 4, 52, 95
4, 131520, Note_off_c, 4, 71, 95
4, 131520, Note_off_c, 4, 67, 95
4, 131520, Note_off_c, 4, 64, 95
4, 131520, Note_off_c, 4, 59, 95
4, 131520, Note_off_c, 4, 52, 95
4, 131520, Note_on_c, 4, 71, 95
4, 131520, Note_on_c, 4, 67, 95
4, 131520, Note_on_c, 4, 64, 95
4, 131520, Note_on_c, 4, 59, 95
4, 131520, Note_on_c, 4, 52, 95
4, 132160, Note_off_c, 4, 71, 95
4, 132160, Note_off_c, 4, 67, 95
4, 132160, Note_off_c, 4, 64, 95
4, 132160, Note_off_c, 4, 59, 95
4, 132160, Note_off_c, 4, 52, 95
4, 132160, Note_on_c, 4, 71, 95
4, 132160, Note_on_c, 4, 67, 95
4, 132160, Note_on_c, 4, 64, 95
4, 132160, Note_on_c, 4, 59, 95
4, 132160, Note_on_c, 4, 52, 95
4, 132480, Note_off_c, 4, 71, 95
4, 132480, Note_off_c, 4, 67, 95
4, 132480, Note_off_c, 4, 64, 95
4, 132480, Note_off_c, 4, 59, 95
4, 132480, Note_off_c, 4, 52, 95
4, 133440, Note_on_c, 4, 71, 95
4, 133440, Note_on_c, 4, 67, 95
4, 133440, Note_on_c, 4, 64, 95
4, 133440, Note_on_c, 4, 59, 95
4, 133440, Note_on_c, 4, 52, 95
4, 134400, Note_off_c, 4, 71, 95
4, 134400, Note_off_c, 4, 67, 95
4, 134400, Note_off_c, 4, 64, 95
4, 134400, Note_off_c, 4, 59, 95
4, 134400, Note_off_c, 4, 52, 95
4, 134400, Note_on_c, 4, 72, 95
4, 134400, Note_on_c, 4, 69, 95
4, 134400, Note_on_c, 4, 65, 95
4, 134400, Note_on_c, 4, 60, 95
4, 134400, Note_on_c, 4, 53, 95
4, 135360, Note_off_c, 4, 72, 95
4, 135360, Note_off_c, 4, 69, 95
4, 135360, Note_off_c, 4, 65, 95
4, 135360, Note_off_c, 4, 60, 95
4, 135360, Note_off_c, 4, 53, 95
4, 135360, Note_on_c, 4, 72, 95
4, 135360, Note_on_c, 4, 69, 95
4, 135360, Note_on_c, 4, 65, 95
4, 135360, Note_on_c, 4, 60, 95
4, 135360, Note_on_c, 4, 53, 95
4, 136000, Note_off_c, 4, 72, 95
4, 136000, Note_off_c, 4, 69, 95
4, 136000, Note_off_c, 4, 65, 95
4, 136000, Note_off_c, 4, 60, 95
4, 136000, Note_off_c, 4, 53, 95
4, 136000, Note_on_c, 4, 72, 95
4, 136000, Note_on_c, 4, 69, 95
4, 136000, Note_on_c, 4, 65, 95
4, 136000, Note_on_c, 4, 60, 95
4, 136000, Note_on_c, 4, 53, 95
4, 136320, Note_off_c, 4, 72, 95
4, 136320, Note_off_c, 4, 69, 95
4, 136320, Note_off_c, 4, 65, 95
4, 136320, Note_off_c, 4, 60, 95
4, 136320, Note_off_c, 4, 53, 95
4, 137280, Note_on_c, 4, 72, 95
4, 137280, Note_on_c, 4, 69, 95
4, 137280, Note_on_c, 4, 65, 95
4, 137280, Note_on_c, 4, 60, 95
4, 137280, Note_on_c, 4, 53, 95
4, 138240, Note_off_c, 4, 72, 95
4, 138240, Note_off_c, 4, 69, 95
4, 138240, Note_off_c, 4, 65, 95
4, 138240, Note_off_c, 4, 60, 95
4, 138240, Note_off_c, 4, 53, 95
4, 138240, Note_on_c, 4, 71, 95
4, 138240, Note_on_c, 4, 67, 95
4, 138240, Note_on_c, 4, 64, 95
4, 138240, Note_on_c, 4, 59, 95
4, 138240, Note_on_c, 4, 52, 95
4, 138880, Note_off_c, 4, 71, 95
4, 138880, Note_off_c, 4, 67, 95
4, 138880, Note_off_c, 4, 64, 95
4, 138880, Note_off_c, 4, 59, 95
4, 138880, Note_off_c, 4, 52, 95
4, 138880, Note_on_c, 4, 71, 95
4, 138880, Note_on_c, 4, 67, 95
4, 138880, Note_on_c, 4, 64, 95
4, 138880, Note_on_c, 4, 59, 95
4, 138880, Note_on_c, 4, 52, 95
4, 139200, Note_off_c, 4, 71, 95
4, 139200, Note_off_c, 4, 67, 95
4, 139200, Note_off_c, 4, 64, 95
4, 139200, Note_off_c, 4, 59, 95
4, 139200, Note_off_c, 4, 52, 95
4, 139200, Note_on_c, 4, 71, 95
4, 139200, Note_on_c, 4, 67, 95
4, 139200, Note_on_c, 4, 64, 95
4, 139200, Note_on_c, 4, 59, 95
4, 139200, Note_on_c, 4, 52, 95
4, 139840, Note_off_c, 4, 71, 95
4, 139840, Note_off_c, 4, 67, 95
4, 139840, Note_off_c, 4, 64, 95
4, 139840, Note_off_c, 4, 59, 95
4, 139840, Note_off_c, 4, 52, 95
4, 139840, Note_on_c, 4, 71, 95
4, 139840, Note_on_c, 4, 67, 95
4, 139840, Note_on_c, 4, 64, 95
4, 139840, Note_on_c, 4, 59, 95
4, 139840, Note_on_c, 4, 52, 95
4, 140160, Note_off_c, 4, 71, 95
4, 140160, Note_off_c, 4, 67, 95
4, 140160, Note_off_c, 4, 64, 95
4, 140160, Note_off_c, 4, 59, 95
4, 140160, Note_off_c, 4, 52, 95
4, 141120, Note_on_c, 4, 71, 95
4, 141120, Note_on_c, 4, 67, 95
4, 141120, Note_on_c, 4, 64, 95
4, 141120, Note_on_c, 4, 59, 95
4, 141120, Note_on_c, 4, 52, 95
4, 142080, Note_off_c, 4, 71, 95
4, 142080, Note_off_c, 4, 67, 95
4, 142080, Note_off_c, 4, 64, 95
4, 142080, Note_off_c, 4, 59, 95
4, 142080, Note_off_c, 4, 52, 95
4, 142080, Note_on_c, 4, 71, 95
4, 142080, Note_on_c, 4, 67, 95
4, 142080, Note_on_c, 4, 62, 95
4, 142080, Note_on_c, 4, 55, 95
4, 142720, Note_off_c, 4, 71, 95
4, 142720, Note_off_c, 4, 67, 95
4, 142720, Note_off_c, 4, 62, 95
4, 142720, Note_off_c, 4, 55, 95
4, 142720, Note_on_c, 4, 71, 95
4, 142720, Note_on_c, 4, 67, 95
4, 142720, Note_on_c, 4, 62, 95
4, 142720, Note_on_c, 4, 55, 95
4, 143040, Note_off_c, 4, 71, 95
4, 143040, Note_off_c, 4, 67, 95
4, 143040, Note_off_c, 4, 62, 95
4, 143040, Note_off_c, 4, 55, 95
4, 143040, Note_on_c, 4, 71, 95
4, 143040, Note_on_c, 4, 67, 95
4, 143040, Note_on_c, 4, 62, 95
4, 143040, Note_on_c, 4, 55, 95
4, 143680, Note_off_c, 4, 71, 95
4, 143680, Note_off_c, 4, 67, 95
4, 143680, Note_off_c, 4, 62, 95
4, 143680, Note_off_c, 4, 55, 95
4, 143680, Note_on_c, 4, 71, 95
4, 143680, Note_on_c, 4, 67, 95
4, 143680, Note_on_c, 4, 62, 95
4, 143680, Note_on_c, 4, 55, 95
4, 144000, Note_off_c, 4, 71, 95
4, 144000, Note_off_c, 4, 67, 95
4, 144000, Note_off_c, 4, 62, 95
4, 144000, Note_off_c, 4, 55, 95
4, 144640, Note_on_c, 4, 71, 95
4, 144640, Note_on_c, 4, 67, 95
4, 144640, Note_on_c, 4, 62, 95
4, 144640, Note_on_c, 4, 55, 95
4, 144960, Note_off_c, 4, 71, 95
4, 144960, Note_off_c, 4, 67, 95
4, 144960, Note_off_c, 4, 62, 95
4, 144960, Note_off_c, 4, 55, 95
4, 144960, Note_on_c, 4, 71, 95
4, 144960, Note_on_c, 4, 67, 95
4, 144960, Note_on_c, 4, 62, 95
4, 144960, Note_on_c, 4, 55, 95
4, 145920, Note_off_c, 4, 71, 95
4, 145920, Note_off_c, 4, 67, 95
4, 145920, Note_off_c, 4, 62, 95
4, 145920, Note_off_c, 4, 55, 95
4, 145920, Note_on_c, 4, 71, 95
4, 145920, Note_on_c, 4, 67, 95
4, 145920, Note_on_c, 4, 64, 95
4, 145920, Note_on_c, 4, 59, 95
4, 145920, Note_on_c, 4, 52, 95
4, 146880, Note_off_c, 4, 71, 95
4, 146880, Note_off_c, 4, 67, 95
4, 146880, Note_off_c, 4, 64, 95
4, 146880, Note_off_c, 4, 59, 95
4, 146880, Note_off_c, 4, 52, 95
4, 146880, Note_on_c, 4, 71, 95
4, 146880, Note_on_c, 4, 67, 95
4, 146880, Note_on_c, 4, 64, 95
4, 146880, Note_on_c, 4, 59, 95
4, 146880, Note_on_c, 4, 52, 95
4, 147840, Note_off_c, 4, 71, 95
4, 147840, Note_off_c, 4, 67, 95
4, 147840, Note_off_c, 4, 64, 95
4, 147840, Note_off_c, 4, 59, 95
4, 147840, Note_off_c, 4, 52, 95
4, 147840, Note_on_c, 4, 71, 95
4, 147840, Note_on_c, 4, 67, 95
4, 147840, Note_on_c, 4, 64, 95
4, 147840, Note_on_c, 4, 59, 95
4, 147840, Note_on_c, 4, 52, 95
4, 148800, Note_off_c, 4, 71, 95
4, 148800, Note_off_c, 4, 67, 95
4, 148800, Note_off_c, 4, 64, 95
4, 148800, Note_off_c, 4, 59, 95
4, 148800, Note_off_c, 4, 52, 95
4, 148800, Note_on_c, 4, 71, 95
4, 148800, Note_on_c, 4, 67, 95
4, 148800, Note_on_c, 4, 64, 95
4, 148800, Note_on_c, 4, 59, 95
4, 148800, Note_on_c, 4, 52, 95
4, 149760, Note_off_c, 4, 71, 95
4, 149760, Note_off_c, 4, 67, 95
4, 149760, Note_off_c, 4, 64, 95
4, 149760, Note_off_c, 4, 59, 95
4, 149760, Note_off_c, 4, 52, 95
4, 149760, Note_on_c, 4, 72, 95
4, 149760, Note_on_c, 4, 69, 95
4, 149760, Note_on_c, 4, 65, 95
4, 149760, Note_on_c, 4, 60, 95
4, 149760, Note_on_c, 4, 53, 95
4, 150720, Note_off_c, 4, 72, 95
4, 150720, Note_off_c, 4, 69, 95
4, 150720, Note_off_c, 4, 65, 95
4, 150720, Note_off_c, 4, 60, 95
4, 150720, Note_off_c, 4, 53, 95
4, 150720, Note_on_c, 4, 72, 95
4, 150720, Note_on_c, 4, 69, 95
4, 150720, Note_on_c, 4, 65, 95
4, 150720, Note_on_c, 4, 60, 95
4, 150720, Note_on_c, 4, 53, 95
4, 151680, Note_off_c, 4, 72, 95
4, 151680, Note_off_c, 4, 69, 95
4, 151680, Note_off_c, 4, 65, 95
4, 151680, Note_off_c, 4, 60, 95
4, 151680, Note_off_c, 4, 53, 95
4, 151680, Note_on_c, 4, 72, 95
4, 151680, Note_on_c, 4, 69, 95
4, 151680, Note_on_c, 4, 65, 95
4, 151680, Note_on_c, 4, 60, 95
4, 151680, Note_on_c, 4, 53, 95
4, 152640, Note_off_c, 4, 72, 95
4, 152640, Note_off_c, 4, 69, 95
4, 152640, Note_off_c, 4, 65, 95
4, 152640, Note_off_c, 4, 60, 95
4, 152640, Note_off_c, 4, 53, 95
4, 152640, Note_on_c, 4, 72, 95
4, 152640, Note_on_c, 4, 69, 95
4, 152640, Note_on_c, 4, 65, 95
4, 152640, Note_on_c, 4, 60, 95
4, 152640, Note_on_c, 4, 53, 95
4, 153600, Note_off_c, 4, 72, 95
4, 153600, Note_off_c, 4, 69, 95
4, 153600, Note_off_c, 4, 65, 95
4, 153600, Note_off_c, 4, 60, 95
4, 153600, Note_off_c, 4, 53, 95
4, 153600, Note_on_c, 4, 71, 95
4, 153600, Note_on_c, 4, 67, 95
4, 153600, Note_on_c, 4, 62, 95
4, 153600, Note_on_c, 4, 55, 95
4, 154240, Note_off_c, 4, 71, 95
4, 154240, Note_off_c, 4, 67, 95
4, 154240, Note_off_c, 4, 62, 95
4, 154240, Note_off_c, 4, 55, 95
4, 154240, Note_on_c, 4, 71, 95
4, 154240, Note_on_c, 4, 67, 95
4, 154240, Note_on_c, 4, 62, 95
4, 154240, Note_on_c, 4, 55, 95
4, 154560, Note_off_c, 4, 71, 95
4, 154560, Note_off_c, 4, 67, 95
4, 154560, Note_off_c, 4, 62, 95
4, 154560, Note_off_c, 4, 55, 95
4, 154560, Note_on_c, 4, 71, 95
4, 154560, Note_on_c, 4, 67, 95
4, 154560, Note_on_c, 4, 62, 95
4, 154560, Note_on_c, 4, 55, 95
4, 155200, Note_off_c, 4, 71, 95
4, 155200, Note_off_c, 4, 67, 95
4, 155200, Note_off_c, 4, 62, 95
4, 155200, Note_off_c, 4, 55, 95
4, 155200, Note_on_c, 4, 71, 95
4, 155200, Note_on_c, 4, 67, 95
4, 155200, Note_on_c, 4, 62, 95
4, 155200, Note_on_c, 4, 55, 95
4, 155520, Note_off_c, 4, 71, 95
4, 155520, Note_off_c, 4, 67, 95
4, 155520, Note_off_c, 4, 62, 95
4, 155520, Note_off_c, 4, 55, 95
4, 156160, Note_on_c, 4, 71, 95
4, 156160, Note_on_c, 4, 67, 95
4, 156160, Note_on_c, 4, 62, 95
4, 156160, Note_on_c, 4, 55, 95
4, 156480, Note_off_c, 4, 71, 95
4, 156480, Note_off_c, 4, 67, 95
4, 156480, Note_off_c, 4, 62, 95
4, 156480, Note_off_c, 4, 55, 95
4, 156480, Note_on_c, 4, 71, 95
4, 156480, Note_on_c, 4, 67, 95
4, 156480, Note_on_c, 4, 62, 95
4, 156480, Note_on_c, 4, 55, 95
4, 157440, Note_off_c, 4, 71, 95
4, 157440, Note_off_c, 4, 67, 95
4, 157440, Note_off_c, 4, 62, 95
4, 157440, Note_off_c, 4, 55, 95
4, 157440, Note_on_c, 4, 71, 95
4, 157440, Note_on_c, 4, 67, 95
4, 157440, Note_on_c, 4, 64, 95
4, 157440, Note_on_c, 4, 59, 95
4, 157440, Note_on_c, 4, 52, 95
4, 158400, Note_off_c, 4, 71, 95
4, 158400, Note_off_c, 4, 67, 95
4, 158400, Note_off_c, 4, 64, 95
4, 158400, Note_off_c, 4, 59, 95
4, 158400, Note_off_c, 4, 52, 95
4, 158400, Note_on_c, 4, 71, 95
4, 158400, Note_on_c, 4, 67, 95
4, 158400, Note_on_c, 4, 64, 95
4, 158400, Note_on_c, 4, 59, 95
4, 158400, Note_on_c, 4, 52, 95
4, 159360, Note_off_c, 4, 71, 95
4, 159360, Note_off_c, 4, 67, 95
4, 159360, Note_off_c, 4, 64, 95
4, 159360, Note_off_c, 4, 59, 95
4, 159360, Note_off_c, 4, 52, 95
4, 159360, Note_on_c, 4, 71, 95
4, 159360, Note_on_c, 4, 67, 95
4, 159360, Note_on_c, 4, 64, 95
4, 159360, Note_on_c, 4, 59, 95
4, 159360, Note_on_c, 4, 52, 95
4, 160320, Note_off_c, 4, 71, 95
4, 160320, Note_off_c, 4, 67, 95
4, 160320, Note_off_c, 4, 64, 95
4, 160320, Note_off_c, 4, 59, 95
4, 160320, Note_off_c, 4, 52, 95
4, 160320, Note_on_c, 4, 71, 95
4, 160320, Note_on_c, 4, 67, 95
4, 160320, Note_on_c, 4, 64, 95
4, 160320, Note_on_c, 4, 59, 95
4, 160320, Note_on_c, 4, 52, 95
4, 161280, Note_off_c, 4, 71, 95
4, 161280, Note_off_c, 4, 67, 95
4, 161280, Note_off_c, 4, 64, 95
4, 161280, Note_off_c, 4, 59, 95
4, 161280, Note_off_c, 4, 52, 95
4, 161280, Note_on_c, 4, 72, 95
4, 161280, Note_on_c, 4, 69, 95
4, 161280, Note_on_c, 4, 65, 95
4, 161280, Note_on_c, 4, 60, 95
4, 161280, Note_on_c, 4, 53, 95
4, 162240, Note_off_c, 4, 72, 95
4, 162240, Note_off_c, 4, 69, 95
4, 162240, Note_off_c, 4, 65, 95
4, 162240, Note_off_c, 4, 60, 95
4, 162240, Note_off_c, 4, 53, 95
4, 162240, Note_on_c, 4, 72, 95
4, 162240, Note_on_c, 4, 69, 95
4, 162240, Note_on_c, 4, 65, 95
4, 162240, Note_on_c, 4, 60, 95
4, 162240, Note_on_c, 4, 53, 95
4, 163200, Note_off_c, 4, 72, 95
4, 163200, Note_off_c, 4, 69, 95
4, 163200, Note_off_c, 4, 65, 95
4, 163200, Note_off_c, 4, 60, 95
4, 163200, Note_off_c, 4, 53, 95
4, 163200, Note_on_c, 4, 72, 95
4, 163200, Note_on_c, 4, 69, 95
4, 163200, Note_on_c, 4, 65, 95
4, 163200, Note_on_c, 4, 60, 95
4, 163200, Note_on_c, 4, 53, 95
4, 164160, Note_off_c, 4, 72, 95
4, 164160, Note_off_c, 4, 69, 95
4, 164160, Note_off_c, 4, 65, 95
4, 164160, Note_off_c, 4, 60, 95
4, 164160, Note_off_c, 4, 53, 95
4, 164160, Note_on_c, 4, 72, 95
4, 164160, Note_on_c, 4, 69, 95
4, 164160, Note_on_c, 4, 65, 95
4, 164160, Note_on_c, 4, 60, 95
4, 164160, Note_on_c, 4, 53, 95
4, 165120, Note_off_c, 4, 72, 95
4, 165120, Note_off_c, 4, 69, 95
4, 165120, Note_off_c, 4, 65, 95
4, 165120, Note_off_c, 4, 60, 95
4, 165120, Note_off_c, 4, 53, 95
4, 165120, Note_on_c, 4, 71, 95
4, 165120, Note_on_c, 4, 67, 95
4, 165120, Note_on_c, 4, 64, 95
4, 165120, Note_on_c, 4, 59, 95
4, 165120, Note_on_c, 4, 52, 95
4, 166080, Note_off_c, 4, 71, 95
4, 166080, Note_off_c, 4, 67, 95
4, 166080, Note_off_c, 4, 64, 95
4, 166080, Note_off_c, 4, 59, 95
4, 166080, Note_off_c, 4, 52, 95
4, 166080, Note_on_c, 4, 71, 95
4, 166080, Note_on_c, 4, 67, 95
4, 166080, Note_on_c, 4, 64, 95
4, 166080, Note_on_c, 4, 59, 95
4, 166080, Note_on_c, 4, 52, 95
4, 167040, Note_off_c, 4, 71, 95
4, 167040, Note_off_c, 4, 67, 95
4, 167040, Note_off_c, 4, 64, 95
4, 167040, Note_off_c, 4, 59, 95
4, 167040, Note_off_c, 4, 52, 95
4, 167040, Note_on_c, 4, 71, 95
4, 167040, Note_on_c, 4, 67, 95
4, 167040, Note_on_c, 4, 64, 95
4, 167040, Note_on_c, 4, 59, 95
4, 167040, Note_on_c, 4, 52, 95
4, 168000, Note_off_c, 4, 71, 95
4, 168000, Note_off_c, 4, 67, 95
4, 168000, Note_off_c, 4, 64, 95
4, 168000, Note_off_c, 4, 59, 95
4, 168000, Note_off_c, 4, 52, 95
4, 168000, Note_on_c, 4, 71, 95
4, 168000, Note_on_c, 4, 67, 95
4, 168000, Note_on_c, 4, 64, 95
4, 168000, Note_on_c, 4, 59, 95
4, 168000, Note_on_c, 4, 52, 95
4, 168960, Note_off_c, 4, 71, 95
4, 168960, Note_off_c, 4, 67, 95
4, 168960, Note_off_c, 4, 64, 95
4, 168960, Note_off_c, 4, 59, 95
4, 168960, Note_off_c, 4, 52, 95
4, 168960, Note_on_c, 4, 71, 95
4, 168960, Note_on_c, 4, 67, 95
4, 168960, Note_on_c, 4, 62, 95
4, 168960, Note_on_c, 4, 55, 95
4, 169920, Note_off_c, 4, 71, 95
4, 169920, Note_off_c, 4, 67, 95
4, 169920, Note_off_c, 4, 62, 95
4, 169920, Note_off_c, 4, 55, 95
4, 169920, Note_on_c, 4, 71, 95
4, 169920, Note_on_c, 4, 67, 95
4, 169920, Note_on_c, 4, 62, 95
4, 169920, Note_on_c, 4, 55, 95
4, 170880, Note_off_c, 4, 71, 95
4, 170880, Note_off_c, 4, 67, 95
4, 170880, Note_off_c, 4, 62, 95
4, 170880, Note_off_c, 4, 55, 95
4, 170880, Note_on_c, 4, 71, 95
4, 170880, Note_on_c, 4, 67, 95
4, 170880, Note_on_c, 4, 62, 95
4, 170880, Note_on_c, 4, 55, 95
4, 171840, Note_off_c, 4, 71, 95
4, 171840, Note_off_c, 4, 67, 95
4, 171840, Note_off_c, 4, 62, 95
4, 171840, Note_off_c, 4, 55, 95
4, 171840, Note_on_c, 4, 71, 95
4, 171840, Note_on_c, 4, 67, 95
4, 171840, Note_on_c, 4, 62, 95
4, 171840, Note_on_c, 4, 55, 95
4, 172800, Note_off_c, 4, 71, 95
4, 172800, Note_off_c, 4, 67, 95
4, 172800, Note_off_c, 4, 62, 95
4, 172800, Note_off_c, 4, 55, 95
4, 172800, Note_on_c, 4, 71, 95
4, 172800, Note_on_c, 4, 67, 95
4, 172800, Note_on_c, 4, 64, 95
4, 172800, Note_on_c, 4, 59, 95
4, 172800, Note_on_c, 4, 52, 95
4, 173760, Note_off_c, 4, 71, 95
4, 173760, Note_off_c, 4, 67, 95
4, 173760, Note_off_c, 4, 64, 95
4, 173760, Note_off_c, 4, 59, 95
4, 173760, Note_off_c, 4, 52, 95
4, 173760, Note_on_c, 4, 71, 95
4, 173760, Note_on_c, 4, 67, 95
4, 173760, Note_on_c, 4, 64, 95
4, 173760, Note_on_c, 4, 59, 95
4, 173760, Note_on_c, 4, 52, 95
4, 174720, Note_off_c, 4, 71, 95
4, 174720, Note_off_c, 4, 67, 95
4, 174720, Note_off_c, 4, 64, 95
4, 174720, Note_off_c, 4, 59, 95
4, 174720, Note_off_c, 4, 52, 95
4, 174720, Note_on_c, 4, 71, 95
4, 174720, Note_on_c, 4, 67, 95
4, 174720, Note_on_c, 4, 64, 95
4, 174720, Note_on_c, 4, 59, 95
4, 174720, Note_on_c, 4, 52, 95
4, 175680, Note_off_c, 4, 71, 95
4, 175680, Note_off_c, 4, 67, 95
4, 175680, Note_off_c, 4, 64, 95
4, 175680, Note_off_c, 4, 59, 95
4, 175680, Note_off_c, 4, 52, 95
4, 175680, Note_on_c, 4, 71, 95
4, 175680, Note_on_c, 4, 67, 95
4, 175680, Note_on_c, 4, 64, 95
4, 175680, Note_on_c, 4, 59, 95
4, 175680, Note_on_c, 4, 52, 95
4, 176640, Note_off_c, 4, 71, 95
4, 176640, Note_off_c, 4, 67, 95
4, 176640, Note_off_c, 4, 64, 95
4, 176640, Note_off_c, 4, 59, 95
4, 176640, Note_off_c, 4, 52, 95
4, 176640, Note_on_c, 4, 67, 95
4, 176640, Note_on_c, 4, 64, 95
4, 177280, Note_off_c, 4, 67, 95
4, 177280, Note_off_c, 4, 64, 95
4, 177280, Note_on_c, 4, 69, 95
4, 177280, Note_on_c, 4, 65, 95
4, 177600, Note_off_c, 4, 69, 95
4, 177600, Note_off_c, 4, 65, 95
4, 177600, Note_on_c, 4, 67, 95
4, 177600, Note_on_c, 4, 64, 95
4, 178240, Note_off_c, 4, 67, 95
4, 178240, Note_off_c, 4, 64, 95
4, 178240, Note_on_c, 4, 69, 95
4, 178240, Note_on_c, 4, 65, 95
4, 178560, Note_off_c, 4, 69, 95
4, 178560, Note_off_c, 4, 65, 95
4, 178560, Note_on_c, 4, 67, 95
4, 178560, Note_on_c, 4, 64, 95
4, 179200, Note_off_c, 4, 67, 95
4, 179200, Note_off_c, 4, 64, 95
4, 179200, Note_on_c, 4, 69, 95
4, 179200, Note_on_c, 4, 65, 95
4, 179520, Note_off_c, 4, 69, 95
4, 179520, Note_off_c, 4, 65, 95
4, 179520, Note_on_c, 4, 67, 95
4, 179520, Note_on_c, 4, 64, 95
4, 180480, Note_off_c, 4, 67, 95
4, 180480, Note_off_c, 4, 64, 95
4, 180480, Note_on_c, 4, 71, 95
4, 180480, Note_on_c, 4, 67, 95
4, 180480, Note_on_c, 4, 64, 95
4, 180480, Note_on_c, 4, 59, 95
4, 180480, Note_on_c, 4, 52, 95
4, 181120, Note_off_c, 4, 71, 95
4, 181120, Note_off_c, 4, 67, 95
4, 181120, Note_off_c, 4, 64, 95
4, 181120, Note_off_c, 4, 59, 95
4, 181120, Note_off_c, 4, 52, 95
4, 181120, Note_on_c, 4, 71, 95
4, 181120, Note_on_c, 4, 67, 95
4, 181120, Note_on_c, 4, 64, 95
4, 181120, Note_on_c, 4, 59, 95
4, 181120, Note_on_c, 4, 52, 95
4, 181440, Note_off_c, 4, 71, 95
4, 181440, Note_off_c, 4, 67, 95
4, 181440, Note_off_c, 4, 64, 95
4, 181440, Note_off_c, 4, 59, 95
4, 181440, Note_off_c, 4, 52, 95
4, 181440, Note_on_c, 4, 71, 95
4, 181440, Note_on_c, 4, 67, 95
4, 181440, Note_on_c, 4, 64, 95
4, 181440, Note_on_c, 4, 59, 95
4, 181440, Note_on_c, 4, 52, 95
4, 182080, Note_off_c, 4, 71, 95
4, 182080, Note_off_c, 4, 67, 95
4, 182080, Note_off_c, 4, 64, 95
4, 182080, Note_off_c, 4, 59, 95
4, 182080, Note_off_c, 4, 52, 95
4, 182080, Note_on_c, 4, 71, 95
4, 182080, Note_on_c, 4, 67, 95
4, 182080, Note_on_c, 4, 64, 95
4, 182080, Note_on_c, 4, 59, 95
4, 182080, Note_on_c, 4, 52, 95
4, 182400, Note_off_c, 4, 71, 95
4, 182400, Note_off_c, 4, 67, 95
4, 182400, Note_off_c, 4, 64, 95
4, 182400, Note_off_c, 4, 59, 95
4, 182400, Note_off_c, 4, 52, 95
4, 182400, Note_on_c, 4, 71, 95
4, 182400, Note_on_c, 4, 67, 95
4, 182400, Note_on_c, 4, 64, 95
4, 182400, Note_on_c, 4, 59, 95
4, 182400, Note_on_c, 4, 52, 95
4, 183040, Note_off_c, 4, 71, 95
4, 183040, Note_off_c, 4, 67, 95
4, 183040, Note_off_c, 4, 64, 95
4, 183040, Note_off_c, 4, 59, 95
4, 183040, Note_off_c, 4, 52, 95
4, 183040, Note_on_c, 4, 71, 95
4, 183040, Note_on_c, 4, 67, 95
4, 183040, Note_on_c, 4, 64, 95
4, 183040, Note_on_c, 4, 59, 95
4, 183040, Note_on_c, 4, 52, 95
4, 183360, Note_off_c, 4, 71, 95
4, 183360, Note_off_c, 4, 67, 95
4, 183360, Note_off_c, 4, 64, 95
4, 183360, Note_off_c, 4, 59, 95
4, 183360, Note_off_c, 4, 52, 95
4, 183360, Note_on_c, 4, 71, 95
4, 183360, Note_on_c, 4, 67, 95
4, 183360, Note_on_c, 4, 64, 95
4, 183360, Note_on_c, 4, 59, 95
4, 183360, Note_on_c, 4, 52, 95
4, 184000, Note_off_c, 4, 71, 95
4, 184000, Note_off_c, 4, 67, 95
4, 184000, Note_off_c, 4, 64, 95
4, 184000, Note_off_c, 4, 59, 95
4, 184000, Note_off_c, 4, 52, 95
4, 184000, Note_on_c, 4, 71, 95
4, 184000, Note_on_c, 4, 67, 95
4, 184000, Note_on_c, 4, 64, 95
4, 184000, Note_on_c, 4, 59, 95
4, 184000, Note_on_c, 4, 52, 95
4, 184320, Note_off_c, 4, 71, 95
4, 184320, Note_off_c, 4, 67, 95
4, 184320, Note_off_c, 4, 64, 95
4, 184320, Note_off_c, 4, 59, 95
4, 184320, Note_off_c, 4, 52, 95
4, 184320, Note_on_c, 4, 71, 95
4, 184320, Note_on_c, 4, 67, 95
4, 184320, Note_on_c, 4, 62, 95
4, 184320, Note_on_c, 4, 55, 95
4, 184960, Note_off_c, 4, 71, 95
4, 184960, Note_off_c, 4, 67, 95
4, 184960, Note_off_c, 4, 62, 95
4, 184960, Note_off_c, 4, 55, 95
4, 184960, Note_on_c, 4, 71, 95
4, 184960, Note_on_c, 4, 67, 95
4, 184960, Note_on_c, 4, 62, 95
4, 184960, Note_on_c, 4, 55, 95
4, 185280, Note_off_c, 4, 71, 95
4, 185280, Note_off_c, 4, 67, 95
4, 185280, Note_off_c, 4, 62, 95
4, 185280, Note_off_c, 4, 55, 95
4, 185280, Note_on_c, 4, 71, 95
4, 185280, Note_on_c, 4, 67, 95
4, 185280, Note_on_c, 4, 62, 95
4, 185280, Note_on_c, 4, 55, 95
4, 185920, Note_off_c, 4, 71, 95
4, 185920, Note_off_c, 4, 67, 95
4, 185920, Note_off_c, 4, 62, 95
4, 185920, Note_off_c, 4, 55, 95
4, 185920, Note_on_c, 4, 71, 95
4, 185920, Note_on_c, 4, 67, 95
4, 185920, Note_on_c, 4, 62, 95
4, 185920, Note_on_c, 4, 55, 95
4, 186240, Note_off_c, 4, 71, 95
4, 186240, Note_off_c, 4, 67, 95
4, 186240, Note_off_c, 4, 62, 95
4, 186240, Note_off_c, 4, 55, 95
4, 186240, Note_on_c, 4, 71, 95
4, 186240, Note_on_c, 4, 67, 95
4, 186240, Note_on_c, 4, 62, 95
4, 186240, Note_on_c, 4, 55, 95
4, 186880, Note_off_c, 4, 71, 95
4, 186880, Note_off_c, 4, 67, 95
4, 186880, Note_off_c, 4, 62, 95
4, 186880, Note_off_c, 4, 55, 95
4, 186880, Note_on_c, 4, 71, 95
4, 186880, Note_on_c, 4, 67, 95
4, 186880, Note_on_c, 4, 62, 95
4, 186880, Note_on_c, 4, 55, 95
4, 187200, Note_off_c, 4, 71, 95
4, 187200, Note_off_c, 4, 67, 95
4, 187200, Note_off_c, 4, 62, 95
4, 187200, Note_off_c, 4, 55, 95
4, 187200, Note_on_c, 4, 71, 95
4, 187200, Note_on_c, 4, 67, 95
4, 187200, Note_on_c, 4, 62, 95
4, 187200, Note_on_c, 4, 55, 95
4, 188160, Note_off_c, 4, 71, 95
4, 188160, Note_off_c, 4, 67, 95
4, 188160, Note_off_c, 4, 62, 95
4, 188160, Note_off_c, 4, 55, 95
4, 188160, Note_on_c, 4, 71, 95
4, 188160, Note_on_c, 4, 67, 95
4, 188160, Note_on_c, 4, 64, 95
4, 188160, Note_on_c, 4, 59, 95
4, 188160, Note_on_c, 4, 52, 95
4, 189120, Note_off_c, 4, 71, 95
4, 189120, Note_off_c, 4, 67, 95
4, 189120, Note_off_c, 4, 64, 95
4, 189120, Note_off_c, 4, 59, 95
4, 189120, Note_off_c, 4, 52, 95
4, 189120, Note_on_c, 4, 71, 95
4, 189120, Note_on_c, 4, 67, 95
4, 189120, Note_on_c, 4, 64, 95
4, 189120, Note_on_c, 4, 59, 95
4, 189120, Note_on_c, 4, 52, 95
4, 190080, Note_off_c, 4, 71, 95
4, 190080, Note_off_c, 4, 67, 95
4, 190080, Note_off_c, 4, 64, 95
4, 190080, Note_off_c, 4, 59, 95
4, 190080, Note_off_c, 4, 52, 95
4, 190080, Note_on_c, 4, 71, 95
4, 190080, Note_on_c, 4, 67, 95
4, 190080, Note_on_c, 4, 64, 95
4, 190080, Note_on_c, 4, 59, 95
4, 190080, Note_on_c, 4, 52, 95
4, 191040, Note_off_c, 4, 71, 95
4, 191040, Note_off_c, 4, 67, 95
4, 191040, Note_off_c, 4, 64, 95
4, 191040, Note_off_c, 4, 59, 95
4, 191040, Note_off_c, 4, 52, 95
4, 191040, Note_on_c, 4, 71, 95
4, 191040, Note_on_c, 4, 67, 95
4, 191040, Note_on_c, 4, 64, 95
4, 191040, Note_on_c, 4, 59, 95
4, 191040, Note_on_c, 4, 52, 95
4, 192000, Note_off_c, 4, 71, 95
4, 192000, Note_off_c, 4, 67, 95
4, 192000, Note_off_c, 4, 64, 95
4, 192000, Note_off_c, 4, 59, 95
4, 192000, Note_off_c, 4, 52, 95
4, 192000, Note_on_c, 4, 67, 95
4, 192000, Note_on_c, 4, 64, 95
4, 192640, Note_off_c, 4, 67, 95
4, 192640, Note_off_c, 4, 64, 95
4, 192640, Note_on_c, 4, 69, 95
4, 192640, Note_on_c, 4, 65, 95
4, 192960, Note_off_c, 4, 69, 95
4, 192960, Note_off_c, 4, 65, 95
4, 192960, Note_on_c, 4, 67, 95
4, 192960, Note_on_c, 4, 64, 95
4, 193600, Note_off_c, 4, 67, 95
4, 193600, Note_off_c, 4, 64, 95
4, 193600, Note_on_c, 4, 69, 95
4, 193600, Note_on_c, 4, 65, 95
4, 193920, Note_off_c, 4, 69, 95
4, 193920, Note_off_c, 4, 65, 95
4, 193920, Note_on_c, 4, 67, 95
4, 193920, Note_on_c, 4, 64, 95
4, 194560, Note_off_c, 4, 67, 95
4, 194560, Note_off_c, 4, 64, 95
4, 194560, Note_on_c, 4, 69, 95
4, 194560, Note_on_c, 4, 65, 95
4, 194880, Note_off_c, 4, 69, 95
4, 194880, Note_off_c, 4, 65, 95
4, 194880, Note_on_c, 4, 67, 95
4, 194880, Note_on_c, 4, 64, 95
4, 195840, Note_off_c, 4, 67, 95
4, 195840, Note_off_c, 4, 64, 95
4, 195840, Note_on_c, 4, 71, 95
4, 195840, Note_on_c, 4, 67, 95
4, 195840, Note_on_c, 4, 64, 95
4, 196480, Note_off_c, 4, 71, 95
4, 196480, Note_off_c, 4, 67, 95
4, 196480, Note_off_c, 4, 64, 95
4, 196480, Note_on_c, 4, 71, 95
4, 196480, Note_on_c, 4, 67, 95
4, 196480, Note_on_c, 4, 64, 95
4, 196800, Note_off_c, 4, 71, 95
4, 196800, Note_off_c, 4, 67, 95
4, 196800, Note_off_c, 4, 64, 95
4, 196800, Note_on_c, 4, 71, 95
4, 196800, Note_on_c, 4, 67, 95
4, 196800, Note_on_c, 4, 64, 95
4, 197440, Note_off_c, 4, 71, 95
4, 197440, Note_off_c, 4, 67, 95
4, 197440, Note_off_c, 4, 64, 95
4, 197440, Note_on_c, 4, 71, 95
4, 197440, Note_on_c, 4, 67, 95
4, 197440, Note_on_c, 4, 64, 95
4, 197760, Note_off_c, 4, 71, 95
4, 197760, Note_off_c, 4, 67, 95
4, 197760, Note_off_c, 4, 64, 95
4, 197760, Note_on_c, 4, 71, 95
4, 197760, Note_on_c, 4, 67, 95
4, 197760, Note_on_c, 4, 64, 95
4, 198400, Note_off_c, 4, 71, 95
4, 198400, Note_off_c, 4, 67, 95
4, 198400, Note_off_c, 4, 64, 95
4, 198400, Note_on_c, 4, 71, 95
4, 198400, Note_on_c, 4, 67, 95
4, 198400, Note_on_c, 4, 64, 95
4, 198720, Note_off_c, 4, 71, 95
4, 198720, Note_off_c, 4, 67, 95
4, 198720, Note_off_c, 4, 64, 95
4, 198720, Note_on_c, 4, 71, 95
4, 198720, Note_on_c, 4, 67, 95
4, 198720, Note_on_c, 4, 64, 95
4, 199360, Note_off_c, 4, 71, 95
4, 199360, Note_off_c, 4, 67, 95
4, 199360, Note_off_c, 4, 64, 95
4, 199360, Note_on_c, 4, 71, 95
4, 199360, Note_on_c, 4, 67, 95
4, 199360, Note_on_c, 4, 64, 95
4, 199680, Note_off_c, 4, 71, 95
4, 199680, Note_off_c, 4, 67, 95
4, 199680, Note_off_c, 4, 64, 95
4, 200160, Note_on_c, 4, 76, 95
4, 200160, Note_on_c, 4, 71, 95
4, 200160, Note_on_c, 4, 67, 95
4, 202560, Note_off_c, 4, 76, 95
4, 202560, Note_off_c, 4, 71, 95
4, 202560, Note_off_c, 4, 67, 95
4, 202560, Note_on_c, 5, 76, 95
4, 202560, Note_on_c, 5, 71, 95
4, 202560, Note_on_c, 5, 67, 95
4, 202680, Pitch_bend_c, 5, 7168
4, 202680, Pitch_bend_c, 5, 7168
4, 202680, Pitch_bend_c, 5, 7168
4, 202800, Pitch_bend_c, 5, 6144
4, 202800, Pitch_bend_c, 5, 6144
4, 202800, Pitch_bend_c, 5, 6144
4, 202920, Pitch_bend_c, 5, 5120
4, 202920, Pitch_bend_c, 5, 5120
4, 202920, Pitch_bend_c, 5, 5120
4, 203040, Pitch_bend_c, 5, 3968
4, 203040, Pitch_bend_c, 5, 3968
4, 203040, Pitch_bend_c, 5, 3968
4, 203160, Pitch_bend_c, 5, 2944
4, 203160, Pitch_bend_c, 5, 2944
4, 203160, Pitch_bend_c, 5, 2944
4, 203280, Pitch_bend_c, 5, 1920
4, 203280, Pitch_bend_c, 5, 1920
4, 203280, Pitch_bend_c, 5, 1920
4, 203400, Pitch_bend_c, 5, 896
4, 203400, Pitch_bend_c, 5, 896
4, 203400, Pitch_bend_c, 5, 896
4, 203520, Pitch_bend_c, 5, 0
4, 203520, Pitch_bend_c, 5, 8192
4, 203520, Note_off_c, 5, 76, 95
4, 203520, Pitch_bend_c, 5, 0
4, 203520, Pitch_bend_c, 5, 8192
4, 203520, Note_off_c, 5, 71, 95
4, 203520, Pitch_bend_c, 5, 0
4, 203520, Pitch_bend_c, 5, 8192
4, 203520, Note_off_c, 5, 67, 95
4, 203520, Note_on_c, 4, 64, 95
4, 203520, Note_on_c, 4, 59, 95
4, 203520, Note_on_c, 4, 55, 95
4, 203520, Note_on_c, 4, 50, 95
4, 203520, Note_on_c, 4, 45, 95
4, 203592, Note_off_c, 4, 64, 95
4, 203592, Note_off_c, 4, 59, 95
4, 203592, Note_off_c, 4, 55, 95
4, 203592, Note_off_c, 4, 50, 95
4, 203592, Note_off_c, 4, 45, 95
4, 204160, Note_on_c, 4, 64, 95
4, 204160, Note_on_c, 4, 59, 95
4, 204160, Note_on_c, 4, 55, 95
4, 204160, Note_on_c, 4, 50, 95
4, 204160, Note_on_c, 4, 45, 95
4, 204232, Note_off_c, 4, 64, 95
4, 204232, Note_off_c, 4, 59, 95
4, 204232, Note_off_c, 4, 55, 95
4, 204232, Note_off_c, 4, 50, 95
4, 204232, Note_off_c, 4, 45, 95
4, 204480, Note_on_c, 4, 71, 95
4, 204480, Note_on_c, 4, 67, 95
4, 204480, Note_on_c, 4, 64, 95
4, 204480, Note_on_c, 4, 59, 95
4, 204480, Note_on_c, 4, 52, 95
4, 205120, Note_off_c, 4, 71, 95
4, 205120, Note_off_c, 4, 67, 95
4, 205120, Note_off_c, 4, 64, 95
4, 205120, Note_off_c, 4, 59, 95
4, 205120, Note_off_c, 4, 52, 95
4, 205120, Note_on_c, 4, 71, 95
4, 205120, Note_on_c, 4, 67, 95
4, 205120, Note_on_c, 4, 64, 95
4, 205120, Note_on_c, 4, 59, 95
4, 205120, Note_on_c, 4, 52, 95
4, 205440, Note_off_c, 4, 71, 95
4, 205440, Note_off_c, 4, 67, 95
4, 205440, Note_off_c, 4, 64, 95
4, 205440, Note_off_c, 4, 59, 95
4, 205440, Note_off_c, 4, 52, 95
4, 205440, Note_on_c, 4, 64, 95
4, 205440, Note_on_c, 4, 59, 95
4, 205440, Note_on_c, 4, 55, 95
4, 205440, Note_on_c, 4, 50, 95
4, 205440, Note_on_c, 4, 45, 95
4, 205512, Note_off_c, 4, 64, 95
4, 205512, Note_off_c, 4, 59, 95
4, 205512, Note_off_c, 4, 55, 95
4, 205512, Note_off_c, 4, 50, 95
4, 205512, Note_off_c, 4, 45, 95
4, 206080, Note_on_c, 4, 64, 95
4, 206080, Note_on_c, 4, 59, 95
4, 206080, Note_on_c, 4, 55, 95
4, 206080, Note_on_c, 4, 50, 95
4, 206080, Note_on_c, 4, 45, 95
4, 206152, Note_off_c, 4, 64, 95
4, 206152, Note_off_c, 4, 59, 95
4, 206152, Note_off_c, 4, 55, 95
4, 206152, Note_off_c, 4, 50, 95
4, 206152, Note_off_c, 4, 45, 95
4, 206400, Note_on_c, 4, 71, 95
4, 206400, Note_on_c, 4, 67, 95
4, 206400, Note_on_c, 4, 64, 95
4, 206400, Note_on_c, 4, 59, 95
4, 206400, Note_on_c, 4, 52, 95
4, 207040, Note_off_c, 4, 71, 95
4, 207040, Note_off_c, 4, 67, 95
4, 207040, Note_off_c, 4, 64, 95
4, 207040, Note_off_c, 4, 59, 95
4, 207040, Note_off_c, 4, 52, 95
4, 207040, Note_on_c, 4, 71, 95
4, 207040, Note_on_c, 4, 67, 95
4, 207040, Note_on_c, 4, 64, 95
4, 207040, Note_on_c, 4, 59, 95
4, 207040, Note_on_c, 4, 52, 95
4, 207360, Note_off_c, 4, 71, 95
4, 207360, Note_off_c, 4, 67, 95
4, 207360, Note_off_c, 4, 64, 95
4, 207360, Note_off_c, 4, 59, 95
4, 207360, Note_off_c, 4, 52, 95
4, 207360, Note_on_c, 4, 64, 95
4, 207360, Note_on_c, 4, 59, 95
4, 207360, Note_on_c, 4, 55, 95
4, 207360, Note_on_c, 4, 50, 95
4, 207360, Note_on_c, 4, 45, 95
4, 207432, Note_off_c, 4, 64, 95
4, 207432, Note_off_c, 4, 59, 95
4, 207432, Note_off_c, 4, 55, 95
4, 207432, Note_off_c, 4, 50, 95
4, 207432, Note_off_c, 4, 45, 95
4, 208000, Note_on_c, 4, 64, 95
4, 208000, Note_on_c, 4, 59, 95
4, 208000, Note_on_c, 4, 55, 95
4, 208000, Note_on_c, 4, 50, 95
4, 208000, Note_on_c, 4, 45, 95
4, 208072, Note_off_c, 4, 64, 95
4, 208072, Note_off_c, 4, 59, 95
4, 208072, Note_off_c, 4, 55, 95
4, 208072, Note_off_c, 4, 50, 95
4, 208072, Note_off_c, 4, 45, 95
4, 208320, Note_on_c, 4, 71, 95
4, 208320, Note_on_c, 4, 67, 95
4, 208320, Note_on_c, 4, 62, 95
4, 208320, Note_on_c, 4, 55, 95
4, 208960, Note_off_c, 4, 71, 95
4, 208960, Note_off_c, 4, 67, 95
4, 208960, Note_off_c, 4, 62, 95
4, 208960, Note_off_c, 4, 55, 95
4, 208960, Note_on_c, 4, 71, 95
4, 208960, Note_on_c, 4, 67, 95
4, 208960, Note_on_c, 4, 62, 95
4, 208960, Note_on_c, 4, 55, 95
4, 209280, Note_off_c, 4, 71, 95
4, 209280, Note_off_c, 4, 67, 95
4, 209280, Note_off_c, 4, 62, 95
4, 209280, Note_off_c, 4, 55, 95
4, 209280, Note_on_c, 4, 64, 95
4, 209280, Note_on_c, 4, 59, 95
4, 209280, Note_on_c, 4, 55, 95
4, 209280, Note_on_c, 4, 50, 95
4, 209280, Note_on_c, 4, 45, 95
4, 209352, Note_off_c, 4, 64, 95
4, 209352, Note_off_c, 4, 59, 95
4, 209352, Note_off_c, 4, 55, 95
4, 209352, Note_off_c, 4, 50, 95
4, 209352, Note_off_c, 4, 45, 95
4, 209920, Note_on_c, 4, 64, 95
4, 209920, Note_on_c, 4, 59, 95
4, 209920, Note_on_c, 4, 55, 95
4, 209920, Note_on_c, 4, 50, 95
4, 209920, Note_on_c, 4, 45, 95
4, 209992, Note_off_c, 4, 64, 95
4, 209992, Note_off_c, 4, 59, 95
4, 209992, Note_off_c, 4, 55, 95
4, 209992, Note_off_c, 4, 50, 95
4, 209992, Note_off_c, 4, 45, 95
4, 210240, Note_on_c, 4, 71, 95
4, 210240, Note_on_c, 4, 67, 95
4, 210240, Note_on_c, 4, 62, 95
4, 210240, Note_on_c, 4, 55, 95
4, 210880, Note_off_c, 4, 71, 95
4, 210880, Note_off_c, 4, 67, 95
4, 210880, Note_off_c, 4, 62, 95
4, 210880, Note_off_c, 4, 55, 95
4, 210880, Note_on_c, 4, 71, 95
4, 210880, Note_on_c, 4, 67, 95
4, 210880, Note_on_c, 4, 62, 95
4, 210880, Note_on_c, 4, 55, 95
4, 211200, Note_off_c, 4, 71, 95
4, 211200, Note_off_c, 4, 67, 95
4, 211200, Note_off_c, 4, 62, 95
4, 211200, Note_off_c, 4, 55, 95
4, 211200, Note_on_c, 4, 64, 95
4, 211200, Note_on_c, 4, 59, 95
4, 211200, Note_on_c, 4, 55, 95
4, 211200, Note_on_c, 4, 50, 95
4, 211200, Note_on_c, 4, 45, 95
4, 211272, Note_off_c, 4, 64, 95
4, 211272, Note_off_c, 4, 59, 95
4, 211272, Note_off_c, 4, 55, 95
4, 211272, Note_off_c, 4, 50, 95
4, 211272, Note_off_c, 4, 45, 95
4, 211840, Note_on_c, 4, 64, 95
4, 211840, Note_on_c, 4, 59, 95
4, 211840, Note_on_c, 4, 55, 95
4, 211840, Note_on_c, 4, 50, 95
4, 211840, Note_on_c, 4, 45, 95
4, 211912, Note_off_c, 4, 64, 95
4, 211912, Note_off_c, 4, 59, 95
4, 211912, Note_off_c, 4, 55, 95
4, 211912, Note_off_c, 4, 50, 95
4, 211912, Note_off_c, 4, 45, 95
4, 212160, Note_on_c, 4, 71, 95
4, 212160, Note_on_c, 4, 68, 95
4, 212160, Note_on_c, 4, 64, 95
4, 212160, Note_on_c, 4, 59, 95
4, 212160, Note_on_c, 4, 52, 95
4, 212800, Note_off_c, 4, 71, 95
4, 212800, Note_off_c, 4, 68, 95
4, 212800, Note_off_c, 4, 64, 95
4, 212800, Note_off_c, 4, 59, 95
4, 212800, Note_off_c, 4, 52, 95
4, 212800, Note_on_c, 4, 71, 95
4, 212800, Note_on_c, 4, 68, 95
4, 212800, Note_on_c, 4, 64, 95
4, 212800, Note_on_c, 4, 59, 95
4, 212800, Note_on_c, 4, 52, 95
4, 213120, Note_off_c, 4, 71, 95
4, 213120, Note_off_c, 4, 68, 95
4, 213120, Note_off_c, 4, 64, 95
4, 213120, Note_off_c, 4, 59, 95
4, 213120, Note_off_c, 4, 52, 95
4, 213120, Note_on_c, 4, 64, 95
4, 213120, Note_on_c, 4, 59, 95
4, 213120, Note_on_c, 4, 55, 95
4, 213120, Note_on_c, 4, 50, 95
4, 213120, Note_on_c, 4, 45, 95
4, 213192, Note_off_c, 4, 64, 95
4, 213192, Note_off_c, 4, 59, 95
4, 213192, Note_off_c, 4, 55, 95
4, 213192, Note_off_c, 4, 50, 95
4, 213192, Note_off_c, 4, 45, 95
4, 213760, Note_on_c, 4, 64, 95
4, 213760, Note_on_c, 4, 59, 95
4, 213760, Note_on_c, 4, 55, 95
4, 213760, Note_on_c, 4, 50, 95
4, 213760, Note_on_c, 4, 45, 95
4, 213832, Note_off_c, 4, 64, 95
4, 213832, Note_off_c, 4, 59, 95
4, 213832, Note_off_c, 4, 55, 95
4, 213832, Note_off_c, 4, 50, 95
4, 213832, Note_off_c, 4, 45, 95
4, 214080, Note_on_c, 4, 71, 95
4, 214080, Note_on_c, 4, 68, 95
4, 214080, Note_on_c, 4, 64, 95
4, 214080, Note_on_c, 4, 59, 95
4, 214080, Note_on_c, 4, 52, 95
4, 214720, Note_off_c, 4, 71, 95
4, 214720, Note_off_c, 4, 68, 95
4, 214720, Note_off_c, 4, 64, 95
4, 214720, Note_off_c, 4, 59, 95
4, 214720, Note_off_c, 4, 52, 95
4, 214720, Note_on_c, 4, 71, 95
4, 214720, Note_on_c, 4, 68, 95
4, 214720, Note_on_c, 4, 64, 95
4, 214720, Note_on_c, 4, 59, 95
4, 214720, Note_on_c, 4, 52, 95
4, 215040, Note_off_c, 4, 71, 95
4, 215040, Note_off_c, 4, 68, 95
4, 215040, Note_off_c, 4, 64, 95
4, 215040, Note_off_c, 4, 59, 95
4, 215040, Note_off_c, 4, 52, 95
4, 215040, Note_on_c, 4, 64, 95
4, 215040, Note_on_c, 4, 59, 95
4, 215040, Note_on_c, 4, 55, 95
4, 215040, Note_on_c, 4, 50, 95
4, 215040, Note_on_c, 4, 45, 95
4, 215112, Note_off_c, 4, 64, 95
4, 215112, Note_off_c, 4, 59, 95
4, 215112, Note_off_c, 4, 55, 95
4, 215112, Note_off_c, 4, 50, 95
4, 215112, Note_off_c, 4, 45, 95
4, 215680, Note_on_c, 4, 64, 95
4, 215680, Note_on_c, 4, 59, 95
4, 215680, Note_on_c, 4, 55, 95
4, 215680, Note_on_c, 4, 50, 95
4, 215680, Note_on_c, 4, 45, 95
4, 215752, Note_off_c, 4, 64, 95
4, 215752, Note_off_c, 4, 59, 95
4, 215752, Note_off_c, 4, 55, 95
4, 215752, Note_off_c, 4, 50, 95
4, 215752, Note_off_c, 4, 45, 95
4, 216000, Note_on_c, 4, 71, 95
4, 216000, Note_on_c, 4, 67, 95
4, 216000, Note_on_c, 4, 64, 95
4, 216000, Note_on_c, 4, 59, 95
4, 216000, Note_on_c, 4, 52, 95
4, 216640, Note_off_c, 4, 71, 95
4, 216640, Note_off_c, 4, 67, 95
4, 216640, Note_off_c, 4, 64, 95
4, 216640, Note_off_c, 4, 59, 95
4, 216640, Note_off_c, 4, 52, 95
4, 216640, Note_on_c, 4, 71, 95
4, 216640, Note_on_c, 4, 67, 95
4, 216640, Note_on_c, 4, 64, 95
4, 216640, Note_on_c, 4, 59, 95
4, 216640, Note_on_c, 4, 52, 95
4, 216960, Note_off_c, 4, 71, 95
4, 216960, Note_off_c, 4, 67, 95
4, 216960, Note_off_c, 4, 64, 95
4, 216960, Note_off_c, 4, 59, 95
4, 216960, Note_off_c, 4, 52, 95
4, 216960, Note_on_c, 4, 64, 95
4, 216960, Note_on_c, 4, 59, 95
4, 216960, Note_on_c, 4, 55, 95
4, 216960, Note_on_c, 4, 50, 95
4, 216960, Note_on_c, 4, 45, 95
4, 217032, Note_off_c, 4, 64, 95
4, 217032, Note_off_c, 4, 59, 95
4, 217032, Note_off_c, 4, 55, 95
4, 217032, Note_off_c, 4, 50, 95
4, 217032, Note_off_c, 4, 45, 95
4, 217600, Note_on_c, 4, 64, 95
4, 217600, Note_on_c, 4, 59, 95
4, 217600, Note_on_c, 4, 55, 95
4, 217600, Note_on_c, 4, 50, 95
4, 217600, Note_on_c, 4, 45, 95
4, 217672, Note_off_c, 4, 64, 95
4, 217672, Note_off_c, 4, 59, 95
4, 217672, Note_off_c, 4, 55, 95
4, 217672, Note_off_c, 4, 50, 95
4, 217672, Note_off_c, 4, 45, 95
4, 217920, Note_on_c, 4, 71, 95
4, 217920, Note_on_c, 4, 67, 95
4, 217920, Note_on_c, 4, 64, 95
4, 217920, Note_on_c, 4, 59, 95
4, 217920, Note_on_c, 4, 52, 95
4, 218560, Note_off_c, 4, 71, 95
4, 218560, Note_off_c, 4, 67, 95
4, 218560, Note_off_c, 4, 64, 95
4, 218560, Note_off_c, 4, 59, 95
4, 218560, Note_off_c, 4, 52, 95
4, 218560, Note_on_c, 4, 71, 95
4, 218560, Note_on_c, 4, 67, 95
4, 218560, Note_on_c, 4, 64, 95
4, 218560, Note_on_c, 4, 59, 95
4, 218560, Note_on_c, 4, 52, 95
4, 218880, Note_off_c, 4, 71, 95
4, 218880, Note_off_c, 4, 67, 95
4, 218880, Note_off_c, 4, 64, 95
4, 218880, Note_off_c, 4, 59, 95
4, 218880, Note_off_c, 4, 52, 95
4, 226560, Note_on_c, 4, 64, 95
4, 226560, Note_on_c, 4, 59, 95
4, 226560, Note_on_c, 4, 55, 95
4, 226560, Note_on_c, 4, 50, 95
4, 226560, Note_on_c, 4, 45, 95
4, 226632, Note_off_c, 4, 64, 95
4, 226632, Note_off_c, 4, 59, 95
4, 226632, Note_off_c, 4, 55, 95
4, 226632, Note_off_c, 4, 50, 95
4, 226632, Note_off_c, 4, 45, 95
4, 227200, Note_on_c, 4, 64, 95
4, 227200, Note_on_c, 4, 59, 95
4, 227200, Note_on_c, 4, 55, 95
4, 227200, Note_on_c, 4, 50, 95
4, 227200, Note_on_c, 4, 45, 95
4, 227272, Note_off_c, 4, 64, 95
4, 227272, Note_off_c, 4, 59, 95
4, 227272, Note_off_c, 4, 55, 95
4, 227272, Note_off_c, 4, 50, 95
4, 227272, Note_off_c, 4, 45, 95
4, 227520, Note_on_c, 4, 71, 95
4, 227520, Note_on_c, 4, 67, 95
4, 227520, Note_on_c, 4, 64, 95
4, 227520, Note_on_c, 4, 59, 95
4, 227520, Note_on_c, 4, 52, 95
4, 228160, Note_off_c, 4, 71, 95
4, 228160, Note_off_c, 4, 67, 95
4, 228160, Note_off_c, 4, 64, 95
4, 228160, Note_off_c, 4, 59, 95
4, 228160, Note_off_c, 4, 52, 95
4, 228160, Note_on_c, 4, 71, 95
4, 228160, Note_on_c, 4, 67, 95
4, 228160, Note_on_c, 4, 64, 95
4, 228160, Note_on_c, 4, 59, 95
4, 228160, Note_on_c, 4, 52, 95
4, 228480, Note_off_c, 4, 71, 95
4, 228480, Note_off_c, 4, 67, 95
4, 228480, Note_off_c, 4, 64, 95
4, 228480, Note_off_c, 4, 59, 95
4, 228480, Note_off_c, 4, 52, 95
4, 228480, Note_on_c, 4, 64, 95
4, 228480, Note_on_c, 4, 59, 95
4, 228480, Note_on_c, 4, 55, 95
4, 228480, Note_on_c, 4, 50, 95
4, 228480, Note_on_c, 4, 45, 95
4, 228552, Note_off_c, 4, 64, 95
4, 228552, Note_off_c, 4, 59, 95
4, 228552, Note_off_c, 4, 55, 95
4, 228552, Note_off_c, 4, 50, 95
4, 228552, Note_off_c, 4, 45, 95
4, 229120, Note_on_c, 4, 64, 95
4, 229120, Note_on_c, 4, 59, 95
4, 229120, Note_on_c, 4, 55, 95
4, 229120, Note_on_c, 4, 50, 95
4, 229120, Note_on_c, 4, 45, 95
4, 229192, Note_off_c, 4, 64, 95
4, 229192, Note_off_c, 4, 59, 95
4, 229192, Note_off_c, 4, 55, 95
4, 229192, Note_off_c, 4, 50, 95
4, 229192, Note_off_c, 4, 45, 95
4, 229440, Note_on_c, 4, 71, 95
4, 229440, Note_on_c, 4, 67, 95
4, 229440, Note_on_c, 4, 64, 95
4, 229440, Note_on_c, 4, 59, 95
4, 229440, Note_on_c, 4, 52, 95
4, 230400, Note_off_c, 4, 71, 95
4, 230400, Note_off_c, 4, 67, 95
4, 230400, Note_off_c, 4, 64, 95
4, 230400, Note_off_c, 4, 59, 95
4, 230400, Note_off_c, 4, 52, 95
4, 230400, Note_on_c, 4, 66, 95
4, 230400, Note_on_c, 4, 62, 95
4, 230400, Note_on_c, 4, 57, 95
4, 230400, Note_on_c, 4, 50, 95
4, 231040, Note_off_c, 4, 66, 95
4, 231040, Note_off_c, 4, 62, 95
4, 231040, Note_off_c, 4, 57, 95
4, 231040, Note_off_c, 4, 50, 95
4, 231040, Note_on_c, 4, 66, 95
4, 231040, Note_on_c, 4, 62, 95
4, 231040, Note_on_c, 4, 57, 95
4, 231040, Note_on_c, 4, 50, 95
4, 231360, Note_off_c, 4, 66, 95
4, 231360, Note_off_c, 4, 62, 95
4, 231360, Note_off_c, 4, 57, 95
4, 231360, Note_off_c, 4, 50, 95
4, 231360, Note_on_c, 4, 66, 95
4, 231360, Note_on_c, 4, 62, 95
4, 231360, Note_on_c, 4, 57, 95
4, 231360, Note_on_c, 4, 50, 95
4, 232000, Note_off_c, 4, 66, 95
4, 232000, Note_off_c, 4, 62, 95
4, 232000, Note_off_c, 4, 57, 95
4, 232000, Note_off_c, 4, 50, 95
4, 232000, Note_on_c, 4, 66, 95
4, 232000, Note_on_c, 4, 62, 95
4, 232000, Note_on_c, 4, 57, 95
4, 232000, Note_on_c, 4, 50, 95
4, 232320, Note_off_c, 4, 66, 95
4, 232320, Note_off_c, 4, 62, 95
4, 232320, Note_off_c, 4, 57, 95
4, 232320, Note_off_c, 4, 50, 95
4, 232320, Note_on_c, 4, 66, 95
4, 232320, Note_on_c, 4, 62, 95
4, 232320, Note_on_c, 4, 57, 95
4, 232320, Note_on_c, 4, 50, 95
4, 233280, Note_off_c, 4, 66, 95
4, 233280, Note_off_c, 4, 62, 95
4, 233280, Note_off_c, 4, 57, 95
4, 233280, Note_off_c, 4, 50, 95
4, 233280, Note_on_c, 4, 66, 95
4, 233280, Note_on_c, 4, 62, 95
4, 233280, Note_on_c, 4, 57, 95
4, 233280, Note_on_c, 4, 50, 95
4, 233920, Note_off_c, 4, 66, 95
4, 233920, Note_off_c, 4, 62, 95
4, 233920, Note_off_c, 4, 57, 95
4, 233920, Note_off_c, 4, 50, 95
4, 233920, Note_on_c, 4, 66, 95
4, 233920, Note_on_c, 4, 62, 95
4, 233920, Note_on_c, 4, 57, 95
4, 233920, Note_on_c, 4, 50, 95
4, 234720, Note_off_c, 4, 66, 95
4, 234720, Note_off_c, 4, 62, 95
4, 234720, Note_off_c, 4, 57, 95
4, 234720, Note_off_c, 4, 50, 95
4, 234880, Note_on_c, 4, 66, 95
4, 234880, Note_on_c, 4, 62, 95
4, 234880, Note_on_c, 4, 57, 95
4, 234880, Note_on_c, 4, 50, 95
4, 235200, Note_off_c, 4, 66, 95
4, 235200, Note_off_c, 4, 62, 95
4, 235200, Note_off_c, 4, 57, 95
4, 235200, Note_off_c, 4, 50, 95
4, 235200, Note_on_c, 4, 66, 95
4, 235200, Note_on_c, 4, 62, 95
4, 235200, Note_on_c, 4, 57, 95
4, 235200, Note_on_c, 4, 50, 95
4, 236160, Note_off_c, 4, 66, 95
4, 236160, Note_off_c, 4, 62, 95
4, 236160, Note_off_c, 4, 57, 95
4, 236160, Note_off_c, 4, 50, 95
4, 236160, Note_on_c, 4, 66, 95
4, 236160, Note_on_c, 4, 62, 95
4, 236160, Note_on_c, 4, 57, 95
4, 236160, Note_on_c, 4, 50, 95
4, 237120, Note_off_c, 4, 66, 95
4, 237120, Note_off_c, 4, 62, 95
4, 237120, Note_off_c, 4, 57, 95
4, 237120, Note_off_c, 4, 50, 95
4, 237120, Note_on_c, 4, 66, 95
4, 237120, Note_on_c, 4, 62, 95
4, 237120, Note_on_c, 4, 57, 95
4, 237120, Note_on_c, 4, 50, 95
4, 238080, Note_off_c, 4, 66, 95
4, 238080, Note_off_c, 4, 62, 95
4, 238080, Note_off_c, 4, 57, 95
4, 238080, Note_off_c, 4, 50, 95
4, 238080, Note_on_c, 4, 71, 95
4, 238080, Note_on_c, 4, 67, 95
4, 238080, Note_on_c, 4, 64, 95
4, 238080, Note_on_c, 4, 59, 95
4, 238080, Note_on_c, 4, 52, 95
4, 239040, Note_off_c, 4, 71, 95
4, 239040, Note_off_c, 4, 67, 95
4, 239040, Note_off_c, 4, 64, 95
4, 239040, Note_off_c, 4, 59, 95
4, 239040, Note_off_c, 4, 52, 95
4, 239040, Note_on_c, 4, 71, 95
4, 239040, Note_on_c, 4, 67, 95
4, 239040, Note_on_c, 4, 64, 95
4, 239040, Note_on_c, 4, 59, 95
4, 239040, Note_on_c, 4, 52, 95
4, 240000, Note_off_c, 4, 71, 95
4, 240000, Note_off_c, 4, 67, 95
4, 240000, Note_off_c, 4, 64, 95
4, 240000, Note_off_c, 4, 59, 95
4, 240000, Note_off_c, 4, 52, 95
4, 240000, Note_on_c, 4, 71, 95
4, 240000, Note_on_c, 4, 67, 95
4, 240000, Note_on_c, 4, 64, 95
4, 240000, Note_on_c, 4, 59, 95
4, 240000, Note_on_c, 4, 52, 95
4, 240960, Note_off_c, 4, 71, 95
4, 240960, Note_off_c, 4, 67, 95
4, 240960, Note_off_c, 4, 64, 95
4, 240960, Note_off_c, 4, 59, 95
4, 240960, Note_off_c, 4, 52, 95
4, 240960, Note_on_c, 4, 71, 95
4, 240960, Note_on_c, 4, 67, 95
4, 240960, Note_on_c, 4, 64, 95
4, 240960, Note_on_c, 4, 59, 95
4, 240960, Note_on_c, 4, 52, 95
4, 241920, Note_off_c, 4, 71, 95
4, 241920, Note_off_c, 4, 67, 95
4, 241920, Note_off_c, 4, 64, 95
4, 241920, Note_off_c, 4, 59, 95
4, 241920, Note_off_c, 4, 52, 95
4, 241920, Note_on_c, 4, 71, 95
4, 241920, Note_on_c, 4, 69, 95
4, 241920, Note_on_c, 4, 65, 95
4, 241920, Note_on_c, 4, 60, 95
4, 241920, Note_on_c, 4, 52, 95
4, 242880, Note_off_c, 4, 71, 95
4, 242880, Note_off_c, 4, 69, 95
4, 242880, Note_off_c, 4, 65, 95
4, 242880, Note_off_c, 4, 60, 95
4, 242880, Note_off_c, 4, 52, 95
4, 242880, Note_on_c, 4, 71, 95
4, 242880, Note_on_c, 4, 69, 95
4, 242880, Note_on_c, 4, 65, 95
4, 242880, Note_on_c, 4, 60, 95
4, 242880, Note_on_c, 4, 52, 95
4, 243840, Note_off_c, 4, 71, 95
4, 243840, Note_off_c, 4, 69, 95
4, 243840, Note_off_c, 4, 65, 95
4, 243840, Note_off_c, 4, 60, 95
4, 243840, Note_off_c, 4, 52, 95
4, 243840, Note_on_c, 4, 71, 95
4, 243840, Note_on_c, 4, 69, 95
4, 243840, Note_on_c, 4, 65, 95
4, 243840, Note_on_c, 4, 60, 95
4, 243840, Note_on_c, 4, 52, 95
4, 244800, Note_off_c, 4, 71, 95
4, 244800, Note_off_c, 4, 69, 95
4, 244800, Note_off_c, 4, 65, 95
4, 244800, Note_off_c, 4, 60, 95
4, 244800, Note_off_c, 4, 52, 95
4, 244800, Note_on_c, 4, 71, 95
4, 244800, Note_on_c, 4, 69, 95
4, 244800, Note_on_c, 4, 65, 95
4, 244800, Note_on_c, 4, 60, 95
4, 244800, Note_on_c, 4, 52, 95
4, 245760, Note_off_c, 4, 71, 95
4, 245760, Note_off_c, 4, 69, 95
4, 245760, Note_off_c, 4, 65, 95
4, 245760, Note_off_c, 4, 60, 95
4, 245760, Note_off_c, 4, 52, 95
4, 245760, Note_on_c, 4, 71, 95
4, 245760, Note_on_c, 4, 67, 95
4, 245760, Note_on_c, 4, 64, 95
4, 245760, Note_on_c, 4, 59, 95
4, 245760, Note_on_c, 4, 52, 95
4, 246720, Note_off_c, 4, 71, 95
4, 246720, Note_off_c, 4, 67, 95
4, 246720, Note_off_c, 4, 64, 95
4, 246720, Note_off_c, 4, 59, 95
4, 246720, Note_off_c, 4, 52, 95
4, 246720, Note_on_c, 4, 71, 95
4, 246720, Note_on_c, 4, 67, 95
4, 246720, Note_on_c, 4, 64, 95
4, 246720, Note_on_c, 4, 59, 95
4, 246720, Note_on_c, 4, 52, 95
4, 247680, Note_off_c, 4, 71, 95
4, 247680, Note_off_c, 4, 67, 95
4, 247680, Note_off_c, 4, 64, 95
4, 247680, Note_off_c, 4, 59, 95
4, 247680, Note_off_c, 4, 52, 95
4, 247680, Note_on_c, 4, 71, 95
4, 247680, Note_on_c, 4, 67, 95
4, 247680, Note_on_c, 4, 64, 95
4, 247680, Note_on_c, 4, 59, 95
4, 247680, Note_on_c, 4, 52, 95
4, 248640, Note_off_c, 4, 71, 95
4, 248640, Note_off_c, 4, 67, 95
4, 248640, Note_off_c, 4, 64, 95
4, 248640, Note_off_c, 4, 59, 95
4, 248640, Note_off_c, 4, 52, 95
4, 248640, Note_on_c, 4, 71, 95
4, 248640, Note_on_c, 4, 67, 95
4, 248640, Note_on_c, 4, 64, 95
4, 248640, Note_on_c, 4, 59, 95
4, 248640, Note_on_c, 4, 52, 95
4, 249600, Note_off_c, 4, 71, 95
4, 249600, Note_off_c, 4, 67, 95
4, 249600, Note_off_c, 4, 64, 95
4, 249600, Note_off_c, 4, 59, 95
4, 249600, Note_off_c, 4, 52, 95
4, 249600, Note_on_c, 4, 71, 95
4, 249600, Note_on_c, 4, 69, 95
4, 249600, Note_on_c, 4, 65, 95
4, 249600, Note_on_c, 4, 60, 95
4, 249600, Note_on_c, 4, 52, 95
4, 250560, Note_off_c, 4, 71, 95
4, 250560, Note_off_c, 4, 69, 95
4, 250560, Note_off_c, 4, 65, 95
4, 250560, Note_off_c, 4, 60, 95
4, 250560, Note_off_c, 4, 52, 95
4, 250560, Note_on_c, 4, 71, 95
4, 250560, Note_on_c, 4, 69, 95
4, 250560, Note_on_c, 4, 65, 95
4, 250560, Note_on_c, 4, 60, 95
4, 250560, Note_on_c, 4, 52, 95
4, 251520, Note_off_c, 4, 71, 95
4, 251520, Note_off_c, 4, 69, 95
4, 251520, Note_off_c, 4, 65, 95
4, 251520, Note_off_c, 4, 60, 95
4, 251520, Note_off_c, 4, 52, 95
4, 251520, Note_on_c, 4, 71, 95
4, 251520, Note_on_c, 4, 69, 95
4, 251520, Note_on_c, 4, 65, 95
4, 251520, Note_on_c, 4, 60, 95
4, 251520, Note_on_c, 4, 52, 95
4, 252480, Note_off_c, 4, 71, 95
4, 252480, Note_off_c, 4, 69, 95
4, 252480, Note_off_c, 4, 65, 95
4, 252480, Note_off_c, 4, 60, 95
4, 252480, Note_off_c, 4, 52, 95
4, 252480, Note_on_c, 4, 71, 95
4, 252480, Note_on_c, 4, 69, 95
4, 252480, Note_on_c, 4, 65, 95
4, 252480, Note_on_c, 4, 60, 95
4, 252480, Note_on_c, 4, 52, 95
4, 253440, Note_off_c, 4, 71, 95
4, 253440, Note_off_c, 4, 69, 95
4, 253440, Note_off_c, 4, 65, 95
4, 253440, Note_off_c, 4, 60, 95
4, 253440, Note_off_c, 4, 52, 95
4, 253440, Note_on_c, 4, 71, 95
4, 253440, Note_on_c, 4, 67, 95
4, 253440, Note_on_c, 4, 64, 95
4, 253440, Note_on_c, 4, 59, 95
4, 253440, Note_on_c, 4, 52, 95
4, 254400, Note_off_c, 4, 71, 95
4, 254400, Note_off_c, 4, 67, 95
4, 254400, Note_off_c, 4, 64, 95
4, 254400, Note_off_c, 4, 59, 95
4, 254400, Note_off_c, 4, 52, 95
4, 254400, Note_on_c, 4, 71, 95
4, 254400, Note_on_c, 4, 67, 95
4, 254400, Note_on_c, 4, 64, 95
4, 254400, Note_on_c, 4, 59, 95
4, 254400, Note_on_c, 4, 52, 95
4, 255360, Note_off_c, 4, 71, 95
4, 255360, Note_off_c, 4, 67, 95
4, 255360, Note_off_c, 4, 64, 95
4, 255360, Note_off_c, 4, 59, 95
4, 255360, Note_off_c, 4, 52, 95
4, 255360, Note_on_c, 4, 71, 95
4, 255360, Note_on_c, 4, 67, 95
4, 255360, Note_on_c, 4, 64, 95
4, 255360, Note_on_c, 4, 59, 95
4, 255360, Note_on_c, 4, 52, 95
4, 256320, Note_off_c, 4, 71, 95
4, 256320, Note_off_c, 4, 67, 95
4, 256320, Note_off_c, 4, 64, 95
4, 256320, Note_off_c, 4, 59, 95
4, 256320, Note_off_c, 4, 52, 95
4, 256320, Note_on_c, 4, 71, 95
4, 256320, Note_on_c, 4, 67, 95
4, 256320, Note_on_c, 4, 64, 95
4, 256320, Note_on_c, 4, 59, 95
4, 256320, Note_on_c, 4, 52, 95
4, 257280, Note_off_c, 4, 71, 95
4, 257280, Note_off_c, 4, 67, 95
4, 257280, Note_off_c, 4, 64, 95
4, 257280, Note_off_c, 4, 59, 95
4, 257280, Note_off_c, 4, 52, 95
4, 257280, Note_on_c, 4, 71, 95
4, 257280, Note_on_c, 4, 69, 95
4, 257280, Note_on_c, 4, 65, 95
4, 257280, Note_on_c, 4, 60, 95
4, 257280, Note_on_c, 4, 52, 95
4, 258240, Note_off_c, 4, 71, 95
4, 258240, Note_off_c, 4, 69, 95
4, 258240, Note_off_c, 4, 65, 95
4, 258240, Note_off_c, 4, 60, 95
4, 258240, Note_off_c, 4, 52, 95
4, 258240, Note_on_c, 4, 71, 95
4, 258240, Note_on_c, 4, 69, 95
4, 258240, Note_on_c, 4, 65, 95
4, 258240, Note_on_c, 4, 60, 95
4, 258240, Note_on_c, 4, 52, 95
4, 259200, Note_off_c, 4, 71, 95
4, 259200, Note_off_c, 4, 69, 95
4, 259200, Note_off_c, 4, 65, 95
4, 259200, Note_off_c, 4, 60, 95
4, 259200, Note_off_c, 4, 52, 95
4, 259200, Note_on_c, 4, 71, 95
4, 259200, Note_on_c, 4, 69, 95
4, 259200, Note_on_c, 4, 65, 95
4, 259200, Note_on_c, 4, 60, 95
4, 259200, Note_on_c, 4, 52, 95
4, 260160, Note_off_c, 4, 71, 95
4, 260160, Note_off_c, 4, 69, 95
4, 260160, Note_off_c, 4, 65, 95
4, 260160, Note_off_c, 4, 60, 95
4, 260160, Note_off_c, 4, 52, 95
4, 260160, Note_on_c, 4, 71, 95
4, 260160, Note_on_c, 4, 69, 95
4, 260160, Note_on_c, 4, 65, 95
4, 260160, Note_on_c, 4, 60, 95
4, 260160, Note_on_c, 4, 52, 95
4, 261120, Note_off_c, 4, 71, 95
4, 261120, Note_off_c, 4, 69, 95
4, 261120, Note_off_c, 4, 65, 95
4, 261120, Note_off_c, 4, 60, 95
4, 261120, Note_off_c, 4, 52, 95
4, 261120, Note_on_c, 4, 71, 95
4, 261120, Note_on_c, 4, 67, 95
4, 261120, Note_on_c, 4, 64, 95
4, 261120, Note_on_c, 4, 59, 95
4, 261120, Note_on_c, 4, 52, 95
4, 262080, Note_off_c, 4, 71, 95
4, 262080, Note_off_c, 4, 67, 95
4, 262080, Note_off_c, 4, 64, 95
4, 262080, Note_off_c, 4, 59, 95
4, 262080, Note_off_c, 4, 52, 95
4, 262080, Note_on_c, 4, 71, 95
4, 262080, Note_on_c, 4, 67, 95
4, 262080, Note_on_c, 4, 64, 95
4, 262080, Note_on_c, 4, 59, 95
4, 262080, Note_on_c, 4, 52, 95
4, 263040, Note_off_c, 4, 71, 95
4, 263040, Note_off_c, 4, 67, 95
4, 263040, Note_off_c, 4, 64, 95
4, 263040, Note_off_c, 4, 59, 95
4, 263040, Note_off_c, 4, 52, 95
4, 263040, Note_on_c, 4, 71, 95
4, 263040, Note_on_c, 4, 67, 95
4, 263040, Note_on_c, 4, 64, 95
4, 263040, Note_on_c, 4, 59, 95
4, 263040, Note_on_c, 4, 52, 95
4, 264000, Note_off_c, 4, 71, 95
4, 264000, Note_off_c, 4, 67, 95
4, 264000, Note_off_c, 4, 64, 95
4, 264000, Note_off_c, 4, 59, 95
4, 264000, Note_off_c, 4, 52, 95
4, 264000, Note_on_c, 4, 71, 95
4, 264000, Note_on_c, 4, 67, 95
4, 264000, Note_on_c, 4, 64, 95
4, 264000, Note_on_c, 4, 59, 95
4, 264000, Note_on_c, 4, 52, 95
4, 264960, Note_off_c, 4, 71, 95
4, 264960, Note_off_c, 4, 67, 95
4, 264960, Note_off_c, 4, 64, 95
4, 264960, Note_off_c, 4, 59, 95
4, 264960, Note_off_c, 4, 52, 95
4, 264960, Note_on_c, 4, 71, 95
4, 264960, Note_on_c, 4, 69, 95
4, 264960, Note_on_c, 4, 65, 95
4, 264960, Note_on_c, 4, 60, 95
4, 264960, Note_on_c, 4, 52, 95
4, 265920, Note_off_c, 4, 71, 95
4, 265920, Note_off_c, 4, 69, 95
4, 265920, Note_off_c, 4, 65, 95
4, 265920, Note_off_c, 4, 60, 95
4, 265920, Note_off_c, 4, 52, 95
4, 265920, Note_on_c, 4, 71, 95
4, 265920, Note_on_c, 4, 69, 95
4, 265920, Note_on_c, 4, 65, 95
4, 265920, Note_on_c, 4, 60, 95
4, 265920, Note_on_c, 4, 52, 95
4, 266880, Note_off_c, 4, 71, 95
4, 266880, Note_off_c, 4, 69, 95
4, 266880, Note_off_c, 4, 65, 95
4, 266880, Note_off_c, 4, 60, 95
4, 266880, Note_off_c, 4, 52, 95
4, 266880, Note_on_c, 4, 71, 95
4, 266880, Note_on_c, 4, 69, 95
4, 266880, Note_on_c, 4, 65, 95
4, 266880, Note_on_c, 4, 60, 95
4, 266880, Note_on_c, 4, 52, 95
4, 267840, Note_off_c, 4, 71, 95
4, 267840, Note_off_c, 4, 69, 95
4, 267840, Note_off_c, 4, 65, 95
4, 267840, Note_off_c, 4, 60, 95
4, 267840, Note_off_c, 4, 52, 95
4, 267840, Note_on_c, 4, 71, 95
4, 267840, Note_on_c, 4, 69, 95
4, 267840, Note_on_c, 4, 65, 95
4, 267840, Note_on_c, 4, 60, 95
4, 267840, Note_on_c, 4, 52, 95
4, 268800, Note_off_c, 4, 71, 95
4, 268800, Note_off_c, 4, 69, 95
4, 268800, Note_off_c, 4, 65, 95
4, 268800, Note_off_c, 4, 60, 95
4, 268800, Note_off_c, 4, 52, 95
4, 268800, Note_on_c, 4, 71, 95
4, 268800, Note_on_c, 4, 67, 95
4, 268800, Note_on_c, 4, 64, 95
4, 268800, Note_on_c, 4, 59, 95
4, 268800, Note_on_c, 4, 52, 95
4, 269440, Note_off_c, 4, 71, 95
4, 269440, Note_off_c, 4, 67, 95
4, 269440, Note_off_c, 4, 64, 95
4, 269440, Note_off_c, 4, 59, 95
4, 269440, Note_off_c, 4, 52, 95
4, 269440, Note_on_c, 4, 71, 95
4, 269440, Note_on_c, 4, 67, 95
4, 269440, Note_on_c, 4, 64, 95
4, 269440, Note_on_c, 4, 59, 95
4, 269440, Note_on_c, 4, 52, 95
4, 269760, Note_off_c, 4, 71, 95
4, 269760, Note_off_c, 4, 67, 95
4, 269760, Note_off_c, 4, 64, 95
4, 269760, Note_off_c, 4, 59, 95
4, 269760, Note_off_c, 4, 52, 95
4, 269760, Note_on_c, 4, 71, 95
4, 269760, Note_on_c, 4, 67, 95
4, 269760, Note_on_c, 4, 64, 95
4, 269760, Note_on_c, 4, 59, 95
4, 269760, Note_on_c, 4, 52, 95
4, 270720, Note_off_c, 4, 71, 95
4, 270720, Note_off_c, 4, 67, 95
4, 270720, Note_off_c, 4, 64, 95
4, 270720, Note_off_c, 4, 59, 95
4, 270720, Note_off_c, 4, 52, 95
4, 270720, Note_on_c, 4, 71, 95
4, 270720, Note_on_c, 4, 67, 95
4, 270720, Note_on_c, 4, 64, 95
4, 270720, Note_on_c, 4, 59, 95
4, 270720, Note_on_c, 4, 52, 95
4, 271360, Note_off_c, 4, 71, 95
4, 271360, Note_off_c, 4, 67, 95
4, 271360, Note_off_c, 4, 64, 95
4, 271360, Note_off_c, 4, 59, 95
4, 271360, Note_off_c, 4, 52, 95
4, 271360, Note_on_c, 4, 71, 95
4, 271360, Note_on_c, 4, 67, 95
4, 271360, Note_on_c, 4, 64, 95
4, 271360, Note_on_c, 4, 59, 95
4, 271360, Note_on_c, 4, 52, 95
4, 271680, Note_off_c, 4, 71, 95
4, 271680, Note_off_c, 4, 67, 95
4, 271680, Note_off_c, 4, 64, 95
4, 271680, Note_off_c, 4, 59, 95
4, 271680, Note_off_c, 4, 52, 95
4, 271680, Note_on_c, 4, 71, 95
4, 271680, Note_on_c, 4, 67, 95
4, 271680, Note_on_c, 4, 64, 95
4, 271680, Note_on_c, 4, 59, 95
4, 271680, Note_on_c, 4, 52, 95
4, 272640, Note_off_c, 4, 71, 95
4, 272640, Note_off_c, 4, 67, 95
4, 272640, Note_off_c, 4, 64, 95
4, 272640, Note_off_c, 4, 59, 95
4, 272640, Note_off_c, 4, 52, 95
4, 272640, Note_on_c, 4, 67, 95
4, 272640, Note_on_c, 4, 64, 95
4, 273280, Note_off_c, 4, 67, 95
4, 273280, Note_off_c, 4, 64, 95
4, 273280, Note_on_c, 4, 69, 95
4, 273280, Note_on_c, 4, 65, 95
4, 273600, Note_off_c, 4, 69, 95
4, 273600, Note_off_c, 4, 65, 95
4, 273600, Note_on_c, 4, 67, 95
4, 273600, Note_on_c, 4, 64, 95
4, 274240, Note_off_c, 4, 67, 95
4, 274240, Note_off_c, 4, 64, 95
4, 274240, Note_on_c, 4, 69, 95
4, 274240, Note_on_c, 4, 65, 95
4, 274560, Note_off_c, 4, 69, 95
4, 274560, Note_off_c, 4, 65, 95
4, 274560, Note_on_c, 4, 67, 95
4, 274560, Note_on_c, 4, 64, 95
4, 275200, Note_off_c, 4, 67, 95
4, 275200, Note_off_c, 4, 64, 95
4, 275200, Note_on_c, 4, 69, 95
4, 275200, Note_on_c, 4, 65, 95
4, 275520, Note_off_c, 4, 69, 95
4, 275520, Note_off_c, 4, 65, 95
4, 275520, Note_on_c, 4, 67, 95
4, 275520, Note_on_c, 4, 64, 95
4, 276160, Note_off_c, 4, 67, 95
4, 276160, Note_off_c, 4, 64, 95
4, 276160, Note_on_c, 4, 59, 95
4, 276160, Note_on_c, 4, 55, 95
4, 276232, Note_off_c, 4, 59, 95
4, 276232, Note_off_c, 4, 55, 95
4, 276480, Note_on_c, 4, 71, 95
4, 276480, Note_on_c, 4, 67, 95
4, 276480, Note_on_c, 4, 64, 95
4, 276480, Note_on_c, 4, 59, 95
4, 277120, Note_off_c, 4, 71, 95
4, 277120, Note_off_c, 4, 67, 95
4, 277120, Note_off_c, 4, 64, 95
4, 277120, Note_off_c, 4, 59, 95
4, 277120, Note_on_c, 4, 71, 95
4, 277120, Note_on_c, 4, 67, 95
4, 277120, Note_on_c, 4, 64, 95
4, 277120, Note_on_c, 4, 59, 95
4, 277440, Note_off_c, 4, 71, 95
4, 277440, Note_off_c, 4, 67, 95
4, 277440, Note_off_c, 4, 64, 95
4, 277440, Note_off_c, 4, 59, 95
4, 277440, Note_on_c, 4, 71, 95
4, 277440, Note_on_c, 4, 67, 95
4, 277440, Note_on_c, 4, 64, 95
4, 277440, Note_on_c, 4, 59, 95
4, 278080, Note_off_c, 4, 71, 95
4, 278080, Note_off_c, 4, 67, 95
4, 278080, Note_off_c, 4, 64, 95
4, 278080, Note_off_c, 4, 59, 95
4, 278080, Note_on_c, 4, 64, 95
4, 278080, Note_on_c, 4, 59, 95
4, 278080, Note_on_c, 4, 55, 95
4, 278080, Note_on_c, 4, 50, 95
4, 278152, Note_off_c, 4, 64, 95
4, 278152, Note_off_c, 4, 59, 95
4, 278152, Note_off_c, 4, 55, 95
4, 278152, Note_off_c, 4, 50, 95
4, 278400, Note_on_c, 4, 71, 95
4, 278400, Note_on_c, 4, 67, 95
4, 278400, Note_on_c, 4, 64, 95
4, 278400, Note_on_c, 4, 59, 95
4, 279040, Note_off_c, 4, 71, 95
4, 279040, Note_off_c, 4, 67, 95
4, 279040, Note_off_c, 4, 64, 95
4, 279040, Note_off_c, 4, 59, 95
4, 279040, Note_on_c, 4, 71, 95
4, 279040, Note_on_c, 4, 67, 95
4, 279040, Note_on_c, 4, 64, 95
4, 279040, Note_on_c, 4, 59, 95
4, 279360, Note_off_c, 4, 71, 95
4, 279360, Note_off_c, 4, 67, 95
4, 279360, Note_off_c, 4, 64, 95
4, 279360, Note_off_c, 4, 59, 95
4, 279360, Note_on_c, 4, 71, 95
4, 279360, Note_on_c, 4, 67, 95
4, 279360, Note_on_c, 4, 64, 95
4, 279360, Note_on_c, 4, 59, 95
4, 280000, Note_off_c, 4, 71, 95
4, 280000, Note_off_c, 4, 67, 95
4, 280000, Note_off_c, 4, 64, 95
4, 280000, Note_off_c, 4, 59, 95
4, 280000, Note_on_c, 4, 64, 95
4, 280000, Note_on_c, 4, 59, 95
4, 280000, Note_on_c, 4, 55, 95
4, 280000, Note_on_c, 4, 50, 95
4, 280072, Note_off_c, 4, 64, 95
4, 280072, Note_off_c, 4, 59, 95
4, 280072, Note_off_c, 4, 55, 95
4, 280072, Note_off_c, 4, 50, 95
4, 280320, Note_on_c, 4, 64, 95
4, 280320, Note_on_c, 4, 59, 95
4, 280320, Note_on_c, 4, 55, 95
4, 280320, Note_on_c, 4, 50, 95
4, 280320, Note_on_c, 4, 45, 95
4, 280392, Note_off_c, 4, 64, 95
4, 280392, Note_off_c, 4, 59, 95
4, 280392, Note_off_c, 4, 55, 95
4, 280392, Note_off_c, 4, 50, 95
4, 280392, Note_off_c, 4, 45, 95
4, 280960, Note_on_c, 4, 71, 95
4, 280960, Note_on_c, 4, 67, 95
4, 280960, Note_on_c, 4, 62, 95
4, 280960, Note_on_c, 4, 55, 95
4, 281280, Note_off_c, 4, 71, 95
4, 281280, Note_off_c, 4, 67, 95
4, 281280, Note_off_c, 4, 62, 95
4, 281280, Note_off_c, 4, 55, 95
4, 281280, Note_on_c, 4, 64, 95
4, 281280, Note_on_c, 4, 59, 95
4, 281280, Note_on_c, 4, 55, 95
4, 281280, Note_on_c, 4, 50, 95
4, 281280, Note_on_c, 4, 45, 95
4, 281352, Note_off_c, 4, 64, 95
4, 281352, Note_off_c, 4, 59, 95
4, 281352, Note_off_c, 4, 55, 95
4, 281352, Note_off_c, 4, 50, 95
4, 281352, Note_off_c, 4, 45, 95
4, 281920, Note_on_c, 4, 71, 95
4, 281920, Note_on_c, 4, 67, 95
4, 281920, Note_on_c, 4, 62, 95
4, 281920, Note_on_c, 4, 55, 95
4, 282240, Note_off_c, 4, 71, 95
4, 282240, Note_off_c, 4, 67, 95
4, 282240, Note_off_c, 4, 62, 95
4, 282240, Note_off_c, 4, 55, 95
4, 282240, Note_on_c, 4, 64, 95
4, 282240, Note_on_c, 4, 59, 95
4, 282240, Note_on_c, 4, 55, 95
4, 282240, Note_on_c, 4, 50, 95
4, 282240, Note_on_c, 4, 45, 95
4, 282312, Note_off_c, 4, 64, 95
4, 282312, Note_off_c, 4, 59, 95
4, 282312, Note_off_c, 4, 55, 95
4, 282312, Note_off_c, 4, 50, 95
4, 282312, Note_off_c, 4, 45, 95
4, 282880, Note_on_c, 4, 71, 95
4, 282880, Note_on_c, 4, 67, 95
4, 282880, Note_on_c, 4, 62, 95
4, 282880, Note_on_c, 4, 55, 95
4, 283200, Note_off_c, 4, 71, 95
4, 283200, Note_off_c, 4, 67, 95
4, 283200, Note_off_c, 4, 62, 95
4, 283200, Note_off_c, 4, 55, 95
4, 283200, Note_on_c, 4, 64, 95
4, 283200, Note_on_c, 4, 59, 95
4, 283200, Note_on_c, 4, 55, 95
4, 283200, Note_on_c, 4, 50, 95
4, 283200, Note_on_c, 4, 45, 95
4, 283272, Note_off_c, 4, 64, 95
4, 283272, Note_off_c, 4, 59, 95
4, 283272, Note_off_c, 4, 55, 95
4, 283272, Note_off_c, 4, 50, 95
4, 283272, Note_off_c, 4, 45, 95
4, 283840, Note_on_c, 4, 71, 95
4, 283840, Note_on_c, 4, 67, 95
4, 283840, Note_on_c, 4, 62, 95
4, 283840, Note_on_c, 4, 55, 95
4, 284160, Note_off_c, 4, 71, 95
4, 284160, Note_off_c, 4, 67, 95
4, 284160, Note_off_c, 4, 62, 95
4, 284160, Note_off_c, 4, 55, 95
4, 284160, Note_on_c, 4, 67, 95
4, 284160, Note_on_c, 4, 64, 95
4, 284800, Note_off_c, 4, 67, 95
4, 284800, Note_off_c, 4, 64, 95
4, 284800, Note_on_c, 4, 69, 95
4, 284800, Note_on_c, 4, 65, 95
4, 285120, Note_off_c, 4, 69, 95
4, 285120, Note_off_c, 4, 65, 95
4, 285120, Note_on_c, 4, 67, 95
4, 285120, Note_on_c, 4, 64, 95
4, 285760, Note_off_c, 4, 67, 95
4, 285760, Note_off_c, 4, 64, 95
4, 285760, Note_on_c, 4, 69, 95
4, 285760, Note_on_c, 4, 65, 95
4, 286080, Note_off_c, 4, 69, 95
4, 286080, Note_off_c, 4, 65, 95
4, 286080, Note_on_c, 4, 67, 95
4, 286080, Note_on_c, 4, 64, 95
4, 286720, Note_off_c, 4, 67, 95
4, 286720, Note_off_c, 4, 64, 95
4, 286720, Note_on_c, 4, 69, 95
4, 286720, Note_on_c, 4, 65, 95
4, 287040, Note_off_c, 4, 69, 95
4, 287040, Note_off_c, 4, 65, 95
4, 287040, Note_on_c, 4, 67, 95
4, 287040, Note_on_c, 4, 64, 95
4, 287680, Note_off_c, 4, 67, 95
4, 287680, Note_off_c, 4, 64, 95
4, 287680, Note_on_c, 4, 59, 95
4, 287680, Note_on_c, 4, 55, 95
4, 287752, Note_off_c, 4, 59, 95
4, 287752, Note_off_c, 4, 55, 95
4, 288000, Note_on_c, 4, 71, 95
4, 288000, Note_on_c, 4, 67, 95
4, 288000, Note_on_c, 4, 64, 95
4, 288000, Note_on_c, 4, 59, 95
4, 288640, Note_off_c, 4, 71, 95
4, 288640, Note_off_c, 4, 67, 95
4, 288640, Note_off_c, 4, 64, 95
4, 288640, Note_off_c, 4, 59, 95
4, 288640, Note_on_c, 4, 71, 95
4, 288640, Note_on_c, 4, 67, 95
4, 288640, Note_on_c, 4, 64, 95
4, 288640, Note_on_c, 4, 59, 95
4, 288960, Note_off_c, 4, 71, 95
4, 288960, Note_off_c, 4, 67, 95
4, 288960, Note_off_c, 4, 64, 95
4, 288960, Note_off_c, 4, 59, 95
4, 288960, Note_on_c, 4, 71, 95
4, 288960, Note_on_c, 4, 67, 95
4, 288960, Note_on_c, 4, 64, 95
4, 288960, Note_on_c, 4, 59, 95
4, 289600, Note_off_c, 4, 71, 95
4, 289600, Note_off_c, 4, 67, 95
4, 289600, Note_off_c, 4, 64, 95
4, 289600, Note_off_c, 4, 59, 95
4, 289600, Note_on_c, 4, 64, 95
4, 289600, Note_on_c, 4, 59, 95
4, 289600, Note_on_c, 4, 55, 95
4, 289600, Note_on_c, 4, 50, 95
4, 289672, Note_off_c, 4, 64, 95
4, 289672, Note_off_c, 4, 59, 95
4, 289672, Note_off_c, 4, 55, 95
4, 289672, Note_off_c, 4, 50, 95
4, 289920, Note_on_c, 4, 71, 95
4, 289920, Note_on_c, 4, 67, 95
4, 289920, Note_on_c, 4, 64, 95
4, 289920, Note_on_c, 4, 59, 95
4, 290560, Note_off_c, 4, 71, 95
4, 290560, Note_off_c, 4, 67, 95
4, 290560, Note_off_c, 4, 64, 95
4, 290560, Note_off_c, 4, 59, 95
4, 290560, Note_on_c, 4, 71, 95
4, 290560, Note_on_c, 4, 67, 95
4, 290560, Note_on_c, 4, 64, 95
4, 290560, Note_on_c, 4, 59, 95
4, 290880, Note_off_c, 4, 71, 95
4, 290880, Note_off_c, 4, 67, 95
4, 290880, Note_off_c, 4, 64, 95
4, 290880, Note_off_c, 4, 59, 95
4, 290880, Note_on_c, 4, 71, 95
4, 290880, Note_on_c, 4, 67, 95
4, 290880, Note_on_c, 4, 64, 95
4, 290880, Note_on_c, 4, 59, 95
4, 291520, Note_off_c, 4, 71, 95
4, 291520, Note_off_c, 4, 67, 95
4, 291520, Note_off_c, 4, 64, 95
4, 291520, Note_off_c, 4, 59, 95
4, 291520, Note_on_c, 4, 64, 95
4, 291520, Note_on_c, 4, 59, 95
4, 291520, Note_on_c, 4, 55, 95
4, 291520, Note_on_c, 4, 50, 95
4, 291592, Note_off_c, 4, 64, 95
4, 291592, Note_off_c, 4, 59, 95
4, 291592, Note_off_c, 4, 55, 95
4, 291592, Note_off_c, 4, 50, 95
4, 291840, Note_on_c, 4, 64, 95
4, 291840, Note_on_c, 4, 59, 95
4, 291840, Note_on_c, 4, 55, 95
4, 291840, Note_on_c, 4, 50, 95
4, 291840, Note_on_c, 4, 45, 95
4, 291912, Note_off_c, 4, 64, 95
4, 291912, Note_off_c, 4, 59, 95
4, 291912, Note_off_c, 4, 55, 95
4, 291912, Note_off_c, 4, 50, 95
4, 291912, Note_off_c, 4, 45, 95
4, 292480, Note_on_c, 4, 71, 95
4, 292480, Note_on_c, 4, 67, 95
4, 292480, Note_on_c, 4, 62, 95
4, 292480, Note_on_c, 4, 55, 95
4, 292800, Note_off_c, 4, 71, 95
4, 292800, Note_off_c, 4, 67, 95
4, 292800, Note_off_c, 4, 62, 95
4, 292800, Note_off_c, 4, 55, 95
4, 292800, Note_on_c, 4, 64, 95
4, 292800, Note_on_c, 4, 59, 95
4, 292800, Note_on_c, 4, 55, 95
4, 292800, Note_on_c, 4, 50, 95
4, 292800, Note_on_c, 4, 45, 95
4, 292872, Note_off_c, 4, 64, 95
4, 292872, Note_off_c, 4, 59, 95
4, 292872, Note_off_c, 4, 55, 95
4, 292872, Note_off_c, 4, 50, 95
4, 292872, Note_off_c, 4, 45, 95
4, 293440, Note_on_c, 4, 71, 95
4, 293440, Note_on_c, 4, 67, 95
4, 293440, Note_on_c, 4, 62, 95
4, 293440, Note_on_c, 4, 55, 95
4, 293760, Note_off_c, 4, 71, 95
4, 293760, Note_off_c, 4, 67, 95
4, 293760, Note_off_c, 4, 62, 95
4, 293760, Note_off_c, 4, 55, 95
4, 293760, Note_on_c, 4, 64, 95
4, 293760, Note_on_c, 4, 59, 95
4, 293760, Note_on_c, 4, 55, 95
4, 293760, Note_on_c, 4, 50, 95
4, 293760, Note_on_c, 4, 45, 95
4, 293832, Note_off_c, 4, 64, 95
4, 293832, Note_off_c, 4, 59, 95
4, 293832, Note_off_c, 4, 55, 95
4, 293832, Note_off_c, 4, 50, 95
4, 293832, Note_off_c, 4, 45, 95
4, 294400, Note_on_c, 4, 71, 95
4, 294400, Note_on_c, 4, 67, 95
4, 294400, Note_on_c, 4, 62, 95
4, 294400, Note_on_c, 4, 55, 95
4, 294720, Note_off_c, 4, 71, 95
4, 294720, Note_off_c, 4, 67, 95
4, 294720, Note_off_c, 4, 62, 95
4, 294720, Note_off_c, 4, 55, 95
4, 294720, Note_on_c, 4, 64, 95
4, 294720, Note_on_c, 4, 59, 95
4, 294720, Note_on_c, 4, 55, 95
4, 294720, Note_on_c, 4, 50, 95
4, 294720, Note_on_c, 4, 45, 95
4, 294792, Note_off_c, 4, 64, 95
4, 294792, Note_off_c, 4, 59, 95
4, 294792, Note_off_c, 4, 55, 95
4, 294792, Note_off_c, 4, 50, 95
4, 294792, Note_off_c, 4, 45, 95
4, 295360, Note_on_c, 4, 71, 95
4, 295360, Note_on_c, 4, 67, 95
4, 295360, Note_on_c, 4, 62, 95
4, 295360, Note_on_c, 4, 55, 95
4, 295680, Note_off_c, 4, 71, 95
4, 295680, Note_off_c, 4, 67, 95
4, 295680, Note_off_c, 4, 62, 95
4, 295680, Note_off_c, 4, 55, 95
4, 299520, Note_on_c, 4, 64, 95
4, 299520, Note_on_c, 4, 59, 95
4, 299520, Note_on_c, 4, 55, 95
4, 299520, Note_on_c, 4, 50, 95
4, 299520, Note_on_c, 4, 45, 95
4, 299592, Note_off_c, 4, 64, 95
4, 299592, Note_off_c, 4, 59, 95
4, 299592, Note_off_c, 4, 55, 95
4, 299592, Note_off_c, 4, 50, 95
4, 299592, Note_off_c, 4, 45, 95
4, 300160, Note_on_c, 4, 64, 95
4, 300160, Note_on_c, 4, 59, 95
4, 300160, Note_on_c, 4, 55, 95
4, 300160, Note_on_c, 4, 50, 95
4, 300160, Note_on_c, 4, 45, 95
4, 300232, Note_off_c, 4, 64, 95
4, 300232, Note_off_c, 4, 59, 95
4, 300232, Note_off_c, 4, 55, 95
4, 300232, Note_off_c, 4, 50, 95
4, 300232, Note_off_c, 4, 45, 95
4, 300480, Note_on_c, 4, 71, 95
4, 300480, Note_on_c, 4, 67, 95
4, 300480, Note_on_c, 4, 64, 95
4, 300480, Note_on_c, 4, 59, 95
4, 300480, Note_on_c, 4, 52, 95
4, 301120, Note_off_c, 4, 71, 95
4, 301120, Note_off_c, 4, 67, 95
4, 301120, Note_off_c, 4, 64, 95
4, 301120, Note_off_c, 4, 59, 95
4, 301120, Note_off_c, 4, 52, 95
4, 301120, Note_on_c, 4, 71, 95
4, 301120, Note_on_c, 4, 67, 95
4, 301120, Note_on_c, 4, 64, 95
4, 301120, Note_on_c, 4, 59, 95
4, 301120, Note_on_c, 4, 52, 95
4, 301440, Note_off_c, 4, 71, 95
4, 301440, Note_off_c, 4, 67, 95
4, 301440, Note_off_c, 4, 64, 95
4, 301440, Note_off_c, 4, 59, 95
4, 301440, Note_off_c, 4, 52, 95
4, 301440, Note_on_c, 4, 64, 95
4, 301440, Note_on_c, 4, 59, 95
4, 301440, Note_on_c, 4, 55, 95
4, 301440, Note_on_c, 4, 50, 95
4, 301440, Note_on_c, 4, 45, 95
4, 301512, Note_off_c, 4, 64, 95
4, 301512, Note_off_c, 4, 59, 95
4, 301512, Note_off_c, 4, 55, 95
4, 301512, Note_off_c, 4, 50, 95
4, 301512, Note_off_c, 4, 45, 95
4, 302080, Note_on_c, 4, 64, 95
4, 302080, Note_on_c, 4, 59, 95
4, 302080, Note_on_c, 4, 55, 95
4, 302080, Note_on_c, 4, 50, 95
4, 302080, Note_on_c, 4, 45, 95
4, 302152, Note_off_c, 4, 64, 95
4, 302152, Note_off_c, 4, 59, 95
4, 302152, Note_off_c, 4, 55, 95
4, 302152, Note_off_c, 4, 50, 95
4, 302152, Note_off_c, 4, 45, 95
4, 302400, Note_on_c, 4, 71, 95
4, 302400, Note_on_c, 4, 67, 95
4, 302400, Note_on_c, 4, 64, 95
4, 302400, Note_on_c, 4, 59, 95
4, 302400, Note_on_c, 4, 52, 95
4, 303040, Note_off_c, 4, 71, 95
4, 303040, Note_off_c, 4, 67, 95
4, 303040, Note_off_c, 4, 64, 95
4, 303040, Note_off_c, 4, 59, 95
4, 303040, Note_off_c, 4, 52, 95
4, 303040, Note_on_c, 4, 71, 95
4, 303040, Note_on_c, 4, 67, 95
4, 303040, Note_on_c, 4, 64, 95
4, 303040, Note_on_c, 4, 59, 95
4, 303040, Note_on_c, 4, 52, 95
4, 303360, Note_off_c, 4, 71, 95
4, 303360, Note_off_c, 4, 67, 95
4, 303360, Note_off_c, 4, 64, 95
4, 303360, Note_off_c, 4, 59, 95
4, 303360, Note_off_c, 4, 52, 95
4, 303360, Note_on_c, 4, 64, 95
4, 303360, Note_on_c, 4, 59, 95
4, 303360, Note_on_c, 4, 55, 95
4, 303360, Note_on_c, 4, 50, 95
4, 303360, Note_on_c, 4, 45, 95
4, 303432, Note_off_c, 4, 64, 95
4, 303432, Note_off_c, 4, 59, 95
4, 303432, Note_off_c, 4, 55, 95
4, 303432, Note_off_c, 4, 50, 95
4, 303432, Note_off_c, 4, 45, 95
4, 304000, Note_on_c, 4, 64, 95
4, 304000, Note_on_c, 4, 59, 95
4, 304000, Note_on_c, 4, 55, 95
4, 304000, Note_on_c, 4, 50, 95
4, 304000, Note_on_c, 4, 45, 95
4, 304072, Note_off_c, 4, 64, 95
4, 304072, Note_off_c, 4, 59, 95
4, 304072, Note_off_c, 4, 55, 95
4, 304072, Note_off_c, 4, 50, 95
4, 304072, Note_off_c, 4, 45, 95
4, 304320, Note_on_c, 4, 71, 95
4, 304320, Note_on_c, 4, 67, 95
4, 304320, Note_on_c, 4, 62, 95
4, 304320, Note_on_c, 4, 55, 95
4, 304960, Note_off_c, 4, 71, 95
4, 304960, Note_off_c, 4, 67, 95
4, 304960, Note_off_c, 4, 62, 95
4, 304960, Note_off_c, 4, 55, 95
4, 304960, Note_on_c, 4, 71, 95
4, 304960, Note_on_c, 4, 67, 95
4, 304960, Note_on_c, 4, 62, 95
4, 304960, Note_on_c, 4, 55, 95
4, 305280, Note_off_c, 4, 71, 95
4, 305280, Note_off_c, 4, 67, 95
4, 305280, Note_off_c, 4, 62, 95
4, 305280, Note_off_c, 4, 55, 95
4, 305280, Note_on_c, 4, 64, 95
4, 305280, Note_on_c, 4, 59, 95
4, 305280, Note_on_c, 4, 55, 95
4, 305280, Note_on_c, 4, 50, 95
4, 305280, Note_on_c, 4, 45, 95
4, 305352, Note_off_c, 4, 64, 95
4, 305352, Note_off_c, 4, 59, 95
4, 305352, Note_off_c, 4, 55, 95
4, 305352, Note_off_c, 4, 50, 95
4, 305352, Note_off_c, 4, 45, 95
4, 305920, Note_on_c, 4, 64, 95
4, 305920, Note_on_c, 4, 59, 95
4, 305920, Note_on_c, 4, 55, 95
4, 305920, Note_on_c, 4, 50, 95
4, 305920, Note_on_c, 4, 45, 95
4, 305992, Note_off_c, 4, 64, 95
4, 305992, Note_off_c, 4, 59, 95
4, 305992, Note_off_c, 4, 55, 95
4, 305992, Note_off_c, 4, 50, 95
4, 305992, Note_off_c, 4, 45, 95
4, 306240, Note_on_c, 4, 71, 95
4, 306240, Note_on_c, 4, 67, 95
4, 306240, Note_on_c, 4, 62, 95
4, 306240, Note_on_c, 4, 55, 95
4, 306880, Note_off_c, 4, 71, 95
4, 306880, Note_off_c, 4, 67, 95
4, 306880, Note_off_c, 4, 62, 95
4, 306880, Note_off_c, 4, 55, 95
4, 306880, Note_on_c, 4, 71, 95
4, 306880, Note_on_c, 4, 67, 95
4, 306880, Note_on_c, 4, 62, 95
4, 306880, Note_on_c, 4, 55, 95
4, 307200, Note_off_c, 4, 71, 95
4, 307200, Note_off_c, 4, 67, 95
4, 307200, Note_off_c, 4, 62, 95
4, 307200, Note_off_c, 4, 55, 95
4, 307200, Note_on_c, 4, 64, 95
4, 307200, Note_on_c, 4, 59, 95
4, 307200, Note_on_c, 4, 55, 95
4, 307200, Note_on_c, 4, 50, 95
4, 307200, Note_on_c, 4, 45, 95
4, 307272, Note_off_c, 4, 64, 95
4, 307272, Note_off_c, 4, 59, 95
4, 307272, Note_off_c, 4, 55, 95
4, 307272, Note_off_c, 4, 50, 95
4, 307272, Note_off_c, 4, 45, 95
4, 307840, Note_on_c, 4, 64, 95
4, 307840, Note_on_c, 4, 59, 95
4, 307840, Note_on_c, 4, 55, 95
4, 307840, Note_on_c, 4, 50, 95
4, 307840, Note_on_c, 4, 45, 95
4, 307912, Note_off_c, 4, 64, 95
4, 307912, Note_off_c, 4, 59, 95
4, 307912, Note_off_c, 4, 55, 95
4, 307912, Note_off_c, 4, 50, 95
4, 307912, Note_off_c, 4, 45, 95
4, 308160, Note_on_c, 4, 71, 95
4, 308160, Note_on_c, 4, 68, 95
4, 308160, Note_on_c, 4, 64, 95
4, 308160, Note_on_c, 4, 59, 95
4, 308160, Note_on_c, 4, 52, 95
4, 308800, Note_off_c, 4, 71, 95
4, 308800, Note_off_c, 4, 68, 95
4, 308800, Note_off_c, 4, 64, 95
4, 308800, Note_off_c, 4, 59, 95
4, 308800, Note_off_c, 4, 52, 95
4, 308800, Note_on_c, 4, 71, 95
4, 308800, Note_on_c, 4, 68, 95
4, 308800, Note_on_c, 4, 64, 95
4, 308800, Note_on_c, 4, 59, 95
4, 308800, Note_on_c, 4, 52, 95
4, 309120, Note_off_c, 4, 71, 95
4, 309120, Note_off_c, 4, 68, 95
4, 309120, Note_off_c, 4, 64, 95
4, 309120, Note_off_c, 4, 59, 95
4, 309120, Note_off_c, 4, 52, 95
4, 309120, Note_on_c, 4, 64, 95
4, 309120, Note_on_c, 4, 59, 95
4, 309120, Note_on_c, 4, 55, 95
4, 309120, Note_on_c, 4, 50, 95
4, 309120, Note_on_c, 4, 45, 95
4, 309192, Note_off_c, 4, 64, 95
4, 309192, Note_off_c, 4, 59, 95
4, 309192, Note_off_c, 4, 55, 95
4, 309192, Note_off_c, 4, 50, 95
4, 309192, Note_off_c, 4, 45, 95
4, 309760, Note_on_c, 4, 64, 95
4, 309760, Note_on_c, 4, 59, 95
4, 309760, Note_on_c, 4, 55, 95
4, 309760, Note_on_c, 4, 50, 95
4, 309760, Note_on_c, 4, 45, 95
4, 309832, Note_off_c, 4, 64, 95
4, 309832, Note_off_c, 4, 59, 95
4, 309832, Note_off_c, 4, 55, 95
4, 309832, Note_off_c, 4, 50, 95
4, 309832, Note_off_c, 4, 45, 95
4, 310080, Note_on_c, 4, 71, 95
4, 310080, Note_on_c, 4, 68, 95
4, 310080, Note_on_c, 4, 64, 95
4, 310080, Note_on_c, 4, 59, 95
4, 310080, Note_on_c, 4, 52, 95
4, 310720, Note_off_c, 4, 71, 95
4, 310720, Note_off_c, 4, 68, 95
4, 310720, Note_off_c, 4, 64, 95
4, 310720, Note_off_c, 4, 59, 95
4, 310720, Note_off_c, 4, 52, 95
4, 310720, Note_on_c, 4, 71, 95
4, 310720, Note_on_c, 4, 68, 95
4, 310720, Note_on_c, 4, 64, 95
4, 310720, Note_on_c, 4, 59, 95
4, 310720, Note_on_c, 4, 52, 95
4, 311040, Note_off_c, 4, 71, 95
4, 311040, Note_off_c, 4, 68, 95
4, 311040, Note_off_c, 4, 64, 95
4, 311040, Note_off_c, 4, 59, 95
4, 311040, Note_off_c, 4, 52, 95
4, 311040, Note_on_c, 4, 64, 95
4, 311040, Note_on_c, 4, 59, 95
4, 311040, Note_on_c, 4, 55, 95
4, 311040, Note_on_c, 4, 50, 95
4, 311040, Note_on_c, 4, 45, 95
4, 311112, Note_off_c, 4, 64, 95
4, 311112, Note_off_c, 4, 59, 95
4, 311112, Note_off_c, 4, 55, 95
4, 311112, Note_off_c, 4, 50, 95
4, 311112, Note_off_c, 4, 45, 95
4, 311680, Note_on_c, 4, 64, 95
4, 311680, Note_on_c, 4, 59, 95
4, 311680, Note_on_c, 4, 55, 95
4, 311680, Note_on_c, 4, 50, 95
4, 311680, Note_on_c, 4, 45, 95
4, 311752, Note_off_c, 4, 64, 95
4, 311752, Note_off_c, 4, 59, 95
4, 311752, Note_off_c, 4, 55, 95
4, 311752, Note_off_c, 4, 50, 95
4, 311752, Note_off_c, 4, 45, 95
4, 312000, Note_on_c, 4, 71, 95
4, 312000, Note_on_c, 4, 67, 95
4, 312000, Note_on_c, 4, 64, 95
4, 312000, Note_on_c, 4, 59, 95
4, 312000, Note_on_c, 4, 52, 95
4, 312640, Note_off_c, 4, 71, 95
4, 312640, Note_off_c, 4, 67, 95
4, 312640, Note_off_c, 4, 64, 95
4, 312640, Note_off_c, 4, 59, 95
4, 312640, Note_off_c, 4, 52, 95
4, 312640, Note_on_c, 4, 71, 95
4, 312640, Note_on_c, 4, 67, 95
4, 312640, Note_on_c, 4, 64, 95
4, 312640, Note_on_c, 4, 59, 95
4, 312640, Note_on_c, 4, 52, 95
4, 312960, Note_off_c, 4, 71, 95
4, 312960, Note_off_c, 4, 67, 95
4, 312960, Note_off_c, 4, 64, 95
4, 312960, Note_off_c, 4, 59, 95
4, 312960, Note_off_c, 4, 52, 95
4, 312960, Note_on_c, 4, 64, 95
4, 312960, Note_on_c, 4, 59, 95
4, 312960, Note_on_c, 4, 55, 95
4, 312960, Note_on_c, 4, 50, 95
4, 312960, Note_on_c, 4, 45, 95
4, 313032, Note_off_c, 4, 64, 95
4, 313032, Note_off_c, 4, 59, 95
4, 313032, Note_off_c, 4, 55, 95
4, 313032, Note_off_c, 4, 50, 95
4, 313032, Note_off_c, 4, 45, 95
4, 313600, Note_on_c, 4, 64, 95
4, 313600, Note_on_c, 4, 59, 95
4, 313600, Note_on_c, 4, 55, 95
4, 313600, Note_on_c, 4, 50, 95
4, 313600, Note_on_c, 4, 45, 95
4, 313672, Note_off_c, 4, 64, 95
4, 313672, Note_off_c, 4, 59, 95
4, 313672, Note_off_c, 4, 55, 95
4, 313672, Note_off_c, 4, 50, 95
4, 313672, Note_off_c, 4, 45, 95
4, 313920, Note_on_c, 4, 71, 95
4, 313920, Note_on_c, 4, 67, 95
4, 313920, Note_on_c, 4, 64, 95
4, 313920, Note_on_c, 4, 59, 95
4, 313920, Note_on_c, 4, 52, 95
4, 314560, Note_off_c, 4, 71, 95
4, 314560, Note_off_c, 4, 67, 95
4, 314560, Note_off_c, 4, 64, 95
4, 314560, Note_off_c, 4, 59, 95
4, 314560, Note_off_c, 4, 52, 95
4, 314560, Note_on_c, 4, 71, 95
4, 314560, Note_on_c, 4, 67, 95
4, 314560, Note_on_c, 4, 64, 95
4, 314560, Note_on_c, 4, 59, 95
4, 314560, Note_on_c, 4, 52, 95
4, 314880, Note_off_c, 4, 71, 95
4, 314880, Note_off_c, 4, 67, 95
4, 314880, Note_off_c, 4, 64, 95
4, 314880, Note_off_c, 4, 59, 95
4, 314880, Note_off_c, 4, 52, 95
4, 322560, Note_on_c, 4, 64, 95
4, 322560, Note_on_c, 4, 59, 95
4, 322560, Note_on_c, 4, 55, 95
4, 322560, Note_on_c, 4, 50, 95
4, 322560, Note_on_c, 4, 45, 95
4, 322632, Note_off_c, 4, 64, 95
4, 322632, Note_off_c, 4, 59, 95
4, 322632, Note_off_c, 4, 55, 95
4, 322632, Note_off_c, 4, 50, 95
4, 322632, Note_off_c, 4, 45, 95
4, 323200, Note_on_c, 4, 64, 95
4, 323200, Note_on_c, 4, 59, 95
4, 323200, Note_on_c, 4, 55, 95
4, 323200, Note_on_c, 4, 50, 95
4, 323200, Note_on_c, 4, 45, 95
4, 323272, Note_off_c, 4, 64, 95
4, 323272, Note_off_c, 4, 59, 95
4, 323272, Note_off_c, 4, 55, 95
4, 323272, Note_off_c, 4, 50, 95
4, 323272, Note_off_c, 4, 45, 95
4, 323520, Note_on_c, 4, 71, 95
4, 323520, Note_on_c, 4, 67, 95
4, 323520, Note_on_c, 4, 64, 95
4, 323520, Note_on_c, 4, 59, 95
4, 323520, Note_on_c, 4, 52, 95
4, 324160, Note_off_c, 4, 71, 95
4, 324160, Note_off_c, 4, 67, 95
4, 324160, Note_off_c, 4, 64, 95
4, 324160, Note_off_c, 4, 59, 95
4, 324160, Note_off_c, 4, 52, 95
4, 324160, Note_on_c, 4, 71, 95
4, 324160, Note_on_c, 4, 67, 95
4, 324160, Note_on_c, 4, 64, 95
4, 324160, Note_on_c, 4, 59, 95
4, 324160, Note_on_c, 4, 52, 95
4, 324480, Note_off_c, 4, 71, 95
4, 324480, Note_off_c, 4, 67, 95
4, 324480, Note_off_c, 4, 64, 95
4, 324480, Note_off_c, 4, 59, 95
4, 324480, Note_off_c, 4, 52, 95
4, 324480, Note_on_c, 4, 64, 95
4, 324480, Note_on_c, 4, 59, 95
4, 324480, Note_on_c, 4, 55, 95
4, 324480, Note_on_c, 4, 50, 95
4, 324480, Note_on_c, 4, 45, 95
4, 324552, Note_off_c, 4, 64, 95
4, 324552, Note_off_c, 4, 59, 95
4, 324552, Note_off_c, 4, 55, 95
4, 324552, Note_off_c, 4, 50, 95
4, 324552, Note_off_c, 4, 45, 95
4, 325120, Note_on_c, 4, 64, 95
4, 325120, Note_on_c, 4, 59, 95
4, 325120, Note_on_c, 4, 55, 95
4, 325120, Note_on_c, 4, 50, 95
4, 325120, Note_on_c, 4, 45, 95
4, 325192, Note_off_c, 4, 64, 95
4, 325192, Note_off_c, 4, 59, 95
4, 325192, Note_off_c, 4, 55, 95
4, 325192, Note_off_c, 4, 50, 95
4, 325192, Note_off_c, 4, 45, 95
4, 325440, Note_on_c, 4, 71, 95
4, 325440, Note_on_c, 4, 67, 95
4, 325440, Note_on_c, 4, 64, 95
4, 325440, Note_on_c, 4, 59, 95
4, 325440, Note_on_c, 4, 52, 95
4, 326400, Note_off_c, 4, 71, 95
4, 326400, Note_off_c, 4, 67, 95
4, 326400, Note_off_c, 4, 64, 95
4, 326400, Note_off_c, 4, 59, 95
4, 326400, Note_off_c, 4, 52, 95
4, 326400, Note_on_c, 4, 66, 95
4, 326400, Note_on_c, 4, 62, 95
4, 326400, Note_on_c, 4, 57, 95
4, 326400, Note_on_c, 4, 50, 95
4, 327040, Note_off_c, 4, 66, 95
4, 327040, Note_off_c, 4, 62, 95
4, 327040, Note_off_c, 4, 57, 95
4, 327040, Note_off_c, 4, 50, 95
4, 327040, Note_on_c, 4, 66, 95
4, 327040, Note_on_c, 4, 62, 95
4, 327040, Note_on_c, 4, 57, 95
4, 327040, Note_on_c, 4, 50, 95
4, 327360, Note_off_c, 4, 66, 95
4, 327360, Note_off_c, 4, 62, 95
4, 327360, Note_off_c, 4, 57, 95
4, 327360, Note_off_c, 4, 50, 95
4, 327360, Note_on_c, 4, 66, 95
4, 327360, Note_on_c, 4, 62, 95
4, 327360, Note_on_c, 4, 57, 95
4, 327360, Note_on_c, 4, 50, 95
4, 328000, Note_off_c, 4, 66, 95
4, 328000, Note_off_c, 4, 62, 95
4, 328000, Note_off_c, 4, 57, 95
4, 328000, Note_off_c, 4, 50, 95
4, 328000, Note_on_c, 4, 66, 95
4, 328000, Note_on_c, 4, 62, 95
4, 328000, Note_on_c, 4, 57, 95
4, 328000, Note_on_c, 4, 50, 95
4, 328320, Note_off_c, 4, 66, 95
4, 328320, Note_off_c, 4, 62, 95
4, 328320, Note_off_c, 4, 57, 95
4, 328320, Note_off_c, 4, 50, 95
4, 328320, Note_on_c, 4, 66, 95
4, 328320, Note_on_c, 4, 62, 95
4, 328320, Note_on_c, 4, 57, 95
4, 328320, Note_on_c, 4, 50, 95
4, 329280, Note_off_c, 4, 66, 95
4, 329280, Note_off_c, 4, 62, 95
4, 329280, Note_off_c, 4, 57, 95
4, 329280, Note_off_c, 4, 50, 95
4, 329280, Note_on_c, 4, 66, 95
4, 329280, Note_on_c, 4, 62, 95
4, 329280, Note_on_c, 4, 57, 95
4, 329280, Note_on_c, 4, 50, 95
4, 329920, Note_off_c, 4, 66, 95
4, 329920, Note_off_c, 4, 62, 95
4, 329920, Note_off_c, 4, 57, 95
4, 329920, Note_off_c, 4, 50, 95
4, 329920, Note_on_c, 4, 66, 95
4, 329920, Note_on_c, 4, 62, 95
4, 329920, Note_on_c, 4, 57, 95
4, 329920, Note_on_c, 4, 50, 95
4, 330720, Note_off_c, 4, 66, 95
4, 330720, Note_off_c, 4, 62, 95
4, 330720, Note_off_c, 4, 57, 95
4, 330720, Note_off_c, 4, 50, 95
4, 330880, Note_on_c, 4, 66, 95
4, 330880, Note_on_c, 4, 62, 95
4, 330880, Note_on_c, 4, 57, 95
4, 330880, Note_on_c, 4, 50, 95
4, 331200, Note_off_c, 4, 66, 95
4, 331200, Note_off_c, 4, 62, 95
4, 331200, Note_off_c, 4, 57, 95
4, 331200, Note_off_c, 4, 50, 95
4, 331200, Note_on_c, 4, 66, 95
4, 331200, Note_on_c, 4, 62, 95
4, 331200, Note_on_c, 4, 57, 95
4, 331200, Note_on_c, 4, 50, 95
4, 332160, Note_off_c, 4, 66, 95
4, 332160, Note_off_c, 4, 62, 95
4, 332160, Note_off_c, 4, 57, 95
4, 332160, Note_off_c, 4, 50, 95
4, 332160, Note_on_c, 4, 66, 95
4, 332160, Note_on_c, 4, 62, 95
4, 332160, Note_on_c, 4, 57, 95
4, 332160, Note_on_c, 4, 50, 95
4, 333120, Note_off_c, 4, 66, 95
4, 333120, Note_off_c, 4, 62, 95
4, 333120, Note_off_c, 4, 57, 95
4, 333120, Note_off_c, 4, 50, 95
4, 333120, Note_on_c, 4, 66, 95
4, 333120, Note_on_c, 4, 62, 95
4, 333120, Note_on_c, 4, 57, 95
4, 333120, Note_on_c, 4, 50, 95
4, 334080, Note_off_c, 4, 66, 95
4, 334080, Note_off_c, 4, 62, 95
4, 334080, Note_off_c, 4, 57, 95
4, 334080, Note_off_c, 4, 50, 95
4, 334080, Note_on_c, 4, 71, 95
4, 334080, Note_on_c, 4, 67, 95
4, 334080, Note_on_c, 4, 64, 95
4, 334080, Note_on_c, 4, 59, 95
4, 334080, Note_on_c, 4, 52, 95
4, 335040, Note_off_c, 4, 71, 95
4, 335040, Note_off_c, 4, 67, 95
4, 335040, Note_off_c, 4, 64, 95
4, 335040, Note_off_c, 4, 59, 95
4, 335040, Note_off_c, 4, 52, 95
4, 335040, Note_on_c, 4, 71, 95
4, 335040, Note_on_c, 4, 67, 95
4, 335040, Note_on_c, 4, 64, 95
4, 335040, Note_on_c, 4, 59, 95
4, 335040, Note_on_c, 4, 52, 95
4, 336000, Note_off_c, 4, 71, 95
4, 336000, Note_off_c, 4, 67, 95
4, 336000, Note_off_c, 4, 64, 95
4, 336000, Note_off_c, 4, 59, 95
4, 336000, Note_off_c, 4, 52, 95
4, 336000, Note_on_c, 4, 71, 95
4, 336000, Note_on_c, 4, 67, 95
4, 336000, Note_on_c, 4, 64, 95
4, 336000, Note_on_c, 4, 59, 95
4, 336000, Note_on_c, 4, 52, 95
4, 336960, Note_off_c, 4, 71, 95
4, 336960, Note_off_c, 4, 67, 95
4, 336960, Note_off_c, 4, 64, 95
4, 336960, Note_off_c, 4, 59, 95
4, 336960, Note_off_c, 4, 52, 95
4, 336960, Note_on_c, 4, 71, 95
4, 336960, Note_on_c, 4, 67, 95
4, 336960, Note_on_c, 4, 64, 95
4, 336960, Note_on_c, 4, 59, 95
4, 336960, Note_on_c, 4, 52, 95
4, 337920, Note_off_c, 4, 71, 95
4, 337920, Note_off_c, 4, 67, 95
4, 337920, Note_off_c, 4, 64, 95
4, 337920, Note_off_c, 4, 59, 95
4, 337920, Note_off_c, 4, 52, 95
4, 337920, Note_on_c, 4, 71, 95
4, 337920, Note_on_c, 4, 69, 95
4, 337920, Note_on_c, 4, 65, 95
4, 337920, Note_on_c, 4, 60, 95
4, 337920, Note_on_c, 4, 52, 95
4, 338880, Note_off_c, 4, 71, 95
4, 338880, Note_off_c, 4, 69, 95
4, 338880, Note_off_c, 4, 65, 95
4, 338880, Note_off_c, 4, 60, 95
4, 338880, Note_off_c, 4, 52, 95
4, 338880, Note_on_c, 4, 71, 95
4, 338880, Note_on_c, 4, 69, 95
4, 338880, Note_on_c, 4, 65, 95
4, 338880, Note_on_c, 4, 60, 95
4, 338880, Note_on_c, 4, 52, 95
4, 339840, Note_off_c, 4, 71, 95
4, 339840, Note_off_c, 4, 69, 95
4, 339840, Note_off_c, 4, 65, 95
4, 339840, Note_off_c, 4, 60, 95
4, 339840, Note_off_c, 4, 52, 95
4, 339840, Note_on_c, 4, 71, 95
4, 339840, Note_on_c, 4, 69, 95
4, 339840, Note_on_c, 4, 65, 95
4, 339840, Note_on_c, 4, 60, 95
4, 339840, Note_on_c, 4, 52, 95
4, 340800, Note_off_c, 4, 71, 95
4, 340800, Note_off_c, 4, 69, 95
4, 340800, Note_off_c, 4, 65, 95
4, 340800, Note_off_c, 4, 60, 95
4, 340800, Note_off_c, 4, 52, 95
4, 340800, Note_on_c, 4, 71, 95
4, 340800, Note_on_c, 4, 69, 95
4, 340800, Note_on_c, 4, 65, 95
4, 340800, Note_on_c, 4, 60, 95
4, 340800, Note_on_c, 4, 52, 95
4, 341760, Note_off_c, 4, 71, 95
4, 341760, Note_off_c, 4, 69, 95
4, 341760, Note_off_c, 4, 65, 95
4, 341760, Note_off_c, 4, 60, 95
4, 341760, Note_off_c, 4, 52, 95
4, 341760, Note_on_c, 4, 71, 95
4, 341760, Note_on_c, 4, 67, 95
4, 341760, Note_on_c, 4, 64, 95
4, 341760, Note_on_c, 4, 59, 95
4, 341760, Note_on_c, 4, 52, 95
4, 342720, Note_off_c, 4, 71, 95
4, 342720, Note_off_c, 4, 67, 95
4, 342720, Note_off_c, 4, 64, 95
4, 342720, Note_off_c, 4, 59, 95
4, 342720, Note_off_c, 4, 52, 95
4, 342720, Note_on_c, 4, 71, 95
4, 342720, Note_on_c, 4, 67, 95
4, 342720, Note_on_c, 4, 64, 95
4, 342720, Note_on_c, 4, 59, 95
4, 342720, Note_on_c, 4, 52, 95
4, 343680, Note_off_c, 4, 71, 95
4, 343680, Note_off_c, 4, 67, 95
4, 343680, Note_off_c, 4, 64, 95
4, 343680, Note_off_c, 4, 59, 95
4, 343680, Note_off_c, 4, 52, 95
4, 343680, Note_on_c, 4, 71, 95
4, 343680, Note_on_c, 4, 67, 95
4, 343680, Note_on_c, 4, 64, 95
4, 343680, Note_on_c, 4, 59, 95
4, 343680, Note_on_c, 4, 52, 95
4, 344640, Note_off_c, 4, 71, 95
4, 344640, Note_off_c, 4, 67, 95
4, 344640, Note_off_c, 4, 64, 95
4, 344640, Note_off_c, 4, 59, 95
4, 344640, Note_off_c, 4, 52, 95
4, 344640, Note_on_c, 4, 71, 95
4, 344640, Note_on_c, 4, 67, 95
4, 344640, Note_on_c, 4, 64, 95
4, 344640, Note_on_c, 4, 59, 95
4, 344640, Note_on_c, 4, 52, 95
4, 345600, Note_off_c, 4, 71, 95
4, 345600, Note_off_c, 4, 67, 95
4, 345600, Note_off_c, 4, 64, 95
4, 345600, Note_off_c, 4, 59, 95
4, 345600, Note_off_c, 4, 52, 95
4, 345600, Note_on_c, 4, 71, 95
4, 345600, Note_on_c, 4, 69, 95
4, 345600, Note_on_c, 4, 65, 95
4, 345600, Note_on_c, 4, 60, 95
4, 345600, Note_on_c, 4, 52, 95
4, 346560, Note_off_c, 4, 71, 95
4, 346560, Note_off_c, 4, 69, 95
4, 346560, Note_off_c, 4, 65, 95
4, 346560, Note_off_c, 4, 60, 95
4, 346560, Note_off_c, 4, 52, 95
4, 346560, Note_on_c, 4, 71, 95
4, 346560, Note_on_c, 4, 69, 95
4, 346560, Note_on_c, 4, 65, 95
4, 346560, Note_on_c, 4, 60, 95
4, 346560, Note_on_c, 4, 52, 95
4, 347520, Note_off_c, 4, 71, 95
4, 347520, Note_off_c, 4, 69, 95
4, 347520, Note_off_c, 4, 65, 95
4, 347520, Note_off_c, 4, 60, 95
4, 347520, Note_off_c, 4, 52, 95
4, 347520, Note_on_c, 4, 71, 95
4, 347520, Note_on_c, 4, 69, 95
4, 347520, Note_on_c, 4, 65, 95
4, 347520, Note_on_c, 4, 60, 95
4, 347520, Note_on_c, 4, 52, 95
4, 348480, Note_off_c, 4, 71, 95
4, 348480, Note_off_c, 4, 69, 95
4, 348480, Note_off_c, 4, 65, 95
4, 348480, Note_off_c, 4, 60, 95
4, 348480, Note_off_c, 4, 52, 95
4, 348480, Note_on_c, 4, 71, 95
4, 348480, Note_on_c, 4, 69, 95
4, 348480, Note_on_c, 4, 65, 95
4, 348480, Note_on_c, 4, 60, 95
4, 348480, Note_on_c, 4, 52, 95
4, 349440, Note_off_c, 4, 71, 95
4, 349440, Note_off_c, 4, 69, 95
4, 349440, Note_off_c, 4, 65, 95
4, 349440, Note_off_c, 4, 60, 95
4, 349440, Note_off_c, 4, 52, 95
4, 364800, Note_on_c, 4, 71, 95
4, 364800, Note_on_c, 4, 67, 95
4, 364800, Note_on_c, 4, 64, 95
4, 364800, Note_on_c, 4, 59, 95
4, 364800, Note_on_c, 4, 52, 95
4, 365760, Note_off_c, 4, 71, 95
4, 365760, Note_off_c, 4, 67, 95
4, 365760, Note_off_c, 4, 64, 95
4, 365760, Note_off_c, 4, 59, 95
4, 365760, Note_off_c, 4, 52, 95
4, 365760, Note_on_c, 4, 71, 95
4, 365760, Note_on_c, 4, 67, 95
4, 365760, Note_on_c, 4, 64, 95
4, 365760, Note_on_c, 4, 59, 95
4, 365760, Note_on_c, 4, 52, 95
4, 366720, Note_off_c, 4, 71, 95
4, 366720, Note_off_c, 4, 67, 95
4, 366720, Note_off_c, 4, 64, 95
4, 366720, Note_off_c, 4, 59, 95
4, 366720, Note_off_c, 4, 52, 95
4, 366720, Note_on_c, 4, 71, 95
4, 366720, Note_on_c, 4, 67, 95
4, 366720, Note_on_c, 4, 64, 95
4, 366720, Note_on_c, 4, 59, 95
4, 366720, Note_on_c, 4, 52, 95
4, 367680, Note_off_c, 4, 71, 95
4, 367680, Note_off_c, 4, 67, 95
4, 367680, Note_off_c, 4, 64, 95
4, 367680, Note_off_c, 4, 59, 95
4, 367680, Note_off_c, 4, 52, 95
4, 367680, Note_on_c, 4, 71, 95
4, 367680, Note_on_c, 4, 67, 95
4, 367680, Note_on_c, 4, 64, 95
4, 367680, Note_on_c, 4, 59, 95
4, 367680, Note_on_c, 4, 52, 95
4, 368640, Note_off_c, 4, 71, 95
4, 368640, Note_off_c, 4, 67, 95
4, 368640, Note_off_c, 4, 64, 95
4, 368640, Note_off_c, 4, 59, 95
4, 368640, Note_off_c, 4, 52, 95
4, 368640, Note_on_c, 4, 71, 95
4, 368640, Note_on_c, 4, 69, 95
4, 368640, Note_on_c, 4, 65, 95
4, 368640, Note_on_c, 4, 60, 95
4, 368640, Note_on_c, 4, 52, 95
4, 369600, Note_off_c, 4, 71, 95
4, 369600, Note_off_c, 4, 69, 95
4, 369600, Note_off_c, 4, 65, 95
4, 369600, Note_off_c, 4, 60, 95
4, 369600, Note_off_c, 4, 52, 95
4, 369600, Note_on_c, 4, 71, 95
4, 369600, Note_on_c, 4, 69, 95
4, 369600, Note_on_c, 4, 65, 95
4, 369600, Note_on_c, 4, 60, 95
4, 369600, Note_on_c, 4, 52, 95
4, 370560, Note_off_c, 4, 71, 95
4, 370560, Note_off_c, 4, 69, 95
4, 370560, Note_off_c, 4, 65, 95
4, 370560, Note_off_c, 4, 60, 95
4, 370560, Note_off_c, 4, 52, 95
4, 370560, Note_on_c, 4, 71, 95
4, 370560, Note_on_c, 4, 69, 95
4, 370560, Note_on_c, 4, 65, 95
4, 370560, Note_on_c, 4, 60, 95
4, 370560, Note_on_c, 4, 52, 95
4, 371520, Note_off_c, 4, 71, 95
4, 371520, Note_off_c, 4, 69, 95
4, 371520, Note_off_c, 4, 65, 95
4, 371520, Note_off_c, 4, 60, 95
4, 371520, Note_off_c, 4, 52, 95
4, 371520, Note_on_c, 4, 71, 95
4, 371520, Note_on_c, 4, 69, 95
4, 371520, Note_on_c, 4, 65, 95
4, 371520, Note_on_c, 4, 60, 95
4, 371520, Note_on_c, 4, 52, 95
4, 372480, Note_off_c, 4, 71, 95
4, 372480, Note_off_c, 4, 69, 95
4, 372480, Note_off_c, 4, 65, 95
4, 372480, Note_off_c, 4, 60, 95
4, 372480, Note_off_c, 4, 52, 95
4, 372480, Note_on_c, 4, 71, 95
4, 372480, Note_on_c, 4, 67, 95
4, 372480, Note_on_c, 4, 64, 95
4, 372480, Note_on_c, 4, 59, 95
4, 372480, Note_on_c, 4, 52, 95
4, 373440, Note_off_c, 4, 71, 95
4, 373440, Note_off_c, 4, 67, 95
4, 373440, Note_off_c, 4, 64, 95
4, 373440, Note_off_c, 4, 59, 95
4, 373440, Note_off_c, 4, 52, 95
4, 373440, Note_on_c, 4, 71, 95
4, 373440, Note_on_c, 4, 67, 95
4, 373440, Note_on_c, 4, 64, 95
4, 373440, Note_on_c, 4, 59, 95
4, 373440, Note_on_c, 4, 52, 95
4, 374400, Note_off_c, 4, 71, 95
4, 374400, Note_off_c, 4, 67, 95
4, 374400, Note_off_c, 4, 64, 95
4, 374400, Note_off_c, 4, 59, 95
4, 374400, Note_off_c, 4, 52, 95
4, 374400, Note_on_c, 4, 71, 95
4, 374400, Note_on_c, 4, 67, 95
4, 374400, Note_on_c, 4, 64, 95
4, 374400, Note_on_c, 4, 59, 95
4, 374400, Note_on_c, 4, 52, 95
4, 375360, Note_off_c, 4, 71, 95
4, 375360, Note_off_c, 4, 67, 95
4, 375360, Note_off_c, 4, 64, 95
4, 375360, Note_off_c, 4, 59, 95
4, 375360, Note_off_c, 4, 52, 95
4, 375360, Note_on_c, 4, 71, 95
4, 375360, Note_on_c, 4, 67, 95
4, 375360, Note_on_c, 4, 64, 95
4, 375360, Note_on_c, 4, 59, 95
4, 375360, Note_on_c, 4, 52, 95
4, 376320, Note_off_c, 4, 71, 95
4, 376320, Note_off_c, 4, 67, 95
4, 376320, Note_off_c, 4, 64, 95
4, 376320, Note_off_c, 4, 59, 95
4, 376320, Note_off_c, 4, 52, 95
4, 376320, Note_on_c, 4, 71, 95
4, 376320, Note_on_c, 4, 69, 95
4, 376320, Note_on_c, 4, 65, 95
4, 376320, Note_on_c, 4, 60, 95
4, 376320, Note_on_c, 4, 52, 95
4, 377280, Note_off_c, 4, 71, 95
4, 377280, Note_off_c, 4, 69, 95
4, 377280, Note_off_c, 4, 65, 95
4, 377280, Note_off_c, 4, 60, 95
4, 377280, Note_off_c, 4, 52, 95
4, 377280, Note_on_c, 4, 71, 95
4, 377280, Note_on_c, 4, 69, 95
4, 377280, Note_on_c, 4, 65, 95
4, 377280, Note_on_c, 4, 60, 95
4, 377280, Note_on_c, 4, 52, 95
4, 378240, Note_off_c, 4, 71, 95
4, 378240, Note_off_c, 4, 69, 95
4, 378240, Note_off_c, 4, 65, 95
4, 378240, Note_off_c, 4, 60, 95
4, 378240, Note_off_c, 4, 52, 95
4, 378240, Note_on_c, 4, 71, 95
4, 378240, Note_on_c, 4, 69, 95
4, 378240, Note_on_c, 4, 65, 95
4, 378240, Note_on_c, 4, 60, 95
4, 378240, Note_on_c, 4, 52, 95
4, 379200, Note_off_c, 4, 71, 95
4, 379200, Note_off_c, 4, 69, 95
4, 379200, Note_off_c, 4, 65, 95
4, 379200, Note_off_c, 4, 60, 95
4, 379200, Note_off_c, 4, 52, 95
4, 379200, Note_on_c, 4, 71, 95
4, 379200, Note_on_c, 4, 69, 95
4, 379200, Note_on_c, 4, 65, 95
4, 379200, Note_on_c, 4, 60, 95
4, 379200, Note_on_c, 4, 52, 95
4, 380160, Note_off_c, 4, 71, 95
4, 380160, Note_off_c, 4, 69, 95
4, 380160, Note_off_c, 4, 65, 95
4, 380160, Note_off_c, 4, 60, 95
4, 380160, Note_off_c, 4, 52, 95
4, 380160, Note_on_c, 4, 71, 95
4, 380160, Note_on_c, 4, 67, 95
4, 380160, Note_on_c, 4, 64, 95
4, 380160, Note_on_c, 4, 59, 95
4, 380160, Note_on_c, 4, 52, 95
4, 381120, Note_off_c, 4, 71, 95
4, 381120, Note_off_c, 4, 67, 95
4, 381120, Note_off_c, 4, 64, 95
4, 381120, Note_off_c, 4, 59, 95
4, 381120, Note_off_c, 4, 52, 95
4, 381120, Note_on_c, 4, 71, 95
4, 381120, Note_on_c, 4, 67, 95
4, 381120, Note_on_c, 4, 64, 95
4, 381120, Note_on_c, 4, 59, 95
4, 381120, Note_on_c, 4, 52, 95
4, 382080, Note_off_c, 4, 71, 95
4, 382080, Note_off_c, 4, 67, 95
4, 382080, Note_off_c, 4, 64, 95
4, 382080, Note_off_c, 4, 59, 95
4, 382080, Note_off_c, 4, 52, 95
4, 382080, Note_on_c, 4, 71, 95
4, 382080, Note_on_c, 4, 67, 95
4, 382080, Note_on_c, 4, 64, 95
4, 382080, Note_on_c, 4, 59, 95
4, 382080, Note_on_c, 4, 52, 95
4, 383040, Note_off_c, 4, 71, 95
4, 383040, Note_off_c, 4, 67, 95
4, 383040, Note_off_c, 4, 64, 95
4, 383040, Note_off_c, 4, 59, 95
4, 383040, Note_off_c, 4, 52, 95
4, 383040, Note_on_c, 4, 71, 95
4, 383040, Note_on_c, 4, 67, 95
4, 383040, Note_on_c, 4, 64, 95
4, 383040, Note_on_c, 4, 59, 95
4, 383040, Note_on_c, 4, 52, 95
4, 384000, Note_off_c, 4, 71, 95
4, 384000, Note_off_c, 4, 67, 95
4, 384000, Note_off_c, 4, 64, 95
4, 384000, Note_off_c, 4, 59, 95
4, 384000, Note_off_c, 4, 52, 95
4, 384000, Note_on_c, 4, 71, 95
4, 384000, Note_on_c, 4, 69, 95
4, 384000, Note_on_c, 4, 65, 95
4, 384000, Note_on_c, 4, 60, 95
4, 384000, Note_on_c, 4, 52, 95
4, 384960, Note_off_c, 4, 71, 95
4, 384960, Note_off_c, 4, 69, 95
4, 384960, Note_off_c, 4, 65, 95
4, 384960, Note_off_c, 4, 60, 95
4, 384960, Note_off_c, 4, 52, 95
4, 384960, Note_on_c, 4, 71, 95
4, 384960, Note_on_c, 4, 69, 95
4, 384960, Note_on_c, 4, 65, 95
4, 384960, Note_on_c, 4, 60, 95
4, 384960, Note_on_c, 4, 52, 95
4, 385920, Note_off_c, 4, 71, 95
4, 385920, Note_off_c, 4, 69, 95
4, 385920, Note_off_c, 4, 65, 95
4, 385920, Note_off_c, 4, 60, 95
4, 385920, Note_off_c, 4, 52, 95
4, 385920, Note_on_c, 4, 71, 95
4, 385920, Note_on_c, 4, 69, 95
4, 385920, Note_on_c, 4, 65, 95
4, 385920, Note_on_c, 4, 60, 95
4, 385920, Note_on_c, 4, 52, 95
4, 386880, Note_off_c, 4, 71, 95
4, 386880, Note_off_c, 4, 69, 95
4, 386880, Note_off_c, 4, 65, 95
4, 386880, Note_off_c, 4, 60, 95
4, 386880, Note_off_c, 4, 52, 95
4, 386880, Note_on_c, 4, 71, 95
4, 386880, Note_on_c, 4, 69, 95
4, 386880, Note_on_c, 4, 65, 95
4, 386880, Note_on_c, 4, 60, 95
4, 386880, Note_on_c, 4, 52, 95
4, 387840, Note_off_c, 4, 71, 95
4, 387840, Note_off_c, 4, 69, 95
4, 387840, Note_off_c, 4, 65, 95
4, 387840, Note_off_c, 4, 60, 95
4, 387840, Note_off_c, 4, 52, 95
4, 387840, Note_on_c, 4, 71, 95
4, 387840, Note_on_c, 4, 67, 95
4, 387840, Note_on_c, 4, 64, 95
4, 387840, Note_on_c, 4, 59, 95
4, 387840, Note_on_c, 4, 52, 95
4, 388800, Note_off_c, 4, 71, 95
4, 388800, Note_off_c, 4, 67, 95
4, 388800, Note_off_c, 4, 64, 95
4, 388800, Note_off_c, 4, 59, 95
4, 388800, Note_off_c, 4, 52, 95
4, 388800, Note_on_c, 4, 71, 95
4, 388800, Note_on_c, 4, 67, 95
4, 388800, Note_on_c, 4, 64, 95
4, 388800, Note_on_c, 4, 59, 95
4, 388800, Note_on_c, 4, 52, 95
4, 389760, Note_off_c, 4, 71, 95
4, 389760, Note_off_c, 4, 67, 95
4, 389760, Note_off_c, 4, 64, 95
4, 389760, Note_off_c, 4, 59, 95
4, 389760, Note_off_c, 4, 52, 95
4, 389760, Note_on_c, 4, 71, 95
4, 389760, Note_on_c, 4, 67, 95
4, 389760, Note_on_c, 4, 64, 95
4, 389760, Note_on_c, 4, 59, 95
4, 389760, Note_on_c, 4, 52, 95
4, 390720, Note_off_c, 4, 71, 95
4, 390720, Note_off_c, 4, 67, 95
4, 390720, Note_off_c, 4, 64, 95
4, 390720, Note_off_c, 4, 59, 95
4, 390720, Note_off_c, 4, 52, 95
4, 390720, Note_on_c, 4, 71, 95
4, 390720, Note_on_c, 4, 67, 95
4, 390720, Note_on_c, 4, 64, 95
4, 390720, Note_on_c, 4, 59, 95
4, 390720, Note_on_c, 4, 52, 95
4, 391680, Note_off_c, 4, 71, 95
4, 391680, Note_off_c, 4, 67, 95
4, 391680, Note_off_c, 4, 64, 95
4, 391680, Note_off_c, 4, 59, 95
4, 391680, Note_off_c, 4, 52, 95
4, 391680, Note_on_c, 4, 71, 95
4, 391680, Note_on_c, 4, 69, 95
4, 391680, Note_on_c, 4, 65, 95
4, 391680, Note_on_c, 4, 60, 95
4, 391680, Note_on_c, 4, 52, 95
4, 392640, Note_off_c, 4, 71, 95
4, 392640, Note_off_c, 4, 69, 95
4, 392640, Note_off_c, 4, 65, 95
4, 392640, Note_off_c, 4, 60, 95
4, 392640, Note_off_c, 4, 52, 95
4, 392640, Note_on_c, 4, 71, 95
4, 392640, Note_on_c, 4, 69, 95
4, 392640, Note_on_c, 4, 65, 95
4, 392640, Note_on_c, 4, 60, 95
4, 392640, Note_on_c, 4, 52, 95
4, 393600, Note_off_c, 4, 71, 95
4, 393600, Note_off_c, 4, 69, 95
4, 393600, Note_off_c, 4, 65, 95
4, 393600, Note_off_c, 4, 60, 95
4, 393600, Note_off_c, 4, 52, 95
4, 393600, Note_on_c, 4, 71, 95
4, 393600, Note_on_c, 4, 69, 95
4, 393600, Note_on_c, 4, 65, 95
4, 393600, Note_on_c, 4, 60, 95
4, 393600, Note_on_c, 4, 52, 95
4, 394560, Note_off_c, 4, 71, 95
4, 394560, Note_off_c, 4, 69, 95
4, 394560, Note_off_c, 4, 65, 95
4, 394560, Note_off_c, 4, 60, 95
4, 394560, Note_off_c, 4, 52, 95
4, 394560, Note_on_c, 4, 71, 95
4, 394560, Note_on_c, 4, 69, 95
4, 394560, Note_on_c, 4, 65, 95
4, 394560, Note_on_c, 4, 60, 95
4, 394560, Note_on_c, 4, 52, 95
4, 395520, Note_off_c, 4, 71, 95
4, 395520, Note_off_c, 4, 69, 95
4, 395520, Note_off_c, 4, 65, 95
4, 395520, Note_off_c, 4, 60, 95
4, 395520, Note_off_c, 4, 52, 95
4, 395520, Note_on_c, 4, 71, 95
4, 395520, Note_on_c, 4, 67, 95
4, 395520, Note_on_c, 4, 64, 95
4, 395520, Note_on_c, 4, 59, 95
4, 395520, Note_on_c, 4, 52, 95
4, 396480, Note_off_c, 4, 71, 95
4, 396480, Note_off_c, 4, 67, 95
4, 396480, Note_off_c, 4, 64, 95
4, 396480, Note_off_c, 4, 59, 95
4, 396480, Note_off_c, 4, 52, 95
4, 396480, Note_on_c, 4, 71, 95
4, 396480, Note_on_c, 4, 67, 95
4, 396480, Note_on_c, 4, 64, 95
4, 396480, Note_on_c, 4, 59, 95
4, 396480, Note_on_c, 4, 52, 95
4, 397440, Note_off_c, 4, 71, 95
4, 397440, Note_off_c, 4, 67, 95
4, 397440, Note_off_c, 4, 64, 95
4, 397440, Note_off_c, 4, 59, 95
4, 397440, Note_off_c, 4, 52, 95
4, 397440, Note_on_c, 4, 71, 95
4, 397440, Note_on_c, 4, 67, 95
4, 397440, Note_on_c, 4, 64, 95
4, 397440, Note_on_c, 4, 59, 95
4, 397440, Note_on_c, 4, 52, 95
4, 398400, Note_off_c, 4, 71, 95
4, 398400, Note_off_c, 4, 67, 95
4, 398400, Note_off_c, 4, 64, 95
4, 398400, Note_off_c, 4, 59, 95
4, 398400, Note_off_c, 4, 52, 95
4, 398400, Note_on_c, 4, 71, 95
4, 398400, Note_on_c, 4, 67, 95
4, 398400, Note_on_c, 4, 64, 95
4, 398400, Note_on_c, 4, 59, 95
4, 398400, Note_on_c, 4, 52, 95
4, 399360, Note_off_c, 4, 71, 95
4, 399360, Note_off_c, 4, 67, 95
4, 399360, Note_off_c, 4, 64, 95
4, 399360, Note_off_c, 4, 59, 95
4, 399360, Note_off_c, 4, 52, 95
4, 399360, Note_on_c, 4, 71, 95
4, 399360, Note_on_c, 4, 69, 95
4, 399360, Note_on_c, 4, 65, 95
4, 399360, Note_on_c, 4, 60, 95
4, 399360, Note_on_c, 4, 52, 95
4, 400320, Note_off_c, 4, 71, 95
4, 400320, Note_off_c, 4, 69, 95
4, 400320, Note_off_c, 4, 65, 95
4, 400320, Note_off_c, 4, 60, 95
4, 400320, Note_off_c, 4, 52, 95
4, 400320, Note_on_c, 4, 71, 95
4, 400320, Note_on_c, 4, 69, 95
4, 400320, Note_on_c, 4, 65, 95
4, 400320, Note_on_c, 4, 60, 95
4, 400320, Note_on_c, 4, 52, 95
4, 401280, Note_off_c, 4, 71, 95
4, 401280, Note_off_c, 4, 69, 95
4, 401280, Note_off_c, 4, 65, 95
4, 401280, Note_off_c, 4, 60, 95
4, 401280, Note_off_c, 4, 52, 95
4, 401280, Note_on_c, 4, 71, 95
4, 401280, Note_on_c, 4, 69, 95
4, 401280, Note_on_c, 4, 65, 95
4, 401280, Note_on_c, 4, 60, 95
4, 401280, Note_on_c, 4, 52, 95
4, 402240, Note_off_c, 4, 71, 95
4, 402240, Note_off_c, 4, 69, 95
4, 402240, Note_off_c, 4, 65, 95
4, 402240, Note_off_c, 4, 60, 95
4, 402240, Note_off_c, 4, 52, 95
4, 402240, Note_on_c, 4, 71, 95
4, 402240, Note_on_c, 4, 69, 95
4, 402240, Note_on_c, 4, 65, 95
4, 402240, Note_on_c, 4, 60, 95
4, 402240, Note_on_c, 4, 52, 95
4, 403200, Note_off_c, 4, 71, 95
4, 403200, Note_off_c, 4, 69, 95
4, 403200, Note_off_c, 4, 65, 95
4, 403200, Note_off_c, 4, 60, 95
4, 403200, Note_off_c, 4, 52, 95
4, 403200, Note_on_c, 4, 71, 95
4, 403200, Note_on_c, 4, 67, 95
4, 403200, Note_on_c, 4, 64, 95
4, 403200, Note_on_c, 4, 59, 95
4, 403200, Note_on_c, 4, 52, 95
4, 404160, Note_off_c, 4, 71, 95
4, 404160, Note_off_c, 4, 67, 95
4, 404160, Note_off_c, 4, 64, 95
4, 404160, Note_off_c, 4, 59, 95
4, 404160, Note_off_c, 4, 52, 95
4, 404160, Note_on_c, 4, 71, 95
4, 404160, Note_on_c, 4, 67, 95
4, 404160, Note_on_c, 4, 64, 95
4, 404160, Note_on_c, 4, 59, 95
4, 404160, Note_on_c, 4, 52, 95
4, 405120, Note_off_c, 4, 71, 95
4, 405120, Note_off_c, 4, 67, 95
4, 405120, Note_off_c, 4, 64, 95
4, 405120, Note_off_c, 4, 59, 95
4, 405120, Note_off_c, 4, 52, 95
4, 405120, Note_on_c, 4, 71, 95
4, 405120, Note_on_c, 4, 67, 95
4, 405120, Note_on_c, 4, 64, 95
4, 405120, Note_on_c, 4, 59, 95
4, 405120, Note_on_c, 4, 52, 95
4, 406080, Note_off_c, 4, 71, 95
4, 406080, Note_off_c, 4, 67, 95
4, 406080, Note_off_c, 4, 64, 95
4, 406080, Note_off_c, 4, 59, 95
4, 406080, Note_off_c, 4, 52, 95
4, 406080, Note_on_c, 4, 71, 95
4, 406080, Note_on_c, 4, 67, 95
4, 406080, Note_on_c, 4, 64, 95
4, 406080, Note_on_c, 4, 59, 95
4, 406080, Note_on_c, 4, 52, 95
4, 407040, Note_off_c, 4, 71, 95
4, 407040, Note_off_c, 4, 67, 95
4, 407040, Note_off_c, 4, 64, 95
4, 407040, Note_off_c, 4, 59, 95
4, 407040, Note_off_c, 4, 52, 95
4, 407040, Note_on_c, 4, 71, 95
4, 407040, Note_on_c, 4, 69, 95
4, 407040, Note_on_c, 4, 65, 95
4, 407040, Note_on_c, 4, 60, 95
4, 407040, Note_on_c, 4, 52, 95
4, 408000, Note_off_c, 4, 71, 95
4, 408000, Note_off_c, 4, 69, 95
4, 408000, Note_off_c, 4, 65, 95
4, 408000, Note_off_c, 4, 60, 95
4, 408000, Note_off_c, 4, 52, 95
4, 408000, Note_on_c, 4, 71, 95
4, 408000, Note_on_c, 4, 69, 95
4, 408000, Note_on_c, 4, 65, 95
4, 408000, Note_on_c, 4, 60, 95
4, 408000, Note_on_c, 4, 52, 95
4, 408960, Note_off_c, 4, 71, 95
4, 408960, Note_off_c, 4, 69, 95
4, 408960, Note_off_c, 4, 65, 95
4, 408960, Note_off_c, 4, 60, 95
4, 408960, Note_off_c, 4, 52, 95
4, 408960, Note_on_c, 4, 71, 95
4, 408960, Note_on_c, 4, 69, 95
4, 408960, Note_on_c, 4, 65, 95
4, 408960, Note_on_c, 4, 60, 95
4, 408960, Note_on_c, 4, 52, 95
4, 409920, Note_off_c, 4, 71, 95
4, 409920, Note_off_c, 4, 69, 95
4, 409920, Note_off_c, 4, 65, 95
4, 409920, Note_off_c, 4, 60, 95
4, 409920, Note_off_c, 4, 52, 95
4, 409920, Note_on_c, 4, 71, 95
4, 409920, Note_on_c, 4, 69, 95
4, 409920, Note_on_c, 4, 65, 95
4, 409920, Note_on_c, 4, 60, 95
4, 409920, Note_on_c, 4, 52, 95
4, 410880, Note_off_c, 4, 71, 95
4, 410880, Note_off_c, 4, 69, 95
4, 410880, Note_off_c, 4, 65, 95
4, 410880, Note_off_c, 4, 60, 95
4, 410880, Note_off_c, 4, 52, 95
4, 410880, End_track
5, 0, Start_track
5, 0, Pitch_bend_c, 6, 8192
5, 0, Control_c, 6, 7, 63
5, 0, Control_c, 6, 10, 63
5, 0, Control_c, 6, 93, 0
5, 0, Control_c, 6, 91, 0
5, 0, Control_c, 6, 95, 0
5, 0, Control_c, 6, 92, 0
5, 0, Control_c, 6, 11, 127
5, 0, Program_c, 6, 30
5, 0, Control_c, 7, 7, 63
5, 0, Control_c, 7, 10, 63
5, 0, Control_c, 7, 93, 0
5, 0, Control_c, 7, 91, 0
5, 0, Control_c, 7, 95, 0
5, 0, Control_c, 7, 92, 0
5, 0, Control_c, 7, 11, 127
5, 0, Program_c, 7, 30
5, 230400, Note_on_c, 7, 57, 95
5, 230520, Pitch_bend_c, 7, 8192
5, 230640, Pitch_bend_c, 7, 8192
5, 230760, Pitch_bend_c, 7, 8192
5, 230880, Pitch_bend_c, 7, 8192
5, 231000, Pitch_bend_c, 7, 8192
5, 231120, Pitch_bend_c, 7, 8192
5, 231240, Pitch_bend_c, 7, 8192
5, 231360, Pitch_bend_c, 7, 8192
5, 231480, Pitch_bend_c, 7, 8192
5, 231600, Pitch_bend_c, 7, 8192
5, 231720, Pitch_bend_c, 7, 8192
5, 231840, Pitch_bend_c, 7, 8192
5, 231960, Pitch_bend_c, 7, 8192
5, 232080, Pitch_bend_c, 7, 8192
5, 232200, Pitch_bend_c, 7, 8192
5, 232320, Pitch_bend_c, 7, 8192
5, 232440, Pitch_bend_c, 7, 8192
5, 232560, Pitch_bend_c, 7, 8192
5, 232680, Pitch_bend_c, 7, 8192
5, 232800, Pitch_bend_c, 7, 8192
5, 232920, Pitch_bend_c, 7, 8192
5, 233040, Pitch_bend_c, 7, 8192
5, 233160, Pitch_bend_c, 7, 8192
5, 233280, Pitch_bend_c, 7, 8192
5, 233400, Pitch_bend_c, 7, 8192
5, 233520, Pitch_bend_c, 7, 8192
5, 233640, Pitch_bend_c, 7, 8192
5, 233760, Pitch_bend_c, 7, 8192
5, 233880, Pitch_bend_c, 7, 8192
5, 234000, Pitch_bend_c, 7, 8192
5, 234120, Pitch_bend_c, 7, 8192
5, 234240, Pitch_bend_c, 7, 8192
5, 234240, Pitch_bend_c, 7, 8192
5, 238080, Note_off_c, 7, 57, 95
5, 238080, Note_on_c, 6, 64, 95
5, 246400, Note_off_c, 6, 64, 95
5, 246400, Note_on_c, 6, 64, 95
5, 247040, Note_off_c, 6, 64, 95
5, 247040, Note_on_c, 6, 64, 95
5, 247680, Note_off_c, 6, 64, 95
5, 247680, Note_on_c, 6, 64, 95
5, 248320, Note_off_c, 6, 64, 95
5, 248320, Note_on_c, 6, 64, 95
5, 248960, Note_off_c, 6, 64, 95
5, 248960, Note_on_c, 6, 64, 95
5, 249600, Note_off_c, 6, 64, 95
5, 249600, Note_on_c, 6, 64, 95
5, 250240, Note_off_c, 6, 64, 95
5, 250240, Note_on_c, 6, 64, 95
5, 250880, Note_off_c, 6, 64, 95
5, 250880, Note_on_c, 6, 64, 95
5, 251520, Note_off_c, 6, 64, 95
5, 251520, Note_on_c, 6, 64, 95
5, 252160, Note_off_c, 6, 64, 95
5, 252160, Note_on_c, 6, 64, 95
5, 252800, Note_off_c, 6, 64, 95
5, 252800, Pitch_bend_c, 7, 8192
5, 252800, Note_on_c, 7, 64, 95
5, 253600, Pitch_bend_c, 7, 8320
5, 254400, Pitch_bend_c, 7, 8448
5, 255200, Pitch_bend_c, 7, 8576
5, 256000, Pitch_bend_c, 7, 8704
5, 256800, Pitch_bend_c, 7, 8832
5, 256800, Pitch_bend_c, 7, 8832
5, 260800, Pitch_bend_c, 7, 8832
5, 261600, Pitch_bend_c, 7, 8704
5, 262400, Pitch_bend_c, 7, 8576
5, 263200, Pitch_bend_c, 7, 8448
5, 264000, Pitch_bend_c, 7, 8320
5, 264800, Pitch_bend_c, 7, 8192
5, 264800, Pitch_bend_c, 7, 8192
5, 268800, Pitch_bend_c, 7, 8192
5, 268800, Pitch_bend_c, 7, 8192
5, 268800, Note_off_c, 7, 64, 95
5, 326400, Note_on_c, 7, 57, 95
5, 326520, Pitch_bend_c, 7, 8192
5, 326640, Pitch_bend_c, 7, 8192
5, 326760, Pitch_bend_c, 7, 8192
5, 326880, Pitch_bend_c, 7, 8192
5, 327000, Pitch_bend_c, 7, 8192
5, 327120, Pitch_bend_c, 7, 8192
5, 327240, Pitch_bend_c, 7, 8192
5, 327360, Pitch_bend_c, 7, 8192
5, 327480, Pitch_bend_c, 7, 8192
5, 327600, Pitch_bend_c, 7, 8192
5, 327720, Pitch_bend_c, 7, 8192
5, 327840, Pitch_bend_c, 7, 8192
5, 327960, Pitch_bend_c, 7, 8192
5, 328080, Pitch_bend_c, 7, 8192
5, 328200, Pitch_bend_c, 7, 8192
5, 328320, Pitch_bend_c, 7, 8192
5, 328440, Pitch_bend_c, 7, 8192
5, 328560, Pitch_bend_c, 7, 8192
5, 328680, Pitch_bend_c, 7, 8192
5, 328800, Pitch_bend_c, 7, 8192
5, 328920, Pitch_bend_c, 7, 8192
5, 329040, Pitch_bend_c, 7, 8192
5, 329160, Pitch_bend_c, 7, 8192
5, 329280, Pitch_bend_c, 7, 8192
5, 329400, Pitch_bend_c, 7, 8192
5, 329520, Pitch_bend_c, 7, 8192
5, 329640, Pitch_bend_c, 7, 8192
5, 329760, Pitch_bend_c, 7, 8192
5, 329880, Pitch_bend_c, 7, 8192
5, 330000, Pitch_bend_c, 7, 8192
5, 330120, Pitch_bend_c, 7, 8192
5, 330240, Pitch_bend_c, 7, 8192
5, 330240, Pitch_bend_c, 7, 8192
5, 334080, Note_off_c, 7, 57, 95
5, 334080, Note_on_c, 6, 64, 95
5, 357120, Note_off_c, 6, 64, 95
5, 376320, Note_on_c, 6, 60, 95
5, 377280, Note_off_c, 6, 60, 95
5, 377280, Note_on_c, 6, 59, 95
5, 378240, Note_off_c, 6, 59, 95
5, 378240, Note_on_c, 6, 60, 95
5, 379200, Note_off_c, 6, 60, 95
5, 379200, Note_on_c, 6, 59, 95
5, 380160, Note_off_c, 6, 59, 95
5, 380160, Note_on_c, 6, 55, 95
5, 382080, Note_off_c, 6, 55, 95
5, 387840, Note_on_c, 6, 59, 95
5, 391680, Note_off_c, 6, 59, 95
5, 391680, Note_on_c, 6, 60, 95
5, 392640, Note_off_c, 6, 60, 95
5, 392640, Note_on_c, 6, 59, 95
5, 393600, Note_off_c, 6, 59, 95
5, 393600, Note_on_c, 6, 60, 95
5, 394560, Note_off_c, 6, 60, 95
5, 394560, Note_on_c, 7, 62, 95
5, 394680, Pitch_bend_c, 7, 8320
5, 394800, Pitch_bend_c, 7, 8448
5, 394920, Pitch_bend_c, 7, 8704
5, 395040, Pitch_bend_c, 7, 8832
5, 395160, Pitch_bend_c, 7, 8960
5, 395280, Pitch_bend_c, 7, 9216
5, 395400, Pitch_bend_c, 7, 9344
5, 395520, Pitch_bend_c, 7, 9600
5, 395520, Pitch_bend_c, 7, 8192
5, 395520, Note_off_c, 7, 62, 95
5, 395520, Note_on_c, 6, 64, 95
5, 404160, Note_off_c, 6, 64, 95
5, 404160, Note_on_c, 6, 64, 95
5, 405120, Note_off_c, 6, 64, 95
5, 405120, Note_on_c, 6, 64, 95
5, 405760, Note_off_c, 6, 64, 95
5, 405760, Note_on_c, 6, 64, 95
5, 406080, Note_off_c, 6, 64, 95
5, 406080, Note_on_c, 6, 64, 95
5, 406720, Note_off_c, 6, 64, 95
5, 406720, Note_on_c, 6, 64, 95
5, 408000, Note_off_c, 6, 64, 95
5, 408000, Note_on_c, 6, 64, 95
5, 408960, Note_off_c, 6, 64, 95
5, 408960, Note_on_c, 6, 64, 95
5, 409600, Note_off_c, 6, 64, 95
5, 409600, Note_on_c, 6, 64, 95
5, 409920, Note_off_c, 6, 64, 95
5, 409920, Note_on_c, 6, 64, 95
5, 410560, Note_off_c, 6, 64, 95
5, 410560, Note_on_c, 6, 64, 95
5, 411840, Note_off_c, 6, 64, 95
5, 411840, Note_on_c, 6, 64, 95
5, 412800, Note_off_c, 6, 64, 95
5, 412800, Note_on_c, 6, 64, 95
5, 413440, Note_off_c, 6, 64, 95
5, 413440, Note_on_c, 6, 64, 95
5, 413760, Note_off_c, 6, 64, 95
5, 413760, Note_on_c, 6, 64, 95
5, 414400, Note_off_c, 6, 64, 95
5, 414400, Note_on_c, 6, 64, 95
5, 415680, Note_off_c, 6, 64, 95
5, 415680, Note_on_c, 6, 64, 95
5, 416640, Note_off_c, 6, 64, 95
5, 416640, Note_on_c, 6, 64, 95
5, 417280, Note_off_c, 6, 64, 95
5, 417280, Note_on_c, 6, 64, 95
5, 417600, Note_off_c, 6, 64, 95
5, 417600, Note_on_c, 6, 64, 95
5, 418240, Note_off_c, 6, 64, 95
5, 418240, Note_on_c, 6, 64, 95
5, 419520, Note_off_c, 6, 64, 95
5, 419520, Note_on_c, 6, 64, 95
5, 420480, Note_off_c, 6, 64, 95
5, 420480, Note_on_c, 6, 64, 95
5, 421120, Note_off_c, 6, 64, 95
5, 421120, Note_on_c, 6, 64, 95
5, 421440, Note_off_c, 6, 64, 95
5, 421440, Note_on_c, 6, 64, 95
5, 422080, Note_off_c, 6, 64, 95
5, 422080, Note_on_c, 6, 64, 95
5, 423360, Note_off_c, 6, 64, 95
5, 423360, Note_on_c, 6, 64, 95
5, 424320, Note_off_c, 6, 64, 95
5, 424320, Note_on_c, 6, 64, 95
5, 424960, Note_off_c, 6, 64, 95
5, 424960, Note_on_c, 6, 64, 95
5, 425280, Note_off_c, 6, 64, 95
5, 425280, Note_on_c, 6, 64, 95
5, 425920, Note_off_c, 6, 64, 95
5, 425920, Note_on_c, 6, 64, 95
5, 426240, Note_off_c, 6, 64, 95
5, 426240, End_track
6, 0, Start_track
6, 0, Pitch_bend_c, 10, 8192
6, 0, Control_c, 10, 7, 127
6, 0, Control_c, 10, 10, 39
6, 0, Control_c, 10, 93, 0
6, 0, Control_c, 10, 91, 0
6, 0, Control_c, 10, 95, 0
6, 0, Control_c, 10, 92, 0
6, 0, Control_c, 10, 11, 127
6, 0, Program_c, 10, 30
6, 0, Control_c, 11, 7, 127
6, 0, Control_c, 11, 10, 39
6, 0, Control_c, 11, 93, 0
6, 0, Control_c, 11, 91, 0
6, 0, Control_c, 11, 95, 0
6, 0, Control_c, 11, 92, 0
6, 0, Control_c, 11, 11, 127
6, 0, Program_c, 11, 30
6, 273600, Note_on_c, 11, 57, 95
6, 273720, Pitch_bend_c, 11, 8192
6, 273840, Pitch_bend_c, 11, 8192
6, 273960, Pitch_bend_c, 11, 8192
6, 274080, Pitch_bend_c, 11, 8192
6, 274080, Pitch_bend_c, 11, 8192
6, 274560, Note_on_c, 10, 62, 95
6, 274720, Note_off_c, 11, 57, 95
6, 275520, Note_off_c, 10, 62, 95
6, 276300, Note_on_c, 11, 50, 95
6, 276300, Note_on_c, 11, 45, 95
6, 276372, Note_off_c, 11, 50, 95
6, 276372, Note_off_c, 11, 45, 95
6, 276480, Pitch_bend_c, 11, 8192
6, 276480, Note_on_c, 11, 69, 95
6, 276480, Note_on_c, 11, 50, 95
6, 276480, Note_on_c, 11, 45, 95
6, 276556, Pitch_bend_c, 11, 8320
6, 276632, Pitch_bend_c, 11, 8448
6, 276708, Pitch_bend_c, 11, 8576
6, 276784, Pitch_bend_c, 11, 8704
6, 276860, Pitch_bend_c, 11, 8832
6, 276936, Pitch_bend_c, 11, 8960
6, 277012, Pitch_bend_c, 11, 9088
6, 277088, Pitch_bend_c, 11, 9216
6, 277164, Pitch_bend_c, 11, 9344
6, 277240, Pitch_bend_c, 11, 9472
6, 277316, Pitch_bend_c, 11, 9600
6, 277320, Pitch_bend_c, 11, 9600
6, 278160, Pitch_bend_c, 11, 9600
6, 278236, Pitch_bend_c, 11, 9472
6, 278312, Pitch_bend_c, 11, 9344
6, 278388, Pitch_bend_c, 11, 9216
6, 278464, Pitch_bend_c, 11, 9088
6, 278540, Pitch_bend_c, 11, 8960
6, 278616, Pitch_bend_c, 11, 8832
6, 278692, Pitch_bend_c, 11, 8704
6, 278768, Pitch_bend_c, 11, 8576
6, 278844, Pitch_bend_c, 11, 8448
6, 278920, Pitch_bend_c, 11, 8320
6, 278996, Pitch_bend_c, 11, 8192
6, 279000, Pitch_bend_c, 11, 8192
6, 279360, Note_off_c, 11, 50, 95
6, 279360, Note_off_c, 11, 45, 95
6, 279840, Pitch_bend_c, 11, 8192
6, 279840, Pitch_bend_c, 11, 8192
6, 279840, Note_off_c, 11, 69, 95
6, 280000, Note_on_c, 10, 71, 95
6, 280320, Note_off_c, 10, 71, 95
6, 280320, Pitch_bend_c, 11, 8192
6, 280320, Note_on_c, 11, 74, 70
6, 280352, Pitch_bend_c, 11, 8320
6, 280384, Pitch_bend_c, 11, 8448
6, 280416, Pitch_bend_c, 11, 8576
6, 280448, Pitch_bend_c, 11, 8704
6, 280480, Pitch_bend_c, 11, 8832
6, 280512, Pitch_bend_c, 11, 8960
6, 280544, Pitch_bend_c, 11, 9088
6, 280576, Pitch_bend_c, 11, 9216
6, 280608, Pitch_bend_c, 11, 9344
6, 280640, Pitch_bend_c, 11, 9472
6, 280672, Pitch_bend_c, 11, 9600
6, 280680, Pitch_bend_c, 11, 9600
6, 281040, Pitch_bend_c, 11, 9600
6, 281072, Pitch_bend_c, 11, 9472
6, 281104, Pitch_bend_c, 11, 9344
6, 281136, Pitch_bend_c, 11, 9216
6, 281168, Pitch_bend_c, 11, 9088
6, 281200, Pitch_bend_c, 11, 8960
6, 281232, Pitch_bend_c, 11, 8832
6, 281264, Pitch_bend_c, 11, 8704
6, 281296, Pitch_bend_c, 11, 8576
6, 281328, Pitch_bend_c, 11, 8448
6, 281360, Pitch_bend_c, 11, 8320
6, 281392, Pitch_bend_c, 11, 8192
6, 281400, Pitch_bend_c, 11, 8192
6, 281760, Pitch_bend_c, 11, 8192
6, 281760, Pitch_bend_c, 11, 8192
6, 281760, Note_off_c, 11, 74, 70
6, 281920, Note_on_c, 10, 76, 95
6, 282240, Note_off_c, 10, 76, 95
6, 282240, Pitch_bend_c, 11, 8192
6, 282240, Note_on_c, 11, 79, 95
6, 282240, Pitch_bend_c, 11, 8192
6, 282240, Note_on_c, 11, 74, 95
6, 282272, Pitch_bend_c, 11, 8320
6, 282272, Pitch_bend_c, 11, 8320
6, 282304, Pitch_bend_c, 11, 8448
6, 282304, Pitch_bend_c, 11, 8448
6, 282336, Pitch_bend_c, 11, 8576
6, 282336, Pitch_bend_c, 11, 8576
6, 282368, Pitch_bend_c, 11, 8704
6, 282368, Pitch_bend_c, 11, 8704
6, 282400, Pitch_bend_c, 11, 8832
6, 282400, Pitch_bend_c, 11, 8832
6, 282432, Pitch_bend_c, 11, 8960
6, 282432, Pitch_bend_c, 11, 8960
6, 282464, Pitch_bend_c, 11, 9088
6, 282464, Pitch_bend_c, 11, 9088
6, 282496, Pitch_bend_c, 11, 9216
6, 282496, Pitch_bend_c, 11, 9216
6, 282528, Pitch_bend_c, 11, 9344
6, 282528, Pitch_bend_c, 11, 9344
6, 282560, Pitch_bend_c, 11, 9472
6, 282560, Pitch_bend_c, 11, 9472
6, 282592, Pitch_bend_c, 11, 9600
6, 282592, Pitch_bend_c, 11, 9600
6, 282600, Pitch_bend_c, 11, 9600
6, 282600, Pitch_bend_c, 11, 9600
6, 282960, Pitch_bend_c, 11, 9600
6, 282960, Pitch_bend_c, 11, 9600
6, 282992, Pitch_bend_c, 11, 9472
6, 282992, Pitch_bend_c, 11, 9472
6, 283024, Pitch_bend_c, 11, 9344
6, 283024, Pitch_bend_c, 11, 9344
6, 283056, Pitch_bend_c, 11, 9216
6, 283056, Pitch_bend_c, 11, 9216
6, 283088, Pitch_bend_c, 11, 9088
6, 283088, Pitch_bend_c, 11, 9088
6, 283120, Pitch_bend_c, 11, 8960
6, 283120, Pitch_bend_c, 11, 8960
6, 283152, Pitch_bend_c, 11, 8832
6, 283152, Pitch_bend_c, 11, 8832
6, 283184, Pitch_bend_c, 11, 8704
6, 283184, Pitch_bend_c, 11, 8704
6, 283216, Pitch_bend_c, 11, 8576
6, 283216, Pitch_bend_c, 11, 8576
6, 283248, Pitch_bend_c, 11, 8448
6, 283248, Pitch_bend_c, 11, 8448
6, 283280, Pitch_bend_c, 11, 8320
6, 283280, Pitch_bend_c, 11, 8320
6, 283312, Pitch_bend_c, 11, 8192
6, 283312, Pitch_bend_c, 11, 8192
6, 283320, Pitch_bend_c, 11, 8192
6, 283320, Pitch_bend_c, 11, 8192
6, 283680, Pitch_bend_c, 11, 8192
6, 283680, Pitch_bend_c, 11, 8192
6, 283680, Note_off_c, 11, 79, 95
6, 283680, Pitch_bend_c, 11, 8192
6, 283680, Pitch_bend_c, 11, 8192
6, 283680, Note_off_c, 11, 74, 95
6, 283840, Note_on_c, 10, 79, 95
6, 284160, Note_off_c, 10, 79, 95
6, 284160, Note_on_c, 10, 76, 95
6, 284640, Note_off_c, 10, 76, 95
6, 284640, Note_on_c, 10, 79, 70
6, 285600, Note_off_c, 10, 79, 70
6, 285760, Pitch_bend_c, 11, 9600
6, 285760, Note_on_c, 11, 71, 95
6, 286026, Pitch_bend_c, 11, 9600
6, 286050, Pitch_bend_c, 11, 9472
6, 286074, Pitch_bend_c, 11, 9344
6, 286098, Pitch_bend_c, 11, 9216
6, 286122, Pitch_bend_c, 11, 9088
6, 286146, Pitch_bend_c, 11, 8960
6, 286170, Pitch_bend_c, 11, 8832
6, 286194, Pitch_bend_c, 11, 8704
6, 286218, Pitch_bend_c, 11, 8576
6, 286242, Pitch_bend_c, 11, 8448
6, 286266, Pitch_bend_c, 11, 8320
6, 286290, Pitch_bend_c, 11, 8192
6, 286293, Pitch_bend_c, 11, 8192
6, 286560, Pitch_bend_c, 11, 8192
6, 286560, Pitch_bend_c, 11, 8192
6, 286560, Note_off_c, 11, 71, 95
6, 286720, Note_on_c, 10, 71, 95
6, 287040, Note_off_c, 10, 71, 95
6, 287040, Pitch_bend_c, 11, 9600
6, 287040, Note_on_c, 11, 71, 95
6, 287413, Pitch_bend_c, 11, 9600
6, 287446, Pitch_bend_c, 11, 9472
6, 287479, Pitch_bend_c, 11, 9344
6, 287512, Pitch_bend_c, 11, 9216
6, 287545, Pitch_bend_c, 11, 9088
6, 287578, Pitch_bend_c, 11, 8960
6, 287611, Pitch_bend_c, 11, 8832
6, 287644, Pitch_bend_c, 11, 8704
6, 287677, Pitch_bend_c, 11, 8576
6, 287710, Pitch_bend_c, 11, 8448
6, 287743, Pitch_bend_c, 11, 8320
6, 287776, Pitch_bend_c, 11, 8192
6, 287786, Pitch_bend_c, 11, 8192
6, 288000, Pitch_bend_c, 11, 8832
6, 288000, Note_on_c, 11, 70, 95
6, 288160, Pitch_bend_c, 11, 8192
6, 288160, Pitch_bend_c, 11, 8192
6, 288160, Note_off_c, 11, 71, 95
6, 288460, Note_on_c, 11, 68, 95
6, 288640, Pitch_bend_c, 11, 8832
6, 288640, Pitch_bend_c, 11, 8192
6, 288640, Note_off_c, 11, 70, 95
6, 288640, Note_off_c, 11, 68, 95
6, 288640, Note_on_c, 11, 69, 95
6, 289920, Note_off_c, 11, 69, 95
6, 289920, Note_on_c, 10, 67, 95
6, 290880, Note_off_c, 10, 67, 95
6, 290880, Note_on_c, 10, 69, 95
6, 291520, Note_off_c, 10, 69, 95
6, 291520, Note_on_c, 10, 67, 70
6, 291840, Note_off_c, 10, 67, 70
6, 291840, Pitch_bend_c, 11, 8192
6, 291840, Note_on_c, 11, 69, 95
6, 292096, Pitch_bend_c, 11, 8320
6, 292352, Pitch_bend_c, 11, 8448
6, 292608, Pitch_bend_c, 11, 8576
6, 292864, Pitch_bend_c, 11, 8704
6, 293120, Pitch_bend_c, 11, 8832
6, 293120, Pitch_bend_c, 11, 8832
6, 294400, Pitch_bend_c, 11, 8832
6, 294400, Pitch_bend_c, 11, 8192
6, 294400, Note_off_c, 11, 69, 95
6, 294400, Note_on_c, 10, 73, 95
6, 294400, Pitch_bend_c, 11, 8192
6, 294400, Note_on_c, 11, 69, 95
6, 294464, Pitch_bend_c, 11, 8320
6, 294528, Pitch_bend_c, 11, 8448
6, 294592, Pitch_bend_c, 11, 8576
6, 294656, Pitch_bend_c, 11, 8704
6, 294720, Pitch_bend_c, 11, 8832
6, 294720, Pitch_bend_c, 11, 8832
6, 295040, Note_off_c, 10, 73, 95
6, 295040, Pitch_bend_c, 11, 8832
6, 295040, Pitch_bend_c, 11, 8192
6, 295040, Note_off_c, 11, 69, 95
6, 295040, Note_on_c, 10, 69, 95
6, 295680, Note_off_c, 10, 69, 95
6, 295680, Note_on_c, 10, 73, 95
6, 295680, Note_on_c, 10, 69, 95
6, 296320, Note_off_c, 10, 73, 95
6, 296320, Note_off_c, 10, 69, 95
6, 296320, Note_on_c, 10, 73, 95
6, 296320, Note_on_c, 10, 69, 95
6, 296780, Note_on_c, 11, 69, 95
6, 296960, Note_off_c, 10, 73, 95
6, 296960, Note_off_c, 10, 69, 95
6, 296960, Note_off_c, 11, 69, 95
6, 296960, Note_on_c, 11, 67, 95
6, 297600, Note_off_c, 11, 67, 95
6, 297600, Note_on_c, 10, 64, 95
6, 298880, Note_off_c, 10, 64, 95
6, 298880, Note_on_c, 10, 67, 95
6, 299200, Note_off_c, 10, 67, 95
6, 299200, Note_on_c, 10, 69, 95
6, 299340, Note_on_c, 11, 67, 95
6, 299520, Note_off_c, 10, 69, 95
6, 299520, Note_off_c, 11, 67, 95
6, 299520, Note_on_c, 11, 69, 95
6, 301920, Note_off_c, 11, 69, 95
6, 302080, Note_on_c, 10, 67, 95
6, 302400, Note_off_c, 10, 67, 95
6, 302400, Note_on_c, 10, 71, 95
6, 302400, Pitch_bend_c, 11, 9600
6, 302400, Note_on_c, 11, 69, 95
6, 302880, Pitch_bend_c, 11, 9600
6, 302923, Pitch_bend_c, 11, 9472
6, 302966, Pitch_bend_c, 11, 9344
6, 303009, Pitch_bend_c, 11, 9216
6, 303052, Pitch_bend_c, 11, 9088
6, 303095, Pitch_bend_c, 11, 8960
6, 303138, Pitch_bend_c, 11, 8832
6, 303181, Pitch_bend_c, 11, 8704
6, 303224, Pitch_bend_c, 11, 8576
6, 303267, Pitch_bend_c, 11, 8448
6, 303310, Pitch_bend_c, 11, 8320
6, 303353, Pitch_bend_c, 11, 8192
6, 303360, Pitch_bend_c, 11, 8192
6, 303840, Note_off_c, 10, 71, 95
6, 303840, Pitch_bend_c, 11, 8192
6, 303840, Pitch_bend_c, 11, 8192
6, 303840, Note_off_c, 11, 69, 95
6, 304000, Note_on_c, 10, 69, 95
6, 304320, Note_off_c, 10, 69, 95
6, 304320, Note_on_c, 10, 67, 95
6, 305280, Note_off_c, 10, 67, 95
6, 305280, End_track
7, 0, Start_track
7, 0, Pitch_bend_c, 12, 8192
7, 0, Control_c, 12, 7, 127
7, 0, Control_c, 12, 10, 87
7, 0, Control_c, 12, 93, 0
7, 0, Control_c, 12, 91, 0
7, 0, Control_c, 12, 95, 0
7, 0, Control_c, 12, 92, 0
7, 0, Control_c, 12, 11, 127
7, 0, Program_c, 12, 30
7, 0, Control_c, 13, 7, 127
7, 0, Control_c, 13, 10, 87
7, 0, Control_c, 13, 93, 0
7, 0, Control_c, 13, 91, 0
7, 0, Control_c, 13, 95, 0
7, 0, Control_c, 13, 92, 0
7, 0, Control_c, 13, 11, 127
7, 0, Program_c, 13, 30
7, 276300, Note_on_c, 13, 59, 95
7, 276300, Note_on_c, 13, 55, 95
7, 276372, Note_off_c, 13, 59, 95
7, 276372, Note_off_c, 13, 55, 95
7, 276480, Pitch_bend_c, 13, 8192
7, 276480, Note_on_c, 13, 84, 95
7, 276480, Note_on_c, 13, 59, 95
7, 276480, Note_on_c, 13, 55, 95
7, 276785, Pitch_bend_c, 13, 8320
7, 277090, Pitch_bend_c, 13, 8448
7, 277395, Pitch_bend_c, 13, 8576
7, 277700, Pitch_bend_c, 13, 8704
7, 278005, Pitch_bend_c, 13, 8832
7, 278310, Pitch_bend_c, 13, 8960
7, 278615, Pitch_bend_c, 13, 9088
7, 278920, Pitch_bend_c, 13, 9216
7, 279225, Pitch_bend_c, 13, 9344
7, 279530, Pitch_bend_c, 13, 9472
7, 279835, Pitch_bend_c, 13, 9600
7, 279840, Pitch_bend_c, 13, 9600
7, 280320, Note_off_c, 13, 59, 95
7, 280320, Note_off_c, 13, 55, 95
7, 283200, Pitch_bend_c, 13, 9600
7, 283200, Pitch_bend_c, 13, 8192
7, 283200, Note_off_c, 13, 84, 95
7, 283200, Note_on_c, 12, 76, 95
7, 283200, Note_on_c, 12, 69, 95
7, 286080, Note_off_c, 12, 76, 95
7, 286080, Note_off_c, 12, 69, 95
7, 286080, Note_on_c, 12, 69, 95
7, 287040, Note_off_c, 12, 69, 95
7, 287040, Note_on_c, 12, 76, 95
7, 287040, Note_on_c, 12, 68, 95
7, 289920, Note_off_c, 12, 76, 95
7, 289920, Note_off_c, 12, 68, 95
7, 289920, Note_on_c, 12, 64, 95
7, 290880, Note_off_c, 12, 64, 95
7, 290880, Note_on_c, 12, 76, 95
7, 290880, Note_on_c, 12, 71, 95
7, 293760, Note_off_c, 12, 76, 95
7, 293760, Note_off_c, 12, 71, 95
7, 293760, Note_on_c, 12, 71, 95
7, 294720, Note_off_c, 12, 71, 95
7, 295360, Note_on_c, 12, 76, 95
7, 295360, Note_on_c, 12, 70, 95
7, 297600, Note_off_c, 12, 76, 95
7, 297600, Note_off_c, 12, 70, 95
7, 297600, Note_on_c, 12, 70, 95
7, 299520, Note_off_c, 12, 70, 95
7, 299520, End_track
8, 0, Start_track
8, 0, Pitch_bend_c, 14, 8192
8, 0, Control_c, 14, 7, 127
8, 0, Control_c, 14, 10, 63
8, 0, Control_c, 14, 93, 0
8, 0, Control_c, 14, 91, 0
8, 0, Control_c, 14, 95, 0
8, 0, Control_c, 14, 92, 0
8, 0, Control_c, 14, 11, 127
8, 0, Program_c, 14, 33
8, 0, Control_c, 15, 7, 127
8, 0, Control_c, 15, 10, 63
8, 0, Control_c, 15, 93, 0
8, 0, Control_c, 15, 91, 0
8, 0, Control_c, 15, 95, 0
8, 0, Control_c, 15, 92, 0
8, 0, Control_c, 15, 11, 127
8, 0, Program_c, 15, 33
8, 14400, Note_on_c, 15, 35, 95
8, 14520, Pitch_bend_c, 15, 8576
8, 14640, Pitch_bend_c, 15, 8960
8, 14760, Pitch_bend_c, 15, 9472
8, 14880, Pitch_bend_c, 15, 9856
8, 15000, Pitch_bend_c, 15, 10368
8, 15120, Pitch_bend_c, 15, 10752
8, 15240, Pitch_bend_c, 15, 11264
8, 15360, Pitch_bend_c, 15, 11648
8, 15360, Pitch_bend_c, 15, 8192
8, 15360, Note_off_c, 15, 35, 95
8, 15360, Note_on_c, 14, 40, 95
8, 18240, Note_off_c, 14, 40, 95
8, 18240, Note_on_c, 14, 43, 95
8, 18560, Note_off_c, 14, 43, 95
8, 18560, Note_on_c, 14, 40, 95
8, 18880, Note_off_c, 14, 40, 95
8, 18880, Note_on_c, 14, 43, 95
8, 19200, Note_off_c, 14, 43, 95
8, 19200, Note_on_c, 15, 48, 95
8, 19320, Pitch_bend_c, 15, 8192
8, 19440, Pitch_bend_c, 15, 8192
8, 19560, Pitch_bend_c, 15, 8192
8, 19680, Pitch_bend_c, 15, 8192
8, 19800, Pitch_bend_c, 15, 8192
8, 19920, Pitch_bend_c, 15, 8192
8, 20040, Pitch_bend_c, 15, 8192
8, 20160, Pitch_bend_c, 15, 8192
8, 20280, Pitch_bend_c, 15, 8192
8, 20400, Pitch_bend_c, 15, 8192
8, 20520, Pitch_bend_c, 15, 8192
8, 20640, Pitch_bend_c, 15, 8192
8, 20760, Pitch_bend_c, 15, 8192
8, 20880, Pitch_bend_c, 15, 8192
8, 21000, Pitch_bend_c, 15, 8192
8, 21120, Pitch_bend_c, 15, 8192
8, 21120, Pitch_bend_c, 15, 8192
8, 22080, Note_off_c, 15, 48, 95
8, 22080, Note_on_c, 15, 35, 95
8, 22200, Pitch_bend_c, 15, 8576
8, 22320, Pitch_bend_c, 15, 8960
8, 22440, Pitch_bend_c, 15, 9472
8, 22560, Pitch_bend_c, 15, 9856
8, 22680, Pitch_bend_c, 15, 10368
8, 22800, Pitch_bend_c, 15, 10752
8, 22920, Pitch_bend_c, 15, 11264
8, 23040, Pitch_bend_c, 15, 11648
8, 23040, Pitch_bend_c, 15, 8192
8, 23040, Note_off_c, 15, 35, 95
8, 23040, Note_on_c, 14, 40, 95
8, 25920, Note_off_c, 14, 40, 95
8, 25920, Note_on_c, 14, 43, 95
8, 26240, Note_off_c, 14, 43, 95
8, 26240, Note_on_c, 14, 40, 95
8, 26560, Note_off_c, 14, 40, 95
8, 26560, Note_on_c, 14, 43, 95
8, 26880, Note_off_c, 14, 43, 95
8, 26880, Note_on_c, 15, 36, 95
8, 27000, Pitch_bend_c, 15, 8192
8, 27120, Pitch_bend_c, 15, 8192
8, 27240, Pitch_bend_c, 15, 8192
8, 27360, Pitch_bend_c, 15, 8192
8, 27480, Pitch_bend_c, 15, 8192
8, 27600, Pitch_bend_c, 15, 8192
8, 27720, Pitch_bend_c, 15, 8192
8, 27840, Pitch_bend_c, 15, 8192
8, 27960, Pitch_bend_c, 15, 8192
8, 28080, Pitch_bend_c, 15, 8192
8, 28200, Pitch_bend_c, 15, 8192
8, 28320, Pitch_bend_c, 15, 8192
8, 28440, Pitch_bend_c, 15, 8192
8, 28560, Pitch_bend_c, 15, 8192
8, 28680, Pitch_bend_c, 15, 8192
8, 28800, Pitch_bend_c, 15, 8192
8, 28800, Pitch_bend_c, 15, 8192
8, 29760, Note_off_c, 15, 36, 95
8, 29760, Note_on_c, 15, 35, 95
8, 29880, Pitch_bend_c, 15, 8576
8, 30000, Pitch_bend_c, 15, 8960
8, 30120, Pitch_bend_c, 15, 9472
8, 30240, Pitch_bend_c, 15, 9856
8, 30360, Pitch_bend_c, 15, 10368
8, 30480, Pitch_bend_c, 15, 10752
8, 30600, Pitch_bend_c, 15, 11264
8, 30720, Pitch_bend_c, 15, 11648
8, 30720, Pitch_bend_c, 15, 8192
8, 30720, Note_off_c, 15, 35, 95
8, 30720, Note_on_c, 14, 40, 95
8, 33600, Note_off_c, 14, 40, 95
8, 33600, Note_on_c, 14, 43, 95
8, 33920, Note_off_c, 14, 43, 95
8, 33920, Note_on_c, 14, 40, 95
8, 34240, Note_off_c, 14, 40, 95
8, 34240, Note_on_c, 14, 43, 95
8, 34560, Note_off_c, 14, 43, 95
8, 34560, Note_on_c, 15, 48, 95
8, 34680, Pitch_bend_c, 15, 8192
8, 34800, Pitch_bend_c, 15, 8192
8, 34920, Pitch_bend_c, 15, 8192
8, 35040, Pitch_bend_c, 15, 8192
8, 35160, Pitch_bend_c, 15, 8192
8, 35280, Pitch_bend_c, 15, 8192
8, 35400, Pitch_bend_c, 15, 8192
8, 35520, Pitch_bend_c, 15, 8192
8, 35640, Pitch_bend_c, 15, 8192
8, 35760, Pitch_bend_c, 15, 8192
8, 35880, Pitch_bend_c, 15, 8192
8, 36000, Pitch_bend_c, 15, 8192
8, 36120, Pitch_bend_c, 15, 8192
8, 36240, Pitch_bend_c, 15, 8192
8, 36360, Pitch_bend_c, 15, 8192
8, 36480, Pitch_bend_c, 15, 8192
8, 36480, Pitch_bend_c, 15, 8192
8, 37440, Note_off_c, 15, 48, 95
8, 37440, Note_on_c, 15, 35, 95
8, 37560, Pitch_bend_c, 15, 8576
8, 37680, Pitch_bend_c, 15, 8960
8, 37800, Pitch_bend_c, 15, 9472
8, 37920, Pitch_bend_c, 15, 9856
8, 38040, Pitch_bend_c, 15, 10368
8, 38160, Pitch_bend_c, 15, 10752
8, 38280, Pitch_bend_c, 15, 11264
8, 38400, Pitch_bend_c, 15, 11648
8, 38400, Pitch_bend_c, 15, 8192
8, 38400, Note_off_c, 15, 35, 95
8, 38400, Note_on_c, 14, 40, 95
8, 41280, Note_off_c, 14, 40, 95
8, 41280, Note_on_c, 14, 43, 95
8, 41600, Note_off_c, 14, 43, 95
8, 41600, Note_on_c, 14, 40, 95
8, 41920, Note_off_c, 14, 40, 95
8, 41920, Note_on_c, 14, 43, 95
8, 42240, Note_off_c, 14, 43, 95
8, 42240, Note_on_c, 14, 36, 95
8, 45120, Note_off_c, 14, 36, 95
8, 45120, Note_on_c, 15, 35, 95
8, 45240, Pitch_bend_c, 15, 8576
8, 45360, Pitch_bend_c, 15, 8960
8, 45480, Pitch_bend_c, 15, 9472
8, 45600, Pitch_bend_c, 15, 9856
8, 45720, Pitch_bend_c, 15, 10368
8, 45840, Pitch_bend_c, 15, 10752
8, 45960, Pitch_bend_c, 15, 11264
8, 46080, Pitch_bend_c, 15, 11648
8, 46080, Pitch_bend_c, 15, 8192
8, 46080, Note_off_c, 15, 35, 95
8, 46080, Note_on_c, 14, 40, 95
8, 47040, Note_off_c, 14, 40, 95
8, 47040, Note_on_c, 14, 40, 95
8, 48000, Note_off_c, 14, 40, 95
8, 48640, Note_on_c, 14, 35, 95
8, 48960, Note_off_c, 14, 35, 95
8, 48960, Note_on_c, 14, 33, 95
8, 49280, Note_off_c, 14, 33, 95
8, 49280, Note_on_c, 14, 34, 95
8, 49600, Note_off_c, 14, 34, 95
8, 49600, Note_on_c, 14, 35, 95
8, 49920, Note_off_c, 14, 35, 95
8, 49920, Note_on_c, 14, 41, 95
8, 50880, Note_off_c, 14, 41, 95
8, 50880, Note_on_c, 14, 41, 95
8, 51840, Note_off_c, 14, 41, 95
8, 52480, Note_on_c, 14, 35, 95
8, 52800, Note_off_c, 14, 35, 95
8, 52800, Note_on_c, 14, 33, 95
8, 53120, Note_off_c, 14, 33, 95
8, 53120, Note_on_c, 14, 34, 95
8, 53440, Note_off_c, 14, 34, 95
8, 53440, Note_on_c, 14, 35, 95
8, 53760, Note_off_c, 14, 35, 95
8, 53760, Note_on_c, 14, 31, 95
8, 54720, Note_off_c, 14, 31, 95
8, 54720, Note_on_c, 14, 31, 95
8, 55680, Note_off_c, 14, 31, 95
8, 56320, Note_on_c, 14, 35, 95
8, 56640, Note_off_c, 14, 35, 95
8, 56640, Note_on_c, 14, 33, 95
8, 56960, Note_off_c, 14, 33, 95
8, 56960, Note_on_c, 14, 34, 95
8, 57280, Note_off_c, 14, 34, 95
8, 57280, Note_on_c, 14, 35, 95
8, 57600, Note_off_c, 14, 35, 95
8, 57600, Note_on_c, 14, 31, 95
8, 58560, Note_off_c, 14, 31, 95
8, 58560, Note_on_c, 14, 31, 95
8, 59520, Note_off_c, 14, 31, 95
8, 61120, Note_on_c, 14, 35, 95
8, 61440, Note_off_c, 14, 35, 95
8, 61440, Note_on_c, 14, 40, 95
8, 62400, Note_off_c, 14, 40, 95
8, 62400, Note_on_c, 14, 40, 95
8, 63360, Note_off_c, 14, 40, 95
8, 64000, Note_on_c, 14, 35, 95
8, 64320, Note_off_c, 14, 35, 95
8, 64320, Note_on_c, 14, 33, 95
8, 64640, Note_off_c, 14, 33, 95
8, 64640, Note_on_c, 14, 34, 95
8, 64960, Note_off_c, 14, 34, 95
8, 64960, Note_on_c, 14, 35, 95
8, 65280, Note_off_c, 14, 35, 95
8, 65280, Note_on_c, 14, 41, 95
8, 66240, Note_off_c, 14, 41, 95
8, 66240, Note_on_c, 14, 41, 95
8, 67200, Note_off_c, 14, 41, 95
8, 67840, Note_on_c, 14, 35, 95
8, 68160, Note_off_c, 14, 35, 95
8, 68160, Note_on_c, 14, 33, 95
8, 68480, Note_off_c, 14, 33, 95
8, 68480, Note_on_c, 14, 34, 95
8, 68800, Note_off_c, 14, 34, 95
8, 68800, Note_on_c, 14, 35, 95
8, 69120, Note_off_c, 14, 35, 95
8, 69120, Note_on_c, 14, 31, 95
8, 70080, Note_off_c, 14, 31, 95
8, 70080, Note_on_c, 14, 31, 95
8, 71040, Note_off_c, 14, 31, 95
8, 71680, Note_on_c, 14, 35, 95
8, 72000, Note_off_c, 14, 35, 95
8, 72000, Note_on_c, 14, 33, 95
8, 72320, Note_off_c, 14, 33, 95
8, 72320, Note_on_c, 14, 34, 95
8, 72640, Note_off_c, 14, 34, 95
8, 72640, Note_on_c, 14, 35, 95
8, 72960, Note_off_c, 14, 35, 95
8, 72960, Note_on_c, 14, 31, 95
8, 73920, Note_off_c, 14, 31, 95
8, 73920, Note_on_c, 14, 31, 95
8, 74880, Note_off_c, 14, 31, 95
8, 76480, Note_on_c, 14, 35, 95
8, 76800, Note_off_c, 14, 35, 95
8, 76800, Note_on_c, 14, 40, 95
8, 77760, Note_off_c, 14, 40, 95
8, 77760, Note_on_c, 14, 40, 95
8, 78720, Note_off_c, 14, 40, 95
8, 79360, Note_on_c, 14, 35, 95
8, 79680, Note_off_c, 14, 35, 95
8, 79680, Note_on_c, 14, 33, 95
8, 80000, Note_off_c, 14, 33, 95
8, 80000, Note_on_c, 14, 34, 95
8, 80320, Note_off_c, 14, 34, 95
8, 80320, Note_on_c, 14, 35, 95
8, 80640, Note_off_c, 14, 35, 95
8, 80640, Note_on_c, 14, 41, 95
8, 81600, Note_off_c, 14, 41, 95
8, 81600, Note_on_c, 14, 41, 95
8, 82560, Note_off_c, 14, 41, 95
8, 83200, Note_on_c, 14, 35, 95
8, 83520, Note_off_c, 14, 35, 95
8, 83520, Note_on_c, 14, 33, 95
8, 83840, Note_off_c, 14, 33, 95
8, 83840, Note_on_c, 14, 34, 95
8, 84160, Note_off_c, 14, 34, 95
8, 84160, Note_on_c, 14, 35, 95
8, 84480, Note_off_c, 14, 35, 95
8, 84480, Note_on_c, 14, 31, 95
8, 85440, Note_off_c, 14, 31, 95
8, 85440, Note_on_c, 14, 31, 95
8, 86400, Note_off_c, 14, 31, 95
8, 87040, Note_on_c, 14, 35, 95
8, 87360, Note_off_c, 14, 35, 95
8, 87360, Note_on_c, 14, 33, 95
8, 87680, Note_off_c, 14, 33, 95
8, 87680, Note_on_c, 14, 34, 95
8, 88000, Note_off_c, 14, 34, 95
8, 88000, Note_on_c, 14, 35, 95
8, 88320, Note_off_c, 14, 35, 95
8, 88320, Note_on_c, 14, 31, 95
8, 89280, Note_off_c, 14, 31, 95
8, 89280, Note_on_c, 14, 31, 95
8, 90240, Note_off_c, 14, 31, 95
8, 91840, Note_on_c, 14, 35, 95
8, 92160, Note_off_c, 14, 35, 95
8, 92160, Note_on_c, 14, 40, 95
8, 93120, Note_off_c, 14, 40, 95
8, 93120, Note_on_c, 14, 40, 95
8, 94080, Note_off_c, 14, 40, 95
8, 94720, Note_on_c, 14, 35, 95
8, 95040, Note_off_c, 14, 35, 95
8, 95040, Note_on_c, 14, 33, 95
8, 95360, Note_off_c, 14, 33, 95
8, 95360, Note_on_c, 14, 34, 95
8, 95680, Note_off_c, 14, 34, 95
8, 95680, Note_on_c, 14, 35, 95
8, 96000, Note_off_c, 14, 35, 95
8, 96000, Note_on_c, 14, 41, 95
8, 96960, Note_off_c, 14, 41, 95
8, 96960, Note_on_c, 14, 41, 95
8, 97920, Note_off_c, 14, 41, 95
8, 98560, Note_on_c, 14, 35, 95
8, 98880, Note_off_c, 14, 35, 95
8, 98880, Note_on_c, 14, 33, 95
8, 99200, Note_off_c, 14, 33, 95
8, 99200, Note_on_c, 14, 34, 95
8, 99520, Note_off_c, 14, 34, 95
8, 99520, Note_on_c, 14, 35, 95
8, 99840, Note_off_c, 14, 35, 95
8, 99840, Note_on_c, 14, 31, 95
8, 100800, Note_off_c, 14, 31, 95
8, 100800, Note_on_c, 14, 31, 95
8, 101760, Note_off_c, 14, 31, 95
8, 102400, Note_on_c, 14, 35, 95
8, 102720, Note_off_c, 14, 35, 95
8, 102720, Note_on_c, 14, 33, 95
8, 103040, Note_off_c, 14, 33, 95
8, 103040, Note_on_c, 14, 34, 95
8, 103360, Note_off_c, 14, 34, 95
8, 103360, Note_on_c, 14, 35, 95
8, 103680, Note_off_c, 14, 35, 95
8, 103680, Note_on_c, 14, 31, 95
8, 104640, Note_off_c, 14, 31, 95
8, 104640, Note_on_c, 14, 31, 95
8, 105600, Note_off_c, 14, 31, 95
8, 107200, Note_on_c, 14, 35, 95
8, 107520, Note_off_c, 14, 35, 95
8, 107520, Note_on_c, 14, 40, 95
8, 108480, Note_off_c, 14, 40, 95
8, 108480, Note_on_c, 14, 40, 95
8, 109440, Note_off_c, 14, 40, 95
8, 109440, Note_on_c, 14, 40, 95
8, 110400, Note_off_c, 14, 40, 95
8, 110400, Note_on_c, 14, 42, 95
8, 111360, Note_off_c, 14, 42, 95
8, 111360, Note_on_c, 14, 43, 95
8, 112320, Note_off_c, 14, 43, 95
8, 112320, Note_on_c, 14, 43, 95
8, 112960, Note_off_c, 14, 43, 95
8, 112960, Note_on_c, 14, 43, 95
8, 113280, Note_off_c, 14, 43, 95
8, 113280, Note_on_c, 14, 43, 95
8, 114240, Note_off_c, 14, 43, 95
8, 114240, Note_on_c, 14, 38, 95
8, 115200, Note_off_c, 14, 38, 95
8, 115200, Note_on_c, 14, 40, 95
8, 116160, Note_off_c, 14, 40, 95
8, 116160, Note_on_c, 14, 40, 95
8, 117120, Note_off_c, 14, 40, 95
8, 117120, Note_on_c, 14, 40, 95
8, 118080, Note_off_c, 14, 40, 95
8, 118080, Note_on_c, 14, 42, 95
8, 119040, Note_off_c, 14, 42, 95
8, 119040, Note_on_c, 14, 43, 95
8, 120000, Note_off_c, 14, 43, 95
8, 120000, Note_on_c, 14, 43, 95
8, 120640, Note_off_c, 14, 43, 95
8, 120640, Note_on_c, 14, 43, 95
8, 120960, Note_off_c, 14, 43, 95
8, 120960, Note_on_c, 14, 43, 95
8, 121920, Note_off_c, 14, 43, 95
8, 121920, Note_on_c, 14, 38, 95
8, 122880, Note_off_c, 14, 38, 95
8, 122880, Note_on_c, 14, 40, 95
8, 123840, Note_off_c, 14, 40, 95
8, 123840, Note_on_c, 14, 40, 95
8, 124800, Note_off_c, 14, 40, 95
8, 124800, Note_on_c, 14, 40, 95
8, 125760, Note_off_c, 14, 40, 95
8, 125760, Note_on_c, 14, 42, 95
8, 126720, Note_off_c, 14, 42, 95
8, 126720, Note_on_c, 14, 43, 95
8, 127680, Note_off_c, 14, 43, 95
8, 127680, Note_on_c, 14, 43, 95
8, 128320, Note_off_c, 14, 43, 95
8, 128320, Note_on_c, 14, 43, 95
8, 128640, Note_off_c, 14, 43, 95
8, 128640, Note_on_c, 14, 43, 95
8, 129600, Note_off_c, 14, 43, 95
8, 129600, Note_on_c, 14, 38, 95
8, 130560, Note_off_c, 14, 38, 95
8, 130560, Note_on_c, 14, 40, 95
8, 131520, Note_off_c, 14, 40, 95
8, 131520, Note_on_c, 14, 40, 95
8, 132480, Note_off_c, 14, 40, 95
8, 132480, Note_on_c, 14, 40, 95
8, 133440, Note_off_c, 14, 40, 95
8, 133440, Note_on_c, 14, 40, 95
8, 134400, Note_off_c, 14, 40, 95
8, 134400, Note_on_c, 14, 38, 95
8, 135360, Note_off_c, 14, 38, 95
8, 135360, Note_on_c, 14, 37, 95
8, 136320, Note_off_c, 14, 37, 95
8, 136320, Note_on_c, 14, 36, 95
8, 137280, Note_off_c, 14, 36, 95
8, 137280, Note_on_c, 14, 35, 95
8, 138240, Note_off_c, 14, 35, 95
8, 138240, Note_on_c, 14, 38, 95
8, 139200, Note_off_c, 14, 38, 95
8, 139200, Note_on_c, 14, 37, 95
8, 140160, Note_off_c, 14, 37, 95
8, 140160, Note_on_c, 14, 36, 95
8, 141120, Note_off_c, 14, 36, 95
8, 141120, Note_on_c, 14, 35, 95
8, 142080, Note_off_c, 14, 35, 95
8, 142080, Note_on_c, 14, 40, 95
8, 143040, Note_off_c, 14, 40, 95
8, 143040, Note_on_c, 14, 40, 95
8, 144000, Note_off_c, 14, 40, 95
8, 144640, Note_on_c, 14, 35, 95
8, 144960, Note_off_c, 14, 35, 95
8, 144960, Note_on_c, 14, 33, 95
8, 145280, Note_off_c, 14, 33, 95
8, 145280, Note_on_c, 14, 34, 95
8, 145600, Note_off_c, 14, 34, 95
8, 145600, Note_on_c, 14, 35, 95
8, 145920, Note_off_c, 14, 35, 95
8, 145920, Note_on_c, 14, 41, 95
8, 146880, Note_off_c, 14, 41, 95
8, 146880, Note_on_c, 14, 41, 95
8, 147840, Note_off_c, 14, 41, 95
8, 148480, Note_on_c, 14, 35, 95
8, 148800, Note_off_c, 14, 35, 95
8, 148800, Note_on_c, 14, 33, 95
8, 149120, Note_off_c, 14, 33, 95
8, 149120, Note_on_c, 14, 34, 95
8, 149440, Note_off_c, 14, 34, 95
8, 149440, Note_on_c, 14, 35, 95
8, 149760, Note_off_c, 14, 35, 95
8, 149760, Note_on_c, 14, 31, 95
8, 150720, Note_off_c, 14, 31, 95
8, 150720, Note_on_c, 14, 31, 95
8, 151680, Note_off_c, 14, 31, 95
8, 152320, Note_on_c, 14, 35, 95
8, 152640, Note_off_c, 14, 35, 95
8, 152640, Note_on_c, 14, 33, 95
8, 152960, Note_off_c, 14, 33, 95
8, 152960, Note_on_c, 14, 34, 95
8, 153280, Note_off_c, 14, 34, 95
8, 153280, Note_on_c, 14, 35, 95
8, 153600, Note_off_c, 14, 35, 95
8, 153600, Note_on_c, 14, 31, 95
8, 154560, Note_off_c, 14, 31, 95
8, 154560, Note_on_c, 14, 31, 95
8, 155520, Note_off_c, 14, 31, 95
8, 157120, Note_on_c, 14, 35, 95
8, 157440, Note_off_c, 14, 35, 95
8, 157440, Note_on_c, 14, 40, 95
8, 158400, Note_off_c, 14, 40, 95
8, 158400, Note_on_c, 14, 40, 95
8, 159360, Note_off_c, 14, 40, 95
8, 160000, Note_on_c, 14, 35, 95
8, 160320, Note_off_c, 14, 35, 95
8, 160320, Note_on_c, 14, 33, 95
8, 160640, Note_off_c, 14, 33, 95
8, 160640, Note_on_c, 14, 34, 95
8, 160960, Note_off_c, 14, 34, 95
8, 160960, Note_on_c, 14, 35, 95
8, 161280, Note_off_c, 14, 35, 95
8, 161280, Note_on_c, 14, 41, 95
8, 162240, Note_off_c, 14, 41, 95
8, 162240, Note_on_c, 14, 41, 95
8, 163200, Note_off_c, 14, 41, 95
8, 163840, Note_on_c, 14, 35, 95
8, 164160, Note_off_c, 14, 35, 95
8, 164160, Note_on_c, 14, 33, 95
8, 164480, Note_off_c, 14, 33, 95
8, 164480, Note_on_c, 14, 34, 95
8, 164800, Note_off_c, 14, 34, 95
8, 164800, Note_on_c, 14, 35, 95
8, 165120, Note_off_c, 14, 35, 95
8, 165120, Note_on_c, 14, 31, 95
8, 166080, Note_off_c, 14, 31, 95
8, 166080, Note_on_c, 14, 31, 95
8, 167040, Note_off_c, 14, 31, 95
8, 167680, Note_on_c, 14, 35, 95
8, 168000, Note_off_c, 14, 35, 95
8, 168000, Note_on_c, 14, 33, 95
8, 168320, Note_off_c, 14, 33, 95
8, 168320, Note_on_c, 14, 34, 95
8, 168640, Note_off_c, 14, 34, 95
8, 168640, Note_on_c, 14, 35, 95
8, 168960, Note_off_c, 14, 35, 95
8, 168960, Note_on_c, 14, 31, 95
8, 169920, Note_off_c, 14, 31, 95
8, 169920, Note_on_c, 14, 31, 95
8, 170880, Note_off_c, 14, 31, 95
8, 172480, Note_on_c, 14, 35, 95
8, 172800, Note_off_c, 14, 35, 95
8, 172800, Note_on_c, 14, 40, 95
8, 173760, Note_off_c, 14, 40, 95
8, 173760, Note_on_c, 14, 40, 95
8, 174720, Note_off_c, 14, 40, 95
8, 175360, Note_on_c, 14, 35, 95
8, 175680, Note_off_c, 14, 35, 95
8, 175680, Note_on_c, 14, 33, 95
8, 176000, Note_off_c, 14, 33, 95
8, 176000, Note_on_c, 14, 34, 95
8, 176320, Note_off_c, 14, 34, 95
8, 176320, Note_on_c, 14, 35, 95
8, 176640, Note_off_c, 14, 35, 95
8, 176640, Note_on_c, 14, 41, 95
8, 177600, Note_off_c, 14, 41, 95
8, 177600, Note_on_c, 14, 41, 95
8, 178560, Note_off_c, 14, 41, 95
8, 179200, Note_on_c, 14, 35, 95
8, 179520, Note_off_c, 14, 35, 95
8, 179520, Note_on_c, 14, 33, 95
8, 179840, Note_off_c, 14, 33, 95
8, 179840, Note_on_c, 14, 34, 95
8, 180160, Note_off_c, 14, 34, 95
8, 180160, Note_on_c, 14, 35, 95
8, 180480, Note_off_c, 14, 35, 95
8, 180480, Note_on_c, 14, 31, 95
8, 181440, Note_off_c, 14, 31, 95
8, 181440, Note_on_c, 14, 31, 95
8, 182400, Note_off_c, 14, 31, 95
8, 183040, Note_on_c, 14, 35, 95
8, 183360, Note_off_c, 14, 35, 95
8, 183360, Note_on_c, 14, 33, 95
8, 183680, Note_off_c, 14, 33, 95
8, 183680, Note_on_c, 14, 34, 95
8, 184000, Note_off_c, 14, 34, 95
8, 184000, Note_on_c, 14, 35, 95
8, 184320, Note_off_c, 14, 35, 95
8, 184320, Note_on_c, 14, 31, 95
8, 185280, Note_off_c, 14, 31, 95
8, 185280, Note_on_c, 14, 31, 95
8, 186240, Note_off_c, 14, 31, 95
8, 187840, Note_on_c, 14, 35, 95
8, 188160, Note_off_c, 14, 35, 95
8, 188160, Note_on_c, 14, 40, 95
8, 189120, Note_off_c, 14, 40, 95
8, 189120, Note_on_c, 14, 40, 95
8, 190080, Note_off_c, 14, 40, 95
8, 190720, Note_on_c, 14, 35, 95
8, 191040, Note_off_c, 14, 35, 95
8, 191040, Note_on_c, 14, 33, 95
8, 191360, Note_off_c, 14, 33, 95
8, 191360, Note_on_c, 14, 34, 95
8, 191680, Note_off_c, 14, 34, 95
8, 191680, Note_on_c, 14, 35, 95
8, 192000, Note_off_c, 14, 35, 95
8, 192000, Note_on_c, 14, 41, 95
8, 192960, Note_off_c, 14, 41, 95
8, 192960, Note_on_c, 14, 41, 95
8, 193920, Note_off_c, 14, 41, 95
8, 194560, Note_on_c, 14, 35, 95
8, 194880, Note_off_c, 14, 35, 95
8, 194880, Note_on_c, 14, 33, 95
8, 195200, Note_off_c, 14, 33, 95
8, 195200, Note_on_c, 14, 34, 95
8, 195520, Note_off_c, 14, 34, 95
8, 195520, Note_on_c, 14, 35, 95
8, 195840, Note_off_c, 14, 35, 95
8, 195840, Note_on_c, 14, 31, 95
8, 196800, Note_off_c, 14, 31, 95
8, 196800, Note_on_c, 14, 31, 95
8, 197760, Note_off_c, 14, 31, 95
8, 198400, Note_on_c, 14, 35, 95
8, 198720, Note_off_c, 14, 35, 95
8, 198720, Note_on_c, 14, 33, 95
8, 199040, Note_off_c, 14, 33, 95
8, 199040, Note_on_c, 14, 34, 95
8, 199360, Note_off_c, 14, 34, 95
8, 199360, Note_on_c, 14, 35, 95
8, 199680, Note_off_c, 14, 35, 95
8, 199680, Note_on_c, 14, 31, 95
8, 200640, Note_off_c, 14, 31, 95
8, 200640, Note_on_c, 14, 31, 95
8, 201600, Note_off_c, 14, 31, 95
8, 203200, Note_on_c, 14, 35, 95
8, 203520, Note_off_c, 14, 35, 95
8, 203520, Note_on_c, 14, 40, 95
8, 204480, Note_off_c, 14, 40, 95
8, 204480, Note_on_c, 14, 40, 95
8, 205440, Note_off_c, 14, 40, 95
8, 205440, Note_on_c, 14, 40, 95
8, 206400, Note_off_c, 14, 40, 95
8, 206400, Note_on_c, 14, 42, 95
8, 207360, Note_off_c, 14, 42, 95
8, 207360, Note_on_c, 14, 43, 95
8, 208320, Note_off_c, 14, 43, 95
8, 208320, Note_on_c, 14, 43, 95
8, 208960, Note_off_c, 14, 43, 95
8, 208960, Note_on_c, 14, 43, 95
8, 209280, Note_off_c, 14, 43, 95
8, 209280, Note_on_c, 14, 43, 95
8, 210240, Note_off_c, 14, 43, 95
8, 210240, Note_on_c, 14, 38, 95
8, 211200, Note_off_c, 14, 38, 95
8, 211200, Note_on_c, 14, 40, 95
8, 212160, Note_off_c, 14, 40, 95
8, 212160, Note_on_c, 14, 40, 95
8, 213120, Note_off_c, 14, 40, 95
8, 213120, Note_on_c, 14, 40, 95
8, 214080, Note_off_c, 14, 40, 95
8, 214080, Note_on_c, 14, 42, 95
8, 215040, Note_off_c, 14, 42, 95
8, 215040, Note_on_c, 14, 43, 95
8, 216000, Note_off_c, 14, 43, 95
8, 216000, Note_on_c, 14, 43, 95
8, 216640, Note_off_c, 14, 43, 95
8, 216640, Note_on_c, 14, 43, 95
8, 216960, Note_off_c, 14, 43, 95
8, 216960, Note_on_c, 14, 43, 95
8, 217920, Note_off_c, 14, 43, 95
8, 217920, Note_on_c, 14, 38, 95
8, 218880, Note_off_c, 14, 38, 95
8, 218880, Note_on_c, 14, 40, 95
8, 219840, Note_off_c, 14, 40, 95
8, 219840, Note_on_c, 14, 40, 95
8, 220800, Note_off_c, 14, 40, 95
8, 220800, Note_on_c, 14, 40, 95
8, 221760, Note_off_c, 14, 40, 95
8, 221760, Note_on_c, 14, 42, 95
8, 222720, Note_off_c, 14, 42, 95
8, 222720, Note_on_c, 14, 43, 95
8, 223680, Note_off_c, 14, 43, 95
8, 223680, Note_on_c, 14, 43, 95
8, 224320, Note_off_c, 14, 43, 95
8, 224320, Note_on_c, 14, 43, 95
8, 224640, Note_off_c, 14, 43, 95
8, 224640, Note_on_c, 14, 43, 95
8, 225600, Note_off_c, 14, 43, 95
8, 225600, Note_on_c, 14, 38, 95
8, 226560, Note_off_c, 14, 38, 95
8, 226560, Note_on_c, 14, 40, 95
8, 227520, Note_off_c, 14, 40, 95
8, 227520, Note_on_c, 14, 40, 95
8, 228480, Note_off_c, 14, 40, 95
8, 228480, Note_on_c, 14, 40, 95
8, 229440, Note_off_c, 14, 40, 95
8, 229440, Note_on_c, 14, 40, 95
8, 230400, Note_off_c, 14, 40, 95
8, 230400, Note_on_c, 14, 38, 95
8, 231360, Note_off_c, 14, 38, 95
8, 231360, Note_on_c, 14, 37, 95
8, 232320, Note_off_c, 14, 37, 95
8, 232320, Note_on_c, 14, 36, 95
8, 233280, Note_off_c, 14, 36, 95
8, 233280, Note_on_c, 14, 35, 95
8, 234240, Note_off_c, 14, 35, 95
8, 234240, Note_on_c, 14, 38, 95
8, 235200, Note_off_c, 14, 38, 95
8, 235200, Note_on_c, 14, 37, 95
8, 236160, Note_off_c, 14, 37, 95
8, 236160, Note_on_c, 14, 36, 95
8, 237120, Note_off_c, 14, 36, 95
8, 237120, Note_on_c, 14, 35, 95
8, 238080, Note_off_c, 14, 35, 95
8, 238080, Note_on_c, 14, 40, 95
8, 240960, Note_off_c, 14, 40, 95
8, 240960, Note_on_c, 14, 43, 95
8, 241280, Note_off_c, 14, 43, 95
8, 241280, Note_on_c, 14, 40, 95
8, 241600, Note_off_c, 14, 40, 95
8, 241600, Note_on_c, 14, 43, 95
8, 241920, Note_off_c, 14, 43, 95
8, 241920, Note_on_c, 15, 48, 95
8, 242040, Pitch_bend_c, 15, 8192
8, 242160, Pitch_bend_c, 15, 8192
8, 242280, Pitch_bend_c, 15, 8192
8, 242400, Pitch_bend_c, 15, 8192
8, 242520, Pitch_bend_c, 15, 8192
8, 242640, Pitch_bend_c, 15, 8192
8, 242760, Pitch_bend_c, 15, 8192
8, 242880, Pitch_bend_c, 15, 8192
8, 243000, Pitch_bend_c, 15, 8192
8, 243120, Pitch_bend_c, 15, 8192
8, 243240, Pitch_bend_c, 15, 8192
8, 243360, Pitch_bend_c, 15, 8192
8, 243480, Pitch_bend_c, 15, 8192
8, 243600, Pitch_bend_c, 15, 8192
8, 243720, Pitch_bend_c, 15, 8192
8, 243840, Pitch_bend_c, 15, 8192
8, 243840, Pitch_bend_c, 15, 8192
8, 244800, Note_off_c, 15, 48, 95
8, 244800, Note_on_c, 15, 35, 95
8, 244920, Pitch_bend_c, 15, 8576
8, 245040, Pitch_bend_c, 15, 8960
8, 245160, Pitch_bend_c, 15, 9472
8, 245280, Pitch_bend_c, 15, 9856
8, 245400, Pitch_bend_c, 15, 10368
8, 245520, Pitch_bend_c, 15, 10752
8, 245640, Pitch_bend_c, 15, 11264
8, 245760, Pitch_bend_c, 15, 11648
8, 245760, Pitch_bend_c, 15, 8192
8, 245760, Note_off_c, 15, 35, 95
8, 245760, Note_on_c, 14, 40, 95
8, 248640, Note_off_c, 14, 40, 95
8, 248640, Note_on_c, 14, 43, 95
8, 248960, Note_off_c, 14, 43, 95
8, 248960, Note_on_c, 14, 40, 95
8, 249280, Note_off_c, 14, 40, 95
8, 249280, Note_on_c, 14, 43, 95
8, 249600, Note_off_c, 14, 43, 95
8, 249600, Note_on_c, 14, 36, 95
8, 252480, Note_off_c, 14, 36, 95
8, 252480, Note_on_c, 15, 35, 95
8, 252600, Pitch_bend_c, 15, 8576
8, 252720, Pitch_bend_c, 15, 8960
8, 252840, Pitch_bend_c, 15, 9472
8, 252960, Pitch_bend_c, 15, 9856
8, 253080, Pitch_bend_c, 15, 10368
8, 253200, Pitch_bend_c, 15, 10752
8, 253320, Pitch_bend_c, 15, 11264
8, 253440, Pitch_bend_c, 15, 11648
8, 253440, Pitch_bend_c, 15, 8192
8, 253440, Note_off_c, 15, 35, 95
8, 253440, Note_on_c, 14, 40, 95
8, 256320, Note_off_c, 14, 40, 95
8, 256320, Note_on_c, 14, 43, 95
8, 256640, Note_off_c, 14, 43, 95
8, 256640, Note_on_c, 14, 40, 95
8, 256960, Note_off_c, 14, 40, 95
8, 256960, Note_on_c, 14, 43, 95
8, 257280, Note_off_c, 14, 43, 95
8, 257280, Note_on_c, 15, 48, 95
8, 257400, Pitch_bend_c, 15, 8192
8, 257520, Pitch_bend_c, 15, 8192
8, 257640, Pitch_bend_c, 15, 8192
8, 257760, Pitch_bend_c, 15, 8192
8, 257880, Pitch_bend_c, 15, 8192
8, 258000, Pitch_bend_c, 15, 8192
8, 258120, Pitch_bend_c, 15, 8192
8, 258240, Pitch_bend_c, 15, 8192
8, 258360, Pitch_bend_c, 15, 8192
8, 258480, Pitch_bend_c, 15, 8192
8, 258600, Pitch_bend_c, 15, 8192
8, 258720, Pitch_bend_c, 15, 8192
8, 258840, Pitch_bend_c, 15, 8192
8, 258960, Pitch_bend_c, 15, 8192
8, 259080, Pitch_bend_c, 15, 8192
8, 259200, Pitch_bend_c, 15, 8192
8, 259200, Pitch_bend_c, 15, 8192
8, 260160, Note_off_c, 15, 48, 95
8, 260160, Note_on_c, 15, 35, 95
8, 260280, Pitch_bend_c, 15, 8576
8, 260400, Pitch_bend_c, 15, 8960
8, 260520, Pitch_bend_c, 15, 9472
8, 260640, Pitch_bend_c, 15, 9856
8, 260760, Pitch_bend_c, 15, 10368
8, 260880, Pitch_bend_c, 15, 10752
8, 261000, Pitch_bend_c, 15, 11264
8, 261120, Pitch_bend_c, 15, 11648
8, 261120, Pitch_bend_c, 15, 8192
8, 261120, Note_off_c, 15, 35, 95
8, 261120, Note_on_c, 14, 40, 95
8, 264000, Note_off_c, 14, 40, 95
8, 264000, Note_on_c, 14, 43, 95
8, 264320, Note_off_c, 14, 43, 95
8, 264320, Note_on_c, 14, 40, 95
8, 264640, Note_off_c, 14, 40, 95
8, 264640, Note_on_c, 14, 43, 95
8, 264960, Note_off_c, 14, 43, 95
8, 264960, Note_on_c, 14, 36, 95
8, 267840, Note_off_c, 14, 36, 95
8, 267840, Note_on_c, 15, 35, 95
8, 267960, Pitch_bend_c, 15, 8576
8, 268080, Pitch_bend_c, 15, 8960
8, 268200, Pitch_bend_c, 15, 9472
8, 268320, Pitch_bend_c, 15, 9856
8, 268440, Pitch_bend_c, 15, 10368
8, 268560, Pitch_bend_c, 15, 10752
8, 268680, Pitch_bend_c, 15, 11264
8, 268800, Pitch_bend_c, 15, 11648
8, 268800, Pitch_bend_c, 15, 8192
8, 268800, Note_off_c, 15, 35, 95
8, 268800, Note_on_c, 14, 40, 95
8, 269760, Note_off_c, 14, 40, 95
8, 269760, Note_on_c, 14, 40, 95
8, 270720, Note_off_c, 14, 40, 95
8, 271360, Note_on_c, 14, 35, 95
8, 271680, Note_off_c, 14, 35, 95
8, 271680, Note_on_c, 14, 33, 95
8, 272000, Note_off_c, 14, 33, 95
8, 272000, Note_on_c, 14, 34, 95
8, 272320, Note_off_c, 14, 34, 95
8, 272320, Note_on_c, 14, 35, 95
8, 272640, Note_off_c, 14, 35, 95
8, 272640, Note_on_c, 14, 41, 95
8, 273600, Note_off_c, 14, 41, 95
8, 273600, Note_on_c, 14, 41, 95
8, 274560, Note_off_c, 14, 41, 95
8, 275200, Note_on_c, 14, 35, 95
8, 275520, Note_off_c, 14, 35, 95
8, 275520, Note_on_c, 14, 33, 95
8, 275840, Note_off_c, 14, 33, 95
8, 275840, Note_on_c, 14, 34, 95
8, 276160, Note_off_c, 14, 34, 95
8, 276160, Note_on_c, 14, 35, 95
8, 276480, Note_off_c, 14, 35, 95
8, 276480, Note_on_c, 14, 31, 95
8, 277440, Note_off_c, 14, 31, 95
8, 277440, Note_on_c, 14, 31, 95
8, 278400, Note_off_c, 14, 31, 95
8, 279040, Note_on_c, 14, 35, 95
8, 279360, Note_off_c, 14, 35, 95
8, 279360, Note_on_c, 14, 33, 95
8, 279680, Note_off_c, 14, 33, 95
8, 279680, Note_on_c, 14, 34, 95
8, 280000, Note_off_c, 14, 34, 95
8, 280000, Note_on_c, 14, 35, 95
8, 280320, Note_off_c, 14, 35, 95
8, 280320, Note_on_c, 14, 31, 95
8, 281280, Note_off_c, 14, 31, 95
8, 281280, Note_on_c, 14, 31, 95
8, 282240, Note_off_c, 14, 31, 95
8, 283840, Note_on_c, 14, 35, 95
8, 284160, Note_off_c, 14, 35, 95
8, 284160, Note_on_c, 14, 40, 95
8, 285120, Note_off_c, 14, 40, 95
8, 285120, Note_on_c, 14, 40, 95
8, 286080, Note_off_c, 14, 40, 95
8, 286720, Note_on_c, 14, 35, 95
8, 287040, Note_off_c, 14, 35, 95
8, 287040, Note_on_c, 14, 33, 95
8, 287360, Note_off_c, 14, 33, 95
8, 287360, Note_on_c, 14, 34, 95
8, 287680, Note_off_c, 14, 34, 95
8, 287680, Note_on_c, 14, 35, 95
8, 288000, Note_off_c, 14, 35, 95
8, 288000, Note_on_c, 14, 41, 95
8, 288960, Note_off_c, 14, 41, 95
8, 288960, Note_on_c, 14, 41, 95
8, 289920, Note_off_c, 14, 41, 95
8, 290560, Note_on_c, 14, 35, 95
8, 290880, Note_off_c, 14, 35, 95
8, 290880, Note_on_c, 14, 33, 95
8, 291200, Note_off_c, 14, 33, 95
8, 291200, Note_on_c, 14, 34, 95
8, 291520, Note_off_c, 14, 34, 95
8, 291520, Note_on_c, 14, 35, 95
8, 291840, Note_off_c, 14, 35, 95
8, 291840, Note_on_c, 14, 31, 95
8, 292800, Note_off_c, 14, 31, 95
8, 292800, Note_on_c, 14, 31, 95
8, 293760, Note_off_c, 14, 31, 95
8, 294400, Note_on_c, 14, 35, 95
8, 294720, Note_off_c, 14, 35, 95
8, 294720, Note_on_c, 14, 33, 95
8, 295040, Note_off_c, 14, 33, 95
8, 295040, Note_on_c, 14, 34, 95
8, 295360, Note_off_c, 14, 34, 95
8, 295360, Note_on_c, 14, 35, 95
8, 295680, Note_off_c, 14, 35, 95
8, 295680, Note_on_c, 14, 36, 95
8, 296640, Note_off_c, 14, 36, 95
8, 296640, Note_on_c, 14, 36, 95
8, 297600, Note_off_c, 14, 36, 95
8, 299200, Note_on_c, 14, 35, 95
8, 299520, Note_off_c, 14, 35, 95
8, 299520, Note_on_c, 14, 40, 95
8, 300480, Note_off_c, 14, 40, 95
8, 300480, Note_on_c, 14, 40, 95
8, 301440, Note_off_c, 14, 40, 95
8, 301440, Note_on_c, 14, 40, 95
8, 302400, Note_off_c, 14, 40, 95
8, 302400, Note_on_c, 14, 42, 95
8, 303360, Note_off_c, 14, 42, 95
8, 303360, Note_on_c, 14, 43, 95
8, 304320, Note_off_c, 14, 43, 95
8, 304320, Note_on_c, 14, 43, 95
8, 304960, Note_off_c, 14, 43, 95
8, 304960, Note_on_c, 14, 43, 95
8, 305280, Note_off_c, 14, 43, 95
8, 305280, Note_on_c, 14, 43, 95
8, 306240, Note_off_c, 14, 43, 95
8, 306240, Note_on_c, 14, 38, 95
8, 307200, Note_off_c, 14, 38, 95
8, 307200, Note_on_c, 14, 40, 95
8, 308160, Note_off_c, 14, 40, 95
8, 308160, Note_on_c, 14, 40, 95
8, 309120, Note_off_c, 14, 40, 95
8, 309120, Note_on_c, 14, 40, 95
8, 310080, Note_off_c, 14, 40, 95
8, 310080, Note_on_c, 14, 42, 95
8, 311040, Note_off_c, 14, 42, 95
8, 311040, Note_on_c, 14, 43, 95
8, 312000, Note_off_c, 14, 43, 95
8, 312000, Note_on_c, 14, 43, 95
8, 312640, Note_off_c, 14, 43, 95
8, 312640, Note_on_c, 14, 43, 95
8, 312960, Note_off_c, 14, 43, 95
8, 312960, Note_on_c, 14, 43, 95
8, 313920, Note_off_c, 14, 43, 95
8, 313920, Note_on_c, 14, 38, 95
8, 314880, Note_off_c, 14, 38, 95
8, 314880, Note_on_c, 14, 40, 95
8, 315840, Note_off_c, 14, 40, 95
8, 315840, Note_on_c, 14, 40, 95
8, 316800, Note_off_c, 14, 40, 95
8, 316800, Note_on_c, 14, 40, 95
8, 317760, Note_off_c, 14, 40, 95
8, 317760, Note_on_c, 14, 42, 95
8, 318720, Note_off_c, 14, 42, 95
8, 318720, Note_on_c, 14, 43, 95
8, 319680, Note_off_c, 14, 43, 95
8, 319680, Note_on_c, 14, 43, 95
8, 320320, Note_off_c, 14, 43, 95
8, 320320, Note_on_c, 14, 43, 95
8, 320640, Note_off_c, 14, 43, 95
8, 320640, Note_on_c, 14, 43, 95
8, 321600, Note_off_c, 14, 43, 95
8, 321600, Note_on_c, 14, 38, 95
8, 322560, Note_off_c, 14, 38, 95
8, 322560, Note_on_c, 14, 40, 95
8, 323520, Note_off_c, 14, 40, 95
8, 323520, Note_on_c, 14, 40, 95
8, 324480, Note_off_c, 14, 40, 95
8, 324480, Note_on_c, 14, 40, 95
8, 325440, Note_off_c, 14, 40, 95
8, 325440, Note_on_c, 14, 40, 95
8, 326400, Note_off_c, 14, 40, 95
8, 326400, Note_on_c, 14, 38, 95
8, 327360, Note_off_c, 14, 38, 95
8, 327360, Note_on_c, 14, 37, 95
8, 328320, Note_off_c, 14, 37, 95
8, 328320, Note_on_c, 14, 36, 95
8, 329280, Note_off_c, 14, 36, 95
8, 329280, Note_on_c, 14, 35, 95
8, 330240, Note_off_c, 14, 35, 95
8, 330240, Note_on_c, 14, 38, 95
8, 331200, Note_off_c, 14, 38, 95
8, 331200, Note_on_c, 14, 37, 95
8, 332160, Note_off_c, 14, 37, 95
8, 332160, Note_on_c, 14, 36, 95
8, 333120, Note_off_c, 14, 36, 95
8, 333120, Note_on_c, 14, 35, 95
8, 334080, Note_off_c, 14, 35, 95
8, 334080, Note_on_c, 14, 40, 95
8, 335040, Note_off_c, 14, 40, 95
8, 335040, Note_on_c, 14, 40, 95
8, 336000, Note_off_c, 14, 40, 95
8, 348480, Note_on_c, 15, 35, 95
8, 348600, Pitch_bend_c, 15, 8576
8, 348720, Pitch_bend_c, 15, 8960
8, 348840, Pitch_bend_c, 15, 9472
8, 348960, Pitch_bend_c, 15, 9856
8, 349080, Pitch_bend_c, 15, 10368
8, 349200, Pitch_bend_c, 15, 10752
8, 349320, Pitch_bend_c, 15, 11264
8, 349440, Pitch_bend_c, 15, 11648
8, 349440, Pitch_bend_c, 15, 8192
8, 349440, Note_off_c, 15, 35, 95
8, 349440, Note_on_c, 14, 40, 95
8, 352320, Note_off_c, 14, 40, 95
8, 352320, Note_on_c, 14, 43, 95
8, 352640, Note_off_c, 14, 43, 95
8, 352640, Note_on_c, 14, 40, 95
8, 352960, Note_off_c, 14, 40, 95
8, 352960, Note_on_c, 14, 43, 95
8, 353280, Note_off_c, 14, 43, 95
8, 353280, Note_on_c, 15, 48, 95
8, 353400, Pitch_bend_c, 15, 8192
8, 353520, Pitch_bend_c, 15, 8192
8, 353640, Pitch_bend_c, 15, 8192
8, 353760, Pitch_bend_c, 15, 8192
8, 353880, Pitch_bend_c, 15, 8192
8, 354000, Pitch_bend_c, 15, 8192
8, 354120, Pitch_bend_c, 15, 8192
8, 354240, Pitch_bend_c, 15, 8192
8, 354360, Pitch_bend_c, 15, 8192
8, 354480, Pitch_bend_c, 15, 8192
8, 354600, Pitch_bend_c, 15, 8192
8, 354720, Pitch_bend_c, 15, 8192
8, 354840, Pitch_bend_c, 15, 8192
8, 354960, Pitch_bend_c, 15, 8192
8, 355080, Pitch_bend_c, 15, 8192
8, 355200, Pitch_bend_c, 15, 8192
8, 355200, Pitch_bend_c, 15, 8192
8, 356160, Note_off_c, 15, 48, 95
8, 356160, Note_on_c, 15, 35, 95
8, 356280, Pitch_bend_c, 15, 8576
8, 356400, Pitch_bend_c, 15, 8960
8, 356520, Pitch_bend_c, 15, 9472
8, 356640, Pitch_bend_c, 15, 9856
8, 356760, Pitch_bend_c, 15, 10368
8, 356880, Pitch_bend_c, 15, 10752
8, 357000, Pitch_bend_c, 15, 11264
8, 357120, Pitch_bend_c, 15, 11648
8, 357120, Pitch_bend_c, 15, 8192
8, 357120, Note_off_c, 15, 35, 95
8, 357120, Note_on_c, 14, 40, 95
8, 360000, Note_off_c, 14, 40, 95
8, 360000, Note_on_c, 14, 43, 95
8, 360320, Note_off_c, 14, 43, 95
8, 360320, Note_on_c, 14, 40, 95
8, 360640, Note_off_c, 14, 40, 95
8, 360640, Note_on_c, 14, 43, 95
8, 360960, Note_off_c, 14, 43, 95
8, 360960, Note_on_c, 14, 36, 95
8, 363840, Note_off_c, 14, 36, 95
8, 363840, Note_on_c, 15, 35, 95
8, 363960, Pitch_bend_c, 15, 8576
8, 364080, Pitch_bend_c, 15, 8960
8, 364200, Pitch_bend_c, 15, 9472
8, 364320, Pitch_bend_c, 15, 9856
8, 364440, Pitch_bend_c, 15, 10368
8, 364560, Pitch_bend_c, 15, 10752
8, 364680, Pitch_bend_c, 15, 11264
8, 364800, Pitch_bend_c, 15, 11648
8, 364800, Pitch_bend_c, 15, 8192
8, 364800, Note_off_c, 15, 35, 95
8, 364800, Note_on_c, 14, 40, 95
8, 367680, Note_off_c, 14, 40, 95
8, 367680, Note_on_c, 14, 43, 95
8, 368000, Note_off_c, 14, 43, 95
8, 368000, Note_on_c, 14, 40, 95
8, 368320, Note_off_c, 14, 40, 95
8, 368320, Note_on_c, 14, 43, 95
8, 368640, Note_off_c, 14, 43, 95
8, 368640, Note_on_c, 15, 48, 95
8, 368760, Pitch_bend_c, 15, 8192
8, 368880, Pitch_bend_c, 15, 8192
8, 369000, Pitch_bend_c, 15, 8192
8, 369120, Pitch_bend_c, 15, 8192
8, 369240, Pitch_bend_c, 15, 8192
8, 369360, Pitch_bend_c, 15, 8192
8, 369480, Pitch_bend_c, 15, 8192
8, 369600, Pitch_bend_c, 15, 8192
8, 369720, Pitch_bend_c, 15, 8192
8, 369840, Pitch_bend_c, 15, 8192
8, 369960, Pitch_bend_c, 15, 8192
8, 370080, Pitch_bend_c, 15, 8192
8, 370200, Pitch_bend_c, 15, 8192
8, 370320, Pitch_bend_c, 15, 8192
8, 370440, Pitch_bend_c, 15, 8192
8, 370560, Pitch_bend_c, 15, 8192
8, 370560, Pitch_bend_c, 15, 8192
8, 371520, Note_off_c, 15, 48, 95
8, 371520, Note_on_c, 15, 35, 95
8, 371640, Pitch_bend_c, 15, 8576
8, 371760, Pitch_bend_c, 15, 8960
8, 371880, Pitch_bend_c, 15, 9472
8, 372000, Pitch_bend_c, 15, 9856
8, 372120, Pitch_bend_c, 15, 10368
8, 372240, Pitch_bend_c, 15, 10752
8, 372360, Pitch_bend_c, 15, 11264
8, 372480, Pitch_bend_c, 15, 11648
8, 372480, Pitch_bend_c, 15, 8192
8, 372480, Note_off_c, 15, 35, 95
8, 372480, Note_on_c, 14, 40, 95
8, 375360, Note_off_c, 14, 40, 95
8, 375360, Note_on_c, 14, 43, 95
8, 375680, Note_off_c, 14, 43, 95
8, 375680, Note_on_c, 14, 40, 95
8, 376000, Note_off_c, 14, 40, 95
8, 376000, Note_on_c, 14, 43, 95
8, 376320, Note_off_c, 14, 43, 95
8, 376320, Note_on_c, 14, 36, 95
8, 379200, Note_off_c, 14, 36, 95
8, 379200, Note_on_c, 15, 35, 95
8, 379320, Pitch_bend_c, 15, 8576
8, 379440, Pitch_bend_c, 15, 8960
8, 379560, Pitch_bend_c, 15, 9472
8, 379680, Pitch_bend_c, 15, 9856
8, 379800, Pitch_bend_c, 15, 10368
8, 379920, Pitch_bend_c, 15, 10752
8, 380040, Pitch_bend_c, 15, 11264
8, 380160, Pitch_bend_c, 15, 11648
8, 380160, Pitch_bend_c, 15, 8192
8, 380160, Note_off_c, 15, 35, 95
8, 380160, Note_on_c, 14, 40, 95
8, 383040, Note_off_c, 14, 40, 95
8, 383040, Note_on_c, 14, 43, 95
8, 383360, Note_off_c, 14, 43, 95
8, 383360, Note_on_c, 14, 40, 95
8, 383680, Note_off_c, 14, 40, 95
8, 383680, Note_on_c, 14, 43, 95
8, 384000, Note_off_c, 14, 43, 95
8, 384000, Note_on_c, 15, 48, 95
8, 384120, Pitch_bend_c, 15, 8192
8, 384240, Pitch_bend_c, 15, 8192
8, 384360, Pitch_bend_c, 15, 8192
8, 384480, Pitch_bend_c, 15, 8192
8, 384600, Pitch_bend_c, 15, 8192
8, 384720, Pitch_bend_c, 15, 8192
8, 384840, Pitch_bend_c, 15, 8192
8, 384960, Pitch_bend_c, 15, 8192
8, 385080, Pitch_bend_c, 15, 8192
8, 385200, Pitch_bend_c, 15, 8192
8, 385320, Pitch_bend_c, 15, 8192
8, 385440, Pitch_bend_c, 15, 8192
8, 385560, Pitch_bend_c, 15, 8192
8, 385680, Pitch_bend_c, 15, 8192
8, 385800, Pitch_bend_c, 15, 8192
8, 385920, Pitch_bend_c, 15, 8192
8, 385920, Pitch_bend_c, 15, 8192
8, 386880, Note_off_c, 15, 48, 95
8, 386880, Note_on_c, 15, 35, 95
8, 387000, Pitch_bend_c, 15, 8576
8, 387120, Pitch_bend_c, 15, 8960
8, 387240, Pitch_bend_c, 15, 9472
8, 387360, Pitch_bend_c, 15, 9856
8, 387480, Pitch_bend_c, 15, 10368
8, 387600, Pitch_bend_c, 15, 10752
8, 387720, Pitch_bend_c, 15, 11264
8, 387840, Pitch_bend_c, 15, 11648
8, 387840, Pitch_bend_c, 15, 8192
8, 387840, Note_off_c, 15, 35, 95
8, 387840, Note_on_c, 14, 40, 95
8, 390720, Note_off_c, 14, 40, 95
8, 390720, Note_on_c, 14, 43, 95
8, 391040, Note_off_c, 14, 43, 95
8, 391040, Note_on_c, 14, 40, 95
8, 391360, Note_off_c, 14, 40, 95
8, 391360, Note_on_c, 14, 43, 95
8, 391680, Note_off_c, 14, 43, 95
8, 391680, Note_on_c, 14, 36, 95
8, 394560, Note_off_c, 14, 36, 95
8, 394560, Note_on_c, 15, 35, 95
8, 394680, Pitch_bend_c, 15, 8576
8, 394800, Pitch_bend_c, 15, 8960
8, 394920, Pitch_bend_c, 15, 9472
8, 395040, Pitch_bend_c, 15, 9856
8, 395160, Pitch_bend_c, 15, 10368
8, 395280, Pitch_bend_c, 15, 10752
8, 395400, Pitch_bend_c, 15, 11264
8, 395520, Pitch_bend_c, 15, 11648
8, 395520, Pitch_bend_c, 15, 8192
8, 395520, Note_off_c, 15, 35, 95
8, 395520, Note_on_c, 14, 40, 95
8, 398400, Note_off_c, 14, 40, 95
8, 398400, Note_on_c, 14, 43, 95
8, 398720, Note_off_c, 14, 43, 95
8, 398720, Note_on_c, 14, 40, 95
8, 399040, Note_off_c, 14, 40, 95
8, 399040, Note_on_c, 14, 43, 95
8, 399360, Note_off_c, 14, 43, 95
8, 399360, Note_on_c, 15, 48, 95
8, 399480, Pitch_bend_c, 15, 8192
8, 399600, Pitch_bend_c, 15, 8192
8, 399720, Pitch_bend_c, 15, 8192
8, 399840, Pitch_bend_c, 15, 8192
8, 399960, Pitch_bend_c, 15, 8192
8, 400080, Pitch_bend_c, 15, 8192
8, 400200, Pitch_bend_c, 15, 8192
8, 400320, Pitch_bend_c, 15, 8192
8, 400440, Pitch_bend_c, 15, 8192
8, 400560, Pitch_bend_c, 15, 8192
8, 400680, Pitch_bend_c, 15, 8192
8, 400800, Pitch_bend_c, 15, 8192
8, 400920, Pitch_bend_c, 15, 8192
8, 401040, Pitch_bend_c, 15, 8192
8, 401160, Pitch_bend_c, 15, 8192
8, 401280, Pitch_bend_c, 15, 8192
8, 401280, Pitch_bend_c, 15, 8192
8, 402240, Note_off_c, 15, 48, 95
8, 402240, Note_on_c, 15, 35, 95
8, 402360, Pitch_bend_c, 15, 8576
8, 402480, Pitch_bend_c, 15, 8960
8, 402600, Pitch_bend_c, 15, 9472
8, 402720, Pitch_bend_c, 15, 9856
8, 402840, Pitch_bend_c, 15, 10368
8, 402960, Pitch_bend_c, 15, 10752
8, 403080, Pitch_bend_c, 15, 11264
8, 403200, Pitch_bend_c, 15, 11648
8, 403200, Pitch_bend_c, 15, 8192
8, 403200, Note_off_c, 15, 35, 95
8, 403200, Note_on_c, 14, 40, 95
8, 406080, Note_off_c, 14, 40, 95
8, 406080, Note_on_c, 14, 43, 95
8, 406400, Note_off_c, 14, 43, 95
8, 406400, Note_on_c, 14, 40, 95
8, 406720, Note_off_c, 14, 40, 95
8, 406720, Note_on_c, 14, 43, 95
8, 407040, Note_off_c, 14, 43, 95
8, 407040, Note_on_c, 14, 36, 95
8, 409920, Note_off_c, 14, 36, 95
8, 409920, Note_on_c, 15, 35, 95
8, 410040, Pitch_bend_c, 15, 8576
8, 410160, Pitch_bend_c, 15, 8960
8, 410280, Pitch_bend_c, 15, 9472
8, 410400, Pitch_bend_c, 15, 9856
8, 410520, Pitch_bend_c, 15, 10368
8, 410640, Pitch_bend_c, 15, 10752
8, 410760, Pitch_bend_c, 15, 11264
8, 410880, Pitch_bend_c, 15, 11648
8, 410880, Pitch_bend_c, 15, 8192
8, 410880, Note_off_c, 15, 35, 95
8, 410880, Note_on_c, 14, 40, 95
8, 426240, Note_off_c, 14, 40, 95
8, 426240, End_track
9, 0, Start_track
9, 0, Pitch_bend_c, 9, 8192
9, 0, Control_c, 9, 7, 127
9, 0, Control_c, 9, 10, 63
9, 0, Control_c, 9, 93, 0
9, 0, Control_c, 9, 91, 0
9, 0, Control_c, 9, 95, 0
9, 0, Control_c, 9, 92, 0
9, 0, Control_c, 9, 11, 127
9, 0, Program_c, 9, 0
9, 0, Note_on_c, 9, 49, 95
9, 0, Note_on_c, 9, 36, 95
9, 960, Note_off_c, 9, 49, 95
9, 960, Note_off_c, 9, 36, 95
9, 960, Note_on_c, 9, 42, 95
9, 960, Note_on_c, 9, 38, 95
9, 960, Note_on_c, 9, 36, 95
9, 1920, Note_off_c, 9, 42, 95
9, 1920, Note_off_c, 9, 38, 95
9, 1920, Note_off_c, 9, 36, 95
9, 1920, Note_on_c, 9, 42, 95
9, 1920, Note_on_c, 9, 36, 95
9, 2880, Note_off_c, 9, 42, 95
9, 2880, Note_off_c, 9, 36, 95
9, 2880, Note_on_c, 9, 42, 95
9, 2880, Note_on_c, 9, 38, 95
9, 2880, Note_on_c, 9, 36, 95
9, 3840, Note_off_c, 9, 42, 95
9, 3840, Note_off_c, 9, 38, 95
9, 3840, Note_off_c, 9, 36, 95
9, 3840, Note_on_c, 9, 42, 95
9, 3840, Note_on_c, 9, 36, 95
9, 4800, Note_off_c, 9, 42, 95
9, 4800, Note_off_c, 9, 36, 95
9, 4800, Note_on_c, 9, 42, 95
9, 4800, Note_on_c, 9, 38, 95
9, 4800, Note_on_c, 9, 36, 95
9, 5760, Note_off_c, 9, 42, 95
9, 5760, Note_off_c, 9, 38, 95
9, 5760, Note_off_c, 9, 36, 95
9, 5760, Note_on_c, 9, 42, 95
9, 5760, Note_on_c, 9, 36, 95
9, 6720, Note_off_c, 9, 42, 95
9, 6720, Note_off_c, 9, 36, 95
9, 6720, Note_on_c, 9, 42, 95
9, 6720, Note_on_c, 9, 38, 95
9, 6720, Note_on_c, 9, 36, 95
9, 7680, Note_off_c, 9, 42, 95
9, 7680, Note_off_c, 9, 38, 95
9, 7680, Note_off_c, 9, 36, 95
9, 7680, Note_on_c, 9, 42, 95
9, 7680, Note_on_c, 9, 36, 95
9, 8640, Note_off_c, 9, 42, 95
9, 8640, Note_off_c, 9, 36, 95
9, 8640, Note_on_c, 9, 42, 95
9, 8640, Note_on_c, 9, 38, 95
9, 8640, Note_on_c, 9, 36, 95
9, 9600, Note_off_c, 9, 42, 95
9, 9600, Note_off_c, 9, 38, 95
9, 9600, Note_off_c, 9, 36, 95
9, 9600, Note_on_c, 9, 42, 95
9, 9600, Note_on_c, 9, 36, 95
9, 10560, Note_off_c, 9, 42, 95
9, 10560, Note_off_c, 9, 36, 95
9, 10560, Note_on_c, 9, 42, 95
9, 10560, Note_on_c, 9, 38, 95
9, 10560, Note_on_c, 9, 36, 95
9, 11520, Note_off_c, 9, 42, 95
9, 11520, Note_off_c, 9, 38, 95
9, 11520, Note_off_c, 9, 36, 95
9, 11520, Note_on_c, 9, 42, 95
9, 11520, Note_on_c, 9, 36, 95
9, 12480, Note_off_c, 9, 42, 95
9, 12480, Note_off_c, 9, 36, 95
9, 12480, Note_on_c, 9, 42, 95
9, 12480, Note_on_c, 9, 38, 95
9, 12480, Note_on_c, 9, 36, 95
9, 13440, Note_off_c, 9, 42, 95
9, 13440, Note_off_c, 9, 38, 95
9, 13440, Note_off_c, 9, 36, 95
9, 13440, Note_on_c, 9, 42, 95
9, 13440, Note_on_c, 9, 36, 95
9, 14400, Note_off_c, 9, 42, 95
9, 14400, Note_off_c, 9, 36, 95
9, 14400, Note_on_c, 9, 42, 95
9, 14400, Note_on_c, 9, 38, 95
9, 14400, Note_on_c, 9, 36, 95
9, 14720, Note_off_c, 9, 42, 95
9, 14720, Note_off_c, 9, 38, 95
9, 14720, Note_off_c, 9, 36, 95
9, 15040, Note_on_c, 9, 43, 95
9, 15160, Note_off_c, 9, 43, 95
9, 15160, Note_on_c, 9, 43, 95
9, 15280, Note_off_c, 9, 43, 95
9, 15280, Note_on_c, 9, 43, 95
9, 15359, Note_off_c, 9, 43, 95
9, 15360, Note_on_c, 9, 49, 95
9, 15360, Note_on_c, 9, 36, 95
9, 16320, Note_off_c, 9, 49, 95
9, 16320, Note_off_c, 9, 36, 95
9, 16320, Note_on_c, 9, 42, 95
9, 16320, Note_on_c, 9, 38, 95
9, 16320, Note_on_c, 9, 36, 95
9, 17280, Note_off_c, 9, 42, 95
9, 17280, Note_off_c, 9, 38, 95
9, 17280, Note_off_c, 9, 36, 95
9, 17280, Note_on_c, 9, 42, 95
9, 17280, Note_on_c, 9, 36, 95
9, 18240, Note_off_c, 9, 42, 95
9, 18240, Note_off_c, 9, 36, 95
9, 18240, Note_on_c, 9, 42, 95
9, 18240, Note_on_c, 9, 38, 95
9, 18240, Note_on_c, 9, 36, 95
9, 19200, Note_off_c, 9, 42, 95
9, 19200, Note_off_c, 9, 38, 95
9, 19200, Note_off_c, 9, 36, 95
9, 19200, Note_on_c, 9, 42, 95
9, 19200, Note_on_c, 9, 36, 95
9, 20160, Note_off_c, 9, 42, 95
9, 20160, Note_off_c, 9, 36, 95
9, 20160, Note_on_c, 9, 42, 95
9, 20160, Note_on_c, 9, 38, 95
9, 20160, Note_on_c, 9, 36, 95
9, 21120, Note_off_c, 9, 42, 95
9, 21120, Note_off_c, 9, 38, 95
9, 21120, Note_off_c, 9, 36, 95
9, 21120, Note_on_c, 9, 42, 95
9, 21120, Note_on_c, 9, 36, 95
9, 22080, Note_off_c, 9, 42, 95
9, 22080, Note_off_c, 9, 36, 95
9, 22080, Note_on_c, 9, 42, 95
9, 22080, Note_on_c, 9, 38, 95
9, 22080, Note_on_c, 9, 36, 95
9, 22400, Note_off_c, 9, 42, 95
9, 22400, Note_off_c, 9, 38, 95
9, 22400, Note_off_c, 9, 36, 95
9, 22720, Note_on_c, 9, 43, 95
9, 22840, Note_off_c, 9, 43, 95
9, 22840, Note_on_c, 9, 43, 95
9, 22960, Note_off_c, 9, 43, 95
9, 22960, Note_on_c, 9, 43, 95
9, 23039, Note_off_c, 9, 43, 95
9, 23040, Note_on_c, 9, 49, 95
9, 23040, Note_on_c, 9, 36, 95
9, 24000, Note_off_c, 9, 49, 95
9, 24000, Note_off_c, 9, 36, 95
9, 24000, Note_on_c, 9, 42, 95
9, 24000, Note_on_c, 9, 38, 95
9, 24000, Note_on_c, 9, 36, 95
9, 24960, Note_off_c, 9, 42, 95
9, 24960, Note_off_c, 9, 38, 95
9, 24960, Note_off_c, 9, 36, 95
9, 24960, Note_on_c, 9, 42, 95
9, 24960, Note_on_c, 9, 36, 95
9, 25920, Note_off_c, 9, 42, 95
9, 25920, Note_off_c, 9, 36, 95
9, 25920, Note_on_c, 9, 42, 95
9, 25920, Note_on_c, 9, 38, 95
9, 25920, Note_on_c, 9, 36, 95
9, 26880, Note_off_c, 9, 42, 95
9, 26880, Note_off_c, 9, 38, 95
9, 26880, Note_off_c, 9, 36, 95
9, 26880, Note_on_c, 9, 42, 95
9, 26880, Note_on_c, 9, 36, 95
9, 27840, Note_off_c, 9, 42, 95
9, 27840, Note_off_c, 9, 36, 95
9, 27840, Note_on_c, 9, 42, 95
9, 27840, Note_on_c, 9, 38, 95
9, 27840, Note_on_c, 9, 36, 95
9, 28800, Note_off_c, 9, 42, 95
9, 28800, Note_off_c, 9, 38, 95
9, 28800, Note_off_c, 9, 36, 95
9, 28800, Note_on_c, 9, 42, 95
9, 28800, Note_on_c, 9, 36, 95
9, 29760, Note_off_c, 9, 42, 95
9, 29760, Note_off_c, 9, 36, 95
9, 29760, Note_on_c, 9, 42, 95
9, 29760, Note_on_c, 9, 38, 95
9, 29760, Note_on_c, 9, 36, 95
9, 30080, Note_off_c, 9, 42, 95
9, 30080, Note_off_c, 9, 38, 95
9, 30080, Note_off_c, 9, 36, 95
9, 30400, Note_on_c, 9, 43, 95
9, 30520, Note_off_c, 9, 43, 95
9, 30520, Note_on_c, 9, 43, 95
9, 30640, Note_off_c, 9, 43, 95
9, 30640, Note_on_c, 9, 43, 95
9, 30719, Note_off_c, 9, 43, 95
9, 30720, Note_on_c, 9, 49, 95
9, 30720, Note_on_c, 9, 36, 95
9, 31680, Note_off_c, 9, 49, 95
9, 31680, Note_off_c, 9, 36, 95
9, 31680, Note_on_c, 9, 42, 95
9, 31680, Note_on_c, 9, 38, 95
9, 31680, Note_on_c, 9, 36, 95
9, 32640, Note_off_c, 9, 42, 95
9, 32640, Note_off_c, 9, 38, 95
9, 32640, Note_off_c, 9, 36, 95
9, 32640, Note_on_c, 9, 42, 95
9, 32640, Note_on_c, 9, 36, 95
9, 33600, Note_off_c, 9, 42, 95
9, 33600, Note_off_c, 9, 36, 95
9, 33600, Note_on_c, 9, 42, 95
9, 33600, Note_on_c, 9, 38, 95
9, 33600, Note_on_c, 9, 36, 95
9, 34560, Note_off_c, 9, 42, 95
9, 34560, Note_off_c, 9, 38, 95
9, 34560, Note_off_c, 9, 36, 95
9, 34560, Note_on_c, 9, 42, 95
9, 34560, Note_on_c, 9, 36, 95
9, 35520, Note_off_c, 9, 42, 95
9, 35520, Note_off_c, 9, 36, 95
9, 35520, Note_on_c, 9, 42, 95
9, 35520, Note_on_c, 9, 38, 95
9, 35520, Note_on_c, 9, 36, 95
9, 36480, Note_off_c, 9, 42, 95
9, 36480, Note_off_c, 9, 38, 95
9, 36480, Note_off_c, 9, 36, 95
9, 36480, Note_on_c, 9, 42, 95
9, 36480, Note_on_c, 9, 36, 95
9, 37440, Note_off_c, 9, 42, 95
9, 37440, Note_off_c, 9, 36, 95
9, 37440, Note_on_c, 9, 42, 95
9, 37440, Note_on_c, 9, 38, 95
9, 37440, Note_on_c, 9, 36, 95
9, 37760, Note_off_c, 9, 42, 95
9, 37760, Note_off_c, 9, 38, 95
9, 37760, Note_off_c, 9, 36, 95
9, 38080, Note_on_c, 9, 43, 95
9, 38200, Note_off_c, 9, 43, 95
9, 38200, Note_on_c, 9, 43, 95
9, 38320, Note_off_c, 9, 43, 95
9, 38320, Note_on_c, 9, 43, 95
9, 38399, Note_off_c, 9, 43, 95
9, 38400, Note_on_c, 9, 49, 95
9, 38400, Note_on_c, 9, 36, 95
9, 39360, Note_off_c, 9, 49, 95
9, 39360, Note_off_c, 9, 36, 95
9, 39360, Note_on_c, 9, 42, 95
9, 39360, Note_on_c, 9, 38, 95
9, 39360, Note_on_c, 9, 36, 95
9, 40320, Note_off_c, 9, 42, 95
9, 40320, Note_off_c, 9, 38, 95
9, 40320, Note_off_c, 9, 36, 95
9, 40320, Note_on_c, 9, 42, 95
9, 40320, Note_on_c, 9, 36, 95
9, 41280, Note_off_c, 9, 42, 95
9, 41280, Note_off_c, 9, 36, 95
9, 41280, Note_on_c, 9, 42, 95
9, 41280, Note_on_c, 9, 38, 95
9, 41280, Note_on_c, 9, 36, 95
9, 42240, Note_off_c, 9, 42, 95
9, 42240, Note_off_c, 9, 38, 95
9, 42240, Note_off_c, 9, 36, 95
9, 42240, Note_on_c, 9, 38, 95
9, 42240, Note_on_c, 9, 36, 95
9, 42560, Note_off_c, 9, 38, 95
9, 42560, Note_off_c, 9, 36, 95
9, 42560, Note_on_c, 9, 38, 95
9, 42880, Note_off_c, 9, 38, 95
9, 42880, Note_on_c, 9, 38, 95
9, 43200, Note_off_c, 9, 38, 95
9, 43200, Note_on_c, 9, 38, 95
9, 43200, Note_on_c, 9, 36, 95
9, 43520, Note_off_c, 9, 38, 95
9, 43520, Note_off_c, 9, 36, 95
9, 43520, Note_on_c, 9, 38, 95
9, 43840, Note_off_c, 9, 38, 95
9, 43840, Note_on_c, 9, 38, 95
9, 44160, Note_off_c, 9, 38, 95
9, 44160, Note_on_c, 9, 38, 95
9, 44160, Note_on_c, 9, 36, 95
9, 44480, Note_off_c, 9, 38, 95
9, 44480, Note_off_c, 9, 36, 95
9, 44480, Note_on_c, 9, 38, 95
9, 44800, Note_off_c, 9, 38, 95
9, 44800, Note_on_c, 9, 38, 95
9, 45120, Note_off_c, 9, 38, 95
9, 45120, Note_on_c, 9, 38, 95
9, 45120, Note_on_c, 9, 36, 95
9, 45440, Note_off_c, 9, 38, 95
9, 45440, Note_off_c, 9, 36, 95
9, 45440, Note_on_c, 9, 38, 95
9, 45760, Note_off_c, 9, 38, 95
9, 45760, Note_on_c, 9, 38, 95
9, 46080, Note_off_c, 9, 38, 95
9, 46080, Note_on_c, 9, 49, 95
9, 46080, Note_on_c, 9, 36, 95
9, 46400, Note_off_c, 9, 49, 95
9, 46400, Note_off_c, 9, 36, 95
9, 46400, Note_on_c, 9, 42, 63
9, 46720, Note_off_c, 9, 42, 63
9, 46720, Note_on_c, 9, 42, 63
9, 47040, Note_off_c, 9, 42, 63
9, 47040, Note_on_c, 9, 42, 79
9, 47040, Note_on_c, 9, 38, 95
9, 47040, Note_on_c, 9, 36, 95
9, 47360, Note_off_c, 9, 42, 79
9, 47360, Note_off_c, 9, 38, 95
9, 47360, Note_off_c, 9, 36, 95
9, 47360, Note_on_c, 9, 42, 79
9, 47680, Note_off_c, 9, 42, 79
9, 47680, Note_on_c, 9, 42, 79
9, 48000, Note_off_c, 9, 42, 79
9, 48000, Note_on_c, 9, 42, 79
9, 48000, Note_on_c, 9, 36, 95
9, 48320, Note_off_c, 9, 42, 79
9, 48320, Note_off_c, 9, 36, 95
9, 48320, Note_on_c, 9, 42, 79
9, 48640, Note_off_c, 9, 42, 79
9, 48640, Note_on_c, 9, 42, 79
9, 48960, Note_off_c, 9, 42, 79
9, 48960, Note_on_c, 9, 42, 79
9, 48960, Note_on_c, 9, 38, 95
9, 48960, Note_on_c, 9, 36, 95
9, 49280, Note_off_c, 9, 42, 79
9, 49280, Note_off_c, 9, 38, 95
9, 49280, Note_off_c, 9, 36, 95
9, 49280, Note_on_c, 9, 42, 79
9, 49600, Note_off_c, 9, 42, 79
9, 49600, Note_on_c, 9, 42, 79
9, 49920, Note_off_c, 9, 42, 79
9, 49920, Note_on_c, 9, 42, 79
9, 49920, Note_on_c, 9, 36, 95
9, 50240, Note_off_c, 9, 42, 79
9, 50240, Note_off_c, 9, 36, 95
9, 50240, Note_on_c, 9, 42, 79
9, 50560, Note_off_c, 9, 42, 79
9, 50560, Note_on_c, 9, 42, 79
9, 50880, Note_off_c, 9, 42, 79
9, 50880, Note_on_c, 9, 42, 79
9, 50880, Note_on_c, 9, 38, 95
9, 50880, Note_on_c, 9, 36, 95
9, 51200, Note_off_c, 9, 42, 79
9, 51200, Note_off_c, 9, 38, 95
9, 51200, Note_off_c, 9, 36, 95
9, 51200, Note_on_c, 9, 42, 79
9, 51520, Note_off_c, 9, 42, 79
9, 51520, Note_on_c, 9, 42, 79
9, 51840, Note_off_c, 9, 42, 79
9, 51840, Note_on_c, 9, 42, 79
9, 51840, Note_on_c, 9, 36, 95
9, 52160, Note_off_c, 9, 42, 79
9, 52160, Note_off_c, 9, 36, 95
9, 52160, Note_on_c, 9, 42, 79
9, 52480, Note_off_c, 9, 42, 79
9, 52480, Note_on_c, 9, 42, 79
9, 52800, Note_off_c, 9, 42, 79
9, 52800, Note_on_c, 9, 42, 79
9, 52800, Note_on_c, 9, 38, 95
9, 52800, Note_on_c, 9, 36, 95
9, 53120, Note_off_c, 9, 42, 79
9, 53120, Note_off_c, 9, 38, 95
9, 53120, Note_off_c, 9, 36, 95
9, 53120, Note_on_c, 9, 42, 79
9, 53440, Note_off_c, 9, 42, 79
9, 53440, Note_on_c, 9, 42, 79
9, 53760, Note_off_c, 9, 42, 79
9, 53760, Note_on_c, 9, 42, 79
9, 53760, Note_on_c, 9, 36, 95
9, 54080, Note_off_c, 9, 42, 79
9, 54080, Note_off_c, 9, 36, 95
9, 54080, Note_on_c, 9, 42, 79
9, 54400, Note_off_c, 9, 42, 79
9, 54400, Note_on_c, 9, 42, 79
9, 54720, Note_off_c, 9, 42, 79
9, 54720, Note_on_c, 9, 42, 79
9, 54720, Note_on_c, 9, 38, 95
9, 54720, Note_on_c, 9, 36, 95
9, 55040, Note_off_c, 9, 42, 79
9, 55040, Note_off_c, 9, 38, 95
9, 55040, Note_off_c, 9, 36, 95
9, 55040, Note_on_c, 9, 42, 79
9, 55360, Note_off_c, 9, 42, 79
9, 55360, Note_on_c, 9, 42, 79
9, 55680, Note_off_c, 9, 42, 79
9, 55680, Note_on_c, 9, 42, 79
9, 55680, Note_on_c, 9, 36, 95
9, 56000, Note_off_c, 9, 42, 79
9, 56000, Note_off_c, 9, 36, 95
9, 56000, Note_on_c, 9, 42, 79
9, 56320, Note_off_c, 9, 42, 79
9, 56320, Note_on_c, 9, 42, 79
9, 56640, Note_off_c, 9, 42, 79
9, 56640, Note_on_c, 9, 42, 79
9, 56640, Note_on_c, 9, 38, 95
9, 56640, Note_on_c, 9, 36, 95
9, 56960, Note_off_c, 9, 42, 79
9, 56960, Note_off_c, 9, 38, 95
9, 56960, Note_off_c, 9, 36, 95
9, 56960, Note_on_c, 9, 42, 79
9, 57280, Note_off_c, 9, 42, 79
9, 57280, Note_on_c, 9, 42, 79
9, 57600, Note_off_c, 9, 42, 79
9, 57600, Note_on_c, 9, 42, 79
9, 57600, Note_on_c, 9, 36, 95
9, 57920, Note_off_c, 9, 42, 79
9, 57920, Note_off_c, 9, 36, 95
9, 57920, Note_on_c, 9, 42, 79
9, 58240, Note_off_c, 9, 42, 79
9, 58240, Note_on_c, 9, 42, 79
9, 58560, Note_off_c, 9, 42, 79
9, 58560, Note_on_c, 9, 42, 79
9, 58560, Note_on_c, 9, 38, 95
9, 58560, Note_on_c, 9, 36, 95
9, 58880, Note_off_c, 9, 42, 79
9, 58880, Note_off_c, 9, 38, 95
9, 58880, Note_off_c, 9, 36, 95
9, 58880, Note_on_c, 9, 42, 79
9, 59200, Note_off_c, 9, 42, 79
9, 59200, Note_on_c, 9, 42, 79
9, 59520, Note_off_c, 9, 42, 79
9, 59520, Note_on_c, 9, 42, 79
9, 59520, Note_on_c, 9, 36, 95
9, 59840, Note_off_c, 9, 42, 79
9, 59840, Note_off_c, 9, 36, 95
9, 59840, Note_on_c, 9, 42, 79
9, 60160, Note_off_c, 9, 42, 79
9, 60160, Note_on_c, 9, 42, 79
9, 60480, Note_off_c, 9, 42, 79
9, 60480, Note_on_c, 9, 42, 79
9, 60480, Note_on_c, 9, 38, 95
9, 60480, Note_on_c, 9, 36, 95
9, 60800, Note_off_c, 9, 42, 79
9, 60800, Note_off_c, 9, 38, 95
9, 60800, Note_off_c, 9, 36, 95
9, 60800, Note_on_c, 9, 42, 79
9, 61120, Note_off_c, 9, 42, 79
9, 61120, Note_on_c, 9, 42, 79
9, 61440, Note_off_c, 9, 42, 79
9, 61440, Note_on_c, 9, 42, 79
9, 61440, Note_on_c, 9, 36, 95
9, 61760, Note_off_c, 9, 42, 79
9, 61760, Note_off_c, 9, 36, 95
9, 61760, Note_on_c, 9, 42, 79
9, 62080, Note_off_c, 9, 42, 79
9, 62080, Note_on_c, 9, 42, 79
9, 62400, Note_off_c, 9, 42, 79
9, 62400, Note_on_c, 9, 42, 79
9, 62400, Note_on_c, 9, 38, 95
9, 62400, Note_on_c, 9, 36, 95
9, 62720, Note_off_c, 9, 42, 79
9, 62720, Note_off_c, 9, 38, 95
9, 62720, Note_off_c, 9, 36, 95
9, 62720, Note_on_c, 9, 42, 79
9, 63040, Note_off_c, 9, 42, 79
9, 63040, Note_on_c, 9, 42, 79
9, 63360, Note_off_c, 9, 42, 79
9, 63360, Note_on_c, 9, 42, 79
9, 63360, Note_on_c, 9, 36, 95
9, 63680, Note_off_c, 9, 42, 79
9, 63680, Note_off_c, 9, 36, 95
9, 63680, Note_on_c, 9, 42, 79
9, 64000, Note_off_c, 9, 42, 79
9, 64000, Note_on_c, 9, 42, 79
9, 64320, Note_off_c, 9, 42, 79
9, 64320, Note_on_c, 9, 42, 79
9, 64320, Note_on_c, 9, 38, 95
9, 64320, Note_on_c, 9, 36, 95
9, 64640, Note_off_c, 9, 42, 79
9, 64640, Note_off_c, 9, 38, 95
9, 64640, Note_off_c, 9, 36, 95
9, 64640, Note_on_c, 9, 42, 79
9, 64960, Note_off_c, 9, 42, 79
9, 64960, Note_on_c, 9, 42, 79
9, 65280, Note_off_c, 9, 42, 79
9, 65280, Note_on_c, 9, 42, 79
9, 65280, Note_on_c, 9, 36, 95
9, 65600, Note_off_c, 9, 42, 79
9, 65600, Note_off_c, 9, 36, 95
9, 65600, Note_on_c, 9, 42, 79
9, 65920, Note_off_c, 9, 42, 79
9, 65920, Note_on_c, 9, 42, 79
9, 66240, Note_off_c, 9, 42, 79
9, 66240, Note_on_c, 9, 42, 79
9, 66240, Note_on_c, 9, 38, 95
9, 66240, Note_on_c, 9, 36, 95
9, 66560, Note_off_c, 9, 42, 79
9, 66560, Note_off_c, 9, 38, 95
9, 66560, Note_off_c, 9, 36, 95
9, 66560, Note_on_c, 9, 42, 79
9, 66880, Note_off_c, 9, 42, 79
9, 66880, Note_on_c, 9, 42, 79
9, 67200, Note_off_c, 9, 42, 79
9, 67200, Note_on_c, 9, 42, 79
9, 67200, Note_on_c, 9, 36, 95
9, 67520, Note_off_c, 9, 42, 79
9, 67520, Note_off_c, 9, 36, 95
9, 67520, Note_on_c, 9, 42, 79
9, 67840, Note_off_c, 9, 42, 79
9, 67840, Note_on_c, 9, 42, 79
9, 68160, Note_off_c, 9, 42, 79
9, 68160, Note_on_c, 9, 42, 79
9, 68160, Note_on_c, 9, 38, 95
9, 68160, Note_on_c, 9, 36, 95
9, 68480, Note_off_c, 9, 42, 79
9, 68480, Note_off_c, 9, 38, 95
9, 68480, Note_off_c, 9, 36, 95
9, 68480, Note_on_c, 9, 42, 79
9, 68800, Note_off_c, 9, 42, 79
9, 68800, Note_on_c, 9, 42, 79
9, 69120, Note_off_c, 9, 42, 79
9, 69120, Note_on_c, 9, 42, 79
9, 69120, Note_on_c, 9, 36, 95
9, 69440, Note_off_c, 9, 42, 79
9, 69440, Note_off_c, 9, 36, 95
9, 69440, Note_on_c, 9, 42, 79
9, 69760, Note_off_c, 9, 42, 79
9, 69760, Note_on_c, 9, 42, 79
9, 70080, Note_off_c, 9, 42, 79
9, 70080, Note_on_c, 9, 42, 79
9, 70080, Note_on_c, 9, 38, 95
9, 70080, Note_on_c, 9, 36, 95
9, 70400, Note_off_c, 9, 42, 79
9, 70400, Note_off_c, 9, 38, 95
9, 70400, Note_off_c, 9, 36, 95
9, 70400, Note_on_c, 9, 42, 79
9, 70720, Note_off_c, 9, 42, 79
9, 70720, Note_on_c, 9, 42, 79
9, 71040, Note_off_c, 9, 42, 79
9, 71040, Note_on_c, 9, 42, 79
9, 71040, Note_on_c, 9, 36, 95
9, 71360, Note_off_c, 9, 42, 79
9, 71360, Note_off_c, 9, 36, 95
9, 71360, Note_on_c, 9, 42, 79
9, 71680, Note_off_c, 9, 42, 79
9, 71680, Note_on_c, 9, 42, 79
9, 72000, Note_off_c, 9, 42, 79
9, 72000, Note_on_c, 9, 42, 79
9, 72000, Note_on_c, 9, 38, 95
9, 72000, Note_on_c, 9, 36, 95
9, 72320, Note_off_c, 9, 42, 79
9, 72320, Note_off_c, 9, 38, 95
9, 72320, Note_off_c, 9, 36, 95
9, 72320, Note_on_c, 9, 42, 79
9, 72640, Note_off_c, 9, 42, 79
9, 72640, Note_on_c, 9, 42, 79
9, 72960, Note_off_c, 9, 42, 79
9, 72960, Note_on_c, 9, 42, 79
9, 72960, Note_on_c, 9, 36, 95
9, 73280, Note_off_c, 9, 42, 79
9, 73280, Note_off_c, 9, 36, 95
9, 73280, Note_on_c, 9, 42, 79
9, 73600, Note_off_c, 9, 42, 79
9, 73600, Note_on_c, 9, 42, 79
9, 73920, Note_off_c, 9, 42, 79
9, 73920, Note_on_c, 9, 42, 79
9, 73920, Note_on_c, 9, 38, 95
9, 73920, Note_on_c, 9, 36, 95
9, 74240, Note_off_c, 9, 42, 79
9, 74240, Note_off_c, 9, 38, 95
9, 74240, Note_off_c, 9, 36, 95
9, 74240, Note_on_c, 9, 42, 79
9, 74560, Note_off_c, 9, 42, 79
9, 74560, Note_on_c, 9, 42, 79
9, 74880, Note_off_c, 9, 42, 79
9, 74880, Note_on_c, 9, 42, 79
9, 74880, Note_on_c, 9, 36, 95
9, 75200, Note_off_c, 9, 42, 79
9, 75200, Note_off_c, 9, 36, 95
9, 75200, Note_on_c, 9, 42, 79
9, 75520, Note_off_c, 9, 42, 79
9, 75520, Note_on_c, 9, 42, 95
9, 75840, Note_off_c, 9, 42, 95
9, 75840, Note_on_c, 9, 42, 95
9, 75840, Note_on_c, 9, 38, 95
9, 75840, Note_on_c, 9, 36, 95
9, 76160, Note_off_c, 9, 42, 95
9, 76160, Note_off_c, 9, 38, 95
9, 76160, Note_off_c, 9, 36, 95
9, 76480, Note_on_c, 9, 38, 95
9, 76800, Note_off_c, 9, 38, 95
9, 76800, Note_on_c, 9, 49, 95
9, 76800, Note_on_c, 9, 36, 95
9, 77120, Note_off_c, 9, 49, 95
9, 77120, Note_off_c, 9, 36, 95
9, 77440, Note_on_c, 9, 42, 79
9, 77760, Note_off_c, 9, 42, 79
9, 77760, Note_on_c, 9, 42, 95
9, 77760, Note_on_c, 9, 38, 95
9, 77760, Note_on_c, 9, 36, 95
9, 78080, Note_off_c, 9, 42, 95
9, 78080, Note_off_c, 9, 38, 95
9, 78080, Note_off_c, 9, 36, 95
9, 78400, Note_on_c, 9, 42, 79
9, 78720, Note_off_c, 9, 42, 79
9, 78720, Note_on_c, 9, 42, 79
9, 78720, Note_on_c, 9, 36, 95
9, 79040, Note_off_c, 9, 42, 79
9, 79040, Note_off_c, 9, 36, 95
9, 79360, Note_on_c, 9, 42, 79
9, 79680, Note_off_c, 9, 42, 79
9, 79680, Note_on_c, 9, 42, 95
9, 79680, Note_on_c, 9, 38, 95
9, 79680, Note_on_c, 9, 36, 95
9, 80000, Note_off_c, 9, 42, 95
9, 80000, Note_off_c, 9, 38, 95
9, 80000, Note_off_c, 9, 36, 95
9, 80320, Note_on_c, 9, 42, 79
9, 80640, Note_off_c, 9, 42, 79
9, 80640, Note_on_c, 9, 42, 95
9, 80640, Note_on_c, 9, 36, 95
9, 80960, Note_off_c, 9, 42, 95
9, 80960, Note_off_c, 9, 36, 95
9, 81280, Note_on_c, 9, 42, 79
9, 81600, Note_off_c, 9, 42, 79
9, 81600, Note_on_c, 9, 42, 95
9, 81600, Note_on_c, 9, 38, 95
9, 81600, Note_on_c, 9, 36, 95
9, 81920, Note_off_c, 9, 42, 95
9, 81920, Note_off_c, 9, 38, 95
9, 81920, Note_off_c, 9, 36, 95
9, 82240, Note_on_c, 9, 42, 79
9, 82560, Note_off_c, 9, 42, 79
9, 82560, Note_on_c, 9, 42, 79
9, 82560, Note_on_c, 9, 36, 95
9, 82880, Note_off_c, 9, 42, 79
9, 82880, Note_off_c, 9, 36, 95
9, 83200, Note_on_c, 9, 42, 79
9, 83520, Note_off_c, 9, 42, 79
9, 83520, Note_on_c, 9, 42, 95
9, 83520, Note_on_c, 9, 38, 95
9, 83520, Note_on_c, 9, 36, 95
9, 83840, Note_off_c, 9, 42, 95
9, 83840, Note_off_c, 9, 38, 95
9, 83840, Note_off_c, 9, 36, 95
9, 84160, Note_on_c, 9, 42, 79
9, 84480, Note_off_c, 9, 42, 79
9, 84480, Note_on_c, 9, 42, 95
9, 84480, Note_on_c, 9, 36, 95
9, 84800, Note_off_c, 9, 42, 95
9, 84800, Note_off_c, 9, 36, 95
9, 85120, Note_on_c, 9, 42, 79
9, 85440, Note_off_c, 9, 42, 79
9, 85440, Note_on_c, 9, 42, 95
9, 85440, Note_on_c, 9, 38, 95
9, 85440, Note_on_c, 9, 36, 95
9, 85760, Note_off_c, 9, 42, 95
9, 85760, Note_off_c, 9, 38, 95
9, 85760, Note_off_c, 9, 36, 95
9, 86080, Note_on_c, 9, 42, 79
9, 86400, Note_off_c, 9, 42, 79
9, 86400, Note_on_c, 9, 42, 79
9, 86400, Note_on_c, 9, 36, 95
9, 86720, Note_off_c, 9, 42, 79
9, 86720, Note_off_c, 9, 36, 95
9, 87040, Note_on_c, 9, 42, 79
9, 87360, Note_off_c, 9, 42, 79
9, 87360, Note_on_c, 9, 42, 95
9, 87360, Note_on_c, 9, 38, 95
9, 87360, Note_on_c, 9, 36, 95
9, 87680, Note_off_c, 9, 42, 95
9, 87680, Note_off_c, 9, 38, 95
9, 87680, Note_off_c, 9, 36, 95
9, 88000, Note_on_c, 9, 42, 79
9, 88320, Note_off_c, 9, 42, 79
9, 88320, Note_on_c, 9, 42, 95
9, 88320, Note_on_c, 9, 36, 95
9, 88640, Note_off_c, 9, 42, 95
9, 88640, Note_off_c, 9, 36, 95
9, 88960, Note_on_c, 9, 42, 79
9, 89280, Note_off_c, 9, 42, 79
9, 89280, Note_on_c, 9, 42, 95
9, 89280, Note_on_c, 9, 38, 95
9, 89280, Note_on_c, 9, 36, 95
9, 89600, Note_off_c, 9, 42, 95
9, 89600, Note_off_c, 9, 38, 95
9, 89600, Note_off_c, 9, 36, 95
9, 89920, Note_on_c, 9, 42, 79
9, 90240, Note_off_c, 9, 42, 79
9, 90240, Note_on_c, 9, 42, 79
9, 90240, Note_on_c, 9, 36, 95
9, 90560, Note_off_c, 9, 42, 79
9, 90560, Note_off_c, 9, 36, 95
9, 90880, Note_on_c, 9, 42, 79
9, 91200, Note_off_c, 9, 42, 79
9, 91200, Note_on_c, 9, 42, 95
9, 91200, Note_on_c, 9, 38, 95
9, 91200, Note_on_c, 9, 36, 95
9, 91520, Note_off_c, 9, 42, 95
9, 91520, Note_off_c, 9, 38, 95
9, 91520, Note_off_c, 9, 36, 95
9, 91840, Note_on_c, 9, 38, 95
9, 92160, Note_off_c, 9, 38, 95
9, 92160, Note_on_c, 9, 49, 95
9, 92160, Note_on_c, 9, 36, 95
9, 92480, Note_off_c, 9, 49, 95
9, 92480, Note_off_c, 9, 36, 95
9, 92800, Note_on_c, 9, 42, 79
9, 93120, Note_off_c, 9, 42, 79
9, 93120, Note_on_c, 9, 42, 95
9, 93120, Note_on_c, 9, 38, 95
9, 93120, Note_on_c, 9, 36, 95
9, 93440, Note_off_c, 9, 42, 95
9, 93440, Note_off_c, 9, 38, 95
9, 93440, Note_off_c, 9, 36, 95
9, 93760, Note_on_c, 9, 42, 79
9, 94080, Note_off_c, 9, 42, 79
9, 94080, Note_on_c, 9, 42, 79
9, 94080, Note_on_c, 9, 36, 95
9, 94400, Note_off_c, 9, 42, 79
9, 94400, Note_off_c, 9, 36, 95
9, 94720, Note_on_c, 9, 42, 79
9, 95040, Note_off_c, 9, 42, 79
9, 95040, Note_on_c, 9, 42, 95
9, 95040, Note_on_c, 9, 38, 95
9, 95040, Note_on_c, 9, 36, 95
9, 95360, Note_off_c, 9, 42, 95
9, 95360, Note_off_c, 9, 38, 95
9, 95360, Note_off_c, 9, 36, 95
9, 95680, Note_on_c, 9, 42, 79
9, 96000, Note_off_c, 9, 42, 79
9, 96000, Note_on_c, 9, 42, 95
9, 96000, Note_on_c, 9, 36, 95
9, 96320, Note_off_c, 9, 42, 95
9, 96320, Note_off_c, 9, 36, 95
9, 96640, Note_on_c, 9, 42, 79
9, 96960, Note_off_c, 9, 42, 79
9, 96960, Note_on_c, 9, 42, 95
9, 96960, Note_on_c, 9, 38, 95
9, 96960, Note_on_c, 9, 36, 95
9, 97280, Note_off_c, 9, 42, 95
9, 97280, Note_off_c, 9, 38, 95
9, 97280, Note_off_c, 9, 36, 95
9, 97600, Note_on_c, 9, 42, 79
9, 97920, Note_off_c, 9, 42, 79
9, 97920, Note_on_c, 9, 42, 79
9, 97920, Note_on_c, 9, 36, 95
9, 98240, Note_off_c, 9, 42, 79
9, 98240, Note_off_c, 9, 36, 95
9, 98560, Note_on_c, 9, 42, 79
9, 98880, Note_off_c, 9, 42, 79
9, 98880, Note_on_c, 9, 42, 95
9, 98880, Note_on_c, 9, 38, 95
9, 98880, Note_on_c, 9, 36, 95
9, 99200, Note_off_c, 9, 42, 95
9, 99200, Note_off_c, 9, 38, 95
9, 99200, Note_off_c, 9, 36, 95
9, 99520, Note_on_c, 9, 42, 79
9, 99840, Note_off_c, 9, 42, 79
9, 99840, Note_on_c, 9, 42, 95
9, 99840, Note_on_c, 9, 36, 95
9, 100160, Note_off_c, 9, 42, 95
9, 100160, Note_off_c, 9, 36, 95
9, 100480, Note_on_c, 9, 42, 79
9, 100800, Note_off_c, 9, 42, 79
9, 100800, Note_on_c, 9, 42, 95
9, 100800, Note_on_c, 9, 38, 95
9, 100800, Note_on_c, 9, 36, 95
9, 101120, Note_off_c, 9, 42, 95
9, 101120, Note_off_c, 9, 38, 95
9, 101120, Note_off_c, 9, 36, 95
9, 101440, Note_on_c, 9, 42, 79
9, 101760, Note_off_c, 9, 42, 79
9, 101760, Note_on_c, 9, 42, 79
9, 101760, Note_on_c, 9, 36, 95
9, 102080, Note_off_c, 9, 42, 79
9, 102080, Note_off_c, 9, 36, 95
9, 102400, Note_on_c, 9, 42, 79
9, 102720, Note_off_c, 9, 42, 79
9, 102720, Note_on_c, 9, 42, 95
9, 102720, Note_on_c, 9, 38, 95
9, 102720, Note_on_c, 9, 36, 95
9, 103040, Note_off_c, 9, 42, 95
9, 103040, Note_off_c, 9, 38, 95
9, 103040, Note_off_c, 9, 36, 95
9, 103360, Note_on_c, 9, 42, 79
9, 103680, Note_off_c, 9, 42, 79
9, 103680, Note_on_c, 9, 42, 95
9, 103680, Note_on_c, 9, 36, 95
9, 104000, Note_off_c, 9, 42, 95
9, 104000, Note_off_c, 9, 36, 95
9, 104320, Note_on_c, 9, 42, 79
9, 104640, Note_off_c, 9, 42, 79
9, 104640, Note_on_c, 9, 42, 95
9, 104640, Note_on_c, 9, 38, 95
9, 104640, Note_on_c, 9, 36, 95
9, 104960, Note_off_c, 9, 42, 95
9, 104960, Note_off_c, 9, 38, 95
9, 104960, Note_off_c, 9, 36, 95
9, 105280, Note_on_c, 9, 42, 79
9, 105600, Note_off_c, 9, 42, 79
9, 105600, Note_on_c, 9, 42, 79
9, 105600, Note_on_c, 9, 36, 95
9, 105920, Note_off_c, 9, 42, 79
9, 105920, Note_off_c, 9, 36, 95
9, 106240, Note_on_c, 9, 42, 79
9, 106560, Note_off_c, 9, 42, 79
9, 106560, Note_on_c, 9, 42, 95
9, 106560, Note_on_c, 9, 38, 95
9, 106560, Note_on_c, 9, 36, 95
9, 107200, Note_off_c, 9, 42, 95
9, 107200, Note_off_c, 9, 38, 95
9, 107200, Note_off_c, 9, 36, 95
9, 107200, Note_on_c, 9, 38, 95
9, 107520, Note_off_c, 9, 38, 95
9, 107520, Note_on_c, 9, 42, 95
9, 107520, Note_on_c, 9, 36, 95
9, 107840, Note_off_c, 9, 42, 95
9, 107840, Note_off_c, 9, 36, 95
9, 108160, Note_on_c, 9, 42, 95
9, 108480, Note_off_c, 9, 42, 95
9, 108480, Note_on_c, 9, 42, 95
9, 108480, Note_on_c, 9, 38, 95
9, 108480, Note_on_c, 9, 36, 95
9, 108800, Note_off_c, 9, 42, 95
9, 108800, Note_off_c, 9, 38, 95
9, 108800, Note_off_c, 9, 36, 95
9, 109120, Note_on_c, 9, 49, 95
9, 109120, Note_on_c, 9, 38, 95
9, 109440, Note_off_c, 9, 49, 95
9, 109440, Note_off_c, 9, 38, 95
9, 109440, Note_on_c, 9, 42, 95
9, 109440, Note_on_c, 9, 36, 95
9, 109760, Note_off_c, 9, 42, 95
9, 109760, Note_off_c, 9, 36, 95
9, 110080, Note_on_c, 9, 42, 95
9, 110400, Note_off_c, 9, 42, 95
9, 110400, Note_on_c, 9, 42, 95
9, 110400, Note_on_c, 9, 36, 95
9, 110720, Note_off_c, 9, 42, 95
9, 110720, Note_off_c, 9, 36, 95
9, 111040, Note_on_c, 9, 42, 95
9, 111360, Note_off_c, 9, 42, 95
9, 111360, Note_on_c, 9, 42, 95
9, 111360, Note_on_c, 9, 36, 95
9, 111680, Note_off_c, 9, 42, 95
9, 111680, Note_off_c, 9, 36, 95
9, 112000, Note_on_c, 9, 42, 95
9, 112320, Note_off_c, 9, 42, 95
9, 112320, Note_on_c, 9, 42, 95
9, 112320, Note_on_c, 9, 38, 95
9, 112320, Note_on_c, 9, 36, 95
9, 112640, Note_off_c, 9, 42, 95
9, 112640, Note_off_c, 9, 38, 95
9, 112640, Note_off_c, 9, 36, 95
9, 112960, Note_on_c, 9, 46, 95
9, 113280, Note_off_c, 9, 46, 95
9, 113280, Note_on_c, 9, 42, 95
9, 113280, Note_on_c, 9, 36, 95
9, 113600, Note_off_c, 9, 42, 95
9, 113600, Note_off_c, 9, 36, 95
9, 113920, Note_on_c, 9, 42, 95
9, 114240, Note_off_c, 9, 42, 95
9, 114240, Note_on_c, 9, 42, 95
9, 114240, Note_on_c, 9, 36, 95
9, 114560, Note_off_c, 9, 42, 95
9, 114560, Note_off_c, 9, 36, 95
9, 114880, Note_on_c, 9, 42, 95
9, 115200, Note_off_c, 9, 42, 95
9, 115200, Note_on_c, 9, 42, 95
9, 115200, Note_on_c, 9, 36, 95
9, 115520, Note_off_c, 9, 42, 95
9, 115520, Note_off_c, 9, 36, 95
9, 115840, Note_on_c, 9, 42, 95
9, 116160, Note_off_c, 9, 42, 95
9, 116160, Note_on_c, 9, 42, 95
9, 116160, Note_on_c, 9, 38, 95
9, 116160, Note_on_c, 9, 36, 95
9, 116480, Note_off_c, 9, 42, 95
9, 116480, Note_off_c, 9, 38, 95
9, 116480, Note_off_c, 9, 36, 95
9, 116800, Note_on_c, 9, 49, 95
9, 116800, Note_on_c, 9, 38, 95
9, 117120, Note_off_c, 9, 49, 95
9, 117120, Note_off_c, 9, 38, 95
9, 117120, Note_on_c, 9, 42, 95
9, 117120, Note_on_c, 9, 36, 95
9, 117440, Note_off_c, 9, 42, 95
9, 117440, Note_off_c, 9, 36, 95
9, 117760, Note_on_c, 9, 42, 95
9, 118080, Note_off_c, 9, 42, 95
9, 118080, Note_on_c, 9, 42, 95
9, 118080, Note_on_c, 9, 36, 95
9, 118400, Note_off_c, 9, 42, 95
9, 118400, Note_off_c, 9, 36, 95
9, 118720, Note_on_c, 9, 42, 95
9, 119040, Note_off_c, 9, 42, 95
9, 119040, Note_on_c, 9, 42, 95
9, 119040, Note_on_c, 9, 36, 95
9, 119360, Note_off_c, 9, 42, 95
9, 119360, Note_off_c, 9, 36, 95
9, 119680, Note_on_c, 9, 42, 95
9, 120000, Note_off_c, 9, 42, 95
9, 120000, Note_on_c, 9, 42, 95
9, 120000, Note_on_c, 9, 38, 95
9, 120000, Note_on_c, 9, 36, 95
9, 120320, Note_off_c, 9, 42, 95
9, 120320, Note_off_c, 9, 38, 95
9, 120320, Note_off_c, 9, 36, 95
9, 120640, Note_on_c, 9, 46, 95
9, 120960, Note_off_c, 9, 46, 95
9, 120960, Note_on_c, 9, 42, 95
9, 120960, Note_on_c, 9, 36, 95
9, 121280, Note_off_c, 9, 42, 95
9, 121280, Note_off_c, 9, 36, 95
9, 121600, Note_on_c, 9, 42, 95
9, 121920, Note_off_c, 9, 42, 95
9, 121920, Note_on_c, 9, 42, 95
9, 121920, Note_on_c, 9, 36, 95
9, 122240, Note_off_c, 9, 42, 95
9, 122240, Note_off_c, 9, 36, 95
9, 122560, Note_on_c, 9, 42, 95
9, 122880, Note_off_c, 9, 42, 95
9, 122880, Note_on_c, 9, 42, 95
9, 122880, Note_on_c, 9, 36, 95
9, 123200, Note_off_c, 9, 42, 95
9, 123200, Note_off_c, 9, 36, 95
9, 123520, Note_on_c, 9, 42, 95
9, 123840, Note_off_c, 9, 42, 95
9, 123840, Note_on_c, 9, 42, 95
9, 123840, Note_on_c, 9, 38, 95
9, 123840, Note_on_c, 9, 36, 95
9, 124160, Note_off_c, 9, 42, 95
9, 124160, Note_off_c, 9, 38, 95
9, 124160, Note_off_c, 9, 36, 95
9, 124480, Note_on_c, 9, 49, 95
9, 124480, Note_on_c, 9, 38, 95
9, 124800, Note_off_c, 9, 49, 95
9, 124800, Note_off_c, 9, 38, 95
9, 124800, Note_on_c, 9, 42, 95
9, 124800, Note_on_c, 9, 36, 95
9, 125120, Note_off_c, 9, 42, 95
9, 125120, Note_off_c, 9, 36, 95
9, 125440, Note_on_c, 9, 42, 95
9, 125760, Note_off_c, 9, 42, 95
9, 125760, Note_on_c, 9, 42, 95
9, 125760, Note_on_c, 9, 36, 95
9, 126080, Note_off_c, 9, 42, 95
9, 126080, Note_off_c, 9, 36, 95
9, 126400, Note_on_c, 9, 42, 95
9, 126720, Note_off_c, 9, 42, 95
9, 126720, Note_on_c, 9, 42, 95
9, 126720, Note_on_c, 9, 36, 95
9, 127040, Note_off_c, 9, 42, 95
9, 127040, Note_off_c, 9, 36, 95
9, 127360, Note_on_c, 9, 42, 95
9, 127680, Note_off_c, 9, 42, 95
9, 127680, Note_on_c, 9, 42, 95
9, 127680, Note_on_c, 9, 38, 95
9, 127680, Note_on_c, 9, 36, 95
9, 128000, Note_off_c, 9, 42, 95
9, 128000, Note_off_c, 9, 38, 95
9, 128000, Note_off_c, 9, 36, 95
9, 128320, Note_on_c, 9, 46, 95
9, 128640, Note_off_c, 9, 46, 95
9, 128640, Note_on_c, 9, 42, 95
9, 128640, Note_on_c, 9, 36, 95
9, 128960, Note_off_c, 9, 42, 95
9, 128960, Note_off_c, 9, 36, 95
9, 129280, Note_on_c, 9, 42, 95
9, 129600, Note_off_c, 9, 42, 95
9, 129600, Note_on_c, 9, 42, 95
9, 129600, Note_on_c, 9, 36, 95
9, 129920, Note_off_c, 9, 42, 95
9, 129920, Note_off_c, 9, 36, 95
9, 130240, Note_on_c, 9, 42, 95
9, 130560, Note_off_c, 9, 42, 95
9, 130560, Note_on_c, 9, 42, 95
9, 130560, Note_on_c, 9, 36, 95
9, 130880, Note_off_c, 9, 42, 95
9, 130880, Note_off_c, 9, 36, 95
9, 131200, Note_on_c, 9, 42, 95
9, 131520, Note_off_c, 9, 42, 95
9, 131520, Note_on_c, 9, 42, 95
9, 131520, Note_on_c, 9, 38, 95
9, 131520, Note_on_c, 9, 36, 95
9, 131840, Note_off_c, 9, 42, 95
9, 131840, Note_off_c, 9, 38, 95
9, 131840, Note_off_c, 9, 36, 95
9, 132160, Note_on_c, 9, 49, 95
9, 132160, Note_on_c, 9, 38, 95
9, 132480, Note_off_c, 9, 49, 95
9, 132480, Note_off_c, 9, 38, 95
9, 132480, Note_on_c, 9, 42, 95
9, 132480, Note_on_c, 9, 36, 95
9, 132800, Note_off_c, 9, 42, 95
9, 132800, Note_off_c, 9, 36, 95
9, 133120, Note_on_c, 9, 42, 95
9, 133440, Note_off_c, 9, 42, 95
9, 133440, Note_on_c, 9, 42, 95
9, 133440, Note_on_c, 9, 36, 95
9, 133760, Note_off_c, 9, 42, 95
9, 133760, Note_off_c, 9, 36, 95
9, 134080, Note_on_c, 9, 38, 95
9, 134400, Note_off_c, 9, 38, 95
9, 134400, Note_on_c, 9, 46, 95
9, 134400, Note_on_c, 9, 36, 95
9, 134720, Note_off_c, 9, 46, 95
9, 134720, Note_off_c, 9, 36, 95
9, 135040, Note_on_c, 9, 46, 95
9, 135360, Note_off_c, 9, 46, 95
9, 135360, Note_on_c, 9, 46, 95
9, 135360, Note_on_c, 9, 38, 95
9, 135360, Note_on_c, 9, 36, 95
9, 135680, Note_off_c, 9, 46, 95
9, 135680, Note_off_c, 9, 38, 95
9, 135680, Note_off_c, 9, 36, 95
9, 135680, Note_on_c, 9, 46, 95
9, 136000, Note_off_c, 9, 46, 95
9, 136000, Note_on_c, 9, 46, 95
9, 136320, Note_off_c, 9, 46, 95
9, 136320, Note_on_c, 9, 46, 95
9, 136320, Note_on_c, 9, 36, 95
9, 136640, Note_off_c, 9, 46, 95
9, 136640, Note_off_c, 9, 36, 95
9, 136640, Note_on_c, 9, 46, 95
9, 136960, Note_off_c, 9, 46, 95
9, 136960, Note_on_c, 9, 46, 95
9, 137280, Note_off_c, 9, 46, 95
9, 137280, Note_on_c, 9, 46, 95
9, 137280, Note_on_c, 9, 38, 95
9, 137280, Note_on_c, 9, 36, 95
9, 137600, Note_off_c, 9, 46, 95
9, 137600, Note_off_c, 9, 38, 95
9, 137600, Note_off_c, 9, 36, 95
9, 137600, Note_on_c, 9, 46, 95
9, 137920, Note_off_c, 9, 46, 95
9, 137920, Note_on_c, 9, 46, 95
9, 138240, Note_off_c, 9, 46, 95
9, 138240, Note_on_c, 9, 46, 95
9, 138240, Note_on_c, 9, 36, 95
9, 138560, Note_off_c, 9, 46, 95
9, 138560, Note_off_c, 9, 36, 95
9, 138560, Note_on_c, 9, 46, 95
9, 138880, Note_off_c, 9, 46, 95
9, 138880, Note_on_c, 9, 46, 95
9, 139200, Note_off_c, 9, 46, 95
9, 139200, Note_on_c, 9, 46, 95
9, 139200, Note_on_c, 9, 38, 95
9, 139200, Note_on_c, 9, 36, 95
9, 139520, Note_off_c, 9, 46, 95
9, 139520, Note_off_c, 9, 38, 95
9, 139520, Note_off_c, 9, 36, 95
9, 139520, Note_on_c, 9, 46, 95
9, 139840, Note_off_c, 9, 46, 95
9, 139840, Note_on_c, 9, 46, 95
9, 140160, Note_off_c, 9, 46, 95
9, 140160, Note_on_c, 9, 46, 95
9, 140160, Note_on_c, 9, 36, 95
9, 140480, Note_off_c, 9, 46, 95
9, 140480, Note_off_c, 9, 36, 95
9, 140480, Note_on_c, 9, 46, 95
9, 140800, Note_off_c, 9, 46, 95
9, 140800, Note_on_c, 9, 46, 95
9, 141120, Note_off_c, 9, 46, 95
9, 141120, Note_on_c, 9, 46, 95
9, 141120, Note_on_c, 9, 38, 95
9, 141120, Note_on_c, 9, 36, 95
9, 141440, Note_off_c, 9, 46, 95
9, 141440, Note_off_c, 9, 38, 95
9, 141440, Note_off_c, 9, 36, 95
9, 141440, Note_on_c, 9, 46, 95
9, 141760, Note_off_c, 9, 46, 95
9, 141760, Note_on_c, 9, 46, 95
9, 142080, Note_off_c, 9, 46, 95
9, 142080, Note_on_c, 9, 49, 95
9, 142080, Note_on_c, 9, 36, 95
9, 142400, Note_off_c, 9, 49, 95
9, 142400, Note_off_c, 9, 36, 95
9, 142400, Note_on_c, 9, 42, 63
9, 142720, Note_off_c, 9, 42, 63
9, 142720, Note_on_c, 9, 42, 63
9, 143040, Note_off_c, 9, 42, 63
9, 143040, Note_on_c, 9, 42, 79
9, 143040, Note_on_c, 9, 38, 95
9, 143040, Note_on_c, 9, 36, 95
9, 143360, Note_off_c, 9, 42, 79
9, 143360, Note_off_c, 9, 38, 95
9, 143360, Note_off_c, 9, 36, 95
9, 143360, Note_on_c, 9, 42, 79
9, 143680, Note_off_c, 9, 42, 79
9, 143680, Note_on_c, 9, 42, 79
9, 144000, Note_off_c, 9, 42, 79
9, 144000, Note_on_c, 9, 42, 79
9, 144000, Note_on_c, 9, 36, 95
9, 144320, Note_off_c, 9, 42, 79
9, 144320, Note_off_c, 9, 36, 95
9, 144320, Note_on_c, 9, 42, 79
9, 144640, Note_off_c, 9, 42, 79
9, 144640, Note_on_c, 9, 42, 79
9, 144960, Note_off_c, 9, 42, 79
9, 144960, Note_on_c, 9, 42, 79
9, 144960, Note_on_c, 9, 38, 95
9, 144960, Note_on_c, 9, 36, 95
9, 145280, Note_off_c, 9, 42, 79
9, 145280, Note_off_c, 9, 38, 95
9, 145280, Note_off_c, 9, 36, 95
9, 145280, Note_on_c, 9, 42, 79
9, 145600, Note_off_c, 9, 42, 79
9, 145600, Note_on_c, 9, 42, 79
9, 145920, Note_off_c, 9, 42, 79
9, 145920, Note_on_c, 9, 42, 79
9, 145920, Note_on_c, 9, 36, 95
9, 146240, Note_off_c, 9, 42, 79
9, 146240, Note_off_c, 9, 36, 95
9, 146240, Note_on_c, 9, 42, 79
9, 146560, Note_off_c, 9, 42, 79
9, 146560, Note_on_c, 9, 42, 79
9, 146880, Note_off_c, 9, 42, 79
9, 146880, Note_on_c, 9, 42, 79
9, 146880, Note_on_c, 9, 38, 95
9, 146880, Note_on_c, 9, 36, 95
9, 147200, Note_off_c, 9, 42, 79
9, 147200, Note_off_c, 9, 38, 95
9, 147200, Note_off_c, 9, 36, 95
9, 147200, Note_on_c, 9, 42, 79
9, 147520, Note_off_c, 9, 42, 79
9, 147520, Note_on_c, 9, 42, 79
9, 147840, Note_off_c, 9, 42, 79
9, 147840, Note_on_c, 9, 42, 79
9, 147840, Note_on_c, 9, 36, 95
9, 148160, Note_off_c, 9, 42, 79
9, 148160, Note_off_c, 9, 36, 95
9, 148160, Note_on_c, 9, 42, 79
9, 148480, Note_off_c, 9, 42, 79
9, 148480, Note_on_c, 9, 42, 79
9, 148800, Note_off_c, 9, 42, 79
9, 148800, Note_on_c, 9, 42, 79
9, 148800, Note_on_c, 9, 38, 95
9, 148800, Note_on_c, 9, 36, 95
9, 149120, Note_off_c, 9, 42, 79
9, 149120, Note_off_c, 9, 38, 95
9, 149120, Note_off_c, 9, 36, 95
9, 149120, Note_on_c, 9, 42, 79
9, 149440, Note_off_c, 9, 42, 79
9, 149440, Note_on_c, 9, 42, 79
9, 149760, Note_off_c, 9, 42, 79
9, 149760, Note_on_c, 9, 42, 79
9, 149760, Note_on_c, 9, 36, 95
9, 150080, Note_off_c, 9, 42, 79
9, 150080, Note_off_c, 9, 36, 95
9, 150080, Note_on_c, 9, 42, 79
9, 150400, Note_off_c, 9, 42, 79
9, 150400, Note_on_c, 9, 42, 79
9, 150720, Note_off_c, 9, 42, 79
9, 150720, Note_on_c, 9, 42, 79
9, 150720, Note_on_c, 9, 38, 95
9, 150720, Note_on_c, 9, 36, 95
9, 151040, Note_off_c, 9, 42, 79
9, 151040, Note_off_c, 9, 38, 95
9, 151040, Note_off_c, 9, 36, 95
9, 151040, Note_on_c, 9, 42, 79
9, 151360, Note_off_c, 9, 42, 79
9, 151360, Note_on_c, 9, 42, 79
9, 151680, Note_off_c, 9, 42, 79
9, 151680, Note_on_c, 9, 42, 79
9, 151680, Note_on_c, 9, 36, 95
9, 152000, Note_off_c, 9, 42, 79
9, 152000, Note_off_c, 9, 36, 95
9, 152000, Note_on_c, 9, 42, 79
9, 152320, Note_off_c, 9, 42, 79
9, 152320, Note_on_c, 9, 42, 79
9, 152640, Note_off_c, 9, 42, 79
9, 152640, Note_on_c, 9, 42, 79
9, 152640, Note_on_c, 9, 38, 95
9, 152640, Note_on_c, 9, 36, 95
9, 152960, Note_off_c, 9, 42, 79
9, 152960, Note_off_c, 9, 38, 95
9, 152960, Note_off_c, 9, 36, 95
9, 152960, Note_on_c, 9, 42, 79
9, 153280, Note_off_c, 9, 42, 79
9, 153280, Note_on_c, 9, 42, 79
9, 153600, Note_off_c, 9, 42, 79
9, 153600, Note_on_c, 9, 42, 79
9, 153600, Note_on_c, 9, 36, 95
9, 153920, Note_off_c, 9, 42, 79
9, 153920, Note_off_c, 9, 36, 95
9, 153920, Note_on_c, 9, 42, 79
9, 154240, Note_off_c, 9, 42, 79
9, 154240, Note_on_c, 9, 42, 79
9, 154560, Note_off_c, 9, 42, 79
9, 154560, Note_on_c, 9, 42, 79
9, 154560, Note_on_c, 9, 38, 95
9, 154560, Note_on_c, 9, 36, 95
9, 154880, Note_off_c, 9, 42, 79
9, 154880, Note_off_c, 9, 38, 95
9, 154880, Note_off_c, 9, 36, 95
9, 154880, Note_on_c, 9, 42, 79
9, 155200, Note_off_c, 9, 42, 79
9, 155200, Note_on_c, 9, 42, 79
9, 155520, Note_off_c, 9, 42, 79
9, 155520, Note_on_c, 9, 42, 79
9, 155520, Note_on_c, 9, 36, 95
9, 155840, Note_off_c, 9, 42, 79
9, 155840, Note_off_c, 9, 36, 95
9, 155840, Note_on_c, 9, 42, 79
9, 156160, Note_off_c, 9, 42, 79
9, 156160, Note_on_c, 9, 42, 79
9, 156480, Note_off_c, 9, 42, 79
9, 156480, Note_on_c, 9, 42, 79
9, 156480, Note_on_c, 9, 38, 95
9, 156480, Note_on_c, 9, 36, 95
9, 156800, Note_off_c, 9, 42, 79
9, 156800, Note_off_c, 9, 38, 95
9, 156800, Note_off_c, 9, 36, 95
9, 156800, Note_on_c, 9, 42, 79
9, 157120, Note_off_c, 9, 42, 79
9, 157120, Note_on_c, 9, 42, 79
9, 157440, Note_off_c, 9, 42, 79
9, 157440, Note_on_c, 9, 42, 79
9, 157440, Note_on_c, 9, 36, 95
9, 157760, Note_off_c, 9, 42, 79
9, 157760, Note_off_c, 9, 36, 95
9, 157760, Note_on_c, 9, 42, 79
9, 158080, Note_off_c, 9, 42, 79
9, 158080, Note_on_c, 9, 42, 79
9, 158400, Note_off_c, 9, 42, 79
9, 158400, Note_on_c, 9, 42, 79
9, 158400, Note_on_c, 9, 38, 95
9, 158400, Note_on_c, 9, 36, 95
9, 158720, Note_off_c, 9, 42, 79
9, 158720, Note_off_c, 9, 38, 95
9, 158720, Note_off_c, 9, 36, 95
9, 158720, Note_on_c, 9, 42, 79
9, 159040, Note_off_c, 9, 42, 79
9, 159040, Note_on_c, 9, 42, 79
9, 159360, Note_off_c, 9, 42, 79
9, 159360, Note_on_c, 9, 42, 79
9, 159360, Note_on_c, 9, 36, 95
9, 159680, Note_off_c, 9, 42, 79
9, 159680, Note_off_c, 9, 36, 95
9, 159680, Note_on_c, 9, 42, 79
9, 160000, Note_off_c, 9, 42, 79
9, 160000, Note_on_c, 9, 42, 79
9, 160320, Note_off_c, 9, 42, 79
9, 160320, Note_on_c, 9, 42, 79
9, 160320, Note_on_c, 9, 38, 95
9, 160320, Note_on_c, 9, 36, 95
9, 160640, Note_off_c, 9, 42, 79
9, 160640, Note_off_c, 9, 38, 95
9, 160640, Note_off_c, 9, 36, 95
9, 160640, Note_on_c, 9, 42, 79
9, 160960, Note_off_c, 9, 42, 79
9, 160960, Note_on_c, 9, 42, 79
9, 161280, Note_off_c, 9, 42, 79
9, 161280, Note_on_c, 9, 42, 79
9, 161280, Note_on_c, 9, 36, 95
9, 161600, Note_off_c, 9, 42, 79
9, 161600, Note_off_c, 9, 36, 95
9, 161600, Note_on_c, 9, 42, 79
9, 161920, Note_off_c, 9, 42, 79
9, 161920, Note_on_c, 9, 42, 79
9, 162240, Note_off_c, 9, 42, 79
9, 162240, Note_on_c, 9, 42, 79
9, 162240, Note_on_c, 9, 38, 95
9, 162240, Note_on_c, 9, 36, 95
9, 162560, Note_off_c, 9, 42, 79
9, 162560, Note_off_c, 9, 38, 95
9, 162560, Note_off_c, 9, 36, 95
9, 162560, Note_on_c, 9, 42, 79
9, 162880, Note_off_c, 9, 42, 79
9, 162880, Note_on_c, 9, 42, 79
9, 163200, Note_off_c, 9, 42, 79
9, 163200, Note_on_c, 9, 42, 79
9, 163200, Note_on_c, 9, 36, 95
9, 163520, Note_off_c, 9, 42, 79
9, 163520, Note_off_c, 9, 36, 95
9, 163520, Note_on_c, 9, 42, 79
9, 163840, Note_off_c, 9, 42, 79
9, 163840, Note_on_c, 9, 42, 79
9, 164160, Note_off_c, 9, 42, 79
9, 164160, Note_on_c, 9, 42, 79
9, 164160, Note_on_c, 9, 38, 95
9, 164160, Note_on_c, 9, 36, 95
9, 164480, Note_off_c, 9, 42, 79
9, 164480, Note_off_c, 9, 38, 95
9, 164480, Note_off_c, 9, 36, 95
9, 164480, Note_on_c, 9, 42, 79
9, 164800, Note_off_c, 9, 42, 79
9, 164800, Note_on_c, 9, 42, 79
9, 165120, Note_off_c, 9, 42, 79
9, 165120, Note_on_c, 9, 42, 79
9, 165120, Note_on_c, 9, 36, 95
9, 165440, Note_off_c, 9, 42, 79
9, 165440, Note_off_c, 9, 36, 95
9, 165440, Note_on_c, 9, 42, 79
9, 165760, Note_off_c, 9, 42, 79
9, 165760, Note_on_c, 9, 42, 79
9, 166080, Note_off_c, 9, 42, 79
9, 166080, Note_on_c, 9, 42, 79
9, 166080, Note_on_c, 9, 38, 95
9, 166080, Note_on_c, 9, 36, 95
9, 166400, Note_off_c, 9, 42, 79
9, 166400, Note_off_c, 9, 38, 95
9, 166400, Note_off_c, 9, 36, 95
9, 166400, Note_on_c, 9, 42, 79
9, 166720, Note_off_c, 9, 42, 79
9, 166720, Note_on_c, 9, 42, 79
9, 167040, Note_off_c, 9, 42, 79
9, 167040, Note_on_c, 9, 42, 79
9, 167040, Note_on_c, 9, 36, 95
9, 167360, Note_off_c, 9, 42, 79
9, 167360, Note_off_c, 9, 36, 95
9, 167360, Note_on_c, 9, 42, 79
9, 167680, Note_off_c, 9, 42, 79
9, 167680, Note_on_c, 9, 42, 79
9, 168000, Note_off_c, 9, 42, 79
9, 168000, Note_on_c, 9, 42, 79
9, 168000, Note_on_c, 9, 38, 95
9, 168000, Note_on_c, 9, 36, 95
9, 168320, Note_off_c, 9, 42, 79
9, 168320, Note_off_c, 9, 38, 95
9, 168320, Note_off_c, 9, 36, 95
9, 168320, Note_on_c, 9, 42, 79
9, 168640, Note_off_c, 9, 42, 79
9, 168640, Note_on_c, 9, 42, 79
9, 168960, Note_off_c, 9, 42, 79
9, 168960, Note_on_c, 9, 42, 79
9, 168960, Note_on_c, 9, 36, 95
9, 169280, Note_off_c, 9, 42, 79
9, 169280, Note_off_c, 9, 36, 95
9, 169280, Note_on_c, 9, 42, 79
9, 169600, Note_off_c, 9, 42, 79
9, 169600, Note_on_c, 9, 42, 79
9, 169920, Note_off_c, 9, 42, 79
9, 169920, Note_on_c, 9, 42, 79
9, 169920, Note_on_c, 9, 38, 95
9, 169920, Note_on_c, 9, 36, 95
9, 170240, Note_off_c, 9, 42, 79
9, 170240, Note_off_c, 9, 38, 95
9, 170240, Note_off_c, 9, 36, 95
9, 170240, Note_on_c, 9, 42, 79
9, 170560, Note_off_c, 9, 42, 79
9, 170560, Note_on_c, 9, 42, 79
9, 170880, Note_off_c, 9, 42, 79
9, 170880, Note_on_c, 9, 42, 79
9, 170880, Note_on_c, 9, 36, 95
9, 171200, Note_off_c, 9, 42, 79
9, 171200, Note_off_c, 9, 36, 95
9, 171200, Note_on_c, 9, 42, 79
9, 171520, Note_off_c, 9, 42, 79
9, 171520, Note_on_c, 9, 42, 95
9, 171840, Note_off_c, 9, 42, 95
9, 171840, Note_on_c, 9, 42, 95
9, 171840, Note_on_c, 9, 38, 95
9, 171840, Note_on_c, 9, 36, 95
9, 172160, Note_off_c, 9, 42, 95
9, 172160, Note_off_c, 9, 38, 95
9, 172160, Note_off_c, 9, 36, 95
9, 172480, Note_on_c, 9, 38, 95
9, 172800, Note_off_c, 9, 38, 95
9, 172800, Note_on_c, 9, 49, 95
9, 172800, Note_on_c, 9, 36, 95
9, 173120, Note_off_c, 9, 49, 95
9, 173120, Note_off_c, 9, 36, 95
9, 173440, Note_on_c, 9, 42, 79
9, 173760, Note_off_c, 9, 42, 79
9, 173760, Note_on_c, 9, 42, 95
9, 173760, Note_on_c, 9, 38, 95
9, 173760, Note_on_c, 9, 36, 95
9, 174080, Note_off_c, 9, 42, 95
9, 174080, Note_off_c, 9, 38, 95
9, 174080, Note_off_c, 9, 36, 95
9, 174400, Note_on_c, 9, 42, 79
9, 174720, Note_off_c, 9, 42, 79
9, 174720, Note_on_c, 9, 42, 79
9, 174720, Note_on_c, 9, 36, 95
9, 175040, Note_off_c, 9, 42, 79
9, 175040, Note_off_c, 9, 36, 95
9, 175360, Note_on_c, 9, 42, 79
9, 175680, Note_off_c, 9, 42, 79
9, 175680, Note_on_c, 9, 42, 95
9, 175680, Note_on_c, 9, 38, 95
9, 175680, Note_on_c, 9, 36, 95
9, 176000, Note_off_c, 9, 42, 95
9, 176000, Note_off_c, 9, 38, 95
9, 176000, Note_off_c, 9, 36, 95
9, 176320, Note_on_c, 9, 42, 79
9, 176640, Note_off_c, 9, 42, 79
9, 176640, Note_on_c, 9, 42, 95
9, 176640, Note_on_c, 9, 36, 95
9, 176960, Note_off_c, 9, 42, 95
9, 176960, Note_off_c, 9, 36, 95
9, 177280, Note_on_c, 9, 42, 79
9, 177600, Note_off_c, 9, 42, 79
9, 177600, Note_on_c, 9, 42, 95
9, 177600, Note_on_c, 9, 38, 95
9, 177600, Note_on_c, 9, 36, 95
9, 177920, Note_off_c, 9, 42, 95
9, 177920, Note_off_c, 9, 38, 95
9, 177920, Note_off_c, 9, 36, 95
9, 178240, Note_on_c, 9, 42, 79
9, 178560, Note_off_c, 9, 42, 79
9, 178560, Note_on_c, 9, 42, 79
9, 178560, Note_on_c, 9, 36, 95
9, 178880, Note_off_c, 9, 42, 79
9, 178880, Note_off_c, 9, 36, 95
9, 179200, Note_on_c, 9, 42, 79
9, 179520, Note_off_c, 9, 42, 79
9, 179520, Note_on_c, 9, 42, 95
9, 179520, Note_on_c, 9, 38, 95
9, 179520, Note_on_c, 9, 36, 95
9, 179840, Note_off_c, 9, 42, 95
9, 179840, Note_off_c, 9, 38, 95
9, 179840, Note_off_c, 9, 36, 95
9, 180160, Note_on_c, 9, 42, 79
9, 180480, Note_off_c, 9, 42, 79
9, 180480, Note_on_c, 9, 42, 95
9, 180480, Note_on_c, 9, 36, 95
9, 180800, Note_off_c, 9, 42, 95
9, 180800, Note_off_c, 9, 36, 95
9, 181120, Note_on_c, 9, 42, 79
9, 181440, Note_off_c, 9, 42, 79
9, 181440, Note_on_c, 9, 42, 95
9, 181440, Note_on_c, 9, 38, 95
9, 181440, Note_on_c, 9, 36, 95
9, 181760, Note_off_c, 9, 42, 95
9, 181760, Note_off_c, 9, 38, 95
9, 181760, Note_off_c, 9, 36, 95
9, 182080, Note_on_c, 9, 42, 79
9, 182400, Note_off_c, 9, 42, 79
9, 182400, Note_on_c, 9, 42, 79
9, 182400, Note_on_c, 9, 36, 95
9, 182720, Note_off_c, 9, 42, 79
9, 182720, Note_off_c, 9, 36, 95
9, 183040, Note_on_c, 9, 42, 79
9, 183360, Note_off_c, 9, 42, 79
9, 183360, Note_on_c, 9, 42, 95
9, 183360, Note_on_c, 9, 38, 95
9, 183360, Note_on_c, 9, 36, 95
9, 183680, Note_off_c, 9, 42, 95
9, 183680, Note_off_c, 9, 38, 95
9, 183680, Note_off_c, 9, 36, 95
9, 184000, Note_on_c, 9, 42, 79
9, 184320, Note_off_c, 9, 42, 79
9, 184320, Note_on_c, 9, 42, 95
9, 184320, Note_on_c, 9, 36, 95
9, 184640, Note_off_c, 9, 42, 95
9, 184640, Note_off_c, 9, 36, 95
9, 184960, Note_on_c, 9, 42, 79
9, 185280, Note_off_c, 9, 42, 79
9, 185280, Note_on_c, 9, 42, 95
9, 185280, Note_on_c, 9, 38, 95
9, 185280, Note_on_c, 9, 36, 95
9, 185600, Note_off_c, 9, 42, 95
9, 185600, Note_off_c, 9, 38, 95
9, 185600, Note_off_c, 9, 36, 95
9, 185920, Note_on_c, 9, 42, 79
9, 186240, Note_off_c, 9, 42, 79
9, 186240, Note_on_c, 9, 42, 79
9, 186240, Note_on_c, 9, 36, 95
9, 186560, Note_off_c, 9, 42, 79
9, 186560, Note_off_c, 9, 36, 95
9, 186880, Note_on_c, 9, 42, 79
9, 187200, Note_off_c, 9, 42, 79
9, 187200, Note_on_c, 9, 42, 95
9, 187200, Note_on_c, 9, 38, 95
9, 187200, Note_on_c, 9, 36, 95
9, 187840, Note_off_c, 9, 42, 95
9, 187840, Note_off_c, 9, 38, 95
9, 187840, Note_off_c, 9, 36, 95
9, 187840, Note_on_c, 9, 38, 95
9, 188160, Note_off_c, 9, 38, 95
9, 188160, Note_on_c, 9, 49, 95
9, 188160, Note_on_c, 9, 36, 95
9, 188480, Note_off_c, 9, 49, 95
9, 188480, Note_off_c, 9, 36, 95
9, 188800, Note_on_c, 9, 42, 79
9, 189120, Note_off_c, 9, 42, 79
9, 189120, Note_on_c, 9, 42, 95
9, 189120, Note_on_c, 9, 38, 95
9, 189120, Note_on_c, 9, 36, 95
9, 189440, Note_off_c, 9, 42, 95
9, 189440, Note_off_c, 9, 38, 95
9, 189440, Note_off_c, 9, 36, 95
9, 189760, Note_on_c, 9, 42, 79
9, 190080, Note_off_c, 9, 42, 79
9, 190080, Note_on_c, 9, 42, 79
9, 190080, Note_on_c, 9, 36, 95
9, 190400, Note_off_c, 9, 42, 79
9, 190400, Note_off_c, 9, 36, 95
9, 190720, Note_on_c, 9, 42, 79
9, 191040, Note_off_c, 9, 42, 79
9, 191040, Note_on_c, 9, 42, 95
9, 191040, Note_on_c, 9, 38, 95
9, 191040, Note_on_c, 9, 36, 95
9, 191360, Note_off_c, 9, 42, 95
9, 191360, Note_off_c, 9, 38, 95
9, 191360, Note_off_c, 9, 36, 95
9, 191680, Note_on_c, 9, 42, 79
9, 192000, Note_off_c, 9, 42, 79
9, 192000, Note_on_c, 9, 42, 95
9, 192000, Note_on_c, 9, 36, 95
9, 192320, Note_off_c, 9, 42, 95
9, 192320, Note_off_c, 9, 36, 95
9, 192640, Note_on_c, 9, 42, 79
9, 192960, Note_off_c, 9, 42, 79
9, 192960, Note_on_c, 9, 42, 95
9, 192960, Note_on_c, 9, 38, 95
9, 192960, Note_on_c, 9, 36, 95
9, 193280, Note_off_c, 9, 42, 95
9, 193280, Note_off_c, 9, 38, 95
9, 193280, Note_off_c, 9, 36, 95
9, 193600, Note_on_c, 9, 42, 79
9, 193920, Note_off_c, 9, 42, 79
9, 193920, Note_on_c, 9, 42, 79
9, 193920, Note_on_c, 9, 36, 95
9, 194240, Note_off_c, 9, 42, 79
9, 194240, Note_off_c, 9, 36, 95
9, 194560, Note_on_c, 9, 42, 79
9, 194880, Note_off_c, 9, 42, 79
9, 194880, Note_on_c, 9, 42, 95
9, 194880, Note_on_c, 9, 38, 95
9, 194880, Note_on_c, 9, 36, 95
9, 195200, Note_off_c, 9, 42, 95
9, 195200, Note_off_c, 9, 38, 95
9, 195200, Note_off_c, 9, 36, 95
9, 195520, Note_on_c, 9, 42, 79
9, 195840, Note_off_c, 9, 42, 79
9, 195840, Note_on_c, 9, 42, 95
9, 195840, Note_on_c, 9, 36, 95
9, 196160, Note_off_c, 9, 42, 95
9, 196160, Note_off_c, 9, 36, 95
9, 196480, Note_on_c, 9, 42, 79
9, 196800, Note_off_c, 9, 42, 79
9, 196800, Note_on_c, 9, 42, 95
9, 196800, Note_on_c, 9, 38, 95
9, 196800, Note_on_c, 9, 36, 95
9, 197120, Note_off_c, 9, 42, 95
9, 197120, Note_off_c, 9, 38, 95
9, 197120, Note_off_c, 9, 36, 95
9, 197440, Note_on_c, 9, 42, 79
9, 197760, Note_off_c, 9, 42, 79
9, 197760, Note_on_c, 9, 42, 79
9, 197760, Note_on_c, 9, 36, 95
9, 198080, Note_off_c, 9, 42, 79
9, 198080, Note_off_c, 9, 36, 95
9, 198400, Note_on_c, 9, 42, 79
9, 198720, Note_off_c, 9, 42, 79
9, 198720, Note_on_c, 9, 42, 95
9, 198720, Note_on_c, 9, 38, 95
9, 198720, Note_on_c, 9, 36, 95
9, 199040, Note_off_c, 9, 42, 95
9, 199040, Note_off_c, 9, 38, 95
9, 199040, Note_off_c, 9, 36, 95
9, 199360, Note_on_c, 9, 42, 79
9, 199680, Note_off_c, 9, 42, 79
9, 199680, Note_on_c, 9, 42, 95
9, 199680, Note_on_c, 9, 36, 95
9, 200000, Note_off_c, 9, 42, 95
9, 200000, Note_off_c, 9, 36, 95
9, 200320, Note_on_c, 9, 42, 79
9, 200640, Note_off_c, 9, 42, 79
9, 200640, Note_on_c, 9, 42, 95
9, 200640, Note_on_c, 9, 38, 95
9, 200640, Note_on_c, 9, 36, 95
9, 200960, Note_off_c, 9, 42, 95
9, 200960, Note_off_c, 9, 38, 95
9, 200960, Note_off_c, 9, 36, 95
9, 201280, Note_on_c, 9, 42, 79
9, 201600, Note_off_c, 9, 42, 79
9, 201600, Note_on_c, 9, 42, 79
9, 201600, Note_on_c, 9, 36, 95
9, 201920, Note_off_c, 9, 42, 79
9, 201920, Note_off_c, 9, 36, 95
9, 202240, Note_on_c, 9, 42, 79
9, 202560, Note_off_c, 9, 42, 79
9, 202560, Note_on_c, 9, 42, 95
9, 202560, Note_on_c, 9, 38, 95
9, 202560, Note_on_c, 9, 36, 95
9, 202880, Note_off_c, 9, 42, 95
9, 202880, Note_off_c, 9, 38, 95
9, 202880, Note_off_c, 9, 36, 95
9, 203200, Note_on_c, 9, 38, 95
9, 203520, Note_off_c, 9, 38, 95
9, 203520, Note_on_c, 9, 42, 95
9, 203520, Note_on_c, 9, 36, 95
9, 203840, Note_off_c, 9, 42, 95
9, 203840, Note_off_c, 9, 36, 95
9, 204160, Note_on_c, 9, 42, 95
9, 204480, Note_off_c, 9, 42, 95
9, 204480, Note_on_c, 9, 42, 95
9, 204480, Note_on_c, 9, 38, 95
9, 204480, Note_on_c, 9, 36, 95
9, 204800, Note_off_c, 9, 42, 95
9, 204800, Note_off_c, 9, 38, 95
9, 204800, Note_off_c, 9, 36, 95
9, 205120, Note_on_c, 9, 49, 95
9, 205120, Note_on_c, 9, 38, 95
9, 205440, Note_off_c, 9, 49, 95
9, 205440, Note_off_c, 9, 38, 95
9, 205440, Note_on_c, 9, 42, 95
9, 205440, Note_on_c, 9, 36, 95
9, 205760, Note_off_c, 9, 42, 95
9, 205760, Note_off_c, 9, 36, 95
9, 206080, Note_on_c, 9, 42, 95
9, 206400, Note_off_c, 9, 42, 95
9, 206400, Note_on_c, 9, 42, 95
9, 206400, Note_on_c, 9, 36, 95
9, 206720, Note_off_c, 9, 42, 95
9, 206720, Note_off_c, 9, 36, 95
9, 207040, Note_on_c, 9, 42, 95
9, 207360, Note_off_c, 9, 42, 95
9, 207360, Note_on_c, 9, 42, 95
9, 207360, Note_on_c, 9, 36, 95
9, 207680, Note_off_c, 9, 42, 95
9, 207680, Note_off_c, 9, 36, 95
9, 208000, Note_on_c, 9, 42, 95
9, 208320, Note_off_c, 9, 42, 95
9, 208320, Note_on_c, 9, 42, 95
9, 208320, Note_on_c, 9, 38, 95
9, 208320, Note_on_c, 9, 36, 95
9, 208640, Note_off_c, 9, 42, 95
9, 208640, Note_off_c, 9, 38, 95
9, 208640, Note_off_c, 9, 36, 95
9, 208960, Note_on_c, 9, 46, 95
9, 209280, Note_off_c, 9, 46, 95
9, 209280, Note_on_c, 9, 42, 95
9, 209280, Note_on_c, 9, 36, 95
9, 209600, Note_off_c, 9, 42, 95
9, 209600, Note_off_c, 9, 36, 95
9, 209920, Note_on_c, 9, 42, 95
9, 210240, Note_off_c, 9, 42, 95
9, 210240, Note_on_c, 9, 42, 95
9, 210240, Note_on_c, 9, 36, 95
9, 210560, Note_off_c, 9, 42, 95
9, 210560, Note_off_c, 9, 36, 95
9, 210880, Note_on_c, 9, 42, 95
9, 211200, Note_off_c, 9, 42, 95
9, 211200, Note_on_c, 9, 42, 95
9, 211200, Note_on_c, 9, 36, 95
9, 211520, Note_off_c, 9, 42, 95
9, 211520, Note_off_c, 9, 36, 95
9, 211840, Note_on_c, 9, 42, 95
9, 212160, Note_off_c, 9, 42, 95
9, 212160, Note_on_c, 9, 42, 95
9, 212160, Note_on_c, 9, 38, 95
9, 212160, Note_on_c, 9, 36, 95
9, 212480, Note_off_c, 9, 42, 95
9, 212480, Note_off_c, 9, 38, 95
9, 212480, Note_off_c, 9, 36, 95
9, 212800, Note_on_c, 9, 49, 95
9, 212800, Note_on_c, 9, 38, 95
9, 213120, Note_off_c, 9, 49, 95
9, 213120, Note_off_c, 9, 38, 95
9, 213120, Note_on_c, 9, 42, 95
9, 213120, Note_on_c, 9, 36, 95
9, 213440, Note_off_c, 9, 42, 95
9, 213440, Note_off_c, 9, 36, 95
9, 213760, Note_on_c, 9, 42, 95
9, 214080, Note_off_c, 9, 42, 95
9, 214080, Note_on_c, 9, 42, 95
9, 214080, Note_on_c, 9, 36, 95
9, 214400, Note_off_c, 9, 42, 95
9, 214400, Note_off_c, 9, 36, 95
9, 214720, Note_on_c, 9, 42, 95
9, 215040, Note_off_c, 9, 42, 95
9, 215040, Note_on_c, 9, 42, 95
9, 215040, Note_on_c, 9, 36, 95
9, 215360, Note_off_c, 9, 42, 95
9, 215360, Note_off_c, 9, 36, 95
9, 215680, Note_on_c, 9, 42, 95
9, 216000, Note_off_c, 9, 42, 95
9, 216000, Note_on_c, 9, 42, 95
9, 216000, Note_on_c, 9, 38, 95
9, 216000, Note_on_c, 9, 36, 95
9, 216320, Note_off_c, 9, 42, 95
9, 216320, Note_off_c, 9, 38, 95
9, 216320, Note_off_c, 9, 36, 95
9, 216640, Note_on_c, 9, 46, 95
9, 216960, Note_off_c, 9, 46, 95
9, 216960, Note_on_c, 9, 42, 95
9, 216960, Note_on_c, 9, 36, 95
9, 217280, Note_off_c, 9, 42, 95
9, 217280, Note_off_c, 9, 36, 95
9, 217600, Note_on_c, 9, 42, 95
9, 217920, Note_off_c, 9, 42, 95
9, 217920, Note_on_c, 9, 42, 95
9, 217920, Note_on_c, 9, 36, 95
9, 218240, Note_off_c, 9, 42, 95
9, 218240, Note_off_c, 9, 36, 95
9, 218560, Note_on_c, 9, 42, 95
9, 218880, Note_off_c, 9, 42, 95
9, 218880, Note_on_c, 9, 42, 95
9, 218880, Note_on_c, 9, 36, 95
9, 219200, Note_off_c, 9, 42, 95
9, 219200, Note_off_c, 9, 36, 95
9, 219520, Note_on_c, 9, 42, 95
9, 219840, Note_off_c, 9, 42, 95
9, 219840, Note_on_c, 9, 42, 95
9, 219840, Note_on_c, 9, 38, 95
9, 219840, Note_on_c, 9, 36, 95
9, 220160, Note_off_c, 9, 42, 95
9, 220160, Note_off_c, 9, 38, 95
9, 220160, Note_off_c, 9, 36, 95
9, 220480, Note_on_c, 9, 49, 95
9, 220480, Note_on_c, 9, 38, 95
9, 220800, Note_off_c, 9, 49, 95
9, 220800, Note_off_c, 9, 38, 95
9, 220800, Note_on_c, 9, 42, 95
9, 220800, Note_on_c, 9, 36, 95
9, 221120, Note_off_c, 9, 42, 95
9, 221120, Note_off_c, 9, 36, 95
9, 221440, Note_on_c, 9, 42, 95
9, 221760, Note_off_c, 9, 42, 95
9, 221760, Note_on_c, 9, 42, 95
9, 221760, Note_on_c, 9, 36, 95
9, 222080, Note_off_c, 9, 42, 95
9, 222080, Note_off_c, 9, 36, 95
9, 222400, Note_on_c, 9, 42, 95
9, 222720, Note_off_c, 9, 42, 95
9, 222720, Note_on_c, 9, 42, 95
9, 222720, Note_on_c, 9, 36, 95
9, 223040, Note_off_c, 9, 42, 95
9, 223040, Note_off_c, 9, 36, 95
9, 223360, Note_on_c, 9, 42, 95
9, 223680, Note_off_c, 9, 42, 95
9, 223680, Note_on_c, 9, 42, 95
9, 223680, Note_on_c, 9, 38, 95
9, 223680, Note_on_c, 9, 36, 95
9, 224000, Note_off_c, 9, 42, 95
9, 224000, Note_off_c, 9, 38, 95
9, 224000, Note_off_c, 9, 36, 95
9, 224320, Note_on_c, 9, 46, 95
9, 224640, Note_off_c, 9, 46, 95
9, 224640, Note_on_c, 9, 42, 95
9, 224640, Note_on_c, 9, 36, 95
9, 224960, Note_off_c, 9, 42, 95
9, 224960, Note_off_c, 9, 36, 95
9, 225280, Note_on_c, 9, 42, 95
9, 225600, Note_off_c, 9, 42, 95
9, 225600, Note_on_c, 9, 42, 95
9, 225600, Note_on_c, 9, 36, 95
9, 225920, Note_off_c, 9, 42, 95
9, 225920, Note_off_c, 9, 36, 95
9, 226240, Note_on_c, 9, 42, 95
9, 226560, Note_off_c, 9, 42, 95
9, 226560, Note_on_c, 9, 42, 95
9, 226560, Note_on_c, 9, 36, 95
9, 226880, Note_off_c, 9, 42, 95
9, 226880, Note_off_c, 9, 36, 95
9, 227200, Note_on_c, 9, 42, 95
9, 227520, Note_off_c, 9, 42, 95
9, 227520, Note_on_c, 9, 42, 95
9, 227520, Note_on_c, 9, 38, 95
9, 227520, Note_on_c, 9, 36, 95
9, 227840, Note_off_c, 9, 42, 95
9, 227840, Note_off_c, 9, 38, 95
9, 227840, Note_off_c, 9, 36, 95
9, 228160, Note_on_c, 9, 49, 95
9, 228160, Note_on_c, 9, 38, 95
9, 228480, Note_off_c, 9, 49, 95
9, 228480, Note_off_c, 9, 38, 95
9, 228480, Note_on_c, 9, 42, 95
9, 228480, Note_on_c, 9, 36, 95
9, 228800, Note_off_c, 9, 42, 95
9, 228800, Note_off_c, 9, 36, 95
9, 229120, Note_on_c, 9, 42, 95
9, 229440, Note_off_c, 9, 42, 95
9, 229440, Note_on_c, 9, 42, 95
9, 229440, Note_on_c, 9, 36, 95
9, 229760, Note_off_c, 9, 42, 95
9, 229760, Note_off_c, 9, 36, 95
9, 230080, Note_on_c, 9, 38, 95
9, 230400, Note_off_c, 9, 38, 95
9, 230400, Note_on_c, 9, 46, 95
9, 230400, Note_on_c, 9, 36, 95
9, 230720, Note_off_c, 9, 46, 95
9, 230720, Note_off_c, 9, 36, 95
9, 231040, Note_on_c, 9, 46, 95
9, 231360, Note_off_c, 9, 46, 95
9, 231360, Note_on_c, 9, 46, 95
9, 231360, Note_on_c, 9, 38, 95
9, 231360, Note_on_c, 9, 36, 95
9, 231680, Note_off_c, 9, 46, 95
9, 231680, Note_off_c, 9, 38, 95
9, 231680, Note_off_c, 9, 36, 95
9, 232000, Note_on_c, 9, 46, 95
9, 232320, Note_off_c, 9, 46, 95
9, 232320, Note_on_c, 9, 46, 95
9, 232320, Note_on_c, 9, 36, 95
9, 232640, Note_off_c, 9, 46, 95
9, 232640, Note_off_c, 9, 36, 95
9, 232960, Note_on_c, 9, 46, 95
9, 233280, Note_off_c, 9, 46, 95
9, 233280, Note_on_c, 9, 46, 95
9, 233280, Note_on_c, 9, 38, 95
9, 233280, Note_on_c, 9, 36, 95
9, 233600, Note_off_c, 9, 46, 95
9, 233600, Note_off_c, 9, 38, 95
9, 233600, Note_off_c, 9, 36, 95
9, 233920, Note_on_c, 9, 46, 95
9, 234240, Note_off_c, 9, 46, 95
9, 234240, Note_on_c, 9, 46, 95
9, 234240, Note_on_c, 9, 36, 95
9, 234560, Note_off_c, 9, 46, 95
9, 234560, Note_off_c, 9, 36, 95
9, 234880, Note_on_c, 9, 46, 95
9, 235200, Note_off_c, 9, 46, 95
9, 235200, Note_on_c, 9, 46, 95
9, 235200, Note_on_c, 9, 38, 95
9, 235200, Note_on_c, 9, 36, 95
9, 235520, Note_off_c, 9, 46, 95
9, 235520, Note_off_c, 9, 38, 95
9, 235520, Note_off_c, 9, 36, 95
9, 235840, Note_on_c, 9, 46, 95
9, 236160, Note_off_c, 9, 46, 95
9, 236160, Note_on_c, 9, 46, 95
9, 236160, Note_on_c, 9, 36, 95
9, 236480, Note_off_c, 9, 46, 95
9, 236480, Note_off_c, 9, 36, 95
9, 236800, Note_on_c, 9, 46, 95
9, 237120, Note_off_c, 9, 46, 95
9, 237120, Note_on_c, 9, 46, 95
9, 237120, Note_on_c, 9, 38, 95
9, 237120, Note_on_c, 9, 36, 95
9, 237440, Note_off_c, 9, 46, 95
9, 237440, Note_off_c, 9, 38, 95
9, 237440, Note_off_c, 9, 36, 95
9, 237760, Note_on_c, 9, 46, 95
9, 238080, Note_off_c, 9, 46, 95
9, 238080, Note_on_c, 9, 49, 95
9, 238080, Note_on_c, 9, 44, 95
9, 238080, Note_on_c, 9, 36, 95
9, 239040, Note_off_c, 9, 49, 95
9, 239040, Note_off_c, 9, 44, 95
9, 239040, Note_off_c, 9, 36, 95
9, 239040, Note_on_c, 9, 44, 95
9, 240000, Note_off_c, 9, 44, 95
9, 240000, Note_on_c, 9, 44, 95
9, 240960, Note_off_c, 9, 44, 95
9, 240960, Note_on_c, 9, 44, 95
9, 241280, Note_off_c, 9, 44, 95
9, 241600, Note_on_c, 9, 38, 95
9, 241720, Note_off_c, 9, 38, 95
9, 241720, Note_on_c, 9, 38, 95
9, 241840, Note_off_c, 9, 38, 95
9, 241840, Note_on_c, 9, 38, 95
9, 241919, Note_off_c, 9, 38, 95
9, 241920, Note_on_c, 9, 49, 95
9, 241920, Note_on_c, 9, 44, 95
9, 241920, Note_on_c, 9, 36, 95
9, 242880, Note_off_c, 9, 49, 95
9, 242880, Note_off_c, 9, 44, 95
9, 242880, Note_off_c, 9, 36, 95
9, 242880, Note_on_c, 9, 44, 95
9, 243840, Note_off_c, 9, 44, 95
9, 243840, Note_on_c, 9, 44, 95
9, 244800, Note_off_c, 9, 44, 95
9, 244800, Note_on_c, 9, 44, 95
9, 245120, Note_off_c, 9, 44, 95
9, 245440, Note_on_c, 9, 38, 95
9, 245560, Note_off_c, 9, 38, 95
9, 245560, Note_on_c, 9, 38, 95
9, 245680, Note_off_c, 9, 38, 95
9, 245680, Note_on_c, 9, 38, 95
9, 245759, Note_off_c, 9, 38, 95
9, 245760, Note_on_c, 9, 49, 95
9, 245760, Note_on_c, 9, 44, 95
9, 245760, Note_on_c, 9, 36, 95
9, 246720, Note_off_c, 9, 49, 95
9, 246720, Note_off_c, 9, 44, 95
9, 246720, Note_off_c, 9, 36, 95
9, 246720, Note_on_c, 9, 44, 95
9, 247680, Note_off_c, 9, 44, 95
9, 247680, Note_on_c, 9, 44, 95
9, 247680, Note_on_c, 9, 38, 95
9, 248000, Note_off_c, 9, 44, 95
9, 248000, Note_off_c, 9, 38, 95
9, 248320, Note_on_c, 9, 48, 95
9, 248640, Note_off_c, 9, 48, 95
9, 248640, Note_on_c, 9, 44, 95
9, 248960, Note_off_c, 9, 44, 95
9, 248960, Note_on_c, 9, 45, 95
9, 249280, Note_off_c, 9, 45, 95
9, 249280, Note_on_c, 9, 45, 95
9, 249600, Note_off_c, 9, 45, 95
9, 249600, Note_on_c, 9, 44, 95
9, 249600, Note_on_c, 9, 45, 95
9, 249920, Note_off_c, 9, 44, 95
9, 249920, Note_off_c, 9, 45, 95
9, 249920, Note_on_c, 9, 45, 95
9, 250240, Note_off_c, 9, 45, 95
9, 250240, Note_on_c, 9, 45, 95
9, 250560, Note_off_c, 9, 45, 95
9, 250560, Note_on_c, 9, 44, 95
9, 250560, Note_on_c, 9, 45, 95
9, 250880, Note_off_c, 9, 44, 95
9, 250880, Note_off_c, 9, 45, 95
9, 250880, Note_on_c, 9, 45, 95
9, 251200, Note_off_c, 9, 45, 95
9, 251200, Note_on_c, 9, 45, 95
9, 251520, Note_off_c, 9, 45, 95
9, 251520, Note_on_c, 9, 44, 95
9, 251520, Note_on_c, 9, 41, 95
9, 251840, Note_off_c, 9, 44, 95
9, 251840, Note_off_c, 9, 41, 95
9, 251840, Note_on_c, 9, 41, 95
9, 252160, Note_off_c, 9, 41, 95
9, 252160, Note_on_c, 9, 41, 95
9, 252480, Note_off_c, 9, 41, 95
9, 252480, Note_on_c, 9, 44, 95
9, 252480, Note_on_c, 9, 41, 95
9, 252800, Note_off_c, 9, 44, 95
9, 252800, Note_off_c, 9, 41, 95
9, 252800, Note_on_c, 9, 41, 95
9, 253120, Note_off_c, 9, 41, 95
9, 253120, Note_on_c, 9, 38, 95
9, 253240, Note_off_c, 9, 38, 95
9, 253240, Note_on_c, 9, 38, 95
9, 253360, Note_off_c, 9, 38, 95
9, 253360, Note_on_c, 9, 38, 95
9, 253439, Note_off_c, 9, 38, 95
9, 253440, Note_on_c, 9, 49, 95
9, 253440, Note_on_c, 9, 44, 95
9, 253440, Note_on_c, 9, 36, 95
9, 254400, Note_off_c, 9, 49, 95
9, 254400, Note_off_c, 9, 44, 95
9, 254400, Note_off_c, 9, 36, 95
9, 254400, Note_on_c, 9, 44, 95
9, 255360, Note_off_c, 9, 44, 95
9, 255360, Note_on_c, 9, 44, 95
9, 256320, Note_off_c, 9, 44, 95
9, 256320, Note_on_c, 9, 44, 95
9, 256640, Note_off_c, 9, 44, 95
9, 256960, Note_on_c, 9, 38, 95
9, 257080, Note_off_c, 9, 38, 95
9, 257080, Note_on_c, 9, 38, 95
9, 257200, Note_off_c, 9, 38, 95
9, 257200, Note_on_c, 9, 38, 95
9, 257279, Note_off_c, 9, 38, 95
9, 257280, Note_on_c, 9, 49, 95
9, 257280, Note_on_c, 9, 44, 95
9, 257280, Note_on_c, 9, 36, 95
9, 258240, Note_off_c, 9, 49, 95
9, 258240, Note_off_c, 9, 44, 95
9, 258240, Note_off_c, 9, 36, 95
9, 258240, Note_on_c, 9, 44, 95
9, 259200, Note_off_c, 9, 44, 95
9, 259200, Note_on_c, 9, 44, 95
9, 259200, Note_on_c, 9, 38, 95
9, 259520, Note_off_c, 9, 44, 95
9, 259520, Note_off_c, 9, 38, 95
9, 259840, Note_on_c, 9, 38, 95
9, 260160, Note_off_c, 9, 38, 95
9, 260160, Note_on_c, 9, 44, 95
9, 260480, Note_off_c, 9, 44, 95
9, 260480, Note_on_c, 9, 38, 95
9, 260800, Note_off_c, 9, 38, 95
9, 261120, Note_on_c, 9, 49, 95
9, 261120, Note_on_c, 9, 44, 95
9, 261120, Note_on_c, 9, 36, 95
9, 262080, Note_off_c, 9, 49, 95
9, 262080, Note_off_c, 9, 44, 95
9, 262080, Note_off_c, 9, 36, 95
9, 262080, Note_on_c, 9, 44, 95
9, 263040, Note_off_c, 9, 44, 95
9, 263040, Note_on_c, 9, 44, 95
9, 263040, Note_on_c, 9, 38, 95
9, 263360, Note_off_c, 9, 44, 95
9, 263360, Note_off_c, 9, 38, 95
9, 263360, Note_on_c, 9, 38, 95
9, 263680, Note_off_c, 9, 38, 95
9, 263680, Note_on_c, 9, 38, 95
9, 264000, Note_off_c, 9, 38, 95
9, 264000, Note_on_c, 9, 44, 95
9, 264000, Note_on_c, 9, 38, 95
9, 264320, Note_off_c, 9, 44, 95
9, 264320, Note_off_c, 9, 38, 95
9, 264320, Note_on_c, 9, 38, 95
9, 264640, Note_off_c, 9, 38, 95
9, 264640, Note_on_c, 9, 38, 95
9, 264960, Note_off_c, 9, 38, 95
9, 264960, Note_on_c, 9, 44, 95
9, 264960, Note_on_c, 9, 38, 95
9, 265280, Note_off_c, 9, 44, 95
9, 265280, Note_off_c, 9, 38, 95
9, 265280, Note_on_c, 9, 38, 95
9, 265600, Note_off_c, 9, 38, 95
9, 265600, Note_on_c, 9, 38, 95
9, 265920, Note_off_c, 9, 38, 95
9, 265920, Note_on_c, 9, 44, 95
9, 265920, Note_on_c, 9, 38, 95
9, 266240, Note_off_c, 9, 44, 95
9, 266240, Note_off_c, 9, 38, 95
9, 266240, Note_on_c, 9, 38, 95
9, 266560, Note_off_c, 9, 38, 95
9, 266560, Note_on_c, 9, 38, 95
9, 266880, Note_off_c, 9, 38, 95
9, 266880, Note_on_c, 9, 44, 95
9, 266880, Note_on_c, 9, 38, 95
9, 267200, Note_off_c, 9, 44, 95
9, 267200, Note_off_c, 9, 38, 95
9, 267200, Note_on_c, 9, 38, 95
9, 267520, Note_off_c, 9, 38, 95
9, 267520, Note_on_c, 9, 38, 95
9, 267840, Note_off_c, 9, 38, 95
9, 267840, Note_on_c, 9, 44, 95
9, 267840, Note_on_c, 9, 38, 95
9, 268160, Note_off_c, 9, 44, 95
9, 268160, Note_off_c, 9, 38, 95
9, 268480, Note_on_c, 9, 38, 95
9, 268800, Note_off_c, 9, 38, 95
9, 268800, Note_on_c, 9, 49, 95
9, 268800, Note_on_c, 9, 36, 95
9, 269120, Note_off_c, 9, 49, 95
9, 269120, Note_off_c, 9, 36, 95
9, 269440, Note_on_c, 9, 42, 79
9, 269760, Note_off_c, 9, 42, 79
9, 269760, Note_on_c, 9, 42, 95
9, 269760, Note_on_c, 9, 38, 95
9, 269760, Note_on_c, 9, 36, 95
9, 270080, Note_off_c, 9, 42, 95
9, 270080, Note_off_c, 9, 38, 95
9, 270080, Note_off_c, 9, 36, 95
9, 270400, Note_on_c, 9, 42, 79
9, 270720, Note_off_c, 9, 42, 79
9, 270720, Note_on_c, 9, 42, 79
9, 270720, Note_on_c, 9, 36, 95
9, 271040, Note_off_c, 9, 42, 79
9, 271040, Note_off_c, 9, 36, 95
9, 271360, Note_on_c, 9, 42, 79
9, 271680, Note_off_c, 9, 42, 79
9, 271680, Note_on_c, 9, 42, 95
9, 271680, Note_on_c, 9, 38, 95
9, 271680, Note_on_c, 9, 36, 95
9, 272000, Note_off_c, 9, 42, 95
9, 272000, Note_off_c, 9, 38, 95
9, 272000, Note_off_c, 9, 36, 95
9, 272320, Note_on_c, 9, 42, 79
9, 272640, Note_off_c, 9, 42, 79
9, 272640, Note_on_c, 9, 42, 95
9, 272640, Note_on_c, 9, 36, 95
9, 272960, Note_off_c, 9, 42, 95
9, 272960, Note_off_c, 9, 36, 95
9, 273280, Note_on_c, 9, 42, 79
9, 273600, Note_off_c, 9, 42, 79
9, 273600, Note_on_c, 9, 42, 95
9, 273600, Note_on_c, 9, 38, 95
9, 273600, Note_on_c, 9, 36, 95
9, 273920, Note_off_c, 9, 42, 95
9, 273920, Note_off_c, 9, 38, 95
9, 273920, Note_off_c, 9, 36, 95
9, 274240, Note_on_c, 9, 42, 79
9, 274560, Note_off_c, 9, 42, 79
9, 274560, Note_on_c, 9, 42, 79
9, 274560, Note_on_c, 9, 36, 95
9, 274880, Note_off_c, 9, 42, 79
9, 274880, Note_off_c, 9, 36, 95
9, 275200, Note_on_c, 9, 42, 79
9, 275520, Note_off_c, 9, 42, 79
9, 275520, Note_on_c, 9, 42, 95
9, 275520, Note_on_c, 9, 38, 95
9, 275520, Note_on_c, 9, 36, 95
9, 275840, Note_off_c, 9, 42, 95
9, 275840, Note_off_c, 9, 38, 95
9, 275840, Note_off_c, 9, 36, 95
9, 276160, Note_on_c, 9, 42, 79
9, 276480, Note_off_c, 9, 42, 79
9, 276480, Note_on_c, 9, 42, 95
9, 276480, Note_on_c, 9, 36, 95
9, 276800, Note_off_c, 9, 42, 95
9, 276800, Note_off_c, 9, 36, 95
9, 277120, Note_on_c, 9, 42, 79
9, 277440, Note_off_c, 9, 42, 79
9, 277440, Note_on_c, 9, 42, 95
9, 277440, Note_on_c, 9, 38, 95
9, 277440, Note_on_c, 9, 36, 95
9, 277760, Note_off_c, 9, 42, 95
9, 277760, Note_off_c, 9, 38, 95
9, 277760, Note_off_c, 9, 36, 95
9, 278080, Note_on_c, 9, 42, 79
9, 278400, Note_off_c, 9, 42, 79
9, 278400, Note_on_c, 9, 42, 79
9, 278400, Note_on_c, 9, 36, 95
9, 278720, Note_off_c, 9, 42, 79
9, 278720, Note_off_c, 9, 36, 95
9, 279040, Note_on_c, 9, 42, 79
9, 279360, Note_off_c, 9, 42, 79
9, 279360, Note_on_c, 9, 42, 95
9, 279360, Note_on_c, 9, 38, 95
9, 279360, Note_on_c, 9, 36, 95
9, 279680, Note_off_c, 9, 42, 95
9, 279680, Note_off_c, 9, 38, 95
9, 279680, Note_off_c, 9, 36, 95
9, 280000, Note_on_c, 9, 42, 79
9, 280320, Note_off_c, 9, 42, 79
9, 280320, Note_on_c, 9, 42, 95
9, 280320, Note_on_c, 9, 36, 95
9, 280640, Note_off_c, 9, 42, 95
9, 280640, Note_off_c, 9, 36, 95
9, 280960, Note_on_c, 9, 42, 79
9, 281280, Note_off_c, 9, 42, 79
9, 281280, Note_on_c, 9, 42, 95
9, 281280, Note_on_c, 9, 38, 95
9, 281280, Note_on_c, 9, 36, 95
9, 281600, Note_off_c, 9, 42, 95
9, 281600, Note_off_c, 9, 38, 95
9, 281600, Note_off_c, 9, 36, 95
9, 281920, Note_on_c, 9, 42, 79
9, 282240, Note_off_c, 9, 42, 79
9, 282240, Note_on_c, 9, 42, 79
9, 282240, Note_on_c, 9, 36, 95
9, 282560, Note_off_c, 9, 42, 79
9, 282560, Note_off_c, 9, 36, 95
9, 282880, Note_on_c, 9, 42, 79
9, 283200, Note_off_c, 9, 42, 79
9, 283200, Note_on_c, 9, 42, 95
9, 283200, Note_on_c, 9, 38, 95
9, 283200, Note_on_c, 9, 36, 95
9, 283520, Note_off_c, 9, 42, 95
9, 283520, Note_off_c, 9, 38, 95
9, 283520, Note_off_c, 9, 36, 95
9, 283840, Note_on_c, 9, 42, 79
9, 284160, Note_off_c, 9, 42, 79
9, 284160, Note_on_c, 9, 42, 95
9, 284160, Note_on_c, 9, 36, 95
9, 284480, Note_off_c, 9, 42, 95
9, 284480, Note_off_c, 9, 36, 95
9, 284800, Note_on_c, 9, 42, 79
9, 285120, Note_off_c, 9, 42, 79
9, 285120, Note_on_c, 9, 42, 95
9, 285120, Note_on_c, 9, 38, 95
9, 285120, Note_on_c, 9, 36, 95
9, 285440, Note_off_c, 9, 42, 95
9, 285440, Note_off_c, 9, 38, 95
9, 285440, Note_off_c, 9, 36, 95
9, 285760, Note_on_c, 9, 42, 79
9, 286080, Note_off_c, 9, 42, 79
9, 286080, Note_on_c, 9, 42, 79
9, 286080, Note_on_c, 9, 36, 95
9, 286400, Note_off_c, 9, 42, 79
9, 286400, Note_off_c, 9, 36, 95
9, 286720, Note_on_c, 9, 42, 79
9, 287040, Note_off_c, 9, 42, 79
9, 287040, Note_on_c, 9, 42, 95
9, 287040, Note_on_c, 9, 38, 95
9, 287040, Note_on_c, 9, 36, 95
9, 287360, Note_off_c, 9, 42, 95
9, 287360, Note_off_c, 9, 38, 95
9, 287360, Note_off_c, 9, 36, 95
9, 287680, Note_on_c, 9, 42, 79
9, 288000, Note_off_c, 9, 42, 79
9, 288000, Note_on_c, 9, 42, 95
9, 288000, Note_on_c, 9, 36, 95
9, 288320, Note_off_c, 9, 42, 95
9, 288320, Note_off_c, 9, 36, 95
9, 288640, Note_on_c, 9, 42, 79
9, 288960, Note_off_c, 9, 42, 79
9, 288960, Note_on_c, 9, 42, 95
9, 288960, Note_on_c, 9, 38, 95
9, 288960, Note_on_c, 9, 36, 95
9, 289280, Note_off_c, 9, 42, 95
9, 289280, Note_off_c, 9, 38, 95
9, 289280, Note_off_c, 9, 36, 95
9, 289600, Note_on_c, 9, 42, 79
9, 289920, Note_off_c, 9, 42, 79
9, 289920, Note_on_c, 9, 42, 79
9, 289920, Note_on_c, 9, 36, 95
9, 290240, Note_off_c, 9, 42, 79
9, 290240, Note_off_c, 9, 36, 95
9, 290560, Note_on_c, 9, 42, 79
9, 290880, Note_off_c, 9, 42, 79
9, 290880, Note_on_c, 9, 42, 95
9, 290880, Note_on_c, 9, 38, 95
9, 290880, Note_on_c, 9, 36, 95
9, 291200, Note_off_c, 9, 42, 95
9, 291200, Note_off_c, 9, 38, 95
9, 291200, Note_off_c, 9, 36, 95
9, 291520, Note_on_c, 9, 42, 79
9, 291840, Note_off_c, 9, 42, 79
9, 291840, Note_on_c, 9, 42, 95
9, 291840, Note_on_c, 9, 36, 95
9, 292160, Note_off_c, 9, 42, 95
9, 292160, Note_off_c, 9, 36, 95
9, 292480, Note_on_c, 9, 42, 79
9, 292800, Note_off_c, 9, 42, 79
9, 292800, Note_on_c, 9, 42, 95
9, 292800, Note_on_c, 9, 38, 95
9, 292800, Note_on_c, 9, 36, 95
9, 293120, Note_off_c, 9, 42, 95
9, 293120, Note_off_c, 9, 38, 95
9, 293120, Note_off_c, 9, 36, 95
9, 293440, Note_on_c, 9, 42, 79
9, 293760, Note_off_c, 9, 42, 79
9, 293760, Note_on_c, 9, 42, 79
9, 293760, Note_on_c, 9, 36, 95
9, 294080, Note_off_c, 9, 42, 79
9, 294080, Note_off_c, 9, 36, 95
9, 294400, Note_on_c, 9, 42, 79
9, 294720, Note_off_c, 9, 42, 79
9, 294720, Note_on_c, 9, 42, 95
9, 294720, Note_on_c, 9, 38, 95
9, 294720, Note_on_c, 9, 36, 95
9, 295040, Note_off_c, 9, 42, 95
9, 295040, Note_off_c, 9, 38, 95
9, 295040, Note_off_c, 9, 36, 95
9, 295360, Note_on_c, 9, 42, 79
9, 295680, Note_off_c, 9, 42, 79
9, 295680, Note_on_c, 9, 42, 95
9, 295680, Note_on_c, 9, 36, 95
9, 296000, Note_off_c, 9, 42, 95
9, 296000, Note_off_c, 9, 36, 95
9, 296320, Note_on_c, 9, 42, 79
9, 296640, Note_off_c, 9, 42, 79
9, 296640, Note_on_c, 9, 42, 95
9, 296640, Note_on_c, 9, 38, 95
9, 296640, Note_on_c, 9, 36, 95
9, 296960, Note_off_c, 9, 42, 95
9, 296960, Note_off_c, 9, 38, 95
9, 296960, Note_off_c, 9, 36, 95
9, 297280, Note_on_c, 9, 42, 79
9, 297600, Note_off_c, 9, 42, 79
9, 297600, Note_on_c, 9, 42, 79
9, 297600, Note_on_c, 9, 36, 95
9, 297920, Note_off_c, 9, 42, 79
9, 297920, Note_off_c, 9, 36, 95
9, 298240, Note_on_c, 9, 42, 79
9, 298560, Note_off_c, 9, 42, 79
9, 298560, Note_on_c, 9, 42, 95
9, 298560, Note_on_c, 9, 38, 95
9, 298560, Note_on_c, 9, 36, 95
9, 298880, Note_off_c, 9, 42, 95
9, 298880, Note_off_c, 9, 38, 95
9, 298880, Note_off_c, 9, 36, 95
9, 299200, Note_on_c, 9, 38, 95
9, 299520, Note_off_c, 9, 38, 95
9, 299520, Note_on_c, 9, 49, 95
9, 299520, Note_on_c, 9, 36, 95
9, 299840, Note_off_c, 9, 49, 95
9, 299840, Note_off_c, 9, 36, 95
9, 300160, Note_on_c, 9, 42, 79
9, 300480, Note_off_c, 9, 42, 79
9, 300480, Note_on_c, 9, 42, 95
9, 300480, Note_on_c, 9, 38, 95
9, 300480, Note_on_c, 9, 36, 95
9, 300800, Note_off_c, 9, 42, 95
9, 300800, Note_off_c, 9, 38, 95
9, 300800, Note_off_c, 9, 36, 95
9, 301120, Note_on_c, 9, 42, 79
9, 301440, Note_off_c, 9, 42, 79
9, 301440, Note_on_c, 9, 42, 79
9, 301440, Note_on_c, 9, 36, 95
9, 301760, Note_off_c, 9, 42, 79
9, 301760, Note_off_c, 9, 36, 95
9, 302080, Note_on_c, 9, 42, 79
9, 302400, Note_off_c, 9, 42, 79
9, 302400, Note_on_c, 9, 42, 95
9, 302400, Note_on_c, 9, 38, 95
9, 302400, Note_on_c, 9, 36, 95
9, 302720, Note_off_c, 9, 42, 95
9, 302720, Note_off_c, 9, 38, 95
9, 302720, Note_off_c, 9, 36, 95
9, 303040, Note_on_c, 9, 42, 79
9, 303360, Note_off_c, 9, 42, 79
9, 303360, Note_on_c, 9, 42, 95
9, 303360, Note_on_c, 9, 36, 95
9, 303680, Note_off_c, 9, 42, 95
9, 303680, Note_off_c, 9, 36, 95
9, 304000, Note_on_c, 9, 42, 79
9, 304320, Note_off_c, 9, 42, 79
9, 304320, Note_on_c, 9, 42, 95
9, 304320, Note_on_c, 9, 38, 95
9, 304320, Note_on_c, 9, 36, 95
9, 304640, Note_off_c, 9, 42, 95
9, 304640, Note_off_c, 9, 38, 95
9, 304640, Note_off_c, 9, 36, 95
9, 304960, Note_on_c, 9, 42, 79
9, 305280, Note_off_c, 9, 42, 79
9, 305280, Note_on_c, 9, 42, 79
9, 305280, Note_on_c, 9, 36, 95
9, 305600, Note_off_c, 9, 42, 79
9, 305600, Note_off_c, 9, 36, 95
9, 305920, Note_on_c, 9, 42, 79
9, 306240, Note_off_c, 9, 42, 79
9, 306240, Note_on_c, 9, 42, 95
9, 306240, Note_on_c, 9, 38, 95
9, 306240, Note_on_c, 9, 36, 95
9, 306560, Note_off_c, 9, 42, 95
9, 306560, Note_off_c, 9, 38, 95
9, 306560, Note_off_c, 9, 36, 95
9, 306880, Note_on_c, 9, 42, 79
9, 307200, Note_off_c, 9, 42, 79
9, 307200, Note_on_c, 9, 42, 95
9, 307200, Note_on_c, 9, 36, 95
9, 307520, Note_off_c, 9, 42, 95
9, 307520, Note_off_c, 9, 36, 95
9, 307840, Note_on_c, 9, 42, 79
9, 308160, Note_off_c, 9, 42, 79
9, 308160, Note_on_c, 9, 42, 95
9, 308160, Note_on_c, 9, 38, 95
9, 308160, Note_on_c, 9, 36, 95
9, 308480, Note_off_c, 9, 42, 95
9, 308480, Note_off_c, 9, 38, 95
9, 308480, Note_off_c, 9, 36, 95
9, 308800, Note_on_c, 9, 42, 79
9, 309120, Note_off_c, 9, 42, 79
9, 309120, Note_on_c, 9, 42, 79
9, 309120, Note_on_c, 9, 36, 95
9, 309440, Note_off_c, 9, 42, 79
9, 309440, Note_off_c, 9, 36, 95
9, 309760, Note_on_c, 9, 42, 79
9, 310080, Note_off_c, 9, 42, 79
9, 310080, Note_on_c, 9, 42, 95
9, 310080, Note_on_c, 9, 38, 95
9, 310080, Note_on_c, 9, 36, 95
9, 310400, Note_off_c, 9, 42, 95
9, 310400, Note_off_c, 9, 38, 95
9, 310400, Note_off_c, 9, 36, 95
9, 310720, Note_on_c, 9, 42, 79
9, 311040, Note_off_c, 9, 42, 79
9, 311040, Note_on_c, 9, 42, 95
9, 311040, Note_on_c, 9, 36, 95
9, 311360, Note_off_c, 9, 42, 95
9, 311360, Note_off_c, 9, 36, 95
9, 311680, Note_on_c, 9, 42, 79
9, 312000, Note_off_c, 9, 42, 79
9, 312000, Note_on_c, 9, 42, 95
9, 312000, Note_on_c, 9, 38, 95
9, 312000, Note_on_c, 9, 36, 95
9, 312320, Note_off_c, 9, 42, 95
9, 312320, Note_off_c, 9, 38, 95
9, 312320, Note_off_c, 9, 36, 95
9, 312640, Note_on_c, 9, 42, 79
9, 312960, Note_off_c, 9, 42, 79
9, 312960, Note_on_c, 9, 42, 79
9, 312960, Note_on_c, 9, 36, 95
9, 313280, Note_off_c, 9, 42, 79
9, 313280, Note_off_c, 9, 36, 95
9, 313600, Note_on_c, 9, 42, 79
9, 313920, Note_off_c, 9, 42, 79
9, 313920, Note_on_c, 9, 42, 95
9, 313920, Note_on_c, 9, 38, 95
9, 313920, Note_on_c, 9, 36, 95
9, 314560, Note_off_c, 9, 42, 95
9, 314560, Note_off_c, 9, 38, 95
9, 314560, Note_off_c, 9, 36, 95
9, 314560, Note_on_c, 9, 38, 95
9, 314880, Note_off_c, 9, 38, 95
9, 314880, Note_on_c, 9, 42, 95
9, 314880, Note_on_c, 9, 36, 95
9, 315200, Note_off_c, 9, 42, 95
9, 315200, Note_off_c, 9, 36, 95
9, 315520, Note_on_c, 9, 42, 95
9, 315840, Note_off_c, 9, 42, 95
9, 315840, Note_on_c, 9, 42, 95
9, 315840, Note_on_c, 9, 38, 95
9, 315840, Note_on_c, 9, 36, 95
9, 316160, Note_off_c, 9, 42, 95
9, 316160, Note_off_c, 9, 38, 95
9, 316160, Note_off_c, 9, 36, 95
9, 316480, Note_on_c, 9, 49, 95
9, 316480, Note_on_c, 9, 38, 95
9, 316800, Note_off_c, 9, 49, 95
9, 316800, Note_off_c, 9, 38, 95
9, 316800, Note_on_c, 9, 42, 95
9, 316800, Note_on_c, 9, 36, 95
9, 317120, Note_off_c, 9, 42, 95
9, 317120, Note_off_c, 9, 36, 95
9, 317440, Note_on_c, 9, 42, 95
9, 317760, Note_off_c, 9, 42, 95
9, 317760, Note_on_c, 9, 42, 95
9, 317760, Note_on_c, 9, 36, 95
9, 318080, Note_off_c, 9, 42, 95
9, 318080, Note_off_c, 9, 36, 95
9, 318400, Note_on_c, 9, 42, 95
9, 318720, Note_off_c, 9, 42, 95
9, 318720, Note_on_c, 9, 42, 95
9, 318720, Note_on_c, 9, 36, 95
9, 319040, Note_off_c, 9, 42, 95
9, 319040, Note_off_c, 9, 36, 95
9, 319360, Note_on_c, 9, 42, 95
9, 319680, Note_off_c, 9, 42, 95
9, 319680, Note_on_c, 9, 42, 95
9, 319680, Note_on_c, 9, 38, 95
9, 319680, Note_on_c, 9, 36, 95
9, 320000, Note_off_c, 9, 42, 95
9, 320000, Note_off_c, 9, 38, 95
9, 320000, Note_off_c, 9, 36, 95
9, 320320, Note_on_c, 9, 46, 95
9, 320640, Note_off_c, 9, 46, 95
9, 320640, Note_on_c, 9, 42, 95
9, 320640, Note_on_c, 9, 36, 95
9, 320960, Note_off_c, 9, 42, 95
9, 320960, Note_off_c, 9, 36, 95
9, 321280, Note_on_c, 9, 42, 95
9, 321600, Note_off_c, 9, 42, 95
9, 321600, Note_on_c, 9, 42, 95
9, 321600, Note_on_c, 9, 36, 95
9, 321920, Note_off_c, 9, 42, 95
9, 321920, Note_off_c, 9, 36, 95
9, 322240, Note_on_c, 9, 42, 95
9, 322560, Note_off_c, 9, 42, 95
9, 322560, Note_on_c, 9, 42, 95
9, 322560, Note_on_c, 9, 36, 95
9, 322880, Note_off_c, 9, 42, 95
9, 322880, Note_off_c, 9, 36, 95
9, 323200, Note_on_c, 9, 42, 95
9, 323520, Note_off_c, 9, 42, 95
9, 323520, Note_on_c, 9, 42, 95
9, 323520, Note_on_c, 9, 38, 95
9, 323520, Note_on_c, 9, 36, 95
9, 323840, Note_off_c, 9, 42, 95
9, 323840, Note_off_c, 9, 38, 95
9, 323840, Note_off_c, 9, 36, 95
9, 324160, Note_on_c, 9, 49, 95
9, 324160, Note_on_c, 9, 38, 95
9, 324480, Note_off_c, 9, 49, 95
9, 324480, Note_off_c, 9, 38, 95
9, 324480, Note_on_c, 9, 42, 95
9, 324480, Note_on_c, 9, 36, 95
9, 324800, Note_off_c, 9, 42, 95
9, 324800, Note_off_c, 9, 36, 95
9, 325120, Note_on_c, 9, 42, 95
9, 325440, Note_off_c, 9, 42, 95
9, 325440, Note_on_c, 9, 42, 95
9, 325440, Note_on_c, 9, 36, 95
9, 325760, Note_off_c, 9, 42, 95
9, 325760, Note_off_c, 9, 36, 95
9, 326080, Note_on_c, 9, 42, 95
9, 326400, Note_off_c, 9, 42, 95
9, 326400, Note_on_c, 9, 46, 95
9, 326400, Note_on_c, 9, 36, 95
9, 326720, Note_off_c, 9, 46, 95
9, 326720, Note_off_c, 9, 36, 95
9, 327040, Note_on_c, 9, 46, 95
9, 327360, Note_off_c, 9, 46, 95
9, 327360, Note_on_c, 9, 46, 95
9, 327360, Note_on_c, 9, 38, 95
9, 327360, Note_on_c, 9, 36, 95
9, 327680, Note_off_c, 9, 46, 95
9, 327680, Note_off_c, 9, 38, 95
9, 327680, Note_off_c, 9, 36, 95
9, 328000, Note_on_c, 9, 46, 95
9, 328320, Note_off_c, 9, 46, 95
9, 328320, Note_on_c, 9, 46, 95
9, 328320, Note_on_c, 9, 36, 95
9, 328640, Note_off_c, 9, 46, 95
9, 328640, Note_off_c, 9, 36, 95
9, 328960, Note_on_c, 9, 46, 95
9, 329280, Note_off_c, 9, 46, 95
9, 329280, Note_on_c, 9, 46, 95
9, 329280, Note_on_c, 9, 38, 95
9, 329280, Note_on_c, 9, 36, 95
9, 329600, Note_off_c, 9, 46, 95
9, 329600, Note_off_c, 9, 38, 95
9, 329600, Note_off_c, 9, 36, 95
9, 329920, Note_on_c, 9, 46, 95
9, 330240, Note_off_c, 9, 46, 95
9, 330240, Note_on_c, 9, 46, 95
9, 330240, Note_on_c, 9, 36, 95
9, 330560, Note_off_c, 9, 46, 95
9, 330560, Note_off_c, 9, 36, 95
9, 330880, Note_on_c, 9, 46, 95
9, 331200, Note_off_c, 9, 46, 95
9, 331200, Note_on_c, 9, 46, 95
9, 331200, Note_on_c, 9, 38, 95
9, 331200, Note_on_c, 9, 36, 95
9, 331520, Note_off_c, 9, 46, 95
9, 331520, Note_off_c, 9, 38, 95
9, 331520, Note_off_c, 9, 36, 95
9, 331840, Note_on_c, 9, 46, 95
9, 332160, Note_off_c, 9, 46, 95
9, 332160, Note_on_c, 9, 46, 95
9, 332160, Note_on_c, 9, 36, 95
9, 332480, Note_off_c, 9, 46, 95
9, 332480, Note_off_c, 9, 36, 95
9, 332800, Note_on_c, 9, 46, 95
9, 333120, Note_off_c, 9, 46, 95
9, 333120, Note_on_c, 9, 46, 95
9, 333120, Note_on_c, 9, 38, 95
9, 333120, Note_on_c, 9, 36, 95
9, 333440, Note_off_c, 9, 46, 95
9, 333440, Note_off_c, 9, 38, 95
9, 333440, Note_off_c, 9, 36, 95
9, 333760, Note_on_c, 9, 46, 95
9, 334080, Note_off_c, 9, 46, 95
9, 334080, Note_on_c, 9, 49, 95
9, 334080, Note_on_c, 9, 36, 95
9, 335040, Note_off_c, 9, 49, 95
9, 335040, Note_off_c, 9, 36, 95
9, 335040, Note_on_c, 9, 42, 95
9, 335040, Note_on_c, 9, 38, 95
9, 335040, Note_on_c, 9, 36, 95
9, 336000, Note_off_c, 9, 42, 95
9, 336000, Note_off_c, 9, 38, 95
9, 336000, Note_off_c, 9, 36, 95
9, 336000, Note_on_c, 9, 42, 95
9, 336000, Note_on_c, 9, 36, 95
9, 336960, Note_off_c, 9, 42, 95
9, 336960, Note_off_c, 9, 36, 95
9, 336960, Note_on_c, 9, 42, 95
9, 336960, Note_on_c, 9, 38, 95
9, 336960, Note_on_c, 9, 36, 95
9, 337920, Note_off_c, 9, 42, 95
9, 337920, Note_off_c, 9, 38, 95
9, 337920, Note_off_c, 9, 36, 95
9, 337920, Note_on_c, 9, 42, 95
9, 337920, Note_on_c, 9, 36, 95
9, 338880, Note_off_c, 9, 42, 95
9, 338880, Note_off_c, 9, 36, 95
9, 338880, Note_on_c, 9, 42, 95
9, 338880, Note_on_c, 9, 38, 95
9, 338880, Note_on_c, 9, 36, 95
9, 339840, Note_off_c, 9, 42, 95
9, 339840, Note_off_c, 9, 38, 95
9, 339840, Note_off_c, 9, 36, 95
9, 339840, Note_on_c, 9, 42, 95
9, 339840, Note_on_c, 9, 36, 95
9, 340800, Note_off_c, 9, 42, 95
9, 340800, Note_off_c, 9, 36, 95
9, 340800, Note_on_c, 9, 42, 95
9, 340800, Note_on_c, 9, 38, 95
9, 340800, Note_on_c, 9, 36, 95
9, 341760, Note_off_c, 9, 42, 95
9, 341760, Note_off_c, 9, 38, 95
9, 341760, Note_off_c, 9, 36, 95
9, 341760, Note_on_c, 9, 42, 95
9, 341760, Note_on_c, 9, 36, 95
9, 342720, Note_off_c, 9, 42, 95
9, 342720, Note_off_c, 9, 36, 95
9, 342720, Note_on_c, 9, 42, 95
9, 342720, Note_on_c, 9, 38, 95
9, 342720, Note_on_c, 9, 36, 95
9, 343680, Note_off_c, 9, 42, 95
9, 343680, Note_off_c, 9, 38, 95
9, 343680, Note_off_c, 9, 36, 95
9, 343680, Note_on_c, 9, 42, 95
9, 343680, Note_on_c, 9, 36, 95
9, 344640, Note_off_c, 9, 42, 95
9, 344640, Note_off_c, 9, 36, 95
9, 344640, Note_on_c, 9, 42, 95
9, 344640, Note_on_c, 9, 38, 95
9, 344640, Note_on_c, 9, 36, 95
9, 345600, Note_off_c, 9, 42, 95
9, 345600, Note_off_c, 9, 38, 95
9, 345600, Note_off_c, 9, 36, 95
9, 345600, Note_on_c, 9, 42, 95
9, 345600, Note_on_c, 9, 36, 95
9, 346560, Note_off_c, 9, 42, 95
9, 346560, Note_off_c, 9, 36, 95
9, 346560, Note_on_c, 9, 42, 95
9, 346560, Note_on_c, 9, 38, 95
9, 346560, Note_on_c, 9, 36, 95
9, 347520, Note_off_c, 9, 42, 95
9, 347520, Note_off_c, 9, 38, 95
9, 347520, Note_off_c, 9, 36, 95
9, 347520, Note_on_c, 9, 42, 95
9, 347520, Note_on_c, 9, 36, 95
9, 348480, Note_off_c, 9, 42, 95
9, 348480, Note_off_c, 9, 36, 95
9, 348480, Note_on_c, 9, 42, 95
9, 348480, Note_on_c, 9, 38, 95
9, 348480, Note_on_c, 9, 36, 95
9, 348800, Note_off_c, 9, 42, 95
9, 348800, Note_off_c, 9, 38, 95
9, 348800, Note_off_c, 9, 36, 95
9, 349120, Note_on_c, 9, 43, 95
9, 349240, Note_off_c, 9, 43, 95
9, 349240, Note_on_c, 9, 43, 95
9, 349360, Note_off_c, 9, 43, 95
9, 349360, Note_on_c, 9, 43, 95
9, 349439, Note_off_c, 9, 43, 95
9, 349440, Note_on_c, 9, 49, 95
9, 349440, Note_on_c, 9, 36, 95
9, 350400, Note_off_c, 9, 49, 95
9, 350400, Note_off_c, 9, 36, 95
9, 350400, Note_on_c, 9, 42, 95
9, 350400, Note_on_c, 9, 38, 95
9, 350400, Note_on_c, 9, 36, 95
9, 351360, Note_off_c, 9, 42, 95
9, 351360, Note_off_c, 9, 38, 95
9, 351360, Note_off_c, 9, 36, 95
9, 351360, Note_on_c, 9, 42, 95
9, 351360, Note_on_c, 9, 36, 95
9, 352320, Note_off_c, 9, 42, 95
9, 352320, Note_off_c, 9, 36, 95
9, 352320, Note_on_c, 9, 42, 95
9, 352320, Note_on_c, 9, 38, 95
9, 352320, Note_on_c, 9, 36, 95
9, 353280, Note_off_c, 9, 42, 95
9, 353280, Note_off_c, 9, 38, 95
9, 353280, Note_off_c, 9, 36, 95
9, 353280, Note_on_c, 9, 42, 95
9, 353280, Note_on_c, 9, 36, 95
9, 354240, Note_off_c, 9, 42, 95
9, 354240, Note_off_c, 9, 36, 95
9, 354240, Note_on_c, 9, 42, 95
9, 354240, Note_on_c, 9, 38, 95
9, 354240, Note_on_c, 9, 36, 95
9, 355200, Note_off_c, 9, 42, 95
9, 355200, Note_off_c, 9, 38, 95
9, 355200, Note_off_c, 9, 36, 95
9, 355200, Note_on_c, 9, 42, 95
9, 355200, Note_on_c, 9, 36, 95
9, 356160, Note_off_c, 9, 42, 95
9, 356160, Note_off_c, 9, 36, 95
9, 356160, Note_on_c, 9, 42, 95
9, 356160, Note_on_c, 9, 38, 95
9, 356160, Note_on_c, 9, 36, 95
9, 356480, Note_off_c, 9, 42, 95
9, 356480, Note_off_c, 9, 38, 95
9, 356480, Note_off_c, 9, 36, 95
9, 356800, Note_on_c, 9, 43, 95
9, 356920, Note_off_c, 9, 43, 95
9, 356920, Note_on_c, 9, 43, 95
9, 357040, Note_off_c, 9, 43, 95
9, 357040, Note_on_c, 9, 43, 95
9, 357119, Note_off_c, 9, 43, 95
9, 357120, Note_on_c, 9, 49, 95
9, 357120, Note_on_c, 9, 36, 95
9, 358080, Note_off_c, 9, 49, 95
9, 358080, Note_off_c, 9, 36, 95
9, 358080, Note_on_c, 9, 42, 95
9, 358080, Note_on_c, 9, 38, 95
9, 358080, Note_on_c, 9, 36, 95
9, 359040, Note_off_c, 9, 42, 95
9, 359040, Note_off_c, 9, 38, 95
9, 359040, Note_off_c, 9, 36, 95
9, 359040, Note_on_c, 9, 42, 95
9, 359040, Note_on_c, 9, 36, 95
9, 360000, Note_off_c, 9, 42, 95
9, 360000, Note_off_c, 9, 36, 95
9, 360000, Note_on_c, 9, 42, 95
9, 360000, Note_on_c, 9, 38, 95
9, 360000, Note_on_c, 9, 36, 95
9, 360960, Note_off_c, 9, 42, 95
9, 360960, Note_off_c, 9, 38, 95
9, 360960, Note_off_c, 9, 36, 95
9, 360960, Note_on_c, 9, 42, 95
9, 360960, Note_on_c, 9, 36, 95
9, 361920, Note_off_c, 9, 42, 95
9, 361920, Note_off_c, 9, 36, 95
9, 361920, Note_on_c, 9, 42, 95
9, 361920, Note_on_c, 9, 38, 95
9, 361920, Note_on_c, 9, 36, 95
9, 362880, Note_off_c, 9, 42, 95
9, 362880, Note_off_c, 9, 38, 95
9, 362880, Note_off_c, 9, 36, 95
9, 362880, Note_on_c, 9, 42, 95
9, 362880, Note_on_c, 9, 36, 95
9, 363840, Note_off_c, 9, 42, 95
9, 363840, Note_off_c, 9, 36, 95
9, 363840, Note_on_c, 9, 42, 95
9, 363840, Note_on_c, 9, 38, 95
9, 363840, Note_on_c, 9, 36, 95
9, 364800, Note_off_c, 9, 42, 95
9, 364800, Note_off_c, 9, 38, 95
9, 364800, Note_off_c, 9, 36, 95
9, 364800, Note_on_c, 9, 49, 95
9, 364800, Note_on_c, 9, 36, 95
9, 365760, Note_off_c, 9, 49, 95
9, 365760, Note_off_c, 9, 36, 95
9, 365760, Note_on_c, 9, 42, 95
9, 365760, Note_on_c, 9, 38, 95
9, 365760, Note_on_c, 9, 36, 95
9, 366720, Note_off_c, 9, 42, 95
9, 366720, Note_off_c, 9, 38, 95
9, 366720, Note_off_c, 9, 36, 95
9, 366720, Note_on_c, 9, 42, 95
9, 366720, Note_on_c, 9, 36, 95
9, 367680, Note_off_c, 9, 42, 95
9, 367680, Note_off_c, 9, 36, 95
9, 367680, Note_on_c, 9, 42, 95
9, 367680, Note_on_c, 9, 38, 95
9, 367680, Note_on_c, 9, 36, 95
9, 368640, Note_off_c, 9, 42, 95
9, 368640, Note_off_c, 9, 38, 95
9, 368640, Note_off_c, 9, 36, 95
9, 368640, Note_on_c, 9, 42, 95
9, 368640, Note_on_c, 9, 36, 95
9, 369600, Note_off_c, 9, 42, 95
9, 369600, Note_off_c, 9, 36, 95
9, 369600, Note_on_c, 9, 42, 95
9, 369600, Note_on_c, 9, 38, 95
9, 369600, Note_on_c, 9, 36, 95
9, 370560, Note_off_c, 9, 42, 95
9, 370560, Note_off_c, 9, 38, 95
9, 370560, Note_off_c, 9, 36, 95
9, 370560, Note_on_c, 9, 42, 95
9, 370560, Note_on_c, 9, 36, 95
9, 371520, Note_off_c, 9, 42, 95
9, 371520, Note_off_c, 9, 36, 95
9, 371520, Note_on_c, 9, 42, 95
9, 371520, Note_on_c, 9, 38, 95
9, 371520, Note_on_c, 9, 36, 95
9, 372480, Note_off_c, 9, 42, 95
9, 372480, Note_off_c, 9, 38, 95
9, 372480, Note_off_c, 9, 36, 95
9, 372480, Note_on_c, 9, 49, 95
9, 372480, Note_on_c, 9, 36, 95
9, 373440, Note_off_c, 9, 49, 95
9, 373440, Note_off_c, 9, 36, 95
9, 373440, Note_on_c, 9, 42, 95
9, 373440, Note_on_c, 9, 38, 95
9, 373440, Note_on_c, 9, 36, 95
9, 374400, Note_off_c, 9, 42, 95
9, 374400, Note_off_c, 9, 38, 95
9, 374400, Note_off_c, 9, 36, 95
9, 374400, Note_on_c, 9, 42, 95
9, 374400, Note_on_c, 9, 36, 95
9, 375360, Note_off_c, 9, 42, 95
9, 375360, Note_off_c, 9, 36, 95
9, 375360, Note_on_c, 9, 42, 95
9, 375360, Note_on_c, 9, 38, 95
9, 375360, Note_on_c, 9, 36, 95
9, 376320, Note_off_c, 9, 42, 95
9, 376320, Note_off_c, 9, 38, 95
9, 376320, Note_off_c, 9, 36, 95
9, 376320, Note_on_c, 9, 42, 95
9, 376320, Note_on_c, 9, 36, 95
9, 377280, Note_off_c, 9, 42, 95
9, 377280, Note_off_c, 9, 36, 95
9, 377280, Note_on_c, 9, 42, 95
9, 377280, Note_on_c, 9, 38, 95
9, 377280, Note_on_c, 9, 36, 95
9, 378240, Note_off_c, 9, 42, 95
9, 378240, Note_off_c, 9, 38, 95
9, 378240, Note_off_c, 9, 36, 95
9, 378240, Note_on_c, 9, 42, 95
9, 378240, Note_on_c, 9, 36, 95
9, 379200, Note_off_c, 9, 42, 95
9, 379200, Note_off_c, 9, 36, 95
9, 379200, Note_on_c, 9, 49, 95
9, 379200, Note_on_c, 9, 38, 95
9, 379200, Note_on_c, 9, 36, 95
9, 380160, Note_off_c, 9, 49, 95
9, 380160, Note_off_c, 9, 38, 95
9, 380160, Note_off_c, 9, 36, 95
9, 380160, Note_on_c, 9, 49, 95
9, 380160, Note_on_c, 9, 36, 95
9, 380480, Note_off_c, 9, 49, 95
9, 380480, Note_off_c, 9, 36, 95
9, 380800, Note_on_c, 9, 42, 95
9, 381120, Note_off_c, 9, 42, 95
9, 381120, Note_on_c, 9, 42, 95
9, 381120, Note_on_c, 9, 36, 95
9, 381440, Note_off_c, 9, 42, 95
9, 381440, Note_off_c, 9, 36, 95
9, 381440, Note_on_c, 9, 42, 95
9, 381760, Note_off_c, 9, 42, 95
9, 381760, Note_on_c, 9, 42, 95
9, 382080, Note_off_c, 9, 42, 95
9, 382080, Note_on_c, 9, 42, 95
9, 382080, Note_on_c, 9, 36, 95
9, 382400, Note_off_c, 9, 42, 95
9, 382400, Note_off_c, 9, 36, 95
9, 382400, Note_on_c, 9, 42, 95
9, 382720, Note_off_c, 9, 42, 95
9, 382720, Note_on_c, 9, 42, 95
9, 383040, Note_off_c, 9, 42, 95
9, 383040, Note_on_c, 9, 42, 95
9, 383040, Note_on_c, 9, 36, 95
9, 383360, Note_off_c, 9, 42, 95
9, 383360, Note_off_c, 9, 36, 95
9, 383360, Note_on_c, 9, 42, 95
9, 383680, Note_off_c, 9, 42, 95
9, 383680, Note_on_c, 9, 42, 95
9, 384000, Note_off_c, 9, 42, 95
9, 384000, Note_on_c, 9, 42, 95
9, 384000, Note_on_c, 9, 36, 95
9, 384320, Note_off_c, 9, 42, 95
9, 384320, Note_off_c, 9, 36, 95
9, 384320, Note_on_c, 9, 42, 95
9, 384640, Note_off_c, 9, 42, 95
9, 384640, Note_on_c, 9, 42, 95
9, 384960, Note_off_c, 9, 42, 95
9, 384960, Note_on_c, 9, 42, 95
9, 384960, Note_on_c, 9, 38, 95
9, 384960, Note_on_c, 9, 36, 95
9, 385280, Note_off_c, 9, 42, 95
9, 385280, Note_off_c, 9, 38, 95
9, 385280, Note_off_c, 9, 36, 95
9, 385280, Note_on_c, 9, 42, 95
9, 385600, Note_off_c, 9, 42, 95
9, 385600, Note_on_c, 9, 42, 95
9, 385920, Note_off_c, 9, 42, 95
9, 385920, Note_on_c, 9, 42, 95
9, 385920, Note_on_c, 9, 36, 95
9, 386240, Note_off_c, 9, 42, 95
9, 386240, Note_off_c, 9, 36, 95
9, 386240, Note_on_c, 9, 42, 95
9, 386560, Note_off_c, 9, 42, 95
9, 386560, Note_on_c, 9, 42, 95
9, 386880, Note_off_c, 9, 42, 95
9, 386880, Note_on_c, 9, 42, 95
9, 386880, Note_on_c, 9, 38, 95
9, 386880, Note_on_c, 9, 36, 95
9, 387200, Note_off_c, 9, 42, 95
9, 387200, Note_off_c, 9, 38, 95
9, 387200, Note_off_c, 9, 36, 95
9, 387200, Note_on_c, 9, 42, 95
9, 387520, Note_off_c, 9, 42, 95
9, 387520, Note_on_c, 9, 42, 95
9, 387840, Note_off_c, 9, 42, 95
9, 387840, Note_on_c, 9, 42, 95
9, 387840, Note_on_c, 9, 36, 95
9, 388160, Note_off_c, 9, 42, 95
9, 388160, Note_off_c, 9, 36, 95
9, 388160, Note_on_c, 9, 42, 95
9, 388480, Note_off_c, 9, 42, 95
9, 388480, Note_on_c, 9, 42, 95
9, 388800, Note_off_c, 9, 42, 95
9, 388800, Note_on_c, 9, 42, 95
9, 388800, Note_on_c, 9, 38, 95
9, 388800, Note_on_c, 9, 36, 95
9, 389120, Note_off_c, 9, 42, 95
9, 389120, Note_off_c, 9, 38, 95
9, 389120, Note_off_c, 9, 36, 95
9, 389120, Note_on_c, 9, 42, 95
9, 389440, Note_off_c, 9, 42, 95
9, 389440, Note_on_c, 9, 42, 95
9, 389760, Note_off_c, 9, 42, 95
9, 389760, Note_on_c, 9, 42, 95
9, 389760, Note_on_c, 9, 36, 95
9, 390080, Note_off_c, 9, 42, 95
9, 390080, Note_off_c, 9, 36, 95
9, 390080, Note_on_c, 9, 42, 95
9, 390400, Note_off_c, 9, 42, 95
9, 390400, Note_on_c, 9, 42, 95
9, 390720, Note_off_c, 9, 42, 95
9, 390720, Note_on_c, 9, 42, 95
9, 390720, Note_on_c, 9, 38, 95
9, 390720, Note_on_c, 9, 36, 95
9, 391040, Note_off_c, 9, 42, 95
9, 391040, Note_off_c, 9, 38, 95
9, 391040, Note_off_c, 9, 36, 95
9, 391040, Note_on_c, 9, 42, 95
9, 391360, Note_off_c, 9, 42, 95
9, 391360, Note_on_c, 9, 42, 95
9, 391680, Note_off_c, 9, 42, 95
9, 391680, Note_on_c, 9, 42, 95
9, 391680, Note_on_c, 9, 36, 95
9, 392000, Note_off_c, 9, 42, 95
9, 392000, Note_off_c, 9, 36, 95
9, 392000, Note_on_c, 9, 42, 95
9, 392320, Note_off_c, 9, 42, 95
9, 392320, Note_on_c, 9, 42, 95
9, 392640, Note_off_c, 9, 42, 95
9, 392640, Note_on_c, 9, 42, 95
9, 392640, Note_on_c, 9, 38, 95
9, 392640, Note_on_c, 9, 36, 95
9, 392960, Note_off_c, 9, 42, 95
9, 392960, Note_off_c, 9, 38, 95
9, 392960, Note_off_c, 9, 36, 95
9, 392960, Note_on_c, 9, 42, 95
9, 393280, Note_off_c, 9, 42, 95
9, 393280, Note_on_c, 9, 42, 95
9, 393600, Note_off_c, 9, 42, 95
9, 393600, Note_on_c, 9, 42, 95
9, 393600, Note_on_c, 9, 36, 95
9, 393920, Note_off_c, 9, 42, 95
9, 393920, Note_off_c, 9, 36, 95
9, 393920, Note_on_c, 9, 42, 95
9, 394240, Note_off_c, 9, 42, 95
9, 394240, Note_on_c, 9, 42, 95
9, 394560, Note_off_c, 9, 42, 95
9, 394560, Note_on_c, 9, 42, 95
9, 394560, Note_on_c, 9, 38, 95
9, 394560, Note_on_c, 9, 36, 95
9, 394880, Note_off_c, 9, 42, 95
9, 394880, Note_off_c, 9, 38, 95
9, 394880, Note_off_c, 9, 36, 95
9, 394880, Note_on_c, 9, 42, 95
9, 395200, Note_off_c, 9, 42, 95
9, 395200, Note_on_c, 9, 42, 95
9, 395520, Note_off_c, 9, 42, 95
9, 395520, Note_on_c, 9, 42, 95
9, 395520, Note_on_c, 9, 36, 95
9, 395840, Note_off_c, 9, 42, 95
9, 395840, Note_off_c, 9, 36, 95
9, 395840, Note_on_c, 9, 42, 95
9, 396160, Note_off_c, 9, 42, 95
9, 396160, Note_on_c, 9, 42, 95
9, 396480, Note_off_c, 9, 42, 95
9, 396480, Note_on_c, 9, 42, 95
9, 396480, Note_on_c, 9, 38, 95
9, 396480, Note_on_c, 9, 36, 95
9, 396800, Note_off_c, 9, 42, 95
9, 396800, Note_off_c, 9, 38, 95
9, 396800, Note_off_c, 9, 36, 95
9, 396800, Note_on_c, 9, 42, 95
9, 397120, Note_off_c, 9, 42, 95
9, 397120, Note_on_c, 9, 42, 95
9, 397440, Note_off_c, 9, 42, 95
9, 397440, Note_on_c, 9, 42, 95
9, 397440, Note_on_c, 9, 36, 95
9, 397760, Note_off_c, 9, 42, 95
9, 397760, Note_off_c, 9, 36, 95
9, 397760, Note_on_c, 9, 42, 95
9, 398080, Note_off_c, 9, 42, 95
9, 398080, Note_on_c, 9, 42, 95
9, 398400, Note_off_c, 9, 42, 95
9, 398400, Note_on_c, 9, 42, 95
9, 398400, Note_on_c, 9, 38, 95
9, 398400, Note_on_c, 9, 36, 95
9, 398720, Note_off_c, 9, 42, 95
9, 398720, Note_off_c, 9, 38, 95
9, 398720, Note_off_c, 9, 36, 95
9, 398720, Note_on_c, 9, 42, 95
9, 399040, Note_off_c, 9, 42, 95
9, 399040, Note_on_c, 9, 42, 95
9, 399360, Note_off_c, 9, 42, 95
9, 399360, Note_on_c, 9, 42, 95
9, 399360, Note_on_c, 9, 36, 95
9, 399680, Note_off_c, 9, 42, 95
9, 399680, Note_off_c, 9, 36, 95
9, 399680, Note_on_c, 9, 42, 95
9, 400000, Note_off_c, 9, 42, 95
9, 400000, Note_on_c, 9, 42, 95
9, 400320, Note_off_c, 9, 42, 95
9, 400320, Note_on_c, 9, 42, 95
9, 400320, Note_on_c, 9, 38, 95
9, 400320, Note_on_c, 9, 36, 95
9, 400640, Note_off_c, 9, 42, 95
9, 400640, Note_off_c, 9, 38, 95
9, 400640, Note_off_c, 9, 36, 95
9, 400640, Note_on_c, 9, 42, 95
9, 400960, Note_off_c, 9, 42, 95
9, 400960, Note_on_c, 9, 42, 95
9, 401280, Note_off_c, 9, 42, 95
9, 401280, Note_on_c, 9, 42, 95
9, 401280, Note_on_c, 9, 36, 95
9, 401600, Note_off_c, 9, 42, 95
9, 401600, Note_off_c, 9, 36, 95
9, 401600, Note_on_c, 9, 42, 95
9, 401920, Note_off_c, 9, 42, 95
9, 401920, Note_on_c, 9, 42, 95
9, 402240, Note_off_c, 9, 42, 95
9, 402240, Note_on_c, 9, 42, 95
9, 402240, Note_on_c, 9, 38, 95
9, 402240, Note_on_c, 9, 36, 95
9, 402560, Note_off_c, 9, 42, 95
9, 402560, Note_off_c, 9, 38, 95
9, 402560, Note_off_c, 9, 36, 95
9, 402560, Note_on_c, 9, 42, 95
9, 402880, Note_off_c, 9, 42, 95
9, 402880, Note_on_c, 9, 42, 95
9, 403200, Note_off_c, 9, 42, 95
9, 403200, Note_on_c, 9, 42, 95
9, 403200, Note_on_c, 9, 36, 95
9, 403520, Note_off_c, 9, 42, 95
9, 403520, Note_off_c, 9, 36, 95
9, 403520, Note_on_c, 9, 42, 95
9, 403840, Note_off_c, 9, 42, 95
9, 403840, Note_on_c, 9, 42, 95
9, 404160, Note_off_c, 9, 42, 95
9, 404160, Note_on_c, 9, 42, 95
9, 404160, Note_on_c, 9, 38, 95
9, 404160, Note_on_c, 9, 36, 95
9, 404480, Note_off_c, 9, 42, 95
9, 404480, Note_off_c, 9, 38, 95
9, 404480, Note_off_c, 9, 36, 95
9, 404480, Note_on_c, 9, 42, 95
9, 404800, Note_off_c, 9, 42, 95
9, 404800, Note_on_c, 9, 42, 95
9, 405120, Note_off_c, 9, 42, 95
9, 405120, Note_on_c, 9, 42, 95
9, 405120, Note_on_c, 9, 36, 95
9, 405440, Note_off_c, 9, 42, 95
9, 405440, Note_off_c, 9, 36, 95
9, 405440, Note_on_c, 9, 42, 95
9, 405760, Note_off_c, 9, 42, 95
9, 405760, Note_on_c, 9, 42, 95
9, 406080, Note_off_c, 9, 42, 95
9, 406080, Note_on_c, 9, 42, 127
9, 406080, Note_on_c, 9, 38, 95
9, 406080, Note_on_c, 9, 36, 95
9, 406400, Note_off_c, 9, 42, 127
9, 406400, Note_off_c, 9, 38, 95
9, 406400, Note_off_c, 9, 36, 95
9, 407040, Note_on_c, 9, 38, 95
9, 407360, Note_off_c, 9, 38, 95
9, 407360, Note_on_c, 9, 38, 95
9, 407680, Note_off_c, 9, 38, 95
9, 407680, Note_on_c, 9, 38, 95
9, 408000, Note_off_c, 9, 38, 95
9, 408000, Note_on_c, 9, 38, 95
9, 408320, Note_off_c, 9, 38, 95
9, 408320, Note_on_c, 9, 48, 95
9, 408640, Note_off_c, 9, 48, 95
9, 408640, Note_on_c, 9, 48, 95
9, 408960, Note_off_c, 9, 48, 95
9, 408960, Note_on_c, 9, 48, 95
9, 409280, Note_off_c, 9, 48, 95
9, 409280, Note_on_c, 9, 48, 95
9, 409600, Note_off_c, 9, 48, 95
9, 409600, Note_on_c, 9, 45, 95
9, 409920, Note_off_c, 9, 45, 95
9, 409920, Note_on_c, 9, 45, 95
9, 410240, Note_off_c, 9, 45, 95
9, 410240, Note_on_c, 9, 41, 95
9, 410560, Note_off_c, 9, 41, 95
9, 410560, Note_on_c, 9, 41, 95
9, 410880, Note_off_c, 9, 41, 95
9, 410880, Note_on_c, 9, 49, 127
9, 410880, Note_on_c, 9, 36, 127
9, 414720, Note_off_c, 9, 49, 127
9, 414720, Note_off_c, 9, 36, 127
9, 414720, End_track
0, 0, End_of_file
