0, 0, Header, 1, 5, 480
1, 0, Start_track
1, 0, Tempo, 512820
1, 0, Title_t, "Monkey Gone To Haven"
1, 0, Time_signature, 4, 2, 7, 211
1, 0, End_track
2, 0, Start_track
2, 0, Title_t, "Guitare 1"
2, 0, Control_c, 1, 100, 0
2, 0, Control_c, 1, 101, 0
2, 0, Control_c, 1, 6, 12
2, 0, Pitch_bend_c, 1, 8192
2, 0, Control_c, 1, 101, 0
2, 0, Control_c, 1, 100, 1
2, 0, Control_c, 1, 6, 64
2, 0, Control_c, 1, 38, 0
2, 0, Control_c, 1, 101, 127
2, 0, Control_c, 1, 100, 127
2, 0, Control_c, 0, 100, 0
2, 0, Control_c, 0, 101, 0
2, 0, Control_c, 0, 6, 12
2, 0, Pitch_bend_c, 0, 8192
2, 0, Control_c, 0, 101, 0
2, 0, Control_c, 0, 100, 1
2, 0, Control_c, 0, 6, 64
2, 0, Control_c, 0, 38, 0
2, 0, Control_c, 0, 101, 127
2, 0, Control_c, 0, 100, 127
2, 0, Control_c, 1, 101, 0
2, 0, Control_c, 1, 100, 2
2, 0, Control_c, 1, 6, 64
2, 0, Control_c, 1, 101, 127
2, 0, Control_c, 1, 100, 127
2, 0, Control_c, 0, 101, 0
2, 0, Control_c, 0, 100, 2
2, 0, Control_c, 0, 6, 64
2, 0, Control_c, 0, 101, 127
2, 0, Control_c, 0, 100, 127
2, 0, Program_c, 1, 30
2, 0, Program_c, 0, 30
2, 0, Control_c, 1, 0, 0
2, 0, Control_c, 0, 0, 0
2, 0, Control_c, 1, 7, 104
2, 0, Control_c, 0, 7, 104
2, 0, Control_c, 1, 10, 64
2, 0, Control_c, 0, 10, 64
2, 0, Control_c, 1, 93, 0
2, 0, Control_c, 0, 93, 0
2, 0, Control_c, 1, 91, 0
2, 0, Control_c, 0, 91, 0
2, 0, Control_c, 1, 92, 0
2, 0, Control_c, 0, 92, 0
2, 0, Control_c, 1, 95, 0
2, 0, Control_c, 0, 95, 0
2, 0, Note_on_c, 0, 52, 95
2, 0, Note_on_c, 0, 47, 95
2, 0, Note_on_c, 0, 40, 95
2, 480, Note_off_c, 0, 52, 80
2, 480, Note_off_c, 0, 47, 80
2, 480, Note_off_c, 0, 40, 80
2, 480, Note_on_c, 0, 54, 95
2, 480, Note_on_c, 0, 49, 95
2, 480, Note_on_c, 0, 42, 95
2, 960, Note_off_c, 0, 54, 80
2, 960, Note_off_c, 0, 49, 80
2, 960, Note_off_c, 0, 42, 80
2, 960, Note_on_c, 0, 54, 95
2, 960, Note_on_c, 0, 49, 95
2, 960, Note_on_c, 0, 42, 95
2, 1440, Note_off_c, 0, 54, 80
2, 1440, Note_off_c, 0, 49, 80
2, 1440, Note_off_c, 0, 42, 80
2, 1440, Note_on_c, 0, 57, 95
2, 1440, Note_on_c, 0, 52, 95
2, 1440, Note_on_c, 0, 45, 95
2, 1920, Note_off_c, 0, 57, 80
2, 1920, Note_off_c, 0, 52, 80
2, 1920, Note_off_c, 0, 45, 80
2, 1920, Note_on_c, 0, 62, 95
2, 1920, Note_on_c, 0, 57, 95
2, 1920, Note_on_c, 0, 50, 95
2, 3840, Note_off_c, 0, 62, 80
2, 3840, Note_off_c, 0, 57, 80
2, 3840, Note_off_c, 0, 50, 80
2, 3840, Control_c, 0, 7, 15
2, 3840, Control_c, 1, 7, 15
2, 3840, Note_on_c, 0, 47, 95
2, 3960, Control_c, 0, 7, 30
2, 3960, Control_c, 1, 7, 30
2, 4080, Control_c, 0, 7, 45
2, 4080, Control_c, 1, 7, 45
2, 4200, Control_c, 0, 7, 59
2, 4200, Control_c, 1, 7, 59
2, 4320, Control_c, 0, 7, 74
2, 4320, Control_c, 1, 7, 74
2, 4440, Control_c, 0, 7, 89
2, 4440, Control_c, 1, 7, 89
2, 4560, Control_c, 0, 7, 104
2, 4560, Control_c, 1, 7, 104
2, 5760, Note_off_c, 0, 47, 80
2, 5760, Control_c, 0, 7, 15
2, 5760, Control_c, 1, 7, 15
2, 5760, Note_on_c, 0, 50, 95
2, 5880, Control_c, 0, 7, 30
2, 5880, Control_c, 1, 7, 30
2, 6000, Control_c, 0, 7, 45
2, 6000, Control_c, 1, 7, 45
2, 6120, Control_c, 0, 7, 59
2, 6120, Control_c, 1, 7, 59
2, 6240, Control_c, 0, 7, 74
2, 6240, Control_c, 1, 7, 74
2, 6360, Control_c, 0, 7, 89
2, 6360, Control_c, 1, 7, 89
2, 6480, Control_c, 0, 7, 104
2, 6480, Control_c, 1, 7, 104
2, 7680, Note_off_c, 0, 50, 80
2, 23040, Note_on_c, 0, 52, 95
2, 23040, Note_on_c, 0, 47, 95
2, 23040, Note_on_c, 0, 40, 95
2, 23520, Note_off_c, 0, 52, 80
2, 23520, Note_off_c, 0, 47, 80
2, 23520, Note_off_c, 0, 40, 80
2, 23520, Note_on_c, 0, 54, 95
2, 23520, Note_on_c, 0, 49, 95
2, 23520, Note_on_c, 0, 42, 95
2, 24000, Note_off_c, 0, 54, 80
2, 24000, Note_off_c, 0, 49, 80
2, 24000, Note_off_c, 0, 42, 80
2, 24000, Note_on_c, 0, 54, 95
2, 24000, Note_on_c, 0, 49, 95
2, 24000, Note_on_c, 0, 42, 95
2, 24480, Note_off_c, 0, 54, 80
2, 24480, Note_off_c, 0, 49, 80
2, 24480, Note_off_c, 0, 42, 80
2, 24480, Note_on_c, 0, 57, 95
2, 24480, Note_on_c, 0, 52, 95
2, 24480, Note_on_c, 0, 45, 95
2, 24960, Note_off_c, 0, 57, 80
2, 24960, Note_off_c, 0, 52, 80
2, 24960, Note_off_c, 0, 45, 80
2, 24960, Note_on_c, 0, 62, 95
2, 24960, Note_on_c, 0, 57, 95
2, 24960, Note_on_c, 0, 50, 95
2, 26880, Note_off_c, 0, 62, 80
2, 26880, Note_off_c, 0, 57, 80
2, 26880, Note_off_c, 0, 50, 80
2, 26880, Note_on_c, 0, 59, 95
2, 26880, Note_on_c, 0, 54, 95
2, 26880, Note_on_c, 0, 47, 95
2, 28800, Note_off_c, 0, 59, 80
2, 28800, Note_off_c, 0, 54, 80
2, 28800, Note_off_c, 0, 47, 80
2, 28800, Note_on_c, 0, 62, 95
2, 28800, Note_on_c, 0, 57, 95
2, 28800, Note_on_c, 0, 50, 95
2, 30720, Note_off_c, 0, 62, 80
2, 30720, Note_off_c, 0, 57, 80
2, 30720, Note_off_c, 0, 50, 80
2, 30720, Note_on_c, 0, 52, 95
2, 30720, Note_on_c, 0, 47, 95
2, 30720, Note_on_c, 0, 40, 95
2, 31200, Note_off_c, 0, 52, 80
2, 31200, Note_off_c, 0, 47, 80
2, 31200, Note_off_c, 0, 40, 80
2, 31200, Note_on_c, 0, 54, 95
2, 31200, Note_on_c, 0, 49, 95
2, 31200, Note_on_c, 0, 42, 95
2, 31680, Note_off_c, 0, 54, 80
2, 31680, Note_off_c, 0, 49, 80
2, 31680, Note_off_c, 0, 42, 80
2, 31680, Note_on_c, 0, 54, 95
2, 31680, Note_on_c, 0, 49, 95
2, 31680, Note_on_c, 0, 42, 95
2, 32160, Note_off_c, 0, 54, 80
2, 32160, Note_off_c, 0, 49, 80
2, 32160, Note_off_c, 0, 42, 80
2, 32160, Note_on_c, 0, 57, 95
2, 32160, Note_on_c, 0, 52, 95
2, 32160, Note_on_c, 0, 45, 95
2, 32640, Note_off_c, 0, 57, 80
2, 32640, Note_off_c, 0, 52, 80
2, 32640, Note_off_c, 0, 45, 80
2, 32640, Note_on_c, 0, 62, 95
2, 32640, Note_on_c, 0, 57, 95
2, 32640, Note_on_c, 0, 50, 95
2, 34560, Note_off_c, 0, 62, 80
2, 34560, Note_off_c, 0, 57, 80
2, 34560, Note_off_c, 0, 50, 80
2, 34560, Note_on_c, 0, 59, 95
2, 34560, Note_on_c, 0, 54, 95
2, 34560, Note_on_c, 0, 47, 95
2, 36480, Note_off_c, 0, 59, 80
2, 36480, Note_off_c, 0, 54, 80
2, 36480, Note_off_c, 0, 47, 80
2, 36480, Note_on_c, 0, 62, 95
2, 36480, Note_on_c, 0, 57, 95
2, 36480, Note_on_c, 0, 50, 95
2, 38400, Note_off_c, 0, 62, 80
2, 38400, Note_off_c, 0, 57, 80
2, 38400, Note_off_c, 0, 50, 80
2, 38400, Note_on_c, 0, 52, 95
2, 38400, Note_on_c, 0, 47, 95
2, 38400, Note_on_c, 0, 40, 95
2, 38880, Note_off_c, 0, 52, 80
2, 38880, Note_off_c, 0, 47, 80
2, 38880, Note_off_c, 0, 40, 80
2, 38880, Note_on_c, 0, 54, 95
2, 38880, Note_on_c, 0, 49, 95
2, 38880, Note_on_c, 0, 42, 95
2, 39360, Note_off_c, 0, 54, 80
2, 39360, Note_off_c, 0, 49, 80
2, 39360, Note_off_c, 0, 42, 80
2, 39360, Note_on_c, 0, 54, 95
2, 39360, Note_on_c, 0, 49, 95
2, 39360, Note_on_c, 0, 42, 95
2, 39840, Note_off_c, 0, 54, 80
2, 39840, Note_off_c, 0, 49, 80
2, 39840, Note_off_c, 0, 42, 80
2, 39840, Note_on_c, 0, 57, 95
2, 39840, Note_on_c, 0, 52, 95
2, 39840, Note_on_c, 0, 45, 95
2, 40320, Note_off_c, 0, 57, 80
2, 40320, Note_off_c, 0, 52, 80
2, 40320, Note_off_c, 0, 45, 80
2, 40320, Note_on_c, 0, 64, 95
2, 40320, Note_on_c, 0, 61, 95
2, 40560, Note_off_c, 0, 64, 80
2, 40560, Note_off_c, 0, 61, 80
2, 40560, Note_on_c, 0, 64, 95
2, 40560, Note_on_c, 0, 61, 95
2, 40800, Note_off_c, 0, 64, 80
2, 40800, Note_off_c, 0, 61, 80
2, 40800, Note_on_c, 0, 64, 95
2, 40800, Note_on_c, 0, 61, 95
2, 41040, Note_off_c, 0, 64, 80
2, 41040, Note_off_c, 0, 61, 80
2, 41040, Note_on_c, 0, 66, 95
2, 41040, Note_on_c, 0, 62, 95
2, 41520, Note_off_c, 0, 66, 80
2, 41520, Note_off_c, 0, 62, 80
2, 41520, Note_on_c, 0, 66, 95
2, 41520, Note_on_c, 0, 62, 95
2, 41760, Note_off_c, 0, 66, 80
2, 41760, Note_off_c, 0, 62, 80
2, 41760, Note_on_c, 0, 66, 95
2, 41760, Note_on_c, 0, 62, 95
2, 42000, Note_off_c, 0, 66, 80
2, 42000, Note_off_c, 0, 62, 80
2, 42000, Note_on_c, 0, 66, 95
2, 42000, Note_on_c, 0, 62, 95
2, 42240, Note_off_c, 0, 66, 80
2, 42240, Note_off_c, 0, 62, 80
2, 42240, Note_on_c, 0, 64, 95
2, 42240, Note_on_c, 0, 61, 95
2, 42480, Note_off_c, 0, 64, 80
2, 42480, Note_off_c, 0, 61, 80
2, 42480, Note_on_c, 0, 64, 95
2, 42480, Note_on_c, 0, 61, 95
2, 42720, Note_off_c, 0, 64, 80
2, 42720, Note_off_c, 0, 61, 80
2, 42720, Note_on_c, 0, 64, 95
2, 42720, Note_on_c, 0, 61, 95
2, 42960, Note_off_c, 0, 64, 80
2, 42960, Note_off_c, 0, 61, 80
2, 42960, Note_on_c, 0, 66, 95
2, 42960, Note_on_c, 0, 62, 95
2, 43440, Note_off_c, 0, 66, 80
2, 43440, Note_off_c, 0, 62, 80
2, 43440, Note_on_c, 0, 66, 95
2, 43440, Note_on_c, 0, 62, 95
2, 43680, Note_off_c, 0, 66, 80
2, 43680, Note_off_c, 0, 62, 80
2, 43680, Note_on_c, 0, 66, 95
2, 43680, Note_on_c, 0, 62, 95
2, 43920, Note_off_c, 0, 66, 80
2, 43920, Note_off_c, 0, 62, 80
2, 43920, Note_on_c, 0, 66, 95
2, 43920, Note_on_c, 0, 62, 95
2, 44160, Note_off_c, 0, 66, 80
2, 44160, Note_off_c, 0, 62, 80
2, 44160, Note_on_c, 0, 64, 95
2, 44160, Note_on_c, 0, 61, 95
2, 44400, Note_off_c, 0, 64, 80
2, 44400, Note_off_c, 0, 61, 80
2, 44400, Note_on_c, 0, 64, 95
2, 44400, Note_on_c, 0, 61, 95
2, 44640, Note_off_c, 0, 64, 80
2, 44640, Note_off_c, 0, 61, 80
2, 44640, Note_on_c, 0, 64, 95
2, 44640, Note_on_c, 0, 61, 95
2, 44880, Note_off_c, 0, 64, 80
2, 44880, Note_off_c, 0, 61, 80
2, 44880, Note_on_c, 0, 66, 95
2, 44880, Note_on_c, 0, 62, 95
2, 45360, Note_off_c, 0, 66, 80
2, 45360, Note_off_c, 0, 62, 80
2, 45360, Note_on_c, 0, 66, 95
2, 45360, Note_on_c, 0, 62, 95
2, 45600, Note_off_c, 0, 66, 80
2, 45600, Note_off_c, 0, 62, 80
2, 45600, Note_on_c, 0, 66, 95
2, 45600, Note_on_c, 0, 62, 95
2, 45840, Note_off_c, 0, 66, 80
2, 45840, Note_off_c, 0, 62, 80
2, 45840, Note_on_c, 0, 66, 95
2, 45840, Note_on_c, 0, 62, 95
2, 46080, Note_off_c, 0, 66, 80
2, 46080, Note_off_c, 0, 62, 80
2, 46080, Note_on_c, 0, 64, 95
2, 46080, Note_on_c, 0, 59, 95
2, 46560, Note_off_c, 0, 64, 80
2, 46560, Note_off_c, 0, 59, 80
2, 46560, Note_on_c, 0, 64, 95
2, 46560, Note_on_c, 0, 61, 95
2, 47040, Note_off_c, 0, 64, 80
2, 47040, Note_off_c, 0, 61, 80
2, 47040, Note_on_c, 0, 64, 95
2, 47040, Note_on_c, 0, 61, 95
2, 47520, Note_off_c, 0, 64, 80
2, 47520, Note_off_c, 0, 61, 80
2, 47520, Note_on_c, 0, 64, 95
2, 47520, Note_on_c, 0, 64, 95
2, 48000, Note_off_c, 0, 64, 80
2, 48000, Note_off_c, 0, 64, 80
2, 48000, Note_on_c, 0, 66, 95
2, 48000, Note_on_c, 0, 62, 95
2, 49920, Note_off_c, 0, 66, 80
2, 49920, Note_off_c, 0, 62, 80
2, 49920, Note_on_c, 0, 59, 95
2, 51840, Note_off_c, 0, 59, 80
2, 51840, Note_on_c, 0, 62, 95
2, 53760, Note_off_c, 0, 62, 80
2, 69120, Note_on_c, 0, 52, 95
2, 69120, Note_on_c, 0, 47, 95
2, 69120, Note_on_c, 0, 40, 95
2, 69600, Note_off_c, 0, 52, 80
2, 69600, Note_off_c, 0, 47, 80
2, 69600, Note_off_c, 0, 40, 80
2, 69600, Note_on_c, 0, 54, 95
2, 69600, Note_on_c, 0, 49, 95
2, 69600, Note_on_c, 0, 42, 95
2, 70080, Note_off_c, 0, 54, 80
2, 70080, Note_off_c, 0, 49, 80
2, 70080, Note_off_c, 0, 42, 80
2, 70080, Note_on_c, 0, 54, 95
2, 70080, Note_on_c, 0, 49, 95
2, 70080, Note_on_c, 0, 42, 95
2, 70560, Note_off_c, 0, 54, 80
2, 70560, Note_off_c, 0, 49, 80
2, 70560, Note_off_c, 0, 42, 80
2, 70560, Note_on_c, 0, 57, 95
2, 70560, Note_on_c, 0, 52, 95
2, 70560, Note_on_c, 0, 45, 95
2, 71040, Note_off_c, 0, 57, 80
2, 71040, Note_off_c, 0, 52, 80
2, 71040, Note_off_c, 0, 45, 80
2, 71040, Note_on_c, 0, 62, 95
2, 71040, Note_on_c, 0, 57, 95
2, 71040, Note_on_c, 0, 50, 95
2, 72960, Note_off_c, 0, 62, 80
2, 72960, Note_off_c, 0, 57, 80
2, 72960, Note_off_c, 0, 50, 80
2, 72960, Note_on_c, 0, 59, 95
2, 72960, Note_on_c, 0, 54, 95
2, 72960, Note_on_c, 0, 47, 95
2, 74880, Note_off_c, 0, 59, 80
2, 74880, Note_off_c, 0, 54, 80
2, 74880, Note_off_c, 0, 47, 80
2, 74880, Note_on_c, 0, 62, 95
2, 74880, Note_on_c, 0, 57, 95
2, 74880, Note_on_c, 0, 50, 95
2, 76800, Note_off_c, 0, 62, 80
2, 76800, Note_off_c, 0, 57, 80
2, 76800, Note_off_c, 0, 50, 80
2, 76800, Note_on_c, 0, 52, 95
2, 76800, Note_on_c, 0, 47, 95
2, 76800, Note_on_c, 0, 40, 95
2, 77280, Note_off_c, 0, 52, 80
2, 77280, Note_off_c, 0, 47, 80
2, 77280, Note_off_c, 0, 40, 80
2, 77280, Note_on_c, 0, 54, 95
2, 77280, Note_on_c, 0, 49, 95
2, 77280, Note_on_c, 0, 42, 95
2, 77760, Note_off_c, 0, 54, 80
2, 77760, Note_off_c, 0, 49, 80
2, 77760, Note_off_c, 0, 42, 80
2, 77760, Note_on_c, 0, 54, 95
2, 77760, Note_on_c, 0, 49, 95
2, 77760, Note_on_c, 0, 42, 95
2, 78240, Note_off_c, 0, 54, 80
2, 78240, Note_off_c, 0, 49, 80
2, 78240, Note_off_c, 0, 42, 80
2, 78240, Note_on_c, 0, 57, 95
2, 78240, Note_on_c, 0, 52, 95
2, 78240, Note_on_c, 0, 45, 95
2, 78720, Note_off_c, 0, 57, 80
2, 78720, Note_off_c, 0, 52, 80
2, 78720, Note_off_c, 0, 45, 80
2, 78720, Note_on_c, 0, 62, 95
2, 78720, Note_on_c, 0, 57, 95
2, 78720, Note_on_c, 0, 50, 95
2, 80640, Note_off_c, 0, 62, 80
2, 80640, Note_off_c, 0, 57, 80
2, 80640, Note_off_c, 0, 50, 80
2, 80640, Note_on_c, 0, 59, 95
2, 80640, Note_on_c, 0, 54, 95
2, 80640, Note_on_c, 0, 47, 95
2, 82560, Note_off_c, 0, 59, 80
2, 82560, Note_off_c, 0, 54, 80
2, 82560, Note_off_c, 0, 47, 80
2, 82560, Note_on_c, 0, 62, 95
2, 82560, Note_on_c, 0, 57, 95
2, 82560, Note_on_c, 0, 50, 95
2, 84480, Note_off_c, 0, 62, 80
2, 84480, Note_off_c, 0, 57, 80
2, 84480, Note_off_c, 0, 50, 80
2, 84480, Note_on_c, 0, 64, 95
2, 84480, Note_on_c, 1, 62, 95
2, 84480, Pitch_bend_c, 1, 8192
2, 84528, Pitch_bend_c, 1, 8320
2, 84576, Pitch_bend_c, 1, 8448
2, 84592, Pitch_bend_c, 1, 8576
2, 84608, Pitch_bend_c, 1, 8704
2, 84624, Pitch_bend_c, 1, 8832
2, 84640, Pitch_bend_c, 1, 8960
2, 84656, Pitch_bend_c, 1, 9088
2, 84672, Pitch_bend_c, 1, 9344
2, 84704, Pitch_bend_c, 1, 9472
2, 84720, Pitch_bend_c, 1, 9600
2, 84960, Note_off_c, 0, 64, 80
2, 84960, Note_off_c, 1, 62, 80
2, 84960, Pitch_bend_c, 1, 8192
2, 84960, Note_on_c, 1, 60, 95
2, 84960, Pitch_bend_c, 1, 8192
2, 85008, Pitch_bend_c, 1, 8320
2, 85056, Pitch_bend_c, 1, 8448
2, 85072, Pitch_bend_c, 1, 8576
2, 85088, Pitch_bend_c, 1, 8704
2, 85104, Pitch_bend_c, 1, 8832
2, 85120, Pitch_bend_c, 1, 8960
2, 85136, Pitch_bend_c, 1, 9088
2, 85152, Pitch_bend_c, 1, 9344
2, 85184, Pitch_bend_c, 1, 9472
2, 85200, Pitch_bend_c, 1, 9600
2, 85440, Note_off_c, 1, 60, 80
2, 85440, Pitch_bend_c, 1, 8192
2, 85440, Note_on_c, 0, 61, 95
2, 85920, Note_off_c, 0, 61, 80
2, 85920, Note_on_c, 1, 59, 95
2, 85920, Pitch_bend_c, 1, 8192
2, 85968, Pitch_bend_c, 1, 8320
2, 86016, Pitch_bend_c, 1, 8448
2, 86032, Pitch_bend_c, 1, 8576
2, 86048, Pitch_bend_c, 1, 8704
2, 86064, Pitch_bend_c, 1, 8832
2, 86080, Pitch_bend_c, 1, 8960
2, 86096, Pitch_bend_c, 1, 9088
2, 86112, Pitch_bend_c, 1, 9344
2, 86144, Pitch_bend_c, 1, 9472
2, 86160, Pitch_bend_c, 1, 9600
2, 86400, Note_off_c, 1, 59, 80
2, 86400, Pitch_bend_c, 1, 8192
2, 86400, Note_on_c, 0, 61, 95
2, 86400, Note_on_c, 1, 59, 95
2, 86400, Pitch_bend_c, 1, 8192
2, 86464, Pitch_bend_c, 1, 8320
2, 86528, Pitch_bend_c, 1, 8448
2, 86560, Pitch_bend_c, 1, 8576
2, 86592, Pitch_bend_c, 1, 8704
2, 86624, Pitch_bend_c, 1, 8960
2, 86656, Pitch_bend_c, 1, 9088
2, 86672, Pitch_bend_c, 1, 9216
2, 86688, Pitch_bend_c, 1, 9344
2, 86720, Pitch_bend_c, 1, 9472
2, 86768, Pitch_bend_c, 1, 9600
2, 87120, Note_off_c, 0, 61, 80
2, 87120, Note_off_c, 1, 59, 80
2, 87120, Pitch_bend_c, 1, 8192
2, 87120, Note_on_c, 0, 62, 95
2, 87120, Note_on_c, 1, 60, 95
2, 87120, Pitch_bend_c, 1, 8192
2, 87184, Pitch_bend_c, 1, 8320
2, 87248, Pitch_bend_c, 1, 8448
2, 87280, Pitch_bend_c, 1, 8576
2, 87312, Pitch_bend_c, 1, 8704
2, 87344, Pitch_bend_c, 1, 8960
2, 87376, Pitch_bend_c, 1, 9088
2, 87392, Pitch_bend_c, 1, 9216
2, 87408, Pitch_bend_c, 1, 9344
2, 87440, Pitch_bend_c, 1, 9472
2, 87488, Pitch_bend_c, 1, 9600
2, 87840, Note_off_c, 0, 62, 80
2, 87840, Note_off_c, 1, 60, 80
2, 87840, Pitch_bend_c, 1, 8192
2, 87840, Note_on_c, 0, 62, 95
2, 87840, Note_on_c, 1, 60, 95
2, 87840, Pitch_bend_c, 1, 8192
2, 87888, Pitch_bend_c, 1, 8320
2, 87936, Pitch_bend_c, 1, 8448
2, 87952, Pitch_bend_c, 1, 8576
2, 87968, Pitch_bend_c, 1, 8704
2, 87984, Pitch_bend_c, 1, 8832
2, 88000, Pitch_bend_c, 1, 8960
2, 88016, Pitch_bend_c, 1, 9088
2, 88032, Pitch_bend_c, 1, 9344
2, 88064, Pitch_bend_c, 1, 9472
2, 88080, Pitch_bend_c, 1, 9600
2, 88320, Note_off_c, 0, 62, 80
2, 88320, Note_off_c, 1, 60, 80
2, 88320, Pitch_bend_c, 1, 8192
2, 88320, Note_on_c, 0, 61, 95
2, 88320, Note_on_c, 1, 59, 95
2, 88320, Pitch_bend_c, 1, 8192
2, 88384, Pitch_bend_c, 1, 8320
2, 88448, Pitch_bend_c, 1, 8448
2, 88480, Pitch_bend_c, 1, 8576
2, 88512, Pitch_bend_c, 1, 8704
2, 88544, Pitch_bend_c, 1, 8960
2, 88576, Pitch_bend_c, 1, 9088
2, 88592, Pitch_bend_c, 1, 9216
2, 88608, Pitch_bend_c, 1, 9344
2, 88640, Pitch_bend_c, 1, 9472
2, 88688, Pitch_bend_c, 1, 9600
2, 89040, Note_off_c, 0, 61, 80
2, 89040, Note_off_c, 1, 59, 80
2, 89040, Pitch_bend_c, 1, 8192
2, 89040, Note_on_c, 0, 62, 95
2, 89040, Note_on_c, 1, 60, 95
2, 89040, Pitch_bend_c, 1, 8192
2, 89104, Pitch_bend_c, 1, 8320
2, 89168, Pitch_bend_c, 1, 8448
2, 89200, Pitch_bend_c, 1, 8576
2, 89232, Pitch_bend_c, 1, 8704
2, 89264, Pitch_bend_c, 1, 8960
2, 89296, Pitch_bend_c, 1, 9088
2, 89312, Pitch_bend_c, 1, 9216
2, 89328, Pitch_bend_c, 1, 9344
2, 89360, Pitch_bend_c, 1, 9472
2, 89408, Pitch_bend_c, 1, 9600
2, 89760, Note_off_c, 0, 62, 80
2, 89760, Note_off_c, 1, 60, 80
2, 89760, Pitch_bend_c, 1, 8192
2, 89760, Note_on_c, 0, 62, 95
2, 89760, Note_on_c, 1, 60, 95
2, 89760, Pitch_bend_c, 1, 8192
2, 89808, Pitch_bend_c, 1, 8320
2, 89856, Pitch_bend_c, 1, 8448
2, 89872, Pitch_bend_c, 1, 8576
2, 89888, Pitch_bend_c, 1, 8704
2, 89904, Pitch_bend_c, 1, 8832
2, 89920, Pitch_bend_c, 1, 8960
2, 89936, Pitch_bend_c, 1, 9088
2, 89952, Pitch_bend_c, 1, 9344
2, 89984, Pitch_bend_c, 1, 9472
2, 90000, Pitch_bend_c, 1, 9600
2, 90240, Note_off_c, 0, 62, 80
2, 90240, Note_off_c, 1, 60, 80
2, 90240, Pitch_bend_c, 1, 8192
2, 90240, Note_on_c, 0, 66, 95
2, 90480, Note_off_c, 0, 66, 80
2, 90480, Note_on_c, 0, 66, 95
2, 90720, Note_off_c, 0, 66, 80
2, 90720, Note_on_c, 0, 66, 95
2, 90960, Note_off_c, 0, 66, 80
2, 90960, Note_on_c, 1, 66, 95
2, 90960, Pitch_bend_c, 1, 8192
2, 90966, Pitch_bend_c, 1, 8192
2, 90971, Pitch_bend_c, 1, 8192
2, 90976, Pitch_bend_c, 1, 8192
2, 90982, Pitch_bend_c, 1, 8192
2, 90988, Pitch_bend_c, 1, 8192
2, 90993, Pitch_bend_c, 1, 8192
2, 90998, Pitch_bend_c, 1, 8192
2, 91004, Pitch_bend_c, 1, 8192
2, 91010, Pitch_bend_c, 1, 8192
2, 91015, Pitch_bend_c, 1, 8192
2, 91020, Pitch_bend_c, 1, 8192
2, 91026, Pitch_bend_c, 1, 8192
2, 91032, Pitch_bend_c, 1, 8192
2, 91037, Pitch_bend_c, 1, 8192
2, 91042, Pitch_bend_c, 1, 8192
2, 91048, Pitch_bend_c, 1, 8192
2, 91054, Pitch_bend_c, 1, 8192
2, 91059, Pitch_bend_c, 1, 8192
2, 91064, Pitch_bend_c, 1, 8192
2, 91070, Pitch_bend_c, 1, 8192
2, 91076, Pitch_bend_c, 1, 8192
2, 91081, Pitch_bend_c, 1, 8192
2, 91086, Pitch_bend_c, 1, 8192
2, 91092, Pitch_bend_c, 1, 8192
2, 91098, Pitch_bend_c, 1, 8192
2, 91103, Pitch_bend_c, 1, 8192
2, 91108, Pitch_bend_c, 1, 8192
2, 91114, Pitch_bend_c, 1, 8192
2, 91120, Pitch_bend_c, 1, 8192
2, 91125, Pitch_bend_c, 1, 8192
2, 91130, Pitch_bend_c, 1, 8192
2, 91136, Pitch_bend_c, 1, 8192
2, 91142, Pitch_bend_c, 1, 8192
2, 91147, Pitch_bend_c, 1, 8320
2, 91152, Pitch_bend_c, 1, 8320
2, 91158, Pitch_bend_c, 1, 8320
2, 91164, Pitch_bend_c, 1, 8320
2, 91169, Pitch_bend_c, 1, 8320
2, 91174, Pitch_bend_c, 1, 8320
2, 91180, Pitch_bend_c, 1, 8320
2, 91186, Pitch_bend_c, 1, 8320
2, 91191, Pitch_bend_c, 1, 8320
2, 91196, Pitch_bend_c, 1, 8320
2, 91202, Pitch_bend_c, 1, 8320
2, 91208, Pitch_bend_c, 1, 8320
2, 91213, Pitch_bend_c, 1, 8320
2, 91218, Pitch_bend_c, 1, 8192
2, 91224, Pitch_bend_c, 1, 8192
2, 91230, Pitch_bend_c, 1, 8192
2, 91235, Pitch_bend_c, 1, 8064
2, 91240, Pitch_bend_c, 1, 8064
2, 91246, Pitch_bend_c, 1, 8064
2, 91252, Pitch_bend_c, 1, 8064
2, 91257, Pitch_bend_c, 1, 8064
2, 91262, Pitch_bend_c, 1, 8064
2, 91268, Pitch_bend_c, 1, 8064
2, 91274, Pitch_bend_c, 1, 8064
2, 91279, Pitch_bend_c, 1, 8064
2, 91284, Pitch_bend_c, 1, 8064
2, 91290, Pitch_bend_c, 1, 8064
2, 91296, Pitch_bend_c, 1, 8064
2, 91301, Pitch_bend_c, 1, 8064
2, 91306, Pitch_bend_c, 1, 8192
2, 91312, Pitch_bend_c, 1, 8192
2, 91318, Pitch_bend_c, 1, 8192
2, 91323, Pitch_bend_c, 1, 8320
2, 91328, Pitch_bend_c, 1, 8320
2, 91334, Pitch_bend_c, 1, 8320
2, 91340, Pitch_bend_c, 1, 8320
2, 91345, Pitch_bend_c, 1, 8320
2, 91350, Pitch_bend_c, 1, 8320
2, 91356, Pitch_bend_c, 1, 8320
2, 91362, Pitch_bend_c, 1, 8320
2, 91367, Pitch_bend_c, 1, 8320
2, 91372, Pitch_bend_c, 1, 8320
2, 91378, Pitch_bend_c, 1, 8320
2, 91384, Pitch_bend_c, 1, 8320
2, 91389, Pitch_bend_c, 1, 8320
2, 91394, Pitch_bend_c, 1, 8192
2, 91400, Pitch_bend_c, 1, 8192
2, 91406, Pitch_bend_c, 1, 8192
2, 91411, Pitch_bend_c, 1, 8064
2, 91416, Pitch_bend_c, 1, 8064
2, 91422, Pitch_bend_c, 1, 8064
2, 91428, Pitch_bend_c, 1, 8064
2, 91433, Pitch_bend_c, 1, 8064
2, 91438, Pitch_bend_c, 1, 8064
2, 91440, Note_off_c, 1, 66, 80
2, 91440, Pitch_bend_c, 1, 8192
2, 91440, Note_on_c, 0, 66, 95
2, 91680, Note_off_c, 0, 66, 80
2, 91680, Note_on_c, 0, 66, 95
2, 91920, Note_off_c, 0, 66, 80
2, 91920, Note_on_c, 0, 66, 95
2, 92160, Note_off_c, 0, 66, 80
2, 92160, Note_on_c, 0, 64, 95
2, 92160, Note_on_c, 1, 62, 95
2, 92160, Pitch_bend_c, 1, 8192
2, 92208, Pitch_bend_c, 1, 8320
2, 92256, Pitch_bend_c, 1, 8448
2, 92272, Pitch_bend_c, 1, 8576
2, 92288, Pitch_bend_c, 1, 8704
2, 92304, Pitch_bend_c, 1, 8832
2, 92320, Pitch_bend_c, 1, 8960
2, 92336, Pitch_bend_c, 1, 9088
2, 92352, Pitch_bend_c, 1, 9344
2, 92384, Pitch_bend_c, 1, 9472
2, 92400, Pitch_bend_c, 1, 9600
2, 92640, Note_off_c, 0, 64, 80
2, 92640, Note_off_c, 1, 62, 80
2, 92640, Pitch_bend_c, 1, 8192
2, 92640, Note_on_c, 1, 60, 95
2, 92640, Pitch_bend_c, 1, 8192
2, 92688, Pitch_bend_c, 1, 8320
2, 92736, Pitch_bend_c, 1, 8448
2, 92752, Pitch_bend_c, 1, 8576
2, 92768, Pitch_bend_c, 1, 8704
2, 92784, Pitch_bend_c, 1, 8832
2, 92800, Pitch_bend_c, 1, 8960
2, 92816, Pitch_bend_c, 1, 9088
2, 92832, Pitch_bend_c, 1, 9344
2, 92864, Pitch_bend_c, 1, 9472
2, 92880, Pitch_bend_c, 1, 9600
2, 93120, Note_off_c, 1, 60, 80
2, 93120, Pitch_bend_c, 1, 8192
2, 93120, Note_on_c, 0, 61, 95
2, 93600, Note_off_c, 0, 61, 80
2, 93600, Note_on_c, 1, 59, 95
2, 93600, Pitch_bend_c, 1, 8192
2, 93648, Pitch_bend_c, 1, 8320
2, 93696, Pitch_bend_c, 1, 8448
2, 93712, Pitch_bend_c, 1, 8576
2, 93728, Pitch_bend_c, 1, 8704
2, 93744, Pitch_bend_c, 1, 8832
2, 93760, Pitch_bend_c, 1, 8960
2, 93776, Pitch_bend_c, 1, 9088
2, 93792, Pitch_bend_c, 1, 9344
2, 93824, Pitch_bend_c, 1, 9472
2, 93840, Pitch_bend_c, 1, 9600
2, 94080, Note_off_c, 1, 59, 80
2, 94080, Pitch_bend_c, 1, 8192
2, 94080, Note_on_c, 0, 64, 95
2, 94080, Note_on_c, 0, 61, 95
2, 94320, Note_off_c, 0, 64, 80
2, 94320, Note_off_c, 0, 61, 80
2, 94320, Note_on_c, 0, 64, 95
2, 94320, Note_on_c, 0, 61, 95
2, 94560, Note_off_c, 0, 64, 80
2, 94560, Note_off_c, 0, 61, 80
2, 94560, Note_on_c, 0, 64, 95
2, 94560, Note_on_c, 0, 61, 95
2, 94800, Note_off_c, 0, 64, 80
2, 94800, Note_off_c, 0, 61, 80
2, 94800, Note_on_c, 0, 66, 95
2, 94800, Note_on_c, 0, 62, 95
2, 95280, Note_off_c, 0, 66, 80
2, 95280, Note_off_c, 0, 62, 80
2, 95280, Note_on_c, 0, 66, 95
2, 95280, Note_on_c, 0, 62, 95
2, 95520, Note_off_c, 0, 66, 80
2, 95520, Note_off_c, 0, 62, 80
2, 95520, Note_on_c, 0, 66, 95
2, 95520, Note_on_c, 0, 62, 95
2, 95760, Note_off_c, 0, 66, 80
2, 95760, Note_off_c, 0, 62, 80
2, 95760, Note_on_c, 0, 66, 95
2, 95760, Note_on_c, 0, 62, 95
2, 96000, Note_off_c, 0, 66, 80
2, 96000, Note_off_c, 0, 62, 80
2, 96000, Note_on_c, 0, 64, 95
2, 96000, Note_on_c, 0, 61, 95
2, 96240, Note_off_c, 0, 64, 80
2, 96240, Note_off_c, 0, 61, 80
2, 96240, Note_on_c, 0, 64, 95
2, 96240, Note_on_c, 0, 61, 95
2, 96480, Note_off_c, 0, 64, 80
2, 96480, Note_off_c, 0, 61, 80
2, 96480, Note_on_c, 0, 64, 95
2, 96480, Note_on_c, 0, 61, 95
2, 96720, Note_off_c, 0, 64, 80
2, 96720, Note_off_c, 0, 61, 80
2, 96720, Note_on_c, 0, 66, 95
2, 96720, Note_on_c, 0, 62, 95
2, 97200, Note_off_c, 0, 66, 80
2, 97200, Note_off_c, 0, 62, 80
2, 97200, Note_on_c, 0, 66, 95
2, 97200, Note_on_c, 0, 62, 95
2, 97440, Note_off_c, 0, 66, 80
2, 97440, Note_off_c, 0, 62, 80
2, 97440, Note_on_c, 0, 66, 95
2, 97440, Note_on_c, 0, 62, 95
2, 97680, Note_off_c, 0, 66, 80
2, 97680, Note_off_c, 0, 62, 80
2, 97680, Note_on_c, 0, 66, 95
2, 97680, Note_on_c, 0, 62, 95
2, 97920, Note_off_c, 0, 66, 80
2, 97920, Note_off_c, 0, 62, 80
2, 97920, Note_on_c, 0, 64, 95
2, 97920, Note_on_c, 0, 61, 95
2, 98160, Note_off_c, 0, 64, 80
2, 98160, Note_off_c, 0, 61, 80
2, 98160, Note_on_c, 0, 64, 95
2, 98160, Note_on_c, 0, 61, 95
2, 98400, Note_off_c, 0, 64, 80
2, 98400, Note_off_c, 0, 61, 80
2, 98400, Note_on_c, 0, 64, 95
2, 98400, Note_on_c, 0, 61, 95
2, 98640, Note_off_c, 0, 64, 80
2, 98640, Note_off_c, 0, 61, 80
2, 98640, Note_on_c, 0, 66, 95
2, 98640, Note_on_c, 0, 62, 95
2, 99120, Note_off_c, 0, 66, 80
2, 99120, Note_off_c, 0, 62, 80
2, 99120, Note_on_c, 0, 66, 95
2, 99120, Note_on_c, 0, 62, 95
2, 99360, Note_off_c, 0, 66, 80
2, 99360, Note_off_c, 0, 62, 80
2, 99360, Note_on_c, 0, 66, 95
2, 99360, Note_on_c, 0, 62, 95
2, 99600, Note_off_c, 0, 66, 80
2, 99600, Note_off_c, 0, 62, 80
2, 99600, Note_on_c, 0, 66, 95
2, 99600, Note_on_c, 0, 62, 95
2, 99840, Note_off_c, 0, 66, 80
2, 99840, Note_off_c, 0, 62, 80
2, 99840, Note_on_c, 0, 64, 95
2, 99840, Note_on_c, 0, 59, 95
2, 100320, Note_off_c, 0, 64, 80
2, 100320, Note_off_c, 0, 59, 80
2, 100320, Note_on_c, 0, 64, 95
2, 100320, Note_on_c, 0, 61, 95
2, 100800, Note_off_c, 0, 64, 80
2, 100800, Note_off_c, 0, 61, 80
2, 100800, Note_on_c, 0, 64, 95
2, 100800, Note_on_c, 0, 61, 95
2, 101280, Note_off_c, 0, 64, 80
2, 101280, Note_off_c, 0, 61, 80
2, 101280, Note_on_c, 0, 64, 95
2, 101280, Note_on_c, 0, 64, 95
2, 101760, Note_off_c, 0, 64, 80
2, 101760, Note_off_c, 0, 64, 80
2, 101760, Note_on_c, 0, 66, 95
2, 101760, Note_on_c, 0, 62, 95
2, 103680, Note_off_c, 0, 66, 80
2, 103680, Note_off_c, 0, 62, 80
2, 103680, Note_on_c, 0, 59, 95
2, 105600, Note_off_c, 0, 59, 80
2, 105600, Note_on_c, 0, 62, 95
2, 107520, Note_off_c, 0, 62, 80
2, 107520, Note_on_c, 0, 52, 95
2, 107520, Note_on_c, 0, 47, 95
2, 107520, Note_on_c, 0, 40, 95
2, 108000, Note_off_c, 0, 52, 80
2, 108000, Note_off_c, 0, 47, 80
2, 108000, Note_off_c, 0, 40, 80
2, 108000, Note_on_c, 0, 54, 95
2, 108000, Note_on_c, 0, 49, 95
2, 108000, Note_on_c, 0, 42, 95
2, 108480, Note_off_c, 0, 54, 80
2, 108480, Note_off_c, 0, 49, 80
2, 108480, Note_off_c, 0, 42, 80
2, 108480, Note_on_c, 0, 54, 95
2, 108480, Note_on_c, 0, 49, 95
2, 108480, Note_on_c, 0, 42, 95
2, 108960, Note_off_c, 0, 54, 80
2, 108960, Note_off_c, 0, 49, 80
2, 108960, Note_off_c, 0, 42, 80
2, 108960, Note_on_c, 0, 57, 95
2, 108960, Note_on_c, 0, 52, 95
2, 108960, Note_on_c, 0, 45, 95
2, 109440, Note_off_c, 0, 57, 80
2, 109440, Note_off_c, 0, 52, 80
2, 109440, Note_off_c, 0, 45, 80
2, 109440, Note_on_c, 0, 62, 95
2, 109440, Note_on_c, 0, 57, 95
2, 109440, Note_on_c, 0, 50, 95
2, 110400, Note_off_c, 0, 62, 80
2, 110400, Note_off_c, 0, 57, 80
2, 111360, Note_off_c, 0, 50, 80
2, 111360, Note_on_c, 0, 47, 95
2, 113280, Note_off_c, 0, 47, 80
2, 113280, Note_on_c, 0, 50, 95
2, 115200, Note_off_c, 0, 50, 80
2, 115200, Note_on_c, 0, 52, 95
2, 115200, Note_on_c, 0, 47, 95
2, 115200, Note_on_c, 0, 40, 95
2, 115680, Note_off_c, 0, 52, 80
2, 115680, Note_off_c, 0, 47, 80
2, 115680, Note_off_c, 0, 40, 80
2, 115680, Note_on_c, 0, 54, 95
2, 115680, Note_on_c, 0, 49, 95
2, 115680, Note_on_c, 0, 42, 95
2, 116160, Note_off_c, 0, 54, 80
2, 116160, Note_off_c, 0, 49, 80
2, 116160, Note_off_c, 0, 42, 80
2, 116160, Note_on_c, 0, 54, 95
2, 116160, Note_on_c, 0, 49, 95
2, 116160, Note_on_c, 0, 42, 95
2, 116640, Note_off_c, 0, 54, 80
2, 116640, Note_off_c, 0, 49, 80
2, 116640, Note_off_c, 0, 42, 80
2, 116640, Note_on_c, 0, 57, 95
2, 116640, Note_on_c, 0, 52, 95
2, 116640, Note_on_c, 0, 45, 95
2, 117120, Note_off_c, 0, 57, 80
2, 117120, Note_off_c, 0, 52, 80
2, 117120, Note_off_c, 0, 45, 80
2, 117120, Note_on_c, 0, 62, 95
2, 117120, Note_on_c, 0, 57, 95
2, 117120, Note_on_c, 0, 50, 95
2, 118080, Note_off_c, 0, 62, 80
2, 118080, Note_off_c, 0, 57, 80
2, 119040, Note_off_c, 0, 50, 80
2, 119040, Note_on_c, 0, 47, 95
2, 120960, Note_off_c, 0, 47, 80
2, 120960, Note_on_c, 0, 50, 95
2, 122880, Note_off_c, 0, 50, 80
2, 122880, Note_on_c, 0, 52, 95
2, 122880, Note_on_c, 0, 47, 95
2, 122880, Note_on_c, 0, 40, 95
2, 123360, Note_off_c, 0, 52, 80
2, 123360, Note_off_c, 0, 47, 80
2, 123360, Note_off_c, 0, 40, 80
2, 123360, Note_on_c, 0, 54, 95
2, 123360, Note_on_c, 0, 49, 95
2, 123360, Note_on_c, 0, 42, 95
2, 123840, Note_off_c, 0, 54, 80
2, 123840, Note_off_c, 0, 49, 80
2, 123840, Note_off_c, 0, 42, 80
2, 123840, Note_on_c, 0, 54, 95
2, 123840, Note_on_c, 0, 49, 95
2, 123840, Note_on_c, 0, 42, 95
2, 124320, Note_off_c, 0, 54, 80
2, 124320, Note_off_c, 0, 49, 80
2, 124320, Note_off_c, 0, 42, 80
2, 124320, Note_on_c, 0, 57, 95
2, 124320, Note_on_c, 0, 52, 95
2, 124320, Note_on_c, 0, 45, 95
2, 124800, Note_off_c, 0, 57, 80
2, 124800, Note_off_c, 0, 52, 80
2, 124800, Note_off_c, 0, 45, 80
2, 124800, Note_on_c, 0, 62, 95
2, 124800, Note_on_c, 0, 57, 95
2, 124800, Note_on_c, 0, 50, 95
2, 125760, Note_off_c, 0, 62, 80
2, 125760, Note_off_c, 0, 57, 80
2, 126720, Note_off_c, 0, 50, 80
2, 126720, Note_on_c, 0, 47, 95
2, 128640, Note_off_c, 0, 47, 80
2, 128640, Note_on_c, 0, 50, 95
2, 130560, Note_off_c, 0, 50, 80
2, 130560, Note_on_c, 0, 52, 95
2, 130560, Note_on_c, 0, 47, 95
2, 130560, Note_on_c, 0, 40, 95
2, 131040, Note_off_c, 0, 52, 80
2, 131040, Note_off_c, 0, 47, 80
2, 131040, Note_off_c, 0, 40, 80
2, 131040, Note_on_c, 0, 54, 95
2, 131040, Note_on_c, 0, 49, 95
2, 131040, Note_on_c, 0, 42, 95
2, 131520, Note_off_c, 0, 54, 80
2, 131520, Note_off_c, 0, 49, 80
2, 131520, Note_off_c, 0, 42, 80
2, 131520, Note_on_c, 0, 54, 95
2, 131520, Note_on_c, 0, 49, 95
2, 131520, Note_on_c, 0, 42, 95
2, 132000, Note_off_c, 0, 54, 80
2, 132000, Note_off_c, 0, 49, 80
2, 132000, Note_off_c, 0, 42, 80
2, 132000, Note_on_c, 0, 57, 95
2, 132000, Note_on_c, 0, 52, 95
2, 132000, Note_on_c, 0, 45, 95
2, 132480, Note_off_c, 0, 57, 80
2, 132480, Note_off_c, 0, 52, 80
2, 132480, Note_off_c, 0, 45, 80
2, 132480, Note_on_c, 0, 62, 95
2, 132480, Note_on_c, 0, 57, 95
2, 132480, Note_on_c, 0, 50, 95
2, 133440, Note_off_c, 0, 62, 80
2, 133440, Note_off_c, 0, 57, 80
2, 134400, Note_off_c, 0, 50, 80
2, 134400, Note_on_c, 0, 47, 95
2, 136320, Note_off_c, 0, 47, 80
2, 136320, Note_on_c, 0, 50, 95
2, 138240, Note_off_c, 0, 50, 80
2, 138240, Note_on_c, 0, 64, 95
2, 138240, Note_on_c, 1, 62, 95
2, 138240, Pitch_bend_c, 1, 8192
2, 138288, Pitch_bend_c, 1, 8320
2, 138336, Pitch_bend_c, 1, 8448
2, 138352, Pitch_bend_c, 1, 8576
2, 138368, Pitch_bend_c, 1, 8704
2, 138384, Pitch_bend_c, 1, 8832
2, 138400, Pitch_bend_c, 1, 8960
2, 138416, Pitch_bend_c, 1, 9088
2, 138432, Pitch_bend_c, 1, 9344
2, 138464, Pitch_bend_c, 1, 9472
2, 138480, Pitch_bend_c, 1, 9600
2, 138720, Note_off_c, 0, 64, 80
2, 138720, Note_off_c, 1, 62, 80
2, 138720, Pitch_bend_c, 1, 8192
2, 138720, Note_on_c, 1, 60, 95
2, 138720, Pitch_bend_c, 1, 8192
2, 138768, Pitch_bend_c, 1, 8320
2, 138816, Pitch_bend_c, 1, 8448
2, 138832, Pitch_bend_c, 1, 8576
2, 138848, Pitch_bend_c, 1, 8704
2, 138864, Pitch_bend_c, 1, 8832
2, 138880, Pitch_bend_c, 1, 8960
2, 138896, Pitch_bend_c, 1, 9088
2, 138912, Pitch_bend_c, 1, 9344
2, 138944, Pitch_bend_c, 1, 9472
2, 138960, Pitch_bend_c, 1, 9600
2, 139200, Note_off_c, 1, 60, 80
2, 139200, Pitch_bend_c, 1, 8192
2, 139200, Note_on_c, 0, 61, 95
2, 139680, Note_off_c, 0, 61, 80
2, 139680, Note_on_c, 1, 59, 95
2, 139680, Pitch_bend_c, 1, 8192
2, 139728, Pitch_bend_c, 1, 8320
2, 139776, Pitch_bend_c, 1, 8448
2, 139792, Pitch_bend_c, 1, 8576
2, 139808, Pitch_bend_c, 1, 8704
2, 139824, Pitch_bend_c, 1, 8832
2, 139840, Pitch_bend_c, 1, 8960
2, 139856, Pitch_bend_c, 1, 9088
2, 139872, Pitch_bend_c, 1, 9344
2, 139904, Pitch_bend_c, 1, 9472
2, 139920, Pitch_bend_c, 1, 9600
2, 140160, Note_off_c, 1, 59, 80
2, 140160, Pitch_bend_c, 1, 8192
2, 140160, Note_on_c, 0, 64, 95
2, 140160, Note_on_c, 0, 61, 95
2, 140400, Note_off_c, 0, 64, 80
2, 140400, Note_off_c, 0, 61, 80
2, 140400, Note_on_c, 0, 64, 95
2, 140400, Note_on_c, 0, 61, 95
2, 140640, Note_off_c, 0, 64, 80
2, 140640, Note_off_c, 0, 61, 80
2, 140640, Note_on_c, 0, 64, 95
2, 140640, Note_on_c, 0, 61, 95
2, 140880, Note_off_c, 0, 64, 80
2, 140880, Note_off_c, 0, 61, 80
2, 140880, Note_on_c, 0, 66, 95
2, 140880, Note_on_c, 0, 62, 95
2, 141360, Note_off_c, 0, 66, 80
2, 141360, Note_off_c, 0, 62, 80
2, 141360, Note_on_c, 0, 66, 95
2, 141360, Note_on_c, 0, 62, 95
2, 141600, Note_off_c, 0, 66, 80
2, 141600, Note_off_c, 0, 62, 80
2, 141600, Note_on_c, 0, 66, 95
2, 141600, Note_on_c, 0, 62, 95
2, 141840, Note_off_c, 0, 66, 80
2, 141840, Note_off_c, 0, 62, 80
2, 141840, Note_on_c, 0, 66, 95
2, 141840, Note_on_c, 0, 62, 95
2, 142080, Note_off_c, 0, 66, 80
2, 142080, Note_off_c, 0, 62, 80
2, 142080, Note_on_c, 0, 64, 95
2, 142080, Note_on_c, 0, 61, 95
2, 142320, Note_off_c, 0, 64, 80
2, 142320, Note_off_c, 0, 61, 80
2, 142320, Note_on_c, 0, 64, 95
2, 142320, Note_on_c, 0, 61, 95
2, 142560, Note_off_c, 0, 64, 80
2, 142560, Note_off_c, 0, 61, 80
2, 142560, Note_on_c, 0, 64, 95
2, 142560, Note_on_c, 0, 61, 95
2, 142800, Note_off_c, 0, 64, 80
2, 142800, Note_off_c, 0, 61, 80
2, 142800, Note_on_c, 0, 66, 95
2, 142800, Note_on_c, 0, 62, 95
2, 143280, Note_off_c, 0, 66, 80
2, 143280, Note_off_c, 0, 62, 80
2, 143280, Note_on_c, 0, 66, 95
2, 143280, Note_on_c, 0, 62, 95
2, 143520, Note_off_c, 0, 66, 80
2, 143520, Note_off_c, 0, 62, 80
2, 143520, Note_on_c, 0, 66, 95
2, 143520, Note_on_c, 0, 62, 95
2, 143760, Note_off_c, 0, 66, 80
2, 143760, Note_off_c, 0, 62, 80
2, 143760, Note_on_c, 0, 66, 95
2, 143760, Note_on_c, 0, 62, 95
2, 144000, Note_off_c, 0, 66, 80
2, 144000, Note_off_c, 0, 62, 80
2, 144000, Note_on_c, 0, 64, 95
2, 144000, Note_on_c, 0, 61, 95
2, 144240, Note_off_c, 0, 64, 80
2, 144240, Note_off_c, 0, 61, 80
2, 144240, Note_on_c, 0, 64, 95
2, 144240, Note_on_c, 0, 61, 95
2, 144480, Note_off_c, 0, 64, 80
2, 144480, Note_off_c, 0, 61, 80
2, 144480, Note_on_c, 0, 64, 95
2, 144480, Note_on_c, 0, 61, 95
2, 144720, Note_off_c, 0, 64, 80
2, 144720, Note_off_c, 0, 61, 80
2, 144720, Note_on_c, 0, 66, 95
2, 144720, Note_on_c, 0, 62, 95
2, 145200, Note_off_c, 0, 66, 80
2, 145200, Note_off_c, 0, 62, 80
2, 145200, Note_on_c, 0, 66, 95
2, 145200, Note_on_c, 0, 62, 95
2, 145440, Note_off_c, 0, 66, 80
2, 145440, Note_off_c, 0, 62, 80
2, 145440, Note_on_c, 0, 66, 95
2, 145440, Note_on_c, 0, 62, 95
2, 145680, Note_off_c, 0, 66, 80
2, 145680, Note_off_c, 0, 62, 80
2, 145680, Note_on_c, 0, 66, 95
2, 145680, Note_on_c, 0, 62, 95
2, 145920, Note_off_c, 0, 66, 80
2, 145920, Note_off_c, 0, 62, 80
2, 145920, Note_on_c, 0, 64, 95
2, 145920, Note_on_c, 1, 62, 95
2, 145920, Pitch_bend_c, 1, 8192
2, 145968, Pitch_bend_c, 1, 8320
2, 146016, Pitch_bend_c, 1, 8448
2, 146032, Pitch_bend_c, 1, 8576
2, 146048, Pitch_bend_c, 1, 8704
2, 146064, Pitch_bend_c, 1, 8832
2, 146080, Pitch_bend_c, 1, 8960
2, 146096, Pitch_bend_c, 1, 9088
2, 146112, Pitch_bend_c, 1, 9344
2, 146144, Pitch_bend_c, 1, 9472
2, 146160, Pitch_bend_c, 1, 9600
2, 146400, Note_off_c, 0, 64, 80
2, 146400, Note_off_c, 1, 62, 80
2, 146400, Pitch_bend_c, 1, 8192
2, 146400, Note_on_c, 1, 60, 95
2, 146400, Pitch_bend_c, 1, 8192
2, 146448, Pitch_bend_c, 1, 8320
2, 146496, Pitch_bend_c, 1, 8448
2, 146512, Pitch_bend_c, 1, 8576
2, 146528, Pitch_bend_c, 1, 8704
2, 146544, Pitch_bend_c, 1, 8832
2, 146560, Pitch_bend_c, 1, 8960
2, 146576, Pitch_bend_c, 1, 9088
2, 146592, Pitch_bend_c, 1, 9344
2, 146624, Pitch_bend_c, 1, 9472
2, 146640, Pitch_bend_c, 1, 9600
2, 146880, Note_off_c, 1, 60, 80
2, 146880, Pitch_bend_c, 1, 8192
2, 146880, Note_on_c, 0, 61, 95
2, 147360, Note_off_c, 0, 61, 80
2, 147360, Note_on_c, 1, 59, 95
2, 147360, Pitch_bend_c, 1, 8192
2, 147408, Pitch_bend_c, 1, 8320
2, 147456, Pitch_bend_c, 1, 8448
2, 147472, Pitch_bend_c, 1, 8576
2, 147488, Pitch_bend_c, 1, 8704
2, 147504, Pitch_bend_c, 1, 8832
2, 147520, Pitch_bend_c, 1, 8960
2, 147536, Pitch_bend_c, 1, 9088
2, 147552, Pitch_bend_c, 1, 9344
2, 147584, Pitch_bend_c, 1, 9472
2, 147600, Pitch_bend_c, 1, 9600
2, 147840, Note_off_c, 1, 59, 80
2, 147840, Pitch_bend_c, 1, 8192
2, 147840, Note_on_c, 0, 64, 95
2, 147840, Note_on_c, 0, 61, 95
2, 148080, Note_off_c, 0, 64, 80
2, 148080, Note_off_c, 0, 61, 80
2, 148080, Note_on_c, 0, 64, 95
2, 148080, Note_on_c, 0, 61, 95
2, 148320, Note_off_c, 0, 64, 80
2, 148320, Note_off_c, 0, 61, 80
2, 148320, Note_on_c, 0, 64, 95
2, 148320, Note_on_c, 0, 61, 95
2, 148560, Note_off_c, 0, 64, 80
2, 148560, Note_off_c, 0, 61, 80
2, 148560, Note_on_c, 0, 66, 95
2, 148560, Note_on_c, 0, 62, 95
2, 149040, Note_off_c, 0, 66, 80
2, 149040, Note_off_c, 0, 62, 80
2, 149040, Note_on_c, 0, 66, 95
2, 149040, Note_on_c, 0, 62, 95
2, 149280, Note_off_c, 0, 66, 80
2, 149280, Note_off_c, 0, 62, 80
2, 149280, Note_on_c, 0, 66, 95
2, 149280, Note_on_c, 0, 62, 95
2, 149520, Note_off_c, 0, 66, 80
2, 149520, Note_off_c, 0, 62, 80
2, 149520, Note_on_c, 0, 66, 95
2, 149520, Note_on_c, 0, 62, 95
2, 149760, Note_off_c, 0, 66, 80
2, 149760, Note_off_c, 0, 62, 80
2, 149760, Note_on_c, 0, 64, 95
2, 149760, Note_on_c, 0, 61, 95
2, 150000, Note_off_c, 0, 64, 80
2, 150000, Note_off_c, 0, 61, 80
2, 150000, Note_on_c, 0, 64, 95
2, 150000, Note_on_c, 0, 61, 95
2, 150240, Note_off_c, 0, 64, 80
2, 150240, Note_off_c, 0, 61, 80
2, 150240, Note_on_c, 0, 64, 95
2, 150240, Note_on_c, 0, 61, 95
2, 150480, Note_off_c, 0, 64, 80
2, 150480, Note_off_c, 0, 61, 80
2, 150480, Note_on_c, 0, 66, 95
2, 150480, Note_on_c, 0, 62, 95
2, 150960, Note_off_c, 0, 66, 80
2, 150960, Note_off_c, 0, 62, 80
2, 150960, Note_on_c, 0, 66, 95
2, 150960, Note_on_c, 0, 62, 95
2, 151200, Note_off_c, 0, 66, 80
2, 151200, Note_off_c, 0, 62, 80
2, 151200, Note_on_c, 0, 66, 95
2, 151200, Note_on_c, 0, 62, 95
2, 151440, Note_off_c, 0, 66, 80
2, 151440, Note_off_c, 0, 62, 80
2, 151440, Note_on_c, 0, 66, 95
2, 151440, Note_on_c, 0, 62, 95
2, 151680, Note_off_c, 0, 66, 80
2, 151680, Note_off_c, 0, 62, 80
2, 151680, Note_on_c, 0, 66, 95
2, 151680, Note_on_c, 1, 64, 95
2, 151680, Pitch_bend_c, 1, 8192
2, 151712, Pitch_bend_c, 1, 8320
2, 151728, Pitch_bend_c, 1, 8448
2, 151744, Pitch_bend_c, 1, 8704
2, 151760, Pitch_bend_c, 1, 8960
2, 151776, Pitch_bend_c, 1, 9344
2, 151792, Pitch_bend_c, 1, 9472
2, 151808, Pitch_bend_c, 1, 9600
2, 151920, Note_off_c, 0, 66, 80
2, 151920, Note_off_c, 1, 64, 80
2, 151920, Pitch_bend_c, 1, 8192
2, 151920, Note_on_c, 0, 66, 95
2, 151920, Note_on_c, 1, 64, 95
2, 151920, Pitch_bend_c, 1, 8192
2, 151952, Pitch_bend_c, 1, 8320
2, 151968, Pitch_bend_c, 1, 8448
2, 151984, Pitch_bend_c, 1, 8704
2, 152000, Pitch_bend_c, 1, 8960
2, 152016, Pitch_bend_c, 1, 9344
2, 152032, Pitch_bend_c, 1, 9472
2, 152048, Pitch_bend_c, 1, 9600
2, 152160, Note_off_c, 0, 66, 80
2, 152160, Note_off_c, 1, 64, 80
2, 152160, Pitch_bend_c, 1, 8192
2, 152160, Note_on_c, 0, 66, 95
2, 152160, Note_on_c, 1, 64, 95
2, 152160, Pitch_bend_c, 1, 8192
2, 152192, Pitch_bend_c, 1, 8320
2, 152208, Pitch_bend_c, 1, 8448
2, 152224, Pitch_bend_c, 1, 8704
2, 152240, Pitch_bend_c, 1, 8960
2, 152256, Pitch_bend_c, 1, 9344
2, 152272, Pitch_bend_c, 1, 9472
2, 152288, Pitch_bend_c, 1, 9600
2, 152400, Note_off_c, 0, 66, 80
2, 152400, Note_off_c, 1, 64, 80
2, 152400, Pitch_bend_c, 1, 8192
2, 152400, Note_on_c, 0, 66, 95
2, 152400, Note_on_c, 1, 64, 95
2, 152400, Pitch_bend_c, 1, 8192
2, 152448, Pitch_bend_c, 1, 8320
2, 152496, Pitch_bend_c, 1, 8448
2, 152512, Pitch_bend_c, 1, 8576
2, 152528, Pitch_bend_c, 1, 8704
2, 152544, Pitch_bend_c, 1, 8832
2, 152560, Pitch_bend_c, 1, 8960
2, 152576, Pitch_bend_c, 1, 9088
2, 152592, Pitch_bend_c, 1, 9344
2, 152624, Pitch_bend_c, 1, 9472
2, 152640, Pitch_bend_c, 1, 9600
2, 152880, Note_off_c, 0, 66, 80
2, 152880, Note_off_c, 1, 64, 80
2, 152880, Pitch_bend_c, 1, 8192
2, 152880, Note_on_c, 0, 66, 95
2, 152880, Note_on_c, 1, 64, 95
2, 152880, Pitch_bend_c, 1, 8192
2, 152912, Pitch_bend_c, 1, 8320
2, 152928, Pitch_bend_c, 1, 8448
2, 152944, Pitch_bend_c, 1, 8704
2, 152960, Pitch_bend_c, 1, 8960
2, 152976, Pitch_bend_c, 1, 9344
2, 152992, Pitch_bend_c, 1, 9472
2, 153008, Pitch_bend_c, 1, 9600
2, 153120, Note_off_c, 0, 66, 80
2, 153120, Note_off_c, 1, 64, 80
2, 153120, Pitch_bend_c, 1, 8192
2, 153120, Note_on_c, 0, 66, 95
2, 153120, Note_on_c, 1, 64, 95
2, 153120, Pitch_bend_c, 1, 8192
2, 153152, Pitch_bend_c, 1, 8320
2, 153168, Pitch_bend_c, 1, 8448
2, 153184, Pitch_bend_c, 1, 8704
2, 153200, Pitch_bend_c, 1, 8960
2, 153216, Pitch_bend_c, 1, 9344
2, 153232, Pitch_bend_c, 1, 9472
2, 153248, Pitch_bend_c, 1, 9600
2, 153360, Note_off_c, 0, 66, 80
2, 153360, Note_off_c, 1, 64, 80
2, 153360, Pitch_bend_c, 1, 8192
2, 153360, Note_on_c, 0, 66, 95
2, 153360, Note_on_c, 1, 64, 95
2, 153360, Pitch_bend_c, 1, 8192
2, 153392, Pitch_bend_c, 1, 8320
2, 153408, Pitch_bend_c, 1, 8448
2, 153424, Pitch_bend_c, 1, 8704
2, 153440, Pitch_bend_c, 1, 8960
2, 153456, Pitch_bend_c, 1, 9344
2, 153472, Pitch_bend_c, 1, 9472
2, 153488, Pitch_bend_c, 1, 9600
2, 153600, Note_off_c, 0, 66, 80
2, 153600, Note_off_c, 1, 64, 80
2, 153600, Pitch_bend_c, 1, 8192
2, 153600, Note_on_c, 0, 52, 95
2, 153600, Note_on_c, 0, 47, 95
2, 153600, Note_on_c, 0, 40, 95
2, 154080, Note_off_c, 0, 52, 80
2, 154080, Note_off_c, 0, 47, 80
2, 154080, Note_off_c, 0, 40, 80
2, 154080, Note_on_c, 0, 54, 95
2, 154080, Note_on_c, 0, 49, 95
2, 154080, Note_on_c, 0, 42, 95
2, 154560, Note_off_c, 0, 54, 80
2, 154560, Note_off_c, 0, 49, 80
2, 154560, Note_off_c, 0, 42, 80
2, 154560, Note_on_c, 0, 54, 95
2, 154560, Note_on_c, 0, 49, 95
2, 154560, Note_on_c, 0, 42, 95
2, 155040, Note_off_c, 0, 54, 80
2, 155040, Note_off_c, 0, 49, 80
2, 155040, Note_off_c, 0, 42, 80
2, 155040, Note_on_c, 0, 57, 95
2, 155040, Note_on_c, 0, 52, 95
2, 155040, Note_on_c, 0, 45, 95
2, 155520, Note_off_c, 0, 57, 80
2, 155520, Note_off_c, 0, 52, 80
2, 155520, Note_off_c, 0, 45, 80
2, 155520, Note_on_c, 0, 62, 95
2, 155520, Note_on_c, 0, 57, 95
2, 155520, Note_on_c, 0, 50, 95
2, 157440, Note_off_c, 0, 62, 80
2, 157440, Note_off_c, 0, 57, 80
2, 157440, Note_off_c, 0, 50, 80
2, 157440, End_track
3, 0, Start_track
3, 0, Title_t, "Guitare 2 (Violoncelle)"
3, 0, Control_c, 3, 100, 0
3, 0, Control_c, 3, 101, 0
3, 0, Control_c, 3, 6, 12
3, 0, Pitch_bend_c, 3, 8192
3, 0, Control_c, 3, 101, 0
3, 0, Control_c, 3, 100, 1
3, 0, Control_c, 3, 6, 64
3, 0, Control_c, 3, 38, 0
3, 0, Control_c, 3, 101, 127
3, 0, Control_c, 3, 100, 127
3, 0, Control_c, 2, 100, 0
3, 0, Control_c, 2, 101, 0
3, 0, Control_c, 2, 6, 12
3, 0, Pitch_bend_c, 2, 8192
3, 0, Control_c, 2, 101, 0
3, 0, Control_c, 2, 100, 1
3, 0, Control_c, 2, 6, 64
3, 0, Control_c, 2, 38, 0
3, 0, Control_c, 2, 101, 127
3, 0, Control_c, 2, 100, 127
3, 0, Control_c, 3, 101, 0
3, 0, Control_c, 3, 100, 2
3, 0, Control_c, 3, 6, 64
3, 0, Control_c, 3, 101, 127
3, 0, Control_c, 3, 100, 127
3, 0, Control_c, 2, 101, 0
3, 0, Control_c, 2, 100, 2
3, 0, Control_c, 2, 6, 64
3, 0, Control_c, 2, 101, 127
3, 0, Control_c, 2, 100, 127
3, 0, Program_c, 3, 27
3, 0, Program_c, 2, 27
3, 0, Control_c, 3, 0, 0
3, 0, Control_c, 2, 0, 0
3, 0, Control_c, 3, 7, 104
3, 0, Control_c, 2, 7, 104
3, 0, Control_c, 3, 10, 64
3, 0, Control_c, 2, 10, 64
3, 0, Control_c, 3, 93, 0
3, 0, Control_c, 2, 93, 0
3, 0, Control_c, 3, 91, 0
3, 0, Control_c, 2, 91, 0
3, 0, Control_c, 3, 92, 0
3, 0, Control_c, 2, 92, 0
3, 0, Control_c, 3, 95, 0
3, 0, Control_c, 2, 95, 0
3, 0, Program_c, 2, 28
3, 0, Program_c, 3, 28
3, 0, Note_on_c, 2, 52, 95
3, 0, Note_on_c, 2, 47, 95
3, 0, Note_on_c, 2, 40, 95
3, 240, Note_off_c, 2, 52, 80
3, 240, Note_off_c, 2, 47, 80
3, 240, Note_off_c, 2, 40, 80
3, 240, Note_on_c, 2, 52, 95
3, 240, Note_on_c, 2, 47, 95
3, 240, Note_on_c, 2, 40, 95
3, 480, Note_off_c, 2, 52, 80
3, 480, Note_off_c, 2, 47, 80
3, 480, Note_off_c, 2, 40, 80
3, 480, Note_on_c, 2, 54, 95
3, 480, Note_on_c, 2, 49, 95
3, 480, Note_on_c, 2, 42, 95
3, 720, Note_off_c, 2, 54, 80
3, 720, Note_off_c, 2, 49, 80
3, 720, Note_off_c, 2, 42, 80
3, 720, Note_on_c, 2, 54, 95
3, 720, Note_on_c, 2, 49, 95
3, 720, Note_on_c, 2, 42, 95
3, 960, Note_off_c, 2, 54, 80
3, 960, Note_off_c, 2, 49, 80
3, 960, Note_off_c, 2, 42, 80
3, 960, Note_on_c, 2, 54, 95
3, 960, Note_on_c, 2, 49, 95
3, 960, Note_on_c, 2, 42, 95
3, 1200, Note_off_c, 2, 54, 80
3, 1200, Note_off_c, 2, 49, 80
3, 1200, Note_off_c, 2, 42, 80
3, 1200, Note_on_c, 2, 54, 95
3, 1200, Note_on_c, 2, 49, 95
3, 1200, Note_on_c, 2, 42, 95
3, 1440, Note_off_c, 2, 54, 80
3, 1440, Note_off_c, 2, 49, 80
3, 1440, Note_off_c, 2, 42, 80
3, 1440, Note_on_c, 2, 57, 95
3, 1440, Note_on_c, 2, 52, 95
3, 1440, Note_on_c, 2, 45, 95
3, 1680, Note_off_c, 2, 57, 80
3, 1680, Note_off_c, 2, 52, 80
3, 1680, Note_off_c, 2, 45, 80
3, 1680, Note_on_c, 2, 57, 95
3, 1680, Note_on_c, 2, 52, 95
3, 1680, Note_on_c, 2, 45, 95
3, 1920, Note_off_c, 2, 57, 80
3, 1920, Note_off_c, 2, 52, 80
3, 1920, Note_off_c, 2, 45, 80
3, 1920, Program_c, 2, 29
3, 1920, Program_c, 3, 29
3, 1920, Note_on_c, 2, 50, 95
3, 3840, Note_off_c, 2, 50, 80
3, 3840, Note_on_c, 2, 47, 95
3, 5760, Note_off_c, 2, 47, 80
3, 5760, Note_on_c, 2, 50, 95
3, 7680, Note_off_c, 2, 50, 80
3, 15360, Program_c, 2, 28
3, 15360, Program_c, 3, 28
3, 15360, Note_on_c, 2, 52, 95
3, 15360, Note_on_c, 2, 47, 95
3, 15360, Note_on_c, 2, 40, 95
3, 15600, Note_off_c, 2, 52, 80
3, 15600, Note_off_c, 2, 47, 80
3, 15600, Note_off_c, 2, 40, 80
3, 15600, Note_on_c, 2, 52, 95
3, 15600, Note_on_c, 2, 47, 95
3, 15600, Note_on_c, 2, 40, 95
3, 15840, Note_off_c, 2, 52, 80
3, 15840, Note_off_c, 2, 47, 80
3, 15840, Note_off_c, 2, 40, 80
3, 15840, Note_on_c, 2, 54, 95
3, 15840, Note_on_c, 2, 49, 95
3, 15840, Note_on_c, 2, 42, 95
3, 16080, Note_off_c, 2, 54, 80
3, 16080, Note_off_c, 2, 49, 80
3, 16080, Note_off_c, 2, 42, 80
3, 16080, Note_on_c, 2, 54, 95
3, 16080, Note_on_c, 2, 49, 95
3, 16080, Note_on_c, 2, 42, 95
3, 16320, Note_off_c, 2, 54, 80
3, 16320, Note_off_c, 2, 49, 80
3, 16320, Note_off_c, 2, 42, 80
3, 16320, Note_on_c, 2, 54, 95
3, 16320, Note_on_c, 2, 49, 95
3, 16320, Note_on_c, 2, 42, 95
3, 16560, Note_off_c, 2, 54, 80
3, 16560, Note_off_c, 2, 49, 80
3, 16560, Note_off_c, 2, 42, 80
3, 16560, Note_on_c, 2, 54, 95
3, 16560, Note_on_c, 2, 49, 95
3, 16560, Note_on_c, 2, 42, 95
3, 16800, Note_off_c, 2, 54, 80
3, 16800, Note_off_c, 2, 49, 80
3, 16800, Note_off_c, 2, 42, 80
3, 16800, Note_on_c, 2, 57, 95
3, 16800, Note_on_c, 2, 52, 95
3, 16800, Note_on_c, 2, 45, 95
3, 17040, Note_off_c, 2, 57, 80
3, 17040, Note_off_c, 2, 52, 80
3, 17040, Note_off_c, 2, 45, 80
3, 17040, Note_on_c, 2, 57, 95
3, 17040, Note_on_c, 2, 52, 95
3, 17040, Note_on_c, 2, 45, 95
3, 17280, Note_off_c, 2, 57, 80
3, 17280, Note_off_c, 2, 52, 80
3, 17280, Note_off_c, 2, 45, 80
3, 17280, Program_c, 2, 29
3, 17280, Program_c, 3, 29
3, 17280, Note_on_c, 2, 50, 95
3, 19200, Note_off_c, 2, 50, 80
3, 19200, Note_on_c, 2, 47, 95
3, 21120, Note_off_c, 2, 47, 80
3, 21120, Note_on_c, 2, 50, 95
3, 23040, Note_off_c, 2, 50, 80
3, 23040, Program_c, 2, 28
3, 23040, Program_c, 3, 28
3, 23040, Note_on_c, 2, 52, 95
3, 23040, Note_on_c, 2, 47, 95
3, 23040, Note_on_c, 2, 40, 95
3, 23280, Note_off_c, 2, 52, 80
3, 23280, Note_off_c, 2, 47, 80
3, 23280, Note_off_c, 2, 40, 80
3, 23280, Note_on_c, 2, 52, 95
3, 23280, Note_on_c, 2, 47, 95
3, 23280, Note_on_c, 2, 40, 95
3, 23520, Note_off_c, 2, 52, 80
3, 23520, Note_off_c, 2, 47, 80
3, 23520, Note_off_c, 2, 40, 80
3, 23520, Note_on_c, 2, 54, 95
3, 23520, Note_on_c, 2, 49, 95
3, 23520, Note_on_c, 2, 42, 95
3, 23760, Note_off_c, 2, 54, 80
3, 23760, Note_off_c, 2, 49, 80
3, 23760, Note_off_c, 2, 42, 80
3, 23760, Note_on_c, 2, 54, 95
3, 23760, Note_on_c, 2, 49, 95
3, 23760, Note_on_c, 2, 42, 95
3, 24000, Note_off_c, 2, 54, 80
3, 24000, Note_off_c, 2, 49, 80
3, 24000, Note_off_c, 2, 42, 80
3, 24000, Note_on_c, 2, 54, 95
3, 24000, Note_on_c, 2, 49, 95
3, 24000, Note_on_c, 2, 42, 95
3, 24240, Note_off_c, 2, 54, 80
3, 24240, Note_off_c, 2, 49, 80
3, 24240, Note_off_c, 2, 42, 80
3, 24240, Note_on_c, 2, 54, 95
3, 24240, Note_on_c, 2, 49, 95
3, 24240, Note_on_c, 2, 42, 95
3, 24480, Note_off_c, 2, 54, 80
3, 24480, Note_off_c, 2, 49, 80
3, 24480, Note_off_c, 2, 42, 80
3, 24480, Note_on_c, 2, 57, 95
3, 24480, Note_on_c, 2, 52, 95
3, 24480, Note_on_c, 2, 45, 95
3, 24720, Note_off_c, 2, 57, 80
3, 24720, Note_off_c, 2, 52, 80
3, 24720, Note_off_c, 2, 45, 80
3, 24720, Note_on_c, 2, 57, 95
3, 24720, Note_on_c, 2, 52, 95
3, 24720, Note_on_c, 2, 45, 95
3, 24960, Note_off_c, 2, 57, 80
3, 24960, Note_off_c, 2, 52, 80
3, 24960, Note_off_c, 2, 45, 80
3, 24960, Note_on_c, 2, 62, 95
3, 24960, Note_on_c, 2, 57, 95
3, 24960, Note_on_c, 2, 50, 95
3, 26880, Note_off_c, 2, 62, 80
3, 26880, Note_off_c, 2, 57, 80
3, 26880, Note_off_c, 2, 50, 80
3, 26880, Note_on_c, 2, 59, 95
3, 26880, Note_on_c, 2, 54, 95
3, 26880, Note_on_c, 2, 47, 95
3, 28800, Note_off_c, 2, 59, 80
3, 28800, Note_off_c, 2, 54, 80
3, 28800, Note_off_c, 2, 47, 80
3, 28800, Note_on_c, 2, 62, 95
3, 28800, Note_on_c, 2, 57, 95
3, 28800, Note_on_c, 2, 50, 95
3, 30720, Note_off_c, 2, 62, 80
3, 30720, Note_off_c, 2, 57, 80
3, 30720, Note_off_c, 2, 50, 80
3, 30720, Program_c, 2, 28
3, 30720, Program_c, 3, 28
3, 30720, Note_on_c, 2, 52, 95
3, 30720, Note_on_c, 2, 47, 95
3, 30720, Note_on_c, 2, 40, 95
3, 30960, Note_off_c, 2, 52, 80
3, 30960, Note_off_c, 2, 47, 80
3, 30960, Note_off_c, 2, 40, 80
3, 30960, Note_on_c, 2, 52, 95
3, 30960, Note_on_c, 2, 47, 95
3, 30960, Note_on_c, 2, 40, 95
3, 31200, Note_off_c, 2, 52, 80
3, 31200, Note_off_c, 2, 47, 80
3, 31200, Note_off_c, 2, 40, 80
3, 31200, Note_on_c, 2, 54, 95
3, 31200, Note_on_c, 2, 49, 95
3, 31200, Note_on_c, 2, 42, 95
3, 31440, Note_off_c, 2, 54, 80
3, 31440, Note_off_c, 2, 49, 80
3, 31440, Note_off_c, 2, 42, 80
3, 31440, Note_on_c, 2, 54, 95
3, 31440, Note_on_c, 2, 49, 95
3, 31440, Note_on_c, 2, 42, 95
3, 31680, Note_off_c, 2, 54, 80
3, 31680, Note_off_c, 2, 49, 80
3, 31680, Note_off_c, 2, 42, 80
3, 31680, Note_on_c, 2, 54, 95
3, 31680, Note_on_c, 2, 49, 95
3, 31680, Note_on_c, 2, 42, 95
3, 31920, Note_off_c, 2, 54, 80
3, 31920, Note_off_c, 2, 49, 80
3, 31920, Note_off_c, 2, 42, 80
3, 31920, Note_on_c, 2, 54, 95
3, 31920, Note_on_c, 2, 49, 95
3, 31920, Note_on_c, 2, 42, 95
3, 32160, Note_off_c, 2, 54, 80
3, 32160, Note_off_c, 2, 49, 80
3, 32160, Note_off_c, 2, 42, 80
3, 32160, Note_on_c, 2, 57, 95
3, 32160, Note_on_c, 2, 52, 95
3, 32160, Note_on_c, 2, 45, 95
3, 32400, Note_off_c, 2, 57, 80
3, 32400, Note_off_c, 2, 52, 80
3, 32400, Note_off_c, 2, 45, 80
3, 32400, Note_on_c, 2, 57, 95
3, 32400, Note_on_c, 2, 52, 95
3, 32400, Note_on_c, 2, 45, 95
3, 32640, Note_off_c, 2, 57, 80
3, 32640, Note_off_c, 2, 52, 80
3, 32640, Note_off_c, 2, 45, 80
3, 32640, Program_c, 2, 28
3, 32640, Program_c, 3, 28
3, 32640, Control_c, 2, 7, 88
3, 32640, Control_c, 3, 7, 88
3, 32640, Note_on_c, 2, 74, 95
3, 32640, Note_on_c, 2, 62, 95
3, 32640, Note_on_c, 2, 57, 95
3, 32640, Note_on_c, 2, 50, 95
3, 32880, Note_off_c, 2, 74, 80
3, 32880, Note_off_c, 2, 62, 80
3, 32880, Note_off_c, 2, 57, 80
3, 32880, Note_off_c, 2, 50, 80
3, 32880, Note_on_c, 2, 78, 95
3, 32880, Note_on_c, 2, 62, 95
3, 32880, Note_on_c, 2, 57, 95
3, 32880, Note_on_c, 2, 50, 95
3, 33120, Note_off_c, 2, 78, 80
3, 33120, Note_off_c, 2, 62, 80
3, 33120, Note_off_c, 2, 57, 80
3, 33120, Note_off_c, 2, 50, 80
3, 33120, Note_on_c, 2, 74, 95
3, 33120, Note_on_c, 2, 62, 95
3, 33120, Note_on_c, 2, 57, 95
3, 33120, Note_on_c, 2, 50, 95
3, 33360, Note_off_c, 2, 74, 80
3, 33360, Note_off_c, 2, 62, 80
3, 33360, Note_off_c, 2, 57, 80
3, 33360, Note_off_c, 2, 50, 80
3, 33360, Note_on_c, 2, 78, 95
3, 33360, Note_on_c, 2, 62, 95
3, 33360, Note_on_c, 2, 57, 95
3, 33360, Note_on_c, 2, 50, 95
3, 33600, Note_off_c, 2, 78, 80
3, 33600, Note_off_c, 2, 62, 80
3, 33600, Note_off_c, 2, 57, 80
3, 33600, Note_off_c, 2, 50, 80
3, 33600, Note_on_c, 2, 74, 95
3, 33600, Note_on_c, 2, 62, 95
3, 33600, Note_on_c, 2, 57, 95
3, 33600, Note_on_c, 2, 50, 95
3, 33840, Note_off_c, 2, 74, 80
3, 33840, Note_off_c, 2, 62, 80
3, 33840, Note_off_c, 2, 57, 80
3, 33840, Note_off_c, 2, 50, 80
3, 33840, Note_on_c, 2, 78, 95
3, 33840, Note_on_c, 2, 62, 95
3, 33840, Note_on_c, 2, 57, 95
3, 33840, Note_on_c, 2, 50, 95
3, 34080, Note_off_c, 2, 78, 80
3, 34080, Note_off_c, 2, 62, 80
3, 34080, Note_off_c, 2, 57, 80
3, 34080, Note_off_c, 2, 50, 80
3, 34080, Note_on_c, 2, 74, 95
3, 34080, Note_on_c, 2, 62, 95
3, 34080, Note_on_c, 2, 57, 95
3, 34080, Note_on_c, 2, 50, 95
3, 34320, Note_off_c, 2, 74, 80
3, 34320, Note_off_c, 2, 62, 80
3, 34320, Note_off_c, 2, 57, 80
3, 34320, Note_off_c, 2, 50, 80
3, 34320, Note_on_c, 2, 78, 95
3, 34320, Note_on_c, 2, 62, 95
3, 34320, Note_on_c, 2, 57, 95
3, 34320, Note_on_c, 2, 50, 95
3, 34560, Note_off_c, 2, 78, 80
3, 34560, Note_off_c, 2, 62, 80
3, 34560, Note_off_c, 2, 57, 80
3, 34560, Note_off_c, 2, 50, 80
3, 34560, Note_on_c, 2, 74, 95
3, 34560, Note_on_c, 2, 59, 95
3, 34560, Note_on_c, 2, 54, 95
3, 34560, Note_on_c, 2, 47, 95
3, 34800, Note_off_c, 2, 74, 80
3, 34800, Note_off_c, 2, 59, 80
3, 34800, Note_off_c, 2, 54, 80
3, 34800, Note_off_c, 2, 47, 80
3, 34800, Note_on_c, 2, 78, 95
3, 34800, Note_on_c, 2, 59, 95
3, 34800, Note_on_c, 2, 54, 95
3, 34800, Note_on_c, 2, 47, 95
3, 35040, Note_off_c, 2, 78, 80
3, 35040, Note_off_c, 2, 59, 80
3, 35040, Note_off_c, 2, 54, 80
3, 35040, Note_off_c, 2, 47, 80
3, 35040, Note_on_c, 2, 74, 95
3, 35040, Note_on_c, 2, 59, 95
3, 35040, Note_on_c, 2, 54, 95
3, 35040, Note_on_c, 2, 47, 95
3, 35280, Note_off_c, 2, 74, 80
3, 35280, Note_off_c, 2, 59, 80
3, 35280, Note_off_c, 2, 54, 80
3, 35280, Note_off_c, 2, 47, 80
3, 35280, Note_on_c, 2, 78, 95
3, 35280, Note_on_c, 2, 59, 95
3, 35280, Note_on_c, 2, 54, 95
3, 35280, Note_on_c, 2, 47, 95
3, 35520, Note_off_c, 2, 78, 80
3, 35520, Note_off_c, 2, 59, 80
3, 35520, Note_off_c, 2, 54, 80
3, 35520, Note_off_c, 2, 47, 80
3, 35520, Note_on_c, 2, 74, 95
3, 35520, Note_on_c, 2, 59, 95
3, 35520, Note_on_c, 2, 54, 95
3, 35520, Note_on_c, 2, 47, 95
3, 35760, Note_off_c, 2, 74, 80
3, 35760, Note_off_c, 2, 59, 80
3, 35760, Note_off_c, 2, 54, 80
3, 35760, Note_off_c, 2, 47, 80
3, 35760, Note_on_c, 2, 78, 95
3, 35760, Note_on_c, 2, 59, 95
3, 35760, Note_on_c, 2, 54, 95
3, 35760, Note_on_c, 2, 47, 95
3, 36000, Note_off_c, 2, 78, 80
3, 36000, Note_off_c, 2, 59, 80
3, 36000, Note_off_c, 2, 54, 80
3, 36000, Note_off_c, 2, 47, 80
3, 36000, Note_on_c, 2, 74, 95
3, 36000, Note_on_c, 2, 59, 95
3, 36000, Note_on_c, 2, 54, 95
3, 36000, Note_on_c, 2, 47, 95
3, 36240, Note_off_c, 2, 74, 80
3, 36240, Note_off_c, 2, 59, 80
3, 36240, Note_off_c, 2, 54, 80
3, 36240, Note_off_c, 2, 47, 80
3, 36240, Note_on_c, 2, 78, 95
3, 36240, Note_on_c, 2, 59, 95
3, 36240, Note_on_c, 2, 54, 95
3, 36240, Note_on_c, 2, 47, 95
3, 36480, Note_off_c, 2, 78, 80
3, 36480, Note_off_c, 2, 59, 80
3, 36480, Note_off_c, 2, 54, 80
3, 36480, Note_off_c, 2, 47, 80
3, 36480, Note_on_c, 2, 74, 95
3, 36480, Note_on_c, 2, 62, 95
3, 36480, Note_on_c, 2, 57, 95
3, 36480, Note_on_c, 2, 50, 95
3, 36720, Note_off_c, 2, 74, 80
3, 36720, Note_off_c, 2, 62, 80
3, 36720, Note_off_c, 2, 57, 80
3, 36720, Note_off_c, 2, 50, 80
3, 36720, Note_on_c, 2, 78, 95
3, 36720, Note_on_c, 2, 62, 95
3, 36720, Note_on_c, 2, 57, 95
3, 36720, Note_on_c, 2, 50, 95
3, 36960, Note_off_c, 2, 78, 80
3, 36960, Note_off_c, 2, 62, 80
3, 36960, Note_off_c, 2, 57, 80
3, 36960, Note_off_c, 2, 50, 80
3, 36960, Note_on_c, 2, 74, 95
3, 36960, Note_on_c, 2, 62, 95
3, 36960, Note_on_c, 2, 57, 95
3, 36960, Note_on_c, 2, 50, 95
3, 37200, Note_off_c, 2, 74, 80
3, 37200, Note_off_c, 2, 62, 80
3, 37200, Note_off_c, 2, 57, 80
3, 37200, Note_off_c, 2, 50, 80
3, 37200, Note_on_c, 2, 78, 95
3, 37200, Note_on_c, 2, 62, 95
3, 37200, Note_on_c, 2, 57, 95
3, 37200, Note_on_c, 2, 50, 95
3, 37440, Note_off_c, 2, 78, 80
3, 37440, Note_off_c, 2, 62, 80
3, 37440, Note_off_c, 2, 57, 80
3, 37440, Note_off_c, 2, 50, 80
3, 37440, Note_on_c, 2, 74, 95
3, 37440, Note_on_c, 2, 62, 95
3, 37440, Note_on_c, 2, 57, 95
3, 37440, Note_on_c, 2, 50, 95
3, 37680, Note_off_c, 2, 74, 80
3, 37680, Note_off_c, 2, 62, 80
3, 37680, Note_off_c, 2, 57, 80
3, 37680, Note_off_c, 2, 50, 80
3, 37680, Note_on_c, 2, 78, 95
3, 37680, Note_on_c, 2, 62, 95
3, 37680, Note_on_c, 2, 57, 95
3, 37680, Note_on_c, 2, 50, 95
3, 37920, Note_off_c, 2, 78, 80
3, 37920, Note_off_c, 2, 62, 80
3, 37920, Note_off_c, 2, 57, 80
3, 37920, Note_off_c, 2, 50, 80
3, 37920, Note_on_c, 2, 74, 95
3, 37920, Note_on_c, 2, 62, 95
3, 37920, Note_on_c, 2, 57, 95
3, 37920, Note_on_c, 2, 50, 95
3, 38160, Note_off_c, 2, 74, 80
3, 38160, Note_off_c, 2, 62, 80
3, 38160, Note_off_c, 2, 57, 80
3, 38160, Note_off_c, 2, 50, 80
3, 38160, Note_on_c, 2, 78, 95
3, 38160, Note_on_c, 2, 62, 95
3, 38160, Note_on_c, 2, 57, 95
3, 38160, Note_on_c, 2, 50, 95
3, 38400, Note_off_c, 2, 78, 80
3, 38400, Note_off_c, 2, 62, 80
3, 38400, Note_off_c, 2, 57, 80
3, 38400, Note_off_c, 2, 50, 80
3, 38400, Program_c, 2, 28
3, 38400, Program_c, 3, 28
3, 38400, Note_on_c, 2, 52, 95
3, 38400, Note_on_c, 2, 47, 95
3, 38400, Note_on_c, 2, 40, 95
3, 38640, Note_off_c, 2, 52, 80
3, 38640, Note_off_c, 2, 47, 80
3, 38640, Note_off_c, 2, 40, 80
3, 38640, Note_on_c, 2, 52, 95
3, 38640, Note_on_c, 2, 47, 95
3, 38640, Note_on_c, 2, 40, 95
3, 38880, Note_off_c, 2, 52, 80
3, 38880, Note_off_c, 2, 47, 80
3, 38880, Note_off_c, 2, 40, 80
3, 38880, Note_on_c, 2, 54, 95
3, 38880, Note_on_c, 2, 49, 95
3, 38880, Note_on_c, 2, 42, 95
3, 39120, Note_off_c, 2, 54, 80
3, 39120, Note_off_c, 2, 49, 80
3, 39120, Note_off_c, 2, 42, 80
3, 39120, Note_on_c, 2, 54, 95
3, 39120, Note_on_c, 2, 49, 95
3, 39120, Note_on_c, 2, 42, 95
3, 39360, Note_off_c, 2, 54, 80
3, 39360, Note_off_c, 2, 49, 80
3, 39360, Note_off_c, 2, 42, 80
3, 39360, Note_on_c, 2, 54, 95
3, 39360, Note_on_c, 2, 49, 95
3, 39360, Note_on_c, 2, 42, 95
3, 39600, Note_off_c, 2, 54, 80
3, 39600, Note_off_c, 2, 49, 80
3, 39600, Note_off_c, 2, 42, 80
3, 39600, Note_on_c, 2, 54, 95
3, 39600, Note_on_c, 2, 49, 95
3, 39600, Note_on_c, 2, 42, 95
3, 39840, Note_off_c, 2, 54, 80
3, 39840, Note_off_c, 2, 49, 80
3, 39840, Note_off_c, 2, 42, 80
3, 39840, Note_on_c, 2, 57, 95
3, 39840, Note_on_c, 2, 52, 95
3, 39840, Note_on_c, 2, 45, 95
3, 40080, Note_off_c, 2, 57, 80
3, 40080, Note_off_c, 2, 52, 80
3, 40080, Note_off_c, 2, 45, 80
3, 40080, Note_on_c, 2, 57, 95
3, 40080, Note_on_c, 2, 52, 95
3, 40080, Note_on_c, 2, 45, 95
3, 40320, Note_off_c, 2, 57, 80
3, 40320, Note_off_c, 2, 52, 80
3, 40320, Note_off_c, 2, 45, 80
3, 40320, Note_on_c, 2, 62, 95
3, 40320, Note_on_c, 2, 57, 95
3, 40320, Note_on_c, 2, 50, 95
3, 40560, Note_off_c, 2, 62, 80
3, 40560, Note_off_c, 2, 57, 80
3, 40560, Note_off_c, 2, 50, 80
3, 40560, Note_on_c, 2, 62, 95
3, 40560, Note_on_c, 2, 57, 95
3, 40560, Note_on_c, 2, 50, 95
3, 40800, Note_off_c, 2, 62, 80
3, 40800, Note_off_c, 2, 57, 80
3, 40800, Note_off_c, 2, 50, 80
3, 40800, Note_on_c, 2, 62, 95
3, 40800, Note_on_c, 2, 57, 95
3, 40800, Note_on_c, 2, 50, 95
3, 41040, Note_off_c, 2, 62, 80
3, 41040, Note_off_c, 2, 57, 80
3, 41040, Note_off_c, 2, 50, 80
3, 41040, Note_on_c, 2, 62, 95
3, 41040, Note_on_c, 2, 57, 95
3, 41040, Note_on_c, 2, 50, 95
3, 41280, Note_off_c, 2, 62, 80
3, 41280, Note_off_c, 2, 57, 80
3, 41280, Note_off_c, 2, 50, 80
3, 41280, Note_on_c, 2, 62, 95
3, 41280, Note_on_c, 2, 57, 95
3, 41280, Note_on_c, 2, 50, 95
3, 41520, Note_off_c, 2, 62, 80
3, 41520, Note_off_c, 2, 57, 80
3, 41520, Note_off_c, 2, 50, 80
3, 41520, Note_on_c, 2, 62, 95
3, 41520, Note_on_c, 2, 57, 95
3, 41520, Note_on_c, 2, 50, 95
3, 41760, Note_off_c, 2, 62, 80
3, 41760, Note_off_c, 2, 57, 80
3, 41760, Note_off_c, 2, 50, 80
3, 41760, Note_on_c, 2, 62, 95
3, 41760, Note_on_c, 2, 57, 95
3, 41760, Note_on_c, 2, 50, 95
3, 42000, Note_off_c, 2, 62, 80
3, 42000, Note_off_c, 2, 57, 80
3, 42000, Note_off_c, 2, 50, 80
3, 42000, Note_on_c, 2, 62, 95
3, 42000, Note_on_c, 2, 57, 95
3, 42000, Note_on_c, 2, 50, 95
3, 42240, Note_off_c, 2, 62, 80
3, 42240, Note_off_c, 2, 57, 80
3, 42240, Note_off_c, 2, 50, 80
3, 42240, Note_on_c, 2, 59, 95
3, 42240, Note_on_c, 2, 54, 95
3, 42240, Note_on_c, 2, 47, 95
3, 42480, Note_off_c, 2, 59, 80
3, 42480, Note_off_c, 2, 54, 80
3, 42480, Note_off_c, 2, 47, 80
3, 42480, Note_on_c, 2, 59, 95
3, 42480, Note_on_c, 2, 54, 95
3, 42480, Note_on_c, 2, 47, 95
3, 42720, Note_off_c, 2, 59, 80
3, 42720, Note_off_c, 2, 54, 80
3, 42720, Note_off_c, 2, 47, 80
3, 42720, Note_on_c, 2, 59, 95
3, 42720, Note_on_c, 2, 54, 95
3, 42720, Note_on_c, 2, 47, 95
3, 42960, Note_off_c, 2, 59, 80
3, 42960, Note_off_c, 2, 54, 80
3, 42960, Note_off_c, 2, 47, 80
3, 42960, Note_on_c, 2, 59, 95
3, 42960, Note_on_c, 2, 54, 95
3, 42960, Note_on_c, 2, 47, 95
3, 43200, Note_off_c, 2, 59, 80
3, 43200, Note_off_c, 2, 54, 80
3, 43200, Note_off_c, 2, 47, 80
3, 43200, Note_on_c, 2, 59, 95
3, 43200, Note_on_c, 2, 54, 95
3, 43200, Note_on_c, 2, 47, 95
3, 43440, Note_off_c, 2, 59, 80
3, 43440, Note_off_c, 2, 54, 80
3, 43440, Note_off_c, 2, 47, 80
3, 43440, Note_on_c, 2, 59, 95
3, 43440, Note_on_c, 2, 54, 95
3, 43440, Note_on_c, 2, 47, 95
3, 43680, Note_off_c, 2, 59, 80
3, 43680, Note_off_c, 2, 54, 80
3, 43680, Note_off_c, 2, 47, 80
3, 43680, Note_on_c, 2, 59, 95
3, 43680, Note_on_c, 2, 54, 95
3, 43680, Note_on_c, 2, 47, 95
3, 43920, Note_off_c, 2, 59, 80
3, 43920, Note_off_c, 2, 54, 80
3, 43920, Note_off_c, 2, 47, 80
3, 43920, Note_on_c, 2, 59, 95
3, 43920, Note_on_c, 2, 54, 95
3, 43920, Note_on_c, 2, 47, 95
3, 44160, Note_off_c, 2, 59, 80
3, 44160, Note_off_c, 2, 54, 80
3, 44160, Note_off_c, 2, 47, 80
3, 44160, Note_on_c, 2, 62, 95
3, 44160, Note_on_c, 2, 57, 95
3, 44160, Note_on_c, 2, 50, 95
3, 44400, Note_off_c, 2, 62, 80
3, 44400, Note_off_c, 2, 57, 80
3, 44400, Note_off_c, 2, 50, 80
3, 44400, Note_on_c, 2, 62, 95
3, 44400, Note_on_c, 2, 57, 95
3, 44400, Note_on_c, 2, 50, 95
3, 44640, Note_off_c, 2, 62, 80
3, 44640, Note_off_c, 2, 57, 80
3, 44640, Note_off_c, 2, 50, 80
3, 44640, Note_on_c, 2, 62, 95
3, 44640, Note_on_c, 2, 57, 95
3, 44640, Note_on_c, 2, 50, 95
3, 44880, Note_off_c, 2, 62, 80
3, 44880, Note_off_c, 2, 57, 80
3, 44880, Note_off_c, 2, 50, 80
3, 44880, Note_on_c, 2, 62, 95
3, 44880, Note_on_c, 2, 57, 95
3, 44880, Note_on_c, 2, 50, 95
3, 45120, Note_off_c, 2, 62, 80
3, 45120, Note_off_c, 2, 57, 80
3, 45120, Note_off_c, 2, 50, 80
3, 45120, Note_on_c, 2, 62, 95
3, 45120, Note_on_c, 2, 57, 95
3, 45120, Note_on_c, 2, 50, 95
3, 45360, Note_off_c, 2, 62, 80
3, 45360, Note_off_c, 2, 57, 80
3, 45360, Note_off_c, 2, 50, 80
3, 45360, Note_on_c, 2, 62, 95
3, 45360, Note_on_c, 2, 57, 95
3, 45360, Note_on_c, 2, 50, 95
3, 45600, Note_off_c, 2, 62, 80
3, 45600, Note_off_c, 2, 57, 80
3, 45600, Note_off_c, 2, 50, 80
3, 45600, Note_on_c, 2, 62, 95
3, 45600, Note_on_c, 2, 57, 95
3, 45600, Note_on_c, 2, 50, 95
3, 45840, Note_off_c, 2, 62, 80
3, 45840, Note_off_c, 2, 57, 80
3, 45840, Note_off_c, 2, 50, 80
3, 45840, Note_on_c, 2, 62, 95
3, 45840, Note_on_c, 2, 57, 95
3, 45840, Note_on_c, 2, 50, 95
3, 46080, Note_off_c, 2, 62, 80
3, 46080, Note_off_c, 2, 57, 80
3, 46080, Note_off_c, 2, 50, 80
3, 46080, Program_c, 2, 28
3, 46080, Program_c, 3, 28
3, 46080, Note_on_c, 2, 52, 95
3, 46080, Note_on_c, 2, 47, 95
3, 46080, Note_on_c, 2, 40, 95
3, 46320, Note_off_c, 2, 52, 80
3, 46320, Note_off_c, 2, 47, 80
3, 46320, Note_off_c, 2, 40, 80
3, 46320, Note_on_c, 2, 52, 95
3, 46320, Note_on_c, 2, 47, 95
3, 46320, Note_on_c, 2, 40, 95
3, 46560, Note_off_c, 2, 52, 80
3, 46560, Note_off_c, 2, 47, 80
3, 46560, Note_off_c, 2, 40, 80
3, 46560, Note_on_c, 2, 54, 95
3, 46560, Note_on_c, 2, 49, 95
3, 46560, Note_on_c, 2, 42, 95
3, 46800, Note_off_c, 2, 54, 80
3, 46800, Note_off_c, 2, 49, 80
3, 46800, Note_off_c, 2, 42, 80
3, 46800, Note_on_c, 2, 54, 95
3, 46800, Note_on_c, 2, 49, 95
3, 46800, Note_on_c, 2, 42, 95
3, 47040, Note_off_c, 2, 54, 80
3, 47040, Note_off_c, 2, 49, 80
3, 47040, Note_off_c, 2, 42, 80
3, 47040, Note_on_c, 2, 54, 95
3, 47040, Note_on_c, 2, 49, 95
3, 47040, Note_on_c, 2, 42, 95
3, 47280, Note_off_c, 2, 54, 80
3, 47280, Note_off_c, 2, 49, 80
3, 47280, Note_off_c, 2, 42, 80
3, 47280, Note_on_c, 2, 54, 95
3, 47280, Note_on_c, 2, 49, 95
3, 47280, Note_on_c, 2, 42, 95
3, 47520, Note_off_c, 2, 54, 80
3, 47520, Note_off_c, 2, 49, 80
3, 47520, Note_off_c, 2, 42, 80
3, 47520, Note_on_c, 2, 57, 95
3, 47520, Note_on_c, 2, 52, 95
3, 47520, Note_on_c, 2, 45, 95
3, 47760, Note_off_c, 2, 57, 80
3, 47760, Note_off_c, 2, 52, 80
3, 47760, Note_off_c, 2, 45, 80
3, 47760, Note_on_c, 2, 57, 95
3, 47760, Note_on_c, 2, 52, 95
3, 47760, Note_on_c, 2, 45, 95
3, 48000, Note_off_c, 2, 57, 80
3, 48000, Note_off_c, 2, 52, 80
3, 48000, Note_off_c, 2, 45, 80
3, 48000, Program_c, 2, 29
3, 48000, Program_c, 3, 29
3, 48000, Note_on_c, 2, 50, 95
3, 49920, Note_off_c, 2, 50, 80
3, 49920, Note_on_c, 2, 47, 95
3, 51840, Note_off_c, 2, 47, 80
3, 51840, Note_on_c, 2, 50, 95
3, 53760, Note_off_c, 2, 50, 80
3, 53760, Program_c, 2, 28
3, 53760, Program_c, 3, 28
3, 53760, Note_on_c, 2, 52, 95
3, 53760, Note_on_c, 2, 47, 95
3, 53760, Note_on_c, 2, 40, 95
3, 54000, Note_off_c, 2, 52, 80
3, 54000, Note_off_c, 2, 47, 80
3, 54000, Note_off_c, 2, 40, 80
3, 54000, Note_on_c, 2, 52, 95
3, 54000, Note_on_c, 2, 47, 95
3, 54000, Note_on_c, 2, 40, 95
3, 54240, Note_off_c, 2, 52, 80
3, 54240, Note_off_c, 2, 47, 80
3, 54240, Note_off_c, 2, 40, 80
3, 54240, Note_on_c, 2, 54, 95
3, 54240, Note_on_c, 2, 49, 95
3, 54240, Note_on_c, 2, 42, 95
3, 54480, Note_off_c, 2, 54, 80
3, 54480, Note_off_c, 2, 49, 80
3, 54480, Note_off_c, 2, 42, 80
3, 54480, Note_on_c, 2, 54, 95
3, 54480, Note_on_c, 2, 49, 95
3, 54480, Note_on_c, 2, 42, 95
3, 54720, Note_off_c, 2, 54, 80
3, 54720, Note_off_c, 2, 49, 80
3, 54720, Note_off_c, 2, 42, 80
3, 54720, Note_on_c, 2, 54, 95
3, 54720, Note_on_c, 2, 49, 95
3, 54720, Note_on_c, 2, 42, 95
3, 54960, Note_off_c, 2, 54, 80
3, 54960, Note_off_c, 2, 49, 80
3, 54960, Note_off_c, 2, 42, 80
3, 54960, Note_on_c, 2, 54, 95
3, 54960, Note_on_c, 2, 49, 95
3, 54960, Note_on_c, 2, 42, 95
3, 55200, Note_off_c, 2, 54, 80
3, 55200, Note_off_c, 2, 49, 80
3, 55200, Note_off_c, 2, 42, 80
3, 55200, Note_on_c, 2, 57, 95
3, 55200, Note_on_c, 2, 52, 95
3, 55200, Note_on_c, 2, 45, 95
3, 55440, Note_off_c, 2, 57, 80
3, 55440, Note_off_c, 2, 52, 80
3, 55440, Note_off_c, 2, 45, 80
3, 55440, Note_on_c, 2, 57, 95
3, 55440, Note_on_c, 2, 52, 95
3, 55440, Note_on_c, 2, 45, 95
3, 55680, Note_off_c, 2, 57, 80
3, 55680, Note_off_c, 2, 52, 80
3, 55680, Note_off_c, 2, 45, 80
3, 55680, Program_c, 2, 29
3, 55680, Program_c, 3, 29
3, 55680, Note_on_c, 2, 50, 95
3, 57600, Note_off_c, 2, 50, 80
3, 57600, Note_on_c, 2, 47, 95
3, 59520, Note_off_c, 2, 47, 80
3, 59520, Note_on_c, 2, 50, 95
3, 61440, Note_off_c, 2, 50, 80
3, 61440, Program_c, 2, 28
3, 61440, Program_c, 3, 28
3, 61440, Note_on_c, 2, 52, 95
3, 61440, Note_on_c, 2, 47, 95
3, 61440, Note_on_c, 2, 40, 95
3, 61680, Note_off_c, 2, 52, 80
3, 61680, Note_off_c, 2, 47, 80
3, 61680, Note_off_c, 2, 40, 80
3, 61680, Note_on_c, 2, 52, 95
3, 61680, Note_on_c, 2, 47, 95
3, 61680, Note_on_c, 2, 40, 95
3, 61920, Note_off_c, 2, 52, 80
3, 61920, Note_off_c, 2, 47, 80
3, 61920, Note_off_c, 2, 40, 80
3, 61920, Note_on_c, 2, 54, 95
3, 61920, Note_on_c, 2, 49, 95
3, 61920, Note_on_c, 2, 42, 95
3, 62160, Note_off_c, 2, 54, 80
3, 62160, Note_off_c, 2, 49, 80
3, 62160, Note_off_c, 2, 42, 80
3, 62160, Note_on_c, 2, 54, 95
3, 62160, Note_on_c, 2, 49, 95
3, 62160, Note_on_c, 2, 42, 95
3, 62400, Note_off_c, 2, 54, 80
3, 62400, Note_off_c, 2, 49, 80
3, 62400, Note_off_c, 2, 42, 80
3, 62400, Note_on_c, 2, 54, 95
3, 62400, Note_on_c, 2, 49, 95
3, 62400, Note_on_c, 2, 42, 95
3, 62640, Note_off_c, 2, 54, 80
3, 62640, Note_off_c, 2, 49, 80
3, 62640, Note_off_c, 2, 42, 80
3, 62640, Note_on_c, 2, 54, 95
3, 62640, Note_on_c, 2, 49, 95
3, 62640, Note_on_c, 2, 42, 95
3, 62880, Note_off_c, 2, 54, 80
3, 62880, Note_off_c, 2, 49, 80
3, 62880, Note_off_c, 2, 42, 80
3, 62880, Note_on_c, 2, 57, 95
3, 62880, Note_on_c, 2, 52, 95
3, 62880, Note_on_c, 2, 45, 95
3, 63120, Note_off_c, 2, 57, 80
3, 63120, Note_off_c, 2, 52, 80
3, 63120, Note_off_c, 2, 45, 80
3, 63120, Note_on_c, 2, 57, 95
3, 63120, Note_on_c, 2, 52, 95
3, 63120, Note_on_c, 2, 45, 95
3, 63360, Note_off_c, 2, 57, 80
3, 63360, Note_off_c, 2, 52, 80
3, 63360, Note_off_c, 2, 45, 80
3, 63360, Program_c, 2, 29
3, 63360, Program_c, 3, 29
3, 63360, Note_on_c, 2, 50, 95
3, 65280, Note_off_c, 2, 50, 80
3, 65280, Note_on_c, 2, 47, 95
3, 67200, Note_off_c, 2, 47, 80
3, 67200, Note_on_c, 2, 50, 95
3, 69120, Note_off_c, 2, 50, 80
3, 69120, Program_c, 2, 28
3, 69120, Program_c, 3, 28
3, 69120, Control_c, 2, 7, 88
3, 69120, Control_c, 3, 7, 88
3, 69120, Note_on_c, 2, 52, 95
3, 69120, Note_on_c, 2, 47, 95
3, 69120, Note_on_c, 2, 40, 95
3, 69360, Note_off_c, 2, 52, 80
3, 69360, Note_off_c, 2, 47, 80
3, 69360, Note_off_c, 2, 40, 80
3, 69360, Note_on_c, 2, 52, 95
3, 69360, Note_on_c, 2, 47, 95
3, 69360, Note_on_c, 2, 40, 95
3, 69600, Note_off_c, 2, 52, 80
3, 69600, Note_off_c, 2, 47, 80
3, 69600, Note_off_c, 2, 40, 80
3, 69600, Note_on_c, 2, 54, 95
3, 69600, Note_on_c, 2, 49, 95
3, 69600, Note_on_c, 2, 42, 95
3, 69840, Note_off_c, 2, 54, 80
3, 69840, Note_off_c, 2, 49, 80
3, 69840, Note_off_c, 2, 42, 80
3, 69840, Note_on_c, 2, 54, 95
3, 69840, Note_on_c, 2, 49, 95
3, 69840, Note_on_c, 2, 42, 95
3, 70080, Note_off_c, 2, 54, 80
3, 70080, Note_off_c, 2, 49, 80
3, 70080, Note_off_c, 2, 42, 80
3, 70080, Note_on_c, 2, 54, 95
3, 70080, Note_on_c, 2, 49, 95
3, 70080, Note_on_c, 2, 42, 95
3, 70320, Note_off_c, 2, 54, 80
3, 70320, Note_off_c, 2, 49, 80
3, 70320, Note_off_c, 2, 42, 80
3, 70320, Note_on_c, 2, 54, 95
3, 70320, Note_on_c, 2, 49, 95
3, 70320, Note_on_c, 2, 42, 95
3, 70560, Note_off_c, 2, 54, 80
3, 70560, Note_off_c, 2, 49, 80
3, 70560, Note_off_c, 2, 42, 80
3, 70560, Note_on_c, 2, 57, 95
3, 70560, Note_on_c, 2, 52, 95
3, 70560, Note_on_c, 2, 45, 95
3, 70800, Note_off_c, 2, 57, 80
3, 70800, Note_off_c, 2, 52, 80
3, 70800, Note_off_c, 2, 45, 80
3, 70800, Note_on_c, 2, 57, 95
3, 70800, Note_on_c, 2, 52, 95
3, 70800, Note_on_c, 2, 45, 95
3, 71040, Note_off_c, 2, 57, 80
3, 71040, Note_off_c, 2, 52, 80
3, 71040, Note_off_c, 2, 45, 80
3, 71040, Note_on_c, 2, 74, 95
3, 71040, Note_on_c, 2, 62, 95
3, 71040, Note_on_c, 2, 57, 95
3, 71040, Note_on_c, 2, 50, 95
3, 71280, Note_off_c, 2, 74, 80
3, 71280, Note_off_c, 2, 62, 80
3, 71280, Note_off_c, 2, 57, 80
3, 71280, Note_off_c, 2, 50, 80
3, 71280, Note_on_c, 2, 78, 95
3, 71280, Note_on_c, 2, 62, 95
3, 71280, Note_on_c, 2, 57, 95
3, 71280, Note_on_c, 2, 50, 95
3, 71520, Note_off_c, 2, 78, 80
3, 71520, Note_off_c, 2, 62, 80
3, 71520, Note_off_c, 2, 57, 80
3, 71520, Note_off_c, 2, 50, 80
3, 71520, Note_on_c, 2, 74, 95
3, 71520, Note_on_c, 2, 62, 95
3, 71520, Note_on_c, 2, 57, 95
3, 71520, Note_on_c, 2, 50, 95
3, 71760, Note_off_c, 2, 74, 80
3, 71760, Note_off_c, 2, 62, 80
3, 71760, Note_off_c, 2, 57, 80
3, 71760, Note_off_c, 2, 50, 80
3, 71760, Note_on_c, 2, 78, 95
3, 71760, Note_on_c, 2, 62, 95
3, 71760, Note_on_c, 2, 57, 95
3, 71760, Note_on_c, 2, 50, 95
3, 72000, Note_off_c, 2, 78, 80
3, 72000, Note_off_c, 2, 62, 80
3, 72000, Note_off_c, 2, 57, 80
3, 72000, Note_off_c, 2, 50, 80
3, 72000, Note_on_c, 2, 74, 95
3, 72000, Note_on_c, 2, 62, 95
3, 72000, Note_on_c, 2, 57, 95
3, 72000, Note_on_c, 2, 50, 95
3, 72240, Note_off_c, 2, 74, 80
3, 72240, Note_off_c, 2, 62, 80
3, 72240, Note_off_c, 2, 57, 80
3, 72240, Note_off_c, 2, 50, 80
3, 72240, Note_on_c, 2, 78, 95
3, 72240, Note_on_c, 2, 62, 95
3, 72240, Note_on_c, 2, 57, 95
3, 72240, Note_on_c, 2, 50, 95
3, 72480, Note_off_c, 2, 78, 80
3, 72480, Note_off_c, 2, 62, 80
3, 72480, Note_off_c, 2, 57, 80
3, 72480, Note_off_c, 2, 50, 80
3, 72480, Note_on_c, 2, 74, 95
3, 72480, Note_on_c, 2, 62, 95
3, 72480, Note_on_c, 2, 57, 95
3, 72480, Note_on_c, 2, 50, 95
3, 72720, Note_off_c, 2, 74, 80
3, 72720, Note_off_c, 2, 62, 80
3, 72720, Note_off_c, 2, 57, 80
3, 72720, Note_off_c, 2, 50, 80
3, 72720, Note_on_c, 2, 78, 95
3, 72720, Note_on_c, 2, 62, 95
3, 72720, Note_on_c, 2, 57, 95
3, 72720, Note_on_c, 2, 50, 95
3, 72960, Note_off_c, 2, 78, 80
3, 72960, Note_off_c, 2, 62, 80
3, 72960, Note_off_c, 2, 57, 80
3, 72960, Note_off_c, 2, 50, 80
3, 72960, Note_on_c, 2, 74, 95
3, 72960, Note_on_c, 2, 59, 95
3, 72960, Note_on_c, 2, 54, 95
3, 72960, Note_on_c, 2, 47, 95
3, 73200, Note_off_c, 2, 74, 80
3, 73200, Note_off_c, 2, 59, 80
3, 73200, Note_off_c, 2, 54, 80
3, 73200, Note_off_c, 2, 47, 80
3, 73200, Note_on_c, 2, 78, 95
3, 73200, Note_on_c, 2, 59, 95
3, 73200, Note_on_c, 2, 54, 95
3, 73200, Note_on_c, 2, 47, 95
3, 73440, Note_off_c, 2, 78, 80
3, 73440, Note_off_c, 2, 59, 80
3, 73440, Note_off_c, 2, 54, 80
3, 73440, Note_off_c, 2, 47, 80
3, 73440, Note_on_c, 2, 74, 95
3, 73440, Note_on_c, 2, 59, 95
3, 73440, Note_on_c, 2, 54, 95
3, 73440, Note_on_c, 2, 47, 95
3, 73680, Note_off_c, 2, 74, 80
3, 73680, Note_off_c, 2, 59, 80
3, 73680, Note_off_c, 2, 54, 80
3, 73680, Note_off_c, 2, 47, 80
3, 73680, Note_on_c, 2, 78, 95
3, 73680, Note_on_c, 2, 59, 95
3, 73680, Note_on_c, 2, 54, 95
3, 73680, Note_on_c, 2, 47, 95
3, 73920, Note_off_c, 2, 78, 80
3, 73920, Note_off_c, 2, 59, 80
3, 73920, Note_off_c, 2, 54, 80
3, 73920, Note_off_c, 2, 47, 80
3, 73920, Note_on_c, 2, 74, 95
3, 73920, Note_on_c, 2, 59, 95
3, 73920, Note_on_c, 2, 54, 95
3, 73920, Note_on_c, 2, 47, 95
3, 74160, Note_off_c, 2, 74, 80
3, 74160, Note_off_c, 2, 59, 80
3, 74160, Note_off_c, 2, 54, 80
3, 74160, Note_off_c, 2, 47, 80
3, 74160, Note_on_c, 2, 78, 95
3, 74160, Note_on_c, 2, 59, 95
3, 74160, Note_on_c, 2, 54, 95
3, 74160, Note_on_c, 2, 47, 95
3, 74400, Note_off_c, 2, 78, 80
3, 74400, Note_off_c, 2, 59, 80
3, 74400, Note_off_c, 2, 54, 80
3, 74400, Note_off_c, 2, 47, 80
3, 74400, Note_on_c, 2, 74, 95
3, 74400, Note_on_c, 2, 59, 95
3, 74400, Note_on_c, 2, 54, 95
3, 74400, Note_on_c, 2, 47, 95
3, 74640, Note_off_c, 2, 74, 80
3, 74640, Note_off_c, 2, 59, 80
3, 74640, Note_off_c, 2, 54, 80
3, 74640, Note_off_c, 2, 47, 80
3, 74640, Note_on_c, 2, 78, 95
3, 74640, Note_on_c, 2, 59, 95
3, 74640, Note_on_c, 2, 54, 95
3, 74640, Note_on_c, 2, 47, 95
3, 74880, Note_off_c, 2, 78, 80
3, 74880, Note_off_c, 2, 59, 80
3, 74880, Note_off_c, 2, 54, 80
3, 74880, Note_off_c, 2, 47, 80
3, 74880, Note_on_c, 2, 74, 95
3, 74880, Note_on_c, 2, 62, 95
3, 74880, Note_on_c, 2, 57, 95
3, 74880, Note_on_c, 2, 50, 95
3, 75120, Note_off_c, 2, 74, 80
3, 75120, Note_off_c, 2, 62, 80
3, 75120, Note_off_c, 2, 57, 80
3, 75120, Note_off_c, 2, 50, 80
3, 75120, Note_on_c, 2, 78, 95
3, 75120, Note_on_c, 2, 62, 95
3, 75120, Note_on_c, 2, 57, 95
3, 75120, Note_on_c, 2, 50, 95
3, 75360, Note_off_c, 2, 78, 80
3, 75360, Note_off_c, 2, 62, 80
3, 75360, Note_off_c, 2, 57, 80
3, 75360, Note_off_c, 2, 50, 80
3, 75360, Note_on_c, 2, 74, 95
3, 75360, Note_on_c, 2, 62, 95
3, 75360, Note_on_c, 2, 57, 95
3, 75360, Note_on_c, 2, 50, 95
3, 75600, Note_off_c, 2, 74, 80
3, 75600, Note_off_c, 2, 62, 80
3, 75600, Note_off_c, 2, 57, 80
3, 75600, Note_off_c, 2, 50, 80
3, 75600, Note_on_c, 2, 78, 95
3, 75600, Note_on_c, 2, 62, 95
3, 75600, Note_on_c, 2, 57, 95
3, 75600, Note_on_c, 2, 50, 95
3, 75840, Note_off_c, 2, 78, 80
3, 75840, Note_off_c, 2, 62, 80
3, 75840, Note_off_c, 2, 57, 80
3, 75840, Note_off_c, 2, 50, 80
3, 75840, Note_on_c, 2, 74, 95
3, 75840, Note_on_c, 2, 62, 95
3, 75840, Note_on_c, 2, 57, 95
3, 75840, Note_on_c, 2, 50, 95
3, 76080, Note_off_c, 2, 74, 80
3, 76080, Note_off_c, 2, 62, 80
3, 76080, Note_off_c, 2, 57, 80
3, 76080, Note_off_c, 2, 50, 80
3, 76080, Note_on_c, 2, 78, 95
3, 76080, Note_on_c, 2, 62, 95
3, 76080, Note_on_c, 2, 57, 95
3, 76080, Note_on_c, 2, 50, 95
3, 76320, Note_off_c, 2, 78, 80
3, 76320, Note_off_c, 2, 62, 80
3, 76320, Note_off_c, 2, 57, 80
3, 76320, Note_off_c, 2, 50, 80
3, 76320, Note_on_c, 2, 74, 95
3, 76320, Note_on_c, 2, 62, 95
3, 76320, Note_on_c, 2, 57, 95
3, 76320, Note_on_c, 2, 50, 95
3, 76560, Note_off_c, 2, 74, 80
3, 76560, Note_off_c, 2, 62, 80
3, 76560, Note_off_c, 2, 57, 80
3, 76560, Note_off_c, 2, 50, 80
3, 76560, Note_on_c, 2, 78, 95
3, 76560, Note_on_c, 2, 62, 95
3, 76560, Note_on_c, 2, 57, 95
3, 76560, Note_on_c, 2, 50, 95
3, 76800, Note_off_c, 2, 78, 80
3, 76800, Note_off_c, 2, 62, 80
3, 76800, Note_off_c, 2, 57, 80
3, 76800, Note_off_c, 2, 50, 80
3, 76800, Program_c, 2, 28
3, 76800, Program_c, 3, 28
3, 76800, Note_on_c, 2, 74, 95
3, 76800, Note_on_c, 2, 52, 95
3, 76800, Note_on_c, 2, 47, 95
3, 76800, Note_on_c, 2, 40, 95
3, 77040, Note_off_c, 2, 74, 80
3, 77040, Note_off_c, 2, 52, 80
3, 77040, Note_off_c, 2, 47, 80
3, 77040, Note_off_c, 2, 40, 80
3, 77040, Note_on_c, 2, 78, 95
3, 77040, Note_on_c, 2, 52, 95
3, 77040, Note_on_c, 2, 47, 95
3, 77040, Note_on_c, 2, 40, 95
3, 77280, Note_off_c, 2, 78, 80
3, 77280, Note_off_c, 2, 52, 80
3, 77280, Note_off_c, 2, 47, 80
3, 77280, Note_off_c, 2, 40, 80
3, 77280, Note_on_c, 2, 74, 95
3, 77280, Note_on_c, 2, 54, 95
3, 77280, Note_on_c, 2, 49, 95
3, 77280, Note_on_c, 2, 42, 95
3, 77520, Note_off_c, 2, 74, 80
3, 77520, Note_off_c, 2, 54, 80
3, 77520, Note_off_c, 2, 49, 80
3, 77520, Note_off_c, 2, 42, 80
3, 77520, Note_on_c, 2, 78, 95
3, 77520, Note_on_c, 2, 54, 95
3, 77520, Note_on_c, 2, 49, 95
3, 77520, Note_on_c, 2, 42, 95
3, 77760, Note_off_c, 2, 78, 80
3, 77760, Note_off_c, 2, 54, 80
3, 77760, Note_off_c, 2, 49, 80
3, 77760, Note_off_c, 2, 42, 80
3, 77760, Note_on_c, 2, 74, 95
3, 77760, Note_on_c, 2, 54, 95
3, 77760, Note_on_c, 2, 49, 95
3, 77760, Note_on_c, 2, 42, 95
3, 78000, Note_off_c, 2, 74, 80
3, 78000, Note_off_c, 2, 54, 80
3, 78000, Note_off_c, 2, 49, 80
3, 78000, Note_off_c, 2, 42, 80
3, 78000, Note_on_c, 2, 78, 95
3, 78000, Note_on_c, 2, 54, 95
3, 78000, Note_on_c, 2, 49, 95
3, 78000, Note_on_c, 2, 42, 95
3, 78240, Note_off_c, 2, 78, 80
3, 78240, Note_off_c, 2, 54, 80
3, 78240, Note_off_c, 2, 49, 80
3, 78240, Note_off_c, 2, 42, 80
3, 78240, Note_on_c, 2, 74, 95
3, 78240, Note_on_c, 2, 57, 95
3, 78240, Note_on_c, 2, 52, 95
3, 78240, Note_on_c, 2, 45, 95
3, 78480, Note_off_c, 2, 74, 80
3, 78480, Note_off_c, 2, 57, 80
3, 78480, Note_off_c, 2, 52, 80
3, 78480, Note_off_c, 2, 45, 80
3, 78480, Note_on_c, 2, 78, 95
3, 78480, Note_on_c, 2, 57, 95
3, 78480, Note_on_c, 2, 52, 95
3, 78480, Note_on_c, 2, 45, 95
3, 78720, Note_off_c, 2, 78, 80
3, 78720, Note_off_c, 2, 57, 80
3, 78720, Note_off_c, 2, 52, 80
3, 78720, Note_off_c, 2, 45, 80
3, 78720, Note_on_c, 2, 74, 95
3, 78720, Note_on_c, 2, 62, 95
3, 78720, Note_on_c, 2, 57, 95
3, 78720, Note_on_c, 2, 50, 95
3, 78960, Note_off_c, 2, 74, 80
3, 78960, Note_off_c, 2, 62, 80
3, 78960, Note_off_c, 2, 57, 80
3, 78960, Note_off_c, 2, 50, 80
3, 78960, Note_on_c, 2, 78, 95
3, 78960, Note_on_c, 2, 62, 95
3, 78960, Note_on_c, 2, 57, 95
3, 78960, Note_on_c, 2, 50, 95
3, 79200, Note_off_c, 2, 78, 80
3, 79200, Note_off_c, 2, 62, 80
3, 79200, Note_off_c, 2, 57, 80
3, 79200, Note_off_c, 2, 50, 80
3, 79200, Note_on_c, 2, 74, 95
3, 79200, Note_on_c, 2, 62, 95
3, 79200, Note_on_c, 2, 57, 95
3, 79200, Note_on_c, 2, 50, 95
3, 79440, Note_off_c, 2, 74, 80
3, 79440, Note_off_c, 2, 62, 80
3, 79440, Note_off_c, 2, 57, 80
3, 79440, Note_off_c, 2, 50, 80
3, 79440, Note_on_c, 2, 78, 95
3, 79440, Note_on_c, 2, 62, 95
3, 79440, Note_on_c, 2, 57, 95
3, 79440, Note_on_c, 2, 50, 95
3, 79680, Note_off_c, 2, 78, 80
3, 79680, Note_off_c, 2, 62, 80
3, 79680, Note_off_c, 2, 57, 80
3, 79680, Note_off_c, 2, 50, 80
3, 79680, Note_on_c, 2, 74, 95
3, 79680, Note_on_c, 2, 62, 95
3, 79680, Note_on_c, 2, 57, 95
3, 79680, Note_on_c, 2, 50, 95
3, 79920, Note_off_c, 2, 74, 80
3, 79920, Note_off_c, 2, 62, 80
3, 79920, Note_off_c, 2, 57, 80
3, 79920, Note_off_c, 2, 50, 80
3, 79920, Note_on_c, 2, 78, 95
3, 79920, Note_on_c, 2, 62, 95
3, 79920, Note_on_c, 2, 57, 95
3, 79920, Note_on_c, 2, 50, 95
3, 80160, Note_off_c, 2, 78, 80
3, 80160, Note_off_c, 2, 62, 80
3, 80160, Note_off_c, 2, 57, 80
3, 80160, Note_off_c, 2, 50, 80
3, 80160, Note_on_c, 2, 74, 95
3, 80160, Note_on_c, 2, 62, 95
3, 80160, Note_on_c, 2, 57, 95
3, 80160, Note_on_c, 2, 50, 95
3, 80400, Note_off_c, 2, 74, 80
3, 80400, Note_off_c, 2, 62, 80
3, 80400, Note_off_c, 2, 57, 80
3, 80400, Note_off_c, 2, 50, 80
3, 80400, Note_on_c, 2, 78, 95
3, 80400, Note_on_c, 2, 62, 95
3, 80400, Note_on_c, 2, 57, 95
3, 80400, Note_on_c, 2, 50, 95
3, 80640, Note_off_c, 2, 78, 80
3, 80640, Note_off_c, 2, 62, 80
3, 80640, Note_off_c, 2, 57, 80
3, 80640, Note_off_c, 2, 50, 80
3, 80640, Note_on_c, 2, 74, 95
3, 80640, Note_on_c, 2, 59, 95
3, 80640, Note_on_c, 2, 54, 95
3, 80640, Note_on_c, 2, 47, 95
3, 80880, Note_off_c, 2, 74, 80
3, 80880, Note_off_c, 2, 59, 80
3, 80880, Note_off_c, 2, 54, 80
3, 80880, Note_off_c, 2, 47, 80
3, 80880, Note_on_c, 2, 78, 95
3, 80880, Note_on_c, 2, 59, 95
3, 80880, Note_on_c, 2, 54, 95
3, 80880, Note_on_c, 2, 47, 95
3, 81120, Note_off_c, 2, 78, 80
3, 81120, Note_off_c, 2, 59, 80
3, 81120, Note_off_c, 2, 54, 80
3, 81120, Note_off_c, 2, 47, 80
3, 81120, Note_on_c, 2, 74, 95
3, 81120, Note_on_c, 2, 59, 95
3, 81120, Note_on_c, 2, 54, 95
3, 81120, Note_on_c, 2, 47, 95
3, 81360, Note_off_c, 2, 74, 80
3, 81360, Note_off_c, 2, 59, 80
3, 81360, Note_off_c, 2, 54, 80
3, 81360, Note_off_c, 2, 47, 80
3, 81360, Note_on_c, 2, 78, 95
3, 81360, Note_on_c, 2, 59, 95
3, 81360, Note_on_c, 2, 54, 95
3, 81360, Note_on_c, 2, 47, 95
3, 81600, Note_off_c, 2, 78, 80
3, 81600, Note_off_c, 2, 59, 80
3, 81600, Note_off_c, 2, 54, 80
3, 81600, Note_off_c, 2, 47, 80
3, 81600, Note_on_c, 2, 74, 95
3, 81600, Note_on_c, 2, 59, 95
3, 81600, Note_on_c, 2, 54, 95
3, 81600, Note_on_c, 2, 47, 95
3, 81840, Note_off_c, 2, 74, 80
3, 81840, Note_off_c, 2, 59, 80
3, 81840, Note_off_c, 2, 54, 80
3, 81840, Note_off_c, 2, 47, 80
3, 81840, Note_on_c, 2, 78, 95
3, 81840, Note_on_c, 2, 59, 95
3, 81840, Note_on_c, 2, 54, 95
3, 81840, Note_on_c, 2, 47, 95
3, 82080, Note_off_c, 2, 78, 80
3, 82080, Note_off_c, 2, 59, 80
3, 82080, Note_off_c, 2, 54, 80
3, 82080, Note_off_c, 2, 47, 80
3, 82080, Note_on_c, 2, 74, 95
3, 82080, Note_on_c, 2, 59, 95
3, 82080, Note_on_c, 2, 54, 95
3, 82080, Note_on_c, 2, 47, 95
3, 82320, Note_off_c, 2, 74, 80
3, 82320, Note_off_c, 2, 59, 80
3, 82320, Note_off_c, 2, 54, 80
3, 82320, Note_off_c, 2, 47, 80
3, 82320, Note_on_c, 2, 78, 95
3, 82320, Note_on_c, 2, 59, 95
3, 82320, Note_on_c, 2, 54, 95
3, 82320, Note_on_c, 2, 47, 95
3, 82560, Note_off_c, 2, 78, 80
3, 82560, Note_off_c, 2, 59, 80
3, 82560, Note_off_c, 2, 54, 80
3, 82560, Note_off_c, 2, 47, 80
3, 82560, Note_on_c, 2, 74, 95
3, 82560, Note_on_c, 2, 62, 95
3, 82560, Note_on_c, 2, 57, 95
3, 82560, Note_on_c, 2, 50, 95
3, 82800, Note_off_c, 2, 74, 80
3, 82800, Note_off_c, 2, 62, 80
3, 82800, Note_off_c, 2, 57, 80
3, 82800, Note_off_c, 2, 50, 80
3, 82800, Note_on_c, 2, 78, 95
3, 82800, Note_on_c, 2, 62, 95
3, 82800, Note_on_c, 2, 57, 95
3, 82800, Note_on_c, 2, 50, 95
3, 83040, Note_off_c, 2, 78, 80
3, 83040, Note_off_c, 2, 62, 80
3, 83040, Note_off_c, 2, 57, 80
3, 83040, Note_off_c, 2, 50, 80
3, 83040, Note_on_c, 2, 74, 95
3, 83040, Note_on_c, 2, 62, 95
3, 83040, Note_on_c, 2, 57, 95
3, 83040, Note_on_c, 2, 50, 95
3, 83280, Note_off_c, 2, 74, 80
3, 83280, Note_off_c, 2, 62, 80
3, 83280, Note_off_c, 2, 57, 80
3, 83280, Note_off_c, 2, 50, 80
3, 83280, Note_on_c, 2, 78, 95
3, 83280, Note_on_c, 2, 62, 95
3, 83280, Note_on_c, 2, 57, 95
3, 83280, Note_on_c, 2, 50, 95
3, 83520, Note_off_c, 2, 78, 80
3, 83520, Note_off_c, 2, 62, 80
3, 83520, Note_off_c, 2, 57, 80
3, 83520, Note_off_c, 2, 50, 80
3, 83520, Note_on_c, 2, 74, 95
3, 83520, Note_on_c, 2, 62, 95
3, 83520, Note_on_c, 2, 57, 95
3, 83520, Note_on_c, 2, 50, 95
3, 83760, Note_off_c, 2, 74, 80
3, 83760, Note_off_c, 2, 62, 80
3, 83760, Note_off_c, 2, 57, 80
3, 83760, Note_off_c, 2, 50, 80
3, 83760, Note_on_c, 2, 78, 95
3, 83760, Note_on_c, 2, 62, 95
3, 83760, Note_on_c, 2, 57, 95
3, 83760, Note_on_c, 2, 50, 95
3, 84000, Note_off_c, 2, 78, 80
3, 84000, Note_off_c, 2, 62, 80
3, 84000, Note_off_c, 2, 57, 80
3, 84000, Note_off_c, 2, 50, 80
3, 84000, Note_on_c, 2, 74, 95
3, 84000, Note_on_c, 2, 62, 95
3, 84000, Note_on_c, 2, 57, 95
3, 84000, Note_on_c, 2, 50, 95
3, 84240, Note_off_c, 2, 74, 80
3, 84240, Note_off_c, 2, 62, 80
3, 84240, Note_off_c, 2, 57, 80
3, 84240, Note_off_c, 2, 50, 80
3, 84240, Note_on_c, 2, 78, 95
3, 84240, Note_on_c, 2, 62, 95
3, 84240, Note_on_c, 2, 57, 95
3, 84240, Note_on_c, 2, 50, 95
3, 84480, Note_off_c, 2, 78, 80
3, 84480, Note_off_c, 2, 62, 80
3, 84480, Note_off_c, 2, 57, 80
3, 84480, Note_off_c, 2, 50, 80
3, 84480, Program_c, 2, 28
3, 84480, Program_c, 3, 28
3, 84480, Note_on_c, 2, 52, 95
3, 84480, Note_on_c, 2, 47, 95
3, 84480, Note_on_c, 2, 40, 95
3, 84720, Note_off_c, 2, 52, 80
3, 84720, Note_off_c, 2, 47, 80
3, 84720, Note_off_c, 2, 40, 80
3, 84720, Note_on_c, 2, 52, 95
3, 84720, Note_on_c, 2, 47, 95
3, 84720, Note_on_c, 2, 40, 95
3, 84960, Note_off_c, 2, 52, 80
3, 84960, Note_off_c, 2, 47, 80
3, 84960, Note_off_c, 2, 40, 80
3, 84960, Note_on_c, 2, 54, 95
3, 84960, Note_on_c, 2, 49, 95
3, 84960, Note_on_c, 2, 42, 95
3, 85200, Note_off_c, 2, 54, 80
3, 85200, Note_off_c, 2, 49, 80
3, 85200, Note_off_c, 2, 42, 80
3, 85200, Note_on_c, 2, 54, 95
3, 85200, Note_on_c, 2, 49, 95
3, 85200, Note_on_c, 2, 42, 95
3, 85440, Note_off_c, 2, 54, 80
3, 85440, Note_off_c, 2, 49, 80
3, 85440, Note_off_c, 2, 42, 80
3, 85440, Note_on_c, 2, 54, 95
3, 85440, Note_on_c, 2, 49, 95
3, 85440, Note_on_c, 2, 42, 95
3, 85680, Note_off_c, 2, 54, 80
3, 85680, Note_off_c, 2, 49, 80
3, 85680, Note_off_c, 2, 42, 80
3, 85680, Note_on_c, 2, 54, 95
3, 85680, Note_on_c, 2, 49, 95
3, 85680, Note_on_c, 2, 42, 95
3, 85920, Note_off_c, 2, 54, 80
3, 85920, Note_off_c, 2, 49, 80
3, 85920, Note_off_c, 2, 42, 80
3, 85920, Note_on_c, 2, 57, 95
3, 85920, Note_on_c, 2, 52, 95
3, 85920, Note_on_c, 2, 45, 95
3, 86160, Note_off_c, 2, 57, 80
3, 86160, Note_off_c, 2, 52, 80
3, 86160, Note_off_c, 2, 45, 80
3, 86160, Note_on_c, 2, 57, 95
3, 86160, Note_on_c, 2, 52, 95
3, 86160, Note_on_c, 2, 45, 95
3, 86400, Note_off_c, 2, 57, 80
3, 86400, Note_off_c, 2, 52, 80
3, 86400, Note_off_c, 2, 45, 80
3, 86400, Note_on_c, 2, 62, 95
3, 86400, Note_on_c, 2, 57, 95
3, 86400, Note_on_c, 2, 50, 95
3, 86640, Note_off_c, 2, 62, 80
3, 86640, Note_off_c, 2, 57, 80
3, 86640, Note_off_c, 2, 50, 80
3, 86640, Note_on_c, 2, 62, 95
3, 86640, Note_on_c, 2, 57, 95
3, 86640, Note_on_c, 2, 50, 95
3, 86880, Note_off_c, 2, 62, 80
3, 86880, Note_off_c, 2, 57, 80
3, 86880, Note_off_c, 2, 50, 80
3, 86880, Note_on_c, 2, 62, 95
3, 86880, Note_on_c, 2, 57, 95
3, 86880, Note_on_c, 2, 50, 95
3, 87120, Note_off_c, 2, 62, 80
3, 87120, Note_off_c, 2, 57, 80
3, 87120, Note_off_c, 2, 50, 80
3, 87120, Note_on_c, 2, 62, 95
3, 87120, Note_on_c, 2, 57, 95
3, 87120, Note_on_c, 2, 50, 95
3, 87360, Note_off_c, 2, 62, 80
3, 87360, Note_off_c, 2, 57, 80
3, 87360, Note_off_c, 2, 50, 80
3, 87360, Note_on_c, 2, 62, 95
3, 87360, Note_on_c, 2, 57, 95
3, 87360, Note_on_c, 2, 50, 95
3, 87600, Note_off_c, 2, 62, 80
3, 87600, Note_off_c, 2, 57, 80
3, 87600, Note_off_c, 2, 50, 80
3, 87600, Note_on_c, 2, 62, 95
3, 87600, Note_on_c, 2, 57, 95
3, 87600, Note_on_c, 2, 50, 95
3, 87840, Note_off_c, 2, 62, 80
3, 87840, Note_off_c, 2, 57, 80
3, 87840, Note_off_c, 2, 50, 80
3, 87840, Note_on_c, 2, 62, 95
3, 87840, Note_on_c, 2, 57, 95
3, 87840, Note_on_c, 2, 50, 95
3, 88080, Note_off_c, 2, 62, 80
3, 88080, Note_off_c, 2, 57, 80
3, 88080, Note_off_c, 2, 50, 80
3, 88080, Note_on_c, 2, 62, 95
3, 88080, Note_on_c, 2, 57, 95
3, 88080, Note_on_c, 2, 50, 95
3, 88320, Note_off_c, 2, 62, 80
3, 88320, Note_off_c, 2, 57, 80
3, 88320, Note_off_c, 2, 50, 80
3, 88320, Note_on_c, 2, 59, 95
3, 88320, Note_on_c, 2, 54, 95
3, 88320, Note_on_c, 2, 47, 95
3, 88560, Note_off_c, 2, 59, 80
3, 88560, Note_off_c, 2, 54, 80
3, 88560, Note_off_c, 2, 47, 80
3, 88560, Note_on_c, 2, 59, 95
3, 88560, Note_on_c, 2, 54, 95
3, 88560, Note_on_c, 2, 47, 95
3, 88800, Note_off_c, 2, 59, 80
3, 88800, Note_off_c, 2, 54, 80
3, 88800, Note_off_c, 2, 47, 80
3, 88800, Note_on_c, 2, 59, 95
3, 88800, Note_on_c, 2, 54, 95
3, 88800, Note_on_c, 2, 47, 95
3, 89040, Note_off_c, 2, 59, 80
3, 89040, Note_off_c, 2, 54, 80
3, 89040, Note_off_c, 2, 47, 80
3, 89040, Note_on_c, 2, 59, 95
3, 89040, Note_on_c, 2, 54, 95
3, 89040, Note_on_c, 2, 47, 95
3, 89280, Note_off_c, 2, 59, 80
3, 89280, Note_off_c, 2, 54, 80
3, 89280, Note_off_c, 2, 47, 80
3, 89280, Note_on_c, 2, 59, 95
3, 89280, Note_on_c, 2, 54, 95
3, 89280, Note_on_c, 2, 47, 95
3, 89520, Note_off_c, 2, 59, 80
3, 89520, Note_off_c, 2, 54, 80
3, 89520, Note_off_c, 2, 47, 80
3, 89520, Note_on_c, 2, 59, 95
3, 89520, Note_on_c, 2, 54, 95
3, 89520, Note_on_c, 2, 47, 95
3, 89760, Note_off_c, 2, 59, 80
3, 89760, Note_off_c, 2, 54, 80
3, 89760, Note_off_c, 2, 47, 80
3, 89760, Note_on_c, 2, 59, 95
3, 89760, Note_on_c, 2, 54, 95
3, 89760, Note_on_c, 2, 47, 95
3, 90000, Note_off_c, 2, 59, 80
3, 90000, Note_off_c, 2, 54, 80
3, 90000, Note_off_c, 2, 47, 80
3, 90000, Note_on_c, 2, 59, 95
3, 90000, Note_on_c, 2, 54, 95
3, 90000, Note_on_c, 2, 47, 95
3, 90240, Note_off_c, 2, 59, 80
3, 90240, Note_off_c, 2, 54, 80
3, 90240, Note_off_c, 2, 47, 80
3, 90240, Note_on_c, 2, 62, 95
3, 90240, Note_on_c, 2, 57, 95
3, 90240, Note_on_c, 2, 50, 95
3, 90480, Note_off_c, 2, 62, 80
3, 90480, Note_off_c, 2, 57, 80
3, 90480, Note_off_c, 2, 50, 80
3, 90480, Note_on_c, 2, 62, 95
3, 90480, Note_on_c, 2, 57, 95
3, 90480, Note_on_c, 2, 50, 95
3, 90720, Note_off_c, 2, 62, 80
3, 90720, Note_off_c, 2, 57, 80
3, 90720, Note_off_c, 2, 50, 80
3, 90720, Note_on_c, 2, 62, 95
3, 90720, Note_on_c, 2, 57, 95
3, 90720, Note_on_c, 2, 50, 95
3, 90960, Note_off_c, 2, 62, 80
3, 90960, Note_off_c, 2, 57, 80
3, 90960, Note_off_c, 2, 50, 80
3, 90960, Note_on_c, 2, 62, 95
3, 90960, Note_on_c, 2, 57, 95
3, 90960, Note_on_c, 2, 50, 95
3, 91200, Note_off_c, 2, 62, 80
3, 91200, Note_off_c, 2, 57, 80
3, 91200, Note_off_c, 2, 50, 80
3, 91200, Note_on_c, 2, 62, 95
3, 91200, Note_on_c, 2, 57, 95
3, 91200, Note_on_c, 2, 50, 95
3, 91440, Note_off_c, 2, 62, 80
3, 91440, Note_off_c, 2, 57, 80
3, 91440, Note_off_c, 2, 50, 80
3, 91440, Note_on_c, 2, 62, 95
3, 91440, Note_on_c, 2, 57, 95
3, 91440, Note_on_c, 2, 50, 95
3, 91680, Note_off_c, 2, 62, 80
3, 91680, Note_off_c, 2, 57, 80
3, 91680, Note_off_c, 2, 50, 80
3, 91680, Note_on_c, 2, 62, 95
3, 91680, Note_on_c, 2, 57, 95
3, 91680, Note_on_c, 2, 50, 95
3, 91920, Note_off_c, 2, 62, 80
3, 91920, Note_off_c, 2, 57, 80
3, 91920, Note_off_c, 2, 50, 80
3, 91920, Note_on_c, 2, 62, 95
3, 91920, Note_on_c, 2, 57, 95
3, 91920, Note_on_c, 2, 50, 95
3, 92160, Note_off_c, 2, 62, 80
3, 92160, Note_off_c, 2, 57, 80
3, 92160, Note_off_c, 2, 50, 80
3, 92160, Program_c, 2, 28
3, 92160, Program_c, 3, 28
3, 92160, Note_on_c, 2, 52, 95
3, 92160, Note_on_c, 2, 47, 95
3, 92160, Note_on_c, 2, 40, 95
3, 92400, Note_off_c, 2, 52, 80
3, 92400, Note_off_c, 2, 47, 80
3, 92400, Note_off_c, 2, 40, 80
3, 92400, Note_on_c, 2, 52, 95
3, 92400, Note_on_c, 2, 47, 95
3, 92400, Note_on_c, 2, 40, 95
3, 92640, Note_off_c, 2, 52, 80
3, 92640, Note_off_c, 2, 47, 80
3, 92640, Note_off_c, 2, 40, 80
3, 92640, Note_on_c, 2, 54, 95
3, 92640, Note_on_c, 2, 49, 95
3, 92640, Note_on_c, 2, 42, 95
3, 92880, Note_off_c, 2, 54, 80
3, 92880, Note_off_c, 2, 49, 80
3, 92880, Note_off_c, 2, 42, 80
3, 92880, Note_on_c, 2, 54, 95
3, 92880, Note_on_c, 2, 49, 95
3, 92880, Note_on_c, 2, 42, 95
3, 93120, Note_off_c, 2, 54, 80
3, 93120, Note_off_c, 2, 49, 80
3, 93120, Note_off_c, 2, 42, 80
3, 93120, Note_on_c, 2, 54, 95
3, 93120, Note_on_c, 2, 49, 95
3, 93120, Note_on_c, 2, 42, 95
3, 93360, Note_off_c, 2, 54, 80
3, 93360, Note_off_c, 2, 49, 80
3, 93360, Note_off_c, 2, 42, 80
3, 93360, Note_on_c, 2, 54, 95
3, 93360, Note_on_c, 2, 49, 95
3, 93360, Note_on_c, 2, 42, 95
3, 93600, Note_off_c, 2, 54, 80
3, 93600, Note_off_c, 2, 49, 80
3, 93600, Note_off_c, 2, 42, 80
3, 93600, Note_on_c, 2, 57, 95
3, 93600, Note_on_c, 2, 52, 95
3, 93600, Note_on_c, 2, 45, 95
3, 93840, Note_off_c, 2, 57, 80
3, 93840, Note_off_c, 2, 52, 80
3, 93840, Note_off_c, 2, 45, 80
3, 93840, Note_on_c, 2, 57, 95
3, 93840, Note_on_c, 2, 52, 95
3, 93840, Note_on_c, 2, 45, 95
3, 94080, Note_off_c, 2, 57, 80
3, 94080, Note_off_c, 2, 52, 80
3, 94080, Note_off_c, 2, 45, 80
3, 94080, Note_on_c, 2, 62, 95
3, 94080, Note_on_c, 2, 57, 95
3, 94080, Note_on_c, 2, 50, 95
3, 94320, Note_off_c, 2, 62, 80
3, 94320, Note_off_c, 2, 57, 80
3, 94320, Note_off_c, 2, 50, 80
3, 94320, Note_on_c, 2, 62, 95
3, 94320, Note_on_c, 2, 57, 95
3, 94320, Note_on_c, 2, 50, 95
3, 94560, Note_off_c, 2, 62, 80
3, 94560, Note_off_c, 2, 57, 80
3, 94560, Note_off_c, 2, 50, 80
3, 94560, Note_on_c, 2, 62, 95
3, 94560, Note_on_c, 2, 57, 95
3, 94560, Note_on_c, 2, 50, 95
3, 94800, Note_off_c, 2, 62, 80
3, 94800, Note_off_c, 2, 57, 80
3, 94800, Note_off_c, 2, 50, 80
3, 94800, Note_on_c, 2, 62, 95
3, 94800, Note_on_c, 2, 57, 95
3, 94800, Note_on_c, 2, 50, 95
3, 95040, Note_off_c, 2, 62, 80
3, 95040, Note_off_c, 2, 57, 80
3, 95040, Note_off_c, 2, 50, 80
3, 95040, Note_on_c, 2, 62, 95
3, 95040, Note_on_c, 2, 57, 95
3, 95040, Note_on_c, 2, 50, 95
3, 95280, Note_off_c, 2, 62, 80
3, 95280, Note_off_c, 2, 57, 80
3, 95280, Note_off_c, 2, 50, 80
3, 95280, Note_on_c, 2, 62, 95
3, 95280, Note_on_c, 2, 57, 95
3, 95280, Note_on_c, 2, 50, 95
3, 95520, Note_off_c, 2, 62, 80
3, 95520, Note_off_c, 2, 57, 80
3, 95520, Note_off_c, 2, 50, 80
3, 95520, Note_on_c, 2, 62, 95
3, 95520, Note_on_c, 2, 57, 95
3, 95520, Note_on_c, 2, 50, 95
3, 95760, Note_off_c, 2, 62, 80
3, 95760, Note_off_c, 2, 57, 80
3, 95760, Note_off_c, 2, 50, 80
3, 95760, Note_on_c, 2, 62, 95
3, 95760, Note_on_c, 2, 57, 95
3, 95760, Note_on_c, 2, 50, 95
3, 96000, Note_off_c, 2, 62, 80
3, 96000, Note_off_c, 2, 57, 80
3, 96000, Note_off_c, 2, 50, 80
3, 96000, Note_on_c, 2, 59, 95
3, 96000, Note_on_c, 2, 54, 95
3, 96000, Note_on_c, 2, 47, 95
3, 96240, Note_off_c, 2, 59, 80
3, 96240, Note_off_c, 2, 54, 80
3, 96240, Note_off_c, 2, 47, 80
3, 96240, Note_on_c, 2, 59, 95
3, 96240, Note_on_c, 2, 54, 95
3, 96240, Note_on_c, 2, 47, 95
3, 96480, Note_off_c, 2, 59, 80
3, 96480, Note_off_c, 2, 54, 80
3, 96480, Note_off_c, 2, 47, 80
3, 96480, Note_on_c, 2, 59, 95
3, 96480, Note_on_c, 2, 54, 95
3, 96480, Note_on_c, 2, 47, 95
3, 96720, Note_off_c, 2, 59, 80
3, 96720, Note_off_c, 2, 54, 80
3, 96720, Note_off_c, 2, 47, 80
3, 96720, Note_on_c, 2, 59, 95
3, 96720, Note_on_c, 2, 54, 95
3, 96720, Note_on_c, 2, 47, 95
3, 96960, Note_off_c, 2, 59, 80
3, 96960, Note_off_c, 2, 54, 80
3, 96960, Note_off_c, 2, 47, 80
3, 96960, Note_on_c, 2, 59, 95
3, 96960, Note_on_c, 2, 54, 95
3, 96960, Note_on_c, 2, 47, 95
3, 97200, Note_off_c, 2, 59, 80
3, 97200, Note_off_c, 2, 54, 80
3, 97200, Note_off_c, 2, 47, 80
3, 97200, Note_on_c, 2, 59, 95
3, 97200, Note_on_c, 2, 54, 95
3, 97200, Note_on_c, 2, 47, 95
3, 97440, Note_off_c, 2, 59, 80
3, 97440, Note_off_c, 2, 54, 80
3, 97440, Note_off_c, 2, 47, 80
3, 97440, Note_on_c, 2, 59, 95
3, 97440, Note_on_c, 2, 54, 95
3, 97440, Note_on_c, 2, 47, 95
3, 97680, Note_off_c, 2, 59, 80
3, 97680, Note_off_c, 2, 54, 80
3, 97680, Note_off_c, 2, 47, 80
3, 97680, Note_on_c, 2, 59, 95
3, 97680, Note_on_c, 2, 54, 95
3, 97680, Note_on_c, 2, 47, 95
3, 97920, Note_off_c, 2, 59, 80
3, 97920, Note_off_c, 2, 54, 80
3, 97920, Note_off_c, 2, 47, 80
3, 97920, Note_on_c, 2, 62, 95
3, 97920, Note_on_c, 2, 57, 95
3, 97920, Note_on_c, 2, 50, 95
3, 98160, Note_off_c, 2, 62, 80
3, 98160, Note_off_c, 2, 57, 80
3, 98160, Note_off_c, 2, 50, 80
3, 98160, Note_on_c, 2, 62, 95
3, 98160, Note_on_c, 2, 57, 95
3, 98160, Note_on_c, 2, 50, 95
3, 98400, Note_off_c, 2, 62, 80
3, 98400, Note_off_c, 2, 57, 80
3, 98400, Note_off_c, 2, 50, 80
3, 98400, Note_on_c, 2, 62, 95
3, 98400, Note_on_c, 2, 57, 95
3, 98400, Note_on_c, 2, 50, 95
3, 98640, Note_off_c, 2, 62, 80
3, 98640, Note_off_c, 2, 57, 80
3, 98640, Note_off_c, 2, 50, 80
3, 98640, Note_on_c, 2, 62, 95
3, 98640, Note_on_c, 2, 57, 95
3, 98640, Note_on_c, 2, 50, 95
3, 98880, Note_off_c, 2, 62, 80
3, 98880, Note_off_c, 2, 57, 80
3, 98880, Note_off_c, 2, 50, 80
3, 98880, Note_on_c, 2, 62, 95
3, 98880, Note_on_c, 2, 57, 95
3, 98880, Note_on_c, 2, 50, 95
3, 99120, Note_off_c, 2, 62, 80
3, 99120, Note_off_c, 2, 57, 80
3, 99120, Note_off_c, 2, 50, 80
3, 99120, Note_on_c, 2, 62, 95
3, 99120, Note_on_c, 2, 57, 95
3, 99120, Note_on_c, 2, 50, 95
3, 99360, Note_off_c, 2, 62, 80
3, 99360, Note_off_c, 2, 57, 80
3, 99360, Note_off_c, 2, 50, 80
3, 99360, Note_on_c, 2, 62, 95
3, 99360, Note_on_c, 2, 57, 95
3, 99360, Note_on_c, 2, 50, 95
3, 99600, Note_off_c, 2, 62, 80
3, 99600, Note_off_c, 2, 57, 80
3, 99600, Note_off_c, 2, 50, 80
3, 99600, Note_on_c, 2, 62, 95
3, 99600, Note_on_c, 2, 57, 95
3, 99600, Note_on_c, 2, 50, 95
3, 99840, Note_off_c, 2, 62, 80
3, 99840, Note_off_c, 2, 57, 80
3, 99840, Note_off_c, 2, 50, 80
3, 99840, Program_c, 2, 28
3, 99840, Program_c, 3, 28
3, 99840, Note_on_c, 2, 52, 95
3, 99840, Note_on_c, 2, 47, 95
3, 99840, Note_on_c, 2, 40, 95
3, 100080, Note_off_c, 2, 52, 80
3, 100080, Note_off_c, 2, 47, 80
3, 100080, Note_off_c, 2, 40, 80
3, 100080, Note_on_c, 2, 52, 95
3, 100080, Note_on_c, 2, 47, 95
3, 100080, Note_on_c, 2, 40, 95
3, 100320, Note_off_c, 2, 52, 80
3, 100320, Note_off_c, 2, 47, 80
3, 100320, Note_off_c, 2, 40, 80
3, 100320, Note_on_c, 2, 54, 95
3, 100320, Note_on_c, 2, 49, 95
3, 100320, Note_on_c, 2, 42, 95
3, 100560, Note_off_c, 2, 54, 80
3, 100560, Note_off_c, 2, 49, 80
3, 100560, Note_off_c, 2, 42, 80
3, 100560, Note_on_c, 2, 54, 95
3, 100560, Note_on_c, 2, 49, 95
3, 100560, Note_on_c, 2, 42, 95
3, 100800, Note_off_c, 2, 54, 80
3, 100800, Note_off_c, 2, 49, 80
3, 100800, Note_off_c, 2, 42, 80
3, 100800, Note_on_c, 2, 54, 95
3, 100800, Note_on_c, 2, 49, 95
3, 100800, Note_on_c, 2, 42, 95
3, 101040, Note_off_c, 2, 54, 80
3, 101040, Note_off_c, 2, 49, 80
3, 101040, Note_off_c, 2, 42, 80
3, 101040, Note_on_c, 2, 54, 95
3, 101040, Note_on_c, 2, 49, 95
3, 101040, Note_on_c, 2, 42, 95
3, 101280, Note_off_c, 2, 54, 80
3, 101280, Note_off_c, 2, 49, 80
3, 101280, Note_off_c, 2, 42, 80
3, 101280, Note_on_c, 2, 57, 95
3, 101280, Note_on_c, 2, 52, 95
3, 101280, Note_on_c, 2, 45, 95
3, 101520, Note_off_c, 2, 57, 80
3, 101520, Note_off_c, 2, 52, 80
3, 101520, Note_off_c, 2, 45, 80
3, 101520, Note_on_c, 2, 57, 95
3, 101520, Note_on_c, 2, 52, 95
3, 101520, Note_on_c, 2, 45, 95
3, 101760, Note_off_c, 2, 57, 80
3, 101760, Note_off_c, 2, 52, 80
3, 101760, Note_off_c, 2, 45, 80
3, 101760, Program_c, 2, 29
3, 101760, Program_c, 3, 29
3, 101760, Note_on_c, 2, 50, 95
3, 103680, Note_off_c, 2, 50, 80
3, 103680, Note_on_c, 2, 47, 95
3, 105600, Note_off_c, 2, 47, 80
3, 105600, Note_on_c, 2, 50, 95
3, 107520, Note_off_c, 2, 50, 80
3, 107520, Program_c, 2, 28
3, 107520, Program_c, 3, 28
3, 107520, Note_on_c, 2, 52, 95
3, 107520, Note_on_c, 2, 47, 95
3, 107520, Note_on_c, 2, 40, 95
3, 107760, Note_off_c, 2, 52, 80
3, 107760, Note_off_c, 2, 47, 80
3, 107760, Note_off_c, 2, 40, 80
3, 107760, Note_on_c, 2, 52, 95
3, 107760, Note_on_c, 2, 47, 95
3, 107760, Note_on_c, 2, 40, 95
3, 108000, Note_off_c, 2, 52, 80
3, 108000, Note_off_c, 2, 47, 80
3, 108000, Note_off_c, 2, 40, 80
3, 108000, Note_on_c, 2, 54, 95
3, 108000, Note_on_c, 2, 49, 95
3, 108000, Note_on_c, 2, 42, 95
3, 108240, Note_off_c, 2, 54, 80
3, 108240, Note_off_c, 2, 49, 80
3, 108240, Note_off_c, 2, 42, 80
3, 108240, Note_on_c, 2, 54, 95
3, 108240, Note_on_c, 2, 49, 95
3, 108240, Note_on_c, 2, 42, 95
3, 108480, Note_off_c, 2, 54, 80
3, 108480, Note_off_c, 2, 49, 80
3, 108480, Note_off_c, 2, 42, 80
3, 108480, Note_on_c, 2, 54, 95
3, 108480, Note_on_c, 2, 49, 95
3, 108480, Note_on_c, 2, 42, 95
3, 108720, Note_off_c, 2, 54, 80
3, 108720, Note_off_c, 2, 49, 80
3, 108720, Note_off_c, 2, 42, 80
3, 108720, Note_on_c, 2, 54, 95
3, 108720, Note_on_c, 2, 49, 95
3, 108720, Note_on_c, 2, 42, 95
3, 108960, Note_off_c, 2, 54, 80
3, 108960, Note_off_c, 2, 49, 80
3, 108960, Note_off_c, 2, 42, 80
3, 108960, Note_on_c, 2, 57, 95
3, 108960, Note_on_c, 2, 52, 95
3, 108960, Note_on_c, 2, 45, 95
3, 109200, Note_off_c, 2, 57, 80
3, 109200, Note_off_c, 2, 52, 80
3, 109200, Note_off_c, 2, 45, 80
3, 109200, Note_on_c, 2, 57, 95
3, 109200, Note_on_c, 2, 52, 95
3, 109200, Note_on_c, 2, 45, 95
3, 109440, Note_off_c, 2, 57, 80
3, 109440, Note_off_c, 2, 52, 80
3, 109440, Note_off_c, 2, 45, 80
3, 109440, Program_c, 2, 29
3, 109440, Program_c, 3, 29
3, 109440, Note_on_c, 2, 50, 95
3, 111360, Note_off_c, 2, 50, 80
3, 111360, Note_on_c, 2, 47, 95
3, 113280, Note_off_c, 2, 47, 80
3, 113280, Note_on_c, 2, 50, 95
3, 115200, Note_off_c, 2, 50, 80
3, 115200, Program_c, 2, 28
3, 115200, Program_c, 3, 28
3, 115200, Note_on_c, 2, 52, 95
3, 115200, Note_on_c, 2, 47, 95
3, 115200, Note_on_c, 2, 40, 95
3, 115440, Note_off_c, 2, 52, 80
3, 115440, Note_off_c, 2, 47, 80
3, 115440, Note_off_c, 2, 40, 80
3, 115440, Note_on_c, 2, 52, 95
3, 115440, Note_on_c, 2, 47, 95
3, 115440, Note_on_c, 2, 40, 95
3, 115680, Note_off_c, 2, 52, 80
3, 115680, Note_off_c, 2, 47, 80
3, 115680, Note_off_c, 2, 40, 80
3, 115680, Note_on_c, 2, 54, 95
3, 115680, Note_on_c, 2, 49, 95
3, 115680, Note_on_c, 2, 42, 95
3, 115920, Note_off_c, 2, 54, 80
3, 115920, Note_off_c, 2, 49, 80
3, 115920, Note_off_c, 2, 42, 80
3, 115920, Note_on_c, 2, 54, 95
3, 115920, Note_on_c, 2, 49, 95
3, 115920, Note_on_c, 2, 42, 95
3, 116160, Note_off_c, 2, 54, 80
3, 116160, Note_off_c, 2, 49, 80
3, 116160, Note_off_c, 2, 42, 80
3, 116160, Note_on_c, 2, 54, 95
3, 116160, Note_on_c, 2, 49, 95
3, 116160, Note_on_c, 2, 42, 95
3, 116400, Note_off_c, 2, 54, 80
3, 116400, Note_off_c, 2, 49, 80
3, 116400, Note_off_c, 2, 42, 80
3, 116400, Note_on_c, 2, 54, 95
3, 116400, Note_on_c, 2, 49, 95
3, 116400, Note_on_c, 2, 42, 95
3, 116640, Note_off_c, 2, 54, 80
3, 116640, Note_off_c, 2, 49, 80
3, 116640, Note_off_c, 2, 42, 80
3, 116640, Note_on_c, 2, 57, 95
3, 116640, Note_on_c, 2, 52, 95
3, 116640, Note_on_c, 2, 45, 95
3, 116880, Note_off_c, 2, 57, 80
3, 116880, Note_off_c, 2, 52, 80
3, 116880, Note_off_c, 2, 45, 80
3, 116880, Note_on_c, 2, 57, 95
3, 116880, Note_on_c, 2, 52, 95
3, 116880, Note_on_c, 2, 45, 95
3, 117120, Note_off_c, 2, 57, 80
3, 117120, Note_off_c, 2, 52, 80
3, 117120, Note_off_c, 2, 45, 80
3, 117120, Note_on_c, 2, 62, 95
3, 117120, Note_on_c, 2, 57, 95
3, 117120, Note_on_c, 2, 50, 95
3, 117360, Note_off_c, 2, 62, 80
3, 117360, Note_off_c, 2, 57, 80
3, 117360, Note_off_c, 2, 50, 80
3, 117360, Note_on_c, 2, 62, 95
3, 117360, Note_on_c, 2, 57, 95
3, 117360, Note_on_c, 2, 50, 95
3, 117600, Note_off_c, 2, 62, 80
3, 117600, Note_off_c, 2, 57, 80
3, 117600, Note_off_c, 2, 50, 80
3, 117600, Note_on_c, 2, 62, 95
3, 117600, Note_on_c, 2, 57, 95
3, 117600, Note_on_c, 2, 50, 95
3, 117840, Note_off_c, 2, 62, 80
3, 117840, Note_off_c, 2, 57, 80
3, 117840, Note_off_c, 2, 50, 80
3, 117840, Note_on_c, 2, 62, 95
3, 117840, Note_on_c, 2, 57, 95
3, 117840, Note_on_c, 2, 50, 95
3, 118080, Note_off_c, 2, 62, 80
3, 118080, Note_off_c, 2, 57, 80
3, 118080, Note_off_c, 2, 50, 80
3, 118080, Note_on_c, 2, 62, 95
3, 118080, Note_on_c, 2, 57, 95
3, 118080, Note_on_c, 2, 50, 95
3, 118320, Note_off_c, 2, 62, 80
3, 118320, Note_off_c, 2, 57, 80
3, 118320, Note_off_c, 2, 50, 80
3, 118320, Note_on_c, 2, 62, 95
3, 118320, Note_on_c, 2, 57, 95
3, 118320, Note_on_c, 2, 50, 95
3, 118560, Note_off_c, 2, 62, 80
3, 118560, Note_off_c, 2, 57, 80
3, 118560, Note_off_c, 2, 50, 80
3, 118560, Note_on_c, 2, 62, 95
3, 118560, Note_on_c, 2, 57, 95
3, 118560, Note_on_c, 2, 50, 95
3, 118800, Note_off_c, 2, 62, 80
3, 118800, Note_off_c, 2, 57, 80
3, 118800, Note_off_c, 2, 50, 80
3, 118800, Note_on_c, 2, 62, 95
3, 118800, Note_on_c, 2, 57, 95
3, 118800, Note_on_c, 2, 50, 95
3, 119040, Note_off_c, 2, 62, 80
3, 119040, Note_off_c, 2, 57, 80
3, 119040, Note_off_c, 2, 50, 80
3, 119040, Note_on_c, 2, 59, 95
3, 119040, Note_on_c, 2, 54, 95
3, 119040, Note_on_c, 2, 47, 95
3, 119280, Note_off_c, 2, 59, 80
3, 119280, Note_off_c, 2, 54, 80
3, 119280, Note_off_c, 2, 47, 80
3, 119280, Note_on_c, 2, 59, 95
3, 119280, Note_on_c, 2, 54, 95
3, 119280, Note_on_c, 2, 47, 95
3, 119520, Note_off_c, 2, 59, 80
3, 119520, Note_off_c, 2, 54, 80
3, 119520, Note_off_c, 2, 47, 80
3, 119520, Note_on_c, 2, 59, 95
3, 119520, Note_on_c, 2, 54, 95
3, 119520, Note_on_c, 2, 47, 95
3, 119760, Note_off_c, 2, 59, 80
3, 119760, Note_off_c, 2, 54, 80
3, 119760, Note_off_c, 2, 47, 80
3, 119760, Note_on_c, 2, 59, 95
3, 119760, Note_on_c, 2, 54, 95
3, 119760, Note_on_c, 2, 47, 95
3, 120000, Note_off_c, 2, 59, 80
3, 120000, Note_off_c, 2, 54, 80
3, 120000, Note_off_c, 2, 47, 80
3, 120000, Note_on_c, 2, 59, 95
3, 120000, Note_on_c, 2, 54, 95
3, 120000, Note_on_c, 2, 47, 95
3, 120240, Note_off_c, 2, 59, 80
3, 120240, Note_off_c, 2, 54, 80
3, 120240, Note_off_c, 2, 47, 80
3, 120240, Note_on_c, 2, 59, 95
3, 120240, Note_on_c, 2, 54, 95
3, 120240, Note_on_c, 2, 47, 95
3, 120480, Note_off_c, 2, 59, 80
3, 120480, Note_off_c, 2, 54, 80
3, 120480, Note_off_c, 2, 47, 80
3, 120480, Note_on_c, 2, 59, 95
3, 120480, Note_on_c, 2, 54, 95
3, 120480, Note_on_c, 2, 47, 95
3, 120720, Note_off_c, 2, 59, 80
3, 120720, Note_off_c, 2, 54, 80
3, 120720, Note_off_c, 2, 47, 80
3, 120720, Note_on_c, 2, 59, 95
3, 120720, Note_on_c, 2, 54, 95
3, 120720, Note_on_c, 2, 47, 95
3, 120960, Note_off_c, 2, 59, 80
3, 120960, Note_off_c, 2, 54, 80
3, 120960, Note_off_c, 2, 47, 80
3, 120960, Note_on_c, 2, 62, 95
3, 120960, Note_on_c, 2, 57, 95
3, 120960, Note_on_c, 2, 50, 95
3, 121200, Note_off_c, 2, 62, 80
3, 121200, Note_off_c, 2, 57, 80
3, 121200, Note_off_c, 2, 50, 80
3, 121200, Note_on_c, 2, 62, 95
3, 121200, Note_on_c, 2, 57, 95
3, 121200, Note_on_c, 2, 50, 95
3, 121440, Note_off_c, 2, 62, 80
3, 121440, Note_off_c, 2, 57, 80
3, 121440, Note_off_c, 2, 50, 80
3, 121440, Note_on_c, 2, 62, 95
3, 121440, Note_on_c, 2, 57, 95
3, 121440, Note_on_c, 2, 50, 95
3, 121680, Note_off_c, 2, 62, 80
3, 121680, Note_off_c, 2, 57, 80
3, 121680, Note_off_c, 2, 50, 80
3, 121680, Note_on_c, 2, 62, 95
3, 121680, Note_on_c, 2, 57, 95
3, 121680, Note_on_c, 2, 50, 95
3, 121920, Note_off_c, 2, 62, 80
3, 121920, Note_off_c, 2, 57, 80
3, 121920, Note_off_c, 2, 50, 80
3, 121920, Note_on_c, 2, 62, 95
3, 121920, Note_on_c, 2, 57, 95
3, 121920, Note_on_c, 2, 50, 95
3, 122160, Note_off_c, 2, 62, 80
3, 122160, Note_off_c, 2, 57, 80
3, 122160, Note_off_c, 2, 50, 80
3, 122160, Note_on_c, 2, 62, 95
3, 122160, Note_on_c, 2, 57, 95
3, 122160, Note_on_c, 2, 50, 95
3, 122400, Note_off_c, 2, 62, 80
3, 122400, Note_off_c, 2, 57, 80
3, 122400, Note_off_c, 2, 50, 80
3, 122400, Note_on_c, 2, 62, 95
3, 122400, Note_on_c, 2, 57, 95
3, 122400, Note_on_c, 2, 50, 95
3, 122640, Note_off_c, 2, 62, 80
3, 122640, Note_off_c, 2, 57, 80
3, 122640, Note_off_c, 2, 50, 80
3, 122640, Note_on_c, 2, 62, 95
3, 122640, Note_on_c, 2, 57, 95
3, 122640, Note_on_c, 2, 50, 95
3, 122880, Note_off_c, 2, 62, 80
3, 122880, Note_off_c, 2, 57, 80
3, 122880, Note_off_c, 2, 50, 80
3, 122880, Program_c, 2, 28
3, 122880, Program_c, 3, 28
3, 122880, Control_c, 2, 7, 88
3, 122880, Control_c, 3, 7, 88
3, 122880, Note_on_c, 2, 74, 95
3, 122880, Note_on_c, 2, 52, 95
3, 122880, Note_on_c, 2, 47, 95
3, 122880, Note_on_c, 2, 40, 95
3, 123120, Note_off_c, 2, 74, 80
3, 123120, Note_off_c, 2, 52, 80
3, 123120, Note_off_c, 2, 47, 80
3, 123120, Note_off_c, 2, 40, 80
3, 123120, Note_on_c, 2, 78, 95
3, 123120, Note_on_c, 2, 52, 95
3, 123120, Note_on_c, 2, 47, 95
3, 123120, Note_on_c, 2, 40, 95
3, 123360, Note_off_c, 2, 78, 80
3, 123360, Note_off_c, 2, 52, 80
3, 123360, Note_off_c, 2, 47, 80
3, 123360, Note_off_c, 2, 40, 80
3, 123360, Note_on_c, 2, 74, 95
3, 123360, Note_on_c, 2, 54, 95
3, 123360, Note_on_c, 2, 49, 95
3, 123360, Note_on_c, 2, 42, 95
3, 123600, Note_off_c, 2, 74, 80
3, 123600, Note_off_c, 2, 54, 80
3, 123600, Note_off_c, 2, 49, 80
3, 123600, Note_off_c, 2, 42, 80
3, 123600, Note_on_c, 2, 78, 95
3, 123600, Note_on_c, 2, 54, 95
3, 123600, Note_on_c, 2, 49, 95
3, 123600, Note_on_c, 2, 42, 95
3, 123840, Note_off_c, 2, 78, 80
3, 123840, Note_off_c, 2, 54, 80
3, 123840, Note_off_c, 2, 49, 80
3, 123840, Note_off_c, 2, 42, 80
3, 123840, Note_on_c, 2, 74, 95
3, 123840, Note_on_c, 2, 54, 95
3, 123840, Note_on_c, 2, 49, 95
3, 123840, Note_on_c, 2, 42, 95
3, 124080, Note_off_c, 2, 74, 80
3, 124080, Note_off_c, 2, 54, 80
3, 124080, Note_off_c, 2, 49, 80
3, 124080, Note_off_c, 2, 42, 80
3, 124080, Note_on_c, 2, 78, 95
3, 124080, Note_on_c, 2, 54, 95
3, 124080, Note_on_c, 2, 49, 95
3, 124080, Note_on_c, 2, 42, 95
3, 124320, Note_off_c, 2, 78, 80
3, 124320, Note_off_c, 2, 54, 80
3, 124320, Note_off_c, 2, 49, 80
3, 124320, Note_off_c, 2, 42, 80
3, 124320, Note_on_c, 2, 74, 95
3, 124320, Note_on_c, 2, 57, 95
3, 124320, Note_on_c, 2, 52, 95
3, 124320, Note_on_c, 2, 45, 95
3, 124560, Note_off_c, 2, 74, 80
3, 124560, Note_off_c, 2, 57, 80
3, 124560, Note_off_c, 2, 52, 80
3, 124560, Note_off_c, 2, 45, 80
3, 124560, Note_on_c, 2, 78, 95
3, 124560, Note_on_c, 2, 57, 95
3, 124560, Note_on_c, 2, 52, 95
3, 124560, Note_on_c, 2, 45, 95
3, 124800, Note_off_c, 2, 78, 80
3, 124800, Note_off_c, 2, 57, 80
3, 124800, Note_off_c, 2, 52, 80
3, 124800, Note_off_c, 2, 45, 80
3, 124800, Note_on_c, 2, 74, 95
3, 124800, Note_on_c, 2, 62, 95
3, 124800, Note_on_c, 2, 57, 95
3, 124800, Note_on_c, 2, 50, 95
3, 125040, Note_off_c, 2, 74, 80
3, 125040, Note_off_c, 2, 62, 80
3, 125040, Note_off_c, 2, 57, 80
3, 125040, Note_off_c, 2, 50, 80
3, 125040, Note_on_c, 2, 78, 95
3, 125040, Note_on_c, 2, 62, 95
3, 125040, Note_on_c, 2, 57, 95
3, 125040, Note_on_c, 2, 50, 95
3, 125280, Note_off_c, 2, 78, 80
3, 125280, Note_off_c, 2, 62, 80
3, 125280, Note_off_c, 2, 57, 80
3, 125280, Note_off_c, 2, 50, 80
3, 125280, Note_on_c, 2, 74, 95
3, 125280, Note_on_c, 2, 62, 95
3, 125280, Note_on_c, 2, 57, 95
3, 125280, Note_on_c, 2, 50, 95
3, 125520, Note_off_c, 2, 74, 80
3, 125520, Note_off_c, 2, 62, 80
3, 125520, Note_off_c, 2, 57, 80
3, 125520, Note_off_c, 2, 50, 80
3, 125520, Note_on_c, 2, 78, 95
3, 125520, Note_on_c, 2, 62, 95
3, 125520, Note_on_c, 2, 57, 95
3, 125520, Note_on_c, 2, 50, 95
3, 125760, Note_off_c, 2, 78, 80
3, 125760, Note_off_c, 2, 62, 80
3, 125760, Note_off_c, 2, 57, 80
3, 125760, Note_off_c, 2, 50, 80
3, 125760, Note_on_c, 2, 74, 95
3, 125760, Note_on_c, 2, 62, 95
3, 125760, Note_on_c, 2, 57, 95
3, 125760, Note_on_c, 2, 50, 95
3, 126000, Note_off_c, 2, 74, 80
3, 126000, Note_off_c, 2, 62, 80
3, 126000, Note_off_c, 2, 57, 80
3, 126000, Note_off_c, 2, 50, 80
3, 126000, Note_on_c, 2, 78, 95
3, 126000, Note_on_c, 2, 62, 95
3, 126000, Note_on_c, 2, 57, 95
3, 126000, Note_on_c, 2, 50, 95
3, 126240, Note_off_c, 2, 78, 80
3, 126240, Note_off_c, 2, 62, 80
3, 126240, Note_off_c, 2, 57, 80
3, 126240, Note_off_c, 2, 50, 80
3, 126240, Note_on_c, 2, 74, 95
3, 126240, Note_on_c, 2, 62, 95
3, 126240, Note_on_c, 2, 57, 95
3, 126240, Note_on_c, 2, 50, 95
3, 126480, Note_off_c, 2, 74, 80
3, 126480, Note_off_c, 2, 62, 80
3, 126480, Note_off_c, 2, 57, 80
3, 126480, Note_off_c, 2, 50, 80
3, 126480, Note_on_c, 2, 78, 95
3, 126480, Note_on_c, 2, 62, 95
3, 126480, Note_on_c, 2, 57, 95
3, 126480, Note_on_c, 2, 50, 95
3, 126720, Note_off_c, 2, 78, 80
3, 126720, Note_off_c, 2, 62, 80
3, 126720, Note_off_c, 2, 57, 80
3, 126720, Note_off_c, 2, 50, 80
3, 126720, Note_on_c, 2, 74, 95
3, 126720, Note_on_c, 2, 59, 95
3, 126720, Note_on_c, 2, 54, 95
3, 126720, Note_on_c, 2, 47, 95
3, 126960, Note_off_c, 2, 74, 80
3, 126960, Note_off_c, 2, 59, 80
3, 126960, Note_off_c, 2, 54, 80
3, 126960, Note_off_c, 2, 47, 80
3, 126960, Note_on_c, 2, 78, 95
3, 126960, Note_on_c, 2, 59, 95
3, 126960, Note_on_c, 2, 54, 95
3, 126960, Note_on_c, 2, 47, 95
3, 127200, Note_off_c, 2, 78, 80
3, 127200, Note_off_c, 2, 59, 80
3, 127200, Note_off_c, 2, 54, 80
3, 127200, Note_off_c, 2, 47, 80
3, 127200, Note_on_c, 2, 74, 95
3, 127200, Note_on_c, 2, 59, 95
3, 127200, Note_on_c, 2, 54, 95
3, 127200, Note_on_c, 2, 47, 95
3, 127440, Note_off_c, 2, 74, 80
3, 127440, Note_off_c, 2, 59, 80
3, 127440, Note_off_c, 2, 54, 80
3, 127440, Note_off_c, 2, 47, 80
3, 127440, Note_on_c, 2, 78, 95
3, 127440, Note_on_c, 2, 59, 95
3, 127440, Note_on_c, 2, 54, 95
3, 127440, Note_on_c, 2, 47, 95
3, 127680, Note_off_c, 2, 78, 80
3, 127680, Note_off_c, 2, 59, 80
3, 127680, Note_off_c, 2, 54, 80
3, 127680, Note_off_c, 2, 47, 80
3, 127680, Note_on_c, 2, 74, 95
3, 127680, Note_on_c, 2, 59, 95
3, 127680, Note_on_c, 2, 54, 95
3, 127680, Note_on_c, 2, 47, 95
3, 127920, Note_off_c, 2, 74, 80
3, 127920, Note_off_c, 2, 59, 80
3, 127920, Note_off_c, 2, 54, 80
3, 127920, Note_off_c, 2, 47, 80
3, 127920, Note_on_c, 2, 78, 95
3, 127920, Note_on_c, 2, 59, 95
3, 127920, Note_on_c, 2, 54, 95
3, 127920, Note_on_c, 2, 47, 95
3, 128160, Note_off_c, 2, 78, 80
3, 128160, Note_off_c, 2, 59, 80
3, 128160, Note_off_c, 2, 54, 80
3, 128160, Note_off_c, 2, 47, 80
3, 128160, Note_on_c, 2, 74, 95
3, 128160, Note_on_c, 2, 59, 95
3, 128160, Note_on_c, 2, 54, 95
3, 128160, Note_on_c, 2, 47, 95
3, 128400, Note_off_c, 2, 74, 80
3, 128400, Note_off_c, 2, 59, 80
3, 128400, Note_off_c, 2, 54, 80
3, 128400, Note_off_c, 2, 47, 80
3, 128400, Note_on_c, 2, 78, 95
3, 128400, Note_on_c, 2, 59, 95
3, 128400, Note_on_c, 2, 54, 95
3, 128400, Note_on_c, 2, 47, 95
3, 128640, Note_off_c, 2, 78, 80
3, 128640, Note_off_c, 2, 59, 80
3, 128640, Note_off_c, 2, 54, 80
3, 128640, Note_off_c, 2, 47, 80
3, 128640, Note_on_c, 2, 74, 95
3, 128640, Note_on_c, 2, 62, 95
3, 128640, Note_on_c, 2, 57, 95
3, 128640, Note_on_c, 2, 50, 95
3, 128880, Note_off_c, 2, 74, 80
3, 128880, Note_off_c, 2, 62, 80
3, 128880, Note_off_c, 2, 57, 80
3, 128880, Note_off_c, 2, 50, 80
3, 128880, Note_on_c, 2, 78, 95
3, 128880, Note_on_c, 2, 62, 95
3, 128880, Note_on_c, 2, 57, 95
3, 128880, Note_on_c, 2, 50, 95
3, 129120, Note_off_c, 2, 78, 80
3, 129120, Note_off_c, 2, 62, 80
3, 129120, Note_off_c, 2, 57, 80
3, 129120, Note_off_c, 2, 50, 80
3, 129120, Note_on_c, 2, 74, 95
3, 129120, Note_on_c, 2, 62, 95
3, 129120, Note_on_c, 2, 57, 95
3, 129120, Note_on_c, 2, 50, 95
3, 129360, Note_off_c, 2, 74, 80
3, 129360, Note_off_c, 2, 62, 80
3, 129360, Note_off_c, 2, 57, 80
3, 129360, Note_off_c, 2, 50, 80
3, 129360, Note_on_c, 2, 78, 95
3, 129360, Note_on_c, 2, 62, 95
3, 129360, Note_on_c, 2, 57, 95
3, 129360, Note_on_c, 2, 50, 95
3, 129600, Note_off_c, 2, 78, 80
3, 129600, Note_off_c, 2, 62, 80
3, 129600, Note_off_c, 2, 57, 80
3, 129600, Note_off_c, 2, 50, 80
3, 129600, Note_on_c, 2, 74, 95
3, 129600, Note_on_c, 2, 62, 95
3, 129600, Note_on_c, 2, 57, 95
3, 129600, Note_on_c, 2, 50, 95
3, 129840, Note_off_c, 2, 74, 80
3, 129840, Note_off_c, 2, 62, 80
3, 129840, Note_off_c, 2, 57, 80
3, 129840, Note_off_c, 2, 50, 80
3, 129840, Note_on_c, 2, 78, 95
3, 129840, Note_on_c, 2, 62, 95
3, 129840, Note_on_c, 2, 57, 95
3, 129840, Note_on_c, 2, 50, 95
3, 130080, Note_off_c, 2, 78, 80
3, 130080, Note_off_c, 2, 62, 80
3, 130080, Note_off_c, 2, 57, 80
3, 130080, Note_off_c, 2, 50, 80
3, 130080, Note_on_c, 2, 74, 95
3, 130080, Note_on_c, 2, 62, 95
3, 130080, Note_on_c, 2, 57, 95
3, 130080, Note_on_c, 2, 50, 95
3, 130320, Note_off_c, 2, 74, 80
3, 130320, Note_off_c, 2, 62, 80
3, 130320, Note_off_c, 2, 57, 80
3, 130320, Note_off_c, 2, 50, 80
3, 130320, Note_on_c, 2, 78, 95
3, 130320, Note_on_c, 2, 62, 95
3, 130320, Note_on_c, 2, 57, 95
3, 130320, Note_on_c, 2, 50, 95
3, 130560, Note_off_c, 2, 78, 80
3, 130560, Note_off_c, 2, 62, 80
3, 130560, Note_off_c, 2, 57, 80
3, 130560, Note_off_c, 2, 50, 80
3, 130560, Program_c, 2, 28
3, 130560, Program_c, 3, 28
3, 130560, Note_on_c, 2, 74, 95
3, 130560, Note_on_c, 2, 52, 95
3, 130560, Note_on_c, 2, 47, 95
3, 130560, Note_on_c, 2, 40, 95
3, 130800, Note_off_c, 2, 74, 80
3, 130800, Note_off_c, 2, 52, 80
3, 130800, Note_off_c, 2, 47, 80
3, 130800, Note_off_c, 2, 40, 80
3, 130800, Note_on_c, 2, 78, 95
3, 130800, Note_on_c, 2, 52, 95
3, 130800, Note_on_c, 2, 47, 95
3, 130800, Note_on_c, 2, 40, 95
3, 131040, Note_off_c, 2, 78, 80
3, 131040, Note_off_c, 2, 52, 80
3, 131040, Note_off_c, 2, 47, 80
3, 131040, Note_off_c, 2, 40, 80
3, 131040, Note_on_c, 2, 74, 95
3, 131040, Note_on_c, 2, 54, 95
3, 131040, Note_on_c, 2, 49, 95
3, 131040, Note_on_c, 2, 42, 95
3, 131280, Note_off_c, 2, 74, 80
3, 131280, Note_off_c, 2, 54, 80
3, 131280, Note_off_c, 2, 49, 80
3, 131280, Note_off_c, 2, 42, 80
3, 131280, Note_on_c, 2, 78, 95
3, 131280, Note_on_c, 2, 54, 95
3, 131280, Note_on_c, 2, 49, 95
3, 131280, Note_on_c, 2, 42, 95
3, 131520, Note_off_c, 2, 78, 80
3, 131520, Note_off_c, 2, 54, 80
3, 131520, Note_off_c, 2, 49, 80
3, 131520, Note_off_c, 2, 42, 80
3, 131520, Note_on_c, 2, 74, 95
3, 131520, Note_on_c, 2, 54, 95
3, 131520, Note_on_c, 2, 49, 95
3, 131520, Note_on_c, 2, 42, 95
3, 131760, Note_off_c, 2, 74, 80
3, 131760, Note_off_c, 2, 54, 80
3, 131760, Note_off_c, 2, 49, 80
3, 131760, Note_off_c, 2, 42, 80
3, 131760, Note_on_c, 2, 78, 95
3, 131760, Note_on_c, 2, 54, 95
3, 131760, Note_on_c, 2, 49, 95
3, 131760, Note_on_c, 2, 42, 95
3, 132000, Note_off_c, 2, 78, 80
3, 132000, Note_off_c, 2, 54, 80
3, 132000, Note_off_c, 2, 49, 80
3, 132000, Note_off_c, 2, 42, 80
3, 132000, Note_on_c, 2, 74, 95
3, 132000, Note_on_c, 2, 57, 95
3, 132000, Note_on_c, 2, 52, 95
3, 132000, Note_on_c, 2, 45, 95
3, 132240, Note_off_c, 2, 74, 80
3, 132240, Note_off_c, 2, 57, 80
3, 132240, Note_off_c, 2, 52, 80
3, 132240, Note_off_c, 2, 45, 80
3, 132240, Note_on_c, 2, 78, 95
3, 132240, Note_on_c, 2, 57, 95
3, 132240, Note_on_c, 2, 52, 95
3, 132240, Note_on_c, 2, 45, 95
3, 132480, Note_off_c, 2, 78, 80
3, 132480, Note_off_c, 2, 57, 80
3, 132480, Note_off_c, 2, 52, 80
3, 132480, Note_off_c, 2, 45, 80
3, 132480, Note_on_c, 2, 74, 95
3, 132480, Note_on_c, 2, 62, 95
3, 132480, Note_on_c, 2, 57, 95
3, 132480, Note_on_c, 2, 50, 95
3, 132720, Note_off_c, 2, 74, 80
3, 132720, Note_off_c, 2, 62, 80
3, 132720, Note_off_c, 2, 57, 80
3, 132720, Note_off_c, 2, 50, 80
3, 132720, Note_on_c, 2, 78, 95
3, 132720, Note_on_c, 2, 62, 95
3, 132720, Note_on_c, 2, 57, 95
3, 132720, Note_on_c, 2, 50, 95
3, 132960, Note_off_c, 2, 78, 80
3, 132960, Note_off_c, 2, 62, 80
3, 132960, Note_off_c, 2, 57, 80
3, 132960, Note_off_c, 2, 50, 80
3, 132960, Note_on_c, 2, 74, 95
3, 132960, Note_on_c, 2, 62, 95
3, 132960, Note_on_c, 2, 57, 95
3, 132960, Note_on_c, 2, 50, 95
3, 133200, Note_off_c, 2, 74, 80
3, 133200, Note_off_c, 2, 62, 80
3, 133200, Note_off_c, 2, 57, 80
3, 133200, Note_off_c, 2, 50, 80
3, 133200, Note_on_c, 2, 78, 95
3, 133200, Note_on_c, 2, 62, 95
3, 133200, Note_on_c, 2, 57, 95
3, 133200, Note_on_c, 2, 50, 95
3, 133440, Note_off_c, 2, 78, 80
3, 133440, Note_off_c, 2, 62, 80
3, 133440, Note_off_c, 2, 57, 80
3, 133440, Note_off_c, 2, 50, 80
3, 133440, Note_on_c, 2, 74, 95
3, 133440, Note_on_c, 2, 62, 95
3, 133440, Note_on_c, 2, 57, 95
3, 133440, Note_on_c, 2, 50, 95
3, 133680, Note_off_c, 2, 74, 80
3, 133680, Note_off_c, 2, 62, 80
3, 133680, Note_off_c, 2, 57, 80
3, 133680, Note_off_c, 2, 50, 80
3, 133680, Note_on_c, 2, 78, 95
3, 133680, Note_on_c, 2, 62, 95
3, 133680, Note_on_c, 2, 57, 95
3, 133680, Note_on_c, 2, 50, 95
3, 133920, Note_off_c, 2, 78, 80
3, 133920, Note_off_c, 2, 62, 80
3, 133920, Note_off_c, 2, 57, 80
3, 133920, Note_off_c, 2, 50, 80
3, 133920, Note_on_c, 2, 74, 95
3, 133920, Note_on_c, 2, 62, 95
3, 133920, Note_on_c, 2, 57, 95
3, 133920, Note_on_c, 2, 50, 95
3, 134160, Note_off_c, 2, 74, 80
3, 134160, Note_off_c, 2, 62, 80
3, 134160, Note_off_c, 2, 57, 80
3, 134160, Note_off_c, 2, 50, 80
3, 134160, Note_on_c, 2, 78, 95
3, 134160, Note_on_c, 2, 62, 95
3, 134160, Note_on_c, 2, 57, 95
3, 134160, Note_on_c, 2, 50, 95
3, 134400, Note_off_c, 2, 78, 80
3, 134400, Note_off_c, 2, 62, 80
3, 134400, Note_off_c, 2, 57, 80
3, 134400, Note_off_c, 2, 50, 80
3, 134400, Note_on_c, 2, 74, 95
3, 134400, Note_on_c, 2, 59, 95
3, 134400, Note_on_c, 2, 54, 95
3, 134400, Note_on_c, 2, 47, 95
3, 134640, Note_off_c, 2, 74, 80
3, 134640, Note_off_c, 2, 59, 80
3, 134640, Note_off_c, 2, 54, 80
3, 134640, Note_off_c, 2, 47, 80
3, 134640, Note_on_c, 2, 78, 95
3, 134640, Note_on_c, 2, 59, 95
3, 134640, Note_on_c, 2, 54, 95
3, 134640, Note_on_c, 2, 47, 95
3, 134880, Note_off_c, 2, 78, 80
3, 134880, Note_off_c, 2, 59, 80
3, 134880, Note_off_c, 2, 54, 80
3, 134880, Note_off_c, 2, 47, 80
3, 134880, Note_on_c, 2, 74, 95
3, 134880, Note_on_c, 2, 59, 95
3, 134880, Note_on_c, 2, 54, 95
3, 134880, Note_on_c, 2, 47, 95
3, 135120, Note_off_c, 2, 74, 80
3, 135120, Note_off_c, 2, 59, 80
3, 135120, Note_off_c, 2, 54, 80
3, 135120, Note_off_c, 2, 47, 80
3, 135120, Note_on_c, 2, 78, 95
3, 135120, Note_on_c, 2, 59, 95
3, 135120, Note_on_c, 2, 54, 95
3, 135120, Note_on_c, 2, 47, 95
3, 135360, Note_off_c, 2, 78, 80
3, 135360, Note_off_c, 2, 59, 80
3, 135360, Note_off_c, 2, 54, 80
3, 135360, Note_off_c, 2, 47, 80
3, 135360, Note_on_c, 2, 74, 95
3, 135360, Note_on_c, 2, 59, 95
3, 135360, Note_on_c, 2, 54, 95
3, 135360, Note_on_c, 2, 47, 95
3, 135600, Note_off_c, 2, 74, 80
3, 135600, Note_off_c, 2, 59, 80
3, 135600, Note_off_c, 2, 54, 80
3, 135600, Note_off_c, 2, 47, 80
3, 135600, Note_on_c, 2, 78, 95
3, 135600, Note_on_c, 2, 59, 95
3, 135600, Note_on_c, 2, 54, 95
3, 135600, Note_on_c, 2, 47, 95
3, 135840, Note_off_c, 2, 78, 80
3, 135840, Note_off_c, 2, 59, 80
3, 135840, Note_off_c, 2, 54, 80
3, 135840, Note_off_c, 2, 47, 80
3, 135840, Note_on_c, 2, 74, 95
3, 135840, Note_on_c, 2, 59, 95
3, 135840, Note_on_c, 2, 54, 95
3, 135840, Note_on_c, 2, 47, 95
3, 136080, Note_off_c, 2, 74, 80
3, 136080, Note_off_c, 2, 59, 80
3, 136080, Note_off_c, 2, 54, 80
3, 136080, Note_off_c, 2, 47, 80
3, 136080, Note_on_c, 2, 78, 95
3, 136080, Note_on_c, 2, 59, 95
3, 136080, Note_on_c, 2, 54, 95
3, 136080, Note_on_c, 2, 47, 95
3, 136320, Note_off_c, 2, 78, 80
3, 136320, Note_off_c, 2, 59, 80
3, 136320, Note_off_c, 2, 54, 80
3, 136320, Note_off_c, 2, 47, 80
3, 136320, Note_on_c, 2, 74, 95
3, 136320, Note_on_c, 2, 62, 95
3, 136320, Note_on_c, 2, 57, 95
3, 136320, Note_on_c, 2, 50, 95
3, 136560, Note_off_c, 2, 74, 80
3, 136560, Note_off_c, 2, 62, 80
3, 136560, Note_off_c, 2, 57, 80
3, 136560, Note_off_c, 2, 50, 80
3, 136560, Note_on_c, 2, 78, 95
3, 136560, Note_on_c, 2, 62, 95
3, 136560, Note_on_c, 2, 57, 95
3, 136560, Note_on_c, 2, 50, 95
3, 136800, Note_off_c, 2, 78, 80
3, 136800, Note_off_c, 2, 62, 80
3, 136800, Note_off_c, 2, 57, 80
3, 136800, Note_off_c, 2, 50, 80
3, 136800, Note_on_c, 2, 74, 95
3, 136800, Note_on_c, 2, 62, 95
3, 136800, Note_on_c, 2, 57, 95
3, 136800, Note_on_c, 2, 50, 95
3, 137040, Note_off_c, 2, 74, 80
3, 137040, Note_off_c, 2, 62, 80
3, 137040, Note_off_c, 2, 57, 80
3, 137040, Note_off_c, 2, 50, 80
3, 137040, Note_on_c, 2, 78, 95
3, 137040, Note_on_c, 2, 62, 95
3, 137040, Note_on_c, 2, 57, 95
3, 137040, Note_on_c, 2, 50, 95
3, 137280, Note_off_c, 2, 78, 80
3, 137280, Note_off_c, 2, 62, 80
3, 137280, Note_off_c, 2, 57, 80
3, 137280, Note_off_c, 2, 50, 80
3, 137280, Note_on_c, 2, 74, 95
3, 137280, Note_on_c, 2, 62, 95
3, 137280, Note_on_c, 2, 57, 95
3, 137280, Note_on_c, 2, 50, 95
3, 137520, Note_off_c, 2, 74, 80
3, 137520, Note_off_c, 2, 62, 80
3, 137520, Note_off_c, 2, 57, 80
3, 137520, Note_off_c, 2, 50, 80
3, 137520, Note_on_c, 2, 78, 95
3, 137520, Note_on_c, 2, 62, 95
3, 137520, Note_on_c, 2, 57, 95
3, 137520, Note_on_c, 2, 50, 95
3, 137760, Note_off_c, 2, 78, 80
3, 137760, Note_off_c, 2, 62, 80
3, 137760, Note_off_c, 2, 57, 80
3, 137760, Note_off_c, 2, 50, 80
3, 137760, Note_on_c, 2, 74, 95
3, 137760, Note_on_c, 2, 62, 95
3, 137760, Note_on_c, 2, 57, 95
3, 137760, Note_on_c, 2, 50, 95
3, 138000, Note_off_c, 2, 74, 80
3, 138000, Note_off_c, 2, 62, 80
3, 138000, Note_off_c, 2, 57, 80
3, 138000, Note_off_c, 2, 50, 80
3, 138000, Note_on_c, 2, 78, 95
3, 138000, Note_on_c, 2, 62, 95
3, 138000, Note_on_c, 2, 57, 95
3, 138000, Note_on_c, 2, 50, 95
3, 138240, Note_off_c, 2, 78, 80
3, 138240, Note_off_c, 2, 62, 80
3, 138240, Note_off_c, 2, 57, 80
3, 138240, Note_off_c, 2, 50, 80
3, 138240, Program_c, 2, 28
3, 138240, Program_c, 3, 28
3, 138240, Note_on_c, 2, 52, 95
3, 138240, Note_on_c, 2, 47, 95
3, 138240, Note_on_c, 2, 40, 95
3, 138480, Note_off_c, 2, 52, 80
3, 138480, Note_off_c, 2, 47, 80
3, 138480, Note_off_c, 2, 40, 80
3, 138480, Note_on_c, 2, 52, 95
3, 138480, Note_on_c, 2, 47, 95
3, 138480, Note_on_c, 2, 40, 95
3, 138720, Note_off_c, 2, 52, 80
3, 138720, Note_off_c, 2, 47, 80
3, 138720, Note_off_c, 2, 40, 80
3, 138720, Note_on_c, 2, 54, 95
3, 138720, Note_on_c, 2, 49, 95
3, 138720, Note_on_c, 2, 42, 95
3, 138960, Note_off_c, 2, 54, 80
3, 138960, Note_off_c, 2, 49, 80
3, 138960, Note_off_c, 2, 42, 80
3, 138960, Note_on_c, 2, 54, 95
3, 138960, Note_on_c, 2, 49, 95
3, 138960, Note_on_c, 2, 42, 95
3, 139200, Note_off_c, 2, 54, 80
3, 139200, Note_off_c, 2, 49, 80
3, 139200, Note_off_c, 2, 42, 80
3, 139200, Note_on_c, 2, 54, 95
3, 139200, Note_on_c, 2, 49, 95
3, 139200, Note_on_c, 2, 42, 95
3, 139440, Note_off_c, 2, 54, 80
3, 139440, Note_off_c, 2, 49, 80
3, 139440, Note_off_c, 2, 42, 80
3, 139440, Note_on_c, 2, 54, 95
3, 139440, Note_on_c, 2, 49, 95
3, 139440, Note_on_c, 2, 42, 95
3, 139680, Note_off_c, 2, 54, 80
3, 139680, Note_off_c, 2, 49, 80
3, 139680, Note_off_c, 2, 42, 80
3, 139680, Note_on_c, 2, 57, 95
3, 139680, Note_on_c, 2, 52, 95
3, 139680, Note_on_c, 2, 45, 95
3, 139920, Note_off_c, 2, 57, 80
3, 139920, Note_off_c, 2, 52, 80
3, 139920, Note_off_c, 2, 45, 80
3, 139920, Note_on_c, 2, 57, 95
3, 139920, Note_on_c, 2, 52, 95
3, 139920, Note_on_c, 2, 45, 95
3, 140160, Note_off_c, 2, 57, 80
3, 140160, Note_off_c, 2, 52, 80
3, 140160, Note_off_c, 2, 45, 80
3, 140160, Note_on_c, 2, 62, 95
3, 140160, Note_on_c, 2, 57, 95
3, 140160, Note_on_c, 2, 50, 95
3, 140400, Note_off_c, 2, 62, 80
3, 140400, Note_off_c, 2, 57, 80
3, 140400, Note_off_c, 2, 50, 80
3, 140400, Note_on_c, 2, 62, 95
3, 140400, Note_on_c, 2, 57, 95
3, 140400, Note_on_c, 2, 50, 95
3, 140640, Note_off_c, 2, 62, 80
3, 140640, Note_off_c, 2, 57, 80
3, 140640, Note_off_c, 2, 50, 80
3, 140640, Note_on_c, 2, 62, 95
3, 140640, Note_on_c, 2, 57, 95
3, 140640, Note_on_c, 2, 50, 95
3, 140880, Note_off_c, 2, 62, 80
3, 140880, Note_off_c, 2, 57, 80
3, 140880, Note_off_c, 2, 50, 80
3, 140880, Note_on_c, 2, 62, 95
3, 140880, Note_on_c, 2, 57, 95
3, 140880, Note_on_c, 2, 50, 95
3, 141120, Note_off_c, 2, 62, 80
3, 141120, Note_off_c, 2, 57, 80
3, 141120, Note_off_c, 2, 50, 80
3, 141120, Note_on_c, 2, 62, 95
3, 141120, Note_on_c, 2, 57, 95
3, 141120, Note_on_c, 2, 50, 95
3, 141360, Note_off_c, 2, 62, 80
3, 141360, Note_off_c, 2, 57, 80
3, 141360, Note_off_c, 2, 50, 80
3, 141360, Note_on_c, 2, 62, 95
3, 141360, Note_on_c, 2, 57, 95
3, 141360, Note_on_c, 2, 50, 95
3, 141600, Note_off_c, 2, 62, 80
3, 141600, Note_off_c, 2, 57, 80
3, 141600, Note_off_c, 2, 50, 80
3, 141600, Note_on_c, 2, 62, 95
3, 141600, Note_on_c, 2, 57, 95
3, 141600, Note_on_c, 2, 50, 95
3, 141840, Note_off_c, 2, 62, 80
3, 141840, Note_off_c, 2, 57, 80
3, 141840, Note_off_c, 2, 50, 80
3, 141840, Note_on_c, 2, 62, 95
3, 141840, Note_on_c, 2, 57, 95
3, 141840, Note_on_c, 2, 50, 95
3, 142080, Note_off_c, 2, 62, 80
3, 142080, Note_off_c, 2, 57, 80
3, 142080, Note_off_c, 2, 50, 80
3, 142080, Note_on_c, 2, 59, 95
3, 142080, Note_on_c, 2, 54, 95
3, 142080, Note_on_c, 2, 47, 95
3, 142320, Note_off_c, 2, 59, 80
3, 142320, Note_off_c, 2, 54, 80
3, 142320, Note_off_c, 2, 47, 80
3, 142320, Note_on_c, 2, 59, 95
3, 142320, Note_on_c, 2, 54, 95
3, 142320, Note_on_c, 2, 47, 95
3, 142560, Note_off_c, 2, 59, 80
3, 142560, Note_off_c, 2, 54, 80
3, 142560, Note_off_c, 2, 47, 80
3, 142560, Note_on_c, 2, 59, 95
3, 142560, Note_on_c, 2, 54, 95
3, 142560, Note_on_c, 2, 47, 95
3, 142800, Note_off_c, 2, 59, 80
3, 142800, Note_off_c, 2, 54, 80
3, 142800, Note_off_c, 2, 47, 80
3, 142800, Note_on_c, 2, 59, 95
3, 142800, Note_on_c, 2, 54, 95
3, 142800, Note_on_c, 2, 47, 95
3, 143040, Note_off_c, 2, 59, 80
3, 143040, Note_off_c, 2, 54, 80
3, 143040, Note_off_c, 2, 47, 80
3, 143040, Note_on_c, 2, 59, 95
3, 143040, Note_on_c, 2, 54, 95
3, 143040, Note_on_c, 2, 47, 95
3, 143280, Note_off_c, 2, 59, 80
3, 143280, Note_off_c, 2, 54, 80
3, 143280, Note_off_c, 2, 47, 80
3, 143280, Note_on_c, 2, 59, 95
3, 143280, Note_on_c, 2, 54, 95
3, 143280, Note_on_c, 2, 47, 95
3, 143520, Note_off_c, 2, 59, 80
3, 143520, Note_off_c, 2, 54, 80
3, 143520, Note_off_c, 2, 47, 80
3, 143520, Note_on_c, 2, 59, 95
3, 143520, Note_on_c, 2, 54, 95
3, 143520, Note_on_c, 2, 47, 95
3, 143760, Note_off_c, 2, 59, 80
3, 143760, Note_off_c, 2, 54, 80
3, 143760, Note_off_c, 2, 47, 80
3, 143760, Note_on_c, 2, 59, 95
3, 143760, Note_on_c, 2, 54, 95
3, 143760, Note_on_c, 2, 47, 95
3, 144000, Note_off_c, 2, 59, 80
3, 144000, Note_off_c, 2, 54, 80
3, 144000, Note_off_c, 2, 47, 80
3, 144000, Note_on_c, 2, 62, 95
3, 144000, Note_on_c, 2, 57, 95
3, 144000, Note_on_c, 2, 50, 95
3, 144240, Note_off_c, 2, 62, 80
3, 144240, Note_off_c, 2, 57, 80
3, 144240, Note_off_c, 2, 50, 80
3, 144240, Note_on_c, 2, 62, 95
3, 144240, Note_on_c, 2, 57, 95
3, 144240, Note_on_c, 2, 50, 95
3, 144480, Note_off_c, 2, 62, 80
3, 144480, Note_off_c, 2, 57, 80
3, 144480, Note_off_c, 2, 50, 80
3, 144480, Note_on_c, 2, 62, 95
3, 144480, Note_on_c, 2, 57, 95
3, 144480, Note_on_c, 2, 50, 95
3, 144720, Note_off_c, 2, 62, 80
3, 144720, Note_off_c, 2, 57, 80
3, 144720, Note_off_c, 2, 50, 80
3, 144720, Note_on_c, 2, 62, 95
3, 144720, Note_on_c, 2, 57, 95
3, 144720, Note_on_c, 2, 50, 95
3, 144960, Note_off_c, 2, 62, 80
3, 144960, Note_off_c, 2, 57, 80
3, 144960, Note_off_c, 2, 50, 80
3, 144960, Note_on_c, 2, 62, 95
3, 144960, Note_on_c, 2, 57, 95
3, 144960, Note_on_c, 2, 50, 95
3, 145200, Note_off_c, 2, 62, 80
3, 145200, Note_off_c, 2, 57, 80
3, 145200, Note_off_c, 2, 50, 80
3, 145200, Note_on_c, 2, 62, 95
3, 145200, Note_on_c, 2, 57, 95
3, 145200, Note_on_c, 2, 50, 95
3, 145440, Note_off_c, 2, 62, 80
3, 145440, Note_off_c, 2, 57, 80
3, 145440, Note_off_c, 2, 50, 80
3, 145440, Note_on_c, 2, 62, 95
3, 145440, Note_on_c, 2, 57, 95
3, 145440, Note_on_c, 2, 50, 95
3, 145680, Note_off_c, 2, 62, 80
3, 145680, Note_off_c, 2, 57, 80
3, 145680, Note_off_c, 2, 50, 80
3, 145680, Note_on_c, 2, 62, 95
3, 145680, Note_on_c, 2, 57, 95
3, 145680, Note_on_c, 2, 50, 95
3, 145920, Note_off_c, 2, 62, 80
3, 145920, Note_off_c, 2, 57, 80
3, 145920, Note_off_c, 2, 50, 80
3, 145920, Program_c, 2, 28
3, 145920, Program_c, 3, 28
3, 145920, Note_on_c, 2, 52, 95
3, 145920, Note_on_c, 2, 47, 95
3, 145920, Note_on_c, 2, 40, 95
3, 146160, Note_off_c, 2, 52, 80
3, 146160, Note_off_c, 2, 47, 80
3, 146160, Note_off_c, 2, 40, 80
3, 146160, Note_on_c, 2, 52, 95
3, 146160, Note_on_c, 2, 47, 95
3, 146160, Note_on_c, 2, 40, 95
3, 146400, Note_off_c, 2, 52, 80
3, 146400, Note_off_c, 2, 47, 80
3, 146400, Note_off_c, 2, 40, 80
3, 146400, Note_on_c, 2, 54, 95
3, 146400, Note_on_c, 2, 49, 95
3, 146400, Note_on_c, 2, 42, 95
3, 146640, Note_off_c, 2, 54, 80
3, 146640, Note_off_c, 2, 49, 80
3, 146640, Note_off_c, 2, 42, 80
3, 146640, Note_on_c, 2, 54, 95
3, 146640, Note_on_c, 2, 49, 95
3, 146640, Note_on_c, 2, 42, 95
3, 146880, Note_off_c, 2, 54, 80
3, 146880, Note_off_c, 2, 49, 80
3, 146880, Note_off_c, 2, 42, 80
3, 146880, Note_on_c, 2, 54, 95
3, 146880, Note_on_c, 2, 49, 95
3, 146880, Note_on_c, 2, 42, 95
3, 147120, Note_off_c, 2, 54, 80
3, 147120, Note_off_c, 2, 49, 80
3, 147120, Note_off_c, 2, 42, 80
3, 147120, Note_on_c, 2, 54, 95
3, 147120, Note_on_c, 2, 49, 95
3, 147120, Note_on_c, 2, 42, 95
3, 147360, Note_off_c, 2, 54, 80
3, 147360, Note_off_c, 2, 49, 80
3, 147360, Note_off_c, 2, 42, 80
3, 147360, Note_on_c, 2, 57, 95
3, 147360, Note_on_c, 2, 52, 95
3, 147360, Note_on_c, 2, 45, 95
3, 147600, Note_off_c, 2, 57, 80
3, 147600, Note_off_c, 2, 52, 80
3, 147600, Note_off_c, 2, 45, 80
3, 147600, Note_on_c, 2, 57, 95
3, 147600, Note_on_c, 2, 52, 95
3, 147600, Note_on_c, 2, 45, 95
3, 147840, Note_off_c, 2, 57, 80
3, 147840, Note_off_c, 2, 52, 80
3, 147840, Note_off_c, 2, 45, 80
3, 147840, Note_on_c, 2, 62, 95
3, 147840, Note_on_c, 2, 57, 95
3, 147840, Note_on_c, 2, 50, 95
3, 148080, Note_off_c, 2, 62, 80
3, 148080, Note_off_c, 2, 57, 80
3, 148080, Note_off_c, 2, 50, 80
3, 148080, Note_on_c, 2, 62, 95
3, 148080, Note_on_c, 2, 57, 95
3, 148080, Note_on_c, 2, 50, 95
3, 148320, Note_off_c, 2, 62, 80
3, 148320, Note_off_c, 2, 57, 80
3, 148320, Note_off_c, 2, 50, 80
3, 148320, Note_on_c, 2, 62, 95
3, 148320, Note_on_c, 2, 57, 95
3, 148320, Note_on_c, 2, 50, 95
3, 148560, Note_off_c, 2, 62, 80
3, 148560, Note_off_c, 2, 57, 80
3, 148560, Note_off_c, 2, 50, 80
3, 148560, Note_on_c, 2, 62, 95
3, 148560, Note_on_c, 2, 57, 95
3, 148560, Note_on_c, 2, 50, 95
3, 148800, Note_off_c, 2, 62, 80
3, 148800, Note_off_c, 2, 57, 80
3, 148800, Note_off_c, 2, 50, 80
3, 148800, Note_on_c, 2, 62, 95
3, 148800, Note_on_c, 2, 57, 95
3, 148800, Note_on_c, 2, 50, 95
3, 149040, Note_off_c, 2, 62, 80
3, 149040, Note_off_c, 2, 57, 80
3, 149040, Note_off_c, 2, 50, 80
3, 149040, Note_on_c, 2, 62, 95
3, 149040, Note_on_c, 2, 57, 95
3, 149040, Note_on_c, 2, 50, 95
3, 149280, Note_off_c, 2, 62, 80
3, 149280, Note_off_c, 2, 57, 80
3, 149280, Note_off_c, 2, 50, 80
3, 149280, Note_on_c, 2, 62, 95
3, 149280, Note_on_c, 2, 57, 95
3, 149280, Note_on_c, 2, 50, 95
3, 149520, Note_off_c, 2, 62, 80
3, 149520, Note_off_c, 2, 57, 80
3, 149520, Note_off_c, 2, 50, 80
3, 149520, Note_on_c, 2, 62, 95
3, 149520, Note_on_c, 2, 57, 95
3, 149520, Note_on_c, 2, 50, 95
3, 149760, Note_off_c, 2, 62, 80
3, 149760, Note_off_c, 2, 57, 80
3, 149760, Note_off_c, 2, 50, 80
3, 149760, Note_on_c, 2, 59, 95
3, 149760, Note_on_c, 2, 54, 95
3, 149760, Note_on_c, 2, 47, 95
3, 150000, Note_off_c, 2, 59, 80
3, 150000, Note_off_c, 2, 54, 80
3, 150000, Note_off_c, 2, 47, 80
3, 150000, Note_on_c, 2, 59, 95
3, 150000, Note_on_c, 2, 54, 95
3, 150000, Note_on_c, 2, 47, 95
3, 150240, Note_off_c, 2, 59, 80
3, 150240, Note_off_c, 2, 54, 80
3, 150240, Note_off_c, 2, 47, 80
3, 150240, Note_on_c, 2, 59, 95
3, 150240, Note_on_c, 2, 54, 95
3, 150240, Note_on_c, 2, 47, 95
3, 150480, Note_off_c, 2, 59, 80
3, 150480, Note_off_c, 2, 54, 80
3, 150480, Note_off_c, 2, 47, 80
3, 150480, Note_on_c, 2, 59, 95
3, 150480, Note_on_c, 2, 54, 95
3, 150480, Note_on_c, 2, 47, 95
3, 150720, Note_off_c, 2, 59, 80
3, 150720, Note_off_c, 2, 54, 80
3, 150720, Note_off_c, 2, 47, 80
3, 150720, Note_on_c, 2, 59, 95
3, 150720, Note_on_c, 2, 54, 95
3, 150720, Note_on_c, 2, 47, 95
3, 150960, Note_off_c, 2, 59, 80
3, 150960, Note_off_c, 2, 54, 80
3, 150960, Note_off_c, 2, 47, 80
3, 150960, Note_on_c, 2, 59, 95
3, 150960, Note_on_c, 2, 54, 95
3, 150960, Note_on_c, 2, 47, 95
3, 151200, Note_off_c, 2, 59, 80
3, 151200, Note_off_c, 2, 54, 80
3, 151200, Note_off_c, 2, 47, 80
3, 151200, Note_on_c, 2, 59, 95
3, 151200, Note_on_c, 2, 54, 95
3, 151200, Note_on_c, 2, 47, 95
3, 151440, Note_off_c, 2, 59, 80
3, 151440, Note_off_c, 2, 54, 80
3, 151440, Note_off_c, 2, 47, 80
3, 151440, Note_on_c, 2, 59, 95
3, 151440, Note_on_c, 2, 54, 95
3, 151440, Note_on_c, 2, 47, 95
3, 151680, Note_off_c, 2, 59, 80
3, 151680, Note_off_c, 2, 54, 80
3, 151680, Note_off_c, 2, 47, 80
3, 151680, Note_on_c, 2, 62, 95
3, 151680, Note_on_c, 2, 57, 95
3, 151680, Note_on_c, 2, 50, 95
3, 151920, Note_off_c, 2, 62, 80
3, 151920, Note_off_c, 2, 57, 80
3, 151920, Note_off_c, 2, 50, 80
3, 151920, Note_on_c, 2, 62, 95
3, 151920, Note_on_c, 2, 57, 95
3, 151920, Note_on_c, 2, 50, 95
3, 152160, Note_off_c, 2, 62, 80
3, 152160, Note_off_c, 2, 57, 80
3, 152160, Note_off_c, 2, 50, 80
3, 152160, Note_on_c, 2, 62, 95
3, 152160, Note_on_c, 2, 57, 95
3, 152160, Note_on_c, 2, 50, 95
3, 152400, Note_off_c, 2, 62, 80
3, 152400, Note_off_c, 2, 57, 80
3, 152400, Note_off_c, 2, 50, 80
3, 152400, Note_on_c, 2, 62, 95
3, 152400, Note_on_c, 2, 57, 95
3, 152400, Note_on_c, 2, 50, 95
3, 152640, Note_off_c, 2, 62, 80
3, 152640, Note_off_c, 2, 57, 80
3, 152640, Note_off_c, 2, 50, 80
3, 152640, Note_on_c, 2, 62, 95
3, 152640, Note_on_c, 2, 57, 95
3, 152640, Note_on_c, 2, 50, 95
3, 152880, Note_off_c, 2, 62, 80
3, 152880, Note_off_c, 2, 57, 80
3, 152880, Note_off_c, 2, 50, 80
3, 152880, Note_on_c, 2, 62, 95
3, 152880, Note_on_c, 2, 57, 95
3, 152880, Note_on_c, 2, 50, 95
3, 153120, Note_off_c, 2, 62, 80
3, 153120, Note_off_c, 2, 57, 80
3, 153120, Note_off_c, 2, 50, 80
3, 153120, Note_on_c, 2, 62, 95
3, 153120, Note_on_c, 2, 57, 95
3, 153120, Note_on_c, 2, 50, 95
3, 153360, Note_off_c, 2, 62, 80
3, 153360, Note_off_c, 2, 57, 80
3, 153360, Note_off_c, 2, 50, 80
3, 153360, Note_on_c, 2, 62, 95
3, 153360, Note_on_c, 2, 57, 95
3, 153360, Note_on_c, 2, 50, 95
3, 153600, Note_off_c, 2, 62, 80
3, 153600, Note_off_c, 2, 57, 80
3, 153600, Note_off_c, 2, 50, 80
3, 153600, Program_c, 2, 28
3, 153600, Program_c, 3, 28
3, 153600, Note_on_c, 2, 52, 95
3, 153600, Note_on_c, 2, 47, 95
3, 153600, Note_on_c, 2, 40, 95
3, 153840, Note_off_c, 2, 52, 80
3, 153840, Note_off_c, 2, 47, 80
3, 153840, Note_off_c, 2, 40, 80
3, 153840, Note_on_c, 2, 52, 95
3, 153840, Note_on_c, 2, 47, 95
3, 153840, Note_on_c, 2, 40, 95
3, 154080, Note_off_c, 2, 52, 80
3, 154080, Note_off_c, 2, 47, 80
3, 154080, Note_off_c, 2, 40, 80
3, 154080, Note_on_c, 2, 54, 95
3, 154080, Note_on_c, 2, 49, 95
3, 154080, Note_on_c, 2, 42, 95
3, 154320, Note_off_c, 2, 54, 80
3, 154320, Note_off_c, 2, 49, 80
3, 154320, Note_off_c, 2, 42, 80
3, 154320, Note_on_c, 2, 54, 95
3, 154320, Note_on_c, 2, 49, 95
3, 154320, Note_on_c, 2, 42, 95
3, 154560, Note_off_c, 2, 54, 80
3, 154560, Note_off_c, 2, 49, 80
3, 154560, Note_off_c, 2, 42, 80
3, 154560, Note_on_c, 2, 54, 95
3, 154560, Note_on_c, 2, 49, 95
3, 154560, Note_on_c, 2, 42, 95
3, 154800, Note_off_c, 2, 54, 80
3, 154800, Note_off_c, 2, 49, 80
3, 154800, Note_off_c, 2, 42, 80
3, 154800, Note_on_c, 2, 54, 95
3, 154800, Note_on_c, 2, 49, 95
3, 154800, Note_on_c, 2, 42, 95
3, 155040, Note_off_c, 2, 54, 80
3, 155040, Note_off_c, 2, 49, 80
3, 155040, Note_off_c, 2, 42, 80
3, 155040, Note_on_c, 2, 57, 95
3, 155040, Note_on_c, 2, 52, 95
3, 155040, Note_on_c, 2, 45, 95
3, 155280, Note_off_c, 2, 57, 80
3, 155280, Note_off_c, 2, 52, 80
3, 155280, Note_off_c, 2, 45, 80
3, 155280, Note_on_c, 2, 57, 95
3, 155280, Note_on_c, 2, 52, 95
3, 155280, Note_on_c, 2, 45, 95
3, 155520, Note_off_c, 2, 57, 80
3, 155520, Note_off_c, 2, 52, 80
3, 155520, Note_off_c, 2, 45, 80
3, 155520, Program_c, 2, 29
3, 155520, Program_c, 3, 29
3, 155520, Note_on_c, 2, 50, 95
3, 157440, Note_off_c, 2, 50, 80
3, 157440, End_track
4, 0, Start_track
4, 0, Title_t, "Basse"
4, 0, Control_c, 5, 100, 0
4, 0, Control_c, 5, 101, 0
4, 0, Control_c, 5, 6, 12
4, 0, Pitch_bend_c, 5, 8192
4, 0, Control_c, 5, 101, 0
4, 0, Control_c, 5, 100, 1
4, 0, Control_c, 5, 6, 64
4, 0, Control_c, 5, 38, 0
4, 0, Control_c, 5, 101, 127
4, 0, Control_c, 5, 100, 127
4, 0, Control_c, 4, 100, 0
4, 0, Control_c, 4, 101, 0
4, 0, Control_c, 4, 6, 12
4, 0, Pitch_bend_c, 4, 8192
4, 0, Control_c, 4, 101, 0
4, 0, Control_c, 4, 100, 1
4, 0, Control_c, 4, 6, 64
4, 0, Control_c, 4, 38, 0
4, 0, Control_c, 4, 101, 127
4, 0, Control_c, 4, 100, 127
4, 0, Control_c, 5, 101, 0
4, 0, Control_c, 5, 100, 2
4, 0, Control_c, 5, 6, 64
4, 0, Control_c, 5, 101, 127
4, 0, Control_c, 5, 100, 127
4, 0, Control_c, 4, 101, 0
4, 0, Control_c, 4, 100, 2
4, 0, Control_c, 4, 6, 64
4, 0, Control_c, 4, 101, 127
4, 0, Control_c, 4, 100, 127
4, 0, Program_c, 5, 34
4, 0, Program_c, 4, 34
4, 0, Control_c, 5, 0, 0
4, 0, Control_c, 4, 0, 0
4, 0, Control_c, 5, 7, 127
4, 0, Control_c, 4, 7, 127
4, 0, Control_c, 5, 10, 64
4, 0, Control_c, 4, 10, 64
4, 0, Control_c, 5, 93, 0
4, 0, Control_c, 4, 93, 0
4, 0, Control_c, 5, 91, 0
4, 0, Control_c, 4, 91, 0
4, 0, Control_c, 5, 92, 0
4, 0, Control_c, 4, 92, 0
4, 0, Control_c, 5, 95, 0
4, 0, Control_c, 4, 95, 0
4, 0, Note_on_c, 4, 28, 95
4, 480, Note_off_c, 4, 28, 80
4, 480, Note_on_c, 4, 30, 95
4, 960, Note_off_c, 4, 30, 80
4, 960, Note_on_c, 4, 30, 95
4, 1440, Note_off_c, 4, 30, 80
4, 1440, Note_on_c, 4, 33, 95
4, 1920, Note_off_c, 4, 33, 80
4, 1920, Note_on_c, 4, 38, 95
4, 2400, Note_off_c, 4, 38, 80
4, 2640, Note_on_c, 4, 38, 95
4, 2880, Note_off_c, 4, 38, 80
4, 2880, Note_on_c, 4, 38, 95
4, 3840, Note_off_c, 4, 38, 80
4, 3840, Note_on_c, 4, 35, 95
4, 4320, Note_off_c, 4, 35, 80
4, 4560, Note_on_c, 4, 35, 95
4, 4800, Note_off_c, 4, 35, 80
4, 4800, Note_on_c, 4, 35, 95
4, 5760, Note_off_c, 4, 35, 80
4, 5760, Note_on_c, 4, 38, 95
4, 6240, Note_off_c, 4, 38, 80
4, 6480, Note_on_c, 4, 38, 95
4, 6720, Note_off_c, 4, 38, 80
4, 6720, Note_on_c, 4, 38, 95
4, 7680, Note_off_c, 4, 38, 80
4, 7680, Note_on_c, 4, 28, 95
4, 8160, Note_off_c, 4, 28, 80
4, 8160, Note_on_c, 4, 30, 95
4, 8640, Note_off_c, 4, 30, 80
4, 8640, Note_on_c, 4, 30, 95
4, 9120, Note_off_c, 4, 30, 80
4, 9120, Note_on_c, 4, 33, 95
4, 9600, Note_off_c, 4, 33, 80
4, 9600, Note_on_c, 4, 38, 95
4, 10080, Note_off_c, 4, 38, 80
4, 10320, Note_on_c, 4, 38, 95
4, 10560, Note_off_c, 4, 38, 80
4, 10560, Note_on_c, 4, 38, 95
4, 11520, Note_off_c, 4, 38, 80
4, 11520, Note_on_c, 4, 35, 95
4, 12000, Note_off_c, 4, 35, 80
4, 12240, Note_on_c, 4, 35, 95
4, 12480, Note_off_c, 4, 35, 80
4, 12480, Note_on_c, 4, 35, 95
4, 13440, Note_off_c, 4, 35, 80
4, 13440, Note_on_c, 4, 38, 95
4, 13920, Note_off_c, 4, 38, 80
4, 14160, Note_on_c, 4, 38, 95
4, 14400, Note_off_c, 4, 38, 80
4, 14400, Note_on_c, 4, 38, 95
4, 15360, Note_off_c, 4, 38, 80
4, 15360, Note_on_c, 4, 28, 95
4, 15840, Note_off_c, 4, 28, 80
4, 15840, Note_on_c, 4, 30, 95
4, 16320, Note_off_c, 4, 30, 80
4, 16320, Note_on_c, 4, 30, 95
4, 16800, Note_off_c, 4, 30, 80
4, 16800, Note_on_c, 4, 33, 95
4, 17280, Note_off_c, 4, 33, 80
4, 17280, Note_on_c, 4, 38, 95
4, 17760, Note_off_c, 4, 38, 80
4, 18000, Note_on_c, 4, 38, 95
4, 18240, Note_off_c, 4, 38, 80
4, 18240, Note_on_c, 4, 38, 95
4, 19200, Note_off_c, 4, 38, 80
4, 19200, Note_on_c, 4, 35, 95
4, 19680, Note_off_c, 4, 35, 80
4, 19920, Note_on_c, 4, 35, 95
4, 20160, Note_off_c, 4, 35, 80
4, 20160, Note_on_c, 4, 35, 95
4, 21120, Note_off_c, 4, 35, 80
4, 21120, Note_on_c, 4, 38, 95
4, 21600, Note_off_c, 4, 38, 80
4, 21840, Note_on_c, 4, 38, 95
4, 22080, Note_off_c, 4, 38, 80
4, 22080, Note_on_c, 4, 38, 95
4, 23040, Note_off_c, 4, 38, 80
4, 23040, Note_on_c, 4, 28, 95
4, 23520, Note_off_c, 4, 28, 80
4, 23520, Note_on_c, 4, 30, 95
4, 24000, Note_off_c, 4, 30, 80
4, 24000, Note_on_c, 4, 30, 95
4, 24480, Note_off_c, 4, 30, 80
4, 24480, Note_on_c, 4, 33, 95
4, 24960, Note_off_c, 4, 33, 80
4, 24960, Note_on_c, 4, 38, 95
4, 25440, Note_off_c, 4, 38, 80
4, 25680, Note_on_c, 4, 38, 95
4, 25920, Note_off_c, 4, 38, 80
4, 25920, Note_on_c, 4, 38, 95
4, 26880, Note_off_c, 4, 38, 80
4, 26880, Note_on_c, 4, 35, 95
4, 27360, Note_off_c, 4, 35, 80
4, 27600, Note_on_c, 4, 35, 95
4, 27840, Note_off_c, 4, 35, 80
4, 27840, Note_on_c, 4, 35, 95
4, 28800, Note_off_c, 4, 35, 80
4, 28800, Note_on_c, 4, 38, 95
4, 29280, Note_off_c, 4, 38, 80
4, 29520, Note_on_c, 4, 38, 95
4, 29760, Note_off_c, 4, 38, 80
4, 29760, Note_on_c, 4, 38, 95
4, 30720, Note_off_c, 4, 38, 80
4, 30720, Note_on_c, 4, 28, 95
4, 31200, Note_off_c, 4, 28, 80
4, 31200, Note_on_c, 4, 30, 95
4, 31680, Note_off_c, 4, 30, 80
4, 31680, Note_on_c, 4, 30, 95
4, 32160, Note_off_c, 4, 30, 80
4, 32160, Note_on_c, 4, 33, 95
4, 32640, Note_off_c, 4, 33, 80
4, 32640, Note_on_c, 4, 38, 95
4, 33120, Note_off_c, 4, 38, 80
4, 33360, Note_on_c, 4, 38, 95
4, 33600, Note_off_c, 4, 38, 80
4, 33600, Note_on_c, 4, 38, 95
4, 34560, Note_off_c, 4, 38, 80
4, 34560, Note_on_c, 4, 35, 95
4, 35040, Note_off_c, 4, 35, 80
4, 35280, Note_on_c, 4, 35, 95
4, 35520, Note_off_c, 4, 35, 80
4, 35520, Note_on_c, 4, 35, 95
4, 36480, Note_off_c, 4, 35, 80
4, 36480, Note_on_c, 4, 38, 95
4, 36960, Note_off_c, 4, 38, 80
4, 37200, Note_on_c, 4, 38, 95
4, 37440, Note_off_c, 4, 38, 80
4, 37440, Note_on_c, 4, 38, 95
4, 38400, Note_off_c, 4, 38, 80
4, 38400, Note_on_c, 4, 28, 95
4, 38880, Note_off_c, 4, 28, 80
4, 38880, Note_on_c, 4, 30, 95
4, 39360, Note_off_c, 4, 30, 80
4, 39360, Note_on_c, 4, 30, 95
4, 39840, Note_off_c, 4, 30, 80
4, 39840, Note_on_c, 4, 33, 95
4, 40320, Note_off_c, 4, 33, 80
4, 40320, Note_on_c, 4, 38, 95
4, 40800, Note_off_c, 4, 38, 80
4, 41040, Note_on_c, 4, 38, 95
4, 41280, Note_off_c, 4, 38, 80
4, 41280, Note_on_c, 4, 38, 95
4, 42240, Note_off_c, 4, 38, 80
4, 42240, Note_on_c, 4, 35, 95
4, 42720, Note_off_c, 4, 35, 80
4, 42960, Note_on_c, 4, 35, 95
4, 43200, Note_off_c, 4, 35, 80
4, 43200, Note_on_c, 4, 35, 95
4, 44160, Note_off_c, 4, 35, 80
4, 44160, Note_on_c, 4, 38, 95
4, 44640, Note_off_c, 4, 38, 80
4, 44880, Note_on_c, 4, 38, 95
4, 45120, Note_off_c, 4, 38, 80
4, 45120, Note_on_c, 4, 38, 95
4, 46080, Note_off_c, 4, 38, 80
4, 46080, Note_on_c, 4, 28, 95
4, 46560, Note_off_c, 4, 28, 80
4, 46560, Note_on_c, 4, 30, 95
4, 47040, Note_off_c, 4, 30, 80
4, 47040, Note_on_c, 4, 30, 95
4, 47520, Note_off_c, 4, 30, 80
4, 47520, Note_on_c, 4, 33, 95
4, 48000, Note_off_c, 4, 33, 80
4, 48000, Note_on_c, 4, 38, 95
4, 48480, Note_off_c, 4, 38, 80
4, 48720, Note_on_c, 4, 38, 95
4, 48960, Note_off_c, 4, 38, 80
4, 48960, Note_on_c, 4, 38, 95
4, 49920, Note_off_c, 4, 38, 80
4, 49920, Note_on_c, 4, 35, 95
4, 50400, Note_off_c, 4, 35, 80
4, 50640, Note_on_c, 4, 35, 95
4, 50880, Note_off_c, 4, 35, 80
4, 50880, Note_on_c, 4, 35, 95
4, 51840, Note_off_c, 4, 35, 80
4, 51840, Note_on_c, 4, 38, 95
4, 52320, Note_off_c, 4, 38, 80
4, 52560, Note_on_c, 4, 38, 95
4, 52800, Note_off_c, 4, 38, 80
4, 52800, Note_on_c, 4, 38, 95
4, 53760, Note_off_c, 4, 38, 80
4, 53760, Note_on_c, 4, 28, 95
4, 54240, Note_off_c, 4, 28, 80
4, 54240, Note_on_c, 4, 30, 95
4, 54720, Note_off_c, 4, 30, 80
4, 54720, Note_on_c, 4, 30, 95
4, 55200, Note_off_c, 4, 30, 80
4, 55200, Note_on_c, 4, 33, 95
4, 55680, Note_off_c, 4, 33, 80
4, 55680, Note_on_c, 4, 38, 95
4, 56160, Note_off_c, 4, 38, 80
4, 56400, Note_on_c, 4, 38, 95
4, 56640, Note_off_c, 4, 38, 80
4, 56640, Note_on_c, 4, 38, 95
4, 57600, Note_off_c, 4, 38, 80
4, 57600, Note_on_c, 4, 35, 95
4, 58080, Note_off_c, 4, 35, 80
4, 58320, Note_on_c, 4, 35, 95
4, 58560, Note_off_c, 4, 35, 80
4, 58560, Note_on_c, 4, 35, 95
4, 59520, Note_off_c, 4, 35, 80
4, 59520, Note_on_c, 4, 38, 95
4, 60000, Note_off_c, 4, 38, 80
4, 60240, Note_on_c, 4, 38, 95
4, 60480, Note_off_c, 4, 38, 80
4, 60480, Note_on_c, 4, 38, 95
4, 61440, Note_off_c, 4, 38, 80
4, 61440, Note_on_c, 4, 28, 95
4, 61920, Note_off_c, 4, 28, 80
4, 61920, Note_on_c, 4, 30, 95
4, 62400, Note_off_c, 4, 30, 80
4, 62400, Note_on_c, 4, 30, 95
4, 62880, Note_off_c, 4, 30, 80
4, 62880, Note_on_c, 4, 33, 95
4, 63360, Note_off_c, 4, 33, 80
4, 63360, Note_on_c, 4, 38, 95
4, 63840, Note_off_c, 4, 38, 80
4, 64080, Note_on_c, 4, 38, 95
4, 64320, Note_off_c, 4, 38, 80
4, 64320, Note_on_c, 4, 38, 95
4, 65280, Note_off_c, 4, 38, 80
4, 65280, Note_on_c, 4, 35, 95
4, 65760, Note_off_c, 4, 35, 80
4, 66000, Note_on_c, 4, 35, 95
4, 66240, Note_off_c, 4, 35, 80
4, 66240, Note_on_c, 4, 35, 95
4, 67200, Note_off_c, 4, 35, 80
4, 67200, Note_on_c, 4, 38, 95
4, 67680, Note_off_c, 4, 38, 80
4, 67920, Note_on_c, 4, 38, 95
4, 68160, Note_off_c, 4, 38, 80
4, 68160, Note_on_c, 4, 38, 95
4, 69120, Note_off_c, 4, 38, 80
4, 69120, Note_on_c, 4, 28, 95
4, 69600, Note_off_c, 4, 28, 80
4, 69600, Note_on_c, 4, 30, 95
4, 70080, Note_off_c, 4, 30, 80
4, 70080, Note_on_c, 4, 30, 95
4, 70560, Note_off_c, 4, 30, 80
4, 70560, Note_on_c, 4, 33, 95
4, 71040, Note_off_c, 4, 33, 80
4, 71040, Note_on_c, 4, 38, 95
4, 71520, Note_off_c, 4, 38, 80
4, 71760, Note_on_c, 4, 38, 95
4, 72000, Note_off_c, 4, 38, 80
4, 72000, Note_on_c, 4, 38, 95
4, 72960, Note_off_c, 4, 38, 80
4, 72960, Note_on_c, 4, 35, 95
4, 73440, Note_off_c, 4, 35, 80
4, 73680, Note_on_c, 4, 35, 95
4, 73920, Note_off_c, 4, 35, 80
4, 73920, Note_on_c, 4, 35, 95
4, 74880, Note_off_c, 4, 35, 80
4, 74880, Note_on_c, 4, 38, 95
4, 75360, Note_off_c, 4, 38, 80
4, 75600, Note_on_c, 4, 38, 95
4, 75840, Note_off_c, 4, 38, 80
4, 75840, Note_on_c, 4, 38, 95
4, 76800, Note_off_c, 4, 38, 80
4, 76800, Note_on_c, 4, 28, 95
4, 77280, Note_off_c, 4, 28, 80
4, 77280, Note_on_c, 4, 30, 95
4, 77760, Note_off_c, 4, 30, 80
4, 77760, Note_on_c, 4, 30, 95
4, 78240, Note_off_c, 4, 30, 80
4, 78240, Note_on_c, 4, 33, 95
4, 78720, Note_off_c, 4, 33, 80
4, 78720, Note_on_c, 4, 38, 95
4, 79200, Note_off_c, 4, 38, 80
4, 79440, Note_on_c, 4, 38, 95
4, 79680, Note_off_c, 4, 38, 80
4, 79680, Note_on_c, 4, 38, 95
4, 80640, Note_off_c, 4, 38, 80
4, 80640, Note_on_c, 4, 35, 95
4, 81120, Note_off_c, 4, 35, 80
4, 81360, Note_on_c, 4, 35, 95
4, 81600, Note_off_c, 4, 35, 80
4, 81600, Note_on_c, 4, 35, 95
4, 82560, Note_off_c, 4, 35, 80
4, 82560, Note_on_c, 4, 38, 95
4, 83040, Note_off_c, 4, 38, 80
4, 83280, Note_on_c, 4, 38, 95
4, 83520, Note_off_c, 4, 38, 80
4, 83520, Note_on_c, 4, 38, 95
4, 84480, Note_off_c, 4, 38, 80
4, 84480, Note_on_c, 4, 28, 95
4, 84960, Note_off_c, 4, 28, 80
4, 84960, Note_on_c, 4, 30, 95
4, 85440, Note_off_c, 4, 30, 80
4, 85440, Note_on_c, 4, 30, 95
4, 85920, Note_off_c, 4, 30, 80
4, 85920, Note_on_c, 4, 33, 95
4, 86400, Note_off_c, 4, 33, 80
4, 86400, Note_on_c, 4, 38, 95
4, 86880, Note_off_c, 4, 38, 80
4, 87120, Note_on_c, 4, 38, 95
4, 87360, Note_off_c, 4, 38, 80
4, 87360, Note_on_c, 4, 38, 95
4, 88320, Note_off_c, 4, 38, 80
4, 88320, Note_on_c, 4, 35, 95
4, 88800, Note_off_c, 4, 35, 80
4, 89040, Note_on_c, 4, 35, 95
4, 89280, Note_off_c, 4, 35, 80
4, 89280, Note_on_c, 4, 35, 95
4, 90240, Note_off_c, 4, 35, 80
4, 90240, Note_on_c, 4, 38, 95
4, 90720, Note_off_c, 4, 38, 80
4, 90960, Note_on_c, 4, 38, 95
4, 91200, Note_off_c, 4, 38, 80
4, 91200, Note_on_c, 4, 38, 95
4, 92160, Note_off_c, 4, 38, 80
4, 92160, Note_on_c, 4, 28, 95
4, 92640, Note_off_c, 4, 28, 80
4, 92640, Note_on_c, 4, 30, 95
4, 93120, Note_off_c, 4, 30, 80
4, 93120, Note_on_c, 4, 30, 95
4, 93600, Note_off_c, 4, 30, 80
4, 93600, Note_on_c, 4, 33, 95
4, 94080, Note_off_c, 4, 33, 80
4, 94080, Note_on_c, 4, 38, 95
4, 94560, Note_off_c, 4, 38, 80
4, 94800, Note_on_c, 4, 38, 95
4, 95040, Note_off_c, 4, 38, 80
4, 95040, Note_on_c, 4, 38, 95
4, 96000, Note_off_c, 4, 38, 80
4, 96000, Note_on_c, 4, 35, 95
4, 96480, Note_off_c, 4, 35, 80
4, 96720, Note_on_c, 4, 35, 95
4, 96960, Note_off_c, 4, 35, 80
4, 96960, Note_on_c, 4, 35, 95
4, 97920, Note_off_c, 4, 35, 80
4, 97920, Note_on_c, 4, 38, 95
4, 98400, Note_off_c, 4, 38, 80
4, 98640, Note_on_c, 4, 38, 95
4, 98880, Note_off_c, 4, 38, 80
4, 98880, Note_on_c, 4, 38, 95
4, 99840, Note_off_c, 4, 38, 80
4, 99840, Note_on_c, 4, 28, 95
4, 100320, Note_off_c, 4, 28, 80
4, 100320, Note_on_c, 4, 30, 95
4, 100800, Note_off_c, 4, 30, 80
4, 100800, Note_on_c, 4, 30, 95
4, 101280, Note_off_c, 4, 30, 80
4, 101280, Note_on_c, 4, 33, 95
4, 101760, Note_off_c, 4, 33, 80
4, 101760, Note_on_c, 4, 38, 95
4, 103680, Note_off_c, 4, 38, 80
4, 103680, Note_on_c, 4, 35, 95
4, 105600, Note_off_c, 4, 35, 80
4, 105600, Note_on_c, 4, 38, 95
4, 107520, Note_off_c, 4, 38, 80
4, 107520, Note_on_c, 4, 28, 95
4, 108000, Note_off_c, 4, 28, 80
4, 108000, Note_on_c, 4, 30, 95
4, 108480, Note_off_c, 4, 30, 80
4, 108480, Note_on_c, 4, 30, 95
4, 108960, Note_off_c, 4, 30, 80
4, 108960, Note_on_c, 4, 33, 95
4, 109440, Note_off_c, 4, 33, 80
4, 109440, Note_on_c, 4, 38, 95
4, 111360, Note_off_c, 4, 38, 80
4, 111360, Note_on_c, 4, 35, 95
4, 113280, Note_off_c, 4, 35, 80
4, 113280, Note_on_c, 4, 38, 95
4, 115200, Note_off_c, 4, 38, 80
4, 115200, Note_on_c, 4, 28, 95
4, 115680, Note_off_c, 4, 28, 80
4, 115680, Note_on_c, 4, 30, 95
4, 116160, Note_off_c, 4, 30, 80
4, 116160, Note_on_c, 4, 30, 95
4, 116640, Note_off_c, 4, 30, 80
4, 116640, Note_on_c, 4, 33, 95
4, 117120, Note_off_c, 4, 33, 80
4, 117120, Note_on_c, 4, 38, 95
4, 117600, Note_off_c, 4, 38, 80
4, 117840, Note_on_c, 4, 38, 95
4, 118080, Note_off_c, 4, 38, 80
4, 118080, Note_on_c, 4, 38, 95
4, 119040, Note_off_c, 4, 38, 80
4, 119040, Note_on_c, 4, 35, 95
4, 119520, Note_off_c, 4, 35, 80
4, 119760, Note_on_c, 4, 35, 95
4, 120000, Note_off_c, 4, 35, 80
4, 120000, Note_on_c, 4, 35, 95
4, 120960, Note_off_c, 4, 35, 80
4, 120960, Note_on_c, 4, 38, 95
4, 121440, Note_off_c, 4, 38, 80
4, 121680, Note_on_c, 4, 38, 95
4, 121920, Note_off_c, 4, 38, 80
4, 121920, Note_on_c, 4, 38, 95
4, 122880, Note_off_c, 4, 38, 80
4, 122880, Note_on_c, 4, 28, 95
4, 123360, Note_off_c, 4, 28, 80
4, 123360, Note_on_c, 4, 30, 95
4, 123840, Note_off_c, 4, 30, 80
4, 123840, Note_on_c, 4, 30, 95
4, 124320, Note_off_c, 4, 30, 80
4, 124320, Note_on_c, 4, 33, 95
4, 124800, Note_off_c, 4, 33, 80
4, 124800, Note_on_c, 4, 38, 95
4, 125280, Note_off_c, 4, 38, 80
4, 125520, Note_on_c, 4, 38, 95
4, 125760, Note_off_c, 4, 38, 80
4, 125760, Note_on_c, 4, 38, 95
4, 126720, Note_off_c, 4, 38, 80
4, 126720, Note_on_c, 4, 35, 95
4, 127200, Note_off_c, 4, 35, 80
4, 127440, Note_on_c, 4, 35, 95
4, 127680, Note_off_c, 4, 35, 80
4, 127680, Note_on_c, 4, 35, 95
4, 128640, Note_off_c, 4, 35, 80
4, 128640, Note_on_c, 4, 38, 95
4, 129120, Note_off_c, 4, 38, 80
4, 129360, Note_on_c, 4, 38, 95
4, 129600, Note_off_c, 4, 38, 80
4, 129600, Note_on_c, 4, 38, 95
4, 130560, Note_off_c, 4, 38, 80
4, 130560, Note_on_c, 4, 28, 95
4, 131040, Note_off_c, 4, 28, 80
4, 131040, Note_on_c, 4, 30, 95
4, 131520, Note_off_c, 4, 30, 80
4, 131520, Note_on_c, 4, 30, 95
4, 132000, Note_off_c, 4, 30, 80
4, 132000, Note_on_c, 4, 33, 95
4, 132480, Note_off_c, 4, 33, 80
4, 132480, Note_on_c, 4, 38, 95
4, 132960, Note_off_c, 4, 38, 80
4, 133200, Note_on_c, 4, 38, 95
4, 133440, Note_off_c, 4, 38, 80
4, 133440, Note_on_c, 4, 38, 95
4, 134400, Note_off_c, 4, 38, 80
4, 134400, Note_on_c, 4, 35, 95
4, 134880, Note_off_c, 4, 35, 80
4, 135120, Note_on_c, 4, 35, 95
4, 135360, Note_off_c, 4, 35, 80
4, 135360, Note_on_c, 4, 35, 95
4, 136320, Note_off_c, 4, 35, 80
4, 136320, Note_on_c, 4, 38, 95
4, 136800, Note_off_c, 4, 38, 80
4, 137040, Note_on_c, 4, 38, 95
4, 137280, Note_off_c, 4, 38, 80
4, 137280, Note_on_c, 4, 38, 95
4, 138240, Note_off_c, 4, 38, 80
4, 138240, Note_on_c, 4, 28, 95
4, 138720, Note_off_c, 4, 28, 80
4, 138720, Note_on_c, 4, 30, 95
4, 139200, Note_off_c, 4, 30, 80
4, 139200, Note_on_c, 4, 30, 95
4, 139680, Note_off_c, 4, 30, 80
4, 139680, Note_on_c, 4, 33, 95
4, 140160, Note_off_c, 4, 33, 80
4, 140160, Note_on_c, 4, 38, 95
4, 140640, Note_off_c, 4, 38, 80
4, 140880, Note_on_c, 4, 38, 95
4, 141120, Note_off_c, 4, 38, 80
4, 141120, Note_on_c, 4, 38, 95
4, 142080, Note_off_c, 4, 38, 80
4, 142080, Note_on_c, 4, 35, 95
4, 142560, Note_off_c, 4, 35, 80
4, 142800, Note_on_c, 4, 35, 95
4, 143040, Note_off_c, 4, 35, 80
4, 143040, Note_on_c, 4, 35, 95
4, 144000, Note_off_c, 4, 35, 80
4, 144000, Note_on_c, 4, 38, 95
4, 144480, Note_off_c, 4, 38, 80
4, 144720, Note_on_c, 4, 38, 95
4, 144960, Note_off_c, 4, 38, 80
4, 144960, Note_on_c, 4, 38, 95
4, 145920, Note_off_c, 4, 38, 80
4, 145920, Note_on_c, 4, 28, 95
4, 146400, Note_off_c, 4, 28, 80
4, 146400, Note_on_c, 4, 30, 95
4, 146880, Note_off_c, 4, 30, 80
4, 146880, Note_on_c, 4, 30, 95
4, 147360, Note_off_c, 4, 30, 80
4, 147360, Note_on_c, 4, 33, 95
4, 147840, Note_off_c, 4, 33, 80
4, 147840, Note_on_c, 4, 38, 95
4, 148320, Note_off_c, 4, 38, 80
4, 148560, Note_on_c, 4, 38, 95
4, 148800, Note_off_c, 4, 38, 80
4, 148800, Note_on_c, 4, 38, 95
4, 149760, Note_off_c, 4, 38, 80
4, 149760, Note_on_c, 4, 35, 95
4, 150240, Note_off_c, 4, 35, 80
4, 150480, Note_on_c, 4, 35, 95
4, 150720, Note_off_c, 4, 35, 80
4, 150720, Note_on_c, 4, 35, 95
4, 151680, Note_off_c, 4, 35, 80
4, 151680, Note_on_c, 4, 38, 95
4, 152160, Note_off_c, 4, 38, 80
4, 152400, Note_on_c, 4, 38, 95
4, 152640, Note_off_c, 4, 38, 80
4, 152640, Note_on_c, 4, 38, 95
4, 153600, Note_off_c, 4, 38, 80
4, 153600, Note_on_c, 4, 28, 95
4, 154080, Note_off_c, 4, 28, 80
4, 154080, Note_on_c, 4, 30, 95
4, 154560, Note_off_c, 4, 30, 80
4, 154560, Note_on_c, 4, 30, 95
4, 155040, Note_off_c, 4, 30, 80
4, 155040, Note_on_c, 4, 33, 95
4, 155520, Note_off_c, 4, 33, 80
4, 155520, Note_on_c, 4, 38, 95
4, 157440, Note_off_c, 4, 38, 80
4, 157440, End_track
5, 0, Start_track
5, 0, Title_t, "Batterie"
5, 0, Control_c, 9, 100, 0
5, 0, Control_c, 9, 101, 0
5, 0, Control_c, 9, 6, 12
5, 0, Pitch_bend_c, 9, 8192
5, 0, Control_c, 9, 101, 0
5, 0, Control_c, 9, 100, 1
5, 0, Control_c, 9, 6, 64
5, 0, Control_c, 9, 38, 0
5, 0, Control_c, 9, 101, 127
5, 0, Control_c, 9, 100, 127
5, 0, Program_c, 9, 24
5, 0, Control_c, 9, 0, 0
5, 0, Control_c, 9, 7, 104
5, 0, Control_c, 9, 10, 64
5, 0, Control_c, 9, 93, 0
5, 0, Control_c, 9, 91, 0
5, 0, Control_c, 9, 92, 0
5, 0, Control_c, 9, 95, 0
5, 0, Note_on_c, 9, 40, 95
5, 0, Note_on_c, 9, 49, 95
5, 480, Note_off_c, 9, 40, 80
5, 480, Note_off_c, 9, 49, 80
5, 480, Note_on_c, 9, 35, 95
5, 480, Note_on_c, 9, 35, 95
5, 480, Note_on_c, 9, 35, 95
5, 480, Note_on_c, 9, 49, 95
5, 960, Note_off_c, 9, 35, 80
5, 960, Note_off_c, 9, 35, 80
5, 960, Note_off_c, 9, 35, 80
5, 960, Note_off_c, 9, 49, 80
5, 960, Note_on_c, 9, 35, 95
5, 960, Note_on_c, 9, 35, 95
5, 960, Note_on_c, 9, 35, 95
5, 960, Note_on_c, 9, 49, 95
5, 1440, Note_off_c, 9, 35, 80
5, 1440, Note_off_c, 9, 35, 80
5, 1440, Note_off_c, 9, 35, 80
5, 1440, Note_off_c, 9, 49, 80
5, 1440, Note_on_c, 9, 40, 95
5, 1440, Note_on_c, 9, 49, 95
5, 1920, Note_off_c, 9, 40, 80
5, 1920, Note_off_c, 9, 49, 80
5, 1920, Note_on_c, 9, 35, 95
5, 1920, Note_on_c, 9, 35, 95
5, 1920, Note_on_c, 9, 35, 95
5, 2400, Note_off_c, 9, 35, 80
5, 2400, Note_off_c, 9, 35, 80
5, 2400, Note_off_c, 9, 35, 80
5, 2400, Note_on_c, 9, 40, 95
5, 2640, Note_off_c, 9, 40, 80
5, 2640, Note_on_c, 9, 35, 95
5, 2640, Note_on_c, 9, 35, 95
5, 2640, Note_on_c, 9, 35, 95
5, 2880, Note_off_c, 9, 35, 80
5, 2880, Note_off_c, 9, 35, 80
5, 2880, Note_off_c, 9, 35, 80
5, 2880, Note_on_c, 9, 35, 95
5, 2880, Note_on_c, 9, 35, 95
5, 2880, Note_on_c, 9, 35, 95
5, 3360, Note_off_c, 9, 35, 80
5, 3360, Note_off_c, 9, 35, 80
5, 3360, Note_off_c, 9, 35, 80
5, 3360, Note_on_c, 9, 40, 95
5, 3840, Note_off_c, 9, 40, 80
5, 3840, Note_on_c, 9, 35, 95
5, 3840, Note_on_c, 9, 35, 95
5, 3840, Note_on_c, 9, 35, 95
5, 4320, Note_off_c, 9, 35, 80
5, 4320, Note_off_c, 9, 35, 80
5, 4320, Note_off_c, 9, 35, 80
5, 4320, Note_on_c, 9, 40, 95
5, 4560, Note_off_c, 9, 40, 80
5, 4560, Note_on_c, 9, 35, 95
5, 4560, Note_on_c, 9, 35, 95
5, 4560, Note_on_c, 9, 35, 95
5, 4800, Note_off_c, 9, 35, 80
5, 4800, Note_off_c, 9, 35, 80
5, 4800, Note_off_c, 9, 35, 80
5, 4800, Note_on_c, 9, 35, 95
5, 4800, Note_on_c, 9, 35, 95
5, 4800, Note_on_c, 9, 35, 95
5, 5280, Note_off_c, 9, 35, 80
5, 5280, Note_off_c, 9, 35, 80
5, 5280, Note_off_c, 9, 35, 80
5, 5280, Note_on_c, 9, 40, 95
5, 5760, Note_off_c, 9, 40, 80
5, 5760, Note_on_c, 9, 35, 95
5, 5760, Note_on_c, 9, 35, 95
5, 5760, Note_on_c, 9, 35, 95
5, 6240, Note_off_c, 9, 35, 80
5, 6240, Note_off_c, 9, 35, 80
5, 6240, Note_off_c, 9, 35, 80
5, 6240, Note_on_c, 9, 40, 95
5, 6480, Note_off_c, 9, 40, 80
5, 6480, Note_on_c, 9, 35, 95
5, 6480, Note_on_c, 9, 35, 95
5, 6480, Note_on_c, 9, 35, 95
5, 6720, Note_off_c, 9, 35, 80
5, 6720, Note_off_c, 9, 35, 80
5, 6720, Note_off_c, 9, 35, 80
5, 6720, Note_on_c, 9, 35, 95
5, 6720, Note_on_c, 9, 35, 95
5, 6720, Note_on_c, 9, 35, 95
5, 7200, Note_off_c, 9, 35, 80
5, 7200, Note_off_c, 9, 35, 80
5, 7200, Note_off_c, 9, 35, 80
5, 7200, Note_on_c, 9, 40, 95
5, 7680, Note_off_c, 9, 40, 80
5, 7680, Note_on_c, 9, 35, 95
5, 7680, Note_on_c, 9, 35, 95
5, 7680, Note_on_c, 9, 35, 95
5, 8160, Note_off_c, 9, 35, 80
5, 8160, Note_off_c, 9, 35, 80
5, 8160, Note_off_c, 9, 35, 80
5, 8160, Note_on_c, 9, 40, 95
5, 8400, Note_off_c, 9, 40, 80
5, 8400, Note_on_c, 9, 35, 95
5, 8400, Note_on_c, 9, 35, 95
5, 8400, Note_on_c, 9, 35, 95
5, 8640, Note_off_c, 9, 35, 80
5, 8640, Note_off_c, 9, 35, 80
5, 8640, Note_off_c, 9, 35, 80
5, 8640, Note_on_c, 9, 35, 95
5, 8640, Note_on_c, 9, 35, 95
5, 8640, Note_on_c, 9, 35, 95
5, 9120, Note_off_c, 9, 35, 80
5, 9120, Note_off_c, 9, 35, 80
5, 9120, Note_off_c, 9, 35, 80
5, 9120, Note_on_c, 9, 40, 95
5, 9600, Note_off_c, 9, 40, 80
5, 9600, Note_on_c, 9, 35, 95
5, 9600, Note_on_c, 9, 35, 95
5, 9600, Note_on_c, 9, 35, 95
5, 10080, Note_off_c, 9, 35, 80
5, 10080, Note_off_c, 9, 35, 80
5, 10080, Note_off_c, 9, 35, 80
5, 10080, Note_on_c, 9, 40, 95
5, 10320, Note_off_c, 9, 40, 80
5, 10320, Note_on_c, 9, 35, 95
5, 10320, Note_on_c, 9, 35, 95
5, 10320, Note_on_c, 9, 35, 95
5, 10560, Note_off_c, 9, 35, 80
5, 10560, Note_off_c, 9, 35, 80
5, 10560, Note_off_c, 9, 35, 80
5, 10560, Note_on_c, 9, 35, 95
5, 10560, Note_on_c, 9, 35, 95
5, 10560, Note_on_c, 9, 35, 95
5, 11040, Note_off_c, 9, 35, 80
5, 11040, Note_off_c, 9, 35, 80
5, 11040, Note_off_c, 9, 35, 80
5, 11040, Note_on_c, 9, 40, 95
5, 11520, Note_off_c, 9, 40, 80
5, 11520, Note_on_c, 9, 35, 95
5, 11520, Note_on_c, 9, 35, 95
5, 11520, Note_on_c, 9, 35, 95
5, 12000, Note_off_c, 9, 35, 80
5, 12000, Note_off_c, 9, 35, 80
5, 12000, Note_off_c, 9, 35, 80
5, 12000, Note_on_c, 9, 40, 95
5, 12240, Note_off_c, 9, 40, 80
5, 12240, Note_on_c, 9, 35, 95
5, 12240, Note_on_c, 9, 35, 95
5, 12240, Note_on_c, 9, 35, 95
5, 12480, Note_off_c, 9, 35, 80
5, 12480, Note_off_c, 9, 35, 80
5, 12480, Note_off_c, 9, 35, 80
5, 12480, Note_on_c, 9, 35, 95
5, 12480, Note_on_c, 9, 35, 95
5, 12480, Note_on_c, 9, 35, 95
5, 12960, Note_off_c, 9, 35, 80
5, 12960, Note_off_c, 9, 35, 80
5, 12960, Note_off_c, 9, 35, 80
5, 12960, Note_on_c, 9, 40, 95
5, 13440, Note_off_c, 9, 40, 80
5, 13440, Note_on_c, 9, 35, 95
5, 13440, Note_on_c, 9, 35, 95
5, 13440, Note_on_c, 9, 35, 95
5, 13920, Note_off_c, 9, 35, 80
5, 13920, Note_off_c, 9, 35, 80
5, 13920, Note_off_c, 9, 35, 80
5, 13920, Note_on_c, 9, 40, 95
5, 14160, Note_off_c, 9, 40, 80
5, 14160, Note_on_c, 9, 35, 95
5, 14160, Note_on_c, 9, 35, 95
5, 14160, Note_on_c, 9, 35, 95
5, 14400, Note_off_c, 9, 35, 80
5, 14400, Note_off_c, 9, 35, 80
5, 14400, Note_off_c, 9, 35, 80
5, 14400, Note_on_c, 9, 35, 95
5, 14400, Note_on_c, 9, 35, 95
5, 14400, Note_on_c, 9, 35, 95
5, 14880, Note_off_c, 9, 35, 80
5, 14880, Note_off_c, 9, 35, 80
5, 14880, Note_off_c, 9, 35, 80
5, 14880, Note_on_c, 9, 40, 95
5, 15360, Note_off_c, 9, 40, 80
5, 15360, Note_on_c, 9, 35, 95
5, 15360, Note_on_c, 9, 35, 95
5, 15360, Note_on_c, 9, 35, 95
5, 15840, Note_off_c, 9, 35, 80
5, 15840, Note_off_c, 9, 35, 80
5, 15840, Note_off_c, 9, 35, 80
5, 15840, Note_on_c, 9, 40, 95
5, 16080, Note_off_c, 9, 40, 80
5, 16080, Note_on_c, 9, 35, 95
5, 16080, Note_on_c, 9, 35, 95
5, 16080, Note_on_c, 9, 35, 95
5, 16320, Note_off_c, 9, 35, 80
5, 16320, Note_off_c, 9, 35, 80
5, 16320, Note_off_c, 9, 35, 80
5, 16320, Note_on_c, 9, 35, 95
5, 16320, Note_on_c, 9, 35, 95
5, 16320, Note_on_c, 9, 35, 95
5, 16800, Note_off_c, 9, 35, 80
5, 16800, Note_off_c, 9, 35, 80
5, 16800, Note_off_c, 9, 35, 80
5, 16800, Note_on_c, 9, 40, 95
5, 17280, Note_off_c, 9, 40, 80
5, 17280, Note_on_c, 9, 35, 95
5, 17280, Note_on_c, 9, 35, 95
5, 17280, Note_on_c, 9, 35, 95
5, 17760, Note_off_c, 9, 35, 80
5, 17760, Note_off_c, 9, 35, 80
5, 17760, Note_off_c, 9, 35, 80
5, 17760, Note_on_c, 9, 40, 95
5, 18000, Note_off_c, 9, 40, 80
5, 18000, Note_on_c, 9, 35, 95
5, 18000, Note_on_c, 9, 35, 95
5, 18000, Note_on_c, 9, 35, 95
5, 18240, Note_off_c, 9, 35, 80
5, 18240, Note_off_c, 9, 35, 80
5, 18240, Note_off_c, 9, 35, 80
5, 18240, Note_on_c, 9, 35, 95
5, 18240, Note_on_c, 9, 35, 95
5, 18240, Note_on_c, 9, 35, 95
5, 18720, Note_off_c, 9, 35, 80
5, 18720, Note_off_c, 9, 35, 80
5, 18720, Note_off_c, 9, 35, 80
5, 18720, Note_on_c, 9, 40, 95
5, 19200, Note_off_c, 9, 40, 80
5, 19200, Note_on_c, 9, 35, 95
5, 19200, Note_on_c, 9, 35, 95
5, 19200, Note_on_c, 9, 35, 95
5, 19680, Note_off_c, 9, 35, 80
5, 19680, Note_off_c, 9, 35, 80
5, 19680, Note_off_c, 9, 35, 80
5, 19680, Note_on_c, 9, 40, 95
5, 19920, Note_off_c, 9, 40, 80
5, 19920, Note_on_c, 9, 35, 95
5, 19920, Note_on_c, 9, 35, 95
5, 19920, Note_on_c, 9, 35, 95
5, 20160, Note_off_c, 9, 35, 80
5, 20160, Note_off_c, 9, 35, 80
5, 20160, Note_off_c, 9, 35, 80
5, 20160, Note_on_c, 9, 35, 95
5, 20160, Note_on_c, 9, 35, 95
5, 20160, Note_on_c, 9, 35, 95
5, 20640, Note_off_c, 9, 35, 80
5, 20640, Note_off_c, 9, 35, 80
5, 20640, Note_off_c, 9, 35, 80
5, 20640, Note_on_c, 9, 40, 95
5, 21120, Note_off_c, 9, 40, 80
5, 21120, Note_on_c, 9, 35, 95
5, 21120, Note_on_c, 9, 35, 95
5, 21120, Note_on_c, 9, 35, 95
5, 21600, Note_off_c, 9, 35, 80
5, 21600, Note_off_c, 9, 35, 80
5, 21600, Note_off_c, 9, 35, 80
5, 21600, Note_on_c, 9, 40, 95
5, 21840, Note_off_c, 9, 40, 80
5, 21840, Note_on_c, 9, 35, 95
5, 21840, Note_on_c, 9, 35, 95
5, 21840, Note_on_c, 9, 35, 95
5, 22080, Note_off_c, 9, 35, 80
5, 22080, Note_off_c, 9, 35, 80
5, 22080, Note_off_c, 9, 35, 80
5, 22080, Note_on_c, 9, 35, 95
5, 22080, Note_on_c, 9, 35, 95
5, 22080, Note_on_c, 9, 35, 95
5, 22560, Note_off_c, 9, 35, 80
5, 22560, Note_off_c, 9, 35, 80
5, 22560, Note_off_c, 9, 35, 80
5, 22560, Note_on_c, 9, 40, 95
5, 23040, Note_off_c, 9, 40, 80
5, 23040, Note_on_c, 9, 40, 95
5, 23040, Note_on_c, 9, 49, 95
5, 23520, Note_off_c, 9, 40, 80
5, 23520, Note_off_c, 9, 49, 80
5, 23520, Note_on_c, 9, 35, 95
5, 23520, Note_on_c, 9, 35, 95
5, 23520, Note_on_c, 9, 35, 95
5, 23520, Note_on_c, 9, 49, 95
5, 24000, Note_off_c, 9, 35, 80
5, 24000, Note_off_c, 9, 35, 80
5, 24000, Note_off_c, 9, 35, 80
5, 24000, Note_off_c, 9, 49, 80
5, 24000, Note_on_c, 9, 35, 95
5, 24000, Note_on_c, 9, 35, 95
5, 24000, Note_on_c, 9, 35, 95
5, 24000, Note_on_c, 9, 49, 95
5, 24480, Note_off_c, 9, 35, 80
5, 24480, Note_off_c, 9, 35, 80
5, 24480, Note_off_c, 9, 35, 80
5, 24480, Note_off_c, 9, 49, 80
5, 24480, Note_on_c, 9, 40, 95
5, 24480, Note_on_c, 9, 49, 95
5, 24960, Note_off_c, 9, 40, 80
5, 24960, Note_off_c, 9, 49, 80
5, 24960, Note_on_c, 9, 35, 95
5, 24960, Note_on_c, 9, 35, 95
5, 24960, Note_on_c, 9, 35, 95
5, 25440, Note_off_c, 9, 35, 80
5, 25440, Note_off_c, 9, 35, 80
5, 25440, Note_off_c, 9, 35, 80
5, 25440, Note_on_c, 9, 40, 95
5, 25680, Note_off_c, 9, 40, 80
5, 25680, Note_on_c, 9, 35, 95
5, 25680, Note_on_c, 9, 35, 95
5, 25680, Note_on_c, 9, 35, 95
5, 25920, Note_off_c, 9, 35, 80
5, 25920, Note_off_c, 9, 35, 80
5, 25920, Note_off_c, 9, 35, 80
5, 25920, Note_on_c, 9, 35, 95
5, 25920, Note_on_c, 9, 35, 95
5, 25920, Note_on_c, 9, 35, 95
5, 26400, Note_off_c, 9, 35, 80
5, 26400, Note_off_c, 9, 35, 80
5, 26400, Note_off_c, 9, 35, 80
5, 26400, Note_on_c, 9, 40, 95
5, 26880, Note_off_c, 9, 40, 80
5, 26880, Note_on_c, 9, 35, 95
5, 26880, Note_on_c, 9, 35, 95
5, 26880, Note_on_c, 9, 35, 95
5, 27360, Note_off_c, 9, 35, 80
5, 27360, Note_off_c, 9, 35, 80
5, 27360, Note_off_c, 9, 35, 80
5, 27360, Note_on_c, 9, 40, 95
5, 27600, Note_off_c, 9, 40, 80
5, 27600, Note_on_c, 9, 35, 95
5, 27600, Note_on_c, 9, 35, 95
5, 27600, Note_on_c, 9, 35, 95
5, 27840, Note_off_c, 9, 35, 80
5, 27840, Note_off_c, 9, 35, 80
5, 27840, Note_off_c, 9, 35, 80
5, 27840, Note_on_c, 9, 35, 95
5, 27840, Note_on_c, 9, 35, 95
5, 27840, Note_on_c, 9, 35, 95
5, 28320, Note_off_c, 9, 35, 80
5, 28320, Note_off_c, 9, 35, 80
5, 28320, Note_off_c, 9, 35, 80
5, 28320, Note_on_c, 9, 40, 95
5, 28800, Note_off_c, 9, 40, 80
5, 28800, Note_on_c, 9, 35, 95
5, 28800, Note_on_c, 9, 35, 95
5, 28800, Note_on_c, 9, 35, 95
5, 29280, Note_off_c, 9, 35, 80
5, 29280, Note_off_c, 9, 35, 80
5, 29280, Note_off_c, 9, 35, 80
5, 29280, Note_on_c, 9, 40, 95
5, 29520, Note_off_c, 9, 40, 80
5, 29520, Note_on_c, 9, 35, 95
5, 29520, Note_on_c, 9, 35, 95
5, 29520, Note_on_c, 9, 35, 95
5, 29760, Note_off_c, 9, 35, 80
5, 29760, Note_off_c, 9, 35, 80
5, 29760, Note_off_c, 9, 35, 80
5, 29760, Note_on_c, 9, 35, 95
5, 29760, Note_on_c, 9, 35, 95
5, 29760, Note_on_c, 9, 35, 95
5, 30240, Note_off_c, 9, 35, 80
5, 30240, Note_off_c, 9, 35, 80
5, 30240, Note_off_c, 9, 35, 80
5, 30240, Note_on_c, 9, 40, 95
5, 30720, Note_off_c, 9, 40, 80
5, 30720, Note_on_c, 9, 40, 95
5, 30720, Note_on_c, 9, 49, 95
5, 31200, Note_off_c, 9, 40, 80
5, 31200, Note_off_c, 9, 49, 80
5, 31200, Note_on_c, 9, 35, 95
5, 31200, Note_on_c, 9, 35, 95
5, 31200, Note_on_c, 9, 35, 95
5, 31200, Note_on_c, 9, 49, 95
5, 31680, Note_off_c, 9, 35, 80
5, 31680, Note_off_c, 9, 35, 80
5, 31680, Note_off_c, 9, 35, 80
5, 31680, Note_off_c, 9, 49, 80
5, 31680, Note_on_c, 9, 35, 95
5, 31680, Note_on_c, 9, 35, 95
5, 31680, Note_on_c, 9, 35, 95
5, 31680, Note_on_c, 9, 49, 95
5, 32160, Note_off_c, 9, 35, 80
5, 32160, Note_off_c, 9, 35, 80
5, 32160, Note_off_c, 9, 35, 80
5, 32160, Note_off_c, 9, 49, 80
5, 32160, Note_on_c, 9, 40, 95
5, 32160, Note_on_c, 9, 49, 95
5, 32640, Note_off_c, 9, 40, 80
5, 32640, Note_off_c, 9, 49, 80
5, 32640, Note_on_c, 9, 35, 95
5, 32640, Note_on_c, 9, 35, 95
5, 32640, Note_on_c, 9, 35, 95
5, 33120, Note_off_c, 9, 35, 80
5, 33120, Note_off_c, 9, 35, 80
5, 33120, Note_off_c, 9, 35, 80
5, 33120, Note_on_c, 9, 40, 95
5, 33360, Note_off_c, 9, 40, 80
5, 33360, Note_on_c, 9, 35, 95
5, 33360, Note_on_c, 9, 35, 95
5, 33360, Note_on_c, 9, 35, 95
5, 33600, Note_off_c, 9, 35, 80
5, 33600, Note_off_c, 9, 35, 80
5, 33600, Note_off_c, 9, 35, 80
5, 33600, Note_on_c, 9, 35, 95
5, 33600, Note_on_c, 9, 35, 95
5, 33600, Note_on_c, 9, 35, 95
5, 34080, Note_off_c, 9, 35, 80
5, 34080, Note_off_c, 9, 35, 80
5, 34080, Note_off_c, 9, 35, 80
5, 34080, Note_on_c, 9, 40, 95
5, 34560, Note_off_c, 9, 40, 80
5, 34560, Note_on_c, 9, 35, 95
5, 34560, Note_on_c, 9, 35, 95
5, 34560, Note_on_c, 9, 35, 95
5, 35040, Note_off_c, 9, 35, 80
5, 35040, Note_off_c, 9, 35, 80
5, 35040, Note_off_c, 9, 35, 80
5, 35040, Note_on_c, 9, 40, 95
5, 35280, Note_off_c, 9, 40, 80
5, 35280, Note_on_c, 9, 35, 95
5, 35280, Note_on_c, 9, 35, 95
5, 35280, Note_on_c, 9, 35, 95
5, 35520, Note_off_c, 9, 35, 80
5, 35520, Note_off_c, 9, 35, 80
5, 35520, Note_off_c, 9, 35, 80
5, 35520, Note_on_c, 9, 35, 95
5, 35520, Note_on_c, 9, 35, 95
5, 35520, Note_on_c, 9, 35, 95
5, 36000, Note_off_c, 9, 35, 80
5, 36000, Note_off_c, 9, 35, 80
5, 36000, Note_off_c, 9, 35, 80
5, 36000, Note_on_c, 9, 40, 95
5, 36480, Note_off_c, 9, 40, 80
5, 36480, Note_on_c, 9, 35, 95
5, 36480, Note_on_c, 9, 35, 95
5, 36480, Note_on_c, 9, 35, 95
5, 36960, Note_off_c, 9, 35, 80
5, 36960, Note_off_c, 9, 35, 80
5, 36960, Note_off_c, 9, 35, 80
5, 36960, Note_on_c, 9, 40, 95
5, 37200, Note_off_c, 9, 40, 80
5, 37200, Note_on_c, 9, 35, 95
5, 37200, Note_on_c, 9, 35, 95
5, 37200, Note_on_c, 9, 35, 95
5, 37440, Note_off_c, 9, 35, 80
5, 37440, Note_off_c, 9, 35, 80
5, 37440, Note_off_c, 9, 35, 80
5, 37440, Note_on_c, 9, 35, 95
5, 37440, Note_on_c, 9, 35, 95
5, 37440, Note_on_c, 9, 35, 95
5, 37920, Note_off_c, 9, 35, 80
5, 37920, Note_off_c, 9, 35, 80
5, 37920, Note_off_c, 9, 35, 80
5, 37920, Note_on_c, 9, 40, 95
5, 38400, Note_off_c, 9, 40, 80
5, 38400, Note_on_c, 9, 40, 95
5, 38400, Note_on_c, 9, 49, 95
5, 38880, Note_off_c, 9, 40, 80
5, 38880, Note_off_c, 9, 49, 80
5, 38880, Note_on_c, 9, 35, 95
5, 38880, Note_on_c, 9, 35, 95
5, 38880, Note_on_c, 9, 35, 95
5, 38880, Note_on_c, 9, 49, 95
5, 39360, Note_off_c, 9, 35, 80
5, 39360, Note_off_c, 9, 35, 80
5, 39360, Note_off_c, 9, 35, 80
5, 39360, Note_off_c, 9, 49, 80
5, 39360, Note_on_c, 9, 35, 95
5, 39360, Note_on_c, 9, 35, 95
5, 39360, Note_on_c, 9, 35, 95
5, 39360, Note_on_c, 9, 49, 95
5, 39600, Note_off_c, 9, 35, 80
5, 39600, Note_off_c, 9, 35, 80
5, 39600, Note_off_c, 9, 35, 80
5, 39600, Note_off_c, 9, 49, 80
5, 39600, Note_on_c, 9, 40, 95
5, 39600, Note_on_c, 9, 49, 95
5, 39840, Note_off_c, 9, 40, 80
5, 39840, Note_off_c, 9, 49, 80
5, 39840, Note_on_c, 9, 40, 95
5, 39840, Note_on_c, 9, 49, 95
5, 39960, Note_off_c, 9, 40, 80
5, 39960, Note_off_c, 9, 49, 80
5, 39960, Note_on_c, 9, 40, 95
5, 39960, Note_on_c, 9, 49, 95
5, 40080, Note_off_c, 9, 40, 80
5, 40080, Note_off_c, 9, 49, 80
5, 40080, Note_on_c, 9, 40, 95
5, 40080, Note_on_c, 9, 49, 95
5, 40320, Note_off_c, 9, 40, 80
5, 40320, Note_off_c, 9, 49, 80
5, 40320, Note_on_c, 9, 35, 95
5, 40320, Note_on_c, 9, 35, 95
5, 40320, Note_on_c, 9, 35, 95
5, 40800, Note_off_c, 9, 35, 80
5, 40800, Note_off_c, 9, 35, 80
5, 40800, Note_off_c, 9, 35, 80
5, 40800, Note_on_c, 9, 40, 95
5, 41040, Note_off_c, 9, 40, 80
5, 41040, Note_on_c, 9, 35, 95
5, 41040, Note_on_c, 9, 35, 95
5, 41040, Note_on_c, 9, 35, 95
5, 41280, Note_off_c, 9, 35, 80
5, 41280, Note_off_c, 9, 35, 80
5, 41280, Note_off_c, 9, 35, 80
5, 41280, Note_on_c, 9, 35, 95
5, 41280, Note_on_c, 9, 35, 95
5, 41280, Note_on_c, 9, 35, 95
5, 41760, Note_off_c, 9, 35, 80
5, 41760, Note_off_c, 9, 35, 80
5, 41760, Note_off_c, 9, 35, 80
5, 41760, Note_on_c, 9, 40, 95
5, 42240, Note_off_c, 9, 40, 80
5, 42240, Note_on_c, 9, 35, 95
5, 42240, Note_on_c, 9, 35, 95
5, 42240, Note_on_c, 9, 35, 95
5, 42720, Note_off_c, 9, 35, 80
5, 42720, Note_off_c, 9, 35, 80
5, 42720, Note_off_c, 9, 35, 80
5, 42720, Note_on_c, 9, 40, 95
5, 42960, Note_off_c, 9, 40, 80
5, 42960, Note_on_c, 9, 35, 95
5, 42960, Note_on_c, 9, 35, 95
5, 42960, Note_on_c, 9, 35, 95
5, 43200, Note_off_c, 9, 35, 80
5, 43200, Note_off_c, 9, 35, 80
5, 43200, Note_off_c, 9, 35, 80
5, 43200, Note_on_c, 9, 35, 95
5, 43200, Note_on_c, 9, 35, 95
5, 43200, Note_on_c, 9, 35, 95
5, 43680, Note_off_c, 9, 35, 80
5, 43680, Note_off_c, 9, 35, 80
5, 43680, Note_off_c, 9, 35, 80
5, 43680, Note_on_c, 9, 40, 95
5, 44160, Note_off_c, 9, 40, 80
5, 44160, Note_on_c, 9, 35, 95
5, 44160, Note_on_c, 9, 35, 95
5, 44160, Note_on_c, 9, 35, 95
5, 44640, Note_off_c, 9, 35, 80
5, 44640, Note_off_c, 9, 35, 80
5, 44640, Note_off_c, 9, 35, 80
5, 44640, Note_on_c, 9, 40, 95
5, 44880, Note_off_c, 9, 40, 80
5, 44880, Note_on_c, 9, 35, 95
5, 44880, Note_on_c, 9, 35, 95
5, 44880, Note_on_c, 9, 35, 95
5, 45120, Note_off_c, 9, 35, 80
5, 45120, Note_off_c, 9, 35, 80
5, 45120, Note_off_c, 9, 35, 80
5, 45120, Note_on_c, 9, 35, 95
5, 45120, Note_on_c, 9, 35, 95
5, 45120, Note_on_c, 9, 35, 95
5, 45600, Note_off_c, 9, 35, 80
5, 45600, Note_off_c, 9, 35, 80
5, 45600, Note_off_c, 9, 35, 80
5, 45600, Note_on_c, 9, 40, 95
5, 46080, Note_off_c, 9, 40, 80
5, 46080, Note_on_c, 9, 35, 95
5, 46080, Note_on_c, 9, 35, 95
5, 46080, Note_on_c, 9, 35, 95
5, 46560, Note_off_c, 9, 35, 80
5, 46560, Note_off_c, 9, 35, 80
5, 46560, Note_off_c, 9, 35, 80
5, 46560, Note_on_c, 9, 40, 95
5, 46800, Note_off_c, 9, 40, 80
5, 46800, Note_on_c, 9, 35, 95
5, 46800, Note_on_c, 9, 35, 95
5, 46800, Note_on_c, 9, 35, 95
5, 47040, Note_off_c, 9, 35, 80
5, 47040, Note_off_c, 9, 35, 80
5, 47040, Note_off_c, 9, 35, 80
5, 47040, Note_on_c, 9, 35, 95
5, 47040, Note_on_c, 9, 35, 95
5, 47040, Note_on_c, 9, 35, 95
5, 47520, Note_off_c, 9, 35, 80
5, 47520, Note_off_c, 9, 35, 80
5, 47520, Note_off_c, 9, 35, 80
5, 47520, Note_on_c, 9, 40, 95
5, 48000, Note_off_c, 9, 40, 80
5, 48000, Note_on_c, 9, 35, 95
5, 48000, Note_on_c, 9, 35, 95
5, 48000, Note_on_c, 9, 35, 95
5, 48480, Note_off_c, 9, 35, 80
5, 48480, Note_off_c, 9, 35, 80
5, 48480, Note_off_c, 9, 35, 80
5, 48480, Note_on_c, 9, 40, 95
5, 48720, Note_off_c, 9, 40, 80
5, 48720, Note_on_c, 9, 35, 95
5, 48720, Note_on_c, 9, 35, 95
5, 48720, Note_on_c, 9, 35, 95
5, 48960, Note_off_c, 9, 35, 80
5, 48960, Note_off_c, 9, 35, 80
5, 48960, Note_off_c, 9, 35, 80
5, 48960, Note_on_c, 9, 35, 95
5, 48960, Note_on_c, 9, 35, 95
5, 48960, Note_on_c, 9, 35, 95
5, 49440, Note_off_c, 9, 35, 80
5, 49440, Note_off_c, 9, 35, 80
5, 49440, Note_off_c, 9, 35, 80
5, 49440, Note_on_c, 9, 40, 95
5, 49920, Note_off_c, 9, 40, 80
5, 49920, Note_on_c, 9, 35, 95
5, 49920, Note_on_c, 9, 35, 95
5, 49920, Note_on_c, 9, 35, 95
5, 50400, Note_off_c, 9, 35, 80
5, 50400, Note_off_c, 9, 35, 80
5, 50400, Note_off_c, 9, 35, 80
5, 50400, Note_on_c, 9, 40, 95
5, 50640, Note_off_c, 9, 40, 80
5, 50640, Note_on_c, 9, 35, 95
5, 50640, Note_on_c, 9, 35, 95
5, 50640, Note_on_c, 9, 35, 95
5, 50880, Note_off_c, 9, 35, 80
5, 50880, Note_off_c, 9, 35, 80
5, 50880, Note_off_c, 9, 35, 80
5, 50880, Note_on_c, 9, 35, 95
5, 50880, Note_on_c, 9, 35, 95
5, 50880, Note_on_c, 9, 35, 95
5, 51360, Note_off_c, 9, 35, 80
5, 51360, Note_off_c, 9, 35, 80
5, 51360, Note_off_c, 9, 35, 80
5, 51360, Note_on_c, 9, 40, 95
5, 51840, Note_off_c, 9, 40, 80
5, 51840, Note_on_c, 9, 35, 95
5, 51840, Note_on_c, 9, 35, 95
5, 51840, Note_on_c, 9, 35, 95
5, 52320, Note_off_c, 9, 35, 80
5, 52320, Note_off_c, 9, 35, 80
5, 52320, Note_off_c, 9, 35, 80
5, 52320, Note_on_c, 9, 40, 95
5, 52560, Note_off_c, 9, 40, 80
5, 52560, Note_on_c, 9, 35, 95
5, 52560, Note_on_c, 9, 35, 95
5, 52560, Note_on_c, 9, 35, 95
5, 52800, Note_off_c, 9, 35, 80
5, 52800, Note_off_c, 9, 35, 80
5, 52800, Note_off_c, 9, 35, 80
5, 52800, Note_on_c, 9, 35, 95
5, 52800, Note_on_c, 9, 35, 95
5, 52800, Note_on_c, 9, 35, 95
5, 53280, Note_off_c, 9, 35, 80
5, 53280, Note_off_c, 9, 35, 80
5, 53280, Note_off_c, 9, 35, 80
5, 53280, Note_on_c, 9, 40, 95
5, 53760, Note_off_c, 9, 40, 80
5, 53760, Note_on_c, 9, 35, 95
5, 53760, Note_on_c, 9, 35, 95
5, 53760, Note_on_c, 9, 35, 95
5, 54240, Note_off_c, 9, 35, 80
5, 54240, Note_off_c, 9, 35, 80
5, 54240, Note_off_c, 9, 35, 80
5, 54240, Note_on_c, 9, 40, 95
5, 54480, Note_off_c, 9, 40, 80
5, 54480, Note_on_c, 9, 35, 95
5, 54480, Note_on_c, 9, 35, 95
5, 54480, Note_on_c, 9, 35, 95
5, 54720, Note_off_c, 9, 35, 80
5, 54720, Note_off_c, 9, 35, 80
5, 54720, Note_off_c, 9, 35, 80
5, 54720, Note_on_c, 9, 35, 95
5, 54720, Note_on_c, 9, 35, 95
5, 54720, Note_on_c, 9, 35, 95
5, 55200, Note_off_c, 9, 35, 80
5, 55200, Note_off_c, 9, 35, 80
5, 55200, Note_off_c, 9, 35, 80
5, 55200, Note_on_c, 9, 40, 95
5, 55680, Note_off_c, 9, 40, 80
5, 55680, Note_on_c, 9, 35, 95
5, 55680, Note_on_c, 9, 35, 95
5, 55680, Note_on_c, 9, 35, 95
5, 56160, Note_off_c, 9, 35, 80
5, 56160, Note_off_c, 9, 35, 80
5, 56160, Note_off_c, 9, 35, 80
5, 56160, Note_on_c, 9, 40, 95
5, 56400, Note_off_c, 9, 40, 80
5, 56400, Note_on_c, 9, 35, 95
5, 56400, Note_on_c, 9, 35, 95
5, 56400, Note_on_c, 9, 35, 95
5, 56640, Note_off_c, 9, 35, 80
5, 56640, Note_off_c, 9, 35, 80
5, 56640, Note_off_c, 9, 35, 80
5, 56640, Note_on_c, 9, 35, 95
5, 56640, Note_on_c, 9, 35, 95
5, 56640, Note_on_c, 9, 35, 95
5, 57120, Note_off_c, 9, 35, 80
5, 57120, Note_off_c, 9, 35, 80
5, 57120, Note_off_c, 9, 35, 80
5, 57120, Note_on_c, 9, 40, 95
5, 57600, Note_off_c, 9, 40, 80
5, 57600, Note_on_c, 9, 35, 95
5, 57600, Note_on_c, 9, 35, 95
5, 57600, Note_on_c, 9, 35, 95
5, 58080, Note_off_c, 9, 35, 80
5, 58080, Note_off_c, 9, 35, 80
5, 58080, Note_off_c, 9, 35, 80
5, 58080, Note_on_c, 9, 40, 95
5, 58320, Note_off_c, 9, 40, 80
5, 58320, Note_on_c, 9, 35, 95
5, 58320, Note_on_c, 9, 35, 95
5, 58320, Note_on_c, 9, 35, 95
5, 58560, Note_off_c, 9, 35, 80
5, 58560, Note_off_c, 9, 35, 80
5, 58560, Note_off_c, 9, 35, 80
5, 58560, Note_on_c, 9, 35, 95
5, 58560, Note_on_c, 9, 35, 95
5, 58560, Note_on_c, 9, 35, 95
5, 59040, Note_off_c, 9, 35, 80
5, 59040, Note_off_c, 9, 35, 80
5, 59040, Note_off_c, 9, 35, 80
5, 59040, Note_on_c, 9, 40, 95
5, 59520, Note_off_c, 9, 40, 80
5, 59520, Note_on_c, 9, 35, 95
5, 59520, Note_on_c, 9, 35, 95
5, 59520, Note_on_c, 9, 35, 95
5, 60000, Note_off_c, 9, 35, 80
5, 60000, Note_off_c, 9, 35, 80
5, 60000, Note_off_c, 9, 35, 80
5, 60000, Note_on_c, 9, 40, 95
5, 60240, Note_off_c, 9, 40, 80
5, 60240, Note_on_c, 9, 35, 95
5, 60240, Note_on_c, 9, 35, 95
5, 60240, Note_on_c, 9, 35, 95
5, 60480, Note_off_c, 9, 35, 80
5, 60480, Note_off_c, 9, 35, 80
5, 60480, Note_off_c, 9, 35, 80
5, 60480, Note_on_c, 9, 35, 95
5, 60480, Note_on_c, 9, 35, 95
5, 60480, Note_on_c, 9, 35, 95
5, 60960, Note_off_c, 9, 35, 80
5, 60960, Note_off_c, 9, 35, 80
5, 60960, Note_off_c, 9, 35, 80
5, 60960, Note_on_c, 9, 40, 95
5, 61440, Note_off_c, 9, 40, 80
5, 61440, Note_on_c, 9, 35, 95
5, 61440, Note_on_c, 9, 35, 95
5, 61440, Note_on_c, 9, 35, 95
5, 61920, Note_off_c, 9, 35, 80
5, 61920, Note_off_c, 9, 35, 80
5, 61920, Note_off_c, 9, 35, 80
5, 61920, Note_on_c, 9, 40, 95
5, 62160, Note_off_c, 9, 40, 80
5, 62160, Note_on_c, 9, 35, 95
5, 62160, Note_on_c, 9, 35, 95
5, 62160, Note_on_c, 9, 35, 95
5, 62400, Note_off_c, 9, 35, 80
5, 62400, Note_off_c, 9, 35, 80
5, 62400, Note_off_c, 9, 35, 80
5, 62400, Note_on_c, 9, 35, 95
5, 62400, Note_on_c, 9, 35, 95
5, 62400, Note_on_c, 9, 35, 95
5, 62880, Note_off_c, 9, 35, 80
5, 62880, Note_off_c, 9, 35, 80
5, 62880, Note_off_c, 9, 35, 80
5, 62880, Note_on_c, 9, 40, 95
5, 63360, Note_off_c, 9, 40, 80
5, 63360, Note_on_c, 9, 35, 95
5, 63360, Note_on_c, 9, 35, 95
5, 63360, Note_on_c, 9, 35, 95
5, 63840, Note_off_c, 9, 35, 80
5, 63840, Note_off_c, 9, 35, 80
5, 63840, Note_off_c, 9, 35, 80
5, 63840, Note_on_c, 9, 40, 95
5, 64080, Note_off_c, 9, 40, 80
5, 64080, Note_on_c, 9, 35, 95
5, 64080, Note_on_c, 9, 35, 95
5, 64080, Note_on_c, 9, 35, 95
5, 64320, Note_off_c, 9, 35, 80
5, 64320, Note_off_c, 9, 35, 80
5, 64320, Note_off_c, 9, 35, 80
5, 64320, Note_on_c, 9, 35, 95
5, 64320, Note_on_c, 9, 35, 95
5, 64320, Note_on_c, 9, 35, 95
5, 64800, Note_off_c, 9, 35, 80
5, 64800, Note_off_c, 9, 35, 80
5, 64800, Note_off_c, 9, 35, 80
5, 64800, Note_on_c, 9, 40, 95
5, 65280, Note_off_c, 9, 40, 80
5, 65280, Note_on_c, 9, 35, 95
5, 65280, Note_on_c, 9, 35, 95
5, 65280, Note_on_c, 9, 35, 95
5, 65760, Note_off_c, 9, 35, 80
5, 65760, Note_off_c, 9, 35, 80
5, 65760, Note_off_c, 9, 35, 80
5, 65760, Note_on_c, 9, 40, 95
5, 66000, Note_off_c, 9, 40, 80
5, 66000, Note_on_c, 9, 35, 95
5, 66000, Note_on_c, 9, 35, 95
5, 66000, Note_on_c, 9, 35, 95
5, 66240, Note_off_c, 9, 35, 80
5, 66240, Note_off_c, 9, 35, 80
5, 66240, Note_off_c, 9, 35, 80
5, 66240, Note_on_c, 9, 35, 95
5, 66240, Note_on_c, 9, 35, 95
5, 66240, Note_on_c, 9, 35, 95
5, 66720, Note_off_c, 9, 35, 80
5, 66720, Note_off_c, 9, 35, 80
5, 66720, Note_off_c, 9, 35, 80
5, 66720, Note_on_c, 9, 40, 95
5, 67200, Note_off_c, 9, 40, 80
5, 67200, Note_on_c, 9, 35, 95
5, 67200, Note_on_c, 9, 35, 95
5, 67200, Note_on_c, 9, 35, 95
5, 67680, Note_off_c, 9, 35, 80
5, 67680, Note_off_c, 9, 35, 80
5, 67680, Note_off_c, 9, 35, 80
5, 67680, Note_on_c, 9, 40, 95
5, 67920, Note_off_c, 9, 40, 80
5, 67920, Note_on_c, 9, 35, 95
5, 67920, Note_on_c, 9, 35, 95
5, 67920, Note_on_c, 9, 35, 95
5, 68160, Note_off_c, 9, 35, 80
5, 68160, Note_off_c, 9, 35, 80
5, 68160, Note_off_c, 9, 35, 80
5, 68160, Note_on_c, 9, 35, 95
5, 68160, Note_on_c, 9, 35, 95
5, 68160, Note_on_c, 9, 35, 95
5, 68640, Note_off_c, 9, 35, 80
5, 68640, Note_off_c, 9, 35, 80
5, 68640, Note_off_c, 9, 35, 80
5, 68640, Note_on_c, 9, 40, 95
5, 69120, Note_off_c, 9, 40, 80
5, 69120, Note_on_c, 9, 40, 95
5, 69120, Note_on_c, 9, 49, 95
5, 69600, Note_off_c, 9, 40, 80
5, 69600, Note_off_c, 9, 49, 80
5, 69600, Note_on_c, 9, 35, 95
5, 69600, Note_on_c, 9, 35, 95
5, 69600, Note_on_c, 9, 35, 95
5, 69600, Note_on_c, 9, 49, 95
5, 70080, Note_off_c, 9, 35, 80
5, 70080, Note_off_c, 9, 35, 80
5, 70080, Note_off_c, 9, 35, 80
5, 70080, Note_off_c, 9, 49, 80
5, 70080, Note_on_c, 9, 35, 95
5, 70080, Note_on_c, 9, 35, 95
5, 70080, Note_on_c, 9, 35, 95
5, 70080, Note_on_c, 9, 49, 95
5, 70560, Note_off_c, 9, 35, 80
5, 70560, Note_off_c, 9, 35, 80
5, 70560, Note_off_c, 9, 35, 80
5, 70560, Note_off_c, 9, 49, 80
5, 70560, Note_on_c, 9, 40, 95
5, 70560, Note_on_c, 9, 49, 95
5, 71040, Note_off_c, 9, 40, 80
5, 71040, Note_off_c, 9, 49, 80
5, 71040, Note_on_c, 9, 35, 95
5, 71040, Note_on_c, 9, 35, 95
5, 71040, Note_on_c, 9, 35, 95
5, 71520, Note_off_c, 9, 35, 80
5, 71520, Note_off_c, 9, 35, 80
5, 71520, Note_off_c, 9, 35, 80
5, 71520, Note_on_c, 9, 40, 95
5, 71760, Note_off_c, 9, 40, 80
5, 71760, Note_on_c, 9, 35, 95
5, 71760, Note_on_c, 9, 35, 95
5, 71760, Note_on_c, 9, 35, 95
5, 72000, Note_off_c, 9, 35, 80
5, 72000, Note_off_c, 9, 35, 80
5, 72000, Note_off_c, 9, 35, 80
5, 72000, Note_on_c, 9, 35, 95
5, 72000, Note_on_c, 9, 35, 95
5, 72000, Note_on_c, 9, 35, 95
5, 72480, Note_off_c, 9, 35, 80
5, 72480, Note_off_c, 9, 35, 80
5, 72480, Note_off_c, 9, 35, 80
5, 72480, Note_on_c, 9, 40, 95
5, 72960, Note_off_c, 9, 40, 80
5, 72960, Note_on_c, 9, 35, 95
5, 72960, Note_on_c, 9, 35, 95
5, 72960, Note_on_c, 9, 35, 95
5, 73440, Note_off_c, 9, 35, 80
5, 73440, Note_off_c, 9, 35, 80
5, 73440, Note_off_c, 9, 35, 80
5, 73440, Note_on_c, 9, 40, 95
5, 73680, Note_off_c, 9, 40, 80
5, 73680, Note_on_c, 9, 35, 95
5, 73680, Note_on_c, 9, 35, 95
5, 73680, Note_on_c, 9, 35, 95
5, 73920, Note_off_c, 9, 35, 80
5, 73920, Note_off_c, 9, 35, 80
5, 73920, Note_off_c, 9, 35, 80
5, 73920, Note_on_c, 9, 35, 95
5, 73920, Note_on_c, 9, 35, 95
5, 73920, Note_on_c, 9, 35, 95
5, 74400, Note_off_c, 9, 35, 80
5, 74400, Note_off_c, 9, 35, 80
5, 74400, Note_off_c, 9, 35, 80
5, 74400, Note_on_c, 9, 40, 95
5, 74880, Note_off_c, 9, 40, 80
5, 74880, Note_on_c, 9, 35, 95
5, 74880, Note_on_c, 9, 35, 95
5, 74880, Note_on_c, 9, 35, 95
5, 75360, Note_off_c, 9, 35, 80
5, 75360, Note_off_c, 9, 35, 80
5, 75360, Note_off_c, 9, 35, 80
5, 75360, Note_on_c, 9, 40, 95
5, 75600, Note_off_c, 9, 40, 80
5, 75600, Note_on_c, 9, 35, 95
5, 75600, Note_on_c, 9, 35, 95
5, 75600, Note_on_c, 9, 35, 95
5, 75840, Note_off_c, 9, 35, 80
5, 75840, Note_off_c, 9, 35, 80
5, 75840, Note_off_c, 9, 35, 80
5, 75840, Note_on_c, 9, 35, 95
5, 75840, Note_on_c, 9, 35, 95
5, 75840, Note_on_c, 9, 35, 95
5, 76320, Note_off_c, 9, 35, 80
5, 76320, Note_off_c, 9, 35, 80
5, 76320, Note_off_c, 9, 35, 80
5, 76320, Note_on_c, 9, 40, 95
5, 76800, Note_off_c, 9, 40, 80
5, 76800, Note_on_c, 9, 40, 95
5, 76800, Note_on_c, 9, 49, 95
5, 77280, Note_off_c, 9, 40, 80
5, 77280, Note_off_c, 9, 49, 80
5, 77280, Note_on_c, 9, 35, 95
5, 77280, Note_on_c, 9, 35, 95
5, 77280, Note_on_c, 9, 35, 95
5, 77280, Note_on_c, 9, 49, 95
5, 77760, Note_off_c, 9, 35, 80
5, 77760, Note_off_c, 9, 35, 80
5, 77760, Note_off_c, 9, 35, 80
5, 77760, Note_off_c, 9, 49, 80
5, 77760, Note_on_c, 9, 35, 95
5, 77760, Note_on_c, 9, 35, 95
5, 77760, Note_on_c, 9, 35, 95
5, 77760, Note_on_c, 9, 49, 95
5, 78240, Note_off_c, 9, 35, 80
5, 78240, Note_off_c, 9, 35, 80
5, 78240, Note_off_c, 9, 35, 80
5, 78240, Note_off_c, 9, 49, 80
5, 78240, Note_on_c, 9, 40, 95
5, 78240, Note_on_c, 9, 49, 95
5, 78720, Note_off_c, 9, 40, 80
5, 78720, Note_off_c, 9, 49, 80
5, 78720, Note_on_c, 9, 35, 95
5, 78720, Note_on_c, 9, 35, 95
5, 78720, Note_on_c, 9, 35, 95
5, 79200, Note_off_c, 9, 35, 80
5, 79200, Note_off_c, 9, 35, 80
5, 79200, Note_off_c, 9, 35, 80
5, 79200, Note_on_c, 9, 40, 95
5, 79440, Note_off_c, 9, 40, 80
5, 79440, Note_on_c, 9, 35, 95
5, 79440, Note_on_c, 9, 35, 95
5, 79440, Note_on_c, 9, 35, 95
5, 79680, Note_off_c, 9, 35, 80
5, 79680, Note_off_c, 9, 35, 80
5, 79680, Note_off_c, 9, 35, 80
5, 79680, Note_on_c, 9, 35, 95
5, 79680, Note_on_c, 9, 35, 95
5, 79680, Note_on_c, 9, 35, 95
5, 80160, Note_off_c, 9, 35, 80
5, 80160, Note_off_c, 9, 35, 80
5, 80160, Note_off_c, 9, 35, 80
5, 80160, Note_on_c, 9, 40, 95
5, 80640, Note_off_c, 9, 40, 80
5, 80640, Note_on_c, 9, 35, 95
5, 80640, Note_on_c, 9, 35, 95
5, 80640, Note_on_c, 9, 35, 95
5, 81120, Note_off_c, 9, 35, 80
5, 81120, Note_off_c, 9, 35, 80
5, 81120, Note_off_c, 9, 35, 80
5, 81120, Note_on_c, 9, 40, 95
5, 81360, Note_off_c, 9, 40, 80
5, 81360, Note_on_c, 9, 35, 95
5, 81360, Note_on_c, 9, 35, 95
5, 81360, Note_on_c, 9, 35, 95
5, 81600, Note_off_c, 9, 35, 80
5, 81600, Note_off_c, 9, 35, 80
5, 81600, Note_off_c, 9, 35, 80
5, 81600, Note_on_c, 9, 35, 95
5, 81600, Note_on_c, 9, 35, 95
5, 81600, Note_on_c, 9, 35, 95
5, 82080, Note_off_c, 9, 35, 80
5, 82080, Note_off_c, 9, 35, 80
5, 82080, Note_off_c, 9, 35, 80
5, 82080, Note_on_c, 9, 40, 95
5, 82560, Note_off_c, 9, 40, 80
5, 82560, Note_on_c, 9, 35, 95
5, 82560, Note_on_c, 9, 35, 95
5, 82560, Note_on_c, 9, 35, 95
5, 83040, Note_off_c, 9, 35, 80
5, 83040, Note_off_c, 9, 35, 80
5, 83040, Note_off_c, 9, 35, 80
5, 83040, Note_on_c, 9, 40, 95
5, 83280, Note_off_c, 9, 40, 80
5, 83280, Note_on_c, 9, 35, 95
5, 83280, Note_on_c, 9, 35, 95
5, 83280, Note_on_c, 9, 35, 95
5, 83520, Note_off_c, 9, 35, 80
5, 83520, Note_off_c, 9, 35, 80
5, 83520, Note_off_c, 9, 35, 80
5, 83520, Note_on_c, 9, 35, 95
5, 83520, Note_on_c, 9, 35, 95
5, 83520, Note_on_c, 9, 35, 95
5, 84000, Note_off_c, 9, 35, 80
5, 84000, Note_off_c, 9, 35, 80
5, 84000, Note_off_c, 9, 35, 80
5, 84000, Note_on_c, 9, 40, 95
5, 84480, Note_off_c, 9, 40, 80
5, 84480, Note_on_c, 9, 40, 95
5, 84480, Note_on_c, 9, 49, 95
5, 84960, Note_off_c, 9, 40, 80
5, 84960, Note_off_c, 9, 49, 80
5, 84960, Note_on_c, 9, 35, 95
5, 84960, Note_on_c, 9, 35, 95
5, 84960, Note_on_c, 9, 35, 95
5, 84960, Note_on_c, 9, 49, 95
5, 85440, Note_off_c, 9, 35, 80
5, 85440, Note_off_c, 9, 35, 80
5, 85440, Note_off_c, 9, 35, 80
5, 85440, Note_off_c, 9, 49, 80
5, 85440, Note_on_c, 9, 35, 95
5, 85440, Note_on_c, 9, 35, 95
5, 85440, Note_on_c, 9, 35, 95
5, 85440, Note_on_c, 9, 49, 95
5, 85680, Note_off_c, 9, 35, 80
5, 85680, Note_off_c, 9, 35, 80
5, 85680, Note_off_c, 9, 35, 80
5, 85680, Note_off_c, 9, 49, 80
5, 85680, Note_on_c, 9, 40, 95
5, 85680, Note_on_c, 9, 49, 95
5, 85920, Note_off_c, 9, 40, 80
5, 85920, Note_off_c, 9, 49, 80
5, 85920, Note_on_c, 9, 40, 95
5, 85920, Note_on_c, 9, 49, 95
5, 86040, Note_off_c, 9, 40, 80
5, 86040, Note_off_c, 9, 49, 80
5, 86040, Note_on_c, 9, 40, 95
5, 86040, Note_on_c, 9, 49, 95
5, 86160, Note_off_c, 9, 40, 80
5, 86160, Note_off_c, 9, 49, 80
5, 86160, Note_on_c, 9, 40, 95
5, 86160, Note_on_c, 9, 49, 95
5, 86400, Note_off_c, 9, 40, 80
5, 86400, Note_off_c, 9, 49, 80
5, 86400, Note_on_c, 9, 35, 95
5, 86400, Note_on_c, 9, 35, 95
5, 86400, Note_on_c, 9, 35, 95
5, 86880, Note_off_c, 9, 35, 80
5, 86880, Note_off_c, 9, 35, 80
5, 86880, Note_off_c, 9, 35, 80
5, 86880, Note_on_c, 9, 40, 95
5, 87120, Note_off_c, 9, 40, 80
5, 87120, Note_on_c, 9, 35, 95
5, 87120, Note_on_c, 9, 35, 95
5, 87120, Note_on_c, 9, 35, 95
5, 87360, Note_off_c, 9, 35, 80
5, 87360, Note_off_c, 9, 35, 80
5, 87360, Note_off_c, 9, 35, 80
5, 87360, Note_on_c, 9, 35, 95
5, 87360, Note_on_c, 9, 35, 95
5, 87360, Note_on_c, 9, 35, 95
5, 87840, Note_off_c, 9, 35, 80
5, 87840, Note_off_c, 9, 35, 80
5, 87840, Note_off_c, 9, 35, 80
5, 87840, Note_on_c, 9, 40, 95
5, 88320, Note_off_c, 9, 40, 80
5, 88320, Note_on_c, 9, 35, 95
5, 88320, Note_on_c, 9, 35, 95
5, 88320, Note_on_c, 9, 35, 95
5, 88800, Note_off_c, 9, 35, 80
5, 88800, Note_off_c, 9, 35, 80
5, 88800, Note_off_c, 9, 35, 80
5, 88800, Note_on_c, 9, 40, 95
5, 89040, Note_off_c, 9, 40, 80
5, 89040, Note_on_c, 9, 35, 95
5, 89040, Note_on_c, 9, 35, 95
5, 89040, Note_on_c, 9, 35, 95
5, 89280, Note_off_c, 9, 35, 80
5, 89280, Note_off_c, 9, 35, 80
5, 89280, Note_off_c, 9, 35, 80
5, 89280, Note_on_c, 9, 35, 95
5, 89280, Note_on_c, 9, 35, 95
5, 89280, Note_on_c, 9, 35, 95
5, 89760, Note_off_c, 9, 35, 80
5, 89760, Note_off_c, 9, 35, 80
5, 89760, Note_off_c, 9, 35, 80
5, 89760, Note_on_c, 9, 40, 95
5, 90240, Note_off_c, 9, 40, 80
5, 90240, Note_on_c, 9, 35, 95
5, 90240, Note_on_c, 9, 35, 95
5, 90240, Note_on_c, 9, 35, 95
5, 90720, Note_off_c, 9, 35, 80
5, 90720, Note_off_c, 9, 35, 80
5, 90720, Note_off_c, 9, 35, 80
5, 90720, Note_on_c, 9, 40, 95
5, 90960, Note_off_c, 9, 40, 80
5, 90960, Note_on_c, 9, 35, 95
5, 90960, Note_on_c, 9, 35, 95
5, 90960, Note_on_c, 9, 35, 95
5, 91200, Note_off_c, 9, 35, 80
5, 91200, Note_off_c, 9, 35, 80
5, 91200, Note_off_c, 9, 35, 80
5, 91200, Note_on_c, 9, 35, 95
5, 91200, Note_on_c, 9, 35, 95
5, 91200, Note_on_c, 9, 35, 95
5, 91680, Note_off_c, 9, 35, 80
5, 91680, Note_off_c, 9, 35, 80
5, 91680, Note_off_c, 9, 35, 80
5, 91680, Note_on_c, 9, 40, 95
5, 92160, Note_off_c, 9, 40, 80
5, 92160, Note_on_c, 9, 40, 95
5, 92160, Note_on_c, 9, 49, 95
5, 92640, Note_off_c, 9, 40, 80
5, 92640, Note_off_c, 9, 49, 80
5, 92640, Note_on_c, 9, 35, 95
5, 92640, Note_on_c, 9, 35, 95
5, 92640, Note_on_c, 9, 35, 95
5, 92640, Note_on_c, 9, 49, 95
5, 93120, Note_off_c, 9, 35, 80
5, 93120, Note_off_c, 9, 35, 80
5, 93120, Note_off_c, 9, 35, 80
5, 93120, Note_off_c, 9, 49, 80
5, 93120, Note_on_c, 9, 35, 95
5, 93120, Note_on_c, 9, 35, 95
5, 93120, Note_on_c, 9, 35, 95
5, 93120, Note_on_c, 9, 49, 95
5, 93360, Note_off_c, 9, 35, 80
5, 93360, Note_off_c, 9, 35, 80
5, 93360, Note_off_c, 9, 35, 80
5, 93360, Note_off_c, 9, 49, 80
5, 93360, Note_on_c, 9, 40, 95
5, 93360, Note_on_c, 9, 49, 95
5, 93600, Note_off_c, 9, 40, 80
5, 93600, Note_off_c, 9, 49, 80
5, 93600, Note_on_c, 9, 40, 95
5, 93600, Note_on_c, 9, 49, 95
5, 93720, Note_off_c, 9, 40, 80
5, 93720, Note_off_c, 9, 49, 80
5, 93720, Note_on_c, 9, 40, 95
5, 93720, Note_on_c, 9, 49, 95
5, 93840, Note_off_c, 9, 40, 80
5, 93840, Note_off_c, 9, 49, 80
5, 93840, Note_on_c, 9, 40, 95
5, 93840, Note_on_c, 9, 49, 95
5, 94080, Note_off_c, 9, 40, 80
5, 94080, Note_off_c, 9, 49, 80
5, 94080, Note_on_c, 9, 35, 95
5, 94080, Note_on_c, 9, 35, 95
5, 94080, Note_on_c, 9, 35, 95
5, 94560, Note_off_c, 9, 35, 80
5, 94560, Note_off_c, 9, 35, 80
5, 94560, Note_off_c, 9, 35, 80
5, 94560, Note_on_c, 9, 40, 95
5, 94800, Note_off_c, 9, 40, 80
5, 94800, Note_on_c, 9, 35, 95
5, 94800, Note_on_c, 9, 35, 95
5, 94800, Note_on_c, 9, 35, 95
5, 95040, Note_off_c, 9, 35, 80
5, 95040, Note_off_c, 9, 35, 80
5, 95040, Note_off_c, 9, 35, 80
5, 95040, Note_on_c, 9, 35, 95
5, 95040, Note_on_c, 9, 35, 95
5, 95040, Note_on_c, 9, 35, 95
5, 95520, Note_off_c, 9, 35, 80
5, 95520, Note_off_c, 9, 35, 80
5, 95520, Note_off_c, 9, 35, 80
5, 95520, Note_on_c, 9, 40, 95
5, 96000, Note_off_c, 9, 40, 80
5, 96000, Note_on_c, 9, 35, 95
5, 96000, Note_on_c, 9, 35, 95
5, 96000, Note_on_c, 9, 35, 95
5, 96480, Note_off_c, 9, 35, 80
5, 96480, Note_off_c, 9, 35, 80
5, 96480, Note_off_c, 9, 35, 80
5, 96480, Note_on_c, 9, 40, 95
5, 96720, Note_off_c, 9, 40, 80
5, 96720, Note_on_c, 9, 35, 95
5, 96720, Note_on_c, 9, 35, 95
5, 96720, Note_on_c, 9, 35, 95
5, 96960, Note_off_c, 9, 35, 80
5, 96960, Note_off_c, 9, 35, 80
5, 96960, Note_off_c, 9, 35, 80
5, 96960, Note_on_c, 9, 35, 95
5, 96960, Note_on_c, 9, 35, 95
5, 96960, Note_on_c, 9, 35, 95
5, 97440, Note_off_c, 9, 35, 80
5, 97440, Note_off_c, 9, 35, 80
5, 97440, Note_off_c, 9, 35, 80
5, 97440, Note_on_c, 9, 40, 95
5, 97920, Note_off_c, 9, 40, 80
5, 97920, Note_on_c, 9, 35, 95
5, 97920, Note_on_c, 9, 35, 95
5, 97920, Note_on_c, 9, 35, 95
5, 98400, Note_off_c, 9, 35, 80
5, 98400, Note_off_c, 9, 35, 80
5, 98400, Note_off_c, 9, 35, 80
5, 98400, Note_on_c, 9, 40, 95
5, 98640, Note_off_c, 9, 40, 80
5, 98640, Note_on_c, 9, 35, 95
5, 98640, Note_on_c, 9, 35, 95
5, 98640, Note_on_c, 9, 35, 95
5, 98880, Note_off_c, 9, 35, 80
5, 98880, Note_off_c, 9, 35, 80
5, 98880, Note_off_c, 9, 35, 80
5, 98880, Note_on_c, 9, 35, 95
5, 98880, Note_on_c, 9, 35, 95
5, 98880, Note_on_c, 9, 35, 95
5, 99360, Note_off_c, 9, 35, 80
5, 99360, Note_off_c, 9, 35, 80
5, 99360, Note_off_c, 9, 35, 80
5, 99360, Note_on_c, 9, 40, 95
5, 99840, Note_off_c, 9, 40, 80
5, 99840, Note_on_c, 9, 35, 95
5, 99840, Note_on_c, 9, 35, 95
5, 99840, Note_on_c, 9, 35, 95
5, 100320, Note_off_c, 9, 35, 80
5, 100320, Note_off_c, 9, 35, 80
5, 100320, Note_off_c, 9, 35, 80
5, 100320, Note_on_c, 9, 40, 95
5, 100560, Note_off_c, 9, 40, 80
5, 100560, Note_on_c, 9, 35, 95
5, 100560, Note_on_c, 9, 35, 95
5, 100560, Note_on_c, 9, 35, 95
5, 100800, Note_off_c, 9, 35, 80
5, 100800, Note_off_c, 9, 35, 80
5, 100800, Note_off_c, 9, 35, 80
5, 100800, Note_on_c, 9, 35, 95
5, 100800, Note_on_c, 9, 35, 95
5, 100800, Note_on_c, 9, 35, 95
5, 101280, Note_off_c, 9, 35, 80
5, 101280, Note_off_c, 9, 35, 80
5, 101280, Note_off_c, 9, 35, 80
5, 101280, Note_on_c, 9, 40, 95
5, 101760, Note_off_c, 9, 40, 80
5, 101760, Note_on_c, 9, 35, 95
5, 101760, Note_on_c, 9, 35, 95
5, 101760, Note_on_c, 9, 35, 95
5, 102240, Note_off_c, 9, 35, 80
5, 102240, Note_off_c, 9, 35, 80
5, 102240, Note_off_c, 9, 35, 80
5, 102240, Note_on_c, 9, 40, 95
5, 102480, Note_off_c, 9, 40, 80
5, 102480, Note_on_c, 9, 35, 95
5, 102480, Note_on_c, 9, 35, 95
5, 102480, Note_on_c, 9, 35, 95
5, 102720, Note_off_c, 9, 35, 80
5, 102720, Note_off_c, 9, 35, 80
5, 102720, Note_off_c, 9, 35, 80
5, 102720, Note_on_c, 9, 35, 95
5, 102720, Note_on_c, 9, 35, 95
5, 102720, Note_on_c, 9, 35, 95
5, 103200, Note_off_c, 9, 35, 80
5, 103200, Note_off_c, 9, 35, 80
5, 103200, Note_off_c, 9, 35, 80
5, 103200, Note_on_c, 9, 40, 95
5, 103680, Note_off_c, 9, 40, 80
5, 103680, Note_on_c, 9, 35, 95
5, 103680, Note_on_c, 9, 35, 95
5, 103680, Note_on_c, 9, 35, 95
5, 104160, Note_off_c, 9, 35, 80
5, 104160, Note_off_c, 9, 35, 80
5, 104160, Note_off_c, 9, 35, 80
5, 104160, Note_on_c, 9, 40, 95
5, 104400, Note_off_c, 9, 40, 80
5, 104400, Note_on_c, 9, 35, 95
5, 104400, Note_on_c, 9, 35, 95
5, 104400, Note_on_c, 9, 35, 95
5, 104640, Note_off_c, 9, 35, 80
5, 104640, Note_off_c, 9, 35, 80
5, 104640, Note_off_c, 9, 35, 80
5, 104640, Note_on_c, 9, 35, 95
5, 104640, Note_on_c, 9, 35, 95
5, 104640, Note_on_c, 9, 35, 95
5, 105120, Note_off_c, 9, 35, 80
5, 105120, Note_off_c, 9, 35, 80
5, 105120, Note_off_c, 9, 35, 80
5, 105120, Note_on_c, 9, 40, 95
5, 105600, Note_off_c, 9, 40, 80
5, 105600, Note_on_c, 9, 35, 95
5, 105600, Note_on_c, 9, 35, 95
5, 105600, Note_on_c, 9, 35, 95
5, 106080, Note_off_c, 9, 35, 80
5, 106080, Note_off_c, 9, 35, 80
5, 106080, Note_off_c, 9, 35, 80
5, 106080, Note_on_c, 9, 40, 95
5, 106320, Note_off_c, 9, 40, 80
5, 106320, Note_on_c, 9, 35, 95
5, 106320, Note_on_c, 9, 35, 95
5, 106320, Note_on_c, 9, 35, 95
5, 106560, Note_off_c, 9, 35, 80
5, 106560, Note_off_c, 9, 35, 80
5, 106560, Note_off_c, 9, 35, 80
5, 106560, Note_on_c, 9, 35, 95
5, 106560, Note_on_c, 9, 35, 95
5, 106560, Note_on_c, 9, 35, 95
5, 107040, Note_off_c, 9, 35, 80
5, 107040, Note_off_c, 9, 35, 80
5, 107040, Note_off_c, 9, 35, 80
5, 107040, Note_on_c, 9, 40, 95
5, 107520, Note_off_c, 9, 40, 80
5, 107520, Note_on_c, 9, 40, 95
5, 107520, Note_on_c, 9, 49, 95
5, 108000, Note_off_c, 9, 40, 80
5, 108000, Note_off_c, 9, 49, 80
5, 108000, Note_on_c, 9, 35, 95
5, 108000, Note_on_c, 9, 35, 95
5, 108000, Note_on_c, 9, 35, 95
5, 108000, Note_on_c, 9, 49, 95
5, 108480, Note_off_c, 9, 35, 80
5, 108480, Note_off_c, 9, 35, 80
5, 108480, Note_off_c, 9, 35, 80
5, 108480, Note_off_c, 9, 49, 80
5, 108480, Note_on_c, 9, 35, 95
5, 108480, Note_on_c, 9, 35, 95
5, 108480, Note_on_c, 9, 35, 95
5, 108480, Note_on_c, 9, 49, 95
5, 108960, Note_off_c, 9, 35, 80
5, 108960, Note_off_c, 9, 35, 80
5, 108960, Note_off_c, 9, 35, 80
5, 108960, Note_off_c, 9, 49, 80
5, 108960, Note_on_c, 9, 40, 95
5, 108960, Note_on_c, 9, 49, 95
5, 109440, Note_off_c, 9, 40, 80
5, 109440, Note_off_c, 9, 49, 80
5, 109440, Note_on_c, 9, 35, 95
5, 109440, Note_on_c, 9, 35, 95
5, 109440, Note_on_c, 9, 35, 95
5, 109920, Note_off_c, 9, 35, 80
5, 109920, Note_off_c, 9, 35, 80
5, 109920, Note_off_c, 9, 35, 80
5, 109920, Note_on_c, 9, 40, 95
5, 110160, Note_off_c, 9, 40, 80
5, 110160, Note_on_c, 9, 35, 95
5, 110160, Note_on_c, 9, 35, 95
5, 110160, Note_on_c, 9, 35, 95
5, 110400, Note_off_c, 9, 35, 80
5, 110400, Note_off_c, 9, 35, 80
5, 110400, Note_off_c, 9, 35, 80
5, 110400, Note_on_c, 9, 35, 95
5, 110400, Note_on_c, 9, 35, 95
5, 110400, Note_on_c, 9, 35, 95
5, 110880, Note_off_c, 9, 35, 80
5, 110880, Note_off_c, 9, 35, 80
5, 110880, Note_off_c, 9, 35, 80
5, 110880, Note_on_c, 9, 40, 95
5, 111360, Note_off_c, 9, 40, 80
5, 111360, Note_on_c, 9, 35, 95
5, 111360, Note_on_c, 9, 35, 95
5, 111360, Note_on_c, 9, 35, 95
5, 111840, Note_off_c, 9, 35, 80
5, 111840, Note_off_c, 9, 35, 80
5, 111840, Note_off_c, 9, 35, 80
5, 111840, Note_on_c, 9, 40, 95
5, 112080, Note_off_c, 9, 40, 80
5, 112080, Note_on_c, 9, 35, 95
5, 112080, Note_on_c, 9, 35, 95
5, 112080, Note_on_c, 9, 35, 95
5, 112320, Note_off_c, 9, 35, 80
5, 112320, Note_off_c, 9, 35, 80
5, 112320, Note_off_c, 9, 35, 80
5, 112320, Note_on_c, 9, 35, 95
5, 112320, Note_on_c, 9, 35, 95
5, 112320, Note_on_c, 9, 35, 95
5, 112800, Note_off_c, 9, 35, 80
5, 112800, Note_off_c, 9, 35, 80
5, 112800, Note_off_c, 9, 35, 80
5, 112800, Note_on_c, 9, 40, 95
5, 113280, Note_off_c, 9, 40, 80
5, 113280, Note_on_c, 9, 35, 95
5, 113280, Note_on_c, 9, 35, 95
5, 113280, Note_on_c, 9, 35, 95
5, 113760, Note_off_c, 9, 35, 80
5, 113760, Note_off_c, 9, 35, 80
5, 113760, Note_off_c, 9, 35, 80
5, 113760, Note_on_c, 9, 40, 95
5, 114000, Note_off_c, 9, 40, 80
5, 114000, Note_on_c, 9, 35, 95
5, 114000, Note_on_c, 9, 35, 95
5, 114000, Note_on_c, 9, 35, 95
5, 114240, Note_off_c, 9, 35, 80
5, 114240, Note_off_c, 9, 35, 80
5, 114240, Note_off_c, 9, 35, 80
5, 114240, Note_on_c, 9, 35, 95
5, 114240, Note_on_c, 9, 35, 95
5, 114240, Note_on_c, 9, 35, 95
5, 114720, Note_off_c, 9, 35, 80
5, 114720, Note_off_c, 9, 35, 80
5, 114720, Note_off_c, 9, 35, 80
5, 114720, Note_on_c, 9, 40, 95
5, 115200, Note_off_c, 9, 40, 80
5, 115200, Note_on_c, 9, 40, 95
5, 115200, Note_on_c, 9, 49, 95
5, 115680, Note_off_c, 9, 40, 80
5, 115680, Note_off_c, 9, 49, 80
5, 115680, Note_on_c, 9, 35, 95
5, 115680, Note_on_c, 9, 35, 95
5, 115680, Note_on_c, 9, 35, 95
5, 115680, Note_on_c, 9, 49, 95
5, 116160, Note_off_c, 9, 35, 80
5, 116160, Note_off_c, 9, 35, 80
5, 116160, Note_off_c, 9, 35, 80
5, 116160, Note_off_c, 9, 49, 80
5, 116160, Note_on_c, 9, 35, 95
5, 116160, Note_on_c, 9, 35, 95
5, 116160, Note_on_c, 9, 35, 95
5, 116160, Note_on_c, 9, 49, 95
5, 116640, Note_off_c, 9, 35, 80
5, 116640, Note_off_c, 9, 35, 80
5, 116640, Note_off_c, 9, 35, 80
5, 116640, Note_off_c, 9, 49, 80
5, 116640, Note_on_c, 9, 40, 95
5, 116640, Note_on_c, 9, 49, 95
5, 117120, Note_off_c, 9, 40, 80
5, 117120, Note_off_c, 9, 49, 80
5, 117120, Note_on_c, 9, 35, 95
5, 117120, Note_on_c, 9, 35, 95
5, 117120, Note_on_c, 9, 35, 95
5, 117600, Note_off_c, 9, 35, 80
5, 117600, Note_off_c, 9, 35, 80
5, 117600, Note_off_c, 9, 35, 80
5, 117600, Note_on_c, 9, 40, 95
5, 117840, Note_off_c, 9, 40, 80
5, 117840, Note_on_c, 9, 35, 95
5, 117840, Note_on_c, 9, 35, 95
5, 117840, Note_on_c, 9, 35, 95
5, 118080, Note_off_c, 9, 35, 80
5, 118080, Note_off_c, 9, 35, 80
5, 118080, Note_off_c, 9, 35, 80
5, 118080, Note_on_c, 9, 35, 95
5, 118080, Note_on_c, 9, 35, 95
5, 118080, Note_on_c, 9, 35, 95
5, 118560, Note_off_c, 9, 35, 80
5, 118560, Note_off_c, 9, 35, 80
5, 118560, Note_off_c, 9, 35, 80
5, 118560, Note_on_c, 9, 40, 95
5, 119040, Note_off_c, 9, 40, 80
5, 119040, Note_on_c, 9, 35, 95
5, 119040, Note_on_c, 9, 35, 95
5, 119040, Note_on_c, 9, 35, 95
5, 119520, Note_off_c, 9, 35, 80
5, 119520, Note_off_c, 9, 35, 80
5, 119520, Note_off_c, 9, 35, 80
5, 119520, Note_on_c, 9, 40, 95
5, 119760, Note_off_c, 9, 40, 80
5, 119760, Note_on_c, 9, 35, 95
5, 119760, Note_on_c, 9, 35, 95
5, 119760, Note_on_c, 9, 35, 95
5, 120000, Note_off_c, 9, 35, 80
5, 120000, Note_off_c, 9, 35, 80
5, 120000, Note_off_c, 9, 35, 80
5, 120000, Note_on_c, 9, 35, 95
5, 120000, Note_on_c, 9, 35, 95
5, 120000, Note_on_c, 9, 35, 95
5, 120480, Note_off_c, 9, 35, 80
5, 120480, Note_off_c, 9, 35, 80
5, 120480, Note_off_c, 9, 35, 80
5, 120480, Note_on_c, 9, 40, 95
5, 120960, Note_off_c, 9, 40, 80
5, 120960, Note_on_c, 9, 35, 95
5, 120960, Note_on_c, 9, 35, 95
5, 120960, Note_on_c, 9, 35, 95
5, 121440, Note_off_c, 9, 35, 80
5, 121440, Note_off_c, 9, 35, 80
5, 121440, Note_off_c, 9, 35, 80
5, 121440, Note_on_c, 9, 40, 95
5, 121680, Note_off_c, 9, 40, 80
5, 121680, Note_on_c, 9, 35, 95
5, 121680, Note_on_c, 9, 35, 95
5, 121680, Note_on_c, 9, 35, 95
5, 121920, Note_off_c, 9, 35, 80
5, 121920, Note_off_c, 9, 35, 80
5, 121920, Note_off_c, 9, 35, 80
5, 121920, Note_on_c, 9, 35, 95
5, 121920, Note_on_c, 9, 35, 95
5, 121920, Note_on_c, 9, 35, 95
5, 122400, Note_off_c, 9, 35, 80
5, 122400, Note_off_c, 9, 35, 80
5, 122400, Note_off_c, 9, 35, 80
5, 122400, Note_on_c, 9, 40, 95
5, 122880, Note_off_c, 9, 40, 80
5, 122880, Note_on_c, 9, 40, 95
5, 122880, Note_on_c, 9, 49, 95
5, 123360, Note_off_c, 9, 40, 80
5, 123360, Note_off_c, 9, 49, 80
5, 123360, Note_on_c, 9, 35, 95
5, 123360, Note_on_c, 9, 35, 95
5, 123360, Note_on_c, 9, 35, 95
5, 123360, Note_on_c, 9, 49, 95
5, 123840, Note_off_c, 9, 35, 80
5, 123840, Note_off_c, 9, 35, 80
5, 123840, Note_off_c, 9, 35, 80
5, 123840, Note_off_c, 9, 49, 80
5, 123840, Note_on_c, 9, 35, 95
5, 123840, Note_on_c, 9, 35, 95
5, 123840, Note_on_c, 9, 35, 95
5, 123840, Note_on_c, 9, 49, 95
5, 124320, Note_off_c, 9, 35, 80
5, 124320, Note_off_c, 9, 35, 80
5, 124320, Note_off_c, 9, 35, 80
5, 124320, Note_off_c, 9, 49, 80
5, 124320, Note_on_c, 9, 40, 95
5, 124320, Note_on_c, 9, 49, 95
5, 124800, Note_off_c, 9, 40, 80
5, 124800, Note_off_c, 9, 49, 80
5, 124800, Note_on_c, 9, 35, 95
5, 124800, Note_on_c, 9, 35, 95
5, 124800, Note_on_c, 9, 35, 95
5, 125280, Note_off_c, 9, 35, 80
5, 125280, Note_off_c, 9, 35, 80
5, 125280, Note_off_c, 9, 35, 80
5, 125280, Note_on_c, 9, 40, 95
5, 125520, Note_off_c, 9, 40, 80
5, 125520, Note_on_c, 9, 35, 95
5, 125520, Note_on_c, 9, 35, 95
5, 125520, Note_on_c, 9, 35, 95
5, 125760, Note_off_c, 9, 35, 80
5, 125760, Note_off_c, 9, 35, 80
5, 125760, Note_off_c, 9, 35, 80
5, 125760, Note_on_c, 9, 35, 95
5, 125760, Note_on_c, 9, 35, 95
5, 125760, Note_on_c, 9, 35, 95
5, 126240, Note_off_c, 9, 35, 80
5, 126240, Note_off_c, 9, 35, 80
5, 126240, Note_off_c, 9, 35, 80
5, 126240, Note_on_c, 9, 40, 95
5, 126720, Note_off_c, 9, 40, 80
5, 126720, Note_on_c, 9, 35, 95
5, 126720, Note_on_c, 9, 35, 95
5, 126720, Note_on_c, 9, 35, 95
5, 127200, Note_off_c, 9, 35, 80
5, 127200, Note_off_c, 9, 35, 80
5, 127200, Note_off_c, 9, 35, 80
5, 127200, Note_on_c, 9, 40, 95
5, 127440, Note_off_c, 9, 40, 80
5, 127440, Note_on_c, 9, 35, 95
5, 127440, Note_on_c, 9, 35, 95
5, 127440, Note_on_c, 9, 35, 95
5, 127680, Note_off_c, 9, 35, 80
5, 127680, Note_off_c, 9, 35, 80
5, 127680, Note_off_c, 9, 35, 80
5, 127680, Note_on_c, 9, 35, 95
5, 127680, Note_on_c, 9, 35, 95
5, 127680, Note_on_c, 9, 35, 95
5, 128160, Note_off_c, 9, 35, 80
5, 128160, Note_off_c, 9, 35, 80
5, 128160, Note_off_c, 9, 35, 80
5, 128160, Note_on_c, 9, 40, 95
5, 128640, Note_off_c, 9, 40, 80
5, 128640, Note_on_c, 9, 35, 95
5, 128640, Note_on_c, 9, 35, 95
5, 128640, Note_on_c, 9, 35, 95
5, 129120, Note_off_c, 9, 35, 80
5, 129120, Note_off_c, 9, 35, 80
5, 129120, Note_off_c, 9, 35, 80
5, 129120, Note_on_c, 9, 40, 95
5, 129360, Note_off_c, 9, 40, 80
5, 129360, Note_on_c, 9, 35, 95
5, 129360, Note_on_c, 9, 35, 95
5, 129360, Note_on_c, 9, 35, 95
5, 129600, Note_off_c, 9, 35, 80
5, 129600, Note_off_c, 9, 35, 80
5, 129600, Note_off_c, 9, 35, 80
5, 129600, Note_on_c, 9, 35, 95
5, 129600, Note_on_c, 9, 35, 95
5, 129600, Note_on_c, 9, 35, 95
5, 130080, Note_off_c, 9, 35, 80
5, 130080, Note_off_c, 9, 35, 80
5, 130080, Note_off_c, 9, 35, 80
5, 130080, Note_on_c, 9, 40, 95
5, 130560, Note_off_c, 9, 40, 80
5, 130560, Note_on_c, 9, 40, 95
5, 130560, Note_on_c, 9, 49, 95
5, 131040, Note_off_c, 9, 40, 80
5, 131040, Note_off_c, 9, 49, 80
5, 131040, Note_on_c, 9, 35, 95
5, 131040, Note_on_c, 9, 35, 95
5, 131040, Note_on_c, 9, 35, 95
5, 131040, Note_on_c, 9, 49, 95
5, 131520, Note_off_c, 9, 35, 80
5, 131520, Note_off_c, 9, 35, 80
5, 131520, Note_off_c, 9, 35, 80
5, 131520, Note_off_c, 9, 49, 80
5, 131520, Note_on_c, 9, 35, 95
5, 131520, Note_on_c, 9, 35, 95
5, 131520, Note_on_c, 9, 35, 95
5, 131520, Note_on_c, 9, 49, 95
5, 132000, Note_off_c, 9, 35, 80
5, 132000, Note_off_c, 9, 35, 80
5, 132000, Note_off_c, 9, 35, 80
5, 132000, Note_off_c, 9, 49, 80
5, 132000, Note_on_c, 9, 40, 95
5, 132000, Note_on_c, 9, 49, 95
5, 132480, Note_off_c, 9, 40, 80
5, 132480, Note_off_c, 9, 49, 80
5, 132480, Note_on_c, 9, 35, 95
5, 132480, Note_on_c, 9, 35, 95
5, 132480, Note_on_c, 9, 35, 95
5, 132960, Note_off_c, 9, 35, 80
5, 132960, Note_off_c, 9, 35, 80
5, 132960, Note_off_c, 9, 35, 80
5, 132960, Note_on_c, 9, 40, 95
5, 133200, Note_off_c, 9, 40, 80
5, 133200, Note_on_c, 9, 35, 95
5, 133200, Note_on_c, 9, 35, 95
5, 133200, Note_on_c, 9, 35, 95
5, 133440, Note_off_c, 9, 35, 80
5, 133440, Note_off_c, 9, 35, 80
5, 133440, Note_off_c, 9, 35, 80
5, 133440, Note_on_c, 9, 35, 95
5, 133440, Note_on_c, 9, 35, 95
5, 133440, Note_on_c, 9, 35, 95
5, 133920, Note_off_c, 9, 35, 80
5, 133920, Note_off_c, 9, 35, 80
5, 133920, Note_off_c, 9, 35, 80
5, 133920, Note_on_c, 9, 40, 95
5, 134400, Note_off_c, 9, 40, 80
5, 134400, Note_on_c, 9, 35, 95
5, 134400, Note_on_c, 9, 35, 95
5, 134400, Note_on_c, 9, 35, 95
5, 134880, Note_off_c, 9, 35, 80
5, 134880, Note_off_c, 9, 35, 80
5, 134880, Note_off_c, 9, 35, 80
5, 134880, Note_on_c, 9, 40, 95
5, 135120, Note_off_c, 9, 40, 80
5, 135120, Note_on_c, 9, 35, 95
5, 135120, Note_on_c, 9, 35, 95
5, 135120, Note_on_c, 9, 35, 95
5, 135360, Note_off_c, 9, 35, 80
5, 135360, Note_off_c, 9, 35, 80
5, 135360, Note_off_c, 9, 35, 80
5, 135360, Note_on_c, 9, 35, 95
5, 135360, Note_on_c, 9, 35, 95
5, 135360, Note_on_c, 9, 35, 95
5, 135840, Note_off_c, 9, 35, 80
5, 135840, Note_off_c, 9, 35, 80
5, 135840, Note_off_c, 9, 35, 80
5, 135840, Note_on_c, 9, 40, 95
5, 136320, Note_off_c, 9, 40, 80
5, 136320, Note_on_c, 9, 35, 95
5, 136320, Note_on_c, 9, 35, 95
5, 136320, Note_on_c, 9, 35, 95
5, 136800, Note_off_c, 9, 35, 80
5, 136800, Note_off_c, 9, 35, 80
5, 136800, Note_off_c, 9, 35, 80
5, 136800, Note_on_c, 9, 40, 95
5, 137040, Note_off_c, 9, 40, 80
5, 137040, Note_on_c, 9, 35, 95
5, 137040, Note_on_c, 9, 35, 95
5, 137040, Note_on_c, 9, 35, 95
5, 137280, Note_off_c, 9, 35, 80
5, 137280, Note_off_c, 9, 35, 80
5, 137280, Note_off_c, 9, 35, 80
5, 137280, Note_on_c, 9, 35, 95
5, 137280, Note_on_c, 9, 35, 95
5, 137280, Note_on_c, 9, 35, 95
5, 137760, Note_off_c, 9, 35, 80
5, 137760, Note_off_c, 9, 35, 80
5, 137760, Note_off_c, 9, 35, 80
5, 137760, Note_on_c, 9, 40, 95
5, 138240, Note_off_c, 9, 40, 80
5, 138240, Note_on_c, 9, 40, 95
5, 138240, Note_on_c, 9, 49, 95
5, 138720, Note_off_c, 9, 40, 80
5, 138720, Note_off_c, 9, 49, 80
5, 138720, Note_on_c, 9, 35, 95
5, 138720, Note_on_c, 9, 35, 95
5, 138720, Note_on_c, 9, 35, 95
5, 138720, Note_on_c, 9, 49, 95
5, 139200, Note_off_c, 9, 35, 80
5, 139200, Note_off_c, 9, 35, 80
5, 139200, Note_off_c, 9, 35, 80
5, 139200, Note_off_c, 9, 49, 80
5, 139200, Note_on_c, 9, 35, 95
5, 139200, Note_on_c, 9, 35, 95
5, 139200, Note_on_c, 9, 35, 95
5, 139200, Note_on_c, 9, 49, 95
5, 139440, Note_off_c, 9, 35, 80
5, 139440, Note_off_c, 9, 35, 80
5, 139440, Note_off_c, 9, 35, 80
5, 139440, Note_off_c, 9, 49, 80
5, 139440, Note_on_c, 9, 40, 95
5, 139440, Note_on_c, 9, 49, 95
5, 139680, Note_off_c, 9, 40, 80
5, 139680, Note_off_c, 9, 49, 80
5, 139680, Note_on_c, 9, 40, 95
5, 139680, Note_on_c, 9, 49, 95
5, 139800, Note_off_c, 9, 40, 80
5, 139800, Note_off_c, 9, 49, 80
5, 139800, Note_on_c, 9, 40, 95
5, 139800, Note_on_c, 9, 49, 95
5, 139920, Note_off_c, 9, 40, 80
5, 139920, Note_off_c, 9, 49, 80
5, 139920, Note_on_c, 9, 40, 95
5, 139920, Note_on_c, 9, 49, 95
5, 140160, Note_off_c, 9, 40, 80
5, 140160, Note_off_c, 9, 49, 80
5, 140160, Note_on_c, 9, 35, 95
5, 140160, Note_on_c, 9, 35, 95
5, 140160, Note_on_c, 9, 35, 95
5, 140640, Note_off_c, 9, 35, 80
5, 140640, Note_off_c, 9, 35, 80
5, 140640, Note_off_c, 9, 35, 80
5, 140640, Note_on_c, 9, 40, 95
5, 140880, Note_off_c, 9, 40, 80
5, 140880, Note_on_c, 9, 35, 95
5, 140880, Note_on_c, 9, 35, 95
5, 140880, Note_on_c, 9, 35, 95
5, 141120, Note_off_c, 9, 35, 80
5, 141120, Note_off_c, 9, 35, 80
5, 141120, Note_off_c, 9, 35, 80
5, 141120, Note_on_c, 9, 35, 95
5, 141120, Note_on_c, 9, 35, 95
5, 141120, Note_on_c, 9, 35, 95
5, 141600, Note_off_c, 9, 35, 80
5, 141600, Note_off_c, 9, 35, 80
5, 141600, Note_off_c, 9, 35, 80
5, 141600, Note_on_c, 9, 40, 95
5, 142080, Note_off_c, 9, 40, 80
5, 142080, Note_on_c, 9, 35, 95
5, 142080, Note_on_c, 9, 35, 95
5, 142080, Note_on_c, 9, 35, 95
5, 142560, Note_off_c, 9, 35, 80
5, 142560, Note_off_c, 9, 35, 80
5, 142560, Note_off_c, 9, 35, 80
5, 142560, Note_on_c, 9, 40, 95
5, 142800, Note_off_c, 9, 40, 80
5, 142800, Note_on_c, 9, 35, 95
5, 142800, Note_on_c, 9, 35, 95
5, 142800, Note_on_c, 9, 35, 95
5, 143040, Note_off_c, 9, 35, 80
5, 143040, Note_off_c, 9, 35, 80
5, 143040, Note_off_c, 9, 35, 80
5, 143040, Note_on_c, 9, 35, 95
5, 143040, Note_on_c, 9, 35, 95
5, 143040, Note_on_c, 9, 35, 95
5, 143520, Note_off_c, 9, 35, 80
5, 143520, Note_off_c, 9, 35, 80
5, 143520, Note_off_c, 9, 35, 80
5, 143520, Note_on_c, 9, 40, 95
5, 144000, Note_off_c, 9, 40, 80
5, 144000, Note_on_c, 9, 35, 95
5, 144000, Note_on_c, 9, 35, 95
5, 144000, Note_on_c, 9, 35, 95
5, 144480, Note_off_c, 9, 35, 80
5, 144480, Note_off_c, 9, 35, 80
5, 144480, Note_off_c, 9, 35, 80
5, 144480, Note_on_c, 9, 40, 95
5, 144720, Note_off_c, 9, 40, 80
5, 144720, Note_on_c, 9, 35, 95
5, 144720, Note_on_c, 9, 35, 95
5, 144720, Note_on_c, 9, 35, 95
5, 144960, Note_off_c, 9, 35, 80
5, 144960, Note_off_c, 9, 35, 80
5, 144960, Note_off_c, 9, 35, 80
5, 144960, Note_on_c, 9, 35, 95
5, 144960, Note_on_c, 9, 35, 95
5, 144960, Note_on_c, 9, 35, 95
5, 145440, Note_off_c, 9, 35, 80
5, 145440, Note_off_c, 9, 35, 80
5, 145440, Note_off_c, 9, 35, 80
5, 145440, Note_on_c, 9, 40, 95
5, 145920, Note_off_c, 9, 40, 80
5, 145920, Note_on_c, 9, 40, 95
5, 145920, Note_on_c, 9, 49, 95
5, 146400, Note_off_c, 9, 40, 80
5, 146400, Note_off_c, 9, 49, 80
5, 146400, Note_on_c, 9, 35, 95
5, 146400, Note_on_c, 9, 35, 95
5, 146400, Note_on_c, 9, 35, 95
5, 146400, Note_on_c, 9, 49, 95
5, 146880, Note_off_c, 9, 35, 80
5, 146880, Note_off_c, 9, 35, 80
5, 146880, Note_off_c, 9, 35, 80
5, 146880, Note_off_c, 9, 49, 80
5, 146880, Note_on_c, 9, 35, 95
5, 146880, Note_on_c, 9, 35, 95
5, 146880, Note_on_c, 9, 35, 95
5, 146880, Note_on_c, 9, 49, 95
5, 147120, Note_off_c, 9, 35, 80
5, 147120, Note_off_c, 9, 35, 80
5, 147120, Note_off_c, 9, 35, 80
5, 147120, Note_off_c, 9, 49, 80
5, 147120, Note_on_c, 9, 40, 95
5, 147120, Note_on_c, 9, 49, 95
5, 147360, Note_off_c, 9, 40, 80
5, 147360, Note_off_c, 9, 49, 80
5, 147360, Note_on_c, 9, 40, 95
5, 147360, Note_on_c, 9, 49, 95
5, 147480, Note_off_c, 9, 40, 80
5, 147480, Note_off_c, 9, 49, 80
5, 147480, Note_on_c, 9, 40, 95
5, 147480, Note_on_c, 9, 49, 95
5, 147600, Note_off_c, 9, 40, 80
5, 147600, Note_off_c, 9, 49, 80
5, 147600, Note_on_c, 9, 40, 95
5, 147600, Note_on_c, 9, 49, 95
5, 147840, Note_off_c, 9, 40, 80
5, 147840, Note_off_c, 9, 49, 80
5, 147840, Note_on_c, 9, 35, 95
5, 147840, Note_on_c, 9, 35, 95
5, 147840, Note_on_c, 9, 35, 95
5, 148320, Note_off_c, 9, 35, 80
5, 148320, Note_off_c, 9, 35, 80
5, 148320, Note_off_c, 9, 35, 80
5, 148320, Note_on_c, 9, 40, 95
5, 148560, Note_off_c, 9, 40, 80
5, 148560, Note_on_c, 9, 35, 95
5, 148560, Note_on_c, 9, 35, 95
5, 148560, Note_on_c, 9, 35, 95
5, 148800, Note_off_c, 9, 35, 80
5, 148800, Note_off_c, 9, 35, 80
5, 148800, Note_off_c, 9, 35, 80
5, 148800, Note_on_c, 9, 35, 95
5, 148800, Note_on_c, 9, 35, 95
5, 148800, Note_on_c, 9, 35, 95
5, 149280, Note_off_c, 9, 35, 80
5, 149280, Note_off_c, 9, 35, 80
5, 149280, Note_off_c, 9, 35, 80
5, 149280, Note_on_c, 9, 40, 95
5, 149760, Note_off_c, 9, 40, 80
5, 149760, Note_on_c, 9, 35, 95
5, 149760, Note_on_c, 9, 35, 95
5, 149760, Note_on_c, 9, 35, 95
5, 150240, Note_off_c, 9, 35, 80
5, 150240, Note_off_c, 9, 35, 80
5, 150240, Note_off_c, 9, 35, 80
5, 150240, Note_on_c, 9, 40, 95
5, 150480, Note_off_c, 9, 40, 80
5, 150480, Note_on_c, 9, 35, 95
5, 150480, Note_on_c, 9, 35, 95
5, 150480, Note_on_c, 9, 35, 95
5, 150720, Note_off_c, 9, 35, 80
5, 150720, Note_off_c, 9, 35, 80
5, 150720, Note_off_c, 9, 35, 80
5, 150720, Note_on_c, 9, 35, 95
5, 150720, Note_on_c, 9, 35, 95
5, 150720, Note_on_c, 9, 35, 95
5, 151200, Note_off_c, 9, 35, 80
5, 151200, Note_off_c, 9, 35, 80
5, 151200, Note_off_c, 9, 35, 80
5, 151200, Note_on_c, 9, 40, 95
5, 151680, Note_off_c, 9, 40, 80
5, 151680, Note_on_c, 9, 35, 95
5, 151680, Note_on_c, 9, 35, 95
5, 151680, Note_on_c, 9, 35, 95
5, 152160, Note_off_c, 9, 35, 80
5, 152160, Note_off_c, 9, 35, 80
5, 152160, Note_off_c, 9, 35, 80
5, 152160, Note_on_c, 9, 40, 95
5, 152400, Note_off_c, 9, 40, 80
5, 152400, Note_on_c, 9, 35, 95
5, 152400, Note_on_c, 9, 35, 95
5, 152400, Note_on_c, 9, 35, 95
5, 152640, Note_off_c, 9, 35, 80
5, 152640, Note_off_c, 9, 35, 80
5, 152640, Note_off_c, 9, 35, 80
5, 152640, Note_on_c, 9, 35, 95
5, 152640, Note_on_c, 9, 35, 95
5, 152640, Note_on_c, 9, 35, 95
5, 153120, Note_off_c, 9, 35, 80
5, 153120, Note_off_c, 9, 35, 80
5, 153120, Note_off_c, 9, 35, 80
5, 153120, Note_on_c, 9, 40, 95
5, 153600, Note_off_c, 9, 40, 80
5, 153600, Note_on_c, 9, 40, 95
5, 153600, Note_on_c, 9, 49, 95
5, 154080, Note_off_c, 9, 40, 80
5, 154080, Note_off_c, 9, 49, 80
5, 154080, Note_on_c, 9, 35, 95
5, 154080, Note_on_c, 9, 35, 95
5, 154080, Note_on_c, 9, 35, 95
5, 154080, Note_on_c, 9, 49, 95
5, 154560, Note_off_c, 9, 35, 80
5, 154560, Note_off_c, 9, 35, 80
5, 154560, Note_off_c, 9, 35, 80
5, 154560, Note_off_c, 9, 49, 80
5, 154560, Note_on_c, 9, 35, 95
5, 154560, Note_on_c, 9, 35, 95
5, 154560, Note_on_c, 9, 35, 95
5, 154560, Note_on_c, 9, 49, 95
5, 155040, Note_off_c, 9, 35, 80
5, 155040, Note_off_c, 9, 35, 80
5, 155040, Note_off_c, 9, 35, 80
5, 155040, Note_off_c, 9, 49, 80
5, 155040, Note_on_c, 9, 40, 95
5, 155040, Note_on_c, 9, 49, 95
5, 155520, Note_off_c, 9, 40, 80
5, 155520, Note_off_c, 9, 49, 80
5, 155520, Note_on_c, 9, 35, 95
5, 155520, Note_on_c, 9, 35, 95
5, 155520, Note_on_c, 9, 35, 95
5, 155520, Note_on_c, 9, 49, 95
5, 157440, Note_off_c, 9, 35, 80
5, 157440, Note_off_c, 9, 35, 80
5, 157440, Note_off_c, 9, 35, 80
5, 157440, Note_off_c, 9, 49, 80
5, 157440, End_track
0, 0, End_of_file
