0, 0, Header, 1, 5, 960
1, 0, Start_track
1, 0, Control_c, 0, 101, 0
1, 0, Control_c, 0, 100, 0
1, 0, Control_c, 0, 6, 12
1, 0, Control_c, 0, 38, 0
1, 0, Control_c, 1, 101, 0
1, 0, Control_c, 1, 100, 0
1, 0, Control_c, 1, 6, 12
1, 0, Control_c, 1, 38, 0
1, 0, Control_c, 2, 101, 0
1, 0, Control_c, 2, 100, 0
1, 0, Control_c, 2, 6, 12
1, 0, Control_c, 2, 38, 0
1, 0, Control_c, 3, 101, 0
1, 0, Control_c, 3, 100, 0
1, 0, Control_c, 3, 6, 12
1, 0, Control_c, 3, 38, 0
1, 0, Control_c, 4, 101, 0
1, 0, Control_c, 4, 100, 0
1, 0, Control_c, 4, 6, 12
1, 0, Control_c, 4, 38, 0
1, 0, Control_c, 5, 101, 0
1, 0, Control_c, 5, 100, 0
1, 0, Control_c, 5, 6, 12
1, 0, Control_c, 5, 38, 0
1, 0, Control_c, 6, 101, 0
1, 0, Control_c, 6, 100, 0
1, 0, Control_c, 6, 6, 12
1, 0, Control_c, 6, 38, 0
1, 0, Control_c, 7, 101, 0
1, 0, Control_c, 7, 100, 0
1, 0, Control_c, 7, 6, 12
1, 0, Control_c, 7, 38, 0
1, 0, Control_c, 8, 101, 0
1, 0, Control_c, 8, 100, 0
1, 0, Control_c, 8, 6, 12
1, 0, Control_c, 8, 38, 0
1, 0, Control_c, 9, 101, 0
1, 0, Control_c, 9, 100, 0
1, 0, Control_c, 9, 6, 12
1, 0, Control_c, 9, 38, 0
1, 0, Control_c, 10, 101, 0
1, 0, Control_c, 10, 100, 0
1, 0, Control_c, 10, 6, 12
1, 0, Control_c, 10, 38, 0
1, 0, Control_c, 11, 101, 0
1, 0, Control_c, 11, 100, 0
1, 0, Control_c, 11, 6, 12
1, 0, Control_c, 11, 38, 0
1, 0, Control_c, 12, 101, 0
1, 0, Control_c, 12, 100, 0
1, 0, Control_c, 12, 6, 12
1, 0, Control_c, 12, 38, 0
1, 0, Control_c, 13, 101, 0
1, 0, Control_c, 13, 100, 0
1, 0, Control_c, 13, 6, 12
1, 0, Control_c, 13, 38, 0
1, 0, Control_c, 14, 101, 0
1, 0, Control_c, 14, 100, 0
1, 0, Control_c, 14, 6, 12
1, 0, Control_c, 14, 38, 0
1, 0, Control_c, 15, 101, 0
1, 0, Control_c, 15, 100, 0
1, 0, Control_c, 15, 6, 12
1, 0, Control_c, 15, 38, 0
1, 0, Time_signature, 1, 3, 12, 8
1, 0, Tempo, 379746
1, 480, Time_signature, 4, 2, 24, 8
1, 480, End_track
2, 0, Start_track
2, 0, Pitch_bend_c, 0, 8192
2, 0, Control_c, 0, 7, 95
2, 0, Control_c, 0, 10, 63
2, 0, Control_c, 0, 93, 0
2, 0, Control_c, 0, 91, 0
2, 0, Control_c, 0, 95, 0
2, 0, Control_c, 0, 92, 0
2, 0, Control_c, 0, 11, 127
2, 0, Program_c, 0, 29
2, 0, Control_c, 1, 7, 95
2, 0, Control_c, 1, 10, 63
2, 0, Control_c, 1, 93, 0
2, 0, Control_c, 1, 91, 0
2, 0, Control_c, 1, 95, 0
2, 0, Control_c, 1, 92, 0
2, 0, Control_c, 1, 11, 127
2, 0, Program_c, 1, 29
2, 7680, Note_on_c, 0, 57, 95
2, 7680, Note_on_c, 0, 53, 95
2, 7680, Note_on_c, 0, 48, 95
2, 7680, Note_on_c, 0, 41, 95
2, 7920, Note_off_c, 0, 57, 95
2, 7920, Note_off_c, 0, 53, 95
2, 7920, Note_off_c, 0, 48, 95
2, 7920, Note_off_c, 0, 41, 95
2, 7920, Note_on_c, 0, 57, 95
2, 7920, Note_on_c, 0, 53, 95
2, 7920, Note_on_c, 0, 48, 95
2, 7920, Note_on_c, 0, 41, 95
2, 8160, Note_off_c, 0, 57, 95
2, 8160, Note_off_c, 0, 53, 95
2, 8160, Note_off_c, 0, 48, 95
2, 8160, Note_off_c, 0, 41, 95
2, 8160, Note_on_c, 0, 57, 95
2, 8160, Note_on_c, 0, 53, 95
2, 8160, Note_on_c, 0, 48, 95
2, 8160, Note_on_c, 0, 41, 127
2, 9120, Note_off_c, 0, 57, 95
2, 9120, Note_off_c, 0, 53, 95
2, 9120, Note_off_c, 0, 48, 95
2, 9120, Note_off_c, 0, 41, 127
2, 9600, Note_on_c, 0, 59, 95
2, 9600, Note_on_c, 0, 55, 95
2, 9600, Note_on_c, 0, 50, 95
2, 9600, Note_on_c, 0, 43, 95
2, 9840, Note_off_c, 0, 59, 95
2, 9840, Note_off_c, 0, 55, 95
2, 9840, Note_off_c, 0, 50, 95
2, 9840, Note_off_c, 0, 43, 95
2, 9840, Note_on_c, 0, 59, 95
2, 9840, Note_on_c, 0, 55, 95
2, 9840, Note_on_c, 0, 50, 95
2, 9840, Note_on_c, 0, 43, 95
2, 10080, Note_off_c, 0, 59, 95
2, 10080, Note_off_c, 0, 55, 95
2, 10080, Note_off_c, 0, 50, 95
2, 10080, Note_off_c, 0, 43, 95
2, 10080, Note_on_c, 0, 59, 95
2, 10080, Note_on_c, 0, 55, 95
2, 10080, Note_on_c, 0, 50, 95
2, 10080, Note_on_c, 0, 43, 127
2, 11040, Note_off_c, 0, 59, 95
2, 11040, Note_off_c, 0, 55, 95
2, 11040, Note_off_c, 0, 50, 95
2, 11040, Note_off_c, 0, 43, 127
2, 11520, Note_on_c, 0, 62, 95
2, 11520, Note_on_c, 0, 58, 95
2, 11520, Note_on_c, 0, 53, 95
2, 11520, Note_on_c, 0, 46, 95
2, 11760, Note_off_c, 0, 62, 95
2, 11760, Note_off_c, 0, 58, 95
2, 11760, Note_off_c, 0, 53, 95
2, 11760, Note_off_c, 0, 46, 95
2, 11760, Note_on_c, 0, 62, 95
2, 11760, Note_on_c, 0, 58, 95
2, 11760, Note_on_c, 0, 53, 95
2, 11760, Note_on_c, 0, 46, 95
2, 12000, Note_off_c, 0, 62, 95
2, 12000, Note_off_c, 0, 58, 95
2, 12000, Note_off_c, 0, 53, 95
2, 12000, Note_off_c, 0, 46, 95
2, 12000, Note_on_c, 0, 62, 95
2, 12000, Note_on_c, 0, 58, 95
2, 12000, Note_on_c, 0, 53, 95
2, 12000, Note_on_c, 0, 46, 127
2, 12960, Note_off_c, 0, 62, 95
2, 12960, Note_off_c, 0, 58, 95
2, 12960, Note_off_c, 0, 53, 95
2, 12960, Note_off_c, 0, 46, 127
2, 13440, Note_on_c, 0, 64, 95
2, 13440, Note_on_c, 0, 60, 95
2, 13440, Note_on_c, 0, 55, 95
2, 13440, Note_on_c, 0, 48, 95
2, 13680, Note_off_c, 0, 64, 95
2, 13680, Note_off_c, 0, 60, 95
2, 13680, Note_off_c, 0, 55, 95
2, 13680, Note_off_c, 0, 48, 95
2, 13680, Note_on_c, 0, 64, 95
2, 13680, Note_on_c, 0, 60, 95
2, 13680, Note_on_c, 0, 55, 95
2, 13680, Note_on_c, 0, 48, 95
2, 13920, Note_off_c, 0, 64, 95
2, 13920, Note_off_c, 0, 60, 95
2, 13920, Note_off_c, 0, 55, 95
2, 13920, Note_off_c, 0, 48, 95
2, 13920, Note_on_c, 0, 64, 95
2, 13920, Note_on_c, 0, 60, 95
2, 13920, Note_on_c, 0, 55, 95
2, 13920, Note_on_c, 0, 48, 127
2, 14880, Note_off_c, 0, 64, 95
2, 14880, Note_off_c, 0, 60, 95
2, 14880, Note_off_c, 0, 55, 95
2, 14880, Note_off_c, 0, 48, 127
2, 15360, Note_on_c, 0, 57, 95
2, 15360, Note_on_c, 0, 53, 95
2, 15360, Note_on_c, 0, 48, 95
2, 15360, Note_on_c, 0, 41, 95
2, 15600, Note_off_c, 0, 57, 95
2, 15600, Note_off_c, 0, 53, 95
2, 15600, Note_off_c, 0, 48, 95
2, 15600, Note_off_c, 0, 41, 95
2, 15600, Note_on_c, 0, 57, 95
2, 15600, Note_on_c, 0, 53, 95
2, 15600, Note_on_c, 0, 48, 95
2, 15600, Note_on_c, 0, 41, 95
2, 15840, Note_off_c, 0, 57, 95
2, 15840, Note_off_c, 0, 53, 95
2, 15840, Note_off_c, 0, 48, 95
2, 15840, Note_off_c, 0, 41, 95
2, 15840, Note_on_c, 0, 57, 95
2, 15840, Note_on_c, 0, 53, 95
2, 15840, Note_on_c, 0, 48, 95
2, 15840, Note_on_c, 0, 41, 127
2, 16800, Note_off_c, 0, 57, 95
2, 16800, Note_off_c, 0, 53, 95
2, 16800, Note_off_c, 0, 48, 95
2, 16800, Note_off_c, 0, 41, 127
2, 17280, Note_on_c, 0, 59, 95
2, 17280, Note_on_c, 0, 55, 95
2, 17280, Note_on_c, 0, 50, 95
2, 17280, Note_on_c, 0, 43, 95
2, 17520, Note_off_c, 0, 59, 95
2, 17520, Note_off_c, 0, 55, 95
2, 17520, Note_off_c, 0, 50, 95
2, 17520, Note_off_c, 0, 43, 95
2, 17520, Note_on_c, 0, 59, 95
2, 17520, Note_on_c, 0, 55, 95
2, 17520, Note_on_c, 0, 50, 95
2, 17520, Note_on_c, 0, 43, 95
2, 17760, Note_off_c, 0, 59, 95
2, 17760, Note_off_c, 0, 55, 95
2, 17760, Note_off_c, 0, 50, 95
2, 17760, Note_off_c, 0, 43, 95
2, 17760, Note_on_c, 0, 59, 95
2, 17760, Note_on_c, 0, 55, 95
2, 17760, Note_on_c, 0, 50, 95
2, 17760, Note_on_c, 0, 43, 127
2, 18720, Note_off_c, 0, 59, 95
2, 18720, Note_off_c, 0, 55, 95
2, 18720, Note_off_c, 0, 50, 95
2, 18720, Note_off_c, 0, 43, 127
2, 19200, Note_on_c, 0, 62, 95
2, 19200, Note_on_c, 0, 58, 95
2, 19200, Note_on_c, 0, 53, 95
2, 19200, Note_on_c, 0, 46, 95
2, 19440, Note_off_c, 0, 62, 95
2, 19440, Note_off_c, 0, 58, 95
2, 19440, Note_off_c, 0, 53, 95
2, 19440, Note_off_c, 0, 46, 95
2, 19440, Note_on_c, 0, 62, 95
2, 19440, Note_on_c, 0, 58, 95
2, 19440, Note_on_c, 0, 53, 95
2, 19440, Note_on_c, 0, 46, 95
2, 19680, Note_off_c, 0, 62, 95
2, 19680, Note_off_c, 0, 58, 95
2, 19680, Note_off_c, 0, 53, 95
2, 19680, Note_off_c, 0, 46, 95
2, 19680, Note_on_c, 0, 62, 95
2, 19680, Note_on_c, 0, 58, 95
2, 19680, Note_on_c, 0, 53, 95
2, 19680, Note_on_c, 0, 46, 127
2, 20640, Note_off_c, 0, 62, 95
2, 20640, Note_off_c, 0, 58, 95
2, 20640, Note_off_c, 0, 53, 95
2, 20640, Note_off_c, 0, 46, 127
2, 21120, Note_on_c, 0, 64, 95
2, 21120, Note_on_c, 0, 60, 95
2, 21120, Note_on_c, 0, 55, 95
2, 21120, Note_on_c, 0, 48, 95
2, 21360, Note_off_c, 0, 64, 95
2, 21360, Note_off_c, 0, 60, 95
2, 21360, Note_off_c, 0, 55, 95
2, 21360, Note_off_c, 0, 48, 95
2, 21360, Note_on_c, 0, 64, 95
2, 21360, Note_on_c, 0, 60, 95
2, 21360, Note_on_c, 0, 55, 95
2, 21360, Note_on_c, 0, 48, 95
2, 21600, Note_off_c, 0, 64, 95
2, 21600, Note_off_c, 0, 60, 95
2, 21600, Note_off_c, 0, 55, 95
2, 21600, Note_off_c, 0, 48, 95
2, 21600, Note_on_c, 0, 64, 95
2, 21600, Note_on_c, 0, 60, 95
2, 21600, Note_on_c, 0, 55, 95
2, 21600, Note_on_c, 0, 48, 127
2, 22560, Note_off_c, 0, 64, 95
2, 22560, Note_off_c, 0, 60, 95
2, 22560, Note_off_c, 0, 55, 95
2, 22560, Note_off_c, 0, 48, 127
2, 22560, Note_on_c, 1, 64, 95
2, 22560, Note_on_c, 1, 59, 95
2, 22560, Note_on_c, 1, 52, 95
2, 22680, Pitch_bend_c, 1, 8320
2, 22680, Pitch_bend_c, 1, 8320
2, 22680, Pitch_bend_c, 1, 8320
2, 22800, Pitch_bend_c, 1, 8448
2, 22800, Pitch_bend_c, 1, 8448
2, 22800, Pitch_bend_c, 1, 8448
2, 22920, Pitch_bend_c, 1, 8704
2, 22920, Pitch_bend_c, 1, 8704
2, 22920, Pitch_bend_c, 1, 8704
2, 23040, Pitch_bend_c, 1, 8832
2, 23040, Pitch_bend_c, 1, 8192
2, 23040, Note_off_c, 1, 64, 95
2, 23040, Pitch_bend_c, 1, 8832
2, 23040, Pitch_bend_c, 1, 8192
2, 23040, Note_off_c, 1, 59, 95
2, 23040, Pitch_bend_c, 1, 8832
2, 23040, Pitch_bend_c, 1, 8192
2, 23040, Note_off_c, 1, 52, 95
2, 23040, Note_on_c, 0, 65, 95
2, 23040, Note_on_c, 0, 60, 95
2, 23040, Note_on_c, 0, 53, 95
2, 23520, Note_off_c, 0, 65, 95
2, 23520, Note_off_c, 0, 60, 95
2, 23520, Note_off_c, 0, 53, 95
2, 23520, Note_on_c, 0, 69, 95
2, 23520, Note_on_c, 0, 65, 95
2, 23520, Note_on_c, 0, 60, 95
2, 23520, Note_on_c, 0, 53, 127
2, 24480, Note_off_c, 0, 69, 95
2, 24480, Note_off_c, 0, 65, 95
2, 24480, Note_off_c, 0, 60, 95
2, 24480, Note_off_c, 0, 53, 127
2, 24960, Note_on_c, 0, 60, 95
2, 24960, Note_on_c, 0, 53, 95
2, 25440, Note_off_c, 0, 60, 95
2, 25440, Note_off_c, 0, 53, 95
2, 25440, Note_on_c, 0, 69, 95
2, 25440, Note_on_c, 0, 65, 95
2, 25440, Note_on_c, 0, 60, 95
2, 25440, Note_on_c, 0, 53, 127
2, 26400, Note_off_c, 0, 69, 95
2, 26400, Note_off_c, 0, 65, 95
2, 26400, Note_off_c, 0, 60, 95
2, 26400, Note_off_c, 0, 53, 127
2, 26400, Note_on_c, 0, 60, 95
2, 26400, Note_on_c, 0, 53, 95
2, 26880, Note_off_c, 0, 60, 95
2, 26880, Note_off_c, 0, 53, 95
2, 26880, Note_on_c, 0, 69, 95
2, 26880, Note_on_c, 0, 65, 95
2, 26880, Note_on_c, 0, 60, 95
2, 26880, Note_on_c, 0, 53, 127
2, 27360, Note_off_c, 0, 69, 95
2, 27360, Note_off_c, 0, 65, 95
2, 27360, Note_off_c, 0, 60, 95
2, 27360, Note_off_c, 0, 53, 127
2, 27840, Note_on_c, 0, 69, 95
2, 27840, Note_on_c, 0, 65, 95
2, 27840, Note_on_c, 0, 60, 95
2, 27840, Note_on_c, 0, 53, 127
2, 28800, Note_off_c, 0, 69, 95
2, 28800, Note_off_c, 0, 65, 95
2, 28800, Note_off_c, 0, 60, 95
2, 28800, Note_off_c, 0, 53, 127
2, 28800, Note_on_c, 0, 60, 95
2, 28800, Note_on_c, 0, 53, 95
2, 29280, Note_off_c, 0, 60, 95
2, 29280, Note_off_c, 0, 53, 95
2, 29280, Note_on_c, 0, 69, 95
2, 29280, Note_on_c, 0, 65, 95
2, 29280, Note_on_c, 0, 60, 95
2, 29280, Note_on_c, 0, 53, 127
2, 30240, Note_off_c, 0, 69, 95
2, 30240, Note_off_c, 0, 65, 95
2, 30240, Note_off_c, 0, 60, 95
2, 30240, Note_off_c, 0, 53, 127
2, 30240, Note_on_c, 0, 60, 95
2, 30240, Note_on_c, 0, 53, 95
2, 30720, Note_off_c, 0, 60, 95
2, 30720, Note_off_c, 0, 53, 95
2, 30720, Note_on_c, 0, 69, 95
2, 30720, Note_on_c, 0, 65, 95
2, 30720, Note_on_c, 0, 60, 95
2, 30720, Note_on_c, 0, 53, 127
2, 31200, Note_off_c, 0, 69, 95
2, 31200, Note_off_c, 0, 65, 95
2, 31200, Note_off_c, 0, 60, 95
2, 31200, Note_off_c, 0, 53, 127
2, 31200, Note_on_c, 0, 69, 95
2, 31200, Note_on_c, 0, 65, 95
2, 31200, Note_on_c, 0, 60, 95
2, 31200, Note_on_c, 0, 53, 127
2, 32160, Note_off_c, 0, 69, 95
2, 32160, Note_off_c, 0, 65, 95
2, 32160, Note_off_c, 0, 60, 95
2, 32160, Note_off_c, 0, 53, 127
2, 32640, Note_on_c, 0, 60, 95
2, 32640, Note_on_c, 0, 53, 95
2, 33120, Note_off_c, 0, 60, 95
2, 33120, Note_off_c, 0, 53, 95
2, 33120, Note_on_c, 0, 69, 95
2, 33120, Note_on_c, 0, 65, 95
2, 33120, Note_on_c, 0, 60, 95
2, 33120, Note_on_c, 0, 53, 127
2, 34080, Note_off_c, 0, 69, 95
2, 34080, Note_off_c, 0, 65, 95
2, 34080, Note_off_c, 0, 60, 95
2, 34080, Note_off_c, 0, 53, 127
2, 34080, Note_on_c, 0, 60, 95
2, 34080, Note_on_c, 0, 53, 95
2, 34560, Note_off_c, 0, 60, 95
2, 34560, Note_off_c, 0, 53, 95
2, 34560, Note_on_c, 0, 69, 95
2, 34560, Note_on_c, 0, 65, 95
2, 34560, Note_on_c, 0, 60, 95
2, 34560, Note_on_c, 0, 53, 127
2, 35040, Note_off_c, 0, 69, 95
2, 35040, Note_off_c, 0, 65, 95
2, 35040, Note_off_c, 0, 60, 95
2, 35040, Note_off_c, 0, 53, 127
2, 35520, Note_on_c, 0, 62, 95
2, 35520, Note_on_c, 0, 58, 95
2, 35520, Note_on_c, 0, 53, 95
2, 35520, Note_on_c, 0, 46, 95
2, 36000, Note_off_c, 0, 62, 95
2, 36000, Note_off_c, 0, 58, 95
2, 36000, Note_off_c, 0, 53, 95
2, 36000, Note_off_c, 0, 46, 95
2, 36000, Note_on_c, 0, 62, 95
2, 36000, Note_on_c, 0, 58, 95
2, 36000, Note_on_c, 0, 53, 95
2, 36000, Note_on_c, 0, 46, 95
2, 36480, Note_off_c, 0, 62, 95
2, 36480, Note_off_c, 0, 58, 95
2, 36480, Note_off_c, 0, 53, 95
2, 36480, Note_off_c, 0, 46, 95
2, 36480, Note_on_c, 0, 62, 95
2, 36480, Note_on_c, 0, 58, 95
2, 36480, Note_on_c, 0, 53, 95
2, 36480, Note_on_c, 0, 46, 95
2, 36960, Note_off_c, 0, 62, 95
2, 36960, Note_off_c, 0, 58, 95
2, 36960, Note_off_c, 0, 53, 95
2, 36960, Note_off_c, 0, 46, 95
2, 36960, Note_on_c, 0, 62, 95
2, 36960, Note_on_c, 0, 58, 95
2, 36960, Note_on_c, 0, 53, 95
2, 36960, Note_on_c, 0, 46, 95
2, 37440, Note_off_c, 0, 62, 95
2, 37440, Note_off_c, 0, 58, 95
2, 37440, Note_off_c, 0, 53, 95
2, 37440, Note_off_c, 0, 46, 95
2, 37440, Note_on_c, 0, 62, 95
2, 37440, Note_on_c, 0, 58, 95
2, 37440, Note_on_c, 0, 53, 95
2, 37440, Note_on_c, 0, 46, 95
2, 37920, Note_off_c, 0, 62, 95
2, 37920, Note_off_c, 0, 58, 95
2, 37920, Note_off_c, 0, 53, 95
2, 37920, Note_off_c, 0, 46, 95
2, 37920, Note_on_c, 0, 62, 95
2, 37920, Note_on_c, 0, 58, 95
2, 37920, Note_on_c, 0, 53, 95
2, 37920, Note_on_c, 0, 46, 95
2, 38400, Note_off_c, 0, 62, 95
2, 38400, Note_off_c, 0, 58, 95
2, 38400, Note_off_c, 0, 53, 95
2, 38400, Note_off_c, 0, 46, 95
2, 38400, Note_on_c, 0, 55, 95
2, 38400, Note_on_c, 0, 50, 95
2, 38400, Note_on_c, 0, 45, 95
2, 38400, Note_on_c, 0, 46, 95
2, 38479, Note_off_c, 0, 55, 95
2, 38479, Note_off_c, 0, 50, 95
2, 38479, Note_off_c, 0, 45, 95
2, 38479, Note_off_c, 0, 46, 95
2, 38880, Note_on_c, 0, 69, 95
2, 38880, Note_on_c, 0, 65, 95
2, 38880, Note_on_c, 0, 60, 95
2, 38880, Note_on_c, 0, 53, 127
2, 39840, Note_off_c, 0, 69, 95
2, 39840, Note_off_c, 0, 65, 95
2, 39840, Note_off_c, 0, 60, 95
2, 39840, Note_off_c, 0, 53, 127
2, 39840, Note_on_c, 0, 69, 95
2, 39840, Note_on_c, 0, 65, 95
2, 39840, Note_on_c, 0, 60, 95
2, 39840, Note_on_c, 0, 53, 127
2, 40800, Note_off_c, 0, 69, 95
2, 40800, Note_off_c, 0, 65, 95
2, 40800, Note_off_c, 0, 60, 95
2, 40800, Note_off_c, 0, 53, 127
2, 40800, Note_on_c, 0, 59, 95
2, 40800, Note_on_c, 0, 55, 95
2, 40800, Note_on_c, 0, 50, 95
2, 40800, Note_on_c, 0, 45, 95
2, 40879, Note_off_c, 0, 59, 95
2, 40879, Note_off_c, 0, 55, 95
2, 40879, Note_off_c, 0, 50, 95
2, 40879, Note_off_c, 0, 45, 95
2, 41280, Note_on_c, 0, 69, 95
2, 41280, Note_on_c, 0, 65, 95
2, 41280, Note_on_c, 0, 60, 95
2, 41280, Note_on_c, 0, 53, 127
2, 41760, Note_off_c, 0, 69, 95
2, 41760, Note_off_c, 0, 65, 95
2, 41760, Note_off_c, 0, 60, 95
2, 41760, Note_off_c, 0, 53, 127
2, 42240, Note_on_c, 0, 69, 95
2, 42240, Note_on_c, 0, 65, 95
2, 42240, Note_on_c, 0, 60, 95
2, 42240, Note_on_c, 0, 53, 127
2, 43200, Note_off_c, 0, 69, 95
2, 43200, Note_off_c, 0, 65, 95
2, 43200, Note_off_c, 0, 60, 95
2, 43200, Note_off_c, 0, 53, 127
2, 43200, Note_on_c, 0, 69, 95
2, 43200, Note_on_c, 0, 65, 95
2, 43200, Note_on_c, 0, 60, 95
2, 43200, Note_on_c, 0, 53, 95
2, 43680, Note_off_c, 0, 69, 95
2, 43680, Note_off_c, 0, 65, 95
2, 43680, Note_off_c, 0, 60, 95
2, 43680, Note_off_c, 0, 53, 95
2, 43680, Note_on_c, 0, 69, 95
2, 43680, Note_on_c, 0, 65, 95
2, 43680, Note_on_c, 0, 60, 95
2, 43680, Note_on_c, 0, 53, 95
2, 44640, Note_off_c, 0, 69, 95
2, 44640, Note_off_c, 0, 65, 95
2, 44640, Note_off_c, 0, 60, 95
2, 44640, Note_off_c, 0, 53, 95
2, 44640, Note_on_c, 0, 59, 95
2, 44640, Note_on_c, 0, 55, 95
2, 44640, Note_on_c, 0, 50, 95
2, 44640, Note_on_c, 0, 45, 95
2, 44719, Note_off_c, 0, 59, 95
2, 44719, Note_off_c, 0, 55, 95
2, 44719, Note_off_c, 0, 50, 95
2, 44719, Note_off_c, 0, 45, 95
2, 45120, Note_on_c, 0, 69, 95
2, 45120, Note_on_c, 0, 65, 95
2, 45120, Note_on_c, 0, 60, 95
2, 45120, Note_on_c, 0, 53, 127
2, 46080, Note_off_c, 0, 69, 95
2, 46080, Note_off_c, 0, 65, 95
2, 46080, Note_off_c, 0, 60, 95
2, 46080, Note_off_c, 0, 53, 127
2, 46080, Note_on_c, 0, 69, 95
2, 46080, Note_on_c, 0, 65, 95
2, 46080, Note_on_c, 0, 60, 95
2, 46080, Note_on_c, 0, 53, 127
2, 46560, Note_off_c, 0, 69, 95
2, 46560, Note_off_c, 0, 65, 95
2, 46560, Note_off_c, 0, 60, 95
2, 46560, Note_off_c, 0, 53, 127
2, 46560, Note_on_c, 0, 69, 47
2, 46560, Note_on_c, 0, 65, 47
2, 46560, Note_on_c, 0, 60, 47
2, 46560, Note_on_c, 0, 53, 47
2, 47520, Note_off_c, 0, 69, 47
2, 47520, Note_off_c, 0, 65, 47
2, 47520, Note_off_c, 0, 60, 47
2, 47520, Note_off_c, 0, 53, 47
2, 47520, Note_on_c, 0, 69, 95
2, 47520, Note_on_c, 0, 65, 95
2, 47520, Note_on_c, 0, 60, 95
2, 47520, Note_on_c, 0, 53, 127
2, 48000, Note_off_c, 0, 69, 95
2, 48000, Note_off_c, 0, 65, 95
2, 48000, Note_off_c, 0, 60, 95
2, 48000, Note_off_c, 0, 53, 127
2, 48480, Note_on_c, 0, 69, 95
2, 48480, Note_on_c, 0, 65, 95
2, 48480, Note_on_c, 0, 60, 95
2, 48480, Note_on_c, 0, 53, 127
2, 48960, Note_off_c, 0, 69, 95
2, 48960, Note_off_c, 0, 65, 95
2, 48960, Note_off_c, 0, 60, 95
2, 48960, Note_off_c, 0, 53, 127
2, 48960, Note_on_c, 0, 69, 95
2, 48960, Note_on_c, 0, 65, 95
2, 48960, Note_on_c, 0, 60, 95
2, 48960, Note_on_c, 0, 53, 127
2, 49440, Note_off_c, 0, 69, 95
2, 49440, Note_off_c, 0, 65, 95
2, 49440, Note_off_c, 0, 60, 95
2, 49440, Note_off_c, 0, 53, 127
2, 49920, Note_on_c, 0, 69, 95
2, 49920, Note_on_c, 0, 65, 95
2, 49920, Note_on_c, 0, 60, 95
2, 49920, Note_on_c, 0, 53, 127
2, 50400, Note_off_c, 0, 69, 95
2, 50400, Note_off_c, 0, 65, 95
2, 50400, Note_off_c, 0, 60, 95
2, 50400, Note_off_c, 0, 53, 127
2, 50880, Note_on_c, 0, 69, 95
2, 50880, Note_on_c, 0, 65, 95
2, 50880, Note_on_c, 0, 60, 95
2, 50880, Note_on_c, 0, 53, 127
2, 51360, Note_off_c, 0, 69, 95
2, 51360, Note_off_c, 0, 65, 95
2, 51360, Note_off_c, 0, 60, 95
2, 51360, Note_off_c, 0, 53, 127
2, 51840, Note_on_c, 0, 69, 95
2, 51840, Note_on_c, 0, 65, 95
2, 51840, Note_on_c, 0, 60, 95
2, 51840, Note_on_c, 0, 53, 127
2, 52320, Note_off_c, 0, 69, 95
2, 52320, Note_off_c, 0, 65, 95
2, 52320, Note_off_c, 0, 60, 95
2, 52320, Note_off_c, 0, 53, 127
2, 52320, Note_on_c, 0, 69, 95
2, 52320, Note_on_c, 0, 65, 95
2, 52320, Note_on_c, 0, 60, 95
2, 52320, Note_on_c, 0, 53, 127
2, 53280, Note_off_c, 0, 69, 95
2, 53280, Note_off_c, 0, 65, 95
2, 53280, Note_off_c, 0, 60, 95
2, 53280, Note_off_c, 0, 53, 127
2, 53760, Note_on_c, 0, 62, 95
2, 53760, Note_on_c, 0, 58, 95
2, 53760, Note_on_c, 0, 53, 95
2, 53760, Note_on_c, 0, 46, 95
2, 54000, Note_off_c, 0, 62, 95
2, 54000, Note_off_c, 0, 58, 95
2, 54000, Note_off_c, 0, 53, 95
2, 54000, Note_off_c, 0, 46, 95
2, 54000, Note_on_c, 0, 62, 95
2, 54000, Note_on_c, 0, 58, 95
2, 54000, Note_on_c, 0, 53, 95
2, 54000, Note_on_c, 0, 46, 95
2, 54240, Note_off_c, 0, 62, 95
2, 54240, Note_off_c, 0, 58, 95
2, 54240, Note_off_c, 0, 53, 95
2, 54240, Note_off_c, 0, 46, 95
2, 54240, Note_on_c, 0, 62, 95
2, 54240, Note_on_c, 0, 58, 95
2, 54240, Note_on_c, 0, 53, 95
2, 54240, Note_on_c, 0, 46, 127
2, 56160, Note_off_c, 0, 62, 95
2, 56160, Note_off_c, 0, 58, 95
2, 56160, Note_off_c, 0, 53, 95
2, 56160, Note_off_c, 0, 46, 127
2, 57600, Note_on_c, 0, 59, 95
2, 57600, Note_on_c, 0, 55, 95
2, 57600, Note_on_c, 0, 50, 95
2, 57600, Note_on_c, 0, 43, 95
2, 58080, Note_off_c, 0, 59, 95
2, 58080, Note_off_c, 0, 55, 95
2, 58080, Note_off_c, 0, 50, 95
2, 58080, Note_off_c, 0, 43, 95
2, 58080, Note_on_c, 0, 59, 47
2, 58080, Note_on_c, 0, 55, 47
2, 58080, Note_on_c, 0, 50, 47
2, 58080, Note_on_c, 0, 43, 47
2, 60000, Note_off_c, 0, 59, 47
2, 60000, Note_off_c, 0, 55, 47
2, 60000, Note_off_c, 0, 50, 47
2, 60000, Note_off_c, 0, 43, 47
2, 61440, Note_on_c, 0, 59, 95
2, 61440, Note_on_c, 0, 54, 95
2, 61440, Note_on_c, 0, 47, 95
2, 61920, Note_off_c, 0, 59, 95
2, 61920, Note_off_c, 0, 54, 95
2, 61920, Note_off_c, 0, 47, 95
2, 61920, Note_on_c, 1, 59, 95
2, 61920, Note_on_c, 1, 54, 95
2, 61920, Note_on_c, 1, 47, 127
2, 62040, Pitch_bend_c, 1, 8320
2, 62040, Pitch_bend_c, 1, 8320
2, 62040, Pitch_bend_c, 1, 8320
2, 62160, Pitch_bend_c, 1, 8448
2, 62160, Pitch_bend_c, 1, 8448
2, 62160, Pitch_bend_c, 1, 8448
2, 62280, Pitch_bend_c, 1, 8704
2, 62280, Pitch_bend_c, 1, 8704
2, 62280, Pitch_bend_c, 1, 8704
2, 62400, Pitch_bend_c, 1, 8832
2, 62400, Pitch_bend_c, 1, 8192
2, 62400, Note_off_c, 1, 59, 95
2, 62400, Pitch_bend_c, 1, 8832
2, 62400, Pitch_bend_c, 1, 8192
2, 62400, Note_off_c, 1, 54, 95
2, 62400, Pitch_bend_c, 1, 8832
2, 62400, Pitch_bend_c, 1, 8192
2, 62400, Note_off_c, 1, 47, 127
2, 62400, Note_on_c, 0, 60, 95
2, 62400, Note_on_c, 0, 55, 95
2, 62400, Note_on_c, 0, 48, 95
2, 62880, Note_off_c, 0, 60, 95
2, 62880, Note_off_c, 0, 55, 95
2, 62880, Note_off_c, 0, 48, 95
2, 62880, Note_on_c, 0, 60, 95
2, 62880, Note_on_c, 0, 55, 95
2, 62880, Note_on_c, 0, 48, 95
2, 63360, Note_off_c, 0, 60, 95
2, 63360, Note_off_c, 0, 55, 95
2, 63360, Note_off_c, 0, 48, 95
2, 63360, Note_on_c, 0, 60, 95
2, 63360, Note_on_c, 0, 55, 95
2, 63360, Note_on_c, 0, 48, 95
2, 63840, Note_off_c, 0, 60, 95
2, 63840, Note_off_c, 0, 55, 95
2, 63840, Note_off_c, 0, 48, 95
2, 63840, Note_on_c, 1, 59, 95
2, 63840, Note_on_c, 1, 54, 95
2, 63840, Note_on_c, 1, 47, 127
2, 63960, Pitch_bend_c, 1, 8320
2, 63960, Pitch_bend_c, 1, 8320
2, 63960, Pitch_bend_c, 1, 8320
2, 64080, Pitch_bend_c, 1, 8448
2, 64080, Pitch_bend_c, 1, 8448
2, 64080, Pitch_bend_c, 1, 8448
2, 64200, Pitch_bend_c, 1, 8704
2, 64200, Pitch_bend_c, 1, 8704
2, 64200, Pitch_bend_c, 1, 8704
2, 64320, Pitch_bend_c, 1, 8832
2, 64320, Pitch_bend_c, 1, 8192
2, 64320, Note_off_c, 1, 59, 95
2, 64320, Pitch_bend_c, 1, 8832
2, 64320, Pitch_bend_c, 1, 8192
2, 64320, Note_off_c, 1, 54, 95
2, 64320, Pitch_bend_c, 1, 8832
2, 64320, Pitch_bend_c, 1, 8192
2, 64320, Note_off_c, 1, 47, 127
2, 64320, Note_on_c, 0, 60, 95
2, 64320, Note_on_c, 0, 55, 95
2, 64320, Note_on_c, 0, 48, 95
2, 64800, Note_off_c, 0, 60, 95
2, 64800, Note_off_c, 0, 55, 95
2, 64800, Note_off_c, 0, 48, 95
2, 64800, Note_on_c, 0, 60, 95
2, 64800, Note_on_c, 0, 55, 95
2, 64800, Note_on_c, 0, 48, 95
2, 65280, Note_off_c, 0, 60, 95
2, 65280, Note_off_c, 0, 55, 95
2, 65280, Note_off_c, 0, 48, 95
2, 65280, Note_on_c, 0, 60, 95
2, 65280, Note_on_c, 0, 55, 95
2, 65280, Note_on_c, 0, 48, 95
2, 65760, Note_off_c, 0, 60, 95
2, 65760, Note_off_c, 0, 55, 95
2, 65760, Note_off_c, 0, 48, 95
2, 65760, Note_on_c, 1, 59, 95
2, 65760, Note_on_c, 1, 54, 95
2, 65760, Note_on_c, 1, 47, 127
2, 65880, Pitch_bend_c, 1, 8320
2, 65880, Pitch_bend_c, 1, 8320
2, 65880, Pitch_bend_c, 1, 8320
2, 66000, Pitch_bend_c, 1, 8448
2, 66000, Pitch_bend_c, 1, 8448
2, 66000, Pitch_bend_c, 1, 8448
2, 66120, Pitch_bend_c, 1, 8704
2, 66120, Pitch_bend_c, 1, 8704
2, 66120, Pitch_bend_c, 1, 8704
2, 66240, Pitch_bend_c, 1, 8832
2, 66240, Pitch_bend_c, 1, 8192
2, 66240, Note_off_c, 1, 59, 95
2, 66240, Pitch_bend_c, 1, 8832
2, 66240, Pitch_bend_c, 1, 8192
2, 66240, Note_off_c, 1, 54, 95
2, 66240, Pitch_bend_c, 1, 8832
2, 66240, Pitch_bend_c, 1, 8192
2, 66240, Note_off_c, 1, 47, 127
2, 66240, Note_on_c, 0, 60, 95
2, 66240, Note_on_c, 0, 55, 95
2, 66240, Note_on_c, 0, 48, 95
2, 66720, Note_off_c, 0, 60, 95
2, 66720, Note_off_c, 0, 55, 95
2, 66720, Note_off_c, 0, 48, 95
2, 66720, Note_on_c, 0, 60, 95
2, 66720, Note_on_c, 0, 55, 95
2, 66720, Note_on_c, 0, 48, 95
2, 67200, Note_off_c, 0, 60, 95
2, 67200, Note_off_c, 0, 55, 95
2, 67200, Note_off_c, 0, 48, 95
2, 67200, Note_on_c, 0, 60, 95
2, 67200, Note_on_c, 0, 55, 95
2, 67200, Note_on_c, 0, 48, 95
2, 68160, Note_off_c, 0, 60, 95
2, 68160, Note_off_c, 0, 55, 95
2, 68160, Note_off_c, 0, 48, 95
2, 68160, Note_on_c, 0, 60, 95
2, 68160, Note_on_c, 0, 55, 95
2, 68160, Note_on_c, 0, 48, 95
2, 68640, Note_off_c, 0, 60, 95
2, 68640, Note_off_c, 0, 55, 95
2, 68640, Note_off_c, 0, 48, 95
2, 68640, Note_on_c, 0, 60, 95
2, 68640, Note_on_c, 0, 55, 95
2, 68640, Note_on_c, 0, 48, 95
2, 69120, Note_off_c, 0, 60, 95
2, 69120, Note_off_c, 0, 55, 95
2, 69120, Note_off_c, 0, 48, 95
2, 69120, Note_on_c, 0, 50, 95
2, 69120, Note_on_c, 0, 45, 95
2, 69120, Note_on_c, 0, 40, 95
2, 69199, Note_off_c, 0, 50, 95
2, 69199, Note_off_c, 0, 45, 95
2, 69199, Note_off_c, 0, 40, 95
2, 69600, Note_on_c, 0, 69, 95
2, 69600, Note_on_c, 0, 65, 95
2, 69600, Note_on_c, 0, 60, 95
2, 69600, Note_on_c, 0, 53, 127
2, 70560, Note_off_c, 0, 69, 95
2, 70560, Note_off_c, 0, 65, 95
2, 70560, Note_off_c, 0, 60, 95
2, 70560, Note_off_c, 0, 53, 127
2, 70560, Note_on_c, 0, 69, 95
2, 70560, Note_on_c, 0, 65, 95
2, 70560, Note_on_c, 0, 60, 95
2, 70560, Note_on_c, 0, 53, 127
2, 71520, Note_off_c, 0, 69, 95
2, 71520, Note_off_c, 0, 65, 95
2, 71520, Note_off_c, 0, 60, 95
2, 71520, Note_off_c, 0, 53, 127
2, 71520, Note_on_c, 0, 59, 95
2, 71520, Note_on_c, 0, 55, 95
2, 71520, Note_on_c, 0, 50, 95
2, 71520, Note_on_c, 0, 45, 95
2, 71599, Note_off_c, 0, 59, 95
2, 71599, Note_off_c, 0, 55, 95
2, 71599, Note_off_c, 0, 50, 95
2, 71599, Note_off_c, 0, 45, 95
2, 72000, Note_on_c, 0, 69, 95
2, 72000, Note_on_c, 0, 65, 95
2, 72000, Note_on_c, 0, 60, 95
2, 72000, Note_on_c, 0, 53, 127
2, 72480, Note_off_c, 0, 69, 95
2, 72480, Note_off_c, 0, 65, 95
2, 72480, Note_off_c, 0, 60, 95
2, 72480, Note_off_c, 0, 53, 127
2, 72960, Note_on_c, 0, 69, 95
2, 72960, Note_on_c, 0, 65, 95
2, 72960, Note_on_c, 0, 60, 95
2, 72960, Note_on_c, 0, 53, 127
2, 73920, Note_off_c, 0, 69, 95
2, 73920, Note_off_c, 0, 65, 95
2, 73920, Note_off_c, 0, 60, 95
2, 73920, Note_off_c, 0, 53, 127
2, 73920, Note_on_c, 0, 69, 95
2, 73920, Note_on_c, 0, 65, 95
2, 73920, Note_on_c, 0, 60, 95
2, 73920, Note_on_c, 0, 53, 95
2, 74400, Note_off_c, 0, 69, 95
2, 74400, Note_off_c, 0, 65, 95
2, 74400, Note_off_c, 0, 60, 95
2, 74400, Note_off_c, 0, 53, 95
2, 74400, Note_on_c, 0, 69, 95
2, 74400, Note_on_c, 0, 65, 95
2, 74400, Note_on_c, 0, 60, 95
2, 74400, Note_on_c, 0, 53, 95
2, 75360, Note_off_c, 0, 69, 95
2, 75360, Note_off_c, 0, 65, 95
2, 75360, Note_off_c, 0, 60, 95
2, 75360, Note_off_c, 0, 53, 95
2, 75360, Note_on_c, 0, 59, 95
2, 75360, Note_on_c, 0, 55, 95
2, 75360, Note_on_c, 0, 50, 95
2, 75360, Note_on_c, 0, 45, 95
2, 75439, Note_off_c, 0, 59, 95
2, 75439, Note_off_c, 0, 55, 95
2, 75439, Note_off_c, 0, 50, 95
2, 75439, Note_off_c, 0, 45, 95
2, 75840, Note_on_c, 0, 69, 95
2, 75840, Note_on_c, 0, 65, 95
2, 75840, Note_on_c, 0, 60, 95
2, 75840, Note_on_c, 0, 53, 127
2, 76800, Note_off_c, 0, 69, 95
2, 76800, Note_off_c, 0, 65, 95
2, 76800, Note_off_c, 0, 60, 95
2, 76800, Note_off_c, 0, 53, 127
2, 76800, Note_on_c, 0, 69, 95
2, 76800, Note_on_c, 0, 65, 95
2, 76800, Note_on_c, 0, 60, 95
2, 76800, Note_on_c, 0, 53, 127
2, 77280, Note_off_c, 0, 69, 95
2, 77280, Note_off_c, 0, 65, 95
2, 77280, Note_off_c, 0, 60, 95
2, 77280, Note_off_c, 0, 53, 127
2, 77280, Note_on_c, 0, 69, 47
2, 77280, Note_on_c, 0, 65, 47
2, 77280, Note_on_c, 0, 60, 47
2, 77280, Note_on_c, 0, 53, 47
2, 78240, Note_off_c, 0, 69, 47
2, 78240, Note_off_c, 0, 65, 47
2, 78240, Note_off_c, 0, 60, 47
2, 78240, Note_off_c, 0, 53, 47
2, 78240, Note_on_c, 0, 69, 95
2, 78240, Note_on_c, 0, 65, 95
2, 78240, Note_on_c, 0, 60, 95
2, 78240, Note_on_c, 0, 53, 127
2, 78720, Note_off_c, 0, 69, 95
2, 78720, Note_off_c, 0, 65, 95
2, 78720, Note_off_c, 0, 60, 95
2, 78720, Note_off_c, 0, 53, 127
2, 79200, Note_on_c, 0, 69, 95
2, 79200, Note_on_c, 0, 65, 95
2, 79200, Note_on_c, 0, 60, 95
2, 79200, Note_on_c, 0, 53, 127
2, 79680, Note_off_c, 0, 69, 95
2, 79680, Note_off_c, 0, 65, 95
2, 79680, Note_off_c, 0, 60, 95
2, 79680, Note_off_c, 0, 53, 127
2, 79680, Note_on_c, 0, 69, 95
2, 79680, Note_on_c, 0, 65, 95
2, 79680, Note_on_c, 0, 60, 95
2, 79680, Note_on_c, 0, 53, 127
2, 80160, Note_off_c, 0, 69, 95
2, 80160, Note_off_c, 0, 65, 95
2, 80160, Note_off_c, 0, 60, 95
2, 80160, Note_off_c, 0, 53, 127
2, 80640, Note_on_c, 0, 69, 95
2, 80640, Note_on_c, 0, 65, 95
2, 80640, Note_on_c, 0, 60, 95
2, 80640, Note_on_c, 0, 53, 127
2, 81120, Note_off_c, 0, 69, 95
2, 81120, Note_off_c, 0, 65, 95
2, 81120, Note_off_c, 0, 60, 95
2, 81120, Note_off_c, 0, 53, 127
2, 81600, Note_on_c, 0, 69, 95
2, 81600, Note_on_c, 0, 65, 95
2, 81600, Note_on_c, 0, 60, 95
2, 81600, Note_on_c, 0, 53, 127
2, 82080, Note_off_c, 0, 69, 95
2, 82080, Note_off_c, 0, 65, 95
2, 82080, Note_off_c, 0, 60, 95
2, 82080, Note_off_c, 0, 53, 127
2, 82560, Note_on_c, 0, 69, 95
2, 82560, Note_on_c, 0, 65, 95
2, 82560, Note_on_c, 0, 60, 95
2, 82560, Note_on_c, 0, 53, 127
2, 83040, Note_off_c, 0, 69, 95
2, 83040, Note_off_c, 0, 65, 95
2, 83040, Note_off_c, 0, 60, 95
2, 83040, Note_off_c, 0, 53, 127
2, 83040, Note_on_c, 0, 69, 95
2, 83040, Note_on_c, 0, 65, 95
2, 83040, Note_on_c, 0, 60, 95
2, 83040, Note_on_c, 0, 53, 127
2, 84000, Note_off_c, 0, 69, 95
2, 84000, Note_off_c, 0, 65, 95
2, 84000, Note_off_c, 0, 60, 95
2, 84000, Note_off_c, 0, 53, 127
2, 84480, Note_on_c, 0, 62, 95
2, 84480, Note_on_c, 0, 58, 95
2, 84480, Note_on_c, 0, 53, 95
2, 84480, Note_on_c, 0, 46, 95
2, 84720, Note_off_c, 0, 62, 95
2, 84720, Note_off_c, 0, 58, 95
2, 84720, Note_off_c, 0, 53, 95
2, 84720, Note_off_c, 0, 46, 95
2, 84720, Note_on_c, 0, 62, 95
2, 84720, Note_on_c, 0, 58, 95
2, 84720, Note_on_c, 0, 53, 95
2, 84720, Note_on_c, 0, 46, 95
2, 84960, Note_off_c, 0, 62, 95
2, 84960, Note_off_c, 0, 58, 95
2, 84960, Note_off_c, 0, 53, 95
2, 84960, Note_off_c, 0, 46, 95
2, 84960, Note_on_c, 0, 62, 95
2, 84960, Note_on_c, 0, 58, 95
2, 84960, Note_on_c, 0, 53, 95
2, 84960, Note_on_c, 0, 46, 127
2, 86880, Note_off_c, 0, 62, 95
2, 86880, Note_off_c, 0, 58, 95
2, 86880, Note_off_c, 0, 53, 95
2, 86880, Note_off_c, 0, 46, 127
2, 88320, Note_on_c, 0, 59, 95
2, 88320, Note_on_c, 0, 55, 95
2, 88320, Note_on_c, 0, 50, 95
2, 88320, Note_on_c, 0, 43, 95
2, 88800, Note_off_c, 0, 59, 95
2, 88800, Note_off_c, 0, 55, 95
2, 88800, Note_off_c, 0, 50, 95
2, 88800, Note_off_c, 0, 43, 95
2, 88800, Note_on_c, 0, 59, 47
2, 88800, Note_on_c, 0, 55, 47
2, 88800, Note_on_c, 0, 50, 47
2, 88800, Note_on_c, 0, 43, 79
2, 90720, Note_off_c, 0, 59, 47
2, 90720, Note_off_c, 0, 55, 47
2, 90720, Note_off_c, 0, 50, 47
2, 90720, Note_off_c, 0, 43, 79
2, 92160, Note_on_c, 0, 59, 95
2, 92160, Note_on_c, 0, 54, 95
2, 92160, Note_on_c, 0, 47, 95
2, 92640, Note_off_c, 0, 59, 95
2, 92640, Note_off_c, 0, 54, 95
2, 92640, Note_off_c, 0, 47, 95
2, 92640, Note_on_c, 1, 59, 95
2, 92640, Note_on_c, 1, 54, 95
2, 92640, Note_on_c, 1, 47, 127
2, 92760, Pitch_bend_c, 1, 8320
2, 92760, Pitch_bend_c, 1, 8320
2, 92760, Pitch_bend_c, 1, 8320
2, 92880, Pitch_bend_c, 1, 8448
2, 92880, Pitch_bend_c, 1, 8448
2, 92880, Pitch_bend_c, 1, 8448
2, 93000, Pitch_bend_c, 1, 8704
2, 93000, Pitch_bend_c, 1, 8704
2, 93000, Pitch_bend_c, 1, 8704
2, 93120, Pitch_bend_c, 1, 8832
2, 93120, Pitch_bend_c, 1, 8192
2, 93120, Note_off_c, 1, 59, 95
2, 93120, Pitch_bend_c, 1, 8832
2, 93120, Pitch_bend_c, 1, 8192
2, 93120, Note_off_c, 1, 54, 95
2, 93120, Pitch_bend_c, 1, 8832
2, 93120, Pitch_bend_c, 1, 8192
2, 93120, Note_off_c, 1, 47, 127
2, 93120, Note_on_c, 0, 60, 95
2, 93120, Note_on_c, 0, 55, 95
2, 93120, Note_on_c, 0, 48, 95
2, 93600, Note_off_c, 0, 60, 95
2, 93600, Note_off_c, 0, 55, 95
2, 93600, Note_off_c, 0, 48, 95
2, 93600, Note_on_c, 0, 60, 95
2, 93600, Note_on_c, 0, 55, 95
2, 93600, Note_on_c, 0, 48, 95
2, 94080, Note_off_c, 0, 60, 95
2, 94080, Note_off_c, 0, 55, 95
2, 94080, Note_off_c, 0, 48, 95
2, 94080, Note_on_c, 0, 60, 95
2, 94080, Note_on_c, 0, 55, 95
2, 94080, Note_on_c, 0, 48, 95
2, 94560, Note_off_c, 0, 60, 95
2, 94560, Note_off_c, 0, 55, 95
2, 94560, Note_off_c, 0, 48, 95
2, 94560, Note_on_c, 1, 59, 95
2, 94560, Note_on_c, 1, 54, 95
2, 94560, Note_on_c, 1, 47, 127
2, 94680, Pitch_bend_c, 1, 8320
2, 94680, Pitch_bend_c, 1, 8320
2, 94680, Pitch_bend_c, 1, 8320
2, 94800, Pitch_bend_c, 1, 8448
2, 94800, Pitch_bend_c, 1, 8448
2, 94800, Pitch_bend_c, 1, 8448
2, 94920, Pitch_bend_c, 1, 8704
2, 94920, Pitch_bend_c, 1, 8704
2, 94920, Pitch_bend_c, 1, 8704
2, 95040, Pitch_bend_c, 1, 8832
2, 95040, Pitch_bend_c, 1, 8192
2, 95040, Note_off_c, 1, 59, 95
2, 95040, Pitch_bend_c, 1, 8832
2, 95040, Pitch_bend_c, 1, 8192
2, 95040, Note_off_c, 1, 54, 95
2, 95040, Pitch_bend_c, 1, 8832
2, 95040, Pitch_bend_c, 1, 8192
2, 95040, Note_off_c, 1, 47, 127
2, 95040, Note_on_c, 0, 60, 95
2, 95040, Note_on_c, 0, 55, 95
2, 95040, Note_on_c, 0, 48, 95
2, 95520, Note_off_c, 0, 60, 95
2, 95520, Note_off_c, 0, 55, 95
2, 95520, Note_off_c, 0, 48, 95
2, 95520, Note_on_c, 0, 60, 95
2, 95520, Note_on_c, 0, 55, 95
2, 95520, Note_on_c, 0, 48, 95
2, 96000, Note_off_c, 0, 60, 95
2, 96000, Note_off_c, 0, 55, 95
2, 96000, Note_off_c, 0, 48, 95
2, 96000, Note_on_c, 0, 60, 95
2, 96000, Note_on_c, 0, 55, 95
2, 96000, Note_on_c, 0, 48, 95
2, 96480, Note_off_c, 0, 60, 95
2, 96480, Note_off_c, 0, 55, 95
2, 96480, Note_off_c, 0, 48, 95
2, 96480, Note_on_c, 1, 59, 95
2, 96480, Note_on_c, 1, 54, 95
2, 96480, Note_on_c, 1, 47, 127
2, 96600, Pitch_bend_c, 1, 8320
2, 96600, Pitch_bend_c, 1, 8320
2, 96600, Pitch_bend_c, 1, 8320
2, 96720, Pitch_bend_c, 1, 8448
2, 96720, Pitch_bend_c, 1, 8448
2, 96720, Pitch_bend_c, 1, 8448
2, 96840, Pitch_bend_c, 1, 8704
2, 96840, Pitch_bend_c, 1, 8704
2, 96840, Pitch_bend_c, 1, 8704
2, 96960, Pitch_bend_c, 1, 8832
2, 96960, Pitch_bend_c, 1, 8192
2, 96960, Note_off_c, 1, 59, 95
2, 96960, Pitch_bend_c, 1, 8832
2, 96960, Pitch_bend_c, 1, 8192
2, 96960, Note_off_c, 1, 54, 95
2, 96960, Pitch_bend_c, 1, 8832
2, 96960, Pitch_bend_c, 1, 8192
2, 96960, Note_off_c, 1, 47, 127
2, 96960, Note_on_c, 0, 60, 95
2, 96960, Note_on_c, 0, 55, 95
2, 96960, Note_on_c, 0, 48, 95
2, 97440, Note_off_c, 0, 60, 95
2, 97440, Note_off_c, 0, 55, 95
2, 97440, Note_off_c, 0, 48, 95
2, 97440, Note_on_c, 0, 60, 95
2, 97440, Note_on_c, 0, 55, 95
2, 97440, Note_on_c, 0, 48, 95
2, 97920, Note_off_c, 0, 60, 95
2, 97920, Note_off_c, 0, 55, 95
2, 97920, Note_off_c, 0, 48, 95
2, 97920, Note_on_c, 0, 60, 95
2, 97920, Note_on_c, 0, 55, 95
2, 97920, Note_on_c, 0, 48, 95
2, 98880, Note_off_c, 0, 60, 95
2, 98880, Note_off_c, 0, 55, 95
2, 98880, Note_off_c, 0, 48, 95
2, 98880, Note_on_c, 0, 60, 95
2, 98880, Note_on_c, 0, 55, 95
2, 98880, Note_on_c, 0, 48, 95
2, 99360, Note_off_c, 0, 60, 95
2, 99360, Note_off_c, 0, 55, 95
2, 99360, Note_off_c, 0, 48, 95
2, 99360, Note_on_c, 0, 60, 95
2, 99360, Note_on_c, 0, 55, 95
2, 99360, Note_on_c, 0, 48, 95
2, 99840, Note_off_c, 0, 60, 95
2, 99840, Note_off_c, 0, 55, 95
2, 99840, Note_off_c, 0, 48, 95
2, 99840, Note_on_c, 0, 50, 95
2, 99840, Note_on_c, 0, 45, 95
2, 99840, Note_on_c, 0, 40, 95
2, 99919, Note_off_c, 0, 50, 95
2, 99919, Note_off_c, 0, 45, 95
2, 99919, Note_off_c, 0, 40, 95
2, 100320, Note_on_c, 0, 53, 95
2, 100320, Note_on_c, 0, 46, 127
2, 100800, Note_off_c, 0, 53, 95
2, 100800, Note_off_c, 0, 46, 127
2, 100800, Note_on_c, 0, 53, 95
2, 100800, Note_on_c, 0, 46, 95
2, 101280, Note_off_c, 0, 53, 95
2, 101280, Note_off_c, 0, 46, 95
2, 101280, Note_on_c, 0, 55, 95
2, 101280, Note_on_c, 0, 46, 127
2, 101760, Note_off_c, 0, 55, 95
2, 101760, Note_off_c, 0, 46, 127
2, 101760, Note_on_c, 0, 53, 95
2, 101760, Note_on_c, 0, 46, 95
2, 102240, Note_off_c, 0, 53, 95
2, 102240, Note_off_c, 0, 46, 95
2, 102240, Note_on_c, 0, 53, 95
2, 102240, Note_on_c, 0, 46, 127
2, 102720, Note_off_c, 0, 53, 95
2, 102720, Note_off_c, 0, 46, 127
2, 102720, Note_on_c, 0, 53, 95
2, 102720, Note_on_c, 0, 46, 95
2, 103200, Note_off_c, 0, 53, 95
2, 103200, Note_off_c, 0, 46, 95
2, 103200, Note_on_c, 0, 55, 95
2, 103200, Note_on_c, 0, 46, 95
2, 103680, Note_off_c, 0, 55, 95
2, 103680, Note_off_c, 0, 46, 95
2, 103680, Note_on_c, 0, 55, 95
2, 103680, Note_on_c, 0, 48, 127
2, 104640, Note_off_c, 0, 55, 95
2, 104640, Note_off_c, 0, 48, 127
2, 104640, Note_on_c, 0, 55, 95
2, 104640, Note_on_c, 0, 48, 95
2, 105120, Note_off_c, 0, 55, 95
2, 105120, Note_off_c, 0, 48, 95
2, 105120, Note_on_c, 0, 57, 95
2, 105120, Note_on_c, 0, 48, 127
2, 105600, Note_off_c, 0, 57, 95
2, 105600, Note_off_c, 0, 48, 127
2, 105600, Note_on_c, 0, 55, 95
2, 105600, Note_on_c, 0, 48, 95
2, 106080, Note_off_c, 0, 55, 95
2, 106080, Note_off_c, 0, 48, 95
2, 106080, Note_on_c, 0, 55, 95
2, 106080, Note_on_c, 0, 48, 127
2, 106560, Note_off_c, 0, 55, 95
2, 106560, Note_off_c, 0, 48, 127
2, 106560, Note_on_c, 0, 55, 95
2, 106560, Note_on_c, 0, 48, 95
2, 107040, Note_off_c, 0, 55, 95
2, 107040, Note_off_c, 0, 48, 95
2, 107040, Note_on_c, 0, 57, 95
2, 107040, Note_on_c, 0, 48, 127
2, 107520, Note_off_c, 0, 57, 95
2, 107520, Note_off_c, 0, 48, 127
2, 107520, Note_on_c, 0, 55, 95
2, 107520, Note_on_c, 0, 48, 95
2, 108000, Note_off_c, 0, 55, 95
2, 108000, Note_off_c, 0, 48, 95
2, 108000, Note_on_c, 0, 53, 95
2, 108000, Note_on_c, 0, 46, 127
2, 108480, Note_off_c, 0, 53, 95
2, 108480, Note_off_c, 0, 46, 127
2, 108480, Note_on_c, 0, 53, 95
2, 108480, Note_on_c, 0, 46, 95
2, 108960, Note_off_c, 0, 53, 95
2, 108960, Note_off_c, 0, 46, 95
2, 108960, Note_on_c, 0, 55, 95
2, 108960, Note_on_c, 0, 46, 127
2, 109440, Note_off_c, 0, 55, 95
2, 109440, Note_off_c, 0, 46, 127
2, 109440, Note_on_c, 0, 53, 95
2, 109440, Note_on_c, 0, 46, 95
2, 109920, Note_off_c, 0, 53, 95
2, 109920, Note_off_c, 0, 46, 95
2, 109920, Note_on_c, 0, 53, 95
2, 109920, Note_on_c, 0, 46, 127
2, 110400, Note_off_c, 0, 53, 95
2, 110400, Note_off_c, 0, 46, 127
2, 110400, Note_on_c, 0, 53, 95
2, 110400, Note_on_c, 0, 46, 95
2, 110880, Note_off_c, 0, 53, 95
2, 110880, Note_off_c, 0, 46, 95
2, 110880, Note_on_c, 0, 55, 95
2, 110880, Note_on_c, 0, 46, 95
2, 111360, Note_off_c, 0, 55, 95
2, 111360, Note_off_c, 0, 46, 95
2, 111360, Note_on_c, 0, 55, 95
2, 111360, Note_on_c, 0, 48, 127
2, 112320, Note_off_c, 0, 55, 95
2, 112320, Note_off_c, 0, 48, 127
2, 112320, Note_on_c, 0, 55, 95
2, 112320, Note_on_c, 0, 48, 95
2, 112800, Note_off_c, 0, 55, 95
2, 112800, Note_off_c, 0, 48, 95
2, 112800, Note_on_c, 0, 57, 95
2, 112800, Note_on_c, 0, 48, 127
2, 113280, Note_off_c, 0, 57, 95
2, 113280, Note_off_c, 0, 48, 127
2, 113280, Note_on_c, 0, 55, 95
2, 113280, Note_on_c, 0, 48, 95
2, 113760, Note_off_c, 0, 55, 95
2, 113760, Note_off_c, 0, 48, 95
2, 113760, Note_on_c, 0, 55, 95
2, 113760, Note_on_c, 0, 48, 127
2, 114240, Note_off_c, 0, 55, 95
2, 114240, Note_off_c, 0, 48, 127
2, 114240, Note_on_c, 0, 55, 95
2, 114240, Note_on_c, 0, 48, 95
2, 114720, Note_off_c, 0, 55, 95
2, 114720, Note_off_c, 0, 48, 95
2, 114720, Note_on_c, 0, 57, 95
2, 114720, Note_on_c, 0, 48, 127
2, 115200, Note_off_c, 0, 57, 95
2, 115200, Note_off_c, 0, 48, 127
2, 115200, Note_on_c, 0, 55, 95
2, 115200, Note_on_c, 0, 48, 95
2, 115680, Note_off_c, 0, 55, 95
2, 115680, Note_off_c, 0, 48, 95
2, 115680, Note_on_c, 0, 53, 95
2, 115680, Note_on_c, 0, 46, 127
2, 116160, Note_off_c, 0, 53, 95
2, 116160, Note_off_c, 0, 46, 127
2, 116160, Note_on_c, 0, 53, 95
2, 116160, Note_on_c, 0, 46, 95
2, 116640, Note_off_c, 0, 53, 95
2, 116640, Note_off_c, 0, 46, 95
2, 116640, Note_on_c, 0, 55, 95
2, 116640, Note_on_c, 0, 46, 127
2, 117120, Note_off_c, 0, 55, 95
2, 117120, Note_off_c, 0, 46, 127
2, 117120, Note_on_c, 0, 53, 95
2, 117120, Note_on_c, 0, 46, 95
2, 117600, Note_off_c, 0, 53, 95
2, 117600, Note_off_c, 0, 46, 95
2, 117600, Note_on_c, 0, 53, 95
2, 117600, Note_on_c, 0, 46, 127
2, 118080, Note_off_c, 0, 53, 95
2, 118080, Note_off_c, 0, 46, 127
2, 118080, Note_on_c, 0, 53, 95
2, 118080, Note_on_c, 0, 46, 95
2, 118560, Note_off_c, 0, 53, 95
2, 118560, Note_off_c, 0, 46, 95
2, 118560, Note_on_c, 0, 55, 95
2, 118560, Note_on_c, 0, 46, 95
2, 119040, Note_off_c, 0, 55, 95
2, 119040, Note_off_c, 0, 46, 95
2, 119040, Note_on_c, 0, 55, 95
2, 119040, Note_on_c, 0, 48, 127
2, 120000, Note_off_c, 0, 55, 95
2, 120000, Note_off_c, 0, 48, 127
2, 120000, Note_on_c, 0, 55, 95
2, 120000, Note_on_c, 0, 48, 95
2, 120480, Note_off_c, 0, 55, 95
2, 120480, Note_off_c, 0, 48, 95
2, 120480, Note_on_c, 0, 57, 95
2, 120480, Note_on_c, 0, 48, 127
2, 120960, Note_off_c, 0, 57, 95
2, 120960, Note_off_c, 0, 48, 127
2, 120960, Note_on_c, 0, 55, 95
2, 120960, Note_on_c, 0, 48, 95
2, 121440, Note_off_c, 0, 55, 95
2, 121440, Note_off_c, 0, 48, 95
2, 121440, Note_on_c, 0, 55, 95
2, 121440, Note_on_c, 0, 48, 127
2, 121920, Note_off_c, 0, 55, 95
2, 121920, Note_off_c, 0, 48, 127
2, 121920, Note_on_c, 0, 55, 95
2, 121920, Note_on_c, 0, 48, 95
2, 122400, Note_off_c, 0, 55, 95
2, 122400, Note_off_c, 0, 48, 95
2, 122400, Note_on_c, 0, 57, 95
2, 122400, Note_on_c, 0, 48, 127
2, 122880, Note_off_c, 0, 57, 95
2, 122880, Note_off_c, 0, 48, 127
2, 122880, Note_on_c, 0, 55, 95
2, 122880, Note_on_c, 0, 48, 95
2, 123360, Note_off_c, 0, 55, 95
2, 123360, Note_off_c, 0, 48, 95
2, 123360, Note_on_c, 0, 69, 95
2, 123360, Note_on_c, 0, 65, 95
2, 123360, Note_on_c, 0, 60, 95
2, 123360, Note_on_c, 0, 53, 127
2, 124320, Note_off_c, 0, 69, 95
2, 124320, Note_off_c, 0, 65, 95
2, 124320, Note_off_c, 0, 60, 95
2, 124320, Note_off_c, 0, 53, 127
2, 124320, Note_on_c, 0, 69, 95
2, 124320, Note_on_c, 0, 65, 95
2, 124320, Note_on_c, 0, 60, 95
2, 124320, Note_on_c, 0, 53, 95
2, 124800, Note_off_c, 0, 69, 95
2, 124800, Note_off_c, 0, 65, 95
2, 124800, Note_off_c, 0, 60, 95
2, 124800, Note_off_c, 0, 53, 95
2, 124800, Note_on_c, 0, 69, 95
2, 124800, Note_on_c, 0, 65, 95
2, 124800, Note_on_c, 0, 60, 95
2, 124800, Note_on_c, 0, 53, 95
2, 125280, Note_off_c, 0, 69, 95
2, 125280, Note_off_c, 0, 65, 95
2, 125280, Note_off_c, 0, 60, 95
2, 125280, Note_off_c, 0, 53, 95
2, 125280, Note_on_c, 0, 69, 95
2, 125280, Note_on_c, 0, 65, 95
2, 125280, Note_on_c, 0, 60, 95
2, 125280, Note_on_c, 0, 53, 127
2, 126240, Note_off_c, 0, 69, 95
2, 126240, Note_off_c, 0, 65, 95
2, 126240, Note_off_c, 0, 60, 95
2, 126240, Note_off_c, 0, 53, 127
2, 126240, Note_on_c, 0, 69, 95
2, 126240, Note_on_c, 0, 65, 95
2, 126240, Note_on_c, 0, 60, 95
2, 126240, Note_on_c, 0, 53, 95
2, 126720, Note_off_c, 0, 69, 95
2, 126720, Note_off_c, 0, 65, 95
2, 126720, Note_off_c, 0, 60, 95
2, 126720, Note_off_c, 0, 53, 95
2, 126720, Note_on_c, 0, 69, 95
2, 126720, Note_on_c, 0, 65, 95
2, 126720, Note_on_c, 0, 60, 95
2, 126720, Note_on_c, 0, 53, 127
2, 127200, Note_off_c, 0, 69, 95
2, 127200, Note_off_c, 0, 65, 95
2, 127200, Note_off_c, 0, 60, 95
2, 127200, Note_off_c, 0, 53, 127
2, 127200, Note_on_c, 0, 69, 47
2, 127200, Note_on_c, 0, 65, 47
2, 127200, Note_on_c, 0, 60, 47
2, 127200, Note_on_c, 0, 53, 47
2, 127680, Note_off_c, 0, 69, 47
2, 127680, Note_off_c, 0, 65, 47
2, 127680, Note_off_c, 0, 60, 47
2, 127680, Note_off_c, 0, 53, 47
2, 127680, Note_on_c, 0, 69, 95
2, 127680, Note_on_c, 0, 65, 95
2, 127680, Note_on_c, 0, 60, 95
2, 127680, Note_on_c, 0, 53, 95
2, 128160, Note_off_c, 0, 69, 95
2, 128160, Note_off_c, 0, 65, 95
2, 128160, Note_off_c, 0, 60, 95
2, 128160, Note_off_c, 0, 53, 95
2, 128160, Note_on_c, 0, 69, 95
2, 128160, Note_on_c, 0, 65, 95
2, 128160, Note_on_c, 0, 60, 95
2, 128160, Note_on_c, 0, 53, 95
2, 128640, Note_off_c, 0, 69, 95
2, 128640, Note_off_c, 0, 65, 95
2, 128640, Note_off_c, 0, 60, 95
2, 128640, Note_off_c, 0, 53, 95
2, 128640, Note_on_c, 0, 69, 95
2, 128640, Note_on_c, 0, 65, 95
2, 128640, Note_on_c, 0, 60, 95
2, 128640, Note_on_c, 0, 53, 95
2, 129120, Note_off_c, 0, 69, 95
2, 129120, Note_off_c, 0, 65, 95
2, 129120, Note_off_c, 0, 60, 95
2, 129120, Note_off_c, 0, 53, 95
2, 129120, Note_on_c, 0, 69, 95
2, 129120, Note_on_c, 0, 65, 95
2, 129120, Note_on_c, 0, 60, 95
2, 129120, Note_on_c, 0, 53, 127
2, 130080, Note_off_c, 0, 69, 95
2, 130080, Note_off_c, 0, 65, 95
2, 130080, Note_off_c, 0, 60, 95
2, 130080, Note_off_c, 0, 53, 127
2, 130080, Note_on_c, 0, 69, 95
2, 130080, Note_on_c, 0, 65, 95
2, 130080, Note_on_c, 0, 60, 95
2, 130080, Note_on_c, 0, 53, 127
2, 130560, Note_off_c, 0, 69, 95
2, 130560, Note_off_c, 0, 65, 95
2, 130560, Note_off_c, 0, 60, 95
2, 130560, Note_off_c, 0, 53, 127
2, 130560, Note_on_c, 0, 69, 95
2, 130560, Note_on_c, 0, 65, 95
2, 130560, Note_on_c, 0, 60, 95
2, 130560, Note_on_c, 0, 53, 127
2, 131040, Note_off_c, 0, 69, 95
2, 131040, Note_off_c, 0, 65, 95
2, 131040, Note_off_c, 0, 60, 95
2, 131040, Note_off_c, 0, 53, 127
2, 131040, Note_on_c, 0, 69, 95
2, 131040, Note_on_c, 0, 65, 95
2, 131040, Note_on_c, 0, 60, 95
2, 131040, Note_on_c, 0, 53, 127
2, 132000, Note_off_c, 0, 69, 95
2, 132000, Note_off_c, 0, 65, 95
2, 132000, Note_off_c, 0, 60, 95
2, 132000, Note_off_c, 0, 53, 127
2, 132000, Note_on_c, 0, 59, 95
2, 132000, Note_on_c, 0, 55, 95
2, 132000, Note_on_c, 0, 50, 95
2, 132000, Note_on_c, 0, 45, 95
2, 132079, Note_off_c, 0, 59, 95
2, 132079, Note_off_c, 0, 55, 95
2, 132079, Note_off_c, 0, 50, 95
2, 132079, Note_off_c, 0, 45, 95
2, 132480, Note_on_c, 0, 62, 95
2, 132480, Note_on_c, 0, 58, 95
2, 132480, Note_on_c, 0, 53, 95
2, 132480, Note_on_c, 0, 46, 127
2, 132960, Note_off_c, 0, 62, 95
2, 132960, Note_off_c, 0, 58, 95
2, 132960, Note_off_c, 0, 53, 95
2, 132960, Note_off_c, 0, 46, 127
2, 132960, Note_on_c, 0, 62, 95
2, 132960, Note_on_c, 0, 58, 95
2, 132960, Note_on_c, 0, 53, 95
2, 132960, Note_on_c, 0, 46, 95
2, 133920, Note_off_c, 0, 62, 95
2, 133920, Note_off_c, 0, 58, 95
2, 133920, Note_off_c, 0, 53, 95
2, 133920, Note_off_c, 0, 46, 95
2, 133920, Note_on_c, 0, 58, 95
2, 133920, Note_on_c, 0, 53, 95
2, 133920, Note_on_c, 0, 46, 95
2, 134400, Note_off_c, 0, 58, 95
2, 134400, Note_off_c, 0, 53, 95
2, 134400, Note_off_c, 0, 46, 95
2, 134400, Note_on_c, 0, 53, 95
2, 134400, Note_on_c, 0, 48, 95
2, 134400, Note_on_c, 0, 41, 95
2, 134880, Note_off_c, 0, 53, 95
2, 134880, Note_off_c, 0, 48, 95
2, 134880, Note_off_c, 0, 41, 95
2, 134880, Note_on_c, 0, 53, 95
2, 134880, Note_on_c, 0, 48, 95
2, 134880, Note_on_c, 0, 41, 127
2, 135360, Note_off_c, 0, 53, 95
2, 135360, Note_off_c, 0, 48, 95
2, 135360, Note_off_c, 0, 41, 127
2, 135360, Note_on_c, 0, 53, 95
2, 135360, Note_on_c, 0, 48, 95
2, 135360, Note_on_c, 0, 41, 95
2, 135840, Note_off_c, 0, 53, 95
2, 135840, Note_off_c, 0, 48, 95
2, 135840, Note_off_c, 0, 41, 95
2, 135840, Note_on_c, 0, 53, 95
2, 135840, Note_on_c, 0, 48, 95
2, 135840, Note_on_c, 0, 41, 95
2, 136320, Note_off_c, 0, 53, 95
2, 136320, Note_off_c, 0, 48, 95
2, 136320, Note_off_c, 0, 41, 95
2, 136320, Note_on_c, 0, 53, 95
2, 136320, Note_on_c, 0, 48, 95
2, 136320, Note_on_c, 0, 41, 127
2, 137280, Note_off_c, 0, 53, 95
2, 137280, Note_off_c, 0, 48, 95
2, 137280, Note_off_c, 0, 41, 127
2, 137280, Note_on_c, 0, 53, 95
2, 137280, Note_on_c, 0, 48, 95
2, 137280, Note_on_c, 0, 41, 95
2, 137760, Note_off_c, 0, 53, 95
2, 137760, Note_off_c, 0, 48, 95
2, 137760, Note_off_c, 0, 41, 95
2, 137760, Note_on_c, 0, 53, 95
2, 137760, Note_on_c, 0, 48, 95
2, 137760, Note_on_c, 0, 41, 95
2, 138240, Note_off_c, 0, 53, 95
2, 138240, Note_off_c, 0, 48, 95
2, 138240, Note_off_c, 0, 41, 95
2, 138240, Note_on_c, 0, 50, 95
2, 138240, Note_on_c, 0, 45, 95
2, 138240, Note_on_c, 0, 40, 95
2, 138319, Note_off_c, 0, 50, 95
2, 138319, Note_off_c, 0, 45, 95
2, 138319, Note_off_c, 0, 40, 95
2, 138720, Note_on_c, 0, 69, 95
2, 138720, Note_on_c, 0, 65, 95
2, 138720, Note_on_c, 0, 60, 95
2, 138720, Note_on_c, 0, 53, 127
2, 139680, Note_off_c, 0, 69, 95
2, 139680, Note_off_c, 0, 65, 95
2, 139680, Note_off_c, 0, 60, 95
2, 139680, Note_off_c, 0, 53, 127
2, 139680, Note_on_c, 0, 69, 95
2, 139680, Note_on_c, 0, 65, 95
2, 139680, Note_on_c, 0, 60, 95
2, 139680, Note_on_c, 0, 53, 127
2, 140640, Note_off_c, 0, 69, 95
2, 140640, Note_off_c, 0, 65, 95
2, 140640, Note_off_c, 0, 60, 95
2, 140640, Note_off_c, 0, 53, 127
2, 140640, Note_on_c, 0, 59, 95
2, 140640, Note_on_c, 0, 55, 95
2, 140640, Note_on_c, 0, 50, 95
2, 140640, Note_on_c, 0, 45, 95
2, 140719, Note_off_c, 0, 59, 95
2, 140719, Note_off_c, 0, 55, 95
2, 140719, Note_off_c, 0, 50, 95
2, 140719, Note_off_c, 0, 45, 95
2, 141120, Note_on_c, 0, 69, 95
2, 141120, Note_on_c, 0, 65, 95
2, 141120, Note_on_c, 0, 60, 95
2, 141120, Note_on_c, 0, 53, 127
2, 141600, Note_off_c, 0, 69, 95
2, 141600, Note_off_c, 0, 65, 95
2, 141600, Note_off_c, 0, 60, 95
2, 141600, Note_off_c, 0, 53, 127
2, 142080, Note_on_c, 0, 69, 95
2, 142080, Note_on_c, 0, 65, 95
2, 142080, Note_on_c, 0, 60, 95
2, 142080, Note_on_c, 0, 53, 127
2, 143040, Note_off_c, 0, 69, 95
2, 143040, Note_off_c, 0, 65, 95
2, 143040, Note_off_c, 0, 60, 95
2, 143040, Note_off_c, 0, 53, 127
2, 143040, Note_on_c, 0, 69, 95
2, 143040, Note_on_c, 0, 65, 95
2, 143040, Note_on_c, 0, 60, 95
2, 143040, Note_on_c, 0, 53, 95
2, 143520, Note_off_c, 0, 69, 95
2, 143520, Note_off_c, 0, 65, 95
2, 143520, Note_off_c, 0, 60, 95
2, 143520, Note_off_c, 0, 53, 95
2, 143520, Note_on_c, 0, 69, 95
2, 143520, Note_on_c, 0, 65, 95
2, 143520, Note_on_c, 0, 60, 95
2, 143520, Note_on_c, 0, 53, 95
2, 144480, Note_off_c, 0, 69, 95
2, 144480, Note_off_c, 0, 65, 95
2, 144480, Note_off_c, 0, 60, 95
2, 144480, Note_off_c, 0, 53, 95
2, 144480, Note_on_c, 0, 59, 95
2, 144480, Note_on_c, 0, 55, 95
2, 144480, Note_on_c, 0, 50, 95
2, 144480, Note_on_c, 0, 45, 95
2, 144559, Note_off_c, 0, 59, 95
2, 144559, Note_off_c, 0, 55, 95
2, 144559, Note_off_c, 0, 50, 95
2, 144559, Note_off_c, 0, 45, 95
2, 144960, Note_on_c, 0, 69, 95
2, 144960, Note_on_c, 0, 65, 95
2, 144960, Note_on_c, 0, 60, 95
2, 144960, Note_on_c, 0, 53, 127
2, 145920, Note_off_c, 0, 69, 95
2, 145920, Note_off_c, 0, 65, 95
2, 145920, Note_off_c, 0, 60, 95
2, 145920, Note_off_c, 0, 53, 127
2, 145920, Note_on_c, 0, 69, 95
2, 145920, Note_on_c, 0, 65, 95
2, 145920, Note_on_c, 0, 60, 95
2, 145920, Note_on_c, 0, 53, 127
2, 146400, Note_off_c, 0, 69, 95
2, 146400, Note_off_c, 0, 65, 95
2, 146400, Note_off_c, 0, 60, 95
2, 146400, Note_off_c, 0, 53, 127
2, 146400, Note_on_c, 0, 69, 47
2, 146400, Note_on_c, 0, 65, 47
2, 146400, Note_on_c, 0, 60, 47
2, 146400, Note_on_c, 0, 53, 47
2, 147360, Note_off_c, 0, 69, 47
2, 147360, Note_off_c, 0, 65, 47
2, 147360, Note_off_c, 0, 60, 47
2, 147360, Note_off_c, 0, 53, 47
2, 147360, Note_on_c, 0, 69, 95
2, 147360, Note_on_c, 0, 65, 95
2, 147360, Note_on_c, 0, 60, 95
2, 147360, Note_on_c, 0, 53, 127
2, 147840, Note_off_c, 0, 69, 95
2, 147840, Note_off_c, 0, 65, 95
2, 147840, Note_off_c, 0, 60, 95
2, 147840, Note_off_c, 0, 53, 127
2, 148320, Note_on_c, 0, 69, 95
2, 148320, Note_on_c, 0, 65, 95
2, 148320, Note_on_c, 0, 60, 95
2, 148320, Note_on_c, 0, 53, 127
2, 148800, Note_off_c, 0, 69, 95
2, 148800, Note_off_c, 0, 65, 95
2, 148800, Note_off_c, 0, 60, 95
2, 148800, Note_off_c, 0, 53, 127
2, 148800, Note_on_c, 0, 69, 95
2, 148800, Note_on_c, 0, 65, 95
2, 148800, Note_on_c, 0, 60, 95
2, 148800, Note_on_c, 0, 53, 127
2, 149280, Note_off_c, 0, 69, 95
2, 149280, Note_off_c, 0, 65, 95
2, 149280, Note_off_c, 0, 60, 95
2, 149280, Note_off_c, 0, 53, 127
2, 149760, Note_on_c, 0, 69, 95
2, 149760, Note_on_c, 0, 65, 95
2, 149760, Note_on_c, 0, 60, 95
2, 149760, Note_on_c, 0, 53, 127
2, 150240, Note_off_c, 0, 69, 95
2, 150240, Note_off_c, 0, 65, 95
2, 150240, Note_off_c, 0, 60, 95
2, 150240, Note_off_c, 0, 53, 127
2, 150720, Note_on_c, 0, 69, 95
2, 150720, Note_on_c, 0, 65, 95
2, 150720, Note_on_c, 0, 60, 95
2, 150720, Note_on_c, 0, 53, 127
2, 151200, Note_off_c, 0, 69, 95
2, 151200, Note_off_c, 0, 65, 95
2, 151200, Note_off_c, 0, 60, 95
2, 151200, Note_off_c, 0, 53, 127
2, 151680, Note_on_c, 0, 69, 95
2, 151680, Note_on_c, 0, 65, 95
2, 151680, Note_on_c, 0, 60, 95
2, 151680, Note_on_c, 0, 53, 127
2, 152160, Note_off_c, 0, 69, 95
2, 152160, Note_off_c, 0, 65, 95
2, 152160, Note_off_c, 0, 60, 95
2, 152160, Note_off_c, 0, 53, 127
2, 152160, Note_on_c, 0, 69, 95
2, 152160, Note_on_c, 0, 65, 95
2, 152160, Note_on_c, 0, 60, 95
2, 152160, Note_on_c, 0, 53, 127
2, 153120, Note_off_c, 0, 69, 95
2, 153120, Note_off_c, 0, 65, 95
2, 153120, Note_off_c, 0, 60, 95
2, 153120, Note_off_c, 0, 53, 127
2, 153600, Note_on_c, 0, 62, 95
2, 153600, Note_on_c, 0, 58, 95
2, 153600, Note_on_c, 0, 53, 95
2, 153600, Note_on_c, 0, 46, 95
2, 153840, Note_off_c, 0, 62, 95
2, 153840, Note_off_c, 0, 58, 95
2, 153840, Note_off_c, 0, 53, 95
2, 153840, Note_off_c, 0, 46, 95
2, 153840, Note_on_c, 0, 62, 95
2, 153840, Note_on_c, 0, 58, 95
2, 153840, Note_on_c, 0, 53, 95
2, 153840, Note_on_c, 0, 46, 95
2, 154080, Note_off_c, 0, 62, 95
2, 154080, Note_off_c, 0, 58, 95
2, 154080, Note_off_c, 0, 53, 95
2, 154080, Note_off_c, 0, 46, 95
2, 154080, Note_on_c, 0, 62, 95
2, 154080, Note_on_c, 0, 58, 95
2, 154080, Note_on_c, 0, 53, 95
2, 154080, Note_on_c, 0, 46, 127
2, 156000, Note_off_c, 0, 62, 95
2, 156000, Note_off_c, 0, 58, 95
2, 156000, Note_off_c, 0, 53, 95
2, 156000, Note_off_c, 0, 46, 127
2, 157440, Note_on_c, 0, 59, 95
2, 157440, Note_on_c, 0, 55, 95
2, 157440, Note_on_c, 0, 50, 95
2, 157440, Note_on_c, 0, 43, 95
2, 157920, Note_off_c, 0, 59, 95
2, 157920, Note_off_c, 0, 55, 95
2, 157920, Note_off_c, 0, 50, 95
2, 157920, Note_off_c, 0, 43, 95
2, 157920, Note_on_c, 0, 59, 47
2, 157920, Note_on_c, 0, 55, 47
2, 157920, Note_on_c, 0, 50, 47
2, 157920, Note_on_c, 0, 43, 79
2, 159840, Note_off_c, 0, 59, 47
2, 159840, Note_off_c, 0, 55, 47
2, 159840, Note_off_c, 0, 50, 47
2, 159840, Note_off_c, 0, 43, 79
2, 161280, Note_on_c, 0, 59, 95
2, 161280, Note_on_c, 0, 54, 95
2, 161280, Note_on_c, 0, 47, 95
2, 161760, Note_off_c, 0, 59, 95
2, 161760, Note_off_c, 0, 54, 95
2, 161760, Note_off_c, 0, 47, 95
2, 161760, Note_on_c, 1, 59, 95
2, 161760, Note_on_c, 1, 54, 95
2, 161760, Note_on_c, 1, 47, 127
2, 161880, Pitch_bend_c, 1, 8320
2, 161880, Pitch_bend_c, 1, 8320
2, 161880, Pitch_bend_c, 1, 8320
2, 162000, Pitch_bend_c, 1, 8448
2, 162000, Pitch_bend_c, 1, 8448
2, 162000, Pitch_bend_c, 1, 8448
2, 162120, Pitch_bend_c, 1, 8704
2, 162120, Pitch_bend_c, 1, 8704
2, 162120, Pitch_bend_c, 1, 8704
2, 162240, Pitch_bend_c, 1, 8832
2, 162240, Pitch_bend_c, 1, 8192
2, 162240, Note_off_c, 1, 59, 95
2, 162240, Pitch_bend_c, 1, 8832
2, 162240, Pitch_bend_c, 1, 8192
2, 162240, Note_off_c, 1, 54, 95
2, 162240, Pitch_bend_c, 1, 8832
2, 162240, Pitch_bend_c, 1, 8192
2, 162240, Note_off_c, 1, 47, 127
2, 162240, Note_on_c, 0, 60, 95
2, 162240, Note_on_c, 0, 55, 95
2, 162240, Note_on_c, 0, 48, 95
2, 162720, Note_off_c, 0, 60, 95
2, 162720, Note_off_c, 0, 55, 95
2, 162720, Note_off_c, 0, 48, 95
2, 162720, Note_on_c, 0, 60, 95
2, 162720, Note_on_c, 0, 55, 95
2, 162720, Note_on_c, 0, 48, 95
2, 163200, Note_off_c, 0, 60, 95
2, 163200, Note_off_c, 0, 55, 95
2, 163200, Note_off_c, 0, 48, 95
2, 163200, Note_on_c, 0, 60, 95
2, 163200, Note_on_c, 0, 55, 95
2, 163200, Note_on_c, 0, 48, 95
2, 163680, Note_off_c, 0, 60, 95
2, 163680, Note_off_c, 0, 55, 95
2, 163680, Note_off_c, 0, 48, 95
2, 163680, Note_on_c, 1, 59, 95
2, 163680, Note_on_c, 1, 54, 95
2, 163680, Note_on_c, 1, 47, 127
2, 163800, Pitch_bend_c, 1, 8320
2, 163800, Pitch_bend_c, 1, 8320
2, 163800, Pitch_bend_c, 1, 8320
2, 163920, Pitch_bend_c, 1, 8448
2, 163920, Pitch_bend_c, 1, 8448
2, 163920, Pitch_bend_c, 1, 8448
2, 164040, Pitch_bend_c, 1, 8704
2, 164040, Pitch_bend_c, 1, 8704
2, 164040, Pitch_bend_c, 1, 8704
2, 164160, Pitch_bend_c, 1, 8832
2, 164160, Pitch_bend_c, 1, 8192
2, 164160, Note_off_c, 1, 59, 95
2, 164160, Pitch_bend_c, 1, 8832
2, 164160, Pitch_bend_c, 1, 8192
2, 164160, Note_off_c, 1, 54, 95
2, 164160, Pitch_bend_c, 1, 8832
2, 164160, Pitch_bend_c, 1, 8192
2, 164160, Note_off_c, 1, 47, 127
2, 164160, Note_on_c, 0, 60, 95
2, 164160, Note_on_c, 0, 55, 95
2, 164160, Note_on_c, 0, 48, 95
2, 164640, Note_off_c, 0, 60, 95
2, 164640, Note_off_c, 0, 55, 95
2, 164640, Note_off_c, 0, 48, 95
2, 164640, Note_on_c, 0, 60, 95
2, 164640, Note_on_c, 0, 55, 95
2, 164640, Note_on_c, 0, 48, 95
2, 165120, Note_off_c, 0, 60, 95
2, 165120, Note_off_c, 0, 55, 95
2, 165120, Note_off_c, 0, 48, 95
2, 165120, Note_on_c, 0, 60, 95
2, 165120, Note_on_c, 0, 55, 95
2, 165120, Note_on_c, 0, 48, 95
2, 165600, Note_off_c, 0, 60, 95
2, 165600, Note_off_c, 0, 55, 95
2, 165600, Note_off_c, 0, 48, 95
2, 165600, Note_on_c, 1, 59, 95
2, 165600, Note_on_c, 1, 54, 95
2, 165600, Note_on_c, 1, 47, 127
2, 165720, Pitch_bend_c, 1, 8320
2, 165720, Pitch_bend_c, 1, 8320
2, 165720, Pitch_bend_c, 1, 8320
2, 165840, Pitch_bend_c, 1, 8448
2, 165840, Pitch_bend_c, 1, 8448
2, 165840, Pitch_bend_c, 1, 8448
2, 165960, Pitch_bend_c, 1, 8704
2, 165960, Pitch_bend_c, 1, 8704
2, 165960, Pitch_bend_c, 1, 8704
2, 166080, Pitch_bend_c, 1, 8832
2, 166080, Pitch_bend_c, 1, 8192
2, 166080, Note_off_c, 1, 59, 95
2, 166080, Pitch_bend_c, 1, 8832
2, 166080, Pitch_bend_c, 1, 8192
2, 166080, Note_off_c, 1, 54, 95
2, 166080, Pitch_bend_c, 1, 8832
2, 166080, Pitch_bend_c, 1, 8192
2, 166080, Note_off_c, 1, 47, 127
2, 166080, Note_on_c, 0, 60, 95
2, 166080, Note_on_c, 0, 55, 95
2, 166080, Note_on_c, 0, 48, 95
2, 166560, Note_off_c, 0, 60, 95
2, 166560, Note_off_c, 0, 55, 95
2, 166560, Note_off_c, 0, 48, 95
2, 166560, Note_on_c, 0, 60, 95
2, 166560, Note_on_c, 0, 55, 95
2, 166560, Note_on_c, 0, 48, 95
2, 167040, Note_off_c, 0, 60, 95
2, 167040, Note_off_c, 0, 55, 95
2, 167040, Note_off_c, 0, 48, 95
2, 167040, Note_on_c, 0, 60, 95
2, 167040, Note_on_c, 0, 55, 95
2, 167040, Note_on_c, 0, 48, 95
2, 168000, Note_off_c, 0, 60, 95
2, 168000, Note_off_c, 0, 55, 95
2, 168000, Note_off_c, 0, 48, 95
2, 168000, Note_on_c, 0, 60, 95
2, 168000, Note_on_c, 0, 55, 95
2, 168000, Note_on_c, 0, 48, 95
2, 168480, Note_off_c, 0, 60, 95
2, 168480, Note_off_c, 0, 55, 95
2, 168480, Note_off_c, 0, 48, 95
2, 168480, Note_on_c, 0, 60, 95
2, 168480, Note_on_c, 0, 55, 95
2, 168480, Note_on_c, 0, 48, 95
2, 168960, Note_off_c, 0, 60, 95
2, 168960, Note_off_c, 0, 55, 95
2, 168960, Note_off_c, 0, 48, 95
2, 168960, Note_on_c, 0, 50, 95
2, 168960, Note_on_c, 0, 45, 95
2, 168960, Note_on_c, 0, 40, 95
2, 169039, Note_off_c, 0, 50, 95
2, 169039, Note_off_c, 0, 45, 95
2, 169039, Note_off_c, 0, 40, 95
2, 169440, Note_on_c, 0, 69, 95
2, 169440, Note_on_c, 0, 65, 95
2, 169440, Note_on_c, 0, 60, 95
2, 169440, Note_on_c, 0, 53, 127
2, 170400, Note_off_c, 0, 69, 95
2, 170400, Note_off_c, 0, 65, 95
2, 170400, Note_off_c, 0, 60, 95
2, 170400, Note_off_c, 0, 53, 127
2, 170400, Note_on_c, 0, 69, 95
2, 170400, Note_on_c, 0, 65, 95
2, 170400, Note_on_c, 0, 60, 95
2, 170400, Note_on_c, 0, 53, 127
2, 171360, Note_off_c, 0, 69, 95
2, 171360, Note_off_c, 0, 65, 95
2, 171360, Note_off_c, 0, 60, 95
2, 171360, Note_off_c, 0, 53, 127
2, 171360, Note_on_c, 0, 59, 95
2, 171360, Note_on_c, 0, 55, 95
2, 171360, Note_on_c, 0, 50, 95
2, 171360, Note_on_c, 0, 45, 95
2, 171439, Note_off_c, 0, 59, 95
2, 171439, Note_off_c, 0, 55, 95
2, 171439, Note_off_c, 0, 50, 95
2, 171439, Note_off_c, 0, 45, 95
2, 171840, Note_on_c, 0, 69, 95
2, 171840, Note_on_c, 0, 65, 95
2, 171840, Note_on_c, 0, 60, 95
2, 171840, Note_on_c, 0, 53, 127
2, 172320, Note_off_c, 0, 69, 95
2, 172320, Note_off_c, 0, 65, 95
2, 172320, Note_off_c, 0, 60, 95
2, 172320, Note_off_c, 0, 53, 127
2, 172800, Note_on_c, 0, 69, 95
2, 172800, Note_on_c, 0, 65, 95
2, 172800, Note_on_c, 0, 60, 95
2, 172800, Note_on_c, 0, 53, 127
2, 173760, Note_off_c, 0, 69, 95
2, 173760, Note_off_c, 0, 65, 95
2, 173760, Note_off_c, 0, 60, 95
2, 173760, Note_off_c, 0, 53, 127
2, 173760, Note_on_c, 0, 69, 95
2, 173760, Note_on_c, 0, 65, 95
2, 173760, Note_on_c, 0, 60, 95
2, 173760, Note_on_c, 0, 53, 95
2, 174240, Note_off_c, 0, 69, 95
2, 174240, Note_off_c, 0, 65, 95
2, 174240, Note_off_c, 0, 60, 95
2, 174240, Note_off_c, 0, 53, 95
2, 174240, Note_on_c, 0, 69, 95
2, 174240, Note_on_c, 0, 65, 95
2, 174240, Note_on_c, 0, 60, 95
2, 174240, Note_on_c, 0, 53, 95
2, 175200, Note_off_c, 0, 69, 95
2, 175200, Note_off_c, 0, 65, 95
2, 175200, Note_off_c, 0, 60, 95
2, 175200, Note_off_c, 0, 53, 95
2, 175200, Note_on_c, 0, 59, 95
2, 175200, Note_on_c, 0, 55, 95
2, 175200, Note_on_c, 0, 50, 95
2, 175200, Note_on_c, 0, 45, 95
2, 175279, Note_off_c, 0, 59, 95
2, 175279, Note_off_c, 0, 55, 95
2, 175279, Note_off_c, 0, 50, 95
2, 175279, Note_off_c, 0, 45, 95
2, 175680, Note_on_c, 0, 69, 95
2, 175680, Note_on_c, 0, 65, 95
2, 175680, Note_on_c, 0, 60, 95
2, 175680, Note_on_c, 0, 53, 127
2, 176640, Note_off_c, 0, 69, 95
2, 176640, Note_off_c, 0, 65, 95
2, 176640, Note_off_c, 0, 60, 95
2, 176640, Note_off_c, 0, 53, 127
2, 176640, Note_on_c, 0, 69, 95
2, 176640, Note_on_c, 0, 65, 95
2, 176640, Note_on_c, 0, 60, 95
2, 176640, Note_on_c, 0, 53, 127
2, 177120, Note_off_c, 0, 69, 95
2, 177120, Note_off_c, 0, 65, 95
2, 177120, Note_off_c, 0, 60, 95
2, 177120, Note_off_c, 0, 53, 127
2, 177120, Note_on_c, 0, 69, 47
2, 177120, Note_on_c, 0, 65, 47
2, 177120, Note_on_c, 0, 60, 47
2, 177120, Note_on_c, 0, 53, 47
2, 178080, Note_off_c, 0, 69, 47
2, 178080, Note_off_c, 0, 65, 47
2, 178080, Note_off_c, 0, 60, 47
2, 178080, Note_off_c, 0, 53, 47
2, 178080, Note_on_c, 0, 69, 95
2, 178080, Note_on_c, 0, 65, 95
2, 178080, Note_on_c, 0, 60, 95
2, 178080, Note_on_c, 0, 53, 127
2, 178560, Note_off_c, 0, 69, 95
2, 178560, Note_off_c, 0, 65, 95
2, 178560, Note_off_c, 0, 60, 95
2, 178560, Note_off_c, 0, 53, 127
2, 179040, Note_on_c, 0, 69, 95
2, 179040, Note_on_c, 0, 65, 95
2, 179040, Note_on_c, 0, 60, 95
2, 179040, Note_on_c, 0, 53, 127
2, 179520, Note_off_c, 0, 69, 95
2, 179520, Note_off_c, 0, 65, 95
2, 179520, Note_off_c, 0, 60, 95
2, 179520, Note_off_c, 0, 53, 127
2, 179520, Note_on_c, 0, 69, 95
2, 179520, Note_on_c, 0, 65, 95
2, 179520, Note_on_c, 0, 60, 95
2, 179520, Note_on_c, 0, 53, 127
2, 180000, Note_off_c, 0, 69, 95
2, 180000, Note_off_c, 0, 65, 95
2, 180000, Note_off_c, 0, 60, 95
2, 180000, Note_off_c, 0, 53, 127
2, 180480, Note_on_c, 0, 69, 95
2, 180480, Note_on_c, 0, 65, 95
2, 180480, Note_on_c, 0, 60, 95
2, 180480, Note_on_c, 0, 53, 127
2, 180960, Note_off_c, 0, 69, 95
2, 180960, Note_off_c, 0, 65, 95
2, 180960, Note_off_c, 0, 60, 95
2, 180960, Note_off_c, 0, 53, 127
2, 181440, Note_on_c, 0, 69, 95
2, 181440, Note_on_c, 0, 65, 95
2, 181440, Note_on_c, 0, 60, 95
2, 181440, Note_on_c, 0, 53, 127
2, 181920, Note_off_c, 0, 69, 95
2, 181920, Note_off_c, 0, 65, 95
2, 181920, Note_off_c, 0, 60, 95
2, 181920, Note_off_c, 0, 53, 127
2, 182400, Note_on_c, 0, 69, 95
2, 182400, Note_on_c, 0, 65, 95
2, 182400, Note_on_c, 0, 60, 95
2, 182400, Note_on_c, 0, 53, 127
2, 182880, Note_off_c, 0, 69, 95
2, 182880, Note_off_c, 0, 65, 95
2, 182880, Note_off_c, 0, 60, 95
2, 182880, Note_off_c, 0, 53, 127
2, 182880, Note_on_c, 0, 69, 95
2, 182880, Note_on_c, 0, 65, 95
2, 182880, Note_on_c, 0, 60, 95
2, 182880, Note_on_c, 0, 53, 127
2, 183840, Note_off_c, 0, 69, 95
2, 183840, Note_off_c, 0, 65, 95
2, 183840, Note_off_c, 0, 60, 95
2, 183840, Note_off_c, 0, 53, 127
2, 184320, Note_on_c, 0, 62, 95
2, 184320, Note_on_c, 0, 58, 95
2, 184320, Note_on_c, 0, 53, 95
2, 184320, Note_on_c, 0, 46, 95
2, 184560, Note_off_c, 0, 62, 95
2, 184560, Note_off_c, 0, 58, 95
2, 184560, Note_off_c, 0, 53, 95
2, 184560, Note_off_c, 0, 46, 95
2, 184560, Note_on_c, 0, 62, 95
2, 184560, Note_on_c, 0, 58, 95
2, 184560, Note_on_c, 0, 53, 95
2, 184560, Note_on_c, 0, 46, 95
2, 184800, Note_off_c, 0, 62, 95
2, 184800, Note_off_c, 0, 58, 95
2, 184800, Note_off_c, 0, 53, 95
2, 184800, Note_off_c, 0, 46, 95
2, 184800, Note_on_c, 0, 62, 95
2, 184800, Note_on_c, 0, 58, 95
2, 184800, Note_on_c, 0, 53, 95
2, 184800, Note_on_c, 0, 46, 127
2, 186720, Note_off_c, 0, 62, 95
2, 186720, Note_off_c, 0, 58, 95
2, 186720, Note_off_c, 0, 53, 95
2, 186720, Note_off_c, 0, 46, 127
2, 188160, Note_on_c, 0, 59, 95
2, 188160, Note_on_c, 0, 55, 95
2, 188160, Note_on_c, 0, 50, 95
2, 188160, Note_on_c, 0, 43, 95
2, 188640, Note_off_c, 0, 59, 95
2, 188640, Note_off_c, 0, 55, 95
2, 188640, Note_off_c, 0, 50, 95
2, 188640, Note_off_c, 0, 43, 95
2, 188640, Note_on_c, 0, 59, 47
2, 188640, Note_on_c, 0, 55, 47
2, 188640, Note_on_c, 0, 50, 47
2, 188640, Note_on_c, 0, 43, 79
2, 190560, Note_off_c, 0, 59, 47
2, 190560, Note_off_c, 0, 55, 47
2, 190560, Note_off_c, 0, 50, 47
2, 190560, Note_off_c, 0, 43, 79
2, 192000, Note_on_c, 0, 59, 95
2, 192000, Note_on_c, 0, 54, 95
2, 192000, Note_on_c, 0, 47, 95
2, 192480, Note_off_c, 0, 59, 95
2, 192480, Note_off_c, 0, 54, 95
2, 192480, Note_off_c, 0, 47, 95
2, 192480, Note_on_c, 1, 59, 95
2, 192480, Note_on_c, 1, 54, 95
2, 192480, Note_on_c, 1, 47, 127
2, 192600, Pitch_bend_c, 1, 8320
2, 192600, Pitch_bend_c, 1, 8320
2, 192600, Pitch_bend_c, 1, 8320
2, 192720, Pitch_bend_c, 1, 8448
2, 192720, Pitch_bend_c, 1, 8448
2, 192720, Pitch_bend_c, 1, 8448
2, 192840, Pitch_bend_c, 1, 8704
2, 192840, Pitch_bend_c, 1, 8704
2, 192840, Pitch_bend_c, 1, 8704
2, 192960, Pitch_bend_c, 1, 8832
2, 192960, Pitch_bend_c, 1, 8192
2, 192960, Note_off_c, 1, 59, 95
2, 192960, Pitch_bend_c, 1, 8832
2, 192960, Pitch_bend_c, 1, 8192
2, 192960, Note_off_c, 1, 54, 95
2, 192960, Pitch_bend_c, 1, 8832
2, 192960, Pitch_bend_c, 1, 8192
2, 192960, Note_off_c, 1, 47, 127
2, 192960, Note_on_c, 0, 60, 95
2, 192960, Note_on_c, 0, 55, 95
2, 192960, Note_on_c, 0, 48, 95
2, 193440, Note_off_c, 0, 60, 95
2, 193440, Note_off_c, 0, 55, 95
2, 193440, Note_off_c, 0, 48, 95
2, 193440, Note_on_c, 0, 60, 95
2, 193440, Note_on_c, 0, 55, 95
2, 193440, Note_on_c, 0, 48, 95
2, 193920, Note_off_c, 0, 60, 95
2, 193920, Note_off_c, 0, 55, 95
2, 193920, Note_off_c, 0, 48, 95
2, 193920, Note_on_c, 0, 60, 95
2, 193920, Note_on_c, 0, 55, 95
2, 193920, Note_on_c, 0, 48, 95
2, 194400, Note_off_c, 0, 60, 95
2, 194400, Note_off_c, 0, 55, 95
2, 194400, Note_off_c, 0, 48, 95
2, 194400, Note_on_c, 1, 59, 95
2, 194400, Note_on_c, 1, 54, 95
2, 194400, Note_on_c, 1, 47, 127
2, 194520, Pitch_bend_c, 1, 8320
2, 194520, Pitch_bend_c, 1, 8320
2, 194520, Pitch_bend_c, 1, 8320
2, 194640, Pitch_bend_c, 1, 8448
2, 194640, Pitch_bend_c, 1, 8448
2, 194640, Pitch_bend_c, 1, 8448
2, 194760, Pitch_bend_c, 1, 8704
2, 194760, Pitch_bend_c, 1, 8704
2, 194760, Pitch_bend_c, 1, 8704
2, 194880, Pitch_bend_c, 1, 8832
2, 194880, Pitch_bend_c, 1, 8192
2, 194880, Note_off_c, 1, 59, 95
2, 194880, Pitch_bend_c, 1, 8832
2, 194880, Pitch_bend_c, 1, 8192
2, 194880, Note_off_c, 1, 54, 95
2, 194880, Pitch_bend_c, 1, 8832
2, 194880, Pitch_bend_c, 1, 8192
2, 194880, Note_off_c, 1, 47, 127
2, 194880, Note_on_c, 0, 60, 95
2, 194880, Note_on_c, 0, 55, 95
2, 194880, Note_on_c, 0, 48, 95
2, 195360, Note_off_c, 0, 60, 95
2, 195360, Note_off_c, 0, 55, 95
2, 195360, Note_off_c, 0, 48, 95
2, 195360, Note_on_c, 0, 60, 95
2, 195360, Note_on_c, 0, 55, 95
2, 195360, Note_on_c, 0, 48, 95
2, 195840, Note_off_c, 0, 60, 95
2, 195840, Note_off_c, 0, 55, 95
2, 195840, Note_off_c, 0, 48, 95
2, 195840, Note_on_c, 0, 60, 95
2, 195840, Note_on_c, 0, 55, 95
2, 195840, Note_on_c, 0, 48, 95
2, 196320, Note_off_c, 0, 60, 95
2, 196320, Note_off_c, 0, 55, 95
2, 196320, Note_off_c, 0, 48, 95
2, 196320, Note_on_c, 1, 59, 95
2, 196320, Note_on_c, 1, 54, 95
2, 196320, Note_on_c, 1, 47, 127
2, 196440, Pitch_bend_c, 1, 8320
2, 196440, Pitch_bend_c, 1, 8320
2, 196440, Pitch_bend_c, 1, 8320
2, 196560, Pitch_bend_c, 1, 8448
2, 196560, Pitch_bend_c, 1, 8448
2, 196560, Pitch_bend_c, 1, 8448
2, 196680, Pitch_bend_c, 1, 8704
2, 196680, Pitch_bend_c, 1, 8704
2, 196680, Pitch_bend_c, 1, 8704
2, 196800, Pitch_bend_c, 1, 8832
2, 196800, Pitch_bend_c, 1, 8192
2, 196800, Note_off_c, 1, 59, 95
2, 196800, Pitch_bend_c, 1, 8832
2, 196800, Pitch_bend_c, 1, 8192
2, 196800, Note_off_c, 1, 54, 95
2, 196800, Pitch_bend_c, 1, 8832
2, 196800, Pitch_bend_c, 1, 8192
2, 196800, Note_off_c, 1, 47, 127
2, 196800, Note_on_c, 0, 60, 95
2, 196800, Note_on_c, 0, 55, 95
2, 196800, Note_on_c, 0, 48, 95
2, 197280, Note_off_c, 0, 60, 95
2, 197280, Note_off_c, 0, 55, 95
2, 197280, Note_off_c, 0, 48, 95
2, 197280, Note_on_c, 0, 60, 95
2, 197280, Note_on_c, 0, 55, 95
2, 197280, Note_on_c, 0, 48, 95
2, 197760, Note_off_c, 0, 60, 95
2, 197760, Note_off_c, 0, 55, 95
2, 197760, Note_off_c, 0, 48, 95
2, 197760, Note_on_c, 0, 60, 95
2, 197760, Note_on_c, 0, 55, 95
2, 197760, Note_on_c, 0, 48, 95
2, 198720, Note_off_c, 0, 60, 95
2, 198720, Note_off_c, 0, 55, 95
2, 198720, Note_off_c, 0, 48, 95
2, 198720, Note_on_c, 0, 60, 95
2, 198720, Note_on_c, 0, 55, 95
2, 198720, Note_on_c, 0, 48, 95
2, 199200, Note_off_c, 0, 60, 95
2, 199200, Note_off_c, 0, 55, 95
2, 199200, Note_off_c, 0, 48, 95
2, 199200, Note_on_c, 0, 60, 95
2, 199200, Note_on_c, 0, 55, 95
2, 199200, Note_on_c, 0, 48, 95
2, 199680, Note_off_c, 0, 60, 95
2, 199680, Note_off_c, 0, 55, 95
2, 199680, Note_off_c, 0, 48, 95
2, 199680, Note_on_c, 0, 50, 95
2, 199680, Note_on_c, 0, 45, 95
2, 199680, Note_on_c, 0, 40, 95
2, 199759, Note_off_c, 0, 50, 95
2, 199759, Note_off_c, 0, 45, 95
2, 199759, Note_off_c, 0, 40, 95
2, 200160, Note_on_c, 0, 53, 95
2, 200160, Note_on_c, 0, 46, 127
2, 200640, Note_off_c, 0, 53, 95
2, 200640, Note_off_c, 0, 46, 127
2, 200640, Note_on_c, 0, 53, 95
2, 200640, Note_on_c, 0, 46, 95
2, 201120, Note_off_c, 0, 53, 95
2, 201120, Note_off_c, 0, 46, 95
2, 201120, Note_on_c, 0, 55, 95
2, 201120, Note_on_c, 0, 46, 127
2, 201600, Note_off_c, 0, 55, 95
2, 201600, Note_off_c, 0, 46, 127
2, 201600, Note_on_c, 0, 53, 95
2, 201600, Note_on_c, 0, 46, 95
2, 202080, Note_off_c, 0, 53, 95
2, 202080, Note_off_c, 0, 46, 95
2, 202080, Note_on_c, 0, 53, 95
2, 202080, Note_on_c, 0, 46, 127
2, 202560, Note_off_c, 0, 53, 95
2, 202560, Note_off_c, 0, 46, 127
2, 202560, Note_on_c, 0, 53, 95
2, 202560, Note_on_c, 0, 46, 95
2, 203040, Note_off_c, 0, 53, 95
2, 203040, Note_off_c, 0, 46, 95
2, 203040, Note_on_c, 0, 55, 95
2, 203040, Note_on_c, 0, 46, 95
2, 203520, Note_off_c, 0, 55, 95
2, 203520, Note_off_c, 0, 46, 95
2, 203520, Note_on_c, 0, 55, 95
2, 203520, Note_on_c, 0, 48, 127
2, 204480, Note_off_c, 0, 55, 95
2, 204480, Note_off_c, 0, 48, 127
2, 204480, Note_on_c, 0, 55, 95
2, 204480, Note_on_c, 0, 48, 95
2, 204960, Note_off_c, 0, 55, 95
2, 204960, Note_off_c, 0, 48, 95
2, 204960, Note_on_c, 0, 57, 95
2, 204960, Note_on_c, 0, 48, 127
2, 205440, Note_off_c, 0, 57, 95
2, 205440, Note_off_c, 0, 48, 127
2, 205440, Note_on_c, 0, 55, 95
2, 205440, Note_on_c, 0, 48, 95
2, 205920, Note_off_c, 0, 55, 95
2, 205920, Note_off_c, 0, 48, 95
2, 205920, Note_on_c, 0, 55, 95
2, 205920, Note_on_c, 0, 48, 127
2, 206400, Note_off_c, 0, 55, 95
2, 206400, Note_off_c, 0, 48, 127
2, 206400, Note_on_c, 0, 55, 95
2, 206400, Note_on_c, 0, 48, 95
2, 206880, Note_off_c, 0, 55, 95
2, 206880, Note_off_c, 0, 48, 95
2, 206880, Note_on_c, 0, 57, 95
2, 206880, Note_on_c, 0, 48, 127
2, 207360, Note_off_c, 0, 57, 95
2, 207360, Note_off_c, 0, 48, 127
2, 207360, Note_on_c, 0, 55, 95
2, 207360, Note_on_c, 0, 48, 95
2, 207840, Note_off_c, 0, 55, 95
2, 207840, Note_off_c, 0, 48, 95
2, 207840, Note_on_c, 0, 53, 95
2, 207840, Note_on_c, 0, 46, 127
2, 208320, Note_off_c, 0, 53, 95
2, 208320, Note_off_c, 0, 46, 127
2, 208320, Note_on_c, 0, 53, 95
2, 208320, Note_on_c, 0, 46, 95
2, 208800, Note_off_c, 0, 53, 95
2, 208800, Note_off_c, 0, 46, 95
2, 208800, Note_on_c, 0, 55, 95
2, 208800, Note_on_c, 0, 46, 127
2, 209280, Note_off_c, 0, 55, 95
2, 209280, Note_off_c, 0, 46, 127
2, 209280, Note_on_c, 0, 53, 95
2, 209280, Note_on_c, 0, 46, 95
2, 209760, Note_off_c, 0, 53, 95
2, 209760, Note_off_c, 0, 46, 95
2, 209760, Note_on_c, 0, 53, 95
2, 209760, Note_on_c, 0, 46, 127
2, 210240, Note_off_c, 0, 53, 95
2, 210240, Note_off_c, 0, 46, 127
2, 210240, Note_on_c, 0, 53, 95
2, 210240, Note_on_c, 0, 46, 95
2, 210720, Note_off_c, 0, 53, 95
2, 210720, Note_off_c, 0, 46, 95
2, 210720, Note_on_c, 0, 55, 95
2, 210720, Note_on_c, 0, 46, 95
2, 211200, Note_off_c, 0, 55, 95
2, 211200, Note_off_c, 0, 46, 95
2, 211200, Note_on_c, 0, 55, 95
2, 211200, Note_on_c, 0, 48, 127
2, 212160, Note_off_c, 0, 55, 95
2, 212160, Note_off_c, 0, 48, 127
2, 212160, Note_on_c, 0, 55, 95
2, 212160, Note_on_c, 0, 48, 95
2, 212640, Note_off_c, 0, 55, 95
2, 212640, Note_off_c, 0, 48, 95
2, 212640, Note_on_c, 0, 57, 95
2, 212640, Note_on_c, 0, 48, 127
2, 213120, Note_off_c, 0, 57, 95
2, 213120, Note_off_c, 0, 48, 127
2, 213120, Note_on_c, 0, 55, 95
2, 213120, Note_on_c, 0, 48, 95
2, 213600, Note_off_c, 0, 55, 95
2, 213600, Note_off_c, 0, 48, 95
2, 213600, Note_on_c, 0, 55, 95
2, 213600, Note_on_c, 0, 48, 127
2, 214080, Note_off_c, 0, 55, 95
2, 214080, Note_off_c, 0, 48, 127
2, 214080, Note_on_c, 0, 55, 95
2, 214080, Note_on_c, 0, 48, 95
2, 214560, Note_off_c, 0, 55, 95
2, 214560, Note_off_c, 0, 48, 95
2, 214560, Note_on_c, 0, 57, 95
2, 214560, Note_on_c, 0, 48, 127
2, 215040, Note_off_c, 0, 57, 95
2, 215040, Note_off_c, 0, 48, 127
2, 215040, Note_on_c, 0, 55, 95
2, 215040, Note_on_c, 0, 48, 95
2, 215520, Note_off_c, 0, 55, 95
2, 215520, Note_off_c, 0, 48, 95
2, 215520, Note_on_c, 0, 53, 95
2, 215520, Note_on_c, 0, 46, 127
2, 216000, Note_off_c, 0, 53, 95
2, 216000, Note_off_c, 0, 46, 127
2, 216000, Note_on_c, 0, 53, 95
2, 216000, Note_on_c, 0, 46, 95
2, 216480, Note_off_c, 0, 53, 95
2, 216480, Note_off_c, 0, 46, 95
2, 216480, Note_on_c, 0, 55, 95
2, 216480, Note_on_c, 0, 46, 127
2, 216960, Note_off_c, 0, 55, 95
2, 216960, Note_off_c, 0, 46, 127
2, 216960, Note_on_c, 0, 53, 95
2, 216960, Note_on_c, 0, 46, 95
2, 217440, Note_off_c, 0, 53, 95
2, 217440, Note_off_c, 0, 46, 95
2, 217440, Note_on_c, 0, 53, 95
2, 217440, Note_on_c, 0, 46, 127
2, 217920, Note_off_c, 0, 53, 95
2, 217920, Note_off_c, 0, 46, 127
2, 217920, Note_on_c, 0, 53, 95
2, 217920, Note_on_c, 0, 46, 95
2, 218400, Note_off_c, 0, 53, 95
2, 218400, Note_off_c, 0, 46, 95
2, 218400, Note_on_c, 0, 55, 95
2, 218400, Note_on_c, 0, 46, 95
2, 218880, Note_off_c, 0, 55, 95
2, 218880, Note_off_c, 0, 46, 95
2, 218880, Note_on_c, 0, 55, 95
2, 218880, Note_on_c, 0, 48, 127
2, 219840, Note_off_c, 0, 55, 95
2, 219840, Note_off_c, 0, 48, 127
2, 219840, Note_on_c, 0, 55, 95
2, 219840, Note_on_c, 0, 48, 95
2, 220320, Note_off_c, 0, 55, 95
2, 220320, Note_off_c, 0, 48, 95
2, 220320, Note_on_c, 0, 57, 95
2, 220320, Note_on_c, 0, 48, 127
2, 220800, Note_off_c, 0, 57, 95
2, 220800, Note_off_c, 0, 48, 127
2, 220800, Note_on_c, 0, 55, 95
2, 220800, Note_on_c, 0, 48, 95
2, 221280, Note_off_c, 0, 55, 95
2, 221280, Note_off_c, 0, 48, 95
2, 221280, Note_on_c, 0, 55, 95
2, 221280, Note_on_c, 0, 48, 127
2, 221760, Note_off_c, 0, 55, 95
2, 221760, Note_off_c, 0, 48, 127
2, 221760, Note_on_c, 0, 55, 95
2, 221760, Note_on_c, 0, 48, 95
2, 222240, Note_off_c, 0, 55, 95
2, 222240, Note_off_c, 0, 48, 95
2, 222240, Note_on_c, 0, 57, 95
2, 222240, Note_on_c, 0, 48, 127
2, 222720, Note_off_c, 0, 57, 95
2, 222720, Note_off_c, 0, 48, 127
2, 222720, Note_on_c, 0, 55, 95
2, 222720, Note_on_c, 0, 48, 95
2, 223200, Note_off_c, 0, 55, 95
2, 223200, Note_off_c, 0, 48, 95
2, 223200, Note_on_c, 0, 69, 95
2, 223200, Note_on_c, 0, 65, 95
2, 223200, Note_on_c, 0, 60, 95
2, 223200, Note_on_c, 0, 53, 127
2, 224160, Note_off_c, 0, 69, 95
2, 224160, Note_off_c, 0, 65, 95
2, 224160, Note_off_c, 0, 60, 95
2, 224160, Note_off_c, 0, 53, 127
2, 224160, Note_on_c, 0, 69, 95
2, 224160, Note_on_c, 0, 65, 95
2, 224160, Note_on_c, 0, 60, 95
2, 224160, Note_on_c, 0, 53, 95
2, 224640, Note_off_c, 0, 69, 95
2, 224640, Note_off_c, 0, 65, 95
2, 224640, Note_off_c, 0, 60, 95
2, 224640, Note_off_c, 0, 53, 95
2, 224640, Note_on_c, 0, 69, 95
2, 224640, Note_on_c, 0, 65, 95
2, 224640, Note_on_c, 0, 60, 95
2, 224640, Note_on_c, 0, 53, 95
2, 225120, Note_off_c, 0, 69, 95
2, 225120, Note_off_c, 0, 65, 95
2, 225120, Note_off_c, 0, 60, 95
2, 225120, Note_off_c, 0, 53, 95
2, 225120, Note_on_c, 0, 69, 95
2, 225120, Note_on_c, 0, 65, 95
2, 225120, Note_on_c, 0, 60, 95
2, 225120, Note_on_c, 0, 53, 127
2, 226080, Note_off_c, 0, 69, 95
2, 226080, Note_off_c, 0, 65, 95
2, 226080, Note_off_c, 0, 60, 95
2, 226080, Note_off_c, 0, 53, 127
2, 226080, Note_on_c, 0, 69, 95
2, 226080, Note_on_c, 0, 65, 95
2, 226080, Note_on_c, 0, 60, 95
2, 226080, Note_on_c, 0, 53, 95
2, 226560, Note_off_c, 0, 69, 95
2, 226560, Note_off_c, 0, 65, 95
2, 226560, Note_off_c, 0, 60, 95
2, 226560, Note_off_c, 0, 53, 95
2, 226560, Note_on_c, 0, 69, 95
2, 226560, Note_on_c, 0, 65, 95
2, 226560, Note_on_c, 0, 60, 95
2, 226560, Note_on_c, 0, 53, 127
2, 227040, Note_off_c, 0, 69, 95
2, 227040, Note_off_c, 0, 65, 95
2, 227040, Note_off_c, 0, 60, 95
2, 227040, Note_off_c, 0, 53, 127
2, 227040, Note_on_c, 0, 69, 47
2, 227040, Note_on_c, 0, 65, 47
2, 227040, Note_on_c, 0, 60, 47
2, 227040, Note_on_c, 0, 53, 47
2, 227520, Note_off_c, 0, 69, 47
2, 227520, Note_off_c, 0, 65, 47
2, 227520, Note_off_c, 0, 60, 47
2, 227520, Note_off_c, 0, 53, 47
2, 227520, Note_on_c, 0, 69, 95
2, 227520, Note_on_c, 0, 65, 95
2, 227520, Note_on_c, 0, 60, 95
2, 227520, Note_on_c, 0, 53, 95
2, 228000, Note_off_c, 0, 69, 95
2, 228000, Note_off_c, 0, 65, 95
2, 228000, Note_off_c, 0, 60, 95
2, 228000, Note_off_c, 0, 53, 95
2, 228000, Note_on_c, 0, 69, 95
2, 228000, Note_on_c, 0, 65, 95
2, 228000, Note_on_c, 0, 60, 95
2, 228000, Note_on_c, 0, 53, 95
2, 228480, Note_off_c, 0, 69, 95
2, 228480, Note_off_c, 0, 65, 95
2, 228480, Note_off_c, 0, 60, 95
2, 228480, Note_off_c, 0, 53, 95
2, 228480, Note_on_c, 0, 69, 95
2, 228480, Note_on_c, 0, 65, 95
2, 228480, Note_on_c, 0, 60, 95
2, 228480, Note_on_c, 0, 53, 95
2, 228960, Note_off_c, 0, 69, 95
2, 228960, Note_off_c, 0, 65, 95
2, 228960, Note_off_c, 0, 60, 95
2, 228960, Note_off_c, 0, 53, 95
2, 228960, Note_on_c, 0, 69, 95
2, 228960, Note_on_c, 0, 65, 95
2, 228960, Note_on_c, 0, 60, 95
2, 228960, Note_on_c, 0, 53, 127
2, 229920, Note_off_c, 0, 69, 95
2, 229920, Note_off_c, 0, 65, 95
2, 229920, Note_off_c, 0, 60, 95
2, 229920, Note_off_c, 0, 53, 127
2, 229920, Note_on_c, 0, 69, 95
2, 229920, Note_on_c, 0, 65, 95
2, 229920, Note_on_c, 0, 60, 95
2, 229920, Note_on_c, 0, 53, 127
2, 230400, Note_off_c, 0, 69, 95
2, 230400, Note_off_c, 0, 65, 95
2, 230400, Note_off_c, 0, 60, 95
2, 230400, Note_off_c, 0, 53, 127
2, 230400, Note_on_c, 0, 69, 95
2, 230400, Note_on_c, 0, 65, 95
2, 230400, Note_on_c, 0, 60, 95
2, 230400, Note_on_c, 0, 53, 127
2, 230880, Note_off_c, 0, 69, 95
2, 230880, Note_off_c, 0, 65, 95
2, 230880, Note_off_c, 0, 60, 95
2, 230880, Note_off_c, 0, 53, 127
2, 230880, Note_on_c, 0, 69, 95
2, 230880, Note_on_c, 0, 65, 95
2, 230880, Note_on_c, 0, 60, 95
2, 230880, Note_on_c, 0, 53, 127
2, 231840, Note_off_c, 0, 69, 95
2, 231840, Note_off_c, 0, 65, 95
2, 231840, Note_off_c, 0, 60, 95
2, 231840, Note_off_c, 0, 53, 127
2, 231840, Note_on_c, 0, 59, 95
2, 231840, Note_on_c, 0, 55, 95
2, 231840, Note_on_c, 0, 50, 95
2, 231840, Note_on_c, 0, 45, 95
2, 231919, Note_off_c, 0, 59, 95
2, 231919, Note_off_c, 0, 55, 95
2, 231919, Note_off_c, 0, 50, 95
2, 231919, Note_off_c, 0, 45, 95
2, 232320, Note_on_c, 0, 62, 95
2, 232320, Note_on_c, 0, 58, 95
2, 232320, Note_on_c, 0, 53, 95
2, 232320, Note_on_c, 0, 46, 127
2, 232800, Note_off_c, 0, 62, 95
2, 232800, Note_off_c, 0, 58, 95
2, 232800, Note_off_c, 0, 53, 95
2, 232800, Note_off_c, 0, 46, 127
2, 232800, Note_on_c, 0, 62, 95
2, 232800, Note_on_c, 0, 58, 95
2, 232800, Note_on_c, 0, 53, 95
2, 232800, Note_on_c, 0, 46, 95
2, 233760, Note_off_c, 0, 62, 95
2, 233760, Note_off_c, 0, 58, 95
2, 233760, Note_off_c, 0, 53, 95
2, 233760, Note_off_c, 0, 46, 95
2, 233760, Note_on_c, 0, 58, 95
2, 233760, Note_on_c, 0, 53, 95
2, 233760, Note_on_c, 0, 46, 95
2, 234240, Note_off_c, 0, 58, 95
2, 234240, Note_off_c, 0, 53, 95
2, 234240, Note_off_c, 0, 46, 95
2, 234240, Note_on_c, 0, 53, 95
2, 234240, Note_on_c, 0, 48, 95
2, 234240, Note_on_c, 0, 41, 95
2, 234720, Note_off_c, 0, 53, 95
2, 234720, Note_off_c, 0, 48, 95
2, 234720, Note_off_c, 0, 41, 95
2, 234720, Note_on_c, 0, 53, 95
2, 234720, Note_on_c, 0, 48, 95
2, 234720, Note_on_c, 0, 41, 127
2, 235200, Note_off_c, 0, 53, 95
2, 235200, Note_off_c, 0, 48, 95
2, 235200, Note_off_c, 0, 41, 127
2, 235200, Note_on_c, 0, 53, 95
2, 235200, Note_on_c, 0, 48, 95
2, 235200, Note_on_c, 0, 41, 95
2, 235680, Note_off_c, 0, 53, 95
2, 235680, Note_off_c, 0, 48, 95
2, 235680, Note_off_c, 0, 41, 95
2, 235680, Note_on_c, 0, 53, 95
2, 235680, Note_on_c, 0, 48, 95
2, 235680, Note_on_c, 0, 41, 95
2, 236160, Note_off_c, 0, 53, 95
2, 236160, Note_off_c, 0, 48, 95
2, 236160, Note_off_c, 0, 41, 95
2, 236160, Note_on_c, 0, 53, 95
2, 236160, Note_on_c, 0, 48, 95
2, 236160, Note_on_c, 0, 41, 127
2, 237120, Note_off_c, 0, 53, 95
2, 237120, Note_off_c, 0, 48, 95
2, 237120, Note_off_c, 0, 41, 127
2, 237120, Note_on_c, 0, 53, 95
2, 237120, Note_on_c, 0, 48, 95
2, 237120, Note_on_c, 0, 41, 95
2, 237600, Note_off_c, 0, 53, 95
2, 237600, Note_off_c, 0, 48, 95
2, 237600, Note_off_c, 0, 41, 95
2, 237600, Note_on_c, 0, 53, 95
2, 237600, Note_on_c, 0, 48, 95
2, 237600, Note_on_c, 0, 41, 95
2, 237679, Note_off_c, 0, 53, 95
2, 237679, Note_off_c, 0, 48, 95
2, 237679, Note_off_c, 0, 41, 95
2, 238080, Note_on_c, 0, 65, 95
2, 238080, Note_on_c, 0, 60, 95
2, 238560, Note_off_c, 0, 65, 95
2, 238560, Note_off_c, 0, 60, 95
2, 238560, Note_on_c, 0, 65, 95
2, 238560, Note_on_c, 0, 60, 95
2, 239040, Note_off_c, 0, 65, 95
2, 239040, Note_off_c, 0, 60, 95
2, 239040, Note_on_c, 0, 65, 95
2, 239040, Note_on_c, 0, 60, 95
2, 239520, Note_off_c, 0, 65, 95
2, 239520, Note_off_c, 0, 60, 95
2, 239520, Note_on_c, 0, 65, 95
2, 239520, Note_on_c, 0, 62, 95
2, 240000, Note_off_c, 0, 65, 95
2, 240000, Note_off_c, 0, 62, 95
2, 240000, Note_on_c, 0, 65, 95
2, 240000, Note_on_c, 0, 60, 95
2, 240480, Note_off_c, 0, 65, 95
2, 240480, Note_off_c, 0, 60, 95
2, 240480, Note_on_c, 0, 65, 95
2, 240480, Note_on_c, 0, 60, 95
2, 240960, Note_off_c, 0, 65, 95
2, 240960, Note_off_c, 0, 60, 95
2, 240960, Note_on_c, 0, 65, 95
2, 240960, Note_on_c, 0, 60, 95
2, 241440, Note_off_c, 0, 65, 95
2, 241440, Note_off_c, 0, 60, 95
2, 241440, Note_on_c, 0, 67, 95
2, 241440, Note_on_c, 0, 62, 95
2, 241920, Note_off_c, 0, 67, 95
2, 241920, Note_off_c, 0, 62, 95
2, 241920, Note_on_c, 0, 67, 95
2, 241920, Note_on_c, 0, 62, 95
2, 242880, Note_off_c, 0, 67, 95
2, 242880, Note_off_c, 0, 62, 95
2, 242880, Pitch_bend_c, 1, 8192
2, 242880, Note_on_c, 1, 60, 95
2, 242890, Pitch_bend_c, 1, 8320
2, 242900, Pitch_bend_c, 1, 8448
2, 242910, Pitch_bend_c, 1, 8576
2, 242920, Pitch_bend_c, 1, 8704
2, 242930, Pitch_bend_c, 1, 8832
2, 242940, Pitch_bend_c, 1, 8960
2, 242950, Pitch_bend_c, 1, 9088
2, 242960, Pitch_bend_c, 1, 9216
2, 242970, Pitch_bend_c, 1, 9344
2, 242980, Pitch_bend_c, 1, 9472
2, 242990, Pitch_bend_c, 1, 9600
2, 243000, Pitch_bend_c, 1, 9600
2, 243120, Pitch_bend_c, 1, 9600
2, 243130, Pitch_bend_c, 1, 9472
2, 243140, Pitch_bend_c, 1, 9344
2, 243150, Pitch_bend_c, 1, 9216
2, 243160, Pitch_bend_c, 1, 9088
2, 243170, Pitch_bend_c, 1, 8960
2, 243180, Pitch_bend_c, 1, 8832
2, 243190, Pitch_bend_c, 1, 8704
2, 243200, Pitch_bend_c, 1, 8576
2, 243210, Pitch_bend_c, 1, 8448
2, 243220, Pitch_bend_c, 1, 8320
2, 243230, Pitch_bend_c, 1, 8192
2, 243240, Pitch_bend_c, 1, 8192
2, 243360, Pitch_bend_c, 1, 8192
2, 243360, Pitch_bend_c, 1, 8192
2, 243360, Note_off_c, 1, 60, 95
2, 243360, Note_on_c, 0, 60, 47
2, 243840, Note_off_c, 0, 60, 47
2, 243840, Note_on_c, 0, 58, 95
2, 244320, Note_off_c, 0, 58, 95
2, 244320, Pitch_bend_c, 1, 8192
2, 244320, Note_on_c, 1, 60, 95
2, 244363, Pitch_bend_c, 1, 8320
2, 244406, Pitch_bend_c, 1, 8448
2, 244449, Pitch_bend_c, 1, 8576
2, 244492, Pitch_bend_c, 1, 8704
2, 244535, Pitch_bend_c, 1, 8832
2, 244578, Pitch_bend_c, 1, 8960
2, 244621, Pitch_bend_c, 1, 9088
2, 244664, Pitch_bend_c, 1, 9216
2, 244707, Pitch_bend_c, 1, 9344
2, 244750, Pitch_bend_c, 1, 9472
2, 244793, Pitch_bend_c, 1, 9600
2, 244800, Pitch_bend_c, 1, 9600
2, 245280, Pitch_bend_c, 1, 9600
2, 245280, Pitch_bend_c, 1, 8192
2, 245280, Note_off_c, 1, 60, 95
2, 245760, Note_on_c, 0, 55, 95
2, 245760, Note_on_c, 0, 48, 95
2, 246240, Note_off_c, 0, 55, 95
2, 246240, Note_off_c, 0, 48, 95
2, 246240, Note_on_c, 0, 55, 95
2, 246240, Note_on_c, 0, 48, 95
2, 246720, Note_off_c, 0, 55, 95
2, 246720, Note_off_c, 0, 48, 95
2, 246720, Note_on_c, 0, 55, 95
2, 246720, Note_on_c, 0, 48, 95
2, 247200, Note_off_c, 0, 55, 95
2, 247200, Note_off_c, 0, 48, 95
2, 247200, Note_on_c, 0, 57, 95
2, 247200, Note_on_c, 0, 48, 95
2, 248160, Note_off_c, 0, 57, 95
2, 248160, Note_off_c, 0, 48, 95
2, 248160, Note_on_c, 0, 55, 95
2, 248160, Note_on_c, 0, 48, 95
2, 248640, Note_off_c, 0, 55, 95
2, 248640, Note_off_c, 0, 48, 95
2, 248640, Note_on_c, 0, 55, 95
2, 248640, Note_on_c, 0, 48, 95
2, 249120, Note_off_c, 0, 55, 95
2, 249120, Note_off_c, 0, 48, 95
2, 249120, Note_on_c, 0, 57, 95
2, 249120, Note_on_c, 0, 48, 95
2, 249600, Note_off_c, 0, 57, 95
2, 249600, Note_off_c, 0, 48, 95
2, 249600, Note_on_c, 0, 55, 95
2, 249600, Note_on_c, 0, 48, 95
2, 250560, Note_off_c, 0, 55, 95
2, 250560, Note_off_c, 0, 48, 95
2, 250560, Note_on_c, 0, 55, 95
2, 250560, Note_on_c, 0, 48, 95
2, 251040, Note_off_c, 0, 55, 95
2, 251040, Note_off_c, 0, 48, 95
2, 251040, Note_on_c, 0, 57, 95
2, 251040, Note_on_c, 0, 48, 95
2, 251520, Note_off_c, 0, 57, 95
2, 251520, Note_off_c, 0, 48, 95
2, 251520, Note_on_c, 0, 55, 95
2, 251520, Note_on_c, 0, 48, 95
2, 252000, Note_off_c, 0, 55, 95
2, 252000, Note_off_c, 0, 48, 95
2, 252000, Note_on_c, 0, 55, 95
2, 252000, Note_on_c, 0, 48, 95
2, 252480, Note_off_c, 0, 55, 95
2, 252480, Note_off_c, 0, 48, 95
2, 252480, Note_on_c, 0, 55, 95
2, 252480, Note_on_c, 0, 48, 95
2, 252960, Note_off_c, 0, 55, 95
2, 252960, Note_off_c, 0, 48, 95
2, 253440, Note_on_c, 0, 65, 95
2, 253440, Note_on_c, 0, 60, 95
2, 253920, Note_off_c, 0, 65, 95
2, 253920, Note_off_c, 0, 60, 95
2, 253920, Note_on_c, 0, 65, 47
2, 253920, Note_on_c, 0, 60, 47
2, 254400, Note_off_c, 0, 65, 47
2, 254400, Note_off_c, 0, 60, 47
2, 254400, Pitch_bend_c, 1, 8192
2, 254400, Note_on_c, 1, 58, 95
2, 254410, Pitch_bend_c, 1, 8320
2, 254420, Pitch_bend_c, 1, 8448
2, 254430, Pitch_bend_c, 1, 8576
2, 254440, Pitch_bend_c, 1, 8704
2, 254450, Pitch_bend_c, 1, 8832
2, 254460, Pitch_bend_c, 1, 8960
2, 254470, Pitch_bend_c, 1, 9088
2, 254480, Pitch_bend_c, 1, 9216
2, 254490, Pitch_bend_c, 1, 9344
2, 254500, Pitch_bend_c, 1, 9472
2, 254510, Pitch_bend_c, 1, 9600
2, 254520, Pitch_bend_c, 1, 9600
2, 254640, Pitch_bend_c, 1, 9600
2, 254650, Pitch_bend_c, 1, 9472
2, 254660, Pitch_bend_c, 1, 9344
2, 254670, Pitch_bend_c, 1, 9216
2, 254680, Pitch_bend_c, 1, 9088
2, 254690, Pitch_bend_c, 1, 8960
2, 254700, Pitch_bend_c, 1, 8832
2, 254710, Pitch_bend_c, 1, 8704
2, 254720, Pitch_bend_c, 1, 8576
2, 254730, Pitch_bend_c, 1, 8448
2, 254740, Pitch_bend_c, 1, 8320
2, 254750, Pitch_bend_c, 1, 8192
2, 254760, Pitch_bend_c, 1, 8192
2, 254880, Pitch_bend_c, 1, 8192
2, 254880, Pitch_bend_c, 1, 8192
2, 254880, Note_off_c, 1, 58, 95
2, 254880, Note_on_c, 0, 58, 47
2, 255360, Note_off_c, 0, 58, 47
2, 255360, Note_on_c, 0, 56, 95
2, 255840, Note_off_c, 0, 56, 95
2, 255840, Note_on_c, 1, 53, 95
2, 256000, Pitch_bend_c, 1, 8192
2, 256160, Pitch_bend_c, 1, 8320
2, 256320, Pitch_bend_c, 1, 8192
2, 256480, Pitch_bend_c, 1, 8320
2, 256640, Pitch_bend_c, 1, 8192
2, 256800, Pitch_bend_c, 1, 8320
2, 256800, Pitch_bend_c, 1, 8192
2, 256800, Note_off_c, 1, 53, 95
2, 257280, Note_on_c, 0, 62, 95
2, 257280, Pitch_bend_c, 1, 8192
2, 257280, Note_on_c, 1, 58, 95
2, 257520, Pitch_bend_c, 1, 8320
2, 257760, Pitch_bend_c, 1, 8448
2, 257760, Pitch_bend_c, 1, 8448
2, 258240, Note_off_c, 0, 62, 95
2, 258240, Pitch_bend_c, 1, 8448
2, 258240, Pitch_bend_c, 1, 8192
2, 258240, Note_off_c, 1, 58, 95
2, 258240, Note_on_c, 0, 64, 95
2, 258240, Note_on_c, 0, 60, 95
2, 258720, Note_off_c, 0, 64, 95
2, 258720, Note_off_c, 0, 60, 95
2, 258720, Note_on_c, 0, 62, 95
2, 258720, Pitch_bend_c, 1, 8192
2, 258720, Note_on_c, 1, 58, 95
2, 258960, Pitch_bend_c, 1, 8320
2, 259200, Pitch_bend_c, 1, 8448
2, 259200, Pitch_bend_c, 1, 8448
2, 259680, Note_off_c, 0, 62, 95
2, 259680, Pitch_bend_c, 1, 8448
2, 259680, Pitch_bend_c, 1, 8192
2, 259680, Note_off_c, 1, 58, 95
2, 259680, Note_on_c, 0, 53, 95
2, 260640, Note_off_c, 0, 53, 95
2, 261120, Note_on_c, 0, 55, 95
2, 261120, Note_on_c, 0, 48, 95
2, 261600, Note_off_c, 0, 55, 95
2, 261600, Note_off_c, 0, 48, 95
2, 261600, Note_on_c, 0, 55, 95
2, 261600, Note_on_c, 0, 48, 95
2, 262080, Note_off_c, 0, 55, 95
2, 262080, Note_off_c, 0, 48, 95
2, 262080, Note_on_c, 0, 55, 95
2, 262080, Note_on_c, 0, 48, 95
2, 262560, Note_off_c, 0, 55, 95
2, 262560, Note_off_c, 0, 48, 95
2, 262560, Note_on_c, 0, 57, 95
2, 262560, Note_on_c, 0, 48, 95
2, 263040, Note_off_c, 0, 57, 95
2, 263040, Note_off_c, 0, 48, 95
2, 263040, Note_on_c, 0, 55, 95
2, 263040, Note_on_c, 0, 48, 95
2, 263520, Note_off_c, 0, 55, 95
2, 263520, Note_off_c, 0, 48, 95
2, 263520, Note_on_c, 0, 55, 95
2, 263520, Note_on_c, 0, 48, 95
2, 264000, Note_off_c, 0, 55, 95
2, 264000, Note_off_c, 0, 48, 95
2, 264000, Note_on_c, 0, 55, 95
2, 264000, Note_on_c, 0, 48, 95
2, 264480, Note_off_c, 0, 55, 95
2, 264480, Note_off_c, 0, 48, 95
2, 264480, Note_on_c, 0, 57, 95
2, 264480, Note_on_c, 0, 48, 95
2, 264960, Note_off_c, 0, 57, 95
2, 264960, Note_off_c, 0, 48, 95
2, 264960, Note_on_c, 0, 55, 95
2, 264960, Note_on_c, 0, 48, 95
2, 265920, Note_off_c, 0, 55, 95
2, 265920, Note_off_c, 0, 48, 95
2, 265920, Note_on_c, 0, 55, 95
2, 265920, Note_on_c, 0, 48, 95
2, 266400, Note_off_c, 0, 55, 95
2, 266400, Note_off_c, 0, 48, 95
2, 266400, Note_on_c, 0, 57, 95
2, 266400, Note_on_c, 0, 48, 95
2, 266880, Note_off_c, 0, 57, 95
2, 266880, Note_off_c, 0, 48, 95
2, 266880, Note_on_c, 0, 55, 95
2, 266880, Note_on_c, 0, 48, 95
2, 267360, Note_off_c, 0, 55, 95
2, 267360, Note_off_c, 0, 48, 95
2, 267360, Note_on_c, 0, 55, 95
2, 267360, Note_on_c, 0, 48, 95
2, 267840, Note_off_c, 0, 55, 95
2, 267840, Note_off_c, 0, 48, 95
2, 267840, Note_on_c, 0, 55, 95
2, 267840, Note_on_c, 0, 48, 95
2, 268320, Note_off_c, 0, 55, 95
2, 268320, Note_off_c, 0, 48, 95
2, 268320, Note_on_c, 0, 64, 95
2, 268320, Note_on_c, 0, 59, 95
2, 268399, Note_off_c, 0, 64, 95
2, 268399, Note_off_c, 0, 59, 95
2, 268800, Note_on_c, 0, 65, 95
2, 268800, Note_on_c, 0, 60, 95
2, 269280, Note_off_c, 0, 65, 95
2, 269280, Note_off_c, 0, 60, 95
2, 269280, Note_on_c, 0, 65, 47
2, 269280, Note_on_c, 0, 60, 47
2, 270240, Note_off_c, 0, 65, 47
2, 270240, Note_off_c, 0, 60, 47
2, 270240, Note_on_c, 0, 65, 95
2, 270240, Note_on_c, 0, 60, 95
2, 270720, Note_off_c, 0, 65, 95
2, 270720, Note_off_c, 0, 60, 95
2, 270720, Note_on_c, 0, 58, 95
2, 271200, Note_off_c, 0, 58, 95
2, 271200, Note_on_c, 0, 56, 70
2, 271680, Note_off_c, 0, 56, 70
2, 271680, Note_on_c, 0, 53, 95
2, 272160, Note_off_c, 0, 53, 95
2, 272160, Note_on_c, 0, 62, 95
2, 272160, Note_on_c, 0, 58, 95
2, 272640, Note_off_c, 0, 62, 95
2, 272640, Note_off_c, 0, 58, 95
2, 272640, Note_on_c, 0, 62, 95
2, 272640, Pitch_bend_c, 1, 8192
2, 272640, Note_on_c, 1, 58, 95
2, 272880, Pitch_bend_c, 1, 8320
2, 273120, Pitch_bend_c, 1, 8448
2, 273120, Pitch_bend_c, 1, 8448
2, 273600, Note_off_c, 0, 62, 95
2, 273600, Pitch_bend_c, 1, 8448
2, 273600, Pitch_bend_c, 1, 8192
2, 273600, Note_off_c, 1, 58, 95
2, 273600, Note_on_c, 0, 55, 95
2, 274080, Note_off_c, 0, 55, 95
2, 274080, Note_on_c, 0, 64, 95
2, 274080, Note_on_c, 0, 60, 95
2, 274560, Note_off_c, 0, 64, 95
2, 274560, Note_off_c, 0, 60, 95
2, 274560, Note_on_c, 0, 62, 95
2, 274560, Note_on_c, 0, 58, 95
2, 276000, Note_off_c, 0, 62, 95
2, 276000, Note_off_c, 0, 58, 95
2, 276480, Note_on_c, 0, 55, 95
2, 276480, Note_on_c, 0, 48, 95
2, 277440, Note_off_c, 0, 55, 95
2, 277440, Note_off_c, 0, 48, 95
2, 277440, Note_on_c, 0, 55, 95
2, 277440, Note_on_c, 0, 48, 95
2, 277920, Note_off_c, 0, 55, 95
2, 277920, Note_off_c, 0, 48, 95
2, 277920, Note_on_c, 0, 57, 95
2, 277920, Note_on_c, 0, 48, 95
2, 278400, Note_off_c, 0, 57, 95
2, 278400, Note_off_c, 0, 48, 95
2, 278400, Note_on_c, 0, 55, 95
2, 278400, Note_on_c, 0, 48, 95
2, 278880, Note_off_c, 0, 55, 95
2, 278880, Note_off_c, 0, 48, 95
2, 278880, Note_on_c, 0, 55, 95
2, 278880, Note_on_c, 0, 48, 95
2, 279360, Note_off_c, 0, 55, 95
2, 279360, Note_off_c, 0, 48, 95
2, 279360, Note_on_c, 0, 55, 95
2, 279360, Note_on_c, 0, 48, 95
2, 279840, Note_off_c, 0, 55, 95
2, 279840, Note_off_c, 0, 48, 95
2, 279840, Note_on_c, 0, 57, 95
2, 279840, Note_on_c, 0, 48, 95
2, 280320, Note_off_c, 0, 57, 95
2, 280320, Note_off_c, 0, 48, 95
2, 280320, Note_on_c, 0, 55, 95
2, 280320, Note_on_c, 0, 48, 95
2, 281280, Note_off_c, 0, 55, 95
2, 281280, Note_off_c, 0, 48, 95
2, 281280, Note_on_c, 0, 55, 95
2, 281280, Note_on_c, 0, 48, 95
2, 281760, Note_off_c, 0, 55, 95
2, 281760, Note_off_c, 0, 48, 95
2, 281760, Note_on_c, 0, 57, 95
2, 281760, Note_on_c, 0, 48, 95
2, 282240, Note_off_c, 0, 57, 95
2, 282240, Note_off_c, 0, 48, 95
2, 282240, Note_on_c, 0, 55, 95
2, 282240, Note_on_c, 0, 48, 95
2, 282720, Note_off_c, 0, 55, 95
2, 282720, Note_off_c, 0, 48, 95
2, 282720, Note_on_c, 0, 55, 95
2, 282720, Note_on_c, 0, 48, 95
2, 283200, Note_off_c, 0, 55, 95
2, 283200, Note_off_c, 0, 48, 95
2, 283200, Note_on_c, 0, 55, 95
2, 283200, Note_on_c, 0, 48, 95
2, 283680, Note_off_c, 0, 55, 95
2, 283680, Note_off_c, 0, 48, 95
2, 283680, Note_on_c, 0, 50, 95
2, 283680, Note_on_c, 0, 45, 95
2, 283759, Note_off_c, 0, 50, 95
2, 283759, Note_off_c, 0, 45, 95
2, 284160, Note_on_c, 0, 65, 95
2, 284160, Note_on_c, 0, 60, 95
2, 284640, Note_off_c, 0, 65, 95
2, 284640, Note_off_c, 0, 60, 95
2, 284640, Note_on_c, 0, 65, 47
2, 284640, Note_on_c, 0, 60, 47
2, 285120, Note_off_c, 0, 65, 47
2, 285120, Note_off_c, 0, 60, 47
2, 285120, Pitch_bend_c, 1, 8192
2, 285120, Note_on_c, 1, 58, 95
2, 285163, Pitch_bend_c, 1, 8320
2, 285206, Pitch_bend_c, 1, 8448
2, 285249, Pitch_bend_c, 1, 8576
2, 285292, Pitch_bend_c, 1, 8704
2, 285335, Pitch_bend_c, 1, 8832
2, 285378, Pitch_bend_c, 1, 8960
2, 285421, Pitch_bend_c, 1, 9088
2, 285464, Pitch_bend_c, 1, 9216
2, 285507, Pitch_bend_c, 1, 9344
2, 285550, Pitch_bend_c, 1, 9472
2, 285593, Pitch_bend_c, 1, 9600
2, 285600, Pitch_bend_c, 1, 9600
2, 286080, Pitch_bend_c, 1, 9600
2, 286080, Pitch_bend_c, 1, 8192
2, 286080, Note_off_c, 1, 58, 95
2, 286080, Note_on_c, 0, 65, 95
2, 286080, Note_on_c, 0, 60, 95
2, 286560, Note_off_c, 0, 65, 95
2, 286560, Note_off_c, 0, 60, 95
2, 286560, Pitch_bend_c, 1, 8192
2, 286560, Note_on_c, 1, 58, 95
2, 286570, Pitch_bend_c, 1, 8320
2, 286580, Pitch_bend_c, 1, 8448
2, 286590, Pitch_bend_c, 1, 8576
2, 286600, Pitch_bend_c, 1, 8704
2, 286610, Pitch_bend_c, 1, 8832
2, 286620, Pitch_bend_c, 1, 8960
2, 286630, Pitch_bend_c, 1, 9088
2, 286640, Pitch_bend_c, 1, 9216
2, 286650, Pitch_bend_c, 1, 9344
2, 286660, Pitch_bend_c, 1, 9472
2, 286670, Pitch_bend_c, 1, 9600
2, 286680, Pitch_bend_c, 1, 9600
2, 286800, Pitch_bend_c, 1, 9600
2, 286810, Pitch_bend_c, 1, 9472
2, 286820, Pitch_bend_c, 1, 9344
2, 286830, Pitch_bend_c, 1, 9216
2, 286840, Pitch_bend_c, 1, 9088
2, 286850, Pitch_bend_c, 1, 8960
2, 286860, Pitch_bend_c, 1, 8832
2, 286870, Pitch_bend_c, 1, 8704
2, 286880, Pitch_bend_c, 1, 8576
2, 286890, Pitch_bend_c, 1, 8448
2, 286900, Pitch_bend_c, 1, 8320
2, 286910, Pitch_bend_c, 1, 8192
2, 286920, Pitch_bend_c, 1, 8192
2, 287040, Pitch_bend_c, 1, 8192
2, 287040, Pitch_bend_c, 1, 8192
2, 287040, Note_off_c, 1, 58, 95
2, 287040, Note_on_c, 0, 58, 47
2, 287520, Note_off_c, 0, 58, 47
2, 287520, Note_on_c, 0, 56, 95
2, 288000, Note_off_c, 0, 56, 95
2, 288000, Note_on_c, 0, 62, 95
2, 288000, Pitch_bend_c, 1, 8192
2, 288000, Note_on_c, 1, 60, 95
2, 288043, Pitch_bend_c, 1, 8320
2, 288086, Pitch_bend_c, 1, 8448
2, 288129, Pitch_bend_c, 1, 8576
2, 288172, Pitch_bend_c, 1, 8704
2, 288215, Pitch_bend_c, 1, 8832
2, 288258, Pitch_bend_c, 1, 8960
2, 288301, Pitch_bend_c, 1, 9088
2, 288344, Pitch_bend_c, 1, 9216
2, 288387, Pitch_bend_c, 1, 9344
2, 288430, Pitch_bend_c, 1, 9472
2, 288473, Pitch_bend_c, 1, 9600
2, 288480, Pitch_bend_c, 1, 9600
2, 288960, Note_off_c, 0, 62, 95
2, 288960, Pitch_bend_c, 1, 9600
2, 288960, Pitch_bend_c, 1, 8192
2, 288960, Note_off_c, 1, 60, 95
2, 288960, Note_on_c, 0, 62, 95
2, 288960, Pitch_bend_c, 1, 9600
2, 288960, Note_on_c, 1, 60, 95
2, 289440, Note_off_c, 0, 62, 95
2, 289440, Pitch_bend_c, 1, 9600
2, 289440, Pitch_bend_c, 1, 8192
2, 289440, Note_off_c, 1, 60, 95
2, 289440, Note_on_c, 0, 62, 95
2, 289440, Pitch_bend_c, 1, 9600
2, 289440, Note_on_c, 1, 60, 95
2, 289920, Note_off_c, 0, 62, 95
2, 289920, Pitch_bend_c, 1, 9600
2, 289920, Pitch_bend_c, 1, 8192
2, 289920, Note_off_c, 1, 60, 95
2, 289920, Note_on_c, 0, 62, 95
2, 289920, Pitch_bend_c, 1, 9600
2, 289920, Note_on_c, 1, 60, 95
2, 290400, Note_off_c, 0, 62, 95
2, 290400, Pitch_bend_c, 1, 9600
2, 290400, Pitch_bend_c, 1, 8192
2, 290400, Note_off_c, 1, 60, 95
2, 290400, Note_on_c, 0, 62, 95
2, 290400, Pitch_bend_c, 1, 9600
2, 290400, Note_on_c, 1, 60, 95
2, 290880, Note_off_c, 0, 62, 95
2, 290880, Pitch_bend_c, 1, 9600
2, 290880, Pitch_bend_c, 1, 8192
2, 290880, Note_off_c, 1, 60, 95
2, 290880, Note_on_c, 0, 60, 95
2, 291360, Note_off_c, 0, 60, 95
2, 291360, Note_on_c, 0, 58, 95
2, 291840, Note_off_c, 0, 58, 95
2, 291840, Note_on_c, 0, 57, 95
2, 292080, Note_off_c, 0, 57, 95
2, 292080, Note_on_c, 0, 55, 70
2, 292320, Note_off_c, 0, 55, 70
2, 292320, Note_on_c, 0, 57, 70
2, 292560, Note_off_c, 0, 57, 70
2, 292560, Note_on_c, 0, 55, 70
2, 292800, Note_off_c, 0, 55, 70
2, 292800, Note_on_c, 0, 57, 70
2, 293040, Note_off_c, 0, 57, 70
2, 293040, Note_on_c, 0, 55, 70
2, 293280, Note_off_c, 0, 55, 70
2, 293280, Note_on_c, 0, 58, 70
2, 293520, Note_off_c, 0, 58, 70
2, 293520, Note_on_c, 0, 55, 70
2, 293760, Note_off_c, 0, 55, 70
2, 293760, Note_on_c, 0, 58, 70
2, 294000, Note_off_c, 0, 58, 70
2, 294000, Note_on_c, 0, 55, 70
2, 294240, Note_off_c, 0, 55, 70
2, 294240, Note_on_c, 0, 57, 70
2, 294480, Note_off_c, 0, 57, 70
2, 294480, Note_on_c, 0, 55, 70
2, 294720, Note_off_c, 0, 55, 70
2, 294720, Note_on_c, 0, 58, 70
2, 294960, Note_off_c, 0, 58, 70
2, 294960, Note_on_c, 0, 55, 70
2, 295200, Note_off_c, 0, 55, 70
2, 295200, Pitch_bend_c, 1, 8192
2, 295200, Note_on_c, 1, 58, 95
2, 295243, Pitch_bend_c, 1, 8320
2, 295286, Pitch_bend_c, 1, 8448
2, 295329, Pitch_bend_c, 1, 8576
2, 295372, Pitch_bend_c, 1, 8704
2, 295415, Pitch_bend_c, 1, 8832
2, 295458, Pitch_bend_c, 1, 8960
2, 295501, Pitch_bend_c, 1, 9088
2, 295544, Pitch_bend_c, 1, 9216
2, 295587, Pitch_bend_c, 1, 9344
2, 295630, Pitch_bend_c, 1, 9472
2, 295673, Pitch_bend_c, 1, 9600
2, 295680, Pitch_bend_c, 1, 9600
2, 296160, Pitch_bend_c, 1, 9600
2, 296160, Pitch_bend_c, 1, 8192
2, 296160, Note_off_c, 1, 58, 95
2, 296160, Pitch_bend_c, 1, 8192
2, 296160, Note_on_c, 1, 58, 95
2, 296290, Pitch_bend_c, 1, 8320
2, 296420, Pitch_bend_c, 1, 8448
2, 296550, Pitch_bend_c, 1, 8576
2, 296680, Pitch_bend_c, 1, 8704
2, 296810, Pitch_bend_c, 1, 8832
2, 296940, Pitch_bend_c, 1, 8960
2, 297070, Pitch_bend_c, 1, 9088
2, 297200, Pitch_bend_c, 1, 9216
2, 297330, Pitch_bend_c, 1, 9344
2, 297460, Pitch_bend_c, 1, 9472
2, 297590, Pitch_bend_c, 1, 9600
2, 297600, Pitch_bend_c, 1, 9600
2, 299040, Pitch_bend_c, 1, 9600
2, 299040, Pitch_bend_c, 1, 8192
2, 299040, Note_off_c, 1, 58, 95
2, 299040, Note_on_c, 0, 55, 95
2, 299119, Note_off_c, 0, 55, 95
2, 300000, Note_on_c, 0, 69, 95
2, 300000, Note_on_c, 0, 65, 95
2, 300000, Note_on_c, 0, 60, 95
2, 300000, Note_on_c, 0, 53, 127
2, 300960, Note_off_c, 0, 69, 95
2, 300960, Note_off_c, 0, 65, 95
2, 300960, Note_off_c, 0, 60, 95
2, 300960, Note_off_c, 0, 53, 127
2, 300960, Note_on_c, 0, 69, 95
2, 300960, Note_on_c, 0, 65, 95
2, 300960, Note_on_c, 0, 60, 95
2, 300960, Note_on_c, 0, 53, 127
2, 301920, Note_off_c, 0, 69, 95
2, 301920, Note_off_c, 0, 65, 95
2, 301920, Note_off_c, 0, 60, 95
2, 301920, Note_off_c, 0, 53, 127
2, 301920, Note_on_c, 0, 59, 95
2, 301920, Note_on_c, 0, 55, 95
2, 301920, Note_on_c, 0, 50, 95
2, 301920, Note_on_c, 0, 45, 95
2, 301999, Note_off_c, 0, 59, 95
2, 301999, Note_off_c, 0, 55, 95
2, 301999, Note_off_c, 0, 50, 95
2, 301999, Note_off_c, 0, 45, 95
2, 302400, Note_on_c, 0, 69, 95
2, 302400, Note_on_c, 0, 65, 95
2, 302400, Note_on_c, 0, 60, 95
2, 302400, Note_on_c, 0, 53, 127
2, 302880, Note_off_c, 0, 69, 95
2, 302880, Note_off_c, 0, 65, 95
2, 302880, Note_off_c, 0, 60, 95
2, 302880, Note_off_c, 0, 53, 127
2, 303360, Note_on_c, 0, 69, 95
2, 303360, Note_on_c, 0, 65, 95
2, 303360, Note_on_c, 0, 60, 95
2, 303360, Note_on_c, 0, 53, 127
2, 304320, Note_off_c, 0, 69, 95
2, 304320, Note_off_c, 0, 65, 95
2, 304320, Note_off_c, 0, 60, 95
2, 304320, Note_off_c, 0, 53, 127
2, 304320, Note_on_c, 0, 69, 95
2, 304320, Note_on_c, 0, 65, 95
2, 304320, Note_on_c, 0, 60, 95
2, 304320, Note_on_c, 0, 53, 95
2, 304800, Note_off_c, 0, 69, 95
2, 304800, Note_off_c, 0, 65, 95
2, 304800, Note_off_c, 0, 60, 95
2, 304800, Note_off_c, 0, 53, 95
2, 304800, Note_on_c, 0, 69, 95
2, 304800, Note_on_c, 0, 65, 95
2, 304800, Note_on_c, 0, 60, 95
2, 304800, Note_on_c, 0, 53, 95
2, 305760, Note_off_c, 0, 69, 95
2, 305760, Note_off_c, 0, 65, 95
2, 305760, Note_off_c, 0, 60, 95
2, 305760, Note_off_c, 0, 53, 95
2, 305760, Note_on_c, 0, 59, 95
2, 305760, Note_on_c, 0, 55, 95
2, 305760, Note_on_c, 0, 50, 95
2, 305760, Note_on_c, 0, 45, 95
2, 305839, Note_off_c, 0, 59, 95
2, 305839, Note_off_c, 0, 55, 95
2, 305839, Note_off_c, 0, 50, 95
2, 305839, Note_off_c, 0, 45, 95
2, 306240, Note_on_c, 0, 69, 95
2, 306240, Note_on_c, 0, 65, 95
2, 306240, Note_on_c, 0, 60, 95
2, 306240, Note_on_c, 0, 53, 127
2, 307200, Note_off_c, 0, 69, 95
2, 307200, Note_off_c, 0, 65, 95
2, 307200, Note_off_c, 0, 60, 95
2, 307200, Note_off_c, 0, 53, 127
2, 307200, Note_on_c, 0, 69, 95
2, 307200, Note_on_c, 0, 65, 95
2, 307200, Note_on_c, 0, 60, 95
2, 307200, Note_on_c, 0, 53, 127
2, 307680, Note_off_c, 0, 69, 95
2, 307680, Note_off_c, 0, 65, 95
2, 307680, Note_off_c, 0, 60, 95
2, 307680, Note_off_c, 0, 53, 127
2, 307680, Note_on_c, 0, 69, 47
2, 307680, Note_on_c, 0, 65, 47
2, 307680, Note_on_c, 0, 60, 47
2, 307680, Note_on_c, 0, 53, 47
2, 308640, Note_off_c, 0, 69, 47
2, 308640, Note_off_c, 0, 65, 47
2, 308640, Note_off_c, 0, 60, 47
2, 308640, Note_off_c, 0, 53, 47
2, 308640, Note_on_c, 0, 69, 95
2, 308640, Note_on_c, 0, 65, 95
2, 308640, Note_on_c, 0, 60, 95
2, 308640, Note_on_c, 0, 53, 127
2, 309120, Note_off_c, 0, 69, 95
2, 309120, Note_off_c, 0, 65, 95
2, 309120, Note_off_c, 0, 60, 95
2, 309120, Note_off_c, 0, 53, 127
2, 309600, Note_on_c, 0, 69, 95
2, 309600, Note_on_c, 0, 65, 95
2, 309600, Note_on_c, 0, 60, 95
2, 309600, Note_on_c, 0, 53, 127
2, 310080, Note_off_c, 0, 69, 95
2, 310080, Note_off_c, 0, 65, 95
2, 310080, Note_off_c, 0, 60, 95
2, 310080, Note_off_c, 0, 53, 127
2, 310080, Note_on_c, 0, 69, 95
2, 310080, Note_on_c, 0, 65, 95
2, 310080, Note_on_c, 0, 60, 95
2, 310080, Note_on_c, 0, 53, 127
2, 310560, Note_off_c, 0, 69, 95
2, 310560, Note_off_c, 0, 65, 95
2, 310560, Note_off_c, 0, 60, 95
2, 310560, Note_off_c, 0, 53, 127
2, 311040, Note_on_c, 0, 69, 95
2, 311040, Note_on_c, 0, 65, 95
2, 311040, Note_on_c, 0, 60, 95
2, 311040, Note_on_c, 0, 53, 127
2, 311520, Note_off_c, 0, 69, 95
2, 311520, Note_off_c, 0, 65, 95
2, 311520, Note_off_c, 0, 60, 95
2, 311520, Note_off_c, 0, 53, 127
2, 312000, Note_on_c, 0, 69, 95
2, 312000, Note_on_c, 0, 65, 95
2, 312000, Note_on_c, 0, 60, 95
2, 312000, Note_on_c, 0, 53, 127
2, 312480, Note_off_c, 0, 69, 95
2, 312480, Note_off_c, 0, 65, 95
2, 312480, Note_off_c, 0, 60, 95
2, 312480, Note_off_c, 0, 53, 127
2, 312960, Note_on_c, 0, 69, 95
2, 312960, Note_on_c, 0, 65, 95
2, 312960, Note_on_c, 0, 60, 95
2, 312960, Note_on_c, 0, 53, 127
2, 313440, Note_off_c, 0, 69, 95
2, 313440, Note_off_c, 0, 65, 95
2, 313440, Note_off_c, 0, 60, 95
2, 313440, Note_off_c, 0, 53, 127
2, 313440, Note_on_c, 0, 69, 95
2, 313440, Note_on_c, 0, 65, 95
2, 313440, Note_on_c, 0, 60, 95
2, 313440, Note_on_c, 0, 53, 127
2, 314400, Note_off_c, 0, 69, 95
2, 314400, Note_off_c, 0, 65, 95
2, 314400, Note_off_c, 0, 60, 95
2, 314400, Note_off_c, 0, 53, 127
2, 314880, Note_on_c, 0, 62, 95
2, 314880, Note_on_c, 0, 58, 95
2, 314880, Note_on_c, 0, 53, 95
2, 314880, Note_on_c, 0, 46, 95
2, 315120, Note_off_c, 0, 62, 95
2, 315120, Note_off_c, 0, 58, 95
2, 315120, Note_off_c, 0, 53, 95
2, 315120, Note_off_c, 0, 46, 95
2, 315120, Note_on_c, 0, 62, 95
2, 315120, Note_on_c, 0, 58, 95
2, 315120, Note_on_c, 0, 53, 95
2, 315120, Note_on_c, 0, 46, 95
2, 315360, Note_off_c, 0, 62, 95
2, 315360, Note_off_c, 0, 58, 95
2, 315360, Note_off_c, 0, 53, 95
2, 315360, Note_off_c, 0, 46, 95
2, 315360, Note_on_c, 0, 62, 95
2, 315360, Note_on_c, 0, 58, 95
2, 315360, Note_on_c, 0, 53, 95
2, 315360, Note_on_c, 0, 46, 127
2, 317280, Note_off_c, 0, 62, 95
2, 317280, Note_off_c, 0, 58, 95
2, 317280, Note_off_c, 0, 53, 95
2, 317280, Note_off_c, 0, 46, 127
2, 318720, Note_on_c, 0, 59, 95
2, 318720, Note_on_c, 0, 55, 95
2, 318720, Note_on_c, 0, 50, 95
2, 318720, Note_on_c, 0, 43, 95
2, 319200, Note_off_c, 0, 59, 95
2, 319200, Note_off_c, 0, 55, 95
2, 319200, Note_off_c, 0, 50, 95
2, 319200, Note_off_c, 0, 43, 95
2, 319200, Note_on_c, 0, 59, 47
2, 319200, Note_on_c, 0, 55, 47
2, 319200, Note_on_c, 0, 50, 47
2, 319200, Note_on_c, 0, 43, 79
2, 321120, Note_off_c, 0, 59, 47
2, 321120, Note_off_c, 0, 55, 47
2, 321120, Note_off_c, 0, 50, 47
2, 321120, Note_off_c, 0, 43, 79
2, 322560, Note_on_c, 0, 59, 95
2, 322560, Note_on_c, 0, 54, 95
2, 322560, Note_on_c, 0, 47, 95
2, 323040, Note_off_c, 0, 59, 95
2, 323040, Note_off_c, 0, 54, 95
2, 323040, Note_off_c, 0, 47, 95
2, 323040, Note_on_c, 1, 59, 95
2, 323040, Note_on_c, 1, 54, 95
2, 323040, Note_on_c, 1, 47, 127
2, 323160, Pitch_bend_c, 1, 8320
2, 323160, Pitch_bend_c, 1, 8320
2, 323160, Pitch_bend_c, 1, 8320
2, 323280, Pitch_bend_c, 1, 8448
2, 323280, Pitch_bend_c, 1, 8448
2, 323280, Pitch_bend_c, 1, 8448
2, 323400, Pitch_bend_c, 1, 8704
2, 323400, Pitch_bend_c, 1, 8704
2, 323400, Pitch_bend_c, 1, 8704
2, 323520, Pitch_bend_c, 1, 8832
2, 323520, Pitch_bend_c, 1, 8192
2, 323520, Note_off_c, 1, 59, 95
2, 323520, Pitch_bend_c, 1, 8832
2, 323520, Pitch_bend_c, 1, 8192
2, 323520, Note_off_c, 1, 54, 95
2, 323520, Pitch_bend_c, 1, 8832
2, 323520, Pitch_bend_c, 1, 8192
2, 323520, Note_off_c, 1, 47, 127
2, 323520, Note_on_c, 0, 60, 95
2, 323520, Note_on_c, 0, 55, 95
2, 323520, Note_on_c, 0, 48, 95
2, 324000, Note_off_c, 0, 60, 95
2, 324000, Note_off_c, 0, 55, 95
2, 324000, Note_off_c, 0, 48, 95
2, 324000, Note_on_c, 0, 60, 95
2, 324000, Note_on_c, 0, 55, 95
2, 324000, Note_on_c, 0, 48, 95
2, 324480, Note_off_c, 0, 60, 95
2, 324480, Note_off_c, 0, 55, 95
2, 324480, Note_off_c, 0, 48, 95
2, 324480, Note_on_c, 0, 60, 95
2, 324480, Note_on_c, 0, 55, 95
2, 324480, Note_on_c, 0, 48, 95
2, 324960, Note_off_c, 0, 60, 95
2, 324960, Note_off_c, 0, 55, 95
2, 324960, Note_off_c, 0, 48, 95
2, 324960, Note_on_c, 1, 59, 95
2, 324960, Note_on_c, 1, 54, 95
2, 324960, Note_on_c, 1, 47, 127
2, 325080, Pitch_bend_c, 1, 8320
2, 325080, Pitch_bend_c, 1, 8320
2, 325080, Pitch_bend_c, 1, 8320
2, 325200, Pitch_bend_c, 1, 8448
2, 325200, Pitch_bend_c, 1, 8448
2, 325200, Pitch_bend_c, 1, 8448
2, 325320, Pitch_bend_c, 1, 8704
2, 325320, Pitch_bend_c, 1, 8704
2, 325320, Pitch_bend_c, 1, 8704
2, 325440, Pitch_bend_c, 1, 8832
2, 325440, Pitch_bend_c, 1, 8192
2, 325440, Note_off_c, 1, 59, 95
2, 325440, Pitch_bend_c, 1, 8832
2, 325440, Pitch_bend_c, 1, 8192
2, 325440, Note_off_c, 1, 54, 95
2, 325440, Pitch_bend_c, 1, 8832
2, 325440, Pitch_bend_c, 1, 8192
2, 325440, Note_off_c, 1, 47, 127
2, 325440, Note_on_c, 0, 60, 95
2, 325440, Note_on_c, 0, 55, 95
2, 325440, Note_on_c, 0, 48, 95
2, 325920, Note_off_c, 0, 60, 95
2, 325920, Note_off_c, 0, 55, 95
2, 325920, Note_off_c, 0, 48, 95
2, 325920, Note_on_c, 0, 60, 95
2, 325920, Note_on_c, 0, 55, 95
2, 325920, Note_on_c, 0, 48, 95
2, 326400, Note_off_c, 0, 60, 95
2, 326400, Note_off_c, 0, 55, 95
2, 326400, Note_off_c, 0, 48, 95
2, 326400, Note_on_c, 0, 60, 95
2, 326400, Note_on_c, 0, 55, 95
2, 326400, Note_on_c, 0, 48, 95
2, 326880, Note_off_c, 0, 60, 95
2, 326880, Note_off_c, 0, 55, 95
2, 326880, Note_off_c, 0, 48, 95
2, 326880, Note_on_c, 1, 59, 95
2, 326880, Note_on_c, 1, 54, 95
2, 326880, Note_on_c, 1, 47, 127
2, 327000, Pitch_bend_c, 1, 8320
2, 327000, Pitch_bend_c, 1, 8320
2, 327000, Pitch_bend_c, 1, 8320
2, 327120, Pitch_bend_c, 1, 8448
2, 327120, Pitch_bend_c, 1, 8448
2, 327120, Pitch_bend_c, 1, 8448
2, 327240, Pitch_bend_c, 1, 8704
2, 327240, Pitch_bend_c, 1, 8704
2, 327240, Pitch_bend_c, 1, 8704
2, 327360, Pitch_bend_c, 1, 8832
2, 327360, Pitch_bend_c, 1, 8192
2, 327360, Note_off_c, 1, 59, 95
2, 327360, Pitch_bend_c, 1, 8832
2, 327360, Pitch_bend_c, 1, 8192
2, 327360, Note_off_c, 1, 54, 95
2, 327360, Pitch_bend_c, 1, 8832
2, 327360, Pitch_bend_c, 1, 8192
2, 327360, Note_off_c, 1, 47, 127
2, 327360, Note_on_c, 0, 60, 95
2, 327360, Note_on_c, 0, 55, 95
2, 327360, Note_on_c, 0, 48, 95
2, 327840, Note_off_c, 0, 60, 95
2, 327840, Note_off_c, 0, 55, 95
2, 327840, Note_off_c, 0, 48, 95
2, 327840, Note_on_c, 0, 60, 95
2, 327840, Note_on_c, 0, 55, 95
2, 327840, Note_on_c, 0, 48, 95
2, 328320, Note_off_c, 0, 60, 95
2, 328320, Note_off_c, 0, 55, 95
2, 328320, Note_off_c, 0, 48, 95
2, 328320, Note_on_c, 0, 60, 95
2, 328320, Note_on_c, 0, 55, 95
2, 328320, Note_on_c, 0, 48, 95
2, 329280, Note_off_c, 0, 60, 95
2, 329280, Note_off_c, 0, 55, 95
2, 329280, Note_off_c, 0, 48, 95
2, 329280, Note_on_c, 0, 60, 95
2, 329280, Note_on_c, 0, 55, 95
2, 329280, Note_on_c, 0, 48, 95
2, 329760, Note_off_c, 0, 60, 95
2, 329760, Note_off_c, 0, 55, 95
2, 329760, Note_off_c, 0, 48, 95
2, 329760, Note_on_c, 0, 60, 95
2, 329760, Note_on_c, 0, 55, 95
2, 329760, Note_on_c, 0, 48, 95
2, 330240, Note_off_c, 0, 60, 95
2, 330240, Note_off_c, 0, 55, 95
2, 330240, Note_off_c, 0, 48, 95
2, 330240, Note_on_c, 0, 50, 95
2, 330240, Note_on_c, 0, 45, 95
2, 330240, Note_on_c, 0, 40, 95
2, 330319, Note_off_c, 0, 50, 95
2, 330319, Note_off_c, 0, 45, 95
2, 330319, Note_off_c, 0, 40, 95
2, 330720, Note_on_c, 0, 69, 95
2, 330720, Note_on_c, 0, 65, 95
2, 330720, Note_on_c, 0, 60, 95
2, 330720, Note_on_c, 0, 53, 127
2, 331680, Note_off_c, 0, 69, 95
2, 331680, Note_off_c, 0, 65, 95
2, 331680, Note_off_c, 0, 60, 95
2, 331680, Note_off_c, 0, 53, 127
2, 331680, Note_on_c, 0, 69, 95
2, 331680, Note_on_c, 0, 65, 95
2, 331680, Note_on_c, 0, 60, 95
2, 331680, Note_on_c, 0, 53, 127
2, 332640, Note_off_c, 0, 69, 95
2, 332640, Note_off_c, 0, 65, 95
2, 332640, Note_off_c, 0, 60, 95
2, 332640, Note_off_c, 0, 53, 127
2, 332640, Note_on_c, 0, 59, 95
2, 332640, Note_on_c, 0, 55, 95
2, 332640, Note_on_c, 0, 50, 95
2, 332640, Note_on_c, 0, 45, 95
2, 332719, Note_off_c, 0, 59, 95
2, 332719, Note_off_c, 0, 55, 95
2, 332719, Note_off_c, 0, 50, 95
2, 332719, Note_off_c, 0, 45, 95
2, 333120, Note_on_c, 0, 69, 95
2, 333120, Note_on_c, 0, 65, 95
2, 333120, Note_on_c, 0, 60, 95
2, 333120, Note_on_c, 0, 53, 127
2, 333600, Note_off_c, 0, 69, 95
2, 333600, Note_off_c, 0, 65, 95
2, 333600, Note_off_c, 0, 60, 95
2, 333600, Note_off_c, 0, 53, 127
2, 334080, Note_on_c, 0, 69, 95
2, 334080, Note_on_c, 0, 65, 95
2, 334080, Note_on_c, 0, 60, 95
2, 334080, Note_on_c, 0, 53, 127
2, 335040, Note_off_c, 0, 69, 95
2, 335040, Note_off_c, 0, 65, 95
2, 335040, Note_off_c, 0, 60, 95
2, 335040, Note_off_c, 0, 53, 127
2, 335040, Note_on_c, 0, 69, 95
2, 335040, Note_on_c, 0, 65, 95
2, 335040, Note_on_c, 0, 60, 95
2, 335040, Note_on_c, 0, 53, 95
2, 335520, Note_off_c, 0, 69, 95
2, 335520, Note_off_c, 0, 65, 95
2, 335520, Note_off_c, 0, 60, 95
2, 335520, Note_off_c, 0, 53, 95
2, 335520, Note_on_c, 0, 69, 95
2, 335520, Note_on_c, 0, 65, 95
2, 335520, Note_on_c, 0, 60, 95
2, 335520, Note_on_c, 0, 53, 95
2, 336480, Note_off_c, 0, 69, 95
2, 336480, Note_off_c, 0, 65, 95
2, 336480, Note_off_c, 0, 60, 95
2, 336480, Note_off_c, 0, 53, 95
2, 336480, Note_on_c, 0, 59, 95
2, 336480, Note_on_c, 0, 55, 95
2, 336480, Note_on_c, 0, 50, 95
2, 336480, Note_on_c, 0, 45, 95
2, 336559, Note_off_c, 0, 59, 95
2, 336559, Note_off_c, 0, 55, 95
2, 336559, Note_off_c, 0, 50, 95
2, 336559, Note_off_c, 0, 45, 95
2, 336960, Note_on_c, 0, 69, 95
2, 336960, Note_on_c, 0, 65, 95
2, 336960, Note_on_c, 0, 60, 95
2, 336960, Note_on_c, 0, 53, 127
2, 337920, Note_off_c, 0, 69, 95
2, 337920, Note_off_c, 0, 65, 95
2, 337920, Note_off_c, 0, 60, 95
2, 337920, Note_off_c, 0, 53, 127
2, 337920, Note_on_c, 0, 69, 95
2, 337920, Note_on_c, 0, 65, 95
2, 337920, Note_on_c, 0, 60, 95
2, 337920, Note_on_c, 0, 53, 127
2, 338400, Note_off_c, 0, 69, 95
2, 338400, Note_off_c, 0, 65, 95
2, 338400, Note_off_c, 0, 60, 95
2, 338400, Note_off_c, 0, 53, 127
2, 338400, Note_on_c, 0, 69, 47
2, 338400, Note_on_c, 0, 65, 47
2, 338400, Note_on_c, 0, 60, 47
2, 338400, Note_on_c, 0, 53, 47
2, 339360, Note_off_c, 0, 69, 47
2, 339360, Note_off_c, 0, 65, 47
2, 339360, Note_off_c, 0, 60, 47
2, 339360, Note_off_c, 0, 53, 47
2, 339360, Note_on_c, 0, 69, 95
2, 339360, Note_on_c, 0, 65, 95
2, 339360, Note_on_c, 0, 60, 95
2, 339360, Note_on_c, 0, 53, 127
2, 339840, Note_off_c, 0, 69, 95
2, 339840, Note_off_c, 0, 65, 95
2, 339840, Note_off_c, 0, 60, 95
2, 339840, Note_off_c, 0, 53, 127
2, 340320, Note_on_c, 0, 69, 95
2, 340320, Note_on_c, 0, 65, 95
2, 340320, Note_on_c, 0, 60, 95
2, 340320, Note_on_c, 0, 53, 127
2, 340800, Note_off_c, 0, 69, 95
2, 340800, Note_off_c, 0, 65, 95
2, 340800, Note_off_c, 0, 60, 95
2, 340800, Note_off_c, 0, 53, 127
2, 340800, Note_on_c, 0, 69, 95
2, 340800, Note_on_c, 0, 65, 95
2, 340800, Note_on_c, 0, 60, 95
2, 340800, Note_on_c, 0, 53, 127
2, 341280, Note_off_c, 0, 69, 95
2, 341280, Note_off_c, 0, 65, 95
2, 341280, Note_off_c, 0, 60, 95
2, 341280, Note_off_c, 0, 53, 127
2, 341760, Note_on_c, 0, 69, 95
2, 341760, Note_on_c, 0, 65, 95
2, 341760, Note_on_c, 0, 60, 95
2, 341760, Note_on_c, 0, 53, 127
2, 342240, Note_off_c, 0, 69, 95
2, 342240, Note_off_c, 0, 65, 95
2, 342240, Note_off_c, 0, 60, 95
2, 342240, Note_off_c, 0, 53, 127
2, 342720, Note_on_c, 0, 69, 95
2, 342720, Note_on_c, 0, 65, 95
2, 342720, Note_on_c, 0, 60, 95
2, 342720, Note_on_c, 0, 53, 127
2, 343200, Note_off_c, 0, 69, 95
2, 343200, Note_off_c, 0, 65, 95
2, 343200, Note_off_c, 0, 60, 95
2, 343200, Note_off_c, 0, 53, 127
2, 343680, Note_on_c, 0, 69, 95
2, 343680, Note_on_c, 0, 65, 95
2, 343680, Note_on_c, 0, 60, 95
2, 343680, Note_on_c, 0, 53, 127
2, 344160, Note_off_c, 0, 69, 95
2, 344160, Note_off_c, 0, 65, 95
2, 344160, Note_off_c, 0, 60, 95
2, 344160, Note_off_c, 0, 53, 127
2, 344160, Note_on_c, 0, 69, 95
2, 344160, Note_on_c, 0, 65, 95
2, 344160, Note_on_c, 0, 60, 95
2, 344160, Note_on_c, 0, 53, 127
2, 345120, Note_off_c, 0, 69, 95
2, 345120, Note_off_c, 0, 65, 95
2, 345120, Note_off_c, 0, 60, 95
2, 345120, Note_off_c, 0, 53, 127
2, 345600, Note_on_c, 0, 62, 95
2, 345600, Note_on_c, 0, 58, 95
2, 345600, Note_on_c, 0, 53, 95
2, 345600, Note_on_c, 0, 46, 95
2, 345840, Note_off_c, 0, 62, 95
2, 345840, Note_off_c, 0, 58, 95
2, 345840, Note_off_c, 0, 53, 95
2, 345840, Note_off_c, 0, 46, 95
2, 345840, Note_on_c, 0, 62, 95
2, 345840, Note_on_c, 0, 58, 95
2, 345840, Note_on_c, 0, 53, 95
2, 345840, Note_on_c, 0, 46, 95
2, 346080, Note_off_c, 0, 62, 95
2, 346080, Note_off_c, 0, 58, 95
2, 346080, Note_off_c, 0, 53, 95
2, 346080, Note_off_c, 0, 46, 95
2, 346080, Note_on_c, 0, 62, 95
2, 346080, Note_on_c, 0, 58, 95
2, 346080, Note_on_c, 0, 53, 95
2, 346080, Note_on_c, 0, 46, 127
2, 348000, Note_off_c, 0, 62, 95
2, 348000, Note_off_c, 0, 58, 95
2, 348000, Note_off_c, 0, 53, 95
2, 348000, Note_off_c, 0, 46, 127
2, 349440, Note_on_c, 0, 59, 95
2, 349440, Note_on_c, 0, 55, 95
2, 349440, Note_on_c, 0, 50, 95
2, 349440, Note_on_c, 0, 43, 95
2, 349920, Note_off_c, 0, 59, 95
2, 349920, Note_off_c, 0, 55, 95
2, 349920, Note_off_c, 0, 50, 95
2, 349920, Note_off_c, 0, 43, 95
2, 349920, Note_on_c, 0, 59, 47
2, 349920, Note_on_c, 0, 55, 47
2, 349920, Note_on_c, 0, 50, 47
2, 349920, Note_on_c, 0, 43, 79
2, 351840, Note_off_c, 0, 59, 47
2, 351840, Note_off_c, 0, 55, 47
2, 351840, Note_off_c, 0, 50, 47
2, 351840, Note_off_c, 0, 43, 79
2, 353280, Note_on_c, 0, 59, 95
2, 353280, Note_on_c, 0, 54, 95
2, 353280, Note_on_c, 0, 47, 95
2, 353760, Note_off_c, 0, 59, 95
2, 353760, Note_off_c, 0, 54, 95
2, 353760, Note_off_c, 0, 47, 95
2, 353760, Note_on_c, 1, 59, 95
2, 353760, Note_on_c, 1, 54, 95
2, 353760, Note_on_c, 1, 47, 127
2, 353880, Pitch_bend_c, 1, 8320
2, 353880, Pitch_bend_c, 1, 8320
2, 353880, Pitch_bend_c, 1, 8320
2, 354000, Pitch_bend_c, 1, 8448
2, 354000, Pitch_bend_c, 1, 8448
2, 354000, Pitch_bend_c, 1, 8448
2, 354120, Pitch_bend_c, 1, 8704
2, 354120, Pitch_bend_c, 1, 8704
2, 354120, Pitch_bend_c, 1, 8704
2, 354240, Pitch_bend_c, 1, 8832
2, 354240, Pitch_bend_c, 1, 8192
2, 354240, Note_off_c, 1, 59, 95
2, 354240, Pitch_bend_c, 1, 8832
2, 354240, Pitch_bend_c, 1, 8192
2, 354240, Note_off_c, 1, 54, 95
2, 354240, Pitch_bend_c, 1, 8832
2, 354240, Pitch_bend_c, 1, 8192
2, 354240, Note_off_c, 1, 47, 127
2, 354240, Note_on_c, 0, 60, 95
2, 354240, Note_on_c, 0, 55, 95
2, 354240, Note_on_c, 0, 48, 95
2, 354720, Note_off_c, 0, 60, 95
2, 354720, Note_off_c, 0, 55, 95
2, 354720, Note_off_c, 0, 48, 95
2, 354720, Note_on_c, 0, 60, 95
2, 354720, Note_on_c, 0, 55, 95
2, 354720, Note_on_c, 0, 48, 95
2, 355200, Note_off_c, 0, 60, 95
2, 355200, Note_off_c, 0, 55, 95
2, 355200, Note_off_c, 0, 48, 95
2, 355200, Note_on_c, 0, 60, 95
2, 355200, Note_on_c, 0, 55, 95
2, 355200, Note_on_c, 0, 48, 95
2, 355680, Note_off_c, 0, 60, 95
2, 355680, Note_off_c, 0, 55, 95
2, 355680, Note_off_c, 0, 48, 95
2, 355680, Note_on_c, 1, 59, 95
2, 355680, Note_on_c, 1, 54, 95
2, 355680, Note_on_c, 1, 47, 127
2, 355800, Pitch_bend_c, 1, 8320
2, 355800, Pitch_bend_c, 1, 8320
2, 355800, Pitch_bend_c, 1, 8320
2, 355920, Pitch_bend_c, 1, 8448
2, 355920, Pitch_bend_c, 1, 8448
2, 355920, Pitch_bend_c, 1, 8448
2, 356040, Pitch_bend_c, 1, 8704
2, 356040, Pitch_bend_c, 1, 8704
2, 356040, Pitch_bend_c, 1, 8704
2, 356160, Pitch_bend_c, 1, 8832
2, 356160, Pitch_bend_c, 1, 8192
2, 356160, Note_off_c, 1, 59, 95
2, 356160, Pitch_bend_c, 1, 8832
2, 356160, Pitch_bend_c, 1, 8192
2, 356160, Note_off_c, 1, 54, 95
2, 356160, Pitch_bend_c, 1, 8832
2, 356160, Pitch_bend_c, 1, 8192
2, 356160, Note_off_c, 1, 47, 127
2, 356160, Note_on_c, 0, 60, 95
2, 356160, Note_on_c, 0, 55, 95
2, 356160, Note_on_c, 0, 48, 95
2, 356640, Note_off_c, 0, 60, 95
2, 356640, Note_off_c, 0, 55, 95
2, 356640, Note_off_c, 0, 48, 95
2, 356640, Note_on_c, 0, 60, 95
2, 356640, Note_on_c, 0, 55, 95
2, 356640, Note_on_c, 0, 48, 95
2, 357120, Note_off_c, 0, 60, 95
2, 357120, Note_off_c, 0, 55, 95
2, 357120, Note_off_c, 0, 48, 95
2, 357120, Note_on_c, 0, 60, 95
2, 357120, Note_on_c, 0, 55, 95
2, 357120, Note_on_c, 0, 48, 95
2, 357600, Note_off_c, 0, 60, 95
2, 357600, Note_off_c, 0, 55, 95
2, 357600, Note_off_c, 0, 48, 95
2, 357600, Note_on_c, 1, 59, 95
2, 357600, Note_on_c, 1, 54, 95
2, 357600, Note_on_c, 1, 47, 127
2, 357720, Pitch_bend_c, 1, 8320
2, 357720, Pitch_bend_c, 1, 8320
2, 357720, Pitch_bend_c, 1, 8320
2, 357840, Pitch_bend_c, 1, 8448
2, 357840, Pitch_bend_c, 1, 8448
2, 357840, Pitch_bend_c, 1, 8448
2, 357960, Pitch_bend_c, 1, 8704
2, 357960, Pitch_bend_c, 1, 8704
2, 357960, Pitch_bend_c, 1, 8704
2, 358080, Pitch_bend_c, 1, 8832
2, 358080, Pitch_bend_c, 1, 8192
2, 358080, Note_off_c, 1, 59, 95
2, 358080, Pitch_bend_c, 1, 8832
2, 358080, Pitch_bend_c, 1, 8192
2, 358080, Note_off_c, 1, 54, 95
2, 358080, Pitch_bend_c, 1, 8832
2, 358080, Pitch_bend_c, 1, 8192
2, 358080, Note_off_c, 1, 47, 127
2, 358080, Note_on_c, 0, 60, 95
2, 358080, Note_on_c, 0, 55, 95
2, 358080, Note_on_c, 0, 48, 95
2, 358560, Note_off_c, 0, 60, 95
2, 358560, Note_off_c, 0, 55, 95
2, 358560, Note_off_c, 0, 48, 95
2, 358560, Note_on_c, 0, 60, 95
2, 358560, Note_on_c, 0, 55, 95
2, 358560, Note_on_c, 0, 48, 95
2, 359040, Note_off_c, 0, 60, 95
2, 359040, Note_off_c, 0, 55, 95
2, 359040, Note_off_c, 0, 48, 95
2, 359040, Note_on_c, 0, 60, 95
2, 359040, Note_on_c, 0, 55, 95
2, 359040, Note_on_c, 0, 48, 95
2, 360000, Note_off_c, 0, 60, 95
2, 360000, Note_off_c, 0, 55, 95
2, 360000, Note_off_c, 0, 48, 95
2, 360000, Note_on_c, 0, 60, 95
2, 360000, Note_on_c, 0, 55, 95
2, 360000, Note_on_c, 0, 48, 95
2, 360480, Note_off_c, 0, 60, 95
2, 360480, Note_off_c, 0, 55, 95
2, 360480, Note_off_c, 0, 48, 95
2, 360480, Note_on_c, 0, 60, 95
2, 360480, Note_on_c, 0, 55, 95
2, 360480, Note_on_c, 0, 48, 95
2, 360960, Note_off_c, 0, 60, 95
2, 360960, Note_off_c, 0, 55, 95
2, 360960, Note_off_c, 0, 48, 95
2, 360960, Note_on_c, 0, 50, 95
2, 360960, Note_on_c, 0, 45, 95
2, 360960, Note_on_c, 0, 40, 95
2, 361039, Note_off_c, 0, 50, 95
2, 361039, Note_off_c, 0, 45, 95
2, 361039, Note_off_c, 0, 40, 95
2, 361440, Note_on_c, 0, 53, 95
2, 361440, Note_on_c, 0, 46, 127
2, 361920, Note_off_c, 0, 53, 95
2, 361920, Note_off_c, 0, 46, 127
2, 361920, Note_on_c, 0, 53, 95
2, 361920, Note_on_c, 0, 46, 95
2, 362400, Note_off_c, 0, 53, 95
2, 362400, Note_off_c, 0, 46, 95
2, 362400, Note_on_c, 0, 55, 95
2, 362400, Note_on_c, 0, 46, 127
2, 362880, Note_off_c, 0, 55, 95
2, 362880, Note_off_c, 0, 46, 127
2, 362880, Note_on_c, 0, 53, 95
2, 362880, Note_on_c, 0, 46, 95
2, 363360, Note_off_c, 0, 53, 95
2, 363360, Note_off_c, 0, 46, 95
2, 363360, Note_on_c, 0, 53, 95
2, 363360, Note_on_c, 0, 46, 127
2, 363840, Note_off_c, 0, 53, 95
2, 363840, Note_off_c, 0, 46, 127
2, 363840, Note_on_c, 0, 53, 95
2, 363840, Note_on_c, 0, 46, 95
2, 364320, Note_off_c, 0, 53, 95
2, 364320, Note_off_c, 0, 46, 95
2, 364320, Note_on_c, 0, 55, 95
2, 364320, Note_on_c, 0, 46, 95
2, 364800, Note_off_c, 0, 55, 95
2, 364800, Note_off_c, 0, 46, 95
2, 364800, Note_on_c, 0, 55, 95
2, 364800, Note_on_c, 0, 48, 127
2, 365760, Note_off_c, 0, 55, 95
2, 365760, Note_off_c, 0, 48, 127
2, 365760, Note_on_c, 0, 55, 95
2, 365760, Note_on_c, 0, 48, 95
2, 366240, Note_off_c, 0, 55, 95
2, 366240, Note_off_c, 0, 48, 95
2, 366240, Note_on_c, 0, 57, 95
2, 366240, Note_on_c, 0, 48, 127
2, 366720, Note_off_c, 0, 57, 95
2, 366720, Note_off_c, 0, 48, 127
2, 366720, Note_on_c, 0, 55, 95
2, 366720, Note_on_c, 0, 48, 95
2, 367200, Note_off_c, 0, 55, 95
2, 367200, Note_off_c, 0, 48, 95
2, 367200, Note_on_c, 0, 55, 95
2, 367200, Note_on_c, 0, 48, 127
2, 367680, Note_off_c, 0, 55, 95
2, 367680, Note_off_c, 0, 48, 127
2, 367680, Note_on_c, 0, 55, 95
2, 367680, Note_on_c, 0, 48, 95
2, 368160, Note_off_c, 0, 55, 95
2, 368160, Note_off_c, 0, 48, 95
2, 368160, Note_on_c, 0, 57, 95
2, 368160, Note_on_c, 0, 48, 127
2, 368640, Note_off_c, 0, 57, 95
2, 368640, Note_off_c, 0, 48, 127
2, 368640, Note_on_c, 0, 55, 95
2, 368640, Note_on_c, 0, 48, 95
2, 369120, Note_off_c, 0, 55, 95
2, 369120, Note_off_c, 0, 48, 95
2, 369120, Note_on_c, 0, 53, 95
2, 369120, Note_on_c, 0, 46, 127
2, 369600, Note_off_c, 0, 53, 95
2, 369600, Note_off_c, 0, 46, 127
2, 369600, Note_on_c, 0, 53, 95
2, 369600, Note_on_c, 0, 46, 95
2, 370080, Note_off_c, 0, 53, 95
2, 370080, Note_off_c, 0, 46, 95
2, 370080, Note_on_c, 0, 55, 95
2, 370080, Note_on_c, 0, 46, 127
2, 370560, Note_off_c, 0, 55, 95
2, 370560, Note_off_c, 0, 46, 127
2, 370560, Note_on_c, 0, 53, 95
2, 370560, Note_on_c, 0, 46, 95
2, 371040, Note_off_c, 0, 53, 95
2, 371040, Note_off_c, 0, 46, 95
2, 371040, Note_on_c, 0, 53, 95
2, 371040, Note_on_c, 0, 46, 127
2, 371520, Note_off_c, 0, 53, 95
2, 371520, Note_off_c, 0, 46, 127
2, 371520, Note_on_c, 0, 53, 95
2, 371520, Note_on_c, 0, 46, 95
2, 372000, Note_off_c, 0, 53, 95
2, 372000, Note_off_c, 0, 46, 95
2, 372000, Note_on_c, 0, 55, 95
2, 372000, Note_on_c, 0, 46, 95
2, 372480, Note_off_c, 0, 55, 95
2, 372480, Note_off_c, 0, 46, 95
2, 372480, Note_on_c, 0, 55, 95
2, 372480, Note_on_c, 0, 48, 127
2, 373440, Note_off_c, 0, 55, 95
2, 373440, Note_off_c, 0, 48, 127
2, 373440, Note_on_c, 0, 55, 95
2, 373440, Note_on_c, 0, 48, 95
2, 373920, Note_off_c, 0, 55, 95
2, 373920, Note_off_c, 0, 48, 95
2, 373920, Note_on_c, 0, 57, 95
2, 373920, Note_on_c, 0, 48, 127
2, 374400, Note_off_c, 0, 57, 95
2, 374400, Note_off_c, 0, 48, 127
2, 374400, Note_on_c, 0, 55, 95
2, 374400, Note_on_c, 0, 48, 95
2, 374880, Note_off_c, 0, 55, 95
2, 374880, Note_off_c, 0, 48, 95
2, 374880, Note_on_c, 0, 55, 95
2, 374880, Note_on_c, 0, 48, 127
2, 375360, Note_off_c, 0, 55, 95
2, 375360, Note_off_c, 0, 48, 127
2, 375360, Note_on_c, 0, 55, 95
2, 375360, Note_on_c, 0, 48, 95
2, 375840, Note_off_c, 0, 55, 95
2, 375840, Note_off_c, 0, 48, 95
2, 375840, Note_on_c, 0, 57, 95
2, 375840, Note_on_c, 0, 48, 127
2, 376320, Note_off_c, 0, 57, 95
2, 376320, Note_off_c, 0, 48, 127
2, 376320, Note_on_c, 0, 55, 95
2, 376320, Note_on_c, 0, 48, 95
2, 376800, Note_off_c, 0, 55, 95
2, 376800, Note_off_c, 0, 48, 95
2, 376800, Note_on_c, 0, 53, 95
2, 376800, Note_on_c, 0, 46, 127
2, 377280, Note_off_c, 0, 53, 95
2, 377280, Note_off_c, 0, 46, 127
2, 377280, Note_on_c, 0, 53, 95
2, 377280, Note_on_c, 0, 46, 95
2, 377760, Note_off_c, 0, 53, 95
2, 377760, Note_off_c, 0, 46, 95
2, 377760, Note_on_c, 0, 55, 95
2, 377760, Note_on_c, 0, 46, 127
2, 378240, Note_off_c, 0, 55, 95
2, 378240, Note_off_c, 0, 46, 127
2, 378240, Note_on_c, 0, 53, 95
2, 378240, Note_on_c, 0, 46, 95
2, 378720, Note_off_c, 0, 53, 95
2, 378720, Note_off_c, 0, 46, 95
2, 378720, Note_on_c, 0, 53, 95
2, 378720, Note_on_c, 0, 46, 127
2, 379200, Note_off_c, 0, 53, 95
2, 379200, Note_off_c, 0, 46, 127
2, 379200, Note_on_c, 0, 53, 95
2, 379200, Note_on_c, 0, 46, 95
2, 379680, Note_off_c, 0, 53, 95
2, 379680, Note_off_c, 0, 46, 95
2, 379680, Note_on_c, 0, 55, 95
2, 379680, Note_on_c, 0, 46, 95
2, 380160, Note_off_c, 0, 55, 95
2, 380160, Note_off_c, 0, 46, 95
2, 380160, Note_on_c, 0, 55, 95
2, 380160, Note_on_c, 0, 48, 127
2, 381120, Note_off_c, 0, 55, 95
2, 381120, Note_off_c, 0, 48, 127
2, 381120, Note_on_c, 0, 55, 95
2, 381120, Note_on_c, 0, 48, 95
2, 381600, Note_off_c, 0, 55, 95
2, 381600, Note_off_c, 0, 48, 95
2, 381600, Note_on_c, 0, 57, 95
2, 381600, Note_on_c, 0, 48, 127
2, 382080, Note_off_c, 0, 57, 95
2, 382080, Note_off_c, 0, 48, 127
2, 382080, Note_on_c, 0, 55, 95
2, 382080, Note_on_c, 0, 48, 95
2, 382560, Note_off_c, 0, 55, 95
2, 382560, Note_off_c, 0, 48, 95
2, 382560, Note_on_c, 0, 55, 95
2, 382560, Note_on_c, 0, 48, 127
2, 383040, Note_off_c, 0, 55, 95
2, 383040, Note_off_c, 0, 48, 127
2, 383040, Note_on_c, 0, 55, 95
2, 383040, Note_on_c, 0, 48, 95
2, 383520, Note_off_c, 0, 55, 95
2, 383520, Note_off_c, 0, 48, 95
2, 383520, Note_on_c, 0, 57, 95
2, 383520, Note_on_c, 0, 48, 127
2, 384000, Note_off_c, 0, 57, 95
2, 384000, Note_off_c, 0, 48, 127
2, 384000, Note_on_c, 0, 55, 95
2, 384000, Note_on_c, 0, 48, 95
2, 384480, Note_off_c, 0, 55, 95
2, 384480, Note_off_c, 0, 48, 95
2, 384480, Note_on_c, 0, 69, 95
2, 384480, Note_on_c, 0, 65, 95
2, 384480, Note_on_c, 0, 60, 95
2, 384480, Note_on_c, 0, 53, 127
2, 385440, Note_off_c, 0, 69, 95
2, 385440, Note_off_c, 0, 65, 95
2, 385440, Note_off_c, 0, 60, 95
2, 385440, Note_off_c, 0, 53, 127
2, 385440, Note_on_c, 0, 69, 95
2, 385440, Note_on_c, 0, 65, 95
2, 385440, Note_on_c, 0, 60, 95
2, 385440, Note_on_c, 0, 53, 95
2, 385920, Note_off_c, 0, 69, 95
2, 385920, Note_off_c, 0, 65, 95
2, 385920, Note_off_c, 0, 60, 95
2, 385920, Note_off_c, 0, 53, 95
2, 385920, Note_on_c, 0, 69, 95
2, 385920, Note_on_c, 0, 65, 95
2, 385920, Note_on_c, 0, 60, 95
2, 385920, Note_on_c, 0, 53, 95
2, 386400, Note_off_c, 0, 69, 95
2, 386400, Note_off_c, 0, 65, 95
2, 386400, Note_off_c, 0, 60, 95
2, 386400, Note_off_c, 0, 53, 95
2, 386400, Note_on_c, 0, 69, 95
2, 386400, Note_on_c, 0, 65, 95
2, 386400, Note_on_c, 0, 60, 95
2, 386400, Note_on_c, 0, 53, 127
2, 387360, Note_off_c, 0, 69, 95
2, 387360, Note_off_c, 0, 65, 95
2, 387360, Note_off_c, 0, 60, 95
2, 387360, Note_off_c, 0, 53, 127
2, 387360, Note_on_c, 0, 69, 95
2, 387360, Note_on_c, 0, 65, 95
2, 387360, Note_on_c, 0, 60, 95
2, 387360, Note_on_c, 0, 53, 95
2, 387840, Note_off_c, 0, 69, 95
2, 387840, Note_off_c, 0, 65, 95
2, 387840, Note_off_c, 0, 60, 95
2, 387840, Note_off_c, 0, 53, 95
2, 387840, Note_on_c, 0, 69, 95
2, 387840, Note_on_c, 0, 65, 95
2, 387840, Note_on_c, 0, 60, 95
2, 387840, Note_on_c, 0, 53, 127
2, 388320, Note_off_c, 0, 69, 95
2, 388320, Note_off_c, 0, 65, 95
2, 388320, Note_off_c, 0, 60, 95
2, 388320, Note_off_c, 0, 53, 127
2, 388320, Note_on_c, 0, 69, 47
2, 388320, Note_on_c, 0, 65, 47
2, 388320, Note_on_c, 0, 60, 47
2, 388320, Note_on_c, 0, 53, 47
2, 388800, Note_off_c, 0, 69, 47
2, 388800, Note_off_c, 0, 65, 47
2, 388800, Note_off_c, 0, 60, 47
2, 388800, Note_off_c, 0, 53, 47
2, 388800, Note_on_c, 0, 69, 95
2, 388800, Note_on_c, 0, 65, 95
2, 388800, Note_on_c, 0, 60, 95
2, 388800, Note_on_c, 0, 53, 95
2, 389280, Note_off_c, 0, 69, 95
2, 389280, Note_off_c, 0, 65, 95
2, 389280, Note_off_c, 0, 60, 95
2, 389280, Note_off_c, 0, 53, 95
2, 389280, Note_on_c, 0, 69, 95
2, 389280, Note_on_c, 0, 65, 95
2, 389280, Note_on_c, 0, 60, 95
2, 389280, Note_on_c, 0, 53, 95
2, 389760, Note_off_c, 0, 69, 95
2, 389760, Note_off_c, 0, 65, 95
2, 389760, Note_off_c, 0, 60, 95
2, 389760, Note_off_c, 0, 53, 95
2, 389760, Note_on_c, 0, 69, 95
2, 389760, Note_on_c, 0, 65, 95
2, 389760, Note_on_c, 0, 60, 95
2, 389760, Note_on_c, 0, 53, 95
2, 390240, Note_off_c, 0, 69, 95
2, 390240, Note_off_c, 0, 65, 95
2, 390240, Note_off_c, 0, 60, 95
2, 390240, Note_off_c, 0, 53, 95
2, 390240, Note_on_c, 0, 69, 95
2, 390240, Note_on_c, 0, 65, 95
2, 390240, Note_on_c, 0, 60, 95
2, 390240, Note_on_c, 0, 53, 95
2, 391680, Note_off_c, 0, 69, 95
2, 391680, Note_off_c, 0, 65, 95
2, 391680, Note_off_c, 0, 60, 95
2, 391680, Note_off_c, 0, 53, 95
2, 392160, Note_on_c, 0, 53, 95
2, 392160, Note_on_c, 0, 46, 127
2, 392640, Note_off_c, 0, 53, 95
2, 392640, Note_off_c, 0, 46, 127
2, 392640, Note_on_c, 0, 53, 95
2, 392640, Note_on_c, 0, 46, 95
2, 393120, Note_off_c, 0, 53, 95
2, 393120, Note_off_c, 0, 46, 95
2, 393120, Note_on_c, 0, 55, 95
2, 393120, Note_on_c, 0, 46, 127
2, 393600, Note_off_c, 0, 55, 95
2, 393600, Note_off_c, 0, 46, 127
2, 393600, Note_on_c, 0, 53, 95
2, 393600, Note_on_c, 0, 46, 95
2, 394080, Note_off_c, 0, 53, 95
2, 394080, Note_off_c, 0, 46, 95
2, 394080, Note_on_c, 0, 53, 95
2, 394080, Note_on_c, 0, 46, 127
2, 394560, Note_off_c, 0, 53, 95
2, 394560, Note_off_c, 0, 46, 127
2, 394560, Note_on_c, 0, 53, 95
2, 394560, Note_on_c, 0, 46, 95
2, 395040, Note_off_c, 0, 53, 95
2, 395040, Note_off_c, 0, 46, 95
2, 395040, Note_on_c, 0, 55, 95
2, 395040, Note_on_c, 0, 46, 95
2, 395520, Note_off_c, 0, 55, 95
2, 395520, Note_off_c, 0, 46, 95
2, 395520, Note_on_c, 0, 55, 95
2, 395520, Note_on_c, 0, 48, 127
2, 396480, Note_off_c, 0, 55, 95
2, 396480, Note_off_c, 0, 48, 127
2, 396480, Note_on_c, 0, 55, 95
2, 396480, Note_on_c, 0, 48, 95
2, 396960, Note_off_c, 0, 55, 95
2, 396960, Note_off_c, 0, 48, 95
2, 396960, Note_on_c, 0, 57, 95
2, 396960, Note_on_c, 0, 48, 127
2, 397440, Note_off_c, 0, 57, 95
2, 397440, Note_off_c, 0, 48, 127
2, 397440, Note_on_c, 0, 55, 95
2, 397440, Note_on_c, 0, 48, 95
2, 397920, Note_off_c, 0, 55, 95
2, 397920, Note_off_c, 0, 48, 95
2, 397920, Note_on_c, 0, 55, 95
2, 397920, Note_on_c, 0, 48, 127
2, 398400, Note_off_c, 0, 55, 95
2, 398400, Note_off_c, 0, 48, 127
2, 398400, Note_on_c, 0, 55, 95
2, 398400, Note_on_c, 0, 48, 95
2, 398880, Note_off_c, 0, 55, 95
2, 398880, Note_off_c, 0, 48, 95
2, 398880, Note_on_c, 0, 57, 95
2, 398880, Note_on_c, 0, 48, 127
2, 399360, Note_off_c, 0, 57, 95
2, 399360, Note_off_c, 0, 48, 127
2, 399360, Note_on_c, 0, 55, 95
2, 399360, Note_on_c, 0, 48, 95
2, 399840, Note_off_c, 0, 55, 95
2, 399840, Note_off_c, 0, 48, 95
2, 399840, Note_on_c, 0, 53, 95
2, 399840, Note_on_c, 0, 46, 127
2, 400320, Note_off_c, 0, 53, 95
2, 400320, Note_off_c, 0, 46, 127
2, 400320, Note_on_c, 0, 53, 95
2, 400320, Note_on_c, 0, 46, 95
2, 400800, Note_off_c, 0, 53, 95
2, 400800, Note_off_c, 0, 46, 95
2, 400800, Note_on_c, 0, 55, 95
2, 400800, Note_on_c, 0, 46, 127
2, 401280, Note_off_c, 0, 55, 95
2, 401280, Note_off_c, 0, 46, 127
2, 401280, Note_on_c, 0, 53, 95
2, 401280, Note_on_c, 0, 46, 95
2, 401760, Note_off_c, 0, 53, 95
2, 401760, Note_off_c, 0, 46, 95
2, 401760, Note_on_c, 0, 53, 95
2, 401760, Note_on_c, 0, 46, 127
2, 402240, Note_off_c, 0, 53, 95
2, 402240, Note_off_c, 0, 46, 127
2, 402240, Note_on_c, 0, 53, 95
2, 402240, Note_on_c, 0, 46, 95
2, 402720, Note_off_c, 0, 53, 95
2, 402720, Note_off_c, 0, 46, 95
2, 402720, Note_on_c, 0, 55, 95
2, 402720, Note_on_c, 0, 46, 95
2, 403200, Note_off_c, 0, 55, 95
2, 403200, Note_off_c, 0, 46, 95
2, 403200, Note_on_c, 0, 55, 95
2, 403200, Note_on_c, 0, 48, 127
2, 404160, Note_off_c, 0, 55, 95
2, 404160, Note_off_c, 0, 48, 127
2, 404160, Note_on_c, 0, 55, 95
2, 404160, Note_on_c, 0, 48, 95
2, 404640, Note_off_c, 0, 55, 95
2, 404640, Note_off_c, 0, 48, 95
2, 404640, Note_on_c, 0, 57, 95
2, 404640, Note_on_c, 0, 48, 127
2, 405120, Note_off_c, 0, 57, 95
2, 405120, Note_off_c, 0, 48, 127
2, 405120, Note_on_c, 0, 55, 95
2, 405120, Note_on_c, 0, 48, 95
2, 405600, Note_off_c, 0, 55, 95
2, 405600, Note_off_c, 0, 48, 95
2, 405600, Note_on_c, 0, 55, 95
2, 405600, Note_on_c, 0, 48, 127
2, 406080, Note_off_c, 0, 55, 95
2, 406080, Note_off_c, 0, 48, 127
2, 406080, Note_on_c, 0, 55, 95
2, 406080, Note_on_c, 0, 48, 95
2, 406560, Note_off_c, 0, 55, 95
2, 406560, Note_off_c, 0, 48, 95
2, 406560, Note_on_c, 0, 57, 95
2, 406560, Note_on_c, 0, 48, 127
2, 407040, Note_off_c, 0, 57, 95
2, 407040, Note_off_c, 0, 48, 127
2, 407040, Note_on_c, 0, 55, 95
2, 407040, Note_on_c, 0, 48, 95
2, 407520, Note_off_c, 0, 55, 95
2, 407520, Note_off_c, 0, 48, 95
2, 407520, Note_on_c, 0, 53, 95
2, 407520, Note_on_c, 0, 46, 127
2, 408000, Note_off_c, 0, 53, 95
2, 408000, Note_off_c, 0, 46, 127
2, 408000, Note_on_c, 0, 53, 95
2, 408000, Note_on_c, 0, 46, 95
2, 408480, Note_off_c, 0, 53, 95
2, 408480, Note_off_c, 0, 46, 95
2, 408480, Note_on_c, 0, 55, 95
2, 408480, Note_on_c, 0, 46, 127
2, 408960, Note_off_c, 0, 55, 95
2, 408960, Note_off_c, 0, 46, 127
2, 408960, Note_on_c, 0, 53, 95
2, 408960, Note_on_c, 0, 46, 95
2, 409440, Note_off_c, 0, 53, 95
2, 409440, Note_off_c, 0, 46, 95
2, 409440, Note_on_c, 0, 53, 95
2, 409440, Note_on_c, 0, 46, 127
2, 409920, Note_off_c, 0, 53, 95
2, 409920, Note_off_c, 0, 46, 127
2, 409920, Note_on_c, 0, 53, 95
2, 409920, Note_on_c, 0, 46, 95
2, 410400, Note_off_c, 0, 53, 95
2, 410400, Note_off_c, 0, 46, 95
2, 410400, Note_on_c, 0, 55, 95
2, 410400, Note_on_c, 0, 46, 95
2, 410880, Note_off_c, 0, 55, 95
2, 410880, Note_off_c, 0, 46, 95
2, 410880, Note_on_c, 0, 55, 95
2, 410880, Note_on_c, 0, 48, 127
2, 411840, Note_off_c, 0, 55, 95
2, 411840, Note_off_c, 0, 48, 127
2, 411840, Note_on_c, 0, 55, 95
2, 411840, Note_on_c, 0, 48, 95
2, 412320, Note_off_c, 0, 55, 95
2, 412320, Note_off_c, 0, 48, 95
2, 412320, Note_on_c, 0, 57, 95
2, 412320, Note_on_c, 0, 48, 127
2, 412800, Note_off_c, 0, 57, 95
2, 412800, Note_off_c, 0, 48, 127
2, 412800, Note_on_c, 0, 55, 95
2, 412800, Note_on_c, 0, 48, 95
2, 413280, Note_off_c, 0, 55, 95
2, 413280, Note_off_c, 0, 48, 95
2, 413280, Note_on_c, 0, 55, 95
2, 413280, Note_on_c, 0, 48, 127
2, 413760, Note_off_c, 0, 55, 95
2, 413760, Note_off_c, 0, 48, 127
2, 413760, Note_on_c, 0, 55, 95
2, 413760, Note_on_c, 0, 48, 95
2, 414240, Note_off_c, 0, 55, 95
2, 414240, Note_off_c, 0, 48, 95
2, 414240, Note_on_c, 0, 57, 95
2, 414240, Note_on_c, 0, 48, 127
2, 414720, Note_off_c, 0, 57, 95
2, 414720, Note_off_c, 0, 48, 127
2, 414720, Note_on_c, 0, 55, 95
2, 414720, Note_on_c, 0, 48, 95
2, 415200, Note_off_c, 0, 55, 95
2, 415200, Note_off_c, 0, 48, 95
2, 415200, Note_on_c, 0, 69, 95
2, 415200, Note_on_c, 0, 65, 95
2, 415200, Note_on_c, 0, 60, 95
2, 415200, Note_on_c, 0, 53, 127
2, 416160, Note_off_c, 0, 69, 95
2, 416160, Note_off_c, 0, 65, 95
2, 416160, Note_off_c, 0, 60, 95
2, 416160, Note_off_c, 0, 53, 127
2, 416160, Note_on_c, 0, 69, 95
2, 416160, Note_on_c, 0, 65, 95
2, 416160, Note_on_c, 0, 60, 95
2, 416160, Note_on_c, 0, 53, 95
2, 416640, Note_off_c, 0, 69, 95
2, 416640, Note_off_c, 0, 65, 95
2, 416640, Note_off_c, 0, 60, 95
2, 416640, Note_off_c, 0, 53, 95
2, 416640, Note_on_c, 0, 69, 95
2, 416640, Note_on_c, 0, 65, 95
2, 416640, Note_on_c, 0, 60, 95
2, 416640, Note_on_c, 0, 53, 95
2, 417120, Note_off_c, 0, 69, 95
2, 417120, Note_off_c, 0, 65, 95
2, 417120, Note_off_c, 0, 60, 95
2, 417120, Note_off_c, 0, 53, 95
2, 417120, Note_on_c, 0, 69, 95
2, 417120, Note_on_c, 0, 65, 95
2, 417120, Note_on_c, 0, 60, 95
2, 417120, Note_on_c, 0, 53, 127
2, 418080, Note_off_c, 0, 69, 95
2, 418080, Note_off_c, 0, 65, 95
2, 418080, Note_off_c, 0, 60, 95
2, 418080, Note_off_c, 0, 53, 127
2, 418080, Note_on_c, 0, 69, 95
2, 418080, Note_on_c, 0, 65, 95
2, 418080, Note_on_c, 0, 60, 95
2, 418080, Note_on_c, 0, 53, 95
2, 418560, Note_off_c, 0, 69, 95
2, 418560, Note_off_c, 0, 65, 95
2, 418560, Note_off_c, 0, 60, 95
2, 418560, Note_off_c, 0, 53, 95
2, 418560, Note_on_c, 0, 69, 95
2, 418560, Note_on_c, 0, 65, 95
2, 418560, Note_on_c, 0, 60, 95
2, 418560, Note_on_c, 0, 53, 127
2, 419040, Note_off_c, 0, 69, 95
2, 419040, Note_off_c, 0, 65, 95
2, 419040, Note_off_c, 0, 60, 95
2, 419040, Note_off_c, 0, 53, 127
2, 419040, Note_on_c, 0, 69, 47
2, 419040, Note_on_c, 0, 65, 47
2, 419040, Note_on_c, 0, 60, 47
2, 419040, Note_on_c, 0, 53, 47
2, 419520, Note_off_c, 0, 69, 47
2, 419520, Note_off_c, 0, 65, 47
2, 419520, Note_off_c, 0, 60, 47
2, 419520, Note_off_c, 0, 53, 47
2, 419520, Note_on_c, 0, 69, 95
2, 419520, Note_on_c, 0, 65, 95
2, 419520, Note_on_c, 0, 60, 95
2, 419520, Note_on_c, 0, 53, 95
2, 420000, Note_off_c, 0, 69, 95
2, 420000, Note_off_c, 0, 65, 95
2, 420000, Note_off_c, 0, 60, 95
2, 420000, Note_off_c, 0, 53, 95
2, 420000, Note_on_c, 0, 69, 95
2, 420000, Note_on_c, 0, 65, 95
2, 420000, Note_on_c, 0, 60, 95
2, 420000, Note_on_c, 0, 53, 95
2, 420480, Note_off_c, 0, 69, 95
2, 420480, Note_off_c, 0, 65, 95
2, 420480, Note_off_c, 0, 60, 95
2, 420480, Note_off_c, 0, 53, 95
2, 420480, Note_on_c, 0, 69, 95
2, 420480, Note_on_c, 0, 65, 95
2, 420480, Note_on_c, 0, 60, 95
2, 420480, Note_on_c, 0, 53, 95
2, 420960, Note_off_c, 0, 69, 95
2, 420960, Note_off_c, 0, 65, 95
2, 420960, Note_off_c, 0, 60, 95
2, 420960, Note_off_c, 0, 53, 95
2, 420960, Note_on_c, 0, 69, 95
2, 420960, Note_on_c, 0, 65, 95
2, 420960, Note_on_c, 0, 60, 95
2, 420960, Note_on_c, 0, 53, 127
2, 421920, Note_off_c, 0, 69, 95
2, 421920, Note_off_c, 0, 65, 95
2, 421920, Note_off_c, 0, 60, 95
2, 421920, Note_off_c, 0, 53, 127
2, 421920, Note_on_c, 0, 69, 95
2, 421920, Note_on_c, 0, 65, 95
2, 421920, Note_on_c, 0, 60, 95
2, 421920, Note_on_c, 0, 53, 127
2, 422400, Note_off_c, 0, 69, 95
2, 422400, Note_off_c, 0, 65, 95
2, 422400, Note_off_c, 0, 60, 95
2, 422400, Note_off_c, 0, 53, 127
2, 422400, Note_on_c, 0, 69, 95
2, 422400, Note_on_c, 0, 65, 95
2, 422400, Note_on_c, 0, 60, 95
2, 422400, Note_on_c, 0, 53, 127
2, 422880, Note_off_c, 0, 69, 95
2, 422880, Note_off_c, 0, 65, 95
2, 422880, Note_off_c, 0, 60, 95
2, 422880, Note_off_c, 0, 53, 127
2, 422880, Note_on_c, 0, 69, 95
2, 422880, Note_on_c, 0, 65, 95
2, 422880, Note_on_c, 0, 60, 95
2, 422880, Note_on_c, 0, 53, 127
2, 423840, Note_off_c, 0, 69, 95
2, 423840, Note_off_c, 0, 65, 95
2, 423840, Note_off_c, 0, 60, 95
2, 423840, Note_off_c, 0, 53, 127
2, 423840, Note_on_c, 0, 59, 95
2, 423840, Note_on_c, 0, 55, 95
2, 423840, Note_on_c, 0, 50, 95
2, 423840, Note_on_c, 0, 45, 95
2, 423919, Note_off_c, 0, 59, 95
2, 423919, Note_off_c, 0, 55, 95
2, 423919, Note_off_c, 0, 50, 95
2, 423919, Note_off_c, 0, 45, 95
2, 424320, Note_on_c, 0, 62, 95
2, 424320, Note_on_c, 0, 58, 95
2, 424320, Note_on_c, 0, 53, 95
2, 424320, Note_on_c, 0, 46, 95
2, 424800, Note_off_c, 0, 62, 95
2, 424800, Note_off_c, 0, 58, 95
2, 424800, Note_off_c, 0, 53, 95
2, 424800, Note_off_c, 0, 46, 95
2, 424800, Note_on_c, 0, 62, 95
2, 424800, Note_on_c, 0, 58, 95
2, 424800, Note_on_c, 0, 53, 95
2, 424800, Note_on_c, 0, 46, 95
2, 425760, Note_off_c, 0, 62, 95
2, 425760, Note_off_c, 0, 58, 95
2, 425760, Note_off_c, 0, 53, 95
2, 425760, Note_off_c, 0, 46, 95
2, 425760, Note_on_c, 0, 55, 95
2, 425760, Note_on_c, 0, 50, 95
2, 425760, Note_on_c, 0, 45, 95
2, 425760, Note_on_c, 0, 40, 95
2, 425839, Note_off_c, 0, 55, 95
2, 425839, Note_off_c, 0, 50, 95
2, 425839, Note_off_c, 0, 45, 95
2, 425839, Note_off_c, 0, 40, 95
2, 426240, Note_on_c, 0, 64, 95
2, 426240, Note_on_c, 0, 60, 95
2, 426240, Note_on_c, 0, 55, 95
2, 426240, Note_on_c, 0, 48, 95
2, 426720, Note_off_c, 0, 64, 95
2, 426720, Note_off_c, 0, 60, 95
2, 426720, Note_off_c, 0, 55, 95
2, 426720, Note_off_c, 0, 48, 95
2, 426720, Note_on_c, 0, 64, 95
2, 426720, Note_on_c, 0, 60, 95
2, 426720, Note_on_c, 0, 55, 95
2, 426720, Note_on_c, 0, 48, 95
2, 427680, Note_off_c, 0, 64, 95
2, 427680, Note_off_c, 0, 60, 95
2, 427680, Note_off_c, 0, 55, 95
2, 427680, Note_off_c, 0, 48, 95
2, 427680, Note_on_c, 0, 55, 95
2, 427680, Note_on_c, 0, 50, 95
2, 427680, Note_on_c, 0, 45, 95
2, 427680, Note_on_c, 0, 40, 95
2, 427759, Note_off_c, 0, 55, 95
2, 427759, Note_off_c, 0, 50, 95
2, 427759, Note_off_c, 0, 45, 95
2, 427759, Note_off_c, 0, 40, 95
2, 428160, Note_on_c, 0, 53, 95
2, 428160, Note_on_c, 0, 48, 95
2, 428160, Note_on_c, 0, 41, 95
2, 429600, Note_off_c, 0, 53, 95
2, 429600, Note_off_c, 0, 48, 95
2, 429600, Note_off_c, 0, 41, 95
2, 429600, Note_on_c, 1, 45, 95
2, 429600, Note_on_c, 1, 45, 95
2, 429679, Pitch_bend_c, 1, 8192
2, 429679, Pitch_bend_c, 1, 8320
2, 429679, Pitch_bend_c, 1, 8192
2, 429679, Note_off_c, 1, 45, 95
2, 429679, Pitch_bend_c, 1, 8192
2, 429679, Pitch_bend_c, 1, 8320
2, 429679, Pitch_bend_c, 1, 8192
2, 429679, Note_off_c, 1, 45, 95
2, 430560, Note_on_c, 0, 53, 95
2, 430560, Note_on_c, 0, 48, 95
2, 430560, Note_on_c, 0, 41, 95
2, 431040, Note_off_c, 0, 53, 95
2, 431040, Note_off_c, 0, 48, 95
2, 431040, Note_off_c, 0, 41, 95
2, 431040, End_track
3, 0, Start_track
3, 0, Pitch_bend_c, 2, 8192
3, 0, Control_c, 2, 7, 95
3, 0, Control_c, 2, 10, 63
3, 0, Control_c, 2, 93, 0
3, 0, Control_c, 2, 91, 0
3, 0, Control_c, 2, 95, 0
3, 0, Control_c, 2, 92, 0
3, 0, Control_c, 2, 11, 127
3, 0, Program_c, 2, 30
3, 0, Control_c, 3, 7, 95
3, 0, Control_c, 3, 10, 63
3, 0, Control_c, 3, 93, 0
3, 0, Control_c, 3, 91, 0
3, 0, Control_c, 3, 95, 0
3, 0, Control_c, 3, 92, 0
3, 0, Control_c, 3, 11, 127
3, 0, Program_c, 3, 30
3, 53760, Note_on_c, 2, 58, 95
3, 53760, Note_on_c, 2, 53, 95
3, 53760, Note_on_c, 2, 46, 95
3, 54000, Note_off_c, 2, 58, 95
3, 54000, Note_off_c, 2, 53, 95
3, 54000, Note_off_c, 2, 46, 95
3, 54000, Note_on_c, 2, 58, 95
3, 54000, Note_on_c, 2, 53, 95
3, 54000, Note_on_c, 2, 46, 95
3, 54240, Note_off_c, 2, 58, 95
3, 54240, Note_off_c, 2, 53, 95
3, 54240, Note_off_c, 2, 46, 95
3, 54240, Note_on_c, 2, 58, 95
3, 54240, Note_on_c, 2, 53, 95
3, 54240, Note_on_c, 2, 46, 127
3, 56160, Note_off_c, 2, 58, 95
3, 56160, Note_off_c, 2, 53, 95
3, 56160, Note_off_c, 2, 46, 127
3, 57600, Note_on_c, 2, 55, 95
3, 57600, Note_on_c, 2, 50, 95
3, 57600, Note_on_c, 2, 43, 95
3, 58080, Note_off_c, 2, 55, 95
3, 58080, Note_off_c, 2, 50, 95
3, 58080, Note_off_c, 2, 43, 95
3, 58080, Note_on_c, 2, 55, 47
3, 58080, Note_on_c, 2, 50, 47
3, 58080, Note_on_c, 2, 43, 79
3, 60000, Note_off_c, 2, 55, 47
3, 60000, Note_off_c, 2, 50, 47
3, 60000, Note_off_c, 2, 43, 79
3, 61440, Note_on_c, 2, 60, 95
3, 61440, Note_on_c, 2, 55, 95
3, 61440, Note_on_c, 2, 48, 95
3, 61680, Note_off_c, 2, 60, 95
3, 61680, Note_off_c, 2, 55, 95
3, 61680, Note_off_c, 2, 48, 95
3, 61680, Note_on_c, 2, 60, 95
3, 61680, Note_on_c, 2, 55, 95
3, 61680, Note_on_c, 2, 48, 95
3, 61920, Note_off_c, 2, 60, 95
3, 61920, Note_off_c, 2, 55, 95
3, 61920, Note_off_c, 2, 48, 95
3, 61920, Note_on_c, 2, 60, 47
3, 61920, Note_on_c, 2, 55, 47
3, 61920, Note_on_c, 2, 48, 47
3, 65760, Note_off_c, 2, 60, 47
3, 65760, Note_off_c, 2, 55, 47
3, 65760, Note_off_c, 2, 48, 47
3, 65760, Note_on_c, 2, 60, 47
3, 65760, Note_on_c, 2, 55, 47
3, 65760, Note_on_c, 2, 48, 47
3, 68640, Note_off_c, 2, 60, 47
3, 68640, Note_off_c, 2, 55, 47
3, 68640, Note_off_c, 2, 48, 47
3, 84480, Note_on_c, 2, 58, 95
3, 84480, Note_on_c, 2, 53, 95
3, 84480, Note_on_c, 2, 46, 95
3, 84720, Note_off_c, 2, 58, 95
3, 84720, Note_off_c, 2, 53, 95
3, 84720, Note_off_c, 2, 46, 95
3, 84720, Note_on_c, 2, 58, 95
3, 84720, Note_on_c, 2, 53, 95
3, 84720, Note_on_c, 2, 46, 95
3, 84960, Note_off_c, 2, 58, 95
3, 84960, Note_off_c, 2, 53, 95
3, 84960, Note_off_c, 2, 46, 95
3, 84960, Note_on_c, 2, 58, 95
3, 84960, Note_on_c, 2, 53, 95
3, 84960, Note_on_c, 2, 46, 127
3, 86880, Note_off_c, 2, 58, 95
3, 86880, Note_off_c, 2, 53, 95
3, 86880, Note_off_c, 2, 46, 127
3, 88320, Note_on_c, 2, 55, 95
3, 88320, Note_on_c, 2, 50, 95
3, 88320, Note_on_c, 2, 43, 95
3, 88800, Note_off_c, 2, 55, 95
3, 88800, Note_off_c, 2, 50, 95
3, 88800, Note_off_c, 2, 43, 95
3, 88800, Note_on_c, 2, 55, 47
3, 88800, Note_on_c, 2, 50, 47
3, 88800, Note_on_c, 2, 43, 79
3, 90720, Note_off_c, 2, 55, 47
3, 90720, Note_off_c, 2, 50, 47
3, 90720, Note_off_c, 2, 43, 79
3, 92160, Note_on_c, 2, 60, 95
3, 92160, Note_on_c, 2, 55, 95
3, 92160, Note_on_c, 2, 48, 95
3, 92400, Note_off_c, 2, 60, 95
3, 92400, Note_off_c, 2, 55, 95
3, 92400, Note_off_c, 2, 48, 95
3, 92400, Note_on_c, 2, 60, 95
3, 92400, Note_on_c, 2, 55, 95
3, 92400, Note_on_c, 2, 48, 95
3, 92640, Note_off_c, 2, 60, 95
3, 92640, Note_off_c, 2, 55, 95
3, 92640, Note_off_c, 2, 48, 95
3, 92640, Note_on_c, 2, 60, 47
3, 92640, Note_on_c, 2, 55, 47
3, 92640, Note_on_c, 2, 48, 47
3, 96480, Note_off_c, 2, 60, 47
3, 96480, Note_off_c, 2, 55, 47
3, 96480, Note_off_c, 2, 48, 47
3, 96480, Note_on_c, 2, 60, 47
3, 96480, Note_on_c, 2, 55, 47
3, 96480, Note_on_c, 2, 48, 47
3, 97920, Note_off_c, 2, 60, 47
3, 97920, Note_off_c, 2, 55, 47
3, 97920, Note_off_c, 2, 48, 47
3, 97920, Note_on_c, 2, 50, 95
3, 97920, Note_on_c, 2, 45, 95
3, 97920, Note_on_c, 2, 40, 95
3, 97999, Note_off_c, 2, 50, 95
3, 97999, Note_off_c, 2, 45, 95
3, 97999, Note_off_c, 2, 40, 95
3, 98400, Note_on_c, 2, 50, 95
3, 98400, Note_on_c, 2, 45, 95
3, 98400, Note_on_c, 2, 40, 95
3, 98479, Note_off_c, 2, 50, 95
3, 98479, Note_off_c, 2, 45, 95
3, 98479, Note_off_c, 2, 40, 95
3, 99360, Note_on_c, 2, 50, 95
3, 99360, Note_on_c, 2, 45, 95
3, 99360, Note_on_c, 2, 40, 95
3, 99439, Note_off_c, 2, 50, 95
3, 99439, Note_off_c, 2, 45, 95
3, 99439, Note_off_c, 2, 40, 95
3, 99840, Note_on_c, 2, 50, 95
3, 99840, Note_on_c, 2, 45, 95
3, 99840, Note_on_c, 2, 40, 95
3, 99919, Note_off_c, 2, 50, 95
3, 99919, Note_off_c, 2, 45, 95
3, 99919, Note_off_c, 2, 40, 95
3, 100320, Note_on_c, 2, 58, 95
3, 100320, Note_on_c, 2, 53, 95
3, 100320, Note_on_c, 2, 46, 95
3, 103680, Note_off_c, 2, 58, 95
3, 103680, Note_off_c, 2, 53, 95
3, 103680, Note_off_c, 2, 46, 95
3, 103680, Note_on_c, 2, 60, 95
3, 103680, Note_on_c, 2, 55, 95
3, 103680, Note_on_c, 2, 48, 95
3, 104160, Note_off_c, 2, 60, 95
3, 104160, Note_off_c, 2, 55, 95
3, 104160, Note_off_c, 2, 48, 95
3, 104160, Note_on_c, 2, 60, 95
3, 104160, Note_on_c, 2, 55, 95
3, 104160, Note_on_c, 2, 48, 95
3, 108000, Note_off_c, 2, 60, 95
3, 108000, Note_off_c, 2, 55, 95
3, 108000, Note_off_c, 2, 48, 95
3, 108000, Note_on_c, 2, 58, 95
3, 108000, Note_on_c, 2, 53, 95
3, 108000, Note_on_c, 2, 46, 95
3, 111360, Note_off_c, 2, 58, 95
3, 111360, Note_off_c, 2, 53, 95
3, 111360, Note_off_c, 2, 46, 95
3, 111360, Note_on_c, 2, 60, 95
3, 111360, Note_on_c, 2, 55, 95
3, 111360, Note_on_c, 2, 48, 95
3, 111840, Note_off_c, 2, 60, 95
3, 111840, Note_off_c, 2, 55, 95
3, 111840, Note_off_c, 2, 48, 95
3, 111840, Note_on_c, 2, 60, 95
3, 111840, Note_on_c, 2, 55, 95
3, 111840, Note_on_c, 2, 48, 95
3, 115680, Note_off_c, 2, 60, 95
3, 115680, Note_off_c, 2, 55, 95
3, 115680, Note_off_c, 2, 48, 95
3, 115680, Note_on_c, 2, 58, 95
3, 115680, Note_on_c, 2, 53, 95
3, 115680, Note_on_c, 2, 46, 95
3, 119040, Note_off_c, 2, 58, 95
3, 119040, Note_off_c, 2, 53, 95
3, 119040, Note_off_c, 2, 46, 95
3, 119040, Note_on_c, 2, 60, 95
3, 119040, Note_on_c, 2, 55, 95
3, 119040, Note_on_c, 2, 48, 95
3, 119520, Note_off_c, 2, 60, 95
3, 119520, Note_off_c, 2, 55, 95
3, 119520, Note_off_c, 2, 48, 95
3, 119520, Note_on_c, 2, 60, 95
3, 119520, Note_on_c, 2, 55, 95
3, 119520, Note_on_c, 2, 48, 95
3, 122880, Note_off_c, 2, 60, 95
3, 122880, Note_off_c, 2, 55, 95
3, 122880, Note_off_c, 2, 48, 95
3, 122880, Note_on_c, 2, 69, 95
3, 122880, Note_on_c, 2, 65, 95
3, 122880, Note_on_c, 2, 60, 95
3, 122880, Note_on_c, 2, 53, 95
3, 123360, Note_off_c, 2, 69, 95
3, 123360, Note_off_c, 2, 65, 95
3, 123360, Note_off_c, 2, 60, 95
3, 123360, Note_off_c, 2, 53, 95
3, 123360, Note_on_c, 2, 69, 95
3, 123360, Note_on_c, 2, 65, 95
3, 123360, Note_on_c, 2, 60, 95
3, 123360, Note_on_c, 2, 53, 95
3, 127200, Note_off_c, 2, 69, 95
3, 127200, Note_off_c, 2, 65, 95
3, 127200, Note_off_c, 2, 60, 95
3, 127200, Note_off_c, 2, 53, 95
3, 127200, Note_on_c, 2, 69, 95
3, 127200, Note_on_c, 2, 65, 95
3, 127200, Note_on_c, 2, 60, 95
3, 127200, Note_on_c, 2, 53, 95
3, 130080, Note_off_c, 2, 69, 95
3, 130080, Note_off_c, 2, 65, 95
3, 130080, Note_off_c, 2, 60, 95
3, 130080, Note_off_c, 2, 53, 95
3, 130080, Note_on_c, 2, 69, 95
3, 130080, Note_on_c, 2, 65, 95
3, 130080, Note_on_c, 2, 60, 95
3, 130080, Note_on_c, 2, 53, 95
3, 130560, Note_off_c, 2, 69, 95
3, 130560, Note_off_c, 2, 65, 95
3, 130560, Note_off_c, 2, 60, 95
3, 130560, Note_off_c, 2, 53, 95
3, 130560, Note_on_c, 2, 69, 95
3, 130560, Note_on_c, 2, 65, 95
3, 130560, Note_on_c, 2, 60, 95
3, 130560, Note_on_c, 2, 53, 95
3, 130800, Note_off_c, 2, 69, 95
3, 130800, Note_off_c, 2, 65, 95
3, 130800, Note_off_c, 2, 60, 95
3, 130800, Note_off_c, 2, 53, 95
3, 130800, Note_on_c, 2, 69, 95
3, 130800, Note_on_c, 2, 65, 95
3, 130800, Note_on_c, 2, 60, 95
3, 130800, Note_on_c, 2, 53, 95
3, 131040, Note_off_c, 2, 69, 95
3, 131040, Note_off_c, 2, 65, 95
3, 131040, Note_off_c, 2, 60, 95
3, 131040, Note_off_c, 2, 53, 95
3, 131040, Note_on_c, 2, 69, 95
3, 131040, Note_on_c, 2, 65, 95
3, 131040, Note_on_c, 2, 60, 95
3, 131040, Note_on_c, 2, 53, 95
3, 132480, Note_off_c, 2, 69, 95
3, 132480, Note_off_c, 2, 65, 95
3, 132480, Note_off_c, 2, 60, 95
3, 132480, Note_off_c, 2, 53, 95
3, 132480, Note_on_c, 2, 58, 95
3, 132480, Note_on_c, 2, 53, 95
3, 132480, Note_on_c, 2, 46, 95
3, 132720, Note_off_c, 2, 58, 95
3, 132720, Note_off_c, 2, 53, 95
3, 132720, Note_off_c, 2, 46, 95
3, 132720, Note_on_c, 2, 58, 95
3, 132720, Note_on_c, 2, 53, 95
3, 132720, Note_on_c, 2, 46, 95
3, 132960, Note_off_c, 2, 58, 95
3, 132960, Note_off_c, 2, 53, 95
3, 132960, Note_off_c, 2, 46, 95
3, 132960, Note_on_c, 2, 58, 95
3, 132960, Note_on_c, 2, 53, 95
3, 132960, Note_on_c, 2, 46, 95
3, 134400, Note_off_c, 2, 58, 95
3, 134400, Note_off_c, 2, 53, 95
3, 134400, Note_off_c, 2, 46, 95
3, 134400, Note_on_c, 2, 53, 95
3, 134400, Note_on_c, 2, 48, 95
3, 134400, Note_on_c, 2, 41, 95
3, 134640, Note_off_c, 2, 53, 95
3, 134640, Note_off_c, 2, 48, 95
3, 134640, Note_off_c, 2, 41, 95
3, 134640, Note_on_c, 2, 53, 95
3, 134640, Note_on_c, 2, 48, 95
3, 134640, Note_on_c, 2, 41, 95
3, 134880, Note_off_c, 2, 53, 95
3, 134880, Note_off_c, 2, 48, 95
3, 134880, Note_off_c, 2, 41, 95
3, 134880, Note_on_c, 2, 53, 95
3, 134880, Note_on_c, 2, 48, 95
3, 134880, Note_on_c, 2, 41, 95
3, 138720, Note_off_c, 2, 53, 95
3, 138720, Note_off_c, 2, 48, 95
3, 138720, Note_off_c, 2, 41, 95
3, 153600, Note_on_c, 2, 58, 95
3, 153600, Note_on_c, 2, 53, 95
3, 153600, Note_on_c, 2, 46, 95
3, 153840, Note_off_c, 2, 58, 95
3, 153840, Note_off_c, 2, 53, 95
3, 153840, Note_off_c, 2, 46, 95
3, 153840, Note_on_c, 2, 58, 95
3, 153840, Note_on_c, 2, 53, 95
3, 153840, Note_on_c, 2, 46, 95
3, 154080, Note_off_c, 2, 58, 95
3, 154080, Note_off_c, 2, 53, 95
3, 154080, Note_off_c, 2, 46, 95
3, 154080, Note_on_c, 2, 58, 95
3, 154080, Note_on_c, 2, 53, 95
3, 154080, Note_on_c, 2, 46, 127
3, 156000, Note_off_c, 2, 58, 95
3, 156000, Note_off_c, 2, 53, 95
3, 156000, Note_off_c, 2, 46, 127
3, 157440, Note_on_c, 2, 55, 95
3, 157440, Note_on_c, 2, 50, 95
3, 157440, Note_on_c, 2, 43, 95
3, 157920, Note_off_c, 2, 55, 95
3, 157920, Note_off_c, 2, 50, 95
3, 157920, Note_off_c, 2, 43, 95
3, 157920, Note_on_c, 2, 55, 47
3, 157920, Note_on_c, 2, 50, 47
3, 157920, Note_on_c, 2, 43, 79
3, 159840, Note_off_c, 2, 55, 47
3, 159840, Note_off_c, 2, 50, 47
3, 159840, Note_off_c, 2, 43, 79
3, 161280, Note_on_c, 2, 60, 95
3, 161280, Note_on_c, 2, 55, 95
3, 161280, Note_on_c, 2, 48, 95
3, 161520, Note_off_c, 2, 60, 95
3, 161520, Note_off_c, 2, 55, 95
3, 161520, Note_off_c, 2, 48, 95
3, 161520, Note_on_c, 2, 60, 95
3, 161520, Note_on_c, 2, 55, 95
3, 161520, Note_on_c, 2, 48, 95
3, 161760, Note_off_c, 2, 60, 95
3, 161760, Note_off_c, 2, 55, 95
3, 161760, Note_off_c, 2, 48, 95
3, 161760, Note_on_c, 2, 60, 47
3, 161760, Note_on_c, 2, 55, 47
3, 161760, Note_on_c, 2, 48, 47
3, 165600, Note_off_c, 2, 60, 47
3, 165600, Note_off_c, 2, 55, 47
3, 165600, Note_off_c, 2, 48, 47
3, 165600, Note_on_c, 2, 60, 47
3, 165600, Note_on_c, 2, 55, 47
3, 165600, Note_on_c, 2, 48, 47
3, 168480, Note_off_c, 2, 60, 47
3, 168480, Note_off_c, 2, 55, 47
3, 168480, Note_off_c, 2, 48, 47
3, 184320, Note_on_c, 2, 58, 95
3, 184320, Note_on_c, 2, 53, 95
3, 184320, Note_on_c, 2, 46, 95
3, 184560, Note_off_c, 2, 58, 95
3, 184560, Note_off_c, 2, 53, 95
3, 184560, Note_off_c, 2, 46, 95
3, 184560, Note_on_c, 2, 58, 95
3, 184560, Note_on_c, 2, 53, 95
3, 184560, Note_on_c, 2, 46, 95
3, 184800, Note_off_c, 2, 58, 95
3, 184800, Note_off_c, 2, 53, 95
3, 184800, Note_off_c, 2, 46, 95
3, 184800, Note_on_c, 2, 58, 95
3, 184800, Note_on_c, 2, 53, 95
3, 184800, Note_on_c, 2, 46, 127
3, 186720, Note_off_c, 2, 58, 95
3, 186720, Note_off_c, 2, 53, 95
3, 186720, Note_off_c, 2, 46, 127
3, 188160, Note_on_c, 2, 55, 95
3, 188160, Note_on_c, 2, 50, 95
3, 188160, Note_on_c, 2, 43, 95
3, 188640, Note_off_c, 2, 55, 95
3, 188640, Note_off_c, 2, 50, 95
3, 188640, Note_off_c, 2, 43, 95
3, 188640, Note_on_c, 2, 55, 47
3, 188640, Note_on_c, 2, 50, 47
3, 188640, Note_on_c, 2, 43, 79
3, 190560, Note_off_c, 2, 55, 47
3, 190560, Note_off_c, 2, 50, 47
3, 190560, Note_off_c, 2, 43, 79
3, 192000, Note_on_c, 2, 60, 95
3, 192000, Note_on_c, 2, 55, 95
3, 192000, Note_on_c, 2, 48, 95
3, 192240, Note_off_c, 2, 60, 95
3, 192240, Note_off_c, 2, 55, 95
3, 192240, Note_off_c, 2, 48, 95
3, 192240, Note_on_c, 2, 60, 95
3, 192240, Note_on_c, 2, 55, 95
3, 192240, Note_on_c, 2, 48, 95
3, 192480, Note_off_c, 2, 60, 95
3, 192480, Note_off_c, 2, 55, 95
3, 192480, Note_off_c, 2, 48, 95
3, 192480, Note_on_c, 2, 60, 47
3, 192480, Note_on_c, 2, 55, 47
3, 192480, Note_on_c, 2, 48, 47
3, 196320, Note_off_c, 2, 60, 47
3, 196320, Note_off_c, 2, 55, 47
3, 196320, Note_off_c, 2, 48, 47
3, 196320, Note_on_c, 2, 60, 47
3, 196320, Note_on_c, 2, 55, 47
3, 196320, Note_on_c, 2, 48, 47
3, 197760, Note_off_c, 2, 60, 47
3, 197760, Note_off_c, 2, 55, 47
3, 197760, Note_off_c, 2, 48, 47
3, 197760, Note_on_c, 2, 50, 95
3, 197760, Note_on_c, 2, 45, 95
3, 197760, Note_on_c, 2, 40, 95
3, 197839, Note_off_c, 2, 50, 95
3, 197839, Note_off_c, 2, 45, 95
3, 197839, Note_off_c, 2, 40, 95
3, 198240, Note_on_c, 2, 50, 95
3, 198240, Note_on_c, 2, 45, 95
3, 198240, Note_on_c, 2, 40, 95
3, 198319, Note_off_c, 2, 50, 95
3, 198319, Note_off_c, 2, 45, 95
3, 198319, Note_off_c, 2, 40, 95
3, 199200, Note_on_c, 2, 50, 95
3, 199200, Note_on_c, 2, 45, 95
3, 199200, Note_on_c, 2, 40, 95
3, 199279, Note_off_c, 2, 50, 95
3, 199279, Note_off_c, 2, 45, 95
3, 199279, Note_off_c, 2, 40, 95
3, 199680, Note_on_c, 2, 50, 95
3, 199680, Note_on_c, 2, 45, 95
3, 199680, Note_on_c, 2, 40, 95
3, 199759, Note_off_c, 2, 50, 95
3, 199759, Note_off_c, 2, 45, 95
3, 199759, Note_off_c, 2, 40, 95
3, 200160, Note_on_c, 2, 58, 95
3, 200160, Note_on_c, 2, 53, 95
3, 200160, Note_on_c, 2, 46, 95
3, 203520, Note_off_c, 2, 58, 95
3, 203520, Note_off_c, 2, 53, 95
3, 203520, Note_off_c, 2, 46, 95
3, 203520, Note_on_c, 2, 60, 95
3, 203520, Note_on_c, 2, 55, 95
3, 203520, Note_on_c, 2, 48, 95
3, 204000, Note_off_c, 2, 60, 95
3, 204000, Note_off_c, 2, 55, 95
3, 204000, Note_off_c, 2, 48, 95
3, 204000, Note_on_c, 2, 60, 95
3, 204000, Note_on_c, 2, 55, 95
3, 204000, Note_on_c, 2, 48, 95
3, 207840, Note_off_c, 2, 60, 95
3, 207840, Note_off_c, 2, 55, 95
3, 207840, Note_off_c, 2, 48, 95
3, 207840, Note_on_c, 2, 58, 95
3, 207840, Note_on_c, 2, 53, 95
3, 207840, Note_on_c, 2, 46, 95
3, 211200, Note_off_c, 2, 58, 95
3, 211200, Note_off_c, 2, 53, 95
3, 211200, Note_off_c, 2, 46, 95
3, 211200, Note_on_c, 2, 60, 95
3, 211200, Note_on_c, 2, 55, 95
3, 211200, Note_on_c, 2, 48, 95
3, 211680, Note_off_c, 2, 60, 95
3, 211680, Note_off_c, 2, 55, 95
3, 211680, Note_off_c, 2, 48, 95
3, 211680, Note_on_c, 2, 60, 95
3, 211680, Note_on_c, 2, 55, 95
3, 211680, Note_on_c, 2, 48, 95
3, 215520, Note_off_c, 2, 60, 95
3, 215520, Note_off_c, 2, 55, 95
3, 215520, Note_off_c, 2, 48, 95
3, 215520, Note_on_c, 2, 58, 95
3, 215520, Note_on_c, 2, 53, 95
3, 215520, Note_on_c, 2, 46, 95
3, 218880, Note_off_c, 2, 58, 95
3, 218880, Note_off_c, 2, 53, 95
3, 218880, Note_off_c, 2, 46, 95
3, 218880, Note_on_c, 2, 60, 95
3, 218880, Note_on_c, 2, 55, 95
3, 218880, Note_on_c, 2, 48, 95
3, 219360, Note_off_c, 2, 60, 95
3, 219360, Note_off_c, 2, 55, 95
3, 219360, Note_off_c, 2, 48, 95
3, 219360, Note_on_c, 2, 60, 95
3, 219360, Note_on_c, 2, 55, 95
3, 219360, Note_on_c, 2, 48, 95
3, 222720, Note_off_c, 2, 60, 95
3, 222720, Note_off_c, 2, 55, 95
3, 222720, Note_off_c, 2, 48, 95
3, 222720, Note_on_c, 2, 69, 95
3, 222720, Note_on_c, 2, 65, 95
3, 222720, Note_on_c, 2, 60, 95
3, 222720, Note_on_c, 2, 53, 95
3, 223200, Note_off_c, 2, 69, 95
3, 223200, Note_off_c, 2, 65, 95
3, 223200, Note_off_c, 2, 60, 95
3, 223200, Note_off_c, 2, 53, 95
3, 223200, Note_on_c, 2, 69, 95
3, 223200, Note_on_c, 2, 65, 95
3, 223200, Note_on_c, 2, 60, 95
3, 223200, Note_on_c, 2, 53, 95
3, 227040, Note_off_c, 2, 69, 95
3, 227040, Note_off_c, 2, 65, 95
3, 227040, Note_off_c, 2, 60, 95
3, 227040, Note_off_c, 2, 53, 95
3, 227040, Note_on_c, 2, 69, 95
3, 227040, Note_on_c, 2, 65, 95
3, 227040, Note_on_c, 2, 60, 95
3, 227040, Note_on_c, 2, 53, 95
3, 229920, Note_off_c, 2, 69, 95
3, 229920, Note_off_c, 2, 65, 95
3, 229920, Note_off_c, 2, 60, 95
3, 229920, Note_off_c, 2, 53, 95
3, 229920, Note_on_c, 2, 69, 95
3, 229920, Note_on_c, 2, 65, 95
3, 229920, Note_on_c, 2, 60, 95
3, 229920, Note_on_c, 2, 53, 95
3, 230400, Note_off_c, 2, 69, 95
3, 230400, Note_off_c, 2, 65, 95
3, 230400, Note_off_c, 2, 60, 95
3, 230400, Note_off_c, 2, 53, 95
3, 230400, Note_on_c, 2, 69, 95
3, 230400, Note_on_c, 2, 65, 95
3, 230400, Note_on_c, 2, 60, 95
3, 230400, Note_on_c, 2, 53, 95
3, 230640, Note_off_c, 2, 69, 95
3, 230640, Note_off_c, 2, 65, 95
3, 230640, Note_off_c, 2, 60, 95
3, 230640, Note_off_c, 2, 53, 95
3, 230640, Note_on_c, 2, 69, 95
3, 230640, Note_on_c, 2, 65, 95
3, 230640, Note_on_c, 2, 60, 95
3, 230640, Note_on_c, 2, 53, 95
3, 230880, Note_off_c, 2, 69, 95
3, 230880, Note_off_c, 2, 65, 95
3, 230880, Note_off_c, 2, 60, 95
3, 230880, Note_off_c, 2, 53, 95
3, 230880, Note_on_c, 2, 69, 95
3, 230880, Note_on_c, 2, 65, 95
3, 230880, Note_on_c, 2, 60, 95
3, 230880, Note_on_c, 2, 53, 95
3, 232320, Note_off_c, 2, 69, 95
3, 232320, Note_off_c, 2, 65, 95
3, 232320, Note_off_c, 2, 60, 95
3, 232320, Note_off_c, 2, 53, 95
3, 232320, Note_on_c, 2, 58, 95
3, 232320, Note_on_c, 2, 53, 95
3, 232320, Note_on_c, 2, 46, 95
3, 232560, Note_off_c, 2, 58, 95
3, 232560, Note_off_c, 2, 53, 95
3, 232560, Note_off_c, 2, 46, 95
3, 232560, Note_on_c, 2, 58, 95
3, 232560, Note_on_c, 2, 53, 95
3, 232560, Note_on_c, 2, 46, 95
3, 232800, Note_off_c, 2, 58, 95
3, 232800, Note_off_c, 2, 53, 95
3, 232800, Note_off_c, 2, 46, 95
3, 232800, Note_on_c, 2, 58, 95
3, 232800, Note_on_c, 2, 53, 95
3, 232800, Note_on_c, 2, 46, 95
3, 234240, Note_off_c, 2, 58, 95
3, 234240, Note_off_c, 2, 53, 95
3, 234240, Note_off_c, 2, 46, 95
3, 234240, Note_on_c, 2, 53, 95
3, 234240, Note_on_c, 2, 48, 95
3, 234240, Note_on_c, 2, 41, 95
3, 234480, Note_off_c, 2, 53, 95
3, 234480, Note_off_c, 2, 48, 95
3, 234480, Note_off_c, 2, 41, 95
3, 234480, Note_on_c, 2, 53, 95
3, 234480, Note_on_c, 2, 48, 95
3, 234480, Note_on_c, 2, 41, 95
3, 234720, Note_off_c, 2, 53, 95
3, 234720, Note_off_c, 2, 48, 95
3, 234720, Note_off_c, 2, 41, 95
3, 234720, Note_on_c, 2, 53, 95
3, 234720, Note_on_c, 2, 48, 95
3, 234720, Note_on_c, 2, 41, 95
3, 238560, Note_off_c, 2, 53, 95
3, 238560, Note_off_c, 2, 48, 95
3, 238560, Note_off_c, 2, 41, 95
3, 238560, Note_on_c, 2, 41, 95
3, 241920, Note_off_c, 2, 41, 95
3, 241920, Note_on_c, 2, 43, 95
3, 242400, Note_off_c, 2, 43, 95
3, 242400, Note_on_c, 2, 43, 95
3, 245760, Note_off_c, 2, 43, 95
3, 245760, Note_on_c, 2, 48, 95
3, 246240, Note_off_c, 2, 48, 95
3, 246240, Note_on_c, 2, 48, 95
3, 247680, Note_off_c, 2, 48, 95
3, 247680, Note_on_c, 3, 52, 95
3, 248160, Note_off_c, 3, 52, 95
3, 248160, Note_on_c, 2, 60, 95
3, 248160, Note_on_c, 2, 55, 95
3, 249600, Note_off_c, 2, 60, 95
3, 249600, Note_off_c, 2, 55, 95
3, 249600, Note_on_c, 2, 60, 95
3, 249600, Note_on_c, 2, 57, 95
3, 250080, Note_off_c, 2, 60, 95
3, 250080, Note_off_c, 2, 57, 95
3, 250080, Note_on_c, 2, 60, 95
3, 250080, Note_on_c, 2, 55, 95
3, 251520, Note_off_c, 2, 60, 95
3, 251520, Note_off_c, 2, 55, 95
3, 251520, Note_on_c, 2, 60, 95
3, 251520, Note_on_c, 2, 57, 95
3, 252000, Note_off_c, 2, 60, 95
3, 252000, Note_off_c, 2, 57, 95
3, 252000, Note_on_c, 2, 60, 95
3, 252000, Note_on_c, 2, 55, 95
3, 253440, Note_off_c, 2, 60, 95
3, 253440, Note_off_c, 2, 55, 95
3, 253920, Note_on_c, 2, 41, 95
3, 257280, Note_off_c, 2, 41, 95
3, 257280, Note_on_c, 2, 43, 95
3, 257760, Note_off_c, 2, 43, 95
3, 257760, Note_on_c, 2, 43, 95
3, 261120, Note_off_c, 2, 43, 95
3, 261120, Note_on_c, 2, 48, 95
3, 261600, Note_off_c, 2, 48, 95
3, 261600, Note_on_c, 2, 48, 95
3, 263040, Note_off_c, 2, 48, 95
3, 263040, Note_on_c, 3, 52, 95
3, 263520, Note_off_c, 3, 52, 95
3, 263520, Note_on_c, 2, 60, 95
3, 263520, Note_on_c, 2, 55, 95
3, 264960, Note_off_c, 2, 60, 95
3, 264960, Note_off_c, 2, 55, 95
3, 264960, Note_on_c, 2, 60, 95
3, 264960, Note_on_c, 2, 57, 95
3, 265440, Note_off_c, 2, 60, 95
3, 265440, Note_off_c, 2, 57, 95
3, 265440, Note_on_c, 2, 60, 95
3, 265440, Note_on_c, 2, 55, 95
3, 266880, Note_off_c, 2, 60, 95
3, 266880, Note_off_c, 2, 55, 95
3, 266880, Note_on_c, 2, 60, 95
3, 266880, Note_on_c, 2, 57, 95
3, 267360, Note_off_c, 2, 60, 95
3, 267360, Note_off_c, 2, 57, 95
3, 267360, Note_on_c, 2, 60, 95
3, 267360, Note_on_c, 2, 55, 95
3, 268800, Note_off_c, 2, 60, 95
3, 268800, Note_off_c, 2, 55, 95
3, 269280, Note_on_c, 2, 41, 95
3, 272640, Note_off_c, 2, 41, 95
3, 272640, Note_on_c, 2, 43, 95
3, 273120, Note_off_c, 2, 43, 95
3, 273120, Note_on_c, 2, 43, 95
3, 276480, Note_off_c, 2, 43, 95
3, 276480, Note_on_c, 2, 48, 95
3, 276960, Note_off_c, 2, 48, 95
3, 276960, Note_on_c, 2, 48, 95
3, 278400, Note_off_c, 2, 48, 95
3, 278400, Note_on_c, 3, 52, 95
3, 278880, Note_off_c, 3, 52, 95
3, 278880, Note_on_c, 2, 60, 95
3, 278880, Note_on_c, 2, 55, 95
3, 280320, Note_off_c, 2, 60, 95
3, 280320, Note_off_c, 2, 55, 95
3, 280320, Note_on_c, 2, 60, 95
3, 280320, Note_on_c, 2, 57, 95
3, 280800, Note_off_c, 2, 60, 95
3, 280800, Note_off_c, 2, 57, 95
3, 280800, Note_on_c, 2, 60, 95
3, 280800, Note_on_c, 2, 55, 95
3, 282240, Note_off_c, 2, 60, 95
3, 282240, Note_off_c, 2, 55, 95
3, 282240, Note_on_c, 2, 60, 95
3, 282240, Note_on_c, 2, 57, 95
3, 282720, Note_off_c, 2, 60, 95
3, 282720, Note_off_c, 2, 57, 95
3, 282720, Note_on_c, 2, 60, 95
3, 282720, Note_on_c, 2, 55, 95
3, 284160, Note_off_c, 2, 60, 95
3, 284160, Note_off_c, 2, 55, 95
3, 284640, Note_on_c, 2, 41, 95
3, 288000, Note_off_c, 2, 41, 95
3, 288000, Note_on_c, 2, 43, 95
3, 288480, Note_off_c, 2, 43, 95
3, 288480, Note_on_c, 2, 43, 95
3, 291840, Note_off_c, 2, 43, 95
3, 291840, Note_on_c, 2, 48, 95
3, 292320, Note_off_c, 2, 48, 95
3, 292320, Note_on_c, 2, 48, 95
3, 293760, Note_off_c, 2, 48, 95
3, 293760, Note_on_c, 3, 52, 95
3, 294240, Note_off_c, 3, 52, 95
3, 294240, Note_on_c, 2, 60, 95
3, 294240, Note_on_c, 2, 55, 95
3, 295680, Note_off_c, 2, 60, 95
3, 295680, Note_off_c, 2, 55, 95
3, 295680, Note_on_c, 2, 60, 95
3, 295680, Note_on_c, 2, 57, 95
3, 296160, Note_off_c, 2, 60, 95
3, 296160, Note_off_c, 2, 57, 95
3, 296160, Note_on_c, 2, 60, 95
3, 296160, Note_on_c, 2, 55, 95
3, 297600, Note_off_c, 2, 60, 95
3, 297600, Note_off_c, 2, 55, 95
3, 297600, Note_on_c, 2, 60, 95
3, 297600, Note_on_c, 2, 57, 95
3, 298080, Note_off_c, 2, 60, 95
3, 298080, Note_off_c, 2, 57, 95
3, 298080, Note_on_c, 2, 60, 95
3, 298080, Note_on_c, 2, 55, 95
3, 299520, Note_off_c, 2, 60, 95
3, 299520, Note_off_c, 2, 55, 95
3, 314880, Note_on_c, 2, 58, 95
3, 314880, Note_on_c, 2, 53, 95
3, 314880, Note_on_c, 2, 46, 95
3, 315120, Note_off_c, 2, 58, 95
3, 315120, Note_off_c, 2, 53, 95
3, 315120, Note_off_c, 2, 46, 95
3, 315120, Note_on_c, 2, 58, 95
3, 315120, Note_on_c, 2, 53, 95
3, 315120, Note_on_c, 2, 46, 95
3, 315360, Note_off_c, 2, 58, 95
3, 315360, Note_off_c, 2, 53, 95
3, 315360, Note_off_c, 2, 46, 95
3, 315360, Note_on_c, 2, 58, 95
3, 315360, Note_on_c, 2, 53, 95
3, 315360, Note_on_c, 2, 46, 127
3, 317280, Note_off_c, 2, 58, 95
3, 317280, Note_off_c, 2, 53, 95
3, 317280, Note_off_c, 2, 46, 127
3, 318720, Note_on_c, 2, 55, 95
3, 318720, Note_on_c, 2, 50, 95
3, 318720, Note_on_c, 2, 43, 95
3, 319200, Note_off_c, 2, 55, 95
3, 319200, Note_off_c, 2, 50, 95
3, 319200, Note_off_c, 2, 43, 95
3, 319200, Note_on_c, 2, 55, 47
3, 319200, Note_on_c, 2, 50, 47
3, 319200, Note_on_c, 2, 43, 79
3, 321120, Note_off_c, 2, 55, 47
3, 321120, Note_off_c, 2, 50, 47
3, 321120, Note_off_c, 2, 43, 79
3, 322560, Note_on_c, 2, 60, 95
3, 322560, Note_on_c, 2, 55, 95
3, 322560, Note_on_c, 2, 48, 95
3, 322800, Note_off_c, 2, 60, 95
3, 322800, Note_off_c, 2, 55, 95
3, 322800, Note_off_c, 2, 48, 95
3, 322800, Note_on_c, 2, 60, 95
3, 322800, Note_on_c, 2, 55, 95
3, 322800, Note_on_c, 2, 48, 95
3, 323040, Note_off_c, 2, 60, 95
3, 323040, Note_off_c, 2, 55, 95
3, 323040, Note_off_c, 2, 48, 95
3, 323040, Note_on_c, 2, 60, 47
3, 323040, Note_on_c, 2, 55, 47
3, 323040, Note_on_c, 2, 48, 47
3, 326880, Note_off_c, 2, 60, 47
3, 326880, Note_off_c, 2, 55, 47
3, 326880, Note_off_c, 2, 48, 47
3, 326880, Note_on_c, 2, 60, 47
3, 326880, Note_on_c, 2, 55, 47
3, 326880, Note_on_c, 2, 48, 47
3, 329760, Note_off_c, 2, 60, 47
3, 329760, Note_off_c, 2, 55, 47
3, 329760, Note_off_c, 2, 48, 47
3, 345600, Note_on_c, 2, 58, 95
3, 345600, Note_on_c, 2, 53, 95
3, 345600, Note_on_c, 2, 46, 95
3, 345840, Note_off_c, 2, 58, 95
3, 345840, Note_off_c, 2, 53, 95
3, 345840, Note_off_c, 2, 46, 95
3, 345840, Note_on_c, 2, 58, 95
3, 345840, Note_on_c, 2, 53, 95
3, 345840, Note_on_c, 2, 46, 95
3, 346080, Note_off_c, 2, 58, 95
3, 346080, Note_off_c, 2, 53, 95
3, 346080, Note_off_c, 2, 46, 95
3, 346080, Note_on_c, 2, 58, 95
3, 346080, Note_on_c, 2, 53, 95
3, 346080, Note_on_c, 2, 46, 127
3, 348000, Note_off_c, 2, 58, 95
3, 348000, Note_off_c, 2, 53, 95
3, 348000, Note_off_c, 2, 46, 127
3, 349440, Note_on_c, 2, 55, 95
3, 349440, Note_on_c, 2, 50, 95
3, 349440, Note_on_c, 2, 43, 95
3, 349920, Note_off_c, 2, 55, 95
3, 349920, Note_off_c, 2, 50, 95
3, 349920, Note_off_c, 2, 43, 95
3, 349920, Note_on_c, 2, 55, 47
3, 349920, Note_on_c, 2, 50, 47
3, 349920, Note_on_c, 2, 43, 79
3, 351840, Note_off_c, 2, 55, 47
3, 351840, Note_off_c, 2, 50, 47
3, 351840, Note_off_c, 2, 43, 79
3, 353280, Note_on_c, 2, 60, 95
3, 353280, Note_on_c, 2, 55, 95
3, 353280, Note_on_c, 2, 48, 95
3, 353520, Note_off_c, 2, 60, 95
3, 353520, Note_off_c, 2, 55, 95
3, 353520, Note_off_c, 2, 48, 95
3, 353520, Note_on_c, 2, 60, 95
3, 353520, Note_on_c, 2, 55, 95
3, 353520, Note_on_c, 2, 48, 95
3, 353760, Note_off_c, 2, 60, 95
3, 353760, Note_off_c, 2, 55, 95
3, 353760, Note_off_c, 2, 48, 95
3, 353760, Note_on_c, 2, 60, 47
3, 353760, Note_on_c, 2, 55, 47
3, 353760, Note_on_c, 2, 48, 47
3, 357600, Note_off_c, 2, 60, 47
3, 357600, Note_off_c, 2, 55, 47
3, 357600, Note_off_c, 2, 48, 47
3, 357600, Note_on_c, 2, 60, 47
3, 357600, Note_on_c, 2, 55, 47
3, 357600, Note_on_c, 2, 48, 47
3, 359040, Note_off_c, 2, 60, 47
3, 359040, Note_off_c, 2, 55, 47
3, 359040, Note_off_c, 2, 48, 47
3, 359040, Note_on_c, 2, 50, 95
3, 359040, Note_on_c, 2, 45, 95
3, 359040, Note_on_c, 2, 40, 95
3, 359119, Note_off_c, 2, 50, 95
3, 359119, Note_off_c, 2, 45, 95
3, 359119, Note_off_c, 2, 40, 95
3, 359520, Note_on_c, 2, 50, 95
3, 359520, Note_on_c, 2, 45, 95
3, 359520, Note_on_c, 2, 40, 95
3, 359599, Note_off_c, 2, 50, 95
3, 359599, Note_off_c, 2, 45, 95
3, 359599, Note_off_c, 2, 40, 95
3, 360480, Note_on_c, 2, 50, 95
3, 360480, Note_on_c, 2, 45, 95
3, 360480, Note_on_c, 2, 40, 95
3, 360559, Note_off_c, 2, 50, 95
3, 360559, Note_off_c, 2, 45, 95
3, 360559, Note_off_c, 2, 40, 95
3, 360960, Note_on_c, 2, 50, 95
3, 360960, Note_on_c, 2, 45, 95
3, 360960, Note_on_c, 2, 40, 95
3, 361039, Note_off_c, 2, 50, 95
3, 361039, Note_off_c, 2, 45, 95
3, 361039, Note_off_c, 2, 40, 95
3, 361440, Note_on_c, 2, 58, 95
3, 361440, Note_on_c, 2, 53, 95
3, 361440, Note_on_c, 2, 46, 95
3, 364800, Note_off_c, 2, 58, 95
3, 364800, Note_off_c, 2, 53, 95
3, 364800, Note_off_c, 2, 46, 95
3, 364800, Note_on_c, 2, 60, 95
3, 364800, Note_on_c, 2, 55, 95
3, 364800, Note_on_c, 2, 48, 95
3, 365280, Note_off_c, 2, 60, 95
3, 365280, Note_off_c, 2, 55, 95
3, 365280, Note_off_c, 2, 48, 95
3, 365280, Note_on_c, 2, 60, 95
3, 365280, Note_on_c, 2, 55, 95
3, 365280, Note_on_c, 2, 48, 95
3, 369120, Note_off_c, 2, 60, 95
3, 369120, Note_off_c, 2, 55, 95
3, 369120, Note_off_c, 2, 48, 95
3, 369120, Note_on_c, 2, 58, 95
3, 369120, Note_on_c, 2, 53, 95
3, 369120, Note_on_c, 2, 46, 95
3, 372480, Note_off_c, 2, 58, 95
3, 372480, Note_off_c, 2, 53, 95
3, 372480, Note_off_c, 2, 46, 95
3, 372480, Note_on_c, 2, 60, 95
3, 372480, Note_on_c, 2, 55, 95
3, 372480, Note_on_c, 2, 48, 95
3, 372960, Note_off_c, 2, 60, 95
3, 372960, Note_off_c, 2, 55, 95
3, 372960, Note_off_c, 2, 48, 95
3, 372960, Note_on_c, 2, 60, 95
3, 372960, Note_on_c, 2, 55, 95
3, 372960, Note_on_c, 2, 48, 95
3, 376800, Note_off_c, 2, 60, 95
3, 376800, Note_off_c, 2, 55, 95
3, 376800, Note_off_c, 2, 48, 95
3, 376800, Note_on_c, 2, 58, 95
3, 376800, Note_on_c, 2, 53, 95
3, 376800, Note_on_c, 2, 46, 95
3, 380160, Note_off_c, 2, 58, 95
3, 380160, Note_off_c, 2, 53, 95
3, 380160, Note_off_c, 2, 46, 95
3, 380160, Note_on_c, 2, 60, 95
3, 380160, Note_on_c, 2, 55, 95
3, 380160, Note_on_c, 2, 48, 95
3, 380640, Note_off_c, 2, 60, 95
3, 380640, Note_off_c, 2, 55, 95
3, 380640, Note_off_c, 2, 48, 95
3, 380640, Note_on_c, 2, 60, 95
3, 380640, Note_on_c, 2, 55, 95
3, 380640, Note_on_c, 2, 48, 95
3, 384000, Note_off_c, 2, 60, 95
3, 384000, Note_off_c, 2, 55, 95
3, 384000, Note_off_c, 2, 48, 95
3, 384000, Note_on_c, 2, 69, 95
3, 384000, Note_on_c, 2, 65, 95
3, 384000, Note_on_c, 2, 60, 95
3, 384000, Note_on_c, 2, 53, 95
3, 384480, Note_off_c, 2, 69, 95
3, 384480, Note_off_c, 2, 65, 95
3, 384480, Note_off_c, 2, 60, 95
3, 384480, Note_off_c, 2, 53, 95
3, 384480, Note_on_c, 2, 69, 95
3, 384480, Note_on_c, 2, 65, 95
3, 384480, Note_on_c, 2, 60, 95
3, 384480, Note_on_c, 2, 53, 95
3, 388320, Note_off_c, 2, 69, 95
3, 388320, Note_off_c, 2, 65, 95
3, 388320, Note_off_c, 2, 60, 95
3, 388320, Note_off_c, 2, 53, 95
3, 388320, Note_on_c, 2, 69, 95
3, 388320, Note_on_c, 2, 65, 95
3, 388320, Note_on_c, 2, 60, 95
3, 388320, Note_on_c, 2, 53, 95
3, 389760, Note_off_c, 2, 69, 95
3, 389760, Note_off_c, 2, 65, 95
3, 389760, Note_off_c, 2, 60, 95
3, 389760, Note_off_c, 2, 53, 95
3, 389760, Note_on_c, 2, 59, 95
3, 389760, Note_on_c, 2, 55, 95
3, 389760, Note_on_c, 2, 50, 95
3, 389760, Note_on_c, 2, 45, 95
3, 389839, Note_off_c, 2, 59, 95
3, 389839, Note_off_c, 2, 55, 95
3, 389839, Note_off_c, 2, 50, 95
3, 389839, Note_off_c, 2, 45, 95
3, 390240, Note_on_c, 2, 59, 95
3, 390240, Note_on_c, 2, 55, 95
3, 390240, Note_on_c, 2, 50, 95
3, 390240, Note_on_c, 2, 45, 95
3, 390319, Note_off_c, 2, 59, 95
3, 390319, Note_off_c, 2, 55, 95
3, 390319, Note_off_c, 2, 50, 95
3, 390319, Note_off_c, 2, 45, 95
3, 391680, Note_on_c, 2, 58, 95
3, 391680, Note_on_c, 2, 53, 95
3, 391680, Note_on_c, 2, 46, 95
3, 391920, Note_off_c, 2, 58, 95
3, 391920, Note_off_c, 2, 53, 95
3, 391920, Note_off_c, 2, 46, 95
3, 391920, Note_on_c, 2, 58, 95
3, 391920, Note_on_c, 2, 53, 95
3, 391920, Note_on_c, 2, 46, 95
3, 392160, Note_off_c, 2, 58, 95
3, 392160, Note_off_c, 2, 53, 95
3, 392160, Note_off_c, 2, 46, 95
3, 392160, Note_on_c, 2, 58, 95
3, 392160, Note_on_c, 2, 53, 95
3, 392160, Note_on_c, 2, 46, 95
3, 395520, Note_off_c, 2, 58, 95
3, 395520, Note_off_c, 2, 53, 95
3, 395520, Note_off_c, 2, 46, 95
3, 395520, Note_on_c, 2, 60, 95
3, 395520, Note_on_c, 2, 55, 95
3, 395520, Note_on_c, 2, 48, 95
3, 396000, Note_off_c, 2, 60, 95
3, 396000, Note_off_c, 2, 55, 95
3, 396000, Note_off_c, 2, 48, 95
3, 396000, Note_on_c, 2, 60, 95
3, 396000, Note_on_c, 2, 55, 95
3, 396000, Note_on_c, 2, 48, 95
3, 399840, Note_off_c, 2, 60, 95
3, 399840, Note_off_c, 2, 55, 95
3, 399840, Note_off_c, 2, 48, 95
3, 399840, Note_on_c, 2, 58, 95
3, 399840, Note_on_c, 2, 53, 95
3, 399840, Note_on_c, 2, 46, 95
3, 403200, Note_off_c, 2, 58, 95
3, 403200, Note_off_c, 2, 53, 95
3, 403200, Note_off_c, 2, 46, 95
3, 403200, Note_on_c, 2, 60, 95
3, 403200, Note_on_c, 2, 55, 95
3, 403200, Note_on_c, 2, 48, 95
3, 403680, Note_off_c, 2, 60, 95
3, 403680, Note_off_c, 2, 55, 95
3, 403680, Note_off_c, 2, 48, 95
3, 403680, Note_on_c, 2, 60, 95
3, 403680, Note_on_c, 2, 55, 95
3, 403680, Note_on_c, 2, 48, 95
3, 407520, Note_off_c, 2, 60, 95
3, 407520, Note_off_c, 2, 55, 95
3, 407520, Note_off_c, 2, 48, 95
3, 407520, Note_on_c, 2, 58, 95
3, 407520, Note_on_c, 2, 53, 95
3, 407520, Note_on_c, 2, 46, 95
3, 410880, Note_off_c, 2, 58, 95
3, 410880, Note_off_c, 2, 53, 95
3, 410880, Note_off_c, 2, 46, 95
3, 410880, Note_on_c, 2, 60, 95
3, 410880, Note_on_c, 2, 55, 95
3, 410880, Note_on_c, 2, 48, 95
3, 411360, Note_off_c, 2, 60, 95
3, 411360, Note_off_c, 2, 55, 95
3, 411360, Note_off_c, 2, 48, 95
3, 411360, Note_on_c, 2, 60, 95
3, 411360, Note_on_c, 2, 55, 95
3, 411360, Note_on_c, 2, 48, 95
3, 414720, Note_off_c, 2, 60, 95
3, 414720, Note_off_c, 2, 55, 95
3, 414720, Note_off_c, 2, 48, 95
3, 414720, Note_on_c, 2, 69, 95
3, 414720, Note_on_c, 2, 65, 95
3, 414720, Note_on_c, 2, 60, 95
3, 414720, Note_on_c, 2, 53, 95
3, 415200, Note_off_c, 2, 69, 95
3, 415200, Note_off_c, 2, 65, 95
3, 415200, Note_off_c, 2, 60, 95
3, 415200, Note_off_c, 2, 53, 95
3, 415200, Note_on_c, 2, 69, 95
3, 415200, Note_on_c, 2, 65, 95
3, 415200, Note_on_c, 2, 60, 95
3, 415200, Note_on_c, 2, 53, 95
3, 419040, Note_off_c, 2, 69, 95
3, 419040, Note_off_c, 2, 65, 95
3, 419040, Note_off_c, 2, 60, 95
3, 419040, Note_off_c, 2, 53, 95
3, 419040, Note_on_c, 2, 69, 95
3, 419040, Note_on_c, 2, 65, 95
3, 419040, Note_on_c, 2, 60, 95
3, 419040, Note_on_c, 2, 53, 95
3, 421920, Note_off_c, 2, 69, 95
3, 421920, Note_off_c, 2, 65, 95
3, 421920, Note_off_c, 2, 60, 95
3, 421920, Note_off_c, 2, 53, 95
3, 421920, Note_on_c, 2, 69, 95
3, 421920, Note_on_c, 2, 65, 95
3, 421920, Note_on_c, 2, 60, 95
3, 421920, Note_on_c, 2, 53, 95
3, 422400, Note_off_c, 2, 69, 95
3, 422400, Note_off_c, 2, 65, 95
3, 422400, Note_off_c, 2, 60, 95
3, 422400, Note_off_c, 2, 53, 95
3, 422400, Note_on_c, 2, 69, 95
3, 422400, Note_on_c, 2, 65, 95
3, 422400, Note_on_c, 2, 60, 95
3, 422400, Note_on_c, 2, 53, 95
3, 422640, Note_off_c, 2, 69, 95
3, 422640, Note_off_c, 2, 65, 95
3, 422640, Note_off_c, 2, 60, 95
3, 422640, Note_off_c, 2, 53, 95
3, 422640, Note_on_c, 2, 69, 95
3, 422640, Note_on_c, 2, 65, 95
3, 422640, Note_on_c, 2, 60, 95
3, 422640, Note_on_c, 2, 53, 95
3, 422880, Note_off_c, 2, 69, 95
3, 422880, Note_off_c, 2, 65, 95
3, 422880, Note_off_c, 2, 60, 95
3, 422880, Note_off_c, 2, 53, 95
3, 422880, Note_on_c, 2, 71, 95
3, 422880, Note_on_c, 2, 67, 95
3, 422880, Note_on_c, 2, 62, 95
3, 422880, Note_on_c, 2, 55, 95
3, 423840, Note_off_c, 2, 71, 95
3, 423840, Note_off_c, 2, 67, 95
3, 423840, Note_off_c, 2, 62, 95
3, 423840, Note_off_c, 2, 55, 95
3, 423840, Note_on_c, 2, 59, 95
3, 423840, Note_on_c, 2, 55, 95
3, 423840, Note_on_c, 2, 50, 95
3, 423840, Note_on_c, 2, 45, 95
3, 423919, Note_off_c, 2, 59, 95
3, 423919, Note_off_c, 2, 55, 95
3, 423919, Note_off_c, 2, 50, 95
3, 423919, Note_off_c, 2, 45, 95
3, 424320, Note_on_c, 2, 58, 95
3, 424320, Note_on_c, 2, 53, 95
3, 424320, Note_on_c, 2, 46, 95
3, 424800, Note_off_c, 2, 58, 95
3, 424800, Note_off_c, 2, 53, 95
3, 424800, Note_off_c, 2, 46, 95
3, 424800, Note_on_c, 2, 58, 95
3, 424800, Note_on_c, 2, 53, 95
3, 424800, Note_on_c, 2, 46, 95
3, 425760, Note_off_c, 2, 58, 95
3, 425760, Note_off_c, 2, 53, 95
3, 425760, Note_off_c, 2, 46, 95
3, 425760, Note_on_c, 2, 50, 95
3, 425760, Note_on_c, 2, 45, 95
3, 425760, Note_on_c, 2, 40, 95
3, 425839, Note_off_c, 2, 50, 95
3, 425839, Note_off_c, 2, 45, 95
3, 425839, Note_off_c, 2, 40, 95
3, 426240, Note_on_c, 2, 60, 95
3, 426240, Note_on_c, 2, 55, 95
3, 426240, Note_on_c, 2, 48, 95
3, 426720, Note_off_c, 2, 60, 95
3, 426720, Note_off_c, 2, 55, 95
3, 426720, Note_off_c, 2, 48, 95
3, 426720, Note_on_c, 2, 60, 95
3, 426720, Note_on_c, 2, 55, 95
3, 426720, Note_on_c, 2, 48, 95
3, 427680, Note_off_c, 2, 60, 95
3, 427680, Note_off_c, 2, 55, 95
3, 427680, Note_off_c, 2, 48, 95
3, 428160, Note_on_c, 2, 53, 95
3, 428160, Note_on_c, 2, 48, 95
3, 428160, Note_on_c, 2, 41, 95
3, 428640, Note_off_c, 2, 53, 95
3, 428640, Note_off_c, 2, 48, 95
3, 428640, Note_off_c, 2, 41, 95
3, 428640, Note_on_c, 2, 53, 95
3, 428640, Note_on_c, 2, 48, 95
3, 428640, Note_on_c, 2, 41, 95
3, 429600, Note_off_c, 2, 53, 95
3, 429600, Note_off_c, 2, 48, 95
3, 429600, Note_off_c, 2, 41, 95
3, 429600, Note_on_c, 3, 45, 95
3, 429600, Note_on_c, 3, 40, 95
3, 429679, Pitch_bend_c, 3, 8192
3, 429679, Pitch_bend_c, 3, 8320
3, 429679, Pitch_bend_c, 3, 8192
3, 429679, Note_off_c, 3, 45, 95
3, 429679, Pitch_bend_c, 3, 8192
3, 429679, Pitch_bend_c, 3, 8320
3, 429679, Pitch_bend_c, 3, 8192
3, 429679, Note_off_c, 3, 40, 95
3, 430560, Note_on_c, 2, 53, 95
3, 430560, Note_on_c, 2, 48, 95
3, 430560, Note_on_c, 2, 41, 95
3, 431040, Note_off_c, 2, 53, 95
3, 431040, Note_off_c, 2, 48, 95
3, 431040, Note_off_c, 2, 41, 95
3, 431040, End_track
4, 0, Start_track
4, 0, Pitch_bend_c, 4, 8192
4, 0, Control_c, 4, 7, 127
4, 0, Control_c, 4, 10, 63
4, 0, Control_c, 4, 93, 0
4, 0, Control_c, 4, 91, 0
4, 0, Control_c, 4, 95, 0
4, 0, Control_c, 4, 92, 0
4, 0, Control_c, 4, 11, 127
4, 0, Program_c, 4, 34
4, 0, Control_c, 5, 7, 127
4, 0, Control_c, 5, 10, 63
4, 0, Control_c, 5, 93, 0
4, 0, Control_c, 5, 91, 0
4, 0, Control_c, 5, 95, 0
4, 0, Control_c, 5, 92, 0
4, 0, Control_c, 5, 11, 127
4, 0, Program_c, 5, 34
4, 23520, Note_on_c, 4, 41, 127
4, 24480, Note_off_c, 4, 41, 127
4, 24960, Note_on_c, 4, 41, 95
4, 25440, Note_off_c, 4, 41, 95
4, 25440, Note_on_c, 4, 41, 127
4, 26400, Note_off_c, 4, 41, 127
4, 26400, Note_on_c, 4, 41, 95
4, 26880, Note_off_c, 4, 41, 95
4, 26880, Note_on_c, 4, 41, 127
4, 27360, Note_off_c, 4, 41, 127
4, 27840, Note_on_c, 4, 41, 127
4, 28800, Note_off_c, 4, 41, 127
4, 28800, Note_on_c, 4, 41, 95
4, 29280, Note_off_c, 4, 41, 95
4, 29280, Note_on_c, 4, 41, 127
4, 30240, Note_off_c, 4, 41, 127
4, 30240, Note_on_c, 4, 41, 95
4, 30720, Note_off_c, 4, 41, 95
4, 30720, Note_on_c, 4, 41, 127
4, 31200, Note_off_c, 4, 41, 127
4, 31200, Note_on_c, 4, 41, 127
4, 32160, Note_off_c, 4, 41, 127
4, 32640, Note_on_c, 4, 41, 95
4, 33120, Note_off_c, 4, 41, 95
4, 33120, Note_on_c, 4, 41, 127
4, 34080, Note_off_c, 4, 41, 127
4, 34080, Note_on_c, 4, 41, 95
4, 34560, Note_off_c, 4, 41, 95
4, 34560, Note_on_c, 4, 41, 127
4, 35040, Note_off_c, 4, 41, 127
4, 35520, Note_on_c, 4, 34, 95
4, 36000, Note_off_c, 4, 34, 95
4, 36000, Note_on_c, 4, 34, 95
4, 36480, Note_off_c, 4, 34, 95
4, 36480, Note_on_c, 4, 34, 95
4, 36960, Note_off_c, 4, 34, 95
4, 36960, Note_on_c, 4, 34, 95
4, 37440, Note_off_c, 4, 34, 95
4, 37440, Note_on_c, 4, 34, 95
4, 37920, Note_off_c, 4, 34, 95
4, 37920, Note_on_c, 4, 34, 95
4, 38400, Note_off_c, 4, 34, 95
4, 38880, Note_on_c, 4, 41, 95
4, 39360, Note_off_c, 4, 41, 95
4, 39360, Note_on_c, 4, 41, 95
4, 39840, Note_off_c, 4, 41, 95
4, 39840, Note_on_c, 4, 41, 95
4, 40320, Note_off_c, 4, 41, 95
4, 40320, Note_on_c, 4, 41, 95
4, 40800, Note_off_c, 4, 41, 95
4, 40800, Note_on_c, 4, 41, 95
4, 41280, Note_off_c, 4, 41, 95
4, 41280, Note_on_c, 4, 41, 95
4, 41760, Note_off_c, 4, 41, 95
4, 41760, Note_on_c, 4, 41, 95
4, 42240, Note_off_c, 4, 41, 95
4, 42240, Note_on_c, 4, 41, 95
4, 42720, Note_off_c, 4, 41, 95
4, 42720, Note_on_c, 4, 41, 95
4, 43200, Note_off_c, 4, 41, 95
4, 43200, Note_on_c, 4, 41, 95
4, 43680, Note_off_c, 4, 41, 95
4, 43680, Note_on_c, 4, 41, 95
4, 44160, Note_off_c, 4, 41, 95
4, 44160, Note_on_c, 4, 41, 95
4, 44640, Note_off_c, 4, 41, 95
4, 44640, Note_on_c, 4, 41, 95
4, 45120, Note_off_c, 4, 41, 95
4, 45120, Note_on_c, 4, 41, 95
4, 45600, Note_off_c, 4, 41, 95
4, 45600, Note_on_c, 4, 41, 95
4, 46080, Note_off_c, 4, 41, 95
4, 46080, Note_on_c, 4, 41, 95
4, 46560, Note_off_c, 4, 41, 95
4, 46560, Note_on_c, 4, 41, 95
4, 47040, Note_off_c, 4, 41, 95
4, 47040, Note_on_c, 4, 41, 95
4, 47520, Note_off_c, 4, 41, 95
4, 47520, Note_on_c, 4, 41, 95
4, 48000, Note_off_c, 4, 41, 95
4, 48000, Note_on_c, 4, 41, 95
4, 48480, Note_off_c, 4, 41, 95
4, 48480, Note_on_c, 4, 41, 95
4, 48960, Note_off_c, 4, 41, 95
4, 48960, Note_on_c, 4, 41, 95
4, 49440, Note_off_c, 4, 41, 95
4, 49440, Note_on_c, 4, 41, 95
4, 49920, Note_off_c, 4, 41, 95
4, 49920, Note_on_c, 4, 41, 95
4, 50400, Note_off_c, 4, 41, 95
4, 50400, Note_on_c, 4, 41, 95
4, 50880, Note_off_c, 4, 41, 95
4, 50880, Note_on_c, 4, 41, 95
4, 51360, Note_off_c, 4, 41, 95
4, 51360, Note_on_c, 4, 41, 95
4, 51840, Note_off_c, 4, 41, 95
4, 51840, Note_on_c, 4, 41, 95
4, 52320, Note_off_c, 4, 41, 95
4, 52320, Note_on_c, 4, 41, 95
4, 52800, Note_off_c, 4, 41, 95
4, 52800, Note_on_c, 4, 41, 95
4, 53280, Note_off_c, 4, 41, 95
4, 53280, Note_on_c, 4, 41, 95
4, 53760, Note_off_c, 4, 41, 95
4, 53760, Note_on_c, 4, 41, 95
4, 54240, Note_off_c, 4, 41, 95
4, 54240, Note_on_c, 4, 34, 95
4, 54720, Note_off_c, 4, 34, 95
4, 54720, Note_on_c, 4, 34, 95
4, 55200, Note_off_c, 4, 34, 95
4, 55200, Note_on_c, 4, 34, 95
4, 55680, Note_off_c, 4, 34, 95
4, 55680, Note_on_c, 4, 34, 95
4, 56160, Note_off_c, 4, 34, 95
4, 56160, Note_on_c, 4, 34, 95
4, 56640, Note_off_c, 4, 34, 95
4, 56640, Note_on_c, 4, 34, 95
4, 57120, Note_off_c, 4, 34, 95
4, 57120, Note_on_c, 4, 34, 95
4, 57600, Note_off_c, 4, 34, 95
4, 57600, Note_on_c, 4, 34, 95
4, 58080, Note_off_c, 4, 34, 95
4, 58080, Note_on_c, 4, 31, 95
4, 58560, Note_off_c, 4, 31, 95
4, 58560, Note_on_c, 4, 31, 95
4, 59040, Note_off_c, 4, 31, 95
4, 59040, Note_on_c, 4, 31, 95
4, 59520, Note_off_c, 4, 31, 95
4, 59520, Note_on_c, 4, 31, 95
4, 60000, Note_off_c, 4, 31, 95
4, 60000, Note_on_c, 4, 31, 95
4, 60480, Note_off_c, 4, 31, 95
4, 60480, Note_on_c, 4, 31, 95
4, 60960, Note_off_c, 4, 31, 95
4, 60960, Note_on_c, 4, 31, 95
4, 61440, Note_off_c, 4, 31, 95
4, 61440, Note_on_c, 4, 31, 95
4, 61920, Note_off_c, 4, 31, 95
4, 61920, Note_on_c, 4, 36, 95
4, 62400, Note_off_c, 4, 36, 95
4, 62400, Note_on_c, 4, 36, 95
4, 62880, Note_off_c, 4, 36, 95
4, 62880, Note_on_c, 4, 36, 95
4, 63360, Note_off_c, 4, 36, 95
4, 63360, Note_on_c, 4, 36, 95
4, 63840, Note_off_c, 4, 36, 95
4, 63840, Note_on_c, 4, 35, 95
4, 64320, Note_off_c, 4, 35, 95
4, 64320, Note_on_c, 4, 36, 95
4, 64800, Note_off_c, 4, 36, 95
4, 64800, Note_on_c, 4, 36, 95
4, 65280, Note_off_c, 4, 36, 95
4, 65280, Note_on_c, 4, 36, 95
4, 65760, Note_off_c, 4, 36, 95
4, 65760, Note_on_c, 4, 35, 95
4, 66240, Note_off_c, 4, 35, 95
4, 66240, Note_on_c, 4, 36, 95
4, 66720, Note_off_c, 4, 36, 95
4, 66720, Note_on_c, 4, 36, 95
4, 67200, Note_off_c, 4, 36, 95
4, 67200, Note_on_c, 4, 36, 95
4, 67680, Note_off_c, 4, 36, 95
4, 67680, Note_on_c, 4, 36, 95
4, 68160, Note_off_c, 4, 36, 95
4, 68160, Note_on_c, 4, 36, 95
4, 68640, Note_off_c, 4, 36, 95
4, 68640, Note_on_c, 4, 36, 95
4, 69120, Note_off_c, 4, 36, 95
4, 69120, Note_on_c, 4, 36, 95
4, 69600, Note_off_c, 4, 36, 95
4, 69600, Note_on_c, 4, 41, 95
4, 70080, Note_off_c, 4, 41, 95
4, 70080, Note_on_c, 4, 41, 95
4, 70560, Note_off_c, 4, 41, 95
4, 70560, Note_on_c, 4, 41, 95
4, 71040, Note_off_c, 4, 41, 95
4, 71040, Note_on_c, 4, 41, 95
4, 71520, Note_off_c, 4, 41, 95
4, 71520, Note_on_c, 4, 41, 95
4, 72000, Note_off_c, 4, 41, 95
4, 72000, Note_on_c, 4, 41, 95
4, 72480, Note_off_c, 4, 41, 95
4, 72480, Note_on_c, 4, 41, 95
4, 72960, Note_off_c, 4, 41, 95
4, 72960, Note_on_c, 4, 41, 95
4, 73440, Note_off_c, 4, 41, 95
4, 73440, Note_on_c, 4, 41, 95
4, 73920, Note_off_c, 4, 41, 95
4, 73920, Note_on_c, 4, 41, 95
4, 74400, Note_off_c, 4, 41, 95
4, 74400, Note_on_c, 4, 41, 95
4, 74880, Note_off_c, 4, 41, 95
4, 74880, Note_on_c, 4, 41, 95
4, 75360, Note_off_c, 4, 41, 95
4, 75360, Note_on_c, 4, 41, 95
4, 75840, Note_off_c, 4, 41, 95
4, 75840, Note_on_c, 4, 41, 95
4, 76320, Note_off_c, 4, 41, 95
4, 76320, Note_on_c, 4, 41, 95
4, 76800, Note_off_c, 4, 41, 95
4, 76800, Note_on_c, 4, 41, 95
4, 77280, Note_off_c, 4, 41, 95
4, 77280, Note_on_c, 4, 41, 95
4, 77760, Note_off_c, 4, 41, 95
4, 77760, Note_on_c, 4, 41, 95
4, 78240, Note_off_c, 4, 41, 95
4, 78240, Note_on_c, 4, 41, 95
4, 78720, Note_off_c, 4, 41, 95
4, 78720, Note_on_c, 4, 41, 95
4, 79200, Note_off_c, 4, 41, 95
4, 79200, Note_on_c, 4, 41, 95
4, 79680, Note_off_c, 4, 41, 95
4, 79680, Note_on_c, 4, 41, 95
4, 80160, Note_off_c, 4, 41, 95
4, 80160, Note_on_c, 4, 41, 95
4, 80640, Note_off_c, 4, 41, 95
4, 80640, Note_on_c, 4, 41, 95
4, 81120, Note_off_c, 4, 41, 95
4, 81120, Note_on_c, 4, 41, 95
4, 81600, Note_off_c, 4, 41, 95
4, 81600, Note_on_c, 4, 41, 95
4, 82080, Note_off_c, 4, 41, 95
4, 82080, Note_on_c, 4, 41, 95
4, 82560, Note_off_c, 4, 41, 95
4, 82560, Note_on_c, 4, 41, 95
4, 83040, Note_off_c, 4, 41, 95
4, 83040, Note_on_c, 4, 41, 95
4, 83520, Note_off_c, 4, 41, 95
4, 83520, Note_on_c, 4, 41, 95
4, 84000, Note_off_c, 4, 41, 95
4, 84000, Note_on_c, 4, 41, 95
4, 84480, Note_off_c, 4, 41, 95
4, 84480, Note_on_c, 4, 41, 95
4, 84960, Note_off_c, 4, 41, 95
4, 84960, Note_on_c, 4, 34, 95
4, 85440, Note_off_c, 4, 34, 95
4, 85440, Note_on_c, 4, 34, 95
4, 85920, Note_off_c, 4, 34, 95
4, 85920, Note_on_c, 4, 34, 95
4, 86400, Note_off_c, 4, 34, 95
4, 86400, Note_on_c, 4, 34, 95
4, 86880, Note_off_c, 4, 34, 95
4, 86880, Note_on_c, 4, 34, 95
4, 87360, Note_off_c, 4, 34, 95
4, 87360, Note_on_c, 4, 34, 95
4, 87840, Note_off_c, 4, 34, 95
4, 87840, Note_on_c, 4, 34, 95
4, 88320, Note_off_c, 4, 34, 95
4, 88320, Note_on_c, 4, 34, 95
4, 88800, Note_off_c, 4, 34, 95
4, 88800, Note_on_c, 4, 31, 95
4, 89280, Note_off_c, 4, 31, 95
4, 89280, Note_on_c, 4, 31, 95
4, 89760, Note_off_c, 4, 31, 95
4, 89760, Note_on_c, 4, 31, 95
4, 90240, Note_off_c, 4, 31, 95
4, 90240, Note_on_c, 4, 31, 95
4, 90720, Note_off_c, 4, 31, 95
4, 90720, Note_on_c, 4, 31, 95
4, 91200, Note_off_c, 4, 31, 95
4, 91200, Note_on_c, 4, 31, 95
4, 91680, Note_off_c, 4, 31, 95
4, 91680, Note_on_c, 4, 31, 95
4, 92160, Note_off_c, 4, 31, 95
4, 92160, Note_on_c, 4, 31, 95
4, 92640, Note_off_c, 4, 31, 95
4, 92640, Note_on_c, 4, 36, 95
4, 93120, Note_off_c, 4, 36, 95
4, 93120, Note_on_c, 4, 36, 95
4, 93600, Note_off_c, 4, 36, 95
4, 93600, Note_on_c, 4, 36, 95
4, 94080, Note_off_c, 4, 36, 95
4, 94080, Note_on_c, 4, 36, 95
4, 94560, Note_off_c, 4, 36, 95
4, 94560, Note_on_c, 4, 35, 95
4, 95040, Note_off_c, 4, 35, 95
4, 95040, Note_on_c, 4, 36, 95
4, 95520, Note_off_c, 4, 36, 95
4, 95520, Note_on_c, 4, 36, 95
4, 96000, Note_off_c, 4, 36, 95
4, 96000, Note_on_c, 4, 36, 95
4, 96480, Note_off_c, 4, 36, 95
4, 96480, Note_on_c, 4, 35, 95
4, 96960, Note_off_c, 4, 35, 95
4, 96960, Note_on_c, 4, 36, 95
4, 97440, Note_off_c, 4, 36, 95
4, 97440, Note_on_c, 4, 36, 95
4, 97920, Note_off_c, 4, 36, 95
4, 97920, Note_on_c, 4, 36, 95
4, 98400, Note_off_c, 4, 36, 95
4, 98400, Note_on_c, 4, 36, 95
4, 98880, Note_off_c, 4, 36, 95
4, 98880, Note_on_c, 4, 36, 95
4, 99360, Note_off_c, 4, 36, 95
4, 99360, Note_on_c, 4, 36, 95
4, 99840, Note_off_c, 4, 36, 95
4, 99840, Note_on_c, 4, 36, 95
4, 100320, Note_off_c, 4, 36, 95
4, 100320, Note_on_c, 4, 34, 95
4, 100800, Note_off_c, 4, 34, 95
4, 100800, Note_on_c, 4, 34, 95
4, 101280, Note_off_c, 4, 34, 95
4, 101280, Note_on_c, 4, 34, 95
4, 101760, Note_off_c, 4, 34, 95
4, 101760, Note_on_c, 4, 34, 95
4, 102240, Note_off_c, 4, 34, 95
4, 102240, Note_on_c, 4, 34, 95
4, 102720, Note_off_c, 4, 34, 95
4, 102720, Note_on_c, 4, 34, 95
4, 103200, Note_off_c, 4, 34, 95
4, 103200, Note_on_c, 4, 34, 95
4, 103680, Note_off_c, 4, 34, 95
4, 103680, Note_on_c, 4, 34, 95
4, 104160, Note_off_c, 4, 34, 95
4, 104160, Note_on_c, 4, 36, 95
4, 104640, Note_off_c, 4, 36, 95
4, 104640, Note_on_c, 4, 36, 95
4, 105120, Note_off_c, 4, 36, 95
4, 105120, Note_on_c, 4, 36, 95
4, 105600, Note_off_c, 4, 36, 95
4, 105600, Note_on_c, 4, 36, 95
4, 106080, Note_off_c, 4, 36, 95
4, 106080, Note_on_c, 4, 36, 95
4, 106560, Note_off_c, 4, 36, 95
4, 106560, Note_on_c, 4, 36, 95
4, 107040, Note_off_c, 4, 36, 95
4, 107040, Note_on_c, 4, 36, 95
4, 107520, Note_off_c, 4, 36, 95
4, 107520, Note_on_c, 4, 36, 95
4, 108000, Note_off_c, 4, 36, 95
4, 108000, Note_on_c, 4, 34, 95
4, 108480, Note_off_c, 4, 34, 95
4, 108480, Note_on_c, 4, 34, 95
4, 108960, Note_off_c, 4, 34, 95
4, 108960, Note_on_c, 4, 34, 95
4, 109440, Note_off_c, 4, 34, 95
4, 109440, Note_on_c, 4, 34, 95
4, 109920, Note_off_c, 4, 34, 95
4, 109920, Note_on_c, 4, 34, 95
4, 110400, Note_off_c, 4, 34, 95
4, 110400, Note_on_c, 4, 34, 95
4, 110880, Note_off_c, 4, 34, 95
4, 110880, Note_on_c, 4, 34, 95
4, 111360, Note_off_c, 4, 34, 95
4, 111360, Note_on_c, 4, 34, 95
4, 111840, Note_off_c, 4, 34, 95
4, 111840, Note_on_c, 4, 36, 95
4, 112320, Note_off_c, 4, 36, 95
4, 112320, Note_on_c, 4, 36, 95
4, 112800, Note_off_c, 4, 36, 95
4, 112800, Note_on_c, 4, 36, 95
4, 113280, Note_off_c, 4, 36, 95
4, 113280, Note_on_c, 4, 36, 95
4, 113760, Note_off_c, 4, 36, 95
4, 113760, Note_on_c, 4, 36, 95
4, 114240, Note_off_c, 4, 36, 95
4, 114240, Note_on_c, 4, 36, 95
4, 114720, Note_off_c, 4, 36, 95
4, 114720, Note_on_c, 4, 36, 95
4, 115200, Note_off_c, 4, 36, 95
4, 115200, Note_on_c, 4, 36, 95
4, 115680, Note_off_c, 4, 36, 95
4, 115680, Note_on_c, 4, 34, 95
4, 116160, Note_off_c, 4, 34, 95
4, 116160, Note_on_c, 4, 34, 95
4, 116640, Note_off_c, 4, 34, 95
4, 116640, Note_on_c, 4, 34, 95
4, 117120, Note_off_c, 4, 34, 95
4, 117120, Note_on_c, 4, 34, 95
4, 117600, Note_off_c, 4, 34, 95
4, 117600, Note_on_c, 4, 34, 95
4, 118080, Note_off_c, 4, 34, 95
4, 118080, Note_on_c, 4, 34, 95
4, 118560, Note_off_c, 4, 34, 95
4, 118560, Note_on_c, 4, 34, 95
4, 119040, Note_off_c, 4, 34, 95
4, 119040, Note_on_c, 4, 34, 95
4, 119520, Note_off_c, 4, 34, 95
4, 119520, Note_on_c, 4, 36, 95
4, 120000, Note_off_c, 4, 36, 95
4, 120000, Note_on_c, 4, 36, 95
4, 120480, Note_off_c, 4, 36, 95
4, 120480, Note_on_c, 4, 36, 95
4, 120960, Note_off_c, 4, 36, 95
4, 120960, Note_on_c, 4, 36, 95
4, 121440, Note_off_c, 4, 36, 95
4, 121440, Note_on_c, 4, 36, 95
4, 121920, Note_off_c, 4, 36, 95
4, 121920, Note_on_c, 4, 36, 95
4, 122400, Note_off_c, 4, 36, 95
4, 122400, Note_on_c, 4, 36, 95
4, 122880, Note_off_c, 4, 36, 95
4, 122880, Note_on_c, 4, 36, 95
4, 123360, Note_off_c, 4, 36, 95
4, 123360, Note_on_c, 4, 41, 95
4, 123840, Note_off_c, 4, 41, 95
4, 123840, Note_on_c, 4, 41, 95
4, 124320, Note_off_c, 4, 41, 95
4, 124320, Note_on_c, 4, 41, 95
4, 124800, Note_off_c, 4, 41, 95
4, 124800, Note_on_c, 4, 41, 95
4, 125280, Note_off_c, 4, 41, 95
4, 125280, Note_on_c, 4, 41, 95
4, 125760, Note_off_c, 4, 41, 95
4, 125760, Note_on_c, 4, 41, 95
4, 126240, Note_off_c, 4, 41, 95
4, 126240, Note_on_c, 4, 41, 95
4, 126720, Note_off_c, 4, 41, 95
4, 126720, Note_on_c, 4, 41, 95
4, 127200, Note_off_c, 4, 41, 95
4, 127200, Note_on_c, 4, 41, 95
4, 127680, Note_off_c, 4, 41, 95
4, 127680, Note_on_c, 4, 41, 95
4, 128160, Note_off_c, 4, 41, 95
4, 128160, Note_on_c, 4, 41, 95
4, 128640, Note_off_c, 4, 41, 95
4, 128640, Note_on_c, 4, 41, 95
4, 129120, Note_off_c, 4, 41, 95
4, 129120, Note_on_c, 4, 41, 95
4, 129600, Note_off_c, 4, 41, 95
4, 129600, Note_on_c, 4, 41, 95
4, 130080, Note_off_c, 4, 41, 95
4, 130080, Note_on_c, 4, 41, 95
4, 130560, Note_off_c, 4, 41, 95
4, 130560, Note_on_c, 4, 41, 95
4, 131040, Note_off_c, 4, 41, 95
4, 131040, Note_on_c, 4, 41, 95
4, 132000, Note_off_c, 4, 41, 95
4, 132000, Note_on_c, 4, 41, 95
4, 132960, Note_off_c, 4, 41, 95
4, 132960, Note_on_c, 4, 34, 95
4, 133920, Note_off_c, 4, 34, 95
4, 133920, Note_on_c, 4, 34, 95
4, 134880, Note_off_c, 4, 34, 95
4, 134880, Note_on_c, 4, 41, 95
4, 135360, Note_off_c, 4, 41, 95
4, 135360, Note_on_c, 4, 41, 95
4, 135840, Note_off_c, 4, 41, 95
4, 135840, Note_on_c, 4, 41, 95
4, 136320, Note_off_c, 4, 41, 95
4, 136320, Note_on_c, 4, 41, 95
4, 136800, Note_off_c, 4, 41, 95
4, 136800, Note_on_c, 4, 41, 95
4, 137280, Note_off_c, 4, 41, 95
4, 137280, Note_on_c, 4, 41, 95
4, 137760, Note_off_c, 4, 41, 95
4, 137760, Note_on_c, 4, 41, 95
4, 138240, Note_off_c, 4, 41, 95
4, 138240, Note_on_c, 4, 41, 95
4, 138720, Note_off_c, 4, 41, 95
4, 138720, Note_on_c, 4, 41, 95
4, 139200, Note_off_c, 4, 41, 95
4, 139200, Note_on_c, 4, 41, 95
4, 139680, Note_off_c, 4, 41, 95
4, 139680, Note_on_c, 4, 41, 95
4, 140160, Note_off_c, 4, 41, 95
4, 140160, Note_on_c, 4, 41, 95
4, 140640, Note_off_c, 4, 41, 95
4, 140640, Note_on_c, 4, 41, 95
4, 141120, Note_off_c, 4, 41, 95
4, 141120, Note_on_c, 4, 41, 95
4, 141600, Note_off_c, 4, 41, 95
4, 141600, Note_on_c, 4, 41, 95
4, 142080, Note_off_c, 4, 41, 95
4, 142080, Note_on_c, 4, 41, 95
4, 142560, Note_off_c, 4, 41, 95
4, 142560, Note_on_c, 4, 41, 95
4, 143040, Note_off_c, 4, 41, 95
4, 143040, Note_on_c, 4, 41, 95
4, 143520, Note_off_c, 4, 41, 95
4, 143520, Note_on_c, 4, 41, 95
4, 144000, Note_off_c, 4, 41, 95
4, 144000, Note_on_c, 4, 41, 95
4, 144480, Note_off_c, 4, 41, 95
4, 144480, Note_on_c, 4, 41, 95
4, 144960, Note_off_c, 4, 41, 95
4, 144960, Note_on_c, 4, 41, 95
4, 145440, Note_off_c, 4, 41, 95
4, 145440, Note_on_c, 4, 41, 95
4, 145920, Note_off_c, 4, 41, 95
4, 145920, Note_on_c, 4, 41, 95
4, 146400, Note_off_c, 4, 41, 95
4, 146400, Note_on_c, 4, 41, 95
4, 146880, Note_off_c, 4, 41, 95
4, 146880, Note_on_c, 4, 41, 95
4, 147360, Note_off_c, 4, 41, 95
4, 147360, Note_on_c, 4, 41, 95
4, 147840, Note_off_c, 4, 41, 95
4, 147840, Note_on_c, 4, 41, 95
4, 148320, Note_off_c, 4, 41, 95
4, 148320, Note_on_c, 4, 41, 95
4, 148800, Note_off_c, 4, 41, 95
4, 148800, Note_on_c, 4, 41, 95
4, 149280, Note_off_c, 4, 41, 95
4, 149280, Note_on_c, 4, 41, 95
4, 149760, Note_off_c, 4, 41, 95
4, 149760, Note_on_c, 4, 41, 95
4, 150240, Note_off_c, 4, 41, 95
4, 150240, Note_on_c, 4, 41, 95
4, 150720, Note_off_c, 4, 41, 95
4, 150720, Note_on_c, 4, 41, 95
4, 151200, Note_off_c, 4, 41, 95
4, 151200, Note_on_c, 4, 41, 95
4, 151680, Note_off_c, 4, 41, 95
4, 151680, Note_on_c, 4, 41, 95
4, 152160, Note_off_c, 4, 41, 95
4, 152160, Note_on_c, 4, 41, 95
4, 152640, Note_off_c, 4, 41, 95
4, 152640, Note_on_c, 4, 41, 95
4, 153120, Note_off_c, 4, 41, 95
4, 153120, Note_on_c, 4, 41, 95
4, 153600, Note_off_c, 4, 41, 95
4, 153600, Note_on_c, 4, 41, 95
4, 154080, Note_off_c, 4, 41, 95
4, 154080, Note_on_c, 4, 34, 95
4, 154560, Note_off_c, 4, 34, 95
4, 154560, Note_on_c, 4, 34, 95
4, 155040, Note_off_c, 4, 34, 95
4, 155040, Note_on_c, 4, 34, 95
4, 155520, Note_off_c, 4, 34, 95
4, 155520, Note_on_c, 4, 34, 95
4, 156000, Note_off_c, 4, 34, 95
4, 156000, Note_on_c, 4, 34, 95
4, 156480, Note_off_c, 4, 34, 95
4, 156480, Note_on_c, 4, 34, 95
4, 156960, Note_off_c, 4, 34, 95
4, 156960, Note_on_c, 4, 34, 95
4, 157440, Note_off_c, 4, 34, 95
4, 157440, Note_on_c, 4, 34, 95
4, 157920, Note_off_c, 4, 34, 95
4, 157920, Note_on_c, 4, 31, 95
4, 158400, Note_off_c, 4, 31, 95
4, 158400, Note_on_c, 4, 31, 95
4, 158880, Note_off_c, 4, 31, 95
4, 158880, Note_on_c, 4, 31, 95
4, 159360, Note_off_c, 4, 31, 95
4, 159360, Note_on_c, 4, 31, 95
4, 159840, Note_off_c, 4, 31, 95
4, 159840, Note_on_c, 4, 31, 95
4, 160320, Note_off_c, 4, 31, 95
4, 160320, Note_on_c, 4, 31, 95
4, 160800, Note_off_c, 4, 31, 95
4, 160800, Note_on_c, 4, 31, 95
4, 161280, Note_off_c, 4, 31, 95
4, 161280, Note_on_c, 4, 31, 95
4, 161760, Note_off_c, 4, 31, 95
4, 161760, Note_on_c, 4, 36, 95
4, 162240, Note_off_c, 4, 36, 95
4, 162240, Note_on_c, 4, 36, 95
4, 162720, Note_off_c, 4, 36, 95
4, 162720, Note_on_c, 4, 36, 95
4, 163200, Note_off_c, 4, 36, 95
4, 163200, Note_on_c, 4, 36, 95
4, 163680, Note_off_c, 4, 36, 95
4, 163680, Note_on_c, 4, 35, 95
4, 164160, Note_off_c, 4, 35, 95
4, 164160, Note_on_c, 4, 36, 95
4, 164640, Note_off_c, 4, 36, 95
4, 164640, Note_on_c, 4, 36, 95
4, 165120, Note_off_c, 4, 36, 95
4, 165120, Note_on_c, 4, 36, 95
4, 165600, Note_off_c, 4, 36, 95
4, 165600, Note_on_c, 4, 36, 95
4, 166080, Note_off_c, 4, 36, 95
4, 166080, Note_on_c, 4, 36, 95
4, 166560, Note_off_c, 4, 36, 95
4, 166560, Note_on_c, 4, 36, 95
4, 167040, Note_off_c, 4, 36, 95
4, 167040, Note_on_c, 4, 36, 95
4, 167520, Note_off_c, 4, 36, 95
4, 167520, Note_on_c, 4, 35, 95
4, 168000, Note_off_c, 4, 35, 95
4, 168000, Note_on_c, 4, 36, 95
4, 168480, Note_off_c, 4, 36, 95
4, 168480, Note_on_c, 4, 36, 95
4, 168960, Note_off_c, 4, 36, 95
4, 168960, Note_on_c, 4, 36, 95
4, 169440, Note_off_c, 4, 36, 95
4, 169440, Note_on_c, 4, 41, 95
4, 169920, Note_off_c, 4, 41, 95
4, 169920, Note_on_c, 4, 41, 95
4, 170400, Note_off_c, 4, 41, 95
4, 170400, Note_on_c, 4, 41, 95
4, 170880, Note_off_c, 4, 41, 95
4, 170880, Note_on_c, 4, 41, 95
4, 171360, Note_off_c, 4, 41, 95
4, 171360, Note_on_c, 4, 41, 95
4, 171840, Note_off_c, 4, 41, 95
4, 171840, Note_on_c, 4, 41, 95
4, 172320, Note_off_c, 4, 41, 95
4, 172320, Note_on_c, 4, 41, 95
4, 172800, Note_off_c, 4, 41, 95
4, 172800, Note_on_c, 4, 41, 95
4, 173280, Note_off_c, 4, 41, 95
4, 173280, Note_on_c, 4, 41, 95
4, 173760, Note_off_c, 4, 41, 95
4, 173760, Note_on_c, 4, 41, 95
4, 174240, Note_off_c, 4, 41, 95
4, 174240, Note_on_c, 4, 41, 95
4, 174720, Note_off_c, 4, 41, 95
4, 174720, Note_on_c, 4, 41, 95
4, 175200, Note_off_c, 4, 41, 95
4, 175200, Note_on_c, 4, 41, 95
4, 175680, Note_off_c, 4, 41, 95
4, 175680, Note_on_c, 4, 41, 95
4, 176160, Note_off_c, 4, 41, 95
4, 176160, Note_on_c, 4, 41, 95
4, 176640, Note_off_c, 4, 41, 95
4, 176640, Note_on_c, 4, 41, 95
4, 177120, Note_off_c, 4, 41, 95
4, 177120, Note_on_c, 4, 41, 95
4, 177600, Note_off_c, 4, 41, 95
4, 177600, Note_on_c, 4, 41, 95
4, 178080, Note_off_c, 4, 41, 95
4, 178080, Note_on_c, 4, 41, 95
4, 178560, Note_off_c, 4, 41, 95
4, 178560, Note_on_c, 4, 41, 95
4, 179040, Note_off_c, 4, 41, 95
4, 179040, Note_on_c, 4, 41, 95
4, 179520, Note_off_c, 4, 41, 95
4, 179520, Note_on_c, 4, 41, 95
4, 180000, Note_off_c, 4, 41, 95
4, 180000, Note_on_c, 4, 41, 95
4, 180480, Note_off_c, 4, 41, 95
4, 180480, Note_on_c, 4, 41, 95
4, 180960, Note_off_c, 4, 41, 95
4, 180960, Note_on_c, 4, 41, 95
4, 181440, Note_off_c, 4, 41, 95
4, 181440, Note_on_c, 4, 41, 95
4, 181920, Note_off_c, 4, 41, 95
4, 181920, Note_on_c, 4, 41, 95
4, 182400, Note_off_c, 4, 41, 95
4, 182400, Note_on_c, 4, 41, 95
4, 182880, Note_off_c, 4, 41, 95
4, 182880, Note_on_c, 4, 41, 95
4, 183360, Note_off_c, 4, 41, 95
4, 183360, Note_on_c, 4, 41, 95
4, 183840, Note_off_c, 4, 41, 95
4, 183840, Note_on_c, 4, 41, 95
4, 184320, Note_off_c, 4, 41, 95
4, 184320, Note_on_c, 4, 41, 95
4, 184800, Note_off_c, 4, 41, 95
4, 184800, Note_on_c, 4, 34, 95
4, 185280, Note_off_c, 4, 34, 95
4, 185280, Note_on_c, 4, 34, 95
4, 185760, Note_off_c, 4, 34, 95
4, 185760, Note_on_c, 4, 34, 95
4, 186240, Note_off_c, 4, 34, 95
4, 186240, Note_on_c, 4, 34, 95
4, 186720, Note_off_c, 4, 34, 95
4, 186720, Note_on_c, 4, 34, 95
4, 187200, Note_off_c, 4, 34, 95
4, 187200, Note_on_c, 4, 34, 95
4, 187680, Note_off_c, 4, 34, 95
4, 187680, Note_on_c, 4, 34, 95
4, 188160, Note_off_c, 4, 34, 95
4, 188160, Note_on_c, 4, 34, 95
4, 188640, Note_off_c, 4, 34, 95
4, 188640, Note_on_c, 4, 31, 95
4, 189120, Note_off_c, 4, 31, 95
4, 189120, Note_on_c, 4, 31, 95
4, 189600, Note_off_c, 4, 31, 95
4, 189600, Note_on_c, 4, 31, 95
4, 190080, Note_off_c, 4, 31, 95
4, 190080, Note_on_c, 4, 31, 95
4, 190560, Note_off_c, 4, 31, 95
4, 190560, Note_on_c, 4, 31, 95
4, 191040, Note_off_c, 4, 31, 95
4, 191040, Note_on_c, 4, 31, 95
4, 191520, Note_off_c, 4, 31, 95
4, 191520, Note_on_c, 4, 31, 95
4, 192000, Note_off_c, 4, 31, 95
4, 192000, Note_on_c, 4, 31, 95
4, 192480, Note_off_c, 4, 31, 95
4, 192480, Note_on_c, 4, 36, 95
4, 192960, Note_off_c, 4, 36, 95
4, 192960, Note_on_c, 4, 36, 95
4, 193440, Note_off_c, 4, 36, 95
4, 193440, Note_on_c, 4, 36, 95
4, 193920, Note_off_c, 4, 36, 95
4, 193920, Note_on_c, 4, 36, 95
4, 194400, Note_off_c, 4, 36, 95
4, 194400, Note_on_c, 4, 35, 95
4, 194880, Note_off_c, 4, 35, 95
4, 194880, Note_on_c, 4, 36, 95
4, 195360, Note_off_c, 4, 36, 95
4, 195360, Note_on_c, 4, 36, 95
4, 195840, Note_off_c, 4, 36, 95
4, 195840, Note_on_c, 4, 36, 95
4, 196320, Note_off_c, 4, 36, 95
4, 196320, Note_on_c, 4, 36, 95
4, 196800, Note_off_c, 4, 36, 95
4, 196800, Note_on_c, 4, 36, 95
4, 197280, Note_off_c, 4, 36, 95
4, 197280, Note_on_c, 4, 36, 95
4, 197760, Note_off_c, 4, 36, 95
4, 197760, Note_on_c, 4, 36, 95
4, 198240, Note_off_c, 4, 36, 95
4, 198240, Note_on_c, 4, 35, 95
4, 198720, Note_off_c, 4, 35, 95
4, 198720, Note_on_c, 4, 36, 95
4, 199200, Note_off_c, 4, 36, 95
4, 199200, Note_on_c, 4, 36, 95
4, 199680, Note_off_c, 4, 36, 95
4, 199680, Note_on_c, 4, 36, 95
4, 200160, Note_off_c, 4, 36, 95
4, 200160, Note_on_c, 4, 34, 95
4, 200640, Note_off_c, 4, 34, 95
4, 200640, Note_on_c, 4, 34, 95
4, 201120, Note_off_c, 4, 34, 95
4, 201120, Note_on_c, 4, 34, 95
4, 201600, Note_off_c, 4, 34, 95
4, 201600, Note_on_c, 4, 34, 95
4, 202080, Note_off_c, 4, 34, 95
4, 202080, Note_on_c, 4, 34, 95
4, 202560, Note_off_c, 4, 34, 95
4, 202560, Note_on_c, 4, 34, 95
4, 203040, Note_off_c, 4, 34, 95
4, 203040, Note_on_c, 4, 34, 95
4, 203520, Note_off_c, 4, 34, 95
4, 203520, Note_on_c, 4, 34, 95
4, 204000, Note_off_c, 4, 34, 95
4, 204000, Note_on_c, 4, 36, 95
4, 204480, Note_off_c, 4, 36, 95
4, 204480, Note_on_c, 4, 36, 95
4, 204960, Note_off_c, 4, 36, 95
4, 204960, Note_on_c, 4, 36, 95
4, 205440, Note_off_c, 4, 36, 95
4, 205440, Note_on_c, 4, 36, 95
4, 205920, Note_off_c, 4, 36, 95
4, 205920, Note_on_c, 4, 36, 95
4, 206400, Note_off_c, 4, 36, 95
4, 206400, Note_on_c, 4, 36, 95
4, 206880, Note_off_c, 4, 36, 95
4, 206880, Note_on_c, 4, 36, 95
4, 207360, Note_off_c, 4, 36, 95
4, 207360, Note_on_c, 4, 36, 95
4, 207840, Note_off_c, 4, 36, 95
4, 207840, Note_on_c, 4, 34, 95
4, 208320, Note_off_c, 4, 34, 95
4, 208320, Note_on_c, 4, 34, 95
4, 208800, Note_off_c, 4, 34, 95
4, 208800, Note_on_c, 4, 34, 95
4, 209280, Note_off_c, 4, 34, 95
4, 209280, Note_on_c, 4, 34, 95
4, 209760, Note_off_c, 4, 34, 95
4, 209760, Note_on_c, 4, 34, 95
4, 210240, Note_off_c, 4, 34, 95
4, 210240, Note_on_c, 4, 34, 95
4, 210720, Note_off_c, 4, 34, 95
4, 210720, Note_on_c, 4, 34, 95
4, 211200, Note_off_c, 4, 34, 95
4, 211200, Note_on_c, 4, 34, 95
4, 211680, Note_off_c, 4, 34, 95
4, 211680, Note_on_c, 4, 36, 95
4, 212160, Note_off_c, 4, 36, 95
4, 212160, Note_on_c, 4, 36, 95
4, 212640, Note_off_c, 4, 36, 95
4, 212640, Note_on_c, 4, 36, 95
4, 213120, Note_off_c, 4, 36, 95
4, 213120, Note_on_c, 4, 36, 95
4, 213600, Note_off_c, 4, 36, 95
4, 213600, Note_on_c, 4, 36, 95
4, 214080, Note_off_c, 4, 36, 95
4, 214080, Note_on_c, 4, 36, 95
4, 214560, Note_off_c, 4, 36, 95
4, 214560, Note_on_c, 4, 36, 95
4, 215040, Note_off_c, 4, 36, 95
4, 215040, Note_on_c, 4, 36, 95
4, 215520, Note_off_c, 4, 36, 95
4, 215520, Note_on_c, 4, 34, 95
4, 216000, Note_off_c, 4, 34, 95
4, 216000, Note_on_c, 4, 34, 95
4, 216480, Note_off_c, 4, 34, 95
4, 216480, Note_on_c, 4, 34, 95
4, 216960, Note_off_c, 4, 34, 95
4, 216960, Note_on_c, 4, 34, 95
4, 217440, Note_off_c, 4, 34, 95
4, 217440, Note_on_c, 4, 34, 95
4, 217920, Note_off_c, 4, 34, 95
4, 217920, Note_on_c, 4, 34, 95
4, 218400, Note_off_c, 4, 34, 95
4, 218400, Note_on_c, 4, 34, 95
4, 218880, Note_off_c, 4, 34, 95
4, 218880, Note_on_c, 4, 34, 95
4, 219360, Note_off_c, 4, 34, 95
4, 219360, Note_on_c, 4, 36, 95
4, 219840, Note_off_c, 4, 36, 95
4, 219840, Note_on_c, 4, 36, 95
4, 220320, Note_off_c, 4, 36, 95
4, 220320, Note_on_c, 4, 36, 95
4, 220800, Note_off_c, 4, 36, 95
4, 220800, Note_on_c, 4, 36, 95
4, 221280, Note_off_c, 4, 36, 95
4, 221280, Note_on_c, 4, 36, 95
4, 221760, Note_off_c, 4, 36, 95
4, 221760, Note_on_c, 4, 36, 95
4, 222240, Note_off_c, 4, 36, 95
4, 222240, Note_on_c, 4, 36, 95
4, 222720, Note_off_c, 4, 36, 95
4, 222720, Note_on_c, 4, 36, 95
4, 223200, Note_off_c, 4, 36, 95
4, 223200, Note_on_c, 4, 41, 95
4, 223680, Note_off_c, 4, 41, 95
4, 223680, Note_on_c, 4, 41, 95
4, 224160, Note_off_c, 4, 41, 95
4, 224160, Note_on_c, 4, 41, 95
4, 224640, Note_off_c, 4, 41, 95
4, 224640, Note_on_c, 4, 41, 95
4, 225120, Note_off_c, 4, 41, 95
4, 225120, Note_on_c, 4, 41, 95
4, 225600, Note_off_c, 4, 41, 95
4, 225600, Note_on_c, 4, 41, 95
4, 226080, Note_off_c, 4, 41, 95
4, 226080, Note_on_c, 4, 41, 95
4, 226560, Note_off_c, 4, 41, 95
4, 226560, Note_on_c, 4, 41, 95
4, 227040, Note_off_c, 4, 41, 95
4, 227040, Note_on_c, 4, 41, 95
4, 227520, Note_off_c, 4, 41, 95
4, 227520, Note_on_c, 4, 41, 95
4, 228000, Note_off_c, 4, 41, 95
4, 228000, Note_on_c, 4, 41, 95
4, 228480, Note_off_c, 4, 41, 95
4, 228480, Note_on_c, 4, 41, 95
4, 228960, Note_off_c, 4, 41, 95
4, 228960, Note_on_c, 4, 41, 95
4, 229440, Note_off_c, 4, 41, 95
4, 229440, Note_on_c, 4, 41, 95
4, 229920, Note_off_c, 4, 41, 95
4, 229920, Note_on_c, 4, 41, 95
4, 230400, Note_off_c, 4, 41, 95
4, 230400, Note_on_c, 4, 41, 95
4, 230880, Note_off_c, 4, 41, 95
4, 230880, Note_on_c, 4, 41, 95
4, 231840, Note_off_c, 4, 41, 95
4, 231840, Note_on_c, 4, 41, 95
4, 232800, Note_off_c, 4, 41, 95
4, 232800, Note_on_c, 4, 34, 95
4, 233760, Note_off_c, 4, 34, 95
4, 233760, Note_on_c, 4, 34, 95
4, 234720, Note_off_c, 4, 34, 95
4, 234720, Note_on_c, 4, 41, 95
4, 235200, Note_off_c, 4, 41, 95
4, 235200, Note_on_c, 4, 41, 95
4, 235680, Note_off_c, 4, 41, 95
4, 235680, Note_on_c, 4, 41, 95
4, 236160, Note_off_c, 4, 41, 95
4, 236160, Note_on_c, 4, 41, 95
4, 236640, Note_off_c, 4, 41, 95
4, 236640, Note_on_c, 4, 41, 95
4, 237120, Note_off_c, 4, 41, 95
4, 237120, Note_on_c, 4, 41, 95
4, 237600, Note_off_c, 4, 41, 95
4, 237600, Note_on_c, 4, 41, 95
4, 238080, Note_off_c, 4, 41, 95
4, 238080, Note_on_c, 4, 41, 95
4, 238560, Note_off_c, 4, 41, 95
4, 238560, Note_on_c, 4, 29, 95
4, 239040, Note_off_c, 4, 29, 95
4, 239040, Note_on_c, 4, 29, 95
4, 239520, Note_off_c, 4, 29, 95
4, 239520, Note_on_c, 4, 29, 95
4, 240000, Note_off_c, 4, 29, 95
4, 240000, Note_on_c, 4, 29, 95
4, 240480, Note_off_c, 4, 29, 95
4, 240480, Note_on_c, 4, 29, 95
4, 240960, Note_off_c, 4, 29, 95
4, 240960, Note_on_c, 4, 29, 95
4, 241440, Note_off_c, 4, 29, 95
4, 241440, Note_on_c, 4, 29, 95
4, 241920, Note_off_c, 4, 29, 95
4, 241920, Note_on_c, 4, 29, 95
4, 242400, Note_off_c, 4, 29, 95
4, 242400, Note_on_c, 4, 31, 95
4, 242880, Note_off_c, 4, 31, 95
4, 242880, Note_on_c, 4, 31, 95
4, 243360, Note_off_c, 4, 31, 95
4, 243360, Note_on_c, 4, 31, 95
4, 243840, Note_off_c, 4, 31, 95
4, 243840, Note_on_c, 4, 31, 95
4, 244320, Note_off_c, 4, 31, 95
4, 244320, Note_on_c, 4, 31, 95
4, 244800, Note_off_c, 4, 31, 95
4, 244800, Note_on_c, 4, 31, 95
4, 245280, Note_off_c, 4, 31, 95
4, 245280, Note_on_c, 4, 31, 95
4, 245760, Note_off_c, 4, 31, 95
4, 245760, Note_on_c, 4, 31, 95
4, 246240, Note_off_c, 4, 31, 95
4, 246240, Note_on_c, 4, 36, 95
4, 246720, Note_off_c, 4, 36, 95
4, 246720, Note_on_c, 4, 36, 95
4, 247200, Note_off_c, 4, 36, 95
4, 247200, Note_on_c, 4, 36, 95
4, 247680, Note_off_c, 4, 36, 95
4, 247680, Note_on_c, 4, 36, 95
4, 248160, Note_off_c, 4, 36, 95
4, 248160, Note_on_c, 4, 36, 95
4, 248640, Note_off_c, 4, 36, 95
4, 248640, Note_on_c, 4, 36, 95
4, 249120, Note_off_c, 4, 36, 95
4, 249120, Note_on_c, 4, 36, 95
4, 249600, Note_off_c, 4, 36, 95
4, 249600, Note_on_c, 4, 36, 95
4, 250080, Note_off_c, 4, 36, 95
4, 250080, Note_on_c, 4, 36, 95
4, 250560, Note_off_c, 4, 36, 95
4, 250560, Note_on_c, 4, 36, 95
4, 251040, Note_off_c, 4, 36, 95
4, 251040, Note_on_c, 4, 36, 95
4, 251520, Note_off_c, 4, 36, 95
4, 251520, Note_on_c, 4, 36, 95
4, 252000, Note_off_c, 4, 36, 95
4, 252000, Note_on_c, 4, 36, 95
4, 252480, Note_off_c, 4, 36, 95
4, 252480, Note_on_c, 4, 36, 95
4, 252960, Note_off_c, 4, 36, 95
4, 252960, Note_on_c, 4, 36, 95
4, 253440, Note_off_c, 4, 36, 95
4, 253440, Note_on_c, 4, 36, 95
4, 253920, Note_off_c, 4, 36, 95
4, 253920, Note_on_c, 4, 29, 95
4, 254400, Note_off_c, 4, 29, 95
4, 254400, Note_on_c, 4, 29, 95
4, 254880, Note_off_c, 4, 29, 95
4, 254880, Note_on_c, 4, 29, 95
4, 255360, Note_off_c, 4, 29, 95
4, 255360, Note_on_c, 4, 29, 95
4, 255840, Note_off_c, 4, 29, 95
4, 255840, Note_on_c, 4, 29, 95
4, 256320, Note_off_c, 4, 29, 95
4, 256320, Note_on_c, 4, 29, 95
4, 256800, Note_off_c, 4, 29, 95
4, 256800, Note_on_c, 4, 29, 95
4, 257280, Note_off_c, 4, 29, 95
4, 257280, Note_on_c, 4, 29, 95
4, 257760, Note_off_c, 4, 29, 95
4, 257760, Note_on_c, 4, 31, 95
4, 258240, Note_off_c, 4, 31, 95
4, 258240, Note_on_c, 4, 31, 95
4, 258720, Note_off_c, 4, 31, 95
4, 258720, Note_on_c, 4, 31, 95
4, 259200, Note_off_c, 4, 31, 95
4, 259200, Note_on_c, 4, 31, 95
4, 259680, Note_off_c, 4, 31, 95
4, 259680, Note_on_c, 4, 31, 95
4, 260160, Note_off_c, 4, 31, 95
4, 260160, Note_on_c, 4, 31, 95
4, 260640, Note_off_c, 4, 31, 95
4, 260640, Note_on_c, 4, 31, 95
4, 261120, Note_off_c, 4, 31, 95
4, 261120, Note_on_c, 4, 31, 95
4, 261600, Note_off_c, 4, 31, 95
4, 261600, Note_on_c, 4, 36, 95
4, 262080, Note_off_c, 4, 36, 95
4, 262080, Note_on_c, 4, 36, 95
4, 262560, Note_off_c, 4, 36, 95
4, 262560, Note_on_c, 4, 36, 95
4, 263040, Note_off_c, 4, 36, 95
4, 263040, Note_on_c, 4, 36, 95
4, 263520, Note_off_c, 4, 36, 95
4, 263520, Note_on_c, 4, 36, 95
4, 264000, Note_off_c, 4, 36, 95
4, 264000, Note_on_c, 4, 36, 95
4, 264480, Note_off_c, 4, 36, 95
4, 264480, Note_on_c, 4, 36, 95
4, 264960, Note_off_c, 4, 36, 95
4, 264960, Note_on_c, 4, 36, 95
4, 265440, Note_off_c, 4, 36, 95
4, 265440, Note_on_c, 4, 36, 95
4, 265920, Note_off_c, 4, 36, 95
4, 265920, Note_on_c, 4, 36, 95
4, 266400, Note_off_c, 4, 36, 95
4, 266400, Note_on_c, 4, 36, 95
4, 266880, Note_off_c, 4, 36, 95
4, 266880, Note_on_c, 4, 36, 95
4, 267360, Note_off_c, 4, 36, 95
4, 267360, Note_on_c, 4, 36, 95
4, 267840, Note_off_c, 4, 36, 95
4, 267840, Note_on_c, 4, 36, 95
4, 268320, Note_off_c, 4, 36, 95
4, 268320, Note_on_c, 4, 36, 95
4, 268800, Note_off_c, 4, 36, 95
4, 268800, Note_on_c, 4, 36, 95
4, 269280, Note_off_c, 4, 36, 95
4, 269280, Note_on_c, 4, 29, 95
4, 269760, Note_off_c, 4, 29, 95
4, 269760, Note_on_c, 4, 29, 95
4, 270240, Note_off_c, 4, 29, 95
4, 270240, Note_on_c, 4, 29, 95
4, 270720, Note_off_c, 4, 29, 95
4, 270720, Note_on_c, 4, 29, 95
4, 271200, Note_off_c, 4, 29, 95
4, 271200, Note_on_c, 4, 29, 95
4, 271680, Note_off_c, 4, 29, 95
4, 271680, Note_on_c, 4, 29, 95
4, 272160, Note_off_c, 4, 29, 95
4, 272160, Note_on_c, 4, 29, 95
4, 272640, Note_off_c, 4, 29, 95
4, 272640, Note_on_c, 4, 29, 95
4, 273120, Note_off_c, 4, 29, 95
4, 273120, Note_on_c, 4, 31, 95
4, 273600, Note_off_c, 4, 31, 95
4, 273600, Note_on_c, 4, 31, 95
4, 274080, Note_off_c, 4, 31, 95
4, 274080, Note_on_c, 4, 31, 95
4, 274560, Note_off_c, 4, 31, 95
4, 274560, Note_on_c, 4, 31, 95
4, 275040, Note_off_c, 4, 31, 95
4, 275040, Note_on_c, 4, 31, 95
4, 275520, Note_off_c, 4, 31, 95
4, 275520, Note_on_c, 4, 31, 95
4, 276000, Note_off_c, 4, 31, 95
4, 276000, Note_on_c, 4, 31, 95
4, 276480, Note_off_c, 4, 31, 95
4, 276480, Note_on_c, 4, 31, 95
4, 276960, Note_off_c, 4, 31, 95
4, 276960, Note_on_c, 4, 36, 95
4, 277440, Note_off_c, 4, 36, 95
4, 277440, Note_on_c, 4, 36, 95
4, 277920, Note_off_c, 4, 36, 95
4, 277920, Note_on_c, 4, 36, 95
4, 278400, Note_off_c, 4, 36, 95
4, 278400, Note_on_c, 4, 36, 95
4, 278880, Note_off_c, 4, 36, 95
4, 278880, Note_on_c, 4, 36, 95
4, 279360, Note_off_c, 4, 36, 95
4, 279360, Note_on_c, 4, 36, 95
4, 279840, Note_off_c, 4, 36, 95
4, 279840, Note_on_c, 4, 36, 95
4, 280320, Note_off_c, 4, 36, 95
4, 280320, Note_on_c, 4, 36, 95
4, 280800, Note_off_c, 4, 36, 95
4, 280800, Note_on_c, 4, 36, 95
4, 281280, Note_off_c, 4, 36, 95
4, 281280, Note_on_c, 4, 36, 95
4, 281760, Note_off_c, 4, 36, 95
4, 281760, Note_on_c, 4, 36, 95
4, 282240, Note_off_c, 4, 36, 95
4, 282240, Note_on_c, 4, 36, 95
4, 282720, Note_off_c, 4, 36, 95
4, 282720, Note_on_c, 4, 36, 95
4, 283200, Note_off_c, 4, 36, 95
4, 283200, Note_on_c, 4, 36, 95
4, 283680, Note_off_c, 4, 36, 95
4, 283680, Note_on_c, 4, 36, 95
4, 284160, Note_off_c, 4, 36, 95
4, 284160, Note_on_c, 4, 36, 95
4, 284640, Note_off_c, 4, 36, 95
4, 284640, Note_on_c, 4, 29, 95
4, 285120, Note_off_c, 4, 29, 95
4, 285120, Note_on_c, 4, 29, 95
4, 285600, Note_off_c, 4, 29, 95
4, 285600, Note_on_c, 4, 29, 95
4, 286080, Note_off_c, 4, 29, 95
4, 286080, Note_on_c, 4, 29, 95
4, 286560, Note_off_c, 4, 29, 95
4, 286560, Note_on_c, 4, 29, 95
4, 287040, Note_off_c, 4, 29, 95
4, 287040, Note_on_c, 4, 29, 95
4, 287520, Note_off_c, 4, 29, 95
4, 287520, Note_on_c, 4, 29, 95
4, 288000, Note_off_c, 4, 29, 95
4, 288000, Note_on_c, 4, 29, 95
4, 288480, Note_off_c, 4, 29, 95
4, 288480, Note_on_c, 4, 31, 95
4, 288960, Note_off_c, 4, 31, 95
4, 288960, Note_on_c, 4, 31, 95
4, 289440, Note_off_c, 4, 31, 95
4, 289440, Note_on_c, 4, 31, 95
4, 289920, Note_off_c, 4, 31, 95
4, 289920, Note_on_c, 4, 31, 95
4, 290400, Note_off_c, 4, 31, 95
4, 290400, Note_on_c, 4, 31, 95
4, 290880, Note_off_c, 4, 31, 95
4, 290880, Note_on_c, 4, 31, 95
4, 291360, Note_off_c, 4, 31, 95
4, 291360, Note_on_c, 4, 31, 95
4, 291840, Note_off_c, 4, 31, 95
4, 291840, Note_on_c, 4, 31, 95
4, 292320, Note_off_c, 4, 31, 95
4, 292320, Note_on_c, 4, 36, 95
4, 292800, Note_off_c, 4, 36, 95
4, 292800, Note_on_c, 4, 36, 95
4, 293280, Note_off_c, 4, 36, 95
4, 293280, Note_on_c, 4, 36, 95
4, 293760, Note_off_c, 4, 36, 95
4, 293760, Note_on_c, 4, 36, 95
4, 294240, Note_off_c, 4, 36, 95
4, 294240, Note_on_c, 4, 36, 95
4, 294720, Note_off_c, 4, 36, 95
4, 294720, Note_on_c, 4, 36, 95
4, 295200, Note_off_c, 4, 36, 95
4, 295200, Note_on_c, 4, 36, 95
4, 295680, Note_off_c, 4, 36, 95
4, 295680, Note_on_c, 4, 36, 95
4, 296160, Note_off_c, 4, 36, 95
4, 296160, Note_on_c, 4, 36, 95
4, 296640, Note_off_c, 4, 36, 95
4, 296640, Note_on_c, 4, 36, 95
4, 297120, Note_off_c, 4, 36, 95
4, 297120, Note_on_c, 4, 36, 95
4, 297600, Note_off_c, 4, 36, 95
4, 297600, Note_on_c, 4, 36, 95
4, 298080, Note_off_c, 4, 36, 95
4, 298080, Note_on_c, 4, 36, 95
4, 298560, Note_off_c, 4, 36, 95
4, 298560, Note_on_c, 4, 36, 95
4, 299040, Note_off_c, 4, 36, 95
4, 299040, Note_on_c, 4, 36, 95
4, 299520, Note_off_c, 4, 36, 95
4, 299520, Note_on_c, 4, 36, 95
4, 300000, Note_off_c, 4, 36, 95
4, 300000, Note_on_c, 4, 41, 95
4, 300480, Note_off_c, 4, 41, 95
4, 300480, Note_on_c, 4, 41, 95
4, 300960, Note_off_c, 4, 41, 95
4, 300960, Note_on_c, 4, 41, 95
4, 301440, Note_off_c, 4, 41, 95
4, 301440, Note_on_c, 4, 41, 95
4, 301920, Note_off_c, 4, 41, 95
4, 301920, Note_on_c, 4, 41, 95
4, 302400, Note_off_c, 4, 41, 95
4, 302400, Note_on_c, 4, 41, 95
4, 302880, Note_off_c, 4, 41, 95
4, 302880, Note_on_c, 4, 41, 95
4, 303360, Note_off_c, 4, 41, 95
4, 303360, Note_on_c, 4, 41, 95
4, 303840, Note_off_c, 4, 41, 95
4, 303840, Note_on_c, 4, 41, 95
4, 304320, Note_off_c, 4, 41, 95
4, 304320, Note_on_c, 4, 41, 95
4, 304800, Note_off_c, 4, 41, 95
4, 304800, Note_on_c, 4, 41, 95
4, 305280, Note_off_c, 4, 41, 95
4, 305280, Note_on_c, 4, 41, 95
4, 305760, Note_off_c, 4, 41, 95
4, 305760, Note_on_c, 4, 41, 95
4, 306240, Note_off_c, 4, 41, 95
4, 306240, Note_on_c, 4, 41, 95
4, 306720, Note_off_c, 4, 41, 95
4, 306720, Note_on_c, 4, 41, 95
4, 307200, Note_off_c, 4, 41, 95
4, 307200, Note_on_c, 4, 41, 95
4, 307680, Note_off_c, 4, 41, 95
4, 307680, Note_on_c, 4, 41, 95
4, 308160, Note_off_c, 4, 41, 95
4, 308160, Note_on_c, 4, 41, 95
4, 308640, Note_off_c, 4, 41, 95
4, 308640, Note_on_c, 4, 41, 95
4, 309120, Note_off_c, 4, 41, 95
4, 309120, Note_on_c, 4, 41, 95
4, 309600, Note_off_c, 4, 41, 95
4, 309600, Note_on_c, 4, 41, 95
4, 310080, Note_off_c, 4, 41, 95
4, 310080, Note_on_c, 4, 41, 95
4, 310560, Note_off_c, 4, 41, 95
4, 310560, Note_on_c, 4, 41, 95
4, 311040, Note_off_c, 4, 41, 95
4, 311040, Note_on_c, 4, 41, 95
4, 311520, Note_off_c, 4, 41, 95
4, 311520, Note_on_c, 4, 41, 95
4, 312000, Note_off_c, 4, 41, 95
4, 312000, Note_on_c, 4, 41, 95
4, 312480, Note_off_c, 4, 41, 95
4, 312480, Note_on_c, 4, 41, 95
4, 312960, Note_off_c, 4, 41, 95
4, 312960, Note_on_c, 4, 41, 95
4, 313440, Note_off_c, 4, 41, 95
4, 313440, Note_on_c, 4, 41, 95
4, 313920, Note_off_c, 4, 41, 95
4, 313920, Note_on_c, 4, 41, 95
4, 314400, Note_off_c, 4, 41, 95
4, 314400, Note_on_c, 4, 41, 95
4, 314880, Note_off_c, 4, 41, 95
4, 314880, Note_on_c, 4, 41, 95
4, 315360, Note_off_c, 4, 41, 95
4, 315360, Note_on_c, 4, 34, 95
4, 315840, Note_off_c, 4, 34, 95
4, 315840, Note_on_c, 4, 34, 95
4, 316320, Note_off_c, 4, 34, 95
4, 316320, Note_on_c, 4, 34, 95
4, 316800, Note_off_c, 4, 34, 95
4, 316800, Note_on_c, 4, 34, 95
4, 317280, Note_off_c, 4, 34, 95
4, 317280, Note_on_c, 4, 34, 95
4, 317760, Note_off_c, 4, 34, 95
4, 317760, Note_on_c, 4, 34, 95
4, 318240, Note_off_c, 4, 34, 95
4, 318240, Note_on_c, 4, 34, 95
4, 318720, Note_off_c, 4, 34, 95
4, 318720, Note_on_c, 4, 34, 95
4, 319200, Note_off_c, 4, 34, 95
4, 319200, Note_on_c, 4, 31, 95
4, 319680, Note_off_c, 4, 31, 95
4, 319680, Note_on_c, 4, 31, 95
4, 320160, Note_off_c, 4, 31, 95
4, 320160, Note_on_c, 4, 31, 95
4, 320640, Note_off_c, 4, 31, 95
4, 320640, Note_on_c, 4, 31, 95
4, 321120, Note_off_c, 4, 31, 95
4, 321120, Note_on_c, 4, 31, 95
4, 321600, Note_off_c, 4, 31, 95
4, 321600, Note_on_c, 4, 31, 95
4, 322080, Note_off_c, 4, 31, 95
4, 322080, Note_on_c, 4, 31, 95
4, 322560, Note_off_c, 4, 31, 95
4, 322560, Note_on_c, 4, 31, 95
4, 323040, Note_off_c, 4, 31, 95
4, 323040, Note_on_c, 4, 36, 95
4, 323520, Note_off_c, 4, 36, 95
4, 323520, Note_on_c, 4, 36, 95
4, 324000, Note_off_c, 4, 36, 95
4, 324000, Note_on_c, 4, 36, 95
4, 324480, Note_off_c, 4, 36, 95
4, 324480, Note_on_c, 4, 36, 95
4, 324960, Note_off_c, 4, 36, 95
4, 324960, Note_on_c, 4, 35, 95
4, 325440, Note_off_c, 4, 35, 95
4, 325440, Note_on_c, 4, 36, 95
4, 325920, Note_off_c, 4, 36, 95
4, 325920, Note_on_c, 4, 36, 95
4, 326400, Note_off_c, 4, 36, 95
4, 326400, Note_on_c, 4, 36, 95
4, 326880, Note_off_c, 4, 36, 95
4, 326880, Note_on_c, 4, 36, 95
4, 327360, Note_off_c, 4, 36, 95
4, 327360, Note_on_c, 4, 36, 95
4, 327840, Note_off_c, 4, 36, 95
4, 327840, Note_on_c, 4, 36, 95
4, 328320, Note_off_c, 4, 36, 95
4, 328320, Note_on_c, 4, 36, 95
4, 328800, Note_off_c, 4, 36, 95
4, 328800, Note_on_c, 4, 35, 95
4, 329280, Note_off_c, 4, 35, 95
4, 329280, Note_on_c, 4, 36, 95
4, 329760, Note_off_c, 4, 36, 95
4, 329760, Note_on_c, 4, 36, 95
4, 330240, Note_off_c, 4, 36, 95
4, 330240, Note_on_c, 4, 36, 95
4, 330720, Note_off_c, 4, 36, 95
4, 330720, Note_on_c, 4, 41, 95
4, 331200, Note_off_c, 4, 41, 95
4, 331200, Note_on_c, 4, 41, 95
4, 331680, Note_off_c, 4, 41, 95
4, 331680, Note_on_c, 4, 41, 95
4, 332160, Note_off_c, 4, 41, 95
4, 332160, Note_on_c, 4, 41, 95
4, 332640, Note_off_c, 4, 41, 95
4, 332640, Note_on_c, 4, 41, 95
4, 333120, Note_off_c, 4, 41, 95
4, 333120, Note_on_c, 4, 41, 95
4, 333600, Note_off_c, 4, 41, 95
4, 333600, Note_on_c, 4, 41, 95
4, 334080, Note_off_c, 4, 41, 95
4, 334080, Note_on_c, 4, 41, 95
4, 334560, Note_off_c, 4, 41, 95
4, 334560, Note_on_c, 4, 41, 95
4, 335040, Note_off_c, 4, 41, 95
4, 335040, Note_on_c, 4, 41, 95
4, 335520, Note_off_c, 4, 41, 95
4, 335520, Note_on_c, 4, 41, 95
4, 336000, Note_off_c, 4, 41, 95
4, 336000, Note_on_c, 4, 41, 95
4, 336480, Note_off_c, 4, 41, 95
4, 336480, Note_on_c, 4, 41, 95
4, 336960, Note_off_c, 4, 41, 95
4, 336960, Note_on_c, 4, 41, 95
4, 337440, Note_off_c, 4, 41, 95
4, 337440, Note_on_c, 4, 41, 95
4, 337920, Note_off_c, 4, 41, 95
4, 337920, Note_on_c, 4, 41, 95
4, 338400, Note_off_c, 4, 41, 95
4, 338400, Note_on_c, 4, 41, 95
4, 338880, Note_off_c, 4, 41, 95
4, 338880, Note_on_c, 4, 41, 95
4, 339360, Note_off_c, 4, 41, 95
4, 339360, Note_on_c, 4, 41, 95
4, 339840, Note_off_c, 4, 41, 95
4, 339840, Note_on_c, 4, 41, 95
4, 340320, Note_off_c, 4, 41, 95
4, 340320, Note_on_c, 4, 41, 95
4, 340800, Note_off_c, 4, 41, 95
4, 340800, Note_on_c, 4, 41, 95
4, 341280, Note_off_c, 4, 41, 95
4, 341280, Note_on_c, 4, 41, 95
4, 341760, Note_off_c, 4, 41, 95
4, 341760, Note_on_c, 4, 41, 95
4, 342240, Note_off_c, 4, 41, 95
4, 342240, Note_on_c, 4, 41, 95
4, 342720, Note_off_c, 4, 41, 95
4, 342720, Note_on_c, 4, 41, 95
4, 343200, Note_off_c, 4, 41, 95
4, 343200, Note_on_c, 4, 41, 95
4, 343680, Note_off_c, 4, 41, 95
4, 343680, Note_on_c, 4, 41, 95
4, 344160, Note_off_c, 4, 41, 95
4, 344160, Note_on_c, 4, 41, 95
4, 344640, Note_off_c, 4, 41, 95
4, 344640, Note_on_c, 4, 41, 95
4, 345120, Note_off_c, 4, 41, 95
4, 345120, Note_on_c, 4, 41, 95
4, 345600, Note_off_c, 4, 41, 95
4, 345600, Note_on_c, 4, 41, 95
4, 346080, Note_off_c, 4, 41, 95
4, 346080, Note_on_c, 4, 34, 95
4, 346560, Note_off_c, 4, 34, 95
4, 346560, Note_on_c, 4, 34, 95
4, 347040, Note_off_c, 4, 34, 95
4, 347040, Note_on_c, 4, 34, 95
4, 347520, Note_off_c, 4, 34, 95
4, 347520, Note_on_c, 4, 34, 95
4, 348000, Note_off_c, 4, 34, 95
4, 348000, Note_on_c, 4, 34, 95
4, 348480, Note_off_c, 4, 34, 95
4, 348480, Note_on_c, 4, 34, 95
4, 348960, Note_off_c, 4, 34, 95
4, 348960, Note_on_c, 4, 34, 95
4, 349440, Note_off_c, 4, 34, 95
4, 349440, Note_on_c, 4, 34, 95
4, 349920, Note_off_c, 4, 34, 95
4, 349920, Note_on_c, 4, 31, 95
4, 350400, Note_off_c, 4, 31, 95
4, 350400, Note_on_c, 4, 31, 95
4, 350880, Note_off_c, 4, 31, 95
4, 350880, Note_on_c, 4, 31, 95
4, 351360, Note_off_c, 4, 31, 95
4, 351360, Note_on_c, 4, 31, 95
4, 351840, Note_off_c, 4, 31, 95
4, 351840, Note_on_c, 4, 31, 95
4, 352320, Note_off_c, 4, 31, 95
4, 352320, Note_on_c, 4, 31, 95
4, 352800, Note_off_c, 4, 31, 95
4, 352800, Note_on_c, 4, 31, 95
4, 353280, Note_off_c, 4, 31, 95
4, 353280, Note_on_c, 4, 31, 95
4, 353760, Note_off_c, 4, 31, 95
4, 353760, Note_on_c, 4, 36, 95
4, 354240, Note_off_c, 4, 36, 95
4, 354240, Note_on_c, 4, 36, 95
4, 354720, Note_off_c, 4, 36, 95
4, 354720, Note_on_c, 4, 36, 95
4, 355200, Note_off_c, 4, 36, 95
4, 355200, Note_on_c, 4, 36, 95
4, 355680, Note_off_c, 4, 36, 95
4, 355680, Note_on_c, 4, 35, 95
4, 356160, Note_off_c, 4, 35, 95
4, 356160, Note_on_c, 4, 36, 95
4, 356640, Note_off_c, 4, 36, 95
4, 356640, Note_on_c, 4, 36, 95
4, 357120, Note_off_c, 4, 36, 95
4, 357120, Note_on_c, 4, 36, 95
4, 357600, Note_off_c, 4, 36, 95
4, 357600, Note_on_c, 4, 36, 95
4, 358080, Note_off_c, 4, 36, 95
4, 358080, Note_on_c, 4, 36, 95
4, 358560, Note_off_c, 4, 36, 95
4, 358560, Note_on_c, 4, 36, 95
4, 359040, Note_off_c, 4, 36, 95
4, 359040, Note_on_c, 4, 36, 95
4, 359520, Note_off_c, 4, 36, 95
4, 359520, Note_on_c, 4, 35, 95
4, 360000, Note_off_c, 4, 35, 95
4, 360000, Note_on_c, 4, 36, 95
4, 360480, Note_off_c, 4, 36, 95
4, 360480, Note_on_c, 4, 36, 95
4, 360960, Note_off_c, 4, 36, 95
4, 360960, Note_on_c, 4, 36, 95
4, 361440, Note_off_c, 4, 36, 95
4, 361440, Note_on_c, 4, 34, 95
4, 361920, Note_off_c, 4, 34, 95
4, 361920, Note_on_c, 4, 34, 95
4, 362400, Note_off_c, 4, 34, 95
4, 362400, Note_on_c, 4, 34, 95
4, 362880, Note_off_c, 4, 34, 95
4, 362880, Note_on_c, 4, 34, 95
4, 363360, Note_off_c, 4, 34, 95
4, 363360, Note_on_c, 4, 34, 95
4, 363840, Note_off_c, 4, 34, 95
4, 363840, Note_on_c, 4, 34, 95
4, 364320, Note_off_c, 4, 34, 95
4, 364320, Note_on_c, 4, 34, 95
4, 364800, Note_off_c, 4, 34, 95
4, 364800, Note_on_c, 4, 34, 95
4, 365280, Note_off_c, 4, 34, 95
4, 365280, Note_on_c, 4, 36, 95
4, 365760, Note_off_c, 4, 36, 95
4, 365760, Note_on_c, 4, 36, 95
4, 366240, Note_off_c, 4, 36, 95
4, 366240, Note_on_c, 4, 36, 95
4, 366720, Note_off_c, 4, 36, 95
4, 366720, Note_on_c, 4, 36, 95
4, 367200, Note_off_c, 4, 36, 95
4, 367200, Note_on_c, 4, 36, 95
4, 367680, Note_off_c, 4, 36, 95
4, 367680, Note_on_c, 4, 36, 95
4, 368160, Note_off_c, 4, 36, 95
4, 368160, Note_on_c, 4, 36, 95
4, 368640, Note_off_c, 4, 36, 95
4, 368640, Note_on_c, 4, 36, 95
4, 369120, Note_off_c, 4, 36, 95
4, 369120, Note_on_c, 4, 34, 95
4, 369600, Note_off_c, 4, 34, 95
4, 369600, Note_on_c, 4, 34, 95
4, 370080, Note_off_c, 4, 34, 95
4, 370080, Note_on_c, 4, 34, 95
4, 370560, Note_off_c, 4, 34, 95
4, 370560, Note_on_c, 4, 34, 95
4, 371040, Note_off_c, 4, 34, 95
4, 371040, Note_on_c, 4, 34, 95
4, 371520, Note_off_c, 4, 34, 95
4, 371520, Note_on_c, 4, 34, 95
4, 372000, Note_off_c, 4, 34, 95
4, 372000, Note_on_c, 4, 34, 95
4, 372480, Note_off_c, 4, 34, 95
4, 372480, Note_on_c, 4, 34, 95
4, 372960, Note_off_c, 4, 34, 95
4, 372960, Note_on_c, 4, 36, 95
4, 373440, Note_off_c, 4, 36, 95
4, 373440, Note_on_c, 4, 36, 95
4, 373920, Note_off_c, 4, 36, 95
4, 373920, Note_on_c, 4, 36, 95
4, 374400, Note_off_c, 4, 36, 95
4, 374400, Note_on_c, 4, 36, 95
4, 374880, Note_off_c, 4, 36, 95
4, 374880, Note_on_c, 4, 36, 95
4, 375360, Note_off_c, 4, 36, 95
4, 375360, Note_on_c, 4, 36, 95
4, 375840, Note_off_c, 4, 36, 95
4, 375840, Note_on_c, 4, 36, 95
4, 376320, Note_off_c, 4, 36, 95
4, 376320, Note_on_c, 4, 36, 95
4, 376800, Note_off_c, 4, 36, 95
4, 376800, Note_on_c, 4, 34, 95
4, 377280, Note_off_c, 4, 34, 95
4, 377280, Note_on_c, 4, 34, 95
4, 377760, Note_off_c, 4, 34, 95
4, 377760, Note_on_c, 4, 34, 95
4, 378240, Note_off_c, 4, 34, 95
4, 378240, Note_on_c, 4, 34, 95
4, 378720, Note_off_c, 4, 34, 95
4, 378720, Note_on_c, 4, 34, 95
4, 379200, Note_off_c, 4, 34, 95
4, 379200, Note_on_c, 4, 34, 95
4, 379680, Note_off_c, 4, 34, 95
4, 379680, Note_on_c, 4, 34, 95
4, 380160, Note_off_c, 4, 34, 95
4, 380160, Note_on_c, 4, 34, 95
4, 380640, Note_off_c, 4, 34, 95
4, 380640, Note_on_c, 4, 36, 95
4, 381120, Note_off_c, 4, 36, 95
4, 381120, Note_on_c, 4, 36, 95
4, 381600, Note_off_c, 4, 36, 95
4, 381600, Note_on_c, 4, 36, 95
4, 382080, Note_off_c, 4, 36, 95
4, 382080, Note_on_c, 4, 36, 95
4, 382560, Note_off_c, 4, 36, 95
4, 382560, Note_on_c, 4, 36, 95
4, 383040, Note_off_c, 4, 36, 95
4, 383040, Note_on_c, 4, 36, 95
4, 383520, Note_off_c, 4, 36, 95
4, 383520, Note_on_c, 4, 36, 95
4, 384000, Note_off_c, 4, 36, 95
4, 384000, Note_on_c, 4, 36, 95
4, 384480, Note_off_c, 4, 36, 95
4, 384480, Note_on_c, 4, 41, 95
4, 384960, Note_off_c, 4, 41, 95
4, 384960, Note_on_c, 4, 41, 95
4, 385440, Note_off_c, 4, 41, 95
4, 385440, Note_on_c, 4, 41, 95
4, 385920, Note_off_c, 4, 41, 95
4, 385920, Note_on_c, 4, 41, 95
4, 386400, Note_off_c, 4, 41, 95
4, 386400, Note_on_c, 4, 41, 95
4, 386880, Note_off_c, 4, 41, 95
4, 386880, Note_on_c, 4, 41, 95
4, 387360, Note_off_c, 4, 41, 95
4, 387360, Note_on_c, 4, 41, 95
4, 387840, Note_off_c, 4, 41, 95
4, 387840, Note_on_c, 4, 41, 95
4, 388320, Note_off_c, 4, 41, 95
4, 388320, Note_on_c, 4, 41, 95
4, 388800, Note_off_c, 4, 41, 95
4, 388800, Note_on_c, 4, 41, 95
4, 389280, Note_off_c, 4, 41, 95
4, 389280, Note_on_c, 4, 41, 95
4, 389760, Note_off_c, 4, 41, 95
4, 389760, Note_on_c, 4, 41, 95
4, 390240, Note_off_c, 4, 41, 95
4, 390240, Note_on_c, 4, 41, 95
4, 390720, Note_off_c, 4, 41, 95
4, 390720, Note_on_c, 4, 41, 95
4, 391200, Note_off_c, 4, 41, 95
4, 391200, Note_on_c, 4, 41, 95
4, 391680, Note_off_c, 4, 41, 95
4, 391680, Note_on_c, 4, 41, 95
4, 392160, Note_off_c, 4, 41, 95
4, 392160, Note_on_c, 4, 34, 95
4, 392640, Note_off_c, 4, 34, 95
4, 392640, Note_on_c, 4, 34, 95
4, 393120, Note_off_c, 4, 34, 95
4, 393120, Note_on_c, 4, 34, 95
4, 393600, Note_off_c, 4, 34, 95
4, 393600, Note_on_c, 4, 34, 95
4, 394080, Note_off_c, 4, 34, 95
4, 394080, Note_on_c, 4, 34, 95
4, 394560, Note_off_c, 4, 34, 95
4, 394560, Note_on_c, 4, 34, 95
4, 395040, Note_off_c, 4, 34, 95
4, 395040, Note_on_c, 4, 34, 95
4, 395520, Note_off_c, 4, 34, 95
4, 395520, Note_on_c, 4, 34, 95
4, 396000, Note_off_c, 4, 34, 95
4, 396000, Note_on_c, 4, 36, 95
4, 396480, Note_off_c, 4, 36, 95
4, 396480, Note_on_c, 4, 36, 95
4, 396960, Note_off_c, 4, 36, 95
4, 396960, Note_on_c, 4, 36, 95
4, 397440, Note_off_c, 4, 36, 95
4, 397440, Note_on_c, 4, 36, 95
4, 397920, Note_off_c, 4, 36, 95
4, 397920, Note_on_c, 4, 36, 95
4, 398400, Note_off_c, 4, 36, 95
4, 398400, Note_on_c, 4, 36, 95
4, 398880, Note_off_c, 4, 36, 95
4, 398880, Note_on_c, 4, 36, 95
4, 399360, Note_off_c, 4, 36, 95
4, 399360, Note_on_c, 4, 36, 95
4, 399840, Note_off_c, 4, 36, 95
4, 399840, Note_on_c, 4, 34, 95
4, 400320, Note_off_c, 4, 34, 95
4, 400320, Note_on_c, 4, 34, 95
4, 400800, Note_off_c, 4, 34, 95
4, 400800, Note_on_c, 4, 34, 95
4, 401280, Note_off_c, 4, 34, 95
4, 401280, Note_on_c, 4, 34, 95
4, 401760, Note_off_c, 4, 34, 95
4, 401760, Note_on_c, 4, 34, 95
4, 402240, Note_off_c, 4, 34, 95
4, 402240, Note_on_c, 4, 34, 95
4, 402720, Note_off_c, 4, 34, 95
4, 402720, Note_on_c, 4, 34, 95
4, 403200, Note_off_c, 4, 34, 95
4, 403200, Note_on_c, 4, 34, 95
4, 403680, Note_off_c, 4, 34, 95
4, 403680, Note_on_c, 4, 36, 95
4, 404160, Note_off_c, 4, 36, 95
4, 404160, Note_on_c, 4, 36, 95
4, 404640, Note_off_c, 4, 36, 95
4, 404640, Note_on_c, 4, 36, 95
4, 405120, Note_off_c, 4, 36, 95
4, 405120, Note_on_c, 4, 36, 95
4, 405600, Note_off_c, 4, 36, 95
4, 405600, Note_on_c, 4, 36, 95
4, 406080, Note_off_c, 4, 36, 95
4, 406080, Note_on_c, 4, 36, 95
4, 406560, Note_off_c, 4, 36, 95
4, 406560, Note_on_c, 4, 36, 95
4, 407040, Note_off_c, 4, 36, 95
4, 407040, Note_on_c, 4, 36, 95
4, 407520, Note_off_c, 4, 36, 95
4, 407520, Note_on_c, 4, 34, 95
4, 408000, Note_off_c, 4, 34, 95
4, 408000, Note_on_c, 4, 34, 95
4, 408480, Note_off_c, 4, 34, 95
4, 408480, Note_on_c, 4, 34, 95
4, 408960, Note_off_c, 4, 34, 95
4, 408960, Note_on_c, 4, 34, 95
4, 409440, Note_off_c, 4, 34, 95
4, 409440, Note_on_c, 4, 34, 95
4, 409920, Note_off_c, 4, 34, 95
4, 409920, Note_on_c, 4, 34, 95
4, 410400, Note_off_c, 4, 34, 95
4, 410400, Note_on_c, 4, 34, 95
4, 410880, Note_off_c, 4, 34, 95
4, 410880, Note_on_c, 4, 34, 95
4, 411360, Note_off_c, 4, 34, 95
4, 411360, Note_on_c, 4, 36, 95
4, 411840, Note_off_c, 4, 36, 95
4, 411840, Note_on_c, 4, 36, 95
4, 412320, Note_off_c, 4, 36, 95
4, 412320, Note_on_c, 4, 36, 95
4, 412800, Note_off_c, 4, 36, 95
4, 412800, Note_on_c, 4, 36, 95
4, 413280, Note_off_c, 4, 36, 95
4, 413280, Note_on_c, 4, 36, 95
4, 413760, Note_off_c, 4, 36, 95
4, 413760, Note_on_c, 4, 36, 95
4, 414240, Note_off_c, 4, 36, 95
4, 414240, Note_on_c, 4, 36, 95
4, 414720, Note_off_c, 4, 36, 95
4, 414720, Note_on_c, 4, 36, 95
4, 415200, Note_off_c, 4, 36, 95
4, 415200, Note_on_c, 4, 41, 95
4, 415680, Note_off_c, 4, 41, 95
4, 415680, Note_on_c, 4, 41, 95
4, 416160, Note_off_c, 4, 41, 95
4, 416160, Note_on_c, 4, 41, 95
4, 416640, Note_off_c, 4, 41, 95
4, 416640, Note_on_c, 4, 41, 95
4, 417120, Note_off_c, 4, 41, 95
4, 417120, Note_on_c, 4, 41, 95
4, 417600, Note_off_c, 4, 41, 95
4, 417600, Note_on_c, 4, 41, 95
4, 418080, Note_off_c, 4, 41, 95
4, 418080, Note_on_c, 4, 41, 95
4, 418560, Note_off_c, 4, 41, 95
4, 418560, Note_on_c, 4, 41, 95
4, 419040, Note_off_c, 4, 41, 95
4, 419040, Note_on_c, 4, 41, 95
4, 419520, Note_off_c, 4, 41, 95
4, 419520, Note_on_c, 4, 41, 95
4, 420000, Note_off_c, 4, 41, 95
4, 420000, Note_on_c, 4, 41, 95
4, 420480, Note_off_c, 4, 41, 95
4, 420480, Note_on_c, 4, 41, 95
4, 420960, Note_off_c, 4, 41, 95
4, 420960, Note_on_c, 4, 41, 95
4, 421440, Note_off_c, 4, 41, 95
4, 421440, Note_on_c, 4, 41, 95
4, 421920, Note_off_c, 4, 41, 95
4, 421920, Note_on_c, 4, 41, 95
4, 422400, Note_off_c, 4, 41, 95
4, 422400, Note_on_c, 4, 41, 95
4, 422880, Note_off_c, 4, 41, 95
4, 422880, Note_on_c, 4, 41, 95
4, 423840, Note_off_c, 4, 41, 95
4, 423840, Note_on_c, 4, 41, 95
4, 424800, Note_off_c, 4, 41, 95
4, 424800, Note_on_c, 4, 34, 95
4, 425760, Note_off_c, 4, 34, 95
4, 425760, Note_on_c, 4, 34, 95
4, 426720, Note_off_c, 4, 34, 95
4, 426720, Note_on_c, 4, 36, 95
4, 427200, Note_off_c, 4, 36, 95
4, 427200, Note_on_c, 4, 36, 95
4, 427680, Note_off_c, 4, 36, 95
4, 428640, Note_on_c, 4, 34, 95
4, 430560, Note_off_c, 4, 34, 95
4, 430560, Note_on_c, 4, 34, 95
4, 431040, Note_off_c, 4, 34, 95
4, 431040, End_track
5, 0, Start_track
5, 0, Pitch_bend_c, 9, 8192
5, 0, Control_c, 9, 7, 95
5, 0, Control_c, 9, 10, 63
5, 0, Control_c, 9, 93, 0
5, 0, Control_c, 9, 91, 0
5, 0, Control_c, 9, 95, 0
5, 0, Control_c, 9, 92, 0
5, 0, Control_c, 9, 11, 127
5, 0, Program_c, 9, 0
5, 0, Note_on_c, 9, 31, 95
5, 480, Note_off_c, 9, 31, 95
5, 1920, Note_on_c, 9, 31, 95
5, 2400, Note_off_c, 9, 31, 95
5, 3840, Note_on_c, 9, 31, 95
5, 4320, Note_off_c, 9, 31, 95
5, 4800, Note_on_c, 9, 31, 95
5, 5280, Note_off_c, 9, 31, 95
5, 5760, Note_on_c, 9, 31, 95
5, 6240, Note_off_c, 9, 31, 95
5, 6240, Note_on_c, 9, 31, 95
5, 6720, Note_off_c, 9, 31, 95
5, 6720, Note_on_c, 9, 31, 95
5, 7200, Note_off_c, 9, 31, 95
5, 7200, Note_on_c, 9, 31, 95
5, 7680, Note_off_c, 9, 31, 95
5, 21600, Note_on_c, 9, 38, 95
5, 21600, Note_on_c, 9, 36, 95
5, 21840, Note_off_c, 9, 38, 95
5, 21840, Note_off_c, 9, 36, 95
5, 21840, Note_on_c, 9, 38, 95
5, 21840, Note_on_c, 9, 36, 95
5, 22080, Note_off_c, 9, 38, 95
5, 22080, Note_off_c, 9, 36, 95
5, 22080, Note_on_c, 9, 38, 95
5, 22080, Note_on_c, 9, 36, 95
5, 22320, Note_off_c, 9, 38, 95
5, 22320, Note_off_c, 9, 36, 95
5, 22560, Note_on_c, 9, 40, 95
5, 22800, Note_off_c, 9, 40, 95
5, 22800, Note_on_c, 9, 40, 95
5, 23040, Note_off_c, 9, 40, 95
5, 23040, Note_on_c, 9, 40, 95
5, 23280, Note_off_c, 9, 40, 95
5, 23520, Note_on_c, 9, 42, 95
5, 23520, Note_on_c, 9, 49, 95
5, 23520, Note_on_c, 9, 36, 95
5, 24000, Note_off_c, 9, 42, 95
5, 24000, Note_off_c, 9, 49, 95
5, 24000, Note_off_c, 9, 36, 95
5, 24480, Note_on_c, 9, 42, 95
5, 24480, Note_on_c, 9, 40, 95
5, 24480, Note_on_c, 9, 38, 95
5, 24960, Note_off_c, 9, 42, 95
5, 24960, Note_off_c, 9, 40, 95
5, 24960, Note_off_c, 9, 38, 95
5, 25440, Note_on_c, 9, 42, 95
5, 25440, Note_on_c, 9, 36, 95
5, 25920, Note_off_c, 9, 42, 95
5, 25920, Note_off_c, 9, 36, 95
5, 26400, Note_on_c, 9, 42, 95
5, 26400, Note_on_c, 9, 40, 95
5, 26400, Note_on_c, 9, 38, 95
5, 26880, Note_off_c, 9, 42, 95
5, 26880, Note_off_c, 9, 40, 95
5, 26880, Note_off_c, 9, 38, 95
5, 27360, Note_on_c, 9, 42, 95
5, 27360, Note_on_c, 9, 36, 95
5, 27840, Note_off_c, 9, 42, 95
5, 27840, Note_off_c, 9, 36, 95
5, 28320, Note_on_c, 9, 42, 95
5, 28320, Note_on_c, 9, 40, 95
5, 28320, Note_on_c, 9, 38, 95
5, 28800, Note_off_c, 9, 42, 95
5, 28800, Note_off_c, 9, 40, 95
5, 28800, Note_off_c, 9, 38, 95
5, 29280, Note_on_c, 9, 42, 95
5, 29280, Note_on_c, 9, 36, 95
5, 29760, Note_off_c, 9, 42, 95
5, 29760, Note_off_c, 9, 36, 95
5, 30240, Note_on_c, 9, 42, 95
5, 30240, Note_on_c, 9, 40, 95
5, 30240, Note_on_c, 9, 38, 95
5, 30720, Note_off_c, 9, 42, 95
5, 30720, Note_off_c, 9, 40, 95
5, 30720, Note_off_c, 9, 38, 95
5, 31200, Note_on_c, 9, 42, 95
5, 31200, Note_on_c, 9, 36, 95
5, 31680, Note_off_c, 9, 42, 95
5, 31680, Note_off_c, 9, 36, 95
5, 32160, Note_on_c, 9, 42, 95
5, 32160, Note_on_c, 9, 40, 95
5, 32160, Note_on_c, 9, 38, 95
5, 32640, Note_off_c, 9, 42, 95
5, 32640, Note_off_c, 9, 40, 95
5, 32640, Note_off_c, 9, 38, 95
5, 33120, Note_on_c, 9, 42, 95
5, 33120, Note_on_c, 9, 36, 95
5, 33600, Note_off_c, 9, 42, 95
5, 33600, Note_off_c, 9, 36, 95
5, 34080, Note_on_c, 9, 42, 95
5, 34080, Note_on_c, 9, 40, 95
5, 34080, Note_on_c, 9, 38, 95
5, 34560, Note_off_c, 9, 42, 95
5, 34560, Note_off_c, 9, 40, 95
5, 34560, Note_off_c, 9, 38, 95
5, 35040, Note_on_c, 9, 46, 95
5, 35040, Note_on_c, 9, 38, 127
5, 35040, Note_on_c, 9, 36, 95
5, 36480, Note_off_c, 9, 46, 95
5, 36480, Note_off_c, 9, 38, 127
5, 36480, Note_off_c, 9, 36, 95
5, 36480, Note_on_c, 9, 46, 95
5, 36480, Note_on_c, 9, 38, 127
5, 36480, Note_on_c, 9, 36, 95
5, 37920, Note_off_c, 9, 46, 95
5, 37920, Note_off_c, 9, 38, 127
5, 37920, Note_off_c, 9, 36, 95
5, 37920, Note_on_c, 9, 49, 95
5, 37920, Note_on_c, 9, 38, 127
5, 37920, Note_on_c, 9, 36, 95
5, 38880, Note_off_c, 9, 49, 95
5, 38880, Note_off_c, 9, 38, 127
5, 38880, Note_off_c, 9, 36, 95
5, 38880, Note_on_c, 9, 42, 95
5, 38880, Note_on_c, 9, 36, 95
5, 39360, Note_off_c, 9, 42, 95
5, 39360, Note_off_c, 9, 36, 95
5, 39840, Note_on_c, 9, 42, 95
5, 39840, Note_on_c, 9, 40, 95
5, 39840, Note_on_c, 9, 38, 95
5, 40320, Note_off_c, 9, 42, 95
5, 40320, Note_off_c, 9, 40, 95
5, 40320, Note_off_c, 9, 38, 95
5, 40800, Note_on_c, 9, 42, 95
5, 40800, Note_on_c, 9, 36, 95
5, 41280, Note_off_c, 9, 42, 95
5, 41280, Note_off_c, 9, 36, 95
5, 41760, Note_on_c, 9, 42, 95
5, 41760, Note_on_c, 9, 40, 95
5, 41760, Note_on_c, 9, 38, 95
5, 42240, Note_off_c, 9, 42, 95
5, 42240, Note_off_c, 9, 40, 95
5, 42240, Note_off_c, 9, 38, 95
5, 42720, Note_on_c, 9, 42, 95
5, 42720, Note_on_c, 9, 36, 95
5, 43200, Note_off_c, 9, 42, 95
5, 43200, Note_off_c, 9, 36, 95
5, 43680, Note_on_c, 9, 42, 95
5, 43680, Note_on_c, 9, 40, 95
5, 43680, Note_on_c, 9, 38, 95
5, 44160, Note_off_c, 9, 42, 95
5, 44160, Note_off_c, 9, 40, 95
5, 44160, Note_off_c, 9, 38, 95
5, 44640, Note_on_c, 9, 42, 95
5, 44640, Note_on_c, 9, 36, 95
5, 45120, Note_off_c, 9, 42, 95
5, 45120, Note_off_c, 9, 36, 95
5, 45600, Note_on_c, 9, 42, 95
5, 45600, Note_on_c, 9, 40, 95
5, 45600, Note_on_c, 9, 38, 95
5, 46080, Note_off_c, 9, 42, 95
5, 46080, Note_off_c, 9, 40, 95
5, 46080, Note_off_c, 9, 38, 95
5, 46560, Note_on_c, 9, 42, 95
5, 46560, Note_on_c, 9, 36, 95
5, 47040, Note_off_c, 9, 42, 95
5, 47040, Note_off_c, 9, 36, 95
5, 47520, Note_on_c, 9, 42, 95
5, 47520, Note_on_c, 9, 40, 95
5, 47520, Note_on_c, 9, 38, 95
5, 48000, Note_off_c, 9, 42, 95
5, 48000, Note_off_c, 9, 40, 95
5, 48000, Note_off_c, 9, 38, 95
5, 48480, Note_on_c, 9, 42, 95
5, 48480, Note_on_c, 9, 36, 95
5, 48960, Note_off_c, 9, 42, 95
5, 48960, Note_off_c, 9, 36, 95
5, 49440, Note_on_c, 9, 42, 95
5, 49440, Note_on_c, 9, 40, 95
5, 49440, Note_on_c, 9, 38, 95
5, 49920, Note_off_c, 9, 42, 95
5, 49920, Note_off_c, 9, 40, 95
5, 49920, Note_off_c, 9, 38, 95
5, 50400, Note_on_c, 9, 42, 95
5, 50400, Note_on_c, 9, 36, 95
5, 50880, Note_off_c, 9, 42, 95
5, 50880, Note_off_c, 9, 36, 95
5, 51360, Note_on_c, 9, 42, 95
5, 51360, Note_on_c, 9, 40, 95
5, 51360, Note_on_c, 9, 38, 95
5, 51840, Note_off_c, 9, 42, 95
5, 51840, Note_off_c, 9, 40, 95
5, 51840, Note_off_c, 9, 38, 95
5, 52320, Note_on_c, 9, 42, 95
5, 52320, Note_on_c, 9, 36, 95
5, 52800, Note_off_c, 9, 42, 95
5, 52800, Note_off_c, 9, 36, 95
5, 53280, Note_on_c, 9, 42, 95
5, 53280, Note_on_c, 9, 40, 95
5, 53280, Note_on_c, 9, 38, 95
5, 53760, Note_off_c, 9, 42, 95
5, 53760, Note_off_c, 9, 40, 95
5, 53760, Note_off_c, 9, 38, 95
5, 53760, Note_on_c, 9, 38, 95
5, 54000, Note_off_c, 9, 38, 95
5, 54000, Note_on_c, 9, 38, 95
5, 54240, Note_off_c, 9, 38, 95
5, 54240, Note_on_c, 9, 46, 63
5, 54240, Note_on_c, 9, 49, 95
5, 54240, Note_on_c, 9, 36, 95
5, 54720, Note_off_c, 9, 46, 63
5, 54720, Note_off_c, 9, 49, 95
5, 54720, Note_off_c, 9, 36, 95
5, 54720, Note_on_c, 9, 46, 63
5, 55200, Note_off_c, 9, 46, 63
5, 55200, Note_on_c, 9, 46, 63
5, 55200, Note_on_c, 9, 40, 95
5, 55200, Note_on_c, 9, 38, 95
5, 55680, Note_off_c, 9, 46, 63
5, 55680, Note_off_c, 9, 40, 95
5, 55680, Note_off_c, 9, 38, 95
5, 55680, Note_on_c, 9, 46, 63
5, 56160, Note_off_c, 9, 46, 63
5, 56160, Note_on_c, 9, 46, 63
5, 56160, Note_on_c, 9, 36, 95
5, 56640, Note_off_c, 9, 46, 63
5, 56640, Note_off_c, 9, 36, 95
5, 56640, Note_on_c, 9, 46, 63
5, 57120, Note_off_c, 9, 46, 63
5, 57120, Note_on_c, 9, 46, 63
5, 57120, Note_on_c, 9, 40, 95
5, 57120, Note_on_c, 9, 38, 95
5, 57600, Note_off_c, 9, 46, 63
5, 57600, Note_off_c, 9, 40, 95
5, 57600, Note_off_c, 9, 38, 95
5, 57600, Note_on_c, 9, 46, 63
5, 57600, Note_on_c, 9, 38, 95
5, 57840, Note_off_c, 9, 46, 63
5, 57840, Note_off_c, 9, 38, 95
5, 57840, Note_on_c, 9, 38, 95
5, 58080, Note_off_c, 9, 38, 95
5, 58080, Note_on_c, 9, 46, 63
5, 58080, Note_on_c, 9, 36, 95
5, 58560, Note_off_c, 9, 46, 63
5, 58560, Note_off_c, 9, 36, 95
5, 58560, Note_on_c, 9, 46, 63
5, 59040, Note_off_c, 9, 46, 63
5, 59040, Note_on_c, 9, 46, 63
5, 59040, Note_on_c, 9, 40, 95
5, 59040, Note_on_c, 9, 38, 95
5, 59520, Note_off_c, 9, 46, 63
5, 59520, Note_off_c, 9, 40, 95
5, 59520, Note_off_c, 9, 38, 95
5, 59520, Note_on_c, 9, 46, 63
5, 60000, Note_off_c, 9, 46, 63
5, 60000, Note_on_c, 9, 46, 63
5, 60000, Note_on_c, 9, 36, 95
5, 60480, Note_off_c, 9, 46, 63
5, 60480, Note_off_c, 9, 36, 95
5, 60480, Note_on_c, 9, 46, 63
5, 60960, Note_off_c, 9, 46, 63
5, 60960, Note_on_c, 9, 46, 63
5, 60960, Note_on_c, 9, 40, 95
5, 60960, Note_on_c, 9, 38, 95
5, 61440, Note_off_c, 9, 46, 63
5, 61440, Note_off_c, 9, 40, 95
5, 61440, Note_off_c, 9, 38, 95
5, 61440, Note_on_c, 9, 46, 63
5, 61920, Note_off_c, 9, 46, 63
5, 61920, Note_on_c, 9, 46, 63
5, 61920, Note_on_c, 9, 36, 95
5, 62400, Note_off_c, 9, 46, 63
5, 62400, Note_off_c, 9, 36, 95
5, 62400, Note_on_c, 9, 46, 63
5, 62880, Note_off_c, 9, 46, 63
5, 62880, Note_on_c, 9, 46, 63
5, 62880, Note_on_c, 9, 40, 95
5, 62880, Note_on_c, 9, 38, 95
5, 63360, Note_off_c, 9, 46, 63
5, 63360, Note_off_c, 9, 40, 95
5, 63360, Note_off_c, 9, 38, 95
5, 63360, Note_on_c, 9, 46, 63
5, 63840, Note_off_c, 9, 46, 63
5, 63840, Note_on_c, 9, 46, 63
5, 63840, Note_on_c, 9, 36, 95
5, 64320, Note_off_c, 9, 46, 63
5, 64320, Note_off_c, 9, 36, 95
5, 64320, Note_on_c, 9, 46, 63
5, 64800, Note_off_c, 9, 46, 63
5, 64800, Note_on_c, 9, 46, 63
5, 64800, Note_on_c, 9, 40, 95
5, 64800, Note_on_c, 9, 38, 95
5, 65280, Note_off_c, 9, 46, 63
5, 65280, Note_off_c, 9, 40, 95
5, 65280, Note_off_c, 9, 38, 95
5, 65280, Note_on_c, 9, 46, 63
5, 65760, Note_off_c, 9, 46, 63
5, 65760, Note_on_c, 9, 46, 63
5, 65760, Note_on_c, 9, 36, 95
5, 66240, Note_off_c, 9, 46, 63
5, 66240, Note_off_c, 9, 36, 95
5, 66240, Note_on_c, 9, 46, 63
5, 66720, Note_off_c, 9, 46, 63
5, 66720, Note_on_c, 9, 46, 63
5, 66720, Note_on_c, 9, 40, 95
5, 66720, Note_on_c, 9, 38, 95
5, 67200, Note_off_c, 9, 46, 63
5, 67200, Note_off_c, 9, 40, 95
5, 67200, Note_off_c, 9, 38, 95
5, 67200, Note_on_c, 9, 46, 63
5, 67680, Note_off_c, 9, 46, 63
5, 67680, Note_on_c, 9, 46, 63
5, 67680, Note_on_c, 9, 36, 95
5, 68160, Note_off_c, 9, 46, 63
5, 68160, Note_off_c, 9, 36, 95
5, 68160, Note_on_c, 9, 46, 63
5, 68640, Note_off_c, 9, 46, 63
5, 68640, Note_on_c, 9, 46, 63
5, 68640, Note_on_c, 9, 40, 95
5, 68640, Note_on_c, 9, 38, 95
5, 69120, Note_off_c, 9, 46, 63
5, 69120, Note_off_c, 9, 40, 95
5, 69120, Note_off_c, 9, 38, 95
5, 69120, Note_on_c, 9, 46, 63
5, 69600, Note_off_c, 9, 46, 63
5, 69600, Note_on_c, 9, 42, 95
5, 69600, Note_on_c, 9, 36, 95
5, 70080, Note_off_c, 9, 42, 95
5, 70080, Note_off_c, 9, 36, 95
5, 70560, Note_on_c, 9, 42, 95
5, 70560, Note_on_c, 9, 40, 95
5, 70560, Note_on_c, 9, 38, 95
5, 71040, Note_off_c, 9, 42, 95
5, 71040, Note_off_c, 9, 40, 95
5, 71040, Note_off_c, 9, 38, 95
5, 71520, Note_on_c, 9, 42, 95
5, 71520, Note_on_c, 9, 36, 95
5, 72000, Note_off_c, 9, 42, 95
5, 72000, Note_off_c, 9, 36, 95
5, 72480, Note_on_c, 9, 42, 95
5, 72480, Note_on_c, 9, 40, 95
5, 72480, Note_on_c, 9, 38, 95
5, 72960, Note_off_c, 9, 42, 95
5, 72960, Note_off_c, 9, 40, 95
5, 72960, Note_off_c, 9, 38, 95
5, 73440, Note_on_c, 9, 42, 95
5, 73440, Note_on_c, 9, 36, 95
5, 73920, Note_off_c, 9, 42, 95
5, 73920, Note_off_c, 9, 36, 95
5, 74400, Note_on_c, 9, 42, 95
5, 74400, Note_on_c, 9, 40, 95
5, 74400, Note_on_c, 9, 38, 95
5, 74880, Note_off_c, 9, 42, 95
5, 74880, Note_off_c, 9, 40, 95
5, 74880, Note_off_c, 9, 38, 95
5, 75360, Note_on_c, 9, 42, 95
5, 75360, Note_on_c, 9, 36, 95
5, 75840, Note_off_c, 9, 42, 95
5, 75840, Note_off_c, 9, 36, 95
5, 76320, Note_on_c, 9, 42, 95
5, 76320, Note_on_c, 9, 40, 95
5, 76320, Note_on_c, 9, 38, 95
5, 76800, Note_off_c, 9, 42, 95
5, 76800, Note_off_c, 9, 40, 95
5, 76800, Note_off_c, 9, 38, 95
5, 77280, Note_on_c, 9, 42, 95
5, 77280, Note_on_c, 9, 36, 95
5, 77760, Note_off_c, 9, 42, 95
5, 77760, Note_off_c, 9, 36, 95
5, 78240, Note_on_c, 9, 42, 95
5, 78240, Note_on_c, 9, 40, 95
5, 78240, Note_on_c, 9, 38, 95
5, 78720, Note_off_c, 9, 42, 95
5, 78720, Note_off_c, 9, 40, 95
5, 78720, Note_off_c, 9, 38, 95
5, 79200, Note_on_c, 9, 42, 95
5, 79200, Note_on_c, 9, 36, 95
5, 79680, Note_off_c, 9, 42, 95
5, 79680, Note_off_c, 9, 36, 95
5, 80160, Note_on_c, 9, 42, 95
5, 80160, Note_on_c, 9, 40, 95
5, 80160, Note_on_c, 9, 38, 95
5, 80640, Note_off_c, 9, 42, 95
5, 80640, Note_off_c, 9, 40, 95
5, 80640, Note_off_c, 9, 38, 95
5, 81120, Note_on_c, 9, 42, 95
5, 81120, Note_on_c, 9, 36, 95
5, 81600, Note_off_c, 9, 42, 95
5, 81600, Note_off_c, 9, 36, 95
5, 82080, Note_on_c, 9, 42, 95
5, 82080, Note_on_c, 9, 40, 95
5, 82080, Note_on_c, 9, 38, 95
5, 82560, Note_off_c, 9, 42, 95
5, 82560, Note_off_c, 9, 40, 95
5, 82560, Note_off_c, 9, 38, 95
5, 83040, Note_on_c, 9, 42, 95
5, 83040, Note_on_c, 9, 36, 95
5, 83520, Note_off_c, 9, 42, 95
5, 83520, Note_off_c, 9, 36, 95
5, 84000, Note_on_c, 9, 42, 95
5, 84000, Note_on_c, 9, 40, 95
5, 84000, Note_on_c, 9, 38, 95
5, 84480, Note_off_c, 9, 42, 95
5, 84480, Note_off_c, 9, 40, 95
5, 84480, Note_off_c, 9, 38, 95
5, 84480, Note_on_c, 9, 38, 95
5, 84720, Note_off_c, 9, 38, 95
5, 84720, Note_on_c, 9, 38, 95
5, 84960, Note_off_c, 9, 38, 95
5, 84960, Note_on_c, 9, 42, 95
5, 84960, Note_on_c, 9, 49, 95
5, 84960, Note_on_c, 9, 36, 95
5, 85440, Note_off_c, 9, 42, 95
5, 85440, Note_off_c, 9, 49, 95
5, 85440, Note_off_c, 9, 36, 95
5, 85920, Note_on_c, 9, 42, 95
5, 85920, Note_on_c, 9, 40, 95
5, 85920, Note_on_c, 9, 38, 95
5, 86400, Note_off_c, 9, 42, 95
5, 86400, Note_off_c, 9, 40, 95
5, 86400, Note_off_c, 9, 38, 95
5, 86880, Note_on_c, 9, 42, 95
5, 86880, Note_on_c, 9, 36, 95
5, 87360, Note_off_c, 9, 42, 95
5, 87360, Note_off_c, 9, 36, 95
5, 87840, Note_on_c, 9, 42, 95
5, 87840, Note_on_c, 9, 40, 95
5, 87840, Note_on_c, 9, 38, 95
5, 88320, Note_off_c, 9, 42, 95
5, 88320, Note_off_c, 9, 40, 95
5, 88320, Note_off_c, 9, 38, 95
5, 88320, Note_on_c, 9, 38, 95
5, 88560, Note_off_c, 9, 38, 95
5, 88560, Note_on_c, 9, 38, 95
5, 88800, Note_off_c, 9, 38, 95
5, 88800, Note_on_c, 9, 42, 95
5, 88800, Note_on_c, 9, 36, 95
5, 89280, Note_off_c, 9, 42, 95
5, 89280, Note_off_c, 9, 36, 95
5, 89760, Note_on_c, 9, 42, 95
5, 89760, Note_on_c, 9, 40, 95
5, 89760, Note_on_c, 9, 38, 95
5, 90240, Note_off_c, 9, 42, 95
5, 90240, Note_off_c, 9, 40, 95
5, 90240, Note_off_c, 9, 38, 95
5, 90720, Note_on_c, 9, 42, 95
5, 90720, Note_on_c, 9, 36, 95
5, 91200, Note_off_c, 9, 42, 95
5, 91200, Note_off_c, 9, 36, 95
5, 91680, Note_on_c, 9, 42, 95
5, 91680, Note_on_c, 9, 40, 95
5, 91680, Note_on_c, 9, 38, 95
5, 92160, Note_off_c, 9, 42, 95
5, 92160, Note_off_c, 9, 40, 95
5, 92160, Note_off_c, 9, 38, 95
5, 92640, Note_on_c, 9, 42, 95
5, 92640, Note_on_c, 9, 36, 95
5, 93120, Note_off_c, 9, 42, 95
5, 93120, Note_off_c, 9, 36, 95
5, 93600, Note_on_c, 9, 42, 95
5, 93600, Note_on_c, 9, 40, 95
5, 93600, Note_on_c, 9, 38, 95
5, 94080, Note_off_c, 9, 42, 95
5, 94080, Note_off_c, 9, 40, 95
5, 94080, Note_off_c, 9, 38, 95
5, 94560, Note_on_c, 9, 42, 95
5, 94560, Note_on_c, 9, 36, 95
5, 95040, Note_off_c, 9, 42, 95
5, 95040, Note_off_c, 9, 36, 95
5, 95520, Note_on_c, 9, 42, 95
5, 95520, Note_on_c, 9, 40, 95
5, 95520, Note_on_c, 9, 38, 95
5, 96000, Note_off_c, 9, 42, 95
5, 96000, Note_off_c, 9, 40, 95
5, 96000, Note_off_c, 9, 38, 95
5, 96480, Note_on_c, 9, 42, 95
5, 96480, Note_on_c, 9, 36, 95
5, 96960, Note_off_c, 9, 42, 95
5, 96960, Note_off_c, 9, 36, 95
5, 97440, Note_on_c, 9, 42, 95
5, 97440, Note_on_c, 9, 40, 95
5, 97440, Note_on_c, 9, 38, 95
5, 97920, Note_off_c, 9, 42, 95
5, 97920, Note_off_c, 9, 40, 95
5, 97920, Note_off_c, 9, 38, 95
5, 98400, Note_on_c, 9, 42, 95
5, 98400, Note_on_c, 9, 38, 95
5, 98400, Note_on_c, 9, 36, 95
5, 98880, Note_off_c, 9, 42, 95
5, 98880, Note_off_c, 9, 38, 95
5, 98880, Note_off_c, 9, 36, 95
5, 98880, Note_on_c, 9, 38, 95
5, 98880, Note_on_c, 9, 38, 95
5, 99360, Note_off_c, 9, 38, 95
5, 99360, Note_off_c, 9, 38, 95
5, 99360, Note_on_c, 9, 42, 95
5, 99360, Note_on_c, 9, 40, 95
5, 99360, Note_on_c, 9, 38, 95
5, 99600, Note_off_c, 9, 42, 95
5, 99600, Note_off_c, 9, 40, 95
5, 99600, Note_off_c, 9, 38, 95
5, 99600, Note_on_c, 9, 38, 95
5, 99840, Note_off_c, 9, 38, 95
5, 99840, Note_on_c, 9, 38, 95
5, 100080, Note_off_c, 9, 38, 95
5, 100080, Note_on_c, 9, 38, 95
5, 100320, Note_off_c, 9, 38, 95
5, 100320, Note_on_c, 9, 42, 95
5, 100320, Note_on_c, 9, 36, 95
5, 100800, Note_off_c, 9, 42, 95
5, 100800, Note_off_c, 9, 36, 95
5, 101280, Note_on_c, 9, 42, 95
5, 101280, Note_on_c, 9, 40, 95
5, 101280, Note_on_c, 9, 38, 95
5, 101760, Note_off_c, 9, 42, 95
5, 101760, Note_off_c, 9, 40, 95
5, 101760, Note_off_c, 9, 38, 95
5, 102240, Note_on_c, 9, 42, 95
5, 102240, Note_on_c, 9, 36, 95
5, 102720, Note_off_c, 9, 42, 95
5, 102720, Note_off_c, 9, 36, 95
5, 103200, Note_on_c, 9, 42, 95
5, 103200, Note_on_c, 9, 40, 95
5, 103200, Note_on_c, 9, 38, 95
5, 103680, Note_off_c, 9, 42, 95
5, 103680, Note_off_c, 9, 40, 95
5, 103680, Note_off_c, 9, 38, 95
5, 103680, Note_on_c, 9, 38, 95
5, 103920, Note_off_c, 9, 38, 95
5, 103920, Note_on_c, 9, 38, 95
5, 104160, Note_off_c, 9, 38, 95
5, 104160, Note_on_c, 9, 42, 95
5, 104160, Note_on_c, 9, 36, 95
5, 104640, Note_off_c, 9, 42, 95
5, 104640, Note_off_c, 9, 36, 95
5, 105120, Note_on_c, 9, 42, 95
5, 105120, Note_on_c, 9, 40, 95
5, 105120, Note_on_c, 9, 38, 95
5, 105600, Note_off_c, 9, 42, 95
5, 105600, Note_off_c, 9, 40, 95
5, 105600, Note_off_c, 9, 38, 95
5, 106080, Note_on_c, 9, 42, 95
5, 106080, Note_on_c, 9, 36, 95
5, 106560, Note_off_c, 9, 42, 95
5, 106560, Note_off_c, 9, 36, 95
5, 107040, Note_on_c, 9, 42, 95
5, 107040, Note_on_c, 9, 40, 95
5, 107040, Note_on_c, 9, 38, 95
5, 107520, Note_off_c, 9, 42, 95
5, 107520, Note_off_c, 9, 40, 95
5, 107520, Note_off_c, 9, 38, 95
5, 107520, Note_on_c, 9, 38, 95
5, 107760, Note_off_c, 9, 38, 95
5, 107760, Note_on_c, 9, 38, 95
5, 108000, Note_off_c, 9, 38, 95
5, 108000, Note_on_c, 9, 42, 95
5, 108000, Note_on_c, 9, 36, 95
5, 108480, Note_off_c, 9, 42, 95
5, 108480, Note_off_c, 9, 36, 95
5, 108960, Note_on_c, 9, 42, 95
5, 108960, Note_on_c, 9, 40, 95
5, 108960, Note_on_c, 9, 38, 95
5, 109440, Note_off_c, 9, 42, 95
5, 109440, Note_off_c, 9, 40, 95
5, 109440, Note_off_c, 9, 38, 95
5, 109920, Note_on_c, 9, 42, 95
5, 109920, Note_on_c, 9, 36, 95
5, 110400, Note_off_c, 9, 42, 95
5, 110400, Note_off_c, 9, 36, 95
5, 110880, Note_on_c, 9, 42, 95
5, 110880, Note_on_c, 9, 40, 95
5, 110880, Note_on_c, 9, 38, 95
5, 111360, Note_off_c, 9, 42, 95
5, 111360, Note_off_c, 9, 40, 95
5, 111360, Note_off_c, 9, 38, 95
5, 111360, Note_on_c, 9, 38, 95
5, 111600, Note_off_c, 9, 38, 95
5, 111600, Note_on_c, 9, 38, 95
5, 111840, Note_off_c, 9, 38, 95
5, 111840, Note_on_c, 9, 42, 95
5, 111840, Note_on_c, 9, 36, 95
5, 112320, Note_off_c, 9, 42, 95
5, 112320, Note_off_c, 9, 36, 95
5, 112800, Note_on_c, 9, 42, 95
5, 112800, Note_on_c, 9, 40, 95
5, 112800, Note_on_c, 9, 38, 95
5, 113280, Note_off_c, 9, 42, 95
5, 113280, Note_off_c, 9, 40, 95
5, 113280, Note_off_c, 9, 38, 95
5, 113760, Note_on_c, 9, 42, 95
5, 113760, Note_on_c, 9, 36, 95
5, 114240, Note_off_c, 9, 42, 95
5, 114240, Note_off_c, 9, 36, 95
5, 114720, Note_on_c, 9, 42, 95
5, 114720, Note_on_c, 9, 40, 95
5, 114720, Note_on_c, 9, 38, 95
5, 115200, Note_off_c, 9, 42, 95
5, 115200, Note_off_c, 9, 40, 95
5, 115200, Note_off_c, 9, 38, 95
5, 115200, Note_on_c, 9, 38, 95
5, 115440, Note_off_c, 9, 38, 95
5, 115440, Note_on_c, 9, 38, 95
5, 115680, Note_off_c, 9, 38, 95
5, 115680, Note_on_c, 9, 42, 95
5, 115680, Note_on_c, 9, 36, 95
5, 116160, Note_off_c, 9, 42, 95
5, 116160, Note_off_c, 9, 36, 95
5, 116640, Note_on_c, 9, 42, 95
5, 116640, Note_on_c, 9, 40, 95
5, 116640, Note_on_c, 9, 38, 95
5, 117120, Note_off_c, 9, 42, 95
5, 117120, Note_off_c, 9, 40, 95
5, 117120, Note_off_c, 9, 38, 95
5, 117600, Note_on_c, 9, 42, 95
5, 117600, Note_on_c, 9, 36, 95
5, 118080, Note_off_c, 9, 42, 95
5, 118080, Note_off_c, 9, 36, 95
5, 118560, Note_on_c, 9, 42, 95
5, 118560, Note_on_c, 9, 40, 95
5, 118560, Note_on_c, 9, 38, 95
5, 119040, Note_off_c, 9, 42, 95
5, 119040, Note_off_c, 9, 40, 95
5, 119040, Note_off_c, 9, 38, 95
5, 119040, Note_on_c, 9, 38, 95
5, 119280, Note_off_c, 9, 38, 95
5, 119280, Note_on_c, 9, 38, 95
5, 119520, Note_off_c, 9, 38, 95
5, 119520, Note_on_c, 9, 42, 95
5, 119520, Note_on_c, 9, 36, 95
5, 120000, Note_off_c, 9, 42, 95
5, 120000, Note_off_c, 9, 36, 95
5, 120480, Note_on_c, 9, 42, 95
5, 120480, Note_on_c, 9, 40, 95
5, 120480, Note_on_c, 9, 38, 95
5, 120960, Note_off_c, 9, 42, 95
5, 120960, Note_off_c, 9, 40, 95
5, 120960, Note_off_c, 9, 38, 95
5, 121440, Note_on_c, 9, 42, 95
5, 121440, Note_on_c, 9, 36, 95
5, 121920, Note_off_c, 9, 42, 95
5, 121920, Note_off_c, 9, 36, 95
5, 122400, Note_on_c, 9, 42, 95
5, 122400, Note_on_c, 9, 40, 95
5, 122400, Note_on_c, 9, 38, 95
5, 122880, Note_off_c, 9, 42, 95
5, 122880, Note_off_c, 9, 40, 95
5, 122880, Note_off_c, 9, 38, 95
5, 122880, Note_on_c, 9, 38, 95
5, 123120, Note_off_c, 9, 38, 95
5, 123120, Note_on_c, 9, 38, 95
5, 123360, Note_off_c, 9, 38, 95
5, 123360, Note_on_c, 9, 42, 95
5, 123360, Note_on_c, 9, 36, 95
5, 123840, Note_off_c, 9, 42, 95
5, 123840, Note_off_c, 9, 36, 95
5, 124320, Note_on_c, 9, 42, 95
5, 124320, Note_on_c, 9, 40, 95
5, 124320, Note_on_c, 9, 38, 95
5, 124800, Note_off_c, 9, 42, 95
5, 124800, Note_off_c, 9, 40, 95
5, 124800, Note_off_c, 9, 38, 95
5, 125280, Note_on_c, 9, 42, 95
5, 125280, Note_on_c, 9, 36, 95
5, 125760, Note_off_c, 9, 42, 95
5, 125760, Note_off_c, 9, 36, 95
5, 126240, Note_on_c, 9, 42, 95
5, 126240, Note_on_c, 9, 40, 95
5, 126240, Note_on_c, 9, 38, 95
5, 126720, Note_off_c, 9, 42, 95
5, 126720, Note_off_c, 9, 40, 95
5, 126720, Note_off_c, 9, 38, 95
5, 127200, Note_on_c, 9, 42, 95
5, 127200, Note_on_c, 9, 36, 95
5, 127680, Note_off_c, 9, 42, 95
5, 127680, Note_off_c, 9, 36, 95
5, 128160, Note_on_c, 9, 42, 95
5, 128160, Note_on_c, 9, 40, 95
5, 128160, Note_on_c, 9, 38, 95
5, 128640, Note_off_c, 9, 42, 95
5, 128640, Note_off_c, 9, 40, 95
5, 128640, Note_off_c, 9, 38, 95
5, 129120, Note_on_c, 9, 42, 95
5, 129120, Note_on_c, 9, 36, 95
5, 129600, Note_off_c, 9, 42, 95
5, 129600, Note_off_c, 9, 36, 95
5, 130080, Note_on_c, 9, 42, 95
5, 130080, Note_on_c, 9, 40, 95
5, 130080, Note_on_c, 9, 38, 95
5, 130560, Note_off_c, 9, 42, 95
5, 130560, Note_off_c, 9, 40, 95
5, 130560, Note_off_c, 9, 38, 95
5, 131040, Note_on_c, 9, 42, 95
5, 131040, Note_on_c, 9, 36, 95
5, 131520, Note_off_c, 9, 42, 95
5, 131520, Note_off_c, 9, 36, 95
5, 132000, Note_on_c, 9, 42, 95
5, 132000, Note_on_c, 9, 40, 95
5, 132000, Note_on_c, 9, 38, 95
5, 132480, Note_off_c, 9, 42, 95
5, 132480, Note_off_c, 9, 40, 95
5, 132480, Note_off_c, 9, 38, 95
5, 132960, Note_on_c, 9, 42, 95
5, 132960, Note_on_c, 9, 36, 95
5, 133440, Note_off_c, 9, 42, 95
5, 133440, Note_off_c, 9, 36, 95
5, 133920, Note_on_c, 9, 42, 95
5, 133920, Note_on_c, 9, 40, 95
5, 133920, Note_on_c, 9, 38, 95
5, 134400, Note_off_c, 9, 42, 95
5, 134400, Note_off_c, 9, 40, 95
5, 134400, Note_off_c, 9, 38, 95
5, 134880, Note_on_c, 9, 42, 95
5, 134880, Note_on_c, 9, 36, 95
5, 135360, Note_off_c, 9, 42, 95
5, 135360, Note_off_c, 9, 36, 95
5, 135840, Note_on_c, 9, 42, 95
5, 135840, Note_on_c, 9, 40, 95
5, 135840, Note_on_c, 9, 38, 95
5, 136320, Note_off_c, 9, 42, 95
5, 136320, Note_off_c, 9, 40, 95
5, 136320, Note_off_c, 9, 38, 95
5, 136800, Note_on_c, 9, 42, 95
5, 136800, Note_on_c, 9, 36, 95
5, 137280, Note_off_c, 9, 42, 95
5, 137280, Note_off_c, 9, 36, 95
5, 137760, Note_on_c, 9, 42, 95
5, 137760, Note_on_c, 9, 40, 95
5, 137760, Note_on_c, 9, 38, 95
5, 138240, Note_off_c, 9, 42, 95
5, 138240, Note_off_c, 9, 40, 95
5, 138240, Note_off_c, 9, 38, 95
5, 138720, Note_on_c, 9, 42, 95
5, 138720, Note_on_c, 9, 36, 95
5, 139200, Note_off_c, 9, 42, 95
5, 139200, Note_off_c, 9, 36, 95
5, 139680, Note_on_c, 9, 42, 95
5, 139680, Note_on_c, 9, 40, 95
5, 139680, Note_on_c, 9, 38, 95
5, 140160, Note_off_c, 9, 42, 95
5, 140160, Note_off_c, 9, 40, 95
5, 140160, Note_off_c, 9, 38, 95
5, 140640, Note_on_c, 9, 42, 95
5, 140640, Note_on_c, 9, 36, 95
5, 141120, Note_off_c, 9, 42, 95
5, 141120, Note_off_c, 9, 36, 95
5, 141600, Note_on_c, 9, 42, 95
5, 141600, Note_on_c, 9, 40, 95
5, 141600, Note_on_c, 9, 38, 95
5, 142080, Note_off_c, 9, 42, 95
5, 142080, Note_off_c, 9, 40, 95
5, 142080, Note_off_c, 9, 38, 95
5, 142560, Note_on_c, 9, 42, 95
5, 142560, Note_on_c, 9, 36, 95
5, 143040, Note_off_c, 9, 42, 95
5, 143040, Note_off_c, 9, 36, 95
5, 143520, Note_on_c, 9, 42, 95
5, 143520, Note_on_c, 9, 40, 95
5, 143520, Note_on_c, 9, 38, 95
5, 144000, Note_off_c, 9, 42, 95
5, 144000, Note_off_c, 9, 40, 95
5, 144000, Note_off_c, 9, 38, 95
5, 144480, Note_on_c, 9, 42, 95
5, 144480, Note_on_c, 9, 36, 95
5, 144960, Note_off_c, 9, 42, 95
5, 144960, Note_off_c, 9, 36, 95
5, 145440, Note_on_c, 9, 42, 95
5, 145440, Note_on_c, 9, 40, 95
5, 145440, Note_on_c, 9, 38, 95
5, 145920, Note_off_c, 9, 42, 95
5, 145920, Note_off_c, 9, 40, 95
5, 145920, Note_off_c, 9, 38, 95
5, 146400, Note_on_c, 9, 42, 95
5, 146400, Note_on_c, 9, 36, 95
5, 146880, Note_off_c, 9, 42, 95
5, 146880, Note_off_c, 9, 36, 95
5, 147360, Note_on_c, 9, 42, 95
5, 147360, Note_on_c, 9, 40, 95
5, 147360, Note_on_c, 9, 38, 95
5, 147840, Note_off_c, 9, 42, 95
5, 147840, Note_off_c, 9, 40, 95
5, 147840, Note_off_c, 9, 38, 95
5, 148320, Note_on_c, 9, 42, 95
5, 148320, Note_on_c, 9, 36, 95
5, 148800, Note_off_c, 9, 42, 95
5, 148800, Note_off_c, 9, 36, 95
5, 149280, Note_on_c, 9, 42, 95
5, 149280, Note_on_c, 9, 40, 95
5, 149280, Note_on_c, 9, 38, 95
5, 149760, Note_off_c, 9, 42, 95
5, 149760, Note_off_c, 9, 40, 95
5, 149760, Note_off_c, 9, 38, 95
5, 150240, Note_on_c, 9, 42, 95
5, 150240, Note_on_c, 9, 36, 95
5, 150720, Note_off_c, 9, 42, 95
5, 150720, Note_off_c, 9, 36, 95
5, 151200, Note_on_c, 9, 42, 95
5, 151200, Note_on_c, 9, 40, 95
5, 151200, Note_on_c, 9, 38, 95
5, 151680, Note_off_c, 9, 42, 95
5, 151680, Note_off_c, 9, 40, 95
5, 151680, Note_off_c, 9, 38, 95
5, 152160, Note_on_c, 9, 42, 95
5, 152160, Note_on_c, 9, 36, 95
5, 152640, Note_off_c, 9, 42, 95
5, 152640, Note_off_c, 9, 36, 95
5, 153120, Note_on_c, 9, 42, 95
5, 153120, Note_on_c, 9, 40, 95
5, 153120, Note_on_c, 9, 38, 95
5, 153600, Note_off_c, 9, 42, 95
5, 153600, Note_off_c, 9, 40, 95
5, 153600, Note_off_c, 9, 38, 95
5, 153600, Note_on_c, 9, 38, 95
5, 153840, Note_off_c, 9, 38, 95
5, 153840, Note_on_c, 9, 38, 95
5, 154080, Note_off_c, 9, 38, 95
5, 154080, Note_on_c, 9, 42, 95
5, 154080, Note_on_c, 9, 49, 95
5, 154080, Note_on_c, 9, 36, 95
5, 154560, Note_off_c, 9, 42, 95
5, 154560, Note_off_c, 9, 49, 95
5, 154560, Note_off_c, 9, 36, 95
5, 155040, Note_on_c, 9, 42, 95
5, 155040, Note_on_c, 9, 40, 95
5, 155040, Note_on_c, 9, 38, 95
5, 155520, Note_off_c, 9, 42, 95
5, 155520, Note_off_c, 9, 40, 95
5, 155520, Note_off_c, 9, 38, 95
5, 156000, Note_on_c, 9, 42, 95
5, 156000, Note_on_c, 9, 36, 95
5, 156480, Note_off_c, 9, 42, 95
5, 156480, Note_off_c, 9, 36, 95
5, 156960, Note_on_c, 9, 42, 95
5, 156960, Note_on_c, 9, 40, 95
5, 156960, Note_on_c, 9, 38, 95
5, 157440, Note_off_c, 9, 42, 95
5, 157440, Note_off_c, 9, 40, 95
5, 157440, Note_off_c, 9, 38, 95
5, 157440, Note_on_c, 9, 38, 95
5, 157680, Note_off_c, 9, 38, 95
5, 157680, Note_on_c, 9, 38, 95
5, 157920, Note_off_c, 9, 38, 95
5, 157920, Note_on_c, 9, 42, 95
5, 157920, Note_on_c, 9, 36, 95
5, 158400, Note_off_c, 9, 42, 95
5, 158400, Note_off_c, 9, 36, 95
5, 158880, Note_on_c, 9, 42, 95
5, 158880, Note_on_c, 9, 40, 95
5, 158880, Note_on_c, 9, 38, 95
5, 159360, Note_off_c, 9, 42, 95
5, 159360, Note_off_c, 9, 40, 95
5, 159360, Note_off_c, 9, 38, 95
5, 159840, Note_on_c, 9, 42, 95
5, 159840, Note_on_c, 9, 36, 95
5, 160320, Note_off_c, 9, 42, 95
5, 160320, Note_off_c, 9, 36, 95
5, 160800, Note_on_c, 9, 42, 95
5, 160800, Note_on_c, 9, 40, 95
5, 160800, Note_on_c, 9, 38, 95
5, 161280, Note_off_c, 9, 42, 95
5, 161280, Note_off_c, 9, 40, 95
5, 161280, Note_off_c, 9, 38, 95
5, 161760, Note_on_c, 9, 42, 95
5, 161760, Note_on_c, 9, 36, 95
5, 162240, Note_off_c, 9, 42, 95
5, 162240, Note_off_c, 9, 36, 95
5, 162720, Note_on_c, 9, 42, 95
5, 162720, Note_on_c, 9, 40, 95
5, 162720, Note_on_c, 9, 38, 95
5, 163200, Note_off_c, 9, 42, 95
5, 163200, Note_off_c, 9, 40, 95
5, 163200, Note_off_c, 9, 38, 95
5, 163680, Note_on_c, 9, 42, 95
5, 163680, Note_on_c, 9, 36, 95
5, 164160, Note_off_c, 9, 42, 95
5, 164160, Note_off_c, 9, 36, 95
5, 164640, Note_on_c, 9, 42, 95
5, 164640, Note_on_c, 9, 40, 95
5, 164640, Note_on_c, 9, 38, 95
5, 165120, Note_off_c, 9, 42, 95
5, 165120, Note_off_c, 9, 40, 95
5, 165120, Note_off_c, 9, 38, 95
5, 165600, Note_on_c, 9, 42, 95
5, 165600, Note_on_c, 9, 36, 95
5, 166080, Note_off_c, 9, 42, 95
5, 166080, Note_off_c, 9, 36, 95
5, 166560, Note_on_c, 9, 42, 95
5, 166560, Note_on_c, 9, 40, 95
5, 166560, Note_on_c, 9, 38, 95
5, 167040, Note_off_c, 9, 42, 95
5, 167040, Note_off_c, 9, 40, 95
5, 167040, Note_off_c, 9, 38, 95
5, 167520, Note_on_c, 9, 42, 95
5, 167520, Note_on_c, 9, 36, 95
5, 168000, Note_off_c, 9, 42, 95
5, 168000, Note_off_c, 9, 36, 95
5, 168480, Note_on_c, 9, 42, 95
5, 168480, Note_on_c, 9, 40, 95
5, 168480, Note_on_c, 9, 38, 95
5, 168960, Note_off_c, 9, 42, 95
5, 168960, Note_off_c, 9, 40, 95
5, 168960, Note_off_c, 9, 38, 95
5, 169440, Note_on_c, 9, 42, 95
5, 169440, Note_on_c, 9, 36, 95
5, 169920, Note_off_c, 9, 42, 95
5, 169920, Note_off_c, 9, 36, 95
5, 170400, Note_on_c, 9, 42, 95
5, 170400, Note_on_c, 9, 40, 95
5, 170400, Note_on_c, 9, 38, 95
5, 170880, Note_off_c, 9, 42, 95
5, 170880, Note_off_c, 9, 40, 95
5, 170880, Note_off_c, 9, 38, 95
5, 171360, Note_on_c, 9, 42, 95
5, 171360, Note_on_c, 9, 36, 95
5, 171840, Note_off_c, 9, 42, 95
5, 171840, Note_off_c, 9, 36, 95
5, 172320, Note_on_c, 9, 42, 95
5, 172320, Note_on_c, 9, 40, 95
5, 172320, Note_on_c, 9, 38, 95
5, 172800, Note_off_c, 9, 42, 95
5, 172800, Note_off_c, 9, 40, 95
5, 172800, Note_off_c, 9, 38, 95
5, 173280, Note_on_c, 9, 42, 95
5, 173280, Note_on_c, 9, 36, 95
5, 173760, Note_off_c, 9, 42, 95
5, 173760, Note_off_c, 9, 36, 95
5, 174240, Note_on_c, 9, 42, 95
5, 174240, Note_on_c, 9, 40, 95
5, 174240, Note_on_c, 9, 38, 95
5, 174720, Note_off_c, 9, 42, 95
5, 174720, Note_off_c, 9, 40, 95
5, 174720, Note_off_c, 9, 38, 95
5, 175200, Note_on_c, 9, 42, 95
5, 175200, Note_on_c, 9, 36, 95
5, 175680, Note_off_c, 9, 42, 95
5, 175680, Note_off_c, 9, 36, 95
5, 176160, Note_on_c, 9, 42, 95
5, 176160, Note_on_c, 9, 40, 95
5, 176160, Note_on_c, 9, 38, 95
5, 176640, Note_off_c, 9, 42, 95
5, 176640, Note_off_c, 9, 40, 95
5, 176640, Note_off_c, 9, 38, 95
5, 177120, Note_on_c, 9, 42, 95
5, 177120, Note_on_c, 9, 36, 95
5, 177600, Note_off_c, 9, 42, 95
5, 177600, Note_off_c, 9, 36, 95
5, 178080, Note_on_c, 9, 42, 95
5, 178080, Note_on_c, 9, 40, 95
5, 178080, Note_on_c, 9, 38, 95
5, 178560, Note_off_c, 9, 42, 95
5, 178560, Note_off_c, 9, 40, 95
5, 178560, Note_off_c, 9, 38, 95
5, 179040, Note_on_c, 9, 42, 95
5, 179040, Note_on_c, 9, 36, 95
5, 179520, Note_off_c, 9, 42, 95
5, 179520, Note_off_c, 9, 36, 95
5, 180000, Note_on_c, 9, 42, 95
5, 180000, Note_on_c, 9, 40, 95
5, 180000, Note_on_c, 9, 38, 95
5, 180480, Note_off_c, 9, 42, 95
5, 180480, Note_off_c, 9, 40, 95
5, 180480, Note_off_c, 9, 38, 95
5, 180960, Note_on_c, 9, 42, 95
5, 180960, Note_on_c, 9, 36, 95
5, 181440, Note_off_c, 9, 42, 95
5, 181440, Note_off_c, 9, 36, 95
5, 181920, Note_on_c, 9, 42, 95
5, 181920, Note_on_c, 9, 40, 95
5, 181920, Note_on_c, 9, 38, 95
5, 182400, Note_off_c, 9, 42, 95
5, 182400, Note_off_c, 9, 40, 95
5, 182400, Note_off_c, 9, 38, 95
5, 182880, Note_on_c, 9, 42, 95
5, 182880, Note_on_c, 9, 36, 95
5, 183360, Note_off_c, 9, 42, 95
5, 183360, Note_off_c, 9, 36, 95
5, 183840, Note_on_c, 9, 42, 95
5, 183840, Note_on_c, 9, 40, 95
5, 183840, Note_on_c, 9, 38, 95
5, 184320, Note_off_c, 9, 42, 95
5, 184320, Note_off_c, 9, 40, 95
5, 184320, Note_off_c, 9, 38, 95
5, 184320, Note_on_c, 9, 38, 95
5, 184560, Note_off_c, 9, 38, 95
5, 184560, Note_on_c, 9, 38, 95
5, 184800, Note_off_c, 9, 38, 95
5, 184800, Note_on_c, 9, 42, 95
5, 184800, Note_on_c, 9, 49, 95
5, 184800, Note_on_c, 9, 36, 95
5, 185280, Note_off_c, 9, 42, 95
5, 185280, Note_off_c, 9, 49, 95
5, 185280, Note_off_c, 9, 36, 95
5, 185760, Note_on_c, 9, 42, 95
5, 185760, Note_on_c, 9, 40, 95
5, 185760, Note_on_c, 9, 38, 95
5, 186240, Note_off_c, 9, 42, 95
5, 186240, Note_off_c, 9, 40, 95
5, 186240, Note_off_c, 9, 38, 95
5, 186720, Note_on_c, 9, 42, 95
5, 186720, Note_on_c, 9, 36, 95
5, 187200, Note_off_c, 9, 42, 95
5, 187200, Note_off_c, 9, 36, 95
5, 187680, Note_on_c, 9, 42, 95
5, 187680, Note_on_c, 9, 40, 95
5, 187680, Note_on_c, 9, 38, 95
5, 188160, Note_off_c, 9, 42, 95
5, 188160, Note_off_c, 9, 40, 95
5, 188160, Note_off_c, 9, 38, 95
5, 188160, Note_on_c, 9, 38, 95
5, 188400, Note_off_c, 9, 38, 95
5, 188400, Note_on_c, 9, 38, 95
5, 188640, Note_off_c, 9, 38, 95
5, 188640, Note_on_c, 9, 42, 95
5, 188640, Note_on_c, 9, 36, 95
5, 189120, Note_off_c, 9, 42, 95
5, 189120, Note_off_c, 9, 36, 95
5, 189600, Note_on_c, 9, 42, 95
5, 189600, Note_on_c, 9, 40, 95
5, 189600, Note_on_c, 9, 38, 95
5, 190080, Note_off_c, 9, 42, 95
5, 190080, Note_off_c, 9, 40, 95
5, 190080, Note_off_c, 9, 38, 95
5, 190560, Note_on_c, 9, 42, 95
5, 190560, Note_on_c, 9, 36, 95
5, 191040, Note_off_c, 9, 42, 95
5, 191040, Note_off_c, 9, 36, 95
5, 191520, Note_on_c, 9, 42, 95
5, 191520, Note_on_c, 9, 40, 95
5, 191520, Note_on_c, 9, 38, 95
5, 192000, Note_off_c, 9, 42, 95
5, 192000, Note_off_c, 9, 40, 95
5, 192000, Note_off_c, 9, 38, 95
5, 192480, Note_on_c, 9, 42, 95
5, 192480, Note_on_c, 9, 36, 95
5, 192960, Note_off_c, 9, 42, 95
5, 192960, Note_off_c, 9, 36, 95
5, 193440, Note_on_c, 9, 42, 95
5, 193440, Note_on_c, 9, 40, 95
5, 193440, Note_on_c, 9, 38, 95
5, 193920, Note_off_c, 9, 42, 95
5, 193920, Note_off_c, 9, 40, 95
5, 193920, Note_off_c, 9, 38, 95
5, 194400, Note_on_c, 9, 42, 95
5, 194400, Note_on_c, 9, 36, 95
5, 194880, Note_off_c, 9, 42, 95
5, 194880, Note_off_c, 9, 36, 95
5, 195360, Note_on_c, 9, 42, 95
5, 195360, Note_on_c, 9, 40, 95
5, 195360, Note_on_c, 9, 38, 95
5, 195840, Note_off_c, 9, 42, 95
5, 195840, Note_off_c, 9, 40, 95
5, 195840, Note_off_c, 9, 38, 95
5, 196320, Note_on_c, 9, 42, 95
5, 196320, Note_on_c, 9, 36, 95
5, 196800, Note_off_c, 9, 42, 95
5, 196800, Note_off_c, 9, 36, 95
5, 197280, Note_on_c, 9, 42, 95
5, 197280, Note_on_c, 9, 40, 95
5, 197280, Note_on_c, 9, 38, 95
5, 197760, Note_off_c, 9, 42, 95
5, 197760, Note_off_c, 9, 40, 95
5, 197760, Note_off_c, 9, 38, 95
5, 198240, Note_on_c, 9, 42, 95
5, 198240, Note_on_c, 9, 38, 95
5, 198240, Note_on_c, 9, 36, 95
5, 198720, Note_off_c, 9, 42, 95
5, 198720, Note_off_c, 9, 38, 95
5, 198720, Note_off_c, 9, 36, 95
5, 198720, Note_on_c, 9, 38, 95
5, 199200, Note_off_c, 9, 38, 95
5, 199200, Note_on_c, 9, 42, 95
5, 199200, Note_on_c, 9, 40, 95
5, 199200, Note_on_c, 9, 38, 95
5, 199440, Note_off_c, 9, 42, 95
5, 199440, Note_off_c, 9, 40, 95
5, 199440, Note_off_c, 9, 38, 95
5, 199440, Note_on_c, 9, 38, 95
5, 199680, Note_off_c, 9, 38, 95
5, 199680, Note_on_c, 9, 38, 95
5, 199920, Note_off_c, 9, 38, 95
5, 199920, Note_on_c, 9, 38, 95
5, 200160, Note_off_c, 9, 38, 95
5, 200160, Note_on_c, 9, 42, 95
5, 200160, Note_on_c, 9, 36, 95
5, 200640, Note_off_c, 9, 42, 95
5, 200640, Note_off_c, 9, 36, 95
5, 201120, Note_on_c, 9, 42, 95
5, 201120, Note_on_c, 9, 40, 95
5, 201120, Note_on_c, 9, 38, 95
5, 201600, Note_off_c, 9, 42, 95
5, 201600, Note_off_c, 9, 40, 95
5, 201600, Note_off_c, 9, 38, 95
5, 202080, Note_on_c, 9, 42, 95
5, 202080, Note_on_c, 9, 36, 95
5, 202560, Note_off_c, 9, 42, 95
5, 202560, Note_off_c, 9, 36, 95
5, 203040, Note_on_c, 9, 42, 95
5, 203040, Note_on_c, 9, 40, 95
5, 203040, Note_on_c, 9, 38, 95
5, 203520, Note_off_c, 9, 42, 95
5, 203520, Note_off_c, 9, 40, 95
5, 203520, Note_off_c, 9, 38, 95
5, 204000, Note_on_c, 9, 42, 95
5, 204000, Note_on_c, 9, 36, 95
5, 204480, Note_off_c, 9, 42, 95
5, 204480, Note_off_c, 9, 36, 95
5, 204960, Note_on_c, 9, 42, 95
5, 204960, Note_on_c, 9, 40, 95
5, 204960, Note_on_c, 9, 38, 95
5, 205440, Note_off_c, 9, 42, 95
5, 205440, Note_off_c, 9, 40, 95
5, 205440, Note_off_c, 9, 38, 95
5, 205920, Note_on_c, 9, 42, 95
5, 205920, Note_on_c, 9, 36, 95
5, 206400, Note_off_c, 9, 42, 95
5, 206400, Note_off_c, 9, 36, 95
5, 206880, Note_on_c, 9, 42, 95
5, 206880, Note_on_c, 9, 40, 95
5, 206880, Note_on_c, 9, 38, 95
5, 207360, Note_off_c, 9, 42, 95
5, 207360, Note_off_c, 9, 40, 95
5, 207360, Note_off_c, 9, 38, 95
5, 207840, Note_on_c, 9, 42, 95
5, 207840, Note_on_c, 9, 36, 95
5, 208320, Note_off_c, 9, 42, 95
5, 208320, Note_off_c, 9, 36, 95
5, 208800, Note_on_c, 9, 42, 95
5, 208800, Note_on_c, 9, 40, 95
5, 208800, Note_on_c, 9, 38, 95
5, 209280, Note_off_c, 9, 42, 95
5, 209280, Note_off_c, 9, 40, 95
5, 209280, Note_off_c, 9, 38, 95
5, 209760, Note_on_c, 9, 42, 95
5, 209760, Note_on_c, 9, 36, 95
5, 210240, Note_off_c, 9, 42, 95
5, 210240, Note_off_c, 9, 36, 95
5, 210720, Note_on_c, 9, 42, 95
5, 210720, Note_on_c, 9, 40, 95
5, 210720, Note_on_c, 9, 38, 95
5, 211200, Note_off_c, 9, 42, 95
5, 211200, Note_off_c, 9, 40, 95
5, 211200, Note_off_c, 9, 38, 95
5, 211680, Note_on_c, 9, 42, 95
5, 211680, Note_on_c, 9, 36, 95
5, 212160, Note_off_c, 9, 42, 95
5, 212160, Note_off_c, 9, 36, 95
5, 212640, Note_on_c, 9, 42, 95
5, 212640, Note_on_c, 9, 40, 95
5, 212640, Note_on_c, 9, 38, 95
5, 213120, Note_off_c, 9, 42, 95
5, 213120, Note_off_c, 9, 40, 95
5, 213120, Note_off_c, 9, 38, 95
5, 213600, Note_on_c, 9, 42, 95
5, 213600, Note_on_c, 9, 36, 95
5, 214080, Note_off_c, 9, 42, 95
5, 214080, Note_off_c, 9, 36, 95
5, 214560, Note_on_c, 9, 42, 95
5, 214560, Note_on_c, 9, 40, 95
5, 214560, Note_on_c, 9, 38, 95
5, 215040, Note_off_c, 9, 42, 95
5, 215040, Note_off_c, 9, 40, 95
5, 215040, Note_off_c, 9, 38, 95
5, 215520, Note_on_c, 9, 42, 95
5, 215520, Note_on_c, 9, 36, 95
5, 216000, Note_off_c, 9, 42, 95
5, 216000, Note_off_c, 9, 36, 95
5, 216480, Note_on_c, 9, 42, 95
5, 216480, Note_on_c, 9, 40, 95
5, 216480, Note_on_c, 9, 38, 95
5, 216960, Note_off_c, 9, 42, 95
5, 216960, Note_off_c, 9, 40, 95
5, 216960, Note_off_c, 9, 38, 95
5, 217440, Note_on_c, 9, 42, 95
5, 217440, Note_on_c, 9, 36, 95
5, 217920, Note_off_c, 9, 42, 95
5, 217920, Note_off_c, 9, 36, 95
5, 218400, Note_on_c, 9, 42, 95
5, 218400, Note_on_c, 9, 40, 95
5, 218400, Note_on_c, 9, 38, 95
5, 218880, Note_off_c, 9, 42, 95
5, 218880, Note_off_c, 9, 40, 95
5, 218880, Note_off_c, 9, 38, 95
5, 219360, Note_on_c, 9, 42, 95
5, 219360, Note_on_c, 9, 36, 95
5, 219840, Note_off_c, 9, 42, 95
5, 219840, Note_off_c, 9, 36, 95
5, 220320, Note_on_c, 9, 42, 95
5, 220320, Note_on_c, 9, 40, 95
5, 220320, Note_on_c, 9, 38, 95
5, 220800, Note_off_c, 9, 42, 95
5, 220800, Note_off_c, 9, 40, 95
5, 220800, Note_off_c, 9, 38, 95
5, 221280, Note_on_c, 9, 42, 95
5, 221280, Note_on_c, 9, 36, 95
5, 221760, Note_off_c, 9, 42, 95
5, 221760, Note_off_c, 9, 36, 95
5, 222240, Note_on_c, 9, 42, 95
5, 222240, Note_on_c, 9, 40, 95
5, 222240, Note_on_c, 9, 38, 95
5, 222720, Note_off_c, 9, 42, 95
5, 222720, Note_off_c, 9, 40, 95
5, 222720, Note_off_c, 9, 38, 95
5, 223200, Note_on_c, 9, 42, 95
5, 223200, Note_on_c, 9, 36, 95
5, 223680, Note_off_c, 9, 42, 95
5, 223680, Note_off_c, 9, 36, 95
5, 224160, Note_on_c, 9, 42, 95
5, 224160, Note_on_c, 9, 40, 95
5, 224160, Note_on_c, 9, 38, 95
5, 224640, Note_off_c, 9, 42, 95
5, 224640, Note_off_c, 9, 40, 95
5, 224640, Note_off_c, 9, 38, 95
5, 225120, Note_on_c, 9, 42, 95
5, 225120, Note_on_c, 9, 36, 95
5, 225600, Note_off_c, 9, 42, 95
5, 225600, Note_off_c, 9, 36, 95
5, 226080, Note_on_c, 9, 42, 95
5, 226080, Note_on_c, 9, 40, 95
5, 226080, Note_on_c, 9, 38, 95
5, 226560, Note_off_c, 9, 42, 95
5, 226560, Note_off_c, 9, 40, 95
5, 226560, Note_off_c, 9, 38, 95
5, 227040, Note_on_c, 9, 42, 95
5, 227040, Note_on_c, 9, 36, 95
5, 227520, Note_off_c, 9, 42, 95
5, 227520, Note_off_c, 9, 36, 95
5, 228000, Note_on_c, 9, 42, 95
5, 228000, Note_on_c, 9, 40, 95
5, 228000, Note_on_c, 9, 38, 95
5, 228480, Note_off_c, 9, 42, 95
5, 228480, Note_off_c, 9, 40, 95
5, 228480, Note_off_c, 9, 38, 95
5, 228960, Note_on_c, 9, 42, 95
5, 228960, Note_on_c, 9, 36, 95
5, 229440, Note_off_c, 9, 42, 95
5, 229440, Note_off_c, 9, 36, 95
5, 229920, Note_on_c, 9, 42, 95
5, 229920, Note_on_c, 9, 40, 95
5, 229920, Note_on_c, 9, 38, 95
5, 230400, Note_off_c, 9, 42, 95
5, 230400, Note_off_c, 9, 40, 95
5, 230400, Note_off_c, 9, 38, 95
5, 230880, Note_on_c, 9, 42, 95
5, 230880, Note_on_c, 9, 36, 95
5, 231360, Note_off_c, 9, 42, 95
5, 231360, Note_off_c, 9, 36, 95
5, 231840, Note_on_c, 9, 42, 95
5, 231840, Note_on_c, 9, 40, 95
5, 231840, Note_on_c, 9, 38, 95
5, 232320, Note_off_c, 9, 42, 95
5, 232320, Note_off_c, 9, 40, 95
5, 232320, Note_off_c, 9, 38, 95
5, 232800, Note_on_c, 9, 42, 95
5, 232800, Note_on_c, 9, 36, 95
5, 233280, Note_off_c, 9, 42, 95
5, 233280, Note_off_c, 9, 36, 95
5, 233760, Note_on_c, 9, 42, 95
5, 233760, Note_on_c, 9, 40, 95
5, 233760, Note_on_c, 9, 38, 95
5, 234240, Note_off_c, 9, 42, 95
5, 234240, Note_off_c, 9, 40, 95
5, 234240, Note_off_c, 9, 38, 95
5, 234240, Note_on_c, 9, 38, 95
5, 234480, Note_off_c, 9, 38, 95
5, 234480, Note_on_c, 9, 38, 95
5, 234720, Note_off_c, 9, 38, 95
5, 234720, Note_on_c, 9, 42, 95
5, 234720, Note_on_c, 9, 36, 95
5, 235200, Note_off_c, 9, 42, 95
5, 235200, Note_off_c, 9, 36, 95
5, 235680, Note_on_c, 9, 42, 95
5, 235680, Note_on_c, 9, 40, 95
5, 235680, Note_on_c, 9, 38, 95
5, 236160, Note_off_c, 9, 42, 95
5, 236160, Note_off_c, 9, 40, 95
5, 236160, Note_off_c, 9, 38, 95
5, 236640, Note_on_c, 9, 42, 95
5, 236640, Note_on_c, 9, 36, 95
5, 237120, Note_off_c, 9, 42, 95
5, 237120, Note_off_c, 9, 36, 95
5, 237600, Note_on_c, 9, 42, 95
5, 237600, Note_on_c, 9, 40, 95
5, 237600, Note_on_c, 9, 38, 95
5, 238080, Note_off_c, 9, 42, 95
5, 238080, Note_off_c, 9, 40, 95
5, 238080, Note_off_c, 9, 38, 95
5, 238560, Note_on_c, 9, 42, 95
5, 238560, Note_on_c, 9, 36, 95
5, 239040, Note_off_c, 9, 42, 95
5, 239040, Note_off_c, 9, 36, 95
5, 239520, Note_on_c, 9, 42, 95
5, 239520, Note_on_c, 9, 40, 95
5, 239520, Note_on_c, 9, 38, 95
5, 240000, Note_off_c, 9, 42, 95
5, 240000, Note_off_c, 9, 40, 95
5, 240000, Note_off_c, 9, 38, 95
5, 240480, Note_on_c, 9, 42, 95
5, 240480, Note_on_c, 9, 36, 95
5, 240960, Note_off_c, 9, 42, 95
5, 240960, Note_off_c, 9, 36, 95
5, 241440, Note_on_c, 9, 42, 95
5, 241440, Note_on_c, 9, 40, 95
5, 241440, Note_on_c, 9, 38, 95
5, 241920, Note_off_c, 9, 42, 95
5, 241920, Note_off_c, 9, 40, 95
5, 241920, Note_off_c, 9, 38, 95
5, 242400, Note_on_c, 9, 42, 95
5, 242400, Note_on_c, 9, 36, 95
5, 242880, Note_off_c, 9, 42, 95
5, 242880, Note_off_c, 9, 36, 95
5, 243360, Note_on_c, 9, 42, 95
5, 243360, Note_on_c, 9, 40, 95
5, 243360, Note_on_c, 9, 38, 95
5, 243840, Note_off_c, 9, 42, 95
5, 243840, Note_off_c, 9, 40, 95
5, 243840, Note_off_c, 9, 38, 95
5, 244320, Note_on_c, 9, 42, 95
5, 244320, Note_on_c, 9, 36, 95
5, 244800, Note_off_c, 9, 42, 95
5, 244800, Note_off_c, 9, 36, 95
5, 245280, Note_on_c, 9, 42, 95
5, 245280, Note_on_c, 9, 40, 95
5, 245280, Note_on_c, 9, 38, 95
5, 245760, Note_off_c, 9, 42, 95
5, 245760, Note_off_c, 9, 40, 95
5, 245760, Note_off_c, 9, 38, 95
5, 246240, Note_on_c, 9, 42, 95
5, 246240, Note_on_c, 9, 36, 95
5, 246720, Note_off_c, 9, 42, 95
5, 246720, Note_off_c, 9, 36, 95
5, 247200, Note_on_c, 9, 42, 95
5, 247200, Note_on_c, 9, 40, 95
5, 247200, Note_on_c, 9, 38, 95
5, 247680, Note_off_c, 9, 42, 95
5, 247680, Note_off_c, 9, 40, 95
5, 247680, Note_off_c, 9, 38, 95
5, 248160, Note_on_c, 9, 42, 95
5, 248160, Note_on_c, 9, 36, 95
5, 248640, Note_off_c, 9, 42, 95
5, 248640, Note_off_c, 9, 36, 95
5, 249120, Note_on_c, 9, 42, 95
5, 249120, Note_on_c, 9, 40, 95
5, 249120, Note_on_c, 9, 38, 95
5, 249600, Note_off_c, 9, 42, 95
5, 249600, Note_off_c, 9, 40, 95
5, 249600, Note_off_c, 9, 38, 95
5, 250080, Note_on_c, 9, 42, 95
5, 250080, Note_on_c, 9, 36, 95
5, 250560, Note_off_c, 9, 42, 95
5, 250560, Note_off_c, 9, 36, 95
5, 251040, Note_on_c, 9, 42, 95
5, 251040, Note_on_c, 9, 40, 95
5, 251040, Note_on_c, 9, 38, 95
5, 251520, Note_off_c, 9, 42, 95
5, 251520, Note_off_c, 9, 40, 95
5, 251520, Note_off_c, 9, 38, 95
5, 252000, Note_on_c, 9, 42, 95
5, 252000, Note_on_c, 9, 36, 95
5, 252480, Note_off_c, 9, 42, 95
5, 252480, Note_off_c, 9, 36, 95
5, 252960, Note_on_c, 9, 42, 95
5, 252960, Note_on_c, 9, 40, 95
5, 252960, Note_on_c, 9, 38, 95
5, 253440, Note_off_c, 9, 42, 95
5, 253440, Note_off_c, 9, 40, 95
5, 253440, Note_off_c, 9, 38, 95
5, 253920, Note_on_c, 9, 42, 95
5, 253920, Note_on_c, 9, 36, 95
5, 254400, Note_off_c, 9, 42, 95
5, 254400, Note_off_c, 9, 36, 95
5, 254880, Note_on_c, 9, 42, 95
5, 254880, Note_on_c, 9, 40, 95
5, 254880, Note_on_c, 9, 38, 95
5, 255360, Note_off_c, 9, 42, 95
5, 255360, Note_off_c, 9, 40, 95
5, 255360, Note_off_c, 9, 38, 95
5, 255840, Note_on_c, 9, 42, 95
5, 255840, Note_on_c, 9, 36, 95
5, 256320, Note_off_c, 9, 42, 95
5, 256320, Note_off_c, 9, 36, 95
5, 256800, Note_on_c, 9, 42, 95
5, 256800, Note_on_c, 9, 40, 95
5, 256800, Note_on_c, 9, 38, 95
5, 257280, Note_off_c, 9, 42, 95
5, 257280, Note_off_c, 9, 40, 95
5, 257280, Note_off_c, 9, 38, 95
5, 257760, Note_on_c, 9, 42, 95
5, 257760, Note_on_c, 9, 36, 95
5, 258240, Note_off_c, 9, 42, 95
5, 258240, Note_off_c, 9, 36, 95
5, 258720, Note_on_c, 9, 42, 95
5, 258720, Note_on_c, 9, 40, 95
5, 258720, Note_on_c, 9, 38, 95
5, 259200, Note_off_c, 9, 42, 95
5, 259200, Note_off_c, 9, 40, 95
5, 259200, Note_off_c, 9, 38, 95
5, 259680, Note_on_c, 9, 42, 95
5, 259680, Note_on_c, 9, 36, 95
5, 260160, Note_off_c, 9, 42, 95
5, 260160, Note_off_c, 9, 36, 95
5, 260640, Note_on_c, 9, 42, 95
5, 260640, Note_on_c, 9, 40, 95
5, 260640, Note_on_c, 9, 38, 95
5, 261120, Note_off_c, 9, 42, 95
5, 261120, Note_off_c, 9, 40, 95
5, 261120, Note_off_c, 9, 38, 95
5, 261600, Note_on_c, 9, 42, 95
5, 261600, Note_on_c, 9, 36, 95
5, 262080, Note_off_c, 9, 42, 95
5, 262080, Note_off_c, 9, 36, 95
5, 262560, Note_on_c, 9, 42, 95
5, 262560, Note_on_c, 9, 40, 95
5, 262560, Note_on_c, 9, 38, 95
5, 263040, Note_off_c, 9, 42, 95
5, 263040, Note_off_c, 9, 40, 95
5, 263040, Note_off_c, 9, 38, 95
5, 263520, Note_on_c, 9, 42, 95
5, 263520, Note_on_c, 9, 36, 95
5, 264000, Note_off_c, 9, 42, 95
5, 264000, Note_off_c, 9, 36, 95
5, 264480, Note_on_c, 9, 42, 95
5, 264480, Note_on_c, 9, 40, 95
5, 264480, Note_on_c, 9, 38, 95
5, 264960, Note_off_c, 9, 42, 95
5, 264960, Note_off_c, 9, 40, 95
5, 264960, Note_off_c, 9, 38, 95
5, 265440, Note_on_c, 9, 42, 95
5, 265440, Note_on_c, 9, 36, 95
5, 265920, Note_off_c, 9, 42, 95
5, 265920, Note_off_c, 9, 36, 95
5, 266400, Note_on_c, 9, 42, 95
5, 266400, Note_on_c, 9, 40, 95
5, 266400, Note_on_c, 9, 38, 95
5, 266880, Note_off_c, 9, 42, 95
5, 266880, Note_off_c, 9, 40, 95
5, 266880, Note_off_c, 9, 38, 95
5, 267360, Note_on_c, 9, 42, 95
5, 267360, Note_on_c, 9, 36, 95
5, 267840, Note_off_c, 9, 42, 95
5, 267840, Note_off_c, 9, 36, 95
5, 268320, Note_on_c, 9, 42, 95
5, 268320, Note_on_c, 9, 40, 95
5, 268320, Note_on_c, 9, 38, 95
5, 268800, Note_off_c, 9, 42, 95
5, 268800, Note_off_c, 9, 40, 95
5, 268800, Note_off_c, 9, 38, 95
5, 269280, Note_on_c, 9, 42, 95
5, 269280, Note_on_c, 9, 36, 95
5, 269760, Note_off_c, 9, 42, 95
5, 269760, Note_off_c, 9, 36, 95
5, 270240, Note_on_c, 9, 42, 95
5, 270240, Note_on_c, 9, 40, 95
5, 270240, Note_on_c, 9, 38, 95
5, 270720, Note_off_c, 9, 42, 95
5, 270720, Note_off_c, 9, 40, 95
5, 270720, Note_off_c, 9, 38, 95
5, 271200, Note_on_c, 9, 42, 95
5, 271200, Note_on_c, 9, 36, 95
5, 271680, Note_off_c, 9, 42, 95
5, 271680, Note_off_c, 9, 36, 95
5, 272160, Note_on_c, 9, 42, 95
5, 272160, Note_on_c, 9, 40, 95
5, 272160, Note_on_c, 9, 38, 95
5, 272640, Note_off_c, 9, 42, 95
5, 272640, Note_off_c, 9, 40, 95
5, 272640, Note_off_c, 9, 38, 95
5, 273120, Note_on_c, 9, 42, 95
5, 273120, Note_on_c, 9, 36, 95
5, 273600, Note_off_c, 9, 42, 95
5, 273600, Note_off_c, 9, 36, 95
5, 274080, Note_on_c, 9, 42, 95
5, 274080, Note_on_c, 9, 40, 95
5, 274080, Note_on_c, 9, 38, 95
5, 274560, Note_off_c, 9, 42, 95
5, 274560, Note_off_c, 9, 40, 95
5, 274560, Note_off_c, 9, 38, 95
5, 275040, Note_on_c, 9, 42, 95
5, 275040, Note_on_c, 9, 36, 95
5, 275520, Note_off_c, 9, 42, 95
5, 275520, Note_off_c, 9, 36, 95
5, 276000, Note_on_c, 9, 42, 95
5, 276000, Note_on_c, 9, 40, 95
5, 276000, Note_on_c, 9, 38, 95
5, 276480, Note_off_c, 9, 42, 95
5, 276480, Note_off_c, 9, 40, 95
5, 276480, Note_off_c, 9, 38, 95
5, 276960, Note_on_c, 9, 42, 95
5, 276960, Note_on_c, 9, 36, 95
5, 277440, Note_off_c, 9, 42, 95
5, 277440, Note_off_c, 9, 36, 95
5, 277920, Note_on_c, 9, 42, 95
5, 277920, Note_on_c, 9, 40, 95
5, 277920, Note_on_c, 9, 38, 95
5, 278400, Note_off_c, 9, 42, 95
5, 278400, Note_off_c, 9, 40, 95
5, 278400, Note_off_c, 9, 38, 95
5, 278880, Note_on_c, 9, 42, 95
5, 278880, Note_on_c, 9, 36, 95
5, 279360, Note_off_c, 9, 42, 95
5, 279360, Note_off_c, 9, 36, 95
5, 279840, Note_on_c, 9, 42, 95
5, 279840, Note_on_c, 9, 40, 95
5, 279840, Note_on_c, 9, 38, 95
5, 280320, Note_off_c, 9, 42, 95
5, 280320, Note_off_c, 9, 40, 95
5, 280320, Note_off_c, 9, 38, 95
5, 280800, Note_on_c, 9, 42, 95
5, 280800, Note_on_c, 9, 36, 95
5, 281280, Note_off_c, 9, 42, 95
5, 281280, Note_off_c, 9, 36, 95
5, 281760, Note_on_c, 9, 42, 95
5, 281760, Note_on_c, 9, 40, 95
5, 281760, Note_on_c, 9, 38, 95
5, 282240, Note_off_c, 9, 42, 95
5, 282240, Note_off_c, 9, 40, 95
5, 282240, Note_off_c, 9, 38, 95
5, 282720, Note_on_c, 9, 42, 95
5, 282720, Note_on_c, 9, 36, 95
5, 283200, Note_off_c, 9, 42, 95
5, 283200, Note_off_c, 9, 36, 95
5, 283680, Note_on_c, 9, 42, 95
5, 283680, Note_on_c, 9, 40, 95
5, 283680, Note_on_c, 9, 38, 95
5, 284160, Note_off_c, 9, 42, 95
5, 284160, Note_off_c, 9, 40, 95
5, 284160, Note_off_c, 9, 38, 95
5, 284640, Note_on_c, 9, 42, 95
5, 284640, Note_on_c, 9, 36, 95
5, 285120, Note_off_c, 9, 42, 95
5, 285120, Note_off_c, 9, 36, 95
5, 285600, Note_on_c, 9, 42, 95
5, 285600, Note_on_c, 9, 40, 95
5, 285600, Note_on_c, 9, 38, 95
5, 286080, Note_off_c, 9, 42, 95
5, 286080, Note_off_c, 9, 40, 95
5, 286080, Note_off_c, 9, 38, 95
5, 286560, Note_on_c, 9, 42, 95
5, 286560, Note_on_c, 9, 36, 95
5, 287040, Note_off_c, 9, 42, 95
5, 287040, Note_off_c, 9, 36, 95
5, 287520, Note_on_c, 9, 42, 95
5, 287520, Note_on_c, 9, 40, 95
5, 287520, Note_on_c, 9, 38, 95
5, 288000, Note_off_c, 9, 42, 95
5, 288000, Note_off_c, 9, 40, 95
5, 288000, Note_off_c, 9, 38, 95
5, 288480, Note_on_c, 9, 42, 95
5, 288480, Note_on_c, 9, 36, 95
5, 288960, Note_off_c, 9, 42, 95
5, 288960, Note_off_c, 9, 36, 95
5, 289440, Note_on_c, 9, 42, 95
5, 289440, Note_on_c, 9, 40, 95
5, 289440, Note_on_c, 9, 38, 95
5, 289920, Note_off_c, 9, 42, 95
5, 289920, Note_off_c, 9, 40, 95
5, 289920, Note_off_c, 9, 38, 95
5, 290400, Note_on_c, 9, 42, 95
5, 290400, Note_on_c, 9, 36, 95
5, 290880, Note_off_c, 9, 42, 95
5, 290880, Note_off_c, 9, 36, 95
5, 291360, Note_on_c, 9, 42, 95
5, 291360, Note_on_c, 9, 40, 95
5, 291360, Note_on_c, 9, 38, 95
5, 291840, Note_off_c, 9, 42, 95
5, 291840, Note_off_c, 9, 40, 95
5, 291840, Note_off_c, 9, 38, 95
5, 292320, Note_on_c, 9, 42, 95
5, 292320, Note_on_c, 9, 36, 95
5, 292800, Note_off_c, 9, 42, 95
5, 292800, Note_off_c, 9, 36, 95
5, 293280, Note_on_c, 9, 42, 95
5, 293280, Note_on_c, 9, 40, 95
5, 293280, Note_on_c, 9, 38, 95
5, 293760, Note_off_c, 9, 42, 95
5, 293760, Note_off_c, 9, 40, 95
5, 293760, Note_off_c, 9, 38, 95
5, 294240, Note_on_c, 9, 42, 95
5, 294240, Note_on_c, 9, 36, 95
5, 294720, Note_off_c, 9, 42, 95
5, 294720, Note_off_c, 9, 36, 95
5, 295200, Note_on_c, 9, 42, 95
5, 295200, Note_on_c, 9, 40, 95
5, 295200, Note_on_c, 9, 38, 95
5, 295680, Note_off_c, 9, 42, 95
5, 295680, Note_off_c, 9, 40, 95
5, 295680, Note_off_c, 9, 38, 95
5, 296160, Note_on_c, 9, 42, 95
5, 296160, Note_on_c, 9, 36, 95
5, 296640, Note_off_c, 9, 42, 95
5, 296640, Note_off_c, 9, 36, 95
5, 297120, Note_on_c, 9, 42, 95
5, 297120, Note_on_c, 9, 40, 95
5, 297120, Note_on_c, 9, 38, 95
5, 297600, Note_off_c, 9, 42, 95
5, 297600, Note_off_c, 9, 40, 95
5, 297600, Note_off_c, 9, 38, 95
5, 298080, Note_on_c, 9, 42, 95
5, 298080, Note_on_c, 9, 38, 95
5, 298080, Note_on_c, 9, 36, 95
5, 298560, Note_off_c, 9, 42, 95
5, 298560, Note_off_c, 9, 38, 95
5, 298560, Note_off_c, 9, 36, 95
5, 298560, Note_on_c, 9, 38, 95
5, 299040, Note_off_c, 9, 38, 95
5, 299040, Note_on_c, 9, 42, 95
5, 299040, Note_on_c, 9, 40, 95
5, 299040, Note_on_c, 9, 38, 95
5, 299280, Note_off_c, 9, 42, 95
5, 299280, Note_off_c, 9, 40, 95
5, 299280, Note_off_c, 9, 38, 95
5, 299280, Note_on_c, 9, 38, 95
5, 299520, Note_off_c, 9, 38, 95
5, 299520, Note_on_c, 9, 38, 95
5, 299760, Note_off_c, 9, 38, 95
5, 299760, Note_on_c, 9, 38, 95
5, 300000, Note_off_c, 9, 38, 95
5, 300000, Note_on_c, 9, 42, 95
5, 300000, Note_on_c, 9, 36, 95
5, 300480, Note_off_c, 9, 42, 95
5, 300480, Note_off_c, 9, 36, 95
5, 300960, Note_on_c, 9, 42, 95
5, 300960, Note_on_c, 9, 40, 95
5, 300960, Note_on_c, 9, 38, 95
5, 301440, Note_off_c, 9, 42, 95
5, 301440, Note_off_c, 9, 40, 95
5, 301440, Note_off_c, 9, 38, 95
5, 301920, Note_on_c, 9, 42, 95
5, 301920, Note_on_c, 9, 36, 95
5, 302400, Note_off_c, 9, 42, 95
5, 302400, Note_off_c, 9, 36, 95
5, 302880, Note_on_c, 9, 42, 95
5, 302880, Note_on_c, 9, 40, 95
5, 302880, Note_on_c, 9, 38, 95
5, 303360, Note_off_c, 9, 42, 95
5, 303360, Note_off_c, 9, 40, 95
5, 303360, Note_off_c, 9, 38, 95
5, 303840, Note_on_c, 9, 42, 95
5, 303840, Note_on_c, 9, 36, 95
5, 304320, Note_off_c, 9, 42, 95
5, 304320, Note_off_c, 9, 36, 95
5, 304800, Note_on_c, 9, 42, 95
5, 304800, Note_on_c, 9, 40, 95
5, 304800, Note_on_c, 9, 38, 95
5, 305280, Note_off_c, 9, 42, 95
5, 305280, Note_off_c, 9, 40, 95
5, 305280, Note_off_c, 9, 38, 95
5, 305760, Note_on_c, 9, 42, 95
5, 305760, Note_on_c, 9, 36, 95
5, 306240, Note_off_c, 9, 42, 95
5, 306240, Note_off_c, 9, 36, 95
5, 306720, Note_on_c, 9, 42, 95
5, 306720, Note_on_c, 9, 40, 95
5, 306720, Note_on_c, 9, 38, 95
5, 307200, Note_off_c, 9, 42, 95
5, 307200, Note_off_c, 9, 40, 95
5, 307200, Note_off_c, 9, 38, 95
5, 307680, Note_on_c, 9, 42, 95
5, 307680, Note_on_c, 9, 36, 95
5, 308160, Note_off_c, 9, 42, 95
5, 308160, Note_off_c, 9, 36, 95
5, 308640, Note_on_c, 9, 42, 95
5, 308640, Note_on_c, 9, 40, 95
5, 308640, Note_on_c, 9, 38, 95
5, 309120, Note_off_c, 9, 42, 95
5, 309120, Note_off_c, 9, 40, 95
5, 309120, Note_off_c, 9, 38, 95
5, 309600, Note_on_c, 9, 42, 95
5, 309600, Note_on_c, 9, 36, 95
5, 310080, Note_off_c, 9, 42, 95
5, 310080, Note_off_c, 9, 36, 95
5, 310560, Note_on_c, 9, 42, 95
5, 310560, Note_on_c, 9, 40, 95
5, 310560, Note_on_c, 9, 38, 95
5, 311040, Note_off_c, 9, 42, 95
5, 311040, Note_off_c, 9, 40, 95
5, 311040, Note_off_c, 9, 38, 95
5, 311520, Note_on_c, 9, 42, 95
5, 311520, Note_on_c, 9, 36, 95
5, 312000, Note_off_c, 9, 42, 95
5, 312000, Note_off_c, 9, 36, 95
5, 312480, Note_on_c, 9, 42, 95
5, 312480, Note_on_c, 9, 40, 95
5, 312480, Note_on_c, 9, 38, 95
5, 312960, Note_off_c, 9, 42, 95
5, 312960, Note_off_c, 9, 40, 95
5, 312960, Note_off_c, 9, 38, 95
5, 313440, Note_on_c, 9, 42, 95
5, 313440, Note_on_c, 9, 36, 95
5, 313920, Note_off_c, 9, 42, 95
5, 313920, Note_off_c, 9, 36, 95
5, 314400, Note_on_c, 9, 42, 95
5, 314400, Note_on_c, 9, 40, 95
5, 314400, Note_on_c, 9, 38, 95
5, 314880, Note_off_c, 9, 42, 95
5, 314880, Note_off_c, 9, 40, 95
5, 314880, Note_off_c, 9, 38, 95
5, 314880, Note_on_c, 9, 38, 95
5, 315120, Note_off_c, 9, 38, 95
5, 315120, Note_on_c, 9, 38, 95
5, 315360, Note_off_c, 9, 38, 95
5, 315360, Note_on_c, 9, 42, 95
5, 315360, Note_on_c, 9, 49, 95
5, 315360, Note_on_c, 9, 36, 95
5, 315840, Note_off_c, 9, 42, 95
5, 315840, Note_off_c, 9, 49, 95
5, 315840, Note_off_c, 9, 36, 95
5, 316320, Note_on_c, 9, 42, 95
5, 316320, Note_on_c, 9, 40, 95
5, 316320, Note_on_c, 9, 38, 95
5, 316800, Note_off_c, 9, 42, 95
5, 316800, Note_off_c, 9, 40, 95
5, 316800, Note_off_c, 9, 38, 95
5, 317280, Note_on_c, 9, 42, 95
5, 317280, Note_on_c, 9, 36, 95
5, 317760, Note_off_c, 9, 42, 95
5, 317760, Note_off_c, 9, 36, 95
5, 318240, Note_on_c, 9, 42, 95
5, 318240, Note_on_c, 9, 40, 95
5, 318240, Note_on_c, 9, 38, 95
5, 318720, Note_off_c, 9, 42, 95
5, 318720, Note_off_c, 9, 40, 95
5, 318720, Note_off_c, 9, 38, 95
5, 318720, Note_on_c, 9, 38, 95
5, 318960, Note_off_c, 9, 38, 95
5, 318960, Note_on_c, 9, 38, 95
5, 319200, Note_off_c, 9, 38, 95
5, 319200, Note_on_c, 9, 42, 95
5, 319200, Note_on_c, 9, 36, 95
5, 319680, Note_off_c, 9, 42, 95
5, 319680, Note_off_c, 9, 36, 95
5, 320160, Note_on_c, 9, 42, 95
5, 320160, Note_on_c, 9, 40, 95
5, 320160, Note_on_c, 9, 38, 95
5, 320640, Note_off_c, 9, 42, 95
5, 320640, Note_off_c, 9, 40, 95
5, 320640, Note_off_c, 9, 38, 95
5, 321120, Note_on_c, 9, 42, 95
5, 321120, Note_on_c, 9, 36, 95
5, 321600, Note_off_c, 9, 42, 95
5, 321600, Note_off_c, 9, 36, 95
5, 322080, Note_on_c, 9, 42, 95
5, 322080, Note_on_c, 9, 40, 95
5, 322080, Note_on_c, 9, 38, 95
5, 322560, Note_off_c, 9, 42, 95
5, 322560, Note_off_c, 9, 40, 95
5, 322560, Note_off_c, 9, 38, 95
5, 323040, Note_on_c, 9, 42, 95
5, 323040, Note_on_c, 9, 36, 95
5, 323520, Note_off_c, 9, 42, 95
5, 323520, Note_off_c, 9, 36, 95
5, 324000, Note_on_c, 9, 42, 95
5, 324000, Note_on_c, 9, 40, 95
5, 324000, Note_on_c, 9, 38, 95
5, 324480, Note_off_c, 9, 42, 95
5, 324480, Note_off_c, 9, 40, 95
5, 324480, Note_off_c, 9, 38, 95
5, 324960, Note_on_c, 9, 42, 95
5, 324960, Note_on_c, 9, 36, 95
5, 325440, Note_off_c, 9, 42, 95
5, 325440, Note_off_c, 9, 36, 95
5, 325920, Note_on_c, 9, 42, 95
5, 325920, Note_on_c, 9, 40, 95
5, 325920, Note_on_c, 9, 38, 95
5, 326400, Note_off_c, 9, 42, 95
5, 326400, Note_off_c, 9, 40, 95
5, 326400, Note_off_c, 9, 38, 95
5, 326880, Note_on_c, 9, 42, 95
5, 326880, Note_on_c, 9, 36, 95
5, 327360, Note_off_c, 9, 42, 95
5, 327360, Note_off_c, 9, 36, 95
5, 327840, Note_on_c, 9, 42, 95
5, 327840, Note_on_c, 9, 40, 95
5, 327840, Note_on_c, 9, 38, 95
5, 328320, Note_off_c, 9, 42, 95
5, 328320, Note_off_c, 9, 40, 95
5, 328320, Note_off_c, 9, 38, 95
5, 328800, Note_on_c, 9, 42, 95
5, 328800, Note_on_c, 9, 36, 95
5, 329280, Note_off_c, 9, 42, 95
5, 329280, Note_off_c, 9, 36, 95
5, 329760, Note_on_c, 9, 42, 95
5, 329760, Note_on_c, 9, 40, 95
5, 329760, Note_on_c, 9, 38, 95
5, 330240, Note_off_c, 9, 42, 95
5, 330240, Note_off_c, 9, 40, 95
5, 330240, Note_off_c, 9, 38, 95
5, 330720, Note_on_c, 9, 42, 95
5, 330720, Note_on_c, 9, 36, 95
5, 331200, Note_off_c, 9, 42, 95
5, 331200, Note_off_c, 9, 36, 95
5, 331680, Note_on_c, 9, 42, 95
5, 331680, Note_on_c, 9, 40, 95
5, 331680, Note_on_c, 9, 38, 95
5, 332160, Note_off_c, 9, 42, 95
5, 332160, Note_off_c, 9, 40, 95
5, 332160, Note_off_c, 9, 38, 95
5, 332640, Note_on_c, 9, 42, 95
5, 332640, Note_on_c, 9, 36, 95
5, 333120, Note_off_c, 9, 42, 95
5, 333120, Note_off_c, 9, 36, 95
5, 333600, Note_on_c, 9, 42, 95
5, 333600, Note_on_c, 9, 40, 95
5, 333600, Note_on_c, 9, 38, 95
5, 334080, Note_off_c, 9, 42, 95
5, 334080, Note_off_c, 9, 40, 95
5, 334080, Note_off_c, 9, 38, 95
5, 334560, Note_on_c, 9, 42, 95
5, 334560, Note_on_c, 9, 36, 95
5, 335040, Note_off_c, 9, 42, 95
5, 335040, Note_off_c, 9, 36, 95
5, 335520, Note_on_c, 9, 42, 95
5, 335520, Note_on_c, 9, 40, 95
5, 335520, Note_on_c, 9, 38, 95
5, 336000, Note_off_c, 9, 42, 95
5, 336000, Note_off_c, 9, 40, 95
5, 336000, Note_off_c, 9, 38, 95
5, 336480, Note_on_c, 9, 42, 95
5, 336480, Note_on_c, 9, 36, 95
5, 336960, Note_off_c, 9, 42, 95
5, 336960, Note_off_c, 9, 36, 95
5, 337440, Note_on_c, 9, 42, 95
5, 337440, Note_on_c, 9, 40, 95
5, 337440, Note_on_c, 9, 38, 95
5, 337920, Note_off_c, 9, 42, 95
5, 337920, Note_off_c, 9, 40, 95
5, 337920, Note_off_c, 9, 38, 95
5, 338400, Note_on_c, 9, 42, 95
5, 338400, Note_on_c, 9, 36, 95
5, 338880, Note_off_c, 9, 42, 95
5, 338880, Note_off_c, 9, 36, 95
5, 339360, Note_on_c, 9, 42, 95
5, 339360, Note_on_c, 9, 40, 95
5, 339360, Note_on_c, 9, 38, 95
5, 339840, Note_off_c, 9, 42, 95
5, 339840, Note_off_c, 9, 40, 95
5, 339840, Note_off_c, 9, 38, 95
5, 340320, Note_on_c, 9, 42, 95
5, 340320, Note_on_c, 9, 36, 95
5, 340800, Note_off_c, 9, 42, 95
5, 340800, Note_off_c, 9, 36, 95
5, 341280, Note_on_c, 9, 42, 95
5, 341280, Note_on_c, 9, 40, 95
5, 341280, Note_on_c, 9, 38, 95
5, 341760, Note_off_c, 9, 42, 95
5, 341760, Note_off_c, 9, 40, 95
5, 341760, Note_off_c, 9, 38, 95
5, 342240, Note_on_c, 9, 42, 95
5, 342240, Note_on_c, 9, 36, 95
5, 342720, Note_off_c, 9, 42, 95
5, 342720, Note_off_c, 9, 36, 95
5, 343200, Note_on_c, 9, 42, 95
5, 343200, Note_on_c, 9, 40, 95
5, 343200, Note_on_c, 9, 38, 95
5, 343680, Note_off_c, 9, 42, 95
5, 343680, Note_off_c, 9, 40, 95
5, 343680, Note_off_c, 9, 38, 95
5, 344160, Note_on_c, 9, 42, 95
5, 344160, Note_on_c, 9, 36, 95
5, 344640, Note_off_c, 9, 42, 95
5, 344640, Note_off_c, 9, 36, 95
5, 345120, Note_on_c, 9, 42, 95
5, 345120, Note_on_c, 9, 40, 95
5, 345120, Note_on_c, 9, 38, 95
5, 345600, Note_off_c, 9, 42, 95
5, 345600, Note_off_c, 9, 40, 95
5, 345600, Note_off_c, 9, 38, 95
5, 345600, Note_on_c, 9, 38, 95
5, 345840, Note_off_c, 9, 38, 95
5, 345840, Note_on_c, 9, 38, 95
5, 346080, Note_off_c, 9, 38, 95
5, 346080, Note_on_c, 9, 42, 95
5, 346080, Note_on_c, 9, 49, 95
5, 346080, Note_on_c, 9, 36, 95
5, 346560, Note_off_c, 9, 42, 95
5, 346560, Note_off_c, 9, 49, 95
5, 346560, Note_off_c, 9, 36, 95
5, 347040, Note_on_c, 9, 42, 95
5, 347040, Note_on_c, 9, 40, 95
5, 347040, Note_on_c, 9, 38, 95
5, 347520, Note_off_c, 9, 42, 95
5, 347520, Note_off_c, 9, 40, 95
5, 347520, Note_off_c, 9, 38, 95
5, 348000, Note_on_c, 9, 42, 95
5, 348000, Note_on_c, 9, 36, 95
5, 348480, Note_off_c, 9, 42, 95
5, 348480, Note_off_c, 9, 36, 95
5, 348960, Note_on_c, 9, 42, 95
5, 348960, Note_on_c, 9, 40, 95
5, 348960, Note_on_c, 9, 38, 95
5, 349440, Note_off_c, 9, 42, 95
5, 349440, Note_off_c, 9, 40, 95
5, 349440, Note_off_c, 9, 38, 95
5, 349440, Note_on_c, 9, 38, 95
5, 349680, Note_off_c, 9, 38, 95
5, 349680, Note_on_c, 9, 38, 95
5, 349920, Note_off_c, 9, 38, 95
5, 349920, Note_on_c, 9, 42, 95
5, 349920, Note_on_c, 9, 36, 95
5, 350400, Note_off_c, 9, 42, 95
5, 350400, Note_off_c, 9, 36, 95
5, 350880, Note_on_c, 9, 42, 95
5, 350880, Note_on_c, 9, 40, 95
5, 350880, Note_on_c, 9, 38, 95
5, 351360, Note_off_c, 9, 42, 95
5, 351360, Note_off_c, 9, 40, 95
5, 351360, Note_off_c, 9, 38, 95
5, 351840, Note_on_c, 9, 42, 95
5, 351840, Note_on_c, 9, 36, 95
5, 352320, Note_off_c, 9, 42, 95
5, 352320, Note_off_c, 9, 36, 95
5, 352800, Note_on_c, 9, 42, 95
5, 352800, Note_on_c, 9, 40, 95
5, 352800, Note_on_c, 9, 38, 95
5, 353280, Note_off_c, 9, 42, 95
5, 353280, Note_off_c, 9, 40, 95
5, 353280, Note_off_c, 9, 38, 95
5, 353760, Note_on_c, 9, 42, 95
5, 353760, Note_on_c, 9, 36, 95
5, 354240, Note_off_c, 9, 42, 95
5, 354240, Note_off_c, 9, 36, 95
5, 354720, Note_on_c, 9, 42, 95
5, 354720, Note_on_c, 9, 40, 95
5, 354720, Note_on_c, 9, 38, 95
5, 355200, Note_off_c, 9, 42, 95
5, 355200, Note_off_c, 9, 40, 95
5, 355200, Note_off_c, 9, 38, 95
5, 355680, Note_on_c, 9, 42, 95
5, 355680, Note_on_c, 9, 36, 95
5, 356160, Note_off_c, 9, 42, 95
5, 356160, Note_off_c, 9, 36, 95
5, 356640, Note_on_c, 9, 42, 95
5, 356640, Note_on_c, 9, 40, 95
5, 356640, Note_on_c, 9, 38, 95
5, 357120, Note_off_c, 9, 42, 95
5, 357120, Note_off_c, 9, 40, 95
5, 357120, Note_off_c, 9, 38, 95
5, 357600, Note_on_c, 9, 42, 95
5, 357600, Note_on_c, 9, 36, 95
5, 358080, Note_off_c, 9, 42, 95
5, 358080, Note_off_c, 9, 36, 95
5, 358560, Note_on_c, 9, 42, 95
5, 358560, Note_on_c, 9, 40, 95
5, 358560, Note_on_c, 9, 38, 95
5, 359040, Note_off_c, 9, 42, 95
5, 359040, Note_off_c, 9, 40, 95
5, 359040, Note_off_c, 9, 38, 95
5, 359520, Note_on_c, 9, 42, 95
5, 359520, Note_on_c, 9, 36, 95
5, 360000, Note_off_c, 9, 42, 95
5, 360000, Note_off_c, 9, 36, 95
5, 360480, Note_on_c, 9, 42, 95
5, 360480, Note_on_c, 9, 40, 95
5, 360480, Note_on_c, 9, 38, 95
5, 360960, Note_off_c, 9, 42, 95
5, 360960, Note_off_c, 9, 40, 95
5, 360960, Note_off_c, 9, 38, 95
5, 361440, Note_on_c, 9, 42, 95
5, 361440, Note_on_c, 9, 36, 95
5, 361920, Note_off_c, 9, 42, 95
5, 361920, Note_off_c, 9, 36, 95
5, 362400, Note_on_c, 9, 42, 95
5, 362400, Note_on_c, 9, 40, 95
5, 362400, Note_on_c, 9, 38, 95
5, 362880, Note_off_c, 9, 42, 95
5, 362880, Note_off_c, 9, 40, 95
5, 362880, Note_off_c, 9, 38, 95
5, 363360, Note_on_c, 9, 42, 95
5, 363360, Note_on_c, 9, 36, 95
5, 363840, Note_off_c, 9, 42, 95
5, 363840, Note_off_c, 9, 36, 95
5, 364320, Note_on_c, 9, 42, 95
5, 364320, Note_on_c, 9, 40, 95
5, 364320, Note_on_c, 9, 38, 95
5, 364800, Note_off_c, 9, 42, 95
5, 364800, Note_off_c, 9, 40, 95
5, 364800, Note_off_c, 9, 38, 95
5, 365280, Note_on_c, 9, 42, 95
5, 365280, Note_on_c, 9, 36, 95
5, 365760, Note_off_c, 9, 42, 95
5, 365760, Note_off_c, 9, 36, 95
5, 366240, Note_on_c, 9, 42, 95
5, 366240, Note_on_c, 9, 40, 95
5, 366240, Note_on_c, 9, 38, 95
5, 366720, Note_off_c, 9, 42, 95
5, 366720, Note_off_c, 9, 40, 95
5, 366720, Note_off_c, 9, 38, 95
5, 367200, Note_on_c, 9, 42, 95
5, 367200, Note_on_c, 9, 36, 95
5, 367680, Note_off_c, 9, 42, 95
5, 367680, Note_off_c, 9, 36, 95
5, 368160, Note_on_c, 9, 42, 95
5, 368160, Note_on_c, 9, 40, 95
5, 368160, Note_on_c, 9, 38, 95
5, 368640, Note_off_c, 9, 42, 95
5, 368640, Note_off_c, 9, 40, 95
5, 368640, Note_off_c, 9, 38, 95
5, 369120, Note_on_c, 9, 42, 95
5, 369120, Note_on_c, 9, 36, 95
5, 369600, Note_off_c, 9, 42, 95
5, 369600, Note_off_c, 9, 36, 95
5, 370080, Note_on_c, 9, 42, 95
5, 370080, Note_on_c, 9, 40, 95
5, 370080, Note_on_c, 9, 38, 95
5, 370560, Note_off_c, 9, 42, 95
5, 370560, Note_off_c, 9, 40, 95
5, 370560, Note_off_c, 9, 38, 95
5, 371040, Note_on_c, 9, 42, 95
5, 371040, Note_on_c, 9, 36, 95
5, 371520, Note_off_c, 9, 42, 95
5, 371520, Note_off_c, 9, 36, 95
5, 372000, Note_on_c, 9, 42, 95
5, 372000, Note_on_c, 9, 40, 95
5, 372000, Note_on_c, 9, 38, 95
5, 372480, Note_off_c, 9, 42, 95
5, 372480, Note_off_c, 9, 40, 95
5, 372480, Note_off_c, 9, 38, 95
5, 372960, Note_on_c, 9, 42, 95
5, 372960, Note_on_c, 9, 36, 95
5, 373440, Note_off_c, 9, 42, 95
5, 373440, Note_off_c, 9, 36, 95
5, 373920, Note_on_c, 9, 42, 95
5, 373920, Note_on_c, 9, 40, 95
5, 373920, Note_on_c, 9, 38, 95
5, 374400, Note_off_c, 9, 42, 95
5, 374400, Note_off_c, 9, 40, 95
5, 374400, Note_off_c, 9, 38, 95
5, 374880, Note_on_c, 9, 42, 95
5, 374880, Note_on_c, 9, 36, 95
5, 375360, Note_off_c, 9, 42, 95
5, 375360, Note_off_c, 9, 36, 95
5, 375840, Note_on_c, 9, 42, 95
5, 375840, Note_on_c, 9, 40, 95
5, 375840, Note_on_c, 9, 38, 95
5, 376320, Note_off_c, 9, 42, 95
5, 376320, Note_off_c, 9, 40, 95
5, 376320, Note_off_c, 9, 38, 95
5, 376800, Note_on_c, 9, 42, 95
5, 376800, Note_on_c, 9, 36, 95
5, 377280, Note_off_c, 9, 42, 95
5, 377280, Note_off_c, 9, 36, 95
5, 377760, Note_on_c, 9, 42, 95
5, 377760, Note_on_c, 9, 40, 95
5, 377760, Note_on_c, 9, 38, 95
5, 378240, Note_off_c, 9, 42, 95
5, 378240, Note_off_c, 9, 40, 95
5, 378240, Note_off_c, 9, 38, 95
5, 378720, Note_on_c, 9, 42, 95
5, 378720, Note_on_c, 9, 36, 95
5, 379200, Note_off_c, 9, 42, 95
5, 379200, Note_off_c, 9, 36, 95
5, 379680, Note_on_c, 9, 42, 95
5, 379680, Note_on_c, 9, 40, 95
5, 379680, Note_on_c, 9, 38, 95
5, 380160, Note_off_c, 9, 42, 95
5, 380160, Note_off_c, 9, 40, 95
5, 380160, Note_off_c, 9, 38, 95
5, 380640, Note_on_c, 9, 42, 95
5, 380640, Note_on_c, 9, 36, 95
5, 381120, Note_off_c, 9, 42, 95
5, 381120, Note_off_c, 9, 36, 95
5, 381600, Note_on_c, 9, 42, 95
5, 381600, Note_on_c, 9, 40, 95
5, 381600, Note_on_c, 9, 38, 95
5, 382080, Note_off_c, 9, 42, 95
5, 382080, Note_off_c, 9, 40, 95
5, 382080, Note_off_c, 9, 38, 95
5, 382560, Note_on_c, 9, 42, 95
5, 382560, Note_on_c, 9, 36, 95
5, 383040, Note_off_c, 9, 42, 95
5, 383040, Note_off_c, 9, 36, 95
5, 383520, Note_on_c, 9, 42, 95
5, 383520, Note_on_c, 9, 40, 95
5, 383520, Note_on_c, 9, 38, 95
5, 384000, Note_off_c, 9, 42, 95
5, 384000, Note_off_c, 9, 40, 95
5, 384000, Note_off_c, 9, 38, 95
5, 384480, Note_on_c, 9, 42, 95
5, 384480, Note_on_c, 9, 36, 95
5, 384960, Note_off_c, 9, 42, 95
5, 384960, Note_off_c, 9, 36, 95
5, 385440, Note_on_c, 9, 42, 95
5, 385440, Note_on_c, 9, 40, 95
5, 385440, Note_on_c, 9, 38, 95
5, 385920, Note_off_c, 9, 42, 95
5, 385920, Note_off_c, 9, 40, 95
5, 385920, Note_off_c, 9, 38, 95
5, 386400, Note_on_c, 9, 42, 95
5, 386400, Note_on_c, 9, 36, 95
5, 386880, Note_off_c, 9, 42, 95
5, 386880, Note_off_c, 9, 36, 95
5, 387360, Note_on_c, 9, 42, 95
5, 387360, Note_on_c, 9, 40, 95
5, 387360, Note_on_c, 9, 38, 95
5, 387840, Note_off_c, 9, 42, 95
5, 387840, Note_off_c, 9, 40, 95
5, 387840, Note_off_c, 9, 38, 95
5, 388320, Note_on_c, 9, 42, 95
5, 388320, Note_on_c, 9, 36, 95
5, 388800, Note_off_c, 9, 42, 95
5, 388800, Note_off_c, 9, 36, 95
5, 389280, Note_on_c, 9, 42, 95
5, 389280, Note_on_c, 9, 40, 95
5, 389280, Note_on_c, 9, 38, 95
5, 389760, Note_off_c, 9, 42, 95
5, 389760, Note_off_c, 9, 40, 95
5, 389760, Note_off_c, 9, 38, 95
5, 390240, Note_on_c, 9, 42, 95
5, 390240, Note_on_c, 9, 36, 95
5, 390720, Note_off_c, 9, 42, 95
5, 390720, Note_off_c, 9, 36, 95
5, 391200, Note_on_c, 9, 42, 95
5, 391200, Note_on_c, 9, 40, 95
5, 391200, Note_on_c, 9, 38, 95
5, 391680, Note_off_c, 9, 42, 95
5, 391680, Note_off_c, 9, 40, 95
5, 391680, Note_off_c, 9, 38, 95
5, 392160, Note_on_c, 9, 42, 95
5, 392160, Note_on_c, 9, 36, 95
5, 392640, Note_off_c, 9, 42, 95
5, 392640, Note_off_c, 9, 36, 95
5, 393120, Note_on_c, 9, 42, 95
5, 393120, Note_on_c, 9, 40, 95
5, 393120, Note_on_c, 9, 38, 95
5, 393600, Note_off_c, 9, 42, 95
5, 393600, Note_off_c, 9, 40, 95
5, 393600, Note_off_c, 9, 38, 95
5, 394080, Note_on_c, 9, 42, 95
5, 394080, Note_on_c, 9, 36, 95
5, 394560, Note_off_c, 9, 42, 95
5, 394560, Note_off_c, 9, 36, 95
5, 395040, Note_on_c, 9, 42, 95
5, 395040, Note_on_c, 9, 40, 95
5, 395040, Note_on_c, 9, 38, 95
5, 395520, Note_off_c, 9, 42, 95
5, 395520, Note_off_c, 9, 40, 95
5, 395520, Note_off_c, 9, 38, 95
5, 396000, Note_on_c, 9, 42, 95
5, 396000, Note_on_c, 9, 36, 95
5, 396480, Note_off_c, 9, 42, 95
5, 396480, Note_off_c, 9, 36, 95
5, 396960, Note_on_c, 9, 42, 95
5, 396960, Note_on_c, 9, 40, 95
5, 396960, Note_on_c, 9, 38, 95
5, 397440, Note_off_c, 9, 42, 95
5, 397440, Note_off_c, 9, 40, 95
5, 397440, Note_off_c, 9, 38, 95
5, 397920, Note_on_c, 9, 42, 95
5, 397920, Note_on_c, 9, 36, 95
5, 398400, Note_off_c, 9, 42, 95
5, 398400, Note_off_c, 9, 36, 95
5, 398880, Note_on_c, 9, 42, 95
5, 398880, Note_on_c, 9, 40, 95
5, 398880, Note_on_c, 9, 38, 95
5, 399360, Note_off_c, 9, 42, 95
5, 399360, Note_off_c, 9, 40, 95
5, 399360, Note_off_c, 9, 38, 95
5, 399840, Note_on_c, 9, 42, 95
5, 399840, Note_on_c, 9, 36, 95
5, 400320, Note_off_c, 9, 42, 95
5, 400320, Note_off_c, 9, 36, 95
5, 400800, Note_on_c, 9, 42, 95
5, 400800, Note_on_c, 9, 40, 95
5, 400800, Note_on_c, 9, 38, 95
5, 401280, Note_off_c, 9, 42, 95
5, 401280, Note_off_c, 9, 40, 95
5, 401280, Note_off_c, 9, 38, 95
5, 401760, Note_on_c, 9, 42, 95
5, 401760, Note_on_c, 9, 36, 95
5, 402240, Note_off_c, 9, 42, 95
5, 402240, Note_off_c, 9, 36, 95
5, 402720, Note_on_c, 9, 42, 95
5, 402720, Note_on_c, 9, 40, 95
5, 402720, Note_on_c, 9, 38, 95
5, 403200, Note_off_c, 9, 42, 95
5, 403200, Note_off_c, 9, 40, 95
5, 403200, Note_off_c, 9, 38, 95
5, 403680, Note_on_c, 9, 42, 95
5, 403680, Note_on_c, 9, 36, 95
5, 404160, Note_off_c, 9, 42, 95
5, 404160, Note_off_c, 9, 36, 95
5, 404640, Note_on_c, 9, 42, 95
5, 404640, Note_on_c, 9, 40, 95
5, 404640, Note_on_c, 9, 38, 95
5, 405120, Note_off_c, 9, 42, 95
5, 405120, Note_off_c, 9, 40, 95
5, 405120, Note_off_c, 9, 38, 95
5, 405600, Note_on_c, 9, 42, 95
5, 405600, Note_on_c, 9, 36, 95
5, 406080, Note_off_c, 9, 42, 95
5, 406080, Note_off_c, 9, 36, 95
5, 406560, Note_on_c, 9, 42, 95
5, 406560, Note_on_c, 9, 40, 95
5, 406560, Note_on_c, 9, 38, 95
5, 407040, Note_off_c, 9, 42, 95
5, 407040, Note_off_c, 9, 40, 95
5, 407040, Note_off_c, 9, 38, 95
5, 407520, Note_on_c, 9, 42, 95
5, 407520, Note_on_c, 9, 36, 95
5, 408000, Note_off_c, 9, 42, 95
5, 408000, Note_off_c, 9, 36, 95
5, 408480, Note_on_c, 9, 42, 95
5, 408480, Note_on_c, 9, 40, 95
5, 408480, Note_on_c, 9, 38, 95
5, 408960, Note_off_c, 9, 42, 95
5, 408960, Note_off_c, 9, 40, 95
5, 408960, Note_off_c, 9, 38, 95
5, 409440, Note_on_c, 9, 42, 95
5, 409440, Note_on_c, 9, 36, 95
5, 409920, Note_off_c, 9, 42, 95
5, 409920, Note_off_c, 9, 36, 95
5, 410400, Note_on_c, 9, 42, 95
5, 410400, Note_on_c, 9, 40, 95
5, 410400, Note_on_c, 9, 38, 95
5, 410880, Note_off_c, 9, 42, 95
5, 410880, Note_off_c, 9, 40, 95
5, 410880, Note_off_c, 9, 38, 95
5, 411360, Note_on_c, 9, 42, 95
5, 411360, Note_on_c, 9, 36, 95
5, 411840, Note_off_c, 9, 42, 95
5, 411840, Note_off_c, 9, 36, 95
5, 412320, Note_on_c, 9, 42, 95
5, 412320, Note_on_c, 9, 40, 95
5, 412320, Note_on_c, 9, 38, 95
5, 412800, Note_off_c, 9, 42, 95
5, 412800, Note_off_c, 9, 40, 95
5, 412800, Note_off_c, 9, 38, 95
5, 413280, Note_on_c, 9, 42, 95
5, 413280, Note_on_c, 9, 38, 95
5, 413280, Note_on_c, 9, 36, 95
5, 413760, Note_off_c, 9, 42, 95
5, 413760, Note_off_c, 9, 38, 95
5, 413760, Note_off_c, 9, 36, 95
5, 413760, Note_on_c, 9, 38, 95
5, 414240, Note_off_c, 9, 38, 95
5, 414240, Note_on_c, 9, 42, 95
5, 414240, Note_on_c, 9, 40, 95
5, 414240, Note_on_c, 9, 38, 95
5, 414480, Note_off_c, 9, 42, 95
5, 414480, Note_off_c, 9, 40, 95
5, 414480, Note_off_c, 9, 38, 95
5, 414480, Note_on_c, 9, 38, 95
5, 414720, Note_off_c, 9, 38, 95
5, 414720, Note_on_c, 9, 38, 95
5, 414960, Note_off_c, 9, 38, 95
5, 414960, Note_on_c, 9, 38, 95
5, 415200, Note_off_c, 9, 38, 95
5, 415200, Note_on_c, 9, 42, 95
5, 415200, Note_on_c, 9, 36, 95
5, 415680, Note_off_c, 9, 42, 95
5, 415680, Note_off_c, 9, 36, 95
5, 416160, Note_on_c, 9, 42, 95
5, 416160, Note_on_c, 9, 40, 95
5, 416160, Note_on_c, 9, 38, 95
5, 416640, Note_off_c, 9, 42, 95
5, 416640, Note_off_c, 9, 40, 95
5, 416640, Note_off_c, 9, 38, 95
5, 417120, Note_on_c, 9, 42, 95
5, 417120, Note_on_c, 9, 36, 95
5, 417600, Note_off_c, 9, 42, 95
5, 417600, Note_off_c, 9, 36, 95
5, 418080, Note_on_c, 9, 42, 95
5, 418080, Note_on_c, 9, 40, 95
5, 418080, Note_on_c, 9, 38, 95
5, 418560, Note_off_c, 9, 42, 95
5, 418560, Note_off_c, 9, 40, 95
5, 418560, Note_off_c, 9, 38, 95
5, 419040, Note_on_c, 9, 42, 95
5, 419040, Note_on_c, 9, 36, 95
5, 419520, Note_off_c, 9, 42, 95
5, 419520, Note_off_c, 9, 36, 95
5, 420000, Note_on_c, 9, 42, 95
5, 420000, Note_on_c, 9, 40, 95
5, 420000, Note_on_c, 9, 38, 95
5, 420480, Note_off_c, 9, 42, 95
5, 420480, Note_off_c, 9, 40, 95
5, 420480, Note_off_c, 9, 38, 95
5, 420960, Note_on_c, 9, 42, 95
5, 420960, Note_on_c, 9, 36, 95
5, 421440, Note_off_c, 9, 42, 95
5, 421440, Note_off_c, 9, 36, 95
5, 421920, Note_on_c, 9, 42, 95
5, 421920, Note_on_c, 9, 40, 95
5, 421920, Note_on_c, 9, 38, 95
5, 422400, Note_off_c, 9, 42, 95
5, 422400, Note_off_c, 9, 40, 95
5, 422400, Note_off_c, 9, 38, 95
5, 422880, Note_on_c, 9, 42, 95
5, 422880, Note_on_c, 9, 36, 95
5, 423360, Note_off_c, 9, 42, 95
5, 423360, Note_off_c, 9, 36, 95
5, 423840, Note_on_c, 9, 42, 95
5, 423840, Note_on_c, 9, 40, 95
5, 423840, Note_on_c, 9, 38, 95
5, 424320, Note_off_c, 9, 42, 95
5, 424320, Note_off_c, 9, 40, 95
5, 424320, Note_off_c, 9, 38, 95
5, 424800, Note_on_c, 9, 42, 95
5, 424800, Note_on_c, 9, 36, 95
5, 425280, Note_off_c, 9, 42, 95
5, 425280, Note_off_c, 9, 36, 95
5, 425760, Note_on_c, 9, 42, 95
5, 425760, Note_on_c, 9, 40, 95
5, 425760, Note_on_c, 9, 38, 95
5, 426240, Note_off_c, 9, 42, 95
5, 426240, Note_off_c, 9, 40, 95
5, 426240, Note_off_c, 9, 38, 95
5, 426720, Note_on_c, 9, 42, 95
5, 426720, Note_on_c, 9, 36, 95
5, 427200, Note_off_c, 9, 42, 95
5, 427200, Note_off_c, 9, 36, 95
5, 427680, Note_on_c, 9, 42, 95
5, 427680, Note_on_c, 9, 40, 95
5, 427680, Note_on_c, 9, 38, 95
5, 428160, Note_off_c, 9, 42, 95
5, 428160, Note_off_c, 9, 40, 95
5, 428160, Note_off_c, 9, 38, 95
5, 428640, Note_on_c, 9, 42, 95
5, 428640, Note_on_c, 9, 36, 95
5, 429120, Note_off_c, 9, 42, 95
5, 429120, Note_off_c, 9, 36, 95
5, 429600, Note_on_c, 9, 42, 95
5, 429600, Note_on_c, 9, 40, 95
5, 429600, Note_on_c, 9, 38, 95
5, 430080, Note_off_c, 9, 42, 95
5, 430080, Note_off_c, 9, 40, 95
5, 430080, Note_off_c, 9, 38, 95
5, 430560, Note_on_c, 9, 42, 95
5, 430560, Note_on_c, 9, 49, 95
5, 430560, Note_on_c, 9, 38, 95
5, 430560, Note_on_c, 9, 36, 95
5, 434400, Note_off_c, 9, 42, 95
5, 434400, Note_off_c, 9, 49, 95
5, 434400, Note_off_c, 9, 38, 95
5, 434400, Note_off_c, 9, 36, 95
5, 434400, End_track
0, 0, End_of_file
